{"title":"España, Op. 165: No. 5, Capricho Catalán","artist":"Albéniz","durationMs":120668,"midiSha256":"4d4b20de98f5c890914d90fd75e1c76c831f68a43ca7ea01afb208aa505adc4e","midiObject":[{"NoteNumber":58,"Velocity":38,"Duration":257466,"SoundDuration":257466,"Delta":0},{"NoteNumber":51,"Velocity":32,"Duration":1029866,"SoundDuration":1029866,"Delta":0},{"NoteNumber":58,"Velocity":35,"Duration":514932,"SoundDuration":514932,"Delta":257466},{"NoteNumber":58,"Velocity":33,"Duration":257466,"SoundDuration":257466,"Delta":772399},{"NoteNumber":58,"Velocity":37,"Duration":257466,"SoundDuration":257466,"Delta":1029866},{"NoteNumber":51,"Velocity":32,"Duration":1029866,"SoundDuration":1029866,"Delta":1029866},{"NoteNumber":58,"Velocity":35,"Duration":514932,"SoundDuration":514932,"Delta":1287332},{"NoteNumber":58,"Velocity":34,"Duration":257466,"SoundDuration":257466,"Delta":1802265},{"NoteNumber":75,"Velocity":52,"Duration":766821,"SoundDuration":766821,"Delta":2059732},{"NoteNumber":79,"Velocity":52,"Duration":766821,"SoundDuration":766821,"Delta":2059732},{"NoteNumber":58,"Velocity":38,"Duration":257466,"SoundDuration":257466,"Delta":2059732},{"NoteNumber":51,"Velocity":32,"Duration":1028967,"SoundDuration":1028967,"Delta":2059732},{"NoteNumber":58,"Velocity":35,"Duration":509355,"SoundDuration":509355,"Delta":2317198},{"NoteNumber":77,"Velocity":50,"Duration":262146,"SoundDuration":262146,"Delta":2826554},{"NoteNumber":74,"Velocity":50,"Duration":262146,"SoundDuration":262146,"Delta":2826554},{"NoteNumber":58,"Velocity":33,"Duration":262146,"SoundDuration":262146,"Delta":2826554},{"NoteNumber":80,"Velocity":52,"Duration":514977,"SoundDuration":514977,"Delta":3088700},{"NoteNumber":77,"Velocity":52,"Duration":514977,"SoundDuration":514977,"Delta":3088700},{"NoteNumber":58,"Velocity":37,"Duration":257488,"SoundDuration":257488,"Delta":3088700},{"NoteNumber":51,"Velocity":32,"Duration":1014436,"SoundDuration":1014436,"Delta":3088700},{"NoteNumber":58,"Velocity":35,"Duration":507217,"SoundDuration":507217,"Delta":3346188},{"NoteNumber":77,"Velocity":52,"Duration":249729,"SoundDuration":249729,"Delta":3603677},{"NoteNumber":74,"Velocity":52,"Duration":249729,"SoundDuration":249729,"Delta":3603677},{"NoteNumber":75,"Velocity":50,"Duration":249729,"SoundDuration":249729,"Delta":3853406},{"NoteNumber":79,"Velocity":50,"Duration":249729,"SoundDuration":249729,"Delta":3853406},{"NoteNumber":58,"Velocity":34,"Duration":249729,"SoundDuration":249729,"Delta":3853406},{"NoteNumber":72,"Velocity":52,"Duration":508216,"SoundDuration":508216,"Delta":4103136},{"NoteNumber":75,"Velocity":52,"Duration":508216,"SoundDuration":508216,"Delta":4103136},{"NoteNumber":58,"Velocity":38,"Duration":254107,"SoundDuration":254107,"Delta":4103136},{"NoteNumber":51,"Velocity":32,"Duration":1027785,"SoundDuration":1027785,"Delta":4103136},{"NoteNumber":58,"Velocity":35,"Duration":513893,"SoundDuration":513893,"Delta":4357244},{"NoteNumber":72,"Velocity":49,"Duration":519569,"SoundDuration":519569,"Delta":4611352},{"NoteNumber":68,"Velocity":49,"Duration":519569,"SoundDuration":519569,"Delta":4611352},{"NoteNumber":58,"Velocity":33,"Duration":259784,"SoundDuration":259784,"Delta":4871137},{"NoteNumber":67,"Velocity":47,"Duration":1034546,"SoundDuration":1034546,"Delta":5130922},{"NoteNumber":70,"Velocity":47,"Duration":1034546,"SoundDuration":1034546,"Delta":5130922},{"NoteNumber":58,"Velocity":37,"Duration":259784,"SoundDuration":259784,"Delta":5130922},{"NoteNumber":51,"Velocity":32,"Duration":1034546,"SoundDuration":1034546,"Delta":5130922},{"NoteNumber":58,"Velocity":35,"Duration":517273,"SoundDuration":517273,"Delta":5390707},{"NoteNumber":58,"Velocity":34,"Duration":257488,"SoundDuration":257488,"Delta":5907980},{"NoteNumber":72,"Velocity":51,"Duration":499458,"SoundDuration":499458,"Delta":6165469},{"NoteNumber":68,"Velocity":51,"Duration":993627,"SoundDuration":993627,"Delta":6165469},{"NoteNumber":65,"Velocity":37,"Duration":993627,"SoundDuration":993627,"Delta":6165469},{"NoteNumber":51,"Velocity":32,"Duration":993627,"SoundDuration":993627,"Delta":6165469},{"NoteNumber":58,"Velocity":35,"Duration":494168,"SoundDuration":494168,"Delta":6415198},{"NoteNumber":74,"Velocity":56,"Duration":244438,"SoundDuration":244438,"Delta":6664928},{"NoteNumber":77,"Velocity":55,"Duration":249729,"SoundDuration":249729,"Delta":6909367},{"NoteNumber":58,"Velocity":34,"Duration":249729,"SoundDuration":249729,"Delta":6909367},{"NoteNumber":68,"Velocity":55,"Duration":1016431,"SoundDuration":1016431,"Delta":7159096},{"NoteNumber":74,"Velocity":55,"Duration":508216,"SoundDuration":508216,"Delta":7159096},{"NoteNumber":65,"Velocity":37,"Duration":1016431,"SoundDuration":1016431,"Delta":7159096},{"NoteNumber":51,"Velocity":32,"Duration":1016431,"SoundDuration":1016431,"Delta":7159096},{"NoteNumber":58,"Velocity":35,"Duration":508216,"SoundDuration":508216,"Delta":7413204},{"NoteNumber":70,"Velocity":51,"Duration":508215,"SoundDuration":508215,"Delta":7667312},{"NoteNumber":58,"Velocity":34,"Duration":254107,"SoundDuration":254107,"Delta":7921420},{"NoteNumber":67,"Velocity":51,"Duration":1001489,"SoundDuration":1001489,"Delta":8175528},{"NoteNumber":72,"Velocity":51,"Duration":248632,"SoundDuration":248632,"Delta":8175528},{"NoteNumber":58,"Velocity":37,"Duration":248632,"SoundDuration":248632,"Delta":8175528},{"NoteNumber":51,"Velocity":32,"Duration":1001489,"SoundDuration":1001489,"Delta":8175528},{"NoteNumber":74,"Velocity":49,"Duration":248632,"SoundDuration":248632,"Delta":8424160},{"NoteNumber":58,"Velocity":35,"Duration":493071,"SoundDuration":493071,"Delta":8424160},{"NoteNumber":79,"Velocity":52,"Duration":244438,"SoundDuration":244438,"Delta":8672793},{"NoteNumber":72,"Velocity":50,"Duration":259785,"SoundDuration":259785,"Delta":8917232},{"NoteNumber":58,"Velocity":34,"Duration":259785,"SoundDuration":259785,"Delta":8917232},{"NoteNumber":67,"Velocity":47,"Duration":1039139,"SoundDuration":1039139,"Delta":9177017},{"NoteNumber":70,"Velocity":47,"Duration":1039139,"SoundDuration":1039139,"Delta":9177017},{"NoteNumber":51,"Velocity":32,"Duration":1039139,"SoundDuration":1039139,"Delta":9177017},{"NoteNumber":58,"Velocity":37,"Duration":259784,"SoundDuration":259784,"Delta":9177017},{"NoteNumber":58,"Velocity":35,"Duration":519569,"SoundDuration":519569,"Delta":9436802},{"NoteNumber":58,"Velocity":34,"Duration":259785,"SoundDuration":259785,"Delta":9956372},{"NoteNumber":74,"Velocity":64,"Duration":761215,"SoundDuration":761215,"Delta":10216157},{"NoteNumber":70,"Velocity":64,"Duration":761215,"SoundDuration":761215,"Delta":10216157},{"NoteNumber":62,"Velocity":42,"Duration":255210,"SoundDuration":255210,"Delta":10216157},{"NoteNumber":55,"Velocity":35,"Duration":1016425,"SoundDuration":1016425,"Delta":10216157},{"NoteNumber":62,"Velocity":38,"Duration":506004,"SoundDuration":506004,"Delta":10471368},{"NoteNumber":70,"Velocity":55,"Duration":255210,"SoundDuration":255210,"Delta":10977372},{"NoteNumber":67,"Velocity":55,"Duration":255210,"SoundDuration":255210,"Delta":10977372},{"NoteNumber":62,"Velocity":36,"Duration":255210,"SoundDuration":255210,"Delta":10977372},{"NoteNumber":72,"Velocity":51,"Duration":501587,"SoundDuration":501587,"Delta":11232583},{"NoteNumber":69,"Velocity":60,"Duration":988402,"SoundDuration":988402,"Delta":11232583},{"NoteNumber":63,"Velocity":40,"Duration":250794,"SoundDuration":250794,"Delta":11232583},{"NoteNumber":55,"Velocity":35,"Duration":988402,"SoundDuration":988402,"Delta":11232583},{"NoteNumber":63,"Velocity":38,"Duration":494201,"SoundDuration":494201,"Delta":11483377},{"NoteNumber":78,"Velocity":65,"Duration":243407,"SoundDuration":243407,"Delta":11734171},{"NoteNumber":81,"Velocity":60,"Duration":243407,"SoundDuration":243407,"Delta":11977578},{"NoteNumber":63,"Velocity":37,"Duration":243407,"SoundDuration":243407,"Delta":11977578},{"NoteNumber":70,"Velocity":57,"Duration":490957,"SoundDuration":490957,"Delta":12220986},{"NoteNumber":79,"Velocity":64,"Duration":245478,"SoundDuration":245478,"Delta":12220986},{"NoteNumber":62,"Velocity":43,"Duration":245478,"SoundDuration":245478,"Delta":12220986},{"NoteNumber":55,"Velocity":38,"Duration":490957,"SoundDuration":490957,"Delta":12220986},{"NoteNumber":74,"Velocity":56,"Duration":245478,"SoundDuration":245478,"Delta":12466465},{"NoteNumber":62,"Velocity":37,"Duration":245478,"SoundDuration":245478,"Delta":12466465},{"NoteNumber":72,"Velocity":58,"Duration":244438,"SoundDuration":244438,"Delta":12711943},{"NoteNumber":69,"Velocity":51,"Duration":500783,"SoundDuration":500783,"Delta":12711943},{"NoteNumber":55,"Velocity":35,"Duration":500783,"SoundDuration":500783,"Delta":12711943},{"NoteNumber":63,"Velocity":39,"Duration":244438,"SoundDuration":244438,"Delta":12711943},{"NoteNumber":74,"Velocity":53,"Duration":256344,"SoundDuration":256344,"Delta":12956382},{"NoteNumber":63,"Velocity":35,"Duration":256344,"SoundDuration":256344,"Delta":12956382},{"NoteNumber":67,"Velocity":47,"Duration":1025377,"SoundDuration":1025377,"Delta":13212727},{"NoteNumber":70,"Velocity":47,"Duration":1025377,"SoundDuration":1025377,"Delta":13212727},{"NoteNumber":55,"Velocity":31,"Duration":1025377,"SoundDuration":1025377,"Delta":13212727},{"NoteNumber":62,"Velocity":36,"Duration":256344,"SoundDuration":256344,"Delta":13212727},{"NoteNumber":62,"Velocity":34,"Duration":512688,"SoundDuration":512688,"Delta":13469071},{"NoteNumber":62,"Velocity":33,"Duration":256344,"SoundDuration":256344,"Delta":13981760},{"NoteNumber":70,"Velocity":51,"Duration":755781,"SoundDuration":755781,"Delta":14238105},{"NoteNumber":77,"Velocity":60,"Duration":755781,"SoundDuration":755781,"Delta":14238105},{"NoteNumber":53,"Velocity":42,"Duration":247565,"SoundDuration":247565,"Delta":14238105},{"NoteNumber":62,"Velocity":60,"Duration":755781,"SoundDuration":755781,"Delta":14238105},{"NoteNumber":53,"Velocity":42,"Duration":1759604,"SoundDuration":1759604,"Delta":14485671},{"NoteNumber":79,"Velocity":58,"Duration":248992,"SoundDuration":248992,"Delta":14993887},{"NoteNumber":69,"Velocity":49,"Duration":1251388,"SoundDuration":1251388,"Delta":14993887},{"NoteNumber":63,"Velocity":47,"Duration":248992,"SoundDuration":248992,"Delta":14993887},{"NoteNumber":75,"Velocity":57,"Duration":247046,"SoundDuration":247046,"Delta":15242879},{"NoteNumber":60,"Velocity":48,"Duration":247046,"SoundDuration":247046,"Delta":15242879},{"NoteNumber":77,"Velocity":60,"Duration":249358,"SoundDuration":249358,"Delta":15489926},{"NoteNumber":62,"Velocity":49,"Duration":249358,"SoundDuration":249358,"Delta":15489926},{"NoteNumber":79,"Velocity":64,"Duration":251704,"SoundDuration":251704,"Delta":15739284},{"NoteNumber":63,"Velocity":50,"Duration":251704,"SoundDuration":251704,"Delta":15739284},{"NoteNumber":81,"Velocity":61,"Duration":254285,"SoundDuration":254285,"Delta":15990989},{"NoteNumber":65,"Velocity":50,"Duration":254285,"SoundDuration":254285,"Delta":15990989},{"NoteNumber":70,"Velocity":58,"Duration":252972,"SoundDuration":252972,"Delta":16245275},{"NoteNumber":77,"Velocity":69,"Duration":252972,"SoundDuration":252972,"Delta":16245275},{"NoteNumber":62,"Velocity":56,"Duration":252972,"SoundDuration":252972,"Delta":16245275},{"NoteNumber":68,"Velocity":48,"Duration":256344,"SoundDuration":256344,"Delta":16498247},{"NoteNumber":74,"Velocity":57,"Duration":256344,"SoundDuration":256344,"Delta":16498247},{"NoteNumber":59,"Velocity":49,"Duration":256344,"SoundDuration":256344,"Delta":16498247},{"NoteNumber":75,"Velocity":61,"Duration":254107,"SoundDuration":254107,"Delta":16754592},{"NoteNumber":69,"Velocity":52,"Duration":254107,"SoundDuration":254107,"Delta":16754592},{"NoteNumber":60,"Velocity":52,"Duration":254107,"SoundDuration":254107,"Delta":16754592},{"NoteNumber":65,"Velocity":46,"Duration":1317397,"SoundDuration":1317397,"Delta":17008700},{"NoteNumber":73,"Velocity":54,"Duration":257488,"SoundDuration":257488,"Delta":17008700},{"NoteNumber":57,"Velocity":48,"Duration":257488,"SoundDuration":257488,"Delta":17008700},{"NoteNumber":74,"Velocity":59,"Duration":257488,"SoundDuration":257488,"Delta":17266188},{"NoteNumber":58,"Velocity":51,"Duration":1059909,"SoundDuration":1059909,"Delta":17266188},{"NoteNumber":72,"Velocity":52,"Duration":263342,"SoundDuration":263342,"Delta":17523677},{"NoteNumber":68,"Velocity":38,"Duration":526685,"SoundDuration":526685,"Delta":17523677},{"NoteNumber":63,"Velocity":39,"Duration":263342,"SoundDuration":263342,"Delta":17523677},{"NoteNumber":71,"Velocity":46,"Duration":263342,"SoundDuration":263342,"Delta":17787020},{"NoteNumber":62,"Velocity":36,"Duration":539078,"SoundDuration":539078,"Delta":17787020},{"NoteNumber":70,"Velocity":43,"Duration":275735,"SoundDuration":275735,"Delta":18050362},{"NoteNumber":75,"Velocity":52,"Duration":760190,"SoundDuration":760190,"Delta":18326098},{"NoteNumber":79,"Velocity":52,"Duration":760190,"SoundDuration":760190,"Delta":18326098},{"NoteNumber":58,"Velocity":38,"Duration":254116,"SoundDuration":254116,"Delta":18326098},{"NoteNumber":51,"Velocity":32,"Duration":1018833,"SoundDuration":1018833,"Delta":18326098},{"NoteNumber":58,"Velocity":35,"Duration":506074,"SoundDuration":506074,"Delta":18580214},{"NoteNumber":74,"Velocity":50,"Duration":258642,"SoundDuration":258642,"Delta":19086288},{"NoteNumber":77,"Velocity":50,"Duration":258642,"SoundDuration":258642,"Delta":19086288},{"NoteNumber":58,"Velocity":33,"Duration":258642,"SoundDuration":258642,"Delta":19086288},{"NoteNumber":80,"Velocity":52,"Duration":510421,"SoundDuration":510421,"Delta":19344931},{"NoteNumber":77,"Velocity":52,"Duration":510421,"SoundDuration":510421,"Delta":19344931},{"NoteNumber":58,"Velocity":37,"Duration":255210,"SoundDuration":255210,"Delta":19344931},{"NoteNumber":51,"Velocity":32,"Duration":1009880,"SoundDuration":1009880,"Delta":19344931},{"NoteNumber":58,"Velocity":35,"Duration":504940,"SoundDuration":504940,"Delta":19600142},{"NoteNumber":77,"Velocity":52,"Duration":249729,"SoundDuration":249729,"Delta":19855352},{"NoteNumber":74,"Velocity":52,"Duration":249729,"SoundDuration":249729,"Delta":19855352},{"NoteNumber":75,"Velocity":50,"Duration":249729,"SoundDuration":249729,"Delta":20105082},{"NoteNumber":79,"Velocity":50,"Duration":249729,"SoundDuration":249729,"Delta":20105082},{"NoteNumber":58,"Velocity":34,"Duration":249729,"SoundDuration":249729,"Delta":20105082},{"NoteNumber":75,"Velocity":52,"Duration":508216,"SoundDuration":508216,"Delta":20354811},{"NoteNumber":72,"Velocity":52,"Duration":508216,"SoundDuration":508216,"Delta":20354811},{"NoteNumber":58,"Velocity":38,"Duration":254107,"SoundDuration":254107,"Delta":20354811},{"NoteNumber":51,"Velocity":32,"Duration":1027786,"SoundDuration":1027786,"Delta":20354811},{"NoteNumber":58,"Velocity":35,"Duration":513893,"SoundDuration":513893,"Delta":20608919},{"NoteNumber":68,"Velocity":49,"Duration":519570,"SoundDuration":519570,"Delta":20863027},{"NoteNumber":72,"Velocity":49,"Duration":519570,"SoundDuration":519570,"Delta":20863027},{"NoteNumber":58,"Velocity":33,"Duration":259785,"SoundDuration":259785,"Delta":21122812},{"NoteNumber":67,"Velocity":47,"Duration":1034546,"SoundDuration":1034546,"Delta":21382597},{"NoteNumber":70,"Velocity":47,"Duration":1034546,"SoundDuration":1034546,"Delta":21382597},{"NoteNumber":58,"Velocity":37,"Duration":259784,"SoundDuration":259784,"Delta":21382597},{"NoteNumber":51,"Velocity":32,"Duration":1034546,"SoundDuration":1034546,"Delta":21382597},{"NoteNumber":58,"Velocity":35,"Duration":517273,"SoundDuration":517273,"Delta":21642382},{"NoteNumber":58,"Velocity":34,"Duration":257488,"SoundDuration":257488,"Delta":22159656},{"NoteNumber":72,"Velocity":51,"Duration":499459,"SoundDuration":499459,"Delta":22417144},{"NoteNumber":68,"Velocity":51,"Duration":993627,"SoundDuration":993627,"Delta":22417144},{"NoteNumber":65,"Velocity":37,"Duration":993627,"SoundDuration":993627,"Delta":22417144},{"NoteNumber":51,"Velocity":32,"Duration":993627,"SoundDuration":993627,"Delta":22417144},{"NoteNumber":58,"Velocity":35,"Duration":494168,"SoundDuration":494168,"Delta":22666874},{"NoteNumber":74,"Velocity":56,"Duration":244438,"SoundDuration":244438,"Delta":22916603},{"NoteNumber":77,"Velocity":55,"Duration":249729,"SoundDuration":249729,"Delta":23161042},{"NoteNumber":58,"Velocity":34,"Duration":249729,"SoundDuration":249729,"Delta":23161042},{"NoteNumber":68,"Velocity":55,"Duration":1016432,"SoundDuration":1016432,"Delta":23410772},{"NoteNumber":74,"Velocity":55,"Duration":508216,"SoundDuration":508216,"Delta":23410772},{"NoteNumber":65,"Velocity":37,"Duration":1016432,"SoundDuration":1016432,"Delta":23410772},{"NoteNumber":51,"Velocity":32,"Duration":1016432,"SoundDuration":1016432,"Delta":23410772},{"NoteNumber":58,"Velocity":35,"Duration":508216,"SoundDuration":508216,"Delta":23664880},{"NoteNumber":70,"Velocity":51,"Duration":508216,"SoundDuration":508216,"Delta":23918988},{"NoteNumber":58,"Velocity":34,"Duration":254108,"SoundDuration":254108,"Delta":24173096},{"NoteNumber":72,"Velocity":51,"Duration":248632,"SoundDuration":248632,"Delta":24427204},{"NoteNumber":67,"Velocity":51,"Duration":1001488,"SoundDuration":1001488,"Delta":24427204},{"NoteNumber":58,"Velocity":37,"Duration":248632,"SoundDuration":248632,"Delta":24427204},{"NoteNumber":51,"Velocity":32,"Duration":1001488,"SoundDuration":1001488,"Delta":24427204},{"NoteNumber":74,"Velocity":49,"Duration":248632,"SoundDuration":248632,"Delta":24675836},{"NoteNumber":58,"Velocity":35,"Duration":493071,"SoundDuration":493071,"Delta":24675836},{"NoteNumber":79,"Velocity":52,"Duration":244438,"SoundDuration":244438,"Delta":24924469},{"NoteNumber":72,"Velocity":50,"Duration":259785,"SoundDuration":259785,"Delta":25168908},{"NoteNumber":58,"Velocity":34,"Duration":259785,"SoundDuration":259785,"Delta":25168908},{"NoteNumber":70,"Velocity":47,"Duration":1039139,"SoundDuration":1039139,"Delta":25428693},{"NoteNumber":67,"Velocity":47,"Duration":1039139,"SoundDuration":1039139,"Delta":25428693},{"NoteNumber":51,"Velocity":32,"Duration":1039139,"SoundDuration":1039139,"Delta":25428693},{"NoteNumber":58,"Velocity":37,"Duration":259785,"SoundDuration":259785,"Delta":25428693},{"NoteNumber":58,"Velocity":35,"Duration":519569,"SoundDuration":519569,"Delta":25688478},{"NoteNumber":58,"Velocity":34,"Duration":259785,"SoundDuration":259785,"Delta":26208048},{"NoteNumber":74,"Velocity":64,"Duration":753828,"SoundDuration":753828,"Delta":26467833},{"NoteNumber":70,"Velocity":64,"Duration":753828,"SoundDuration":753828,"Delta":26467833},{"NoteNumber":62,"Velocity":42,"Duration":255210,"SoundDuration":255210,"Delta":26467833},{"NoteNumber":55,"Velocity":35,"Duration":1004622,"SoundDuration":1004622,"Delta":26467833},{"NoteNumber":62,"Velocity":38,"Duration":498618,"SoundDuration":498618,"Delta":26723043},{"NoteNumber":70,"Velocity":55,"Duration":250793,"SoundDuration":250793,"Delta":27221661},{"NoteNumber":67,"Velocity":55,"Duration":250793,"SoundDuration":250793,"Delta":27221661},{"NoteNumber":62,"Velocity":36,"Duration":250793,"SoundDuration":250793,"Delta":27221661},{"NoteNumber":72,"Velocity":51,"Duration":501588,"SoundDuration":501588,"Delta":27472455},{"NoteNumber":69,"Velocity":60,"Duration":988403,"SoundDuration":988403,"Delta":27472455},{"NoteNumber":63,"Velocity":40,"Duration":250793,"SoundDuration":250793,"Delta":27472455},{"NoteNumber":55,"Velocity":35,"Duration":988403,"SoundDuration":988403,"Delta":27472455},{"NoteNumber":63,"Velocity":38,"Duration":494201,"SoundDuration":494201,"Delta":27723249},{"NoteNumber":78,"Velocity":65,"Duration":243407,"SoundDuration":243407,"Delta":27974043},{"NoteNumber":81,"Velocity":60,"Duration":243407,"SoundDuration":243407,"Delta":28217451},{"NoteNumber":63,"Velocity":37,"Duration":243407,"SoundDuration":243407,"Delta":28217451},{"NoteNumber":79,"Velocity":64,"Duration":245478,"SoundDuration":245478,"Delta":28460858},{"NoteNumber":70,"Velocity":57,"Duration":490957,"SoundDuration":490957,"Delta":28460858},{"NoteNumber":62,"Velocity":43,"Duration":245478,"SoundDuration":245478,"Delta":28460858},{"NoteNumber":55,"Velocity":38,"Duration":490957,"SoundDuration":490957,"Delta":28460858},{"NoteNumber":74,"Velocity":56,"Duration":245478,"SoundDuration":245478,"Delta":28706337},{"NoteNumber":62,"Velocity":37,"Duration":245478,"SoundDuration":245478,"Delta":28706337},{"NoteNumber":69,"Velocity":51,"Duration":500783,"SoundDuration":500783,"Delta":28951816},{"NoteNumber":72,"Velocity":58,"Duration":244438,"SoundDuration":244438,"Delta":28951816},{"NoteNumber":55,"Velocity":35,"Duration":500783,"SoundDuration":500783,"Delta":28951816},{"NoteNumber":63,"Velocity":39,"Duration":244438,"SoundDuration":244438,"Delta":28951816},{"NoteNumber":74,"Velocity":53,"Duration":256344,"SoundDuration":256344,"Delta":29196255},{"NoteNumber":63,"Velocity":35,"Duration":256344,"SoundDuration":256344,"Delta":29196255},{"NoteNumber":67,"Velocity":47,"Duration":1025377,"SoundDuration":1025377,"Delta":29452600},{"NoteNumber":70,"Velocity":47,"Duration":1025377,"SoundDuration":1025377,"Delta":29452600},{"NoteNumber":55,"Velocity":31,"Duration":1025377,"SoundDuration":1025377,"Delta":29452600},{"NoteNumber":62,"Velocity":36,"Duration":256344,"SoundDuration":256344,"Delta":29452600},{"NoteNumber":62,"Velocity":34,"Duration":512688,"SoundDuration":512688,"Delta":29708944},{"NoteNumber":62,"Velocity":33,"Duration":256344,"SoundDuration":256344,"Delta":30221633},{"NoteNumber":65,"Velocity":52,"Duration":502740,"SoundDuration":502740,"Delta":30477978},{"NoteNumber":70,"Velocity":58,"Duration":502740,"SoundDuration":502740,"Delta":30477978},{"NoteNumber":53,"Velocity":34,"Duration":502740,"SoundDuration":502740,"Delta":30477978},{"NoteNumber":62,"Velocity":39,"Duration":254107,"SoundDuration":254107,"Delta":30477978},{"NoteNumber":62,"Velocity":37,"Duration":248632,"SoundDuration":248632,"Delta":30732086},{"NoteNumber":72,"Velocity":57,"Duration":245478,"SoundDuration":245478,"Delta":30980718},{"NoteNumber":66,"Velocity":51,"Duration":245478,"SoundDuration":245478,"Delta":30980718},{"NoteNumber":63,"Velocity":49,"Duration":245478,"SoundDuration":245478,"Delta":30980718},{"NoteNumber":70,"Velocity":55,"Duration":245478,"SoundDuration":245478,"Delta":31226197},{"NoteNumber":75,"Velocity":55,"Duration":245478,"SoundDuration":245478,"Delta":31226197},{"NoteNumber":66,"Velocity":43,"Duration":245478,"SoundDuration":245478,"Delta":31226197},{"NoteNumber":72,"Velocity":60,"Duration":242404,"SoundDuration":242404,"Delta":31471676},{"NoteNumber":66,"Velocity":54,"Duration":242404,"SoundDuration":242404,"Delta":31471676},{"NoteNumber":63,"Velocity":49,"Duration":242404,"SoundDuration":242404,"Delta":31471676},{"NoteNumber":70,"Velocity":47,"Duration":245478,"SoundDuration":245478,"Delta":31714081},{"NoteNumber":75,"Velocity":53,"Duration":245478,"SoundDuration":245478,"Delta":31714081},{"NoteNumber":66,"Velocity":44,"Duration":245478,"SoundDuration":245478,"Delta":31714081},{"NoteNumber":78,"Velocity":60,"Duration":244439,"SoundDuration":244439,"Delta":31959560},{"NoteNumber":72,"Velocity":54,"Duration":244439,"SoundDuration":244439,"Delta":31959560},{"NoteNumber":70,"Velocity":51,"Duration":244439,"SoundDuration":244439,"Delta":31959560},{"NoteNumber":75,"Velocity":54,"Duration":254108,"SoundDuration":254108,"Delta":32203999},{"NoteNumber":70,"Velocity":48,"Duration":254108,"SoundDuration":254108,"Delta":32203999},{"NoteNumber":66,"Velocity":47,"Duration":254108,"SoundDuration":254108,"Delta":32203999},{"NoteNumber":69,"Velocity":54,"Duration":1030036,"SoundDuration":1030036,"Delta":32458107},{"NoteNumber":74,"Velocity":54,"Duration":512750,"SoundDuration":512750,"Delta":32458107},{"NoteNumber":53,"Velocity":43,"Duration":1030036,"SoundDuration":1030036,"Delta":32458107},{"NoteNumber":65,"Velocity":43,"Duration":254107,"SoundDuration":254107,"Delta":32458107},{"NoteNumber":65,"Velocity":39,"Duration":258642,"SoundDuration":258642,"Delta":32712215},{"NoteNumber":72,"Velocity":53,"Duration":258642,"SoundDuration":258642,"Delta":32970858},{"NoteNumber":63,"Velocity":42,"Duration":258642,"SoundDuration":258642,"Delta":32970858},{"NoteNumber":74,"Velocity":49,"Duration":258642,"SoundDuration":258642,"Delta":33229501},{"NoteNumber":63,"Velocity":37,"Duration":258642,"SoundDuration":258642,"Delta":33229501},{"NoteNumber":70,"Velocity":47,"Duration":1048990,"SoundDuration":1048990,"Delta":33488144},{"NoteNumber":65,"Velocity":47,"Duration":1048990,"SoundDuration":1048990,"Delta":33488144},{"NoteNumber":62,"Velocity":42,"Duration":252972,"SoundDuration":252972,"Delta":33488144},{"NoteNumber":58,"Velocity":42,"Duration":252972,"SoundDuration":252972,"Delta":33488144},{"NoteNumber":59,"Velocity":36,"Duration":198395,"SoundDuration":198395,"Delta":33741116},{"NoteNumber":62,"Velocity":32,"Duration":88277,"SoundDuration":88277,"Delta":33939511},{"NoteNumber":60,"Velocity":38,"Duration":265745,"SoundDuration":265745,"Delta":34005643},{"NoteNumber":58,"Velocity":35,"Duration":265745,"SoundDuration":265745,"Delta":34271389},{"NoteNumber":77,"Velocity":52,"Duration":753794,"SoundDuration":753794,"Delta":34537134},{"NoteNumber":74,"Velocity":52,"Duration":753794,"SoundDuration":753794,"Delta":34537134},{"NoteNumber":34,"Velocity":38,"Duration":257466,"SoundDuration":257466,"Delta":34537134},{"NoteNumber":58,"Velocity":35,"Duration":496327,"SoundDuration":496327,"Delta":34794601},{"NoteNumber":72,"Velocity":50,"Duration":250793,"SoundDuration":250793,"Delta":35290929},{"NoteNumber":68,"Velocity":50,"Duration":250793,"SoundDuration":250793,"Delta":35290929},{"NoteNumber":58,"Velocity":33,"Duration":250793,"SoundDuration":250793,"Delta":35290929},{"NoteNumber":75,"Velocity":52,"Duration":508215,"SoundDuration":508215,"Delta":35541723},{"NoteNumber":72,"Velocity":52,"Duration":508215,"SoundDuration":508215,"Delta":35541723},{"NoteNumber":58,"Velocity":37,"Duration":254108,"SoundDuration":254108,"Delta":35541723},{"NoteNumber":58,"Velocity":35,"Duration":503837,"SoundDuration":503837,"Delta":35795831},{"NoteNumber":70,"Velocity":52,"Duration":249729,"SoundDuration":249729,"Delta":36049939},{"NoteNumber":74,"Velocity":52,"Duration":249729,"SoundDuration":249729,"Delta":36049939},{"NoteNumber":70,"Velocity":50,"Duration":249729,"SoundDuration":249729,"Delta":36299668},{"NoteNumber":67,"Velocity":50,"Duration":249729,"SoundDuration":249729,"Delta":36299668},{"NoteNumber":58,"Velocity":34,"Duration":249729,"SoundDuration":249729,"Delta":36299668},{"NoteNumber":70,"Velocity":52,"Duration":508215,"SoundDuration":508215,"Delta":36549398},{"NoteNumber":74,"Velocity":52,"Duration":508215,"SoundDuration":508215,"Delta":36549398},{"NoteNumber":58,"Velocity":38,"Duration":254108,"SoundDuration":254108,"Delta":36549398},{"NoteNumber":58,"Velocity":35,"Duration":513892,"SoundDuration":513892,"Delta":36803506},{"NoteNumber":72,"Velocity":49,"Duration":519570,"SoundDuration":519570,"Delta":37057614},{"NoteNumber":68,"Velocity":49,"Duration":519570,"SoundDuration":519570,"Delta":37057614},{"NoteNumber":58,"Velocity":33,"Duration":259785,"SoundDuration":259785,"Delta":37317399},{"NoteNumber":65,"Velocity":47,"Duration":1034547,"SoundDuration":1034547,"Delta":37577184},{"NoteNumber":68,"Velocity":47,"Duration":1034547,"SoundDuration":1034547,"Delta":37577184},{"NoteNumber":58,"Velocity":37,"Duration":259785,"SoundDuration":259785,"Delta":37577184},{"NoteNumber":58,"Velocity":35,"Duration":517273,"SoundDuration":517273,"Delta":37836969},{"NoteNumber":58,"Velocity":34,"Duration":257488,"SoundDuration":257488,"Delta":38354242},{"NoteNumber":80,"Velocity":72,"Duration":751759,"SoundDuration":751759,"Delta":38611731},{"NoteNumber":77,"Velocity":72,"Duration":751759,"SoundDuration":751759,"Delta":38611731},{"NoteNumber":34,"Velocity":54,"Duration":257466,"SoundDuration":257466,"Delta":38611731},{"NoteNumber":58,"Velocity":47,"Duration":494293,"SoundDuration":494293,"Delta":38869197},{"NoteNumber":79,"Velocity":57,"Duration":246527,"SoundDuration":246527,"Delta":39363491},{"NoteNumber":76,"Velocity":57,"Duration":246527,"SoundDuration":246527,"Delta":39363491},{"NoteNumber":58,"Velocity":38,"Duration":246527,"SoundDuration":246527,"Delta":39363491},{"NoteNumber":76,"Velocity":63,"Duration":245479,"SoundDuration":245479,"Delta":39610019},{"NoteNumber":73,"Velocity":63,"Duration":245479,"SoundDuration":245479,"Delta":39610019},{"NoteNumber":58,"Velocity":39,"Duration":245479,"SoundDuration":245479,"Delta":39610019},{"NoteNumber":79,"Velocity":56,"Duration":245478,"SoundDuration":245478,"Delta":39855498},{"NoteNumber":76,"Velocity":56,"Duration":245478,"SoundDuration":245478,"Delta":39855498},{"NoteNumber":58,"Velocity":38,"Duration":495208,"SoundDuration":495208,"Delta":39855498},{"NoteNumber":74,"Velocity":61,"Duration":249729,"SoundDuration":249729,"Delta":40100977},{"NoteNumber":77,"Velocity":61,"Duration":249729,"SoundDuration":249729,"Delta":40100977},{"NoteNumber":71,"Velocity":56,"Duration":249729,"SoundDuration":249729,"Delta":40350706},{"NoteNumber":74,"Velocity":56,"Duration":249729,"SoundDuration":249729,"Delta":40350706},{"NoteNumber":58,"Velocity":36,"Duration":249729,"SoundDuration":249729,"Delta":40350706},{"NoteNumber":77,"Velocity":60,"Duration":251888,"SoundDuration":251888,"Delta":40600436},{"NoteNumber":74,"Velocity":60,"Duration":251888,"SoundDuration":251888,"Delta":40600436},{"NoteNumber":58,"Velocity":40,"Duration":251888,"SoundDuration":251888,"Delta":40600436},{"NoteNumber":75,"Velocity":53,"Duration":254108,"SoundDuration":254108,"Delta":40852325},{"NoteNumber":72,"Velocity":53,"Duration":254108,"SoundDuration":254108,"Delta":40852325},{"NoteNumber":58,"Velocity":38,"Duration":513893,"SoundDuration":513893,"Delta":40852325},{"NoteNumber":68,"Velocity":53,"Duration":259785,"SoundDuration":259785,"Delta":41106433},{"NoteNumber":72,"Velocity":53,"Duration":259785,"SoundDuration":259785,"Delta":41106433},{"NoteNumber":68,"Velocity":50,"Duration":259785,"SoundDuration":259785,"Delta":41366218},{"NoteNumber":65,"Velocity":50,"Duration":259785,"SoundDuration":259785,"Delta":41366218},{"NoteNumber":58,"Velocity":35,"Duration":259785,"SoundDuration":259785,"Delta":41366218},{"NoteNumber":62,"Velocity":48,"Duration":1041811,"SoundDuration":1041811,"Delta":41626003},{"NoteNumber":65,"Velocity":48,"Duration":1041811,"SoundDuration":1041811,"Delta":41626003},{"NoteNumber":57,"Velocity":45,"Duration":252972,"SoundDuration":252972,"Delta":41626003},{"NoteNumber":58,"Velocity":39,"Duration":198395,"SoundDuration":198395,"Delta":41878975},{"NoteNumber":61,"Velocity":34,"Duration":87780,"SoundDuration":87780,"Delta":42077370},{"NoteNumber":59,"Velocity":40,"Duration":281828,"SoundDuration":281828,"Delta":42143502},{"NoteNumber":58,"Velocity":38,"Duration":264527,"SoundDuration":264527,"Delta":42403287},{"NoteNumber":69,"Velocity":51,"Duration":249729,"SoundDuration":249729,"Delta":42667814},{"NoteNumber":78,"Velocity":57,"Duration":741222,"SoundDuration":741222,"Delta":42667814},{"NoteNumber":63,"Velocity":44,"Duration":493656,"SoundDuration":493656,"Delta":42667814},{"NoteNumber":70,"Velocity":47,"Duration":243927,"SoundDuration":243927,"Delta":42917544},{"NoteNumber":71,"Velocity":52,"Duration":247565,"SoundDuration":247565,"Delta":43161471},{"NoteNumber":56,"Velocity":30,"Duration":487949,"SoundDuration":487949,"Delta":43161471},{"NoteNumber":72,"Velocity":40,"Duration":1250239,"SoundDuration":1250239,"Delta":43409037},{"NoteNumber":80,"Velocity":52,"Duration":240384,"SoundDuration":240384,"Delta":43409037},{"NoteNumber":78,"Velocity":60,"Duration":82521,"SoundDuration":82521,"Delta":43649421},{"NoteNumber":57,"Velocity":44,"Duration":1009854,"SoundDuration":1009854,"Delta":43649421},{"NoteNumber":80,"Velocity":49,"Duration":82521,"SoundDuration":82521,"Delta":43731943},{"NoteNumber":78,"Velocity":49,"Duration":82521,"SoundDuration":82521,"Delta":43814465},{"NoteNumber":77,"Velocity":55,"Duration":252972,"SoundDuration":252972,"Delta":43896986},{"NoteNumber":63,"Velocity":47,"Duration":505944,"SoundDuration":505944,"Delta":43896986},{"NoteNumber":76,"Velocity":56,"Duration":252972,"SoundDuration":252972,"Delta":44149959},{"NoteNumber":77,"Velocity":49,"Duration":256344,"SoundDuration":256344,"Delta":44402931},{"NoteNumber":60,"Velocity":36,"Duration":256344,"SoundDuration":256344,"Delta":44402931},{"NoteNumber":73,"Velocity":57,"Duration":742781,"SoundDuration":742781,"Delta":44659276},{"NoteNumber":64,"Velocity":51,"Duration":249729,"SoundDuration":249729,"Delta":44659276},{"NoteNumber":58,"Velocity":44,"Duration":495215,"SoundDuration":495215,"Delta":44659276},{"NoteNumber":65,"Velocity":47,"Duration":183595,"SoundDuration":183595,"Delta":44909005},{"NoteNumber":68,"Velocity":46,"Duration":61891,"SoundDuration":61891,"Delta":45092601},{"NoteNumber":66,"Velocity":52,"Duration":247565,"SoundDuration":247565,"Delta":45154492},{"NoteNumber":56,"Velocity":30,"Duration":487949,"SoundDuration":487949,"Delta":45154492},{"NoteNumber":73,"Velocity":52,"Duration":240384,"SoundDuration":240384,"Delta":45402057},{"NoteNumber":65,"Velocity":40,"Duration":240384,"SoundDuration":240384,"Delta":45402057},{"NoteNumber":64,"Velocity":39,"Duration":1009854,"SoundDuration":1009854,"Delta":45642442},{"NoteNumber":70,"Velocity":40,"Duration":1009854,"SoundDuration":1009854,"Delta":45642442},{"NoteNumber":73,"Velocity":60,"Duration":247565,"SoundDuration":247565,"Delta":45642442},{"NoteNumber":55,"Velocity":40,"Duration":1009854,"SoundDuration":1009854,"Delta":45642442},{"NoteNumber":72,"Velocity":55,"Duration":252972,"SoundDuration":252972,"Delta":45890007},{"NoteNumber":71,"Velocity":56,"Duration":252972,"SoundDuration":252972,"Delta":46142980},{"NoteNumber":72,"Velocity":49,"Duration":256344,"SoundDuration":256344,"Delta":46395952},{"NoteNumber":48,"Velocity":36,"Duration":256344,"SoundDuration":256344,"Delta":46395952},{"NoteNumber":68,"Velocity":51,"Duration":499459,"SoundDuration":499459,"Delta":46652297},{"NoteNumber":72,"Velocity":51,"Duration":499459,"SoundDuration":499459,"Delta":46652297},{"NoteNumber":48,"Velocity":34,"Duration":249729,"SoundDuration":249729,"Delta":46652297},{"NoteNumber":41,"Velocity":37,"Duration":993627,"SoundDuration":993627,"Delta":46652297},{"NoteNumber":48,"Velocity":35,"Duration":494168,"SoundDuration":494168,"Delta":46902026},{"NoteNumber":73,"Velocity":56,"Duration":244438,"SoundDuration":244438,"Delta":47151756},{"NoteNumber":70,"Velocity":56,"Duration":244438,"SoundDuration":244438,"Delta":47151756},{"NoteNumber":73,"Velocity":52,"Duration":249729,"SoundDuration":249729,"Delta":47396195},{"NoteNumber":77,"Velocity":52,"Duration":249729,"SoundDuration":249729,"Delta":47396195},{"NoteNumber":48,"Velocity":34,"Duration":249729,"SoundDuration":249729,"Delta":47396195},{"NoteNumber":73,"Velocity":55,"Duration":508215,"SoundDuration":508215,"Delta":47645924},{"NoteNumber":70,"Velocity":55,"Duration":508215,"SoundDuration":508215,"Delta":47645924},{"NoteNumber":48,"Velocity":34,"Duration":254108,"SoundDuration":254108,"Delta":47645924},{"NoteNumber":41,"Velocity":37,"Duration":1016432,"SoundDuration":1016432,"Delta":47645924},{"NoteNumber":48,"Velocity":35,"Duration":508215,"SoundDuration":508215,"Delta":47900032},{"NoteNumber":67,"Velocity":51,"Duration":508216,"SoundDuration":508216,"Delta":48154140},{"NoteNumber":70,"Velocity":51,"Duration":508216,"SoundDuration":508216,"Delta":48154140},{"NoteNumber":48,"Velocity":34,"Duration":254108,"SoundDuration":254108,"Delta":48408248},{"NoteNumber":67,"Velocity":51,"Duration":248632,"SoundDuration":248632,"Delta":48662356},{"NoteNumber":64,"Velocity":51,"Duration":248632,"SoundDuration":248632,"Delta":48662356},{"NoteNumber":48,"Velocity":34,"Duration":248632,"SoundDuration":248632,"Delta":48662356},{"NoteNumber":41,"Velocity":37,"Duration":1001488,"SoundDuration":1001488,"Delta":48662356},{"NoteNumber":68,"Velocity":52,"Duration":248632,"SoundDuration":248632,"Delta":48910989},{"NoteNumber":65,"Velocity":52,"Duration":248632,"SoundDuration":248632,"Delta":48910989},{"NoteNumber":48,"Velocity":35,"Duration":493071,"SoundDuration":493071,"Delta":48910989},{"NoteNumber":67,"Velocity":57,"Duration":244438,"SoundDuration":244438,"Delta":49159621},{"NoteNumber":70,"Velocity":57,"Duration":244438,"SoundDuration":244438,"Delta":49159621},{"NoteNumber":70,"Velocity":52,"Duration":259785,"SoundDuration":259785,"Delta":49404060},{"NoteNumber":73,"Velocity":52,"Duration":259785,"SoundDuration":259785,"Delta":49404060},{"NoteNumber":48,"Velocity":34,"Duration":259785,"SoundDuration":259785,"Delta":49404060},{"NoteNumber":72,"Velocity":47,"Duration":1039139,"SoundDuration":1039139,"Delta":49663845},{"NoteNumber":68,"Velocity":47,"Duration":1039139,"SoundDuration":1039139,"Delta":49663845},{"NoteNumber":41,"Velocity":50,"Duration":259785,"SoundDuration":259785,"Delta":49663845},{"NoteNumber":48,"Velocity":50,"Duration":1039139,"SoundDuration":1039139,"Delta":49663845},{"NoteNumber":41,"Velocity":53,"Duration":519570,"SoundDuration":519570,"Delta":49923630},{"NoteNumber":40,"Velocity":54,"Duration":259784,"SoundDuration":259784,"Delta":50443200},{"NoteNumber":68,"Velocity":69,"Duration":493056,"SoundDuration":493056,"Delta":50702985},{"NoteNumber":72,"Velocity":69,"Duration":493056,"SoundDuration":493056,"Delta":50702985},{"NoteNumber":39,"Velocity":56,"Duration":246527,"SoundDuration":246527,"Delta":50702985},{"NoteNumber":63,"Velocity":44,"Duration":490967,"SoundDuration":490967,"Delta":50949513},{"NoteNumber":75,"Velocity":65,"Duration":244438,"SoundDuration":244438,"Delta":51196041},{"NoteNumber":72,"Velocity":65,"Duration":244438,"SoundDuration":244438,"Delta":51196041},{"NoteNumber":77,"Velocity":59,"Duration":249729,"SoundDuration":249729,"Delta":51440480},{"NoteNumber":80,"Velocity":59,"Duration":249729,"SoundDuration":249729,"Delta":51440480},{"NoteNumber":63,"Velocity":42,"Duration":249729,"SoundDuration":249729,"Delta":51440480},{"NoteNumber":73,"Velocity":63,"Duration":508215,"SoundDuration":508215,"Delta":51690210},{"NoteNumber":77,"Velocity":63,"Duration":508215,"SoundDuration":508215,"Delta":51690210},{"NoteNumber":63,"Velocity":42,"Duration":254108,"SoundDuration":254108,"Delta":51690210},{"NoteNumber":63,"Velocity":44,"Duration":508215,"SoundDuration":508215,"Delta":51944318},{"NoteNumber":73,"Velocity":60,"Duration":508216,"SoundDuration":508216,"Delta":52198426},{"NoteNumber":70,"Velocity":60,"Duration":508216,"SoundDuration":508216,"Delta":52198426},{"NoteNumber":63,"Velocity":42,"Duration":254108,"SoundDuration":254108,"Delta":52452534},{"NoteNumber":67,"Velocity":65,"Duration":248632,"SoundDuration":248632,"Delta":52706642},{"NoteNumber":70,"Velocity":65,"Duration":248632,"SoundDuration":248632,"Delta":52706642},{"NoteNumber":63,"Velocity":42,"Duration":248632,"SoundDuration":248632,"Delta":52706642},{"NoteNumber":72,"Velocity":60,"Duration":248632,"SoundDuration":248632,"Delta":52955274},{"NoteNumber":68,"Velocity":60,"Duration":248632,"SoundDuration":248632,"Delta":52955274},{"NoteNumber":63,"Velocity":44,"Duration":493071,"SoundDuration":493071,"Delta":52955274},{"NoteNumber":70,"Velocity":70,"Duration":244438,"SoundDuration":244438,"Delta":53203907},{"NoteNumber":73,"Velocity":70,"Duration":244438,"SoundDuration":244438,"Delta":53203907},{"NoteNumber":73,"Velocity":59,"Duration":259785,"SoundDuration":259785,"Delta":53448346},{"NoteNumber":76,"Velocity":59,"Duration":259785,"SoundDuration":259785,"Delta":53448346},{"NoteNumber":63,"Velocity":42,"Duration":259785,"SoundDuration":259785,"Delta":53448346},{"NoteNumber":75,"Velocity":53,"Duration":1052736,"SoundDuration":1052736,"Delta":53708131},{"NoteNumber":72,"Velocity":53,"Duration":1052736,"SoundDuration":1052736,"Delta":53708131},{"NoteNumber":56,"Velocity":49,"Duration":259785,"SoundDuration":259785,"Delta":53708131},{"NoteNumber":63,"Velocity":46,"Duration":264316,"SoundDuration":264316,"Delta":53967916},{"NoteNumber":68,"Velocity":53,"Duration":264316,"SoundDuration":264316,"Delta":54232233},{"NoteNumber":67,"Velocity":48,"Duration":264317,"SoundDuration":264317,"Delta":54496550},{"NoteNumber":68,"Velocity":39,"Duration":249687,"SoundDuration":249687,"Delta":54760867},{"NoteNumber":72,"Velocity":39,"Duration":249687,"SoundDuration":249687,"Delta":54760867},{"NoteNumber":75,"Velocity":47,"Duration":249687,"SoundDuration":249687,"Delta":54760867},{"NoteNumber":67,"Velocity":54,"Duration":741858,"SoundDuration":741858,"Delta":54760867},{"NoteNumber":72,"Velocity":35,"Duration":492170,"SoundDuration":492170,"Delta":55010555},{"NoteNumber":68,"Velocity":35,"Duration":492170,"SoundDuration":492170,"Delta":55010555},{"NoteNumber":75,"Velocity":42,"Duration":492170,"SoundDuration":492170,"Delta":55010555},{"NoteNumber":68,"Velocity":31,"Duration":252887,"SoundDuration":252887,"Delta":55502726},{"NoteNumber":75,"Velocity":37,"Duration":252887,"SoundDuration":252887,"Delta":55502726},{"NoteNumber":72,"Velocity":31,"Duration":252887,"SoundDuration":252887,"Delta":55502726},{"NoteNumber":65,"Velocity":50,"Duration":252887,"SoundDuration":252887,"Delta":55502726},{"NoteNumber":68,"Velocity":39,"Duration":248632,"SoundDuration":248632,"Delta":55755613},{"NoteNumber":75,"Velocity":47,"Duration":248632,"SoundDuration":248632,"Delta":55755613},{"NoteNumber":72,"Velocity":39,"Duration":248632,"SoundDuration":248632,"Delta":55755613},{"NoteNumber":60,"Velocity":53,"Duration":497264,"SoundDuration":497264,"Delta":55755613},{"NoteNumber":75,"Velocity":42,"Duration":493890,"SoundDuration":493890,"Delta":56004245},{"NoteNumber":72,"Velocity":35,"Duration":493890,"SoundDuration":493890,"Delta":56004245},{"NoteNumber":68,"Velocity":35,"Duration":493890,"SoundDuration":493890,"Delta":56004245},{"NoteNumber":59,"Velocity":48,"Duration":245258,"SoundDuration":245258,"Delta":56252878},{"NoteNumber":72,"Velocity":31,"Duration":245258,"SoundDuration":245258,"Delta":56498136},{"NoteNumber":68,"Velocity":31,"Duration":245258,"SoundDuration":245258,"Delta":56498136},{"NoteNumber":75,"Velocity":37,"Duration":245258,"SoundDuration":245258,"Delta":56498136},{"NoteNumber":60,"Velocity":42,"Duration":245258,"SoundDuration":245258,"Delta":56498136},{"NoteNumber":65,"Velocity":53,"Duration":492119,"SoundDuration":492119,"Delta":56743395},{"NoteNumber":68,"Velocity":35,"Duration":248632,"SoundDuration":248632,"Delta":56986881},{"NoteNumber":75,"Velocity":43,"Duration":248632,"SoundDuration":248632,"Delta":56986881},{"NoteNumber":72,"Velocity":35,"Duration":248632,"SoundDuration":248632,"Delta":56986881},{"NoteNumber":67,"Velocity":51,"Duration":493214,"SoundDuration":493214,"Delta":57235514},{"NoteNumber":68,"Velocity":36,"Duration":250731,"SoundDuration":250731,"Delta":57477997},{"NoteNumber":72,"Velocity":36,"Duration":250731,"SoundDuration":250731,"Delta":57477997},{"NoteNumber":75,"Velocity":44,"Duration":250731,"SoundDuration":250731,"Delta":57477997},{"NoteNumber":67,"Velocity":53,"Duration":501463,"SoundDuration":501463,"Delta":57728728},{"NoteNumber":72,"Velocity":36,"Duration":250731,"SoundDuration":250731,"Delta":57979460},{"NoteNumber":75,"Velocity":44,"Duration":250731,"SoundDuration":250731,"Delta":57979460},{"NoteNumber":68,"Velocity":36,"Duration":250731,"SoundDuration":250731,"Delta":57979460},{"NoteNumber":65,"Velocity":52,"Duration":501463,"SoundDuration":501463,"Delta":58230191},{"NoteNumber":68,"Velocity":34,"Duration":250731,"SoundDuration":250731,"Delta":58480923},{"NoteNumber":72,"Velocity":34,"Duration":250731,"SoundDuration":250731,"Delta":58480923},{"NoteNumber":75,"Velocity":40,"Duration":250731,"SoundDuration":250731,"Delta":58480923},{"NoteNumber":72,"Velocity":35,"Duration":249687,"SoundDuration":249687,"Delta":58731654},{"NoteNumber":68,"Velocity":35,"Duration":249687,"SoundDuration":249687,"Delta":58731654},{"NoteNumber":75,"Velocity":42,"Duration":249687,"SoundDuration":249687,"Delta":58731654},{"NoteNumber":67,"Velocity":54,"Duration":741858,"SoundDuration":741858,"Delta":58731654},{"NoteNumber":68,"Velocity":35,"Duration":492170,"SoundDuration":492170,"Delta":58981342},{"NoteNumber":75,"Velocity":42,"Duration":492170,"SoundDuration":492170,"Delta":58981342},{"NoteNumber":72,"Velocity":35,"Duration":492170,"SoundDuration":492170,"Delta":58981342},{"NoteNumber":68,"Velocity":31,"Duration":245901,"SoundDuration":245901,"Delta":59473513},{"NoteNumber":72,"Velocity":31,"Duration":245901,"SoundDuration":245901,"Delta":59473513},{"NoteNumber":75,"Velocity":37,"Duration":245901,"SoundDuration":245901,"Delta":59473513},{"NoteNumber":65,"Velocity":50,"Duration":245901,"SoundDuration":245901,"Delta":59473513},{"NoteNumber":72,"Velocity":39,"Duration":242915,"SoundDuration":242915,"Delta":59719415},{"NoteNumber":75,"Velocity":47,"Duration":242915,"SoundDuration":242915,"Delta":59719415},{"NoteNumber":68,"Velocity":39,"Duration":242915,"SoundDuration":242915,"Delta":59719415},{"NoteNumber":60,"Velocity":53,"Duration":485830,"SoundDuration":485830,"Delta":59719415},{"NoteNumber":68,"Velocity":35,"Duration":481009,"SoundDuration":481009,"Delta":59962330},{"NoteNumber":72,"Velocity":35,"Duration":481009,"SoundDuration":481009,"Delta":59962330},{"NoteNumber":75,"Velocity":42,"Duration":481009,"SoundDuration":481009,"Delta":59962330},{"NoteNumber":59,"Velocity":48,"Duration":238095,"SoundDuration":238095,"Delta":60205245},{"NoteNumber":72,"Velocity":31,"Duration":238095,"SoundDuration":238095,"Delta":60443340},{"NoteNumber":68,"Velocity":31,"Duration":238095,"SoundDuration":238095,"Delta":60443340},{"NoteNumber":75,"Velocity":37,"Duration":238095,"SoundDuration":238095,"Delta":60443340},{"NoteNumber":60,"Velocity":42,"Duration":238095,"SoundDuration":238095,"Delta":60443340},{"NoteNumber":65,"Velocity":53,"Duration":240963,"SoundDuration":240963,"Delta":60681435},{"NoteNumber":68,"Velocity":35,"Duration":238955,"SoundDuration":238955,"Delta":60922399},{"NoteNumber":75,"Velocity":43,"Duration":240964,"SoundDuration":240964,"Delta":60922399},{"NoteNumber":72,"Velocity":35,"Duration":240964,"SoundDuration":240964,"Delta":60922399},{"NoteNumber":67,"Velocity":49,"Duration":240964,"SoundDuration":240964,"Delta":60922399},{"NoteNumber":68,"Velocity":51,"Duration":242483,"SoundDuration":242483,"Delta":61163363},{"NoteNumber":68,"Velocity":36,"Duration":251046,"SoundDuration":251046,"Delta":61405846},{"NoteNumber":75,"Velocity":44,"Duration":251046,"SoundDuration":251046,"Delta":61405846},{"NoteNumber":72,"Velocity":36,"Duration":251046,"SoundDuration":251046,"Delta":61405846},{"NoteNumber":67,"Velocity":47,"Duration":251046,"SoundDuration":251046,"Delta":61405846},{"NoteNumber":67,"Velocity":53,"Duration":500000,"SoundDuration":500000,"Delta":61656892},{"NoteNumber":72,"Velocity":36,"Duration":250000,"SoundDuration":250000,"Delta":61906892},{"NoteNumber":75,"Velocity":44,"Duration":250000,"SoundDuration":250000,"Delta":61906892},{"NoteNumber":68,"Velocity":36,"Duration":250000,"SoundDuration":250000,"Delta":61906892},{"NoteNumber":65,"Velocity":52,"Duration":500000,"SoundDuration":500000,"Delta":62156892},{"NoteNumber":68,"Velocity":34,"Duration":250000,"SoundDuration":250000,"Delta":62406892},{"NoteNumber":72,"Velocity":34,"Duration":250000,"SoundDuration":250000,"Delta":62406892},{"NoteNumber":75,"Velocity":40,"Duration":250000,"SoundDuration":250000,"Delta":62406892},{"NoteNumber":80,"Velocity":72,"Duration":751759,"SoundDuration":751759,"Delta":62656892},{"NoteNumber":84,"Velocity":72,"Duration":751759,"SoundDuration":751759,"Delta":62656892},{"NoteNumber":34,"Velocity":54,"Duration":257466,"SoundDuration":257466,"Delta":62656892},{"NoteNumber":58,"Velocity":47,"Duration":494293,"SoundDuration":494293,"Delta":62914359},{"NoteNumber":76,"Velocity":57,"Duration":246527,"SoundDuration":246527,"Delta":63408652},{"NoteNumber":79,"Velocity":57,"Duration":246527,"SoundDuration":246527,"Delta":63408652},{"NoteNumber":58,"Velocity":38,"Duration":246527,"SoundDuration":246527,"Delta":63408652},{"NoteNumber":82,"Velocity":63,"Duration":490957,"SoundDuration":490957,"Delta":63655180},{"NoteNumber":79,"Velocity":63,"Duration":490957,"SoundDuration":490957,"Delta":63655180},{"NoteNumber":58,"Velocity":39,"Duration":245479,"SoundDuration":245479,"Delta":63655180},{"NoteNumber":58,"Velocity":38,"Duration":495208,"SoundDuration":495208,"Delta":63900659},{"NoteNumber":80,"Velocity":61,"Duration":249729,"SoundDuration":249729,"Delta":64146138},{"NoteNumber":77,"Velocity":61,"Duration":249729,"SoundDuration":249729,"Delta":64146138},{"NoteNumber":74,"Velocity":56,"Duration":249729,"SoundDuration":249729,"Delta":64395867},{"NoteNumber":77,"Velocity":56,"Duration":249729,"SoundDuration":249729,"Delta":64395867},{"NoteNumber":58,"Velocity":36,"Duration":249729,"SoundDuration":249729,"Delta":64395867},{"NoteNumber":74,"Velocity":63,"Duration":499459,"SoundDuration":499459,"Delta":64645597},{"NoteNumber":70,"Velocity":63,"Duration":499459,"SoundDuration":499459,"Delta":64645597},{"NoteNumber":58,"Velocity":39,"Duration":249729,"SoundDuration":249729,"Delta":64645597},{"NoteNumber":58,"Velocity":38,"Duration":499459,"SoundDuration":499459,"Delta":64895326},{"NoteNumber":67,"Velocity":54,"Duration":502893,"SoundDuration":502893,"Delta":65145056},{"NoteNumber":70,"Velocity":54,"Duration":502893,"SoundDuration":502893,"Delta":65145056},{"NoteNumber":58,"Velocity":36,"Duration":253164,"SoundDuration":253164,"Delta":65394786},{"NoteNumber":64,"Velocity":56,"Duration":506329,"SoundDuration":506329,"Delta":65647950},{"NoteNumber":67,"Velocity":56,"Duration":506329,"SoundDuration":506329,"Delta":65647950},{"NoteNumber":58,"Velocity":39,"Duration":253164,"SoundDuration":253164,"Delta":65647950},{"NoteNumber":58,"Velocity":38,"Duration":511785,"SoundDuration":511785,"Delta":65901114},{"NoteNumber":68,"Velocity":52,"Duration":517240,"SoundDuration":517240,"Delta":66154279},{"NoteNumber":65,"Velocity":52,"Duration":517240,"SoundDuration":517240,"Delta":66154279},{"NoteNumber":58,"Velocity":36,"Duration":258620,"SoundDuration":258620,"Delta":66412900},{"NoteNumber":66,"Velocity":50,"Duration":1010707,"SoundDuration":1010707,"Delta":66671520},{"NoteNumber":71,"Velocity":56,"Duration":755388,"SoundDuration":755388,"Delta":66671520},{"NoteNumber":57,"Velocity":37,"Duration":254237,"SoundDuration":254237,"Delta":66671520},{"NoteNumber":63,"Velocity":56,"Duration":1010707,"SoundDuration":1010707,"Delta":66671520},{"NoteNumber":57,"Velocity":37,"Duration":501151,"SoundDuration":501151,"Delta":66925758},{"NoteNumber":73,"Velocity":51,"Duration":255319,"SoundDuration":255319,"Delta":67426909},{"NoteNumber":57,"Velocity":37,"Duration":255319,"SoundDuration":255319,"Delta":67426909},{"NoteNumber":71,"Velocity":54,"Duration":251046,"SoundDuration":251046,"Delta":67682228},{"NoteNumber":64,"Velocity":46,"Duration":251046,"SoundDuration":251046,"Delta":67682228},{"NoteNumber":56,"Velocity":39,"Duration":502092,"SoundDuration":502092,"Delta":67682228},{"NoteNumber":76,"Velocity":55,"Duration":251046,"SoundDuration":251046,"Delta":67933274},{"NoteNumber":78,"Velocity":57,"Duration":254237,"SoundDuration":254237,"Delta":68184320},{"NoteNumber":80,"Velocity":59,"Duration":256410,"SoundDuration":256410,"Delta":68438557},{"NoteNumber":83,"Velocity":59,"Duration":258993,"SoundDuration":258993,"Delta":68694968},{"NoteNumber":80,"Velocity":57,"Duration":260871,"SoundDuration":260871,"Delta":68953961},{"NoteNumber":78,"Velocity":55,"Duration":262968,"SoundDuration":262968,"Delta":69214833},{"NoteNumber":76,"Velocity":53,"Duration":285714,"SoundDuration":285714,"Delta":69477801},{"NoteNumber":75,"Velocity":51,"Duration":571429,"SoundDuration":571429,"Delta":69763515},{"NoteNumber":68,"Velocity":42,"Duration":1142858,"SoundDuration":1142858,"Delta":69763515},{"NoteNumber":65,"Velocity":35,"Duration":1142858,"SoundDuration":1142858,"Delta":69763515},{"NoteNumber":58,"Velocity":35,"Duration":1142858,"SoundDuration":1142858,"Delta":69763515},{"NoteNumber":74,"Velocity":50,"Duration":571428,"SoundDuration":571428,"Delta":70334944},{"NoteNumber":79,"Velocity":52,"Duration":766822,"SoundDuration":766822,"Delta":70906373},{"NoteNumber":75,"Velocity":52,"Duration":766822,"SoundDuration":766822,"Delta":70906373},{"NoteNumber":58,"Velocity":38,"Duration":257466,"SoundDuration":257466,"Delta":70906373},{"NoteNumber":51,"Velocity":32,"Duration":1028968,"SoundDuration":1028968,"Delta":70906373},{"NoteNumber":58,"Velocity":35,"Duration":509355,"SoundDuration":509355,"Delta":71163840},{"NoteNumber":74,"Velocity":50,"Duration":262146,"SoundDuration":262146,"Delta":71673195},{"NoteNumber":77,"Velocity":50,"Duration":262146,"SoundDuration":262146,"Delta":71673195},{"NoteNumber":58,"Velocity":33,"Duration":262146,"SoundDuration":262146,"Delta":71673195},{"NoteNumber":80,"Velocity":52,"Duration":514977,"SoundDuration":514977,"Delta":71935341},{"NoteNumber":77,"Velocity":52,"Duration":514977,"SoundDuration":514977,"Delta":71935341},{"NoteNumber":58,"Velocity":37,"Duration":257488,"SoundDuration":257488,"Delta":71935341},{"NoteNumber":51,"Velocity":32,"Duration":1014436,"SoundDuration":1014436,"Delta":71935341},{"NoteNumber":58,"Velocity":35,"Duration":507218,"SoundDuration":507218,"Delta":72192830},{"NoteNumber":74,"Velocity":52,"Duration":249729,"SoundDuration":249729,"Delta":72450318},{"NoteNumber":77,"Velocity":52,"Duration":249729,"SoundDuration":249729,"Delta":72450318},{"NoteNumber":75,"Velocity":50,"Duration":249729,"SoundDuration":249729,"Delta":72700048},{"NoteNumber":79,"Velocity":50,"Duration":249729,"SoundDuration":249729,"Delta":72700048},{"NoteNumber":58,"Velocity":34,"Duration":249729,"SoundDuration":249729,"Delta":72700048},{"NoteNumber":72,"Velocity":52,"Duration":508216,"SoundDuration":508216,"Delta":72949777},{"NoteNumber":75,"Velocity":52,"Duration":508216,"SoundDuration":508216,"Delta":72949777},{"NoteNumber":58,"Velocity":38,"Duration":254108,"SoundDuration":254108,"Delta":72949777},{"NoteNumber":51,"Velocity":32,"Duration":1027786,"SoundDuration":1027786,"Delta":72949777},{"NoteNumber":58,"Velocity":35,"Duration":513892,"SoundDuration":513892,"Delta":73203885},{"NoteNumber":68,"Velocity":49,"Duration":519570,"SoundDuration":519570,"Delta":73457993},{"NoteNumber":72,"Velocity":49,"Duration":519570,"SoundDuration":519570,"Delta":73457993},{"NoteNumber":58,"Velocity":33,"Duration":259785,"SoundDuration":259785,"Delta":73717778},{"NoteNumber":67,"Velocity":47,"Duration":1034547,"SoundDuration":1034547,"Delta":73977563},{"NoteNumber":70,"Velocity":47,"Duration":1034547,"SoundDuration":1034547,"Delta":73977563},{"NoteNumber":58,"Velocity":37,"Duration":259784,"SoundDuration":259784,"Delta":73977563},{"NoteNumber":51,"Velocity":32,"Duration":1034547,"SoundDuration":1034547,"Delta":73977563},{"NoteNumber":58,"Velocity":35,"Duration":517273,"SoundDuration":517273,"Delta":74237348},{"NoteNumber":58,"Velocity":34,"Duration":257488,"SoundDuration":257488,"Delta":74754622},{"NoteNumber":68,"Velocity":51,"Duration":993627,"SoundDuration":993627,"Delta":75012110},{"NoteNumber":72,"Velocity":51,"Duration":499459,"SoundDuration":499459,"Delta":75012110},{"NoteNumber":65,"Velocity":37,"Duration":993627,"SoundDuration":993627,"Delta":75012110},{"NoteNumber":51,"Velocity":32,"Duration":993627,"SoundDuration":993627,"Delta":75012110},{"NoteNumber":58,"Velocity":35,"Duration":494168,"SoundDuration":494168,"Delta":75261840},{"NoteNumber":74,"Velocity":56,"Duration":244438,"SoundDuration":244438,"Delta":75511569},{"NoteNumber":77,"Velocity":55,"Duration":249729,"SoundDuration":249729,"Delta":75756008},{"NoteNumber":58,"Velocity":34,"Duration":249729,"SoundDuration":249729,"Delta":75756008},{"NoteNumber":68,"Velocity":55,"Duration":1016431,"SoundDuration":1016431,"Delta":76005738},{"NoteNumber":74,"Velocity":55,"Duration":508216,"SoundDuration":508216,"Delta":76005738},{"NoteNumber":65,"Velocity":37,"Duration":1016431,"SoundDuration":1016431,"Delta":76005738},{"NoteNumber":51,"Velocity":32,"Duration":1016431,"SoundDuration":1016431,"Delta":76005738},{"NoteNumber":58,"Velocity":35,"Duration":508216,"SoundDuration":508216,"Delta":76259846},{"NoteNumber":70,"Velocity":51,"Duration":508215,"SoundDuration":508215,"Delta":76513954},{"NoteNumber":58,"Velocity":34,"Duration":254107,"SoundDuration":254107,"Delta":76768062},{"NoteNumber":67,"Velocity":51,"Duration":1001488,"SoundDuration":1001488,"Delta":77022170},{"NoteNumber":72,"Velocity":51,"Duration":248632,"SoundDuration":248632,"Delta":77022170},{"NoteNumber":58,"Velocity":37,"Duration":248632,"SoundDuration":248632,"Delta":77022170},{"NoteNumber":51,"Velocity":32,"Duration":1001488,"SoundDuration":1001488,"Delta":77022170},{"NoteNumber":74,"Velocity":49,"Duration":248632,"SoundDuration":248632,"Delta":77270802},{"NoteNumber":58,"Velocity":35,"Duration":493071,"SoundDuration":493071,"Delta":77270802},{"NoteNumber":79,"Velocity":52,"Duration":244438,"SoundDuration":244438,"Delta":77519435},{"NoteNumber":72,"Velocity":50,"Duration":259784,"SoundDuration":259784,"Delta":77763874},{"NoteNumber":58,"Velocity":34,"Duration":259784,"SoundDuration":259784,"Delta":77763874},{"NoteNumber":67,"Velocity":47,"Duration":1039140,"SoundDuration":1039140,"Delta":78023659},{"NoteNumber":70,"Velocity":47,"Duration":1039140,"SoundDuration":1039140,"Delta":78023659},{"NoteNumber":51,"Velocity":32,"Duration":1039140,"SoundDuration":1039140,"Delta":78023659},{"NoteNumber":58,"Velocity":37,"Duration":259785,"SoundDuration":259785,"Delta":78023659},{"NoteNumber":58,"Velocity":35,"Duration":519570,"SoundDuration":519570,"Delta":78283444},{"NoteNumber":58,"Velocity":34,"Duration":259784,"SoundDuration":259784,"Delta":78803014},{"NoteNumber":74,"Velocity":64,"Duration":761214,"SoundDuration":761214,"Delta":79062799},{"NoteNumber":70,"Velocity":64,"Duration":761214,"SoundDuration":761214,"Delta":79062799},{"NoteNumber":62,"Velocity":42,"Duration":255210,"SoundDuration":255210,"Delta":79062799},{"NoteNumber":55,"Velocity":35,"Duration":1016425,"SoundDuration":1016425,"Delta":79062799},{"NoteNumber":62,"Velocity":38,"Duration":506004,"SoundDuration":506004,"Delta":79318009},{"NoteNumber":67,"Velocity":55,"Duration":255210,"SoundDuration":255210,"Delta":79824014},{"NoteNumber":70,"Velocity":55,"Duration":255210,"SoundDuration":255210,"Delta":79824014},{"NoteNumber":62,"Velocity":36,"Duration":255210,"SoundDuration":255210,"Delta":79824014},{"NoteNumber":72,"Velocity":51,"Duration":501587,"SoundDuration":501587,"Delta":80079224},{"NoteNumber":69,"Velocity":60,"Duration":988402,"SoundDuration":988402,"Delta":80079224},{"NoteNumber":63,"Velocity":40,"Duration":250793,"SoundDuration":250793,"Delta":80079224},{"NoteNumber":55,"Velocity":35,"Duration":988402,"SoundDuration":988402,"Delta":80079224},{"NoteNumber":63,"Velocity":38,"Duration":494201,"SoundDuration":494201,"Delta":80330018},{"NoteNumber":78,"Velocity":65,"Duration":243407,"SoundDuration":243407,"Delta":80580812},{"NoteNumber":81,"Velocity":60,"Duration":243407,"SoundDuration":243407,"Delta":80824220},{"NoteNumber":63,"Velocity":37,"Duration":243407,"SoundDuration":243407,"Delta":80824220},{"NoteNumber":70,"Velocity":57,"Duration":490958,"SoundDuration":490958,"Delta":81067627},{"NoteNumber":79,"Velocity":64,"Duration":245479,"SoundDuration":245479,"Delta":81067627},{"NoteNumber":62,"Velocity":43,"Duration":245479,"SoundDuration":245479,"Delta":81067627},{"NoteNumber":55,"Velocity":38,"Duration":490958,"SoundDuration":490958,"Delta":81067627},{"NoteNumber":74,"Velocity":56,"Duration":245479,"SoundDuration":245479,"Delta":81313106},{"NoteNumber":62,"Velocity":37,"Duration":245479,"SoundDuration":245479,"Delta":81313106},{"NoteNumber":69,"Velocity":51,"Duration":500783,"SoundDuration":500783,"Delta":81558585},{"NoteNumber":72,"Velocity":58,"Duration":244438,"SoundDuration":244438,"Delta":81558585},{"NoteNumber":55,"Velocity":35,"Duration":500783,"SoundDuration":500783,"Delta":81558585},{"NoteNumber":63,"Velocity":39,"Duration":244438,"SoundDuration":244438,"Delta":81558585},{"NoteNumber":74,"Velocity":53,"Duration":256344,"SoundDuration":256344,"Delta":81803024},{"NoteNumber":63,"Velocity":35,"Duration":256344,"SoundDuration":256344,"Delta":81803024},{"NoteNumber":67,"Velocity":47,"Duration":1025378,"SoundDuration":1025378,"Delta":82059369},{"NoteNumber":70,"Velocity":47,"Duration":1025378,"SoundDuration":1025378,"Delta":82059369},{"NoteNumber":55,"Velocity":31,"Duration":1025378,"SoundDuration":1025378,"Delta":82059369},{"NoteNumber":62,"Velocity":36,"Duration":256344,"SoundDuration":256344,"Delta":82059369},{"NoteNumber":62,"Velocity":34,"Duration":512689,"SoundDuration":512689,"Delta":82315713},{"NoteNumber":62,"Velocity":33,"Duration":256344,"SoundDuration":256344,"Delta":82828402},{"NoteNumber":70,"Velocity":51,"Duration":755781,"SoundDuration":755781,"Delta":83084747},{"NoteNumber":77,"Velocity":60,"Duration":755781,"SoundDuration":755781,"Delta":83084747},{"NoteNumber":53,"Velocity":42,"Duration":247565,"SoundDuration":247565,"Delta":83084747},{"NoteNumber":62,"Velocity":60,"Duration":755781,"SoundDuration":755781,"Delta":83084747},{"NoteNumber":53,"Velocity":42,"Duration":1759604,"SoundDuration":1759604,"Delta":83332312},{"NoteNumber":69,"Velocity":49,"Duration":1251388,"SoundDuration":1251388,"Delta":83840528},{"NoteNumber":79,"Velocity":58,"Duration":248992,"SoundDuration":248992,"Delta":83840528},{"NoteNumber":63,"Velocity":47,"Duration":248992,"SoundDuration":248992,"Delta":83840528},{"NoteNumber":75,"Velocity":57,"Duration":247046,"SoundDuration":247046,"Delta":84089521},{"NoteNumber":60,"Velocity":48,"Duration":247046,"SoundDuration":247046,"Delta":84089521},{"NoteNumber":77,"Velocity":60,"Duration":249358,"SoundDuration":249358,"Delta":84336568},{"NoteNumber":62,"Velocity":49,"Duration":249358,"SoundDuration":249358,"Delta":84336568},{"NoteNumber":79,"Velocity":64,"Duration":251704,"SoundDuration":251704,"Delta":84585926},{"NoteNumber":63,"Velocity":50,"Duration":251704,"SoundDuration":251704,"Delta":84585926},{"NoteNumber":81,"Velocity":61,"Duration":254285,"SoundDuration":254285,"Delta":84837631},{"NoteNumber":65,"Velocity":50,"Duration":254285,"SoundDuration":254285,"Delta":84837631},{"NoteNumber":70,"Velocity":58,"Duration":252972,"SoundDuration":252972,"Delta":85091917},{"NoteNumber":77,"Velocity":69,"Duration":252972,"SoundDuration":252972,"Delta":85091917},{"NoteNumber":62,"Velocity":56,"Duration":252972,"SoundDuration":252972,"Delta":85091917},{"NoteNumber":68,"Velocity":48,"Duration":256344,"SoundDuration":256344,"Delta":85344889},{"NoteNumber":74,"Velocity":57,"Duration":256344,"SoundDuration":256344,"Delta":85344889},{"NoteNumber":59,"Velocity":49,"Duration":256344,"SoundDuration":256344,"Delta":85344889},{"NoteNumber":69,"Velocity":52,"Duration":254108,"SoundDuration":254108,"Delta":85601234},{"NoteNumber":75,"Velocity":61,"Duration":254108,"SoundDuration":254108,"Delta":85601234},{"NoteNumber":60,"Velocity":52,"Duration":254108,"SoundDuration":254108,"Delta":85601234},{"NoteNumber":65,"Velocity":46,"Duration":1317397,"SoundDuration":1317397,"Delta":85855342},{"NoteNumber":73,"Velocity":54,"Duration":257488,"SoundDuration":257488,"Delta":85855342},{"NoteNumber":57,"Velocity":48,"Duration":257488,"SoundDuration":257488,"Delta":85855342},{"NoteNumber":74,"Velocity":59,"Duration":257488,"SoundDuration":257488,"Delta":86112830},{"NoteNumber":58,"Velocity":51,"Duration":1059909,"SoundDuration":1059909,"Delta":86112830},{"NoteNumber":68,"Velocity":38,"Duration":526685,"SoundDuration":526685,"Delta":86370319},{"NoteNumber":72,"Velocity":52,"Duration":263342,"SoundDuration":263342,"Delta":86370319},{"NoteNumber":63,"Velocity":39,"Duration":263342,"SoundDuration":263342,"Delta":86370319},{"NoteNumber":71,"Velocity":46,"Duration":263342,"SoundDuration":263342,"Delta":86633661},{"NoteNumber":62,"Velocity":36,"Duration":539078,"SoundDuration":539078,"Delta":86633661},{"NoteNumber":70,"Velocity":43,"Duration":275735,"SoundDuration":275735,"Delta":86897004},{"NoteNumber":79,"Velocity":52,"Duration":760190,"SoundDuration":760190,"Delta":87172739},{"NoteNumber":75,"Velocity":52,"Duration":760190,"SoundDuration":760190,"Delta":87172739},{"NoteNumber":58,"Velocity":38,"Duration":254116,"SoundDuration":254116,"Delta":87172739},{"NoteNumber":51,"Velocity":32,"Duration":1018833,"SoundDuration":1018833,"Delta":87172739},{"NoteNumber":58,"Velocity":35,"Duration":506073,"SoundDuration":506073,"Delta":87426856},{"NoteNumber":74,"Velocity":50,"Duration":258643,"SoundDuration":258643,"Delta":87932930},{"NoteNumber":77,"Velocity":50,"Duration":258643,"SoundDuration":258643,"Delta":87932930},{"NoteNumber":58,"Velocity":33,"Duration":258643,"SoundDuration":258643,"Delta":87932930},{"NoteNumber":80,"Velocity":52,"Duration":510420,"SoundDuration":510420,"Delta":88191573},{"NoteNumber":77,"Velocity":52,"Duration":510420,"SoundDuration":510420,"Delta":88191573},{"NoteNumber":58,"Velocity":37,"Duration":255210,"SoundDuration":255210,"Delta":88191573},{"NoteNumber":51,"Velocity":32,"Duration":1009879,"SoundDuration":1009879,"Delta":88191573},{"NoteNumber":58,"Velocity":35,"Duration":504939,"SoundDuration":504939,"Delta":88446783},{"NoteNumber":74,"Velocity":52,"Duration":249729,"SoundDuration":249729,"Delta":88701994},{"NoteNumber":77,"Velocity":52,"Duration":249729,"SoundDuration":249729,"Delta":88701994},{"NoteNumber":75,"Velocity":50,"Duration":249729,"SoundDuration":249729,"Delta":88951723},{"NoteNumber":79,"Velocity":50,"Duration":249729,"SoundDuration":249729,"Delta":88951723},{"NoteNumber":58,"Velocity":34,"Duration":249729,"SoundDuration":249729,"Delta":88951723},{"NoteNumber":72,"Velocity":52,"Duration":508216,"SoundDuration":508216,"Delta":89201453},{"NoteNumber":75,"Velocity":52,"Duration":508216,"SoundDuration":508216,"Delta":89201453},{"NoteNumber":58,"Velocity":38,"Duration":254108,"SoundDuration":254108,"Delta":89201453},{"NoteNumber":51,"Velocity":32,"Duration":1027786,"SoundDuration":1027786,"Delta":89201453},{"NoteNumber":58,"Velocity":35,"Duration":513892,"SoundDuration":513892,"Delta":89455561},{"NoteNumber":68,"Velocity":49,"Duration":519570,"SoundDuration":519570,"Delta":89709669},{"NoteNumber":72,"Velocity":49,"Duration":519570,"SoundDuration":519570,"Delta":89709669},{"NoteNumber":58,"Velocity":33,"Duration":259785,"SoundDuration":259785,"Delta":89969454},{"NoteNumber":67,"Velocity":47,"Duration":1034547,"SoundDuration":1034547,"Delta":90229239},{"NoteNumber":70,"Velocity":47,"Duration":1034547,"SoundDuration":1034547,"Delta":90229239},{"NoteNumber":58,"Velocity":37,"Duration":259784,"SoundDuration":259784,"Delta":90229239},{"NoteNumber":51,"Velocity":32,"Duration":1034547,"SoundDuration":1034547,"Delta":90229239},{"NoteNumber":58,"Velocity":35,"Duration":517273,"SoundDuration":517273,"Delta":90489024},{"NoteNumber":58,"Velocity":34,"Duration":257488,"SoundDuration":257488,"Delta":91006297},{"NoteNumber":68,"Velocity":51,"Duration":993627,"SoundDuration":993627,"Delta":91263786},{"NoteNumber":72,"Velocity":51,"Duration":499459,"SoundDuration":499459,"Delta":91263786},{"NoteNumber":65,"Velocity":37,"Duration":993627,"SoundDuration":993627,"Delta":91263786},{"NoteNumber":51,"Velocity":32,"Duration":993627,"SoundDuration":993627,"Delta":91263786},{"NoteNumber":58,"Velocity":35,"Duration":494168,"SoundDuration":494168,"Delta":91513515},{"NoteNumber":74,"Velocity":56,"Duration":244438,"SoundDuration":244438,"Delta":91763245},{"NoteNumber":77,"Velocity":55,"Duration":249729,"SoundDuration":249729,"Delta":92007684},{"NoteNumber":58,"Velocity":34,"Duration":249729,"SoundDuration":249729,"Delta":92007684},{"NoteNumber":68,"Velocity":55,"Duration":1016431,"SoundDuration":1016431,"Delta":92257413},{"NoteNumber":74,"Velocity":55,"Duration":508216,"SoundDuration":508216,"Delta":92257413},{"NoteNumber":65,"Velocity":37,"Duration":1016431,"SoundDuration":1016431,"Delta":92257413},{"NoteNumber":51,"Velocity":32,"Duration":1016431,"SoundDuration":1016431,"Delta":92257413},{"NoteNumber":58,"Velocity":35,"Duration":508216,"SoundDuration":508216,"Delta":92511521},{"NoteNumber":70,"Velocity":51,"Duration":508215,"SoundDuration":508215,"Delta":92765629},{"NoteNumber":58,"Velocity":34,"Duration":254107,"SoundDuration":254107,"Delta":93019737},{"NoteNumber":67,"Velocity":51,"Duration":1001488,"SoundDuration":1001488,"Delta":93273845},{"NoteNumber":72,"Velocity":51,"Duration":248632,"SoundDuration":248632,"Delta":93273845},{"NoteNumber":58,"Velocity":37,"Duration":248632,"SoundDuration":248632,"Delta":93273845},{"NoteNumber":51,"Velocity":32,"Duration":1001488,"SoundDuration":1001488,"Delta":93273845},{"NoteNumber":74,"Velocity":49,"Duration":248632,"SoundDuration":248632,"Delta":93522478},{"NoteNumber":58,"Velocity":35,"Duration":493071,"SoundDuration":493071,"Delta":93522478},{"NoteNumber":79,"Velocity":52,"Duration":244438,"SoundDuration":244438,"Delta":93771110},{"NoteNumber":72,"Velocity":50,"Duration":259784,"SoundDuration":259784,"Delta":94015549},{"NoteNumber":58,"Velocity":34,"Duration":259784,"SoundDuration":259784,"Delta":94015549},{"NoteNumber":67,"Velocity":47,"Duration":1039140,"SoundDuration":1039140,"Delta":94275334},{"NoteNumber":70,"Velocity":47,"Duration":1039140,"SoundDuration":1039140,"Delta":94275334},{"NoteNumber":51,"Velocity":32,"Duration":1039140,"SoundDuration":1039140,"Delta":94275334},{"NoteNumber":58,"Velocity":37,"Duration":259785,"SoundDuration":259785,"Delta":94275334},{"NoteNumber":58,"Velocity":35,"Duration":519570,"SoundDuration":519570,"Delta":94535119},{"NoteNumber":58,"Velocity":34,"Duration":259784,"SoundDuration":259784,"Delta":95054689},{"NoteNumber":67,"Velocity":47,"Duration":755291,"SoundDuration":755291,"Delta":95314474},{"NoteNumber":73,"Velocity":55,"Duration":755291,"SoundDuration":755291,"Delta":95314474},{"NoteNumber":65,"Velocity":52,"Duration":248962,"SoundDuration":248962,"Delta":95314474},{"NoteNumber":51,"Velocity":47,"Duration":506328,"SoundDuration":506328,"Delta":95563437},{"NoteNumber":67,"Velocity":45,"Duration":247934,"SoundDuration":247934,"Delta":96069766},{"NoteNumber":72,"Velocity":53,"Duration":247934,"SoundDuration":247934,"Delta":96069766},{"NoteNumber":63,"Velocity":40,"Duration":247934,"SoundDuration":247934,"Delta":96069766},{"NoteNumber":67,"Velocity":47,"Duration":991896,"SoundDuration":991896,"Delta":96317700},{"NoteNumber":72,"Velocity":56,"Duration":740850,"SoundDuration":740850,"Delta":96317700},{"NoteNumber":63,"Velocity":49,"Duration":243902,"SoundDuration":243902,"Delta":96317700},{"NoteNumber":62,"Velocity":42,"Duration":245901,"SoundDuration":245901,"Delta":96561602},{"NoteNumber":61,"Velocity":39,"Duration":502092,"SoundDuration":502092,"Delta":96807504},{"NoteNumber":70,"Velocity":52,"Duration":251046,"SoundDuration":251046,"Delta":97058550},{"NoteNumber":63,"Velocity":45,"Duration":489795,"SoundDuration":489795,"Delta":97309596},{"NoteNumber":67,"Velocity":53,"Duration":244898,"SoundDuration":244898,"Delta":97309596},{"NoteNumber":59,"Velocity":49,"Duration":244898,"SoundDuration":244898,"Delta":97309596},{"NoteNumber":68,"Velocity":55,"Duration":244897,"SoundDuration":244897,"Delta":97554494},{"NoteNumber":60,"Velocity":46,"Duration":244897,"SoundDuration":244897,"Delta":97554494},{"NoteNumber":71,"Velocity":56,"Duration":248962,"SoundDuration":248962,"Delta":97799392},{"NoteNumber":55,"Velocity":52,"Duration":248962,"SoundDuration":248962,"Delta":97799392},{"NoteNumber":72,"Velocity":57,"Duration":248962,"SoundDuration":248962,"Delta":98048354},{"NoteNumber":56,"Velocity":47,"Duration":248962,"SoundDuration":248962,"Delta":98048354},{"NoteNumber":74,"Velocity":59,"Duration":254237,"SoundDuration":254237,"Delta":98297317},{"NoteNumber":59,"Velocity":51,"Duration":254237,"SoundDuration":254237,"Delta":98297317},{"NoteNumber":75,"Velocity":56,"Duration":259740,"SoundDuration":259740,"Delta":98551554},{"NoteNumber":60,"Velocity":48,"Duration":259740,"SoundDuration":259740,"Delta":98551554},{"NoteNumber":72,"Velocity":47,"Duration":259740,"SoundDuration":259740,"Delta":98811295},{"NoteNumber":75,"Velocity":47,"Duration":259740,"SoundDuration":259740,"Delta":98811295},{"NoteNumber":80,"Velocity":61,"Duration":259740,"SoundDuration":259740,"Delta":98811295},{"NoteNumber":53,"Velocity":45,"Duration":519480,"SoundDuration":519480,"Delta":98811295},{"NoteNumber":63,"Velocity":38,"Duration":259740,"SoundDuration":259740,"Delta":99071035},{"NoteNumber":68,"Velocity":38,"Duration":259740,"SoundDuration":259740,"Delta":99071035},{"NoteNumber":72,"Velocity":55,"Duration":259740,"SoundDuration":259740,"Delta":99071035},{"NoteNumber":63,"Velocity":44,"Duration":766822,"SoundDuration":766822,"Delta":99330776},{"NoteNumber":72,"Velocity":52,"Duration":766822,"SoundDuration":766822,"Delta":99330776},{"NoteNumber":68,"Velocity":44,"Duration":766822,"SoundDuration":766822,"Delta":99330776},{"NoteNumber":46,"Velocity":44,"Duration":257466,"SoundDuration":257466,"Delta":99330776},{"NoteNumber":58,"Velocity":36,"Duration":509355,"SoundDuration":509355,"Delta":99588242},{"NoteNumber":65,"Velocity":42,"Duration":262146,"SoundDuration":262146,"Delta":100097598},{"NoteNumber":68,"Velocity":42,"Duration":262146,"SoundDuration":262146,"Delta":100097598},{"NoteNumber":74,"Velocity":50,"Duration":262146,"SoundDuration":262146,"Delta":100097598},{"NoteNumber":58,"Velocity":36,"Duration":519634,"SoundDuration":519634,"Delta":100097598},{"NoteNumber":63,"Velocity":44,"Duration":514977,"SoundDuration":514977,"Delta":100359744},{"NoteNumber":72,"Velocity":52,"Duration":514977,"SoundDuration":514977,"Delta":100359744},{"NoteNumber":68,"Velocity":44,"Duration":514977,"SoundDuration":514977,"Delta":100359744},{"NoteNumber":58,"Velocity":35,"Duration":507218,"SoundDuration":507218,"Delta":100617232},{"NoteNumber":62,"Velocity":40,"Duration":499459,"SoundDuration":499459,"Delta":100874721},{"NoteNumber":68,"Velocity":40,"Duration":499459,"SoundDuration":499459,"Delta":100874721},{"NoteNumber":70,"Velocity":49,"Duration":499459,"SoundDuration":499459,"Delta":100874721},{"NoteNumber":58,"Velocity":34,"Duration":249729,"SoundDuration":249729,"Delta":101124450},{"NoteNumber":67,"Velocity":52,"Duration":766822,"SoundDuration":766822,"Delta":101374180},{"NoteNumber":63,"Velocity":44,"Duration":766822,"SoundDuration":766822,"Delta":101374180},{"NoteNumber":46,"Velocity":44,"Duration":257466,"SoundDuration":257466,"Delta":101374180},{"NoteNumber":58,"Velocity":48,"Duration":509355,"SoundDuration":509355,"Delta":101631646},{"NoteNumber":63,"Velocity":42,"Duration":262146,"SoundDuration":262146,"Delta":102141002},{"NoteNumber":70,"Velocity":50,"Duration":262146,"SoundDuration":262146,"Delta":102141002},{"NoteNumber":62,"Velocity":36,"Duration":519634,"SoundDuration":519634,"Delta":102141002},{"NoteNumber":63,"Velocity":44,"Duration":514977,"SoundDuration":514977,"Delta":102403148},{"NoteNumber":68,"Velocity":52,"Duration":514977,"SoundDuration":514977,"Delta":102403148},{"NoteNumber":60,"Velocity":35,"Duration":507218,"SoundDuration":507218,"Delta":102660636},{"NoteNumber":63,"Velocity":40,"Duration":499459,"SoundDuration":499459,"Delta":102918125},{"NoteNumber":67,"Velocity":49,"Duration":499459,"SoundDuration":499459,"Delta":102918125},{"NoteNumber":58,"Velocity":34,"Duration":249729,"SoundDuration":249729,"Delta":103167854},{"NoteNumber":60,"Velocity":47,"Duration":243902,"SoundDuration":243902,"Delta":103417584},{"NoteNumber":65,"Velocity":47,"Duration":243902,"SoundDuration":243902,"Delta":103417584},{"NoteNumber":46,"Velocity":33,"Duration":243902,"SoundDuration":243902,"Delta":103417584},{"NoteNumber":56,"Velocity":33,"Duration":243902,"SoundDuration":243902,"Delta":103417584},{"NoteNumber":63,"Velocity":38,"Duration":243902,"SoundDuration":243902,"Delta":103661486},{"NoteNumber":68,"Velocity":38,"Duration":243902,"SoundDuration":243902,"Delta":103661486},{"NoteNumber":60,"Velocity":30,"Duration":243902,"SoundDuration":243902,"Delta":103661486},{"NoteNumber":60,"Velocity":46,"Duration":245901,"SoundDuration":245901,"Delta":103905389},{"NoteNumber":65,"Velocity":46,"Duration":245901,"SoundDuration":245901,"Delta":103905389},{"NoteNumber":56,"Velocity":32,"Duration":245901,"SoundDuration":245901,"Delta":103905389},{"NoteNumber":62,"Velocity":37,"Duration":248962,"SoundDuration":248962,"Delta":104151290},{"NoteNumber":67,"Velocity":37,"Duration":248962,"SoundDuration":248962,"Delta":104151290},{"NoteNumber":58,"Velocity":30,"Duration":248962,"SoundDuration":248962,"Delta":104151290},{"NoteNumber":60,"Velocity":42,"Duration":515021,"SoundDuration":515021,"Delta":104400253},{"NoteNumber":65,"Velocity":42,"Duration":515021,"SoundDuration":515021,"Delta":104400253},{"NoteNumber":56,"Velocity":31,"Duration":515021,"SoundDuration":515021,"Delta":104400253},{"NoteNumber":62,"Velocity":37,"Duration":515020,"SoundDuration":515020,"Delta":104915274},{"NoteNumber":67,"Velocity":37,"Duration":515020,"SoundDuration":515020,"Delta":104915274},{"NoteNumber":70,"Velocity":37,"Duration":515020,"SoundDuration":515020,"Delta":104915274},{"NoteNumber":46,"Velocity":28,"Duration":515020,"SoundDuration":515020,"Delta":104915274},{"NoteNumber":56,"Velocity":28,"Duration":515020,"SoundDuration":515020,"Delta":104915274},{"NoteNumber":46,"Velocity":32,"Duration":257466,"SoundDuration":257466,"Delta":105430295},{"NoteNumber":39,"Velocity":28,"Duration":1029865,"SoundDuration":1029865,"Delta":105430295},{"NoteNumber":46,"Velocity":30,"Duration":514932,"SoundDuration":514932,"Delta":105687761},{"NoteNumber":46,"Velocity":28,"Duration":257466,"SoundDuration":257466,"Delta":106202694},{"NoteNumber":46,"Velocity":30,"Duration":257466,"SoundDuration":257466,"Delta":106460161},{"NoteNumber":39,"Velocity":27,"Duration":1029865,"SoundDuration":1029865,"Delta":106460161},{"NoteNumber":46,"Velocity":28,"Duration":514932,"SoundDuration":514932,"Delta":106717627},{"NoteNumber":46,"Velocity":27,"Duration":257466,"SoundDuration":257466,"Delta":107232560},{"NoteNumber":79,"Velocity":42,"Duration":766822,"SoundDuration":766822,"Delta":107490027},{"NoteNumber":75,"Velocity":42,"Duration":766822,"SoundDuration":766822,"Delta":107490027},{"NoteNumber":46,"Velocity":29,"Duration":257466,"SoundDuration":257466,"Delta":107490027},{"NoteNumber":39,"Velocity":25,"Duration":1028968,"SoundDuration":1028968,"Delta":107490027},{"NoteNumber":46,"Velocity":27,"Duration":509355,"SoundDuration":509355,"Delta":107747493},{"NoteNumber":74,"Velocity":38,"Duration":262146,"SoundDuration":262146,"Delta":108256849},{"NoteNumber":77,"Velocity":38,"Duration":262146,"SoundDuration":262146,"Delta":108256849},{"NoteNumber":46,"Velocity":26,"Duration":262146,"SoundDuration":262146,"Delta":108256849},{"NoteNumber":80,"Velocity":39,"Duration":514977,"SoundDuration":514977,"Delta":108518995},{"NoteNumber":77,"Velocity":39,"Duration":514977,"SoundDuration":514977,"Delta":108518995},{"NoteNumber":46,"Velocity":28,"Duration":257488,"SoundDuration":257488,"Delta":108518995},{"NoteNumber":39,"Velocity":23,"Duration":1036715,"SoundDuration":1036715,"Delta":108518995},{"NoteNumber":46,"Velocity":26,"Duration":518358,"SoundDuration":518358,"Delta":108776483},{"NoteNumber":74,"Velocity":38,"Duration":260869,"SoundDuration":260869,"Delta":109033972},{"NoteNumber":77,"Velocity":38,"Duration":260869,"SoundDuration":260869,"Delta":109033972},{"NoteNumber":75,"Velocity":35,"Duration":260869,"SoundDuration":260869,"Delta":109294841},{"NoteNumber":79,"Velocity":35,"Duration":260869,"SoundDuration":260869,"Delta":109294841},{"NoteNumber":46,"Velocity":25,"Duration":260869,"SoundDuration":260869,"Delta":109294841},{"NoteNumber":72,"Velocity":35,"Duration":530973,"SoundDuration":530973,"Delta":109555711},{"NoteNumber":75,"Velocity":35,"Duration":530973,"SoundDuration":530973,"Delta":109555711},{"NoteNumber":46,"Velocity":26,"Duration":265486,"SoundDuration":265486,"Delta":109555711},{"NoteNumber":39,"Velocity":21,"Duration":1078918,"SoundDuration":1078918,"Delta":109555711},{"NoteNumber":46,"Velocity":25,"Duration":539459,"SoundDuration":539459,"Delta":109821197},{"NoteNumber":68,"Velocity":31,"Duration":547944,"SoundDuration":547944,"Delta":110086684},{"NoteNumber":72,"Velocity":31,"Duration":547944,"SoundDuration":547944,"Delta":110086684},{"NoteNumber":46,"Velocity":21,"Duration":273972,"SoundDuration":273972,"Delta":110360656},{"NoteNumber":67,"Velocity":29,"Duration":1062922,"SoundDuration":1062922,"Delta":110634629},{"NoteNumber":70,"Velocity":29,"Duration":1062922,"SoundDuration":1062922,"Delta":110634629},{"NoteNumber":46,"Velocity":25,"Duration":273972,"SoundDuration":273972,"Delta":110634629},{"NoteNumber":39,"Velocity":19,"Duration":1062922,"SoundDuration":1062922,"Delta":110634629},{"NoteNumber":46,"Velocity":21,"Duration":531460,"SoundDuration":531460,"Delta":110908601},{"NoteNumber":46,"Velocity":19,"Duration":257488,"SoundDuration":257488,"Delta":111440062},{"NoteNumber":54,"Velocity":25,"Duration":2096259,"SoundDuration":2096259,"Delta":111697551},{"NoteNumber":57,"Velocity":25,"Duration":2096259,"SoundDuration":2096259,"Delta":111697551},{"NoteNumber":63,"Velocity":29,"Duration":2096259,"SoundDuration":2096259,"Delta":111697551},{"NoteNumber":47,"Velocity":23,"Duration":262008,"SoundDuration":262008,"Delta":111697551},{"NoteNumber":39,"Velocity":18,"Duration":1048034,"SoundDuration":1048034,"Delta":111697551},{"NoteNumber":47,"Velocity":19,"Duration":524017,"SoundDuration":524017,"Delta":111959559},{"NoteNumber":47,"Velocity":17,"Duration":262008,"SoundDuration":262008,"Delta":112483576},{"NoteNumber":47,"Velocity":19,"Duration":262008,"SoundDuration":262008,"Delta":112745585},{"NoteNumber":39,"Velocity":16,"Duration":1048225,"SoundDuration":1048225,"Delta":112745585},{"NoteNumber":47,"Velocity":17,"Duration":524017,"SoundDuration":524017,"Delta":113007593},{"NoteNumber":47,"Velocity":15,"Duration":262200,"SoundDuration":262200,"Delta":113531610},{"NoteNumber":87,"Velocity":39,"Duration":1609733,"SoundDuration":1609733,"Delta":113793810},{"NoteNumber":79,"Velocity":39,"Duration":1609733,"SoundDuration":1609733,"Delta":113793810},{"NoteNumber":39,"Velocity":33,"Duration":263737,"SoundDuration":263737,"Delta":113793810},{"NoteNumber":46,"Velocity":29,"Duration":265684,"SoundDuration":265684,"Delta":114057548},{"NoteNumber":51,"Velocity":34,"Duration":267660,"SoundDuration":267660,"Delta":114323233},{"NoteNumber":55,"Velocity":31,"Duration":269664,"SoundDuration":269664,"Delta":114590893},{"NoteNumber":58,"Velocity":36,"Duration":1085971,"SoundDuration":1085971,"Delta":114860558},{"NoteNumber":89,"Velocity":34,"Duration":90497,"SoundDuration":90497,"Delta":115403544},{"NoteNumber":91,"Velocity":33,"Duration":90497,"SoundDuration":90497,"Delta":115494041},{"NoteNumber":89,"Velocity":33,"Duration":90497,"SoundDuration":90497,"Delta":115584539},{"NoteNumber":87,"Velocity":32,"Duration":90497,"SoundDuration":90497,"Delta":115675037},{"NoteNumber":84,"Velocity":31,"Duration":90497,"SoundDuration":90497,"Delta":115765534},{"NoteNumber":82,"Velocity":31,"Duration":90497,"SoundDuration":90497,"Delta":115856032},{"NoteNumber":79,"Velocity":35,"Duration":1085971,"SoundDuration":1085971,"Delta":115946530},{"NoteNumber":71,"Velocity":34,"Duration":1212121,"SoundDuration":1212121,"Delta":117032502},{"NoteNumber":77,"Velocity":34,"Duration":1212121,"SoundDuration":1212121,"Delta":117032502},{"NoteNumber":75,"Velocity":34,"Duration":1212121,"SoundDuration":1212121,"Delta":117032502},{"NoteNumber":63,"Velocity":30,"Duration":1212121,"SoundDuration":1212121,"Delta":117032502},{"NoteNumber":56,"Velocity":30,"Duration":1212121,"SoundDuration":1212121,"Delta":117032502},{"NoteNumber":99,"Velocity":37,"Duration":2424244,"SoundDuration":2424244,"Delta":118244624},{"NoteNumber":94,"Velocity":31,"Duration":2424244,"SoundDuration":2424244,"Delta":118244624},{"NoteNumber":91,"Velocity":31,"Duration":2424244,"SoundDuration":2424244,"Delta":118244624},{"NoteNumber":87,"Velocity":31,"Duration":2424244,"SoundDuration":2424244,"Delta":118244624},{"NoteNumber":27,"Velocity":19,"Duration":2424244,"SoundDuration":2424244,"Delta":118244624},{"NoteNumber":39,"Velocity":23,"Duration":2424244,"SoundDuration":2424244,"Delta":118244624}]}