{"title":"Cataluña","artist":"Albéniz","durationMs":236475,"midiSha256":"ce3586406170bce68cb26b4b416ca606c8570e1e7c211c4266c09b327b073a9d","midiObject":[{"NoteNumber":62,"Velocity":74,"Duration":6184252,"SoundDuration":6184252,"Delta":0},{"NoteNumber":61,"Velocity":69,"Duration":860230,"SoundDuration":860230,"Delta":859681},{"NoteNumber":60,"Velocity":64,"Duration":4464340,"SoundDuration":4464340,"Delta":1719912},{"NoteNumber":57,"Velocity":61,"Duration":3585763,"SoundDuration":3585763,"Delta":2598488},{"NoteNumber":54,"Velocity":57,"Duration":2683945,"SoundDuration":2683945,"Delta":3500306},{"NoteNumber":50,"Velocity":45,"Duration":840549,"SoundDuration":840549,"Delta":4417270},{"NoteNumber":53,"Velocity":39,"Duration":76413,"SoundDuration":76413,"Delta":5257820},{"NoteNumber":51,"Velocity":49,"Duration":850018,"SoundDuration":850018,"Delta":5334233},{"NoteNumber":62,"Velocity":53,"Duration":376348,"SoundDuration":376348,"Delta":6184252},{"NoteNumber":50,"Velocity":48,"Duration":765859,"SoundDuration":765859,"Delta":6184252},{"NoteNumber":62,"Velocity":53,"Duration":125449,"SoundDuration":125449,"Delta":6560600},{"NoteNumber":62,"Velocity":53,"Duration":264061,"SoundDuration":264061,"Delta":6686050},{"NoteNumber":67,"Velocity":56,"Duration":501629,"SoundDuration":501629,"Delta":6950111},{"NoteNumber":58,"Velocity":47,"Duration":501629,"SoundDuration":501629,"Delta":6950111},{"NoteNumber":62,"Velocity":47,"Duration":501629,"SoundDuration":501629,"Delta":6950111},{"NoteNumber":50,"Velocity":40,"Duration":760876,"SoundDuration":760876,"Delta":6950111},{"NoteNumber":43,"Velocity":34,"Duration":760876,"SoundDuration":760876,"Delta":6950111},{"NoteNumber":55,"Velocity":40,"Duration":760876,"SoundDuration":760876,"Delta":6950111},{"NoteNumber":69,"Velocity":53,"Duration":259246,"SoundDuration":259246,"Delta":7451741},{"NoteNumber":66,"Velocity":50,"Duration":508732,"SoundDuration":508732,"Delta":7710988},{"NoteNumber":63,"Velocity":51,"Duration":508732,"SoundDuration":508732,"Delta":7710988},{"NoteNumber":70,"Velocity":60,"Duration":508732,"SoundDuration":508732,"Delta":7710988},{"NoteNumber":43,"Velocity":38,"Duration":767375,"SoundDuration":767375,"Delta":7710988},{"NoteNumber":60,"Velocity":47,"Duration":767375,"SoundDuration":767375,"Delta":7710988},{"NoteNumber":69,"Velocity":52,"Duration":258642,"SoundDuration":258642,"Delta":8219721},{"NoteNumber":62,"Velocity":48,"Duration":528123,"SoundDuration":528123,"Delta":8478364},{"NoteNumber":67,"Velocity":57,"Duration":528123,"SoundDuration":528123,"Delta":8478364},{"NoteNumber":43,"Velocity":35,"Duration":781287,"SoundDuration":781287,"Delta":8478364},{"NoteNumber":58,"Velocity":41,"Duration":781287,"SoundDuration":781287,"Delta":8478364},{"NoteNumber":67,"Velocity":53,"Duration":253164,"SoundDuration":253164,"Delta":9006487},{"NoteNumber":60,"Velocity":53,"Duration":372639,"SoundDuration":372639,"Delta":9259651},{"NoteNumber":62,"Velocity":53,"Duration":372639,"SoundDuration":372639,"Delta":9259651},{"NoteNumber":43,"Velocity":35,"Duration":759527,"SoundDuration":759527,"Delta":9259651},{"NoteNumber":57,"Velocity":41,"Duration":759527,"SoundDuration":759527,"Delta":9259651},{"NoteNumber":50,"Velocity":41,"Duration":759527,"SoundDuration":759527,"Delta":9259651},{"NoteNumber":62,"Velocity":53,"Duration":124213,"SoundDuration":124213,"Delta":9632291},{"NoteNumber":60,"Velocity":53,"Duration":124213,"SoundDuration":124213,"Delta":9632291},{"NoteNumber":60,"Velocity":53,"Duration":262674,"SoundDuration":262674,"Delta":9756504},{"NoteNumber":62,"Velocity":53,"Duration":262674,"SoundDuration":262674,"Delta":9756504},{"NoteNumber":58,"Velocity":47,"Duration":499375,"SoundDuration":499375,"Delta":10019178},{"NoteNumber":67,"Velocity":56,"Duration":499375,"SoundDuration":499375,"Delta":10019178},{"NoteNumber":62,"Velocity":56,"Duration":499375,"SoundDuration":499375,"Delta":10019178},{"NoteNumber":50,"Velocity":40,"Duration":757396,"SoundDuration":757396,"Delta":10019178},{"NoteNumber":43,"Velocity":34,"Duration":757396,"SoundDuration":757396,"Delta":10019178},{"NoteNumber":55,"Velocity":40,"Duration":757396,"SoundDuration":757396,"Delta":10019178},{"NoteNumber":69,"Velocity":53,"Duration":258020,"SoundDuration":258020,"Delta":10518554},{"NoteNumber":63,"Velocity":60,"Duration":506885,"SoundDuration":506885,"Delta":10776574},{"NoteNumber":66,"Velocity":51,"Duration":506885,"SoundDuration":506885,"Delta":10776574},{"NoteNumber":70,"Velocity":60,"Duration":506885,"SoundDuration":506885,"Delta":10776574},{"NoteNumber":60,"Velocity":47,"Duration":772324,"SoundDuration":772324,"Delta":10776574},{"NoteNumber":43,"Velocity":38,"Duration":772324,"SoundDuration":772324,"Delta":10776574},{"NoteNumber":69,"Velocity":51,"Duration":265439,"SoundDuration":265439,"Delta":11283459},{"NoteNumber":62,"Velocity":41,"Duration":533713,"SoundDuration":533713,"Delta":11548899},{"NoteNumber":67,"Velocity":57,"Duration":533713,"SoundDuration":533713,"Delta":11548899},{"NoteNumber":43,"Velocity":35,"Duration":792959,"SoundDuration":792959,"Delta":11548899},{"NoteNumber":58,"Velocity":41,"Duration":790799,"SoundDuration":790799,"Delta":11548899},{"NoteNumber":67,"Velocity":53,"Duration":259246,"SoundDuration":259246,"Delta":12082612},{"NoteNumber":58,"Velocity":53,"Duration":385473,"SoundDuration":385473,"Delta":12341858},{"NoteNumber":62,"Velocity":53,"Duration":385473,"SoundDuration":385473,"Delta":12341858},{"NoteNumber":54,"Velocity":41,"Duration":791602,"SoundDuration":791602,"Delta":12341858},{"NoteNumber":42,"Velocity":35,"Duration":791602,"SoundDuration":791602,"Delta":12341858},{"NoteNumber":58,"Velocity":53,"Duration":132030,"SoundDuration":132030,"Delta":12727332},{"NoteNumber":62,"Velocity":53,"Duration":132030,"SoundDuration":132030,"Delta":12727332},{"NoteNumber":62,"Velocity":53,"Duration":274098,"SoundDuration":274098,"Delta":12859362},{"NoteNumber":58,"Velocity":53,"Duration":274098,"SoundDuration":274098,"Delta":12859362},{"NoteNumber":58,"Velocity":60,"Duration":528681,"SoundDuration":528681,"Delta":13133460},{"NoteNumber":65,"Velocity":60,"Duration":528681,"SoundDuration":528681,"Delta":13133460},{"NoteNumber":41,"Velocity":39,"Duration":1626419,"SoundDuration":1626419,"Delta":13133460},{"NoteNumber":50,"Velocity":48,"Duration":816865,"SoundDuration":816865,"Delta":13133460},{"NoteNumber":65,"Velocity":58,"Duration":288184,"SoundDuration":288184,"Delta":13662141},{"NoteNumber":57,"Velocity":58,"Duration":528681,"SoundDuration":528681,"Delta":13950326},{"NoteNumber":65,"Velocity":58,"Duration":528681,"SoundDuration":528681,"Delta":13950326},{"NoteNumber":51,"Velocity":42,"Duration":809553,"SoundDuration":809553,"Delta":13950326},{"NoteNumber":62,"Velocity":57,"Duration":280872,"SoundDuration":280872,"Delta":14479007},{"NoteNumber":53,"Velocity":61,"Duration":536528,"SoundDuration":536528,"Delta":14759879},{"NoteNumber":58,"Velocity":61,"Duration":536528,"SoundDuration":536528,"Delta":14759879},{"NoteNumber":46,"Velocity":48,"Duration":804793,"SoundDuration":804793,"Delta":14759879},{"NoteNumber":50,"Velocity":48,"Duration":804793,"SoundDuration":804793,"Delta":14759879},{"NoteNumber":58,"Velocity":62,"Duration":268264,"SoundDuration":268264,"Delta":15296408},{"NoteNumber":58,"Velocity":59,"Duration":395326,"SoundDuration":395326,"Delta":15564673},{"NoteNumber":55,"Velocity":59,"Duration":804243,"SoundDuration":804243,"Delta":15564673},{"NoteNumber":39,"Velocity":39,"Duration":804243,"SoundDuration":804243,"Delta":15564673},{"NoteNumber":46,"Velocity":48,"Duration":804243,"SoundDuration":804243,"Delta":15564673},{"NoteNumber":58,"Velocity":59,"Duration":134819,"SoundDuration":134819,"Delta":15959999},{"NoteNumber":60,"Velocity":53,"Duration":274097,"SoundDuration":274097,"Delta":16094818},{"NoteNumber":53,"Velocity":49,"Duration":819818,"SoundDuration":819818,"Delta":16368916},{"NoteNumber":62,"Velocity":49,"Duration":819818,"SoundDuration":819818,"Delta":16368916},{"NoteNumber":58,"Velocity":49,"Duration":819818,"SoundDuration":819818,"Delta":16368916},{"NoteNumber":34,"Velocity":36,"Duration":819818,"SoundDuration":819818,"Delta":16368916},{"NoteNumber":46,"Velocity":42,"Duration":819818,"SoundDuration":819818,"Delta":16368916},{"NoteNumber":54,"Velocity":46,"Duration":799714,"SoundDuration":799714,"Delta":17188735},{"NoteNumber":58,"Velocity":55,"Duration":392791,"SoundDuration":392791,"Delta":17188735},{"NoteNumber":39,"Velocity":48,"Duration":799714,"SoundDuration":799714,"Delta":17188735},{"NoteNumber":46,"Velocity":48,"Duration":799714,"SoundDuration":799714,"Delta":17188735},{"NoteNumber":58,"Velocity":50,"Duration":132825,"SoundDuration":132825,"Delta":17581526},{"NoteNumber":60,"Velocity":56,"Duration":274097,"SoundDuration":274097,"Delta":17714352},{"NoteNumber":62,"Velocity":57,"Duration":516040,"SoundDuration":516040,"Delta":17988450},{"NoteNumber":53,"Velocity":48,"Duration":516040,"SoundDuration":516040,"Delta":17988450},{"NoteNumber":58,"Velocity":57,"Duration":516040,"SoundDuration":516040,"Delta":17988450},{"NoteNumber":34,"Velocity":38,"Duration":784328,"SoundDuration":784328,"Delta":17988450},{"NoteNumber":46,"Velocity":46,"Duration":784328,"SoundDuration":784328,"Delta":17988450},{"NoteNumber":65,"Velocity":60,"Duration":268288,"SoundDuration":268288,"Delta":18504490},{"NoteNumber":63,"Velocity":66,"Duration":521014,"SoundDuration":521014,"Delta":18772779},{"NoteNumber":57,"Velocity":56,"Duration":521014,"SoundDuration":521014,"Delta":18772779},{"NoteNumber":67,"Velocity":66,"Duration":521014,"SoundDuration":521014,"Delta":18772779},{"NoteNumber":48,"Velocity":46,"Duration":786453,"SoundDuration":786453,"Delta":18772779},{"NoteNumber":41,"Velocity":38,"Duration":786453,"SoundDuration":786453,"Delta":18772779},{"NoteNumber":65,"Velocity":56,"Duration":265439,"SoundDuration":265439,"Delta":19293793},{"NoteNumber":62,"Velocity":58,"Duration":548196,"SoundDuration":548196,"Delta":19559232},{"NoteNumber":53,"Velocity":49,"Duration":548196,"SoundDuration":548196,"Delta":19559232},{"NoteNumber":58,"Velocity":52,"Duration":548196,"SoundDuration":548196,"Delta":19559232},{"NoteNumber":46,"Velocity":48,"Duration":846140,"SoundDuration":846140,"Delta":19559232},{"NoteNumber":60,"Velocity":52,"Duration":297944,"SoundDuration":297944,"Delta":20107428},{"NoteNumber":55,"Velocity":49,"Duration":578488,"SoundDuration":578488,"Delta":20405372},{"NoteNumber":58,"Velocity":49,"Duration":431155,"SoundDuration":431155,"Delta":20405372},{"NoteNumber":39,"Velocity":33,"Duration":578488,"SoundDuration":578488,"Delta":20405372},{"NoteNumber":51,"Velocity":39,"Duration":578488,"SoundDuration":578488,"Delta":20405372},{"NoteNumber":58,"Velocity":48,"Duration":147333,"SoundDuration":147333,"Delta":20836527},{"NoteNumber":60,"Velocity":41,"Duration":298418,"SoundDuration":298418,"Delta":20983861},{"NoteNumber":55,"Velocity":41,"Duration":298418,"SoundDuration":298418,"Delta":20983861},{"NoteNumber":45,"Velocity":37,"Duration":298418,"SoundDuration":298418,"Delta":20983861},{"NoteNumber":57,"Velocity":40,"Duration":2402977,"SoundDuration":2402977,"Delta":21282279},{"NoteNumber":54,"Velocity":36,"Duration":2402977,"SoundDuration":2402977,"Delta":21282279},{"NoteNumber":62,"Velocity":49,"Duration":2402977,"SoundDuration":2402977,"Delta":21282279},{"NoteNumber":38,"Velocity":31,"Duration":2402977,"SoundDuration":2402977,"Delta":21282279},{"NoteNumber":50,"Velocity":38,"Duration":2402977,"SoundDuration":2402977,"Delta":21282279},{"NoteNumber":74,"Velocity":53,"Duration":376348,"SoundDuration":376348,"Delta":23685256},{"NoteNumber":74,"Velocity":53,"Duration":125449,"SoundDuration":125449,"Delta":24061605},{"NoteNumber":74,"Velocity":53,"Duration":264061,"SoundDuration":264061,"Delta":24187054},{"NoteNumber":74,"Velocity":47,"Duration":503989,"SoundDuration":503989,"Delta":24451116},{"NoteNumber":70,"Velocity":47,"Duration":503989,"SoundDuration":503989,"Delta":24451116},{"NoteNumber":79,"Velocity":56,"Duration":503989,"SoundDuration":503989,"Delta":24451116},{"NoteNumber":55,"Velocity":34,"Duration":763236,"SoundDuration":763236,"Delta":24451116},{"NoteNumber":67,"Velocity":40,"Duration":763236,"SoundDuration":763236,"Delta":24451116},{"NoteNumber":62,"Velocity":40,"Duration":763236,"SoundDuration":763236,"Delta":24451116},{"NoteNumber":81,"Velocity":53,"Duration":259246,"SoundDuration":259246,"Delta":24955106},{"NoteNumber":75,"Velocity":47,"Duration":508732,"SoundDuration":508732,"Delta":25214352},{"NoteNumber":78,"Velocity":51,"Duration":508732,"SoundDuration":508732,"Delta":25214352},{"NoteNumber":82,"Velocity":60,"Duration":508732,"SoundDuration":508732,"Delta":25214352},{"NoteNumber":55,"Velocity":36,"Duration":767375,"SoundDuration":767375,"Delta":25214352},{"NoteNumber":72,"Velocity":44,"Duration":767375,"SoundDuration":767375,"Delta":25214352},{"NoteNumber":81,"Velocity":51,"Duration":258642,"SoundDuration":258642,"Delta":25723085},{"NoteNumber":74,"Velocity":48,"Duration":528123,"SoundDuration":528123,"Delta":25981728},{"NoteNumber":79,"Velocity":57,"Duration":528123,"SoundDuration":528123,"Delta":25981728},{"NoteNumber":55,"Velocity":35,"Duration":781287,"SoundDuration":781287,"Delta":25981728},{"NoteNumber":70,"Velocity":41,"Duration":781287,"SoundDuration":781287,"Delta":25981728},{"NoteNumber":79,"Velocity":53,"Duration":253164,"SoundDuration":253164,"Delta":26509851},{"NoteNumber":72,"Velocity":53,"Duration":372639,"SoundDuration":372639,"Delta":26763016},{"NoteNumber":74,"Velocity":53,"Duration":372639,"SoundDuration":372639,"Delta":26763016},{"NoteNumber":62,"Velocity":41,"Duration":759527,"SoundDuration":759527,"Delta":26763016},{"NoteNumber":69,"Velocity":41,"Duration":759527,"SoundDuration":759527,"Delta":26763016},{"NoteNumber":55,"Velocity":35,"Duration":759527,"SoundDuration":759527,"Delta":26763016},{"NoteNumber":72,"Velocity":53,"Duration":124213,"SoundDuration":124213,"Delta":27135655},{"NoteNumber":74,"Velocity":53,"Duration":124213,"SoundDuration":124213,"Delta":27135655},{"NoteNumber":74,"Velocity":53,"Duration":262674,"SoundDuration":262674,"Delta":27259869},{"NoteNumber":72,"Velocity":53,"Duration":262674,"SoundDuration":262674,"Delta":27259869},{"NoteNumber":79,"Velocity":56,"Duration":499376,"SoundDuration":499376,"Delta":27522543},{"NoteNumber":74,"Velocity":56,"Duration":499376,"SoundDuration":499376,"Delta":27522543},{"NoteNumber":70,"Velocity":47,"Duration":499376,"SoundDuration":499376,"Delta":27522543},{"NoteNumber":55,"Velocity":34,"Duration":757396,"SoundDuration":757396,"Delta":27522543},{"NoteNumber":67,"Velocity":40,"Duration":757396,"SoundDuration":757396,"Delta":27522543},{"NoteNumber":62,"Velocity":40,"Duration":757396,"SoundDuration":757396,"Delta":27522543},{"NoteNumber":81,"Velocity":53,"Duration":258019,"SoundDuration":258019,"Delta":28021919},{"NoteNumber":78,"Velocity":52,"Duration":506885,"SoundDuration":506885,"Delta":28279939},{"NoteNumber":75,"Velocity":52,"Duration":506885,"SoundDuration":506885,"Delta":28279939},{"NoteNumber":82,"Velocity":60,"Duration":506885,"SoundDuration":506885,"Delta":28279939},{"NoteNumber":55,"Velocity":33,"Duration":772324,"SoundDuration":772324,"Delta":28279939},{"NoteNumber":72,"Velocity":44,"Duration":772324,"SoundDuration":772324,"Delta":28279939},{"NoteNumber":81,"Velocity":51,"Duration":265439,"SoundDuration":265439,"Delta":28786824},{"NoteNumber":74,"Velocity":57,"Duration":533712,"SoundDuration":533712,"Delta":29052263},{"NoteNumber":79,"Velocity":57,"Duration":533712,"SoundDuration":533712,"Delta":29052263},{"NoteNumber":55,"Velocity":35,"Duration":792959,"SoundDuration":792959,"Delta":29052263},{"NoteNumber":70,"Velocity":41,"Duration":790799,"SoundDuration":790799,"Delta":29052263},{"NoteNumber":79,"Velocity":53,"Duration":259246,"SoundDuration":259246,"Delta":29585976},{"NoteNumber":70,"Velocity":53,"Duration":385473,"SoundDuration":385473,"Delta":29845223},{"NoteNumber":74,"Velocity":53,"Duration":385473,"SoundDuration":385473,"Delta":29845223},{"NoteNumber":66,"Velocity":41,"Duration":791601,"SoundDuration":791601,"Delta":29845223},{"NoteNumber":54,"Velocity":35,"Duration":791601,"SoundDuration":791601,"Delta":29845223},{"NoteNumber":74,"Velocity":53,"Duration":132030,"SoundDuration":132030,"Delta":30230696},{"NoteNumber":70,"Velocity":53,"Duration":132030,"SoundDuration":132030,"Delta":30230696},{"NoteNumber":70,"Velocity":53,"Duration":274097,"SoundDuration":274097,"Delta":30362727},{"NoteNumber":74,"Velocity":53,"Duration":274097,"SoundDuration":274097,"Delta":30362727},{"NoteNumber":70,"Velocity":60,"Duration":528680,"SoundDuration":528680,"Delta":30636825},{"NoteNumber":77,"Velocity":60,"Duration":528680,"SoundDuration":528680,"Delta":30636825},{"NoteNumber":53,"Velocity":36,"Duration":1626418,"SoundDuration":1626418,"Delta":30636825},{"NoteNumber":62,"Velocity":48,"Duration":816865,"SoundDuration":816865,"Delta":30636825},{"NoteNumber":77,"Velocity":55,"Duration":288184,"SoundDuration":288184,"Delta":31165506},{"NoteNumber":69,"Velocity":51,"Duration":528680,"SoundDuration":528680,"Delta":31453690},{"NoteNumber":77,"Velocity":58,"Duration":528680,"SoundDuration":528680,"Delta":31453690},{"NoteNumber":63,"Velocity":42,"Duration":809553,"SoundDuration":809553,"Delta":31453690},{"NoteNumber":70,"Velocity":61,"Duration":280872,"SoundDuration":280872,"Delta":31982371},{"NoteNumber":65,"Velocity":55,"Duration":536529,"SoundDuration":536529,"Delta":32263244},{"NoteNumber":70,"Velocity":61,"Duration":536529,"SoundDuration":536529,"Delta":32263244},{"NoteNumber":62,"Velocity":48,"Duration":804793,"SoundDuration":804793,"Delta":32263244},{"NoteNumber":58,"Velocity":48,"Duration":804793,"SoundDuration":804793,"Delta":32263244},{"NoteNumber":70,"Velocity":62,"Duration":268264,"SoundDuration":268264,"Delta":32799773},{"NoteNumber":67,"Velocity":59,"Duration":804243,"SoundDuration":804243,"Delta":33068037},{"NoteNumber":70,"Velocity":59,"Duration":395326,"SoundDuration":395326,"Delta":33068037},{"NoteNumber":63,"Velocity":48,"Duration":804243,"SoundDuration":804243,"Delta":33068037},{"NoteNumber":51,"Velocity":39,"Duration":804243,"SoundDuration":804243,"Delta":33068037},{"NoteNumber":70,"Velocity":59,"Duration":134819,"SoundDuration":134819,"Delta":33463363},{"NoteNumber":72,"Velocity":58,"Duration":274098,"SoundDuration":274098,"Delta":33598183},{"NoteNumber":65,"Velocity":49,"Duration":819818,"SoundDuration":819818,"Delta":33872281},{"NoteNumber":74,"Velocity":49,"Duration":819818,"SoundDuration":819818,"Delta":33872281},{"NoteNumber":70,"Velocity":49,"Duration":819818,"SoundDuration":819818,"Delta":33872281},{"NoteNumber":46,"Velocity":36,"Duration":819818,"SoundDuration":819818,"Delta":33872281},{"NoteNumber":58,"Velocity":42,"Duration":819818,"SoundDuration":819818,"Delta":33872281},{"NoteNumber":66,"Velocity":46,"Duration":799714,"SoundDuration":799714,"Delta":34692099},{"NoteNumber":70,"Velocity":55,"Duration":392791,"SoundDuration":392791,"Delta":34692099},{"NoteNumber":51,"Velocity":48,"Duration":799714,"SoundDuration":799714,"Delta":34692099},{"NoteNumber":58,"Velocity":48,"Duration":799714,"SoundDuration":799714,"Delta":34692099},{"NoteNumber":70,"Velocity":50,"Duration":132825,"SoundDuration":132825,"Delta":35084891},{"NoteNumber":72,"Velocity":56,"Duration":274098,"SoundDuration":274098,"Delta":35217716},{"NoteNumber":74,"Velocity":57,"Duration":516039,"SoundDuration":516039,"Delta":35491814},{"NoteNumber":65,"Velocity":48,"Duration":516039,"SoundDuration":516039,"Delta":35491814},{"NoteNumber":70,"Velocity":57,"Duration":516039,"SoundDuration":516039,"Delta":35491814},{"NoteNumber":46,"Velocity":38,"Duration":784328,"SoundDuration":784328,"Delta":35491814},{"NoteNumber":58,"Velocity":46,"Duration":784328,"SoundDuration":784328,"Delta":35491814},{"NoteNumber":77,"Velocity":57,"Duration":268288,"SoundDuration":268288,"Delta":36007854},{"NoteNumber":75,"Velocity":56,"Duration":521014,"SoundDuration":521014,"Delta":36276143},{"NoteNumber":69,"Velocity":56,"Duration":521014,"SoundDuration":521014,"Delta":36276143},{"NoteNumber":79,"Velocity":66,"Duration":521014,"SoundDuration":521014,"Delta":36276143},{"NoteNumber":53,"Velocity":38,"Duration":786453,"SoundDuration":786453,"Delta":36276143},{"NoteNumber":60,"Velocity":46,"Duration":786453,"SoundDuration":786453,"Delta":36276143},{"NoteNumber":77,"Velocity":56,"Duration":265439,"SoundDuration":265439,"Delta":36797157},{"NoteNumber":74,"Velocity":58,"Duration":548195,"SoundDuration":548195,"Delta":37062596},{"NoteNumber":65,"Velocity":49,"Duration":548195,"SoundDuration":548195,"Delta":37062596},{"NoteNumber":70,"Velocity":58,"Duration":548195,"SoundDuration":548195,"Delta":37062596},{"NoteNumber":58,"Velocity":48,"Duration":846139,"SoundDuration":846139,"Delta":37062596},{"NoteNumber":72,"Velocity":52,"Duration":297944,"SoundDuration":297944,"Delta":37610792},{"NoteNumber":67,"Velocity":49,"Duration":876906,"SoundDuration":876906,"Delta":37908736},{"NoteNumber":70,"Velocity":49,"Duration":431155,"SoundDuration":431155,"Delta":37908736},{"NoteNumber":63,"Velocity":39,"Duration":578488,"SoundDuration":578488,"Delta":37908736},{"NoteNumber":51,"Velocity":33,"Duration":578488,"SoundDuration":578488,"Delta":37908736},{"NoteNumber":70,"Velocity":48,"Duration":147333,"SoundDuration":147333,"Delta":38339892},{"NoteNumber":72,"Velocity":41,"Duration":298418,"SoundDuration":298418,"Delta":38487225},{"NoteNumber":57,"Velocity":37,"Duration":298418,"SoundDuration":298418,"Delta":38487225},{"NoteNumber":74,"Velocity":49,"Duration":2458297,"SoundDuration":2458297,"Delta":38785643},{"NoteNumber":69,"Velocity":40,"Duration":2458297,"SoundDuration":2458297,"Delta":38785643},{"NoteNumber":66,"Velocity":40,"Duration":2458297,"SoundDuration":2458297,"Delta":38785643},{"NoteNumber":50,"Velocity":31,"Duration":2458297,"SoundDuration":2458297,"Delta":38785643},{"NoteNumber":62,"Velocity":38,"Duration":2450699,"SoundDuration":2450699,"Delta":38785643},{"NoteNumber":62,"Velocity":53,"Duration":376348,"SoundDuration":376348,"Delta":41243941},{"NoteNumber":62,"Velocity":53,"Duration":125449,"SoundDuration":125449,"Delta":41620289},{"NoteNumber":62,"Velocity":53,"Duration":264061,"SoundDuration":264061,"Delta":41745739},{"NoteNumber":59,"Velocity":47,"Duration":506329,"SoundDuration":506329,"Delta":42009800},{"NoteNumber":62,"Velocity":47,"Duration":506329,"SoundDuration":506329,"Delta":42009800},{"NoteNumber":65,"Velocity":56,"Duration":506329,"SoundDuration":506329,"Delta":42009800},{"NoteNumber":56,"Velocity":40,"Duration":1532951,"SoundDuration":1532951,"Delta":42009800},{"NoteNumber":43,"Velocity":34,"Duration":1532951,"SoundDuration":1532951,"Delta":42009800},{"NoteNumber":67,"Velocity":54,"Duration":194434,"SoundDuration":194434,"Delta":42516129},{"NoteNumber":70,"Velocity":51,"Duration":64811,"SoundDuration":64811,"Delta":42710564},{"NoteNumber":62,"Velocity":60,"Duration":508732,"SoundDuration":508732,"Delta":42775376},{"NoteNumber":59,"Velocity":51,"Duration":508732,"SoundDuration":508732,"Delta":42775376},{"NoteNumber":68,"Velocity":60,"Duration":508732,"SoundDuration":508732,"Delta":42775376},{"NoteNumber":67,"Velocity":55,"Duration":258642,"SoundDuration":258642,"Delta":43284109},{"NoteNumber":59,"Velocity":48,"Duration":528123,"SoundDuration":528123,"Delta":43542752},{"NoteNumber":62,"Velocity":48,"Duration":528123,"SoundDuration":528123,"Delta":43542752},{"NoteNumber":65,"Velocity":57,"Duration":528123,"SoundDuration":528123,"Delta":43542752},{"NoteNumber":55,"Velocity":41,"Duration":781287,"SoundDuration":781287,"Delta":43542752},{"NoteNumber":43,"Velocity":35,"Duration":1559013,"SoundDuration":1559013,"Delta":43542752},{"NoteNumber":65,"Velocity":53,"Duration":253164,"SoundDuration":253164,"Delta":44070875},{"NoteNumber":56,"Velocity":53,"Duration":777725,"SoundDuration":777725,"Delta":44324039},{"NoteNumber":59,"Velocity":53,"Duration":372639,"SoundDuration":372639,"Delta":44324039},{"NoteNumber":53,"Velocity":41,"Duration":372639,"SoundDuration":372639,"Delta":44324039},{"NoteNumber":60,"Velocity":53,"Duration":124213,"SoundDuration":124213,"Delta":44696679},{"NoteNumber":51,"Velocity":39,"Duration":124213,"SoundDuration":124213,"Delta":44696679},{"NoteNumber":62,"Velocity":53,"Duration":280872,"SoundDuration":280872,"Delta":44820892},{"NoteNumber":50,"Velocity":40,"Duration":280872,"SoundDuration":280872,"Delta":44820892},{"NoteNumber":62,"Velocity":47,"Duration":506329,"SoundDuration":506329,"Delta":45101765},{"NoteNumber":59,"Velocity":47,"Duration":506329,"SoundDuration":506329,"Delta":45101765},{"NoteNumber":65,"Velocity":56,"Duration":506329,"SoundDuration":506329,"Delta":45101765},{"NoteNumber":56,"Velocity":40,"Duration":1532951,"SoundDuration":1532951,"Delta":45101765},{"NoteNumber":43,"Velocity":34,"Duration":1532951,"SoundDuration":1532951,"Delta":45101765},{"NoteNumber":67,"Velocity":58,"Duration":194434,"SoundDuration":194434,"Delta":45608094},{"NoteNumber":70,"Velocity":51,"Duration":64811,"SoundDuration":64811,"Delta":45802529},{"NoteNumber":59,"Velocity":51,"Duration":508732,"SoundDuration":508732,"Delta":45867340},{"NoteNumber":62,"Velocity":53,"Duration":508732,"SoundDuration":508732,"Delta":45867340},{"NoteNumber":68,"Velocity":60,"Duration":508732,"SoundDuration":508732,"Delta":45867340},{"NoteNumber":67,"Velocity":55,"Duration":258642,"SoundDuration":258642,"Delta":46376073},{"NoteNumber":65,"Velocity":57,"Duration":528123,"SoundDuration":528123,"Delta":46634716},{"NoteNumber":59,"Velocity":48,"Duration":528123,"SoundDuration":528123,"Delta":46634716},{"NoteNumber":62,"Velocity":48,"Duration":528123,"SoundDuration":528123,"Delta":46634716},{"NoteNumber":56,"Velocity":41,"Duration":780892,"SoundDuration":780892,"Delta":46634716},{"NoteNumber":43,"Velocity":35,"Duration":717996,"SoundDuration":717996,"Delta":46634716},{"NoteNumber":65,"Velocity":53,"Duration":252769,"SoundDuration":252769,"Delta":47162839},{"NoteNumber":43,"Velocity":66,"Duration":843325,"SoundDuration":843325,"Delta":47352713},{"NoteNumber":74,"Velocity":67,"Duration":372639,"SoundDuration":372639,"Delta":47415609},{"NoteNumber":67,"Velocity":67,"Duration":372639,"SoundDuration":372639,"Delta":47415609},{"NoteNumber":77,"Velocity":79,"Duration":372639,"SoundDuration":372639,"Delta":47415609},{"NoteNumber":79,"Velocity":79,"Duration":372639,"SoundDuration":372639,"Delta":47415609},{"NoteNumber":59,"Velocity":62,"Duration":372639,"SoundDuration":372639,"Delta":47415609},{"NoteNumber":70,"Velocity":61,"Duration":126917,"SoundDuration":126917,"Delta":47788249},{"NoteNumber":79,"Velocity":72,"Duration":126917,"SoundDuration":126917,"Delta":47788249},{"NoteNumber":67,"Velocity":61,"Duration":126917,"SoundDuration":126917,"Delta":47788249},{"NoteNumber":77,"Velocity":72,"Duration":126917,"SoundDuration":126917,"Delta":47788249},{"NoteNumber":61,"Velocity":55,"Duration":126917,"SoundDuration":126917,"Delta":47788249},{"NoteNumber":77,"Velocity":72,"Duration":280872,"SoundDuration":280872,"Delta":47915166},{"NoteNumber":79,"Velocity":72,"Duration":280872,"SoundDuration":280872,"Delta":47915166},{"NoteNumber":71,"Velocity":61,"Duration":280872,"SoundDuration":280872,"Delta":47915166},{"NoteNumber":67,"Velocity":61,"Duration":280872,"SoundDuration":280872,"Delta":47915166},{"NoteNumber":62,"Velocity":57,"Duration":280872,"SoundDuration":280872,"Delta":47915166},{"NoteNumber":87,"Velocity":70,"Duration":506329,"SoundDuration":506329,"Delta":48196038},{"NoteNumber":91,"Velocity":84,"Duration":506329,"SoundDuration":506329,"Delta":48196038},{"NoteNumber":79,"Velocity":70,"Duration":506329,"SoundDuration":506329,"Delta":48196038},{"NoteNumber":84,"Velocity":70,"Duration":506329,"SoundDuration":506329,"Delta":48196038},{"NoteNumber":36,"Velocity":69,"Duration":506329,"SoundDuration":506329,"Delta":48196038},{"NoteNumber":48,"Velocity":69,"Duration":506329,"SoundDuration":506329,"Delta":48196038},{"NoteNumber":75,"Velocity":68,"Duration":268288,"SoundDuration":268288,"Delta":48702367},{"NoteNumber":79,"Velocity":68,"Duration":268288,"SoundDuration":268288,"Delta":48702367},{"NoteNumber":87,"Velocity":81,"Duration":268288,"SoundDuration":268288,"Delta":48702367},{"NoteNumber":60,"Velocity":50,"Duration":268288,"SoundDuration":268288,"Delta":48702367},{"NoteNumber":72,"Velocity":60,"Duration":268288,"SoundDuration":268288,"Delta":48702367},{"NoteNumber":67,"Velocity":50,"Duration":268288,"SoundDuration":268288,"Delta":48702367},{"NoteNumber":79,"Velocity":72,"Duration":369336,"SoundDuration":369336,"Delta":48970656},{"NoteNumber":75,"Velocity":72,"Duration":369336,"SoundDuration":369336,"Delta":48970656},{"NoteNumber":87,"Velocity":85,"Duration":369336,"SoundDuration":369336,"Delta":48970656},{"NoteNumber":67,"Velocity":53,"Duration":369336,"SoundDuration":369336,"Delta":48970656},{"NoteNumber":72,"Velocity":64,"Duration":369336,"SoundDuration":369336,"Delta":48970656},{"NoteNumber":60,"Velocity":53,"Duration":369336,"SoundDuration":369336,"Delta":48970656},{"NoteNumber":74,"Velocity":67,"Duration":123112,"SoundDuration":123112,"Delta":49339993},{"NoteNumber":79,"Velocity":67,"Duration":123112,"SoundDuration":123112,"Delta":49339993},{"NoteNumber":86,"Velocity":79,"Duration":123112,"SoundDuration":123112,"Delta":49339993},{"NoteNumber":67,"Velocity":52,"Duration":123112,"SoundDuration":123112,"Delta":49339993},{"NoteNumber":60,"Velocity":52,"Duration":123112,"SoundDuration":123112,"Delta":49339993},{"NoteNumber":72,"Velocity":62,"Duration":123112,"SoundDuration":123112,"Delta":49339993},{"NoteNumber":84,"Velocity":79,"Duration":255580,"SoundDuration":255580,"Delta":49463105},{"NoteNumber":79,"Velocity":67,"Duration":255580,"SoundDuration":255580,"Delta":49463105},{"NoteNumber":72,"Velocity":67,"Duration":255580,"SoundDuration":255580,"Delta":49463105},{"NoteNumber":67,"Velocity":62,"Duration":255580,"SoundDuration":255580,"Delta":49463105},{"NoteNumber":60,"Velocity":52,"Duration":255580,"SoundDuration":255580,"Delta":49463105},{"NoteNumber":77,"Velocity":72,"Duration":369336,"SoundDuration":369336,"Delta":49718685},{"NoteNumber":74,"Velocity":72,"Duration":369336,"SoundDuration":369336,"Delta":49718685},{"NoteNumber":86,"Velocity":85,"Duration":369336,"SoundDuration":369336,"Delta":49718685},{"NoteNumber":60,"Velocity":53,"Duration":369336,"SoundDuration":369336,"Delta":49718685},{"NoteNumber":71,"Velocity":64,"Duration":369336,"SoundDuration":369336,"Delta":49718685},{"NoteNumber":68,"Velocity":53,"Duration":369336,"SoundDuration":369336,"Delta":49718685},{"NoteNumber":71,"Velocity":62,"Duration":123112,"SoundDuration":123112,"Delta":50088022},{"NoteNumber":74,"Velocity":62,"Duration":123112,"SoundDuration":123112,"Delta":50088022},{"NoteNumber":77,"Velocity":74,"Duration":123112,"SoundDuration":123112,"Delta":50088022},{"NoteNumber":60,"Velocity":49,"Duration":123112,"SoundDuration":123112,"Delta":50088022},{"NoteNumber":68,"Velocity":59,"Duration":123112,"SoundDuration":123112,"Delta":50088022},{"NoteNumber":79,"Velocity":74,"Duration":191684,"SoundDuration":191684,"Delta":50211134},{"NoteNumber":74,"Velocity":62,"Duration":191684,"SoundDuration":191684,"Delta":50211134},{"NoteNumber":71,"Velocity":62,"Duration":191684,"SoundDuration":191684,"Delta":50211134},{"NoteNumber":60,"Velocity":49,"Duration":191684,"SoundDuration":191684,"Delta":50211134},{"NoteNumber":68,"Velocity":59,"Duration":191684,"SoundDuration":191684,"Delta":50211134},{"NoteNumber":82,"Velocity":66,"Duration":67744,"SoundDuration":67744,"Delta":50402819},{"NoteNumber":80,"Velocity":78,"Duration":371631,"SoundDuration":371631,"Delta":50470563},{"NoteNumber":74,"Velocity":64,"Duration":371631,"SoundDuration":371631,"Delta":50470563},{"NoteNumber":71,"Velocity":64,"Duration":371631,"SoundDuration":371631,"Delta":50470563},{"NoteNumber":60,"Velocity":50,"Duration":371631,"SoundDuration":371631,"Delta":50470563},{"NoteNumber":68,"Velocity":61,"Duration":371631,"SoundDuration":371631,"Delta":50470563},{"NoteNumber":79,"Velocity":73,"Duration":125407,"SoundDuration":125407,"Delta":50842195},{"NoteNumber":71,"Velocity":62,"Duration":125407,"SoundDuration":125407,"Delta":50842195},{"NoteNumber":74,"Velocity":62,"Duration":125407,"SoundDuration":125407,"Delta":50842195},{"NoteNumber":68,"Velocity":58,"Duration":125407,"SoundDuration":125407,"Delta":50842195},{"NoteNumber":60,"Velocity":48,"Duration":125407,"SoundDuration":125407,"Delta":50842195},{"NoteNumber":77,"Velocity":69,"Duration":255580,"SoundDuration":255580,"Delta":50967603},{"NoteNumber":74,"Velocity":58,"Duration":255580,"SoundDuration":255580,"Delta":50967603},{"NoteNumber":71,"Velocity":58,"Duration":255580,"SoundDuration":255580,"Delta":50967603},{"NoteNumber":68,"Velocity":55,"Duration":255580,"SoundDuration":255580,"Delta":50967603},{"NoteNumber":60,"Velocity":45,"Duration":255580,"SoundDuration":255580,"Delta":50967603},{"NoteNumber":75,"Velocity":80,"Duration":371631,"SoundDuration":371631,"Delta":51223183},{"NoteNumber":72,"Velocity":66,"Duration":371631,"SoundDuration":371631,"Delta":51223183},{"NoteNumber":67,"Velocity":61,"Duration":371631,"SoundDuration":371631,"Delta":51223183},{"NoteNumber":60,"Velocity":50,"Duration":371631,"SoundDuration":371631,"Delta":51223183},{"NoteNumber":75,"Velocity":62,"Duration":125407,"SoundDuration":125407,"Delta":51594815},{"NoteNumber":72,"Velocity":62,"Duration":125407,"SoundDuration":125407,"Delta":51594815},{"NoteNumber":78,"Velocity":74,"Duration":125407,"SoundDuration":125407,"Delta":51594815},{"NoteNumber":67,"Velocity":57,"Duration":125407,"SoundDuration":125407,"Delta":51594815},{"NoteNumber":60,"Velocity":47,"Duration":125407,"SoundDuration":125407,"Delta":51594815},{"NoteNumber":75,"Velocity":62,"Duration":261780,"SoundDuration":261780,"Delta":51720222},{"NoteNumber":79,"Velocity":74,"Duration":261780,"SoundDuration":261780,"Delta":51720222},{"NoteNumber":72,"Velocity":62,"Duration":261780,"SoundDuration":261780,"Delta":51720222},{"NoteNumber":67,"Velocity":57,"Duration":261780,"SoundDuration":261780,"Delta":51720222},{"NoteNumber":60,"Velocity":47,"Duration":261780,"SoundDuration":261780,"Delta":51720222},{"NoteNumber":75,"Velocity":72,"Duration":369336,"SoundDuration":369336,"Delta":51982002},{"NoteNumber":79,"Velocity":72,"Duration":369336,"SoundDuration":369336,"Delta":51982002},{"NoteNumber":87,"Velocity":85,"Duration":369336,"SoundDuration":369336,"Delta":51982002},{"NoteNumber":67,"Velocity":53,"Duration":369336,"SoundDuration":369336,"Delta":51982002},{"NoteNumber":72,"Velocity":64,"Duration":369336,"SoundDuration":369336,"Delta":51982002},{"NoteNumber":60,"Velocity":53,"Duration":369336,"SoundDuration":369336,"Delta":51982002},{"NoteNumber":79,"Velocity":67,"Duration":123112,"SoundDuration":123112,"Delta":52351339},{"NoteNumber":74,"Velocity":67,"Duration":123112,"SoundDuration":123112,"Delta":52351339},{"NoteNumber":86,"Velocity":79,"Duration":123112,"SoundDuration":123112,"Delta":52351339},{"NoteNumber":60,"Velocity":52,"Duration":123112,"SoundDuration":123112,"Delta":52351339},{"NoteNumber":72,"Velocity":62,"Duration":123112,"SoundDuration":123112,"Delta":52351339},{"NoteNumber":67,"Velocity":52,"Duration":123112,"SoundDuration":123112,"Delta":52351339},{"NoteNumber":79,"Velocity":63,"Duration":255580,"SoundDuration":255580,"Delta":52474451},{"NoteNumber":84,"Velocity":75,"Duration":255580,"SoundDuration":255580,"Delta":52474451},{"NoteNumber":72,"Velocity":63,"Duration":255580,"SoundDuration":255580,"Delta":52474451},{"NoteNumber":60,"Velocity":49,"Duration":255580,"SoundDuration":255580,"Delta":52474451},{"NoteNumber":67,"Velocity":49,"Duration":255580,"SoundDuration":255580,"Delta":52474451},{"NoteNumber":74,"Velocity":72,"Duration":369336,"SoundDuration":369336,"Delta":52730031},{"NoteNumber":77,"Velocity":72,"Duration":369336,"SoundDuration":369336,"Delta":52730031},{"NoteNumber":86,"Velocity":85,"Duration":369336,"SoundDuration":369336,"Delta":52730031},{"NoteNumber":68,"Velocity":53,"Duration":369336,"SoundDuration":369336,"Delta":52730031},{"NoteNumber":71,"Velocity":64,"Duration":369336,"SoundDuration":369336,"Delta":52730031},{"NoteNumber":60,"Velocity":53,"Duration":369336,"SoundDuration":369336,"Delta":52730031},{"NoteNumber":77,"Velocity":74,"Duration":123112,"SoundDuration":123112,"Delta":53099368},{"NoteNumber":74,"Velocity":62,"Duration":123112,"SoundDuration":123112,"Delta":53099368},{"NoteNumber":71,"Velocity":62,"Duration":123112,"SoundDuration":123112,"Delta":53099368},{"NoteNumber":60,"Velocity":49,"Duration":123112,"SoundDuration":123112,"Delta":53099368},{"NoteNumber":68,"Velocity":59,"Duration":123112,"SoundDuration":123112,"Delta":53099368},{"NoteNumber":79,"Velocity":74,"Duration":191684,"SoundDuration":191684,"Delta":53222480},{"NoteNumber":74,"Velocity":62,"Duration":191684,"SoundDuration":191684,"Delta":53222480},{"NoteNumber":71,"Velocity":62,"Duration":191684,"SoundDuration":191684,"Delta":53222480},{"NoteNumber":60,"Velocity":49,"Duration":191684,"SoundDuration":191684,"Delta":53222480},{"NoteNumber":68,"Velocity":59,"Duration":191684,"SoundDuration":191684,"Delta":53222480},{"NoteNumber":82,"Velocity":67,"Duration":67744,"SoundDuration":67744,"Delta":53414165},{"NoteNumber":80,"Velocity":78,"Duration":371631,"SoundDuration":371631,"Delta":53481910},{"NoteNumber":74,"Velocity":64,"Duration":371631,"SoundDuration":371631,"Delta":53481910},{"NoteNumber":71,"Velocity":64,"Duration":371631,"SoundDuration":371631,"Delta":53481910},{"NoteNumber":60,"Velocity":50,"Duration":371631,"SoundDuration":371631,"Delta":53481910},{"NoteNumber":68,"Velocity":61,"Duration":371631,"SoundDuration":371631,"Delta":53481910},{"NoteNumber":79,"Velocity":73,"Duration":125407,"SoundDuration":125407,"Delta":53853542},{"NoteNumber":71,"Velocity":62,"Duration":125407,"SoundDuration":125407,"Delta":53853542},{"NoteNumber":74,"Velocity":62,"Duration":125407,"SoundDuration":125407,"Delta":53853542},{"NoteNumber":68,"Velocity":58,"Duration":125407,"SoundDuration":125407,"Delta":53853542},{"NoteNumber":60,"Velocity":48,"Duration":125407,"SoundDuration":125407,"Delta":53853542},{"NoteNumber":71,"Velocity":62,"Duration":255580,"SoundDuration":255580,"Delta":53978949},{"NoteNumber":77,"Velocity":73,"Duration":255580,"SoundDuration":255580,"Delta":53978949},{"NoteNumber":74,"Velocity":62,"Duration":255580,"SoundDuration":255580,"Delta":53978949},{"NoteNumber":68,"Velocity":58,"Duration":255580,"SoundDuration":255580,"Delta":53978949},{"NoteNumber":60,"Velocity":48,"Duration":255580,"SoundDuration":255580,"Delta":53978949},{"NoteNumber":75,"Velocity":80,"Duration":369336,"SoundDuration":369336,"Delta":54234529},{"NoteNumber":72,"Velocity":66,"Duration":369336,"SoundDuration":369336,"Delta":54234529},{"NoteNumber":60,"Velocity":50,"Duration":747483,"SoundDuration":747483,"Delta":54234529},{"NoteNumber":67,"Velocity":61,"Duration":747483,"SoundDuration":747483,"Delta":54234529},{"NoteNumber":72,"Velocity":62,"Duration":123112,"SoundDuration":123112,"Delta":54603866},{"NoteNumber":75,"Velocity":62,"Duration":123112,"SoundDuration":123112,"Delta":54603866},{"NoteNumber":78,"Velocity":74,"Duration":123112,"SoundDuration":123112,"Delta":54603866},{"NoteNumber":79,"Velocity":74,"Duration":255034,"SoundDuration":255034,"Delta":54726978},{"NoteNumber":75,"Velocity":62,"Duration":255034,"SoundDuration":255034,"Delta":54726978},{"NoteNumber":72,"Velocity":62,"Duration":255034,"SoundDuration":255034,"Delta":54726978},{"NoteNumber":74,"Velocity":68,"Duration":369336,"SoundDuration":369336,"Delta":54982013},{"NoteNumber":79,"Velocity":68,"Duration":369336,"SoundDuration":369336,"Delta":54982013},{"NoteNumber":86,"Velocity":81,"Duration":748574,"SoundDuration":748574,"Delta":54982013},{"NoteNumber":58,"Velocity":50,"Duration":748574,"SoundDuration":748574,"Delta":54982013},{"NoteNumber":67,"Velocity":50,"Duration":748574,"SoundDuration":748574,"Delta":54982013},{"NoteNumber":79,"Velocity":74,"Duration":123813,"SoundDuration":123813,"Delta":55355453},{"NoteNumber":74,"Velocity":74,"Duration":255580,"SoundDuration":255580,"Delta":55470748},{"NoteNumber":79,"Velocity":68,"Duration":372763,"SoundDuration":372763,"Delta":55730587},{"NoteNumber":84,"Velocity":81,"Duration":625220,"SoundDuration":625220,"Delta":55730587},{"NoteNumber":72,"Velocity":68,"Duration":372763,"SoundDuration":372763,"Delta":55730587},{"NoteNumber":57,"Velocity":50,"Duration":1516455,"SoundDuration":1516455,"Delta":55730587},{"NoteNumber":63,"Velocity":50,"Duration":758967,"SoundDuration":758967,"Delta":55730587},{"NoteNumber":79,"Velocity":70,"Duration":124784,"SoundDuration":124784,"Delta":56107493},{"NoteNumber":72,"Velocity":68,"Duration":127789,"SoundDuration":127789,"Delta":56228018},{"NoteNumber":81,"Velocity":62,"Duration":63895,"SoundDuration":63895,"Delta":56355808},{"NoteNumber":84,"Velocity":62,"Duration":69851,"SoundDuration":69851,"Delta":56419703},{"NoteNumber":74,"Velocity":51,"Duration":376222,"SoundDuration":376222,"Delta":56489555},{"NoteNumber":72,"Velocity":51,"Duration":376222,"SoundDuration":376222,"Delta":56489555},{"NoteNumber":78,"Velocity":51,"Duration":376222,"SoundDuration":376222,"Delta":56489555},{"NoteNumber":81,"Velocity":72,"Duration":376222,"SoundDuration":376222,"Delta":56489555},{"NoteNumber":62,"Velocity":50,"Duration":757487,"SoundDuration":757487,"Delta":56489555},{"NoteNumber":79,"Velocity":69,"Duration":125685,"SoundDuration":125685,"Delta":56865777},{"NoteNumber":81,"Velocity":69,"Duration":255579,"SoundDuration":255579,"Delta":56991463},{"NoteNumber":70,"Velocity":68,"Duration":377992,"SoundDuration":377992,"Delta":57247043},{"NoteNumber":82,"Velocity":81,"Duration":765979,"SoundDuration":765979,"Delta":57247043},{"NoteNumber":74,"Velocity":68,"Duration":377992,"SoundDuration":377992,"Delta":57247043},{"NoteNumber":62,"Velocity":50,"Duration":765979,"SoundDuration":765979,"Delta":57247043},{"NoteNumber":55,"Velocity":50,"Duration":1532956,"SoundDuration":1532956,"Delta":57247043},{"NoteNumber":79,"Velocity":74,"Duration":126369,"SoundDuration":126369,"Delta":57629235},{"NoteNumber":74,"Velocity":74,"Duration":261780,"SoundDuration":261780,"Delta":57751242},{"NoteNumber":82,"Velocity":72,"Duration":379746,"SoundDuration":379746,"Delta":58013022},{"NoteNumber":74,"Velocity":72,"Duration":379746,"SoundDuration":379746,"Delta":58013022},{"NoteNumber":79,"Velocity":72,"Duration":379746,"SoundDuration":379746,"Delta":58013022},{"NoteNumber":86,"Velocity":72,"Duration":379746,"SoundDuration":379746,"Delta":58013022},{"NoteNumber":64,"Velocity":50,"Duration":766976,"SoundDuration":766976,"Delta":58013022},{"NoteNumber":79,"Velocity":69,"Duration":126723,"SoundDuration":126723,"Delta":58392768},{"NoteNumber":74,"Velocity":69,"Duration":260506,"SoundDuration":260506,"Delta":58519492},{"NoteNumber":69,"Velocity":57,"Duration":379746,"SoundDuration":379746,"Delta":58779999},{"NoteNumber":74,"Velocity":68,"Duration":379746,"SoundDuration":379746,"Delta":58779999},{"NoteNumber":81,"Velocity":68,"Duration":762049,"SoundDuration":762049,"Delta":58779999},{"NoteNumber":57,"Velocity":50,"Duration":1552627,"SoundDuration":1552627,"Delta":58779999},{"NoteNumber":65,"Velocity":50,"Duration":762049,"SoundDuration":762049,"Delta":58779999},{"NoteNumber":74,"Velocity":74,"Duration":126723,"SoundDuration":126723,"Delta":59159745},{"NoteNumber":69,"Velocity":56,"Duration":255579,"SoundDuration":255579,"Delta":59286468},{"NoteNumber":73,"Velocity":61,"Duration":790577,"SoundDuration":790577,"Delta":59542048},{"NoteNumber":79,"Velocity":61,"Duration":790577,"SoundDuration":790577,"Delta":59542048},{"NoteNumber":81,"Velocity":72,"Duration":390767,"SoundDuration":390767,"Delta":59542048},{"NoteNumber":64,"Velocity":50,"Duration":522289,"SoundDuration":522289,"Delta":59542048},{"NoteNumber":82,"Velocity":69,"Duration":131521,"SoundDuration":131521,"Delta":59932816},{"NoteNumber":81,"Velocity":69,"Duration":268288,"SoundDuration":268288,"Delta":60064337},{"NoteNumber":67,"Velocity":45,"Duration":268288,"SoundDuration":268288,"Delta":60064337},{"NoteNumber":81,"Velocity":67,"Duration":766739,"SoundDuration":766739,"Delta":60332626},{"NoteNumber":86,"Velocity":79,"Duration":766739,"SoundDuration":766739,"Delta":60332626},{"NoteNumber":74,"Velocity":67,"Duration":766739,"SoundDuration":766739,"Delta":60332626},{"NoteNumber":62,"Velocity":53,"Duration":383369,"SoundDuration":383369,"Delta":60332626},{"NoteNumber":66,"Velocity":45,"Duration":766739,"SoundDuration":766739,"Delta":60332626},{"NoteNumber":61,"Velocity":50,"Duration":127789,"SoundDuration":127789,"Delta":60715996},{"NoteNumber":62,"Velocity":50,"Duration":255580,"SoundDuration":255580,"Delta":60843786},{"NoteNumber":62,"Velocity":53,"Duration":766739,"SoundDuration":766739,"Delta":61099366},{"NoteNumber":74,"Velocity":63,"Duration":127790,"SoundDuration":127790,"Delta":61482736},{"NoteNumber":74,"Velocity":63,"Duration":255579,"SoundDuration":255579,"Delta":61610526},{"NoteNumber":75,"Velocity":71,"Duration":379746,"SoundDuration":379746,"Delta":61866106},{"NoteNumber":72,"Velocity":60,"Duration":768249,"SoundDuration":768249,"Delta":61866106},{"NoteNumber":69,"Velocity":60,"Duration":768249,"SoundDuration":768249,"Delta":61866106},{"NoteNumber":67,"Velocity":49,"Duration":1540528,"SoundDuration":1540528,"Delta":61866106},{"NoteNumber":62,"Velocity":49,"Duration":379746,"SoundDuration":379746,"Delta":61866106},{"NoteNumber":79,"Velocity":61,"Duration":126723,"SoundDuration":126723,"Delta":62245853},{"NoteNumber":61,"Velocity":42,"Duration":126723,"SoundDuration":126723,"Delta":62245853},{"NoteNumber":82,"Velocity":61,"Duration":261780,"SoundDuration":261780,"Delta":62372576},{"NoteNumber":62,"Velocity":49,"Duration":261780,"SoundDuration":261780,"Delta":62372576},{"NoteNumber":75,"Velocity":58,"Duration":772278,"SoundDuration":772278,"Delta":62634356},{"NoteNumber":79,"Velocity":58,"Duration":772278,"SoundDuration":772278,"Delta":62634356},{"NoteNumber":86,"Velocity":69,"Duration":377992,"SoundDuration":377992,"Delta":62634356},{"NoteNumber":62,"Velocity":50,"Duration":772278,"SoundDuration":772278,"Delta":62634356},{"NoteNumber":84,"Velocity":63,"Duration":125997,"SoundDuration":125997,"Delta":63012348},{"NoteNumber":79,"Velocity":63,"Duration":268288,"SoundDuration":268288,"Delta":63138346},{"NoteNumber":72,"Velocity":56,"Duration":768249,"SoundDuration":768249,"Delta":63406634},{"NoteNumber":81,"Velocity":71,"Duration":379746,"SoundDuration":379746,"Delta":63406634},{"NoteNumber":74,"Velocity":56,"Duration":768249,"SoundDuration":768249,"Delta":63406634},{"NoteNumber":62,"Velocity":49,"Duration":379746,"SoundDuration":379746,"Delta":63406634},{"NoteNumber":66,"Velocity":49,"Duration":1540528,"SoundDuration":1540528,"Delta":63406634},{"NoteNumber":82,"Velocity":61,"Duration":126723,"SoundDuration":126723,"Delta":63786381},{"NoteNumber":61,"Velocity":42,"Duration":126723,"SoundDuration":126723,"Delta":63786381},{"NoteNumber":81,"Velocity":61,"Duration":261779,"SoundDuration":261779,"Delta":63913104},{"NoteNumber":62,"Velocity":49,"Duration":261779,"SoundDuration":261779,"Delta":63913104},{"NoteNumber":75,"Velocity":58,"Duration":377992,"SoundDuration":377992,"Delta":64174884},{"NoteNumber":78,"Velocity":58,"Duration":377992,"SoundDuration":377992,"Delta":64174884},{"NoteNumber":84,"Velocity":69,"Duration":377992,"SoundDuration":377992,"Delta":64174884},{"NoteNumber":62,"Velocity":50,"Duration":772278,"SoundDuration":772278,"Delta":64174884},{"NoteNumber":74,"Velocity":53,"Duration":125997,"SoundDuration":125997,"Delta":64552877},{"NoteNumber":78,"Velocity":53,"Duration":125997,"SoundDuration":125997,"Delta":64552877},{"NoteNumber":82,"Velocity":63,"Duration":125997,"SoundDuration":125997,"Delta":64552877},{"NoteNumber":72,"Velocity":53,"Duration":268288,"SoundDuration":268288,"Delta":64678874},{"NoteNumber":78,"Velocity":53,"Duration":268288,"SoundDuration":268288,"Delta":64678874},{"NoteNumber":81,"Velocity":63,"Duration":268288,"SoundDuration":268288,"Delta":64678874},{"NoteNumber":70,"Velocity":60,"Duration":385175,"SoundDuration":385175,"Delta":64947163},{"NoteNumber":74,"Velocity":60,"Duration":385175,"SoundDuration":385175,"Delta":64947163},{"NoteNumber":79,"Velocity":71,"Duration":385175,"SoundDuration":385175,"Delta":64947163},{"NoteNumber":62,"Velocity":49,"Duration":385175,"SoundDuration":385175,"Delta":64947163},{"NoteNumber":72,"Velocity":51,"Duration":128321,"SoundDuration":128321,"Delta":65332338},{"NoteNumber":75,"Velocity":51,"Duration":128321,"SoundDuration":128321,"Delta":65332338},{"NoteNumber":81,"Velocity":61,"Duration":128321,"SoundDuration":128321,"Delta":65332338},{"NoteNumber":62,"Velocity":42,"Duration":128321,"SoundDuration":128321,"Delta":65332338},{"NoteNumber":70,"Velocity":51,"Duration":263913,"SoundDuration":263913,"Delta":65460660},{"NoteNumber":74,"Velocity":51,"Duration":263913,"SoundDuration":263913,"Delta":65460660},{"NoteNumber":79,"Velocity":61,"Duration":263913,"SoundDuration":263913,"Delta":65460660},{"NoteNumber":62,"Velocity":49,"Duration":263913,"SoundDuration":263913,"Delta":65460660},{"NoteNumber":69,"Velocity":55,"Duration":388869,"SoundDuration":388869,"Delta":65724573},{"NoteNumber":77,"Velocity":64,"Duration":388869,"SoundDuration":388869,"Delta":65724573},{"NoteNumber":72,"Velocity":55,"Duration":388869,"SoundDuration":388869,"Delta":65724573},{"NoteNumber":62,"Velocity":50,"Duration":786781,"SoundDuration":786781,"Delta":65724573},{"NoteNumber":74,"Velocity":49,"Duration":129623,"SoundDuration":129623,"Delta":66113443},{"NoteNumber":79,"Velocity":58,"Duration":129623,"SoundDuration":129623,"Delta":66113443},{"NoteNumber":70,"Velocity":49,"Duration":129623,"SoundDuration":129623,"Delta":66113443},{"NoteNumber":75,"Velocity":58,"Duration":268288,"SoundDuration":268288,"Delta":66243066},{"NoteNumber":67,"Velocity":49,"Duration":268288,"SoundDuration":268288,"Delta":66243066},{"NoteNumber":70,"Velocity":49,"Duration":268288,"SoundDuration":268288,"Delta":66243066},{"NoteNumber":74,"Velocity":61,"Duration":804865,"SoundDuration":804865,"Delta":66511355},{"NoteNumber":66,"Velocity":51,"Duration":804865,"SoundDuration":804865,"Delta":66511355},{"NoteNumber":69,"Velocity":51,"Duration":804865,"SoundDuration":804865,"Delta":66511355},{"NoteNumber":62,"Velocity":49,"Duration":402432,"SoundDuration":402432,"Delta":66511355},{"NoteNumber":63,"Velocity":39,"Duration":134144,"SoundDuration":134144,"Delta":66913788},{"NoteNumber":62,"Velocity":44,"Duration":268288,"SoundDuration":268288,"Delta":67047932},{"NoteNumber":62,"Velocity":44,"Duration":268288,"SoundDuration":268288,"Delta":67316220},{"NoteNumber":62,"Velocity":47,"Duration":134819,"SoundDuration":134819,"Delta":67719328},{"NoteNumber":62,"Velocity":47,"Duration":269638,"SoundDuration":269638,"Delta":67854147},{"NoteNumber":60,"Velocity":53,"Duration":775276,"SoundDuration":775276,"Delta":68123786},{"NoteNumber":57,"Velocity":53,"Duration":775276,"SoundDuration":775276,"Delta":68123786},{"NoteNumber":63,"Velocity":63,"Duration":385175,"SoundDuration":385175,"Delta":68123786},{"NoteNumber":55,"Velocity":44,"Duration":1552298,"SoundDuration":1552298,"Delta":68123786},{"NoteNumber":50,"Velocity":44,"Duration":385175,"SoundDuration":385175,"Delta":68123786},{"NoteNumber":67,"Velocity":55,"Duration":128321,"SoundDuration":128321,"Delta":68508961},{"NoteNumber":49,"Velocity":38,"Duration":128321,"SoundDuration":128321,"Delta":68508961},{"NoteNumber":70,"Velocity":55,"Duration":261780,"SoundDuration":261780,"Delta":68637283},{"NoteNumber":50,"Velocity":44,"Duration":261780,"SoundDuration":261780,"Delta":68637283},{"NoteNumber":67,"Velocity":51,"Duration":777021,"SoundDuration":777021,"Delta":68899063},{"NoteNumber":63,"Velocity":51,"Duration":777021,"SoundDuration":777021,"Delta":68899063},{"NoteNumber":74,"Velocity":61,"Duration":381549,"SoundDuration":381549,"Delta":68899063},{"NoteNumber":50,"Velocity":45,"Duration":777021,"SoundDuration":777021,"Delta":68899063},{"NoteNumber":72,"Velocity":57,"Duration":127183,"SoundDuration":127183,"Delta":69280612},{"NoteNumber":67,"Velocity":57,"Duration":268288,"SoundDuration":268288,"Delta":69407796},{"NoteNumber":69,"Velocity":63,"Duration":379746,"SoundDuration":379746,"Delta":69676084},{"NoteNumber":62,"Velocity":48,"Duration":768249,"SoundDuration":768249,"Delta":69676084},{"NoteNumber":60,"Velocity":45,"Duration":768249,"SoundDuration":768249,"Delta":69676084},{"NoteNumber":54,"Velocity":44,"Duration":1540528,"SoundDuration":1540528,"Delta":69676084},{"NoteNumber":50,"Velocity":44,"Duration":379746,"SoundDuration":379746,"Delta":69676084},{"NoteNumber":70,"Velocity":55,"Duration":126723,"SoundDuration":126723,"Delta":70055831},{"NoteNumber":49,"Velocity":38,"Duration":126723,"SoundDuration":126723,"Delta":70055831},{"NoteNumber":69,"Velocity":55,"Duration":261780,"SoundDuration":261780,"Delta":70182554},{"NoteNumber":50,"Velocity":44,"Duration":261780,"SoundDuration":261780,"Delta":70182554},{"NoteNumber":66,"Velocity":51,"Duration":772278,"SoundDuration":772278,"Delta":70444334},{"NoteNumber":63,"Velocity":51,"Duration":772278,"SoundDuration":772278,"Delta":70444334},{"NoteNumber":72,"Velocity":61,"Duration":377992,"SoundDuration":377992,"Delta":70444334},{"NoteNumber":50,"Velocity":45,"Duration":772278,"SoundDuration":772278,"Delta":70444334},{"NoteNumber":70,"Velocity":57,"Duration":125997,"SoundDuration":125997,"Delta":70822327},{"NoteNumber":69,"Velocity":57,"Duration":268288,"SoundDuration":268288,"Delta":70948324},{"NoteNumber":67,"Velocity":63,"Duration":390760,"SoundDuration":390760,"Delta":71216613},{"NoteNumber":58,"Velocity":53,"Duration":390760,"SoundDuration":390760,"Delta":71216613},{"NoteNumber":62,"Velocity":53,"Duration":390760,"SoundDuration":390760,"Delta":71216613},{"NoteNumber":50,"Velocity":44,"Duration":390760,"SoundDuration":390760,"Delta":71216613},{"NoteNumber":69,"Velocity":55,"Duration":129966,"SoundDuration":129966,"Delta":71607373},{"NoteNumber":60,"Velocity":46,"Duration":129966,"SoundDuration":129966,"Delta":71607373},{"NoteNumber":63,"Velocity":46,"Duration":129966,"SoundDuration":129966,"Delta":71607373},{"NoteNumber":50,"Velocity":38,"Duration":129966,"SoundDuration":129966,"Delta":71607373},{"NoteNumber":67,"Velocity":55,"Duration":276548,"SoundDuration":276548,"Delta":71737339},{"NoteNumber":58,"Velocity":46,"Duration":276548,"SoundDuration":276548,"Delta":71737339},{"NoteNumber":62,"Velocity":46,"Duration":276548,"SoundDuration":276548,"Delta":71737339},{"NoteNumber":50,"Velocity":44,"Duration":276548,"SoundDuration":276548,"Delta":71737339},{"NoteNumber":65,"Velocity":58,"Duration":400427,"SoundDuration":400427,"Delta":72013888},{"NoteNumber":57,"Velocity":49,"Duration":400427,"SoundDuration":400427,"Delta":72013888},{"NoteNumber":60,"Velocity":49,"Duration":400427,"SoundDuration":400427,"Delta":72013888},{"NoteNumber":50,"Velocity":45,"Duration":822202,"SoundDuration":822202,"Delta":72013888},{"NoteNumber":67,"Velocity":51,"Duration":133475,"SoundDuration":133475,"Delta":72414315},{"NoteNumber":58,"Velocity":42,"Duration":133475,"SoundDuration":133475,"Delta":72414315},{"NoteNumber":62,"Velocity":42,"Duration":133475,"SoundDuration":133475,"Delta":72414315},{"NoteNumber":63,"Velocity":51,"Duration":288299,"SoundDuration":288299,"Delta":72547791},{"NoteNumber":55,"Velocity":42,"Duration":288299,"SoundDuration":288299,"Delta":72547791},{"NoteNumber":58,"Velocity":42,"Duration":288299,"SoundDuration":288299,"Delta":72547791},{"NoteNumber":57,"Velocity":58,"Duration":809824,"SoundDuration":809824,"Delta":72836090},{"NoteNumber":62,"Velocity":58,"Duration":809824,"SoundDuration":809824,"Delta":72836090},{"NoteNumber":54,"Velocity":38,"Duration":809824,"SoundDuration":809824,"Delta":72836090},{"NoteNumber":50,"Velocity":38,"Duration":136178,"SoundDuration":136178,"Delta":72836090},{"NoteNumber":49,"Velocity":38,"Duration":135718,"SoundDuration":135718,"Delta":72972268},{"NoteNumber":50,"Velocity":38,"Duration":135265,"SoundDuration":135265,"Delta":73107987},{"NoteNumber":49,"Velocity":37,"Duration":134819,"SoundDuration":134819,"Delta":73243253},{"NoteNumber":50,"Velocity":38,"Duration":134144,"SoundDuration":134144,"Delta":73378072},{"NoteNumber":49,"Velocity":33,"Duration":133698,"SoundDuration":133698,"Delta":73512216},{"NoteNumber":60,"Velocity":53,"Duration":793198,"SoundDuration":793198,"Delta":73645915},{"NoteNumber":62,"Velocity":53,"Duration":392669,"SoundDuration":392669,"Delta":73645915},{"NoteNumber":54,"Velocity":38,"Duration":793198,"SoundDuration":793198,"Delta":73645915},{"NoteNumber":51,"Velocity":38,"Duration":130889,"SoundDuration":130889,"Delta":73645915},{"NoteNumber":50,"Velocity":33,"Duration":130890,"SoundDuration":130890,"Delta":73776805},{"NoteNumber":49,"Velocity":38,"Duration":130889,"SoundDuration":130889,"Delta":73907695},{"NoteNumber":62,"Velocity":53,"Duration":130890,"SoundDuration":130890,"Delta":74038585},{"NoteNumber":50,"Velocity":34,"Duration":130890,"SoundDuration":130890,"Delta":74038585},{"NoteNumber":62,"Velocity":53,"Duration":269638,"SoundDuration":269638,"Delta":74169475},{"NoteNumber":51,"Velocity":38,"Duration":134819,"SoundDuration":134819,"Delta":74169475},{"NoteNumber":50,"Velocity":30,"Duration":134819,"SoundDuration":134819,"Delta":74304294},{"NoteNumber":58,"Velocity":47,"Duration":517019,"SoundDuration":517019,"Delta":74439113},{"NoteNumber":62,"Velocity":47,"Duration":517019,"SoundDuration":517019,"Delta":74439113},{"NoteNumber":67,"Velocity":56,"Duration":517019,"SoundDuration":517019,"Delta":74439113},{"NoteNumber":55,"Velocity":37,"Duration":129254,"SoundDuration":129254,"Delta":74439113},{"NoteNumber":43,"Velocity":37,"Duration":781756,"SoundDuration":781756,"Delta":74439113},{"NoteNumber":54,"Velocity":40,"Duration":129254,"SoundDuration":129254,"Delta":74568368},{"NoteNumber":53,"Velocity":41,"Duration":129254,"SoundDuration":129254,"Delta":74697623},{"NoteNumber":52,"Velocity":42,"Duration":129254,"SoundDuration":129254,"Delta":74826878},{"NoteNumber":69,"Velocity":56,"Duration":264736,"SoundDuration":264736,"Delta":74956132},{"NoteNumber":51,"Velocity":44,"Duration":132368,"SoundDuration":132368,"Delta":74956132},{"NoteNumber":50,"Velocity":47,"Duration":132368,"SoundDuration":132368,"Delta":75088501},{"NoteNumber":63,"Velocity":51,"Duration":519480,"SoundDuration":519480,"Delta":75220869},{"NoteNumber":66,"Velocity":60,"Duration":519480,"SoundDuration":519480,"Delta":75220869},{"NoteNumber":70,"Velocity":60,"Duration":519480,"SoundDuration":519480,"Delta":75220869},{"NoteNumber":49,"Velocity":47,"Duration":129870,"SoundDuration":129870,"Delta":75220869},{"NoteNumber":50,"Velocity":44,"Duration":129870,"SoundDuration":129870,"Delta":75350740},{"NoteNumber":51,"Velocity":42,"Duration":129870,"SoundDuration":129870,"Delta":75480610},{"NoteNumber":52,"Velocity":41,"Duration":129870,"SoundDuration":129870,"Delta":75610480},{"NoteNumber":69,"Velocity":55,"Duration":264084,"SoundDuration":264084,"Delta":75740350},{"NoteNumber":53,"Velocity":40,"Duration":132042,"SoundDuration":132042,"Delta":75740350},{"NoteNumber":54,"Velocity":40,"Duration":132042,"SoundDuration":132042,"Delta":75872393},{"NoteNumber":58,"Velocity":48,"Duration":539276,"SoundDuration":539276,"Delta":76004435},{"NoteNumber":62,"Velocity":48,"Duration":539276,"SoundDuration":539276,"Delta":76004435},{"NoteNumber":67,"Velocity":57,"Duration":539276,"SoundDuration":539276,"Delta":76004435},{"NoteNumber":43,"Velocity":41,"Duration":797786,"SoundDuration":797786,"Delta":76004435},{"NoteNumber":55,"Velocity":41,"Duration":134819,"SoundDuration":134819,"Delta":76004435},{"NoteNumber":54,"Velocity":36,"Duration":134819,"SoundDuration":134819,"Delta":76139254},{"NoteNumber":55,"Velocity":41,"Duration":134819,"SoundDuration":134819,"Delta":76274073},{"NoteNumber":50,"Velocity":37,"Duration":134819,"SoundDuration":134819,"Delta":76408893},{"NoteNumber":67,"Velocity":53,"Duration":258509,"SoundDuration":258509,"Delta":76543712},{"NoteNumber":49,"Velocity":41,"Duration":129254,"SoundDuration":129254,"Delta":76543712},{"NoteNumber":50,"Velocity":36,"Duration":129254,"SoundDuration":129254,"Delta":76672967},{"NoteNumber":60,"Velocity":53,"Duration":380517,"SoundDuration":380517,"Delta":76802221},{"NoteNumber":62,"Velocity":53,"Duration":380517,"SoundDuration":380517,"Delta":76802221},{"NoteNumber":54,"Velocity":41,"Duration":126839,"SoundDuration":126839,"Delta":76802221},{"NoteNumber":50,"Velocity":40,"Duration":126839,"SoundDuration":126839,"Delta":76929061},{"NoteNumber":49,"Velocity":41,"Duration":126839,"SoundDuration":126839,"Delta":77055900},{"NoteNumber":60,"Velocity":53,"Duration":126839,"SoundDuration":126839,"Delta":77182739},{"NoteNumber":62,"Velocity":53,"Duration":126839,"SoundDuration":126839,"Delta":77182739},{"NoteNumber":50,"Velocity":36,"Duration":126839,"SoundDuration":126839,"Delta":77182739},{"NoteNumber":60,"Velocity":49,"Duration":268216,"SoundDuration":268216,"Delta":77309578},{"NoteNumber":62,"Velocity":49,"Duration":268216,"SoundDuration":268216,"Delta":77309578},{"NoteNumber":51,"Velocity":42,"Duration":134108,"SoundDuration":134108,"Delta":77309578},{"NoteNumber":50,"Velocity":41,"Duration":134108,"SoundDuration":134108,"Delta":77443687},{"NoteNumber":58,"Velocity":47,"Duration":509900,"SoundDuration":509900,"Delta":77577795},{"NoteNumber":62,"Velocity":56,"Duration":509900,"SoundDuration":509900,"Delta":77577795},{"NoteNumber":67,"Velocity":56,"Duration":509900,"SoundDuration":509900,"Delta":77577795},{"NoteNumber":55,"Velocity":37,"Duration":127475,"SoundDuration":127475,"Delta":77577795},{"NoteNumber":43,"Velocity":37,"Duration":773359,"SoundDuration":773359,"Delta":77577795},{"NoteNumber":54,"Velocity":40,"Duration":127475,"SoundDuration":127475,"Delta":77705270},{"NoteNumber":53,"Velocity":42,"Duration":127475,"SoundDuration":127475,"Delta":77832745},{"NoteNumber":52,"Velocity":44,"Duration":127475,"SoundDuration":127475,"Delta":77960221},{"NoteNumber":69,"Velocity":53,"Duration":263458,"SoundDuration":263458,"Delta":78087696},{"NoteNumber":51,"Velocity":44,"Duration":131729,"SoundDuration":131729,"Delta":78087696},{"NoteNumber":50,"Velocity":42,"Duration":131729,"SoundDuration":131729,"Delta":78219425},{"NoteNumber":63,"Velocity":60,"Duration":517554,"SoundDuration":517554,"Delta":78351154},{"NoteNumber":66,"Velocity":60,"Duration":517554,"SoundDuration":517554,"Delta":78351154},{"NoteNumber":70,"Velocity":60,"Duration":517554,"SoundDuration":517554,"Delta":78351154},{"NoteNumber":49,"Velocity":42,"Duration":129388,"SoundDuration":129388,"Delta":78351154},{"NoteNumber":50,"Velocity":41,"Duration":129388,"SoundDuration":129388,"Delta":78480543},{"NoteNumber":51,"Velocity":40,"Duration":129388,"SoundDuration":129388,"Delta":78609931},{"NoteNumber":52,"Velocity":37,"Duration":129388,"SoundDuration":129388,"Delta":78739320},{"NoteNumber":69,"Velocity":52,"Duration":271027,"SoundDuration":271027,"Delta":78868708},{"NoteNumber":53,"Velocity":41,"Duration":135513,"SoundDuration":135513,"Delta":78868708},{"NoteNumber":54,"Velocity":41,"Duration":135513,"SoundDuration":135513,"Delta":79004222},{"NoteNumber":58,"Velocity":43,"Duration":544959,"SoundDuration":544959,"Delta":79139735},{"NoteNumber":62,"Velocity":48,"Duration":544959,"SoundDuration":544959,"Delta":79139735},{"NoteNumber":67,"Velocity":57,"Duration":544959,"SoundDuration":544959,"Delta":79139735},{"NoteNumber":43,"Velocity":41,"Duration":809696,"SoundDuration":809696,"Delta":79139735},{"NoteNumber":55,"Velocity":41,"Duration":136239,"SoundDuration":136239,"Delta":79139735},{"NoteNumber":54,"Velocity":36,"Duration":136239,"SoundDuration":136239,"Delta":79275975},{"NoteNumber":55,"Velocity":41,"Duration":136239,"SoundDuration":136239,"Delta":79412215},{"NoteNumber":50,"Velocity":37,"Duration":136239,"SoundDuration":136239,"Delta":79548455},{"NoteNumber":67,"Velocity":53,"Duration":264736,"SoundDuration":264736,"Delta":79684694},{"NoteNumber":49,"Velocity":47,"Duration":132368,"SoundDuration":132368,"Delta":79684694},{"NoteNumber":50,"Velocity":42,"Duration":132368,"SoundDuration":132368,"Delta":79817063},{"NoteNumber":58,"Velocity":53,"Duration":393596,"SoundDuration":393596,"Delta":79949431},{"NoteNumber":62,"Velocity":53,"Duration":393596,"SoundDuration":393596,"Delta":79949431},{"NoteNumber":42,"Velocity":47,"Duration":808292,"SoundDuration":808292,"Delta":79949431},{"NoteNumber":50,"Velocity":41,"Duration":129388,"SoundDuration":129388,"Delta":80078820},{"NoteNumber":49,"Velocity":40,"Duration":134819,"SoundDuration":134819,"Delta":80208208},{"NoteNumber":58,"Velocity":53,"Duration":134819,"SoundDuration":134819,"Delta":80343028},{"NoteNumber":62,"Velocity":53,"Duration":134819,"SoundDuration":134819,"Delta":80343028},{"NoteNumber":50,"Velocity":41,"Duration":134819,"SoundDuration":134819,"Delta":80343028},{"NoteNumber":58,"Velocity":49,"Duration":279876,"SoundDuration":279876,"Delta":80477847},{"NoteNumber":62,"Velocity":49,"Duration":279876,"SoundDuration":279876,"Delta":80477847},{"NoteNumber":51,"Velocity":41,"Duration":139938,"SoundDuration":139938,"Delta":80477847},{"NoteNumber":50,"Velocity":41,"Duration":139938,"SoundDuration":139938,"Delta":80617785},{"NoteNumber":58,"Velocity":60,"Duration":540307,"SoundDuration":540307,"Delta":80757724},{"NoteNumber":65,"Velocity":60,"Duration":540307,"SoundDuration":540307,"Delta":80757724},{"NoteNumber":50,"Velocity":49,"Duration":134964,"SoundDuration":134964,"Delta":80757724},{"NoteNumber":41,"Velocity":49,"Duration":824949,"SoundDuration":824949,"Delta":80757724},{"NoteNumber":49,"Velocity":40,"Duration":134965,"SoundDuration":134965,"Delta":80892689},{"NoteNumber":50,"Velocity":49,"Duration":134964,"SoundDuration":134964,"Delta":81027654},{"NoteNumber":49,"Velocity":40,"Duration":135412,"SoundDuration":135412,"Delta":81162619},{"NoteNumber":65,"Velocity":58,"Duration":284642,"SoundDuration":284642,"Delta":81298032},{"NoteNumber":50,"Velocity":48,"Duration":140112,"SoundDuration":140112,"Delta":81298032},{"NoteNumber":49,"Velocity":42,"Duration":144529,"SoundDuration":144529,"Delta":81438144},{"NoteNumber":57,"Velocity":58,"Duration":539860,"SoundDuration":539860,"Delta":81582674},{"NoteNumber":65,"Velocity":58,"Duration":539860,"SoundDuration":539860,"Delta":81582674},{"NoteNumber":51,"Velocity":47,"Duration":134964,"SoundDuration":134964,"Delta":81582674},{"NoteNumber":41,"Velocity":47,"Duration":821714,"SoundDuration":821714,"Delta":81582674},{"NoteNumber":50,"Velocity":41,"Duration":134965,"SoundDuration":134965,"Delta":81717639},{"NoteNumber":51,"Velocity":48,"Duration":134964,"SoundDuration":134964,"Delta":81852604},{"NoteNumber":48,"Velocity":41,"Duration":134965,"SoundDuration":134965,"Delta":81987569},{"NoteNumber":62,"Velocity":55,"Duration":281854,"SoundDuration":281854,"Delta":82122534},{"NoteNumber":53,"Velocity":47,"Duration":138700,"SoundDuration":138700,"Delta":82122534},{"NoteNumber":51,"Velocity":41,"Duration":143154,"SoundDuration":143154,"Delta":82261234},{"NoteNumber":53,"Velocity":61,"Duration":547794,"SoundDuration":547794,"Delta":82404388},{"NoteNumber":58,"Velocity":61,"Duration":547794,"SoundDuration":547794,"Delta":82404388},{"NoteNumber":46,"Velocity":47,"Duration":821692,"SoundDuration":821692,"Delta":82404388},{"NoteNumber":50,"Velocity":47,"Duration":136948,"SoundDuration":136948,"Delta":82404388},{"NoteNumber":49,"Velocity":38,"Duration":136948,"SoundDuration":136948,"Delta":82541337},{"NoteNumber":50,"Velocity":47,"Duration":136948,"SoundDuration":136948,"Delta":82678285},{"NoteNumber":49,"Velocity":38,"Duration":136948,"SoundDuration":136948,"Delta":82815234},{"NoteNumber":58,"Velocity":62,"Duration":273897,"SoundDuration":273897,"Delta":82952183},{"NoteNumber":50,"Velocity":47,"Duration":136948,"SoundDuration":136948,"Delta":82952183},{"NoteNumber":49,"Velocity":41,"Duration":136948,"SoundDuration":136948,"Delta":83089132},{"NoteNumber":55,"Velocity":59,"Duration":681247,"SoundDuration":681247,"Delta":83226080},{"NoteNumber":58,"Velocity":59,"Duration":403656,"SoundDuration":403656,"Delta":83226080},{"NoteNumber":39,"Velocity":47,"Duration":133002,"SoundDuration":133002,"Delta":83226080},{"NoteNumber":45,"Velocity":41,"Duration":133002,"SoundDuration":133002,"Delta":83359083},{"NoteNumber":46,"Velocity":48,"Duration":137652,"SoundDuration":137652,"Delta":83492085},{"NoteNumber":58,"Velocity":59,"Duration":137652,"SoundDuration":137652,"Delta":83629737},{"NoteNumber":51,"Velocity":44,"Duration":137652,"SoundDuration":137652,"Delta":83629737},{"NoteNumber":60,"Velocity":58,"Duration":279876,"SoundDuration":279876,"Delta":83767390},{"NoteNumber":55,"Velocity":52,"Duration":279876,"SoundDuration":279876,"Delta":83767390},{"NoteNumber":51,"Velocity":41,"Duration":139938,"SoundDuration":139938,"Delta":83907328},{"NoteNumber":53,"Velocity":49,"Duration":406268,"SoundDuration":406268,"Delta":84047267},{"NoteNumber":62,"Velocity":49,"Duration":819823,"SoundDuration":819823,"Delta":84047267},{"NoteNumber":58,"Velocity":49,"Duration":819823,"SoundDuration":819823,"Delta":84047267},{"NoteNumber":46,"Velocity":49,"Duration":134369,"SoundDuration":134369,"Delta":84047267},{"NoteNumber":52,"Velocity":44,"Duration":135265,"SoundDuration":135265,"Delta":84181636},{"NoteNumber":53,"Velocity":48,"Duration":550188,"SoundDuration":550188,"Delta":84316902},{"NoteNumber":49,"Velocity":41,"Duration":137800,"SoundDuration":137800,"Delta":84453535},{"NoteNumber":50,"Velocity":49,"Duration":138979,"SoundDuration":138979,"Delta":84591336},{"NoteNumber":46,"Velocity":41,"Duration":136775,"SoundDuration":136775,"Delta":84730315},{"NoteNumber":54,"Velocity":46,"Duration":676625,"SoundDuration":676625,"Delta":84867091},{"NoteNumber":58,"Velocity":55,"Duration":401063,"SoundDuration":401063,"Delta":84867091},{"NoteNumber":39,"Velocity":47,"Duration":132719,"SoundDuration":132719,"Delta":84867091},{"NoteNumber":45,"Velocity":41,"Duration":132719,"SoundDuration":132719,"Delta":84999811},{"NoteNumber":46,"Velocity":42,"Duration":135623,"SoundDuration":135623,"Delta":85132530},{"NoteNumber":58,"Velocity":50,"Duration":135623,"SoundDuration":135623,"Delta":85268154},{"NoteNumber":52,"Velocity":41,"Duration":135623,"SoundDuration":135623,"Delta":85268154},{"NoteNumber":60,"Velocity":56,"Duration":279876,"SoundDuration":279876,"Delta":85403778},{"NoteNumber":54,"Velocity":47,"Duration":279876,"SoundDuration":279876,"Delta":85403778},{"NoteNumber":52,"Velocity":41,"Duration":139938,"SoundDuration":139938,"Delta":85543716},{"NoteNumber":53,"Velocity":48,"Duration":526916,"SoundDuration":526916,"Delta":85683655},{"NoteNumber":58,"Velocity":57,"Duration":526916,"SoundDuration":526916,"Delta":85683655},{"NoteNumber":62,"Velocity":57,"Duration":526916,"SoundDuration":526916,"Delta":85683655},{"NoteNumber":46,"Velocity":48,"Duration":131729,"SoundDuration":131729,"Delta":85683655},{"NoteNumber":45,"Velocity":41,"Duration":131729,"SoundDuration":131729,"Delta":85815384},{"NoteNumber":46,"Velocity":48,"Duration":131729,"SoundDuration":131729,"Delta":85947113},{"NoteNumber":49,"Velocity":44,"Duration":131729,"SoundDuration":131729,"Delta":86078843},{"NoteNumber":65,"Velocity":60,"Duration":273922,"SoundDuration":273922,"Delta":86210572},{"NoteNumber":50,"Velocity":47,"Duration":136961,"SoundDuration":136961,"Delta":86210572},{"NoteNumber":46,"Velocity":41,"Duration":136961,"SoundDuration":136961,"Delta":86347533},{"NoteNumber":57,"Velocity":56,"Duration":532009,"SoundDuration":532009,"Delta":86484494},{"NoteNumber":63,"Velocity":66,"Duration":532009,"SoundDuration":532009,"Delta":86484494},{"NoteNumber":67,"Velocity":66,"Duration":532009,"SoundDuration":532009,"Delta":86484494},{"NoteNumber":41,"Velocity":52,"Duration":133002,"SoundDuration":133002,"Delta":86484494},{"NoteNumber":47,"Velocity":41,"Duration":133002,"SoundDuration":133002,"Delta":86617497},{"NoteNumber":48,"Velocity":44,"Duration":133002,"SoundDuration":133002,"Delta":86750499},{"NoteNumber":50,"Velocity":47,"Duration":133002,"SoundDuration":133002,"Delta":86883501},{"NoteNumber":65,"Velocity":56,"Duration":271027,"SoundDuration":271027,"Delta":87016503},{"NoteNumber":51,"Velocity":48,"Duration":135513,"SoundDuration":135513,"Delta":87016503},{"NoteNumber":41,"Velocity":41,"Duration":135513,"SoundDuration":135513,"Delta":87152017},{"NoteNumber":62,"Velocity":58,"Duration":559753,"SoundDuration":559753,"Delta":87287530},{"NoteNumber":53,"Velocity":49,"Duration":559753,"SoundDuration":559753,"Delta":87287530},{"NoteNumber":58,"Velocity":51,"Duration":559753,"SoundDuration":559753,"Delta":87287530},{"NoteNumber":46,"Velocity":49,"Duration":139938,"SoundDuration":139938,"Delta":87287530},{"NoteNumber":45,"Velocity":41,"Duration":139938,"SoundDuration":139938,"Delta":87427469},{"NoteNumber":46,"Velocity":47,"Duration":139938,"SoundDuration":139938,"Delta":87567407},{"NoteNumber":49,"Velocity":40,"Duration":139938,"SoundDuration":139938,"Delta":87707346},{"NoteNumber":60,"Velocity":52,"Duration":304229,"SoundDuration":304229,"Delta":87847284},{"NoteNumber":50,"Velocity":47,"Duration":152114,"SoundDuration":152114,"Delta":87847284},{"NoteNumber":46,"Velocity":41,"Duration":152114,"SoundDuration":152114,"Delta":87999399},{"NoteNumber":55,"Velocity":49,"Duration":590701,"SoundDuration":590701,"Delta":88151513},{"NoteNumber":58,"Velocity":49,"Duration":440250,"SoundDuration":440250,"Delta":88151513},{"NoteNumber":39,"Velocity":44,"Duration":144899,"SoundDuration":144899,"Delta":88151513},{"NoteNumber":45,"Velocity":41,"Duration":144899,"SoundDuration":144899,"Delta":88296413},{"NoteNumber":46,"Velocity":44,"Duration":150451,"SoundDuration":150451,"Delta":88441312},{"NoteNumber":58,"Velocity":48,"Duration":150451,"SoundDuration":150451,"Delta":88591764},{"NoteNumber":48,"Velocity":37,"Duration":150451,"SoundDuration":150451,"Delta":88591764},{"NoteNumber":55,"Velocity":41,"Duration":312429,"SoundDuration":312429,"Delta":88742215},{"NoteNumber":60,"Velocity":41,"Duration":312429,"SoundDuration":312429,"Delta":88742215},{"NoteNumber":51,"Velocity":41,"Duration":152361,"SoundDuration":152361,"Delta":88742215},{"NoteNumber":45,"Velocity":37,"Duration":160068,"SoundDuration":160068,"Delta":88894576},{"NoteNumber":54,"Velocity":40,"Duration":2531312,"SoundDuration":2531312,"Delta":89054645},{"NoteNumber":57,"Velocity":40,"Duration":2531312,"SoundDuration":2531312,"Delta":89054645},{"NoteNumber":62,"Velocity":49,"Duration":2531312,"SoundDuration":2531312,"Delta":89054645},{"NoteNumber":38,"Velocity":47,"Duration":162919,"SoundDuration":162919,"Delta":89054645},{"NoteNumber":49,"Velocity":41,"Duration":162919,"SoundDuration":162919,"Delta":89217564},{"NoteNumber":50,"Velocity":47,"Duration":145744,"SoundDuration":145744,"Delta":89380484},{"NoteNumber":44,"Velocity":41,"Duration":144859,"SoundDuration":144859,"Delta":89526228},{"NoteNumber":46,"Velocity":47,"Duration":134819,"SoundDuration":134819,"Delta":89671087},{"NoteNumber":45,"Velocity":41,"Duration":134819,"SoundDuration":134819,"Delta":89805907},{"NoteNumber":41,"Velocity":47,"Duration":134819,"SoundDuration":134819,"Delta":89940726},{"NoteNumber":42,"Velocity":41,"Duration":134819,"SoundDuration":134819,"Delta":90075545},{"NoteNumber":37,"Velocity":47,"Duration":134819,"SoundDuration":134819,"Delta":90210364},{"NoteNumber":38,"Velocity":41,"Duration":135272,"SoundDuration":135272,"Delta":90345184},{"NoteNumber":32,"Velocity":47,"Duration":160925,"SoundDuration":160925,"Delta":90480456},{"NoteNumber":33,"Velocity":41,"Duration":177836,"SoundDuration":177836,"Delta":90641381},{"NoteNumber":38,"Velocity":49,"Duration":1532599,"SoundDuration":1532599,"Delta":90819217},{"NoteNumber":62,"Velocity":53,"Duration":376348,"SoundDuration":376348,"Delta":91585957},{"NoteNumber":62,"Velocity":53,"Duration":125449,"SoundDuration":125449,"Delta":91962306},{"NoteNumber":62,"Velocity":53,"Duration":264061,"SoundDuration":264061,"Delta":92087755},{"NoteNumber":59,"Velocity":47,"Duration":506328,"SoundDuration":506328,"Delta":92351817},{"NoteNumber":62,"Velocity":47,"Duration":506328,"SoundDuration":506328,"Delta":92351817},{"NoteNumber":65,"Velocity":56,"Duration":506328,"SoundDuration":506328,"Delta":92351817},{"NoteNumber":43,"Velocity":34,"Duration":1532951,"SoundDuration":1532951,"Delta":92351817},{"NoteNumber":56,"Velocity":40,"Duration":1532951,"SoundDuration":1532951,"Delta":92351817},{"NoteNumber":67,"Velocity":56,"Duration":194434,"SoundDuration":194434,"Delta":92858146},{"NoteNumber":70,"Velocity":51,"Duration":64811,"SoundDuration":64811,"Delta":93052581},{"NoteNumber":59,"Velocity":51,"Duration":508733,"SoundDuration":508733,"Delta":93117392},{"NoteNumber":62,"Velocity":60,"Duration":508733,"SoundDuration":508733,"Delta":93117392},{"NoteNumber":68,"Velocity":60,"Duration":508733,"SoundDuration":508733,"Delta":93117392},{"NoteNumber":67,"Velocity":56,"Duration":258643,"SoundDuration":258643,"Delta":93626125},{"NoteNumber":59,"Velocity":48,"Duration":528122,"SoundDuration":528122,"Delta":93884768},{"NoteNumber":62,"Velocity":48,"Duration":528122,"SoundDuration":528122,"Delta":93884768},{"NoteNumber":65,"Velocity":57,"Duration":528122,"SoundDuration":528122,"Delta":93884768},{"NoteNumber":43,"Velocity":35,"Duration":1559012,"SoundDuration":1559012,"Delta":93884768},{"NoteNumber":56,"Velocity":41,"Duration":776013,"SoundDuration":776013,"Delta":93884768},{"NoteNumber":65,"Velocity":53,"Duration":253164,"SoundDuration":253164,"Delta":94412891},{"NoteNumber":56,"Velocity":53,"Duration":777725,"SoundDuration":777725,"Delta":94666056},{"NoteNumber":59,"Velocity":53,"Duration":372639,"SoundDuration":372639,"Delta":94666056},{"NoteNumber":53,"Velocity":41,"Duration":372639,"SoundDuration":372639,"Delta":94666056},{"NoteNumber":60,"Velocity":53,"Duration":124213,"SoundDuration":124213,"Delta":95038696},{"NoteNumber":51,"Velocity":39,"Duration":124213,"SoundDuration":124213,"Delta":95038696},{"NoteNumber":62,"Velocity":53,"Duration":280872,"SoundDuration":280872,"Delta":95162909},{"NoteNumber":50,"Velocity":40,"Duration":280872,"SoundDuration":280872,"Delta":95162909},{"NoteNumber":59,"Velocity":47,"Duration":506328,"SoundDuration":506328,"Delta":95443781},{"NoteNumber":62,"Velocity":47,"Duration":506328,"SoundDuration":506328,"Delta":95443781},{"NoteNumber":65,"Velocity":56,"Duration":506328,"SoundDuration":506328,"Delta":95443781},{"NoteNumber":43,"Velocity":34,"Duration":1532951,"SoundDuration":1532951,"Delta":95443781},{"NoteNumber":56,"Velocity":40,"Duration":1532951,"SoundDuration":1532951,"Delta":95443781},{"NoteNumber":67,"Velocity":58,"Duration":194434,"SoundDuration":194434,"Delta":95950110},{"NoteNumber":70,"Velocity":51,"Duration":64811,"SoundDuration":64811,"Delta":96144545},{"NoteNumber":59,"Velocity":51,"Duration":508733,"SoundDuration":508733,"Delta":96209357},{"NoteNumber":62,"Velocity":60,"Duration":508733,"SoundDuration":508733,"Delta":96209357},{"NoteNumber":68,"Velocity":60,"Duration":508733,"SoundDuration":508733,"Delta":96209357},{"NoteNumber":67,"Velocity":59,"Duration":258643,"SoundDuration":258643,"Delta":96718090},{"NoteNumber":59,"Velocity":48,"Duration":528122,"SoundDuration":528122,"Delta":96976733},{"NoteNumber":62,"Velocity":48,"Duration":528122,"SoundDuration":528122,"Delta":96976733},{"NoteNumber":65,"Velocity":57,"Duration":528122,"SoundDuration":528122,"Delta":96976733},{"NoteNumber":43,"Velocity":35,"Duration":717996,"SoundDuration":717996,"Delta":96976733},{"NoteNumber":56,"Velocity":41,"Duration":780892,"SoundDuration":780892,"Delta":96976733},{"NoteNumber":65,"Velocity":53,"Duration":252769,"SoundDuration":252769,"Delta":97504856},{"NoteNumber":43,"Velocity":66,"Duration":843325,"SoundDuration":843325,"Delta":97694729},{"NoteNumber":67,"Velocity":67,"Duration":372639,"SoundDuration":372639,"Delta":97757626},{"NoteNumber":74,"Velocity":67,"Duration":372639,"SoundDuration":372639,"Delta":97757626},{"NoteNumber":77,"Velocity":79,"Duration":372639,"SoundDuration":372639,"Delta":97757626},{"NoteNumber":79,"Velocity":79,"Duration":372639,"SoundDuration":372639,"Delta":97757626},{"NoteNumber":59,"Velocity":62,"Duration":372639,"SoundDuration":372639,"Delta":97757626},{"NoteNumber":70,"Velocity":61,"Duration":126917,"SoundDuration":126917,"Delta":98130265},{"NoteNumber":67,"Velocity":61,"Duration":126917,"SoundDuration":126917,"Delta":98130265},{"NoteNumber":77,"Velocity":72,"Duration":126917,"SoundDuration":126917,"Delta":98130265},{"NoteNumber":79,"Velocity":72,"Duration":126917,"SoundDuration":126917,"Delta":98130265},{"NoteNumber":61,"Velocity":55,"Duration":126917,"SoundDuration":126917,"Delta":98130265},{"NoteNumber":67,"Velocity":61,"Duration":280872,"SoundDuration":280872,"Delta":98257182},{"NoteNumber":71,"Velocity":61,"Duration":280872,"SoundDuration":280872,"Delta":98257182},{"NoteNumber":77,"Velocity":72,"Duration":280872,"SoundDuration":280872,"Delta":98257182},{"NoteNumber":79,"Velocity":72,"Duration":280872,"SoundDuration":280872,"Delta":98257182},{"NoteNumber":62,"Velocity":57,"Duration":280872,"SoundDuration":280872,"Delta":98257182},{"NoteNumber":91,"Velocity":84,"Duration":1581873,"SoundDuration":1581873,"Delta":98538055},{"NoteNumber":87,"Velocity":70,"Duration":1581873,"SoundDuration":1581873,"Delta":98538055},{"NoteNumber":84,"Velocity":70,"Duration":1581873,"SoundDuration":1581873,"Delta":98538055},{"NoteNumber":79,"Velocity":70,"Duration":1456661,"SoundDuration":1456661,"Delta":98538055},{"NoteNumber":36,"Velocity":69,"Duration":136178,"SoundDuration":136178,"Delta":98538055},{"NoteNumber":43,"Velocity":61,"Duration":136178,"SoundDuration":136178,"Delta":98674233},{"NoteNumber":48,"Velocity":61,"Duration":136178,"SoundDuration":136178,"Delta":98810411},{"NoteNumber":51,"Velocity":61,"Duration":136178,"SoundDuration":136178,"Delta":98946589},{"NoteNumber":55,"Velocity":69,"Duration":136178,"SoundDuration":136178,"Delta":99082767},{"NoteNumber":60,"Velocity":61,"Duration":136178,"SoundDuration":136178,"Delta":99218945},{"NoteNumber":63,"Velocity":61,"Duration":129623,"SoundDuration":129623,"Delta":99355123},{"NoteNumber":67,"Velocity":61,"Duration":128803,"SoundDuration":128803,"Delta":99484746},{"NoteNumber":72,"Velocity":59,"Duration":127990,"SoundDuration":127990,"Delta":99613550},{"NoteNumber":75,"Velocity":63,"Duration":126982,"SoundDuration":126982,"Delta":99741541},{"NoteNumber":79,"Velocity":68,"Duration":251405,"SoundDuration":251405,"Delta":99868524},{"NoteNumber":84,"Velocity":72,"Duration":125212,"SoundDuration":125212,"Delta":99994716},{"NoteNumber":87,"Velocity":79,"Duration":825385,"SoundDuration":825385,"Delta":100119929},{"NoteNumber":63,"Velocity":58,"Duration":382457,"SoundDuration":382457,"Delta":100945314},{"NoteNumber":67,"Velocity":58,"Duration":382457,"SoundDuration":382457,"Delta":100945314},{"NoteNumber":69,"Velocity":58,"Duration":382457,"SoundDuration":382457,"Delta":100945314},{"NoteNumber":60,"Velocity":53,"Duration":382457,"SoundDuration":382457,"Delta":100945314},{"NoteNumber":63,"Velocity":58,"Duration":127486,"SoundDuration":127486,"Delta":101327772},{"NoteNumber":67,"Velocity":58,"Duration":127486,"SoundDuration":127486,"Delta":101327772},{"NoteNumber":70,"Velocity":70,"Duration":127486,"SoundDuration":127486,"Delta":101327772},{"NoteNumber":58,"Velocity":51,"Duration":127486,"SoundDuration":127486,"Delta":101327772},{"NoteNumber":63,"Velocity":58,"Duration":288240,"SoundDuration":288240,"Delta":101455258},{"NoteNumber":67,"Velocity":58,"Duration":288240,"SoundDuration":288240,"Delta":101455258},{"NoteNumber":72,"Velocity":70,"Duration":288240,"SoundDuration":288240,"Delta":101455258},{"NoteNumber":57,"Velocity":52,"Duration":288240,"SoundDuration":288240,"Delta":101455258},{"NoteNumber":63,"Velocity":63,"Duration":779489,"SoundDuration":779489,"Delta":101743498},{"NoteNumber":67,"Velocity":63,"Duration":779489,"SoundDuration":779489,"Delta":101743498},{"NoteNumber":72,"Velocity":77,"Duration":779489,"SoundDuration":779489,"Delta":101743498},{"NoteNumber":75,"Velocity":77,"Duration":779489,"SoundDuration":779489,"Delta":101743498},{"NoteNumber":57,"Velocity":59,"Duration":779489,"SoundDuration":779489,"Delta":101743498},{"NoteNumber":67,"Velocity":58,"Duration":385508,"SoundDuration":385508,"Delta":102522988},{"NoteNumber":69,"Velocity":58,"Duration":385508,"SoundDuration":385508,"Delta":102522988},{"NoteNumber":72,"Velocity":70,"Duration":385508,"SoundDuration":385508,"Delta":102522988},{"NoteNumber":63,"Velocity":59,"Duration":385508,"SoundDuration":385508,"Delta":102522988},{"NoteNumber":67,"Velocity":63,"Duration":130536,"SoundDuration":130536,"Delta":102908497},{"NoteNumber":69,"Velocity":63,"Duration":130536,"SoundDuration":130536,"Delta":102908497},{"NoteNumber":74,"Velocity":77,"Duration":130536,"SoundDuration":130536,"Delta":102908497},{"NoteNumber":62,"Velocity":57,"Duration":130536,"SoundDuration":130536,"Delta":102908497},{"NoteNumber":67,"Velocity":62,"Duration":295974,"SoundDuration":295974,"Delta":103039034},{"NoteNumber":69,"Velocity":62,"Duration":295974,"SoundDuration":295974,"Delta":103039034},{"NoteNumber":75,"Velocity":74,"Duration":295974,"SoundDuration":295974,"Delta":103039034},{"NoteNumber":60,"Velocity":57,"Duration":295974,"SoundDuration":295974,"Delta":103039034},{"NoteNumber":67,"Velocity":70,"Duration":1123455,"SoundDuration":1123455,"Delta":103335009},{"NoteNumber":69,"Velocity":70,"Duration":1123455,"SoundDuration":1123455,"Delta":103335009},{"NoteNumber":75,"Velocity":82,"Duration":1123455,"SoundDuration":1123455,"Delta":103335009},{"NoteNumber":81,"Velocity":82,"Duration":1123455,"SoundDuration":1123455,"Delta":103335009},{"NoteNumber":60,"Velocity":61,"Duration":1115653,"SoundDuration":1115653,"Delta":103335009},{"NoteNumber":60,"Velocity":58,"Duration":788451,"SoundDuration":788451,"Delta":104458464},{"NoteNumber":67,"Velocity":69,"Duration":389745,"SoundDuration":389745,"Delta":104458464},{"NoteNumber":63,"Velocity":58,"Duration":788451,"SoundDuration":788451,"Delta":104458464},{"NoteNumber":57,"Velocity":52,"Duration":788451,"SoundDuration":788451,"Delta":104458464},{"NoteNumber":69,"Velocity":60,"Duration":130058,"SoundDuration":130058,"Delta":104848209},{"NoteNumber":67,"Velocity":58,"Duration":268648,"SoundDuration":268648,"Delta":104978267},{"NoteNumber":67,"Velocity":58,"Duration":805945,"SoundDuration":805945,"Delta":105246915},{"NoteNumber":62,"Velocity":58,"Duration":805945,"SoundDuration":805945,"Delta":105246915},{"NoteNumber":74,"Velocity":69,"Duration":805945,"SoundDuration":805945,"Delta":105246915},{"NoteNumber":58,"Velocity":51,"Duration":805945,"SoundDuration":805945,"Delta":105246915},{"NoteNumber":50,"Velocity":51,"Duration":402972,"SoundDuration":402972,"Delta":105246915},{"NoteNumber":49,"Velocity":41,"Duration":134324,"SoundDuration":134324,"Delta":105649888},{"NoteNumber":50,"Velocity":47,"Duration":268648,"SoundDuration":268648,"Delta":105784212},{"NoteNumber":50,"Velocity":47,"Duration":788513,"SoundDuration":788513,"Delta":106052861},{"NoteNumber":62,"Velocity":57,"Duration":129310,"SoundDuration":129310,"Delta":106440792},{"NoteNumber":62,"Velocity":57,"Duration":271272,"SoundDuration":271272,"Delta":106570102},{"NoteNumber":60,"Velocity":56,"Duration":790867,"SoundDuration":790867,"Delta":106841374},{"NoteNumber":63,"Velocity":67,"Duration":391610,"SoundDuration":391610,"Delta":106841374},{"NoteNumber":57,"Velocity":56,"Duration":790867,"SoundDuration":790867,"Delta":106841374},{"NoteNumber":50,"Velocity":49,"Duration":391610,"SoundDuration":391610,"Delta":106841374},{"NoteNumber":55,"Velocity":49,"Duration":1583463,"SoundDuration":1583463,"Delta":106841374},{"NoteNumber":67,"Velocity":59,"Duration":130607,"SoundDuration":130607,"Delta":107232985},{"NoteNumber":49,"Velocity":41,"Duration":130607,"SoundDuration":130607,"Delta":107232985},{"NoteNumber":69,"Velocity":59,"Duration":268648,"SoundDuration":268648,"Delta":107363593},{"NoteNumber":50,"Velocity":49,"Duration":268648,"SoundDuration":268648,"Delta":107363593},{"NoteNumber":63,"Velocity":57,"Duration":792596,"SoundDuration":792596,"Delta":107632241},{"NoteNumber":67,"Velocity":57,"Duration":792596,"SoundDuration":792596,"Delta":107632241},{"NoteNumber":72,"Velocity":68,"Duration":387930,"SoundDuration":387930,"Delta":107632241},{"NoteNumber":50,"Velocity":48,"Duration":792596,"SoundDuration":792596,"Delta":107632241},{"NoteNumber":74,"Velocity":59,"Duration":129310,"SoundDuration":129310,"Delta":108020172},{"NoteNumber":75,"Velocity":59,"Duration":275355,"SoundDuration":275355,"Delta":108149482},{"NoteNumber":67,"Velocity":56,"Duration":830104,"SoundDuration":830104,"Delta":108424838},{"NoteNumber":74,"Velocity":67,"Duration":830104,"SoundDuration":830104,"Delta":108424838},{"NoteNumber":62,"Velocity":56,"Duration":830104,"SoundDuration":830104,"Delta":108424838},{"NoteNumber":50,"Velocity":49,"Duration":415052,"SoundDuration":415052,"Delta":108424838},{"NoteNumber":58,"Velocity":49,"Duration":830104,"SoundDuration":830104,"Delta":108424838},{"NoteNumber":49,"Velocity":41,"Duration":138350,"SoundDuration":138350,"Delta":108839890},{"NoteNumber":50,"Velocity":49,"Duration":276701,"SoundDuration":276701,"Delta":108978241},{"NoteNumber":61,"Velocity":55,"Duration":792596,"SoundDuration":792596,"Delta":109254942},{"NoteNumber":67,"Velocity":66,"Duration":387930,"SoundDuration":387930,"Delta":109254942},{"NoteNumber":58,"Velocity":48,"Duration":792596,"SoundDuration":792596,"Delta":109254942},{"NoteNumber":51,"Velocity":48,"Duration":792596,"SoundDuration":792596,"Delta":109254942},{"NoteNumber":72,"Velocity":56,"Duration":129310,"SoundDuration":129310,"Delta":109642873},{"NoteNumber":70,"Velocity":59,"Duration":275355,"SoundDuration":275355,"Delta":109772183},{"NoteNumber":60,"Velocity":55,"Duration":680444,"SoundDuration":680444,"Delta":110047539},{"NoteNumber":68,"Velocity":66,"Duration":400427,"SoundDuration":400427,"Delta":110047539},{"NoteNumber":51,"Velocity":48,"Duration":835403,"SoundDuration":835403,"Delta":110047539},{"NoteNumber":44,"Velocity":48,"Duration":835403,"SoundDuration":835403,"Delta":110047539},{"NoteNumber":72,"Velocity":55,"Duration":133475,"SoundDuration":133475,"Delta":110447966},{"NoteNumber":67,"Velocity":56,"Duration":146541,"SoundDuration":146541,"Delta":110581442},{"NoteNumber":66,"Velocity":55,"Duration":77479,"SoundDuration":77479,"Delta":110727983},{"NoteNumber":67,"Velocity":56,"Duration":77479,"SoundDuration":77479,"Delta":110805463},{"NoteNumber":60,"Velocity":52,"Duration":855496,"SoundDuration":855496,"Delta":110882942},{"NoteNumber":66,"Velocity":62,"Duration":416937,"SoundDuration":416937,"Delta":110882942},{"NoteNumber":50,"Velocity":48,"Duration":855496,"SoundDuration":855496,"Delta":110882942},{"NoteNumber":64,"Velocity":55,"Duration":138978,"SoundDuration":138978,"Delta":111299879},{"NoteNumber":66,"Velocity":55,"Duration":299580,"SoundDuration":299580,"Delta":111438858},{"NoteNumber":67,"Velocity":52,"Duration":819590,"SoundDuration":819590,"Delta":111738439},{"NoteNumber":58,"Velocity":44,"Duration":819590,"SoundDuration":819590,"Delta":111738439},{"NoteNumber":50,"Velocity":49,"Duration":421386,"SoundDuration":421386,"Delta":111738439},{"NoteNumber":43,"Velocity":49,"Duration":819590,"SoundDuration":819590,"Delta":111738439},{"NoteNumber":51,"Velocity":41,"Duration":136423,"SoundDuration":136423,"Delta":112159825},{"NoteNumber":50,"Velocity":49,"Duration":261780,"SoundDuration":261780,"Delta":112296249},{"NoteNumber":57,"Velocity":45,"Duration":765859,"SoundDuration":765859,"Delta":112558029},{"NoteNumber":60,"Velocity":45,"Duration":376348,"SoundDuration":376348,"Delta":112558029},{"NoteNumber":62,"Velocity":53,"Duration":376348,"SoundDuration":376348,"Delta":112558029},{"NoteNumber":50,"Velocity":48,"Duration":765859,"SoundDuration":765859,"Delta":112558029},{"NoteNumber":60,"Velocity":45,"Duration":125449,"SoundDuration":125449,"Delta":112934377},{"NoteNumber":62,"Velocity":53,"Duration":125449,"SoundDuration":125449,"Delta":112934377},{"NoteNumber":60,"Velocity":45,"Duration":264061,"SoundDuration":264061,"Delta":113059827},{"NoteNumber":62,"Velocity":53,"Duration":264061,"SoundDuration":264061,"Delta":113059827},{"NoteNumber":58,"Velocity":47,"Duration":501630,"SoundDuration":501630,"Delta":113323888},{"NoteNumber":62,"Velocity":47,"Duration":501630,"SoundDuration":501630,"Delta":113323888},{"NoteNumber":67,"Velocity":56,"Duration":501630,"SoundDuration":501630,"Delta":113323888},{"NoteNumber":43,"Velocity":34,"Duration":760876,"SoundDuration":760876,"Delta":113323888},{"NoteNumber":50,"Velocity":40,"Duration":760876,"SoundDuration":760876,"Delta":113323888},{"NoteNumber":55,"Velocity":40,"Duration":760876,"SoundDuration":760876,"Delta":113323888},{"NoteNumber":69,"Velocity":55,"Duration":259246,"SoundDuration":259246,"Delta":113825518},{"NoteNumber":63,"Velocity":51,"Duration":508733,"SoundDuration":508733,"Delta":114084765},{"NoteNumber":66,"Velocity":50,"Duration":508733,"SoundDuration":508733,"Delta":114084765},{"NoteNumber":70,"Velocity":60,"Duration":508733,"SoundDuration":508733,"Delta":114084765},{"NoteNumber":60,"Velocity":47,"Duration":767376,"SoundDuration":767376,"Delta":114084765},{"NoteNumber":43,"Velocity":38,"Duration":767376,"SoundDuration":767376,"Delta":114084765},{"NoteNumber":69,"Velocity":53,"Duration":258643,"SoundDuration":258643,"Delta":114593498},{"NoteNumber":62,"Velocity":48,"Duration":528122,"SoundDuration":528122,"Delta":114852141},{"NoteNumber":67,"Velocity":57,"Duration":528122,"SoundDuration":528122,"Delta":114852141},{"NoteNumber":58,"Velocity":41,"Duration":781287,"SoundDuration":781287,"Delta":114852141},{"NoteNumber":43,"Velocity":35,"Duration":781287,"SoundDuration":781287,"Delta":114852141},{"NoteNumber":67,"Velocity":53,"Duration":253164,"SoundDuration":253164,"Delta":115380264},{"NoteNumber":60,"Velocity":53,"Duration":372639,"SoundDuration":372639,"Delta":115633428},{"NoteNumber":62,"Velocity":53,"Duration":372639,"SoundDuration":372639,"Delta":115633428},{"NoteNumber":43,"Velocity":35,"Duration":759527,"SoundDuration":759527,"Delta":115633428},{"NoteNumber":50,"Velocity":41,"Duration":759527,"SoundDuration":759527,"Delta":115633428},{"NoteNumber":57,"Velocity":41,"Duration":759527,"SoundDuration":759527,"Delta":115633428},{"NoteNumber":60,"Velocity":53,"Duration":124213,"SoundDuration":124213,"Delta":116006068},{"NoteNumber":62,"Velocity":53,"Duration":124213,"SoundDuration":124213,"Delta":116006068},{"NoteNumber":60,"Velocity":51,"Duration":262674,"SoundDuration":262674,"Delta":116130281},{"NoteNumber":62,"Velocity":51,"Duration":262674,"SoundDuration":262674,"Delta":116130281},{"NoteNumber":58,"Velocity":47,"Duration":494586,"SoundDuration":494586,"Delta":116392955},{"NoteNumber":62,"Velocity":56,"Duration":494586,"SoundDuration":494586,"Delta":116392955},{"NoteNumber":67,"Velocity":56,"Duration":494586,"SoundDuration":494586,"Delta":116392955},{"NoteNumber":43,"Velocity":34,"Duration":752606,"SoundDuration":752606,"Delta":116392955},{"NoteNumber":50,"Velocity":40,"Duration":752606,"SoundDuration":752606,"Delta":116392955},{"NoteNumber":55,"Velocity":40,"Duration":752606,"SoundDuration":752606,"Delta":116392955},{"NoteNumber":69,"Velocity":55,"Duration":258020,"SoundDuration":258020,"Delta":116887541},{"NoteNumber":63,"Velocity":51,"Duration":506884,"SoundDuration":506884,"Delta":117145561},{"NoteNumber":66,"Velocity":51,"Duration":506884,"SoundDuration":506884,"Delta":117145561},{"NoteNumber":70,"Velocity":60,"Duration":506884,"SoundDuration":506884,"Delta":117145561},{"NoteNumber":43,"Velocity":38,"Duration":772324,"SoundDuration":772324,"Delta":117145561},{"NoteNumber":60,"Velocity":47,"Duration":772324,"SoundDuration":772324,"Delta":117145561},{"NoteNumber":69,"Velocity":51,"Duration":265439,"SoundDuration":265439,"Delta":117652446},{"NoteNumber":62,"Velocity":51,"Duration":533713,"SoundDuration":533713,"Delta":117917886},{"NoteNumber":67,"Velocity":57,"Duration":533713,"SoundDuration":533713,"Delta":117917886},{"NoteNumber":43,"Velocity":35,"Duration":792959,"SoundDuration":792959,"Delta":117917886},{"NoteNumber":58,"Velocity":41,"Duration":787558,"SoundDuration":787558,"Delta":117917886},{"NoteNumber":67,"Velocity":53,"Duration":259246,"SoundDuration":259246,"Delta":118451599},{"NoteNumber":58,"Velocity":53,"Duration":386185,"SoundDuration":386185,"Delta":118710845},{"NoteNumber":62,"Velocity":53,"Duration":386185,"SoundDuration":386185,"Delta":118710845},{"NoteNumber":42,"Velocity":35,"Duration":793026,"SoundDuration":793026,"Delta":118710845},{"NoteNumber":54,"Velocity":41,"Duration":793026,"SoundDuration":793026,"Delta":118710845},{"NoteNumber":58,"Velocity":53,"Duration":132743,"SoundDuration":132743,"Delta":119097031},{"NoteNumber":62,"Velocity":53,"Duration":132743,"SoundDuration":132743,"Delta":119097031},{"NoteNumber":58,"Velocity":50,"Duration":274097,"SoundDuration":274097,"Delta":119229774},{"NoteNumber":62,"Velocity":50,"Duration":274097,"SoundDuration":274097,"Delta":119229774},{"NoteNumber":58,"Velocity":60,"Duration":528681,"SoundDuration":528681,"Delta":119503872},{"NoteNumber":65,"Velocity":60,"Duration":528681,"SoundDuration":528681,"Delta":119503872},{"NoteNumber":50,"Velocity":48,"Duration":816865,"SoundDuration":816865,"Delta":119503872},{"NoteNumber":41,"Velocity":39,"Duration":1626419,"SoundDuration":1626419,"Delta":119503872},{"NoteNumber":65,"Velocity":58,"Duration":288184,"SoundDuration":288184,"Delta":120032553},{"NoteNumber":57,"Velocity":58,"Duration":528681,"SoundDuration":528681,"Delta":120320738},{"NoteNumber":65,"Velocity":58,"Duration":528681,"SoundDuration":528681,"Delta":120320738},{"NoteNumber":51,"Velocity":42,"Duration":809553,"SoundDuration":809553,"Delta":120320738},{"NoteNumber":62,"Velocity":56,"Duration":280872,"SoundDuration":280872,"Delta":120849419},{"NoteNumber":53,"Velocity":61,"Duration":536529,"SoundDuration":536529,"Delta":121130291},{"NoteNumber":58,"Velocity":61,"Duration":536529,"SoundDuration":536529,"Delta":121130291},{"NoteNumber":46,"Velocity":45,"Duration":804793,"SoundDuration":804793,"Delta":121130291},{"NoteNumber":50,"Velocity":45,"Duration":804793,"SoundDuration":804793,"Delta":121130291},{"NoteNumber":58,"Velocity":62,"Duration":268264,"SoundDuration":268264,"Delta":121666820},{"NoteNumber":55,"Velocity":59,"Duration":804243,"SoundDuration":804243,"Delta":121935085},{"NoteNumber":58,"Velocity":59,"Duration":395326,"SoundDuration":395326,"Delta":121935085},{"NoteNumber":39,"Velocity":39,"Duration":804243,"SoundDuration":804243,"Delta":121935085},{"NoteNumber":46,"Velocity":48,"Duration":804243,"SoundDuration":804243,"Delta":121935085},{"NoteNumber":58,"Velocity":59,"Duration":134819,"SoundDuration":134819,"Delta":122330411},{"NoteNumber":60,"Velocity":58,"Duration":274097,"SoundDuration":274097,"Delta":122465230},{"NoteNumber":53,"Velocity":49,"Duration":819818,"SoundDuration":819818,"Delta":122739328},{"NoteNumber":62,"Velocity":49,"Duration":819818,"SoundDuration":819818,"Delta":122739328},{"NoteNumber":58,"Velocity":49,"Duration":819818,"SoundDuration":819818,"Delta":122739328},{"NoteNumber":34,"Velocity":36,"Duration":819818,"SoundDuration":819818,"Delta":122739328},{"NoteNumber":46,"Velocity":42,"Duration":819818,"SoundDuration":819818,"Delta":122739328},{"NoteNumber":54,"Velocity":46,"Duration":799715,"SoundDuration":799715,"Delta":123559147},{"NoteNumber":58,"Velocity":55,"Duration":392791,"SoundDuration":392791,"Delta":123559147},{"NoteNumber":39,"Velocity":48,"Duration":799715,"SoundDuration":799715,"Delta":123559147},{"NoteNumber":46,"Velocity":48,"Duration":799715,"SoundDuration":799715,"Delta":123559147},{"NoteNumber":58,"Velocity":50,"Duration":132825,"SoundDuration":132825,"Delta":123951938},{"NoteNumber":60,"Velocity":56,"Duration":274097,"SoundDuration":274097,"Delta":124084764},{"NoteNumber":53,"Velocity":48,"Duration":513339,"SoundDuration":513339,"Delta":124358862},{"NoteNumber":58,"Velocity":57,"Duration":513339,"SoundDuration":513339,"Delta":124358862},{"NoteNumber":62,"Velocity":57,"Duration":513339,"SoundDuration":513339,"Delta":124358862},{"NoteNumber":34,"Velocity":38,"Duration":781627,"SoundDuration":781627,"Delta":124358862},{"NoteNumber":46,"Velocity":46,"Duration":781627,"SoundDuration":781627,"Delta":124358862},{"NoteNumber":65,"Velocity":60,"Duration":268288,"SoundDuration":268288,"Delta":124872201},{"NoteNumber":57,"Velocity":56,"Duration":521013,"SoundDuration":521013,"Delta":125140490},{"NoteNumber":63,"Velocity":66,"Duration":521013,"SoundDuration":521013,"Delta":125140490},{"NoteNumber":67,"Velocity":66,"Duration":521013,"SoundDuration":521013,"Delta":125140490},{"NoteNumber":41,"Velocity":38,"Duration":786453,"SoundDuration":786453,"Delta":125140490},{"NoteNumber":48,"Velocity":46,"Duration":786453,"SoundDuration":786453,"Delta":125140490},{"NoteNumber":65,"Velocity":56,"Duration":265439,"SoundDuration":265439,"Delta":125661504},{"NoteNumber":62,"Velocity":58,"Duration":548196,"SoundDuration":548196,"Delta":125926943},{"NoteNumber":53,"Velocity":49,"Duration":548196,"SoundDuration":548196,"Delta":125926943},{"NoteNumber":58,"Velocity":52,"Duration":548196,"SoundDuration":548196,"Delta":125926943},{"NoteNumber":46,"Velocity":48,"Duration":846140,"SoundDuration":846140,"Delta":125926943},{"NoteNumber":60,"Velocity":52,"Duration":297944,"SoundDuration":297944,"Delta":126475139},{"NoteNumber":55,"Velocity":49,"Duration":578488,"SoundDuration":578488,"Delta":126773083},{"NoteNumber":58,"Velocity":49,"Duration":431155,"SoundDuration":431155,"Delta":126773083},{"NoteNumber":39,"Velocity":33,"Duration":578488,"SoundDuration":578488,"Delta":126773083},{"NoteNumber":51,"Velocity":39,"Duration":578488,"SoundDuration":578488,"Delta":126773083},{"NoteNumber":58,"Velocity":48,"Duration":147333,"SoundDuration":147333,"Delta":127204238},{"NoteNumber":55,"Velocity":41,"Duration":298418,"SoundDuration":298418,"Delta":127351572},{"NoteNumber":60,"Velocity":41,"Duration":298418,"SoundDuration":298418,"Delta":127351572},{"NoteNumber":45,"Velocity":37,"Duration":298418,"SoundDuration":298418,"Delta":127351572},{"NoteNumber":54,"Velocity":38,"Duration":2402976,"SoundDuration":2402976,"Delta":127649990},{"NoteNumber":57,"Velocity":40,"Duration":2402976,"SoundDuration":2402976,"Delta":127649990},{"NoteNumber":62,"Velocity":49,"Duration":2402976,"SoundDuration":2402976,"Delta":127649990},{"NoteNumber":50,"Velocity":35,"Duration":2402976,"SoundDuration":2402976,"Delta":127649990},{"NoteNumber":38,"Velocity":31,"Duration":2402976,"SoundDuration":2402976,"Delta":127649990},{"NoteNumber":74,"Velocity":53,"Duration":376348,"SoundDuration":376348,"Delta":130052967},{"NoteNumber":74,"Velocity":53,"Duration":125449,"SoundDuration":125449,"Delta":130429316},{"NoteNumber":74,"Velocity":53,"Duration":264061,"SoundDuration":264061,"Delta":130554765},{"NoteNumber":70,"Velocity":47,"Duration":497924,"SoundDuration":497924,"Delta":130818827},{"NoteNumber":74,"Velocity":47,"Duration":497924,"SoundDuration":497924,"Delta":130818827},{"NoteNumber":79,"Velocity":56,"Duration":497924,"SoundDuration":497924,"Delta":130818827},{"NoteNumber":62,"Velocity":40,"Duration":757170,"SoundDuration":757170,"Delta":130818827},{"NoteNumber":55,"Velocity":34,"Duration":757170,"SoundDuration":757170,"Delta":130818827},{"NoteNumber":67,"Velocity":40,"Duration":757170,"SoundDuration":757170,"Delta":130818827},{"NoteNumber":81,"Velocity":53,"Duration":259246,"SoundDuration":259246,"Delta":131316751},{"NoteNumber":75,"Velocity":51,"Duration":508733,"SoundDuration":508733,"Delta":131575997},{"NoteNumber":78,"Velocity":51,"Duration":508733,"SoundDuration":508733,"Delta":131575997},{"NoteNumber":82,"Velocity":60,"Duration":508733,"SoundDuration":508733,"Delta":131575997},{"NoteNumber":72,"Velocity":43,"Duration":767376,"SoundDuration":767376,"Delta":131575997},{"NoteNumber":55,"Velocity":38,"Duration":767376,"SoundDuration":767376,"Delta":131575997},{"NoteNumber":81,"Velocity":50,"Duration":258643,"SoundDuration":258643,"Delta":132084730},{"NoteNumber":74,"Velocity":48,"Duration":528122,"SoundDuration":528122,"Delta":132343373},{"NoteNumber":79,"Velocity":57,"Duration":528122,"SoundDuration":528122,"Delta":132343373},{"NoteNumber":55,"Velocity":35,"Duration":781287,"SoundDuration":781287,"Delta":132343373},{"NoteNumber":70,"Velocity":41,"Duration":781287,"SoundDuration":781287,"Delta":132343373},{"NoteNumber":79,"Velocity":53,"Duration":253164,"SoundDuration":253164,"Delta":132871496},{"NoteNumber":72,"Velocity":53,"Duration":372639,"SoundDuration":372639,"Delta":133124661},{"NoteNumber":74,"Velocity":53,"Duration":372639,"SoundDuration":372639,"Delta":133124661},{"NoteNumber":55,"Velocity":35,"Duration":759526,"SoundDuration":759526,"Delta":133124661},{"NoteNumber":62,"Velocity":41,"Duration":759526,"SoundDuration":759526,"Delta":133124661},{"NoteNumber":69,"Velocity":41,"Duration":759526,"SoundDuration":759526,"Delta":133124661},{"NoteNumber":72,"Velocity":53,"Duration":124213,"SoundDuration":124213,"Delta":133497301},{"NoteNumber":74,"Velocity":53,"Duration":124213,"SoundDuration":124213,"Delta":133497301},{"NoteNumber":72,"Velocity":53,"Duration":262674,"SoundDuration":262674,"Delta":133621514},{"NoteNumber":74,"Velocity":53,"Duration":262674,"SoundDuration":262674,"Delta":133621514},{"NoteNumber":70,"Velocity":47,"Duration":499376,"SoundDuration":499376,"Delta":133884188},{"NoteNumber":74,"Velocity":56,"Duration":499376,"SoundDuration":499376,"Delta":133884188},{"NoteNumber":79,"Velocity":56,"Duration":499376,"SoundDuration":499376,"Delta":133884188},{"NoteNumber":55,"Velocity":34,"Duration":757396,"SoundDuration":757396,"Delta":133884188},{"NoteNumber":62,"Velocity":40,"Duration":757396,"SoundDuration":757396,"Delta":133884188},{"NoteNumber":67,"Velocity":40,"Duration":757396,"SoundDuration":757396,"Delta":133884188},{"NoteNumber":81,"Velocity":55,"Duration":258019,"SoundDuration":258019,"Delta":134383564},{"NoteNumber":75,"Velocity":51,"Duration":506885,"SoundDuration":506885,"Delta":134641584},{"NoteNumber":78,"Velocity":51,"Duration":506885,"SoundDuration":506885,"Delta":134641584},{"NoteNumber":82,"Velocity":60,"Duration":506885,"SoundDuration":506885,"Delta":134641584},{"NoteNumber":55,"Velocity":38,"Duration":772324,"SoundDuration":772324,"Delta":134641584},{"NoteNumber":72,"Velocity":45,"Duration":772324,"SoundDuration":772324,"Delta":134641584},{"NoteNumber":81,"Velocity":53,"Duration":265439,"SoundDuration":265439,"Delta":135148469},{"NoteNumber":74,"Velocity":57,"Duration":533713,"SoundDuration":533713,"Delta":135413908},{"NoteNumber":79,"Velocity":57,"Duration":533713,"SoundDuration":533713,"Delta":135413908},{"NoteNumber":55,"Velocity":35,"Duration":792959,"SoundDuration":792959,"Delta":135413908},{"NoteNumber":70,"Velocity":41,"Duration":787558,"SoundDuration":787558,"Delta":135413908},{"NoteNumber":79,"Velocity":53,"Duration":259246,"SoundDuration":259246,"Delta":135947621},{"NoteNumber":70,"Velocity":53,"Duration":385473,"SoundDuration":385473,"Delta":136206868},{"NoteNumber":74,"Velocity":53,"Duration":385473,"SoundDuration":385473,"Delta":136206868},{"NoteNumber":66,"Velocity":41,"Duration":791602,"SoundDuration":791602,"Delta":136206868},{"NoteNumber":54,"Velocity":35,"Duration":791602,"SoundDuration":791602,"Delta":136206868},{"NoteNumber":70,"Velocity":53,"Duration":132030,"SoundDuration":132030,"Delta":136592341},{"NoteNumber":74,"Velocity":53,"Duration":132030,"SoundDuration":132030,"Delta":136592341},{"NoteNumber":70,"Velocity":53,"Duration":274098,"SoundDuration":274098,"Delta":136724372},{"NoteNumber":74,"Velocity":53,"Duration":274098,"SoundDuration":274098,"Delta":136724372},{"NoteNumber":70,"Velocity":60,"Duration":531007,"SoundDuration":531007,"Delta":136998470},{"NoteNumber":77,"Velocity":60,"Duration":531007,"SoundDuration":531007,"Delta":136998470},{"NoteNumber":62,"Velocity":48,"Duration":819191,"SoundDuration":819191,"Delta":136998470},{"NoteNumber":53,"Velocity":39,"Duration":1628745,"SoundDuration":1628745,"Delta":136998470},{"NoteNumber":77,"Velocity":58,"Duration":288184,"SoundDuration":288184,"Delta":137529477},{"NoteNumber":69,"Velocity":58,"Duration":528681,"SoundDuration":528681,"Delta":137817661},{"NoteNumber":77,"Velocity":58,"Duration":528681,"SoundDuration":528681,"Delta":137817661},{"NoteNumber":63,"Velocity":42,"Duration":809553,"SoundDuration":809553,"Delta":137817661},{"NoteNumber":70,"Velocity":61,"Duration":280872,"SoundDuration":280872,"Delta":138346342},{"NoteNumber":65,"Velocity":54,"Duration":536529,"SoundDuration":536529,"Delta":138627215},{"NoteNumber":70,"Velocity":61,"Duration":536529,"SoundDuration":536529,"Delta":138627215},{"NoteNumber":58,"Velocity":42,"Duration":804793,"SoundDuration":804793,"Delta":138627215},{"NoteNumber":62,"Velocity":48,"Duration":804793,"SoundDuration":804793,"Delta":138627215},{"NoteNumber":70,"Velocity":62,"Duration":268264,"SoundDuration":268264,"Delta":139163744},{"NoteNumber":67,"Velocity":59,"Duration":804243,"SoundDuration":804243,"Delta":139432008},{"NoteNumber":70,"Velocity":59,"Duration":395326,"SoundDuration":395326,"Delta":139432008},{"NoteNumber":51,"Velocity":39,"Duration":804243,"SoundDuration":804243,"Delta":139432008},{"NoteNumber":63,"Velocity":48,"Duration":804243,"SoundDuration":804243,"Delta":139432008},{"NoteNumber":70,"Velocity":59,"Duration":134819,"SoundDuration":134819,"Delta":139827335},{"NoteNumber":72,"Velocity":58,"Duration":274098,"SoundDuration":274098,"Delta":139962154},{"NoteNumber":65,"Velocity":49,"Duration":819818,"SoundDuration":819818,"Delta":140236252},{"NoteNumber":74,"Velocity":49,"Duration":819818,"SoundDuration":819818,"Delta":140236252},{"NoteNumber":70,"Velocity":49,"Duration":819818,"SoundDuration":819818,"Delta":140236252},{"NoteNumber":46,"Velocity":36,"Duration":819818,"SoundDuration":819818,"Delta":140236252},{"NoteNumber":58,"Velocity":42,"Duration":819818,"SoundDuration":819818,"Delta":140236252},{"NoteNumber":66,"Velocity":46,"Duration":799714,"SoundDuration":799714,"Delta":141056071},{"NoteNumber":70,"Velocity":55,"Duration":392791,"SoundDuration":392791,"Delta":141056071},{"NoteNumber":58,"Velocity":48,"Duration":799714,"SoundDuration":799714,"Delta":141056071},{"NoteNumber":51,"Velocity":48,"Duration":799714,"SoundDuration":799714,"Delta":141056071},{"NoteNumber":70,"Velocity":50,"Duration":132825,"SoundDuration":132825,"Delta":141448862},{"NoteNumber":72,"Velocity":56,"Duration":274098,"SoundDuration":274098,"Delta":141581688},{"NoteNumber":65,"Velocity":48,"Duration":516040,"SoundDuration":516040,"Delta":141855786},{"NoteNumber":70,"Velocity":57,"Duration":516040,"SoundDuration":516040,"Delta":141855786},{"NoteNumber":74,"Velocity":57,"Duration":516040,"SoundDuration":516040,"Delta":141855786},{"NoteNumber":58,"Velocity":46,"Duration":784328,"SoundDuration":784328,"Delta":141855786},{"NoteNumber":46,"Velocity":38,"Duration":784328,"SoundDuration":784328,"Delta":141855786},{"NoteNumber":77,"Velocity":60,"Duration":268288,"SoundDuration":268288,"Delta":142371826},{"NoteNumber":69,"Velocity":56,"Duration":521014,"SoundDuration":521014,"Delta":142640114},{"NoteNumber":75,"Velocity":66,"Duration":521014,"SoundDuration":521014,"Delta":142640114},{"NoteNumber":79,"Velocity":66,"Duration":521014,"SoundDuration":521014,"Delta":142640114},{"NoteNumber":60,"Velocity":46,"Duration":786453,"SoundDuration":786453,"Delta":142640114},{"NoteNumber":53,"Velocity":38,"Duration":786453,"SoundDuration":786453,"Delta":142640114},{"NoteNumber":77,"Velocity":56,"Duration":265439,"SoundDuration":265439,"Delta":143161128},{"NoteNumber":74,"Velocity":58,"Duration":548195,"SoundDuration":548195,"Delta":143426568},{"NoteNumber":65,"Velocity":49,"Duration":548195,"SoundDuration":548195,"Delta":143426568},{"NoteNumber":70,"Velocity":58,"Duration":548195,"SoundDuration":548195,"Delta":143426568},{"NoteNumber":58,"Velocity":48,"Duration":846139,"SoundDuration":846139,"Delta":143426568},{"NoteNumber":72,"Velocity":52,"Duration":297944,"SoundDuration":297944,"Delta":143974764},{"NoteNumber":67,"Velocity":49,"Duration":876906,"SoundDuration":876906,"Delta":144272708},{"NoteNumber":70,"Velocity":49,"Duration":431155,"SoundDuration":431155,"Delta":144272708},{"NoteNumber":51,"Velocity":33,"Duration":578488,"SoundDuration":578488,"Delta":144272708},{"NoteNumber":63,"Velocity":39,"Duration":578488,"SoundDuration":578488,"Delta":144272708},{"NoteNumber":70,"Velocity":48,"Duration":147333,"SoundDuration":147333,"Delta":144703863},{"NoteNumber":72,"Velocity":41,"Duration":298418,"SoundDuration":298418,"Delta":144851196},{"NoteNumber":57,"Velocity":37,"Duration":298418,"SoundDuration":298418,"Delta":144851196},{"NoteNumber":66,"Velocity":40,"Duration":2458297,"SoundDuration":2458297,"Delta":145149615},{"NoteNumber":69,"Velocity":40,"Duration":2458297,"SoundDuration":2458297,"Delta":145149615},{"NoteNumber":74,"Velocity":49,"Duration":2458297,"SoundDuration":2458297,"Delta":145149615},{"NoteNumber":50,"Velocity":31,"Duration":2458297,"SoundDuration":2458297,"Delta":145149615},{"NoteNumber":62,"Velocity":38,"Duration":2452870,"SoundDuration":2452870,"Delta":145149615},{"NoteNumber":62,"Velocity":53,"Duration":376348,"SoundDuration":376348,"Delta":147607912},{"NoteNumber":62,"Velocity":53,"Duration":125449,"SoundDuration":125449,"Delta":147984261},{"NoteNumber":62,"Velocity":53,"Duration":264061,"SoundDuration":264061,"Delta":148109710},{"NoteNumber":59,"Velocity":47,"Duration":506328,"SoundDuration":506328,"Delta":148373772},{"NoteNumber":62,"Velocity":47,"Duration":506328,"SoundDuration":506328,"Delta":148373772},{"NoteNumber":65,"Velocity":56,"Duration":506328,"SoundDuration":506328,"Delta":148373772},{"NoteNumber":43,"Velocity":34,"Duration":1532951,"SoundDuration":1532951,"Delta":148373772},{"NoteNumber":56,"Velocity":40,"Duration":1532951,"SoundDuration":1532951,"Delta":148373772},{"NoteNumber":67,"Velocity":55,"Duration":194434,"SoundDuration":194434,"Delta":148880101},{"NoteNumber":70,"Velocity":51,"Duration":64811,"SoundDuration":64811,"Delta":149074535},{"NoteNumber":59,"Velocity":51,"Duration":508733,"SoundDuration":508733,"Delta":149139347},{"NoteNumber":62,"Velocity":60,"Duration":508733,"SoundDuration":508733,"Delta":149139347},{"NoteNumber":68,"Velocity":60,"Duration":508733,"SoundDuration":508733,"Delta":149139347},{"NoteNumber":67,"Velocity":55,"Duration":258643,"SoundDuration":258643,"Delta":149648080},{"NoteNumber":59,"Velocity":48,"Duration":528122,"SoundDuration":528122,"Delta":149906723},{"NoteNumber":62,"Velocity":48,"Duration":528122,"SoundDuration":528122,"Delta":149906723},{"NoteNumber":65,"Velocity":57,"Duration":528122,"SoundDuration":528122,"Delta":149906723},{"NoteNumber":55,"Velocity":41,"Duration":781287,"SoundDuration":781287,"Delta":149906723},{"NoteNumber":43,"Velocity":35,"Duration":1559012,"SoundDuration":1559012,"Delta":149906723},{"NoteNumber":65,"Velocity":53,"Duration":253164,"SoundDuration":253164,"Delta":150434846},{"NoteNumber":56,"Velocity":53,"Duration":777725,"SoundDuration":777725,"Delta":150688011},{"NoteNumber":59,"Velocity":53,"Duration":372639,"SoundDuration":372639,"Delta":150688011},{"NoteNumber":53,"Velocity":41,"Duration":372639,"SoundDuration":372639,"Delta":150688011},{"NoteNumber":60,"Velocity":53,"Duration":124213,"SoundDuration":124213,"Delta":151060650},{"NoteNumber":51,"Velocity":39,"Duration":124213,"SoundDuration":124213,"Delta":151060650},{"NoteNumber":62,"Velocity":53,"Duration":280872,"SoundDuration":280872,"Delta":151184864},{"NoteNumber":50,"Velocity":40,"Duration":280872,"SoundDuration":280872,"Delta":151184864},{"NoteNumber":59,"Velocity":47,"Duration":506328,"SoundDuration":506328,"Delta":151465736},{"NoteNumber":62,"Velocity":47,"Duration":506328,"SoundDuration":506328,"Delta":151465736},{"NoteNumber":65,"Velocity":56,"Duration":506328,"SoundDuration":506328,"Delta":151465736},{"NoteNumber":43,"Velocity":34,"Duration":1532951,"SoundDuration":1532951,"Delta":151465736},{"NoteNumber":56,"Velocity":40,"Duration":1532951,"SoundDuration":1532951,"Delta":151465736},{"NoteNumber":67,"Velocity":57,"Duration":194434,"SoundDuration":194434,"Delta":151972065},{"NoteNumber":70,"Velocity":51,"Duration":64811,"SoundDuration":64811,"Delta":152166500},{"NoteNumber":59,"Velocity":51,"Duration":508733,"SoundDuration":508733,"Delta":152231312},{"NoteNumber":62,"Velocity":60,"Duration":508733,"SoundDuration":508733,"Delta":152231312},{"NoteNumber":68,"Velocity":60,"Duration":508733,"SoundDuration":508733,"Delta":152231312},{"NoteNumber":67,"Velocity":55,"Duration":258643,"SoundDuration":258643,"Delta":152740045},{"NoteNumber":59,"Velocity":48,"Duration":528122,"SoundDuration":528122,"Delta":152998688},{"NoteNumber":62,"Velocity":48,"Duration":528122,"SoundDuration":528122,"Delta":152998688},{"NoteNumber":65,"Velocity":57,"Duration":528122,"SoundDuration":528122,"Delta":152998688},{"NoteNumber":43,"Velocity":35,"Duration":719612,"SoundDuration":719612,"Delta":152998688},{"NoteNumber":56,"Velocity":41,"Duration":782867,"SoundDuration":782867,"Delta":152998688},{"NoteNumber":65,"Velocity":53,"Duration":254744,"SoundDuration":254744,"Delta":153526811},{"NoteNumber":43,"Velocity":66,"Duration":843684,"SoundDuration":843684,"Delta":153718300},{"NoteNumber":67,"Velocity":67,"Duration":372639,"SoundDuration":372639,"Delta":153781555},{"NoteNumber":74,"Velocity":67,"Duration":372639,"SoundDuration":372639,"Delta":153781555},{"NoteNumber":77,"Velocity":79,"Duration":372639,"SoundDuration":372639,"Delta":153781555},{"NoteNumber":79,"Velocity":79,"Duration":372639,"SoundDuration":372639,"Delta":153781555},{"NoteNumber":59,"Velocity":62,"Duration":372639,"SoundDuration":372639,"Delta":153781555},{"NoteNumber":70,"Velocity":61,"Duration":126917,"SoundDuration":126917,"Delta":154154195},{"NoteNumber":67,"Velocity":61,"Duration":126917,"SoundDuration":126917,"Delta":154154195},{"NoteNumber":77,"Velocity":72,"Duration":126917,"SoundDuration":126917,"Delta":154154195},{"NoteNumber":79,"Velocity":72,"Duration":126917,"SoundDuration":126917,"Delta":154154195},{"NoteNumber":61,"Velocity":55,"Duration":126917,"SoundDuration":126917,"Delta":154154195},{"NoteNumber":67,"Velocity":61,"Duration":280872,"SoundDuration":280872,"Delta":154281112},{"NoteNumber":71,"Velocity":61,"Duration":280872,"SoundDuration":280872,"Delta":154281112},{"NoteNumber":77,"Velocity":72,"Duration":280872,"SoundDuration":280872,"Delta":154281112},{"NoteNumber":79,"Velocity":72,"Duration":280872,"SoundDuration":280872,"Delta":154281112},{"NoteNumber":62,"Velocity":57,"Duration":280872,"SoundDuration":280872,"Delta":154281112},{"NoteNumber":91,"Velocity":84,"Duration":506328,"SoundDuration":506328,"Delta":154561985},{"NoteNumber":87,"Velocity":70,"Duration":506328,"SoundDuration":506328,"Delta":154561985},{"NoteNumber":84,"Velocity":70,"Duration":506328,"SoundDuration":506328,"Delta":154561985},{"NoteNumber":79,"Velocity":70,"Duration":506328,"SoundDuration":506328,"Delta":154561985},{"NoteNumber":36,"Velocity":69,"Duration":506328,"SoundDuration":506328,"Delta":154561985},{"NoteNumber":48,"Velocity":69,"Duration":506328,"SoundDuration":506328,"Delta":154561985},{"NoteNumber":87,"Velocity":81,"Duration":268288,"SoundDuration":268288,"Delta":155068314},{"NoteNumber":79,"Velocity":68,"Duration":268288,"SoundDuration":268288,"Delta":155068314},{"NoteNumber":75,"Velocity":68,"Duration":268288,"SoundDuration":268288,"Delta":155068314},{"NoteNumber":67,"Velocity":50,"Duration":268288,"SoundDuration":268288,"Delta":155068314},{"NoteNumber":72,"Velocity":60,"Duration":268288,"SoundDuration":268288,"Delta":155068314},{"NoteNumber":60,"Velocity":50,"Duration":268288,"SoundDuration":268288,"Delta":155068314},{"NoteNumber":79,"Velocity":72,"Duration":369336,"SoundDuration":369336,"Delta":155336602},{"NoteNumber":75,"Velocity":72,"Duration":369336,"SoundDuration":369336,"Delta":155336602},{"NoteNumber":87,"Velocity":85,"Duration":369336,"SoundDuration":369336,"Delta":155336602},{"NoteNumber":67,"Velocity":53,"Duration":369336,"SoundDuration":369336,"Delta":155336602},{"NoteNumber":60,"Velocity":53,"Duration":369336,"SoundDuration":369336,"Delta":155336602},{"NoteNumber":72,"Velocity":64,"Duration":369336,"SoundDuration":369336,"Delta":155336602},{"NoteNumber":74,"Velocity":67,"Duration":123112,"SoundDuration":123112,"Delta":155705939},{"NoteNumber":79,"Velocity":67,"Duration":123112,"SoundDuration":123112,"Delta":155705939},{"NoteNumber":86,"Velocity":79,"Duration":123112,"SoundDuration":123112,"Delta":155705939},{"NoteNumber":60,"Velocity":52,"Duration":123112,"SoundDuration":123112,"Delta":155705939},{"NoteNumber":72,"Velocity":62,"Duration":123112,"SoundDuration":123112,"Delta":155705939},{"NoteNumber":67,"Velocity":52,"Duration":123112,"SoundDuration":123112,"Delta":155705939},{"NoteNumber":84,"Velocity":79,"Duration":255580,"SoundDuration":255580,"Delta":155829051},{"NoteNumber":79,"Velocity":67,"Duration":255580,"SoundDuration":255580,"Delta":155829051},{"NoteNumber":72,"Velocity":67,"Duration":255580,"SoundDuration":255580,"Delta":155829051},{"NoteNumber":67,"Velocity":62,"Duration":255580,"SoundDuration":255580,"Delta":155829051},{"NoteNumber":60,"Velocity":52,"Duration":255580,"SoundDuration":255580,"Delta":155829051},{"NoteNumber":77,"Velocity":72,"Duration":369336,"SoundDuration":369336,"Delta":156084631},{"NoteNumber":74,"Velocity":72,"Duration":369336,"SoundDuration":369336,"Delta":156084631},{"NoteNumber":86,"Velocity":85,"Duration":369336,"SoundDuration":369336,"Delta":156084631},{"NoteNumber":71,"Velocity":64,"Duration":369336,"SoundDuration":369336,"Delta":156084631},{"NoteNumber":60,"Velocity":53,"Duration":369336,"SoundDuration":369336,"Delta":156084631},{"NoteNumber":68,"Velocity":53,"Duration":369336,"SoundDuration":369336,"Delta":156084631},{"NoteNumber":71,"Velocity":62,"Duration":123112,"SoundDuration":123112,"Delta":156453968},{"NoteNumber":74,"Velocity":62,"Duration":123112,"SoundDuration":123112,"Delta":156453968},{"NoteNumber":77,"Velocity":74,"Duration":123112,"SoundDuration":123112,"Delta":156453968},{"NoteNumber":68,"Velocity":59,"Duration":123112,"SoundDuration":123112,"Delta":156453968},{"NoteNumber":60,"Velocity":49,"Duration":123112,"SoundDuration":123112,"Delta":156453968},{"NoteNumber":79,"Velocity":74,"Duration":191685,"SoundDuration":191685,"Delta":156577080},{"NoteNumber":74,"Velocity":62,"Duration":191685,"SoundDuration":191685,"Delta":156577080},{"NoteNumber":71,"Velocity":62,"Duration":191685,"SoundDuration":191685,"Delta":156577080},{"NoteNumber":68,"Velocity":59,"Duration":191685,"SoundDuration":191685,"Delta":156577080},{"NoteNumber":60,"Velocity":49,"Duration":191685,"SoundDuration":191685,"Delta":156577080},{"NoteNumber":82,"Velocity":66,"Duration":66079,"SoundDuration":66079,"Delta":156768765},{"NoteNumber":74,"Velocity":64,"Duration":371632,"SoundDuration":371632,"Delta":156834844},{"NoteNumber":71,"Velocity":64,"Duration":371632,"SoundDuration":371632,"Delta":156834844},{"NoteNumber":80,"Velocity":78,"Duration":371632,"SoundDuration":371632,"Delta":156834844},{"NoteNumber":68,"Velocity":61,"Duration":371632,"SoundDuration":371632,"Delta":156834844},{"NoteNumber":60,"Velocity":50,"Duration":371632,"SoundDuration":371632,"Delta":156834844},{"NoteNumber":71,"Velocity":62,"Duration":125407,"SoundDuration":125407,"Delta":157206476},{"NoteNumber":74,"Velocity":62,"Duration":125407,"SoundDuration":125407,"Delta":157206476},{"NoteNumber":79,"Velocity":73,"Duration":125407,"SoundDuration":125407,"Delta":157206476},{"NoteNumber":68,"Velocity":58,"Duration":125407,"SoundDuration":125407,"Delta":157206476},{"NoteNumber":60,"Velocity":48,"Duration":125407,"SoundDuration":125407,"Delta":157206476},{"NoteNumber":77,"Velocity":73,"Duration":255580,"SoundDuration":255580,"Delta":157331884},{"NoteNumber":74,"Velocity":62,"Duration":255580,"SoundDuration":255580,"Delta":157331884},{"NoteNumber":71,"Velocity":62,"Duration":255580,"SoundDuration":255580,"Delta":157331884},{"NoteNumber":68,"Velocity":58,"Duration":255580,"SoundDuration":255580,"Delta":157331884},{"NoteNumber":60,"Velocity":48,"Duration":255580,"SoundDuration":255580,"Delta":157331884},{"NoteNumber":75,"Velocity":80,"Duration":371632,"SoundDuration":371632,"Delta":157587464},{"NoteNumber":72,"Velocity":66,"Duration":371632,"SoundDuration":371632,"Delta":157587464},{"NoteNumber":60,"Velocity":50,"Duration":371632,"SoundDuration":371632,"Delta":157587464},{"NoteNumber":67,"Velocity":61,"Duration":371632,"SoundDuration":371632,"Delta":157587464},{"NoteNumber":72,"Velocity":62,"Duration":125407,"SoundDuration":125407,"Delta":157959096},{"NoteNumber":75,"Velocity":62,"Duration":125407,"SoundDuration":125407,"Delta":157959096},{"NoteNumber":78,"Velocity":74,"Duration":125407,"SoundDuration":125407,"Delta":157959096},{"NoteNumber":67,"Velocity":57,"Duration":125407,"SoundDuration":125407,"Delta":157959096},{"NoteNumber":60,"Velocity":47,"Duration":125407,"SoundDuration":125407,"Delta":157959096},{"NoteNumber":79,"Velocity":74,"Duration":261779,"SoundDuration":261779,"Delta":158084503},{"NoteNumber":75,"Velocity":62,"Duration":261779,"SoundDuration":261779,"Delta":158084503},{"NoteNumber":72,"Velocity":62,"Duration":261779,"SoundDuration":261779,"Delta":158084503},{"NoteNumber":67,"Velocity":57,"Duration":261779,"SoundDuration":261779,"Delta":158084503},{"NoteNumber":60,"Velocity":47,"Duration":261779,"SoundDuration":261779,"Delta":158084503},{"NoteNumber":79,"Velocity":72,"Duration":369336,"SoundDuration":369336,"Delta":158346283},{"NoteNumber":75,"Velocity":72,"Duration":369336,"SoundDuration":369336,"Delta":158346283},{"NoteNumber":87,"Velocity":85,"Duration":369336,"SoundDuration":369336,"Delta":158346283},{"NoteNumber":60,"Velocity":53,"Duration":369336,"SoundDuration":369336,"Delta":158346283},{"NoteNumber":67,"Velocity":53,"Duration":369336,"SoundDuration":369336,"Delta":158346283},{"NoteNumber":72,"Velocity":64,"Duration":369336,"SoundDuration":369336,"Delta":158346283},{"NoteNumber":74,"Velocity":67,"Duration":123112,"SoundDuration":123112,"Delta":158715620},{"NoteNumber":79,"Velocity":67,"Duration":123112,"SoundDuration":123112,"Delta":158715620},{"NoteNumber":86,"Velocity":79,"Duration":123112,"SoundDuration":123112,"Delta":158715620},{"NoteNumber":60,"Velocity":52,"Duration":123112,"SoundDuration":123112,"Delta":158715620},{"NoteNumber":67,"Velocity":52,"Duration":123112,"SoundDuration":123112,"Delta":158715620},{"NoteNumber":72,"Velocity":62,"Duration":123112,"SoundDuration":123112,"Delta":158715620},{"NoteNumber":84,"Velocity":79,"Duration":255580,"SoundDuration":255580,"Delta":158838732},{"NoteNumber":79,"Velocity":67,"Duration":255580,"SoundDuration":255580,"Delta":158838732},{"NoteNumber":72,"Velocity":67,"Duration":255580,"SoundDuration":255580,"Delta":158838732},{"NoteNumber":67,"Velocity":52,"Duration":255580,"SoundDuration":255580,"Delta":158838732},{"NoteNumber":60,"Velocity":52,"Duration":255580,"SoundDuration":255580,"Delta":158838732},{"NoteNumber":77,"Velocity":72,"Duration":369336,"SoundDuration":369336,"Delta":159094312},{"NoteNumber":74,"Velocity":72,"Duration":369336,"SoundDuration":369336,"Delta":159094312},{"NoteNumber":86,"Velocity":85,"Duration":369336,"SoundDuration":369336,"Delta":159094312},{"NoteNumber":68,"Velocity":53,"Duration":369336,"SoundDuration":369336,"Delta":159094312},{"NoteNumber":60,"Velocity":53,"Duration":369336,"SoundDuration":369336,"Delta":159094312},{"NoteNumber":71,"Velocity":64,"Duration":369336,"SoundDuration":369336,"Delta":159094312},{"NoteNumber":71,"Velocity":62,"Duration":123112,"SoundDuration":123112,"Delta":159463649},{"NoteNumber":74,"Velocity":62,"Duration":123112,"SoundDuration":123112,"Delta":159463649},{"NoteNumber":77,"Velocity":74,"Duration":123112,"SoundDuration":123112,"Delta":159463649},{"NoteNumber":60,"Velocity":49,"Duration":123112,"SoundDuration":123112,"Delta":159463649},{"NoteNumber":68,"Velocity":59,"Duration":123112,"SoundDuration":123112,"Delta":159463649},{"NoteNumber":79,"Velocity":74,"Duration":191685,"SoundDuration":191685,"Delta":159586761},{"NoteNumber":74,"Velocity":62,"Duration":191685,"SoundDuration":191685,"Delta":159586761},{"NoteNumber":71,"Velocity":62,"Duration":191685,"SoundDuration":191685,"Delta":159586761},{"NoteNumber":60,"Velocity":49,"Duration":191685,"SoundDuration":191685,"Delta":159586761},{"NoteNumber":68,"Velocity":59,"Duration":191685,"SoundDuration":191685,"Delta":159586761},{"NoteNumber":82,"Velocity":67,"Duration":66371,"SoundDuration":66371,"Delta":159778446},{"NoteNumber":74,"Velocity":64,"Duration":371632,"SoundDuration":371632,"Delta":159844818},{"NoteNumber":71,"Velocity":64,"Duration":371632,"SoundDuration":371632,"Delta":159844818},{"NoteNumber":80,"Velocity":78,"Duration":371632,"SoundDuration":371632,"Delta":159844818},{"NoteNumber":60,"Velocity":50,"Duration":371632,"SoundDuration":371632,"Delta":159844818},{"NoteNumber":68,"Velocity":61,"Duration":371632,"SoundDuration":371632,"Delta":159844818},{"NoteNumber":71,"Velocity":62,"Duration":125407,"SoundDuration":125407,"Delta":160216450},{"NoteNumber":74,"Velocity":62,"Duration":125407,"SoundDuration":125407,"Delta":160216450},{"NoteNumber":79,"Velocity":73,"Duration":125407,"SoundDuration":125407,"Delta":160216450},{"NoteNumber":60,"Velocity":48,"Duration":125407,"SoundDuration":125407,"Delta":160216450},{"NoteNumber":68,"Velocity":58,"Duration":125407,"SoundDuration":125407,"Delta":160216450},{"NoteNumber":77,"Velocity":73,"Duration":255580,"SoundDuration":255580,"Delta":160341857},{"NoteNumber":74,"Velocity":62,"Duration":255580,"SoundDuration":255580,"Delta":160341857},{"NoteNumber":71,"Velocity":62,"Duration":255580,"SoundDuration":255580,"Delta":160341857},{"NoteNumber":60,"Velocity":48,"Duration":255580,"SoundDuration":255580,"Delta":160341857},{"NoteNumber":68,"Velocity":58,"Duration":255580,"SoundDuration":255580,"Delta":160341857},{"NoteNumber":75,"Velocity":80,"Duration":369336,"SoundDuration":369336,"Delta":160597437},{"NoteNumber":72,"Velocity":66,"Duration":369336,"SoundDuration":369336,"Delta":160597437},{"NoteNumber":60,"Velocity":50,"Duration":747483,"SoundDuration":747483,"Delta":160597437},{"NoteNumber":67,"Velocity":61,"Duration":747483,"SoundDuration":747483,"Delta":160597437},{"NoteNumber":72,"Velocity":62,"Duration":123112,"SoundDuration":123112,"Delta":160966774},{"NoteNumber":75,"Velocity":62,"Duration":123112,"SoundDuration":123112,"Delta":160966774},{"NoteNumber":78,"Velocity":74,"Duration":123112,"SoundDuration":123112,"Delta":160966774},{"NoteNumber":79,"Velocity":74,"Duration":255034,"SoundDuration":255034,"Delta":161089886},{"NoteNumber":75,"Velocity":62,"Duration":255034,"SoundDuration":255034,"Delta":161089886},{"NoteNumber":72,"Velocity":62,"Duration":255034,"SoundDuration":255034,"Delta":161089886},{"NoteNumber":74,"Velocity":68,"Duration":369336,"SoundDuration":369336,"Delta":161344921},{"NoteNumber":86,"Velocity":81,"Duration":748335,"SoundDuration":748335,"Delta":161344921},{"NoteNumber":79,"Velocity":68,"Duration":369336,"SoundDuration":369336,"Delta":161344921},{"NoteNumber":58,"Velocity":50,"Duration":748335,"SoundDuration":748335,"Delta":161344921},{"NoteNumber":67,"Velocity":50,"Duration":748335,"SoundDuration":748335,"Delta":161344921},{"NoteNumber":79,"Velocity":74,"Duration":123813,"SoundDuration":123813,"Delta":161718361},{"NoteNumber":74,"Velocity":68,"Duration":255345,"SoundDuration":255345,"Delta":161833656},{"NoteNumber":84,"Velocity":81,"Duration":625220,"SoundDuration":625220,"Delta":162093256},{"NoteNumber":72,"Velocity":68,"Duration":372763,"SoundDuration":372763,"Delta":162093256},{"NoteNumber":79,"Velocity":68,"Duration":372763,"SoundDuration":372763,"Delta":162093256},{"NoteNumber":57,"Velocity":50,"Duration":1516455,"SoundDuration":1516455,"Delta":162093256},{"NoteNumber":63,"Velocity":50,"Duration":758967,"SoundDuration":758967,"Delta":162093256},{"NoteNumber":79,"Velocity":70,"Duration":124784,"SoundDuration":124784,"Delta":162470162},{"NoteNumber":72,"Velocity":66,"Duration":127790,"SoundDuration":127790,"Delta":162590687},{"NoteNumber":81,"Velocity":62,"Duration":63895,"SoundDuration":63895,"Delta":162718477},{"NoteNumber":84,"Velocity":62,"Duration":69851,"SoundDuration":69851,"Delta":162782372},{"NoteNumber":72,"Velocity":51,"Duration":376222,"SoundDuration":376222,"Delta":162852224},{"NoteNumber":74,"Velocity":51,"Duration":376222,"SoundDuration":376222,"Delta":162852224},{"NoteNumber":78,"Velocity":51,"Duration":376222,"SoundDuration":376222,"Delta":162852224},{"NoteNumber":81,"Velocity":72,"Duration":376222,"SoundDuration":376222,"Delta":162852224},{"NoteNumber":62,"Velocity":50,"Duration":757487,"SoundDuration":757487,"Delta":162852224},{"NoteNumber":79,"Velocity":69,"Duration":125685,"SoundDuration":125685,"Delta":163228446},{"NoteNumber":81,"Velocity":69,"Duration":255580,"SoundDuration":255580,"Delta":163354132},{"NoteNumber":82,"Velocity":81,"Duration":765979,"SoundDuration":765979,"Delta":163609712},{"NoteNumber":70,"Velocity":68,"Duration":377992,"SoundDuration":377992,"Delta":163609712},{"NoteNumber":74,"Velocity":68,"Duration":377992,"SoundDuration":377992,"Delta":163609712},{"NoteNumber":55,"Velocity":50,"Duration":1532956,"SoundDuration":1532956,"Delta":163609712},{"NoteNumber":62,"Velocity":50,"Duration":765979,"SoundDuration":765979,"Delta":163609712},{"NoteNumber":79,"Velocity":71,"Duration":126369,"SoundDuration":126369,"Delta":163991904},{"NoteNumber":74,"Velocity":68,"Duration":261779,"SoundDuration":261779,"Delta":164113911},{"NoteNumber":74,"Velocity":72,"Duration":379746,"SoundDuration":379746,"Delta":164375691},{"NoteNumber":79,"Velocity":72,"Duration":379746,"SoundDuration":379746,"Delta":164375691},{"NoteNumber":82,"Velocity":72,"Duration":379746,"SoundDuration":379746,"Delta":164375691},{"NoteNumber":86,"Velocity":72,"Duration":379746,"SoundDuration":379746,"Delta":164375691},{"NoteNumber":64,"Velocity":50,"Duration":766976,"SoundDuration":766976,"Delta":164375691},{"NoteNumber":79,"Velocity":69,"Duration":126723,"SoundDuration":126723,"Delta":164755437},{"NoteNumber":74,"Velocity":69,"Duration":260506,"SoundDuration":260506,"Delta":164882161},{"NoteNumber":81,"Velocity":68,"Duration":762049,"SoundDuration":762049,"Delta":165142668},{"NoteNumber":69,"Velocity":57,"Duration":379746,"SoundDuration":379746,"Delta":165142668},{"NoteNumber":74,"Velocity":68,"Duration":379746,"SoundDuration":379746,"Delta":165142668},{"NoteNumber":65,"Velocity":50,"Duration":762049,"SoundDuration":762049,"Delta":165142668},{"NoteNumber":57,"Velocity":50,"Duration":1552627,"SoundDuration":1552627,"Delta":165142668},{"NoteNumber":74,"Velocity":74,"Duration":126723,"SoundDuration":126723,"Delta":165522414},{"NoteNumber":69,"Velocity":66,"Duration":255580,"SoundDuration":255580,"Delta":165649137},{"NoteNumber":73,"Velocity":61,"Duration":790577,"SoundDuration":790577,"Delta":165904717},{"NoteNumber":79,"Velocity":61,"Duration":790577,"SoundDuration":790577,"Delta":165904717},{"NoteNumber":81,"Velocity":72,"Duration":390767,"SoundDuration":390767,"Delta":165904717},{"NoteNumber":64,"Velocity":50,"Duration":522289,"SoundDuration":522289,"Delta":165904717},{"NoteNumber":82,"Velocity":69,"Duration":131521,"SoundDuration":131521,"Delta":166295485},{"NoteNumber":81,"Velocity":69,"Duration":268288,"SoundDuration":268288,"Delta":166427006},{"NoteNumber":67,"Velocity":45,"Duration":268288,"SoundDuration":268288,"Delta":166427006},{"NoteNumber":86,"Velocity":79,"Duration":761737,"SoundDuration":761737,"Delta":166695295},{"NoteNumber":81,"Velocity":67,"Duration":761737,"SoundDuration":761737,"Delta":166695295},{"NoteNumber":74,"Velocity":67,"Duration":761737,"SoundDuration":761737,"Delta":166695295},{"NoteNumber":62,"Velocity":53,"Duration":376547,"SoundDuration":376547,"Delta":166695295},{"NoteNumber":66,"Velocity":45,"Duration":761737,"SoundDuration":761737,"Delta":166695295},{"NoteNumber":61,"Velocity":50,"Duration":129870,"SoundDuration":129870,"Delta":167071843},{"NoteNumber":62,"Velocity":50,"Duration":255318,"SoundDuration":255318,"Delta":167201713},{"NoteNumber":62,"Velocity":53,"Duration":765957,"SoundDuration":765957,"Delta":167457032},{"NoteNumber":74,"Velocity":63,"Duration":127659,"SoundDuration":127659,"Delta":167840010},{"NoteNumber":74,"Velocity":63,"Duration":255319,"SoundDuration":255319,"Delta":167967670},{"NoteNumber":72,"Velocity":60,"Duration":768249,"SoundDuration":768249,"Delta":168222989},{"NoteNumber":69,"Velocity":60,"Duration":768249,"SoundDuration":768249,"Delta":168222989},{"NoteNumber":75,"Velocity":71,"Duration":379746,"SoundDuration":379746,"Delta":168222989},{"NoteNumber":62,"Velocity":49,"Duration":379746,"SoundDuration":379746,"Delta":168222989},{"NoteNumber":67,"Velocity":49,"Duration":1540528,"SoundDuration":1540528,"Delta":168222989},{"NoteNumber":79,"Velocity":61,"Duration":126723,"SoundDuration":126723,"Delta":168602736},{"NoteNumber":61,"Velocity":42,"Duration":126723,"SoundDuration":126723,"Delta":168602736},{"NoteNumber":82,"Velocity":61,"Duration":261779,"SoundDuration":261779,"Delta":168729459},{"NoteNumber":62,"Velocity":49,"Duration":261779,"SoundDuration":261779,"Delta":168729459},{"NoteNumber":75,"Velocity":58,"Duration":772278,"SoundDuration":772278,"Delta":168991239},{"NoteNumber":79,"Velocity":58,"Duration":772278,"SoundDuration":772278,"Delta":168991239},{"NoteNumber":86,"Velocity":69,"Duration":377992,"SoundDuration":377992,"Delta":168991239},{"NoteNumber":62,"Velocity":50,"Duration":772278,"SoundDuration":772278,"Delta":168991239},{"NoteNumber":84,"Velocity":63,"Duration":125997,"SoundDuration":125997,"Delta":169369231},{"NoteNumber":79,"Velocity":63,"Duration":268288,"SoundDuration":268288,"Delta":169495229},{"NoteNumber":74,"Velocity":52,"Duration":768249,"SoundDuration":768249,"Delta":169763517},{"NoteNumber":72,"Velocity":52,"Duration":768249,"SoundDuration":768249,"Delta":169763517},{"NoteNumber":81,"Velocity":71,"Duration":379746,"SoundDuration":379746,"Delta":169763517},{"NoteNumber":66,"Velocity":49,"Duration":1540528,"SoundDuration":1540528,"Delta":169763517},{"NoteNumber":62,"Velocity":49,"Duration":379746,"SoundDuration":379746,"Delta":169763517},{"NoteNumber":82,"Velocity":61,"Duration":126723,"SoundDuration":126723,"Delta":170143264},{"NoteNumber":61,"Velocity":42,"Duration":126723,"SoundDuration":126723,"Delta":170143264},{"NoteNumber":81,"Velocity":61,"Duration":261779,"SoundDuration":261779,"Delta":170269987},{"NoteNumber":62,"Velocity":49,"Duration":261779,"SoundDuration":261779,"Delta":170269987},{"NoteNumber":75,"Velocity":58,"Duration":377992,"SoundDuration":377992,"Delta":170531767},{"NoteNumber":78,"Velocity":58,"Duration":377992,"SoundDuration":377992,"Delta":170531767},{"NoteNumber":84,"Velocity":69,"Duration":377992,"SoundDuration":377992,"Delta":170531767},{"NoteNumber":62,"Velocity":50,"Duration":772278,"SoundDuration":772278,"Delta":170531767},{"NoteNumber":74,"Velocity":53,"Duration":125997,"SoundDuration":125997,"Delta":170909760},{"NoteNumber":78,"Velocity":53,"Duration":125997,"SoundDuration":125997,"Delta":170909760},{"NoteNumber":82,"Velocity":63,"Duration":125997,"SoundDuration":125997,"Delta":170909760},{"NoteNumber":72,"Velocity":53,"Duration":268288,"SoundDuration":268288,"Delta":171035757},{"NoteNumber":78,"Velocity":53,"Duration":268288,"SoundDuration":268288,"Delta":171035757},{"NoteNumber":81,"Velocity":63,"Duration":268288,"SoundDuration":268288,"Delta":171035757},{"NoteNumber":70,"Velocity":60,"Duration":385175,"SoundDuration":385175,"Delta":171304046},{"NoteNumber":74,"Velocity":60,"Duration":385175,"SoundDuration":385175,"Delta":171304046},{"NoteNumber":79,"Velocity":71,"Duration":385175,"SoundDuration":385175,"Delta":171304046},{"NoteNumber":62,"Velocity":49,"Duration":385175,"SoundDuration":385175,"Delta":171304046},{"NoteNumber":72,"Velocity":51,"Duration":128321,"SoundDuration":128321,"Delta":171689221},{"NoteNumber":75,"Velocity":51,"Duration":128321,"SoundDuration":128321,"Delta":171689221},{"NoteNumber":81,"Velocity":61,"Duration":128321,"SoundDuration":128321,"Delta":171689221},{"NoteNumber":62,"Velocity":42,"Duration":128321,"SoundDuration":128321,"Delta":171689221},{"NoteNumber":70,"Velocity":51,"Duration":263913,"SoundDuration":263913,"Delta":171817543},{"NoteNumber":74,"Velocity":51,"Duration":263913,"SoundDuration":263913,"Delta":171817543},{"NoteNumber":79,"Velocity":61,"Duration":263913,"SoundDuration":263913,"Delta":171817543},{"NoteNumber":62,"Velocity":49,"Duration":263913,"SoundDuration":263913,"Delta":171817543},{"NoteNumber":69,"Velocity":55,"Duration":388869,"SoundDuration":388869,"Delta":172081456},{"NoteNumber":72,"Velocity":55,"Duration":388869,"SoundDuration":388869,"Delta":172081456},{"NoteNumber":77,"Velocity":64,"Duration":388869,"SoundDuration":388869,"Delta":172081456},{"NoteNumber":62,"Velocity":50,"Duration":786781,"SoundDuration":786781,"Delta":172081456},{"NoteNumber":70,"Velocity":49,"Duration":129623,"SoundDuration":129623,"Delta":172470326},{"NoteNumber":74,"Velocity":49,"Duration":129623,"SoundDuration":129623,"Delta":172470326},{"NoteNumber":79,"Velocity":58,"Duration":129623,"SoundDuration":129623,"Delta":172470326},{"NoteNumber":67,"Velocity":49,"Duration":268288,"SoundDuration":268288,"Delta":172599949},{"NoteNumber":70,"Velocity":49,"Duration":268288,"SoundDuration":268288,"Delta":172599949},{"NoteNumber":75,"Velocity":58,"Duration":268288,"SoundDuration":268288,"Delta":172599949},{"NoteNumber":66,"Velocity":51,"Duration":804865,"SoundDuration":804865,"Delta":172868238},{"NoteNumber":69,"Velocity":51,"Duration":804865,"SoundDuration":804865,"Delta":172868238},{"NoteNumber":74,"Velocity":61,"Duration":804865,"SoundDuration":804865,"Delta":172868238},{"NoteNumber":62,"Velocity":49,"Duration":402432,"SoundDuration":402432,"Delta":172868238},{"NoteNumber":63,"Velocity":39,"Duration":134144,"SoundDuration":134144,"Delta":173270671},{"NoteNumber":62,"Velocity":44,"Duration":268288,"SoundDuration":268288,"Delta":173404815},{"NoteNumber":62,"Velocity":44,"Duration":268288,"SoundDuration":268288,"Delta":173673103},{"NoteNumber":62,"Velocity":47,"Duration":134819,"SoundDuration":134819,"Delta":174076211},{"NoteNumber":62,"Velocity":47,"Duration":269638,"SoundDuration":269638,"Delta":174211030},{"NoteNumber":60,"Velocity":53,"Duration":775276,"SoundDuration":775276,"Delta":174480669},{"NoteNumber":57,"Velocity":53,"Duration":775276,"SoundDuration":775276,"Delta":174480669},{"NoteNumber":63,"Velocity":63,"Duration":385175,"SoundDuration":385175,"Delta":174480669},{"NoteNumber":50,"Velocity":44,"Duration":385175,"SoundDuration":385175,"Delta":174480669},{"NoteNumber":55,"Velocity":44,"Duration":1552298,"SoundDuration":1552298,"Delta":174480669},{"NoteNumber":67,"Velocity":55,"Duration":128321,"SoundDuration":128321,"Delta":174865844},{"NoteNumber":49,"Velocity":38,"Duration":128321,"SoundDuration":128321,"Delta":174865844},{"NoteNumber":70,"Velocity":55,"Duration":261779,"SoundDuration":261779,"Delta":174994166},{"NoteNumber":50,"Velocity":44,"Duration":261779,"SoundDuration":261779,"Delta":174994166},{"NoteNumber":63,"Velocity":51,"Duration":777021,"SoundDuration":777021,"Delta":175255946},{"NoteNumber":67,"Velocity":51,"Duration":777021,"SoundDuration":777021,"Delta":175255946},{"NoteNumber":74,"Velocity":61,"Duration":381549,"SoundDuration":381549,"Delta":175255946},{"NoteNumber":50,"Velocity":45,"Duration":777021,"SoundDuration":777021,"Delta":175255946},{"NoteNumber":72,"Velocity":57,"Duration":127183,"SoundDuration":127183,"Delta":175637495},{"NoteNumber":67,"Velocity":57,"Duration":268288,"SoundDuration":268288,"Delta":175764679},{"NoteNumber":62,"Velocity":50,"Duration":768249,"SoundDuration":768249,"Delta":176032967},{"NoteNumber":60,"Velocity":47,"Duration":768249,"SoundDuration":768249,"Delta":176032967},{"NoteNumber":69,"Velocity":63,"Duration":379746,"SoundDuration":379746,"Delta":176032967},{"NoteNumber":50,"Velocity":44,"Duration":379746,"SoundDuration":379746,"Delta":176032967},{"NoteNumber":54,"Velocity":44,"Duration":1540528,"SoundDuration":1540528,"Delta":176032967},{"NoteNumber":70,"Velocity":55,"Duration":126723,"SoundDuration":126723,"Delta":176412714},{"NoteNumber":49,"Velocity":38,"Duration":126723,"SoundDuration":126723,"Delta":176412714},{"NoteNumber":69,"Velocity":55,"Duration":261779,"SoundDuration":261779,"Delta":176539437},{"NoteNumber":50,"Velocity":44,"Duration":261779,"SoundDuration":261779,"Delta":176539437},{"NoteNumber":63,"Velocity":51,"Duration":772278,"SoundDuration":772278,"Delta":176801217},{"NoteNumber":66,"Velocity":51,"Duration":772278,"SoundDuration":772278,"Delta":176801217},{"NoteNumber":72,"Velocity":61,"Duration":377992,"SoundDuration":377992,"Delta":176801217},{"NoteNumber":50,"Velocity":45,"Duration":772278,"SoundDuration":772278,"Delta":176801217},{"NoteNumber":70,"Velocity":57,"Duration":125997,"SoundDuration":125997,"Delta":177179209},{"NoteNumber":69,"Velocity":57,"Duration":268288,"SoundDuration":268288,"Delta":177305207},{"NoteNumber":58,"Velocity":53,"Duration":390760,"SoundDuration":390760,"Delta":177573495},{"NoteNumber":62,"Velocity":53,"Duration":390760,"SoundDuration":390760,"Delta":177573495},{"NoteNumber":67,"Velocity":63,"Duration":390760,"SoundDuration":390760,"Delta":177573495},{"NoteNumber":50,"Velocity":44,"Duration":390760,"SoundDuration":390760,"Delta":177573495},{"NoteNumber":60,"Velocity":46,"Duration":129966,"SoundDuration":129966,"Delta":177964256},{"NoteNumber":63,"Velocity":46,"Duration":129966,"SoundDuration":129966,"Delta":177964256},{"NoteNumber":69,"Velocity":55,"Duration":129966,"SoundDuration":129966,"Delta":177964256},{"NoteNumber":50,"Velocity":38,"Duration":129966,"SoundDuration":129966,"Delta":177964256},{"NoteNumber":58,"Velocity":46,"Duration":276548,"SoundDuration":276548,"Delta":178094222},{"NoteNumber":62,"Velocity":46,"Duration":276548,"SoundDuration":276548,"Delta":178094222},{"NoteNumber":67,"Velocity":55,"Duration":276548,"SoundDuration":276548,"Delta":178094222},{"NoteNumber":50,"Velocity":44,"Duration":276548,"SoundDuration":276548,"Delta":178094222},{"NoteNumber":57,"Velocity":49,"Duration":400427,"SoundDuration":400427,"Delta":178370771},{"NoteNumber":60,"Velocity":49,"Duration":400427,"SoundDuration":400427,"Delta":178370771},{"NoteNumber":65,"Velocity":58,"Duration":400427,"SoundDuration":400427,"Delta":178370771},{"NoteNumber":50,"Velocity":45,"Duration":822202,"SoundDuration":822202,"Delta":178370771},{"NoteNumber":58,"Velocity":42,"Duration":133475,"SoundDuration":133475,"Delta":178771198},{"NoteNumber":62,"Velocity":42,"Duration":133475,"SoundDuration":133475,"Delta":178771198},{"NoteNumber":67,"Velocity":51,"Duration":133475,"SoundDuration":133475,"Delta":178771198},{"NoteNumber":55,"Velocity":42,"Duration":288299,"SoundDuration":288299,"Delta":178904674},{"NoteNumber":58,"Velocity":42,"Duration":288299,"SoundDuration":288299,"Delta":178904674},{"NoteNumber":63,"Velocity":51,"Duration":288299,"SoundDuration":288299,"Delta":178904674},{"NoteNumber":57,"Velocity":58,"Duration":809824,"SoundDuration":809824,"Delta":179192973},{"NoteNumber":62,"Velocity":58,"Duration":809824,"SoundDuration":809824,"Delta":179192973},{"NoteNumber":54,"Velocity":38,"Duration":809824,"SoundDuration":809824,"Delta":179192973},{"NoteNumber":50,"Velocity":38,"Duration":136178,"SoundDuration":136178,"Delta":179192973},{"NoteNumber":49,"Velocity":38,"Duration":135718,"SoundDuration":135718,"Delta":179329151},{"NoteNumber":50,"Velocity":38,"Duration":135265,"SoundDuration":135265,"Delta":179464870},{"NoteNumber":49,"Velocity":37,"Duration":134819,"SoundDuration":134819,"Delta":179600136},{"NoteNumber":50,"Velocity":38,"Duration":134144,"SoundDuration":134144,"Delta":179734955},{"NoteNumber":49,"Velocity":33,"Duration":133698,"SoundDuration":133698,"Delta":179869099},{"NoteNumber":60,"Velocity":53,"Duration":786879,"SoundDuration":786879,"Delta":180002798},{"NoteNumber":62,"Velocity":53,"Duration":387930,"SoundDuration":387930,"Delta":180002798},{"NoteNumber":51,"Velocity":38,"Duration":129310,"SoundDuration":129310,"Delta":180002798},{"NoteNumber":54,"Velocity":38,"Duration":786879,"SoundDuration":786879,"Delta":180002798},{"NoteNumber":50,"Velocity":33,"Duration":129310,"SoundDuration":129310,"Delta":180132108},{"NoteNumber":49,"Velocity":38,"Duration":129310,"SoundDuration":129310,"Delta":180261418},{"NoteNumber":62,"Velocity":53,"Duration":129310,"SoundDuration":129310,"Delta":180390729},{"NoteNumber":50,"Velocity":34,"Duration":129310,"SoundDuration":129310,"Delta":180390729},{"NoteNumber":62,"Velocity":53,"Duration":269638,"SoundDuration":269638,"Delta":180520039},{"NoteNumber":51,"Velocity":38,"Duration":134819,"SoundDuration":134819,"Delta":180520039},{"NoteNumber":50,"Velocity":33,"Duration":134819,"SoundDuration":134819,"Delta":180654858},{"NoteNumber":58,"Velocity":47,"Duration":517019,"SoundDuration":517019,"Delta":180789677},{"NoteNumber":62,"Velocity":47,"Duration":517019,"SoundDuration":517019,"Delta":180789677},{"NoteNumber":67,"Velocity":56,"Duration":517019,"SoundDuration":517019,"Delta":180789677},{"NoteNumber":43,"Velocity":37,"Duration":781756,"SoundDuration":781756,"Delta":180789677},{"NoteNumber":55,"Velocity":37,"Duration":129254,"SoundDuration":129254,"Delta":180789677},{"NoteNumber":54,"Velocity":40,"Duration":129254,"SoundDuration":129254,"Delta":180918932},{"NoteNumber":53,"Velocity":41,"Duration":129254,"SoundDuration":129254,"Delta":181048187},{"NoteNumber":52,"Velocity":42,"Duration":129254,"SoundDuration":129254,"Delta":181177442},{"NoteNumber":69,"Velocity":56,"Duration":264736,"SoundDuration":264736,"Delta":181306696},{"NoteNumber":51,"Velocity":44,"Duration":132368,"SoundDuration":132368,"Delta":181306696},{"NoteNumber":50,"Velocity":47,"Duration":132368,"SoundDuration":132368,"Delta":181439065},{"NoteNumber":63,"Velocity":51,"Duration":519481,"SoundDuration":519481,"Delta":181571433},{"NoteNumber":66,"Velocity":60,"Duration":519481,"SoundDuration":519481,"Delta":181571433},{"NoteNumber":70,"Velocity":60,"Duration":519481,"SoundDuration":519481,"Delta":181571433},{"NoteNumber":49,"Velocity":47,"Duration":129870,"SoundDuration":129870,"Delta":181571433},{"NoteNumber":50,"Velocity":44,"Duration":129870,"SoundDuration":129870,"Delta":181701304},{"NoteNumber":51,"Velocity":42,"Duration":129870,"SoundDuration":129870,"Delta":181831174},{"NoteNumber":52,"Velocity":41,"Duration":129870,"SoundDuration":129870,"Delta":181961044},{"NoteNumber":69,"Velocity":59,"Duration":264084,"SoundDuration":264084,"Delta":182090914},{"NoteNumber":53,"Velocity":40,"Duration":132042,"SoundDuration":132042,"Delta":182090914},{"NoteNumber":54,"Velocity":40,"Duration":132042,"SoundDuration":132042,"Delta":182222957},{"NoteNumber":58,"Velocity":48,"Duration":539276,"SoundDuration":539276,"Delta":182354999},{"NoteNumber":62,"Velocity":48,"Duration":539276,"SoundDuration":539276,"Delta":182354999},{"NoteNumber":67,"Velocity":57,"Duration":539276,"SoundDuration":539276,"Delta":182354999},{"NoteNumber":43,"Velocity":41,"Duration":797786,"SoundDuration":797786,"Delta":182354999},{"NoteNumber":55,"Velocity":41,"Duration":134819,"SoundDuration":134819,"Delta":182354999},{"NoteNumber":54,"Velocity":36,"Duration":134819,"SoundDuration":134819,"Delta":182489818},{"NoteNumber":55,"Velocity":41,"Duration":134819,"SoundDuration":134819,"Delta":182624637},{"NoteNumber":50,"Velocity":37,"Duration":134819,"SoundDuration":134819,"Delta":182759457},{"NoteNumber":67,"Velocity":53,"Duration":258509,"SoundDuration":258509,"Delta":182894276},{"NoteNumber":49,"Velocity":41,"Duration":129254,"SoundDuration":129254,"Delta":182894276},{"NoteNumber":50,"Velocity":36,"Duration":129254,"SoundDuration":129254,"Delta":183023531},{"NoteNumber":60,"Velocity":53,"Duration":380517,"SoundDuration":380517,"Delta":183152785},{"NoteNumber":62,"Velocity":53,"Duration":380517,"SoundDuration":380517,"Delta":183152785},{"NoteNumber":54,"Velocity":41,"Duration":126839,"SoundDuration":126839,"Delta":183152785},{"NoteNumber":50,"Velocity":40,"Duration":126839,"SoundDuration":126839,"Delta":183279625},{"NoteNumber":49,"Velocity":41,"Duration":126839,"SoundDuration":126839,"Delta":183406464},{"NoteNumber":60,"Velocity":53,"Duration":126839,"SoundDuration":126839,"Delta":183533303},{"NoteNumber":62,"Velocity":53,"Duration":126839,"SoundDuration":126839,"Delta":183533303},{"NoteNumber":50,"Velocity":36,"Duration":126839,"SoundDuration":126839,"Delta":183533303},{"NoteNumber":60,"Velocity":51,"Duration":268216,"SoundDuration":268216,"Delta":183660142},{"NoteNumber":62,"Velocity":51,"Duration":268216,"SoundDuration":268216,"Delta":183660142},{"NoteNumber":51,"Velocity":42,"Duration":134108,"SoundDuration":134108,"Delta":183660142},{"NoteNumber":50,"Velocity":41,"Duration":134108,"SoundDuration":134108,"Delta":183794251},{"NoteNumber":58,"Velocity":47,"Duration":509901,"SoundDuration":509901,"Delta":183928359},{"NoteNumber":62,"Velocity":56,"Duration":509901,"SoundDuration":509901,"Delta":183928359},{"NoteNumber":67,"Velocity":56,"Duration":509901,"SoundDuration":509901,"Delta":183928359},{"NoteNumber":43,"Velocity":37,"Duration":773359,"SoundDuration":773359,"Delta":183928359},{"NoteNumber":55,"Velocity":37,"Duration":127475,"SoundDuration":127475,"Delta":183928359},{"NoteNumber":54,"Velocity":40,"Duration":127475,"SoundDuration":127475,"Delta":184055834},{"NoteNumber":53,"Velocity":42,"Duration":127475,"SoundDuration":127475,"Delta":184183309},{"NoteNumber":52,"Velocity":44,"Duration":127475,"SoundDuration":127475,"Delta":184310785},{"NoteNumber":69,"Velocity":56,"Duration":263458,"SoundDuration":263458,"Delta":184438260},{"NoteNumber":51,"Velocity":44,"Duration":131729,"SoundDuration":131729,"Delta":184438260},{"NoteNumber":50,"Velocity":42,"Duration":131729,"SoundDuration":131729,"Delta":184569989},{"NoteNumber":63,"Velocity":60,"Duration":517553,"SoundDuration":517553,"Delta":184701718},{"NoteNumber":66,"Velocity":60,"Duration":517553,"SoundDuration":517553,"Delta":184701718},{"NoteNumber":70,"Velocity":60,"Duration":517553,"SoundDuration":517553,"Delta":184701718},{"NoteNumber":49,"Velocity":42,"Duration":129388,"SoundDuration":129388,"Delta":184701718},{"NoteNumber":50,"Velocity":41,"Duration":129388,"SoundDuration":129388,"Delta":184831107},{"NoteNumber":51,"Velocity":40,"Duration":129388,"SoundDuration":129388,"Delta":184960495},{"NoteNumber":52,"Velocity":37,"Duration":129388,"SoundDuration":129388,"Delta":185089884},{"NoteNumber":69,"Velocity":53,"Duration":271027,"SoundDuration":271027,"Delta":185219272},{"NoteNumber":53,"Velocity":41,"Duration":135513,"SoundDuration":135513,"Delta":185219272},{"NoteNumber":54,"Velocity":41,"Duration":135513,"SoundDuration":135513,"Delta":185354786},{"NoteNumber":58,"Velocity":48,"Duration":544959,"SoundDuration":544959,"Delta":185490299},{"NoteNumber":62,"Velocity":48,"Duration":544959,"SoundDuration":544959,"Delta":185490299},{"NoteNumber":67,"Velocity":57,"Duration":544959,"SoundDuration":544959,"Delta":185490299},{"NoteNumber":43,"Velocity":41,"Duration":809696,"SoundDuration":809696,"Delta":185490299},{"NoteNumber":55,"Velocity":41,"Duration":136239,"SoundDuration":136239,"Delta":185490299},{"NoteNumber":54,"Velocity":36,"Duration":136239,"SoundDuration":136239,"Delta":185626539},{"NoteNumber":55,"Velocity":41,"Duration":136239,"SoundDuration":136239,"Delta":185762779},{"NoteNumber":50,"Velocity":37,"Duration":136239,"SoundDuration":136239,"Delta":185899019},{"NoteNumber":67,"Velocity":53,"Duration":264736,"SoundDuration":264736,"Delta":186035258},{"NoteNumber":49,"Velocity":47,"Duration":132368,"SoundDuration":132368,"Delta":186035258},{"NoteNumber":50,"Velocity":42,"Duration":132368,"SoundDuration":132368,"Delta":186167627},{"NoteNumber":58,"Velocity":53,"Duration":395763,"SoundDuration":395763,"Delta":186299995},{"NoteNumber":62,"Velocity":53,"Duration":395763,"SoundDuration":395763,"Delta":186299995},{"NoteNumber":42,"Velocity":47,"Duration":812626,"SoundDuration":812626,"Delta":186299995},{"NoteNumber":50,"Velocity":41,"Duration":129388,"SoundDuration":129388,"Delta":186429384},{"NoteNumber":49,"Velocity":37,"Duration":136986,"SoundDuration":136986,"Delta":186558772},{"NoteNumber":58,"Velocity":53,"Duration":136986,"SoundDuration":136986,"Delta":186695759},{"NoteNumber":62,"Velocity":53,"Duration":136986,"SoundDuration":136986,"Delta":186695759},{"NoteNumber":50,"Velocity":41,"Duration":136986,"SoundDuration":136986,"Delta":186695759},{"NoteNumber":58,"Velocity":49,"Duration":279876,"SoundDuration":279876,"Delta":186832745},{"NoteNumber":62,"Velocity":49,"Duration":279876,"SoundDuration":279876,"Delta":186832745},{"NoteNumber":51,"Velocity":42,"Duration":139938,"SoundDuration":139938,"Delta":186832745},{"NoteNumber":50,"Velocity":41,"Duration":139938,"SoundDuration":139938,"Delta":186972683},{"NoteNumber":58,"Velocity":60,"Duration":540307,"SoundDuration":540307,"Delta":187112622},{"NoteNumber":65,"Velocity":60,"Duration":540307,"SoundDuration":540307,"Delta":187112622},{"NoteNumber":50,"Velocity":49,"Duration":134964,"SoundDuration":134964,"Delta":187112622},{"NoteNumber":41,"Velocity":49,"Duration":824949,"SoundDuration":824949,"Delta":187112622},{"NoteNumber":49,"Velocity":44,"Duration":134964,"SoundDuration":134964,"Delta":187247587},{"NoteNumber":50,"Velocity":49,"Duration":134965,"SoundDuration":134965,"Delta":187382552},{"NoteNumber":49,"Velocity":42,"Duration":135412,"SoundDuration":135412,"Delta":187517517},{"NoteNumber":65,"Velocity":58,"Duration":284642,"SoundDuration":284642,"Delta":187652930},{"NoteNumber":50,"Velocity":48,"Duration":140112,"SoundDuration":140112,"Delta":187652930},{"NoteNumber":49,"Velocity":42,"Duration":144529,"SoundDuration":144529,"Delta":187793042},{"NoteNumber":57,"Velocity":58,"Duration":539860,"SoundDuration":539860,"Delta":187937572},{"NoteNumber":65,"Velocity":58,"Duration":539860,"SoundDuration":539860,"Delta":187937572},{"NoteNumber":51,"Velocity":47,"Duration":134964,"SoundDuration":134964,"Delta":187937572},{"NoteNumber":41,"Velocity":47,"Duration":821714,"SoundDuration":821714,"Delta":187937572},{"NoteNumber":50,"Velocity":41,"Duration":134964,"SoundDuration":134964,"Delta":188072537},{"NoteNumber":51,"Velocity":48,"Duration":134965,"SoundDuration":134965,"Delta":188207502},{"NoteNumber":48,"Velocity":41,"Duration":134964,"SoundDuration":134964,"Delta":188342467},{"NoteNumber":62,"Velocity":59,"Duration":281854,"SoundDuration":281854,"Delta":188477432},{"NoteNumber":53,"Velocity":47,"Duration":138700,"SoundDuration":138700,"Delta":188477432},{"NoteNumber":51,"Velocity":41,"Duration":143154,"SoundDuration":143154,"Delta":188616132},{"NoteNumber":53,"Velocity":61,"Duration":547795,"SoundDuration":547795,"Delta":188759286},{"NoteNumber":58,"Velocity":61,"Duration":547795,"SoundDuration":547795,"Delta":188759286},{"NoteNumber":46,"Velocity":47,"Duration":821692,"SoundDuration":821692,"Delta":188759286},{"NoteNumber":50,"Velocity":47,"Duration":136948,"SoundDuration":136948,"Delta":188759286},{"NoteNumber":49,"Velocity":39,"Duration":136948,"SoundDuration":136948,"Delta":188896235},{"NoteNumber":50,"Velocity":47,"Duration":136948,"SoundDuration":136948,"Delta":189033183},{"NoteNumber":49,"Velocity":41,"Duration":136948,"SoundDuration":136948,"Delta":189170132},{"NoteNumber":58,"Velocity":62,"Duration":273897,"SoundDuration":273897,"Delta":189307081},{"NoteNumber":50,"Velocity":47,"Duration":136948,"SoundDuration":136948,"Delta":189307081},{"NoteNumber":49,"Velocity":41,"Duration":136948,"SoundDuration":136948,"Delta":189444030},{"NoteNumber":55,"Velocity":59,"Duration":681248,"SoundDuration":681248,"Delta":189580978},{"NoteNumber":58,"Velocity":59,"Duration":403657,"SoundDuration":403657,"Delta":189580978},{"NoteNumber":39,"Velocity":47,"Duration":133002,"SoundDuration":133002,"Delta":189580978},{"NoteNumber":45,"Velocity":41,"Duration":133002,"SoundDuration":133002,"Delta":189713981},{"NoteNumber":46,"Velocity":48,"Duration":137652,"SoundDuration":137652,"Delta":189846983},{"NoteNumber":58,"Velocity":59,"Duration":137652,"SoundDuration":137652,"Delta":189984635},{"NoteNumber":51,"Velocity":44,"Duration":137652,"SoundDuration":137652,"Delta":189984635},{"NoteNumber":60,"Velocity":58,"Duration":279876,"SoundDuration":279876,"Delta":190122288},{"NoteNumber":55,"Velocity":52,"Duration":279876,"SoundDuration":279876,"Delta":190122288},{"NoteNumber":51,"Velocity":41,"Duration":139938,"SoundDuration":139938,"Delta":190262226},{"NoteNumber":53,"Velocity":49,"Duration":406268,"SoundDuration":406268,"Delta":190402165},{"NoteNumber":62,"Velocity":49,"Duration":822933,"SoundDuration":822933,"Delta":190402165},{"NoteNumber":58,"Velocity":49,"Duration":822933,"SoundDuration":822933,"Delta":190402165},{"NoteNumber":46,"Velocity":49,"Duration":134369,"SoundDuration":134369,"Delta":190402165},{"NoteNumber":52,"Velocity":44,"Duration":135265,"SoundDuration":135265,"Delta":190536534},{"NoteNumber":53,"Velocity":48,"Duration":553298,"SoundDuration":553298,"Delta":190671800},{"NoteNumber":49,"Velocity":41,"Duration":137800,"SoundDuration":137800,"Delta":190808433},{"NoteNumber":50,"Velocity":49,"Duration":140845,"SoundDuration":140845,"Delta":190946234},{"NoteNumber":46,"Velocity":41,"Duration":138019,"SoundDuration":138019,"Delta":191087079},{"NoteNumber":54,"Velocity":46,"Duration":676625,"SoundDuration":676625,"Delta":191225099},{"NoteNumber":58,"Velocity":55,"Duration":401063,"SoundDuration":401063,"Delta":191225099},{"NoteNumber":39,"Velocity":47,"Duration":132719,"SoundDuration":132719,"Delta":191225099},{"NoteNumber":45,"Velocity":41,"Duration":132719,"SoundDuration":132719,"Delta":191357819},{"NoteNumber":46,"Velocity":42,"Duration":135623,"SoundDuration":135623,"Delta":191490538},{"NoteNumber":58,"Velocity":50,"Duration":135623,"SoundDuration":135623,"Delta":191626162},{"NoteNumber":52,"Velocity":41,"Duration":135623,"SoundDuration":135623,"Delta":191626162},{"NoteNumber":60,"Velocity":56,"Duration":279876,"SoundDuration":279876,"Delta":191761786},{"NoteNumber":54,"Velocity":47,"Duration":279876,"SoundDuration":279876,"Delta":191761786},{"NoteNumber":52,"Velocity":41,"Duration":139938,"SoundDuration":139938,"Delta":191901724},{"NoteNumber":53,"Velocity":48,"Duration":524328,"SoundDuration":524328,"Delta":192041663},{"NoteNumber":58,"Velocity":57,"Duration":524328,"SoundDuration":524328,"Delta":192041663},{"NoteNumber":62,"Velocity":57,"Duration":524328,"SoundDuration":524328,"Delta":192041663},{"NoteNumber":46,"Velocity":48,"Duration":131729,"SoundDuration":131729,"Delta":192041663},{"NoteNumber":45,"Velocity":41,"Duration":131729,"SoundDuration":131729,"Delta":192173392},{"NoteNumber":46,"Velocity":48,"Duration":130434,"SoundDuration":130434,"Delta":192305121},{"NoteNumber":49,"Velocity":44,"Duration":130434,"SoundDuration":130434,"Delta":192435556},{"NoteNumber":65,"Velocity":60,"Duration":273922,"SoundDuration":273922,"Delta":192565991},{"NoteNumber":50,"Velocity":47,"Duration":136961,"SoundDuration":136961,"Delta":192565991},{"NoteNumber":46,"Velocity":41,"Duration":136961,"SoundDuration":136961,"Delta":192702952},{"NoteNumber":57,"Velocity":56,"Duration":532008,"SoundDuration":532008,"Delta":192839913},{"NoteNumber":63,"Velocity":66,"Duration":532008,"SoundDuration":532008,"Delta":192839913},{"NoteNumber":67,"Velocity":66,"Duration":532008,"SoundDuration":532008,"Delta":192839913},{"NoteNumber":41,"Velocity":52,"Duration":133002,"SoundDuration":133002,"Delta":192839913},{"NoteNumber":47,"Velocity":41,"Duration":133002,"SoundDuration":133002,"Delta":192972916},{"NoteNumber":48,"Velocity":44,"Duration":133002,"SoundDuration":133002,"Delta":193105918},{"NoteNumber":50,"Velocity":47,"Duration":133002,"SoundDuration":133002,"Delta":193238920},{"NoteNumber":65,"Velocity":56,"Duration":271027,"SoundDuration":271027,"Delta":193371922},{"NoteNumber":51,"Velocity":48,"Duration":135513,"SoundDuration":135513,"Delta":193371922},{"NoteNumber":41,"Velocity":41,"Duration":135513,"SoundDuration":135513,"Delta":193507436},{"NoteNumber":62,"Velocity":58,"Duration":559753,"SoundDuration":559753,"Delta":193642949},{"NoteNumber":53,"Velocity":49,"Duration":559753,"SoundDuration":559753,"Delta":193642949},{"NoteNumber":58,"Velocity":50,"Duration":559753,"SoundDuration":559753,"Delta":193642949},{"NoteNumber":46,"Velocity":49,"Duration":139938,"SoundDuration":139938,"Delta":193642949},{"NoteNumber":45,"Velocity":41,"Duration":139938,"SoundDuration":139938,"Delta":193782888},{"NoteNumber":46,"Velocity":47,"Duration":139938,"SoundDuration":139938,"Delta":193922826},{"NoteNumber":49,"Velocity":40,"Duration":139938,"SoundDuration":139938,"Delta":194062765},{"NoteNumber":60,"Velocity":52,"Duration":304228,"SoundDuration":304228,"Delta":194202703},{"NoteNumber":50,"Velocity":47,"Duration":152114,"SoundDuration":152114,"Delta":194202703},{"NoteNumber":46,"Velocity":41,"Duration":152114,"SoundDuration":152114,"Delta":194354818},{"NoteNumber":55,"Velocity":49,"Duration":590701,"SoundDuration":590701,"Delta":194506932},{"NoteNumber":58,"Velocity":49,"Duration":440250,"SoundDuration":440250,"Delta":194506932},{"NoteNumber":39,"Velocity":44,"Duration":144899,"SoundDuration":144899,"Delta":194506932},{"NoteNumber":45,"Velocity":41,"Duration":144899,"SoundDuration":144899,"Delta":194651832},{"NoteNumber":46,"Velocity":44,"Duration":150451,"SoundDuration":150451,"Delta":194796731},{"NoteNumber":58,"Velocity":48,"Duration":150451,"SoundDuration":150451,"Delta":194947183},{"NoteNumber":48,"Velocity":37,"Duration":150451,"SoundDuration":150451,"Delta":194947183},{"NoteNumber":55,"Velocity":41,"Duration":312429,"SoundDuration":312429,"Delta":195097634},{"NoteNumber":60,"Velocity":41,"Duration":312429,"SoundDuration":312429,"Delta":195097634},{"NoteNumber":51,"Velocity":41,"Duration":152361,"SoundDuration":152361,"Delta":195097634},{"NoteNumber":45,"Velocity":37,"Duration":160068,"SoundDuration":160068,"Delta":195249995},{"NoteNumber":54,"Velocity":40,"Duration":2531312,"SoundDuration":2531312,"Delta":195410064},{"NoteNumber":57,"Velocity":40,"Duration":2531312,"SoundDuration":2531312,"Delta":195410064},{"NoteNumber":62,"Velocity":49,"Duration":2531312,"SoundDuration":2531312,"Delta":195410064},{"NoteNumber":38,"Velocity":47,"Duration":162919,"SoundDuration":162919,"Delta":195410064},{"NoteNumber":49,"Velocity":41,"Duration":162919,"SoundDuration":162919,"Delta":195572983},{"NoteNumber":50,"Velocity":47,"Duration":145744,"SoundDuration":145744,"Delta":195735903},{"NoteNumber":44,"Velocity":41,"Duration":144859,"SoundDuration":144859,"Delta":195881647},{"NoteNumber":46,"Velocity":47,"Duration":134819,"SoundDuration":134819,"Delta":196026506},{"NoteNumber":45,"Velocity":41,"Duration":134819,"SoundDuration":134819,"Delta":196161326},{"NoteNumber":41,"Velocity":47,"Duration":134819,"SoundDuration":134819,"Delta":196296145},{"NoteNumber":42,"Velocity":41,"Duration":134819,"SoundDuration":134819,"Delta":196430964},{"NoteNumber":37,"Velocity":47,"Duration":134819,"SoundDuration":134819,"Delta":196565783},{"NoteNumber":38,"Velocity":41,"Duration":135272,"SoundDuration":135272,"Delta":196700603},{"NoteNumber":32,"Velocity":47,"Duration":160925,"SoundDuration":160925,"Delta":196835875},{"NoteNumber":33,"Velocity":41,"Duration":177836,"SoundDuration":177836,"Delta":196996800},{"NoteNumber":38,"Velocity":49,"Duration":1532599,"SoundDuration":1532599,"Delta":197174636},{"NoteNumber":62,"Velocity":53,"Duration":376348,"SoundDuration":376348,"Delta":197941376},{"NoteNumber":62,"Velocity":53,"Duration":125449,"SoundDuration":125449,"Delta":198317725},{"NoteNumber":62,"Velocity":53,"Duration":264061,"SoundDuration":264061,"Delta":198443174},{"NoteNumber":59,"Velocity":47,"Duration":506328,"SoundDuration":506328,"Delta":198707236},{"NoteNumber":62,"Velocity":47,"Duration":506328,"SoundDuration":506328,"Delta":198707236},{"NoteNumber":65,"Velocity":56,"Duration":506328,"SoundDuration":506328,"Delta":198707236},{"NoteNumber":43,"Velocity":34,"Duration":1532951,"SoundDuration":1532951,"Delta":198707236},{"NoteNumber":56,"Velocity":40,"Duration":1532951,"SoundDuration":1532951,"Delta":198707236},{"NoteNumber":67,"Velocity":58,"Duration":194434,"SoundDuration":194434,"Delta":199213565},{"NoteNumber":70,"Velocity":51,"Duration":64811,"SoundDuration":64811,"Delta":199408000},{"NoteNumber":59,"Velocity":51,"Duration":508733,"SoundDuration":508733,"Delta":199472811},{"NoteNumber":62,"Velocity":60,"Duration":508733,"SoundDuration":508733,"Delta":199472811},{"NoteNumber":68,"Velocity":60,"Duration":508733,"SoundDuration":508733,"Delta":199472811},{"NoteNumber":67,"Velocity":55,"Duration":258643,"SoundDuration":258643,"Delta":199981544},{"NoteNumber":59,"Velocity":48,"Duration":528122,"SoundDuration":528122,"Delta":200240187},{"NoteNumber":62,"Velocity":48,"Duration":528122,"SoundDuration":528122,"Delta":200240187},{"NoteNumber":65,"Velocity":57,"Duration":528122,"SoundDuration":528122,"Delta":200240187},{"NoteNumber":43,"Velocity":35,"Duration":1559012,"SoundDuration":1559012,"Delta":200240187},{"NoteNumber":56,"Velocity":41,"Duration":776013,"SoundDuration":776013,"Delta":200240187},{"NoteNumber":65,"Velocity":53,"Duration":253164,"SoundDuration":253164,"Delta":200768310},{"NoteNumber":56,"Velocity":53,"Duration":777725,"SoundDuration":777725,"Delta":201021475},{"NoteNumber":59,"Velocity":53,"Duration":372639,"SoundDuration":372639,"Delta":201021475},{"NoteNumber":53,"Velocity":41,"Duration":372639,"SoundDuration":372639,"Delta":201021475},{"NoteNumber":60,"Velocity":53,"Duration":124213,"SoundDuration":124213,"Delta":201394115},{"NoteNumber":51,"Velocity":39,"Duration":124213,"SoundDuration":124213,"Delta":201394115},{"NoteNumber":62,"Velocity":53,"Duration":280872,"SoundDuration":280872,"Delta":201518328},{"NoteNumber":50,"Velocity":40,"Duration":280872,"SoundDuration":280872,"Delta":201518328},{"NoteNumber":59,"Velocity":47,"Duration":506328,"SoundDuration":506328,"Delta":201799200},{"NoteNumber":62,"Velocity":47,"Duration":506328,"SoundDuration":506328,"Delta":201799200},{"NoteNumber":65,"Velocity":56,"Duration":506328,"SoundDuration":506328,"Delta":201799200},{"NoteNumber":43,"Velocity":34,"Duration":1532951,"SoundDuration":1532951,"Delta":201799200},{"NoteNumber":56,"Velocity":40,"Duration":1532951,"SoundDuration":1532951,"Delta":201799200},{"NoteNumber":67,"Velocity":58,"Duration":194434,"SoundDuration":194434,"Delta":202305529},{"NoteNumber":70,"Velocity":51,"Duration":64811,"SoundDuration":64811,"Delta":202499964},{"NoteNumber":59,"Velocity":51,"Duration":508733,"SoundDuration":508733,"Delta":202564776},{"NoteNumber":62,"Velocity":60,"Duration":508733,"SoundDuration":508733,"Delta":202564776},{"NoteNumber":68,"Velocity":60,"Duration":508733,"SoundDuration":508733,"Delta":202564776},{"NoteNumber":67,"Velocity":56,"Duration":258643,"SoundDuration":258643,"Delta":203073509},{"NoteNumber":59,"Velocity":48,"Duration":528122,"SoundDuration":528122,"Delta":203332152},{"NoteNumber":62,"Velocity":48,"Duration":528122,"SoundDuration":528122,"Delta":203332152},{"NoteNumber":65,"Velocity":57,"Duration":528122,"SoundDuration":528122,"Delta":203332152},{"NoteNumber":56,"Velocity":41,"Duration":783868,"SoundDuration":783868,"Delta":203332152},{"NoteNumber":43,"Velocity":35,"Duration":720430,"SoundDuration":720430,"Delta":203332152},{"NoteNumber":65,"Velocity":53,"Duration":255745,"SoundDuration":255745,"Delta":203860275},{"NoteNumber":43,"Velocity":66,"Duration":837955,"SoundDuration":837955,"Delta":204052583},{"NoteNumber":67,"Velocity":67,"Duration":367359,"SoundDuration":367359,"Delta":204116020},{"NoteNumber":74,"Velocity":67,"Duration":367359,"SoundDuration":367359,"Delta":204116020},{"NoteNumber":77,"Velocity":79,"Duration":367359,"SoundDuration":367359,"Delta":204116020},{"NoteNumber":79,"Velocity":79,"Duration":367359,"SoundDuration":367359,"Delta":204116020},{"NoteNumber":59,"Velocity":62,"Duration":367359,"SoundDuration":367359,"Delta":204116020},{"NoteNumber":70,"Velocity":61,"Duration":126286,"SoundDuration":126286,"Delta":204483379},{"NoteNumber":67,"Velocity":61,"Duration":126286,"SoundDuration":126286,"Delta":204483379},{"NoteNumber":77,"Velocity":72,"Duration":126286,"SoundDuration":126286,"Delta":204483379},{"NoteNumber":79,"Velocity":72,"Duration":126286,"SoundDuration":126286,"Delta":204483379},{"NoteNumber":61,"Velocity":55,"Duration":126286,"SoundDuration":126286,"Delta":204483379},{"NoteNumber":67,"Velocity":61,"Duration":280872,"SoundDuration":280872,"Delta":204609666},{"NoteNumber":71,"Velocity":61,"Duration":280872,"SoundDuration":280872,"Delta":204609666},{"NoteNumber":77,"Velocity":72,"Duration":280872,"SoundDuration":280872,"Delta":204609666},{"NoteNumber":79,"Velocity":72,"Duration":280872,"SoundDuration":280872,"Delta":204609666},{"NoteNumber":62,"Velocity":57,"Duration":280872,"SoundDuration":280872,"Delta":204609666},{"NoteNumber":91,"Velocity":84,"Duration":1581873,"SoundDuration":1581873,"Delta":204890538},{"NoteNumber":87,"Velocity":70,"Duration":1581873,"SoundDuration":1581873,"Delta":204890538},{"NoteNumber":84,"Velocity":70,"Duration":1581873,"SoundDuration":1581873,"Delta":204890538},{"NoteNumber":79,"Velocity":70,"Duration":1456661,"SoundDuration":1456661,"Delta":204890538},{"NoteNumber":36,"Velocity":69,"Duration":136178,"SoundDuration":136178,"Delta":204890538},{"NoteNumber":43,"Velocity":61,"Duration":136178,"SoundDuration":136178,"Delta":205026716},{"NoteNumber":48,"Velocity":61,"Duration":136178,"SoundDuration":136178,"Delta":205162894},{"NoteNumber":51,"Velocity":61,"Duration":136178,"SoundDuration":136178,"Delta":205299072},{"NoteNumber":55,"Velocity":69,"Duration":136178,"SoundDuration":136178,"Delta":205435250},{"NoteNumber":60,"Velocity":61,"Duration":136178,"SoundDuration":136178,"Delta":205571428},{"NoteNumber":63,"Velocity":61,"Duration":129623,"SoundDuration":129623,"Delta":205707606},{"NoteNumber":67,"Velocity":61,"Duration":128803,"SoundDuration":128803,"Delta":205837230},{"NoteNumber":72,"Velocity":59,"Duration":127990,"SoundDuration":127990,"Delta":205966034},{"NoteNumber":75,"Velocity":63,"Duration":126982,"SoundDuration":126982,"Delta":206094024},{"NoteNumber":79,"Velocity":68,"Duration":251405,"SoundDuration":251405,"Delta":206221007},{"NoteNumber":84,"Velocity":72,"Duration":125212,"SoundDuration":125212,"Delta":206347199},{"NoteNumber":87,"Velocity":79,"Duration":825385,"SoundDuration":825385,"Delta":206472412},{"NoteNumber":63,"Velocity":58,"Duration":382458,"SoundDuration":382458,"Delta":207297798},{"NoteNumber":67,"Velocity":58,"Duration":382458,"SoundDuration":382458,"Delta":207297798},{"NoteNumber":69,"Velocity":58,"Duration":382458,"SoundDuration":382458,"Delta":207297798},{"NoteNumber":60,"Velocity":53,"Duration":382458,"SoundDuration":382458,"Delta":207297798},{"NoteNumber":63,"Velocity":58,"Duration":127485,"SoundDuration":127485,"Delta":207680256},{"NoteNumber":67,"Velocity":58,"Duration":127485,"SoundDuration":127485,"Delta":207680256},{"NoteNumber":70,"Velocity":70,"Duration":127485,"SoundDuration":127485,"Delta":207680256},{"NoteNumber":58,"Velocity":51,"Duration":127485,"SoundDuration":127485,"Delta":207680256},{"NoteNumber":63,"Velocity":58,"Duration":288240,"SoundDuration":288240,"Delta":207807742},{"NoteNumber":67,"Velocity":58,"Duration":288240,"SoundDuration":288240,"Delta":207807742},{"NoteNumber":72,"Velocity":70,"Duration":288240,"SoundDuration":288240,"Delta":207807742},{"NoteNumber":57,"Velocity":52,"Duration":288240,"SoundDuration":288240,"Delta":207807742},{"NoteNumber":63,"Velocity":63,"Duration":779490,"SoundDuration":779490,"Delta":208095982},{"NoteNumber":67,"Velocity":63,"Duration":779490,"SoundDuration":779490,"Delta":208095982},{"NoteNumber":72,"Velocity":77,"Duration":779490,"SoundDuration":779490,"Delta":208095982},{"NoteNumber":75,"Velocity":77,"Duration":779490,"SoundDuration":779490,"Delta":208095982},{"NoteNumber":57,"Velocity":59,"Duration":779490,"SoundDuration":779490,"Delta":208095982},{"NoteNumber":67,"Velocity":58,"Duration":385509,"SoundDuration":385509,"Delta":208875472},{"NoteNumber":69,"Velocity":58,"Duration":385509,"SoundDuration":385509,"Delta":208875472},{"NoteNumber":72,"Velocity":70,"Duration":385509,"SoundDuration":385509,"Delta":208875472},{"NoteNumber":63,"Velocity":59,"Duration":385509,"SoundDuration":385509,"Delta":208875472},{"NoteNumber":67,"Velocity":63,"Duration":130537,"SoundDuration":130537,"Delta":209260981},{"NoteNumber":69,"Velocity":63,"Duration":130537,"SoundDuration":130537,"Delta":209260981},{"NoteNumber":74,"Velocity":77,"Duration":130537,"SoundDuration":130537,"Delta":209260981},{"NoteNumber":62,"Velocity":57,"Duration":130537,"SoundDuration":130537,"Delta":209260981},{"NoteNumber":67,"Velocity":62,"Duration":295974,"SoundDuration":295974,"Delta":209391518},{"NoteNumber":69,"Velocity":62,"Duration":295974,"SoundDuration":295974,"Delta":209391518},{"NoteNumber":75,"Velocity":74,"Duration":295974,"SoundDuration":295974,"Delta":209391518},{"NoteNumber":60,"Velocity":57,"Duration":295974,"SoundDuration":295974,"Delta":209391518},{"NoteNumber":67,"Velocity":70,"Duration":1123455,"SoundDuration":1123455,"Delta":209687492},{"NoteNumber":69,"Velocity":70,"Duration":1123455,"SoundDuration":1123455,"Delta":209687492},{"NoteNumber":75,"Velocity":82,"Duration":1123455,"SoundDuration":1123455,"Delta":209687492},{"NoteNumber":81,"Velocity":82,"Duration":1123455,"SoundDuration":1123455,"Delta":209687492},{"NoteNumber":60,"Velocity":61,"Duration":1115653,"SoundDuration":1115653,"Delta":209687492},{"NoteNumber":60,"Velocity":58,"Duration":788451,"SoundDuration":788451,"Delta":210810947},{"NoteNumber":67,"Velocity":69,"Duration":389745,"SoundDuration":389745,"Delta":210810947},{"NoteNumber":63,"Velocity":58,"Duration":788451,"SoundDuration":788451,"Delta":210810947},{"NoteNumber":57,"Velocity":52,"Duration":788451,"SoundDuration":788451,"Delta":210810947},{"NoteNumber":69,"Velocity":60,"Duration":130058,"SoundDuration":130058,"Delta":211200692},{"NoteNumber":67,"Velocity":58,"Duration":268648,"SoundDuration":268648,"Delta":211330750},{"NoteNumber":67,"Velocity":58,"Duration":803990,"SoundDuration":803990,"Delta":211599399},{"NoteNumber":62,"Velocity":58,"Duration":803990,"SoundDuration":803990,"Delta":211599399},{"NoteNumber":74,"Velocity":69,"Duration":803990,"SoundDuration":803990,"Delta":211599399},{"NoteNumber":58,"Velocity":51,"Duration":803990,"SoundDuration":803990,"Delta":211599399},{"NoteNumber":50,"Velocity":51,"Duration":398518,"SoundDuration":398518,"Delta":211599399},{"NoteNumber":49,"Velocity":41,"Duration":137614,"SoundDuration":137614,"Delta":211997918},{"NoteNumber":50,"Velocity":47,"Duration":267856,"SoundDuration":267856,"Delta":212135532},{"NoteNumber":50,"Velocity":47,"Duration":788513,"SoundDuration":788513,"Delta":212403389},{"NoteNumber":62,"Velocity":57,"Duration":129310,"SoundDuration":129310,"Delta":212791320},{"NoteNumber":62,"Velocity":53,"Duration":271272,"SoundDuration":271272,"Delta":212920630},{"NoteNumber":60,"Velocity":56,"Duration":790867,"SoundDuration":790867,"Delta":213191903},{"NoteNumber":63,"Velocity":67,"Duration":391611,"SoundDuration":391611,"Delta":213191903},{"NoteNumber":57,"Velocity":56,"Duration":790867,"SoundDuration":790867,"Delta":213191903},{"NoteNumber":55,"Velocity":49,"Duration":1583463,"SoundDuration":1583463,"Delta":213191903},{"NoteNumber":50,"Velocity":49,"Duration":391611,"SoundDuration":391611,"Delta":213191903},{"NoteNumber":67,"Velocity":59,"Duration":130607,"SoundDuration":130607,"Delta":213583514},{"NoteNumber":49,"Velocity":41,"Duration":130607,"SoundDuration":130607,"Delta":213583514},{"NoteNumber":69,"Velocity":59,"Duration":268648,"SoundDuration":268648,"Delta":213714121},{"NoteNumber":50,"Velocity":49,"Duration":268648,"SoundDuration":268648,"Delta":213714121},{"NoteNumber":63,"Velocity":57,"Duration":792596,"SoundDuration":792596,"Delta":213982770},{"NoteNumber":67,"Velocity":57,"Duration":792596,"SoundDuration":792596,"Delta":213982770},{"NoteNumber":72,"Velocity":68,"Duration":387930,"SoundDuration":387930,"Delta":213982770},{"NoteNumber":50,"Velocity":48,"Duration":792596,"SoundDuration":792596,"Delta":213982770},{"NoteNumber":74,"Velocity":59,"Duration":129310,"SoundDuration":129310,"Delta":214370701},{"NoteNumber":75,"Velocity":59,"Duration":275355,"SoundDuration":275355,"Delta":214500011},{"NoteNumber":67,"Velocity":56,"Duration":830104,"SoundDuration":830104,"Delta":214775366},{"NoteNumber":74,"Velocity":67,"Duration":830104,"SoundDuration":830104,"Delta":214775366},{"NoteNumber":62,"Velocity":56,"Duration":830104,"SoundDuration":830104,"Delta":214775366},{"NoteNumber":50,"Velocity":49,"Duration":415052,"SoundDuration":415052,"Delta":214775366},{"NoteNumber":58,"Velocity":49,"Duration":830104,"SoundDuration":830104,"Delta":214775366},{"NoteNumber":49,"Velocity":41,"Duration":138350,"SoundDuration":138350,"Delta":215190419},{"NoteNumber":50,"Velocity":49,"Duration":276701,"SoundDuration":276701,"Delta":215328769},{"NoteNumber":61,"Velocity":55,"Duration":792596,"SoundDuration":792596,"Delta":215605471},{"NoteNumber":67,"Velocity":66,"Duration":387930,"SoundDuration":387930,"Delta":215605471},{"NoteNumber":51,"Velocity":48,"Duration":792596,"SoundDuration":792596,"Delta":215605471},{"NoteNumber":58,"Velocity":48,"Duration":792596,"SoundDuration":792596,"Delta":215605471},{"NoteNumber":72,"Velocity":56,"Duration":129310,"SoundDuration":129310,"Delta":215993402},{"NoteNumber":70,"Velocity":59,"Duration":275355,"SoundDuration":275355,"Delta":216122712},{"NoteNumber":60,"Velocity":55,"Duration":680444,"SoundDuration":680444,"Delta":216398067},{"NoteNumber":68,"Velocity":66,"Duration":400427,"SoundDuration":400427,"Delta":216398067},{"NoteNumber":51,"Velocity":48,"Duration":835403,"SoundDuration":835403,"Delta":216398067},{"NoteNumber":44,"Velocity":48,"Duration":835403,"SoundDuration":835403,"Delta":216398067},{"NoteNumber":72,"Velocity":55,"Duration":133475,"SoundDuration":133475,"Delta":216798495},{"NoteNumber":67,"Velocity":56,"Duration":146541,"SoundDuration":146541,"Delta":216931970},{"NoteNumber":66,"Velocity":55,"Duration":77479,"SoundDuration":77479,"Delta":217078512},{"NoteNumber":67,"Velocity":56,"Duration":77479,"SoundDuration":77479,"Delta":217155991},{"NoteNumber":60,"Velocity":52,"Duration":855496,"SoundDuration":855496,"Delta":217233471},{"NoteNumber":66,"Velocity":62,"Duration":416936,"SoundDuration":416936,"Delta":217233471},{"NoteNumber":50,"Velocity":48,"Duration":855496,"SoundDuration":855496,"Delta":217233471},{"NoteNumber":64,"Velocity":55,"Duration":138979,"SoundDuration":138979,"Delta":217650408},{"NoteNumber":66,"Velocity":55,"Duration":299580,"SoundDuration":299580,"Delta":217789387},{"NoteNumber":67,"Velocity":52,"Duration":819590,"SoundDuration":819590,"Delta":218088967},{"NoteNumber":58,"Velocity":44,"Duration":819590,"SoundDuration":819590,"Delta":218088967},{"NoteNumber":43,"Velocity":49,"Duration":819590,"SoundDuration":819590,"Delta":218088967},{"NoteNumber":50,"Velocity":49,"Duration":421386,"SoundDuration":421386,"Delta":218088967},{"NoteNumber":51,"Velocity":41,"Duration":136423,"SoundDuration":136423,"Delta":218510353},{"NoteNumber":50,"Velocity":49,"Duration":261779,"SoundDuration":261779,"Delta":218646777},{"NoteNumber":57,"Velocity":45,"Duration":765859,"SoundDuration":765859,"Delta":218908557},{"NoteNumber":60,"Velocity":45,"Duration":376348,"SoundDuration":376348,"Delta":218908557},{"NoteNumber":62,"Velocity":53,"Duration":376348,"SoundDuration":376348,"Delta":218908557},{"NoteNumber":50,"Velocity":48,"Duration":765859,"SoundDuration":765859,"Delta":218908557},{"NoteNumber":60,"Velocity":45,"Duration":125449,"SoundDuration":125449,"Delta":219284906},{"NoteNumber":62,"Velocity":53,"Duration":125449,"SoundDuration":125449,"Delta":219284906},{"NoteNumber":60,"Velocity":49,"Duration":264061,"SoundDuration":264061,"Delta":219410355},{"NoteNumber":62,"Velocity":49,"Duration":264061,"SoundDuration":264061,"Delta":219410355},{"NoteNumber":58,"Velocity":47,"Duration":531705,"SoundDuration":531705,"Delta":219674417},{"NoteNumber":62,"Velocity":47,"Duration":531705,"SoundDuration":531705,"Delta":219674417},{"NoteNumber":67,"Velocity":56,"Duration":531705,"SoundDuration":531705,"Delta":219674417},{"NoteNumber":43,"Velocity":51,"Duration":790951,"SoundDuration":790951,"Delta":219674417},{"NoteNumber":50,"Velocity":51,"Duration":395341,"SoundDuration":395341,"Delta":219674417},{"NoteNumber":51,"Velocity":42,"Duration":136363,"SoundDuration":136363,"Delta":220069759},{"NoteNumber":69,"Velocity":55,"Duration":259246,"SoundDuration":259246,"Delta":220206122},{"NoteNumber":50,"Velocity":51,"Duration":259246,"SoundDuration":259246,"Delta":220206122},{"NoteNumber":63,"Velocity":51,"Duration":508733,"SoundDuration":508733,"Delta":220465369},{"NoteNumber":66,"Velocity":60,"Duration":508733,"SoundDuration":508733,"Delta":220465369},{"NoteNumber":70,"Velocity":60,"Duration":508733,"SoundDuration":508733,"Delta":220465369},{"NoteNumber":50,"Velocity":50,"Duration":767376,"SoundDuration":767376,"Delta":220465369},{"NoteNumber":69,"Velocity":54,"Duration":258643,"SoundDuration":258643,"Delta":220974102},{"NoteNumber":62,"Velocity":48,"Duration":533168,"SoundDuration":533168,"Delta":221232745},{"NoteNumber":67,"Velocity":57,"Duration":533168,"SoundDuration":533168,"Delta":221232745},{"NoteNumber":50,"Velocity":51,"Duration":396804,"SoundDuration":396804,"Delta":221232745},{"NoteNumber":43,"Velocity":51,"Duration":786332,"SoundDuration":786332,"Delta":221232745},{"NoteNumber":51,"Velocity":42,"Duration":136363,"SoundDuration":136363,"Delta":221629550},{"NoteNumber":67,"Velocity":53,"Duration":253164,"SoundDuration":253164,"Delta":221765913},{"NoteNumber":50,"Velocity":51,"Duration":253164,"SoundDuration":253164,"Delta":221765913},{"NoteNumber":57,"Velocity":40,"Duration":767831,"SoundDuration":767831,"Delta":222019078},{"NoteNumber":60,"Velocity":53,"Duration":372639,"SoundDuration":372639,"Delta":222019078},{"NoteNumber":62,"Velocity":53,"Duration":372639,"SoundDuration":372639,"Delta":222019078},{"NoteNumber":50,"Velocity":50,"Duration":767831,"SoundDuration":767831,"Delta":222019078},{"NoteNumber":60,"Velocity":53,"Duration":124213,"SoundDuration":124213,"Delta":222391718},{"NoteNumber":62,"Velocity":53,"Duration":124213,"SoundDuration":124213,"Delta":222391718},{"NoteNumber":60,"Velocity":53,"Duration":270978,"SoundDuration":270978,"Delta":222515931},{"NoteNumber":62,"Velocity":53,"Duration":270978,"SoundDuration":270978,"Delta":222515931},{"NoteNumber":58,"Velocity":47,"Duration":523560,"SoundDuration":523560,"Delta":222786909},{"NoteNumber":62,"Velocity":56,"Duration":523560,"SoundDuration":523560,"Delta":222786909},{"NoteNumber":67,"Velocity":56,"Duration":523560,"SoundDuration":523560,"Delta":222786909},{"NoteNumber":50,"Velocity":51,"Duration":392670,"SoundDuration":392670,"Delta":222786909},{"NoteNumber":43,"Velocity":51,"Duration":800108,"SoundDuration":800108,"Delta":222786909},{"NoteNumber":51,"Velocity":40,"Duration":130889,"SoundDuration":130889,"Delta":223179579},{"NoteNumber":69,"Velocity":54,"Duration":207411,"SoundDuration":207411,"Delta":223310469},{"NoteNumber":50,"Velocity":49,"Duration":276548,"SoundDuration":276548,"Delta":223310469},{"NoteNumber":72,"Velocity":44,"Duration":91494,"SoundDuration":91494,"Delta":223517880},{"NoteNumber":63,"Velocity":56,"Duration":536576,"SoundDuration":536576,"Delta":223587017},{"NoteNumber":66,"Velocity":56,"Duration":536576,"SoundDuration":536576,"Delta":223587017},{"NoteNumber":70,"Velocity":56,"Duration":536576,"SoundDuration":536576,"Delta":223587017},{"NoteNumber":50,"Velocity":47,"Duration":841238,"SoundDuration":841238,"Delta":223587017},{"NoteNumber":60,"Velocity":47,"Duration":841238,"SoundDuration":841238,"Delta":223587017},{"NoteNumber":69,"Velocity":52,"Duration":304661,"SoundDuration":304661,"Delta":224123594},{"NoteNumber":58,"Velocity":49,"Duration":288461,"SoundDuration":288461,"Delta":224428256},{"NoteNumber":62,"Velocity":49,"Duration":288461,"SoundDuration":288461,"Delta":224428256},{"NoteNumber":67,"Velocity":49,"Duration":288461,"SoundDuration":288461,"Delta":224428256},{"NoteNumber":50,"Velocity":41,"Duration":288461,"SoundDuration":288461,"Delta":224428256},{"NoteNumber":43,"Velocity":41,"Duration":288461,"SoundDuration":288461,"Delta":224428256},{"NoteNumber":54,"Velocity":49,"Duration":138747,"SoundDuration":138747,"Delta":224716717},{"NoteNumber":42,"Velocity":49,"Duration":138747,"SoundDuration":138747,"Delta":224716717},{"NoteNumber":55,"Velocity":49,"Duration":135154,"SoundDuration":135154,"Delta":224855465},{"NoteNumber":43,"Velocity":49,"Duration":135154,"SoundDuration":135154,"Delta":224855465},{"NoteNumber":57,"Velocity":50,"Duration":133921,"SoundDuration":133921,"Delta":224990619},{"NoteNumber":45,"Velocity":50,"Duration":133921,"SoundDuration":133921,"Delta":224990619},{"NoteNumber":58,"Velocity":51,"Duration":132824,"SoundDuration":132824,"Delta":225124540},{"NoteNumber":46,"Velocity":51,"Duration":132824,"SoundDuration":132824,"Delta":225124540},{"NoteNumber":61,"Velocity":52,"Duration":131737,"SoundDuration":131737,"Delta":225257365},{"NoteNumber":49,"Velocity":52,"Duration":131737,"SoundDuration":131737,"Delta":225257365},{"NoteNumber":62,"Velocity":53,"Duration":130571,"SoundDuration":130571,"Delta":225389103},{"NoteNumber":50,"Velocity":53,"Duration":130571,"SoundDuration":130571,"Delta":225389103},{"NoteNumber":57,"Velocity":50,"Duration":129523,"SoundDuration":129523,"Delta":225519674},{"NoteNumber":45,"Velocity":50,"Duration":129523,"SoundDuration":129523,"Delta":225519674},{"NoteNumber":58,"Velocity":51,"Duration":128497,"SoundDuration":128497,"Delta":225649198},{"NoteNumber":46,"Velocity":51,"Duration":128497,"SoundDuration":128497,"Delta":225649198},{"NoteNumber":61,"Velocity":51,"Duration":127486,"SoundDuration":127486,"Delta":225777696},{"NoteNumber":49,"Velocity":51,"Duration":127486,"SoundDuration":127486,"Delta":225777696},{"NoteNumber":62,"Velocity":52,"Duration":126387,"SoundDuration":126387,"Delta":225905183},{"NoteNumber":50,"Velocity":52,"Duration":126387,"SoundDuration":126387,"Delta":225905183},{"NoteNumber":66,"Velocity":53,"Duration":125505,"SoundDuration":125505,"Delta":226031570},{"NoteNumber":54,"Velocity":53,"Duration":125505,"SoundDuration":125505,"Delta":226031570},{"NoteNumber":67,"Velocity":56,"Duration":126689,"SoundDuration":126689,"Delta":226157076},{"NoteNumber":55,"Velocity":56,"Duration":126689,"SoundDuration":126689,"Delta":226157076},{"NoteNumber":61,"Velocity":51,"Duration":122140,"SoundDuration":122140,"Delta":226283766},{"NoteNumber":49,"Velocity":51,"Duration":122140,"SoundDuration":122140,"Delta":226283766},{"NoteNumber":62,"Velocity":52,"Duration":122140,"SoundDuration":122140,"Delta":226405906},{"NoteNumber":50,"Velocity":52,"Duration":122140,"SoundDuration":122140,"Delta":226405906},{"NoteNumber":66,"Velocity":56,"Duration":122140,"SoundDuration":122140,"Delta":226528046},{"NoteNumber":54,"Velocity":56,"Duration":122140,"SoundDuration":122140,"Delta":226528046},{"NoteNumber":67,"Velocity":57,"Duration":122140,"SoundDuration":122140,"Delta":226650186},{"NoteNumber":55,"Velocity":57,"Duration":122140,"SoundDuration":122140,"Delta":226650186},{"NoteNumber":69,"Velocity":59,"Duration":122140,"SoundDuration":122140,"Delta":226772326},{"NoteNumber":57,"Velocity":59,"Duration":122140,"SoundDuration":122140,"Delta":226772326},{"NoteNumber":70,"Velocity":60,"Duration":126326,"SoundDuration":126326,"Delta":226894466},{"NoteNumber":58,"Velocity":60,"Duration":126326,"SoundDuration":126326,"Delta":226894466},{"NoteNumber":66,"Velocity":56,"Duration":122140,"SoundDuration":122140,"Delta":227020792},{"NoteNumber":54,"Velocity":56,"Duration":122140,"SoundDuration":122140,"Delta":227020792},{"NoteNumber":67,"Velocity":58,"Duration":122140,"SoundDuration":122140,"Delta":227142932},{"NoteNumber":55,"Velocity":58,"Duration":122140,"SoundDuration":122140,"Delta":227142932},{"NoteNumber":69,"Velocity":59,"Duration":122140,"SoundDuration":122140,"Delta":227265072},{"NoteNumber":57,"Velocity":59,"Duration":122140,"SoundDuration":122140,"Delta":227265072},{"NoteNumber":70,"Velocity":60,"Duration":122140,"SoundDuration":122140,"Delta":227387212},{"NoteNumber":58,"Velocity":60,"Duration":122140,"SoundDuration":122140,"Delta":227387212},{"NoteNumber":73,"Velocity":61,"Duration":122140,"SoundDuration":122140,"Delta":227509352},{"NoteNumber":61,"Velocity":61,"Duration":122140,"SoundDuration":122140,"Delta":227509352},{"NoteNumber":74,"Velocity":62,"Duration":126326,"SoundDuration":126326,"Delta":227631492},{"NoteNumber":62,"Velocity":62,"Duration":126326,"SoundDuration":126326,"Delta":227631492},{"NoteNumber":69,"Velocity":57,"Duration":121653,"SoundDuration":121653,"Delta":227757819},{"NoteNumber":57,"Velocity":57,"Duration":121653,"SoundDuration":121653,"Delta":227757819},{"NoteNumber":70,"Velocity":58,"Duration":121555,"SoundDuration":121555,"Delta":227879472},{"NoteNumber":58,"Velocity":58,"Duration":121555,"SoundDuration":121555,"Delta":227879472},{"NoteNumber":73,"Velocity":60,"Duration":121082,"SoundDuration":121082,"Delta":228001028},{"NoteNumber":61,"Velocity":60,"Duration":121082,"SoundDuration":121082,"Delta":228001028},{"NoteNumber":74,"Velocity":61,"Duration":120987,"SoundDuration":120987,"Delta":228122110},{"NoteNumber":62,"Velocity":61,"Duration":120987,"SoundDuration":120987,"Delta":228122110},{"NoteNumber":78,"Velocity":64,"Duration":120517,"SoundDuration":120517,"Delta":228243097},{"NoteNumber":66,"Velocity":64,"Duration":120517,"SoundDuration":120517,"Delta":228243097},{"NoteNumber":79,"Velocity":66,"Duration":124315,"SoundDuration":124315,"Delta":228363615},{"NoteNumber":67,"Velocity":66,"Duration":124315,"SoundDuration":124315,"Delta":228363615},{"NoteNumber":73,"Velocity":59,"Duration":119303,"SoundDuration":119303,"Delta":228487931},{"NoteNumber":61,"Velocity":68,"Duration":119303,"SoundDuration":119303,"Delta":228487931},{"NoteNumber":74,"Velocity":61,"Duration":119303,"SoundDuration":119303,"Delta":228607234},{"NoteNumber":62,"Velocity":61,"Duration":119303,"SoundDuration":119303,"Delta":228607234},{"NoteNumber":78,"Velocity":63,"Duration":118755,"SoundDuration":118755,"Delta":228726537},{"NoteNumber":66,"Velocity":63,"Duration":118755,"SoundDuration":118755,"Delta":228726537},{"NoteNumber":79,"Velocity":64,"Duration":118755,"SoundDuration":118755,"Delta":228845293},{"NoteNumber":67,"Velocity":65,"Duration":118755,"SoundDuration":118755,"Delta":228845293},{"NoteNumber":81,"Velocity":66,"Duration":118212,"SoundDuration":118212,"Delta":228964048},{"NoteNumber":69,"Velocity":67,"Duration":118212,"SoundDuration":118212,"Delta":228964048},{"NoteNumber":82,"Velocity":68,"Duration":121305,"SoundDuration":121305,"Delta":229082261},{"NoteNumber":70,"Velocity":68,"Duration":121305,"SoundDuration":121305,"Delta":229082261},{"NoteNumber":78,"Velocity":64,"Duration":117132,"SoundDuration":117132,"Delta":229203566},{"NoteNumber":66,"Velocity":70,"Duration":117132,"SoundDuration":117132,"Delta":229203566},{"NoteNumber":79,"Velocity":66,"Duration":117132,"SoundDuration":117132,"Delta":229320699},{"NoteNumber":67,"Velocity":62,"Duration":117132,"SoundDuration":117132,"Delta":229320699},{"NoteNumber":81,"Velocity":69,"Duration":117132,"SoundDuration":117132,"Delta":229437831},{"NoteNumber":69,"Velocity":66,"Duration":117132,"SoundDuration":117132,"Delta":229437831},{"NoteNumber":82,"Velocity":72,"Duration":117132,"SoundDuration":117132,"Delta":229554964},{"NoteNumber":70,"Velocity":69,"Duration":117132,"SoundDuration":117132,"Delta":229554964},{"NoteNumber":85,"Velocity":74,"Duration":117132,"SoundDuration":117132,"Delta":229672096},{"NoteNumber":73,"Velocity":72,"Duration":117132,"SoundDuration":117132,"Delta":229672096},{"NoteNumber":86,"Velocity":77,"Duration":121555,"SoundDuration":121555,"Delta":229789229},{"NoteNumber":74,"Velocity":76,"Duration":121555,"SoundDuration":121555,"Delta":229789229},{"NoteNumber":81,"Velocity":74,"Duration":119401,"SoundDuration":119401,"Delta":229910785},{"NoteNumber":69,"Velocity":74,"Duration":119401,"SoundDuration":119401,"Delta":229910785},{"NoteNumber":82,"Velocity":77,"Duration":121562,"SoundDuration":121562,"Delta":230030186},{"NoteNumber":70,"Velocity":77,"Duration":121562,"SoundDuration":121562,"Delta":230030186},{"NoteNumber":85,"Velocity":81,"Duration":123896,"SoundDuration":123896,"Delta":230151748},{"NoteNumber":73,"Velocity":81,"Duration":123896,"SoundDuration":123896,"Delta":230151748},{"NoteNumber":86,"Velocity":83,"Duration":136351,"SoundDuration":136351,"Delta":230275645},{"NoteNumber":74,"Velocity":83,"Duration":136351,"SoundDuration":136351,"Delta":230275645},{"NoteNumber":91,"Velocity":93,"Duration":757958,"SoundDuration":757958,"Delta":230411996},{"NoteNumber":79,"Velocity":93,"Duration":757958,"SoundDuration":757958,"Delta":230411996},{"NoteNumber":72,"Velocity":79,"Duration":757958,"SoundDuration":757958,"Delta":231169955},{"NoteNumber":74,"Velocity":79,"Duration":757958,"SoundDuration":757958,"Delta":231169955},{"NoteNumber":78,"Velocity":93,"Duration":757958,"SoundDuration":757958,"Delta":231169955},{"NoteNumber":86,"Velocity":93,"Duration":757958,"SoundDuration":757958,"Delta":231169955},{"NoteNumber":81,"Velocity":93,"Duration":757958,"SoundDuration":757958,"Delta":231169955},{"NoteNumber":50,"Velocity":84,"Duration":757958,"SoundDuration":757958,"Delta":231169955},{"NoteNumber":38,"Velocity":70,"Duration":757958,"SoundDuration":757958,"Delta":231169955},{"NoteNumber":70,"Velocity":79,"Duration":757958,"SoundDuration":757958,"Delta":231927914},{"NoteNumber":74,"Velocity":79,"Duration":757958,"SoundDuration":757958,"Delta":231927914},{"NoteNumber":82,"Velocity":93,"Duration":757958,"SoundDuration":757958,"Delta":231927914},{"NoteNumber":79,"Velocity":93,"Duration":757958,"SoundDuration":757958,"Delta":231927914},{"NoteNumber":43,"Velocity":84,"Duration":757958,"SoundDuration":757958,"Delta":231927914},{"NoteNumber":55,"Velocity":84,"Duration":757958,"SoundDuration":757958,"Delta":231927914},{"NoteNumber":69,"Velocity":79,"Duration":757958,"SoundDuration":757958,"Delta":232685873},{"NoteNumber":72,"Velocity":79,"Duration":757958,"SoundDuration":757958,"Delta":232685873},{"NoteNumber":74,"Velocity":93,"Duration":757958,"SoundDuration":757958,"Delta":232685873},{"NoteNumber":78,"Velocity":93,"Duration":757958,"SoundDuration":757958,"Delta":232685873},{"NoteNumber":50,"Velocity":84,"Duration":757958,"SoundDuration":757958,"Delta":232685873},{"NoteNumber":38,"Velocity":70,"Duration":757958,"SoundDuration":757958,"Delta":232685873},{"NoteNumber":67,"Velocity":86,"Duration":1515917,"SoundDuration":1515917,"Delta":233443832},{"NoteNumber":70,"Velocity":86,"Duration":1515917,"SoundDuration":1515917,"Delta":233443832},{"NoteNumber":74,"Velocity":96,"Duration":1515917,"SoundDuration":1515917,"Delta":233443832},{"NoteNumber":79,"Velocity":102,"Duration":1515917,"SoundDuration":1515917,"Delta":233443832},{"NoteNumber":31,"Velocity":77,"Duration":1515917,"SoundDuration":1515917,"Delta":233443832},{"NoteNumber":43,"Velocity":92,"Duration":1515917,"SoundDuration":1515917,"Delta":233443832},{"NoteNumber":91,"Velocity":108,"Duration":1515917,"SoundDuration":1515917,"Delta":234959750},{"NoteNumber":86,"Velocity":102,"Duration":1515917,"SoundDuration":1515917,"Delta":234959750},{"NoteNumber":79,"Velocity":90,"Duration":1515917,"SoundDuration":1515917,"Delta":234959750},{"NoteNumber":70,"Velocity":93,"Duration":1515917,"SoundDuration":1515917,"Delta":234959750},{"NoteNumber":55,"Velocity":79,"Duration":1515917,"SoundDuration":1515917,"Delta":234959750},{"NoteNumber":62,"Velocity":79,"Duration":1515917,"SoundDuration":1515917,"Delta":234959750}],"license":{"name":"Creative Commons Attribution-ShareAlike 3.0 Germany","url":"http://creativecommons.org/licenses/by-sa/3.0/de/deed.en","text":"The MIDI files in this folder were downloaded from http://www.piano-midi.de and are licensed under the Creative Commons Attribution-ShareAlike 3.0 Germany license by Bernd Krueger.\n\nThe MIDI, audio(MP3, OGG) and video files of Bernd Krueger are licensed under the cc-by-sa Germany License . This means, that you can use and adapt the files, as long as you attribute to the copyright holder Name: Bernd Krueger Source: http://www.piano-midi.de The distribution or public playback of the files is only allowed under identical license conditions . The scores are open source.","attribution":"Bernd Krueger","attributionUrl":"http://www.piano-midi.de"}}