{"title":"Cuba","artist":"Albéniz","durationMs":268753,"midiSha256":"84a66c2c9da3fe2573bc39795055a5667f61d58cd4d31cd06c52fb6423af888b","midiObject":[{"NoteNumber":58,"Velocity":38,"Duration":252164,"SoundDuration":252164,"Delta":0},{"NoteNumber":67,"Velocity":49,"Duration":756493,"SoundDuration":756493,"Delta":0},{"NoteNumber":63,"Velocity":41,"Duration":756493,"SoundDuration":756493,"Delta":0},{"NoteNumber":39,"Velocity":36,"Duration":756493,"SoundDuration":756493,"Delta":0},{"NoteNumber":51,"Velocity":43,"Duration":756493,"SoundDuration":756493,"Delta":0},{"NoteNumber":57,"Velocity":37,"Duration":252164,"SoundDuration":252164,"Delta":252164},{"NoteNumber":58,"Velocity":38,"Duration":252164,"SoundDuration":252164,"Delta":504329},{"NoteNumber":55,"Velocity":45,"Duration":255318,"SoundDuration":255318,"Delta":756493},{"NoteNumber":67,"Velocity":50,"Duration":490095,"SoundDuration":490095,"Delta":1011812},{"NoteNumber":63,"Velocity":50,"Duration":490095,"SoundDuration":490095,"Delta":1011812},{"NoteNumber":55,"Velocity":47,"Duration":241935,"SoundDuration":241935,"Delta":1011812},{"NoteNumber":34,"Velocity":34,"Duration":490095,"SoundDuration":490095,"Delta":1011812},{"NoteNumber":46,"Velocity":41,"Duration":490095,"SoundDuration":490095,"Delta":1011812},{"NoteNumber":58,"Velocity":42,"Duration":248159,"SoundDuration":248159,"Delta":1253748},{"NoteNumber":57,"Velocity":38,"Duration":237153,"SoundDuration":237153,"Delta":1501907},{"NoteNumber":62,"Velocity":41,"Duration":705967,"SoundDuration":705967,"Delta":1501907},{"NoteNumber":68,"Velocity":49,"Duration":705967,"SoundDuration":705967,"Delta":1501907},{"NoteNumber":53,"Velocity":44,"Duration":705967,"SoundDuration":705967,"Delta":1501907},{"NoteNumber":41,"Velocity":36,"Duration":705967,"SoundDuration":705967,"Delta":1501907},{"NoteNumber":58,"Velocity":38,"Duration":231659,"SoundDuration":231659,"Delta":1739061},{"NoteNumber":60,"Velocity":42,"Duration":237154,"SoundDuration":237154,"Delta":1970721},{"NoteNumber":61,"Velocity":39,"Duration":245901,"SoundDuration":245901,"Delta":2207875},{"NoteNumber":62,"Velocity":38,"Duration":241935,"SoundDuration":241935,"Delta":2453777},{"NoteNumber":68,"Velocity":48,"Duration":495099,"SoundDuration":495099,"Delta":2453777},{"NoteNumber":34,"Velocity":34,"Duration":495099,"SoundDuration":495099,"Delta":2453777},{"NoteNumber":46,"Velocity":41,"Duration":495099,"SoundDuration":495099,"Delta":2453777},{"NoteNumber":58,"Velocity":40,"Duration":253164,"SoundDuration":253164,"Delta":2695712},{"NoteNumber":67,"Velocity":46,"Duration":729978,"SoundDuration":729978,"Delta":2948877},{"NoteNumber":58,"Velocity":36,"Duration":240499,"SoundDuration":240499,"Delta":2948877},{"NoteNumber":63,"Velocity":38,"Duration":729978,"SoundDuration":729978,"Delta":2948877},{"NoteNumber":51,"Velocity":40,"Duration":729978,"SoundDuration":729978,"Delta":2948877},{"NoteNumber":39,"Velocity":34,"Duration":729978,"SoundDuration":729978,"Delta":2948877},{"NoteNumber":57,"Velocity":38,"Duration":245217,"SoundDuration":245217,"Delta":3189377},{"NoteNumber":58,"Velocity":42,"Duration":244260,"SoundDuration":244260,"Delta":3434595},{"NoteNumber":55,"Velocity":45,"Duration":243309,"SoundDuration":243309,"Delta":3678855},{"NoteNumber":67,"Velocity":50,"Duration":490464,"SoundDuration":490464,"Delta":3922164},{"NoteNumber":63,"Velocity":50,"Duration":490464,"SoundDuration":490464,"Delta":3922164},{"NoteNumber":55,"Velocity":47,"Duration":246204,"SoundDuration":246204,"Delta":3922164},{"NoteNumber":34,"Velocity":34,"Duration":490464,"SoundDuration":490464,"Delta":3922164},{"NoteNumber":46,"Velocity":41,"Duration":490464,"SoundDuration":490464,"Delta":3922164},{"NoteNumber":58,"Velocity":41,"Duration":244259,"SoundDuration":244259,"Delta":4168368},{"NoteNumber":62,"Velocity":38,"Duration":708782,"SoundDuration":708782,"Delta":4412628},{"NoteNumber":57,"Velocity":36,"Duration":235941,"SoundDuration":235941,"Delta":4412628},{"NoteNumber":68,"Velocity":46,"Duration":708782,"SoundDuration":708782,"Delta":4412628},{"NoteNumber":53,"Velocity":41,"Duration":708782,"SoundDuration":708782,"Delta":4412628},{"NoteNumber":41,"Velocity":34,"Duration":708782,"SoundDuration":708782,"Delta":4412628},{"NoteNumber":58,"Velocity":37,"Duration":233281,"SoundDuration":233281,"Delta":4648570},{"NoteNumber":60,"Velocity":42,"Duration":239558,"SoundDuration":239558,"Delta":4881851},{"NoteNumber":61,"Velocity":42,"Duration":250145,"SoundDuration":250145,"Delta":5121410},{"NoteNumber":62,"Velocity":38,"Duration":258464,"SoundDuration":258464,"Delta":5371556},{"NoteNumber":68,"Velocity":48,"Duration":529295,"SoundDuration":529295,"Delta":5371556},{"NoteNumber":34,"Velocity":34,"Duration":529295,"SoundDuration":529295,"Delta":5371556},{"NoteNumber":46,"Velocity":41,"Duration":529295,"SoundDuration":529295,"Delta":5371556},{"NoteNumber":58,"Velocity":40,"Duration":270831,"SoundDuration":270831,"Delta":5630021},{"NoteNumber":63,"Velocity":47,"Duration":246204,"SoundDuration":246204,"Delta":5900852},{"NoteNumber":75,"Velocity":47,"Duration":246204,"SoundDuration":246204,"Delta":5900852},{"NoteNumber":51,"Velocity":44,"Duration":246204,"SoundDuration":246204,"Delta":5900852},{"NoteNumber":65,"Velocity":41,"Duration":232734,"SoundDuration":232734,"Delta":6147057},{"NoteNumber":77,"Velocity":41,"Duration":232734,"SoundDuration":232734,"Delta":6147057},{"NoteNumber":67,"Velocity":39,"Duration":232734,"SoundDuration":232734,"Delta":6147057},{"NoteNumber":79,"Velocity":49,"Duration":236836,"SoundDuration":236836,"Delta":6379792},{"NoteNumber":67,"Velocity":39,"Duration":487232,"SoundDuration":487232,"Delta":6379792},{"NoteNumber":70,"Velocity":52,"Duration":375594,"SoundDuration":375594,"Delta":6616628},{"NoteNumber":82,"Velocity":52,"Duration":375594,"SoundDuration":375594,"Delta":6616628},{"NoteNumber":63,"Velocity":36,"Duration":250396,"SoundDuration":250396,"Delta":6867024},{"NoteNumber":70,"Velocity":43,"Duration":375594,"SoundDuration":375594,"Delta":6992223},{"NoteNumber":82,"Velocity":43,"Duration":375594,"SoundDuration":375594,"Delta":6992223},{"NoteNumber":58,"Velocity":32,"Duration":250396,"SoundDuration":250396,"Delta":7117421},{"NoteNumber":51,"Velocity":44,"Duration":232414,"SoundDuration":232414,"Delta":7367817},{"NoteNumber":70,"Velocity":52,"Duration":232413,"SoundDuration":232413,"Delta":7600231},{"NoteNumber":82,"Velocity":52,"Duration":232413,"SoundDuration":232413,"Delta":7600231},{"NoteNumber":68,"Velocity":39,"Duration":658368,"SoundDuration":658368,"Delta":7600231},{"NoteNumber":72,"Velocity":50,"Duration":215517,"SoundDuration":215517,"Delta":7832645},{"NoteNumber":84,"Velocity":50,"Duration":215517,"SoundDuration":215517,"Delta":7832645},{"NoteNumber":74,"Velocity":55,"Duration":210437,"SoundDuration":210437,"Delta":8048162},{"NoteNumber":86,"Velocity":55,"Duration":210437,"SoundDuration":210437,"Delta":8048162},{"NoteNumber":89,"Velocity":54,"Duration":214776,"SoundDuration":214776,"Delta":8258600},{"NoteNumber":77,"Velocity":54,"Duration":214776,"SoundDuration":214776,"Delta":8258600},{"NoteNumber":62,"Velocity":37,"Duration":214776,"SoundDuration":214776,"Delta":8258600},{"NoteNumber":86,"Velocity":53,"Duration":223247,"SoundDuration":223247,"Delta":8473376},{"NoteNumber":74,"Velocity":53,"Duration":223247,"SoundDuration":223247,"Delta":8473376},{"NoteNumber":58,"Velocity":37,"Duration":223247,"SoundDuration":223247,"Delta":8473376},{"NoteNumber":84,"Velocity":55,"Duration":211864,"SoundDuration":211864,"Delta":8696624},{"NoteNumber":72,"Velocity":55,"Duration":211864,"SoundDuration":211864,"Delta":8696624},{"NoteNumber":51,"Velocity":44,"Duration":211864,"SoundDuration":211864,"Delta":8696624},{"NoteNumber":74,"Velocity":53,"Duration":221664,"SoundDuration":221664,"Delta":8908488},{"NoteNumber":86,"Velocity":53,"Duration":221664,"SoundDuration":221664,"Delta":8908488},{"NoteNumber":67,"Velocity":39,"Duration":441480,"SoundDuration":441480,"Delta":8908488},{"NoteNumber":72,"Velocity":46,"Duration":221663,"SoundDuration":221663,"Delta":9130152},{"NoteNumber":84,"Velocity":46,"Duration":221663,"SoundDuration":221663,"Delta":9130152},{"NoteNumber":67,"Velocity":51,"Duration":367077,"SoundDuration":367077,"Delta":9351816},{"NoteNumber":79,"Velocity":51,"Duration":367077,"SoundDuration":367077,"Delta":9351816},{"NoteNumber":63,"Velocity":37,"Duration":244717,"SoundDuration":244717,"Delta":9596534},{"NoteNumber":67,"Velocity":43,"Duration":367077,"SoundDuration":367077,"Delta":9718893},{"NoteNumber":79,"Velocity":43,"Duration":367077,"SoundDuration":367077,"Delta":9718893},{"NoteNumber":58,"Velocity":37,"Duration":244718,"SoundDuration":244718,"Delta":9841252},{"NoteNumber":51,"Velocity":44,"Duration":221664,"SoundDuration":221664,"Delta":10085970},{"NoteNumber":65,"Velocity":52,"Duration":221663,"SoundDuration":221663,"Delta":10307634},{"NoteNumber":77,"Velocity":52,"Duration":221663,"SoundDuration":221663,"Delta":10307634},{"NoteNumber":68,"Velocity":39,"Duration":434650,"SoundDuration":434650,"Delta":10307634},{"NoteNumber":67,"Velocity":50,"Duration":214776,"SoundDuration":214776,"Delta":10529298},{"NoteNumber":79,"Velocity":50,"Duration":214776,"SoundDuration":214776,"Delta":10529298},{"NoteNumber":68,"Velocity":55,"Duration":210437,"SoundDuration":210437,"Delta":10744075},{"NoteNumber":80,"Velocity":55,"Duration":210437,"SoundDuration":210437,"Delta":10744075},{"NoteNumber":82,"Velocity":53,"Duration":215517,"SoundDuration":215517,"Delta":10954512},{"NoteNumber":70,"Velocity":53,"Duration":215517,"SoundDuration":215517,"Delta":10954512},{"NoteNumber":62,"Velocity":37,"Duration":215517,"SoundDuration":215517,"Delta":10954512},{"NoteNumber":80,"Velocity":53,"Duration":224047,"SoundDuration":224047,"Delta":11170029},{"NoteNumber":68,"Velocity":53,"Duration":224047,"SoundDuration":224047,"Delta":11170029},{"NoteNumber":58,"Velocity":37,"Duration":224047,"SoundDuration":224047,"Delta":11170029},{"NoteNumber":79,"Velocity":55,"Duration":214040,"SoundDuration":214040,"Delta":11394077},{"NoteNumber":67,"Velocity":55,"Duration":212257,"SoundDuration":212257,"Delta":11394077},{"NoteNumber":51,"Velocity":44,"Duration":214040,"SoundDuration":214040,"Delta":11394077},{"NoteNumber":65,"Velocity":50,"Duration":226091,"SoundDuration":226091,"Delta":11608118},{"NoteNumber":77,"Velocity":50,"Duration":226091,"SoundDuration":226091,"Delta":11608118},{"NoteNumber":67,"Velocity":39,"Duration":700341,"SoundDuration":700341,"Delta":11608118},{"NoteNumber":63,"Velocity":46,"Duration":226091,"SoundDuration":226091,"Delta":11834209},{"NoteNumber":75,"Velocity":46,"Duration":226091,"SoundDuration":226091,"Delta":11834209},{"NoteNumber":58,"Velocity":46,"Duration":372239,"SoundDuration":372239,"Delta":12060300},{"NoteNumber":70,"Velocity":46,"Duration":372239,"SoundDuration":372239,"Delta":12060300},{"NoteNumber":63,"Velocity":37,"Duration":248159,"SoundDuration":248159,"Delta":12308460},{"NoteNumber":58,"Velocity":43,"Duration":372239,"SoundDuration":372239,"Delta":12432540},{"NoteNumber":70,"Velocity":43,"Duration":372239,"SoundDuration":372239,"Delta":12432540},{"NoteNumber":55,"Velocity":36,"Duration":248159,"SoundDuration":248159,"Delta":12556619},{"NoteNumber":46,"Velocity":44,"Duration":230857,"SoundDuration":230857,"Delta":12804779},{"NoteNumber":62,"Velocity":46,"Duration":1147294,"SoundDuration":1147294,"Delta":13035637},{"NoteNumber":65,"Velocity":52,"Duration":230857,"SoundDuration":230857,"Delta":13035637},{"NoteNumber":56,"Velocity":39,"Duration":681003,"SoundDuration":681003,"Delta":13035637},{"NoteNumber":67,"Velocity":49,"Duration":227444,"SoundDuration":227444,"Delta":13266495},{"NoteNumber":68,"Velocity":55,"Duration":222700,"SoundDuration":222700,"Delta":13493940},{"NoteNumber":70,"Velocity":53,"Duration":225056,"SoundDuration":225056,"Delta":13716640},{"NoteNumber":52,"Velocity":37,"Duration":225056,"SoundDuration":225056,"Delta":13716640},{"NoteNumber":68,"Velocity":53,"Duration":120617,"SoundDuration":120617,"Delta":13941697},{"NoteNumber":53,"Velocity":37,"Duration":241234,"SoundDuration":241234,"Delta":13941697},{"NoteNumber":67,"Velocity":49,"Duration":60308,"SoundDuration":60308,"Delta":14062314},{"NoteNumber":68,"Velocity":50,"Duration":60308,"SoundDuration":60308,"Delta":14122623},{"NoteNumber":63,"Velocity":48,"Duration":452444,"SoundDuration":452444,"Delta":14182932},{"NoteNumber":67,"Velocity":55,"Duration":222700,"SoundDuration":222700,"Delta":14182932},{"NoteNumber":46,"Velocity":44,"Duration":222700,"SoundDuration":222700,"Delta":14182932},{"NoteNumber":65,"Velocity":50,"Duration":229744,"SoundDuration":229744,"Delta":14405632},{"NoteNumber":55,"Velocity":39,"Duration":698990,"SoundDuration":698990,"Delta":14405632},{"NoteNumber":63,"Velocity":46,"Duration":229744,"SoundDuration":229744,"Delta":14635376},{"NoteNumber":58,"Velocity":51,"Duration":237506,"SoundDuration":237506,"Delta":14865120},{"NoteNumber":60,"Velocity":50,"Duration":239501,"SoundDuration":239501,"Delta":15104622},{"NoteNumber":58,"Velocity":37,"Duration":239501,"SoundDuration":239501,"Delta":15104622},{"NoteNumber":63,"Velocity":50,"Duration":239501,"SoundDuration":239501,"Delta":15344124},{"NoteNumber":55,"Velocity":37,"Duration":239501,"SoundDuration":239501,"Delta":15344124},{"NoteNumber":56,"Velocity":48,"Duration":229375,"SoundDuration":229375,"Delta":15583626},{"NoteNumber":62,"Velocity":55,"Duration":231303,"SoundDuration":231303,"Delta":15583626},{"NoteNumber":46,"Velocity":44,"Duration":231303,"SoundDuration":231303,"Delta":15583626},{"NoteNumber":65,"Velocity":50,"Duration":239196,"SoundDuration":239196,"Delta":15814929},{"NoteNumber":56,"Velocity":39,"Duration":735096,"SoundDuration":735096,"Delta":15814929},{"NoteNumber":62,"Velocity":46,"Duration":120636,"SoundDuration":120636,"Delta":16054126},{"NoteNumber":60,"Velocity":41,"Duration":60318,"SoundDuration":60318,"Delta":16174763},{"NoteNumber":62,"Velocity":41,"Duration":60318,"SoundDuration":60318,"Delta":16235081},{"NoteNumber":60,"Velocity":50,"Duration":381938,"SoundDuration":381938,"Delta":16295400},{"NoteNumber":52,"Velocity":37,"Duration":254625,"SoundDuration":254625,"Delta":16550025},{"NoteNumber":58,"Velocity":45,"Duration":381938,"SoundDuration":381938,"Delta":16677338},{"NoteNumber":56,"Velocity":45,"Duration":381938,"SoundDuration":381938,"Delta":16677338},{"NoteNumber":53,"Velocity":37,"Duration":254625,"SoundDuration":254625,"Delta":16804651},{"NoteNumber":58,"Velocity":38,"Duration":252164,"SoundDuration":252164,"Delta":17059276},{"NoteNumber":67,"Velocity":49,"Duration":756493,"SoundDuration":756493,"Delta":17059276},{"NoteNumber":63,"Velocity":41,"Duration":756493,"SoundDuration":756493,"Delta":17059276},{"NoteNumber":39,"Velocity":36,"Duration":756493,"SoundDuration":756493,"Delta":17059276},{"NoteNumber":51,"Velocity":43,"Duration":756493,"SoundDuration":756493,"Delta":17059276},{"NoteNumber":57,"Velocity":41,"Duration":252164,"SoundDuration":252164,"Delta":17311441},{"NoteNumber":58,"Velocity":41,"Duration":252164,"SoundDuration":252164,"Delta":17563605},{"NoteNumber":55,"Velocity":47,"Duration":257510,"SoundDuration":257510,"Delta":17815770},{"NoteNumber":67,"Velocity":50,"Duration":491074,"SoundDuration":491074,"Delta":18073280},{"NoteNumber":63,"Velocity":50,"Duration":491074,"SoundDuration":491074,"Delta":18073280},{"NoteNumber":55,"Velocity":47,"Duration":242915,"SoundDuration":242915,"Delta":18073280},{"NoteNumber":34,"Velocity":34,"Duration":491074,"SoundDuration":491074,"Delta":18073280},{"NoteNumber":46,"Velocity":41,"Duration":491074,"SoundDuration":491074,"Delta":18073280},{"NoteNumber":58,"Velocity":42,"Duration":248159,"SoundDuration":248159,"Delta":18316195},{"NoteNumber":57,"Velocity":38,"Duration":240964,"SoundDuration":240964,"Delta":18564355},{"NoteNumber":62,"Velocity":41,"Duration":714383,"SoundDuration":714383,"Delta":18564355},{"NoteNumber":68,"Velocity":49,"Duration":714383,"SoundDuration":714383,"Delta":18564355},{"NoteNumber":41,"Velocity":36,"Duration":714383,"SoundDuration":714383,"Delta":18564355},{"NoteNumber":53,"Velocity":44,"Duration":714383,"SoundDuration":714383,"Delta":18564355},{"NoteNumber":58,"Velocity":38,"Duration":234375,"SoundDuration":234375,"Delta":18805319},{"NoteNumber":60,"Velocity":42,"Duration":239043,"SoundDuration":239043,"Delta":19039694},{"NoteNumber":61,"Velocity":39,"Duration":242915,"SoundDuration":242915,"Delta":19278738},{"NoteNumber":62,"Velocity":38,"Duration":243902,"SoundDuration":243902,"Delta":19521653},{"NoteNumber":68,"Velocity":48,"Duration":491836,"SoundDuration":491836,"Delta":19521653},{"NoteNumber":34,"Velocity":34,"Duration":491836,"SoundDuration":491836,"Delta":19521653},{"NoteNumber":46,"Velocity":41,"Duration":491836,"SoundDuration":491836,"Delta":19521653},{"NoteNumber":58,"Velocity":40,"Duration":247934,"SoundDuration":247934,"Delta":19765555},{"NoteNumber":58,"Velocity":36,"Duration":240500,"SoundDuration":240500,"Delta":20013489},{"NoteNumber":67,"Velocity":46,"Duration":729978,"SoundDuration":729978,"Delta":20013489},{"NoteNumber":63,"Velocity":38,"Duration":729978,"SoundDuration":729978,"Delta":20013489},{"NoteNumber":39,"Velocity":34,"Duration":729978,"SoundDuration":729978,"Delta":20013489},{"NoteNumber":51,"Velocity":40,"Duration":729978,"SoundDuration":729978,"Delta":20013489},{"NoteNumber":57,"Velocity":44,"Duration":245218,"SoundDuration":245218,"Delta":20253989},{"NoteNumber":58,"Velocity":44,"Duration":244260,"SoundDuration":244260,"Delta":20499207},{"NoteNumber":55,"Velocity":47,"Duration":243309,"SoundDuration":243309,"Delta":20743467},{"NoteNumber":67,"Velocity":50,"Duration":490464,"SoundDuration":490464,"Delta":20986776},{"NoteNumber":63,"Velocity":50,"Duration":490464,"SoundDuration":490464,"Delta":20986776},{"NoteNumber":55,"Velocity":47,"Duration":246204,"SoundDuration":246204,"Delta":20986776},{"NoteNumber":34,"Velocity":34,"Duration":490464,"SoundDuration":490464,"Delta":20986776},{"NoteNumber":46,"Velocity":41,"Duration":490464,"SoundDuration":490464,"Delta":20986776},{"NoteNumber":58,"Velocity":41,"Duration":244260,"SoundDuration":244260,"Delta":21232981},{"NoteNumber":57,"Velocity":36,"Duration":235942,"SoundDuration":235942,"Delta":21477241},{"NoteNumber":62,"Velocity":38,"Duration":708782,"SoundDuration":708782,"Delta":21477241},{"NoteNumber":68,"Velocity":46,"Duration":708782,"SoundDuration":708782,"Delta":21477241},{"NoteNumber":41,"Velocity":34,"Duration":708782,"SoundDuration":708782,"Delta":21477241},{"NoteNumber":53,"Velocity":41,"Duration":708782,"SoundDuration":708782,"Delta":21477241},{"NoteNumber":58,"Velocity":39,"Duration":233281,"SoundDuration":233281,"Delta":21713183},{"NoteNumber":60,"Velocity":42,"Duration":239558,"SoundDuration":239558,"Delta":21946464},{"NoteNumber":61,"Velocity":39,"Duration":250146,"SoundDuration":250146,"Delta":22186023},{"NoteNumber":62,"Velocity":38,"Duration":258464,"SoundDuration":258464,"Delta":22436169},{"NoteNumber":68,"Velocity":48,"Duration":529295,"SoundDuration":529295,"Delta":22436169},{"NoteNumber":34,"Velocity":34,"Duration":529295,"SoundDuration":529295,"Delta":22436169},{"NoteNumber":46,"Velocity":41,"Duration":529295,"SoundDuration":529295,"Delta":22436169},{"NoteNumber":58,"Velocity":40,"Duration":270831,"SoundDuration":270831,"Delta":22694634},{"NoteNumber":63,"Velocity":47,"Duration":246204,"SoundDuration":246204,"Delta":22965465},{"NoteNumber":75,"Velocity":47,"Duration":246204,"SoundDuration":246204,"Delta":22965465},{"NoteNumber":51,"Velocity":44,"Duration":246204,"SoundDuration":246204,"Delta":22965465},{"NoteNumber":65,"Velocity":41,"Duration":232734,"SoundDuration":232734,"Delta":23211670},{"NoteNumber":77,"Velocity":41,"Duration":232734,"SoundDuration":232734,"Delta":23211670},{"NoteNumber":67,"Velocity":39,"Duration":232734,"SoundDuration":232734,"Delta":23211670},{"NoteNumber":79,"Velocity":42,"Duration":236836,"SoundDuration":236836,"Delta":23444405},{"NoteNumber":67,"Velocity":39,"Duration":487232,"SoundDuration":487232,"Delta":23444405},{"NoteNumber":70,"Velocity":54,"Duration":375594,"SoundDuration":375594,"Delta":23681241},{"NoteNumber":82,"Velocity":54,"Duration":375594,"SoundDuration":375594,"Delta":23681241},{"NoteNumber":63,"Velocity":37,"Duration":250396,"SoundDuration":250396,"Delta":23931637},{"NoteNumber":70,"Velocity":43,"Duration":375594,"SoundDuration":375594,"Delta":24056836},{"NoteNumber":82,"Velocity":43,"Duration":375594,"SoundDuration":375594,"Delta":24056836},{"NoteNumber":58,"Velocity":37,"Duration":250396,"SoundDuration":250396,"Delta":24182034},{"NoteNumber":51,"Velocity":44,"Duration":232413,"SoundDuration":232413,"Delta":24432430},{"NoteNumber":70,"Velocity":52,"Duration":232414,"SoundDuration":232414,"Delta":24664844},{"NoteNumber":82,"Velocity":52,"Duration":232414,"SoundDuration":232414,"Delta":24664844},{"NoteNumber":68,"Velocity":39,"Duration":659114,"SoundDuration":659114,"Delta":24664844},{"NoteNumber":72,"Velocity":48,"Duration":216263,"SoundDuration":216263,"Delta":24897258},{"NoteNumber":84,"Velocity":48,"Duration":216263,"SoundDuration":216263,"Delta":24897258},{"NoteNumber":74,"Velocity":55,"Duration":210437,"SoundDuration":210437,"Delta":25113521},{"NoteNumber":86,"Velocity":55,"Duration":210437,"SoundDuration":210437,"Delta":25113521},{"NoteNumber":89,"Velocity":50,"Duration":215516,"SoundDuration":215516,"Delta":25323959},{"NoteNumber":77,"Velocity":50,"Duration":215516,"SoundDuration":215516,"Delta":25323959},{"NoteNumber":62,"Velocity":37,"Duration":215516,"SoundDuration":215516,"Delta":25323959},{"NoteNumber":86,"Velocity":53,"Duration":223247,"SoundDuration":223247,"Delta":25539476},{"NoteNumber":74,"Velocity":53,"Duration":223247,"SoundDuration":223247,"Delta":25539476},{"NoteNumber":58,"Velocity":37,"Duration":223247,"SoundDuration":223247,"Delta":25539476},{"NoteNumber":84,"Velocity":55,"Duration":213310,"SoundDuration":213310,"Delta":25762723},{"NoteNumber":72,"Velocity":55,"Duration":213310,"SoundDuration":213310,"Delta":25762723},{"NoteNumber":51,"Velocity":44,"Duration":213310,"SoundDuration":213310,"Delta":25762723},{"NoteNumber":74,"Velocity":53,"Duration":221664,"SoundDuration":221664,"Delta":25976034},{"NoteNumber":86,"Velocity":53,"Duration":221664,"SoundDuration":221664,"Delta":25976034},{"NoteNumber":67,"Velocity":39,"Duration":441480,"SoundDuration":441480,"Delta":25976034},{"NoteNumber":72,"Velocity":46,"Duration":221664,"SoundDuration":221664,"Delta":26197698},{"NoteNumber":84,"Velocity":46,"Duration":221664,"SoundDuration":221664,"Delta":26197698},{"NoteNumber":67,"Velocity":51,"Duration":367076,"SoundDuration":367076,"Delta":26419362},{"NoteNumber":79,"Velocity":51,"Duration":367076,"SoundDuration":367076,"Delta":26419362},{"NoteNumber":63,"Velocity":37,"Duration":244718,"SoundDuration":244718,"Delta":26664080},{"NoteNumber":67,"Velocity":43,"Duration":367077,"SoundDuration":367077,"Delta":26786439},{"NoteNumber":79,"Velocity":43,"Duration":367077,"SoundDuration":367077,"Delta":26786439},{"NoteNumber":58,"Velocity":33,"Duration":244717,"SoundDuration":244717,"Delta":26908798},{"NoteNumber":51,"Velocity":44,"Duration":221664,"SoundDuration":221664,"Delta":27153516},{"NoteNumber":65,"Velocity":52,"Duration":221664,"SoundDuration":221664,"Delta":27375180},{"NoteNumber":77,"Velocity":52,"Duration":221664,"SoundDuration":221664,"Delta":27375180},{"NoteNumber":68,"Velocity":39,"Duration":435385,"SoundDuration":435385,"Delta":27375180},{"NoteNumber":67,"Velocity":53,"Duration":215516,"SoundDuration":215516,"Delta":27596844},{"NoteNumber":79,"Velocity":53,"Duration":215516,"SoundDuration":215516,"Delta":27596844},{"NoteNumber":68,"Velocity":53,"Duration":210437,"SoundDuration":210437,"Delta":27812361},{"NoteNumber":80,"Velocity":53,"Duration":210437,"SoundDuration":210437,"Delta":27812361},{"NoteNumber":82,"Velocity":53,"Duration":216263,"SoundDuration":216263,"Delta":28022798},{"NoteNumber":70,"Velocity":53,"Duration":216263,"SoundDuration":216263,"Delta":28022798},{"NoteNumber":62,"Velocity":37,"Duration":216263,"SoundDuration":216263,"Delta":28022798},{"NoteNumber":80,"Velocity":53,"Duration":224047,"SoundDuration":224047,"Delta":28239061},{"NoteNumber":68,"Velocity":53,"Duration":224047,"SoundDuration":224047,"Delta":28239061},{"NoteNumber":58,"Velocity":37,"Duration":224047,"SoundDuration":224047,"Delta":28239061},{"NoteNumber":79,"Velocity":55,"Duration":215641,"SoundDuration":215641,"Delta":28463109},{"NoteNumber":67,"Velocity":55,"Duration":213845,"SoundDuration":213845,"Delta":28463109},{"NoteNumber":51,"Velocity":44,"Duration":215641,"SoundDuration":215641,"Delta":28463109},{"NoteNumber":65,"Velocity":48,"Duration":226091,"SoundDuration":226091,"Delta":28678751},{"NoteNumber":77,"Velocity":48,"Duration":226091,"SoundDuration":226091,"Delta":28678751},{"NoteNumber":67,"Velocity":39,"Duration":700341,"SoundDuration":700341,"Delta":28678751},{"NoteNumber":63,"Velocity":46,"Duration":226091,"SoundDuration":226091,"Delta":28904842},{"NoteNumber":75,"Velocity":46,"Duration":226091,"SoundDuration":226091,"Delta":28904842},{"NoteNumber":58,"Velocity":49,"Duration":372239,"SoundDuration":372239,"Delta":29130933},{"NoteNumber":70,"Velocity":49,"Duration":372239,"SoundDuration":372239,"Delta":29130933},{"NoteNumber":63,"Velocity":37,"Duration":248159,"SoundDuration":248159,"Delta":29379092},{"NoteNumber":58,"Velocity":43,"Duration":372239,"SoundDuration":372239,"Delta":29503172},{"NoteNumber":70,"Velocity":43,"Duration":372239,"SoundDuration":372239,"Delta":29503172},{"NoteNumber":55,"Velocity":35,"Duration":248159,"SoundDuration":248159,"Delta":29627252},{"NoteNumber":46,"Velocity":44,"Duration":230858,"SoundDuration":230858,"Delta":29875411},{"NoteNumber":62,"Velocity":46,"Duration":1147294,"SoundDuration":1147294,"Delta":30106269},{"NoteNumber":65,"Velocity":52,"Duration":230857,"SoundDuration":230857,"Delta":30106269},{"NoteNumber":56,"Velocity":39,"Duration":681003,"SoundDuration":681003,"Delta":30106269},{"NoteNumber":67,"Velocity":53,"Duration":227444,"SoundDuration":227444,"Delta":30337127},{"NoteNumber":68,"Velocity":55,"Duration":222700,"SoundDuration":222700,"Delta":30564572},{"NoteNumber":70,"Velocity":53,"Duration":225056,"SoundDuration":225056,"Delta":30787273},{"NoteNumber":52,"Velocity":37,"Duration":225056,"SoundDuration":225056,"Delta":30787273},{"NoteNumber":68,"Velocity":53,"Duration":120617,"SoundDuration":120617,"Delta":31012329},{"NoteNumber":53,"Velocity":37,"Duration":241234,"SoundDuration":241234,"Delta":31012329},{"NoteNumber":67,"Velocity":49,"Duration":60308,"SoundDuration":60308,"Delta":31132947},{"NoteNumber":68,"Velocity":50,"Duration":60308,"SoundDuration":60308,"Delta":31193255},{"NoteNumber":63,"Velocity":48,"Duration":452444,"SoundDuration":452444,"Delta":31253564},{"NoteNumber":67,"Velocity":55,"Duration":222700,"SoundDuration":222700,"Delta":31253564},{"NoteNumber":46,"Velocity":44,"Duration":222700,"SoundDuration":222700,"Delta":31253564},{"NoteNumber":65,"Velocity":50,"Duration":229744,"SoundDuration":229744,"Delta":31476265},{"NoteNumber":55,"Velocity":39,"Duration":698989,"SoundDuration":698989,"Delta":31476265},{"NoteNumber":63,"Velocity":46,"Duration":229744,"SoundDuration":229744,"Delta":31706009},{"NoteNumber":58,"Velocity":51,"Duration":237506,"SoundDuration":237506,"Delta":31935753},{"NoteNumber":60,"Velocity":50,"Duration":239502,"SoundDuration":239502,"Delta":32175255},{"NoteNumber":58,"Velocity":37,"Duration":239502,"SoundDuration":239502,"Delta":32175255},{"NoteNumber":63,"Velocity":50,"Duration":239502,"SoundDuration":239502,"Delta":32414757},{"NoteNumber":55,"Velocity":37,"Duration":239502,"SoundDuration":239502,"Delta":32414757},{"NoteNumber":56,"Velocity":48,"Duration":229375,"SoundDuration":229375,"Delta":32654259},{"NoteNumber":62,"Velocity":55,"Duration":231302,"SoundDuration":231302,"Delta":32654259},{"NoteNumber":46,"Velocity":44,"Duration":231302,"SoundDuration":231302,"Delta":32654259},{"NoteNumber":65,"Velocity":50,"Duration":239196,"SoundDuration":239196,"Delta":32885562},{"NoteNumber":56,"Velocity":39,"Duration":735095,"SoundDuration":735095,"Delta":32885562},{"NoteNumber":62,"Velocity":46,"Duration":120637,"SoundDuration":120637,"Delta":33124758},{"NoteNumber":60,"Velocity":41,"Duration":60318,"SoundDuration":60318,"Delta":33245395},{"NoteNumber":62,"Velocity":41,"Duration":60318,"SoundDuration":60318,"Delta":33305714},{"NoteNumber":60,"Velocity":50,"Duration":381938,"SoundDuration":381938,"Delta":33366032},{"NoteNumber":52,"Velocity":37,"Duration":254625,"SoundDuration":254625,"Delta":33620658},{"NoteNumber":58,"Velocity":45,"Duration":381938,"SoundDuration":381938,"Delta":33747970},{"NoteNumber":56,"Velocity":45,"Duration":381938,"SoundDuration":381938,"Delta":33747970},{"NoteNumber":53,"Velocity":37,"Duration":254625,"SoundDuration":254625,"Delta":33875283},{"NoteNumber":58,"Velocity":38,"Duration":252164,"SoundDuration":252164,"Delta":34129909},{"NoteNumber":67,"Velocity":49,"Duration":756493,"SoundDuration":756493,"Delta":34129909},{"NoteNumber":63,"Velocity":41,"Duration":756493,"SoundDuration":756493,"Delta":34129909},{"NoteNumber":39,"Velocity":36,"Duration":756493,"SoundDuration":756493,"Delta":34129909},{"NoteNumber":51,"Velocity":43,"Duration":756493,"SoundDuration":756493,"Delta":34129909},{"NoteNumber":57,"Velocity":44,"Duration":252164,"SoundDuration":252164,"Delta":34382073},{"NoteNumber":58,"Velocity":44,"Duration":252164,"SoundDuration":252164,"Delta":34634238},{"NoteNumber":55,"Velocity":47,"Duration":256410,"SoundDuration":256410,"Delta":34886402},{"NoteNumber":67,"Velocity":50,"Duration":492061,"SoundDuration":492061,"Delta":35142813},{"NoteNumber":63,"Velocity":50,"Duration":492061,"SoundDuration":492061,"Delta":35142813},{"NoteNumber":55,"Velocity":47,"Duration":243902,"SoundDuration":243902,"Delta":35142813},{"NoteNumber":34,"Velocity":34,"Duration":492061,"SoundDuration":492061,"Delta":35142813},{"NoteNumber":46,"Velocity":41,"Duration":492061,"SoundDuration":492061,"Delta":35142813},{"NoteNumber":58,"Velocity":42,"Duration":248159,"SoundDuration":248159,"Delta":35386715},{"NoteNumber":57,"Velocity":38,"Duration":238095,"SoundDuration":238095,"Delta":35634875},{"NoteNumber":62,"Velocity":41,"Duration":707806,"SoundDuration":707806,"Delta":35634875},{"NoteNumber":68,"Velocity":49,"Duration":707806,"SoundDuration":707806,"Delta":35634875},{"NoteNumber":41,"Velocity":36,"Duration":707806,"SoundDuration":707806,"Delta":35634875},{"NoteNumber":53,"Velocity":44,"Duration":707806,"SoundDuration":707806,"Delta":35634875},{"NoteNumber":58,"Velocity":42,"Duration":232557,"SoundDuration":232557,"Delta":35872970},{"NoteNumber":60,"Velocity":42,"Duration":237153,"SoundDuration":237153,"Delta":36105528},{"NoteNumber":61,"Velocity":42,"Duration":243902,"SoundDuration":243902,"Delta":36342682},{"NoteNumber":62,"Velocity":38,"Duration":244897,"SoundDuration":244897,"Delta":36586584},{"NoteNumber":68,"Velocity":48,"Duration":494897,"SoundDuration":494897,"Delta":36586584},{"NoteNumber":34,"Velocity":34,"Duration":494897,"SoundDuration":494897,"Delta":36586584},{"NoteNumber":46,"Velocity":41,"Duration":494897,"SoundDuration":494897,"Delta":36586584},{"NoteNumber":58,"Velocity":40,"Duration":250000,"SoundDuration":250000,"Delta":36831482},{"NoteNumber":58,"Velocity":36,"Duration":240499,"SoundDuration":240499,"Delta":37081482},{"NoteNumber":67,"Velocity":46,"Duration":729977,"SoundDuration":729977,"Delta":37081482},{"NoteNumber":63,"Velocity":38,"Duration":729977,"SoundDuration":729977,"Delta":37081482},{"NoteNumber":39,"Velocity":34,"Duration":729977,"SoundDuration":729977,"Delta":37081482},{"NoteNumber":51,"Velocity":40,"Duration":729977,"SoundDuration":729977,"Delta":37081482},{"NoteNumber":57,"Velocity":44,"Duration":245218,"SoundDuration":245218,"Delta":37321982},{"NoteNumber":58,"Velocity":44,"Duration":244259,"SoundDuration":244259,"Delta":37567200},{"NoteNumber":55,"Velocity":47,"Duration":243308,"SoundDuration":243308,"Delta":37811460},{"NoteNumber":67,"Velocity":50,"Duration":490464,"SoundDuration":490464,"Delta":38054769},{"NoteNumber":63,"Velocity":50,"Duration":490464,"SoundDuration":490464,"Delta":38054769},{"NoteNumber":55,"Velocity":47,"Duration":246204,"SoundDuration":246204,"Delta":38054769},{"NoteNumber":34,"Velocity":34,"Duration":490464,"SoundDuration":490464,"Delta":38054769},{"NoteNumber":46,"Velocity":41,"Duration":490464,"SoundDuration":490464,"Delta":38054769},{"NoteNumber":58,"Velocity":41,"Duration":244259,"SoundDuration":244259,"Delta":38300974},{"NoteNumber":57,"Velocity":36,"Duration":235942,"SoundDuration":235942,"Delta":38545234},{"NoteNumber":62,"Velocity":38,"Duration":708782,"SoundDuration":708782,"Delta":38545234},{"NoteNumber":68,"Velocity":46,"Duration":708782,"SoundDuration":708782,"Delta":38545234},{"NoteNumber":41,"Velocity":34,"Duration":708782,"SoundDuration":708782,"Delta":38545234},{"NoteNumber":53,"Velocity":41,"Duration":708782,"SoundDuration":708782,"Delta":38545234},{"NoteNumber":58,"Velocity":42,"Duration":233281,"SoundDuration":233281,"Delta":38781176},{"NoteNumber":60,"Velocity":42,"Duration":239558,"SoundDuration":239558,"Delta":39014457},{"NoteNumber":61,"Velocity":38,"Duration":250146,"SoundDuration":250146,"Delta":39254016},{"NoteNumber":62,"Velocity":38,"Duration":258464,"SoundDuration":258464,"Delta":39504162},{"NoteNumber":68,"Velocity":48,"Duration":529296,"SoundDuration":529296,"Delta":39504162},{"NoteNumber":34,"Velocity":34,"Duration":529296,"SoundDuration":529296,"Delta":39504162},{"NoteNumber":46,"Velocity":41,"Duration":529296,"SoundDuration":529296,"Delta":39504162},{"NoteNumber":58,"Velocity":40,"Duration":270831,"SoundDuration":270831,"Delta":39762627},{"NoteNumber":63,"Velocity":47,"Duration":246204,"SoundDuration":246204,"Delta":40033458},{"NoteNumber":75,"Velocity":47,"Duration":246204,"SoundDuration":246204,"Delta":40033458},{"NoteNumber":51,"Velocity":44,"Duration":246204,"SoundDuration":246204,"Delta":40033458},{"NoteNumber":65,"Velocity":46,"Duration":232734,"SoundDuration":232734,"Delta":40279663},{"NoteNumber":77,"Velocity":46,"Duration":232734,"SoundDuration":232734,"Delta":40279663},{"NoteNumber":67,"Velocity":39,"Duration":232734,"SoundDuration":232734,"Delta":40279663},{"NoteNumber":79,"Velocity":42,"Duration":236835,"SoundDuration":236835,"Delta":40512398},{"NoteNumber":67,"Velocity":41,"Duration":478265,"SoundDuration":478265,"Delta":40512398},{"NoteNumber":70,"Velocity":53,"Duration":734884,"SoundDuration":734884,"Delta":40749234},{"NoteNumber":82,"Velocity":53,"Duration":734884,"SoundDuration":734884,"Delta":40749234},{"NoteNumber":63,"Velocity":37,"Duration":243309,"SoundDuration":243309,"Delta":40990663},{"NoteNumber":58,"Velocity":37,"Duration":250146,"SoundDuration":250146,"Delta":41233972},{"NoteNumber":51,"Velocity":44,"Duration":232413,"SoundDuration":232413,"Delta":41484118},{"NoteNumber":70,"Velocity":52,"Duration":232413,"SoundDuration":232413,"Delta":41716532},{"NoteNumber":82,"Velocity":52,"Duration":232413,"SoundDuration":232413,"Delta":41716532},{"NoteNumber":68,"Velocity":39,"Duration":676642,"SoundDuration":676642,"Delta":41716532},{"NoteNumber":72,"Velocity":50,"Duration":225665,"SoundDuration":225665,"Delta":41948946},{"NoteNumber":84,"Velocity":50,"Duration":225665,"SoundDuration":225665,"Delta":41948946},{"NoteNumber":73,"Velocity":55,"Duration":218563,"SoundDuration":218563,"Delta":42174612},{"NoteNumber":85,"Velocity":55,"Duration":218563,"SoundDuration":218563,"Delta":42174612},{"NoteNumber":89,"Velocity":47,"Duration":215516,"SoundDuration":215516,"Delta":42393175},{"NoteNumber":77,"Velocity":38,"Duration":215516,"SoundDuration":215516,"Delta":42393175},{"NoteNumber":61,"Velocity":37,"Duration":215516,"SoundDuration":215516,"Delta":42393175},{"NoteNumber":85,"Velocity":53,"Duration":221663,"SoundDuration":221663,"Delta":42608692},{"NoteNumber":73,"Velocity":53,"Duration":221663,"SoundDuration":221663,"Delta":42608692},{"NoteNumber":58,"Velocity":37,"Duration":221663,"SoundDuration":221663,"Delta":42608692},{"NoteNumber":84,"Velocity":55,"Duration":217785,"SoundDuration":217785,"Delta":42830356},{"NoteNumber":72,"Velocity":55,"Duration":217785,"SoundDuration":217785,"Delta":42830356},{"NoteNumber":51,"Velocity":44,"Duration":217785,"SoundDuration":217785,"Delta":42830356},{"NoteNumber":70,"Velocity":52,"Duration":221663,"SoundDuration":221663,"Delta":43048142},{"NoteNumber":82,"Velocity":52,"Duration":221663,"SoundDuration":221663,"Delta":43048142},{"NoteNumber":67,"Velocity":39,"Duration":671482,"SoundDuration":671482,"Delta":43048142},{"NoteNumber":63,"Velocity":46,"Duration":221664,"SoundDuration":221664,"Delta":43269806},{"NoteNumber":75,"Velocity":46,"Duration":221664,"SoundDuration":221664,"Delta":43269806},{"NoteNumber":63,"Velocity":51,"Duration":228154,"SoundDuration":228154,"Delta":43491470},{"NoteNumber":75,"Velocity":51,"Duration":228154,"SoundDuration":228154,"Delta":43491470},{"NoteNumber":65,"Velocity":49,"Duration":477541,"SoundDuration":477541,"Delta":43719624},{"NoteNumber":77,"Velocity":51,"Duration":477541,"SoundDuration":477541,"Delta":43719624},{"NoteNumber":61,"Velocity":37,"Duration":233281,"SoundDuration":233281,"Delta":43719624},{"NoteNumber":58,"Velocity":37,"Duration":244259,"SoundDuration":244259,"Delta":43952906},{"NoteNumber":51,"Velocity":44,"Duration":221663,"SoundDuration":221663,"Delta":44197166},{"NoteNumber":67,"Velocity":52,"Duration":221664,"SoundDuration":221664,"Delta":44418830},{"NoteNumber":79,"Velocity":52,"Duration":221664,"SoundDuration":221664,"Delta":44418830},{"NoteNumber":61,"Velocity":39,"Duration":654268,"SoundDuration":654268,"Delta":44418830},{"NoteNumber":68,"Velocity":49,"Duration":218563,"SoundDuration":218563,"Delta":44640494},{"NoteNumber":80,"Velocity":49,"Duration":218563,"SoundDuration":218563,"Delta":44640494},{"NoteNumber":70,"Velocity":55,"Duration":214041,"SoundDuration":214041,"Delta":44859057},{"NoteNumber":82,"Velocity":55,"Duration":214041,"SoundDuration":214041,"Delta":44859057},{"NoteNumber":87,"Velocity":55,"Duration":218563,"SoundDuration":218563,"Delta":45073098},{"NoteNumber":75,"Velocity":55,"Duration":218563,"SoundDuration":218563,"Delta":45073098},{"NoteNumber":55,"Velocity":37,"Duration":218563,"SoundDuration":218563,"Delta":45073098},{"NoteNumber":84,"Velocity":49,"Duration":224048,"SoundDuration":224048,"Delta":45291662},{"NoteNumber":72,"Velocity":49,"Duration":224048,"SoundDuration":224048,"Delta":45291662},{"NoteNumber":51,"Velocity":37,"Duration":224048,"SoundDuration":224048,"Delta":45291662},{"NoteNumber":82,"Velocity":55,"Duration":217785,"SoundDuration":217785,"Delta":45515710},{"NoteNumber":70,"Velocity":55,"Duration":217785,"SoundDuration":217785,"Delta":45515710},{"NoteNumber":44,"Velocity":44,"Duration":217785,"SoundDuration":217785,"Delta":45515710},{"NoteNumber":68,"Velocity":50,"Duration":226090,"SoundDuration":226090,"Delta":45733496},{"NoteNumber":80,"Velocity":50,"Duration":226090,"SoundDuration":226090,"Delta":45733496},{"NoteNumber":60,"Velocity":39,"Duration":683734,"SoundDuration":683734,"Delta":45733496},{"NoteNumber":63,"Velocity":46,"Duration":226091,"SoundDuration":226091,"Delta":45959587},{"NoteNumber":75,"Velocity":46,"Duration":226091,"SoundDuration":226091,"Delta":45959587},{"NoteNumber":63,"Velocity":51,"Duration":231552,"SoundDuration":231552,"Delta":46185678},{"NoteNumber":75,"Velocity":51,"Duration":231552,"SoundDuration":231552,"Delta":46185678},{"NoteNumber":68,"Velocity":55,"Duration":682079,"SoundDuration":682079,"Delta":46417231},{"NoteNumber":80,"Velocity":55,"Duration":682079,"SoundDuration":682079,"Delta":46417231},{"NoteNumber":56,"Velocity":39,"Duration":233281,"SoundDuration":233281,"Delta":46417231},{"NoteNumber":51,"Velocity":39,"Duration":233281,"SoundDuration":233281,"Delta":46650512},{"NoteNumber":44,"Velocity":48,"Duration":215516,"SoundDuration":215516,"Delta":46883794},{"NoteNumber":72,"Velocity":52,"Duration":677945,"SoundDuration":677945,"Delta":47099311},{"NoteNumber":75,"Velocity":52,"Duration":677945,"SoundDuration":677945,"Delta":47099311},{"NoteNumber":84,"Velocity":61,"Duration":677945,"SoundDuration":677945,"Delta":47099311},{"NoteNumber":80,"Velocity":61,"Duration":677945,"SoundDuration":677945,"Delta":47099311},{"NoteNumber":63,"Velocity":42,"Duration":677945,"SoundDuration":677945,"Delta":47099311},{"NoteNumber":87,"Velocity":67,"Duration":459699,"SoundDuration":459699,"Delta":47777257},{"NoteNumber":84,"Velocity":67,"Duration":459699,"SoundDuration":459699,"Delta":47777257},{"NoteNumber":80,"Velocity":55,"Duration":459699,"SoundDuration":459699,"Delta":47777257},{"NoteNumber":75,"Velocity":55,"Duration":459699,"SoundDuration":459699,"Delta":47777257},{"NoteNumber":60,"Velocity":48,"Duration":229849,"SoundDuration":229849,"Delta":47777257},{"NoteNumber":56,"Velocity":46,"Duration":229849,"SoundDuration":229849,"Delta":48007107},{"NoteNumber":44,"Velocity":50,"Duration":216262,"SoundDuration":216262,"Delta":48236957},{"NoteNumber":63,"Velocity":57,"Duration":683734,"SoundDuration":683734,"Delta":48453220},{"NoteNumber":75,"Velocity":57,"Duration":683734,"SoundDuration":683734,"Delta":48453220},{"NoteNumber":59,"Velocity":45,"Duration":683734,"SoundDuration":683734,"Delta":48453220},{"NoteNumber":68,"Velocity":63,"Duration":682079,"SoundDuration":682079,"Delta":49136955},{"NoteNumber":80,"Velocity":64,"Duration":682079,"SoundDuration":682079,"Delta":49136955},{"NoteNumber":56,"Velocity":44,"Duration":233281,"SoundDuration":233281,"Delta":49136955},{"NoteNumber":51,"Velocity":45,"Duration":233281,"SoundDuration":233281,"Delta":49370236},{"NoteNumber":44,"Velocity":54,"Duration":215516,"SoundDuration":215516,"Delta":49603518},{"NoteNumber":71,"Velocity":56,"Duration":677945,"SoundDuration":677945,"Delta":49819035},{"NoteNumber":75,"Velocity":56,"Duration":677945,"SoundDuration":677945,"Delta":49819035},{"NoteNumber":83,"Velocity":67,"Duration":677945,"SoundDuration":677945,"Delta":49819035},{"NoteNumber":80,"Velocity":67,"Duration":677945,"SoundDuration":677945,"Delta":49819035},{"NoteNumber":63,"Velocity":49,"Duration":677945,"SoundDuration":677945,"Delta":49819035},{"NoteNumber":87,"Velocity":71,"Duration":573140,"SoundDuration":573140,"Delta":50496981},{"NoteNumber":83,"Velocity":71,"Duration":573140,"SoundDuration":573140,"Delta":50496981},{"NoteNumber":80,"Velocity":59,"Duration":573140,"SoundDuration":573140,"Delta":50496981},{"NoteNumber":75,"Velocity":59,"Duration":573140,"SoundDuration":573140,"Delta":50496981},{"NoteNumber":59,"Velocity":48,"Duration":261711,"SoundDuration":261711,"Delta":50496981},{"NoteNumber":56,"Velocity":49,"Duration":311429,"SoundDuration":311429,"Delta":50758692},{"NoteNumber":63,"Velocity":46,"Duration":246204,"SoundDuration":246204,"Delta":51070122},{"NoteNumber":75,"Velocity":60,"Duration":246204,"SoundDuration":246204,"Delta":51070122},{"NoteNumber":46,"Velocity":65,"Duration":246204,"SoundDuration":246204,"Delta":51070122},{"NoteNumber":65,"Velocity":56,"Duration":232734,"SoundDuration":232734,"Delta":51316326},{"NoteNumber":77,"Velocity":56,"Duration":232734,"SoundDuration":232734,"Delta":51316326},{"NoteNumber":67,"Velocity":45,"Duration":232734,"SoundDuration":232734,"Delta":51316326},{"NoteNumber":79,"Velocity":55,"Duration":236835,"SoundDuration":236835,"Delta":51549061},{"NoteNumber":67,"Velocity":45,"Duration":487232,"SoundDuration":487232,"Delta":51549061},{"NoteNumber":70,"Velocity":54,"Duration":375594,"SoundDuration":375594,"Delta":51785897},{"NoteNumber":82,"Velocity":66,"Duration":375594,"SoundDuration":375594,"Delta":51785897},{"NoteNumber":63,"Velocity":43,"Duration":250396,"SoundDuration":250396,"Delta":52036293},{"NoteNumber":70,"Velocity":43,"Duration":375594,"SoundDuration":375594,"Delta":52161492},{"NoteNumber":82,"Velocity":53,"Duration":375594,"SoundDuration":375594,"Delta":52161492},{"NoteNumber":58,"Velocity":43,"Duration":250396,"SoundDuration":250396,"Delta":52286690},{"NoteNumber":46,"Velocity":51,"Duration":232413,"SoundDuration":232413,"Delta":52537086},{"NoteNumber":70,"Velocity":52,"Duration":232413,"SoundDuration":232413,"Delta":52769500},{"NoteNumber":82,"Velocity":65,"Duration":232413,"SoundDuration":232413,"Delta":52769500},{"NoteNumber":68,"Velocity":45,"Duration":659114,"SoundDuration":659114,"Delta":52769500},{"NoteNumber":72,"Velocity":60,"Duration":216262,"SoundDuration":216262,"Delta":53001914},{"NoteNumber":84,"Velocity":60,"Duration":216262,"SoundDuration":216262,"Delta":53001914},{"NoteNumber":74,"Velocity":66,"Duration":210437,"SoundDuration":210437,"Delta":53218177},{"NoteNumber":86,"Velocity":66,"Duration":210437,"SoundDuration":210437,"Delta":53218177},{"NoteNumber":89,"Velocity":61,"Duration":215516,"SoundDuration":215516,"Delta":53428615},{"NoteNumber":77,"Velocity":54,"Duration":215516,"SoundDuration":215516,"Delta":53428615},{"NoteNumber":62,"Velocity":43,"Duration":215516,"SoundDuration":215516,"Delta":53428615},{"NoteNumber":86,"Velocity":66,"Duration":223247,"SoundDuration":223247,"Delta":53644132},{"NoteNumber":74,"Velocity":53,"Duration":223247,"SoundDuration":223247,"Delta":53644132},{"NoteNumber":58,"Velocity":43,"Duration":223247,"SoundDuration":223247,"Delta":53644132},{"NoteNumber":84,"Velocity":68,"Duration":213310,"SoundDuration":213310,"Delta":53867379},{"NoteNumber":72,"Velocity":68,"Duration":213310,"SoundDuration":213310,"Delta":53867379},{"NoteNumber":51,"Velocity":51,"Duration":213310,"SoundDuration":213310,"Delta":53867379},{"NoteNumber":74,"Velocity":53,"Duration":221663,"SoundDuration":221663,"Delta":54080690},{"NoteNumber":86,"Velocity":66,"Duration":221663,"SoundDuration":221663,"Delta":54080690},{"NoteNumber":67,"Velocity":45,"Duration":441480,"SoundDuration":441480,"Delta":54080690},{"NoteNumber":72,"Velocity":45,"Duration":221664,"SoundDuration":221664,"Delta":54302354},{"NoteNumber":84,"Velocity":57,"Duration":221664,"SoundDuration":221664,"Delta":54302354},{"NoteNumber":67,"Velocity":51,"Duration":367077,"SoundDuration":367077,"Delta":54524018},{"NoteNumber":79,"Velocity":63,"Duration":367077,"SoundDuration":367077,"Delta":54524018},{"NoteNumber":63,"Velocity":43,"Duration":244717,"SoundDuration":244717,"Delta":54768736},{"NoteNumber":67,"Velocity":43,"Duration":367076,"SoundDuration":367076,"Delta":54891095},{"NoteNumber":79,"Velocity":53,"Duration":367076,"SoundDuration":367076,"Delta":54891095},{"NoteNumber":58,"Velocity":43,"Duration":244717,"SoundDuration":244717,"Delta":55013454},{"NoteNumber":48,"Velocity":51,"Duration":232413,"SoundDuration":232413,"Delta":55258172},{"NoteNumber":70,"Velocity":52,"Duration":223048,"SoundDuration":223048,"Delta":55490586},{"NoteNumber":82,"Velocity":62,"Duration":223048,"SoundDuration":223048,"Delta":55490586},{"NoteNumber":61,"Velocity":45,"Duration":649748,"SoundDuration":649748,"Delta":55490586},{"NoteNumber":72,"Velocity":51,"Duration":216262,"SoundDuration":216262,"Delta":55713634},{"NoteNumber":84,"Velocity":51,"Duration":216262,"SoundDuration":216262,"Delta":55713634},{"NoteNumber":70,"Velocity":55,"Duration":210437,"SoundDuration":210437,"Delta":55929897},{"NoteNumber":82,"Velocity":65,"Duration":210437,"SoundDuration":210437,"Delta":55929897},{"NoteNumber":80,"Velocity":60,"Duration":215516,"SoundDuration":215516,"Delta":56140335},{"NoteNumber":68,"Velocity":51,"Duration":215516,"SoundDuration":215516,"Delta":56140335},{"NoteNumber":60,"Velocity":43,"Duration":215516,"SoundDuration":215516,"Delta":56140335},{"NoteNumber":79,"Velocity":58,"Duration":223247,"SoundDuration":223247,"Delta":56355852},{"NoteNumber":67,"Velocity":49,"Duration":223247,"SoundDuration":223247,"Delta":56355852},{"NoteNumber":64,"Velocity":43,"Duration":223247,"SoundDuration":223247,"Delta":56355852},{"NoteNumber":77,"Velocity":62,"Duration":213310,"SoundDuration":213310,"Delta":56579099},{"NoteNumber":65,"Velocity":52,"Duration":213310,"SoundDuration":213310,"Delta":56579099},{"NoteNumber":41,"Velocity":51,"Duration":213310,"SoundDuration":213310,"Delta":56579099},{"NoteNumber":67,"Velocity":49,"Duration":221663,"SoundDuration":221663,"Delta":56792410},{"NoteNumber":79,"Velocity":58,"Duration":221663,"SoundDuration":221663,"Delta":56792410},{"NoteNumber":63,"Velocity":45,"Duration":699663,"SoundDuration":699663,"Delta":56792410},{"NoteNumber":68,"Velocity":47,"Duration":233281,"SoundDuration":233281,"Delta":57014074},{"NoteNumber":80,"Velocity":56,"Duration":233281,"SoundDuration":233281,"Delta":57014074},{"NoteNumber":75,"Velocity":62,"Duration":367077,"SoundDuration":367077,"Delta":57247355},{"NoteNumber":87,"Velocity":66,"Duration":367077,"SoundDuration":367077,"Delta":57247355},{"NoteNumber":53,"Velocity":43,"Duration":244717,"SoundDuration":244717,"Delta":57492073},{"NoteNumber":72,"Velocity":51,"Duration":367076,"SoundDuration":367076,"Delta":57614432},{"NoteNumber":84,"Velocity":55,"Duration":367076,"SoundDuration":367076,"Delta":57614432},{"NoteNumber":63,"Velocity":43,"Duration":244717,"SoundDuration":244717,"Delta":57736791},{"NoteNumber":46,"Velocity":51,"Duration":232413,"SoundDuration":232413,"Delta":57981509},{"NoteNumber":72,"Velocity":52,"Duration":220187,"SoundDuration":220187,"Delta":58213923},{"NoteNumber":84,"Velocity":62,"Duration":220187,"SoundDuration":220187,"Delta":58213923},{"NoteNumber":56,"Velocity":45,"Duration":646887,"SoundDuration":646887,"Delta":58213923},{"NoteNumber":75,"Velocity":49,"Duration":216262,"SoundDuration":216262,"Delta":58434110},{"NoteNumber":87,"Velocity":58,"Duration":216262,"SoundDuration":216262,"Delta":58434110},{"NoteNumber":72,"Velocity":54,"Duration":210437,"SoundDuration":210437,"Delta":58650373},{"NoteNumber":84,"Velocity":60,"Duration":210437,"SoundDuration":210437,"Delta":58650373},{"NoteNumber":80,"Velocity":57,"Duration":215516,"SoundDuration":215516,"Delta":58860811},{"NoteNumber":68,"Velocity":52,"Duration":215516,"SoundDuration":215516,"Delta":58860811},{"NoteNumber":53,"Velocity":43,"Duration":215516,"SoundDuration":215516,"Delta":58860811},{"NoteNumber":79,"Velocity":58,"Duration":223247,"SoundDuration":223247,"Delta":59076328},{"NoteNumber":67,"Velocity":49,"Duration":223247,"SoundDuration":223247,"Delta":59076328},{"NoteNumber":63,"Velocity":43,"Duration":223247,"SoundDuration":223247,"Delta":59076328},{"NoteNumber":77,"Velocity":58,"Duration":213310,"SoundDuration":213310,"Delta":59299575},{"NoteNumber":65,"Velocity":49,"Duration":213310,"SoundDuration":213310,"Delta":59299575},{"NoteNumber":46,"Velocity":48,"Duration":213310,"SoundDuration":213310,"Delta":59299575},{"NoteNumber":67,"Velocity":49,"Duration":221663,"SoundDuration":221663,"Delta":59512886},{"NoteNumber":79,"Velocity":58,"Duration":221663,"SoundDuration":221663,"Delta":59512886},{"NoteNumber":63,"Velocity":45,"Duration":702323,"SoundDuration":702323,"Delta":59512886},{"NoteNumber":68,"Velocity":47,"Duration":235942,"SoundDuration":235942,"Delta":59734550},{"NoteNumber":80,"Velocity":56,"Duration":235942,"SoundDuration":235942,"Delta":59734550},{"NoteNumber":74,"Velocity":57,"Duration":367077,"SoundDuration":367077,"Delta":59970492},{"NoteNumber":86,"Velocity":68,"Duration":367077,"SoundDuration":367077,"Delta":59970492},{"NoteNumber":58,"Velocity":43,"Duration":244717,"SoundDuration":244717,"Delta":60215210},{"NoteNumber":72,"Velocity":48,"Duration":586407,"SoundDuration":586407,"Delta":60337569},{"NoteNumber":84,"Velocity":57,"Duration":586407,"SoundDuration":586407,"Delta":60337569},{"NoteNumber":68,"Velocity":43,"Duration":244717,"SoundDuration":244717,"Delta":60459928},{"NoteNumber":46,"Velocity":45,"Duration":219330,"SoundDuration":219330,"Delta":60704646},{"NoteNumber":64,"Velocity":44,"Duration":239635,"SoundDuration":239635,"Delta":60923976},{"NoteNumber":76,"Velocity":52,"Duration":239635,"SoundDuration":239635,"Delta":60923976},{"NoteNumber":55,"Velocity":40,"Duration":239635,"SoundDuration":239635,"Delta":60923976},{"NoteNumber":65,"Velocity":40,"Duration":252546,"SoundDuration":252546,"Delta":61163612},{"NoteNumber":77,"Velocity":48,"Duration":252546,"SoundDuration":252546,"Delta":61163612},{"NoteNumber":56,"Velocity":38,"Duration":252546,"SoundDuration":252546,"Delta":61163612},{"NoteNumber":68,"Velocity":47,"Duration":427796,"SoundDuration":427796,"Delta":61416159},{"NoteNumber":80,"Velocity":57,"Duration":427796,"SoundDuration":427796,"Delta":61416159},{"NoteNumber":60,"Velocity":35,"Duration":427796,"SoundDuration":427796,"Delta":61416159},{"NoteNumber":67,"Velocity":43,"Duration":448752,"SoundDuration":448752,"Delta":61843956},{"NoteNumber":79,"Velocity":51,"Duration":448752,"SoundDuration":448752,"Delta":61843956},{"NoteNumber":58,"Velocity":34,"Duration":448752,"SoundDuration":448752,"Delta":61843956},{"NoteNumber":58,"Velocity":38,"Duration":252164,"SoundDuration":252164,"Delta":62292708},{"NoteNumber":67,"Velocity":49,"Duration":756493,"SoundDuration":756493,"Delta":62292708},{"NoteNumber":63,"Velocity":41,"Duration":756493,"SoundDuration":756493,"Delta":62292708},{"NoteNumber":39,"Velocity":36,"Duration":756493,"SoundDuration":756493,"Delta":62292708},{"NoteNumber":51,"Velocity":43,"Duration":756493,"SoundDuration":756493,"Delta":62292708},{"NoteNumber":57,"Velocity":44,"Duration":252164,"SoundDuration":252164,"Delta":62544873},{"NoteNumber":58,"Velocity":44,"Duration":252164,"SoundDuration":252164,"Delta":62797037},{"NoteNumber":55,"Velocity":47,"Duration":256410,"SoundDuration":256410,"Delta":63049202},{"NoteNumber":67,"Velocity":50,"Duration":491074,"SoundDuration":491074,"Delta":63305612},{"NoteNumber":63,"Velocity":50,"Duration":491074,"SoundDuration":491074,"Delta":63305612},{"NoteNumber":55,"Velocity":47,"Duration":242915,"SoundDuration":242915,"Delta":63305612},{"NoteNumber":34,"Velocity":34,"Duration":491074,"SoundDuration":491074,"Delta":63305612},{"NoteNumber":46,"Velocity":41,"Duration":491074,"SoundDuration":491074,"Delta":63305612},{"NoteNumber":58,"Velocity":42,"Duration":248159,"SoundDuration":248159,"Delta":63548527},{"NoteNumber":57,"Velocity":38,"Duration":240964,"SoundDuration":240964,"Delta":63796687},{"NoteNumber":62,"Velocity":41,"Duration":721156,"SoundDuration":721156,"Delta":63796687},{"NoteNumber":68,"Velocity":49,"Duration":721156,"SoundDuration":721156,"Delta":63796687},{"NoteNumber":41,"Velocity":36,"Duration":721156,"SoundDuration":721156,"Delta":63796687},{"NoteNumber":53,"Velocity":44,"Duration":721156,"SoundDuration":721156,"Delta":63796687},{"NoteNumber":58,"Velocity":37,"Duration":235293,"SoundDuration":235293,"Delta":64037651},{"NoteNumber":60,"Velocity":42,"Duration":244898,"SoundDuration":244898,"Delta":64272945},{"NoteNumber":61,"Velocity":38,"Duration":241935,"SoundDuration":241935,"Delta":64517843},{"NoteNumber":62,"Velocity":38,"Duration":243902,"SoundDuration":243902,"Delta":64759778},{"NoteNumber":68,"Velocity":48,"Duration":493902,"SoundDuration":493902,"Delta":64759778},{"NoteNumber":34,"Velocity":34,"Duration":493902,"SoundDuration":493902,"Delta":64759778},{"NoteNumber":46,"Velocity":41,"Duration":493902,"SoundDuration":493902,"Delta":64759778},{"NoteNumber":58,"Velocity":40,"Duration":250000,"SoundDuration":250000,"Delta":65003681},{"NoteNumber":58,"Velocity":36,"Duration":240499,"SoundDuration":240499,"Delta":65253681},{"NoteNumber":67,"Velocity":46,"Duration":729977,"SoundDuration":729977,"Delta":65253681},{"NoteNumber":63,"Velocity":38,"Duration":729977,"SoundDuration":729977,"Delta":65253681},{"NoteNumber":39,"Velocity":34,"Duration":729977,"SoundDuration":729977,"Delta":65253681},{"NoteNumber":51,"Velocity":40,"Duration":729977,"SoundDuration":729977,"Delta":65253681},{"NoteNumber":57,"Velocity":40,"Duration":245217,"SoundDuration":245217,"Delta":65494181},{"NoteNumber":58,"Velocity":44,"Duration":244259,"SoundDuration":244259,"Delta":65739399},{"NoteNumber":55,"Velocity":47,"Duration":243308,"SoundDuration":243308,"Delta":65983659},{"NoteNumber":67,"Velocity":50,"Duration":490464,"SoundDuration":490464,"Delta":66226968},{"NoteNumber":63,"Velocity":50,"Duration":490464,"SoundDuration":490464,"Delta":66226968},{"NoteNumber":55,"Velocity":47,"Duration":246204,"SoundDuration":246204,"Delta":66226968},{"NoteNumber":34,"Velocity":34,"Duration":490464,"SoundDuration":490464,"Delta":66226968},{"NoteNumber":46,"Velocity":41,"Duration":490464,"SoundDuration":490464,"Delta":66226968},{"NoteNumber":58,"Velocity":41,"Duration":244259,"SoundDuration":244259,"Delta":66473172},{"NoteNumber":57,"Velocity":36,"Duration":235941,"SoundDuration":235941,"Delta":66717432},{"NoteNumber":62,"Velocity":38,"Duration":708782,"SoundDuration":708782,"Delta":66717432},{"NoteNumber":68,"Velocity":46,"Duration":708782,"SoundDuration":708782,"Delta":66717432},{"NoteNumber":41,"Velocity":34,"Duration":708782,"SoundDuration":708782,"Delta":66717432},{"NoteNumber":53,"Velocity":41,"Duration":708782,"SoundDuration":708782,"Delta":66717432},{"NoteNumber":58,"Velocity":38,"Duration":233281,"SoundDuration":233281,"Delta":66953374},{"NoteNumber":60,"Velocity":42,"Duration":239558,"SoundDuration":239558,"Delta":67186656},{"NoteNumber":61,"Velocity":38,"Duration":250146,"SoundDuration":250146,"Delta":67426215},{"NoteNumber":62,"Velocity":38,"Duration":258464,"SoundDuration":258464,"Delta":67676361},{"NoteNumber":68,"Velocity":48,"Duration":529296,"SoundDuration":529296,"Delta":67676361},{"NoteNumber":34,"Velocity":34,"Duration":529296,"SoundDuration":529296,"Delta":67676361},{"NoteNumber":46,"Velocity":41,"Duration":529296,"SoundDuration":529296,"Delta":67676361},{"NoteNumber":58,"Velocity":40,"Duration":270831,"SoundDuration":270831,"Delta":67934825},{"NoteNumber":63,"Velocity":31,"Duration":246204,"SoundDuration":246204,"Delta":68205657},{"NoteNumber":75,"Velocity":31,"Duration":246204,"SoundDuration":246204,"Delta":68205657},{"NoteNumber":51,"Velocity":29,"Duration":246204,"SoundDuration":246204,"Delta":68205657},{"NoteNumber":65,"Velocity":32,"Duration":232734,"SoundDuration":232734,"Delta":68451861},{"NoteNumber":77,"Velocity":32,"Duration":232734,"SoundDuration":232734,"Delta":68451861},{"NoteNumber":67,"Velocity":26,"Duration":232734,"SoundDuration":232734,"Delta":68451861},{"NoteNumber":79,"Velocity":32,"Duration":236835,"SoundDuration":236835,"Delta":68684596},{"NoteNumber":67,"Velocity":26,"Duration":487232,"SoundDuration":487232,"Delta":68684596},{"NoteNumber":70,"Velocity":36,"Duration":375594,"SoundDuration":375594,"Delta":68921432},{"NoteNumber":82,"Velocity":36,"Duration":375594,"SoundDuration":375594,"Delta":68921432},{"NoteNumber":63,"Velocity":24,"Duration":250396,"SoundDuration":250396,"Delta":69171829},{"NoteNumber":70,"Velocity":28,"Duration":375594,"SoundDuration":375594,"Delta":69297027},{"NoteNumber":82,"Velocity":28,"Duration":375594,"SoundDuration":375594,"Delta":69297027},{"NoteNumber":58,"Velocity":23,"Duration":250396,"SoundDuration":250396,"Delta":69422225},{"NoteNumber":53,"Velocity":29,"Duration":232414,"SoundDuration":232414,"Delta":69672622},{"NoteNumber":70,"Velocity":35,"Duration":232413,"SoundDuration":232413,"Delta":69905036},{"NoteNumber":82,"Velocity":35,"Duration":232413,"SoundDuration":232413,"Delta":69905036},{"NoteNumber":68,"Velocity":26,"Duration":665785,"SoundDuration":665785,"Delta":69905036},{"NoteNumber":72,"Velocity":29,"Duration":219330,"SoundDuration":219330,"Delta":70137450},{"NoteNumber":84,"Velocity":29,"Duration":219330,"SoundDuration":219330,"Delta":70137450},{"NoteNumber":74,"Velocity":36,"Duration":214040,"SoundDuration":214040,"Delta":70356780},{"NoteNumber":86,"Velocity":36,"Duration":214040,"SoundDuration":214040,"Delta":70356780},{"NoteNumber":89,"Velocity":37,"Duration":219330,"SoundDuration":219330,"Delta":70570821},{"NoteNumber":77,"Velocity":35,"Duration":219330,"SoundDuration":219330,"Delta":70570821},{"NoteNumber":62,"Velocity":24,"Duration":219330,"SoundDuration":219330,"Delta":70570821},{"NoteNumber":86,"Velocity":36,"Duration":223247,"SoundDuration":223247,"Delta":70790152},{"NoteNumber":74,"Velocity":36,"Duration":223247,"SoundDuration":223247,"Delta":70790152},{"NoteNumber":58,"Velocity":24,"Duration":223247,"SoundDuration":223247,"Delta":70790152},{"NoteNumber":84,"Velocity":36,"Duration":216262,"SoundDuration":216262,"Delta":71013399},{"NoteNumber":72,"Velocity":36,"Duration":216262,"SoundDuration":216262,"Delta":71013399},{"NoteNumber":51,"Velocity":29,"Duration":216262,"SoundDuration":216262,"Delta":71013399},{"NoteNumber":74,"Velocity":36,"Duration":221664,"SoundDuration":221664,"Delta":71229662},{"NoteNumber":86,"Velocity":36,"Duration":221664,"SoundDuration":221664,"Delta":71229662},{"NoteNumber":67,"Velocity":26,"Duration":441480,"SoundDuration":441480,"Delta":71229662},{"NoteNumber":72,"Velocity":31,"Duration":221663,"SoundDuration":221663,"Delta":71451326},{"NoteNumber":84,"Velocity":31,"Duration":221663,"SoundDuration":221663,"Delta":71451326},{"NoteNumber":67,"Velocity":34,"Duration":367076,"SoundDuration":367076,"Delta":71672990},{"NoteNumber":79,"Velocity":34,"Duration":367076,"SoundDuration":367076,"Delta":71672990},{"NoteNumber":63,"Velocity":24,"Duration":244717,"SoundDuration":244717,"Delta":71917708},{"NoteNumber":67,"Velocity":28,"Duration":367077,"SoundDuration":367077,"Delta":72040067},{"NoteNumber":79,"Velocity":28,"Duration":367077,"SoundDuration":367077,"Delta":72040067},{"NoteNumber":58,"Velocity":24,"Duration":244718,"SoundDuration":244718,"Delta":72162426},{"NoteNumber":53,"Velocity":29,"Duration":221664,"SoundDuration":221664,"Delta":72407144},{"NoteNumber":65,"Velocity":35,"Duration":221663,"SoundDuration":221663,"Delta":72628808},{"NoteNumber":77,"Velocity":35,"Duration":221663,"SoundDuration":221663,"Delta":72628808},{"NoteNumber":68,"Velocity":26,"Duration":435385,"SoundDuration":435385,"Delta":72628808},{"NoteNumber":67,"Velocity":36,"Duration":215517,"SoundDuration":215517,"Delta":72850472},{"NoteNumber":79,"Velocity":36,"Duration":215517,"SoundDuration":215517,"Delta":72850472},{"NoteNumber":68,"Velocity":36,"Duration":211148,"SoundDuration":211148,"Delta":73065989},{"NoteNumber":80,"Velocity":36,"Duration":211148,"SoundDuration":211148,"Delta":73065989},{"NoteNumber":82,"Velocity":36,"Duration":218563,"SoundDuration":218563,"Delta":73277138},{"NoteNumber":70,"Velocity":36,"Duration":218563,"SoundDuration":218563,"Delta":73277138},{"NoteNumber":62,"Velocity":24,"Duration":218563,"SoundDuration":218563,"Delta":73277138},{"NoteNumber":80,"Velocity":32,"Duration":224047,"SoundDuration":224047,"Delta":73495701},{"NoteNumber":68,"Velocity":32,"Duration":224047,"SoundDuration":224047,"Delta":73495701},{"NoteNumber":58,"Velocity":24,"Duration":224047,"SoundDuration":224047,"Delta":73495701},{"NoteNumber":79,"Velocity":36,"Duration":216262,"SoundDuration":216262,"Delta":73719749},{"NoteNumber":67,"Velocity":36,"Duration":214460,"SoundDuration":214460,"Delta":73719749},{"NoteNumber":51,"Velocity":29,"Duration":216262,"SoundDuration":216262,"Delta":73719749},{"NoteNumber":65,"Velocity":33,"Duration":226090,"SoundDuration":226090,"Delta":73936012},{"NoteNumber":77,"Velocity":33,"Duration":226090,"SoundDuration":226090,"Delta":73936012},{"NoteNumber":67,"Velocity":26,"Duration":700341,"SoundDuration":700341,"Delta":73936012},{"NoteNumber":63,"Velocity":31,"Duration":226090,"SoundDuration":226090,"Delta":74162103},{"NoteNumber":75,"Velocity":31,"Duration":226090,"SoundDuration":226090,"Delta":74162103},{"NoteNumber":58,"Velocity":34,"Duration":372239,"SoundDuration":372239,"Delta":74388194},{"NoteNumber":70,"Velocity":34,"Duration":372239,"SoundDuration":372239,"Delta":74388194},{"NoteNumber":63,"Velocity":24,"Duration":248159,"SoundDuration":248159,"Delta":74636354},{"NoteNumber":58,"Velocity":28,"Duration":372239,"SoundDuration":372239,"Delta":74760434},{"NoteNumber":70,"Velocity":28,"Duration":372239,"SoundDuration":372239,"Delta":74760434},{"NoteNumber":55,"Velocity":24,"Duration":248159,"SoundDuration":248159,"Delta":74884513},{"NoteNumber":46,"Velocity":29,"Duration":230857,"SoundDuration":230857,"Delta":75132673},{"NoteNumber":62,"Velocity":31,"Duration":1147294,"SoundDuration":1147294,"Delta":75363531},{"NoteNumber":65,"Velocity":35,"Duration":230857,"SoundDuration":230857,"Delta":75363531},{"NoteNumber":56,"Velocity":26,"Duration":681003,"SoundDuration":681003,"Delta":75363531},{"NoteNumber":67,"Velocity":36,"Duration":227445,"SoundDuration":227445,"Delta":75594389},{"NoteNumber":68,"Velocity":36,"Duration":222700,"SoundDuration":222700,"Delta":75821834},{"NoteNumber":70,"Velocity":36,"Duration":225056,"SoundDuration":225056,"Delta":76044534},{"NoteNumber":52,"Velocity":24,"Duration":225056,"SoundDuration":225056,"Delta":76044534},{"NoteNumber":68,"Velocity":36,"Duration":120617,"SoundDuration":120617,"Delta":76269591},{"NoteNumber":53,"Velocity":24,"Duration":241235,"SoundDuration":241235,"Delta":76269591},{"NoteNumber":67,"Velocity":32,"Duration":60308,"SoundDuration":60308,"Delta":76390208},{"NoteNumber":68,"Velocity":33,"Duration":60308,"SoundDuration":60308,"Delta":76450517},{"NoteNumber":63,"Velocity":32,"Duration":452444,"SoundDuration":452444,"Delta":76510826},{"NoteNumber":67,"Velocity":36,"Duration":222700,"SoundDuration":222700,"Delta":76510826},{"NoteNumber":46,"Velocity":29,"Duration":222700,"SoundDuration":222700,"Delta":76510826},{"NoteNumber":65,"Velocity":33,"Duration":229743,"SoundDuration":229743,"Delta":76733526},{"NoteNumber":55,"Velocity":26,"Duration":698989,"SoundDuration":698989,"Delta":76733526},{"NoteNumber":63,"Velocity":31,"Duration":229743,"SoundDuration":229743,"Delta":76963270},{"NoteNumber":58,"Velocity":34,"Duration":237506,"SoundDuration":237506,"Delta":77193014},{"NoteNumber":60,"Velocity":33,"Duration":239502,"SoundDuration":239502,"Delta":77432516},{"NoteNumber":58,"Velocity":24,"Duration":239502,"SoundDuration":239502,"Delta":77432516},{"NoteNumber":63,"Velocity":33,"Duration":239502,"SoundDuration":239502,"Delta":77672018},{"NoteNumber":55,"Velocity":24,"Duration":239502,"SoundDuration":239502,"Delta":77672018},{"NoteNumber":56,"Velocity":32,"Duration":229375,"SoundDuration":229375,"Delta":77911520},{"NoteNumber":62,"Velocity":36,"Duration":231302,"SoundDuration":231302,"Delta":77911520},{"NoteNumber":46,"Velocity":29,"Duration":231302,"SoundDuration":231302,"Delta":77911520},{"NoteNumber":65,"Velocity":33,"Duration":239196,"SoundDuration":239196,"Delta":78142823},{"NoteNumber":56,"Velocity":26,"Duration":735096,"SoundDuration":735096,"Delta":78142823},{"NoteNumber":62,"Velocity":31,"Duration":120637,"SoundDuration":120637,"Delta":78382020},{"NoteNumber":60,"Velocity":27,"Duration":60318,"SoundDuration":60318,"Delta":78502657},{"NoteNumber":62,"Velocity":27,"Duration":60318,"SoundDuration":60318,"Delta":78562975},{"NoteNumber":60,"Velocity":33,"Duration":381938,"SoundDuration":381938,"Delta":78623294},{"NoteNumber":52,"Velocity":24,"Duration":254625,"SoundDuration":254625,"Delta":78877919},{"NoteNumber":58,"Velocity":30,"Duration":381938,"SoundDuration":381938,"Delta":79005232},{"NoteNumber":56,"Velocity":30,"Duration":381938,"SoundDuration":381938,"Delta":79005232},{"NoteNumber":53,"Velocity":24,"Duration":254625,"SoundDuration":254625,"Delta":79132545},{"NoteNumber":63,"Velocity":31,"Duration":246204,"SoundDuration":246204,"Delta":79387170},{"NoteNumber":75,"Velocity":31,"Duration":246204,"SoundDuration":246204,"Delta":79387170},{"NoteNumber":51,"Velocity":29,"Duration":246204,"SoundDuration":246204,"Delta":79387170},{"NoteNumber":65,"Velocity":28,"Duration":232734,"SoundDuration":232734,"Delta":79633375},{"NoteNumber":77,"Velocity":28,"Duration":232734,"SoundDuration":232734,"Delta":79633375},{"NoteNumber":67,"Velocity":26,"Duration":232734,"SoundDuration":232734,"Delta":79633375},{"NoteNumber":79,"Velocity":32,"Duration":236835,"SoundDuration":236835,"Delta":79866110},{"NoteNumber":67,"Velocity":26,"Duration":487232,"SoundDuration":487232,"Delta":79866110},{"NoteNumber":70,"Velocity":36,"Duration":375594,"SoundDuration":375594,"Delta":80102946},{"NoteNumber":82,"Velocity":36,"Duration":375594,"SoundDuration":375594,"Delta":80102946},{"NoteNumber":63,"Velocity":24,"Duration":250396,"SoundDuration":250396,"Delta":80353342},{"NoteNumber":70,"Velocity":28,"Duration":375594,"SoundDuration":375594,"Delta":80478541},{"NoteNumber":82,"Velocity":28,"Duration":375594,"SoundDuration":375594,"Delta":80478541},{"NoteNumber":58,"Velocity":24,"Duration":250396,"SoundDuration":250396,"Delta":80603739},{"NoteNumber":53,"Velocity":29,"Duration":232414,"SoundDuration":232414,"Delta":80854135},{"NoteNumber":70,"Velocity":35,"Duration":232413,"SoundDuration":232413,"Delta":81086549},{"NoteNumber":82,"Velocity":35,"Duration":232413,"SoundDuration":232413,"Delta":81086549},{"NoteNumber":68,"Velocity":26,"Duration":665785,"SoundDuration":665785,"Delta":81086549},{"NoteNumber":72,"Velocity":31,"Duration":219330,"SoundDuration":219330,"Delta":81318963},{"NoteNumber":84,"Velocity":31,"Duration":219330,"SoundDuration":219330,"Delta":81318963},{"NoteNumber":74,"Velocity":36,"Duration":214040,"SoundDuration":214040,"Delta":81538294},{"NoteNumber":86,"Velocity":36,"Duration":214040,"SoundDuration":214040,"Delta":81538294},{"NoteNumber":89,"Velocity":37,"Duration":219330,"SoundDuration":219330,"Delta":81752335},{"NoteNumber":77,"Velocity":33,"Duration":219330,"SoundDuration":219330,"Delta":81752335},{"NoteNumber":62,"Velocity":24,"Duration":219330,"SoundDuration":219330,"Delta":81752335},{"NoteNumber":86,"Velocity":36,"Duration":223247,"SoundDuration":223247,"Delta":81971665},{"NoteNumber":74,"Velocity":36,"Duration":223247,"SoundDuration":223247,"Delta":81971665},{"NoteNumber":58,"Velocity":24,"Duration":223247,"SoundDuration":223247,"Delta":81971665},{"NoteNumber":84,"Velocity":36,"Duration":214776,"SoundDuration":214776,"Delta":82194913},{"NoteNumber":72,"Velocity":36,"Duration":214776,"SoundDuration":214776,"Delta":82194913},{"NoteNumber":51,"Velocity":29,"Duration":214776,"SoundDuration":214776,"Delta":82194913},{"NoteNumber":74,"Velocity":36,"Duration":221664,"SoundDuration":221664,"Delta":82409689},{"NoteNumber":86,"Velocity":36,"Duration":221664,"SoundDuration":221664,"Delta":82409689},{"NoteNumber":67,"Velocity":26,"Duration":441480,"SoundDuration":441480,"Delta":82409689},{"NoteNumber":72,"Velocity":28,"Duration":221663,"SoundDuration":221663,"Delta":82631353},{"NoteNumber":84,"Velocity":28,"Duration":221663,"SoundDuration":221663,"Delta":82631353},{"NoteNumber":67,"Velocity":34,"Duration":367076,"SoundDuration":367076,"Delta":82853017},{"NoteNumber":79,"Velocity":34,"Duration":367076,"SoundDuration":367076,"Delta":82853017},{"NoteNumber":63,"Velocity":24,"Duration":244717,"SoundDuration":244717,"Delta":83097735},{"NoteNumber":67,"Velocity":28,"Duration":367077,"SoundDuration":367077,"Delta":83220094},{"NoteNumber":79,"Velocity":28,"Duration":367077,"SoundDuration":367077,"Delta":83220094},{"NoteNumber":58,"Velocity":24,"Duration":244718,"SoundDuration":244718,"Delta":83342453},{"NoteNumber":53,"Velocity":29,"Duration":221664,"SoundDuration":221664,"Delta":83587171},{"NoteNumber":65,"Velocity":35,"Duration":221663,"SoundDuration":221663,"Delta":83808835},{"NoteNumber":77,"Velocity":35,"Duration":221663,"SoundDuration":221663,"Delta":83808835},{"NoteNumber":68,"Velocity":26,"Duration":437635,"SoundDuration":437635,"Delta":83808835},{"NoteNumber":67,"Velocity":36,"Duration":217786,"SoundDuration":217786,"Delta":84030499},{"NoteNumber":79,"Velocity":36,"Duration":217786,"SoundDuration":217786,"Delta":84030499},{"NoteNumber":68,"Velocity":36,"Duration":214040,"SoundDuration":214040,"Delta":84248285},{"NoteNumber":80,"Velocity":36,"Duration":214040,"SoundDuration":214040,"Delta":84248285},{"NoteNumber":82,"Velocity":36,"Duration":218563,"SoundDuration":218563,"Delta":84462326},{"NoteNumber":70,"Velocity":36,"Duration":218563,"SoundDuration":218563,"Delta":84462326},{"NoteNumber":62,"Velocity":24,"Duration":218563,"SoundDuration":218563,"Delta":84462326},{"NoteNumber":80,"Velocity":36,"Duration":224047,"SoundDuration":224047,"Delta":84680890},{"NoteNumber":68,"Velocity":36,"Duration":224047,"SoundDuration":224047,"Delta":84680890},{"NoteNumber":58,"Velocity":24,"Duration":224047,"SoundDuration":224047,"Delta":84680890},{"NoteNumber":79,"Velocity":36,"Duration":216262,"SoundDuration":216262,"Delta":84904938},{"NoteNumber":67,"Velocity":36,"Duration":214460,"SoundDuration":214460,"Delta":84904938},{"NoteNumber":51,"Velocity":29,"Duration":216262,"SoundDuration":216262,"Delta":84904938},{"NoteNumber":65,"Velocity":33,"Duration":226090,"SoundDuration":226090,"Delta":85121201},{"NoteNumber":77,"Velocity":33,"Duration":226090,"SoundDuration":226090,"Delta":85121201},{"NoteNumber":67,"Velocity":26,"Duration":700341,"SoundDuration":700341,"Delta":85121201},{"NoteNumber":63,"Velocity":31,"Duration":226090,"SoundDuration":226090,"Delta":85347292},{"NoteNumber":75,"Velocity":31,"Duration":226090,"SoundDuration":226090,"Delta":85347292},{"NoteNumber":58,"Velocity":34,"Duration":372239,"SoundDuration":372239,"Delta":85573383},{"NoteNumber":70,"Velocity":34,"Duration":372239,"SoundDuration":372239,"Delta":85573383},{"NoteNumber":63,"Velocity":24,"Duration":248159,"SoundDuration":248159,"Delta":85821542},{"NoteNumber":58,"Velocity":28,"Duration":372239,"SoundDuration":372239,"Delta":85945622},{"NoteNumber":70,"Velocity":28,"Duration":372239,"SoundDuration":372239,"Delta":85945622},{"NoteNumber":55,"Velocity":24,"Duration":248159,"SoundDuration":248159,"Delta":86069702},{"NoteNumber":46,"Velocity":29,"Duration":230857,"SoundDuration":230857,"Delta":86317861},{"NoteNumber":62,"Velocity":31,"Duration":1147294,"SoundDuration":1147294,"Delta":86548719},{"NoteNumber":65,"Velocity":35,"Duration":230857,"SoundDuration":230857,"Delta":86548719},{"NoteNumber":56,"Velocity":26,"Duration":681003,"SoundDuration":681003,"Delta":86548719},{"NoteNumber":67,"Velocity":36,"Duration":227445,"SoundDuration":227445,"Delta":86779577},{"NoteNumber":68,"Velocity":36,"Duration":222700,"SoundDuration":222700,"Delta":87007022},{"NoteNumber":70,"Velocity":36,"Duration":225056,"SoundDuration":225056,"Delta":87229723},{"NoteNumber":52,"Velocity":24,"Duration":225056,"SoundDuration":225056,"Delta":87229723},{"NoteNumber":68,"Velocity":36,"Duration":120617,"SoundDuration":120617,"Delta":87454779},{"NoteNumber":53,"Velocity":24,"Duration":241235,"SoundDuration":241235,"Delta":87454779},{"NoteNumber":67,"Velocity":32,"Duration":60308,"SoundDuration":60308,"Delta":87575397},{"NoteNumber":68,"Velocity":33,"Duration":60308,"SoundDuration":60308,"Delta":87635706},{"NoteNumber":63,"Velocity":32,"Duration":452444,"SoundDuration":452444,"Delta":87696014},{"NoteNumber":67,"Velocity":36,"Duration":222700,"SoundDuration":222700,"Delta":87696014},{"NoteNumber":46,"Velocity":29,"Duration":222700,"SoundDuration":222700,"Delta":87696014},{"NoteNumber":65,"Velocity":33,"Duration":229743,"SoundDuration":229743,"Delta":87918715},{"NoteNumber":55,"Velocity":26,"Duration":698989,"SoundDuration":698989,"Delta":87918715},{"NoteNumber":63,"Velocity":31,"Duration":229743,"SoundDuration":229743,"Delta":88148459},{"NoteNumber":58,"Velocity":34,"Duration":237506,"SoundDuration":237506,"Delta":88378203},{"NoteNumber":60,"Velocity":33,"Duration":239502,"SoundDuration":239502,"Delta":88617705},{"NoteNumber":58,"Velocity":24,"Duration":239502,"SoundDuration":239502,"Delta":88617705},{"NoteNumber":63,"Velocity":33,"Duration":239502,"SoundDuration":239502,"Delta":88857207},{"NoteNumber":55,"Velocity":24,"Duration":239502,"SoundDuration":239502,"Delta":88857207},{"NoteNumber":56,"Velocity":32,"Duration":229375,"SoundDuration":229375,"Delta":89096709},{"NoteNumber":62,"Velocity":36,"Duration":231302,"SoundDuration":231302,"Delta":89096709},{"NoteNumber":46,"Velocity":29,"Duration":231302,"SoundDuration":231302,"Delta":89096709},{"NoteNumber":65,"Velocity":33,"Duration":239196,"SoundDuration":239196,"Delta":89328012},{"NoteNumber":56,"Velocity":26,"Duration":735096,"SoundDuration":735096,"Delta":89328012},{"NoteNumber":62,"Velocity":31,"Duration":120637,"SoundDuration":120637,"Delta":89567208},{"NoteNumber":60,"Velocity":27,"Duration":60318,"SoundDuration":60318,"Delta":89687845},{"NoteNumber":62,"Velocity":27,"Duration":60318,"SoundDuration":60318,"Delta":89748164},{"NoteNumber":60,"Velocity":33,"Duration":381938,"SoundDuration":381938,"Delta":89808482},{"NoteNumber":52,"Velocity":24,"Duration":254625,"SoundDuration":254625,"Delta":90063108},{"NoteNumber":58,"Velocity":30,"Duration":381938,"SoundDuration":381938,"Delta":90190421},{"NoteNumber":56,"Velocity":30,"Duration":381938,"SoundDuration":381938,"Delta":90190421},{"NoteNumber":53,"Velocity":24,"Duration":254625,"SoundDuration":254625,"Delta":90317733},{"NoteNumber":58,"Velocity":28,"Duration":252164,"SoundDuration":252164,"Delta":90572359},{"NoteNumber":67,"Velocity":36,"Duration":756493,"SoundDuration":756493,"Delta":90572359},{"NoteNumber":63,"Velocity":30,"Duration":756493,"SoundDuration":756493,"Delta":90572359},{"NoteNumber":39,"Velocity":27,"Duration":756493,"SoundDuration":756493,"Delta":90572359},{"NoteNumber":51,"Velocity":32,"Duration":756493,"SoundDuration":756493,"Delta":90572359},{"NoteNumber":57,"Velocity":33,"Duration":252164,"SoundDuration":252164,"Delta":90824523},{"NoteNumber":58,"Velocity":33,"Duration":252164,"SoundDuration":252164,"Delta":91076688},{"NoteNumber":55,"Velocity":35,"Duration":257510,"SoundDuration":257510,"Delta":91328852},{"NoteNumber":67,"Velocity":37,"Duration":491074,"SoundDuration":491074,"Delta":91586363},{"NoteNumber":63,"Velocity":37,"Duration":491074,"SoundDuration":491074,"Delta":91586363},{"NoteNumber":55,"Velocity":35,"Duration":242914,"SoundDuration":242914,"Delta":91586363},{"NoteNumber":34,"Velocity":25,"Duration":491074,"SoundDuration":491074,"Delta":91586363},{"NoteNumber":46,"Velocity":30,"Duration":491074,"SoundDuration":491074,"Delta":91586363},{"NoteNumber":58,"Velocity":31,"Duration":248159,"SoundDuration":248159,"Delta":91829278},{"NoteNumber":57,"Velocity":28,"Duration":239366,"SoundDuration":239366,"Delta":92077437},{"NoteNumber":62,"Velocity":30,"Duration":709078,"SoundDuration":709078,"Delta":92077437},{"NoteNumber":68,"Velocity":36,"Duration":709078,"SoundDuration":709078,"Delta":92077437},{"NoteNumber":41,"Velocity":27,"Duration":709078,"SoundDuration":709078,"Delta":92077437},{"NoteNumber":53,"Velocity":33,"Duration":709078,"SoundDuration":709078,"Delta":92077437},{"NoteNumber":58,"Velocity":31,"Duration":232557,"SoundDuration":232557,"Delta":92316804},{"NoteNumber":60,"Velocity":31,"Duration":237154,"SoundDuration":237154,"Delta":92549362},{"NoteNumber":61,"Velocity":31,"Duration":243902,"SoundDuration":243902,"Delta":92786516},{"NoteNumber":62,"Velocity":28,"Duration":244898,"SoundDuration":244898,"Delta":93030418},{"NoteNumber":68,"Velocity":36,"Duration":494898,"SoundDuration":494898,"Delta":93030418},{"NoteNumber":34,"Velocity":25,"Duration":494898,"SoundDuration":494898,"Delta":93030418},{"NoteNumber":46,"Velocity":30,"Duration":494898,"SoundDuration":494898,"Delta":93030418},{"NoteNumber":58,"Velocity":30,"Duration":250000,"SoundDuration":250000,"Delta":93275316},{"NoteNumber":58,"Velocity":27,"Duration":240499,"SoundDuration":240499,"Delta":93525316},{"NoteNumber":67,"Velocity":35,"Duration":729977,"SoundDuration":729977,"Delta":93525316},{"NoteNumber":63,"Velocity":28,"Duration":729977,"SoundDuration":729977,"Delta":93525316},{"NoteNumber":39,"Velocity":25,"Duration":729977,"SoundDuration":729977,"Delta":93525316},{"NoteNumber":51,"Velocity":30,"Duration":729977,"SoundDuration":729977,"Delta":93525316},{"NoteNumber":57,"Velocity":33,"Duration":245217,"SoundDuration":245217,"Delta":93765816},{"NoteNumber":58,"Velocity":33,"Duration":244259,"SoundDuration":244259,"Delta":94011034},{"NoteNumber":55,"Velocity":35,"Duration":243308,"SoundDuration":243308,"Delta":94255294},{"NoteNumber":67,"Velocity":37,"Duration":490464,"SoundDuration":490464,"Delta":94498603},{"NoteNumber":63,"Velocity":37,"Duration":490464,"SoundDuration":490464,"Delta":94498603},{"NoteNumber":55,"Velocity":35,"Duration":246204,"SoundDuration":246204,"Delta":94498603},{"NoteNumber":34,"Velocity":25,"Duration":490464,"SoundDuration":490464,"Delta":94498603},{"NoteNumber":46,"Velocity":30,"Duration":490464,"SoundDuration":490464,"Delta":94498603},{"NoteNumber":58,"Velocity":30,"Duration":244259,"SoundDuration":244259,"Delta":94744808},{"NoteNumber":57,"Velocity":27,"Duration":235941,"SoundDuration":235941,"Delta":94989068},{"NoteNumber":62,"Velocity":28,"Duration":702685,"SoundDuration":702685,"Delta":94989068},{"NoteNumber":68,"Velocity":35,"Duration":702685,"SoundDuration":702685,"Delta":94989068},{"NoteNumber":41,"Velocity":25,"Duration":702685,"SoundDuration":702685,"Delta":94989068},{"NoteNumber":53,"Velocity":30,"Duration":702685,"SoundDuration":702685,"Delta":94989068},{"NoteNumber":58,"Velocity":31,"Duration":229007,"SoundDuration":229007,"Delta":95225010},{"NoteNumber":60,"Velocity":31,"Duration":237736,"SoundDuration":237736,"Delta":95454017},{"NoteNumber":61,"Velocity":31,"Duration":241429,"SoundDuration":241429,"Delta":95691754},{"NoteNumber":62,"Velocity":28,"Duration":238644,"SoundDuration":238644,"Delta":95933183},{"NoteNumber":68,"Velocity":36,"Duration":482904,"SoundDuration":482904,"Delta":95933183},{"NoteNumber":34,"Velocity":25,"Duration":482904,"SoundDuration":482904,"Delta":95933183},{"NoteNumber":46,"Velocity":30,"Duration":482904,"SoundDuration":482904,"Delta":95933183},{"NoteNumber":58,"Velocity":30,"Duration":244259,"SoundDuration":244259,"Delta":96171828},{"NoteNumber":58,"Velocity":27,"Duration":240499,"SoundDuration":240499,"Delta":96416088},{"NoteNumber":67,"Velocity":35,"Duration":729977,"SoundDuration":729977,"Delta":96416088},{"NoteNumber":63,"Velocity":28,"Duration":729977,"SoundDuration":729977,"Delta":96416088},{"NoteNumber":39,"Velocity":25,"Duration":729977,"SoundDuration":729977,"Delta":96416088},{"NoteNumber":51,"Velocity":30,"Duration":729977,"SoundDuration":729977,"Delta":96416088},{"NoteNumber":57,"Velocity":32,"Duration":245217,"SoundDuration":245217,"Delta":96656588},{"NoteNumber":58,"Velocity":32,"Duration":244259,"SoundDuration":244259,"Delta":96901806},{"NoteNumber":55,"Velocity":33,"Duration":256322,"SoundDuration":256322,"Delta":97146066},{"NoteNumber":67,"Velocity":36,"Duration":502310,"SoundDuration":502310,"Delta":97402388},{"NoteNumber":63,"Velocity":36,"Duration":502310,"SoundDuration":502310,"Delta":97402388},{"NoteNumber":55,"Velocity":33,"Duration":252164,"SoundDuration":252164,"Delta":97402388},{"NoteNumber":34,"Velocity":23,"Duration":502310,"SoundDuration":502310,"Delta":97402388},{"NoteNumber":46,"Velocity":28,"Duration":502310,"SoundDuration":502310,"Delta":97402388},{"NoteNumber":58,"Velocity":28,"Duration":250146,"SoundDuration":250146,"Delta":97654553},{"NoteNumber":58,"Velocity":25,"Duration":256322,"SoundDuration":256322,"Delta":97904699},{"NoteNumber":67,"Velocity":32,"Duration":848999,"SoundDuration":848999,"Delta":97904699},{"NoteNumber":63,"Velocity":27,"Duration":848999,"SoundDuration":848999,"Delta":97904699},{"NoteNumber":39,"Velocity":23,"Duration":848999,"SoundDuration":848999,"Delta":97904699},{"NoteNumber":51,"Velocity":27,"Duration":848999,"SoundDuration":848999,"Delta":97904699},{"NoteNumber":57,"Velocity":27,"Duration":278836,"SoundDuration":278836,"Delta":98161021},{"NoteNumber":58,"Velocity":30,"Duration":313840,"SoundDuration":313840,"Delta":98439858},{"NoteNumber":55,"Velocity":31,"Duration":313840,"SoundDuration":313840,"Delta":98753698},{"NoteNumber":67,"Velocity":29,"Duration":776093,"SoundDuration":776093,"Delta":99067539},{"NoteNumber":63,"Velocity":29,"Duration":776093,"SoundDuration":776093,"Delta":99067539},{"NoteNumber":55,"Velocity":27,"Duration":342505,"SoundDuration":342505,"Delta":99067539},{"NoteNumber":34,"Velocity":19,"Duration":776093,"SoundDuration":776093,"Delta":99067539},{"NoteNumber":46,"Velocity":24,"Duration":776093,"SoundDuration":776093,"Delta":99067539},{"NoteNumber":58,"Velocity":23,"Duration":433588,"SoundDuration":433588,"Delta":99410044},{"NoteNumber":55,"Velocity":22,"Duration":2335841,"SoundDuration":2335841,"Delta":99843632},{"NoteNumber":63,"Velocity":22,"Duration":2335841,"SoundDuration":2335841,"Delta":99843632},{"NoteNumber":67,"Velocity":27,"Duration":2335841,"SoundDuration":2335841,"Delta":99843632},{"NoteNumber":39,"Velocity":20,"Duration":2335841,"SoundDuration":2335841,"Delta":99843632},{"NoteNumber":51,"Velocity":25,"Duration":2335841,"SoundDuration":2335841,"Delta":99843632},{"NoteNumber":71,"Velocity":51,"Duration":1617939,"SoundDuration":1617939,"Delta":102958088},{"NoteNumber":75,"Velocity":51,"Duration":1617939,"SoundDuration":1617939,"Delta":102958088},{"NoteNumber":44,"Velocity":36,"Duration":282353,"SoundDuration":282353,"Delta":102958088},{"NoteNumber":51,"Velocity":33,"Duration":268937,"SoundDuration":268937,"Delta":103240441},{"NoteNumber":56,"Velocity":30,"Duration":268937,"SoundDuration":268937,"Delta":103509379},{"NoteNumber":59,"Velocity":31,"Duration":268937,"SoundDuration":268937,"Delta":103778316},{"NoteNumber":61,"Velocity":34,"Duration":264386,"SoundDuration":264386,"Delta":104047254},{"NoteNumber":63,"Velocity":33,"Duration":264386,"SoundDuration":264386,"Delta":104311641},{"NoteNumber":73,"Velocity":57,"Duration":264386,"SoundDuration":264386,"Delta":104576028},{"NoteNumber":68,"Velocity":36,"Duration":1579934,"SoundDuration":1579934,"Delta":104576028},{"NoteNumber":64,"Velocity":36,"Duration":1579934,"SoundDuration":1579934,"Delta":104576028},{"NoteNumber":75,"Velocity":52,"Duration":264386,"SoundDuration":264386,"Delta":104840415},{"NoteNumber":76,"Velocity":50,"Duration":264386,"SoundDuration":264386,"Delta":105104802},{"NoteNumber":78,"Velocity":53,"Duration":255645,"SoundDuration":255645,"Delta":105369189},{"NoteNumber":82,"Velocity":53,"Duration":261028,"SoundDuration":261028,"Delta":105624834},{"NoteNumber":80,"Velocity":51,"Duration":270099,"SoundDuration":270099,"Delta":105885863},{"NoteNumber":71,"Velocity":51,"Duration":1599734,"SoundDuration":1599734,"Delta":106155963},{"NoteNumber":75,"Velocity":51,"Duration":1599734,"SoundDuration":1599734,"Delta":106155963},{"NoteNumber":44,"Velocity":36,"Duration":282353,"SoundDuration":282353,"Delta":106155963},{"NoteNumber":51,"Velocity":33,"Duration":258665,"SoundDuration":258665,"Delta":106438316},{"NoteNumber":56,"Velocity":30,"Duration":264971,"SoundDuration":264971,"Delta":106696981},{"NoteNumber":59,"Velocity":31,"Duration":264971,"SoundDuration":264971,"Delta":106961952},{"NoteNumber":61,"Velocity":34,"Duration":264386,"SoundDuration":264386,"Delta":107226923},{"NoteNumber":63,"Velocity":36,"Duration":264386,"SoundDuration":264386,"Delta":107491310},{"NoteNumber":73,"Velocity":57,"Duration":264386,"SoundDuration":264386,"Delta":107755697},{"NoteNumber":68,"Velocity":36,"Duration":1579934,"SoundDuration":1579934,"Delta":107755697},{"NoteNumber":64,"Velocity":36,"Duration":1579934,"SoundDuration":1579934,"Delta":107755697},{"NoteNumber":75,"Velocity":50,"Duration":264386,"SoundDuration":264386,"Delta":108020084},{"NoteNumber":76,"Velocity":50,"Duration":264386,"SoundDuration":264386,"Delta":108284471},{"NoteNumber":78,"Velocity":53,"Duration":255645,"SoundDuration":255645,"Delta":108548858},{"NoteNumber":80,"Velocity":53,"Duration":261028,"SoundDuration":261028,"Delta":108804504},{"NoteNumber":76,"Velocity":55,"Duration":270099,"SoundDuration":270099,"Delta":109065532},{"NoteNumber":75,"Velocity":58,"Duration":275836,"SoundDuration":275836,"Delta":109335632},{"NoteNumber":44,"Velocity":36,"Duration":275836,"SoundDuration":275836,"Delta":109335632},{"NoteNumber":73,"Velocity":53,"Duration":265580,"SoundDuration":265580,"Delta":109611469},{"NoteNumber":51,"Velocity":33,"Duration":265580,"SoundDuration":265580,"Delta":109611469},{"NoteNumber":71,"Velocity":55,"Duration":268357,"SoundDuration":268357,"Delta":109877049},{"NoteNumber":56,"Velocity":30,"Duration":268357,"SoundDuration":268357,"Delta":109877049},{"NoteNumber":68,"Velocity":52,"Duration":262123,"SoundDuration":262123,"Delta":110145407},{"NoteNumber":59,"Velocity":31,"Duration":262123,"SoundDuration":262123,"Delta":110145407},{"NoteNumber":70,"Velocity":52,"Duration":268937,"SoundDuration":268937,"Delta":110407530},{"NoteNumber":61,"Velocity":34,"Duration":268937,"SoundDuration":268937,"Delta":110407530},{"NoteNumber":71,"Velocity":52,"Duration":273672,"SoundDuration":273672,"Delta":110676468},{"NoteNumber":63,"Velocity":36,"Duration":273672,"SoundDuration":273672,"Delta":110676468},{"NoteNumber":68,"Velocity":51,"Duration":267809,"SoundDuration":267809,"Delta":110950140},{"NoteNumber":73,"Velocity":57,"Duration":267809,"SoundDuration":267809,"Delta":110950140},{"NoteNumber":64,"Velocity":36,"Duration":1669343,"SoundDuration":1669343,"Delta":110950140},{"NoteNumber":56,"Velocity":36,"Duration":1669343,"SoundDuration":1669343,"Delta":110950140},{"NoteNumber":75,"Velocity":50,"Duration":267809,"SoundDuration":267809,"Delta":111217950},{"NoteNumber":73,"Velocity":48,"Duration":267809,"SoundDuration":267809,"Delta":111485759},{"NoteNumber":76,"Velocity":44,"Duration":278836,"SoundDuration":278836,"Delta":111753569},{"NoteNumber":78,"Velocity":42,"Duration":280924,"SoundDuration":280924,"Delta":112032405},{"NoteNumber":76,"Velocity":41,"Duration":306153,"SoundDuration":306153,"Delta":112313330},{"NoteNumber":68,"Velocity":38,"Duration":1656076,"SoundDuration":1656076,"Delta":112619484},{"NoteNumber":71,"Velocity":38,"Duration":1656076,"SoundDuration":1656076,"Delta":112619484},{"NoteNumber":75,"Velocity":38,"Duration":1656076,"SoundDuration":1656076,"Delta":112619484},{"NoteNumber":80,"Velocity":38,"Duration":1656076,"SoundDuration":1656076,"Delta":112619484},{"NoteNumber":44,"Velocity":24,"Duration":282353,"SoundDuration":282353,"Delta":112619484},{"NoteNumber":51,"Velocity":21,"Duration":268937,"SoundDuration":268937,"Delta":112901837},{"NoteNumber":56,"Velocity":20,"Duration":268937,"SoundDuration":268937,"Delta":113170774},{"NoteNumber":59,"Velocity":20,"Duration":270710,"SoundDuration":270710,"Delta":113439712},{"NoteNumber":61,"Velocity":22,"Duration":273479,"SoundDuration":273479,"Delta":113710423},{"NoteNumber":63,"Velocity":24,"Duration":291658,"SoundDuration":291658,"Delta":113983902},{"NoteNumber":75,"Velocity":38,"Duration":1749950,"SoundDuration":1749950,"Delta":114275561},{"NoteNumber":67,"Velocity":24,"Duration":1749950,"SoundDuration":1749950,"Delta":114275561},{"NoteNumber":61,"Velocity":23,"Duration":1749950,"SoundDuration":1749950,"Delta":114275561},{"NoteNumber":71,"Velocity":51,"Duration":1617939,"SoundDuration":1617939,"Delta":116025512},{"NoteNumber":75,"Velocity":51,"Duration":1617939,"SoundDuration":1617939,"Delta":116025512},{"NoteNumber":44,"Velocity":36,"Duration":282353,"SoundDuration":282353,"Delta":116025512},{"NoteNumber":51,"Velocity":33,"Duration":268937,"SoundDuration":268937,"Delta":116307865},{"NoteNumber":56,"Velocity":30,"Duration":268937,"SoundDuration":268937,"Delta":116576802},{"NoteNumber":59,"Velocity":31,"Duration":268937,"SoundDuration":268937,"Delta":116845740},{"NoteNumber":61,"Velocity":34,"Duration":264386,"SoundDuration":264386,"Delta":117114677},{"NoteNumber":63,"Velocity":36,"Duration":264386,"SoundDuration":264386,"Delta":117379064},{"NoteNumber":73,"Velocity":57,"Duration":264386,"SoundDuration":264386,"Delta":117643451},{"NoteNumber":68,"Velocity":36,"Duration":1579934,"SoundDuration":1579934,"Delta":117643451},{"NoteNumber":64,"Velocity":36,"Duration":1579934,"SoundDuration":1579934,"Delta":117643451},{"NoteNumber":75,"Velocity":51,"Duration":264386,"SoundDuration":264386,"Delta":117907838},{"NoteNumber":76,"Velocity":51,"Duration":264386,"SoundDuration":264386,"Delta":118172225},{"NoteNumber":78,"Velocity":53,"Duration":255645,"SoundDuration":255645,"Delta":118436612},{"NoteNumber":82,"Velocity":55,"Duration":261028,"SoundDuration":261028,"Delta":118692258},{"NoteNumber":80,"Velocity":53,"Duration":270099,"SoundDuration":270099,"Delta":118953286},{"NoteNumber":71,"Velocity":51,"Duration":1599734,"SoundDuration":1599734,"Delta":119223386},{"NoteNumber":75,"Velocity":51,"Duration":1599734,"SoundDuration":1599734,"Delta":119223386},{"NoteNumber":44,"Velocity":36,"Duration":282353,"SoundDuration":282353,"Delta":119223386},{"NoteNumber":51,"Velocity":33,"Duration":258665,"SoundDuration":258665,"Delta":119505739},{"NoteNumber":56,"Velocity":30,"Duration":264971,"SoundDuration":264971,"Delta":119764405},{"NoteNumber":59,"Velocity":31,"Duration":264971,"SoundDuration":264971,"Delta":120029376},{"NoteNumber":61,"Velocity":34,"Duration":264386,"SoundDuration":264386,"Delta":120294347},{"NoteNumber":63,"Velocity":36,"Duration":264386,"SoundDuration":264386,"Delta":120558734},{"NoteNumber":73,"Velocity":57,"Duration":264386,"SoundDuration":264386,"Delta":120823121},{"NoteNumber":68,"Velocity":36,"Duration":1579934,"SoundDuration":1579934,"Delta":120823121},{"NoteNumber":64,"Velocity":36,"Duration":1579934,"SoundDuration":1579934,"Delta":120823121},{"NoteNumber":75,"Velocity":51,"Duration":264386,"SoundDuration":264386,"Delta":121087508},{"NoteNumber":76,"Velocity":52,"Duration":264386,"SoundDuration":264386,"Delta":121351895},{"NoteNumber":78,"Velocity":52,"Duration":255645,"SoundDuration":255645,"Delta":121616282},{"NoteNumber":80,"Velocity":53,"Duration":261028,"SoundDuration":261028,"Delta":121871927},{"NoteNumber":76,"Velocity":55,"Duration":270099,"SoundDuration":270099,"Delta":122132956},{"NoteNumber":75,"Velocity":58,"Duration":275836,"SoundDuration":275836,"Delta":122403056},{"NoteNumber":44,"Velocity":36,"Duration":275836,"SoundDuration":275836,"Delta":122403056},{"NoteNumber":73,"Velocity":53,"Duration":265580,"SoundDuration":265580,"Delta":122678892},{"NoteNumber":51,"Velocity":33,"Duration":265580,"SoundDuration":265580,"Delta":122678892},{"NoteNumber":71,"Velocity":55,"Duration":268357,"SoundDuration":268357,"Delta":122944473},{"NoteNumber":56,"Velocity":30,"Duration":268357,"SoundDuration":268357,"Delta":122944473},{"NoteNumber":68,"Velocity":52,"Duration":262123,"SoundDuration":262123,"Delta":123212831},{"NoteNumber":59,"Velocity":31,"Duration":262123,"SoundDuration":262123,"Delta":123212831},{"NoteNumber":70,"Velocity":52,"Duration":268937,"SoundDuration":268937,"Delta":123474954},{"NoteNumber":61,"Velocity":34,"Duration":268937,"SoundDuration":268937,"Delta":123474954},{"NoteNumber":71,"Velocity":52,"Duration":273672,"SoundDuration":273672,"Delta":123743891},{"NoteNumber":63,"Velocity":36,"Duration":273672,"SoundDuration":273672,"Delta":123743891},{"NoteNumber":68,"Velocity":49,"Duration":267809,"SoundDuration":267809,"Delta":124017564},{"NoteNumber":73,"Velocity":57,"Duration":267809,"SoundDuration":267809,"Delta":124017564},{"NoteNumber":64,"Velocity":36,"Duration":1679389,"SoundDuration":1679389,"Delta":124017564},{"NoteNumber":56,"Velocity":36,"Duration":1679389,"SoundDuration":1679389,"Delta":124017564},{"NoteNumber":75,"Velocity":49,"Duration":267809,"SoundDuration":267809,"Delta":124285373},{"NoteNumber":73,"Velocity":47,"Duration":267809,"SoundDuration":267809,"Delta":124553183},{"NoteNumber":76,"Velocity":45,"Duration":277341,"SoundDuration":277341,"Delta":124820992},{"NoteNumber":78,"Velocity":42,"Duration":287384,"SoundDuration":287384,"Delta":125098333},{"NoteNumber":76,"Velocity":41,"Duration":311235,"SoundDuration":311235,"Delta":125385717},{"NoteNumber":68,"Velocity":38,"Duration":1638108,"SoundDuration":1638108,"Delta":125696953},{"NoteNumber":71,"Velocity":38,"Duration":1638108,"SoundDuration":1638108,"Delta":125696953},{"NoteNumber":75,"Velocity":38,"Duration":1638108,"SoundDuration":1638108,"Delta":125696953},{"NoteNumber":80,"Velocity":38,"Duration":1638108,"SoundDuration":1638108,"Delta":125696953},{"NoteNumber":44,"Velocity":24,"Duration":282353,"SoundDuration":282353,"Delta":125696953},{"NoteNumber":51,"Velocity":21,"Duration":268937,"SoundDuration":268937,"Delta":125979306},{"NoteNumber":56,"Velocity":20,"Duration":268937,"SoundDuration":268937,"Delta":126248243},{"NoteNumber":59,"Velocity":20,"Duration":270710,"SoundDuration":270710,"Delta":126517181},{"NoteNumber":61,"Velocity":22,"Duration":273479,"SoundDuration":273479,"Delta":126787892},{"NoteNumber":63,"Velocity":24,"Duration":273690,"SoundDuration":273690,"Delta":127061371},{"NoteNumber":68,"Velocity":30,"Duration":271198,"SoundDuration":271198,"Delta":127335061},{"NoteNumber":63,"Velocity":30,"Duration":275836,"SoundDuration":275836,"Delta":127606260},{"NoteNumber":61,"Velocity":28,"Duration":275045,"SoundDuration":275045,"Delta":127882096},{"NoteNumber":59,"Velocity":28,"Duration":277236,"SoundDuration":277236,"Delta":128157142},{"NoteNumber":58,"Velocity":27,"Duration":279241,"SoundDuration":279241,"Delta":128434379},{"NoteNumber":56,"Velocity":25,"Duration":281488,"SoundDuration":281488,"Delta":128713620},{"NoteNumber":70,"Velocity":44,"Duration":70475,"SoundDuration":70475,"Delta":128924633},{"NoteNumber":75,"Velocity":55,"Duration":1617939,"SoundDuration":1617939,"Delta":128995108},{"NoteNumber":39,"Velocity":30,"Duration":282353,"SoundDuration":282353,"Delta":128995108},{"NoteNumber":46,"Velocity":29,"Duration":268937,"SoundDuration":268937,"Delta":129277461},{"NoteNumber":51,"Velocity":28,"Duration":268937,"SoundDuration":268937,"Delta":129546399},{"NoteNumber":55,"Velocity":30,"Duration":268937,"SoundDuration":268937,"Delta":129815336},{"NoteNumber":58,"Velocity":34,"Duration":264386,"SoundDuration":264386,"Delta":130084274},{"NoteNumber":63,"Velocity":38,"Duration":264386,"SoundDuration":264386,"Delta":130348661},{"NoteNumber":58,"Velocity":41,"Duration":1613246,"SoundDuration":1613246,"Delta":130613048},{"NoteNumber":68,"Velocity":41,"Duration":1613246,"SoundDuration":1613246,"Delta":130613048},{"NoteNumber":64,"Velocity":41,"Duration":1613246,"SoundDuration":1613246,"Delta":130613048},{"NoteNumber":73,"Velocity":52,"Duration":263411,"SoundDuration":263411,"Delta":130891289},{"NoteNumber":75,"Velocity":50,"Duration":263412,"SoundDuration":263412,"Delta":131154701},{"NoteNumber":76,"Velocity":50,"Duration":266666,"SoundDuration":266666,"Delta":131418113},{"NoteNumber":78,"Velocity":53,"Duration":264480,"SoundDuration":264480,"Delta":131684780},{"NoteNumber":80,"Velocity":50,"Duration":207775,"SoundDuration":207775,"Delta":131949260},{"NoteNumber":70,"Velocity":42,"Duration":69258,"SoundDuration":69258,"Delta":132157036},{"NoteNumber":75,"Velocity":51,"Duration":1611014,"SoundDuration":1611014,"Delta":132226294},{"NoteNumber":39,"Velocity":36,"Duration":282353,"SoundDuration":282353,"Delta":132226294},{"NoteNumber":46,"Velocity":33,"Duration":258665,"SoundDuration":258665,"Delta":132508647},{"NoteNumber":51,"Velocity":30,"Duration":264971,"SoundDuration":264971,"Delta":132767313},{"NoteNumber":55,"Velocity":31,"Duration":264971,"SoundDuration":264971,"Delta":133032284},{"NoteNumber":58,"Velocity":34,"Duration":270026,"SoundDuration":270026,"Delta":133297255},{"NoteNumber":63,"Velocity":36,"Duration":270026,"SoundDuration":270026,"Delta":133567282},{"NoteNumber":51,"Velocity":35,"Duration":1558184,"SoundDuration":1558184,"Delta":133786679},{"NoteNumber":58,"Velocity":38,"Duration":1541307,"SoundDuration":1541307,"Delta":133803556},{"NoteNumber":61,"Velocity":40,"Duration":1524430,"SoundDuration":1524430,"Delta":133820432},{"NoteNumber":64,"Velocity":42,"Duration":1507553,"SoundDuration":1507553,"Delta":133837309},{"NoteNumber":70,"Velocity":54,"Duration":264480,"SoundDuration":264480,"Delta":134107336},{"NoteNumber":73,"Velocity":57,"Duration":143458,"SoundDuration":143458,"Delta":134371816},{"NoteNumber":71,"Velocity":38,"Duration":75964,"SoundDuration":75964,"Delta":134515275},{"NoteNumber":73,"Velocity":37,"Duration":77976,"SoundDuration":77976,"Delta":134572248},{"NoteNumber":71,"Velocity":49,"Duration":252037,"SoundDuration":252037,"Delta":134629222},{"NoteNumber":70,"Velocity":58,"Duration":261028,"SoundDuration":261028,"Delta":134881259},{"NoteNumber":68,"Velocity":56,"Duration":202574,"SoundDuration":202574,"Delta":135142288},{"NoteNumber":39,"Velocity":39,"Duration":67525,"SoundDuration":67525,"Delta":135344863},{"NoteNumber":67,"Velocity":63,"Duration":275836,"SoundDuration":275836,"Delta":135412388},{"NoteNumber":63,"Velocity":39,"Duration":275836,"SoundDuration":275836,"Delta":135412388},{"NoteNumber":68,"Velocity":58,"Duration":265580,"SoundDuration":265580,"Delta":135688224},{"NoteNumber":59,"Velocity":36,"Duration":265580,"SoundDuration":265580,"Delta":135688224},{"NoteNumber":70,"Velocity":60,"Duration":268358,"SoundDuration":268358,"Delta":135953805},{"NoteNumber":58,"Velocity":33,"Duration":268358,"SoundDuration":268358,"Delta":135953805},{"NoteNumber":75,"Velocity":57,"Duration":262123,"SoundDuration":262123,"Delta":136222163},{"NoteNumber":55,"Velocity":35,"Duration":262123,"SoundDuration":262123,"Delta":136222163},{"NoteNumber":77,"Velocity":61,"Duration":268937,"SoundDuration":268937,"Delta":136484286},{"NoteNumber":50,"Velocity":39,"Duration":268937,"SoundDuration":268937,"Delta":136484286},{"NoteNumber":79,"Velocity":57,"Duration":273672,"SoundDuration":273672,"Delta":136753223},{"NoteNumber":51,"Velocity":45,"Duration":273672,"SoundDuration":273672,"Delta":136753223},{"NoteNumber":71,"Velocity":62,"Duration":267809,"SoundDuration":267809,"Delta":137026896},{"NoteNumber":80,"Velocity":62,"Duration":267809,"SoundDuration":267809,"Delta":137026896},{"NoteNumber":44,"Velocity":49,"Duration":267809,"SoundDuration":267809,"Delta":137026896},{"NoteNumber":75,"Velocity":59,"Duration":267809,"SoundDuration":267809,"Delta":137294705},{"NoteNumber":50,"Velocity":46,"Duration":267809,"SoundDuration":267809,"Delta":137294705},{"NoteNumber":73,"Velocity":59,"Duration":143458,"SoundDuration":143458,"Delta":137562515},{"NoteNumber":51,"Velocity":45,"Duration":267047,"SoundDuration":267047,"Delta":137562515},{"NoteNumber":71,"Velocity":42,"Duration":82392,"SoundDuration":82392,"Delta":137705973},{"NoteNumber":73,"Velocity":42,"Duration":83745,"SoundDuration":83745,"Delta":137767768},{"NoteNumber":71,"Velocity":53,"Duration":263411,"SoundDuration":263411,"Delta":137829562},{"NoteNumber":55,"Velocity":36,"Duration":263411,"SoundDuration":263411,"Delta":137829562},{"NoteNumber":70,"Velocity":49,"Duration":268937,"SoundDuration":268937,"Delta":138092974},{"NoteNumber":56,"Velocity":42,"Duration":268937,"SoundDuration":268937,"Delta":138092974},{"NoteNumber":68,"Velocity":49,"Duration":201703,"SoundDuration":201703,"Delta":138361912},{"NoteNumber":59,"Velocity":41,"Duration":268937,"SoundDuration":268937,"Delta":138361912},{"NoteNumber":67,"Velocity":48,"Duration":1727638,"SoundDuration":1727638,"Delta":138563615},{"NoteNumber":75,"Velocity":59,"Duration":1660404,"SoundDuration":1660404,"Delta":138630849},{"NoteNumber":39,"Velocity":36,"Duration":282353,"SoundDuration":282353,"Delta":138630849},{"NoteNumber":45,"Velocity":38,"Duration":271970,"SoundDuration":271970,"Delta":138913202},{"NoteNumber":46,"Velocity":40,"Duration":270231,"SoundDuration":270231,"Delta":139185172},{"NoteNumber":51,"Velocity":41,"Duration":270710,"SoundDuration":270710,"Delta":139455404},{"NoteNumber":55,"Velocity":44,"Duration":273479,"SoundDuration":273479,"Delta":139726115},{"NoteNumber":58,"Velocity":46,"Duration":291658,"SoundDuration":291658,"Delta":139999595},{"NoteNumber":62,"Velocity":46,"Duration":1581272,"SoundDuration":1581272,"Delta":140291253},{"NoteNumber":68,"Velocity":54,"Duration":1581272,"SoundDuration":1581272,"Delta":140291253},{"NoteNumber":59,"Velocity":45,"Duration":277033,"SoundDuration":277033,"Delta":140291253},{"NoteNumber":56,"Velocity":39,"Duration":270417,"SoundDuration":270417,"Delta":140568287},{"NoteNumber":52,"Velocity":39,"Duration":271970,"SoundDuration":271970,"Delta":140838705},{"NoteNumber":47,"Velocity":38,"Duration":273882,"SoundDuration":273882,"Delta":141110675},{"NoteNumber":44,"Velocity":36,"Duration":275441,"SoundDuration":275441,"Delta":141384557},{"NoteNumber":40,"Velocity":34,"Duration":212527,"SoundDuration":212527,"Delta":141659998},{"NoteNumber":70,"Velocity":49,"Duration":80342,"SoundDuration":80342,"Delta":141872525},{"NoteNumber":75,"Velocity":59,"Duration":1617939,"SoundDuration":1617939,"Delta":141952868},{"NoteNumber":39,"Velocity":36,"Duration":282353,"SoundDuration":282353,"Delta":141952868},{"NoteNumber":46,"Velocity":35,"Duration":268937,"SoundDuration":268937,"Delta":142235221},{"NoteNumber":51,"Velocity":34,"Duration":268937,"SoundDuration":268937,"Delta":142504159},{"NoteNumber":55,"Velocity":36,"Duration":268937,"SoundDuration":268937,"Delta":142773096},{"NoteNumber":58,"Velocity":40,"Duration":264386,"SoundDuration":264386,"Delta":143042034},{"NoteNumber":63,"Velocity":45,"Duration":264386,"SoundDuration":264386,"Delta":143306421},{"NoteNumber":58,"Velocity":49,"Duration":1613246,"SoundDuration":1613246,"Delta":143570808},{"NoteNumber":68,"Velocity":49,"Duration":1613246,"SoundDuration":1613246,"Delta":143570808},{"NoteNumber":64,"Velocity":49,"Duration":1613246,"SoundDuration":1613246,"Delta":143570808},{"NoteNumber":73,"Velocity":52,"Duration":263411,"SoundDuration":263411,"Delta":143849049},{"NoteNumber":75,"Velocity":52,"Duration":263412,"SoundDuration":263412,"Delta":144112461},{"NoteNumber":76,"Velocity":50,"Duration":266666,"SoundDuration":266666,"Delta":144375873},{"NoteNumber":78,"Velocity":53,"Duration":264480,"SoundDuration":264480,"Delta":144642540},{"NoteNumber":80,"Velocity":50,"Duration":207775,"SoundDuration":207775,"Delta":144907020},{"NoteNumber":70,"Velocity":42,"Duration":69258,"SoundDuration":69258,"Delta":145114796},{"NoteNumber":75,"Velocity":51,"Duration":1611014,"SoundDuration":1611014,"Delta":145184054},{"NoteNumber":39,"Velocity":36,"Duration":282353,"SoundDuration":282353,"Delta":145184054},{"NoteNumber":46,"Velocity":33,"Duration":258665,"SoundDuration":258665,"Delta":145466407},{"NoteNumber":51,"Velocity":30,"Duration":264971,"SoundDuration":264971,"Delta":145725073},{"NoteNumber":55,"Velocity":31,"Duration":264971,"SoundDuration":264971,"Delta":145990044},{"NoteNumber":58,"Velocity":34,"Duration":270026,"SoundDuration":270026,"Delta":146255015},{"NoteNumber":63,"Velocity":36,"Duration":270026,"SoundDuration":270026,"Delta":146525042},{"NoteNumber":51,"Velocity":35,"Duration":1567907,"SoundDuration":1567907,"Delta":146744439},{"NoteNumber":58,"Velocity":38,"Duration":1551030,"SoundDuration":1551030,"Delta":146761315},{"NoteNumber":61,"Velocity":40,"Duration":1534153,"SoundDuration":1534153,"Delta":146778192},{"NoteNumber":64,"Velocity":42,"Duration":1517277,"SoundDuration":1517277,"Delta":146795069},{"NoteNumber":70,"Velocity":52,"Duration":264480,"SoundDuration":264480,"Delta":147065096},{"NoteNumber":73,"Velocity":57,"Duration":145405,"SoundDuration":145405,"Delta":147329576},{"NoteNumber":71,"Velocity":36,"Duration":81149,"SoundDuration":81149,"Delta":147474981},{"NoteNumber":73,"Velocity":36,"Duration":81864,"SoundDuration":81864,"Delta":147535843},{"NoteNumber":71,"Velocity":49,"Duration":252037,"SoundDuration":252037,"Delta":147596705},{"NoteNumber":70,"Velocity":58,"Duration":261028,"SoundDuration":261028,"Delta":147848742},{"NoteNumber":68,"Velocity":52,"Duration":202574,"SoundDuration":202574,"Delta":148109771},{"NoteNumber":39,"Velocity":39,"Duration":67525,"SoundDuration":67525,"Delta":148312346},{"NoteNumber":67,"Velocity":63,"Duration":275836,"SoundDuration":275836,"Delta":148379871},{"NoteNumber":63,"Velocity":39,"Duration":275836,"SoundDuration":275836,"Delta":148379871},{"NoteNumber":68,"Velocity":58,"Duration":265580,"SoundDuration":265580,"Delta":148655707},{"NoteNumber":59,"Velocity":36,"Duration":265580,"SoundDuration":265580,"Delta":148655707},{"NoteNumber":70,"Velocity":60,"Duration":268358,"SoundDuration":268358,"Delta":148921288},{"NoteNumber":58,"Velocity":33,"Duration":268358,"SoundDuration":268358,"Delta":148921288},{"NoteNumber":75,"Velocity":57,"Duration":262123,"SoundDuration":262123,"Delta":149189646},{"NoteNumber":55,"Velocity":35,"Duration":262123,"SoundDuration":262123,"Delta":149189646},{"NoteNumber":77,"Velocity":61,"Duration":268937,"SoundDuration":268937,"Delta":149451769},{"NoteNumber":50,"Velocity":39,"Duration":268937,"SoundDuration":268937,"Delta":149451769},{"NoteNumber":79,"Velocity":57,"Duration":273672,"SoundDuration":273672,"Delta":149720706},{"NoteNumber":51,"Velocity":45,"Duration":273672,"SoundDuration":273672,"Delta":149720706},{"NoteNumber":71,"Velocity":62,"Duration":267809,"SoundDuration":267809,"Delta":149994379},{"NoteNumber":80,"Velocity":62,"Duration":267809,"SoundDuration":267809,"Delta":149994379},{"NoteNumber":44,"Velocity":49,"Duration":267809,"SoundDuration":267809,"Delta":149994379},{"NoteNumber":75,"Velocity":55,"Duration":267809,"SoundDuration":267809,"Delta":150262188},{"NoteNumber":50,"Velocity":46,"Duration":267809,"SoundDuration":267809,"Delta":150262188},{"NoteNumber":73,"Velocity":59,"Duration":148765,"SoundDuration":148765,"Delta":150529998},{"NoteNumber":51,"Velocity":45,"Duration":264354,"SoundDuration":264354,"Delta":150529998},{"NoteNumber":71,"Velocity":38,"Duration":77059,"SoundDuration":77059,"Delta":150678763},{"NoteNumber":73,"Velocity":39,"Duration":79745,"SoundDuration":79745,"Delta":150736558},{"NoteNumber":71,"Velocity":51,"Duration":263411,"SoundDuration":263411,"Delta":150794352},{"NoteNumber":55,"Velocity":38,"Duration":263411,"SoundDuration":263411,"Delta":150794352},{"NoteNumber":70,"Velocity":49,"Duration":268937,"SoundDuration":268937,"Delta":151057764},{"NoteNumber":56,"Velocity":42,"Duration":268937,"SoundDuration":268937,"Delta":151057764},{"NoteNumber":68,"Velocity":49,"Duration":201703,"SoundDuration":201703,"Delta":151326702},{"NoteNumber":59,"Velocity":41,"Duration":268937,"SoundDuration":268937,"Delta":151326702},{"NoteNumber":67,"Velocity":48,"Duration":3360603,"SoundDuration":3360603,"Delta":151528405},{"NoteNumber":75,"Velocity":59,"Duration":3293369,"SoundDuration":3293369,"Delta":151595639},{"NoteNumber":39,"Velocity":36,"Duration":282353,"SoundDuration":282353,"Delta":151595639},{"NoteNumber":45,"Velocity":38,"Duration":271970,"SoundDuration":271970,"Delta":151877992},{"NoteNumber":46,"Velocity":40,"Duration":270231,"SoundDuration":270231,"Delta":152149962},{"NoteNumber":51,"Velocity":41,"Duration":270710,"SoundDuration":270710,"Delta":152420194},{"NoteNumber":55,"Velocity":44,"Duration":273479,"SoundDuration":273479,"Delta":152690905},{"NoteNumber":58,"Velocity":46,"Duration":278241,"SoundDuration":278241,"Delta":152964385},{"NoteNumber":61,"Velocity":45,"Duration":277033,"SoundDuration":277033,"Delta":153242626},{"NoteNumber":59,"Velocity":35,"Duration":270417,"SoundDuration":270417,"Delta":153519660},{"NoteNumber":58,"Velocity":39,"Duration":271970,"SoundDuration":271970,"Delta":153790078},{"NoteNumber":55,"Velocity":38,"Duration":273882,"SoundDuration":273882,"Delta":154062048},{"NoteNumber":52,"Velocity":36,"Duration":275441,"SoundDuration":275441,"Delta":154335930},{"NoteNumber":51,"Velocity":34,"Duration":277637,"SoundDuration":277637,"Delta":154611371},{"NoteNumber":71,"Velocity":51,"Duration":1617939,"SoundDuration":1617939,"Delta":154889008},{"NoteNumber":75,"Velocity":51,"Duration":1617939,"SoundDuration":1617939,"Delta":154889008},{"NoteNumber":44,"Velocity":36,"Duration":282353,"SoundDuration":282353,"Delta":154889008},{"NoteNumber":51,"Velocity":33,"Duration":268937,"SoundDuration":268937,"Delta":155171361},{"NoteNumber":56,"Velocity":30,"Duration":268937,"SoundDuration":268937,"Delta":155440299},{"NoteNumber":59,"Velocity":31,"Duration":268937,"SoundDuration":268937,"Delta":155709236},{"NoteNumber":61,"Velocity":34,"Duration":264386,"SoundDuration":264386,"Delta":155978174},{"NoteNumber":63,"Velocity":32,"Duration":264386,"SoundDuration":264386,"Delta":156242561},{"NoteNumber":73,"Velocity":57,"Duration":264386,"SoundDuration":264386,"Delta":156506948},{"NoteNumber":68,"Velocity":36,"Duration":1579935,"SoundDuration":1579935,"Delta":156506948},{"NoteNumber":64,"Velocity":36,"Duration":1579935,"SoundDuration":1579935,"Delta":156506948},{"NoteNumber":75,"Velocity":51,"Duration":264386,"SoundDuration":264386,"Delta":156771335},{"NoteNumber":76,"Velocity":52,"Duration":264386,"SoundDuration":264386,"Delta":157035722},{"NoteNumber":78,"Velocity":51,"Duration":255645,"SoundDuration":255645,"Delta":157300109},{"NoteNumber":82,"Velocity":53,"Duration":261028,"SoundDuration":261028,"Delta":157555754},{"NoteNumber":80,"Velocity":52,"Duration":270100,"SoundDuration":270100,"Delta":157816783},{"NoteNumber":71,"Velocity":51,"Duration":1599734,"SoundDuration":1599734,"Delta":158086883},{"NoteNumber":75,"Velocity":51,"Duration":1599734,"SoundDuration":1599734,"Delta":158086883},{"NoteNumber":44,"Velocity":36,"Duration":282353,"SoundDuration":282353,"Delta":158086883},{"NoteNumber":51,"Velocity":33,"Duration":258665,"SoundDuration":258665,"Delta":158369236},{"NoteNumber":56,"Velocity":30,"Duration":264971,"SoundDuration":264971,"Delta":158627902},{"NoteNumber":59,"Velocity":31,"Duration":264971,"SoundDuration":264971,"Delta":158892873},{"NoteNumber":61,"Velocity":34,"Duration":264386,"SoundDuration":264386,"Delta":159157844},{"NoteNumber":63,"Velocity":36,"Duration":264386,"SoundDuration":264386,"Delta":159422231},{"NoteNumber":73,"Velocity":57,"Duration":264386,"SoundDuration":264386,"Delta":159686618},{"NoteNumber":68,"Velocity":36,"Duration":1579935,"SoundDuration":1579935,"Delta":159686618},{"NoteNumber":64,"Velocity":36,"Duration":1579935,"SoundDuration":1579935,"Delta":159686618},{"NoteNumber":75,"Velocity":52,"Duration":264386,"SoundDuration":264386,"Delta":159951005},{"NoteNumber":76,"Velocity":52,"Duration":264386,"SoundDuration":264386,"Delta":160215392},{"NoteNumber":78,"Velocity":51,"Duration":255645,"SoundDuration":255645,"Delta":160479779},{"NoteNumber":80,"Velocity":53,"Duration":261028,"SoundDuration":261028,"Delta":160735424},{"NoteNumber":76,"Velocity":55,"Duration":270100,"SoundDuration":270100,"Delta":160996453},{"NoteNumber":75,"Velocity":58,"Duration":275836,"SoundDuration":275836,"Delta":161266553},{"NoteNumber":44,"Velocity":36,"Duration":275836,"SoundDuration":275836,"Delta":161266553},{"NoteNumber":73,"Velocity":53,"Duration":265580,"SoundDuration":265580,"Delta":161542389},{"NoteNumber":51,"Velocity":33,"Duration":265580,"SoundDuration":265580,"Delta":161542389},{"NoteNumber":71,"Velocity":55,"Duration":268358,"SoundDuration":268358,"Delta":161807970},{"NoteNumber":56,"Velocity":30,"Duration":268358,"SoundDuration":268358,"Delta":161807970},{"NoteNumber":68,"Velocity":52,"Duration":262123,"SoundDuration":262123,"Delta":162076328},{"NoteNumber":59,"Velocity":31,"Duration":262123,"SoundDuration":262123,"Delta":162076328},{"NoteNumber":70,"Velocity":52,"Duration":268937,"SoundDuration":268937,"Delta":162338451},{"NoteNumber":61,"Velocity":34,"Duration":268937,"SoundDuration":268937,"Delta":162338451},{"NoteNumber":71,"Velocity":49,"Duration":273672,"SoundDuration":273672,"Delta":162607388},{"NoteNumber":63,"Velocity":36,"Duration":273672,"SoundDuration":273672,"Delta":162607388},{"NoteNumber":68,"Velocity":43,"Duration":267809,"SoundDuration":267809,"Delta":162881061},{"NoteNumber":73,"Velocity":57,"Duration":267809,"SoundDuration":267809,"Delta":162881061},{"NoteNumber":64,"Velocity":36,"Duration":1674306,"SoundDuration":1674306,"Delta":162881061},{"NoteNumber":56,"Velocity":36,"Duration":1674306,"SoundDuration":1674306,"Delta":162881061},{"NoteNumber":75,"Velocity":50,"Duration":267809,"SoundDuration":267809,"Delta":163148870},{"NoteNumber":73,"Velocity":49,"Duration":267809,"SoundDuration":267809,"Delta":163416680},{"NoteNumber":76,"Velocity":42,"Duration":277341,"SoundDuration":277341,"Delta":163684489},{"NoteNumber":78,"Velocity":42,"Duration":287384,"SoundDuration":287384,"Delta":163961830},{"NoteNumber":76,"Velocity":41,"Duration":306153,"SoundDuration":306153,"Delta":164249214},{"NoteNumber":68,"Velocity":38,"Duration":1352964,"SoundDuration":1352964,"Delta":164555368},{"NoteNumber":71,"Velocity":38,"Duration":1638108,"SoundDuration":1638108,"Delta":164555368},{"NoteNumber":75,"Velocity":38,"Duration":1638108,"SoundDuration":1638108,"Delta":164555368},{"NoteNumber":80,"Velocity":38,"Duration":1638108,"SoundDuration":1638108,"Delta":164555368},{"NoteNumber":44,"Velocity":24,"Duration":282353,"SoundDuration":282353,"Delta":164555368},{"NoteNumber":51,"Velocity":21,"Duration":268937,"SoundDuration":268937,"Delta":164837721},{"NoteNumber":56,"Velocity":20,"Duration":268937,"SoundDuration":268937,"Delta":165106658},{"NoteNumber":59,"Velocity":20,"Duration":270710,"SoundDuration":270710,"Delta":165375596},{"NoteNumber":63,"Velocity":22,"Duration":273479,"SoundDuration":273479,"Delta":165646306},{"NoteNumber":68,"Velocity":24,"Duration":273690,"SoundDuration":273690,"Delta":165919786},{"NoteNumber":71,"Velocity":38,"Duration":271198,"SoundDuration":271198,"Delta":166193476},{"NoteNumber":70,"Velocity":38,"Duration":275836,"SoundDuration":275836,"Delta":166464674},{"NoteNumber":68,"Velocity":36,"Duration":275045,"SoundDuration":275045,"Delta":166740511},{"NoteNumber":63,"Velocity":33,"Duration":277236,"SoundDuration":277236,"Delta":167015556},{"NoteNumber":59,"Velocity":36,"Duration":279241,"SoundDuration":279241,"Delta":167292793},{"NoteNumber":56,"Velocity":35,"Duration":281488,"SoundDuration":281488,"Delta":167572034},{"NoteNumber":59,"Velocity":28,"Duration":273497,"SoundDuration":273497,"Delta":167853523},{"NoteNumber":68,"Velocity":37,"Duration":820493,"SoundDuration":820493,"Delta":167853523},{"NoteNumber":63,"Velocity":30,"Duration":820493,"SoundDuration":820493,"Delta":167853523},{"NoteNumber":41,"Velocity":27,"Duration":1623261,"SoundDuration":1623261,"Delta":167853523},{"NoteNumber":51,"Velocity":32,"Duration":1623261,"SoundDuration":1623261,"Delta":167853523},{"NoteNumber":58,"Velocity":30,"Duration":273498,"SoundDuration":273498,"Delta":168127021},{"NoteNumber":59,"Velocity":32,"Duration":273497,"SoundDuration":273497,"Delta":168400519},{"NoteNumber":56,"Velocity":31,"Duration":266904,"SoundDuration":266904,"Delta":168674017},{"NoteNumber":59,"Velocity":33,"Duration":257621,"SoundDuration":257621,"Delta":168940921},{"NoteNumber":63,"Velocity":31,"Duration":278241,"SoundDuration":278241,"Delta":169198543},{"NoteNumber":59,"Velocity":28,"Duration":273497,"SoundDuration":273497,"Delta":169476784},{"NoteNumber":68,"Velocity":37,"Duration":820493,"SoundDuration":820493,"Delta":169476784},{"NoteNumber":63,"Velocity":30,"Duration":820493,"SoundDuration":820493,"Delta":169476784},{"NoteNumber":71,"Velocity":32,"Duration":1622053,"SoundDuration":1622053,"Delta":169476784},{"NoteNumber":58,"Velocity":30,"Duration":273498,"SoundDuration":273498,"Delta":169750282},{"NoteNumber":59,"Velocity":33,"Duration":273497,"SoundDuration":273497,"Delta":170023780},{"NoteNumber":56,"Velocity":30,"Duration":266904,"SoundDuration":266904,"Delta":170297278},{"NoteNumber":59,"Velocity":35,"Duration":257621,"SoundDuration":257621,"Delta":170564182},{"NoteNumber":63,"Velocity":31,"Duration":277033,"SoundDuration":277033,"Delta":170821804},{"NoteNumber":59,"Velocity":29,"Duration":273497,"SoundDuration":273497,"Delta":171098838},{"NoteNumber":68,"Velocity":39,"Duration":820493,"SoundDuration":820493,"Delta":171098838},{"NoteNumber":63,"Velocity":31,"Duration":820493,"SoundDuration":820493,"Delta":171098838},{"NoteNumber":41,"Velocity":28,"Duration":1622053,"SoundDuration":1622053,"Delta":171098838},{"NoteNumber":47,"Velocity":33,"Duration":1622053,"SoundDuration":1622053,"Delta":171098838},{"NoteNumber":58,"Velocity":31,"Duration":273498,"SoundDuration":273498,"Delta":171372336},{"NoteNumber":59,"Velocity":34,"Duration":273497,"SoundDuration":273497,"Delta":171645834},{"NoteNumber":56,"Velocity":31,"Duration":266904,"SoundDuration":266904,"Delta":171919332},{"NoteNumber":59,"Velocity":37,"Duration":257621,"SoundDuration":257621,"Delta":172186236},{"NoteNumber":63,"Velocity":32,"Duration":277033,"SoundDuration":277033,"Delta":172443857},{"NoteNumber":59,"Velocity":29,"Duration":289602,"SoundDuration":289602,"Delta":172720891},{"NoteNumber":68,"Velocity":39,"Duration":868808,"SoundDuration":868808,"Delta":172720891},{"NoteNumber":63,"Velocity":31,"Duration":868808,"SoundDuration":868808,"Delta":172720891},{"NoteNumber":71,"Velocity":33,"Duration":2028594,"SoundDuration":2028594,"Delta":172720891},{"NoteNumber":58,"Velocity":32,"Duration":289602,"SoundDuration":289602,"Delta":173010494},{"NoteNumber":59,"Velocity":34,"Duration":289602,"SoundDuration":289602,"Delta":173300097},{"NoteNumber":56,"Velocity":30,"Duration":313840,"SoundDuration":313840,"Delta":173589700},{"NoteNumber":59,"Velocity":37,"Duration":342504,"SoundDuration":342504,"Delta":173903541},{"NoteNumber":63,"Velocity":32,"Duration":503440,"SoundDuration":503440,"Delta":174246046},{"NoteNumber":58,"Velocity":25,"Duration":289602,"SoundDuration":289602,"Delta":174749486},{"NoteNumber":67,"Velocity":33,"Duration":868808,"SoundDuration":868808,"Delta":174749486},{"NoteNumber":63,"Velocity":27,"Duration":868808,"SoundDuration":868808,"Delta":174749486},{"NoteNumber":34,"Velocity":23,"Duration":1683508,"SoundDuration":1683508,"Delta":174749486},{"NoteNumber":46,"Velocity":28,"Duration":1683508,"SoundDuration":1683508,"Delta":174749486},{"NoteNumber":57,"Velocity":28,"Duration":289602,"SoundDuration":289602,"Delta":175039089},{"NoteNumber":58,"Velocity":29,"Duration":289602,"SoundDuration":289602,"Delta":175328692},{"NoteNumber":55,"Velocity":27,"Duration":278836,"SoundDuration":278836,"Delta":175618295},{"NoteNumber":58,"Velocity":31,"Duration":257621,"SoundDuration":257621,"Delta":175897131},{"NoteNumber":63,"Velocity":28,"Duration":278241,"SoundDuration":278241,"Delta":176154753},{"NoteNumber":58,"Velocity":25,"Duration":273497,"SoundDuration":273497,"Delta":176432994},{"NoteNumber":67,"Velocity":33,"Duration":820493,"SoundDuration":820493,"Delta":176432994},{"NoteNumber":63,"Velocity":27,"Duration":820493,"SoundDuration":820493,"Delta":176432994},{"NoteNumber":70,"Velocity":28,"Duration":1619171,"SoundDuration":1619171,"Delta":176432994},{"NoteNumber":57,"Velocity":28,"Duration":273498,"SoundDuration":273498,"Delta":176706492},{"NoteNumber":58,"Velocity":29,"Duration":273497,"SoundDuration":273497,"Delta":176979990},{"NoteNumber":55,"Velocity":28,"Duration":266904,"SoundDuration":266904,"Delta":177253488},{"NoteNumber":58,"Velocity":31,"Duration":257621,"SoundDuration":257621,"Delta":177520392},{"NoteNumber":63,"Velocity":28,"Duration":274151,"SoundDuration":274151,"Delta":177778014},{"NoteNumber":62,"Velocity":35,"Duration":263930,"SoundDuration":263930,"Delta":178052165},{"NoteNumber":68,"Velocity":35,"Duration":263930,"SoundDuration":263930,"Delta":178052165},{"NoteNumber":72,"Velocity":35,"Duration":263930,"SoundDuration":263930,"Delta":178052165},{"NoteNumber":34,"Velocity":28,"Duration":786815,"SoundDuration":786815,"Delta":178052165},{"NoteNumber":46,"Velocity":28,"Duration":786815,"SoundDuration":786815,"Delta":178052165},{"NoteNumber":62,"Velocity":32,"Duration":262391,"SoundDuration":262391,"Delta":178316096},{"NoteNumber":68,"Velocity":32,"Duration":262391,"SoundDuration":262391,"Delta":178316096},{"NoteNumber":70,"Velocity":32,"Duration":262391,"SoundDuration":262391,"Delta":178316096},{"NoteNumber":62,"Velocity":39,"Duration":260493,"SoundDuration":260493,"Delta":178578488},{"NoteNumber":68,"Velocity":39,"Duration":260493,"SoundDuration":260493,"Delta":178578488},{"NoteNumber":72,"Velocity":39,"Duration":260493,"SoundDuration":260493,"Delta":178578488},{"NoteNumber":77,"Velocity":33,"Duration":64935,"SoundDuration":64935,"Delta":178774046},{"NoteNumber":62,"Velocity":34,"Duration":258808,"SoundDuration":258808,"Delta":178838981},{"NoteNumber":68,"Velocity":34,"Duration":258808,"SoundDuration":258808,"Delta":178838981},{"NoteNumber":70,"Velocity":34,"Duration":258808,"SoundDuration":258808,"Delta":178838981},{"NoteNumber":82,"Velocity":49,"Duration":777511,"SoundDuration":777511,"Delta":178838981},{"NoteNumber":62,"Velocity":45,"Duration":246913,"SoundDuration":246913,"Delta":179097790},{"NoteNumber":68,"Velocity":45,"Duration":246913,"SoundDuration":246913,"Delta":179097790},{"NoteNumber":72,"Velocity":45,"Duration":246913,"SoundDuration":246913,"Delta":179097790},{"NoteNumber":62,"Velocity":39,"Duration":271788,"SoundDuration":271788,"Delta":179344703},{"NoteNumber":68,"Velocity":39,"Duration":271788,"SoundDuration":271788,"Delta":179344703},{"NoteNumber":70,"Velocity":39,"Duration":271788,"SoundDuration":271788,"Delta":179344703},{"NoteNumber":74,"Velocity":52,"Duration":259183,"SoundDuration":259183,"Delta":179616492},{"NoteNumber":80,"Velocity":52,"Duration":259183,"SoundDuration":259183,"Delta":179616492},{"NoteNumber":84,"Velocity":52,"Duration":259183,"SoundDuration":259183,"Delta":179616492},{"NoteNumber":46,"Velocity":42,"Duration":770198,"SoundDuration":770198,"Delta":179616492},{"NoteNumber":58,"Velocity":42,"Duration":770198,"SoundDuration":770198,"Delta":179616492},{"NoteNumber":74,"Velocity":47,"Duration":255867,"SoundDuration":255867,"Delta":179875676},{"NoteNumber":82,"Velocity":47,"Duration":255867,"SoundDuration":255867,"Delta":179875676},{"NoteNumber":80,"Velocity":47,"Duration":255867,"SoundDuration":255867,"Delta":179875676},{"NoteNumber":74,"Velocity":55,"Duration":255146,"SoundDuration":255146,"Delta":180131543},{"NoteNumber":80,"Velocity":55,"Duration":255146,"SoundDuration":255146,"Delta":180131543},{"NoteNumber":84,"Velocity":55,"Duration":255146,"SoundDuration":255146,"Delta":180131543},{"NoteNumber":89,"Velocity":45,"Duration":64285,"SoundDuration":64285,"Delta":180322404},{"NoteNumber":74,"Velocity":47,"Duration":261452,"SoundDuration":261452,"Delta":180386690},{"NoteNumber":80,"Velocity":47,"Duration":261452,"SoundDuration":261452,"Delta":180386690},{"NoteNumber":82,"Velocity":47,"Duration":261452,"SoundDuration":261452,"Delta":180386690},{"NoteNumber":94,"Velocity":68,"Duration":803721,"SoundDuration":803721,"Delta":180386690},{"NoteNumber":74,"Velocity":60,"Duration":268471,"SoundDuration":268471,"Delta":180648142},{"NoteNumber":80,"Velocity":60,"Duration":268471,"SoundDuration":268471,"Delta":180648142},{"NoteNumber":84,"Velocity":60,"Duration":268471,"SoundDuration":268471,"Delta":180648142},{"NoteNumber":74,"Velocity":52,"Duration":273797,"SoundDuration":273797,"Delta":180916614},{"NoteNumber":80,"Velocity":52,"Duration":273797,"SoundDuration":273797,"Delta":180916614},{"NoteNumber":82,"Velocity":52,"Duration":273797,"SoundDuration":273797,"Delta":180916614},{"NoteNumber":58,"Velocity":38,"Duration":259740,"SoundDuration":259740,"Delta":181190412},{"NoteNumber":67,"Velocity":49,"Duration":763942,"SoundDuration":763942,"Delta":181190412},{"NoteNumber":63,"Velocity":41,"Duration":763942,"SoundDuration":763942,"Delta":181190412},{"NoteNumber":39,"Velocity":36,"Duration":763942,"SoundDuration":763942,"Delta":181190412},{"NoteNumber":51,"Velocity":43,"Duration":763942,"SoundDuration":763942,"Delta":181190412},{"NoteNumber":57,"Velocity":44,"Duration":252101,"SoundDuration":252101,"Delta":181450152},{"NoteNumber":58,"Velocity":44,"Duration":252100,"SoundDuration":252100,"Delta":181702253},{"NoteNumber":55,"Velocity":47,"Duration":259740,"SoundDuration":259740,"Delta":181954354},{"NoteNumber":67,"Velocity":50,"Duration":508483,"SoundDuration":508483,"Delta":182214095},{"NoteNumber":63,"Velocity":50,"Duration":508483,"SoundDuration":508483,"Delta":182214095},{"NoteNumber":55,"Velocity":47,"Duration":253164,"SoundDuration":253164,"Delta":182214095},{"NoteNumber":34,"Velocity":34,"Duration":508483,"SoundDuration":508483,"Delta":182214095},{"NoteNumber":46,"Velocity":41,"Duration":508483,"SoundDuration":508483,"Delta":182214095},{"NoteNumber":58,"Velocity":42,"Duration":255318,"SoundDuration":255318,"Delta":182467259},{"NoteNumber":57,"Velocity":38,"Duration":243902,"SoundDuration":243902,"Delta":182722578},{"NoteNumber":62,"Velocity":41,"Duration":726895,"SoundDuration":726895,"Delta":182722578},{"NoteNumber":68,"Velocity":49,"Duration":726895,"SoundDuration":726895,"Delta":182722578},{"NoteNumber":41,"Velocity":36,"Duration":726895,"SoundDuration":726895,"Delta":182722578},{"NoteNumber":53,"Velocity":44,"Duration":726895,"SoundDuration":726895,"Delta":182722578},{"NoteNumber":58,"Velocity":39,"Duration":238094,"SoundDuration":238094,"Delta":182966481},{"NoteNumber":60,"Velocity":42,"Duration":244898,"SoundDuration":244898,"Delta":183204576},{"NoteNumber":61,"Velocity":38,"Duration":255318,"SoundDuration":255318,"Delta":183449474},{"NoteNumber":62,"Velocity":38,"Duration":252101,"SoundDuration":252101,"Delta":183704793},{"NoteNumber":68,"Velocity":48,"Duration":510721,"SoundDuration":510721,"Delta":183704793},{"NoteNumber":34,"Velocity":34,"Duration":510721,"SoundDuration":510721,"Delta":183704793},{"NoteNumber":46,"Velocity":41,"Duration":510721,"SoundDuration":510721,"Delta":183704793},{"NoteNumber":58,"Velocity":40,"Duration":258620,"SoundDuration":258620,"Delta":183956894},{"NoteNumber":58,"Velocity":36,"Duration":243902,"SoundDuration":243902,"Delta":184215514},{"NoteNumber":67,"Velocity":46,"Duration":737124,"SoundDuration":737124,"Delta":184215514},{"NoteNumber":63,"Velocity":38,"Duration":737124,"SoundDuration":737124,"Delta":184215514},{"NoteNumber":39,"Velocity":34,"Duration":737124,"SoundDuration":737124,"Delta":184215514},{"NoteNumber":51,"Velocity":40,"Duration":737124,"SoundDuration":737124,"Delta":184215514},{"NoteNumber":57,"Velocity":40,"Duration":248962,"SoundDuration":248962,"Delta":184459417},{"NoteNumber":58,"Velocity":44,"Duration":244259,"SoundDuration":244259,"Delta":184708379},{"NoteNumber":55,"Velocity":47,"Duration":247933,"SoundDuration":247933,"Delta":184952639},{"NoteNumber":67,"Velocity":50,"Duration":490464,"SoundDuration":490464,"Delta":185200573},{"NoteNumber":63,"Velocity":50,"Duration":490464,"SoundDuration":490464,"Delta":185200573},{"NoteNumber":55,"Velocity":47,"Duration":246204,"SoundDuration":246204,"Delta":185200573},{"NoteNumber":34,"Velocity":34,"Duration":490464,"SoundDuration":490464,"Delta":185200573},{"NoteNumber":46,"Velocity":41,"Duration":490464,"SoundDuration":490464,"Delta":185200573},{"NoteNumber":58,"Velocity":41,"Duration":244259,"SoundDuration":244259,"Delta":185446778},{"NoteNumber":57,"Velocity":36,"Duration":238094,"SoundDuration":238094,"Delta":185691038},{"NoteNumber":62,"Velocity":38,"Duration":708423,"SoundDuration":708423,"Delta":185691038},{"NoteNumber":68,"Velocity":46,"Duration":708423,"SoundDuration":708423,"Delta":185691038},{"NoteNumber":41,"Velocity":34,"Duration":708423,"SoundDuration":708423,"Delta":185691038},{"NoteNumber":53,"Velocity":41,"Duration":708423,"SoundDuration":708423,"Delta":185691038},{"NoteNumber":58,"Velocity":42,"Duration":230769,"SoundDuration":230769,"Delta":185929133},{"NoteNumber":60,"Velocity":42,"Duration":239559,"SoundDuration":239559,"Delta":186159902},{"NoteNumber":61,"Velocity":42,"Duration":250146,"SoundDuration":250146,"Delta":186399461},{"NoteNumber":62,"Velocity":38,"Duration":258464,"SoundDuration":258464,"Delta":186649607},{"NoteNumber":68,"Velocity":48,"Duration":529296,"SoundDuration":529296,"Delta":186649607},{"NoteNumber":34,"Velocity":34,"Duration":529296,"SoundDuration":529296,"Delta":186649607},{"NoteNumber":46,"Velocity":41,"Duration":529296,"SoundDuration":529296,"Delta":186649607},{"NoteNumber":58,"Velocity":40,"Duration":270831,"SoundDuration":270831,"Delta":186908071},{"NoteNumber":63,"Velocity":47,"Duration":246204,"SoundDuration":246204,"Delta":187178903},{"NoteNumber":75,"Velocity":47,"Duration":246204,"SoundDuration":246204,"Delta":187178903},{"NoteNumber":51,"Velocity":44,"Duration":246204,"SoundDuration":246204,"Delta":187178903},{"NoteNumber":65,"Velocity":46,"Duration":232734,"SoundDuration":232734,"Delta":187425107},{"NoteNumber":77,"Velocity":46,"Duration":232734,"SoundDuration":232734,"Delta":187425107},{"NoteNumber":67,"Velocity":39,"Duration":232734,"SoundDuration":232734,"Delta":187425107},{"NoteNumber":79,"Velocity":41,"Duration":236836,"SoundDuration":236836,"Delta":187657842},{"NoteNumber":67,"Velocity":39,"Duration":487232,"SoundDuration":487232,"Delta":187657842},{"NoteNumber":70,"Velocity":54,"Duration":375594,"SoundDuration":375594,"Delta":187894678},{"NoteNumber":82,"Velocity":54,"Duration":375594,"SoundDuration":375594,"Delta":187894678},{"NoteNumber":63,"Velocity":37,"Duration":250396,"SoundDuration":250396,"Delta":188145075},{"NoteNumber":70,"Velocity":43,"Duration":375594,"SoundDuration":375594,"Delta":188270273},{"NoteNumber":82,"Velocity":43,"Duration":375594,"SoundDuration":375594,"Delta":188270273},{"NoteNumber":58,"Velocity":37,"Duration":250396,"SoundDuration":250396,"Delta":188395471},{"NoteNumber":51,"Velocity":44,"Duration":232414,"SoundDuration":232414,"Delta":188645868},{"NoteNumber":70,"Velocity":52,"Duration":232414,"SoundDuration":232414,"Delta":188878282},{"NoteNumber":82,"Velocity":52,"Duration":232414,"SoundDuration":232414,"Delta":188878282},{"NoteNumber":68,"Velocity":39,"Duration":658368,"SoundDuration":658368,"Delta":188878282},{"NoteNumber":72,"Velocity":52,"Duration":215517,"SoundDuration":215517,"Delta":189110696},{"NoteNumber":84,"Velocity":52,"Duration":215517,"SoundDuration":215517,"Delta":189110696},{"NoteNumber":74,"Velocity":55,"Duration":210437,"SoundDuration":210437,"Delta":189326213},{"NoteNumber":86,"Velocity":55,"Duration":210437,"SoundDuration":210437,"Delta":189326213},{"NoteNumber":89,"Velocity":52,"Duration":214776,"SoundDuration":214776,"Delta":189536650},{"NoteNumber":77,"Velocity":49,"Duration":214776,"SoundDuration":214776,"Delta":189536650},{"NoteNumber":62,"Velocity":37,"Duration":214776,"SoundDuration":214776,"Delta":189536650},{"NoteNumber":86,"Velocity":53,"Duration":223247,"SoundDuration":223247,"Delta":189751427},{"NoteNumber":74,"Velocity":53,"Duration":223247,"SoundDuration":223247,"Delta":189751427},{"NoteNumber":58,"Velocity":37,"Duration":223247,"SoundDuration":223247,"Delta":189751427},{"NoteNumber":84,"Velocity":55,"Duration":211864,"SoundDuration":211864,"Delta":189974674},{"NoteNumber":72,"Velocity":55,"Duration":211864,"SoundDuration":211864,"Delta":189974674},{"NoteNumber":51,"Velocity":44,"Duration":211864,"SoundDuration":211864,"Delta":189974674},{"NoteNumber":74,"Velocity":53,"Duration":221664,"SoundDuration":221664,"Delta":190186539},{"NoteNumber":86,"Velocity":53,"Duration":221664,"SoundDuration":221664,"Delta":190186539},{"NoteNumber":67,"Velocity":39,"Duration":441480,"SoundDuration":441480,"Delta":190186539},{"NoteNumber":72,"Velocity":42,"Duration":221664,"SoundDuration":221664,"Delta":190408203},{"NoteNumber":84,"Velocity":42,"Duration":221664,"SoundDuration":221664,"Delta":190408203},{"NoteNumber":67,"Velocity":50,"Duration":367076,"SoundDuration":367076,"Delta":190629867},{"NoteNumber":79,"Velocity":50,"Duration":367076,"SoundDuration":367076,"Delta":190629867},{"NoteNumber":63,"Velocity":35,"Duration":244718,"SoundDuration":244718,"Delta":190874585},{"NoteNumber":67,"Velocity":43,"Duration":367076,"SoundDuration":367076,"Delta":190996944},{"NoteNumber":79,"Velocity":43,"Duration":367076,"SoundDuration":367076,"Delta":190996944},{"NoteNumber":58,"Velocity":31,"Duration":244717,"SoundDuration":244717,"Delta":191119303},{"NoteNumber":51,"Velocity":44,"Duration":221664,"SoundDuration":221664,"Delta":191364021},{"NoteNumber":65,"Velocity":52,"Duration":221664,"SoundDuration":221664,"Delta":191585685},{"NoteNumber":77,"Velocity":52,"Duration":221664,"SoundDuration":221664,"Delta":191585685},{"NoteNumber":68,"Velocity":39,"Duration":434650,"SoundDuration":434650,"Delta":191585685},{"NoteNumber":67,"Velocity":51,"Duration":214776,"SoundDuration":214776,"Delta":191807349},{"NoteNumber":79,"Velocity":51,"Duration":214776,"SoundDuration":214776,"Delta":191807349},{"NoteNumber":68,"Velocity":55,"Duration":210437,"SoundDuration":210437,"Delta":192022125},{"NoteNumber":80,"Velocity":55,"Duration":210437,"SoundDuration":210437,"Delta":192022125},{"NoteNumber":82,"Velocity":53,"Duration":215517,"SoundDuration":215517,"Delta":192232563},{"NoteNumber":70,"Velocity":53,"Duration":215517,"SoundDuration":215517,"Delta":192232563},{"NoteNumber":62,"Velocity":37,"Duration":215517,"SoundDuration":215517,"Delta":192232563},{"NoteNumber":80,"Velocity":49,"Duration":224048,"SoundDuration":224048,"Delta":192448080},{"NoteNumber":68,"Velocity":49,"Duration":224048,"SoundDuration":224048,"Delta":192448080},{"NoteNumber":58,"Velocity":37,"Duration":224048,"SoundDuration":224048,"Delta":192448080},{"NoteNumber":79,"Velocity":55,"Duration":214041,"SoundDuration":214041,"Delta":192672128},{"NoteNumber":67,"Velocity":55,"Duration":212257,"SoundDuration":212257,"Delta":192672128},{"NoteNumber":51,"Velocity":44,"Duration":214041,"SoundDuration":214041,"Delta":192672128},{"NoteNumber":65,"Velocity":47,"Duration":226090,"SoundDuration":226090,"Delta":192886169},{"NoteNumber":77,"Velocity":47,"Duration":226090,"SoundDuration":226090,"Delta":192886169},{"NoteNumber":67,"Velocity":39,"Duration":700341,"SoundDuration":700341,"Delta":192886169},{"NoteNumber":63,"Velocity":46,"Duration":226090,"SoundDuration":226090,"Delta":193112260},{"NoteNumber":75,"Velocity":46,"Duration":226090,"SoundDuration":226090,"Delta":193112260},{"NoteNumber":58,"Velocity":51,"Duration":372239,"SoundDuration":372239,"Delta":193338351},{"NoteNumber":70,"Velocity":51,"Duration":372239,"SoundDuration":372239,"Delta":193338351},{"NoteNumber":63,"Velocity":36,"Duration":248159,"SoundDuration":248159,"Delta":193586510},{"NoteNumber":58,"Velocity":43,"Duration":372239,"SoundDuration":372239,"Delta":193710590},{"NoteNumber":70,"Velocity":43,"Duration":372239,"SoundDuration":372239,"Delta":193710590},{"NoteNumber":55,"Velocity":34,"Duration":248159,"SoundDuration":248159,"Delta":193834670},{"NoteNumber":46,"Velocity":44,"Duration":230858,"SoundDuration":230858,"Delta":194082829},{"NoteNumber":62,"Velocity":46,"Duration":1147294,"SoundDuration":1147294,"Delta":194313687},{"NoteNumber":65,"Velocity":52,"Duration":230857,"SoundDuration":230857,"Delta":194313687},{"NoteNumber":56,"Velocity":39,"Duration":681003,"SoundDuration":681003,"Delta":194313687},{"NoteNumber":67,"Velocity":53,"Duration":227444,"SoundDuration":227444,"Delta":194544545},{"NoteNumber":68,"Velocity":55,"Duration":222700,"SoundDuration":222700,"Delta":194771990},{"NoteNumber":70,"Velocity":53,"Duration":225056,"SoundDuration":225056,"Delta":194994691},{"NoteNumber":52,"Velocity":37,"Duration":225056,"SoundDuration":225056,"Delta":194994691},{"NoteNumber":68,"Velocity":50,"Duration":120617,"SoundDuration":120617,"Delta":195219747},{"NoteNumber":53,"Velocity":37,"Duration":241234,"SoundDuration":241234,"Delta":195219747},{"NoteNumber":67,"Velocity":49,"Duration":60308,"SoundDuration":60308,"Delta":195340365},{"NoteNumber":68,"Velocity":50,"Duration":60308,"SoundDuration":60308,"Delta":195400674},{"NoteNumber":63,"Velocity":48,"Duration":452444,"SoundDuration":452444,"Delta":195460982},{"NoteNumber":67,"Velocity":55,"Duration":222700,"SoundDuration":222700,"Delta":195460982},{"NoteNumber":46,"Velocity":44,"Duration":222700,"SoundDuration":222700,"Delta":195460982},{"NoteNumber":65,"Velocity":50,"Duration":229744,"SoundDuration":229744,"Delta":195683683},{"NoteNumber":55,"Velocity":39,"Duration":698989,"SoundDuration":698989,"Delta":195683683},{"NoteNumber":63,"Velocity":46,"Duration":229743,"SoundDuration":229743,"Delta":195913427},{"NoteNumber":58,"Velocity":51,"Duration":237506,"SoundDuration":237506,"Delta":196143171},{"NoteNumber":60,"Velocity":50,"Duration":239502,"SoundDuration":239502,"Delta":196382673},{"NoteNumber":58,"Velocity":37,"Duration":239502,"SoundDuration":239502,"Delta":196382673},{"NoteNumber":63,"Velocity":50,"Duration":239501,"SoundDuration":239501,"Delta":196622175},{"NoteNumber":55,"Velocity":37,"Duration":239501,"SoundDuration":239501,"Delta":196622175},{"NoteNumber":56,"Velocity":48,"Duration":229375,"SoundDuration":229375,"Delta":196861677},{"NoteNumber":62,"Velocity":55,"Duration":231302,"SoundDuration":231302,"Delta":196861677},{"NoteNumber":46,"Velocity":44,"Duration":231302,"SoundDuration":231302,"Delta":196861677},{"NoteNumber":65,"Velocity":50,"Duration":239196,"SoundDuration":239196,"Delta":197092980},{"NoteNumber":56,"Velocity":39,"Duration":735095,"SoundDuration":735095,"Delta":197092980},{"NoteNumber":62,"Velocity":46,"Duration":120636,"SoundDuration":120636,"Delta":197332176},{"NoteNumber":60,"Velocity":41,"Duration":60318,"SoundDuration":60318,"Delta":197452813},{"NoteNumber":62,"Velocity":41,"Duration":60318,"SoundDuration":60318,"Delta":197513132},{"NoteNumber":60,"Velocity":50,"Duration":381938,"SoundDuration":381938,"Delta":197573450},{"NoteNumber":52,"Velocity":37,"Duration":254625,"SoundDuration":254625,"Delta":197828076},{"NoteNumber":58,"Velocity":45,"Duration":381938,"SoundDuration":381938,"Delta":197955389},{"NoteNumber":56,"Velocity":45,"Duration":381938,"SoundDuration":381938,"Delta":197955389},{"NoteNumber":53,"Velocity":37,"Duration":254625,"SoundDuration":254625,"Delta":198082701},{"NoteNumber":58,"Velocity":38,"Duration":252164,"SoundDuration":252164,"Delta":198337327},{"NoteNumber":67,"Velocity":49,"Duration":756493,"SoundDuration":756493,"Delta":198337327},{"NoteNumber":63,"Velocity":41,"Duration":756493,"SoundDuration":756493,"Delta":198337327},{"NoteNumber":39,"Velocity":36,"Duration":756493,"SoundDuration":756493,"Delta":198337327},{"NoteNumber":51,"Velocity":43,"Duration":756493,"SoundDuration":756493,"Delta":198337327},{"NoteNumber":57,"Velocity":44,"Duration":252164,"SoundDuration":252164,"Delta":198589491},{"NoteNumber":58,"Velocity":44,"Duration":252164,"SoundDuration":252164,"Delta":198841656},{"NoteNumber":55,"Velocity":47,"Duration":257510,"SoundDuration":257510,"Delta":199093820},{"NoteNumber":67,"Velocity":50,"Duration":492062,"SoundDuration":492062,"Delta":199351331},{"NoteNumber":63,"Velocity":50,"Duration":492062,"SoundDuration":492062,"Delta":199351331},{"NoteNumber":55,"Velocity":47,"Duration":243902,"SoundDuration":243902,"Delta":199351331},{"NoteNumber":34,"Velocity":34,"Duration":492062,"SoundDuration":492062,"Delta":199351331},{"NoteNumber":46,"Velocity":41,"Duration":492062,"SoundDuration":492062,"Delta":199351331},{"NoteNumber":58,"Velocity":42,"Duration":248159,"SoundDuration":248159,"Delta":199595233},{"NoteNumber":57,"Velocity":38,"Duration":240000,"SoundDuration":240000,"Delta":199843393},{"NoteNumber":62,"Velocity":41,"Duration":710653,"SoundDuration":710653,"Delta":199843393},{"NoteNumber":68,"Velocity":49,"Duration":710653,"SoundDuration":710653,"Delta":199843393},{"NoteNumber":41,"Velocity":36,"Duration":710653,"SoundDuration":710653,"Delta":199843393},{"NoteNumber":53,"Velocity":44,"Duration":710653,"SoundDuration":710653,"Delta":199843393},{"NoteNumber":58,"Velocity":42,"Duration":232558,"SoundDuration":232558,"Delta":200083393},{"NoteNumber":60,"Velocity":42,"Duration":238094,"SoundDuration":238094,"Delta":200315951},{"NoteNumber":61,"Velocity":42,"Duration":240963,"SoundDuration":240963,"Delta":200554046},{"NoteNumber":62,"Velocity":38,"Duration":243902,"SoundDuration":243902,"Delta":200795010},{"NoteNumber":68,"Velocity":48,"Duration":491836,"SoundDuration":491836,"Delta":200795010},{"NoteNumber":34,"Velocity":34,"Duration":491836,"SoundDuration":491836,"Delta":200795010},{"NoteNumber":46,"Velocity":41,"Duration":491836,"SoundDuration":491836,"Delta":200795010},{"NoteNumber":58,"Velocity":40,"Duration":247933,"SoundDuration":247933,"Delta":201038912},{"NoteNumber":58,"Velocity":36,"Duration":240499,"SoundDuration":240499,"Delta":201286846},{"NoteNumber":67,"Velocity":46,"Duration":729977,"SoundDuration":729977,"Delta":201286846},{"NoteNumber":63,"Velocity":38,"Duration":729977,"SoundDuration":729977,"Delta":201286846},{"NoteNumber":39,"Velocity":34,"Duration":729977,"SoundDuration":729977,"Delta":201286846},{"NoteNumber":51,"Velocity":40,"Duration":729977,"SoundDuration":729977,"Delta":201286846},{"NoteNumber":57,"Velocity":44,"Duration":245217,"SoundDuration":245217,"Delta":201527346},{"NoteNumber":58,"Velocity":44,"Duration":244259,"SoundDuration":244259,"Delta":201772564},{"NoteNumber":55,"Velocity":47,"Duration":243309,"SoundDuration":243309,"Delta":202016824},{"NoteNumber":67,"Velocity":50,"Duration":490464,"SoundDuration":490464,"Delta":202260133},{"NoteNumber":63,"Velocity":50,"Duration":490464,"SoundDuration":490464,"Delta":202260133},{"NoteNumber":55,"Velocity":47,"Duration":246204,"SoundDuration":246204,"Delta":202260133},{"NoteNumber":34,"Velocity":34,"Duration":490464,"SoundDuration":490464,"Delta":202260133},{"NoteNumber":46,"Velocity":41,"Duration":490464,"SoundDuration":490464,"Delta":202260133},{"NoteNumber":58,"Velocity":41,"Duration":244259,"SoundDuration":244259,"Delta":202506338},{"NoteNumber":57,"Velocity":36,"Duration":235941,"SoundDuration":235941,"Delta":202750598},{"NoteNumber":62,"Velocity":38,"Duration":708782,"SoundDuration":708782,"Delta":202750598},{"NoteNumber":68,"Velocity":46,"Duration":708782,"SoundDuration":708782,"Delta":202750598},{"NoteNumber":41,"Velocity":34,"Duration":708782,"SoundDuration":708782,"Delta":202750598},{"NoteNumber":53,"Velocity":41,"Duration":708782,"SoundDuration":708782,"Delta":202750598},{"NoteNumber":58,"Velocity":42,"Duration":233281,"SoundDuration":233281,"Delta":202986540},{"NoteNumber":60,"Velocity":42,"Duration":239559,"SoundDuration":239559,"Delta":203219821},{"NoteNumber":61,"Velocity":42,"Duration":250146,"SoundDuration":250146,"Delta":203459380},{"NoteNumber":62,"Velocity":38,"Duration":258464,"SoundDuration":258464,"Delta":203709526},{"NoteNumber":68,"Velocity":48,"Duration":529296,"SoundDuration":529296,"Delta":203709526},{"NoteNumber":34,"Velocity":34,"Duration":529296,"SoundDuration":529296,"Delta":203709526},{"NoteNumber":46,"Velocity":41,"Duration":529296,"SoundDuration":529296,"Delta":203709526},{"NoteNumber":58,"Velocity":40,"Duration":270831,"SoundDuration":270831,"Delta":203967991},{"NoteNumber":63,"Velocity":47,"Duration":246204,"SoundDuration":246204,"Delta":204238822},{"NoteNumber":75,"Velocity":47,"Duration":246204,"SoundDuration":246204,"Delta":204238822},{"NoteNumber":51,"Velocity":44,"Duration":246204,"SoundDuration":246204,"Delta":204238822},{"NoteNumber":65,"Velocity":47,"Duration":232734,"SoundDuration":232734,"Delta":204485027},{"NoteNumber":77,"Velocity":47,"Duration":232734,"SoundDuration":232734,"Delta":204485027},{"NoteNumber":67,"Velocity":39,"Duration":232734,"SoundDuration":232734,"Delta":204485027},{"NoteNumber":79,"Velocity":47,"Duration":236836,"SoundDuration":236836,"Delta":204717762},{"NoteNumber":67,"Velocity":39,"Duration":478265,"SoundDuration":478265,"Delta":204717762},{"NoteNumber":70,"Velocity":53,"Duration":734884,"SoundDuration":734884,"Delta":204954598},{"NoteNumber":82,"Velocity":53,"Duration":734884,"SoundDuration":734884,"Delta":204954598},{"NoteNumber":63,"Velocity":37,"Duration":243309,"SoundDuration":243309,"Delta":205196027},{"NoteNumber":58,"Velocity":37,"Duration":250146,"SoundDuration":250146,"Delta":205439336},{"NoteNumber":51,"Velocity":44,"Duration":232414,"SoundDuration":232414,"Delta":205689482},{"NoteNumber":70,"Velocity":52,"Duration":232414,"SoundDuration":232414,"Delta":205921896},{"NoteNumber":82,"Velocity":52,"Duration":232414,"SoundDuration":232414,"Delta":205921896},{"NoteNumber":68,"Velocity":39,"Duration":676642,"SoundDuration":676642,"Delta":205921896},{"NoteNumber":72,"Velocity":43,"Duration":225665,"SoundDuration":225665,"Delta":206154310},{"NoteNumber":84,"Velocity":43,"Duration":225665,"SoundDuration":225665,"Delta":206154310},{"NoteNumber":73,"Velocity":55,"Duration":218563,"SoundDuration":218563,"Delta":206379976},{"NoteNumber":85,"Velocity":55,"Duration":218563,"SoundDuration":218563,"Delta":206379976},{"NoteNumber":89,"Velocity":44,"Duration":215517,"SoundDuration":215517,"Delta":206598539},{"NoteNumber":77,"Velocity":38,"Duration":215517,"SoundDuration":215517,"Delta":206598539},{"NoteNumber":61,"Velocity":37,"Duration":215517,"SoundDuration":215517,"Delta":206598539},{"NoteNumber":85,"Velocity":53,"Duration":221664,"SoundDuration":221664,"Delta":206814056},{"NoteNumber":73,"Velocity":53,"Duration":221664,"SoundDuration":221664,"Delta":206814056},{"NoteNumber":58,"Velocity":37,"Duration":221664,"SoundDuration":221664,"Delta":206814056},{"NoteNumber":84,"Velocity":55,"Duration":217785,"SoundDuration":217785,"Delta":207035720},{"NoteNumber":72,"Velocity":55,"Duration":217785,"SoundDuration":217785,"Delta":207035720},{"NoteNumber":51,"Velocity":44,"Duration":217785,"SoundDuration":217785,"Delta":207035720},{"NoteNumber":70,"Velocity":53,"Duration":221664,"SoundDuration":221664,"Delta":207253506},{"NoteNumber":82,"Velocity":53,"Duration":221664,"SoundDuration":221664,"Delta":207253506},{"NoteNumber":67,"Velocity":39,"Duration":671481,"SoundDuration":671481,"Delta":207253506},{"NoteNumber":63,"Velocity":46,"Duration":221664,"SoundDuration":221664,"Delta":207475170},{"NoteNumber":75,"Velocity":46,"Duration":221664,"SoundDuration":221664,"Delta":207475170},{"NoteNumber":63,"Velocity":51,"Duration":228153,"SoundDuration":228153,"Delta":207696834},{"NoteNumber":75,"Velocity":51,"Duration":228153,"SoundDuration":228153,"Delta":207696834},{"NoteNumber":65,"Velocity":51,"Duration":477541,"SoundDuration":477541,"Delta":207924988},{"NoteNumber":77,"Velocity":51,"Duration":477541,"SoundDuration":477541,"Delta":207924988},{"NoteNumber":61,"Velocity":37,"Duration":233281,"SoundDuration":233281,"Delta":207924988},{"NoteNumber":58,"Velocity":37,"Duration":244259,"SoundDuration":244259,"Delta":208158270},{"NoteNumber":51,"Velocity":44,"Duration":221664,"SoundDuration":221664,"Delta":208402530},{"NoteNumber":67,"Velocity":52,"Duration":221664,"SoundDuration":221664,"Delta":208624194},{"NoteNumber":79,"Velocity":52,"Duration":221664,"SoundDuration":221664,"Delta":208624194},{"NoteNumber":61,"Velocity":39,"Duration":654268,"SoundDuration":654268,"Delta":208624194},{"NoteNumber":68,"Velocity":47,"Duration":218563,"SoundDuration":218563,"Delta":208845858},{"NoteNumber":80,"Velocity":47,"Duration":218563,"SoundDuration":218563,"Delta":208845858},{"NoteNumber":70,"Velocity":55,"Duration":214041,"SoundDuration":214041,"Delta":209064421},{"NoteNumber":82,"Velocity":55,"Duration":214041,"SoundDuration":214041,"Delta":209064421},{"NoteNumber":87,"Velocity":53,"Duration":218563,"SoundDuration":218563,"Delta":209278462},{"NoteNumber":75,"Velocity":51,"Duration":218563,"SoundDuration":218563,"Delta":209278462},{"NoteNumber":55,"Velocity":37,"Duration":218563,"SoundDuration":218563,"Delta":209278462},{"NoteNumber":84,"Velocity":47,"Duration":224048,"SoundDuration":224048,"Delta":209497026},{"NoteNumber":72,"Velocity":47,"Duration":224048,"SoundDuration":224048,"Delta":209497026},{"NoteNumber":51,"Velocity":37,"Duration":224048,"SoundDuration":224048,"Delta":209497026},{"NoteNumber":82,"Velocity":55,"Duration":217785,"SoundDuration":217785,"Delta":209721074},{"NoteNumber":70,"Velocity":55,"Duration":217785,"SoundDuration":217785,"Delta":209721074},{"NoteNumber":44,"Velocity":44,"Duration":217785,"SoundDuration":217785,"Delta":209721074},{"NoteNumber":68,"Velocity":50,"Duration":226090,"SoundDuration":226090,"Delta":209938860},{"NoteNumber":80,"Velocity":50,"Duration":226090,"SoundDuration":226090,"Delta":209938860},{"NoteNumber":60,"Velocity":39,"Duration":683734,"SoundDuration":683734,"Delta":209938860},{"NoteNumber":63,"Velocity":46,"Duration":226090,"SoundDuration":226090,"Delta":210164951},{"NoteNumber":75,"Velocity":46,"Duration":226090,"SoundDuration":226090,"Delta":210164951},{"NoteNumber":63,"Velocity":51,"Duration":231552,"SoundDuration":231552,"Delta":210391042},{"NoteNumber":75,"Velocity":51,"Duration":231552,"SoundDuration":231552,"Delta":210391042},{"NoteNumber":68,"Velocity":49,"Duration":682080,"SoundDuration":682080,"Delta":210622595},{"NoteNumber":80,"Velocity":55,"Duration":682080,"SoundDuration":682080,"Delta":210622595},{"NoteNumber":56,"Velocity":39,"Duration":233281,"SoundDuration":233281,"Delta":210622595},{"NoteNumber":51,"Velocity":39,"Duration":233281,"SoundDuration":233281,"Delta":210855876},{"NoteNumber":44,"Velocity":48,"Duration":215517,"SoundDuration":215517,"Delta":211089158},{"NoteNumber":72,"Velocity":52,"Duration":677945,"SoundDuration":677945,"Delta":211304675},{"NoteNumber":75,"Velocity":52,"Duration":677945,"SoundDuration":677945,"Delta":211304675},{"NoteNumber":84,"Velocity":61,"Duration":677945,"SoundDuration":677945,"Delta":211304675},{"NoteNumber":80,"Velocity":61,"Duration":677945,"SoundDuration":677945,"Delta":211304675},{"NoteNumber":63,"Velocity":42,"Duration":677945,"SoundDuration":677945,"Delta":211304675},{"NoteNumber":87,"Velocity":67,"Duration":459699,"SoundDuration":459699,"Delta":211982621},{"NoteNumber":84,"Velocity":67,"Duration":459699,"SoundDuration":459699,"Delta":211982621},{"NoteNumber":80,"Velocity":55,"Duration":459699,"SoundDuration":459699,"Delta":211982621},{"NoteNumber":75,"Velocity":55,"Duration":459699,"SoundDuration":459699,"Delta":211982621},{"NoteNumber":60,"Velocity":39,"Duration":229849,"SoundDuration":229849,"Delta":211982621},{"NoteNumber":56,"Velocity":39,"Duration":229849,"SoundDuration":229849,"Delta":212212471},{"NoteNumber":44,"Velocity":50,"Duration":216262,"SoundDuration":216262,"Delta":212442321},{"NoteNumber":63,"Velocity":57,"Duration":683734,"SoundDuration":683734,"Delta":212658584},{"NoteNumber":75,"Velocity":57,"Duration":683734,"SoundDuration":683734,"Delta":212658584},{"NoteNumber":59,"Velocity":45,"Duration":683734,"SoundDuration":683734,"Delta":212658584},{"NoteNumber":68,"Velocity":58,"Duration":682080,"SoundDuration":682080,"Delta":213342319},{"NoteNumber":80,"Velocity":64,"Duration":682080,"SoundDuration":682080,"Delta":213342319},{"NoteNumber":56,"Velocity":44,"Duration":233281,"SoundDuration":233281,"Delta":213342319},{"NoteNumber":51,"Velocity":45,"Duration":233281,"SoundDuration":233281,"Delta":213575600},{"NoteNumber":44,"Velocity":54,"Duration":215517,"SoundDuration":215517,"Delta":213808882},{"NoteNumber":71,"Velocity":56,"Duration":677945,"SoundDuration":677945,"Delta":214024399},{"NoteNumber":75,"Velocity":56,"Duration":677945,"SoundDuration":677945,"Delta":214024399},{"NoteNumber":83,"Velocity":67,"Duration":677945,"SoundDuration":677945,"Delta":214024399},{"NoteNumber":80,"Velocity":67,"Duration":677945,"SoundDuration":677945,"Delta":214024399},{"NoteNumber":63,"Velocity":49,"Duration":677945,"SoundDuration":677945,"Delta":214024399},{"NoteNumber":87,"Velocity":71,"Duration":573140,"SoundDuration":573140,"Delta":214702345},{"NoteNumber":83,"Velocity":71,"Duration":573140,"SoundDuration":573140,"Delta":214702345},{"NoteNumber":80,"Velocity":59,"Duration":573140,"SoundDuration":573140,"Delta":214702345},{"NoteNumber":75,"Velocity":59,"Duration":573140,"SoundDuration":573140,"Delta":214702345},{"NoteNumber":59,"Velocity":48,"Duration":261711,"SoundDuration":261711,"Delta":214702345},{"NoteNumber":56,"Velocity":49,"Duration":311429,"SoundDuration":311429,"Delta":214964056},{"NoteNumber":63,"Velocity":46,"Duration":246204,"SoundDuration":246204,"Delta":215275486},{"NoteNumber":75,"Velocity":60,"Duration":246204,"SoundDuration":246204,"Delta":215275486},{"NoteNumber":46,"Velocity":65,"Duration":246204,"SoundDuration":246204,"Delta":215275486},{"NoteNumber":65,"Velocity":48,"Duration":232734,"SoundDuration":232734,"Delta":215521690},{"NoteNumber":77,"Velocity":55,"Duration":232734,"SoundDuration":232734,"Delta":215521690},{"NoteNumber":67,"Velocity":45,"Duration":232734,"SoundDuration":232734,"Delta":215521690},{"NoteNumber":67,"Velocity":50,"Duration":236836,"SoundDuration":236836,"Delta":215754425},{"NoteNumber":79,"Velocity":57,"Duration":236836,"SoundDuration":236836,"Delta":215754425},{"NoteNumber":67,"Velocity":45,"Duration":485145,"SoundDuration":485145,"Delta":215754425},{"NoteNumber":70,"Velocity":54,"Duration":375594,"SoundDuration":375594,"Delta":215991261},{"NoteNumber":82,"Velocity":66,"Duration":375594,"SoundDuration":375594,"Delta":215991261},{"NoteNumber":63,"Velocity":43,"Duration":250396,"SoundDuration":250396,"Delta":216241658},{"NoteNumber":70,"Velocity":43,"Duration":375594,"SoundDuration":375594,"Delta":216366856},{"NoteNumber":82,"Velocity":53,"Duration":375594,"SoundDuration":375594,"Delta":216366856},{"NoteNumber":58,"Velocity":43,"Duration":250396,"SoundDuration":250396,"Delta":216492054},{"NoteNumber":46,"Velocity":51,"Duration":232414,"SoundDuration":232414,"Delta":216742451},{"NoteNumber":70,"Velocity":52,"Duration":222221,"SoundDuration":222221,"Delta":216974865},{"NoteNumber":82,"Velocity":65,"Duration":222221,"SoundDuration":222221,"Delta":216974865},{"NoteNumber":68,"Velocity":45,"Duration":648922,"SoundDuration":648922,"Delta":216974865},{"NoteNumber":72,"Velocity":47,"Duration":216262,"SoundDuration":216262,"Delta":217197087},{"NoteNumber":84,"Velocity":59,"Duration":216262,"SoundDuration":216262,"Delta":217197087},{"NoteNumber":74,"Velocity":54,"Duration":210437,"SoundDuration":210437,"Delta":217413350},{"NoteNumber":86,"Velocity":70,"Duration":210437,"SoundDuration":210437,"Delta":217413350},{"NoteNumber":89,"Velocity":58,"Duration":215517,"SoundDuration":215517,"Delta":217623787},{"NoteNumber":77,"Velocity":52,"Duration":215517,"SoundDuration":215517,"Delta":217623787},{"NoteNumber":62,"Velocity":43,"Duration":215517,"SoundDuration":215517,"Delta":217623787},{"NoteNumber":86,"Velocity":66,"Duration":223247,"SoundDuration":223247,"Delta":217839304},{"NoteNumber":74,"Velocity":53,"Duration":223247,"SoundDuration":223247,"Delta":217839304},{"NoteNumber":58,"Velocity":43,"Duration":223247,"SoundDuration":223247,"Delta":217839304},{"NoteNumber":84,"Velocity":67,"Duration":213310,"SoundDuration":213310,"Delta":218062552},{"NoteNumber":72,"Velocity":53,"Duration":213310,"SoundDuration":213310,"Delta":218062552},{"NoteNumber":51,"Velocity":51,"Duration":213310,"SoundDuration":213310,"Delta":218062552},{"NoteNumber":74,"Velocity":53,"Duration":221664,"SoundDuration":221664,"Delta":218275862},{"NoteNumber":86,"Velocity":66,"Duration":221664,"SoundDuration":221664,"Delta":218275862},{"NoteNumber":67,"Velocity":45,"Duration":441480,"SoundDuration":441480,"Delta":218275862},{"NoteNumber":72,"Velocity":45,"Duration":221664,"SoundDuration":221664,"Delta":218497526},{"NoteNumber":84,"Velocity":57,"Duration":221664,"SoundDuration":221664,"Delta":218497526},{"NoteNumber":67,"Velocity":51,"Duration":367076,"SoundDuration":367076,"Delta":218719190},{"NoteNumber":79,"Velocity":63,"Duration":367076,"SoundDuration":367076,"Delta":218719190},{"NoteNumber":63,"Velocity":43,"Duration":244718,"SoundDuration":244718,"Delta":218963908},{"NoteNumber":67,"Velocity":43,"Duration":367076,"SoundDuration":367076,"Delta":219086267},{"NoteNumber":79,"Velocity":53,"Duration":367076,"SoundDuration":367076,"Delta":219086267},{"NoteNumber":58,"Velocity":43,"Duration":244717,"SoundDuration":244717,"Delta":219208626},{"NoteNumber":48,"Velocity":51,"Duration":232414,"SoundDuration":232414,"Delta":219453344},{"NoteNumber":70,"Velocity":52,"Duration":222221,"SoundDuration":222221,"Delta":219685758},{"NoteNumber":82,"Velocity":62,"Duration":222221,"SoundDuration":222221,"Delta":219685758},{"NoteNumber":61,"Velocity":45,"Duration":648922,"SoundDuration":648922,"Delta":219685758},{"NoteNumber":72,"Velocity":44,"Duration":216262,"SoundDuration":216262,"Delta":219907980},{"NoteNumber":84,"Velocity":52,"Duration":216262,"SoundDuration":216262,"Delta":219907980},{"NoteNumber":70,"Velocity":55,"Duration":210437,"SoundDuration":210437,"Delta":220124243},{"NoteNumber":82,"Velocity":65,"Duration":210437,"SoundDuration":210437,"Delta":220124243},{"NoteNumber":80,"Velocity":60,"Duration":215517,"SoundDuration":215517,"Delta":220334681},{"NoteNumber":68,"Velocity":48,"Duration":215517,"SoundDuration":215517,"Delta":220334681},{"NoteNumber":60,"Velocity":43,"Duration":215517,"SoundDuration":215517,"Delta":220334681},{"NoteNumber":79,"Velocity":58,"Duration":223247,"SoundDuration":223247,"Delta":220550198},{"NoteNumber":67,"Velocity":49,"Duration":223247,"SoundDuration":223247,"Delta":220550198},{"NoteNumber":64,"Velocity":43,"Duration":223247,"SoundDuration":223247,"Delta":220550198},{"NoteNumber":77,"Velocity":62,"Duration":213310,"SoundDuration":213310,"Delta":220773445},{"NoteNumber":65,"Velocity":52,"Duration":213310,"SoundDuration":213310,"Delta":220773445},{"NoteNumber":41,"Velocity":51,"Duration":213310,"SoundDuration":213310,"Delta":220773445},{"NoteNumber":67,"Velocity":49,"Duration":221664,"SoundDuration":221664,"Delta":220986756},{"NoteNumber":79,"Velocity":58,"Duration":221664,"SoundDuration":221664,"Delta":220986756},{"NoteNumber":63,"Velocity":45,"Duration":699663,"SoundDuration":699663,"Delta":220986756},{"NoteNumber":68,"Velocity":47,"Duration":233281,"SoundDuration":233281,"Delta":221208420},{"NoteNumber":80,"Velocity":56,"Duration":233281,"SoundDuration":233281,"Delta":221208420},{"NoteNumber":75,"Velocity":57,"Duration":367076,"SoundDuration":367076,"Delta":221441701},{"NoteNumber":87,"Velocity":71,"Duration":367076,"SoundDuration":367076,"Delta":221441701},{"NoteNumber":53,"Velocity":43,"Duration":244718,"SoundDuration":244718,"Delta":221686419},{"NoteNumber":72,"Velocity":48,"Duration":367076,"SoundDuration":367076,"Delta":221808778},{"NoteNumber":84,"Velocity":57,"Duration":367076,"SoundDuration":367076,"Delta":221808778},{"NoteNumber":63,"Velocity":43,"Duration":244717,"SoundDuration":244717,"Delta":221931137},{"NoteNumber":46,"Velocity":51,"Duration":232414,"SoundDuration":232414,"Delta":222175855},{"NoteNumber":72,"Velocity":52,"Duration":218977,"SoundDuration":218977,"Delta":222408269},{"NoteNumber":84,"Velocity":62,"Duration":218977,"SoundDuration":218977,"Delta":222408269},{"NoteNumber":56,"Velocity":45,"Duration":645678,"SoundDuration":645678,"Delta":222408269},{"NoteNumber":75,"Velocity":49,"Duration":216262,"SoundDuration":216262,"Delta":222627247},{"NoteNumber":87,"Velocity":58,"Duration":216262,"SoundDuration":216262,"Delta":222627247},{"NoteNumber":72,"Velocity":49,"Duration":210437,"SoundDuration":210437,"Delta":222843510},{"NoteNumber":84,"Velocity":61,"Duration":210437,"SoundDuration":210437,"Delta":222843510},{"NoteNumber":80,"Velocity":60,"Duration":215517,"SoundDuration":215517,"Delta":223053948},{"NoteNumber":68,"Velocity":51,"Duration":215517,"SoundDuration":215517,"Delta":223053948},{"NoteNumber":55,"Velocity":43,"Duration":215517,"SoundDuration":215517,"Delta":223053948},{"NoteNumber":79,"Velocity":58,"Duration":223247,"SoundDuration":223247,"Delta":223269465},{"NoteNumber":67,"Velocity":49,"Duration":223247,"SoundDuration":223247,"Delta":223269465},{"NoteNumber":63,"Velocity":43,"Duration":223247,"SoundDuration":223247,"Delta":223269465},{"NoteNumber":77,"Velocity":58,"Duration":213310,"SoundDuration":213310,"Delta":223492712},{"NoteNumber":65,"Velocity":49,"Duration":213310,"SoundDuration":213310,"Delta":223492712},{"NoteNumber":46,"Velocity":48,"Duration":213310,"SoundDuration":213310,"Delta":223492712},{"NoteNumber":67,"Velocity":49,"Duration":221664,"SoundDuration":221664,"Delta":223706023},{"NoteNumber":79,"Velocity":58,"Duration":221664,"SoundDuration":221664,"Delta":223706023},{"NoteNumber":63,"Velocity":45,"Duration":702324,"SoundDuration":702324,"Delta":223706023},{"NoteNumber":68,"Velocity":47,"Duration":235941,"SoundDuration":235941,"Delta":223927687},{"NoteNumber":80,"Velocity":56,"Duration":235941,"SoundDuration":235941,"Delta":223927687},{"NoteNumber":74,"Velocity":57,"Duration":367076,"SoundDuration":367076,"Delta":224163629},{"NoteNumber":86,"Velocity":71,"Duration":367076,"SoundDuration":367076,"Delta":224163629},{"NoteNumber":58,"Velocity":43,"Duration":244718,"SoundDuration":244718,"Delta":224408347},{"NoteNumber":72,"Velocity":48,"Duration":586407,"SoundDuration":586407,"Delta":224530706},{"NoteNumber":84,"Velocity":57,"Duration":586407,"SoundDuration":586407,"Delta":224530706},{"NoteNumber":68,"Velocity":43,"Duration":244717,"SoundDuration":244717,"Delta":224653065},{"NoteNumber":46,"Velocity":45,"Duration":219330,"SoundDuration":219330,"Delta":224897783},{"NoteNumber":64,"Velocity":44,"Duration":245922,"SoundDuration":245922,"Delta":225117113},{"NoteNumber":76,"Velocity":52,"Duration":245922,"SoundDuration":245922,"Delta":225117113},{"NoteNumber":55,"Velocity":40,"Duration":245922,"SoundDuration":245922,"Delta":225117113},{"NoteNumber":65,"Velocity":40,"Duration":259537,"SoundDuration":259537,"Delta":225363035},{"NoteNumber":77,"Velocity":48,"Duration":259537,"SoundDuration":259537,"Delta":225363035},{"NoteNumber":56,"Velocity":38,"Duration":259537,"SoundDuration":259537,"Delta":225363035},{"NoteNumber":68,"Velocity":47,"Duration":427796,"SoundDuration":427796,"Delta":225622573},{"NoteNumber":80,"Velocity":57,"Duration":427796,"SoundDuration":427796,"Delta":225622573},{"NoteNumber":60,"Velocity":35,"Duration":427796,"SoundDuration":427796,"Delta":225622573},{"NoteNumber":67,"Velocity":43,"Duration":475969,"SoundDuration":475969,"Delta":226050370},{"NoteNumber":79,"Velocity":51,"Duration":475969,"SoundDuration":475969,"Delta":226050370},{"NoteNumber":58,"Velocity":34,"Duration":475969,"SoundDuration":475969,"Delta":226050370},{"NoteNumber":58,"Velocity":38,"Duration":252164,"SoundDuration":252164,"Delta":226526340},{"NoteNumber":67,"Velocity":49,"Duration":756493,"SoundDuration":756493,"Delta":226526340},{"NoteNumber":63,"Velocity":41,"Duration":756493,"SoundDuration":756493,"Delta":226526340},{"NoteNumber":39,"Velocity":36,"Duration":756493,"SoundDuration":756493,"Delta":226526340},{"NoteNumber":51,"Velocity":43,"Duration":756493,"SoundDuration":756493,"Delta":226526340},{"NoteNumber":57,"Velocity":41,"Duration":252164,"SoundDuration":252164,"Delta":226778504},{"NoteNumber":58,"Velocity":44,"Duration":252164,"SoundDuration":252164,"Delta":227030669},{"NoteNumber":55,"Velocity":47,"Duration":257510,"SoundDuration":257510,"Delta":227282833},{"NoteNumber":67,"Velocity":50,"Duration":490095,"SoundDuration":490095,"Delta":227540344},{"NoteNumber":63,"Velocity":50,"Duration":490095,"SoundDuration":490095,"Delta":227540344},{"NoteNumber":55,"Velocity":47,"Duration":241935,"SoundDuration":241935,"Delta":227540344},{"NoteNumber":34,"Velocity":34,"Duration":490095,"SoundDuration":490095,"Delta":227540344},{"NoteNumber":46,"Velocity":41,"Duration":490095,"SoundDuration":490095,"Delta":227540344},{"NoteNumber":58,"Velocity":42,"Duration":248159,"SoundDuration":248159,"Delta":227782279},{"NoteNumber":57,"Velocity":38,"Duration":241935,"SoundDuration":241935,"Delta":228030439},{"NoteNumber":62,"Velocity":41,"Duration":714405,"SoundDuration":714405,"Delta":228030439},{"NoteNumber":68,"Velocity":49,"Duration":714405,"SoundDuration":714405,"Delta":228030439},{"NoteNumber":41,"Velocity":36,"Duration":714405,"SoundDuration":714405,"Delta":228030439},{"NoteNumber":53,"Velocity":44,"Duration":714405,"SoundDuration":714405,"Delta":228030439},{"NoteNumber":58,"Velocity":39,"Duration":234375,"SoundDuration":234375,"Delta":228272374},{"NoteNumber":60,"Velocity":42,"Duration":238094,"SoundDuration":238094,"Delta":228506749},{"NoteNumber":61,"Velocity":38,"Duration":241935,"SoundDuration":241935,"Delta":228744844},{"NoteNumber":62,"Velocity":38,"Duration":237736,"SoundDuration":237736,"Delta":228986780},{"NoteNumber":68,"Velocity":48,"Duration":481045,"SoundDuration":481045,"Delta":228986780},{"NoteNumber":34,"Velocity":34,"Duration":481045,"SoundDuration":481045,"Delta":228986780},{"NoteNumber":46,"Velocity":41,"Duration":481045,"SoundDuration":481045,"Delta":228986780},{"NoteNumber":58,"Velocity":40,"Duration":243309,"SoundDuration":243309,"Delta":229224516},{"NoteNumber":58,"Velocity":36,"Duration":240499,"SoundDuration":240499,"Delta":229467825},{"NoteNumber":67,"Velocity":46,"Duration":729977,"SoundDuration":729977,"Delta":229467825},{"NoteNumber":63,"Velocity":38,"Duration":729977,"SoundDuration":729977,"Delta":229467825},{"NoteNumber":39,"Velocity":34,"Duration":729977,"SoundDuration":729977,"Delta":229467825},{"NoteNumber":51,"Velocity":40,"Duration":729977,"SoundDuration":729977,"Delta":229467825},{"NoteNumber":57,"Velocity":44,"Duration":245217,"SoundDuration":245217,"Delta":229708325},{"NoteNumber":58,"Velocity":42,"Duration":244259,"SoundDuration":244259,"Delta":229953543},{"NoteNumber":55,"Velocity":47,"Duration":243309,"SoundDuration":243309,"Delta":230197803},{"NoteNumber":67,"Velocity":50,"Duration":490464,"SoundDuration":490464,"Delta":230441112},{"NoteNumber":63,"Velocity":50,"Duration":490464,"SoundDuration":490464,"Delta":230441112},{"NoteNumber":55,"Velocity":47,"Duration":246204,"SoundDuration":246204,"Delta":230441112},{"NoteNumber":34,"Velocity":34,"Duration":490464,"SoundDuration":490464,"Delta":230441112},{"NoteNumber":46,"Velocity":41,"Duration":490464,"SoundDuration":490464,"Delta":230441112},{"NoteNumber":58,"Velocity":41,"Duration":244259,"SoundDuration":244259,"Delta":230687317},{"NoteNumber":57,"Velocity":36,"Duration":235941,"SoundDuration":235941,"Delta":230931577},{"NoteNumber":62,"Velocity":38,"Duration":708782,"SoundDuration":708782,"Delta":230931577},{"NoteNumber":68,"Velocity":46,"Duration":708782,"SoundDuration":708782,"Delta":230931577},{"NoteNumber":41,"Velocity":34,"Duration":708782,"SoundDuration":708782,"Delta":230931577},{"NoteNumber":53,"Velocity":41,"Duration":708782,"SoundDuration":708782,"Delta":230931577},{"NoteNumber":58,"Velocity":39,"Duration":233281,"SoundDuration":233281,"Delta":231167519},{"NoteNumber":60,"Velocity":42,"Duration":239559,"SoundDuration":239559,"Delta":231400800},{"NoteNumber":61,"Velocity":37,"Duration":250146,"SoundDuration":250146,"Delta":231640359},{"NoteNumber":62,"Velocity":38,"Duration":258464,"SoundDuration":258464,"Delta":231890505},{"NoteNumber":68,"Velocity":48,"Duration":529296,"SoundDuration":529296,"Delta":231890505},{"NoteNumber":34,"Velocity":34,"Duration":529296,"SoundDuration":529296,"Delta":231890505},{"NoteNumber":46,"Velocity":41,"Duration":529296,"SoundDuration":529296,"Delta":231890505},{"NoteNumber":58,"Velocity":40,"Duration":270831,"SoundDuration":270831,"Delta":232148970},{"NoteNumber":63,"Velocity":31,"Duration":246204,"SoundDuration":246204,"Delta":232419801},{"NoteNumber":75,"Velocity":31,"Duration":246204,"SoundDuration":246204,"Delta":232419801},{"NoteNumber":51,"Velocity":29,"Duration":246204,"SoundDuration":246204,"Delta":232419801},{"NoteNumber":65,"Velocity":30,"Duration":232734,"SoundDuration":232734,"Delta":232666006},{"NoteNumber":77,"Velocity":30,"Duration":232734,"SoundDuration":232734,"Delta":232666006},{"NoteNumber":67,"Velocity":26,"Duration":232734,"SoundDuration":232734,"Delta":232666006},{"NoteNumber":79,"Velocity":30,"Duration":236836,"SoundDuration":236836,"Delta":232898741},{"NoteNumber":67,"Velocity":26,"Duration":487232,"SoundDuration":487232,"Delta":232898741},{"NoteNumber":70,"Velocity":36,"Duration":375594,"SoundDuration":375594,"Delta":233135577},{"NoteNumber":82,"Velocity":36,"Duration":375594,"SoundDuration":375594,"Delta":233135577},{"NoteNumber":63,"Velocity":24,"Duration":250396,"SoundDuration":250396,"Delta":233385973},{"NoteNumber":70,"Velocity":28,"Duration":375594,"SoundDuration":375594,"Delta":233511171},{"NoteNumber":82,"Velocity":28,"Duration":375594,"SoundDuration":375594,"Delta":233511171},{"NoteNumber":58,"Velocity":24,"Duration":250396,"SoundDuration":250396,"Delta":233636370},{"NoteNumber":51,"Velocity":29,"Duration":232414,"SoundDuration":232414,"Delta":233886766},{"NoteNumber":70,"Velocity":35,"Duration":232414,"SoundDuration":232414,"Delta":234119180},{"NoteNumber":82,"Velocity":35,"Duration":232414,"SoundDuration":232414,"Delta":234119180},{"NoteNumber":68,"Velocity":26,"Duration":665785,"SoundDuration":665785,"Delta":234119180},{"NoteNumber":72,"Velocity":31,"Duration":219330,"SoundDuration":219330,"Delta":234351594},{"NoteNumber":84,"Velocity":31,"Duration":219330,"SoundDuration":219330,"Delta":234351594},{"NoteNumber":74,"Velocity":36,"Duration":214041,"SoundDuration":214041,"Delta":234570925},{"NoteNumber":86,"Velocity":36,"Duration":214041,"SoundDuration":214041,"Delta":234570925},{"NoteNumber":89,"Velocity":33,"Duration":219330,"SoundDuration":219330,"Delta":234784966},{"NoteNumber":77,"Velocity":33,"Duration":219330,"SoundDuration":219330,"Delta":234784966},{"NoteNumber":62,"Velocity":24,"Duration":219330,"SoundDuration":219330,"Delta":234784966},{"NoteNumber":86,"Velocity":36,"Duration":223247,"SoundDuration":223247,"Delta":235004296},{"NoteNumber":74,"Velocity":36,"Duration":223247,"SoundDuration":223247,"Delta":235004296},{"NoteNumber":58,"Velocity":24,"Duration":223247,"SoundDuration":223247,"Delta":235004296},{"NoteNumber":84,"Velocity":36,"Duration":216262,"SoundDuration":216262,"Delta":235227544},{"NoteNumber":72,"Velocity":36,"Duration":216262,"SoundDuration":216262,"Delta":235227544},{"NoteNumber":51,"Velocity":29,"Duration":216262,"SoundDuration":216262,"Delta":235227544},{"NoteNumber":74,"Velocity":33,"Duration":221664,"SoundDuration":221664,"Delta":235443807},{"NoteNumber":86,"Velocity":33,"Duration":221664,"SoundDuration":221664,"Delta":235443807},{"NoteNumber":67,"Velocity":26,"Duration":441480,"SoundDuration":441480,"Delta":235443807},{"NoteNumber":72,"Velocity":31,"Duration":221664,"SoundDuration":221664,"Delta":235665471},{"NoteNumber":84,"Velocity":31,"Duration":221664,"SoundDuration":221664,"Delta":235665471},{"NoteNumber":67,"Velocity":34,"Duration":367076,"SoundDuration":367076,"Delta":235887135},{"NoteNumber":79,"Velocity":34,"Duration":367076,"SoundDuration":367076,"Delta":235887135},{"NoteNumber":63,"Velocity":24,"Duration":244718,"SoundDuration":244718,"Delta":236131853},{"NoteNumber":67,"Velocity":28,"Duration":367076,"SoundDuration":367076,"Delta":236254212},{"NoteNumber":79,"Velocity":28,"Duration":367076,"SoundDuration":367076,"Delta":236254212},{"NoteNumber":58,"Velocity":24,"Duration":244717,"SoundDuration":244717,"Delta":236376571},{"NoteNumber":51,"Velocity":29,"Duration":221664,"SoundDuration":221664,"Delta":236621289},{"NoteNumber":65,"Velocity":35,"Duration":221664,"SoundDuration":221664,"Delta":236842953},{"NoteNumber":77,"Velocity":35,"Duration":221664,"SoundDuration":221664,"Delta":236842953},{"NoteNumber":68,"Velocity":26,"Duration":435385,"SoundDuration":435385,"Delta":236842953},{"NoteNumber":67,"Velocity":32,"Duration":215517,"SoundDuration":215517,"Delta":237064617},{"NoteNumber":79,"Velocity":32,"Duration":215517,"SoundDuration":215517,"Delta":237064617},{"NoteNumber":68,"Velocity":36,"Duration":211148,"SoundDuration":211148,"Delta":237280134},{"NoteNumber":80,"Velocity":36,"Duration":211148,"SoundDuration":211148,"Delta":237280134},{"NoteNumber":82,"Velocity":36,"Duration":218563,"SoundDuration":218563,"Delta":237491282},{"NoteNumber":70,"Velocity":36,"Duration":218563,"SoundDuration":218563,"Delta":237491282},{"NoteNumber":62,"Velocity":24,"Duration":218563,"SoundDuration":218563,"Delta":237491282},{"NoteNumber":80,"Velocity":36,"Duration":224048,"SoundDuration":224048,"Delta":237709846},{"NoteNumber":68,"Velocity":36,"Duration":224048,"SoundDuration":224048,"Delta":237709846},{"NoteNumber":58,"Velocity":24,"Duration":224048,"SoundDuration":224048,"Delta":237709846},{"NoteNumber":79,"Velocity":36,"Duration":216262,"SoundDuration":216262,"Delta":237933894},{"NoteNumber":67,"Velocity":36,"Duration":214460,"SoundDuration":214460,"Delta":237933894},{"NoteNumber":51,"Velocity":29,"Duration":216262,"SoundDuration":216262,"Delta":237933894},{"NoteNumber":65,"Velocity":33,"Duration":226090,"SoundDuration":226090,"Delta":238150157},{"NoteNumber":77,"Velocity":33,"Duration":226090,"SoundDuration":226090,"Delta":238150157},{"NoteNumber":67,"Velocity":26,"Duration":700341,"SoundDuration":700341,"Delta":238150157},{"NoteNumber":63,"Velocity":31,"Duration":226090,"SoundDuration":226090,"Delta":238376248},{"NoteNumber":75,"Velocity":31,"Duration":226090,"SoundDuration":226090,"Delta":238376248},{"NoteNumber":58,"Velocity":34,"Duration":372239,"SoundDuration":372239,"Delta":238602339},{"NoteNumber":70,"Velocity":34,"Duration":372239,"SoundDuration":372239,"Delta":238602339},{"NoteNumber":63,"Velocity":24,"Duration":248159,"SoundDuration":248159,"Delta":238850498},{"NoteNumber":58,"Velocity":28,"Duration":372239,"SoundDuration":372239,"Delta":238974578},{"NoteNumber":70,"Velocity":28,"Duration":372239,"SoundDuration":372239,"Delta":238974578},{"NoteNumber":55,"Velocity":24,"Duration":248159,"SoundDuration":248159,"Delta":239098658},{"NoteNumber":46,"Velocity":29,"Duration":230858,"SoundDuration":230858,"Delta":239346817},{"NoteNumber":62,"Velocity":31,"Duration":1147294,"SoundDuration":1147294,"Delta":239577675},{"NoteNumber":65,"Velocity":35,"Duration":230857,"SoundDuration":230857,"Delta":239577675},{"NoteNumber":56,"Velocity":26,"Duration":681003,"SoundDuration":681003,"Delta":239577675},{"NoteNumber":67,"Velocity":32,"Duration":227444,"SoundDuration":227444,"Delta":239808533},{"NoteNumber":68,"Velocity":36,"Duration":222700,"SoundDuration":222700,"Delta":240035978},{"NoteNumber":70,"Velocity":36,"Duration":225056,"SoundDuration":225056,"Delta":240258679},{"NoteNumber":52,"Velocity":24,"Duration":225056,"SoundDuration":225056,"Delta":240258679},{"NoteNumber":68,"Velocity":36,"Duration":120617,"SoundDuration":120617,"Delta":240483735},{"NoteNumber":53,"Velocity":24,"Duration":241234,"SoundDuration":241234,"Delta":240483735},{"NoteNumber":67,"Velocity":32,"Duration":60308,"SoundDuration":60308,"Delta":240604353},{"NoteNumber":68,"Velocity":33,"Duration":60308,"SoundDuration":60308,"Delta":240664661},{"NoteNumber":63,"Velocity":32,"Duration":452444,"SoundDuration":452444,"Delta":240724970},{"NoteNumber":67,"Velocity":36,"Duration":222700,"SoundDuration":222700,"Delta":240724970},{"NoteNumber":46,"Velocity":29,"Duration":222700,"SoundDuration":222700,"Delta":240724970},{"NoteNumber":65,"Velocity":33,"Duration":229744,"SoundDuration":229744,"Delta":240947671},{"NoteNumber":55,"Velocity":26,"Duration":698989,"SoundDuration":698989,"Delta":240947671},{"NoteNumber":63,"Velocity":31,"Duration":229743,"SoundDuration":229743,"Delta":241177415},{"NoteNumber":58,"Velocity":34,"Duration":237506,"SoundDuration":237506,"Delta":241407159},{"NoteNumber":60,"Velocity":33,"Duration":239502,"SoundDuration":239502,"Delta":241646661},{"NoteNumber":58,"Velocity":24,"Duration":239502,"SoundDuration":239502,"Delta":241646661},{"NoteNumber":63,"Velocity":33,"Duration":239501,"SoundDuration":239501,"Delta":241886163},{"NoteNumber":55,"Velocity":24,"Duration":239501,"SoundDuration":239501,"Delta":241886163},{"NoteNumber":56,"Velocity":32,"Duration":229375,"SoundDuration":229375,"Delta":242125665},{"NoteNumber":62,"Velocity":36,"Duration":231302,"SoundDuration":231302,"Delta":242125665},{"NoteNumber":46,"Velocity":29,"Duration":231302,"SoundDuration":231302,"Delta":242125665},{"NoteNumber":65,"Velocity":33,"Duration":239196,"SoundDuration":239196,"Delta":242356968},{"NoteNumber":56,"Velocity":26,"Duration":735095,"SoundDuration":735095,"Delta":242356968},{"NoteNumber":62,"Velocity":31,"Duration":120636,"SoundDuration":120636,"Delta":242596164},{"NoteNumber":60,"Velocity":27,"Duration":60318,"SoundDuration":60318,"Delta":242716801},{"NoteNumber":62,"Velocity":27,"Duration":60318,"SoundDuration":60318,"Delta":242777120},{"NoteNumber":60,"Velocity":33,"Duration":381938,"SoundDuration":381938,"Delta":242837438},{"NoteNumber":52,"Velocity":24,"Duration":254625,"SoundDuration":254625,"Delta":243092064},{"NoteNumber":58,"Velocity":30,"Duration":381938,"SoundDuration":381938,"Delta":243219376},{"NoteNumber":56,"Velocity":30,"Duration":381938,"SoundDuration":381938,"Delta":243219376},{"NoteNumber":53,"Velocity":24,"Duration":254625,"SoundDuration":254625,"Delta":243346689},{"NoteNumber":63,"Velocity":31,"Duration":246204,"SoundDuration":246204,"Delta":243601315},{"NoteNumber":75,"Velocity":31,"Duration":246204,"SoundDuration":246204,"Delta":243601315},{"NoteNumber":51,"Velocity":29,"Duration":246204,"SoundDuration":246204,"Delta":243601315},{"NoteNumber":65,"Velocity":28,"Duration":232734,"SoundDuration":232734,"Delta":243847519},{"NoteNumber":77,"Velocity":28,"Duration":232734,"SoundDuration":232734,"Delta":243847519},{"NoteNumber":67,"Velocity":26,"Duration":232734,"SoundDuration":232734,"Delta":243847519},{"NoteNumber":79,"Velocity":27,"Duration":236836,"SoundDuration":236836,"Delta":244080254},{"NoteNumber":67,"Velocity":26,"Duration":487232,"SoundDuration":487232,"Delta":244080254},{"NoteNumber":70,"Velocity":36,"Duration":375594,"SoundDuration":375594,"Delta":244317090},{"NoteNumber":82,"Velocity":36,"Duration":375594,"SoundDuration":375594,"Delta":244317090},{"NoteNumber":63,"Velocity":24,"Duration":250396,"SoundDuration":250396,"Delta":244567486},{"NoteNumber":70,"Velocity":28,"Duration":375594,"SoundDuration":375594,"Delta":244692685},{"NoteNumber":82,"Velocity":28,"Duration":375594,"SoundDuration":375594,"Delta":244692685},{"NoteNumber":58,"Velocity":24,"Duration":250396,"SoundDuration":250396,"Delta":244817883},{"NoteNumber":51,"Velocity":29,"Duration":232414,"SoundDuration":232414,"Delta":245068279},{"NoteNumber":70,"Velocity":35,"Duration":232414,"SoundDuration":232414,"Delta":245300693},{"NoteNumber":82,"Velocity":35,"Duration":232414,"SoundDuration":232414,"Delta":245300693},{"NoteNumber":68,"Velocity":26,"Duration":665785,"SoundDuration":665785,"Delta":245300693},{"NoteNumber":72,"Velocity":28,"Duration":219330,"SoundDuration":219330,"Delta":245533107},{"NoteNumber":84,"Velocity":28,"Duration":219330,"SoundDuration":219330,"Delta":245533107},{"NoteNumber":74,"Velocity":36,"Duration":214041,"SoundDuration":214041,"Delta":245752438},{"NoteNumber":86,"Velocity":36,"Duration":214041,"SoundDuration":214041,"Delta":245752438},{"NoteNumber":89,"Velocity":30,"Duration":219330,"SoundDuration":219330,"Delta":245966479},{"NoteNumber":77,"Velocity":28,"Duration":219330,"SoundDuration":219330,"Delta":245966479},{"NoteNumber":62,"Velocity":24,"Duration":219330,"SoundDuration":219330,"Delta":245966479},{"NoteNumber":86,"Velocity":36,"Duration":223247,"SoundDuration":223247,"Delta":246185809},{"NoteNumber":74,"Velocity":36,"Duration":223247,"SoundDuration":223247,"Delta":246185809},{"NoteNumber":58,"Velocity":24,"Duration":223247,"SoundDuration":223247,"Delta":246185809},{"NoteNumber":84,"Velocity":36,"Duration":214776,"SoundDuration":214776,"Delta":246409057},{"NoteNumber":72,"Velocity":36,"Duration":214776,"SoundDuration":214776,"Delta":246409057},{"NoteNumber":51,"Velocity":29,"Duration":214776,"SoundDuration":214776,"Delta":246409057},{"NoteNumber":74,"Velocity":32,"Duration":221664,"SoundDuration":221664,"Delta":246623833},{"NoteNumber":86,"Velocity":32,"Duration":221664,"SoundDuration":221664,"Delta":246623833},{"NoteNumber":67,"Velocity":26,"Duration":441480,"SoundDuration":441480,"Delta":246623833},{"NoteNumber":72,"Velocity":31,"Duration":221664,"SoundDuration":221664,"Delta":246845497},{"NoteNumber":84,"Velocity":31,"Duration":221664,"SoundDuration":221664,"Delta":246845497},{"NoteNumber":67,"Velocity":34,"Duration":367076,"SoundDuration":367076,"Delta":247067161},{"NoteNumber":79,"Velocity":34,"Duration":367076,"SoundDuration":367076,"Delta":247067161},{"NoteNumber":63,"Velocity":24,"Duration":244718,"SoundDuration":244718,"Delta":247311879},{"NoteNumber":67,"Velocity":28,"Duration":367076,"SoundDuration":367076,"Delta":247434238},{"NoteNumber":79,"Velocity":28,"Duration":367076,"SoundDuration":367076,"Delta":247434238},{"NoteNumber":58,"Velocity":24,"Duration":244717,"SoundDuration":244717,"Delta":247556597},{"NoteNumber":51,"Velocity":29,"Duration":221664,"SoundDuration":221664,"Delta":247801315},{"NoteNumber":65,"Velocity":35,"Duration":221664,"SoundDuration":221664,"Delta":248022979},{"NoteNumber":77,"Velocity":35,"Duration":221664,"SoundDuration":221664,"Delta":248022979},{"NoteNumber":68,"Velocity":26,"Duration":437635,"SoundDuration":437635,"Delta":248022979},{"NoteNumber":67,"Velocity":32,"Duration":217785,"SoundDuration":217785,"Delta":248244643},{"NoteNumber":79,"Velocity":32,"Duration":217785,"SoundDuration":217785,"Delta":248244643},{"NoteNumber":68,"Velocity":36,"Duration":214041,"SoundDuration":214041,"Delta":248462429},{"NoteNumber":80,"Velocity":36,"Duration":214041,"SoundDuration":214041,"Delta":248462429},{"NoteNumber":82,"Velocity":32,"Duration":218563,"SoundDuration":218563,"Delta":248676470},{"NoteNumber":70,"Velocity":32,"Duration":218563,"SoundDuration":218563,"Delta":248676470},{"NoteNumber":62,"Velocity":24,"Duration":218563,"SoundDuration":218563,"Delta":248676470},{"NoteNumber":80,"Velocity":36,"Duration":224048,"SoundDuration":224048,"Delta":248895034},{"NoteNumber":68,"Velocity":36,"Duration":224048,"SoundDuration":224048,"Delta":248895034},{"NoteNumber":58,"Velocity":24,"Duration":224048,"SoundDuration":224048,"Delta":248895034},{"NoteNumber":79,"Velocity":36,"Duration":216262,"SoundDuration":216262,"Delta":249119082},{"NoteNumber":67,"Velocity":36,"Duration":214460,"SoundDuration":214460,"Delta":249119082},{"NoteNumber":51,"Velocity":29,"Duration":216262,"SoundDuration":216262,"Delta":249119082},{"NoteNumber":65,"Velocity":33,"Duration":226090,"SoundDuration":226090,"Delta":249335345},{"NoteNumber":77,"Velocity":33,"Duration":226090,"SoundDuration":226090,"Delta":249335345},{"NoteNumber":67,"Velocity":26,"Duration":700341,"SoundDuration":700341,"Delta":249335345},{"NoteNumber":63,"Velocity":31,"Duration":226090,"SoundDuration":226090,"Delta":249561436},{"NoteNumber":75,"Velocity":31,"Duration":226090,"SoundDuration":226090,"Delta":249561436},{"NoteNumber":58,"Velocity":34,"Duration":372239,"SoundDuration":372239,"Delta":249787527},{"NoteNumber":70,"Velocity":34,"Duration":372239,"SoundDuration":372239,"Delta":249787527},{"NoteNumber":63,"Velocity":24,"Duration":248159,"SoundDuration":248159,"Delta":250035686},{"NoteNumber":58,"Velocity":28,"Duration":372239,"SoundDuration":372239,"Delta":250159766},{"NoteNumber":70,"Velocity":28,"Duration":372239,"SoundDuration":372239,"Delta":250159766},{"NoteNumber":55,"Velocity":24,"Duration":248159,"SoundDuration":248159,"Delta":250283846},{"NoteNumber":46,"Velocity":29,"Duration":230858,"SoundDuration":230858,"Delta":250532005},{"NoteNumber":62,"Velocity":31,"Duration":1147294,"SoundDuration":1147294,"Delta":250762863},{"NoteNumber":65,"Velocity":35,"Duration":230857,"SoundDuration":230857,"Delta":250762863},{"NoteNumber":56,"Velocity":26,"Duration":681003,"SoundDuration":681003,"Delta":250762863},{"NoteNumber":67,"Velocity":32,"Duration":227444,"SoundDuration":227444,"Delta":250993721},{"NoteNumber":68,"Velocity":36,"Duration":222700,"SoundDuration":222700,"Delta":251221166},{"NoteNumber":70,"Velocity":34,"Duration":225056,"SoundDuration":225056,"Delta":251443867},{"NoteNumber":52,"Velocity":24,"Duration":225056,"SoundDuration":225056,"Delta":251443867},{"NoteNumber":68,"Velocity":36,"Duration":120617,"SoundDuration":120617,"Delta":251668923},{"NoteNumber":53,"Velocity":24,"Duration":241234,"SoundDuration":241234,"Delta":251668923},{"NoteNumber":67,"Velocity":32,"Duration":60308,"SoundDuration":60308,"Delta":251789541},{"NoteNumber":68,"Velocity":33,"Duration":60308,"SoundDuration":60308,"Delta":251849850},{"NoteNumber":63,"Velocity":32,"Duration":452444,"SoundDuration":452444,"Delta":251910158},{"NoteNumber":67,"Velocity":36,"Duration":222700,"SoundDuration":222700,"Delta":251910158},{"NoteNumber":46,"Velocity":29,"Duration":222700,"SoundDuration":222700,"Delta":251910158},{"NoteNumber":65,"Velocity":33,"Duration":229744,"SoundDuration":229744,"Delta":252132859},{"NoteNumber":55,"Velocity":26,"Duration":698989,"SoundDuration":698989,"Delta":252132859},{"NoteNumber":63,"Velocity":31,"Duration":229743,"SoundDuration":229743,"Delta":252362603},{"NoteNumber":58,"Velocity":34,"Duration":237506,"SoundDuration":237506,"Delta":252592347},{"NoteNumber":60,"Velocity":33,"Duration":239502,"SoundDuration":239502,"Delta":252831849},{"NoteNumber":58,"Velocity":24,"Duration":239502,"SoundDuration":239502,"Delta":252831849},{"NoteNumber":63,"Velocity":33,"Duration":239501,"SoundDuration":239501,"Delta":253071351},{"NoteNumber":55,"Velocity":24,"Duration":239501,"SoundDuration":239501,"Delta":253071351},{"NoteNumber":56,"Velocity":32,"Duration":229375,"SoundDuration":229375,"Delta":253310853},{"NoteNumber":62,"Velocity":36,"Duration":231302,"SoundDuration":231302,"Delta":253310853},{"NoteNumber":46,"Velocity":29,"Duration":231302,"SoundDuration":231302,"Delta":253310853},{"NoteNumber":65,"Velocity":33,"Duration":239196,"SoundDuration":239196,"Delta":253542156},{"NoteNumber":56,"Velocity":26,"Duration":735095,"SoundDuration":735095,"Delta":253542156},{"NoteNumber":62,"Velocity":31,"Duration":120636,"SoundDuration":120636,"Delta":253781352},{"NoteNumber":60,"Velocity":27,"Duration":60318,"SoundDuration":60318,"Delta":253901989},{"NoteNumber":62,"Velocity":27,"Duration":60318,"SoundDuration":60318,"Delta":253962308},{"NoteNumber":60,"Velocity":33,"Duration":381938,"SoundDuration":381938,"Delta":254022626},{"NoteNumber":52,"Velocity":24,"Duration":254625,"SoundDuration":254625,"Delta":254277252},{"NoteNumber":58,"Velocity":30,"Duration":381938,"SoundDuration":381938,"Delta":254404565},{"NoteNumber":56,"Velocity":30,"Duration":381938,"SoundDuration":381938,"Delta":254404565},{"NoteNumber":53,"Velocity":24,"Duration":254625,"SoundDuration":254625,"Delta":254531877},{"NoteNumber":58,"Velocity":28,"Duration":252164,"SoundDuration":252164,"Delta":254786503},{"NoteNumber":67,"Velocity":36,"Duration":756493,"SoundDuration":756493,"Delta":254786503},{"NoteNumber":63,"Velocity":30,"Duration":756493,"SoundDuration":756493,"Delta":254786503},{"NoteNumber":39,"Velocity":27,"Duration":756493,"SoundDuration":756493,"Delta":254786503},{"NoteNumber":51,"Velocity":32,"Duration":756493,"SoundDuration":756493,"Delta":254786503},{"NoteNumber":57,"Velocity":33,"Duration":252164,"SoundDuration":252164,"Delta":255038667},{"NoteNumber":58,"Velocity":33,"Duration":252164,"SoundDuration":252164,"Delta":255290832},{"NoteNumber":55,"Velocity":35,"Duration":256410,"SoundDuration":256410,"Delta":255542996},{"NoteNumber":67,"Velocity":37,"Duration":488659,"SoundDuration":488659,"Delta":255799407},{"NoteNumber":63,"Velocity":37,"Duration":488659,"SoundDuration":488659,"Delta":255799407},{"NoteNumber":55,"Velocity":35,"Duration":240500,"SoundDuration":240500,"Delta":255799407},{"NoteNumber":34,"Velocity":25,"Duration":488659,"SoundDuration":488659,"Delta":255799407},{"NoteNumber":46,"Velocity":30,"Duration":488659,"SoundDuration":488659,"Delta":255799407},{"NoteNumber":58,"Velocity":31,"Duration":248159,"SoundDuration":248159,"Delta":256039907},{"NoteNumber":57,"Velocity":28,"Duration":237736,"SoundDuration":237736,"Delta":256288066},{"NoteNumber":62,"Velocity":30,"Duration":702726,"SoundDuration":702726,"Delta":256288066},{"NoteNumber":68,"Velocity":36,"Duration":702726,"SoundDuration":702726,"Delta":256288066},{"NoteNumber":41,"Velocity":27,"Duration":702726,"SoundDuration":702726,"Delta":256288066},{"NoteNumber":53,"Velocity":33,"Duration":702726,"SoundDuration":702726,"Delta":256288066},{"NoteNumber":58,"Velocity":31,"Duration":228154,"SoundDuration":228154,"Delta":256525803},{"NoteNumber":60,"Velocity":31,"Duration":236835,"SoundDuration":236835,"Delta":256753957},{"NoteNumber":61,"Velocity":31,"Duration":239558,"SoundDuration":239558,"Delta":256990793},{"NoteNumber":62,"Velocity":28,"Duration":237736,"SoundDuration":237736,"Delta":257230352},{"NoteNumber":68,"Velocity":36,"Duration":481045,"SoundDuration":481045,"Delta":257230352},{"NoteNumber":34,"Velocity":25,"Duration":481045,"SoundDuration":481045,"Delta":257230352},{"NoteNumber":46,"Velocity":30,"Duration":481045,"SoundDuration":481045,"Delta":257230352},{"NoteNumber":58,"Velocity":30,"Duration":243309,"SoundDuration":243309,"Delta":257468088},{"NoteNumber":58,"Velocity":27,"Duration":240499,"SoundDuration":240499,"Delta":257711397},{"NoteNumber":67,"Velocity":35,"Duration":729978,"SoundDuration":729978,"Delta":257711397},{"NoteNumber":63,"Velocity":28,"Duration":729978,"SoundDuration":729978,"Delta":257711397},{"NoteNumber":39,"Velocity":25,"Duration":729978,"SoundDuration":729978,"Delta":257711397},{"NoteNumber":51,"Velocity":30,"Duration":729978,"SoundDuration":729978,"Delta":257711397},{"NoteNumber":57,"Velocity":33,"Duration":245218,"SoundDuration":245218,"Delta":257951897},{"NoteNumber":58,"Velocity":33,"Duration":244259,"SoundDuration":244259,"Delta":258197115},{"NoteNumber":55,"Velocity":35,"Duration":243309,"SoundDuration":243309,"Delta":258441375},{"NoteNumber":67,"Velocity":37,"Duration":490464,"SoundDuration":490464,"Delta":258684684},{"NoteNumber":63,"Velocity":37,"Duration":490464,"SoundDuration":490464,"Delta":258684684},{"NoteNumber":55,"Velocity":35,"Duration":246204,"SoundDuration":246204,"Delta":258684684},{"NoteNumber":34,"Velocity":25,"Duration":490464,"SoundDuration":490464,"Delta":258684684},{"NoteNumber":46,"Velocity":30,"Duration":490464,"SoundDuration":490464,"Delta":258684684},{"NoteNumber":58,"Velocity":30,"Duration":244259,"SoundDuration":244259,"Delta":258930889},{"NoteNumber":57,"Velocity":27,"Duration":235942,"SoundDuration":235942,"Delta":259175149},{"NoteNumber":62,"Velocity":28,"Duration":702686,"SoundDuration":702686,"Delta":259175149},{"NoteNumber":68,"Velocity":35,"Duration":702686,"SoundDuration":702686,"Delta":259175149},{"NoteNumber":41,"Velocity":25,"Duration":702686,"SoundDuration":702686,"Delta":259175149},{"NoteNumber":53,"Velocity":30,"Duration":702686,"SoundDuration":702686,"Delta":259175149},{"NoteNumber":58,"Velocity":31,"Duration":229007,"SoundDuration":229007,"Delta":259411091},{"NoteNumber":60,"Velocity":31,"Duration":237736,"SoundDuration":237736,"Delta":259640098},{"NoteNumber":61,"Velocity":31,"Duration":241429,"SoundDuration":241429,"Delta":259877835},{"NoteNumber":62,"Velocity":28,"Duration":238644,"SoundDuration":238644,"Delta":260119264},{"NoteNumber":68,"Velocity":36,"Duration":482904,"SoundDuration":482904,"Delta":260119264},{"NoteNumber":34,"Velocity":25,"Duration":482904,"SoundDuration":482904,"Delta":260119264},{"NoteNumber":46,"Velocity":30,"Duration":482904,"SoundDuration":482904,"Delta":260119264},{"NoteNumber":58,"Velocity":30,"Duration":244259,"SoundDuration":244259,"Delta":260357909},{"NoteNumber":58,"Velocity":27,"Duration":240499,"SoundDuration":240499,"Delta":260602169},{"NoteNumber":67,"Velocity":35,"Duration":729978,"SoundDuration":729978,"Delta":260602169},{"NoteNumber":63,"Velocity":28,"Duration":729978,"SoundDuration":729978,"Delta":260602169},{"NoteNumber":39,"Velocity":25,"Duration":729978,"SoundDuration":729978,"Delta":260602169},{"NoteNumber":51,"Velocity":30,"Duration":729978,"SoundDuration":729978,"Delta":260602169},{"NoteNumber":57,"Velocity":31,"Duration":245218,"SoundDuration":245218,"Delta":260842669},{"NoteNumber":58,"Velocity":31,"Duration":244259,"SoundDuration":244259,"Delta":261087887},{"NoteNumber":55,"Velocity":33,"Duration":256322,"SoundDuration":256322,"Delta":261332147},{"NoteNumber":67,"Velocity":36,"Duration":502310,"SoundDuration":502310,"Delta":261588469},{"NoteNumber":63,"Velocity":36,"Duration":502310,"SoundDuration":502310,"Delta":261588469},{"NoteNumber":55,"Velocity":33,"Duration":252164,"SoundDuration":252164,"Delta":261588469},{"NoteNumber":34,"Velocity":23,"Duration":502310,"SoundDuration":502310,"Delta":261588469},{"NoteNumber":46,"Velocity":28,"Duration":502310,"SoundDuration":502310,"Delta":261588469},{"NoteNumber":58,"Velocity":28,"Duration":250145,"SoundDuration":250145,"Delta":261840634},{"NoteNumber":58,"Velocity":25,"Duration":272752,"SoundDuration":272752,"Delta":262090780},{"NoteNumber":67,"Velocity":32,"Duration":850149,"SoundDuration":850149,"Delta":262090780},{"NoteNumber":63,"Velocity":27,"Duration":850149,"SoundDuration":850149,"Delta":262090780},{"NoteNumber":39,"Velocity":23,"Duration":850149,"SoundDuration":850149,"Delta":262090780},{"NoteNumber":51,"Velocity":27,"Duration":850149,"SoundDuration":850149,"Delta":262090780},{"NoteNumber":57,"Velocity":29,"Duration":280925,"SoundDuration":280925,"Delta":262363532},{"NoteNumber":58,"Velocity":28,"Duration":296471,"SoundDuration":296471,"Delta":262644457},{"NoteNumber":55,"Velocity":31,"Duration":319183,"SoundDuration":319183,"Delta":262940929},{"NoteNumber":67,"Velocity":29,"Duration":821403,"SoundDuration":821403,"Delta":263260112},{"NoteNumber":63,"Velocity":29,"Duration":821403,"SoundDuration":821403,"Delta":263260112},{"NoteNumber":55,"Velocity":27,"Duration":355492,"SoundDuration":355492,"Delta":263260112},{"NoteNumber":34,"Velocity":19,"Duration":821403,"SoundDuration":821403,"Delta":263260112},{"NoteNumber":46,"Velocity":24,"Duration":821403,"SoundDuration":821403,"Delta":263260112},{"NoteNumber":58,"Velocity":23,"Duration":465911,"SoundDuration":465911,"Delta":263615604},{"NoteNumber":55,"Velocity":22,"Duration":2335842,"SoundDuration":2335842,"Delta":264081515},{"NoteNumber":63,"Velocity":22,"Duration":2333679,"SoundDuration":2333679,"Delta":264081515},{"NoteNumber":67,"Velocity":27,"Duration":2335842,"SoundDuration":2335842,"Delta":264081515},{"NoteNumber":39,"Velocity":20,"Duration":2335842,"SoundDuration":2335842,"Delta":264081515},{"NoteNumber":51,"Velocity":25,"Duration":2335842,"SoundDuration":2335842,"Delta":264081515},{"NoteNumber":75,"Velocity":27,"Duration":778614,"SoundDuration":778614,"Delta":266417357},{"NoteNumber":79,"Velocity":27,"Duration":778614,"SoundDuration":778614,"Delta":266417357},{"NoteNumber":87,"Velocity":33,"Duration":778614,"SoundDuration":778614,"Delta":266417357},{"NoteNumber":51,"Velocity":25,"Duration":778614,"SoundDuration":778614,"Delta":266417357},{"NoteNumber":63,"Velocity":30,"Duration":778614,"SoundDuration":778614,"Delta":266417357},{"NoteNumber":94,"Velocity":27,"Duration":1557228,"SoundDuration":1557228,"Delta":267195971},{"NoteNumber":87,"Velocity":27,"Duration":1557228,"SoundDuration":1557228,"Delta":267195971},{"NoteNumber":91,"Velocity":27,"Duration":1557228,"SoundDuration":1557228,"Delta":267195971},{"NoteNumber":99,"Velocity":33,"Duration":1557228,"SoundDuration":1557228,"Delta":267195971},{"NoteNumber":39,"Velocity":25,"Duration":1557228,"SoundDuration":1557228,"Delta":267195971},{"NoteNumber":51,"Velocity":30,"Duration":1557228,"SoundDuration":1557228,"Delta":267195971}],"license":{"name":"Creative Commons Attribution-ShareAlike 3.0 Germany","url":"http://creativecommons.org/licenses/by-sa/3.0/de/deed.en","text":"The MIDI, audio (MP3, OGG) and video files of Bernd Krueger are licensed under the cc-by-sa Germany License. This means that you can use and adapt the files, as long as you attribute the copyright holder.\n\nName: Bernd Krueger\nSource: http://www.piano-midi.de\n\nThe distribution or public playback of the files is only allowed under identical license conditions.\n\nThe scores are open source.","attribution":"MIDI files by Bernd Krueger (piano-midi.de)","attributionUrl":"http://www.piano-midi.de"}}