{"title":"Malaguena","artist":"Albéniz","durationMs":172764,"midiSha256":"34b4931de9ce28e16a60b70ecaa582265b89b473ef6a00305b75cbbefcef077a","midiObject":[{"NoteNumber":71,"Velocity":58,"Duration":126050,"SoundDuration":126050,"Delta":0},{"NoteNumber":59,"Velocity":49,"Duration":126050,"SoundDuration":126050,"Delta":0},{"NoteNumber":75,"Velocity":55,"Duration":126050,"SoundDuration":126050,"Delta":252100},{"NoteNumber":63,"Velocity":46,"Duration":126050,"SoundDuration":126050,"Delta":252100},{"NoteNumber":78,"Velocity":55,"Duration":122950,"SoundDuration":122950,"Delta":504201},{"NoteNumber":66,"Velocity":46,"Duration":122950,"SoundDuration":122950,"Delta":504201},{"NoteNumber":76,"Velocity":59,"Duration":83660,"SoundDuration":83660,"Delta":750103},{"NoteNumber":64,"Velocity":49,"Duration":83660,"SoundDuration":83660,"Delta":750103},{"NoteNumber":78,"Velocity":55,"Duration":83660,"SoundDuration":83660,"Delta":833764},{"NoteNumber":66,"Velocity":46,"Duration":83660,"SoundDuration":83660,"Delta":833764},{"NoteNumber":76,"Velocity":55,"Duration":83661,"SoundDuration":83661,"Delta":917425},{"NoteNumber":64,"Velocity":46,"Duration":83661,"SoundDuration":83661,"Delta":917425},{"NoteNumber":72,"Velocity":59,"Duration":123803,"SoundDuration":123803,"Delta":1001086},{"NoteNumber":60,"Velocity":49,"Duration":123803,"SoundDuration":123803,"Delta":1001086},{"NoteNumber":81,"Velocity":55,"Duration":129589,"SoundDuration":129589,"Delta":1248693},{"NoteNumber":69,"Velocity":46,"Duration":129589,"SoundDuration":129589,"Delta":1248693},{"NoteNumber":71,"Velocity":58,"Duration":126050,"SoundDuration":126050,"Delta":1507872},{"NoteNumber":59,"Velocity":49,"Duration":126050,"SoundDuration":126050,"Delta":1507872},{"NoteNumber":75,"Velocity":55,"Duration":126050,"SoundDuration":126050,"Delta":1759973},{"NoteNumber":63,"Velocity":46,"Duration":126050,"SoundDuration":126050,"Delta":1759973},{"NoteNumber":78,"Velocity":55,"Duration":126050,"SoundDuration":126050,"Delta":2012074},{"NoteNumber":66,"Velocity":46,"Duration":126050,"SoundDuration":126050,"Delta":2012074},{"NoteNumber":76,"Velocity":59,"Duration":84033,"SoundDuration":84033,"Delta":2264175},{"NoteNumber":64,"Velocity":49,"Duration":84033,"SoundDuration":84033,"Delta":2264175},{"NoteNumber":78,"Velocity":55,"Duration":84033,"SoundDuration":84033,"Delta":2348209},{"NoteNumber":66,"Velocity":46,"Duration":84033,"SoundDuration":84033,"Delta":2348209},{"NoteNumber":76,"Velocity":55,"Duration":84033,"SoundDuration":84033,"Delta":2432242},{"NoteNumber":64,"Velocity":46,"Duration":84033,"SoundDuration":84033,"Delta":2432242},{"NoteNumber":72,"Velocity":59,"Duration":124916,"SoundDuration":124916,"Delta":2516276},{"NoteNumber":60,"Velocity":49,"Duration":124916,"SoundDuration":124916,"Delta":2516276},{"NoteNumber":81,"Velocity":53,"Duration":128391,"SoundDuration":128391,"Delta":2766110},{"NoteNumber":69,"Velocity":46,"Duration":128391,"SoundDuration":128391,"Delta":2766110},{"NoteNumber":59,"Velocity":49,"Duration":64195,"SoundDuration":64195,"Delta":2958697},{"NoteNumber":71,"Velocity":58,"Duration":126050,"SoundDuration":126050,"Delta":3022893},{"NoteNumber":66,"Velocity":49,"Duration":2524702,"SoundDuration":2524702,"Delta":3022893},{"NoteNumber":75,"Velocity":55,"Duration":126050,"SoundDuration":126050,"Delta":3274994},{"NoteNumber":78,"Velocity":55,"Duration":126050,"SoundDuration":126050,"Delta":3527095},{"NoteNumber":76,"Velocity":59,"Duration":84033,"SoundDuration":84033,"Delta":3779196},{"NoteNumber":78,"Velocity":55,"Duration":84033,"SoundDuration":84033,"Delta":3863230},{"NoteNumber":76,"Velocity":55,"Duration":84033,"SoundDuration":84033,"Delta":3947263},{"NoteNumber":72,"Velocity":59,"Duration":124357,"SoundDuration":124357,"Delta":4031297},{"NoteNumber":81,"Velocity":55,"Duration":129589,"SoundDuration":129589,"Delta":4280012},{"NoteNumber":71,"Velocity":58,"Duration":126050,"SoundDuration":126050,"Delta":4539192},{"NoteNumber":75,"Velocity":55,"Duration":126050,"SoundDuration":126050,"Delta":4791293},{"NoteNumber":78,"Velocity":55,"Duration":126050,"SoundDuration":126050,"Delta":5043394},{"NoteNumber":76,"Velocity":59,"Duration":84033,"SoundDuration":84033,"Delta":5295495},{"NoteNumber":78,"Velocity":55,"Duration":84033,"SoundDuration":84033,"Delta":5379528},{"NoteNumber":76,"Velocity":55,"Duration":84033,"SoundDuration":84033,"Delta":5463562},{"NoteNumber":72,"Velocity":59,"Duration":127790,"SoundDuration":127790,"Delta":5547595},{"NoteNumber":67,"Velocity":52,"Duration":255684,"SoundDuration":255684,"Delta":5555050},{"NoteNumber":81,"Velocity":55,"Duration":129589,"SoundDuration":129589,"Delta":5803176},{"NoteNumber":66,"Velocity":49,"Duration":258766,"SoundDuration":258766,"Delta":5818294},{"NoteNumber":71,"Velocity":58,"Duration":126050,"SoundDuration":126050,"Delta":6062355},{"NoteNumber":69,"Velocity":49,"Duration":504202,"SoundDuration":504202,"Delta":6062355},{"NoteNumber":75,"Velocity":55,"Duration":126050,"SoundDuration":126050,"Delta":6314456},{"NoteNumber":78,"Velocity":55,"Duration":128198,"SoundDuration":128198,"Delta":6566557},{"NoteNumber":67,"Velocity":49,"Duration":85102,"SoundDuration":85102,"Delta":6566557},{"NoteNumber":69,"Velocity":45,"Duration":86599,"SoundDuration":86599,"Delta":6651659},{"NoteNumber":67,"Velocity":45,"Duration":88248,"SoundDuration":88248,"Delta":6738259},{"NoteNumber":76,"Velocity":59,"Duration":84033,"SoundDuration":84033,"Delta":6826507},{"NoteNumber":66,"Velocity":49,"Duration":3037101,"SoundDuration":3037101,"Delta":6826507},{"NoteNumber":78,"Velocity":55,"Duration":84033,"SoundDuration":84033,"Delta":6910540},{"NoteNumber":76,"Velocity":55,"Duration":84033,"SoundDuration":84033,"Delta":6994574},{"NoteNumber":72,"Velocity":59,"Duration":126050,"SoundDuration":126050,"Delta":7078608},{"NoteNumber":81,"Velocity":55,"Duration":129589,"SoundDuration":129589,"Delta":7330709},{"NoteNumber":71,"Velocity":58,"Duration":126050,"SoundDuration":126050,"Delta":7589888},{"NoteNumber":75,"Velocity":55,"Duration":126050,"SoundDuration":126050,"Delta":7841989},{"NoteNumber":78,"Velocity":55,"Duration":126050,"SoundDuration":126050,"Delta":8094090},{"NoteNumber":76,"Velocity":59,"Duration":84033,"SoundDuration":84033,"Delta":8346191},{"NoteNumber":78,"Velocity":55,"Duration":84033,"SoundDuration":84033,"Delta":8430225},{"NoteNumber":76,"Velocity":55,"Duration":84033,"SoundDuration":84033,"Delta":8514259},{"NoteNumber":72,"Velocity":59,"Duration":124916,"SoundDuration":124916,"Delta":8598292},{"NoteNumber":81,"Velocity":55,"Duration":129589,"SoundDuration":129589,"Delta":8848126},{"NoteNumber":71,"Velocity":58,"Duration":126050,"SoundDuration":126050,"Delta":9107305},{"NoteNumber":75,"Velocity":55,"Duration":126050,"SoundDuration":126050,"Delta":9359406},{"NoteNumber":78,"Velocity":55,"Duration":126050,"SoundDuration":126050,"Delta":9611507},{"NoteNumber":72,"Velocity":63,"Duration":126050,"SoundDuration":126050,"Delta":9863608},{"NoteNumber":64,"Velocity":49,"Duration":631991,"SoundDuration":631991,"Delta":9863608},{"NoteNumber":79,"Velocity":58,"Duration":126050,"SoundDuration":126050,"Delta":10115709},{"NoteNumber":84,"Velocity":59,"Duration":127789,"SoundDuration":127789,"Delta":10367810},{"NoteNumber":66,"Velocity":51,"Duration":63895,"SoundDuration":63895,"Delta":10495600},{"NoteNumber":64,"Velocity":53,"Duration":63895,"SoundDuration":63895,"Delta":10559495},{"NoteNumber":78,"Velocity":71,"Duration":126050,"SoundDuration":126050,"Delta":10623390},{"NoteNumber":62,"Velocity":56,"Duration":756303,"SoundDuration":756303,"Delta":10623390},{"NoteNumber":83,"Velocity":61,"Duration":126050,"SoundDuration":126050,"Delta":10875491},{"NoteNumber":90,"Velocity":63,"Duration":126050,"SoundDuration":126050,"Delta":11127592},{"NoteNumber":88,"Velocity":74,"Duration":255402,"SoundDuration":255402,"Delta":11379693},{"NoteNumber":60,"Velocity":60,"Duration":775924,"SoundDuration":775924,"Delta":11379693},{"NoteNumber":66,"Velocity":60,"Duration":775924,"SoundDuration":775924,"Delta":11379693},{"NoteNumber":93,"Velocity":75,"Duration":258581,"SoundDuration":258581,"Delta":11635096},{"NoteNumber":100,"Velocity":80,"Duration":261941,"SoundDuration":261941,"Delta":11893677},{"NoteNumber":87,"Velocity":67,"Duration":328976,"SoundDuration":328976,"Delta":12089800},{"NoteNumber":95,"Velocity":74,"Duration":296119,"SoundDuration":296119,"Delta":12122657},{"NoteNumber":102,"Velocity":88,"Duration":263158,"SoundDuration":263158,"Delta":12155618},{"NoteNumber":59,"Velocity":70,"Duration":3049420,"SoundDuration":3049420,"Delta":12155618},{"NoteNumber":75,"Velocity":72,"Duration":127118,"SoundDuration":127118,"Delta":12418776},{"NoteNumber":69,"Velocity":61,"Duration":127118,"SoundDuration":127118,"Delta":12418776},{"NoteNumber":78,"Velocity":71,"Duration":122950,"SoundDuration":122950,"Delta":12673014},{"NoteNumber":66,"Velocity":61,"Duration":122950,"SoundDuration":122950,"Delta":12673014},{"NoteNumber":76,"Velocity":77,"Duration":83681,"SoundDuration":83681,"Delta":12918915},{"NoteNumber":67,"Velocity":71,"Duration":125522,"SoundDuration":125522,"Delta":12918915},{"NoteNumber":78,"Velocity":70,"Duration":83681,"SoundDuration":83681,"Delta":13002597},{"NoteNumber":76,"Velocity":69,"Duration":83682,"SoundDuration":83682,"Delta":13086279},{"NoteNumber":72,"Velocity":77,"Duration":124357,"SoundDuration":124357,"Delta":13169961},{"NoteNumber":64,"Velocity":64,"Duration":124357,"SoundDuration":124357,"Delta":13169961},{"NoteNumber":81,"Velocity":71,"Duration":129589,"SoundDuration":129589,"Delta":13418676},{"NoteNumber":67,"Velocity":64,"Duration":129589,"SoundDuration":129589,"Delta":13418676},{"NoteNumber":71,"Velocity":79,"Duration":134613,"SoundDuration":134613,"Delta":13677856},{"NoteNumber":66,"Velocity":69,"Duration":134613,"SoundDuration":134613,"Delta":13677856},{"NoteNumber":75,"Velocity":72,"Duration":126050,"SoundDuration":126050,"Delta":13947083},{"NoteNumber":69,"Velocity":61,"Duration":126050,"SoundDuration":126050,"Delta":13947083},{"NoteNumber":78,"Velocity":71,"Duration":123456,"SoundDuration":123456,"Delta":14199184},{"NoteNumber":66,"Velocity":61,"Duration":123456,"SoundDuration":123456,"Delta":14199184},{"NoteNumber":76,"Velocity":77,"Duration":83681,"SoundDuration":83681,"Delta":14446098},{"NoteNumber":67,"Velocity":69,"Duration":125522,"SoundDuration":125522,"Delta":14446098},{"NoteNumber":78,"Velocity":70,"Duration":83681,"SoundDuration":83681,"Delta":14529780},{"NoteNumber":76,"Velocity":69,"Duration":83682,"SoundDuration":83682,"Delta":14613462},{"NoteNumber":72,"Velocity":77,"Duration":124357,"SoundDuration":124357,"Delta":14697144},{"NoteNumber":64,"Velocity":64,"Duration":124357,"SoundDuration":124357,"Delta":14697144},{"NoteNumber":81,"Velocity":71,"Duration":129589,"SoundDuration":129589,"Delta":14945859},{"NoteNumber":67,"Velocity":64,"Duration":129589,"SoundDuration":129589,"Delta":14945859},{"NoteNumber":83,"Velocity":74,"Duration":248715,"SoundDuration":248715,"Delta":15205038},{"NoteNumber":78,"Velocity":74,"Duration":248715,"SoundDuration":248715,"Delta":15205038},{"NoteNumber":63,"Velocity":62,"Duration":248715,"SoundDuration":248715,"Delta":15205038},{"NoteNumber":80,"Velocity":67,"Duration":255580,"SoundDuration":255580,"Delta":15453753},{"NoteNumber":77,"Velocity":67,"Duration":255580,"SoundDuration":255580,"Delta":15453753},{"NoteNumber":62,"Velocity":61,"Duration":255580,"SoundDuration":255580,"Delta":15453753},{"NoteNumber":81,"Velocity":71,"Duration":249833,"SoundDuration":249833,"Delta":15709333},{"NoteNumber":76,"Velocity":71,"Duration":249833,"SoundDuration":249833,"Delta":15709333},{"NoteNumber":61,"Velocity":59,"Duration":249833,"SoundDuration":249833,"Delta":15709333},{"NoteNumber":78,"Velocity":67,"Duration":254431,"SoundDuration":254431,"Delta":15959167},{"NoteNumber":75,"Velocity":67,"Duration":254431,"SoundDuration":254431,"Delta":15959167},{"NoteNumber":60,"Velocity":53,"Duration":254431,"SoundDuration":254431,"Delta":15959167},{"NoteNumber":74,"Velocity":70,"Duration":252100,"SoundDuration":252100,"Delta":16213598},{"NoteNumber":79,"Velocity":70,"Duration":252100,"SoundDuration":252100,"Delta":16213598},{"NoteNumber":59,"Velocity":56,"Duration":252100,"SoundDuration":252100,"Delta":16213598},{"NoteNumber":72,"Velocity":58,"Duration":256783,"SoundDuration":256783,"Delta":16465699},{"NoteNumber":74,"Velocity":58,"Duration":256783,"SoundDuration":256783,"Delta":16465699},{"NoteNumber":54,"Velocity":50,"Duration":256783,"SoundDuration":256783,"Delta":16465699},{"NoteNumber":71,"Velocity":69,"Duration":123456,"SoundDuration":123456,"Delta":16722483},{"NoteNumber":74,"Velocity":69,"Duration":123456,"SoundDuration":123456,"Delta":16722483},{"NoteNumber":55,"Velocity":55,"Duration":123456,"SoundDuration":123456,"Delta":16722483},{"NoteNumber":67,"Velocity":63,"Duration":125523,"SoundDuration":125523,"Delta":16969396},{"NoteNumber":59,"Velocity":50,"Duration":125523,"SoundDuration":125523,"Delta":16969396},{"NoteNumber":71,"Velocity":60,"Duration":125523,"SoundDuration":125523,"Delta":17220442},{"NoteNumber":55,"Velocity":50,"Duration":125523,"SoundDuration":125523,"Delta":17220442},{"NoteNumber":69,"Velocity":63,"Duration":61901,"SoundDuration":61901,"Delta":17471488},{"NoteNumber":60,"Velocity":61,"Duration":123803,"SoundDuration":123803,"Delta":17471488},{"NoteNumber":69,"Velocity":58,"Duration":61901,"SoundDuration":61901,"Delta":17595291},{"NoteNumber":76,"Velocity":64,"Duration":123803,"SoundDuration":123803,"Delta":17719095},{"NoteNumber":66,"Velocity":57,"Duration":123803,"SoundDuration":123803,"Delta":17719095},{"NoteNumber":76,"Velocity":59,"Duration":126050,"SoundDuration":126050,"Delta":17966701},{"NoteNumber":81,"Velocity":59,"Duration":126050,"SoundDuration":126050,"Delta":17966701},{"NoteNumber":60,"Velocity":57,"Duration":126050,"SoundDuration":126050,"Delta":17966701},{"NoteNumber":59,"Velocity":49,"Duration":69328,"SoundDuration":69328,"Delta":18155777},{"NoteNumber":71,"Velocity":58,"Duration":126050,"SoundDuration":126050,"Delta":18225106},{"NoteNumber":66,"Velocity":49,"Duration":2524702,"SoundDuration":2524702,"Delta":18225106},{"NoteNumber":75,"Velocity":55,"Duration":126050,"SoundDuration":126050,"Delta":18477207},{"NoteNumber":78,"Velocity":55,"Duration":126050,"SoundDuration":126050,"Delta":18729308},{"NoteNumber":76,"Velocity":59,"Duration":84033,"SoundDuration":84033,"Delta":18981409},{"NoteNumber":78,"Velocity":55,"Duration":84033,"SoundDuration":84033,"Delta":19065443},{"NoteNumber":76,"Velocity":55,"Duration":84033,"SoundDuration":84033,"Delta":19149476},{"NoteNumber":72,"Velocity":59,"Duration":124357,"SoundDuration":124357,"Delta":19233510},{"NoteNumber":81,"Velocity":55,"Duration":129589,"SoundDuration":129589,"Delta":19482225},{"NoteNumber":71,"Velocity":58,"Duration":126050,"SoundDuration":126050,"Delta":19741404},{"NoteNumber":75,"Velocity":55,"Duration":126050,"SoundDuration":126050,"Delta":19993505},{"NoteNumber":78,"Velocity":55,"Duration":126050,"SoundDuration":126050,"Delta":20245606},{"NoteNumber":76,"Velocity":59,"Duration":84033,"SoundDuration":84033,"Delta":20497707},{"NoteNumber":78,"Velocity":55,"Duration":84033,"SoundDuration":84033,"Delta":20581741},{"NoteNumber":76,"Velocity":55,"Duration":84033,"SoundDuration":84033,"Delta":20665775},{"NoteNumber":72,"Velocity":59,"Duration":127790,"SoundDuration":127790,"Delta":20749808},{"NoteNumber":67,"Velocity":52,"Duration":255880,"SoundDuration":255880,"Delta":20749808},{"NoteNumber":81,"Velocity":55,"Duration":129589,"SoundDuration":129589,"Delta":21005689},{"NoteNumber":66,"Velocity":49,"Duration":259179,"SoundDuration":259179,"Delta":21005689},{"NoteNumber":71,"Velocity":58,"Duration":126050,"SoundDuration":126050,"Delta":21264869},{"NoteNumber":69,"Velocity":49,"Duration":504201,"SoundDuration":504201,"Delta":21264869},{"NoteNumber":75,"Velocity":55,"Duration":126050,"SoundDuration":126050,"Delta":21516970},{"NoteNumber":78,"Velocity":55,"Duration":128198,"SoundDuration":128198,"Delta":21769071},{"NoteNumber":67,"Velocity":49,"Duration":85102,"SoundDuration":85102,"Delta":21769071},{"NoteNumber":69,"Velocity":45,"Duration":86599,"SoundDuration":86599,"Delta":21854173},{"NoteNumber":67,"Velocity":45,"Duration":88248,"SoundDuration":88248,"Delta":21940772},{"NoteNumber":76,"Velocity":59,"Duration":84033,"SoundDuration":84033,"Delta":22029021},{"NoteNumber":66,"Velocity":49,"Duration":3037101,"SoundDuration":3037101,"Delta":22029021},{"NoteNumber":78,"Velocity":55,"Duration":84033,"SoundDuration":84033,"Delta":22113054},{"NoteNumber":76,"Velocity":55,"Duration":84033,"SoundDuration":84033,"Delta":22197088},{"NoteNumber":72,"Velocity":59,"Duration":126050,"SoundDuration":126050,"Delta":22281122},{"NoteNumber":81,"Velocity":55,"Duration":129589,"SoundDuration":129589,"Delta":22533223},{"NoteNumber":71,"Velocity":58,"Duration":126050,"SoundDuration":126050,"Delta":22792402},{"NoteNumber":75,"Velocity":55,"Duration":126050,"SoundDuration":126050,"Delta":23044503},{"NoteNumber":78,"Velocity":55,"Duration":126050,"SoundDuration":126050,"Delta":23296604},{"NoteNumber":76,"Velocity":59,"Duration":84033,"SoundDuration":84033,"Delta":23548705},{"NoteNumber":78,"Velocity":55,"Duration":84033,"SoundDuration":84033,"Delta":23632739},{"NoteNumber":76,"Velocity":55,"Duration":84033,"SoundDuration":84033,"Delta":23716772},{"NoteNumber":72,"Velocity":59,"Duration":124916,"SoundDuration":124916,"Delta":23800806},{"NoteNumber":81,"Velocity":55,"Duration":129589,"SoundDuration":129589,"Delta":24050639},{"NoteNumber":71,"Velocity":58,"Duration":126050,"SoundDuration":126050,"Delta":24309819},{"NoteNumber":75,"Velocity":55,"Duration":126050,"SoundDuration":126050,"Delta":24561920},{"NoteNumber":78,"Velocity":55,"Duration":126050,"SoundDuration":126050,"Delta":24814021},{"NoteNumber":72,"Velocity":63,"Duration":126050,"SoundDuration":126050,"Delta":25066122},{"NoteNumber":64,"Velocity":49,"Duration":631992,"SoundDuration":631992,"Delta":25066122},{"NoteNumber":79,"Velocity":58,"Duration":126050,"SoundDuration":126050,"Delta":25318223},{"NoteNumber":84,"Velocity":59,"Duration":127790,"SoundDuration":127790,"Delta":25570324},{"NoteNumber":66,"Velocity":51,"Duration":63894,"SoundDuration":63894,"Delta":25698114},{"NoteNumber":64,"Velocity":53,"Duration":63894,"SoundDuration":63894,"Delta":25762009},{"NoteNumber":78,"Velocity":71,"Duration":126050,"SoundDuration":126050,"Delta":25825904},{"NoteNumber":62,"Velocity":56,"Duration":756302,"SoundDuration":756302,"Delta":25825904},{"NoteNumber":83,"Velocity":61,"Duration":126050,"SoundDuration":126050,"Delta":26078005},{"NoteNumber":90,"Velocity":63,"Duration":126050,"SoundDuration":126050,"Delta":26330106},{"NoteNumber":88,"Velocity":74,"Duration":255402,"SoundDuration":255402,"Delta":26582207},{"NoteNumber":60,"Velocity":60,"Duration":775924,"SoundDuration":775924,"Delta":26582207},{"NoteNumber":66,"Velocity":60,"Duration":775924,"SoundDuration":775924,"Delta":26582207},{"NoteNumber":93,"Velocity":75,"Duration":258581,"SoundDuration":258581,"Delta":26837609},{"NoteNumber":100,"Velocity":80,"Duration":261941,"SoundDuration":261941,"Delta":27096191},{"NoteNumber":87,"Velocity":67,"Duration":325559,"SoundDuration":325559,"Delta":27292313},{"NoteNumber":95,"Velocity":74,"Duration":292701,"SoundDuration":292701,"Delta":27325170},{"NoteNumber":102,"Velocity":88,"Duration":259740,"SoundDuration":259740,"Delta":27358132},{"NoteNumber":59,"Velocity":70,"Duration":2974187,"SoundDuration":2974187,"Delta":27358132},{"NoteNumber":75,"Velocity":72,"Duration":127659,"SoundDuration":127659,"Delta":27617872},{"NoteNumber":69,"Velocity":61,"Duration":127659,"SoundDuration":127659,"Delta":27617872},{"NoteNumber":78,"Velocity":71,"Duration":126050,"SoundDuration":126050,"Delta":27873191},{"NoteNumber":66,"Velocity":61,"Duration":126050,"SoundDuration":126050,"Delta":27873191},{"NoteNumber":76,"Velocity":77,"Duration":84033,"SoundDuration":84033,"Delta":28125292},{"NoteNumber":67,"Velocity":71,"Duration":126050,"SoundDuration":126050,"Delta":28125292},{"NoteNumber":78,"Velocity":70,"Duration":84033,"SoundDuration":84033,"Delta":28209326},{"NoteNumber":76,"Velocity":69,"Duration":84033,"SoundDuration":84033,"Delta":28293360},{"NoteNumber":72,"Velocity":77,"Duration":124357,"SoundDuration":124357,"Delta":28377393},{"NoteNumber":64,"Velocity":64,"Duration":124357,"SoundDuration":124357,"Delta":28377393},{"NoteNumber":81,"Velocity":71,"Duration":129589,"SoundDuration":129589,"Delta":28626108},{"NoteNumber":67,"Velocity":64,"Duration":129589,"SoundDuration":129589,"Delta":28626108},{"NoteNumber":71,"Velocity":79,"Duration":134613,"SoundDuration":134613,"Delta":28885288},{"NoteNumber":66,"Velocity":69,"Duration":134613,"SoundDuration":134613,"Delta":28885288},{"NoteNumber":75,"Velocity":72,"Duration":126050,"SoundDuration":126050,"Delta":29154515},{"NoteNumber":69,"Velocity":61,"Duration":126050,"SoundDuration":126050,"Delta":29154515},{"NoteNumber":78,"Velocity":71,"Duration":126050,"SoundDuration":126050,"Delta":29406616},{"NoteNumber":66,"Velocity":61,"Duration":126050,"SoundDuration":126050,"Delta":29406616},{"NoteNumber":76,"Velocity":77,"Duration":84033,"SoundDuration":84033,"Delta":29658717},{"NoteNumber":67,"Velocity":69,"Duration":126050,"SoundDuration":126050,"Delta":29658717},{"NoteNumber":78,"Velocity":70,"Duration":84033,"SoundDuration":84033,"Delta":29742751},{"NoteNumber":76,"Velocity":69,"Duration":84033,"SoundDuration":84033,"Delta":29826785},{"NoteNumber":72,"Velocity":77,"Duration":124357,"SoundDuration":124357,"Delta":29910818},{"NoteNumber":64,"Velocity":64,"Duration":124357,"SoundDuration":124357,"Delta":29910818},{"NoteNumber":81,"Velocity":71,"Duration":129589,"SoundDuration":129589,"Delta":30159533},{"NoteNumber":67,"Velocity":64,"Duration":129589,"SoundDuration":129589,"Delta":30159533},{"NoteNumber":59,"Velocity":62,"Duration":64794,"SoundDuration":64794,"Delta":30353918},{"NoteNumber":71,"Velocity":82,"Duration":773429,"SoundDuration":773429,"Delta":30418713},{"NoteNumber":75,"Velocity":75,"Duration":126050,"SoundDuration":126050,"Delta":30687940},{"NoteNumber":78,"Velocity":74,"Duration":126050,"SoundDuration":126050,"Delta":30940041},{"NoteNumber":76,"Velocity":56,"Duration":759995,"SoundDuration":759995,"Delta":31192142},{"NoteNumber":84,"Velocity":72,"Duration":84033,"SoundDuration":84033,"Delta":31192142},{"NoteNumber":69,"Velocity":61,"Duration":252100,"SoundDuration":252100,"Delta":31192142},{"NoteNumber":86,"Velocity":66,"Duration":84033,"SoundDuration":84033,"Delta":31276176},{"NoteNumber":84,"Velocity":66,"Duration":84033,"SoundDuration":84033,"Delta":31360210},{"NoteNumber":81,"Velocity":73,"Duration":124357,"SoundDuration":124357,"Delta":31444243},{"NoteNumber":66,"Velocity":56,"Duration":248715,"SoundDuration":248715,"Delta":31444243},{"NoteNumber":84,"Velocity":67,"Duration":129589,"SoundDuration":129589,"Delta":31692958},{"NoteNumber":69,"Velocity":55,"Duration":259179,"SoundDuration":259179,"Delta":31692958},{"NoteNumber":71,"Velocity":82,"Duration":773429,"SoundDuration":773429,"Delta":31952138},{"NoteNumber":75,"Velocity":75,"Duration":126050,"SoundDuration":126050,"Delta":32221365},{"NoteNumber":78,"Velocity":74,"Duration":126050,"SoundDuration":126050,"Delta":32473466},{"NoteNumber":76,"Velocity":56,"Duration":759995,"SoundDuration":759995,"Delta":32725567},{"NoteNumber":84,"Velocity":72,"Duration":84033,"SoundDuration":84033,"Delta":32725567},{"NoteNumber":69,"Velocity":61,"Duration":252101,"SoundDuration":252101,"Delta":32725567},{"NoteNumber":86,"Velocity":66,"Duration":84033,"SoundDuration":84033,"Delta":32809601},{"NoteNumber":84,"Velocity":66,"Duration":84033,"SoundDuration":84033,"Delta":32893635},{"NoteNumber":81,"Velocity":73,"Duration":124357,"SoundDuration":124357,"Delta":32977668},{"NoteNumber":66,"Velocity":56,"Duration":248714,"SoundDuration":248714,"Delta":32977668},{"NoteNumber":84,"Velocity":67,"Duration":129589,"SoundDuration":129589,"Delta":33226383},{"NoteNumber":69,"Velocity":55,"Duration":259179,"SoundDuration":259179,"Delta":33226383},{"NoteNumber":71,"Velocity":62,"Duration":248714,"SoundDuration":248714,"Delta":33485563},{"NoteNumber":77,"Velocity":67,"Duration":255580,"SoundDuration":255580,"Delta":33734278},{"NoteNumber":80,"Velocity":67,"Duration":255580,"SoundDuration":255580,"Delta":33734278},{"NoteNumber":74,"Velocity":61,"Duration":255580,"SoundDuration":255580,"Delta":33734278},{"NoteNumber":81,"Velocity":71,"Duration":249833,"SoundDuration":249833,"Delta":33989858},{"NoteNumber":76,"Velocity":71,"Duration":249833,"SoundDuration":249833,"Delta":33989858},{"NoteNumber":73,"Velocity":59,"Duration":249833,"SoundDuration":249833,"Delta":33989858},{"NoteNumber":75,"Velocity":67,"Duration":254431,"SoundDuration":254431,"Delta":34239691},{"NoteNumber":78,"Velocity":67,"Duration":254431,"SoundDuration":254431,"Delta":34239691},{"NoteNumber":72,"Velocity":53,"Duration":254431,"SoundDuration":254431,"Delta":34239691},{"NoteNumber":74,"Velocity":70,"Duration":252101,"SoundDuration":252101,"Delta":34494123},{"NoteNumber":79,"Velocity":70,"Duration":252101,"SoundDuration":252101,"Delta":34494123},{"NoteNumber":71,"Velocity":56,"Duration":252101,"SoundDuration":252101,"Delta":34494123},{"NoteNumber":72,"Velocity":58,"Duration":256783,"SoundDuration":256783,"Delta":34746224},{"NoteNumber":74,"Velocity":58,"Duration":256783,"SoundDuration":256783,"Delta":34746224},{"NoteNumber":66,"Velocity":50,"Duration":256783,"SoundDuration":256783,"Delta":34746224},{"NoteNumber":71,"Velocity":71,"Duration":128391,"SoundDuration":128391,"Delta":35003007},{"NoteNumber":74,"Velocity":71,"Duration":128391,"SoundDuration":128391,"Delta":35003007},{"NoteNumber":55,"Velocity":57,"Duration":128391,"SoundDuration":128391,"Delta":35003007},{"NoteNumber":67,"Velocity":64,"Duration":128391,"SoundDuration":128391,"Delta":35259791},{"NoteNumber":59,"Velocity":51,"Duration":128391,"SoundDuration":128391,"Delta":35259791},{"NoteNumber":71,"Velocity":62,"Duration":128391,"SoundDuration":128391,"Delta":35516574},{"NoteNumber":55,"Velocity":51,"Duration":128391,"SoundDuration":128391,"Delta":35516574},{"NoteNumber":69,"Velocity":64,"Duration":61901,"SoundDuration":61901,"Delta":35773358},{"NoteNumber":60,"Velocity":62,"Duration":123803,"SoundDuration":123803,"Delta":35773358},{"NoteNumber":69,"Velocity":60,"Duration":61901,"SoundDuration":61901,"Delta":35897161},{"NoteNumber":76,"Velocity":66,"Duration":123803,"SoundDuration":123803,"Delta":36020964},{"NoteNumber":66,"Velocity":59,"Duration":123803,"SoundDuration":123803,"Delta":36020964},{"NoteNumber":76,"Velocity":61,"Duration":130197,"SoundDuration":130197,"Delta":36268571},{"NoteNumber":81,"Velocity":61,"Duration":130197,"SoundDuration":130197,"Delta":36268571},{"NoteNumber":60,"Velocity":59,"Duration":130197,"SoundDuration":130197,"Delta":36268571},{"NoteNumber":83,"Velocity":61,"Duration":137280,"SoundDuration":137280,"Delta":36528965},{"NoteNumber":59,"Velocity":48,"Duration":137280,"SoundDuration":137280,"Delta":36528965},{"NoteNumber":85,"Velocity":62,"Duration":135651,"SoundDuration":135651,"Delta":36666245},{"NoteNumber":61,"Velocity":49,"Duration":135651,"SoundDuration":135651,"Delta":36666245},{"NoteNumber":87,"Velocity":64,"Duration":133967,"SoundDuration":133967,"Delta":36801897},{"NoteNumber":63,"Velocity":51,"Duration":133967,"SoundDuration":133967,"Delta":36801897},{"NoteNumber":88,"Velocity":66,"Duration":132316,"SoundDuration":132316,"Delta":36935865},{"NoteNumber":64,"Velocity":52,"Duration":132316,"SoundDuration":132316,"Delta":36935865},{"NoteNumber":90,"Velocity":68,"Duration":131405,"SoundDuration":131405,"Delta":37068182},{"NoteNumber":66,"Velocity":53,"Duration":131405,"SoundDuration":131405,"Delta":37068182},{"NoteNumber":91,"Velocity":69,"Duration":131406,"SoundDuration":131406,"Delta":37199588},{"NoteNumber":67,"Velocity":55,"Duration":131406,"SoundDuration":131406,"Delta":37199588},{"NoteNumber":93,"Velocity":71,"Duration":270221,"SoundDuration":270221,"Delta":37330994},{"NoteNumber":69,"Velocity":57,"Duration":270221,"SoundDuration":270221,"Delta":37330994},{"NoteNumber":91,"Velocity":70,"Duration":86828,"SoundDuration":86828,"Delta":37601215},{"NoteNumber":67,"Velocity":56,"Duration":86828,"SoundDuration":86828,"Delta":37601215},{"NoteNumber":93,"Velocity":66,"Duration":86828,"SoundDuration":86828,"Delta":37688044},{"NoteNumber":69,"Velocity":52,"Duration":86828,"SoundDuration":86828,"Delta":37688044},{"NoteNumber":91,"Velocity":66,"Duration":86828,"SoundDuration":86828,"Delta":37774872},{"NoteNumber":67,"Velocity":52,"Duration":86828,"SoundDuration":86828,"Delta":37774872},{"NoteNumber":90,"Velocity":71,"Duration":133856,"SoundDuration":133856,"Delta":37861700},{"NoteNumber":66,"Velocity":57,"Duration":133856,"SoundDuration":133856,"Delta":37861700},{"NoteNumber":88,"Velocity":66,"Duration":137715,"SoundDuration":137715,"Delta":37995557},{"NoteNumber":64,"Velocity":52,"Duration":137715,"SoundDuration":137715,"Delta":37995557},{"NoteNumber":90,"Velocity":69,"Duration":137388,"SoundDuration":137388,"Delta":38133272},{"NoteNumber":66,"Velocity":55,"Duration":137388,"SoundDuration":137388,"Delta":38133272},{"NoteNumber":91,"Velocity":58,"Duration":138482,"SoundDuration":138482,"Delta":38270661},{"NoteNumber":67,"Velocity":46,"Duration":138482,"SoundDuration":138482,"Delta":38270661},{"NoteNumber":90,"Velocity":62,"Duration":139815,"SoundDuration":139815,"Delta":38409143},{"NoteNumber":66,"Velocity":49,"Duration":139815,"SoundDuration":139815,"Delta":38409143},{"NoteNumber":86,"Velocity":60,"Duration":141202,"SoundDuration":141202,"Delta":38548959},{"NoteNumber":62,"Velocity":48,"Duration":141202,"SoundDuration":141202,"Delta":38548959},{"NoteNumber":83,"Velocity":58,"Duration":283554,"SoundDuration":283554,"Delta":38690162},{"NoteNumber":59,"Velocity":46,"Duration":283554,"SoundDuration":283554,"Delta":38690162},{"NoteNumber":84,"Velocity":58,"Duration":137388,"SoundDuration":137388,"Delta":38973716},{"NoteNumber":60,"Velocity":46,"Duration":137388,"SoundDuration":137388,"Delta":38973716},{"NoteNumber":86,"Velocity":60,"Duration":135978,"SoundDuration":135978,"Delta":39111104},{"NoteNumber":62,"Velocity":48,"Duration":135978,"SoundDuration":135978,"Delta":39111104},{"NoteNumber":88,"Velocity":61,"Duration":134592,"SoundDuration":134592,"Delta":39247082},{"NoteNumber":64,"Velocity":48,"Duration":134592,"SoundDuration":134592,"Delta":39247082},{"NoteNumber":90,"Velocity":63,"Duration":133139,"SoundDuration":133139,"Delta":39381675},{"NoteNumber":66,"Velocity":50,"Duration":133139,"SoundDuration":133139,"Delta":39381675},{"NoteNumber":91,"Velocity":66,"Duration":131807,"SoundDuration":131807,"Delta":39514815},{"NoteNumber":67,"Velocity":52,"Duration":131807,"SoundDuration":131807,"Delta":39514815},{"NoteNumber":88,"Velocity":68,"Duration":135133,"SoundDuration":135133,"Delta":39646623},{"NoteNumber":64,"Velocity":53,"Duration":135133,"SoundDuration":135133,"Delta":39646623},{"NoteNumber":86,"Velocity":70,"Duration":132518,"SoundDuration":132518,"Delta":39781756},{"NoteNumber":62,"Velocity":56,"Duration":132518,"SoundDuration":132518,"Delta":39781756},{"NoteNumber":88,"Velocity":69,"Duration":133760,"SoundDuration":133760,"Delta":39914274},{"NoteNumber":64,"Velocity":55,"Duration":133760,"SoundDuration":133760,"Delta":39914274},{"NoteNumber":86,"Velocity":64,"Duration":135012,"SoundDuration":135012,"Delta":40048035},{"NoteNumber":62,"Velocity":51,"Duration":135012,"SoundDuration":135012,"Delta":40048035},{"NoteNumber":83,"Velocity":60,"Duration":140883,"SoundDuration":140883,"Delta":40183048},{"NoteNumber":59,"Velocity":48,"Duration":140883,"SoundDuration":140883,"Delta":40183048},{"NoteNumber":79,"Velocity":59,"Duration":135761,"SoundDuration":135761,"Delta":40323931},{"NoteNumber":55,"Velocity":47,"Duration":135761,"SoundDuration":135761,"Delta":40323931},{"NoteNumber":81,"Velocity":63,"Duration":133866,"SoundDuration":133866,"Delta":40459692},{"NoteNumber":57,"Velocity":50,"Duration":133866,"SoundDuration":133866,"Delta":40459692},{"NoteNumber":83,"Velocity":68,"Duration":132009,"SoundDuration":132009,"Delta":40593559},{"NoteNumber":59,"Velocity":53,"Duration":132009,"SoundDuration":132009,"Delta":40593559},{"NoteNumber":86,"Velocity":67,"Duration":131612,"SoundDuration":131612,"Delta":40725568},{"NoteNumber":62,"Velocity":52,"Duration":131612,"SoundDuration":131612,"Delta":40725568},{"NoteNumber":84,"Velocity":66,"Duration":132411,"SoundDuration":132411,"Delta":40857180},{"NoteNumber":60,"Velocity":52,"Duration":132411,"SoundDuration":132411,"Delta":40857180},{"NoteNumber":83,"Velocity":64,"Duration":133038,"SoundDuration":133038,"Delta":40989592},{"NoteNumber":59,"Velocity":51,"Duration":133038,"SoundDuration":133038,"Delta":40989592},{"NoteNumber":84,"Velocity":62,"Duration":133654,"SoundDuration":133654,"Delta":41122631},{"NoteNumber":60,"Velocity":49,"Duration":133654,"SoundDuration":133654,"Delta":41122631},{"NoteNumber":88,"Velocity":61,"Duration":143386,"SoundDuration":143386,"Delta":41256285},{"NoteNumber":64,"Velocity":48,"Duration":143386,"SoundDuration":143386,"Delta":41256285},{"NoteNumber":59,"Velocity":59,"Duration":135110,"SoundDuration":135110,"Delta":41399672},{"NoteNumber":75,"Velocity":45,"Duration":89867,"SoundDuration":89867,"Delta":41489746},{"NoteNumber":83,"Velocity":53,"Duration":89867,"SoundDuration":89867,"Delta":41489746},{"NoteNumber":71,"Velocity":53,"Duration":89661,"SoundDuration":89661,"Delta":41579614},{"NoteNumber":66,"Velocity":53,"Duration":133856,"SoundDuration":133856,"Delta":41669276},{"NoteNumber":75,"Velocity":45,"Duration":89035,"SoundDuration":89035,"Delta":41758514},{"NoteNumber":83,"Velocity":53,"Duration":89035,"SoundDuration":89035,"Delta":41758514},{"NoteNumber":71,"Velocity":53,"Duration":88727,"SoundDuration":88727,"Delta":41847549},{"NoteNumber":75,"Velocity":66,"Duration":68530,"SoundDuration":68530,"Delta":41936277},{"NoteNumber":75,"Velocity":45,"Duration":91374,"SoundDuration":91374,"Delta":42027651},{"NoteNumber":83,"Velocity":53,"Duration":91374,"SoundDuration":91374,"Delta":42027651},{"NoteNumber":71,"Velocity":53,"Duration":91374,"SoundDuration":91374,"Delta":42119026},{"NoteNumber":59,"Velocity":57,"Duration":134131,"SoundDuration":134131,"Delta":42210400},{"NoteNumber":76,"Velocity":45,"Duration":89237,"SoundDuration":89237,"Delta":42299913},{"NoteNumber":81,"Velocity":53,"Duration":89237,"SoundDuration":89237,"Delta":42299913},{"NoteNumber":72,"Velocity":53,"Duration":89237,"SoundDuration":89237,"Delta":42389151},{"NoteNumber":66,"Velocity":53,"Duration":133250,"SoundDuration":133250,"Delta":42478388},{"NoteNumber":76,"Velocity":45,"Duration":88833,"SoundDuration":88833,"Delta":42567222},{"NoteNumber":81,"Velocity":53,"Duration":88833,"SoundDuration":88833,"Delta":42567222},{"NoteNumber":72,"Velocity":53,"Duration":88621,"SoundDuration":88621,"Delta":42656056},{"NoteNumber":76,"Velocity":53,"Duration":68206,"SoundDuration":68206,"Delta":42744677},{"NoteNumber":76,"Velocity":45,"Duration":90942,"SoundDuration":90942,"Delta":42835620},{"NoteNumber":81,"Velocity":53,"Duration":90942,"SoundDuration":90942,"Delta":42835620},{"NoteNumber":72,"Velocity":53,"Duration":90942,"SoundDuration":90942,"Delta":42926562},{"NoteNumber":59,"Velocity":59,"Duration":143884,"SoundDuration":143884,"Delta":43017504},{"NoteNumber":75,"Velocity":45,"Duration":94460,"SoundDuration":94460,"Delta":43113427},{"NoteNumber":83,"Velocity":53,"Duration":94460,"SoundDuration":94460,"Delta":43113427},{"NoteNumber":71,"Velocity":53,"Duration":90073,"SoundDuration":90073,"Delta":43207888},{"NoteNumber":66,"Velocity":53,"Duration":134801,"SoundDuration":134801,"Delta":43297962},{"NoteNumber":83,"Velocity":53,"Duration":89661,"SoundDuration":89661,"Delta":43387933},{"NoteNumber":75,"Velocity":45,"Duration":89661,"SoundDuration":89661,"Delta":43387933},{"NoteNumber":71,"Velocity":53,"Duration":89555,"SoundDuration":89555,"Delta":43477595},{"NoteNumber":75,"Velocity":66,"Duration":68530,"SoundDuration":68530,"Delta":43567151},{"NoteNumber":83,"Velocity":53,"Duration":91374,"SoundDuration":91374,"Delta":43658525},{"NoteNumber":75,"Velocity":45,"Duration":91374,"SoundDuration":91374,"Delta":43658525},{"NoteNumber":71,"Velocity":53,"Duration":91374,"SoundDuration":91374,"Delta":43749899},{"NoteNumber":59,"Velocity":57,"Duration":134492,"SoundDuration":134492,"Delta":43841274},{"NoteNumber":81,"Velocity":53,"Duration":89661,"SoundDuration":89661,"Delta":43930936},{"NoteNumber":76,"Velocity":45,"Duration":89661,"SoundDuration":89661,"Delta":43930936},{"NoteNumber":72,"Velocity":53,"Duration":89237,"SoundDuration":89237,"Delta":44020598},{"NoteNumber":66,"Velocity":53,"Duration":133553,"SoundDuration":133553,"Delta":44109836},{"NoteNumber":76,"Velocity":45,"Duration":88833,"SoundDuration":88833,"Delta":44198972},{"NoteNumber":81,"Velocity":53,"Duration":88833,"SoundDuration":88833,"Delta":44198972},{"NoteNumber":72,"Velocity":53,"Duration":88621,"SoundDuration":88621,"Delta":44287806},{"NoteNumber":76,"Velocity":53,"Duration":68206,"SoundDuration":68206,"Delta":44376428},{"NoteNumber":76,"Velocity":45,"Duration":90942,"SoundDuration":90942,"Delta":44467370},{"NoteNumber":81,"Velocity":53,"Duration":90942,"SoundDuration":90942,"Delta":44467370},{"NoteNumber":72,"Velocity":53,"Duration":90942,"SoundDuration":90942,"Delta":44558312},{"NoteNumber":59,"Velocity":59,"Duration":140370,"SoundDuration":140370,"Delta":44649254},{"NoteNumber":75,"Velocity":45,"Duration":92811,"SoundDuration":92811,"Delta":44742835},{"NoteNumber":83,"Velocity":53,"Duration":92811,"SoundDuration":92811,"Delta":44742835},{"NoteNumber":71,"Velocity":52,"Duration":89661,"SoundDuration":89661,"Delta":44835646},{"NoteNumber":66,"Velocity":55,"Duration":133861,"SoundDuration":133861,"Delta":44925308},{"NoteNumber":83,"Velocity":53,"Duration":88934,"SoundDuration":88934,"Delta":45014652},{"NoteNumber":75,"Velocity":45,"Duration":88934,"SoundDuration":88934,"Delta":45014652},{"NoteNumber":71,"Velocity":55,"Duration":88515,"SoundDuration":88515,"Delta":45103587},{"NoteNumber":75,"Velocity":68,"Duration":66104,"SoundDuration":66104,"Delta":45192102},{"NoteNumber":75,"Velocity":46,"Duration":88828,"SoundDuration":88828,"Delta":45280310},{"NoteNumber":83,"Velocity":57,"Duration":88828,"SoundDuration":88828,"Delta":45280310},{"NoteNumber":71,"Velocity":56,"Duration":89724,"SoundDuration":89724,"Delta":45369138},{"NoteNumber":78,"Velocity":64,"Duration":139043,"SoundDuration":139043,"Delta":45458863},{"NoteNumber":83,"Velocity":57,"Duration":91831,"SoundDuration":91831,"Delta":45551559},{"NoteNumber":75,"Velocity":48,"Duration":91831,"SoundDuration":91831,"Delta":45551559},{"NoteNumber":71,"Velocity":56,"Duration":89035,"SoundDuration":89035,"Delta":45643390},{"NoteNumber":75,"Velocity":55,"Duration":66413,"SoundDuration":66413,"Delta":45732426},{"NoteNumber":83,"Velocity":53,"Duration":87904,"SoundDuration":87904,"Delta":45820941},{"NoteNumber":75,"Velocity":46,"Duration":87904,"SoundDuration":87904,"Delta":45820941},{"NoteNumber":71,"Velocity":53,"Duration":87704,"SoundDuration":87704,"Delta":45908846},{"NoteNumber":78,"Velocity":53,"Duration":133033,"SoundDuration":133033,"Delta":45996550},{"NoteNumber":75,"Velocity":44,"Duration":89449,"SoundDuration":89449,"Delta":46084965},{"NoteNumber":83,"Velocity":51,"Duration":89449,"SoundDuration":89449,"Delta":46084965},{"NoteNumber":71,"Velocity":49,"Duration":90398,"SoundDuration":90398,"Delta":46174415},{"NoteNumber":75,"Velocity":55,"Duration":70888,"SoundDuration":70888,"Delta":46264814},{"NoteNumber":75,"Velocity":41,"Duration":92730,"SoundDuration":92730,"Delta":46359332},{"NoteNumber":83,"Velocity":49,"Duration":92730,"SoundDuration":92730,"Delta":46359332},{"NoteNumber":71,"Velocity":48,"Duration":90833,"SoundDuration":90833,"Delta":46452062},{"NoteNumber":78,"Velocity":47,"Duration":135434,"SoundDuration":135434,"Delta":46542895},{"NoteNumber":75,"Velocity":39,"Duration":89970,"SoundDuration":89970,"Delta":46633293},{"NoteNumber":83,"Velocity":47,"Duration":89970,"SoundDuration":89970,"Delta":46633293},{"NoteNumber":71,"Velocity":46,"Duration":89555,"SoundDuration":89555,"Delta":46723264},{"NoteNumber":75,"Velocity":47,"Duration":68314,"SoundDuration":68314,"Delta":46812820},{"NoteNumber":83,"Velocity":46,"Duration":92117,"SoundDuration":92117,"Delta":46903978},{"NoteNumber":75,"Velocity":39,"Duration":92117,"SoundDuration":92117,"Delta":46903978},{"NoteNumber":71,"Velocity":45,"Duration":93092,"SoundDuration":93092,"Delta":46996095},{"NoteNumber":78,"Velocity":50,"Duration":141024,"SoundDuration":141024,"Delta":47089188},{"NoteNumber":75,"Velocity":37,"Duration":93822,"SoundDuration":93822,"Delta":47183179},{"NoteNumber":83,"Velocity":44,"Duration":93822,"SoundDuration":93822,"Delta":47183179},{"NoteNumber":71,"Velocity":44,"Duration":94386,"SoundDuration":94386,"Delta":47277002},{"NoteNumber":75,"Velocity":42,"Duration":71500,"SoundDuration":71500,"Delta":47371388},{"NoteNumber":83,"Velocity":42,"Duration":96513,"SoundDuration":96513,"Delta":47466869},{"NoteNumber":75,"Velocity":36,"Duration":96513,"SoundDuration":96513,"Delta":47466869},{"NoteNumber":71,"Velocity":42,"Duration":97752,"SoundDuration":97752,"Delta":47563383},{"NoteNumber":78,"Velocity":42,"Duration":148742,"SoundDuration":148742,"Delta":47661135},{"NoteNumber":75,"Velocity":35,"Duration":100045,"SoundDuration":100045,"Delta":47759985},{"NoteNumber":83,"Velocity":41,"Duration":100045,"SoundDuration":100045,"Delta":47759985},{"NoteNumber":71,"Velocity":40,"Duration":154614,"SoundDuration":154614,"Delta":47860030},{"NoteNumber":99,"Velocity":41,"Duration":1071429,"SoundDuration":1071429,"Delta":48018609},{"NoteNumber":90,"Velocity":41,"Duration":1071429,"SoundDuration":1071429,"Delta":48018609},{"NoteNumber":87,"Velocity":41,"Duration":1071429,"SoundDuration":1071429,"Delta":48018609},{"NoteNumber":83,"Velocity":37,"Duration":1071429,"SoundDuration":1071429,"Delta":48018609},{"NoteNumber":78,"Velocity":37,"Duration":1071429,"SoundDuration":1071429,"Delta":48018609},{"NoteNumber":71,"Velocity":37,"Duration":1071429,"SoundDuration":1071429,"Delta":48018609},{"NoteNumber":71,"Velocity":58,"Duration":416666,"SoundDuration":416666,"Delta":49495444},{"NoteNumber":76,"Velocity":62,"Duration":2027027,"SoundDuration":2027027,"Delta":49912110},{"NoteNumber":74,"Velocity":56,"Duration":413792,"SoundDuration":413792,"Delta":51939138},{"NoteNumber":76,"Velocity":63,"Duration":1200000,"SoundDuration":1200000,"Delta":52352931},{"NoteNumber":74,"Velocity":55,"Duration":392156,"SoundDuration":392156,"Delta":53552931},{"NoteNumber":76,"Velocity":61,"Duration":1232877,"SoundDuration":1232877,"Delta":53945088},{"NoteNumber":74,"Velocity":56,"Duration":127388,"SoundDuration":127388,"Delta":55177965},{"NoteNumber":76,"Velocity":53,"Duration":127388,"SoundDuration":127388,"Delta":55305353},{"NoteNumber":74,"Velocity":50,"Duration":127388,"SoundDuration":127388,"Delta":55432742},{"NoteNumber":71,"Velocity":44,"Duration":833333,"SoundDuration":833333,"Delta":55560130},{"NoteNumber":43,"Velocity":32,"Duration":288461,"SoundDuration":288461,"Delta":56393463},{"NoteNumber":59,"Velocity":39,"Duration":288461,"SoundDuration":288461,"Delta":56681925},{"NoteNumber":50,"Velocity":29,"Duration":288461,"SoundDuration":288461,"Delta":56681925},{"NoteNumber":62,"Velocity":39,"Duration":265486,"SoundDuration":265486,"Delta":56970386},{"NoteNumber":55,"Velocity":29,"Duration":265486,"SoundDuration":265486,"Delta":56970386},{"NoteNumber":67,"Velocity":39,"Duration":265486,"SoundDuration":265486,"Delta":57235873},{"NoteNumber":59,"Velocity":29,"Duration":265486,"SoundDuration":265486,"Delta":57235873},{"NoteNumber":71,"Velocity":41,"Duration":265486,"SoundDuration":265486,"Delta":57501360},{"NoteNumber":62,"Velocity":32,"Duration":265486,"SoundDuration":265486,"Delta":57501360},{"NoteNumber":74,"Velocity":40,"Duration":265486,"SoundDuration":265486,"Delta":57766846},{"NoteNumber":67,"Velocity":27,"Duration":265486,"SoundDuration":265486,"Delta":57766846},{"NoteNumber":79,"Velocity":37,"Duration":265486,"SoundDuration":265486,"Delta":58032333},{"NoteNumber":71,"Velocity":27,"Duration":265486,"SoundDuration":265486,"Delta":58032333},{"NoteNumber":83,"Velocity":37,"Duration":265486,"SoundDuration":265486,"Delta":58297820},{"NoteNumber":74,"Velocity":27,"Duration":265486,"SoundDuration":265486,"Delta":58297820},{"NoteNumber":86,"Velocity":41,"Duration":270284,"SoundDuration":270284,"Delta":58563307},{"NoteNumber":79,"Velocity":30,"Duration":270284,"SoundDuration":270284,"Delta":58563307},{"NoteNumber":91,"Velocity":39,"Duration":280390,"SoundDuration":280390,"Delta":58833591},{"NoteNumber":83,"Velocity":27,"Duration":280390,"SoundDuration":280390,"Delta":58833591},{"NoteNumber":95,"Velocity":39,"Duration":290364,"SoundDuration":290364,"Delta":59113982},{"NoteNumber":86,"Velocity":27,"Duration":290364,"SoundDuration":290364,"Delta":59113982},{"NoteNumber":98,"Velocity":39,"Duration":301050,"SoundDuration":301050,"Delta":59404346},{"NoteNumber":91,"Velocity":27,"Duration":301050,"SoundDuration":301050,"Delta":59404346},{"NoteNumber":71,"Velocity":45,"Duration":441176,"SoundDuration":441176,"Delta":60494871},{"NoteNumber":76,"Velocity":49,"Duration":1216216,"SoundDuration":1216216,"Delta":60936047},{"NoteNumber":74,"Velocity":46,"Duration":392156,"SoundDuration":392156,"Delta":62152264},{"NoteNumber":76,"Velocity":52,"Duration":1216216,"SoundDuration":1216216,"Delta":62544421},{"NoteNumber":74,"Velocity":51,"Duration":394737,"SoundDuration":394737,"Delta":63760637},{"NoteNumber":76,"Velocity":56,"Duration":419580,"SoundDuration":419580,"Delta":64155374},{"NoteNumber":74,"Velocity":53,"Duration":434782,"SoundDuration":434782,"Delta":64574955},{"NoteNumber":76,"Velocity":56,"Duration":175438,"SoundDuration":175438,"Delta":65009737},{"NoteNumber":78,"Velocity":52,"Duration":186335,"SoundDuration":186335,"Delta":65185176},{"NoteNumber":76,"Velocity":55,"Duration":194805,"SoundDuration":194805,"Delta":65371511},{"NoteNumber":74,"Velocity":51,"Duration":215827,"SoundDuration":215827,"Delta":65566316},{"NoteNumber":72,"Velocity":47,"Duration":1621622,"SoundDuration":1621622,"Delta":65782144},{"NoteNumber":36,"Velocity":32,"Duration":288461,"SoundDuration":288461,"Delta":67403766},{"NoteNumber":52,"Velocity":39,"Duration":288461,"SoundDuration":288461,"Delta":67692227},{"NoteNumber":43,"Velocity":29,"Duration":288461,"SoundDuration":288461,"Delta":67692227},{"NoteNumber":55,"Velocity":39,"Duration":265486,"SoundDuration":265486,"Delta":67980689},{"NoteNumber":48,"Velocity":29,"Duration":265486,"SoundDuration":265486,"Delta":67980689},{"NoteNumber":60,"Velocity":39,"Duration":265486,"SoundDuration":265486,"Delta":68246175},{"NoteNumber":52,"Velocity":29,"Duration":265486,"SoundDuration":265486,"Delta":68246175},{"NoteNumber":64,"Velocity":41,"Duration":265486,"SoundDuration":265486,"Delta":68511662},{"NoteNumber":55,"Velocity":32,"Duration":265486,"SoundDuration":265486,"Delta":68511662},{"NoteNumber":67,"Velocity":40,"Duration":265486,"SoundDuration":265486,"Delta":68777149},{"NoteNumber":60,"Velocity":27,"Duration":265486,"SoundDuration":265486,"Delta":68777149},{"NoteNumber":72,"Velocity":37,"Duration":265486,"SoundDuration":265486,"Delta":69042636},{"NoteNumber":64,"Velocity":27,"Duration":265486,"SoundDuration":265486,"Delta":69042636},{"NoteNumber":76,"Velocity":37,"Duration":265486,"SoundDuration":265486,"Delta":69308122},{"NoteNumber":67,"Velocity":27,"Duration":265486,"SoundDuration":265486,"Delta":69308122},{"NoteNumber":79,"Velocity":41,"Duration":270284,"SoundDuration":270284,"Delta":69573609},{"NoteNumber":72,"Velocity":30,"Duration":270284,"SoundDuration":270284,"Delta":69573609},{"NoteNumber":84,"Velocity":39,"Duration":280390,"SoundDuration":280390,"Delta":69843894},{"NoteNumber":76,"Velocity":27,"Duration":280390,"SoundDuration":280390,"Delta":69843894},{"NoteNumber":88,"Velocity":39,"Duration":290364,"SoundDuration":290364,"Delta":70124284},{"NoteNumber":79,"Velocity":27,"Duration":290364,"SoundDuration":290364,"Delta":70124284},{"NoteNumber":100,"Velocity":39,"Duration":301050,"SoundDuration":301050,"Delta":70414649},{"NoteNumber":84,"Velocity":27,"Duration":301050,"SoundDuration":301050,"Delta":70414649},{"NoteNumber":72,"Velocity":50,"Duration":441176,"SoundDuration":441176,"Delta":71505173},{"NoteNumber":76,"Velocity":55,"Duration":2027027,"SoundDuration":2027027,"Delta":71946350},{"NoteNumber":74,"Velocity":55,"Duration":392156,"SoundDuration":392156,"Delta":73973377},{"NoteNumber":76,"Velocity":58,"Duration":764330,"SoundDuration":764330,"Delta":74365534},{"NoteNumber":78,"Velocity":60,"Duration":397351,"SoundDuration":397351,"Delta":75129865},{"NoteNumber":79,"Velocity":62,"Duration":410959,"SoundDuration":410959,"Delta":75527216},{"NoteNumber":76,"Velocity":62,"Duration":144578,"SoundDuration":144578,"Delta":75938175},{"NoteNumber":78,"Velocity":57,"Duration":146242,"SoundDuration":146242,"Delta":76082753},{"NoteNumber":76,"Velocity":60,"Duration":152946,"SoundDuration":152946,"Delta":76228996},{"NoteNumber":74,"Velocity":56,"Duration":160402,"SoundDuration":160402,"Delta":76381943},{"NoteNumber":72,"Velocity":52,"Duration":168934,"SoundDuration":168934,"Delta":76542346},{"NoteNumber":71,"Velocity":49,"Duration":1621622,"SoundDuration":1621622,"Delta":76711280},{"NoteNumber":43,"Velocity":32,"Duration":288461,"SoundDuration":288461,"Delta":78332902},{"NoteNumber":59,"Velocity":39,"Duration":288461,"SoundDuration":288461,"Delta":78621363},{"NoteNumber":50,"Velocity":29,"Duration":288461,"SoundDuration":288461,"Delta":78621363},{"NoteNumber":62,"Velocity":39,"Duration":265486,"SoundDuration":265486,"Delta":78909825},{"NoteNumber":55,"Velocity":29,"Duration":265486,"SoundDuration":265486,"Delta":78909825},{"NoteNumber":67,"Velocity":39,"Duration":265486,"SoundDuration":265486,"Delta":79175312},{"NoteNumber":59,"Velocity":29,"Duration":265486,"SoundDuration":265486,"Delta":79175312},{"NoteNumber":71,"Velocity":41,"Duration":265486,"SoundDuration":265486,"Delta":79440798},{"NoteNumber":62,"Velocity":32,"Duration":265486,"SoundDuration":265486,"Delta":79440798},{"NoteNumber":74,"Velocity":40,"Duration":265486,"SoundDuration":265486,"Delta":79706285},{"NoteNumber":67,"Velocity":27,"Duration":265486,"SoundDuration":265486,"Delta":79706285},{"NoteNumber":79,"Velocity":37,"Duration":265486,"SoundDuration":265486,"Delta":79971772},{"NoteNumber":71,"Velocity":27,"Duration":265486,"SoundDuration":265486,"Delta":79971772},{"NoteNumber":83,"Velocity":37,"Duration":265486,"SoundDuration":265486,"Delta":80237259},{"NoteNumber":74,"Velocity":27,"Duration":265486,"SoundDuration":265486,"Delta":80237259},{"NoteNumber":86,"Velocity":41,"Duration":270284,"SoundDuration":270284,"Delta":80502745},{"NoteNumber":79,"Velocity":30,"Duration":270284,"SoundDuration":270284,"Delta":80502745},{"NoteNumber":91,"Velocity":39,"Duration":280390,"SoundDuration":280390,"Delta":80773030},{"NoteNumber":83,"Velocity":27,"Duration":280390,"SoundDuration":280390,"Delta":80773030},{"NoteNumber":95,"Velocity":39,"Duration":290364,"SoundDuration":290364,"Delta":81053420},{"NoteNumber":86,"Velocity":27,"Duration":290364,"SoundDuration":290364,"Delta":81053420},{"NoteNumber":98,"Velocity":39,"Duration":301050,"SoundDuration":301050,"Delta":81343785},{"NoteNumber":91,"Velocity":27,"Duration":301050,"SoundDuration":301050,"Delta":81343785},{"NoteNumber":71,"Velocity":55,"Duration":441176,"SoundDuration":441176,"Delta":82434309},{"NoteNumber":74,"Velocity":60,"Duration":2027027,"SoundDuration":2027027,"Delta":82875486},{"NoteNumber":72,"Velocity":56,"Duration":394737,"SoundDuration":394737,"Delta":84902513},{"NoteNumber":71,"Velocity":55,"Duration":769231,"SoundDuration":769231,"Delta":85297250},{"NoteNumber":69,"Velocity":53,"Duration":397351,"SoundDuration":397351,"Delta":86066481},{"NoteNumber":71,"Velocity":53,"Duration":382165,"SoundDuration":382165,"Delta":86463832},{"NoteNumber":72,"Velocity":58,"Duration":181818,"SoundDuration":181818,"Delta":86845998},{"NoteNumber":74,"Velocity":51,"Duration":181818,"SoundDuration":181818,"Delta":87027816},{"NoteNumber":72,"Velocity":56,"Duration":189873,"SoundDuration":189873,"Delta":87209634},{"NoteNumber":71,"Velocity":48,"Duration":211267,"SoundDuration":211267,"Delta":87399508},{"NoteNumber":69,"Velocity":46,"Duration":1621622,"SoundDuration":1621622,"Delta":87610775},{"NoteNumber":38,"Velocity":32,"Duration":288461,"SoundDuration":288461,"Delta":89232397},{"NoteNumber":50,"Velocity":39,"Duration":288461,"SoundDuration":288461,"Delta":89520859},{"NoteNumber":45,"Velocity":29,"Duration":288461,"SoundDuration":288461,"Delta":89520859},{"NoteNumber":54,"Velocity":39,"Duration":265486,"SoundDuration":265486,"Delta":89809320},{"NoteNumber":50,"Velocity":29,"Duration":265486,"SoundDuration":265486,"Delta":89809320},{"NoteNumber":60,"Velocity":39,"Duration":265486,"SoundDuration":265486,"Delta":90074807},{"NoteNumber":54,"Velocity":29,"Duration":265486,"SoundDuration":265486,"Delta":90074807},{"NoteNumber":62,"Velocity":41,"Duration":265486,"SoundDuration":265486,"Delta":90340294},{"NoteNumber":57,"Velocity":32,"Duration":265486,"SoundDuration":265486,"Delta":90340294},{"NoteNumber":66,"Velocity":40,"Duration":265486,"SoundDuration":265486,"Delta":90605781},{"NoteNumber":62,"Velocity":27,"Duration":265486,"SoundDuration":265486,"Delta":90605781},{"NoteNumber":72,"Velocity":37,"Duration":265486,"SoundDuration":265486,"Delta":90871267},{"NoteNumber":66,"Velocity":27,"Duration":265486,"SoundDuration":265486,"Delta":90871267},{"NoteNumber":74,"Velocity":37,"Duration":265486,"SoundDuration":265486,"Delta":91136754},{"NoteNumber":69,"Velocity":27,"Duration":265486,"SoundDuration":265486,"Delta":91136754},{"NoteNumber":78,"Velocity":41,"Duration":270284,"SoundDuration":270284,"Delta":91402241},{"NoteNumber":74,"Velocity":30,"Duration":270284,"SoundDuration":270284,"Delta":91402241},{"NoteNumber":84,"Velocity":39,"Duration":280390,"SoundDuration":280390,"Delta":91672526},{"NoteNumber":78,"Velocity":27,"Duration":280390,"SoundDuration":280390,"Delta":91672526},{"NoteNumber":86,"Velocity":39,"Duration":290364,"SoundDuration":290364,"Delta":91952916},{"NoteNumber":81,"Velocity":27,"Duration":290364,"SoundDuration":290364,"Delta":91952916},{"NoteNumber":90,"Velocity":39,"Duration":301050,"SoundDuration":301050,"Delta":92243281},{"NoteNumber":84,"Velocity":27,"Duration":301050,"SoundDuration":301050,"Delta":92243281},{"NoteNumber":72,"Velocity":52,"Duration":214285,"SoundDuration":214285,"Delta":92850454},{"NoteNumber":74,"Velocity":55,"Duration":214285,"SoundDuration":214285,"Delta":93064740},{"NoteNumber":76,"Velocity":58,"Duration":214285,"SoundDuration":214285,"Delta":93279025},{"NoteNumber":78,"Velocity":62,"Duration":129032,"SoundDuration":129032,"Delta":93493311},{"NoteNumber":79,"Velocity":49,"Duration":129032,"SoundDuration":129032,"Delta":93622343},{"NoteNumber":78,"Velocity":49,"Duration":129032,"SoundDuration":129032,"Delta":93751376},{"NoteNumber":76,"Velocity":60,"Duration":197368,"SoundDuration":197368,"Delta":93880408},{"NoteNumber":74,"Velocity":50,"Duration":208333,"SoundDuration":208333,"Delta":94077777},{"NoteNumber":76,"Velocity":61,"Duration":129870,"SoundDuration":129870,"Delta":94286110},{"NoteNumber":78,"Velocity":49,"Duration":129870,"SoundDuration":129870,"Delta":94415980},{"NoteNumber":76,"Velocity":48,"Duration":129870,"SoundDuration":129870,"Delta":94545850},{"NoteNumber":74,"Velocity":57,"Duration":204081,"SoundDuration":204081,"Delta":94675720},{"NoteNumber":72,"Velocity":52,"Duration":214285,"SoundDuration":214285,"Delta":94879802},{"NoteNumber":74,"Velocity":52,"Duration":216624,"SoundDuration":216624,"Delta":95094088},{"NoteNumber":76,"Velocity":49,"Duration":224181,"SoundDuration":224181,"Delta":95310712},{"NoteNumber":74,"Velocity":51,"Duration":232283,"SoundDuration":232283,"Delta":95534894},{"NoteNumber":72,"Velocity":45,"Duration":238095,"SoundDuration":238095,"Delta":95767177},{"NoteNumber":71,"Velocity":40,"Duration":1777777,"SoundDuration":1777777,"Delta":96005273},{"NoteNumber":43,"Velocity":32,"Duration":288461,"SoundDuration":288461,"Delta":97783051},{"NoteNumber":59,"Velocity":39,"Duration":288461,"SoundDuration":288461,"Delta":98071512},{"NoteNumber":50,"Velocity":29,"Duration":288461,"SoundDuration":288461,"Delta":98071512},{"NoteNumber":62,"Velocity":39,"Duration":265486,"SoundDuration":265486,"Delta":98359974},{"NoteNumber":55,"Velocity":29,"Duration":265486,"SoundDuration":265486,"Delta":98359974},{"NoteNumber":67,"Velocity":39,"Duration":265486,"SoundDuration":265486,"Delta":98625460},{"NoteNumber":59,"Velocity":29,"Duration":265486,"SoundDuration":265486,"Delta":98625460},{"NoteNumber":71,"Velocity":41,"Duration":265486,"SoundDuration":265486,"Delta":98890947},{"NoteNumber":62,"Velocity":32,"Duration":265486,"SoundDuration":265486,"Delta":98890947},{"NoteNumber":74,"Velocity":40,"Duration":265486,"SoundDuration":265486,"Delta":99156434},{"NoteNumber":67,"Velocity":27,"Duration":265486,"SoundDuration":265486,"Delta":99156434},{"NoteNumber":79,"Velocity":37,"Duration":265486,"SoundDuration":265486,"Delta":99421921},{"NoteNumber":71,"Velocity":27,"Duration":265486,"SoundDuration":265486,"Delta":99421921},{"NoteNumber":83,"Velocity":37,"Duration":265486,"SoundDuration":265486,"Delta":99687407},{"NoteNumber":74,"Velocity":27,"Duration":265486,"SoundDuration":265486,"Delta":99687407},{"NoteNumber":86,"Velocity":41,"Duration":270284,"SoundDuration":270284,"Delta":99952894},{"NoteNumber":79,"Velocity":30,"Duration":270284,"SoundDuration":270284,"Delta":99952894},{"NoteNumber":91,"Velocity":39,"Duration":280390,"SoundDuration":280390,"Delta":100223179},{"NoteNumber":83,"Velocity":27,"Duration":280390,"SoundDuration":280390,"Delta":100223179},{"NoteNumber":95,"Velocity":39,"Duration":290364,"SoundDuration":290364,"Delta":100503569},{"NoteNumber":86,"Velocity":27,"Duration":290364,"SoundDuration":290364,"Delta":100503569},{"NoteNumber":98,"Velocity":39,"Duration":301050,"SoundDuration":301050,"Delta":100793934},{"NoteNumber":91,"Velocity":27,"Duration":301050,"SoundDuration":301050,"Delta":100793934},{"NoteNumber":71,"Velocity":55,"Duration":1224490,"SoundDuration":1224490,"Delta":101094985},{"NoteNumber":76,"Velocity":60,"Duration":2448980,"SoundDuration":2448980,"Delta":102319475},{"NoteNumber":45,"Velocity":42,"Duration":288461,"SoundDuration":288461,"Delta":104768455},{"NoteNumber":54,"Velocity":38,"Duration":272727,"SoundDuration":272727,"Delta":105056916},{"NoteNumber":57,"Velocity":38,"Duration":272727,"SoundDuration":272727,"Delta":105329643},{"NoteNumber":60,"Velocity":38,"Duration":272727,"SoundDuration":272727,"Delta":105602371},{"NoteNumber":64,"Velocity":47,"Duration":272727,"SoundDuration":272727,"Delta":105875098},{"NoteNumber":66,"Velocity":39,"Duration":272727,"SoundDuration":272727,"Delta":106147825},{"NoteNumber":69,"Velocity":39,"Duration":272727,"SoundDuration":272727,"Delta":106420552},{"NoteNumber":72,"Velocity":39,"Duration":272727,"SoundDuration":272727,"Delta":106693280},{"NoteNumber":76,"Velocity":48,"Duration":273978,"SoundDuration":273978,"Delta":106966007},{"NoteNumber":78,"Velocity":41,"Duration":279075,"SoundDuration":279075,"Delta":107239985},{"NoteNumber":81,"Velocity":42,"Duration":285273,"SoundDuration":285273,"Delta":107519061},{"NoteNumber":84,"Velocity":42,"Duration":290804,"SoundDuration":290804,"Delta":107804335},{"NoteNumber":88,"Velocity":50,"Duration":1451458,"SoundDuration":1451458,"Delta":108095139},{"NoteNumber":74,"Velocity":57,"Duration":983607,"SoundDuration":983607,"Delta":109546598},{"NoteNumber":76,"Velocity":61,"Duration":468750,"SoundDuration":468750,"Delta":110530205},{"NoteNumber":74,"Velocity":59,"Duration":468750,"SoundDuration":468750,"Delta":110998955},{"NoteNumber":72,"Velocity":56,"Duration":483870,"SoundDuration":483870,"Delta":111467705},{"NoteNumber":71,"Velocity":52,"Duration":508474,"SoundDuration":508474,"Delta":111951576},{"NoteNumber":72,"Velocity":55,"Duration":159375,"SoundDuration":159375,"Delta":112460051},{"NoteNumber":74,"Velocity":57,"Duration":164623,"SoundDuration":164623,"Delta":112619426},{"NoteNumber":72,"Velocity":57,"Duration":166666,"SoundDuration":166666,"Delta":112784049},{"NoteNumber":71,"Velocity":56,"Duration":166666,"SoundDuration":166666,"Delta":112950716},{"NoteNumber":69,"Velocity":55,"Duration":166666,"SoundDuration":166666,"Delta":113117382},{"NoteNumber":67,"Velocity":53,"Duration":166666,"SoundDuration":166666,"Delta":113284049},{"NoteNumber":66,"Velocity":56,"Duration":139377,"SoundDuration":139377,"Delta":113450716},{"NoteNumber":67,"Velocity":56,"Duration":144511,"SoundDuration":144511,"Delta":113586028},{"NoteNumber":66,"Velocity":55,"Duration":150099,"SoundDuration":150099,"Delta":113728439},{"NoteNumber":64,"Velocity":51,"Duration":152841,"SoundDuration":152841,"Delta":113874191},{"NoteNumber":62,"Velocity":51,"Duration":154441,"SoundDuration":154441,"Delta":114024839},{"NoteNumber":60,"Velocity":47,"Duration":156491,"SoundDuration":156491,"Delta":114174817},{"NoteNumber":62,"Velocity":47,"Duration":169075,"SoundDuration":169075,"Delta":114329056},{"NoteNumber":63,"Velocity":49,"Duration":154245,"SoundDuration":154245,"Delta":114495044},{"NoteNumber":64,"Velocity":51,"Duration":152439,"SoundDuration":152439,"Delta":114643192},{"NoteNumber":66,"Velocity":52,"Duration":150896,"SoundDuration":150896,"Delta":114789534},{"NoteNumber":69,"Velocity":55,"Duration":155335,"SoundDuration":155335,"Delta":114934406},{"NoteNumber":67,"Velocity":55,"Duration":162337,"SoundDuration":162337,"Delta":115083248},{"NoteNumber":66,"Velocity":53,"Duration":162337,"SoundDuration":162337,"Delta":115239092},{"NoteNumber":64,"Velocity":52,"Duration":158121,"SoundDuration":158121,"Delta":115394937},{"NoteNumber":63,"Velocity":49,"Duration":165168,"SoundDuration":165168,"Delta":115546886},{"NoteNumber":64,"Velocity":50,"Duration":193832,"SoundDuration":193832,"Delta":115704911},{"NoteNumber":60,"Velocity":45,"Duration":438463,"SoundDuration":438463,"Delta":115890269},{"NoteNumber":71,"Velocity":58,"Duration":128402,"SoundDuration":128402,"Delta":116326593},{"NoteNumber":59,"Velocity":49,"Duration":128402,"SoundDuration":128402,"Delta":116326593},{"NoteNumber":75,"Velocity":55,"Duration":128402,"SoundDuration":128402,"Delta":116583398},{"NoteNumber":63,"Velocity":46,"Duration":128402,"SoundDuration":128402,"Delta":116583398},{"NoteNumber":78,"Velocity":55,"Duration":126071,"SoundDuration":126071,"Delta":116840204},{"NoteNumber":66,"Velocity":46,"Duration":126071,"SoundDuration":126071,"Delta":116840204},{"NoteNumber":76,"Velocity":59,"Duration":84047,"SoundDuration":84047,"Delta":117092347},{"NoteNumber":64,"Velocity":49,"Duration":84047,"SoundDuration":84047,"Delta":117092347},{"NoteNumber":78,"Velocity":55,"Duration":84047,"SoundDuration":84047,"Delta":117176394},{"NoteNumber":66,"Velocity":46,"Duration":84047,"SoundDuration":84047,"Delta":117176394},{"NoteNumber":76,"Velocity":55,"Duration":84047,"SoundDuration":84047,"Delta":117260442},{"NoteNumber":64,"Velocity":46,"Duration":84047,"SoundDuration":84047,"Delta":117260442},{"NoteNumber":72,"Velocity":59,"Duration":120588,"SoundDuration":120588,"Delta":117344490},{"NoteNumber":60,"Velocity":49,"Duration":120588,"SoundDuration":120588,"Delta":117344490},{"NoteNumber":81,"Velocity":55,"Duration":129600,"SoundDuration":129600,"Delta":117585667},{"NoteNumber":69,"Velocity":46,"Duration":129600,"SoundDuration":129600,"Delta":117585667},{"NoteNumber":71,"Velocity":58,"Duration":126071,"SoundDuration":126071,"Delta":117844868},{"NoteNumber":59,"Velocity":49,"Duration":126071,"SoundDuration":126071,"Delta":117844868},{"NoteNumber":75,"Velocity":55,"Duration":126071,"SoundDuration":126071,"Delta":118097011},{"NoteNumber":63,"Velocity":46,"Duration":126071,"SoundDuration":126071,"Delta":118097011},{"NoteNumber":78,"Velocity":55,"Duration":126071,"SoundDuration":126071,"Delta":118349154},{"NoteNumber":66,"Velocity":46,"Duration":126071,"SoundDuration":126071,"Delta":118349154},{"NoteNumber":76,"Velocity":59,"Duration":84047,"SoundDuration":84047,"Delta":118601297},{"NoteNumber":64,"Velocity":49,"Duration":84047,"SoundDuration":84047,"Delta":118601297},{"NoteNumber":78,"Velocity":55,"Duration":84047,"SoundDuration":84047,"Delta":118685345},{"NoteNumber":66,"Velocity":46,"Duration":84047,"SoundDuration":84047,"Delta":118685345},{"NoteNumber":76,"Velocity":55,"Duration":84047,"SoundDuration":84047,"Delta":118769393},{"NoteNumber":64,"Velocity":46,"Duration":84047,"SoundDuration":84047,"Delta":118769393},{"NoteNumber":72,"Velocity":59,"Duration":124937,"SoundDuration":124937,"Delta":118853440},{"NoteNumber":60,"Velocity":49,"Duration":124937,"SoundDuration":124937,"Delta":118853440},{"NoteNumber":81,"Velocity":53,"Duration":128402,"SoundDuration":128402,"Delta":119103315},{"NoteNumber":69,"Velocity":46,"Duration":128402,"SoundDuration":128402,"Delta":119103315},{"NoteNumber":59,"Velocity":49,"Duration":64201,"SoundDuration":64201,"Delta":119295919},{"NoteNumber":71,"Velocity":58,"Duration":126071,"SoundDuration":126071,"Delta":119360121},{"NoteNumber":66,"Velocity":49,"Duration":2525081,"SoundDuration":2525081,"Delta":119360121},{"NoteNumber":75,"Velocity":55,"Duration":126071,"SoundDuration":126071,"Delta":119612264},{"NoteNumber":78,"Velocity":55,"Duration":126071,"SoundDuration":126071,"Delta":119864407},{"NoteNumber":76,"Velocity":59,"Duration":84047,"SoundDuration":84047,"Delta":120116550},{"NoteNumber":78,"Velocity":55,"Duration":84047,"SoundDuration":84047,"Delta":120200597},{"NoteNumber":76,"Velocity":55,"Duration":84047,"SoundDuration":84047,"Delta":120284645},{"NoteNumber":72,"Velocity":59,"Duration":124367,"SoundDuration":124367,"Delta":120368693},{"NoteNumber":81,"Velocity":55,"Duration":129600,"SoundDuration":129600,"Delta":120617428},{"NoteNumber":71,"Velocity":58,"Duration":126071,"SoundDuration":126071,"Delta":120876630},{"NoteNumber":75,"Velocity":55,"Duration":126071,"SoundDuration":126071,"Delta":121128773},{"NoteNumber":78,"Velocity":55,"Duration":126071,"SoundDuration":126071,"Delta":121380916},{"NoteNumber":76,"Velocity":59,"Duration":84047,"SoundDuration":84047,"Delta":121633059},{"NoteNumber":78,"Velocity":55,"Duration":84047,"SoundDuration":84047,"Delta":121717106},{"NoteNumber":76,"Velocity":55,"Duration":84047,"SoundDuration":84047,"Delta":121801154},{"NoteNumber":72,"Velocity":59,"Duration":127811,"SoundDuration":127811,"Delta":121885202},{"NoteNumber":67,"Velocity":52,"Duration":255623,"SoundDuration":255623,"Delta":121885202},{"NoteNumber":81,"Velocity":55,"Duration":129600,"SoundDuration":129600,"Delta":122140825},{"NoteNumber":66,"Velocity":49,"Duration":259201,"SoundDuration":259201,"Delta":122140825},{"NoteNumber":71,"Velocity":58,"Duration":126071,"SoundDuration":126071,"Delta":122400027},{"NoteNumber":69,"Velocity":49,"Duration":504285,"SoundDuration":504285,"Delta":122400027},{"NoteNumber":75,"Velocity":55,"Duration":126071,"SoundDuration":126071,"Delta":122652170},{"NoteNumber":78,"Velocity":55,"Duration":128211,"SoundDuration":128211,"Delta":122904313},{"NoteNumber":67,"Velocity":49,"Duration":85111,"SoundDuration":85111,"Delta":122904313},{"NoteNumber":69,"Velocity":45,"Duration":86604,"SoundDuration":86604,"Delta":122989424},{"NoteNumber":67,"Velocity":45,"Duration":88261,"SoundDuration":88261,"Delta":123076029},{"NoteNumber":76,"Velocity":59,"Duration":84047,"SoundDuration":84047,"Delta":123164291},{"NoteNumber":66,"Velocity":49,"Duration":3037565,"SoundDuration":3037565,"Delta":123164291},{"NoteNumber":78,"Velocity":55,"Duration":84047,"SoundDuration":84047,"Delta":123248338},{"NoteNumber":76,"Velocity":55,"Duration":84047,"SoundDuration":84047,"Delta":123332386},{"NoteNumber":72,"Velocity":59,"Duration":126071,"SoundDuration":126071,"Delta":123416434},{"NoteNumber":81,"Velocity":55,"Duration":129600,"SoundDuration":129600,"Delta":123668577},{"NoteNumber":71,"Velocity":58,"Duration":126071,"SoundDuration":126071,"Delta":123927778},{"NoteNumber":75,"Velocity":55,"Duration":126071,"SoundDuration":126071,"Delta":124179921},{"NoteNumber":78,"Velocity":55,"Duration":126071,"SoundDuration":126071,"Delta":124432064},{"NoteNumber":76,"Velocity":59,"Duration":84047,"SoundDuration":84047,"Delta":124684207},{"NoteNumber":78,"Velocity":55,"Duration":84047,"SoundDuration":84047,"Delta":124768255},{"NoteNumber":76,"Velocity":55,"Duration":84047,"SoundDuration":84047,"Delta":124852303},{"NoteNumber":72,"Velocity":59,"Duration":124937,"SoundDuration":124937,"Delta":124936350},{"NoteNumber":81,"Velocity":55,"Duration":129600,"SoundDuration":129600,"Delta":125186225},{"NoteNumber":71,"Velocity":58,"Duration":126071,"SoundDuration":126071,"Delta":125445427},{"NoteNumber":75,"Velocity":55,"Duration":126071,"SoundDuration":126071,"Delta":125697570},{"NoteNumber":78,"Velocity":55,"Duration":126071,"SoundDuration":126071,"Delta":125949713},{"NoteNumber":72,"Velocity":63,"Duration":126071,"SoundDuration":126071,"Delta":126201856},{"NoteNumber":64,"Velocity":49,"Duration":632097,"SoundDuration":632097,"Delta":126201856},{"NoteNumber":79,"Velocity":58,"Duration":126071,"SoundDuration":126071,"Delta":126453999},{"NoteNumber":84,"Velocity":59,"Duration":127811,"SoundDuration":127811,"Delta":126706142},{"NoteNumber":66,"Velocity":51,"Duration":63905,"SoundDuration":63905,"Delta":126833953},{"NoteNumber":64,"Velocity":53,"Duration":63905,"SoundDuration":63905,"Delta":126897859},{"NoteNumber":78,"Velocity":71,"Duration":126071,"SoundDuration":126071,"Delta":126961765},{"NoteNumber":62,"Velocity":56,"Duration":756428,"SoundDuration":756428,"Delta":126961765},{"NoteNumber":83,"Velocity":61,"Duration":126071,"SoundDuration":126071,"Delta":127213908},{"NoteNumber":90,"Velocity":63,"Duration":126071,"SoundDuration":126071,"Delta":127466051},{"NoteNumber":88,"Velocity":74,"Duration":255431,"SoundDuration":255431,"Delta":127718194},{"NoteNumber":60,"Velocity":60,"Duration":775993,"SoundDuration":775993,"Delta":127718194},{"NoteNumber":66,"Velocity":60,"Duration":775993,"SoundDuration":775993,"Delta":127718194},{"NoteNumber":93,"Velocity":75,"Duration":258603,"SoundDuration":258603,"Delta":127973626},{"NoteNumber":100,"Velocity":80,"Duration":261958,"SoundDuration":261958,"Delta":128232229},{"NoteNumber":87,"Velocity":67,"Duration":335101,"SoundDuration":335101,"Delta":128428361},{"NoteNumber":95,"Velocity":74,"Duration":302241,"SoundDuration":302241,"Delta":128461221},{"NoteNumber":102,"Velocity":88,"Duration":269275,"SoundDuration":269275,"Delta":128494187},{"NoteNumber":59,"Velocity":70,"Duration":3067282,"SoundDuration":3067282,"Delta":128494187},{"NoteNumber":75,"Velocity":72,"Duration":126071,"SoundDuration":126071,"Delta":128763463},{"NoteNumber":69,"Velocity":61,"Duration":126071,"SoundDuration":126071,"Delta":128763463},{"NoteNumber":78,"Velocity":71,"Duration":126071,"SoundDuration":126071,"Delta":129015606},{"NoteNumber":66,"Velocity":61,"Duration":126071,"SoundDuration":126071,"Delta":129015606},{"NoteNumber":76,"Velocity":77,"Duration":84047,"SoundDuration":84047,"Delta":129267749},{"NoteNumber":67,"Velocity":71,"Duration":126071,"SoundDuration":126071,"Delta":129267749},{"NoteNumber":78,"Velocity":70,"Duration":84047,"SoundDuration":84047,"Delta":129351797},{"NoteNumber":76,"Velocity":69,"Duration":84047,"SoundDuration":84047,"Delta":129435844},{"NoteNumber":72,"Velocity":77,"Duration":124367,"SoundDuration":124367,"Delta":129519892},{"NoteNumber":64,"Velocity":64,"Duration":124367,"SoundDuration":124367,"Delta":129519892},{"NoteNumber":81,"Velocity":71,"Duration":129600,"SoundDuration":129600,"Delta":129768627},{"NoteNumber":67,"Velocity":64,"Duration":129600,"SoundDuration":129600,"Delta":129768627},{"NoteNumber":71,"Velocity":79,"Duration":134637,"SoundDuration":134637,"Delta":130027829},{"NoteNumber":66,"Velocity":69,"Duration":134637,"SoundDuration":134637,"Delta":130027829},{"NoteNumber":75,"Velocity":72,"Duration":126071,"SoundDuration":126071,"Delta":130297104},{"NoteNumber":69,"Velocity":61,"Duration":126071,"SoundDuration":126071,"Delta":130297104},{"NoteNumber":78,"Velocity":71,"Duration":126071,"SoundDuration":126071,"Delta":130549247},{"NoteNumber":66,"Velocity":61,"Duration":126071,"SoundDuration":126071,"Delta":130549247},{"NoteNumber":76,"Velocity":77,"Duration":84047,"SoundDuration":84047,"Delta":130801390},{"NoteNumber":67,"Velocity":69,"Duration":126071,"SoundDuration":126071,"Delta":130801390},{"NoteNumber":78,"Velocity":70,"Duration":84047,"SoundDuration":84047,"Delta":130885438},{"NoteNumber":76,"Velocity":69,"Duration":84047,"SoundDuration":84047,"Delta":130969486},{"NoteNumber":72,"Velocity":77,"Duration":124367,"SoundDuration":124367,"Delta":131053533},{"NoteNumber":64,"Velocity":64,"Duration":124367,"SoundDuration":124367,"Delta":131053533},{"NoteNumber":81,"Velocity":71,"Duration":129600,"SoundDuration":129600,"Delta":131302269},{"NoteNumber":67,"Velocity":64,"Duration":129600,"SoundDuration":129600,"Delta":131302269},{"NoteNumber":78,"Velocity":74,"Duration":248735,"SoundDuration":248735,"Delta":131561470},{"NoteNumber":83,"Velocity":74,"Duration":248735,"SoundDuration":248735,"Delta":131561470},{"NoteNumber":63,"Velocity":62,"Duration":248735,"SoundDuration":248735,"Delta":131561470},{"NoteNumber":77,"Velocity":67,"Duration":255623,"SoundDuration":255623,"Delta":131810206},{"NoteNumber":80,"Velocity":67,"Duration":255623,"SoundDuration":255623,"Delta":131810206},{"NoteNumber":62,"Velocity":61,"Duration":255623,"SoundDuration":255623,"Delta":131810206},{"NoteNumber":76,"Velocity":71,"Duration":249875,"SoundDuration":249875,"Delta":132065829},{"NoteNumber":81,"Velocity":71,"Duration":249875,"SoundDuration":249875,"Delta":132065829},{"NoteNumber":61,"Velocity":59,"Duration":249875,"SoundDuration":249875,"Delta":132065829},{"NoteNumber":75,"Velocity":67,"Duration":254453,"SoundDuration":254453,"Delta":132315704},{"NoteNumber":78,"Velocity":67,"Duration":254453,"SoundDuration":254453,"Delta":132315704},{"NoteNumber":60,"Velocity":53,"Duration":254453,"SoundDuration":254453,"Delta":132315704},{"NoteNumber":74,"Velocity":70,"Duration":252142,"SoundDuration":252142,"Delta":132570157},{"NoteNumber":79,"Velocity":70,"Duration":252142,"SoundDuration":252142,"Delta":132570157},{"NoteNumber":59,"Velocity":56,"Duration":252142,"SoundDuration":252142,"Delta":132570157},{"NoteNumber":74,"Velocity":58,"Duration":256805,"SoundDuration":256805,"Delta":132822300},{"NoteNumber":72,"Velocity":58,"Duration":256805,"SoundDuration":256805,"Delta":132822300},{"NoteNumber":54,"Velocity":50,"Duration":256805,"SoundDuration":256805,"Delta":132822300},{"NoteNumber":71,"Velocity":69,"Duration":126071,"SoundDuration":126071,"Delta":133079106},{"NoteNumber":74,"Velocity":69,"Duration":126071,"SoundDuration":126071,"Delta":133079106},{"NoteNumber":55,"Velocity":55,"Duration":126071,"SoundDuration":126071,"Delta":133079106},{"NoteNumber":67,"Velocity":63,"Duration":126071,"SoundDuration":126071,"Delta":133331249},{"NoteNumber":59,"Velocity":50,"Duration":126071,"SoundDuration":126071,"Delta":133331249},{"NoteNumber":71,"Velocity":60,"Duration":126071,"SoundDuration":126071,"Delta":133583392},{"NoteNumber":55,"Velocity":50,"Duration":126071,"SoundDuration":126071,"Delta":133583392},{"NoteNumber":69,"Velocity":63,"Duration":61906,"SoundDuration":61906,"Delta":133835535},{"NoteNumber":60,"Velocity":61,"Duration":123813,"SoundDuration":123813,"Delta":133835535},{"NoteNumber":69,"Velocity":58,"Duration":61906,"SoundDuration":61906,"Delta":133959348},{"NoteNumber":76,"Velocity":64,"Duration":123813,"SoundDuration":123813,"Delta":134083162},{"NoteNumber":66,"Velocity":57,"Duration":123813,"SoundDuration":123813,"Delta":134083162},{"NoteNumber":81,"Velocity":59,"Duration":126071,"SoundDuration":126071,"Delta":134330789},{"NoteNumber":76,"Velocity":59,"Duration":126071,"SoundDuration":126071,"Delta":134330789},{"NoteNumber":60,"Velocity":57,"Duration":126071,"SoundDuration":126071,"Delta":134330789},{"NoteNumber":59,"Velocity":49,"Duration":69335,"SoundDuration":69335,"Delta":134519896},{"NoteNumber":71,"Velocity":58,"Duration":126071,"SoundDuration":126071,"Delta":134589231},{"NoteNumber":66,"Velocity":49,"Duration":2525080,"SoundDuration":2525080,"Delta":134589231},{"NoteNumber":75,"Velocity":55,"Duration":126071,"SoundDuration":126071,"Delta":134841374},{"NoteNumber":78,"Velocity":55,"Duration":126071,"SoundDuration":126071,"Delta":135093517},{"NoteNumber":76,"Velocity":59,"Duration":84047,"SoundDuration":84047,"Delta":135345660},{"NoteNumber":78,"Velocity":55,"Duration":84047,"SoundDuration":84047,"Delta":135429708},{"NoteNumber":76,"Velocity":55,"Duration":84047,"SoundDuration":84047,"Delta":135513756},{"NoteNumber":72,"Velocity":59,"Duration":124367,"SoundDuration":124367,"Delta":135597803},{"NoteNumber":81,"Velocity":55,"Duration":129600,"SoundDuration":129600,"Delta":135846539},{"NoteNumber":71,"Velocity":58,"Duration":126071,"SoundDuration":126071,"Delta":136105740},{"NoteNumber":75,"Velocity":55,"Duration":126071,"SoundDuration":126071,"Delta":136357883},{"NoteNumber":78,"Velocity":55,"Duration":126071,"SoundDuration":126071,"Delta":136610026},{"NoteNumber":76,"Velocity":59,"Duration":84047,"SoundDuration":84047,"Delta":136862169},{"NoteNumber":78,"Velocity":55,"Duration":84047,"SoundDuration":84047,"Delta":136946217},{"NoteNumber":76,"Velocity":55,"Duration":84047,"SoundDuration":84047,"Delta":137030265},{"NoteNumber":72,"Velocity":59,"Duration":127811,"SoundDuration":127811,"Delta":137114312},{"NoteNumber":67,"Velocity":52,"Duration":255919,"SoundDuration":255919,"Delta":137114312},{"NoteNumber":81,"Velocity":55,"Duration":129600,"SoundDuration":129600,"Delta":137370231},{"NoteNumber":66,"Velocity":49,"Duration":259201,"SoundDuration":259201,"Delta":137370231},{"NoteNumber":71,"Velocity":58,"Duration":126071,"SoundDuration":126071,"Delta":137629433},{"NoteNumber":69,"Velocity":49,"Duration":504286,"SoundDuration":504286,"Delta":137629433},{"NoteNumber":75,"Velocity":55,"Duration":126071,"SoundDuration":126071,"Delta":137881576},{"NoteNumber":78,"Velocity":55,"Duration":128211,"SoundDuration":128211,"Delta":138133719},{"NoteNumber":67,"Velocity":49,"Duration":85111,"SoundDuration":85111,"Delta":138133719},{"NoteNumber":69,"Velocity":45,"Duration":86604,"SoundDuration":86604,"Delta":138218830},{"NoteNumber":67,"Velocity":45,"Duration":88261,"SoundDuration":88261,"Delta":138305435},{"NoteNumber":76,"Velocity":59,"Duration":84047,"SoundDuration":84047,"Delta":138393697},{"NoteNumber":66,"Velocity":49,"Duration":3037564,"SoundDuration":3037564,"Delta":138393697},{"NoteNumber":78,"Velocity":55,"Duration":84047,"SoundDuration":84047,"Delta":138477745},{"NoteNumber":76,"Velocity":55,"Duration":84047,"SoundDuration":84047,"Delta":138561792},{"NoteNumber":72,"Velocity":59,"Duration":126071,"SoundDuration":126071,"Delta":138645840},{"NoteNumber":81,"Velocity":55,"Duration":129600,"SoundDuration":129600,"Delta":138897983},{"NoteNumber":71,"Velocity":58,"Duration":126071,"SoundDuration":126071,"Delta":139157184},{"NoteNumber":75,"Velocity":55,"Duration":126071,"SoundDuration":126071,"Delta":139409327},{"NoteNumber":78,"Velocity":55,"Duration":126071,"SoundDuration":126071,"Delta":139661470},{"NoteNumber":76,"Velocity":59,"Duration":84047,"SoundDuration":84047,"Delta":139913613},{"NoteNumber":78,"Velocity":55,"Duration":84047,"SoundDuration":84047,"Delta":139997661},{"NoteNumber":76,"Velocity":55,"Duration":84047,"SoundDuration":84047,"Delta":140081709},{"NoteNumber":72,"Velocity":59,"Duration":124937,"SoundDuration":124937,"Delta":140165756},{"NoteNumber":81,"Velocity":55,"Duration":129600,"SoundDuration":129600,"Delta":140415631},{"NoteNumber":71,"Velocity":58,"Duration":126071,"SoundDuration":126071,"Delta":140674833},{"NoteNumber":75,"Velocity":55,"Duration":126071,"SoundDuration":126071,"Delta":140926976},{"NoteNumber":78,"Velocity":55,"Duration":126071,"SoundDuration":126071,"Delta":141179119},{"NoteNumber":72,"Velocity":63,"Duration":126071,"SoundDuration":126071,"Delta":141431262},{"NoteNumber":64,"Velocity":49,"Duration":632097,"SoundDuration":632097,"Delta":141431262},{"NoteNumber":79,"Velocity":58,"Duration":126071,"SoundDuration":126071,"Delta":141683405},{"NoteNumber":84,"Velocity":59,"Duration":127811,"SoundDuration":127811,"Delta":141935548},{"NoteNumber":66,"Velocity":51,"Duration":63905,"SoundDuration":63905,"Delta":142063360},{"NoteNumber":64,"Velocity":53,"Duration":63905,"SoundDuration":63905,"Delta":142127266},{"NoteNumber":78,"Velocity":71,"Duration":126071,"SoundDuration":126071,"Delta":142191171},{"NoteNumber":62,"Velocity":56,"Duration":756428,"SoundDuration":756428,"Delta":142191171},{"NoteNumber":83,"Velocity":61,"Duration":126071,"SoundDuration":126071,"Delta":142443314},{"NoteNumber":90,"Velocity":63,"Duration":126071,"SoundDuration":126071,"Delta":142695457},{"NoteNumber":88,"Velocity":74,"Duration":255431,"SoundDuration":255431,"Delta":142947600},{"NoteNumber":60,"Velocity":60,"Duration":775993,"SoundDuration":775993,"Delta":142947600},{"NoteNumber":66,"Velocity":60,"Duration":775993,"SoundDuration":775993,"Delta":142947600},{"NoteNumber":93,"Velocity":75,"Duration":258603,"SoundDuration":258603,"Delta":143203032},{"NoteNumber":100,"Velocity":80,"Duration":261958,"SoundDuration":261958,"Delta":143461635},{"NoteNumber":87,"Velocity":67,"Duration":335101,"SoundDuration":335101,"Delta":143657767},{"NoteNumber":95,"Velocity":74,"Duration":302241,"SoundDuration":302241,"Delta":143690627},{"NoteNumber":102,"Velocity":88,"Duration":269275,"SoundDuration":269275,"Delta":143723594},{"NoteNumber":59,"Velocity":70,"Duration":2985065,"SoundDuration":2985065,"Delta":143723594},{"NoteNumber":75,"Velocity":72,"Duration":128205,"SoundDuration":128205,"Delta":143992869},{"NoteNumber":69,"Velocity":61,"Duration":128205,"SoundDuration":128205,"Delta":143992869},{"NoteNumber":78,"Velocity":71,"Duration":126050,"SoundDuration":126050,"Delta":144249280},{"NoteNumber":66,"Velocity":61,"Duration":126050,"SoundDuration":126050,"Delta":144249280},{"NoteNumber":76,"Velocity":77,"Duration":84033,"SoundDuration":84033,"Delta":144501381},{"NoteNumber":67,"Velocity":71,"Duration":126050,"SoundDuration":126050,"Delta":144501381},{"NoteNumber":78,"Velocity":70,"Duration":84033,"SoundDuration":84033,"Delta":144585414},{"NoteNumber":76,"Velocity":69,"Duration":84033,"SoundDuration":84033,"Delta":144669448},{"NoteNumber":72,"Velocity":77,"Duration":124367,"SoundDuration":124367,"Delta":144753482},{"NoteNumber":64,"Velocity":64,"Duration":124367,"SoundDuration":124367,"Delta":144753482},{"NoteNumber":81,"Velocity":71,"Duration":129600,"SoundDuration":129600,"Delta":145002217},{"NoteNumber":67,"Velocity":64,"Duration":129600,"SoundDuration":129600,"Delta":145002217},{"NoteNumber":71,"Velocity":79,"Duration":134637,"SoundDuration":134637,"Delta":145261419},{"NoteNumber":66,"Velocity":69,"Duration":134637,"SoundDuration":134637,"Delta":145261419},{"NoteNumber":75,"Velocity":72,"Duration":126071,"SoundDuration":126071,"Delta":145530694},{"NoteNumber":69,"Velocity":61,"Duration":126071,"SoundDuration":126071,"Delta":145530694},{"NoteNumber":78,"Velocity":71,"Duration":126071,"SoundDuration":126071,"Delta":145782837},{"NoteNumber":66,"Velocity":61,"Duration":126071,"SoundDuration":126071,"Delta":145782837},{"NoteNumber":76,"Velocity":77,"Duration":84047,"SoundDuration":84047,"Delta":146034980},{"NoteNumber":67,"Velocity":69,"Duration":126071,"SoundDuration":126071,"Delta":146034980},{"NoteNumber":78,"Velocity":70,"Duration":84047,"SoundDuration":84047,"Delta":146119028},{"NoteNumber":76,"Velocity":69,"Duration":84047,"SoundDuration":84047,"Delta":146203075},{"NoteNumber":72,"Velocity":77,"Duration":124367,"SoundDuration":124367,"Delta":146287123},{"NoteNumber":64,"Velocity":64,"Duration":124367,"SoundDuration":124367,"Delta":146287123},{"NoteNumber":81,"Velocity":71,"Duration":129600,"SoundDuration":129600,"Delta":146535859},{"NoteNumber":67,"Velocity":64,"Duration":129600,"SoundDuration":129600,"Delta":146535859},{"NoteNumber":59,"Velocity":62,"Duration":64800,"SoundDuration":64800,"Delta":146730260},{"NoteNumber":71,"Velocity":82,"Duration":773561,"SoundDuration":773561,"Delta":146795060},{"NoteNumber":75,"Velocity":75,"Duration":126071,"SoundDuration":126071,"Delta":147064336},{"NoteNumber":78,"Velocity":74,"Duration":126071,"SoundDuration":126071,"Delta":147316479},{"NoteNumber":76,"Velocity":56,"Duration":760079,"SoundDuration":760079,"Delta":147568622},{"NoteNumber":84,"Velocity":72,"Duration":84047,"SoundDuration":84047,"Delta":147568622},{"NoteNumber":69,"Velocity":61,"Duration":252142,"SoundDuration":252142,"Delta":147568622},{"NoteNumber":86,"Velocity":66,"Duration":84047,"SoundDuration":84047,"Delta":147652669},{"NoteNumber":84,"Velocity":66,"Duration":84047,"SoundDuration":84047,"Delta":147736717},{"NoteNumber":81,"Velocity":73,"Duration":124367,"SoundDuration":124367,"Delta":147820765},{"NoteNumber":66,"Velocity":56,"Duration":248735,"SoundDuration":248735,"Delta":147820765},{"NoteNumber":84,"Velocity":67,"Duration":129600,"SoundDuration":129600,"Delta":148069500},{"NoteNumber":69,"Velocity":55,"Duration":259201,"SoundDuration":259201,"Delta":148069500},{"NoteNumber":71,"Velocity":82,"Duration":773561,"SoundDuration":773561,"Delta":148328702},{"NoteNumber":75,"Velocity":75,"Duration":126071,"SoundDuration":126071,"Delta":148597977},{"NoteNumber":78,"Velocity":74,"Duration":126071,"SoundDuration":126071,"Delta":148850120},{"NoteNumber":76,"Velocity":56,"Duration":760079,"SoundDuration":760079,"Delta":149102263},{"NoteNumber":84,"Velocity":72,"Duration":84047,"SoundDuration":84047,"Delta":149102263},{"NoteNumber":69,"Velocity":61,"Duration":252142,"SoundDuration":252142,"Delta":149102263},{"NoteNumber":86,"Velocity":66,"Duration":84047,"SoundDuration":84047,"Delta":149186311},{"NoteNumber":84,"Velocity":66,"Duration":84047,"SoundDuration":84047,"Delta":149270358},{"NoteNumber":81,"Velocity":73,"Duration":124367,"SoundDuration":124367,"Delta":149354406},{"NoteNumber":66,"Velocity":56,"Duration":248735,"SoundDuration":248735,"Delta":149354406},{"NoteNumber":84,"Velocity":67,"Duration":129600,"SoundDuration":129600,"Delta":149603142},{"NoteNumber":69,"Velocity":55,"Duration":259201,"SoundDuration":259201,"Delta":149603142},{"NoteNumber":71,"Velocity":62,"Duration":248735,"SoundDuration":248735,"Delta":149862343},{"NoteNumber":77,"Velocity":67,"Duration":255623,"SoundDuration":255623,"Delta":150111079},{"NoteNumber":80,"Velocity":67,"Duration":255623,"SoundDuration":255623,"Delta":150111079},{"NoteNumber":74,"Velocity":61,"Duration":255623,"SoundDuration":255623,"Delta":150111079},{"NoteNumber":81,"Velocity":71,"Duration":249875,"SoundDuration":249875,"Delta":150366702},{"NoteNumber":76,"Velocity":71,"Duration":249875,"SoundDuration":249875,"Delta":150366702},{"NoteNumber":73,"Velocity":59,"Duration":249875,"SoundDuration":249875,"Delta":150366702},{"NoteNumber":75,"Velocity":67,"Duration":254453,"SoundDuration":254453,"Delta":150616577},{"NoteNumber":78,"Velocity":67,"Duration":254453,"SoundDuration":254453,"Delta":150616577},{"NoteNumber":72,"Velocity":53,"Duration":254453,"SoundDuration":254453,"Delta":150616577},{"NoteNumber":74,"Velocity":70,"Duration":252142,"SoundDuration":252142,"Delta":150871030},{"NoteNumber":79,"Velocity":70,"Duration":252142,"SoundDuration":252142,"Delta":150871030},{"NoteNumber":71,"Velocity":56,"Duration":252142,"SoundDuration":252142,"Delta":150871030},{"NoteNumber":74,"Velocity":58,"Duration":256805,"SoundDuration":256805,"Delta":151123173},{"NoteNumber":72,"Velocity":58,"Duration":256805,"SoundDuration":256805,"Delta":151123173},{"NoteNumber":66,"Velocity":50,"Duration":256805,"SoundDuration":256805,"Delta":151123173},{"NoteNumber":74,"Velocity":71,"Duration":128402,"SoundDuration":128402,"Delta":151379979},{"NoteNumber":71,"Velocity":71,"Duration":128402,"SoundDuration":128402,"Delta":151379979},{"NoteNumber":55,"Velocity":57,"Duration":128402,"SoundDuration":128402,"Delta":151379979},{"NoteNumber":67,"Velocity":64,"Duration":128402,"SoundDuration":128402,"Delta":151636784},{"NoteNumber":59,"Velocity":51,"Duration":128402,"SoundDuration":128402,"Delta":151636784},{"NoteNumber":71,"Velocity":62,"Duration":128402,"SoundDuration":128402,"Delta":151893590},{"NoteNumber":55,"Velocity":51,"Duration":128402,"SoundDuration":128402,"Delta":151893590},{"NoteNumber":69,"Velocity":64,"Duration":61906,"SoundDuration":61906,"Delta":152150395},{"NoteNumber":60,"Velocity":62,"Duration":123813,"SoundDuration":123813,"Delta":152150395},{"NoteNumber":69,"Velocity":60,"Duration":61906,"SoundDuration":61906,"Delta":152274209},{"NoteNumber":76,"Velocity":66,"Duration":123813,"SoundDuration":123813,"Delta":152398022},{"NoteNumber":66,"Velocity":59,"Duration":123813,"SoundDuration":123813,"Delta":152398022},{"NoteNumber":81,"Velocity":61,"Duration":130208,"SoundDuration":130208,"Delta":152645649},{"NoteNumber":76,"Velocity":61,"Duration":130208,"SoundDuration":130208,"Delta":152645649},{"NoteNumber":60,"Velocity":59,"Duration":130208,"SoundDuration":130208,"Delta":152645649},{"NoteNumber":83,"Velocity":61,"Duration":137441,"SoundDuration":137441,"Delta":152906066},{"NoteNumber":59,"Velocity":48,"Duration":137441,"SoundDuration":137441,"Delta":152906066},{"NoteNumber":85,"Velocity":62,"Duration":135813,"SoundDuration":135813,"Delta":153043508},{"NoteNumber":61,"Velocity":49,"Duration":135813,"SoundDuration":135813,"Delta":153043508},{"NoteNumber":87,"Velocity":64,"Duration":134129,"SoundDuration":134129,"Delta":153179321},{"NoteNumber":63,"Velocity":51,"Duration":134129,"SoundDuration":134129,"Delta":153179321},{"NoteNumber":88,"Velocity":66,"Duration":132472,"SoundDuration":132472,"Delta":153313451},{"NoteNumber":64,"Velocity":52,"Duration":132472,"SoundDuration":132472,"Delta":153313451},{"NoteNumber":90,"Velocity":68,"Duration":131555,"SoundDuration":131555,"Delta":153445923},{"NoteNumber":66,"Velocity":53,"Duration":131555,"SoundDuration":131555,"Delta":153445923},{"NoteNumber":91,"Velocity":69,"Duration":131555,"SoundDuration":131555,"Delta":153577479},{"NoteNumber":67,"Velocity":55,"Duration":131555,"SoundDuration":131555,"Delta":153577479},{"NoteNumber":93,"Velocity":71,"Duration":270563,"SoundDuration":270563,"Delta":153709035},{"NoteNumber":69,"Velocity":57,"Duration":270563,"SoundDuration":270563,"Delta":153709035},{"NoteNumber":91,"Velocity":70,"Duration":86926,"SoundDuration":86926,"Delta":153979598},{"NoteNumber":67,"Velocity":56,"Duration":86926,"SoundDuration":86926,"Delta":153979598},{"NoteNumber":93,"Velocity":66,"Duration":86926,"SoundDuration":86926,"Delta":154066524},{"NoteNumber":69,"Velocity":52,"Duration":86926,"SoundDuration":86926,"Delta":154066524},{"NoteNumber":91,"Velocity":66,"Duration":86926,"SoundDuration":86926,"Delta":154153450},{"NoteNumber":67,"Velocity":52,"Duration":86926,"SoundDuration":86926,"Delta":154153450},{"NoteNumber":90,"Velocity":71,"Duration":134024,"SoundDuration":134024,"Delta":154240377},{"NoteNumber":66,"Velocity":57,"Duration":134024,"SoundDuration":134024,"Delta":154240377},{"NoteNumber":88,"Velocity":66,"Duration":137880,"SoundDuration":137880,"Delta":154374401},{"NoteNumber":64,"Velocity":52,"Duration":137880,"SoundDuration":137880,"Delta":154374401},{"NoteNumber":90,"Velocity":69,"Duration":137552,"SoundDuration":137552,"Delta":154512281},{"NoteNumber":66,"Velocity":55,"Duration":137552,"SoundDuration":137552,"Delta":154512281},{"NoteNumber":91,"Velocity":58,"Duration":138655,"SoundDuration":138655,"Delta":154649833},{"NoteNumber":67,"Velocity":46,"Duration":138655,"SoundDuration":138655,"Delta":154649833},{"NoteNumber":90,"Velocity":62,"Duration":139985,"SoundDuration":139985,"Delta":154788488},{"NoteNumber":66,"Velocity":49,"Duration":139985,"SoundDuration":139985,"Delta":154788488},{"NoteNumber":86,"Velocity":60,"Duration":141368,"SoundDuration":141368,"Delta":154928474},{"NoteNumber":62,"Velocity":48,"Duration":141368,"SoundDuration":141368,"Delta":154928474},{"NoteNumber":83,"Velocity":58,"Duration":283902,"SoundDuration":283902,"Delta":155069843},{"NoteNumber":59,"Velocity":46,"Duration":283902,"SoundDuration":283902,"Delta":155069843},{"NoteNumber":84,"Velocity":58,"Duration":137552,"SoundDuration":137552,"Delta":155353745},{"NoteNumber":60,"Velocity":46,"Duration":137552,"SoundDuration":137552,"Delta":155353745},{"NoteNumber":86,"Velocity":60,"Duration":136134,"SoundDuration":136134,"Delta":155491298},{"NoteNumber":62,"Velocity":48,"Duration":136134,"SoundDuration":136134,"Delta":155491298},{"NoteNumber":88,"Velocity":61,"Duration":134756,"SoundDuration":134756,"Delta":155627432},{"NoteNumber":64,"Velocity":48,"Duration":134756,"SoundDuration":134756,"Delta":155627432},{"NoteNumber":90,"Velocity":63,"Duration":133299,"SoundDuration":133299,"Delta":155762188},{"NoteNumber":66,"Velocity":50,"Duration":133299,"SoundDuration":133299,"Delta":155762188},{"NoteNumber":91,"Velocity":66,"Duration":131960,"SoundDuration":131960,"Delta":155895487},{"NoteNumber":67,"Velocity":52,"Duration":131960,"SoundDuration":131960,"Delta":155895487},{"NoteNumber":88,"Velocity":68,"Duration":135292,"SoundDuration":135292,"Delta":156027448},{"NoteNumber":64,"Velocity":53,"Duration":135292,"SoundDuration":135292,"Delta":156027448},{"NoteNumber":86,"Velocity":70,"Duration":132676,"SoundDuration":132676,"Delta":156162740},{"NoteNumber":62,"Velocity":56,"Duration":132676,"SoundDuration":132676,"Delta":156162740},{"NoteNumber":88,"Velocity":69,"Duration":133921,"SoundDuration":133921,"Delta":156295416},{"NoteNumber":64,"Velocity":55,"Duration":133921,"SoundDuration":133921,"Delta":156295416},{"NoteNumber":86,"Velocity":64,"Duration":135177,"SoundDuration":135177,"Delta":156429338},{"NoteNumber":62,"Velocity":51,"Duration":135177,"SoundDuration":135177,"Delta":156429338},{"NoteNumber":83,"Velocity":60,"Duration":141053,"SoundDuration":141053,"Delta":156564515},{"NoteNumber":59,"Velocity":48,"Duration":141053,"SoundDuration":141053,"Delta":156564515},{"NoteNumber":79,"Velocity":59,"Duration":135920,"SoundDuration":135920,"Delta":156705568},{"NoteNumber":55,"Velocity":47,"Duration":135920,"SoundDuration":135920,"Delta":156705568},{"NoteNumber":81,"Velocity":63,"Duration":134026,"SoundDuration":134026,"Delta":156841489},{"NoteNumber":57,"Velocity":50,"Duration":134026,"SoundDuration":134026,"Delta":156841489},{"NoteNumber":83,"Velocity":68,"Duration":132164,"SoundDuration":132164,"Delta":156975515},{"NoteNumber":59,"Velocity":53,"Duration":132164,"SoundDuration":132164,"Delta":156975515},{"NoteNumber":86,"Velocity":67,"Duration":131762,"SoundDuration":131762,"Delta":157107680},{"NoteNumber":62,"Velocity":52,"Duration":131762,"SoundDuration":131762,"Delta":157107680},{"NoteNumber":84,"Velocity":66,"Duration":132571,"SoundDuration":132571,"Delta":157239442},{"NoteNumber":60,"Velocity":52,"Duration":132571,"SoundDuration":132571,"Delta":157239442},{"NoteNumber":83,"Velocity":64,"Duration":133195,"SoundDuration":133195,"Delta":157372014},{"NoteNumber":59,"Velocity":51,"Duration":133195,"SoundDuration":133195,"Delta":157372014},{"NoteNumber":84,"Velocity":62,"Duration":133817,"SoundDuration":133817,"Delta":157505210},{"NoteNumber":60,"Velocity":49,"Duration":133817,"SoundDuration":133817,"Delta":157505210},{"NoteNumber":88,"Velocity":61,"Duration":143551,"SoundDuration":143551,"Delta":157639027},{"NoteNumber":64,"Velocity":48,"Duration":143551,"SoundDuration":143551,"Delta":157639027},{"NoteNumber":59,"Velocity":59,"Duration":135281,"SoundDuration":135281,"Delta":157782579},{"NoteNumber":75,"Velocity":45,"Duration":89977,"SoundDuration":89977,"Delta":157872766},{"NoteNumber":83,"Velocity":53,"Duration":89977,"SoundDuration":89977,"Delta":157872766},{"NoteNumber":71,"Velocity":53,"Duration":89766,"SoundDuration":89766,"Delta":157962744},{"NoteNumber":66,"Velocity":53,"Duration":134024,"SoundDuration":134024,"Delta":158052510},{"NoteNumber":83,"Velocity":53,"Duration":89142,"SoundDuration":89142,"Delta":158141860},{"NoteNumber":75,"Velocity":45,"Duration":89142,"SoundDuration":89142,"Delta":158141860},{"NoteNumber":71,"Velocity":53,"Duration":88832,"SoundDuration":88832,"Delta":158231003},{"NoteNumber":75,"Velocity":66,"Duration":68612,"SoundDuration":68612,"Delta":158319835},{"NoteNumber":75,"Velocity":45,"Duration":91482,"SoundDuration":91482,"Delta":158411318},{"NoteNumber":83,"Velocity":53,"Duration":91482,"SoundDuration":91482,"Delta":158411318},{"NoteNumber":71,"Velocity":53,"Duration":91483,"SoundDuration":91483,"Delta":158502801},{"NoteNumber":59,"Velocity":57,"Duration":134297,"SoundDuration":134297,"Delta":158594284},{"NoteNumber":76,"Velocity":45,"Duration":89349,"SoundDuration":89349,"Delta":158683907},{"NoteNumber":81,"Velocity":53,"Duration":89349,"SoundDuration":89349,"Delta":158683907},{"NoteNumber":72,"Velocity":53,"Duration":89349,"SoundDuration":89349,"Delta":158773256},{"NoteNumber":66,"Velocity":53,"Duration":133404,"SoundDuration":133404,"Delta":158862606},{"NoteNumber":81,"Velocity":53,"Duration":88936,"SoundDuration":88936,"Delta":158951542},{"NoteNumber":76,"Velocity":45,"Duration":88936,"SoundDuration":88936,"Delta":158951542},{"NoteNumber":72,"Velocity":53,"Duration":88727,"SoundDuration":88727,"Delta":159040478},{"NoteNumber":76,"Velocity":53,"Duration":68281,"SoundDuration":68281,"Delta":159129206},{"NoteNumber":76,"Velocity":45,"Duration":91041,"SoundDuration":91041,"Delta":159220248},{"NoteNumber":81,"Velocity":53,"Duration":91041,"SoundDuration":91041,"Delta":159220248},{"NoteNumber":72,"Velocity":53,"Duration":91041,"SoundDuration":91041,"Delta":159311289},{"NoteNumber":59,"Velocity":59,"Duration":144050,"SoundDuration":144050,"Delta":159402331},{"NoteNumber":83,"Velocity":53,"Duration":94572,"SoundDuration":94572,"Delta":159498364},{"NoteNumber":75,"Velocity":45,"Duration":94572,"SoundDuration":94572,"Delta":159498364},{"NoteNumber":71,"Velocity":53,"Duration":90187,"SoundDuration":90187,"Delta":159592937},{"NoteNumber":66,"Velocity":53,"Duration":134965,"SoundDuration":134965,"Delta":159683124},{"NoteNumber":75,"Velocity":45,"Duration":89766,"SoundDuration":89766,"Delta":159773207},{"NoteNumber":83,"Velocity":53,"Duration":89766,"SoundDuration":89766,"Delta":159773207},{"NoteNumber":71,"Velocity":53,"Duration":89662,"SoundDuration":89662,"Delta":159862973},{"NoteNumber":75,"Velocity":66,"Duration":68612,"SoundDuration":68612,"Delta":159952636},{"NoteNumber":75,"Velocity":45,"Duration":91482,"SoundDuration":91482,"Delta":160044119},{"NoteNumber":83,"Velocity":53,"Duration":91482,"SoundDuration":91482,"Delta":160044119},{"NoteNumber":71,"Velocity":53,"Duration":91483,"SoundDuration":91483,"Delta":160135602},{"NoteNumber":59,"Velocity":57,"Duration":134649,"SoundDuration":134649,"Delta":160227085},{"NoteNumber":81,"Velocity":53,"Duration":89766,"SoundDuration":89766,"Delta":160316851},{"NoteNumber":76,"Velocity":45,"Duration":89766,"SoundDuration":89766,"Delta":160316851},{"NoteNumber":72,"Velocity":53,"Duration":89349,"SoundDuration":89349,"Delta":160406618},{"NoteNumber":66,"Velocity":53,"Duration":133714,"SoundDuration":133714,"Delta":160495968},{"NoteNumber":81,"Velocity":53,"Duration":88936,"SoundDuration":88936,"Delta":160585214},{"NoteNumber":76,"Velocity":45,"Duration":88936,"SoundDuration":88936,"Delta":160585214},{"NoteNumber":72,"Velocity":53,"Duration":88727,"SoundDuration":88727,"Delta":160674150},{"NoteNumber":76,"Velocity":53,"Duration":68281,"SoundDuration":68281,"Delta":160762878},{"NoteNumber":81,"Velocity":53,"Duration":91041,"SoundDuration":91041,"Delta":160853919},{"NoteNumber":76,"Velocity":45,"Duration":91041,"SoundDuration":91041,"Delta":160853919},{"NoteNumber":72,"Velocity":53,"Duration":91041,"SoundDuration":91041,"Delta":160944961},{"NoteNumber":59,"Velocity":59,"Duration":140541,"SoundDuration":140541,"Delta":161036002},{"NoteNumber":75,"Velocity":45,"Duration":92923,"SoundDuration":92923,"Delta":161129697},{"NoteNumber":83,"Velocity":53,"Duration":92923,"SoundDuration":92923,"Delta":161129697},{"NoteNumber":71,"Velocity":52,"Duration":89766,"SoundDuration":89766,"Delta":161222621},{"NoteNumber":66,"Velocity":55,"Duration":134025,"SoundDuration":134025,"Delta":161312387},{"NoteNumber":75,"Velocity":45,"Duration":89039,"SoundDuration":89039,"Delta":161401841},{"NoteNumber":83,"Velocity":53,"Duration":89039,"SoundDuration":89039,"Delta":161401841},{"NoteNumber":71,"Velocity":55,"Duration":88623,"SoundDuration":88623,"Delta":161490881},{"NoteNumber":75,"Velocity":68,"Duration":66182,"SoundDuration":66182,"Delta":161579504},{"NoteNumber":75,"Velocity":46,"Duration":88935,"SoundDuration":88935,"Delta":161667816},{"NoteNumber":83,"Velocity":57,"Duration":88935,"SoundDuration":88935,"Delta":161667816},{"NoteNumber":71,"Velocity":56,"Duration":89831,"SoundDuration":89831,"Delta":161756752},{"NoteNumber":78,"Velocity":64,"Duration":139211,"SoundDuration":139211,"Delta":161846583},{"NoteNumber":75,"Velocity":48,"Duration":91943,"SoundDuration":91943,"Delta":161939391},{"NoteNumber":83,"Velocity":57,"Duration":91943,"SoundDuration":91943,"Delta":161939391},{"NoteNumber":71,"Velocity":56,"Duration":89142,"SoundDuration":89142,"Delta":162031334},{"NoteNumber":75,"Velocity":55,"Duration":66493,"SoundDuration":66493,"Delta":162120477},{"NoteNumber":83,"Velocity":53,"Duration":88005,"SoundDuration":88005,"Delta":162209100},{"NoteNumber":75,"Velocity":46,"Duration":88005,"SoundDuration":88005,"Delta":162209100},{"NoteNumber":71,"Velocity":53,"Duration":87804,"SoundDuration":87804,"Delta":162297105},{"NoteNumber":78,"Velocity":53,"Duration":133194,"SoundDuration":133194,"Delta":162384909},{"NoteNumber":75,"Velocity":44,"Duration":89558,"SoundDuration":89558,"Delta":162473429},{"NoteNumber":83,"Velocity":51,"Duration":89558,"SoundDuration":89558,"Delta":162473429},{"NoteNumber":71,"Velocity":49,"Duration":90507,"SoundDuration":90507,"Delta":162562987},{"NoteNumber":75,"Velocity":55,"Duration":70975,"SoundDuration":70975,"Delta":162653495},{"NoteNumber":83,"Velocity":49,"Duration":92837,"SoundDuration":92837,"Delta":162748129},{"NoteNumber":75,"Velocity":41,"Duration":92837,"SoundDuration":92837,"Delta":162748129},{"NoteNumber":71,"Velocity":48,"Duration":90934,"SoundDuration":90934,"Delta":162840967},{"NoteNumber":78,"Velocity":47,"Duration":135600,"SoundDuration":135600,"Delta":162931901},{"NoteNumber":83,"Velocity":47,"Duration":90082,"SoundDuration":90082,"Delta":163022407},{"NoteNumber":75,"Velocity":39,"Duration":90082,"SoundDuration":90082,"Delta":163022407},{"NoteNumber":71,"Velocity":46,"Duration":89662,"SoundDuration":89662,"Delta":163112490},{"NoteNumber":75,"Velocity":47,"Duration":68391,"SoundDuration":68391,"Delta":163202152},{"NoteNumber":75,"Velocity":39,"Duration":92230,"SoundDuration":92230,"Delta":163293414},{"NoteNumber":83,"Velocity":46,"Duration":92230,"SoundDuration":92230,"Delta":163293414},{"NoteNumber":71,"Velocity":45,"Duration":93205,"SoundDuration":93205,"Delta":163385644},{"NoteNumber":78,"Velocity":50,"Duration":141184,"SoundDuration":141184,"Delta":163478850},{"NoteNumber":75,"Velocity":37,"Duration":93932,"SoundDuration":93932,"Delta":163572949},{"NoteNumber":83,"Velocity":44,"Duration":93932,"SoundDuration":93932,"Delta":163572949},{"NoteNumber":71,"Velocity":44,"Duration":94496,"SoundDuration":94496,"Delta":163666882},{"NoteNumber":75,"Velocity":42,"Duration":71582,"SoundDuration":71582,"Delta":163761378},{"NoteNumber":83,"Velocity":42,"Duration":96625,"SoundDuration":96625,"Delta":163856968},{"NoteNumber":75,"Velocity":36,"Duration":96625,"SoundDuration":96625,"Delta":163856968},{"NoteNumber":71,"Velocity":42,"Duration":97857,"SoundDuration":97857,"Delta":163953594},{"NoteNumber":78,"Velocity":42,"Duration":148920,"SoundDuration":148920,"Delta":164051451},{"NoteNumber":83,"Velocity":41,"Duration":100170,"SoundDuration":100170,"Delta":164150415},{"NoteNumber":75,"Velocity":35,"Duration":100170,"SoundDuration":100170,"Delta":164150415},{"NoteNumber":71,"Velocity":40,"Duration":154835,"SoundDuration":154835,"Delta":164250586},{"NoteNumber":90,"Velocity":41,"Duration":1474660,"SoundDuration":1474660,"Delta":164409392},{"NoteNumber":87,"Velocity":41,"Duration":1474660,"SoundDuration":1474660,"Delta":164409392},{"NoteNumber":99,"Velocity":41,"Duration":1474660,"SoundDuration":1474660,"Delta":164409392},{"NoteNumber":83,"Velocity":37,"Duration":1474660,"SoundDuration":1474660,"Delta":164409392},{"NoteNumber":78,"Velocity":37,"Duration":1474660,"SoundDuration":1474660,"Delta":164409392},{"NoteNumber":71,"Velocity":37,"Duration":1470528,"SoundDuration":1470528,"Delta":164409392},{"NoteNumber":71,"Velocity":46,"Duration":925313,"SoundDuration":925313,"Delta":165884053},{"NoteNumber":48,"Velocity":49,"Duration":184086,"SoundDuration":184086,"Delta":165884053},{"NoteNumber":54,"Velocity":44,"Duration":181709,"SoundDuration":181709,"Delta":166068140},{"NoteNumber":60,"Velocity":40,"Duration":179322,"SoundDuration":179322,"Delta":166249849},{"NoteNumber":64,"Velocity":44,"Duration":186491,"SoundDuration":186491,"Delta":166429172},{"NoteNumber":66,"Velocity":47,"Duration":193702,"SoundDuration":193702,"Delta":166615663},{"NoteNumber":69,"Velocity":49,"Duration":1237112,"SoundDuration":1237112,"Delta":166809366},{"NoteNumber":67,"Velocity":47,"Duration":208695,"SoundDuration":208695,"Delta":168046479},{"NoteNumber":69,"Velocity":45,"Duration":208695,"SoundDuration":208695,"Delta":168307348},{"NoteNumber":71,"Velocity":46,"Duration":220183,"SoundDuration":220183,"Delta":168568218},{"NoteNumber":72,"Velocity":45,"Duration":235294,"SoundDuration":235294,"Delta":168843447},{"NoteNumber":63,"Velocity":37,"Duration":1100917,"SoundDuration":1100917,"Delta":169137565},{"NoteNumber":71,"Velocity":45,"Duration":1100917,"SoundDuration":1100917,"Delta":169137565},{"NoteNumber":47,"Velocity":27,"Duration":1100917,"SoundDuration":1100917,"Delta":169137565},{"NoteNumber":54,"Velocity":32,"Duration":1100917,"SoundDuration":1100917,"Delta":169137565},{"NoteNumber":87,"Velocity":44,"Duration":2526316,"SoundDuration":2526316,"Delta":170238482},{"NoteNumber":78,"Velocity":36,"Duration":2526316,"SoundDuration":2526316,"Delta":170238482},{"NoteNumber":75,"Velocity":36,"Duration":2526316,"SoundDuration":2526316,"Delta":170238482},{"NoteNumber":59,"Velocity":27,"Duration":2526316,"SoundDuration":2526316,"Delta":170238482},{"NoteNumber":66,"Velocity":27,"Duration":2526316,"SoundDuration":2526316,"Delta":170238482},{"NoteNumber":71,"Velocity":32,"Duration":2526316,"SoundDuration":2526316,"Delta":170238482}],"license":{"name":"Creative Commons Attribution-ShareAlike 3.0 Germany","url":"http://creativecommons.org/licenses/by-sa/3.0/de/deed.en","text":"The MIDI, audio (MP3, OGG) and video files of Bernd Krueger are licensed under the cc-by-sa Germany License. This means that you can use and adapt the files, as long as you attribute the copyright holder.\n\nName: Bernd Krueger\nSource: http://www.piano-midi.de\n\nThe distribution or public playback of the files is only allowed under identical license conditions.\n\nThe scores are open source.","attribution":"MIDI files by Bernd Krueger (piano-midi.de)","attributionUrl":"http://www.piano-midi.de"}}