{"title":"España, Op. 165 No. 1: Prelude","artist":"Albéniz","durationMs":92933,"midiSha256":"901b938a5d1754186236e99a5c4dbd254d4f66e39f987927fa2e4f766a071b6a","midiObject":[{"NoteNumber":81,"Velocity":60,"Duration":321096,"SoundDuration":321096,"Delta":0},{"NoteNumber":57,"Velocity":48,"Duration":321096,"SoundDuration":321096,"Delta":0},{"NoteNumber":88,"Velocity":66,"Duration":1932553,"SoundDuration":1932553,"Delta":321096},{"NoteNumber":64,"Velocity":52,"Duration":1932553,"SoundDuration":1932553,"Delta":321096},{"NoteNumber":86,"Velocity":55,"Duration":66666,"SoundDuration":66666,"Delta":2253649},{"NoteNumber":62,"Velocity":42,"Duration":66666,"SoundDuration":66666,"Delta":2253649},{"NoteNumber":88,"Velocity":47,"Duration":66666,"SoundDuration":66666,"Delta":2320315},{"NoteNumber":64,"Velocity":42,"Duration":66666,"SoundDuration":66666,"Delta":2320315},{"NoteNumber":86,"Velocity":62,"Duration":263183,"SoundDuration":263183,"Delta":2386982},{"NoteNumber":62,"Velocity":49,"Duration":263183,"SoundDuration":263183,"Delta":2386982},{"NoteNumber":84,"Velocity":57,"Duration":266666,"SoundDuration":266666,"Delta":2650166},{"NoteNumber":60,"Velocity":45,"Duration":266666,"SoundDuration":266666,"Delta":2650166},{"NoteNumber":86,"Velocity":57,"Duration":273972,"SoundDuration":273972,"Delta":2916832},{"NoteNumber":62,"Velocity":45,"Duration":273972,"SoundDuration":273972,"Delta":2916832},{"NoteNumber":88,"Velocity":62,"Duration":252101,"SoundDuration":252101,"Delta":3190805},{"NoteNumber":64,"Velocity":49,"Duration":252101,"SoundDuration":252101,"Delta":3190805},{"NoteNumber":89,"Velocity":64,"Duration":243902,"SoundDuration":243902,"Delta":3442906},{"NoteNumber":65,"Velocity":51,"Duration":243902,"SoundDuration":243902,"Delta":3442906},{"NoteNumber":91,"Velocity":67,"Duration":235293,"SoundDuration":235293,"Delta":3686808},{"NoteNumber":67,"Velocity":53,"Duration":235293,"SoundDuration":235293,"Delta":3686808},{"NoteNumber":88,"Velocity":66,"Duration":254237,"SoundDuration":254237,"Delta":3922102},{"NoteNumber":64,"Velocity":52,"Duration":254237,"SoundDuration":254237,"Delta":3922102},{"NoteNumber":89,"Velocity":64,"Duration":252100,"SoundDuration":252100,"Delta":4176340},{"NoteNumber":65,"Velocity":51,"Duration":252100,"SoundDuration":252100,"Delta":4176340},{"NoteNumber":88,"Velocity":61,"Duration":138888,"SoundDuration":138888,"Delta":4428441},{"NoteNumber":64,"Velocity":48,"Duration":138888,"SoundDuration":138888,"Delta":4428441},{"NoteNumber":86,"Velocity":59,"Duration":69444,"SoundDuration":69444,"Delta":4567330},{"NoteNumber":62,"Velocity":49,"Duration":69444,"SoundDuration":69444,"Delta":4567330},{"NoteNumber":88,"Velocity":55,"Duration":69444,"SoundDuration":69444,"Delta":4636774},{"NoteNumber":64,"Velocity":48,"Duration":69444,"SoundDuration":69444,"Delta":4636774},{"NoteNumber":86,"Velocity":67,"Duration":579710,"SoundDuration":579710,"Delta":4706219},{"NoteNumber":62,"Velocity":53,"Duration":579710,"SoundDuration":579710,"Delta":4706219},{"NoteNumber":84,"Velocity":60,"Duration":603015,"SoundDuration":603015,"Delta":5285929},{"NoteNumber":60,"Velocity":48,"Duration":603015,"SoundDuration":603015,"Delta":5285929},{"NoteNumber":82,"Velocity":57,"Duration":603015,"SoundDuration":603015,"Delta":5888944},{"NoteNumber":58,"Velocity":48,"Duration":603015,"SoundDuration":603015,"Delta":5888944},{"NoteNumber":45,"Velocity":42,"Duration":297150,"SoundDuration":297150,"Delta":6491959},{"NoteNumber":57,"Velocity":50,"Duration":250000,"SoundDuration":250000,"Delta":6789109},{"NoteNumber":52,"Velocity":39,"Duration":250000,"SoundDuration":250000,"Delta":6789109},{"NoteNumber":61,"Velocity":51,"Duration":247933,"SoundDuration":247933,"Delta":7039109},{"NoteNumber":57,"Velocity":39,"Duration":247933,"SoundDuration":247933,"Delta":7039109},{"NoteNumber":64,"Velocity":54,"Duration":242915,"SoundDuration":242915,"Delta":7287043},{"NoteNumber":61,"Velocity":40,"Duration":242915,"SoundDuration":242915,"Delta":7287043},{"NoteNumber":69,"Velocity":57,"Duration":240964,"SoundDuration":240964,"Delta":7529958},{"NoteNumber":64,"Velocity":43,"Duration":240964,"SoundDuration":240964,"Delta":7529958},{"NoteNumber":73,"Velocity":58,"Duration":244897,"SoundDuration":244897,"Delta":7770922},{"NoteNumber":69,"Velocity":44,"Duration":244897,"SoundDuration":244897,"Delta":7770922},{"NoteNumber":76,"Velocity":61,"Duration":234375,"SoundDuration":234375,"Delta":8015820},{"NoteNumber":73,"Velocity":48,"Duration":234375,"SoundDuration":234375,"Delta":8015820},{"NoteNumber":69,"Velocity":50,"Duration":240000,"SoundDuration":240000,"Delta":8250195},{"NoteNumber":61,"Velocity":39,"Duration":240000,"SoundDuration":240000,"Delta":8250195},{"NoteNumber":73,"Velocity":51,"Duration":221401,"SoundDuration":221401,"Delta":8490195},{"NoteNumber":64,"Velocity":39,"Duration":221401,"SoundDuration":221401,"Delta":8490195},{"NoteNumber":76,"Velocity":54,"Duration":229884,"SoundDuration":229884,"Delta":8711597},{"NoteNumber":69,"Velocity":40,"Duration":229884,"SoundDuration":229884,"Delta":8711597},{"NoteNumber":81,"Velocity":57,"Duration":236220,"SoundDuration":236220,"Delta":8941482},{"NoteNumber":73,"Velocity":43,"Duration":236220,"SoundDuration":236220,"Delta":8941482},{"NoteNumber":85,"Velocity":58,"Duration":241935,"SoundDuration":241935,"Delta":9177703},{"NoteNumber":76,"Velocity":44,"Duration":241935,"SoundDuration":241935,"Delta":9177703},{"NoteNumber":88,"Velocity":64,"Duration":231096,"SoundDuration":231096,"Delta":9419638},{"NoteNumber":81,"Velocity":49,"Duration":231096,"SoundDuration":231096,"Delta":9419638},{"NoteNumber":85,"Velocity":60,"Duration":238890,"SoundDuration":238890,"Delta":9650735},{"NoteNumber":76,"Velocity":43,"Duration":238890,"SoundDuration":238890,"Delta":9650735},{"NoteNumber":81,"Velocity":58,"Duration":242429,"SoundDuration":242429,"Delta":9889625},{"NoteNumber":73,"Velocity":43,"Duration":242429,"SoundDuration":242429,"Delta":9889625},{"NoteNumber":76,"Velocity":57,"Duration":246158,"SoundDuration":246158,"Delta":10132055},{"NoteNumber":69,"Velocity":42,"Duration":246158,"SoundDuration":246158,"Delta":10132055},{"NoteNumber":73,"Velocity":55,"Duration":249918,"SoundDuration":249918,"Delta":10378213},{"NoteNumber":64,"Velocity":40,"Duration":249918,"SoundDuration":249918,"Delta":10378213},{"NoteNumber":69,"Velocity":53,"Duration":262858,"SoundDuration":262858,"Delta":10628132},{"NoteNumber":61,"Velocity":40,"Duration":262858,"SoundDuration":262858,"Delta":10628132},{"NoteNumber":76,"Velocity":51,"Duration":245901,"SoundDuration":245901,"Delta":10890990},{"NoteNumber":69,"Velocity":36,"Duration":245901,"SoundDuration":245901,"Delta":10890990},{"NoteNumber":73,"Velocity":48,"Duration":255319,"SoundDuration":255319,"Delta":11136892},{"NoteNumber":64,"Velocity":35,"Duration":255319,"SoundDuration":255319,"Delta":11136892},{"NoteNumber":69,"Velocity":46,"Duration":266142,"SoundDuration":266142,"Delta":11392211},{"NoteNumber":61,"Velocity":34,"Duration":266142,"SoundDuration":266142,"Delta":11392211},{"NoteNumber":64,"Velocity":44,"Duration":277153,"SoundDuration":277153,"Delta":11658353},{"NoteNumber":57,"Velocity":32,"Duration":274817,"SoundDuration":274817,"Delta":11658353},{"NoteNumber":61,"Velocity":44,"Duration":285054,"SoundDuration":285054,"Delta":11935506},{"NoteNumber":57,"Velocity":30,"Duration":281448,"SoundDuration":281448,"Delta":11935506},{"NoteNumber":57,"Velocity":42,"Duration":293175,"SoundDuration":293175,"Delta":12220561},{"NoteNumber":52,"Velocity":30,"Duration":293175,"SoundDuration":293175,"Delta":12220561},{"NoteNumber":45,"Velocity":39,"Duration":314321,"SoundDuration":314321,"Delta":12513736},{"NoteNumber":81,"Velocity":51,"Duration":321096,"SoundDuration":321096,"Delta":12828057},{"NoteNumber":57,"Velocity":40,"Duration":321096,"SoundDuration":321096,"Delta":12828057},{"NoteNumber":88,"Velocity":56,"Duration":1929921,"SoundDuration":1929921,"Delta":13149153},{"NoteNumber":64,"Velocity":44,"Duration":1929921,"SoundDuration":1929921,"Delta":13149153},{"NoteNumber":86,"Velocity":46,"Duration":66666,"SoundDuration":66666,"Delta":15079075},{"NoteNumber":62,"Velocity":39,"Duration":66666,"SoundDuration":66666,"Delta":15079075},{"NoteNumber":88,"Velocity":41,"Duration":66666,"SoundDuration":66666,"Delta":15145741},{"NoteNumber":64,"Velocity":35,"Duration":66666,"SoundDuration":66666,"Delta":15145741},{"NoteNumber":86,"Velocity":52,"Duration":262008,"SoundDuration":262008,"Delta":15212408},{"NoteNumber":62,"Velocity":41,"Duration":262008,"SoundDuration":262008,"Delta":15212408},{"NoteNumber":84,"Velocity":48,"Duration":267856,"SoundDuration":267856,"Delta":15474416},{"NoteNumber":60,"Velocity":38,"Duration":267856,"SoundDuration":267856,"Delta":15474416},{"NoteNumber":86,"Velocity":48,"Duration":271492,"SoundDuration":271492,"Delta":15742273},{"NoteNumber":62,"Velocity":38,"Duration":271492,"SoundDuration":271492,"Delta":15742273},{"NoteNumber":88,"Velocity":52,"Duration":256410,"SoundDuration":256410,"Delta":16013766},{"NoteNumber":64,"Velocity":41,"Duration":256410,"SoundDuration":256410,"Delta":16013766},{"NoteNumber":89,"Velocity":54,"Duration":246913,"SoundDuration":246913,"Delta":16270177},{"NoteNumber":65,"Velocity":43,"Duration":246913,"SoundDuration":246913,"Delta":16270177},{"NoteNumber":91,"Velocity":56,"Duration":242915,"SoundDuration":242915,"Delta":16517090},{"NoteNumber":67,"Velocity":45,"Duration":242915,"SoundDuration":242915,"Delta":16517090},{"NoteNumber":88,"Velocity":56,"Duration":259740,"SoundDuration":259740,"Delta":16760005},{"NoteNumber":64,"Velocity":44,"Duration":259740,"SoundDuration":259740,"Delta":16760005},{"NoteNumber":89,"Velocity":54,"Duration":255319,"SoundDuration":255319,"Delta":17019746},{"NoteNumber":65,"Velocity":43,"Duration":255319,"SoundDuration":255319,"Delta":17019746},{"NoteNumber":88,"Velocity":51,"Duration":140844,"SoundDuration":140844,"Delta":17275065},{"NoteNumber":64,"Velocity":40,"Duration":140844,"SoundDuration":140844,"Delta":17275065},{"NoteNumber":86,"Velocity":51,"Duration":66079,"SoundDuration":66079,"Delta":17415910},{"NoteNumber":62,"Velocity":40,"Duration":66079,"SoundDuration":66079,"Delta":17415910},{"NoteNumber":88,"Velocity":47,"Duration":66079,"SoundDuration":66079,"Delta":17481989},{"NoteNumber":64,"Velocity":37,"Duration":66079,"SoundDuration":66079,"Delta":17481989},{"NoteNumber":86,"Velocity":56,"Duration":603014,"SoundDuration":603014,"Delta":17548068},{"NoteNumber":62,"Velocity":45,"Duration":603014,"SoundDuration":603014,"Delta":17548068},{"NoteNumber":84,"Velocity":51,"Duration":618556,"SoundDuration":618556,"Delta":18151083},{"NoteNumber":60,"Velocity":40,"Duration":618556,"SoundDuration":618556,"Delta":18151083},{"NoteNumber":82,"Velocity":48,"Duration":618557,"SoundDuration":618557,"Delta":18769640},{"NoteNumber":58,"Velocity":38,"Duration":618557,"SoundDuration":618557,"Delta":18769640},{"NoteNumber":81,"Velocity":44,"Duration":264316,"SoundDuration":264316,"Delta":19388197},{"NoteNumber":57,"Velocity":32,"Duration":264316,"SoundDuration":264316,"Delta":19388197},{"NoteNumber":82,"Velocity":46,"Duration":245901,"SoundDuration":245901,"Delta":19652514},{"NoteNumber":58,"Velocity":34,"Duration":245901,"SoundDuration":245901,"Delta":19652514},{"NoteNumber":84,"Velocity":48,"Duration":252100,"SoundDuration":252100,"Delta":19898416},{"NoteNumber":60,"Velocity":36,"Duration":252100,"SoundDuration":252100,"Delta":19898416},{"NoteNumber":86,"Velocity":50,"Duration":256410,"SoundDuration":256410,"Delta":20150517},{"NoteNumber":62,"Velocity":37,"Duration":256410,"SoundDuration":256410,"Delta":20150517},{"NoteNumber":89,"Velocity":52,"Duration":404188,"SoundDuration":404188,"Delta":20406927},{"NoteNumber":65,"Velocity":39,"Duration":404188,"SoundDuration":404188,"Delta":20406927},{"NoteNumber":86,"Velocity":49,"Duration":65502,"SoundDuration":65502,"Delta":20811116},{"NoteNumber":62,"Velocity":40,"Duration":65502,"SoundDuration":65502,"Delta":20811116},{"NoteNumber":88,"Velocity":42,"Duration":65502,"SoundDuration":65502,"Delta":20876618},{"NoteNumber":64,"Velocity":37,"Duration":65502,"SoundDuration":65502,"Delta":20876618},{"NoteNumber":86,"Velocity":56,"Duration":579709,"SoundDuration":579709,"Delta":20942120},{"NoteNumber":62,"Velocity":45,"Duration":579709,"SoundDuration":579709,"Delta":20942120},{"NoteNumber":84,"Velocity":51,"Duration":597014,"SoundDuration":597014,"Delta":21521830},{"NoteNumber":60,"Velocity":40,"Duration":597014,"SoundDuration":597014,"Delta":21521830},{"NoteNumber":82,"Velocity":48,"Duration":597015,"SoundDuration":597015,"Delta":22118845},{"NoteNumber":58,"Velocity":40,"Duration":597015,"SoundDuration":597015,"Delta":22118845},{"NoteNumber":81,"Velocity":46,"Duration":259740,"SoundDuration":259740,"Delta":22715860},{"NoteNumber":57,"Velocity":32,"Duration":259740,"SoundDuration":259740,"Delta":22715860},{"NoteNumber":82,"Velocity":47,"Duration":247934,"SoundDuration":247934,"Delta":22975601},{"NoteNumber":58,"Velocity":33,"Duration":247934,"SoundDuration":247934,"Delta":22975601},{"NoteNumber":84,"Velocity":49,"Duration":248962,"SoundDuration":248962,"Delta":23223535},{"NoteNumber":60,"Velocity":35,"Duration":248962,"SoundDuration":248962,"Delta":23223535},{"NoteNumber":86,"Velocity":51,"Duration":243902,"SoundDuration":243902,"Delta":23472497},{"NoteNumber":62,"Velocity":37,"Duration":243902,"SoundDuration":243902,"Delta":23472497},{"NoteNumber":88,"Velocity":53,"Duration":247934,"SoundDuration":247934,"Delta":23716400},{"NoteNumber":64,"Velocity":39,"Duration":247934,"SoundDuration":247934,"Delta":23716400},{"NoteNumber":91,"Velocity":57,"Duration":264316,"SoundDuration":264316,"Delta":23964334},{"NoteNumber":67,"Velocity":40,"Duration":264316,"SoundDuration":264316,"Delta":23964334},{"NoteNumber":89,"Velocity":55,"Duration":145631,"SoundDuration":145631,"Delta":24228651},{"NoteNumber":65,"Velocity":43,"Duration":145631,"SoundDuration":145631,"Delta":24228651},{"NoteNumber":86,"Velocity":46,"Duration":66666,"SoundDuration":66666,"Delta":24374282},{"NoteNumber":62,"Velocity":34,"Duration":66666,"SoundDuration":66666,"Delta":24374282},{"NoteNumber":88,"Velocity":40,"Duration":66666,"SoundDuration":66666,"Delta":24440948},{"NoteNumber":64,"Velocity":32,"Duration":66666,"SoundDuration":66666,"Delta":24440948},{"NoteNumber":86,"Velocity":50,"Duration":272727,"SoundDuration":272727,"Delta":24507615},{"NoteNumber":62,"Velocity":37,"Duration":272727,"SoundDuration":272727,"Delta":24507615},{"NoteNumber":84,"Velocity":50,"Duration":272727,"SoundDuration":272727,"Delta":24780342},{"NoteNumber":60,"Velocity":37,"Duration":272727,"SoundDuration":272727,"Delta":24780342},{"NoteNumber":82,"Velocity":45,"Duration":285714,"SoundDuration":285714,"Delta":25053070},{"NoteNumber":58,"Velocity":33,"Duration":285714,"SoundDuration":285714,"Delta":25053070},{"NoteNumber":86,"Velocity":49,"Duration":294117,"SoundDuration":294117,"Delta":25338784},{"NoteNumber":62,"Velocity":36,"Duration":294117,"SoundDuration":294117,"Delta":25338784},{"NoteNumber":85,"Velocity":44,"Duration":294117,"SoundDuration":294117,"Delta":25632902},{"NoteNumber":61,"Velocity":33,"Duration":294117,"SoundDuration":294117,"Delta":25632902},{"NoteNumber":45,"Velocity":67,"Duration":522729,"SoundDuration":522729,"Delta":25927019},{"NoteNumber":70,"Velocity":51,"Duration":153256,"SoundDuration":153256,"Delta":26143236},{"NoteNumber":61,"Velocity":29,"Duration":306513,"SoundDuration":306513,"Delta":26143236},{"NoteNumber":69,"Velocity":46,"Duration":153256,"SoundDuration":153256,"Delta":26296492},{"NoteNumber":52,"Velocity":55,"Duration":470405,"SoundDuration":470405,"Delta":26449749},{"NoteNumber":61,"Velocity":29,"Duration":300192,"SoundDuration":300192,"Delta":26619962},{"NoteNumber":70,"Velocity":52,"Duration":150659,"SoundDuration":150659,"Delta":26619962},{"NoteNumber":69,"Velocity":45,"Duration":149533,"SoundDuration":149533,"Delta":26770621},{"NoteNumber":57,"Velocity":55,"Duration":441534,"SoundDuration":441534,"Delta":26920155},{"NoteNumber":61,"Velocity":29,"Duration":293247,"SoundDuration":293247,"Delta":27068441},{"NoteNumber":70,"Velocity":51,"Duration":147194,"SoundDuration":147194,"Delta":27068441},{"NoteNumber":69,"Velocity":45,"Duration":146053,"SoundDuration":146053,"Delta":27215636},{"NoteNumber":45,"Velocity":68,"Duration":436414,"SoundDuration":436414,"Delta":27361689},{"NoteNumber":62,"Velocity":27,"Duration":286038,"SoundDuration":286038,"Delta":27512065},{"NoteNumber":69,"Velocity":48,"Duration":142856,"SoundDuration":142856,"Delta":27512065},{"NoteNumber":67,"Velocity":41,"Duration":143181,"SoundDuration":143181,"Delta":27654922},{"NoteNumber":52,"Velocity":55,"Duration":419579,"SoundDuration":419579,"Delta":27798104},{"NoteNumber":69,"Velocity":48,"Duration":139860,"SoundDuration":139860,"Delta":27937964},{"NoteNumber":62,"Velocity":27,"Duration":279720,"SoundDuration":279720,"Delta":27937964},{"NoteNumber":67,"Velocity":40,"Duration":139859,"SoundDuration":139859,"Delta":28077824},{"NoteNumber":58,"Velocity":55,"Duration":435868,"SoundDuration":435868,"Delta":28217684},{"NoteNumber":62,"Velocity":27,"Duration":298411,"SoundDuration":298411,"Delta":28355141},{"NoteNumber":69,"Velocity":47,"Duration":141852,"SoundDuration":141852,"Delta":28355141},{"NoteNumber":67,"Velocity":40,"Duration":156558,"SoundDuration":156558,"Delta":28496993},{"NoteNumber":45,"Velocity":65,"Duration":511805,"SoundDuration":511805,"Delta":28653552},{"NoteNumber":61,"Velocity":29,"Duration":311284,"SoundDuration":311284,"Delta":28854073},{"NoteNumber":70,"Velocity":51,"Duration":155642,"SoundDuration":155642,"Delta":28854073},{"NoteNumber":69,"Velocity":46,"Duration":155642,"SoundDuration":155642,"Delta":29009715},{"NoteNumber":52,"Velocity":52,"Duration":449103,"SoundDuration":449103,"Delta":29165357},{"NoteNumber":70,"Velocity":52,"Duration":149673,"SoundDuration":149673,"Delta":29316088},{"NoteNumber":61,"Velocity":42,"Duration":298373,"SoundDuration":298373,"Delta":29316088},{"NoteNumber":69,"Velocity":45,"Duration":148699,"SoundDuration":148699,"Delta":29465761},{"NoteNumber":57,"Velocity":52,"Duration":439845,"SoundDuration":439845,"Delta":29614461},{"NoteNumber":61,"Velocity":42,"Duration":292242,"SoundDuration":292242,"Delta":29762063},{"NoteNumber":70,"Velocity":51,"Duration":146655,"SoundDuration":146655,"Delta":29762063},{"NoteNumber":69,"Velocity":45,"Duration":145587,"SoundDuration":145587,"Delta":29908719},{"NoteNumber":45,"Velocity":64,"Duration":448709,"SoundDuration":448709,"Delta":30054306},{"NoteNumber":70,"Velocity":48,"Duration":144927,"SoundDuration":144927,"Delta":30213684},{"NoteNumber":62,"Velocity":27,"Duration":289331,"SoundDuration":289331,"Delta":30213684},{"NoteNumber":69,"Velocity":41,"Duration":144404,"SoundDuration":144404,"Delta":30358611},{"NoteNumber":52,"Velocity":55,"Duration":441059,"SoundDuration":441059,"Delta":30503016},{"NoteNumber":69,"Velocity":48,"Duration":146994,"SoundDuration":146994,"Delta":30647683},{"NoteNumber":62,"Velocity":27,"Duration":296391,"SoundDuration":296391,"Delta":30647683},{"NoteNumber":67,"Velocity":40,"Duration":149397,"SoundDuration":149397,"Delta":30794678},{"NoteNumber":58,"Velocity":54,"Duration":463722,"SoundDuration":463722,"Delta":30944075},{"NoteNumber":67,"Velocity":47,"Duration":154518,"SoundDuration":154518,"Delta":31096026},{"NoteNumber":62,"Velocity":27,"Duration":311771,"SoundDuration":311771,"Delta":31096026},{"NoteNumber":64,"Velocity":40,"Duration":157252,"SoundDuration":157252,"Delta":31250545},{"NoteNumber":45,"Velocity":69,"Duration":505142,"SoundDuration":505142,"Delta":31407798},{"NoteNumber":61,"Velocity":30,"Duration":306513,"SoundDuration":306513,"Delta":31606427},{"NoteNumber":70,"Velocity":53,"Duration":153256,"SoundDuration":153256,"Delta":31606427},{"NoteNumber":69,"Velocity":48,"Duration":153256,"SoundDuration":153256,"Delta":31759684},{"NoteNumber":52,"Velocity":57,"Duration":449438,"SoundDuration":449438,"Delta":31912940},{"NoteNumber":70,"Velocity":55,"Duration":149812,"SoundDuration":149812,"Delta":32062753},{"NoteNumber":61,"Velocity":31,"Duration":299625,"SoundDuration":299625,"Delta":32062753},{"NoteNumber":69,"Velocity":48,"Duration":149812,"SoundDuration":149812,"Delta":32212566},{"NoteNumber":57,"Velocity":58,"Duration":449438,"SoundDuration":449438,"Delta":32362378},{"NoteNumber":70,"Velocity":56,"Duration":149812,"SoundDuration":149812,"Delta":32512191},{"NoteNumber":61,"Velocity":31,"Duration":299625,"SoundDuration":299625,"Delta":32512191},{"NoteNumber":69,"Velocity":49,"Duration":149812,"SoundDuration":149812,"Delta":32662004},{"NoteNumber":41,"Velocity":66,"Duration":488618,"SoundDuration":488618,"Delta":32811816},{"NoteNumber":67,"Velocity":57,"Duration":158102,"SoundDuration":158102,"Delta":32984230},{"NoteNumber":57,"Velocity":32,"Duration":316205,"SoundDuration":316205,"Delta":32984230},{"NoteNumber":65,"Velocity":50,"Duration":158102,"SoundDuration":158102,"Delta":33142333},{"NoteNumber":48,"Velocity":51,"Duration":452829,"SoundDuration":452829,"Delta":33300435},{"NoteNumber":57,"Velocity":33,"Duration":301886,"SoundDuration":301886,"Delta":33451379},{"NoteNumber":67,"Velocity":58,"Duration":150943,"SoundDuration":150943,"Delta":33451379},{"NoteNumber":65,"Velocity":48,"Duration":150943,"SoundDuration":150943,"Delta":33602322},{"NoteNumber":57,"Velocity":69,"Duration":150602,"SoundDuration":150602,"Delta":33753265},{"NoteNumber":67,"Velocity":58,"Duration":162288,"SoundDuration":162288,"Delta":33913908},{"NoteNumber":57,"Velocity":32,"Duration":326222,"SoundDuration":326222,"Delta":33913908},{"NoteNumber":65,"Velocity":49,"Duration":163934,"SoundDuration":163934,"Delta":34076196},{"NoteNumber":48,"Velocity":74,"Duration":504376,"SoundDuration":504376,"Delta":34240131},{"NoteNumber":60,"Velocity":34,"Duration":317460,"SoundDuration":317460,"Delta":34427047},{"NoteNumber":65,"Velocity":60,"Duration":158729,"SoundDuration":158729,"Delta":34427047},{"NoteNumber":64,"Velocity":53,"Duration":158730,"SoundDuration":158730,"Delta":34585777},{"NoteNumber":55,"Velocity":73,"Duration":487805,"SoundDuration":487805,"Delta":34744507},{"NoteNumber":65,"Velocity":61,"Duration":162601,"SoundDuration":162601,"Delta":34907108},{"NoteNumber":60,"Velocity":35,"Duration":325203,"SoundDuration":325203,"Delta":34907108},{"NoteNumber":64,"Velocity":51,"Duration":162601,"SoundDuration":162601,"Delta":35069710},{"NoteNumber":60,"Velocity":69,"Duration":158898,"SoundDuration":158898,"Delta":35232312},{"NoteNumber":60,"Velocity":34,"Duration":338983,"SoundDuration":338983,"Delta":35401803},{"NoteNumber":65,"Velocity":61,"Duration":169491,"SoundDuration":169491,"Delta":35401803},{"NoteNumber":64,"Velocity":52,"Duration":169491,"SoundDuration":169491,"Delta":35571295},{"NoteNumber":55,"Velocity":66,"Duration":127479,"SoundDuration":127479,"Delta":35740787},{"NoteNumber":64,"Velocity":58,"Duration":173543,"SoundDuration":173543,"Delta":35911093},{"NoteNumber":58,"Velocity":33,"Duration":350934,"SoundDuration":350934,"Delta":35911093},{"NoteNumber":62,"Velocity":50,"Duration":177391,"SoundDuration":177391,"Delta":36084636},{"NoteNumber":57,"Velocity":59,"Duration":135751,"SoundDuration":135751,"Delta":36262027},{"NoteNumber":64,"Velocity":55,"Duration":185732,"SoundDuration":185732,"Delta":36443545},{"NoteNumber":58,"Velocity":31,"Duration":375879,"SoundDuration":375879,"Delta":36443545},{"NoteNumber":62,"Velocity":44,"Duration":190147,"SoundDuration":190147,"Delta":36629278},{"NoteNumber":60,"Velocity":55,"Duration":71885,"SoundDuration":71885,"Delta":36747540},{"NoteNumber":58,"Velocity":53,"Duration":144927,"SoundDuration":144927,"Delta":36819425},{"NoteNumber":64,"Velocity":52,"Duration":193236,"SoundDuration":193236,"Delta":37012662},{"NoteNumber":58,"Velocity":29,"Duration":440150,"SoundDuration":440150,"Delta":37012662},{"NoteNumber":62,"Velocity":42,"Duration":246913,"SoundDuration":246913,"Delta":37205899},{"NoteNumber":45,"Velocity":64,"Duration":522729,"SoundDuration":522729,"Delta":37452812},{"NoteNumber":61,"Velocity":29,"Duration":306513,"SoundDuration":306513,"Delta":37669029},{"NoteNumber":70,"Velocity":51,"Duration":153256,"SoundDuration":153256,"Delta":37669029},{"NoteNumber":69,"Velocity":46,"Duration":153256,"SoundDuration":153256,"Delta":37822285},{"NoteNumber":52,"Velocity":55,"Duration":470405,"SoundDuration":470405,"Delta":37975542},{"NoteNumber":61,"Velocity":29,"Duration":300192,"SoundDuration":300192,"Delta":38145755},{"NoteNumber":70,"Velocity":52,"Duration":150659,"SoundDuration":150659,"Delta":38145755},{"NoteNumber":69,"Velocity":45,"Duration":149533,"SoundDuration":149533,"Delta":38296414},{"NoteNumber":57,"Velocity":55,"Duration":441534,"SoundDuration":441534,"Delta":38445948},{"NoteNumber":61,"Velocity":29,"Duration":293247,"SoundDuration":293247,"Delta":38594234},{"NoteNumber":70,"Velocity":51,"Duration":147194,"SoundDuration":147194,"Delta":38594234},{"NoteNumber":69,"Velocity":45,"Duration":146053,"SoundDuration":146053,"Delta":38741429},{"NoteNumber":45,"Velocity":65,"Duration":436089,"SoundDuration":436089,"Delta":38887482},{"NoteNumber":69,"Velocity":48,"Duration":142856,"SoundDuration":142856,"Delta":39037858},{"NoteNumber":62,"Velocity":27,"Duration":285713,"SoundDuration":285713,"Delta":39037858},{"NoteNumber":67,"Velocity":41,"Duration":142856,"SoundDuration":142856,"Delta":39180715},{"NoteNumber":52,"Velocity":55,"Duration":418117,"SoundDuration":418117,"Delta":39323572},{"NoteNumber":62,"Velocity":27,"Duration":278745,"SoundDuration":278745,"Delta":39462944},{"NoteNumber":69,"Velocity":48,"Duration":139372,"SoundDuration":139372,"Delta":39462944},{"NoteNumber":67,"Velocity":40,"Duration":139372,"SoundDuration":139372,"Delta":39602317},{"NoteNumber":58,"Velocity":55,"Duration":418721,"SoundDuration":418721,"Delta":39741690},{"NoteNumber":62,"Velocity":27,"Duration":282667,"SoundDuration":282667,"Delta":39877744},{"NoteNumber":69,"Velocity":47,"Duration":136054,"SoundDuration":136054,"Delta":39877744},{"NoteNumber":67,"Velocity":40,"Duration":146612,"SoundDuration":146612,"Delta":40013798},{"NoteNumber":45,"Velocity":66,"Duration":511805,"SoundDuration":511805,"Delta":40160411},{"NoteNumber":70,"Velocity":51,"Duration":155642,"SoundDuration":155642,"Delta":40360933},{"NoteNumber":61,"Velocity":29,"Duration":311284,"SoundDuration":311284,"Delta":40360933},{"NoteNumber":69,"Velocity":46,"Duration":155642,"SoundDuration":155642,"Delta":40516575},{"NoteNumber":52,"Velocity":55,"Duration":449103,"SoundDuration":449103,"Delta":40672217},{"NoteNumber":61,"Velocity":29,"Duration":298373,"SoundDuration":298373,"Delta":40822947},{"NoteNumber":70,"Velocity":52,"Duration":149673,"SoundDuration":149673,"Delta":40822947},{"NoteNumber":69,"Velocity":45,"Duration":148699,"SoundDuration":148699,"Delta":40972621},{"NoteNumber":57,"Velocity":55,"Duration":439845,"SoundDuration":439845,"Delta":41121321},{"NoteNumber":70,"Velocity":51,"Duration":146655,"SoundDuration":146655,"Delta":41268923},{"NoteNumber":61,"Velocity":29,"Duration":292242,"SoundDuration":292242,"Delta":41268923},{"NoteNumber":69,"Velocity":45,"Duration":145587,"SoundDuration":145587,"Delta":41415578},{"NoteNumber":45,"Velocity":61,"Duration":448709,"SoundDuration":448709,"Delta":41561166},{"NoteNumber":69,"Velocity":48,"Duration":144927,"SoundDuration":144927,"Delta":41720543},{"NoteNumber":62,"Velocity":27,"Duration":289332,"SoundDuration":289332,"Delta":41720543},{"NoteNumber":67,"Velocity":41,"Duration":144404,"SoundDuration":144404,"Delta":41865471},{"NoteNumber":52,"Velocity":55,"Duration":441059,"SoundDuration":441059,"Delta":42009875},{"NoteNumber":62,"Velocity":27,"Duration":296391,"SoundDuration":296391,"Delta":42154543},{"NoteNumber":69,"Velocity":48,"Duration":146994,"SoundDuration":146994,"Delta":42154543},{"NoteNumber":67,"Velocity":40,"Duration":149397,"SoundDuration":149397,"Delta":42301538},{"NoteNumber":58,"Velocity":55,"Duration":463722,"SoundDuration":463722,"Delta":42450935},{"NoteNumber":69,"Velocity":47,"Duration":154518,"SoundDuration":154518,"Delta":42602886},{"NoteNumber":62,"Velocity":27,"Duration":311771,"SoundDuration":311771,"Delta":42602886},{"NoteNumber":67,"Velocity":40,"Duration":157252,"SoundDuration":157252,"Delta":42757405},{"NoteNumber":45,"Velocity":49,"Duration":299999,"SoundDuration":299999,"Delta":42914657},{"NoteNumber":81,"Velocity":53,"Duration":277777,"SoundDuration":277777,"Delta":43214657},{"NoteNumber":57,"Velocity":45,"Duration":277777,"SoundDuration":277777,"Delta":43214657},{"NoteNumber":83,"Velocity":56,"Duration":261620,"SoundDuration":261620,"Delta":43492435},{"NoteNumber":59,"Velocity":47,"Duration":261620,"SoundDuration":261620,"Delta":43492435},{"NoteNumber":85,"Velocity":57,"Duration":266666,"SoundDuration":266666,"Delta":43754056},{"NoteNumber":61,"Velocity":48,"Duration":266666,"SoundDuration":266666,"Delta":43754056},{"NoteNumber":86,"Velocity":59,"Duration":251046,"SoundDuration":251046,"Delta":44020722},{"NoteNumber":62,"Velocity":49,"Duration":251046,"SoundDuration":251046,"Delta":44020722},{"NoteNumber":88,"Velocity":61,"Duration":259740,"SoundDuration":259740,"Delta":44271768},{"NoteNumber":64,"Velocity":51,"Duration":259740,"SoundDuration":259740,"Delta":44271768},{"NoteNumber":89,"Velocity":62,"Duration":381121,"SoundDuration":381121,"Delta":44531509},{"NoteNumber":65,"Velocity":52,"Duration":381121,"SoundDuration":381121,"Delta":44531509},{"NoteNumber":88,"Velocity":55,"Duration":61089,"SoundDuration":61089,"Delta":44912630},{"NoteNumber":64,"Velocity":48,"Duration":61089,"SoundDuration":61089,"Delta":44912630},{"NoteNumber":89,"Velocity":51,"Duration":61089,"SoundDuration":61089,"Delta":44973720},{"NoteNumber":65,"Velocity":45,"Duration":61089,"SoundDuration":61089,"Delta":44973720},{"NoteNumber":88,"Velocity":61,"Duration":242914,"SoundDuration":242914,"Delta":45034810},{"NoteNumber":64,"Velocity":51,"Duration":242914,"SoundDuration":242914,"Delta":45034810},{"NoteNumber":86,"Velocity":57,"Duration":256410,"SoundDuration":256410,"Delta":45277725},{"NoteNumber":62,"Velocity":48,"Duration":256410,"SoundDuration":256410,"Delta":45277725},{"NoteNumber":84,"Velocity":56,"Duration":252101,"SoundDuration":252101,"Delta":45534135},{"NoteNumber":60,"Velocity":47,"Duration":252101,"SoundDuration":252101,"Delta":45534135},{"NoteNumber":86,"Velocity":59,"Duration":246913,"SoundDuration":246913,"Delta":45786236},{"NoteNumber":62,"Velocity":49,"Duration":246913,"SoundDuration":246913,"Delta":45786236},{"NoteNumber":88,"Velocity":57,"Duration":242914,"SoundDuration":242914,"Delta":46033150},{"NoteNumber":64,"Velocity":45,"Duration":242914,"SoundDuration":242914,"Delta":46033150},{"NoteNumber":89,"Velocity":59,"Duration":240000,"SoundDuration":240000,"Delta":46276065},{"NoteNumber":65,"Velocity":47,"Duration":240000,"SoundDuration":240000,"Delta":46276065},{"NoteNumber":91,"Velocity":61,"Duration":235294,"SoundDuration":235294,"Delta":46516065},{"NoteNumber":67,"Velocity":49,"Duration":235294,"SoundDuration":235294,"Delta":46516065},{"NoteNumber":88,"Velocity":61,"Duration":254237,"SoundDuration":254237,"Delta":46751359},{"NoteNumber":64,"Velocity":48,"Duration":254237,"SoundDuration":254237,"Delta":46751359},{"NoteNumber":89,"Velocity":59,"Duration":243902,"SoundDuration":243902,"Delta":47005596},{"NoteNumber":65,"Velocity":47,"Duration":243902,"SoundDuration":243902,"Delta":47005596},{"NoteNumber":88,"Velocity":56,"Duration":135746,"SoundDuration":135746,"Delta":47249499},{"NoteNumber":64,"Velocity":44,"Duration":135746,"SoundDuration":135746,"Delta":47249499},{"NoteNumber":86,"Velocity":55,"Duration":65217,"SoundDuration":65217,"Delta":47385245},{"NoteNumber":62,"Velocity":47,"Duration":65217,"SoundDuration":65217,"Delta":47385245},{"NoteNumber":88,"Velocity":51,"Duration":65217,"SoundDuration":65217,"Delta":47450462},{"NoteNumber":64,"Velocity":44,"Duration":65217,"SoundDuration":65217,"Delta":47450462},{"NoteNumber":86,"Velocity":61,"Duration":574162,"SoundDuration":574162,"Delta":47515680},{"NoteNumber":62,"Velocity":49,"Duration":574162,"SoundDuration":574162,"Delta":47515680},{"NoteNumber":84,"Velocity":56,"Duration":603014,"SoundDuration":603014,"Delta":48089843},{"NoteNumber":60,"Velocity":44,"Duration":603014,"SoundDuration":603014,"Delta":48089843},{"NoteNumber":82,"Velocity":52,"Duration":603014,"SoundDuration":603014,"Delta":48692858},{"NoteNumber":58,"Velocity":41,"Duration":603014,"SoundDuration":603014,"Delta":48692858},{"NoteNumber":81,"Velocity":57,"Duration":276497,"SoundDuration":276497,"Delta":49295873},{"NoteNumber":57,"Velocity":48,"Duration":276497,"SoundDuration":276497,"Delta":49295873},{"NoteNumber":83,"Velocity":58,"Duration":256410,"SoundDuration":256410,"Delta":49572370},{"NoteNumber":59,"Velocity":49,"Duration":256410,"SoundDuration":256410,"Delta":49572370},{"NoteNumber":85,"Velocity":60,"Duration":251046,"SoundDuration":251046,"Delta":49828781},{"NoteNumber":61,"Velocity":50,"Duration":251046,"SoundDuration":251046,"Delta":49828781},{"NoteNumber":86,"Velocity":61,"Duration":255319,"SoundDuration":255319,"Delta":50079827},{"NoteNumber":62,"Velocity":50,"Duration":255319,"SoundDuration":255319,"Delta":50079827},{"NoteNumber":88,"Velocity":63,"Duration":242914,"SoundDuration":242914,"Delta":50335146},{"NoteNumber":64,"Velocity":51,"Duration":242914,"SoundDuration":242914,"Delta":50335146},{"NoteNumber":89,"Velocity":64,"Duration":247934,"SoundDuration":247934,"Delta":50578061},{"NoteNumber":65,"Velocity":52,"Duration":247934,"SoundDuration":247934,"Delta":50578061},{"NoteNumber":91,"Velocity":71,"Duration":240963,"SoundDuration":240963,"Delta":50825995},{"NoteNumber":67,"Velocity":53,"Duration":240963,"SoundDuration":240963,"Delta":50825995},{"NoteNumber":93,"Velocity":75,"Duration":122449,"SoundDuration":122449,"Delta":51066959},{"NoteNumber":69,"Velocity":57,"Duration":122449,"SoundDuration":122449,"Delta":51066959},{"NoteNumber":94,"Velocity":73,"Duration":58365,"SoundDuration":58365,"Delta":51189408},{"NoteNumber":70,"Velocity":56,"Duration":58365,"SoundDuration":58365,"Delta":51189408},{"NoteNumber":96,"Velocity":71,"Duration":58365,"SoundDuration":58365,"Delta":51247774},{"NoteNumber":72,"Velocity":52,"Duration":58365,"SoundDuration":58365,"Delta":51247774},{"NoteNumber":94,"Velocity":79,"Duration":476190,"SoundDuration":476190,"Delta":51306139},{"NoteNumber":70,"Velocity":63,"Duration":476190,"SoundDuration":476190,"Delta":51306139},{"NoteNumber":93,"Velocity":76,"Duration":248962,"SoundDuration":248962,"Delta":51782329},{"NoteNumber":69,"Velocity":58,"Duration":248962,"SoundDuration":248962,"Delta":51782329},{"NoteNumber":91,"Velocity":74,"Duration":255319,"SoundDuration":255319,"Delta":52031292},{"NoteNumber":67,"Velocity":56,"Duration":255319,"SoundDuration":255319,"Delta":52031292},{"NoteNumber":93,"Velocity":78,"Duration":496896,"SoundDuration":496896,"Delta":52286611},{"NoteNumber":69,"Velocity":58,"Duration":496896,"SoundDuration":496896,"Delta":52286611},{"NoteNumber":93,"Velocity":79,"Duration":241935,"SoundDuration":241935,"Delta":52783507},{"NoteNumber":69,"Velocity":60,"Duration":241935,"SoundDuration":241935,"Delta":52783507},{"NoteNumber":91,"Velocity":76,"Duration":250000,"SoundDuration":250000,"Delta":53025443},{"NoteNumber":67,"Velocity":58,"Duration":250000,"SoundDuration":250000,"Delta":53025443},{"NoteNumber":94,"Velocity":83,"Duration":255319,"SoundDuration":255319,"Delta":53275443},{"NoteNumber":70,"Velocity":62,"Duration":255319,"SoundDuration":255319,"Delta":53275443},{"NoteNumber":93,"Velocity":78,"Duration":132743,"SoundDuration":132743,"Delta":53530762},{"NoteNumber":69,"Velocity":58,"Duration":132743,"SoundDuration":132743,"Delta":53530762},{"NoteNumber":89,"Velocity":64,"Duration":63025,"SoundDuration":63025,"Delta":53663505},{"NoteNumber":65,"Velocity":45,"Duration":63025,"SoundDuration":63025,"Delta":53663505},{"NoteNumber":91,"Velocity":56,"Duration":63025,"SoundDuration":63025,"Delta":53726530},{"NoteNumber":67,"Velocity":38,"Duration":63025,"SoundDuration":63025,"Delta":53726530},{"NoteNumber":89,"Velocity":72,"Duration":253164,"SoundDuration":253164,"Delta":53789556},{"NoteNumber":65,"Velocity":49,"Duration":253164,"SoundDuration":253164,"Delta":53789556},{"NoteNumber":87,"Velocity":64,"Duration":253164,"SoundDuration":253164,"Delta":54042720},{"NoteNumber":63,"Velocity":49,"Duration":253164,"SoundDuration":253164,"Delta":54042720},{"NoteNumber":86,"Velocity":69,"Duration":260869,"SoundDuration":260869,"Delta":54295885},{"NoteNumber":62,"Velocity":55,"Duration":260869,"SoundDuration":260869,"Delta":54295885},{"NoteNumber":88,"Velocity":61,"Duration":285714,"SoundDuration":285714,"Delta":54556754},{"NoteNumber":64,"Velocity":43,"Duration":285714,"SoundDuration":285714,"Delta":54556754},{"NoteNumber":84,"Velocity":62,"Duration":294117,"SoundDuration":294117,"Delta":54842469},{"NoteNumber":60,"Velocity":46,"Duration":294117,"SoundDuration":294117,"Delta":54842469},{"NoteNumber":82,"Velocity":51,"Duration":294117,"SoundDuration":294117,"Delta":55136586},{"NoteNumber":58,"Velocity":51,"Duration":294117,"SoundDuration":294117,"Delta":55136586},{"NoteNumber":45,"Velocity":61,"Duration":522729,"SoundDuration":522729,"Delta":55430704},{"NoteNumber":61,"Velocity":29,"Duration":306513,"SoundDuration":306513,"Delta":55646920},{"NoteNumber":70,"Velocity":51,"Duration":153256,"SoundDuration":153256,"Delta":55646920},{"NoteNumber":69,"Velocity":46,"Duration":153256,"SoundDuration":153256,"Delta":55800177},{"NoteNumber":52,"Velocity":55,"Duration":470405,"SoundDuration":470405,"Delta":55953433},{"NoteNumber":70,"Velocity":52,"Duration":150659,"SoundDuration":150659,"Delta":56123646},{"NoteNumber":61,"Velocity":29,"Duration":300192,"SoundDuration":300192,"Delta":56123646},{"NoteNumber":69,"Velocity":45,"Duration":149533,"SoundDuration":149533,"Delta":56274306},{"NoteNumber":57,"Velocity":55,"Duration":441534,"SoundDuration":441534,"Delta":56423839},{"NoteNumber":61,"Velocity":29,"Duration":293247,"SoundDuration":293247,"Delta":56572125},{"NoteNumber":70,"Velocity":51,"Duration":147194,"SoundDuration":147194,"Delta":56572125},{"NoteNumber":69,"Velocity":45,"Duration":146053,"SoundDuration":146053,"Delta":56719320},{"NoteNumber":45,"Velocity":62,"Duration":436089,"SoundDuration":436089,"Delta":56865373},{"NoteNumber":69,"Velocity":48,"Duration":142856,"SoundDuration":142856,"Delta":57015749},{"NoteNumber":62,"Velocity":27,"Duration":285713,"SoundDuration":285713,"Delta":57015749},{"NoteNumber":67,"Velocity":41,"Duration":142856,"SoundDuration":142856,"Delta":57158606},{"NoteNumber":52,"Velocity":55,"Duration":422535,"SoundDuration":422535,"Delta":57301463},{"NoteNumber":69,"Velocity":48,"Duration":140844,"SoundDuration":140844,"Delta":57442308},{"NoteNumber":62,"Velocity":27,"Duration":281690,"SoundDuration":281690,"Delta":57442308},{"NoteNumber":67,"Velocity":40,"Duration":140845,"SoundDuration":140845,"Delta":57583153},{"NoteNumber":58,"Velocity":55,"Duration":432606,"SoundDuration":432606,"Delta":57723998},{"NoteNumber":69,"Velocity":47,"Duration":140454,"SoundDuration":140454,"Delta":57859591},{"NoteNumber":62,"Velocity":27,"Duration":297013,"SoundDuration":297013,"Delta":57859591},{"NoteNumber":67,"Velocity":40,"Duration":156558,"SoundDuration":156558,"Delta":58000046},{"NoteNumber":45,"Velocity":62,"Duration":511805,"SoundDuration":511805,"Delta":58156605},{"NoteNumber":61,"Velocity":29,"Duration":311284,"SoundDuration":311284,"Delta":58357126},{"NoteNumber":70,"Velocity":51,"Duration":155642,"SoundDuration":155642,"Delta":58357126},{"NoteNumber":69,"Velocity":46,"Duration":155642,"SoundDuration":155642,"Delta":58512768},{"NoteNumber":52,"Velocity":52,"Duration":449103,"SoundDuration":449103,"Delta":58668410},{"NoteNumber":70,"Velocity":52,"Duration":149673,"SoundDuration":149673,"Delta":58819141},{"NoteNumber":61,"Velocity":29,"Duration":298373,"SoundDuration":298373,"Delta":58819141},{"NoteNumber":69,"Velocity":45,"Duration":148699,"SoundDuration":148699,"Delta":58968814},{"NoteNumber":57,"Velocity":52,"Duration":439845,"SoundDuration":439845,"Delta":59117514},{"NoteNumber":70,"Velocity":51,"Duration":146655,"SoundDuration":146655,"Delta":59265116},{"NoteNumber":61,"Velocity":29,"Duration":292242,"SoundDuration":292242,"Delta":59265116},{"NoteNumber":69,"Velocity":45,"Duration":145587,"SoundDuration":145587,"Delta":59411772},{"NoteNumber":45,"Velocity":63,"Duration":448709,"SoundDuration":448709,"Delta":59557359},{"NoteNumber":70,"Velocity":48,"Duration":144927,"SoundDuration":144927,"Delta":59716737},{"NoteNumber":62,"Velocity":27,"Duration":289332,"SoundDuration":289332,"Delta":59716737},{"NoteNumber":69,"Velocity":41,"Duration":144404,"SoundDuration":144404,"Delta":59861664},{"NoteNumber":52,"Velocity":55,"Duration":441059,"SoundDuration":441059,"Delta":60006069},{"NoteNumber":62,"Velocity":27,"Duration":296391,"SoundDuration":296391,"Delta":60150736},{"NoteNumber":69,"Velocity":48,"Duration":146994,"SoundDuration":146994,"Delta":60150736},{"NoteNumber":67,"Velocity":40,"Duration":149397,"SoundDuration":149397,"Delta":60297731},{"NoteNumber":58,"Velocity":54,"Duration":463722,"SoundDuration":463722,"Delta":60447128},{"NoteNumber":67,"Velocity":47,"Duration":154518,"SoundDuration":154518,"Delta":60599079},{"NoteNumber":62,"Velocity":27,"Duration":311771,"SoundDuration":311771,"Delta":60599079},{"NoteNumber":64,"Velocity":40,"Duration":157252,"SoundDuration":157252,"Delta":60753598},{"NoteNumber":45,"Velocity":67,"Duration":505142,"SoundDuration":505142,"Delta":60910851},{"NoteNumber":61,"Velocity":30,"Duration":306513,"SoundDuration":306513,"Delta":61109480},{"NoteNumber":70,"Velocity":53,"Duration":153256,"SoundDuration":153256,"Delta":61109480},{"NoteNumber":69,"Velocity":48,"Duration":153256,"SoundDuration":153256,"Delta":61262737},{"NoteNumber":52,"Velocity":57,"Duration":444443,"SoundDuration":444443,"Delta":61415993},{"NoteNumber":70,"Velocity":55,"Duration":148147,"SoundDuration":148147,"Delta":61564141},{"NoteNumber":61,"Velocity":31,"Duration":296295,"SoundDuration":296295,"Delta":61564141},{"NoteNumber":69,"Velocity":48,"Duration":148147,"SoundDuration":148147,"Delta":61712289},{"NoteNumber":57,"Velocity":58,"Duration":449438,"SoundDuration":449438,"Delta":61860437},{"NoteNumber":61,"Velocity":31,"Duration":299625,"SoundDuration":299625,"Delta":62010250},{"NoteNumber":70,"Velocity":56,"Duration":149812,"SoundDuration":149812,"Delta":62010250},{"NoteNumber":69,"Velocity":49,"Duration":149812,"SoundDuration":149812,"Delta":62160063},{"NoteNumber":41,"Velocity":65,"Duration":480105,"SoundDuration":480105,"Delta":62309875},{"NoteNumber":67,"Velocity":53,"Duration":153846,"SoundDuration":153846,"Delta":62482289},{"NoteNumber":57,"Velocity":30,"Duration":307692,"SoundDuration":307692,"Delta":62482289},{"NoteNumber":65,"Velocity":46,"Duration":153846,"SoundDuration":153846,"Delta":62636135},{"NoteNumber":48,"Velocity":51,"Duration":449438,"SoundDuration":449438,"Delta":62789981},{"NoteNumber":67,"Velocity":54,"Duration":149812,"SoundDuration":149812,"Delta":62939794},{"NoteNumber":57,"Velocity":30,"Duration":299625,"SoundDuration":299625,"Delta":62939794},{"NoteNumber":65,"Velocity":46,"Duration":149812,"SoundDuration":149812,"Delta":63089606},{"NoteNumber":57,"Velocity":69,"Duration":148809,"SoundDuration":148809,"Delta":63239419},{"NoteNumber":67,"Velocity":54,"Duration":160665,"SoundDuration":160665,"Delta":63398149},{"NoteNumber":57,"Velocity":31,"Duration":323267,"SoundDuration":323267,"Delta":63398149},{"NoteNumber":65,"Velocity":46,"Duration":162601,"SoundDuration":162601,"Delta":63558815},{"NoteNumber":48,"Velocity":74,"Duration":493495,"SoundDuration":493495,"Delta":63721417},{"NoteNumber":60,"Velocity":32,"Duration":312500,"SoundDuration":312500,"Delta":63902412},{"NoteNumber":65,"Velocity":57,"Duration":156250,"SoundDuration":156250,"Delta":63902412},{"NoteNumber":64,"Velocity":48,"Duration":156250,"SoundDuration":156250,"Delta":64058662},{"NoteNumber":55,"Velocity":73,"Duration":478087,"SoundDuration":478087,"Delta":64214912},{"NoteNumber":60,"Velocity":32,"Duration":318725,"SoundDuration":318725,"Delta":64374275},{"NoteNumber":65,"Velocity":58,"Duration":159362,"SoundDuration":159362,"Delta":64374275},{"NoteNumber":64,"Velocity":48,"Duration":159362,"SoundDuration":159362,"Delta":64533637},{"NoteNumber":60,"Velocity":69,"Duration":158898,"SoundDuration":158898,"Delta":64693000},{"NoteNumber":60,"Velocity":33,"Duration":338983,"SoundDuration":338983,"Delta":64862492},{"NoteNumber":65,"Velocity":57,"Duration":169491,"SoundDuration":169491,"Delta":64862492},{"NoteNumber":64,"Velocity":49,"Duration":169491,"SoundDuration":169491,"Delta":65031983},{"NoteNumber":55,"Velocity":66,"Duration":127479,"SoundDuration":127479,"Delta":65201475},{"NoteNumber":64,"Velocity":54,"Duration":173543,"SoundDuration":173543,"Delta":65371781},{"NoteNumber":58,"Velocity":30,"Duration":350934,"SoundDuration":350934,"Delta":65371781},{"NoteNumber":62,"Velocity":45,"Duration":177391,"SoundDuration":177391,"Delta":65545324},{"NoteNumber":57,"Velocity":59,"Duration":135751,"SoundDuration":135751,"Delta":65722715},{"NoteNumber":58,"Velocity":29,"Duration":375879,"SoundDuration":375879,"Delta":65904233},{"NoteNumber":64,"Velocity":52,"Duration":185732,"SoundDuration":185732,"Delta":65904233},{"NoteNumber":62,"Velocity":42,"Duration":190147,"SoundDuration":190147,"Delta":66089966},{"NoteNumber":60,"Velocity":55,"Duration":71885,"SoundDuration":71885,"Delta":66208228},{"NoteNumber":58,"Velocity":53,"Duration":144927,"SoundDuration":144927,"Delta":66280113},{"NoteNumber":58,"Velocity":28,"Duration":423121,"SoundDuration":423121,"Delta":66473350},{"NoteNumber":64,"Velocity":48,"Duration":193236,"SoundDuration":193236,"Delta":66473350},{"NoteNumber":62,"Velocity":40,"Duration":229885,"SoundDuration":229885,"Delta":66666587},{"NoteNumber":45,"Velocity":65,"Duration":566038,"SoundDuration":566038,"Delta":66896472},{"NoteNumber":52,"Velocity":63,"Duration":550459,"SoundDuration":550459,"Delta":67462510},{"NoteNumber":64,"Velocity":51,"Duration":553408,"SoundDuration":553408,"Delta":68012969},{"NoteNumber":61,"Velocity":51,"Duration":553408,"SoundDuration":553408,"Delta":68012969},{"NoteNumber":57,"Velocity":57,"Duration":553408,"SoundDuration":553408,"Delta":68012969},{"NoteNumber":50,"Velocity":47,"Duration":180180,"SoundDuration":180180,"Delta":68566377},{"NoteNumber":52,"Velocity":49,"Duration":179372,"SoundDuration":179372,"Delta":68746558},{"NoteNumber":53,"Velocity":51,"Duration":178571,"SoundDuration":178571,"Delta":68925930},{"NoteNumber":58,"Velocity":51,"Duration":266273,"SoundDuration":266273,"Delta":69104501},{"NoteNumber":64,"Velocity":51,"Duration":266273,"SoundDuration":266273,"Delta":69104501},{"NoteNumber":62,"Velocity":51,"Duration":266273,"SoundDuration":266273,"Delta":69104501},{"NoteNumber":55,"Velocity":53,"Duration":177777,"SoundDuration":177777,"Delta":69104501},{"NoteNumber":57,"Velocity":55,"Duration":176990,"SoundDuration":176990,"Delta":69282279},{"NoteNumber":58,"Velocity":58,"Duration":176018,"SoundDuration":176018,"Delta":69459270},{"NoteNumber":60,"Velocity":60,"Duration":176999,"SoundDuration":176999,"Delta":69635288},{"NoteNumber":58,"Velocity":57,"Duration":181827,"SoundDuration":181827,"Delta":69812288},{"NoteNumber":57,"Velocity":55,"Duration":186926,"SoundDuration":186926,"Delta":69994115},{"NoteNumber":45,"Velocity":65,"Duration":571428,"SoundDuration":571428,"Delta":70181042},{"NoteNumber":52,"Velocity":63,"Duration":560748,"SoundDuration":560748,"Delta":70752471},{"NoteNumber":61,"Velocity":51,"Duration":619284,"SoundDuration":619284,"Delta":71313219},{"NoteNumber":64,"Velocity":51,"Duration":619284,"SoundDuration":619284,"Delta":71313219},{"NoteNumber":57,"Velocity":57,"Duration":619284,"SoundDuration":619284,"Delta":71313219},{"NoteNumber":50,"Velocity":42,"Duration":199502,"SoundDuration":199502,"Delta":71932504},{"NoteNumber":52,"Velocity":44,"Duration":197046,"SoundDuration":197046,"Delta":72132006},{"NoteNumber":53,"Velocity":45,"Duration":194413,"SoundDuration":194413,"Delta":72329053},{"NoteNumber":58,"Velocity":45,"Duration":293932,"SoundDuration":293932,"Delta":72523467},{"NoteNumber":64,"Velocity":45,"Duration":293932,"SoundDuration":293932,"Delta":72523467},{"NoteNumber":62,"Velocity":45,"Duration":293932,"SoundDuration":293932,"Delta":72523467},{"NoteNumber":55,"Velocity":47,"Duration":194427,"SoundDuration":194427,"Delta":72523467},{"NoteNumber":57,"Velocity":49,"Duration":200771,"SoundDuration":200771,"Delta":72717894},{"NoteNumber":58,"Velocity":49,"Duration":207810,"SoundDuration":207810,"Delta":72918666},{"NoteNumber":60,"Velocity":52,"Duration":215366,"SoundDuration":215366,"Delta":73126476},{"NoteNumber":58,"Velocity":49,"Duration":223382,"SoundDuration":223382,"Delta":73341842},{"NoteNumber":57,"Velocity":44,"Duration":245930,"SoundDuration":245930,"Delta":73565225},{"NoteNumber":70,"Velocity":49,"Duration":2558999,"SoundDuration":2558999,"Delta":73811155},{"NoteNumber":76,"Velocity":49,"Duration":2558999,"SoundDuration":2558999,"Delta":73811155},{"NoteNumber":56,"Velocity":41,"Duration":2558999,"SoundDuration":2558999,"Delta":73811155},{"NoteNumber":62,"Velocity":41,"Duration":2558999,"SoundDuration":2558999,"Delta":73811155},{"NoteNumber":82,"Velocity":55,"Duration":2028825,"SoundDuration":2028825,"Delta":76370155},{"NoteNumber":58,"Velocity":46,"Duration":2028825,"SoundDuration":2028825,"Delta":76370155},{"NoteNumber":84,"Velocity":51,"Duration":281689,"SoundDuration":281689,"Delta":78398981},{"NoteNumber":60,"Velocity":43,"Duration":281689,"SoundDuration":281689,"Delta":78398981},{"NoteNumber":86,"Velocity":55,"Duration":270270,"SoundDuration":270270,"Delta":78680671},{"NoteNumber":62,"Velocity":46,"Duration":270270,"SoundDuration":270270,"Delta":78680671},{"NoteNumber":89,"Velocity":47,"Duration":279070,"SoundDuration":279070,"Delta":78950941},{"NoteNumber":65,"Velocity":39,"Duration":279070,"SoundDuration":279070,"Delta":78950941},{"NoteNumber":86,"Velocity":56,"Duration":265486,"SoundDuration":265486,"Delta":79230011},{"NoteNumber":62,"Velocity":47,"Duration":265486,"SoundDuration":265486,"Delta":79230011},{"NoteNumber":84,"Velocity":53,"Duration":131004,"SoundDuration":131004,"Delta":79495498},{"NoteNumber":60,"Velocity":45,"Duration":131004,"SoundDuration":131004,"Delta":79495498},{"NoteNumber":84,"Velocity":41,"Duration":65502,"SoundDuration":65502,"Delta":79626502},{"NoteNumber":60,"Velocity":40,"Duration":65502,"SoundDuration":65502,"Delta":79626502},{"NoteNumber":86,"Velocity":42,"Duration":65502,"SoundDuration":65502,"Delta":79692004},{"NoteNumber":62,"Velocity":39,"Duration":65502,"SoundDuration":65502,"Delta":79692004},{"NoteNumber":84,"Velocity":45,"Duration":263158,"SoundDuration":263158,"Delta":79757506},{"NoteNumber":60,"Velocity":40,"Duration":263158,"SoundDuration":263158,"Delta":79757506},{"NoteNumber":82,"Velocity":48,"Duration":269058,"SoundDuration":269058,"Delta":80020664},{"NoteNumber":58,"Velocity":39,"Duration":269058,"SoundDuration":269058,"Delta":80020664},{"NoteNumber":77,"Velocity":48,"Duration":269058,"SoundDuration":269058,"Delta":80289722},{"NoteNumber":53,"Velocity":40,"Duration":269058,"SoundDuration":269058,"Delta":80289722},{"NoteNumber":82,"Velocity":43,"Duration":324710,"SoundDuration":324710,"Delta":80558781},{"NoteNumber":58,"Velocity":36,"Duration":324710,"SoundDuration":324710,"Delta":80558781},{"NoteNumber":81,"Velocity":47,"Duration":1284342,"SoundDuration":1284342,"Delta":80883491},{"NoteNumber":57,"Velocity":39,"Duration":1284342,"SoundDuration":1284342,"Delta":80883491},{"NoteNumber":80,"Velocity":47,"Duration":315789,"SoundDuration":315789,"Delta":82167834},{"NoteNumber":56,"Velocity":39,"Duration":315789,"SoundDuration":315789,"Delta":82167834},{"NoteNumber":77,"Velocity":43,"Duration":315789,"SoundDuration":315789,"Delta":82483623},{"NoteNumber":53,"Velocity":36,"Duration":315789,"SoundDuration":315789,"Delta":82483623},{"NoteNumber":76,"Velocity":45,"Duration":324324,"SoundDuration":324324,"Delta":82799413},{"NoteNumber":52,"Velocity":38,"Duration":324324,"SoundDuration":324324,"Delta":82799413},{"NoteNumber":74,"Velocity":42,"Duration":324324,"SoundDuration":324324,"Delta":83123737},{"NoteNumber":50,"Velocity":35,"Duration":324324,"SoundDuration":324324,"Delta":83123737},{"NoteNumber":45,"Velocity":34,"Duration":317460,"SoundDuration":317460,"Delta":83448062},{"NoteNumber":57,"Velocity":40,"Duration":305410,"SoundDuration":305410,"Delta":83765522},{"NoteNumber":52,"Velocity":32,"Duration":307976,"SoundDuration":307976,"Delta":83765522},{"NoteNumber":61,"Velocity":41,"Duration":297766,"SoundDuration":297766,"Delta":84073499},{"NoteNumber":57,"Velocity":32,"Duration":297766,"SoundDuration":297766,"Delta":84073499},{"NoteNumber":64,"Velocity":44,"Duration":285714,"SoundDuration":285714,"Delta":84371265},{"NoteNumber":61,"Velocity":33,"Duration":285714,"SoundDuration":285714,"Delta":84371265},{"NoteNumber":69,"Velocity":46,"Duration":281689,"SoundDuration":281689,"Delta":84656979},{"NoteNumber":64,"Velocity":34,"Duration":281689,"SoundDuration":281689,"Delta":84656979},{"NoteNumber":73,"Velocity":47,"Duration":294117,"SoundDuration":294117,"Delta":84938669},{"NoteNumber":69,"Velocity":35,"Duration":294117,"SoundDuration":294117,"Delta":84938669},{"NoteNumber":76,"Velocity":50,"Duration":286889,"SoundDuration":286889,"Delta":85232787},{"NoteNumber":73,"Velocity":39,"Duration":286889,"SoundDuration":286889,"Delta":85232787},{"NoteNumber":69,"Velocity":40,"Duration":296384,"SoundDuration":296384,"Delta":85519676},{"NoteNumber":61,"Velocity":32,"Duration":296384,"SoundDuration":296384,"Delta":85519676},{"NoteNumber":73,"Velocity":41,"Duration":289547,"SoundDuration":289547,"Delta":85816060},{"NoteNumber":64,"Velocity":32,"Duration":289547,"SoundDuration":289547,"Delta":85816060},{"NoteNumber":76,"Velocity":44,"Duration":285714,"SoundDuration":285714,"Delta":86105607},{"NoteNumber":69,"Velocity":33,"Duration":285714,"SoundDuration":285714,"Delta":86105607},{"NoteNumber":81,"Velocity":46,"Duration":283018,"SoundDuration":283018,"Delta":86391322},{"NoteNumber":73,"Velocity":34,"Duration":283018,"SoundDuration":283018,"Delta":86391322},{"NoteNumber":85,"Velocity":47,"Duration":292682,"SoundDuration":292682,"Delta":86674341},{"NoteNumber":76,"Velocity":35,"Duration":292682,"SoundDuration":292682,"Delta":86674341},{"NoteNumber":88,"Velocity":51,"Duration":299192,"SoundDuration":299192,"Delta":86967024},{"NoteNumber":81,"Velocity":39,"Duration":299192,"SoundDuration":299192,"Delta":86967024},{"NoteNumber":69,"Velocity":40,"Duration":317325,"SoundDuration":317325,"Delta":87266216},{"NoteNumber":61,"Velocity":32,"Duration":317325,"SoundDuration":317325,"Delta":87266216},{"NoteNumber":73,"Velocity":41,"Duration":309533,"SoundDuration":309533,"Delta":87583542},{"NoteNumber":64,"Velocity":32,"Duration":309533,"SoundDuration":309533,"Delta":87583542},{"NoteNumber":76,"Velocity":44,"Duration":325556,"SoundDuration":325556,"Delta":87893075},{"NoteNumber":69,"Velocity":33,"Duration":325556,"SoundDuration":325556,"Delta":87893075},{"NoteNumber":81,"Velocity":46,"Duration":320581,"SoundDuration":320581,"Delta":88218631},{"NoteNumber":73,"Velocity":34,"Duration":320581,"SoundDuration":320581,"Delta":88218631},{"NoteNumber":85,"Velocity":47,"Duration":341997,"SoundDuration":341997,"Delta":88539213},{"NoteNumber":76,"Velocity":35,"Duration":341997,"SoundDuration":341997,"Delta":88539213},{"NoteNumber":88,"Velocity":49,"Duration":332520,"SoundDuration":332520,"Delta":88881210},{"NoteNumber":81,"Velocity":39,"Duration":332520,"SoundDuration":332520,"Delta":88881210},{"NoteNumber":81,"Velocity":46,"Duration":343965,"SoundDuration":343965,"Delta":89213731},{"NoteNumber":73,"Velocity":34,"Duration":343965,"SoundDuration":343965,"Delta":89213731},{"NoteNumber":85,"Velocity":44,"Duration":350011,"SoundDuration":350011,"Delta":89557697},{"NoteNumber":76,"Velocity":34,"Duration":350011,"SoundDuration":350011,"Delta":89557697},{"NoteNumber":88,"Velocity":42,"Duration":356274,"SoundDuration":356274,"Delta":89907709},{"NoteNumber":81,"Velocity":33,"Duration":356274,"SoundDuration":356274,"Delta":89907709},{"NoteNumber":93,"Velocity":40,"Duration":362736,"SoundDuration":362736,"Delta":90263983},{"NoteNumber":85,"Velocity":32,"Duration":362736,"SoundDuration":362736,"Delta":90263983},{"NoteNumber":97,"Velocity":38,"Duration":369861,"SoundDuration":369861,"Delta":90626720},{"NoteNumber":88,"Velocity":32,"Duration":369861,"SoundDuration":369861,"Delta":90626720},{"NoteNumber":100,"Velocity":36,"Duration":1937358,"SoundDuration":1937358,"Delta":90996581},{"NoteNumber":93,"Velocity":36,"Duration":1937358,"SoundDuration":1937358,"Delta":90996581},{"NoteNumber":105,"Velocity":36,"Duration":1937358,"SoundDuration":1937358,"Delta":90996581},{"NoteNumber":85,"Velocity":23,"Duration":1937358,"SoundDuration":1937358,"Delta":90996581},{"NoteNumber":69,"Velocity":23,"Duration":1937358,"SoundDuration":1937358,"Delta":90996581},{"NoteNumber":76,"Velocity":23,"Duration":1937358,"SoundDuration":1937358,"Delta":90996581}],"license":{"name":"Creative Commons Attribution-ShareAlike 3.0 Germany","url":"http://creativecommons.org/licenses/by-sa/3.0/de/deed.en","text":"The MIDI files in this folder were downloaded from http://www.piano-midi.de and are licensed under the Creative Commons Attribution-ShareAlike 3.0 Germany license by Bernd Krueger.\n\nThe MIDI, audio(MP3, OGG) and video files of Bernd Krueger are licensed under the cc-by-sa Germany License . This means, that you can use and adapt the files, as long as you attribute to the copyright holder Name: Bernd Krueger Source: http://www.piano-midi.de The distribution or public playback of the files is only allowed under identical license conditions . The scores are open source.","attribution":"Bernd Krueger","attributionUrl":"http://www.piano-midi.de"}}