{"title":"Zortcico","artist":"Albéniz","durationMs":151826,"midiSha256":"f468faca1aa302a083f203bae7b70c70cdc78989d69b44c68f965d31d501e24c","midiObject":[{"NoteNumber":59,"Velocity":44,"Duration":263158,"SoundDuration":263158,"Delta":0},{"NoteNumber":59,"Velocity":40,"Duration":394737,"SoundDuration":394737,"Delta":263158},{"NoteNumber":59,"Velocity":41,"Duration":131579,"SoundDuration":131579,"Delta":657895},{"NoteNumber":59,"Velocity":44,"Duration":394736,"SoundDuration":394736,"Delta":789474},{"NoteNumber":59,"Velocity":40,"Duration":131579,"SoundDuration":131579,"Delta":1184211},{"NoteNumber":59,"Velocity":44,"Duration":263158,"SoundDuration":263158,"Delta":1315790},{"NoteNumber":59,"Velocity":40,"Duration":394737,"SoundDuration":394737,"Delta":1578948},{"NoteNumber":59,"Velocity":40,"Duration":131578,"SoundDuration":131578,"Delta":1973685},{"NoteNumber":65,"Velocity":49,"Duration":533332,"SoundDuration":533332,"Delta":2105264},{"NoteNumber":68,"Velocity":58,"Duration":533332,"SoundDuration":533332,"Delta":2105264},{"NoteNumber":59,"Velocity":44,"Duration":399999,"SoundDuration":399999,"Delta":2105264},{"NoteNumber":59,"Velocity":38,"Duration":133333,"SoundDuration":133333,"Delta":2505263},{"NoteNumber":66,"Velocity":50,"Duration":263157,"SoundDuration":263157,"Delta":2638597},{"NoteNumber":69,"Velocity":60,"Duration":263157,"SoundDuration":263157,"Delta":2638597},{"NoteNumber":59,"Velocity":44,"Duration":263157,"SoundDuration":263157,"Delta":2638597},{"NoteNumber":66,"Velocity":47,"Duration":394737,"SoundDuration":394737,"Delta":2901754},{"NoteNumber":69,"Velocity":56,"Duration":394737,"SoundDuration":394737,"Delta":2901754},{"NoteNumber":59,"Velocity":40,"Duration":394737,"SoundDuration":394737,"Delta":2901754},{"NoteNumber":64,"Velocity":44,"Duration":131579,"SoundDuration":131579,"Delta":3296491},{"NoteNumber":73,"Velocity":52,"Duration":131579,"SoundDuration":131579,"Delta":3296491},{"NoteNumber":59,"Velocity":40,"Duration":131579,"SoundDuration":131579,"Delta":3296491},{"NoteNumber":63,"Velocity":47,"Duration":397687,"SoundDuration":397687,"Delta":3428071},{"NoteNumber":71,"Velocity":56,"Duration":397687,"SoundDuration":397687,"Delta":3428071},{"NoteNumber":59,"Velocity":44,"Duration":397687,"SoundDuration":397687,"Delta":3428071},{"NoteNumber":67,"Velocity":51,"Duration":134529,"SoundDuration":134529,"Delta":3825758},{"NoteNumber":63,"Velocity":42,"Duration":134529,"SoundDuration":134529,"Delta":3825758},{"NoteNumber":59,"Velocity":40,"Duration":134529,"SoundDuration":134529,"Delta":3825758},{"NoteNumber":64,"Velocity":47,"Duration":263157,"SoundDuration":263157,"Delta":3960287},{"NoteNumber":68,"Velocity":56,"Duration":263157,"SoundDuration":263157,"Delta":3960287},{"NoteNumber":59,"Velocity":44,"Duration":263157,"SoundDuration":263157,"Delta":3960287},{"NoteNumber":68,"Velocity":49,"Duration":394737,"SoundDuration":394737,"Delta":4223445},{"NoteNumber":71,"Velocity":58,"Duration":394737,"SoundDuration":394737,"Delta":4223445},{"NoteNumber":59,"Velocity":40,"Duration":394737,"SoundDuration":394737,"Delta":4223445},{"NoteNumber":80,"Velocity":58,"Duration":131579,"SoundDuration":131579,"Delta":4618182},{"NoteNumber":76,"Velocity":48,"Duration":131579,"SoundDuration":131579,"Delta":4618182},{"NoteNumber":59,"Velocity":40,"Duration":131579,"SoundDuration":131579,"Delta":4618182},{"NoteNumber":78,"Velocity":55,"Duration":396491,"SoundDuration":396491,"Delta":4749761},{"NoteNumber":75,"Velocity":46,"Duration":396491,"SoundDuration":396491,"Delta":4749761},{"NoteNumber":59,"Velocity":44,"Duration":396491,"SoundDuration":396491,"Delta":4749761},{"NoteNumber":76,"Velocity":52,"Duration":133333,"SoundDuration":133333,"Delta":5146252},{"NoteNumber":73,"Velocity":44,"Duration":133333,"SoundDuration":133333,"Delta":5146252},{"NoteNumber":59,"Velocity":40,"Duration":133333,"SoundDuration":133333,"Delta":5146252},{"NoteNumber":75,"Velocity":56,"Duration":88888,"SoundDuration":88888,"Delta":5279586},{"NoteNumber":71,"Velocity":47,"Duration":88888,"SoundDuration":88888,"Delta":5279586},{"NoteNumber":59,"Velocity":44,"Duration":266666,"SoundDuration":266666,"Delta":5279586},{"NoteNumber":76,"Velocity":48,"Duration":88888,"SoundDuration":88888,"Delta":5368474},{"NoteNumber":73,"Velocity":40,"Duration":88888,"SoundDuration":88888,"Delta":5368474},{"NoteNumber":75,"Velocity":48,"Duration":88888,"SoundDuration":88888,"Delta":5457363},{"NoteNumber":71,"Velocity":40,"Duration":88888,"SoundDuration":88888,"Delta":5457363},{"NoteNumber":73,"Velocity":53,"Duration":398245,"SoundDuration":398245,"Delta":5546252},{"NoteNumber":69,"Velocity":45,"Duration":398245,"SoundDuration":398245,"Delta":5546252},{"NoteNumber":59,"Velocity":40,"Duration":398245,"SoundDuration":398245,"Delta":5546252},{"NoteNumber":75,"Velocity":52,"Duration":131578,"SoundDuration":131578,"Delta":5944498},{"NoteNumber":71,"Velocity":44,"Duration":131578,"SoundDuration":131578,"Delta":5944498},{"NoteNumber":59,"Velocity":40,"Duration":131578,"SoundDuration":131578,"Delta":5944498},{"NoteNumber":73,"Velocity":47,"Duration":407947,"SoundDuration":407947,"Delta":6076077},{"NoteNumber":76,"Velocity":56,"Duration":407947,"SoundDuration":407947,"Delta":6076077},{"NoteNumber":59,"Velocity":44,"Duration":407947,"SoundDuration":407947,"Delta":6076077},{"NoteNumber":73,"Velocity":52,"Duration":138888,"SoundDuration":138888,"Delta":6484024},{"NoteNumber":69,"Velocity":44,"Duration":138888,"SoundDuration":138888,"Delta":6484024},{"NoteNumber":59,"Velocity":44,"Duration":138888,"SoundDuration":138888,"Delta":6484024},{"NoteNumber":68,"Velocity":40,"Duration":797808,"SoundDuration":797808,"Delta":6622913},{"NoteNumber":71,"Velocity":48,"Duration":797808,"SoundDuration":797808,"Delta":6622913},{"NoteNumber":52,"Velocity":39,"Duration":797808,"SoundDuration":797808,"Delta":6622913},{"NoteNumber":59,"Velocity":50,"Duration":263157,"SoundDuration":263157,"Delta":6622913},{"NoteNumber":59,"Velocity":48,"Duration":398904,"SoundDuration":398904,"Delta":6886071},{"NoteNumber":64,"Velocity":49,"Duration":135746,"SoundDuration":135746,"Delta":7284975},{"NoteNumber":63,"Velocity":49,"Duration":399999,"SoundDuration":399999,"Delta":7420722},{"NoteNumber":62,"Velocity":45,"Duration":133333,"SoundDuration":133333,"Delta":7820722},{"NoteNumber":71,"Velocity":49,"Duration":270270,"SoundDuration":270270,"Delta":7954055},{"NoteNumber":77,"Velocity":56,"Duration":270270,"SoundDuration":270270,"Delta":7954055},{"NoteNumber":61,"Velocity":48,"Duration":1347213,"SoundDuration":1347213,"Delta":7954055},{"NoteNumber":68,"Velocity":48,"Duration":270270,"SoundDuration":270270,"Delta":7954055},{"NoteNumber":73,"Velocity":49,"Duration":401931,"SoundDuration":401931,"Delta":8224325},{"NoteNumber":78,"Velocity":55,"Duration":401931,"SoundDuration":401931,"Delta":8224325},{"NoteNumber":69,"Velocity":51,"Duration":401931,"SoundDuration":401931,"Delta":8224325},{"NoteNumber":74,"Velocity":55,"Duration":141509,"SoundDuration":141509,"Delta":8626257},{"NoteNumber":80,"Velocity":55,"Duration":141509,"SoundDuration":141509,"Delta":8626257},{"NoteNumber":71,"Velocity":50,"Duration":141509,"SoundDuration":141509,"Delta":8626257},{"NoteNumber":83,"Velocity":50,"Duration":92588,"SoundDuration":92588,"Delta":8697012},{"NoteNumber":81,"Velocity":58,"Duration":397755,"SoundDuration":397755,"Delta":8767767},{"NoteNumber":77,"Velocity":49,"Duration":533501,"SoundDuration":533501,"Delta":8767767},{"NoteNumber":73,"Velocity":46,"Duration":397755,"SoundDuration":397755,"Delta":8767767},{"NoteNumber":80,"Velocity":57,"Duration":135746,"SoundDuration":135746,"Delta":9165522},{"NoteNumber":71,"Velocity":48,"Duration":135746,"SoundDuration":135746,"Delta":9165522},{"NoteNumber":73,"Velocity":46,"Duration":789474,"SoundDuration":789474,"Delta":9301268},{"NoteNumber":85,"Velocity":46,"Duration":789474,"SoundDuration":789474,"Delta":9301268},{"NoteNumber":80,"Velocity":60,"Duration":263158,"SoundDuration":263158,"Delta":9301268},{"NoteNumber":66,"Velocity":39,"Duration":789474,"SoundDuration":789474,"Delta":9301268},{"NoteNumber":71,"Velocity":50,"Duration":263158,"SoundDuration":263158,"Delta":9301268},{"NoteNumber":78,"Velocity":58,"Duration":394736,"SoundDuration":394736,"Delta":9564426},{"NoteNumber":69,"Velocity":49,"Duration":394736,"SoundDuration":394736,"Delta":9564426},{"NoteNumber":77,"Velocity":50,"Duration":131579,"SoundDuration":131579,"Delta":9959163},{"NoteNumber":68,"Velocity":46,"Duration":131579,"SoundDuration":131579,"Delta":9959163},{"NoteNumber":78,"Velocity":53,"Duration":400772,"SoundDuration":400772,"Delta":10090742},{"NoteNumber":69,"Velocity":48,"Duration":400772,"SoundDuration":400772,"Delta":10090742},{"NoteNumber":72,"Velocity":55,"Duration":137614,"SoundDuration":137614,"Delta":10491515},{"NoteNumber":69,"Velocity":55,"Duration":137614,"SoundDuration":137614,"Delta":10491515},{"NoteNumber":64,"Velocity":46,"Duration":137614,"SoundDuration":137614,"Delta":10491515},{"NoteNumber":71,"Velocity":57,"Duration":263158,"SoundDuration":263158,"Delta":10629130},{"NoteNumber":69,"Velocity":47,"Duration":789474,"SoundDuration":789474,"Delta":10629130},{"NoteNumber":59,"Velocity":37,"Duration":789474,"SoundDuration":789474,"Delta":10629130},{"NoteNumber":63,"Velocity":49,"Duration":263158,"SoundDuration":263158,"Delta":10629130},{"NoteNumber":77,"Velocity":58,"Duration":394736,"SoundDuration":394736,"Delta":10892288},{"NoteNumber":62,"Velocity":49,"Duration":394736,"SoundDuration":394736,"Delta":10892288},{"NoteNumber":78,"Velocity":59,"Duration":131579,"SoundDuration":131579,"Delta":11287025},{"NoteNumber":63,"Velocity":49,"Duration":131579,"SoundDuration":131579,"Delta":11287025},{"NoteNumber":81,"Velocity":61,"Duration":405338,"SoundDuration":405338,"Delta":11418604},{"NoteNumber":59,"Velocity":37,"Duration":547518,"SoundDuration":547518,"Delta":11418604},{"NoteNumber":73,"Velocity":46,"Duration":405338,"SoundDuration":405338,"Delta":11418604},{"NoteNumber":80,"Velocity":57,"Duration":142179,"SoundDuration":142179,"Delta":11823942},{"NoteNumber":71,"Velocity":48,"Duration":142179,"SoundDuration":142179,"Delta":11823942},{"NoteNumber":83,"Velocity":42,"Duration":1085972,"SoundDuration":1085972,"Delta":11966122},{"NoteNumber":71,"Velocity":38,"Duration":1226817,"SoundDuration":1226817,"Delta":11966122},{"NoteNumber":78,"Velocity":55,"Duration":271492,"SoundDuration":271492,"Delta":11966122},{"NoteNumber":64,"Velocity":34,"Duration":1226817,"SoundDuration":1226817,"Delta":11966122},{"NoteNumber":69,"Velocity":46,"Duration":271492,"SoundDuration":271492,"Delta":11966122},{"NoteNumber":76,"Velocity":52,"Duration":407239,"SoundDuration":407239,"Delta":12237615},{"NoteNumber":68,"Velocity":45,"Duration":407239,"SoundDuration":407239,"Delta":12237615},{"NoteNumber":75,"Velocity":50,"Duration":135746,"SoundDuration":135746,"Delta":12644854},{"NoteNumber":67,"Velocity":41,"Duration":135746,"SoundDuration":135746,"Delta":12644854},{"NoteNumber":76,"Velocity":50,"Duration":271493,"SoundDuration":271493,"Delta":12773813},{"NoteNumber":68,"Velocity":37,"Duration":271492,"SoundDuration":271492,"Delta":12780601},{"NoteNumber":65,"Velocity":49,"Duration":140844,"SoundDuration":140844,"Delta":13192939},{"NoteNumber":68,"Velocity":58,"Duration":140844,"SoundDuration":140844,"Delta":13192939},{"NoteNumber":66,"Velocity":50,"Duration":263158,"SoundDuration":263158,"Delta":13333784},{"NoteNumber":69,"Velocity":60,"Duration":263158,"SoundDuration":263158,"Delta":13333784},{"NoteNumber":59,"Velocity":44,"Duration":263158,"SoundDuration":263158,"Delta":13333784},{"NoteNumber":66,"Velocity":47,"Duration":394736,"SoundDuration":394736,"Delta":13596942},{"NoteNumber":69,"Velocity":56,"Duration":394736,"SoundDuration":394736,"Delta":13596942},{"NoteNumber":59,"Velocity":40,"Duration":394736,"SoundDuration":394736,"Delta":13596942},{"NoteNumber":64,"Velocity":44,"Duration":131579,"SoundDuration":131579,"Delta":13991679},{"NoteNumber":73,"Velocity":52,"Duration":131579,"SoundDuration":131579,"Delta":13991679},{"NoteNumber":59,"Velocity":40,"Duration":131579,"SoundDuration":131579,"Delta":13991679},{"NoteNumber":63,"Velocity":47,"Duration":397687,"SoundDuration":397687,"Delta":14123258},{"NoteNumber":71,"Velocity":56,"Duration":397687,"SoundDuration":397687,"Delta":14123258},{"NoteNumber":59,"Velocity":44,"Duration":397687,"SoundDuration":397687,"Delta":14123258},{"NoteNumber":67,"Velocity":51,"Duration":134529,"SoundDuration":134529,"Delta":14520945},{"NoteNumber":63,"Velocity":42,"Duration":134529,"SoundDuration":134529,"Delta":14520945},{"NoteNumber":59,"Velocity":40,"Duration":134529,"SoundDuration":134529,"Delta":14520945},{"NoteNumber":64,"Velocity":47,"Duration":263158,"SoundDuration":263158,"Delta":14655474},{"NoteNumber":68,"Velocity":56,"Duration":263158,"SoundDuration":263158,"Delta":14655474},{"NoteNumber":59,"Velocity":44,"Duration":263158,"SoundDuration":263158,"Delta":14655474},{"NoteNumber":68,"Velocity":49,"Duration":394736,"SoundDuration":394736,"Delta":14918632},{"NoteNumber":71,"Velocity":58,"Duration":394736,"SoundDuration":394736,"Delta":14918632},{"NoteNumber":59,"Velocity":40,"Duration":394736,"SoundDuration":394736,"Delta":14918632},{"NoteNumber":80,"Velocity":60,"Duration":131579,"SoundDuration":131579,"Delta":15313369},{"NoteNumber":76,"Velocity":50,"Duration":131579,"SoundDuration":131579,"Delta":15313369},{"NoteNumber":59,"Velocity":40,"Duration":131579,"SoundDuration":131579,"Delta":15313369},{"NoteNumber":78,"Velocity":55,"Duration":396491,"SoundDuration":396491,"Delta":15444948},{"NoteNumber":75,"Velocity":46,"Duration":396491,"SoundDuration":396491,"Delta":15444948},{"NoteNumber":59,"Velocity":44,"Duration":396491,"SoundDuration":396491,"Delta":15444948},{"NoteNumber":76,"Velocity":52,"Duration":133333,"SoundDuration":133333,"Delta":15841439},{"NoteNumber":73,"Velocity":44,"Duration":133333,"SoundDuration":133333,"Delta":15841439},{"NoteNumber":59,"Velocity":40,"Duration":133333,"SoundDuration":133333,"Delta":15841439},{"NoteNumber":75,"Velocity":56,"Duration":87719,"SoundDuration":87719,"Delta":15974773},{"NoteNumber":71,"Velocity":47,"Duration":87719,"SoundDuration":87719,"Delta":15974773},{"NoteNumber":59,"Velocity":44,"Duration":263158,"SoundDuration":263158,"Delta":15974773},{"NoteNumber":76,"Velocity":48,"Duration":87719,"SoundDuration":87719,"Delta":16062492},{"NoteNumber":73,"Velocity":40,"Duration":87719,"SoundDuration":87719,"Delta":16062492},{"NoteNumber":75,"Velocity":48,"Duration":87719,"SoundDuration":87719,"Delta":16150211},{"NoteNumber":71,"Velocity":40,"Duration":87719,"SoundDuration":87719,"Delta":16150211},{"NoteNumber":73,"Velocity":53,"Duration":394736,"SoundDuration":394736,"Delta":16237931},{"NoteNumber":69,"Velocity":45,"Duration":394736,"SoundDuration":394736,"Delta":16237931},{"NoteNumber":59,"Velocity":40,"Duration":394736,"SoundDuration":394736,"Delta":16237931},{"NoteNumber":75,"Velocity":52,"Duration":131579,"SoundDuration":131579,"Delta":16632668},{"NoteNumber":71,"Velocity":44,"Duration":131579,"SoundDuration":131579,"Delta":16632668},{"NoteNumber":59,"Velocity":40,"Duration":131579,"SoundDuration":131579,"Delta":16632668},{"NoteNumber":73,"Velocity":47,"Duration":407947,"SoundDuration":407947,"Delta":16764247},{"NoteNumber":76,"Velocity":56,"Duration":407947,"SoundDuration":407947,"Delta":16764247},{"NoteNumber":59,"Velocity":44,"Duration":407947,"SoundDuration":407947,"Delta":16764247},{"NoteNumber":73,"Velocity":52,"Duration":138889,"SoundDuration":138889,"Delta":17172194},{"NoteNumber":69,"Velocity":44,"Duration":138889,"SoundDuration":138889,"Delta":17172194},{"NoteNumber":59,"Velocity":44,"Duration":138889,"SoundDuration":138889,"Delta":17172194},{"NoteNumber":68,"Velocity":40,"Duration":797809,"SoundDuration":797809,"Delta":17311083},{"NoteNumber":71,"Velocity":48,"Duration":797809,"SoundDuration":797809,"Delta":17311083},{"NoteNumber":52,"Velocity":50,"Duration":263158,"SoundDuration":263158,"Delta":17311083},{"NoteNumber":59,"Velocity":48,"Duration":398904,"SoundDuration":398904,"Delta":17574241},{"NoteNumber":64,"Velocity":51,"Duration":135746,"SoundDuration":135746,"Delta":17973146},{"NoteNumber":68,"Velocity":54,"Duration":399999,"SoundDuration":399999,"Delta":18108892},{"NoteNumber":71,"Velocity":55,"Duration":133333,"SoundDuration":133333,"Delta":18508892},{"NoteNumber":76,"Velocity":52,"Duration":789473,"SoundDuration":789473,"Delta":18642225},{"NoteNumber":81,"Velocity":65,"Duration":263158,"SoundDuration":263158,"Delta":18642225},{"NoteNumber":70,"Velocity":49,"Duration":789473,"SoundDuration":789473,"Delta":18642225},{"NoteNumber":72,"Velocity":59,"Duration":1327861,"SoundDuration":1327861,"Delta":18642225},{"NoteNumber":79,"Velocity":61,"Duration":394736,"SoundDuration":394736,"Delta":18905383},{"NoteNumber":81,"Velocity":61,"Duration":131578,"SoundDuration":131578,"Delta":19300120},{"NoteNumber":84,"Velocity":57,"Duration":400772,"SoundDuration":400772,"Delta":19431699},{"NoteNumber":69,"Velocity":55,"Duration":538387,"SoundDuration":538387,"Delta":19431699},{"NoteNumber":79,"Velocity":51,"Duration":538387,"SoundDuration":538387,"Delta":19438278},{"NoteNumber":77,"Velocity":50,"Duration":137614,"SoundDuration":137614,"Delta":19832472},{"NoteNumber":80,"Velocity":57,"Duration":263158,"SoundDuration":263158,"Delta":19970087},{"NoteNumber":75,"Velocity":48,"Duration":794173,"SoundDuration":794173,"Delta":19970087},{"NoteNumber":69,"Velocity":41,"Duration":794173,"SoundDuration":794173,"Delta":19970087},{"NoteNumber":71,"Velocity":49,"Duration":1337259,"SoundDuration":1337259,"Delta":19970087},{"NoteNumber":78,"Velocity":51,"Duration":397086,"SoundDuration":397086,"Delta":20233245},{"NoteNumber":80,"Velocity":51,"Duration":133928,"SoundDuration":133928,"Delta":20630331},{"NoteNumber":78,"Velocity":44,"Duration":543086,"SoundDuration":543086,"Delta":20764260},{"NoteNumber":83,"Velocity":47,"Duration":405471,"SoundDuration":405471,"Delta":20764260},{"NoteNumber":68,"Velocity":46,"Duration":543086,"SoundDuration":543086,"Delta":20764260},{"NoteNumber":76,"Velocity":50,"Duration":137614,"SoundDuration":137614,"Delta":21169732},{"NoteNumber":77,"Velocity":56,"Duration":270270,"SoundDuration":270270,"Delta":21307346},{"NoteNumber":74,"Velocity":49,"Duration":270270,"SoundDuration":270270,"Delta":21307346},{"NoteNumber":71,"Velocity":48,"Duration":270270,"SoundDuration":270270,"Delta":21307346},{"NoteNumber":78,"Velocity":55,"Duration":401931,"SoundDuration":401931,"Delta":21577617},{"NoteNumber":73,"Velocity":49,"Duration":401931,"SoundDuration":401931,"Delta":21577617},{"NoteNumber":69,"Velocity":51,"Duration":401931,"SoundDuration":401931,"Delta":21577617},{"NoteNumber":80,"Velocity":55,"Duration":141509,"SoundDuration":141509,"Delta":21979549},{"NoteNumber":74,"Velocity":55,"Duration":141509,"SoundDuration":141509,"Delta":21979549},{"NoteNumber":65,"Velocity":55,"Duration":141509,"SoundDuration":141509,"Delta":21979549},{"NoteNumber":81,"Velocity":58,"Duration":533501,"SoundDuration":533501,"Delta":22121058},{"NoteNumber":73,"Velocity":48,"Duration":533501,"SoundDuration":533501,"Delta":22121058},{"NoteNumber":66,"Velocity":44,"Duration":533501,"SoundDuration":533501,"Delta":22121058},{"NoteNumber":78,"Velocity":60,"Duration":263158,"SoundDuration":263158,"Delta":22654560},{"NoteNumber":75,"Velocity":50,"Duration":263158,"SoundDuration":263158,"Delta":22654560},{"NoteNumber":59,"Velocity":39,"Duration":789473,"SoundDuration":789473,"Delta":22654560},{"NoteNumber":69,"Velocity":50,"Duration":263158,"SoundDuration":263158,"Delta":22654560},{"NoteNumber":81,"Velocity":58,"Duration":394736,"SoundDuration":394736,"Delta":22917718},{"NoteNumber":75,"Velocity":49,"Duration":394736,"SoundDuration":394736,"Delta":22917718},{"NoteNumber":73,"Velocity":55,"Duration":394736,"SoundDuration":394736,"Delta":22917718},{"NoteNumber":80,"Velocity":53,"Duration":131578,"SoundDuration":131578,"Delta":23312455},{"NoteNumber":75,"Velocity":45,"Duration":131578,"SoundDuration":131578,"Delta":23312455},{"NoteNumber":71,"Velocity":42,"Duration":131578,"SoundDuration":131578,"Delta":23312455},{"NoteNumber":76,"Velocity":55,"Duration":544287,"SoundDuration":544287,"Delta":23444034},{"NoteNumber":71,"Velocity":42,"Duration":544287,"SoundDuration":544287,"Delta":23444034},{"NoteNumber":64,"Velocity":36,"Duration":544287,"SoundDuration":544287,"Delta":23444034},{"NoteNumber":68,"Velocity":47,"Duration":544287,"SoundDuration":544287,"Delta":23444034},{"NoteNumber":69,"Velocity":60,"Duration":263158,"SoundDuration":263158,"Delta":23988321},{"NoteNumber":66,"Velocity":50,"Duration":263158,"SoundDuration":263158,"Delta":23988321},{"NoteNumber":59,"Velocity":44,"Duration":263158,"SoundDuration":263158,"Delta":23988321},{"NoteNumber":69,"Velocity":56,"Duration":394736,"SoundDuration":394736,"Delta":24251479},{"NoteNumber":66,"Velocity":47,"Duration":394736,"SoundDuration":394736,"Delta":24251479},{"NoteNumber":59,"Velocity":40,"Duration":394736,"SoundDuration":394736,"Delta":24251479},{"NoteNumber":73,"Velocity":52,"Duration":131578,"SoundDuration":131578,"Delta":24646216},{"NoteNumber":64,"Velocity":44,"Duration":131578,"SoundDuration":131578,"Delta":24646216},{"NoteNumber":59,"Velocity":40,"Duration":131578,"SoundDuration":131578,"Delta":24646216},{"NoteNumber":71,"Velocity":56,"Duration":397687,"SoundDuration":397687,"Delta":24777795},{"NoteNumber":63,"Velocity":47,"Duration":397687,"SoundDuration":397687,"Delta":24777795},{"NoteNumber":59,"Velocity":44,"Duration":397687,"SoundDuration":397687,"Delta":24777795},{"NoteNumber":63,"Velocity":42,"Duration":134529,"SoundDuration":134529,"Delta":25175483},{"NoteNumber":67,"Velocity":51,"Duration":134529,"SoundDuration":134529,"Delta":25175483},{"NoteNumber":59,"Velocity":40,"Duration":134529,"SoundDuration":134529,"Delta":25175483},{"NoteNumber":68,"Velocity":56,"Duration":263158,"SoundDuration":263158,"Delta":25310012},{"NoteNumber":64,"Velocity":47,"Duration":263158,"SoundDuration":263158,"Delta":25310012},{"NoteNumber":59,"Velocity":44,"Duration":263158,"SoundDuration":263158,"Delta":25310012},{"NoteNumber":71,"Velocity":58,"Duration":394736,"SoundDuration":394736,"Delta":25573170},{"NoteNumber":68,"Velocity":49,"Duration":394736,"SoundDuration":394736,"Delta":25573170},{"NoteNumber":59,"Velocity":40,"Duration":394736,"SoundDuration":394736,"Delta":25573170},{"NoteNumber":76,"Velocity":50,"Duration":131578,"SoundDuration":131578,"Delta":25967907},{"NoteNumber":80,"Velocity":60,"Duration":131578,"SoundDuration":131578,"Delta":25967907},{"NoteNumber":59,"Velocity":40,"Duration":131578,"SoundDuration":131578,"Delta":25967907},{"NoteNumber":75,"Velocity":46,"Duration":396491,"SoundDuration":396491,"Delta":26099486},{"NoteNumber":78,"Velocity":55,"Duration":396491,"SoundDuration":396491,"Delta":26099486},{"NoteNumber":59,"Velocity":44,"Duration":396491,"SoundDuration":396491,"Delta":26099486},{"NoteNumber":76,"Velocity":52,"Duration":133333,"SoundDuration":133333,"Delta":26495977},{"NoteNumber":73,"Velocity":44,"Duration":133333,"SoundDuration":133333,"Delta":26495977},{"NoteNumber":59,"Velocity":40,"Duration":133333,"SoundDuration":133333,"Delta":26495977},{"NoteNumber":71,"Velocity":47,"Duration":87719,"SoundDuration":87719,"Delta":26629310},{"NoteNumber":75,"Velocity":56,"Duration":87719,"SoundDuration":87719,"Delta":26629310},{"NoteNumber":59,"Velocity":44,"Duration":263158,"SoundDuration":263158,"Delta":26629310},{"NoteNumber":73,"Velocity":40,"Duration":87719,"SoundDuration":87719,"Delta":26717030},{"NoteNumber":76,"Velocity":48,"Duration":87719,"SoundDuration":87719,"Delta":26717030},{"NoteNumber":71,"Velocity":40,"Duration":87719,"SoundDuration":87719,"Delta":26804749},{"NoteNumber":75,"Velocity":48,"Duration":87719,"SoundDuration":87719,"Delta":26804749},{"NoteNumber":69,"Velocity":45,"Duration":394736,"SoundDuration":394736,"Delta":26892468},{"NoteNumber":73,"Velocity":53,"Duration":394736,"SoundDuration":394736,"Delta":26892468},{"NoteNumber":59,"Velocity":40,"Duration":394736,"SoundDuration":394736,"Delta":26892468},{"NoteNumber":71,"Velocity":44,"Duration":131579,"SoundDuration":131579,"Delta":27287205},{"NoteNumber":75,"Velocity":52,"Duration":131579,"SoundDuration":131579,"Delta":27287205},{"NoteNumber":59,"Velocity":40,"Duration":131579,"SoundDuration":131579,"Delta":27287205},{"NoteNumber":73,"Velocity":47,"Duration":407947,"SoundDuration":407947,"Delta":27418784},{"NoteNumber":76,"Velocity":56,"Duration":407947,"SoundDuration":407947,"Delta":27418784},{"NoteNumber":59,"Velocity":44,"Duration":407947,"SoundDuration":407947,"Delta":27418784},{"NoteNumber":69,"Velocity":44,"Duration":138889,"SoundDuration":138889,"Delta":27826732},{"NoteNumber":73,"Velocity":52,"Duration":138889,"SoundDuration":138889,"Delta":27826732},{"NoteNumber":59,"Velocity":44,"Duration":138889,"SoundDuration":138889,"Delta":27826732},{"NoteNumber":68,"Velocity":40,"Duration":797809,"SoundDuration":797809,"Delta":27965621},{"NoteNumber":71,"Velocity":48,"Duration":797809,"SoundDuration":797809,"Delta":27965621},{"NoteNumber":52,"Velocity":39,"Duration":797809,"SoundDuration":797809,"Delta":27965621},{"NoteNumber":59,"Velocity":50,"Duration":263158,"SoundDuration":263158,"Delta":27965621},{"NoteNumber":59,"Velocity":48,"Duration":398904,"SoundDuration":398904,"Delta":28228779},{"NoteNumber":64,"Velocity":49,"Duration":135746,"SoundDuration":135746,"Delta":28627684},{"NoteNumber":63,"Velocity":49,"Duration":399999,"SoundDuration":399999,"Delta":28763430},{"NoteNumber":62,"Velocity":45,"Duration":133333,"SoundDuration":133333,"Delta":29163430},{"NoteNumber":77,"Velocity":56,"Duration":270270,"SoundDuration":270270,"Delta":29296763},{"NoteNumber":71,"Velocity":49,"Duration":270270,"SoundDuration":270270,"Delta":29296763},{"NoteNumber":61,"Velocity":48,"Duration":1347213,"SoundDuration":1347213,"Delta":29296763},{"NoteNumber":68,"Velocity":48,"Duration":270270,"SoundDuration":270270,"Delta":29296763},{"NoteNumber":78,"Velocity":55,"Duration":401931,"SoundDuration":401931,"Delta":29567033},{"NoteNumber":73,"Velocity":49,"Duration":401931,"SoundDuration":401931,"Delta":29567033},{"NoteNumber":69,"Velocity":51,"Duration":401931,"SoundDuration":401931,"Delta":29567033},{"NoteNumber":80,"Velocity":55,"Duration":141509,"SoundDuration":141509,"Delta":29968965},{"NoteNumber":74,"Velocity":55,"Duration":141509,"SoundDuration":141509,"Delta":29968965},{"NoteNumber":71,"Velocity":50,"Duration":141509,"SoundDuration":141509,"Delta":29968965},{"NoteNumber":83,"Velocity":50,"Duration":92588,"SoundDuration":92588,"Delta":30039720},{"NoteNumber":77,"Velocity":46,"Duration":533501,"SoundDuration":533501,"Delta":30110475},{"NoteNumber":81,"Velocity":55,"Duration":397755,"SoundDuration":397755,"Delta":30110475},{"NoteNumber":73,"Velocity":46,"Duration":397755,"SoundDuration":397755,"Delta":30110475},{"NoteNumber":80,"Velocity":57,"Duration":135746,"SoundDuration":135746,"Delta":30508230},{"NoteNumber":71,"Velocity":48,"Duration":135746,"SoundDuration":135746,"Delta":30508230},{"NoteNumber":85,"Velocity":46,"Duration":789473,"SoundDuration":789473,"Delta":30643976},{"NoteNumber":73,"Velocity":43,"Duration":789473,"SoundDuration":789473,"Delta":30643976},{"NoteNumber":80,"Velocity":60,"Duration":263158,"SoundDuration":263158,"Delta":30643976},{"NoteNumber":66,"Velocity":39,"Duration":789473,"SoundDuration":789473,"Delta":30643976},{"NoteNumber":71,"Velocity":50,"Duration":263158,"SoundDuration":263158,"Delta":30643976},{"NoteNumber":78,"Velocity":58,"Duration":394736,"SoundDuration":394736,"Delta":30907134},{"NoteNumber":69,"Velocity":49,"Duration":394736,"SoundDuration":394736,"Delta":30907134},{"NoteNumber":77,"Velocity":51,"Duration":131578,"SoundDuration":131578,"Delta":31301871},{"NoteNumber":68,"Velocity":44,"Duration":131578,"SoundDuration":131578,"Delta":31301871},{"NoteNumber":78,"Velocity":55,"Duration":400772,"SoundDuration":400772,"Delta":31433450},{"NoteNumber":69,"Velocity":48,"Duration":400772,"SoundDuration":400772,"Delta":31433450},{"NoteNumber":72,"Velocity":55,"Duration":137614,"SoundDuration":137614,"Delta":31834223},{"NoteNumber":69,"Velocity":55,"Duration":137614,"SoundDuration":137614,"Delta":31834223},{"NoteNumber":64,"Velocity":46,"Duration":137614,"SoundDuration":137614,"Delta":31834223},{"NoteNumber":69,"Velocity":47,"Duration":789473,"SoundDuration":789473,"Delta":31971838},{"NoteNumber":71,"Velocity":57,"Duration":263157,"SoundDuration":263157,"Delta":31971838},{"NoteNumber":59,"Velocity":39,"Duration":789473,"SoundDuration":789473,"Delta":31971838},{"NoteNumber":63,"Velocity":49,"Duration":263157,"SoundDuration":263157,"Delta":31971838},{"NoteNumber":77,"Velocity":58,"Duration":394737,"SoundDuration":394737,"Delta":32234996},{"NoteNumber":62,"Velocity":49,"Duration":394737,"SoundDuration":394737,"Delta":32234996},{"NoteNumber":78,"Velocity":59,"Duration":131578,"SoundDuration":131578,"Delta":32629733},{"NoteNumber":63,"Velocity":49,"Duration":131578,"SoundDuration":131578,"Delta":32629733},{"NoteNumber":75,"Velocity":47,"Duration":547518,"SoundDuration":547518,"Delta":32761312},{"NoteNumber":81,"Velocity":62,"Duration":405338,"SoundDuration":405338,"Delta":32761312},{"NoteNumber":59,"Velocity":39,"Duration":547518,"SoundDuration":547518,"Delta":32761312},{"NoteNumber":73,"Velocity":49,"Duration":405338,"SoundDuration":405338,"Delta":32761312},{"NoteNumber":80,"Velocity":57,"Duration":142179,"SoundDuration":142179,"Delta":33166650},{"NoteNumber":71,"Velocity":48,"Duration":142179,"SoundDuration":142179,"Delta":33166650},{"NoteNumber":83,"Velocity":40,"Duration":1085971,"SoundDuration":1085971,"Delta":33308830},{"NoteNumber":71,"Velocity":39,"Duration":1226816,"SoundDuration":1226816,"Delta":33308830},{"NoteNumber":78,"Velocity":55,"Duration":271492,"SoundDuration":271492,"Delta":33308830},{"NoteNumber":64,"Velocity":34,"Duration":1226816,"SoundDuration":1226816,"Delta":33308830},{"NoteNumber":69,"Velocity":46,"Duration":271492,"SoundDuration":271492,"Delta":33308830},{"NoteNumber":76,"Velocity":52,"Duration":407239,"SoundDuration":407239,"Delta":33580323},{"NoteNumber":68,"Velocity":45,"Duration":407239,"SoundDuration":407239,"Delta":33580323},{"NoteNumber":75,"Velocity":50,"Duration":135746,"SoundDuration":135746,"Delta":33987562},{"NoteNumber":67,"Velocity":41,"Duration":135746,"SoundDuration":135746,"Delta":33987562},{"NoteNumber":76,"Velocity":50,"Duration":271492,"SoundDuration":271492,"Delta":34116521},{"NoteNumber":68,"Velocity":37,"Duration":271492,"SoundDuration":271492,"Delta":34123309},{"NoteNumber":68,"Velocity":58,"Duration":140844,"SoundDuration":140844,"Delta":34535647},{"NoteNumber":64,"Velocity":49,"Duration":140844,"SoundDuration":140844,"Delta":34535647},{"NoteNumber":69,"Velocity":60,"Duration":263157,"SoundDuration":263157,"Delta":34676492},{"NoteNumber":66,"Velocity":50,"Duration":263157,"SoundDuration":263157,"Delta":34676492},{"NoteNumber":59,"Velocity":44,"Duration":263157,"SoundDuration":263157,"Delta":34676492},{"NoteNumber":66,"Velocity":47,"Duration":394737,"SoundDuration":394737,"Delta":34939650},{"NoteNumber":69,"Velocity":56,"Duration":394737,"SoundDuration":394737,"Delta":34939650},{"NoteNumber":59,"Velocity":40,"Duration":394737,"SoundDuration":394737,"Delta":34939650},{"NoteNumber":64,"Velocity":44,"Duration":131578,"SoundDuration":131578,"Delta":35334387},{"NoteNumber":73,"Velocity":52,"Duration":131578,"SoundDuration":131578,"Delta":35334387},{"NoteNumber":59,"Velocity":40,"Duration":131578,"SoundDuration":131578,"Delta":35334387},{"NoteNumber":63,"Velocity":47,"Duration":397687,"SoundDuration":397687,"Delta":35465966},{"NoteNumber":71,"Velocity":56,"Duration":397687,"SoundDuration":397687,"Delta":35465966},{"NoteNumber":59,"Velocity":44,"Duration":397687,"SoundDuration":397687,"Delta":35465966},{"NoteNumber":67,"Velocity":51,"Duration":134529,"SoundDuration":134529,"Delta":35863653},{"NoteNumber":63,"Velocity":42,"Duration":134529,"SoundDuration":134529,"Delta":35863653},{"NoteNumber":59,"Velocity":40,"Duration":134529,"SoundDuration":134529,"Delta":35863653},{"NoteNumber":64,"Velocity":47,"Duration":263157,"SoundDuration":263157,"Delta":35998182},{"NoteNumber":68,"Velocity":56,"Duration":263157,"SoundDuration":263157,"Delta":35998182},{"NoteNumber":59,"Velocity":44,"Duration":263157,"SoundDuration":263157,"Delta":35998182},{"NoteNumber":68,"Velocity":49,"Duration":394737,"SoundDuration":394737,"Delta":36261340},{"NoteNumber":71,"Velocity":58,"Duration":394737,"SoundDuration":394737,"Delta":36261340},{"NoteNumber":59,"Velocity":40,"Duration":394737,"SoundDuration":394737,"Delta":36261340},{"NoteNumber":80,"Velocity":60,"Duration":131578,"SoundDuration":131578,"Delta":36656077},{"NoteNumber":76,"Velocity":50,"Duration":131578,"SoundDuration":131578,"Delta":36656077},{"NoteNumber":59,"Velocity":40,"Duration":131578,"SoundDuration":131578,"Delta":36656077},{"NoteNumber":75,"Velocity":46,"Duration":396491,"SoundDuration":396491,"Delta":36787656},{"NoteNumber":78,"Velocity":55,"Duration":396491,"SoundDuration":396491,"Delta":36787656},{"NoteNumber":59,"Velocity":44,"Duration":396491,"SoundDuration":396491,"Delta":36787656},{"NoteNumber":76,"Velocity":52,"Duration":133333,"SoundDuration":133333,"Delta":37184148},{"NoteNumber":73,"Velocity":44,"Duration":133333,"SoundDuration":133333,"Delta":37184148},{"NoteNumber":59,"Velocity":40,"Duration":133333,"SoundDuration":133333,"Delta":37184148},{"NoteNumber":75,"Velocity":56,"Duration":87719,"SoundDuration":87719,"Delta":37317481},{"NoteNumber":71,"Velocity":47,"Duration":87719,"SoundDuration":87719,"Delta":37317481},{"NoteNumber":59,"Velocity":44,"Duration":263157,"SoundDuration":263157,"Delta":37317481},{"NoteNumber":76,"Velocity":48,"Duration":87719,"SoundDuration":87719,"Delta":37405200},{"NoteNumber":73,"Velocity":40,"Duration":87719,"SoundDuration":87719,"Delta":37405200},{"NoteNumber":75,"Velocity":48,"Duration":87719,"SoundDuration":87719,"Delta":37492919},{"NoteNumber":71,"Velocity":40,"Duration":87719,"SoundDuration":87719,"Delta":37492919},{"NoteNumber":73,"Velocity":53,"Duration":394737,"SoundDuration":394737,"Delta":37580639},{"NoteNumber":69,"Velocity":45,"Duration":394737,"SoundDuration":394737,"Delta":37580639},{"NoteNumber":59,"Velocity":40,"Duration":394737,"SoundDuration":394737,"Delta":37580639},{"NoteNumber":75,"Velocity":52,"Duration":131578,"SoundDuration":131578,"Delta":37975376},{"NoteNumber":71,"Velocity":44,"Duration":131578,"SoundDuration":131578,"Delta":37975376},{"NoteNumber":59,"Velocity":40,"Duration":131578,"SoundDuration":131578,"Delta":37975376},{"NoteNumber":76,"Velocity":56,"Duration":407947,"SoundDuration":407947,"Delta":38106955},{"NoteNumber":73,"Velocity":47,"Duration":407947,"SoundDuration":407947,"Delta":38106955},{"NoteNumber":59,"Velocity":44,"Duration":407947,"SoundDuration":407947,"Delta":38106955},{"NoteNumber":69,"Velocity":44,"Duration":138888,"SoundDuration":138888,"Delta":38514902},{"NoteNumber":73,"Velocity":52,"Duration":138888,"SoundDuration":138888,"Delta":38514902},{"NoteNumber":59,"Velocity":44,"Duration":138888,"SoundDuration":138888,"Delta":38514902},{"NoteNumber":71,"Velocity":48,"Duration":797809,"SoundDuration":797809,"Delta":38653791},{"NoteNumber":68,"Velocity":40,"Duration":797809,"SoundDuration":797809,"Delta":38653791},{"NoteNumber":52,"Velocity":50,"Duration":263157,"SoundDuration":263157,"Delta":38653791},{"NoteNumber":59,"Velocity":48,"Duration":398904,"SoundDuration":398904,"Delta":38916949},{"NoteNumber":64,"Velocity":50,"Duration":135746,"SoundDuration":135746,"Delta":39315854},{"NoteNumber":68,"Velocity":54,"Duration":399999,"SoundDuration":399999,"Delta":39451600},{"NoteNumber":71,"Velocity":55,"Duration":133333,"SoundDuration":133333,"Delta":39851600},{"NoteNumber":76,"Velocity":53,"Duration":789473,"SoundDuration":789473,"Delta":39984933},{"NoteNumber":81,"Velocity":67,"Duration":263157,"SoundDuration":263157,"Delta":39984933},{"NoteNumber":70,"Velocity":49,"Duration":789473,"SoundDuration":789473,"Delta":39984933},{"NoteNumber":72,"Velocity":59,"Duration":1327861,"SoundDuration":1327861,"Delta":39984933},{"NoteNumber":79,"Velocity":61,"Duration":394737,"SoundDuration":394737,"Delta":40248091},{"NoteNumber":81,"Velocity":61,"Duration":131578,"SoundDuration":131578,"Delta":40642828},{"NoteNumber":84,"Velocity":53,"Duration":400772,"SoundDuration":400772,"Delta":40774407},{"NoteNumber":69,"Velocity":55,"Duration":538387,"SoundDuration":538387,"Delta":40774407},{"NoteNumber":79,"Velocity":61,"Duration":538387,"SoundDuration":538387,"Delta":40780986},{"NoteNumber":77,"Velocity":50,"Duration":137614,"SoundDuration":137614,"Delta":41175180},{"NoteNumber":80,"Velocity":57,"Duration":263157,"SoundDuration":263157,"Delta":41312795},{"NoteNumber":75,"Velocity":46,"Duration":794173,"SoundDuration":794173,"Delta":41312795},{"NoteNumber":69,"Velocity":41,"Duration":794173,"SoundDuration":794173,"Delta":41312795},{"NoteNumber":71,"Velocity":49,"Duration":1337259,"SoundDuration":1337259,"Delta":41312795},{"NoteNumber":78,"Velocity":51,"Duration":397086,"SoundDuration":397086,"Delta":41575953},{"NoteNumber":80,"Velocity":51,"Duration":133928,"SoundDuration":133928,"Delta":41973039},{"NoteNumber":83,"Velocity":45,"Duration":405471,"SoundDuration":405471,"Delta":42106968},{"NoteNumber":78,"Velocity":47,"Duration":543086,"SoundDuration":543086,"Delta":42106968},{"NoteNumber":68,"Velocity":46,"Duration":543086,"SoundDuration":543086,"Delta":42106968},{"NoteNumber":76,"Velocity":50,"Duration":137614,"SoundDuration":137614,"Delta":42512440},{"NoteNumber":74,"Velocity":49,"Duration":270270,"SoundDuration":270270,"Delta":42650054},{"NoteNumber":77,"Velocity":56,"Duration":270270,"SoundDuration":270270,"Delta":42650054},{"NoteNumber":71,"Velocity":48,"Duration":270270,"SoundDuration":270270,"Delta":42650054},{"NoteNumber":78,"Velocity":55,"Duration":401931,"SoundDuration":401931,"Delta":42920325},{"NoteNumber":73,"Velocity":49,"Duration":401931,"SoundDuration":401931,"Delta":42920325},{"NoteNumber":69,"Velocity":51,"Duration":401931,"SoundDuration":401931,"Delta":42920325},{"NoteNumber":80,"Velocity":55,"Duration":141509,"SoundDuration":141509,"Delta":43322257},{"NoteNumber":74,"Velocity":55,"Duration":141509,"SoundDuration":141509,"Delta":43322257},{"NoteNumber":65,"Velocity":55,"Duration":141509,"SoundDuration":141509,"Delta":43322257},{"NoteNumber":81,"Velocity":58,"Duration":533501,"SoundDuration":533501,"Delta":43463766},{"NoteNumber":73,"Velocity":49,"Duration":533501,"SoundDuration":533501,"Delta":43463766},{"NoteNumber":66,"Velocity":46,"Duration":533501,"SoundDuration":533501,"Delta":43463766},{"NoteNumber":78,"Velocity":60,"Duration":263157,"SoundDuration":263157,"Delta":43997268},{"NoteNumber":75,"Velocity":50,"Duration":263157,"SoundDuration":263157,"Delta":43997268},{"NoteNumber":59,"Velocity":39,"Duration":789473,"SoundDuration":789473,"Delta":43997268},{"NoteNumber":69,"Velocity":50,"Duration":263157,"SoundDuration":263157,"Delta":43997268},{"NoteNumber":81,"Velocity":58,"Duration":394737,"SoundDuration":394737,"Delta":44260425},{"NoteNumber":75,"Velocity":49,"Duration":394737,"SoundDuration":394737,"Delta":44260425},{"NoteNumber":73,"Velocity":56,"Duration":394737,"SoundDuration":394737,"Delta":44260425},{"NoteNumber":80,"Velocity":53,"Duration":131578,"SoundDuration":131578,"Delta":44655163},{"NoteNumber":75,"Velocity":45,"Duration":131578,"SoundDuration":131578,"Delta":44655163},{"NoteNumber":71,"Velocity":42,"Duration":131578,"SoundDuration":131578,"Delta":44655163},{"NoteNumber":76,"Velocity":55,"Duration":538387,"SoundDuration":538387,"Delta":44786742},{"NoteNumber":71,"Velocity":42,"Duration":538387,"SoundDuration":538387,"Delta":44786742},{"NoteNumber":64,"Velocity":36,"Duration":538387,"SoundDuration":538387,"Delta":44786742},{"NoteNumber":68,"Velocity":47,"Duration":538387,"SoundDuration":538387,"Delta":44786742},{"NoteNumber":59,"Velocity":48,"Duration":85470,"SoundDuration":85470,"Delta":45325129},{"NoteNumber":61,"Velocity":42,"Duration":85470,"SoundDuration":85470,"Delta":45410599},{"NoteNumber":59,"Velocity":42,"Duration":85470,"SoundDuration":85470,"Delta":45496069},{"NoteNumber":75,"Velocity":37,"Duration":521738,"SoundDuration":521738,"Delta":45581540},{"NoteNumber":71,"Velocity":37,"Duration":521738,"SoundDuration":521738,"Delta":45581540},{"NoteNumber":66,"Velocity":30,"Duration":521738,"SoundDuration":521738,"Delta":45581540},{"NoteNumber":63,"Velocity":30,"Duration":521738,"SoundDuration":521738,"Delta":45581540},{"NoteNumber":58,"Velocity":44,"Duration":391304,"SoundDuration":391304,"Delta":45581540},{"NoteNumber":56,"Velocity":44,"Duration":130434,"SoundDuration":130434,"Delta":45972844},{"NoteNumber":75,"Velocity":37,"Duration":534650,"SoundDuration":534650,"Delta":46103279},{"NoteNumber":71,"Velocity":37,"Duration":534650,"SoundDuration":534650,"Delta":46103279},{"NoteNumber":66,"Velocity":30,"Duration":534650,"SoundDuration":534650,"Delta":46103279},{"NoteNumber":63,"Velocity":30,"Duration":534650,"SoundDuration":534650,"Delta":46103279},{"NoteNumber":58,"Velocity":48,"Duration":403072,"SoundDuration":403072,"Delta":46103279},{"NoteNumber":54,"Velocity":41,"Duration":131578,"SoundDuration":131578,"Delta":46506351},{"NoteNumber":56,"Velocity":48,"Duration":85470,"SoundDuration":85470,"Delta":46637930},{"NoteNumber":58,"Velocity":42,"Duration":85470,"SoundDuration":85470,"Delta":46723400},{"NoteNumber":56,"Velocity":42,"Duration":85470,"SoundDuration":85470,"Delta":46808870},{"NoteNumber":75,"Velocity":37,"Duration":521738,"SoundDuration":521738,"Delta":46894340},{"NoteNumber":71,"Velocity":37,"Duration":521738,"SoundDuration":521738,"Delta":46894340},{"NoteNumber":66,"Velocity":30,"Duration":521738,"SoundDuration":521738,"Delta":46894340},{"NoteNumber":63,"Velocity":30,"Duration":521738,"SoundDuration":521738,"Delta":46894340},{"NoteNumber":54,"Velocity":44,"Duration":391304,"SoundDuration":391304,"Delta":46894340},{"NoteNumber":56,"Velocity":44,"Duration":130434,"SoundDuration":130434,"Delta":47285644},{"NoteNumber":75,"Velocity":37,"Duration":534587,"SoundDuration":534587,"Delta":47416079},{"NoteNumber":71,"Velocity":37,"Duration":534587,"SoundDuration":534587,"Delta":47416079},{"NoteNumber":66,"Velocity":30,"Duration":534587,"SoundDuration":534587,"Delta":47416079},{"NoteNumber":63,"Velocity":30,"Duration":534587,"SoundDuration":534587,"Delta":47416079},{"NoteNumber":58,"Velocity":48,"Duration":402429,"SoundDuration":402429,"Delta":47416079},{"NoteNumber":59,"Velocity":41,"Duration":132158,"SoundDuration":132158,"Delta":47818508},{"NoteNumber":58,"Velocity":48,"Duration":86206,"SoundDuration":86206,"Delta":47950666},{"NoteNumber":59,"Velocity":42,"Duration":86206,"SoundDuration":86206,"Delta":48036873},{"NoteNumber":58,"Velocity":42,"Duration":86206,"SoundDuration":86206,"Delta":48123080},{"NoteNumber":75,"Velocity":37,"Duration":526316,"SoundDuration":526316,"Delta":48209287},{"NoteNumber":71,"Velocity":37,"Duration":526316,"SoundDuration":526316,"Delta":48209287},{"NoteNumber":66,"Velocity":30,"Duration":526316,"SoundDuration":526316,"Delta":48209287},{"NoteNumber":63,"Velocity":30,"Duration":526316,"SoundDuration":526316,"Delta":48209287},{"NoteNumber":56,"Velocity":44,"Duration":394736,"SoundDuration":394736,"Delta":48209287},{"NoteNumber":54,"Velocity":44,"Duration":131579,"SoundDuration":131579,"Delta":48604024},{"NoteNumber":75,"Velocity":37,"Duration":540540,"SoundDuration":540540,"Delta":48735603},{"NoteNumber":71,"Velocity":37,"Duration":540540,"SoundDuration":540540,"Delta":48735603},{"NoteNumber":66,"Velocity":30,"Duration":540540,"SoundDuration":540540,"Delta":48735603},{"NoteNumber":63,"Velocity":30,"Duration":540540,"SoundDuration":540540,"Delta":48735603},{"NoteNumber":56,"Velocity":48,"Duration":405405,"SoundDuration":405405,"Delta":48735603},{"NoteNumber":58,"Velocity":41,"Duration":135135,"SoundDuration":135135,"Delta":49141009},{"NoteNumber":54,"Velocity":48,"Duration":786056,"SoundDuration":786056,"Delta":49276144},{"NoteNumber":62,"Velocity":52,"Duration":394736,"SoundDuration":394736,"Delta":49535884},{"NoteNumber":63,"Velocity":51,"Duration":131579,"SoundDuration":131579,"Delta":49930621},{"NoteNumber":66,"Velocity":56,"Duration":397687,"SoundDuration":397687,"Delta":50062200},{"NoteNumber":71,"Velocity":56,"Duration":134529,"SoundDuration":134529,"Delta":50459888},{"NoteNumber":69,"Velocity":57,"Duration":1337445,"SoundDuration":1337445,"Delta":50594417},{"NoteNumber":78,"Velocity":63,"Duration":260869,"SoundDuration":260869,"Delta":50594417},{"NoteNumber":51,"Velocity":46,"Duration":1337445,"SoundDuration":1337445,"Delta":50594417},{"NoteNumber":76,"Velocity":62,"Duration":398229,"SoundDuration":398229,"Delta":50855286},{"NoteNumber":66,"Velocity":48,"Duration":538416,"SoundDuration":538416,"Delta":50855286},{"NoteNumber":60,"Velocity":48,"Duration":1076576,"SoundDuration":1076576,"Delta":50855286},{"NoteNumber":75,"Velocity":59,"Duration":70093,"SoundDuration":70093,"Delta":51253516},{"NoteNumber":75,"Velocity":50,"Duration":35046,"SoundDuration":35046,"Delta":51323610},{"NoteNumber":78,"Velocity":50,"Duration":35046,"SoundDuration":35046,"Delta":51358656},{"NoteNumber":76,"Velocity":58,"Duration":402413,"SoundDuration":402413,"Delta":51393703},{"NoteNumber":75,"Velocity":55,"Duration":135746,"SoundDuration":135746,"Delta":51796116},{"NoteNumber":68,"Velocity":51,"Duration":791842,"SoundDuration":791842,"Delta":51931863},{"NoteNumber":72,"Velocity":59,"Duration":260869,"SoundDuration":260869,"Delta":51931863},{"NoteNumber":64,"Velocity":46,"Duration":260869,"SoundDuration":260869,"Delta":51931863},{"NoteNumber":73,"Velocity":56,"Duration":398229,"SoundDuration":398229,"Delta":52192732},{"NoteNumber":61,"Velocity":40,"Duration":398229,"SoundDuration":398229,"Delta":52192732},{"NoteNumber":76,"Velocity":59,"Duration":132743,"SoundDuration":132743,"Delta":52590962},{"NoteNumber":56,"Velocity":49,"Duration":132743,"SoundDuration":132743,"Delta":52590962},{"NoteNumber":80,"Velocity":64,"Duration":406201,"SoundDuration":406201,"Delta":52723705},{"NoteNumber":52,"Velocity":46,"Duration":406201,"SoundDuration":406201,"Delta":52723705},{"NoteNumber":83,"Velocity":61,"Duration":139534,"SoundDuration":139534,"Delta":53129907},{"NoteNumber":49,"Velocity":51,"Duration":139534,"SoundDuration":139534,"Delta":53129907},{"NoteNumber":83,"Velocity":62,"Duration":260869,"SoundDuration":260869,"Delta":53269442},{"NoteNumber":87,"Velocity":70,"Duration":260869,"SoundDuration":260869,"Delta":53269442},{"NoteNumber":42,"Velocity":53,"Duration":260869,"SoundDuration":260869,"Delta":53269442},{"NoteNumber":82,"Velocity":55,"Duration":398229,"SoundDuration":398229,"Delta":53530311},{"NoteNumber":85,"Velocity":61,"Duration":398229,"SoundDuration":398229,"Delta":53530311},{"NoteNumber":53,"Velocity":48,"Duration":398229,"SoundDuration":398229,"Delta":53530311},{"NoteNumber":78,"Velocity":53,"Duration":132743,"SoundDuration":132743,"Delta":53928541},{"NoteNumber":82,"Velocity":60,"Duration":132743,"SoundDuration":132743,"Delta":53928541},{"NoteNumber":54,"Velocity":49,"Duration":132743,"SoundDuration":132743,"Delta":53928541},{"NoteNumber":76,"Velocity":58,"Duration":402413,"SoundDuration":402413,"Delta":54061284},{"NoteNumber":80,"Velocity":64,"Duration":402413,"SoundDuration":402413,"Delta":54061284},{"NoteNumber":58,"Velocity":52,"Duration":402413,"SoundDuration":402413,"Delta":54061284},{"NoteNumber":74,"Velocity":49,"Duration":135746,"SoundDuration":135746,"Delta":54463697},{"NoteNumber":77,"Velocity":56,"Duration":135746,"SoundDuration":135746,"Delta":54463697},{"NoteNumber":66,"Velocity":49,"Duration":135746,"SoundDuration":135746,"Delta":54463697},{"NoteNumber":75,"Velocity":52,"Duration":1375144,"SoundDuration":1375144,"Delta":54599444},{"NoteNumber":78,"Velocity":59,"Duration":1375144,"SoundDuration":1375144,"Delta":54599444},{"NoteNumber":47,"Velocity":53,"Duration":260869,"SoundDuration":260869,"Delta":54599444},{"NoteNumber":53,"Velocity":45,"Duration":403101,"SoundDuration":403101,"Delta":54860313},{"NoteNumber":54,"Velocity":39,"Duration":71770,"SoundDuration":71770,"Delta":55263414},{"NoteNumber":58,"Velocity":37,"Duration":94918,"SoundDuration":94918,"Delta":55335185},{"NoteNumber":55,"Velocity":46,"Duration":422705,"SoundDuration":422705,"Delta":55406955},{"NoteNumber":54,"Velocity":42,"Duration":144927,"SoundDuration":144927,"Delta":55829661},{"NoteNumber":62,"Velocity":42,"Duration":258620,"SoundDuration":258620,"Delta":55974588},{"NoteNumber":78,"Velocity":33,"Duration":526316,"SoundDuration":526316,"Delta":56233209},{"NoteNumber":74,"Velocity":33,"Duration":526316,"SoundDuration":526316,"Delta":56233209},{"NoteNumber":71,"Velocity":27,"Duration":526316,"SoundDuration":526316,"Delta":56233209},{"NoteNumber":66,"Velocity":27,"Duration":526316,"SoundDuration":526316,"Delta":56233209},{"NoteNumber":61,"Velocity":39,"Duration":394736,"SoundDuration":394736,"Delta":56233209},{"NoteNumber":59,"Velocity":39,"Duration":131579,"SoundDuration":131579,"Delta":56627946},{"NoteNumber":78,"Velocity":33,"Duration":545465,"SoundDuration":545465,"Delta":56759525},{"NoteNumber":74,"Velocity":33,"Duration":545465,"SoundDuration":545465,"Delta":56759525},{"NoteNumber":71,"Velocity":27,"Duration":545465,"SoundDuration":545465,"Delta":56759525},{"NoteNumber":66,"Velocity":27,"Duration":545465,"SoundDuration":545465,"Delta":56759525},{"NoteNumber":61,"Velocity":42,"Duration":408479,"SoundDuration":408479,"Delta":56759525},{"NoteNumber":62,"Velocity":37,"Duration":136986,"SoundDuration":136986,"Delta":57168004},{"NoteNumber":61,"Velocity":42,"Duration":86580,"SoundDuration":86580,"Delta":57304990},{"NoteNumber":62,"Velocity":38,"Duration":86580,"SoundDuration":86580,"Delta":57391570},{"NoteNumber":61,"Velocity":38,"Duration":86580,"SoundDuration":86580,"Delta":57478151},{"NoteNumber":78,"Velocity":33,"Duration":526316,"SoundDuration":526316,"Delta":57564731},{"NoteNumber":74,"Velocity":33,"Duration":526316,"SoundDuration":526316,"Delta":57564731},{"NoteNumber":71,"Velocity":27,"Duration":526316,"SoundDuration":526316,"Delta":57564731},{"NoteNumber":66,"Velocity":27,"Duration":526316,"SoundDuration":526316,"Delta":57564731},{"NoteNumber":59,"Velocity":39,"Duration":394736,"SoundDuration":394736,"Delta":57564731},{"NoteNumber":61,"Velocity":39,"Duration":131579,"SoundDuration":131579,"Delta":57959468},{"NoteNumber":78,"Velocity":33,"Duration":540540,"SoundDuration":540540,"Delta":58091047},{"NoteNumber":74,"Velocity":33,"Duration":540540,"SoundDuration":540540,"Delta":58091047},{"NoteNumber":71,"Velocity":27,"Duration":540540,"SoundDuration":540540,"Delta":58091047},{"NoteNumber":66,"Velocity":27,"Duration":540540,"SoundDuration":540540,"Delta":58091047},{"NoteNumber":62,"Velocity":42,"Duration":405405,"SoundDuration":405405,"Delta":58091047},{"NoteNumber":64,"Velocity":37,"Duration":135135,"SoundDuration":135135,"Delta":58496452},{"NoteNumber":62,"Velocity":42,"Duration":86206,"SoundDuration":86206,"Delta":58631588},{"NoteNumber":64,"Velocity":38,"Duration":86206,"SoundDuration":86206,"Delta":58717795},{"NoteNumber":62,"Velocity":38,"Duration":86206,"SoundDuration":86206,"Delta":58804001},{"NoteNumber":78,"Velocity":33,"Duration":531014,"SoundDuration":531014,"Delta":58890208},{"NoteNumber":74,"Velocity":33,"Duration":531014,"SoundDuration":531014,"Delta":58890208},{"NoteNumber":71,"Velocity":27,"Duration":531014,"SoundDuration":531014,"Delta":58890208},{"NoteNumber":68,"Velocity":27,"Duration":531014,"SoundDuration":531014,"Delta":58890208},{"NoteNumber":61,"Velocity":39,"Duration":397086,"SoundDuration":397086,"Delta":58890208},{"NoteNumber":59,"Velocity":39,"Duration":686923,"SoundDuration":686923,"Delta":59287295},{"NoteNumber":81,"Velocity":51,"Duration":414746,"SoundDuration":414746,"Delta":59421223},{"NoteNumber":76,"Velocity":39,"Duration":552995,"SoundDuration":552995,"Delta":59421223},{"NoteNumber":73,"Velocity":39,"Duration":552995,"SoundDuration":552995,"Delta":59421223},{"NoteNumber":70,"Velocity":27,"Duration":552995,"SoundDuration":552995,"Delta":59421223},{"NoteNumber":79,"Velocity":46,"Duration":138248,"SoundDuration":138248,"Delta":59835969},{"NoteNumber":74,"Velocity":47,"Duration":796680,"SoundDuration":796680,"Delta":59974218},{"NoteNumber":78,"Velocity":52,"Duration":796680,"SoundDuration":796680,"Delta":59974218},{"NoteNumber":71,"Velocity":48,"Duration":266666,"SoundDuration":266666,"Delta":59974218},{"NoteNumber":65,"Velocity":39,"Duration":393028,"SoundDuration":393028,"Delta":60240885},{"NoteNumber":66,"Velocity":38,"Duration":68493,"SoundDuration":68493,"Delta":60633913},{"NoteNumber":69,"Velocity":35,"Duration":90914,"SoundDuration":90914,"Delta":60702406},{"NoteNumber":67,"Velocity":44,"Duration":409903,"SoundDuration":409903,"Delta":60770899},{"NoteNumber":66,"Velocity":38,"Duration":140844,"SoundDuration":140844,"Delta":61180802},{"NoteNumber":72,"Velocity":56,"Duration":275229,"SoundDuration":275229,"Delta":61321647},{"NoteNumber":78,"Velocity":56,"Duration":275229,"SoundDuration":275229,"Delta":61321647},{"NoteNumber":81,"Velocity":67,"Duration":275229,"SoundDuration":275229,"Delta":61321647},{"NoteNumber":63,"Velocity":53,"Duration":275229,"SoundDuration":275229,"Delta":61321647},{"NoteNumber":71,"Velocity":54,"Duration":412844,"SoundDuration":412844,"Delta":61596877},{"NoteNumber":76,"Velocity":54,"Duration":412844,"SoundDuration":412844,"Delta":61596877},{"NoteNumber":80,"Velocity":64,"Duration":412844,"SoundDuration":412844,"Delta":61596877},{"NoteNumber":64,"Velocity":50,"Duration":412844,"SoundDuration":412844,"Delta":61596877},{"NoteNumber":73,"Velocity":53,"Duration":137614,"SoundDuration":137614,"Delta":62009721},{"NoteNumber":76,"Velocity":53,"Duration":137614,"SoundDuration":137614,"Delta":62009721},{"NoteNumber":79,"Velocity":63,"Duration":137614,"SoundDuration":137614,"Delta":62009721},{"NoteNumber":58,"Velocity":50,"Duration":137614,"SoundDuration":137614,"Delta":62009721},{"NoteNumber":74,"Velocity":56,"Duration":419287,"SoundDuration":419287,"Delta":62147336},{"NoteNumber":78,"Velocity":67,"Duration":419287,"SoundDuration":419287,"Delta":62147336},{"NoteNumber":59,"Velocity":53,"Duration":419287,"SoundDuration":419287,"Delta":62147336},{"NoteNumber":78,"Velocity":52,"Duration":141509,"SoundDuration":141509,"Delta":62566623},{"NoteNumber":83,"Velocity":62,"Duration":141509,"SoundDuration":141509,"Delta":62566623},{"NoteNumber":57,"Velocity":50,"Duration":141509,"SoundDuration":141509,"Delta":62566623},{"NoteNumber":71,"Velocity":65,"Duration":279069,"SoundDuration":279069,"Delta":62708133},{"NoteNumber":77,"Velocity":65,"Duration":279069,"SoundDuration":279069,"Delta":62708133},{"NoteNumber":83,"Velocity":77,"Duration":279069,"SoundDuration":279069,"Delta":62708133},{"NoteNumber":56,"Velocity":54,"Duration":279069,"SoundDuration":279069,"Delta":62708133},{"NoteNumber":71,"Velocity":60,"Duration":424528,"SoundDuration":424528,"Delta":62987203},{"NoteNumber":76,"Velocity":60,"Duration":424528,"SoundDuration":424528,"Delta":62987203},{"NoteNumber":83,"Velocity":72,"Duration":424528,"SoundDuration":424528,"Delta":62987203},{"NoteNumber":55,"Velocity":50,"Duration":424528,"SoundDuration":424528,"Delta":62987203},{"NoteNumber":71,"Velocity":60,"Duration":141509,"SoundDuration":141509,"Delta":63411731},{"NoteNumber":73,"Velocity":60,"Duration":141509,"SoundDuration":141509,"Delta":63411731},{"NoteNumber":83,"Velocity":72,"Duration":141509,"SoundDuration":141509,"Delta":63411731},{"NoteNumber":53,"Velocity":55,"Duration":141509,"SoundDuration":141509,"Delta":63411731},{"NoteNumber":71,"Velocity":61,"Duration":566038,"SoundDuration":566038,"Delta":63553241},{"NoteNumber":74,"Velocity":61,"Duration":566038,"SoundDuration":566038,"Delta":63553241},{"NoteNumber":83,"Velocity":73,"Duration":566038,"SoundDuration":566038,"Delta":63553241},{"NoteNumber":54,"Velocity":51,"Duration":566038,"SoundDuration":566038,"Delta":63553241},{"NoteNumber":67,"Velocity":48,"Duration":270270,"SoundDuration":270270,"Delta":64119279},{"NoteNumber":71,"Velocity":48,"Duration":270270,"SoundDuration":270270,"Delta":64119279},{"NoteNumber":73,"Velocity":57,"Duration":270270,"SoundDuration":270270,"Delta":64119279},{"NoteNumber":64,"Velocity":45,"Duration":270270,"SoundDuration":270270,"Delta":64119279},{"NoteNumber":67,"Velocity":46,"Duration":401931,"SoundDuration":401931,"Delta":64389549},{"NoteNumber":71,"Velocity":46,"Duration":401931,"SoundDuration":401931,"Delta":64389549},{"NoteNumber":73,"Velocity":55,"Duration":401931,"SoundDuration":401931,"Delta":64389549},{"NoteNumber":64,"Velocity":48,"Duration":401931,"SoundDuration":401931,"Delta":64389549},{"NoteNumber":67,"Velocity":51,"Duration":141509,"SoundDuration":141509,"Delta":64791481},{"NoteNumber":71,"Velocity":51,"Duration":141509,"SoundDuration":141509,"Delta":64791481},{"NoteNumber":74,"Velocity":60,"Duration":141509,"SoundDuration":141509,"Delta":64791481},{"NoteNumber":62,"Velocity":47,"Duration":141509,"SoundDuration":141509,"Delta":64791481},{"NoteNumber":67,"Velocity":53,"Duration":533501,"SoundDuration":533501,"Delta":64932991},{"NoteNumber":71,"Velocity":53,"Duration":533501,"SoundDuration":533501,"Delta":64932991},{"NoteNumber":76,"Velocity":62,"Duration":397754,"SoundDuration":397754,"Delta":64932991},{"NoteNumber":61,"Velocity":49,"Duration":533501,"SoundDuration":533501,"Delta":64932991},{"NoteNumber":79,"Velocity":64,"Duration":135746,"SoundDuration":135746,"Delta":65330746},{"NoteNumber":70,"Velocity":53,"Duration":263158,"SoundDuration":263158,"Delta":65466492},{"NoteNumber":74,"Velocity":62,"Duration":263158,"SoundDuration":263158,"Delta":65466492},{"NoteNumber":54,"Velocity":42,"Duration":263158,"SoundDuration":263158,"Delta":65466492},{"NoteNumber":64,"Velocity":50,"Duration":263158,"SoundDuration":263158,"Delta":65466492},{"NoteNumber":70,"Velocity":38,"Duration":394736,"SoundDuration":394736,"Delta":65729650},{"NoteNumber":73,"Velocity":55,"Duration":394736,"SoundDuration":394736,"Delta":65729650},{"NoteNumber":54,"Velocity":40,"Duration":394736,"SoundDuration":394736,"Delta":65729650},{"NoteNumber":64,"Velocity":48,"Duration":394736,"SoundDuration":394736,"Delta":65729650},{"NoteNumber":70,"Velocity":36,"Duration":131579,"SoundDuration":131579,"Delta":66124387},{"NoteNumber":74,"Velocity":50,"Duration":131579,"SoundDuration":131579,"Delta":66124387},{"NoteNumber":54,"Velocity":33,"Duration":131579,"SoundDuration":131579,"Delta":66124387},{"NoteNumber":64,"Velocity":39,"Duration":131579,"SoundDuration":131579,"Delta":66124387},{"NoteNumber":66,"Velocity":33,"Duration":538387,"SoundDuration":538387,"Delta":66255966},{"NoteNumber":71,"Velocity":52,"Duration":538387,"SoundDuration":538387,"Delta":66255966},{"NoteNumber":59,"Velocity":28,"Duration":538387,"SoundDuration":538387,"Delta":66255966},{"NoteNumber":62,"Velocity":44,"Duration":538387,"SoundDuration":538387,"Delta":66255966},{"NoteNumber":59,"Velocity":48,"Duration":85470,"SoundDuration":85470,"Delta":66794354},{"NoteNumber":61,"Velocity":42,"Duration":85470,"SoundDuration":85470,"Delta":66879824},{"NoteNumber":59,"Velocity":42,"Duration":85470,"SoundDuration":85470,"Delta":66965294},{"NoteNumber":75,"Velocity":37,"Duration":521738,"SoundDuration":521738,"Delta":67050764},{"NoteNumber":71,"Velocity":37,"Duration":521738,"SoundDuration":521738,"Delta":67050764},{"NoteNumber":66,"Velocity":30,"Duration":521738,"SoundDuration":521738,"Delta":67050764},{"NoteNumber":63,"Velocity":30,"Duration":521738,"SoundDuration":521738,"Delta":67050764},{"NoteNumber":58,"Velocity":44,"Duration":391304,"SoundDuration":391304,"Delta":67050764},{"NoteNumber":56,"Velocity":44,"Duration":130434,"SoundDuration":130434,"Delta":67442068},{"NoteNumber":75,"Velocity":37,"Duration":532216,"SoundDuration":532216,"Delta":67572503},{"NoteNumber":71,"Velocity":37,"Duration":532216,"SoundDuration":532216,"Delta":67572503},{"NoteNumber":66,"Velocity":30,"Duration":532216,"SoundDuration":532216,"Delta":67572503},{"NoteNumber":63,"Velocity":30,"Duration":532216,"SoundDuration":532216,"Delta":67572503},{"NoteNumber":58,"Velocity":48,"Duration":400637,"SoundDuration":400637,"Delta":67572503},{"NoteNumber":54,"Velocity":41,"Duration":131579,"SoundDuration":131579,"Delta":67973141},{"NoteNumber":56,"Velocity":48,"Duration":85106,"SoundDuration":85106,"Delta":68104720},{"NoteNumber":58,"Velocity":42,"Duration":85106,"SoundDuration":85106,"Delta":68189826},{"NoteNumber":56,"Velocity":42,"Duration":85106,"SoundDuration":85106,"Delta":68274932},{"NoteNumber":75,"Velocity":37,"Duration":521738,"SoundDuration":521738,"Delta":68360039},{"NoteNumber":71,"Velocity":37,"Duration":521738,"SoundDuration":521738,"Delta":68360039},{"NoteNumber":66,"Velocity":30,"Duration":521738,"SoundDuration":521738,"Delta":68360039},{"NoteNumber":63,"Velocity":30,"Duration":521738,"SoundDuration":521738,"Delta":68360039},{"NoteNumber":54,"Velocity":44,"Duration":391304,"SoundDuration":391304,"Delta":68360039},{"NoteNumber":56,"Velocity":44,"Duration":130434,"SoundDuration":130434,"Delta":68751343},{"NoteNumber":75,"Velocity":37,"Duration":534587,"SoundDuration":534587,"Delta":68881778},{"NoteNumber":71,"Velocity":37,"Duration":534587,"SoundDuration":534587,"Delta":68881778},{"NoteNumber":66,"Velocity":30,"Duration":534587,"SoundDuration":534587,"Delta":68881778},{"NoteNumber":63,"Velocity":30,"Duration":534587,"SoundDuration":534587,"Delta":68881778},{"NoteNumber":58,"Velocity":48,"Duration":402428,"SoundDuration":402428,"Delta":68881778},{"NoteNumber":59,"Velocity":41,"Duration":132158,"SoundDuration":132158,"Delta":69284207},{"NoteNumber":58,"Velocity":48,"Duration":86206,"SoundDuration":86206,"Delta":69416365},{"NoteNumber":59,"Velocity":42,"Duration":86206,"SoundDuration":86206,"Delta":69502572},{"NoteNumber":58,"Velocity":42,"Duration":86206,"SoundDuration":86206,"Delta":69588779},{"NoteNumber":75,"Velocity":37,"Duration":524017,"SoundDuration":524017,"Delta":69674986},{"NoteNumber":71,"Velocity":37,"Duration":524017,"SoundDuration":524017,"Delta":69674986},{"NoteNumber":66,"Velocity":30,"Duration":524017,"SoundDuration":524017,"Delta":69674986},{"NoteNumber":63,"Velocity":30,"Duration":524017,"SoundDuration":524017,"Delta":69674986},{"NoteNumber":56,"Velocity":44,"Duration":393012,"SoundDuration":393012,"Delta":69674986},{"NoteNumber":54,"Velocity":44,"Duration":131004,"SoundDuration":131004,"Delta":70067998},{"NoteNumber":75,"Velocity":37,"Duration":540541,"SoundDuration":540541,"Delta":70199003},{"NoteNumber":71,"Velocity":37,"Duration":540541,"SoundDuration":540541,"Delta":70199003},{"NoteNumber":66,"Velocity":30,"Duration":540541,"SoundDuration":540541,"Delta":70199003},{"NoteNumber":63,"Velocity":30,"Duration":540541,"SoundDuration":540541,"Delta":70199003},{"NoteNumber":56,"Velocity":48,"Duration":405405,"SoundDuration":405405,"Delta":70199003},{"NoteNumber":58,"Velocity":41,"Duration":135135,"SoundDuration":135135,"Delta":70604408},{"NoteNumber":54,"Velocity":48,"Duration":782637,"SoundDuration":782637,"Delta":70739544},{"NoteNumber":62,"Velocity":52,"Duration":393012,"SoundDuration":393012,"Delta":70998164},{"NoteNumber":63,"Velocity":51,"Duration":131004,"SoundDuration":131004,"Delta":71391177},{"NoteNumber":66,"Velocity":56,"Duration":396537,"SoundDuration":396537,"Delta":71522181},{"NoteNumber":71,"Velocity":56,"Duration":134529,"SoundDuration":134529,"Delta":71918719},{"NoteNumber":69,"Velocity":57,"Duration":1335196,"SoundDuration":1335196,"Delta":72053248},{"NoteNumber":78,"Velocity":63,"Duration":258620,"SoundDuration":258620,"Delta":72053248},{"NoteNumber":51,"Velocity":46,"Duration":1335196,"SoundDuration":1335196,"Delta":72053248},{"NoteNumber":76,"Velocity":62,"Duration":398229,"SoundDuration":398229,"Delta":72311869},{"NoteNumber":60,"Velocity":48,"Duration":1076576,"SoundDuration":1076576,"Delta":72311869},{"NoteNumber":66,"Velocity":48,"Duration":538416,"SoundDuration":538416,"Delta":72311869},{"NoteNumber":75,"Velocity":59,"Duration":70093,"SoundDuration":70093,"Delta":72710098},{"NoteNumber":75,"Velocity":50,"Duration":35046,"SoundDuration":35046,"Delta":72780192},{"NoteNumber":78,"Velocity":50,"Duration":35046,"SoundDuration":35046,"Delta":72815239},{"NoteNumber":76,"Velocity":58,"Duration":402412,"SoundDuration":402412,"Delta":72850285},{"NoteNumber":75,"Velocity":55,"Duration":135746,"SoundDuration":135746,"Delta":73252698},{"NoteNumber":68,"Velocity":51,"Duration":789503,"SoundDuration":789503,"Delta":73388445},{"NoteNumber":72,"Velocity":59,"Duration":260869,"SoundDuration":260869,"Delta":73388445},{"NoteNumber":64,"Velocity":46,"Duration":260869,"SoundDuration":260869,"Delta":73388445},{"NoteNumber":73,"Velocity":56,"Duration":396475,"SoundDuration":396475,"Delta":73649314},{"NoteNumber":61,"Velocity":40,"Duration":396475,"SoundDuration":396475,"Delta":73649314},{"NoteNumber":76,"Velocity":59,"Duration":132158,"SoundDuration":132158,"Delta":74045790},{"NoteNumber":56,"Velocity":49,"Duration":132158,"SoundDuration":132158,"Delta":74045790},{"NoteNumber":80,"Velocity":64,"Duration":406201,"SoundDuration":406201,"Delta":74177948},{"NoteNumber":52,"Velocity":46,"Duration":406201,"SoundDuration":406201,"Delta":74177948},{"NoteNumber":83,"Velocity":61,"Duration":139535,"SoundDuration":139535,"Delta":74584150},{"NoteNumber":49,"Velocity":51,"Duration":139535,"SoundDuration":139535,"Delta":74584150},{"NoteNumber":83,"Velocity":62,"Duration":260869,"SoundDuration":260869,"Delta":74723685},{"NoteNumber":87,"Velocity":70,"Duration":260869,"SoundDuration":260869,"Delta":74723685},{"NoteNumber":42,"Velocity":53,"Duration":260869,"SoundDuration":260869,"Delta":74723685},{"NoteNumber":82,"Velocity":55,"Duration":398229,"SoundDuration":398229,"Delta":74984554},{"NoteNumber":85,"Velocity":61,"Duration":398229,"SoundDuration":398229,"Delta":74984554},{"NoteNumber":53,"Velocity":48,"Duration":398229,"SoundDuration":398229,"Delta":74984554},{"NoteNumber":78,"Velocity":53,"Duration":132743,"SoundDuration":132743,"Delta":75382784},{"NoteNumber":82,"Velocity":60,"Duration":132743,"SoundDuration":132743,"Delta":75382784},{"NoteNumber":54,"Velocity":49,"Duration":132743,"SoundDuration":132743,"Delta":75382784},{"NoteNumber":76,"Velocity":58,"Duration":402412,"SoundDuration":402412,"Delta":75515527},{"NoteNumber":80,"Velocity":64,"Duration":402412,"SoundDuration":402412,"Delta":75515527},{"NoteNumber":58,"Velocity":52,"Duration":402412,"SoundDuration":402412,"Delta":75515527},{"NoteNumber":74,"Velocity":49,"Duration":135746,"SoundDuration":135746,"Delta":75917940},{"NoteNumber":77,"Velocity":56,"Duration":135746,"SoundDuration":135746,"Delta":75917940},{"NoteNumber":66,"Velocity":49,"Duration":135746,"SoundDuration":135746,"Delta":75917940},{"NoteNumber":75,"Velocity":52,"Duration":1373975,"SoundDuration":1373975,"Delta":76053687},{"NoteNumber":78,"Velocity":59,"Duration":1373975,"SoundDuration":1373975,"Delta":76053687},{"NoteNumber":47,"Velocity":53,"Duration":260869,"SoundDuration":260869,"Delta":76053687},{"NoteNumber":53,"Velocity":45,"Duration":401931,"SoundDuration":401931,"Delta":76314557},{"NoteNumber":54,"Velocity":39,"Duration":71770,"SoundDuration":71770,"Delta":76716488},{"NoteNumber":58,"Velocity":37,"Duration":94918,"SoundDuration":94918,"Delta":76788259},{"NoteNumber":55,"Velocity":46,"Duration":422705,"SoundDuration":422705,"Delta":76860029},{"NoteNumber":54,"Velocity":42,"Duration":144927,"SoundDuration":144927,"Delta":77282734},{"NoteNumber":62,"Velocity":42,"Duration":258620,"SoundDuration":258620,"Delta":77427662},{"NoteNumber":78,"Velocity":33,"Duration":521738,"SoundDuration":521738,"Delta":77686283},{"NoteNumber":74,"Velocity":33,"Duration":521738,"SoundDuration":521738,"Delta":77686283},{"NoteNumber":71,"Velocity":27,"Duration":521738,"SoundDuration":521738,"Delta":77686283},{"NoteNumber":66,"Velocity":27,"Duration":521738,"SoundDuration":521738,"Delta":77686283},{"NoteNumber":61,"Velocity":39,"Duration":391304,"SoundDuration":391304,"Delta":77686283},{"NoteNumber":59,"Velocity":39,"Duration":130434,"SoundDuration":130434,"Delta":78077587},{"NoteNumber":78,"Velocity":33,"Duration":545465,"SoundDuration":545465,"Delta":78208022},{"NoteNumber":74,"Velocity":33,"Duration":545465,"SoundDuration":545465,"Delta":78208022},{"NoteNumber":71,"Velocity":27,"Duration":545465,"SoundDuration":545465,"Delta":78208022},{"NoteNumber":66,"Velocity":27,"Duration":545465,"SoundDuration":545465,"Delta":78208022},{"NoteNumber":61,"Velocity":42,"Duration":408479,"SoundDuration":408479,"Delta":78208022},{"NoteNumber":62,"Velocity":37,"Duration":136986,"SoundDuration":136986,"Delta":78616501},{"NoteNumber":61,"Velocity":42,"Duration":86580,"SoundDuration":86580,"Delta":78753487},{"NoteNumber":62,"Velocity":38,"Duration":86580,"SoundDuration":86580,"Delta":78840067},{"NoteNumber":61,"Velocity":38,"Duration":86580,"SoundDuration":86580,"Delta":78926647},{"NoteNumber":78,"Velocity":33,"Duration":524017,"SoundDuration":524017,"Delta":79013228},{"NoteNumber":74,"Velocity":33,"Duration":524017,"SoundDuration":524017,"Delta":79013228},{"NoteNumber":71,"Velocity":27,"Duration":524017,"SoundDuration":524017,"Delta":79013228},{"NoteNumber":66,"Velocity":27,"Duration":524017,"SoundDuration":524017,"Delta":79013228},{"NoteNumber":59,"Velocity":39,"Duration":393012,"SoundDuration":393012,"Delta":79013228},{"NoteNumber":61,"Velocity":39,"Duration":131004,"SoundDuration":131004,"Delta":79406240},{"NoteNumber":78,"Velocity":33,"Duration":540541,"SoundDuration":540541,"Delta":79537245},{"NoteNumber":74,"Velocity":33,"Duration":540541,"SoundDuration":540541,"Delta":79537245},{"NoteNumber":71,"Velocity":27,"Duration":540541,"SoundDuration":540541,"Delta":79537245},{"NoteNumber":66,"Velocity":27,"Duration":540541,"SoundDuration":540541,"Delta":79537245},{"NoteNumber":62,"Velocity":42,"Duration":405405,"SoundDuration":405405,"Delta":79537245},{"NoteNumber":64,"Velocity":37,"Duration":135135,"SoundDuration":135135,"Delta":79942650},{"NoteNumber":62,"Velocity":42,"Duration":86206,"SoundDuration":86206,"Delta":80077786},{"NoteNumber":64,"Velocity":38,"Duration":86206,"SoundDuration":86206,"Delta":80163992},{"NoteNumber":62,"Velocity":38,"Duration":86206,"SoundDuration":86206,"Delta":80250199},{"NoteNumber":78,"Velocity":33,"Duration":528726,"SoundDuration":528726,"Delta":80336406},{"NoteNumber":74,"Velocity":33,"Duration":528726,"SoundDuration":528726,"Delta":80336406},{"NoteNumber":71,"Velocity":27,"Duration":528726,"SoundDuration":528726,"Delta":80336406},{"NoteNumber":68,"Velocity":27,"Duration":528726,"SoundDuration":528726,"Delta":80336406},{"NoteNumber":61,"Velocity":39,"Duration":394797,"SoundDuration":394797,"Delta":80336406},{"NoteNumber":59,"Velocity":39,"Duration":686923,"SoundDuration":686923,"Delta":80731204},{"NoteNumber":81,"Velocity":51,"Duration":414746,"SoundDuration":414746,"Delta":80865133},{"NoteNumber":76,"Velocity":39,"Duration":552994,"SoundDuration":552994,"Delta":80865133},{"NoteNumber":73,"Velocity":39,"Duration":552994,"SoundDuration":552994,"Delta":80865133},{"NoteNumber":70,"Velocity":27,"Duration":552994,"SoundDuration":552994,"Delta":80865133},{"NoteNumber":79,"Velocity":46,"Duration":138248,"SoundDuration":138248,"Delta":81279879},{"NoteNumber":74,"Velocity":47,"Duration":796680,"SoundDuration":796680,"Delta":81418128},{"NoteNumber":78,"Velocity":52,"Duration":796680,"SoundDuration":796680,"Delta":81418128},{"NoteNumber":71,"Velocity":48,"Duration":266666,"SoundDuration":266666,"Delta":81418128},{"NoteNumber":65,"Velocity":39,"Duration":393028,"SoundDuration":393028,"Delta":81684794},{"NoteNumber":66,"Velocity":38,"Duration":68493,"SoundDuration":68493,"Delta":82077822},{"NoteNumber":69,"Velocity":35,"Duration":90914,"SoundDuration":90914,"Delta":82146315},{"NoteNumber":67,"Velocity":44,"Duration":409903,"SoundDuration":409903,"Delta":82214808},{"NoteNumber":66,"Velocity":38,"Duration":140844,"SoundDuration":140844,"Delta":82624712},{"NoteNumber":72,"Velocity":56,"Duration":275229,"SoundDuration":275229,"Delta":82765557},{"NoteNumber":78,"Velocity":56,"Duration":275229,"SoundDuration":275229,"Delta":82765557},{"NoteNumber":81,"Velocity":67,"Duration":275229,"SoundDuration":275229,"Delta":82765557},{"NoteNumber":63,"Velocity":53,"Duration":275229,"SoundDuration":275229,"Delta":82765557},{"NoteNumber":71,"Velocity":54,"Duration":412844,"SoundDuration":412844,"Delta":83040786},{"NoteNumber":76,"Velocity":54,"Duration":412844,"SoundDuration":412844,"Delta":83040786},{"NoteNumber":80,"Velocity":64,"Duration":412844,"SoundDuration":412844,"Delta":83040786},{"NoteNumber":64,"Velocity":50,"Duration":412844,"SoundDuration":412844,"Delta":83040786},{"NoteNumber":73,"Velocity":53,"Duration":137614,"SoundDuration":137614,"Delta":83453631},{"NoteNumber":76,"Velocity":53,"Duration":137614,"SoundDuration":137614,"Delta":83453631},{"NoteNumber":79,"Velocity":63,"Duration":137614,"SoundDuration":137614,"Delta":83453631},{"NoteNumber":58,"Velocity":50,"Duration":137614,"SoundDuration":137614,"Delta":83453631},{"NoteNumber":74,"Velocity":56,"Duration":419287,"SoundDuration":419287,"Delta":83591245},{"NoteNumber":78,"Velocity":67,"Duration":419287,"SoundDuration":419287,"Delta":83591245},{"NoteNumber":59,"Velocity":53,"Duration":419287,"SoundDuration":419287,"Delta":83591245},{"NoteNumber":78,"Velocity":52,"Duration":141509,"SoundDuration":141509,"Delta":84010533},{"NoteNumber":83,"Velocity":62,"Duration":141509,"SoundDuration":141509,"Delta":84010533},{"NoteNumber":57,"Velocity":50,"Duration":141509,"SoundDuration":141509,"Delta":84010533},{"NoteNumber":71,"Velocity":65,"Duration":279070,"SoundDuration":279070,"Delta":84152042},{"NoteNumber":77,"Velocity":65,"Duration":279070,"SoundDuration":279070,"Delta":84152042},{"NoteNumber":83,"Velocity":77,"Duration":279070,"SoundDuration":279070,"Delta":84152042},{"NoteNumber":56,"Velocity":54,"Duration":279070,"SoundDuration":279070,"Delta":84152042},{"NoteNumber":71,"Velocity":60,"Duration":424528,"SoundDuration":424528,"Delta":84431112},{"NoteNumber":76,"Velocity":60,"Duration":424528,"SoundDuration":424528,"Delta":84431112},{"NoteNumber":83,"Velocity":72,"Duration":424528,"SoundDuration":424528,"Delta":84431112},{"NoteNumber":55,"Velocity":50,"Duration":424528,"SoundDuration":424528,"Delta":84431112},{"NoteNumber":71,"Velocity":60,"Duration":141509,"SoundDuration":141509,"Delta":84855641},{"NoteNumber":73,"Velocity":60,"Duration":141509,"SoundDuration":141509,"Delta":84855641},{"NoteNumber":83,"Velocity":72,"Duration":141509,"SoundDuration":141509,"Delta":84855641},{"NoteNumber":53,"Velocity":55,"Duration":141509,"SoundDuration":141509,"Delta":84855641},{"NoteNumber":71,"Velocity":61,"Duration":566037,"SoundDuration":566037,"Delta":84997150},{"NoteNumber":74,"Velocity":61,"Duration":566037,"SoundDuration":566037,"Delta":84997150},{"NoteNumber":83,"Velocity":73,"Duration":566037,"SoundDuration":566037,"Delta":84997150},{"NoteNumber":54,"Velocity":51,"Duration":566037,"SoundDuration":566037,"Delta":84997150},{"NoteNumber":67,"Velocity":48,"Duration":270270,"SoundDuration":270270,"Delta":85563188},{"NoteNumber":71,"Velocity":48,"Duration":270270,"SoundDuration":270270,"Delta":85563188},{"NoteNumber":73,"Velocity":57,"Duration":270270,"SoundDuration":270270,"Delta":85563188},{"NoteNumber":64,"Velocity":45,"Duration":270270,"SoundDuration":270270,"Delta":85563188},{"NoteNumber":67,"Velocity":46,"Duration":401931,"SoundDuration":401931,"Delta":85833459},{"NoteNumber":71,"Velocity":46,"Duration":401931,"SoundDuration":401931,"Delta":85833459},{"NoteNumber":73,"Velocity":55,"Duration":401931,"SoundDuration":401931,"Delta":85833459},{"NoteNumber":64,"Velocity":48,"Duration":401931,"SoundDuration":401931,"Delta":85833459},{"NoteNumber":67,"Velocity":51,"Duration":141509,"SoundDuration":141509,"Delta":86235391},{"NoteNumber":71,"Velocity":51,"Duration":141509,"SoundDuration":141509,"Delta":86235391},{"NoteNumber":74,"Velocity":60,"Duration":141509,"SoundDuration":141509,"Delta":86235391},{"NoteNumber":62,"Velocity":47,"Duration":141509,"SoundDuration":141509,"Delta":86235391},{"NoteNumber":67,"Velocity":53,"Duration":533501,"SoundDuration":533501,"Delta":86376900},{"NoteNumber":71,"Velocity":53,"Duration":533501,"SoundDuration":533501,"Delta":86376900},{"NoteNumber":76,"Velocity":62,"Duration":397754,"SoundDuration":397754,"Delta":86376900},{"NoteNumber":61,"Velocity":49,"Duration":533501,"SoundDuration":533501,"Delta":86376900},{"NoteNumber":79,"Velocity":64,"Duration":135746,"SoundDuration":135746,"Delta":86774655},{"NoteNumber":70,"Velocity":53,"Duration":263158,"SoundDuration":263158,"Delta":86910402},{"NoteNumber":74,"Velocity":62,"Duration":263158,"SoundDuration":263158,"Delta":86910402},{"NoteNumber":54,"Velocity":42,"Duration":263158,"SoundDuration":263158,"Delta":86910402},{"NoteNumber":64,"Velocity":50,"Duration":263158,"SoundDuration":263158,"Delta":86910402},{"NoteNumber":70,"Velocity":38,"Duration":394736,"SoundDuration":394736,"Delta":87173560},{"NoteNumber":73,"Velocity":55,"Duration":394736,"SoundDuration":394736,"Delta":87173560},{"NoteNumber":54,"Velocity":40,"Duration":394736,"SoundDuration":394736,"Delta":87173560},{"NoteNumber":64,"Velocity":48,"Duration":394736,"SoundDuration":394736,"Delta":87173560},{"NoteNumber":70,"Velocity":36,"Duration":131579,"SoundDuration":131579,"Delta":87568297},{"NoteNumber":74,"Velocity":50,"Duration":131579,"SoundDuration":131579,"Delta":87568297},{"NoteNumber":64,"Velocity":39,"Duration":131579,"SoundDuration":131579,"Delta":87568297},{"NoteNumber":54,"Velocity":33,"Duration":131579,"SoundDuration":131579,"Delta":87568297},{"NoteNumber":66,"Velocity":33,"Duration":538387,"SoundDuration":538387,"Delta":87699876},{"NoteNumber":71,"Velocity":52,"Duration":538387,"SoundDuration":538387,"Delta":87699876},{"NoteNumber":62,"Velocity":44,"Duration":538387,"SoundDuration":538387,"Delta":87699876},{"NoteNumber":59,"Velocity":28,"Duration":538387,"SoundDuration":538387,"Delta":87699876},{"NoteNumber":66,"Velocity":50,"Duration":260869,"SoundDuration":260869,"Delta":88238263},{"NoteNumber":69,"Velocity":60,"Duration":260869,"SoundDuration":260869,"Delta":88238263},{"NoteNumber":59,"Velocity":44,"Duration":260869,"SoundDuration":260869,"Delta":88238263},{"NoteNumber":66,"Velocity":47,"Duration":394737,"SoundDuration":394737,"Delta":88499133},{"NoteNumber":69,"Velocity":56,"Duration":394737,"SoundDuration":394737,"Delta":88499133},{"NoteNumber":59,"Velocity":40,"Duration":394737,"SoundDuration":394737,"Delta":88499133},{"NoteNumber":64,"Velocity":44,"Duration":131578,"SoundDuration":131578,"Delta":88893870},{"NoteNumber":73,"Velocity":52,"Duration":131578,"SoundDuration":131578,"Delta":88893870},{"NoteNumber":59,"Velocity":40,"Duration":131578,"SoundDuration":131578,"Delta":88893870},{"NoteNumber":63,"Velocity":47,"Duration":397687,"SoundDuration":397687,"Delta":89025449},{"NoteNumber":71,"Velocity":56,"Duration":397687,"SoundDuration":397687,"Delta":89025449},{"NoteNumber":59,"Velocity":44,"Duration":397687,"SoundDuration":397687,"Delta":89025449},{"NoteNumber":67,"Velocity":51,"Duration":134529,"SoundDuration":134529,"Delta":89423136},{"NoteNumber":63,"Velocity":42,"Duration":134529,"SoundDuration":134529,"Delta":89423136},{"NoteNumber":59,"Velocity":40,"Duration":134529,"SoundDuration":134529,"Delta":89423136},{"NoteNumber":64,"Velocity":47,"Duration":260869,"SoundDuration":260869,"Delta":89557665},{"NoteNumber":68,"Velocity":56,"Duration":260869,"SoundDuration":260869,"Delta":89557665},{"NoteNumber":59,"Velocity":44,"Duration":260869,"SoundDuration":260869,"Delta":89557665},{"NoteNumber":68,"Velocity":49,"Duration":394737,"SoundDuration":394737,"Delta":89818535},{"NoteNumber":71,"Velocity":58,"Duration":394737,"SoundDuration":394737,"Delta":89818535},{"NoteNumber":59,"Velocity":40,"Duration":394737,"SoundDuration":394737,"Delta":89818535},{"NoteNumber":80,"Velocity":58,"Duration":131578,"SoundDuration":131578,"Delta":90213272},{"NoteNumber":76,"Velocity":48,"Duration":131578,"SoundDuration":131578,"Delta":90213272},{"NoteNumber":59,"Velocity":40,"Duration":131578,"SoundDuration":131578,"Delta":90213272},{"NoteNumber":75,"Velocity":46,"Duration":396491,"SoundDuration":396491,"Delta":90344851},{"NoteNumber":78,"Velocity":55,"Duration":396491,"SoundDuration":396491,"Delta":90344851},{"NoteNumber":59,"Velocity":44,"Duration":396491,"SoundDuration":396491,"Delta":90344851},{"NoteNumber":73,"Velocity":44,"Duration":133333,"SoundDuration":133333,"Delta":90741342},{"NoteNumber":76,"Velocity":52,"Duration":133333,"SoundDuration":133333,"Delta":90741342},{"NoteNumber":59,"Velocity":40,"Duration":133333,"SoundDuration":133333,"Delta":90741342},{"NoteNumber":71,"Velocity":47,"Duration":87719,"SoundDuration":87719,"Delta":90874675},{"NoteNumber":75,"Velocity":56,"Duration":87719,"SoundDuration":87719,"Delta":90874675},{"NoteNumber":59,"Velocity":44,"Duration":263158,"SoundDuration":263158,"Delta":90874675},{"NoteNumber":73,"Velocity":40,"Duration":87719,"SoundDuration":87719,"Delta":90962394},{"NoteNumber":76,"Velocity":48,"Duration":87719,"SoundDuration":87719,"Delta":90962394},{"NoteNumber":71,"Velocity":40,"Duration":87719,"SoundDuration":87719,"Delta":91050114},{"NoteNumber":75,"Velocity":48,"Duration":87719,"SoundDuration":87719,"Delta":91050114},{"NoteNumber":69,"Velocity":45,"Duration":392448,"SoundDuration":392448,"Delta":91137833},{"NoteNumber":73,"Velocity":53,"Duration":392448,"SoundDuration":392448,"Delta":91137833},{"NoteNumber":59,"Velocity":40,"Duration":392448,"SoundDuration":392448,"Delta":91137833},{"NoteNumber":71,"Velocity":44,"Duration":131579,"SoundDuration":131579,"Delta":91530282},{"NoteNumber":75,"Velocity":52,"Duration":131579,"SoundDuration":131579,"Delta":91530282},{"NoteNumber":59,"Velocity":40,"Duration":131579,"SoundDuration":131579,"Delta":91530282},{"NoteNumber":73,"Velocity":47,"Duration":407947,"SoundDuration":407947,"Delta":91661861},{"NoteNumber":76,"Velocity":56,"Duration":407947,"SoundDuration":407947,"Delta":91661861},{"NoteNumber":59,"Velocity":44,"Duration":407947,"SoundDuration":407947,"Delta":91661861},{"NoteNumber":69,"Velocity":44,"Duration":138888,"SoundDuration":138888,"Delta":92069808},{"NoteNumber":73,"Velocity":52,"Duration":138888,"SoundDuration":138888,"Delta":92069808},{"NoteNumber":59,"Velocity":44,"Duration":138888,"SoundDuration":138888,"Delta":92069808},{"NoteNumber":68,"Velocity":40,"Duration":797809,"SoundDuration":797809,"Delta":92208697},{"NoteNumber":71,"Velocity":48,"Duration":797809,"SoundDuration":797809,"Delta":92208697},{"NoteNumber":52,"Velocity":37,"Duration":797809,"SoundDuration":797809,"Delta":92208697},{"NoteNumber":59,"Velocity":50,"Duration":263158,"SoundDuration":263158,"Delta":92208697},{"NoteNumber":59,"Velocity":48,"Duration":398904,"SoundDuration":398904,"Delta":92471855},{"NoteNumber":64,"Velocity":49,"Duration":135746,"SoundDuration":135746,"Delta":92870760},{"NoteNumber":63,"Velocity":49,"Duration":399999,"SoundDuration":399999,"Delta":93006506},{"NoteNumber":62,"Velocity":45,"Duration":133333,"SoundDuration":133333,"Delta":93406506},{"NoteNumber":71,"Velocity":49,"Duration":270270,"SoundDuration":270270,"Delta":93539839},{"NoteNumber":77,"Velocity":56,"Duration":270270,"SoundDuration":270270,"Delta":93539839},{"NoteNumber":61,"Velocity":48,"Duration":1347213,"SoundDuration":1347213,"Delta":93539839},{"NoteNumber":68,"Velocity":48,"Duration":270270,"SoundDuration":270270,"Delta":93539839},{"NoteNumber":73,"Velocity":49,"Duration":401931,"SoundDuration":401931,"Delta":93810110},{"NoteNumber":78,"Velocity":55,"Duration":401931,"SoundDuration":401931,"Delta":93810110},{"NoteNumber":69,"Velocity":51,"Duration":401931,"SoundDuration":401931,"Delta":93810110},{"NoteNumber":74,"Velocity":55,"Duration":141509,"SoundDuration":141509,"Delta":94212041},{"NoteNumber":80,"Velocity":55,"Duration":141509,"SoundDuration":141509,"Delta":94212041},{"NoteNumber":71,"Velocity":50,"Duration":141509,"SoundDuration":141509,"Delta":94212041},{"NoteNumber":83,"Velocity":50,"Duration":92588,"SoundDuration":92588,"Delta":94282796},{"NoteNumber":77,"Velocity":49,"Duration":533501,"SoundDuration":533501,"Delta":94353551},{"NoteNumber":81,"Velocity":58,"Duration":397754,"SoundDuration":397754,"Delta":94353551},{"NoteNumber":73,"Velocity":46,"Duration":397754,"SoundDuration":397754,"Delta":94353551},{"NoteNumber":80,"Velocity":57,"Duration":135746,"SoundDuration":135746,"Delta":94751306},{"NoteNumber":71,"Velocity":48,"Duration":135746,"SoundDuration":135746,"Delta":94751306},{"NoteNumber":73,"Velocity":46,"Duration":786056,"SoundDuration":786056,"Delta":94887052},{"NoteNumber":85,"Velocity":46,"Duration":786056,"SoundDuration":786056,"Delta":94887052},{"NoteNumber":80,"Velocity":60,"Duration":259740,"SoundDuration":259740,"Delta":94887052},{"NoteNumber":66,"Velocity":39,"Duration":786056,"SoundDuration":786056,"Delta":94887052},{"NoteNumber":71,"Velocity":50,"Duration":259740,"SoundDuration":259740,"Delta":94887052},{"NoteNumber":78,"Velocity":58,"Duration":394737,"SoundDuration":394737,"Delta":95146793},{"NoteNumber":69,"Velocity":49,"Duration":394737,"SoundDuration":394737,"Delta":95146793},{"NoteNumber":77,"Velocity":50,"Duration":131578,"SoundDuration":131578,"Delta":95541530},{"NoteNumber":68,"Velocity":46,"Duration":131578,"SoundDuration":131578,"Delta":95541530},{"NoteNumber":78,"Velocity":53,"Duration":400772,"SoundDuration":400772,"Delta":95673109},{"NoteNumber":69,"Velocity":48,"Duration":400772,"SoundDuration":400772,"Delta":95673109},{"NoteNumber":69,"Velocity":55,"Duration":137614,"SoundDuration":137614,"Delta":96073882},{"NoteNumber":72,"Velocity":55,"Duration":137614,"SoundDuration":137614,"Delta":96073882},{"NoteNumber":64,"Velocity":46,"Duration":137614,"SoundDuration":137614,"Delta":96073882},{"NoteNumber":69,"Velocity":47,"Duration":787185,"SoundDuration":787185,"Delta":96211496},{"NoteNumber":71,"Velocity":57,"Duration":260869,"SoundDuration":260869,"Delta":96211496},{"NoteNumber":59,"Velocity":37,"Duration":787185,"SoundDuration":787185,"Delta":96211496},{"NoteNumber":63,"Velocity":49,"Duration":260869,"SoundDuration":260869,"Delta":96211496},{"NoteNumber":77,"Velocity":58,"Duration":394737,"SoundDuration":394737,"Delta":96472366},{"NoteNumber":62,"Velocity":49,"Duration":394737,"SoundDuration":394737,"Delta":96472366},{"NoteNumber":78,"Velocity":59,"Duration":131578,"SoundDuration":131578,"Delta":96867103},{"NoteNumber":63,"Velocity":49,"Duration":131578,"SoundDuration":131578,"Delta":96867103},{"NoteNumber":81,"Velocity":61,"Duration":405338,"SoundDuration":405338,"Delta":96998682},{"NoteNumber":59,"Velocity":37,"Duration":547518,"SoundDuration":547518,"Delta":96998682},{"NoteNumber":73,"Velocity":46,"Duration":405338,"SoundDuration":405338,"Delta":96998682},{"NoteNumber":80,"Velocity":57,"Duration":142180,"SoundDuration":142180,"Delta":97404020},{"NoteNumber":71,"Velocity":48,"Duration":142180,"SoundDuration":142180,"Delta":97404020},{"NoteNumber":71,"Velocity":38,"Duration":1226816,"SoundDuration":1226816,"Delta":97546200},{"NoteNumber":83,"Velocity":42,"Duration":1085971,"SoundDuration":1085971,"Delta":97546200},{"NoteNumber":78,"Velocity":55,"Duration":271493,"SoundDuration":271493,"Delta":97546200},{"NoteNumber":64,"Velocity":34,"Duration":1226816,"SoundDuration":1226816,"Delta":97546200},{"NoteNumber":69,"Velocity":46,"Duration":271493,"SoundDuration":271493,"Delta":97546200},{"NoteNumber":76,"Velocity":52,"Duration":407239,"SoundDuration":407239,"Delta":97817693},{"NoteNumber":68,"Velocity":45,"Duration":407239,"SoundDuration":407239,"Delta":97817693},{"NoteNumber":75,"Velocity":50,"Duration":135746,"SoundDuration":135746,"Delta":98224932},{"NoteNumber":67,"Velocity":41,"Duration":135746,"SoundDuration":135746,"Delta":98224932},{"NoteNumber":76,"Velocity":50,"Duration":271492,"SoundDuration":271492,"Delta":98353891},{"NoteNumber":68,"Velocity":37,"Duration":271492,"SoundDuration":271492,"Delta":98360679},{"NoteNumber":68,"Velocity":58,"Duration":140844,"SoundDuration":140844,"Delta":98773017},{"NoteNumber":65,"Velocity":49,"Duration":140844,"SoundDuration":140844,"Delta":98773017},{"NoteNumber":66,"Velocity":50,"Duration":263158,"SoundDuration":263158,"Delta":98913862},{"NoteNumber":69,"Velocity":60,"Duration":263158,"SoundDuration":263158,"Delta":98913862},{"NoteNumber":59,"Velocity":44,"Duration":263158,"SoundDuration":263158,"Delta":98913862},{"NoteNumber":66,"Velocity":47,"Duration":394736,"SoundDuration":394736,"Delta":99177020},{"NoteNumber":69,"Velocity":56,"Duration":394736,"SoundDuration":394736,"Delta":99177020},{"NoteNumber":59,"Velocity":40,"Duration":394736,"SoundDuration":394736,"Delta":99177020},{"NoteNumber":64,"Velocity":44,"Duration":131579,"SoundDuration":131579,"Delta":99571757},{"NoteNumber":73,"Velocity":52,"Duration":131579,"SoundDuration":131579,"Delta":99571757},{"NoteNumber":59,"Velocity":40,"Duration":131579,"SoundDuration":131579,"Delta":99571757},{"NoteNumber":63,"Velocity":47,"Duration":397687,"SoundDuration":397687,"Delta":99703336},{"NoteNumber":71,"Velocity":56,"Duration":397687,"SoundDuration":397687,"Delta":99703336},{"NoteNumber":59,"Velocity":44,"Duration":397687,"SoundDuration":397687,"Delta":99703336},{"NoteNumber":67,"Velocity":51,"Duration":134529,"SoundDuration":134529,"Delta":100101023},{"NoteNumber":63,"Velocity":42,"Duration":134529,"SoundDuration":134529,"Delta":100101023},{"NoteNumber":59,"Velocity":40,"Duration":134529,"SoundDuration":134529,"Delta":100101023},{"NoteNumber":64,"Velocity":47,"Duration":263158,"SoundDuration":263158,"Delta":100235552},{"NoteNumber":68,"Velocity":56,"Duration":263158,"SoundDuration":263158,"Delta":100235552},{"NoteNumber":59,"Velocity":44,"Duration":263158,"SoundDuration":263158,"Delta":100235552},{"NoteNumber":68,"Velocity":49,"Duration":394736,"SoundDuration":394736,"Delta":100498710},{"NoteNumber":71,"Velocity":58,"Duration":394736,"SoundDuration":394736,"Delta":100498710},{"NoteNumber":59,"Velocity":40,"Duration":394736,"SoundDuration":394736,"Delta":100498710},{"NoteNumber":80,"Velocity":60,"Duration":131579,"SoundDuration":131579,"Delta":100893447},{"NoteNumber":76,"Velocity":50,"Duration":131579,"SoundDuration":131579,"Delta":100893447},{"NoteNumber":59,"Velocity":40,"Duration":131579,"SoundDuration":131579,"Delta":100893447},{"NoteNumber":75,"Velocity":46,"Duration":396491,"SoundDuration":396491,"Delta":101025026},{"NoteNumber":78,"Velocity":55,"Duration":396491,"SoundDuration":396491,"Delta":101025026},{"NoteNumber":59,"Velocity":44,"Duration":396491,"SoundDuration":396491,"Delta":101025026},{"NoteNumber":73,"Velocity":44,"Duration":133333,"SoundDuration":133333,"Delta":101421518},{"NoteNumber":76,"Velocity":52,"Duration":133333,"SoundDuration":133333,"Delta":101421518},{"NoteNumber":59,"Velocity":40,"Duration":133333,"SoundDuration":133333,"Delta":101421518},{"NoteNumber":71,"Velocity":47,"Duration":87719,"SoundDuration":87719,"Delta":101554851},{"NoteNumber":75,"Velocity":56,"Duration":87719,"SoundDuration":87719,"Delta":101554851},{"NoteNumber":59,"Velocity":44,"Duration":263158,"SoundDuration":263158,"Delta":101554851},{"NoteNumber":73,"Velocity":40,"Duration":87719,"SoundDuration":87719,"Delta":101642570},{"NoteNumber":76,"Velocity":48,"Duration":87719,"SoundDuration":87719,"Delta":101642570},{"NoteNumber":71,"Velocity":40,"Duration":87719,"SoundDuration":87719,"Delta":101730289},{"NoteNumber":75,"Velocity":48,"Duration":87719,"SoundDuration":87719,"Delta":101730289},{"NoteNumber":69,"Velocity":45,"Duration":394736,"SoundDuration":394736,"Delta":101818009},{"NoteNumber":73,"Velocity":53,"Duration":394736,"SoundDuration":394736,"Delta":101818009},{"NoteNumber":59,"Velocity":40,"Duration":394736,"SoundDuration":394736,"Delta":101818009},{"NoteNumber":71,"Velocity":44,"Duration":131579,"SoundDuration":131579,"Delta":102212746},{"NoteNumber":75,"Velocity":52,"Duration":131579,"SoundDuration":131579,"Delta":102212746},{"NoteNumber":59,"Velocity":40,"Duration":131579,"SoundDuration":131579,"Delta":102212746},{"NoteNumber":73,"Velocity":47,"Duration":407947,"SoundDuration":407947,"Delta":102344325},{"NoteNumber":76,"Velocity":56,"Duration":407947,"SoundDuration":407947,"Delta":102344325},{"NoteNumber":59,"Velocity":44,"Duration":407947,"SoundDuration":407947,"Delta":102344325},{"NoteNumber":69,"Velocity":44,"Duration":138888,"SoundDuration":138888,"Delta":102752272},{"NoteNumber":73,"Velocity":52,"Duration":138888,"SoundDuration":138888,"Delta":102752272},{"NoteNumber":59,"Velocity":44,"Duration":138888,"SoundDuration":138888,"Delta":102752272},{"NoteNumber":68,"Velocity":40,"Duration":797809,"SoundDuration":797809,"Delta":102891161},{"NoteNumber":71,"Velocity":48,"Duration":797809,"SoundDuration":797809,"Delta":102891161},{"NoteNumber":52,"Velocity":50,"Duration":263158,"SoundDuration":263158,"Delta":102891161},{"NoteNumber":59,"Velocity":48,"Duration":398904,"SoundDuration":398904,"Delta":103154319},{"NoteNumber":64,"Velocity":51,"Duration":135746,"SoundDuration":135746,"Delta":103553224},{"NoteNumber":68,"Velocity":54,"Duration":399999,"SoundDuration":399999,"Delta":103688970},{"NoteNumber":71,"Velocity":55,"Duration":133333,"SoundDuration":133333,"Delta":104088970},{"NoteNumber":76,"Velocity":54,"Duration":789473,"SoundDuration":789473,"Delta":104222303},{"NoteNumber":81,"Velocity":65,"Duration":263158,"SoundDuration":263158,"Delta":104222303},{"NoteNumber":70,"Velocity":49,"Duration":789473,"SoundDuration":789473,"Delta":104222303},{"NoteNumber":72,"Velocity":59,"Duration":1327861,"SoundDuration":1327861,"Delta":104222303},{"NoteNumber":79,"Velocity":61,"Duration":394736,"SoundDuration":394736,"Delta":104485461},{"NoteNumber":81,"Velocity":61,"Duration":131579,"SoundDuration":131579,"Delta":104880198},{"NoteNumber":84,"Velocity":57,"Duration":400772,"SoundDuration":400772,"Delta":105011777},{"NoteNumber":69,"Velocity":55,"Duration":538387,"SoundDuration":538387,"Delta":105011777},{"NoteNumber":79,"Velocity":51,"Duration":538387,"SoundDuration":538387,"Delta":105018356},{"NoteNumber":77,"Velocity":50,"Duration":137614,"SoundDuration":137614,"Delta":105412550},{"NoteNumber":75,"Velocity":48,"Duration":794173,"SoundDuration":794173,"Delta":105550165},{"NoteNumber":80,"Velocity":57,"Duration":263158,"SoundDuration":263158,"Delta":105550165},{"NoteNumber":69,"Velocity":41,"Duration":794173,"SoundDuration":794173,"Delta":105550165},{"NoteNumber":71,"Velocity":49,"Duration":1337259,"SoundDuration":1337259,"Delta":105550165},{"NoteNumber":78,"Velocity":51,"Duration":397086,"SoundDuration":397086,"Delta":105813323},{"NoteNumber":80,"Velocity":51,"Duration":133928,"SoundDuration":133928,"Delta":106210409},{"NoteNumber":78,"Velocity":44,"Duration":543086,"SoundDuration":543086,"Delta":106344338},{"NoteNumber":83,"Velocity":47,"Duration":405471,"SoundDuration":405471,"Delta":106344338},{"NoteNumber":68,"Velocity":46,"Duration":543086,"SoundDuration":543086,"Delta":106344338},{"NoteNumber":76,"Velocity":50,"Duration":137614,"SoundDuration":137614,"Delta":106749810},{"NoteNumber":74,"Velocity":49,"Duration":270270,"SoundDuration":270270,"Delta":106887424},{"NoteNumber":77,"Velocity":56,"Duration":270270,"SoundDuration":270270,"Delta":106887424},{"NoteNumber":71,"Velocity":48,"Duration":270270,"SoundDuration":270270,"Delta":106887424},{"NoteNumber":73,"Velocity":49,"Duration":401931,"SoundDuration":401931,"Delta":107157695},{"NoteNumber":78,"Velocity":55,"Duration":401931,"SoundDuration":401931,"Delta":107157695},{"NoteNumber":69,"Velocity":51,"Duration":401931,"SoundDuration":401931,"Delta":107157695},{"NoteNumber":74,"Velocity":55,"Duration":141509,"SoundDuration":141509,"Delta":107559626},{"NoteNumber":80,"Velocity":55,"Duration":141509,"SoundDuration":141509,"Delta":107559626},{"NoteNumber":65,"Velocity":55,"Duration":141509,"SoundDuration":141509,"Delta":107559626},{"NoteNumber":73,"Velocity":48,"Duration":533501,"SoundDuration":533501,"Delta":107701136},{"NoteNumber":81,"Velocity":58,"Duration":533501,"SoundDuration":533501,"Delta":107701136},{"NoteNumber":66,"Velocity":44,"Duration":533501,"SoundDuration":533501,"Delta":107701136},{"NoteNumber":75,"Velocity":50,"Duration":263158,"SoundDuration":263158,"Delta":108234637},{"NoteNumber":78,"Velocity":60,"Duration":263158,"SoundDuration":263158,"Delta":108234637},{"NoteNumber":59,"Velocity":39,"Duration":789473,"SoundDuration":789473,"Delta":108234637},{"NoteNumber":69,"Velocity":50,"Duration":263158,"SoundDuration":263158,"Delta":108234637},{"NoteNumber":75,"Velocity":49,"Duration":394736,"SoundDuration":394736,"Delta":108497796},{"NoteNumber":81,"Velocity":58,"Duration":394736,"SoundDuration":394736,"Delta":108497796},{"NoteNumber":73,"Velocity":55,"Duration":394736,"SoundDuration":394736,"Delta":108497796},{"NoteNumber":75,"Velocity":45,"Duration":131579,"SoundDuration":131579,"Delta":108892532},{"NoteNumber":80,"Velocity":53,"Duration":131579,"SoundDuration":131579,"Delta":108892532},{"NoteNumber":71,"Velocity":42,"Duration":131579,"SoundDuration":131579,"Delta":108892532},{"NoteNumber":71,"Velocity":42,"Duration":544287,"SoundDuration":544287,"Delta":109024111},{"NoteNumber":76,"Velocity":55,"Duration":544287,"SoundDuration":544287,"Delta":109024111},{"NoteNumber":64,"Velocity":36,"Duration":541994,"SoundDuration":541994,"Delta":109024111},{"NoteNumber":68,"Velocity":47,"Duration":544287,"SoundDuration":544287,"Delta":109024111},{"NoteNumber":64,"Velocity":42,"Duration":263158,"SoundDuration":263158,"Delta":109568399},{"NoteNumber":67,"Velocity":51,"Duration":263158,"SoundDuration":263158,"Delta":109568399},{"NoteNumber":60,"Velocity":37,"Duration":263158,"SoundDuration":263158,"Delta":109568399},{"NoteNumber":62,"Velocity":39,"Duration":394736,"SoundDuration":394736,"Delta":109831557},{"NoteNumber":67,"Velocity":47,"Duration":394736,"SoundDuration":394736,"Delta":109831557},{"NoteNumber":59,"Velocity":34,"Duration":394736,"SoundDuration":394736,"Delta":109831557},{"NoteNumber":64,"Velocity":37,"Duration":131579,"SoundDuration":131579,"Delta":110226294},{"NoteNumber":67,"Velocity":44,"Duration":131579,"SoundDuration":131579,"Delta":110226294},{"NoteNumber":60,"Velocity":34,"Duration":131579,"SoundDuration":131579,"Delta":110226294},{"NoteNumber":62,"Velocity":39,"Duration":397687,"SoundDuration":397687,"Delta":110357873},{"NoteNumber":67,"Velocity":47,"Duration":397687,"SoundDuration":397687,"Delta":110357873},{"NoteNumber":59,"Velocity":37,"Duration":397687,"SoundDuration":397687,"Delta":110357873},{"NoteNumber":72,"Velocity":43,"Duration":140844,"SoundDuration":140844,"Delta":110755561},{"NoteNumber":74,"Velocity":43,"Duration":140844,"SoundDuration":140844,"Delta":110755561},{"NoteNumber":66,"Velocity":35,"Duration":140844,"SoundDuration":140844,"Delta":110755561},{"NoteNumber":57,"Velocity":41,"Duration":140844,"SoundDuration":140844,"Delta":110755561},{"NoteNumber":67,"Velocity":52,"Duration":263158,"SoundDuration":263158,"Delta":110896406},{"NoteNumber":71,"Velocity":52,"Duration":263158,"SoundDuration":263158,"Delta":110896406},{"NoteNumber":74,"Velocity":64,"Duration":263158,"SoundDuration":263158,"Delta":110896406},{"NoteNumber":55,"Velocity":50,"Duration":263158,"SoundDuration":263158,"Delta":110896406},{"NoteNumber":69,"Velocity":48,"Duration":394736,"SoundDuration":394736,"Delta":111159564},{"NoteNumber":71,"Velocity":48,"Duration":394736,"SoundDuration":394736,"Delta":111159564},{"NoteNumber":75,"Velocity":58,"Duration":394736,"SoundDuration":394736,"Delta":111159564},{"NoteNumber":54,"Velocity":45,"Duration":394736,"SoundDuration":394736,"Delta":111159564},{"NoteNumber":68,"Velocity":46,"Duration":131579,"SoundDuration":131579,"Delta":111554301},{"NoteNumber":71,"Velocity":46,"Duration":131579,"SoundDuration":131579,"Delta":111554301},{"NoteNumber":76,"Velocity":55,"Duration":131579,"SoundDuration":131579,"Delta":111554301},{"NoteNumber":52,"Velocity":44,"Duration":131579,"SoundDuration":131579,"Delta":111554301},{"NoteNumber":71,"Velocity":48,"Duration":397687,"SoundDuration":397687,"Delta":111685880},{"NoteNumber":77,"Velocity":48,"Duration":397687,"SoundDuration":397687,"Delta":111685880},{"NoteNumber":80,"Velocity":58,"Duration":397687,"SoundDuration":397687,"Delta":111685880},{"NoteNumber":50,"Velocity":48,"Duration":397687,"SoundDuration":397687,"Delta":111685880},{"NoteNumber":83,"Velocity":58,"Duration":134529,"SoundDuration":134529,"Delta":112083567},{"NoteNumber":47,"Velocity":47,"Duration":134529,"SoundDuration":134529,"Delta":112083567},{"NoteNumber":76,"Velocity":63,"Duration":263158,"SoundDuration":263158,"Delta":112218096},{"NoteNumber":81,"Velocity":71,"Duration":263158,"SoundDuration":263158,"Delta":112218096},{"NoteNumber":48,"Velocity":55,"Duration":263158,"SoundDuration":263158,"Delta":112218096},{"NoteNumber":84,"Velocity":65,"Duration":394736,"SoundDuration":394736,"Delta":112481254},{"NoteNumber":45,"Velocity":52,"Duration":394736,"SoundDuration":394736,"Delta":112481254},{"NoteNumber":88,"Velocity":69,"Duration":131579,"SoundDuration":131579,"Delta":112875991},{"NoteNumber":42,"Velocity":55,"Duration":131579,"SoundDuration":131579,"Delta":112875991},{"NoteNumber":81,"Velocity":71,"Duration":397687,"SoundDuration":397687,"Delta":113007570},{"NoteNumber":87,"Velocity":74,"Duration":397687,"SoundDuration":397687,"Delta":113007570},{"NoteNumber":47,"Velocity":60,"Duration":397687,"SoundDuration":397687,"Delta":113007570},{"NoteNumber":95,"Velocity":73,"Duration":140186,"SoundDuration":140186,"Delta":113405257},{"NoteNumber":35,"Velocity":59,"Duration":140186,"SoundDuration":140186,"Delta":113405257},{"NoteNumber":92,"Velocity":81,"Duration":791874,"SoundDuration":791874,"Delta":113545444},{"NoteNumber":80,"Velocity":81,"Duration":791874,"SoundDuration":791874,"Delta":113545444},{"NoteNumber":40,"Velocity":70,"Duration":267857,"SoundDuration":267857,"Delta":113545444},{"NoteNumber":47,"Velocity":64,"Duration":393012,"SoundDuration":393012,"Delta":113813302},{"NoteNumber":52,"Velocity":62,"Duration":131004,"SoundDuration":131004,"Delta":114206314},{"NoteNumber":56,"Velocity":70,"Duration":396537,"SoundDuration":396537,"Delta":114337319},{"NoteNumber":59,"Velocity":64,"Duration":134529,"SoundDuration":134529,"Delta":114733856},{"NoteNumber":69,"Velocity":57,"Duration":789473,"SoundDuration":789473,"Delta":114868385},{"NoteNumber":71,"Velocity":68,"Duration":263158,"SoundDuration":263158,"Delta":114868385},{"NoteNumber":59,"Velocity":45,"Duration":1321690,"SoundDuration":1321690,"Delta":114868385},{"NoteNumber":63,"Velocity":53,"Duration":263158,"SoundDuration":263158,"Delta":114868385},{"NoteNumber":73,"Velocity":62,"Duration":394736,"SoundDuration":394736,"Delta":115131543},{"NoteNumber":64,"Velocity":50,"Duration":394736,"SoundDuration":394736,"Delta":115131543},{"NoteNumber":75,"Velocity":66,"Duration":131579,"SoundDuration":131579,"Delta":115526280},{"NoteNumber":66,"Velocity":48,"Duration":131579,"SoundDuration":131579,"Delta":115526280},{"NoteNumber":69,"Velocity":59,"Duration":532216,"SoundDuration":532216,"Delta":115657859},{"NoteNumber":71,"Velocity":70,"Duration":397687,"SoundDuration":397687,"Delta":115657859},{"NoteNumber":63,"Velocity":53,"Duration":397687,"SoundDuration":397687,"Delta":115657859},{"NoteNumber":80,"Velocity":65,"Duration":134529,"SoundDuration":134529,"Delta":116055547},{"NoteNumber":66,"Velocity":51,"Duration":134529,"SoundDuration":134529,"Delta":116055547},{"NoteNumber":71,"Velocity":57,"Duration":791823,"SoundDuration":791823,"Delta":116190076},{"NoteNumber":76,"Velocity":68,"Duration":791823,"SoundDuration":791823,"Delta":116190076},{"NoteNumber":68,"Velocity":52,"Duration":791823,"SoundDuration":791823,"Delta":116190076},{"NoteNumber":64,"Velocity":52,"Duration":263158,"SoundDuration":263158,"Delta":116190076},{"NoteNumber":63,"Velocity":51,"Duration":394736,"SoundDuration":394736,"Delta":116453234},{"NoteNumber":62,"Velocity":47,"Duration":133928,"SoundDuration":133928,"Delta":116847971},{"NoteNumber":61,"Velocity":49,"Duration":406105,"SoundDuration":406105,"Delta":116981899},{"NoteNumber":60,"Velocity":51,"Duration":138248,"SoundDuration":138248,"Delta":117388005},{"NoteNumber":57,"Velocity":51,"Duration":796586,"SoundDuration":796586,"Delta":117526254},{"NoteNumber":59,"Velocity":61,"Duration":263158,"SoundDuration":263158,"Delta":117526254},{"NoteNumber":47,"Velocity":40,"Duration":1379124,"SoundDuration":1379124,"Delta":117526254},{"NoteNumber":51,"Velocity":47,"Duration":263158,"SoundDuration":263158,"Delta":117526254},{"NoteNumber":61,"Velocity":55,"Duration":398293,"SoundDuration":398293,"Delta":117789412},{"NoteNumber":52,"Velocity":45,"Duration":398293,"SoundDuration":398293,"Delta":117789412},{"NoteNumber":63,"Velocity":59,"Duration":135135,"SoundDuration":135135,"Delta":118187705},{"NoteNumber":54,"Velocity":43,"Duration":135135,"SoundDuration":135135,"Delta":118187705},{"NoteNumber":57,"Velocity":53,"Duration":582537,"SoundDuration":582537,"Delta":118322840},{"NoteNumber":59,"Velocity":63,"Duration":289855,"SoundDuration":289855,"Delta":118322840},{"NoteNumber":51,"Velocity":47,"Duration":436196,"SoundDuration":436196,"Delta":118322840},{"NoteNumber":68,"Velocity":56,"Duration":292682,"SoundDuration":292682,"Delta":118612695},{"NoteNumber":54,"Velocity":42,"Duration":146341,"SoundDuration":146341,"Delta":118759037},{"NoteNumber":59,"Velocity":58,"Duration":298507,"SoundDuration":298507,"Delta":118905378},{"NoteNumber":64,"Velocity":58,"Duration":298507,"SoundDuration":298507,"Delta":118905378},{"NoteNumber":52,"Velocity":45,"Duration":298507,"SoundDuration":298507,"Delta":118905378},{"NoteNumber":56,"Velocity":45,"Duration":298507,"SoundDuration":298507,"Delta":118905378},{"NoteNumber":76,"Velocity":74,"Duration":535713,"SoundDuration":535713,"Delta":119203886},{"NoteNumber":80,"Velocity":74,"Duration":535713,"SoundDuration":535713,"Delta":119203886},{"NoteNumber":88,"Velocity":87,"Duration":535713,"SoundDuration":535713,"Delta":119203886},{"NoteNumber":40,"Velocity":50,"Duration":535713,"SoundDuration":535713,"Delta":119203886},{"NoteNumber":52,"Velocity":59,"Duration":535713,"SoundDuration":535713,"Delta":119203886},{"NoteNumber":66,"Velocity":50,"Duration":263158,"SoundDuration":263158,"Delta":120275314},{"NoteNumber":69,"Velocity":60,"Duration":263158,"SoundDuration":263158,"Delta":120275314},{"NoteNumber":59,"Velocity":44,"Duration":263158,"SoundDuration":263158,"Delta":120275314},{"NoteNumber":66,"Velocity":47,"Duration":394736,"SoundDuration":394736,"Delta":120538472},{"NoteNumber":69,"Velocity":56,"Duration":394736,"SoundDuration":394736,"Delta":120538472},{"NoteNumber":59,"Velocity":40,"Duration":394736,"SoundDuration":394736,"Delta":120538472},{"NoteNumber":64,"Velocity":44,"Duration":131579,"SoundDuration":131579,"Delta":120933209},{"NoteNumber":73,"Velocity":52,"Duration":131579,"SoundDuration":131579,"Delta":120933209},{"NoteNumber":59,"Velocity":40,"Duration":131579,"SoundDuration":131579,"Delta":120933209},{"NoteNumber":63,"Velocity":47,"Duration":397687,"SoundDuration":397687,"Delta":121064788},{"NoteNumber":71,"Velocity":56,"Duration":397687,"SoundDuration":397687,"Delta":121064788},{"NoteNumber":59,"Velocity":44,"Duration":397687,"SoundDuration":397687,"Delta":121064788},{"NoteNumber":67,"Velocity":51,"Duration":134529,"SoundDuration":134529,"Delta":121462475},{"NoteNumber":63,"Velocity":42,"Duration":134529,"SoundDuration":134529,"Delta":121462475},{"NoteNumber":59,"Velocity":40,"Duration":134529,"SoundDuration":134529,"Delta":121462475},{"NoteNumber":64,"Velocity":47,"Duration":263158,"SoundDuration":263158,"Delta":121597004},{"NoteNumber":68,"Velocity":56,"Duration":263158,"SoundDuration":263158,"Delta":121597004},{"NoteNumber":59,"Velocity":44,"Duration":263158,"SoundDuration":263158,"Delta":121597004},{"NoteNumber":68,"Velocity":49,"Duration":394736,"SoundDuration":394736,"Delta":121860162},{"NoteNumber":71,"Velocity":58,"Duration":394736,"SoundDuration":394736,"Delta":121860162},{"NoteNumber":59,"Velocity":40,"Duration":394736,"SoundDuration":394736,"Delta":121860162},{"NoteNumber":80,"Velocity":58,"Duration":131579,"SoundDuration":131579,"Delta":122254899},{"NoteNumber":76,"Velocity":48,"Duration":131579,"SoundDuration":131579,"Delta":122254899},{"NoteNumber":59,"Velocity":40,"Duration":131579,"SoundDuration":131579,"Delta":122254899},{"NoteNumber":75,"Velocity":46,"Duration":396491,"SoundDuration":396491,"Delta":122386478},{"NoteNumber":78,"Velocity":55,"Duration":396491,"SoundDuration":396491,"Delta":122386478},{"NoteNumber":59,"Velocity":44,"Duration":396491,"SoundDuration":396491,"Delta":122386478},{"NoteNumber":73,"Velocity":44,"Duration":133333,"SoundDuration":133333,"Delta":122782970},{"NoteNumber":76,"Velocity":52,"Duration":133333,"SoundDuration":133333,"Delta":122782970},{"NoteNumber":59,"Velocity":40,"Duration":133333,"SoundDuration":133333,"Delta":122782970},{"NoteNumber":71,"Velocity":47,"Duration":87719,"SoundDuration":87719,"Delta":122916303},{"NoteNumber":75,"Velocity":56,"Duration":87719,"SoundDuration":87719,"Delta":122916303},{"NoteNumber":59,"Velocity":44,"Duration":263158,"SoundDuration":263158,"Delta":122916303},{"NoteNumber":73,"Velocity":40,"Duration":87719,"SoundDuration":87719,"Delta":123004022},{"NoteNumber":76,"Velocity":48,"Duration":87719,"SoundDuration":87719,"Delta":123004022},{"NoteNumber":71,"Velocity":40,"Duration":87719,"SoundDuration":87719,"Delta":123091742},{"NoteNumber":75,"Velocity":48,"Duration":87719,"SoundDuration":87719,"Delta":123091742},{"NoteNumber":69,"Velocity":45,"Duration":394736,"SoundDuration":394736,"Delta":123179461},{"NoteNumber":73,"Velocity":53,"Duration":394736,"SoundDuration":394736,"Delta":123179461},{"NoteNumber":59,"Velocity":40,"Duration":394736,"SoundDuration":394736,"Delta":123179461},{"NoteNumber":71,"Velocity":44,"Duration":131579,"SoundDuration":131579,"Delta":123574198},{"NoteNumber":75,"Velocity":52,"Duration":131579,"SoundDuration":131579,"Delta":123574198},{"NoteNumber":59,"Velocity":40,"Duration":131579,"SoundDuration":131579,"Delta":123574198},{"NoteNumber":73,"Velocity":47,"Duration":407947,"SoundDuration":407947,"Delta":123705777},{"NoteNumber":76,"Velocity":56,"Duration":407947,"SoundDuration":407947,"Delta":123705777},{"NoteNumber":59,"Velocity":44,"Duration":407947,"SoundDuration":407947,"Delta":123705777},{"NoteNumber":69,"Velocity":44,"Duration":138888,"SoundDuration":138888,"Delta":124113724},{"NoteNumber":73,"Velocity":52,"Duration":138888,"SoundDuration":138888,"Delta":124113724},{"NoteNumber":59,"Velocity":44,"Duration":138888,"SoundDuration":138888,"Delta":124113724},{"NoteNumber":68,"Velocity":40,"Duration":797809,"SoundDuration":797809,"Delta":124252613},{"NoteNumber":71,"Velocity":48,"Duration":797809,"SoundDuration":797809,"Delta":124252613},{"NoteNumber":52,"Velocity":39,"Duration":797809,"SoundDuration":797809,"Delta":124252613},{"NoteNumber":59,"Velocity":50,"Duration":263158,"SoundDuration":263158,"Delta":124252613},{"NoteNumber":59,"Velocity":48,"Duration":398904,"SoundDuration":398904,"Delta":124515771},{"NoteNumber":64,"Velocity":49,"Duration":135746,"SoundDuration":135746,"Delta":124914676},{"NoteNumber":63,"Velocity":49,"Duration":399999,"SoundDuration":399999,"Delta":125050422},{"NoteNumber":62,"Velocity":45,"Duration":133333,"SoundDuration":133333,"Delta":125450422},{"NoteNumber":71,"Velocity":49,"Duration":270270,"SoundDuration":270270,"Delta":125583755},{"NoteNumber":77,"Velocity":56,"Duration":270270,"SoundDuration":270270,"Delta":125583755},{"NoteNumber":68,"Velocity":48,"Duration":270270,"SoundDuration":270270,"Delta":125583755},{"NoteNumber":61,"Velocity":48,"Duration":1347213,"SoundDuration":1347213,"Delta":125583755},{"NoteNumber":73,"Velocity":49,"Duration":401931,"SoundDuration":401931,"Delta":125854026},{"NoteNumber":78,"Velocity":55,"Duration":401931,"SoundDuration":401931,"Delta":125854026},{"NoteNumber":69,"Velocity":51,"Duration":401931,"SoundDuration":401931,"Delta":125854026},{"NoteNumber":74,"Velocity":55,"Duration":141509,"SoundDuration":141509,"Delta":126255958},{"NoteNumber":80,"Velocity":55,"Duration":141509,"SoundDuration":141509,"Delta":126255958},{"NoteNumber":71,"Velocity":50,"Duration":141509,"SoundDuration":141509,"Delta":126255958},{"NoteNumber":83,"Velocity":50,"Duration":92588,"SoundDuration":92588,"Delta":126326712},{"NoteNumber":77,"Velocity":49,"Duration":533501,"SoundDuration":533501,"Delta":126397467},{"NoteNumber":81,"Velocity":58,"Duration":397754,"SoundDuration":397754,"Delta":126397467},{"NoteNumber":73,"Velocity":46,"Duration":397754,"SoundDuration":397754,"Delta":126397467},{"NoteNumber":80,"Velocity":57,"Duration":135746,"SoundDuration":135746,"Delta":126795222},{"NoteNumber":71,"Velocity":48,"Duration":135746,"SoundDuration":135746,"Delta":126795222},{"NoteNumber":73,"Velocity":46,"Duration":789473,"SoundDuration":789473,"Delta":126930969},{"NoteNumber":85,"Velocity":46,"Duration":789473,"SoundDuration":789473,"Delta":126930969},{"NoteNumber":80,"Velocity":60,"Duration":263158,"SoundDuration":263158,"Delta":126930969},{"NoteNumber":66,"Velocity":39,"Duration":789473,"SoundDuration":789473,"Delta":126930969},{"NoteNumber":71,"Velocity":50,"Duration":263158,"SoundDuration":263158,"Delta":126930969},{"NoteNumber":78,"Velocity":58,"Duration":394736,"SoundDuration":394736,"Delta":127194127},{"NoteNumber":69,"Velocity":49,"Duration":394736,"SoundDuration":394736,"Delta":127194127},{"NoteNumber":77,"Velocity":50,"Duration":131579,"SoundDuration":131579,"Delta":127588864},{"NoteNumber":68,"Velocity":46,"Duration":131579,"SoundDuration":131579,"Delta":127588864},{"NoteNumber":78,"Velocity":53,"Duration":400772,"SoundDuration":400772,"Delta":127720443},{"NoteNumber":69,"Velocity":48,"Duration":400772,"SoundDuration":400772,"Delta":127720443},{"NoteNumber":69,"Velocity":55,"Duration":137614,"SoundDuration":137614,"Delta":128121215},{"NoteNumber":72,"Velocity":55,"Duration":137614,"SoundDuration":137614,"Delta":128121215},{"NoteNumber":64,"Velocity":46,"Duration":137614,"SoundDuration":137614,"Delta":128121215},{"NoteNumber":69,"Velocity":47,"Duration":789474,"SoundDuration":789474,"Delta":128258830},{"NoteNumber":71,"Velocity":57,"Duration":263158,"SoundDuration":263158,"Delta":128258830},{"NoteNumber":59,"Velocity":37,"Duration":789474,"SoundDuration":789474,"Delta":128258830},{"NoteNumber":63,"Velocity":49,"Duration":263158,"SoundDuration":263158,"Delta":128258830},{"NoteNumber":77,"Velocity":58,"Duration":394736,"SoundDuration":394736,"Delta":128521988},{"NoteNumber":62,"Velocity":49,"Duration":394736,"SoundDuration":394736,"Delta":128521988},{"NoteNumber":78,"Velocity":59,"Duration":131579,"SoundDuration":131579,"Delta":128916725},{"NoteNumber":63,"Velocity":49,"Duration":131579,"SoundDuration":131579,"Delta":128916725},{"NoteNumber":81,"Velocity":61,"Duration":405337,"SoundDuration":405337,"Delta":129048304},{"NoteNumber":59,"Velocity":37,"Duration":547517,"SoundDuration":547517,"Delta":129048304},{"NoteNumber":73,"Velocity":46,"Duration":405337,"SoundDuration":405337,"Delta":129048304},{"NoteNumber":80,"Velocity":57,"Duration":142179,"SoundDuration":142179,"Delta":129453642},{"NoteNumber":71,"Velocity":48,"Duration":142179,"SoundDuration":142179,"Delta":129453642},{"NoteNumber":71,"Velocity":38,"Duration":1226817,"SoundDuration":1226817,"Delta":129595822},{"NoteNumber":83,"Velocity":42,"Duration":1085971,"SoundDuration":1085971,"Delta":129595822},{"NoteNumber":78,"Velocity":55,"Duration":271492,"SoundDuration":271492,"Delta":129595822},{"NoteNumber":69,"Velocity":46,"Duration":271492,"SoundDuration":271492,"Delta":129595822},{"NoteNumber":64,"Velocity":34,"Duration":1226817,"SoundDuration":1226817,"Delta":129595822},{"NoteNumber":76,"Velocity":52,"Duration":407239,"SoundDuration":407239,"Delta":129867315},{"NoteNumber":68,"Velocity":45,"Duration":407239,"SoundDuration":407239,"Delta":129867315},{"NoteNumber":75,"Velocity":50,"Duration":135746,"SoundDuration":135746,"Delta":130274555},{"NoteNumber":67,"Velocity":41,"Duration":135746,"SoundDuration":135746,"Delta":130274555},{"NoteNumber":76,"Velocity":50,"Duration":271492,"SoundDuration":271492,"Delta":130403514},{"NoteNumber":68,"Velocity":37,"Duration":271492,"SoundDuration":271492,"Delta":130410301},{"NoteNumber":68,"Velocity":58,"Duration":140844,"SoundDuration":140844,"Delta":130822639},{"NoteNumber":65,"Velocity":49,"Duration":140844,"SoundDuration":140844,"Delta":130822639},{"NoteNumber":66,"Velocity":50,"Duration":258620,"SoundDuration":258620,"Delta":130963484},{"NoteNumber":69,"Velocity":60,"Duration":258620,"SoundDuration":258620,"Delta":130963484},{"NoteNumber":59,"Velocity":44,"Duration":258620,"SoundDuration":258620,"Delta":130963484},{"NoteNumber":66,"Velocity":47,"Duration":394736,"SoundDuration":394736,"Delta":131222105},{"NoteNumber":69,"Velocity":56,"Duration":394736,"SoundDuration":394736,"Delta":131222105},{"NoteNumber":59,"Velocity":40,"Duration":394736,"SoundDuration":394736,"Delta":131222105},{"NoteNumber":64,"Velocity":44,"Duration":131579,"SoundDuration":131579,"Delta":131616842},{"NoteNumber":73,"Velocity":52,"Duration":131579,"SoundDuration":131579,"Delta":131616842},{"NoteNumber":59,"Velocity":40,"Duration":131579,"SoundDuration":131579,"Delta":131616842},{"NoteNumber":63,"Velocity":47,"Duration":397687,"SoundDuration":397687,"Delta":131748421},{"NoteNumber":71,"Velocity":56,"Duration":397687,"SoundDuration":397687,"Delta":131748421},{"NoteNumber":59,"Velocity":44,"Duration":397687,"SoundDuration":397687,"Delta":131748421},{"NoteNumber":67,"Velocity":51,"Duration":134529,"SoundDuration":134529,"Delta":132146108},{"NoteNumber":63,"Velocity":42,"Duration":134529,"SoundDuration":134529,"Delta":132146108},{"NoteNumber":59,"Velocity":40,"Duration":134529,"SoundDuration":134529,"Delta":132146108},{"NoteNumber":64,"Velocity":47,"Duration":258620,"SoundDuration":258620,"Delta":132280637},{"NoteNumber":68,"Velocity":56,"Duration":258620,"SoundDuration":258620,"Delta":132280637},{"NoteNumber":59,"Velocity":44,"Duration":258620,"SoundDuration":258620,"Delta":132280637},{"NoteNumber":68,"Velocity":49,"Duration":394736,"SoundDuration":394736,"Delta":132539258},{"NoteNumber":71,"Velocity":58,"Duration":394736,"SoundDuration":394736,"Delta":132539258},{"NoteNumber":59,"Velocity":40,"Duration":394736,"SoundDuration":394736,"Delta":132539258},{"NoteNumber":80,"Velocity":60,"Duration":131579,"SoundDuration":131579,"Delta":132933995},{"NoteNumber":76,"Velocity":50,"Duration":131579,"SoundDuration":131579,"Delta":132933995},{"NoteNumber":59,"Velocity":40,"Duration":131579,"SoundDuration":131579,"Delta":132933995},{"NoteNumber":75,"Velocity":46,"Duration":396491,"SoundDuration":396491,"Delta":133065574},{"NoteNumber":78,"Velocity":55,"Duration":396491,"SoundDuration":396491,"Delta":133065574},{"NoteNumber":59,"Velocity":44,"Duration":396491,"SoundDuration":396491,"Delta":133065574},{"NoteNumber":73,"Velocity":44,"Duration":133333,"SoundDuration":133333,"Delta":133462065},{"NoteNumber":76,"Velocity":52,"Duration":133333,"SoundDuration":133333,"Delta":133462065},{"NoteNumber":59,"Velocity":40,"Duration":133333,"SoundDuration":133333,"Delta":133462065},{"NoteNumber":71,"Velocity":47,"Duration":86580,"SoundDuration":86580,"Delta":133595398},{"NoteNumber":75,"Velocity":56,"Duration":86580,"SoundDuration":86580,"Delta":133595398},{"NoteNumber":59,"Velocity":44,"Duration":259740,"SoundDuration":259740,"Delta":133595398},{"NoteNumber":73,"Velocity":40,"Duration":86580,"SoundDuration":86580,"Delta":133681978},{"NoteNumber":76,"Velocity":48,"Duration":86580,"SoundDuration":86580,"Delta":133681978},{"NoteNumber":71,"Velocity":40,"Duration":86580,"SoundDuration":86580,"Delta":133768559},{"NoteNumber":75,"Velocity":48,"Duration":86580,"SoundDuration":86580,"Delta":133768559},{"NoteNumber":69,"Velocity":45,"Duration":394736,"SoundDuration":394736,"Delta":133855139},{"NoteNumber":73,"Velocity":53,"Duration":394736,"SoundDuration":394736,"Delta":133855139},{"NoteNumber":59,"Velocity":40,"Duration":394736,"SoundDuration":394736,"Delta":133855139},{"NoteNumber":71,"Velocity":44,"Duration":131579,"SoundDuration":131579,"Delta":134249876},{"NoteNumber":75,"Velocity":52,"Duration":131579,"SoundDuration":131579,"Delta":134249876},{"NoteNumber":59,"Velocity":40,"Duration":131579,"SoundDuration":131579,"Delta":134249876},{"NoteNumber":73,"Velocity":47,"Duration":407947,"SoundDuration":407947,"Delta":134381455},{"NoteNumber":76,"Velocity":56,"Duration":407947,"SoundDuration":407947,"Delta":134381455},{"NoteNumber":59,"Velocity":44,"Duration":407947,"SoundDuration":407947,"Delta":134381455},{"NoteNumber":69,"Velocity":44,"Duration":138889,"SoundDuration":138889,"Delta":134789402},{"NoteNumber":73,"Velocity":52,"Duration":138889,"SoundDuration":138889,"Delta":134789402},{"NoteNumber":59,"Velocity":44,"Duration":138889,"SoundDuration":138889,"Delta":134789402},{"NoteNumber":68,"Velocity":40,"Duration":797809,"SoundDuration":797809,"Delta":134928291},{"NoteNumber":71,"Velocity":48,"Duration":797809,"SoundDuration":797809,"Delta":134928291},{"NoteNumber":52,"Velocity":50,"Duration":263158,"SoundDuration":263158,"Delta":134928291},{"NoteNumber":59,"Velocity":48,"Duration":398904,"SoundDuration":398904,"Delta":135191449},{"NoteNumber":64,"Velocity":51,"Duration":135746,"SoundDuration":135746,"Delta":135590354},{"NoteNumber":68,"Velocity":54,"Duration":399999,"SoundDuration":399999,"Delta":135726100},{"NoteNumber":71,"Velocity":55,"Duration":133333,"SoundDuration":133333,"Delta":136126100},{"NoteNumber":76,"Velocity":53,"Duration":784936,"SoundDuration":784936,"Delta":136259433},{"NoteNumber":81,"Velocity":65,"Duration":258620,"SoundDuration":258620,"Delta":136259433},{"NoteNumber":72,"Velocity":59,"Duration":1319906,"SoundDuration":1319906,"Delta":136259433},{"NoteNumber":70,"Velocity":49,"Duration":784936,"SoundDuration":784936,"Delta":136259433},{"NoteNumber":79,"Velocity":61,"Duration":394736,"SoundDuration":394736,"Delta":136518054},{"NoteNumber":81,"Velocity":61,"Duration":131579,"SoundDuration":131579,"Delta":136912791},{"NoteNumber":84,"Velocity":57,"Duration":397355,"SoundDuration":397355,"Delta":137044370},{"NoteNumber":69,"Velocity":55,"Duration":534969,"SoundDuration":534969,"Delta":137044370},{"NoteNumber":79,"Velocity":51,"Duration":534942,"SoundDuration":534942,"Delta":137050863},{"NoteNumber":77,"Velocity":50,"Duration":137614,"SoundDuration":137614,"Delta":137441725},{"NoteNumber":75,"Velocity":48,"Duration":789635,"SoundDuration":789635,"Delta":137579340},{"NoteNumber":80,"Velocity":57,"Duration":258620,"SoundDuration":258620,"Delta":137579340},{"NoteNumber":69,"Velocity":41,"Duration":789635,"SoundDuration":789635,"Delta":137579340},{"NoteNumber":71,"Velocity":49,"Duration":1332722,"SoundDuration":1332722,"Delta":137579340},{"NoteNumber":78,"Velocity":51,"Duration":397086,"SoundDuration":397086,"Delta":137837960},{"NoteNumber":80,"Velocity":51,"Duration":133928,"SoundDuration":133928,"Delta":138235047},{"NoteNumber":78,"Velocity":44,"Duration":543086,"SoundDuration":543086,"Delta":138368975},{"NoteNumber":83,"Velocity":47,"Duration":405471,"SoundDuration":405471,"Delta":138368975},{"NoteNumber":68,"Velocity":46,"Duration":543086,"SoundDuration":543086,"Delta":138368975},{"NoteNumber":76,"Velocity":50,"Duration":137614,"SoundDuration":137614,"Delta":138774447},{"NoteNumber":74,"Velocity":49,"Duration":270270,"SoundDuration":270270,"Delta":138912062},{"NoteNumber":77,"Velocity":56,"Duration":270270,"SoundDuration":270270,"Delta":138912062},{"NoteNumber":71,"Velocity":48,"Duration":270270,"SoundDuration":270270,"Delta":138912062},{"NoteNumber":73,"Velocity":49,"Duration":401931,"SoundDuration":401931,"Delta":139182332},{"NoteNumber":78,"Velocity":55,"Duration":401931,"SoundDuration":401931,"Delta":139182332},{"NoteNumber":69,"Velocity":51,"Duration":401931,"SoundDuration":401931,"Delta":139182332},{"NoteNumber":74,"Velocity":55,"Duration":141509,"SoundDuration":141509,"Delta":139584264},{"NoteNumber":80,"Velocity":55,"Duration":141509,"SoundDuration":141509,"Delta":139584264},{"NoteNumber":65,"Velocity":55,"Duration":141509,"SoundDuration":141509,"Delta":139584264},{"NoteNumber":73,"Velocity":48,"Duration":533501,"SoundDuration":533501,"Delta":139725774},{"NoteNumber":81,"Velocity":58,"Duration":533501,"SoundDuration":533501,"Delta":139725774},{"NoteNumber":66,"Velocity":44,"Duration":533501,"SoundDuration":533501,"Delta":139725774},{"NoteNumber":75,"Velocity":50,"Duration":263158,"SoundDuration":263158,"Delta":140259275},{"NoteNumber":78,"Velocity":60,"Duration":263158,"SoundDuration":263158,"Delta":140259275},{"NoteNumber":69,"Velocity":50,"Duration":263158,"SoundDuration":263158,"Delta":140259275},{"NoteNumber":59,"Velocity":39,"Duration":789474,"SoundDuration":789474,"Delta":140259275},{"NoteNumber":75,"Velocity":49,"Duration":394736,"SoundDuration":394736,"Delta":140522433},{"NoteNumber":81,"Velocity":58,"Duration":394736,"SoundDuration":394736,"Delta":140522433},{"NoteNumber":73,"Velocity":55,"Duration":394736,"SoundDuration":394736,"Delta":140522433},{"NoteNumber":75,"Velocity":45,"Duration":131579,"SoundDuration":131579,"Delta":140917170},{"NoteNumber":80,"Velocity":53,"Duration":131579,"SoundDuration":131579,"Delta":140917170},{"NoteNumber":71,"Velocity":42,"Duration":131579,"SoundDuration":131579,"Delta":140917170},{"NoteNumber":71,"Velocity":42,"Duration":544287,"SoundDuration":544287,"Delta":141048749},{"NoteNumber":76,"Velocity":55,"Duration":544287,"SoundDuration":544287,"Delta":141048749},{"NoteNumber":64,"Velocity":36,"Duration":541994,"SoundDuration":541994,"Delta":141048749},{"NoteNumber":68,"Velocity":47,"Duration":544287,"SoundDuration":544287,"Delta":141048749},{"NoteNumber":64,"Velocity":42,"Duration":260869,"SoundDuration":260869,"Delta":141593037},{"NoteNumber":67,"Velocity":51,"Duration":260869,"SoundDuration":260869,"Delta":141593037},{"NoteNumber":60,"Velocity":37,"Duration":260869,"SoundDuration":260869,"Delta":141593037},{"NoteNumber":62,"Velocity":39,"Duration":394736,"SoundDuration":394736,"Delta":141853907},{"NoteNumber":67,"Velocity":47,"Duration":394736,"SoundDuration":394736,"Delta":141853907},{"NoteNumber":59,"Velocity":34,"Duration":394736,"SoundDuration":394736,"Delta":141853907},{"NoteNumber":64,"Velocity":37,"Duration":131579,"SoundDuration":131579,"Delta":142248644},{"NoteNumber":67,"Velocity":44,"Duration":131579,"SoundDuration":131579,"Delta":142248644},{"NoteNumber":60,"Velocity":34,"Duration":131579,"SoundDuration":131579,"Delta":142248644},{"NoteNumber":62,"Velocity":39,"Duration":397687,"SoundDuration":397687,"Delta":142380223},{"NoteNumber":67,"Velocity":47,"Duration":397687,"SoundDuration":397687,"Delta":142380223},{"NoteNumber":59,"Velocity":37,"Duration":397687,"SoundDuration":397687,"Delta":142380223},{"NoteNumber":72,"Velocity":43,"Duration":140845,"SoundDuration":140845,"Delta":142777910},{"NoteNumber":74,"Velocity":43,"Duration":140845,"SoundDuration":140845,"Delta":142777910},{"NoteNumber":66,"Velocity":35,"Duration":140845,"SoundDuration":140845,"Delta":142777910},{"NoteNumber":57,"Velocity":41,"Duration":140845,"SoundDuration":140845,"Delta":142777910},{"NoteNumber":67,"Velocity":52,"Duration":259740,"SoundDuration":259740,"Delta":142918755},{"NoteNumber":71,"Velocity":52,"Duration":259740,"SoundDuration":259740,"Delta":142918755},{"NoteNumber":74,"Velocity":64,"Duration":259740,"SoundDuration":259740,"Delta":142918755},{"NoteNumber":55,"Velocity":50,"Duration":259740,"SoundDuration":259740,"Delta":142918755},{"NoteNumber":69,"Velocity":48,"Duration":394736,"SoundDuration":394736,"Delta":143178495},{"NoteNumber":71,"Velocity":48,"Duration":394736,"SoundDuration":394736,"Delta":143178495},{"NoteNumber":75,"Velocity":58,"Duration":394736,"SoundDuration":394736,"Delta":143178495},{"NoteNumber":54,"Velocity":45,"Duration":394736,"SoundDuration":394736,"Delta":143178495},{"NoteNumber":68,"Velocity":46,"Duration":131579,"SoundDuration":131579,"Delta":143573232},{"NoteNumber":71,"Velocity":46,"Duration":131579,"SoundDuration":131579,"Delta":143573232},{"NoteNumber":76,"Velocity":55,"Duration":131579,"SoundDuration":131579,"Delta":143573232},{"NoteNumber":52,"Velocity":44,"Duration":131579,"SoundDuration":131579,"Delta":143573232},{"NoteNumber":71,"Velocity":48,"Duration":397687,"SoundDuration":397687,"Delta":143704811},{"NoteNumber":77,"Velocity":48,"Duration":397687,"SoundDuration":397687,"Delta":143704811},{"NoteNumber":80,"Velocity":58,"Duration":397687,"SoundDuration":397687,"Delta":143704811},{"NoteNumber":50,"Velocity":48,"Duration":397687,"SoundDuration":397687,"Delta":143704811},{"NoteNumber":83,"Velocity":58,"Duration":134529,"SoundDuration":134529,"Delta":144102499},{"NoteNumber":47,"Velocity":47,"Duration":134529,"SoundDuration":134529,"Delta":144102499},{"NoteNumber":76,"Velocity":68,"Duration":260869,"SoundDuration":260869,"Delta":144237028},{"NoteNumber":81,"Velocity":71,"Duration":260869,"SoundDuration":260869,"Delta":144237028},{"NoteNumber":48,"Velocity":55,"Duration":260869,"SoundDuration":260869,"Delta":144237028},{"NoteNumber":84,"Velocity":65,"Duration":394736,"SoundDuration":394736,"Delta":144497897},{"NoteNumber":45,"Velocity":52,"Duration":394736,"SoundDuration":394736,"Delta":144497897},{"NoteNumber":88,"Velocity":69,"Duration":131579,"SoundDuration":131579,"Delta":144892634},{"NoteNumber":42,"Velocity":55,"Duration":131579,"SoundDuration":131579,"Delta":144892634},{"NoteNumber":81,"Velocity":71,"Duration":397687,"SoundDuration":397687,"Delta":145024213},{"NoteNumber":87,"Velocity":74,"Duration":397687,"SoundDuration":397687,"Delta":145024213},{"NoteNumber":47,"Velocity":60,"Duration":397687,"SoundDuration":397687,"Delta":145024213},{"NoteNumber":95,"Velocity":73,"Duration":140186,"SoundDuration":140186,"Delta":145421901},{"NoteNumber":35,"Velocity":59,"Duration":140186,"SoundDuration":140186,"Delta":145421901},{"NoteNumber":92,"Velocity":81,"Duration":791873,"SoundDuration":791873,"Delta":145562088},{"NoteNumber":80,"Velocity":81,"Duration":791873,"SoundDuration":791873,"Delta":145562088},{"NoteNumber":40,"Velocity":70,"Duration":267856,"SoundDuration":267856,"Delta":145562088},{"NoteNumber":47,"Velocity":64,"Duration":393012,"SoundDuration":393012,"Delta":145829945},{"NoteNumber":52,"Velocity":62,"Duration":131004,"SoundDuration":131004,"Delta":146222957},{"NoteNumber":56,"Velocity":70,"Duration":396537,"SoundDuration":396537,"Delta":146353962},{"NoteNumber":59,"Velocity":64,"Duration":134529,"SoundDuration":134529,"Delta":146750499},{"NoteNumber":69,"Velocity":57,"Duration":786056,"SoundDuration":786056,"Delta":146885029},{"NoteNumber":71,"Velocity":68,"Duration":259740,"SoundDuration":259740,"Delta":146885029},{"NoteNumber":59,"Velocity":45,"Duration":1318273,"SoundDuration":1318273,"Delta":146885029},{"NoteNumber":63,"Velocity":53,"Duration":259740,"SoundDuration":259740,"Delta":146885029},{"NoteNumber":73,"Velocity":62,"Duration":394736,"SoundDuration":394736,"Delta":147144769},{"NoteNumber":64,"Velocity":50,"Duration":394736,"SoundDuration":394736,"Delta":147144769},{"NoteNumber":75,"Velocity":66,"Duration":131579,"SoundDuration":131579,"Delta":147539506},{"NoteNumber":66,"Velocity":48,"Duration":131579,"SoundDuration":131579,"Delta":147539506},{"NoteNumber":69,"Velocity":59,"Duration":532216,"SoundDuration":532216,"Delta":147671085},{"NoteNumber":71,"Velocity":70,"Duration":397687,"SoundDuration":397687,"Delta":147671085},{"NoteNumber":63,"Velocity":53,"Duration":397687,"SoundDuration":397687,"Delta":147671085},{"NoteNumber":80,"Velocity":65,"Duration":134529,"SoundDuration":134529,"Delta":148068772},{"NoteNumber":66,"Velocity":51,"Duration":134529,"SoundDuration":134529,"Delta":148068772},{"NoteNumber":71,"Velocity":57,"Duration":787285,"SoundDuration":787285,"Delta":148203302},{"NoteNumber":76,"Velocity":68,"Duration":787285,"SoundDuration":787285,"Delta":148203302},{"NoteNumber":64,"Velocity":52,"Duration":258620,"SoundDuration":258620,"Delta":148203302},{"NoteNumber":68,"Velocity":52,"Duration":787285,"SoundDuration":787285,"Delta":148203302},{"NoteNumber":63,"Velocity":51,"Duration":394736,"SoundDuration":394736,"Delta":148461922},{"NoteNumber":62,"Velocity":47,"Duration":133928,"SoundDuration":133928,"Delta":148856659},{"NoteNumber":61,"Velocity":49,"Duration":406105,"SoundDuration":406105,"Delta":148990588},{"NoteNumber":60,"Velocity":51,"Duration":138248,"SoundDuration":138248,"Delta":149396693},{"NoteNumber":57,"Velocity":51,"Duration":796586,"SoundDuration":796586,"Delta":149534942},{"NoteNumber":59,"Velocity":61,"Duration":263158,"SoundDuration":263158,"Delta":149534942},{"NoteNumber":51,"Velocity":47,"Duration":263158,"SoundDuration":263158,"Delta":149534942},{"NoteNumber":47,"Velocity":40,"Duration":1376296,"SoundDuration":1376296,"Delta":149534942},{"NoteNumber":61,"Velocity":55,"Duration":398293,"SoundDuration":398293,"Delta":149798100},{"NoteNumber":52,"Velocity":45,"Duration":398293,"SoundDuration":398293,"Delta":149798100},{"NoteNumber":63,"Velocity":59,"Duration":135135,"SoundDuration":135135,"Delta":150196393},{"NoteNumber":54,"Velocity":43,"Duration":135135,"SoundDuration":135135,"Delta":150196393},{"NoteNumber":57,"Velocity":53,"Duration":579709,"SoundDuration":579709,"Delta":150331529},{"NoteNumber":59,"Velocity":63,"Duration":289854,"SoundDuration":289854,"Delta":150331529},{"NoteNumber":51,"Velocity":47,"Duration":434782,"SoundDuration":434782,"Delta":150331529},{"NoteNumber":68,"Velocity":56,"Duration":289854,"SoundDuration":289854,"Delta":150621384},{"NoteNumber":54,"Velocity":42,"Duration":144927,"SoundDuration":144927,"Delta":150766311},{"NoteNumber":59,"Velocity":58,"Duration":300000,"SoundDuration":300000,"Delta":150911239},{"NoteNumber":64,"Velocity":58,"Duration":300000,"SoundDuration":300000,"Delta":150911239},{"NoteNumber":52,"Velocity":45,"Duration":300000,"SoundDuration":300000,"Delta":150911239},{"NoteNumber":56,"Velocity":45,"Duration":300000,"SoundDuration":300000,"Delta":150911239},{"NoteNumber":76,"Velocity":77,"Duration":615385,"SoundDuration":615385,"Delta":151211239},{"NoteNumber":80,"Velocity":77,"Duration":615385,"SoundDuration":615385,"Delta":151211239},{"NoteNumber":88,"Velocity":91,"Duration":615385,"SoundDuration":615385,"Delta":151211239},{"NoteNumber":40,"Velocity":52,"Duration":615385,"SoundDuration":615385,"Delta":151211239},{"NoteNumber":52,"Velocity":61,"Duration":615385,"SoundDuration":615385,"Delta":151211239}],"license":{"name":"Creative Commons Attribution-ShareAlike 3.0 Germany","url":"http://creativecommons.org/licenses/by-sa/3.0/de/deed.en","text":"The MIDI, audio (MP3, OGG) and video files of Bernd Krueger are licensed under the cc-by-sa Germany License. This means that you can use and adapt the files, as long as you attribute the copyright holder.\n\nName: Bernd Krueger\nSource: http://www.piano-midi.de\n\nThe distribution or public playback of the files is only allowed under identical license conditions.\n\nThe scores are open source.","attribution":"MIDI files by Bernd Krueger (piano-midi.de)","attributionUrl":"http://www.piano-midi.de"}}