{"title":"Étincelles, Op. 36 No. 6","artist":"Moszkowski","durationMs":149184,"midiSha256":"fe6c8b5733e8e4a1a2a6d02efe2a2d169a70ab445570b433623554d5a3828956","midiObject":[{"NoteNumber":82,"Velocity":60,"Duration":62500,"SoundDuration":62500,"Delta":0},{"NoteNumber":82,"Velocity":57,"Duration":64377,"SoundDuration":64377,"Delta":125000},{"NoteNumber":77,"Velocity":51,"Duration":64935,"SoundDuration":64935,"Delta":253755},{"NoteNumber":79,"Velocity":60,"Duration":62500,"SoundDuration":62500,"Delta":383625},{"NoteNumber":79,"Velocity":57,"Duration":63829,"SoundDuration":63829,"Delta":508625},{"NoteNumber":74,"Velocity":50,"Duration":65502,"SoundDuration":65502,"Delta":636285},{"NoteNumber":75,"Velocity":60,"Duration":63559,"SoundDuration":63559,"Delta":767289},{"NoteNumber":75,"Velocity":55,"Duration":64935,"SoundDuration":64935,"Delta":894408},{"NoteNumber":70,"Velocity":55,"Duration":64935,"SoundDuration":64935,"Delta":1024278},{"NoteNumber":72,"Velocity":60,"Duration":63829,"SoundDuration":63829,"Delta":1154148},{"NoteNumber":72,"Velocity":54,"Duration":65217,"SoundDuration":65217,"Delta":1281808},{"NoteNumber":67,"Velocity":54,"Duration":64655,"SoundDuration":64655,"Delta":1412242},{"NoteNumber":69,"Velocity":60,"Duration":64377,"SoundDuration":64377,"Delta":1541460},{"NoteNumber":65,"Velocity":51,"Duration":64102,"SoundDuration":64102,"Delta":1605838},{"NoteNumber":67,"Velocity":53,"Duration":63920,"SoundDuration":63920,"Delta":1669940},{"NoteNumber":69,"Velocity":56,"Duration":63694,"SoundDuration":63694,"Delta":1733861},{"NoteNumber":70,"Velocity":58,"Duration":63514,"SoundDuration":63514,"Delta":1797556},{"NoteNumber":72,"Velocity":60,"Duration":63291,"SoundDuration":63291,"Delta":1861070},{"NoteNumber":74,"Velocity":63,"Duration":62587,"SoundDuration":62587,"Delta":1924361},{"NoteNumber":69,"Velocity":53,"Duration":62327,"SoundDuration":62327,"Delta":1986949},{"NoteNumber":70,"Velocity":56,"Duration":62112,"SoundDuration":62112,"Delta":2049276},{"NoteNumber":72,"Velocity":58,"Duration":61898,"SoundDuration":61898,"Delta":2111388},{"NoteNumber":74,"Velocity":61,"Duration":61686,"SoundDuration":61686,"Delta":2173286},{"NoteNumber":75,"Velocity":64,"Duration":61475,"SoundDuration":61475,"Delta":2234973},{"NoteNumber":77,"Velocity":66,"Duration":61224,"SoundDuration":61224,"Delta":2296448},{"NoteNumber":74,"Velocity":57,"Duration":61224,"SoundDuration":61224,"Delta":2357673},{"NoteNumber":75,"Velocity":60,"Duration":61224,"SoundDuration":61224,"Delta":2418897},{"NoteNumber":77,"Velocity":62,"Duration":61224,"SoundDuration":61224,"Delta":2480122},{"NoteNumber":79,"Velocity":65,"Duration":61224,"SoundDuration":61224,"Delta":2541346},{"NoteNumber":81,"Velocity":67,"Duration":61224,"SoundDuration":61224,"Delta":2602571},{"NoteNumber":82,"Velocity":70,"Duration":61476,"SoundDuration":61476,"Delta":2663795},{"NoteNumber":77,"Velocity":65,"Duration":62069,"SoundDuration":62069,"Delta":2725271},{"NoteNumber":79,"Velocity":67,"Duration":62718,"SoundDuration":62718,"Delta":2787341},{"NoteNumber":81,"Velocity":69,"Duration":63336,"SoundDuration":63336,"Delta":2850059},{"NoteNumber":82,"Velocity":71,"Duration":64798,"SoundDuration":64798,"Delta":2913395},{"NoteNumber":84,"Velocity":73,"Duration":66522,"SoundDuration":66522,"Delta":2978194},{"NoteNumber":86,"Velocity":83,"Duration":62500,"SoundDuration":62500,"Delta":3044716},{"NoteNumber":86,"Velocity":57,"Duration":63829,"SoundDuration":63829,"Delta":3169716},{"NoteNumber":81,"Velocity":51,"Duration":64935,"SoundDuration":64935,"Delta":3297376},{"NoteNumber":82,"Velocity":60,"Duration":62500,"SoundDuration":62500,"Delta":3427246},{"NoteNumber":82,"Velocity":57,"Duration":63829,"SoundDuration":63829,"Delta":3552246},{"NoteNumber":77,"Velocity":50,"Duration":65217,"SoundDuration":65217,"Delta":3679905},{"NoteNumber":79,"Velocity":60,"Duration":63291,"SoundDuration":63291,"Delta":3810340},{"NoteNumber":79,"Velocity":55,"Duration":64102,"SoundDuration":64102,"Delta":3936922},{"NoteNumber":74,"Velocity":55,"Duration":65502,"SoundDuration":65502,"Delta":4065128},{"NoteNumber":76,"Velocity":60,"Duration":63829,"SoundDuration":63829,"Delta":4196132},{"NoteNumber":76,"Velocity":54,"Duration":63829,"SoundDuration":63829,"Delta":4323791},{"NoteNumber":71,"Velocity":54,"Duration":64935,"SoundDuration":64935,"Delta":4451451},{"NoteNumber":73,"Velocity":60,"Duration":65789,"SoundDuration":65789,"Delta":4581321},{"NoteNumber":69,"Velocity":51,"Duration":65597,"SoundDuration":65597,"Delta":4647111},{"NoteNumber":71,"Velocity":53,"Duration":65359,"SoundDuration":65359,"Delta":4712709},{"NoteNumber":73,"Velocity":56,"Duration":65123,"SoundDuration":65123,"Delta":4778068},{"NoteNumber":74,"Velocity":58,"Duration":64888,"SoundDuration":64888,"Delta":4843192},{"NoteNumber":76,"Velocity":60,"Duration":64655,"SoundDuration":64655,"Delta":4908080},{"NoteNumber":77,"Velocity":63,"Duration":64377,"SoundDuration":64377,"Delta":4972735},{"NoteNumber":73,"Velocity":53,"Duration":64194,"SoundDuration":64194,"Delta":5037113},{"NoteNumber":74,"Velocity":56,"Duration":63966,"SoundDuration":63966,"Delta":5101307},{"NoteNumber":76,"Velocity":58,"Duration":63739,"SoundDuration":63739,"Delta":5165273},{"NoteNumber":77,"Velocity":61,"Duration":63514,"SoundDuration":63514,"Delta":5229013},{"NoteNumber":79,"Velocity":64,"Duration":63291,"SoundDuration":63291,"Delta":5292528},{"NoteNumber":81,"Velocity":66,"Duration":63025,"SoundDuration":63025,"Delta":5355819},{"NoteNumber":76,"Velocity":57,"Duration":63025,"SoundDuration":63025,"Delta":5418844},{"NoteNumber":77,"Velocity":60,"Duration":63025,"SoundDuration":63025,"Delta":5481869},{"NoteNumber":79,"Velocity":62,"Duration":63025,"SoundDuration":63025,"Delta":5544894},{"NoteNumber":81,"Velocity":65,"Duration":63025,"SoundDuration":63025,"Delta":5607920},{"NoteNumber":83,"Velocity":67,"Duration":63025,"SoundDuration":63025,"Delta":5670945},{"NoteNumber":85,"Velocity":70,"Duration":63158,"SoundDuration":63158,"Delta":5733970},{"NoteNumber":81,"Velocity":65,"Duration":63649,"SoundDuration":63649,"Delta":5797128},{"NoteNumber":83,"Velocity":67,"Duration":64102,"SoundDuration":64102,"Delta":5860778},{"NoteNumber":85,"Velocity":69,"Duration":64609,"SoundDuration":64609,"Delta":5924881},{"NoteNumber":86,"Velocity":71,"Duration":65557,"SoundDuration":65557,"Delta":5989490},{"NoteNumber":88,"Velocity":73,"Duration":79117,"SoundDuration":79117,"Delta":6055047},{"NoteNumber":81,"Velocity":69,"Duration":71428,"SoundDuration":71428,"Delta":6134165},{"NoteNumber":89,"Velocity":80,"Duration":71428,"SoundDuration":71428,"Delta":6134165},{"NoteNumber":41,"Velocity":54,"Duration":71428,"SoundDuration":71428,"Delta":6134165},{"NoteNumber":53,"Velocity":60,"Duration":71428,"SoundDuration":71428,"Delta":6134165},{"NoteNumber":81,"Velocity":57,"Duration":69444,"SoundDuration":69444,"Delta":6277022},{"NoteNumber":89,"Velocity":65,"Duration":69444,"SoundDuration":69444,"Delta":6277022},{"NoteNumber":55,"Velocity":51,"Duration":69444,"SoundDuration":69444,"Delta":6277022},{"NoteNumber":77,"Velocity":51,"Duration":67567,"SoundDuration":67567,"Delta":6415911},{"NoteNumber":84,"Velocity":58,"Duration":67567,"SoundDuration":67567,"Delta":6415911},{"NoteNumber":57,"Velocity":45,"Duration":67567,"SoundDuration":67567,"Delta":6415911},{"NoteNumber":77,"Velocity":60,"Duration":64655,"SoundDuration":64655,"Delta":6551047},{"NoteNumber":86,"Velocity":69,"Duration":64655,"SoundDuration":64655,"Delta":6551047},{"NoteNumber":46,"Velocity":54,"Duration":64655,"SoundDuration":64655,"Delta":6551047},{"NoteNumber":58,"Velocity":54,"Duration":64655,"SoundDuration":64655,"Delta":6551047},{"NoteNumber":77,"Velocity":57,"Duration":65502,"SoundDuration":65502,"Delta":6680357},{"NoteNumber":86,"Velocity":65,"Duration":65502,"SoundDuration":65502,"Delta":6680357},{"NoteNumber":57,"Velocity":51,"Duration":65502,"SoundDuration":65502,"Delta":6680357},{"NoteNumber":74,"Velocity":50,"Duration":67264,"SoundDuration":67264,"Delta":6811361},{"NoteNumber":82,"Velocity":57,"Duration":67264,"SoundDuration":67264,"Delta":6811361},{"NoteNumber":55,"Velocity":45,"Duration":67264,"SoundDuration":67264,"Delta":6811361},{"NoteNumber":79,"Velocity":69,"Duration":63481,"SoundDuration":63481,"Delta":6945890},{"NoteNumber":76,"Velocity":60,"Duration":63481,"SoundDuration":63481,"Delta":6945890},{"NoteNumber":48,"Velocity":54,"Duration":63481,"SoundDuration":63481,"Delta":6945890},{"NoteNumber":60,"Velocity":54,"Duration":63481,"SoundDuration":63481,"Delta":6945890},{"NoteNumber":79,"Velocity":63,"Duration":65502,"SoundDuration":65502,"Delta":7072931},{"NoteNumber":76,"Velocity":55,"Duration":65502,"SoundDuration":65502,"Delta":7072931},{"NoteNumber":62,"Velocity":49,"Duration":65502,"SoundDuration":65502,"Delta":7072931},{"NoteNumber":84,"Velocity":63,"Duration":65502,"SoundDuration":65502,"Delta":7203936},{"NoteNumber":72,"Velocity":55,"Duration":65502,"SoundDuration":65502,"Delta":7203936},{"NoteNumber":64,"Velocity":49,"Duration":65502,"SoundDuration":65502,"Delta":7203936},{"NoteNumber":81,"Velocity":69,"Duration":63829,"SoundDuration":63829,"Delta":7334940},{"NoteNumber":72,"Velocity":60,"Duration":63829,"SoundDuration":63829,"Delta":7334940},{"NoteNumber":53,"Velocity":54,"Duration":63829,"SoundDuration":63829,"Delta":7334940},{"NoteNumber":65,"Velocity":54,"Duration":63829,"SoundDuration":63829,"Delta":7334940},{"NoteNumber":81,"Velocity":62,"Duration":65217,"SoundDuration":65217,"Delta":7462599},{"NoteNumber":72,"Velocity":54,"Duration":65217,"SoundDuration":65217,"Delta":7462599},{"NoteNumber":55,"Velocity":48,"Duration":65217,"SoundDuration":65217,"Delta":7462599},{"NoteNumber":72,"Velocity":54,"Duration":65217,"SoundDuration":65217,"Delta":7593034},{"NoteNumber":77,"Velocity":62,"Duration":65217,"SoundDuration":65217,"Delta":7593034},{"NoteNumber":57,"Velocity":48,"Duration":65217,"SoundDuration":65217,"Delta":7593034},{"NoteNumber":74,"Velocity":69,"Duration":63094,"SoundDuration":63094,"Delta":7723469},{"NoteNumber":70,"Velocity":60,"Duration":63094,"SoundDuration":63094,"Delta":7723469},{"NoteNumber":55,"Velocity":54,"Duration":63094,"SoundDuration":63094,"Delta":7723469},{"NoteNumber":58,"Velocity":54,"Duration":63094,"SoundDuration":63094,"Delta":7723469},{"NoteNumber":74,"Velocity":62,"Duration":64195,"SoundDuration":64195,"Delta":7849657},{"NoteNumber":70,"Velocity":54,"Duration":64195,"SoundDuration":64195,"Delta":7849657},{"NoteNumber":57,"Velocity":48,"Duration":64195,"SoundDuration":64195,"Delta":7849657},{"NoteNumber":67,"Velocity":62,"Duration":66821,"SoundDuration":66821,"Delta":7978049},{"NoteNumber":79,"Velocity":72,"Duration":66821,"SoundDuration":66821,"Delta":7978049},{"NoteNumber":55,"Velocity":56,"Duration":66821,"SoundDuration":66821,"Delta":7978049},{"NoteNumber":76,"Velocity":71,"Duration":63640,"SoundDuration":63640,"Delta":8111691},{"NoteNumber":72,"Velocity":61,"Duration":63640,"SoundDuration":63640,"Delta":8111691},{"NoteNumber":60,"Velocity":55,"Duration":63640,"SoundDuration":63640,"Delta":8111691},{"NoteNumber":64,"Velocity":55,"Duration":63640,"SoundDuration":63640,"Delta":8111691},{"NoteNumber":76,"Velocity":65,"Duration":64477,"SoundDuration":64477,"Delta":8238972},{"NoteNumber":72,"Velocity":56,"Duration":64477,"SoundDuration":64477,"Delta":8238972},{"NoteNumber":58,"Velocity":50,"Duration":64477,"SoundDuration":64477,"Delta":8238972},{"NoteNumber":69,"Velocity":64,"Duration":66821,"SoundDuration":66821,"Delta":8367926},{"NoteNumber":81,"Velocity":74,"Duration":66821,"SoundDuration":66821,"Delta":8367926},{"NoteNumber":57,"Velocity":58,"Duration":66821,"SoundDuration":66821,"Delta":8367926},{"NoteNumber":77,"Velocity":73,"Duration":63916,"SoundDuration":63916,"Delta":8501568},{"NoteNumber":74,"Velocity":64,"Duration":63916,"SoundDuration":63916,"Delta":8501568},{"NoteNumber":62,"Velocity":57,"Duration":63916,"SoundDuration":63916,"Delta":8501568},{"NoteNumber":65,"Velocity":57,"Duration":63916,"SoundDuration":63916,"Delta":8501568},{"NoteNumber":77,"Velocity":66,"Duration":64761,"SoundDuration":64761,"Delta":8629402},{"NoteNumber":74,"Velocity":58,"Duration":64761,"SoundDuration":64761,"Delta":8629402},{"NoteNumber":60,"Velocity":51,"Duration":64761,"SoundDuration":64761,"Delta":8629402},{"NoteNumber":70,"Velocity":67,"Duration":67126,"SoundDuration":67126,"Delta":8758925},{"NoteNumber":82,"Velocity":78,"Duration":67126,"SoundDuration":67126,"Delta":8758925},{"NoteNumber":58,"Velocity":60,"Duration":67126,"SoundDuration":67126,"Delta":8758925},{"NoteNumber":79,"Velocity":76,"Duration":63916,"SoundDuration":63916,"Delta":8893177},{"NoteNumber":76,"Velocity":66,"Duration":63916,"SoundDuration":63916,"Delta":8893177},{"NoteNumber":64,"Velocity":59,"Duration":63916,"SoundDuration":63916,"Delta":8893177},{"NoteNumber":67,"Velocity":59,"Duration":63916,"SoundDuration":63916,"Delta":8893177},{"NoteNumber":79,"Velocity":69,"Duration":63916,"SoundDuration":63916,"Delta":9021011},{"NoteNumber":76,"Velocity":60,"Duration":63916,"SoundDuration":63916,"Delta":9021011},{"NoteNumber":62,"Velocity":53,"Duration":63916,"SoundDuration":63916,"Delta":9021011},{"NoteNumber":72,"Velocity":69,"Duration":65336,"SoundDuration":65336,"Delta":9148844},{"NoteNumber":84,"Velocity":80,"Duration":65336,"SoundDuration":65336,"Delta":9148844},{"NoteNumber":60,"Velocity":61,"Duration":65336,"SoundDuration":65336,"Delta":9148844},{"NoteNumber":72,"Velocity":62,"Duration":65336,"SoundDuration":65336,"Delta":9279518},{"NoteNumber":81,"Velocity":73,"Duration":65336,"SoundDuration":65336,"Delta":9279518},{"NoteNumber":53,"Velocity":56,"Duration":65336,"SoundDuration":65336,"Delta":9279518},{"NoteNumber":72,"Velocity":57,"Duration":65336,"SoundDuration":65336,"Delta":9410191},{"NoteNumber":81,"Velocity":68,"Duration":65336,"SoundDuration":65336,"Delta":9410191},{"NoteNumber":65,"Velocity":50,"Duration":65336,"SoundDuration":65336,"Delta":9410191},{"NoteNumber":70,"Velocity":55,"Duration":66518,"SoundDuration":66518,"Delta":9540865},{"NoteNumber":76,"Velocity":65,"Duration":66518,"SoundDuration":66518,"Delta":9540865},{"NoteNumber":55,"Velocity":49,"Duration":66518,"SoundDuration":66518,"Delta":9540865},{"NoteNumber":72,"Velocity":57,"Duration":63916,"SoundDuration":63916,"Delta":9673903},{"NoteNumber":77,"Velocity":68,"Duration":63916,"SoundDuration":63916,"Delta":9673903},{"NoteNumber":57,"Velocity":52,"Duration":63916,"SoundDuration":63916,"Delta":9673903},{"NoteNumber":70,"Velocity":53,"Duration":65922,"SoundDuration":65922,"Delta":9801736},{"NoteNumber":73,"Velocity":63,"Duration":65922,"SoundDuration":65922,"Delta":9801736},{"NoteNumber":67,"Velocity":48,"Duration":65922,"SoundDuration":65922,"Delta":9801736},{"NoteNumber":69,"Velocity":51,"Duration":65922,"SoundDuration":65922,"Delta":9933581},{"NoteNumber":74,"Velocity":61,"Duration":65922,"SoundDuration":65922,"Delta":9933581},{"NoteNumber":65,"Velocity":47,"Duration":65922,"SoundDuration":65922,"Delta":9933581},{"NoteNumber":66,"Velocity":54,"Duration":63640,"SoundDuration":63640,"Delta":10065426},{"NoteNumber":69,"Velocity":64,"Duration":63640,"SoundDuration":63640,"Delta":10065426},{"NoteNumber":63,"Velocity":49,"Duration":63640,"SoundDuration":63640,"Delta":10065426},{"NoteNumber":65,"Velocity":51,"Duration":65336,"SoundDuration":65336,"Delta":10192707},{"NoteNumber":70,"Velocity":60,"Duration":65336,"SoundDuration":65336,"Delta":10192707},{"NoteNumber":62,"Velocity":44,"Duration":65336,"SoundDuration":65336,"Delta":10192707},{"NoteNumber":63,"Velocity":49,"Duration":65336,"SoundDuration":65336,"Delta":10323380},{"NoteNumber":66,"Velocity":58,"Duration":65336,"SoundDuration":65336,"Delta":10323380},{"NoteNumber":60,"Velocity":43,"Duration":65336,"SoundDuration":65336,"Delta":10323380},{"NoteNumber":62,"Velocity":50,"Duration":63640,"SoundDuration":63640,"Delta":10454054},{"NoteNumber":67,"Velocity":59,"Duration":63640,"SoundDuration":63640,"Delta":10454054},{"NoteNumber":58,"Velocity":45,"Duration":63640,"SoundDuration":63640,"Delta":10454054},{"NoteNumber":58,"Velocity":46,"Duration":65336,"SoundDuration":65336,"Delta":10581334},{"NoteNumber":62,"Velocity":46,"Duration":65336,"SoundDuration":65336,"Delta":10581334},{"NoteNumber":57,"Velocity":40,"Duration":65336,"SoundDuration":65336,"Delta":10581334},{"NoteNumber":59,"Velocity":45,"Duration":65336,"SoundDuration":65336,"Delta":10712008},{"NoteNumber":65,"Velocity":54,"Duration":65336,"SoundDuration":65336,"Delta":10712008},{"NoteNumber":56,"Velocity":39,"Duration":65336,"SoundDuration":65336,"Delta":10712008},{"NoteNumber":58,"Velocity":39,"Duration":63916,"SoundDuration":63916,"Delta":10842681},{"NoteNumber":64,"Velocity":46,"Duration":63916,"SoundDuration":63916,"Delta":10842681},{"NoteNumber":48,"Velocity":36,"Duration":63916,"SoundDuration":63916,"Delta":10842681},{"NoteNumber":55,"Velocity":43,"Duration":63916,"SoundDuration":63916,"Delta":10842681},{"NoteNumber":58,"Velocity":38,"Duration":65628,"SoundDuration":65628,"Delta":10970515},{"NoteNumber":64,"Velocity":45,"Duration":65628,"SoundDuration":65628,"Delta":10970515},{"NoteNumber":65,"Velocity":41,"Duration":65628,"SoundDuration":65628,"Delta":11101772},{"NoteNumber":70,"Velocity":41,"Duration":65628,"SoundDuration":65628,"Delta":11101772},{"NoteNumber":74,"Velocity":49,"Duration":65628,"SoundDuration":65628,"Delta":11101772},{"NoteNumber":64,"Velocity":41,"Duration":63640,"SoundDuration":63640,"Delta":11233028},{"NoteNumber":67,"Velocity":49,"Duration":63640,"SoundDuration":63640,"Delta":11233028},{"NoteNumber":64,"Velocity":38,"Duration":65922,"SoundDuration":65922,"Delta":11360309},{"NoteNumber":67,"Velocity":45,"Duration":65922,"SoundDuration":65922,"Delta":11360309},{"NoteNumber":86,"Velocity":54,"Duration":65922,"SoundDuration":65922,"Delta":11492154},{"NoteNumber":82,"Velocity":45,"Duration":65922,"SoundDuration":65922,"Delta":11492154},{"NoteNumber":77,"Velocity":45,"Duration":65922,"SoundDuration":65922,"Delta":11492154},{"NoteNumber":79,"Velocity":47,"Duration":64195,"SoundDuration":64195,"Delta":11623999},{"NoteNumber":76,"Velocity":39,"Duration":64195,"SoundDuration":64195,"Delta":11623999},{"NoteNumber":79,"Velocity":42,"Duration":70754,"SoundDuration":70754,"Delta":11752390},{"NoteNumber":76,"Velocity":35,"Duration":70754,"SoundDuration":70754,"Delta":11752390},{"NoteNumber":72,"Velocity":60,"Duration":69016,"SoundDuration":69016,"Delta":11893900},{"NoteNumber":84,"Velocity":73,"Duration":69016,"SoundDuration":69016,"Delta":11893900},{"NoteNumber":48,"Velocity":60,"Duration":69016,"SoundDuration":69016,"Delta":11893900},{"NoteNumber":89,"Velocity":85,"Duration":70422,"SoundDuration":70422,"Delta":12031932},{"NoteNumber":81,"Velocity":71,"Duration":70422,"SoundDuration":70422,"Delta":12031932},{"NoteNumber":77,"Velocity":71,"Duration":70422,"SoundDuration":70422,"Delta":12031932},{"NoteNumber":41,"Velocity":67,"Duration":70422,"SoundDuration":70422,"Delta":12031932},{"NoteNumber":53,"Velocity":79,"Duration":70422,"SoundDuration":70422,"Delta":12031932},{"NoteNumber":82,"Velocity":60,"Duration":65789,"SoundDuration":65789,"Delta":12454467},{"NoteNumber":82,"Velocity":57,"Duration":64377,"SoundDuration":64377,"Delta":12586046},{"NoteNumber":77,"Velocity":51,"Duration":64935,"SoundDuration":64935,"Delta":12714802},{"NoteNumber":79,"Velocity":60,"Duration":63559,"SoundDuration":63559,"Delta":12844672},{"NoteNumber":79,"Velocity":57,"Duration":63829,"SoundDuration":63829,"Delta":12971791},{"NoteNumber":74,"Velocity":50,"Duration":65502,"SoundDuration":65502,"Delta":13099450},{"NoteNumber":75,"Velocity":60,"Duration":63559,"SoundDuration":63559,"Delta":13230454},{"NoteNumber":75,"Velocity":55,"Duration":64935,"SoundDuration":64935,"Delta":13357573},{"NoteNumber":70,"Velocity":55,"Duration":64935,"SoundDuration":64935,"Delta":13487443},{"NoteNumber":72,"Velocity":60,"Duration":63829,"SoundDuration":63829,"Delta":13617314},{"NoteNumber":72,"Velocity":54,"Duration":65217,"SoundDuration":65217,"Delta":13744973},{"NoteNumber":67,"Velocity":54,"Duration":64655,"SoundDuration":64655,"Delta":13875408},{"NoteNumber":69,"Velocity":60,"Duration":64377,"SoundDuration":64377,"Delta":14004626},{"NoteNumber":65,"Velocity":51,"Duration":64102,"SoundDuration":64102,"Delta":14069003},{"NoteNumber":67,"Velocity":53,"Duration":63920,"SoundDuration":63920,"Delta":14133106},{"NoteNumber":69,"Velocity":56,"Duration":63694,"SoundDuration":63694,"Delta":14197027},{"NoteNumber":70,"Velocity":58,"Duration":63514,"SoundDuration":63514,"Delta":14260721},{"NoteNumber":72,"Velocity":60,"Duration":63380,"SoundDuration":63380,"Delta":14324236},{"NoteNumber":74,"Velocity":63,"Duration":63829,"SoundDuration":63829,"Delta":14387617},{"NoteNumber":69,"Velocity":53,"Duration":63604,"SoundDuration":63604,"Delta":14451447},{"NoteNumber":70,"Velocity":56,"Duration":63380,"SoundDuration":63380,"Delta":14515051},{"NoteNumber":72,"Velocity":58,"Duration":63202,"SoundDuration":63202,"Delta":14578432},{"NoteNumber":74,"Velocity":61,"Duration":62981,"SoundDuration":62981,"Delta":14641634},{"NoteNumber":75,"Velocity":64,"Duration":62761,"SoundDuration":62761,"Delta":14704615},{"NoteNumber":77,"Velocity":66,"Duration":61984,"SoundDuration":61984,"Delta":14767377},{"NoteNumber":74,"Velocity":57,"Duration":61433,"SoundDuration":61433,"Delta":14829361},{"NoteNumber":75,"Velocity":60,"Duration":60975,"SoundDuration":60975,"Delta":14890795},{"NoteNumber":77,"Velocity":62,"Duration":60975,"SoundDuration":60975,"Delta":14951771},{"NoteNumber":79,"Velocity":65,"Duration":60975,"SoundDuration":60975,"Delta":15012747},{"NoteNumber":81,"Velocity":67,"Duration":61017,"SoundDuration":61017,"Delta":15073722},{"NoteNumber":82,"Velocity":70,"Duration":61644,"SoundDuration":61644,"Delta":15134739},{"NoteNumber":77,"Velocity":65,"Duration":62197,"SoundDuration":62197,"Delta":15196384},{"NoteNumber":79,"Velocity":67,"Duration":62718,"SoundDuration":62718,"Delta":15258581},{"NoteNumber":81,"Velocity":69,"Duration":63336,"SoundDuration":63336,"Delta":15321300},{"NoteNumber":82,"Velocity":71,"Duration":64798,"SoundDuration":64798,"Delta":15384636},{"NoteNumber":84,"Velocity":73,"Duration":66522,"SoundDuration":66522,"Delta":15449434},{"NoteNumber":86,"Velocity":83,"Duration":62500,"SoundDuration":62500,"Delta":15515957},{"NoteNumber":86,"Velocity":57,"Duration":63829,"SoundDuration":63829,"Delta":15640957},{"NoteNumber":81,"Velocity":51,"Duration":64935,"SoundDuration":64935,"Delta":15768616},{"NoteNumber":82,"Velocity":60,"Duration":61728,"SoundDuration":61728,"Delta":15898487},{"NoteNumber":82,"Velocity":57,"Duration":63829,"SoundDuration":63829,"Delta":16021943},{"NoteNumber":77,"Velocity":50,"Duration":65217,"SoundDuration":65217,"Delta":16149603},{"NoteNumber":79,"Velocity":60,"Duration":63291,"SoundDuration":63291,"Delta":16280038},{"NoteNumber":79,"Velocity":55,"Duration":64102,"SoundDuration":64102,"Delta":16406620},{"NoteNumber":74,"Velocity":55,"Duration":65502,"SoundDuration":65502,"Delta":16534825},{"NoteNumber":76,"Velocity":60,"Duration":63829,"SoundDuration":63829,"Delta":16665829},{"NoteNumber":76,"Velocity":54,"Duration":63829,"SoundDuration":63829,"Delta":16793489},{"NoteNumber":71,"Velocity":54,"Duration":64935,"SoundDuration":64935,"Delta":16921148},{"NoteNumber":73,"Velocity":60,"Duration":66865,"SoundDuration":66865,"Delta":17051019},{"NoteNumber":69,"Velocity":51,"Duration":66469,"SoundDuration":66469,"Delta":17117884},{"NoteNumber":71,"Velocity":53,"Duration":65982,"SoundDuration":65982,"Delta":17184354},{"NoteNumber":73,"Velocity":56,"Duration":65597,"SoundDuration":65597,"Delta":17250336},{"NoteNumber":74,"Velocity":58,"Duration":65123,"SoundDuration":65123,"Delta":17315934},{"NoteNumber":76,"Velocity":60,"Duration":64748,"SoundDuration":64748,"Delta":17381058},{"NoteNumber":77,"Velocity":63,"Duration":64377,"SoundDuration":64377,"Delta":17445806},{"NoteNumber":73,"Velocity":53,"Duration":64194,"SoundDuration":64194,"Delta":17510184},{"NoteNumber":74,"Velocity":56,"Duration":63966,"SoundDuration":63966,"Delta":17574378},{"NoteNumber":76,"Velocity":58,"Duration":63739,"SoundDuration":63739,"Delta":17638344},{"NoteNumber":77,"Velocity":61,"Duration":63514,"SoundDuration":63514,"Delta":17702084},{"NoteNumber":79,"Velocity":64,"Duration":63291,"SoundDuration":63291,"Delta":17765598},{"NoteNumber":81,"Velocity":66,"Duration":62674,"SoundDuration":62674,"Delta":17828890},{"NoteNumber":76,"Velocity":57,"Duration":62327,"SoundDuration":62327,"Delta":17891564},{"NoteNumber":77,"Velocity":60,"Duration":61983,"SoundDuration":61983,"Delta":17953891},{"NoteNumber":79,"Velocity":62,"Duration":61983,"SoundDuration":61983,"Delta":18015874},{"NoteNumber":81,"Velocity":65,"Duration":61983,"SoundDuration":61983,"Delta":18077858},{"NoteNumber":83,"Velocity":67,"Duration":62157,"SoundDuration":62157,"Delta":18139841},{"NoteNumber":85,"Velocity":70,"Duration":63158,"SoundDuration":63158,"Delta":18201999},{"NoteNumber":81,"Velocity":65,"Duration":63649,"SoundDuration":63649,"Delta":18265157},{"NoteNumber":83,"Velocity":67,"Duration":64102,"SoundDuration":64102,"Delta":18328806},{"NoteNumber":85,"Velocity":69,"Duration":64609,"SoundDuration":64609,"Delta":18392909},{"NoteNumber":86,"Velocity":71,"Duration":65508,"SoundDuration":65508,"Delta":18457519},{"NoteNumber":88,"Velocity":73,"Duration":72063,"SoundDuration":72063,"Delta":18523027},{"NoteNumber":81,"Velocity":69,"Duration":71090,"SoundDuration":71090,"Delta":18595090},{"NoteNumber":89,"Velocity":79,"Duration":71090,"SoundDuration":71090,"Delta":18595090},{"NoteNumber":41,"Velocity":54,"Duration":71090,"SoundDuration":71090,"Delta":18595090},{"NoteNumber":53,"Velocity":60,"Duration":71090,"SoundDuration":71090,"Delta":18595090},{"NoteNumber":81,"Velocity":57,"Duration":67873,"SoundDuration":67873,"Delta":18737270},{"NoteNumber":89,"Velocity":65,"Duration":67873,"SoundDuration":67873,"Delta":18737270},{"NoteNumber":55,"Velocity":51,"Duration":67873,"SoundDuration":67873,"Delta":18737270},{"NoteNumber":77,"Velocity":51,"Duration":67264,"SoundDuration":67264,"Delta":18873016},{"NoteNumber":84,"Velocity":58,"Duration":67264,"SoundDuration":67264,"Delta":18873016},{"NoteNumber":57,"Velocity":45,"Duration":67264,"SoundDuration":67264,"Delta":18873016},{"NoteNumber":77,"Velocity":60,"Duration":64935,"SoundDuration":64935,"Delta":19007546},{"NoteNumber":86,"Velocity":69,"Duration":64935,"SoundDuration":64935,"Delta":19007546},{"NoteNumber":46,"Velocity":54,"Duration":64935,"SoundDuration":64935,"Delta":19007546},{"NoteNumber":58,"Velocity":54,"Duration":64935,"SoundDuration":64935,"Delta":19007546},{"NoteNumber":77,"Velocity":57,"Duration":65502,"SoundDuration":65502,"Delta":19137416},{"NoteNumber":86,"Velocity":65,"Duration":65502,"SoundDuration":65502,"Delta":19137416},{"NoteNumber":57,"Velocity":51,"Duration":65502,"SoundDuration":65502,"Delta":19137416},{"NoteNumber":74,"Velocity":50,"Duration":65502,"SoundDuration":65502,"Delta":19268420},{"NoteNumber":82,"Velocity":57,"Duration":65502,"SoundDuration":65502,"Delta":19268420},{"NoteNumber":55,"Velocity":45,"Duration":65502,"SoundDuration":65502,"Delta":19268420},{"NoteNumber":79,"Velocity":69,"Duration":63481,"SoundDuration":63481,"Delta":19399424},{"NoteNumber":76,"Velocity":60,"Duration":63481,"SoundDuration":63481,"Delta":19399424},{"NoteNumber":48,"Velocity":54,"Duration":63481,"SoundDuration":63481,"Delta":19399424},{"NoteNumber":60,"Velocity":54,"Duration":63481,"SoundDuration":63481,"Delta":19399424},{"NoteNumber":79,"Velocity":63,"Duration":64377,"SoundDuration":64377,"Delta":19526602},{"NoteNumber":76,"Velocity":55,"Duration":64377,"SoundDuration":64377,"Delta":19526602},{"NoteNumber":62,"Velocity":49,"Duration":64377,"SoundDuration":64377,"Delta":19526602},{"NoteNumber":84,"Velocity":63,"Duration":65502,"SoundDuration":65502,"Delta":19655357},{"NoteNumber":72,"Velocity":55,"Duration":65502,"SoundDuration":65502,"Delta":19655357},{"NoteNumber":64,"Velocity":49,"Duration":65502,"SoundDuration":65502,"Delta":19655357},{"NoteNumber":81,"Velocity":69,"Duration":63829,"SoundDuration":63829,"Delta":19786362},{"NoteNumber":72,"Velocity":60,"Duration":63829,"SoundDuration":63829,"Delta":19786362},{"NoteNumber":53,"Velocity":54,"Duration":63829,"SoundDuration":63829,"Delta":19786362},{"NoteNumber":65,"Velocity":54,"Duration":63829,"SoundDuration":63829,"Delta":19786362},{"NoteNumber":81,"Velocity":62,"Duration":65217,"SoundDuration":65217,"Delta":19914021},{"NoteNumber":72,"Velocity":54,"Duration":65217,"SoundDuration":65217,"Delta":19914021},{"NoteNumber":55,"Velocity":48,"Duration":65217,"SoundDuration":65217,"Delta":19914021},{"NoteNumber":72,"Velocity":54,"Duration":65217,"SoundDuration":65217,"Delta":20044456},{"NoteNumber":77,"Velocity":62,"Duration":65217,"SoundDuration":65217,"Delta":20044456},{"NoteNumber":57,"Velocity":48,"Duration":65217,"SoundDuration":65217,"Delta":20044456},{"NoteNumber":74,"Velocity":69,"Duration":63094,"SoundDuration":63094,"Delta":20174891},{"NoteNumber":70,"Velocity":60,"Duration":63094,"SoundDuration":63094,"Delta":20174891},{"NoteNumber":55,"Velocity":54,"Duration":63094,"SoundDuration":63094,"Delta":20174891},{"NoteNumber":58,"Velocity":54,"Duration":63094,"SoundDuration":63094,"Delta":20174891},{"NoteNumber":74,"Velocity":62,"Duration":64195,"SoundDuration":64195,"Delta":20301079},{"NoteNumber":70,"Velocity":54,"Duration":64195,"SoundDuration":64195,"Delta":20301079},{"NoteNumber":57,"Velocity":48,"Duration":64195,"SoundDuration":64195,"Delta":20301079},{"NoteNumber":67,"Velocity":62,"Duration":66821,"SoundDuration":66821,"Delta":20429471},{"NoteNumber":79,"Velocity":72,"Duration":66821,"SoundDuration":66821,"Delta":20429471},{"NoteNumber":55,"Velocity":56,"Duration":66821,"SoundDuration":66821,"Delta":20429471},{"NoteNumber":76,"Velocity":71,"Duration":63640,"SoundDuration":63640,"Delta":20563113},{"NoteNumber":72,"Velocity":61,"Duration":63640,"SoundDuration":63640,"Delta":20563113},{"NoteNumber":60,"Velocity":55,"Duration":63640,"SoundDuration":63640,"Delta":20563113},{"NoteNumber":64,"Velocity":55,"Duration":63640,"SoundDuration":63640,"Delta":20563113},{"NoteNumber":76,"Velocity":65,"Duration":64477,"SoundDuration":64477,"Delta":20690393},{"NoteNumber":72,"Velocity":56,"Duration":64477,"SoundDuration":64477,"Delta":20690393},{"NoteNumber":58,"Velocity":50,"Duration":64477,"SoundDuration":64477,"Delta":20690393},{"NoteNumber":69,"Velocity":64,"Duration":66821,"SoundDuration":66821,"Delta":20819348},{"NoteNumber":81,"Velocity":74,"Duration":66821,"SoundDuration":66821,"Delta":20819348},{"NoteNumber":57,"Velocity":58,"Duration":66821,"SoundDuration":66821,"Delta":20819348},{"NoteNumber":77,"Velocity":73,"Duration":63916,"SoundDuration":63916,"Delta":20952990},{"NoteNumber":74,"Velocity":64,"Duration":63916,"SoundDuration":63916,"Delta":20952990},{"NoteNumber":62,"Velocity":57,"Duration":63916,"SoundDuration":63916,"Delta":20952990},{"NoteNumber":65,"Velocity":57,"Duration":63916,"SoundDuration":63916,"Delta":20952990},{"NoteNumber":77,"Velocity":66,"Duration":64761,"SoundDuration":64761,"Delta":21080824},{"NoteNumber":74,"Velocity":58,"Duration":64761,"SoundDuration":64761,"Delta":21080824},{"NoteNumber":60,"Velocity":51,"Duration":64761,"SoundDuration":64761,"Delta":21080824},{"NoteNumber":70,"Velocity":67,"Duration":67126,"SoundDuration":67126,"Delta":21210346},{"NoteNumber":82,"Velocity":78,"Duration":67126,"SoundDuration":67126,"Delta":21210346},{"NoteNumber":58,"Velocity":60,"Duration":67126,"SoundDuration":67126,"Delta":21210346},{"NoteNumber":79,"Velocity":76,"Duration":63916,"SoundDuration":63916,"Delta":21344599},{"NoteNumber":76,"Velocity":66,"Duration":63916,"SoundDuration":63916,"Delta":21344599},{"NoteNumber":64,"Velocity":59,"Duration":63916,"SoundDuration":63916,"Delta":21344599},{"NoteNumber":67,"Velocity":59,"Duration":63916,"SoundDuration":63916,"Delta":21344599},{"NoteNumber":79,"Velocity":69,"Duration":63916,"SoundDuration":63916,"Delta":21472432},{"NoteNumber":76,"Velocity":60,"Duration":63916,"SoundDuration":63916,"Delta":21472432},{"NoteNumber":62,"Velocity":53,"Duration":63916,"SoundDuration":63916,"Delta":21472432},{"NoteNumber":72,"Velocity":69,"Duration":65336,"SoundDuration":65336,"Delta":21600266},{"NoteNumber":84,"Velocity":80,"Duration":65336,"SoundDuration":65336,"Delta":21600266},{"NoteNumber":60,"Velocity":61,"Duration":65336,"SoundDuration":65336,"Delta":21600266},{"NoteNumber":72,"Velocity":62,"Duration":65336,"SoundDuration":65336,"Delta":21730940},{"NoteNumber":81,"Velocity":73,"Duration":65336,"SoundDuration":65336,"Delta":21730940},{"NoteNumber":53,"Velocity":56,"Duration":65336,"SoundDuration":65336,"Delta":21730940},{"NoteNumber":72,"Velocity":57,"Duration":65336,"SoundDuration":65336,"Delta":21861613},{"NoteNumber":81,"Velocity":68,"Duration":65336,"SoundDuration":65336,"Delta":21861613},{"NoteNumber":65,"Velocity":50,"Duration":65336,"SoundDuration":65336,"Delta":21861613},{"NoteNumber":70,"Velocity":55,"Duration":66518,"SoundDuration":66518,"Delta":21992287},{"NoteNumber":76,"Velocity":65,"Duration":66518,"SoundDuration":66518,"Delta":21992287},{"NoteNumber":55,"Velocity":49,"Duration":66518,"SoundDuration":66518,"Delta":21992287},{"NoteNumber":72,"Velocity":57,"Duration":63916,"SoundDuration":63916,"Delta":22125324},{"NoteNumber":77,"Velocity":68,"Duration":63916,"SoundDuration":63916,"Delta":22125324},{"NoteNumber":57,"Velocity":52,"Duration":63916,"SoundDuration":63916,"Delta":22125324},{"NoteNumber":70,"Velocity":53,"Duration":65922,"SoundDuration":65922,"Delta":22253158},{"NoteNumber":73,"Velocity":63,"Duration":65922,"SoundDuration":65922,"Delta":22253158},{"NoteNumber":67,"Velocity":48,"Duration":65922,"SoundDuration":65922,"Delta":22253158},{"NoteNumber":69,"Velocity":51,"Duration":65922,"SoundDuration":65922,"Delta":22385003},{"NoteNumber":74,"Velocity":61,"Duration":65922,"SoundDuration":65922,"Delta":22385003},{"NoteNumber":65,"Velocity":47,"Duration":65922,"SoundDuration":65922,"Delta":22385003},{"NoteNumber":66,"Velocity":54,"Duration":63640,"SoundDuration":63640,"Delta":22516848},{"NoteNumber":69,"Velocity":64,"Duration":63640,"SoundDuration":63640,"Delta":22516848},{"NoteNumber":63,"Velocity":49,"Duration":63640,"SoundDuration":63640,"Delta":22516848},{"NoteNumber":65,"Velocity":51,"Duration":65336,"SoundDuration":65336,"Delta":22644129},{"NoteNumber":70,"Velocity":60,"Duration":65336,"SoundDuration":65336,"Delta":22644129},{"NoteNumber":62,"Velocity":44,"Duration":65336,"SoundDuration":65336,"Delta":22644129},{"NoteNumber":63,"Velocity":49,"Duration":65336,"SoundDuration":65336,"Delta":22774802},{"NoteNumber":66,"Velocity":58,"Duration":65336,"SoundDuration":65336,"Delta":22774802},{"NoteNumber":60,"Velocity":43,"Duration":65336,"SoundDuration":65336,"Delta":22774802},{"NoteNumber":62,"Velocity":50,"Duration":62761,"SoundDuration":62761,"Delta":22905476},{"NoteNumber":67,"Velocity":59,"Duration":62761,"SoundDuration":62761,"Delta":22905476},{"NoteNumber":58,"Velocity":45,"Duration":62761,"SoundDuration":62761,"Delta":22905476},{"NoteNumber":58,"Velocity":46,"Duration":65336,"SoundDuration":65336,"Delta":23030999},{"NoteNumber":62,"Velocity":46,"Duration":65336,"SoundDuration":65336,"Delta":23030999},{"NoteNumber":57,"Velocity":40,"Duration":65336,"SoundDuration":65336,"Delta":23030999},{"NoteNumber":59,"Velocity":45,"Duration":65336,"SoundDuration":65336,"Delta":23161672},{"NoteNumber":65,"Velocity":54,"Duration":65336,"SoundDuration":65336,"Delta":23161672},{"NoteNumber":56,"Velocity":39,"Duration":65336,"SoundDuration":65336,"Delta":23161672},{"NoteNumber":58,"Velocity":39,"Duration":63916,"SoundDuration":63916,"Delta":23292346},{"NoteNumber":64,"Velocity":46,"Duration":63916,"SoundDuration":63916,"Delta":23292346},{"NoteNumber":48,"Velocity":36,"Duration":63916,"SoundDuration":63916,"Delta":23292346},{"NoteNumber":55,"Velocity":43,"Duration":63916,"SoundDuration":63916,"Delta":23292346},{"NoteNumber":58,"Velocity":38,"Duration":65628,"SoundDuration":65628,"Delta":23420179},{"NoteNumber":64,"Velocity":45,"Duration":65628,"SoundDuration":65628,"Delta":23420179},{"NoteNumber":65,"Velocity":41,"Duration":65628,"SoundDuration":65628,"Delta":23551436},{"NoteNumber":70,"Velocity":41,"Duration":65628,"SoundDuration":65628,"Delta":23551436},{"NoteNumber":74,"Velocity":49,"Duration":65628,"SoundDuration":65628,"Delta":23551436},{"NoteNumber":64,"Velocity":41,"Duration":63640,"SoundDuration":63640,"Delta":23682692},{"NoteNumber":67,"Velocity":49,"Duration":63640,"SoundDuration":63640,"Delta":23682692},{"NoteNumber":64,"Velocity":38,"Duration":65922,"SoundDuration":65922,"Delta":23809973},{"NoteNumber":67,"Velocity":45,"Duration":65922,"SoundDuration":65922,"Delta":23809973},{"NoteNumber":86,"Velocity":54,"Duration":65922,"SoundDuration":65922,"Delta":23941818},{"NoteNumber":82,"Velocity":45,"Duration":65922,"SoundDuration":65922,"Delta":23941818},{"NoteNumber":77,"Velocity":45,"Duration":65922,"SoundDuration":65922,"Delta":23941818},{"NoteNumber":79,"Velocity":47,"Duration":64195,"SoundDuration":64195,"Delta":24073663},{"NoteNumber":76,"Velocity":39,"Duration":64195,"SoundDuration":64195,"Delta":24073663},{"NoteNumber":79,"Velocity":42,"Duration":70754,"SoundDuration":70754,"Delta":24202055},{"NoteNumber":76,"Velocity":35,"Duration":70754,"SoundDuration":70754,"Delta":24202055},{"NoteNumber":72,"Velocity":60,"Duration":69016,"SoundDuration":69016,"Delta":24343564},{"NoteNumber":84,"Velocity":73,"Duration":69016,"SoundDuration":69016,"Delta":24343564},{"NoteNumber":48,"Velocity":60,"Duration":69016,"SoundDuration":69016,"Delta":24343564},{"NoteNumber":89,"Velocity":85,"Duration":70422,"SoundDuration":70422,"Delta":24481597},{"NoteNumber":81,"Velocity":71,"Duration":70422,"SoundDuration":70422,"Delta":24481597},{"NoteNumber":77,"Velocity":71,"Duration":70422,"SoundDuration":70422,"Delta":24481597},{"NoteNumber":41,"Velocity":67,"Duration":70422,"SoundDuration":70422,"Delta":24481597},{"NoteNumber":53,"Velocity":79,"Duration":70422,"SoundDuration":70422,"Delta":24481597},{"NoteNumber":57,"Velocity":46,"Duration":63916,"SoundDuration":63916,"Delta":24904132},{"NoteNumber":60,"Velocity":51,"Duration":63916,"SoundDuration":63916,"Delta":24904132},{"NoteNumber":65,"Velocity":61,"Duration":63916,"SoundDuration":63916,"Delta":24904132},{"NoteNumber":53,"Velocity":56,"Duration":65922,"SoundDuration":65922,"Delta":25031965},{"NoteNumber":41,"Velocity":43,"Duration":65922,"SoundDuration":65922,"Delta":25031965},{"NoteNumber":57,"Velocity":42,"Duration":67264,"SoundDuration":67264,"Delta":25163810},{"NoteNumber":60,"Velocity":45,"Duration":67264,"SoundDuration":67264,"Delta":25163810},{"NoteNumber":65,"Velocity":54,"Duration":67264,"SoundDuration":67264,"Delta":25163810},{"NoteNumber":58,"Velocity":46,"Duration":63916,"SoundDuration":63916,"Delta":25298340},{"NoteNumber":61,"Velocity":51,"Duration":63916,"SoundDuration":63916,"Delta":25298340},{"NoteNumber":66,"Velocity":61,"Duration":63916,"SoundDuration":63916,"Delta":25298340},{"NoteNumber":61,"Velocity":56,"Duration":65922,"SoundDuration":65922,"Delta":25426173},{"NoteNumber":58,"Velocity":43,"Duration":65922,"SoundDuration":65922,"Delta":25426173},{"NoteNumber":58,"Velocity":42,"Duration":65922,"SoundDuration":65922,"Delta":25558018},{"NoteNumber":61,"Velocity":45,"Duration":65922,"SoundDuration":65922,"Delta":25558018},{"NoteNumber":66,"Velocity":54,"Duration":65922,"SoundDuration":65922,"Delta":25558018},{"NoteNumber":54,"Velocity":46,"Duration":63916,"SoundDuration":63916,"Delta":25689863},{"NoteNumber":58,"Velocity":51,"Duration":63916,"SoundDuration":63916,"Delta":25689863},{"NoteNumber":63,"Velocity":61,"Duration":63916,"SoundDuration":63916,"Delta":25689863},{"NoteNumber":58,"Velocity":56,"Duration":64935,"SoundDuration":64935,"Delta":25817697},{"NoteNumber":54,"Velocity":43,"Duration":64935,"SoundDuration":64935,"Delta":25817697},{"NoteNumber":54,"Velocity":42,"Duration":64935,"SoundDuration":64935,"Delta":25947567},{"NoteNumber":58,"Velocity":45,"Duration":64935,"SoundDuration":64935,"Delta":25947567},{"NoteNumber":63,"Velocity":54,"Duration":64935,"SoundDuration":64935,"Delta":25947567},{"NoteNumber":51,"Velocity":46,"Duration":63916,"SoundDuration":63916,"Delta":26077438},{"NoteNumber":54,"Velocity":51,"Duration":63916,"SoundDuration":63916,"Delta":26077438},{"NoteNumber":60,"Velocity":61,"Duration":63916,"SoundDuration":63916,"Delta":26077438},{"NoteNumber":54,"Velocity":56,"Duration":65922,"SoundDuration":65922,"Delta":26205271},{"NoteNumber":51,"Velocity":43,"Duration":65922,"SoundDuration":65922,"Delta":26205271},{"NoteNumber":51,"Velocity":42,"Duration":68807,"SoundDuration":68807,"Delta":26337116},{"NoteNumber":54,"Velocity":45,"Duration":68807,"SoundDuration":68807,"Delta":26337116},{"NoteNumber":60,"Velocity":54,"Duration":68807,"SoundDuration":68807,"Delta":26337116},{"NoteNumber":53,"Velocity":51,"Duration":63916,"SoundDuration":63916,"Delta":26474731},{"NoteNumber":57,"Velocity":61,"Duration":63916,"SoundDuration":63916,"Delta":26474731},{"NoteNumber":48,"Velocity":56,"Duration":65922,"SoundDuration":65922,"Delta":26602565},{"NoteNumber":41,"Velocity":43,"Duration":65922,"SoundDuration":65922,"Delta":26602565},{"NoteNumber":53,"Velocity":45,"Duration":65922,"SoundDuration":65922,"Delta":26734410},{"NoteNumber":57,"Velocity":54,"Duration":65922,"SoundDuration":65922,"Delta":26734410},{"NoteNumber":53,"Velocity":46,"Duration":63916,"SoundDuration":63916,"Delta":26866255},{"NoteNumber":55,"Velocity":51,"Duration":63916,"SoundDuration":63916,"Delta":26866255},{"NoteNumber":58,"Velocity":61,"Duration":63916,"SoundDuration":63916,"Delta":26866255},{"NoteNumber":49,"Velocity":56,"Duration":65922,"SoundDuration":65922,"Delta":26994089},{"NoteNumber":41,"Velocity":43,"Duration":65922,"SoundDuration":65922,"Delta":26994089},{"NoteNumber":53,"Velocity":42,"Duration":65922,"SoundDuration":65922,"Delta":27125934},{"NoteNumber":55,"Velocity":45,"Duration":65922,"SoundDuration":65922,"Delta":27125934},{"NoteNumber":58,"Velocity":54,"Duration":65922,"SoundDuration":65922,"Delta":27125934},{"NoteNumber":53,"Velocity":46,"Duration":63916,"SoundDuration":63916,"Delta":27257779},{"NoteNumber":56,"Velocity":51,"Duration":63916,"SoundDuration":63916,"Delta":27257779},{"NoteNumber":59,"Velocity":61,"Duration":63916,"SoundDuration":63916,"Delta":27257779},{"NoteNumber":50,"Velocity":56,"Duration":66371,"SoundDuration":66371,"Delta":27385612},{"NoteNumber":41,"Velocity":43,"Duration":66371,"SoundDuration":66371,"Delta":27385612},{"NoteNumber":53,"Velocity":42,"Duration":66371,"SoundDuration":66371,"Delta":27518356},{"NoteNumber":56,"Velocity":45,"Duration":66371,"SoundDuration":66371,"Delta":27518356},{"NoteNumber":59,"Velocity":54,"Duration":66371,"SoundDuration":66371,"Delta":27518356},{"NoteNumber":53,"Velocity":46,"Duration":63916,"SoundDuration":63916,"Delta":27651099},{"NoteNumber":57,"Velocity":51,"Duration":63916,"SoundDuration":63916,"Delta":27651099},{"NoteNumber":60,"Velocity":61,"Duration":63916,"SoundDuration":63916,"Delta":27651099},{"NoteNumber":51,"Velocity":56,"Duration":66371,"SoundDuration":66371,"Delta":27778933},{"NoteNumber":41,"Velocity":43,"Duration":66371,"SoundDuration":66371,"Delta":27778933},{"NoteNumber":53,"Velocity":42,"Duration":74257,"SoundDuration":74257,"Delta":27911676},{"NoteNumber":57,"Velocity":45,"Duration":74257,"SoundDuration":74257,"Delta":27911676},{"NoteNumber":60,"Velocity":54,"Duration":74257,"SoundDuration":74257,"Delta":27911676},{"NoteNumber":57,"Velocity":46,"Duration":63916,"SoundDuration":63916,"Delta":28060191},{"NoteNumber":60,"Velocity":51,"Duration":63916,"SoundDuration":63916,"Delta":28060191},{"NoteNumber":65,"Velocity":61,"Duration":63916,"SoundDuration":63916,"Delta":28060191},{"NoteNumber":53,"Velocity":56,"Duration":65922,"SoundDuration":65922,"Delta":28188024},{"NoteNumber":41,"Velocity":43,"Duration":65922,"SoundDuration":65922,"Delta":28188024},{"NoteNumber":57,"Velocity":42,"Duration":67264,"SoundDuration":67264,"Delta":28319869},{"NoteNumber":60,"Velocity":45,"Duration":67264,"SoundDuration":67264,"Delta":28319869},{"NoteNumber":65,"Velocity":54,"Duration":67264,"SoundDuration":67264,"Delta":28319869},{"NoteNumber":58,"Velocity":46,"Duration":63916,"SoundDuration":63916,"Delta":28454399},{"NoteNumber":61,"Velocity":51,"Duration":63916,"SoundDuration":63916,"Delta":28454399},{"NoteNumber":68,"Velocity":61,"Duration":63916,"SoundDuration":63916,"Delta":28454399},{"NoteNumber":61,"Velocity":56,"Duration":65922,"SoundDuration":65922,"Delta":28582232},{"NoteNumber":58,"Velocity":43,"Duration":65922,"SoundDuration":65922,"Delta":28582232},{"NoteNumber":58,"Velocity":42,"Duration":65922,"SoundDuration":65922,"Delta":28714077},{"NoteNumber":61,"Velocity":45,"Duration":65922,"SoundDuration":65922,"Delta":28714077},{"NoteNumber":66,"Velocity":54,"Duration":65922,"SoundDuration":65922,"Delta":28714077},{"NoteNumber":54,"Velocity":46,"Duration":63916,"SoundDuration":63916,"Delta":28845922},{"NoteNumber":58,"Velocity":51,"Duration":63916,"SoundDuration":63916,"Delta":28845922},{"NoteNumber":63,"Velocity":61,"Duration":63916,"SoundDuration":63916,"Delta":28845922},{"NoteNumber":58,"Velocity":56,"Duration":64935,"SoundDuration":64935,"Delta":28973756},{"NoteNumber":54,"Velocity":43,"Duration":64935,"SoundDuration":64935,"Delta":28973756},{"NoteNumber":54,"Velocity":42,"Duration":64935,"SoundDuration":64935,"Delta":29103626},{"NoteNumber":58,"Velocity":45,"Duration":64935,"SoundDuration":64935,"Delta":29103626},{"NoteNumber":63,"Velocity":54,"Duration":64935,"SoundDuration":64935,"Delta":29103626},{"NoteNumber":51,"Velocity":46,"Duration":63916,"SoundDuration":63916,"Delta":29233497},{"NoteNumber":54,"Velocity":51,"Duration":63916,"SoundDuration":63916,"Delta":29233497},{"NoteNumber":60,"Velocity":61,"Duration":63916,"SoundDuration":63916,"Delta":29233497},{"NoteNumber":54,"Velocity":56,"Duration":65922,"SoundDuration":65922,"Delta":29361330},{"NoteNumber":51,"Velocity":43,"Duration":65922,"SoundDuration":65922,"Delta":29361330},{"NoteNumber":51,"Velocity":42,"Duration":68807,"SoundDuration":68807,"Delta":29493175},{"NoteNumber":54,"Velocity":45,"Duration":68807,"SoundDuration":68807,"Delta":29493175},{"NoteNumber":60,"Velocity":54,"Duration":68807,"SoundDuration":68807,"Delta":29493175},{"NoteNumber":53,"Velocity":51,"Duration":63916,"SoundDuration":63916,"Delta":29630790},{"NoteNumber":57,"Velocity":61,"Duration":63916,"SoundDuration":63916,"Delta":29630790},{"NoteNumber":48,"Velocity":56,"Duration":65922,"SoundDuration":65922,"Delta":29758624},{"NoteNumber":41,"Velocity":43,"Duration":65922,"SoundDuration":65922,"Delta":29758624},{"NoteNumber":53,"Velocity":46,"Duration":65922,"SoundDuration":65922,"Delta":29890469},{"NoteNumber":57,"Velocity":55,"Duration":65922,"SoundDuration":65922,"Delta":29890469},{"NoteNumber":54,"Velocity":53,"Duration":63916,"SoundDuration":63916,"Delta":30022314},{"NoteNumber":58,"Velocity":64,"Duration":63916,"SoundDuration":63916,"Delta":30022314},{"NoteNumber":48,"Velocity":59,"Duration":65922,"SoundDuration":65922,"Delta":30150148},{"NoteNumber":40,"Velocity":45,"Duration":65922,"SoundDuration":65922,"Delta":30150148},{"NoteNumber":54,"Velocity":48,"Duration":65922,"SoundDuration":65922,"Delta":30281993},{"NoteNumber":58,"Velocity":58,"Duration":65922,"SoundDuration":65922,"Delta":30281993},{"NoteNumber":55,"Velocity":56,"Duration":65217,"SoundDuration":65217,"Delta":30413838},{"NoteNumber":59,"Velocity":67,"Duration":65217,"SoundDuration":65217,"Delta":30413838},{"NoteNumber":49,"Velocity":62,"Duration":69444,"SoundDuration":69444,"Delta":30544272},{"NoteNumber":39,"Velocity":47,"Duration":69444,"SoundDuration":69444,"Delta":30544272},{"NoteNumber":55,"Velocity":50,"Duration":69444,"SoundDuration":69444,"Delta":30683161},{"NoteNumber":59,"Velocity":61,"Duration":69444,"SoundDuration":69444,"Delta":30683161},{"NoteNumber":54,"Velocity":52,"Duration":66079,"SoundDuration":66079,"Delta":30822050},{"NoteNumber":56,"Velocity":58,"Duration":66079,"SoundDuration":66079,"Delta":30822050},{"NoteNumber":60,"Velocity":70,"Duration":66079,"SoundDuration":66079,"Delta":30822050},{"NoteNumber":44,"Velocity":64,"Duration":67873,"SoundDuration":67873,"Delta":30954209},{"NoteNumber":32,"Velocity":49,"Duration":67873,"SoundDuration":67873,"Delta":30954209},{"NoteNumber":48,"Velocity":49,"Duration":71090,"SoundDuration":71090,"Delta":31089955},{"NoteNumber":54,"Velocity":49,"Duration":71090,"SoundDuration":71090,"Delta":31089955},{"NoteNumber":56,"Velocity":53,"Duration":71090,"SoundDuration":71090,"Delta":31089955},{"NoteNumber":60,"Velocity":63,"Duration":71090,"SoundDuration":71090,"Delta":31089955},{"NoteNumber":59,"Velocity":55,"Duration":63916,"SoundDuration":63916,"Delta":31232135},{"NoteNumber":65,"Velocity":61,"Duration":63916,"SoundDuration":63916,"Delta":31232135},{"NoteNumber":68,"Velocity":73,"Duration":63916,"SoundDuration":63916,"Delta":31232135},{"NoteNumber":49,"Velocity":67,"Duration":65922,"SoundDuration":65922,"Delta":31359969},{"NoteNumber":37,"Velocity":51,"Duration":65922,"SoundDuration":65922,"Delta":31359969},{"NoteNumber":59,"Velocity":50,"Duration":67264,"SoundDuration":67264,"Delta":31491814},{"NoteNumber":65,"Velocity":54,"Duration":67264,"SoundDuration":67264,"Delta":31491814},{"NoteNumber":68,"Velocity":64,"Duration":67264,"SoundDuration":67264,"Delta":31491814},{"NoteNumber":59,"Velocity":55,"Duration":63916,"SoundDuration":63916,"Delta":31626343},{"NoteNumber":66,"Velocity":61,"Duration":63916,"SoundDuration":63916,"Delta":31626343},{"NoteNumber":70,"Velocity":73,"Duration":63916,"SoundDuration":63916,"Delta":31626343},{"NoteNumber":66,"Velocity":67,"Duration":65922,"SoundDuration":65922,"Delta":31754177},{"NoteNumber":63,"Velocity":51,"Duration":65922,"SoundDuration":65922,"Delta":31754177},{"NoteNumber":59,"Velocity":50,"Duration":65922,"SoundDuration":65922,"Delta":31886022},{"NoteNumber":66,"Velocity":54,"Duration":65922,"SoundDuration":65922,"Delta":31886022},{"NoteNumber":70,"Velocity":64,"Duration":65922,"SoundDuration":65922,"Delta":31886022},{"NoteNumber":59,"Velocity":55,"Duration":63916,"SoundDuration":63916,"Delta":32017867},{"NoteNumber":65,"Velocity":61,"Duration":63916,"SoundDuration":63916,"Delta":32017867},{"NoteNumber":68,"Velocity":73,"Duration":63916,"SoundDuration":63916,"Delta":32017867},{"NoteNumber":61,"Velocity":67,"Duration":66371,"SoundDuration":66371,"Delta":32145701},{"NoteNumber":56,"Velocity":51,"Duration":66371,"SoundDuration":66371,"Delta":32145701},{"NoteNumber":59,"Velocity":50,"Duration":66371,"SoundDuration":66371,"Delta":32278444},{"NoteNumber":65,"Velocity":54,"Duration":66371,"SoundDuration":66371,"Delta":32278444},{"NoteNumber":68,"Velocity":64,"Duration":66371,"SoundDuration":66371,"Delta":32278444},{"NoteNumber":59,"Velocity":61,"Duration":63916,"SoundDuration":63916,"Delta":32411187},{"NoteNumber":65,"Velocity":73,"Duration":63916,"SoundDuration":63916,"Delta":32411187},{"NoteNumber":61,"Velocity":67,"Duration":65922,"SoundDuration":65922,"Delta":32539021},{"NoteNumber":53,"Velocity":51,"Duration":65922,"SoundDuration":65922,"Delta":32539021},{"NoteNumber":59,"Velocity":54,"Duration":68807,"SoundDuration":68807,"Delta":32670866},{"NoteNumber":65,"Velocity":64,"Duration":68807,"SoundDuration":68807,"Delta":32670866},{"NoteNumber":53,"Velocity":61,"Duration":63916,"SoundDuration":63916,"Delta":32808481},{"NoteNumber":59,"Velocity":61,"Duration":63916,"SoundDuration":63916,"Delta":32808481},{"NoteNumber":61,"Velocity":73,"Duration":63916,"SoundDuration":63916,"Delta":32808481},{"NoteNumber":49,"Velocity":67,"Duration":66964,"SoundDuration":66964,"Delta":32936315},{"NoteNumber":37,"Velocity":51,"Duration":66964,"SoundDuration":66964,"Delta":32936315},{"NoteNumber":53,"Velocity":54,"Duration":66964,"SoundDuration":66964,"Delta":33070243},{"NoteNumber":59,"Velocity":54,"Duration":66964,"SoundDuration":66964,"Delta":33070243},{"NoteNumber":61,"Velocity":64,"Duration":66964,"SoundDuration":66964,"Delta":33070243},{"NoteNumber":59,"Velocity":61,"Duration":65217,"SoundDuration":65217,"Delta":33204172},{"NoteNumber":63,"Velocity":73,"Duration":65217,"SoundDuration":65217,"Delta":33204172},{"NoteNumber":54,"Velocity":67,"Duration":68181,"SoundDuration":68181,"Delta":33334606},{"NoteNumber":49,"Velocity":51,"Duration":68181,"SoundDuration":68181,"Delta":33334606},{"NoteNumber":59,"Velocity":54,"Duration":68181,"SoundDuration":68181,"Delta":33470970},{"NoteNumber":63,"Velocity":64,"Duration":68181,"SoundDuration":68181,"Delta":33470970},{"NoteNumber":55,"Velocity":55,"Duration":65217,"SoundDuration":65217,"Delta":33607334},{"NoteNumber":59,"Velocity":61,"Duration":65217,"SoundDuration":65217,"Delta":33607334},{"NoteNumber":64,"Velocity":73,"Duration":65217,"SoundDuration":65217,"Delta":33607334},{"NoteNumber":49,"Velocity":67,"Duration":69747,"SoundDuration":69747,"Delta":33737769},{"NoteNumber":37,"Velocity":51,"Duration":69747,"SoundDuration":69747,"Delta":33737769},{"NoteNumber":55,"Velocity":50,"Duration":70422,"SoundDuration":70422,"Delta":33877938},{"NoteNumber":59,"Velocity":54,"Duration":70422,"SoundDuration":70422,"Delta":33877938},{"NoteNumber":64,"Velocity":64,"Duration":70422,"SoundDuration":70422,"Delta":33877938},{"NoteNumber":59,"Velocity":55,"Duration":65789,"SoundDuration":65789,"Delta":34018783},{"NoteNumber":61,"Velocity":61,"Duration":65789,"SoundDuration":65789,"Delta":34018783},{"NoteNumber":65,"Velocity":73,"Duration":65789,"SoundDuration":65789,"Delta":34018783},{"NoteNumber":56,"Velocity":67,"Duration":69767,"SoundDuration":69767,"Delta":34150362},{"NoteNumber":49,"Velocity":51,"Duration":69767,"SoundDuration":69767,"Delta":34150362},{"NoteNumber":59,"Velocity":50,"Duration":69767,"SoundDuration":69767,"Delta":34289897},{"NoteNumber":61,"Velocity":54,"Duration":69767,"SoundDuration":69767,"Delta":34289897},{"NoteNumber":65,"Velocity":64,"Duration":69767,"SoundDuration":69767,"Delta":34289897},{"NoteNumber":59,"Velocity":55,"Duration":64935,"SoundDuration":64935,"Delta":34429432},{"NoteNumber":65,"Velocity":61,"Duration":64935,"SoundDuration":64935,"Delta":34429432},{"NoteNumber":68,"Velocity":73,"Duration":64935,"SoundDuration":64935,"Delta":34429432},{"NoteNumber":49,"Velocity":67,"Duration":67567,"SoundDuration":67567,"Delta":34559303},{"NoteNumber":37,"Velocity":51,"Duration":67567,"SoundDuration":67567,"Delta":34559303},{"NoteNumber":59,"Velocity":50,"Duration":80213,"SoundDuration":80213,"Delta":34694438},{"NoteNumber":65,"Velocity":54,"Duration":80213,"SoundDuration":80213,"Delta":34694438},{"NoteNumber":68,"Velocity":64,"Duration":80213,"SoundDuration":80213,"Delta":34694438},{"NoteNumber":63,"Velocity":60,"Duration":64935,"SoundDuration":64935,"Delta":34854866},{"NoteNumber":66,"Velocity":67,"Duration":64935,"SoundDuration":64935,"Delta":34854866},{"NoteNumber":73,"Velocity":80,"Duration":64935,"SoundDuration":64935,"Delta":34854866},{"NoteNumber":66,"Velocity":67,"Duration":67873,"SoundDuration":67873,"Delta":34984736},{"NoteNumber":63,"Velocity":51,"Duration":67873,"SoundDuration":67873,"Delta":34984736},{"NoteNumber":63,"Velocity":50,"Duration":70754,"SoundDuration":70754,"Delta":35120482},{"NoteNumber":66,"Velocity":54,"Duration":70754,"SoundDuration":70754,"Delta":35120482},{"NoteNumber":71,"Velocity":64,"Duration":70754,"SoundDuration":70754,"Delta":35120482},{"NoteNumber":59,"Velocity":55,"Duration":65502,"SoundDuration":65502,"Delta":35261992},{"NoteNumber":63,"Velocity":61,"Duration":65502,"SoundDuration":65502,"Delta":35261992},{"NoteNumber":68,"Velocity":73,"Duration":65502,"SoundDuration":65502,"Delta":35261992},{"NoteNumber":63,"Velocity":67,"Duration":68493,"SoundDuration":68493,"Delta":35392996},{"NoteNumber":59,"Velocity":51,"Duration":68493,"SoundDuration":68493,"Delta":35392996},{"NoteNumber":59,"Velocity":50,"Duration":68493,"SoundDuration":68493,"Delta":35529982},{"NoteNumber":63,"Velocity":54,"Duration":68493,"SoundDuration":68493,"Delta":35529982},{"NoteNumber":68,"Velocity":64,"Duration":68493,"SoundDuration":68493,"Delta":35529982},{"NoteNumber":56,"Velocity":61,"Duration":65502,"SoundDuration":65502,"Delta":35666969},{"NoteNumber":59,"Velocity":61,"Duration":65502,"SoundDuration":65502,"Delta":35666969},{"NoteNumber":65,"Velocity":73,"Duration":65502,"SoundDuration":65502,"Delta":35666969},{"NoteNumber":59,"Velocity":67,"Duration":67873,"SoundDuration":67873,"Delta":35797973},{"NoteNumber":56,"Velocity":51,"Duration":67873,"SoundDuration":67873,"Delta":35797973},{"NoteNumber":56,"Velocity":54,"Duration":70148,"SoundDuration":70148,"Delta":35933719},{"NoteNumber":59,"Velocity":54,"Duration":70148,"SoundDuration":70148,"Delta":35933719},{"NoteNumber":65,"Velocity":64,"Duration":70148,"SoundDuration":70148,"Delta":35933719},{"NoteNumber":53,"Velocity":61,"Duration":66964,"SoundDuration":66964,"Delta":36073961},{"NoteNumber":59,"Velocity":61,"Duration":66964,"SoundDuration":66964,"Delta":36073961},{"NoteNumber":61,"Velocity":73,"Duration":66964,"SoundDuration":66964,"Delta":36073961},{"NoteNumber":49,"Velocity":66,"Duration":69767,"SoundDuration":69767,"Delta":36207890},{"NoteNumber":37,"Velocity":51,"Duration":69767,"SoundDuration":69767,"Delta":36207890},{"NoteNumber":53,"Velocity":52,"Duration":69767,"SoundDuration":69767,"Delta":36347425},{"NoteNumber":59,"Velocity":52,"Duration":69767,"SoundDuration":69767,"Delta":36347425},{"NoteNumber":61,"Velocity":63,"Duration":69767,"SoundDuration":69767,"Delta":36347425},{"NoteNumber":59,"Velocity":58,"Duration":67567,"SoundDuration":67567,"Delta":36486960},{"NoteNumber":63,"Velocity":70,"Duration":67567,"SoundDuration":67567,"Delta":36486960},{"NoteNumber":54,"Velocity":63,"Duration":72815,"SoundDuration":72815,"Delta":36622095},{"NoteNumber":49,"Velocity":49,"Duration":72815,"SoundDuration":72815,"Delta":36622095},{"NoteNumber":59,"Velocity":50,"Duration":72815,"SoundDuration":72815,"Delta":36767726},{"NoteNumber":63,"Velocity":60,"Duration":72815,"SoundDuration":72815,"Delta":36767726},{"NoteNumber":58,"Velocity":56,"Duration":69444,"SoundDuration":69444,"Delta":36913357},{"NoteNumber":52,"Velocity":50,"Duration":69444,"SoundDuration":69444,"Delta":36913357},{"NoteNumber":60,"Velocity":56,"Duration":69444,"SoundDuration":69444,"Delta":36913357},{"NoteNumber":64,"Velocity":67,"Duration":69444,"SoundDuration":69444,"Delta":36913357},{"NoteNumber":48,"Velocity":61,"Duration":74257,"SoundDuration":74257,"Delta":37052246},{"NoteNumber":36,"Velocity":46,"Duration":74257,"SoundDuration":74257,"Delta":37052246},{"NoteNumber":58,"Velocity":48,"Duration":74257,"SoundDuration":74257,"Delta":37200761},{"NoteNumber":52,"Velocity":44,"Duration":74257,"SoundDuration":74257,"Delta":37200761},{"NoteNumber":60,"Velocity":48,"Duration":74257,"SoundDuration":74257,"Delta":37200761},{"NoteNumber":64,"Velocity":57,"Duration":74257,"SoundDuration":74257,"Delta":37200761},{"NoteNumber":57,"Velocity":48,"Duration":72115,"SoundDuration":72115,"Delta":37349275},{"NoteNumber":60,"Velocity":53,"Duration":72115,"SoundDuration":72115,"Delta":37349275},{"NoteNumber":65,"Velocity":64,"Duration":72115,"SoundDuration":72115,"Delta":37349275},{"NoteNumber":53,"Velocity":58,"Duration":77720,"SoundDuration":77720,"Delta":37493506},{"NoteNumber":41,"Velocity":44,"Duration":77720,"SoundDuration":77720,"Delta":37493506},{"NoteNumber":57,"Velocity":42,"Duration":85714,"SoundDuration":85714,"Delta":37648947},{"NoteNumber":60,"Velocity":45,"Duration":85714,"SoundDuration":85714,"Delta":37648947},{"NoteNumber":65,"Velocity":55,"Duration":85714,"SoundDuration":85714,"Delta":37648947},{"NoteNumber":65,"Velocity":50,"Duration":66079,"SoundDuration":66079,"Delta":37820375},{"NoteNumber":77,"Velocity":59,"Duration":66079,"SoundDuration":66079,"Delta":37820375},{"NoteNumber":53,"Velocity":54,"Duration":66079,"SoundDuration":66079,"Delta":37820375},{"NoteNumber":69,"Velocity":45,"Duration":63829,"SoundDuration":63829,"Delta":37952534},{"NoteNumber":72,"Velocity":54,"Duration":63829,"SoundDuration":63829,"Delta":37952534},{"NoteNumber":60,"Velocity":40,"Duration":63829,"SoundDuration":63829,"Delta":37952534},{"NoteNumber":62,"Velocity":46,"Duration":63829,"SoundDuration":63829,"Delta":38016363},{"NoteNumber":69,"Velocity":45,"Duration":67567,"SoundDuration":67567,"Delta":38080193},{"NoteNumber":72,"Velocity":54,"Duration":67567,"SoundDuration":67567,"Delta":38080193},{"NoteNumber":63,"Velocity":52,"Duration":67567,"SoundDuration":67567,"Delta":38080193},{"NoteNumber":67,"Velocity":50,"Duration":63829,"SoundDuration":63829,"Delta":38215328},{"NoteNumber":79,"Velocity":59,"Duration":63829,"SoundDuration":63829,"Delta":38215328},{"NoteNumber":48,"Velocity":54,"Duration":63829,"SoundDuration":63829,"Delta":38215328},{"NoteNumber":70,"Velocity":45,"Duration":64377,"SoundDuration":64377,"Delta":38342988},{"NoteNumber":75,"Velocity":54,"Duration":64377,"SoundDuration":64377,"Delta":38342988},{"NoteNumber":63,"Velocity":44,"Duration":64377,"SoundDuration":64377,"Delta":38342988},{"NoteNumber":65,"Velocity":49,"Duration":64377,"SoundDuration":64377,"Delta":38407366},{"NoteNumber":70,"Velocity":45,"Duration":71428,"SoundDuration":71428,"Delta":38471743},{"NoteNumber":75,"Velocity":54,"Duration":71428,"SoundDuration":71428,"Delta":38471743},{"NoteNumber":67,"Velocity":53,"Duration":71428,"SoundDuration":71428,"Delta":38471743},{"NoteNumber":65,"Velocity":50,"Duration":65502,"SoundDuration":65502,"Delta":38614600},{"NoteNumber":77,"Velocity":59,"Duration":65502,"SoundDuration":65502,"Delta":38614600},{"NoteNumber":53,"Velocity":54,"Duration":65502,"SoundDuration":65502,"Delta":38614600},{"NoteNumber":69,"Velocity":45,"Duration":64377,"SoundDuration":64377,"Delta":38745605},{"NoteNumber":72,"Velocity":54,"Duration":64377,"SoundDuration":64377,"Delta":38745605},{"NoteNumber":60,"Velocity":46,"Duration":64377,"SoundDuration":64377,"Delta":38745605},{"NoteNumber":62,"Velocity":50,"Duration":64377,"SoundDuration":64377,"Delta":38809982},{"NoteNumber":69,"Velocity":45,"Duration":67873,"SoundDuration":67873,"Delta":38874360},{"NoteNumber":72,"Velocity":54,"Duration":67873,"SoundDuration":67873,"Delta":38874360},{"NoteNumber":63,"Velocity":53,"Duration":67873,"SoundDuration":67873,"Delta":38874360},{"NoteNumber":67,"Velocity":50,"Duration":63784,"SoundDuration":63784,"Delta":39010106},{"NoteNumber":79,"Velocity":59,"Duration":63784,"SoundDuration":63784,"Delta":39010106},{"NoteNumber":48,"Velocity":54,"Duration":63784,"SoundDuration":63784,"Delta":39010106},{"NoteNumber":70,"Velocity":45,"Duration":65789,"SoundDuration":65789,"Delta":39137721},{"NoteNumber":75,"Velocity":54,"Duration":65789,"SoundDuration":65789,"Delta":39137721},{"NoteNumber":63,"Velocity":44,"Duration":65789,"SoundDuration":65789,"Delta":39137721},{"NoteNumber":65,"Velocity":46,"Duration":65789,"SoundDuration":65789,"Delta":39203510},{"NoteNumber":70,"Velocity":45,"Duration":70422,"SoundDuration":70422,"Delta":39269300},{"NoteNumber":75,"Velocity":54,"Duration":70422,"SoundDuration":70422,"Delta":39269300},{"NoteNumber":67,"Velocity":49,"Duration":70422,"SoundDuration":70422,"Delta":39269300},{"NoteNumber":65,"Velocity":50,"Duration":65502,"SoundDuration":65502,"Delta":39410145},{"NoteNumber":77,"Velocity":59,"Duration":65502,"SoundDuration":65502,"Delta":39410145},{"NoteNumber":53,"Velocity":54,"Duration":65502,"SoundDuration":65502,"Delta":39410145},{"NoteNumber":69,"Velocity":45,"Duration":65789,"SoundDuration":65789,"Delta":39541149},{"NoteNumber":72,"Velocity":55,"Duration":65789,"SoundDuration":65789,"Delta":39541149},{"NoteNumber":60,"Velocity":48,"Duration":65789,"SoundDuration":65789,"Delta":39541149},{"NoteNumber":62,"Velocity":52,"Duration":65789,"SoundDuration":65789,"Delta":39606939},{"NoteNumber":69,"Velocity":46,"Duration":67873,"SoundDuration":67873,"Delta":39672728},{"NoteNumber":72,"Velocity":56,"Duration":67873,"SoundDuration":67873,"Delta":39672728},{"NoteNumber":63,"Velocity":56,"Duration":67873,"SoundDuration":67873,"Delta":39672728},{"NoteNumber":69,"Velocity":53,"Duration":66964,"SoundDuration":66964,"Delta":39808475},{"NoteNumber":81,"Velocity":62,"Duration":66964,"SoundDuration":66964,"Delta":39808475},{"NoteNumber":72,"Velocity":48,"Duration":67873,"SoundDuration":67873,"Delta":39942403},{"NoteNumber":75,"Velocity":58,"Duration":67873,"SoundDuration":67873,"Delta":39942403},{"NoteNumber":63,"Velocity":54,"Duration":67873,"SoundDuration":67873,"Delta":39942403},{"NoteNumber":65,"Velocity":58,"Duration":67873,"SoundDuration":67873,"Delta":40010276},{"NoteNumber":72,"Velocity":50,"Duration":71089,"SoundDuration":71089,"Delta":40078150},{"NoteNumber":75,"Velocity":60,"Duration":71089,"SoundDuration":71089,"Delta":40078150},{"NoteNumber":67,"Velocity":61,"Duration":71089,"SoundDuration":71089,"Delta":40078150},{"NoteNumber":72,"Velocity":58,"Duration":68130,"SoundDuration":68130,"Delta":40220330},{"NoteNumber":84,"Velocity":68,"Duration":68130,"SoundDuration":68130,"Delta":40220330},{"NoteNumber":75,"Velocity":53,"Duration":70422,"SoundDuration":70422,"Delta":40356642},{"NoteNumber":79,"Velocity":64,"Duration":70422,"SoundDuration":70422,"Delta":40356642},{"NoteNumber":67,"Velocity":61,"Duration":70422,"SoundDuration":70422,"Delta":40356642},{"NoteNumber":69,"Velocity":65,"Duration":70422,"SoundDuration":70422,"Delta":40427064},{"NoteNumber":75,"Velocity":55,"Duration":72115,"SoundDuration":72115,"Delta":40497487},{"NoteNumber":79,"Velocity":67,"Duration":72115,"SoundDuration":72115,"Delta":40497487},{"NoteNumber":70,"Velocity":69,"Duration":72115,"SoundDuration":72115,"Delta":40497487},{"NoteNumber":73,"Velocity":64,"Duration":69767,"SoundDuration":69767,"Delta":40641718},{"NoteNumber":85,"Velocity":75,"Duration":69767,"SoundDuration":69767,"Delta":40641718},{"NoteNumber":75,"Velocity":53,"Duration":72115,"SoundDuration":72115,"Delta":40781253},{"NoteNumber":81,"Velocity":64,"Duration":72115,"SoundDuration":72115,"Delta":40781253},{"NoteNumber":65,"Velocity":62,"Duration":72115,"SoundDuration":72115,"Delta":40781253},{"NoteNumber":67,"Velocity":66,"Duration":72115,"SoundDuration":72115,"Delta":40853368},{"NoteNumber":75,"Velocity":55,"Duration":74626,"SoundDuration":74626,"Delta":40925483},{"NoteNumber":81,"Velocity":67,"Duration":74626,"SoundDuration":74626,"Delta":40925483},{"NoteNumber":69,"Velocity":70,"Duration":74626,"SoundDuration":74626,"Delta":40925483},{"NoteNumber":74,"Velocity":62,"Duration":63784,"SoundDuration":63784,"Delta":41074737},{"NoteNumber":86,"Velocity":62,"Duration":63784,"SoundDuration":63784,"Delta":41074737},{"NoteNumber":58,"Velocity":60,"Duration":63784,"SoundDuration":63784,"Delta":41074737},{"NoteNumber":77,"Velocity":45,"Duration":64655,"SoundDuration":64655,"Delta":41202352},{"NoteNumber":80,"Velocity":54,"Duration":64655,"SoundDuration":64655,"Delta":41202352},{"NoteNumber":65,"Velocity":49,"Duration":64655,"SoundDuration":64655,"Delta":41202352},{"NoteNumber":67,"Velocity":52,"Duration":64655,"SoundDuration":64655,"Delta":41267007},{"NoteNumber":77,"Velocity":45,"Duration":68493,"SoundDuration":68493,"Delta":41331662},{"NoteNumber":80,"Velocity":54,"Duration":68493,"SoundDuration":68493,"Delta":41331662},{"NoteNumber":68,"Velocity":55,"Duration":68493,"SoundDuration":68493,"Delta":41331662},{"NoteNumber":75,"Velocity":65,"Duration":63829,"SoundDuration":63829,"Delta":41468648},{"NoteNumber":87,"Velocity":65,"Duration":63829,"SoundDuration":63829,"Delta":41468648},{"NoteNumber":53,"Velocity":58,"Duration":63829,"SoundDuration":63829,"Delta":41468648},{"NoteNumber":80,"Velocity":45,"Duration":65789,"SoundDuration":65789,"Delta":41596308},{"NoteNumber":84,"Velocity":54,"Duration":65789,"SoundDuration":65789,"Delta":41596308},{"NoteNumber":68,"Velocity":49,"Duration":65789,"SoundDuration":65789,"Delta":41596308},{"NoteNumber":70,"Velocity":52,"Duration":65789,"SoundDuration":65789,"Delta":41662097},{"NoteNumber":80,"Velocity":45,"Duration":67873,"SoundDuration":67873,"Delta":41727887},{"NoteNumber":84,"Velocity":54,"Duration":67873,"SoundDuration":67873,"Delta":41727887},{"NoteNumber":72,"Velocity":55,"Duration":67873,"SoundDuration":67873,"Delta":41727887},{"NoteNumber":74,"Velocity":64,"Duration":63784,"SoundDuration":63784,"Delta":41863633},{"NoteNumber":86,"Velocity":64,"Duration":63784,"SoundDuration":63784,"Delta":41863633},{"NoteNumber":58,"Velocity":63,"Duration":63784,"SoundDuration":63784,"Delta":41863633},{"NoteNumber":77,"Velocity":45,"Duration":64655,"SoundDuration":64655,"Delta":41991248},{"NoteNumber":80,"Velocity":54,"Duration":64655,"SoundDuration":64655,"Delta":41991248},{"NoteNumber":65,"Velocity":51,"Duration":64655,"SoundDuration":64655,"Delta":41991248},{"NoteNumber":67,"Velocity":52,"Duration":64655,"SoundDuration":64655,"Delta":42055903},{"NoteNumber":77,"Velocity":45,"Duration":67873,"SoundDuration":67873,"Delta":42120558},{"NoteNumber":80,"Velocity":54,"Duration":67873,"SoundDuration":67873,"Delta":42120558},{"NoteNumber":68,"Velocity":54,"Duration":67873,"SoundDuration":67873,"Delta":42120558},{"NoteNumber":75,"Velocity":64,"Duration":63784,"SoundDuration":63784,"Delta":42256304},{"NoteNumber":87,"Velocity":64,"Duration":63784,"SoundDuration":63784,"Delta":42256304},{"NoteNumber":53,"Velocity":61,"Duration":63784,"SoundDuration":63784,"Delta":42256304},{"NoteNumber":80,"Velocity":45,"Duration":65789,"SoundDuration":65789,"Delta":42383919},{"NoteNumber":84,"Velocity":54,"Duration":65789,"SoundDuration":65789,"Delta":42383919},{"NoteNumber":68,"Velocity":49,"Duration":65789,"SoundDuration":65789,"Delta":42383919},{"NoteNumber":70,"Velocity":53,"Duration":65789,"SoundDuration":65789,"Delta":42449708},{"NoteNumber":80,"Velocity":45,"Duration":70422,"SoundDuration":70422,"Delta":42515498},{"NoteNumber":84,"Velocity":54,"Duration":70422,"SoundDuration":70422,"Delta":42515498},{"NoteNumber":72,"Velocity":56,"Duration":70422,"SoundDuration":70422,"Delta":42515498},{"NoteNumber":74,"Velocity":65,"Duration":65502,"SoundDuration":65502,"Delta":42656343},{"NoteNumber":86,"Velocity":65,"Duration":65502,"SoundDuration":65502,"Delta":42656343},{"NoteNumber":58,"Velocity":64,"Duration":65502,"SoundDuration":65502,"Delta":42656343},{"NoteNumber":80,"Velocity":45,"Duration":65789,"SoundDuration":65789,"Delta":42787347},{"NoteNumber":82,"Velocity":55,"Duration":65789,"SoundDuration":65789,"Delta":42787347},{"NoteNumber":68,"Velocity":49,"Duration":65789,"SoundDuration":65789,"Delta":42787347},{"NoteNumber":70,"Velocity":52,"Duration":65789,"SoundDuration":65789,"Delta":42853137},{"NoteNumber":80,"Velocity":46,"Duration":67873,"SoundDuration":67873,"Delta":42918926},{"NoteNumber":82,"Velocity":56,"Duration":67873,"SoundDuration":67873,"Delta":42918926},{"NoteNumber":74,"Velocity":54,"Duration":67873,"SoundDuration":67873,"Delta":42918926},{"NoteNumber":75,"Velocity":66,"Duration":66964,"SoundDuration":66964,"Delta":43054673},{"NoteNumber":87,"Velocity":66,"Duration":66964,"SoundDuration":66964,"Delta":43054673},{"NoteNumber":60,"Velocity":66,"Duration":66964,"SoundDuration":66964,"Delta":43054673},{"NoteNumber":80,"Velocity":48,"Duration":67873,"SoundDuration":67873,"Delta":43188601},{"NoteNumber":82,"Velocity":58,"Duration":67873,"SoundDuration":67873,"Delta":43188601},{"NoteNumber":68,"Velocity":51,"Duration":67873,"SoundDuration":67873,"Delta":43188601},{"NoteNumber":70,"Velocity":55,"Duration":67873,"SoundDuration":67873,"Delta":43256474},{"NoteNumber":80,"Velocity":50,"Duration":71089,"SoundDuration":71089,"Delta":43324348},{"NoteNumber":82,"Velocity":60,"Duration":71089,"SoundDuration":71089,"Delta":43324348},{"NoteNumber":75,"Velocity":60,"Duration":71089,"SoundDuration":71089,"Delta":43324348},{"NoteNumber":76,"Velocity":72,"Duration":68130,"SoundDuration":68130,"Delta":43466528},{"NoteNumber":88,"Velocity":72,"Duration":68130,"SoundDuration":68130,"Delta":43466528},{"NoteNumber":61,"Velocity":69,"Duration":68130,"SoundDuration":68130,"Delta":43466528},{"NoteNumber":80,"Velocity":53,"Duration":70422,"SoundDuration":70422,"Delta":43602840},{"NoteNumber":82,"Velocity":64,"Duration":70422,"SoundDuration":70422,"Delta":43602840},{"NoteNumber":68,"Velocity":55,"Duration":70422,"SoundDuration":70422,"Delta":43602840},{"NoteNumber":70,"Velocity":60,"Duration":70422,"SoundDuration":70422,"Delta":43673262},{"NoteNumber":80,"Velocity":55,"Duration":72115,"SoundDuration":72115,"Delta":43743685},{"NoteNumber":82,"Velocity":67,"Duration":72115,"SoundDuration":72115,"Delta":43743685},{"NoteNumber":76,"Velocity":65,"Duration":72115,"SoundDuration":72115,"Delta":43743685},{"NoteNumber":77,"Velocity":64,"Duration":69767,"SoundDuration":69767,"Delta":43887916},{"NoteNumber":89,"Velocity":75,"Duration":69767,"SoundDuration":69767,"Delta":43887916},{"NoteNumber":62,"Velocity":71,"Duration":69767,"SoundDuration":69767,"Delta":43887916},{"NoteNumber":80,"Velocity":53,"Duration":72115,"SoundDuration":72115,"Delta":44027451},{"NoteNumber":82,"Velocity":64,"Duration":72115,"SoundDuration":72115,"Delta":44027451},{"NoteNumber":68,"Velocity":58,"Duration":72115,"SoundDuration":72115,"Delta":44027451},{"NoteNumber":70,"Velocity":61,"Duration":72115,"SoundDuration":72115,"Delta":44099566},{"NoteNumber":80,"Velocity":55,"Duration":77319,"SoundDuration":77319,"Delta":44171681},{"NoteNumber":82,"Velocity":67,"Duration":77319,"SoundDuration":77319,"Delta":44171681},{"NoteNumber":77,"Velocity":63,"Duration":77319,"SoundDuration":77319,"Delta":44171681},{"NoteNumber":79,"Velocity":49,"Duration":66964,"SoundDuration":66964,"Delta":44326321},{"NoteNumber":91,"Velocity":57,"Duration":66964,"SoundDuration":66964,"Delta":44326321},{"NoteNumber":63,"Velocity":35,"Duration":66964,"SoundDuration":66964,"Delta":44326321},{"NoteNumber":83,"Velocity":44,"Duration":65789,"SoundDuration":65789,"Delta":44460249},{"NoteNumber":86,"Velocity":52,"Duration":65789,"SoundDuration":65789,"Delta":44460249},{"NoteNumber":71,"Velocity":30,"Duration":65789,"SoundDuration":65789,"Delta":44460249},{"NoteNumber":72,"Velocity":30,"Duration":65789,"SoundDuration":65789,"Delta":44526039},{"NoteNumber":83,"Velocity":44,"Duration":70422,"SoundDuration":70422,"Delta":44591828},{"NoteNumber":86,"Velocity":52,"Duration":70422,"SoundDuration":70422,"Delta":44591828},{"NoteNumber":74,"Velocity":33,"Duration":70422,"SoundDuration":70422,"Delta":44591828},{"NoteNumber":84,"Velocity":49,"Duration":67292,"SoundDuration":67292,"Delta":44732673},{"NoteNumber":96,"Velocity":57,"Duration":67292,"SoundDuration":67292,"Delta":44732673},{"NoteNumber":72,"Velocity":35,"Duration":67292,"SoundDuration":67292,"Delta":44732673},{"NoteNumber":87,"Velocity":44,"Duration":65789,"SoundDuration":65789,"Delta":44866632},{"NoteNumber":91,"Velocity":52,"Duration":65789,"SoundDuration":65789,"Delta":44866632},{"NoteNumber":75,"Velocity":30,"Duration":65789,"SoundDuration":65789,"Delta":44866632},{"NoteNumber":77,"Velocity":30,"Duration":65789,"SoundDuration":65789,"Delta":44932422},{"NoteNumber":87,"Velocity":44,"Duration":70093,"SoundDuration":70093,"Delta":44998211},{"NoteNumber":91,"Velocity":52,"Duration":70093,"SoundDuration":70093,"Delta":44998211},{"NoteNumber":79,"Velocity":33,"Duration":70093,"SoundDuration":70093,"Delta":44998211},{"NoteNumber":79,"Velocity":49,"Duration":66964,"SoundDuration":66964,"Delta":45138398},{"NoteNumber":91,"Velocity":57,"Duration":66964,"SoundDuration":66964,"Delta":45138398},{"NoteNumber":63,"Velocity":35,"Duration":66964,"SoundDuration":66964,"Delta":45138398},{"NoteNumber":83,"Velocity":44,"Duration":65789,"SoundDuration":65789,"Delta":45272327},{"NoteNumber":86,"Velocity":52,"Duration":65789,"SoundDuration":65789,"Delta":45272327},{"NoteNumber":71,"Velocity":30,"Duration":65789,"SoundDuration":65789,"Delta":45272327},{"NoteNumber":72,"Velocity":30,"Duration":65789,"SoundDuration":65789,"Delta":45338116},{"NoteNumber":83,"Velocity":44,"Duration":69767,"SoundDuration":69767,"Delta":45403906},{"NoteNumber":86,"Velocity":52,"Duration":69767,"SoundDuration":69767,"Delta":45403906},{"NoteNumber":74,"Velocity":33,"Duration":69767,"SoundDuration":69767,"Delta":45403906},{"NoteNumber":84,"Velocity":49,"Duration":66964,"SoundDuration":66964,"Delta":45543441},{"NoteNumber":96,"Velocity":57,"Duration":66964,"SoundDuration":66964,"Delta":45543441},{"NoteNumber":72,"Velocity":35,"Duration":66964,"SoundDuration":66964,"Delta":45543441},{"NoteNumber":87,"Velocity":44,"Duration":65789,"SoundDuration":65789,"Delta":45677369},{"NoteNumber":91,"Velocity":52,"Duration":65789,"SoundDuration":65789,"Delta":45677369},{"NoteNumber":75,"Velocity":30,"Duration":65789,"SoundDuration":65789,"Delta":45677369},{"NoteNumber":77,"Velocity":30,"Duration":65789,"SoundDuration":65789,"Delta":45743159},{"NoteNumber":87,"Velocity":44,"Duration":73529,"SoundDuration":73529,"Delta":45808948},{"NoteNumber":91,"Velocity":52,"Duration":73529,"SoundDuration":73529,"Delta":45808948},{"NoteNumber":79,"Velocity":33,"Duration":73529,"SoundDuration":73529,"Delta":45808948},{"NoteNumber":78,"Velocity":44,"Duration":71428,"SoundDuration":71428,"Delta":45955657},{"NoteNumber":63,"Velocity":45,"Duration":71428,"SoundDuration":71428,"Delta":45955657},{"NoteNumber":79,"Velocity":46,"Duration":71315,"SoundDuration":71315,"Delta":46027086},{"NoteNumber":80,"Velocity":47,"Duration":71089,"SoundDuration":71089,"Delta":46098401},{"NoteNumber":71,"Velocity":39,"Duration":71089,"SoundDuration":71089,"Delta":46098401},{"NoteNumber":81,"Velocity":48,"Duration":70866,"SoundDuration":70866,"Delta":46169491},{"NoteNumber":82,"Velocity":49,"Duration":70754,"SoundDuration":70754,"Delta":46240358},{"NoteNumber":74,"Velocity":40,"Duration":70754,"SoundDuration":70754,"Delta":46240358},{"NoteNumber":83,"Velocity":50,"Duration":70477,"SoundDuration":70477,"Delta":46311113},{"NoteNumber":84,"Velocity":52,"Duration":70367,"SoundDuration":70367,"Delta":46381590},{"NoteNumber":79,"Velocity":46,"Duration":70367,"SoundDuration":70367,"Delta":46381590},{"NoteNumber":85,"Velocity":54,"Duration":70093,"SoundDuration":70093,"Delta":46451958},{"NoteNumber":86,"Velocity":54,"Duration":69984,"SoundDuration":69984,"Delta":46522052},{"NoteNumber":74,"Velocity":41,"Duration":69984,"SoundDuration":69984,"Delta":46522052},{"NoteNumber":87,"Velocity":55,"Duration":69767,"SoundDuration":69767,"Delta":46592036},{"NoteNumber":88,"Velocity":55,"Duration":69552,"SoundDuration":69552,"Delta":46661804},{"NoteNumber":71,"Velocity":41,"Duration":69552,"SoundDuration":69552,"Delta":46661804},{"NoteNumber":89,"Velocity":56,"Duration":69338,"SoundDuration":69338,"Delta":46731356},{"NoteNumber":90,"Velocity":56,"Duration":68807,"SoundDuration":68807,"Delta":46800694},{"NoteNumber":63,"Velocity":47,"Duration":68807,"SoundDuration":68807,"Delta":46800694},{"NoteNumber":91,"Velocity":57,"Duration":68807,"SoundDuration":68807,"Delta":46869502},{"NoteNumber":92,"Velocity":58,"Duration":68807,"SoundDuration":68807,"Delta":46938309},{"NoteNumber":72,"Velocity":40,"Duration":68807,"SoundDuration":68807,"Delta":46938309},{"NoteNumber":93,"Velocity":58,"Duration":68807,"SoundDuration":68807,"Delta":47007117},{"NoteNumber":94,"Velocity":59,"Duration":68807,"SoundDuration":68807,"Delta":47075924},{"NoteNumber":75,"Velocity":41,"Duration":68807,"SoundDuration":68807,"Delta":47075924},{"NoteNumber":95,"Velocity":59,"Duration":68807,"SoundDuration":68807,"Delta":47144731},{"NoteNumber":98,"Velocity":60,"Duration":69182,"SoundDuration":69182,"Delta":47213539},{"NoteNumber":79,"Velocity":47,"Duration":375046,"SoundDuration":375046,"Delta":47213539},{"NoteNumber":96,"Velocity":55,"Duration":71837,"SoundDuration":71837,"Delta":47282721},{"NoteNumber":91,"Velocity":51,"Duration":74885,"SoundDuration":74885,"Delta":47354558},{"NoteNumber":87,"Velocity":47,"Duration":78205,"SoundDuration":78205,"Delta":47429444},{"NoteNumber":84,"Velocity":43,"Duration":80936,"SoundDuration":80936,"Delta":47507649},{"NoteNumber":77,"Velocity":42,"Duration":66964,"SoundDuration":66964,"Delta":47710537},{"NoteNumber":89,"Velocity":51,"Duration":66964,"SoundDuration":66964,"Delta":47710537},{"NoteNumber":63,"Velocity":35,"Duration":66964,"SoundDuration":66964,"Delta":47710537},{"NoteNumber":81,"Velocity":41,"Duration":65789,"SoundDuration":65789,"Delta":47844465},{"NoteNumber":84,"Velocity":50,"Duration":65789,"SoundDuration":65789,"Delta":47844465},{"NoteNumber":69,"Velocity":30,"Duration":65789,"SoundDuration":65789,"Delta":47844465},{"NoteNumber":70,"Velocity":30,"Duration":65789,"SoundDuration":65789,"Delta":47910255},{"NoteNumber":81,"Velocity":41,"Duration":70422,"SoundDuration":70422,"Delta":47976044},{"NoteNumber":84,"Velocity":50,"Duration":70422,"SoundDuration":70422,"Delta":47976044},{"NoteNumber":72,"Velocity":33,"Duration":70422,"SoundDuration":70422,"Delta":47976044},{"NoteNumber":84,"Velocity":47,"Duration":67292,"SoundDuration":67292,"Delta":48116889},{"NoteNumber":96,"Velocity":55,"Duration":67292,"SoundDuration":67292,"Delta":48116889},{"NoteNumber":72,"Velocity":35,"Duration":67292,"SoundDuration":67292,"Delta":48116889},{"NoteNumber":87,"Velocity":41,"Duration":65789,"SoundDuration":65789,"Delta":48250849},{"NoteNumber":90,"Velocity":50,"Duration":65789,"SoundDuration":65789,"Delta":48250849},{"NoteNumber":75,"Velocity":30,"Duration":65789,"SoundDuration":65789,"Delta":48250849},{"NoteNumber":77,"Velocity":30,"Duration":65789,"SoundDuration":65789,"Delta":48316638},{"NoteNumber":87,"Velocity":41,"Duration":70093,"SoundDuration":70093,"Delta":48382428},{"NoteNumber":90,"Velocity":50,"Duration":70093,"SoundDuration":70093,"Delta":48382428},{"NoteNumber":78,"Velocity":33,"Duration":70093,"SoundDuration":70093,"Delta":48382428},{"NoteNumber":77,"Velocity":47,"Duration":66964,"SoundDuration":66964,"Delta":48522615},{"NoteNumber":89,"Velocity":55,"Duration":66964,"SoundDuration":66964,"Delta":48522615},{"NoteNumber":63,"Velocity":35,"Duration":66964,"SoundDuration":66964,"Delta":48522615},{"NoteNumber":81,"Velocity":41,"Duration":65789,"SoundDuration":65789,"Delta":48656543},{"NoteNumber":84,"Velocity":50,"Duration":65789,"SoundDuration":65789,"Delta":48656543},{"NoteNumber":69,"Velocity":30,"Duration":65789,"SoundDuration":65789,"Delta":48656543},{"NoteNumber":70,"Velocity":30,"Duration":65789,"SoundDuration":65789,"Delta":48722333},{"NoteNumber":81,"Velocity":41,"Duration":69767,"SoundDuration":69767,"Delta":48788122},{"NoteNumber":84,"Velocity":50,"Duration":69767,"SoundDuration":69767,"Delta":48788122},{"NoteNumber":72,"Velocity":33,"Duration":69767,"SoundDuration":69767,"Delta":48788122},{"NoteNumber":84,"Velocity":47,"Duration":66964,"SoundDuration":66964,"Delta":48927657},{"NoteNumber":96,"Velocity":55,"Duration":66964,"SoundDuration":66964,"Delta":48927657},{"NoteNumber":72,"Velocity":35,"Duration":66964,"SoundDuration":66964,"Delta":48927657},{"NoteNumber":87,"Velocity":41,"Duration":65789,"SoundDuration":65789,"Delta":49061586},{"NoteNumber":90,"Velocity":50,"Duration":65789,"SoundDuration":65789,"Delta":49061586},{"NoteNumber":75,"Velocity":30,"Duration":65789,"SoundDuration":65789,"Delta":49061586},{"NoteNumber":77,"Velocity":30,"Duration":65789,"SoundDuration":65789,"Delta":49127375},{"NoteNumber":87,"Velocity":41,"Duration":73529,"SoundDuration":73529,"Delta":49193165},{"NoteNumber":90,"Velocity":50,"Duration":73529,"SoundDuration":73529,"Delta":49193165},{"NoteNumber":78,"Velocity":33,"Duration":73529,"SoundDuration":73529,"Delta":49193165},{"NoteNumber":76,"Velocity":46,"Duration":71428,"SoundDuration":71428,"Delta":49339873},{"NoteNumber":63,"Velocity":45,"Duration":71428,"SoundDuration":71428,"Delta":49339873},{"NoteNumber":77,"Velocity":47,"Duration":71315,"SoundDuration":71315,"Delta":49411302},{"NoteNumber":78,"Velocity":48,"Duration":71089,"SoundDuration":71089,"Delta":49482618},{"NoteNumber":69,"Velocity":39,"Duration":71089,"SoundDuration":71089,"Delta":49482618},{"NoteNumber":79,"Velocity":49,"Duration":70866,"SoundDuration":70866,"Delta":49553708},{"NoteNumber":80,"Velocity":50,"Duration":70754,"SoundDuration":70754,"Delta":49624574},{"NoteNumber":72,"Velocity":40,"Duration":70754,"SoundDuration":70754,"Delta":49624574},{"NoteNumber":81,"Velocity":51,"Duration":70477,"SoundDuration":70477,"Delta":49695329},{"NoteNumber":82,"Velocity":52,"Duration":70367,"SoundDuration":70367,"Delta":49765807},{"NoteNumber":77,"Velocity":46,"Duration":70367,"SoundDuration":70367,"Delta":49765807},{"NoteNumber":83,"Velocity":53,"Duration":70093,"SoundDuration":70093,"Delta":49836174},{"NoteNumber":84,"Velocity":54,"Duration":69984,"SoundDuration":69984,"Delta":49906268},{"NoteNumber":72,"Velocity":41,"Duration":69984,"SoundDuration":69984,"Delta":49906268},{"NoteNumber":85,"Velocity":55,"Duration":69767,"SoundDuration":69767,"Delta":49976253},{"NoteNumber":86,"Velocity":55,"Duration":69552,"SoundDuration":69552,"Delta":50046020},{"NoteNumber":69,"Velocity":41,"Duration":69552,"SoundDuration":69552,"Delta":50046020},{"NoteNumber":87,"Velocity":56,"Duration":69338,"SoundDuration":69338,"Delta":50115572},{"NoteNumber":88,"Velocity":57,"Duration":68807,"SoundDuration":68807,"Delta":50184911},{"NoteNumber":62,"Velocity":47,"Duration":68807,"SoundDuration":68807,"Delta":50184911},{"NoteNumber":89,"Velocity":57,"Duration":68807,"SoundDuration":68807,"Delta":50253718},{"NoteNumber":90,"Velocity":58,"Duration":68807,"SoundDuration":68807,"Delta":50322525},{"NoteNumber":70,"Velocity":40,"Duration":68807,"SoundDuration":68807,"Delta":50322525},{"NoteNumber":91,"Velocity":58,"Duration":68807,"SoundDuration":68807,"Delta":50391333},{"NoteNumber":92,"Velocity":59,"Duration":68807,"SoundDuration":68807,"Delta":50460140},{"NoteNumber":74,"Velocity":41,"Duration":68807,"SoundDuration":68807,"Delta":50460140},{"NoteNumber":93,"Velocity":59,"Duration":68807,"SoundDuration":68807,"Delta":50528948},{"NoteNumber":96,"Velocity":60,"Duration":69182,"SoundDuration":69182,"Delta":50597755},{"NoteNumber":77,"Velocity":47,"Duration":375046,"SoundDuration":375046,"Delta":50597755},{"NoteNumber":94,"Velocity":55,"Duration":71837,"SoundDuration":71837,"Delta":50666937},{"NoteNumber":89,"Velocity":51,"Duration":74885,"SoundDuration":74885,"Delta":50738774},{"NoteNumber":86,"Velocity":47,"Duration":78205,"SoundDuration":78205,"Delta":50813660},{"NoteNumber":82,"Velocity":43,"Duration":80936,"SoundDuration":80936,"Delta":50891865},{"NoteNumber":74,"Velocity":39,"Duration":67567,"SoundDuration":67567,"Delta":51121317},{"NoteNumber":86,"Velocity":47,"Duration":67567,"SoundDuration":67567,"Delta":51121317},{"NoteNumber":60,"Velocity":38,"Duration":67567,"SoundDuration":67567,"Delta":51121317},{"NoteNumber":78,"Velocity":38,"Duration":65789,"SoundDuration":65789,"Delta":51256452},{"NoteNumber":81,"Velocity":46,"Duration":65789,"SoundDuration":65789,"Delta":51256452},{"NoteNumber":66,"Velocity":33,"Duration":65789,"SoundDuration":65789,"Delta":51256452},{"NoteNumber":67,"Velocity":33,"Duration":65789,"SoundDuration":65789,"Delta":51322241},{"NoteNumber":78,"Velocity":38,"Duration":67264,"SoundDuration":67264,"Delta":51388031},{"NoteNumber":81,"Velocity":46,"Duration":67264,"SoundDuration":67264,"Delta":51388031},{"NoteNumber":69,"Velocity":36,"Duration":67264,"SoundDuration":67264,"Delta":51388031},{"NoteNumber":79,"Velocity":43,"Duration":64102,"SoundDuration":64102,"Delta":51522560},{"NoteNumber":91,"Velocity":50,"Duration":64102,"SoundDuration":64102,"Delta":51522560},{"NoteNumber":58,"Velocity":38,"Duration":64102,"SoundDuration":64102,"Delta":51522560},{"NoteNumber":82,"Velocity":38,"Duration":65789,"SoundDuration":65789,"Delta":51650765},{"NoteNumber":86,"Velocity":46,"Duration":65789,"SoundDuration":65789,"Delta":51650765},{"NoteNumber":67,"Velocity":33,"Duration":65789,"SoundDuration":65789,"Delta":51650765},{"NoteNumber":70,"Velocity":33,"Duration":65789,"SoundDuration":65789,"Delta":51716555},{"NoteNumber":82,"Velocity":38,"Duration":70093,"SoundDuration":70093,"Delta":51782344},{"NoteNumber":86,"Velocity":46,"Duration":70093,"SoundDuration":70093,"Delta":51782344},{"NoteNumber":74,"Velocity":36,"Duration":70093,"SoundDuration":70093,"Delta":51782344},{"NoteNumber":72,"Velocity":39,"Duration":64655,"SoundDuration":64655,"Delta":51922531},{"NoteNumber":84,"Velocity":47,"Duration":64655,"SoundDuration":64655,"Delta":51922531},{"NoteNumber":58,"Velocity":38,"Duration":64655,"SoundDuration":64655,"Delta":51922531},{"NoteNumber":76,"Velocity":38,"Duration":65789,"SoundDuration":65789,"Delta":52051842},{"NoteNumber":79,"Velocity":46,"Duration":65789,"SoundDuration":65789,"Delta":52051842},{"NoteNumber":64,"Velocity":33,"Duration":65789,"SoundDuration":65789,"Delta":52051842},{"NoteNumber":65,"Velocity":33,"Duration":65789,"SoundDuration":65789,"Delta":52117631},{"NoteNumber":76,"Velocity":38,"Duration":67567,"SoundDuration":67567,"Delta":52183421},{"NoteNumber":79,"Velocity":46,"Duration":67567,"SoundDuration":67567,"Delta":52183421},{"NoteNumber":67,"Velocity":36,"Duration":67567,"SoundDuration":67567,"Delta":52183421},{"NoteNumber":77,"Velocity":43,"Duration":64102,"SoundDuration":64102,"Delta":52318556},{"NoteNumber":89,"Velocity":50,"Duration":64102,"SoundDuration":64102,"Delta":52318556},{"NoteNumber":57,"Velocity":38,"Duration":64102,"SoundDuration":64102,"Delta":52318556},{"NoteNumber":81,"Velocity":38,"Duration":65789,"SoundDuration":65789,"Delta":52446761},{"NoteNumber":84,"Velocity":46,"Duration":65789,"SoundDuration":65789,"Delta":52446761},{"NoteNumber":65,"Velocity":33,"Duration":65789,"SoundDuration":65789,"Delta":52446761},{"NoteNumber":69,"Velocity":33,"Duration":65789,"SoundDuration":65789,"Delta":52512551},{"NoteNumber":81,"Velocity":38,"Duration":70093,"SoundDuration":70093,"Delta":52578340},{"NoteNumber":84,"Velocity":46,"Duration":70093,"SoundDuration":70093,"Delta":52578340},{"NoteNumber":72,"Velocity":36,"Duration":70093,"SoundDuration":70093,"Delta":52578340},{"NoteNumber":74,"Velocity":39,"Duration":64655,"SoundDuration":64655,"Delta":52718527},{"NoteNumber":86,"Velocity":47,"Duration":64655,"SoundDuration":64655,"Delta":52718527},{"NoteNumber":60,"Velocity":38,"Duration":64655,"SoundDuration":64655,"Delta":52718527},{"NoteNumber":78,"Velocity":38,"Duration":65789,"SoundDuration":65789,"Delta":52847837},{"NoteNumber":81,"Velocity":46,"Duration":65789,"SoundDuration":65789,"Delta":52847837},{"NoteNumber":66,"Velocity":33,"Duration":65789,"SoundDuration":65789,"Delta":52847837},{"NoteNumber":67,"Velocity":33,"Duration":65789,"SoundDuration":65789,"Delta":52913627},{"NoteNumber":78,"Velocity":38,"Duration":67264,"SoundDuration":67264,"Delta":52979416},{"NoteNumber":81,"Velocity":46,"Duration":67264,"SoundDuration":67264,"Delta":52979416},{"NoteNumber":69,"Velocity":36,"Duration":67264,"SoundDuration":67264,"Delta":52979416},{"NoteNumber":79,"Velocity":43,"Duration":64102,"SoundDuration":64102,"Delta":53113946},{"NoteNumber":91,"Velocity":50,"Duration":64102,"SoundDuration":64102,"Delta":53113946},{"NoteNumber":58,"Velocity":38,"Duration":64102,"SoundDuration":64102,"Delta":53113946},{"NoteNumber":82,"Velocity":38,"Duration":65789,"SoundDuration":65789,"Delta":53242151},{"NoteNumber":86,"Velocity":46,"Duration":65789,"SoundDuration":65789,"Delta":53242151},{"NoteNumber":67,"Velocity":33,"Duration":65789,"SoundDuration":65789,"Delta":53242151},{"NoteNumber":70,"Velocity":33,"Duration":65789,"SoundDuration":65789,"Delta":53307940},{"NoteNumber":82,"Velocity":38,"Duration":70093,"SoundDuration":70093,"Delta":53373730},{"NoteNumber":86,"Velocity":46,"Duration":70093,"SoundDuration":70093,"Delta":53373730},{"NoteNumber":74,"Velocity":36,"Duration":70093,"SoundDuration":70093,"Delta":53373730},{"NoteNumber":72,"Velocity":39,"Duration":64655,"SoundDuration":64655,"Delta":53513917},{"NoteNumber":84,"Velocity":47,"Duration":64655,"SoundDuration":64655,"Delta":53513917},{"NoteNumber":58,"Velocity":38,"Duration":64655,"SoundDuration":64655,"Delta":53513917},{"NoteNumber":76,"Velocity":38,"Duration":65789,"SoundDuration":65789,"Delta":53643227},{"NoteNumber":79,"Velocity":46,"Duration":65789,"SoundDuration":65789,"Delta":53643227},{"NoteNumber":64,"Velocity":33,"Duration":65789,"SoundDuration":65789,"Delta":53643227},{"NoteNumber":65,"Velocity":33,"Duration":65789,"SoundDuration":65789,"Delta":53709017},{"NoteNumber":76,"Velocity":38,"Duration":67264,"SoundDuration":67264,"Delta":53774806},{"NoteNumber":79,"Velocity":46,"Duration":67264,"SoundDuration":67264,"Delta":53774806},{"NoteNumber":67,"Velocity":36,"Duration":67264,"SoundDuration":67264,"Delta":53774806},{"NoteNumber":77,"Velocity":43,"Duration":64102,"SoundDuration":64102,"Delta":53909335},{"NoteNumber":89,"Velocity":50,"Duration":64102,"SoundDuration":64102,"Delta":53909335},{"NoteNumber":57,"Velocity":38,"Duration":64102,"SoundDuration":64102,"Delta":53909335},{"NoteNumber":81,"Velocity":38,"Duration":65789,"SoundDuration":65789,"Delta":54037541},{"NoteNumber":84,"Velocity":46,"Duration":65789,"SoundDuration":65789,"Delta":54037541},{"NoteNumber":65,"Velocity":33,"Duration":65789,"SoundDuration":65789,"Delta":54037541},{"NoteNumber":69,"Velocity":33,"Duration":65789,"SoundDuration":65789,"Delta":54103330},{"NoteNumber":81,"Velocity":38,"Duration":77319,"SoundDuration":77319,"Delta":54169120},{"NoteNumber":84,"Velocity":46,"Duration":77319,"SoundDuration":77319,"Delta":54169120},{"NoteNumber":72,"Velocity":36,"Duration":77319,"SoundDuration":77319,"Delta":54169120},{"NoteNumber":82,"Velocity":68,"Duration":66371,"SoundDuration":66371,"Delta":54323759},{"NoteNumber":90,"Velocity":78,"Duration":66371,"SoundDuration":66371,"Delta":54323759},{"NoteNumber":60,"Velocity":59,"Duration":66371,"SoundDuration":66371,"Delta":54323759},{"NoteNumber":78,"Velocity":53,"Duration":66964,"SoundDuration":66964,"Delta":54456502},{"NoteNumber":87,"Velocity":53,"Duration":66964,"SoundDuration":66964,"Delta":54456502},{"NoteNumber":66,"Velocity":40,"Duration":66964,"SoundDuration":66964,"Delta":54456502},{"NoteNumber":70,"Velocity":41,"Duration":66964,"SoundDuration":66964,"Delta":54523466},{"NoteNumber":78,"Velocity":53,"Duration":67264,"SoundDuration":67264,"Delta":54590431},{"NoteNumber":87,"Velocity":53,"Duration":67264,"SoundDuration":67264,"Delta":54590431},{"NoteNumber":75,"Velocity":47,"Duration":67264,"SoundDuration":67264,"Delta":54590431},{"NoteNumber":81,"Velocity":62,"Duration":66079,"SoundDuration":66079,"Delta":54724960},{"NoteNumber":89,"Velocity":71,"Duration":66079,"SoundDuration":66079,"Delta":54724960},{"NoteNumber":60,"Velocity":56,"Duration":66079,"SoundDuration":66079,"Delta":54724960},{"NoteNumber":87,"Velocity":55,"Duration":67567,"SoundDuration":67567,"Delta":54857118},{"NoteNumber":77,"Velocity":55,"Duration":67567,"SoundDuration":67567,"Delta":54857118},{"NoteNumber":65,"Velocity":48,"Duration":67567,"SoundDuration":67567,"Delta":54857118},{"NoteNumber":69,"Velocity":48,"Duration":67567,"SoundDuration":67567,"Delta":54924686},{"NoteNumber":87,"Velocity":53,"Duration":72463,"SoundDuration":72463,"Delta":54992254},{"NoteNumber":77,"Velocity":53,"Duration":72463,"SoundDuration":72463,"Delta":54992254},{"NoteNumber":75,"Velocity":50,"Duration":72463,"SoundDuration":72463,"Delta":54992254},{"NoteNumber":82,"Velocity":77,"Duration":66371,"SoundDuration":66371,"Delta":55137181},{"NoteNumber":90,"Velocity":86,"Duration":66371,"SoundDuration":66371,"Delta":55137181},{"NoteNumber":60,"Velocity":64,"Duration":66371,"SoundDuration":66371,"Delta":55137181},{"NoteNumber":78,"Velocity":59,"Duration":67264,"SoundDuration":67264,"Delta":55269924},{"NoteNumber":87,"Velocity":59,"Duration":67264,"SoundDuration":67264,"Delta":55269924},{"NoteNumber":66,"Velocity":51,"Duration":67264,"SoundDuration":67264,"Delta":55269924},{"NoteNumber":70,"Velocity":51,"Duration":67264,"SoundDuration":67264,"Delta":55337189},{"NoteNumber":78,"Velocity":61,"Duration":67264,"SoundDuration":67264,"Delta":55404454},{"NoteNumber":87,"Velocity":61,"Duration":67264,"SoundDuration":67264,"Delta":55404454},{"NoteNumber":75,"Velocity":55,"Duration":67264,"SoundDuration":67264,"Delta":55404454},{"NoteNumber":81,"Velocity":68,"Duration":65789,"SoundDuration":65789,"Delta":55538983},{"NoteNumber":89,"Velocity":78,"Duration":65789,"SoundDuration":65789,"Delta":55538983},{"NoteNumber":60,"Velocity":61,"Duration":65789,"SoundDuration":65789,"Delta":55538983},{"NoteNumber":77,"Velocity":61,"Duration":67264,"SoundDuration":67264,"Delta":55670562},{"NoteNumber":87,"Velocity":61,"Duration":67264,"SoundDuration":67264,"Delta":55670562},{"NoteNumber":65,"Velocity":51,"Duration":67264,"SoundDuration":67264,"Delta":55670562},{"NoteNumber":69,"Velocity":51,"Duration":67264,"SoundDuration":67264,"Delta":55737826},{"NoteNumber":77,"Velocity":59,"Duration":71770,"SoundDuration":71770,"Delta":55805091},{"NoteNumber":87,"Velocity":59,"Duration":71770,"SoundDuration":71770,"Delta":55805091},{"NoteNumber":75,"Velocity":57,"Duration":71770,"SoundDuration":71770,"Delta":55805091},{"NoteNumber":82,"Velocity":67,"Duration":67264,"SoundDuration":67264,"Delta":55948632},{"NoteNumber":90,"Velocity":79,"Duration":67264,"SoundDuration":67264,"Delta":55948632},{"NoteNumber":60,"Velocity":58,"Duration":67264,"SoundDuration":67264,"Delta":55948632},{"NoteNumber":70,"Velocity":69,"Duration":67264,"SoundDuration":67264,"Delta":55948632},{"NoteNumber":87,"Velocity":72,"Duration":69767,"SoundDuration":69767,"Delta":56083161},{"NoteNumber":78,"Velocity":60,"Duration":69767,"SoundDuration":69767,"Delta":56083161},{"NoteNumber":66,"Velocity":51,"Duration":69767,"SoundDuration":69767,"Delta":56083161},{"NoteNumber":75,"Velocity":60,"Duration":69767,"SoundDuration":69767,"Delta":56083161},{"NoteNumber":82,"Velocity":71,"Duration":67264,"SoundDuration":67264,"Delta":56222696},{"NoteNumber":90,"Velocity":85,"Duration":67264,"SoundDuration":67264,"Delta":56222696},{"NoteNumber":60,"Velocity":58,"Duration":67264,"SoundDuration":67264,"Delta":56222696},{"NoteNumber":70,"Velocity":69,"Duration":67264,"SoundDuration":67264,"Delta":56222696},{"NoteNumber":87,"Velocity":77,"Duration":70093,"SoundDuration":70093,"Delta":56357225},{"NoteNumber":78,"Velocity":77,"Duration":70093,"SoundDuration":70093,"Delta":56357225},{"NoteNumber":66,"Velocity":49,"Duration":70093,"SoundDuration":70093,"Delta":56357225},{"NoteNumber":75,"Velocity":58,"Duration":70093,"SoundDuration":70093,"Delta":56357225},{"NoteNumber":82,"Velocity":63,"Duration":68493,"SoundDuration":68493,"Delta":56497412},{"NoteNumber":90,"Velocity":88,"Duration":68493,"SoundDuration":68493,"Delta":56497412},{"NoteNumber":60,"Velocity":58,"Duration":68493,"SoundDuration":68493,"Delta":56497412},{"NoteNumber":70,"Velocity":70,"Duration":68493,"SoundDuration":68493,"Delta":56497412},{"NoteNumber":87,"Velocity":81,"Duration":74257,"SoundDuration":74257,"Delta":56634399},{"NoteNumber":78,"Velocity":67,"Duration":74257,"SoundDuration":74257,"Delta":56634399},{"NoteNumber":66,"Velocity":50,"Duration":74257,"SoundDuration":74257,"Delta":56634399},{"NoteNumber":75,"Velocity":59,"Duration":74257,"SoundDuration":74257,"Delta":56634399},{"NoteNumber":82,"Velocity":73,"Duration":70093,"SoundDuration":70093,"Delta":56782913},{"NoteNumber":90,"Velocity":86,"Duration":70093,"SoundDuration":70093,"Delta":56782913},{"NoteNumber":61,"Velocity":60,"Duration":70093,"SoundDuration":70093,"Delta":56782913},{"NoteNumber":70,"Velocity":71,"Duration":70093,"SoundDuration":70093,"Delta":56782913},{"NoteNumber":88,"Velocity":80,"Duration":73529,"SoundDuration":73529,"Delta":56923100},{"NoteNumber":78,"Velocity":68,"Duration":73529,"SoundDuration":73529,"Delta":56923100},{"NoteNumber":66,"Velocity":53,"Duration":73529,"SoundDuration":73529,"Delta":56923100},{"NoteNumber":76,"Velocity":63,"Duration":73529,"SoundDuration":73529,"Delta":56923100},{"NoteNumber":82,"Velocity":73,"Duration":70422,"SoundDuration":70422,"Delta":57070159},{"NoteNumber":90,"Velocity":86,"Duration":70422,"SoundDuration":70422,"Delta":57070159},{"NoteNumber":61,"Velocity":59,"Duration":70422,"SoundDuration":70422,"Delta":57070159},{"NoteNumber":70,"Velocity":70,"Duration":70422,"SoundDuration":70422,"Delta":57070159},{"NoteNumber":88,"Velocity":77,"Duration":76530,"SoundDuration":76530,"Delta":57211004},{"NoteNumber":78,"Velocity":65,"Duration":76530,"SoundDuration":76530,"Delta":57211004},{"NoteNumber":66,"Velocity":52,"Duration":76530,"SoundDuration":76530,"Delta":57211004},{"NoteNumber":76,"Velocity":62,"Duration":76530,"SoundDuration":76530,"Delta":57212280},{"NoteNumber":82,"Velocity":72,"Duration":72815,"SoundDuration":72815,"Delta":57364065},{"NoteNumber":90,"Velocity":85,"Duration":72815,"SoundDuration":72815,"Delta":57364065},{"NoteNumber":61,"Velocity":59,"Duration":72815,"SoundDuration":72815,"Delta":57364065},{"NoteNumber":70,"Velocity":70,"Duration":72815,"SoundDuration":72815,"Delta":57364065},{"NoteNumber":88,"Velocity":75,"Duration":78533,"SoundDuration":78533,"Delta":57509696},{"NoteNumber":78,"Velocity":63,"Duration":78533,"SoundDuration":78533,"Delta":57509696},{"NoteNumber":66,"Velocity":56,"Duration":78533,"SoundDuration":78533,"Delta":57509696},{"NoteNumber":76,"Velocity":67,"Duration":78533,"SoundDuration":78533,"Delta":57509696},{"NoteNumber":87,"Velocity":91,"Duration":73058,"SoundDuration":73058,"Delta":57666764},{"NoteNumber":53,"Velocity":65,"Duration":273058,"SoundDuration":273058,"Delta":57666764},{"NoteNumber":60,"Velocity":65,"Duration":273058,"SoundDuration":273058,"Delta":57666764},{"NoteNumber":63,"Velocity":65,"Duration":273058,"SoundDuration":273058,"Delta":57666764},{"NoteNumber":69,"Velocity":77,"Duration":273058,"SoundDuration":273058,"Delta":57666764},{"NoteNumber":91,"Velocity":66,"Duration":66666,"SoundDuration":66666,"Delta":57739823},{"NoteNumber":87,"Velocity":60,"Duration":66666,"SoundDuration":66666,"Delta":57806490},{"NoteNumber":86,"Velocity":55,"Duration":66666,"SoundDuration":66666,"Delta":57873156},{"NoteNumber":84,"Velocity":48,"Duration":66666,"SoundDuration":66666,"Delta":57939823},{"NoteNumber":82,"Velocity":47,"Duration":69444,"SoundDuration":69444,"Delta":58006489},{"NoteNumber":81,"Velocity":53,"Duration":67264,"SoundDuration":67264,"Delta":58075934},{"NoteNumber":84,"Velocity":48,"Duration":65217,"SoundDuration":65217,"Delta":58143199},{"NoteNumber":81,"Velocity":50,"Duration":65217,"SoundDuration":65217,"Delta":58208416},{"NoteNumber":79,"Velocity":50,"Duration":65217,"SoundDuration":65217,"Delta":58273633},{"NoteNumber":77,"Velocity":49,"Duration":65217,"SoundDuration":65217,"Delta":58338851},{"NoteNumber":76,"Velocity":48,"Duration":71089,"SoundDuration":71089,"Delta":58404068},{"NoteNumber":75,"Velocity":53,"Duration":67264,"SoundDuration":67264,"Delta":58475158},{"NoteNumber":79,"Velocity":48,"Duration":64935,"SoundDuration":64935,"Delta":58542423},{"NoteNumber":75,"Velocity":49,"Duration":64935,"SoundDuration":64935,"Delta":58607358},{"NoteNumber":74,"Velocity":49,"Duration":64935,"SoundDuration":64935,"Delta":58672293},{"NoteNumber":72,"Velocity":48,"Duration":64935,"SoundDuration":64935,"Delta":58737228},{"NoteNumber":70,"Velocity":47,"Duration":70093,"SoundDuration":70093,"Delta":58802163},{"NoteNumber":69,"Velocity":55,"Duration":67873,"SoundDuration":67873,"Delta":58872257},{"NoteNumber":72,"Velocity":50,"Duration":65217,"SoundDuration":65217,"Delta":58940130},{"NoteNumber":69,"Velocity":52,"Duration":65217,"SoundDuration":65217,"Delta":59005347},{"NoteNumber":67,"Velocity":52,"Duration":65217,"SoundDuration":65217,"Delta":59070565},{"NoteNumber":65,"Velocity":51,"Duration":65217,"SoundDuration":65217,"Delta":59135782},{"NoteNumber":64,"Velocity":50,"Duration":69767,"SoundDuration":69767,"Delta":59200999},{"NoteNumber":63,"Velocity":57,"Duration":67873,"SoundDuration":67873,"Delta":59270767},{"NoteNumber":67,"Velocity":52,"Duration":65217,"SoundDuration":65217,"Delta":59338640},{"NoteNumber":63,"Velocity":53,"Duration":65217,"SoundDuration":65217,"Delta":59403858},{"NoteNumber":62,"Velocity":53,"Duration":65217,"SoundDuration":65217,"Delta":59469075},{"NoteNumber":60,"Velocity":53,"Duration":65217,"SoundDuration":65217,"Delta":59534292},{"NoteNumber":58,"Velocity":52,"Duration":70093,"SoundDuration":70093,"Delta":59599510},{"NoteNumber":57,"Velocity":61,"Duration":67873,"SoundDuration":67873,"Delta":59669603},{"NoteNumber":60,"Velocity":56,"Duration":65217,"SoundDuration":65217,"Delta":59737476},{"NoteNumber":57,"Velocity":59,"Duration":65217,"SoundDuration":65217,"Delta":59802694},{"NoteNumber":55,"Velocity":59,"Duration":65217,"SoundDuration":65217,"Delta":59867911},{"NoteNumber":53,"Velocity":58,"Duration":65217,"SoundDuration":65217,"Delta":59933129},{"NoteNumber":52,"Velocity":58,"Duration":69767,"SoundDuration":69767,"Delta":59998346},{"NoteNumber":51,"Velocity":66,"Duration":67873,"SoundDuration":67873,"Delta":60068113},{"NoteNumber":55,"Velocity":59,"Duration":65217,"SoundDuration":65217,"Delta":60135987},{"NoteNumber":51,"Velocity":63,"Duration":65217,"SoundDuration":65217,"Delta":60201204},{"NoteNumber":50,"Velocity":64,"Duration":65217,"SoundDuration":65217,"Delta":60266421},{"NoteNumber":48,"Velocity":64,"Duration":65217,"SoundDuration":65217,"Delta":60331639},{"NoteNumber":46,"Velocity":64,"Duration":68807,"SoundDuration":68807,"Delta":60396856},{"NoteNumber":45,"Velocity":75,"Duration":66964,"SoundDuration":66964,"Delta":60465664},{"NoteNumber":48,"Velocity":67,"Duration":65648,"SoundDuration":65648,"Delta":60532628},{"NoteNumber":45,"Velocity":68,"Duration":67471,"SoundDuration":67471,"Delta":60598277},{"NoteNumber":43,"Velocity":66,"Duration":69609,"SoundDuration":69609,"Delta":60665748},{"NoteNumber":41,"Velocity":69,"Duration":71836,"SoundDuration":71836,"Delta":60735358},{"NoteNumber":40,"Velocity":72,"Duration":86770,"SoundDuration":86770,"Delta":60807195},{"NoteNumber":41,"Velocity":77,"Duration":3161723,"SoundDuration":3161723,"Delta":60893966},{"NoteNumber":42,"Velocity":54,"Duration":66079,"SoundDuration":66079,"Delta":60960045},{"NoteNumber":43,"Velocity":54,"Duration":65886,"SoundDuration":65886,"Delta":61026124},{"NoteNumber":44,"Velocity":54,"Duration":65789,"SoundDuration":65789,"Delta":61092010},{"NoteNumber":45,"Velocity":55,"Duration":65741,"SoundDuration":65741,"Delta":61157800},{"NoteNumber":46,"Velocity":55,"Duration":65502,"SoundDuration":65502,"Delta":61223541},{"NoteNumber":47,"Velocity":56,"Duration":65502,"SoundDuration":65502,"Delta":61289043},{"NoteNumber":48,"Velocity":56,"Duration":65264,"SoundDuration":65264,"Delta":61354546},{"NoteNumber":49,"Velocity":56,"Duration":65217,"SoundDuration":65217,"Delta":61419810},{"NoteNumber":50,"Velocity":57,"Duration":65123,"SoundDuration":65123,"Delta":61485028},{"NoteNumber":51,"Velocity":57,"Duration":64935,"SoundDuration":64935,"Delta":61550151},{"NoteNumber":52,"Velocity":58,"Duration":64935,"SoundDuration":64935,"Delta":61615086},{"NoteNumber":53,"Velocity":58,"Duration":64655,"SoundDuration":64655,"Delta":61680021},{"NoteNumber":54,"Velocity":59,"Duration":64655,"SoundDuration":64655,"Delta":61744676},{"NoteNumber":55,"Velocity":59,"Duration":64888,"SoundDuration":64888,"Delta":61809332},{"NoteNumber":56,"Velocity":59,"Duration":64935,"SoundDuration":64935,"Delta":61874220},{"NoteNumber":57,"Velocity":60,"Duration":65170,"SoundDuration":65170,"Delta":61939155},{"NoteNumber":58,"Velocity":60,"Duration":65217,"SoundDuration":65217,"Delta":62004325},{"NoteNumber":59,"Velocity":61,"Duration":65454,"SoundDuration":65454,"Delta":62069543},{"NoteNumber":60,"Velocity":61,"Duration":65502,"SoundDuration":65502,"Delta":62134997},{"NoteNumber":61,"Velocity":61,"Duration":65741,"SoundDuration":65741,"Delta":62200500},{"NoteNumber":62,"Velocity":62,"Duration":65789,"SoundDuration":65789,"Delta":62266241},{"NoteNumber":63,"Velocity":62,"Duration":66030,"SoundDuration":66030,"Delta":62332031},{"NoteNumber":64,"Velocity":63,"Duration":66079,"SoundDuration":66079,"Delta":62398062},{"NoteNumber":65,"Velocity":65,"Duration":66322,"SoundDuration":66322,"Delta":62464141},{"NoteNumber":48,"Velocity":60,"Duration":1591548,"SoundDuration":1591548,"Delta":62464141},{"NoteNumber":51,"Velocity":60,"Duration":1591548,"SoundDuration":1591548,"Delta":62464141},{"NoteNumber":57,"Velocity":60,"Duration":1591548,"SoundDuration":1591548,"Delta":62464141},{"NoteNumber":66,"Velocity":68,"Duration":73170,"SoundDuration":73170,"Delta":62530464},{"NoteNumber":60,"Velocity":58,"Duration":65935,"SoundDuration":65935,"Delta":62603635},{"NoteNumber":61,"Velocity":58,"Duration":66079,"SoundDuration":66079,"Delta":62669570},{"NoteNumber":62,"Velocity":59,"Duration":66079,"SoundDuration":66079,"Delta":62735649},{"NoteNumber":63,"Velocity":60,"Duration":66079,"SoundDuration":66079,"Delta":62801729},{"NoteNumber":64,"Velocity":60,"Duration":65837,"SoundDuration":65837,"Delta":62867808},{"NoteNumber":65,"Velocity":61,"Duration":65789,"SoundDuration":65789,"Delta":62933646},{"NoteNumber":66,"Velocity":62,"Duration":65789,"SoundDuration":65789,"Delta":62999435},{"NoteNumber":67,"Velocity":62,"Duration":65789,"SoundDuration":65789,"Delta":63065225},{"NoteNumber":68,"Velocity":63,"Duration":65550,"SoundDuration":65550,"Delta":63131014},{"NoteNumber":69,"Velocity":63,"Duration":65502,"SoundDuration":65502,"Delta":63196564},{"NoteNumber":70,"Velocity":64,"Duration":65502,"SoundDuration":65502,"Delta":63262066},{"NoteNumber":71,"Velocity":65,"Duration":65502,"SoundDuration":65502,"Delta":63327568},{"NoteNumber":72,"Velocity":65,"Duration":65264,"SoundDuration":65264,"Delta":63393071},{"NoteNumber":73,"Velocity":66,"Duration":65217,"SoundDuration":65217,"Delta":63458335},{"NoteNumber":74,"Velocity":67,"Duration":65217,"SoundDuration":65217,"Delta":63523553},{"NoteNumber":75,"Velocity":67,"Duration":65217,"SoundDuration":65217,"Delta":63588770},{"NoteNumber":76,"Velocity":68,"Duration":65076,"SoundDuration":65076,"Delta":63653988},{"NoteNumber":77,"Velocity":69,"Duration":65742,"SoundDuration":65742,"Delta":63719064},{"NoteNumber":78,"Velocity":69,"Duration":66520,"SoundDuration":66520,"Delta":63784806},{"NoteNumber":79,"Velocity":70,"Duration":67265,"SoundDuration":67265,"Delta":63851326},{"NoteNumber":80,"Velocity":71,"Duration":68130,"SoundDuration":68130,"Delta":63918591},{"NoteNumber":81,"Velocity":71,"Duration":68966,"SoundDuration":68966,"Delta":63986722},{"NoteNumber":82,"Velocity":81,"Duration":69444,"SoundDuration":69444,"Delta":64055689},{"NoteNumber":46,"Velocity":64,"Duration":69444,"SoundDuration":69444,"Delta":64055689},{"NoteNumber":53,"Velocity":64,"Duration":69444,"SoundDuration":69444,"Delta":64055689},{"NoteNumber":62,"Velocity":64,"Duration":69444,"SoundDuration":69444,"Delta":64055689},{"NoteNumber":58,"Velocity":64,"Duration":69444,"SoundDuration":69444,"Delta":64055689},{"NoteNumber":82,"Velocity":57,"Duration":64377,"SoundDuration":64377,"Delta":64194578},{"NoteNumber":77,"Velocity":51,"Duration":64935,"SoundDuration":64935,"Delta":64323333},{"NoteNumber":79,"Velocity":60,"Duration":62500,"SoundDuration":62500,"Delta":64453204},{"NoteNumber":79,"Velocity":57,"Duration":63829,"SoundDuration":63829,"Delta":64578204},{"NoteNumber":74,"Velocity":50,"Duration":65502,"SoundDuration":65502,"Delta":64705863},{"NoteNumber":75,"Velocity":60,"Duration":63559,"SoundDuration":63559,"Delta":64836867},{"NoteNumber":75,"Velocity":55,"Duration":64935,"SoundDuration":64935,"Delta":64963986},{"NoteNumber":70,"Velocity":55,"Duration":64935,"SoundDuration":64935,"Delta":65093856},{"NoteNumber":72,"Velocity":60,"Duration":63829,"SoundDuration":63829,"Delta":65223727},{"NoteNumber":72,"Velocity":54,"Duration":65217,"SoundDuration":65217,"Delta":65351386},{"NoteNumber":67,"Velocity":54,"Duration":64655,"SoundDuration":64655,"Delta":65481821},{"NoteNumber":69,"Velocity":60,"Duration":64377,"SoundDuration":64377,"Delta":65611039},{"NoteNumber":65,"Velocity":51,"Duration":64102,"SoundDuration":64102,"Delta":65675416},{"NoteNumber":67,"Velocity":53,"Duration":63920,"SoundDuration":63920,"Delta":65739519},{"NoteNumber":69,"Velocity":56,"Duration":63694,"SoundDuration":63694,"Delta":65803440},{"NoteNumber":70,"Velocity":58,"Duration":63514,"SoundDuration":63514,"Delta":65867134},{"NoteNumber":72,"Velocity":60,"Duration":63291,"SoundDuration":63291,"Delta":65930649},{"NoteNumber":74,"Velocity":63,"Duration":62587,"SoundDuration":62587,"Delta":65993940},{"NoteNumber":69,"Velocity":53,"Duration":62327,"SoundDuration":62327,"Delta":66056527},{"NoteNumber":70,"Velocity":56,"Duration":62112,"SoundDuration":62112,"Delta":66118854},{"NoteNumber":72,"Velocity":58,"Duration":61898,"SoundDuration":61898,"Delta":66180967},{"NoteNumber":74,"Velocity":61,"Duration":61686,"SoundDuration":61686,"Delta":66242865},{"NoteNumber":75,"Velocity":64,"Duration":61475,"SoundDuration":61475,"Delta":66304551},{"NoteNumber":77,"Velocity":66,"Duration":61224,"SoundDuration":61224,"Delta":66366027},{"NoteNumber":74,"Velocity":57,"Duration":61224,"SoundDuration":61224,"Delta":66427251},{"NoteNumber":75,"Velocity":60,"Duration":61224,"SoundDuration":61224,"Delta":66488476},{"NoteNumber":77,"Velocity":62,"Duration":61224,"SoundDuration":61224,"Delta":66549700},{"NoteNumber":79,"Velocity":65,"Duration":61224,"SoundDuration":61224,"Delta":66610925},{"NoteNumber":81,"Velocity":67,"Duration":61224,"SoundDuration":61224,"Delta":66672149},{"NoteNumber":82,"Velocity":70,"Duration":61476,"SoundDuration":61476,"Delta":66733374},{"NoteNumber":77,"Velocity":65,"Duration":62069,"SoundDuration":62069,"Delta":66794850},{"NoteNumber":79,"Velocity":67,"Duration":62718,"SoundDuration":62718,"Delta":66856919},{"NoteNumber":81,"Velocity":69,"Duration":63336,"SoundDuration":63336,"Delta":66919638},{"NoteNumber":82,"Velocity":71,"Duration":64798,"SoundDuration":64798,"Delta":66982974},{"NoteNumber":84,"Velocity":73,"Duration":66522,"SoundDuration":66522,"Delta":67047772},{"NoteNumber":86,"Velocity":83,"Duration":62500,"SoundDuration":62500,"Delta":67114295},{"NoteNumber":86,"Velocity":57,"Duration":63829,"SoundDuration":63829,"Delta":67239295},{"NoteNumber":81,"Velocity":51,"Duration":64935,"SoundDuration":64935,"Delta":67366954},{"NoteNumber":82,"Velocity":60,"Duration":62500,"SoundDuration":62500,"Delta":67496824},{"NoteNumber":82,"Velocity":57,"Duration":63025,"SoundDuration":63025,"Delta":67621824},{"NoteNumber":77,"Velocity":50,"Duration":65217,"SoundDuration":65217,"Delta":67747875},{"NoteNumber":79,"Velocity":60,"Duration":63291,"SoundDuration":63291,"Delta":67878310},{"NoteNumber":79,"Velocity":55,"Duration":64102,"SoundDuration":64102,"Delta":68004892},{"NoteNumber":74,"Velocity":55,"Duration":65502,"SoundDuration":65502,"Delta":68133097},{"NoteNumber":76,"Velocity":60,"Duration":63829,"SoundDuration":63829,"Delta":68264101},{"NoteNumber":76,"Velocity":54,"Duration":63829,"SoundDuration":63829,"Delta":68391761},{"NoteNumber":71,"Velocity":54,"Duration":64935,"SoundDuration":64935,"Delta":68519420},{"NoteNumber":73,"Velocity":60,"Duration":65789,"SoundDuration":65789,"Delta":68649291},{"NoteNumber":69,"Velocity":51,"Duration":65597,"SoundDuration":65597,"Delta":68715080},{"NoteNumber":71,"Velocity":53,"Duration":65359,"SoundDuration":65359,"Delta":68780678},{"NoteNumber":73,"Velocity":56,"Duration":65123,"SoundDuration":65123,"Delta":68846038},{"NoteNumber":74,"Velocity":58,"Duration":64888,"SoundDuration":64888,"Delta":68911161},{"NoteNumber":76,"Velocity":60,"Duration":64655,"SoundDuration":64655,"Delta":68976050},{"NoteNumber":77,"Velocity":63,"Duration":64377,"SoundDuration":64377,"Delta":69040705},{"NoteNumber":73,"Velocity":53,"Duration":64194,"SoundDuration":64194,"Delta":69105082},{"NoteNumber":74,"Velocity":56,"Duration":63966,"SoundDuration":63966,"Delta":69169277},{"NoteNumber":76,"Velocity":58,"Duration":63739,"SoundDuration":63739,"Delta":69233243},{"NoteNumber":77,"Velocity":61,"Duration":63514,"SoundDuration":63514,"Delta":69296982},{"NoteNumber":79,"Velocity":64,"Duration":63291,"SoundDuration":63291,"Delta":69360497},{"NoteNumber":81,"Velocity":66,"Duration":63025,"SoundDuration":63025,"Delta":69423788},{"NoteNumber":76,"Velocity":57,"Duration":63025,"SoundDuration":63025,"Delta":69486814},{"NoteNumber":77,"Velocity":60,"Duration":63025,"SoundDuration":63025,"Delta":69549839},{"NoteNumber":79,"Velocity":62,"Duration":63025,"SoundDuration":63025,"Delta":69612864},{"NoteNumber":81,"Velocity":65,"Duration":63025,"SoundDuration":63025,"Delta":69675889},{"NoteNumber":83,"Velocity":67,"Duration":63025,"SoundDuration":63025,"Delta":69738915},{"NoteNumber":85,"Velocity":70,"Duration":63158,"SoundDuration":63158,"Delta":69801940},{"NoteNumber":81,"Velocity":65,"Duration":63649,"SoundDuration":63649,"Delta":69865098},{"NoteNumber":83,"Velocity":67,"Duration":64102,"SoundDuration":64102,"Delta":69928747},{"NoteNumber":85,"Velocity":69,"Duration":64609,"SoundDuration":64609,"Delta":69992850},{"NoteNumber":86,"Velocity":71,"Duration":65557,"SoundDuration":65557,"Delta":70057460},{"NoteNumber":88,"Velocity":73,"Duration":79117,"SoundDuration":79117,"Delta":70123017},{"NoteNumber":81,"Velocity":69,"Duration":71428,"SoundDuration":71428,"Delta":70202135},{"NoteNumber":89,"Velocity":80,"Duration":71428,"SoundDuration":71428,"Delta":70202135},{"NoteNumber":41,"Velocity":54,"Duration":71428,"SoundDuration":71428,"Delta":70202135},{"NoteNumber":53,"Velocity":60,"Duration":71428,"SoundDuration":71428,"Delta":70202135},{"NoteNumber":81,"Velocity":57,"Duration":69444,"SoundDuration":69444,"Delta":70344992},{"NoteNumber":89,"Velocity":65,"Duration":69444,"SoundDuration":69444,"Delta":70344992},{"NoteNumber":55,"Velocity":51,"Duration":69444,"SoundDuration":69444,"Delta":70344992},{"NoteNumber":77,"Velocity":51,"Duration":67567,"SoundDuration":67567,"Delta":70483881},{"NoteNumber":84,"Velocity":58,"Duration":67567,"SoundDuration":67567,"Delta":70483881},{"NoteNumber":57,"Velocity":45,"Duration":67567,"SoundDuration":67567,"Delta":70483881},{"NoteNumber":77,"Velocity":60,"Duration":64655,"SoundDuration":64655,"Delta":70619016},{"NoteNumber":86,"Velocity":69,"Duration":64655,"SoundDuration":64655,"Delta":70619016},{"NoteNumber":46,"Velocity":54,"Duration":64655,"SoundDuration":64655,"Delta":70619016},{"NoteNumber":58,"Velocity":54,"Duration":64655,"SoundDuration":64655,"Delta":70619016},{"NoteNumber":77,"Velocity":57,"Duration":65502,"SoundDuration":65502,"Delta":70748326},{"NoteNumber":86,"Velocity":65,"Duration":65502,"SoundDuration":65502,"Delta":70748326},{"NoteNumber":57,"Velocity":51,"Duration":65502,"SoundDuration":65502,"Delta":70748326},{"NoteNumber":74,"Velocity":50,"Duration":67264,"SoundDuration":67264,"Delta":70879331},{"NoteNumber":82,"Velocity":57,"Duration":67264,"SoundDuration":67264,"Delta":70879331},{"NoteNumber":55,"Velocity":45,"Duration":67264,"SoundDuration":67264,"Delta":70879331},{"NoteNumber":79,"Velocity":69,"Duration":63481,"SoundDuration":63481,"Delta":71013860},{"NoteNumber":76,"Velocity":60,"Duration":63481,"SoundDuration":63481,"Delta":71013860},{"NoteNumber":48,"Velocity":54,"Duration":63481,"SoundDuration":63481,"Delta":71013860},{"NoteNumber":60,"Velocity":54,"Duration":63481,"SoundDuration":63481,"Delta":71013860},{"NoteNumber":79,"Velocity":63,"Duration":65502,"SoundDuration":65502,"Delta":71140901},{"NoteNumber":76,"Velocity":55,"Duration":65502,"SoundDuration":65502,"Delta":71140901},{"NoteNumber":62,"Velocity":49,"Duration":65502,"SoundDuration":65502,"Delta":71140901},{"NoteNumber":84,"Velocity":63,"Duration":65502,"SoundDuration":65502,"Delta":71271905},{"NoteNumber":72,"Velocity":55,"Duration":65502,"SoundDuration":65502,"Delta":71271905},{"NoteNumber":64,"Velocity":49,"Duration":65502,"SoundDuration":65502,"Delta":71271905},{"NoteNumber":81,"Velocity":69,"Duration":63829,"SoundDuration":63829,"Delta":71402910},{"NoteNumber":72,"Velocity":60,"Duration":63829,"SoundDuration":63829,"Delta":71402910},{"NoteNumber":53,"Velocity":54,"Duration":63829,"SoundDuration":63829,"Delta":71402910},{"NoteNumber":65,"Velocity":54,"Duration":63829,"SoundDuration":63829,"Delta":71402910},{"NoteNumber":81,"Velocity":62,"Duration":65217,"SoundDuration":65217,"Delta":71530569},{"NoteNumber":72,"Velocity":54,"Duration":65217,"SoundDuration":65217,"Delta":71530569},{"NoteNumber":55,"Velocity":48,"Duration":65217,"SoundDuration":65217,"Delta":71530569},{"NoteNumber":72,"Velocity":54,"Duration":65217,"SoundDuration":65217,"Delta":71661004},{"NoteNumber":77,"Velocity":62,"Duration":65217,"SoundDuration":65217,"Delta":71661004},{"NoteNumber":57,"Velocity":48,"Duration":65217,"SoundDuration":65217,"Delta":71661004},{"NoteNumber":74,"Velocity":69,"Duration":63094,"SoundDuration":63094,"Delta":71791439},{"NoteNumber":70,"Velocity":60,"Duration":63094,"SoundDuration":63094,"Delta":71791439},{"NoteNumber":55,"Velocity":54,"Duration":63094,"SoundDuration":63094,"Delta":71791439},{"NoteNumber":58,"Velocity":54,"Duration":63094,"SoundDuration":63094,"Delta":71791439},{"NoteNumber":74,"Velocity":62,"Duration":64195,"SoundDuration":64195,"Delta":71917627},{"NoteNumber":70,"Velocity":54,"Duration":64195,"SoundDuration":64195,"Delta":71917627},{"NoteNumber":57,"Velocity":48,"Duration":64195,"SoundDuration":64195,"Delta":71917627},{"NoteNumber":67,"Velocity":62,"Duration":66821,"SoundDuration":66821,"Delta":72046019},{"NoteNumber":79,"Velocity":72,"Duration":66821,"SoundDuration":66821,"Delta":72046019},{"NoteNumber":55,"Velocity":56,"Duration":66821,"SoundDuration":66821,"Delta":72046019},{"NoteNumber":76,"Velocity":71,"Duration":63640,"SoundDuration":63640,"Delta":72179661},{"NoteNumber":72,"Velocity":61,"Duration":63640,"SoundDuration":63640,"Delta":72179661},{"NoteNumber":60,"Velocity":55,"Duration":63640,"SoundDuration":63640,"Delta":72179661},{"NoteNumber":64,"Velocity":55,"Duration":63640,"SoundDuration":63640,"Delta":72179661},{"NoteNumber":76,"Velocity":65,"Duration":64477,"SoundDuration":64477,"Delta":72306941},{"NoteNumber":72,"Velocity":56,"Duration":64477,"SoundDuration":64477,"Delta":72306941},{"NoteNumber":58,"Velocity":50,"Duration":64477,"SoundDuration":64477,"Delta":72306941},{"NoteNumber":69,"Velocity":64,"Duration":66821,"SoundDuration":66821,"Delta":72435896},{"NoteNumber":81,"Velocity":74,"Duration":66821,"SoundDuration":66821,"Delta":72435896},{"NoteNumber":57,"Velocity":58,"Duration":66821,"SoundDuration":66821,"Delta":72435896},{"NoteNumber":77,"Velocity":73,"Duration":63916,"SoundDuration":63916,"Delta":72569538},{"NoteNumber":74,"Velocity":64,"Duration":63916,"SoundDuration":63916,"Delta":72569538},{"NoteNumber":62,"Velocity":57,"Duration":63916,"SoundDuration":63916,"Delta":72569538},{"NoteNumber":65,"Velocity":57,"Duration":63916,"SoundDuration":63916,"Delta":72569538},{"NoteNumber":77,"Velocity":66,"Duration":64761,"SoundDuration":64761,"Delta":72697372},{"NoteNumber":74,"Velocity":58,"Duration":64761,"SoundDuration":64761,"Delta":72697372},{"NoteNumber":60,"Velocity":51,"Duration":64761,"SoundDuration":64761,"Delta":72697372},{"NoteNumber":70,"Velocity":67,"Duration":67126,"SoundDuration":67126,"Delta":72826894},{"NoteNumber":82,"Velocity":78,"Duration":67126,"SoundDuration":67126,"Delta":72826894},{"NoteNumber":58,"Velocity":60,"Duration":67126,"SoundDuration":67126,"Delta":72826894},{"NoteNumber":79,"Velocity":76,"Duration":63916,"SoundDuration":63916,"Delta":72961147},{"NoteNumber":76,"Velocity":66,"Duration":63916,"SoundDuration":63916,"Delta":72961147},{"NoteNumber":64,"Velocity":59,"Duration":63916,"SoundDuration":63916,"Delta":72961147},{"NoteNumber":67,"Velocity":59,"Duration":63916,"SoundDuration":63916,"Delta":72961147},{"NoteNumber":79,"Velocity":69,"Duration":63916,"SoundDuration":63916,"Delta":73088980},{"NoteNumber":76,"Velocity":60,"Duration":63916,"SoundDuration":63916,"Delta":73088980},{"NoteNumber":62,"Velocity":53,"Duration":63916,"SoundDuration":63916,"Delta":73088980},{"NoteNumber":72,"Velocity":69,"Duration":65336,"SoundDuration":65336,"Delta":73216814},{"NoteNumber":84,"Velocity":80,"Duration":65336,"SoundDuration":65336,"Delta":73216814},{"NoteNumber":60,"Velocity":61,"Duration":65336,"SoundDuration":65336,"Delta":73216814},{"NoteNumber":72,"Velocity":62,"Duration":65336,"SoundDuration":65336,"Delta":73347488},{"NoteNumber":81,"Velocity":73,"Duration":65336,"SoundDuration":65336,"Delta":73347488},{"NoteNumber":53,"Velocity":56,"Duration":65336,"SoundDuration":65336,"Delta":73347488},{"NoteNumber":72,"Velocity":57,"Duration":65336,"SoundDuration":65336,"Delta":73478161},{"NoteNumber":81,"Velocity":68,"Duration":65336,"SoundDuration":65336,"Delta":73478161},{"NoteNumber":65,"Velocity":50,"Duration":65336,"SoundDuration":65336,"Delta":73478161},{"NoteNumber":70,"Velocity":55,"Duration":66518,"SoundDuration":66518,"Delta":73608835},{"NoteNumber":76,"Velocity":65,"Duration":66518,"SoundDuration":66518,"Delta":73608835},{"NoteNumber":55,"Velocity":49,"Duration":66518,"SoundDuration":66518,"Delta":73608835},{"NoteNumber":72,"Velocity":57,"Duration":63916,"SoundDuration":63916,"Delta":73741872},{"NoteNumber":77,"Velocity":68,"Duration":63916,"SoundDuration":63916,"Delta":73741872},{"NoteNumber":57,"Velocity":52,"Duration":63916,"SoundDuration":63916,"Delta":73741872},{"NoteNumber":70,"Velocity":53,"Duration":64377,"SoundDuration":64377,"Delta":73869706},{"NoteNumber":73,"Velocity":63,"Duration":64377,"SoundDuration":64377,"Delta":73869706},{"NoteNumber":67,"Velocity":48,"Duration":64377,"SoundDuration":64377,"Delta":73869706},{"NoteNumber":69,"Velocity":51,"Duration":65789,"SoundDuration":65789,"Delta":73998461},{"NoteNumber":74,"Velocity":61,"Duration":65789,"SoundDuration":65789,"Delta":73998461},{"NoteNumber":65,"Velocity":47,"Duration":65789,"SoundDuration":65789,"Delta":73998461},{"NoteNumber":66,"Velocity":54,"Duration":63640,"SoundDuration":63640,"Delta":74130040},{"NoteNumber":69,"Velocity":64,"Duration":63640,"SoundDuration":63640,"Delta":74130040},{"NoteNumber":63,"Velocity":49,"Duration":63640,"SoundDuration":63640,"Delta":74130040},{"NoteNumber":65,"Velocity":51,"Duration":65336,"SoundDuration":65336,"Delta":74257321},{"NoteNumber":70,"Velocity":60,"Duration":65336,"SoundDuration":65336,"Delta":74257321},{"NoteNumber":62,"Velocity":44,"Duration":65336,"SoundDuration":65336,"Delta":74257321},{"NoteNumber":63,"Velocity":49,"Duration":65336,"SoundDuration":65336,"Delta":74387994},{"NoteNumber":66,"Velocity":58,"Duration":65336,"SoundDuration":65336,"Delta":74387994},{"NoteNumber":60,"Velocity":43,"Duration":65336,"SoundDuration":65336,"Delta":74387994},{"NoteNumber":62,"Velocity":50,"Duration":63640,"SoundDuration":63640,"Delta":74518668},{"NoteNumber":67,"Velocity":59,"Duration":63640,"SoundDuration":63640,"Delta":74518668},{"NoteNumber":58,"Velocity":45,"Duration":63640,"SoundDuration":63640,"Delta":74518668},{"NoteNumber":58,"Velocity":46,"Duration":65336,"SoundDuration":65336,"Delta":74645948},{"NoteNumber":62,"Velocity":46,"Duration":65336,"SoundDuration":65336,"Delta":74645948},{"NoteNumber":57,"Velocity":40,"Duration":65336,"SoundDuration":65336,"Delta":74645948},{"NoteNumber":59,"Velocity":45,"Duration":66666,"SoundDuration":66666,"Delta":74776622},{"NoteNumber":65,"Velocity":54,"Duration":66666,"SoundDuration":66666,"Delta":74776622},{"NoteNumber":56,"Velocity":39,"Duration":66666,"SoundDuration":66666,"Delta":74776622},{"NoteNumber":58,"Velocity":39,"Duration":63916,"SoundDuration":63916,"Delta":74909955},{"NoteNumber":64,"Velocity":46,"Duration":63916,"SoundDuration":63916,"Delta":74909955},{"NoteNumber":48,"Velocity":36,"Duration":63916,"SoundDuration":63916,"Delta":74909955},{"NoteNumber":55,"Velocity":43,"Duration":63916,"SoundDuration":63916,"Delta":74909955},{"NoteNumber":58,"Velocity":38,"Duration":65628,"SoundDuration":65628,"Delta":75037789},{"NoteNumber":64,"Velocity":45,"Duration":65628,"SoundDuration":65628,"Delta":75037789},{"NoteNumber":65,"Velocity":41,"Duration":65628,"SoundDuration":65628,"Delta":75169045},{"NoteNumber":70,"Velocity":41,"Duration":65628,"SoundDuration":65628,"Delta":75169045},{"NoteNumber":74,"Velocity":49,"Duration":65628,"SoundDuration":65628,"Delta":75169045},{"NoteNumber":64,"Velocity":41,"Duration":63640,"SoundDuration":63640,"Delta":75300302},{"NoteNumber":67,"Velocity":49,"Duration":63640,"SoundDuration":63640,"Delta":75300302},{"NoteNumber":64,"Velocity":38,"Duration":64377,"SoundDuration":64377,"Delta":75427582},{"NoteNumber":67,"Velocity":45,"Duration":64377,"SoundDuration":64377,"Delta":75427582},{"NoteNumber":86,"Velocity":54,"Duration":65554,"SoundDuration":65554,"Delta":75556338},{"NoteNumber":82,"Velocity":45,"Duration":65554,"SoundDuration":65554,"Delta":75556338},{"NoteNumber":77,"Velocity":45,"Duration":65554,"SoundDuration":65554,"Delta":75556338},{"NoteNumber":79,"Velocity":47,"Duration":64195,"SoundDuration":64195,"Delta":75687681},{"NoteNumber":76,"Velocity":39,"Duration":64195,"SoundDuration":64195,"Delta":75687681},{"NoteNumber":79,"Velocity":42,"Duration":70754,"SoundDuration":70754,"Delta":75816073},{"NoteNumber":76,"Velocity":35,"Duration":70754,"SoundDuration":70754,"Delta":75816073},{"NoteNumber":72,"Velocity":60,"Duration":69016,"SoundDuration":69016,"Delta":75957582},{"NoteNumber":84,"Velocity":73,"Duration":69016,"SoundDuration":69016,"Delta":75957582},{"NoteNumber":48,"Velocity":60,"Duration":69016,"SoundDuration":69016,"Delta":75957582},{"NoteNumber":89,"Velocity":85,"Duration":70422,"SoundDuration":70422,"Delta":76095615},{"NoteNumber":81,"Velocity":71,"Duration":70422,"SoundDuration":70422,"Delta":76095615},{"NoteNumber":77,"Velocity":71,"Duration":70422,"SoundDuration":70422,"Delta":76095615},{"NoteNumber":41,"Velocity":67,"Duration":70422,"SoundDuration":70422,"Delta":76095615},{"NoteNumber":53,"Velocity":79,"Duration":70422,"SoundDuration":70422,"Delta":76095615},{"NoteNumber":57,"Velocity":46,"Duration":64025,"SoundDuration":64025,"Delta":76518150},{"NoteNumber":60,"Velocity":51,"Duration":64025,"SoundDuration":64025,"Delta":76518150},{"NoteNumber":65,"Velocity":61,"Duration":64025,"SoundDuration":64025,"Delta":76518150},{"NoteNumber":53,"Velocity":56,"Duration":65889,"SoundDuration":65889,"Delta":76646092},{"NoteNumber":41,"Velocity":43,"Duration":65889,"SoundDuration":65889,"Delta":76646092},{"NoteNumber":57,"Velocity":42,"Duration":67242,"SoundDuration":67242,"Delta":76777904},{"NoteNumber":60,"Velocity":45,"Duration":67242,"SoundDuration":67242,"Delta":76777904},{"NoteNumber":65,"Velocity":54,"Duration":67242,"SoundDuration":67242,"Delta":76777904},{"NoteNumber":58,"Velocity":46,"Duration":63972,"SoundDuration":63972,"Delta":76912411},{"NoteNumber":61,"Velocity":51,"Duration":63972,"SoundDuration":63972,"Delta":76912411},{"NoteNumber":66,"Velocity":61,"Duration":63972,"SoundDuration":63972,"Delta":76912411},{"NoteNumber":61,"Velocity":56,"Duration":65889,"SoundDuration":65889,"Delta":77040300},{"NoteNumber":58,"Velocity":43,"Duration":65889,"SoundDuration":65889,"Delta":77040300},{"NoteNumber":58,"Velocity":42,"Duration":65922,"SoundDuration":65922,"Delta":77172112},{"NoteNumber":61,"Velocity":45,"Duration":65922,"SoundDuration":65922,"Delta":77172112},{"NoteNumber":66,"Velocity":54,"Duration":65922,"SoundDuration":65922,"Delta":77172112},{"NoteNumber":54,"Velocity":46,"Duration":63950,"SoundDuration":63950,"Delta":77303957},{"NoteNumber":58,"Velocity":51,"Duration":63950,"SoundDuration":63950,"Delta":77303957},{"NoteNumber":63,"Velocity":61,"Duration":63950,"SoundDuration":63950,"Delta":77303957},{"NoteNumber":58,"Velocity":56,"Duration":64918,"SoundDuration":64918,"Delta":77431824},{"NoteNumber":54,"Velocity":43,"Duration":64918,"SoundDuration":64918,"Delta":77431824},{"NoteNumber":54,"Velocity":42,"Duration":64935,"SoundDuration":64935,"Delta":77561677},{"NoteNumber":58,"Velocity":45,"Duration":64935,"SoundDuration":64935,"Delta":77561677},{"NoteNumber":63,"Velocity":54,"Duration":64935,"SoundDuration":64935,"Delta":77561677},{"NoteNumber":51,"Velocity":46,"Duration":63933,"SoundDuration":63933,"Delta":77691547},{"NoteNumber":54,"Velocity":51,"Duration":63933,"SoundDuration":63933,"Delta":77691547},{"NoteNumber":60,"Velocity":61,"Duration":63933,"SoundDuration":63933,"Delta":77691547},{"NoteNumber":54,"Velocity":56,"Duration":65889,"SoundDuration":65889,"Delta":77819398},{"NoteNumber":51,"Velocity":43,"Duration":65889,"SoundDuration":65889,"Delta":77819398},{"NoteNumber":51,"Velocity":42,"Duration":68759,"SoundDuration":68759,"Delta":77951210},{"NoteNumber":54,"Velocity":45,"Duration":68759,"SoundDuration":68759,"Delta":77951210},{"NoteNumber":60,"Velocity":54,"Duration":68759,"SoundDuration":68759,"Delta":77951210},{"NoteNumber":53,"Velocity":51,"Duration":63998,"SoundDuration":63998,"Delta":78088776},{"NoteNumber":57,"Velocity":61,"Duration":63998,"SoundDuration":63998,"Delta":78088776},{"NoteNumber":48,"Velocity":56,"Duration":64377,"SoundDuration":64377,"Delta":78216692},{"NoteNumber":41,"Velocity":43,"Duration":64377,"SoundDuration":64377,"Delta":78216692},{"NoteNumber":53,"Velocity":45,"Duration":65789,"SoundDuration":65789,"Delta":78345447},{"NoteNumber":57,"Velocity":54,"Duration":65789,"SoundDuration":65789,"Delta":78345447},{"NoteNumber":53,"Velocity":46,"Duration":63948,"SoundDuration":63948,"Delta":78477026},{"NoteNumber":55,"Velocity":51,"Duration":63948,"SoundDuration":63948,"Delta":78477026},{"NoteNumber":58,"Velocity":61,"Duration":63948,"SoundDuration":63948,"Delta":78477026},{"NoteNumber":49,"Velocity":56,"Duration":65889,"SoundDuration":65889,"Delta":78604891},{"NoteNumber":41,"Velocity":43,"Duration":65889,"SoundDuration":65889,"Delta":78604891},{"NoteNumber":53,"Velocity":42,"Duration":65922,"SoundDuration":65922,"Delta":78736702},{"NoteNumber":55,"Velocity":45,"Duration":65922,"SoundDuration":65922,"Delta":78736702},{"NoteNumber":58,"Velocity":54,"Duration":65922,"SoundDuration":65922,"Delta":78736702},{"NoteNumber":53,"Velocity":46,"Duration":63950,"SoundDuration":63950,"Delta":78868547},{"NoteNumber":56,"Velocity":51,"Duration":63950,"SoundDuration":63950,"Delta":78868547},{"NoteNumber":59,"Velocity":61,"Duration":63950,"SoundDuration":63950,"Delta":78868547},{"NoteNumber":50,"Velocity":56,"Duration":66330,"SoundDuration":66330,"Delta":78996415},{"NoteNumber":41,"Velocity":43,"Duration":66330,"SoundDuration":66330,"Delta":78996415},{"NoteNumber":53,"Velocity":42,"Duration":66371,"SoundDuration":66371,"Delta":79129117},{"NoteNumber":56,"Velocity":45,"Duration":66371,"SoundDuration":66371,"Delta":79129117},{"NoteNumber":59,"Velocity":54,"Duration":66371,"SoundDuration":66371,"Delta":79129117},{"NoteNumber":53,"Velocity":46,"Duration":63957,"SoundDuration":63957,"Delta":79261860},{"NoteNumber":57,"Velocity":51,"Duration":63957,"SoundDuration":63957,"Delta":79261860},{"NoteNumber":60,"Velocity":61,"Duration":63957,"SoundDuration":63957,"Delta":79261860},{"NoteNumber":51,"Velocity":56,"Duration":66330,"SoundDuration":66330,"Delta":79389735},{"NoteNumber":41,"Velocity":43,"Duration":66330,"SoundDuration":66330,"Delta":79389735},{"NoteNumber":53,"Velocity":42,"Duration":74125,"SoundDuration":74125,"Delta":79522437},{"NoteNumber":57,"Velocity":45,"Duration":74125,"SoundDuration":74125,"Delta":79522437},{"NoteNumber":60,"Velocity":54,"Duration":74125,"SoundDuration":74125,"Delta":79522437},{"NoteNumber":57,"Velocity":46,"Duration":64089,"SoundDuration":64089,"Delta":79670821},{"NoteNumber":60,"Velocity":51,"Duration":64089,"SoundDuration":64089,"Delta":79670821},{"NoteNumber":65,"Velocity":61,"Duration":64089,"SoundDuration":64089,"Delta":79670821},{"NoteNumber":53,"Velocity":56,"Duration":65889,"SoundDuration":65889,"Delta":79798827},{"NoteNumber":41,"Velocity":43,"Duration":65889,"SoundDuration":65889,"Delta":79798827},{"NoteNumber":57,"Velocity":42,"Duration":67242,"SoundDuration":67242,"Delta":79930638},{"NoteNumber":60,"Velocity":45,"Duration":67242,"SoundDuration":67242,"Delta":79930638},{"NoteNumber":65,"Velocity":54,"Duration":67242,"SoundDuration":67242,"Delta":79930638},{"NoteNumber":58,"Velocity":46,"Duration":63972,"SoundDuration":63972,"Delta":80065145},{"NoteNumber":61,"Velocity":51,"Duration":63972,"SoundDuration":63972,"Delta":80065145},{"NoteNumber":68,"Velocity":61,"Duration":63972,"SoundDuration":63972,"Delta":80065145},{"NoteNumber":61,"Velocity":56,"Duration":65889,"SoundDuration":65889,"Delta":80193035},{"NoteNumber":58,"Velocity":43,"Duration":65889,"SoundDuration":65889,"Delta":80193035},{"NoteNumber":58,"Velocity":42,"Duration":65922,"SoundDuration":65922,"Delta":80324846},{"NoteNumber":61,"Velocity":45,"Duration":65922,"SoundDuration":65922,"Delta":80324846},{"NoteNumber":66,"Velocity":54,"Duration":65922,"SoundDuration":65922,"Delta":80324846},{"NoteNumber":54,"Velocity":46,"Duration":63950,"SoundDuration":63950,"Delta":80456691},{"NoteNumber":58,"Velocity":51,"Duration":63950,"SoundDuration":63950,"Delta":80456691},{"NoteNumber":63,"Velocity":61,"Duration":63950,"SoundDuration":63950,"Delta":80456691},{"NoteNumber":58,"Velocity":56,"Duration":64918,"SoundDuration":64918,"Delta":80584558},{"NoteNumber":54,"Velocity":43,"Duration":64918,"SoundDuration":64918,"Delta":80584558},{"NoteNumber":54,"Velocity":42,"Duration":64935,"SoundDuration":64935,"Delta":80714412},{"NoteNumber":58,"Velocity":45,"Duration":64935,"SoundDuration":64935,"Delta":80714412},{"NoteNumber":63,"Velocity":54,"Duration":64935,"SoundDuration":64935,"Delta":80714412},{"NoteNumber":51,"Velocity":46,"Duration":63933,"SoundDuration":63933,"Delta":80844282},{"NoteNumber":54,"Velocity":51,"Duration":63933,"SoundDuration":63933,"Delta":80844282},{"NoteNumber":60,"Velocity":61,"Duration":63933,"SoundDuration":63933,"Delta":80844282},{"NoteNumber":54,"Velocity":56,"Duration":65889,"SoundDuration":65889,"Delta":80972133},{"NoteNumber":51,"Velocity":43,"Duration":65889,"SoundDuration":65889,"Delta":80972133},{"NoteNumber":51,"Velocity":42,"Duration":68759,"SoundDuration":68759,"Delta":81103944},{"NoteNumber":54,"Velocity":45,"Duration":68759,"SoundDuration":68759,"Delta":81103944},{"NoteNumber":60,"Velocity":54,"Duration":68759,"SoundDuration":68759,"Delta":81103944},{"NoteNumber":53,"Velocity":51,"Duration":63998,"SoundDuration":63998,"Delta":81241511},{"NoteNumber":57,"Velocity":61,"Duration":63998,"SoundDuration":63998,"Delta":81241511},{"NoteNumber":48,"Velocity":56,"Duration":65889,"SoundDuration":65889,"Delta":81369426},{"NoteNumber":41,"Velocity":43,"Duration":65889,"SoundDuration":65889,"Delta":81369426},{"NoteNumber":53,"Velocity":46,"Duration":65922,"SoundDuration":65922,"Delta":81501238},{"NoteNumber":57,"Velocity":55,"Duration":65922,"SoundDuration":65922,"Delta":81501238},{"NoteNumber":54,"Velocity":53,"Duration":63950,"SoundDuration":63950,"Delta":81633083},{"NoteNumber":58,"Velocity":64,"Duration":63950,"SoundDuration":63950,"Delta":81633083},{"NoteNumber":48,"Velocity":59,"Duration":65889,"SoundDuration":65889,"Delta":81760950},{"NoteNumber":40,"Velocity":45,"Duration":65889,"SoundDuration":65889,"Delta":81760950},{"NoteNumber":54,"Velocity":48,"Duration":65922,"SoundDuration":65922,"Delta":81892761},{"NoteNumber":58,"Velocity":58,"Duration":65922,"SoundDuration":65922,"Delta":81892761},{"NoteNumber":55,"Velocity":56,"Duration":65229,"SoundDuration":65229,"Delta":82024606},{"NoteNumber":59,"Velocity":67,"Duration":65229,"SoundDuration":65229,"Delta":82024606},{"NoteNumber":49,"Velocity":62,"Duration":69374,"SoundDuration":69374,"Delta":82155053},{"NoteNumber":39,"Velocity":47,"Duration":69374,"SoundDuration":69374,"Delta":82155053},{"NoteNumber":55,"Velocity":50,"Duration":69444,"SoundDuration":69444,"Delta":82293871},{"NoteNumber":59,"Velocity":61,"Duration":69444,"SoundDuration":69444,"Delta":82293871},{"NoteNumber":54,"Velocity":52,"Duration":66135,"SoundDuration":66135,"Delta":82432760},{"NoteNumber":56,"Velocity":58,"Duration":66135,"SoundDuration":66135,"Delta":82432760},{"NoteNumber":60,"Velocity":70,"Duration":66135,"SoundDuration":66135,"Delta":82432760},{"NoteNumber":44,"Velocity":64,"Duration":67843,"SoundDuration":67843,"Delta":82564975},{"NoteNumber":32,"Velocity":49,"Duration":67843,"SoundDuration":67843,"Delta":82564975},{"NoteNumber":48,"Velocity":49,"Duration":71036,"SoundDuration":71036,"Delta":82700692},{"NoteNumber":54,"Velocity":49,"Duration":71036,"SoundDuration":71036,"Delta":82700692},{"NoteNumber":56,"Velocity":53,"Duration":71036,"SoundDuration":71036,"Delta":82700692},{"NoteNumber":60,"Velocity":63,"Duration":71036,"SoundDuration":71036,"Delta":82700692},{"NoteNumber":59,"Velocity":55,"Duration":64036,"SoundDuration":64036,"Delta":82842818},{"NoteNumber":65,"Velocity":61,"Duration":64036,"SoundDuration":64036,"Delta":82842818},{"NoteNumber":68,"Velocity":73,"Duration":64036,"SoundDuration":64036,"Delta":82842818},{"NoteNumber":49,"Velocity":67,"Duration":65889,"SoundDuration":65889,"Delta":82970771},{"NoteNumber":37,"Velocity":51,"Duration":65889,"SoundDuration":65889,"Delta":82970771},{"NoteNumber":59,"Velocity":50,"Duration":67567,"SoundDuration":67567,"Delta":83102583},{"NoteNumber":65,"Velocity":54,"Duration":67567,"SoundDuration":67567,"Delta":83102583},{"NoteNumber":68,"Velocity":64,"Duration":67567,"SoundDuration":67567,"Delta":83102583},{"NoteNumber":59,"Velocity":55,"Duration":63977,"SoundDuration":63977,"Delta":83237718},{"NoteNumber":66,"Velocity":61,"Duration":63977,"SoundDuration":63977,"Delta":83237718},{"NoteNumber":70,"Velocity":73,"Duration":63977,"SoundDuration":63977,"Delta":83237718},{"NoteNumber":66,"Velocity":67,"Duration":64935,"SoundDuration":64935,"Delta":83365613},{"NoteNumber":63,"Velocity":51,"Duration":64935,"SoundDuration":64935,"Delta":83365613},{"NoteNumber":59,"Velocity":50,"Duration":64935,"SoundDuration":64935,"Delta":83495483},{"NoteNumber":66,"Velocity":54,"Duration":64935,"SoundDuration":64935,"Delta":83495483},{"NoteNumber":70,"Velocity":64,"Duration":64935,"SoundDuration":64935,"Delta":83495483},{"NoteNumber":59,"Velocity":55,"Duration":63933,"SoundDuration":63933,"Delta":83625353},{"NoteNumber":65,"Velocity":61,"Duration":63933,"SoundDuration":63933,"Delta":83625353},{"NoteNumber":68,"Velocity":73,"Duration":63933,"SoundDuration":63933,"Delta":83625353},{"NoteNumber":61,"Velocity":67,"Duration":66330,"SoundDuration":66330,"Delta":83753204},{"NoteNumber":56,"Velocity":51,"Duration":66330,"SoundDuration":66330,"Delta":83753204},{"NoteNumber":59,"Velocity":50,"Duration":66371,"SoundDuration":66371,"Delta":83885906},{"NoteNumber":65,"Velocity":54,"Duration":66371,"SoundDuration":66371,"Delta":83885906},{"NoteNumber":68,"Velocity":64,"Duration":66371,"SoundDuration":66371,"Delta":83885906},{"NoteNumber":59,"Velocity":61,"Duration":63957,"SoundDuration":63957,"Delta":84018650},{"NoteNumber":65,"Velocity":73,"Duration":63957,"SoundDuration":63957,"Delta":84018650},{"NoteNumber":61,"Velocity":67,"Duration":65889,"SoundDuration":65889,"Delta":84146524},{"NoteNumber":53,"Velocity":51,"Duration":65889,"SoundDuration":65889,"Delta":84146524},{"NoteNumber":59,"Velocity":54,"Duration":68759,"SoundDuration":68759,"Delta":84278336},{"NoteNumber":65,"Velocity":64,"Duration":68759,"SoundDuration":68759,"Delta":84278336},{"NoteNumber":53,"Velocity":61,"Duration":63998,"SoundDuration":63998,"Delta":84415902},{"NoteNumber":59,"Velocity":61,"Duration":63998,"SoundDuration":63998,"Delta":84415902},{"NoteNumber":61,"Velocity":73,"Duration":63998,"SoundDuration":63998,"Delta":84415902},{"NoteNumber":49,"Velocity":67,"Duration":66913,"SoundDuration":66913,"Delta":84543818},{"NoteNumber":37,"Velocity":51,"Duration":66913,"SoundDuration":66913,"Delta":84543818},{"NoteNumber":53,"Velocity":54,"Duration":66964,"SoundDuration":66964,"Delta":84677695},{"NoteNumber":59,"Velocity":54,"Duration":66964,"SoundDuration":66964,"Delta":84677695},{"NoteNumber":61,"Velocity":64,"Duration":66964,"SoundDuration":66964,"Delta":84677695},{"NoteNumber":59,"Velocity":61,"Duration":65246,"SoundDuration":65246,"Delta":84811624},{"NoteNumber":63,"Velocity":73,"Duration":65246,"SoundDuration":65246,"Delta":84811624},{"NoteNumber":54,"Velocity":67,"Duration":68132,"SoundDuration":68132,"Delta":84942088},{"NoteNumber":49,"Velocity":51,"Duration":68132,"SoundDuration":68132,"Delta":84942088},{"NoteNumber":59,"Velocity":54,"Duration":68181,"SoundDuration":68181,"Delta":85078402},{"NoteNumber":63,"Velocity":64,"Duration":68181,"SoundDuration":68181,"Delta":85078402},{"NoteNumber":55,"Velocity":55,"Duration":65266,"SoundDuration":65266,"Delta":85214766},{"NoteNumber":59,"Velocity":61,"Duration":65266,"SoundDuration":65266,"Delta":85214766},{"NoteNumber":64,"Velocity":73,"Duration":65266,"SoundDuration":65266,"Delta":85214766},{"NoteNumber":49,"Velocity":67,"Duration":69660,"SoundDuration":69660,"Delta":85345250},{"NoteNumber":37,"Velocity":51,"Duration":69660,"SoundDuration":69660,"Delta":85345250},{"NoteNumber":55,"Velocity":50,"Duration":70422,"SoundDuration":70422,"Delta":85485333},{"NoteNumber":59,"Velocity":54,"Duration":70422,"SoundDuration":70422,"Delta":85485333},{"NoteNumber":64,"Velocity":64,"Duration":70422,"SoundDuration":70422,"Delta":85485333},{"NoteNumber":59,"Velocity":55,"Duration":67264,"SoundDuration":67264,"Delta":85626178},{"NoteNumber":61,"Velocity":61,"Duration":67264,"SoundDuration":67264,"Delta":85626178},{"NoteNumber":65,"Velocity":73,"Duration":67264,"SoundDuration":67264,"Delta":85626178},{"NoteNumber":56,"Velocity":67,"Duration":71089,"SoundDuration":71089,"Delta":85760707},{"NoteNumber":49,"Velocity":51,"Duration":71089,"SoundDuration":71089,"Delta":85760707},{"NoteNumber":59,"Velocity":50,"Duration":71089,"SoundDuration":71089,"Delta":85902887},{"NoteNumber":61,"Velocity":54,"Duration":71089,"SoundDuration":71089,"Delta":85902887},{"NoteNumber":65,"Velocity":64,"Duration":71089,"SoundDuration":71089,"Delta":85902887},{"NoteNumber":59,"Velocity":55,"Duration":65037,"SoundDuration":65037,"Delta":86045067},{"NoteNumber":65,"Velocity":61,"Duration":65037,"SoundDuration":65037,"Delta":86045067},{"NoteNumber":68,"Velocity":73,"Duration":65037,"SoundDuration":65037,"Delta":86045067},{"NoteNumber":49,"Velocity":67,"Duration":67523,"SoundDuration":67523,"Delta":86175040},{"NoteNumber":37,"Velocity":51,"Duration":67523,"SoundDuration":67523,"Delta":86175040},{"NoteNumber":59,"Velocity":50,"Duration":80003,"SoundDuration":80003,"Delta":86310132},{"NoteNumber":65,"Velocity":54,"Duration":80003,"SoundDuration":80003,"Delta":86310132},{"NoteNumber":68,"Velocity":64,"Duration":80003,"SoundDuration":80003,"Delta":86310132},{"NoteNumber":63,"Velocity":60,"Duration":65189,"SoundDuration":65189,"Delta":86470349},{"NoteNumber":66,"Velocity":67,"Duration":65189,"SoundDuration":65189,"Delta":86470349},{"NoteNumber":73,"Velocity":80,"Duration":65189,"SoundDuration":65189,"Delta":86470349},{"NoteNumber":66,"Velocity":67,"Duration":67824,"SoundDuration":67824,"Delta":86600473},{"NoteNumber":63,"Velocity":51,"Duration":67824,"SoundDuration":67824,"Delta":86600473},{"NoteNumber":63,"Velocity":50,"Duration":67873,"SoundDuration":67873,"Delta":86736171},{"NoteNumber":66,"Velocity":54,"Duration":67873,"SoundDuration":67873,"Delta":86736171},{"NoteNumber":71,"Velocity":64,"Duration":67873,"SoundDuration":67873,"Delta":86736171},{"NoteNumber":59,"Velocity":55,"Duration":65541,"SoundDuration":65541,"Delta":86871918},{"NoteNumber":63,"Velocity":61,"Duration":65541,"SoundDuration":65541,"Delta":86871918},{"NoteNumber":68,"Velocity":73,"Duration":65541,"SoundDuration":65541,"Delta":86871918},{"NoteNumber":63,"Velocity":67,"Duration":68443,"SoundDuration":68443,"Delta":87002961},{"NoteNumber":59,"Velocity":51,"Duration":68443,"SoundDuration":68443,"Delta":87002961},{"NoteNumber":59,"Velocity":50,"Duration":68493,"SoundDuration":68493,"Delta":87139898},{"NoteNumber":63,"Velocity":54,"Duration":68493,"SoundDuration":68493,"Delta":87139898},{"NoteNumber":68,"Velocity":64,"Duration":68493,"SoundDuration":68493,"Delta":87139898},{"NoteNumber":56,"Velocity":61,"Duration":65551,"SoundDuration":65551,"Delta":87276884},{"NoteNumber":59,"Velocity":61,"Duration":65551,"SoundDuration":65551,"Delta":87276884},{"NoteNumber":65,"Velocity":73,"Duration":65551,"SoundDuration":65551,"Delta":87276884},{"NoteNumber":59,"Velocity":67,"Duration":67833,"SoundDuration":67833,"Delta":87407938},{"NoteNumber":56,"Velocity":51,"Duration":67833,"SoundDuration":67833,"Delta":87407938},{"NoteNumber":56,"Velocity":54,"Duration":70111,"SoundDuration":70111,"Delta":87543645},{"NoteNumber":59,"Velocity":54,"Duration":70111,"SoundDuration":70111,"Delta":87543645},{"NoteNumber":65,"Velocity":64,"Duration":70111,"SoundDuration":70111,"Delta":87543645},{"NoteNumber":53,"Velocity":61,"Duration":67016,"SoundDuration":67016,"Delta":87683850},{"NoteNumber":59,"Velocity":61,"Duration":67016,"SoundDuration":67016,"Delta":87683850},{"NoteNumber":61,"Velocity":73,"Duration":67016,"SoundDuration":67016,"Delta":87683850},{"NoteNumber":49,"Velocity":66,"Duration":69720,"SoundDuration":69720,"Delta":87817831},{"NoteNumber":37,"Velocity":51,"Duration":69720,"SoundDuration":69720,"Delta":87817831},{"NoteNumber":53,"Velocity":52,"Duration":69767,"SoundDuration":69767,"Delta":87957319},{"NoteNumber":59,"Velocity":52,"Duration":69767,"SoundDuration":69767,"Delta":87957319},{"NoteNumber":61,"Velocity":63,"Duration":69767,"SoundDuration":69767,"Delta":87957319},{"NoteNumber":59,"Velocity":58,"Duration":67604,"SoundDuration":67604,"Delta":88096854},{"NoteNumber":63,"Velocity":70,"Duration":67604,"SoundDuration":67604,"Delta":88096854},{"NoteNumber":54,"Velocity":63,"Duration":72728,"SoundDuration":72728,"Delta":88232026},{"NoteNumber":49,"Velocity":49,"Duration":72728,"SoundDuration":72728,"Delta":88232026},{"NoteNumber":59,"Velocity":50,"Duration":72815,"SoundDuration":72815,"Delta":88377569},{"NoteNumber":63,"Velocity":60,"Duration":72815,"SoundDuration":72815,"Delta":88377569},{"NoteNumber":58,"Velocity":56,"Duration":69500,"SoundDuration":69500,"Delta":88523200},{"NoteNumber":52,"Velocity":50,"Duration":69500,"SoundDuration":69500,"Delta":88523200},{"NoteNumber":60,"Velocity":56,"Duration":69500,"SoundDuration":69500,"Delta":88523200},{"NoteNumber":64,"Velocity":67,"Duration":69500,"SoundDuration":69500,"Delta":88523200},{"NoteNumber":48,"Velocity":61,"Duration":74177,"SoundDuration":74177,"Delta":88662145},{"NoteNumber":36,"Velocity":46,"Duration":74177,"SoundDuration":74177,"Delta":88662145},{"NoteNumber":58,"Velocity":48,"Duration":74257,"SoundDuration":74257,"Delta":88810580},{"NoteNumber":52,"Velocity":44,"Duration":74257,"SoundDuration":74257,"Delta":88810580},{"NoteNumber":60,"Velocity":48,"Duration":74257,"SoundDuration":74257,"Delta":88810580},{"NoteNumber":64,"Velocity":57,"Duration":74257,"SoundDuration":74257,"Delta":88810580},{"NoteNumber":57,"Velocity":48,"Duration":72151,"SoundDuration":72151,"Delta":88959095},{"NoteNumber":60,"Velocity":53,"Duration":72151,"SoundDuration":72151,"Delta":88959095},{"NoteNumber":65,"Velocity":64,"Duration":72151,"SoundDuration":72151,"Delta":88959095},{"NoteNumber":53,"Velocity":58,"Duration":77626,"SoundDuration":77626,"Delta":89103361},{"NoteNumber":41,"Velocity":44,"Duration":77626,"SoundDuration":77626,"Delta":89103361},{"NoteNumber":57,"Velocity":42,"Duration":85581,"SoundDuration":85581,"Delta":89258708},{"NoteNumber":60,"Velocity":45,"Duration":85581,"SoundDuration":85581,"Delta":89258708},{"NoteNumber":65,"Velocity":55,"Duration":85581,"SoundDuration":85581,"Delta":89258708},{"NoteNumber":65,"Velocity":50,"Duration":64149,"SoundDuration":64149,"Delta":89430004},{"NoteNumber":77,"Velocity":59,"Duration":64149,"SoundDuration":64149,"Delta":89430004},{"NoteNumber":53,"Velocity":54,"Duration":64149,"SoundDuration":64149,"Delta":89430004},{"NoteNumber":69,"Velocity":45,"Duration":63829,"SoundDuration":63829,"Delta":89557983},{"NoteNumber":72,"Velocity":54,"Duration":63829,"SoundDuration":63829,"Delta":89557983},{"NoteNumber":60,"Velocity":40,"Duration":63829,"SoundDuration":63829,"Delta":89557983},{"NoteNumber":62,"Velocity":46,"Duration":63829,"SoundDuration":63829,"Delta":89621812},{"NoteNumber":69,"Velocity":45,"Duration":67505,"SoundDuration":67505,"Delta":89685642},{"NoteNumber":72,"Velocity":54,"Duration":67505,"SoundDuration":67505,"Delta":89685642},{"NoteNumber":63,"Velocity":52,"Duration":67505,"SoundDuration":67505,"Delta":89685642},{"NoteNumber":67,"Velocity":50,"Duration":63892,"SoundDuration":63892,"Delta":89820715},{"NoteNumber":79,"Velocity":59,"Duration":63892,"SoundDuration":63892,"Delta":89820715},{"NoteNumber":48,"Velocity":54,"Duration":63892,"SoundDuration":63892,"Delta":89820715},{"NoteNumber":70,"Velocity":45,"Duration":64368,"SoundDuration":64368,"Delta":89948437},{"NoteNumber":75,"Velocity":54,"Duration":64368,"SoundDuration":64368,"Delta":89948437},{"NoteNumber":63,"Velocity":44,"Duration":64368,"SoundDuration":64368,"Delta":89948437},{"NoteNumber":65,"Velocity":49,"Duration":64377,"SoundDuration":64377,"Delta":90012805},{"NoteNumber":70,"Velocity":45,"Duration":71311,"SoundDuration":71311,"Delta":90077183},{"NoteNumber":75,"Velocity":54,"Duration":71311,"SoundDuration":71311,"Delta":90077183},{"NoteNumber":67,"Velocity":53,"Duration":71311,"SoundDuration":71311,"Delta":90077183},{"NoteNumber":65,"Velocity":50,"Duration":62240,"SoundDuration":62240,"Delta":90219923},{"NoteNumber":77,"Velocity":59,"Duration":62240,"SoundDuration":62240,"Delta":90219923},{"NoteNumber":53,"Velocity":54,"Duration":62240,"SoundDuration":62240,"Delta":90219923},{"NoteNumber":69,"Velocity":45,"Duration":64342,"SoundDuration":64342,"Delta":90344404},{"NoteNumber":72,"Velocity":54,"Duration":64342,"SoundDuration":64342,"Delta":90344404},{"NoteNumber":60,"Velocity":46,"Duration":64342,"SoundDuration":64342,"Delta":90344404},{"NoteNumber":62,"Velocity":50,"Duration":64377,"SoundDuration":64377,"Delta":90408746},{"NoteNumber":69,"Velocity":45,"Duration":67814,"SoundDuration":67814,"Delta":90473124},{"NoteNumber":72,"Velocity":54,"Duration":67814,"SoundDuration":67814,"Delta":90473124},{"NoteNumber":63,"Velocity":53,"Duration":67814,"SoundDuration":67814,"Delta":90473124},{"NoteNumber":67,"Velocity":50,"Duration":63852,"SoundDuration":63852,"Delta":90608812},{"NoteNumber":79,"Velocity":59,"Duration":63852,"SoundDuration":63852,"Delta":90608812},{"NoteNumber":48,"Velocity":54,"Duration":63852,"SoundDuration":63852,"Delta":90608812},{"NoteNumber":70,"Velocity":45,"Duration":65756,"SoundDuration":65756,"Delta":90736494},{"NoteNumber":75,"Velocity":54,"Duration":65756,"SoundDuration":65756,"Delta":90736494},{"NoteNumber":63,"Velocity":44,"Duration":65756,"SoundDuration":65756,"Delta":90736494},{"NoteNumber":65,"Velocity":46,"Duration":65789,"SoundDuration":65789,"Delta":90802251},{"NoteNumber":70,"Velocity":45,"Duration":70345,"SoundDuration":70345,"Delta":90868040},{"NoteNumber":75,"Velocity":54,"Duration":70345,"SoundDuration":70345,"Delta":90868040},{"NoteNumber":67,"Velocity":49,"Duration":70345,"SoundDuration":70345,"Delta":90868040},{"NoteNumber":65,"Velocity":50,"Duration":65584,"SoundDuration":65584,"Delta":91008808},{"NoteNumber":77,"Velocity":59,"Duration":65584,"SoundDuration":65584,"Delta":91008808},{"NoteNumber":53,"Velocity":54,"Duration":65584,"SoundDuration":65584,"Delta":91008808},{"NoteNumber":69,"Velocity":45,"Duration":65784,"SoundDuration":65784,"Delta":91139894},{"NoteNumber":72,"Velocity":55,"Duration":65784,"SoundDuration":65784,"Delta":91139894},{"NoteNumber":60,"Velocity":48,"Duration":65784,"SoundDuration":65784,"Delta":91139894},{"NoteNumber":62,"Velocity":52,"Duration":65789,"SoundDuration":65789,"Delta":91205679},{"NoteNumber":69,"Velocity":46,"Duration":67838,"SoundDuration":67838,"Delta":91271468},{"NoteNumber":72,"Velocity":56,"Duration":67838,"SoundDuration":67838,"Delta":91271468},{"NoteNumber":63,"Velocity":56,"Duration":67838,"SoundDuration":67838,"Delta":91271468},{"NoteNumber":69,"Velocity":53,"Duration":66979,"SoundDuration":66979,"Delta":91407180},{"NoteNumber":81,"Velocity":62,"Duration":66979,"SoundDuration":66979,"Delta":91407180},{"NoteNumber":72,"Velocity":48,"Duration":67858,"SoundDuration":67858,"Delta":91541124},{"NoteNumber":75,"Velocity":58,"Duration":67858,"SoundDuration":67858,"Delta":91541124},{"NoteNumber":63,"Velocity":54,"Duration":67858,"SoundDuration":67858,"Delta":91541124},{"NoteNumber":65,"Velocity":58,"Duration":67873,"SoundDuration":67873,"Delta":91608982},{"NoteNumber":72,"Velocity":50,"Duration":71036,"SoundDuration":71036,"Delta":91676855},{"NoteNumber":75,"Velocity":60,"Duration":71036,"SoundDuration":71036,"Delta":91676855},{"NoteNumber":67,"Velocity":61,"Duration":71036,"SoundDuration":71036,"Delta":91676855},{"NoteNumber":72,"Velocity":58,"Duration":68178,"SoundDuration":68178,"Delta":91818981},{"NoteNumber":84,"Velocity":68,"Duration":68178,"SoundDuration":68178,"Delta":91818981},{"NoteNumber":75,"Velocity":53,"Duration":70422,"SoundDuration":70422,"Delta":91955342},{"NoteNumber":79,"Velocity":64,"Duration":70422,"SoundDuration":70422,"Delta":91955342},{"NoteNumber":67,"Velocity":61,"Duration":70422,"SoundDuration":70422,"Delta":91955342},{"NoteNumber":69,"Velocity":65,"Duration":70422,"SoundDuration":70422,"Delta":92025765},{"NoteNumber":75,"Velocity":55,"Duration":73529,"SoundDuration":73529,"Delta":92096187},{"NoteNumber":79,"Velocity":67,"Duration":73529,"SoundDuration":73529,"Delta":92096187},{"NoteNumber":70,"Velocity":69,"Duration":73529,"SoundDuration":73529,"Delta":92096187},{"NoteNumber":73,"Velocity":64,"Duration":71089,"SoundDuration":71089,"Delta":92243246},{"NoteNumber":85,"Velocity":75,"Duration":71089,"SoundDuration":71089,"Delta":92243246},{"NoteNumber":75,"Velocity":53,"Duration":72098,"SoundDuration":72098,"Delta":92385426},{"NoteNumber":81,"Velocity":64,"Duration":72098,"SoundDuration":72098,"Delta":92385426},{"NoteNumber":65,"Velocity":62,"Duration":72098,"SoundDuration":72098,"Delta":92385426},{"NoteNumber":67,"Velocity":66,"Duration":72115,"SoundDuration":72115,"Delta":92457524},{"NoteNumber":75,"Velocity":55,"Duration":74585,"SoundDuration":74585,"Delta":92529640},{"NoteNumber":81,"Velocity":67,"Duration":74585,"SoundDuration":74585,"Delta":92529640},{"NoteNumber":69,"Velocity":70,"Duration":74585,"SoundDuration":74585,"Delta":92529640},{"NoteNumber":74,"Velocity":62,"Duration":67747,"SoundDuration":67747,"Delta":92678852},{"NoteNumber":86,"Velocity":62,"Duration":67747,"SoundDuration":67747,"Delta":92678852},{"NoteNumber":58,"Velocity":60,"Duration":67747,"SoundDuration":67747,"Delta":92678852},{"NoteNumber":77,"Velocity":45,"Duration":64683,"SoundDuration":64683,"Delta":92812971},{"NoteNumber":80,"Velocity":54,"Duration":64683,"SoundDuration":64683,"Delta":92812971},{"NoteNumber":65,"Velocity":49,"Duration":64683,"SoundDuration":64683,"Delta":92812971},{"NoteNumber":67,"Velocity":52,"Duration":64655,"SoundDuration":64655,"Delta":92877654},{"NoteNumber":77,"Velocity":45,"Duration":68429,"SoundDuration":68429,"Delta":92942310},{"NoteNumber":80,"Velocity":54,"Duration":68429,"SoundDuration":68429,"Delta":92942310},{"NoteNumber":68,"Velocity":55,"Duration":68429,"SoundDuration":68429,"Delta":92942310},{"NoteNumber":75,"Velocity":65,"Duration":63907,"SoundDuration":63907,"Delta":93079232},{"NoteNumber":87,"Velocity":65,"Duration":63907,"SoundDuration":63907,"Delta":93079232},{"NoteNumber":53,"Velocity":58,"Duration":63907,"SoundDuration":63907,"Delta":93079232},{"NoteNumber":80,"Velocity":45,"Duration":65756,"SoundDuration":65756,"Delta":93206969},{"NoteNumber":84,"Velocity":54,"Duration":65756,"SoundDuration":65756,"Delta":93206969},{"NoteNumber":68,"Velocity":49,"Duration":65756,"SoundDuration":65756,"Delta":93206969},{"NoteNumber":70,"Velocity":52,"Duration":65789,"SoundDuration":65789,"Delta":93272726},{"NoteNumber":80,"Velocity":45,"Duration":67838,"SoundDuration":67838,"Delta":93338515},{"NoteNumber":84,"Velocity":54,"Duration":67838,"SoundDuration":67838,"Delta":93338515},{"NoteNumber":72,"Velocity":55,"Duration":67838,"SoundDuration":67838,"Delta":93338515},{"NoteNumber":74,"Velocity":64,"Duration":63852,"SoundDuration":63852,"Delta":93474227},{"NoteNumber":86,"Velocity":64,"Duration":63852,"SoundDuration":63852,"Delta":93474227},{"NoteNumber":58,"Velocity":63,"Duration":63852,"SoundDuration":63852,"Delta":93474227},{"NoteNumber":77,"Velocity":45,"Duration":64641,"SoundDuration":64641,"Delta":93601909},{"NoteNumber":80,"Velocity":54,"Duration":64641,"SoundDuration":64641,"Delta":93601909},{"NoteNumber":65,"Velocity":51,"Duration":64641,"SoundDuration":64641,"Delta":93601909},{"NoteNumber":67,"Velocity":52,"Duration":64655,"SoundDuration":64655,"Delta":93666550},{"NoteNumber":77,"Velocity":45,"Duration":67819,"SoundDuration":67819,"Delta":93731205},{"NoteNumber":80,"Velocity":54,"Duration":67819,"SoundDuration":67819,"Delta":93731205},{"NoteNumber":68,"Velocity":54,"Duration":67819,"SoundDuration":67819,"Delta":93731205},{"NoteNumber":75,"Velocity":64,"Duration":63852,"SoundDuration":63852,"Delta":93866898},{"NoteNumber":87,"Velocity":64,"Duration":63852,"SoundDuration":63852,"Delta":93866898},{"NoteNumber":53,"Velocity":61,"Duration":63852,"SoundDuration":63852,"Delta":93866898},{"NoteNumber":80,"Velocity":45,"Duration":65756,"SoundDuration":65756,"Delta":93994580},{"NoteNumber":84,"Velocity":54,"Duration":65756,"SoundDuration":65756,"Delta":93994580},{"NoteNumber":68,"Velocity":49,"Duration":65756,"SoundDuration":65756,"Delta":93994580},{"NoteNumber":70,"Velocity":53,"Duration":65789,"SoundDuration":65789,"Delta":94060337},{"NoteNumber":80,"Velocity":45,"Duration":70345,"SoundDuration":70345,"Delta":94126127},{"NoteNumber":84,"Velocity":54,"Duration":70345,"SoundDuration":70345,"Delta":94126127},{"NoteNumber":72,"Velocity":56,"Duration":70345,"SoundDuration":70345,"Delta":94126127},{"NoteNumber":74,"Velocity":65,"Duration":65584,"SoundDuration":65584,"Delta":94266894},{"NoteNumber":86,"Velocity":65,"Duration":65584,"SoundDuration":65584,"Delta":94266894},{"NoteNumber":58,"Velocity":64,"Duration":65584,"SoundDuration":65584,"Delta":94266894},{"NoteNumber":80,"Velocity":45,"Duration":65784,"SoundDuration":65784,"Delta":94397981},{"NoteNumber":82,"Velocity":55,"Duration":65784,"SoundDuration":65784,"Delta":94397981},{"NoteNumber":68,"Velocity":49,"Duration":65784,"SoundDuration":65784,"Delta":94397981},{"NoteNumber":70,"Velocity":52,"Duration":65789,"SoundDuration":65789,"Delta":94463765},{"NoteNumber":80,"Velocity":46,"Duration":67838,"SoundDuration":67838,"Delta":94529555},{"NoteNumber":82,"Velocity":56,"Duration":67838,"SoundDuration":67838,"Delta":94529555},{"NoteNumber":74,"Velocity":54,"Duration":67838,"SoundDuration":67838,"Delta":94529555},{"NoteNumber":75,"Velocity":66,"Duration":66979,"SoundDuration":66979,"Delta":94665267},{"NoteNumber":87,"Velocity":66,"Duration":66979,"SoundDuration":66979,"Delta":94665267},{"NoteNumber":60,"Velocity":66,"Duration":66979,"SoundDuration":66979,"Delta":94665267},{"NoteNumber":80,"Velocity":48,"Duration":67858,"SoundDuration":67858,"Delta":94799210},{"NoteNumber":82,"Velocity":58,"Duration":67858,"SoundDuration":67858,"Delta":94799210},{"NoteNumber":68,"Velocity":51,"Duration":67858,"SoundDuration":67858,"Delta":94799210},{"NoteNumber":70,"Velocity":55,"Duration":67873,"SoundDuration":67873,"Delta":94867068},{"NoteNumber":80,"Velocity":50,"Duration":71036,"SoundDuration":71036,"Delta":94934942},{"NoteNumber":82,"Velocity":60,"Duration":71036,"SoundDuration":71036,"Delta":94934942},{"NoteNumber":75,"Velocity":60,"Duration":71036,"SoundDuration":71036,"Delta":94934942},{"NoteNumber":76,"Velocity":72,"Duration":69444,"SoundDuration":69444,"Delta":95077068},{"NoteNumber":88,"Velocity":72,"Duration":69444,"SoundDuration":69444,"Delta":95077068},{"NoteNumber":61,"Velocity":69,"Duration":69444,"SoundDuration":69444,"Delta":95077068},{"NoteNumber":80,"Velocity":53,"Duration":71428,"SoundDuration":71428,"Delta":95215957},{"NoteNumber":82,"Velocity":64,"Duration":71428,"SoundDuration":71428,"Delta":95215957},{"NoteNumber":68,"Velocity":55,"Duration":71428,"SoundDuration":71428,"Delta":95215957},{"NoteNumber":70,"Velocity":60,"Duration":71428,"SoundDuration":71428,"Delta":95287386},{"NoteNumber":80,"Velocity":55,"Duration":73529,"SoundDuration":73529,"Delta":95358814},{"NoteNumber":82,"Velocity":67,"Duration":73529,"SoundDuration":73529,"Delta":95358814},{"NoteNumber":76,"Velocity":65,"Duration":73529,"SoundDuration":73529,"Delta":95358814},{"NoteNumber":77,"Velocity":64,"Duration":72115,"SoundDuration":72115,"Delta":95505873},{"NoteNumber":89,"Velocity":75,"Duration":72115,"SoundDuration":72115,"Delta":95505873},{"NoteNumber":62,"Velocity":71,"Duration":72115,"SoundDuration":72115,"Delta":95505873},{"NoteNumber":80,"Velocity":53,"Duration":74208,"SoundDuration":74208,"Delta":95650104},{"NoteNumber":82,"Velocity":64,"Duration":74208,"SoundDuration":74208,"Delta":95650104},{"NoteNumber":68,"Velocity":58,"Duration":74208,"SoundDuration":74208,"Delta":95650104},{"NoteNumber":70,"Velocity":61,"Duration":74626,"SoundDuration":74626,"Delta":95724312},{"NoteNumber":80,"Velocity":55,"Duration":78947,"SoundDuration":78947,"Delta":95798939},{"NoteNumber":82,"Velocity":67,"Duration":78947,"SoundDuration":78947,"Delta":95798939},{"NoteNumber":77,"Velocity":63,"Duration":78947,"SoundDuration":78947,"Delta":95798939},{"NoteNumber":79,"Velocity":49,"Duration":67163,"SoundDuration":67163,"Delta":95956834},{"NoteNumber":91,"Velocity":57,"Duration":67163,"SoundDuration":67163,"Delta":95956834},{"NoteNumber":63,"Velocity":35,"Duration":67163,"SoundDuration":67163,"Delta":95956834},{"NoteNumber":83,"Velocity":44,"Duration":65809,"SoundDuration":65809,"Delta":96090962},{"NoteNumber":86,"Velocity":52,"Duration":65809,"SoundDuration":65809,"Delta":96090962},{"NoteNumber":71,"Velocity":30,"Duration":65809,"SoundDuration":65809,"Delta":96090962},{"NoteNumber":72,"Velocity":30,"Duration":65789,"SoundDuration":65789,"Delta":96156771},{"NoteNumber":83,"Velocity":44,"Duration":70345,"SoundDuration":70345,"Delta":96222560},{"NoteNumber":86,"Velocity":52,"Duration":70345,"SoundDuration":70345,"Delta":96222560},{"NoteNumber":74,"Velocity":33,"Duration":70345,"SoundDuration":70345,"Delta":96222560},{"NoteNumber":84,"Velocity":49,"Duration":67355,"SoundDuration":67355,"Delta":96363328},{"NoteNumber":96,"Velocity":57,"Duration":67355,"SoundDuration":67355,"Delta":96363328},{"NoteNumber":72,"Velocity":35,"Duration":67355,"SoundDuration":67355,"Delta":96363328},{"NoteNumber":87,"Velocity":44,"Duration":65804,"SoundDuration":65804,"Delta":96497350},{"NoteNumber":91,"Velocity":52,"Duration":65804,"SoundDuration":65804,"Delta":96497350},{"NoteNumber":75,"Velocity":30,"Duration":65804,"SoundDuration":65804,"Delta":96497350},{"NoteNumber":77,"Velocity":30,"Duration":65789,"SoundDuration":65789,"Delta":96563154},{"NoteNumber":87,"Velocity":44,"Duration":70021,"SoundDuration":70021,"Delta":96628944},{"NoteNumber":91,"Velocity":52,"Duration":70021,"SoundDuration":70021,"Delta":96628944},{"NoteNumber":79,"Velocity":33,"Duration":70021,"SoundDuration":70021,"Delta":96628944},{"NoteNumber":79,"Velocity":49,"Duration":67016,"SoundDuration":67016,"Delta":96769059},{"NoteNumber":91,"Velocity":57,"Duration":67016,"SoundDuration":67016,"Delta":96769059},{"NoteNumber":63,"Velocity":35,"Duration":67016,"SoundDuration":67016,"Delta":96769059},{"NoteNumber":83,"Velocity":44,"Duration":65809,"SoundDuration":65809,"Delta":96903040},{"NoteNumber":86,"Velocity":52,"Duration":65809,"SoundDuration":65809,"Delta":96903040},{"NoteNumber":71,"Velocity":30,"Duration":65809,"SoundDuration":65809,"Delta":96903040},{"NoteNumber":72,"Velocity":30,"Duration":65789,"SoundDuration":65789,"Delta":96968849},{"NoteNumber":83,"Velocity":44,"Duration":69701,"SoundDuration":69701,"Delta":97034638},{"NoteNumber":86,"Velocity":52,"Duration":69701,"SoundDuration":69701,"Delta":97034638},{"NoteNumber":74,"Velocity":33,"Duration":69701,"SoundDuration":69701,"Delta":97034638},{"NoteNumber":84,"Velocity":49,"Duration":67010,"SoundDuration":67010,"Delta":97174107},{"NoteNumber":96,"Velocity":57,"Duration":67010,"SoundDuration":67010,"Delta":97174107},{"NoteNumber":72,"Velocity":35,"Duration":67010,"SoundDuration":67010,"Delta":97174107},{"NoteNumber":87,"Velocity":44,"Duration":65809,"SoundDuration":65809,"Delta":97308082},{"NoteNumber":91,"Velocity":52,"Duration":65809,"SoundDuration":65809,"Delta":97308082},{"NoteNumber":75,"Velocity":30,"Duration":65809,"SoundDuration":65809,"Delta":97308082},{"NoteNumber":77,"Velocity":30,"Duration":65789,"SoundDuration":65789,"Delta":97373891},{"NoteNumber":87,"Velocity":44,"Duration":73400,"SoundDuration":73400,"Delta":97439681},{"NoteNumber":91,"Velocity":52,"Duration":73400,"SoundDuration":73400,"Delta":97439681},{"NoteNumber":79,"Velocity":33,"Duration":73400,"SoundDuration":73400,"Delta":97439681},{"NoteNumber":78,"Velocity":44,"Duration":71428,"SoundDuration":71428,"Delta":97586295},{"NoteNumber":63,"Velocity":45,"Duration":71428,"SoundDuration":71428,"Delta":97586295},{"NoteNumber":79,"Velocity":46,"Duration":71321,"SoundDuration":71321,"Delta":97657724},{"NoteNumber":80,"Velocity":47,"Duration":71089,"SoundDuration":71089,"Delta":97729045},{"NoteNumber":71,"Velocity":39,"Duration":71089,"SoundDuration":71089,"Delta":97729045},{"NoteNumber":81,"Velocity":48,"Duration":70872,"SoundDuration":70872,"Delta":97800135},{"NoteNumber":82,"Velocity":49,"Duration":70754,"SoundDuration":70754,"Delta":97871007},{"NoteNumber":74,"Velocity":40,"Duration":70754,"SoundDuration":70754,"Delta":97871007},{"NoteNumber":83,"Velocity":50,"Duration":70483,"SoundDuration":70483,"Delta":97941762},{"NoteNumber":84,"Velocity":52,"Duration":70373,"SoundDuration":70373,"Delta":98012246},{"NoteNumber":79,"Velocity":46,"Duration":70373,"SoundDuration":70373,"Delta":98012246},{"NoteNumber":85,"Velocity":54,"Duration":70093,"SoundDuration":70093,"Delta":98082619},{"NoteNumber":86,"Velocity":54,"Duration":69990,"SoundDuration":69990,"Delta":98152712},{"NoteNumber":74,"Velocity":41,"Duration":69990,"SoundDuration":69990,"Delta":98152712},{"NoteNumber":87,"Velocity":55,"Duration":69767,"SoundDuration":69767,"Delta":98222702},{"NoteNumber":88,"Velocity":55,"Duration":69557,"SoundDuration":69557,"Delta":98292470},{"NoteNumber":71,"Velocity":41,"Duration":69557,"SoundDuration":69557,"Delta":98292470},{"NoteNumber":89,"Velocity":56,"Duration":69348,"SoundDuration":69348,"Delta":98362027},{"NoteNumber":90,"Velocity":56,"Duration":68807,"SoundDuration":68807,"Delta":98431376},{"NoteNumber":63,"Velocity":47,"Duration":68807,"SoundDuration":68807,"Delta":98431376},{"NoteNumber":91,"Velocity":57,"Duration":68807,"SoundDuration":68807,"Delta":98500184},{"NoteNumber":92,"Velocity":58,"Duration":68807,"SoundDuration":68807,"Delta":98568991},{"NoteNumber":72,"Velocity":40,"Duration":68807,"SoundDuration":68807,"Delta":98568991},{"NoteNumber":93,"Velocity":58,"Duration":68807,"SoundDuration":68807,"Delta":98637799},{"NoteNumber":94,"Velocity":59,"Duration":68807,"SoundDuration":68807,"Delta":98706606},{"NoteNumber":75,"Velocity":41,"Duration":68807,"SoundDuration":68807,"Delta":98706606},{"NoteNumber":95,"Velocity":59,"Duration":68807,"SoundDuration":68807,"Delta":98775413},{"NoteNumber":98,"Velocity":60,"Duration":69160,"SoundDuration":69160,"Delta":98844221},{"NoteNumber":79,"Velocity":47,"Duration":374842,"SoundDuration":374842,"Delta":98844221},{"NoteNumber":96,"Velocity":55,"Duration":71785,"SoundDuration":71785,"Delta":98913381},{"NoteNumber":91,"Velocity":51,"Duration":74836,"SoundDuration":74836,"Delta":98985167},{"NoteNumber":87,"Velocity":47,"Duration":78144,"SoundDuration":78144,"Delta":99060003},{"NoteNumber":84,"Velocity":43,"Duration":80915,"SoundDuration":80915,"Delta":99138148},{"NoteNumber":77,"Velocity":42,"Duration":71800,"SoundDuration":71800,"Delta":99571605},{"NoteNumber":89,"Velocity":51,"Duration":71800,"SoundDuration":71800,"Delta":99571605},{"NoteNumber":63,"Velocity":35,"Duration":71800,"SoundDuration":71800,"Delta":99571605},{"NoteNumber":81,"Velocity":41,"Duration":65809,"SoundDuration":65809,"Delta":99710370},{"NoteNumber":84,"Velocity":50,"Duration":65809,"SoundDuration":65809,"Delta":99710370},{"NoteNumber":69,"Velocity":30,"Duration":65809,"SoundDuration":65809,"Delta":99710370},{"NoteNumber":70,"Velocity":30,"Duration":65789,"SoundDuration":65789,"Delta":99776179},{"NoteNumber":81,"Velocity":41,"Duration":70345,"SoundDuration":70345,"Delta":99841968},{"NoteNumber":84,"Velocity":50,"Duration":70345,"SoundDuration":70345,"Delta":99841968},{"NoteNumber":72,"Velocity":33,"Duration":70345,"SoundDuration":70345,"Delta":99841968},{"NoteNumber":84,"Velocity":47,"Duration":67355,"SoundDuration":67355,"Delta":99982736},{"NoteNumber":96,"Velocity":55,"Duration":67355,"SoundDuration":67355,"Delta":99982736},{"NoteNumber":72,"Velocity":35,"Duration":67355,"SoundDuration":67355,"Delta":99982736},{"NoteNumber":87,"Velocity":41,"Duration":65804,"SoundDuration":65804,"Delta":100116758},{"NoteNumber":90,"Velocity":50,"Duration":65804,"SoundDuration":65804,"Delta":100116758},{"NoteNumber":75,"Velocity":30,"Duration":65804,"SoundDuration":65804,"Delta":100116758},{"NoteNumber":77,"Velocity":30,"Duration":65789,"SoundDuration":65789,"Delta":100182562},{"NoteNumber":87,"Velocity":41,"Duration":70021,"SoundDuration":70021,"Delta":100248351},{"NoteNumber":90,"Velocity":50,"Duration":70021,"SoundDuration":70021,"Delta":100248351},{"NoteNumber":78,"Velocity":33,"Duration":70021,"SoundDuration":70021,"Delta":100248351},{"NoteNumber":77,"Velocity":47,"Duration":67016,"SoundDuration":67016,"Delta":100388467},{"NoteNumber":89,"Velocity":55,"Duration":67016,"SoundDuration":67016,"Delta":100388467},{"NoteNumber":63,"Velocity":35,"Duration":67016,"SoundDuration":67016,"Delta":100388467},{"NoteNumber":81,"Velocity":41,"Duration":65809,"SoundDuration":65809,"Delta":100522447},{"NoteNumber":84,"Velocity":50,"Duration":65809,"SoundDuration":65809,"Delta":100522447},{"NoteNumber":69,"Velocity":30,"Duration":65809,"SoundDuration":65809,"Delta":100522447},{"NoteNumber":70,"Velocity":30,"Duration":65789,"SoundDuration":65789,"Delta":100588256},{"NoteNumber":81,"Velocity":41,"Duration":69701,"SoundDuration":69701,"Delta":100654046},{"NoteNumber":84,"Velocity":50,"Duration":69701,"SoundDuration":69701,"Delta":100654046},{"NoteNumber":72,"Velocity":33,"Duration":69701,"SoundDuration":69701,"Delta":100654046},{"NoteNumber":84,"Velocity":47,"Duration":67010,"SoundDuration":67010,"Delta":100793515},{"NoteNumber":96,"Velocity":55,"Duration":67010,"SoundDuration":67010,"Delta":100793515},{"NoteNumber":72,"Velocity":35,"Duration":67010,"SoundDuration":67010,"Delta":100793515},{"NoteNumber":87,"Velocity":41,"Duration":65809,"SoundDuration":65809,"Delta":100927490},{"NoteNumber":90,"Velocity":50,"Duration":65809,"SoundDuration":65809,"Delta":100927490},{"NoteNumber":75,"Velocity":30,"Duration":65809,"SoundDuration":65809,"Delta":100927490},{"NoteNumber":77,"Velocity":30,"Duration":65789,"SoundDuration":65789,"Delta":100993299},{"NoteNumber":87,"Velocity":41,"Duration":73400,"SoundDuration":73400,"Delta":101059088},{"NoteNumber":90,"Velocity":50,"Duration":73400,"SoundDuration":73400,"Delta":101059088},{"NoteNumber":78,"Velocity":33,"Duration":73400,"SoundDuration":73400,"Delta":101059088},{"NoteNumber":76,"Velocity":46,"Duration":71428,"SoundDuration":71428,"Delta":101205703},{"NoteNumber":63,"Velocity":45,"Duration":71428,"SoundDuration":71428,"Delta":101205703},{"NoteNumber":77,"Velocity":47,"Duration":71321,"SoundDuration":71321,"Delta":101277132},{"NoteNumber":78,"Velocity":48,"Duration":71089,"SoundDuration":71089,"Delta":101348453},{"NoteNumber":69,"Velocity":39,"Duration":71089,"SoundDuration":71089,"Delta":101348453},{"NoteNumber":79,"Velocity":49,"Duration":70872,"SoundDuration":70872,"Delta":101419543},{"NoteNumber":80,"Velocity":50,"Duration":70754,"SoundDuration":70754,"Delta":101490415},{"NoteNumber":72,"Velocity":40,"Duration":70754,"SoundDuration":70754,"Delta":101490415},{"NoteNumber":81,"Velocity":51,"Duration":70483,"SoundDuration":70483,"Delta":101561170},{"NoteNumber":82,"Velocity":52,"Duration":70373,"SoundDuration":70373,"Delta":101631653},{"NoteNumber":77,"Velocity":46,"Duration":70373,"SoundDuration":70373,"Delta":101631653},{"NoteNumber":83,"Velocity":53,"Duration":70093,"SoundDuration":70093,"Delta":101702026},{"NoteNumber":84,"Velocity":54,"Duration":69990,"SoundDuration":69990,"Delta":101772120},{"NoteNumber":72,"Velocity":41,"Duration":69990,"SoundDuration":69990,"Delta":101772120},{"NoteNumber":85,"Velocity":55,"Duration":69767,"SoundDuration":69767,"Delta":101842110},{"NoteNumber":86,"Velocity":55,"Duration":69557,"SoundDuration":69557,"Delta":101911878},{"NoteNumber":69,"Velocity":41,"Duration":69557,"SoundDuration":69557,"Delta":101911878},{"NoteNumber":87,"Velocity":56,"Duration":69348,"SoundDuration":69348,"Delta":101981435},{"NoteNumber":88,"Velocity":57,"Duration":68807,"SoundDuration":68807,"Delta":102050784},{"NoteNumber":62,"Velocity":47,"Duration":68807,"SoundDuration":68807,"Delta":102050784},{"NoteNumber":89,"Velocity":57,"Duration":68807,"SoundDuration":68807,"Delta":102119592},{"NoteNumber":90,"Velocity":58,"Duration":68807,"SoundDuration":68807,"Delta":102188399},{"NoteNumber":70,"Velocity":40,"Duration":68807,"SoundDuration":68807,"Delta":102188399},{"NoteNumber":91,"Velocity":58,"Duration":68807,"SoundDuration":68807,"Delta":102257206},{"NoteNumber":92,"Velocity":59,"Duration":68807,"SoundDuration":68807,"Delta":102326014},{"NoteNumber":74,"Velocity":41,"Duration":68807,"SoundDuration":68807,"Delta":102326014},{"NoteNumber":93,"Velocity":59,"Duration":68807,"SoundDuration":68807,"Delta":102394821},{"NoteNumber":96,"Velocity":60,"Duration":69160,"SoundDuration":69160,"Delta":102463628},{"NoteNumber":77,"Velocity":47,"Duration":374842,"SoundDuration":374842,"Delta":102463628},{"NoteNumber":94,"Velocity":55,"Duration":71785,"SoundDuration":71785,"Delta":102532789},{"NoteNumber":89,"Velocity":51,"Duration":74836,"SoundDuration":74836,"Delta":102604575},{"NoteNumber":86,"Velocity":47,"Duration":78144,"SoundDuration":78144,"Delta":102679411},{"NoteNumber":82,"Velocity":43,"Duration":80915,"SoundDuration":80915,"Delta":102757556},{"NoteNumber":74,"Velocity":39,"Duration":66666,"SoundDuration":66666,"Delta":103199578},{"NoteNumber":86,"Velocity":47,"Duration":66666,"SoundDuration":66666,"Delta":103199578},{"NoteNumber":60,"Velocity":38,"Duration":66666,"SoundDuration":66666,"Delta":103199578},{"NoteNumber":78,"Velocity":38,"Duration":65804,"SoundDuration":65804,"Delta":103332911},{"NoteNumber":81,"Velocity":46,"Duration":65804,"SoundDuration":65804,"Delta":103332911},{"NoteNumber":66,"Velocity":33,"Duration":65804,"SoundDuration":65804,"Delta":103332911},{"NoteNumber":67,"Velocity":33,"Duration":65789,"SoundDuration":65789,"Delta":103398716},{"NoteNumber":78,"Velocity":38,"Duration":67240,"SoundDuration":67240,"Delta":103464505},{"NoteNumber":81,"Velocity":46,"Duration":67240,"SoundDuration":67240,"Delta":103464505},{"NoteNumber":69,"Velocity":36,"Duration":67240,"SoundDuration":67240,"Delta":103464505},{"NoteNumber":79,"Velocity":43,"Duration":64155,"SoundDuration":64155,"Delta":103599010},{"NoteNumber":91,"Velocity":50,"Duration":64155,"SoundDuration":64155,"Delta":103599010},{"NoteNumber":58,"Velocity":38,"Duration":64155,"SoundDuration":64155,"Delta":103599010},{"NoteNumber":82,"Velocity":38,"Duration":65761,"SoundDuration":65761,"Delta":103727268},{"NoteNumber":86,"Velocity":46,"Duration":65761,"SoundDuration":65761,"Delta":103727268},{"NoteNumber":67,"Velocity":33,"Duration":65761,"SoundDuration":65761,"Delta":103727268},{"NoteNumber":70,"Velocity":33,"Duration":65789,"SoundDuration":65789,"Delta":103793029},{"NoteNumber":82,"Velocity":38,"Duration":70021,"SoundDuration":70021,"Delta":103858819},{"NoteNumber":86,"Velocity":46,"Duration":70021,"SoundDuration":70021,"Delta":103858819},{"NoteNumber":74,"Velocity":36,"Duration":70021,"SoundDuration":70021,"Delta":103858819},{"NoteNumber":72,"Velocity":39,"Duration":66666,"SoundDuration":66666,"Delta":103998934},{"NoteNumber":84,"Velocity":47,"Duration":66666,"SoundDuration":66666,"Delta":103998934},{"NoteNumber":58,"Velocity":38,"Duration":66666,"SoundDuration":66666,"Delta":103998934},{"NoteNumber":76,"Velocity":38,"Duration":65804,"SoundDuration":65804,"Delta":104132267},{"NoteNumber":79,"Velocity":46,"Duration":65804,"SoundDuration":65804,"Delta":104132267},{"NoteNumber":64,"Velocity":33,"Duration":65804,"SoundDuration":65804,"Delta":104132267},{"NoteNumber":65,"Velocity":33,"Duration":65789,"SoundDuration":65789,"Delta":104198071},{"NoteNumber":76,"Velocity":38,"Duration":67537,"SoundDuration":67537,"Delta":104263861},{"NoteNumber":79,"Velocity":46,"Duration":67537,"SoundDuration":67537,"Delta":104263861},{"NoteNumber":67,"Velocity":36,"Duration":67537,"SoundDuration":67537,"Delta":104263861},{"NoteNumber":77,"Velocity":43,"Duration":64160,"SoundDuration":64160,"Delta":104398966},{"NoteNumber":89,"Velocity":50,"Duration":64160,"SoundDuration":64160,"Delta":104398966},{"NoteNumber":57,"Velocity":38,"Duration":64160,"SoundDuration":64160,"Delta":104398966},{"NoteNumber":81,"Velocity":38,"Duration":65761,"SoundDuration":65761,"Delta":104527229},{"NoteNumber":84,"Velocity":46,"Duration":65761,"SoundDuration":65761,"Delta":104527229},{"NoteNumber":65,"Velocity":33,"Duration":65761,"SoundDuration":65761,"Delta":104527229},{"NoteNumber":69,"Velocity":33,"Duration":65789,"SoundDuration":65789,"Delta":104592991},{"NoteNumber":81,"Velocity":38,"Duration":70021,"SoundDuration":70021,"Delta":104658780},{"NoteNumber":84,"Velocity":46,"Duration":70021,"SoundDuration":70021,"Delta":104658780},{"NoteNumber":72,"Velocity":36,"Duration":70021,"SoundDuration":70021,"Delta":104658780},{"NoteNumber":74,"Velocity":39,"Duration":64745,"SoundDuration":64745,"Delta":104798895},{"NoteNumber":86,"Velocity":47,"Duration":64745,"SoundDuration":64745,"Delta":104798895},{"NoteNumber":60,"Velocity":38,"Duration":64745,"SoundDuration":64745,"Delta":104798895},{"NoteNumber":78,"Velocity":38,"Duration":65770,"SoundDuration":65770,"Delta":104928296},{"NoteNumber":81,"Velocity":46,"Duration":65770,"SoundDuration":65770,"Delta":104928296},{"NoteNumber":66,"Velocity":33,"Duration":65770,"SoundDuration":65770,"Delta":104928296},{"NoteNumber":67,"Velocity":33,"Duration":65789,"SoundDuration":65789,"Delta":104994067},{"NoteNumber":78,"Velocity":38,"Duration":67240,"SoundDuration":67240,"Delta":105059856},{"NoteNumber":81,"Velocity":46,"Duration":67240,"SoundDuration":67240,"Delta":105059856},{"NoteNumber":69,"Velocity":36,"Duration":67240,"SoundDuration":67240,"Delta":105059856},{"NoteNumber":79,"Velocity":43,"Duration":64155,"SoundDuration":64155,"Delta":105194361},{"NoteNumber":91,"Velocity":50,"Duration":64155,"SoundDuration":64155,"Delta":105194361},{"NoteNumber":58,"Velocity":38,"Duration":64155,"SoundDuration":64155,"Delta":105194361},{"NoteNumber":82,"Velocity":38,"Duration":65761,"SoundDuration":65761,"Delta":105322619},{"NoteNumber":86,"Velocity":46,"Duration":65761,"SoundDuration":65761,"Delta":105322619},{"NoteNumber":67,"Velocity":33,"Duration":65761,"SoundDuration":65761,"Delta":105322619},{"NoteNumber":70,"Velocity":33,"Duration":65789,"SoundDuration":65789,"Delta":105388380},{"NoteNumber":82,"Velocity":38,"Duration":70021,"SoundDuration":70021,"Delta":105454170},{"NoteNumber":86,"Velocity":46,"Duration":70021,"SoundDuration":70021,"Delta":105454170},{"NoteNumber":74,"Velocity":36,"Duration":70021,"SoundDuration":70021,"Delta":105454170},{"NoteNumber":72,"Velocity":39,"Duration":64745,"SoundDuration":64745,"Delta":105594285},{"NoteNumber":84,"Velocity":47,"Duration":64745,"SoundDuration":64745,"Delta":105594285},{"NoteNumber":58,"Velocity":38,"Duration":64745,"SoundDuration":64745,"Delta":105594285},{"NoteNumber":76,"Velocity":38,"Duration":65770,"SoundDuration":65770,"Delta":105723686},{"NoteNumber":79,"Velocity":46,"Duration":65770,"SoundDuration":65770,"Delta":105723686},{"NoteNumber":64,"Velocity":33,"Duration":65770,"SoundDuration":65770,"Delta":105723686},{"NoteNumber":65,"Velocity":33,"Duration":65789,"SoundDuration":65789,"Delta":105789457},{"NoteNumber":76,"Velocity":38,"Duration":67240,"SoundDuration":67240,"Delta":105855246},{"NoteNumber":79,"Velocity":46,"Duration":67240,"SoundDuration":67240,"Delta":105855246},{"NoteNumber":67,"Velocity":36,"Duration":67240,"SoundDuration":67240,"Delta":105855246},{"NoteNumber":77,"Velocity":43,"Duration":64155,"SoundDuration":64155,"Delta":105989751},{"NoteNumber":89,"Velocity":50,"Duration":64155,"SoundDuration":64155,"Delta":105989751},{"NoteNumber":57,"Velocity":38,"Duration":64155,"SoundDuration":64155,"Delta":105989751},{"NoteNumber":81,"Velocity":38,"Duration":65761,"SoundDuration":65761,"Delta":106118009},{"NoteNumber":84,"Velocity":46,"Duration":65761,"SoundDuration":65761,"Delta":106118009},{"NoteNumber":65,"Velocity":33,"Duration":65761,"SoundDuration":65761,"Delta":106118009},{"NoteNumber":69,"Velocity":33,"Duration":65789,"SoundDuration":65789,"Delta":106183770},{"NoteNumber":81,"Velocity":38,"Duration":77127,"SoundDuration":77127,"Delta":106249560},{"NoteNumber":84,"Velocity":46,"Duration":77127,"SoundDuration":77127,"Delta":106249560},{"NoteNumber":72,"Velocity":36,"Duration":77127,"SoundDuration":77127,"Delta":106249560},{"NoteNumber":82,"Velocity":68,"Duration":66554,"SoundDuration":66554,"Delta":106404007},{"NoteNumber":90,"Velocity":78,"Duration":66554,"SoundDuration":66554,"Delta":106404007},{"NoteNumber":60,"Velocity":59,"Duration":66554,"SoundDuration":66554,"Delta":106404007},{"NoteNumber":78,"Velocity":53,"Duration":66954,"SoundDuration":66954,"Delta":106536932},{"NoteNumber":87,"Velocity":53,"Duration":66954,"SoundDuration":66954,"Delta":106536932},{"NoteNumber":66,"Velocity":40,"Duration":66954,"SoundDuration":66954,"Delta":106536932},{"NoteNumber":70,"Velocity":41,"Duration":66964,"SoundDuration":66964,"Delta":106603887},{"NoteNumber":78,"Velocity":53,"Duration":67259,"SoundDuration":67259,"Delta":106670851},{"NoteNumber":87,"Velocity":53,"Duration":67259,"SoundDuration":67259,"Delta":106670851},{"NoteNumber":75,"Velocity":47,"Duration":67259,"SoundDuration":67259,"Delta":106670851},{"NoteNumber":81,"Velocity":62,"Duration":66099,"SoundDuration":66099,"Delta":106805375},{"NoteNumber":89,"Velocity":71,"Duration":66099,"SoundDuration":66099,"Delta":106805375},{"NoteNumber":60,"Velocity":56,"Duration":66099,"SoundDuration":66099,"Delta":106805375},{"NoteNumber":77,"Velocity":55,"Duration":67542,"SoundDuration":67542,"Delta":106937554},{"NoteNumber":87,"Velocity":55,"Duration":67542,"SoundDuration":67542,"Delta":106937554},{"NoteNumber":65,"Velocity":48,"Duration":67542,"SoundDuration":67542,"Delta":106937554},{"NoteNumber":69,"Velocity":48,"Duration":67567,"SoundDuration":67567,"Delta":107005096},{"NoteNumber":77,"Velocity":53,"Duration":72382,"SoundDuration":72382,"Delta":107072664},{"NoteNumber":87,"Velocity":53,"Duration":72382,"SoundDuration":72382,"Delta":107072664},{"NoteNumber":75,"Velocity":50,"Duration":72382,"SoundDuration":72382,"Delta":107072664},{"NoteNumber":82,"Velocity":77,"Duration":66473,"SoundDuration":66473,"Delta":107217510},{"NoteNumber":90,"Velocity":86,"Duration":66473,"SoundDuration":66473,"Delta":107217510},{"NoteNumber":60,"Velocity":64,"Duration":66473,"SoundDuration":66473,"Delta":107217510},{"NoteNumber":78,"Velocity":59,"Duration":67249,"SoundDuration":67249,"Delta":107350355},{"NoteNumber":87,"Velocity":59,"Duration":67249,"SoundDuration":67249,"Delta":107350355},{"NoteNumber":66,"Velocity":51,"Duration":67249,"SoundDuration":67249,"Delta":107350355},{"NoteNumber":70,"Velocity":51,"Duration":67264,"SoundDuration":67264,"Delta":107417604},{"NoteNumber":78,"Velocity":61,"Duration":67264,"SoundDuration":67264,"Delta":107484869},{"NoteNumber":87,"Velocity":61,"Duration":67264,"SoundDuration":67264,"Delta":107484869},{"NoteNumber":75,"Velocity":55,"Duration":67264,"SoundDuration":67264,"Delta":107484869},{"NoteNumber":81,"Velocity":68,"Duration":65814,"SoundDuration":65814,"Delta":107619398},{"NoteNumber":89,"Velocity":78,"Duration":65814,"SoundDuration":65814,"Delta":107619398},{"NoteNumber":60,"Velocity":61,"Duration":65814,"SoundDuration":65814,"Delta":107619398},{"NoteNumber":77,"Velocity":61,"Duration":67240,"SoundDuration":67240,"Delta":107751002},{"NoteNumber":87,"Velocity":61,"Duration":67240,"SoundDuration":67240,"Delta":107751002},{"NoteNumber":65,"Velocity":51,"Duration":67240,"SoundDuration":67240,"Delta":107751002},{"NoteNumber":69,"Velocity":51,"Duration":67264,"SoundDuration":67264,"Delta":107818242},{"NoteNumber":77,"Velocity":59,"Duration":71695,"SoundDuration":71695,"Delta":107885507},{"NoteNumber":87,"Velocity":59,"Duration":71695,"SoundDuration":71695,"Delta":107885507},{"NoteNumber":75,"Velocity":57,"Duration":71695,"SoundDuration":71695,"Delta":107885507},{"NoteNumber":82,"Velocity":67,"Duration":68547,"SoundDuration":68547,"Delta":108028972},{"NoteNumber":90,"Velocity":79,"Duration":68547,"SoundDuration":68547,"Delta":108028972},{"NoteNumber":60,"Velocity":58,"Duration":68547,"SoundDuration":68547,"Delta":108028972},{"NoteNumber":70,"Velocity":69,"Duration":68547,"SoundDuration":68547,"Delta":108028972},{"NoteNumber":87,"Velocity":72,"Duration":70717,"SoundDuration":70717,"Delta":108166013},{"NoteNumber":78,"Velocity":60,"Duration":70717,"SoundDuration":70717,"Delta":108166013},{"NoteNumber":66,"Velocity":51,"Duration":70717,"SoundDuration":70717,"Delta":108166013},{"NoteNumber":75,"Velocity":60,"Duration":70717,"SoundDuration":70717,"Delta":108166013},{"NoteNumber":82,"Velocity":71,"Duration":68839,"SoundDuration":68839,"Delta":108307485},{"NoteNumber":90,"Velocity":85,"Duration":68839,"SoundDuration":68839,"Delta":108307485},{"NoteNumber":60,"Velocity":58,"Duration":68839,"SoundDuration":68839,"Delta":108307485},{"NoteNumber":70,"Velocity":69,"Duration":68839,"SoundDuration":68839,"Delta":108307485},{"NoteNumber":87,"Velocity":77,"Duration":72060,"SoundDuration":72060,"Delta":108445132},{"NoteNumber":78,"Velocity":77,"Duration":72060,"SoundDuration":72060,"Delta":108445132},{"NoteNumber":66,"Velocity":49,"Duration":72060,"SoundDuration":72060,"Delta":108445132},{"NoteNumber":75,"Velocity":58,"Duration":72060,"SoundDuration":72060,"Delta":108445132},{"NoteNumber":82,"Velocity":63,"Duration":70127,"SoundDuration":70127,"Delta":108589308},{"NoteNumber":90,"Velocity":88,"Duration":70127,"SoundDuration":70127,"Delta":108589308},{"NoteNumber":60,"Velocity":58,"Duration":70127,"SoundDuration":70127,"Delta":108589308},{"NoteNumber":70,"Velocity":70,"Duration":70127,"SoundDuration":70127,"Delta":108589308},{"NoteNumber":87,"Velocity":81,"Duration":76530,"SoundDuration":76530,"Delta":108729528},{"NoteNumber":78,"Velocity":67,"Duration":76530,"SoundDuration":76530,"Delta":108729528},{"NoteNumber":66,"Velocity":50,"Duration":76530,"SoundDuration":76530,"Delta":108729528},{"NoteNumber":75,"Velocity":59,"Duration":76530,"SoundDuration":76530,"Delta":108729528},{"NoteNumber":82,"Velocity":73,"Duration":71180,"SoundDuration":71180,"Delta":108882590},{"NoteNumber":90,"Velocity":86,"Duration":71180,"SoundDuration":71180,"Delta":108882590},{"NoteNumber":61,"Velocity":60,"Duration":71180,"SoundDuration":71180,"Delta":108882590},{"NoteNumber":70,"Velocity":71,"Duration":71180,"SoundDuration":71180,"Delta":108882590},{"NoteNumber":88,"Velocity":80,"Duration":73488,"SoundDuration":73488,"Delta":109024860},{"NoteNumber":78,"Velocity":68,"Duration":73488,"SoundDuration":73488,"Delta":109024860},{"NoteNumber":66,"Velocity":53,"Duration":73488,"SoundDuration":73488,"Delta":109024860},{"NoteNumber":76,"Velocity":63,"Duration":73488,"SoundDuration":73488,"Delta":109024860},{"NoteNumber":82,"Velocity":73,"Duration":72138,"SoundDuration":72138,"Delta":109171878},{"NoteNumber":90,"Velocity":86,"Duration":72138,"SoundDuration":72138,"Delta":109171878},{"NoteNumber":61,"Velocity":59,"Duration":72138,"SoundDuration":72138,"Delta":109171878},{"NoteNumber":70,"Velocity":70,"Duration":72138,"SoundDuration":72138,"Delta":109171878},{"NoteNumber":88,"Velocity":77,"Duration":76457,"SoundDuration":76457,"Delta":109316133},{"NoteNumber":78,"Velocity":65,"Duration":76457,"SoundDuration":76457,"Delta":109316133},{"NoteNumber":66,"Velocity":52,"Duration":76457,"SoundDuration":76457,"Delta":109316133},{"NoteNumber":76,"Velocity":62,"Duration":76530,"SoundDuration":76530,"Delta":109317335},{"NoteNumber":82,"Velocity":72,"Duration":72877,"SoundDuration":72877,"Delta":109469120},{"NoteNumber":90,"Velocity":85,"Duration":72877,"SoundDuration":72877,"Delta":109469120},{"NoteNumber":61,"Velocity":59,"Duration":72877,"SoundDuration":72877,"Delta":109469120},{"NoteNumber":70,"Velocity":70,"Duration":72877,"SoundDuration":72877,"Delta":109469120},{"NoteNumber":88,"Velocity":75,"Duration":78438,"SoundDuration":78438,"Delta":109614813},{"NoteNumber":78,"Velocity":63,"Duration":78438,"SoundDuration":78438,"Delta":109614813},{"NoteNumber":66,"Velocity":56,"Duration":78438,"SoundDuration":78438,"Delta":109614813},{"NoteNumber":76,"Velocity":67,"Duration":78438,"SoundDuration":78438,"Delta":109614813},{"NoteNumber":87,"Velocity":91,"Duration":73280,"SoundDuration":73280,"Delta":109771786},{"NoteNumber":53,"Velocity":65,"Duration":268932,"SoundDuration":268932,"Delta":109771786},{"NoteNumber":60,"Velocity":65,"Duration":268932,"SoundDuration":268932,"Delta":109771786},{"NoteNumber":63,"Velocity":65,"Duration":268932,"SoundDuration":268932,"Delta":109771786},{"NoteNumber":69,"Velocity":77,"Duration":268932,"SoundDuration":268932,"Delta":109771786},{"NoteNumber":91,"Velocity":66,"Duration":65217,"SoundDuration":65217,"Delta":109845067},{"NoteNumber":87,"Velocity":60,"Duration":65217,"SoundDuration":65217,"Delta":109910284},{"NoteNumber":86,"Velocity":55,"Duration":65217,"SoundDuration":65217,"Delta":109975501},{"NoteNumber":84,"Velocity":48,"Duration":65217,"SoundDuration":65217,"Delta":110040719},{"NoteNumber":82,"Velocity":47,"Duration":69374,"SoundDuration":69374,"Delta":110105936},{"NoteNumber":81,"Velocity":53,"Duration":67300,"SoundDuration":67300,"Delta":110175310},{"NoteNumber":84,"Velocity":48,"Duration":65251,"SoundDuration":65251,"Delta":110242611},{"NoteNumber":81,"Velocity":50,"Duration":65217,"SoundDuration":65217,"Delta":110307863},{"NoteNumber":79,"Velocity":50,"Duration":65217,"SoundDuration":65217,"Delta":110373080},{"NoteNumber":77,"Velocity":49,"Duration":65217,"SoundDuration":65217,"Delta":110438297},{"NoteNumber":76,"Velocity":48,"Duration":70992,"SoundDuration":70992,"Delta":110503515},{"NoteNumber":75,"Velocity":53,"Duration":67328,"SoundDuration":67328,"Delta":110574507},{"NoteNumber":79,"Velocity":48,"Duration":65251,"SoundDuration":65251,"Delta":110641835},{"NoteNumber":75,"Velocity":49,"Duration":64377,"SoundDuration":64377,"Delta":110707087},{"NoteNumber":74,"Velocity":49,"Duration":64377,"SoundDuration":64377,"Delta":110771464},{"NoteNumber":72,"Velocity":48,"Duration":64377,"SoundDuration":64377,"Delta":110835842},{"NoteNumber":70,"Velocity":47,"Duration":69998,"SoundDuration":69998,"Delta":110900220},{"NoteNumber":69,"Velocity":55,"Duration":67910,"SoundDuration":67910,"Delta":110970218},{"NoteNumber":72,"Velocity":50,"Duration":65261,"SoundDuration":65261,"Delta":111038128},{"NoteNumber":69,"Velocity":52,"Duration":64377,"SoundDuration":64377,"Delta":111103390},{"NoteNumber":67,"Velocity":52,"Duration":64377,"SoundDuration":64377,"Delta":111167767},{"NoteNumber":65,"Velocity":51,"Duration":64377,"SoundDuration":64377,"Delta":111232145},{"NoteNumber":64,"Velocity":50,"Duration":69677,"SoundDuration":69677,"Delta":111296523},{"NoteNumber":63,"Velocity":57,"Duration":67904,"SoundDuration":67904,"Delta":111366200},{"NoteNumber":67,"Velocity":52,"Duration":65261,"SoundDuration":65261,"Delta":111434105},{"NoteNumber":63,"Velocity":53,"Duration":64377,"SoundDuration":64377,"Delta":111499367},{"NoteNumber":62,"Velocity":53,"Duration":64377,"SoundDuration":64377,"Delta":111563744},{"NoteNumber":60,"Velocity":53,"Duration":64377,"SoundDuration":64377,"Delta":111628122},{"NoteNumber":58,"Velocity":52,"Duration":69998,"SoundDuration":69998,"Delta":111692500},{"NoteNumber":57,"Velocity":61,"Duration":67910,"SoundDuration":67910,"Delta":111762498},{"NoteNumber":60,"Velocity":56,"Duration":65261,"SoundDuration":65261,"Delta":111830408},{"NoteNumber":57,"Velocity":59,"Duration":65217,"SoundDuration":65217,"Delta":111895670},{"NoteNumber":55,"Velocity":59,"Duration":65217,"SoundDuration":65217,"Delta":111960887},{"NoteNumber":53,"Velocity":58,"Duration":65217,"SoundDuration":65217,"Delta":112026104},{"NoteNumber":52,"Velocity":58,"Duration":69691,"SoundDuration":69691,"Delta":112091322},{"NoteNumber":51,"Velocity":66,"Duration":67904,"SoundDuration":67904,"Delta":112161014},{"NoteNumber":55,"Velocity":59,"Duration":65261,"SoundDuration":65261,"Delta":112228918},{"NoteNumber":51,"Velocity":63,"Duration":65217,"SoundDuration":65217,"Delta":112294180},{"NoteNumber":50,"Velocity":64,"Duration":65217,"SoundDuration":65217,"Delta":112359397},{"NoteNumber":48,"Velocity":64,"Duration":65217,"SoundDuration":65217,"Delta":112424615},{"NoteNumber":46,"Velocity":64,"Duration":68747,"SoundDuration":68747,"Delta":112489832},{"NoteNumber":45,"Velocity":75,"Duration":66994,"SoundDuration":66994,"Delta":112558580},{"NoteNumber":48,"Velocity":67,"Duration":65658,"SoundDuration":65658,"Delta":112625575},{"NoteNumber":45,"Velocity":68,"Duration":67436,"SoundDuration":67436,"Delta":112691233},{"NoteNumber":43,"Velocity":66,"Duration":69577,"SoundDuration":69577,"Delta":112758669},{"NoteNumber":41,"Velocity":69,"Duration":71814,"SoundDuration":71814,"Delta":112828247},{"NoteNumber":40,"Velocity":72,"Duration":86865,"SoundDuration":86865,"Delta":112900061},{"NoteNumber":41,"Velocity":77,"Duration":3161667,"SoundDuration":3161667,"Delta":112986927},{"NoteNumber":42,"Velocity":54,"Duration":66079,"SoundDuration":66079,"Delta":113053006},{"NoteNumber":43,"Velocity":54,"Duration":65890,"SoundDuration":65890,"Delta":113119086},{"NoteNumber":44,"Velocity":54,"Duration":65789,"SoundDuration":65789,"Delta":113184977},{"NoteNumber":45,"Velocity":55,"Duration":65746,"SoundDuration":65746,"Delta":113250766},{"NoteNumber":46,"Velocity":55,"Duration":65502,"SoundDuration":65502,"Delta":113316512},{"NoteNumber":47,"Velocity":56,"Duration":65502,"SoundDuration":65502,"Delta":113382015},{"NoteNumber":48,"Velocity":56,"Duration":65269,"SoundDuration":65269,"Delta":113447517},{"NoteNumber":49,"Velocity":56,"Duration":65217,"SoundDuration":65217,"Delta":113512786},{"NoteNumber":50,"Velocity":57,"Duration":65127,"SoundDuration":65127,"Delta":113578004},{"NoteNumber":51,"Velocity":57,"Duration":64935,"SoundDuration":64935,"Delta":113643132},{"NoteNumber":52,"Velocity":58,"Duration":64935,"SoundDuration":64935,"Delta":113708067},{"NoteNumber":53,"Velocity":58,"Duration":64659,"SoundDuration":64659,"Delta":113773002},{"NoteNumber":54,"Velocity":59,"Duration":64655,"SoundDuration":64655,"Delta":113837662},{"NoteNumber":55,"Velocity":59,"Duration":64883,"SoundDuration":64883,"Delta":113902317},{"NoteNumber":56,"Velocity":59,"Duration":64935,"SoundDuration":64935,"Delta":113967201},{"NoteNumber":57,"Velocity":60,"Duration":65165,"SoundDuration":65165,"Delta":114032136},{"NoteNumber":58,"Velocity":60,"Duration":65217,"SoundDuration":65217,"Delta":114097301},{"NoteNumber":59,"Velocity":61,"Duration":65449,"SoundDuration":65449,"Delta":114162519},{"NoteNumber":60,"Velocity":61,"Duration":65502,"SoundDuration":65502,"Delta":114227969},{"NoteNumber":61,"Velocity":61,"Duration":65736,"SoundDuration":65736,"Delta":114293471},{"NoteNumber":62,"Velocity":62,"Duration":65789,"SoundDuration":65789,"Delta":114359208},{"NoteNumber":63,"Velocity":62,"Duration":66026,"SoundDuration":66026,"Delta":114424997},{"NoteNumber":64,"Velocity":63,"Duration":66079,"SoundDuration":66079,"Delta":114491023},{"NoteNumber":65,"Velocity":65,"Duration":66318,"SoundDuration":66318,"Delta":114557102},{"NoteNumber":48,"Velocity":60,"Duration":1591492,"SoundDuration":1591492,"Delta":114557102},{"NoteNumber":51,"Velocity":60,"Duration":1591492,"SoundDuration":1591492,"Delta":114557102},{"NoteNumber":57,"Velocity":60,"Duration":1591492,"SoundDuration":1591492,"Delta":114557102},{"NoteNumber":66,"Velocity":68,"Duration":73057,"SoundDuration":73057,"Delta":114623421},{"NoteNumber":60,"Velocity":58,"Duration":66053,"SoundDuration":66053,"Delta":114696478},{"NoteNumber":61,"Velocity":58,"Duration":66079,"SoundDuration":66079,"Delta":114762532},{"NoteNumber":62,"Velocity":59,"Duration":66079,"SoundDuration":66079,"Delta":114828611},{"NoteNumber":63,"Velocity":60,"Duration":66079,"SoundDuration":66079,"Delta":114894690},{"NoteNumber":64,"Velocity":60,"Duration":65842,"SoundDuration":65842,"Delta":114960769},{"NoteNumber":65,"Velocity":61,"Duration":65789,"SoundDuration":65789,"Delta":115026612},{"NoteNumber":66,"Velocity":62,"Duration":65789,"SoundDuration":65789,"Delta":115092402},{"NoteNumber":67,"Velocity":62,"Duration":65789,"SoundDuration":65789,"Delta":115158191},{"NoteNumber":68,"Velocity":63,"Duration":65554,"SoundDuration":65554,"Delta":115223981},{"NoteNumber":69,"Velocity":63,"Duration":65502,"SoundDuration":65502,"Delta":115289535},{"NoteNumber":70,"Velocity":64,"Duration":65502,"SoundDuration":65502,"Delta":115355038},{"NoteNumber":71,"Velocity":65,"Duration":65502,"SoundDuration":65502,"Delta":115420540},{"NoteNumber":72,"Velocity":65,"Duration":65269,"SoundDuration":65269,"Delta":115486042},{"NoteNumber":73,"Velocity":66,"Duration":65217,"SoundDuration":65217,"Delta":115551311},{"NoteNumber":74,"Velocity":67,"Duration":65217,"SoundDuration":65217,"Delta":115616529},{"NoteNumber":75,"Velocity":67,"Duration":65217,"SoundDuration":65217,"Delta":115681746},{"NoteNumber":76,"Velocity":68,"Duration":65076,"SoundDuration":65076,"Delta":115746963},{"NoteNumber":77,"Velocity":69,"Duration":65727,"SoundDuration":65727,"Delta":115812040},{"NoteNumber":78,"Velocity":69,"Duration":66505,"SoundDuration":66505,"Delta":115877767},{"NoteNumber":79,"Velocity":70,"Duration":67255,"SoundDuration":67255,"Delta":115944273},{"NoteNumber":80,"Velocity":71,"Duration":68115,"SoundDuration":68115,"Delta":116011528},{"NoteNumber":81,"Velocity":71,"Duration":68950,"SoundDuration":68950,"Delta":116079644},{"NoteNumber":82,"Velocity":81,"Duration":69444,"SoundDuration":69444,"Delta":116148595},{"NoteNumber":46,"Velocity":64,"Duration":69444,"SoundDuration":69444,"Delta":116148595},{"NoteNumber":53,"Velocity":64,"Duration":69444,"SoundDuration":69444,"Delta":116148595},{"NoteNumber":62,"Velocity":64,"Duration":69444,"SoundDuration":69444,"Delta":116148595},{"NoteNumber":58,"Velocity":64,"Duration":69444,"SoundDuration":69444,"Delta":116148595},{"NoteNumber":82,"Velocity":57,"Duration":64377,"SoundDuration":64377,"Delta":116287484},{"NoteNumber":77,"Velocity":51,"Duration":64935,"SoundDuration":64935,"Delta":116416239},{"NoteNumber":79,"Velocity":60,"Duration":62500,"SoundDuration":62500,"Delta":116546109},{"NoteNumber":79,"Velocity":57,"Duration":63829,"SoundDuration":63829,"Delta":116671109},{"NoteNumber":74,"Velocity":50,"Duration":65502,"SoundDuration":65502,"Delta":116798769},{"NoteNumber":75,"Velocity":60,"Duration":63559,"SoundDuration":63559,"Delta":116929773},{"NoteNumber":75,"Velocity":55,"Duration":64935,"SoundDuration":64935,"Delta":117056892},{"NoteNumber":70,"Velocity":55,"Duration":64935,"SoundDuration":64935,"Delta":117186762},{"NoteNumber":72,"Velocity":60,"Duration":63829,"SoundDuration":63829,"Delta":117316632},{"NoteNumber":72,"Velocity":54,"Duration":65217,"SoundDuration":65217,"Delta":117444292},{"NoteNumber":67,"Velocity":54,"Duration":64655,"SoundDuration":64655,"Delta":117574726},{"NoteNumber":69,"Velocity":60,"Duration":64377,"SoundDuration":64377,"Delta":117703944},{"NoteNumber":65,"Velocity":51,"Duration":64102,"SoundDuration":64102,"Delta":117768322},{"NoteNumber":67,"Velocity":53,"Duration":63920,"SoundDuration":63920,"Delta":117832424},{"NoteNumber":69,"Velocity":56,"Duration":63694,"SoundDuration":63694,"Delta":117896345},{"NoteNumber":70,"Velocity":58,"Duration":63514,"SoundDuration":63514,"Delta":117960040},{"NoteNumber":72,"Velocity":60,"Duration":63291,"SoundDuration":63291,"Delta":118023554},{"NoteNumber":74,"Velocity":63,"Duration":62587,"SoundDuration":62587,"Delta":118086845},{"NoteNumber":69,"Velocity":53,"Duration":62327,"SoundDuration":62327,"Delta":118149433},{"NoteNumber":70,"Velocity":56,"Duration":62112,"SoundDuration":62112,"Delta":118211760},{"NoteNumber":72,"Velocity":58,"Duration":61898,"SoundDuration":61898,"Delta":118273872},{"NoteNumber":74,"Velocity":61,"Duration":61686,"SoundDuration":61686,"Delta":118335770},{"NoteNumber":75,"Velocity":64,"Duration":61475,"SoundDuration":61475,"Delta":118397457},{"NoteNumber":77,"Velocity":66,"Duration":61224,"SoundDuration":61224,"Delta":118458932},{"NoteNumber":74,"Velocity":57,"Duration":61224,"SoundDuration":61224,"Delta":118520157},{"NoteNumber":75,"Velocity":60,"Duration":61224,"SoundDuration":61224,"Delta":118581381},{"NoteNumber":77,"Velocity":62,"Duration":61224,"SoundDuration":61224,"Delta":118642606},{"NoteNumber":79,"Velocity":65,"Duration":61224,"SoundDuration":61224,"Delta":118703830},{"NoteNumber":81,"Velocity":67,"Duration":61224,"SoundDuration":61224,"Delta":118765055},{"NoteNumber":82,"Velocity":70,"Duration":61476,"SoundDuration":61476,"Delta":118826279},{"NoteNumber":77,"Velocity":65,"Duration":62069,"SoundDuration":62069,"Delta":118887755},{"NoteNumber":79,"Velocity":67,"Duration":62718,"SoundDuration":62718,"Delta":118949825},{"NoteNumber":81,"Velocity":69,"Duration":63336,"SoundDuration":63336,"Delta":119012543},{"NoteNumber":82,"Velocity":71,"Duration":64798,"SoundDuration":64798,"Delta":119075879},{"NoteNumber":84,"Velocity":73,"Duration":66522,"SoundDuration":66522,"Delta":119140678},{"NoteNumber":86,"Velocity":83,"Duration":62500,"SoundDuration":62500,"Delta":119207200},{"NoteNumber":86,"Velocity":57,"Duration":63829,"SoundDuration":63829,"Delta":119332200},{"NoteNumber":81,"Velocity":51,"Duration":64935,"SoundDuration":64935,"Delta":119459860},{"NoteNumber":82,"Velocity":60,"Duration":62500,"SoundDuration":62500,"Delta":119589730},{"NoteNumber":82,"Velocity":57,"Duration":63829,"SoundDuration":63829,"Delta":119714730},{"NoteNumber":77,"Velocity":50,"Duration":65217,"SoundDuration":65217,"Delta":119842389},{"NoteNumber":79,"Velocity":60,"Duration":63291,"SoundDuration":63291,"Delta":119972824},{"NoteNumber":79,"Velocity":55,"Duration":64102,"SoundDuration":64102,"Delta":120099406},{"NoteNumber":74,"Velocity":55,"Duration":65502,"SoundDuration":65502,"Delta":120227612},{"NoteNumber":76,"Velocity":60,"Duration":63829,"SoundDuration":63829,"Delta":120358616},{"NoteNumber":76,"Velocity":54,"Duration":63829,"SoundDuration":63829,"Delta":120486275},{"NoteNumber":71,"Velocity":54,"Duration":64935,"SoundDuration":64935,"Delta":120613935},{"NoteNumber":73,"Velocity":60,"Duration":65789,"SoundDuration":65789,"Delta":120743805},{"NoteNumber":69,"Velocity":51,"Duration":65597,"SoundDuration":65597,"Delta":120809595},{"NoteNumber":71,"Velocity":53,"Duration":65359,"SoundDuration":65359,"Delta":120875193},{"NoteNumber":73,"Velocity":56,"Duration":65123,"SoundDuration":65123,"Delta":120940552},{"NoteNumber":74,"Velocity":58,"Duration":64888,"SoundDuration":64888,"Delta":121005676},{"NoteNumber":76,"Velocity":60,"Duration":64655,"SoundDuration":64655,"Delta":121070564},{"NoteNumber":77,"Velocity":63,"Duration":64377,"SoundDuration":64377,"Delta":121135219},{"NoteNumber":73,"Velocity":53,"Duration":64194,"SoundDuration":64194,"Delta":121199597},{"NoteNumber":74,"Velocity":56,"Duration":63966,"SoundDuration":63966,"Delta":121263791},{"NoteNumber":76,"Velocity":58,"Duration":63739,"SoundDuration":63739,"Delta":121327757},{"NoteNumber":77,"Velocity":61,"Duration":63514,"SoundDuration":63514,"Delta":121391497},{"NoteNumber":79,"Velocity":64,"Duration":63291,"SoundDuration":63291,"Delta":121455012},{"NoteNumber":81,"Velocity":66,"Duration":63025,"SoundDuration":63025,"Delta":121518303},{"NoteNumber":76,"Velocity":57,"Duration":63025,"SoundDuration":63025,"Delta":121581328},{"NoteNumber":77,"Velocity":60,"Duration":63025,"SoundDuration":63025,"Delta":121644353},{"NoteNumber":79,"Velocity":62,"Duration":63025,"SoundDuration":63025,"Delta":121707379},{"NoteNumber":81,"Velocity":65,"Duration":63025,"SoundDuration":63025,"Delta":121770404},{"NoteNumber":83,"Velocity":67,"Duration":63025,"SoundDuration":63025,"Delta":121833429},{"NoteNumber":85,"Velocity":70,"Duration":63158,"SoundDuration":63158,"Delta":121896454},{"NoteNumber":81,"Velocity":65,"Duration":63649,"SoundDuration":63649,"Delta":121959612},{"NoteNumber":83,"Velocity":67,"Duration":64102,"SoundDuration":64102,"Delta":122023262},{"NoteNumber":85,"Velocity":69,"Duration":64609,"SoundDuration":64609,"Delta":122087365},{"NoteNumber":86,"Velocity":71,"Duration":65557,"SoundDuration":65557,"Delta":122151974},{"NoteNumber":88,"Velocity":73,"Duration":79117,"SoundDuration":79117,"Delta":122217531},{"NoteNumber":81,"Velocity":69,"Duration":71428,"SoundDuration":71428,"Delta":122296649},{"NoteNumber":89,"Velocity":80,"Duration":71428,"SoundDuration":71428,"Delta":122296649},{"NoteNumber":41,"Velocity":54,"Duration":71428,"SoundDuration":71428,"Delta":122296649},{"NoteNumber":53,"Velocity":60,"Duration":71428,"SoundDuration":71428,"Delta":122296649},{"NoteNumber":81,"Velocity":57,"Duration":69444,"SoundDuration":69444,"Delta":122439506},{"NoteNumber":89,"Velocity":65,"Duration":69444,"SoundDuration":69444,"Delta":122439506},{"NoteNumber":55,"Velocity":51,"Duration":69444,"SoundDuration":69444,"Delta":122439506},{"NoteNumber":77,"Velocity":51,"Duration":67567,"SoundDuration":67567,"Delta":122578395},{"NoteNumber":84,"Velocity":58,"Duration":67567,"SoundDuration":67567,"Delta":122578395},{"NoteNumber":57,"Velocity":45,"Duration":67567,"SoundDuration":67567,"Delta":122578395},{"NoteNumber":77,"Velocity":60,"Duration":64655,"SoundDuration":64655,"Delta":122713531},{"NoteNumber":86,"Velocity":69,"Duration":64655,"SoundDuration":64655,"Delta":122713531},{"NoteNumber":46,"Velocity":54,"Duration":64655,"SoundDuration":64655,"Delta":122713531},{"NoteNumber":58,"Velocity":54,"Duration":64655,"SoundDuration":64655,"Delta":122713531},{"NoteNumber":77,"Velocity":57,"Duration":65502,"SoundDuration":65502,"Delta":122842841},{"NoteNumber":86,"Velocity":65,"Duration":65502,"SoundDuration":65502,"Delta":122842841},{"NoteNumber":57,"Velocity":51,"Duration":65502,"SoundDuration":65502,"Delta":122842841},{"NoteNumber":74,"Velocity":50,"Duration":67264,"SoundDuration":67264,"Delta":122973845},{"NoteNumber":82,"Velocity":57,"Duration":67264,"SoundDuration":67264,"Delta":122973845},{"NoteNumber":55,"Velocity":45,"Duration":67264,"SoundDuration":67264,"Delta":122973845},{"NoteNumber":79,"Velocity":69,"Duration":63481,"SoundDuration":63481,"Delta":123108374},{"NoteNumber":76,"Velocity":60,"Duration":63481,"SoundDuration":63481,"Delta":123108374},{"NoteNumber":48,"Velocity":54,"Duration":63481,"SoundDuration":63481,"Delta":123108374},{"NoteNumber":60,"Velocity":54,"Duration":63481,"SoundDuration":63481,"Delta":123108374},{"NoteNumber":79,"Velocity":63,"Duration":65502,"SoundDuration":65502,"Delta":123235415},{"NoteNumber":76,"Velocity":55,"Duration":65502,"SoundDuration":65502,"Delta":123235415},{"NoteNumber":62,"Velocity":49,"Duration":65502,"SoundDuration":65502,"Delta":123235415},{"NoteNumber":84,"Velocity":63,"Duration":65502,"SoundDuration":65502,"Delta":123366420},{"NoteNumber":72,"Velocity":55,"Duration":65502,"SoundDuration":65502,"Delta":123366420},{"NoteNumber":64,"Velocity":49,"Duration":65502,"SoundDuration":65502,"Delta":123366420},{"NoteNumber":81,"Velocity":69,"Duration":63829,"SoundDuration":63829,"Delta":123497424},{"NoteNumber":72,"Velocity":60,"Duration":63829,"SoundDuration":63829,"Delta":123497424},{"NoteNumber":53,"Velocity":54,"Duration":63829,"SoundDuration":63829,"Delta":123497424},{"NoteNumber":65,"Velocity":54,"Duration":63829,"SoundDuration":63829,"Delta":123497424},{"NoteNumber":81,"Velocity":62,"Duration":65217,"SoundDuration":65217,"Delta":123625083},{"NoteNumber":72,"Velocity":54,"Duration":65217,"SoundDuration":65217,"Delta":123625083},{"NoteNumber":55,"Velocity":48,"Duration":65217,"SoundDuration":65217,"Delta":123625083},{"NoteNumber":72,"Velocity":54,"Duration":65217,"SoundDuration":65217,"Delta":123755518},{"NoteNumber":77,"Velocity":62,"Duration":65217,"SoundDuration":65217,"Delta":123755518},{"NoteNumber":57,"Velocity":48,"Duration":65217,"SoundDuration":65217,"Delta":123755518},{"NoteNumber":81,"Velocity":69,"Duration":71428,"SoundDuration":71428,"Delta":123885953},{"NoteNumber":89,"Velocity":80,"Duration":71428,"SoundDuration":71428,"Delta":123885953},{"NoteNumber":41,"Velocity":54,"Duration":71428,"SoundDuration":71428,"Delta":123885953},{"NoteNumber":53,"Velocity":60,"Duration":71428,"SoundDuration":71428,"Delta":123885953},{"NoteNumber":81,"Velocity":57,"Duration":66371,"SoundDuration":66371,"Delta":124028810},{"NoteNumber":89,"Velocity":65,"Duration":66371,"SoundDuration":66371,"Delta":124028810},{"NoteNumber":55,"Velocity":51,"Duration":66371,"SoundDuration":66371,"Delta":124028810},{"NoteNumber":77,"Velocity":51,"Duration":67567,"SoundDuration":67567,"Delta":124161553},{"NoteNumber":84,"Velocity":58,"Duration":67567,"SoundDuration":67567,"Delta":124161553},{"NoteNumber":57,"Velocity":45,"Duration":67567,"SoundDuration":67567,"Delta":124161553},{"NoteNumber":77,"Velocity":60,"Duration":64655,"SoundDuration":64655,"Delta":124296689},{"NoteNumber":86,"Velocity":69,"Duration":64655,"SoundDuration":64655,"Delta":124296689},{"NoteNumber":46,"Velocity":54,"Duration":64655,"SoundDuration":64655,"Delta":124296689},{"NoteNumber":58,"Velocity":54,"Duration":64655,"SoundDuration":64655,"Delta":124296689},{"NoteNumber":77,"Velocity":57,"Duration":65502,"SoundDuration":65502,"Delta":124425999},{"NoteNumber":86,"Velocity":65,"Duration":65502,"SoundDuration":65502,"Delta":124425999},{"NoteNumber":57,"Velocity":51,"Duration":65502,"SoundDuration":65502,"Delta":124425999},{"NoteNumber":74,"Velocity":50,"Duration":67264,"SoundDuration":67264,"Delta":124557003},{"NoteNumber":82,"Velocity":57,"Duration":67264,"SoundDuration":67264,"Delta":124557003},{"NoteNumber":55,"Velocity":45,"Duration":67264,"SoundDuration":67264,"Delta":124557003},{"NoteNumber":79,"Velocity":69,"Duration":63481,"SoundDuration":63481,"Delta":124691532},{"NoteNumber":76,"Velocity":60,"Duration":63481,"SoundDuration":63481,"Delta":124691532},{"NoteNumber":48,"Velocity":54,"Duration":63481,"SoundDuration":63481,"Delta":124691532},{"NoteNumber":60,"Velocity":54,"Duration":63481,"SoundDuration":63481,"Delta":124691532},{"NoteNumber":79,"Velocity":63,"Duration":65502,"SoundDuration":65502,"Delta":124818574},{"NoteNumber":76,"Velocity":55,"Duration":65502,"SoundDuration":65502,"Delta":124818574},{"NoteNumber":62,"Velocity":49,"Duration":65502,"SoundDuration":65502,"Delta":124818574},{"NoteNumber":84,"Velocity":63,"Duration":65502,"SoundDuration":65502,"Delta":124949578},{"NoteNumber":72,"Velocity":55,"Duration":65502,"SoundDuration":65502,"Delta":124949578},{"NoteNumber":64,"Velocity":49,"Duration":65502,"SoundDuration":65502,"Delta":124949578},{"NoteNumber":81,"Velocity":69,"Duration":63829,"SoundDuration":63829,"Delta":125080582},{"NoteNumber":72,"Velocity":60,"Duration":63829,"SoundDuration":63829,"Delta":125080582},{"NoteNumber":53,"Velocity":54,"Duration":63829,"SoundDuration":63829,"Delta":125080582},{"NoteNumber":65,"Velocity":54,"Duration":63829,"SoundDuration":63829,"Delta":125080582},{"NoteNumber":81,"Velocity":62,"Duration":65217,"SoundDuration":65217,"Delta":125208242},{"NoteNumber":72,"Velocity":54,"Duration":65217,"SoundDuration":65217,"Delta":125208242},{"NoteNumber":55,"Velocity":48,"Duration":65217,"SoundDuration":65217,"Delta":125208242},{"NoteNumber":72,"Velocity":54,"Duration":65217,"SoundDuration":65217,"Delta":125338676},{"NoteNumber":77,"Velocity":62,"Duration":65217,"SoundDuration":65217,"Delta":125338676},{"NoteNumber":57,"Velocity":48,"Duration":65217,"SoundDuration":65217,"Delta":125338676},{"NoteNumber":81,"Velocity":69,"Duration":71428,"SoundDuration":71428,"Delta":125469111},{"NoteNumber":89,"Velocity":80,"Duration":71428,"SoundDuration":71428,"Delta":125469111},{"NoteNumber":53,"Velocity":54,"Duration":71428,"SoundDuration":71428,"Delta":125469111},{"NoteNumber":65,"Velocity":60,"Duration":71428,"SoundDuration":71428,"Delta":125469111},{"NoteNumber":82,"Velocity":57,"Duration":69444,"SoundDuration":69444,"Delta":125611968},{"NoteNumber":88,"Velocity":65,"Duration":69444,"SoundDuration":69444,"Delta":125611968},{"NoteNumber":65,"Velocity":43,"Duration":69444,"SoundDuration":69444,"Delta":125611968},{"NoteNumber":55,"Velocity":51,"Duration":69444,"SoundDuration":69444,"Delta":125611968},{"NoteNumber":84,"Velocity":51,"Duration":67567,"SoundDuration":67567,"Delta":125750857},{"NoteNumber":87,"Velocity":58,"Duration":67567,"SoundDuration":67567,"Delta":125750857},{"NoteNumber":65,"Velocity":38,"Duration":67567,"SoundDuration":67567,"Delta":125750857},{"NoteNumber":57,"Velocity":45,"Duration":67567,"SoundDuration":67567,"Delta":125750857},{"NoteNumber":82,"Velocity":60,"Duration":64655,"SoundDuration":64655,"Delta":125885993},{"NoteNumber":86,"Velocity":69,"Duration":64655,"SoundDuration":64655,"Delta":125885993},{"NoteNumber":58,"Velocity":54,"Duration":64655,"SoundDuration":64655,"Delta":125885993},{"NoteNumber":65,"Velocity":54,"Duration":64655,"SoundDuration":64655,"Delta":125885993},{"NoteNumber":77,"Velocity":57,"Duration":65502,"SoundDuration":65502,"Delta":126015303},{"NoteNumber":84,"Velocity":65,"Duration":65502,"SoundDuration":65502,"Delta":126015303},{"NoteNumber":65,"Velocity":43,"Duration":65502,"SoundDuration":65502,"Delta":126015303},{"NoteNumber":60,"Velocity":51,"Duration":65502,"SoundDuration":65502,"Delta":126015303},{"NoteNumber":74,"Velocity":50,"Duration":67264,"SoundDuration":67264,"Delta":126146307},{"NoteNumber":82,"Velocity":57,"Duration":67264,"SoundDuration":67264,"Delta":126146307},{"NoteNumber":65,"Velocity":38,"Duration":67264,"SoundDuration":67264,"Delta":126146307},{"NoteNumber":62,"Velocity":38,"Duration":67264,"SoundDuration":67264,"Delta":126146307},{"NoteNumber":83,"Velocity":72,"Duration":71428,"SoundDuration":71428,"Delta":126280836},{"NoteNumber":91,"Velocity":84,"Duration":71428,"SoundDuration":71428,"Delta":126280836},{"NoteNumber":55,"Velocity":56,"Duration":71428,"SoundDuration":71428,"Delta":126280836},{"NoteNumber":67,"Velocity":63,"Duration":71428,"SoundDuration":71428,"Delta":126280836},{"NoteNumber":84,"Velocity":59,"Duration":67567,"SoundDuration":67567,"Delta":126423694},{"NoteNumber":90,"Velocity":68,"Duration":67567,"SoundDuration":67567,"Delta":126423694},{"NoteNumber":67,"Velocity":45,"Duration":67567,"SoundDuration":67567,"Delta":126423694},{"NoteNumber":57,"Velocity":53,"Duration":67567,"SoundDuration":67567,"Delta":126423694},{"NoteNumber":86,"Velocity":53,"Duration":66666,"SoundDuration":66666,"Delta":126558829},{"NoteNumber":89,"Velocity":60,"Duration":66666,"SoundDuration":66666,"Delta":126558829},{"NoteNumber":67,"Velocity":39,"Duration":66666,"SoundDuration":66666,"Delta":126558829},{"NoteNumber":59,"Velocity":47,"Duration":66666,"SoundDuration":66666,"Delta":126558829},{"NoteNumber":84,"Velocity":63,"Duration":64655,"SoundDuration":64655,"Delta":126692162},{"NoteNumber":88,"Velocity":72,"Duration":64655,"SoundDuration":64655,"Delta":126692162},{"NoteNumber":60,"Velocity":56,"Duration":64655,"SoundDuration":64655,"Delta":126692162},{"NoteNumber":67,"Velocity":56,"Duration":64655,"SoundDuration":64655,"Delta":126692162},{"NoteNumber":79,"Velocity":59,"Duration":65502,"SoundDuration":65502,"Delta":126821472},{"NoteNumber":86,"Velocity":68,"Duration":65502,"SoundDuration":65502,"Delta":126821472},{"NoteNumber":67,"Velocity":45,"Duration":65502,"SoundDuration":65502,"Delta":126821472},{"NoteNumber":62,"Velocity":53,"Duration":65502,"SoundDuration":65502,"Delta":126821472},{"NoteNumber":76,"Velocity":52,"Duration":67264,"SoundDuration":67264,"Delta":126952477},{"NoteNumber":84,"Velocity":59,"Duration":67264,"SoundDuration":67264,"Delta":126952477},{"NoteNumber":67,"Velocity":39,"Duration":67264,"SoundDuration":67264,"Delta":126952477},{"NoteNumber":64,"Velocity":39,"Duration":67264,"SoundDuration":67264,"Delta":126952477},{"NoteNumber":85,"Velocity":75,"Duration":71428,"SoundDuration":71428,"Delta":127087006},{"NoteNumber":93,"Velocity":88,"Duration":71428,"SoundDuration":71428,"Delta":127087006},{"NoteNumber":57,"Velocity":58,"Duration":71428,"SoundDuration":71428,"Delta":127087006},{"NoteNumber":69,"Velocity":66,"Duration":71428,"SoundDuration":71428,"Delta":127087006},{"NoteNumber":86,"Velocity":61,"Duration":66666,"SoundDuration":66666,"Delta":127229863},{"NoteNumber":92,"Velocity":71,"Duration":66666,"SoundDuration":66666,"Delta":127229863},{"NoteNumber":69,"Velocity":47,"Duration":66666,"SoundDuration":66666,"Delta":127229863},{"NoteNumber":59,"Velocity":55,"Duration":66666,"SoundDuration":66666,"Delta":127229863},{"NoteNumber":87,"Velocity":55,"Duration":66079,"SoundDuration":66079,"Delta":127363196},{"NoteNumber":91,"Velocity":63,"Duration":66079,"SoundDuration":66079,"Delta":127363196},{"NoteNumber":69,"Velocity":40,"Duration":66079,"SoundDuration":66079,"Delta":127363196},{"NoteNumber":61,"Velocity":49,"Duration":66079,"SoundDuration":66079,"Delta":127363196},{"NoteNumber":86,"Velocity":66,"Duration":64655,"SoundDuration":64655,"Delta":127495355},{"NoteNumber":89,"Velocity":75,"Duration":64655,"SoundDuration":64655,"Delta":127495355},{"NoteNumber":62,"Velocity":58,"Duration":64655,"SoundDuration":64655,"Delta":127495355},{"NoteNumber":69,"Velocity":58,"Duration":64655,"SoundDuration":64655,"Delta":127495355},{"NoteNumber":81,"Velocity":61,"Duration":64935,"SoundDuration":64935,"Delta":127624665},{"NoteNumber":88,"Velocity":71,"Duration":64935,"SoundDuration":64935,"Delta":127624665},{"NoteNumber":69,"Velocity":47,"Duration":64935,"SoundDuration":64935,"Delta":127624665},{"NoteNumber":64,"Velocity":55,"Duration":64935,"SoundDuration":64935,"Delta":127624665},{"NoteNumber":77,"Velocity":54,"Duration":67264,"SoundDuration":67264,"Delta":127754535},{"NoteNumber":86,"Velocity":61,"Duration":67264,"SoundDuration":67264,"Delta":127754535},{"NoteNumber":69,"Velocity":40,"Duration":67264,"SoundDuration":67264,"Delta":127754535},{"NoteNumber":65,"Velocity":40,"Duration":67264,"SoundDuration":67264,"Delta":127754535},{"NoteNumber":86,"Velocity":78,"Duration":73891,"SoundDuration":73891,"Delta":127889065},{"NoteNumber":94,"Velocity":92,"Duration":73891,"SoundDuration":73891,"Delta":127889065},{"NoteNumber":58,"Velocity":60,"Duration":73891,"SoundDuration":73891,"Delta":127889065},{"NoteNumber":70,"Velocity":69,"Duration":73891,"SoundDuration":73891,"Delta":127889065},{"NoteNumber":87,"Velocity":64,"Duration":69444,"SoundDuration":69444,"Delta":128036848},{"NoteNumber":93,"Velocity":74,"Duration":69444,"SoundDuration":69444,"Delta":128036848},{"NoteNumber":70,"Velocity":49,"Duration":69444,"SoundDuration":69444,"Delta":128036848},{"NoteNumber":60,"Velocity":57,"Duration":69444,"SoundDuration":69444,"Delta":128036848},{"NoteNumber":89,"Velocity":57,"Duration":66079,"SoundDuration":66079,"Delta":128175737},{"NoteNumber":92,"Velocity":66,"Duration":66079,"SoundDuration":66079,"Delta":128175737},{"NoteNumber":70,"Velocity":42,"Duration":66079,"SoundDuration":66079,"Delta":128175737},{"NoteNumber":62,"Velocity":51,"Duration":66079,"SoundDuration":66079,"Delta":128175737},{"NoteNumber":87,"Velocity":69,"Duration":63829,"SoundDuration":63829,"Delta":128307895},{"NoteNumber":91,"Velocity":78,"Duration":63829,"SoundDuration":63829,"Delta":128307895},{"NoteNumber":63,"Velocity":60,"Duration":63829,"SoundDuration":63829,"Delta":128307895},{"NoteNumber":70,"Velocity":60,"Duration":63829,"SoundDuration":63829,"Delta":128307895},{"NoteNumber":82,"Velocity":64,"Duration":65502,"SoundDuration":65502,"Delta":128435555},{"NoteNumber":89,"Velocity":74,"Duration":65502,"SoundDuration":65502,"Delta":128435555},{"NoteNumber":70,"Velocity":49,"Duration":65502,"SoundDuration":65502,"Delta":128435555},{"NoteNumber":65,"Velocity":57,"Duration":65502,"SoundDuration":65502,"Delta":128435555},{"NoteNumber":79,"Velocity":56,"Duration":69444,"SoundDuration":69444,"Delta":128566559},{"NoteNumber":87,"Velocity":64,"Duration":69444,"SoundDuration":69444,"Delta":128566559},{"NoteNumber":70,"Velocity":42,"Duration":69444,"SoundDuration":69444,"Delta":128566559},{"NoteNumber":67,"Velocity":42,"Duration":69444,"SoundDuration":69444,"Delta":128566559},{"NoteNumber":82,"Velocity":83,"Duration":64377,"SoundDuration":64377,"Delta":128705448},{"NoteNumber":87,"Velocity":83,"Duration":64377,"SoundDuration":64377,"Delta":128705448},{"NoteNumber":94,"Velocity":83,"Duration":64377,"SoundDuration":64377,"Delta":128705448},{"NoteNumber":63,"Velocity":64,"Duration":64377,"SoundDuration":64377,"Delta":128705448},{"NoteNumber":79,"Velocity":72,"Duration":64377,"SoundDuration":64377,"Delta":128834203},{"NoteNumber":87,"Velocity":72,"Duration":64377,"SoundDuration":64377,"Delta":128834203},{"NoteNumber":91,"Velocity":72,"Duration":64377,"SoundDuration":64377,"Delta":128834203},{"NoteNumber":70,"Velocity":52,"Duration":68181,"SoundDuration":68181,"Delta":128962959},{"NoteNumber":79,"Velocity":52,"Duration":68181,"SoundDuration":68181,"Delta":128962959},{"NoteNumber":82,"Velocity":76,"Duration":64377,"SoundDuration":64377,"Delta":129099322},{"NoteNumber":87,"Velocity":76,"Duration":64377,"SoundDuration":64377,"Delta":129099322},{"NoteNumber":94,"Velocity":76,"Duration":64377,"SoundDuration":64377,"Delta":129099322},{"NoteNumber":63,"Velocity":59,"Duration":64377,"SoundDuration":64377,"Delta":129099322},{"NoteNumber":79,"Velocity":65,"Duration":65789,"SoundDuration":65789,"Delta":129228078},{"NoteNumber":87,"Velocity":65,"Duration":65789,"SoundDuration":65789,"Delta":129228078},{"NoteNumber":91,"Velocity":65,"Duration":65789,"SoundDuration":65789,"Delta":129228078},{"NoteNumber":70,"Velocity":49,"Duration":67567,"SoundDuration":67567,"Delta":129359657},{"NoteNumber":79,"Velocity":49,"Duration":67567,"SoundDuration":67567,"Delta":129359657},{"NoteNumber":82,"Velocity":68,"Duration":64377,"SoundDuration":64377,"Delta":129494792},{"NoteNumber":87,"Velocity":68,"Duration":64377,"SoundDuration":64377,"Delta":129494792},{"NoteNumber":94,"Velocity":68,"Duration":64377,"SoundDuration":64377,"Delta":129494792},{"NoteNumber":63,"Velocity":54,"Duration":64377,"SoundDuration":64377,"Delta":129494792},{"NoteNumber":79,"Velocity":60,"Duration":65789,"SoundDuration":65789,"Delta":129623547},{"NoteNumber":87,"Velocity":60,"Duration":65789,"SoundDuration":65789,"Delta":129623547},{"NoteNumber":91,"Velocity":60,"Duration":65789,"SoundDuration":65789,"Delta":129623547},{"NoteNumber":70,"Velocity":45,"Duration":68181,"SoundDuration":68181,"Delta":129755126},{"NoteNumber":79,"Velocity":45,"Duration":68181,"SoundDuration":68181,"Delta":129755126},{"NoteNumber":82,"Velocity":63,"Duration":64377,"SoundDuration":64377,"Delta":129891490},{"NoteNumber":87,"Velocity":63,"Duration":64377,"SoundDuration":64377,"Delta":129891490},{"NoteNumber":94,"Velocity":63,"Duration":64377,"SoundDuration":64377,"Delta":129891490},{"NoteNumber":63,"Velocity":49,"Duration":64377,"SoundDuration":64377,"Delta":129891490},{"NoteNumber":79,"Velocity":56,"Duration":64377,"SoundDuration":64377,"Delta":130020245},{"NoteNumber":87,"Velocity":56,"Duration":64377,"SoundDuration":64377,"Delta":130020245},{"NoteNumber":91,"Velocity":56,"Duration":64377,"SoundDuration":64377,"Delta":130020245},{"NoteNumber":70,"Velocity":40,"Duration":74626,"SoundDuration":74626,"Delta":130149000},{"NoteNumber":79,"Velocity":40,"Duration":74626,"SoundDuration":74626,"Delta":130149000},{"NoteNumber":82,"Velocity":58,"Duration":65789,"SoundDuration":65789,"Delta":130298254},{"NoteNumber":87,"Velocity":58,"Duration":65789,"SoundDuration":65789,"Delta":130298254},{"NoteNumber":94,"Velocity":58,"Duration":65789,"SoundDuration":65789,"Delta":130298254},{"NoteNumber":60,"Velocity":44,"Duration":65789,"SoundDuration":65789,"Delta":130298254},{"NoteNumber":78,"Velocity":51,"Duration":65789,"SoundDuration":65789,"Delta":130429833},{"NoteNumber":87,"Velocity":51,"Duration":65789,"SoundDuration":65789,"Delta":130429833},{"NoteNumber":90,"Velocity":51,"Duration":65789,"SoundDuration":65789,"Delta":130429833},{"NoteNumber":70,"Velocity":36,"Duration":70093,"SoundDuration":70093,"Delta":130562130},{"NoteNumber":78,"Velocity":36,"Duration":70093,"SoundDuration":70093,"Delta":130562130},{"NoteNumber":82,"Velocity":53,"Duration":66079,"SoundDuration":66079,"Delta":130702317},{"NoteNumber":87,"Velocity":53,"Duration":66079,"SoundDuration":66079,"Delta":130702317},{"NoteNumber":94,"Velocity":53,"Duration":66079,"SoundDuration":66079,"Delta":130702317},{"NoteNumber":60,"Velocity":41,"Duration":66079,"SoundDuration":66079,"Delta":130702317},{"NoteNumber":78,"Velocity":46,"Duration":66079,"SoundDuration":66079,"Delta":130834475},{"NoteNumber":87,"Velocity":46,"Duration":66079,"SoundDuration":66079,"Delta":130834475},{"NoteNumber":90,"Velocity":46,"Duration":66079,"SoundDuration":66079,"Delta":130834475},{"NoteNumber":70,"Velocity":34,"Duration":70754,"SoundDuration":70754,"Delta":130966634},{"NoteNumber":78,"Velocity":34,"Duration":70754,"SoundDuration":70754,"Delta":130966634},{"NoteNumber":82,"Velocity":48,"Duration":66964,"SoundDuration":66964,"Delta":131108143},{"NoteNumber":87,"Velocity":48,"Duration":66964,"SoundDuration":66964,"Delta":131108143},{"NoteNumber":94,"Velocity":48,"Duration":66964,"SoundDuration":66964,"Delta":131108143},{"NoteNumber":60,"Velocity":38,"Duration":66964,"SoundDuration":66964,"Delta":131108143},{"NoteNumber":78,"Velocity":43,"Duration":66964,"SoundDuration":66964,"Delta":131242072},{"NoteNumber":87,"Velocity":43,"Duration":66964,"SoundDuration":66964,"Delta":131242072},{"NoteNumber":90,"Velocity":43,"Duration":66964,"SoundDuration":66964,"Delta":131242072},{"NoteNumber":70,"Velocity":32,"Duration":70754,"SoundDuration":70754,"Delta":131376000},{"NoteNumber":78,"Velocity":32,"Duration":70754,"SoundDuration":70754,"Delta":131376000},{"NoteNumber":82,"Velocity":44,"Duration":66666,"SoundDuration":66666,"Delta":131517510},{"NoteNumber":87,"Velocity":44,"Duration":66666,"SoundDuration":66666,"Delta":131517510},{"NoteNumber":94,"Velocity":44,"Duration":66666,"SoundDuration":66666,"Delta":131517510},{"NoteNumber":60,"Velocity":35,"Duration":66666,"SoundDuration":66666,"Delta":131517510},{"NoteNumber":78,"Velocity":40,"Duration":66666,"SoundDuration":66666,"Delta":131650843},{"NoteNumber":87,"Velocity":40,"Duration":66666,"SoundDuration":66666,"Delta":131650843},{"NoteNumber":90,"Velocity":40,"Duration":66666,"SoundDuration":66666,"Delta":131650843},{"NoteNumber":70,"Velocity":29,"Duration":71770,"SoundDuration":71770,"Delta":131784176},{"NoteNumber":78,"Velocity":29,"Duration":71770,"SoundDuration":71770,"Delta":131784176},{"NoteNumber":98,"Velocity":67,"Duration":73355,"SoundDuration":73355,"Delta":131927717},{"NoteNumber":89,"Velocity":38,"Duration":267496,"SoundDuration":267496,"Delta":131927717},{"NoteNumber":101,"Velocity":56,"Duration":65795,"SoundDuration":65795,"Delta":132001073},{"NoteNumber":99,"Velocity":55,"Duration":63920,"SoundDuration":63920,"Delta":132066868},{"NoteNumber":82,"Velocity":29,"Duration":63920,"SoundDuration":63920,"Delta":132066868},{"NoteNumber":98,"Velocity":53,"Duration":64424,"SoundDuration":64424,"Delta":132130789},{"NoteNumber":96,"Velocity":52,"Duration":64888,"SoundDuration":64888,"Delta":132195213},{"NoteNumber":74,"Velocity":29,"Duration":64888,"SoundDuration":64888,"Delta":132195213},{"NoteNumber":94,"Velocity":50,"Duration":69369,"SoundDuration":69369,"Delta":132260102},{"NoteNumber":93,"Velocity":55,"Duration":67300,"SoundDuration":67300,"Delta":132329471},{"NoteNumber":88,"Velocity":38,"Duration":261587,"SoundDuration":261587,"Delta":132329471},{"NoteNumber":96,"Velocity":58,"Duration":64830,"SoundDuration":64830,"Delta":132396772},{"NoteNumber":94,"Velocity":57,"Duration":64332,"SoundDuration":64332,"Delta":132461602},{"NoteNumber":82,"Velocity":29,"Duration":64332,"SoundDuration":64332,"Delta":132461602},{"NoteNumber":93,"Velocity":55,"Duration":65124,"SoundDuration":65124,"Delta":132525934},{"NoteNumber":91,"Velocity":54,"Duration":65502,"SoundDuration":65502,"Delta":132591059},{"NoteNumber":73,"Velocity":29,"Duration":65502,"SoundDuration":65502,"Delta":132591059},{"NoteNumber":90,"Velocity":53,"Duration":70996,"SoundDuration":70996,"Delta":132656561},{"NoteNumber":93,"Velocity":54,"Duration":66079,"SoundDuration":66079,"Delta":132727558},{"NoteNumber":87,"Velocity":37,"Duration":262543,"SoundDuration":262543,"Delta":132727558},{"NoteNumber":91,"Velocity":54,"Duration":65934,"SoundDuration":65934,"Delta":132793637},{"NoteNumber":89,"Velocity":53,"Duration":65312,"SoundDuration":65312,"Delta":132859571},{"NoteNumber":82,"Velocity":29,"Duration":65312,"SoundDuration":65312,"Delta":132859571},{"NoteNumber":87,"Velocity":52,"Duration":65217,"SoundDuration":65217,"Delta":132924884},{"NoteNumber":86,"Velocity":52,"Duration":64982,"SoundDuration":64982,"Delta":132990101},{"NoteNumber":72,"Velocity":29,"Duration":64982,"SoundDuration":64982,"Delta":132990101},{"NoteNumber":84,"Velocity":51,"Duration":65123,"SoundDuration":65123,"Delta":133055083},{"NoteNumber":83,"Velocity":60,"Duration":73160,"SoundDuration":73160,"Delta":133120206},{"NoteNumber":81,"Velocity":38,"Duration":268391,"SoundDuration":268391,"Delta":133120206},{"NoteNumber":86,"Velocity":50,"Duration":65360,"SoundDuration":65360,"Delta":133193367},{"NoteNumber":84,"Velocity":49,"Duration":64935,"SoundDuration":64935,"Delta":133258727},{"NoteNumber":75,"Velocity":29,"Duration":64935,"SoundDuration":64935,"Delta":133258727},{"NoteNumber":81,"Velocity":47,"Duration":64935,"SoundDuration":64935,"Delta":133323662},{"NoteNumber":79,"Velocity":46,"Duration":64982,"SoundDuration":64982,"Delta":133388597},{"NoteNumber":65,"Velocity":29,"Duration":64982,"SoundDuration":64982,"Delta":133388597},{"NoteNumber":77,"Velocity":45,"Duration":69374,"SoundDuration":69374,"Delta":133453580},{"NoteNumber":86,"Velocity":49,"Duration":67300,"SoundDuration":67300,"Delta":133522954},{"NoteNumber":77,"Velocity":38,"Duration":262852,"SoundDuration":262852,"Delta":133522954},{"NoteNumber":89,"Velocity":52,"Duration":65681,"SoundDuration":65681,"Delta":133590255},{"NoteNumber":87,"Velocity":51,"Duration":64935,"SoundDuration":64935,"Delta":133655937},{"NoteNumber":70,"Velocity":29,"Duration":64935,"SoundDuration":64935,"Delta":133655937},{"NoteNumber":86,"Velocity":49,"Duration":64935,"SoundDuration":64935,"Delta":133720872},{"NoteNumber":84,"Velocity":48,"Duration":65171,"SoundDuration":65171,"Delta":133785807},{"NoteNumber":62,"Velocity":29,"Duration":65171,"SoundDuration":65171,"Delta":133785807},{"NoteNumber":82,"Velocity":47,"Duration":70996,"SoundDuration":70996,"Delta":133850978},{"NoteNumber":81,"Velocity":49,"Duration":67393,"SoundDuration":67393,"Delta":133921975},{"NoteNumber":76,"Velocity":38,"Duration":263984,"SoundDuration":263984,"Delta":133921975},{"NoteNumber":84,"Velocity":52,"Duration":65298,"SoundDuration":65298,"Delta":133989368},{"NoteNumber":82,"Velocity":51,"Duration":65502,"SoundDuration":65502,"Delta":134054667},{"NoteNumber":70,"Velocity":29,"Duration":65502,"SoundDuration":65502,"Delta":134054667},{"NoteNumber":81,"Velocity":49,"Duration":65789,"SoundDuration":65789,"Delta":134120169},{"NoteNumber":79,"Velocity":48,"Duration":66079,"SoundDuration":66079,"Delta":134185959},{"NoteNumber":61,"Velocity":29,"Duration":66079,"SoundDuration":66079,"Delta":134185959},{"NoteNumber":78,"Velocity":47,"Duration":71006,"SoundDuration":71006,"Delta":134252038},{"NoteNumber":81,"Velocity":48,"Duration":66079,"SoundDuration":66079,"Delta":134323045},{"NoteNumber":75,"Velocity":37,"Duration":262878,"SoundDuration":262878,"Delta":134323045},{"NoteNumber":79,"Velocity":48,"Duration":66079,"SoundDuration":66079,"Delta":134389124},{"NoteNumber":77,"Velocity":47,"Duration":65217,"SoundDuration":65217,"Delta":134455203},{"NoteNumber":70,"Velocity":29,"Duration":65217,"SoundDuration":65217,"Delta":134455203},{"NoteNumber":75,"Velocity":46,"Duration":65502,"SoundDuration":65502,"Delta":134520421},{"NoteNumber":74,"Velocity":46,"Duration":65789,"SoundDuration":65789,"Delta":134585923},{"NoteNumber":60,"Velocity":29,"Duration":65789,"SoundDuration":65789,"Delta":134585923},{"NoteNumber":72,"Velocity":45,"Duration":66079,"SoundDuration":66079,"Delta":134651712},{"NoteNumber":71,"Velocity":47,"Duration":73221,"SoundDuration":73221,"Delta":134717791},{"NoteNumber":69,"Velocity":38,"Duration":268548,"SoundDuration":268548,"Delta":134717791},{"NoteNumber":74,"Velocity":46,"Duration":65456,"SoundDuration":65456,"Delta":134791013},{"NoteNumber":72,"Velocity":45,"Duration":64935,"SoundDuration":64935,"Delta":134856470},{"NoteNumber":63,"Velocity":29,"Duration":64935,"SoundDuration":64935,"Delta":134856470},{"NoteNumber":69,"Velocity":44,"Duration":64935,"SoundDuration":64935,"Delta":134921405},{"NoteNumber":67,"Velocity":43,"Duration":65123,"SoundDuration":65123,"Delta":134986340},{"NoteNumber":53,"Velocity":29,"Duration":65123,"SoundDuration":65123,"Delta":134986340},{"NoteNumber":65,"Velocity":42,"Duration":69378,"SoundDuration":69378,"Delta":135051464},{"NoteNumber":74,"Velocity":57,"Duration":66079,"SoundDuration":66079,"Delta":135120843},{"NoteNumber":77,"Velocity":51,"Duration":66079,"SoundDuration":66079,"Delta":135186922},{"NoteNumber":74,"Velocity":51,"Duration":64935,"SoundDuration":64935,"Delta":135253001},{"NoteNumber":72,"Velocity":51,"Duration":64935,"SoundDuration":64935,"Delta":135317936},{"NoteNumber":70,"Velocity":51,"Duration":65789,"SoundDuration":65789,"Delta":135382871},{"NoteNumber":62,"Velocity":51,"Duration":66513,"SoundDuration":66513,"Delta":135448661},{"NoteNumber":62,"Velocity":56,"Duration":66079,"SoundDuration":66079,"Delta":135517468},{"NoteNumber":65,"Velocity":51,"Duration":66079,"SoundDuration":66079,"Delta":135583548},{"NoteNumber":62,"Velocity":51,"Duration":65217,"SoundDuration":65217,"Delta":135649627},{"NoteNumber":60,"Velocity":51,"Duration":65217,"SoundDuration":65217,"Delta":135714844},{"NoteNumber":58,"Velocity":51,"Duration":67873,"SoundDuration":67873,"Delta":135780062},{"NoteNumber":50,"Velocity":51,"Duration":74999,"SoundDuration":74999,"Delta":135847935},{"NoteNumber":74,"Velocity":48,"Duration":66079,"SoundDuration":66079,"Delta":135922935},{"NoteNumber":77,"Velocity":42,"Duration":66079,"SoundDuration":66079,"Delta":135989014},{"NoteNumber":74,"Velocity":42,"Duration":64935,"SoundDuration":64935,"Delta":136055093},{"NoteNumber":72,"Velocity":42,"Duration":64935,"SoundDuration":64935,"Delta":136120028},{"NoteNumber":70,"Velocity":42,"Duration":65789,"SoundDuration":65789,"Delta":136184964},{"NoteNumber":62,"Velocity":42,"Duration":66513,"SoundDuration":66513,"Delta":136250753},{"NoteNumber":62,"Velocity":47,"Duration":66079,"SoundDuration":66079,"Delta":136319560},{"NoteNumber":65,"Velocity":42,"Duration":66079,"SoundDuration":66079,"Delta":136385640},{"NoteNumber":62,"Velocity":42,"Duration":65217,"SoundDuration":65217,"Delta":136451719},{"NoteNumber":60,"Velocity":42,"Duration":65217,"SoundDuration":65217,"Delta":136516936},{"NoteNumber":58,"Velocity":42,"Duration":68493,"SoundDuration":68493,"Delta":136582154},{"NoteNumber":50,"Velocity":42,"Duration":74626,"SoundDuration":74626,"Delta":136650647},{"NoteNumber":74,"Velocity":51,"Duration":66079,"SoundDuration":66079,"Delta":136725274},{"NoteNumber":78,"Velocity":45,"Duration":66079,"SoundDuration":66079,"Delta":136791353},{"NoteNumber":74,"Velocity":45,"Duration":64935,"SoundDuration":64935,"Delta":136857432},{"NoteNumber":72,"Velocity":45,"Duration":64935,"SoundDuration":64935,"Delta":136922367},{"NoteNumber":70,"Velocity":45,"Duration":65789,"SoundDuration":65789,"Delta":136987302},{"NoteNumber":62,"Velocity":45,"Duration":66513,"SoundDuration":66513,"Delta":137053092},{"NoteNumber":62,"Velocity":50,"Duration":66079,"SoundDuration":66079,"Delta":137121899},{"NoteNumber":66,"Velocity":45,"Duration":66079,"SoundDuration":66079,"Delta":137187979},{"NoteNumber":62,"Velocity":45,"Duration":65217,"SoundDuration":65217,"Delta":137254058},{"NoteNumber":60,"Velocity":45,"Duration":65217,"SoundDuration":65217,"Delta":137319275},{"NoteNumber":58,"Velocity":45,"Duration":66079,"SoundDuration":66079,"Delta":137384493},{"NoteNumber":50,"Velocity":45,"Duration":73891,"SoundDuration":73891,"Delta":137450572},{"NoteNumber":74,"Velocity":51,"Duration":66079,"SoundDuration":66079,"Delta":137524463},{"NoteNumber":78,"Velocity":45,"Duration":66079,"SoundDuration":66079,"Delta":137590543},{"NoteNumber":74,"Velocity":45,"Duration":64935,"SoundDuration":64935,"Delta":137656622},{"NoteNumber":72,"Velocity":45,"Duration":64935,"SoundDuration":64935,"Delta":137721557},{"NoteNumber":70,"Velocity":45,"Duration":65789,"SoundDuration":65789,"Delta":137786492},{"NoteNumber":62,"Velocity":45,"Duration":66513,"SoundDuration":66513,"Delta":137852282},{"NoteNumber":62,"Velocity":50,"Duration":66079,"SoundDuration":66079,"Delta":137921089},{"NoteNumber":66,"Velocity":45,"Duration":66079,"SoundDuration":66079,"Delta":137987168},{"NoteNumber":62,"Velocity":45,"Duration":65217,"SoundDuration":65217,"Delta":138053248},{"NoteNumber":60,"Velocity":45,"Duration":65217,"SoundDuration":65217,"Delta":138118465},{"NoteNumber":58,"Velocity":45,"Duration":66079,"SoundDuration":66079,"Delta":138183682},{"NoteNumber":50,"Velocity":45,"Duration":69444,"SoundDuration":69444,"Delta":138249762},{"NoteNumber":43,"Velocity":51,"Duration":69444,"SoundDuration":69444,"Delta":138319206},{"NoteNumber":50,"Velocity":45,"Duration":67771,"SoundDuration":67771,"Delta":138388651},{"NoteNumber":53,"Velocity":44,"Duration":67365,"SoundDuration":67365,"Delta":138456422},{"NoteNumber":59,"Velocity":45,"Duration":66815,"SoundDuration":66815,"Delta":138523788},{"NoteNumber":62,"Velocity":46,"Duration":66372,"SoundDuration":66372,"Delta":138590603},{"NoteNumber":67,"Velocity":47,"Duration":65934,"SoundDuration":65934,"Delta":138656975},{"NoteNumber":68,"Velocity":51,"Duration":65502,"SoundDuration":65502,"Delta":138722909},{"NoteNumber":66,"Velocity":45,"Duration":65502,"SoundDuration":65502,"Delta":138788412},{"NoteNumber":67,"Velocity":43,"Duration":65502,"SoundDuration":65502,"Delta":138853914},{"NoteNumber":71,"Velocity":45,"Duration":65502,"SoundDuration":65502,"Delta":138919416},{"NoteNumber":74,"Velocity":46,"Duration":65502,"SoundDuration":65502,"Delta":138984918},{"NoteNumber":79,"Velocity":48,"Duration":65502,"SoundDuration":65502,"Delta":139050420},{"NoteNumber":80,"Velocity":53,"Duration":65502,"SoundDuration":65502,"Delta":139115922},{"NoteNumber":78,"Velocity":47,"Duration":65502,"SoundDuration":65502,"Delta":139181424},{"NoteNumber":79,"Velocity":49,"Duration":65502,"SoundDuration":65502,"Delta":139246926},{"NoteNumber":83,"Velocity":52,"Duration":65502,"SoundDuration":65502,"Delta":139312429},{"NoteNumber":86,"Velocity":54,"Duration":65502,"SoundDuration":65502,"Delta":139377931},{"NoteNumber":91,"Velocity":56,"Duration":65502,"SoundDuration":65502,"Delta":139443433},{"NoteNumber":92,"Velocity":59,"Duration":65550,"SoundDuration":65550,"Delta":139508935},{"NoteNumber":90,"Velocity":55,"Duration":65886,"SoundDuration":65886,"Delta":139574485},{"NoteNumber":91,"Velocity":58,"Duration":66225,"SoundDuration":66225,"Delta":139640371},{"NoteNumber":95,"Velocity":60,"Duration":66568,"SoundDuration":66568,"Delta":139706596},{"NoteNumber":98,"Velocity":63,"Duration":68035,"SoundDuration":68035,"Delta":139773165},{"NoteNumber":103,"Velocity":66,"Duration":70874,"SoundDuration":70874,"Delta":139841201},{"NoteNumber":101,"Velocity":68,"Duration":67164,"SoundDuration":67164,"Delta":139912075},{"NoteNumber":100,"Velocity":67,"Duration":66765,"SoundDuration":66765,"Delta":139979240},{"NoteNumber":96,"Velocity":65,"Duration":66274,"SoundDuration":66274,"Delta":140046005},{"NoteNumber":48,"Velocity":45,"Duration":66274,"SoundDuration":66274,"Delta":140046005},{"NoteNumber":91,"Velocity":64,"Duration":65886,"SoundDuration":65886,"Delta":140112280},{"NoteNumber":89,"Velocity":62,"Duration":65407,"SoundDuration":65407,"Delta":140178166},{"NoteNumber":55,"Velocity":45,"Duration":65407,"SoundDuration":65407,"Delta":140178166},{"NoteNumber":88,"Velocity":61,"Duration":65029,"SoundDuration":65029,"Delta":140243573},{"NoteNumber":84,"Velocity":60,"Duration":64655,"SoundDuration":64655,"Delta":140308602},{"NoteNumber":60,"Velocity":45,"Duration":64655,"SoundDuration":64655,"Delta":140308602},{"NoteNumber":79,"Velocity":59,"Duration":64655,"SoundDuration":64655,"Delta":140373257},{"NoteNumber":77,"Velocity":58,"Duration":65077,"SoundDuration":65077,"Delta":140437912},{"NoteNumber":62,"Velocity":47,"Duration":65077,"SoundDuration":65077,"Delta":140437912},{"NoteNumber":76,"Velocity":56,"Duration":66178,"SoundDuration":66178,"Delta":140502989},{"NoteNumber":72,"Velocity":55,"Duration":66476,"SoundDuration":66476,"Delta":140569167},{"NoteNumber":64,"Velocity":49,"Duration":66476,"SoundDuration":66476,"Delta":140569167},{"NoteNumber":67,"Velocity":51,"Duration":111111,"SoundDuration":111111,"Delta":140635644},{"NoteNumber":66,"Velocity":57,"Duration":72815,"SoundDuration":72815,"Delta":140746755},{"NoteNumber":71,"Velocity":47,"Duration":69552,"SoundDuration":69552,"Delta":140819571},{"NoteNumber":75,"Velocity":49,"Duration":68651,"SoundDuration":68651,"Delta":140889124},{"NoteNumber":59,"Velocity":49,"Duration":68651,"SoundDuration":68651,"Delta":140889124},{"NoteNumber":78,"Velocity":50,"Duration":67822,"SoundDuration":67822,"Delta":140957775},{"NoteNumber":82,"Velocity":51,"Duration":66965,"SoundDuration":66965,"Delta":141025598},{"NoteNumber":54,"Velocity":47,"Duration":66965,"SoundDuration":66965,"Delta":141025598},{"NoteNumber":83,"Velocity":53,"Duration":66128,"SoundDuration":66128,"Delta":141092563},{"NoteNumber":87,"Velocity":54,"Duration":65360,"SoundDuration":65360,"Delta":141158691},{"NoteNumber":51,"Velocity":44,"Duration":65360,"SoundDuration":65360,"Delta":141158691},{"NoteNumber":90,"Velocity":55,"Duration":64563,"SoundDuration":64563,"Delta":141224052},{"NoteNumber":94,"Velocity":57,"Duration":63830,"SoundDuration":63830,"Delta":141288615},{"NoteNumber":95,"Velocity":58,"Duration":63025,"SoundDuration":63025,"Delta":141352445},{"NoteNumber":99,"Velocity":59,"Duration":62500,"SoundDuration":62500,"Delta":141415471},{"NoteNumber":65,"Velocity":57,"Duration":72815,"SoundDuration":72815,"Delta":141618158},{"NoteNumber":70,"Velocity":47,"Duration":66865,"SoundDuration":66865,"Delta":141690974},{"NoteNumber":74,"Velocity":49,"Duration":66323,"SoundDuration":66323,"Delta":141757839},{"NoteNumber":62,"Velocity":49,"Duration":66323,"SoundDuration":66323,"Delta":141757839},{"NoteNumber":77,"Velocity":50,"Duration":65809,"SoundDuration":65809,"Delta":141827466},{"NoteNumber":81,"Velocity":51,"Duration":65312,"SoundDuration":65312,"Delta":141890000},{"NoteNumber":58,"Velocity":47,"Duration":65312,"SoundDuration":65312,"Delta":141890000},{"NoteNumber":82,"Velocity":53,"Duration":64795,"SoundDuration":64795,"Delta":141955313},{"NoteNumber":86,"Velocity":54,"Duration":64285,"SoundDuration":64285,"Delta":142020108},{"NoteNumber":53,"Velocity":44,"Duration":64285,"SoundDuration":64285,"Delta":142020108},{"NoteNumber":89,"Velocity":55,"Duration":63785,"SoundDuration":63785,"Delta":142084394},{"NoteNumber":93,"Velocity":57,"Duration":63336,"SoundDuration":63336,"Delta":142148179},{"NoteNumber":94,"Velocity":58,"Duration":62832,"SoundDuration":62832,"Delta":142208364},{"NoteNumber":98,"Velocity":59,"Duration":62674,"SoundDuration":62674,"Delta":142274321},{"NoteNumber":64,"Velocity":51,"Duration":71991,"SoundDuration":71991,"Delta":142481226},{"NoteNumber":70,"Velocity":42,"Duration":67771,"SoundDuration":67771,"Delta":142553218},{"NoteNumber":73,"Velocity":44,"Duration":67416,"SoundDuration":67416,"Delta":142620989},{"NoteNumber":61,"Velocity":44,"Duration":67416,"SoundDuration":67416,"Delta":142620989},{"NoteNumber":76,"Velocity":45,"Duration":67064,"SoundDuration":67064,"Delta":142688405},{"NoteNumber":78,"Velocity":45,"Duration":66716,"SoundDuration":66716,"Delta":142755470},{"NoteNumber":58,"Velocity":42,"Duration":66716,"SoundDuration":66716,"Delta":142755470},{"NoteNumber":82,"Velocity":47,"Duration":66322,"SoundDuration":66322,"Delta":142822186},{"NoteNumber":85,"Velocity":48,"Duration":65982,"SoundDuration":65982,"Delta":142888509},{"NoteNumber":54,"Velocity":39,"Duration":65982,"SoundDuration":65982,"Delta":142888509},{"NoteNumber":88,"Velocity":49,"Duration":65645,"SoundDuration":65645,"Delta":142954491},{"NoteNumber":90,"Velocity":51,"Duration":65312,"SoundDuration":65312,"Delta":143020137},{"NoteNumber":94,"Velocity":52,"Duration":64996,"SoundDuration":64996,"Delta":143082189},{"NoteNumber":97,"Velocity":53,"Duration":250000,"SoundDuration":250000,"Delta":143150432},{"NoteNumber":41,"Velocity":38,"Duration":893932,"SoundDuration":893932,"Delta":143400432},{"NoteNumber":48,"Velocity":42,"Duration":827265,"SoundDuration":827265,"Delta":143467098},{"NoteNumber":51,"Velocity":47,"Duration":760598,"SoundDuration":760598,"Delta":143533765},{"NoteNumber":58,"Velocity":51,"Duration":696240,"SoundDuration":696240,"Delta":143597098},{"NoteNumber":60,"Velocity":43,"Duration":64331,"SoundDuration":64331,"Delta":143665087},{"NoteNumber":62,"Velocity":44,"Duration":64011,"SoundDuration":64011,"Delta":143729419},{"NoteNumber":64,"Velocity":44,"Duration":63694,"SoundDuration":63694,"Delta":143793430},{"NoteNumber":65,"Velocity":45,"Duration":63380,"SoundDuration":63380,"Delta":143857125},{"NoteNumber":67,"Velocity":46,"Duration":63069,"SoundDuration":63069,"Delta":143920505},{"NoteNumber":69,"Velocity":47,"Duration":62761,"SoundDuration":62761,"Delta":143983575},{"NoteNumber":70,"Velocity":47,"Duration":62456,"SoundDuration":62456,"Delta":144046336},{"NoteNumber":72,"Velocity":48,"Duration":62154,"SoundDuration":62154,"Delta":144108793},{"NoteNumber":74,"Velocity":49,"Duration":61855,"SoundDuration":61855,"Delta":144170948},{"NoteNumber":75,"Velocity":50,"Duration":61559,"SoundDuration":61559,"Delta":144232804},{"NoteNumber":77,"Velocity":50,"Duration":61183,"SoundDuration":61183,"Delta":144294364},{"NoteNumber":53,"Velocity":33,"Duration":757258,"SoundDuration":757258,"Delta":144294364},{"NoteNumber":57,"Velocity":34,"Duration":736808,"SoundDuration":736808,"Delta":144314814},{"NoteNumber":63,"Velocity":36,"Duration":716400,"SoundDuration":716400,"Delta":144335222},{"NoteNumber":79,"Velocity":51,"Duration":60606,"SoundDuration":60606,"Delta":144355547},{"NoteNumber":69,"Velocity":37,"Duration":696074,"SoundDuration":696074,"Delta":144355547},{"NoteNumber":81,"Velocity":50,"Duration":60241,"SoundDuration":60241,"Delta":144416154},{"NoteNumber":82,"Velocity":51,"Duration":59880,"SoundDuration":59880,"Delta":144476395},{"NoteNumber":84,"Velocity":52,"Duration":59524,"SoundDuration":59524,"Delta":144536276},{"NoteNumber":86,"Velocity":52,"Duration":59171,"SoundDuration":59171,"Delta":144595800},{"NoteNumber":87,"Velocity":53,"Duration":58823,"SoundDuration":58823,"Delta":144654971},{"NoteNumber":89,"Velocity":54,"Duration":57879,"SoundDuration":57879,"Delta":144713795},{"NoteNumber":91,"Velocity":54,"Duration":57143,"SoundDuration":57143,"Delta":144771675},{"NoteNumber":93,"Velocity":55,"Duration":56568,"SoundDuration":56568,"Delta":144828819},{"NoteNumber":94,"Velocity":56,"Duration":55970,"SoundDuration":55970,"Delta":144885387},{"NoteNumber":96,"Velocity":57,"Duration":55419,"SoundDuration":55419,"Delta":144941358},{"NoteNumber":97,"Velocity":57,"Duration":54845,"SoundDuration":54845,"Delta":144996777},{"NoteNumber":98,"Velocity":63,"Duration":54945,"SoundDuration":54945,"Delta":145051622},{"NoteNumber":94,"Velocity":63,"Duration":54945,"SoundDuration":54945,"Delta":145051622},{"NoteNumber":58,"Velocity":34,"Duration":54945,"SoundDuration":54945,"Delta":145051622},{"NoteNumber":65,"Velocity":34,"Duration":54945,"SoundDuration":54945,"Delta":145051622},{"NoteNumber":70,"Velocity":34,"Duration":54945,"SoundDuration":54945,"Delta":145051622},{"NoteNumber":74,"Velocity":34,"Duration":54945,"SoundDuration":54945,"Delta":145051622},{"NoteNumber":98,"Velocity":62,"Duration":56390,"SoundDuration":56390,"Delta":145161512},{"NoteNumber":94,"Velocity":62,"Duration":56390,"SoundDuration":56390,"Delta":145161512},{"NoteNumber":86,"Velocity":47,"Duration":57251,"SoundDuration":57251,"Delta":145274294},{"NoteNumber":89,"Velocity":47,"Duration":57251,"SoundDuration":57251,"Delta":145274294},{"NoteNumber":87,"Velocity":52,"Duration":54545,"SoundDuration":54545,"Delta":145388798},{"NoteNumber":90,"Velocity":52,"Duration":54545,"SoundDuration":54545,"Delta":145388798},{"NoteNumber":87,"Velocity":52,"Duration":55179,"SoundDuration":55179,"Delta":145497889},{"NoteNumber":90,"Velocity":52,"Duration":55179,"SoundDuration":55179,"Delta":145497889},{"NoteNumber":81,"Velocity":47,"Duration":57125,"SoundDuration":57125,"Delta":145608248},{"NoteNumber":78,"Velocity":47,"Duration":57125,"SoundDuration":57125,"Delta":145608248},{"NoteNumber":86,"Velocity":51,"Duration":54151,"SoundDuration":54151,"Delta":145722499},{"NoteNumber":82,"Velocity":51,"Duration":54151,"SoundDuration":54151,"Delta":145722499},{"NoteNumber":86,"Velocity":51,"Duration":55658,"SoundDuration":55658,"Delta":145830802},{"NoteNumber":82,"Velocity":51,"Duration":55658,"SoundDuration":55658,"Delta":145830802},{"NoteNumber":74,"Velocity":38,"Duration":57125,"SoundDuration":57125,"Delta":145942120},{"NoteNumber":77,"Velocity":38,"Duration":57125,"SoundDuration":57125,"Delta":145942120},{"NoteNumber":75,"Velocity":44,"Duration":53191,"SoundDuration":53191,"Delta":146056371},{"NoteNumber":78,"Velocity":44,"Duration":53191,"SoundDuration":53191,"Delta":146056371},{"NoteNumber":75,"Velocity":44,"Duration":55179,"SoundDuration":55179,"Delta":146162754},{"NoteNumber":78,"Velocity":44,"Duration":55179,"SoundDuration":55179,"Delta":146162754},{"NoteNumber":69,"Velocity":36,"Duration":56382,"SoundDuration":56382,"Delta":146273113},{"NoteNumber":66,"Velocity":36,"Duration":56382,"SoundDuration":56382,"Delta":146273113},{"NoteNumber":74,"Velocity":45,"Duration":53191,"SoundDuration":53191,"Delta":146385878},{"NoteNumber":70,"Velocity":45,"Duration":53191,"SoundDuration":53191,"Delta":146385878},{"NoteNumber":74,"Velocity":45,"Duration":54545,"SoundDuration":54545,"Delta":146492261},{"NoteNumber":70,"Velocity":45,"Duration":54545,"SoundDuration":54545,"Delta":146492261},{"NoteNumber":62,"Velocity":34,"Duration":55762,"SoundDuration":55762,"Delta":146601352},{"NoteNumber":65,"Velocity":34,"Duration":55762,"SoundDuration":55762,"Delta":146601352},{"NoteNumber":63,"Velocity":39,"Duration":52631,"SoundDuration":52631,"Delta":146712876},{"NoteNumber":66,"Velocity":39,"Duration":52631,"SoundDuration":52631,"Delta":146712876},{"NoteNumber":63,"Velocity":39,"Duration":55179,"SoundDuration":55179,"Delta":146818139},{"NoteNumber":66,"Velocity":39,"Duration":55179,"SoundDuration":55179,"Delta":146818139},{"NoteNumber":57,"Velocity":32,"Duration":56382,"SoundDuration":56382,"Delta":146928498},{"NoteNumber":54,"Velocity":32,"Duration":56382,"SoundDuration":56382,"Delta":146928498},{"NoteNumber":62,"Velocity":45,"Duration":53380,"SoundDuration":53380,"Delta":147041263},{"NoteNumber":58,"Velocity":45,"Duration":53380,"SoundDuration":53380,"Delta":147041263},{"NoteNumber":62,"Velocity":45,"Duration":55658,"SoundDuration":55658,"Delta":147148025},{"NoteNumber":58,"Velocity":45,"Duration":55658,"SoundDuration":55658,"Delta":147148025},{"NoteNumber":50,"Velocity":34,"Duration":57125,"SoundDuration":57125,"Delta":147259342},{"NoteNumber":53,"Velocity":34,"Duration":57125,"SoundDuration":57125,"Delta":147259342},{"NoteNumber":51,"Velocity":39,"Duration":54257,"SoundDuration":54257,"Delta":147373593},{"NoteNumber":54,"Velocity":39,"Duration":54257,"SoundDuration":54257,"Delta":147373593},{"NoteNumber":51,"Velocity":39,"Duration":55179,"SoundDuration":55179,"Delta":147482108},{"NoteNumber":54,"Velocity":39,"Duration":55179,"SoundDuration":55179,"Delta":147482108},{"NoteNumber":45,"Velocity":41,"Duration":62840,"SoundDuration":62840,"Delta":147592467},{"NoteNumber":41,"Velocity":41,"Duration":62840,"SoundDuration":62840,"Delta":147592467},{"NoteNumber":46,"Velocity":58,"Duration":64234,"SoundDuration":64234,"Delta":147718147},{"NoteNumber":50,"Velocity":58,"Duration":64234,"SoundDuration":64234,"Delta":147718147},{"NoteNumber":53,"Velocity":36,"Duration":56900,"SoundDuration":56900,"Delta":147981690},{"NoteNumber":58,"Velocity":45,"Duration":54347,"SoundDuration":54347,"Delta":148095491},{"NoteNumber":58,"Velocity":45,"Duration":54347,"SoundDuration":54347,"Delta":148204186},{"NoteNumber":46,"Velocity":33,"Duration":58994,"SoundDuration":58994,"Delta":148312882},{"NoteNumber":53,"Velocity":40,"Duration":55555,"SoundDuration":55555,"Delta":148430872},{"NoteNumber":53,"Velocity":40,"Duration":55555,"SoundDuration":55555,"Delta":148541983},{"NoteNumber":41,"Velocity":34,"Duration":60474,"SoundDuration":60474,"Delta":148653094},{"NoteNumber":46,"Velocity":38,"Duration":57034,"SoundDuration":57034,"Delta":148774042},{"NoteNumber":46,"Velocity":38,"Duration":57034,"SoundDuration":57034,"Delta":148888110},{"NoteNumber":29,"Velocity":34,"Duration":60728,"SoundDuration":60728,"Delta":149002179},{"NoteNumber":22,"Velocity":27,"Duration":60728,"SoundDuration":60728,"Delta":149123636},{"NoteNumber":34,"Velocity":34,"Duration":60728,"SoundDuration":60728,"Delta":149123636}],"license":{"name":"Creative Commons Attribution-ShareAlike 3.0 Germany","url":"http://creativecommons.org/licenses/by-sa/3.0/de/deed.en","text":"The MIDI files in this folder were downloaded from http://www.piano-midi.de and are licensed under the Creative Commons Attribution-ShareAlike 3.0 Germany license by Bernd Krueger.\n\nThe MIDI, audio(MP3, OGG) and video files of Bernd Krueger are licensed under the cc-by-sa Germany License . This means, that you can use and adapt the files, as long as you attribute to the copyright holder Name: Bernd Krueger Source: http://www.piano-midi.de The distribution or public playback of the files is only allowed under identical license conditions . The scores are open source.","attribution":"Bernd Krueger","attributionUrl":"http://www.piano-midi.de"}}