{"title":"1. Im Kloster","artist":"Piano","durationMs":257360,"midiSha256":"77f45644e7e92e045bca23e8b68c2d3e3647bbe0b5af59351858d4d0204b4087","midiObject":[{"NoteNumber":78,"Velocity":44,"Duration":410958,"SoundDuration":410958,"Delta":0},{"NoteNumber":87,"Velocity":44,"Duration":410958,"SoundDuration":410958,"Delta":0},{"NoteNumber":92,"Velocity":49,"Duration":410958,"SoundDuration":410958,"Delta":0},{"NoteNumber":60,"Velocity":55,"Duration":410958,"SoundDuration":410958,"Delta":0},{"NoteNumber":25,"Velocity":29,"Duration":379747,"SoundDuration":379747,"Delta":1642123},{"NoteNumber":61,"Velocity":55,"Duration":397351,"SoundDuration":397351,"Delta":3161111},{"NoteNumber":88,"Velocity":49,"Duration":397351,"SoundDuration":397351,"Delta":3161111},{"NoteNumber":81,"Velocity":44,"Duration":397351,"SoundDuration":397351,"Delta":3161111},{"NoteNumber":76,"Velocity":44,"Duration":397351,"SoundDuration":397351,"Delta":3161111},{"NoteNumber":25,"Velocity":29,"Duration":382165,"SoundDuration":382165,"Delta":4750516},{"NoteNumber":63,"Velocity":55,"Duration":392157,"SoundDuration":392157,"Delta":6279177},{"NoteNumber":69,"Velocity":44,"Duration":392157,"SoundDuration":392157,"Delta":6279177},{"NoteNumber":78,"Velocity":49,"Duration":392157,"SoundDuration":392157,"Delta":6279177},{"NoteNumber":83,"Velocity":49,"Duration":392157,"SoundDuration":392157,"Delta":6279177},{"NoteNumber":25,"Velocity":29,"Duration":379747,"SoundDuration":379747,"Delta":7847806},{"NoteNumber":80,"Velocity":49,"Duration":392156,"SoundDuration":392156,"Delta":9366794},{"NoteNumber":73,"Velocity":44,"Duration":392156,"SoundDuration":392156,"Delta":9366794},{"NoteNumber":68,"Velocity":44,"Duration":392156,"SoundDuration":392156,"Delta":9366794},{"NoteNumber":64,"Velocity":55,"Duration":392156,"SoundDuration":392156,"Delta":9366794},{"NoteNumber":25,"Velocity":28,"Duration":384615,"SoundDuration":384615,"Delta":10935422},{"NoteNumber":80,"Velocity":49,"Duration":402684,"SoundDuration":402684,"Delta":12473884},{"NoteNumber":75,"Velocity":44,"Duration":402684,"SoundDuration":402684,"Delta":12473884},{"NoteNumber":66,"Velocity":49,"Duration":402684,"SoundDuration":402684,"Delta":12473884},{"NoteNumber":48,"Velocity":55,"Duration":402684,"SoundDuration":402684,"Delta":12473884},{"NoteNumber":25,"Velocity":28,"Duration":382165,"SoundDuration":382165,"Delta":14084621},{"NoteNumber":64,"Velocity":49,"Duration":400000,"SoundDuration":400000,"Delta":15613284},{"NoteNumber":69,"Velocity":44,"Duration":400000,"SoundDuration":400000,"Delta":15613284},{"NoteNumber":76,"Velocity":49,"Duration":400000,"SoundDuration":400000,"Delta":15613284},{"NoteNumber":49,"Velocity":55,"Duration":400000,"SoundDuration":400000,"Delta":15613284},{"NoteNumber":25,"Velocity":29,"Duration":379746,"SoundDuration":379746,"Delta":17213284},{"NoteNumber":57,"Velocity":49,"Duration":399999,"SoundDuration":399999,"Delta":18732272},{"NoteNumber":66,"Velocity":44,"Duration":399999,"SoundDuration":399999,"Delta":18732272},{"NoteNumber":71,"Velocity":49,"Duration":399999,"SoundDuration":399999,"Delta":18732272},{"NoteNumber":51,"Velocity":57,"Duration":399999,"SoundDuration":399999,"Delta":18732272},{"NoteNumber":25,"Velocity":28,"Duration":384615,"SoundDuration":384615,"Delta":20332272},{"NoteNumber":56,"Velocity":49,"Duration":402684,"SoundDuration":402684,"Delta":21870734},{"NoteNumber":61,"Velocity":44,"Duration":402684,"SoundDuration":402684,"Delta":21870734},{"NoteNumber":68,"Velocity":49,"Duration":402684,"SoundDuration":402684,"Delta":21870734},{"NoteNumber":52,"Velocity":56,"Duration":402684,"SoundDuration":402684,"Delta":21870734},{"NoteNumber":25,"Velocity":27,"Duration":387097,"SoundDuration":387097,"Delta":23481472},{"NoteNumber":57,"Velocity":61,"Duration":399999,"SoundDuration":399999,"Delta":25029860},{"NoteNumber":62,"Velocity":61,"Duration":399999,"SoundDuration":399999,"Delta":25029860},{"NoteNumber":66,"Velocity":69,"Duration":399999,"SoundDuration":399999,"Delta":25029860},{"NoteNumber":54,"Velocity":72,"Duration":399999,"SoundDuration":399999,"Delta":25029860},{"NoteNumber":25,"Velocity":31,"Duration":377358,"SoundDuration":377358,"Delta":26629860},{"NoteNumber":25,"Velocity":30,"Duration":377358,"SoundDuration":377358,"Delta":29648728},{"NoteNumber":54,"Velocity":44,"Duration":392157,"SoundDuration":392157,"Delta":31158162},{"NoteNumber":57,"Velocity":44,"Duration":392157,"SoundDuration":392157,"Delta":31158162},{"NoteNumber":63,"Velocity":49,"Duration":392157,"SoundDuration":392157,"Delta":31158162},{"NoteNumber":48,"Velocity":56,"Duration":392157,"SoundDuration":392157,"Delta":31158162},{"NoteNumber":25,"Velocity":31,"Duration":382165,"SoundDuration":382165,"Delta":32726790},{"NoteNumber":25,"Velocity":30,"Duration":379747,"SoundDuration":379747,"Delta":35774439},{"NoteNumber":56,"Velocity":44,"Duration":357143,"SoundDuration":357143,"Delta":37293428},{"NoteNumber":61,"Velocity":49,"Duration":357143,"SoundDuration":357143,"Delta":37293428},{"NoteNumber":52,"Velocity":56,"Duration":357143,"SoundDuration":357143,"Delta":37293428},{"NoteNumber":25,"Velocity":29,"Duration":389610,"SoundDuration":389610,"Delta":38722000},{"NoteNumber":54,"Velocity":59,"Duration":389610,"SoundDuration":389610,"Delta":40280442},{"NoteNumber":59,"Velocity":67,"Duration":389610,"SoundDuration":389610,"Delta":40280442},{"NoteNumber":51,"Velocity":72,"Duration":389610,"SoundDuration":389610,"Delta":40280442},{"NoteNumber":25,"Velocity":28,"Duration":382165,"SoundDuration":382165,"Delta":41838884},{"NoteNumber":56,"Velocity":44,"Duration":394736,"SoundDuration":394736,"Delta":43367545},{"NoteNumber":61,"Velocity":49,"Duration":394736,"SoundDuration":394736,"Delta":43367545},{"NoteNumber":52,"Velocity":52,"Duration":394736,"SoundDuration":394736,"Delta":43367545},{"NoteNumber":25,"Velocity":28,"Duration":377358,"SoundDuration":377358,"Delta":44946493},{"NoteNumber":54,"Velocity":60,"Duration":389610,"SoundDuration":389610,"Delta":46455927},{"NoteNumber":59,"Velocity":68,"Duration":389610,"SoundDuration":389610,"Delta":46455927},{"NoteNumber":51,"Velocity":72,"Duration":389610,"SoundDuration":389610,"Delta":46455927},{"NoteNumber":25,"Velocity":29,"Duration":382165,"SoundDuration":382165,"Delta":48014369},{"NoteNumber":56,"Velocity":44,"Duration":394736,"SoundDuration":394736,"Delta":49543031},{"NoteNumber":61,"Velocity":49,"Duration":394736,"SoundDuration":394736,"Delta":49543031},{"NoteNumber":52,"Velocity":56,"Duration":394736,"SoundDuration":394736,"Delta":49543031},{"NoteNumber":25,"Velocity":28,"Duration":375000,"SoundDuration":375000,"Delta":51121979},{"NoteNumber":25,"Velocity":19,"Duration":375000,"SoundDuration":375000,"Delta":54121979},{"NoteNumber":68,"Velocity":51,"Duration":757491,"SoundDuration":757491,"Delta":57871979},{"NoteNumber":73,"Velocity":55,"Duration":749402,"SoundDuration":749402,"Delta":58599516},{"NoteNumber":75,"Velocity":53,"Duration":762381,"SoundDuration":762381,"Delta":59318423},{"NoteNumber":76,"Velocity":56,"Duration":731885,"SoundDuration":731885,"Delta":60050309},{"NoteNumber":75,"Velocity":58,"Duration":387850,"SoundDuration":387850,"Delta":60782195},{"NoteNumber":73,"Velocity":52,"Duration":395722,"SoundDuration":395722,"Delta":61139551},{"NoteNumber":71,"Velocity":56,"Duration":714711,"SoundDuration":714711,"Delta":61505494},{"NoteNumber":68,"Velocity":50,"Duration":752932,"SoundDuration":752932,"Delta":62220205},{"NoteNumber":69,"Velocity":50,"Duration":745025,"SoundDuration":745025,"Delta":62943358},{"NoteNumber":71,"Velocity":47,"Duration":757491,"SoundDuration":757491,"Delta":63658069},{"NoteNumber":73,"Velocity":55,"Duration":2883805,"SoundDuration":2883805,"Delta":64385606},{"NoteNumber":66,"Velocity":51,"Duration":749221,"SoundDuration":749221,"Delta":64385606},{"NoteNumber":68,"Velocity":49,"Duration":757477,"SoundDuration":757477,"Delta":65104513},{"NoteNumber":69,"Velocity":52,"Duration":748148,"SoundDuration":748148,"Delta":65832050},{"NoteNumber":68,"Velocity":50,"Duration":385343,"SoundDuration":385343,"Delta":66550613},{"NoteNumber":66,"Velocity":50,"Duration":394082,"SoundDuration":394082,"Delta":66905642},{"NoteNumber":80,"Velocity":55,"Duration":2896780,"SoundDuration":2896780,"Delta":67269411},{"NoteNumber":64,"Velocity":53,"Duration":727536,"SoundDuration":727536,"Delta":67269411},{"NoteNumber":61,"Velocity":47,"Duration":757491,"SoundDuration":757491,"Delta":67996948},{"NoteNumber":63,"Velocity":49,"Duration":748861,"SoundDuration":748861,"Delta":68724485},{"NoteNumber":64,"Velocity":47,"Duration":722799,"SoundDuration":722799,"Delta":69443392},{"NoteNumber":69,"Velocity":44,"Duration":2888347,"SoundDuration":2888347,"Delta":70166191},{"NoteNumber":78,"Velocity":56,"Duration":748342,"SoundDuration":748342,"Delta":70166191},{"NoteNumber":63,"Velocity":50,"Duration":748342,"SoundDuration":748342,"Delta":70166191},{"NoteNumber":61,"Velocity":38,"Duration":2160810,"SoundDuration":2160810,"Delta":70166191},{"NoteNumber":80,"Velocity":57,"Duration":745025,"SoundDuration":745025,"Delta":70884754},{"NoteNumber":64,"Velocity":51,"Duration":745025,"SoundDuration":745025,"Delta":70884754},{"NoteNumber":81,"Velocity":59,"Duration":1455073,"SoundDuration":1455073,"Delta":71599465},{"NoteNumber":66,"Velocity":52,"Duration":1455073,"SoundDuration":1455073,"Delta":71599465},{"NoteNumber":60,"Velocity":36,"Duration":727536,"SoundDuration":727536,"Delta":72327002},{"NoteNumber":80,"Velocity":56,"Duration":739644,"SoundDuration":739644,"Delta":73054539},{"NoteNumber":71,"Velocity":44,"Duration":2857296,"SoundDuration":2857296,"Delta":73054539},{"NoteNumber":59,"Velocity":38,"Duration":2857296,"SoundDuration":2857296,"Delta":73054539},{"NoteNumber":64,"Velocity":50,"Duration":739644,"SoundDuration":739644,"Delta":73054539},{"NoteNumber":78,"Velocity":48,"Duration":739820,"SoundDuration":739820,"Delta":73764598},{"NoteNumber":63,"Velocity":41,"Duration":739820,"SoundDuration":739820,"Delta":73764598},{"NoteNumber":76,"Velocity":51,"Duration":714286,"SoundDuration":714286,"Delta":74474657},{"NoteNumber":61,"Velocity":41,"Duration":714286,"SoundDuration":714286,"Delta":74474657},{"NoteNumber":80,"Velocity":42,"Duration":722892,"SoundDuration":722892,"Delta":75188943},{"NoteNumber":64,"Velocity":36,"Duration":722892,"SoundDuration":722892,"Delta":75188943},{"NoteNumber":72,"Velocity":46,"Duration":3561163,"SoundDuration":3561163,"Delta":75911835},{"NoteNumber":78,"Velocity":55,"Duration":733277,"SoundDuration":733277,"Delta":75911835},{"NoteNumber":63,"Velocity":50,"Duration":733277,"SoundDuration":733277,"Delta":75911835},{"NoteNumber":57,"Velocity":39,"Duration":4284055,"SoundDuration":4284055,"Delta":75911835},{"NoteNumber":80,"Velocity":47,"Duration":744047,"SoundDuration":744047,"Delta":76615351},{"NoteNumber":64,"Velocity":41,"Duration":744047,"SoundDuration":744047,"Delta":76615351},{"NoteNumber":78,"Velocity":49,"Duration":740531,"SoundDuration":740531,"Delta":77329637},{"NoteNumber":63,"Velocity":46,"Duration":740531,"SoundDuration":740531,"Delta":77329637},{"NoteNumber":76,"Velocity":44,"Duration":752477,"SoundDuration":752477,"Delta":78040048},{"NoteNumber":64,"Velocity":38,"Duration":752477,"SoundDuration":752477,"Delta":78040048},{"NoteNumber":75,"Velocity":52,"Duration":710059,"SoundDuration":710059,"Delta":78762940},{"NoteNumber":66,"Velocity":42,"Duration":2866971,"SoundDuration":2866971,"Delta":78762940},{"NoteNumber":73,"Velocity":52,"Duration":753012,"SoundDuration":753012,"Delta":79472999},{"NoteNumber":72,"Velocity":46,"Duration":1434020,"SoundDuration":1434020,"Delta":80195891},{"NoteNumber":75,"Velocity":56,"Duration":741248,"SoundDuration":741248,"Delta":80195891},{"NoteNumber":56,"Velocity":42,"Duration":1434020,"SoundDuration":1434020,"Delta":80195891},{"NoteNumber":76,"Velocity":50,"Duration":722892,"SoundDuration":722892,"Delta":80907019},{"NoteNumber":73,"Velocity":57,"Duration":3483730,"SoundDuration":3483730,"Delta":81629911},{"NoteNumber":57,"Velocity":39,"Duration":4181404,"SoundDuration":4181404,"Delta":81629911},{"NoteNumber":64,"Velocity":47,"Duration":697674,"SoundDuration":697674,"Delta":81629911},{"NoteNumber":63,"Velocity":44,"Duration":737598,"SoundDuration":737598,"Delta":82327585},{"NoteNumber":64,"Velocity":47,"Duration":714783,"SoundDuration":714783,"Delta":83036612},{"NoteNumber":65,"Velocity":41,"Duration":726575,"SoundDuration":726575,"Delta":83722326},{"NoteNumber":66,"Velocity":52,"Duration":2807553,"SoundDuration":2807553,"Delta":84420000},{"NoteNumber":73,"Velocity":52,"Duration":726743,"SoundDuration":726743,"Delta":85113642},{"NoteNumber":72,"Velocity":46,"Duration":1416237,"SoundDuration":1416237,"Delta":85811316},{"NoteNumber":75,"Velocity":56,"Duration":727614,"SoundDuration":727614,"Delta":85811316},{"NoteNumber":56,"Velocity":47,"Duration":1416237,"SoundDuration":1416237,"Delta":85811316},{"NoteNumber":76,"Velocity":51,"Duration":718563,"SoundDuration":718563,"Delta":86508990},{"NoteNumber":73,"Velocity":56,"Duration":4222874,"SoundDuration":4222874,"Delta":87227553},{"NoteNumber":64,"Velocity":50,"Duration":693641,"SoundDuration":693641,"Delta":87227553},{"NoteNumber":57,"Velocity":38,"Duration":6357378,"SoundDuration":6357378,"Delta":87227553},{"NoteNumber":63,"Velocity":46,"Duration":730833,"SoundDuration":730833,"Delta":87921195},{"NoteNumber":64,"Velocity":48,"Duration":718894,"SoundDuration":718894,"Delta":88623293},{"NoteNumber":65,"Velocity":44,"Duration":730993,"SoundDuration":730993,"Delta":89312948},{"NoteNumber":66,"Velocity":53,"Duration":2141607,"SoundDuration":2141607,"Delta":90014702},{"NoteNumber":72,"Velocity":49,"Duration":1424445,"SoundDuration":1424445,"Delta":91450428},{"NoteNumber":64,"Velocity":37,"Duration":718563,"SoundDuration":718563,"Delta":92156310},{"NoteNumber":71,"Velocity":50,"Duration":1428622,"SoundDuration":1428622,"Delta":92874873},{"NoteNumber":63,"Velocity":41,"Duration":2147185,"SoundDuration":2147185,"Delta":92874873},{"NoteNumber":56,"Velocity":38,"Duration":718563,"SoundDuration":718563,"Delta":93584932},{"NoteNumber":69,"Velocity":47,"Duration":1454759,"SoundDuration":1454759,"Delta":94303495},{"NoteNumber":54,"Velocity":33,"Duration":1454759,"SoundDuration":1454759,"Delta":94303495},{"NoteNumber":61,"Velocity":30,"Duration":736196,"SoundDuration":736196,"Delta":95022058},{"NoteNumber":63,"Velocity":40,"Duration":3076924,"SoundDuration":3076924,"Delta":95758254},{"NoteNumber":68,"Velocity":40,"Duration":3076924,"SoundDuration":3076924,"Delta":95758254},{"NoteNumber":56,"Velocity":27,"Duration":3076924,"SoundDuration":3076924,"Delta":95758254},{"NoteNumber":61,"Velocity":35,"Duration":1538461,"SoundDuration":1538461,"Delta":95758254},{"NoteNumber":60,"Velocity":27,"Duration":1538462,"SoundDuration":1538462,"Delta":97296716},{"NoteNumber":49,"Velocity":49,"Duration":714286,"SoundDuration":714286,"Delta":98835178},{"NoteNumber":61,"Velocity":57,"Duration":2865903,"SoundDuration":2865903,"Delta":98835178},{"NoteNumber":37,"Velocity":48,"Duration":714286,"SoundDuration":714286,"Delta":98835178},{"NoteNumber":49,"Velocity":52,"Duration":2865903,"SoundDuration":2865903,"Delta":98835178},{"NoteNumber":39,"Velocity":44,"Duration":722892,"SoundDuration":722892,"Delta":99549464},{"NoteNumber":51,"Velocity":49,"Duration":722892,"SoundDuration":722892,"Delta":99549464},{"NoteNumber":52,"Velocity":52,"Duration":710059,"SoundDuration":710059,"Delta":100272356},{"NoteNumber":40,"Velocity":48,"Duration":710059,"SoundDuration":710059,"Delta":100272356},{"NoteNumber":51,"Velocity":49,"Duration":355029,"SoundDuration":355029,"Delta":100982415},{"NoteNumber":39,"Velocity":44,"Duration":355029,"SoundDuration":355029,"Delta":100982415},{"NoteNumber":49,"Velocity":49,"Duration":363636,"SoundDuration":363636,"Delta":101337444},{"NoteNumber":37,"Velocity":44,"Duration":363636,"SoundDuration":363636,"Delta":101337444},{"NoteNumber":68,"Velocity":63,"Duration":2841678,"SoundDuration":2841678,"Delta":101701081},{"NoteNumber":56,"Velocity":57,"Duration":2841678,"SoundDuration":2841678,"Delta":101701081},{"NoteNumber":35,"Velocity":50,"Duration":702798,"SoundDuration":702798,"Delta":101701081},{"NoteNumber":47,"Velocity":55,"Duration":702798,"SoundDuration":702798,"Delta":101701081},{"NoteNumber":32,"Velocity":45,"Duration":701753,"SoundDuration":701753,"Delta":102403879},{"NoteNumber":44,"Velocity":49,"Duration":701753,"SoundDuration":701753,"Delta":102403879},{"NoteNumber":45,"Velocity":49,"Duration":718563,"SoundDuration":718563,"Delta":103105633},{"NoteNumber":33,"Velocity":42,"Duration":718563,"SoundDuration":718563,"Delta":103105633},{"NoteNumber":47,"Velocity":42,"Duration":718563,"SoundDuration":718563,"Delta":103824196},{"NoteNumber":35,"Velocity":39,"Duration":718563,"SoundDuration":718563,"Delta":103824196},{"NoteNumber":57,"Velocity":58,"Duration":2851306,"SoundDuration":2851306,"Delta":104542759},{"NoteNumber":69,"Velocity":66,"Duration":2851306,"SoundDuration":2851306,"Delta":104542759},{"NoteNumber":37,"Velocity":51,"Duration":705882,"SoundDuration":705882,"Delta":104542759},{"NoteNumber":49,"Velocity":56,"Duration":705882,"SoundDuration":705882,"Delta":104542759},{"NoteNumber":51,"Velocity":53,"Duration":722892,"SoundDuration":722892,"Delta":105248641},{"NoteNumber":39,"Velocity":48,"Duration":722892,"SoundDuration":722892,"Delta":105248641},{"NoteNumber":52,"Velocity":56,"Duration":710059,"SoundDuration":710059,"Delta":105971533},{"NoteNumber":40,"Velocity":52,"Duration":710059,"SoundDuration":710059,"Delta":105971533},{"NoteNumber":51,"Velocity":56,"Duration":348837,"SoundDuration":348837,"Delta":106681592},{"NoteNumber":39,"Velocity":52,"Duration":348837,"SoundDuration":348837,"Delta":106681592},{"NoteNumber":49,"Velocity":56,"Duration":363636,"SoundDuration":363636,"Delta":107030429},{"NoteNumber":37,"Velocity":52,"Duration":363636,"SoundDuration":363636,"Delta":107030429},{"NoteNumber":68,"Velocity":62,"Duration":2861820,"SoundDuration":2861820,"Delta":107394065},{"NoteNumber":76,"Velocity":72,"Duration":2861820,"SoundDuration":2861820,"Delta":107394065},{"NoteNumber":64,"Velocity":62,"Duration":2861820,"SoundDuration":2861820,"Delta":107394065},{"NoteNumber":35,"Velocity":56,"Duration":701753,"SoundDuration":701753,"Delta":107394065},{"NoteNumber":47,"Velocity":59,"Duration":701753,"SoundDuration":701753,"Delta":107394065},{"NoteNumber":32,"Velocity":52,"Duration":701754,"SoundDuration":701754,"Delta":108095819},{"NoteNumber":44,"Velocity":56,"Duration":701754,"SoundDuration":701754,"Delta":108095819},{"NoteNumber":45,"Velocity":56,"Duration":718563,"SoundDuration":718563,"Delta":108797573},{"NoteNumber":33,"Velocity":50,"Duration":718563,"SoundDuration":718563,"Delta":108797573},{"NoteNumber":47,"Velocity":56,"Duration":543539,"SoundDuration":543539,"Delta":109516136},{"NoteNumber":35,"Velocity":50,"Duration":543539,"SoundDuration":543539,"Delta":109516136},{"NoteNumber":37,"Velocity":55,"Duration":3006210,"SoundDuration":3006210,"Delta":110059676},{"NoteNumber":42,"Velocity":62,"Duration":797654,"SoundDuration":797654,"Delta":110143945},{"NoteNumber":73,"Velocity":75,"Duration":2810000,"SoundDuration":2810000,"Delta":110255885},{"NoteNumber":66,"Velocity":66,"Duration":2810000,"SoundDuration":2810000,"Delta":110255885},{"NoteNumber":63,"Velocity":66,"Duration":2810000,"SoundDuration":2810000,"Delta":110255885},{"NoteNumber":75,"Velocity":75,"Duration":2810000,"SoundDuration":2810000,"Delta":110255885},{"NoteNumber":54,"Velocity":69,"Duration":685714,"SoundDuration":685714,"Delta":110255885},{"NoteNumber":44,"Velocity":60,"Duration":701753,"SoundDuration":701753,"Delta":110941599},{"NoteNumber":56,"Velocity":63,"Duration":701753,"SoundDuration":701753,"Delta":110941599},{"NoteNumber":45,"Velocity":62,"Duration":710059,"SoundDuration":710059,"Delta":111643353},{"NoteNumber":57,"Velocity":70,"Duration":710059,"SoundDuration":710059,"Delta":111643353},{"NoteNumber":44,"Velocity":62,"Duration":348837,"SoundDuration":348837,"Delta":112353412},{"NoteNumber":56,"Velocity":70,"Duration":348837,"SoundDuration":348837,"Delta":112353412},{"NoteNumber":42,"Velocity":62,"Duration":363636,"SoundDuration":363636,"Delta":112702249},{"NoteNumber":54,"Velocity":70,"Duration":363636,"SoundDuration":363636,"Delta":112702249},{"NoteNumber":73,"Velocity":69,"Duration":2847991,"SoundDuration":2847991,"Delta":113065886},{"NoteNumber":80,"Velocity":80,"Duration":2847991,"SoundDuration":2847991,"Delta":113065886},{"NoteNumber":68,"Velocity":69,"Duration":2847991,"SoundDuration":2847991,"Delta":113065886},{"NoteNumber":52,"Velocity":72,"Duration":689655,"SoundDuration":689655,"Delta":113065886},{"NoteNumber":40,"Velocity":66,"Duration":689655,"SoundDuration":689655,"Delta":113065886},{"NoteNumber":49,"Velocity":72,"Duration":689655,"SoundDuration":689655,"Delta":113755541},{"NoteNumber":37,"Velocity":66,"Duration":689655,"SoundDuration":689655,"Delta":113755541},{"NoteNumber":39,"Velocity":62,"Duration":718563,"SoundDuration":718563,"Delta":114445196},{"NoteNumber":51,"Velocity":69,"Duration":718563,"SoundDuration":718563,"Delta":114445196},{"NoteNumber":40,"Velocity":62,"Duration":540268,"SoundDuration":540268,"Delta":115163759},{"NoteNumber":52,"Velocity":69,"Duration":540268,"SoundDuration":540268,"Delta":115163759},{"NoteNumber":37,"Velocity":62,"Duration":3008292,"SoundDuration":3008292,"Delta":115704028},{"NoteNumber":42,"Velocity":67,"Duration":800207,"SoundDuration":800207,"Delta":115787827},{"NoteNumber":78,"Velocity":81,"Duration":1375910,"SoundDuration":1375910,"Delta":115913877},{"NoteNumber":73,"Velocity":73,"Duration":1375910,"SoundDuration":1375910,"Delta":115913877},{"NoteNumber":69,"Velocity":73,"Duration":1375910,"SoundDuration":1375910,"Delta":115913877},{"NoteNumber":81,"Velocity":81,"Duration":1375910,"SoundDuration":1375910,"Delta":115913877},{"NoteNumber":54,"Velocity":73,"Duration":674156,"SoundDuration":674156,"Delta":115913877},{"NoteNumber":56,"Velocity":68,"Duration":701753,"SoundDuration":701753,"Delta":116588034},{"NoteNumber":44,"Velocity":63,"Duration":701753,"SoundDuration":701753,"Delta":116588034},{"NoteNumber":73,"Velocity":79,"Duration":710059,"SoundDuration":710059,"Delta":117289788},{"NoteNumber":78,"Velocity":79,"Duration":710059,"SoundDuration":710059,"Delta":117289788},{"NoteNumber":81,"Velocity":88,"Duration":710059,"SoundDuration":710059,"Delta":117289788},{"NoteNumber":85,"Velocity":88,"Duration":710059,"SoundDuration":710059,"Delta":117289788},{"NoteNumber":57,"Velocity":70,"Duration":710059,"SoundDuration":710059,"Delta":117289788},{"NoteNumber":45,"Velocity":62,"Duration":710059,"SoundDuration":710059,"Delta":117289788},{"NoteNumber":87,"Velocity":88,"Duration":712473,"SoundDuration":712473,"Delta":117999847},{"NoteNumber":85,"Velocity":88,"Duration":712473,"SoundDuration":712473,"Delta":117999847},{"NoteNumber":78,"Velocity":78,"Duration":712473,"SoundDuration":712473,"Delta":117999847},{"NoteNumber":75,"Velocity":78,"Duration":712473,"SoundDuration":712473,"Delta":117999847},{"NoteNumber":56,"Velocity":74,"Duration":348837,"SoundDuration":348837,"Delta":117999847},{"NoteNumber":44,"Velocity":67,"Duration":348837,"SoundDuration":348837,"Delta":117999847},{"NoteNumber":54,"Velocity":74,"Duration":363636,"SoundDuration":363636,"Delta":118348684},{"NoteNumber":42,"Velocity":67,"Duration":363636,"SoundDuration":363636,"Delta":118348684},{"NoteNumber":76,"Velocity":80,"Duration":1379310,"SoundDuration":1379310,"Delta":118712320},{"NoteNumber":80,"Velocity":80,"Duration":1379310,"SoundDuration":1379310,"Delta":118712320},{"NoteNumber":85,"Velocity":91,"Duration":1379310,"SoundDuration":1379310,"Delta":118712320},{"NoteNumber":88,"Velocity":91,"Duration":1379310,"SoundDuration":1379310,"Delta":118712320},{"NoteNumber":40,"Velocity":70,"Duration":689655,"SoundDuration":689655,"Delta":118712320},{"NoteNumber":52,"Velocity":77,"Duration":689655,"SoundDuration":689655,"Delta":118712320},{"NoteNumber":37,"Velocity":66,"Duration":689655,"SoundDuration":689655,"Delta":119401975},{"NoteNumber":49,"Velocity":72,"Duration":689655,"SoundDuration":689655,"Delta":119401975},{"NoteNumber":92,"Velocity":92,"Duration":1500366,"SoundDuration":1500366,"Delta":120091630},{"NoteNumber":85,"Velocity":92,"Duration":1500366,"SoundDuration":1500366,"Delta":120091630},{"NoteNumber":80,"Velocity":82,"Duration":1500366,"SoundDuration":1500366,"Delta":120091630},{"NoteNumber":51,"Velocity":73,"Duration":718563,"SoundDuration":718563,"Delta":120091630},{"NoteNumber":39,"Velocity":67,"Duration":718563,"SoundDuration":718563,"Delta":120091630},{"NoteNumber":52,"Velocity":73,"Duration":628742,"SoundDuration":628742,"Delta":120810193},{"NoteNumber":40,"Velocity":67,"Duration":628742,"SoundDuration":628742,"Delta":120810193},{"NoteNumber":48,"Velocity":75,"Duration":2986564,"SoundDuration":2986564,"Delta":121438936},{"NoteNumber":36,"Velocity":68,"Duration":2986564,"SoundDuration":2986564,"Delta":121438936},{"NoteNumber":93,"Velocity":92,"Duration":677965,"SoundDuration":677965,"Delta":121591997},{"NoteNumber":88,"Velocity":82,"Duration":677965,"SoundDuration":677965,"Delta":121591997},{"NoteNumber":81,"Velocity":82,"Duration":677965,"SoundDuration":677965,"Delta":121591997},{"NoteNumber":66,"Velocity":85,"Duration":677965,"SoundDuration":677965,"Delta":121591997},{"NoteNumber":54,"Velocity":78,"Duration":677965,"SoundDuration":677965,"Delta":121591997},{"NoteNumber":88,"Velocity":75,"Duration":689655,"SoundDuration":689655,"Delta":122269963},{"NoteNumber":92,"Velocity":84,"Duration":689655,"SoundDuration":689655,"Delta":122269963},{"NoteNumber":80,"Velocity":75,"Duration":689655,"SoundDuration":689655,"Delta":122269963},{"NoteNumber":68,"Velocity":82,"Duration":689655,"SoundDuration":689655,"Delta":122269963},{"NoteNumber":56,"Velocity":72,"Duration":689655,"SoundDuration":689655,"Delta":122269963},{"NoteNumber":90,"Velocity":84,"Duration":694317,"SoundDuration":694317,"Delta":122959618},{"NoteNumber":88,"Velocity":75,"Duration":694317,"SoundDuration":694317,"Delta":122959618},{"NoteNumber":78,"Velocity":75,"Duration":694317,"SoundDuration":694317,"Delta":122959618},{"NoteNumber":69,"Velocity":88,"Duration":694317,"SoundDuration":694317,"Delta":122959618},{"NoteNumber":57,"Velocity":78,"Duration":694317,"SoundDuration":694317,"Delta":122959618},{"NoteNumber":88,"Velocity":84,"Duration":348837,"SoundDuration":348837,"Delta":123653936},{"NoteNumber":76,"Velocity":75,"Duration":348837,"SoundDuration":348837,"Delta":123653936},{"NoteNumber":68,"Velocity":88,"Duration":348837,"SoundDuration":348837,"Delta":123653936},{"NoteNumber":56,"Velocity":78,"Duration":348837,"SoundDuration":348837,"Delta":123653936},{"NoteNumber":90,"Velocity":84,"Duration":272727,"SoundDuration":272727,"Delta":124002773},{"NoteNumber":78,"Velocity":75,"Duration":272727,"SoundDuration":272727,"Delta":124002773},{"NoteNumber":66,"Velocity":80,"Duration":272727,"SoundDuration":272727,"Delta":124002773},{"NoteNumber":54,"Velocity":71,"Duration":272727,"SoundDuration":272727,"Delta":124002773},{"NoteNumber":35,"Velocity":70,"Duration":2971703,"SoundDuration":2971703,"Delta":124275501},{"NoteNumber":47,"Velocity":78,"Duration":2971703,"SoundDuration":2971703,"Delta":124275501},{"NoteNumber":92,"Velocity":92,"Duration":1359870,"SoundDuration":1359870,"Delta":124425501},{"NoteNumber":88,"Velocity":82,"Duration":1359870,"SoundDuration":1359870,"Delta":124425501},{"NoteNumber":80,"Velocity":82,"Duration":1359870,"SoundDuration":1359870,"Delta":124425501},{"NoteNumber":64,"Velocity":90,"Duration":674156,"SoundDuration":674156,"Delta":124425501},{"NoteNumber":52,"Velocity":80,"Duration":674156,"SoundDuration":674156,"Delta":124425501},{"NoteNumber":61,"Velocity":84,"Duration":685714,"SoundDuration":685714,"Delta":125099658},{"NoteNumber":49,"Velocity":75,"Duration":685714,"SoundDuration":685714,"Delta":125099658},{"NoteNumber":85,"Velocity":91,"Duration":1461832,"SoundDuration":1461832,"Delta":125785372},{"NoteNumber":80,"Velocity":81,"Duration":1461832,"SoundDuration":1461832,"Delta":125785372},{"NoteNumber":73,"Velocity":81,"Duration":1461832,"SoundDuration":1461832,"Delta":125785372},{"NoteNumber":63,"Velocity":82,"Duration":697674,"SoundDuration":697674,"Delta":125785372},{"NoteNumber":51,"Velocity":72,"Duration":697674,"SoundDuration":697674,"Delta":125785372},{"NoteNumber":64,"Velocity":78,"Duration":532544,"SoundDuration":532544,"Delta":126483046},{"NoteNumber":52,"Velocity":70,"Duration":532544,"SoundDuration":532544,"Delta":126483046},{"NoteNumber":45,"Velocity":78,"Duration":698413,"SoundDuration":698413,"Delta":127104347},{"NoteNumber":33,"Velocity":69,"Duration":698413,"SoundDuration":698413,"Delta":127104347},{"NoteNumber":90,"Velocity":92,"Duration":702614,"SoundDuration":702614,"Delta":127247204},{"NoteNumber":85,"Velocity":82,"Duration":702614,"SoundDuration":702614,"Delta":127247204},{"NoteNumber":78,"Velocity":82,"Duration":702614,"SoundDuration":702614,"Delta":127247204},{"NoteNumber":66,"Velocity":85,"Duration":702614,"SoundDuration":702614,"Delta":127247204},{"NoteNumber":54,"Velocity":78,"Duration":702614,"SoundDuration":702614,"Delta":127247204},{"NoteNumber":44,"Velocity":72,"Duration":708555,"SoundDuration":708555,"Delta":127802760},{"NoteNumber":32,"Velocity":63,"Duration":708555,"SoundDuration":708555,"Delta":127802760},{"NoteNumber":85,"Velocity":80,"Duration":711497,"SoundDuration":711497,"Delta":127949819},{"NoteNumber":88,"Velocity":89,"Duration":711497,"SoundDuration":711497,"Delta":127949819},{"NoteNumber":76,"Velocity":80,"Duration":711497,"SoundDuration":711497,"Delta":127949819},{"NoteNumber":56,"Velocity":72,"Duration":711497,"SoundDuration":711497,"Delta":127949819},{"NoteNumber":68,"Velocity":82,"Duration":711497,"SoundDuration":711497,"Delta":127949819},{"NoteNumber":42,"Velocity":78,"Duration":720652,"SoundDuration":720652,"Delta":128511316},{"NoteNumber":30,"Velocity":69,"Duration":720652,"SoundDuration":720652,"Delta":128511316},{"NoteNumber":87,"Velocity":92,"Duration":683851,"SoundDuration":683851,"Delta":128661316},{"NoteNumber":85,"Velocity":82,"Duration":683851,"SoundDuration":683851,"Delta":128661316},{"NoteNumber":75,"Velocity":82,"Duration":683851,"SoundDuration":683851,"Delta":128661316},{"NoteNumber":57,"Velocity":78,"Duration":683851,"SoundDuration":683851,"Delta":128661316},{"NoteNumber":69,"Velocity":88,"Duration":683851,"SoundDuration":683851,"Delta":128661316},{"NoteNumber":32,"Velocity":69,"Duration":730754,"SoundDuration":730754,"Delta":129231969},{"NoteNumber":44,"Velocity":78,"Duration":730754,"SoundDuration":730754,"Delta":129231969},{"NoteNumber":88,"Velocity":84,"Duration":748065,"SoundDuration":748065,"Delta":129345168},{"NoteNumber":84,"Velocity":75,"Duration":748065,"SoundDuration":748065,"Delta":129345168},{"NoteNumber":76,"Velocity":75,"Duration":748065,"SoundDuration":748065,"Delta":129345168},{"NoteNumber":56,"Velocity":73,"Duration":344827,"SoundDuration":344827,"Delta":129345168},{"NoteNumber":68,"Velocity":83,"Duration":344827,"SoundDuration":344827,"Delta":129345168},{"NoteNumber":54,"Velocity":73,"Duration":272727,"SoundDuration":272727,"Delta":129689995},{"NoteNumber":66,"Velocity":83,"Duration":272727,"SoundDuration":272727,"Delta":129689995},{"NoteNumber":45,"Velocity":80,"Duration":2840775,"SoundDuration":2840775,"Delta":129962723},{"NoteNumber":33,"Velocity":71,"Duration":2840775,"SoundDuration":2840775,"Delta":129962723},{"NoteNumber":85,"Velocity":92,"Duration":2861779,"SoundDuration":2861779,"Delta":130093234},{"NoteNumber":81,"Velocity":82,"Duration":2861779,"SoundDuration":2861779,"Delta":130093234},{"NoteNumber":73,"Velocity":82,"Duration":2861779,"SoundDuration":2861779,"Delta":130093234},{"NoteNumber":52,"Velocity":80,"Duration":677965,"SoundDuration":677965,"Delta":130093234},{"NoteNumber":64,"Velocity":90,"Duration":677965,"SoundDuration":677965,"Delta":130093234},{"NoteNumber":49,"Velocity":69,"Duration":697674,"SoundDuration":697674,"Delta":130771200},{"NoteNumber":61,"Velocity":78,"Duration":697674,"SoundDuration":697674,"Delta":130771200},{"NoteNumber":51,"Velocity":67,"Duration":705882,"SoundDuration":705882,"Delta":131468874},{"NoteNumber":63,"Velocity":75,"Duration":705882,"SoundDuration":705882,"Delta":131468874},{"NoteNumber":52,"Velocity":66,"Duration":538922,"SoundDuration":538922,"Delta":132174756},{"NoteNumber":64,"Velocity":74,"Duration":538922,"SoundDuration":538922,"Delta":132174756},{"NoteNumber":44,"Velocity":62,"Duration":1450782,"SoundDuration":1450782,"Delta":132803498},{"NoteNumber":32,"Velocity":62,"Duration":1450782,"SoundDuration":1450782,"Delta":132803498},{"NoteNumber":77,"Velocity":77,"Duration":1426386,"SoundDuration":1426386,"Delta":132955013},{"NoteNumber":83,"Velocity":94,"Duration":677965,"SoundDuration":677965,"Delta":132955013},{"NoteNumber":71,"Velocity":88,"Duration":677965,"SoundDuration":677965,"Delta":132955013},{"NoteNumber":65,"Velocity":62,"Duration":1426386,"SoundDuration":1426386,"Delta":132955013},{"NoteNumber":59,"Velocity":71,"Duration":677965,"SoundDuration":677965,"Delta":132955013},{"NoteNumber":53,"Velocity":62,"Duration":1426386,"SoundDuration":1426386,"Delta":132955013},{"NoteNumber":85,"Velocity":89,"Duration":748420,"SoundDuration":748420,"Delta":133632979},{"NoteNumber":73,"Velocity":80,"Duration":748420,"SoundDuration":748420,"Delta":133632979},{"NoteNumber":61,"Velocity":66,"Duration":748420,"SoundDuration":748420,"Delta":133632979},{"NoteNumber":37,"Velocity":62,"Duration":1447375,"SoundDuration":1447375,"Delta":134254281},{"NoteNumber":25,"Velocity":62,"Duration":1447375,"SoundDuration":1447375,"Delta":134254281},{"NoteNumber":80,"Velocity":77,"Duration":1468771,"SoundDuration":1468771,"Delta":134381400},{"NoteNumber":77,"Velocity":77,"Duration":1468771,"SoundDuration":1468771,"Delta":134381400},{"NoteNumber":86,"Velocity":96,"Duration":693642,"SoundDuration":693642,"Delta":134381400},{"NoteNumber":74,"Velocity":90,"Duration":693642,"SoundDuration":693642,"Delta":134381400},{"NoteNumber":53,"Velocity":62,"Duration":1468771,"SoundDuration":1468771,"Delta":134381400},{"NoteNumber":62,"Velocity":71,"Duration":693642,"SoundDuration":693642,"Delta":134381400},{"NoteNumber":56,"Velocity":62,"Duration":1468771,"SoundDuration":1468771,"Delta":134381400},{"NoteNumber":85,"Velocity":91,"Duration":348837,"SoundDuration":348837,"Delta":135075042},{"NoteNumber":73,"Velocity":82,"Duration":348837,"SoundDuration":348837,"Delta":135075042},{"NoteNumber":61,"Velocity":67,"Duration":348837,"SoundDuration":348837,"Delta":135075042},{"NoteNumber":83,"Velocity":85,"Duration":277777,"SoundDuration":277777,"Delta":135423879},{"NoteNumber":71,"Velocity":79,"Duration":277777,"SoundDuration":277777,"Delta":135423879},{"NoteNumber":59,"Velocity":64,"Duration":277777,"SoundDuration":277777,"Delta":135423879},{"NoteNumber":30,"Velocity":64,"Duration":2834272,"SoundDuration":2834272,"Delta":135701657},{"NoteNumber":42,"Velocity":64,"Duration":2834272,"SoundDuration":2834272,"Delta":135701657},{"NoteNumber":73,"Velocity":77,"Duration":2837272,"SoundDuration":2837272,"Delta":135850171},{"NoteNumber":78,"Velocity":77,"Duration":1363679,"SoundDuration":1363679,"Delta":135850171},{"NoteNumber":81,"Velocity":94,"Duration":685713,"SoundDuration":685713,"Delta":135850171},{"NoteNumber":69,"Velocity":86,"Duration":685713,"SoundDuration":685713,"Delta":135850171},{"NoteNumber":49,"Velocity":64,"Duration":2837272,"SoundDuration":2837272,"Delta":135850171},{"NoteNumber":57,"Velocity":72,"Duration":685713,"SoundDuration":685713,"Delta":135850171},{"NoteNumber":61,"Velocity":64,"Duration":2837272,"SoundDuration":2837272,"Delta":135850171},{"NoteNumber":78,"Velocity":89,"Duration":2151558,"SoundDuration":2151558,"Delta":136535885},{"NoteNumber":66,"Velocity":81,"Duration":677965,"SoundDuration":677965,"Delta":136535885},{"NoteNumber":54,"Velocity":67,"Duration":677965,"SoundDuration":677965,"Delta":136535885},{"NoteNumber":80,"Velocity":88,"Duration":685713,"SoundDuration":685713,"Delta":137213851},{"NoteNumber":68,"Velocity":78,"Duration":685713,"SoundDuration":685713,"Delta":137213851},{"NoteNumber":56,"Velocity":63,"Duration":685713,"SoundDuration":685713,"Delta":137213851},{"NoteNumber":81,"Velocity":88,"Duration":636363,"SoundDuration":636363,"Delta":137899565},{"NoteNumber":69,"Velocity":78,"Duration":636363,"SoundDuration":636363,"Delta":137899565},{"NoteNumber":57,"Velocity":63,"Duration":636363,"SoundDuration":636363,"Delta":137899565},{"NoteNumber":24,"Velocity":61,"Duration":2859661,"SoundDuration":2859661,"Delta":138535929},{"NoteNumber":36,"Velocity":61,"Duration":2859661,"SoundDuration":2859661,"Delta":138535929},{"NoteNumber":69,"Velocity":74,"Duration":2081531,"SoundDuration":2081531,"Delta":138687444},{"NoteNumber":78,"Velocity":91,"Duration":681817,"SoundDuration":681817,"Delta":138687444},{"NoteNumber":66,"Velocity":83,"Duration":681817,"SoundDuration":681817,"Delta":138687444},{"NoteNumber":51,"Velocity":61,"Duration":1371472,"SoundDuration":1371472,"Delta":138687444},{"NoteNumber":42,"Velocity":61,"Duration":681817,"SoundDuration":681817,"Delta":138687444},{"NoteNumber":54,"Velocity":69,"Duration":681817,"SoundDuration":681817,"Delta":138687444},{"NoteNumber":75,"Velocity":74,"Duration":2858375,"SoundDuration":2858375,"Delta":138707331},{"NoteNumber":80,"Velocity":88,"Duration":689654,"SoundDuration":689654,"Delta":139369262},{"NoteNumber":68,"Velocity":79,"Duration":689654,"SoundDuration":689654,"Delta":139369262},{"NoteNumber":44,"Velocity":56,"Duration":689654,"SoundDuration":689654,"Delta":139369262},{"NoteNumber":56,"Velocity":64,"Duration":689654,"SoundDuration":689654,"Delta":139369262},{"NoteNumber":81,"Velocity":92,"Duration":710059,"SoundDuration":710059,"Delta":140058917},{"NoteNumber":69,"Velocity":86,"Duration":1486673,"SoundDuration":1486673,"Delta":140058917},{"NoteNumber":57,"Velocity":69,"Duration":710059,"SoundDuration":710059,"Delta":140058917},{"NoteNumber":45,"Velocity":61,"Duration":710059,"SoundDuration":710059,"Delta":140058917},{"NoteNumber":80,"Velocity":90,"Duration":348837,"SoundDuration":348837,"Delta":140768976},{"NoteNumber":68,"Velocity":81,"Duration":348837,"SoundDuration":348837,"Delta":140768976},{"NoteNumber":44,"Velocity":61,"Duration":348837,"SoundDuration":348837,"Delta":140768976},{"NoteNumber":56,"Velocity":69,"Duration":348837,"SoundDuration":348837,"Delta":140768976},{"NoteNumber":78,"Velocity":90,"Duration":277777,"SoundDuration":277777,"Delta":141117813},{"NoteNumber":66,"Velocity":81,"Duration":277777,"SoundDuration":277777,"Delta":141117813},{"NoteNumber":42,"Velocity":61,"Duration":277777,"SoundDuration":277777,"Delta":141117813},{"NoteNumber":54,"Velocity":69,"Duration":277777,"SoundDuration":277777,"Delta":141117813},{"NoteNumber":37,"Velocity":58,"Duration":1537328,"SoundDuration":1537328,"Delta":141395591},{"NoteNumber":25,"Velocity":58,"Duration":2955891,"SoundDuration":2955891,"Delta":141395591},{"NoteNumber":68,"Velocity":72,"Duration":2993391,"SoundDuration":2993391,"Delta":141545591},{"NoteNumber":73,"Velocity":72,"Duration":1387328,"SoundDuration":1387328,"Delta":141545591},{"NoteNumber":76,"Velocity":88,"Duration":689654,"SoundDuration":689654,"Delta":141545591},{"NoteNumber":64,"Velocity":81,"Duration":689654,"SoundDuration":689654,"Delta":141545591},{"NoteNumber":44,"Velocity":58,"Duration":2993391,"SoundDuration":2993391,"Delta":141545591},{"NoteNumber":40,"Velocity":58,"Duration":689654,"SoundDuration":689654,"Delta":141545591},{"NoteNumber":52,"Velocity":64,"Duration":689654,"SoundDuration":689654,"Delta":141545591},{"NoteNumber":73,"Velocity":86,"Duration":2303736,"SoundDuration":2303736,"Delta":142235246},{"NoteNumber":61,"Velocity":79,"Duration":697674,"SoundDuration":697674,"Delta":142235246},{"NoteNumber":37,"Velocity":57,"Duration":2116236,"SoundDuration":2116236,"Delta":142235246},{"NoteNumber":49,"Velocity":64,"Duration":697674,"SoundDuration":697674,"Delta":142235246},{"NoteNumber":75,"Velocity":83,"Duration":718562,"SoundDuration":718562,"Delta":142932920},{"NoteNumber":63,"Velocity":75,"Duration":718562,"SoundDuration":718562,"Delta":142932920},{"NoteNumber":51,"Velocity":62,"Duration":718562,"SoundDuration":718562,"Delta":142932920},{"NoteNumber":39,"Velocity":52,"Duration":718562,"SoundDuration":718562,"Delta":142932920},{"NoteNumber":76,"Velocity":83,"Duration":699999,"SoundDuration":699999,"Delta":143651483},{"NoteNumber":64,"Velocity":75,"Duration":699999,"SoundDuration":699999,"Delta":143651483},{"NoteNumber":52,"Velocity":62,"Duration":699999,"SoundDuration":699999,"Delta":143651483},{"NoteNumber":40,"Velocity":52,"Duration":699999,"SoundDuration":699999,"Delta":143651483},{"NoteNumber":31,"Velocity":59,"Duration":3610902,"SoundDuration":3610902,"Delta":144351483},{"NoteNumber":43,"Velocity":59,"Duration":3610902,"SoundDuration":3610902,"Delta":144351483},{"NoteNumber":64,"Velocity":81,"Duration":1904762,"SoundDuration":1904762,"Delta":144538983},{"NoteNumber":70,"Velocity":81,"Duration":1904762,"SoundDuration":1904762,"Delta":144538983},{"NoteNumber":73,"Velocity":91,"Duration":1904762,"SoundDuration":1904762,"Delta":144538983},{"NoteNumber":76,"Velocity":100,"Duration":1904762,"SoundDuration":1904762,"Delta":144538983},{"NoteNumber":49,"Velocity":66,"Duration":1904762,"SoundDuration":1904762,"Delta":144538983},{"NoteNumber":58,"Velocity":74,"Duration":1904762,"SoundDuration":1904762,"Delta":144538983},{"NoteNumber":52,"Velocity":66,"Duration":1904762,"SoundDuration":1904762,"Delta":144538983},{"NoteNumber":61,"Velocity":74,"Duration":1904762,"SoundDuration":1904762,"Delta":144538983},{"NoteNumber":63,"Velocity":66,"Duration":789474,"SoundDuration":789474,"Delta":146443745},{"NoteNumber":75,"Velocity":66,"Duration":789474,"SoundDuration":789474,"Delta":146443745},{"NoteNumber":51,"Velocity":57,"Duration":789474,"SoundDuration":789474,"Delta":146443745},{"NoteNumber":61,"Velocity":59,"Duration":729166,"SoundDuration":729166,"Delta":147233219},{"NoteNumber":73,"Velocity":59,"Duration":729166,"SoundDuration":729166,"Delta":147233219},{"NoteNumber":49,"Velocity":53,"Duration":729166,"SoundDuration":729166,"Delta":147233219},{"NoteNumber":32,"Velocity":45,"Duration":1739137,"SoundDuration":1739137,"Delta":147962386},{"NoteNumber":44,"Velocity":46,"Duration":1739137,"SoundDuration":1739137,"Delta":147962386},{"NoteNumber":63,"Velocity":49,"Duration":1579563,"SoundDuration":1579563,"Delta":148121960},{"NoteNumber":68,"Velocity":52,"Duration":1579563,"SoundDuration":1579563,"Delta":148121960},{"NoteNumber":73,"Velocity":62,"Duration":774193,"SoundDuration":774193,"Delta":148121960},{"NoteNumber":56,"Velocity":49,"Duration":1579563,"SoundDuration":1579563,"Delta":148121960},{"NoteNumber":72,"Velocity":58,"Duration":402684,"SoundDuration":402684,"Delta":148896154},{"NoteNumber":70,"Velocity":53,"Duration":402684,"SoundDuration":402684,"Delta":149298839},{"NoteNumber":63,"Velocity":49,"Duration":1699394,"SoundDuration":1699394,"Delta":149701523},{"NoteNumber":68,"Velocity":49,"Duration":1699394,"SoundDuration":1699394,"Delta":149701523},{"NoteNumber":72,"Velocity":63,"Duration":1241378,"SoundDuration":1241378,"Delta":149701523},{"NoteNumber":56,"Velocity":47,"Duration":827585,"SoundDuration":827585,"Delta":149701523},{"NoteNumber":44,"Velocity":46,"Duration":1699394,"SoundDuration":1699394,"Delta":149701523},{"NoteNumber":54,"Velocity":41,"Duration":871808,"SoundDuration":871808,"Delta":150529109},{"NoteNumber":73,"Velocity":61,"Duration":458015,"SoundDuration":458015,"Delta":150942902},{"NoteNumber":61,"Velocity":44,"Duration":2105264,"SoundDuration":2105264,"Delta":151400918},{"NoteNumber":68,"Velocity":44,"Duration":2105264,"SoundDuration":2105264,"Delta":151400918},{"NoteNumber":73,"Velocity":49,"Duration":2105264,"SoundDuration":2105264,"Delta":151400918},{"NoteNumber":49,"Velocity":39,"Duration":2105264,"SoundDuration":2105264,"Delta":151400918},{"NoteNumber":52,"Velocity":39,"Duration":2105264,"SoundDuration":2105264,"Delta":151400918},{"NoteNumber":37,"Velocity":24,"Duration":10197431,"SoundDuration":10197431,"Delta":153506182},{"NoteNumber":25,"Velocity":19,"Duration":10197431,"SoundDuration":10197431,"Delta":153506182},{"NoteNumber":68,"Velocity":44,"Duration":757491,"SoundDuration":757491,"Delta":154306182},{"NoteNumber":73,"Velocity":48,"Duration":749402,"SoundDuration":749402,"Delta":155033719},{"NoteNumber":75,"Velocity":47,"Duration":762381,"SoundDuration":762381,"Delta":155752626},{"NoteNumber":76,"Velocity":49,"Duration":731886,"SoundDuration":731886,"Delta":156484512},{"NoteNumber":75,"Velocity":51,"Duration":387850,"SoundDuration":387850,"Delta":157216398},{"NoteNumber":73,"Velocity":46,"Duration":395722,"SoundDuration":395722,"Delta":157573753},{"NoteNumber":71,"Velocity":49,"Duration":714710,"SoundDuration":714710,"Delta":157939696},{"NoteNumber":68,"Velocity":44,"Duration":752932,"SoundDuration":752932,"Delta":158654407},{"NoteNumber":69,"Velocity":44,"Duration":745025,"SoundDuration":745025,"Delta":159377560},{"NoteNumber":71,"Velocity":40,"Duration":757491,"SoundDuration":757491,"Delta":160092271},{"NoteNumber":73,"Velocity":48,"Duration":2883804,"SoundDuration":2883804,"Delta":160819808},{"NoteNumber":66,"Velocity":44,"Duration":749221,"SoundDuration":749221,"Delta":160819808},{"NoteNumber":68,"Velocity":42,"Duration":757477,"SoundDuration":757477,"Delta":161538715},{"NoteNumber":69,"Velocity":46,"Duration":748148,"SoundDuration":748148,"Delta":162266252},{"NoteNumber":68,"Velocity":44,"Duration":385343,"SoundDuration":385343,"Delta":162984815},{"NoteNumber":66,"Velocity":44,"Duration":394082,"SoundDuration":394082,"Delta":163339845},{"NoteNumber":80,"Velocity":48,"Duration":2896780,"SoundDuration":2896780,"Delta":163703613},{"NoteNumber":64,"Velocity":47,"Duration":727537,"SoundDuration":727537,"Delta":163703613},{"NoteNumber":61,"Velocity":42,"Duration":757491,"SoundDuration":757491,"Delta":164431150},{"NoteNumber":63,"Velocity":42,"Duration":748861,"SoundDuration":748861,"Delta":165158687},{"NoteNumber":64,"Velocity":40,"Duration":722799,"SoundDuration":722799,"Delta":165877594},{"NoteNumber":69,"Velocity":38,"Duration":2888347,"SoundDuration":2888347,"Delta":166600393},{"NoteNumber":78,"Velocity":49,"Duration":748342,"SoundDuration":748342,"Delta":166600393},{"NoteNumber":61,"Velocity":33,"Duration":2160810,"SoundDuration":2160810,"Delta":166600393},{"NoteNumber":63,"Velocity":44,"Duration":748342,"SoundDuration":748342,"Delta":166600393},{"NoteNumber":80,"Velocity":50,"Duration":745025,"SoundDuration":745025,"Delta":167318956},{"NoteNumber":64,"Velocity":44,"Duration":745025,"SoundDuration":745025,"Delta":167318956},{"NoteNumber":81,"Velocity":51,"Duration":1455073,"SoundDuration":1455073,"Delta":168033667},{"NoteNumber":66,"Velocity":47,"Duration":1455073,"SoundDuration":1455073,"Delta":168033667},{"NoteNumber":60,"Velocity":31,"Duration":727536,"SoundDuration":727536,"Delta":168761204},{"NoteNumber":80,"Velocity":49,"Duration":739644,"SoundDuration":739644,"Delta":169488741},{"NoteNumber":71,"Velocity":38,"Duration":2857295,"SoundDuration":2857295,"Delta":169488741},{"NoteNumber":64,"Velocity":44,"Duration":739644,"SoundDuration":739644,"Delta":169488741},{"NoteNumber":59,"Velocity":33,"Duration":2857295,"SoundDuration":2857295,"Delta":169488741},{"NoteNumber":78,"Velocity":41,"Duration":739820,"SoundDuration":739820,"Delta":170198800},{"NoteNumber":63,"Velocity":36,"Duration":739820,"SoundDuration":739820,"Delta":170198800},{"NoteNumber":76,"Velocity":44,"Duration":714285,"SoundDuration":714285,"Delta":170908859},{"NoteNumber":61,"Velocity":36,"Duration":714285,"SoundDuration":714285,"Delta":170908859},{"NoteNumber":80,"Velocity":37,"Duration":722892,"SoundDuration":722892,"Delta":171623145},{"NoteNumber":64,"Velocity":31,"Duration":722892,"SoundDuration":722892,"Delta":171623145},{"NoteNumber":72,"Velocity":39,"Duration":3561163,"SoundDuration":3561163,"Delta":172346037},{"NoteNumber":78,"Velocity":48,"Duration":733277,"SoundDuration":733277,"Delta":172346037},{"NoteNumber":57,"Velocity":34,"Duration":4284055,"SoundDuration":4284055,"Delta":172346037},{"NoteNumber":63,"Velocity":44,"Duration":733277,"SoundDuration":733277,"Delta":172346037},{"NoteNumber":80,"Velocity":40,"Duration":744047,"SoundDuration":744047,"Delta":173049553},{"NoteNumber":64,"Velocity":36,"Duration":744047,"SoundDuration":744047,"Delta":173049553},{"NoteNumber":78,"Velocity":42,"Duration":740531,"SoundDuration":740531,"Delta":173763839},{"NoteNumber":63,"Velocity":39,"Duration":740531,"SoundDuration":740531,"Delta":173763839},{"NoteNumber":76,"Velocity":38,"Duration":752477,"SoundDuration":752477,"Delta":174474250},{"NoteNumber":64,"Velocity":33,"Duration":752477,"SoundDuration":752477,"Delta":174474250},{"NoteNumber":75,"Velocity":46,"Duration":710059,"SoundDuration":710059,"Delta":175197142},{"NoteNumber":66,"Velocity":37,"Duration":2866971,"SoundDuration":2866971,"Delta":175197142},{"NoteNumber":73,"Velocity":46,"Duration":753012,"SoundDuration":753012,"Delta":175907201},{"NoteNumber":72,"Velocity":39,"Duration":1434020,"SoundDuration":1434020,"Delta":176630093},{"NoteNumber":75,"Velocity":49,"Duration":741248,"SoundDuration":741248,"Delta":176630093},{"NoteNumber":56,"Velocity":37,"Duration":1434020,"SoundDuration":1434020,"Delta":176630093},{"NoteNumber":76,"Velocity":44,"Duration":722892,"SoundDuration":722892,"Delta":177341221},{"NoteNumber":73,"Velocity":50,"Duration":3479743,"SoundDuration":3479743,"Delta":178064113},{"NoteNumber":64,"Velocity":40,"Duration":697674,"SoundDuration":697674,"Delta":178064113},{"NoteNumber":57,"Velocity":34,"Duration":4181497,"SoundDuration":4181497,"Delta":178064113},{"NoteNumber":63,"Velocity":38,"Duration":737598,"SoundDuration":737598,"Delta":178761787},{"NoteNumber":64,"Velocity":40,"Duration":714783,"SoundDuration":714783,"Delta":179470814},{"NoteNumber":65,"Velocity":36,"Duration":726409,"SoundDuration":726409,"Delta":180156528},{"NoteNumber":66,"Velocity":46,"Duration":2803613,"SoundDuration":2803613,"Delta":180854202},{"NoteNumber":73,"Velocity":46,"Duration":730655,"SoundDuration":730655,"Delta":181543857},{"NoteNumber":72,"Velocity":39,"Duration":1412205,"SoundDuration":1412205,"Delta":182245611},{"NoteNumber":75,"Velocity":49,"Duration":723582,"SoundDuration":723582,"Delta":182245611},{"NoteNumber":56,"Velocity":40,"Duration":1412205,"SoundDuration":1412205,"Delta":182245611},{"NoteNumber":76,"Velocity":44,"Duration":718562,"SoundDuration":718562,"Delta":182939253},{"NoteNumber":73,"Velocity":49,"Duration":4222874,"SoundDuration":4222874,"Delta":183657816},{"NoteNumber":57,"Velocity":33,"Duration":6357378,"SoundDuration":6357378,"Delta":183657816},{"NoteNumber":64,"Velocity":44,"Duration":693642,"SoundDuration":693642,"Delta":183657816},{"NoteNumber":63,"Velocity":39,"Duration":730833,"SoundDuration":730833,"Delta":184351458},{"NoteNumber":64,"Velocity":41,"Duration":718894,"SoundDuration":718894,"Delta":185053556},{"NoteNumber":65,"Velocity":38,"Duration":730993,"SoundDuration":730993,"Delta":185743211},{"NoteNumber":66,"Velocity":47,"Duration":2141607,"SoundDuration":2141607,"Delta":186444965},{"NoteNumber":72,"Velocity":42,"Duration":1424444,"SoundDuration":1424444,"Delta":187880691},{"NoteNumber":64,"Velocity":31,"Duration":718562,"SoundDuration":718562,"Delta":188586573},{"NoteNumber":71,"Velocity":44,"Duration":1428621,"SoundDuration":1428621,"Delta":189305136},{"NoteNumber":63,"Velocity":36,"Duration":2147185,"SoundDuration":2147185,"Delta":189305136},{"NoteNumber":56,"Velocity":33,"Duration":718562,"SoundDuration":718562,"Delta":190015195},{"NoteNumber":69,"Velocity":40,"Duration":1454759,"SoundDuration":1454759,"Delta":190733758},{"NoteNumber":54,"Velocity":31,"Duration":1454759,"SoundDuration":1454759,"Delta":190733758},{"NoteNumber":61,"Velocity":30,"Duration":736196,"SoundDuration":736196,"Delta":191452321},{"NoteNumber":61,"Velocity":35,"Duration":5312099,"SoundDuration":5312099,"Delta":192188517},{"NoteNumber":63,"Velocity":38,"Duration":3019106,"SoundDuration":3019106,"Delta":192188517},{"NoteNumber":68,"Velocity":38,"Duration":6106801,"SoundDuration":6106801,"Delta":192188517},{"NoteNumber":56,"Velocity":31,"Duration":3019106,"SoundDuration":3019106,"Delta":192188517},{"NoteNumber":60,"Velocity":31,"Duration":745341,"SoundDuration":745341,"Delta":193697951},{"NoteNumber":58,"Velocity":31,"Duration":764330,"SoundDuration":764330,"Delta":194443293},{"NoteNumber":60,"Velocity":37,"Duration":2292992,"SoundDuration":2292992,"Delta":195207624},{"NoteNumber":56,"Velocity":30,"Duration":1528661,"SoundDuration":1528661,"Delta":195207624},{"NoteNumber":44,"Velocity":24,"Duration":3087694,"SoundDuration":3087694,"Delta":195207624},{"NoteNumber":54,"Velocity":25,"Duration":1559032,"SoundDuration":1559032,"Delta":196736286},{"NoteNumber":61,"Velocity":30,"Duration":794702,"SoundDuration":794702,"Delta":197500617},{"NoteNumber":61,"Velocity":34,"Duration":2397265,"SoundDuration":2397265,"Delta":198295319},{"NoteNumber":52,"Velocity":29,"Duration":2397265,"SoundDuration":2397265,"Delta":198295319},{"NoteNumber":49,"Velocity":26,"Duration":2397265,"SoundDuration":2397265,"Delta":198295319},{"NoteNumber":25,"Velocity":23,"Duration":413792,"SoundDuration":413792,"Delta":200278791},{"NoteNumber":60,"Velocity":51,"Duration":410958,"SoundDuration":410958,"Delta":201933963},{"NoteNumber":92,"Velocity":46,"Duration":410958,"SoundDuration":410958,"Delta":201933963},{"NoteNumber":87,"Velocity":41,"Duration":410958,"SoundDuration":410958,"Delta":201933963},{"NoteNumber":78,"Velocity":41,"Duration":410958,"SoundDuration":410958,"Delta":201933963},{"NoteNumber":25,"Velocity":27,"Duration":379747,"SoundDuration":379747,"Delta":203577799},{"NoteNumber":61,"Velocity":51,"Duration":397350,"SoundDuration":397350,"Delta":205096787},{"NoteNumber":88,"Velocity":46,"Duration":397350,"SoundDuration":397350,"Delta":205096787},{"NoteNumber":81,"Velocity":41,"Duration":397350,"SoundDuration":397350,"Delta":205096787},{"NoteNumber":76,"Velocity":41,"Duration":397350,"SoundDuration":397350,"Delta":205096787},{"NoteNumber":25,"Velocity":27,"Duration":382165,"SoundDuration":382165,"Delta":206686191},{"NoteNumber":63,"Velocity":51,"Duration":392156,"SoundDuration":392156,"Delta":208214853},{"NoteNumber":69,"Velocity":41,"Duration":392156,"SoundDuration":392156,"Delta":208214853},{"NoteNumber":78,"Velocity":41,"Duration":392156,"SoundDuration":392156,"Delta":208214853},{"NoteNumber":83,"Velocity":46,"Duration":392156,"SoundDuration":392156,"Delta":208214853},{"NoteNumber":25,"Velocity":27,"Duration":379747,"SoundDuration":379747,"Delta":209783481},{"NoteNumber":80,"Velocity":46,"Duration":397350,"SoundDuration":397350,"Delta":211302469},{"NoteNumber":73,"Velocity":41,"Duration":397350,"SoundDuration":397350,"Delta":211302469},{"NoteNumber":68,"Velocity":41,"Duration":397350,"SoundDuration":397350,"Delta":211302469},{"NoteNumber":64,"Velocity":51,"Duration":397350,"SoundDuration":397350,"Delta":211302469},{"NoteNumber":25,"Velocity":26,"Duration":384615,"SoundDuration":384615,"Delta":212891873},{"NoteNumber":80,"Velocity":46,"Duration":402684,"SoundDuration":402684,"Delta":214430335},{"NoteNumber":75,"Velocity":41,"Duration":402684,"SoundDuration":402684,"Delta":214430335},{"NoteNumber":66,"Velocity":46,"Duration":402684,"SoundDuration":402684,"Delta":214430335},{"NoteNumber":48,"Velocity":51,"Duration":402684,"SoundDuration":402684,"Delta":214430335},{"NoteNumber":25,"Velocity":26,"Duration":382165,"SoundDuration":382165,"Delta":216041073},{"NoteNumber":64,"Velocity":41,"Duration":400000,"SoundDuration":400000,"Delta":217569735},{"NoteNumber":69,"Velocity":41,"Duration":400000,"SoundDuration":400000,"Delta":217569735},{"NoteNumber":76,"Velocity":46,"Duration":400000,"SoundDuration":400000,"Delta":217569735},{"NoteNumber":49,"Velocity":51,"Duration":400000,"SoundDuration":400000,"Delta":217569735},{"NoteNumber":25,"Velocity":27,"Duration":379747,"SoundDuration":379747,"Delta":219169735},{"NoteNumber":57,"Velocity":41,"Duration":400000,"SoundDuration":400000,"Delta":220688723},{"NoteNumber":66,"Velocity":41,"Duration":400000,"SoundDuration":400000,"Delta":220688723},{"NoteNumber":71,"Velocity":46,"Duration":400000,"SoundDuration":400000,"Delta":220688723},{"NoteNumber":51,"Velocity":53,"Duration":400000,"SoundDuration":400000,"Delta":220688723},{"NoteNumber":25,"Velocity":26,"Duration":387097,"SoundDuration":387097,"Delta":222288723},{"NoteNumber":56,"Velocity":41,"Duration":402684,"SoundDuration":402684,"Delta":223837111},{"NoteNumber":61,"Velocity":41,"Duration":402684,"SoundDuration":402684,"Delta":223837111},{"NoteNumber":68,"Velocity":46,"Duration":402684,"SoundDuration":402684,"Delta":223837111},{"NoteNumber":52,"Velocity":52,"Duration":402684,"SoundDuration":402684,"Delta":223837111},{"NoteNumber":25,"Velocity":25,"Duration":387097,"SoundDuration":387097,"Delta":225447849},{"NoteNumber":57,"Velocity":58,"Duration":400000,"SoundDuration":400000,"Delta":226996237},{"NoteNumber":62,"Velocity":58,"Duration":400000,"SoundDuration":400000,"Delta":226996237},{"NoteNumber":66,"Velocity":64,"Duration":400000,"SoundDuration":400000,"Delta":226996237},{"NoteNumber":54,"Velocity":68,"Duration":400000,"SoundDuration":400000,"Delta":226996237},{"NoteNumber":25,"Velocity":29,"Duration":377358,"SoundDuration":377358,"Delta":228596237},{"NoteNumber":25,"Velocity":28,"Duration":377358,"SoundDuration":377358,"Delta":231615105},{"NoteNumber":54,"Velocity":41,"Duration":392156,"SoundDuration":392156,"Delta":233124539},{"NoteNumber":57,"Velocity":41,"Duration":392156,"SoundDuration":392156,"Delta":233124539},{"NoteNumber":63,"Velocity":46,"Duration":392156,"SoundDuration":392156,"Delta":233124539},{"NoteNumber":48,"Velocity":52,"Duration":392156,"SoundDuration":392156,"Delta":233124539},{"NoteNumber":25,"Velocity":29,"Duration":382165,"SoundDuration":382165,"Delta":234693167},{"NoteNumber":25,"Velocity":28,"Duration":379746,"SoundDuration":379746,"Delta":237740817},{"NoteNumber":56,"Velocity":41,"Duration":361446,"SoundDuration":361446,"Delta":239259805},{"NoteNumber":61,"Velocity":46,"Duration":361446,"SoundDuration":361446,"Delta":239259805},{"NoteNumber":52,"Velocity":52,"Duration":361446,"SoundDuration":361446,"Delta":239259805},{"NoteNumber":25,"Velocity":27,"Duration":379747,"SoundDuration":379747,"Delta":240705589},{"NoteNumber":54,"Velocity":56,"Duration":393882,"SoundDuration":393882,"Delta":242224577},{"NoteNumber":59,"Velocity":62,"Duration":393882,"SoundDuration":393882,"Delta":242224577},{"NoteNumber":51,"Velocity":68,"Duration":393882,"SoundDuration":393882,"Delta":242224577},{"NoteNumber":25,"Velocity":26,"Duration":382165,"SoundDuration":382165,"Delta":243802670},{"NoteNumber":56,"Velocity":41,"Duration":394736,"SoundDuration":394736,"Delta":245331332},{"NoteNumber":61,"Velocity":46,"Duration":394736,"SoundDuration":394736,"Delta":245331332},{"NoteNumber":52,"Velocity":49,"Duration":394736,"SoundDuration":394736,"Delta":245331332},{"NoteNumber":25,"Velocity":26,"Duration":377358,"SoundDuration":377358,"Delta":246910280},{"NoteNumber":54,"Velocity":57,"Duration":405405,"SoundDuration":405405,"Delta":248419714},{"NoteNumber":59,"Velocity":63,"Duration":405405,"SoundDuration":405405,"Delta":248419714},{"NoteNumber":51,"Velocity":68,"Duration":405405,"SoundDuration":405405,"Delta":248419714},{"NoteNumber":25,"Velocity":27,"Duration":382165,"SoundDuration":382165,"Delta":250041336},{"NoteNumber":56,"Velocity":41,"Duration":402684,"SoundDuration":402684,"Delta":251569998},{"NoteNumber":61,"Velocity":46,"Duration":402684,"SoundDuration":402684,"Delta":251569998},{"NoteNumber":52,"Velocity":52,"Duration":402684,"SoundDuration":402684,"Delta":251569998},{"NoteNumber":25,"Velocity":26,"Duration":375000,"SoundDuration":375000,"Delta":253180736},{"NoteNumber":25,"Velocity":18,"Duration":759493,"SoundDuration":759493,"Delta":256600736}],"license":{"name":"Creative Commons Attribution-ShareAlike 3.0 Germany","url":"http://creativecommons.org/licenses/by-sa/3.0/de/deed.en","text":"The MIDI, audio (MP3, OGG) and video files of Bernd Krueger are licensed under the cc-by-sa Germany License. This means that you can use and adapt the files, as long as you attribute the copyright holder.\n\nName: Bernd Krueger\nSource: http://www.piano-midi.de\n\nThe distribution or public playback of the files is only allowed under identical license conditions.\n\nThe scores are open source.","attribution":"MIDI files by Bernd Krueger (piano-midi.de)"}}