{"title":"2. Satz","artist":"Piano","durationMs":391028,"midiSha256":"880b1499ef19b4b3d38a103c9026e5b0d49f009085c02b0c0ac547766be05b0f","midiObject":[{"NoteNumber":72,"Velocity":50,"Duration":674157,"SoundDuration":674157,"Delta":0},{"NoteNumber":72,"Velocity":50,"Duration":674157,"SoundDuration":674157,"Delta":674158},{"NoteNumber":72,"Velocity":50,"Duration":674157,"SoundDuration":674157,"Delta":1348316},{"NoteNumber":72,"Velocity":52,"Duration":325238,"SoundDuration":325238,"Delta":2022473},{"NoteNumber":53,"Velocity":30,"Duration":2581213,"SoundDuration":2581213,"Delta":2022473},{"NoteNumber":57,"Velocity":30,"Duration":2581213,"SoundDuration":2581213,"Delta":2022473},{"NoteNumber":60,"Velocity":34,"Duration":2581213,"SoundDuration":2581213,"Delta":2022473},{"NoteNumber":74,"Velocity":47,"Duration":108412,"SoundDuration":108412,"Delta":2347712},{"NoteNumber":72,"Velocity":46,"Duration":108412,"SoundDuration":108412,"Delta":2456124},{"NoteNumber":71,"Velocity":46,"Duration":108412,"SoundDuration":108412,"Delta":2564537},{"NoteNumber":72,"Velocity":52,"Duration":312500,"SoundDuration":312500,"Delta":2672950},{"NoteNumber":77,"Velocity":40,"Duration":312500,"SoundDuration":312500,"Delta":2985450},{"NoteNumber":72,"Velocity":44,"Duration":315789,"SoundDuration":315789,"Delta":3297950},{"NoteNumber":69,"Velocity":43,"Duration":674157,"SoundDuration":674157,"Delta":3929529},{"NoteNumber":72,"Velocity":48,"Duration":674157,"SoundDuration":674157,"Delta":4603687},{"NoteNumber":55,"Velocity":27,"Duration":1380205,"SoundDuration":1380205,"Delta":4603687},{"NoteNumber":58,"Velocity":30,"Duration":1380205,"SoundDuration":1380205,"Delta":4603687},{"NoteNumber":48,"Velocity":27,"Duration":1380205,"SoundDuration":1380205,"Delta":4603687},{"NoteNumber":64,"Velocity":44,"Duration":706048,"SoundDuration":706048,"Delta":5277844},{"NoteNumber":67,"Velocity":53,"Duration":1348314,"SoundDuration":1348314,"Delta":5983892},{"NoteNumber":50,"Velocity":37,"Duration":2022472,"SoundDuration":2022472,"Delta":5983892},{"NoteNumber":58,"Velocity":37,"Duration":1348314,"SoundDuration":1348314,"Delta":5983892},{"NoteNumber":65,"Velocity":48,"Duration":674157,"SoundDuration":674157,"Delta":7332207},{"NoteNumber":57,"Velocity":37,"Duration":674157,"SoundDuration":674157,"Delta":7332207},{"NoteNumber":60,"Velocity":40,"Duration":656167,"SoundDuration":656167,"Delta":8006365},{"NoteNumber":65,"Velocity":73,"Duration":656167,"SoundDuration":656167,"Delta":8006365},{"NoteNumber":45,"Velocity":57,"Duration":656167,"SoundDuration":656167,"Delta":8006365},{"NoteNumber":57,"Velocity":57,"Duration":656167,"SoundDuration":656167,"Delta":8006365},{"NoteNumber":64,"Velocity":51,"Duration":656168,"SoundDuration":656168,"Delta":8662533},{"NoteNumber":67,"Velocity":75,"Duration":656168,"SoundDuration":656168,"Delta":8662533},{"NoteNumber":43,"Velocity":59,"Duration":656168,"SoundDuration":656168,"Delta":8662533},{"NoteNumber":55,"Velocity":59,"Duration":656168,"SoundDuration":656168,"Delta":8662533},{"NoteNumber":60,"Velocity":40,"Duration":656167,"SoundDuration":656167,"Delta":9318701},{"NoteNumber":65,"Velocity":52,"Duration":656167,"SoundDuration":656167,"Delta":9318701},{"NoteNumber":69,"Velocity":76,"Duration":656167,"SoundDuration":656167,"Delta":9318701},{"NoteNumber":41,"Velocity":57,"Duration":656167,"SoundDuration":656167,"Delta":9318701},{"NoteNumber":53,"Velocity":57,"Duration":656167,"SoundDuration":656167,"Delta":9318701},{"NoteNumber":65,"Velocity":63,"Duration":978973,"SoundDuration":978973,"Delta":9974869},{"NoteNumber":70,"Velocity":77,"Duration":978973,"SoundDuration":978973,"Delta":9974869},{"NoteNumber":62,"Velocity":56,"Duration":656168,"SoundDuration":656168,"Delta":9974869},{"NoteNumber":50,"Velocity":49,"Duration":656168,"SoundDuration":656168,"Delta":9974869},{"NoteNumber":46,"Velocity":44,"Duration":612004,"SoundDuration":612004,"Delta":10631037},{"NoteNumber":58,"Velocity":44,"Duration":612004,"SoundDuration":612004,"Delta":10631037},{"NoteNumber":72,"Velocity":61,"Duration":143568,"SoundDuration":143568,"Delta":10953843},{"NoteNumber":74,"Velocity":57,"Duration":145631,"SoundDuration":145631,"Delta":11097411},{"NoteNumber":72,"Velocity":55,"Duration":340908,"SoundDuration":340908,"Delta":11243042},{"NoteNumber":57,"Velocity":27,"Duration":340908,"SoundDuration":340908,"Delta":11243042},{"NoteNumber":45,"Velocity":19,"Duration":340908,"SoundDuration":340908,"Delta":11243042},{"NoteNumber":65,"Velocity":46,"Duration":643914,"SoundDuration":643914,"Delta":11924860},{"NoteNumber":59,"Velocity":25,"Duration":1397337,"SoundDuration":1397337,"Delta":12568775},{"NoteNumber":64,"Velocity":52,"Duration":670241,"SoundDuration":670241,"Delta":12568775},{"NoteNumber":50,"Velocity":29,"Duration":1397337,"SoundDuration":1397337,"Delta":12568775},{"NoteNumber":65,"Velocity":46,"Duration":727096,"SoundDuration":727096,"Delta":13239016},{"NoteNumber":60,"Velocity":32,"Duration":2742305,"SoundDuration":2742305,"Delta":13966113},{"NoteNumber":65,"Velocity":32,"Duration":1398927,"SoundDuration":1398927,"Delta":13966113},{"NoteNumber":69,"Velocity":47,"Duration":1398927,"SoundDuration":1398927,"Delta":13966113},{"NoteNumber":48,"Velocity":27,"Duration":2742305,"SoundDuration":2742305,"Delta":13966113},{"NoteNumber":67,"Velocity":46,"Duration":699463,"SoundDuration":699463,"Delta":15365040},{"NoteNumber":64,"Velocity":21,"Duration":699463,"SoundDuration":699463,"Delta":15365040},{"NoteNumber":67,"Velocity":54,"Duration":643914,"SoundDuration":643914,"Delta":16064503},{"NoteNumber":67,"Velocity":59,"Duration":643914,"SoundDuration":643914,"Delta":16708418},{"NoteNumber":60,"Velocity":39,"Duration":1311574,"SoundDuration":1311574,"Delta":16708418},{"NoteNumber":64,"Velocity":39,"Duration":1311574,"SoundDuration":1311574,"Delta":16708418},{"NoteNumber":67,"Velocity":65,"Duration":494808,"SoundDuration":494808,"Delta":17352333},{"NoteNumber":67,"Velocity":66,"Duration":172850,"SoundDuration":172850,"Delta":17847142},{"NoteNumber":79,"Velocity":74,"Duration":965872,"SoundDuration":965872,"Delta":18019993},{"NoteNumber":59,"Velocity":51,"Duration":2575659,"SoundDuration":2575659,"Delta":18019993},{"NoteNumber":65,"Velocity":51,"Duration":2575659,"SoundDuration":2575659,"Delta":18019993},{"NoteNumber":62,"Velocity":51,"Duration":2575659,"SoundDuration":2575659,"Delta":18019993},{"NoteNumber":74,"Velocity":50,"Duration":160978,"SoundDuration":160978,"Delta":18985865},{"NoteNumber":71,"Velocity":46,"Duration":160978,"SoundDuration":160978,"Delta":19146844},{"NoteNumber":67,"Velocity":48,"Duration":643914,"SoundDuration":643914,"Delta":19307823},{"NoteNumber":67,"Velocity":55,"Duration":643914,"SoundDuration":643914,"Delta":19951738},{"NoteNumber":67,"Velocity":63,"Duration":643914,"SoundDuration":643914,"Delta":20595653},{"NoteNumber":64,"Velocity":43,"Duration":1339099,"SoundDuration":1339099,"Delta":20595653},{"NoteNumber":60,"Velocity":43,"Duration":1339099,"SoundDuration":1339099,"Delta":20595653},{"NoteNumber":67,"Velocity":69,"Duration":508571,"SoundDuration":508571,"Delta":21239568},{"NoteNumber":67,"Velocity":68,"Duration":186613,"SoundDuration":186613,"Delta":21748139},{"NoteNumber":79,"Velocity":73,"Duration":1806382,"SoundDuration":1806382,"Delta":21934752},{"NoteNumber":53,"Velocity":52,"Duration":1287829,"SoundDuration":1287829,"Delta":21934752},{"NoteNumber":59,"Velocity":52,"Duration":1287829,"SoundDuration":1287829,"Delta":21934752},{"NoteNumber":50,"Velocity":52,"Duration":1287829,"SoundDuration":1287829,"Delta":21934752},{"NoteNumber":55,"Velocity":37,"Duration":1382806,"SoundDuration":1382806,"Delta":23222582},{"NoteNumber":60,"Velocity":37,"Duration":1382806,"SoundDuration":1382806,"Delta":23222582},{"NoteNumber":52,"Velocity":37,"Duration":1382806,"SoundDuration":1382806,"Delta":23222582},{"NoteNumber":81,"Velocity":56,"Duration":86425,"SoundDuration":86425,"Delta":23741135},{"NoteNumber":83,"Velocity":49,"Duration":86425,"SoundDuration":86425,"Delta":23827561},{"NoteNumber":84,"Velocity":55,"Duration":345701,"SoundDuration":345701,"Delta":23913986},{"NoteNumber":83,"Velocity":49,"Duration":345701,"SoundDuration":345701,"Delta":24259688},{"NoteNumber":81,"Velocity":55,"Duration":325168,"SoundDuration":325168,"Delta":24605389},{"NoteNumber":79,"Velocity":46,"Duration":325167,"SoundDuration":325167,"Delta":24930557},{"NoteNumber":77,"Velocity":51,"Duration":325168,"SoundDuration":325168,"Delta":25255725},{"NoteNumber":76,"Velocity":47,"Duration":325167,"SoundDuration":325167,"Delta":25580893},{"NoteNumber":73,"Velocity":52,"Duration":338600,"SoundDuration":338600,"Delta":25906061},{"NoteNumber":74,"Velocity":48,"Duration":338600,"SoundDuration":338600,"Delta":26244662},{"NoteNumber":77,"Velocity":49,"Duration":338600,"SoundDuration":338600,"Delta":26583262},{"NoteNumber":57,"Velocity":30,"Duration":703475,"SoundDuration":703475,"Delta":26583262},{"NoteNumber":62,"Velocity":30,"Duration":703475,"SoundDuration":703475,"Delta":26583262},{"NoteNumber":53,"Velocity":30,"Duration":703475,"SoundDuration":703475,"Delta":26583262},{"NoteNumber":81,"Velocity":46,"Duration":364874,"SoundDuration":364874,"Delta":26921863},{"NoteNumber":72,"Velocity":54,"Duration":2031603,"SoundDuration":2031603,"Delta":27286738},{"NoteNumber":60,"Velocity":24,"Duration":1354402,"SoundDuration":1354402,"Delta":27286738},{"NoteNumber":64,"Velocity":27,"Duration":1354402,"SoundDuration":1354402,"Delta":27286738},{"NoteNumber":55,"Velocity":25,"Duration":2708804,"SoundDuration":2708804,"Delta":27286738},{"NoteNumber":65,"Velocity":26,"Duration":1354402,"SoundDuration":1354402,"Delta":28641140},{"NoteNumber":62,"Velocity":23,"Duration":1354402,"SoundDuration":1354402,"Delta":28641140},{"NoteNumber":76,"Velocity":48,"Duration":338600,"SoundDuration":338600,"Delta":29318341},{"NoteNumber":71,"Velocity":37,"Duration":677201,"SoundDuration":677201,"Delta":29318341},{"NoteNumber":74,"Velocity":47,"Duration":338600,"SoundDuration":338600,"Delta":29656941},{"NoteNumber":72,"Velocity":47,"Duration":1354401,"SoundDuration":1354401,"Delta":29995542},{"NoteNumber":60,"Velocity":30,"Duration":1354401,"SoundDuration":1354401,"Delta":29995542},{"NoteNumber":64,"Velocity":34,"Duration":1354401,"SoundDuration":1354401,"Delta":29995542},{"NoteNumber":48,"Velocity":26,"Duration":731707,"SoundDuration":731707,"Delta":31349944},{"NoteNumber":72,"Velocity":50,"Duration":676711,"SoundDuration":676711,"Delta":32081651},{"NoteNumber":72,"Velocity":50,"Duration":674157,"SoundDuration":674157,"Delta":32758362},{"NoteNumber":72,"Velocity":50,"Duration":674157,"SoundDuration":674157,"Delta":33432520},{"NoteNumber":72,"Velocity":52,"Duration":325238,"SoundDuration":325238,"Delta":34106677},{"NoteNumber":53,"Velocity":30,"Duration":2582041,"SoundDuration":2582041,"Delta":34106677},{"NoteNumber":57,"Velocity":30,"Duration":2582041,"SoundDuration":2582041,"Delta":34106677},{"NoteNumber":60,"Velocity":34,"Duration":2582041,"SoundDuration":2582041,"Delta":34106677},{"NoteNumber":74,"Velocity":47,"Duration":108412,"SoundDuration":108412,"Delta":34431916},{"NoteNumber":72,"Velocity":46,"Duration":108412,"SoundDuration":108412,"Delta":34540329},{"NoteNumber":71,"Velocity":46,"Duration":108412,"SoundDuration":108412,"Delta":34648741},{"NoteNumber":72,"Velocity":52,"Duration":306122,"SoundDuration":306122,"Delta":34757154},{"NoteNumber":77,"Velocity":43,"Duration":306122,"SoundDuration":306122,"Delta":35063277},{"NoteNumber":72,"Velocity":47,"Duration":322580,"SoundDuration":322580,"Delta":35369399},{"NoteNumber":69,"Velocity":47,"Duration":674157,"SoundDuration":674157,"Delta":36014561},{"NoteNumber":72,"Velocity":48,"Duration":674157,"SoundDuration":674157,"Delta":36688718},{"NoteNumber":48,"Velocity":27,"Duration":1380206,"SoundDuration":1380206,"Delta":36688718},{"NoteNumber":55,"Velocity":27,"Duration":1380206,"SoundDuration":1380206,"Delta":36688718},{"NoteNumber":58,"Velocity":30,"Duration":1380206,"SoundDuration":1380206,"Delta":36688718},{"NoteNumber":64,"Velocity":45,"Duration":706048,"SoundDuration":706048,"Delta":37362876},{"NoteNumber":67,"Velocity":54,"Duration":1348314,"SoundDuration":1348314,"Delta":38068924},{"NoteNumber":50,"Velocity":37,"Duration":2022472,"SoundDuration":2022472,"Delta":38068924},{"NoteNumber":58,"Velocity":37,"Duration":1348314,"SoundDuration":1348314,"Delta":38068924},{"NoteNumber":65,"Velocity":48,"Duration":674157,"SoundDuration":674157,"Delta":39417239},{"NoteNumber":57,"Velocity":37,"Duration":674157,"SoundDuration":674157,"Delta":39417239},{"NoteNumber":60,"Velocity":40,"Duration":656168,"SoundDuration":656168,"Delta":40091397},{"NoteNumber":65,"Velocity":73,"Duration":656168,"SoundDuration":656168,"Delta":40091397},{"NoteNumber":45,"Velocity":57,"Duration":656168,"SoundDuration":656168,"Delta":40091397},{"NoteNumber":57,"Velocity":57,"Duration":656168,"SoundDuration":656168,"Delta":40091397},{"NoteNumber":64,"Velocity":51,"Duration":656168,"SoundDuration":656168,"Delta":40747565},{"NoteNumber":67,"Velocity":75,"Duration":656168,"SoundDuration":656168,"Delta":40747565},{"NoteNumber":43,"Velocity":59,"Duration":656168,"SoundDuration":656168,"Delta":40747565},{"NoteNumber":55,"Velocity":59,"Duration":656168,"SoundDuration":656168,"Delta":40747565},{"NoteNumber":65,"Velocity":52,"Duration":656168,"SoundDuration":656168,"Delta":41403733},{"NoteNumber":60,"Velocity":40,"Duration":656168,"SoundDuration":656168,"Delta":41403733},{"NoteNumber":69,"Velocity":76,"Duration":656168,"SoundDuration":656168,"Delta":41403733},{"NoteNumber":41,"Velocity":57,"Duration":656168,"SoundDuration":656168,"Delta":41403733},{"NoteNumber":53,"Velocity":57,"Duration":656168,"SoundDuration":656168,"Delta":41403733},{"NoteNumber":65,"Velocity":63,"Duration":967113,"SoundDuration":967113,"Delta":42059901},{"NoteNumber":70,"Velocity":77,"Duration":967113,"SoundDuration":967113,"Delta":42059901},{"NoteNumber":50,"Velocity":49,"Duration":656167,"SoundDuration":656167,"Delta":42059901},{"NoteNumber":62,"Velocity":56,"Duration":656167,"SoundDuration":656167,"Delta":42059901},{"NoteNumber":46,"Velocity":45,"Duration":594673,"SoundDuration":594673,"Delta":42716069},{"NoteNumber":58,"Velocity":45,"Duration":594673,"SoundDuration":594673,"Delta":42716069},{"NoteNumber":72,"Velocity":59,"Duration":140871,"SoundDuration":140871,"Delta":43027014},{"NoteNumber":74,"Velocity":56,"Duration":142857,"SoundDuration":142857,"Delta":43167886},{"NoteNumber":72,"Velocity":56,"Duration":337078,"SoundDuration":337078,"Delta":43310743},{"NoteNumber":57,"Velocity":29,"Duration":337078,"SoundDuration":337078,"Delta":43310743},{"NoteNumber":65,"Velocity":47,"Duration":643914,"SoundDuration":643914,"Delta":43984900},{"NoteNumber":59,"Velocity":31,"Duration":1397338,"SoundDuration":1397338,"Delta":44628815},{"NoteNumber":64,"Velocity":52,"Duration":670241,"SoundDuration":670241,"Delta":44628815},{"NoteNumber":50,"Velocity":34,"Duration":1397338,"SoundDuration":1397338,"Delta":44628815},{"NoteNumber":65,"Velocity":45,"Duration":727096,"SoundDuration":727096,"Delta":45299057},{"NoteNumber":60,"Velocity":32,"Duration":2742305,"SoundDuration":2742305,"Delta":46026153},{"NoteNumber":65,"Velocity":32,"Duration":1398927,"SoundDuration":1398927,"Delta":46026153},{"NoteNumber":69,"Velocity":47,"Duration":1398927,"SoundDuration":1398927,"Delta":46026153},{"NoteNumber":48,"Velocity":27,"Duration":2742305,"SoundDuration":2742305,"Delta":46026153},{"NoteNumber":64,"Velocity":31,"Duration":699463,"SoundDuration":699463,"Delta":47425080},{"NoteNumber":67,"Velocity":46,"Duration":699463,"SoundDuration":699463,"Delta":47425080},{"NoteNumber":67,"Velocity":54,"Duration":643914,"SoundDuration":643914,"Delta":48124544},{"NoteNumber":67,"Velocity":59,"Duration":643914,"SoundDuration":643914,"Delta":48768459},{"NoteNumber":60,"Velocity":39,"Duration":1311574,"SoundDuration":1311574,"Delta":48768459},{"NoteNumber":64,"Velocity":39,"Duration":1311574,"SoundDuration":1311574,"Delta":48768459},{"NoteNumber":67,"Velocity":65,"Duration":494808,"SoundDuration":494808,"Delta":49412374},{"NoteNumber":67,"Velocity":66,"Duration":172850,"SoundDuration":172850,"Delta":49907182},{"NoteNumber":79,"Velocity":74,"Duration":965872,"SoundDuration":965872,"Delta":50080033},{"NoteNumber":59,"Velocity":51,"Duration":2575659,"SoundDuration":2575659,"Delta":50080033},{"NoteNumber":62,"Velocity":51,"Duration":2575659,"SoundDuration":2575659,"Delta":50080033},{"NoteNumber":65,"Velocity":51,"Duration":2575659,"SoundDuration":2575659,"Delta":50080033},{"NoteNumber":74,"Velocity":50,"Duration":160978,"SoundDuration":160978,"Delta":51045905},{"NoteNumber":71,"Velocity":46,"Duration":160978,"SoundDuration":160978,"Delta":51206884},{"NoteNumber":67,"Velocity":51,"Duration":643914,"SoundDuration":643914,"Delta":51367863},{"NoteNumber":67,"Velocity":59,"Duration":643914,"SoundDuration":643914,"Delta":52011778},{"NoteNumber":67,"Velocity":63,"Duration":643914,"SoundDuration":643914,"Delta":52655693},{"NoteNumber":60,"Velocity":43,"Duration":1339099,"SoundDuration":1339099,"Delta":52655693},{"NoteNumber":64,"Velocity":43,"Duration":1339099,"SoundDuration":1339099,"Delta":52655693},{"NoteNumber":67,"Velocity":69,"Duration":508571,"SoundDuration":508571,"Delta":53299608},{"NoteNumber":67,"Velocity":68,"Duration":186613,"SoundDuration":186613,"Delta":53808179},{"NoteNumber":79,"Velocity":73,"Duration":1806382,"SoundDuration":1806382,"Delta":53994793},{"NoteNumber":50,"Velocity":52,"Duration":1287829,"SoundDuration":1287829,"Delta":53994793},{"NoteNumber":53,"Velocity":52,"Duration":1287829,"SoundDuration":1287829,"Delta":53994793},{"NoteNumber":59,"Velocity":52,"Duration":1287829,"SoundDuration":1287829,"Delta":53994793},{"NoteNumber":52,"Velocity":37,"Duration":1382806,"SoundDuration":1382806,"Delta":55282623},{"NoteNumber":55,"Velocity":37,"Duration":1382806,"SoundDuration":1382806,"Delta":55282623},{"NoteNumber":60,"Velocity":37,"Duration":1382806,"SoundDuration":1382806,"Delta":55282623},{"NoteNumber":81,"Velocity":56,"Duration":86425,"SoundDuration":86425,"Delta":55801175},{"NoteNumber":83,"Velocity":49,"Duration":86425,"SoundDuration":86425,"Delta":55887601},{"NoteNumber":84,"Velocity":53,"Duration":345701,"SoundDuration":345701,"Delta":55974026},{"NoteNumber":83,"Velocity":49,"Duration":345701,"SoundDuration":345701,"Delta":56319728},{"NoteNumber":81,"Velocity":52,"Duration":325167,"SoundDuration":325167,"Delta":56665430},{"NoteNumber":79,"Velocity":49,"Duration":325168,"SoundDuration":325168,"Delta":56990598},{"NoteNumber":77,"Velocity":51,"Duration":325167,"SoundDuration":325167,"Delta":57315766},{"NoteNumber":76,"Velocity":50,"Duration":325167,"SoundDuration":325167,"Delta":57640934},{"NoteNumber":73,"Velocity":52,"Duration":338600,"SoundDuration":338600,"Delta":57966102},{"NoteNumber":74,"Velocity":48,"Duration":338600,"SoundDuration":338600,"Delta":58304702},{"NoteNumber":77,"Velocity":49,"Duration":338600,"SoundDuration":338600,"Delta":58643303},{"NoteNumber":62,"Velocity":30,"Duration":703475,"SoundDuration":703475,"Delta":58643303},{"NoteNumber":57,"Velocity":30,"Duration":703475,"SoundDuration":703475,"Delta":58643303},{"NoteNumber":53,"Velocity":30,"Duration":703475,"SoundDuration":703475,"Delta":58643303},{"NoteNumber":81,"Velocity":48,"Duration":364874,"SoundDuration":364874,"Delta":58981903},{"NoteNumber":72,"Velocity":54,"Duration":2031602,"SoundDuration":2031602,"Delta":59346778},{"NoteNumber":64,"Velocity":27,"Duration":1354402,"SoundDuration":1354402,"Delta":59346778},{"NoteNumber":60,"Velocity":24,"Duration":1354402,"SoundDuration":1354402,"Delta":59346778},{"NoteNumber":55,"Velocity":24,"Duration":2708803,"SoundDuration":2708803,"Delta":59346778},{"NoteNumber":65,"Velocity":26,"Duration":1354401,"SoundDuration":1354401,"Delta":60701180},{"NoteNumber":62,"Velocity":23,"Duration":1354401,"SoundDuration":1354401,"Delta":60701180},{"NoteNumber":76,"Velocity":48,"Duration":338600,"SoundDuration":338600,"Delta":61378381},{"NoteNumber":71,"Velocity":43,"Duration":677200,"SoundDuration":677200,"Delta":61378381},{"NoteNumber":74,"Velocity":47,"Duration":338600,"SoundDuration":338600,"Delta":61716981},{"NoteNumber":72,"Velocity":47,"Duration":1354402,"SoundDuration":1354402,"Delta":62055582},{"NoteNumber":64,"Velocity":34,"Duration":1354402,"SoundDuration":1354402,"Delta":62055582},{"NoteNumber":60,"Velocity":30,"Duration":1354402,"SoundDuration":1354402,"Delta":62055582},{"NoteNumber":48,"Velocity":27,"Duration":697674,"SoundDuration":697674,"Delta":63409984},{"NoteNumber":72,"Velocity":50,"Duration":645161,"SoundDuration":645161,"Delta":64107658},{"NoteNumber":74,"Velocity":54,"Duration":349462,"SoundDuration":349462,"Delta":64752820},{"NoteNumber":72,"Velocity":50,"Duration":349462,"SoundDuration":349462,"Delta":65075401},{"NoteNumber":70,"Velocity":55,"Duration":352173,"SoundDuration":352173,"Delta":65397981},{"NoteNumber":69,"Velocity":49,"Duration":382891,"SoundDuration":382891,"Delta":65720562},{"NoteNumber":67,"Velocity":61,"Duration":1333332,"SoundDuration":1333332,"Delta":66075676},{"NoteNumber":60,"Velocity":42,"Duration":1971631,"SoundDuration":1971631,"Delta":66075676},{"NoteNumber":63,"Velocity":46,"Duration":1971631,"SoundDuration":1971631,"Delta":66075676},{"NoteNumber":66,"Velocity":51,"Duration":638298,"SoundDuration":638298,"Delta":67409009},{"NoteNumber":66,"Velocity":63,"Duration":631579,"SoundDuration":631579,"Delta":68047307},{"NoteNumber":63,"Velocity":46,"Duration":631579,"SoundDuration":631579,"Delta":68047307},{"NoteNumber":60,"Velocity":46,"Duration":631579,"SoundDuration":631579,"Delta":68047307},{"NoteNumber":67,"Velocity":65,"Duration":631579,"SoundDuration":631579,"Delta":68678886},{"NoteNumber":62,"Velocity":47,"Duration":631579,"SoundDuration":631579,"Delta":68678886},{"NoteNumber":58,"Velocity":47,"Duration":631579,"SoundDuration":631579,"Delta":68678886},{"NoteNumber":66,"Velocity":52,"Duration":517241,"SoundDuration":517241,"Delta":69310465},{"NoteNumber":69,"Velocity":66,"Duration":517241,"SoundDuration":517241,"Delta":69310465},{"NoteNumber":57,"Velocity":47,"Duration":689655,"SoundDuration":689655,"Delta":69310465},{"NoteNumber":62,"Velocity":47,"Duration":689655,"SoundDuration":689655,"Delta":69310465},{"NoteNumber":60,"Velocity":47,"Duration":689655,"SoundDuration":689655,"Delta":69310465},{"NoteNumber":66,"Velocity":51,"Duration":1318680,"SoundDuration":1318680,"Delta":70000120},{"NoteNumber":69,"Velocity":65,"Duration":1318680,"SoundDuration":1318680,"Delta":70000120},{"NoteNumber":60,"Velocity":50,"Duration":1318680,"SoundDuration":1318680,"Delta":70000120},{"NoteNumber":55,"Velocity":50,"Duration":1978021,"SoundDuration":1978021,"Delta":70000120},{"NoteNumber":62,"Velocity":50,"Duration":1978021,"SoundDuration":1978021,"Delta":70000120},{"NoteNumber":67,"Velocity":45,"Duration":593406,"SoundDuration":593406,"Delta":71318801},{"NoteNumber":70,"Velocity":56,"Duration":593406,"SoundDuration":593406,"Delta":71318801},{"NoteNumber":58,"Velocity":48,"Duration":593406,"SoundDuration":593406,"Delta":71318801},{"NoteNumber":64,"Velocity":51,"Duration":638298,"SoundDuration":638298,"Delta":71978141},{"NoteNumber":58,"Velocity":44,"Duration":638298,"SoundDuration":638298,"Delta":71978141},{"NoteNumber":61,"Velocity":44,"Duration":638298,"SoundDuration":638298,"Delta":71978141},{"NoteNumber":65,"Velocity":55,"Duration":638297,"SoundDuration":638297,"Delta":72616439},{"NoteNumber":60,"Velocity":48,"Duration":638297,"SoundDuration":638297,"Delta":72616439},{"NoteNumber":57,"Velocity":48,"Duration":638297,"SoundDuration":638297,"Delta":72616439},{"NoteNumber":64,"Velocity":53,"Duration":478723,"SoundDuration":478723,"Delta":73254737},{"NoteNumber":67,"Velocity":53,"Duration":478723,"SoundDuration":478723,"Delta":73254737},{"NoteNumber":55,"Velocity":45,"Duration":638298,"SoundDuration":638298,"Delta":73254737},{"NoteNumber":60,"Velocity":45,"Duration":638298,"SoundDuration":638298,"Delta":73254737},{"NoteNumber":58,"Velocity":45,"Duration":638298,"SoundDuration":638298,"Delta":73254737},{"NoteNumber":65,"Velocity":55,"Duration":3205365,"SoundDuration":3205365,"Delta":73893035},{"NoteNumber":69,"Velocity":61,"Duration":638297,"SoundDuration":638297,"Delta":73893035},{"NoteNumber":57,"Velocity":48,"Duration":638297,"SoundDuration":638297,"Delta":73893035},{"NoteNumber":60,"Velocity":48,"Duration":638297,"SoundDuration":638297,"Delta":73893035},{"NoteNumber":53,"Velocity":48,"Duration":638297,"SoundDuration":638297,"Delta":73893035},{"NoteNumber":70,"Velocity":68,"Duration":638298,"SoundDuration":638298,"Delta":74531333},{"NoteNumber":50,"Velocity":50,"Duration":638298,"SoundDuration":638298,"Delta":74531333},{"NoteNumber":72,"Velocity":67,"Duration":638297,"SoundDuration":638297,"Delta":75169631},{"NoteNumber":45,"Velocity":54,"Duration":1276595,"SoundDuration":1276595,"Delta":75169631},{"NoteNumber":73,"Velocity":70,"Duration":638298,"SoundDuration":638298,"Delta":75807929},{"NoteNumber":76,"Velocity":72,"Duration":353260,"SoundDuration":353260,"Delta":76446227},{"NoteNumber":46,"Velocity":49,"Duration":652174,"SoundDuration":652174,"Delta":76446227},{"NoteNumber":74,"Velocity":58,"Duration":353260,"SoundDuration":353260,"Delta":76772314},{"NoteNumber":72,"Velocity":65,"Duration":355679,"SoundDuration":355679,"Delta":77098401},{"NoteNumber":43,"Velocity":46,"Duration":326087,"SoundDuration":326087,"Delta":77098401},{"NoteNumber":67,"Velocity":55,"Duration":382891,"SoundDuration":382891,"Delta":77424488},{"NoteNumber":70,"Velocity":55,"Duration":382891,"SoundDuration":382891,"Delta":77424488},{"NoteNumber":65,"Velocity":46,"Duration":1333332,"SoundDuration":1333332,"Delta":77779602},{"NoteNumber":69,"Velocity":57,"Duration":1333332,"SoundDuration":1333332,"Delta":77779602},{"NoteNumber":48,"Velocity":43,"Duration":2652173,"SoundDuration":2652173,"Delta":77779602},{"NoteNumber":64,"Velocity":40,"Duration":666666,"SoundDuration":666666,"Delta":79112935},{"NoteNumber":67,"Velocity":51,"Duration":666666,"SoundDuration":666666,"Delta":79112935},{"NoteNumber":72,"Velocity":65,"Duration":652174,"SoundDuration":652174,"Delta":79779602},{"NoteNumber":72,"Velocity":66,"Duration":652174,"SoundDuration":652174,"Delta":80431776},{"NoteNumber":72,"Velocity":72,"Duration":689655,"SoundDuration":689655,"Delta":81083950},{"NoteNumber":72,"Velocity":81,"Duration":6642801,"SoundDuration":6642801,"Delta":81773605},{"NoteNumber":82,"Velocity":81,"Duration":1956522,"SoundDuration":1956522,"Delta":81773605},{"NoteNumber":36,"Velocity":53,"Duration":978261,"SoundDuration":978261,"Delta":81773605},{"NoteNumber":48,"Velocity":64,"Duration":978261,"SoundDuration":978261,"Delta":81773605},{"NoteNumber":38,"Velocity":51,"Duration":326087,"SoundDuration":326087,"Delta":82751866},{"NoteNumber":50,"Velocity":60,"Duration":326087,"SoundDuration":326087,"Delta":82751866},{"NoteNumber":52,"Velocity":64,"Duration":489130,"SoundDuration":489130,"Delta":83077953},{"NoteNumber":40,"Velocity":53,"Duration":489130,"SoundDuration":489130,"Delta":83077953},{"NoteNumber":81,"Velocity":69,"Duration":638298,"SoundDuration":638298,"Delta":83730127},{"NoteNumber":41,"Velocity":40,"Duration":478723,"SoundDuration":478723,"Delta":83730127},{"NoteNumber":53,"Velocity":48,"Duration":478723,"SoundDuration":478723,"Delta":83730127},{"NoteNumber":79,"Velocity":70,"Duration":638297,"SoundDuration":638297,"Delta":84368425},{"NoteNumber":70,"Velocity":58,"Duration":638297,"SoundDuration":638297,"Delta":84368425},{"NoteNumber":55,"Velocity":53,"Duration":478723,"SoundDuration":478723,"Delta":84368425},{"NoteNumber":43,"Velocity":45,"Duration":478723,"SoundDuration":478723,"Delta":84368425},{"NoteNumber":69,"Velocity":56,"Duration":666666,"SoundDuration":666666,"Delta":85006723},{"NoteNumber":77,"Velocity":66,"Duration":666666,"SoundDuration":666666,"Delta":85006723},{"NoteNumber":45,"Velocity":42,"Duration":499999,"SoundDuration":499999,"Delta":85006723},{"NoteNumber":57,"Velocity":50,"Duration":499999,"SoundDuration":499999,"Delta":85006723},{"NoteNumber":77,"Velocity":66,"Duration":1378675,"SoundDuration":1378675,"Delta":85673389},{"NoteNumber":67,"Velocity":55,"Duration":2743017,"SoundDuration":2743017,"Delta":85673389},{"NoteNumber":46,"Velocity":45,"Duration":2743017,"SoundDuration":2743017,"Delta":85673389},{"NoteNumber":58,"Velocity":53,"Duration":2743017,"SoundDuration":2743017,"Delta":85673389},{"NoteNumber":76,"Velocity":56,"Duration":697674,"SoundDuration":697674,"Delta":87052065},{"NoteNumber":75,"Velocity":51,"Duration":666666,"SoundDuration":666666,"Delta":87749740},{"NoteNumber":75,"Velocity":48,"Duration":666666,"SoundDuration":666666,"Delta":88416406},{"NoteNumber":75,"Velocity":47,"Duration":660615,"SoundDuration":660615,"Delta":89083073},{"NoteNumber":75,"Velocity":39,"Duration":73626,"SoundDuration":73626,"Delta":89743689},{"NoteNumber":65,"Velocity":43,"Duration":1230360,"SoundDuration":1230360,"Delta":89743689},{"NoteNumber":57,"Velocity":37,"Duration":1230360,"SoundDuration":1230360,"Delta":89743689},{"NoteNumber":60,"Velocity":37,"Duration":1230360,"SoundDuration":1230360,"Delta":89743689},{"NoteNumber":77,"Velocity":40,"Duration":72863,"SoundDuration":72863,"Delta":89817315},{"NoteNumber":75,"Velocity":42,"Duration":71978,"SoundDuration":71978,"Delta":89890178},{"NoteNumber":77,"Velocity":42,"Duration":71248,"SoundDuration":71248,"Delta":89962156},{"NoteNumber":75,"Velocity":42,"Duration":70534,"SoundDuration":70534,"Delta":90033405},{"NoteNumber":77,"Velocity":42,"Duration":71436,"SoundDuration":71436,"Delta":90103939},{"NoteNumber":75,"Velocity":39,"Duration":73980,"SoundDuration":73980,"Delta":90175376},{"NoteNumber":77,"Velocity":38,"Duration":68384,"SoundDuration":68384,"Delta":90249356},{"NoteNumber":75,"Velocity":46,"Duration":315398,"SoundDuration":315398,"Delta":90317741},{"NoteNumber":77,"Velocity":50,"Duration":340908,"SoundDuration":340908,"Delta":90633140},{"NoteNumber":79,"Velocity":55,"Duration":681818,"SoundDuration":681818,"Delta":90974049},{"NoteNumber":65,"Velocity":43,"Duration":1363635,"SoundDuration":1363635,"Delta":90974049},{"NoteNumber":57,"Velocity":37,"Duration":1363635,"SoundDuration":1363635,"Delta":90974049},{"NoteNumber":60,"Velocity":37,"Duration":1363635,"SoundDuration":1363635,"Delta":90974049},{"NoteNumber":77,"Velocity":54,"Duration":340908,"SoundDuration":340908,"Delta":91655867},{"NoteNumber":75,"Velocity":51,"Duration":340908,"SoundDuration":340908,"Delta":91996776},{"NoteNumber":75,"Velocity":53,"Duration":340908,"SoundDuration":340908,"Delta":92337685},{"NoteNumber":65,"Velocity":37,"Duration":1414986,"SoundDuration":1414986,"Delta":92337685},{"NoteNumber":57,"Velocity":33,"Duration":1414986,"SoundDuration":1414986,"Delta":92337685},{"NoteNumber":63,"Velocity":33,"Duration":1414986,"SoundDuration":1414986,"Delta":92337685},{"NoteNumber":74,"Velocity":49,"Duration":323863,"SoundDuration":323863,"Delta":92678594},{"NoteNumber":74,"Velocity":52,"Duration":340908,"SoundDuration":340908,"Delta":93019503},{"NoteNumber":73,"Velocity":50,"Duration":366108,"SoundDuration":366108,"Delta":93360412},{"NoteNumber":73,"Velocity":55,"Duration":1356239,"SoundDuration":1356239,"Delta":93752672},{"NoteNumber":62,"Velocity":22,"Duration":2668067,"SoundDuration":2668067,"Delta":93752672},{"NoteNumber":58,"Velocity":22,"Duration":2668067,"SoundDuration":2668067,"Delta":93752672},{"NoteNumber":65,"Velocity":28,"Duration":2668067,"SoundDuration":2668067,"Delta":93752672},{"NoteNumber":74,"Velocity":50,"Duration":666666,"SoundDuration":666666,"Delta":95108911},{"NoteNumber":77,"Velocity":54,"Duration":322580,"SoundDuration":322580,"Delta":95775577},{"NoteNumber":76,"Velocity":51,"Duration":322580,"SoundDuration":322580,"Delta":96098158},{"NoteNumber":79,"Velocity":59,"Duration":322580,"SoundDuration":322580,"Delta":96420739},{"NoteNumber":77,"Velocity":53,"Duration":322580,"SoundDuration":322580,"Delta":96743319},{"NoteNumber":76,"Velocity":54,"Duration":357142,"SoundDuration":357142,"Delta":97065900},{"NoteNumber":74,"Velocity":49,"Duration":354430,"SoundDuration":354430,"Delta":97423043},{"NoteNumber":74,"Velocity":49,"Duration":1348314,"SoundDuration":1348314,"Delta":97802790},{"NoteNumber":58,"Velocity":28,"Duration":1348314,"SoundDuration":1348314,"Delta":97802790},{"NoteNumber":53,"Velocity":28,"Duration":2635291,"SoundDuration":2635291,"Delta":97802790},{"NoteNumber":62,"Velocity":35,"Duration":1348314,"SoundDuration":1348314,"Delta":97802790},{"NoteNumber":72,"Velocity":48,"Duration":674157,"SoundDuration":674157,"Delta":99151105},{"NoteNumber":57,"Velocity":26,"Duration":1286976,"SoundDuration":1286976,"Delta":99151105},{"NoteNumber":60,"Velocity":33,"Duration":1286976,"SoundDuration":1286976,"Delta":99151105},{"NoteNumber":77,"Velocity":57,"Duration":454924,"SoundDuration":454924,"Delta":99825262},{"NoteNumber":72,"Velocity":51,"Duration":157894,"SoundDuration":157894,"Delta":100280187},{"NoteNumber":81,"Velocity":65,"Duration":454924,"SoundDuration":454924,"Delta":100438081},{"NoteNumber":77,"Velocity":58,"Duration":157894,"SoundDuration":157894,"Delta":100893006},{"NoteNumber":72,"Velocity":66,"Duration":473684,"SoundDuration":473684,"Delta":101050901},{"NoteNumber":69,"Velocity":57,"Duration":157894,"SoundDuration":157894,"Delta":101524585},{"NoteNumber":72,"Velocity":69,"Duration":927834,"SoundDuration":927834,"Delta":101682480},{"NoteNumber":52,"Velocity":43,"Duration":1855669,"SoundDuration":1855669,"Delta":101682480},{"NoteNumber":60,"Velocity":43,"Duration":1855669,"SoundDuration":1855669,"Delta":101682480},{"NoteNumber":55,"Velocity":43,"Duration":1855669,"SoundDuration":1855669,"Delta":101682480},{"NoteNumber":71,"Velocity":55,"Duration":309278,"SoundDuration":309278,"Delta":102610314},{"NoteNumber":70,"Velocity":55,"Duration":618556,"SoundDuration":618556,"Delta":102919593},{"NoteNumber":67,"Velocity":75,"Duration":615789,"SoundDuration":615789,"Delta":103538149},{"NoteNumber":64,"Velocity":67,"Duration":457894,"SoundDuration":457894,"Delta":103538149},{"NoteNumber":58,"Velocity":48,"Duration":615789,"SoundDuration":615789,"Delta":103538149},{"NoteNumber":46,"Velocity":42,"Duration":615789,"SoundDuration":615789,"Delta":103538149},{"NoteNumber":60,"Velocity":64,"Duration":157894,"SoundDuration":157894,"Delta":103996044},{"NoteNumber":65,"Velocity":69,"Duration":452012,"SoundDuration":452012,"Delta":104153939},{"NoteNumber":69,"Velocity":76,"Duration":609907,"SoundDuration":609907,"Delta":104153939},{"NoteNumber":57,"Velocity":50,"Duration":609907,"SoundDuration":609907,"Delta":104153939},{"NoteNumber":45,"Velocity":44,"Duration":609907,"SoundDuration":609907,"Delta":104153939},{"NoteNumber":60,"Velocity":65,"Duration":157894,"SoundDuration":157894,"Delta":104605951},{"NoteNumber":70,"Velocity":78,"Duration":603396,"SoundDuration":603396,"Delta":104763846},{"NoteNumber":67,"Velocity":70,"Duration":448756,"SoundDuration":448756,"Delta":104763846},{"NoteNumber":55,"Velocity":50,"Duration":603396,"SoundDuration":603396,"Delta":104763846},{"NoteNumber":43,"Velocity":44,"Duration":603396,"SoundDuration":603396,"Delta":104763846},{"NoteNumber":60,"Velocity":69,"Duration":154639,"SoundDuration":154639,"Delta":105212603},{"NoteNumber":69,"Velocity":70,"Duration":690020,"SoundDuration":690020,"Delta":105367242},{"NoteNumber":72,"Velocity":80,"Duration":352941,"SoundDuration":352941,"Delta":105367242},{"NoteNumber":53,"Velocity":54,"Duration":690020,"SoundDuration":690020,"Delta":105367242},{"NoteNumber":41,"Velocity":49,"Duration":690020,"SoundDuration":690020,"Delta":105367242},{"NoteNumber":74,"Velocity":53,"Duration":337078,"SoundDuration":337078,"Delta":105720183},{"NoteNumber":76,"Velocity":54,"Duration":337078,"SoundDuration":337078,"Delta":106057262},{"NoteNumber":77,"Velocity":47,"Duration":337078,"SoundDuration":337078,"Delta":106394341},{"NoteNumber":60,"Velocity":38,"Duration":1978021,"SoundDuration":1978021,"Delta":106731419},{"NoteNumber":65,"Velocity":49,"Duration":1978021,"SoundDuration":1978021,"Delta":106731419},{"NoteNumber":48,"Velocity":33,"Duration":2692147,"SoundDuration":2692147,"Delta":106731419},{"NoteNumber":57,"Velocity":38,"Duration":1318680,"SoundDuration":1318680,"Delta":106731419},{"NoteNumber":58,"Velocity":32,"Duration":1373466,"SoundDuration":1373466,"Delta":108050100},{"NoteNumber":64,"Velocity":37,"Duration":714126,"SoundDuration":714126,"Delta":108709441},{"NoteNumber":69,"Velocity":47,"Duration":350401,"SoundDuration":350401,"Delta":108709441},{"NoteNumber":67,"Velocity":44,"Duration":363724,"SoundDuration":363724,"Delta":109059843},{"NoteNumber":65,"Velocity":47,"Duration":1326260,"SoundDuration":1326260,"Delta":109423567},{"NoteNumber":53,"Velocity":28,"Duration":1326260,"SoundDuration":1326260,"Delta":109423567},{"NoteNumber":57,"Velocity":34,"Duration":1326260,"SoundDuration":1326260,"Delta":109423567},{"NoteNumber":41,"Velocity":28,"Duration":663129,"SoundDuration":663129,"Delta":110749827},{"NoteNumber":72,"Velocity":50,"Duration":645161,"SoundDuration":645161,"Delta":111412957},{"NoteNumber":74,"Velocity":54,"Duration":349462,"SoundDuration":349462,"Delta":112058119},{"NoteNumber":72,"Velocity":50,"Duration":349462,"SoundDuration":349462,"Delta":112380699},{"NoteNumber":70,"Velocity":55,"Duration":352173,"SoundDuration":352173,"Delta":112703280},{"NoteNumber":69,"Velocity":49,"Duration":382891,"SoundDuration":382891,"Delta":113025861},{"NoteNumber":67,"Velocity":61,"Duration":1333332,"SoundDuration":1333332,"Delta":113380975},{"NoteNumber":63,"Velocity":46,"Duration":1971631,"SoundDuration":1971631,"Delta":113380975},{"NoteNumber":60,"Velocity":46,"Duration":1971631,"SoundDuration":1971631,"Delta":113380975},{"NoteNumber":66,"Velocity":51,"Duration":625000,"SoundDuration":625000,"Delta":114714308},{"NoteNumber":66,"Velocity":63,"Duration":631579,"SoundDuration":631579,"Delta":115352606},{"NoteNumber":63,"Velocity":46,"Duration":631579,"SoundDuration":631579,"Delta":115352606},{"NoteNumber":60,"Velocity":46,"Duration":631579,"SoundDuration":631579,"Delta":115352606},{"NoteNumber":67,"Velocity":65,"Duration":631579,"SoundDuration":631579,"Delta":115984185},{"NoteNumber":62,"Velocity":47,"Duration":631579,"SoundDuration":631579,"Delta":115984185},{"NoteNumber":58,"Velocity":47,"Duration":631579,"SoundDuration":631579,"Delta":115984185},{"NoteNumber":66,"Velocity":52,"Duration":517241,"SoundDuration":517241,"Delta":116615764},{"NoteNumber":69,"Velocity":66,"Duration":517241,"SoundDuration":517241,"Delta":116615764},{"NoteNumber":57,"Velocity":47,"Duration":689655,"SoundDuration":689655,"Delta":116615764},{"NoteNumber":60,"Velocity":47,"Duration":689655,"SoundDuration":689655,"Delta":116615764},{"NoteNumber":62,"Velocity":47,"Duration":689655,"SoundDuration":689655,"Delta":116615764},{"NoteNumber":66,"Velocity":51,"Duration":1318680,"SoundDuration":1318680,"Delta":117305419},{"NoteNumber":69,"Velocity":65,"Duration":1318680,"SoundDuration":1318680,"Delta":117305419},{"NoteNumber":60,"Velocity":50,"Duration":1318680,"SoundDuration":1318680,"Delta":117305419},{"NoteNumber":62,"Velocity":50,"Duration":1978021,"SoundDuration":1978021,"Delta":117305419},{"NoteNumber":55,"Velocity":50,"Duration":1978021,"SoundDuration":1978021,"Delta":117305419},{"NoteNumber":67,"Velocity":45,"Duration":593406,"SoundDuration":593406,"Delta":118624100},{"NoteNumber":70,"Velocity":56,"Duration":593406,"SoundDuration":593406,"Delta":118624100},{"NoteNumber":58,"Velocity":48,"Duration":593406,"SoundDuration":593406,"Delta":118624100},{"NoteNumber":64,"Velocity":51,"Duration":638298,"SoundDuration":638298,"Delta":119283440},{"NoteNumber":61,"Velocity":44,"Duration":638298,"SoundDuration":638298,"Delta":119283440},{"NoteNumber":58,"Velocity":44,"Duration":638298,"SoundDuration":638298,"Delta":119283440},{"NoteNumber":65,"Velocity":55,"Duration":638297,"SoundDuration":638297,"Delta":119921738},{"NoteNumber":60,"Velocity":48,"Duration":638297,"SoundDuration":638297,"Delta":119921738},{"NoteNumber":57,"Velocity":48,"Duration":638297,"SoundDuration":638297,"Delta":119921738},{"NoteNumber":64,"Velocity":53,"Duration":478723,"SoundDuration":478723,"Delta":120560036},{"NoteNumber":67,"Velocity":53,"Duration":478723,"SoundDuration":478723,"Delta":120560036},{"NoteNumber":55,"Velocity":45,"Duration":638298,"SoundDuration":638298,"Delta":120560036},{"NoteNumber":58,"Velocity":45,"Duration":638298,"SoundDuration":638298,"Delta":120560036},{"NoteNumber":60,"Velocity":45,"Duration":638298,"SoundDuration":638298,"Delta":120560036},{"NoteNumber":65,"Velocity":55,"Duration":3205365,"SoundDuration":3205365,"Delta":121198334},{"NoteNumber":69,"Velocity":61,"Duration":638297,"SoundDuration":638297,"Delta":121198334},{"NoteNumber":53,"Velocity":48,"Duration":638297,"SoundDuration":638297,"Delta":121198334},{"NoteNumber":57,"Velocity":48,"Duration":638297,"SoundDuration":638297,"Delta":121198334},{"NoteNumber":60,"Velocity":48,"Duration":638297,"SoundDuration":638297,"Delta":121198334},{"NoteNumber":70,"Velocity":68,"Duration":638298,"SoundDuration":638298,"Delta":121836632},{"NoteNumber":50,"Velocity":50,"Duration":638298,"SoundDuration":638298,"Delta":121836632},{"NoteNumber":72,"Velocity":70,"Duration":638297,"SoundDuration":638297,"Delta":122474930},{"NoteNumber":45,"Velocity":54,"Duration":1276595,"SoundDuration":1276595,"Delta":122474930},{"NoteNumber":73,"Velocity":70,"Duration":638298,"SoundDuration":638298,"Delta":123113228},{"NoteNumber":76,"Velocity":70,"Duration":353260,"SoundDuration":353260,"Delta":123751526},{"NoteNumber":46,"Velocity":53,"Duration":652174,"SoundDuration":652174,"Delta":123751526},{"NoteNumber":74,"Velocity":58,"Duration":353260,"SoundDuration":353260,"Delta":124077613},{"NoteNumber":72,"Velocity":65,"Duration":353260,"SoundDuration":353260,"Delta":124403700},{"NoteNumber":43,"Velocity":46,"Duration":326087,"SoundDuration":326087,"Delta":124403700},{"NoteNumber":67,"Velocity":55,"Duration":353864,"SoundDuration":353864,"Delta":124729787},{"NoteNumber":70,"Velocity":55,"Duration":353864,"SoundDuration":353864,"Delta":124729787},{"NoteNumber":65,"Velocity":46,"Duration":1333333,"SoundDuration":1333333,"Delta":125055874},{"NoteNumber":69,"Velocity":57,"Duration":1333333,"SoundDuration":1333333,"Delta":125055874},{"NoteNumber":48,"Velocity":43,"Duration":2652173,"SoundDuration":2652173,"Delta":125055874},{"NoteNumber":64,"Velocity":40,"Duration":666666,"SoundDuration":666666,"Delta":126389207},{"NoteNumber":67,"Velocity":51,"Duration":666666,"SoundDuration":666666,"Delta":126389207},{"NoteNumber":72,"Velocity":65,"Duration":652174,"SoundDuration":652174,"Delta":127055874},{"NoteNumber":72,"Velocity":66,"Duration":652174,"SoundDuration":652174,"Delta":127708048},{"NoteNumber":72,"Velocity":72,"Duration":689654,"SoundDuration":689654,"Delta":128360222},{"NoteNumber":72,"Velocity":81,"Duration":6642801,"SoundDuration":6642801,"Delta":129049877},{"NoteNumber":82,"Velocity":81,"Duration":1956522,"SoundDuration":1956522,"Delta":129049877},{"NoteNumber":36,"Velocity":53,"Duration":978261,"SoundDuration":978261,"Delta":129049877},{"NoteNumber":48,"Velocity":64,"Duration":978261,"SoundDuration":978261,"Delta":129049877},{"NoteNumber":38,"Velocity":51,"Duration":326087,"SoundDuration":326087,"Delta":130028138},{"NoteNumber":50,"Velocity":60,"Duration":326087,"SoundDuration":326087,"Delta":130028138},{"NoteNumber":40,"Velocity":53,"Duration":489130,"SoundDuration":489130,"Delta":130354225},{"NoteNumber":52,"Velocity":64,"Duration":489130,"SoundDuration":489130,"Delta":130354225},{"NoteNumber":81,"Velocity":69,"Duration":638297,"SoundDuration":638297,"Delta":131006399},{"NoteNumber":41,"Velocity":40,"Duration":478723,"SoundDuration":478723,"Delta":131006399},{"NoteNumber":53,"Velocity":48,"Duration":478723,"SoundDuration":478723,"Delta":131006399},{"NoteNumber":70,"Velocity":58,"Duration":638298,"SoundDuration":638298,"Delta":131644697},{"NoteNumber":79,"Velocity":70,"Duration":638298,"SoundDuration":638298,"Delta":131644697},{"NoteNumber":43,"Velocity":45,"Duration":478723,"SoundDuration":478723,"Delta":131644697},{"NoteNumber":55,"Velocity":53,"Duration":478723,"SoundDuration":478723,"Delta":131644697},{"NoteNumber":69,"Velocity":56,"Duration":666666,"SoundDuration":666666,"Delta":132282995},{"NoteNumber":77,"Velocity":66,"Duration":666666,"SoundDuration":666666,"Delta":132282995},{"NoteNumber":45,"Velocity":42,"Duration":499999,"SoundDuration":499999,"Delta":132282995},{"NoteNumber":57,"Velocity":50,"Duration":499999,"SoundDuration":499999,"Delta":132282995},{"NoteNumber":67,"Velocity":60,"Duration":2743017,"SoundDuration":2743017,"Delta":132949661},{"NoteNumber":77,"Velocity":60,"Duration":1378676,"SoundDuration":1378676,"Delta":132949661},{"NoteNumber":46,"Velocity":45,"Duration":2743017,"SoundDuration":2743017,"Delta":132949661},{"NoteNumber":58,"Velocity":53,"Duration":2743017,"SoundDuration":2743017,"Delta":132949661},{"NoteNumber":76,"Velocity":56,"Duration":697674,"SoundDuration":697674,"Delta":134328337},{"NoteNumber":75,"Velocity":51,"Duration":666666,"SoundDuration":666666,"Delta":135026012},{"NoteNumber":75,"Velocity":50,"Duration":666666,"SoundDuration":666666,"Delta":135692678},{"NoteNumber":75,"Velocity":46,"Duration":658195,"SoundDuration":658195,"Delta":136359345},{"NoteNumber":75,"Velocity":40,"Duration":73481,"SoundDuration":73481,"Delta":137017540},{"NoteNumber":65,"Velocity":43,"Duration":1236598,"SoundDuration":1236598,"Delta":137017540},{"NoteNumber":60,"Velocity":37,"Duration":1236598,"SoundDuration":1236598,"Delta":137017540},{"NoteNumber":57,"Velocity":37,"Duration":1236598,"SoundDuration":1236598,"Delta":137017540},{"NoteNumber":77,"Velocity":42,"Duration":72348,"SoundDuration":72348,"Delta":137091022},{"NoteNumber":75,"Velocity":43,"Duration":71387,"SoundDuration":71387,"Delta":137163371},{"NoteNumber":77,"Velocity":45,"Duration":70490,"SoundDuration":70490,"Delta":137234758},{"NoteNumber":75,"Velocity":45,"Duration":69877,"SoundDuration":69877,"Delta":137305248},{"NoteNumber":77,"Velocity":45,"Duration":71848,"SoundDuration":71848,"Delta":137375126},{"NoteNumber":75,"Velocity":43,"Duration":74120,"SoundDuration":74120,"Delta":137446975},{"NoteNumber":77,"Velocity":42,"Duration":72058,"SoundDuration":72058,"Delta":137521095},{"NoteNumber":75,"Velocity":47,"Duration":320075,"SoundDuration":320075,"Delta":137593154},{"NoteNumber":77,"Velocity":47,"Duration":340909,"SoundDuration":340909,"Delta":137913229},{"NoteNumber":79,"Velocity":54,"Duration":681817,"SoundDuration":681817,"Delta":138254138},{"NoteNumber":65,"Velocity":43,"Duration":1363636,"SoundDuration":1363636,"Delta":138254138},{"NoteNumber":57,"Velocity":37,"Duration":1363636,"SoundDuration":1363636,"Delta":138254138},{"NoteNumber":60,"Velocity":37,"Duration":1363636,"SoundDuration":1363636,"Delta":138254138},{"NoteNumber":77,"Velocity":54,"Duration":340909,"SoundDuration":340909,"Delta":138935956},{"NoteNumber":75,"Velocity":51,"Duration":326704,"SoundDuration":326704,"Delta":139276865},{"NoteNumber":75,"Velocity":54,"Duration":340908,"SoundDuration":340908,"Delta":139617774},{"NoteNumber":65,"Velocity":37,"Duration":1436634,"SoundDuration":1436634,"Delta":139617774},{"NoteNumber":57,"Velocity":33,"Duration":1436634,"SoundDuration":1436634,"Delta":139617774},{"NoteNumber":63,"Velocity":33,"Duration":1436634,"SoundDuration":1436634,"Delta":139617774},{"NoteNumber":74,"Velocity":49,"Duration":329545,"SoundDuration":329545,"Delta":139958683},{"NoteNumber":74,"Velocity":53,"Duration":340908,"SoundDuration":340908,"Delta":140299592},{"NoteNumber":73,"Velocity":49,"Duration":396661,"SoundDuration":396661,"Delta":140640501},{"NoteNumber":73,"Velocity":55,"Duration":1387604,"SoundDuration":1387604,"Delta":141054409},{"NoteNumber":62,"Velocity":22,"Duration":2699432,"SoundDuration":2699432,"Delta":141054409},{"NoteNumber":58,"Velocity":22,"Duration":2699432,"SoundDuration":2699432,"Delta":141054409},{"NoteNumber":65,"Velocity":28,"Duration":2699432,"SoundDuration":2699432,"Delta":141054409},{"NoteNumber":74,"Velocity":50,"Duration":666666,"SoundDuration":666666,"Delta":142442013},{"NoteNumber":77,"Velocity":56,"Duration":322580,"SoundDuration":322580,"Delta":143108679},{"NoteNumber":76,"Velocity":53,"Duration":322580,"SoundDuration":322580,"Delta":143431260},{"NoteNumber":79,"Velocity":59,"Duration":322580,"SoundDuration":322580,"Delta":143753841},{"NoteNumber":77,"Velocity":53,"Duration":322580,"SoundDuration":322580,"Delta":144076421},{"NoteNumber":76,"Velocity":54,"Duration":357142,"SoundDuration":357142,"Delta":144399002},{"NoteNumber":74,"Velocity":50,"Duration":357231,"SoundDuration":357231,"Delta":144756145},{"NoteNumber":74,"Velocity":49,"Duration":1348315,"SoundDuration":1348315,"Delta":145128908},{"NoteNumber":58,"Velocity":28,"Duration":1348315,"SoundDuration":1348315,"Delta":145128908},{"NoteNumber":53,"Velocity":28,"Duration":2638261,"SoundDuration":2638261,"Delta":145128908},{"NoteNumber":62,"Velocity":35,"Duration":1348315,"SoundDuration":1348315,"Delta":145128908},{"NoteNumber":72,"Velocity":48,"Duration":674157,"SoundDuration":674157,"Delta":146477223},{"NoteNumber":57,"Velocity":26,"Duration":1289946,"SoundDuration":1289946,"Delta":146477223},{"NoteNumber":60,"Velocity":33,"Duration":1289946,"SoundDuration":1289946,"Delta":146477223},{"NoteNumber":77,"Velocity":57,"Duration":457894,"SoundDuration":457894,"Delta":147151381},{"NoteNumber":72,"Velocity":51,"Duration":157894,"SoundDuration":157894,"Delta":147609276},{"NoteNumber":81,"Velocity":65,"Duration":460925,"SoundDuration":460925,"Delta":147767170},{"NoteNumber":77,"Velocity":58,"Duration":157894,"SoundDuration":157894,"Delta":148228095},{"NoteNumber":72,"Velocity":66,"Duration":473684,"SoundDuration":473684,"Delta":148385990},{"NoteNumber":69,"Velocity":57,"Duration":157894,"SoundDuration":157894,"Delta":148859674},{"NoteNumber":72,"Velocity":69,"Duration":927834,"SoundDuration":927834,"Delta":149017569},{"NoteNumber":55,"Velocity":43,"Duration":1855669,"SoundDuration":1855669,"Delta":149017569},{"NoteNumber":60,"Velocity":43,"Duration":1855669,"SoundDuration":1855669,"Delta":149017569},{"NoteNumber":52,"Velocity":43,"Duration":1855669,"SoundDuration":1855669,"Delta":149017569},{"NoteNumber":71,"Velocity":65,"Duration":309278,"SoundDuration":309278,"Delta":149945404},{"NoteNumber":70,"Velocity":65,"Duration":618556,"SoundDuration":618556,"Delta":150254682},{"NoteNumber":64,"Velocity":67,"Duration":453279,"SoundDuration":453279,"Delta":150873239},{"NoteNumber":67,"Velocity":75,"Duration":609529,"SoundDuration":609529,"Delta":150873239},{"NoteNumber":46,"Velocity":42,"Duration":609529,"SoundDuration":609529,"Delta":150873239},{"NoteNumber":58,"Velocity":48,"Duration":609529,"SoundDuration":609529,"Delta":150873239},{"NoteNumber":60,"Velocity":64,"Duration":156250,"SoundDuration":156250,"Delta":151326518},{"NoteNumber":65,"Velocity":69,"Duration":453279,"SoundDuration":453279,"Delta":151482768},{"NoteNumber":69,"Velocity":76,"Duration":609529,"SoundDuration":609529,"Delta":151482768},{"NoteNumber":57,"Velocity":50,"Duration":609529,"SoundDuration":609529,"Delta":151482768},{"NoteNumber":45,"Velocity":44,"Duration":609529,"SoundDuration":609529,"Delta":151482768},{"NoteNumber":60,"Velocity":65,"Duration":156250,"SoundDuration":156250,"Delta":151936048},{"NoteNumber":67,"Velocity":71,"Duration":456250,"SoundDuration":456250,"Delta":152092298},{"NoteNumber":70,"Velocity":78,"Duration":612500,"SoundDuration":612500,"Delta":152092298},{"NoteNumber":55,"Velocity":50,"Duration":612500,"SoundDuration":612500,"Delta":152092298},{"NoteNumber":43,"Velocity":44,"Duration":612500,"SoundDuration":612500,"Delta":152092298},{"NoteNumber":60,"Velocity":69,"Duration":156250,"SoundDuration":156250,"Delta":152548548},{"NoteNumber":72,"Velocity":80,"Duration":352941,"SoundDuration":352941,"Delta":152704798},{"NoteNumber":69,"Velocity":71,"Duration":690019,"SoundDuration":690019,"Delta":152704798},{"NoteNumber":41,"Velocity":49,"Duration":690019,"SoundDuration":690019,"Delta":152704798},{"NoteNumber":53,"Velocity":54,"Duration":690019,"SoundDuration":690019,"Delta":152704798},{"NoteNumber":74,"Velocity":51,"Duration":337078,"SoundDuration":337078,"Delta":153057739},{"NoteNumber":76,"Velocity":54,"Duration":337078,"SoundDuration":337078,"Delta":153394818},{"NoteNumber":77,"Velocity":47,"Duration":337078,"SoundDuration":337078,"Delta":153731897},{"NoteNumber":60,"Velocity":38,"Duration":1978021,"SoundDuration":1978021,"Delta":154068976},{"NoteNumber":65,"Velocity":49,"Duration":1978021,"SoundDuration":1978021,"Delta":154068976},{"NoteNumber":57,"Velocity":37,"Duration":1318680,"SoundDuration":1318680,"Delta":154068976},{"NoteNumber":48,"Velocity":29,"Duration":2652179,"SoundDuration":2652179,"Delta":154068976},{"NoteNumber":58,"Velocity":28,"Duration":1333498,"SoundDuration":1333498,"Delta":155387657},{"NoteNumber":69,"Velocity":47,"Duration":337078,"SoundDuration":337078,"Delta":156046997},{"NoteNumber":64,"Velocity":37,"Duration":674157,"SoundDuration":674157,"Delta":156046997},{"NoteNumber":67,"Velocity":44,"Duration":337078,"SoundDuration":337078,"Delta":156384076},{"NoteNumber":65,"Velocity":47,"Duration":1348314,"SoundDuration":1348314,"Delta":156721155},{"NoteNumber":53,"Velocity":32,"Duration":1348314,"SoundDuration":1348314,"Delta":156721155},{"NoteNumber":57,"Velocity":32,"Duration":1348314,"SoundDuration":1348314,"Delta":156721155},{"NoteNumber":41,"Velocity":26,"Duration":674157,"SoundDuration":674157,"Delta":158069470},{"NoteNumber":68,"Velocity":37,"Duration":640449,"SoundDuration":640449,"Delta":158743627},{"NoteNumber":60,"Velocity":37,"Duration":640449,"SoundDuration":640449,"Delta":158743627},{"NoteNumber":68,"Velocity":37,"Duration":640449,"SoundDuration":640449,"Delta":159417785},{"NoteNumber":60,"Velocity":37,"Duration":640449,"SoundDuration":640449,"Delta":159417785},{"NoteNumber":60,"Velocity":37,"Duration":677753,"SoundDuration":677753,"Delta":160091942},{"NoteNumber":68,"Velocity":37,"Duration":677753,"SoundDuration":677753,"Delta":160091942},{"NoteNumber":68,"Velocity":40,"Duration":1938246,"SoundDuration":1938246,"Delta":160806068},{"NoteNumber":60,"Velocity":40,"Duration":1938246,"SoundDuration":1938246,"Delta":160806068},{"NoteNumber":41,"Velocity":40,"Duration":318601,"SoundDuration":318601,"Delta":160806068},{"NoteNumber":53,"Velocity":26,"Duration":291300,"SoundDuration":291300,"Delta":161124669},{"NoteNumber":53,"Velocity":28,"Duration":295633,"SoundDuration":295633,"Delta":161447885},{"NoteNumber":53,"Velocity":26,"Duration":291417,"SoundDuration":291417,"Delta":161775776},{"NoteNumber":53,"Velocity":24,"Duration":291541,"SoundDuration":291541,"Delta":162100161},{"NoteNumber":53,"Velocity":22,"Duration":288774,"SoundDuration":288774,"Delta":162423961},{"NoteNumber":67,"Velocity":37,"Duration":645420,"SoundDuration":645420,"Delta":162744314},{"NoteNumber":58,"Velocity":37,"Duration":645420,"SoundDuration":645420,"Delta":162744314},{"NoteNumber":53,"Velocity":25,"Duration":292062,"SoundDuration":292062,"Delta":162744314},{"NoteNumber":53,"Velocity":22,"Duration":287423,"SoundDuration":287423,"Delta":163069344},{"NoteNumber":70,"Velocity":37,"Duration":647014,"SoundDuration":647014,"Delta":163389735},{"NoteNumber":61,"Velocity":37,"Duration":647014,"SoundDuration":647014,"Delta":163389735},{"NoteNumber":53,"Velocity":29,"Duration":293651,"SoundDuration":293651,"Delta":163389735},{"NoteNumber":53,"Velocity":25,"Duration":289190,"SoundDuration":289190,"Delta":163715301},{"NoteNumber":55,"Velocity":37,"Duration":689654,"SoundDuration":689654,"Delta":164036750},{"NoteNumber":64,"Velocity":37,"Duration":689654,"SoundDuration":689654,"Delta":164036750},{"NoteNumber":53,"Velocity":27,"Duration":310344,"SoundDuration":310344,"Delta":164036750},{"NoteNumber":53,"Velocity":25,"Duration":310344,"SoundDuration":310344,"Delta":164381577},{"NoteNumber":65,"Velocity":42,"Duration":1914418,"SoundDuration":1914418,"Delta":164726405},{"NoteNumber":56,"Velocity":42,"Duration":1914418,"SoundDuration":1914418,"Delta":164726405},{"NoteNumber":41,"Velocity":34,"Duration":320962,"SoundDuration":320962,"Delta":164726405},{"NoteNumber":53,"Velocity":24,"Duration":293819,"SoundDuration":293819,"Delta":165047368},{"NoteNumber":53,"Velocity":26,"Duration":289759,"SoundDuration":289759,"Delta":165374154},{"NoteNumber":53,"Velocity":23,"Duration":289486,"SoundDuration":289486,"Delta":165696881},{"NoteNumber":53,"Velocity":25,"Duration":278350,"SoundDuration":278350,"Delta":166018977},{"NoteNumber":53,"Velocity":22,"Duration":280653,"SoundDuration":280653,"Delta":166328255},{"NoteNumber":72,"Velocity":42,"Duration":605611,"SoundDuration":605611,"Delta":166640823},{"NoteNumber":68,"Velocity":42,"Duration":605611,"SoundDuration":605611,"Delta":166640823},{"NoteNumber":53,"Velocity":25,"Duration":287582,"SoundDuration":287582,"Delta":166640823},{"NoteNumber":53,"Velocity":22,"Duration":286450,"SoundDuration":286450,"Delta":166959984},{"NoteNumber":72,"Velocity":44,"Duration":618201,"SoundDuration":618201,"Delta":167278014},{"NoteNumber":68,"Velocity":44,"Duration":618201,"SoundDuration":618201,"Delta":167278014},{"NoteNumber":53,"Velocity":28,"Duration":293145,"SoundDuration":293145,"Delta":167278014},{"NoteNumber":53,"Velocity":25,"Duration":292088,"SoundDuration":292088,"Delta":167604126},{"NoteNumber":68,"Velocity":40,"Duration":686746,"SoundDuration":686746,"Delta":167928473},{"NoteNumber":72,"Velocity":40,"Duration":686746,"SoundDuration":686746,"Delta":167928473},{"NoteNumber":53,"Velocity":28,"Duration":325301,"SoundDuration":325301,"Delta":167928473},{"NoteNumber":53,"Velocity":27,"Duration":325301,"SoundDuration":325301,"Delta":168289919},{"NoteNumber":72,"Velocity":50,"Duration":1915098,"SoundDuration":1915098,"Delta":168651365},{"NoteNumber":67,"Velocity":50,"Duration":3876997,"SoundDuration":3876997,"Delta":168651365},{"NoteNumber":40,"Velocity":33,"Duration":319173,"SoundDuration":319173,"Delta":168651365},{"NoteNumber":52,"Velocity":29,"Duration":290371,"SoundDuration":290371,"Delta":168970538},{"NoteNumber":52,"Velocity":27,"Duration":292817,"SoundDuration":292817,"Delta":169293168},{"NoteNumber":52,"Velocity":24,"Duration":295062,"SoundDuration":295062,"Delta":169617564},{"NoteNumber":52,"Velocity":29,"Duration":280997,"SoundDuration":280997,"Delta":169944884},{"NoteNumber":52,"Velocity":23,"Duration":278080,"SoundDuration":278080,"Delta":170257132},{"NoteNumber":73,"Velocity":51,"Duration":644079,"SoundDuration":644079,"Delta":170566463},{"NoteNumber":52,"Velocity":25,"Duration":289424,"SoundDuration":289424,"Delta":170566463},{"NoteNumber":52,"Velocity":22,"Duration":289787,"SoundDuration":289787,"Delta":170888496},{"NoteNumber":72,"Velocity":50,"Duration":654691,"SoundDuration":654691,"Delta":171210542},{"NoteNumber":52,"Velocity":29,"Duration":295417,"SoundDuration":295417,"Delta":171210542},{"NoteNumber":52,"Velocity":27,"Duration":294391,"SoundDuration":294391,"Delta":171537875},{"NoteNumber":70,"Velocity":48,"Duration":494422,"SoundDuration":494422,"Delta":171865234},{"NoteNumber":52,"Velocity":29,"Duration":289750,"SoundDuration":289750,"Delta":171865234},{"NoteNumber":52,"Velocity":26,"Duration":308861,"SoundDuration":308861,"Delta":172187243},{"NoteNumber":72,"Velocity":46,"Duration":168705,"SoundDuration":168705,"Delta":172359656},{"NoteNumber":70,"Velocity":53,"Duration":647178,"SoundDuration":647178,"Delta":172528362},{"NoteNumber":67,"Velocity":53,"Duration":647178,"SoundDuration":647178,"Delta":172528362},{"NoteNumber":41,"Velocity":29,"Duration":317481,"SoundDuration":317481,"Delta":172528362},{"NoteNumber":53,"Velocity":28,"Duration":297088,"SoundDuration":297088,"Delta":172845844},{"NoteNumber":65,"Velocity":44,"Duration":645858,"SoundDuration":645858,"Delta":173175540},{"NoteNumber":68,"Velocity":44,"Duration":645858,"SoundDuration":645858,"Delta":173175540},{"NoteNumber":53,"Velocity":29,"Duration":289424,"SoundDuration":289424,"Delta":173175540},{"NoteNumber":53,"Velocity":26,"Duration":290857,"SoundDuration":290857,"Delta":173497574},{"NoteNumber":53,"Velocity":32,"Duration":1280688,"SoundDuration":1280688,"Delta":173821399},{"NoteNumber":68,"Velocity":53,"Duration":638297,"SoundDuration":638297,"Delta":174463789},{"NoteNumber":70,"Velocity":58,"Duration":638298,"SoundDuration":638298,"Delta":175102087},{"NoteNumber":72,"Velocity":53,"Duration":638297,"SoundDuration":638297,"Delta":175740385},{"NoteNumber":75,"Velocity":61,"Duration":645161,"SoundDuration":645161,"Delta":176378683},{"NoteNumber":73,"Velocity":57,"Duration":645161,"SoundDuration":645161,"Delta":177023844},{"NoteNumber":61,"Velocity":33,"Duration":612903,"SoundDuration":612903,"Delta":177023844},{"NoteNumber":53,"Velocity":33,"Duration":612903,"SoundDuration":612903,"Delta":177023844},{"NoteNumber":56,"Velocity":33,"Duration":612903,"SoundDuration":612903,"Delta":177023844},{"NoteNumber":61,"Velocity":36,"Duration":612903,"SoundDuration":612903,"Delta":177669006},{"NoteNumber":53,"Velocity":36,"Duration":612903,"SoundDuration":612903,"Delta":177669006},{"NoteNumber":56,"Velocity":36,"Duration":612903,"SoundDuration":612903,"Delta":177669006},{"NoteNumber":72,"Velocity":60,"Duration":80645,"SoundDuration":80645,"Delta":178233522},{"NoteNumber":73,"Velocity":74,"Duration":560245,"SoundDuration":560245,"Delta":178314167},{"NoteNumber":61,"Velocity":40,"Duration":609158,"SoundDuration":609158,"Delta":178314167},{"NoteNumber":53,"Velocity":40,"Duration":609158,"SoundDuration":609158,"Delta":178314167},{"NoteNumber":56,"Velocity":40,"Duration":609158,"SoundDuration":609158,"Delta":178314167},{"NoteNumber":72,"Velocity":64,"Duration":81521,"SoundDuration":81521,"Delta":178874413},{"NoteNumber":73,"Velocity":80,"Duration":584707,"SoundDuration":584707,"Delta":178955934},{"NoteNumber":56,"Velocity":46,"Duration":636431,"SoundDuration":636431,"Delta":178955934},{"NoteNumber":53,"Velocity":46,"Duration":636431,"SoundDuration":636431,"Delta":178955934},{"NoteNumber":61,"Velocity":46,"Duration":636431,"SoundDuration":636431,"Delta":178955934},{"NoteNumber":72,"Velocity":68,"Duration":86206,"SoundDuration":86206,"Delta":179540642},{"NoteNumber":73,"Velocity":89,"Duration":731707,"SoundDuration":731707,"Delta":179626849},{"NoteNumber":61,"Velocity":49,"Duration":695122,"SoundDuration":695122,"Delta":179626849},{"NoteNumber":53,"Velocity":49,"Duration":695122,"SoundDuration":695122,"Delta":179626849},{"NoteNumber":56,"Velocity":49,"Duration":695122,"SoundDuration":695122,"Delta":179626849},{"NoteNumber":73,"Velocity":90,"Duration":333333,"SoundDuration":333333,"Delta":180358556},{"NoteNumber":61,"Velocity":49,"Duration":2625053,"SoundDuration":2625053,"Delta":180358556},{"NoteNumber":63,"Velocity":58,"Duration":2625053,"SoundDuration":2625053,"Delta":180358556},{"NoteNumber":55,"Velocity":49,"Duration":2625053,"SoundDuration":2625053,"Delta":180358556},{"NoteNumber":58,"Velocity":49,"Duration":2625053,"SoundDuration":2625053,"Delta":180358556},{"NoteNumber":75,"Velocity":64,"Duration":98886,"SoundDuration":98886,"Delta":180691890},{"NoteNumber":73,"Velocity":57,"Duration":97753,"SoundDuration":97753,"Delta":180790776},{"NoteNumber":72,"Velocity":64,"Duration":100107,"SoundDuration":100107,"Delta":180888530},{"NoteNumber":73,"Velocity":64,"Duration":319149,"SoundDuration":319149,"Delta":180988637},{"NoteNumber":75,"Velocity":56,"Duration":357142,"SoundDuration":357142,"Delta":181307786},{"NoteNumber":77,"Velocity":47,"Duration":1978021,"SoundDuration":1978021,"Delta":181664929},{"NoteNumber":75,"Velocity":47,"Duration":329670,"SoundDuration":329670,"Delta":183642950},{"NoteNumber":73,"Velocity":47,"Duration":329670,"SoundDuration":329670,"Delta":183972620},{"NoteNumber":72,"Velocity":51,"Duration":329670,"SoundDuration":329670,"Delta":184302291},{"NoteNumber":56,"Velocity":34,"Duration":659340,"SoundDuration":659340,"Delta":184302291},{"NoteNumber":75,"Velocity":47,"Duration":329670,"SoundDuration":329670,"Delta":184631961},{"NoteNumber":73,"Velocity":47,"Duration":329670,"SoundDuration":329670,"Delta":184961631},{"NoteNumber":58,"Velocity":30,"Duration":659340,"SoundDuration":659340,"Delta":184961631},{"NoteNumber":49,"Velocity":30,"Duration":659340,"SoundDuration":659340,"Delta":184961631},{"NoteNumber":70,"Velocity":47,"Duration":329670,"SoundDuration":329670,"Delta":185291301},{"NoteNumber":68,"Velocity":53,"Duration":1978021,"SoundDuration":1978021,"Delta":185620972},{"NoteNumber":51,"Velocity":34,"Duration":2644688,"SoundDuration":2644688,"Delta":185620972},{"NoteNumber":60,"Velocity":34,"Duration":1318680,"SoundDuration":1318680,"Delta":185620972},{"NoteNumber":61,"Velocity":24,"Duration":1326007,"SoundDuration":1326007,"Delta":186939653},{"NoteNumber":67,"Velocity":43,"Duration":666666,"SoundDuration":666666,"Delta":187598993},{"NoteNumber":72,"Velocity":43,"Duration":333333,"SoundDuration":333333,"Delta":187598993},{"NoteNumber":70,"Velocity":43,"Duration":333333,"SoundDuration":333333,"Delta":187932326},{"NoteNumber":68,"Velocity":47,"Duration":1333333,"SoundDuration":1333333,"Delta":188265660},{"NoteNumber":56,"Velocity":29,"Duration":1333333,"SoundDuration":1333333,"Delta":188265660},{"NoteNumber":60,"Velocity":34,"Duration":1333333,"SoundDuration":1333333,"Delta":188265660},{"NoteNumber":44,"Velocity":27,"Duration":731707,"SoundDuration":731707,"Delta":189598993},{"NoteNumber":60,"Velocity":37,"Duration":640449,"SoundDuration":640449,"Delta":190330700},{"NoteNumber":68,"Velocity":37,"Duration":640449,"SoundDuration":640449,"Delta":190330700},{"NoteNumber":60,"Velocity":37,"Duration":640449,"SoundDuration":640449,"Delta":191004858},{"NoteNumber":68,"Velocity":37,"Duration":640449,"SoundDuration":640449,"Delta":191004858},{"NoteNumber":60,"Velocity":37,"Duration":665698,"SoundDuration":665698,"Delta":191679015},{"NoteNumber":68,"Velocity":37,"Duration":665698,"SoundDuration":665698,"Delta":191679015},{"NoteNumber":60,"Velocity":40,"Duration":1938246,"SoundDuration":1938246,"Delta":192380225},{"NoteNumber":68,"Velocity":40,"Duration":1938246,"SoundDuration":1938246,"Delta":192380225},{"NoteNumber":41,"Velocity":40,"Duration":318601,"SoundDuration":318601,"Delta":192380225},{"NoteNumber":53,"Velocity":26,"Duration":291300,"SoundDuration":291300,"Delta":192698826},{"NoteNumber":53,"Velocity":29,"Duration":295633,"SoundDuration":295633,"Delta":193022042},{"NoteNumber":53,"Velocity":26,"Duration":291417,"SoundDuration":291417,"Delta":193349933},{"NoteNumber":53,"Velocity":27,"Duration":291541,"SoundDuration":291541,"Delta":193674317},{"NoteNumber":53,"Velocity":23,"Duration":288774,"SoundDuration":288774,"Delta":193998117},{"NoteNumber":58,"Velocity":37,"Duration":632890,"SoundDuration":632890,"Delta":194318471},{"NoteNumber":67,"Velocity":37,"Duration":632890,"SoundDuration":632890,"Delta":194318471},{"NoteNumber":53,"Velocity":26,"Duration":281250,"SoundDuration":281250,"Delta":194318471},{"NoteNumber":53,"Velocity":23,"Duration":287423,"SoundDuration":287423,"Delta":194630971},{"NoteNumber":61,"Velocity":37,"Duration":647014,"SoundDuration":647014,"Delta":194951362},{"NoteNumber":70,"Velocity":37,"Duration":647014,"SoundDuration":647014,"Delta":194951362},{"NoteNumber":53,"Velocity":29,"Duration":293651,"SoundDuration":293651,"Delta":194951362},{"NoteNumber":53,"Velocity":25,"Duration":289190,"SoundDuration":289190,"Delta":195276928},{"NoteNumber":55,"Velocity":37,"Duration":689654,"SoundDuration":689654,"Delta":195598377},{"NoteNumber":64,"Velocity":37,"Duration":689654,"SoundDuration":689654,"Delta":195598377},{"NoteNumber":53,"Velocity":27,"Duration":310344,"SoundDuration":310344,"Delta":195598377},{"NoteNumber":53,"Velocity":26,"Duration":310344,"SoundDuration":310344,"Delta":195943204},{"NoteNumber":56,"Velocity":42,"Duration":1913929,"SoundDuration":1913929,"Delta":196288032},{"NoteNumber":65,"Velocity":42,"Duration":1913929,"SoundDuration":1913929,"Delta":196288032},{"NoteNumber":41,"Velocity":34,"Duration":320962,"SoundDuration":320962,"Delta":196288032},{"NoteNumber":53,"Velocity":26,"Duration":293819,"SoundDuration":293819,"Delta":196608995},{"NoteNumber":53,"Velocity":27,"Duration":292561,"SoundDuration":292561,"Delta":196935782},{"NoteNumber":53,"Velocity":23,"Duration":289486,"SoundDuration":289486,"Delta":197261310},{"NoteNumber":53,"Velocity":26,"Duration":278350,"SoundDuration":278350,"Delta":197583405},{"NoteNumber":53,"Velocity":23,"Duration":278350,"SoundDuration":278350,"Delta":197892684},{"NoteNumber":68,"Velocity":42,"Duration":605051,"SoundDuration":605051,"Delta":198201962},{"NoteNumber":72,"Velocity":42,"Duration":605051,"SoundDuration":605051,"Delta":198201962},{"NoteNumber":53,"Velocity":25,"Duration":287022,"SoundDuration":287022,"Delta":198201962},{"NoteNumber":53,"Velocity":23,"Duration":286450,"SoundDuration":286450,"Delta":198520563},{"NoteNumber":68,"Velocity":44,"Duration":618201,"SoundDuration":618201,"Delta":198838592},{"NoteNumber":72,"Velocity":44,"Duration":618201,"SoundDuration":618201,"Delta":198838592},{"NoteNumber":53,"Velocity":28,"Duration":293145,"SoundDuration":293145,"Delta":198838592},{"NoteNumber":53,"Velocity":26,"Duration":292088,"SoundDuration":292088,"Delta":199164705},{"NoteNumber":68,"Velocity":40,"Duration":686746,"SoundDuration":686746,"Delta":199489051},{"NoteNumber":72,"Velocity":40,"Duration":686746,"SoundDuration":686746,"Delta":199489051},{"NoteNumber":53,"Velocity":28,"Duration":325301,"SoundDuration":325301,"Delta":199489051},{"NoteNumber":53,"Velocity":26,"Duration":325301,"SoundDuration":325301,"Delta":199850497},{"NoteNumber":72,"Velocity":50,"Duration":1912672,"SoundDuration":1912672,"Delta":200211943},{"NoteNumber":67,"Velocity":50,"Duration":3874571,"SoundDuration":3874571,"Delta":200211943},{"NoteNumber":40,"Velocity":33,"Duration":319173,"SoundDuration":319173,"Delta":200211943},{"NoteNumber":52,"Velocity":29,"Duration":290371,"SoundDuration":290371,"Delta":200531116},{"NoteNumber":52,"Velocity":27,"Duration":293270,"SoundDuration":293270,"Delta":200853746},{"NoteNumber":52,"Velocity":27,"Duration":291504,"SoundDuration":291504,"Delta":201179274},{"NoteNumber":52,"Velocity":28,"Duration":280997,"SoundDuration":280997,"Delta":201503037},{"NoteNumber":52,"Velocity":23,"Duration":278080,"SoundDuration":278080,"Delta":201815285},{"NoteNumber":73,"Velocity":51,"Duration":644079,"SoundDuration":644079,"Delta":202124615},{"NoteNumber":52,"Velocity":26,"Duration":289424,"SoundDuration":289424,"Delta":202124615},{"NoteNumber":52,"Velocity":24,"Duration":289787,"SoundDuration":289787,"Delta":202446649},{"NoteNumber":72,"Velocity":50,"Duration":654691,"SoundDuration":654691,"Delta":202768694},{"NoteNumber":52,"Velocity":29,"Duration":295417,"SoundDuration":295417,"Delta":202768694},{"NoteNumber":52,"Velocity":27,"Duration":294391,"SoundDuration":294391,"Delta":203096027},{"NoteNumber":70,"Velocity":48,"Duration":494422,"SoundDuration":494422,"Delta":203423386},{"NoteNumber":52,"Velocity":29,"Duration":289750,"SoundDuration":289750,"Delta":203423386},{"NoteNumber":52,"Velocity":26,"Duration":308861,"SoundDuration":308861,"Delta":203745395},{"NoteNumber":72,"Velocity":46,"Duration":168705,"SoundDuration":168705,"Delta":203917809},{"NoteNumber":67,"Velocity":53,"Duration":647178,"SoundDuration":647178,"Delta":204086515},{"NoteNumber":70,"Velocity":53,"Duration":647178,"SoundDuration":647178,"Delta":204086515},{"NoteNumber":41,"Velocity":29,"Duration":317481,"SoundDuration":317481,"Delta":204086515},{"NoteNumber":53,"Velocity":27,"Duration":297088,"SoundDuration":297088,"Delta":204403996},{"NoteNumber":65,"Velocity":44,"Duration":645858,"SoundDuration":645858,"Delta":204733693},{"NoteNumber":68,"Velocity":44,"Duration":645858,"SoundDuration":645858,"Delta":204733693},{"NoteNumber":53,"Velocity":29,"Duration":289424,"SoundDuration":289424,"Delta":204733693},{"NoteNumber":53,"Velocity":28,"Duration":290857,"SoundDuration":290857,"Delta":205055726},{"NoteNumber":53,"Velocity":33,"Duration":1280688,"SoundDuration":1280688,"Delta":205379551},{"NoteNumber":68,"Velocity":53,"Duration":638297,"SoundDuration":638297,"Delta":206021941},{"NoteNumber":70,"Velocity":58,"Duration":638298,"SoundDuration":638298,"Delta":206660239},{"NoteNumber":72,"Velocity":53,"Duration":638297,"SoundDuration":638297,"Delta":207298537},{"NoteNumber":75,"Velocity":61,"Duration":645161,"SoundDuration":645161,"Delta":207936835},{"NoteNumber":73,"Velocity":57,"Duration":645161,"SoundDuration":645161,"Delta":208581997},{"NoteNumber":61,"Velocity":33,"Duration":612903,"SoundDuration":612903,"Delta":208581997},{"NoteNumber":56,"Velocity":33,"Duration":612903,"SoundDuration":612903,"Delta":208581997},{"NoteNumber":53,"Velocity":33,"Duration":612903,"SoundDuration":612903,"Delta":208581997},{"NoteNumber":61,"Velocity":36,"Duration":612903,"SoundDuration":612903,"Delta":209227158},{"NoteNumber":56,"Velocity":36,"Duration":612903,"SoundDuration":612903,"Delta":209227158},{"NoteNumber":53,"Velocity":36,"Duration":612903,"SoundDuration":612903,"Delta":209227158},{"NoteNumber":72,"Velocity":57,"Duration":80645,"SoundDuration":80645,"Delta":209791674},{"NoteNumber":73,"Velocity":72,"Duration":559368,"SoundDuration":559368,"Delta":209872320},{"NoteNumber":61,"Velocity":40,"Duration":607755,"SoundDuration":607755,"Delta":209872320},{"NoteNumber":56,"Velocity":40,"Duration":607755,"SoundDuration":607755,"Delta":209872320},{"NoteNumber":53,"Velocity":40,"Duration":607755,"SoundDuration":607755,"Delta":209872320},{"NoteNumber":72,"Velocity":63,"Duration":80645,"SoundDuration":80645,"Delta":210431688},{"NoteNumber":73,"Velocity":78,"Duration":587286,"SoundDuration":587286,"Delta":210512334},{"NoteNumber":61,"Velocity":46,"Duration":640227,"SoundDuration":640227,"Delta":210512334},{"NoteNumber":56,"Velocity":46,"Duration":640227,"SoundDuration":640227,"Delta":210512334},{"NoteNumber":53,"Velocity":46,"Duration":640227,"SoundDuration":640227,"Delta":210512334},{"NoteNumber":72,"Velocity":69,"Duration":88235,"SoundDuration":88235,"Delta":211099620},{"NoteNumber":73,"Velocity":86,"Duration":731707,"SoundDuration":731707,"Delta":211187856},{"NoteNumber":61,"Velocity":49,"Duration":695122,"SoundDuration":695122,"Delta":211187856},{"NoteNumber":56,"Velocity":49,"Duration":695122,"SoundDuration":695122,"Delta":211187856},{"NoteNumber":53,"Velocity":49,"Duration":695122,"SoundDuration":695122,"Delta":211187856},{"NoteNumber":73,"Velocity":95,"Duration":337078,"SoundDuration":337078,"Delta":211919563},{"NoteNumber":63,"Velocity":57,"Duration":2618154,"SoundDuration":2618154,"Delta":211919563},{"NoteNumber":61,"Velocity":48,"Duration":2618154,"SoundDuration":2618154,"Delta":211919563},{"NoteNumber":58,"Velocity":48,"Duration":2618154,"SoundDuration":2618154,"Delta":211919563},{"NoteNumber":55,"Velocity":48,"Duration":2618154,"SoundDuration":2618154,"Delta":211919563},{"NoteNumber":75,"Velocity":60,"Duration":99801,"SoundDuration":99801,"Delta":212256642},{"NoteNumber":73,"Velocity":56,"Duration":96162,"SoundDuration":96162,"Delta":212356443},{"NoteNumber":72,"Velocity":60,"Duration":100010,"SoundDuration":100010,"Delta":212452606},{"NoteNumber":73,"Velocity":61,"Duration":309278,"SoundDuration":309278,"Delta":212552616},{"NoteNumber":75,"Velocity":53,"Duration":357142,"SoundDuration":357142,"Delta":212861894},{"NoteNumber":77,"Velocity":47,"Duration":1978021,"SoundDuration":1978021,"Delta":213219037},{"NoteNumber":75,"Velocity":47,"Duration":329670,"SoundDuration":329670,"Delta":215197058},{"NoteNumber":73,"Velocity":44,"Duration":329670,"SoundDuration":329670,"Delta":215526729},{"NoteNumber":72,"Velocity":51,"Duration":329670,"SoundDuration":329670,"Delta":215856399},{"NoteNumber":56,"Velocity":34,"Duration":659340,"SoundDuration":659340,"Delta":215856399},{"NoteNumber":75,"Velocity":44,"Duration":329670,"SoundDuration":329670,"Delta":216186069},{"NoteNumber":73,"Velocity":47,"Duration":329670,"SoundDuration":329670,"Delta":216515739},{"NoteNumber":49,"Velocity":30,"Duration":659340,"SoundDuration":659340,"Delta":216515739},{"NoteNumber":58,"Velocity":30,"Duration":659340,"SoundDuration":659340,"Delta":216515739},{"NoteNumber":70,"Velocity":46,"Duration":329670,"SoundDuration":329670,"Delta":216845410},{"NoteNumber":68,"Velocity":53,"Duration":1978021,"SoundDuration":1978021,"Delta":217175080},{"NoteNumber":51,"Velocity":34,"Duration":2644688,"SoundDuration":2644688,"Delta":217175080},{"NoteNumber":60,"Velocity":34,"Duration":1318680,"SoundDuration":1318680,"Delta":217175080},{"NoteNumber":61,"Velocity":23,"Duration":1326007,"SoundDuration":1326007,"Delta":218493761},{"NoteNumber":67,"Velocity":43,"Duration":666666,"SoundDuration":666666,"Delta":219153101},{"NoteNumber":72,"Velocity":43,"Duration":333333,"SoundDuration":333333,"Delta":219153101},{"NoteNumber":70,"Velocity":43,"Duration":333333,"SoundDuration":333333,"Delta":219486435},{"NoteNumber":68,"Velocity":47,"Duration":1333333,"SoundDuration":1333333,"Delta":219819768},{"NoteNumber":56,"Velocity":29,"Duration":1333333,"SoundDuration":1333333,"Delta":219819768},{"NoteNumber":60,"Velocity":34,"Duration":1333333,"SoundDuration":1333333,"Delta":219819768},{"NoteNumber":44,"Velocity":30,"Duration":638297,"SoundDuration":638297,"Delta":221153101},{"NoteNumber":63,"Velocity":53,"Duration":618556,"SoundDuration":618556,"Delta":221791399},{"NoteNumber":68,"Velocity":53,"Duration":599999,"SoundDuration":599999,"Delta":222409955},{"NoteNumber":72,"Velocity":51,"Duration":606060,"SoundDuration":606060,"Delta":223009955},{"NoteNumber":75,"Velocity":58,"Duration":1731195,"SoundDuration":1731195,"Delta":223616016},{"NoteNumber":56,"Velocity":43,"Duration":576922,"SoundDuration":576922,"Delta":224204251},{"NoteNumber":60,"Velocity":45,"Duration":566037,"SoundDuration":566037,"Delta":224781174},{"NoteNumber":73,"Velocity":50,"Duration":309278,"SoundDuration":309278,"Delta":225347212},{"NoteNumber":63,"Velocity":45,"Duration":618556,"SoundDuration":618556,"Delta":225347212},{"NoteNumber":72,"Velocity":47,"Duration":309278,"SoundDuration":309278,"Delta":225656490},{"NoteNumber":70,"Velocity":50,"Duration":594059,"SoundDuration":594059,"Delta":225965768},{"NoteNumber":53,"Velocity":47,"Duration":594059,"SoundDuration":594059,"Delta":225965768},{"NoteNumber":68,"Velocity":47,"Duration":483871,"SoundDuration":483871,"Delta":226559828},{"NoteNumber":62,"Velocity":43,"Duration":645161,"SoundDuration":645161,"Delta":226559828},{"NoteNumber":72,"Velocity":53,"Duration":1212120,"SoundDuration":1212120,"Delta":227204989},{"NoteNumber":51,"Velocity":40,"Duration":606060,"SoundDuration":606060,"Delta":227811050},{"NoteNumber":70,"Velocity":49,"Duration":571428,"SoundDuration":571428,"Delta":228417110},{"NoteNumber":55,"Velocity":40,"Duration":571428,"SoundDuration":571428,"Delta":228417110},{"NoteNumber":60,"Velocity":67,"Duration":582524,"SoundDuration":582524,"Delta":228988539},{"NoteNumber":58,"Velocity":58,"Duration":582524,"SoundDuration":582524,"Delta":228988539},{"NoteNumber":52,"Velocity":58,"Duration":582524,"SoundDuration":582524,"Delta":228988539},{"NoteNumber":65,"Velocity":69,"Duration":576922,"SoundDuration":576922,"Delta":229571063},{"NoteNumber":56,"Velocity":58,"Duration":1170982,"SoundDuration":1170982,"Delta":229571063},{"NoteNumber":53,"Velocity":58,"Duration":1170982,"SoundDuration":1170982,"Delta":229571063},{"NoteNumber":68,"Velocity":67,"Duration":594059,"SoundDuration":594059,"Delta":230147986},{"NoteNumber":72,"Velocity":71,"Duration":1727069,"SoundDuration":1727069,"Delta":230742046},{"NoteNumber":49,"Velocity":54,"Duration":2978255,"SoundDuration":2978255,"Delta":231308083},{"NoteNumber":53,"Velocity":52,"Duration":589603,"SoundDuration":589603,"Delta":231879512},{"NoteNumber":70,"Velocity":53,"Duration":291262,"SoundDuration":291262,"Delta":232469116},{"NoteNumber":56,"Velocity":45,"Duration":582524,"SoundDuration":582524,"Delta":232469116},{"NoteNumber":68,"Velocity":50,"Duration":291262,"SoundDuration":291262,"Delta":232760378},{"NoteNumber":67,"Velocity":53,"Duration":582524,"SoundDuration":582524,"Delta":233051640},{"NoteNumber":58,"Velocity":45,"Duration":582524,"SoundDuration":582524,"Delta":233051640},{"NoteNumber":65,"Velocity":44,"Duration":489130,"SoundDuration":489130,"Delta":233634165},{"NoteNumber":59,"Velocity":42,"Duration":652174,"SoundDuration":652174,"Delta":233634165},{"NoteNumber":65,"Velocity":49,"Duration":1250000,"SoundDuration":1250000,"Delta":234286339},{"NoteNumber":68,"Velocity":49,"Duration":1250000,"SoundDuration":1250000,"Delta":234286339},{"NoteNumber":48,"Velocity":37,"Duration":1821428,"SoundDuration":1821428,"Delta":234286339},{"NoteNumber":60,"Velocity":37,"Duration":1821428,"SoundDuration":1821428,"Delta":234286339},{"NoteNumber":67,"Velocity":46,"Duration":571428,"SoundDuration":571428,"Delta":235536339},{"NoteNumber":64,"Velocity":46,"Duration":571428,"SoundDuration":571428,"Delta":235536339},{"NoteNumber":72,"Velocity":60,"Duration":571428,"SoundDuration":571428,"Delta":236107767},{"NoteNumber":77,"Velocity":60,"Duration":566037,"SoundDuration":566037,"Delta":236679196},{"NoteNumber":80,"Velocity":59,"Duration":566037,"SoundDuration":566037,"Delta":237245233},{"NoteNumber":44,"Velocity":49,"Duration":566037,"SoundDuration":566037,"Delta":237245233},{"NoteNumber":79,"Velocity":66,"Duration":566037,"SoundDuration":566037,"Delta":237811271},{"NoteNumber":46,"Velocity":53,"Duration":566037,"SoundDuration":566037,"Delta":237811271},{"NoteNumber":77,"Velocity":65,"Duration":540540,"SoundDuration":540540,"Delta":238377308},{"NoteNumber":58,"Velocity":51,"Duration":540540,"SoundDuration":540540,"Delta":238377308},{"NoteNumber":59,"Velocity":53,"Duration":562962,"SoundDuration":562962,"Delta":238917849},{"NoteNumber":72,"Velocity":66,"Duration":566037,"SoundDuration":566037,"Delta":239480812},{"NoteNumber":60,"Velocity":51,"Duration":566037,"SoundDuration":566037,"Delta":239480812},{"NoteNumber":77,"Velocity":68,"Duration":555555,"SoundDuration":555555,"Delta":240046849},{"NoteNumber":80,"Velocity":66,"Duration":555555,"SoundDuration":555555,"Delta":240602405},{"NoteNumber":48,"Velocity":56,"Duration":555555,"SoundDuration":555555,"Delta":240602405},{"NoteNumber":79,"Velocity":72,"Duration":571428,"SoundDuration":571428,"Delta":241157960},{"NoteNumber":49,"Velocity":58,"Duration":571428,"SoundDuration":571428,"Delta":241157960},{"NoteNumber":77,"Velocity":69,"Duration":571428,"SoundDuration":571428,"Delta":241729389},{"NoteNumber":61,"Velocity":58,"Duration":571428,"SoundDuration":571428,"Delta":241729389},{"NoteNumber":63,"Velocity":65,"Duration":560747,"SoundDuration":560747,"Delta":242300817},{"NoteNumber":69,"Velocity":61,"Duration":570609,"SoundDuration":570609,"Delta":242861565},{"NoteNumber":75,"Velocity":72,"Duration":570609,"SoundDuration":570609,"Delta":242861565},{"NoteNumber":77,"Velocity":72,"Duration":570609,"SoundDuration":570609,"Delta":242861565},{"NoteNumber":72,"Velocity":61,"Duration":570609,"SoundDuration":570609,"Delta":242861565},{"NoteNumber":60,"Velocity":61,"Duration":570609,"SoundDuration":570609,"Delta":242861565},{"NoteNumber":48,"Velocity":51,"Duration":570609,"SoundDuration":570609,"Delta":242861565},{"NoteNumber":75,"Velocity":73,"Duration":581632,"SoundDuration":581632,"Delta":243461877},{"NoteNumber":69,"Velocity":61,"Duration":581632,"SoundDuration":581632,"Delta":243461877},{"NoteNumber":72,"Velocity":61,"Duration":581632,"SoundDuration":581632,"Delta":243461877},{"NoteNumber":77,"Velocity":73,"Duration":581632,"SoundDuration":581632,"Delta":243461877},{"NoteNumber":45,"Velocity":50,"Duration":581632,"SoundDuration":581632,"Delta":243461877},{"NoteNumber":57,"Velocity":59,"Duration":581632,"SoundDuration":581632,"Delta":243461877},{"NoteNumber":75,"Velocity":72,"Duration":597599,"SoundDuration":597599,"Delta":244074122},{"NoteNumber":69,"Velocity":60,"Duration":597599,"SoundDuration":597599,"Delta":244074122},{"NoteNumber":72,"Velocity":60,"Duration":597599,"SoundDuration":597599,"Delta":244074122},{"NoteNumber":77,"Velocity":72,"Duration":597599,"SoundDuration":597599,"Delta":244074122},{"NoteNumber":41,"Velocity":50,"Duration":597599,"SoundDuration":597599,"Delta":244074122},{"NoteNumber":53,"Velocity":59,"Duration":597599,"SoundDuration":597599,"Delta":244074122},{"NoteNumber":77,"Velocity":63,"Duration":306122,"SoundDuration":306122,"Delta":244703475},{"NoteNumber":73,"Velocity":63,"Duration":306122,"SoundDuration":306122,"Delta":244703475},{"NoteNumber":58,"Velocity":46,"Duration":1260149,"SoundDuration":1260149,"Delta":244703475},{"NoteNumber":46,"Velocity":46,"Duration":1260149,"SoundDuration":1260149,"Delta":244703475},{"NoteNumber":73,"Velocity":55,"Duration":290322,"SoundDuration":290322,"Delta":245009597},{"NoteNumber":70,"Velocity":55,"Duration":290322,"SoundDuration":290322,"Delta":245009597},{"NoteNumber":70,"Velocity":53,"Duration":308865,"SoundDuration":308865,"Delta":245332178},{"NoteNumber":73,"Velocity":53,"Duration":308865,"SoundDuration":308865,"Delta":245332178},{"NoteNumber":70,"Velocity":48,"Duration":290322,"SoundDuration":290322,"Delta":245641044},{"NoteNumber":67,"Velocity":48,"Duration":290322,"SoundDuration":290322,"Delta":245641044},{"NoteNumber":65,"Velocity":46,"Duration":1129032,"SoundDuration":1129032,"Delta":245963624},{"NoteNumber":68,"Velocity":46,"Duration":1129032,"SoundDuration":1129032,"Delta":245963624},{"NoteNumber":60,"Velocity":37,"Duration":1290322,"SoundDuration":1290322,"Delta":245963624},{"NoteNumber":48,"Velocity":37,"Duration":1290322,"SoundDuration":1290322,"Delta":245963624},{"NoteNumber":68,"Velocity":46,"Duration":161290,"SoundDuration":161290,"Delta":247092657},{"NoteNumber":67,"Velocity":49,"Duration":628427,"SoundDuration":628427,"Delta":247253947},{"NoteNumber":64,"Velocity":49,"Duration":628427,"SoundDuration":628427,"Delta":247253947},{"NoteNumber":48,"Velocity":37,"Duration":1295423,"SoundDuration":1295423,"Delta":247253947},{"NoteNumber":58,"Velocity":37,"Duration":1295423,"SoundDuration":1295423,"Delta":247253947},{"NoteNumber":65,"Velocity":46,"Duration":326087,"SoundDuration":326087,"Delta":247882375},{"NoteNumber":67,"Velocity":43,"Duration":340909,"SoundDuration":340909,"Delta":248208462},{"NoteNumber":65,"Velocity":49,"Duration":1363636,"SoundDuration":1363636,"Delta":248549371},{"NoteNumber":56,"Velocity":37,"Duration":1363636,"SoundDuration":1363636,"Delta":248549371},{"NoteNumber":53,"Velocity":37,"Duration":1363636,"SoundDuration":1363636,"Delta":248549371},{"NoteNumber":41,"Velocity":30,"Duration":652174,"SoundDuration":652174,"Delta":249913007},{"NoteNumber":63,"Velocity":53,"Duration":612245,"SoundDuration":612245,"Delta":250565181},{"NoteNumber":68,"Velocity":53,"Duration":582524,"SoundDuration":582524,"Delta":251177426},{"NoteNumber":72,"Velocity":51,"Duration":599999,"SoundDuration":599999,"Delta":251759950},{"NoteNumber":75,"Velocity":58,"Duration":1714388,"SoundDuration":1714388,"Delta":252359950},{"NoteNumber":56,"Velocity":45,"Duration":576922,"SoundDuration":576922,"Delta":252931379},{"NoteNumber":60,"Velocity":48,"Duration":566037,"SoundDuration":566037,"Delta":253508302},{"NoteNumber":73,"Velocity":50,"Duration":309278,"SoundDuration":309278,"Delta":254074339},{"NoteNumber":63,"Velocity":45,"Duration":618556,"SoundDuration":618556,"Delta":254074339},{"NoteNumber":72,"Velocity":47,"Duration":309278,"SoundDuration":309278,"Delta":254383617},{"NoteNumber":70,"Velocity":50,"Duration":594059,"SoundDuration":594059,"Delta":254692896},{"NoteNumber":53,"Velocity":49,"Duration":594059,"SoundDuration":594059,"Delta":254692896},{"NoteNumber":68,"Velocity":47,"Duration":483871,"SoundDuration":483871,"Delta":255286955},{"NoteNumber":62,"Velocity":43,"Duration":645161,"SoundDuration":645161,"Delta":255286955},{"NoteNumber":72,"Velocity":53,"Duration":1212121,"SoundDuration":1212121,"Delta":255932117},{"NoteNumber":51,"Velocity":40,"Duration":606060,"SoundDuration":606060,"Delta":256538177},{"NoteNumber":70,"Velocity":49,"Duration":571428,"SoundDuration":571428,"Delta":257144238},{"NoteNumber":55,"Velocity":40,"Duration":571428,"SoundDuration":571428,"Delta":257144238},{"NoteNumber":60,"Velocity":67,"Duration":582524,"SoundDuration":582524,"Delta":257715666},{"NoteNumber":52,"Velocity":58,"Duration":582524,"SoundDuration":582524,"Delta":257715666},{"NoteNumber":58,"Velocity":58,"Duration":582524,"SoundDuration":582524,"Delta":257715666},{"NoteNumber":65,"Velocity":69,"Duration":576923,"SoundDuration":576923,"Delta":258298191},{"NoteNumber":53,"Velocity":58,"Duration":1170982,"SoundDuration":1170982,"Delta":258298191},{"NoteNumber":56,"Velocity":58,"Duration":1170982,"SoundDuration":1170982,"Delta":258298191},{"NoteNumber":68,"Velocity":67,"Duration":594059,"SoundDuration":594059,"Delta":258875114},{"NoteNumber":72,"Velocity":71,"Duration":1727069,"SoundDuration":1727069,"Delta":259469173},{"NoteNumber":49,"Velocity":54,"Duration":2978255,"SoundDuration":2978255,"Delta":260035211},{"NoteNumber":53,"Velocity":52,"Duration":589603,"SoundDuration":589603,"Delta":260606639},{"NoteNumber":70,"Velocity":53,"Duration":291262,"SoundDuration":291262,"Delta":261196243},{"NoteNumber":56,"Velocity":45,"Duration":582524,"SoundDuration":582524,"Delta":261196243},{"NoteNumber":68,"Velocity":50,"Duration":291262,"SoundDuration":291262,"Delta":261487505},{"NoteNumber":67,"Velocity":53,"Duration":582524,"SoundDuration":582524,"Delta":261778767},{"NoteNumber":58,"Velocity":45,"Duration":582524,"SoundDuration":582524,"Delta":261778767},{"NoteNumber":65,"Velocity":47,"Duration":489130,"SoundDuration":489130,"Delta":262361292},{"NoteNumber":59,"Velocity":39,"Duration":652174,"SoundDuration":652174,"Delta":262361292},{"NoteNumber":65,"Velocity":49,"Duration":1250000,"SoundDuration":1250000,"Delta":263013466},{"NoteNumber":68,"Velocity":49,"Duration":1250000,"SoundDuration":1250000,"Delta":263013466},{"NoteNumber":48,"Velocity":37,"Duration":1821428,"SoundDuration":1821428,"Delta":263013466},{"NoteNumber":60,"Velocity":37,"Duration":1821428,"SoundDuration":1821428,"Delta":263013466},{"NoteNumber":64,"Velocity":46,"Duration":571428,"SoundDuration":571428,"Delta":264263466},{"NoteNumber":67,"Velocity":46,"Duration":571428,"SoundDuration":571428,"Delta":264263466},{"NoteNumber":72,"Velocity":60,"Duration":571428,"SoundDuration":571428,"Delta":264834894},{"NoteNumber":77,"Velocity":60,"Duration":566037,"SoundDuration":566037,"Delta":265406323},{"NoteNumber":80,"Velocity":59,"Duration":566037,"SoundDuration":566037,"Delta":265972360},{"NoteNumber":44,"Velocity":49,"Duration":566037,"SoundDuration":566037,"Delta":265972360},{"NoteNumber":79,"Velocity":66,"Duration":566037,"SoundDuration":566037,"Delta":266538398},{"NoteNumber":46,"Velocity":53,"Duration":566037,"SoundDuration":566037,"Delta":266538398},{"NoteNumber":77,"Velocity":65,"Duration":540540,"SoundDuration":540540,"Delta":267104435},{"NoteNumber":58,"Velocity":51,"Duration":540540,"SoundDuration":540540,"Delta":267104435},{"NoteNumber":59,"Velocity":53,"Duration":562962,"SoundDuration":562962,"Delta":267644976},{"NoteNumber":72,"Velocity":66,"Duration":566037,"SoundDuration":566037,"Delta":268207939},{"NoteNumber":60,"Velocity":51,"Duration":566037,"SoundDuration":566037,"Delta":268207939},{"NoteNumber":77,"Velocity":68,"Duration":555555,"SoundDuration":555555,"Delta":268773976},{"NoteNumber":80,"Velocity":66,"Duration":555555,"SoundDuration":555555,"Delta":269329532},{"NoteNumber":48,"Velocity":56,"Duration":555555,"SoundDuration":555555,"Delta":269329532},{"NoteNumber":79,"Velocity":72,"Duration":571428,"SoundDuration":571428,"Delta":269885087},{"NoteNumber":49,"Velocity":58,"Duration":571428,"SoundDuration":571428,"Delta":269885087},{"NoteNumber":77,"Velocity":69,"Duration":571428,"SoundDuration":571428,"Delta":270456516},{"NoteNumber":61,"Velocity":58,"Duration":571428,"SoundDuration":571428,"Delta":270456516},{"NoteNumber":63,"Velocity":65,"Duration":560747,"SoundDuration":560747,"Delta":271027944},{"NoteNumber":72,"Velocity":61,"Duration":570609,"SoundDuration":570609,"Delta":271588692},{"NoteNumber":69,"Velocity":61,"Duration":570609,"SoundDuration":570609,"Delta":271588692},{"NoteNumber":75,"Velocity":72,"Duration":570609,"SoundDuration":570609,"Delta":271588692},{"NoteNumber":77,"Velocity":72,"Duration":570609,"SoundDuration":570609,"Delta":271588692},{"NoteNumber":48,"Velocity":51,"Duration":570609,"SoundDuration":570609,"Delta":271588692},{"NoteNumber":60,"Velocity":61,"Duration":570609,"SoundDuration":570609,"Delta":271588692},{"NoteNumber":69,"Velocity":61,"Duration":581632,"SoundDuration":581632,"Delta":272189005},{"NoteNumber":72,"Velocity":61,"Duration":581632,"SoundDuration":581632,"Delta":272189005},{"NoteNumber":75,"Velocity":73,"Duration":581632,"SoundDuration":581632,"Delta":272189005},{"NoteNumber":77,"Velocity":73,"Duration":581632,"SoundDuration":581632,"Delta":272189005},{"NoteNumber":45,"Velocity":50,"Duration":581632,"SoundDuration":581632,"Delta":272189005},{"NoteNumber":57,"Velocity":59,"Duration":581632,"SoundDuration":581632,"Delta":272189005},{"NoteNumber":69,"Velocity":60,"Duration":616349,"SoundDuration":616349,"Delta":272801250},{"NoteNumber":72,"Velocity":60,"Duration":616349,"SoundDuration":616349,"Delta":272801250},{"NoteNumber":75,"Velocity":72,"Duration":616349,"SoundDuration":616349,"Delta":272801250},{"NoteNumber":77,"Velocity":72,"Duration":616349,"SoundDuration":616349,"Delta":272801250},{"NoteNumber":41,"Velocity":50,"Duration":616349,"SoundDuration":616349,"Delta":272801250},{"NoteNumber":53,"Velocity":59,"Duration":616349,"SoundDuration":616349,"Delta":272801250},{"NoteNumber":73,"Velocity":63,"Duration":309278,"SoundDuration":309278,"Delta":273450039},{"NoteNumber":77,"Velocity":63,"Duration":309278,"SoundDuration":309278,"Delta":273450039},{"NoteNumber":46,"Velocity":46,"Duration":1254038,"SoundDuration":1254038,"Delta":273450039},{"NoteNumber":58,"Velocity":46,"Duration":1254038,"SoundDuration":1254038,"Delta":273450039},{"NoteNumber":70,"Velocity":55,"Duration":287234,"SoundDuration":287234,"Delta":273759317},{"NoteNumber":73,"Velocity":55,"Duration":287234,"SoundDuration":287234,"Delta":273759317},{"NoteNumber":70,"Velocity":53,"Duration":303030,"SoundDuration":303030,"Delta":274078466},{"NoteNumber":73,"Velocity":53,"Duration":303030,"SoundDuration":303030,"Delta":274078466},{"NoteNumber":70,"Velocity":48,"Duration":290322,"SoundDuration":290322,"Delta":274381496},{"NoteNumber":67,"Velocity":48,"Duration":290322,"SoundDuration":290322,"Delta":274381496},{"NoteNumber":65,"Velocity":46,"Duration":1129032,"SoundDuration":1129032,"Delta":274704077},{"NoteNumber":68,"Velocity":46,"Duration":1129032,"SoundDuration":1129032,"Delta":274704077},{"NoteNumber":48,"Velocity":37,"Duration":1290323,"SoundDuration":1290323,"Delta":274704077},{"NoteNumber":60,"Velocity":37,"Duration":1290323,"SoundDuration":1290323,"Delta":274704077},{"NoteNumber":68,"Velocity":46,"Duration":161290,"SoundDuration":161290,"Delta":275833109},{"NoteNumber":64,"Velocity":49,"Duration":628427,"SoundDuration":628427,"Delta":275994400},{"NoteNumber":67,"Velocity":49,"Duration":628427,"SoundDuration":628427,"Delta":275994400},{"NoteNumber":48,"Velocity":37,"Duration":1295423,"SoundDuration":1295423,"Delta":275994400},{"NoteNumber":58,"Velocity":37,"Duration":1295423,"SoundDuration":1295423,"Delta":275994400},{"NoteNumber":65,"Velocity":46,"Duration":326086,"SoundDuration":326086,"Delta":276622827},{"NoteNumber":67,"Velocity":43,"Duration":340909,"SoundDuration":340909,"Delta":276948914},{"NoteNumber":65,"Velocity":49,"Duration":1363635,"SoundDuration":1363635,"Delta":277289823},{"NoteNumber":53,"Velocity":37,"Duration":1363635,"SoundDuration":1363635,"Delta":277289823},{"NoteNumber":56,"Velocity":37,"Duration":1363635,"SoundDuration":1363635,"Delta":277289823},{"NoteNumber":41,"Velocity":28,"Duration":681818,"SoundDuration":681818,"Delta":278653459},{"NoteNumber":68,"Velocity":37,"Duration":647727,"SoundDuration":647727,"Delta":279335277},{"NoteNumber":60,"Velocity":37,"Duration":647727,"SoundDuration":647727,"Delta":279335277},{"NoteNumber":60,"Velocity":37,"Duration":647727,"SoundDuration":647727,"Delta":280017095},{"NoteNumber":68,"Velocity":37,"Duration":647727,"SoundDuration":647727,"Delta":280017095},{"NoteNumber":60,"Velocity":35,"Duration":647727,"SoundDuration":647727,"Delta":280698913},{"NoteNumber":68,"Velocity":35,"Duration":647727,"SoundDuration":647727,"Delta":280698913},{"NoteNumber":60,"Velocity":40,"Duration":1945326,"SoundDuration":1945326,"Delta":281380731},{"NoteNumber":68,"Velocity":40,"Duration":1945326,"SoundDuration":1945326,"Delta":281380731},{"NoteNumber":41,"Velocity":40,"Duration":322667,"SoundDuration":322667,"Delta":281380731},{"NoteNumber":53,"Velocity":27,"Duration":292625,"SoundDuration":292625,"Delta":281703398},{"NoteNumber":53,"Velocity":29,"Duration":290505,"SoundDuration":290505,"Delta":282028990},{"NoteNumber":53,"Velocity":28,"Duration":291139,"SoundDuration":291139,"Delta":282352829},{"NoteNumber":53,"Velocity":29,"Duration":295036,"SoundDuration":295036,"Delta":282675548},{"NoteNumber":53,"Velocity":25,"Duration":290248,"SoundDuration":290248,"Delta":283002842},{"NoteNumber":67,"Velocity":37,"Duration":644129,"SoundDuration":644129,"Delta":283326057},{"NoteNumber":58,"Velocity":37,"Duration":644129,"SoundDuration":644129,"Delta":283326057},{"NoteNumber":53,"Velocity":28,"Duration":286915,"SoundDuration":286915,"Delta":283326057},{"NoteNumber":53,"Velocity":26,"Duration":293041,"SoundDuration":293041,"Delta":283645230},{"NoteNumber":70,"Velocity":39,"Duration":645286,"SoundDuration":645286,"Delta":283970187},{"NoteNumber":61,"Velocity":39,"Duration":645286,"SoundDuration":645286,"Delta":283970187},{"NoteNumber":53,"Velocity":29,"Duration":290097,"SoundDuration":290097,"Delta":283970187},{"NoteNumber":53,"Velocity":27,"Duration":290322,"SoundDuration":290322,"Delta":284292892},{"NoteNumber":55,"Velocity":37,"Duration":679374,"SoundDuration":679374,"Delta":284615473},{"NoteNumber":64,"Velocity":37,"Duration":679374,"SoundDuration":679374,"Delta":284615473},{"NoteNumber":53,"Velocity":29,"Duration":306818,"SoundDuration":306818,"Delta":284615473},{"NoteNumber":53,"Velocity":27,"Duration":306207,"SoundDuration":306207,"Delta":284956382},{"NoteNumber":56,"Velocity":42,"Duration":1941631,"SoundDuration":1941631,"Delta":285294847},{"NoteNumber":65,"Velocity":42,"Duration":1941631,"SoundDuration":1941631,"Delta":285294847},{"NoteNumber":41,"Velocity":34,"Duration":325472,"SoundDuration":325472,"Delta":285294847},{"NoteNumber":53,"Velocity":26,"Duration":290765,"SoundDuration":290765,"Delta":285620320},{"NoteNumber":53,"Velocity":28,"Duration":289917,"SoundDuration":289917,"Delta":285943344},{"NoteNumber":53,"Velocity":26,"Duration":295469,"SoundDuration":295469,"Delta":286265176},{"NoteNumber":53,"Velocity":25,"Duration":290437,"SoundDuration":290437,"Delta":286592561},{"NoteNumber":53,"Velocity":23,"Duration":289643,"SoundDuration":289643,"Delta":286914577},{"NoteNumber":72,"Velocity":34,"Duration":625489,"SoundDuration":625489,"Delta":287236479},{"NoteNumber":68,"Velocity":34,"Duration":625489,"SoundDuration":625489,"Delta":287236479},{"NoteNumber":53,"Velocity":26,"Duration":295779,"SoundDuration":295779,"Delta":287236479},{"NoteNumber":53,"Velocity":23,"Duration":296002,"SoundDuration":296002,"Delta":287565966},{"NoteNumber":72,"Velocity":35,"Duration":630829,"SoundDuration":630829,"Delta":287895676},{"NoteNumber":68,"Velocity":35,"Duration":630829,"SoundDuration":630829,"Delta":287895676},{"NoteNumber":53,"Velocity":28,"Duration":300201,"SoundDuration":300201,"Delta":287895676},{"NoteNumber":53,"Velocity":27,"Duration":296537,"SoundDuration":296537,"Delta":288229968},{"NoteNumber":68,"Velocity":34,"Duration":728818,"SoundDuration":728818,"Delta":288559114},{"NoteNumber":72,"Velocity":34,"Duration":728818,"SoundDuration":728818,"Delta":288559114},{"NoteNumber":53,"Velocity":28,"Duration":346153,"SoundDuration":346153,"Delta":288559114},{"NoteNumber":53,"Velocity":27,"Duration":344202,"SoundDuration":344202,"Delta":288943730},{"NoteNumber":72,"Velocity":38,"Duration":1953508,"SoundDuration":1953508,"Delta":289320542},{"NoteNumber":68,"Velocity":38,"Duration":1953508,"SoundDuration":1953508,"Delta":289320542},{"NoteNumber":64,"Velocity":38,"Duration":3341882,"SoundDuration":3341882,"Delta":289320542},{"NoteNumber":41,"Velocity":33,"Duration":325296,"SoundDuration":325296,"Delta":289320542},{"NoteNumber":53,"Velocity":22,"Duration":294367,"SoundDuration":294367,"Delta":289645838},{"NoteNumber":53,"Velocity":26,"Duration":292387,"SoundDuration":292387,"Delta":289972121},{"NoteNumber":53,"Velocity":24,"Duration":294012,"SoundDuration":294012,"Delta":290296766},{"NoteNumber":53,"Velocity":26,"Duration":291958,"SoundDuration":291958,"Delta":290623746},{"NoteNumber":53,"Velocity":23,"Duration":293127,"SoundDuration":293127,"Delta":290948314},{"NoteNumber":67,"Velocity":34,"Duration":693787,"SoundDuration":693787,"Delta":291274050},{"NoteNumber":70,"Velocity":34,"Duration":693787,"SoundDuration":693787,"Delta":291274050},{"NoteNumber":53,"Velocity":26,"Duration":311678,"SoundDuration":311678,"Delta":291274050},{"NoteNumber":53,"Velocity":23,"Duration":312332,"SoundDuration":312332,"Delta":291620212},{"NoteNumber":70,"Velocity":37,"Duration":694586,"SoundDuration":694586,"Delta":291967838},{"NoteNumber":73,"Velocity":37,"Duration":694586,"SoundDuration":694586,"Delta":291967838},{"NoteNumber":53,"Velocity":24,"Duration":310044,"SoundDuration":310044,"Delta":291967838},{"NoteNumber":53,"Velocity":22,"Duration":314363,"SoundDuration":314363,"Delta":292313176},{"NoteNumber":60,"Velocity":32,"Duration":857843,"SoundDuration":857843,"Delta":292662424},{"NoteNumber":64,"Velocity":32,"Duration":857843,"SoundDuration":857843,"Delta":292662424},{"NoteNumber":53,"Velocity":24,"Duration":375000,"SoundDuration":375000,"Delta":292662424},{"NoteNumber":58,"Velocity":32,"Duration":856871,"SoundDuration":856871,"Delta":292686730},{"NoteNumber":53,"Velocity":23,"Duration":397058,"SoundDuration":397058,"Delta":293079091},{"NoteNumber":65,"Velocity":32,"Duration":1600000,"SoundDuration":1600000,"Delta":293520267},{"NoteNumber":60,"Velocity":32,"Duration":1600000,"SoundDuration":1600000,"Delta":293520267},{"NoteNumber":56,"Velocity":32,"Duration":1600000,"SoundDuration":1600000,"Delta":293520267},{"NoteNumber":53,"Velocity":30,"Duration":1600000,"SoundDuration":1600000,"Delta":293520267},{"NoteNumber":72,"Velocity":50,"Duration":676710,"SoundDuration":676710,"Delta":295920267},{"NoteNumber":72,"Velocity":50,"Duration":674157,"SoundDuration":674157,"Delta":296596978},{"NoteNumber":72,"Velocity":50,"Duration":674157,"SoundDuration":674157,"Delta":297271136},{"NoteNumber":72,"Velocity":52,"Duration":325238,"SoundDuration":325238,"Delta":297945293},{"NoteNumber":53,"Velocity":34,"Duration":2582104,"SoundDuration":2582104,"Delta":297945293},{"NoteNumber":57,"Velocity":34,"Duration":2582104,"SoundDuration":2582104,"Delta":297945293},{"NoteNumber":60,"Velocity":34,"Duration":2582104,"SoundDuration":2582104,"Delta":297945293},{"NoteNumber":74,"Velocity":47,"Duration":108412,"SoundDuration":108412,"Delta":298270532},{"NoteNumber":72,"Velocity":46,"Duration":108412,"SoundDuration":108412,"Delta":298378945},{"NoteNumber":71,"Velocity":46,"Duration":108412,"SoundDuration":108412,"Delta":298487357},{"NoteNumber":72,"Velocity":52,"Duration":303030,"SoundDuration":303030,"Delta":298595770},{"NoteNumber":77,"Velocity":49,"Duration":309278,"SoundDuration":309278,"Delta":298898800},{"NoteNumber":72,"Velocity":47,"Duration":322580,"SoundDuration":322580,"Delta":299208079},{"NoteNumber":69,"Velocity":47,"Duration":674157,"SoundDuration":674157,"Delta":299853240},{"NoteNumber":72,"Velocity":48,"Duration":674157,"SoundDuration":674157,"Delta":300527398},{"NoteNumber":48,"Velocity":30,"Duration":1380206,"SoundDuration":1380206,"Delta":300527398},{"NoteNumber":55,"Velocity":30,"Duration":1380206,"SoundDuration":1380206,"Delta":300527398},{"NoteNumber":58,"Velocity":30,"Duration":1380206,"SoundDuration":1380206,"Delta":300527398},{"NoteNumber":64,"Velocity":47,"Duration":706048,"SoundDuration":706048,"Delta":301201555},{"NoteNumber":67,"Velocity":54,"Duration":1348315,"SoundDuration":1348315,"Delta":301907604},{"NoteNumber":50,"Velocity":37,"Duration":2022472,"SoundDuration":2022472,"Delta":301907604},{"NoteNumber":58,"Velocity":37,"Duration":1348315,"SoundDuration":1348315,"Delta":301907604},{"NoteNumber":65,"Velocity":48,"Duration":674157,"SoundDuration":674157,"Delta":303255919},{"NoteNumber":57,"Velocity":37,"Duration":674157,"SoundDuration":674157,"Delta":303255919},{"NoteNumber":60,"Velocity":40,"Duration":656167,"SoundDuration":656167,"Delta":303930076},{"NoteNumber":65,"Velocity":73,"Duration":656167,"SoundDuration":656167,"Delta":303930076},{"NoteNumber":45,"Velocity":57,"Duration":656167,"SoundDuration":656167,"Delta":303930076},{"NoteNumber":57,"Velocity":57,"Duration":656167,"SoundDuration":656167,"Delta":303930076},{"NoteNumber":64,"Velocity":51,"Duration":656168,"SoundDuration":656168,"Delta":304586244},{"NoteNumber":67,"Velocity":75,"Duration":656168,"SoundDuration":656168,"Delta":304586244},{"NoteNumber":43,"Velocity":59,"Duration":656168,"SoundDuration":656168,"Delta":304586244},{"NoteNumber":55,"Velocity":59,"Duration":656168,"SoundDuration":656168,"Delta":304586244},{"NoteNumber":65,"Velocity":52,"Duration":656167,"SoundDuration":656167,"Delta":305242412},{"NoteNumber":60,"Velocity":40,"Duration":656167,"SoundDuration":656167,"Delta":305242412},{"NoteNumber":69,"Velocity":76,"Duration":656167,"SoundDuration":656167,"Delta":305242412},{"NoteNumber":41,"Velocity":57,"Duration":656167,"SoundDuration":656167,"Delta":305242412},{"NoteNumber":53,"Velocity":57,"Duration":656167,"SoundDuration":656167,"Delta":305242412},{"NoteNumber":65,"Velocity":63,"Duration":960798,"SoundDuration":960798,"Delta":305898580},{"NoteNumber":70,"Velocity":77,"Duration":960798,"SoundDuration":960798,"Delta":305898580},{"NoteNumber":50,"Velocity":49,"Duration":656167,"SoundDuration":656167,"Delta":305898580},{"NoteNumber":62,"Velocity":56,"Duration":656167,"SoundDuration":656167,"Delta":305898580},{"NoteNumber":46,"Velocity":48,"Duration":592245,"SoundDuration":592245,"Delta":306554748},{"NoteNumber":58,"Velocity":54,"Duration":592245,"SoundDuration":592245,"Delta":306554748},{"NoteNumber":72,"Velocity":63,"Duration":137614,"SoundDuration":137614,"Delta":306859379},{"NoteNumber":74,"Velocity":57,"Duration":149999,"SoundDuration":149999,"Delta":306996993},{"NoteNumber":72,"Velocity":56,"Duration":333333,"SoundDuration":333333,"Delta":307146993},{"NoteNumber":45,"Velocity":24,"Duration":333333,"SoundDuration":333333,"Delta":307146993},{"NoteNumber":57,"Velocity":29,"Duration":333333,"SoundDuration":333333,"Delta":307146993},{"NoteNumber":65,"Velocity":51,"Duration":643914,"SoundDuration":643914,"Delta":307813660},{"NoteNumber":59,"Velocity":36,"Duration":1397337,"SoundDuration":1397337,"Delta":308457575},{"NoteNumber":64,"Velocity":52,"Duration":670241,"SoundDuration":670241,"Delta":308457575},{"NoteNumber":50,"Velocity":34,"Duration":1397337,"SoundDuration":1397337,"Delta":308457575},{"NoteNumber":65,"Velocity":45,"Duration":727096,"SoundDuration":727096,"Delta":309127816},{"NoteNumber":60,"Velocity":32,"Duration":2742305,"SoundDuration":2742305,"Delta":309854913},{"NoteNumber":65,"Velocity":32,"Duration":1398927,"SoundDuration":1398927,"Delta":309854913},{"NoteNumber":69,"Velocity":47,"Duration":1398927,"SoundDuration":1398927,"Delta":309854913},{"NoteNumber":48,"Velocity":27,"Duration":2742305,"SoundDuration":2742305,"Delta":309854913},{"NoteNumber":64,"Velocity":31,"Duration":699463,"SoundDuration":699463,"Delta":311253840},{"NoteNumber":67,"Velocity":46,"Duration":699463,"SoundDuration":699463,"Delta":311253840},{"NoteNumber":67,"Velocity":54,"Duration":643914,"SoundDuration":643914,"Delta":311953303},{"NoteNumber":67,"Velocity":59,"Duration":643914,"SoundDuration":643914,"Delta":312597218},{"NoteNumber":60,"Velocity":39,"Duration":1311574,"SoundDuration":1311574,"Delta":312597218},{"NoteNumber":64,"Velocity":39,"Duration":1311574,"SoundDuration":1311574,"Delta":312597218},{"NoteNumber":67,"Velocity":65,"Duration":494808,"SoundDuration":494808,"Delta":313241133},{"NoteNumber":67,"Velocity":65,"Duration":172850,"SoundDuration":172850,"Delta":313735942},{"NoteNumber":79,"Velocity":73,"Duration":965872,"SoundDuration":965872,"Delta":313908793},{"NoteNumber":59,"Velocity":51,"Duration":2575660,"SoundDuration":2575660,"Delta":313908793},{"NoteNumber":62,"Velocity":51,"Duration":2575660,"SoundDuration":2575660,"Delta":313908793},{"NoteNumber":65,"Velocity":51,"Duration":2575660,"SoundDuration":2575660,"Delta":313908793},{"NoteNumber":74,"Velocity":50,"Duration":160978,"SoundDuration":160978,"Delta":314874665},{"NoteNumber":71,"Velocity":46,"Duration":160978,"SoundDuration":160978,"Delta":315035644},{"NoteNumber":67,"Velocity":49,"Duration":643914,"SoundDuration":643914,"Delta":315196623},{"NoteNumber":67,"Velocity":59,"Duration":643915,"SoundDuration":643915,"Delta":315840538},{"NoteNumber":67,"Velocity":63,"Duration":643914,"SoundDuration":643914,"Delta":316484453},{"NoteNumber":60,"Velocity":43,"Duration":1339099,"SoundDuration":1339099,"Delta":316484453},{"NoteNumber":64,"Velocity":43,"Duration":1339099,"SoundDuration":1339099,"Delta":316484453},{"NoteNumber":67,"Velocity":69,"Duration":508571,"SoundDuration":508571,"Delta":317128368},{"NoteNumber":67,"Velocity":67,"Duration":186613,"SoundDuration":186613,"Delta":317636939},{"NoteNumber":79,"Velocity":72,"Duration":1806382,"SoundDuration":1806382,"Delta":317823552},{"NoteNumber":50,"Velocity":51,"Duration":1287829,"SoundDuration":1287829,"Delta":317823552},{"NoteNumber":53,"Velocity":51,"Duration":1287829,"SoundDuration":1287829,"Delta":317823552},{"NoteNumber":59,"Velocity":51,"Duration":1287829,"SoundDuration":1287829,"Delta":317823552},{"NoteNumber":52,"Velocity":37,"Duration":1382807,"SoundDuration":1382807,"Delta":319111382},{"NoteNumber":55,"Velocity":37,"Duration":1382807,"SoundDuration":1382807,"Delta":319111382},{"NoteNumber":60,"Velocity":37,"Duration":1382807,"SoundDuration":1382807,"Delta":319111382},{"NoteNumber":81,"Velocity":56,"Duration":86425,"SoundDuration":86425,"Delta":319629935},{"NoteNumber":83,"Velocity":49,"Duration":86425,"SoundDuration":86425,"Delta":319716360},{"NoteNumber":84,"Velocity":58,"Duration":345701,"SoundDuration":345701,"Delta":319802786},{"NoteNumber":83,"Velocity":51,"Duration":345701,"SoundDuration":345701,"Delta":320148488},{"NoteNumber":81,"Velocity":56,"Duration":325168,"SoundDuration":325168,"Delta":320494189},{"NoteNumber":79,"Velocity":50,"Duration":325167,"SoundDuration":325167,"Delta":320819357},{"NoteNumber":77,"Velocity":54,"Duration":325168,"SoundDuration":325168,"Delta":321144525},{"NoteNumber":76,"Velocity":52,"Duration":325168,"SoundDuration":325168,"Delta":321469693},{"NoteNumber":73,"Velocity":54,"Duration":338600,"SoundDuration":338600,"Delta":321794861},{"NoteNumber":74,"Velocity":49,"Duration":338600,"SoundDuration":338600,"Delta":322133462},{"NoteNumber":77,"Velocity":49,"Duration":338600,"SoundDuration":338600,"Delta":322472062},{"NoteNumber":62,"Velocity":30,"Duration":703475,"SoundDuration":703475,"Delta":322472062},{"NoteNumber":57,"Velocity":30,"Duration":703475,"SoundDuration":703475,"Delta":322472062},{"NoteNumber":53,"Velocity":30,"Duration":703475,"SoundDuration":703475,"Delta":322472062},{"NoteNumber":81,"Velocity":48,"Duration":364874,"SoundDuration":364874,"Delta":322810663},{"NoteNumber":72,"Velocity":54,"Duration":2031603,"SoundDuration":2031603,"Delta":323175538},{"NoteNumber":64,"Velocity":27,"Duration":1354401,"SoundDuration":1354401,"Delta":323175538},{"NoteNumber":60,"Velocity":21,"Duration":1354401,"SoundDuration":1354401,"Delta":323175538},{"NoteNumber":55,"Velocity":21,"Duration":2708803,"SoundDuration":2708803,"Delta":323175538},{"NoteNumber":65,"Velocity":29,"Duration":1354401,"SoundDuration":1354401,"Delta":324529940},{"NoteNumber":62,"Velocity":23,"Duration":1354401,"SoundDuration":1354401,"Delta":324529940},{"NoteNumber":76,"Velocity":48,"Duration":338600,"SoundDuration":338600,"Delta":325207141},{"NoteNumber":71,"Velocity":48,"Duration":677200,"SoundDuration":677200,"Delta":325207141},{"NoteNumber":74,"Velocity":47,"Duration":338600,"SoundDuration":338600,"Delta":325545741},{"NoteNumber":72,"Velocity":47,"Duration":1354401,"SoundDuration":1354401,"Delta":325884342},{"NoteNumber":64,"Velocity":34,"Duration":1354401,"SoundDuration":1354401,"Delta":325884342},{"NoteNumber":60,"Velocity":27,"Duration":1354401,"SoundDuration":1354401,"Delta":325884342},{"NoteNumber":48,"Velocity":29,"Duration":697674,"SoundDuration":697674,"Delta":327238744},{"NoteNumber":72,"Velocity":50,"Duration":645161,"SoundDuration":645161,"Delta":327936418},{"NoteNumber":74,"Velocity":54,"Duration":349462,"SoundDuration":349462,"Delta":328581580},{"NoteNumber":72,"Velocity":50,"Duration":349462,"SoundDuration":349462,"Delta":328904160},{"NoteNumber":70,"Velocity":55,"Duration":349462,"SoundDuration":349462,"Delta":329226741},{"NoteNumber":69,"Velocity":49,"Duration":350358,"SoundDuration":350358,"Delta":329549322},{"NoteNumber":67,"Velocity":61,"Duration":1333332,"SoundDuration":1333332,"Delta":329871903},{"NoteNumber":63,"Velocity":46,"Duration":1971631,"SoundDuration":1971631,"Delta":329871903},{"NoteNumber":60,"Velocity":46,"Duration":1971631,"SoundDuration":1971631,"Delta":329871903},{"NoteNumber":66,"Velocity":51,"Duration":625000,"SoundDuration":625000,"Delta":331205236},{"NoteNumber":66,"Velocity":63,"Duration":631578,"SoundDuration":631578,"Delta":331843534},{"NoteNumber":63,"Velocity":46,"Duration":631578,"SoundDuration":631578,"Delta":331843534},{"NoteNumber":60,"Velocity":46,"Duration":631578,"SoundDuration":631578,"Delta":331843534},{"NoteNumber":67,"Velocity":65,"Duration":631578,"SoundDuration":631578,"Delta":332475113},{"NoteNumber":62,"Velocity":47,"Duration":631578,"SoundDuration":631578,"Delta":332475113},{"NoteNumber":58,"Velocity":47,"Duration":631578,"SoundDuration":631578,"Delta":332475113},{"NoteNumber":66,"Velocity":52,"Duration":517241,"SoundDuration":517241,"Delta":333106692},{"NoteNumber":69,"Velocity":66,"Duration":517241,"SoundDuration":517241,"Delta":333106692},{"NoteNumber":57,"Velocity":47,"Duration":689655,"SoundDuration":689655,"Delta":333106692},{"NoteNumber":60,"Velocity":47,"Duration":689655,"SoundDuration":689655,"Delta":333106692},{"NoteNumber":62,"Velocity":47,"Duration":689655,"SoundDuration":689655,"Delta":333106692},{"NoteNumber":66,"Velocity":51,"Duration":1318681,"SoundDuration":1318681,"Delta":333796347},{"NoteNumber":69,"Velocity":65,"Duration":1318681,"SoundDuration":1318681,"Delta":333796347},{"NoteNumber":60,"Velocity":50,"Duration":1318681,"SoundDuration":1318681,"Delta":333796347},{"NoteNumber":62,"Velocity":50,"Duration":1978021,"SoundDuration":1978021,"Delta":333796347},{"NoteNumber":55,"Velocity":50,"Duration":1978021,"SoundDuration":1978021,"Delta":333796347},{"NoteNumber":67,"Velocity":45,"Duration":593406,"SoundDuration":593406,"Delta":335115028},{"NoteNumber":70,"Velocity":56,"Duration":593406,"SoundDuration":593406,"Delta":335115028},{"NoteNumber":58,"Velocity":48,"Duration":593406,"SoundDuration":593406,"Delta":335115028},{"NoteNumber":64,"Velocity":51,"Duration":638298,"SoundDuration":638298,"Delta":335774368},{"NoteNumber":61,"Velocity":44,"Duration":638298,"SoundDuration":638298,"Delta":335774368},{"NoteNumber":58,"Velocity":44,"Duration":638298,"SoundDuration":638298,"Delta":335774368},{"NoteNumber":65,"Velocity":55,"Duration":638297,"SoundDuration":638297,"Delta":336412666},{"NoteNumber":60,"Velocity":48,"Duration":638297,"SoundDuration":638297,"Delta":336412666},{"NoteNumber":57,"Velocity":48,"Duration":638297,"SoundDuration":638297,"Delta":336412666},{"NoteNumber":64,"Velocity":53,"Duration":478723,"SoundDuration":478723,"Delta":337050964},{"NoteNumber":67,"Velocity":53,"Duration":478723,"SoundDuration":478723,"Delta":337050964},{"NoteNumber":55,"Velocity":45,"Duration":638298,"SoundDuration":638298,"Delta":337050964},{"NoteNumber":58,"Velocity":45,"Duration":638298,"SoundDuration":638298,"Delta":337050964},{"NoteNumber":60,"Velocity":45,"Duration":638298,"SoundDuration":638298,"Delta":337050964},{"NoteNumber":65,"Velocity":56,"Duration":3205366,"SoundDuration":3205366,"Delta":337689262},{"NoteNumber":69,"Velocity":61,"Duration":638298,"SoundDuration":638298,"Delta":337689262},{"NoteNumber":53,"Velocity":48,"Duration":638298,"SoundDuration":638298,"Delta":337689262},{"NoteNumber":57,"Velocity":48,"Duration":638298,"SoundDuration":638298,"Delta":337689262},{"NoteNumber":60,"Velocity":48,"Duration":638298,"SoundDuration":638298,"Delta":337689262},{"NoteNumber":70,"Velocity":68,"Duration":638297,"SoundDuration":638297,"Delta":338327560},{"NoteNumber":50,"Velocity":50,"Duration":638297,"SoundDuration":638297,"Delta":338327560},{"NoteNumber":72,"Velocity":67,"Duration":638298,"SoundDuration":638298,"Delta":338965858},{"NoteNumber":45,"Velocity":56,"Duration":1276596,"SoundDuration":1276596,"Delta":338965858},{"NoteNumber":73,"Velocity":70,"Duration":638298,"SoundDuration":638298,"Delta":339604156},{"NoteNumber":76,"Velocity":72,"Duration":353260,"SoundDuration":353260,"Delta":340242454},{"NoteNumber":46,"Velocity":53,"Duration":652174,"SoundDuration":652174,"Delta":340242454},{"NoteNumber":74,"Velocity":65,"Duration":351999,"SoundDuration":351999,"Delta":340568541},{"NoteNumber":72,"Velocity":64,"Duration":339853,"SoundDuration":339853,"Delta":340894628},{"NoteNumber":43,"Velocity":46,"Duration":310945,"SoundDuration":310945,"Delta":340894628},{"NoteNumber":67,"Velocity":47,"Duration":374678,"SoundDuration":374678,"Delta":341205573},{"NoteNumber":70,"Velocity":58,"Duration":374678,"SoundDuration":374678,"Delta":341205573},{"NoteNumber":65,"Velocity":46,"Duration":1333332,"SoundDuration":1333332,"Delta":341552474},{"NoteNumber":69,"Velocity":57,"Duration":1333332,"SoundDuration":1333332,"Delta":341552474},{"NoteNumber":48,"Velocity":43,"Duration":2652173,"SoundDuration":2652173,"Delta":341552474},{"NoteNumber":64,"Velocity":40,"Duration":666666,"SoundDuration":666666,"Delta":342885807},{"NoteNumber":67,"Velocity":51,"Duration":666666,"SoundDuration":666666,"Delta":342885807},{"NoteNumber":72,"Velocity":65,"Duration":619565,"SoundDuration":619565,"Delta":343552474},{"NoteNumber":72,"Velocity":66,"Duration":619565,"SoundDuration":619565,"Delta":344204648},{"NoteNumber":72,"Velocity":72,"Duration":655172,"SoundDuration":655172,"Delta":344856822},{"NoteNumber":72,"Velocity":81,"Duration":6642801,"SoundDuration":6642801,"Delta":345546477},{"NoteNumber":82,"Velocity":81,"Duration":1956522,"SoundDuration":1956522,"Delta":345546477},{"NoteNumber":36,"Velocity":53,"Duration":978260,"SoundDuration":978260,"Delta":345546477},{"NoteNumber":48,"Velocity":64,"Duration":978260,"SoundDuration":978260,"Delta":345546477},{"NoteNumber":38,"Velocity":51,"Duration":326087,"SoundDuration":326087,"Delta":346524738},{"NoteNumber":50,"Velocity":60,"Duration":326087,"SoundDuration":326087,"Delta":346524738},{"NoteNumber":40,"Velocity":53,"Duration":489130,"SoundDuration":489130,"Delta":346850825},{"NoteNumber":52,"Velocity":64,"Duration":489130,"SoundDuration":489130,"Delta":346850825},{"NoteNumber":81,"Velocity":69,"Duration":638298,"SoundDuration":638298,"Delta":347502999},{"NoteNumber":41,"Velocity":40,"Duration":478723,"SoundDuration":478723,"Delta":347502999},{"NoteNumber":53,"Velocity":48,"Duration":478723,"SoundDuration":478723,"Delta":347502999},{"NoteNumber":70,"Velocity":58,"Duration":638297,"SoundDuration":638297,"Delta":348141297},{"NoteNumber":79,"Velocity":70,"Duration":638297,"SoundDuration":638297,"Delta":348141297},{"NoteNumber":43,"Velocity":45,"Duration":478723,"SoundDuration":478723,"Delta":348141297},{"NoteNumber":55,"Velocity":53,"Duration":478723,"SoundDuration":478723,"Delta":348141297},{"NoteNumber":69,"Velocity":56,"Duration":666666,"SoundDuration":666666,"Delta":348779595},{"NoteNumber":77,"Velocity":66,"Duration":666666,"SoundDuration":666666,"Delta":348779595},{"NoteNumber":45,"Velocity":42,"Duration":499999,"SoundDuration":499999,"Delta":348779595},{"NoteNumber":57,"Velocity":50,"Duration":499999,"SoundDuration":499999,"Delta":348779595},{"NoteNumber":67,"Velocity":55,"Duration":2743017,"SoundDuration":2743017,"Delta":349446261},{"NoteNumber":77,"Velocity":66,"Duration":1378675,"SoundDuration":1378675,"Delta":349446261},{"NoteNumber":46,"Velocity":45,"Duration":2743017,"SoundDuration":2743017,"Delta":349446261},{"NoteNumber":58,"Velocity":53,"Duration":2743017,"SoundDuration":2743017,"Delta":349446261},{"NoteNumber":76,"Velocity":56,"Duration":662790,"SoundDuration":662790,"Delta":350824937},{"NoteNumber":75,"Velocity":51,"Duration":633333,"SoundDuration":633333,"Delta":351522612},{"NoteNumber":75,"Velocity":50,"Duration":633333,"SoundDuration":633333,"Delta":352189278},{"NoteNumber":75,"Velocity":47,"Duration":627450,"SoundDuration":627450,"Delta":352855945},{"NoteNumber":75,"Velocity":39,"Duration":73053,"SoundDuration":73053,"Delta":353512807},{"NoteNumber":65,"Velocity":43,"Duration":1227352,"SoundDuration":1227352,"Delta":353512807},{"NoteNumber":60,"Velocity":37,"Duration":1227352,"SoundDuration":1227352,"Delta":353512807},{"NoteNumber":57,"Velocity":37,"Duration":1227352,"SoundDuration":1227352,"Delta":353512807},{"NoteNumber":77,"Velocity":39,"Duration":71886,"SoundDuration":71886,"Delta":353585861},{"NoteNumber":75,"Velocity":39,"Duration":71428,"SoundDuration":71428,"Delta":353657747},{"NoteNumber":77,"Velocity":40,"Duration":70534,"SoundDuration":70534,"Delta":353729176},{"NoteNumber":75,"Velocity":42,"Duration":69660,"SoundDuration":69660,"Delta":353799710},{"NoteNumber":77,"Velocity":40,"Duration":71208,"SoundDuration":71208,"Delta":353869371},{"NoteNumber":75,"Velocity":40,"Duration":73058,"SoundDuration":73058,"Delta":353940579},{"NoteNumber":77,"Velocity":40,"Duration":72481,"SoundDuration":72481,"Delta":354013637},{"NoteNumber":75,"Velocity":42,"Duration":313131,"SoundDuration":313131,"Delta":354086119},{"NoteNumber":77,"Velocity":47,"Duration":340909,"SoundDuration":340909,"Delta":354399251},{"NoteNumber":79,"Velocity":58,"Duration":681818,"SoundDuration":681818,"Delta":354740160},{"NoteNumber":60,"Velocity":37,"Duration":1363635,"SoundDuration":1363635,"Delta":354740160},{"NoteNumber":65,"Velocity":43,"Duration":1363635,"SoundDuration":1363635,"Delta":354740160},{"NoteNumber":57,"Velocity":37,"Duration":1363635,"SoundDuration":1363635,"Delta":354740160},{"NoteNumber":77,"Velocity":54,"Duration":340908,"SoundDuration":340908,"Delta":355421978},{"NoteNumber":75,"Velocity":51,"Duration":306818,"SoundDuration":306818,"Delta":355762887},{"NoteNumber":75,"Velocity":54,"Duration":340909,"SoundDuration":340909,"Delta":356103796},{"NoteNumber":65,"Velocity":37,"Duration":1414986,"SoundDuration":1414986,"Delta":356103796},{"NoteNumber":57,"Velocity":33,"Duration":1414986,"SoundDuration":1414986,"Delta":356103796},{"NoteNumber":63,"Velocity":37,"Duration":1414986,"SoundDuration":1414986,"Delta":356103796},{"NoteNumber":74,"Velocity":51,"Duration":306818,"SoundDuration":306818,"Delta":356444705},{"NoteNumber":74,"Velocity":53,"Duration":340909,"SoundDuration":340909,"Delta":356785614},{"NoteNumber":73,"Velocity":51,"Duration":353033,"SoundDuration":353033,"Delta":357126523},{"NoteNumber":73,"Velocity":55,"Duration":1356239,"SoundDuration":1356239,"Delta":357518782},{"NoteNumber":62,"Velocity":28,"Duration":2661351,"SoundDuration":2661351,"Delta":357518782},{"NoteNumber":58,"Velocity":28,"Duration":2661351,"SoundDuration":2661351,"Delta":357518782},{"NoteNumber":65,"Velocity":36,"Duration":2661351,"SoundDuration":2661351,"Delta":357518782},{"NoteNumber":74,"Velocity":51,"Duration":659951,"SoundDuration":659951,"Delta":358875021},{"NoteNumber":77,"Velocity":56,"Duration":322580,"SoundDuration":322580,"Delta":359534972},{"NoteNumber":76,"Velocity":53,"Duration":322580,"SoundDuration":322580,"Delta":359857553},{"NoteNumber":79,"Velocity":58,"Duration":322580,"SoundDuration":322580,"Delta":360180134},{"NoteNumber":77,"Velocity":53,"Duration":322580,"SoundDuration":322580,"Delta":360502714},{"NoteNumber":76,"Velocity":52,"Duration":357142,"SoundDuration":357142,"Delta":360825295},{"NoteNumber":74,"Velocity":49,"Duration":367088,"SoundDuration":367088,"Delta":361182438},{"NoteNumber":74,"Velocity":49,"Duration":1348315,"SoundDuration":1348315,"Delta":361562185},{"NoteNumber":58,"Velocity":28,"Duration":1348315,"SoundDuration":1348315,"Delta":361562185},{"NoteNumber":53,"Velocity":28,"Duration":2635291,"SoundDuration":2635291,"Delta":361562185},{"NoteNumber":62,"Velocity":35,"Duration":1348315,"SoundDuration":1348315,"Delta":361562185},{"NoteNumber":72,"Velocity":48,"Duration":674157,"SoundDuration":674157,"Delta":362910500},{"NoteNumber":57,"Velocity":26,"Duration":1286976,"SoundDuration":1286976,"Delta":362910500},{"NoteNumber":60,"Velocity":33,"Duration":1286976,"SoundDuration":1286976,"Delta":362910500},{"NoteNumber":77,"Velocity":57,"Duration":454924,"SoundDuration":454924,"Delta":363584657},{"NoteNumber":72,"Velocity":51,"Duration":157894,"SoundDuration":157894,"Delta":364039582},{"NoteNumber":81,"Velocity":65,"Duration":454924,"SoundDuration":454924,"Delta":364197476},{"NoteNumber":77,"Velocity":58,"Duration":157894,"SoundDuration":157894,"Delta":364652401},{"NoteNumber":72,"Velocity":66,"Duration":473684,"SoundDuration":473684,"Delta":364810296},{"NoteNumber":69,"Velocity":57,"Duration":157894,"SoundDuration":157894,"Delta":365283980},{"NoteNumber":72,"Velocity":69,"Duration":927834,"SoundDuration":927834,"Delta":365441875},{"NoteNumber":55,"Velocity":43,"Duration":1855669,"SoundDuration":1855669,"Delta":365441875},{"NoteNumber":60,"Velocity":43,"Duration":1855669,"SoundDuration":1855669,"Delta":365441875},{"NoteNumber":52,"Velocity":43,"Duration":1855669,"SoundDuration":1855669,"Delta":365441875},{"NoteNumber":71,"Velocity":65,"Duration":309278,"SoundDuration":309278,"Delta":366369709},{"NoteNumber":70,"Velocity":65,"Duration":618556,"SoundDuration":618556,"Delta":366678988},{"NoteNumber":64,"Velocity":67,"Duration":457894,"SoundDuration":457894,"Delta":367297544},{"NoteNumber":67,"Velocity":75,"Duration":615789,"SoundDuration":615789,"Delta":367297544},{"NoteNumber":46,"Velocity":42,"Duration":615789,"SoundDuration":615789,"Delta":367297544},{"NoteNumber":58,"Velocity":48,"Duration":615789,"SoundDuration":615789,"Delta":367297544},{"NoteNumber":60,"Velocity":64,"Duration":157894,"SoundDuration":157894,"Delta":367755439},{"NoteNumber":69,"Velocity":75,"Duration":609907,"SoundDuration":609907,"Delta":367913334},{"NoteNumber":65,"Velocity":67,"Duration":452012,"SoundDuration":452012,"Delta":367913334},{"NoteNumber":57,"Velocity":50,"Duration":609907,"SoundDuration":609907,"Delta":367913334},{"NoteNumber":45,"Velocity":44,"Duration":609907,"SoundDuration":609907,"Delta":367913334},{"NoteNumber":60,"Velocity":63,"Duration":157894,"SoundDuration":157894,"Delta":368365346},{"NoteNumber":67,"Velocity":67,"Duration":448756,"SoundDuration":448756,"Delta":368523241},{"NoteNumber":70,"Velocity":75,"Duration":603395,"SoundDuration":603395,"Delta":368523241},{"NoteNumber":43,"Velocity":44,"Duration":603395,"SoundDuration":603395,"Delta":368523241},{"NoteNumber":55,"Velocity":50,"Duration":603395,"SoundDuration":603395,"Delta":368523241},{"NoteNumber":60,"Velocity":64,"Duration":154639,"SoundDuration":154639,"Delta":368971998},{"NoteNumber":72,"Velocity":76,"Duration":352941,"SoundDuration":352941,"Delta":369126637},{"NoteNumber":69,"Velocity":61,"Duration":690020,"SoundDuration":690020,"Delta":369126637},{"NoteNumber":41,"Velocity":49,"Duration":690020,"SoundDuration":690020,"Delta":369126637},{"NoteNumber":53,"Velocity":54,"Duration":690020,"SoundDuration":690020,"Delta":369126637},{"NoteNumber":74,"Velocity":53,"Duration":337078,"SoundDuration":337078,"Delta":369479578},{"NoteNumber":76,"Velocity":57,"Duration":337078,"SoundDuration":337078,"Delta":369816657},{"NoteNumber":77,"Velocity":53,"Duration":337078,"SoundDuration":337078,"Delta":370153736},{"NoteNumber":60,"Velocity":38,"Duration":1978021,"SoundDuration":1978021,"Delta":370490814},{"NoteNumber":65,"Velocity":49,"Duration":1978021,"SoundDuration":1978021,"Delta":370490814},{"NoteNumber":57,"Velocity":37,"Duration":1318681,"SoundDuration":1318681,"Delta":370490814},{"NoteNumber":48,"Velocity":29,"Duration":2652178,"SoundDuration":2652178,"Delta":370490814},{"NoteNumber":58,"Velocity":29,"Duration":1333497,"SoundDuration":1333497,"Delta":371809495},{"NoteNumber":64,"Velocity":37,"Duration":674157,"SoundDuration":674157,"Delta":372468836},{"NoteNumber":69,"Velocity":47,"Duration":337078,"SoundDuration":337078,"Delta":372468836},{"NoteNumber":67,"Velocity":44,"Duration":337078,"SoundDuration":337078,"Delta":372805915},{"NoteNumber":65,"Velocity":47,"Duration":1348315,"SoundDuration":1348315,"Delta":373142993},{"NoteNumber":53,"Velocity":33,"Duration":1348315,"SoundDuration":1348315,"Delta":373142993},{"NoteNumber":57,"Velocity":33,"Duration":1348315,"SoundDuration":1348315,"Delta":373142993},{"NoteNumber":41,"Velocity":29,"Duration":697674,"SoundDuration":697674,"Delta":374491308},{"NoteNumber":60,"Velocity":33,"Duration":640449,"SoundDuration":640449,"Delta":375188983},{"NoteNumber":69,"Velocity":37,"Duration":640449,"SoundDuration":640449,"Delta":375188983},{"NoteNumber":60,"Velocity":36,"Duration":640449,"SoundDuration":640449,"Delta":375863140},{"NoteNumber":69,"Velocity":40,"Duration":640449,"SoundDuration":640449,"Delta":375863140},{"NoteNumber":60,"Velocity":33,"Duration":640449,"SoundDuration":640449,"Delta":376537298},{"NoteNumber":69,"Velocity":37,"Duration":640449,"SoundDuration":640449,"Delta":376537298},{"NoteNumber":69,"Velocity":40,"Duration":1956522,"SoundDuration":1956522,"Delta":377211455},{"NoteNumber":60,"Velocity":36,"Duration":1956522,"SoundDuration":1956522,"Delta":377211455},{"NoteNumber":41,"Velocity":40,"Duration":326086,"SoundDuration":326086,"Delta":377211455},{"NoteNumber":53,"Velocity":28,"Duration":293478,"SoundDuration":293478,"Delta":377537542},{"NoteNumber":53,"Velocity":29,"Duration":293478,"SoundDuration":293478,"Delta":377863629},{"NoteNumber":53,"Velocity":28,"Duration":293478,"SoundDuration":293478,"Delta":378189716},{"NoteNumber":53,"Velocity":32,"Duration":293478,"SoundDuration":293478,"Delta":378515803},{"NoteNumber":53,"Velocity":29,"Duration":293478,"SoundDuration":293478,"Delta":378841890},{"NoteNumber":65,"Velocity":42,"Duration":652174,"SoundDuration":652174,"Delta":379167977},{"NoteNumber":57,"Velocity":37,"Duration":652174,"SoundDuration":652174,"Delta":379167977},{"NoteNumber":53,"Velocity":29,"Duration":293478,"SoundDuration":293478,"Delta":379167977},{"NoteNumber":53,"Velocity":28,"Duration":293478,"SoundDuration":293478,"Delta":379494064},{"NoteNumber":67,"Velocity":39,"Duration":652174,"SoundDuration":652174,"Delta":379820151},{"NoteNumber":70,"Velocity":45,"Duration":652174,"SoundDuration":652174,"Delta":379820151},{"NoteNumber":53,"Velocity":32,"Duration":293478,"SoundDuration":293478,"Delta":379820151},{"NoteNumber":53,"Velocity":29,"Duration":293478,"SoundDuration":293478,"Delta":380146238},{"NoteNumber":64,"Velocity":37,"Duration":652174,"SoundDuration":652174,"Delta":380472325},{"NoteNumber":67,"Velocity":42,"Duration":652174,"SoundDuration":652174,"Delta":380472325},{"NoteNumber":53,"Velocity":30,"Duration":293478,"SoundDuration":293478,"Delta":380472325},{"NoteNumber":53,"Velocity":28,"Duration":293478,"SoundDuration":293478,"Delta":380798412},{"NoteNumber":72,"Velocity":49,"Duration":1956522,"SoundDuration":1956522,"Delta":381124499},{"NoteNumber":69,"Velocity":44,"Duration":1956522,"SoundDuration":1956522,"Delta":381124499},{"NoteNumber":41,"Velocity":40,"Duration":326086,"SoundDuration":326086,"Delta":381124499},{"NoteNumber":53,"Velocity":28,"Duration":293478,"SoundDuration":293478,"Delta":381450586},{"NoteNumber":53,"Velocity":31,"Duration":293478,"SoundDuration":293478,"Delta":381776673},{"NoteNumber":53,"Velocity":28,"Duration":293478,"SoundDuration":293478,"Delta":382102760},{"NoteNumber":38,"Velocity":48,"Duration":326086,"SoundDuration":326086,"Delta":382428847},{"NoteNumber":50,"Velocity":33,"Duration":293478,"SoundDuration":293478,"Delta":382754934},{"NoteNumber":77,"Velocity":54,"Duration":633333,"SoundDuration":633333,"Delta":383081021},{"NoteNumber":69,"Velocity":48,"Duration":633333,"SoundDuration":633333,"Delta":383081021},{"NoteNumber":50,"Velocity":37,"Duration":299999,"SoundDuration":299999,"Delta":383081021},{"NoteNumber":50,"Velocity":33,"Duration":299999,"SoundDuration":299999,"Delta":383414355},{"NoteNumber":69,"Velocity":50,"Duration":633333,"SoundDuration":633333,"Delta":383747688},{"NoteNumber":77,"Velocity":56,"Duration":633333,"SoundDuration":633333,"Delta":383747688},{"NoteNumber":35,"Velocity":50,"Duration":333333,"SoundDuration":333333,"Delta":383747688},{"NoteNumber":47,"Velocity":38,"Duration":299999,"SoundDuration":299999,"Delta":384081021},{"NoteNumber":77,"Velocity":53,"Duration":719656,"SoundDuration":719656,"Delta":384414354},{"NoteNumber":69,"Velocity":47,"Duration":719656,"SoundDuration":719656,"Delta":384414354},{"NoteNumber":47,"Velocity":42,"Duration":321428,"SoundDuration":321428,"Delta":384414354},{"NoteNumber":47,"Velocity":38,"Duration":362513,"SoundDuration":362513,"Delta":384771497},{"NoteNumber":69,"Velocity":47,"Duration":1989390,"SoundDuration":1989390,"Delta":385174290},{"NoteNumber":65,"Velocity":42,"Duration":1989390,"SoundDuration":1989390,"Delta":385174290},{"NoteNumber":36,"Velocity":33,"Duration":331565,"SoundDuration":331565,"Delta":385174290},{"NoteNumber":48,"Velocity":26,"Duration":298408,"SoundDuration":298408,"Delta":385505855},{"NoteNumber":48,"Velocity":28,"Duration":298408,"SoundDuration":298408,"Delta":385837420},{"NoteNumber":48,"Velocity":26,"Duration":298408,"SoundDuration":298408,"Delta":386168985},{"NoteNumber":48,"Velocity":30,"Duration":298408,"SoundDuration":298408,"Delta":386500550},{"NoteNumber":48,"Velocity":22,"Duration":298408,"SoundDuration":298408,"Delta":386832115},{"NoteNumber":69,"Velocity":30,"Duration":697674,"SoundDuration":697674,"Delta":387163680},{"NoteNumber":72,"Velocity":34,"Duration":697674,"SoundDuration":697674,"Delta":387163680},{"NoteNumber":48,"Velocity":25,"Duration":313953,"SoundDuration":313953,"Delta":387163680},{"NoteNumber":48,"Velocity":23,"Duration":313953,"SoundDuration":313953,"Delta":387512517},{"NoteNumber":67,"Velocity":29,"Duration":710227,"SoundDuration":710227,"Delta":387861354},{"NoteNumber":70,"Velocity":33,"Duration":710227,"SoundDuration":710227,"Delta":387861354},{"NoteNumber":48,"Velocity":28,"Duration":319602,"SoundDuration":319602,"Delta":387861354},{"NoteNumber":48,"Velocity":24,"Duration":319602,"SoundDuration":319602,"Delta":388216468},{"NoteNumber":64,"Velocity":30,"Duration":1045558,"SoundDuration":1045558,"Delta":388571582},{"NoteNumber":58,"Velocity":27,"Duration":1045558,"SoundDuration":1045558,"Delta":388571582},{"NoteNumber":67,"Velocity":30,"Duration":1045558,"SoundDuration":1045558,"Delta":388571582},{"NoteNumber":48,"Velocity":26,"Duration":406137,"SoundDuration":406137,"Delta":388571582},{"NoteNumber":48,"Velocity":24,"Duration":534865,"SoundDuration":534865,"Delta":389022845},{"NoteNumber":65,"Velocity":30,"Duration":1411765,"SoundDuration":1411765,"Delta":389617140},{"NoteNumber":57,"Velocity":27,"Duration":1411765,"SoundDuration":1411765,"Delta":389617140},{"NoteNumber":41,"Velocity":28,"Duration":1411765,"SoundDuration":1411765,"Delta":389617140}]}