{"title":"3. Satz","artist":"Piano","durationMs":482099,"midiSha256":"3bc020a0db4c27274e8faff04487386571323ac1585931ffe8ece874975dec2a","midiObject":[{"NoteNumber":76,"Velocity":60,"Duration":512272,"SoundDuration":512272,"Delta":0},{"NoteNumber":48,"Velocity":40,"Duration":342466,"SoundDuration":342466,"Delta":341040},{"NoteNumber":77,"Velocity":54,"Duration":85616,"SoundDuration":85616,"Delta":512273},{"NoteNumber":79,"Velocity":54,"Duration":85616,"SoundDuration":85616,"Delta":597889},{"NoteNumber":72,"Velocity":60,"Duration":342466,"SoundDuration":342466,"Delta":683506},{"NoteNumber":52,"Velocity":40,"Duration":342466,"SoundDuration":342466,"Delta":683506},{"NoteNumber":71,"Velocity":49,"Duration":342465,"SoundDuration":342465,"Delta":1025972},{"NoteNumber":74,"Velocity":49,"Duration":342465,"SoundDuration":342465,"Delta":1025972},{"NoteNumber":55,"Velocity":40,"Duration":342465,"SoundDuration":342465,"Delta":1025972},{"NoteNumber":71,"Velocity":53,"Duration":342465,"SoundDuration":342465,"Delta":1368438},{"NoteNumber":74,"Velocity":53,"Duration":256849,"SoundDuration":256849,"Delta":1368438},{"NoteNumber":60,"Velocity":43,"Duration":342465,"SoundDuration":342465,"Delta":1368438},{"NoteNumber":77,"Velocity":48,"Duration":85616,"SoundDuration":85616,"Delta":1625287},{"NoteNumber":76,"Velocity":53,"Duration":342466,"SoundDuration":342466,"Delta":1710904},{"NoteNumber":72,"Velocity":53,"Duration":342466,"SoundDuration":342466,"Delta":1710904},{"NoteNumber":48,"Velocity":40,"Duration":342466,"SoundDuration":342466,"Delta":1710904},{"NoteNumber":71,"Velocity":50,"Duration":734111,"SoundDuration":734111,"Delta":2053370},{"NoteNumber":74,"Velocity":50,"Duration":734111,"SoundDuration":734111,"Delta":2053370},{"NoteNumber":55,"Velocity":43,"Duration":349446,"SoundDuration":349446,"Delta":2053370},{"NoteNumber":43,"Velocity":40,"Duration":384664,"SoundDuration":384664,"Delta":2402816},{"NoteNumber":76,"Velocity":60,"Duration":513698,"SoundDuration":513698,"Delta":2787481},{"NoteNumber":48,"Velocity":40,"Duration":342465,"SoundDuration":342465,"Delta":3129947},{"NoteNumber":77,"Velocity":56,"Duration":85616,"SoundDuration":85616,"Delta":3301180},{"NoteNumber":79,"Velocity":56,"Duration":85616,"SoundDuration":85616,"Delta":3386796},{"NoteNumber":72,"Velocity":61,"Duration":342465,"SoundDuration":342465,"Delta":3472413},{"NoteNumber":52,"Velocity":40,"Duration":342465,"SoundDuration":342465,"Delta":3472413},{"NoteNumber":74,"Velocity":49,"Duration":171232,"SoundDuration":171232,"Delta":3814879},{"NoteNumber":71,"Velocity":49,"Duration":171232,"SoundDuration":171232,"Delta":3814879},{"NoteNumber":55,"Velocity":43,"Duration":342465,"SoundDuration":342465,"Delta":3814879},{"NoteNumber":74,"Velocity":54,"Duration":342465,"SoundDuration":342465,"Delta":4157345},{"NoteNumber":77,"Velocity":54,"Duration":342465,"SoundDuration":342465,"Delta":4157345},{"NoteNumber":60,"Velocity":44,"Duration":342465,"SoundDuration":342465,"Delta":4157345},{"NoteNumber":76,"Velocity":49,"Duration":69220,"SoundDuration":69220,"Delta":4499811},{"NoteNumber":72,"Velocity":49,"Duration":346100,"SoundDuration":346100,"Delta":4499811},{"NoteNumber":48,"Velocity":41,"Duration":346100,"SoundDuration":346100,"Delta":4499811},{"NoteNumber":77,"Velocity":49,"Duration":69220,"SoundDuration":69220,"Delta":4569031},{"NoteNumber":76,"Velocity":49,"Duration":69220,"SoundDuration":69220,"Delta":4638251},{"NoteNumber":77,"Velocity":49,"Duration":69220,"SoundDuration":69220,"Delta":4707471},{"NoteNumber":76,"Velocity":49,"Duration":69220,"SoundDuration":69220,"Delta":4776691},{"NoteNumber":71,"Velocity":52,"Duration":724493,"SoundDuration":724493,"Delta":4845911},{"NoteNumber":74,"Velocity":52,"Duration":724493,"SoundDuration":724493,"Delta":4845911},{"NoteNumber":55,"Velocity":43,"Duration":349446,"SoundDuration":349446,"Delta":4845911},{"NoteNumber":43,"Velocity":41,"Duration":375047,"SoundDuration":375047,"Delta":5195358},{"NoteNumber":77,"Velocity":64,"Duration":513698,"SoundDuration":513698,"Delta":5570405},{"NoteNumber":57,"Velocity":47,"Duration":342465,"SoundDuration":342465,"Delta":5570405},{"NoteNumber":60,"Velocity":46,"Duration":342465,"SoundDuration":342465,"Delta":5912871},{"NoteNumber":79,"Velocity":60,"Duration":85616,"SoundDuration":85616,"Delta":6084104},{"NoteNumber":77,"Velocity":60,"Duration":85616,"SoundDuration":85616,"Delta":6169720},{"NoteNumber":76,"Velocity":64,"Duration":342465,"SoundDuration":342465,"Delta":6255337},{"NoteNumber":55,"Velocity":49,"Duration":342465,"SoundDuration":342465,"Delta":6255337},{"NoteNumber":76,"Velocity":62,"Duration":174927,"SoundDuration":174927,"Delta":6597803},{"NoteNumber":60,"Velocity":45,"Duration":349853,"SoundDuration":349853,"Delta":6597803},{"NoteNumber":81,"Velocity":69,"Duration":513698,"SoundDuration":513698,"Delta":6947657},{"NoteNumber":53,"Velocity":49,"Duration":342465,"SoundDuration":342465,"Delta":6947657},{"NoteNumber":60,"Velocity":47,"Duration":342465,"SoundDuration":342465,"Delta":7290123},{"NoteNumber":83,"Velocity":63,"Duration":85616,"SoundDuration":85616,"Delta":7461356},{"NoteNumber":84,"Velocity":63,"Duration":85616,"SoundDuration":85616,"Delta":7546972},{"NoteNumber":79,"Velocity":69,"Duration":342465,"SoundDuration":342465,"Delta":7632589},{"NoteNumber":52,"Velocity":50,"Duration":342465,"SoundDuration":342465,"Delta":7632589},{"NoteNumber":79,"Velocity":69,"Duration":171233,"SoundDuration":171233,"Delta":7975055},{"NoteNumber":60,"Velocity":46,"Duration":342465,"SoundDuration":342465,"Delta":7975055},{"NoteNumber":79,"Velocity":68,"Duration":171233,"SoundDuration":171233,"Delta":8317521},{"NoteNumber":77,"Velocity":63,"Duration":128424,"SoundDuration":128424,"Delta":8488754},{"NoteNumber":77,"Velocity":64,"Duration":171233,"SoundDuration":171233,"Delta":8659987},{"NoteNumber":67,"Velocity":43,"Duration":342465,"SoundDuration":342465,"Delta":8659987},{"NoteNumber":59,"Velocity":43,"Duration":342465,"SoundDuration":342465,"Delta":8659987},{"NoteNumber":74,"Velocity":63,"Duration":128424,"SoundDuration":128424,"Delta":8831220},{"NoteNumber":77,"Velocity":69,"Duration":171233,"SoundDuration":171233,"Delta":9002453},{"NoteNumber":76,"Velocity":64,"Duration":128424,"SoundDuration":128424,"Delta":9173686},{"NoteNumber":76,"Velocity":66,"Duration":171233,"SoundDuration":171233,"Delta":9344919},{"NoteNumber":67,"Velocity":43,"Duration":342465,"SoundDuration":342465,"Delta":9344919},{"NoteNumber":60,"Velocity":43,"Duration":342465,"SoundDuration":342465,"Delta":9344919},{"NoteNumber":72,"Velocity":64,"Duration":128424,"SoundDuration":128424,"Delta":9516152},{"NoteNumber":73,"Velocity":64,"Duration":171233,"SoundDuration":171233,"Delta":9687385},{"NoteNumber":59,"Velocity":44,"Duration":688560,"SoundDuration":688560,"Delta":9687385},{"NoteNumber":55,"Velocity":44,"Duration":688560,"SoundDuration":688560,"Delta":9687385},{"NoteNumber":74,"Velocity":60,"Duration":171835,"SoundDuration":171835,"Delta":9858618},{"NoteNumber":76,"Velocity":64,"Duration":172441,"SoundDuration":172441,"Delta":10030453},{"NoteNumber":74,"Velocity":62,"Duration":173050,"SoundDuration":173050,"Delta":10202894},{"NoteNumber":72,"Velocity":63,"Duration":173993,"SoundDuration":173993,"Delta":10375945},{"NoteNumber":71,"Velocity":61,"Duration":174615,"SoundDuration":174615,"Delta":10549938},{"NoteNumber":69,"Velocity":61,"Duration":175241,"SoundDuration":175241,"Delta":10724554},{"NoteNumber":67,"Velocity":60,"Duration":186057,"SoundDuration":186057,"Delta":10899796},{"NoteNumber":76,"Velocity":70,"Duration":513699,"SoundDuration":513699,"Delta":11085854},{"NoteNumber":36,"Velocity":64,"Duration":171233,"SoundDuration":171233,"Delta":11085854},{"NoteNumber":40,"Velocity":56,"Duration":171232,"SoundDuration":171232,"Delta":11257087},{"NoteNumber":43,"Velocity":57,"Duration":171233,"SoundDuration":171233,"Delta":11428320},{"NoteNumber":77,"Velocity":64,"Duration":85616,"SoundDuration":85616,"Delta":11599553},{"NoteNumber":48,"Velocity":56,"Duration":171232,"SoundDuration":171232,"Delta":11599553},{"NoteNumber":79,"Velocity":64,"Duration":85616,"SoundDuration":85616,"Delta":11685169},{"NoteNumber":72,"Velocity":70,"Duration":342465,"SoundDuration":342465,"Delta":11770786},{"NoteNumber":40,"Velocity":60,"Duration":171233,"SoundDuration":171233,"Delta":11770786},{"NoteNumber":52,"Velocity":57,"Duration":171232,"SoundDuration":171232,"Delta":11942019},{"NoteNumber":74,"Velocity":60,"Duration":342465,"SoundDuration":342465,"Delta":12113252},{"NoteNumber":71,"Velocity":60,"Duration":342465,"SoundDuration":342465,"Delta":12113252},{"NoteNumber":43,"Velocity":60,"Duration":171233,"SoundDuration":171233,"Delta":12113252},{"NoteNumber":55,"Velocity":57,"Duration":171232,"SoundDuration":171232,"Delta":12284485},{"NoteNumber":74,"Velocity":63,"Duration":256849,"SoundDuration":256849,"Delta":12455718},{"NoteNumber":71,"Velocity":63,"Duration":342465,"SoundDuration":342465,"Delta":12455718},{"NoteNumber":48,"Velocity":60,"Duration":171233,"SoundDuration":171233,"Delta":12455718},{"NoteNumber":52,"Velocity":55,"Duration":171232,"SoundDuration":171232,"Delta":12626951},{"NoteNumber":77,"Velocity":57,"Duration":85616,"SoundDuration":85616,"Delta":12712567},{"NoteNumber":72,"Velocity":63,"Duration":342465,"SoundDuration":342465,"Delta":12798184},{"NoteNumber":76,"Velocity":63,"Duration":342465,"SoundDuration":342465,"Delta":12798184},{"NoteNumber":55,"Velocity":57,"Duration":171233,"SoundDuration":171233,"Delta":12798184},{"NoteNumber":60,"Velocity":56,"Duration":171232,"SoundDuration":171232,"Delta":12969417},{"NoteNumber":71,"Velocity":61,"Duration":711999,"SoundDuration":711999,"Delta":13140650},{"NoteNumber":74,"Velocity":61,"Duration":711999,"SoundDuration":711999,"Delta":13140650},{"NoteNumber":43,"Velocity":60,"Duration":173050,"SoundDuration":173050,"Delta":13140650},{"NoteNumber":47,"Velocity":57,"Duration":173050,"SoundDuration":173050,"Delta":13313700},{"NoteNumber":50,"Velocity":59,"Duration":182949,"SoundDuration":182949,"Delta":13486750},{"NoteNumber":55,"Velocity":57,"Duration":182949,"SoundDuration":182949,"Delta":13669699},{"NoteNumber":76,"Velocity":70,"Duration":513699,"SoundDuration":513699,"Delta":13852649},{"NoteNumber":36,"Velocity":60,"Duration":171233,"SoundDuration":171233,"Delta":13852649},{"NoteNumber":40,"Velocity":56,"Duration":171232,"SoundDuration":171232,"Delta":14023882},{"NoteNumber":43,"Velocity":57,"Duration":171233,"SoundDuration":171233,"Delta":14195115},{"NoteNumber":77,"Velocity":67,"Duration":85616,"SoundDuration":85616,"Delta":14366348},{"NoteNumber":48,"Velocity":55,"Duration":171232,"SoundDuration":171232,"Delta":14366348},{"NoteNumber":79,"Velocity":67,"Duration":85616,"SoundDuration":85616,"Delta":14451964},{"NoteNumber":72,"Velocity":71,"Duration":342465,"SoundDuration":342465,"Delta":14537581},{"NoteNumber":40,"Velocity":60,"Duration":171233,"SoundDuration":171233,"Delta":14537581},{"NoteNumber":52,"Velocity":57,"Duration":171232,"SoundDuration":171232,"Delta":14708814},{"NoteNumber":74,"Velocity":60,"Duration":171233,"SoundDuration":171233,"Delta":14880047},{"NoteNumber":71,"Velocity":60,"Duration":171233,"SoundDuration":171233,"Delta":14880047},{"NoteNumber":43,"Velocity":58,"Duration":171233,"SoundDuration":171233,"Delta":14880047},{"NoteNumber":55,"Velocity":57,"Duration":171232,"SoundDuration":171232,"Delta":15051280},{"NoteNumber":77,"Velocity":64,"Duration":342465,"SoundDuration":342465,"Delta":15222513},{"NoteNumber":74,"Velocity":64,"Duration":342465,"SoundDuration":342465,"Delta":15222513},{"NoteNumber":48,"Velocity":60,"Duration":171233,"SoundDuration":171233,"Delta":15222513},{"NoteNumber":52,"Velocity":55,"Duration":171232,"SoundDuration":171232,"Delta":15393746},{"NoteNumber":72,"Velocity":60,"Duration":346100,"SoundDuration":346100,"Delta":15564979},{"NoteNumber":76,"Velocity":60,"Duration":69220,"SoundDuration":69220,"Delta":15564979},{"NoteNumber":55,"Velocity":57,"Duration":173050,"SoundDuration":173050,"Delta":15564979},{"NoteNumber":77,"Velocity":60,"Duration":69220,"SoundDuration":69220,"Delta":15634199},{"NoteNumber":76,"Velocity":60,"Duration":69220,"SoundDuration":69220,"Delta":15703419},{"NoteNumber":60,"Velocity":56,"Duration":173050,"SoundDuration":173050,"Delta":15738029},{"NoteNumber":77,"Velocity":60,"Duration":69220,"SoundDuration":69220,"Delta":15772639},{"NoteNumber":76,"Velocity":60,"Duration":69220,"SoundDuration":69220,"Delta":15841859},{"NoteNumber":71,"Velocity":62,"Duration":711483,"SoundDuration":711483,"Delta":15911079},{"NoteNumber":74,"Velocity":62,"Duration":711483,"SoundDuration":711483,"Delta":15911079},{"NoteNumber":43,"Velocity":62,"Duration":173050,"SoundDuration":173050,"Delta":15911079},{"NoteNumber":47,"Velocity":56,"Duration":173050,"SoundDuration":173050,"Delta":16084129},{"NoteNumber":50,"Velocity":57,"Duration":173050,"SoundDuration":173050,"Delta":16257180},{"NoteNumber":55,"Velocity":56,"Duration":192332,"SoundDuration":192332,"Delta":16430230},{"NoteNumber":77,"Velocity":77,"Duration":513698,"SoundDuration":513698,"Delta":16622562},{"NoteNumber":57,"Velocity":53,"Duration":171233,"SoundDuration":171233,"Delta":16622562},{"NoteNumber":60,"Velocity":49,"Duration":171233,"SoundDuration":171233,"Delta":16793795},{"NoteNumber":57,"Velocity":53,"Duration":171232,"SoundDuration":171232,"Delta":16965028},{"NoteNumber":79,"Velocity":70,"Duration":85616,"SoundDuration":85616,"Delta":17136261},{"NoteNumber":60,"Velocity":49,"Duration":171233,"SoundDuration":171233,"Delta":17136261},{"NoteNumber":77,"Velocity":70,"Duration":85616,"SoundDuration":85616,"Delta":17221878},{"NoteNumber":76,"Velocity":77,"Duration":342466,"SoundDuration":342466,"Delta":17307494},{"NoteNumber":55,"Velocity":53,"Duration":171233,"SoundDuration":171233,"Delta":17307494},{"NoteNumber":60,"Velocity":50,"Duration":171233,"SoundDuration":171233,"Delta":17478727},{"NoteNumber":76,"Velocity":74,"Duration":174927,"SoundDuration":174927,"Delta":17649960},{"NoteNumber":55,"Velocity":53,"Duration":174927,"SoundDuration":174927,"Delta":17649960},{"NoteNumber":60,"Velocity":50,"Duration":174927,"SoundDuration":174927,"Delta":17824887},{"NoteNumber":81,"Velocity":78,"Duration":513698,"SoundDuration":513698,"Delta":17999814},{"NoteNumber":53,"Velocity":57,"Duration":171233,"SoundDuration":171233,"Delta":17999814},{"NoteNumber":60,"Velocity":53,"Duration":171233,"SoundDuration":171233,"Delta":18171047},{"NoteNumber":53,"Velocity":57,"Duration":171232,"SoundDuration":171232,"Delta":18342280},{"NoteNumber":83,"Velocity":71,"Duration":85616,"SoundDuration":85616,"Delta":18513513},{"NoteNumber":60,"Velocity":53,"Duration":171233,"SoundDuration":171233,"Delta":18513513},{"NoteNumber":84,"Velocity":69,"Duration":85616,"SoundDuration":85616,"Delta":18599130},{"NoteNumber":79,"Velocity":79,"Duration":342466,"SoundDuration":342466,"Delta":18684746},{"NoteNumber":52,"Velocity":57,"Duration":171233,"SoundDuration":171233,"Delta":18684746},{"NoteNumber":60,"Velocity":53,"Duration":171233,"SoundDuration":171233,"Delta":18855979},{"NoteNumber":79,"Velocity":77,"Duration":171232,"SoundDuration":171232,"Delta":19027212},{"NoteNumber":52,"Velocity":57,"Duration":171232,"SoundDuration":171232,"Delta":19027212},{"NoteNumber":60,"Velocity":52,"Duration":171233,"SoundDuration":171233,"Delta":19198445},{"NoteNumber":80,"Velocity":77,"Duration":173993,"SoundDuration":173993,"Delta":19369678},{"NoteNumber":81,"Velocity":74,"Duration":173993,"SoundDuration":173993,"Delta":19543672},{"NoteNumber":77,"Velocity":75,"Duration":171233,"SoundDuration":171233,"Delta":19717666},{"NoteNumber":62,"Velocity":49,"Duration":171233,"SoundDuration":171233,"Delta":19717666},{"NoteNumber":53,"Velocity":49,"Duration":171233,"SoundDuration":171233,"Delta":19717666},{"NoteNumber":74,"Velocity":72,"Duration":171233,"SoundDuration":171233,"Delta":19888899},{"NoteNumber":72,"Velocity":75,"Duration":359496,"SoundDuration":359496,"Delta":20060132},{"NoteNumber":64,"Velocity":49,"Duration":359496,"SoundDuration":359496,"Delta":20060132},{"NoteNumber":55,"Velocity":49,"Duration":739291,"SoundDuration":739291,"Delta":20060132},{"NoteNumber":71,"Velocity":71,"Duration":379795,"SoundDuration":379795,"Delta":20419628},{"NoteNumber":62,"Velocity":49,"Duration":379795,"SoundDuration":379795,"Delta":20419628},{"NoteNumber":72,"Velocity":75,"Duration":115995,"SoundDuration":115995,"Delta":20799423},{"NoteNumber":64,"Velocity":49,"Duration":695975,"SoundDuration":695975,"Delta":20799423},{"NoteNumber":60,"Velocity":49,"Duration":695975,"SoundDuration":695975,"Delta":20799423},{"NoteNumber":67,"Velocity":69,"Duration":115995,"SoundDuration":115995,"Delta":20915419},{"NoteNumber":76,"Velocity":66,"Duration":115995,"SoundDuration":115995,"Delta":21031415},{"NoteNumber":72,"Velocity":75,"Duration":115995,"SoundDuration":115995,"Delta":21147411},{"NoteNumber":79,"Velocity":69,"Duration":115995,"SoundDuration":115995,"Delta":21263407},{"NoteNumber":76,"Velocity":66,"Duration":115995,"SoundDuration":115995,"Delta":21379402},{"NoteNumber":84,"Velocity":73,"Duration":114155,"SoundDuration":114155,"Delta":21495398},{"NoteNumber":83,"Velocity":66,"Duration":114155,"SoundDuration":114155,"Delta":21609554},{"NoteNumber":81,"Velocity":65,"Duration":114155,"SoundDuration":114155,"Delta":21723709},{"NoteNumber":79,"Velocity":70,"Duration":114155,"SoundDuration":114155,"Delta":21837864},{"NoteNumber":77,"Velocity":67,"Duration":114155,"SoundDuration":114155,"Delta":21952020},{"NoteNumber":76,"Velocity":65,"Duration":114155,"SoundDuration":114155,"Delta":22066175},{"NoteNumber":73,"Velocity":63,"Duration":116617,"SoundDuration":116617,"Delta":22180330},{"NoteNumber":74,"Velocity":60,"Duration":116618,"SoundDuration":116618,"Delta":22296948},{"NoteNumber":77,"Velocity":60,"Duration":116617,"SoundDuration":116617,"Delta":22413566},{"NoteNumber":81,"Velocity":62,"Duration":113700,"SoundDuration":113700,"Delta":22530184},{"NoteNumber":62,"Velocity":38,"Duration":341103,"SoundDuration":341103,"Delta":22530184},{"NoteNumber":53,"Velocity":38,"Duration":341103,"SoundDuration":341103,"Delta":22530184},{"NoteNumber":57,"Velocity":38,"Duration":341103,"SoundDuration":341103,"Delta":22530184},{"NoteNumber":77,"Velocity":57,"Duration":113701,"SoundDuration":113701,"Delta":22643885},{"NoteNumber":74,"Velocity":57,"Duration":113700,"SoundDuration":113700,"Delta":22757586},{"NoteNumber":79,"Velocity":61,"Duration":113700,"SoundDuration":113700,"Delta":22871287},{"NoteNumber":60,"Velocity":38,"Duration":341103,"SoundDuration":341103,"Delta":22871287},{"NoteNumber":64,"Velocity":38,"Duration":341103,"SoundDuration":341103,"Delta":22871287},{"NoteNumber":55,"Velocity":38,"Duration":711546,"SoundDuration":711546,"Delta":22871287},{"NoteNumber":76,"Velocity":57,"Duration":113701,"SoundDuration":113701,"Delta":22984988},{"NoteNumber":72,"Velocity":57,"Duration":113700,"SoundDuration":113700,"Delta":23098689},{"NoteNumber":77,"Velocity":61,"Duration":115767,"SoundDuration":115767,"Delta":23212390},{"NoteNumber":65,"Velocity":44,"Duration":370443,"SoundDuration":370443,"Delta":23212390},{"NoteNumber":62,"Velocity":44,"Duration":370443,"SoundDuration":370443,"Delta":23212390},{"NoteNumber":74,"Velocity":55,"Duration":115767,"SoundDuration":115767,"Delta":23328158},{"NoteNumber":71,"Velocity":55,"Duration":138908,"SoundDuration":138908,"Delta":23443925},{"NoteNumber":72,"Velocity":75,"Duration":116292,"SoundDuration":116292,"Delta":23582833},{"NoteNumber":60,"Velocity":49,"Duration":697756,"SoundDuration":697756,"Delta":23582833},{"NoteNumber":64,"Velocity":49,"Duration":697756,"SoundDuration":697756,"Delta":23582833},{"NoteNumber":67,"Velocity":69,"Duration":116292,"SoundDuration":116292,"Delta":23699126},{"NoteNumber":76,"Velocity":67,"Duration":116292,"SoundDuration":116292,"Delta":23815419},{"NoteNumber":72,"Velocity":75,"Duration":116292,"SoundDuration":116292,"Delta":23931711},{"NoteNumber":79,"Velocity":69,"Duration":116292,"SoundDuration":116292,"Delta":24048004},{"NoteNumber":76,"Velocity":67,"Duration":116292,"SoundDuration":116292,"Delta":24164297},{"NoteNumber":84,"Velocity":73,"Duration":114155,"SoundDuration":114155,"Delta":24280589},{"NoteNumber":83,"Velocity":66,"Duration":114155,"SoundDuration":114155,"Delta":24394745},{"NoteNumber":81,"Velocity":64,"Duration":114155,"SoundDuration":114155,"Delta":24508900},{"NoteNumber":79,"Velocity":70,"Duration":114155,"SoundDuration":114155,"Delta":24623055},{"NoteNumber":77,"Velocity":67,"Duration":114155,"SoundDuration":114155,"Delta":24737211},{"NoteNumber":76,"Velocity":65,"Duration":114155,"SoundDuration":114155,"Delta":24851366},{"NoteNumber":73,"Velocity":63,"Duration":116617,"SoundDuration":116617,"Delta":24965521},{"NoteNumber":74,"Velocity":60,"Duration":116618,"SoundDuration":116618,"Delta":25082139},{"NoteNumber":77,"Velocity":59,"Duration":116584,"SoundDuration":116584,"Delta":25198757},{"NoteNumber":81,"Velocity":62,"Duration":113032,"SoundDuration":113032,"Delta":25315341},{"NoteNumber":57,"Velocity":38,"Duration":339097,"SoundDuration":339097,"Delta":25315341},{"NoteNumber":62,"Velocity":38,"Duration":339097,"SoundDuration":339097,"Delta":25315341},{"NoteNumber":53,"Velocity":38,"Duration":339097,"SoundDuration":339097,"Delta":25315341},{"NoteNumber":77,"Velocity":57,"Duration":113032,"SoundDuration":113032,"Delta":25428374},{"NoteNumber":74,"Velocity":55,"Duration":113032,"SoundDuration":113032,"Delta":25541407},{"NoteNumber":79,"Velocity":61,"Duration":113032,"SoundDuration":113032,"Delta":25654439},{"NoteNumber":60,"Velocity":38,"Duration":339097,"SoundDuration":339097,"Delta":25654439},{"NoteNumber":55,"Velocity":38,"Duration":685385,"SoundDuration":685385,"Delta":25654439},{"NoteNumber":64,"Velocity":38,"Duration":339097,"SoundDuration":339097,"Delta":25654439},{"NoteNumber":76,"Velocity":57,"Duration":113032,"SoundDuration":113032,"Delta":25767472},{"NoteNumber":72,"Velocity":54,"Duration":113032,"SoundDuration":113032,"Delta":25880505},{"NoteNumber":77,"Velocity":61,"Duration":115767,"SoundDuration":115767,"Delta":25993537},{"NoteNumber":65,"Velocity":40,"Duration":346287,"SoundDuration":346287,"Delta":25993537},{"NoteNumber":62,"Velocity":40,"Duration":346287,"SoundDuration":346287,"Delta":25993537},{"NoteNumber":74,"Velocity":55,"Duration":115767,"SoundDuration":115767,"Delta":26109305},{"NoteNumber":71,"Velocity":55,"Duration":114752,"SoundDuration":114752,"Delta":26225072},{"NoteNumber":72,"Velocity":52,"Duration":94936,"SoundDuration":94936,"Delta":26339825},{"NoteNumber":60,"Velocity":38,"Duration":94936,"SoundDuration":94936,"Delta":26339825},{"NoteNumber":64,"Velocity":38,"Duration":94936,"SoundDuration":94936,"Delta":26339825},{"NoteNumber":67,"Velocity":50,"Duration":110294,"SoundDuration":110294,"Delta":26719572},{"NoteNumber":55,"Velocity":38,"Duration":110294,"SoundDuration":110294,"Delta":26719572},{"NoteNumber":60,"Velocity":50,"Duration":958072,"SoundDuration":958072,"Delta":27160748},{"NoteNumber":36,"Velocity":38,"Duration":958072,"SoundDuration":958072,"Delta":27160748},{"NoteNumber":48,"Velocity":38,"Duration":958072,"SoundDuration":958072,"Delta":27160748},{"NoteNumber":76,"Velocity":50,"Duration":697673,"SoundDuration":697673,"Delta":28118821},{"NoteNumber":60,"Velocity":37,"Duration":174418,"SoundDuration":174418,"Delta":28118821},{"NoteNumber":67,"Velocity":30,"Duration":174418,"SoundDuration":174418,"Delta":28293239},{"NoteNumber":66,"Velocity":33,"Duration":174418,"SoundDuration":174418,"Delta":28467658},{"NoteNumber":67,"Velocity":30,"Duration":174418,"SoundDuration":174418,"Delta":28642076},{"NoteNumber":77,"Velocity":46,"Duration":87209,"SoundDuration":87209,"Delta":28816495},{"NoteNumber":60,"Velocity":37,"Duration":174418,"SoundDuration":174418,"Delta":28816495},{"NoteNumber":76,"Velocity":46,"Duration":87209,"SoundDuration":87209,"Delta":28903704},{"NoteNumber":74,"Velocity":46,"Duration":86774,"SoundDuration":86774,"Delta":28990913},{"NoteNumber":67,"Velocity":30,"Duration":172981,"SoundDuration":172981,"Delta":28990913},{"NoteNumber":76,"Velocity":46,"Duration":86206,"SoundDuration":86206,"Delta":29077688},{"NoteNumber":79,"Velocity":50,"Duration":171564,"SoundDuration":171564,"Delta":29163895},{"NoteNumber":62,"Velocity":33,"Duration":171564,"SoundDuration":171564,"Delta":29163895},{"NoteNumber":77,"Velocity":46,"Duration":170167,"SoundDuration":170167,"Delta":29335460},{"NoteNumber":67,"Velocity":30,"Duration":170167,"SoundDuration":170167,"Delta":29335460},{"NoteNumber":76,"Velocity":51,"Duration":170454,"SoundDuration":170454,"Delta":29505627},{"NoteNumber":64,"Velocity":37,"Duration":170454,"SoundDuration":170454,"Delta":29505627},{"NoteNumber":74,"Velocity":49,"Duration":170454,"SoundDuration":170454,"Delta":29676081},{"NoteNumber":67,"Velocity":30,"Duration":170454,"SoundDuration":170454,"Delta":29676081},{"NoteNumber":72,"Velocity":49,"Duration":170454,"SoundDuration":170454,"Delta":29846536},{"NoteNumber":65,"Velocity":33,"Duration":170454,"SoundDuration":170454,"Delta":29846536},{"NoteNumber":71,"Velocity":49,"Duration":191438,"SoundDuration":191438,"Delta":30016990},{"NoteNumber":67,"Velocity":30,"Duration":191438,"SoundDuration":191438,"Delta":30016990},{"NoteNumber":72,"Velocity":52,"Duration":90361,"SoundDuration":90361,"Delta":30208429},{"NoteNumber":64,"Velocity":37,"Duration":180723,"SoundDuration":180723,"Delta":30208429},{"NoteNumber":67,"Velocity":30,"Duration":179001,"SoundDuration":179001,"Delta":30389152},{"NoteNumber":73,"Velocity":55,"Duration":89250,"SoundDuration":89250,"Delta":30568154},{"NoteNumber":58,"Velocity":33,"Duration":177485,"SoundDuration":177485,"Delta":30568154},{"NoteNumber":67,"Velocity":31,"Duration":175649,"SoundDuration":175649,"Delta":30745640},{"NoteNumber":74,"Velocity":56,"Duration":87209,"SoundDuration":87209,"Delta":30921290},{"NoteNumber":59,"Velocity":38,"Duration":174184,"SoundDuration":174184,"Delta":30921290},{"NoteNumber":67,"Velocity":31,"Duration":172413,"SoundDuration":172413,"Delta":31095474},{"NoteNumber":75,"Velocity":60,"Duration":85227,"SoundDuration":85227,"Delta":31267888},{"NoteNumber":59,"Velocity":35,"Duration":170454,"SoundDuration":170454,"Delta":31267888},{"NoteNumber":67,"Velocity":32,"Duration":170454,"SoundDuration":170454,"Delta":31438343},{"NoteNumber":76,"Velocity":63,"Duration":85227,"SoundDuration":85227,"Delta":31608797},{"NoteNumber":60,"Velocity":41,"Duration":170454,"SoundDuration":170454,"Delta":31608797},{"NoteNumber":67,"Velocity":33,"Duration":180744,"SoundDuration":180744,"Delta":31779252},{"NoteNumber":79,"Velocity":62,"Duration":173050,"SoundDuration":173050,"Delta":31959996},{"NoteNumber":62,"Velocity":37,"Duration":173050,"SoundDuration":173050,"Delta":31959996},{"NoteNumber":77,"Velocity":57,"Duration":173050,"SoundDuration":173050,"Delta":32133047},{"NoteNumber":67,"Velocity":33,"Duration":173050,"SoundDuration":173050,"Delta":32133047},{"NoteNumber":76,"Velocity":62,"Duration":522924,"SoundDuration":522924,"Delta":32306097},{"NoteNumber":60,"Velocity":40,"Duration":173050,"SoundDuration":173050,"Delta":32306097},{"NoteNumber":67,"Velocity":30,"Duration":173050,"SoundDuration":173050,"Delta":32479147},{"NoteNumber":66,"Velocity":33,"Duration":176824,"SoundDuration":176824,"Delta":32652197},{"NoteNumber":77,"Velocity":55,"Duration":86525,"SoundDuration":86525,"Delta":32829022},{"NoteNumber":67,"Velocity":30,"Duration":173050,"SoundDuration":173050,"Delta":32829022},{"NoteNumber":76,"Velocity":55,"Duration":86525,"SoundDuration":86525,"Delta":32915547},{"NoteNumber":74,"Velocity":56,"Duration":346100,"SoundDuration":346100,"Delta":33002072},{"NoteNumber":59,"Velocity":37,"Duration":173050,"SoundDuration":173050,"Delta":33002072},{"NoteNumber":67,"Velocity":31,"Duration":173050,"SoundDuration":173050,"Delta":33175122},{"NoteNumber":66,"Velocity":33,"Duration":180723,"SoundDuration":180723,"Delta":33348172},{"NoteNumber":67,"Velocity":32,"Duration":180723,"SoundDuration":180723,"Delta":33528895},{"NoteNumber":77,"Velocity":58,"Duration":698998,"SoundDuration":698998,"Delta":33709618},{"NoteNumber":59,"Velocity":37,"Duration":171233,"SoundDuration":171233,"Delta":33709618},{"NoteNumber":67,"Velocity":31,"Duration":171233,"SoundDuration":171233,"Delta":33880851},{"NoteNumber":66,"Velocity":33,"Duration":171233,"SoundDuration":171233,"Delta":34052084},{"NoteNumber":67,"Velocity":31,"Duration":185299,"SoundDuration":185299,"Delta":34223317},{"NoteNumber":79,"Velocity":48,"Duration":84269,"SoundDuration":84269,"Delta":34408616},{"NoteNumber":59,"Velocity":37,"Duration":168539,"SoundDuration":168539,"Delta":34408616},{"NoteNumber":77,"Velocity":49,"Duration":84269,"SoundDuration":84269,"Delta":34492886},{"NoteNumber":76,"Velocity":49,"Duration":84269,"SoundDuration":84269,"Delta":34577156},{"NoteNumber":67,"Velocity":31,"Duration":168539,"SoundDuration":168539,"Delta":34577156},{"NoteNumber":77,"Velocity":49,"Duration":84269,"SoundDuration":84269,"Delta":34661425},{"NoteNumber":81,"Velocity":55,"Duration":168539,"SoundDuration":168539,"Delta":34745695},{"NoteNumber":60,"Velocity":33,"Duration":168539,"SoundDuration":168539,"Delta":34745695},{"NoteNumber":79,"Velocity":52,"Duration":168539,"SoundDuration":168539,"Delta":34914234},{"NoteNumber":67,"Velocity":31,"Duration":168539,"SoundDuration":168539,"Delta":34914234},{"NoteNumber":77,"Velocity":52,"Duration":168539,"SoundDuration":168539,"Delta":35082773},{"NoteNumber":62,"Velocity":37,"Duration":168539,"SoundDuration":168539,"Delta":35082773},{"NoteNumber":76,"Velocity":50,"Duration":168539,"SoundDuration":168539,"Delta":35251313},{"NoteNumber":67,"Velocity":31,"Duration":168539,"SoundDuration":168539,"Delta":35251313},{"NoteNumber":74,"Velocity":50,"Duration":168539,"SoundDuration":168539,"Delta":35419852},{"NoteNumber":64,"Velocity":33,"Duration":168539,"SoundDuration":168539,"Delta":35419852},{"NoteNumber":72,"Velocity":50,"Duration":177788,"SoundDuration":177788,"Delta":35588391},{"NoteNumber":67,"Velocity":31,"Duration":177788,"SoundDuration":177788,"Delta":35588391},{"NoteNumber":71,"Velocity":49,"Duration":171233,"SoundDuration":171233,"Delta":35766179},{"NoteNumber":65,"Velocity":37,"Duration":171233,"SoundDuration":171233,"Delta":35766179},{"NoteNumber":72,"Velocity":50,"Duration":85616,"SoundDuration":85616,"Delta":35937412},{"NoteNumber":67,"Velocity":32,"Duration":171233,"SoundDuration":171233,"Delta":35937412},{"NoteNumber":74,"Velocity":51,"Duration":85616,"SoundDuration":85616,"Delta":36108645},{"NoteNumber":62,"Velocity":34,"Duration":171233,"SoundDuration":171233,"Delta":36108645},{"NoteNumber":76,"Velocity":53,"Duration":85616,"SoundDuration":85616,"Delta":36279878},{"NoteNumber":67,"Velocity":31,"Duration":171233,"SoundDuration":171233,"Delta":36279878},{"NoteNumber":77,"Velocity":54,"Duration":85169,"SoundDuration":85169,"Delta":36451111},{"NoteNumber":59,"Velocity":40,"Duration":170338,"SoundDuration":170338,"Delta":36451111},{"NoteNumber":79,"Velocity":55,"Duration":85169,"SoundDuration":85169,"Delta":36621450},{"NoteNumber":67,"Velocity":31,"Duration":170636,"SoundDuration":170636,"Delta":36621450},{"NoteNumber":81,"Velocity":56,"Duration":85616,"SoundDuration":85616,"Delta":36792087},{"NoteNumber":62,"Velocity":34,"Duration":171233,"SoundDuration":171233,"Delta":36792087},{"NoteNumber":83,"Velocity":58,"Duration":85767,"SoundDuration":85767,"Delta":36963320},{"NoteNumber":67,"Velocity":31,"Duration":171835,"SoundDuration":171835,"Delta":36963320},{"NoteNumber":84,"Velocity":60,"Duration":86068,"SoundDuration":86068,"Delta":37135155},{"NoteNumber":59,"Velocity":46,"Duration":172136,"SoundDuration":172136,"Delta":37135155},{"NoteNumber":86,"Velocity":61,"Duration":86525,"SoundDuration":86525,"Delta":37307292},{"NoteNumber":67,"Velocity":35,"Duration":173050,"SoundDuration":173050,"Delta":37307292},{"NoteNumber":88,"Velocity":62,"Duration":86525,"SoundDuration":86525,"Delta":37480342},{"NoteNumber":55,"Velocity":37,"Duration":173050,"SoundDuration":173050,"Delta":37480342},{"NoteNumber":89,"Velocity":63,"Duration":100000,"SoundDuration":100000,"Delta":37653392},{"NoteNumber":67,"Velocity":35,"Duration":200000,"SoundDuration":200000,"Delta":37653392},{"NoteNumber":87,"Velocity":79,"Duration":715052,"SoundDuration":715052,"Delta":37853392},{"NoteNumber":60,"Velocity":44,"Duration":178763,"SoundDuration":178763,"Delta":37853392},{"NoteNumber":67,"Velocity":37,"Duration":178762,"SoundDuration":178762,"Delta":38032155},{"NoteNumber":65,"Velocity":40,"Duration":178762,"SoundDuration":178762,"Delta":38210918},{"NoteNumber":67,"Velocity":37,"Duration":178763,"SoundDuration":178763,"Delta":38389681},{"NoteNumber":88,"Velocity":75,"Duration":357526,"SoundDuration":357526,"Delta":38568444},{"NoteNumber":60,"Velocity":44,"Duration":178763,"SoundDuration":178763,"Delta":38568444},{"NoteNumber":67,"Velocity":37,"Duration":178762,"SoundDuration":178762,"Delta":38747207},{"NoteNumber":64,"Velocity":40,"Duration":189607,"SoundDuration":189607,"Delta":38925970},{"NoteNumber":67,"Velocity":37,"Duration":211297,"SoundDuration":211297,"Delta":39115578},{"NoteNumber":76,"Velocity":64,"Duration":469657,"SoundDuration":469657,"Delta":39326875},{"NoteNumber":60,"Velocity":48,"Duration":118652,"SoundDuration":118652,"Delta":39326875},{"NoteNumber":64,"Velocity":43,"Duration":118652,"SoundDuration":118652,"Delta":39445528},{"NoteNumber":67,"Velocity":43,"Duration":118652,"SoundDuration":118652,"Delta":39564180},{"NoteNumber":72,"Velocity":46,"Duration":341102,"SoundDuration":341102,"Delta":39682832},{"NoteNumber":81,"Velocity":60,"Duration":113700,"SoundDuration":113700,"Delta":39796533},{"NoteNumber":84,"Velocity":60,"Duration":113700,"SoundDuration":113700,"Delta":39910234},{"NoteNumber":88,"Velocity":60,"Duration":113701,"SoundDuration":113701,"Delta":40023935},{"NoteNumber":84,"Velocity":58,"Duration":113700,"SoundDuration":113700,"Delta":40137636},{"NoteNumber":81,"Velocity":58,"Duration":113700,"SoundDuration":113700,"Delta":40251337},{"NoteNumber":84,"Velocity":60,"Duration":113700,"SoundDuration":113700,"Delta":40365038},{"NoteNumber":81,"Velocity":58,"Duration":114377,"SoundDuration":114377,"Delta":40478739},{"NoteNumber":76,"Velocity":58,"Duration":115074,"SoundDuration":115074,"Delta":40593116},{"NoteNumber":74,"Velocity":64,"Duration":469657,"SoundDuration":469657,"Delta":40708191},{"NoteNumber":59,"Velocity":48,"Duration":118652,"SoundDuration":118652,"Delta":40708191},{"NoteNumber":62,"Velocity":43,"Duration":118652,"SoundDuration":118652,"Delta":40826843},{"NoteNumber":67,"Velocity":43,"Duration":118652,"SoundDuration":118652,"Delta":40945495},{"NoteNumber":71,"Velocity":48,"Duration":341102,"SoundDuration":341102,"Delta":41064147},{"NoteNumber":79,"Velocity":60,"Duration":113700,"SoundDuration":113700,"Delta":41177848},{"NoteNumber":83,"Velocity":60,"Duration":113700,"SoundDuration":113700,"Delta":41291549},{"NoteNumber":86,"Velocity":60,"Duration":113701,"SoundDuration":113701,"Delta":41405250},{"NoteNumber":83,"Velocity":59,"Duration":113700,"SoundDuration":113700,"Delta":41518951},{"NoteNumber":79,"Velocity":59,"Duration":113700,"SoundDuration":113700,"Delta":41632652},{"NoteNumber":83,"Velocity":60,"Duration":113700,"SoundDuration":113700,"Delta":41746353},{"NoteNumber":79,"Velocity":58,"Duration":113700,"SoundDuration":113700,"Delta":41860054},{"NoteNumber":74,"Velocity":58,"Duration":120904,"SoundDuration":120904,"Delta":41973755},{"NoteNumber":57,"Velocity":50,"Duration":341102,"SoundDuration":341102,"Delta":42094660},{"NoteNumber":62,"Velocity":50,"Duration":341102,"SoundDuration":341102,"Delta":42094660},{"NoteNumber":54,"Velocity":50,"Duration":341102,"SoundDuration":341102,"Delta":42094660},{"NoteNumber":74,"Velocity":60,"Duration":113700,"SoundDuration":113700,"Delta":42208361},{"NoteNumber":81,"Velocity":60,"Duration":113700,"SoundDuration":113700,"Delta":42322062},{"NoteNumber":84,"Velocity":60,"Duration":113701,"SoundDuration":113701,"Delta":42435763},{"NoteNumber":81,"Velocity":58,"Duration":113700,"SoundDuration":113700,"Delta":42549464},{"NoteNumber":74,"Velocity":60,"Duration":124843,"SoundDuration":124843,"Delta":42663165},{"NoteNumber":59,"Velocity":52,"Duration":341102,"SoundDuration":341102,"Delta":42788009},{"NoteNumber":55,"Velocity":52,"Duration":341102,"SoundDuration":341102,"Delta":42788009},{"NoteNumber":62,"Velocity":52,"Duration":341102,"SoundDuration":341102,"Delta":42788009},{"NoteNumber":74,"Velocity":60,"Duration":113700,"SoundDuration":113700,"Delta":42901710},{"NoteNumber":79,"Velocity":60,"Duration":113700,"SoundDuration":113700,"Delta":43015411},{"NoteNumber":83,"Velocity":60,"Duration":113700,"SoundDuration":113700,"Delta":43129112},{"NoteNumber":79,"Velocity":59,"Duration":133351,"SoundDuration":133351,"Delta":43242813},{"NoteNumber":74,"Velocity":60,"Duration":133351,"SoundDuration":133351,"Delta":43376164},{"NoteNumber":81,"Velocity":68,"Duration":260476,"SoundDuration":260476,"Delta":43509515},{"NoteNumber":50,"Velocity":57,"Duration":173651,"SoundDuration":173651,"Delta":43509515},{"NoteNumber":62,"Velocity":39,"Duration":173651,"SoundDuration":173651,"Delta":43683166},{"NoteNumber":78,"Velocity":63,"Duration":86825,"SoundDuration":86825,"Delta":43769992},{"NoteNumber":74,"Velocity":60,"Duration":347302,"SoundDuration":347302,"Delta":43856818},{"NoteNumber":61,"Velocity":40,"Duration":173651,"SoundDuration":173651,"Delta":43856818},{"NoteNumber":62,"Velocity":41,"Duration":173651,"SoundDuration":173651,"Delta":44030469},{"NoteNumber":61,"Velocity":44,"Duration":173651,"SoundDuration":173651,"Delta":44204120},{"NoteNumber":62,"Velocity":45,"Duration":173651,"SoundDuration":173651,"Delta":44377771},{"NoteNumber":60,"Velocity":47,"Duration":179082,"SoundDuration":179082,"Delta":44551423},{"NoteNumber":62,"Velocity":49,"Duration":197394,"SoundDuration":197394,"Delta":44730506},{"NoteNumber":67,"Velocity":43,"Duration":98697,"SoundDuration":98697,"Delta":44829203},{"NoteNumber":79,"Velocity":64,"Duration":852757,"SoundDuration":852757,"Delta":44927900},{"NoteNumber":59,"Velocity":49,"Duration":170551,"SoundDuration":170551,"Delta":44927900},{"NoteNumber":62,"Velocity":44,"Duration":170551,"SoundDuration":170551,"Delta":45098452},{"NoteNumber":55,"Velocity":35,"Duration":170551,"SoundDuration":170551,"Delta":45269003},{"NoteNumber":62,"Velocity":30,"Duration":170551,"SoundDuration":170551,"Delta":45439555},{"NoteNumber":59,"Velocity":37,"Duration":170551,"SoundDuration":170551,"Delta":45610106},{"NoteNumber":78,"Velocity":50,"Duration":170551,"SoundDuration":170551,"Delta":45780658},{"NoteNumber":62,"Velocity":32,"Duration":170551,"SoundDuration":170551,"Delta":45780658},{"NoteNumber":76,"Velocity":50,"Duration":170551,"SoundDuration":170551,"Delta":45951209},{"NoteNumber":55,"Velocity":35,"Duration":170551,"SoundDuration":170551,"Delta":45951209},{"NoteNumber":74,"Velocity":50,"Duration":164866,"SoundDuration":164866,"Delta":46121761},{"NoteNumber":62,"Velocity":34,"Duration":170551,"SoundDuration":170551,"Delta":46121761},{"NoteNumber":74,"Velocity":53,"Duration":170551,"SoundDuration":170551,"Delta":46292312},{"NoteNumber":57,"Velocity":37,"Duration":170551,"SoundDuration":170551,"Delta":46292312},{"NoteNumber":72,"Velocity":49,"Duration":170551,"SoundDuration":170551,"Delta":46462864},{"NoteNumber":62,"Velocity":34,"Duration":170551,"SoundDuration":170551,"Delta":46462864},{"NoteNumber":71,"Velocity":50,"Duration":170551,"SoundDuration":170551,"Delta":46633415},{"NoteNumber":55,"Velocity":37,"Duration":170551,"SoundDuration":170551,"Delta":46633415},{"NoteNumber":69,"Velocity":47,"Duration":170551,"SoundDuration":170551,"Delta":46803967},{"NoteNumber":62,"Velocity":34,"Duration":170551,"SoundDuration":170551,"Delta":46803967},{"NoteNumber":74,"Velocity":54,"Duration":84269,"SoundDuration":84269,"Delta":46974518},{"NoteNumber":54,"Velocity":37,"Duration":168539,"SoundDuration":168539,"Delta":46974518},{"NoteNumber":62,"Velocity":34,"Duration":168539,"SoundDuration":168539,"Delta":47143057},{"NoteNumber":72,"Velocity":51,"Duration":84269,"SoundDuration":84269,"Delta":47311597},{"NoteNumber":50,"Velocity":37,"Duration":168539,"SoundDuration":168539,"Delta":47311597},{"NoteNumber":62,"Velocity":34,"Duration":205507,"SoundDuration":205507,"Delta":47480136},{"NoteNumber":70,"Velocity":53,"Duration":345224,"SoundDuration":345224,"Delta":47685643},{"NoteNumber":55,"Velocity":38,"Duration":172612,"SoundDuration":172612,"Delta":47685643},{"NoteNumber":62,"Velocity":34,"Duration":172612,"SoundDuration":172612,"Delta":47858256},{"NoteNumber":71,"Velocity":51,"Duration":345224,"SoundDuration":345224,"Delta":48030868},{"NoteNumber":61,"Velocity":34,"Duration":172612,"SoundDuration":172612,"Delta":48030868},{"NoteNumber":62,"Velocity":34,"Duration":172612,"SoundDuration":172612,"Delta":48203480},{"NoteNumber":61,"Velocity":39,"Duration":170551,"SoundDuration":170551,"Delta":48376092},{"NoteNumber":62,"Velocity":41,"Duration":170551,"SoundDuration":170551,"Delta":48546644},{"NoteNumber":64,"Velocity":44,"Duration":170551,"SoundDuration":170551,"Delta":48717195},{"NoteNumber":62,"Velocity":41,"Duration":170551,"SoundDuration":170551,"Delta":48887747},{"NoteNumber":60,"Velocity":49,"Duration":170551,"SoundDuration":170551,"Delta":49058298},{"NoteNumber":62,"Velocity":47,"Duration":170551,"SoundDuration":170551,"Delta":49228850},{"NoteNumber":59,"Velocity":49,"Duration":170551,"SoundDuration":170551,"Delta":49399401},{"NoteNumber":62,"Velocity":47,"Duration":170551,"SoundDuration":170551,"Delta":49569953},{"NoteNumber":60,"Velocity":49,"Duration":170551,"SoundDuration":170551,"Delta":49740504},{"NoteNumber":62,"Velocity":47,"Duration":170551,"SoundDuration":170551,"Delta":49911056},{"NoteNumber":57,"Velocity":49,"Duration":170551,"SoundDuration":170551,"Delta":50081607},{"NoteNumber":62,"Velocity":47,"Duration":200026,"SoundDuration":200026,"Delta":50252159},{"NoteNumber":67,"Velocity":43,"Duration":100013,"SoundDuration":100013,"Delta":50352172},{"NoteNumber":79,"Velocity":64,"Duration":852272,"SoundDuration":852272,"Delta":50452186},{"NoteNumber":59,"Velocity":49,"Duration":170454,"SoundDuration":170454,"Delta":50452186},{"NoteNumber":62,"Velocity":42,"Duration":170454,"SoundDuration":170454,"Delta":50622640},{"NoteNumber":55,"Velocity":35,"Duration":170454,"SoundDuration":170454,"Delta":50793095},{"NoteNumber":62,"Velocity":30,"Duration":170454,"SoundDuration":170454,"Delta":50963549},{"NoteNumber":59,"Velocity":37,"Duration":170454,"SoundDuration":170454,"Delta":51134004},{"NoteNumber":78,"Velocity":50,"Duration":170454,"SoundDuration":170454,"Delta":51304458},{"NoteNumber":62,"Velocity":30,"Duration":170454,"SoundDuration":170454,"Delta":51304458},{"NoteNumber":76,"Velocity":50,"Duration":170454,"SoundDuration":170454,"Delta":51474913},{"NoteNumber":55,"Velocity":35,"Duration":170454,"SoundDuration":170454,"Delta":51474913},{"NoteNumber":74,"Velocity":48,"Duration":163352,"SoundDuration":163352,"Delta":51645367},{"NoteNumber":62,"Velocity":30,"Duration":170454,"SoundDuration":170454,"Delta":51645367},{"NoteNumber":74,"Velocity":53,"Duration":170454,"SoundDuration":170454,"Delta":51815822},{"NoteNumber":57,"Velocity":37,"Duration":170454,"SoundDuration":170454,"Delta":51815822},{"NoteNumber":72,"Velocity":47,"Duration":170454,"SoundDuration":170454,"Delta":51986276},{"NoteNumber":62,"Velocity":34,"Duration":170454,"SoundDuration":170454,"Delta":51986276},{"NoteNumber":71,"Velocity":50,"Duration":170454,"SoundDuration":170454,"Delta":52156731},{"NoteNumber":55,"Velocity":37,"Duration":170454,"SoundDuration":170454,"Delta":52156731},{"NoteNumber":69,"Velocity":50,"Duration":170454,"SoundDuration":170454,"Delta":52327185},{"NoteNumber":62,"Velocity":34,"Duration":170454,"SoundDuration":170454,"Delta":52327185},{"NoteNumber":74,"Velocity":54,"Duration":86306,"SoundDuration":86306,"Delta":52497640},{"NoteNumber":54,"Velocity":37,"Duration":172612,"SoundDuration":172612,"Delta":52497640},{"NoteNumber":62,"Velocity":34,"Duration":172612,"SoundDuration":172612,"Delta":52670252},{"NoteNumber":72,"Velocity":51,"Duration":86306,"SoundDuration":86306,"Delta":52842864},{"NoteNumber":50,"Velocity":37,"Duration":172612,"SoundDuration":172612,"Delta":52842864},{"NoteNumber":62,"Velocity":34,"Duration":192332,"SoundDuration":192332,"Delta":53015476},{"NoteNumber":71,"Velocity":54,"Duration":341102,"SoundDuration":341102,"Delta":53207809},{"NoteNumber":55,"Velocity":37,"Duration":170551,"SoundDuration":170551,"Delta":53207809},{"NoteNumber":62,"Velocity":34,"Duration":170551,"SoundDuration":170551,"Delta":53378360},{"NoteNumber":59,"Velocity":37,"Duration":170551,"SoundDuration":170551,"Delta":53548912},{"NoteNumber":62,"Velocity":34,"Duration":170551,"SoundDuration":170551,"Delta":53719463},{"NoteNumber":76,"Velocity":52,"Duration":85275,"SoundDuration":85275,"Delta":53890015},{"NoteNumber":55,"Velocity":37,"Duration":170551,"SoundDuration":170551,"Delta":53890015},{"NoteNumber":78,"Velocity":55,"Duration":85275,"SoundDuration":85275,"Delta":53975290},{"NoteNumber":76,"Velocity":53,"Duration":85275,"SoundDuration":85275,"Delta":54060566},{"NoteNumber":64,"Velocity":29,"Duration":170551,"SoundDuration":170551,"Delta":54060566},{"NoteNumber":78,"Velocity":62,"Duration":85275,"SoundDuration":85275,"Delta":54145842},{"NoteNumber":79,"Velocity":62,"Duration":170551,"SoundDuration":170551,"Delta":54231118},{"NoteNumber":60,"Velocity":32,"Duration":170551,"SoundDuration":170551,"Delta":54231118},{"NoteNumber":79,"Velocity":60,"Duration":85275,"SoundDuration":85275,"Delta":54401669},{"NoteNumber":64,"Velocity":29,"Duration":170551,"SoundDuration":170551,"Delta":54401669},{"NoteNumber":79,"Velocity":60,"Duration":341102,"SoundDuration":341102,"Delta":54572221},{"NoteNumber":55,"Velocity":32,"Duration":170551,"SoundDuration":170551,"Delta":54572221},{"NoteNumber":62,"Velocity":30,"Duration":170551,"SoundDuration":170551,"Delta":54742772},{"NoteNumber":59,"Velocity":32,"Duration":170551,"SoundDuration":170551,"Delta":54913324},{"NoteNumber":62,"Velocity":31,"Duration":194830,"SoundDuration":194830,"Delta":55083875},{"NoteNumber":81,"Velocity":52,"Duration":85236,"SoundDuration":85236,"Delta":55278706},{"NoteNumber":53,"Velocity":32,"Duration":170473,"SoundDuration":170473,"Delta":55278706},{"NoteNumber":83,"Velocity":55,"Duration":85236,"SoundDuration":85236,"Delta":55363943},{"NoteNumber":81,"Velocity":52,"Duration":85236,"SoundDuration":85236,"Delta":55449180},{"NoteNumber":60,"Velocity":30,"Duration":170473,"SoundDuration":170473,"Delta":55449180},{"NoteNumber":83,"Velocity":62,"Duration":85236,"SoundDuration":85236,"Delta":55534417},{"NoteNumber":84,"Velocity":62,"Duration":170474,"SoundDuration":170474,"Delta":55619654},{"NoteNumber":57,"Velocity":32,"Duration":170474,"SoundDuration":170474,"Delta":55619654},{"NoteNumber":84,"Velocity":60,"Duration":85236,"SoundDuration":85236,"Delta":55790128},{"NoteNumber":60,"Velocity":30,"Duration":170473,"SoundDuration":170473,"Delta":55790128},{"NoteNumber":84,"Velocity":60,"Duration":340947,"SoundDuration":340947,"Delta":55960602},{"NoteNumber":52,"Velocity":32,"Duration":170473,"SoundDuration":170473,"Delta":55960602},{"NoteNumber":60,"Velocity":30,"Duration":170473,"SoundDuration":170473,"Delta":56131076},{"NoteNumber":55,"Velocity":32,"Duration":170473,"SoundDuration":170473,"Delta":56301550},{"NoteNumber":60,"Velocity":30,"Duration":179082,"SoundDuration":179082,"Delta":56472024},{"NoteNumber":84,"Velocity":51,"Duration":85275,"SoundDuration":85275,"Delta":56651107},{"NoteNumber":48,"Velocity":40,"Duration":170551,"SoundDuration":170551,"Delta":56651107},{"NoteNumber":86,"Velocity":54,"Duration":85275,"SoundDuration":85275,"Delta":56736382},{"NoteNumber":84,"Velocity":51,"Duration":85275,"SoundDuration":85275,"Delta":56821658},{"NoteNumber":55,"Velocity":34,"Duration":170551,"SoundDuration":170551,"Delta":56821658},{"NoteNumber":86,"Velocity":63,"Duration":85275,"SoundDuration":85275,"Delta":56906934},{"NoteNumber":88,"Velocity":63,"Duration":170551,"SoundDuration":170551,"Delta":56992210},{"NoteNumber":52,"Velocity":40,"Duration":170551,"SoundDuration":170551,"Delta":56992210},{"NoteNumber":88,"Velocity":60,"Duration":85275,"SoundDuration":85275,"Delta":57162761},{"NoteNumber":55,"Velocity":33,"Duration":170551,"SoundDuration":170551,"Delta":57162761},{"NoteNumber":88,"Velocity":60,"Duration":170551,"SoundDuration":170551,"Delta":57333313},{"NoteNumber":50,"Velocity":39,"Duration":170551,"SoundDuration":170551,"Delta":57333313},{"NoteNumber":86,"Velocity":61,"Duration":170551,"SoundDuration":170551,"Delta":57503864},{"NoteNumber":59,"Velocity":34,"Duration":170551,"SoundDuration":170551,"Delta":57503864},{"NoteNumber":84,"Velocity":56,"Duration":85275,"SoundDuration":85275,"Delta":57674416},{"NoteNumber":55,"Velocity":39,"Duration":170551,"SoundDuration":170551,"Delta":57674416},{"NoteNumber":83,"Velocity":56,"Duration":85275,"SoundDuration":85275,"Delta":57844967},{"NoteNumber":59,"Velocity":34,"Duration":170551,"SoundDuration":170551,"Delta":57844967},{"NoteNumber":81,"Velocity":56,"Duration":84269,"SoundDuration":84269,"Delta":58015519},{"NoteNumber":50,"Velocity":39,"Duration":168539,"SoundDuration":168539,"Delta":58015519},{"NoteNumber":60,"Velocity":34,"Duration":168539,"SoundDuration":168539,"Delta":58184058},{"NoteNumber":86,"Velocity":56,"Duration":84269,"SoundDuration":84269,"Delta":58352597},{"NoteNumber":54,"Velocity":38,"Duration":168539,"SoundDuration":168539,"Delta":58352597},{"NoteNumber":60,"Velocity":33,"Duration":200026,"SoundDuration":200026,"Delta":58521136},{"NoteNumber":84,"Velocity":62,"Duration":347302,"SoundDuration":347302,"Delta":58721163},{"NoteNumber":55,"Velocity":40,"Duration":173651,"SoundDuration":173651,"Delta":58721163},{"NoteNumber":62,"Velocity":35,"Duration":173651,"SoundDuration":173651,"Delta":58894814},{"NoteNumber":83,"Velocity":58,"Duration":361174,"SoundDuration":361174,"Delta":59068466},{"NoteNumber":59,"Velocity":40,"Duration":173651,"SoundDuration":173651,"Delta":59068466},{"NoteNumber":62,"Velocity":34,"Duration":187523,"SoundDuration":187523,"Delta":59242117},{"NoteNumber":76,"Velocity":51,"Duration":85275,"SoundDuration":85275,"Delta":59429640},{"NoteNumber":55,"Velocity":32,"Duration":170551,"SoundDuration":170551,"Delta":59429640},{"NoteNumber":78,"Velocity":54,"Duration":85275,"SoundDuration":85275,"Delta":59514916},{"NoteNumber":76,"Velocity":51,"Duration":85275,"SoundDuration":85275,"Delta":59600192},{"NoteNumber":64,"Velocity":30,"Duration":170551,"SoundDuration":170551,"Delta":59600192},{"NoteNumber":78,"Velocity":64,"Duration":85275,"SoundDuration":85275,"Delta":59685468},{"NoteNumber":79,"Velocity":64,"Duration":170551,"SoundDuration":170551,"Delta":59770743},{"NoteNumber":60,"Velocity":32,"Duration":170551,"SoundDuration":170551,"Delta":59770743},{"NoteNumber":79,"Velocity":60,"Duration":85275,"SoundDuration":85275,"Delta":59941295},{"NoteNumber":64,"Velocity":30,"Duration":170551,"SoundDuration":170551,"Delta":59941295},{"NoteNumber":79,"Velocity":60,"Duration":341102,"SoundDuration":341102,"Delta":60111846},{"NoteNumber":55,"Velocity":32,"Duration":170551,"SoundDuration":170551,"Delta":60111846},{"NoteNumber":62,"Velocity":30,"Duration":170551,"SoundDuration":170551,"Delta":60282398},{"NoteNumber":59,"Velocity":32,"Duration":170551,"SoundDuration":170551,"Delta":60452949},{"NoteNumber":62,"Velocity":30,"Duration":187523,"SoundDuration":187523,"Delta":60623501},{"NoteNumber":81,"Velocity":50,"Duration":85236,"SoundDuration":85236,"Delta":60811024},{"NoteNumber":53,"Velocity":32,"Duration":170473,"SoundDuration":170473,"Delta":60811024},{"NoteNumber":83,"Velocity":54,"Duration":85236,"SoundDuration":85236,"Delta":60896261},{"NoteNumber":81,"Velocity":51,"Duration":85236,"SoundDuration":85236,"Delta":60981498},{"NoteNumber":60,"Velocity":29,"Duration":170473,"SoundDuration":170473,"Delta":60981498},{"NoteNumber":83,"Velocity":66,"Duration":85236,"SoundDuration":85236,"Delta":61066735},{"NoteNumber":84,"Velocity":66,"Duration":170474,"SoundDuration":170474,"Delta":61151972},{"NoteNumber":57,"Velocity":32,"Duration":170474,"SoundDuration":170474,"Delta":61151972},{"NoteNumber":84,"Velocity":60,"Duration":85236,"SoundDuration":85236,"Delta":61322446},{"NoteNumber":60,"Velocity":29,"Duration":170473,"SoundDuration":170473,"Delta":61322446},{"NoteNumber":84,"Velocity":60,"Duration":340947,"SoundDuration":340947,"Delta":61492920},{"NoteNumber":52,"Velocity":34,"Duration":170473,"SoundDuration":170473,"Delta":61492920},{"NoteNumber":60,"Velocity":30,"Duration":170473,"SoundDuration":170473,"Delta":61663394},{"NoteNumber":55,"Velocity":33,"Duration":170473,"SoundDuration":170473,"Delta":61833868},{"NoteNumber":60,"Velocity":29,"Duration":179082,"SoundDuration":179082,"Delta":62004342},{"NoteNumber":84,"Velocity":50,"Duration":85275,"SoundDuration":85275,"Delta":62183425},{"NoteNumber":48,"Velocity":41,"Duration":170551,"SoundDuration":170551,"Delta":62183425},{"NoteNumber":86,"Velocity":54,"Duration":85275,"SoundDuration":85275,"Delta":62268701},{"NoteNumber":84,"Velocity":51,"Duration":85275,"SoundDuration":85275,"Delta":62353977},{"NoteNumber":55,"Velocity":38,"Duration":170551,"SoundDuration":170551,"Delta":62353977},{"NoteNumber":86,"Velocity":64,"Duration":85275,"SoundDuration":85275,"Delta":62439253},{"NoteNumber":88,"Velocity":64,"Duration":170551,"SoundDuration":170551,"Delta":62524528},{"NoteNumber":52,"Velocity":40,"Duration":170551,"SoundDuration":170551,"Delta":62524528},{"NoteNumber":88,"Velocity":61,"Duration":85275,"SoundDuration":85275,"Delta":62695080},{"NoteNumber":55,"Velocity":37,"Duration":170551,"SoundDuration":170551,"Delta":62695080},{"NoteNumber":88,"Velocity":62,"Duration":170551,"SoundDuration":170551,"Delta":62865631},{"NoteNumber":50,"Velocity":40,"Duration":170551,"SoundDuration":170551,"Delta":62865631},{"NoteNumber":86,"Velocity":61,"Duration":170551,"SoundDuration":170551,"Delta":63036183},{"NoteNumber":59,"Velocity":37,"Duration":170551,"SoundDuration":170551,"Delta":63036183},{"NoteNumber":84,"Velocity":61,"Duration":85275,"SoundDuration":85275,"Delta":63206734},{"NoteNumber":55,"Velocity":39,"Duration":170551,"SoundDuration":170551,"Delta":63206734},{"NoteNumber":83,"Velocity":61,"Duration":85275,"SoundDuration":85275,"Delta":63377286},{"NoteNumber":59,"Velocity":32,"Duration":170551,"SoundDuration":170551,"Delta":63377286},{"NoteNumber":83,"Velocity":62,"Duration":170551,"SoundDuration":170551,"Delta":63547837},{"NoteNumber":50,"Velocity":38,"Duration":170551,"SoundDuration":170551,"Delta":63547837},{"NoteNumber":81,"Velocity":61,"Duration":170551,"SoundDuration":170551,"Delta":63718389},{"NoteNumber":60,"Velocity":33,"Duration":170551,"SoundDuration":170551,"Delta":63718389},{"NoteNumber":79,"Velocity":61,"Duration":85275,"SoundDuration":85275,"Delta":63888940},{"NoteNumber":57,"Velocity":38,"Duration":170551,"SoundDuration":170551,"Delta":63888940},{"NoteNumber":78,"Velocity":61,"Duration":102739,"SoundDuration":102739,"Delta":64059492},{"NoteNumber":60,"Velocity":32,"Duration":205479,"SoundDuration":205479,"Delta":64059492},{"NoteNumber":86,"Velocity":84,"Duration":463070,"SoundDuration":463070,"Delta":64264971},{"NoteNumber":59,"Velocity":38,"Duration":347302,"SoundDuration":347302,"Delta":64612274},{"NoteNumber":55,"Velocity":38,"Duration":347302,"SoundDuration":347302,"Delta":64612274},{"NoteNumber":83,"Velocity":61,"Duration":115767,"SoundDuration":115767,"Delta":64728041},{"NoteNumber":79,"Velocity":61,"Duration":115767,"SoundDuration":115767,"Delta":64843809},{"NoteNumber":78,"Velocity":63,"Duration":115767,"SoundDuration":115767,"Delta":64959576},{"NoteNumber":57,"Velocity":44,"Duration":347302,"SoundDuration":347302,"Delta":64959576},{"NoteNumber":60,"Velocity":44,"Duration":347302,"SoundDuration":347302,"Delta":64959576},{"NoteNumber":81,"Velocity":63,"Duration":115767,"SoundDuration":115767,"Delta":65075344},{"NoteNumber":74,"Velocity":61,"Duration":115767,"SoundDuration":115767,"Delta":65191111},{"NoteNumber":79,"Velocity":63,"Duration":115767,"SoundDuration":115767,"Delta":65306879},{"NoteNumber":59,"Velocity":49,"Duration":368481,"SoundDuration":368481,"Delta":65306879},{"NoteNumber":62,"Velocity":49,"Duration":368481,"SoundDuration":368481,"Delta":65306879},{"NoteNumber":83,"Velocity":61,"Duration":122827,"SoundDuration":122827,"Delta":65422646},{"NoteNumber":74,"Velocity":61,"Duration":129886,"SoundDuration":129886,"Delta":65545474},{"NoteNumber":81,"Velocity":70,"Duration":462550,"SoundDuration":462550,"Delta":65675361},{"NoteNumber":54,"Velocity":37,"Duration":348744,"SoundDuration":348744,"Delta":66022663},{"NoteNumber":50,"Velocity":37,"Duration":348744,"SoundDuration":348744,"Delta":66022663},{"NoteNumber":78,"Velocity":58,"Duration":116124,"SoundDuration":116124,"Delta":66137911},{"NoteNumber":74,"Velocity":59,"Duration":117371,"SoundDuration":117371,"Delta":66254036},{"NoteNumber":73,"Velocity":61,"Duration":118281,"SoundDuration":118281,"Delta":66371408},{"NoteNumber":55,"Velocity":40,"Duration":358375,"SoundDuration":358375,"Delta":66371408},{"NoteNumber":52,"Velocity":40,"Duration":358375,"SoundDuration":358375,"Delta":66371408},{"NoteNumber":74,"Velocity":57,"Duration":119575,"SoundDuration":119575,"Delta":66489689},{"NoteNumber":69,"Velocity":57,"Duration":120519,"SoundDuration":120519,"Delta":66609264},{"NoteNumber":72,"Velocity":60,"Duration":121862,"SoundDuration":121862,"Delta":66729784},{"NoteNumber":57,"Velocity":44,"Duration":383284,"SoundDuration":383284,"Delta":66729784},{"NoteNumber":54,"Velocity":44,"Duration":383284,"SoundDuration":383284,"Delta":66729784},{"NoteNumber":74,"Velocity":57,"Duration":128088,"SoundDuration":128088,"Delta":66851647},{"NoteNumber":69,"Velocity":57,"Duration":133333,"SoundDuration":133333,"Delta":66979735},{"NoteNumber":86,"Velocity":77,"Duration":463070,"SoundDuration":463070,"Delta":67113068},{"NoteNumber":55,"Velocity":38,"Duration":347302,"SoundDuration":347302,"Delta":67460371},{"NoteNumber":59,"Velocity":38,"Duration":347302,"SoundDuration":347302,"Delta":67460371},{"NoteNumber":83,"Velocity":61,"Duration":115767,"SoundDuration":115767,"Delta":67576138},{"NoteNumber":79,"Velocity":61,"Duration":115767,"SoundDuration":115767,"Delta":67691906},{"NoteNumber":78,"Velocity":63,"Duration":115767,"SoundDuration":115767,"Delta":67807673},{"NoteNumber":57,"Velocity":44,"Duration":347302,"SoundDuration":347302,"Delta":67807673},{"NoteNumber":60,"Velocity":44,"Duration":347302,"SoundDuration":347302,"Delta":67807673},{"NoteNumber":81,"Velocity":63,"Duration":115767,"SoundDuration":115767,"Delta":67923441},{"NoteNumber":74,"Velocity":61,"Duration":115767,"SoundDuration":115767,"Delta":68039208},{"NoteNumber":79,"Velocity":63,"Duration":115767,"SoundDuration":115767,"Delta":68154976},{"NoteNumber":62,"Velocity":49,"Duration":363404,"SoundDuration":363404,"Delta":68154976},{"NoteNumber":59,"Velocity":49,"Duration":363404,"SoundDuration":363404,"Delta":68154976},{"NoteNumber":83,"Velocity":61,"Duration":121134,"SoundDuration":121134,"Delta":68270743},{"NoteNumber":74,"Velocity":61,"Duration":126502,"SoundDuration":126502,"Delta":68391878},{"NoteNumber":81,"Velocity":71,"Duration":462550,"SoundDuration":462550,"Delta":68518380},{"NoteNumber":50,"Velocity":37,"Duration":348744,"SoundDuration":348744,"Delta":68865683},{"NoteNumber":54,"Velocity":37,"Duration":348744,"SoundDuration":348744,"Delta":68865683},{"NoteNumber":78,"Velocity":55,"Duration":116124,"SoundDuration":116124,"Delta":68980931},{"NoteNumber":74,"Velocity":55,"Duration":117371,"SoundDuration":117371,"Delta":69097056},{"NoteNumber":73,"Velocity":57,"Duration":118281,"SoundDuration":118281,"Delta":69214427},{"NoteNumber":55,"Velocity":40,"Duration":358375,"SoundDuration":358375,"Delta":69214427},{"NoteNumber":52,"Velocity":40,"Duration":358375,"SoundDuration":358375,"Delta":69214427},{"NoteNumber":74,"Velocity":54,"Duration":119575,"SoundDuration":119575,"Delta":69332709},{"NoteNumber":69,"Velocity":54,"Duration":120519,"SoundDuration":120519,"Delta":69452284},{"NoteNumber":72,"Velocity":55,"Duration":121862,"SoundDuration":121862,"Delta":69572803},{"NoteNumber":57,"Velocity":44,"Duration":370550,"SoundDuration":370550,"Delta":69572803},{"NoteNumber":54,"Velocity":44,"Duration":370550,"SoundDuration":370550,"Delta":69572803},{"NoteNumber":74,"Velocity":53,"Duration":123843,"SoundDuration":123843,"Delta":69694666},{"NoteNumber":69,"Velocity":53,"Duration":124843,"SoundDuration":124843,"Delta":69818510},{"NoteNumber":71,"Velocity":53,"Duration":124844,"SoundDuration":124844,"Delta":69943354},{"NoteNumber":55,"Velocity":44,"Duration":705102,"SoundDuration":705102,"Delta":69943354},{"NoteNumber":67,"Velocity":54,"Duration":119959,"SoundDuration":119959,"Delta":70068198},{"NoteNumber":71,"Velocity":56,"Duration":115074,"SoundDuration":115074,"Delta":70188158},{"NoteNumber":74,"Velocity":57,"Duration":115074,"SoundDuration":115074,"Delta":70303233},{"NoteNumber":71,"Velocity":58,"Duration":115074,"SoundDuration":115074,"Delta":70418307},{"NoteNumber":74,"Velocity":61,"Duration":115074,"SoundDuration":115074,"Delta":70533382},{"NoteNumber":79,"Velocity":61,"Duration":115074,"SoundDuration":115074,"Delta":70648457},{"NoteNumber":74,"Velocity":63,"Duration":115074,"SoundDuration":115074,"Delta":70763532},{"NoteNumber":79,"Velocity":64,"Duration":115074,"SoundDuration":115074,"Delta":70878607},{"NoteNumber":83,"Velocity":64,"Duration":115074,"SoundDuration":115074,"Delta":70993682},{"NoteNumber":79,"Velocity":67,"Duration":115074,"SoundDuration":115074,"Delta":71108756},{"NoteNumber":83,"Velocity":68,"Duration":115074,"SoundDuration":115074,"Delta":71223831},{"NoteNumber":86,"Velocity":69,"Duration":116482,"SoundDuration":116482,"Delta":71338906},{"NoteNumber":43,"Velocity":44,"Duration":1442098,"SoundDuration":1442098,"Delta":71338906},{"NoteNumber":55,"Velocity":44,"Duration":2178475,"SoundDuration":2178475,"Delta":71338906},{"NoteNumber":50,"Velocity":44,"Duration":1442098,"SoundDuration":1442098,"Delta":71338906},{"NoteNumber":47,"Velocity":44,"Duration":1442098,"SoundDuration":1442098,"Delta":71338906},{"NoteNumber":83,"Velocity":70,"Duration":116482,"SoundDuration":116482,"Delta":71455388},{"NoteNumber":86,"Velocity":73,"Duration":126943,"SoundDuration":126943,"Delta":71571870},{"NoteNumber":89,"Velocity":73,"Duration":117910,"SoundDuration":117910,"Delta":71698814},{"NoteNumber":86,"Velocity":70,"Duration":118466,"SoundDuration":118466,"Delta":71816725},{"NoteNumber":83,"Velocity":68,"Duration":119020,"SoundDuration":119020,"Delta":71935191},{"NoteNumber":79,"Velocity":66,"Duration":119575,"SoundDuration":119575,"Delta":72054212},{"NoteNumber":77,"Velocity":64,"Duration":120134,"SoundDuration":120134,"Delta":72173787},{"NoteNumber":74,"Velocity":61,"Duration":120904,"SoundDuration":120904,"Delta":72293922},{"NoteNumber":71,"Velocity":60,"Duration":121478,"SoundDuration":121478,"Delta":72414826},{"NoteNumber":67,"Velocity":56,"Duration":122056,"SoundDuration":122056,"Delta":72536304},{"NoteNumber":65,"Velocity":54,"Duration":122643,"SoundDuration":122643,"Delta":72658361},{"NoteNumber":64,"Velocity":51,"Duration":96153,"SoundDuration":96153,"Delta":72781005},{"NoteNumber":48,"Velocity":38,"Duration":736377,"SoundDuration":736377,"Delta":72781005},{"NoteNumber":76,"Velocity":48,"Duration":181356,"SoundDuration":181356,"Delta":72973312},{"NoteNumber":75,"Velocity":48,"Duration":181356,"SoundDuration":181356,"Delta":73154669},{"NoteNumber":76,"Velocity":48,"Duration":181356,"SoundDuration":181356,"Delta":73336025},{"NoteNumber":75,"Velocity":49,"Duration":181356,"SoundDuration":181356,"Delta":73517382},{"NoteNumber":76,"Velocity":49,"Duration":181356,"SoundDuration":181356,"Delta":73698738},{"NoteNumber":75,"Velocity":49,"Duration":187500,"SoundDuration":187500,"Delta":73880095},{"NoteNumber":76,"Velocity":49,"Duration":187500,"SoundDuration":187500,"Delta":74067595},{"NoteNumber":67,"Velocity":53,"Duration":1105677,"SoundDuration":1105677,"Delta":74255095},{"NoteNumber":49,"Velocity":37,"Duration":372116,"SoundDuration":372116,"Delta":74616541},{"NoteNumber":58,"Velocity":37,"Duration":372116,"SoundDuration":372116,"Delta":74616541},{"NoteNumber":50,"Velocity":40,"Duration":372115,"SoundDuration":372115,"Delta":74988657},{"NoteNumber":59,"Velocity":40,"Duration":372115,"SoundDuration":372115,"Delta":74988657},{"NoteNumber":71,"Velocity":49,"Duration":191009,"SoundDuration":191009,"Delta":75360773},{"NoteNumber":66,"Velocity":49,"Duration":402307,"SoundDuration":402307,"Delta":75360773},{"NoteNumber":60,"Velocity":44,"Duration":402307,"SoundDuration":402307,"Delta":75360773},{"NoteNumber":69,"Velocity":49,"Duration":211297,"SoundDuration":211297,"Delta":75551783},{"NoteNumber":55,"Velocity":44,"Duration":706350,"SoundDuration":706350,"Delta":75763080},{"NoteNumber":59,"Velocity":44,"Duration":706350,"SoundDuration":706350,"Delta":75763080},{"NoteNumber":67,"Velocity":54,"Duration":120375,"SoundDuration":120375,"Delta":75888755},{"NoteNumber":71,"Velocity":56,"Duration":115074,"SoundDuration":115074,"Delta":76009130},{"NoteNumber":74,"Velocity":57,"Duration":115074,"SoundDuration":115074,"Delta":76124205},{"NoteNumber":71,"Velocity":58,"Duration":115074,"SoundDuration":115074,"Delta":76239280},{"NoteNumber":74,"Velocity":61,"Duration":115074,"SoundDuration":115074,"Delta":76354355},{"NoteNumber":79,"Velocity":61,"Duration":115074,"SoundDuration":115074,"Delta":76469430},{"NoteNumber":74,"Velocity":63,"Duration":115074,"SoundDuration":115074,"Delta":76584505},{"NoteNumber":79,"Velocity":64,"Duration":115074,"SoundDuration":115074,"Delta":76699579},{"NoteNumber":83,"Velocity":64,"Duration":115074,"SoundDuration":115074,"Delta":76814654},{"NoteNumber":79,"Velocity":67,"Duration":115074,"SoundDuration":115074,"Delta":76929729},{"NoteNumber":83,"Velocity":68,"Duration":115074,"SoundDuration":115074,"Delta":77044804},{"NoteNumber":86,"Velocity":69,"Duration":116482,"SoundDuration":116482,"Delta":77159879},{"NoteNumber":43,"Velocity":44,"Duration":1442098,"SoundDuration":1442098,"Delta":77159879},{"NoteNumber":55,"Velocity":44,"Duration":2181918,"SoundDuration":2181918,"Delta":77159879},{"NoteNumber":50,"Velocity":44,"Duration":1442098,"SoundDuration":1442098,"Delta":77159879},{"NoteNumber":47,"Velocity":44,"Duration":1442098,"SoundDuration":1442098,"Delta":77159879},{"NoteNumber":83,"Velocity":70,"Duration":116482,"SoundDuration":116482,"Delta":77276361},{"NoteNumber":86,"Velocity":73,"Duration":126943,"SoundDuration":126943,"Delta":77392843},{"NoteNumber":89,"Velocity":73,"Duration":117910,"SoundDuration":117910,"Delta":77519787},{"NoteNumber":86,"Velocity":70,"Duration":118466,"SoundDuration":118466,"Delta":77637697},{"NoteNumber":83,"Velocity":68,"Duration":119020,"SoundDuration":119020,"Delta":77756164},{"NoteNumber":79,"Velocity":66,"Duration":119575,"SoundDuration":119575,"Delta":77875185},{"NoteNumber":77,"Velocity":64,"Duration":120134,"SoundDuration":120134,"Delta":77994760},{"NoteNumber":74,"Velocity":61,"Duration":120904,"SoundDuration":120904,"Delta":78114894},{"NoteNumber":71,"Velocity":60,"Duration":121478,"SoundDuration":121478,"Delta":78235799},{"NoteNumber":67,"Velocity":56,"Duration":122056,"SoundDuration":122056,"Delta":78357277},{"NoteNumber":65,"Velocity":54,"Duration":122643,"SoundDuration":122643,"Delta":78479333},{"NoteNumber":64,"Velocity":51,"Duration":96153,"SoundDuration":96153,"Delta":78601977},{"NoteNumber":48,"Velocity":38,"Duration":739819,"SoundDuration":739819,"Delta":78601977},{"NoteNumber":76,"Velocity":48,"Duration":182503,"SoundDuration":182503,"Delta":78794285},{"NoteNumber":75,"Velocity":48,"Duration":182504,"SoundDuration":182504,"Delta":78976789},{"NoteNumber":76,"Velocity":46,"Duration":182503,"SoundDuration":182503,"Delta":79159293},{"NoteNumber":75,"Velocity":49,"Duration":182504,"SoundDuration":182504,"Delta":79341797},{"NoteNumber":76,"Velocity":47,"Duration":182503,"SoundDuration":182503,"Delta":79524301},{"NoteNumber":75,"Velocity":49,"Duration":182503,"SoundDuration":182503,"Delta":79706805},{"NoteNumber":76,"Velocity":47,"Duration":193598,"SoundDuration":193598,"Delta":79889309},{"NoteNumber":58,"Velocity":41,"Duration":728486,"SoundDuration":728486,"Delta":80082907},{"NoteNumber":49,"Velocity":41,"Duration":728486,"SoundDuration":728486,"Delta":80082907},{"NoteNumber":79,"Velocity":54,"Duration":182504,"SoundDuration":182504,"Delta":80265411},{"NoteNumber":78,"Velocity":58,"Duration":182121,"SoundDuration":182121,"Delta":80447915},{"NoteNumber":79,"Velocity":55,"Duration":181356,"SoundDuration":181356,"Delta":80630037},{"NoteNumber":78,"Velocity":61,"Duration":181356,"SoundDuration":181356,"Delta":80811393},{"NoteNumber":79,"Velocity":59,"Duration":180394,"SoundDuration":180394,"Delta":80992750},{"NoteNumber":78,"Velocity":61,"Duration":180201,"SoundDuration":180201,"Delta":81173144},{"NoteNumber":79,"Velocity":64,"Duration":172367,"SoundDuration":172367,"Delta":81353346},{"NoteNumber":79,"Velocity":62,"Duration":187265,"SoundDuration":187265,"Delta":81533175},{"NoteNumber":50,"Velocity":48,"Duration":187265,"SoundDuration":187265,"Delta":81533175},{"NoteNumber":74,"Velocity":51,"Duration":171660,"SoundDuration":171660,"Delta":81720441},{"NoteNumber":59,"Velocity":40,"Duration":187266,"SoundDuration":187266,"Delta":81720441},{"NoteNumber":74,"Velocity":54,"Duration":86825,"SoundDuration":86825,"Delta":81907707},{"NoteNumber":55,"Velocity":41,"Duration":173651,"SoundDuration":173651,"Delta":81907707},{"NoteNumber":74,"Velocity":51,"Duration":86825,"SoundDuration":86825,"Delta":82081358},{"NoteNumber":59,"Velocity":39,"Duration":173651,"SoundDuration":173651,"Delta":82081358},{"NoteNumber":76,"Velocity":57,"Duration":173651,"SoundDuration":173651,"Delta":82255009},{"NoteNumber":50,"Velocity":48,"Duration":173651,"SoundDuration":173651,"Delta":82255009},{"NoteNumber":74,"Velocity":53,"Duration":159180,"SoundDuration":159180,"Delta":82428660},{"NoteNumber":59,"Velocity":40,"Duration":173651,"SoundDuration":173651,"Delta":82428660},{"NoteNumber":72,"Velocity":52,"Duration":88989,"SoundDuration":88989,"Delta":82602312},{"NoteNumber":55,"Velocity":41,"Duration":177978,"SoundDuration":177978,"Delta":82602312},{"NoteNumber":71,"Velocity":51,"Duration":88989,"SoundDuration":88989,"Delta":82780290},{"NoteNumber":59,"Velocity":40,"Duration":177978,"SoundDuration":177978,"Delta":82780290},{"NoteNumber":71,"Velocity":49,"Duration":355956,"SoundDuration":355956,"Delta":82958268},{"NoteNumber":50,"Velocity":43,"Duration":177978,"SoundDuration":177978,"Delta":82958268},{"NoteNumber":62,"Velocity":37,"Duration":177978,"SoundDuration":177978,"Delta":83136246},{"NoteNumber":55,"Velocity":38,"Duration":177978,"SoundDuration":177978,"Delta":83314225},{"NoteNumber":62,"Velocity":36,"Duration":177978,"SoundDuration":177978,"Delta":83492203},{"NoteNumber":69,"Velocity":48,"Duration":85275,"SoundDuration":85275,"Delta":83670181},{"NoteNumber":50,"Velocity":39,"Duration":170551,"SoundDuration":170551,"Delta":83670181},{"NoteNumber":71,"Velocity":45,"Duration":85275,"SoundDuration":85275,"Delta":83755457},{"NoteNumber":69,"Velocity":48,"Duration":85275,"SoundDuration":85275,"Delta":83840733},{"NoteNumber":60,"Velocity":30,"Duration":170551,"SoundDuration":170551,"Delta":83840733},{"NoteNumber":71,"Velocity":45,"Duration":85275,"SoundDuration":85275,"Delta":83926008},{"NoteNumber":69,"Velocity":48,"Duration":58955,"SoundDuration":58955,"Delta":84011284},{"NoteNumber":54,"Velocity":32,"Duration":176866,"SoundDuration":176866,"Delta":84011284},{"NoteNumber":71,"Velocity":46,"Duration":58955,"SoundDuration":58955,"Delta":84070239},{"NoteNumber":69,"Velocity":46,"Duration":58955,"SoundDuration":58955,"Delta":84130669},{"NoteNumber":67,"Velocity":51,"Duration":88432,"SoundDuration":88432,"Delta":84188150},{"NoteNumber":60,"Velocity":30,"Duration":176865,"SoundDuration":176865,"Delta":84188150},{"NoteNumber":69,"Velocity":48,"Duration":88432,"SoundDuration":88432,"Delta":84276583},{"NoteNumber":67,"Velocity":50,"Duration":353732,"SoundDuration":353732,"Delta":84365016},{"NoteNumber":55,"Velocity":35,"Duration":176866,"SoundDuration":176866,"Delta":84365016},{"NoteNumber":59,"Velocity":30,"Duration":176866,"SoundDuration":176866,"Delta":84541882},{"NoteNumber":67,"Velocity":32,"Duration":176866,"SoundDuration":176866,"Delta":84718748},{"NoteNumber":59,"Velocity":30,"Duration":197394,"SoundDuration":197394,"Delta":84895614},{"NoteNumber":74,"Velocity":50,"Duration":469016,"SoundDuration":469016,"Delta":85093009},{"NoteNumber":55,"Velocity":35,"Duration":170551,"SoundDuration":170551,"Delta":85093009},{"NoteNumber":59,"Velocity":30,"Duration":170551,"SoundDuration":170551,"Delta":85263560},{"NoteNumber":67,"Velocity":32,"Duration":170551,"SoundDuration":170551,"Delta":85434112},{"NoteNumber":78,"Velocity":48,"Duration":42637,"SoundDuration":42637,"Delta":85562025},{"NoteNumber":76,"Velocity":48,"Duration":85275,"SoundDuration":85275,"Delta":85604663},{"NoteNumber":59,"Velocity":30,"Duration":170551,"SoundDuration":170551,"Delta":85604663},{"NoteNumber":74,"Velocity":48,"Duration":85275,"SoundDuration":85275,"Delta":85689939},{"NoteNumber":86,"Velocity":57,"Duration":87894,"SoundDuration":87894,"Delta":85775215},{"NoteNumber":55,"Velocity":35,"Duration":175787,"SoundDuration":175787,"Delta":85775215},{"NoteNumber":57,"Velocity":30,"Duration":175787,"SoundDuration":175787,"Delta":85951003},{"NoteNumber":84,"Velocity":56,"Duration":87894,"SoundDuration":87894,"Delta":86126791},{"NoteNumber":66,"Velocity":32,"Duration":175788,"SoundDuration":175788,"Delta":86126791},{"NoteNumber":57,"Velocity":30,"Duration":175787,"SoundDuration":175787,"Delta":86302579},{"NoteNumber":83,"Velocity":54,"Duration":87893,"SoundDuration":87893,"Delta":86478367},{"NoteNumber":55,"Velocity":35,"Duration":175787,"SoundDuration":175787,"Delta":86478367},{"NoteNumber":60,"Velocity":30,"Duration":175787,"SoundDuration":175787,"Delta":86654155},{"NoteNumber":81,"Velocity":51,"Duration":87894,"SoundDuration":87894,"Delta":86829943},{"NoteNumber":66,"Velocity":32,"Duration":175787,"SoundDuration":175787,"Delta":86829943},{"NoteNumber":60,"Velocity":30,"Duration":175788,"SoundDuration":175788,"Delta":87005731},{"NoteNumber":79,"Velocity":55,"Duration":703151,"SoundDuration":703151,"Delta":87181519},{"NoteNumber":55,"Velocity":35,"Duration":175787,"SoundDuration":175787,"Delta":87181519},{"NoteNumber":59,"Velocity":30,"Duration":175787,"SoundDuration":175787,"Delta":87357307},{"NoteNumber":67,"Velocity":32,"Duration":175787,"SoundDuration":175787,"Delta":87533095},{"NoteNumber":59,"Velocity":31,"Duration":175787,"SoundDuration":175787,"Delta":87708883},{"NoteNumber":74,"Velocity":50,"Duration":469016,"SoundDuration":469016,"Delta":87884671},{"NoteNumber":55,"Velocity":35,"Duration":170551,"SoundDuration":170551,"Delta":87884671},{"NoteNumber":59,"Velocity":30,"Duration":170551,"SoundDuration":170551,"Delta":88055222},{"NoteNumber":67,"Velocity":32,"Duration":170551,"SoundDuration":170551,"Delta":88225774},{"NoteNumber":78,"Velocity":48,"Duration":42637,"SoundDuration":42637,"Delta":88353687},{"NoteNumber":76,"Velocity":48,"Duration":85275,"SoundDuration":85275,"Delta":88396325},{"NoteNumber":59,"Velocity":30,"Duration":170551,"SoundDuration":170551,"Delta":88396325},{"NoteNumber":74,"Velocity":48,"Duration":85275,"SoundDuration":85275,"Delta":88481601},{"NoteNumber":86,"Velocity":56,"Duration":88432,"SoundDuration":88432,"Delta":88566877},{"NoteNumber":55,"Velocity":35,"Duration":176866,"SoundDuration":176866,"Delta":88566877},{"NoteNumber":57,"Velocity":30,"Duration":176865,"SoundDuration":176865,"Delta":88743743},{"NoteNumber":84,"Velocity":53,"Duration":90678,"SoundDuration":90678,"Delta":88920609},{"NoteNumber":66,"Velocity":32,"Duration":181356,"SoundDuration":181356,"Delta":88920609},{"NoteNumber":57,"Velocity":30,"Duration":181356,"SoundDuration":181356,"Delta":89101965},{"NoteNumber":83,"Velocity":52,"Duration":90678,"SoundDuration":90678,"Delta":89283322},{"NoteNumber":55,"Velocity":35,"Duration":181356,"SoundDuration":181356,"Delta":89283322},{"NoteNumber":60,"Velocity":30,"Duration":181356,"SoundDuration":181356,"Delta":89464678},{"NoteNumber":81,"Velocity":49,"Duration":96166,"SoundDuration":96166,"Delta":89646035},{"NoteNumber":66,"Velocity":32,"Duration":192332,"SoundDuration":192332,"Delta":89646035},{"NoteNumber":60,"Velocity":30,"Duration":192332,"SoundDuration":192332,"Delta":89838367},{"NoteNumber":79,"Velocity":53,"Duration":353731,"SoundDuration":353731,"Delta":90030699},{"NoteNumber":55,"Velocity":35,"Duration":176866,"SoundDuration":176866,"Delta":90030699},{"NoteNumber":59,"Velocity":30,"Duration":176865,"SoundDuration":176865,"Delta":90207565},{"NoteNumber":67,"Velocity":32,"Duration":176866,"SoundDuration":176866,"Delta":90384431},{"NoteNumber":59,"Velocity":30,"Duration":176866,"SoundDuration":176866,"Delta":90561297},{"NoteNumber":74,"Velocity":56,"Duration":58955,"SoundDuration":58955,"Delta":90679208},{"NoteNumber":86,"Velocity":70,"Duration":511654,"SoundDuration":511654,"Delta":90738163},{"NoteNumber":55,"Velocity":35,"Duration":170551,"SoundDuration":170551,"Delta":90738163},{"NoteNumber":60,"Velocity":30,"Duration":170551,"SoundDuration":170551,"Delta":90908715},{"NoteNumber":66,"Velocity":32,"Duration":170551,"SoundDuration":170551,"Delta":91079266},{"NoteNumber":84,"Velocity":52,"Duration":56850,"SoundDuration":56850,"Delta":91249818},{"NoteNumber":60,"Velocity":30,"Duration":170551,"SoundDuration":170551,"Delta":91249818},{"NoteNumber":83,"Velocity":51,"Duration":56850,"SoundDuration":56850,"Delta":91306668},{"NoteNumber":81,"Velocity":48,"Duration":56850,"SoundDuration":56850,"Delta":91363519},{"NoteNumber":79,"Velocity":53,"Duration":353731,"SoundDuration":353731,"Delta":91420369},{"NoteNumber":55,"Velocity":35,"Duration":176866,"SoundDuration":176866,"Delta":91420369},{"NoteNumber":59,"Velocity":30,"Duration":176865,"SoundDuration":176865,"Delta":91597235},{"NoteNumber":67,"Velocity":32,"Duration":176866,"SoundDuration":176866,"Delta":91774101},{"NoteNumber":59,"Velocity":30,"Duration":176866,"SoundDuration":176866,"Delta":91950967},{"NoteNumber":74,"Velocity":56,"Duration":58955,"SoundDuration":58955,"Delta":92068878},{"NoteNumber":86,"Velocity":71,"Duration":511654,"SoundDuration":511654,"Delta":92127833},{"NoteNumber":55,"Velocity":35,"Duration":170551,"SoundDuration":170551,"Delta":92127833},{"NoteNumber":60,"Velocity":30,"Duration":170551,"SoundDuration":170551,"Delta":92298385},{"NoteNumber":66,"Velocity":32,"Duration":170551,"SoundDuration":170551,"Delta":92468936},{"NoteNumber":84,"Velocity":53,"Duration":56850,"SoundDuration":56850,"Delta":92639488},{"NoteNumber":60,"Velocity":30,"Duration":170551,"SoundDuration":170551,"Delta":92639488},{"NoteNumber":83,"Velocity":51,"Duration":56850,"SoundDuration":56850,"Delta":92696338},{"NoteNumber":81,"Velocity":49,"Duration":56850,"SoundDuration":56850,"Delta":92753189},{"NoteNumber":79,"Velocity":53,"Duration":416724,"SoundDuration":416724,"Delta":92810039},{"NoteNumber":67,"Velocity":31,"Duration":416724,"SoundDuration":416724,"Delta":92810039},{"NoteNumber":59,"Velocity":31,"Duration":416724,"SoundDuration":416724,"Delta":92810039},{"NoteNumber":55,"Velocity":31,"Duration":416724,"SoundDuration":416724,"Delta":92810039},{"NoteNumber":62,"Velocity":42,"Duration":288461,"SoundDuration":288461,"Delta":93226764},{"NoteNumber":67,"Velocity":41,"Duration":96153,"SoundDuration":96153,"Delta":93515225},{"NoteNumber":71,"Velocity":43,"Duration":192307,"SoundDuration":192307,"Delta":93611379},{"NoteNumber":69,"Velocity":36,"Duration":454614,"SoundDuration":454614,"Delta":93995995},{"NoteNumber":60,"Velocity":36,"Duration":454614,"SoundDuration":454614,"Delta":93995995},{"NoteNumber":50,"Velocity":30,"Duration":454614,"SoundDuration":454614,"Delta":93995995},{"NoteNumber":60,"Velocity":36,"Duration":1029502,"SoundDuration":1029502,"Delta":94450609},{"NoteNumber":69,"Velocity":36,"Duration":1029502,"SoundDuration":1029502,"Delta":94450609},{"NoteNumber":55,"Velocity":33,"Duration":483948,"SoundDuration":483948,"Delta":94450609},{"NoteNumber":50,"Velocity":32,"Duration":545553,"SoundDuration":545553,"Delta":94934558},{"NoteNumber":67,"Velocity":37,"Duration":636807,"SoundDuration":636807,"Delta":95480112},{"NoteNumber":59,"Velocity":37,"Duration":636807,"SoundDuration":636807,"Delta":95480112},{"NoteNumber":43,"Velocity":33,"Duration":636807,"SoundDuration":636807,"Delta":95480112},{"NoteNumber":76,"Velocity":60,"Duration":512272,"SoundDuration":512272,"Delta":96461477},{"NoteNumber":48,"Velocity":40,"Duration":342466,"SoundDuration":342466,"Delta":96802517},{"NoteNumber":77,"Velocity":54,"Duration":85616,"SoundDuration":85616,"Delta":96973750},{"NoteNumber":79,"Velocity":54,"Duration":85616,"SoundDuration":85616,"Delta":97059366},{"NoteNumber":72,"Velocity":60,"Duration":342466,"SoundDuration":342466,"Delta":97144983},{"NoteNumber":52,"Velocity":40,"Duration":342466,"SoundDuration":342466,"Delta":97144983},{"NoteNumber":71,"Velocity":49,"Duration":342466,"SoundDuration":342466,"Delta":97487449},{"NoteNumber":74,"Velocity":49,"Duration":342466,"SoundDuration":342466,"Delta":97487449},{"NoteNumber":55,"Velocity":40,"Duration":342466,"SoundDuration":342466,"Delta":97487449},{"NoteNumber":71,"Velocity":53,"Duration":342465,"SoundDuration":342465,"Delta":97829915},{"NoteNumber":74,"Velocity":53,"Duration":256849,"SoundDuration":256849,"Delta":97829915},{"NoteNumber":60,"Velocity":43,"Duration":342465,"SoundDuration":342465,"Delta":97829915},{"NoteNumber":77,"Velocity":48,"Duration":85616,"SoundDuration":85616,"Delta":98086764},{"NoteNumber":76,"Velocity":53,"Duration":342466,"SoundDuration":342466,"Delta":98172381},{"NoteNumber":72,"Velocity":53,"Duration":342466,"SoundDuration":342466,"Delta":98172381},{"NoteNumber":48,"Velocity":40,"Duration":342466,"SoundDuration":342466,"Delta":98172381},{"NoteNumber":71,"Velocity":50,"Duration":734110,"SoundDuration":734110,"Delta":98514847},{"NoteNumber":74,"Velocity":50,"Duration":734110,"SoundDuration":734110,"Delta":98514847},{"NoteNumber":55,"Velocity":43,"Duration":349446,"SoundDuration":349446,"Delta":98514847},{"NoteNumber":43,"Velocity":40,"Duration":384664,"SoundDuration":384664,"Delta":98864293},{"NoteNumber":76,"Velocity":60,"Duration":513699,"SoundDuration":513699,"Delta":99248958},{"NoteNumber":48,"Velocity":40,"Duration":342466,"SoundDuration":342466,"Delta":99591424},{"NoteNumber":77,"Velocity":56,"Duration":85616,"SoundDuration":85616,"Delta":99762657},{"NoteNumber":79,"Velocity":56,"Duration":85616,"SoundDuration":85616,"Delta":99848273},{"NoteNumber":72,"Velocity":61,"Duration":342466,"SoundDuration":342466,"Delta":99933890},{"NoteNumber":52,"Velocity":40,"Duration":342466,"SoundDuration":342466,"Delta":99933890},{"NoteNumber":74,"Velocity":49,"Duration":171233,"SoundDuration":171233,"Delta":100276356},{"NoteNumber":71,"Velocity":49,"Duration":171233,"SoundDuration":171233,"Delta":100276356},{"NoteNumber":55,"Velocity":43,"Duration":342466,"SoundDuration":342466,"Delta":100276356},{"NoteNumber":74,"Velocity":54,"Duration":342465,"SoundDuration":342465,"Delta":100618822},{"NoteNumber":77,"Velocity":54,"Duration":342465,"SoundDuration":342465,"Delta":100618822},{"NoteNumber":60,"Velocity":44,"Duration":342465,"SoundDuration":342465,"Delta":100618822},{"NoteNumber":76,"Velocity":49,"Duration":69220,"SoundDuration":69220,"Delta":100961288},{"NoteNumber":72,"Velocity":49,"Duration":346100,"SoundDuration":346100,"Delta":100961288},{"NoteNumber":48,"Velocity":41,"Duration":346100,"SoundDuration":346100,"Delta":100961288},{"NoteNumber":77,"Velocity":49,"Duration":69220,"SoundDuration":69220,"Delta":101030508},{"NoteNumber":76,"Velocity":49,"Duration":69220,"SoundDuration":69220,"Delta":101099728},{"NoteNumber":77,"Velocity":49,"Duration":69220,"SoundDuration":69220,"Delta":101168948},{"NoteNumber":76,"Velocity":49,"Duration":69220,"SoundDuration":69220,"Delta":101238168},{"NoteNumber":71,"Velocity":52,"Duration":724493,"SoundDuration":724493,"Delta":101307388},{"NoteNumber":74,"Velocity":52,"Duration":724493,"SoundDuration":724493,"Delta":101307388},{"NoteNumber":55,"Velocity":43,"Duration":349446,"SoundDuration":349446,"Delta":101307388},{"NoteNumber":43,"Velocity":41,"Duration":375046,"SoundDuration":375046,"Delta":101656835},{"NoteNumber":77,"Velocity":64,"Duration":513699,"SoundDuration":513699,"Delta":102031882},{"NoteNumber":57,"Velocity":47,"Duration":342466,"SoundDuration":342466,"Delta":102031882},{"NoteNumber":60,"Velocity":46,"Duration":342466,"SoundDuration":342466,"Delta":102374348},{"NoteNumber":79,"Velocity":60,"Duration":85616,"SoundDuration":85616,"Delta":102545581},{"NoteNumber":77,"Velocity":60,"Duration":85616,"SoundDuration":85616,"Delta":102631197},{"NoteNumber":76,"Velocity":64,"Duration":342466,"SoundDuration":342466,"Delta":102716814},{"NoteNumber":55,"Velocity":49,"Duration":342466,"SoundDuration":342466,"Delta":102716814},{"NoteNumber":76,"Velocity":62,"Duration":174926,"SoundDuration":174926,"Delta":103059280},{"NoteNumber":60,"Velocity":45,"Duration":349853,"SoundDuration":349853,"Delta":103059280},{"NoteNumber":81,"Velocity":69,"Duration":513699,"SoundDuration":513699,"Delta":103409134},{"NoteNumber":53,"Velocity":49,"Duration":342466,"SoundDuration":342466,"Delta":103409134},{"NoteNumber":60,"Velocity":47,"Duration":342466,"SoundDuration":342466,"Delta":103751600},{"NoteNumber":83,"Velocity":63,"Duration":85616,"SoundDuration":85616,"Delta":103922833},{"NoteNumber":84,"Velocity":63,"Duration":85616,"SoundDuration":85616,"Delta":104008449},{"NoteNumber":79,"Velocity":69,"Duration":342466,"SoundDuration":342466,"Delta":104094066},{"NoteNumber":52,"Velocity":50,"Duration":342466,"SoundDuration":342466,"Delta":104094066},{"NoteNumber":79,"Velocity":69,"Duration":171233,"SoundDuration":171233,"Delta":104436532},{"NoteNumber":60,"Velocity":46,"Duration":342466,"SoundDuration":342466,"Delta":104436532},{"NoteNumber":79,"Velocity":68,"Duration":171232,"SoundDuration":171232,"Delta":104778998},{"NoteNumber":77,"Velocity":63,"Duration":128424,"SoundDuration":128424,"Delta":104950231},{"NoteNumber":77,"Velocity":64,"Duration":171233,"SoundDuration":171233,"Delta":105121464},{"NoteNumber":67,"Velocity":43,"Duration":342466,"SoundDuration":342466,"Delta":105121464},{"NoteNumber":59,"Velocity":43,"Duration":342466,"SoundDuration":342466,"Delta":105121464},{"NoteNumber":74,"Velocity":63,"Duration":128424,"SoundDuration":128424,"Delta":105292697},{"NoteNumber":77,"Velocity":69,"Duration":171233,"SoundDuration":171233,"Delta":105463930},{"NoteNumber":76,"Velocity":64,"Duration":128424,"SoundDuration":128424,"Delta":105635163},{"NoteNumber":76,"Velocity":66,"Duration":171233,"SoundDuration":171233,"Delta":105806396},{"NoteNumber":67,"Velocity":43,"Duration":342466,"SoundDuration":342466,"Delta":105806396},{"NoteNumber":60,"Velocity":43,"Duration":342466,"SoundDuration":342466,"Delta":105806396},{"NoteNumber":72,"Velocity":64,"Duration":128424,"SoundDuration":128424,"Delta":105977629},{"NoteNumber":73,"Velocity":64,"Duration":171233,"SoundDuration":171233,"Delta":106148862},{"NoteNumber":59,"Velocity":44,"Duration":688560,"SoundDuration":688560,"Delta":106148862},{"NoteNumber":55,"Velocity":44,"Duration":688560,"SoundDuration":688560,"Delta":106148862},{"NoteNumber":74,"Velocity":60,"Duration":171835,"SoundDuration":171835,"Delta":106320095},{"NoteNumber":76,"Velocity":64,"Duration":172441,"SoundDuration":172441,"Delta":106491930},{"NoteNumber":74,"Velocity":62,"Duration":173050,"SoundDuration":173050,"Delta":106664371},{"NoteNumber":72,"Velocity":63,"Duration":173993,"SoundDuration":173993,"Delta":106837422},{"NoteNumber":71,"Velocity":61,"Duration":174615,"SoundDuration":174615,"Delta":107011415},{"NoteNumber":69,"Velocity":61,"Duration":175241,"SoundDuration":175241,"Delta":107186031},{"NoteNumber":67,"Velocity":60,"Duration":186058,"SoundDuration":186058,"Delta":107361273},{"NoteNumber":76,"Velocity":70,"Duration":513699,"SoundDuration":513699,"Delta":107547331},{"NoteNumber":36,"Velocity":64,"Duration":171233,"SoundDuration":171233,"Delta":107547331},{"NoteNumber":40,"Velocity":56,"Duration":171233,"SoundDuration":171233,"Delta":107718564},{"NoteNumber":43,"Velocity":57,"Duration":171233,"SoundDuration":171233,"Delta":107889797},{"NoteNumber":77,"Velocity":64,"Duration":85616,"SoundDuration":85616,"Delta":108061030},{"NoteNumber":48,"Velocity":56,"Duration":171233,"SoundDuration":171233,"Delta":108061030},{"NoteNumber":79,"Velocity":64,"Duration":85616,"SoundDuration":85616,"Delta":108146646},{"NoteNumber":72,"Velocity":70,"Duration":342466,"SoundDuration":342466,"Delta":108232263},{"NoteNumber":40,"Velocity":60,"Duration":171233,"SoundDuration":171233,"Delta":108232263},{"NoteNumber":52,"Velocity":57,"Duration":171233,"SoundDuration":171233,"Delta":108403496},{"NoteNumber":74,"Velocity":60,"Duration":342466,"SoundDuration":342466,"Delta":108574729},{"NoteNumber":71,"Velocity":60,"Duration":342466,"SoundDuration":342466,"Delta":108574729},{"NoteNumber":43,"Velocity":60,"Duration":171233,"SoundDuration":171233,"Delta":108574729},{"NoteNumber":55,"Velocity":57,"Duration":171233,"SoundDuration":171233,"Delta":108745962},{"NoteNumber":74,"Velocity":63,"Duration":256849,"SoundDuration":256849,"Delta":108917195},{"NoteNumber":71,"Velocity":63,"Duration":342465,"SoundDuration":342465,"Delta":108917195},{"NoteNumber":48,"Velocity":60,"Duration":171232,"SoundDuration":171232,"Delta":108917195},{"NoteNumber":52,"Velocity":55,"Duration":171233,"SoundDuration":171233,"Delta":109088428},{"NoteNumber":77,"Velocity":57,"Duration":85616,"SoundDuration":85616,"Delta":109174044},{"NoteNumber":72,"Velocity":63,"Duration":342466,"SoundDuration":342466,"Delta":109259661},{"NoteNumber":76,"Velocity":63,"Duration":342466,"SoundDuration":342466,"Delta":109259661},{"NoteNumber":55,"Velocity":57,"Duration":171233,"SoundDuration":171233,"Delta":109259661},{"NoteNumber":60,"Velocity":56,"Duration":171233,"SoundDuration":171233,"Delta":109430894},{"NoteNumber":71,"Velocity":61,"Duration":711999,"SoundDuration":711999,"Delta":109602127},{"NoteNumber":74,"Velocity":61,"Duration":711999,"SoundDuration":711999,"Delta":109602127},{"NoteNumber":43,"Velocity":60,"Duration":173050,"SoundDuration":173050,"Delta":109602127},{"NoteNumber":47,"Velocity":57,"Duration":173050,"SoundDuration":173050,"Delta":109775177},{"NoteNumber":50,"Velocity":59,"Duration":182949,"SoundDuration":182949,"Delta":109948227},{"NoteNumber":55,"Velocity":57,"Duration":182949,"SoundDuration":182949,"Delta":110131176},{"NoteNumber":76,"Velocity":70,"Duration":513699,"SoundDuration":513699,"Delta":110314126},{"NoteNumber":36,"Velocity":60,"Duration":171233,"SoundDuration":171233,"Delta":110314126},{"NoteNumber":40,"Velocity":56,"Duration":171233,"SoundDuration":171233,"Delta":110485359},{"NoteNumber":43,"Velocity":57,"Duration":171233,"SoundDuration":171233,"Delta":110656592},{"NoteNumber":77,"Velocity":67,"Duration":85616,"SoundDuration":85616,"Delta":110827825},{"NoteNumber":48,"Velocity":55,"Duration":171233,"SoundDuration":171233,"Delta":110827825},{"NoteNumber":79,"Velocity":67,"Duration":85616,"SoundDuration":85616,"Delta":110913441},{"NoteNumber":72,"Velocity":71,"Duration":342466,"SoundDuration":342466,"Delta":110999058},{"NoteNumber":40,"Velocity":60,"Duration":171233,"SoundDuration":171233,"Delta":110999058},{"NoteNumber":52,"Velocity":57,"Duration":171233,"SoundDuration":171233,"Delta":111170291},{"NoteNumber":74,"Velocity":60,"Duration":171233,"SoundDuration":171233,"Delta":111341524},{"NoteNumber":71,"Velocity":60,"Duration":171233,"SoundDuration":171233,"Delta":111341524},{"NoteNumber":43,"Velocity":58,"Duration":171233,"SoundDuration":171233,"Delta":111341524},{"NoteNumber":55,"Velocity":57,"Duration":171233,"SoundDuration":171233,"Delta":111512757},{"NoteNumber":77,"Velocity":64,"Duration":342465,"SoundDuration":342465,"Delta":111683990},{"NoteNumber":74,"Velocity":64,"Duration":342465,"SoundDuration":342465,"Delta":111683990},{"NoteNumber":48,"Velocity":60,"Duration":171232,"SoundDuration":171232,"Delta":111683990},{"NoteNumber":52,"Velocity":55,"Duration":171233,"SoundDuration":171233,"Delta":111855223},{"NoteNumber":72,"Velocity":60,"Duration":346100,"SoundDuration":346100,"Delta":112026456},{"NoteNumber":76,"Velocity":60,"Duration":69220,"SoundDuration":69220,"Delta":112026456},{"NoteNumber":55,"Velocity":57,"Duration":173050,"SoundDuration":173050,"Delta":112026456},{"NoteNumber":77,"Velocity":60,"Duration":69220,"SoundDuration":69220,"Delta":112095676},{"NoteNumber":76,"Velocity":60,"Duration":69220,"SoundDuration":69220,"Delta":112164896},{"NoteNumber":60,"Velocity":56,"Duration":173050,"SoundDuration":173050,"Delta":112199506},{"NoteNumber":77,"Velocity":60,"Duration":69220,"SoundDuration":69220,"Delta":112234116},{"NoteNumber":76,"Velocity":60,"Duration":69220,"SoundDuration":69220,"Delta":112303336},{"NoteNumber":71,"Velocity":62,"Duration":711483,"SoundDuration":711483,"Delta":112372556},{"NoteNumber":74,"Velocity":62,"Duration":711483,"SoundDuration":711483,"Delta":112372556},{"NoteNumber":43,"Velocity":62,"Duration":173050,"SoundDuration":173050,"Delta":112372556},{"NoteNumber":47,"Velocity":56,"Duration":173050,"SoundDuration":173050,"Delta":112545606},{"NoteNumber":50,"Velocity":57,"Duration":173050,"SoundDuration":173050,"Delta":112718657},{"NoteNumber":55,"Velocity":56,"Duration":192332,"SoundDuration":192332,"Delta":112891707},{"NoteNumber":77,"Velocity":77,"Duration":513699,"SoundDuration":513699,"Delta":113084039},{"NoteNumber":57,"Velocity":53,"Duration":171233,"SoundDuration":171233,"Delta":113084039},{"NoteNumber":60,"Velocity":49,"Duration":171233,"SoundDuration":171233,"Delta":113255272},{"NoteNumber":57,"Velocity":53,"Duration":171233,"SoundDuration":171233,"Delta":113426505},{"NoteNumber":79,"Velocity":70,"Duration":85616,"SoundDuration":85616,"Delta":113597738},{"NoteNumber":60,"Velocity":49,"Duration":171233,"SoundDuration":171233,"Delta":113597738},{"NoteNumber":77,"Velocity":70,"Duration":85616,"SoundDuration":85616,"Delta":113683355},{"NoteNumber":76,"Velocity":77,"Duration":342466,"SoundDuration":342466,"Delta":113768971},{"NoteNumber":55,"Velocity":53,"Duration":171233,"SoundDuration":171233,"Delta":113768971},{"NoteNumber":60,"Velocity":50,"Duration":171233,"SoundDuration":171233,"Delta":113940204},{"NoteNumber":76,"Velocity":74,"Duration":174926,"SoundDuration":174926,"Delta":114111437},{"NoteNumber":55,"Velocity":53,"Duration":174926,"SoundDuration":174926,"Delta":114111437},{"NoteNumber":60,"Velocity":50,"Duration":174926,"SoundDuration":174926,"Delta":114286364},{"NoteNumber":81,"Velocity":78,"Duration":513699,"SoundDuration":513699,"Delta":114461291},{"NoteNumber":53,"Velocity":57,"Duration":171233,"SoundDuration":171233,"Delta":114461291},{"NoteNumber":60,"Velocity":53,"Duration":171233,"SoundDuration":171233,"Delta":114632524},{"NoteNumber":53,"Velocity":57,"Duration":171233,"SoundDuration":171233,"Delta":114803757},{"NoteNumber":83,"Velocity":71,"Duration":85616,"SoundDuration":85616,"Delta":114974990},{"NoteNumber":60,"Velocity":53,"Duration":171233,"SoundDuration":171233,"Delta":114974990},{"NoteNumber":84,"Velocity":69,"Duration":85616,"SoundDuration":85616,"Delta":115060607},{"NoteNumber":79,"Velocity":79,"Duration":342466,"SoundDuration":342466,"Delta":115146223},{"NoteNumber":52,"Velocity":57,"Duration":171233,"SoundDuration":171233,"Delta":115146223},{"NoteNumber":60,"Velocity":53,"Duration":171233,"SoundDuration":171233,"Delta":115317456},{"NoteNumber":79,"Velocity":77,"Duration":171233,"SoundDuration":171233,"Delta":115488689},{"NoteNumber":52,"Velocity":57,"Duration":171233,"SoundDuration":171233,"Delta":115488689},{"NoteNumber":60,"Velocity":52,"Duration":171233,"SoundDuration":171233,"Delta":115659922},{"NoteNumber":80,"Velocity":77,"Duration":173993,"SoundDuration":173993,"Delta":115831155},{"NoteNumber":81,"Velocity":74,"Duration":173993,"SoundDuration":173993,"Delta":116005149},{"NoteNumber":77,"Velocity":75,"Duration":171233,"SoundDuration":171233,"Delta":116179143},{"NoteNumber":62,"Velocity":49,"Duration":171233,"SoundDuration":171233,"Delta":116179143},{"NoteNumber":53,"Velocity":49,"Duration":171233,"SoundDuration":171233,"Delta":116179143},{"NoteNumber":74,"Velocity":72,"Duration":171233,"SoundDuration":171233,"Delta":116350376},{"NoteNumber":72,"Velocity":75,"Duration":359496,"SoundDuration":359496,"Delta":116521609},{"NoteNumber":64,"Velocity":49,"Duration":359496,"SoundDuration":359496,"Delta":116521609},{"NoteNumber":55,"Velocity":49,"Duration":739291,"SoundDuration":739291,"Delta":116521609},{"NoteNumber":71,"Velocity":71,"Duration":379795,"SoundDuration":379795,"Delta":116881105},{"NoteNumber":62,"Velocity":49,"Duration":379795,"SoundDuration":379795,"Delta":116881105},{"NoteNumber":72,"Velocity":75,"Duration":115995,"SoundDuration":115995,"Delta":117260900},{"NoteNumber":64,"Velocity":49,"Duration":695975,"SoundDuration":695975,"Delta":117260900},{"NoteNumber":60,"Velocity":49,"Duration":695975,"SoundDuration":695975,"Delta":117260900},{"NoteNumber":67,"Velocity":69,"Duration":115995,"SoundDuration":115995,"Delta":117376896},{"NoteNumber":76,"Velocity":66,"Duration":115995,"SoundDuration":115995,"Delta":117492892},{"NoteNumber":72,"Velocity":75,"Duration":115995,"SoundDuration":115995,"Delta":117608888},{"NoteNumber":79,"Velocity":69,"Duration":115995,"SoundDuration":115995,"Delta":117724884},{"NoteNumber":76,"Velocity":66,"Duration":115995,"SoundDuration":115995,"Delta":117840879},{"NoteNumber":84,"Velocity":73,"Duration":114155,"SoundDuration":114155,"Delta":117956875},{"NoteNumber":83,"Velocity":66,"Duration":114155,"SoundDuration":114155,"Delta":118071031},{"NoteNumber":81,"Velocity":65,"Duration":114155,"SoundDuration":114155,"Delta":118185186},{"NoteNumber":79,"Velocity":70,"Duration":114155,"SoundDuration":114155,"Delta":118299341},{"NoteNumber":77,"Velocity":67,"Duration":114155,"SoundDuration":114155,"Delta":118413497},{"NoteNumber":76,"Velocity":65,"Duration":114155,"SoundDuration":114155,"Delta":118527652},{"NoteNumber":73,"Velocity":63,"Duration":116618,"SoundDuration":116618,"Delta":118641807},{"NoteNumber":74,"Velocity":60,"Duration":116618,"SoundDuration":116618,"Delta":118758425},{"NoteNumber":77,"Velocity":60,"Duration":116617,"SoundDuration":116617,"Delta":118875043},{"NoteNumber":81,"Velocity":62,"Duration":113701,"SoundDuration":113701,"Delta":118991661},{"NoteNumber":62,"Velocity":38,"Duration":341103,"SoundDuration":341103,"Delta":118991661},{"NoteNumber":53,"Velocity":38,"Duration":341103,"SoundDuration":341103,"Delta":118991661},{"NoteNumber":57,"Velocity":38,"Duration":341103,"SoundDuration":341103,"Delta":118991661},{"NoteNumber":77,"Velocity":57,"Duration":113700,"SoundDuration":113700,"Delta":119105362},{"NoteNumber":74,"Velocity":57,"Duration":113701,"SoundDuration":113701,"Delta":119219063},{"NoteNumber":79,"Velocity":61,"Duration":113700,"SoundDuration":113700,"Delta":119332764},{"NoteNumber":60,"Velocity":38,"Duration":341102,"SoundDuration":341102,"Delta":119332764},{"NoteNumber":64,"Velocity":38,"Duration":341102,"SoundDuration":341102,"Delta":119332764},{"NoteNumber":55,"Velocity":38,"Duration":711546,"SoundDuration":711546,"Delta":119332764},{"NoteNumber":76,"Velocity":57,"Duration":113701,"SoundDuration":113701,"Delta":119446465},{"NoteNumber":72,"Velocity":57,"Duration":113700,"SoundDuration":113700,"Delta":119560166},{"NoteNumber":77,"Velocity":61,"Duration":115767,"SoundDuration":115767,"Delta":119673867},{"NoteNumber":65,"Velocity":44,"Duration":370443,"SoundDuration":370443,"Delta":119673867},{"NoteNumber":62,"Velocity":44,"Duration":370443,"SoundDuration":370443,"Delta":119673867},{"NoteNumber":74,"Velocity":55,"Duration":115767,"SoundDuration":115767,"Delta":119789635},{"NoteNumber":71,"Velocity":55,"Duration":138908,"SoundDuration":138908,"Delta":119905402},{"NoteNumber":72,"Velocity":75,"Duration":116292,"SoundDuration":116292,"Delta":120044310},{"NoteNumber":60,"Velocity":49,"Duration":697755,"SoundDuration":697755,"Delta":120044310},{"NoteNumber":64,"Velocity":49,"Duration":697755,"SoundDuration":697755,"Delta":120044310},{"NoteNumber":67,"Velocity":69,"Duration":116292,"SoundDuration":116292,"Delta":120160603},{"NoteNumber":76,"Velocity":67,"Duration":116292,"SoundDuration":116292,"Delta":120276896},{"NoteNumber":72,"Velocity":75,"Duration":116292,"SoundDuration":116292,"Delta":120393188},{"NoteNumber":79,"Velocity":69,"Duration":116292,"SoundDuration":116292,"Delta":120509481},{"NoteNumber":76,"Velocity":67,"Duration":116292,"SoundDuration":116292,"Delta":120625774},{"NoteNumber":84,"Velocity":73,"Duration":114155,"SoundDuration":114155,"Delta":120742066},{"NoteNumber":83,"Velocity":66,"Duration":114155,"SoundDuration":114155,"Delta":120856222},{"NoteNumber":81,"Velocity":64,"Duration":114155,"SoundDuration":114155,"Delta":120970377},{"NoteNumber":79,"Velocity":70,"Duration":114155,"SoundDuration":114155,"Delta":121084532},{"NoteNumber":77,"Velocity":67,"Duration":114155,"SoundDuration":114155,"Delta":121198688},{"NoteNumber":76,"Velocity":65,"Duration":114155,"SoundDuration":114155,"Delta":121312843},{"NoteNumber":73,"Velocity":63,"Duration":116618,"SoundDuration":116618,"Delta":121426998},{"NoteNumber":74,"Velocity":60,"Duration":116618,"SoundDuration":116618,"Delta":121543616},{"NoteNumber":77,"Velocity":59,"Duration":116584,"SoundDuration":116584,"Delta":121660234},{"NoteNumber":81,"Velocity":62,"Duration":113032,"SoundDuration":113032,"Delta":121776818},{"NoteNumber":57,"Velocity":38,"Duration":339098,"SoundDuration":339098,"Delta":121776818},{"NoteNumber":62,"Velocity":38,"Duration":339098,"SoundDuration":339098,"Delta":121776818},{"NoteNumber":53,"Velocity":38,"Duration":339098,"SoundDuration":339098,"Delta":121776818},{"NoteNumber":77,"Velocity":57,"Duration":113032,"SoundDuration":113032,"Delta":121889851},{"NoteNumber":74,"Velocity":55,"Duration":113032,"SoundDuration":113032,"Delta":122002884},{"NoteNumber":79,"Velocity":61,"Duration":113032,"SoundDuration":113032,"Delta":122115916},{"NoteNumber":60,"Velocity":38,"Duration":339097,"SoundDuration":339097,"Delta":122115916},{"NoteNumber":55,"Velocity":38,"Duration":685385,"SoundDuration":685385,"Delta":122115916},{"NoteNumber":64,"Velocity":38,"Duration":339097,"SoundDuration":339097,"Delta":122115916},{"NoteNumber":76,"Velocity":57,"Duration":113032,"SoundDuration":113032,"Delta":122228949},{"NoteNumber":72,"Velocity":54,"Duration":113032,"SoundDuration":113032,"Delta":122341982},{"NoteNumber":77,"Velocity":61,"Duration":115767,"SoundDuration":115767,"Delta":122455014},{"NoteNumber":65,"Velocity":40,"Duration":346287,"SoundDuration":346287,"Delta":122455014},{"NoteNumber":62,"Velocity":40,"Duration":346287,"SoundDuration":346287,"Delta":122455014},{"NoteNumber":74,"Velocity":55,"Duration":115767,"SoundDuration":115767,"Delta":122570782},{"NoteNumber":71,"Velocity":55,"Duration":114752,"SoundDuration":114752,"Delta":122686549},{"NoteNumber":72,"Velocity":52,"Duration":94936,"SoundDuration":94936,"Delta":122801302},{"NoteNumber":60,"Velocity":38,"Duration":94936,"SoundDuration":94936,"Delta":122801302},{"NoteNumber":64,"Velocity":38,"Duration":94936,"SoundDuration":94936,"Delta":122801302},{"NoteNumber":67,"Velocity":50,"Duration":110294,"SoundDuration":110294,"Delta":123181049},{"NoteNumber":55,"Velocity":38,"Duration":110294,"SoundDuration":110294,"Delta":123181049},{"NoteNumber":60,"Velocity":50,"Duration":958072,"SoundDuration":958072,"Delta":123622225},{"NoteNumber":36,"Velocity":38,"Duration":958072,"SoundDuration":958072,"Delta":123622225},{"NoteNumber":48,"Velocity":38,"Duration":958072,"SoundDuration":958072,"Delta":123622225},{"NoteNumber":76,"Velocity":50,"Duration":697674,"SoundDuration":697674,"Delta":124580298},{"NoteNumber":60,"Velocity":37,"Duration":174418,"SoundDuration":174418,"Delta":124580298},{"NoteNumber":67,"Velocity":30,"Duration":174418,"SoundDuration":174418,"Delta":124754716},{"NoteNumber":66,"Velocity":33,"Duration":174418,"SoundDuration":174418,"Delta":124929135},{"NoteNumber":67,"Velocity":30,"Duration":174418,"SoundDuration":174418,"Delta":125103553},{"NoteNumber":77,"Velocity":46,"Duration":87209,"SoundDuration":87209,"Delta":125277972},{"NoteNumber":60,"Velocity":37,"Duration":174418,"SoundDuration":174418,"Delta":125277972},{"NoteNumber":76,"Velocity":46,"Duration":87209,"SoundDuration":87209,"Delta":125365181},{"NoteNumber":74,"Velocity":46,"Duration":86774,"SoundDuration":86774,"Delta":125452390},{"NoteNumber":67,"Velocity":30,"Duration":172981,"SoundDuration":172981,"Delta":125452390},{"NoteNumber":76,"Velocity":46,"Duration":86206,"SoundDuration":86206,"Delta":125539165},{"NoteNumber":79,"Velocity":50,"Duration":171564,"SoundDuration":171564,"Delta":125625372},{"NoteNumber":62,"Velocity":33,"Duration":171564,"SoundDuration":171564,"Delta":125625372},{"NoteNumber":77,"Velocity":46,"Duration":170167,"SoundDuration":170167,"Delta":125796937},{"NoteNumber":67,"Velocity":30,"Duration":170167,"SoundDuration":170167,"Delta":125796937},{"NoteNumber":76,"Velocity":51,"Duration":170454,"SoundDuration":170454,"Delta":125967104},{"NoteNumber":64,"Velocity":37,"Duration":170454,"SoundDuration":170454,"Delta":125967104},{"NoteNumber":74,"Velocity":49,"Duration":170454,"SoundDuration":170454,"Delta":126137558},{"NoteNumber":67,"Velocity":30,"Duration":170454,"SoundDuration":170454,"Delta":126137558},{"NoteNumber":72,"Velocity":49,"Duration":170454,"SoundDuration":170454,"Delta":126308013},{"NoteNumber":65,"Velocity":33,"Duration":170454,"SoundDuration":170454,"Delta":126308013},{"NoteNumber":71,"Velocity":49,"Duration":191438,"SoundDuration":191438,"Delta":126478467},{"NoteNumber":67,"Velocity":30,"Duration":191438,"SoundDuration":191438,"Delta":126478467},{"NoteNumber":72,"Velocity":52,"Duration":90361,"SoundDuration":90361,"Delta":126669906},{"NoteNumber":64,"Velocity":37,"Duration":180723,"SoundDuration":180723,"Delta":126669906},{"NoteNumber":67,"Velocity":30,"Duration":179001,"SoundDuration":179001,"Delta":126850629},{"NoteNumber":73,"Velocity":55,"Duration":89250,"SoundDuration":89250,"Delta":127029631},{"NoteNumber":58,"Velocity":33,"Duration":177485,"SoundDuration":177485,"Delta":127029631},{"NoteNumber":67,"Velocity":31,"Duration":175649,"SoundDuration":175649,"Delta":127207117},{"NoteNumber":74,"Velocity":56,"Duration":87209,"SoundDuration":87209,"Delta":127382767},{"NoteNumber":59,"Velocity":38,"Duration":174184,"SoundDuration":174184,"Delta":127382767},{"NoteNumber":67,"Velocity":31,"Duration":172413,"SoundDuration":172413,"Delta":127556951},{"NoteNumber":75,"Velocity":60,"Duration":85227,"SoundDuration":85227,"Delta":127729365},{"NoteNumber":59,"Velocity":35,"Duration":170454,"SoundDuration":170454,"Delta":127729365},{"NoteNumber":67,"Velocity":32,"Duration":170454,"SoundDuration":170454,"Delta":127899820},{"NoteNumber":76,"Velocity":63,"Duration":85227,"SoundDuration":85227,"Delta":128070274},{"NoteNumber":60,"Velocity":41,"Duration":170454,"SoundDuration":170454,"Delta":128070274},{"NoteNumber":67,"Velocity":33,"Duration":180744,"SoundDuration":180744,"Delta":128240729},{"NoteNumber":79,"Velocity":62,"Duration":173050,"SoundDuration":173050,"Delta":128421473},{"NoteNumber":62,"Velocity":37,"Duration":173050,"SoundDuration":173050,"Delta":128421473},{"NoteNumber":77,"Velocity":57,"Duration":173050,"SoundDuration":173050,"Delta":128594524},{"NoteNumber":67,"Velocity":33,"Duration":173050,"SoundDuration":173050,"Delta":128594524},{"NoteNumber":76,"Velocity":62,"Duration":522924,"SoundDuration":522924,"Delta":128767574},{"NoteNumber":60,"Velocity":40,"Duration":173050,"SoundDuration":173050,"Delta":128767574},{"NoteNumber":67,"Velocity":30,"Duration":173050,"SoundDuration":173050,"Delta":128940624},{"NoteNumber":66,"Velocity":33,"Duration":176824,"SoundDuration":176824,"Delta":129113674},{"NoteNumber":77,"Velocity":55,"Duration":86525,"SoundDuration":86525,"Delta":129290499},{"NoteNumber":67,"Velocity":30,"Duration":173050,"SoundDuration":173050,"Delta":129290499},{"NoteNumber":76,"Velocity":55,"Duration":86525,"SoundDuration":86525,"Delta":129377024},{"NoteNumber":74,"Velocity":56,"Duration":346100,"SoundDuration":346100,"Delta":129463549},{"NoteNumber":59,"Velocity":37,"Duration":173050,"SoundDuration":173050,"Delta":129463549},{"NoteNumber":67,"Velocity":31,"Duration":173050,"SoundDuration":173050,"Delta":129636599},{"NoteNumber":66,"Velocity":33,"Duration":180723,"SoundDuration":180723,"Delta":129809649},{"NoteNumber":67,"Velocity":32,"Duration":180723,"SoundDuration":180723,"Delta":129990372},{"NoteNumber":77,"Velocity":58,"Duration":698998,"SoundDuration":698998,"Delta":130171095},{"NoteNumber":59,"Velocity":37,"Duration":171233,"SoundDuration":171233,"Delta":130171095},{"NoteNumber":67,"Velocity":31,"Duration":171233,"SoundDuration":171233,"Delta":130342328},{"NoteNumber":66,"Velocity":33,"Duration":171233,"SoundDuration":171233,"Delta":130513561},{"NoteNumber":67,"Velocity":31,"Duration":185299,"SoundDuration":185299,"Delta":130684794},{"NoteNumber":79,"Velocity":48,"Duration":84269,"SoundDuration":84269,"Delta":130870094},{"NoteNumber":59,"Velocity":37,"Duration":168539,"SoundDuration":168539,"Delta":130870094},{"NoteNumber":77,"Velocity":49,"Duration":84269,"SoundDuration":84269,"Delta":130954363},{"NoteNumber":76,"Velocity":49,"Duration":84269,"SoundDuration":84269,"Delta":131038633},{"NoteNumber":67,"Velocity":31,"Duration":168539,"SoundDuration":168539,"Delta":131038633},{"NoteNumber":77,"Velocity":49,"Duration":84269,"SoundDuration":84269,"Delta":131122902},{"NoteNumber":81,"Velocity":55,"Duration":168539,"SoundDuration":168539,"Delta":131207172},{"NoteNumber":60,"Velocity":33,"Duration":168539,"SoundDuration":168539,"Delta":131207172},{"NoteNumber":79,"Velocity":52,"Duration":168539,"SoundDuration":168539,"Delta":131375711},{"NoteNumber":67,"Velocity":31,"Duration":168539,"SoundDuration":168539,"Delta":131375711},{"NoteNumber":77,"Velocity":52,"Duration":168539,"SoundDuration":168539,"Delta":131544251},{"NoteNumber":62,"Velocity":37,"Duration":168539,"SoundDuration":168539,"Delta":131544251},{"NoteNumber":76,"Velocity":50,"Duration":168539,"SoundDuration":168539,"Delta":131712790},{"NoteNumber":67,"Velocity":31,"Duration":168539,"SoundDuration":168539,"Delta":131712790},{"NoteNumber":74,"Velocity":50,"Duration":168539,"SoundDuration":168539,"Delta":131881329},{"NoteNumber":64,"Velocity":33,"Duration":168539,"SoundDuration":168539,"Delta":131881329},{"NoteNumber":72,"Velocity":50,"Duration":177788,"SoundDuration":177788,"Delta":132049868},{"NoteNumber":67,"Velocity":31,"Duration":177788,"SoundDuration":177788,"Delta":132049868},{"NoteNumber":71,"Velocity":49,"Duration":171233,"SoundDuration":171233,"Delta":132227657},{"NoteNumber":65,"Velocity":37,"Duration":171233,"SoundDuration":171233,"Delta":132227657},{"NoteNumber":72,"Velocity":50,"Duration":85616,"SoundDuration":85616,"Delta":132398890},{"NoteNumber":67,"Velocity":32,"Duration":171233,"SoundDuration":171233,"Delta":132398890},{"NoteNumber":74,"Velocity":51,"Duration":85616,"SoundDuration":85616,"Delta":132570123},{"NoteNumber":62,"Velocity":34,"Duration":171233,"SoundDuration":171233,"Delta":132570123},{"NoteNumber":76,"Velocity":53,"Duration":85616,"SoundDuration":85616,"Delta":132741356},{"NoteNumber":67,"Velocity":31,"Duration":171233,"SoundDuration":171233,"Delta":132741356},{"NoteNumber":77,"Velocity":54,"Duration":85169,"SoundDuration":85169,"Delta":132912589},{"NoteNumber":59,"Velocity":40,"Duration":170338,"SoundDuration":170338,"Delta":132912589},{"NoteNumber":79,"Velocity":55,"Duration":85169,"SoundDuration":85169,"Delta":133082927},{"NoteNumber":67,"Velocity":31,"Duration":170636,"SoundDuration":170636,"Delta":133082927},{"NoteNumber":81,"Velocity":56,"Duration":85616,"SoundDuration":85616,"Delta":133253564},{"NoteNumber":62,"Velocity":34,"Duration":171233,"SoundDuration":171233,"Delta":133253564},{"NoteNumber":83,"Velocity":58,"Duration":85767,"SoundDuration":85767,"Delta":133424797},{"NoteNumber":67,"Velocity":31,"Duration":171835,"SoundDuration":171835,"Delta":133424797},{"NoteNumber":84,"Velocity":60,"Duration":86068,"SoundDuration":86068,"Delta":133596632},{"NoteNumber":59,"Velocity":46,"Duration":172136,"SoundDuration":172136,"Delta":133596632},{"NoteNumber":86,"Velocity":61,"Duration":86525,"SoundDuration":86525,"Delta":133768769},{"NoteNumber":67,"Velocity":35,"Duration":173050,"SoundDuration":173050,"Delta":133768769},{"NoteNumber":88,"Velocity":62,"Duration":86525,"SoundDuration":86525,"Delta":133941819},{"NoteNumber":55,"Velocity":37,"Duration":173050,"SoundDuration":173050,"Delta":133941819},{"NoteNumber":89,"Velocity":63,"Duration":99999,"SoundDuration":99999,"Delta":134114869},{"NoteNumber":67,"Velocity":35,"Duration":199999,"SoundDuration":199999,"Delta":134114869},{"NoteNumber":87,"Velocity":79,"Duration":715051,"SoundDuration":715051,"Delta":134314869},{"NoteNumber":60,"Velocity":44,"Duration":178763,"SoundDuration":178763,"Delta":134314869},{"NoteNumber":67,"Velocity":37,"Duration":178763,"SoundDuration":178763,"Delta":134493632},{"NoteNumber":65,"Velocity":40,"Duration":178763,"SoundDuration":178763,"Delta":134672395},{"NoteNumber":67,"Velocity":37,"Duration":178762,"SoundDuration":178762,"Delta":134851158},{"NoteNumber":88,"Velocity":75,"Duration":357526,"SoundDuration":357526,"Delta":135029921},{"NoteNumber":60,"Velocity":44,"Duration":178763,"SoundDuration":178763,"Delta":135029921},{"NoteNumber":67,"Velocity":37,"Duration":178763,"SoundDuration":178763,"Delta":135208684},{"NoteNumber":64,"Velocity":40,"Duration":189607,"SoundDuration":189607,"Delta":135387447},{"NoteNumber":67,"Velocity":37,"Duration":211297,"SoundDuration":211297,"Delta":135577055},{"NoteNumber":76,"Velocity":64,"Duration":469657,"SoundDuration":469657,"Delta":135788352},{"NoteNumber":60,"Velocity":48,"Duration":118652,"SoundDuration":118652,"Delta":135788352},{"NoteNumber":64,"Velocity":43,"Duration":118652,"SoundDuration":118652,"Delta":135907005},{"NoteNumber":67,"Velocity":43,"Duration":118652,"SoundDuration":118652,"Delta":136025657},{"NoteNumber":72,"Velocity":46,"Duration":341103,"SoundDuration":341103,"Delta":136144309},{"NoteNumber":81,"Velocity":60,"Duration":113701,"SoundDuration":113701,"Delta":136258010},{"NoteNumber":84,"Velocity":60,"Duration":113700,"SoundDuration":113700,"Delta":136371711},{"NoteNumber":88,"Velocity":60,"Duration":113700,"SoundDuration":113700,"Delta":136485412},{"NoteNumber":84,"Velocity":58,"Duration":113700,"SoundDuration":113700,"Delta":136599113},{"NoteNumber":81,"Velocity":58,"Duration":113701,"SoundDuration":113701,"Delta":136712814},{"NoteNumber":84,"Velocity":60,"Duration":113700,"SoundDuration":113700,"Delta":136826515},{"NoteNumber":81,"Velocity":58,"Duration":114377,"SoundDuration":114377,"Delta":136940216},{"NoteNumber":76,"Velocity":58,"Duration":115074,"SoundDuration":115074,"Delta":137054593},{"NoteNumber":74,"Velocity":64,"Duration":469657,"SoundDuration":469657,"Delta":137169668},{"NoteNumber":59,"Velocity":48,"Duration":118652,"SoundDuration":118652,"Delta":137169668},{"NoteNumber":62,"Velocity":43,"Duration":118652,"SoundDuration":118652,"Delta":137288320},{"NoteNumber":67,"Velocity":43,"Duration":118652,"SoundDuration":118652,"Delta":137406972},{"NoteNumber":71,"Velocity":48,"Duration":341103,"SoundDuration":341103,"Delta":137525624},{"NoteNumber":79,"Velocity":60,"Duration":113701,"SoundDuration":113701,"Delta":137639325},{"NoteNumber":83,"Velocity":60,"Duration":113700,"SoundDuration":113700,"Delta":137753026},{"NoteNumber":86,"Velocity":60,"Duration":113700,"SoundDuration":113700,"Delta":137866727},{"NoteNumber":83,"Velocity":59,"Duration":113700,"SoundDuration":113700,"Delta":137980428},{"NoteNumber":79,"Velocity":59,"Duration":113701,"SoundDuration":113701,"Delta":138094129},{"NoteNumber":83,"Velocity":60,"Duration":113700,"SoundDuration":113700,"Delta":138207830},{"NoteNumber":79,"Velocity":58,"Duration":113701,"SoundDuration":113701,"Delta":138321531},{"NoteNumber":74,"Velocity":58,"Duration":120904,"SoundDuration":120904,"Delta":138435232},{"NoteNumber":57,"Velocity":50,"Duration":341103,"SoundDuration":341103,"Delta":138556137},{"NoteNumber":62,"Velocity":50,"Duration":341103,"SoundDuration":341103,"Delta":138556137},{"NoteNumber":54,"Velocity":50,"Duration":341103,"SoundDuration":341103,"Delta":138556137},{"NoteNumber":74,"Velocity":60,"Duration":113701,"SoundDuration":113701,"Delta":138669838},{"NoteNumber":81,"Velocity":60,"Duration":113700,"SoundDuration":113700,"Delta":138783539},{"NoteNumber":84,"Velocity":60,"Duration":113700,"SoundDuration":113700,"Delta":138897240},{"NoteNumber":81,"Velocity":58,"Duration":113701,"SoundDuration":113701,"Delta":139010941},{"NoteNumber":74,"Velocity":60,"Duration":124843,"SoundDuration":124843,"Delta":139124642},{"NoteNumber":59,"Velocity":52,"Duration":341103,"SoundDuration":341103,"Delta":139249486},{"NoteNumber":55,"Velocity":52,"Duration":341103,"SoundDuration":341103,"Delta":139249486},{"NoteNumber":62,"Velocity":52,"Duration":341103,"SoundDuration":341103,"Delta":139249486},{"NoteNumber":74,"Velocity":60,"Duration":113701,"SoundDuration":113701,"Delta":139363187},{"NoteNumber":79,"Velocity":60,"Duration":113700,"SoundDuration":113700,"Delta":139476888},{"NoteNumber":83,"Velocity":60,"Duration":113700,"SoundDuration":113700,"Delta":139590589},{"NoteNumber":79,"Velocity":59,"Duration":133351,"SoundDuration":133351,"Delta":139704290},{"NoteNumber":74,"Velocity":60,"Duration":133351,"SoundDuration":133351,"Delta":139837641},{"NoteNumber":81,"Velocity":68,"Duration":260476,"SoundDuration":260476,"Delta":139970992},{"NoteNumber":50,"Velocity":57,"Duration":173651,"SoundDuration":173651,"Delta":139970992},{"NoteNumber":62,"Velocity":39,"Duration":173651,"SoundDuration":173651,"Delta":140144643},{"NoteNumber":78,"Velocity":63,"Duration":86825,"SoundDuration":86825,"Delta":140231469},{"NoteNumber":74,"Velocity":60,"Duration":347302,"SoundDuration":347302,"Delta":140318295},{"NoteNumber":61,"Velocity":40,"Duration":173651,"SoundDuration":173651,"Delta":140318295},{"NoteNumber":62,"Velocity":41,"Duration":173651,"SoundDuration":173651,"Delta":140491946},{"NoteNumber":61,"Velocity":44,"Duration":173651,"SoundDuration":173651,"Delta":140665597},{"NoteNumber":62,"Velocity":45,"Duration":173651,"SoundDuration":173651,"Delta":140839248},{"NoteNumber":60,"Velocity":47,"Duration":179082,"SoundDuration":179082,"Delta":141012900},{"NoteNumber":62,"Velocity":49,"Duration":197394,"SoundDuration":197394,"Delta":141191983},{"NoteNumber":67,"Velocity":43,"Duration":98697,"SoundDuration":98697,"Delta":141290680},{"NoteNumber":79,"Velocity":64,"Duration":852757,"SoundDuration":852757,"Delta":141389377},{"NoteNumber":59,"Velocity":49,"Duration":170551,"SoundDuration":170551,"Delta":141389377},{"NoteNumber":62,"Velocity":44,"Duration":170551,"SoundDuration":170551,"Delta":141559929},{"NoteNumber":55,"Velocity":35,"Duration":170551,"SoundDuration":170551,"Delta":141730480},{"NoteNumber":62,"Velocity":30,"Duration":170551,"SoundDuration":170551,"Delta":141901032},{"NoteNumber":59,"Velocity":37,"Duration":170551,"SoundDuration":170551,"Delta":142071583},{"NoteNumber":78,"Velocity":50,"Duration":170551,"SoundDuration":170551,"Delta":142242135},{"NoteNumber":62,"Velocity":32,"Duration":170551,"SoundDuration":170551,"Delta":142242135},{"NoteNumber":76,"Velocity":50,"Duration":170551,"SoundDuration":170551,"Delta":142412686},{"NoteNumber":55,"Velocity":35,"Duration":170551,"SoundDuration":170551,"Delta":142412686},{"NoteNumber":74,"Velocity":50,"Duration":164866,"SoundDuration":164866,"Delta":142583238},{"NoteNumber":62,"Velocity":34,"Duration":170551,"SoundDuration":170551,"Delta":142583238},{"NoteNumber":74,"Velocity":53,"Duration":170551,"SoundDuration":170551,"Delta":142753789},{"NoteNumber":57,"Velocity":37,"Duration":170551,"SoundDuration":170551,"Delta":142753789},{"NoteNumber":72,"Velocity":49,"Duration":170551,"SoundDuration":170551,"Delta":142924341},{"NoteNumber":62,"Velocity":34,"Duration":170551,"SoundDuration":170551,"Delta":142924341},{"NoteNumber":71,"Velocity":50,"Duration":170551,"SoundDuration":170551,"Delta":143094892},{"NoteNumber":55,"Velocity":37,"Duration":170551,"SoundDuration":170551,"Delta":143094892},{"NoteNumber":69,"Velocity":47,"Duration":170551,"SoundDuration":170551,"Delta":143265444},{"NoteNumber":62,"Velocity":34,"Duration":170551,"SoundDuration":170551,"Delta":143265444},{"NoteNumber":74,"Velocity":54,"Duration":84269,"SoundDuration":84269,"Delta":143435995},{"NoteNumber":54,"Velocity":37,"Duration":168539,"SoundDuration":168539,"Delta":143435995},{"NoteNumber":62,"Velocity":34,"Duration":168539,"SoundDuration":168539,"Delta":143604534},{"NoteNumber":72,"Velocity":51,"Duration":84269,"SoundDuration":84269,"Delta":143773074},{"NoteNumber":50,"Velocity":37,"Duration":168539,"SoundDuration":168539,"Delta":143773074},{"NoteNumber":62,"Velocity":34,"Duration":205507,"SoundDuration":205507,"Delta":143941613},{"NoteNumber":70,"Velocity":53,"Duration":345224,"SoundDuration":345224,"Delta":144147120},{"NoteNumber":55,"Velocity":38,"Duration":172612,"SoundDuration":172612,"Delta":144147120},{"NoteNumber":62,"Velocity":34,"Duration":172612,"SoundDuration":172612,"Delta":144319733},{"NoteNumber":71,"Velocity":51,"Duration":345224,"SoundDuration":345224,"Delta":144492345},{"NoteNumber":61,"Velocity":34,"Duration":172612,"SoundDuration":172612,"Delta":144492345},{"NoteNumber":62,"Velocity":34,"Duration":172612,"SoundDuration":172612,"Delta":144664957},{"NoteNumber":61,"Velocity":39,"Duration":170551,"SoundDuration":170551,"Delta":144837569},{"NoteNumber":62,"Velocity":41,"Duration":170551,"SoundDuration":170551,"Delta":145008121},{"NoteNumber":64,"Velocity":44,"Duration":170551,"SoundDuration":170551,"Delta":145178672},{"NoteNumber":62,"Velocity":41,"Duration":170551,"SoundDuration":170551,"Delta":145349224},{"NoteNumber":60,"Velocity":49,"Duration":170551,"SoundDuration":170551,"Delta":145519775},{"NoteNumber":62,"Velocity":47,"Duration":170551,"SoundDuration":170551,"Delta":145690327},{"NoteNumber":59,"Velocity":49,"Duration":170551,"SoundDuration":170551,"Delta":145860878},{"NoteNumber":62,"Velocity":47,"Duration":170551,"SoundDuration":170551,"Delta":146031430},{"NoteNumber":60,"Velocity":49,"Duration":170551,"SoundDuration":170551,"Delta":146201981},{"NoteNumber":62,"Velocity":47,"Duration":170551,"SoundDuration":170551,"Delta":146372533},{"NoteNumber":57,"Velocity":49,"Duration":170551,"SoundDuration":170551,"Delta":146543084},{"NoteNumber":62,"Velocity":47,"Duration":200026,"SoundDuration":200026,"Delta":146713636},{"NoteNumber":67,"Velocity":43,"Duration":100013,"SoundDuration":100013,"Delta":146813649},{"NoteNumber":79,"Velocity":64,"Duration":852272,"SoundDuration":852272,"Delta":146913663},{"NoteNumber":59,"Velocity":49,"Duration":170454,"SoundDuration":170454,"Delta":146913663},{"NoteNumber":62,"Velocity":42,"Duration":170454,"SoundDuration":170454,"Delta":147084117},{"NoteNumber":55,"Velocity":35,"Duration":170454,"SoundDuration":170454,"Delta":147254572},{"NoteNumber":62,"Velocity":30,"Duration":170454,"SoundDuration":170454,"Delta":147425026},{"NoteNumber":59,"Velocity":37,"Duration":170454,"SoundDuration":170454,"Delta":147595481},{"NoteNumber":78,"Velocity":50,"Duration":170454,"SoundDuration":170454,"Delta":147765935},{"NoteNumber":62,"Velocity":30,"Duration":170454,"SoundDuration":170454,"Delta":147765935},{"NoteNumber":76,"Velocity":50,"Duration":170454,"SoundDuration":170454,"Delta":147936390},{"NoteNumber":55,"Velocity":35,"Duration":170454,"SoundDuration":170454,"Delta":147936390},{"NoteNumber":74,"Velocity":48,"Duration":163352,"SoundDuration":163352,"Delta":148106844},{"NoteNumber":62,"Velocity":30,"Duration":170454,"SoundDuration":170454,"Delta":148106844},{"NoteNumber":74,"Velocity":53,"Duration":170454,"SoundDuration":170454,"Delta":148277299},{"NoteNumber":57,"Velocity":37,"Duration":170454,"SoundDuration":170454,"Delta":148277299},{"NoteNumber":72,"Velocity":47,"Duration":170454,"SoundDuration":170454,"Delta":148447753},{"NoteNumber":62,"Velocity":34,"Duration":170454,"SoundDuration":170454,"Delta":148447753},{"NoteNumber":71,"Velocity":50,"Duration":170454,"SoundDuration":170454,"Delta":148618208},{"NoteNumber":55,"Velocity":37,"Duration":170454,"SoundDuration":170454,"Delta":148618208},{"NoteNumber":69,"Velocity":50,"Duration":170454,"SoundDuration":170454,"Delta":148788662},{"NoteNumber":62,"Velocity":34,"Duration":170454,"SoundDuration":170454,"Delta":148788662},{"NoteNumber":74,"Velocity":54,"Duration":86306,"SoundDuration":86306,"Delta":148959117},{"NoteNumber":54,"Velocity":37,"Duration":172612,"SoundDuration":172612,"Delta":148959117},{"NoteNumber":62,"Velocity":34,"Duration":172612,"SoundDuration":172612,"Delta":149131729},{"NoteNumber":72,"Velocity":51,"Duration":86306,"SoundDuration":86306,"Delta":149304341},{"NoteNumber":50,"Velocity":37,"Duration":172612,"SoundDuration":172612,"Delta":149304341},{"NoteNumber":62,"Velocity":34,"Duration":192332,"SoundDuration":192332,"Delta":149476953},{"NoteNumber":71,"Velocity":54,"Duration":341103,"SoundDuration":341103,"Delta":149669286},{"NoteNumber":55,"Velocity":37,"Duration":170551,"SoundDuration":170551,"Delta":149669286},{"NoteNumber":62,"Velocity":34,"Duration":170551,"SoundDuration":170551,"Delta":149839837},{"NoteNumber":59,"Velocity":37,"Duration":170551,"SoundDuration":170551,"Delta":150010389},{"NoteNumber":62,"Velocity":34,"Duration":170551,"SoundDuration":170551,"Delta":150180940},{"NoteNumber":76,"Velocity":52,"Duration":85275,"SoundDuration":85275,"Delta":150351492},{"NoteNumber":55,"Velocity":37,"Duration":170551,"SoundDuration":170551,"Delta":150351492},{"NoteNumber":78,"Velocity":55,"Duration":85275,"SoundDuration":85275,"Delta":150436767},{"NoteNumber":76,"Velocity":53,"Duration":85275,"SoundDuration":85275,"Delta":150522043},{"NoteNumber":64,"Velocity":29,"Duration":170551,"SoundDuration":170551,"Delta":150522043},{"NoteNumber":78,"Velocity":62,"Duration":85275,"SoundDuration":85275,"Delta":150607319},{"NoteNumber":79,"Velocity":62,"Duration":170551,"SoundDuration":170551,"Delta":150692595},{"NoteNumber":60,"Velocity":32,"Duration":170551,"SoundDuration":170551,"Delta":150692595},{"NoteNumber":79,"Velocity":60,"Duration":85275,"SoundDuration":85275,"Delta":150863146},{"NoteNumber":64,"Velocity":29,"Duration":170551,"SoundDuration":170551,"Delta":150863146},{"NoteNumber":79,"Velocity":60,"Duration":341103,"SoundDuration":341103,"Delta":151033698},{"NoteNumber":55,"Velocity":32,"Duration":170551,"SoundDuration":170551,"Delta":151033698},{"NoteNumber":62,"Velocity":30,"Duration":170551,"SoundDuration":170551,"Delta":151204249},{"NoteNumber":59,"Velocity":32,"Duration":170551,"SoundDuration":170551,"Delta":151374801},{"NoteNumber":62,"Velocity":31,"Duration":194830,"SoundDuration":194830,"Delta":151545352},{"NoteNumber":81,"Velocity":52,"Duration":85237,"SoundDuration":85237,"Delta":151740183},{"NoteNumber":53,"Velocity":32,"Duration":170474,"SoundDuration":170474,"Delta":151740183},{"NoteNumber":83,"Velocity":55,"Duration":85237,"SoundDuration":85237,"Delta":151825420},{"NoteNumber":81,"Velocity":52,"Duration":85236,"SoundDuration":85236,"Delta":151910657},{"NoteNumber":60,"Velocity":30,"Duration":170473,"SoundDuration":170473,"Delta":151910657},{"NoteNumber":83,"Velocity":62,"Duration":85237,"SoundDuration":85237,"Delta":151995894},{"NoteNumber":84,"Velocity":62,"Duration":170474,"SoundDuration":170474,"Delta":152081131},{"NoteNumber":57,"Velocity":32,"Duration":170474,"SoundDuration":170474,"Delta":152081131},{"NoteNumber":84,"Velocity":60,"Duration":85236,"SoundDuration":85236,"Delta":152251605},{"NoteNumber":60,"Velocity":30,"Duration":170473,"SoundDuration":170473,"Delta":152251605},{"NoteNumber":84,"Velocity":60,"Duration":340947,"SoundDuration":340947,"Delta":152422079},{"NoteNumber":52,"Velocity":32,"Duration":170474,"SoundDuration":170474,"Delta":152422079},{"NoteNumber":60,"Velocity":30,"Duration":170473,"SoundDuration":170473,"Delta":152592553},{"NoteNumber":55,"Velocity":32,"Duration":170474,"SoundDuration":170474,"Delta":152763027},{"NoteNumber":60,"Velocity":30,"Duration":179082,"SoundDuration":179082,"Delta":152933501},{"NoteNumber":84,"Velocity":51,"Duration":85275,"SoundDuration":85275,"Delta":153112584},{"NoteNumber":48,"Velocity":40,"Duration":170551,"SoundDuration":170551,"Delta":153112584},{"NoteNumber":86,"Velocity":54,"Duration":85275,"SoundDuration":85275,"Delta":153197859},{"NoteNumber":84,"Velocity":51,"Duration":85275,"SoundDuration":85275,"Delta":153283135},{"NoteNumber":55,"Velocity":34,"Duration":170551,"SoundDuration":170551,"Delta":153283135},{"NoteNumber":86,"Velocity":63,"Duration":85275,"SoundDuration":85275,"Delta":153368411},{"NoteNumber":88,"Velocity":63,"Duration":170551,"SoundDuration":170551,"Delta":153453687},{"NoteNumber":52,"Velocity":40,"Duration":170551,"SoundDuration":170551,"Delta":153453687},{"NoteNumber":88,"Velocity":60,"Duration":85275,"SoundDuration":85275,"Delta":153624238},{"NoteNumber":55,"Velocity":33,"Duration":170551,"SoundDuration":170551,"Delta":153624238},{"NoteNumber":88,"Velocity":60,"Duration":170551,"SoundDuration":170551,"Delta":153794790},{"NoteNumber":50,"Velocity":39,"Duration":170551,"SoundDuration":170551,"Delta":153794790},{"NoteNumber":86,"Velocity":61,"Duration":170551,"SoundDuration":170551,"Delta":153965341},{"NoteNumber":59,"Velocity":34,"Duration":170551,"SoundDuration":170551,"Delta":153965341},{"NoteNumber":84,"Velocity":56,"Duration":85275,"SoundDuration":85275,"Delta":154135893},{"NoteNumber":55,"Velocity":39,"Duration":170551,"SoundDuration":170551,"Delta":154135893},{"NoteNumber":83,"Velocity":56,"Duration":85275,"SoundDuration":85275,"Delta":154306444},{"NoteNumber":59,"Velocity":34,"Duration":170551,"SoundDuration":170551,"Delta":154306444},{"NoteNumber":81,"Velocity":56,"Duration":84269,"SoundDuration":84269,"Delta":154476996},{"NoteNumber":50,"Velocity":39,"Duration":168539,"SoundDuration":168539,"Delta":154476996},{"NoteNumber":60,"Velocity":34,"Duration":168539,"SoundDuration":168539,"Delta":154645535},{"NoteNumber":86,"Velocity":56,"Duration":84269,"SoundDuration":84269,"Delta":154814074},{"NoteNumber":54,"Velocity":38,"Duration":168539,"SoundDuration":168539,"Delta":154814074},{"NoteNumber":60,"Velocity":33,"Duration":200026,"SoundDuration":200026,"Delta":154982613},{"NoteNumber":84,"Velocity":62,"Duration":347302,"SoundDuration":347302,"Delta":155182640},{"NoteNumber":55,"Velocity":40,"Duration":173651,"SoundDuration":173651,"Delta":155182640},{"NoteNumber":62,"Velocity":35,"Duration":173651,"SoundDuration":173651,"Delta":155356291},{"NoteNumber":83,"Velocity":58,"Duration":361174,"SoundDuration":361174,"Delta":155529943},{"NoteNumber":59,"Velocity":40,"Duration":173651,"SoundDuration":173651,"Delta":155529943},{"NoteNumber":62,"Velocity":34,"Duration":187523,"SoundDuration":187523,"Delta":155703594},{"NoteNumber":76,"Velocity":51,"Duration":85275,"SoundDuration":85275,"Delta":155891117},{"NoteNumber":55,"Velocity":32,"Duration":170551,"SoundDuration":170551,"Delta":155891117},{"NoteNumber":78,"Velocity":54,"Duration":85275,"SoundDuration":85275,"Delta":155976393},{"NoteNumber":76,"Velocity":51,"Duration":85275,"SoundDuration":85275,"Delta":156061669},{"NoteNumber":64,"Velocity":30,"Duration":170551,"SoundDuration":170551,"Delta":156061669},{"NoteNumber":78,"Velocity":64,"Duration":85275,"SoundDuration":85275,"Delta":156146945},{"NoteNumber":79,"Velocity":64,"Duration":170551,"SoundDuration":170551,"Delta":156232220},{"NoteNumber":60,"Velocity":32,"Duration":170551,"SoundDuration":170551,"Delta":156232220},{"NoteNumber":79,"Velocity":60,"Duration":85275,"SoundDuration":85275,"Delta":156402772},{"NoteNumber":64,"Velocity":30,"Duration":170551,"SoundDuration":170551,"Delta":156402772},{"NoteNumber":79,"Velocity":60,"Duration":341103,"SoundDuration":341103,"Delta":156573323},{"NoteNumber":55,"Velocity":32,"Duration":170551,"SoundDuration":170551,"Delta":156573323},{"NoteNumber":62,"Velocity":30,"Duration":170551,"SoundDuration":170551,"Delta":156743875},{"NoteNumber":59,"Velocity":32,"Duration":170551,"SoundDuration":170551,"Delta":156914426},{"NoteNumber":62,"Velocity":30,"Duration":187523,"SoundDuration":187523,"Delta":157084978},{"NoteNumber":81,"Velocity":50,"Duration":85237,"SoundDuration":85237,"Delta":157272501},{"NoteNumber":53,"Velocity":32,"Duration":170474,"SoundDuration":170474,"Delta":157272501},{"NoteNumber":83,"Velocity":54,"Duration":85237,"SoundDuration":85237,"Delta":157357738},{"NoteNumber":81,"Velocity":51,"Duration":85236,"SoundDuration":85236,"Delta":157442975},{"NoteNumber":60,"Velocity":29,"Duration":170473,"SoundDuration":170473,"Delta":157442975},{"NoteNumber":83,"Velocity":66,"Duration":85237,"SoundDuration":85237,"Delta":157528212},{"NoteNumber":84,"Velocity":66,"Duration":170474,"SoundDuration":170474,"Delta":157613449},{"NoteNumber":57,"Velocity":32,"Duration":170474,"SoundDuration":170474,"Delta":157613449},{"NoteNumber":84,"Velocity":60,"Duration":85236,"SoundDuration":85236,"Delta":157783923},{"NoteNumber":60,"Velocity":29,"Duration":170473,"SoundDuration":170473,"Delta":157783923},{"NoteNumber":84,"Velocity":60,"Duration":340947,"SoundDuration":340947,"Delta":157954397},{"NoteNumber":52,"Velocity":34,"Duration":170474,"SoundDuration":170474,"Delta":157954397},{"NoteNumber":60,"Velocity":30,"Duration":170473,"SoundDuration":170473,"Delta":158124871},{"NoteNumber":55,"Velocity":33,"Duration":170474,"SoundDuration":170474,"Delta":158295345},{"NoteNumber":60,"Velocity":29,"Duration":179082,"SoundDuration":179082,"Delta":158465819},{"NoteNumber":84,"Velocity":50,"Duration":85275,"SoundDuration":85275,"Delta":158644902},{"NoteNumber":48,"Velocity":41,"Duration":170551,"SoundDuration":170551,"Delta":158644902},{"NoteNumber":86,"Velocity":54,"Duration":85275,"SoundDuration":85275,"Delta":158730178},{"NoteNumber":84,"Velocity":51,"Duration":85275,"SoundDuration":85275,"Delta":158815454},{"NoteNumber":55,"Velocity":38,"Duration":170551,"SoundDuration":170551,"Delta":158815454},{"NoteNumber":86,"Velocity":64,"Duration":85275,"SoundDuration":85275,"Delta":158900730},{"NoteNumber":88,"Velocity":64,"Duration":170551,"SoundDuration":170551,"Delta":158986005},{"NoteNumber":52,"Velocity":40,"Duration":170551,"SoundDuration":170551,"Delta":158986005},{"NoteNumber":88,"Velocity":61,"Duration":85275,"SoundDuration":85275,"Delta":159156557},{"NoteNumber":55,"Velocity":37,"Duration":170551,"SoundDuration":170551,"Delta":159156557},{"NoteNumber":88,"Velocity":62,"Duration":170551,"SoundDuration":170551,"Delta":159327108},{"NoteNumber":50,"Velocity":40,"Duration":170551,"SoundDuration":170551,"Delta":159327108},{"NoteNumber":86,"Velocity":61,"Duration":170551,"SoundDuration":170551,"Delta":159497660},{"NoteNumber":59,"Velocity":37,"Duration":170551,"SoundDuration":170551,"Delta":159497660},{"NoteNumber":84,"Velocity":61,"Duration":85275,"SoundDuration":85275,"Delta":159668211},{"NoteNumber":55,"Velocity":39,"Duration":170551,"SoundDuration":170551,"Delta":159668211},{"NoteNumber":83,"Velocity":61,"Duration":85275,"SoundDuration":85275,"Delta":159838763},{"NoteNumber":59,"Velocity":32,"Duration":170551,"SoundDuration":170551,"Delta":159838763},{"NoteNumber":83,"Velocity":62,"Duration":170551,"SoundDuration":170551,"Delta":160009314},{"NoteNumber":50,"Velocity":38,"Duration":170551,"SoundDuration":170551,"Delta":160009314},{"NoteNumber":81,"Velocity":61,"Duration":170551,"SoundDuration":170551,"Delta":160179866},{"NoteNumber":60,"Velocity":33,"Duration":170551,"SoundDuration":170551,"Delta":160179866},{"NoteNumber":79,"Velocity":61,"Duration":85275,"SoundDuration":85275,"Delta":160350417},{"NoteNumber":57,"Velocity":38,"Duration":170551,"SoundDuration":170551,"Delta":160350417},{"NoteNumber":78,"Velocity":61,"Duration":102739,"SoundDuration":102739,"Delta":160520969},{"NoteNumber":60,"Velocity":32,"Duration":205479,"SoundDuration":205479,"Delta":160520969},{"NoteNumber":86,"Velocity":84,"Duration":463069,"SoundDuration":463069,"Delta":160726448},{"NoteNumber":59,"Velocity":38,"Duration":347302,"SoundDuration":347302,"Delta":161073751},{"NoteNumber":55,"Velocity":38,"Duration":347302,"SoundDuration":347302,"Delta":161073751},{"NoteNumber":83,"Velocity":61,"Duration":115767,"SoundDuration":115767,"Delta":161189518},{"NoteNumber":79,"Velocity":61,"Duration":115767,"SoundDuration":115767,"Delta":161305286},{"NoteNumber":78,"Velocity":63,"Duration":115767,"SoundDuration":115767,"Delta":161421053},{"NoteNumber":57,"Velocity":44,"Duration":347302,"SoundDuration":347302,"Delta":161421053},{"NoteNumber":60,"Velocity":44,"Duration":347302,"SoundDuration":347302,"Delta":161421053},{"NoteNumber":81,"Velocity":63,"Duration":115767,"SoundDuration":115767,"Delta":161536821},{"NoteNumber":74,"Velocity":61,"Duration":115767,"SoundDuration":115767,"Delta":161652588},{"NoteNumber":79,"Velocity":63,"Duration":115767,"SoundDuration":115767,"Delta":161768356},{"NoteNumber":59,"Velocity":49,"Duration":368481,"SoundDuration":368481,"Delta":161768356},{"NoteNumber":62,"Velocity":49,"Duration":368481,"SoundDuration":368481,"Delta":161768356},{"NoteNumber":83,"Velocity":61,"Duration":122827,"SoundDuration":122827,"Delta":161884123},{"NoteNumber":74,"Velocity":61,"Duration":129886,"SoundDuration":129886,"Delta":162006951},{"NoteNumber":81,"Velocity":70,"Duration":462550,"SoundDuration":462550,"Delta":162136838},{"NoteNumber":54,"Velocity":37,"Duration":348744,"SoundDuration":348744,"Delta":162484140},{"NoteNumber":50,"Velocity":37,"Duration":348744,"SoundDuration":348744,"Delta":162484140},{"NoteNumber":78,"Velocity":58,"Duration":116124,"SoundDuration":116124,"Delta":162599388},{"NoteNumber":74,"Velocity":59,"Duration":117371,"SoundDuration":117371,"Delta":162715513},{"NoteNumber":73,"Velocity":61,"Duration":118281,"SoundDuration":118281,"Delta":162832885},{"NoteNumber":55,"Velocity":40,"Duration":358375,"SoundDuration":358375,"Delta":162832885},{"NoteNumber":52,"Velocity":40,"Duration":358375,"SoundDuration":358375,"Delta":162832885},{"NoteNumber":74,"Velocity":57,"Duration":119575,"SoundDuration":119575,"Delta":162951166},{"NoteNumber":69,"Velocity":57,"Duration":120519,"SoundDuration":120519,"Delta":163070741},{"NoteNumber":72,"Velocity":60,"Duration":121862,"SoundDuration":121862,"Delta":163191261},{"NoteNumber":57,"Velocity":44,"Duration":383284,"SoundDuration":383284,"Delta":163191261},{"NoteNumber":54,"Velocity":44,"Duration":383284,"SoundDuration":383284,"Delta":163191261},{"NoteNumber":74,"Velocity":57,"Duration":128088,"SoundDuration":128088,"Delta":163313124},{"NoteNumber":69,"Velocity":57,"Duration":133333,"SoundDuration":133333,"Delta":163441212},{"NoteNumber":86,"Velocity":77,"Duration":463069,"SoundDuration":463069,"Delta":163574546},{"NoteNumber":55,"Velocity":38,"Duration":347302,"SoundDuration":347302,"Delta":163921848},{"NoteNumber":59,"Velocity":38,"Duration":347302,"SoundDuration":347302,"Delta":163921848},{"NoteNumber":83,"Velocity":61,"Duration":115767,"SoundDuration":115767,"Delta":164037616},{"NoteNumber":79,"Velocity":61,"Duration":115767,"SoundDuration":115767,"Delta":164153383},{"NoteNumber":78,"Velocity":63,"Duration":115767,"SoundDuration":115767,"Delta":164269151},{"NoteNumber":57,"Velocity":44,"Duration":347302,"SoundDuration":347302,"Delta":164269151},{"NoteNumber":60,"Velocity":44,"Duration":347302,"SoundDuration":347302,"Delta":164269151},{"NoteNumber":81,"Velocity":63,"Duration":115767,"SoundDuration":115767,"Delta":164384918},{"NoteNumber":74,"Velocity":61,"Duration":115767,"SoundDuration":115767,"Delta":164500686},{"NoteNumber":79,"Velocity":63,"Duration":115767,"SoundDuration":115767,"Delta":164616453},{"NoteNumber":62,"Velocity":49,"Duration":363404,"SoundDuration":363404,"Delta":164616453},{"NoteNumber":59,"Velocity":49,"Duration":363404,"SoundDuration":363404,"Delta":164616453},{"NoteNumber":83,"Velocity":61,"Duration":121134,"SoundDuration":121134,"Delta":164732221},{"NoteNumber":74,"Velocity":61,"Duration":126502,"SoundDuration":126502,"Delta":164853355},{"NoteNumber":81,"Velocity":71,"Duration":462550,"SoundDuration":462550,"Delta":164979858},{"NoteNumber":50,"Velocity":37,"Duration":348744,"SoundDuration":348744,"Delta":165327160},{"NoteNumber":54,"Velocity":37,"Duration":348744,"SoundDuration":348744,"Delta":165327160},{"NoteNumber":78,"Velocity":55,"Duration":116124,"SoundDuration":116124,"Delta":165442408},{"NoteNumber":74,"Velocity":55,"Duration":117371,"SoundDuration":117371,"Delta":165558533},{"NoteNumber":73,"Velocity":57,"Duration":118281,"SoundDuration":118281,"Delta":165675905},{"NoteNumber":55,"Velocity":40,"Duration":358375,"SoundDuration":358375,"Delta":165675905},{"NoteNumber":52,"Velocity":40,"Duration":358375,"SoundDuration":358375,"Delta":165675905},{"NoteNumber":74,"Velocity":54,"Duration":119575,"SoundDuration":119575,"Delta":165794186},{"NoteNumber":69,"Velocity":54,"Duration":120519,"SoundDuration":120519,"Delta":165913761},{"NoteNumber":72,"Velocity":55,"Duration":121862,"SoundDuration":121862,"Delta":166034280},{"NoteNumber":57,"Velocity":44,"Duration":370550,"SoundDuration":370550,"Delta":166034280},{"NoteNumber":54,"Velocity":44,"Duration":370550,"SoundDuration":370550,"Delta":166034280},{"NoteNumber":74,"Velocity":53,"Duration":123843,"SoundDuration":123843,"Delta":166156143},{"NoteNumber":69,"Velocity":53,"Duration":124843,"SoundDuration":124843,"Delta":166279987},{"NoteNumber":71,"Velocity":53,"Duration":124843,"SoundDuration":124843,"Delta":166404831},{"NoteNumber":55,"Velocity":44,"Duration":705102,"SoundDuration":705102,"Delta":166404831},{"NoteNumber":67,"Velocity":54,"Duration":119959,"SoundDuration":119959,"Delta":166529675},{"NoteNumber":71,"Velocity":56,"Duration":115074,"SoundDuration":115074,"Delta":166649635},{"NoteNumber":74,"Velocity":57,"Duration":115074,"SoundDuration":115074,"Delta":166764710},{"NoteNumber":71,"Velocity":58,"Duration":115074,"SoundDuration":115074,"Delta":166879785},{"NoteNumber":74,"Velocity":61,"Duration":115074,"SoundDuration":115074,"Delta":166994859},{"NoteNumber":79,"Velocity":61,"Duration":115074,"SoundDuration":115074,"Delta":167109934},{"NoteNumber":74,"Velocity":63,"Duration":115074,"SoundDuration":115074,"Delta":167225009},{"NoteNumber":79,"Velocity":64,"Duration":115074,"SoundDuration":115074,"Delta":167340084},{"NoteNumber":83,"Velocity":64,"Duration":115074,"SoundDuration":115074,"Delta":167455159},{"NoteNumber":79,"Velocity":67,"Duration":115074,"SoundDuration":115074,"Delta":167570234},{"NoteNumber":83,"Velocity":68,"Duration":115074,"SoundDuration":115074,"Delta":167685308},{"NoteNumber":86,"Velocity":69,"Duration":116482,"SoundDuration":116482,"Delta":167800383},{"NoteNumber":43,"Velocity":44,"Duration":1442098,"SoundDuration":1442098,"Delta":167800383},{"NoteNumber":55,"Velocity":44,"Duration":2178475,"SoundDuration":2178475,"Delta":167800383},{"NoteNumber":50,"Velocity":44,"Duration":1442098,"SoundDuration":1442098,"Delta":167800383},{"NoteNumber":47,"Velocity":44,"Duration":1442098,"SoundDuration":1442098,"Delta":167800383},{"NoteNumber":83,"Velocity":70,"Duration":116482,"SoundDuration":116482,"Delta":167916865},{"NoteNumber":86,"Velocity":73,"Duration":126943,"SoundDuration":126943,"Delta":168033348},{"NoteNumber":89,"Velocity":73,"Duration":117910,"SoundDuration":117910,"Delta":168160291},{"NoteNumber":86,"Velocity":70,"Duration":118466,"SoundDuration":118466,"Delta":168278202},{"NoteNumber":83,"Velocity":68,"Duration":119020,"SoundDuration":119020,"Delta":168396669},{"NoteNumber":79,"Velocity":66,"Duration":119575,"SoundDuration":119575,"Delta":168515689},{"NoteNumber":77,"Velocity":64,"Duration":120134,"SoundDuration":120134,"Delta":168635264},{"NoteNumber":74,"Velocity":61,"Duration":120904,"SoundDuration":120904,"Delta":168755399},{"NoteNumber":71,"Velocity":60,"Duration":121478,"SoundDuration":121478,"Delta":168876303},{"NoteNumber":67,"Velocity":56,"Duration":122056,"SoundDuration":122056,"Delta":168997781},{"NoteNumber":65,"Velocity":54,"Duration":122643,"SoundDuration":122643,"Delta":169119838},{"NoteNumber":64,"Velocity":51,"Duration":96153,"SoundDuration":96153,"Delta":169242482},{"NoteNumber":48,"Velocity":38,"Duration":736377,"SoundDuration":736377,"Delta":169242482},{"NoteNumber":76,"Velocity":48,"Duration":181356,"SoundDuration":181356,"Delta":169434789},{"NoteNumber":75,"Velocity":48,"Duration":181356,"SoundDuration":181356,"Delta":169616146},{"NoteNumber":76,"Velocity":48,"Duration":181356,"SoundDuration":181356,"Delta":169797502},{"NoteNumber":75,"Velocity":49,"Duration":181356,"SoundDuration":181356,"Delta":169978859},{"NoteNumber":76,"Velocity":49,"Duration":181356,"SoundDuration":181356,"Delta":170160215},{"NoteNumber":75,"Velocity":49,"Duration":187500,"SoundDuration":187500,"Delta":170341572},{"NoteNumber":76,"Velocity":49,"Duration":187500,"SoundDuration":187500,"Delta":170529072},{"NoteNumber":67,"Velocity":53,"Duration":1105678,"SoundDuration":1105678,"Delta":170716572},{"NoteNumber":49,"Velocity":37,"Duration":372116,"SoundDuration":372116,"Delta":171078018},{"NoteNumber":58,"Velocity":37,"Duration":372116,"SoundDuration":372116,"Delta":171078018},{"NoteNumber":50,"Velocity":40,"Duration":372116,"SoundDuration":372116,"Delta":171450134},{"NoteNumber":59,"Velocity":40,"Duration":372116,"SoundDuration":372116,"Delta":171450134},{"NoteNumber":71,"Velocity":49,"Duration":191009,"SoundDuration":191009,"Delta":171822250},{"NoteNumber":66,"Velocity":49,"Duration":402307,"SoundDuration":402307,"Delta":171822250},{"NoteNumber":60,"Velocity":44,"Duration":402307,"SoundDuration":402307,"Delta":171822250},{"NoteNumber":69,"Velocity":49,"Duration":211297,"SoundDuration":211297,"Delta":172013260},{"NoteNumber":55,"Velocity":44,"Duration":706349,"SoundDuration":706349,"Delta":172224557},{"NoteNumber":59,"Velocity":44,"Duration":706349,"SoundDuration":706349,"Delta":172224557},{"NoteNumber":67,"Velocity":54,"Duration":120375,"SoundDuration":120375,"Delta":172350232},{"NoteNumber":71,"Velocity":56,"Duration":115074,"SoundDuration":115074,"Delta":172470608},{"NoteNumber":74,"Velocity":57,"Duration":115074,"SoundDuration":115074,"Delta":172585682},{"NoteNumber":71,"Velocity":58,"Duration":115074,"SoundDuration":115074,"Delta":172700757},{"NoteNumber":74,"Velocity":61,"Duration":115074,"SoundDuration":115074,"Delta":172815832},{"NoteNumber":79,"Velocity":61,"Duration":115074,"SoundDuration":115074,"Delta":172930907},{"NoteNumber":74,"Velocity":63,"Duration":115074,"SoundDuration":115074,"Delta":173045982},{"NoteNumber":79,"Velocity":64,"Duration":115074,"SoundDuration":115074,"Delta":173161057},{"NoteNumber":83,"Velocity":64,"Duration":115074,"SoundDuration":115074,"Delta":173276131},{"NoteNumber":79,"Velocity":67,"Duration":115074,"SoundDuration":115074,"Delta":173391206},{"NoteNumber":83,"Velocity":68,"Duration":115074,"SoundDuration":115074,"Delta":173506281},{"NoteNumber":86,"Velocity":69,"Duration":116482,"SoundDuration":116482,"Delta":173621356},{"NoteNumber":43,"Velocity":44,"Duration":1442098,"SoundDuration":1442098,"Delta":173621356},{"NoteNumber":55,"Velocity":44,"Duration":2181918,"SoundDuration":2181918,"Delta":173621356},{"NoteNumber":50,"Velocity":44,"Duration":1442098,"SoundDuration":1442098,"Delta":173621356},{"NoteNumber":47,"Velocity":44,"Duration":1442098,"SoundDuration":1442098,"Delta":173621356},{"NoteNumber":83,"Velocity":70,"Duration":116482,"SoundDuration":116482,"Delta":173737838},{"NoteNumber":86,"Velocity":73,"Duration":126943,"SoundDuration":126943,"Delta":173854320},{"NoteNumber":89,"Velocity":73,"Duration":117910,"SoundDuration":117910,"Delta":173981264},{"NoteNumber":86,"Velocity":70,"Duration":118466,"SoundDuration":118466,"Delta":174099174},{"NoteNumber":83,"Velocity":68,"Duration":119020,"SoundDuration":119020,"Delta":174217641},{"NoteNumber":79,"Velocity":66,"Duration":119575,"SoundDuration":119575,"Delta":174336662},{"NoteNumber":77,"Velocity":64,"Duration":120134,"SoundDuration":120134,"Delta":174456237},{"NoteNumber":74,"Velocity":61,"Duration":120904,"SoundDuration":120904,"Delta":174576371},{"NoteNumber":71,"Velocity":60,"Duration":121478,"SoundDuration":121478,"Delta":174697276},{"NoteNumber":67,"Velocity":56,"Duration":122056,"SoundDuration":122056,"Delta":174818754},{"NoteNumber":65,"Velocity":54,"Duration":122643,"SoundDuration":122643,"Delta":174940810},{"NoteNumber":64,"Velocity":51,"Duration":96153,"SoundDuration":96153,"Delta":175063454},{"NoteNumber":48,"Velocity":38,"Duration":739819,"SoundDuration":739819,"Delta":175063454},{"NoteNumber":76,"Velocity":48,"Duration":182503,"SoundDuration":182503,"Delta":175255762},{"NoteNumber":75,"Velocity":48,"Duration":182503,"SoundDuration":182503,"Delta":175438266},{"NoteNumber":76,"Velocity":46,"Duration":182504,"SoundDuration":182504,"Delta":175620770},{"NoteNumber":75,"Velocity":49,"Duration":182503,"SoundDuration":182503,"Delta":175803274},{"NoteNumber":76,"Velocity":47,"Duration":182503,"SoundDuration":182503,"Delta":175985778},{"NoteNumber":75,"Velocity":49,"Duration":182503,"SoundDuration":182503,"Delta":176168282},{"NoteNumber":76,"Velocity":47,"Duration":193598,"SoundDuration":193598,"Delta":176350786},{"NoteNumber":58,"Velocity":41,"Duration":728485,"SoundDuration":728485,"Delta":176544384},{"NoteNumber":49,"Velocity":41,"Duration":728485,"SoundDuration":728485,"Delta":176544384},{"NoteNumber":79,"Velocity":54,"Duration":182503,"SoundDuration":182503,"Delta":176726888},{"NoteNumber":78,"Velocity":58,"Duration":182121,"SoundDuration":182121,"Delta":176909392},{"NoteNumber":79,"Velocity":55,"Duration":181356,"SoundDuration":181356,"Delta":177091514},{"NoteNumber":78,"Velocity":61,"Duration":181356,"SoundDuration":181356,"Delta":177272870},{"NoteNumber":79,"Velocity":59,"Duration":180394,"SoundDuration":180394,"Delta":177454227},{"NoteNumber":78,"Velocity":61,"Duration":180201,"SoundDuration":180201,"Delta":177634621},{"NoteNumber":79,"Velocity":64,"Duration":172367,"SoundDuration":172367,"Delta":177814823},{"NoteNumber":79,"Velocity":62,"Duration":187265,"SoundDuration":187265,"Delta":177994652},{"NoteNumber":50,"Velocity":48,"Duration":187265,"SoundDuration":187265,"Delta":177994652},{"NoteNumber":74,"Velocity":51,"Duration":171660,"SoundDuration":171660,"Delta":178181918},{"NoteNumber":59,"Velocity":40,"Duration":187265,"SoundDuration":187265,"Delta":178181918},{"NoteNumber":74,"Velocity":54,"Duration":86825,"SoundDuration":86825,"Delta":178369184},{"NoteNumber":55,"Velocity":41,"Duration":173651,"SoundDuration":173651,"Delta":178369184},{"NoteNumber":74,"Velocity":51,"Duration":86825,"SoundDuration":86825,"Delta":178542835},{"NoteNumber":59,"Velocity":39,"Duration":173651,"SoundDuration":173651,"Delta":178542835},{"NoteNumber":76,"Velocity":57,"Duration":173651,"SoundDuration":173651,"Delta":178716486},{"NoteNumber":50,"Velocity":48,"Duration":173651,"SoundDuration":173651,"Delta":178716486},{"NoteNumber":74,"Velocity":53,"Duration":159180,"SoundDuration":159180,"Delta":178890137},{"NoteNumber":59,"Velocity":40,"Duration":173651,"SoundDuration":173651,"Delta":178890137},{"NoteNumber":72,"Velocity":52,"Duration":88989,"SoundDuration":88989,"Delta":179063789},{"NoteNumber":55,"Velocity":41,"Duration":177978,"SoundDuration":177978,"Delta":179063789},{"NoteNumber":71,"Velocity":51,"Duration":88989,"SoundDuration":88989,"Delta":179241767},{"NoteNumber":59,"Velocity":40,"Duration":177978,"SoundDuration":177978,"Delta":179241767},{"NoteNumber":71,"Velocity":49,"Duration":355956,"SoundDuration":355956,"Delta":179419745},{"NoteNumber":50,"Velocity":43,"Duration":177978,"SoundDuration":177978,"Delta":179419745},{"NoteNumber":62,"Velocity":37,"Duration":177978,"SoundDuration":177978,"Delta":179597723},{"NoteNumber":55,"Velocity":38,"Duration":177978,"SoundDuration":177978,"Delta":179775702},{"NoteNumber":62,"Velocity":36,"Duration":177978,"SoundDuration":177978,"Delta":179953680},{"NoteNumber":69,"Velocity":48,"Duration":85275,"SoundDuration":85275,"Delta":180131658},{"NoteNumber":50,"Velocity":39,"Duration":170551,"SoundDuration":170551,"Delta":180131658},{"NoteNumber":71,"Velocity":45,"Duration":85275,"SoundDuration":85275,"Delta":180216934},{"NoteNumber":69,"Velocity":48,"Duration":85275,"SoundDuration":85275,"Delta":180302210},{"NoteNumber":60,"Velocity":30,"Duration":170551,"SoundDuration":170551,"Delta":180302210},{"NoteNumber":71,"Velocity":45,"Duration":85275,"SoundDuration":85275,"Delta":180387485},{"NoteNumber":69,"Velocity":48,"Duration":58955,"SoundDuration":58955,"Delta":180472761},{"NoteNumber":54,"Velocity":32,"Duration":176865,"SoundDuration":176865,"Delta":180472761},{"NoteNumber":71,"Velocity":46,"Duration":58955,"SoundDuration":58955,"Delta":180531716},{"NoteNumber":69,"Velocity":46,"Duration":58955,"SoundDuration":58955,"Delta":180592146},{"NoteNumber":67,"Velocity":51,"Duration":88433,"SoundDuration":88433,"Delta":180649627},{"NoteNumber":60,"Velocity":30,"Duration":176866,"SoundDuration":176866,"Delta":180649627},{"NoteNumber":69,"Velocity":48,"Duration":88433,"SoundDuration":88433,"Delta":180738060},{"NoteNumber":67,"Velocity":50,"Duration":353731,"SoundDuration":353731,"Delta":180826493},{"NoteNumber":55,"Velocity":35,"Duration":176865,"SoundDuration":176865,"Delta":180826493},{"NoteNumber":59,"Velocity":30,"Duration":176865,"SoundDuration":176865,"Delta":181003359},{"NoteNumber":67,"Velocity":32,"Duration":176866,"SoundDuration":176866,"Delta":181180225},{"NoteNumber":59,"Velocity":30,"Duration":197394,"SoundDuration":197394,"Delta":181357091},{"NoteNumber":74,"Velocity":50,"Duration":469016,"SoundDuration":469016,"Delta":181554486},{"NoteNumber":55,"Velocity":35,"Duration":170551,"SoundDuration":170551,"Delta":181554486},{"NoteNumber":59,"Velocity":30,"Duration":170551,"SoundDuration":170551,"Delta":181725037},{"NoteNumber":67,"Velocity":32,"Duration":170551,"SoundDuration":170551,"Delta":181895589},{"NoteNumber":78,"Velocity":48,"Duration":42637,"SoundDuration":42637,"Delta":182023502},{"NoteNumber":76,"Velocity":48,"Duration":85275,"SoundDuration":85275,"Delta":182066140},{"NoteNumber":59,"Velocity":30,"Duration":170551,"SoundDuration":170551,"Delta":182066140},{"NoteNumber":74,"Velocity":48,"Duration":85275,"SoundDuration":85275,"Delta":182151416},{"NoteNumber":86,"Velocity":57,"Duration":87894,"SoundDuration":87894,"Delta":182236692},{"NoteNumber":55,"Velocity":35,"Duration":175788,"SoundDuration":175788,"Delta":182236692},{"NoteNumber":57,"Velocity":30,"Duration":175787,"SoundDuration":175787,"Delta":182412480},{"NoteNumber":84,"Velocity":56,"Duration":87894,"SoundDuration":87894,"Delta":182588268},{"NoteNumber":66,"Velocity":32,"Duration":175788,"SoundDuration":175788,"Delta":182588268},{"NoteNumber":57,"Velocity":30,"Duration":175787,"SoundDuration":175787,"Delta":182764056},{"NoteNumber":83,"Velocity":54,"Duration":87894,"SoundDuration":87894,"Delta":182939844},{"NoteNumber":55,"Velocity":35,"Duration":175788,"SoundDuration":175788,"Delta":182939844},{"NoteNumber":60,"Velocity":30,"Duration":175788,"SoundDuration":175788,"Delta":183115632},{"NoteNumber":81,"Velocity":51,"Duration":87893,"SoundDuration":87893,"Delta":183291420},{"NoteNumber":66,"Velocity":32,"Duration":175787,"SoundDuration":175787,"Delta":183291420},{"NoteNumber":60,"Velocity":30,"Duration":175788,"SoundDuration":175788,"Delta":183467208},{"NoteNumber":79,"Velocity":55,"Duration":703151,"SoundDuration":703151,"Delta":183642996},{"NoteNumber":55,"Velocity":35,"Duration":175787,"SoundDuration":175787,"Delta":183642996},{"NoteNumber":59,"Velocity":30,"Duration":175788,"SoundDuration":175788,"Delta":183818784},{"NoteNumber":67,"Velocity":32,"Duration":175788,"SoundDuration":175788,"Delta":183994572},{"NoteNumber":59,"Velocity":31,"Duration":175787,"SoundDuration":175787,"Delta":184170360},{"NoteNumber":74,"Velocity":50,"Duration":469016,"SoundDuration":469016,"Delta":184346148},{"NoteNumber":55,"Velocity":35,"Duration":170551,"SoundDuration":170551,"Delta":184346148},{"NoteNumber":59,"Velocity":30,"Duration":170551,"SoundDuration":170551,"Delta":184516699},{"NoteNumber":67,"Velocity":32,"Duration":170551,"SoundDuration":170551,"Delta":184687251},{"NoteNumber":78,"Velocity":48,"Duration":42637,"SoundDuration":42637,"Delta":184815164},{"NoteNumber":76,"Velocity":48,"Duration":85275,"SoundDuration":85275,"Delta":184857802},{"NoteNumber":59,"Velocity":30,"Duration":170551,"SoundDuration":170551,"Delta":184857802},{"NoteNumber":74,"Velocity":48,"Duration":85275,"SoundDuration":85275,"Delta":184943078},{"NoteNumber":86,"Velocity":56,"Duration":88433,"SoundDuration":88433,"Delta":185028354},{"NoteNumber":55,"Velocity":35,"Duration":176865,"SoundDuration":176865,"Delta":185028354},{"NoteNumber":57,"Velocity":30,"Duration":176866,"SoundDuration":176866,"Delta":185205220},{"NoteNumber":84,"Velocity":53,"Duration":90678,"SoundDuration":90678,"Delta":185382086},{"NoteNumber":66,"Velocity":32,"Duration":181356,"SoundDuration":181356,"Delta":185382086},{"NoteNumber":57,"Velocity":30,"Duration":181356,"SoundDuration":181356,"Delta":185563442},{"NoteNumber":83,"Velocity":52,"Duration":90678,"SoundDuration":90678,"Delta":185744799},{"NoteNumber":55,"Velocity":35,"Duration":181356,"SoundDuration":181356,"Delta":185744799},{"NoteNumber":60,"Velocity":30,"Duration":181356,"SoundDuration":181356,"Delta":185926155},{"NoteNumber":81,"Velocity":49,"Duration":96166,"SoundDuration":96166,"Delta":186107512},{"NoteNumber":66,"Velocity":32,"Duration":192332,"SoundDuration":192332,"Delta":186107512},{"NoteNumber":60,"Velocity":30,"Duration":192332,"SoundDuration":192332,"Delta":186299844},{"NoteNumber":79,"Velocity":53,"Duration":353732,"SoundDuration":353732,"Delta":186492176},{"NoteNumber":55,"Velocity":35,"Duration":176865,"SoundDuration":176865,"Delta":186492176},{"NoteNumber":59,"Velocity":30,"Duration":176866,"SoundDuration":176866,"Delta":186669042},{"NoteNumber":67,"Velocity":32,"Duration":176865,"SoundDuration":176865,"Delta":186845908},{"NoteNumber":59,"Velocity":30,"Duration":176865,"SoundDuration":176865,"Delta":187022774},{"NoteNumber":74,"Velocity":56,"Duration":58955,"SoundDuration":58955,"Delta":187140685},{"NoteNumber":86,"Velocity":70,"Duration":511654,"SoundDuration":511654,"Delta":187199640},{"NoteNumber":55,"Velocity":35,"Duration":170551,"SoundDuration":170551,"Delta":187199640},{"NoteNumber":60,"Velocity":30,"Duration":170551,"SoundDuration":170551,"Delta":187370192},{"NoteNumber":66,"Velocity":32,"Duration":170551,"SoundDuration":170551,"Delta":187540743},{"NoteNumber":84,"Velocity":52,"Duration":56850,"SoundDuration":56850,"Delta":187711295},{"NoteNumber":60,"Velocity":30,"Duration":170551,"SoundDuration":170551,"Delta":187711295},{"NoteNumber":83,"Velocity":51,"Duration":56850,"SoundDuration":56850,"Delta":187768145},{"NoteNumber":81,"Velocity":48,"Duration":56850,"SoundDuration":56850,"Delta":187824996},{"NoteNumber":79,"Velocity":53,"Duration":353732,"SoundDuration":353732,"Delta":187881846},{"NoteNumber":55,"Velocity":35,"Duration":176865,"SoundDuration":176865,"Delta":187881846},{"NoteNumber":59,"Velocity":30,"Duration":176866,"SoundDuration":176866,"Delta":188058712},{"NoteNumber":67,"Velocity":32,"Duration":176865,"SoundDuration":176865,"Delta":188235578},{"NoteNumber":59,"Velocity":30,"Duration":176865,"SoundDuration":176865,"Delta":188412444},{"NoteNumber":74,"Velocity":56,"Duration":58955,"SoundDuration":58955,"Delta":188530355},{"NoteNumber":86,"Velocity":71,"Duration":511654,"SoundDuration":511654,"Delta":188589310},{"NoteNumber":55,"Velocity":35,"Duration":170551,"SoundDuration":170551,"Delta":188589310},{"NoteNumber":60,"Velocity":30,"Duration":170551,"SoundDuration":170551,"Delta":188759862},{"NoteNumber":66,"Velocity":32,"Duration":170551,"SoundDuration":170551,"Delta":188930413},{"NoteNumber":84,"Velocity":53,"Duration":56850,"SoundDuration":56850,"Delta":189100965},{"NoteNumber":60,"Velocity":30,"Duration":170551,"SoundDuration":170551,"Delta":189100965},{"NoteNumber":83,"Velocity":51,"Duration":56850,"SoundDuration":56850,"Delta":189157815},{"NoteNumber":81,"Velocity":49,"Duration":56850,"SoundDuration":56850,"Delta":189214666},{"NoteNumber":79,"Velocity":53,"Duration":416724,"SoundDuration":416724,"Delta":189271516},{"NoteNumber":67,"Velocity":31,"Duration":416724,"SoundDuration":416724,"Delta":189271516},{"NoteNumber":59,"Velocity":31,"Duration":416724,"SoundDuration":416724,"Delta":189271516},{"NoteNumber":55,"Velocity":31,"Duration":416724,"SoundDuration":416724,"Delta":189271516},{"NoteNumber":62,"Velocity":42,"Duration":288461,"SoundDuration":288461,"Delta":189688241},{"NoteNumber":67,"Velocity":41,"Duration":96153,"SoundDuration":96153,"Delta":189976702},{"NoteNumber":71,"Velocity":43,"Duration":192307,"SoundDuration":192307,"Delta":190072856},{"NoteNumber":69,"Velocity":36,"Duration":454614,"SoundDuration":454614,"Delta":190457472},{"NoteNumber":60,"Velocity":36,"Duration":454614,"SoundDuration":454614,"Delta":190457472},{"NoteNumber":50,"Velocity":30,"Duration":454614,"SoundDuration":454614,"Delta":190457472},{"NoteNumber":60,"Velocity":36,"Duration":1029502,"SoundDuration":1029502,"Delta":190912086},{"NoteNumber":69,"Velocity":36,"Duration":1029502,"SoundDuration":1029502,"Delta":190912086},{"NoteNumber":55,"Velocity":33,"Duration":483948,"SoundDuration":483948,"Delta":190912086},{"NoteNumber":50,"Velocity":32,"Duration":545553,"SoundDuration":545553,"Delta":191396035},{"NoteNumber":67,"Velocity":37,"Duration":636807,"SoundDuration":636807,"Delta":191941589},{"NoteNumber":59,"Velocity":37,"Duration":636807,"SoundDuration":636807,"Delta":191941589},{"NoteNumber":43,"Velocity":33,"Duration":636807,"SoundDuration":636807,"Delta":191941589},{"NoteNumber":74,"Velocity":47,"Duration":343131,"SoundDuration":343131,"Delta":192921528},{"NoteNumber":62,"Velocity":39,"Duration":684040,"SoundDuration":684040,"Delta":192921528},{"NoteNumber":59,"Velocity":39,"Duration":343131,"SoundDuration":343131,"Delta":192921528},{"NoteNumber":71,"Velocity":43,"Duration":170454,"SoundDuration":170454,"Delta":193264659},{"NoteNumber":55,"Velocity":38,"Duration":170454,"SoundDuration":170454,"Delta":193264659},{"NoteNumber":71,"Velocity":43,"Duration":170454,"SoundDuration":170454,"Delta":193605568},{"NoteNumber":62,"Velocity":40,"Duration":170454,"SoundDuration":170454,"Delta":193605568},{"NoteNumber":55,"Velocity":40,"Duration":170454,"SoundDuration":170454,"Delta":193605568},{"NoteNumber":71,"Velocity":36,"Duration":37974,"SoundDuration":37974,"Delta":193946477},{"NoteNumber":62,"Velocity":38,"Duration":379747,"SoundDuration":379747,"Delta":193946477},{"NoteNumber":55,"Velocity":38,"Duration":379747,"SoundDuration":379747,"Delta":193946477},{"NoteNumber":72,"Velocity":36,"Duration":37974,"SoundDuration":37974,"Delta":193984452},{"NoteNumber":71,"Velocity":36,"Duration":37974,"SoundDuration":37974,"Delta":194022426},{"NoteNumber":72,"Velocity":36,"Duration":37974,"SoundDuration":37974,"Delta":194060401},{"NoteNumber":71,"Velocity":36,"Duration":37974,"SoundDuration":37974,"Delta":194098376},{"NoteNumber":69,"Velocity":41,"Duration":94936,"SoundDuration":94936,"Delta":194136351},{"NoteNumber":71,"Velocity":41,"Duration":94936,"SoundDuration":94936,"Delta":194231287},{"NoteNumber":74,"Velocity":49,"Duration":365853,"SoundDuration":365853,"Delta":194326224},{"NoteNumber":59,"Velocity":40,"Duration":365853,"SoundDuration":365853,"Delta":194326224},{"NoteNumber":62,"Velocity":40,"Duration":718034,"SoundDuration":718034,"Delta":194326224},{"NoteNumber":72,"Velocity":43,"Duration":90096,"SoundDuration":90096,"Delta":194692078},{"NoteNumber":57,"Velocity":38,"Duration":90096,"SoundDuration":90096,"Delta":194692078},{"NoteNumber":69,"Velocity":43,"Duration":697059,"SoundDuration":697059,"Delta":195044259},{"NoteNumber":54,"Velocity":38,"Duration":697059,"SoundDuration":697059,"Delta":195044259},{"NoteNumber":62,"Velocity":38,"Duration":697059,"SoundDuration":697059,"Delta":195044259},{"NoteNumber":72,"Velocity":51,"Duration":343131,"SoundDuration":343131,"Delta":195741318},{"NoteNumber":62,"Velocity":41,"Duration":708984,"SoundDuration":708984,"Delta":195741318},{"NoteNumber":57,"Velocity":41,"Duration":343131,"SoundDuration":343131,"Delta":195741318},{"NoteNumber":71,"Velocity":44,"Duration":91463,"SoundDuration":91463,"Delta":196084450},{"NoteNumber":55,"Velocity":38,"Duration":91463,"SoundDuration":91463,"Delta":196084450},{"NoteNumber":74,"Velocity":53,"Duration":347302,"SoundDuration":347302,"Delta":196450303},{"NoteNumber":62,"Velocity":40,"Duration":769837,"SoundDuration":769837,"Delta":196450303},{"NoteNumber":59,"Velocity":40,"Duration":347302,"SoundDuration":347302,"Delta":196450303},{"NoteNumber":72,"Velocity":43,"Duration":105633,"SoundDuration":105633,"Delta":196797606},{"NoteNumber":57,"Velocity":38,"Duration":105633,"SoundDuration":105633,"Delta":196797606},{"NoteNumber":76,"Velocity":60,"Duration":716331,"SoundDuration":716331,"Delta":197220141},{"NoteNumber":62,"Velocity":50,"Duration":1065778,"SoundDuration":1065778,"Delta":197220141},{"NoteNumber":60,"Velocity":50,"Duration":716331,"SoundDuration":716331,"Delta":197220141},{"NoteNumber":74,"Velocity":49,"Duration":349446,"SoundDuration":349446,"Delta":197936473},{"NoteNumber":59,"Velocity":40,"Duration":349446,"SoundDuration":349446,"Delta":197936473},{"NoteNumber":74,"Velocity":60,"Duration":341103,"SoundDuration":341103,"Delta":198635366},{"NoteNumber":67,"Velocity":50,"Duration":170551,"SoundDuration":170551,"Delta":198976469},{"NoteNumber":67,"Velocity":50,"Duration":341103,"SoundDuration":341103,"Delta":199317572},{"NoteNumber":47,"Velocity":38,"Duration":694835,"SoundDuration":694835,"Delta":199317572},{"NoteNumber":50,"Velocity":38,"Duration":694835,"SoundDuration":694835,"Delta":199317572},{"NoteNumber":68,"Velocity":42,"Duration":35373,"SoundDuration":35373,"Delta":199658675},{"NoteNumber":69,"Velocity":42,"Duration":35373,"SoundDuration":35373,"Delta":199694048},{"NoteNumber":68,"Velocity":42,"Duration":35373,"SoundDuration":35373,"Delta":199729421},{"NoteNumber":69,"Velocity":42,"Duration":35373,"SoundDuration":35373,"Delta":199764794},{"NoteNumber":68,"Velocity":42,"Duration":35373,"SoundDuration":35373,"Delta":199800167},{"NoteNumber":66,"Velocity":43,"Duration":88433,"SoundDuration":88433,"Delta":199835541},{"NoteNumber":68,"Velocity":43,"Duration":88433,"SoundDuration":88433,"Delta":199923974},{"NoteNumber":69,"Velocity":50,"Duration":341103,"SoundDuration":341103,"Delta":200012407},{"NoteNumber":48,"Velocity":38,"Duration":690549,"SoundDuration":690549,"Delta":200012407},{"NoteNumber":52,"Velocity":38,"Duration":690549,"SoundDuration":690549,"Delta":200012407},{"NoteNumber":72,"Velocity":50,"Duration":87361,"SoundDuration":87361,"Delta":200353510},{"NoteNumber":76,"Velocity":60,"Duration":706956,"SoundDuration":706956,"Delta":200702956},{"NoteNumber":49,"Velocity":40,"Duration":706956,"SoundDuration":706956,"Delta":200702956},{"NoteNumber":55,"Velocity":40,"Duration":706956,"SoundDuration":706956,"Delta":200702956},{"NoteNumber":74,"Velocity":48,"Duration":341103,"SoundDuration":341103,"Delta":201409913},{"NoteNumber":50,"Velocity":34,"Duration":1488778,"SoundDuration":1488778,"Delta":201409913},{"NoteNumber":59,"Velocity":34,"Duration":711473,"SoundDuration":711473,"Delta":201409913},{"NoteNumber":67,"Velocity":43,"Duration":92592,"SoundDuration":92592,"Delta":201751016},{"NoteNumber":72,"Velocity":47,"Duration":355956,"SoundDuration":355956,"Delta":202121386},{"NoteNumber":57,"Velocity":34,"Duration":777304,"SoundDuration":777304,"Delta":202121386},{"NoteNumber":66,"Velocity":43,"Duration":105337,"SoundDuration":105337,"Delta":202477343},{"NoteNumber":69,"Velocity":43,"Duration":769230,"SoundDuration":769230,"Delta":202898691},{"NoteNumber":60,"Velocity":39,"Duration":769230,"SoundDuration":769230,"Delta":202898691},{"NoteNumber":55,"Velocity":39,"Duration":1146257,"SoundDuration":1146257,"Delta":202898691},{"NoteNumber":67,"Velocity":41,"Duration":377026,"SoundDuration":377026,"Delta":203667922},{"NoteNumber":59,"Velocity":35,"Duration":377026,"SoundDuration":377026,"Delta":203667922},{"NoteNumber":74,"Velocity":47,"Duration":341103,"SoundDuration":341103,"Delta":204386052},{"NoteNumber":59,"Velocity":38,"Duration":170551,"SoundDuration":170551,"Delta":204386052},{"NoteNumber":62,"Velocity":30,"Duration":170551,"SoundDuration":170551,"Delta":204556603},{"NoteNumber":71,"Velocity":43,"Duration":170551,"SoundDuration":170551,"Delta":204727155},{"NoteNumber":55,"Velocity":35,"Duration":170551,"SoundDuration":170551,"Delta":204727155},{"NoteNumber":62,"Velocity":30,"Duration":170551,"SoundDuration":170551,"Delta":204897706},{"NoteNumber":71,"Velocity":43,"Duration":170551,"SoundDuration":170551,"Delta":205068258},{"NoteNumber":55,"Velocity":38,"Duration":170551,"SoundDuration":170551,"Delta":205068258},{"NoteNumber":62,"Velocity":32,"Duration":170551,"SoundDuration":170551,"Delta":205238809},{"NoteNumber":71,"Velocity":36,"Duration":35157,"SoundDuration":35157,"Delta":205409361},{"NoteNumber":56,"Velocity":37,"Duration":175788,"SoundDuration":175788,"Delta":205409361},{"NoteNumber":72,"Velocity":36,"Duration":35157,"SoundDuration":35157,"Delta":205444518},{"NoteNumber":71,"Velocity":36,"Duration":35157,"SoundDuration":35157,"Delta":205479676},{"NoteNumber":72,"Velocity":36,"Duration":35157,"SoundDuration":35157,"Delta":205514833},{"NoteNumber":71,"Velocity":36,"Duration":35157,"SoundDuration":35157,"Delta":205549991},{"NoteNumber":69,"Velocity":41,"Duration":87893,"SoundDuration":87893,"Delta":205585149},{"NoteNumber":62,"Velocity":32,"Duration":175787,"SoundDuration":175787,"Delta":205585149},{"NoteNumber":71,"Velocity":41,"Duration":87894,"SoundDuration":87894,"Delta":205673043},{"NoteNumber":74,"Velocity":49,"Duration":341103,"SoundDuration":341103,"Delta":205760937},{"NoteNumber":57,"Velocity":40,"Duration":170551,"SoundDuration":170551,"Delta":205760937},{"NoteNumber":62,"Velocity":31,"Duration":170551,"SoundDuration":170551,"Delta":205931488},{"NoteNumber":72,"Velocity":43,"Duration":85275,"SoundDuration":85275,"Delta":206102040},{"NoteNumber":55,"Velocity":35,"Duration":170551,"SoundDuration":170551,"Delta":206102040},{"NoteNumber":62,"Velocity":30,"Duration":170551,"SoundDuration":170551,"Delta":206272591},{"NoteNumber":69,"Velocity":43,"Duration":689940,"SoundDuration":689940,"Delta":206443143},{"NoteNumber":54,"Velocity":38,"Duration":170551,"SoundDuration":170551,"Delta":206443143},{"NoteNumber":62,"Velocity":35,"Duration":170551,"SoundDuration":170551,"Delta":206613694},{"NoteNumber":50,"Velocity":38,"Duration":174418,"SoundDuration":174418,"Delta":206784246},{"NoteNumber":62,"Velocity":34,"Duration":174418,"SoundDuration":174418,"Delta":206958664},{"NoteNumber":72,"Velocity":51,"Duration":329344,"SoundDuration":329344,"Delta":207133083},{"NoteNumber":55,"Velocity":38,"Duration":164672,"SoundDuration":164672,"Delta":207133083},{"NoteNumber":67,"Velocity":34,"Duration":164672,"SoundDuration":164672,"Delta":207297755},{"NoteNumber":71,"Velocity":44,"Duration":89285,"SoundDuration":89285,"Delta":207462427},{"NoteNumber":59,"Velocity":38,"Duration":178571,"SoundDuration":178571,"Delta":207462427},{"NoteNumber":67,"Velocity":33,"Duration":178571,"SoundDuration":178571,"Delta":207640999},{"NoteNumber":74,"Velocity":53,"Duration":325591,"SoundDuration":325591,"Delta":207819570},{"NoteNumber":57,"Velocity":40,"Duration":162795,"SoundDuration":162795,"Delta":207819570},{"NoteNumber":67,"Velocity":38,"Duration":162795,"SoundDuration":162795,"Delta":207982366},{"NoteNumber":72,"Velocity":43,"Duration":92592,"SoundDuration":92592,"Delta":208145162},{"NoteNumber":60,"Velocity":40,"Duration":185185,"SoundDuration":185185,"Delta":208145162},{"NoteNumber":67,"Velocity":38,"Duration":185185,"SoundDuration":185185,"Delta":208330347},{"NoteNumber":76,"Velocity":60,"Duration":674157,"SoundDuration":674157,"Delta":208515532},{"NoteNumber":60,"Velocity":47,"Duration":168539,"SoundDuration":168539,"Delta":208515532},{"NoteNumber":67,"Velocity":38,"Duration":168539,"SoundDuration":168539,"Delta":208684071},{"NoteNumber":64,"Velocity":40,"Duration":168539,"SoundDuration":168539,"Delta":208852611},{"NoteNumber":67,"Velocity":38,"Duration":168539,"SoundDuration":168539,"Delta":209021150},{"NoteNumber":74,"Velocity":49,"Duration":333185,"SoundDuration":333185,"Delta":209189689},{"NoteNumber":59,"Velocity":40,"Duration":166592,"SoundDuration":166592,"Delta":209189689},{"NoteNumber":67,"Velocity":33,"Duration":166592,"SoundDuration":166592,"Delta":209356282},{"NoteNumber":62,"Velocity":38,"Duration":168539,"SoundDuration":168539,"Delta":209522875},{"NoteNumber":67,"Velocity":34,"Duration":168539,"SoundDuration":168539,"Delta":209691414},{"NoteNumber":74,"Velocity":54,"Duration":329344,"SoundDuration":329344,"Delta":209859953},{"NoteNumber":57,"Velocity":39,"Duration":164672,"SoundDuration":164672,"Delta":209859953},{"NoteNumber":67,"Velocity":35,"Duration":164672,"SoundDuration":164672,"Delta":210024625},{"NoteNumber":72,"Velocity":47,"Duration":85275,"SoundDuration":85275,"Delta":210189298},{"NoteNumber":60,"Velocity":39,"Duration":170551,"SoundDuration":170551,"Delta":210189298},{"NoteNumber":67,"Velocity":34,"Duration":170551,"SoundDuration":170551,"Delta":210359849},{"NoteNumber":76,"Velocity":55,"Duration":329344,"SoundDuration":329344,"Delta":210530401},{"NoteNumber":59,"Velocity":41,"Duration":164672,"SoundDuration":164672,"Delta":210530401},{"NoteNumber":67,"Velocity":37,"Duration":164672,"SoundDuration":164672,"Delta":210695073},{"NoteNumber":74,"Velocity":43,"Duration":88433,"SoundDuration":88433,"Delta":210859745},{"NoteNumber":62,"Velocity":40,"Duration":176865,"SoundDuration":176865,"Delta":210859745},{"NoteNumber":67,"Velocity":37,"Duration":176866,"SoundDuration":176866,"Delta":211036611},{"NoteNumber":77,"Velocity":61,"Duration":670241,"SoundDuration":670241,"Delta":211213477},{"NoteNumber":62,"Velocity":50,"Duration":167560,"SoundDuration":167560,"Delta":211213477},{"NoteNumber":67,"Velocity":38,"Duration":167560,"SoundDuration":167560,"Delta":211381037},{"NoteNumber":65,"Velocity":41,"Duration":167560,"SoundDuration":167560,"Delta":211548598},{"NoteNumber":67,"Velocity":38,"Duration":167560,"SoundDuration":167560,"Delta":211716158},{"NoteNumber":76,"Velocity":51,"Duration":335120,"SoundDuration":335120,"Delta":211883718},{"NoteNumber":60,"Velocity":41,"Duration":167560,"SoundDuration":167560,"Delta":211883718},{"NoteNumber":67,"Velocity":37,"Duration":167560,"SoundDuration":167560,"Delta":212051278},{"NoteNumber":64,"Velocity":39,"Duration":167560,"SoundDuration":167560,"Delta":212218839},{"NoteNumber":67,"Velocity":37,"Duration":167560,"SoundDuration":167560,"Delta":212386399},{"NoteNumber":76,"Velocity":56,"Duration":329344,"SoundDuration":329344,"Delta":212553959},{"NoteNumber":59,"Velocity":40,"Duration":164672,"SoundDuration":164672,"Delta":212553959},{"NoteNumber":67,"Velocity":38,"Duration":164672,"SoundDuration":164672,"Delta":212718631},{"NoteNumber":74,"Velocity":49,"Duration":87209,"SoundDuration":87209,"Delta":212883304},{"NoteNumber":62,"Velocity":40,"Duration":174418,"SoundDuration":174418,"Delta":212883304},{"NoteNumber":67,"Velocity":37,"Duration":174418,"SoundDuration":174418,"Delta":213057722},{"NoteNumber":77,"Velocity":57,"Duration":329344,"SoundDuration":329344,"Delta":213232141},{"NoteNumber":60,"Velocity":45,"Duration":164672,"SoundDuration":164672,"Delta":213232141},{"NoteNumber":67,"Velocity":40,"Duration":164672,"SoundDuration":164672,"Delta":213396813},{"NoteNumber":76,"Velocity":47,"Duration":90361,"SoundDuration":90361,"Delta":213561485},{"NoteNumber":64,"Velocity":45,"Duration":180723,"SoundDuration":180723,"Delta":213561485},{"NoteNumber":67,"Velocity":40,"Duration":180723,"SoundDuration":180723,"Delta":213742208},{"NoteNumber":79,"Velocity":64,"Duration":670241,"SoundDuration":670241,"Delta":213922931},{"NoteNumber":64,"Velocity":52,"Duration":167560,"SoundDuration":167560,"Delta":213922931},{"NoteNumber":67,"Velocity":41,"Duration":167560,"SoundDuration":167560,"Delta":214090491},{"NoteNumber":66,"Velocity":45,"Duration":167560,"SoundDuration":167560,"Delta":214258052},{"NoteNumber":67,"Velocity":40,"Duration":167560,"SoundDuration":167560,"Delta":214425612},{"NoteNumber":77,"Velocity":54,"Duration":335120,"SoundDuration":335120,"Delta":214593172},{"NoteNumber":62,"Velocity":45,"Duration":167560,"SoundDuration":167560,"Delta":214593172},{"NoteNumber":67,"Velocity":38,"Duration":167560,"SoundDuration":167560,"Delta":214760732},{"NoteNumber":66,"Velocity":40,"Duration":172612,"SoundDuration":172612,"Delta":214928293},{"NoteNumber":67,"Velocity":38,"Duration":172612,"SoundDuration":172612,"Delta":215100905},{"NoteNumber":76,"Velocity":56,"Duration":494016,"SoundDuration":494016,"Delta":215273517},{"NoteNumber":60,"Velocity":40,"Duration":164672,"SoundDuration":164672,"Delta":215273517},{"NoteNumber":67,"Velocity":35,"Duration":164672,"SoundDuration":164672,"Delta":215438189},{"NoteNumber":66,"Velocity":37,"Duration":164672,"SoundDuration":164672,"Delta":215602862},{"NoteNumber":77,"Velocity":53,"Duration":82336,"SoundDuration":82336,"Delta":215767534},{"NoteNumber":67,"Velocity":35,"Duration":164672,"SoundDuration":164672,"Delta":215767534},{"NoteNumber":79,"Velocity":53,"Duration":82336,"SoundDuration":82336,"Delta":215849870},{"NoteNumber":77,"Velocity":56,"Duration":329344,"SoundDuration":329344,"Delta":215932206},{"NoteNumber":59,"Velocity":40,"Duration":164672,"SoundDuration":164672,"Delta":215932206},{"NoteNumber":67,"Velocity":35,"Duration":164672,"SoundDuration":164672,"Delta":216096878},{"NoteNumber":76,"Velocity":56,"Duration":164672,"SoundDuration":164672,"Delta":216261551},{"NoteNumber":60,"Velocity":37,"Duration":164672,"SoundDuration":164672,"Delta":216261551},{"NoteNumber":67,"Velocity":34,"Duration":164672,"SoundDuration":164672,"Delta":216426223},{"NoteNumber":74,"Velocity":55,"Duration":658689,"SoundDuration":658689,"Delta":216590895},{"NoteNumber":55,"Velocity":37,"Duration":164672,"SoundDuration":164672,"Delta":216590895},{"NoteNumber":67,"Velocity":30,"Duration":164672,"SoundDuration":164672,"Delta":216755567},{"NoteNumber":59,"Velocity":33,"Duration":164672,"SoundDuration":164672,"Delta":216920240},{"NoteNumber":67,"Velocity":30,"Duration":164672,"SoundDuration":164672,"Delta":217084912},{"NoteNumber":55,"Velocity":38,"Duration":164672,"SoundDuration":164672,"Delta":217249584},{"NoteNumber":67,"Velocity":33,"Duration":164672,"SoundDuration":164672,"Delta":217414256},{"NoteNumber":79,"Velocity":64,"Duration":168539,"SoundDuration":168539,"Delta":217578929},{"NoteNumber":59,"Velocity":31,"Duration":168539,"SoundDuration":168539,"Delta":217578929},{"NoteNumber":67,"Velocity":31,"Duration":168539,"SoundDuration":168539,"Delta":217747468},{"NoteNumber":77,"Velocity":63,"Duration":362713,"SoundDuration":362713,"Delta":217916007},{"NoteNumber":55,"Velocity":34,"Duration":181356,"SoundDuration":181356,"Delta":217916007},{"NoteNumber":67,"Velocity":29,"Duration":181356,"SoundDuration":181356,"Delta":218097364},{"NoteNumber":75,"Velocity":44,"Duration":341103,"SoundDuration":341103,"Delta":218278720},{"NoteNumber":60,"Velocity":31,"Duration":170551,"SoundDuration":170551,"Delta":218278720},{"NoteNumber":67,"Velocity":30,"Duration":170551,"SoundDuration":170551,"Delta":218449272},{"NoteNumber":55,"Velocity":33,"Duration":170551,"SoundDuration":170551,"Delta":218619823},{"NoteNumber":67,"Velocity":30,"Duration":170551,"SoundDuration":170551,"Delta":218790375},{"NoteNumber":72,"Velocity":43,"Duration":167560,"SoundDuration":167560,"Delta":218960926},{"NoteNumber":63,"Velocity":31,"Duration":167560,"SoundDuration":167560,"Delta":218960926},{"NoteNumber":67,"Velocity":29,"Duration":167560,"SoundDuration":167560,"Delta":219128486},{"NoteNumber":71,"Velocity":50,"Duration":362713,"SoundDuration":362713,"Delta":219296047},{"NoteNumber":55,"Velocity":32,"Duration":181356,"SoundDuration":181356,"Delta":219296047},{"NoteNumber":67,"Velocity":30,"Duration":181356,"SoundDuration":181356,"Delta":219477403},{"NoteNumber":74,"Velocity":47,"Duration":341103,"SoundDuration":341103,"Delta":219658760},{"NoteNumber":62,"Velocity":32,"Duration":170551,"SoundDuration":170551,"Delta":219658760},{"NoteNumber":67,"Velocity":30,"Duration":170551,"SoundDuration":170551,"Delta":219829311},{"NoteNumber":55,"Velocity":37,"Duration":170551,"SoundDuration":170551,"Delta":219999863},{"NoteNumber":67,"Velocity":30,"Duration":170551,"SoundDuration":170551,"Delta":220170414},{"NoteNumber":79,"Velocity":64,"Duration":167560,"SoundDuration":167560,"Delta":220340966},{"NoteNumber":59,"Velocity":32,"Duration":167560,"SoundDuration":167560,"Delta":220340966},{"NoteNumber":67,"Velocity":30,"Duration":167560,"SoundDuration":167560,"Delta":220508526},{"NoteNumber":55,"Velocity":35,"Duration":170551,"SoundDuration":170551,"Delta":220676086},{"NoteNumber":67,"Velocity":30,"Duration":170551,"SoundDuration":170551,"Delta":220846638},{"NoteNumber":77,"Velocity":47,"Duration":167560,"SoundDuration":167560,"Delta":221017189},{"NoteNumber":60,"Velocity":32,"Duration":167560,"SoundDuration":167560,"Delta":221017189},{"NoteNumber":75,"Velocity":47,"Duration":167560,"SoundDuration":167560,"Delta":221184749},{"NoteNumber":67,"Velocity":30,"Duration":167560,"SoundDuration":167560,"Delta":221184749},{"NoteNumber":55,"Velocity":37,"Duration":170551,"SoundDuration":170551,"Delta":221352310},{"NoteNumber":67,"Velocity":30,"Duration":170551,"SoundDuration":170551,"Delta":221522861},{"NoteNumber":74,"Velocity":43,"Duration":166592,"SoundDuration":166592,"Delta":221693413},{"NoteNumber":63,"Velocity":33,"Duration":166592,"SoundDuration":166592,"Delta":221693413},{"NoteNumber":72,"Velocity":43,"Duration":166592,"SoundDuration":166592,"Delta":221860005},{"NoteNumber":67,"Velocity":30,"Duration":166592,"SoundDuration":166592,"Delta":221860005},{"NoteNumber":71,"Velocity":51,"Duration":341103,"SoundDuration":341103,"Delta":222026598},{"NoteNumber":55,"Velocity":35,"Duration":170551,"SoundDuration":170551,"Delta":222026598},{"NoteNumber":67,"Velocity":30,"Duration":170551,"SoundDuration":170551,"Delta":222197150},{"NoteNumber":74,"Velocity":43,"Duration":341103,"SoundDuration":341103,"Delta":222367701},{"NoteNumber":62,"Velocity":32,"Duration":170551,"SoundDuration":170551,"Delta":222367701},{"NoteNumber":67,"Velocity":30,"Duration":170551,"SoundDuration":170551,"Delta":222538253},{"NoteNumber":55,"Velocity":45,"Duration":182926,"SoundDuration":182926,"Delta":222708804},{"NoteNumber":79,"Velocity":61,"Duration":167560,"SoundDuration":167560,"Delta":222891731},{"NoteNumber":67,"Velocity":35,"Duration":167560,"SoundDuration":167560,"Delta":222891731},{"NoteNumber":78,"Velocity":62,"Duration":167560,"SoundDuration":167560,"Delta":223059291},{"NoteNumber":59,"Velocity":38,"Duration":167560,"SoundDuration":167560,"Delta":223059291},{"NoteNumber":79,"Velocity":61,"Duration":167560,"SoundDuration":167560,"Delta":223226851},{"NoteNumber":67,"Velocity":36,"Duration":167560,"SoundDuration":167560,"Delta":223226851},{"NoteNumber":56,"Velocity":45,"Duration":174723,"SoundDuration":174723,"Delta":223394412},{"NoteNumber":75,"Velocity":57,"Duration":170551,"SoundDuration":170551,"Delta":223569135},{"NoteNumber":67,"Velocity":30,"Duration":170551,"SoundDuration":170551,"Delta":223569135},{"NoteNumber":74,"Velocity":60,"Duration":170551,"SoundDuration":170551,"Delta":223739686},{"NoteNumber":60,"Velocity":33,"Duration":170551,"SoundDuration":170551,"Delta":223739686},{"NoteNumber":75,"Velocity":58,"Duration":170551,"SoundDuration":170551,"Delta":223910238},{"NoteNumber":67,"Velocity":30,"Duration":170551,"SoundDuration":170551,"Delta":223910238},{"NoteNumber":56,"Velocity":45,"Duration":174723,"SoundDuration":174723,"Delta":224080789},{"NoteNumber":72,"Velocity":55,"Duration":171565,"SoundDuration":171565,"Delta":224255513},{"NoteNumber":66,"Velocity":33,"Duration":171565,"SoundDuration":171565,"Delta":224255513},{"NoteNumber":71,"Velocity":57,"Duration":171565,"SoundDuration":171565,"Delta":224427078},{"NoteNumber":60,"Velocity":33,"Duration":171565,"SoundDuration":171565,"Delta":224427078},{"NoteNumber":72,"Velocity":56,"Duration":171565,"SoundDuration":171565,"Delta":224598644},{"NoteNumber":66,"Velocity":33,"Duration":171565,"SoundDuration":171565,"Delta":224598644},{"NoteNumber":71,"Velocity":64,"Duration":341103,"SoundDuration":341103,"Delta":224770210},{"NoteNumber":55,"Velocity":45,"Duration":341103,"SoundDuration":341103,"Delta":224770210},{"NoteNumber":67,"Velocity":45,"Duration":341103,"SoundDuration":341103,"Delta":224770210},{"NoteNumber":74,"Velocity":56,"Duration":90678,"SoundDuration":90678,"Delta":225111313},{"NoteNumber":71,"Velocity":62,"Duration":341103,"SoundDuration":341103,"Delta":225474026},{"NoteNumber":55,"Velocity":43,"Duration":341103,"SoundDuration":341103,"Delta":225474026},{"NoteNumber":67,"Velocity":43,"Duration":341103,"SoundDuration":341103,"Delta":225474026},{"NoteNumber":74,"Velocity":56,"Duration":91833,"SoundDuration":91833,"Delta":225815129},{"NoteNumber":71,"Velocity":62,"Duration":341103,"SoundDuration":341103,"Delta":226182461},{"NoteNumber":55,"Velocity":44,"Duration":341103,"SoundDuration":341103,"Delta":226182461},{"NoteNumber":67,"Velocity":44,"Duration":341103,"SoundDuration":341103,"Delta":226182461},{"NoteNumber":74,"Velocity":54,"Duration":85275,"SoundDuration":85275,"Delta":226523564},{"NoteNumber":74,"Velocity":37,"Duration":353732,"SoundDuration":353732,"Delta":227546873},{"NoteNumber":55,"Velocity":24,"Duration":353732,"SoundDuration":353732,"Delta":227546873},{"NoteNumber":59,"Velocity":24,"Duration":353732,"SoundDuration":353732,"Delta":227546873},{"NoteNumber":62,"Velocity":24,"Duration":353732,"SoundDuration":353732,"Delta":227546873},{"NoteNumber":65,"Velocity":24,"Duration":353732,"SoundDuration":353732,"Delta":227546873},{"NoteNumber":77,"Velocity":34,"Duration":96799,"SoundDuration":96799,"Delta":227900605},{"NoteNumber":74,"Velocity":37,"Duration":353732,"SoundDuration":353732,"Delta":228287801},{"NoteNumber":55,"Velocity":24,"Duration":353732,"SoundDuration":353732,"Delta":228287801},{"NoteNumber":59,"Velocity":24,"Duration":353732,"SoundDuration":353732,"Delta":228287801},{"NoteNumber":62,"Velocity":24,"Duration":353732,"SoundDuration":353732,"Delta":228287801},{"NoteNumber":65,"Velocity":24,"Duration":353732,"SoundDuration":353732,"Delta":228287801},{"NoteNumber":77,"Velocity":34,"Duration":98129,"SoundDuration":98129,"Delta":228641533},{"NoteNumber":74,"Velocity":37,"Duration":377026,"SoundDuration":377026,"Delta":229034049},{"NoteNumber":55,"Velocity":24,"Duration":377026,"SoundDuration":377026,"Delta":229034049},{"NoteNumber":59,"Velocity":24,"Duration":377026,"SoundDuration":377026,"Delta":229034049},{"NoteNumber":62,"Velocity":24,"Duration":377026,"SoundDuration":377026,"Delta":229034049},{"NoteNumber":65,"Velocity":24,"Duration":377026,"SoundDuration":377026,"Delta":229034049},{"NoteNumber":77,"Velocity":35,"Duration":89541,"SoundDuration":89541,"Delta":229411076},{"NoteNumber":76,"Velocity":60,"Duration":512272,"SoundDuration":512272,"Delta":230487001},{"NoteNumber":48,"Velocity":40,"Duration":342466,"SoundDuration":342466,"Delta":230828040},{"NoteNumber":77,"Velocity":54,"Duration":85616,"SoundDuration":85616,"Delta":230999273},{"NoteNumber":79,"Velocity":54,"Duration":85616,"SoundDuration":85616,"Delta":231084889},{"NoteNumber":72,"Velocity":60,"Duration":342466,"SoundDuration":342466,"Delta":231170506},{"NoteNumber":52,"Velocity":40,"Duration":342466,"SoundDuration":342466,"Delta":231170506},{"NoteNumber":71,"Velocity":49,"Duration":342466,"SoundDuration":342466,"Delta":231512972},{"NoteNumber":74,"Velocity":49,"Duration":342466,"SoundDuration":342466,"Delta":231512972},{"NoteNumber":55,"Velocity":40,"Duration":342466,"SoundDuration":342466,"Delta":231512972},{"NoteNumber":71,"Velocity":53,"Duration":342466,"SoundDuration":342466,"Delta":231855438},{"NoteNumber":74,"Velocity":53,"Duration":256849,"SoundDuration":256849,"Delta":231855438},{"NoteNumber":60,"Velocity":43,"Duration":342466,"SoundDuration":342466,"Delta":231855438},{"NoteNumber":77,"Velocity":48,"Duration":85616,"SoundDuration":85616,"Delta":232112287},{"NoteNumber":76,"Velocity":53,"Duration":342466,"SoundDuration":342466,"Delta":232197904},{"NoteNumber":72,"Velocity":53,"Duration":342466,"SoundDuration":342466,"Delta":232197904},{"NoteNumber":48,"Velocity":40,"Duration":342466,"SoundDuration":342466,"Delta":232197904},{"NoteNumber":71,"Velocity":50,"Duration":734111,"SoundDuration":734111,"Delta":232540370},{"NoteNumber":74,"Velocity":50,"Duration":734111,"SoundDuration":734111,"Delta":232540370},{"NoteNumber":55,"Velocity":43,"Duration":349446,"SoundDuration":349446,"Delta":232540370},{"NoteNumber":43,"Velocity":40,"Duration":384664,"SoundDuration":384664,"Delta":232889816},{"NoteNumber":76,"Velocity":60,"Duration":513699,"SoundDuration":513699,"Delta":233274481},{"NoteNumber":48,"Velocity":40,"Duration":342466,"SoundDuration":342466,"Delta":233616947},{"NoteNumber":77,"Velocity":56,"Duration":85616,"SoundDuration":85616,"Delta":233788180},{"NoteNumber":79,"Velocity":56,"Duration":85616,"SoundDuration":85616,"Delta":233873796},{"NoteNumber":72,"Velocity":61,"Duration":342466,"SoundDuration":342466,"Delta":233959413},{"NoteNumber":52,"Velocity":40,"Duration":342466,"SoundDuration":342466,"Delta":233959413},{"NoteNumber":74,"Velocity":49,"Duration":171233,"SoundDuration":171233,"Delta":234301879},{"NoteNumber":71,"Velocity":49,"Duration":171233,"SoundDuration":171233,"Delta":234301879},{"NoteNumber":55,"Velocity":43,"Duration":342466,"SoundDuration":342466,"Delta":234301879},{"NoteNumber":74,"Velocity":54,"Duration":342466,"SoundDuration":342466,"Delta":234644345},{"NoteNumber":77,"Velocity":54,"Duration":342466,"SoundDuration":342466,"Delta":234644345},{"NoteNumber":60,"Velocity":44,"Duration":342466,"SoundDuration":342466,"Delta":234644345},{"NoteNumber":76,"Velocity":49,"Duration":69220,"SoundDuration":69220,"Delta":234986811},{"NoteNumber":72,"Velocity":49,"Duration":346100,"SoundDuration":346100,"Delta":234986811},{"NoteNumber":48,"Velocity":41,"Duration":346100,"SoundDuration":346100,"Delta":234986811},{"NoteNumber":77,"Velocity":49,"Duration":69220,"SoundDuration":69220,"Delta":235056031},{"NoteNumber":76,"Velocity":49,"Duration":69220,"SoundDuration":69220,"Delta":235125251},{"NoteNumber":77,"Velocity":49,"Duration":69220,"SoundDuration":69220,"Delta":235194471},{"NoteNumber":76,"Velocity":49,"Duration":69220,"SoundDuration":69220,"Delta":235263691},{"NoteNumber":71,"Velocity":52,"Duration":724493,"SoundDuration":724493,"Delta":235332911},{"NoteNumber":74,"Velocity":52,"Duration":724493,"SoundDuration":724493,"Delta":235332911},{"NoteNumber":55,"Velocity":43,"Duration":349446,"SoundDuration":349446,"Delta":235332911},{"NoteNumber":43,"Velocity":41,"Duration":375046,"SoundDuration":375046,"Delta":235682358},{"NoteNumber":77,"Velocity":64,"Duration":513699,"SoundDuration":513699,"Delta":236057405},{"NoteNumber":57,"Velocity":47,"Duration":342466,"SoundDuration":342466,"Delta":236057405},{"NoteNumber":60,"Velocity":46,"Duration":342466,"SoundDuration":342466,"Delta":236399871},{"NoteNumber":79,"Velocity":60,"Duration":85616,"SoundDuration":85616,"Delta":236571104},{"NoteNumber":77,"Velocity":60,"Duration":85616,"SoundDuration":85616,"Delta":236656720},{"NoteNumber":76,"Velocity":64,"Duration":342466,"SoundDuration":342466,"Delta":236742337},{"NoteNumber":55,"Velocity":49,"Duration":342466,"SoundDuration":342466,"Delta":236742337},{"NoteNumber":76,"Velocity":62,"Duration":174926,"SoundDuration":174926,"Delta":237084803},{"NoteNumber":60,"Velocity":45,"Duration":349853,"SoundDuration":349853,"Delta":237084803},{"NoteNumber":81,"Velocity":69,"Duration":513699,"SoundDuration":513699,"Delta":237434657},{"NoteNumber":53,"Velocity":49,"Duration":342466,"SoundDuration":342466,"Delta":237434657},{"NoteNumber":60,"Velocity":47,"Duration":342466,"SoundDuration":342466,"Delta":237777123},{"NoteNumber":83,"Velocity":63,"Duration":85616,"SoundDuration":85616,"Delta":237948356},{"NoteNumber":84,"Velocity":63,"Duration":85616,"SoundDuration":85616,"Delta":238033972},{"NoteNumber":79,"Velocity":69,"Duration":342466,"SoundDuration":342466,"Delta":238119589},{"NoteNumber":52,"Velocity":50,"Duration":342466,"SoundDuration":342466,"Delta":238119589},{"NoteNumber":79,"Velocity":69,"Duration":171233,"SoundDuration":171233,"Delta":238462055},{"NoteNumber":60,"Velocity":46,"Duration":342466,"SoundDuration":342466,"Delta":238462055},{"NoteNumber":79,"Velocity":68,"Duration":171233,"SoundDuration":171233,"Delta":238804521},{"NoteNumber":77,"Velocity":63,"Duration":128424,"SoundDuration":128424,"Delta":238975754},{"NoteNumber":77,"Velocity":64,"Duration":171233,"SoundDuration":171233,"Delta":239146987},{"NoteNumber":67,"Velocity":43,"Duration":342466,"SoundDuration":342466,"Delta":239146987},{"NoteNumber":59,"Velocity":43,"Duration":342466,"SoundDuration":342466,"Delta":239146987},{"NoteNumber":74,"Velocity":63,"Duration":128424,"SoundDuration":128424,"Delta":239318220},{"NoteNumber":77,"Velocity":69,"Duration":171233,"SoundDuration":171233,"Delta":239489453},{"NoteNumber":76,"Velocity":64,"Duration":128424,"SoundDuration":128424,"Delta":239660686},{"NoteNumber":76,"Velocity":66,"Duration":171233,"SoundDuration":171233,"Delta":239831919},{"NoteNumber":67,"Velocity":43,"Duration":342466,"SoundDuration":342466,"Delta":239831919},{"NoteNumber":60,"Velocity":43,"Duration":342466,"SoundDuration":342466,"Delta":239831919},{"NoteNumber":72,"Velocity":64,"Duration":128424,"SoundDuration":128424,"Delta":240003152},{"NoteNumber":73,"Velocity":64,"Duration":171233,"SoundDuration":171233,"Delta":240174385},{"NoteNumber":59,"Velocity":44,"Duration":688559,"SoundDuration":688559,"Delta":240174385},{"NoteNumber":55,"Velocity":44,"Duration":688559,"SoundDuration":688559,"Delta":240174385},{"NoteNumber":74,"Velocity":60,"Duration":171835,"SoundDuration":171835,"Delta":240345618},{"NoteNumber":76,"Velocity":64,"Duration":172441,"SoundDuration":172441,"Delta":240517453},{"NoteNumber":74,"Velocity":62,"Duration":173050,"SoundDuration":173050,"Delta":240689895},{"NoteNumber":72,"Velocity":63,"Duration":173993,"SoundDuration":173993,"Delta":240862945},{"NoteNumber":71,"Velocity":61,"Duration":174615,"SoundDuration":174615,"Delta":241036939},{"NoteNumber":69,"Velocity":61,"Duration":175241,"SoundDuration":175241,"Delta":241211554},{"NoteNumber":67,"Velocity":60,"Duration":186058,"SoundDuration":186058,"Delta":241386796},{"NoteNumber":76,"Velocity":70,"Duration":513699,"SoundDuration":513699,"Delta":241572854},{"NoteNumber":36,"Velocity":64,"Duration":171233,"SoundDuration":171233,"Delta":241572854},{"NoteNumber":40,"Velocity":56,"Duration":171233,"SoundDuration":171233,"Delta":241744087},{"NoteNumber":43,"Velocity":57,"Duration":171233,"SoundDuration":171233,"Delta":241915320},{"NoteNumber":77,"Velocity":64,"Duration":85616,"SoundDuration":85616,"Delta":242086553},{"NoteNumber":48,"Velocity":56,"Duration":171233,"SoundDuration":171233,"Delta":242086553},{"NoteNumber":79,"Velocity":64,"Duration":85616,"SoundDuration":85616,"Delta":242172169},{"NoteNumber":72,"Velocity":70,"Duration":342466,"SoundDuration":342466,"Delta":242257786},{"NoteNumber":40,"Velocity":60,"Duration":171233,"SoundDuration":171233,"Delta":242257786},{"NoteNumber":52,"Velocity":57,"Duration":171233,"SoundDuration":171233,"Delta":242429019},{"NoteNumber":74,"Velocity":60,"Duration":342466,"SoundDuration":342466,"Delta":242600252},{"NoteNumber":71,"Velocity":60,"Duration":342466,"SoundDuration":342466,"Delta":242600252},{"NoteNumber":43,"Velocity":60,"Duration":171233,"SoundDuration":171233,"Delta":242600252},{"NoteNumber":55,"Velocity":57,"Duration":171233,"SoundDuration":171233,"Delta":242771485},{"NoteNumber":74,"Velocity":63,"Duration":256849,"SoundDuration":256849,"Delta":242942718},{"NoteNumber":71,"Velocity":63,"Duration":342466,"SoundDuration":342466,"Delta":242942718},{"NoteNumber":48,"Velocity":60,"Duration":171233,"SoundDuration":171233,"Delta":242942718},{"NoteNumber":52,"Velocity":55,"Duration":171233,"SoundDuration":171233,"Delta":243113951},{"NoteNumber":77,"Velocity":57,"Duration":85616,"SoundDuration":85616,"Delta":243199567},{"NoteNumber":72,"Velocity":63,"Duration":342466,"SoundDuration":342466,"Delta":243285184},{"NoteNumber":76,"Velocity":63,"Duration":342466,"SoundDuration":342466,"Delta":243285184},{"NoteNumber":55,"Velocity":57,"Duration":171233,"SoundDuration":171233,"Delta":243285184},{"NoteNumber":60,"Velocity":56,"Duration":171233,"SoundDuration":171233,"Delta":243456417},{"NoteNumber":71,"Velocity":61,"Duration":711998,"SoundDuration":711998,"Delta":243627650},{"NoteNumber":74,"Velocity":61,"Duration":711998,"SoundDuration":711998,"Delta":243627650},{"NoteNumber":43,"Velocity":60,"Duration":173050,"SoundDuration":173050,"Delta":243627650},{"NoteNumber":47,"Velocity":57,"Duration":173050,"SoundDuration":173050,"Delta":243800700},{"NoteNumber":50,"Velocity":59,"Duration":182949,"SoundDuration":182949,"Delta":243973750},{"NoteNumber":55,"Velocity":57,"Duration":182949,"SoundDuration":182949,"Delta":244156700},{"NoteNumber":76,"Velocity":70,"Duration":513699,"SoundDuration":513699,"Delta":244339649},{"NoteNumber":36,"Velocity":60,"Duration":171233,"SoundDuration":171233,"Delta":244339649},{"NoteNumber":40,"Velocity":56,"Duration":171233,"SoundDuration":171233,"Delta":244510882},{"NoteNumber":43,"Velocity":57,"Duration":171233,"SoundDuration":171233,"Delta":244682115},{"NoteNumber":77,"Velocity":67,"Duration":85616,"SoundDuration":85616,"Delta":244853348},{"NoteNumber":48,"Velocity":55,"Duration":171233,"SoundDuration":171233,"Delta":244853348},{"NoteNumber":79,"Velocity":67,"Duration":85616,"SoundDuration":85616,"Delta":244938964},{"NoteNumber":72,"Velocity":71,"Duration":342466,"SoundDuration":342466,"Delta":245024581},{"NoteNumber":40,"Velocity":60,"Duration":171233,"SoundDuration":171233,"Delta":245024581},{"NoteNumber":52,"Velocity":57,"Duration":171233,"SoundDuration":171233,"Delta":245195814},{"NoteNumber":74,"Velocity":60,"Duration":171233,"SoundDuration":171233,"Delta":245367047},{"NoteNumber":71,"Velocity":60,"Duration":171233,"SoundDuration":171233,"Delta":245367047},{"NoteNumber":43,"Velocity":58,"Duration":171233,"SoundDuration":171233,"Delta":245367047},{"NoteNumber":55,"Velocity":57,"Duration":171233,"SoundDuration":171233,"Delta":245538280},{"NoteNumber":77,"Velocity":64,"Duration":342466,"SoundDuration":342466,"Delta":245709513},{"NoteNumber":74,"Velocity":64,"Duration":342466,"SoundDuration":342466,"Delta":245709513},{"NoteNumber":48,"Velocity":60,"Duration":171233,"SoundDuration":171233,"Delta":245709513},{"NoteNumber":52,"Velocity":55,"Duration":171233,"SoundDuration":171233,"Delta":245880746},{"NoteNumber":72,"Velocity":60,"Duration":346100,"SoundDuration":346100,"Delta":246051979},{"NoteNumber":76,"Velocity":60,"Duration":69220,"SoundDuration":69220,"Delta":246051979},{"NoteNumber":55,"Velocity":57,"Duration":173050,"SoundDuration":173050,"Delta":246051979},{"NoteNumber":77,"Velocity":60,"Duration":69220,"SoundDuration":69220,"Delta":246121199},{"NoteNumber":76,"Velocity":60,"Duration":69220,"SoundDuration":69220,"Delta":246190419},{"NoteNumber":60,"Velocity":56,"Duration":173050,"SoundDuration":173050,"Delta":246225029},{"NoteNumber":77,"Velocity":60,"Duration":69220,"SoundDuration":69220,"Delta":246259639},{"NoteNumber":76,"Velocity":60,"Duration":69220,"SoundDuration":69220,"Delta":246328859},{"NoteNumber":71,"Velocity":62,"Duration":711482,"SoundDuration":711482,"Delta":246398079},{"NoteNumber":74,"Velocity":62,"Duration":711482,"SoundDuration":711482,"Delta":246398079},{"NoteNumber":43,"Velocity":62,"Duration":173050,"SoundDuration":173050,"Delta":246398079},{"NoteNumber":47,"Velocity":56,"Duration":173050,"SoundDuration":173050,"Delta":246571130},{"NoteNumber":50,"Velocity":57,"Duration":173050,"SoundDuration":173050,"Delta":246744180},{"NoteNumber":55,"Velocity":56,"Duration":192332,"SoundDuration":192332,"Delta":246917230},{"NoteNumber":77,"Velocity":77,"Duration":513699,"SoundDuration":513699,"Delta":247109562},{"NoteNumber":57,"Velocity":53,"Duration":171233,"SoundDuration":171233,"Delta":247109562},{"NoteNumber":60,"Velocity":49,"Duration":171233,"SoundDuration":171233,"Delta":247280795},{"NoteNumber":57,"Velocity":53,"Duration":171233,"SoundDuration":171233,"Delta":247452028},{"NoteNumber":79,"Velocity":70,"Duration":85616,"SoundDuration":85616,"Delta":247623261},{"NoteNumber":60,"Velocity":49,"Duration":171233,"SoundDuration":171233,"Delta":247623261},{"NoteNumber":77,"Velocity":70,"Duration":85616,"SoundDuration":85616,"Delta":247708878},{"NoteNumber":76,"Velocity":77,"Duration":342466,"SoundDuration":342466,"Delta":247794494},{"NoteNumber":55,"Velocity":53,"Duration":171233,"SoundDuration":171233,"Delta":247794494},{"NoteNumber":60,"Velocity":50,"Duration":171233,"SoundDuration":171233,"Delta":247965727},{"NoteNumber":76,"Velocity":74,"Duration":174926,"SoundDuration":174926,"Delta":248136960},{"NoteNumber":55,"Velocity":53,"Duration":174926,"SoundDuration":174926,"Delta":248136960},{"NoteNumber":60,"Velocity":50,"Duration":174926,"SoundDuration":174926,"Delta":248311887},{"NoteNumber":81,"Velocity":78,"Duration":513699,"SoundDuration":513699,"Delta":248486814},{"NoteNumber":53,"Velocity":57,"Duration":171233,"SoundDuration":171233,"Delta":248486814},{"NoteNumber":60,"Velocity":53,"Duration":171233,"SoundDuration":171233,"Delta":248658047},{"NoteNumber":53,"Velocity":57,"Duration":171233,"SoundDuration":171233,"Delta":248829280},{"NoteNumber":83,"Velocity":71,"Duration":85616,"SoundDuration":85616,"Delta":249000513},{"NoteNumber":60,"Velocity":53,"Duration":171233,"SoundDuration":171233,"Delta":249000513},{"NoteNumber":84,"Velocity":69,"Duration":85616,"SoundDuration":85616,"Delta":249086130},{"NoteNumber":79,"Velocity":79,"Duration":342466,"SoundDuration":342466,"Delta":249171746},{"NoteNumber":52,"Velocity":57,"Duration":171233,"SoundDuration":171233,"Delta":249171746},{"NoteNumber":60,"Velocity":53,"Duration":171233,"SoundDuration":171233,"Delta":249342979},{"NoteNumber":79,"Velocity":77,"Duration":171233,"SoundDuration":171233,"Delta":249514212},{"NoteNumber":52,"Velocity":57,"Duration":171233,"SoundDuration":171233,"Delta":249514212},{"NoteNumber":60,"Velocity":52,"Duration":171233,"SoundDuration":171233,"Delta":249685445},{"NoteNumber":80,"Velocity":77,"Duration":173993,"SoundDuration":173993,"Delta":249856678},{"NoteNumber":81,"Velocity":74,"Duration":173993,"SoundDuration":173993,"Delta":250030672},{"NoteNumber":77,"Velocity":75,"Duration":171233,"SoundDuration":171233,"Delta":250204666},{"NoteNumber":62,"Velocity":49,"Duration":171233,"SoundDuration":171233,"Delta":250204666},{"NoteNumber":53,"Velocity":49,"Duration":171233,"SoundDuration":171233,"Delta":250204666},{"NoteNumber":74,"Velocity":72,"Duration":171233,"SoundDuration":171233,"Delta":250375899},{"NoteNumber":72,"Velocity":75,"Duration":359496,"SoundDuration":359496,"Delta":250547132},{"NoteNumber":64,"Velocity":49,"Duration":359496,"SoundDuration":359496,"Delta":250547132},{"NoteNumber":55,"Velocity":49,"Duration":739291,"SoundDuration":739291,"Delta":250547132},{"NoteNumber":71,"Velocity":71,"Duration":379795,"SoundDuration":379795,"Delta":250906628},{"NoteNumber":62,"Velocity":49,"Duration":379795,"SoundDuration":379795,"Delta":250906628},{"NoteNumber":72,"Velocity":75,"Duration":115995,"SoundDuration":115995,"Delta":251286423},{"NoteNumber":64,"Velocity":49,"Duration":695975,"SoundDuration":695975,"Delta":251286423},{"NoteNumber":60,"Velocity":49,"Duration":695975,"SoundDuration":695975,"Delta":251286423},{"NoteNumber":67,"Velocity":69,"Duration":115995,"SoundDuration":115995,"Delta":251402419},{"NoteNumber":76,"Velocity":66,"Duration":115995,"SoundDuration":115995,"Delta":251518415},{"NoteNumber":72,"Velocity":75,"Duration":115995,"SoundDuration":115995,"Delta":251634411},{"NoteNumber":79,"Velocity":69,"Duration":115995,"SoundDuration":115995,"Delta":251750407},{"NoteNumber":76,"Velocity":66,"Duration":115995,"SoundDuration":115995,"Delta":251866403},{"NoteNumber":84,"Velocity":73,"Duration":114155,"SoundDuration":114155,"Delta":251982398},{"NoteNumber":83,"Velocity":66,"Duration":114155,"SoundDuration":114155,"Delta":252096554},{"NoteNumber":81,"Velocity":65,"Duration":114155,"SoundDuration":114155,"Delta":252210709},{"NoteNumber":79,"Velocity":70,"Duration":114155,"SoundDuration":114155,"Delta":252324864},{"NoteNumber":77,"Velocity":67,"Duration":114155,"SoundDuration":114155,"Delta":252439020},{"NoteNumber":76,"Velocity":65,"Duration":114155,"SoundDuration":114155,"Delta":252553175},{"NoteNumber":73,"Velocity":63,"Duration":116617,"SoundDuration":116617,"Delta":252667330},{"NoteNumber":74,"Velocity":60,"Duration":116618,"SoundDuration":116618,"Delta":252783948},{"NoteNumber":77,"Velocity":60,"Duration":116617,"SoundDuration":116617,"Delta":252900566},{"NoteNumber":81,"Velocity":62,"Duration":113700,"SoundDuration":113700,"Delta":253017184},{"NoteNumber":62,"Velocity":38,"Duration":341103,"SoundDuration":341103,"Delta":253017184},{"NoteNumber":53,"Velocity":38,"Duration":341103,"SoundDuration":341103,"Delta":253017184},{"NoteNumber":57,"Velocity":38,"Duration":341103,"SoundDuration":341103,"Delta":253017184},{"NoteNumber":77,"Velocity":57,"Duration":113701,"SoundDuration":113701,"Delta":253130885},{"NoteNumber":74,"Velocity":57,"Duration":113700,"SoundDuration":113700,"Delta":253244586},{"NoteNumber":79,"Velocity":61,"Duration":113700,"SoundDuration":113700,"Delta":253358287},{"NoteNumber":60,"Velocity":38,"Duration":341103,"SoundDuration":341103,"Delta":253358287},{"NoteNumber":64,"Velocity":38,"Duration":341103,"SoundDuration":341103,"Delta":253358287},{"NoteNumber":55,"Velocity":38,"Duration":711546,"SoundDuration":711546,"Delta":253358287},{"NoteNumber":76,"Velocity":57,"Duration":113700,"SoundDuration":113700,"Delta":253471988},{"NoteNumber":72,"Velocity":57,"Duration":113701,"SoundDuration":113701,"Delta":253585689},{"NoteNumber":77,"Velocity":61,"Duration":115767,"SoundDuration":115767,"Delta":253699390},{"NoteNumber":65,"Velocity":44,"Duration":370443,"SoundDuration":370443,"Delta":253699390},{"NoteNumber":62,"Velocity":44,"Duration":370443,"SoundDuration":370443,"Delta":253699390},{"NoteNumber":74,"Velocity":55,"Duration":115767,"SoundDuration":115767,"Delta":253815158},{"NoteNumber":71,"Velocity":55,"Duration":138908,"SoundDuration":138908,"Delta":253930925},{"NoteNumber":72,"Velocity":75,"Duration":116292,"SoundDuration":116292,"Delta":254069834},{"NoteNumber":60,"Velocity":49,"Duration":697755,"SoundDuration":697755,"Delta":254069834},{"NoteNumber":64,"Velocity":49,"Duration":697755,"SoundDuration":697755,"Delta":254069834},{"NoteNumber":67,"Velocity":69,"Duration":116292,"SoundDuration":116292,"Delta":254186126},{"NoteNumber":76,"Velocity":67,"Duration":116292,"SoundDuration":116292,"Delta":254302419},{"NoteNumber":72,"Velocity":75,"Duration":116292,"SoundDuration":116292,"Delta":254418712},{"NoteNumber":79,"Velocity":69,"Duration":116292,"SoundDuration":116292,"Delta":254535004},{"NoteNumber":76,"Velocity":67,"Duration":116292,"SoundDuration":116292,"Delta":254651297},{"NoteNumber":84,"Velocity":73,"Duration":114155,"SoundDuration":114155,"Delta":254767590},{"NoteNumber":83,"Velocity":66,"Duration":114155,"SoundDuration":114155,"Delta":254881745},{"NoteNumber":81,"Velocity":64,"Duration":114155,"SoundDuration":114155,"Delta":254995900},{"NoteNumber":79,"Velocity":70,"Duration":114155,"SoundDuration":114155,"Delta":255110056},{"NoteNumber":77,"Velocity":67,"Duration":114155,"SoundDuration":114155,"Delta":255224211},{"NoteNumber":76,"Velocity":65,"Duration":114155,"SoundDuration":114155,"Delta":255338366},{"NoteNumber":73,"Velocity":63,"Duration":116617,"SoundDuration":116617,"Delta":255452522},{"NoteNumber":74,"Velocity":60,"Duration":116618,"SoundDuration":116618,"Delta":255569140},{"NoteNumber":77,"Velocity":59,"Duration":116584,"SoundDuration":116584,"Delta":255685758},{"NoteNumber":81,"Velocity":62,"Duration":113032,"SoundDuration":113032,"Delta":255802342},{"NoteNumber":57,"Velocity":38,"Duration":339097,"SoundDuration":339097,"Delta":255802342},{"NoteNumber":62,"Velocity":38,"Duration":339097,"SoundDuration":339097,"Delta":255802342},{"NoteNumber":53,"Velocity":38,"Duration":339097,"SoundDuration":339097,"Delta":255802342},{"NoteNumber":77,"Velocity":57,"Duration":113032,"SoundDuration":113032,"Delta":255915374},{"NoteNumber":74,"Velocity":55,"Duration":113032,"SoundDuration":113032,"Delta":256028407},{"NoteNumber":79,"Velocity":61,"Duration":113032,"SoundDuration":113032,"Delta":256141440},{"NoteNumber":60,"Velocity":38,"Duration":339098,"SoundDuration":339098,"Delta":256141440},{"NoteNumber":55,"Velocity":38,"Duration":685385,"SoundDuration":685385,"Delta":256141440},{"NoteNumber":64,"Velocity":38,"Duration":339098,"SoundDuration":339098,"Delta":256141440},{"NoteNumber":76,"Velocity":57,"Duration":113032,"SoundDuration":113032,"Delta":256254472},{"NoteNumber":72,"Velocity":54,"Duration":113032,"SoundDuration":113032,"Delta":256367505},{"NoteNumber":77,"Velocity":61,"Duration":115767,"SoundDuration":115767,"Delta":256480538},{"NoteNumber":65,"Velocity":40,"Duration":346287,"SoundDuration":346287,"Delta":256480538},{"NoteNumber":62,"Velocity":40,"Duration":346287,"SoundDuration":346287,"Delta":256480538},{"NoteNumber":74,"Velocity":55,"Duration":115767,"SoundDuration":115767,"Delta":256596305},{"NoteNumber":71,"Velocity":55,"Duration":114752,"SoundDuration":114752,"Delta":256712073},{"NoteNumber":72,"Velocity":52,"Duration":94936,"SoundDuration":94936,"Delta":256826825},{"NoteNumber":60,"Velocity":38,"Duration":94936,"SoundDuration":94936,"Delta":256826825},{"NoteNumber":64,"Velocity":38,"Duration":94936,"SoundDuration":94936,"Delta":256826825},{"NoteNumber":67,"Velocity":50,"Duration":110294,"SoundDuration":110294,"Delta":257206572},{"NoteNumber":55,"Velocity":38,"Duration":110294,"SoundDuration":110294,"Delta":257206572},{"NoteNumber":60,"Velocity":50,"Duration":958072,"SoundDuration":958072,"Delta":257647749},{"NoteNumber":36,"Velocity":38,"Duration":958072,"SoundDuration":958072,"Delta":257647749},{"NoteNumber":48,"Velocity":38,"Duration":958072,"SoundDuration":958072,"Delta":257647749},{"NoteNumber":76,"Velocity":50,"Duration":697673,"SoundDuration":697673,"Delta":258605821},{"NoteNumber":60,"Velocity":37,"Duration":174418,"SoundDuration":174418,"Delta":258605821},{"NoteNumber":67,"Velocity":30,"Duration":174418,"SoundDuration":174418,"Delta":258780239},{"NoteNumber":66,"Velocity":33,"Duration":174418,"SoundDuration":174418,"Delta":258954658},{"NoteNumber":67,"Velocity":30,"Duration":174418,"SoundDuration":174418,"Delta":259129076},{"NoteNumber":77,"Velocity":46,"Duration":87209,"SoundDuration":87209,"Delta":259303495},{"NoteNumber":60,"Velocity":37,"Duration":174418,"SoundDuration":174418,"Delta":259303495},{"NoteNumber":76,"Velocity":46,"Duration":87209,"SoundDuration":87209,"Delta":259390704},{"NoteNumber":74,"Velocity":46,"Duration":86774,"SoundDuration":86774,"Delta":259477913},{"NoteNumber":67,"Velocity":30,"Duration":172981,"SoundDuration":172981,"Delta":259477913},{"NoteNumber":76,"Velocity":46,"Duration":86206,"SoundDuration":86206,"Delta":259564688},{"NoteNumber":79,"Velocity":50,"Duration":171564,"SoundDuration":171564,"Delta":259650895},{"NoteNumber":62,"Velocity":33,"Duration":171564,"SoundDuration":171564,"Delta":259650895},{"NoteNumber":77,"Velocity":46,"Duration":170167,"SoundDuration":170167,"Delta":259822460},{"NoteNumber":67,"Velocity":30,"Duration":170167,"SoundDuration":170167,"Delta":259822460},{"NoteNumber":76,"Velocity":51,"Duration":170454,"SoundDuration":170454,"Delta":259992627},{"NoteNumber":64,"Velocity":37,"Duration":170454,"SoundDuration":170454,"Delta":259992627},{"NoteNumber":74,"Velocity":49,"Duration":170454,"SoundDuration":170454,"Delta":260163082},{"NoteNumber":67,"Velocity":30,"Duration":170454,"SoundDuration":170454,"Delta":260163082},{"NoteNumber":72,"Velocity":49,"Duration":170454,"SoundDuration":170454,"Delta":260333536},{"NoteNumber":65,"Velocity":33,"Duration":170454,"SoundDuration":170454,"Delta":260333536},{"NoteNumber":71,"Velocity":49,"Duration":191438,"SoundDuration":191438,"Delta":260503991},{"NoteNumber":67,"Velocity":30,"Duration":191438,"SoundDuration":191438,"Delta":260503991},{"NoteNumber":72,"Velocity":52,"Duration":90361,"SoundDuration":90361,"Delta":260695430},{"NoteNumber":64,"Velocity":37,"Duration":180723,"SoundDuration":180723,"Delta":260695430},{"NoteNumber":67,"Velocity":30,"Duration":179001,"SoundDuration":179001,"Delta":260876153},{"NoteNumber":73,"Velocity":55,"Duration":89250,"SoundDuration":89250,"Delta":261055154},{"NoteNumber":58,"Velocity":33,"Duration":177485,"SoundDuration":177485,"Delta":261055154},{"NoteNumber":67,"Velocity":31,"Duration":175649,"SoundDuration":175649,"Delta":261232640},{"NoteNumber":74,"Velocity":56,"Duration":87209,"SoundDuration":87209,"Delta":261408290},{"NoteNumber":59,"Velocity":38,"Duration":174184,"SoundDuration":174184,"Delta":261408290},{"NoteNumber":67,"Velocity":31,"Duration":172413,"SoundDuration":172413,"Delta":261582475},{"NoteNumber":75,"Velocity":60,"Duration":85227,"SoundDuration":85227,"Delta":261754888},{"NoteNumber":59,"Velocity":35,"Duration":170454,"SoundDuration":170454,"Delta":261754888},{"NoteNumber":67,"Velocity":32,"Duration":170454,"SoundDuration":170454,"Delta":261925343},{"NoteNumber":76,"Velocity":63,"Duration":85227,"SoundDuration":85227,"Delta":262095797},{"NoteNumber":60,"Velocity":41,"Duration":170454,"SoundDuration":170454,"Delta":262095797},{"NoteNumber":67,"Velocity":33,"Duration":180744,"SoundDuration":180744,"Delta":262266252},{"NoteNumber":79,"Velocity":62,"Duration":173050,"SoundDuration":173050,"Delta":262446997},{"NoteNumber":62,"Velocity":37,"Duration":173050,"SoundDuration":173050,"Delta":262446997},{"NoteNumber":77,"Velocity":57,"Duration":173050,"SoundDuration":173050,"Delta":262620047},{"NoteNumber":67,"Velocity":33,"Duration":173050,"SoundDuration":173050,"Delta":262620047},{"NoteNumber":76,"Velocity":62,"Duration":522924,"SoundDuration":522924,"Delta":262793097},{"NoteNumber":60,"Velocity":40,"Duration":173050,"SoundDuration":173050,"Delta":262793097},{"NoteNumber":67,"Velocity":30,"Duration":173050,"SoundDuration":173050,"Delta":262966147},{"NoteNumber":66,"Velocity":33,"Duration":176824,"SoundDuration":176824,"Delta":263139198},{"NoteNumber":77,"Velocity":55,"Duration":86525,"SoundDuration":86525,"Delta":263316022},{"NoteNumber":67,"Velocity":30,"Duration":173050,"SoundDuration":173050,"Delta":263316022},{"NoteNumber":76,"Velocity":55,"Duration":86525,"SoundDuration":86525,"Delta":263402547},{"NoteNumber":74,"Velocity":56,"Duration":346100,"SoundDuration":346100,"Delta":263489072},{"NoteNumber":59,"Velocity":37,"Duration":173050,"SoundDuration":173050,"Delta":263489072},{"NoteNumber":67,"Velocity":31,"Duration":173050,"SoundDuration":173050,"Delta":263662122},{"NoteNumber":66,"Velocity":33,"Duration":180723,"SoundDuration":180723,"Delta":263835173},{"NoteNumber":67,"Velocity":32,"Duration":180723,"SoundDuration":180723,"Delta":264015896},{"NoteNumber":77,"Velocity":58,"Duration":698998,"SoundDuration":698998,"Delta":264196619},{"NoteNumber":59,"Velocity":37,"Duration":171232,"SoundDuration":171232,"Delta":264196619},{"NoteNumber":67,"Velocity":31,"Duration":171233,"SoundDuration":171233,"Delta":264367852},{"NoteNumber":66,"Velocity":33,"Duration":171232,"SoundDuration":171232,"Delta":264539085},{"NoteNumber":67,"Velocity":31,"Duration":185299,"SoundDuration":185299,"Delta":264710318},{"NoteNumber":79,"Velocity":48,"Duration":84269,"SoundDuration":84269,"Delta":264895617},{"NoteNumber":59,"Velocity":37,"Duration":168539,"SoundDuration":168539,"Delta":264895617},{"NoteNumber":77,"Velocity":49,"Duration":84269,"SoundDuration":84269,"Delta":264979886},{"NoteNumber":76,"Velocity":49,"Duration":84269,"SoundDuration":84269,"Delta":265064156},{"NoteNumber":67,"Velocity":31,"Duration":168539,"SoundDuration":168539,"Delta":265064156},{"NoteNumber":77,"Velocity":49,"Duration":84269,"SoundDuration":84269,"Delta":265148426},{"NoteNumber":81,"Velocity":55,"Duration":168539,"SoundDuration":168539,"Delta":265232695},{"NoteNumber":60,"Velocity":33,"Duration":168539,"SoundDuration":168539,"Delta":265232695},{"NoteNumber":79,"Velocity":52,"Duration":168539,"SoundDuration":168539,"Delta":265401235},{"NoteNumber":67,"Velocity":31,"Duration":168539,"SoundDuration":168539,"Delta":265401235},{"NoteNumber":77,"Velocity":52,"Duration":168539,"SoundDuration":168539,"Delta":265569774},{"NoteNumber":62,"Velocity":37,"Duration":168539,"SoundDuration":168539,"Delta":265569774},{"NoteNumber":76,"Velocity":50,"Duration":168539,"SoundDuration":168539,"Delta":265738313},{"NoteNumber":67,"Velocity":31,"Duration":168539,"SoundDuration":168539,"Delta":265738313},{"NoteNumber":74,"Velocity":50,"Duration":168539,"SoundDuration":168539,"Delta":265906852},{"NoteNumber":64,"Velocity":33,"Duration":168539,"SoundDuration":168539,"Delta":265906852},{"NoteNumber":72,"Velocity":50,"Duration":177788,"SoundDuration":177788,"Delta":266075392},{"NoteNumber":67,"Velocity":31,"Duration":177788,"SoundDuration":177788,"Delta":266075392},{"NoteNumber":71,"Velocity":49,"Duration":171232,"SoundDuration":171232,"Delta":266253180},{"NoteNumber":65,"Velocity":37,"Duration":171232,"SoundDuration":171232,"Delta":266253180},{"NoteNumber":72,"Velocity":50,"Duration":85616,"SoundDuration":85616,"Delta":266424413},{"NoteNumber":67,"Velocity":32,"Duration":171233,"SoundDuration":171233,"Delta":266424413},{"NoteNumber":74,"Velocity":51,"Duration":85616,"SoundDuration":85616,"Delta":266595646},{"NoteNumber":62,"Velocity":34,"Duration":171232,"SoundDuration":171232,"Delta":266595646},{"NoteNumber":76,"Velocity":53,"Duration":85616,"SoundDuration":85616,"Delta":266766879},{"NoteNumber":67,"Velocity":31,"Duration":171233,"SoundDuration":171233,"Delta":266766879},{"NoteNumber":77,"Velocity":54,"Duration":85169,"SoundDuration":85169,"Delta":266938112},{"NoteNumber":59,"Velocity":40,"Duration":170338,"SoundDuration":170338,"Delta":266938112},{"NoteNumber":79,"Velocity":55,"Duration":85169,"SoundDuration":85169,"Delta":267108450},{"NoteNumber":67,"Velocity":31,"Duration":170636,"SoundDuration":170636,"Delta":267108450},{"NoteNumber":81,"Velocity":56,"Duration":85616,"SoundDuration":85616,"Delta":267279087},{"NoteNumber":62,"Velocity":34,"Duration":171233,"SoundDuration":171233,"Delta":267279087},{"NoteNumber":83,"Velocity":58,"Duration":85767,"SoundDuration":85767,"Delta":267450320},{"NoteNumber":67,"Velocity":31,"Duration":171835,"SoundDuration":171835,"Delta":267450320},{"NoteNumber":84,"Velocity":60,"Duration":86068,"SoundDuration":86068,"Delta":267622155},{"NoteNumber":59,"Velocity":46,"Duration":172136,"SoundDuration":172136,"Delta":267622155},{"NoteNumber":86,"Velocity":61,"Duration":86525,"SoundDuration":86525,"Delta":267794292},{"NoteNumber":67,"Velocity":35,"Duration":173050,"SoundDuration":173050,"Delta":267794292},{"NoteNumber":88,"Velocity":62,"Duration":86525,"SoundDuration":86525,"Delta":267967342},{"NoteNumber":55,"Velocity":37,"Duration":173050,"SoundDuration":173050,"Delta":267967342},{"NoteNumber":89,"Velocity":63,"Duration":100000,"SoundDuration":100000,"Delta":268140393},{"NoteNumber":67,"Velocity":35,"Duration":199999,"SoundDuration":199999,"Delta":268140393},{"NoteNumber":87,"Velocity":79,"Duration":715052,"SoundDuration":715052,"Delta":268340393},{"NoteNumber":60,"Velocity":44,"Duration":178763,"SoundDuration":178763,"Delta":268340393},{"NoteNumber":67,"Velocity":37,"Duration":178763,"SoundDuration":178763,"Delta":268519156},{"NoteNumber":65,"Velocity":40,"Duration":178763,"SoundDuration":178763,"Delta":268697919},{"NoteNumber":67,"Velocity":37,"Duration":178763,"SoundDuration":178763,"Delta":268876682},{"NoteNumber":88,"Velocity":75,"Duration":357526,"SoundDuration":357526,"Delta":269055445},{"NoteNumber":60,"Velocity":44,"Duration":178763,"SoundDuration":178763,"Delta":269055445},{"NoteNumber":67,"Velocity":37,"Duration":178763,"SoundDuration":178763,"Delta":269234208},{"NoteNumber":64,"Velocity":40,"Duration":189607,"SoundDuration":189607,"Delta":269412971},{"NoteNumber":67,"Velocity":37,"Duration":211297,"SoundDuration":211297,"Delta":269602578},{"NoteNumber":70,"Velocity":64,"Duration":536295,"SoundDuration":536295,"Delta":269813876},{"NoteNumber":48,"Velocity":48,"Duration":140864,"SoundDuration":140864,"Delta":269813876},{"NoteNumber":52,"Velocity":43,"Duration":140864,"SoundDuration":140864,"Delta":269954741},{"NoteNumber":55,"Velocity":41,"Duration":140864,"SoundDuration":140864,"Delta":270095605},{"NoteNumber":60,"Velocity":46,"Duration":341102,"SoundDuration":341102,"Delta":270236470},{"NoteNumber":76,"Velocity":60,"Duration":113700,"SoundDuration":113700,"Delta":270350171},{"NoteNumber":79,"Velocity":60,"Duration":113700,"SoundDuration":113700,"Delta":270463872},{"NoteNumber":82,"Velocity":60,"Duration":113701,"SoundDuration":113701,"Delta":270577573},{"NoteNumber":79,"Velocity":58,"Duration":113700,"SoundDuration":113700,"Delta":270691274},{"NoteNumber":76,"Velocity":58,"Duration":113700,"SoundDuration":113700,"Delta":270804975},{"NoteNumber":79,"Velocity":60,"Duration":113700,"SoundDuration":113700,"Delta":270918676},{"NoteNumber":76,"Velocity":58,"Duration":114377,"SoundDuration":114377,"Delta":271032377},{"NoteNumber":70,"Velocity":58,"Duration":115074,"SoundDuration":115074,"Delta":271146754},{"NoteNumber":69,"Velocity":64,"Duration":469657,"SoundDuration":469657,"Delta":271261829},{"NoteNumber":41,"Velocity":48,"Duration":118652,"SoundDuration":118652,"Delta":271261829},{"NoteNumber":45,"Velocity":43,"Duration":118652,"SoundDuration":118652,"Delta":271380481},{"NoteNumber":48,"Velocity":41,"Duration":118652,"SoundDuration":118652,"Delta":271499134},{"NoteNumber":53,"Velocity":48,"Duration":341102,"SoundDuration":341102,"Delta":271617786},{"NoteNumber":72,"Velocity":60,"Duration":113700,"SoundDuration":113700,"Delta":271731487},{"NoteNumber":77,"Velocity":58,"Duration":113700,"SoundDuration":113700,"Delta":271845188},{"NoteNumber":81,"Velocity":60,"Duration":113701,"SoundDuration":113701,"Delta":271958889},{"NoteNumber":77,"Velocity":59,"Duration":113700,"SoundDuration":113700,"Delta":272072590},{"NoteNumber":72,"Velocity":59,"Duration":113700,"SoundDuration":113700,"Delta":272186291},{"NoteNumber":77,"Velocity":60,"Duration":113700,"SoundDuration":113700,"Delta":272299992},{"NoteNumber":72,"Velocity":59,"Duration":113700,"SoundDuration":113700,"Delta":272413693},{"NoteNumber":69,"Velocity":59,"Duration":120904,"SoundDuration":120904,"Delta":272527394},{"NoteNumber":67,"Velocity":64,"Duration":469657,"SoundDuration":469657,"Delta":272648298},{"NoteNumber":45,"Velocity":48,"Duration":118652,"SoundDuration":118652,"Delta":272648298},{"NoteNumber":49,"Velocity":43,"Duration":118652,"SoundDuration":118652,"Delta":272766950},{"NoteNumber":52,"Velocity":40,"Duration":118652,"SoundDuration":118652,"Delta":272885602},{"NoteNumber":57,"Velocity":48,"Duration":341102,"SoundDuration":341102,"Delta":273004255},{"NoteNumber":73,"Velocity":60,"Duration":113700,"SoundDuration":113700,"Delta":273117956},{"NoteNumber":76,"Velocity":58,"Duration":113700,"SoundDuration":113700,"Delta":273231657},{"NoteNumber":79,"Velocity":60,"Duration":113199,"SoundDuration":113199,"Delta":273345358},{"NoteNumber":76,"Velocity":58,"Duration":114382,"SoundDuration":114382,"Delta":273458557},{"NoteNumber":73,"Velocity":58,"Duration":115594,"SoundDuration":115594,"Delta":273572940},{"NoteNumber":76,"Velocity":60,"Duration":116837,"SoundDuration":116837,"Delta":273688534},{"NoteNumber":73,"Velocity":58,"Duration":117560,"SoundDuration":117560,"Delta":273805371},{"NoteNumber":67,"Velocity":58,"Duration":120904,"SoundDuration":120904,"Delta":273922931},{"NoteNumber":66,"Velocity":64,"Duration":471723,"SoundDuration":471723,"Delta":274043836},{"NoteNumber":50,"Velocity":48,"Duration":118652,"SoundDuration":118652,"Delta":274043836},{"NoteNumber":54,"Velocity":43,"Duration":118652,"SoundDuration":118652,"Delta":274162488},{"NoteNumber":57,"Velocity":40,"Duration":118652,"SoundDuration":118652,"Delta":274281140},{"NoteNumber":62,"Velocity":48,"Duration":347302,"SoundDuration":347302,"Delta":274399792},{"NoteNumber":69,"Velocity":60,"Duration":115767,"SoundDuration":115767,"Delta":274515560},{"NoteNumber":74,"Velocity":57,"Duration":115767,"SoundDuration":115767,"Delta":274631327},{"NoteNumber":78,"Velocity":60,"Duration":113700,"SoundDuration":113700,"Delta":274747095},{"NoteNumber":74,"Velocity":58,"Duration":113700,"SoundDuration":113700,"Delta":274860796},{"NoteNumber":69,"Velocity":58,"Duration":113700,"SoundDuration":113700,"Delta":274974497},{"NoteNumber":74,"Velocity":60,"Duration":113701,"SoundDuration":113701,"Delta":275088198},{"NoteNumber":69,"Velocity":58,"Duration":113700,"SoundDuration":113700,"Delta":275201899},{"NoteNumber":66,"Velocity":58,"Duration":120904,"SoundDuration":120904,"Delta":275315600},{"NoteNumber":65,"Velocity":64,"Duration":471031,"SoundDuration":471031,"Delta":275436504},{"NoteNumber":47,"Velocity":48,"Duration":118652,"SoundDuration":118652,"Delta":275436504},{"NoteNumber":50,"Velocity":43,"Duration":118652,"SoundDuration":118652,"Delta":275555156},{"NoteNumber":55,"Velocity":40,"Duration":118652,"SoundDuration":118652,"Delta":275673808},{"NoteNumber":59,"Velocity":48,"Duration":345224,"SoundDuration":345224,"Delta":275792461},{"NoteNumber":71,"Velocity":60,"Duration":115074,"SoundDuration":115074,"Delta":275907535},{"NoteNumber":74,"Velocity":58,"Duration":115074,"SoundDuration":115074,"Delta":276022610},{"NoteNumber":77,"Velocity":60,"Duration":115074,"SoundDuration":115074,"Delta":276137685},{"NoteNumber":74,"Velocity":58,"Duration":115074,"SoundDuration":115074,"Delta":276252760},{"NoteNumber":71,"Velocity":58,"Duration":115074,"SoundDuration":115074,"Delta":276367835},{"NoteNumber":74,"Velocity":60,"Duration":115074,"SoundDuration":115074,"Delta":276482910},{"NoteNumber":71,"Velocity":58,"Duration":115074,"SoundDuration":115074,"Delta":276597984},{"NoteNumber":65,"Velocity":59,"Duration":120904,"SoundDuration":120904,"Delta":276713059},{"NoteNumber":64,"Velocity":64,"Duration":469657,"SoundDuration":469657,"Delta":276833964},{"NoteNumber":48,"Velocity":48,"Duration":118652,"SoundDuration":118652,"Delta":276833964},{"NoteNumber":52,"Velocity":43,"Duration":118652,"SoundDuration":118652,"Delta":276952616},{"NoteNumber":55,"Velocity":40,"Duration":118652,"SoundDuration":118652,"Delta":277071268},{"NoteNumber":60,"Velocity":48,"Duration":341102,"SoundDuration":341102,"Delta":277189920},{"NoteNumber":67,"Velocity":60,"Duration":113700,"SoundDuration":113700,"Delta":277303621},{"NoteNumber":72,"Velocity":60,"Duration":113700,"SoundDuration":113700,"Delta":277417322},{"NoteNumber":76,"Velocity":60,"Duration":113701,"SoundDuration":113701,"Delta":277531023},{"NoteNumber":72,"Velocity":58,"Duration":113700,"SoundDuration":113700,"Delta":277644724},{"NoteNumber":67,"Velocity":58,"Duration":113700,"SoundDuration":113700,"Delta":277758425},{"NoteNumber":72,"Velocity":60,"Duration":113700,"SoundDuration":113700,"Delta":277872126},{"NoteNumber":67,"Velocity":57,"Duration":113700,"SoundDuration":113700,"Delta":277985827},{"NoteNumber":64,"Velocity":57,"Duration":120904,"SoundDuration":120904,"Delta":278099528},{"NoteNumber":53,"Velocity":50,"Duration":341102,"SoundDuration":341102,"Delta":278220432},{"NoteNumber":57,"Velocity":50,"Duration":341102,"SoundDuration":341102,"Delta":278220432},{"NoteNumber":62,"Velocity":60,"Duration":113700,"SoundDuration":113700,"Delta":278334133},{"NoteNumber":69,"Velocity":58,"Duration":113700,"SoundDuration":113700,"Delta":278447834},{"NoteNumber":74,"Velocity":58,"Duration":113701,"SoundDuration":113701,"Delta":278561535},{"NoteNumber":69,"Velocity":60,"Duration":113700,"SoundDuration":113700,"Delta":278675236},{"NoteNumber":62,"Velocity":58,"Duration":124843,"SoundDuration":124843,"Delta":278788937},{"NoteNumber":57,"Velocity":52,"Duration":341102,"SoundDuration":341102,"Delta":278913781},{"NoteNumber":54,"Velocity":52,"Duration":341102,"SoundDuration":341102,"Delta":278913781},{"NoteNumber":62,"Velocity":60,"Duration":113700,"SoundDuration":113700,"Delta":279027482},{"NoteNumber":69,"Velocity":57,"Duration":113700,"SoundDuration":113700,"Delta":279141183},{"NoteNumber":72,"Velocity":60,"Duration":113701,"SoundDuration":113701,"Delta":279254884},{"NoteNumber":69,"Velocity":58,"Duration":124418,"SoundDuration":124418,"Delta":279368585},{"NoteNumber":62,"Velocity":58,"Duration":135135,"SoundDuration":135135,"Delta":279493004},{"NoteNumber":71,"Velocity":63,"Duration":351576,"SoundDuration":351576,"Delta":279628139},{"NoteNumber":55,"Velocity":57,"Duration":87894,"SoundDuration":87894,"Delta":279628139},{"NoteNumber":67,"Velocity":40,"Duration":175788,"SoundDuration":175788,"Delta":279803927},{"NoteNumber":66,"Velocity":44,"Duration":175787,"SoundDuration":175787,"Delta":279979715},{"NoteNumber":67,"Velocity":40,"Duration":176886,"SoundDuration":176886,"Delta":280155503},{"NoteNumber":66,"Velocity":44,"Duration":182926,"SoundDuration":182926,"Delta":280332389},{"NoteNumber":79,"Velocity":62,"Duration":91463,"SoundDuration":91463,"Delta":280515316},{"NoteNumber":67,"Velocity":41,"Duration":182926,"SoundDuration":182926,"Delta":280515316},{"NoteNumber":81,"Velocity":64,"Duration":96153,"SoundDuration":96153,"Delta":280698243},{"NoteNumber":65,"Velocity":44,"Duration":192307,"SoundDuration":192307,"Delta":280698243},{"NoteNumber":83,"Velocity":68,"Duration":104166,"SoundDuration":104166,"Delta":280890550},{"NoteNumber":67,"Velocity":40,"Duration":208333,"SoundDuration":208333,"Delta":280890550},{"NoteNumber":84,"Velocity":64,"Duration":889983,"SoundDuration":889983,"Delta":281098884},{"NoteNumber":64,"Velocity":49,"Duration":179082,"SoundDuration":179082,"Delta":281098884},{"NoteNumber":67,"Velocity":40,"Duration":179082,"SoundDuration":179082,"Delta":281277967},{"NoteNumber":60,"Velocity":35,"Duration":179082,"SoundDuration":179082,"Delta":281457050},{"NoteNumber":67,"Velocity":30,"Duration":179083,"SoundDuration":179083,"Delta":281636133},{"NoteNumber":64,"Velocity":37,"Duration":173651,"SoundDuration":173651,"Delta":281815216},{"NoteNumber":83,"Velocity":50,"Duration":173651,"SoundDuration":173651,"Delta":281988867},{"NoteNumber":67,"Velocity":31,"Duration":173651,"SoundDuration":173651,"Delta":281988867},{"NoteNumber":81,"Velocity":51,"Duration":173651,"SoundDuration":173651,"Delta":282162518},{"NoteNumber":60,"Velocity":35,"Duration":173651,"SoundDuration":173651,"Delta":282162518},{"NoteNumber":79,"Velocity":50,"Duration":166415,"SoundDuration":166415,"Delta":282336169},{"NoteNumber":67,"Velocity":31,"Duration":173651,"SoundDuration":173651,"Delta":282336169},{"NoteNumber":79,"Velocity":53,"Duration":173651,"SoundDuration":173651,"Delta":282509821},{"NoteNumber":62,"Velocity":37,"Duration":173651,"SoundDuration":173651,"Delta":282509821},{"NoteNumber":77,"Velocity":50,"Duration":173651,"SoundDuration":173651,"Delta":282683472},{"NoteNumber":67,"Velocity":34,"Duration":173651,"SoundDuration":173651,"Delta":282683472},{"NoteNumber":76,"Velocity":51,"Duration":173651,"SoundDuration":173651,"Delta":282857123},{"NoteNumber":60,"Velocity":37,"Duration":173651,"SoundDuration":173651,"Delta":282857123},{"NoteNumber":74,"Velocity":50,"Duration":173651,"SoundDuration":173651,"Delta":283030774},{"NoteNumber":67,"Velocity":34,"Duration":173651,"SoundDuration":173651,"Delta":283030774},{"NoteNumber":79,"Velocity":54,"Duration":85275,"SoundDuration":85275,"Delta":283204426},{"NoteNumber":59,"Velocity":37,"Duration":170551,"SoundDuration":170551,"Delta":283204426},{"NoteNumber":67,"Velocity":34,"Duration":170551,"SoundDuration":170551,"Delta":283374977},{"NoteNumber":77,"Velocity":51,"Duration":85275,"SoundDuration":85275,"Delta":283545529},{"NoteNumber":55,"Velocity":37,"Duration":170551,"SoundDuration":170551,"Delta":283545529},{"NoteNumber":67,"Velocity":34,"Duration":181356,"SoundDuration":181356,"Delta":283716080},{"NoteNumber":75,"Velocity":53,"Duration":349446,"SoundDuration":349446,"Delta":283897437},{"NoteNumber":60,"Velocity":38,"Duration":174723,"SoundDuration":174723,"Delta":283897437},{"NoteNumber":67,"Velocity":31,"Duration":174723,"SoundDuration":174723,"Delta":284072160},{"NoteNumber":76,"Velocity":51,"Duration":349446,"SoundDuration":349446,"Delta":284246883},{"NoteNumber":66,"Velocity":34,"Duration":174723,"SoundDuration":174723,"Delta":284246883},{"NoteNumber":67,"Velocity":31,"Duration":174723,"SoundDuration":174723,"Delta":284421606},{"NoteNumber":66,"Velocity":39,"Duration":170551,"SoundDuration":170551,"Delta":284596330},{"NoteNumber":67,"Velocity":41,"Duration":170551,"SoundDuration":170551,"Delta":284766881},{"NoteNumber":69,"Velocity":44,"Duration":170551,"SoundDuration":170551,"Delta":284937433},{"NoteNumber":67,"Velocity":41,"Duration":170551,"SoundDuration":170551,"Delta":285107984},{"NoteNumber":65,"Velocity":49,"Duration":170551,"SoundDuration":170551,"Delta":285278536},{"NoteNumber":67,"Velocity":47,"Duration":170551,"SoundDuration":170551,"Delta":285449087},{"NoteNumber":64,"Velocity":49,"Duration":170551,"SoundDuration":170551,"Delta":285619639},{"NoteNumber":79,"Velocity":54,"Duration":85275,"SoundDuration":85275,"Delta":285790190},{"NoteNumber":67,"Velocity":45,"Duration":170551,"SoundDuration":170551,"Delta":285790190},{"NoteNumber":80,"Velocity":57,"Duration":88235,"SoundDuration":88235,"Delta":285960742},{"NoteNumber":65,"Velocity":49,"Duration":176470,"SoundDuration":176470,"Delta":285960742},{"NoteNumber":81,"Velocity":61,"Duration":88235,"SoundDuration":88235,"Delta":286137212},{"NoteNumber":67,"Velocity":46,"Duration":176470,"SoundDuration":176470,"Delta":286137212},{"NoteNumber":82,"Velocity":64,"Duration":94936,"SoundDuration":94936,"Delta":286313683},{"NoteNumber":62,"Velocity":49,"Duration":189873,"SoundDuration":189873,"Delta":286313683},{"NoteNumber":83,"Velocity":67,"Duration":98684,"SoundDuration":98684,"Delta":286503556},{"NoteNumber":67,"Velocity":46,"Duration":192239,"SoundDuration":192239,"Delta":286503556},{"NoteNumber":84,"Velocity":73,"Duration":889983,"SoundDuration":889983,"Delta":286695795},{"NoteNumber":64,"Velocity":49,"Duration":179082,"SoundDuration":179082,"Delta":286695795},{"NoteNumber":67,"Velocity":41,"Duration":179082,"SoundDuration":179082,"Delta":286874878},{"NoteNumber":60,"Velocity":35,"Duration":179082,"SoundDuration":179082,"Delta":287053961},{"NoteNumber":67,"Velocity":31,"Duration":179083,"SoundDuration":179083,"Delta":287233044},{"NoteNumber":64,"Velocity":37,"Duration":173651,"SoundDuration":173651,"Delta":287412127},{"NoteNumber":83,"Velocity":48,"Duration":173651,"SoundDuration":173651,"Delta":287585779},{"NoteNumber":67,"Velocity":31,"Duration":173651,"SoundDuration":173651,"Delta":287585779},{"NoteNumber":81,"Velocity":50,"Duration":173651,"SoundDuration":173651,"Delta":287759430},{"NoteNumber":60,"Velocity":35,"Duration":173651,"SoundDuration":173651,"Delta":287759430},{"NoteNumber":79,"Velocity":47,"Duration":167862,"SoundDuration":167862,"Delta":287933081},{"NoteNumber":67,"Velocity":31,"Duration":173651,"SoundDuration":173651,"Delta":287933081},{"NoteNumber":79,"Velocity":53,"Duration":173651,"SoundDuration":173651,"Delta":288106732},{"NoteNumber":62,"Velocity":37,"Duration":173651,"SoundDuration":173651,"Delta":288106732},{"NoteNumber":77,"Velocity":47,"Duration":173651,"SoundDuration":173651,"Delta":288280384},{"NoteNumber":67,"Velocity":34,"Duration":173651,"SoundDuration":173651,"Delta":288280384},{"NoteNumber":76,"Velocity":50,"Duration":173651,"SoundDuration":173651,"Delta":288454035},{"NoteNumber":60,"Velocity":37,"Duration":173651,"SoundDuration":173651,"Delta":288454035},{"NoteNumber":74,"Velocity":48,"Duration":173651,"SoundDuration":173651,"Delta":288627686},{"NoteNumber":67,"Velocity":34,"Duration":173651,"SoundDuration":173651,"Delta":288627686},{"NoteNumber":79,"Velocity":54,"Duration":85275,"SoundDuration":85275,"Delta":288801337},{"NoteNumber":59,"Velocity":37,"Duration":170551,"SoundDuration":170551,"Delta":288801337},{"NoteNumber":67,"Velocity":34,"Duration":170551,"SoundDuration":170551,"Delta":288971889},{"NoteNumber":77,"Velocity":51,"Duration":85275,"SoundDuration":85275,"Delta":289142440},{"NoteNumber":55,"Velocity":37,"Duration":170551,"SoundDuration":170551,"Delta":289142440},{"NoteNumber":67,"Velocity":34,"Duration":181356,"SoundDuration":181356,"Delta":289312992},{"NoteNumber":76,"Velocity":51,"Duration":362712,"SoundDuration":362712,"Delta":289494348},{"NoteNumber":60,"Velocity":34,"Duration":181356,"SoundDuration":181356,"Delta":289494348},{"NoteNumber":67,"Velocity":32,"Duration":181356,"SoundDuration":181356,"Delta":289675705},{"NoteNumber":64,"Velocity":32,"Duration":170551,"SoundDuration":170551,"Delta":289857061},{"NoteNumber":67,"Velocity":32,"Duration":170551,"SoundDuration":170551,"Delta":290027613},{"NoteNumber":81,"Velocity":63,"Duration":85275,"SoundDuration":85275,"Delta":290198164},{"NoteNumber":60,"Velocity":37,"Duration":170551,"SoundDuration":170551,"Delta":290198164},{"NoteNumber":83,"Velocity":56,"Duration":85275,"SoundDuration":85275,"Delta":290283440},{"NoteNumber":81,"Velocity":62,"Duration":85275,"SoundDuration":85275,"Delta":290368716},{"NoteNumber":69,"Velocity":29,"Duration":170551,"SoundDuration":170551,"Delta":290368716},{"NoteNumber":83,"Velocity":61,"Duration":85275,"SoundDuration":85275,"Delta":290453992},{"NoteNumber":84,"Velocity":68,"Duration":170551,"SoundDuration":170551,"Delta":290539267},{"NoteNumber":65,"Velocity":32,"Duration":170551,"SoundDuration":170551,"Delta":290539267},{"NoteNumber":84,"Velocity":66,"Duration":85275,"SoundDuration":85275,"Delta":290709819},{"NoteNumber":69,"Velocity":29,"Duration":170551,"SoundDuration":170551,"Delta":290709819},{"NoteNumber":84,"Velocity":64,"Duration":341103,"SoundDuration":341103,"Delta":290880370},{"NoteNumber":60,"Velocity":32,"Duration":170551,"SoundDuration":170551,"Delta":290880370},{"NoteNumber":67,"Velocity":30,"Duration":170551,"SoundDuration":170551,"Delta":291050922},{"NoteNumber":64,"Velocity":32,"Duration":170551,"SoundDuration":170551,"Delta":291221473},{"NoteNumber":67,"Velocity":31,"Duration":170551,"SoundDuration":170551,"Delta":291392025},{"NoteNumber":86,"Velocity":68,"Duration":85275,"SoundDuration":85275,"Delta":291562576},{"NoteNumber":58,"Velocity":32,"Duration":170551,"SoundDuration":170551,"Delta":291562576},{"NoteNumber":88,"Velocity":59,"Duration":85275,"SoundDuration":85275,"Delta":291647852},{"NoteNumber":86,"Velocity":65,"Duration":85275,"SoundDuration":85275,"Delta":291733128},{"NoteNumber":65,"Velocity":30,"Duration":170551,"SoundDuration":170551,"Delta":291733128},{"NoteNumber":88,"Velocity":68,"Duration":85275,"SoundDuration":85275,"Delta":291818404},{"NoteNumber":89,"Velocity":68,"Duration":170551,"SoundDuration":170551,"Delta":291903679},{"NoteNumber":62,"Velocity":32,"Duration":170551,"SoundDuration":170551,"Delta":291903679},{"NoteNumber":89,"Velocity":64,"Duration":85275,"SoundDuration":85275,"Delta":292074231},{"NoteNumber":65,"Velocity":30,"Duration":170551,"SoundDuration":170551,"Delta":292074231},{"NoteNumber":89,"Velocity":64,"Duration":341102,"SoundDuration":341102,"Delta":292244782},{"NoteNumber":57,"Velocity":32,"Duration":170551,"SoundDuration":170551,"Delta":292244782},{"NoteNumber":65,"Velocity":30,"Duration":170551,"SoundDuration":170551,"Delta":292415334},{"NoteNumber":60,"Velocity":32,"Duration":170551,"SoundDuration":170551,"Delta":292585885},{"NoteNumber":65,"Velocity":30,"Duration":179082,"SoundDuration":179082,"Delta":292756437},{"NoteNumber":77,"Velocity":62,"Duration":85275,"SoundDuration":85275,"Delta":292935520},{"NoteNumber":53,"Velocity":40,"Duration":170551,"SoundDuration":170551,"Delta":292935520},{"NoteNumber":79,"Velocity":54,"Duration":85275,"SoundDuration":85275,"Delta":293020796},{"NoteNumber":77,"Velocity":59,"Duration":85275,"SoundDuration":85275,"Delta":293106071},{"NoteNumber":62,"Velocity":34,"Duration":170551,"SoundDuration":170551,"Delta":293106071},{"NoteNumber":79,"Velocity":56,"Duration":85275,"SoundDuration":85275,"Delta":293191347},{"NoteNumber":81,"Velocity":66,"Duration":170551,"SoundDuration":170551,"Delta":293276623},{"NoteNumber":57,"Velocity":40,"Duration":170551,"SoundDuration":170551,"Delta":293276623},{"NoteNumber":81,"Velocity":60,"Duration":85275,"SoundDuration":85275,"Delta":293447174},{"NoteNumber":62,"Velocity":33,"Duration":170551,"SoundDuration":170551,"Delta":293447174},{"NoteNumber":81,"Velocity":60,"Duration":170551,"SoundDuration":170551,"Delta":293617726},{"NoteNumber":55,"Velocity":39,"Duration":170551,"SoundDuration":170551,"Delta":293617726},{"NoteNumber":79,"Velocity":61,"Duration":170551,"SoundDuration":170551,"Delta":293788277},{"NoteNumber":64,"Velocity":34,"Duration":170551,"SoundDuration":170551,"Delta":293788277},{"NoteNumber":77,"Velocity":56,"Duration":85275,"SoundDuration":85275,"Delta":293958829},{"NoteNumber":60,"Velocity":39,"Duration":170551,"SoundDuration":170551,"Delta":293958829},{"NoteNumber":76,"Velocity":56,"Duration":85275,"SoundDuration":85275,"Delta":294129380},{"NoteNumber":64,"Velocity":34,"Duration":170551,"SoundDuration":170551,"Delta":294129380},{"NoteNumber":74,"Velocity":56,"Duration":168539,"SoundDuration":168539,"Delta":294299932},{"NoteNumber":55,"Velocity":39,"Duration":168539,"SoundDuration":168539,"Delta":294299932},{"NoteNumber":65,"Velocity":34,"Duration":168539,"SoundDuration":168539,"Delta":294468471},{"NoteNumber":79,"Velocity":56,"Duration":168539,"SoundDuration":168539,"Delta":294637010},{"NoteNumber":59,"Velocity":38,"Duration":168539,"SoundDuration":168539,"Delta":294637010},{"NoteNumber":65,"Velocity":33,"Duration":188513,"SoundDuration":188513,"Delta":294805550},{"NoteNumber":77,"Velocity":62,"Duration":347302,"SoundDuration":347302,"Delta":294994063},{"NoteNumber":48,"Velocity":40,"Duration":173651,"SoundDuration":173651,"Delta":294994063},{"NoteNumber":55,"Velocity":35,"Duration":173651,"SoundDuration":173651,"Delta":295167714},{"NoteNumber":76,"Velocity":58,"Duration":353852,"SoundDuration":353852,"Delta":295341365},{"NoteNumber":52,"Velocity":40,"Duration":173651,"SoundDuration":173651,"Delta":295341365},{"NoteNumber":55,"Velocity":34,"Duration":180201,"SoundDuration":180201,"Delta":295515017},{"NoteNumber":69,"Velocity":57,"Duration":85275,"SoundDuration":85275,"Delta":295695218},{"NoteNumber":48,"Velocity":32,"Duration":170551,"SoundDuration":170551,"Delta":295695218},{"NoteNumber":71,"Velocity":60,"Duration":85275,"SoundDuration":85275,"Delta":295780494},{"NoteNumber":69,"Velocity":57,"Duration":85275,"SoundDuration":85275,"Delta":295865770},{"NoteNumber":57,"Velocity":30,"Duration":170551,"SoundDuration":170551,"Delta":295865770},{"NoteNumber":71,"Velocity":61,"Duration":85275,"SoundDuration":85275,"Delta":295951046},{"NoteNumber":72,"Velocity":66,"Duration":170551,"SoundDuration":170551,"Delta":296036321},{"NoteNumber":53,"Velocity":32,"Duration":170551,"SoundDuration":170551,"Delta":296036321},{"NoteNumber":72,"Velocity":60,"Duration":85275,"SoundDuration":85275,"Delta":296206873},{"NoteNumber":57,"Velocity":30,"Duration":170551,"SoundDuration":170551,"Delta":296206873},{"NoteNumber":72,"Velocity":60,"Duration":341102,"SoundDuration":341102,"Delta":296377424},{"NoteNumber":48,"Velocity":32,"Duration":170551,"SoundDuration":170551,"Delta":296377424},{"NoteNumber":55,"Velocity":30,"Duration":170551,"SoundDuration":170551,"Delta":296547976},{"NoteNumber":52,"Velocity":32,"Duration":170551,"SoundDuration":170551,"Delta":296718527},{"NoteNumber":55,"Velocity":30,"Duration":170551,"SoundDuration":170551,"Delta":296889079},{"NoteNumber":74,"Velocity":57,"Duration":85275,"SoundDuration":85275,"Delta":297059630},{"NoteNumber":46,"Velocity":32,"Duration":170551,"SoundDuration":170551,"Delta":297059630},{"NoteNumber":76,"Velocity":60,"Duration":85275,"SoundDuration":85275,"Delta":297144906},{"NoteNumber":74,"Velocity":57,"Duration":85275,"SoundDuration":85275,"Delta":297230182},{"NoteNumber":53,"Velocity":29,"Duration":170551,"SoundDuration":170551,"Delta":297230182},{"NoteNumber":76,"Velocity":64,"Duration":85275,"SoundDuration":85275,"Delta":297315458},{"NoteNumber":77,"Velocity":66,"Duration":179082,"SoundDuration":179082,"Delta":297400733},{"NoteNumber":50,"Velocity":32,"Duration":179082,"SoundDuration":179082,"Delta":297400733},{"NoteNumber":77,"Velocity":60,"Duration":89541,"SoundDuration":89541,"Delta":297579816},{"NoteNumber":53,"Velocity":29,"Duration":179082,"SoundDuration":179082,"Delta":297579816},{"NoteNumber":77,"Velocity":60,"Duration":341102,"SoundDuration":341102,"Delta":297758899},{"NoteNumber":45,"Velocity":34,"Duration":170551,"SoundDuration":170551,"Delta":297758899},{"NoteNumber":53,"Velocity":30,"Duration":170551,"SoundDuration":170551,"Delta":297929451},{"NoteNumber":48,"Velocity":33,"Duration":170551,"SoundDuration":170551,"Delta":298100002},{"NoteNumber":53,"Velocity":29,"Duration":179082,"SoundDuration":179082,"Delta":298270554},{"NoteNumber":77,"Velocity":57,"Duration":89541,"SoundDuration":89541,"Delta":298449637},{"NoteNumber":41,"Velocity":41,"Duration":179082,"SoundDuration":179082,"Delta":298449637},{"NoteNumber":79,"Velocity":60,"Duration":89541,"SoundDuration":89541,"Delta":298539178},{"NoteNumber":77,"Velocity":57,"Duration":89541,"SoundDuration":89541,"Delta":298628720},{"NoteNumber":50,"Velocity":38,"Duration":179082,"SoundDuration":179082,"Delta":298628720},{"NoteNumber":79,"Velocity":68,"Duration":89541,"SoundDuration":89541,"Delta":298718261},{"NoteNumber":81,"Velocity":64,"Duration":179083,"SoundDuration":179083,"Delta":298807803},{"NoteNumber":45,"Velocity":40,"Duration":179083,"SoundDuration":179083,"Delta":298807803},{"NoteNumber":81,"Velocity":61,"Duration":89541,"SoundDuration":89541,"Delta":298986886},{"NoteNumber":50,"Velocity":37,"Duration":179082,"SoundDuration":179082,"Delta":298986886},{"NoteNumber":81,"Velocity":62,"Duration":179082,"SoundDuration":179082,"Delta":299165969},{"NoteNumber":43,"Velocity":40,"Duration":179082,"SoundDuration":179082,"Delta":299165969},{"NoteNumber":79,"Velocity":61,"Duration":179082,"SoundDuration":179082,"Delta":299345052},{"NoteNumber":52,"Velocity":37,"Duration":179082,"SoundDuration":179082,"Delta":299345052},{"NoteNumber":77,"Velocity":61,"Duration":89541,"SoundDuration":89541,"Delta":299524135},{"NoteNumber":48,"Velocity":39,"Duration":179082,"SoundDuration":179082,"Delta":299524135},{"NoteNumber":76,"Velocity":61,"Duration":89541,"SoundDuration":89541,"Delta":299703218},{"NoteNumber":52,"Velocity":32,"Duration":179082,"SoundDuration":179082,"Delta":299703218},{"NoteNumber":76,"Velocity":62,"Duration":179083,"SoundDuration":179083,"Delta":299882301},{"NoteNumber":43,"Velocity":38,"Duration":179083,"SoundDuration":179083,"Delta":299882301},{"NoteNumber":74,"Velocity":60,"Duration":179082,"SoundDuration":179082,"Delta":300061384},{"NoteNumber":53,"Velocity":33,"Duration":179082,"SoundDuration":179082,"Delta":300061384},{"NoteNumber":72,"Velocity":61,"Duration":89541,"SoundDuration":89541,"Delta":300240467},{"NoteNumber":50,"Velocity":38,"Duration":179082,"SoundDuration":179082,"Delta":300240467},{"NoteNumber":71,"Velocity":59,"Duration":102739,"SoundDuration":102739,"Delta":300419550},{"NoteNumber":53,"Velocity":32,"Duration":205479,"SoundDuration":205479,"Delta":300419550},{"NoteNumber":79,"Velocity":78,"Duration":463070,"SoundDuration":463070,"Delta":300625029},{"NoteNumber":48,"Velocity":38,"Duration":347302,"SoundDuration":347302,"Delta":300972332},{"NoteNumber":52,"Velocity":38,"Duration":347302,"SoundDuration":347302,"Delta":300972332},{"NoteNumber":76,"Velocity":61,"Duration":115767,"SoundDuration":115767,"Delta":301088099},{"NoteNumber":72,"Velocity":61,"Duration":115767,"SoundDuration":115767,"Delta":301203867},{"NoteNumber":71,"Velocity":63,"Duration":115767,"SoundDuration":115767,"Delta":301319634},{"NoteNumber":50,"Velocity":44,"Duration":347302,"SoundDuration":347302,"Delta":301319634},{"NoteNumber":53,"Velocity":44,"Duration":347302,"SoundDuration":347302,"Delta":301319634},{"NoteNumber":74,"Velocity":63,"Duration":115767,"SoundDuration":115767,"Delta":301435402},{"NoteNumber":67,"Velocity":61,"Duration":115767,"SoundDuration":115767,"Delta":301551169},{"NoteNumber":72,"Velocity":63,"Duration":115767,"SoundDuration":115767,"Delta":301666937},{"NoteNumber":55,"Velocity":49,"Duration":363404,"SoundDuration":363404,"Delta":301666937},{"NoteNumber":52,"Velocity":49,"Duration":363404,"SoundDuration":363404,"Delta":301666937},{"NoteNumber":76,"Velocity":61,"Duration":121134,"SoundDuration":121134,"Delta":301782704},{"NoteNumber":67,"Velocity":59,"Duration":126502,"SoundDuration":126502,"Delta":301903839},{"NoteNumber":74,"Velocity":77,"Duration":462550,"SoundDuration":462550,"Delta":302030341},{"NoteNumber":43,"Velocity":37,"Duration":348744,"SoundDuration":348744,"Delta":302377644},{"NoteNumber":47,"Velocity":37,"Duration":348744,"SoundDuration":348744,"Delta":302377644},{"NoteNumber":71,"Velocity":55,"Duration":116124,"SoundDuration":116124,"Delta":302492892},{"NoteNumber":67,"Velocity":52,"Duration":117371,"SoundDuration":117371,"Delta":302609017},{"NoteNumber":66,"Velocity":57,"Duration":118281,"SoundDuration":118281,"Delta":302726388},{"NoteNumber":45,"Velocity":40,"Duration":358375,"SoundDuration":358375,"Delta":302726388},{"NoteNumber":48,"Velocity":40,"Duration":358375,"SoundDuration":358375,"Delta":302726388},{"NoteNumber":67,"Velocity":54,"Duration":119575,"SoundDuration":119575,"Delta":302844670},{"NoteNumber":62,"Velocity":54,"Duration":120519,"SoundDuration":120519,"Delta":302964245},{"NoteNumber":65,"Velocity":55,"Duration":121863,"SoundDuration":121863,"Delta":303084764},{"NoteNumber":47,"Velocity":44,"Duration":397570,"SoundDuration":397570,"Delta":303084764},{"NoteNumber":50,"Velocity":44,"Duration":397570,"SoundDuration":397570,"Delta":303084764},{"NoteNumber":67,"Velocity":53,"Duration":132850,"SoundDuration":132850,"Delta":303206627},{"NoteNumber":62,"Velocity":53,"Duration":142857,"SoundDuration":142857,"Delta":303339478},{"NoteNumber":79,"Velocity":75,"Duration":463070,"SoundDuration":463070,"Delta":303482335},{"NoteNumber":48,"Velocity":38,"Duration":347302,"SoundDuration":347302,"Delta":303829637},{"NoteNumber":52,"Velocity":38,"Duration":347302,"SoundDuration":347302,"Delta":303829637},{"NoteNumber":76,"Velocity":61,"Duration":115767,"SoundDuration":115767,"Delta":303945405},{"NoteNumber":72,"Velocity":60,"Duration":115767,"SoundDuration":115767,"Delta":304061172},{"NoteNumber":71,"Velocity":63,"Duration":115767,"SoundDuration":115767,"Delta":304176940},{"NoteNumber":50,"Velocity":44,"Duration":347302,"SoundDuration":347302,"Delta":304176940},{"NoteNumber":53,"Velocity":44,"Duration":347302,"SoundDuration":347302,"Delta":304176940},{"NoteNumber":74,"Velocity":63,"Duration":115767,"SoundDuration":115767,"Delta":304292707},{"NoteNumber":67,"Velocity":61,"Duration":115767,"SoundDuration":115767,"Delta":304408475},{"NoteNumber":72,"Velocity":63,"Duration":115767,"SoundDuration":115767,"Delta":304524242},{"NoteNumber":55,"Velocity":49,"Duration":363404,"SoundDuration":363404,"Delta":304524242},{"NoteNumber":52,"Velocity":49,"Duration":363404,"SoundDuration":363404,"Delta":304524242},{"NoteNumber":76,"Velocity":61,"Duration":121134,"SoundDuration":121134,"Delta":304640010},{"NoteNumber":67,"Velocity":61,"Duration":126502,"SoundDuration":126502,"Delta":304761145},{"NoteNumber":74,"Velocity":77,"Duration":462550,"SoundDuration":462550,"Delta":304887647},{"NoteNumber":43,"Velocity":37,"Duration":348744,"SoundDuration":348744,"Delta":305234949},{"NoteNumber":47,"Velocity":37,"Duration":348744,"SoundDuration":348744,"Delta":305234949},{"NoteNumber":71,"Velocity":55,"Duration":116124,"SoundDuration":116124,"Delta":305350197},{"NoteNumber":67,"Velocity":55,"Duration":117371,"SoundDuration":117371,"Delta":305466322},{"NoteNumber":66,"Velocity":57,"Duration":118281,"SoundDuration":118281,"Delta":305583694},{"NoteNumber":45,"Velocity":40,"Duration":358375,"SoundDuration":358375,"Delta":305583694},{"NoteNumber":48,"Velocity":40,"Duration":358375,"SoundDuration":358375,"Delta":305583694},{"NoteNumber":67,"Velocity":54,"Duration":119575,"SoundDuration":119575,"Delta":305701975},{"NoteNumber":62,"Velocity":54,"Duration":120519,"SoundDuration":120519,"Delta":305821550},{"NoteNumber":65,"Velocity":55,"Duration":121863,"SoundDuration":121863,"Delta":305942070},{"NoteNumber":47,"Velocity":44,"Duration":382276,"SoundDuration":382276,"Delta":305942070},{"NoteNumber":50,"Velocity":44,"Duration":382276,"SoundDuration":382276,"Delta":305942070},{"NoteNumber":67,"Velocity":53,"Duration":127752,"SoundDuration":127752,"Delta":306063933},{"NoteNumber":62,"Velocity":53,"Duration":132661,"SoundDuration":132661,"Delta":306191685},{"NoteNumber":64,"Velocity":53,"Duration":127339,"SoundDuration":127339,"Delta":306324347},{"NoteNumber":48,"Velocity":44,"Duration":708846,"SoundDuration":708846,"Delta":306324347},{"NoteNumber":60,"Velocity":54,"Duration":121207,"SoundDuration":121207,"Delta":306451686},{"NoteNumber":64,"Velocity":56,"Duration":115074,"SoundDuration":115074,"Delta":306572894},{"NoteNumber":67,"Velocity":57,"Duration":115074,"SoundDuration":115074,"Delta":306687969},{"NoteNumber":64,"Velocity":58,"Duration":115074,"SoundDuration":115074,"Delta":306803043},{"NoteNumber":67,"Velocity":61,"Duration":115074,"SoundDuration":115074,"Delta":306918118},{"NoteNumber":72,"Velocity":61,"Duration":115074,"SoundDuration":115074,"Delta":307033193},{"NoteNumber":67,"Velocity":63,"Duration":115074,"SoundDuration":115074,"Delta":307148268},{"NoteNumber":72,"Velocity":64,"Duration":115074,"SoundDuration":115074,"Delta":307263343},{"NoteNumber":76,"Velocity":64,"Duration":115074,"SoundDuration":115074,"Delta":307378418},{"NoteNumber":72,"Velocity":67,"Duration":115074,"SoundDuration":115074,"Delta":307493492},{"NoteNumber":76,"Velocity":68,"Duration":115074,"SoundDuration":115074,"Delta":307608567},{"NoteNumber":79,"Velocity":69,"Duration":116482,"SoundDuration":116482,"Delta":307723642},{"NoteNumber":55,"Velocity":44,"Duration":1075919,"SoundDuration":1075919,"Delta":307723642},{"NoteNumber":60,"Velocity":44,"Duration":2178475,"SoundDuration":2178475,"Delta":307723642},{"NoteNumber":52,"Velocity":44,"Duration":1442098,"SoundDuration":1442098,"Delta":307723642},{"NoteNumber":76,"Velocity":70,"Duration":116482,"SoundDuration":116482,"Delta":307840124},{"NoteNumber":79,"Velocity":73,"Duration":126943,"SoundDuration":126943,"Delta":307956606},{"NoteNumber":82,"Velocity":73,"Duration":117910,"SoundDuration":117910,"Delta":308083550},{"NoteNumber":79,"Velocity":70,"Duration":118466,"SoundDuration":118466,"Delta":308201461},{"NoteNumber":76,"Velocity":68,"Duration":119020,"SoundDuration":119020,"Delta":308319927},{"NoteNumber":72,"Velocity":66,"Duration":119575,"SoundDuration":119575,"Delta":308438948},{"NoteNumber":70,"Velocity":64,"Duration":120134,"SoundDuration":120134,"Delta":308558523},{"NoteNumber":67,"Velocity":61,"Duration":120904,"SoundDuration":120904,"Delta":308678657},{"NoteNumber":72,"Velocity":60,"Duration":121478,"SoundDuration":121478,"Delta":308799562},{"NoteNumber":58,"Velocity":44,"Duration":366178,"SoundDuration":366178,"Delta":308799562},{"NoteNumber":70,"Velocity":56,"Duration":122056,"SoundDuration":122056,"Delta":308921040},{"NoteNumber":68,"Velocity":54,"Duration":122643,"SoundDuration":122643,"Delta":309043097},{"NoteNumber":69,"Velocity":51,"Duration":96153,"SoundDuration":96153,"Delta":309165741},{"NoteNumber":53,"Velocity":38,"Duration":736377,"SoundDuration":736377,"Delta":309165741},{"NoteNumber":81,"Velocity":52,"Duration":181356,"SoundDuration":181356,"Delta":309358048},{"NoteNumber":80,"Velocity":51,"Duration":181356,"SoundDuration":181356,"Delta":309539405},{"NoteNumber":81,"Velocity":48,"Duration":181356,"SoundDuration":181356,"Delta":309720761},{"NoteNumber":80,"Velocity":52,"Duration":181356,"SoundDuration":181356,"Delta":309902118},{"NoteNumber":81,"Velocity":49,"Duration":183217,"SoundDuration":183217,"Delta":310083474},{"NoteNumber":80,"Velocity":52,"Duration":187430,"SoundDuration":187430,"Delta":310266691},{"NoteNumber":81,"Velocity":49,"Duration":192454,"SoundDuration":192454,"Delta":310454122},{"NoteNumber":72,"Velocity":53,"Duration":734828,"SoundDuration":734828,"Delta":310646577},{"NoteNumber":54,"Velocity":37,"Duration":372116,"SoundDuration":372116,"Delta":311009290},{"NoteNumber":63,"Velocity":37,"Duration":372116,"SoundDuration":372116,"Delta":311009290},{"NoteNumber":74,"Velocity":46,"Duration":93029,"SoundDuration":93029,"Delta":311381406},{"NoteNumber":55,"Velocity":40,"Duration":372116,"SoundDuration":372116,"Delta":311381406},{"NoteNumber":64,"Velocity":40,"Duration":372116,"SoundDuration":372116,"Delta":311381406},{"NoteNumber":72,"Velocity":45,"Duration":93029,"SoundDuration":93029,"Delta":311474435},{"NoteNumber":71,"Velocity":46,"Duration":93029,"SoundDuration":93029,"Delta":311567464},{"NoteNumber":72,"Velocity":49,"Duration":93029,"SoundDuration":93029,"Delta":311660493},{"NoteNumber":76,"Velocity":44,"Duration":191009,"SoundDuration":191009,"Delta":311753522},{"NoteNumber":71,"Velocity":44,"Duration":382019,"SoundDuration":382019,"Delta":311753522},{"NoteNumber":65,"Velocity":44,"Duration":382019,"SoundDuration":382019,"Delta":311753522},{"NoteNumber":74,"Velocity":49,"Duration":191009,"SoundDuration":191009,"Delta":311944532},{"NoteNumber":72,"Velocity":54,"Duration":125675,"SoundDuration":125675,"Delta":312135542},{"NoteNumber":64,"Velocity":44,"Duration":706350,"SoundDuration":706350,"Delta":312135542},{"NoteNumber":60,"Velocity":44,"Duration":706350,"SoundDuration":706350,"Delta":312135542},{"NoteNumber":67,"Velocity":54,"Duration":120375,"SoundDuration":120375,"Delta":312261217},{"NoteNumber":72,"Velocity":56,"Duration":115074,"SoundDuration":115074,"Delta":312381592},{"NoteNumber":76,"Velocity":57,"Duration":115074,"SoundDuration":115074,"Delta":312496667},{"NoteNumber":72,"Velocity":58,"Duration":115074,"SoundDuration":115074,"Delta":312611742},{"NoteNumber":76,"Velocity":61,"Duration":115074,"SoundDuration":115074,"Delta":312726817},{"NoteNumber":79,"Velocity":61,"Duration":115074,"SoundDuration":115074,"Delta":312841892},{"NoteNumber":76,"Velocity":63,"Duration":115074,"SoundDuration":115074,"Delta":312956966},{"NoteNumber":79,"Velocity":64,"Duration":115074,"SoundDuration":115074,"Delta":313072041},{"NoteNumber":84,"Velocity":64,"Duration":115074,"SoundDuration":115074,"Delta":313187116},{"NoteNumber":86,"Velocity":67,"Duration":115074,"SoundDuration":115074,"Delta":313302191},{"NoteNumber":84,"Velocity":68,"Duration":115074,"SoundDuration":115074,"Delta":313417266},{"NoteNumber":82,"Velocity":69,"Duration":116482,"SoundDuration":116482,"Delta":313532341},{"NoteNumber":55,"Velocity":44,"Duration":1075919,"SoundDuration":1075919,"Delta":313532341},{"NoteNumber":60,"Velocity":44,"Duration":2195089,"SoundDuration":2195089,"Delta":313532341},{"NoteNumber":52,"Velocity":44,"Duration":1442098,"SoundDuration":1442098,"Delta":313532341},{"NoteNumber":81,"Velocity":70,"Duration":116482,"SoundDuration":116482,"Delta":313648823},{"NoteNumber":79,"Velocity":73,"Duration":126943,"SoundDuration":126943,"Delta":313765305},{"NoteNumber":77,"Velocity":73,"Duration":117910,"SoundDuration":117910,"Delta":313892248},{"NoteNumber":76,"Velocity":70,"Duration":118466,"SoundDuration":118466,"Delta":314010159},{"NoteNumber":74,"Velocity":68,"Duration":119020,"SoundDuration":119020,"Delta":314128626},{"NoteNumber":72,"Velocity":66,"Duration":119575,"SoundDuration":119575,"Delta":314247646},{"NoteNumber":74,"Velocity":64,"Duration":120134,"SoundDuration":120134,"Delta":314367221},{"NoteNumber":72,"Velocity":61,"Duration":120904,"SoundDuration":120904,"Delta":314487356},{"NoteNumber":70,"Velocity":60,"Duration":121478,"SoundDuration":121478,"Delta":314608260},{"NoteNumber":58,"Velocity":44,"Duration":366178,"SoundDuration":366178,"Delta":314608260},{"NoteNumber":69,"Velocity":56,"Duration":122056,"SoundDuration":122056,"Delta":314729738},{"NoteNumber":68,"Velocity":54,"Duration":122643,"SoundDuration":122643,"Delta":314851795},{"NoteNumber":69,"Velocity":51,"Duration":102739,"SoundDuration":102739,"Delta":314974439},{"NoteNumber":57,"Velocity":38,"Duration":752991,"SoundDuration":752991,"Delta":314974439},{"NoteNumber":53,"Velocity":38,"Duration":752991,"SoundDuration":752991,"Delta":314974439},{"NoteNumber":81,"Velocity":48,"Duration":182503,"SoundDuration":182503,"Delta":315179918},{"NoteNumber":80,"Velocity":51,"Duration":182503,"SoundDuration":182503,"Delta":315362422},{"NoteNumber":81,"Velocity":48,"Duration":182503,"SoundDuration":182503,"Delta":315544926},{"NoteNumber":80,"Velocity":52,"Duration":182503,"SoundDuration":182503,"Delta":315727430},{"NoteNumber":81,"Velocity":49,"Duration":182503,"SoundDuration":182503,"Delta":315909934},{"NoteNumber":80,"Velocity":51,"Duration":182504,"SoundDuration":182504,"Delta":316092438},{"NoteNumber":81,"Velocity":49,"Duration":193598,"SoundDuration":193598,"Delta":316274942},{"NoteNumber":54,"Velocity":41,"Duration":728486,"SoundDuration":728486,"Delta":316468541},{"NoteNumber":63,"Velocity":41,"Duration":728486,"SoundDuration":728486,"Delta":316468541},{"NoteNumber":84,"Velocity":60,"Duration":182503,"SoundDuration":182503,"Delta":316651045},{"NoteNumber":83,"Velocity":60,"Duration":182121,"SoundDuration":182121,"Delta":316833549},{"NoteNumber":84,"Velocity":57,"Duration":181356,"SoundDuration":181356,"Delta":317015670},{"NoteNumber":83,"Velocity":60,"Duration":189873,"SoundDuration":189873,"Delta":317197027},{"NoteNumber":84,"Velocity":61,"Duration":181813,"SoundDuration":181813,"Delta":317386900},{"NoteNumber":83,"Velocity":63,"Duration":180201,"SoundDuration":180201,"Delta":317568714},{"NoteNumber":84,"Velocity":66,"Duration":174640,"SoundDuration":174640,"Delta":317748916},{"NoteNumber":84,"Velocity":68,"Duration":187266,"SoundDuration":187266,"Delta":317938480},{"NoteNumber":55,"Velocity":48,"Duration":187266,"SoundDuration":187266,"Delta":317938480},{"NoteNumber":79,"Velocity":60,"Duration":171660,"SoundDuration":171660,"Delta":318125746},{"NoteNumber":64,"Velocity":39,"Duration":187265,"SoundDuration":187265,"Delta":318125746},{"NoteNumber":79,"Velocity":60,"Duration":86825,"SoundDuration":86825,"Delta":318313012},{"NoteNumber":60,"Velocity":41,"Duration":173651,"SoundDuration":173651,"Delta":318313012},{"NoteNumber":79,"Velocity":60,"Duration":92592,"SoundDuration":92592,"Delta":318486663},{"NoteNumber":64,"Velocity":39,"Duration":185185,"SoundDuration":185185,"Delta":318486663},{"NoteNumber":81,"Velocity":62,"Duration":178571,"SoundDuration":178571,"Delta":318671849},{"NoteNumber":55,"Velocity":48,"Duration":178571,"SoundDuration":178571,"Delta":318671849},{"NoteNumber":79,"Velocity":58,"Duration":178571,"SoundDuration":178571,"Delta":318850420},{"NoteNumber":64,"Velocity":38,"Duration":178571,"SoundDuration":178571,"Delta":318850420},{"NoteNumber":77,"Velocity":57,"Duration":88989,"SoundDuration":88989,"Delta":319028992},{"NoteNumber":60,"Velocity":41,"Duration":177978,"SoundDuration":177978,"Delta":319028992},{"NoteNumber":76,"Velocity":56,"Duration":95504,"SoundDuration":95504,"Delta":319206970},{"NoteNumber":64,"Velocity":39,"Duration":191009,"SoundDuration":191009,"Delta":319206970},{"NoteNumber":76,"Velocity":54,"Duration":353731,"SoundDuration":353731,"Delta":319397980},{"NoteNumber":55,"Velocity":43,"Duration":176866,"SoundDuration":176866,"Delta":319397980},{"NoteNumber":67,"Velocity":36,"Duration":176865,"SoundDuration":176865,"Delta":319574846},{"NoteNumber":60,"Velocity":38,"Duration":176866,"SoundDuration":176866,"Delta":319751712},{"NoteNumber":67,"Velocity":35,"Duration":176866,"SoundDuration":176866,"Delta":319928578},{"NoteNumber":74,"Velocity":48,"Duration":85275,"SoundDuration":85275,"Delta":320105444},{"NoteNumber":55,"Velocity":39,"Duration":170551,"SoundDuration":170551,"Delta":320105444},{"NoteNumber":76,"Velocity":45,"Duration":85275,"SoundDuration":85275,"Delta":320190719},{"NoteNumber":74,"Velocity":48,"Duration":85275,"SoundDuration":85275,"Delta":320275995},{"NoteNumber":65,"Velocity":30,"Duration":170551,"SoundDuration":170551,"Delta":320275995},{"NoteNumber":76,"Velocity":45,"Duration":85275,"SoundDuration":85275,"Delta":320361271},{"NoteNumber":74,"Velocity":48,"Duration":58955,"SoundDuration":58955,"Delta":320446547},{"NoteNumber":59,"Velocity":32,"Duration":176866,"SoundDuration":176866,"Delta":320446547},{"NoteNumber":76,"Velocity":46,"Duration":58955,"SoundDuration":58955,"Delta":320505502},{"NoteNumber":74,"Velocity":46,"Duration":58955,"SoundDuration":58955,"Delta":320565931},{"NoteNumber":72,"Velocity":51,"Duration":88433,"SoundDuration":88433,"Delta":320623413},{"NoteNumber":65,"Velocity":30,"Duration":176865,"SoundDuration":176865,"Delta":320623413},{"NoteNumber":74,"Velocity":48,"Duration":88432,"SoundDuration":88432,"Delta":320711846},{"NoteNumber":72,"Velocity":55,"Duration":353732,"SoundDuration":353732,"Delta":320800279},{"NoteNumber":48,"Velocity":35,"Duration":176866,"SoundDuration":176866,"Delta":320800279},{"NoteNumber":52,"Velocity":30,"Duration":176866,"SoundDuration":176866,"Delta":320977145},{"NoteNumber":60,"Velocity":32,"Duration":176865,"SoundDuration":176865,"Delta":321154011},{"NoteNumber":52,"Velocity":30,"Duration":176866,"SoundDuration":176866,"Delta":321330877},{"NoteNumber":67,"Velocity":50,"Duration":469016,"SoundDuration":469016,"Delta":321507743},{"NoteNumber":48,"Velocity":35,"Duration":170551,"SoundDuration":170551,"Delta":321507743},{"NoteNumber":52,"Velocity":30,"Duration":170551,"SoundDuration":170551,"Delta":321678294},{"NoteNumber":60,"Velocity":32,"Duration":170551,"SoundDuration":170551,"Delta":321848846},{"NoteNumber":71,"Velocity":48,"Duration":42637,"SoundDuration":42637,"Delta":321976759},{"NoteNumber":69,"Velocity":48,"Duration":85275,"SoundDuration":85275,"Delta":322019397},{"NoteNumber":52,"Velocity":30,"Duration":170551,"SoundDuration":170551,"Delta":322019397},{"NoteNumber":67,"Velocity":48,"Duration":85275,"SoundDuration":85275,"Delta":322104673},{"NoteNumber":79,"Velocity":57,"Duration":87894,"SoundDuration":87894,"Delta":322189949},{"NoteNumber":48,"Velocity":35,"Duration":175788,"SoundDuration":175788,"Delta":322189949},{"NoteNumber":50,"Velocity":30,"Duration":175788,"SoundDuration":175788,"Delta":322365737},{"NoteNumber":77,"Velocity":56,"Duration":87893,"SoundDuration":87893,"Delta":322541525},{"NoteNumber":59,"Velocity":32,"Duration":175787,"SoundDuration":175787,"Delta":322541525},{"NoteNumber":50,"Velocity":30,"Duration":175788,"SoundDuration":175788,"Delta":322717313},{"NoteNumber":76,"Velocity":54,"Duration":87894,"SoundDuration":87894,"Delta":322893101},{"NoteNumber":48,"Velocity":35,"Duration":175788,"SoundDuration":175788,"Delta":322893101},{"NoteNumber":53,"Velocity":30,"Duration":175788,"SoundDuration":175788,"Delta":323068889},{"NoteNumber":74,"Velocity":51,"Duration":87894,"SoundDuration":87894,"Delta":323244677},{"NoteNumber":59,"Velocity":32,"Duration":175788,"SoundDuration":175788,"Delta":323244677},{"NoteNumber":53,"Velocity":30,"Duration":175787,"SoundDuration":175787,"Delta":323420465},{"NoteNumber":72,"Velocity":55,"Duration":703152,"SoundDuration":703152,"Delta":323596253},{"NoteNumber":48,"Velocity":35,"Duration":175788,"SoundDuration":175788,"Delta":323596253},{"NoteNumber":52,"Velocity":30,"Duration":175788,"SoundDuration":175788,"Delta":323772041},{"NoteNumber":60,"Velocity":32,"Duration":175788,"SoundDuration":175788,"Delta":323947829},{"NoteNumber":52,"Velocity":30,"Duration":175788,"SoundDuration":175788,"Delta":324123617},{"NoteNumber":67,"Velocity":50,"Duration":469016,"SoundDuration":469016,"Delta":324299405},{"NoteNumber":48,"Velocity":35,"Duration":170551,"SoundDuration":170551,"Delta":324299405},{"NoteNumber":52,"Velocity":30,"Duration":170551,"SoundDuration":170551,"Delta":324469956},{"NoteNumber":60,"Velocity":32,"Duration":170551,"SoundDuration":170551,"Delta":324640508},{"NoteNumber":71,"Velocity":48,"Duration":42637,"SoundDuration":42637,"Delta":324768421},{"NoteNumber":69,"Velocity":48,"Duration":85275,"SoundDuration":85275,"Delta":324811059},{"NoteNumber":52,"Velocity":30,"Duration":170551,"SoundDuration":170551,"Delta":324811059},{"NoteNumber":67,"Velocity":48,"Duration":85275,"SoundDuration":85275,"Delta":324896335},{"NoteNumber":79,"Velocity":56,"Duration":88433,"SoundDuration":88433,"Delta":324981611},{"NoteNumber":48,"Velocity":35,"Duration":176866,"SoundDuration":176866,"Delta":324981611},{"NoteNumber":50,"Velocity":30,"Duration":176865,"SoundDuration":176865,"Delta":325158477},{"NoteNumber":77,"Velocity":53,"Duration":88433,"SoundDuration":88433,"Delta":325335343},{"NoteNumber":59,"Velocity":32,"Duration":176866,"SoundDuration":176866,"Delta":325335343},{"NoteNumber":50,"Velocity":30,"Duration":176866,"SoundDuration":176866,"Delta":325512209},{"NoteNumber":76,"Velocity":52,"Duration":88433,"SoundDuration":88433,"Delta":325689075},{"NoteNumber":48,"Velocity":35,"Duration":176865,"SoundDuration":176865,"Delta":325689075},{"NoteNumber":53,"Velocity":30,"Duration":176866,"SoundDuration":176866,"Delta":325865941},{"NoteNumber":74,"Velocity":49,"Duration":90678,"SoundDuration":90678,"Delta":326042807},{"NoteNumber":59,"Velocity":32,"Duration":181356,"SoundDuration":181356,"Delta":326042807},{"NoteNumber":53,"Velocity":30,"Duration":187500,"SoundDuration":187500,"Delta":326224163},{"NoteNumber":72,"Velocity":53,"Duration":353731,"SoundDuration":353731,"Delta":326411663},{"NoteNumber":48,"Velocity":35,"Duration":176866,"SoundDuration":176866,"Delta":326411663},{"NoteNumber":52,"Velocity":30,"Duration":176865,"SoundDuration":176865,"Delta":326588529},{"NoteNumber":60,"Velocity":32,"Duration":176866,"SoundDuration":176866,"Delta":326765395},{"NoteNumber":52,"Velocity":30,"Duration":176866,"SoundDuration":176866,"Delta":326942261},{"NoteNumber":67,"Velocity":56,"Duration":58955,"SoundDuration":58955,"Delta":327060172},{"NoteNumber":79,"Velocity":66,"Duration":511654,"SoundDuration":511654,"Delta":327119127},{"NoteNumber":48,"Velocity":35,"Duration":170551,"SoundDuration":170551,"Delta":327119127},{"NoteNumber":53,"Velocity":30,"Duration":170551,"SoundDuration":170551,"Delta":327289679},{"NoteNumber":59,"Velocity":32,"Duration":170551,"SoundDuration":170551,"Delta":327460230},{"NoteNumber":77,"Velocity":56,"Duration":56850,"SoundDuration":56850,"Delta":327630782},{"NoteNumber":53,"Velocity":30,"Duration":170551,"SoundDuration":170551,"Delta":327630782},{"NoteNumber":76,"Velocity":56,"Duration":56850,"SoundDuration":56850,"Delta":327687632},{"NoteNumber":74,"Velocity":52,"Duration":56850,"SoundDuration":56850,"Delta":327744483},{"NoteNumber":72,"Velocity":53,"Duration":353731,"SoundDuration":353731,"Delta":327801333},{"NoteNumber":48,"Velocity":35,"Duration":176866,"SoundDuration":176866,"Delta":327801333},{"NoteNumber":52,"Velocity":30,"Duration":176865,"SoundDuration":176865,"Delta":327978199},{"NoteNumber":60,"Velocity":32,"Duration":176866,"SoundDuration":176866,"Delta":328155065},{"NoteNumber":52,"Velocity":30,"Duration":176866,"SoundDuration":176866,"Delta":328331931},{"NoteNumber":67,"Velocity":56,"Duration":58955,"SoundDuration":58955,"Delta":328449842},{"NoteNumber":79,"Velocity":66,"Duration":511654,"SoundDuration":511654,"Delta":328508797},{"NoteNumber":48,"Velocity":35,"Duration":170551,"SoundDuration":170551,"Delta":328508797},{"NoteNumber":53,"Velocity":30,"Duration":170551,"SoundDuration":170551,"Delta":328679349},{"NoteNumber":59,"Velocity":32,"Duration":170551,"SoundDuration":170551,"Delta":328849900},{"NoteNumber":81,"Velocity":60,"Duration":85275,"SoundDuration":85275,"Delta":329020452},{"NoteNumber":53,"Velocity":30,"Duration":170551,"SoundDuration":170551,"Delta":329020452},{"NoteNumber":83,"Velocity":55,"Duration":85275,"SoundDuration":85275,"Delta":329105727},{"NoteNumber":84,"Velocity":67,"Duration":349446,"SoundDuration":349446,"Delta":329191003},{"NoteNumber":48,"Velocity":35,"Duration":174723,"SoundDuration":174723,"Delta":329191003},{"NoteNumber":52,"Velocity":30,"Duration":174723,"SoundDuration":174723,"Delta":329365726},{"NoteNumber":60,"Velocity":32,"Duration":174723,"SoundDuration":174723,"Delta":329540450},{"NoteNumber":52,"Velocity":31,"Duration":174723,"SoundDuration":174723,"Delta":329715173},{"NoteNumber":79,"Velocity":69,"Duration":113700,"SoundDuration":113700,"Delta":329889896},{"NoteNumber":48,"Velocity":41,"Duration":170551,"SoundDuration":170551,"Delta":329889896},{"NoteNumber":81,"Velocity":63,"Duration":113700,"SoundDuration":113700,"Delta":330003597},{"NoteNumber":53,"Velocity":35,"Duration":170551,"SoundDuration":170551,"Delta":330060448},{"NoteNumber":79,"Velocity":63,"Duration":113700,"SoundDuration":113700,"Delta":330117298},{"NoteNumber":77,"Velocity":65,"Duration":113701,"SoundDuration":113701,"Delta":330230999},{"NoteNumber":59,"Velocity":35,"Duration":170551,"SoundDuration":170551,"Delta":330230999},{"NoteNumber":76,"Velocity":63,"Duration":113700,"SoundDuration":113700,"Delta":330344700},{"NoteNumber":53,"Velocity":32,"Duration":170551,"SoundDuration":170551,"Delta":330401551},{"NoteNumber":74,"Velocity":59,"Duration":113700,"SoundDuration":113700,"Delta":330458401},{"NoteNumber":72,"Velocity":60,"Duration":351576,"SoundDuration":351576,"Delta":330572102},{"NoteNumber":48,"Velocity":35,"Duration":175788,"SoundDuration":175788,"Delta":330572102},{"NoteNumber":52,"Velocity":30,"Duration":175788,"SoundDuration":175788,"Delta":330747890},{"NoteNumber":60,"Velocity":32,"Duration":175787,"SoundDuration":175787,"Delta":330923678},{"NoteNumber":52,"Velocity":30,"Duration":175788,"SoundDuration":175788,"Delta":331099466},{"NoteNumber":78,"Velocity":72,"Duration":112359,"SoundDuration":112359,"Delta":331275254},{"NoteNumber":48,"Velocity":41,"Duration":168539,"SoundDuration":168539,"Delta":331275254},{"NoteNumber":79,"Velocity":65,"Duration":112359,"SoundDuration":112359,"Delta":331387614},{"NoteNumber":53,"Velocity":35,"Duration":168539,"SoundDuration":168539,"Delta":331443793},{"NoteNumber":80,"Velocity":66,"Duration":112359,"SoundDuration":112359,"Delta":331499973},{"NoteNumber":81,"Velocity":69,"Duration":112359,"SoundDuration":112359,"Delta":331612333},{"NoteNumber":59,"Velocity":32,"Duration":168539,"SoundDuration":168539,"Delta":331612333},{"NoteNumber":82,"Velocity":67,"Duration":112359,"SoundDuration":112359,"Delta":331724692},{"NoteNumber":53,"Velocity":30,"Duration":168539,"SoundDuration":168539,"Delta":331780872},{"NoteNumber":83,"Velocity":65,"Duration":112359,"SoundDuration":112359,"Delta":331837052},{"NoteNumber":84,"Velocity":60,"Duration":394737,"SoundDuration":394737,"Delta":331949411},{"NoteNumber":48,"Velocity":35,"Duration":757450,"SoundDuration":757450,"Delta":331949411},{"NoteNumber":52,"Velocity":35,"Duration":757450,"SoundDuration":757450,"Delta":331949411},{"NoteNumber":67,"Velocity":42,"Duration":272034,"SoundDuration":272034,"Delta":332344148},{"NoteNumber":72,"Velocity":42,"Duration":90678,"SoundDuration":90678,"Delta":332616183},{"NoteNumber":76,"Velocity":44,"Duration":93029,"SoundDuration":93029,"Delta":332706861},{"NoteNumber":65,"Velocity":41,"Duration":100887,"SoundDuration":100887,"Delta":333078977},{"NoteNumber":74,"Velocity":41,"Duration":100887,"SoundDuration":100887,"Delta":333078977},{"NoteNumber":56,"Velocity":33,"Duration":100887,"SoundDuration":100887,"Delta":333078977},{"NoteNumber":65,"Velocity":42,"Duration":807102,"SoundDuration":807102,"Delta":333482529},{"NoteNumber":74,"Velocity":42,"Duration":807102,"SoundDuration":807102,"Delta":333482529},{"NoteNumber":57,"Velocity":33,"Duration":1210654,"SoundDuration":1210654,"Delta":333482529},{"NoteNumber":64,"Velocity":36,"Duration":403551,"SoundDuration":403551,"Delta":334289632},{"NoteNumber":72,"Velocity":36,"Duration":403551,"SoundDuration":403551,"Delta":334289632},{"NoteNumber":81,"Velocity":79,"Duration":189873,"SoundDuration":189873,"Delta":335096735},{"NoteNumber":77,"Velocity":66,"Duration":189873,"SoundDuration":189873,"Delta":335096735},{"NoteNumber":74,"Velocity":66,"Duration":189873,"SoundDuration":189873,"Delta":335096735},{"NoteNumber":69,"Velocity":66,"Duration":189873,"SoundDuration":189873,"Delta":335096735},{"NoteNumber":41,"Velocity":50,"Duration":189873,"SoundDuration":189873,"Delta":335096735},{"NoteNumber":53,"Velocity":59,"Duration":189873,"SoundDuration":189873,"Delta":335096735},{"NoteNumber":62,"Velocity":66,"Duration":189873,"SoundDuration":189873,"Delta":335856229},{"NoteNumber":65,"Velocity":66,"Duration":189873,"SoundDuration":189873,"Delta":335856229},{"NoteNumber":67,"Velocity":66,"Duration":189873,"SoundDuration":189873,"Delta":335856229},{"NoteNumber":71,"Velocity":79,"Duration":189873,"SoundDuration":189873,"Delta":335856229},{"NoteNumber":43,"Velocity":50,"Duration":189873,"SoundDuration":189873,"Delta":335856229},{"NoteNumber":55,"Velocity":59,"Duration":189873,"SoundDuration":189873,"Delta":335856229},{"NoteNumber":67,"Velocity":66,"Duration":166666,"SoundDuration":166666,"Delta":336615723},{"NoteNumber":60,"Velocity":66,"Duration":166666,"SoundDuration":166666,"Delta":336615723},{"NoteNumber":64,"Velocity":66,"Duration":166666,"SoundDuration":166666,"Delta":336615723},{"NoteNumber":72,"Velocity":79,"Duration":166666,"SoundDuration":166666,"Delta":336615723},{"NoteNumber":36,"Velocity":47,"Duration":166666,"SoundDuration":166666,"Delta":336615723},{"NoteNumber":40,"Velocity":47,"Duration":166666,"SoundDuration":166666,"Delta":336615723},{"NoteNumber":43,"Velocity":47,"Duration":166666,"SoundDuration":166666,"Delta":336615723},{"NoteNumber":48,"Velocity":57,"Duration":166666,"SoundDuration":166666,"Delta":336615723},{"NoteNumber":74,"Velocity":47,"Duration":343131,"SoundDuration":343131,"Delta":337949057},{"NoteNumber":62,"Velocity":39,"Duration":684040,"SoundDuration":684040,"Delta":337949057},{"NoteNumber":59,"Velocity":39,"Duration":343131,"SoundDuration":343131,"Delta":337949057},{"NoteNumber":71,"Velocity":43,"Duration":170454,"SoundDuration":170454,"Delta":338292188},{"NoteNumber":55,"Velocity":38,"Duration":170454,"SoundDuration":170454,"Delta":338292188},{"NoteNumber":71,"Velocity":43,"Duration":170454,"SoundDuration":170454,"Delta":338633097},{"NoteNumber":62,"Velocity":40,"Duration":170454,"SoundDuration":170454,"Delta":338633097},{"NoteNumber":55,"Velocity":40,"Duration":170454,"SoundDuration":170454,"Delta":338633097},{"NoteNumber":71,"Velocity":36,"Duration":37974,"SoundDuration":37974,"Delta":338974006},{"NoteNumber":62,"Velocity":38,"Duration":379747,"SoundDuration":379747,"Delta":338974006},{"NoteNumber":55,"Velocity":38,"Duration":379747,"SoundDuration":379747,"Delta":338974006},{"NoteNumber":72,"Velocity":36,"Duration":37974,"SoundDuration":37974,"Delta":339011981},{"NoteNumber":71,"Velocity":36,"Duration":37974,"SoundDuration":37974,"Delta":339049956},{"NoteNumber":72,"Velocity":36,"Duration":37974,"SoundDuration":37974,"Delta":339087930},{"NoteNumber":71,"Velocity":36,"Duration":37974,"SoundDuration":37974,"Delta":339125905},{"NoteNumber":69,"Velocity":41,"Duration":94936,"SoundDuration":94936,"Delta":339163880},{"NoteNumber":71,"Velocity":41,"Duration":94936,"SoundDuration":94936,"Delta":339258816},{"NoteNumber":74,"Velocity":49,"Duration":365853,"SoundDuration":365853,"Delta":339353753},{"NoteNumber":62,"Velocity":40,"Duration":718034,"SoundDuration":718034,"Delta":339353753},{"NoteNumber":59,"Velocity":40,"Duration":365853,"SoundDuration":365853,"Delta":339353753},{"NoteNumber":72,"Velocity":43,"Duration":90096,"SoundDuration":90096,"Delta":339719607},{"NoteNumber":57,"Velocity":38,"Duration":90096,"SoundDuration":90096,"Delta":339719607},{"NoteNumber":69,"Velocity":43,"Duration":697059,"SoundDuration":697059,"Delta":340071788},{"NoteNumber":54,"Velocity":38,"Duration":697059,"SoundDuration":697059,"Delta":340071788},{"NoteNumber":62,"Velocity":38,"Duration":697059,"SoundDuration":697059,"Delta":340071788},{"NoteNumber":72,"Velocity":51,"Duration":343131,"SoundDuration":343131,"Delta":340768847},{"NoteNumber":57,"Velocity":41,"Duration":343131,"SoundDuration":343131,"Delta":340768847},{"NoteNumber":62,"Velocity":41,"Duration":708985,"SoundDuration":708985,"Delta":340768847},{"NoteNumber":71,"Velocity":44,"Duration":91463,"SoundDuration":91463,"Delta":341111979},{"NoteNumber":55,"Velocity":38,"Duration":91463,"SoundDuration":91463,"Delta":341111979},{"NoteNumber":74,"Velocity":53,"Duration":347302,"SoundDuration":347302,"Delta":341477832},{"NoteNumber":62,"Velocity":40,"Duration":769837,"SoundDuration":769837,"Delta":341477832},{"NoteNumber":59,"Velocity":40,"Duration":347302,"SoundDuration":347302,"Delta":341477832},{"NoteNumber":72,"Velocity":43,"Duration":105633,"SoundDuration":105633,"Delta":341825135},{"NoteNumber":57,"Velocity":38,"Duration":105633,"SoundDuration":105633,"Delta":341825135},{"NoteNumber":76,"Velocity":60,"Duration":716332,"SoundDuration":716332,"Delta":342247670},{"NoteNumber":60,"Velocity":50,"Duration":716332,"SoundDuration":716332,"Delta":342247670},{"NoteNumber":62,"Velocity":50,"Duration":1065778,"SoundDuration":1065778,"Delta":342247670},{"NoteNumber":74,"Velocity":49,"Duration":349446,"SoundDuration":349446,"Delta":342964002},{"NoteNumber":59,"Velocity":40,"Duration":349446,"SoundDuration":349446,"Delta":342964002},{"NoteNumber":74,"Velocity":60,"Duration":341102,"SoundDuration":341102,"Delta":343662895},{"NoteNumber":67,"Velocity":50,"Duration":170551,"SoundDuration":170551,"Delta":344003998},{"NoteNumber":67,"Velocity":50,"Duration":341102,"SoundDuration":341102,"Delta":344345101},{"NoteNumber":47,"Velocity":38,"Duration":694834,"SoundDuration":694834,"Delta":344345101},{"NoteNumber":50,"Velocity":38,"Duration":694834,"SoundDuration":694834,"Delta":344345101},{"NoteNumber":68,"Velocity":42,"Duration":35373,"SoundDuration":35373,"Delta":344686204},{"NoteNumber":69,"Velocity":42,"Duration":35373,"SoundDuration":35373,"Delta":344721577},{"NoteNumber":68,"Velocity":42,"Duration":35373,"SoundDuration":35373,"Delta":344756950},{"NoteNumber":69,"Velocity":42,"Duration":35373,"SoundDuration":35373,"Delta":344792323},{"NoteNumber":68,"Velocity":42,"Duration":35373,"SoundDuration":35373,"Delta":344827696},{"NoteNumber":66,"Velocity":43,"Duration":88433,"SoundDuration":88433,"Delta":344863070},{"NoteNumber":68,"Velocity":43,"Duration":88432,"SoundDuration":88432,"Delta":344951503},{"NoteNumber":69,"Velocity":50,"Duration":341102,"SoundDuration":341102,"Delta":345039936},{"NoteNumber":52,"Velocity":38,"Duration":690549,"SoundDuration":690549,"Delta":345039936},{"NoteNumber":48,"Velocity":38,"Duration":690549,"SoundDuration":690549,"Delta":345039936},{"NoteNumber":72,"Velocity":50,"Duration":87361,"SoundDuration":87361,"Delta":345381039},{"NoteNumber":76,"Velocity":60,"Duration":706956,"SoundDuration":706956,"Delta":345730485},{"NoteNumber":49,"Velocity":40,"Duration":706956,"SoundDuration":706956,"Delta":345730485},{"NoteNumber":55,"Velocity":40,"Duration":706956,"SoundDuration":706956,"Delta":345730485},{"NoteNumber":74,"Velocity":48,"Duration":341102,"SoundDuration":341102,"Delta":346437442},{"NoteNumber":59,"Velocity":34,"Duration":711473,"SoundDuration":711473,"Delta":346437442},{"NoteNumber":50,"Velocity":34,"Duration":1488778,"SoundDuration":1488778,"Delta":346437442},{"NoteNumber":67,"Velocity":43,"Duration":92592,"SoundDuration":92592,"Delta":346778545},{"NoteNumber":72,"Velocity":47,"Duration":355956,"SoundDuration":355956,"Delta":347148915},{"NoteNumber":57,"Velocity":34,"Duration":777305,"SoundDuration":777305,"Delta":347148915},{"NoteNumber":66,"Velocity":43,"Duration":105337,"SoundDuration":105337,"Delta":347504872},{"NoteNumber":69,"Velocity":43,"Duration":769230,"SoundDuration":769230,"Delta":347926220},{"NoteNumber":60,"Velocity":39,"Duration":769230,"SoundDuration":769230,"Delta":347926220},{"NoteNumber":55,"Velocity":39,"Duration":1146257,"SoundDuration":1146257,"Delta":347926220},{"NoteNumber":67,"Velocity":41,"Duration":377026,"SoundDuration":377026,"Delta":348695451},{"NoteNumber":59,"Velocity":35,"Duration":377026,"SoundDuration":377026,"Delta":348695451},{"NoteNumber":74,"Velocity":47,"Duration":341103,"SoundDuration":341103,"Delta":349413581},{"NoteNumber":59,"Velocity":38,"Duration":170551,"SoundDuration":170551,"Delta":349413581},{"NoteNumber":62,"Velocity":30,"Duration":170551,"SoundDuration":170551,"Delta":349584132},{"NoteNumber":71,"Velocity":43,"Duration":170551,"SoundDuration":170551,"Delta":349754684},{"NoteNumber":55,"Velocity":35,"Duration":170551,"SoundDuration":170551,"Delta":349754684},{"NoteNumber":62,"Velocity":30,"Duration":170551,"SoundDuration":170551,"Delta":349925235},{"NoteNumber":71,"Velocity":43,"Duration":170551,"SoundDuration":170551,"Delta":350095787},{"NoteNumber":55,"Velocity":38,"Duration":170551,"SoundDuration":170551,"Delta":350095787},{"NoteNumber":62,"Velocity":32,"Duration":170551,"SoundDuration":170551,"Delta":350266338},{"NoteNumber":71,"Velocity":36,"Duration":35157,"SoundDuration":35157,"Delta":350436890},{"NoteNumber":56,"Velocity":37,"Duration":175788,"SoundDuration":175788,"Delta":350436890},{"NoteNumber":72,"Velocity":36,"Duration":35157,"SoundDuration":35157,"Delta":350472047},{"NoteNumber":71,"Velocity":36,"Duration":35157,"SoundDuration":35157,"Delta":350507205},{"NoteNumber":72,"Velocity":36,"Duration":35157,"SoundDuration":35157,"Delta":350542362},{"NoteNumber":71,"Velocity":36,"Duration":35157,"SoundDuration":35157,"Delta":350577520},{"NoteNumber":69,"Velocity":41,"Duration":87894,"SoundDuration":87894,"Delta":350612678},{"NoteNumber":62,"Velocity":32,"Duration":175788,"SoundDuration":175788,"Delta":350612678},{"NoteNumber":71,"Velocity":41,"Duration":87894,"SoundDuration":87894,"Delta":350700572},{"NoteNumber":74,"Velocity":49,"Duration":341102,"SoundDuration":341102,"Delta":350788466},{"NoteNumber":57,"Velocity":40,"Duration":170551,"SoundDuration":170551,"Delta":350788466},{"NoteNumber":62,"Velocity":31,"Duration":170551,"SoundDuration":170551,"Delta":350959017},{"NoteNumber":72,"Velocity":43,"Duration":85275,"SoundDuration":85275,"Delta":351129569},{"NoteNumber":55,"Velocity":35,"Duration":170551,"SoundDuration":170551,"Delta":351129569},{"NoteNumber":62,"Velocity":30,"Duration":170551,"SoundDuration":170551,"Delta":351300120},{"NoteNumber":69,"Velocity":43,"Duration":706956,"SoundDuration":706956,"Delta":351470672},{"NoteNumber":54,"Velocity":38,"Duration":170551,"SoundDuration":170551,"Delta":351470672},{"NoteNumber":62,"Velocity":35,"Duration":170551,"SoundDuration":170551,"Delta":351641223},{"NoteNumber":50,"Velocity":38,"Duration":182926,"SoundDuration":182926,"Delta":351811775},{"NoteNumber":62,"Velocity":34,"Duration":182926,"SoundDuration":182926,"Delta":351994701},{"NoteNumber":72,"Velocity":51,"Duration":329344,"SoundDuration":329344,"Delta":352177628},{"NoteNumber":55,"Velocity":38,"Duration":164672,"SoundDuration":164672,"Delta":352177628},{"NoteNumber":67,"Velocity":34,"Duration":164672,"SoundDuration":164672,"Delta":352342300},{"NoteNumber":71,"Velocity":44,"Duration":89285,"SoundDuration":89285,"Delta":352506973},{"NoteNumber":59,"Velocity":38,"Duration":178571,"SoundDuration":178571,"Delta":352506973},{"NoteNumber":67,"Velocity":33,"Duration":178571,"SoundDuration":178571,"Delta":352685544},{"NoteNumber":74,"Velocity":53,"Duration":325591,"SoundDuration":325591,"Delta":352864116},{"NoteNumber":57,"Velocity":40,"Duration":162795,"SoundDuration":162795,"Delta":352864116},{"NoteNumber":67,"Velocity":38,"Duration":162795,"SoundDuration":162795,"Delta":353026911},{"NoteNumber":72,"Velocity":43,"Duration":92592,"SoundDuration":92592,"Delta":353189707},{"NoteNumber":60,"Velocity":40,"Duration":185185,"SoundDuration":185185,"Delta":353189707},{"NoteNumber":67,"Velocity":38,"Duration":185185,"SoundDuration":185185,"Delta":353374892},{"NoteNumber":76,"Velocity":60,"Duration":674156,"SoundDuration":674156,"Delta":353560078},{"NoteNumber":60,"Velocity":47,"Duration":168539,"SoundDuration":168539,"Delta":353560078},{"NoteNumber":67,"Velocity":38,"Duration":168539,"SoundDuration":168539,"Delta":353728617},{"NoteNumber":64,"Velocity":40,"Duration":168539,"SoundDuration":168539,"Delta":353897156},{"NoteNumber":67,"Velocity":38,"Duration":168539,"SoundDuration":168539,"Delta":354065695},{"NoteNumber":74,"Velocity":49,"Duration":333185,"SoundDuration":333185,"Delta":354234235},{"NoteNumber":59,"Velocity":40,"Duration":166592,"SoundDuration":166592,"Delta":354234235},{"NoteNumber":67,"Velocity":33,"Duration":166592,"SoundDuration":166592,"Delta":354400827},{"NoteNumber":62,"Velocity":38,"Duration":168539,"SoundDuration":168539,"Delta":354567420},{"NoteNumber":67,"Velocity":34,"Duration":168539,"SoundDuration":168539,"Delta":354735959},{"NoteNumber":74,"Velocity":54,"Duration":329344,"SoundDuration":329344,"Delta":354904499},{"NoteNumber":57,"Velocity":39,"Duration":164672,"SoundDuration":164672,"Delta":354904499},{"NoteNumber":67,"Velocity":35,"Duration":164672,"SoundDuration":164672,"Delta":355069171},{"NoteNumber":72,"Velocity":47,"Duration":85275,"SoundDuration":85275,"Delta":355233843},{"NoteNumber":60,"Velocity":39,"Duration":170551,"SoundDuration":170551,"Delta":355233843},{"NoteNumber":67,"Velocity":34,"Duration":170551,"SoundDuration":170551,"Delta":355404395},{"NoteNumber":76,"Velocity":55,"Duration":329344,"SoundDuration":329344,"Delta":355574946},{"NoteNumber":59,"Velocity":41,"Duration":164672,"SoundDuration":164672,"Delta":355574946},{"NoteNumber":67,"Velocity":37,"Duration":164672,"SoundDuration":164672,"Delta":355739618},{"NoteNumber":74,"Velocity":43,"Duration":88433,"SoundDuration":88433,"Delta":355904291},{"NoteNumber":62,"Velocity":40,"Duration":176866,"SoundDuration":176866,"Delta":355904291},{"NoteNumber":67,"Velocity":37,"Duration":176865,"SoundDuration":176865,"Delta":356081157},{"NoteNumber":77,"Velocity":61,"Duration":670240,"SoundDuration":670240,"Delta":356258023},{"NoteNumber":62,"Velocity":50,"Duration":167560,"SoundDuration":167560,"Delta":356258023},{"NoteNumber":67,"Velocity":38,"Duration":167560,"SoundDuration":167560,"Delta":356425583},{"NoteNumber":65,"Velocity":41,"Duration":167560,"SoundDuration":167560,"Delta":356593143},{"NoteNumber":67,"Velocity":38,"Duration":167560,"SoundDuration":167560,"Delta":356760703},{"NoteNumber":76,"Velocity":51,"Duration":335120,"SoundDuration":335120,"Delta":356928264},{"NoteNumber":60,"Velocity":41,"Duration":167560,"SoundDuration":167560,"Delta":356928264},{"NoteNumber":67,"Velocity":37,"Duration":167560,"SoundDuration":167560,"Delta":357095824},{"NoteNumber":64,"Velocity":39,"Duration":174418,"SoundDuration":174418,"Delta":357263384},{"NoteNumber":67,"Velocity":37,"Duration":174418,"SoundDuration":174418,"Delta":357437803},{"NoteNumber":76,"Velocity":56,"Duration":329344,"SoundDuration":329344,"Delta":357612221},{"NoteNumber":59,"Velocity":40,"Duration":164672,"SoundDuration":164672,"Delta":357612221},{"NoteNumber":67,"Velocity":38,"Duration":164672,"SoundDuration":164672,"Delta":357776893},{"NoteNumber":74,"Velocity":49,"Duration":87209,"SoundDuration":87209,"Delta":357941566},{"NoteNumber":62,"Velocity":40,"Duration":174418,"SoundDuration":174418,"Delta":357941566},{"NoteNumber":67,"Velocity":37,"Duration":174418,"SoundDuration":174418,"Delta":358115984},{"NoteNumber":77,"Velocity":57,"Duration":329344,"SoundDuration":329344,"Delta":358290403},{"NoteNumber":60,"Velocity":45,"Duration":164672,"SoundDuration":164672,"Delta":358290403},{"NoteNumber":67,"Velocity":40,"Duration":164672,"SoundDuration":164672,"Delta":358455075},{"NoteNumber":76,"Velocity":47,"Duration":90361,"SoundDuration":90361,"Delta":358619747},{"NoteNumber":64,"Velocity":45,"Duration":180723,"SoundDuration":180723,"Delta":358619747},{"NoteNumber":67,"Velocity":40,"Duration":180723,"SoundDuration":180723,"Delta":358800470},{"NoteNumber":79,"Velocity":64,"Duration":670240,"SoundDuration":670240,"Delta":358981193},{"NoteNumber":64,"Velocity":52,"Duration":167560,"SoundDuration":167560,"Delta":358981193},{"NoteNumber":67,"Velocity":41,"Duration":167560,"SoundDuration":167560,"Delta":359148753},{"NoteNumber":66,"Velocity":45,"Duration":167560,"SoundDuration":167560,"Delta":359316314},{"NoteNumber":67,"Velocity":40,"Duration":167560,"SoundDuration":167560,"Delta":359483874},{"NoteNumber":77,"Velocity":54,"Duration":335120,"SoundDuration":335120,"Delta":359651434},{"NoteNumber":62,"Velocity":45,"Duration":167560,"SoundDuration":167560,"Delta":359651434},{"NoteNumber":67,"Velocity":38,"Duration":167560,"SoundDuration":167560,"Delta":359818994},{"NoteNumber":66,"Velocity":40,"Duration":172612,"SoundDuration":172612,"Delta":359986555},{"NoteNumber":67,"Velocity":38,"Duration":172612,"SoundDuration":172612,"Delta":360159167},{"NoteNumber":76,"Velocity":56,"Duration":494016,"SoundDuration":494016,"Delta":360331779},{"NoteNumber":60,"Velocity":40,"Duration":164672,"SoundDuration":164672,"Delta":360331779},{"NoteNumber":67,"Velocity":35,"Duration":164672,"SoundDuration":164672,"Delta":360496451},{"NoteNumber":66,"Velocity":37,"Duration":164672,"SoundDuration":164672,"Delta":360661124},{"NoteNumber":77,"Velocity":53,"Duration":82336,"SoundDuration":82336,"Delta":360825796},{"NoteNumber":67,"Velocity":35,"Duration":164672,"SoundDuration":164672,"Delta":360825796},{"NoteNumber":79,"Velocity":53,"Duration":82336,"SoundDuration":82336,"Delta":360908132},{"NoteNumber":77,"Velocity":56,"Duration":329344,"SoundDuration":329344,"Delta":360990468},{"NoteNumber":59,"Velocity":40,"Duration":164672,"SoundDuration":164672,"Delta":360990468},{"NoteNumber":67,"Velocity":35,"Duration":164672,"SoundDuration":164672,"Delta":361155140},{"NoteNumber":76,"Velocity":56,"Duration":164672,"SoundDuration":164672,"Delta":361319813},{"NoteNumber":60,"Velocity":37,"Duration":164672,"SoundDuration":164672,"Delta":361319813},{"NoteNumber":67,"Velocity":34,"Duration":164672,"SoundDuration":164672,"Delta":361484485},{"NoteNumber":74,"Velocity":55,"Duration":658688,"SoundDuration":658688,"Delta":361649157},{"NoteNumber":55,"Velocity":37,"Duration":164672,"SoundDuration":164672,"Delta":361649157},{"NoteNumber":67,"Velocity":30,"Duration":164672,"SoundDuration":164672,"Delta":361813829},{"NoteNumber":59,"Velocity":33,"Duration":164672,"SoundDuration":164672,"Delta":361978502},{"NoteNumber":67,"Velocity":30,"Duration":164672,"SoundDuration":164672,"Delta":362143174},{"NoteNumber":55,"Velocity":38,"Duration":164672,"SoundDuration":164672,"Delta":362307846},{"NoteNumber":67,"Velocity":33,"Duration":164672,"SoundDuration":164672,"Delta":362472518},{"NoteNumber":79,"Velocity":64,"Duration":170454,"SoundDuration":170454,"Delta":362637191},{"NoteNumber":59,"Velocity":31,"Duration":170454,"SoundDuration":170454,"Delta":362637191},{"NoteNumber":67,"Velocity":31,"Duration":170454,"SoundDuration":170454,"Delta":362807645},{"NoteNumber":77,"Velocity":63,"Duration":362712,"SoundDuration":362712,"Delta":362978100},{"NoteNumber":55,"Velocity":34,"Duration":181356,"SoundDuration":181356,"Delta":362978100},{"NoteNumber":67,"Velocity":29,"Duration":181356,"SoundDuration":181356,"Delta":363159456},{"NoteNumber":75,"Velocity":44,"Duration":341102,"SoundDuration":341102,"Delta":363340813},{"NoteNumber":60,"Velocity":31,"Duration":170551,"SoundDuration":170551,"Delta":363340813},{"NoteNumber":67,"Velocity":30,"Duration":170551,"SoundDuration":170551,"Delta":363511364},{"NoteNumber":55,"Velocity":33,"Duration":170551,"SoundDuration":170551,"Delta":363681916},{"NoteNumber":67,"Velocity":30,"Duration":170551,"SoundDuration":170551,"Delta":363852467},{"NoteNumber":72,"Velocity":43,"Duration":167560,"SoundDuration":167560,"Delta":364023019},{"NoteNumber":63,"Velocity":31,"Duration":167560,"SoundDuration":167560,"Delta":364023019},{"NoteNumber":67,"Velocity":29,"Duration":167560,"SoundDuration":167560,"Delta":364190579},{"NoteNumber":71,"Velocity":50,"Duration":362712,"SoundDuration":362712,"Delta":364358139},{"NoteNumber":55,"Velocity":32,"Duration":181356,"SoundDuration":181356,"Delta":364358139},{"NoteNumber":67,"Velocity":30,"Duration":181356,"SoundDuration":181356,"Delta":364539496},{"NoteNumber":74,"Velocity":47,"Duration":341102,"SoundDuration":341102,"Delta":364720852},{"NoteNumber":62,"Velocity":32,"Duration":170551,"SoundDuration":170551,"Delta":364720852},{"NoteNumber":67,"Velocity":30,"Duration":170551,"SoundDuration":170551,"Delta":364891404},{"NoteNumber":55,"Velocity":37,"Duration":170551,"SoundDuration":170551,"Delta":365061955},{"NoteNumber":67,"Velocity":30,"Duration":170551,"SoundDuration":170551,"Delta":365232507},{"NoteNumber":79,"Velocity":64,"Duration":167560,"SoundDuration":167560,"Delta":365403058},{"NoteNumber":59,"Velocity":32,"Duration":167560,"SoundDuration":167560,"Delta":365403058},{"NoteNumber":67,"Velocity":30,"Duration":167560,"SoundDuration":167560,"Delta":365570618},{"NoteNumber":55,"Velocity":35,"Duration":170551,"SoundDuration":170551,"Delta":365738179},{"NoteNumber":67,"Velocity":30,"Duration":170551,"SoundDuration":170551,"Delta":365908730},{"NoteNumber":77,"Velocity":47,"Duration":167560,"SoundDuration":167560,"Delta":366079282},{"NoteNumber":60,"Velocity":32,"Duration":167560,"SoundDuration":167560,"Delta":366079282},{"NoteNumber":75,"Velocity":47,"Duration":167560,"SoundDuration":167560,"Delta":366246842},{"NoteNumber":67,"Velocity":30,"Duration":167560,"SoundDuration":167560,"Delta":366246842},{"NoteNumber":55,"Velocity":37,"Duration":170551,"SoundDuration":170551,"Delta":366414402},{"NoteNumber":67,"Velocity":30,"Duration":170551,"SoundDuration":170551,"Delta":366584954},{"NoteNumber":74,"Velocity":43,"Duration":166592,"SoundDuration":166592,"Delta":366755505},{"NoteNumber":63,"Velocity":33,"Duration":166592,"SoundDuration":166592,"Delta":366755505},{"NoteNumber":72,"Velocity":43,"Duration":166592,"SoundDuration":166592,"Delta":366922098},{"NoteNumber":67,"Velocity":30,"Duration":166592,"SoundDuration":166592,"Delta":366922098},{"NoteNumber":71,"Velocity":51,"Duration":341102,"SoundDuration":341102,"Delta":367088691},{"NoteNumber":55,"Velocity":35,"Duration":170551,"SoundDuration":170551,"Delta":367088691},{"NoteNumber":67,"Velocity":30,"Duration":170551,"SoundDuration":170551,"Delta":367259242},{"NoteNumber":74,"Velocity":43,"Duration":341103,"SoundDuration":341103,"Delta":367429794},{"NoteNumber":62,"Velocity":32,"Duration":170551,"SoundDuration":170551,"Delta":367429794},{"NoteNumber":67,"Velocity":30,"Duration":170551,"SoundDuration":170551,"Delta":367600345},{"NoteNumber":55,"Velocity":45,"Duration":182926,"SoundDuration":182926,"Delta":367770897},{"NoteNumber":79,"Velocity":61,"Duration":167560,"SoundDuration":167560,"Delta":367953823},{"NoteNumber":67,"Velocity":35,"Duration":167560,"SoundDuration":167560,"Delta":367953823},{"NoteNumber":78,"Velocity":62,"Duration":167560,"SoundDuration":167560,"Delta":368121384},{"NoteNumber":59,"Velocity":38,"Duration":167560,"SoundDuration":167560,"Delta":368121384},{"NoteNumber":79,"Velocity":61,"Duration":167560,"SoundDuration":167560,"Delta":368288944},{"NoteNumber":67,"Velocity":36,"Duration":167560,"SoundDuration":167560,"Delta":368288944},{"NoteNumber":56,"Velocity":45,"Duration":174723,"SoundDuration":174723,"Delta":368456504},{"NoteNumber":75,"Velocity":57,"Duration":170551,"SoundDuration":170551,"Delta":368631227},{"NoteNumber":67,"Velocity":30,"Duration":170551,"SoundDuration":170551,"Delta":368631227},{"NoteNumber":74,"Velocity":60,"Duration":170551,"SoundDuration":170551,"Delta":368801779},{"NoteNumber":60,"Velocity":33,"Duration":170551,"SoundDuration":170551,"Delta":368801779},{"NoteNumber":75,"Velocity":58,"Duration":170551,"SoundDuration":170551,"Delta":368972330},{"NoteNumber":67,"Velocity":30,"Duration":170551,"SoundDuration":170551,"Delta":368972330},{"NoteNumber":56,"Velocity":45,"Duration":174723,"SoundDuration":174723,"Delta":369142882},{"NoteNumber":72,"Velocity":55,"Duration":171565,"SoundDuration":171565,"Delta":369317605},{"NoteNumber":66,"Velocity":33,"Duration":171565,"SoundDuration":171565,"Delta":369317605},{"NoteNumber":71,"Velocity":57,"Duration":171565,"SoundDuration":171565,"Delta":369489171},{"NoteNumber":60,"Velocity":33,"Duration":171565,"SoundDuration":171565,"Delta":369489171},{"NoteNumber":72,"Velocity":56,"Duration":171565,"SoundDuration":171565,"Delta":369660737},{"NoteNumber":66,"Velocity":33,"Duration":171565,"SoundDuration":171565,"Delta":369660737},{"NoteNumber":71,"Velocity":64,"Duration":341102,"SoundDuration":341102,"Delta":369832302},{"NoteNumber":67,"Velocity":45,"Duration":341102,"SoundDuration":341102,"Delta":369832302},{"NoteNumber":55,"Velocity":45,"Duration":341102,"SoundDuration":341102,"Delta":369832302},{"NoteNumber":74,"Velocity":56,"Duration":90678,"SoundDuration":90678,"Delta":370173405},{"NoteNumber":71,"Velocity":62,"Duration":341102,"SoundDuration":341102,"Delta":370536118},{"NoteNumber":55,"Velocity":43,"Duration":341102,"SoundDuration":341102,"Delta":370536118},{"NoteNumber":67,"Velocity":43,"Duration":341102,"SoundDuration":341102,"Delta":370536118},{"NoteNumber":74,"Velocity":56,"Duration":91833,"SoundDuration":91833,"Delta":370877221},{"NoteNumber":71,"Velocity":62,"Duration":341102,"SoundDuration":341102,"Delta":371244553},{"NoteNumber":55,"Velocity":44,"Duration":341102,"SoundDuration":341102,"Delta":371244553},{"NoteNumber":67,"Velocity":44,"Duration":341102,"SoundDuration":341102,"Delta":371244553},{"NoteNumber":74,"Velocity":54,"Duration":85275,"SoundDuration":85275,"Delta":371585656},{"NoteNumber":74,"Velocity":37,"Duration":361446,"SoundDuration":361446,"Delta":372608965},{"NoteNumber":59,"Velocity":24,"Duration":361446,"SoundDuration":361446,"Delta":372608965},{"NoteNumber":55,"Velocity":24,"Duration":361446,"SoundDuration":361446,"Delta":372608965},{"NoteNumber":62,"Velocity":24,"Duration":361446,"SoundDuration":361446,"Delta":372608965},{"NoteNumber":65,"Velocity":24,"Duration":361446,"SoundDuration":361446,"Delta":372608965},{"NoteNumber":77,"Velocity":34,"Duration":96799,"SoundDuration":96799,"Delta":372970411},{"NoteNumber":74,"Velocity":37,"Duration":361446,"SoundDuration":361446,"Delta":373357608},{"NoteNumber":65,"Velocity":24,"Duration":361446,"SoundDuration":361446,"Delta":373357608},{"NoteNumber":62,"Velocity":24,"Duration":361446,"SoundDuration":361446,"Delta":373357608},{"NoteNumber":55,"Velocity":24,"Duration":361446,"SoundDuration":361446,"Delta":373357608},{"NoteNumber":59,"Velocity":24,"Duration":361446,"SoundDuration":361446,"Delta":373357608},{"NoteNumber":77,"Velocity":34,"Duration":98128,"SoundDuration":98128,"Delta":373719054},{"NoteNumber":74,"Velocity":37,"Duration":377026,"SoundDuration":377026,"Delta":374111570},{"NoteNumber":55,"Velocity":24,"Duration":377026,"SoundDuration":377026,"Delta":374111570},{"NoteNumber":59,"Velocity":24,"Duration":377026,"SoundDuration":377026,"Delta":374111570},{"NoteNumber":62,"Velocity":24,"Duration":377026,"SoundDuration":377026,"Delta":374111570},{"NoteNumber":65,"Velocity":24,"Duration":377026,"SoundDuration":377026,"Delta":374111570},{"NoteNumber":77,"Velocity":35,"Duration":89541,"SoundDuration":89541,"Delta":374488596},{"NoteNumber":76,"Velocity":60,"Duration":512272,"SoundDuration":512272,"Delta":375564521},{"NoteNumber":48,"Velocity":40,"Duration":342466,"SoundDuration":342466,"Delta":375905560},{"NoteNumber":77,"Velocity":54,"Duration":85616,"SoundDuration":85616,"Delta":376076793},{"NoteNumber":79,"Velocity":54,"Duration":85616,"SoundDuration":85616,"Delta":376162410},{"NoteNumber":72,"Velocity":60,"Duration":342466,"SoundDuration":342466,"Delta":376248026},{"NoteNumber":52,"Velocity":40,"Duration":342466,"SoundDuration":342466,"Delta":376248026},{"NoteNumber":74,"Velocity":49,"Duration":342466,"SoundDuration":342466,"Delta":376590492},{"NoteNumber":71,"Velocity":49,"Duration":342466,"SoundDuration":342466,"Delta":376590492},{"NoteNumber":55,"Velocity":40,"Duration":342466,"SoundDuration":342466,"Delta":376590492},{"NoteNumber":71,"Velocity":53,"Duration":342466,"SoundDuration":342466,"Delta":376932958},{"NoteNumber":74,"Velocity":53,"Duration":256849,"SoundDuration":256849,"Delta":376932958},{"NoteNumber":60,"Velocity":43,"Duration":342466,"SoundDuration":342466,"Delta":376932958},{"NoteNumber":77,"Velocity":48,"Duration":85616,"SoundDuration":85616,"Delta":377189808},{"NoteNumber":76,"Velocity":53,"Duration":342466,"SoundDuration":342466,"Delta":377275424},{"NoteNumber":72,"Velocity":53,"Duration":342466,"SoundDuration":342466,"Delta":377275424},{"NoteNumber":48,"Velocity":40,"Duration":342466,"SoundDuration":342466,"Delta":377275424},{"NoteNumber":71,"Velocity":50,"Duration":734110,"SoundDuration":734110,"Delta":377617890},{"NoteNumber":74,"Velocity":50,"Duration":734110,"SoundDuration":734110,"Delta":377617890},{"NoteNumber":55,"Velocity":43,"Duration":349446,"SoundDuration":349446,"Delta":377617890},{"NoteNumber":43,"Velocity":40,"Duration":384664,"SoundDuration":384664,"Delta":377967337},{"NoteNumber":76,"Velocity":60,"Duration":513698,"SoundDuration":513698,"Delta":378352001},{"NoteNumber":48,"Velocity":40,"Duration":342466,"SoundDuration":342466,"Delta":378694467},{"NoteNumber":77,"Velocity":56,"Duration":85616,"SoundDuration":85616,"Delta":378865700},{"NoteNumber":79,"Velocity":56,"Duration":85616,"SoundDuration":85616,"Delta":378951317},{"NoteNumber":72,"Velocity":61,"Duration":342466,"SoundDuration":342466,"Delta":379036933},{"NoteNumber":52,"Velocity":40,"Duration":342466,"SoundDuration":342466,"Delta":379036933},{"NoteNumber":74,"Velocity":49,"Duration":171232,"SoundDuration":171232,"Delta":379379399},{"NoteNumber":71,"Velocity":49,"Duration":171232,"SoundDuration":171232,"Delta":379379399},{"NoteNumber":55,"Velocity":43,"Duration":342466,"SoundDuration":342466,"Delta":379379399},{"NoteNumber":77,"Velocity":54,"Duration":342466,"SoundDuration":342466,"Delta":379721865},{"NoteNumber":74,"Velocity":54,"Duration":342466,"SoundDuration":342466,"Delta":379721865},{"NoteNumber":60,"Velocity":44,"Duration":342466,"SoundDuration":342466,"Delta":379721865},{"NoteNumber":76,"Velocity":49,"Duration":69220,"SoundDuration":69220,"Delta":380064331},{"NoteNumber":72,"Velocity":49,"Duration":346100,"SoundDuration":346100,"Delta":380064331},{"NoteNumber":48,"Velocity":41,"Duration":346100,"SoundDuration":346100,"Delta":380064331},{"NoteNumber":77,"Velocity":49,"Duration":69220,"SoundDuration":69220,"Delta":380133551},{"NoteNumber":76,"Velocity":49,"Duration":69220,"SoundDuration":69220,"Delta":380202772},{"NoteNumber":77,"Velocity":49,"Duration":69220,"SoundDuration":69220,"Delta":380271992},{"NoteNumber":76,"Velocity":49,"Duration":69220,"SoundDuration":69220,"Delta":380341212},{"NoteNumber":71,"Velocity":52,"Duration":724493,"SoundDuration":724493,"Delta":380410432},{"NoteNumber":74,"Velocity":52,"Duration":724493,"SoundDuration":724493,"Delta":380410432},{"NoteNumber":55,"Velocity":43,"Duration":349446,"SoundDuration":349446,"Delta":380410432},{"NoteNumber":43,"Velocity":41,"Duration":375046,"SoundDuration":375046,"Delta":380759878},{"NoteNumber":77,"Velocity":64,"Duration":513698,"SoundDuration":513698,"Delta":381134925},{"NoteNumber":57,"Velocity":47,"Duration":342466,"SoundDuration":342466,"Delta":381134925},{"NoteNumber":60,"Velocity":46,"Duration":342466,"SoundDuration":342466,"Delta":381477391},{"NoteNumber":79,"Velocity":60,"Duration":85616,"SoundDuration":85616,"Delta":381648624},{"NoteNumber":77,"Velocity":60,"Duration":85616,"SoundDuration":85616,"Delta":381734241},{"NoteNumber":76,"Velocity":64,"Duration":342466,"SoundDuration":342466,"Delta":381819857},{"NoteNumber":55,"Velocity":49,"Duration":342466,"SoundDuration":342466,"Delta":381819857},{"NoteNumber":76,"Velocity":62,"Duration":174927,"SoundDuration":174927,"Delta":382162323},{"NoteNumber":60,"Velocity":45,"Duration":349853,"SoundDuration":349853,"Delta":382162323},{"NoteNumber":81,"Velocity":69,"Duration":513698,"SoundDuration":513698,"Delta":382512177},{"NoteNumber":53,"Velocity":49,"Duration":342466,"SoundDuration":342466,"Delta":382512177},{"NoteNumber":60,"Velocity":47,"Duration":342466,"SoundDuration":342466,"Delta":382854643},{"NoteNumber":83,"Velocity":63,"Duration":85616,"SoundDuration":85616,"Delta":383025876},{"NoteNumber":84,"Velocity":63,"Duration":85616,"SoundDuration":85616,"Delta":383111493},{"NoteNumber":79,"Velocity":69,"Duration":342466,"SoundDuration":342466,"Delta":383197109},{"NoteNumber":52,"Velocity":50,"Duration":342466,"SoundDuration":342466,"Delta":383197109},{"NoteNumber":79,"Velocity":69,"Duration":171232,"SoundDuration":171232,"Delta":383539575},{"NoteNumber":60,"Velocity":46,"Duration":342466,"SoundDuration":342466,"Delta":383539575},{"NoteNumber":79,"Velocity":68,"Duration":171232,"SoundDuration":171232,"Delta":383882041},{"NoteNumber":77,"Velocity":63,"Duration":128424,"SoundDuration":128424,"Delta":384053274},{"NoteNumber":77,"Velocity":64,"Duration":171232,"SoundDuration":171232,"Delta":384224507},{"NoteNumber":67,"Velocity":43,"Duration":342466,"SoundDuration":342466,"Delta":384224507},{"NoteNumber":59,"Velocity":43,"Duration":342466,"SoundDuration":342466,"Delta":384224507},{"NoteNumber":74,"Velocity":63,"Duration":128424,"SoundDuration":128424,"Delta":384395740},{"NoteNumber":77,"Velocity":69,"Duration":171232,"SoundDuration":171232,"Delta":384566973},{"NoteNumber":76,"Velocity":64,"Duration":128424,"SoundDuration":128424,"Delta":384738206},{"NoteNumber":76,"Velocity":66,"Duration":171232,"SoundDuration":171232,"Delta":384909439},{"NoteNumber":60,"Velocity":43,"Duration":342466,"SoundDuration":342466,"Delta":384909439},{"NoteNumber":67,"Velocity":43,"Duration":342466,"SoundDuration":342466,"Delta":384909439},{"NoteNumber":72,"Velocity":64,"Duration":128424,"SoundDuration":128424,"Delta":385080672},{"NoteNumber":73,"Velocity":64,"Duration":171232,"SoundDuration":171232,"Delta":385251905},{"NoteNumber":55,"Velocity":44,"Duration":688559,"SoundDuration":688559,"Delta":385251905},{"NoteNumber":59,"Velocity":44,"Duration":688559,"SoundDuration":688559,"Delta":385251905},{"NoteNumber":74,"Velocity":60,"Duration":171835,"SoundDuration":171835,"Delta":385423138},{"NoteNumber":76,"Velocity":64,"Duration":172441,"SoundDuration":172441,"Delta":385594974},{"NoteNumber":74,"Velocity":62,"Duration":173050,"SoundDuration":173050,"Delta":385767415},{"NoteNumber":72,"Velocity":63,"Duration":173993,"SoundDuration":173993,"Delta":385940465},{"NoteNumber":71,"Velocity":61,"Duration":174615,"SoundDuration":174615,"Delta":386114459},{"NoteNumber":69,"Velocity":61,"Duration":175241,"SoundDuration":175241,"Delta":386289075},{"NoteNumber":67,"Velocity":60,"Duration":186058,"SoundDuration":186058,"Delta":386464317},{"NoteNumber":76,"Velocity":70,"Duration":513698,"SoundDuration":513698,"Delta":386650375},{"NoteNumber":36,"Velocity":64,"Duration":171232,"SoundDuration":171232,"Delta":386650375},{"NoteNumber":40,"Velocity":56,"Duration":171233,"SoundDuration":171233,"Delta":386821608},{"NoteNumber":43,"Velocity":57,"Duration":171232,"SoundDuration":171232,"Delta":386992841},{"NoteNumber":77,"Velocity":64,"Duration":85616,"SoundDuration":85616,"Delta":387164074},{"NoteNumber":48,"Velocity":56,"Duration":171233,"SoundDuration":171233,"Delta":387164074},{"NoteNumber":79,"Velocity":64,"Duration":85616,"SoundDuration":85616,"Delta":387249690},{"NoteNumber":72,"Velocity":70,"Duration":342466,"SoundDuration":342466,"Delta":387335307},{"NoteNumber":40,"Velocity":60,"Duration":171232,"SoundDuration":171232,"Delta":387335307},{"NoteNumber":52,"Velocity":57,"Duration":171233,"SoundDuration":171233,"Delta":387506540},{"NoteNumber":71,"Velocity":60,"Duration":342466,"SoundDuration":342466,"Delta":387677773},{"NoteNumber":74,"Velocity":60,"Duration":342466,"SoundDuration":342466,"Delta":387677773},{"NoteNumber":43,"Velocity":60,"Duration":171232,"SoundDuration":171232,"Delta":387677773},{"NoteNumber":55,"Velocity":57,"Duration":171233,"SoundDuration":171233,"Delta":387849006},{"NoteNumber":74,"Velocity":63,"Duration":256849,"SoundDuration":256849,"Delta":388020239},{"NoteNumber":71,"Velocity":63,"Duration":342466,"SoundDuration":342466,"Delta":388020239},{"NoteNumber":48,"Velocity":60,"Duration":171232,"SoundDuration":171232,"Delta":388020239},{"NoteNumber":52,"Velocity":55,"Duration":171233,"SoundDuration":171233,"Delta":388191472},{"NoteNumber":77,"Velocity":57,"Duration":85616,"SoundDuration":85616,"Delta":388277088},{"NoteNumber":72,"Velocity":63,"Duration":342466,"SoundDuration":342466,"Delta":388362705},{"NoteNumber":76,"Velocity":63,"Duration":342466,"SoundDuration":342466,"Delta":388362705},{"NoteNumber":55,"Velocity":57,"Duration":171232,"SoundDuration":171232,"Delta":388362705},{"NoteNumber":60,"Velocity":56,"Duration":171233,"SoundDuration":171233,"Delta":388533938},{"NoteNumber":71,"Velocity":61,"Duration":711998,"SoundDuration":711998,"Delta":388705171},{"NoteNumber":74,"Velocity":61,"Duration":711998,"SoundDuration":711998,"Delta":388705171},{"NoteNumber":43,"Velocity":60,"Duration":173050,"SoundDuration":173050,"Delta":388705171},{"NoteNumber":47,"Velocity":57,"Duration":173050,"SoundDuration":173050,"Delta":388878221},{"NoteNumber":50,"Velocity":59,"Duration":182949,"SoundDuration":182949,"Delta":389051271},{"NoteNumber":55,"Velocity":57,"Duration":182949,"SoundDuration":182949,"Delta":389234220},{"NoteNumber":76,"Velocity":70,"Duration":513698,"SoundDuration":513698,"Delta":389417170},{"NoteNumber":36,"Velocity":60,"Duration":171232,"SoundDuration":171232,"Delta":389417170},{"NoteNumber":40,"Velocity":56,"Duration":171233,"SoundDuration":171233,"Delta":389588403},{"NoteNumber":43,"Velocity":57,"Duration":171232,"SoundDuration":171232,"Delta":389759636},{"NoteNumber":77,"Velocity":67,"Duration":85616,"SoundDuration":85616,"Delta":389930869},{"NoteNumber":48,"Velocity":55,"Duration":171233,"SoundDuration":171233,"Delta":389930869},{"NoteNumber":79,"Velocity":67,"Duration":85616,"SoundDuration":85616,"Delta":390016485},{"NoteNumber":72,"Velocity":71,"Duration":342466,"SoundDuration":342466,"Delta":390102102},{"NoteNumber":40,"Velocity":60,"Duration":171232,"SoundDuration":171232,"Delta":390102102},{"NoteNumber":52,"Velocity":57,"Duration":171233,"SoundDuration":171233,"Delta":390273335},{"NoteNumber":74,"Velocity":60,"Duration":171232,"SoundDuration":171232,"Delta":390444568},{"NoteNumber":71,"Velocity":60,"Duration":171232,"SoundDuration":171232,"Delta":390444568},{"NoteNumber":43,"Velocity":58,"Duration":171232,"SoundDuration":171232,"Delta":390444568},{"NoteNumber":55,"Velocity":57,"Duration":171233,"SoundDuration":171233,"Delta":390615801},{"NoteNumber":74,"Velocity":64,"Duration":342466,"SoundDuration":342466,"Delta":390787034},{"NoteNumber":77,"Velocity":64,"Duration":342466,"SoundDuration":342466,"Delta":390787034},{"NoteNumber":48,"Velocity":60,"Duration":171232,"SoundDuration":171232,"Delta":390787034},{"NoteNumber":52,"Velocity":55,"Duration":171233,"SoundDuration":171233,"Delta":390958267},{"NoteNumber":72,"Velocity":60,"Duration":346100,"SoundDuration":346100,"Delta":391129500},{"NoteNumber":76,"Velocity":60,"Duration":69220,"SoundDuration":69220,"Delta":391129500},{"NoteNumber":55,"Velocity":57,"Duration":173050,"SoundDuration":173050,"Delta":391129500},{"NoteNumber":77,"Velocity":60,"Duration":69220,"SoundDuration":69220,"Delta":391198720},{"NoteNumber":76,"Velocity":60,"Duration":69220,"SoundDuration":69220,"Delta":391267940},{"NoteNumber":60,"Velocity":56,"Duration":173050,"SoundDuration":173050,"Delta":391302550},{"NoteNumber":77,"Velocity":60,"Duration":69220,"SoundDuration":69220,"Delta":391337160},{"NoteNumber":76,"Velocity":60,"Duration":69220,"SoundDuration":69220,"Delta":391406380},{"NoteNumber":71,"Velocity":62,"Duration":711482,"SoundDuration":711482,"Delta":391475600},{"NoteNumber":74,"Velocity":62,"Duration":711482,"SoundDuration":711482,"Delta":391475600},{"NoteNumber":43,"Velocity":62,"Duration":173050,"SoundDuration":173050,"Delta":391475600},{"NoteNumber":47,"Velocity":56,"Duration":173050,"SoundDuration":173050,"Delta":391648650},{"NoteNumber":50,"Velocity":57,"Duration":173050,"SoundDuration":173050,"Delta":391821701},{"NoteNumber":55,"Velocity":56,"Duration":192332,"SoundDuration":192332,"Delta":391994751},{"NoteNumber":77,"Velocity":77,"Duration":513698,"SoundDuration":513698,"Delta":392187083},{"NoteNumber":57,"Velocity":53,"Duration":171232,"SoundDuration":171232,"Delta":392187083},{"NoteNumber":60,"Velocity":49,"Duration":171233,"SoundDuration":171233,"Delta":392358316},{"NoteNumber":57,"Velocity":53,"Duration":171232,"SoundDuration":171232,"Delta":392529549},{"NoteNumber":79,"Velocity":70,"Duration":85616,"SoundDuration":85616,"Delta":392700782},{"NoteNumber":60,"Velocity":49,"Duration":171233,"SoundDuration":171233,"Delta":392700782},{"NoteNumber":77,"Velocity":70,"Duration":85616,"SoundDuration":85616,"Delta":392786399},{"NoteNumber":76,"Velocity":77,"Duration":342466,"SoundDuration":342466,"Delta":392872015},{"NoteNumber":55,"Velocity":53,"Duration":171232,"SoundDuration":171232,"Delta":392872015},{"NoteNumber":60,"Velocity":50,"Duration":171233,"SoundDuration":171233,"Delta":393043248},{"NoteNumber":76,"Velocity":74,"Duration":174927,"SoundDuration":174927,"Delta":393214481},{"NoteNumber":55,"Velocity":53,"Duration":174927,"SoundDuration":174927,"Delta":393214481},{"NoteNumber":60,"Velocity":50,"Duration":174926,"SoundDuration":174926,"Delta":393389408},{"NoteNumber":81,"Velocity":78,"Duration":513698,"SoundDuration":513698,"Delta":393564335},{"NoteNumber":53,"Velocity":57,"Duration":171232,"SoundDuration":171232,"Delta":393564335},{"NoteNumber":60,"Velocity":53,"Duration":171233,"SoundDuration":171233,"Delta":393735568},{"NoteNumber":53,"Velocity":57,"Duration":171232,"SoundDuration":171232,"Delta":393906801},{"NoteNumber":83,"Velocity":71,"Duration":85616,"SoundDuration":85616,"Delta":394078034},{"NoteNumber":60,"Velocity":53,"Duration":171233,"SoundDuration":171233,"Delta":394078034},{"NoteNumber":84,"Velocity":69,"Duration":85616,"SoundDuration":85616,"Delta":394163651},{"NoteNumber":79,"Velocity":79,"Duration":342466,"SoundDuration":342466,"Delta":394249267},{"NoteNumber":52,"Velocity":57,"Duration":171232,"SoundDuration":171232,"Delta":394249267},{"NoteNumber":60,"Velocity":53,"Duration":171233,"SoundDuration":171233,"Delta":394420500},{"NoteNumber":79,"Velocity":77,"Duration":171232,"SoundDuration":171232,"Delta":394591733},{"NoteNumber":52,"Velocity":57,"Duration":171232,"SoundDuration":171232,"Delta":394591733},{"NoteNumber":60,"Velocity":52,"Duration":171233,"SoundDuration":171233,"Delta":394762966},{"NoteNumber":80,"Velocity":77,"Duration":173993,"SoundDuration":173993,"Delta":394934199},{"NoteNumber":81,"Velocity":74,"Duration":173993,"SoundDuration":173993,"Delta":395108193},{"NoteNumber":77,"Velocity":75,"Duration":171232,"SoundDuration":171232,"Delta":395282187},{"NoteNumber":62,"Velocity":49,"Duration":171232,"SoundDuration":171232,"Delta":395282187},{"NoteNumber":53,"Velocity":49,"Duration":171232,"SoundDuration":171232,"Delta":395282187},{"NoteNumber":74,"Velocity":72,"Duration":171233,"SoundDuration":171233,"Delta":395453420},{"NoteNumber":72,"Velocity":75,"Duration":359496,"SoundDuration":359496,"Delta":395624653},{"NoteNumber":55,"Velocity":49,"Duration":739291,"SoundDuration":739291,"Delta":395624653},{"NoteNumber":64,"Velocity":49,"Duration":359496,"SoundDuration":359496,"Delta":395624653},{"NoteNumber":71,"Velocity":71,"Duration":379795,"SoundDuration":379795,"Delta":395984149},{"NoteNumber":62,"Velocity":49,"Duration":379795,"SoundDuration":379795,"Delta":395984149},{"NoteNumber":72,"Velocity":75,"Duration":115995,"SoundDuration":115995,"Delta":396363944},{"NoteNumber":64,"Velocity":49,"Duration":695974,"SoundDuration":695974,"Delta":396363944},{"NoteNumber":60,"Velocity":49,"Duration":695974,"SoundDuration":695974,"Delta":396363944},{"NoteNumber":67,"Velocity":69,"Duration":115995,"SoundDuration":115995,"Delta":396479940},{"NoteNumber":76,"Velocity":66,"Duration":115995,"SoundDuration":115995,"Delta":396595936},{"NoteNumber":72,"Velocity":75,"Duration":115995,"SoundDuration":115995,"Delta":396711932},{"NoteNumber":79,"Velocity":69,"Duration":115995,"SoundDuration":115995,"Delta":396827927},{"NoteNumber":76,"Velocity":66,"Duration":115995,"SoundDuration":115995,"Delta":396943923},{"NoteNumber":84,"Velocity":73,"Duration":114155,"SoundDuration":114155,"Delta":397059919},{"NoteNumber":83,"Velocity":66,"Duration":114155,"SoundDuration":114155,"Delta":397174074},{"NoteNumber":81,"Velocity":65,"Duration":114155,"SoundDuration":114155,"Delta":397288230},{"NoteNumber":79,"Velocity":70,"Duration":114155,"SoundDuration":114155,"Delta":397402385},{"NoteNumber":77,"Velocity":67,"Duration":114155,"SoundDuration":114155,"Delta":397516540},{"NoteNumber":76,"Velocity":65,"Duration":114155,"SoundDuration":114155,"Delta":397630696},{"NoteNumber":73,"Velocity":63,"Duration":116618,"SoundDuration":116618,"Delta":397744851},{"NoteNumber":74,"Velocity":60,"Duration":116617,"SoundDuration":116617,"Delta":397861469},{"NoteNumber":77,"Velocity":60,"Duration":116618,"SoundDuration":116618,"Delta":397978087},{"NoteNumber":81,"Velocity":62,"Duration":113700,"SoundDuration":113700,"Delta":398094705},{"NoteNumber":53,"Velocity":38,"Duration":341102,"SoundDuration":341102,"Delta":398094705},{"NoteNumber":57,"Velocity":38,"Duration":341102,"SoundDuration":341102,"Delta":398094705},{"NoteNumber":62,"Velocity":38,"Duration":341102,"SoundDuration":341102,"Delta":398094705},{"NoteNumber":77,"Velocity":57,"Duration":113700,"SoundDuration":113700,"Delta":398208406},{"NoteNumber":74,"Velocity":57,"Duration":113700,"SoundDuration":113700,"Delta":398322107},{"NoteNumber":79,"Velocity":61,"Duration":113701,"SoundDuration":113701,"Delta":398435808},{"NoteNumber":55,"Velocity":38,"Duration":711546,"SoundDuration":711546,"Delta":398435808},{"NoteNumber":60,"Velocity":38,"Duration":341103,"SoundDuration":341103,"Delta":398435808},{"NoteNumber":64,"Velocity":38,"Duration":341103,"SoundDuration":341103,"Delta":398435808},{"NoteNumber":76,"Velocity":57,"Duration":113700,"SoundDuration":113700,"Delta":398549509},{"NoteNumber":72,"Velocity":57,"Duration":113700,"SoundDuration":113700,"Delta":398663210},{"NoteNumber":77,"Velocity":61,"Duration":115767,"SoundDuration":115767,"Delta":398776911},{"NoteNumber":62,"Velocity":44,"Duration":370443,"SoundDuration":370443,"Delta":398776911},{"NoteNumber":65,"Velocity":44,"Duration":370443,"SoundDuration":370443,"Delta":398776911},{"NoteNumber":74,"Velocity":55,"Duration":115767,"SoundDuration":115767,"Delta":398892679},{"NoteNumber":71,"Velocity":55,"Duration":138908,"SoundDuration":138908,"Delta":399008446},{"NoteNumber":72,"Velocity":75,"Duration":116292,"SoundDuration":116292,"Delta":399147354},{"NoteNumber":60,"Velocity":49,"Duration":697756,"SoundDuration":697756,"Delta":399147354},{"NoteNumber":64,"Velocity":49,"Duration":697756,"SoundDuration":697756,"Delta":399147354},{"NoteNumber":67,"Velocity":69,"Duration":116292,"SoundDuration":116292,"Delta":399263647},{"NoteNumber":76,"Velocity":67,"Duration":116292,"SoundDuration":116292,"Delta":399379940},{"NoteNumber":72,"Velocity":75,"Duration":116292,"SoundDuration":116292,"Delta":399496232},{"NoteNumber":79,"Velocity":69,"Duration":116292,"SoundDuration":116292,"Delta":399612525},{"NoteNumber":76,"Velocity":67,"Duration":116292,"SoundDuration":116292,"Delta":399728818},{"NoteNumber":84,"Velocity":73,"Duration":114155,"SoundDuration":114155,"Delta":399845110},{"NoteNumber":83,"Velocity":66,"Duration":114155,"SoundDuration":114155,"Delta":399959266},{"NoteNumber":81,"Velocity":64,"Duration":114155,"SoundDuration":114155,"Delta":400073421},{"NoteNumber":79,"Velocity":70,"Duration":114155,"SoundDuration":114155,"Delta":400187576},{"NoteNumber":77,"Velocity":67,"Duration":114155,"SoundDuration":114155,"Delta":400301732},{"NoteNumber":76,"Velocity":65,"Duration":114155,"SoundDuration":114155,"Delta":400415887},{"NoteNumber":73,"Velocity":63,"Duration":116618,"SoundDuration":116618,"Delta":400530042},{"NoteNumber":74,"Velocity":60,"Duration":116617,"SoundDuration":116617,"Delta":400646660},{"NoteNumber":77,"Velocity":59,"Duration":116584,"SoundDuration":116584,"Delta":400763278},{"NoteNumber":81,"Velocity":62,"Duration":113032,"SoundDuration":113032,"Delta":400879862},{"NoteNumber":57,"Velocity":38,"Duration":339097,"SoundDuration":339097,"Delta":400879862},{"NoteNumber":53,"Velocity":38,"Duration":339097,"SoundDuration":339097,"Delta":400879862},{"NoteNumber":62,"Velocity":38,"Duration":339097,"SoundDuration":339097,"Delta":400879862},{"NoteNumber":77,"Velocity":57,"Duration":113032,"SoundDuration":113032,"Delta":400992895},{"NoteNumber":74,"Velocity":55,"Duration":113032,"SoundDuration":113032,"Delta":401105928},{"NoteNumber":79,"Velocity":61,"Duration":113032,"SoundDuration":113032,"Delta":401218960},{"NoteNumber":60,"Velocity":38,"Duration":339098,"SoundDuration":339098,"Delta":401218960},{"NoteNumber":55,"Velocity":38,"Duration":685385,"SoundDuration":685385,"Delta":401218960},{"NoteNumber":64,"Velocity":38,"Duration":339098,"SoundDuration":339098,"Delta":401218960},{"NoteNumber":76,"Velocity":57,"Duration":113032,"SoundDuration":113032,"Delta":401331993},{"NoteNumber":72,"Velocity":54,"Duration":113032,"SoundDuration":113032,"Delta":401445026},{"NoteNumber":77,"Velocity":61,"Duration":115767,"SoundDuration":115767,"Delta":401558058},{"NoteNumber":62,"Velocity":40,"Duration":346287,"SoundDuration":346287,"Delta":401558058},{"NoteNumber":65,"Velocity":40,"Duration":346287,"SoundDuration":346287,"Delta":401558058},{"NoteNumber":74,"Velocity":55,"Duration":115767,"SoundDuration":115767,"Delta":401673826},{"NoteNumber":71,"Velocity":55,"Duration":114752,"SoundDuration":114752,"Delta":401789593},{"NoteNumber":72,"Velocity":52,"Duration":101351,"SoundDuration":101351,"Delta":401904346},{"NoteNumber":60,"Velocity":38,"Duration":101351,"SoundDuration":101351,"Delta":401904346},{"NoteNumber":64,"Velocity":38,"Duration":101351,"SoundDuration":101351,"Delta":401904346},{"NoteNumber":67,"Velocity":50,"Duration":110294,"SoundDuration":110294,"Delta":402309751},{"NoteNumber":55,"Velocity":38,"Duration":110294,"SoundDuration":110294,"Delta":402309751},{"NoteNumber":60,"Velocity":50,"Duration":958072,"SoundDuration":958072,"Delta":402750928},{"NoteNumber":48,"Velocity":38,"Duration":958072,"SoundDuration":958072,"Delta":402750928},{"NoteNumber":36,"Velocity":38,"Duration":958072,"SoundDuration":958072,"Delta":402750928},{"NoteNumber":76,"Velocity":50,"Duration":697673,"SoundDuration":697673,"Delta":403709000},{"NoteNumber":60,"Velocity":37,"Duration":174418,"SoundDuration":174418,"Delta":403709000},{"NoteNumber":67,"Velocity":30,"Duration":174418,"SoundDuration":174418,"Delta":403883418},{"NoteNumber":66,"Velocity":33,"Duration":174418,"SoundDuration":174418,"Delta":404057837},{"NoteNumber":67,"Velocity":30,"Duration":174418,"SoundDuration":174418,"Delta":404232255},{"NoteNumber":77,"Velocity":46,"Duration":87209,"SoundDuration":87209,"Delta":404406674},{"NoteNumber":60,"Velocity":37,"Duration":174418,"SoundDuration":174418,"Delta":404406674},{"NoteNumber":76,"Velocity":46,"Duration":87209,"SoundDuration":87209,"Delta":404493883},{"NoteNumber":74,"Velocity":46,"Duration":86774,"SoundDuration":86774,"Delta":404581092},{"NoteNumber":67,"Velocity":30,"Duration":172981,"SoundDuration":172981,"Delta":404581092},{"NoteNumber":76,"Velocity":46,"Duration":86206,"SoundDuration":86206,"Delta":404667867},{"NoteNumber":79,"Velocity":50,"Duration":171564,"SoundDuration":171564,"Delta":404754074},{"NoteNumber":62,"Velocity":33,"Duration":171564,"SoundDuration":171564,"Delta":404754074},{"NoteNumber":77,"Velocity":46,"Duration":170167,"SoundDuration":170167,"Delta":404925639},{"NoteNumber":67,"Velocity":30,"Duration":170167,"SoundDuration":170167,"Delta":404925639},{"NoteNumber":76,"Velocity":51,"Duration":170454,"SoundDuration":170454,"Delta":405095806},{"NoteNumber":64,"Velocity":37,"Duration":170454,"SoundDuration":170454,"Delta":405095806},{"NoteNumber":74,"Velocity":49,"Duration":170454,"SoundDuration":170454,"Delta":405266261},{"NoteNumber":67,"Velocity":30,"Duration":170454,"SoundDuration":170454,"Delta":405266261},{"NoteNumber":72,"Velocity":49,"Duration":170454,"SoundDuration":170454,"Delta":405436715},{"NoteNumber":65,"Velocity":33,"Duration":170454,"SoundDuration":170454,"Delta":405436715},{"NoteNumber":71,"Velocity":49,"Duration":191438,"SoundDuration":191438,"Delta":405607170},{"NoteNumber":67,"Velocity":30,"Duration":191438,"SoundDuration":191438,"Delta":405607170},{"NoteNumber":72,"Velocity":52,"Duration":90361,"SoundDuration":90361,"Delta":405798609},{"NoteNumber":64,"Velocity":37,"Duration":180723,"SoundDuration":180723,"Delta":405798609},{"NoteNumber":67,"Velocity":30,"Duration":179001,"SoundDuration":179001,"Delta":405979332},{"NoteNumber":73,"Velocity":55,"Duration":89250,"SoundDuration":89250,"Delta":406158333},{"NoteNumber":58,"Velocity":33,"Duration":177485,"SoundDuration":177485,"Delta":406158333},{"NoteNumber":67,"Velocity":31,"Duration":175649,"SoundDuration":175649,"Delta":406335819},{"NoteNumber":74,"Velocity":56,"Duration":87209,"SoundDuration":87209,"Delta":406511469},{"NoteNumber":59,"Velocity":38,"Duration":174184,"SoundDuration":174184,"Delta":406511469},{"NoteNumber":67,"Velocity":31,"Duration":172413,"SoundDuration":172413,"Delta":406685654},{"NoteNumber":75,"Velocity":60,"Duration":85227,"SoundDuration":85227,"Delta":406858067},{"NoteNumber":59,"Velocity":35,"Duration":170454,"SoundDuration":170454,"Delta":406858067},{"NoteNumber":67,"Velocity":32,"Duration":170454,"SoundDuration":170454,"Delta":407028522},{"NoteNumber":76,"Velocity":63,"Duration":85227,"SoundDuration":85227,"Delta":407198976},{"NoteNumber":60,"Velocity":41,"Duration":170454,"SoundDuration":170454,"Delta":407198976},{"NoteNumber":67,"Velocity":33,"Duration":180744,"SoundDuration":180744,"Delta":407369431},{"NoteNumber":79,"Velocity":62,"Duration":173050,"SoundDuration":173050,"Delta":407550176},{"NoteNumber":62,"Velocity":37,"Duration":173050,"SoundDuration":173050,"Delta":407550176},{"NoteNumber":77,"Velocity":57,"Duration":173050,"SoundDuration":173050,"Delta":407723226},{"NoteNumber":67,"Velocity":33,"Duration":173050,"SoundDuration":173050,"Delta":407723226},{"NoteNumber":76,"Velocity":62,"Duration":522924,"SoundDuration":522924,"Delta":407896276},{"NoteNumber":60,"Velocity":40,"Duration":173050,"SoundDuration":173050,"Delta":407896276},{"NoteNumber":67,"Velocity":30,"Duration":173050,"SoundDuration":173050,"Delta":408069326},{"NoteNumber":66,"Velocity":33,"Duration":176824,"SoundDuration":176824,"Delta":408242377},{"NoteNumber":77,"Velocity":55,"Duration":86525,"SoundDuration":86525,"Delta":408419201},{"NoteNumber":67,"Velocity":30,"Duration":173050,"SoundDuration":173050,"Delta":408419201},{"NoteNumber":76,"Velocity":55,"Duration":86525,"SoundDuration":86525,"Delta":408505726},{"NoteNumber":74,"Velocity":56,"Duration":346100,"SoundDuration":346100,"Delta":408592251},{"NoteNumber":59,"Velocity":37,"Duration":173050,"SoundDuration":173050,"Delta":408592251},{"NoteNumber":67,"Velocity":31,"Duration":173050,"SoundDuration":173050,"Delta":408765301},{"NoteNumber":66,"Velocity":33,"Duration":180723,"SoundDuration":180723,"Delta":408938352},{"NoteNumber":67,"Velocity":32,"Duration":180723,"SoundDuration":180723,"Delta":409119075},{"NoteNumber":77,"Velocity":58,"Duration":698998,"SoundDuration":698998,"Delta":409299798},{"NoteNumber":59,"Velocity":37,"Duration":171232,"SoundDuration":171232,"Delta":409299798},{"NoteNumber":67,"Velocity":31,"Duration":171233,"SoundDuration":171233,"Delta":409471031},{"NoteNumber":66,"Velocity":33,"Duration":171232,"SoundDuration":171232,"Delta":409642264},{"NoteNumber":67,"Velocity":31,"Duration":185299,"SoundDuration":185299,"Delta":409813497},{"NoteNumber":79,"Velocity":48,"Duration":84269,"SoundDuration":84269,"Delta":409998796},{"NoteNumber":59,"Velocity":37,"Duration":168539,"SoundDuration":168539,"Delta":409998796},{"NoteNumber":77,"Velocity":49,"Duration":84269,"SoundDuration":84269,"Delta":410083065},{"NoteNumber":76,"Velocity":49,"Duration":84269,"SoundDuration":84269,"Delta":410167335},{"NoteNumber":67,"Velocity":31,"Duration":168539,"SoundDuration":168539,"Delta":410167335},{"NoteNumber":77,"Velocity":49,"Duration":84269,"SoundDuration":84269,"Delta":410251605},{"NoteNumber":81,"Velocity":55,"Duration":168539,"SoundDuration":168539,"Delta":410335874},{"NoteNumber":60,"Velocity":33,"Duration":168539,"SoundDuration":168539,"Delta":410335874},{"NoteNumber":79,"Velocity":52,"Duration":168539,"SoundDuration":168539,"Delta":410504414},{"NoteNumber":67,"Velocity":31,"Duration":168539,"SoundDuration":168539,"Delta":410504414},{"NoteNumber":77,"Velocity":52,"Duration":168539,"SoundDuration":168539,"Delta":410672953},{"NoteNumber":62,"Velocity":37,"Duration":168539,"SoundDuration":168539,"Delta":410672953},{"NoteNumber":76,"Velocity":50,"Duration":168539,"SoundDuration":168539,"Delta":410841492},{"NoteNumber":67,"Velocity":31,"Duration":168539,"SoundDuration":168539,"Delta":410841492},{"NoteNumber":74,"Velocity":50,"Duration":168539,"SoundDuration":168539,"Delta":411010031},{"NoteNumber":64,"Velocity":33,"Duration":168539,"SoundDuration":168539,"Delta":411010031},{"NoteNumber":72,"Velocity":50,"Duration":177788,"SoundDuration":177788,"Delta":411178571},{"NoteNumber":67,"Velocity":31,"Duration":177788,"SoundDuration":177788,"Delta":411178571},{"NoteNumber":71,"Velocity":49,"Duration":171232,"SoundDuration":171232,"Delta":411356359},{"NoteNumber":65,"Velocity":37,"Duration":171232,"SoundDuration":171232,"Delta":411356359},{"NoteNumber":72,"Velocity":50,"Duration":85616,"SoundDuration":85616,"Delta":411527592},{"NoteNumber":67,"Velocity":32,"Duration":171233,"SoundDuration":171233,"Delta":411527592},{"NoteNumber":74,"Velocity":51,"Duration":85616,"SoundDuration":85616,"Delta":411698825},{"NoteNumber":62,"Velocity":34,"Duration":171232,"SoundDuration":171232,"Delta":411698825},{"NoteNumber":76,"Velocity":53,"Duration":85616,"SoundDuration":85616,"Delta":411870058},{"NoteNumber":67,"Velocity":31,"Duration":171233,"SoundDuration":171233,"Delta":411870058},{"NoteNumber":77,"Velocity":54,"Duration":85169,"SoundDuration":85169,"Delta":412041291},{"NoteNumber":59,"Velocity":40,"Duration":170338,"SoundDuration":170338,"Delta":412041291},{"NoteNumber":79,"Velocity":55,"Duration":85169,"SoundDuration":85169,"Delta":412211629},{"NoteNumber":67,"Velocity":31,"Duration":170636,"SoundDuration":170636,"Delta":412211629},{"NoteNumber":81,"Velocity":56,"Duration":85616,"SoundDuration":85616,"Delta":412382266},{"NoteNumber":62,"Velocity":34,"Duration":171233,"SoundDuration":171233,"Delta":412382266},{"NoteNumber":83,"Velocity":58,"Duration":85767,"SoundDuration":85767,"Delta":412553499},{"NoteNumber":67,"Velocity":31,"Duration":171835,"SoundDuration":171835,"Delta":412553499},{"NoteNumber":84,"Velocity":60,"Duration":86068,"SoundDuration":86068,"Delta":412725335},{"NoteNumber":59,"Velocity":46,"Duration":172136,"SoundDuration":172136,"Delta":412725335},{"NoteNumber":86,"Velocity":61,"Duration":86525,"SoundDuration":86525,"Delta":412897471},{"NoteNumber":67,"Velocity":35,"Duration":173050,"SoundDuration":173050,"Delta":412897471},{"NoteNumber":88,"Velocity":62,"Duration":86525,"SoundDuration":86525,"Delta":413070522},{"NoteNumber":55,"Velocity":37,"Duration":173050,"SoundDuration":173050,"Delta":413070522},{"NoteNumber":89,"Velocity":63,"Duration":100000,"SoundDuration":100000,"Delta":413243572},{"NoteNumber":67,"Velocity":35,"Duration":199999,"SoundDuration":199999,"Delta":413243572},{"NoteNumber":87,"Velocity":79,"Duration":715052,"SoundDuration":715052,"Delta":413443572},{"NoteNumber":60,"Velocity":44,"Duration":178763,"SoundDuration":178763,"Delta":413443572},{"NoteNumber":67,"Velocity":37,"Duration":178763,"SoundDuration":178763,"Delta":413622335},{"NoteNumber":65,"Velocity":40,"Duration":178763,"SoundDuration":178763,"Delta":413801098},{"NoteNumber":67,"Velocity":37,"Duration":178763,"SoundDuration":178763,"Delta":413979861},{"NoteNumber":88,"Velocity":75,"Duration":357526,"SoundDuration":357526,"Delta":414158624},{"NoteNumber":60,"Velocity":44,"Duration":178763,"SoundDuration":178763,"Delta":414158624},{"NoteNumber":67,"Velocity":37,"Duration":178763,"SoundDuration":178763,"Delta":414337387},{"NoteNumber":64,"Velocity":40,"Duration":189607,"SoundDuration":189607,"Delta":414516150},{"NoteNumber":67,"Velocity":37,"Duration":211297,"SoundDuration":211297,"Delta":414705758},{"NoteNumber":70,"Velocity":64,"Duration":536295,"SoundDuration":536295,"Delta":414917055},{"NoteNumber":48,"Velocity":48,"Duration":140864,"SoundDuration":140864,"Delta":414917055},{"NoteNumber":52,"Velocity":43,"Duration":140864,"SoundDuration":140864,"Delta":415057920},{"NoteNumber":55,"Velocity":41,"Duration":140864,"SoundDuration":140864,"Delta":415198784},{"NoteNumber":60,"Velocity":46,"Duration":341102,"SoundDuration":341102,"Delta":415339649},{"NoteNumber":76,"Velocity":60,"Duration":113700,"SoundDuration":113700,"Delta":415453350},{"NoteNumber":79,"Velocity":60,"Duration":113700,"SoundDuration":113700,"Delta":415567051},{"NoteNumber":82,"Velocity":60,"Duration":111111,"SoundDuration":111111,"Delta":415680752},{"NoteNumber":79,"Velocity":58,"Duration":111111,"SoundDuration":111111,"Delta":415791863},{"NoteNumber":76,"Velocity":58,"Duration":111111,"SoundDuration":111111,"Delta":415902975},{"NoteNumber":79,"Velocity":60,"Duration":113700,"SoundDuration":113700,"Delta":416014086},{"NoteNumber":76,"Velocity":58,"Duration":114377,"SoundDuration":114377,"Delta":416127787},{"NoteNumber":70,"Velocity":58,"Duration":115074,"SoundDuration":115074,"Delta":416242164},{"NoteNumber":69,"Velocity":64,"Duration":469657,"SoundDuration":469657,"Delta":416357239},{"NoteNumber":41,"Velocity":48,"Duration":118652,"SoundDuration":118652,"Delta":416357239},{"NoteNumber":45,"Velocity":43,"Duration":118652,"SoundDuration":118652,"Delta":416475891},{"NoteNumber":48,"Velocity":41,"Duration":118652,"SoundDuration":118652,"Delta":416594543},{"NoteNumber":53,"Velocity":48,"Duration":341102,"SoundDuration":341102,"Delta":416713195},{"NoteNumber":72,"Velocity":60,"Duration":113700,"SoundDuration":113700,"Delta":416826896},{"NoteNumber":77,"Velocity":58,"Duration":113700,"SoundDuration":113700,"Delta":416940597},{"NoteNumber":81,"Velocity":60,"Duration":111111,"SoundDuration":111111,"Delta":417054298},{"NoteNumber":77,"Velocity":59,"Duration":111111,"SoundDuration":111111,"Delta":417165409},{"NoteNumber":72,"Velocity":59,"Duration":111111,"SoundDuration":111111,"Delta":417276521},{"NoteNumber":77,"Velocity":60,"Duration":111111,"SoundDuration":111111,"Delta":417387632},{"NoteNumber":72,"Velocity":59,"Duration":111111,"SoundDuration":111111,"Delta":417498743},{"NoteNumber":69,"Velocity":59,"Duration":120904,"SoundDuration":120904,"Delta":417609854},{"NoteNumber":67,"Velocity":64,"Duration":469657,"SoundDuration":469657,"Delta":417730758},{"NoteNumber":45,"Velocity":48,"Duration":118652,"SoundDuration":118652,"Delta":417730758},{"NoteNumber":49,"Velocity":43,"Duration":118652,"SoundDuration":118652,"Delta":417849411},{"NoteNumber":52,"Velocity":40,"Duration":118652,"SoundDuration":118652,"Delta":417968063},{"NoteNumber":57,"Velocity":48,"Duration":341102,"SoundDuration":341102,"Delta":418086715},{"NoteNumber":73,"Velocity":60,"Duration":113700,"SoundDuration":113700,"Delta":418200416},{"NoteNumber":76,"Velocity":58,"Duration":113700,"SoundDuration":113700,"Delta":418314117},{"NoteNumber":79,"Velocity":60,"Duration":113199,"SoundDuration":113199,"Delta":418427818},{"NoteNumber":76,"Velocity":58,"Duration":114382,"SoundDuration":114382,"Delta":418541018},{"NoteNumber":73,"Velocity":58,"Duration":115594,"SoundDuration":115594,"Delta":418655400},{"NoteNumber":76,"Velocity":60,"Duration":116837,"SoundDuration":116837,"Delta":418770995},{"NoteNumber":73,"Velocity":58,"Duration":117560,"SoundDuration":117560,"Delta":418887832},{"NoteNumber":67,"Velocity":58,"Duration":120904,"SoundDuration":120904,"Delta":419005392},{"NoteNumber":66,"Velocity":64,"Duration":471723,"SoundDuration":471723,"Delta":419126296},{"NoteNumber":50,"Velocity":48,"Duration":118652,"SoundDuration":118652,"Delta":419126296},{"NoteNumber":54,"Velocity":43,"Duration":118652,"SoundDuration":118652,"Delta":419244948},{"NoteNumber":57,"Velocity":40,"Duration":118652,"SoundDuration":118652,"Delta":419363601},{"NoteNumber":62,"Velocity":48,"Duration":347302,"SoundDuration":347302,"Delta":419482253},{"NoteNumber":69,"Velocity":60,"Duration":115767,"SoundDuration":115767,"Delta":419598020},{"NoteNumber":74,"Velocity":57,"Duration":115767,"SoundDuration":115767,"Delta":419713788},{"NoteNumber":78,"Velocity":60,"Duration":113700,"SoundDuration":113700,"Delta":419829555},{"NoteNumber":74,"Velocity":58,"Duration":113700,"SoundDuration":113700,"Delta":419943256},{"NoteNumber":69,"Velocity":58,"Duration":113700,"SoundDuration":113700,"Delta":420056957},{"NoteNumber":74,"Velocity":60,"Duration":113701,"SoundDuration":113701,"Delta":420170658},{"NoteNumber":69,"Velocity":58,"Duration":113700,"SoundDuration":113700,"Delta":420284359},{"NoteNumber":66,"Velocity":58,"Duration":120904,"SoundDuration":120904,"Delta":420398060},{"NoteNumber":65,"Velocity":64,"Duration":471031,"SoundDuration":471031,"Delta":420518965},{"NoteNumber":47,"Velocity":48,"Duration":118652,"SoundDuration":118652,"Delta":420518965},{"NoteNumber":50,"Velocity":43,"Duration":118652,"SoundDuration":118652,"Delta":420637617},{"NoteNumber":55,"Velocity":40,"Duration":118652,"SoundDuration":118652,"Delta":420756269},{"NoteNumber":59,"Velocity":48,"Duration":345224,"SoundDuration":345224,"Delta":420874921},{"NoteNumber":71,"Velocity":60,"Duration":115074,"SoundDuration":115074,"Delta":420989996},{"NoteNumber":74,"Velocity":58,"Duration":115074,"SoundDuration":115074,"Delta":421105071},{"NoteNumber":77,"Velocity":60,"Duration":115074,"SoundDuration":115074,"Delta":421220146},{"NoteNumber":74,"Velocity":58,"Duration":115074,"SoundDuration":115074,"Delta":421335220},{"NoteNumber":71,"Velocity":58,"Duration":115074,"SoundDuration":115074,"Delta":421450295},{"NoteNumber":74,"Velocity":60,"Duration":115074,"SoundDuration":115074,"Delta":421565370},{"NoteNumber":71,"Velocity":58,"Duration":115074,"SoundDuration":115074,"Delta":421680445},{"NoteNumber":65,"Velocity":59,"Duration":120904,"SoundDuration":120904,"Delta":421795520},{"NoteNumber":64,"Velocity":64,"Duration":469657,"SoundDuration":469657,"Delta":421916424},{"NoteNumber":48,"Velocity":48,"Duration":118652,"SoundDuration":118652,"Delta":421916424},{"NoteNumber":52,"Velocity":43,"Duration":118652,"SoundDuration":118652,"Delta":422035076},{"NoteNumber":55,"Velocity":40,"Duration":118652,"SoundDuration":118652,"Delta":422153728},{"NoteNumber":60,"Velocity":48,"Duration":341102,"SoundDuration":341102,"Delta":422272381},{"NoteNumber":67,"Velocity":60,"Duration":113700,"SoundDuration":113700,"Delta":422386082},{"NoteNumber":72,"Velocity":60,"Duration":113700,"SoundDuration":113700,"Delta":422499783},{"NoteNumber":76,"Velocity":60,"Duration":113701,"SoundDuration":113701,"Delta":422613484},{"NoteNumber":72,"Velocity":58,"Duration":113700,"SoundDuration":113700,"Delta":422727185},{"NoteNumber":67,"Velocity":58,"Duration":113700,"SoundDuration":113700,"Delta":422840886},{"NoteNumber":72,"Velocity":60,"Duration":113700,"SoundDuration":113700,"Delta":422954587},{"NoteNumber":67,"Velocity":57,"Duration":113701,"SoundDuration":113701,"Delta":423068288},{"NoteNumber":64,"Velocity":57,"Duration":120904,"SoundDuration":120904,"Delta":423181989},{"NoteNumber":53,"Velocity":50,"Duration":341102,"SoundDuration":341102,"Delta":423302893},{"NoteNumber":57,"Velocity":50,"Duration":341102,"SoundDuration":341102,"Delta":423302893},{"NoteNumber":62,"Velocity":60,"Duration":113700,"SoundDuration":113700,"Delta":423416594},{"NoteNumber":69,"Velocity":58,"Duration":113700,"SoundDuration":113700,"Delta":423530295},{"NoteNumber":74,"Velocity":58,"Duration":113701,"SoundDuration":113701,"Delta":423643996},{"NoteNumber":69,"Velocity":60,"Duration":113700,"SoundDuration":113700,"Delta":423757697},{"NoteNumber":62,"Velocity":58,"Duration":124843,"SoundDuration":124843,"Delta":423871398},{"NoteNumber":57,"Velocity":52,"Duration":341102,"SoundDuration":341102,"Delta":423996242},{"NoteNumber":54,"Velocity":52,"Duration":341102,"SoundDuration":341102,"Delta":423996242},{"NoteNumber":62,"Velocity":60,"Duration":113700,"SoundDuration":113700,"Delta":424109943},{"NoteNumber":69,"Velocity":57,"Duration":113700,"SoundDuration":113700,"Delta":424223644},{"NoteNumber":72,"Velocity":60,"Duration":113701,"SoundDuration":113701,"Delta":424337345},{"NoteNumber":69,"Velocity":58,"Duration":124418,"SoundDuration":124418,"Delta":424451046},{"NoteNumber":62,"Velocity":58,"Duration":135135,"SoundDuration":135135,"Delta":424575464},{"NoteNumber":71,"Velocity":63,"Duration":351576,"SoundDuration":351576,"Delta":424710599},{"NoteNumber":55,"Velocity":57,"Duration":87894,"SoundDuration":87894,"Delta":424710599},{"NoteNumber":67,"Velocity":40,"Duration":175788,"SoundDuration":175788,"Delta":424886387},{"NoteNumber":66,"Velocity":44,"Duration":175787,"SoundDuration":175787,"Delta":425062175},{"NoteNumber":67,"Velocity":40,"Duration":176886,"SoundDuration":176886,"Delta":425237963},{"NoteNumber":66,"Velocity":44,"Duration":182926,"SoundDuration":182926,"Delta":425414849},{"NoteNumber":79,"Velocity":62,"Duration":91463,"SoundDuration":91463,"Delta":425597776},{"NoteNumber":67,"Velocity":41,"Duration":182926,"SoundDuration":182926,"Delta":425597776},{"NoteNumber":81,"Velocity":64,"Duration":100000,"SoundDuration":100000,"Delta":425780703},{"NoteNumber":65,"Velocity":44,"Duration":199999,"SoundDuration":199999,"Delta":425780703},{"NoteNumber":83,"Velocity":68,"Duration":108695,"SoundDuration":108695,"Delta":425980703},{"NoteNumber":67,"Velocity":40,"Duration":217391,"SoundDuration":217391,"Delta":425980703},{"NoteNumber":84,"Velocity":64,"Duration":889983,"SoundDuration":889983,"Delta":426198094},{"NoteNumber":64,"Velocity":49,"Duration":179082,"SoundDuration":179082,"Delta":426198094},{"NoteNumber":67,"Velocity":40,"Duration":179082,"SoundDuration":179082,"Delta":426377177},{"NoteNumber":60,"Velocity":35,"Duration":179082,"SoundDuration":179082,"Delta":426556260},{"NoteNumber":67,"Velocity":30,"Duration":179083,"SoundDuration":179083,"Delta":426735343},{"NoteNumber":64,"Velocity":37,"Duration":173651,"SoundDuration":173651,"Delta":426914426},{"NoteNumber":83,"Velocity":50,"Duration":173651,"SoundDuration":173651,"Delta":427088077},{"NoteNumber":67,"Velocity":31,"Duration":173651,"SoundDuration":173651,"Delta":427088077},{"NoteNumber":81,"Velocity":51,"Duration":173651,"SoundDuration":173651,"Delta":427261729},{"NoteNumber":60,"Velocity":35,"Duration":173651,"SoundDuration":173651,"Delta":427261729},{"NoteNumber":79,"Velocity":50,"Duration":166415,"SoundDuration":166415,"Delta":427435380},{"NoteNumber":67,"Velocity":31,"Duration":173651,"SoundDuration":173651,"Delta":427435380},{"NoteNumber":79,"Velocity":53,"Duration":173651,"SoundDuration":173651,"Delta":427609031},{"NoteNumber":62,"Velocity":37,"Duration":173651,"SoundDuration":173651,"Delta":427609031},{"NoteNumber":77,"Velocity":50,"Duration":173651,"SoundDuration":173651,"Delta":427782682},{"NoteNumber":67,"Velocity":34,"Duration":173651,"SoundDuration":173651,"Delta":427782682},{"NoteNumber":76,"Velocity":51,"Duration":173651,"SoundDuration":173651,"Delta":427956334},{"NoteNumber":60,"Velocity":37,"Duration":173651,"SoundDuration":173651,"Delta":427956334},{"NoteNumber":74,"Velocity":50,"Duration":173651,"SoundDuration":173651,"Delta":428129985},{"NoteNumber":67,"Velocity":34,"Duration":173651,"SoundDuration":173651,"Delta":428129985},{"NoteNumber":79,"Velocity":54,"Duration":85275,"SoundDuration":85275,"Delta":428303636},{"NoteNumber":59,"Velocity":37,"Duration":170551,"SoundDuration":170551,"Delta":428303636},{"NoteNumber":67,"Velocity":34,"Duration":170551,"SoundDuration":170551,"Delta":428474188},{"NoteNumber":77,"Velocity":51,"Duration":85275,"SoundDuration":85275,"Delta":428644739},{"NoteNumber":55,"Velocity":37,"Duration":170551,"SoundDuration":170551,"Delta":428644739},{"NoteNumber":67,"Velocity":34,"Duration":181356,"SoundDuration":181356,"Delta":428815291},{"NoteNumber":75,"Velocity":53,"Duration":349446,"SoundDuration":349446,"Delta":428996647},{"NoteNumber":60,"Velocity":38,"Duration":174723,"SoundDuration":174723,"Delta":428996647},{"NoteNumber":67,"Velocity":31,"Duration":174723,"SoundDuration":174723,"Delta":429171370},{"NoteNumber":76,"Velocity":51,"Duration":349446,"SoundDuration":349446,"Delta":429346094},{"NoteNumber":66,"Velocity":34,"Duration":174723,"SoundDuration":174723,"Delta":429346094},{"NoteNumber":67,"Velocity":31,"Duration":174723,"SoundDuration":174723,"Delta":429520817},{"NoteNumber":66,"Velocity":39,"Duration":170551,"SoundDuration":170551,"Delta":429695540},{"NoteNumber":67,"Velocity":41,"Duration":170551,"SoundDuration":170551,"Delta":429866092},{"NoteNumber":69,"Velocity":44,"Duration":170551,"SoundDuration":170551,"Delta":430036643},{"NoteNumber":67,"Velocity":41,"Duration":170551,"SoundDuration":170551,"Delta":430207195},{"NoteNumber":65,"Velocity":49,"Duration":170551,"SoundDuration":170551,"Delta":430377746},{"NoteNumber":67,"Velocity":47,"Duration":170551,"SoundDuration":170551,"Delta":430548298},{"NoteNumber":64,"Velocity":49,"Duration":170551,"SoundDuration":170551,"Delta":430718849},{"NoteNumber":79,"Velocity":54,"Duration":85275,"SoundDuration":85275,"Delta":430889401},{"NoteNumber":67,"Velocity":45,"Duration":170551,"SoundDuration":170551,"Delta":430889401},{"NoteNumber":80,"Velocity":57,"Duration":87209,"SoundDuration":87209,"Delta":431059952},{"NoteNumber":65,"Velocity":49,"Duration":174418,"SoundDuration":174418,"Delta":431059952},{"NoteNumber":81,"Velocity":61,"Duration":87209,"SoundDuration":87209,"Delta":431234371},{"NoteNumber":67,"Velocity":46,"Duration":174418,"SoundDuration":174418,"Delta":431234371},{"NoteNumber":82,"Velocity":64,"Duration":98684,"SoundDuration":98684,"Delta":431408789},{"NoteNumber":62,"Velocity":49,"Duration":197368,"SoundDuration":197368,"Delta":431408789},{"NoteNumber":83,"Velocity":67,"Duration":110294,"SoundDuration":110294,"Delta":431606158},{"NoteNumber":67,"Velocity":46,"Duration":211589,"SoundDuration":211589,"Delta":431606158},{"NoteNumber":84,"Velocity":73,"Duration":889983,"SoundDuration":889983,"Delta":431817747},{"NoteNumber":64,"Velocity":49,"Duration":179082,"SoundDuration":179082,"Delta":431817747},{"NoteNumber":67,"Velocity":41,"Duration":179082,"SoundDuration":179082,"Delta":431996830},{"NoteNumber":60,"Velocity":35,"Duration":179082,"SoundDuration":179082,"Delta":432175913},{"NoteNumber":67,"Velocity":31,"Duration":179083,"SoundDuration":179083,"Delta":432354996},{"NoteNumber":64,"Velocity":37,"Duration":173651,"SoundDuration":173651,"Delta":432534079},{"NoteNumber":83,"Velocity":48,"Duration":173651,"SoundDuration":173651,"Delta":432707730},{"NoteNumber":67,"Velocity":31,"Duration":173651,"SoundDuration":173651,"Delta":432707730},{"NoteNumber":81,"Velocity":50,"Duration":173651,"SoundDuration":173651,"Delta":432881381},{"NoteNumber":60,"Velocity":35,"Duration":173651,"SoundDuration":173651,"Delta":432881381},{"NoteNumber":79,"Velocity":47,"Duration":167862,"SoundDuration":167862,"Delta":433055032},{"NoteNumber":67,"Velocity":31,"Duration":173651,"SoundDuration":173651,"Delta":433055032},{"NoteNumber":79,"Velocity":53,"Duration":173651,"SoundDuration":173651,"Delta":433228684},{"NoteNumber":62,"Velocity":37,"Duration":173651,"SoundDuration":173651,"Delta":433228684},{"NoteNumber":77,"Velocity":47,"Duration":173651,"SoundDuration":173651,"Delta":433402335},{"NoteNumber":67,"Velocity":34,"Duration":173651,"SoundDuration":173651,"Delta":433402335},{"NoteNumber":76,"Velocity":50,"Duration":173651,"SoundDuration":173651,"Delta":433575986},{"NoteNumber":60,"Velocity":37,"Duration":173651,"SoundDuration":173651,"Delta":433575986},{"NoteNumber":74,"Velocity":48,"Duration":173651,"SoundDuration":173651,"Delta":433749637},{"NoteNumber":67,"Velocity":34,"Duration":173651,"SoundDuration":173651,"Delta":433749637},{"NoteNumber":79,"Velocity":54,"Duration":85275,"SoundDuration":85275,"Delta":433923289},{"NoteNumber":59,"Velocity":37,"Duration":170551,"SoundDuration":170551,"Delta":433923289},{"NoteNumber":67,"Velocity":34,"Duration":170551,"SoundDuration":170551,"Delta":434093840},{"NoteNumber":77,"Velocity":51,"Duration":85275,"SoundDuration":85275,"Delta":434264392},{"NoteNumber":55,"Velocity":37,"Duration":170551,"SoundDuration":170551,"Delta":434264392},{"NoteNumber":67,"Velocity":34,"Duration":181356,"SoundDuration":181356,"Delta":434434943},{"NoteNumber":76,"Velocity":51,"Duration":362712,"SoundDuration":362712,"Delta":434616300},{"NoteNumber":60,"Velocity":34,"Duration":181356,"SoundDuration":181356,"Delta":434616300},{"NoteNumber":67,"Velocity":32,"Duration":181356,"SoundDuration":181356,"Delta":434797656},{"NoteNumber":64,"Velocity":32,"Duration":170551,"SoundDuration":170551,"Delta":434979013},{"NoteNumber":67,"Velocity":32,"Duration":170551,"SoundDuration":170551,"Delta":435149564},{"NoteNumber":81,"Velocity":63,"Duration":85275,"SoundDuration":85275,"Delta":435320116},{"NoteNumber":60,"Velocity":37,"Duration":170551,"SoundDuration":170551,"Delta":435320116},{"NoteNumber":83,"Velocity":56,"Duration":85275,"SoundDuration":85275,"Delta":435405391},{"NoteNumber":81,"Velocity":62,"Duration":85275,"SoundDuration":85275,"Delta":435490667},{"NoteNumber":69,"Velocity":29,"Duration":170551,"SoundDuration":170551,"Delta":435490667},{"NoteNumber":83,"Velocity":61,"Duration":85275,"SoundDuration":85275,"Delta":435575943},{"NoteNumber":84,"Velocity":68,"Duration":170551,"SoundDuration":170551,"Delta":435661219},{"NoteNumber":65,"Velocity":32,"Duration":170551,"SoundDuration":170551,"Delta":435661219},{"NoteNumber":84,"Velocity":66,"Duration":85275,"SoundDuration":85275,"Delta":435831770},{"NoteNumber":69,"Velocity":29,"Duration":170551,"SoundDuration":170551,"Delta":435831770},{"NoteNumber":84,"Velocity":64,"Duration":341103,"SoundDuration":341103,"Delta":436002322},{"NoteNumber":60,"Velocity":32,"Duration":170551,"SoundDuration":170551,"Delta":436002322},{"NoteNumber":67,"Velocity":30,"Duration":170551,"SoundDuration":170551,"Delta":436172873},{"NoteNumber":64,"Velocity":32,"Duration":170551,"SoundDuration":170551,"Delta":436343425},{"NoteNumber":67,"Velocity":31,"Duration":170551,"SoundDuration":170551,"Delta":436513976},{"NoteNumber":86,"Velocity":68,"Duration":85275,"SoundDuration":85275,"Delta":436684528},{"NoteNumber":58,"Velocity":32,"Duration":170551,"SoundDuration":170551,"Delta":436684528},{"NoteNumber":88,"Velocity":59,"Duration":85275,"SoundDuration":85275,"Delta":436769803},{"NoteNumber":86,"Velocity":65,"Duration":85275,"SoundDuration":85275,"Delta":436855079},{"NoteNumber":65,"Velocity":30,"Duration":170551,"SoundDuration":170551,"Delta":436855079},{"NoteNumber":88,"Velocity":68,"Duration":85275,"SoundDuration":85275,"Delta":436940355},{"NoteNumber":89,"Velocity":68,"Duration":170551,"SoundDuration":170551,"Delta":437025631},{"NoteNumber":62,"Velocity":32,"Duration":170551,"SoundDuration":170551,"Delta":437025631},{"NoteNumber":89,"Velocity":64,"Duration":85275,"SoundDuration":85275,"Delta":437196182},{"NoteNumber":65,"Velocity":30,"Duration":170551,"SoundDuration":170551,"Delta":437196182},{"NoteNumber":89,"Velocity":64,"Duration":341102,"SoundDuration":341102,"Delta":437366734},{"NoteNumber":57,"Velocity":32,"Duration":170551,"SoundDuration":170551,"Delta":437366734},{"NoteNumber":65,"Velocity":30,"Duration":170551,"SoundDuration":170551,"Delta":437537285},{"NoteNumber":60,"Velocity":32,"Duration":170551,"SoundDuration":170551,"Delta":437707837},{"NoteNumber":65,"Velocity":30,"Duration":179082,"SoundDuration":179082,"Delta":437878388},{"NoteNumber":77,"Velocity":62,"Duration":85275,"SoundDuration":85275,"Delta":438057471},{"NoteNumber":53,"Velocity":40,"Duration":170551,"SoundDuration":170551,"Delta":438057471},{"NoteNumber":79,"Velocity":54,"Duration":85275,"SoundDuration":85275,"Delta":438142747},{"NoteNumber":77,"Velocity":59,"Duration":85275,"SoundDuration":85275,"Delta":438228023},{"NoteNumber":62,"Velocity":34,"Duration":170551,"SoundDuration":170551,"Delta":438228023},{"NoteNumber":79,"Velocity":56,"Duration":85275,"SoundDuration":85275,"Delta":438313298},{"NoteNumber":81,"Velocity":66,"Duration":170551,"SoundDuration":170551,"Delta":438398574},{"NoteNumber":57,"Velocity":40,"Duration":170551,"SoundDuration":170551,"Delta":438398574},{"NoteNumber":81,"Velocity":60,"Duration":85275,"SoundDuration":85275,"Delta":438569126},{"NoteNumber":62,"Velocity":33,"Duration":170551,"SoundDuration":170551,"Delta":438569126},{"NoteNumber":81,"Velocity":60,"Duration":170551,"SoundDuration":170551,"Delta":438739677},{"NoteNumber":55,"Velocity":39,"Duration":170551,"SoundDuration":170551,"Delta":438739677},{"NoteNumber":79,"Velocity":61,"Duration":170551,"SoundDuration":170551,"Delta":438910229},{"NoteNumber":64,"Velocity":34,"Duration":170551,"SoundDuration":170551,"Delta":438910229},{"NoteNumber":77,"Velocity":56,"Duration":85275,"SoundDuration":85275,"Delta":439080780},{"NoteNumber":60,"Velocity":39,"Duration":170551,"SoundDuration":170551,"Delta":439080780},{"NoteNumber":76,"Velocity":56,"Duration":85275,"SoundDuration":85275,"Delta":439251332},{"NoteNumber":64,"Velocity":34,"Duration":170551,"SoundDuration":170551,"Delta":439251332},{"NoteNumber":74,"Velocity":56,"Duration":168539,"SoundDuration":168539,"Delta":439421883},{"NoteNumber":55,"Velocity":39,"Duration":168539,"SoundDuration":168539,"Delta":439421883},{"NoteNumber":65,"Velocity":34,"Duration":168539,"SoundDuration":168539,"Delta":439590422},{"NoteNumber":79,"Velocity":56,"Duration":168539,"SoundDuration":168539,"Delta":439758962},{"NoteNumber":59,"Velocity":38,"Duration":168539,"SoundDuration":168539,"Delta":439758962},{"NoteNumber":65,"Velocity":33,"Duration":188513,"SoundDuration":188513,"Delta":439927501},{"NoteNumber":77,"Velocity":62,"Duration":347302,"SoundDuration":347302,"Delta":440116014},{"NoteNumber":48,"Velocity":40,"Duration":173651,"SoundDuration":173651,"Delta":440116014},{"NoteNumber":55,"Velocity":35,"Duration":173651,"SoundDuration":173651,"Delta":440289665},{"NoteNumber":76,"Velocity":58,"Duration":353852,"SoundDuration":353852,"Delta":440463317},{"NoteNumber":52,"Velocity":40,"Duration":173651,"SoundDuration":173651,"Delta":440463317},{"NoteNumber":55,"Velocity":34,"Duration":180201,"SoundDuration":180201,"Delta":440636968},{"NoteNumber":69,"Velocity":57,"Duration":85275,"SoundDuration":85275,"Delta":440817170},{"NoteNumber":48,"Velocity":32,"Duration":170551,"SoundDuration":170551,"Delta":440817170},{"NoteNumber":71,"Velocity":60,"Duration":85275,"SoundDuration":85275,"Delta":440902445},{"NoteNumber":69,"Velocity":57,"Duration":85275,"SoundDuration":85275,"Delta":440987721},{"NoteNumber":57,"Velocity":30,"Duration":170551,"SoundDuration":170551,"Delta":440987721},{"NoteNumber":71,"Velocity":61,"Duration":85275,"SoundDuration":85275,"Delta":441072997},{"NoteNumber":72,"Velocity":66,"Duration":170551,"SoundDuration":170551,"Delta":441158273},{"NoteNumber":53,"Velocity":32,"Duration":170551,"SoundDuration":170551,"Delta":441158273},{"NoteNumber":72,"Velocity":60,"Duration":85275,"SoundDuration":85275,"Delta":441328824},{"NoteNumber":57,"Velocity":30,"Duration":170551,"SoundDuration":170551,"Delta":441328824},{"NoteNumber":72,"Velocity":60,"Duration":341102,"SoundDuration":341102,"Delta":441499376},{"NoteNumber":48,"Velocity":32,"Duration":170551,"SoundDuration":170551,"Delta":441499376},{"NoteNumber":55,"Velocity":30,"Duration":170551,"SoundDuration":170551,"Delta":441669927},{"NoteNumber":52,"Velocity":32,"Duration":170551,"SoundDuration":170551,"Delta":441840479},{"NoteNumber":55,"Velocity":30,"Duration":170551,"SoundDuration":170551,"Delta":442011030},{"NoteNumber":74,"Velocity":57,"Duration":85275,"SoundDuration":85275,"Delta":442181582},{"NoteNumber":46,"Velocity":32,"Duration":170551,"SoundDuration":170551,"Delta":442181582},{"NoteNumber":76,"Velocity":60,"Duration":85275,"SoundDuration":85275,"Delta":442266857},{"NoteNumber":74,"Velocity":57,"Duration":85275,"SoundDuration":85275,"Delta":442352133},{"NoteNumber":53,"Velocity":29,"Duration":170551,"SoundDuration":170551,"Delta":442352133},{"NoteNumber":76,"Velocity":64,"Duration":85275,"SoundDuration":85275,"Delta":442437409},{"NoteNumber":77,"Velocity":66,"Duration":179082,"SoundDuration":179082,"Delta":442522685},{"NoteNumber":50,"Velocity":32,"Duration":179082,"SoundDuration":179082,"Delta":442522685},{"NoteNumber":77,"Velocity":60,"Duration":89541,"SoundDuration":89541,"Delta":442701768},{"NoteNumber":53,"Velocity":29,"Duration":179082,"SoundDuration":179082,"Delta":442701768},{"NoteNumber":77,"Velocity":60,"Duration":341102,"SoundDuration":341102,"Delta":442880851},{"NoteNumber":45,"Velocity":34,"Duration":170551,"SoundDuration":170551,"Delta":442880851},{"NoteNumber":53,"Velocity":30,"Duration":170551,"SoundDuration":170551,"Delta":443051402},{"NoteNumber":48,"Velocity":33,"Duration":170551,"SoundDuration":170551,"Delta":443221954},{"NoteNumber":53,"Velocity":29,"Duration":179082,"SoundDuration":179082,"Delta":443392505},{"NoteNumber":77,"Velocity":57,"Duration":89541,"SoundDuration":89541,"Delta":443571588},{"NoteNumber":41,"Velocity":41,"Duration":179082,"SoundDuration":179082,"Delta":443571588},{"NoteNumber":79,"Velocity":60,"Duration":89541,"SoundDuration":89541,"Delta":443661130},{"NoteNumber":77,"Velocity":57,"Duration":89541,"SoundDuration":89541,"Delta":443750671},{"NoteNumber":50,"Velocity":38,"Duration":179082,"SoundDuration":179082,"Delta":443750671},{"NoteNumber":79,"Velocity":68,"Duration":89541,"SoundDuration":89541,"Delta":443840213},{"NoteNumber":81,"Velocity":64,"Duration":179083,"SoundDuration":179083,"Delta":443929754},{"NoteNumber":45,"Velocity":40,"Duration":179083,"SoundDuration":179083,"Delta":443929754},{"NoteNumber":81,"Velocity":61,"Duration":89541,"SoundDuration":89541,"Delta":444108837},{"NoteNumber":50,"Velocity":37,"Duration":179082,"SoundDuration":179082,"Delta":444108837},{"NoteNumber":81,"Velocity":62,"Duration":179082,"SoundDuration":179082,"Delta":444287920},{"NoteNumber":43,"Velocity":40,"Duration":179082,"SoundDuration":179082,"Delta":444287920},{"NoteNumber":79,"Velocity":61,"Duration":179082,"SoundDuration":179082,"Delta":444467003},{"NoteNumber":52,"Velocity":37,"Duration":179082,"SoundDuration":179082,"Delta":444467003},{"NoteNumber":77,"Velocity":61,"Duration":89541,"SoundDuration":89541,"Delta":444646086},{"NoteNumber":48,"Velocity":39,"Duration":179082,"SoundDuration":179082,"Delta":444646086},{"NoteNumber":76,"Velocity":61,"Duration":89541,"SoundDuration":89541,"Delta":444825169},{"NoteNumber":52,"Velocity":32,"Duration":179082,"SoundDuration":179082,"Delta":444825169},{"NoteNumber":76,"Velocity":62,"Duration":179083,"SoundDuration":179083,"Delta":445004252},{"NoteNumber":43,"Velocity":38,"Duration":179083,"SoundDuration":179083,"Delta":445004252},{"NoteNumber":74,"Velocity":60,"Duration":179082,"SoundDuration":179082,"Delta":445183335},{"NoteNumber":53,"Velocity":33,"Duration":179082,"SoundDuration":179082,"Delta":445183335},{"NoteNumber":72,"Velocity":61,"Duration":89541,"SoundDuration":89541,"Delta":445362418},{"NoteNumber":50,"Velocity":38,"Duration":179082,"SoundDuration":179082,"Delta":445362418},{"NoteNumber":71,"Velocity":59,"Duration":102739,"SoundDuration":102739,"Delta":445541501},{"NoteNumber":53,"Velocity":32,"Duration":205479,"SoundDuration":205479,"Delta":445541501},{"NoteNumber":79,"Velocity":78,"Duration":463070,"SoundDuration":463070,"Delta":445746981},{"NoteNumber":48,"Velocity":38,"Duration":347302,"SoundDuration":347302,"Delta":446094283},{"NoteNumber":52,"Velocity":38,"Duration":347302,"SoundDuration":347302,"Delta":446094283},{"NoteNumber":76,"Velocity":61,"Duration":115767,"SoundDuration":115767,"Delta":446210051},{"NoteNumber":72,"Velocity":61,"Duration":115767,"SoundDuration":115767,"Delta":446325818},{"NoteNumber":71,"Velocity":63,"Duration":115767,"SoundDuration":115767,"Delta":446441586},{"NoteNumber":50,"Velocity":44,"Duration":347302,"SoundDuration":347302,"Delta":446441586},{"NoteNumber":53,"Velocity":44,"Duration":347302,"SoundDuration":347302,"Delta":446441586},{"NoteNumber":74,"Velocity":63,"Duration":115767,"SoundDuration":115767,"Delta":446557353},{"NoteNumber":67,"Velocity":61,"Duration":115767,"SoundDuration":115767,"Delta":446673121},{"NoteNumber":72,"Velocity":63,"Duration":115767,"SoundDuration":115767,"Delta":446788888},{"NoteNumber":55,"Velocity":49,"Duration":363404,"SoundDuration":363404,"Delta":446788888},{"NoteNumber":52,"Velocity":49,"Duration":363404,"SoundDuration":363404,"Delta":446788888},{"NoteNumber":76,"Velocity":61,"Duration":121134,"SoundDuration":121134,"Delta":446904656},{"NoteNumber":67,"Velocity":59,"Duration":126502,"SoundDuration":126502,"Delta":447025791},{"NoteNumber":74,"Velocity":77,"Duration":462550,"SoundDuration":462550,"Delta":447152293},{"NoteNumber":43,"Velocity":37,"Duration":348744,"SoundDuration":348744,"Delta":447499595},{"NoteNumber":47,"Velocity":37,"Duration":348744,"SoundDuration":348744,"Delta":447499595},{"NoteNumber":71,"Velocity":55,"Duration":116124,"SoundDuration":116124,"Delta":447614843},{"NoteNumber":67,"Velocity":52,"Duration":117371,"SoundDuration":117371,"Delta":447730968},{"NoteNumber":66,"Velocity":57,"Duration":118281,"SoundDuration":118281,"Delta":447848340},{"NoteNumber":45,"Velocity":40,"Duration":358375,"SoundDuration":358375,"Delta":447848340},{"NoteNumber":48,"Velocity":40,"Duration":358375,"SoundDuration":358375,"Delta":447848340},{"NoteNumber":67,"Velocity":54,"Duration":119575,"SoundDuration":119575,"Delta":447966621},{"NoteNumber":62,"Velocity":54,"Duration":120519,"SoundDuration":120519,"Delta":448086196},{"NoteNumber":65,"Velocity":55,"Duration":121863,"SoundDuration":121863,"Delta":448206716},{"NoteNumber":47,"Velocity":44,"Duration":397570,"SoundDuration":397570,"Delta":448206716},{"NoteNumber":50,"Velocity":44,"Duration":397570,"SoundDuration":397570,"Delta":448206716},{"NoteNumber":67,"Velocity":53,"Duration":132850,"SoundDuration":132850,"Delta":448328579},{"NoteNumber":62,"Velocity":53,"Duration":142857,"SoundDuration":142857,"Delta":448461429},{"NoteNumber":79,"Velocity":75,"Duration":463070,"SoundDuration":463070,"Delta":448604286},{"NoteNumber":48,"Velocity":38,"Duration":347302,"SoundDuration":347302,"Delta":448951589},{"NoteNumber":52,"Velocity":38,"Duration":347302,"SoundDuration":347302,"Delta":448951589},{"NoteNumber":76,"Velocity":61,"Duration":115767,"SoundDuration":115767,"Delta":449067356},{"NoteNumber":72,"Velocity":60,"Duration":115767,"SoundDuration":115767,"Delta":449183124},{"NoteNumber":71,"Velocity":63,"Duration":115767,"SoundDuration":115767,"Delta":449298891},{"NoteNumber":50,"Velocity":44,"Duration":347302,"SoundDuration":347302,"Delta":449298891},{"NoteNumber":53,"Velocity":44,"Duration":347302,"SoundDuration":347302,"Delta":449298891},{"NoteNumber":74,"Velocity":63,"Duration":115767,"SoundDuration":115767,"Delta":449414659},{"NoteNumber":67,"Velocity":61,"Duration":115767,"SoundDuration":115767,"Delta":449530426},{"NoteNumber":72,"Velocity":63,"Duration":115767,"SoundDuration":115767,"Delta":449646194},{"NoteNumber":55,"Velocity":49,"Duration":363404,"SoundDuration":363404,"Delta":449646194},{"NoteNumber":52,"Velocity":49,"Duration":363404,"SoundDuration":363404,"Delta":449646194},{"NoteNumber":76,"Velocity":61,"Duration":121134,"SoundDuration":121134,"Delta":449761961},{"NoteNumber":67,"Velocity":61,"Duration":126502,"SoundDuration":126502,"Delta":449883096},{"NoteNumber":74,"Velocity":77,"Duration":462550,"SoundDuration":462550,"Delta":450009598},{"NoteNumber":43,"Velocity":37,"Duration":348744,"SoundDuration":348744,"Delta":450356901},{"NoteNumber":47,"Velocity":37,"Duration":348744,"SoundDuration":348744,"Delta":450356901},{"NoteNumber":71,"Velocity":55,"Duration":116124,"SoundDuration":116124,"Delta":450472149},{"NoteNumber":67,"Velocity":55,"Duration":117371,"SoundDuration":117371,"Delta":450588274},{"NoteNumber":66,"Velocity":57,"Duration":118281,"SoundDuration":118281,"Delta":450705645},{"NoteNumber":45,"Velocity":40,"Duration":358375,"SoundDuration":358375,"Delta":450705645},{"NoteNumber":48,"Velocity":40,"Duration":358375,"SoundDuration":358375,"Delta":450705645},{"NoteNumber":67,"Velocity":54,"Duration":119575,"SoundDuration":119575,"Delta":450823927},{"NoteNumber":62,"Velocity":54,"Duration":120519,"SoundDuration":120519,"Delta":450943502},{"NoteNumber":65,"Velocity":55,"Duration":121863,"SoundDuration":121863,"Delta":451064021},{"NoteNumber":47,"Velocity":44,"Duration":382276,"SoundDuration":382276,"Delta":451064021},{"NoteNumber":50,"Velocity":44,"Duration":382276,"SoundDuration":382276,"Delta":451064021},{"NoteNumber":67,"Velocity":53,"Duration":127752,"SoundDuration":127752,"Delta":451185884},{"NoteNumber":62,"Velocity":53,"Duration":132661,"SoundDuration":132661,"Delta":451313637},{"NoteNumber":64,"Velocity":53,"Duration":127339,"SoundDuration":127339,"Delta":451446298},{"NoteNumber":48,"Velocity":44,"Duration":708846,"SoundDuration":708846,"Delta":451446298},{"NoteNumber":60,"Velocity":54,"Duration":121207,"SoundDuration":121207,"Delta":451573638},{"NoteNumber":64,"Velocity":56,"Duration":115074,"SoundDuration":115074,"Delta":451694845},{"NoteNumber":67,"Velocity":57,"Duration":115074,"SoundDuration":115074,"Delta":451809920},{"NoteNumber":64,"Velocity":58,"Duration":115074,"SoundDuration":115074,"Delta":451924995},{"NoteNumber":67,"Velocity":61,"Duration":115074,"SoundDuration":115074,"Delta":452040070},{"NoteNumber":72,"Velocity":61,"Duration":115074,"SoundDuration":115074,"Delta":452155145},{"NoteNumber":67,"Velocity":63,"Duration":115074,"SoundDuration":115074,"Delta":452270219},{"NoteNumber":72,"Velocity":64,"Duration":115074,"SoundDuration":115074,"Delta":452385294},{"NoteNumber":76,"Velocity":64,"Duration":115074,"SoundDuration":115074,"Delta":452500369},{"NoteNumber":72,"Velocity":67,"Duration":115074,"SoundDuration":115074,"Delta":452615444},{"NoteNumber":76,"Velocity":68,"Duration":115074,"SoundDuration":115074,"Delta":452730519},{"NoteNumber":79,"Velocity":69,"Duration":116482,"SoundDuration":116482,"Delta":452845594},{"NoteNumber":55,"Velocity":44,"Duration":1075919,"SoundDuration":1075919,"Delta":452845594},{"NoteNumber":60,"Velocity":44,"Duration":2178475,"SoundDuration":2178475,"Delta":452845594},{"NoteNumber":52,"Velocity":44,"Duration":1442098,"SoundDuration":1442098,"Delta":452845594},{"NoteNumber":76,"Velocity":70,"Duration":116482,"SoundDuration":116482,"Delta":452962076},{"NoteNumber":79,"Velocity":73,"Duration":126943,"SoundDuration":126943,"Delta":453078558},{"NoteNumber":82,"Velocity":73,"Duration":117910,"SoundDuration":117910,"Delta":453205501},{"NoteNumber":79,"Velocity":70,"Duration":118466,"SoundDuration":118466,"Delta":453323412},{"NoteNumber":76,"Velocity":68,"Duration":119020,"SoundDuration":119020,"Delta":453441879},{"NoteNumber":72,"Velocity":66,"Duration":119575,"SoundDuration":119575,"Delta":453560899},{"NoteNumber":70,"Velocity":64,"Duration":120134,"SoundDuration":120134,"Delta":453680474},{"NoteNumber":67,"Velocity":61,"Duration":120904,"SoundDuration":120904,"Delta":453800609},{"NoteNumber":72,"Velocity":60,"Duration":121478,"SoundDuration":121478,"Delta":453921513},{"NoteNumber":58,"Velocity":44,"Duration":366178,"SoundDuration":366178,"Delta":453921513},{"NoteNumber":70,"Velocity":56,"Duration":122056,"SoundDuration":122056,"Delta":454042991},{"NoteNumber":68,"Velocity":54,"Duration":122643,"SoundDuration":122643,"Delta":454165048},{"NoteNumber":69,"Velocity":51,"Duration":96153,"SoundDuration":96153,"Delta":454287692},{"NoteNumber":53,"Velocity":38,"Duration":736377,"SoundDuration":736377,"Delta":454287692},{"NoteNumber":81,"Velocity":52,"Duration":181356,"SoundDuration":181356,"Delta":454480000},{"NoteNumber":80,"Velocity":51,"Duration":181356,"SoundDuration":181356,"Delta":454661356},{"NoteNumber":81,"Velocity":48,"Duration":181356,"SoundDuration":181356,"Delta":454842713},{"NoteNumber":80,"Velocity":52,"Duration":181356,"SoundDuration":181356,"Delta":455024069},{"NoteNumber":81,"Velocity":49,"Duration":183217,"SoundDuration":183217,"Delta":455205426},{"NoteNumber":80,"Velocity":52,"Duration":187430,"SoundDuration":187430,"Delta":455388643},{"NoteNumber":81,"Velocity":49,"Duration":192454,"SoundDuration":192454,"Delta":455576073},{"NoteNumber":72,"Velocity":53,"Duration":734828,"SoundDuration":734828,"Delta":455768528},{"NoteNumber":54,"Velocity":37,"Duration":372116,"SoundDuration":372116,"Delta":456131241},{"NoteNumber":63,"Velocity":37,"Duration":372116,"SoundDuration":372116,"Delta":456131241},{"NoteNumber":74,"Velocity":46,"Duration":93029,"SoundDuration":93029,"Delta":456503357},{"NoteNumber":55,"Velocity":40,"Duration":372116,"SoundDuration":372116,"Delta":456503357},{"NoteNumber":64,"Velocity":40,"Duration":372116,"SoundDuration":372116,"Delta":456503357},{"NoteNumber":72,"Velocity":45,"Duration":93029,"SoundDuration":93029,"Delta":456596386},{"NoteNumber":71,"Velocity":46,"Duration":93029,"SoundDuration":93029,"Delta":456689415},{"NoteNumber":72,"Velocity":49,"Duration":93029,"SoundDuration":93029,"Delta":456782444},{"NoteNumber":71,"Velocity":44,"Duration":382019,"SoundDuration":382019,"Delta":456875473},{"NoteNumber":76,"Velocity":44,"Duration":191009,"SoundDuration":191009,"Delta":456875473},{"NoteNumber":65,"Velocity":44,"Duration":382019,"SoundDuration":382019,"Delta":456875473},{"NoteNumber":74,"Velocity":49,"Duration":191009,"SoundDuration":191009,"Delta":457066483},{"NoteNumber":72,"Velocity":54,"Duration":125675,"SoundDuration":125675,"Delta":457257493},{"NoteNumber":64,"Velocity":44,"Duration":706350,"SoundDuration":706350,"Delta":457257493},{"NoteNumber":60,"Velocity":44,"Duration":706350,"SoundDuration":706350,"Delta":457257493},{"NoteNumber":67,"Velocity":54,"Duration":120375,"SoundDuration":120375,"Delta":457383168},{"NoteNumber":72,"Velocity":56,"Duration":115074,"SoundDuration":115074,"Delta":457503544},{"NoteNumber":76,"Velocity":57,"Duration":115074,"SoundDuration":115074,"Delta":457618618},{"NoteNumber":72,"Velocity":58,"Duration":115074,"SoundDuration":115074,"Delta":457733693},{"NoteNumber":76,"Velocity":61,"Duration":115074,"SoundDuration":115074,"Delta":457848768},{"NoteNumber":79,"Velocity":61,"Duration":115074,"SoundDuration":115074,"Delta":457963843},{"NoteNumber":76,"Velocity":63,"Duration":115074,"SoundDuration":115074,"Delta":458078918},{"NoteNumber":79,"Velocity":64,"Duration":115074,"SoundDuration":115074,"Delta":458193993},{"NoteNumber":84,"Velocity":64,"Duration":115074,"SoundDuration":115074,"Delta":458309067},{"NoteNumber":86,"Velocity":67,"Duration":115074,"SoundDuration":115074,"Delta":458424142},{"NoteNumber":84,"Velocity":68,"Duration":115074,"SoundDuration":115074,"Delta":458539217},{"NoteNumber":82,"Velocity":69,"Duration":116482,"SoundDuration":116482,"Delta":458654292},{"NoteNumber":55,"Velocity":44,"Duration":1075919,"SoundDuration":1075919,"Delta":458654292},{"NoteNumber":60,"Velocity":44,"Duration":2195089,"SoundDuration":2195089,"Delta":458654292},{"NoteNumber":52,"Velocity":44,"Duration":1442098,"SoundDuration":1442098,"Delta":458654292},{"NoteNumber":81,"Velocity":70,"Duration":116482,"SoundDuration":116482,"Delta":458770774},{"NoteNumber":79,"Velocity":73,"Duration":126943,"SoundDuration":126943,"Delta":458887256},{"NoteNumber":77,"Velocity":73,"Duration":117910,"SoundDuration":117910,"Delta":459014200},{"NoteNumber":76,"Velocity":70,"Duration":118466,"SoundDuration":118466,"Delta":459132111},{"NoteNumber":74,"Velocity":68,"Duration":119020,"SoundDuration":119020,"Delta":459250577},{"NoteNumber":72,"Velocity":66,"Duration":119575,"SoundDuration":119575,"Delta":459369598},{"NoteNumber":74,"Velocity":64,"Duration":120134,"SoundDuration":120134,"Delta":459489173},{"NoteNumber":72,"Velocity":61,"Duration":120904,"SoundDuration":120904,"Delta":459609307},{"NoteNumber":70,"Velocity":60,"Duration":121478,"SoundDuration":121478,"Delta":459730212},{"NoteNumber":58,"Velocity":44,"Duration":366178,"SoundDuration":366178,"Delta":459730212},{"NoteNumber":69,"Velocity":56,"Duration":122056,"SoundDuration":122056,"Delta":459851690},{"NoteNumber":68,"Velocity":54,"Duration":122643,"SoundDuration":122643,"Delta":459973746},{"NoteNumber":69,"Velocity":51,"Duration":102739,"SoundDuration":102739,"Delta":460096390},{"NoteNumber":57,"Velocity":38,"Duration":752991,"SoundDuration":752991,"Delta":460096390},{"NoteNumber":53,"Velocity":38,"Duration":752991,"SoundDuration":752991,"Delta":460096390},{"NoteNumber":81,"Velocity":48,"Duration":182503,"SoundDuration":182503,"Delta":460301870},{"NoteNumber":80,"Velocity":51,"Duration":182503,"SoundDuration":182503,"Delta":460484374},{"NoteNumber":81,"Velocity":48,"Duration":182503,"SoundDuration":182503,"Delta":460666878},{"NoteNumber":80,"Velocity":52,"Duration":182503,"SoundDuration":182503,"Delta":460849382},{"NoteNumber":81,"Velocity":49,"Duration":182503,"SoundDuration":182503,"Delta":461031886},{"NoteNumber":80,"Velocity":51,"Duration":182504,"SoundDuration":182504,"Delta":461214390},{"NoteNumber":81,"Velocity":49,"Duration":193598,"SoundDuration":193598,"Delta":461396894},{"NoteNumber":54,"Velocity":41,"Duration":728486,"SoundDuration":728486,"Delta":461590492},{"NoteNumber":63,"Velocity":41,"Duration":728486,"SoundDuration":728486,"Delta":461590492},{"NoteNumber":84,"Velocity":60,"Duration":182503,"SoundDuration":182503,"Delta":461772996},{"NoteNumber":83,"Velocity":60,"Duration":182121,"SoundDuration":182121,"Delta":461955500},{"NoteNumber":84,"Velocity":57,"Duration":181356,"SoundDuration":181356,"Delta":462137622},{"NoteNumber":83,"Velocity":60,"Duration":189873,"SoundDuration":189873,"Delta":462318978},{"NoteNumber":84,"Velocity":61,"Duration":181813,"SoundDuration":181813,"Delta":462508852},{"NoteNumber":83,"Velocity":63,"Duration":180201,"SoundDuration":180201,"Delta":462690665},{"NoteNumber":84,"Velocity":66,"Duration":174640,"SoundDuration":174640,"Delta":462870867},{"NoteNumber":84,"Velocity":68,"Duration":187266,"SoundDuration":187266,"Delta":463060432},{"NoteNumber":55,"Velocity":48,"Duration":187266,"SoundDuration":187266,"Delta":463060432},{"NoteNumber":79,"Velocity":60,"Duration":171660,"SoundDuration":171660,"Delta":463247698},{"NoteNumber":64,"Velocity":39,"Duration":187265,"SoundDuration":187265,"Delta":463247698},{"NoteNumber":79,"Velocity":60,"Duration":86825,"SoundDuration":86825,"Delta":463434964},{"NoteNumber":60,"Velocity":41,"Duration":173651,"SoundDuration":173651,"Delta":463434964},{"NoteNumber":79,"Velocity":60,"Duration":92592,"SoundDuration":92592,"Delta":463608615},{"NoteNumber":64,"Velocity":39,"Duration":185185,"SoundDuration":185185,"Delta":463608615},{"NoteNumber":81,"Velocity":62,"Duration":178571,"SoundDuration":178571,"Delta":463793800},{"NoteNumber":55,"Velocity":48,"Duration":178571,"SoundDuration":178571,"Delta":463793800},{"NoteNumber":79,"Velocity":58,"Duration":178571,"SoundDuration":178571,"Delta":463972372},{"NoteNumber":64,"Velocity":38,"Duration":178571,"SoundDuration":178571,"Delta":463972372},{"NoteNumber":77,"Velocity":57,"Duration":88989,"SoundDuration":88989,"Delta":464150943},{"NoteNumber":60,"Velocity":41,"Duration":177978,"SoundDuration":177978,"Delta":464150943},{"NoteNumber":76,"Velocity":56,"Duration":95504,"SoundDuration":95504,"Delta":464328921},{"NoteNumber":64,"Velocity":39,"Duration":191009,"SoundDuration":191009,"Delta":464328921},{"NoteNumber":76,"Velocity":54,"Duration":353731,"SoundDuration":353731,"Delta":464519931},{"NoteNumber":55,"Velocity":43,"Duration":176866,"SoundDuration":176866,"Delta":464519931},{"NoteNumber":67,"Velocity":36,"Duration":176865,"SoundDuration":176865,"Delta":464696797},{"NoteNumber":60,"Velocity":38,"Duration":176866,"SoundDuration":176866,"Delta":464873663},{"NoteNumber":67,"Velocity":35,"Duration":176866,"SoundDuration":176866,"Delta":465050529},{"NoteNumber":74,"Velocity":48,"Duration":85275,"SoundDuration":85275,"Delta":465227395},{"NoteNumber":55,"Velocity":39,"Duration":170551,"SoundDuration":170551,"Delta":465227395},{"NoteNumber":76,"Velocity":45,"Duration":85275,"SoundDuration":85275,"Delta":465312671},{"NoteNumber":74,"Velocity":48,"Duration":85275,"SoundDuration":85275,"Delta":465397947},{"NoteNumber":65,"Velocity":30,"Duration":170551,"SoundDuration":170551,"Delta":465397947},{"NoteNumber":76,"Velocity":45,"Duration":85275,"SoundDuration":85275,"Delta":465483222},{"NoteNumber":74,"Velocity":48,"Duration":58955,"SoundDuration":58955,"Delta":465568498},{"NoteNumber":59,"Velocity":32,"Duration":176866,"SoundDuration":176866,"Delta":465568498},{"NoteNumber":76,"Velocity":46,"Duration":58955,"SoundDuration":58955,"Delta":465627453},{"NoteNumber":74,"Velocity":46,"Duration":58955,"SoundDuration":58955,"Delta":465687883},{"NoteNumber":72,"Velocity":51,"Duration":88433,"SoundDuration":88433,"Delta":465745364},{"NoteNumber":65,"Velocity":30,"Duration":176865,"SoundDuration":176865,"Delta":465745364},{"NoteNumber":74,"Velocity":48,"Duration":88432,"SoundDuration":88432,"Delta":465833797},{"NoteNumber":72,"Velocity":55,"Duration":353732,"SoundDuration":353732,"Delta":465922230},{"NoteNumber":48,"Velocity":35,"Duration":176866,"SoundDuration":176866,"Delta":465922230},{"NoteNumber":52,"Velocity":30,"Duration":176866,"SoundDuration":176866,"Delta":466099096},{"NoteNumber":60,"Velocity":32,"Duration":176865,"SoundDuration":176865,"Delta":466275962},{"NoteNumber":52,"Velocity":30,"Duration":176866,"SoundDuration":176866,"Delta":466452828},{"NoteNumber":67,"Velocity":50,"Duration":469016,"SoundDuration":469016,"Delta":466629694},{"NoteNumber":48,"Velocity":35,"Duration":170551,"SoundDuration":170551,"Delta":466629694},{"NoteNumber":52,"Velocity":30,"Duration":170551,"SoundDuration":170551,"Delta":466800246},{"NoteNumber":60,"Velocity":32,"Duration":170551,"SoundDuration":170551,"Delta":466970797},{"NoteNumber":71,"Velocity":48,"Duration":42637,"SoundDuration":42637,"Delta":467098711},{"NoteNumber":69,"Velocity":48,"Duration":85275,"SoundDuration":85275,"Delta":467141349},{"NoteNumber":52,"Velocity":30,"Duration":170551,"SoundDuration":170551,"Delta":467141349},{"NoteNumber":67,"Velocity":48,"Duration":85275,"SoundDuration":85275,"Delta":467226624},{"NoteNumber":79,"Velocity":57,"Duration":87894,"SoundDuration":87894,"Delta":467311900},{"NoteNumber":48,"Velocity":35,"Duration":175788,"SoundDuration":175788,"Delta":467311900},{"NoteNumber":50,"Velocity":30,"Duration":175788,"SoundDuration":175788,"Delta":467487688},{"NoteNumber":77,"Velocity":56,"Duration":87894,"SoundDuration":87894,"Delta":467663476},{"NoteNumber":59,"Velocity":32,"Duration":175787,"SoundDuration":175787,"Delta":467663476},{"NoteNumber":50,"Velocity":30,"Duration":175788,"SoundDuration":175788,"Delta":467839264},{"NoteNumber":76,"Velocity":54,"Duration":87894,"SoundDuration":87894,"Delta":468015052},{"NoteNumber":48,"Velocity":35,"Duration":175788,"SoundDuration":175788,"Delta":468015052},{"NoteNumber":53,"Velocity":30,"Duration":175788,"SoundDuration":175788,"Delta":468190840},{"NoteNumber":74,"Velocity":51,"Duration":87894,"SoundDuration":87894,"Delta":468366628},{"NoteNumber":59,"Velocity":32,"Duration":175788,"SoundDuration":175788,"Delta":468366628},{"NoteNumber":53,"Velocity":30,"Duration":175787,"SoundDuration":175787,"Delta":468542416},{"NoteNumber":72,"Velocity":55,"Duration":703152,"SoundDuration":703152,"Delta":468718204},{"NoteNumber":48,"Velocity":35,"Duration":175788,"SoundDuration":175788,"Delta":468718204},{"NoteNumber":52,"Velocity":30,"Duration":175788,"SoundDuration":175788,"Delta":468893992},{"NoteNumber":60,"Velocity":32,"Duration":175788,"SoundDuration":175788,"Delta":469069780},{"NoteNumber":52,"Velocity":30,"Duration":175788,"SoundDuration":175788,"Delta":469245568},{"NoteNumber":67,"Velocity":50,"Duration":469016,"SoundDuration":469016,"Delta":469421356},{"NoteNumber":48,"Velocity":35,"Duration":170551,"SoundDuration":170551,"Delta":469421356},{"NoteNumber":52,"Velocity":30,"Duration":170551,"SoundDuration":170551,"Delta":469591908},{"NoteNumber":60,"Velocity":32,"Duration":170551,"SoundDuration":170551,"Delta":469762459},{"NoteNumber":71,"Velocity":48,"Duration":42637,"SoundDuration":42637,"Delta":469890373},{"NoteNumber":69,"Velocity":48,"Duration":85275,"SoundDuration":85275,"Delta":469933011},{"NoteNumber":52,"Velocity":30,"Duration":170551,"SoundDuration":170551,"Delta":469933011},{"NoteNumber":67,"Velocity":48,"Duration":85275,"SoundDuration":85275,"Delta":470018286},{"NoteNumber":79,"Velocity":56,"Duration":88433,"SoundDuration":88433,"Delta":470103562},{"NoteNumber":48,"Velocity":35,"Duration":176866,"SoundDuration":176866,"Delta":470103562},{"NoteNumber":50,"Velocity":30,"Duration":176865,"SoundDuration":176865,"Delta":470280428},{"NoteNumber":77,"Velocity":53,"Duration":88433,"SoundDuration":88433,"Delta":470457294},{"NoteNumber":59,"Velocity":32,"Duration":176866,"SoundDuration":176866,"Delta":470457294},{"NoteNumber":50,"Velocity":30,"Duration":176866,"SoundDuration":176866,"Delta":470634160},{"NoteNumber":76,"Velocity":52,"Duration":88433,"SoundDuration":88433,"Delta":470811026},{"NoteNumber":48,"Velocity":35,"Duration":176865,"SoundDuration":176865,"Delta":470811026},{"NoteNumber":53,"Velocity":30,"Duration":176866,"SoundDuration":176866,"Delta":470987892},{"NoteNumber":74,"Velocity":49,"Duration":90678,"SoundDuration":90678,"Delta":471164758},{"NoteNumber":59,"Velocity":32,"Duration":181356,"SoundDuration":181356,"Delta":471164758},{"NoteNumber":53,"Velocity":30,"Duration":187500,"SoundDuration":187500,"Delta":471346115},{"NoteNumber":72,"Velocity":53,"Duration":353731,"SoundDuration":353731,"Delta":471533615},{"NoteNumber":48,"Velocity":35,"Duration":176866,"SoundDuration":176866,"Delta":471533615},{"NoteNumber":52,"Velocity":30,"Duration":176865,"SoundDuration":176865,"Delta":471710481},{"NoteNumber":60,"Velocity":32,"Duration":176866,"SoundDuration":176866,"Delta":471887347},{"NoteNumber":52,"Velocity":30,"Duration":176866,"SoundDuration":176866,"Delta":472064213},{"NoteNumber":67,"Velocity":56,"Duration":58955,"SoundDuration":58955,"Delta":472182123},{"NoteNumber":79,"Velocity":66,"Duration":511654,"SoundDuration":511654,"Delta":472241079},{"NoteNumber":48,"Velocity":35,"Duration":170551,"SoundDuration":170551,"Delta":472241079},{"NoteNumber":53,"Velocity":30,"Duration":170551,"SoundDuration":170551,"Delta":472411630},{"NoteNumber":59,"Velocity":32,"Duration":170551,"SoundDuration":170551,"Delta":472582182},{"NoteNumber":77,"Velocity":56,"Duration":56850,"SoundDuration":56850,"Delta":472752733},{"NoteNumber":53,"Velocity":30,"Duration":170551,"SoundDuration":170551,"Delta":472752733},{"NoteNumber":76,"Velocity":56,"Duration":56850,"SoundDuration":56850,"Delta":472809584},{"NoteNumber":74,"Velocity":52,"Duration":56850,"SoundDuration":56850,"Delta":472866434},{"NoteNumber":72,"Velocity":53,"Duration":353731,"SoundDuration":353731,"Delta":472923285},{"NoteNumber":48,"Velocity":35,"Duration":176866,"SoundDuration":176866,"Delta":472923285},{"NoteNumber":52,"Velocity":30,"Duration":176865,"SoundDuration":176865,"Delta":473100151},{"NoteNumber":60,"Velocity":32,"Duration":176866,"SoundDuration":176866,"Delta":473277017},{"NoteNumber":52,"Velocity":30,"Duration":176866,"SoundDuration":176866,"Delta":473453883},{"NoteNumber":67,"Velocity":56,"Duration":58955,"SoundDuration":58955,"Delta":473571793},{"NoteNumber":79,"Velocity":66,"Duration":511654,"SoundDuration":511654,"Delta":473630749},{"NoteNumber":48,"Velocity":35,"Duration":170551,"SoundDuration":170551,"Delta":473630749},{"NoteNumber":53,"Velocity":30,"Duration":170551,"SoundDuration":170551,"Delta":473801300},{"NoteNumber":59,"Velocity":32,"Duration":170551,"SoundDuration":170551,"Delta":473971852},{"NoteNumber":81,"Velocity":60,"Duration":85275,"SoundDuration":85275,"Delta":474142403},{"NoteNumber":53,"Velocity":30,"Duration":170551,"SoundDuration":170551,"Delta":474142403},{"NoteNumber":83,"Velocity":55,"Duration":85275,"SoundDuration":85275,"Delta":474227679},{"NoteNumber":84,"Velocity":67,"Duration":349446,"SoundDuration":349446,"Delta":474312955},{"NoteNumber":48,"Velocity":35,"Duration":174723,"SoundDuration":174723,"Delta":474312955},{"NoteNumber":52,"Velocity":30,"Duration":174723,"SoundDuration":174723,"Delta":474487678},{"NoteNumber":60,"Velocity":32,"Duration":174723,"SoundDuration":174723,"Delta":474662401},{"NoteNumber":52,"Velocity":31,"Duration":174723,"SoundDuration":174723,"Delta":474837124},{"NoteNumber":79,"Velocity":69,"Duration":108695,"SoundDuration":108695,"Delta":475011848},{"NoteNumber":48,"Velocity":41,"Duration":163043,"SoundDuration":163043,"Delta":475011848},{"NoteNumber":81,"Velocity":63,"Duration":108695,"SoundDuration":108695,"Delta":475120543},{"NoteNumber":53,"Velocity":35,"Duration":163043,"SoundDuration":163043,"Delta":475174891},{"NoteNumber":79,"Velocity":63,"Duration":108695,"SoundDuration":108695,"Delta":475229239},{"NoteNumber":77,"Velocity":65,"Duration":108695,"SoundDuration":108695,"Delta":475337935},{"NoteNumber":59,"Velocity":35,"Duration":163043,"SoundDuration":163043,"Delta":475337935},{"NoteNumber":76,"Velocity":63,"Duration":108695,"SoundDuration":108695,"Delta":475446630},{"NoteNumber":53,"Velocity":32,"Duration":163043,"SoundDuration":163043,"Delta":475500978},{"NoteNumber":74,"Velocity":59,"Duration":108695,"SoundDuration":108695,"Delta":475555326},{"NoteNumber":72,"Velocity":60,"Duration":351576,"SoundDuration":351576,"Delta":475664022},{"NoteNumber":48,"Velocity":35,"Duration":175788,"SoundDuration":175788,"Delta":475664022},{"NoteNumber":52,"Velocity":30,"Duration":175788,"SoundDuration":175788,"Delta":475839810},{"NoteNumber":60,"Velocity":32,"Duration":175787,"SoundDuration":175787,"Delta":476015598},{"NoteNumber":52,"Velocity":30,"Duration":175788,"SoundDuration":175788,"Delta":476191386},{"NoteNumber":78,"Velocity":72,"Duration":109890,"SoundDuration":109890,"Delta":476367174},{"NoteNumber":48,"Velocity":41,"Duration":164835,"SoundDuration":164835,"Delta":476367174},{"NoteNumber":79,"Velocity":65,"Duration":109890,"SoundDuration":109890,"Delta":476477064},{"NoteNumber":53,"Velocity":35,"Duration":164835,"SoundDuration":164835,"Delta":476532009},{"NoteNumber":80,"Velocity":66,"Duration":109890,"SoundDuration":109890,"Delta":476586954},{"NoteNumber":81,"Velocity":69,"Duration":109890,"SoundDuration":109890,"Delta":476696844},{"NoteNumber":59,"Velocity":32,"Duration":164835,"SoundDuration":164835,"Delta":476696844},{"NoteNumber":82,"Velocity":67,"Duration":109890,"SoundDuration":109890,"Delta":476806734},{"NoteNumber":53,"Velocity":30,"Duration":164835,"SoundDuration":164835,"Delta":476861679},{"NoteNumber":83,"Velocity":65,"Duration":109890,"SoundDuration":109890,"Delta":476916624},{"NoteNumber":84,"Velocity":60,"Duration":394737,"SoundDuration":394737,"Delta":477026515},{"NoteNumber":48,"Velocity":35,"Duration":757450,"SoundDuration":757450,"Delta":477026515},{"NoteNumber":52,"Velocity":35,"Duration":757450,"SoundDuration":757450,"Delta":477026515},{"NoteNumber":67,"Velocity":42,"Duration":272034,"SoundDuration":272034,"Delta":477421252},{"NoteNumber":72,"Velocity":42,"Duration":90678,"SoundDuration":90678,"Delta":477693286},{"NoteNumber":76,"Velocity":44,"Duration":93029,"SoundDuration":93029,"Delta":477783965},{"NoteNumber":65,"Velocity":41,"Duration":107142,"SoundDuration":107142,"Delta":478156081},{"NoteNumber":74,"Velocity":41,"Duration":107142,"SoundDuration":107142,"Delta":478156081},{"NoteNumber":56,"Velocity":33,"Duration":107142,"SoundDuration":107142,"Delta":478156081},{"NoteNumber":65,"Velocity":42,"Duration":810811,"SoundDuration":810811,"Delta":478584652},{"NoteNumber":74,"Velocity":42,"Duration":810811,"SoundDuration":810811,"Delta":478584652},{"NoteNumber":57,"Velocity":33,"Duration":1216216,"SoundDuration":1216216,"Delta":478584652},{"NoteNumber":64,"Velocity":36,"Duration":405405,"SoundDuration":405405,"Delta":479395463},{"NoteNumber":72,"Velocity":36,"Duration":405405,"SoundDuration":405405,"Delta":479395463},{"NoteNumber":81,"Velocity":82,"Duration":199999,"SoundDuration":199999,"Delta":480206274},{"NoteNumber":77,"Velocity":69,"Duration":199999,"SoundDuration":199999,"Delta":480206274},{"NoteNumber":74,"Velocity":69,"Duration":199999,"SoundDuration":199999,"Delta":480206274},{"NoteNumber":69,"Velocity":69,"Duration":199999,"SoundDuration":199999,"Delta":480206274},{"NoteNumber":41,"Velocity":52,"Duration":199999,"SoundDuration":199999,"Delta":480206274},{"NoteNumber":53,"Velocity":61,"Duration":199999,"SoundDuration":199999,"Delta":480206274},{"NoteNumber":62,"Velocity":69,"Duration":220588,"SoundDuration":220588,"Delta":481006274},{"NoteNumber":65,"Velocity":69,"Duration":220588,"SoundDuration":220588,"Delta":481006274},{"NoteNumber":67,"Velocity":69,"Duration":220588,"SoundDuration":220588,"Delta":481006274},{"NoteNumber":71,"Velocity":82,"Duration":220588,"SoundDuration":220588,"Delta":481006274},{"NoteNumber":43,"Velocity":52,"Duration":220588,"SoundDuration":220588,"Delta":481006274},{"NoteNumber":55,"Velocity":61,"Duration":220588,"SoundDuration":220588,"Delta":481006274},{"NoteNumber":67,"Velocity":69,"Duration":211267,"SoundDuration":211267,"Delta":481888627},{"NoteNumber":60,"Velocity":69,"Duration":211267,"SoundDuration":211267,"Delta":481888627},{"NoteNumber":64,"Velocity":69,"Duration":211267,"SoundDuration":211267,"Delta":481888627},{"NoteNumber":72,"Velocity":82,"Duration":211267,"SoundDuration":211267,"Delta":481888627},{"NoteNumber":36,"Velocity":49,"Duration":211267,"SoundDuration":211267,"Delta":481888627},{"NoteNumber":40,"Velocity":49,"Duration":211267,"SoundDuration":211267,"Delta":481888627},{"NoteNumber":43,"Velocity":49,"Duration":211267,"SoundDuration":211267,"Delta":481888627},{"NoteNumber":48,"Velocity":59,"Duration":211267,"SoundDuration":211267,"Delta":481888627}]}