{"title":"4. Mazurka","artist":"Piano","durationMs":189265,"midiSha256":"7a66b858167453717cb8dc0f26e80053d1cdbf0931e5f4806016f6306694fe6d","midiObject":[{"NoteNumber":48,"Velocity":44,"Duration":239044,"SoundDuration":239044,"Delta":0},{"NoteNumber":56,"Velocity":34,"Duration":240000,"SoundDuration":240000,"Delta":478088},{"NoteNumber":54,"Velocity":28,"Duration":240000,"SoundDuration":240000,"Delta":478088},{"NoteNumber":53,"Velocity":49,"Duration":714375,"SoundDuration":714375,"Delta":478088},{"NoteNumber":54,"Velocity":28,"Duration":234375,"SoundDuration":234375,"Delta":958088},{"NoteNumber":56,"Velocity":34,"Duration":234375,"SoundDuration":234375,"Delta":958088},{"NoteNumber":51,"Velocity":44,"Duration":227272,"SoundDuration":227272,"Delta":1192463},{"NoteNumber":53,"Velocity":49,"Duration":343511,"SoundDuration":343511,"Delta":1419735},{"NoteNumber":54,"Velocity":45,"Duration":114503,"SoundDuration":114503,"Delta":1763246},{"NoteNumber":61,"Velocity":33,"Duration":235293,"SoundDuration":235293,"Delta":1877750},{"NoteNumber":65,"Velocity":39,"Duration":235293,"SoundDuration":235293,"Delta":1877750},{"NoteNumber":56,"Velocity":48,"Duration":470588,"SoundDuration":470588,"Delta":1877750},{"NoteNumber":61,"Velocity":35,"Duration":224718,"SoundDuration":224718,"Delta":2348338},{"NoteNumber":65,"Velocity":41,"Duration":224718,"SoundDuration":224718,"Delta":2348338},{"NoteNumber":58,"Velocity":47,"Duration":224718,"SoundDuration":224718,"Delta":2348338},{"NoteNumber":61,"Velocity":49,"Duration":233462,"SoundDuration":233462,"Delta":2573057},{"NoteNumber":61,"Velocity":53,"Duration":343511,"SoundDuration":343511,"Delta":2806520},{"NoteNumber":60,"Velocity":47,"Duration":59288,"SoundDuration":59288,"Delta":3150031},{"NoteNumber":61,"Velocity":50,"Duration":59288,"SoundDuration":59288,"Delta":3209320},{"NoteNumber":68,"Velocity":40,"Duration":220588,"SoundDuration":220588,"Delta":3268608},{"NoteNumber":63,"Velocity":34,"Duration":220588,"SoundDuration":220588,"Delta":3268608},{"NoteNumber":66,"Velocity":34,"Duration":220588,"SoundDuration":220588,"Delta":3268608},{"NoteNumber":60,"Velocity":55,"Duration":220588,"SoundDuration":220588,"Delta":3268608},{"NoteNumber":58,"Velocity":50,"Duration":226414,"SoundDuration":226414,"Delta":3489196},{"NoteNumber":66,"Velocity":34,"Duration":223880,"SoundDuration":223880,"Delta":3715611},{"NoteNumber":68,"Velocity":40,"Duration":223880,"SoundDuration":223880,"Delta":3715611},{"NoteNumber":63,"Velocity":34,"Duration":223880,"SoundDuration":223880,"Delta":3715611},{"NoteNumber":60,"Velocity":54,"Duration":223880,"SoundDuration":223880,"Delta":3715611},{"NoteNumber":56,"Velocity":49,"Duration":229007,"SoundDuration":229007,"Delta":3939492},{"NoteNumber":58,"Velocity":52,"Duration":342205,"SoundDuration":342205,"Delta":4168499},{"NoteNumber":56,"Velocity":44,"Duration":59288,"SoundDuration":59288,"Delta":4510705},{"NoteNumber":58,"Velocity":44,"Duration":59288,"SoundDuration":59288,"Delta":4569993},{"NoteNumber":65,"Velocity":30,"Duration":225208,"SoundDuration":225208,"Delta":4629282},{"NoteNumber":68,"Velocity":36,"Duration":225208,"SoundDuration":225208,"Delta":4629282},{"NoteNumber":61,"Velocity":30,"Duration":225208,"SoundDuration":225208,"Delta":4629282},{"NoteNumber":56,"Velocity":52,"Duration":225208,"SoundDuration":225208,"Delta":4629282},{"NoteNumber":53,"Velocity":46,"Duration":231017,"SoundDuration":231017,"Delta":4854490},{"NoteNumber":68,"Velocity":35,"Duration":231018,"SoundDuration":231018,"Delta":5085508},{"NoteNumber":65,"Velocity":29,"Duration":231018,"SoundDuration":231018,"Delta":5085508},{"NoteNumber":61,"Velocity":29,"Duration":231018,"SoundDuration":231018,"Delta":5085508},{"NoteNumber":49,"Velocity":49,"Duration":231018,"SoundDuration":231018,"Delta":5085508},{"NoteNumber":53,"Velocity":45,"Duration":236220,"SoundDuration":236220,"Delta":5316526},{"NoteNumber":48,"Velocity":48,"Duration":238095,"SoundDuration":238095,"Delta":5552747},{"NoteNumber":54,"Velocity":28,"Duration":230768,"SoundDuration":230768,"Delta":6028937},{"NoteNumber":56,"Velocity":34,"Duration":230768,"SoundDuration":230768,"Delta":6028937},{"NoteNumber":53,"Velocity":52,"Duration":688810,"SoundDuration":688810,"Delta":6028937},{"NoteNumber":54,"Velocity":28,"Duration":227272,"SoundDuration":227272,"Delta":6490475},{"NoteNumber":56,"Velocity":34,"Duration":227272,"SoundDuration":227272,"Delta":6490475},{"NoteNumber":51,"Velocity":46,"Duration":221402,"SoundDuration":221402,"Delta":6717747},{"NoteNumber":53,"Velocity":50,"Duration":342205,"SoundDuration":342205,"Delta":6939149},{"NoteNumber":54,"Velocity":47,"Duration":114068,"SoundDuration":114068,"Delta":7281355},{"NoteNumber":65,"Velocity":39,"Duration":235293,"SoundDuration":235293,"Delta":7395423},{"NoteNumber":61,"Velocity":33,"Duration":235293,"SoundDuration":235293,"Delta":7395423},{"NoteNumber":56,"Velocity":52,"Duration":470588,"SoundDuration":470588,"Delta":7395423},{"NoteNumber":65,"Velocity":41,"Duration":220588,"SoundDuration":220588,"Delta":7866011},{"NoteNumber":61,"Velocity":35,"Duration":220588,"SoundDuration":220588,"Delta":7866011},{"NoteNumber":58,"Velocity":46,"Duration":220588,"SoundDuration":220588,"Delta":7866011},{"NoteNumber":61,"Velocity":49,"Duration":228137,"SoundDuration":228137,"Delta":8086599},{"NoteNumber":61,"Velocity":53,"Duration":444444,"SoundDuration":444444,"Delta":8314736},{"NoteNumber":64,"Velocity":34,"Duration":223880,"SoundDuration":223880,"Delta":8759180},{"NoteNumber":67,"Velocity":40,"Duration":223880,"SoundDuration":223880,"Delta":8759180},{"NoteNumber":60,"Velocity":54,"Duration":223880,"SoundDuration":223880,"Delta":8759180},{"NoteNumber":61,"Velocity":50,"Duration":229007,"SoundDuration":229007,"Delta":8983061},{"NoteNumber":64,"Velocity":34,"Duration":225564,"SoundDuration":225564,"Delta":9212068},{"NoteNumber":67,"Velocity":40,"Duration":225564,"SoundDuration":225564,"Delta":9212068},{"NoteNumber":60,"Velocity":54,"Duration":225564,"SoundDuration":225564,"Delta":9212068},{"NoteNumber":58,"Velocity":49,"Duration":234484,"SoundDuration":234484,"Delta":9437632},{"NoteNumber":57,"Velocity":52,"Duration":346527,"SoundDuration":346527,"Delta":9672117},{"NoteNumber":58,"Velocity":44,"Duration":115508,"SoundDuration":115508,"Delta":10018644},{"NoteNumber":65,"Velocity":30,"Duration":227272,"SoundDuration":227272,"Delta":10134153},{"NoteNumber":69,"Velocity":36,"Duration":227272,"SoundDuration":227272,"Delta":10134153},{"NoteNumber":60,"Velocity":52,"Duration":454544,"SoundDuration":454544,"Delta":10134153},{"NoteNumber":69,"Velocity":35,"Duration":237154,"SoundDuration":237154,"Delta":10588698},{"NoteNumber":65,"Velocity":29,"Duration":237154,"SoundDuration":237154,"Delta":10588698},{"NoteNumber":48,"Velocity":49,"Duration":237154,"SoundDuration":237154,"Delta":10588698},{"NoteNumber":62,"Velocity":55,"Duration":235293,"SoundDuration":235293,"Delta":11063006},{"NoteNumber":59,"Velocity":41,"Duration":928602,"SoundDuration":928602,"Delta":11063006},{"NoteNumber":69,"Velocity":62,"Duration":682734,"SoundDuration":682734,"Delta":11533594},{"NoteNumber":64,"Velocity":41,"Duration":903321,"SoundDuration":903321,"Delta":11533594},{"NoteNumber":60,"Velocity":43,"Duration":903321,"SoundDuration":903321,"Delta":11533594},{"NoteNumber":58,"Velocity":41,"Duration":445306,"SoundDuration":445306,"Delta":11991609},{"NoteNumber":67,"Velocity":55,"Duration":220587,"SoundDuration":220587,"Delta":12216328},{"NoteNumber":69,"Velocity":63,"Duration":339622,"SoundDuration":339622,"Delta":12436916},{"NoteNumber":65,"Velocity":41,"Duration":912988,"SoundDuration":912988,"Delta":12436916},{"NoteNumber":57,"Velocity":41,"Duration":912988,"SoundDuration":912988,"Delta":12436916},{"NoteNumber":70,"Velocity":62,"Duration":113207,"SoundDuration":113207,"Delta":12776539},{"NoteNumber":72,"Velocity":60,"Duration":460157,"SoundDuration":460157,"Delta":12889746},{"NoteNumber":60,"Velocity":45,"Duration":911597,"SoundDuration":911597,"Delta":12889746},{"NoteNumber":74,"Velocity":60,"Duration":219780,"SoundDuration":219780,"Delta":13349904},{"NoteNumber":65,"Velocity":41,"Duration":451439,"SoundDuration":451439,"Delta":13349904},{"NoteNumber":56,"Velocity":44,"Duration":451439,"SoundDuration":451439,"Delta":13349904},{"NoteNumber":77,"Velocity":56,"Duration":231659,"SoundDuration":231659,"Delta":13569684},{"NoteNumber":70,"Velocity":43,"Duration":448623,"SoundDuration":448623,"Delta":13801344},{"NoteNumber":77,"Velocity":59,"Duration":338345,"SoundDuration":338345,"Delta":13801344},{"NoteNumber":54,"Velocity":46,"Duration":898982,"SoundDuration":898982,"Delta":13801344},{"NoteNumber":76,"Velocity":56,"Duration":55139,"SoundDuration":55139,"Delta":14139690},{"NoteNumber":77,"Velocity":56,"Duration":55138,"SoundDuration":55138,"Delta":14194829},{"NoteNumber":70,"Velocity":42,"Duration":450359,"SoundDuration":450359,"Delta":14249968},{"NoteNumber":76,"Velocity":65,"Duration":222222,"SoundDuration":222222,"Delta":14249968},{"NoteNumber":60,"Velocity":51,"Duration":2252830,"SoundDuration":2252830,"Delta":14249968},{"NoteNumber":74,"Velocity":60,"Duration":228137,"SoundDuration":228137,"Delta":14472190},{"NoteNumber":76,"Velocity":65,"Duration":224232,"SoundDuration":224232,"Delta":14700327},{"NoteNumber":70,"Velocity":43,"Duration":452369,"SoundDuration":452369,"Delta":14700327},{"NoteNumber":48,"Velocity":47,"Duration":452369,"SoundDuration":452369,"Delta":14700327},{"NoteNumber":72,"Velocity":59,"Duration":228137,"SoundDuration":228137,"Delta":14924559},{"NoteNumber":74,"Velocity":60,"Duration":334622,"SoundDuration":334622,"Delta":15152696},{"NoteNumber":65,"Velocity":41,"Duration":450568,"SoundDuration":450568,"Delta":15152696},{"NoteNumber":56,"Velocity":44,"Duration":450568,"SoundDuration":450568,"Delta":15152696},{"NoteNumber":72,"Velocity":49,"Duration":57973,"SoundDuration":57973,"Delta":15487319},{"NoteNumber":74,"Velocity":44,"Duration":57973,"SoundDuration":57973,"Delta":15545292},{"NoteNumber":72,"Velocity":58,"Duration":218977,"SoundDuration":218977,"Delta":15603265},{"NoteNumber":65,"Velocity":41,"Duration":443764,"SoundDuration":443764,"Delta":15603265},{"NoteNumber":57,"Velocity":44,"Duration":443764,"SoundDuration":443764,"Delta":15603265},{"NoteNumber":69,"Velocity":52,"Duration":224786,"SoundDuration":224786,"Delta":15822243},{"NoteNumber":65,"Velocity":56,"Duration":455769,"SoundDuration":455769,"Delta":16047030},{"NoteNumber":48,"Velocity":36,"Duration":455769,"SoundDuration":455769,"Delta":16047030},{"NoteNumber":69,"Velocity":50,"Duration":230982,"SoundDuration":230982,"Delta":16271816},{"NoteNumber":62,"Velocity":55,"Duration":231892,"SoundDuration":231892,"Delta":16502799},{"NoteNumber":59,"Velocity":41,"Duration":922150,"SoundDuration":922150,"Delta":16502799},{"NoteNumber":69,"Velocity":62,"Duration":680586,"SoundDuration":680586,"Delta":16966585},{"NoteNumber":64,"Velocity":41,"Duration":900366,"SoundDuration":900366,"Delta":16966585},{"NoteNumber":60,"Velocity":46,"Duration":900366,"SoundDuration":900366,"Delta":16966585},{"NoteNumber":58,"Velocity":41,"Duration":442001,"SoundDuration":442001,"Delta":17424950},{"NoteNumber":67,"Velocity":58,"Duration":219780,"SoundDuration":219780,"Delta":17647171},{"NoteNumber":65,"Velocity":41,"Duration":910271,"SoundDuration":910271,"Delta":17866951},{"NoteNumber":69,"Velocity":63,"Duration":337584,"SoundDuration":337584,"Delta":17866951},{"NoteNumber":57,"Velocity":41,"Duration":910271,"SoundDuration":910271,"Delta":17866951},{"NoteNumber":70,"Velocity":61,"Duration":112528,"SoundDuration":112528,"Delta":18204536},{"NoteNumber":72,"Velocity":62,"Duration":460157,"SoundDuration":460157,"Delta":18317065},{"NoteNumber":60,"Velocity":50,"Duration":770897,"SoundDuration":770897,"Delta":18317065},{"NoteNumber":74,"Velocity":64,"Duration":310739,"SoundDuration":310739,"Delta":18777223},{"NoteNumber":65,"Velocity":44,"Duration":310739,"SoundDuration":310739,"Delta":18777223},{"NoteNumber":56,"Velocity":44,"Duration":310739,"SoundDuration":310739,"Delta":18777223},{"NoteNumber":55,"Velocity":46,"Duration":660697,"SoundDuration":660697,"Delta":19087962},{"NoteNumber":64,"Velocity":55,"Duration":471415,"SoundDuration":471415,"Delta":19161297},{"NoteNumber":70,"Velocity":60,"Duration":398080,"SoundDuration":398080,"Delta":19234632},{"NoteNumber":74,"Velocity":69,"Duration":324745,"SoundDuration":324745,"Delta":19307968},{"NoteNumber":72,"Velocity":53,"Duration":57973,"SoundDuration":57973,"Delta":19632713},{"NoteNumber":74,"Velocity":55,"Duration":57973,"SoundDuration":57973,"Delta":19690686},{"NoteNumber":72,"Velocity":59,"Duration":217296,"SoundDuration":217296,"Delta":19748660},{"NoteNumber":60,"Velocity":51,"Duration":893873,"SoundDuration":893873,"Delta":19748660},{"NoteNumber":70,"Velocity":51,"Duration":225886,"SoundDuration":225886,"Delta":19965957},{"NoteNumber":69,"Velocity":55,"Duration":221402,"SoundDuration":221402,"Delta":20191843},{"NoteNumber":67,"Velocity":48,"Duration":229287,"SoundDuration":229287,"Delta":20413245},{"NoteNumber":72,"Velocity":62,"Duration":338829,"SoundDuration":338829,"Delta":20642533},{"NoteNumber":69,"Velocity":44,"Duration":338829,"SoundDuration":338829,"Delta":20642533},{"NoteNumber":64,"Velocity":44,"Duration":338829,"SoundDuration":338829,"Delta":20642533},{"NoteNumber":58,"Velocity":44,"Duration":454776,"SoundDuration":454776,"Delta":20642533},{"NoteNumber":67,"Velocity":52,"Duration":57973,"SoundDuration":57973,"Delta":20981362},{"NoteNumber":69,"Velocity":47,"Duration":57973,"SoundDuration":57973,"Delta":21039336},{"NoteNumber":67,"Velocity":59,"Duration":218102,"SoundDuration":218102,"Delta":21097309},{"NoteNumber":60,"Velocity":40,"Duration":741607,"SoundDuration":741607,"Delta":21097309},{"NoteNumber":65,"Velocity":55,"Duration":225886,"SoundDuration":225886,"Delta":21315411},{"NoteNumber":64,"Velocity":57,"Duration":297618,"SoundDuration":297618,"Delta":21541298},{"NoteNumber":53,"Velocity":46,"Duration":624984,"SoundDuration":624984,"Delta":21838917},{"NoteNumber":58,"Velocity":46,"Duration":453055,"SoundDuration":453055,"Delta":21894899},{"NoteNumber":62,"Velocity":50,"Duration":397072,"SoundDuration":397072,"Delta":21950882},{"NoteNumber":69,"Velocity":57,"Duration":341090,"SoundDuration":341090,"Delta":22006865},{"NoteNumber":67,"Velocity":41,"Duration":57973,"SoundDuration":57973,"Delta":22347955},{"NoteNumber":69,"Velocity":40,"Duration":57973,"SoundDuration":57973,"Delta":22405928},{"NoteNumber":67,"Velocity":47,"Duration":220216,"SoundDuration":220216,"Delta":22463901},{"NoteNumber":58,"Velocity":38,"Duration":918926,"SoundDuration":918926,"Delta":22463901},{"NoteNumber":65,"Velocity":40,"Duration":225886,"SoundDuration":225886,"Delta":22684117},{"NoteNumber":64,"Velocity":46,"Duration":224232,"SoundDuration":224232,"Delta":22910004},{"NoteNumber":62,"Velocity":40,"Duration":248591,"SoundDuration":248591,"Delta":23134236},{"NoteNumber":58,"Velocity":38,"Duration":1489472,"SoundDuration":1489472,"Delta":23382827},{"NoteNumber":60,"Velocity":38,"Duration":1489472,"SoundDuration":1489472,"Delta":23382827},{"NoteNumber":53,"Velocity":45,"Duration":356294,"SoundDuration":356294,"Delta":23382827},{"NoteNumber":52,"Velocity":38,"Duration":62682,"SoundDuration":62682,"Delta":23739122},{"NoteNumber":53,"Velocity":34,"Duration":62682,"SoundDuration":62682,"Delta":23801804},{"NoteNumber":52,"Velocity":42,"Duration":243446,"SoundDuration":243446,"Delta":23864487},{"NoteNumber":50,"Velocity":39,"Duration":260756,"SoundDuration":260756,"Delta":24107934},{"NoteNumber":48,"Velocity":37,"Duration":503609,"SoundDuration":503609,"Delta":24368690},{"NoteNumber":48,"Velocity":41,"Duration":239043,"SoundDuration":239043,"Delta":24872299},{"NoteNumber":56,"Velocity":34,"Duration":239999,"SoundDuration":239999,"Delta":25350387},{"NoteNumber":54,"Velocity":28,"Duration":239999,"SoundDuration":239999,"Delta":25350387},{"NoteNumber":53,"Velocity":51,"Duration":714375,"SoundDuration":714375,"Delta":25350387},{"NoteNumber":54,"Velocity":28,"Duration":234375,"SoundDuration":234375,"Delta":25830387},{"NoteNumber":56,"Velocity":34,"Duration":234375,"SoundDuration":234375,"Delta":25830387},{"NoteNumber":51,"Velocity":46,"Duration":227272,"SoundDuration":227272,"Delta":26064762},{"NoteNumber":53,"Velocity":51,"Duration":343511,"SoundDuration":343511,"Delta":26292035},{"NoteNumber":54,"Velocity":46,"Duration":114503,"SoundDuration":114503,"Delta":26635546},{"NoteNumber":65,"Velocity":39,"Duration":235293,"SoundDuration":235293,"Delta":26750050},{"NoteNumber":61,"Velocity":33,"Duration":235293,"SoundDuration":235293,"Delta":26750050},{"NoteNumber":56,"Velocity":51,"Duration":470587,"SoundDuration":470587,"Delta":26750050},{"NoteNumber":61,"Velocity":35,"Duration":224719,"SoundDuration":224719,"Delta":27220638},{"NoteNumber":65,"Velocity":41,"Duration":224719,"SoundDuration":224719,"Delta":27220638},{"NoteNumber":58,"Velocity":47,"Duration":224719,"SoundDuration":224719,"Delta":27220638},{"NoteNumber":61,"Velocity":50,"Duration":233463,"SoundDuration":233463,"Delta":27445357},{"NoteNumber":61,"Velocity":53,"Duration":343511,"SoundDuration":343511,"Delta":27678820},{"NoteNumber":60,"Velocity":47,"Duration":59288,"SoundDuration":59288,"Delta":28022331},{"NoteNumber":61,"Velocity":52,"Duration":59288,"SoundDuration":59288,"Delta":28081620},{"NoteNumber":63,"Velocity":34,"Duration":220587,"SoundDuration":220587,"Delta":28140908},{"NoteNumber":68,"Velocity":40,"Duration":220587,"SoundDuration":220587,"Delta":28140908},{"NoteNumber":66,"Velocity":34,"Duration":220587,"SoundDuration":220587,"Delta":28140908},{"NoteNumber":60,"Velocity":54,"Duration":220587,"SoundDuration":220587,"Delta":28140908},{"NoteNumber":58,"Velocity":50,"Duration":226414,"SoundDuration":226414,"Delta":28361496},{"NoteNumber":66,"Velocity":34,"Duration":223880,"SoundDuration":223880,"Delta":28587911},{"NoteNumber":68,"Velocity":40,"Duration":223880,"SoundDuration":223880,"Delta":28587911},{"NoteNumber":63,"Velocity":34,"Duration":223880,"SoundDuration":223880,"Delta":28587911},{"NoteNumber":60,"Velocity":54,"Duration":223880,"SoundDuration":223880,"Delta":28587911},{"NoteNumber":56,"Velocity":49,"Duration":229007,"SoundDuration":229007,"Delta":28811792},{"NoteNumber":58,"Velocity":52,"Duration":342205,"SoundDuration":342205,"Delta":29040799},{"NoteNumber":56,"Velocity":44,"Duration":59288,"SoundDuration":59288,"Delta":29383005},{"NoteNumber":58,"Velocity":44,"Duration":59288,"SoundDuration":59288,"Delta":29442293},{"NoteNumber":68,"Velocity":36,"Duration":225208,"SoundDuration":225208,"Delta":29501582},{"NoteNumber":65,"Velocity":30,"Duration":225208,"SoundDuration":225208,"Delta":29501582},{"NoteNumber":61,"Velocity":30,"Duration":225208,"SoundDuration":225208,"Delta":29501582},{"NoteNumber":56,"Velocity":52,"Duration":225208,"SoundDuration":225208,"Delta":29501582},{"NoteNumber":53,"Velocity":46,"Duration":231017,"SoundDuration":231017,"Delta":29726790},{"NoteNumber":65,"Velocity":29,"Duration":231018,"SoundDuration":231018,"Delta":29957808},{"NoteNumber":61,"Velocity":29,"Duration":231018,"SoundDuration":231018,"Delta":29957808},{"NoteNumber":68,"Velocity":35,"Duration":231018,"SoundDuration":231018,"Delta":29957808},{"NoteNumber":49,"Velocity":49,"Duration":231018,"SoundDuration":231018,"Delta":29957808},{"NoteNumber":53,"Velocity":45,"Duration":236220,"SoundDuration":236220,"Delta":30188826},{"NoteNumber":48,"Velocity":47,"Duration":238095,"SoundDuration":238095,"Delta":30425047},{"NoteNumber":56,"Velocity":34,"Duration":230768,"SoundDuration":230768,"Delta":30901237},{"NoteNumber":54,"Velocity":28,"Duration":230768,"SoundDuration":230768,"Delta":30901237},{"NoteNumber":53,"Velocity":52,"Duration":688810,"SoundDuration":688810,"Delta":30901237},{"NoteNumber":54,"Velocity":28,"Duration":227272,"SoundDuration":227272,"Delta":31362775},{"NoteNumber":56,"Velocity":34,"Duration":227272,"SoundDuration":227272,"Delta":31362775},{"NoteNumber":51,"Velocity":48,"Duration":222221,"SoundDuration":222221,"Delta":31590047},{"NoteNumber":53,"Velocity":52,"Duration":342205,"SoundDuration":342205,"Delta":31812269},{"NoteNumber":54,"Velocity":47,"Duration":114068,"SoundDuration":114068,"Delta":32154475},{"NoteNumber":65,"Velocity":39,"Duration":235294,"SoundDuration":235294,"Delta":32268543},{"NoteNumber":61,"Velocity":33,"Duration":235294,"SoundDuration":235294,"Delta":32268543},{"NoteNumber":56,"Velocity":52,"Duration":470587,"SoundDuration":470587,"Delta":32268543},{"NoteNumber":65,"Velocity":41,"Duration":222222,"SoundDuration":222222,"Delta":32739131},{"NoteNumber":61,"Velocity":35,"Duration":222222,"SoundDuration":222222,"Delta":32739131},{"NoteNumber":58,"Velocity":47,"Duration":222222,"SoundDuration":222222,"Delta":32739131},{"NoteNumber":61,"Velocity":50,"Duration":228136,"SoundDuration":228136,"Delta":32961353},{"NoteNumber":61,"Velocity":53,"Duration":447760,"SoundDuration":447760,"Delta":33189490},{"NoteNumber":64,"Velocity":34,"Duration":225563,"SoundDuration":225563,"Delta":33637251},{"NoteNumber":67,"Velocity":40,"Duration":225563,"SoundDuration":225563,"Delta":33637251},{"NoteNumber":60,"Velocity":54,"Duration":225563,"SoundDuration":225563,"Delta":33637251},{"NoteNumber":61,"Velocity":50,"Duration":229007,"SoundDuration":229007,"Delta":33862815},{"NoteNumber":64,"Velocity":34,"Duration":225563,"SoundDuration":225563,"Delta":34091823},{"NoteNumber":67,"Velocity":40,"Duration":225563,"SoundDuration":225563,"Delta":34091823},{"NoteNumber":60,"Velocity":54,"Duration":225563,"SoundDuration":225563,"Delta":34091823},{"NoteNumber":58,"Velocity":49,"Duration":234484,"SoundDuration":234484,"Delta":34317387},{"NoteNumber":56,"Velocity":52,"Duration":346527,"SoundDuration":346527,"Delta":34551872},{"NoteNumber":58,"Velocity":44,"Duration":115508,"SoundDuration":115508,"Delta":34898399},{"NoteNumber":65,"Velocity":30,"Duration":227272,"SoundDuration":227272,"Delta":35013908},{"NoteNumber":68,"Velocity":36,"Duration":227272,"SoundDuration":227272,"Delta":35013908},{"NoteNumber":60,"Velocity":52,"Duration":454545,"SoundDuration":454545,"Delta":35013908},{"NoteNumber":68,"Velocity":35,"Duration":237153,"SoundDuration":237153,"Delta":35468453},{"NoteNumber":65,"Velocity":29,"Duration":237153,"SoundDuration":237153,"Delta":35468453},{"NoteNumber":48,"Velocity":49,"Duration":237153,"SoundDuration":237153,"Delta":35468453},{"NoteNumber":70,"Velocity":60,"Duration":235294,"SoundDuration":235294,"Delta":35942761},{"NoteNumber":43,"Velocity":38,"Duration":928603,"SoundDuration":928603,"Delta":35942761},{"NoteNumber":55,"Velocity":46,"Duration":928603,"SoundDuration":928603,"Delta":35942761},{"NoteNumber":72,"Velocity":46,"Duration":901217,"SoundDuration":901217,"Delta":36413349},{"NoteNumber":77,"Velocity":70,"Duration":682734,"SoundDuration":682734,"Delta":36413349},{"NoteNumber":56,"Velocity":51,"Duration":901217,"SoundDuration":901217,"Delta":36413349},{"NoteNumber":42,"Velocity":38,"Duration":443202,"SoundDuration":443202,"Delta":36871364},{"NoteNumber":54,"Velocity":46,"Duration":443202,"SoundDuration":443202,"Delta":36871364},{"NoteNumber":75,"Velocity":60,"Duration":218483,"SoundDuration":218483,"Delta":37096083},{"NoteNumber":77,"Velocity":70,"Duration":327725,"SoundDuration":327725,"Delta":37314566},{"NoteNumber":73,"Velocity":46,"Duration":898896,"SoundDuration":898896,"Delta":37314566},{"NoteNumber":41,"Velocity":38,"Duration":898896,"SoundDuration":898896,"Delta":37314566},{"NoteNumber":53,"Velocity":46,"Duration":898896,"SoundDuration":898896,"Delta":37314566},{"NoteNumber":78,"Velocity":68,"Duration":109241,"SoundDuration":109241,"Delta":37642291},{"NoteNumber":80,"Velocity":65,"Duration":461928,"SoundDuration":461928,"Delta":37751533},{"NoteNumber":56,"Velocity":56,"Duration":908932,"SoundDuration":908932,"Delta":37751533},{"NoteNumber":73,"Velocity":40,"Duration":447003,"SoundDuration":447003,"Delta":38213462},{"NoteNumber":80,"Velocity":40,"Duration":447003,"SoundDuration":447003,"Delta":38213462},{"NoteNumber":82,"Velocity":66,"Duration":220587,"SoundDuration":220587,"Delta":38213462},{"NoteNumber":40,"Velocity":41,"Duration":447003,"SoundDuration":447003,"Delta":38213462},{"NoteNumber":52,"Velocity":49,"Duration":447003,"SoundDuration":447003,"Delta":38213462},{"NoteNumber":85,"Velocity":62,"Duration":226415,"SoundDuration":226415,"Delta":38434050},{"NoteNumber":78,"Velocity":49,"Duration":447880,"SoundDuration":447880,"Delta":38660465},{"NoteNumber":73,"Velocity":49,"Duration":447880,"SoundDuration":447880,"Delta":38660465},{"NoteNumber":85,"Velocity":66,"Duration":337179,"SoundDuration":337179,"Delta":38660465},{"NoteNumber":39,"Velocity":43,"Duration":890739,"SoundDuration":890739,"Delta":38660465},{"NoteNumber":51,"Velocity":52,"Duration":890739,"SoundDuration":890739,"Delta":38660465},{"NoteNumber":84,"Velocity":59,"Duration":55350,"SoundDuration":55350,"Delta":38997645},{"NoteNumber":85,"Velocity":57,"Duration":55350,"SoundDuration":55350,"Delta":39052995},{"NoteNumber":84,"Velocity":67,"Duration":218977,"SoundDuration":218977,"Delta":39108346},{"NoteNumber":72,"Velocity":41,"Duration":442858,"SoundDuration":442858,"Delta":39108346},{"NoteNumber":78,"Velocity":41,"Duration":442858,"SoundDuration":442858,"Delta":39108346},{"NoteNumber":56,"Velocity":57,"Duration":895248,"SoundDuration":895248,"Delta":39108346},{"NoteNumber":82,"Velocity":64,"Duration":223880,"SoundDuration":223880,"Delta":39327324},{"NoteNumber":72,"Velocity":43,"Duration":452389,"SoundDuration":452389,"Delta":39551204},{"NoteNumber":84,"Velocity":67,"Duration":222222,"SoundDuration":222222,"Delta":39551204},{"NoteNumber":78,"Velocity":43,"Duration":452389,"SoundDuration":452389,"Delta":39551204},{"NoteNumber":32,"Velocity":44,"Duration":452389,"SoundDuration":452389,"Delta":39551204},{"NoteNumber":44,"Velocity":53,"Duration":452389,"SoundDuration":452389,"Delta":39551204},{"NoteNumber":80,"Velocity":63,"Duration":230167,"SoundDuration":230167,"Delta":39773426},{"NoteNumber":82,"Velocity":66,"Duration":335895,"SoundDuration":335895,"Delta":40003594},{"NoteNumber":73,"Velocity":46,"Duration":452291,"SoundDuration":452291,"Delta":40003594},{"NoteNumber":40,"Velocity":41,"Duration":452291,"SoundDuration":452291,"Delta":40003594},{"NoteNumber":52,"Velocity":49,"Duration":452291,"SoundDuration":452291,"Delta":40003594},{"NoteNumber":80,"Velocity":55,"Duration":58198,"SoundDuration":58198,"Delta":40339490},{"NoteNumber":82,"Velocity":50,"Duration":58198,"SoundDuration":58198,"Delta":40397688},{"NoteNumber":80,"Velocity":66,"Duration":219748,"SoundDuration":219748,"Delta":40455886},{"NoteNumber":73,"Velocity":44,"Duration":445396,"SoundDuration":445396,"Delta":40455886},{"NoteNumber":41,"Velocity":41,"Duration":445396,"SoundDuration":445396,"Delta":40455886},{"NoteNumber":53,"Velocity":49,"Duration":445396,"SoundDuration":445396,"Delta":40455886},{"NoteNumber":77,"Velocity":57,"Duration":225648,"SoundDuration":225648,"Delta":40675634},{"NoteNumber":73,"Velocity":63,"Duration":457523,"SoundDuration":457523,"Delta":40901282},{"NoteNumber":32,"Velocity":33,"Duration":457523,"SoundDuration":457523,"Delta":40901282},{"NoteNumber":44,"Velocity":38,"Duration":457523,"SoundDuration":457523,"Delta":40901282},{"NoteNumber":77,"Velocity":56,"Duration":231875,"SoundDuration":231875,"Delta":41126931},{"NoteNumber":70,"Velocity":60,"Duration":232792,"SoundDuration":232792,"Delta":41358806},{"NoteNumber":43,"Velocity":38,"Duration":925708,"SoundDuration":925708,"Delta":41358806},{"NoteNumber":55,"Velocity":46,"Duration":925708,"SoundDuration":925708,"Delta":41358806},{"NoteNumber":77,"Velocity":70,"Duration":682345,"SoundDuration":682345,"Delta":41824391},{"NoteNumber":72,"Velocity":46,"Duration":902933,"SoundDuration":902933,"Delta":41824391},{"NoteNumber":56,"Velocity":51,"Duration":902933,"SoundDuration":902933,"Delta":41824391},{"NoteNumber":42,"Velocity":38,"Duration":442810,"SoundDuration":442810,"Delta":42284514},{"NoteNumber":54,"Velocity":46,"Duration":442810,"SoundDuration":442810,"Delta":42284514},{"NoteNumber":75,"Velocity":65,"Duration":220587,"SoundDuration":220587,"Delta":42506736},{"NoteNumber":77,"Velocity":70,"Duration":338880,"SoundDuration":338880,"Delta":42727324},{"NoteNumber":73,"Velocity":46,"Duration":913769,"SoundDuration":913769,"Delta":42727324},{"NoteNumber":41,"Velocity":38,"Duration":913769,"SoundDuration":913769,"Delta":42727324},{"NoteNumber":53,"Velocity":46,"Duration":913769,"SoundDuration":913769,"Delta":42727324},{"NoteNumber":78,"Velocity":68,"Duration":112960,"SoundDuration":112960,"Delta":43066205},{"NoteNumber":80,"Velocity":66,"Duration":461928,"SoundDuration":461928,"Delta":43179165},{"NoteNumber":56,"Velocity":56,"Duration":825477,"SoundDuration":825477,"Delta":43179165},{"NoteNumber":80,"Velocity":49,"Duration":363548,"SoundDuration":363548,"Delta":43641094},{"NoteNumber":82,"Velocity":70,"Duration":363548,"SoundDuration":363548,"Delta":43641094},{"NoteNumber":73,"Velocity":49,"Duration":363548,"SoundDuration":363548,"Delta":43641094},{"NoteNumber":40,"Velocity":41,"Duration":363548,"SoundDuration":363548,"Delta":43641094},{"NoteNumber":52,"Velocity":49,"Duration":363548,"SoundDuration":363548,"Delta":43641094},{"NoteNumber":72,"Velocity":60,"Duration":462953,"SoundDuration":462953,"Delta":44004642},{"NoteNumber":78,"Velocity":68,"Duration":394473,"SoundDuration":394473,"Delta":44073123},{"NoteNumber":82,"Velocity":74,"Duration":325992,"SoundDuration":325992,"Delta":44141603},{"NoteNumber":39,"Velocity":43,"Duration":442388,"SoundDuration":442388,"Delta":44141603},{"NoteNumber":51,"Velocity":52,"Duration":442388,"SoundDuration":442388,"Delta":44141603},{"NoteNumber":80,"Velocity":56,"Duration":58198,"SoundDuration":58198,"Delta":44467596},{"NoteNumber":82,"Velocity":58,"Duration":58198,"SoundDuration":58198,"Delta":44525794},{"NoteNumber":80,"Velocity":67,"Duration":218133,"SoundDuration":218133,"Delta":44583992},{"NoteNumber":56,"Velocity":57,"Duration":902389,"SoundDuration":902389,"Delta":44583992},{"NoteNumber":78,"Velocity":57,"Duration":226757,"SoundDuration":226757,"Delta":44802126},{"NoteNumber":77,"Velocity":58,"Duration":222222,"SoundDuration":222222,"Delta":45028884},{"NoteNumber":75,"Velocity":55,"Duration":115083,"SoundDuration":115083,"Delta":45251106},{"NoteNumber":66,"Velocity":43,"Duration":462606,"SoundDuration":462606,"Delta":45366190},{"NoteNumber":70,"Velocity":56,"Duration":402510,"SoundDuration":402510,"Delta":45426286},{"NoteNumber":77,"Velocity":68,"Duration":342413,"SoundDuration":342413,"Delta":45486382},{"NoteNumber":37,"Velocity":43,"Duration":458810,"SoundDuration":458810,"Delta":45486382},{"NoteNumber":49,"Velocity":52,"Duration":458810,"SoundDuration":458810,"Delta":45486382},{"NoteNumber":75,"Velocity":52,"Duration":58198,"SoundDuration":58198,"Delta":45828796},{"NoteNumber":77,"Velocity":55,"Duration":58198,"SoundDuration":58198,"Delta":45886994},{"NoteNumber":75,"Velocity":58,"Duration":221059,"SoundDuration":221059,"Delta":45945192},{"NoteNumber":54,"Velocity":55,"Duration":904782,"SoundDuration":904782,"Delta":45945192},{"NoteNumber":73,"Velocity":52,"Duration":226757,"SoundDuration":226757,"Delta":46166252},{"NoteNumber":72,"Velocity":57,"Duration":225090,"SoundDuration":225090,"Delta":46393009},{"NoteNumber":70,"Velocity":52,"Duration":231875,"SoundDuration":231875,"Delta":46618099},{"NoteNumber":63,"Velocity":54,"Duration":342413,"SoundDuration":342413,"Delta":46849974},{"NoteNumber":70,"Velocity":59,"Duration":342413,"SoundDuration":342413,"Delta":46849974},{"NoteNumber":66,"Velocity":54,"Duration":342413,"SoundDuration":342413,"Delta":46849974},{"NoteNumber":36,"Velocity":43,"Duration":458810,"SoundDuration":458810,"Delta":46849974},{"NoteNumber":48,"Velocity":52,"Duration":458810,"SoundDuration":458810,"Delta":46849974},{"NoteNumber":68,"Velocity":54,"Duration":58198,"SoundDuration":58198,"Delta":47192388},{"NoteNumber":70,"Velocity":54,"Duration":58198,"SoundDuration":58198,"Delta":47250586},{"NoteNumber":68,"Velocity":59,"Duration":221059,"SoundDuration":221059,"Delta":47308784},{"NoteNumber":51,"Velocity":57,"Duration":447817,"SoundDuration":447817,"Delta":47308784},{"NoteNumber":66,"Velocity":53,"Duration":226757,"SoundDuration":226757,"Delta":47529844},{"NoteNumber":65,"Velocity":55,"Duration":464496,"SoundDuration":464496,"Delta":47756601},{"NoteNumber":63,"Velocity":48,"Duration":464496,"SoundDuration":464496,"Delta":47756601},{"NoteNumber":35,"Velocity":41,"Duration":464496,"SoundDuration":464496,"Delta":47756601},{"NoteNumber":47,"Velocity":48,"Duration":464496,"SoundDuration":464496,"Delta":47756601},{"NoteNumber":68,"Velocity":59,"Duration":342413,"SoundDuration":342413,"Delta":48221098},{"NoteNumber":61,"Velocity":54,"Duration":342413,"SoundDuration":342413,"Delta":48221098},{"NoteNumber":34,"Velocity":43,"Duration":458810,"SoundDuration":458810,"Delta":48221098},{"NoteNumber":46,"Velocity":52,"Duration":458810,"SoundDuration":458810,"Delta":48221098},{"NoteNumber":66,"Velocity":46,"Duration":58198,"SoundDuration":58198,"Delta":48563512},{"NoteNumber":68,"Velocity":52,"Duration":58198,"SoundDuration":58198,"Delta":48621710},{"NoteNumber":66,"Velocity":58,"Duration":221059,"SoundDuration":221059,"Delta":48679908},{"NoteNumber":49,"Velocity":57,"Duration":447817,"SoundDuration":447817,"Delta":48679908},{"NoteNumber":65,"Velocity":49,"Duration":226757,"SoundDuration":226757,"Delta":48900968},{"NoteNumber":61,"Velocity":54,"Duration":461260,"SoundDuration":461260,"Delta":49127725},{"NoteNumber":63,"Velocity":59,"Duration":227843,"SoundDuration":227843,"Delta":49127725},{"NoteNumber":33,"Velocity":43,"Duration":461260,"SoundDuration":461260,"Delta":49127725},{"NoteNumber":45,"Velocity":52,"Duration":461260,"SoundDuration":461260,"Delta":49127725},{"NoteNumber":64,"Velocity":62,"Duration":174444,"SoundDuration":174444,"Delta":49355569},{"NoteNumber":61,"Velocity":57,"Duration":401386,"SoundDuration":401386,"Delta":49530013},{"NoteNumber":65,"Velocity":70,"Duration":342413,"SoundDuration":342413,"Delta":49588985},{"NoteNumber":32,"Velocity":49,"Duration":458810,"SoundDuration":458810,"Delta":49588985},{"NoteNumber":44,"Velocity":57,"Duration":458810,"SoundDuration":458810,"Delta":49588985},{"NoteNumber":63,"Velocity":58,"Duration":58198,"SoundDuration":58198,"Delta":49931399},{"NoteNumber":65,"Velocity":59,"Duration":58198,"SoundDuration":58198,"Delta":49989597},{"NoteNumber":63,"Velocity":64,"Duration":221059,"SoundDuration":221059,"Delta":50047796},{"NoteNumber":56,"Velocity":63,"Duration":922470,"SoundDuration":922470,"Delta":50047796},{"NoteNumber":61,"Velocity":48,"Duration":226757,"SoundDuration":226757,"Delta":50268855},{"NoteNumber":60,"Velocity":61,"Duration":225090,"SoundDuration":225090,"Delta":50495613},{"NoteNumber":58,"Velocity":55,"Duration":249563,"SoundDuration":249563,"Delta":50720703},{"NoteNumber":56,"Velocity":48,"Duration":1488756,"SoundDuration":1488756,"Delta":50970266},{"NoteNumber":54,"Velocity":48,"Duration":1488756,"SoundDuration":1488756,"Delta":50970266},{"NoteNumber":53,"Velocity":57,"Duration":357653,"SoundDuration":357653,"Delta":50970266},{"NoteNumber":51,"Velocity":48,"Duration":62919,"SoundDuration":62919,"Delta":51327920},{"NoteNumber":53,"Velocity":41,"Duration":62919,"SoundDuration":62919,"Delta":51390840},{"NoteNumber":51,"Velocity":52,"Duration":244379,"SoundDuration":244379,"Delta":51453759},{"NoteNumber":49,"Velocity":49,"Duration":261757,"SoundDuration":261757,"Delta":51698139},{"NoteNumber":48,"Velocity":46,"Duration":499127,"SoundDuration":499127,"Delta":51959896},{"NoteNumber":49,"Velocity":49,"Duration":1468648,"SoundDuration":1468648,"Delta":52459023},{"NoteNumber":53,"Velocity":49,"Duration":979092,"SoundDuration":979092,"Delta":52948579},{"NoteNumber":61,"Velocity":49,"Duration":979092,"SoundDuration":979092,"Delta":52948579},{"NoteNumber":44,"Velocity":41,"Duration":479424,"SoundDuration":479424,"Delta":52948579},{"NoteNumber":37,"Velocity":38,"Duration":499667,"SoundDuration":499667,"Delta":53428004},{"NoteNumber":58,"Velocity":49,"Duration":183508,"SoundDuration":183508,"Delta":53927671},{"NoteNumber":54,"Velocity":49,"Duration":183508,"SoundDuration":183508,"Delta":53927671},{"NoteNumber":51,"Velocity":49,"Duration":968780,"SoundDuration":968780,"Delta":53927671},{"NoteNumber":65,"Velocity":55,"Duration":964743,"SoundDuration":964743,"Delta":54417027},{"NoteNumber":37,"Velocity":34,"Duration":485318,"SoundDuration":485318,"Delta":54896452},{"NoteNumber":59,"Velocity":49,"Duration":181261,"SoundDuration":181261,"Delta":55381771},{"NoteNumber":54,"Velocity":49,"Duration":181261,"SoundDuration":181261,"Delta":55381771},{"NoteNumber":51,"Velocity":49,"Duration":958950,"SoundDuration":958950,"Delta":55381771},{"NoteNumber":65,"Velocity":55,"Duration":965142,"SoundDuration":965142,"Delta":55865135},{"NoteNumber":37,"Velocity":35,"Duration":489556,"SoundDuration":489556,"Delta":56340722},{"NoteNumber":54,"Velocity":49,"Duration":181261,"SoundDuration":181261,"Delta":56830278},{"NoteNumber":60,"Velocity":49,"Duration":181261,"SoundDuration":181261,"Delta":56830278},{"NoteNumber":51,"Velocity":49,"Duration":962789,"SoundDuration":962789,"Delta":56830278},{"NoteNumber":65,"Velocity":55,"Duration":907786,"SoundDuration":907786,"Delta":57313642},{"NoteNumber":37,"Velocity":38,"Duration":489556,"SoundDuration":489556,"Delta":57793067},{"NoteNumber":56,"Velocity":46,"Duration":61194,"SoundDuration":61194,"Delta":58221429},{"NoteNumber":61,"Velocity":46,"Duration":230397,"SoundDuration":230397,"Delta":58282623},{"NoteNumber":65,"Velocity":51,"Duration":230397,"SoundDuration":230397,"Delta":58282623},{"NoteNumber":53,"Velocity":49,"Duration":932907,"SoundDuration":932907,"Delta":58282623},{"NoteNumber":60,"Velocity":50,"Duration":230396,"SoundDuration":230396,"Delta":58513020},{"NoteNumber":59,"Velocity":49,"Duration":230397,"SoundDuration":230397,"Delta":58743417},{"NoteNumber":58,"Velocity":48,"Duration":178457,"SoundDuration":178457,"Delta":58973814},{"NoteNumber":57,"Velocity":41,"Duration":63259,"SoundDuration":63259,"Delta":59089013},{"NoteNumber":58,"Velocity":37,"Duration":63259,"SoundDuration":63259,"Delta":59152272},{"NoteNumber":57,"Velocity":47,"Duration":237427,"SoundDuration":237427,"Delta":59215531},{"NoteNumber":37,"Velocity":37,"Duration":491557,"SoundDuration":491557,"Delta":59215531},{"NoteNumber":56,"Velocity":46,"Duration":254129,"SoundDuration":254129,"Delta":59452958},{"NoteNumber":70,"Velocity":49,"Duration":178345,"SoundDuration":178345,"Delta":59707088},{"NoteNumber":66,"Velocity":49,"Duration":178345,"SoundDuration":178345,"Delta":59707088},{"NoteNumber":63,"Velocity":49,"Duration":934582,"SoundDuration":934582,"Delta":59707088},{"NoteNumber":77,"Velocity":57,"Duration":934582,"SoundDuration":934582,"Delta":60182675},{"NoteNumber":49,"Velocity":36,"Duration":475586,"SoundDuration":475586,"Delta":60641671},{"NoteNumber":66,"Velocity":49,"Duration":175520,"SoundDuration":175520,"Delta":61117258},{"NoteNumber":71,"Velocity":49,"Duration":175520,"SoundDuration":175520,"Delta":61117258},{"NoteNumber":63,"Velocity":49,"Duration":930624,"SoundDuration":930624,"Delta":61117258},{"NoteNumber":77,"Velocity":57,"Duration":943146,"SoundDuration":943146,"Delta":61585313},{"NoteNumber":49,"Velocity":34,"Duration":480576,"SoundDuration":480576,"Delta":62047883},{"NoteNumber":72,"Velocity":49,"Duration":177627,"SoundDuration":177627,"Delta":62528460},{"NoteNumber":66,"Velocity":49,"Duration":177627,"SoundDuration":177627,"Delta":62528460},{"NoteNumber":63,"Velocity":49,"Duration":936242,"SoundDuration":936242,"Delta":62528460},{"NoteNumber":77,"Velocity":56,"Duration":883074,"SoundDuration":883074,"Delta":63002132},{"NoteNumber":49,"Velocity":36,"Duration":480576,"SoundDuration":480576,"Delta":63464702},{"NoteNumber":68,"Velocity":47,"Duration":60072,"SoundDuration":60072,"Delta":63885207},{"NoteNumber":77,"Velocity":51,"Duration":226159,"SoundDuration":226159,"Delta":63945279},{"NoteNumber":73,"Velocity":51,"Duration":226159,"SoundDuration":226159,"Delta":63945279},{"NoteNumber":65,"Velocity":49,"Duration":915749,"SoundDuration":915749,"Delta":63945279},{"NoteNumber":72,"Velocity":50,"Duration":226158,"SoundDuration":226158,"Delta":64171438},{"NoteNumber":71,"Velocity":49,"Duration":226158,"SoundDuration":226158,"Delta":64397597},{"NoteNumber":70,"Velocity":48,"Duration":175175,"SoundDuration":175175,"Delta":64623756},{"NoteNumber":69,"Velocity":41,"Duration":62096,"SoundDuration":62096,"Delta":64736835},{"NoteNumber":70,"Velocity":37,"Duration":62096,"SoundDuration":62096,"Delta":64798932},{"NoteNumber":69,"Velocity":47,"Duration":233059,"SoundDuration":233059,"Delta":64861028},{"NoteNumber":49,"Velocity":34,"Duration":466453,"SoundDuration":466453,"Delta":64861028},{"NoteNumber":68,"Velocity":46,"Duration":233393,"SoundDuration":233393,"Delta":65094088},{"NoteNumber":69,"Velocity":42,"Duration":368520,"SoundDuration":368520,"Delta":65327482},{"NoteNumber":73,"Velocity":41,"Duration":1531206,"SoundDuration":1531206,"Delta":65327482},{"NoteNumber":65,"Velocity":39,"Duration":2408399,"SoundDuration":2408399,"Delta":65327482},{"NoteNumber":68,"Velocity":37,"Duration":61419,"SoundDuration":61419,"Delta":65696002},{"NoteNumber":69,"Velocity":34,"Duration":61419,"SoundDuration":61419,"Delta":65757422},{"NoteNumber":68,"Velocity":42,"Duration":240692,"SoundDuration":240692,"Delta":65818842},{"NoteNumber":67,"Velocity":35,"Duration":243186,"SoundDuration":243186,"Delta":66059535},{"NoteNumber":68,"Velocity":38,"Duration":208487,"SoundDuration":208487,"Delta":66302721},{"NoteNumber":68,"Velocity":34,"Duration":185322,"SoundDuration":185322,"Delta":66580705},{"NoteNumber":68,"Velocity":36,"Duration":2369516,"SoundDuration":2369516,"Delta":66719697},{"NoteNumber":73,"Velocity":38,"Duration":2300020,"SoundDuration":2300020,"Delta":66789192},{"NoteNumber":80,"Velocity":40,"Duration":2230525,"SoundDuration":2230525,"Delta":66858688},{"NoteNumber":61,"Velocity":31,"Duration":2029998,"SoundDuration":2029998,"Delta":67735881},{"NoteNumber":61,"Velocity":29,"Duration":1353331,"SoundDuration":1353331,"Delta":69765879},{"NoteNumber":57,"Velocity":34,"Duration":1401622,"SoundDuration":1401622,"Delta":71119211},{"NoteNumber":61,"Velocity":46,"Duration":357086,"SoundDuration":357086,"Delta":71119211},{"NoteNumber":52,"Velocity":35,"Duration":1401622,"SoundDuration":1401622,"Delta":71119211},{"NoteNumber":61,"Velocity":44,"Duration":59514,"SoundDuration":59514,"Delta":71476298},{"NoteNumber":64,"Velocity":37,"Duration":59514,"SoundDuration":59514,"Delta":71535812},{"NoteNumber":62,"Velocity":49,"Duration":691953,"SoundDuration":691953,"Delta":71595326},{"NoteNumber":45,"Velocity":29,"Duration":458399,"SoundDuration":458399,"Delta":71595326},{"NoteNumber":45,"Velocity":29,"Duration":467107,"SoundDuration":467107,"Delta":72053726},{"NoteNumber":61,"Velocity":46,"Duration":233553,"SoundDuration":233553,"Delta":72287280},{"NoteNumber":57,"Velocity":36,"Duration":1396074,"SoundDuration":1396074,"Delta":72520834},{"NoteNumber":59,"Velocity":49,"Duration":350330,"SoundDuration":350330,"Delta":72520834},{"NoteNumber":53,"Velocity":36,"Duration":1396074,"SoundDuration":1396074,"Delta":72520834},{"NoteNumber":61,"Velocity":45,"Duration":116777,"SoundDuration":116777,"Delta":72871165},{"NoteNumber":62,"Velocity":49,"Duration":695412,"SoundDuration":695412,"Delta":72987942},{"NoteNumber":45,"Velocity":29,"Duration":461858,"SoundDuration":461858,"Delta":72987942},{"NoteNumber":45,"Velocity":29,"Duration":467107,"SoundDuration":467107,"Delta":73449800},{"NoteNumber":61,"Velocity":46,"Duration":233553,"SoundDuration":233553,"Delta":73683354},{"NoteNumber":57,"Velocity":36,"Duration":467108,"SoundDuration":467108,"Delta":73916908},{"NoteNumber":59,"Velocity":49,"Duration":233553,"SoundDuration":233553,"Delta":73916908},{"NoteNumber":53,"Velocity":36,"Duration":1389079,"SoundDuration":1389079,"Delta":73916908},{"NoteNumber":61,"Velocity":45,"Duration":175165,"SoundDuration":175165,"Delta":74150462},{"NoteNumber":62,"Velocity":39,"Duration":58388,"SoundDuration":58388,"Delta":74267239},{"NoteNumber":64,"Velocity":35,"Duration":58388,"SoundDuration":58388,"Delta":74325628},{"NoteNumber":57,"Velocity":36,"Duration":458399,"SoundDuration":458399,"Delta":74384016},{"NoteNumber":59,"Velocity":36,"Duration":458399,"SoundDuration":458399,"Delta":74384016},{"NoteNumber":62,"Velocity":49,"Duration":229200,"SoundDuration":229200,"Delta":74384016},{"NoteNumber":45,"Velocity":30,"Duration":458399,"SoundDuration":458399,"Delta":74384016},{"NoteNumber":61,"Velocity":45,"Duration":229199,"SoundDuration":229199,"Delta":74613216},{"NoteNumber":57,"Velocity":35,"Duration":463571,"SoundDuration":463571,"Delta":74842416},{"NoteNumber":59,"Velocity":35,"Duration":463571,"SoundDuration":463571,"Delta":74842416},{"NoteNumber":62,"Velocity":48,"Duration":463571,"SoundDuration":463571,"Delta":74842416},{"NoteNumber":45,"Velocity":30,"Duration":463571,"SoundDuration":463571,"Delta":74842416},{"NoteNumber":57,"Velocity":41,"Duration":1422948,"SoundDuration":1422948,"Delta":75305987},{"NoteNumber":60,"Velocity":41,"Duration":1422948,"SoundDuration":1422948,"Delta":75305987},{"NoteNumber":63,"Velocity":56,"Duration":477973,"SoundDuration":477973,"Delta":75305987},{"NoteNumber":54,"Velocity":36,"Duration":1422948,"SoundDuration":1422948,"Delta":75305987},{"NoteNumber":69,"Velocity":56,"Duration":944974,"SoundDuration":944974,"Delta":75783960},{"NoteNumber":45,"Velocity":30,"Duration":468860,"SoundDuration":468860,"Delta":75783960},{"NoteNumber":45,"Velocity":30,"Duration":476114,"SoundDuration":476114,"Delta":76252820},{"NoteNumber":59,"Velocity":41,"Duration":708781,"SoundDuration":708781,"Delta":76728935},{"NoteNumber":64,"Velocity":56,"Duration":476115,"SoundDuration":476115,"Delta":76728935},{"NoteNumber":44,"Velocity":38,"Duration":941448,"SoundDuration":941448,"Delta":76728935},{"NoteNumber":59,"Velocity":51,"Duration":465333,"SoundDuration":465333,"Delta":77205050},{"NoteNumber":52,"Velocity":36,"Duration":933357,"SoundDuration":933357,"Delta":77205050},{"NoteNumber":61,"Velocity":49,"Duration":232666,"SoundDuration":232666,"Delta":77437717},{"NoteNumber":58,"Velocity":40,"Duration":468024,"SoundDuration":468024,"Delta":77670383},{"NoteNumber":61,"Velocity":40,"Duration":468024,"SoundDuration":468024,"Delta":77670383},{"NoteNumber":66,"Velocity":55,"Duration":231785,"SoundDuration":231785,"Delta":77670383},{"NoteNumber":43,"Velocity":33,"Duration":468024,"SoundDuration":468024,"Delta":77670383},{"NoteNumber":64,"Velocity":51,"Duration":236238,"SoundDuration":236238,"Delta":77902169},{"NoteNumber":57,"Velocity":41,"Duration":472477,"SoundDuration":472477,"Delta":78138408},{"NoteNumber":64,"Velocity":56,"Duration":354358,"SoundDuration":354358,"Delta":78138408},{"NoteNumber":42,"Velocity":39,"Duration":936048,"SoundDuration":936048,"Delta":78138408},{"NoteNumber":62,"Velocity":49,"Duration":59059,"SoundDuration":59059,"Delta":78492766},{"NoteNumber":64,"Velocity":45,"Duration":59059,"SoundDuration":59059,"Delta":78551826},{"NoteNumber":57,"Velocity":35,"Duration":463571,"SoundDuration":463571,"Delta":78610886},{"NoteNumber":62,"Velocity":51,"Duration":231785,"SoundDuration":231785,"Delta":78610886},{"NoteNumber":50,"Velocity":36,"Duration":932431,"SoundDuration":932431,"Delta":78610886},{"NoteNumber":61,"Velocity":49,"Duration":231785,"SoundDuration":231785,"Delta":78842671},{"NoteNumber":57,"Velocity":39,"Duration":468860,"SoundDuration":468860,"Delta":79074457},{"NoteNumber":62,"Velocity":53,"Duration":468860,"SoundDuration":468860,"Delta":79074457},{"NoteNumber":42,"Velocity":31,"Duration":468860,"SoundDuration":468860,"Delta":79074457},{"NoteNumber":54,"Velocity":42,"Duration":468859,"SoundDuration":468859,"Delta":79543317},{"NoteNumber":61,"Velocity":50,"Duration":351644,"SoundDuration":351644,"Delta":79543317},{"NoteNumber":38,"Velocity":39,"Duration":937719,"SoundDuration":937719,"Delta":79543317},{"NoteNumber":61,"Velocity":50,"Duration":117215,"SoundDuration":117215,"Delta":79894962},{"NoteNumber":54,"Velocity":40,"Duration":948668,"SoundDuration":948668,"Delta":80012177},{"NoteNumber":59,"Velocity":51,"Duration":948668,"SoundDuration":948668,"Delta":80012177},{"NoteNumber":47,"Velocity":39,"Duration":948668,"SoundDuration":948668,"Delta":80012177},{"NoteNumber":66,"Velocity":63,"Duration":479808,"SoundDuration":479808,"Delta":80481037},{"NoteNumber":38,"Velocity":46,"Duration":479808,"SoundDuration":479808,"Delta":80481037},{"NoteNumber":54,"Velocity":44,"Duration":479807,"SoundDuration":479807,"Delta":80960845},{"NoteNumber":59,"Velocity":44,"Duration":1439423,"SoundDuration":1439423,"Delta":80960845},{"NoteNumber":68,"Velocity":68,"Duration":959615,"SoundDuration":959615,"Delta":80960845},{"NoteNumber":37,"Velocity":45,"Duration":959615,"SoundDuration":959615,"Delta":80960845},{"NoteNumber":53,"Velocity":39,"Duration":959615,"SoundDuration":959615,"Delta":81440653},{"NoteNumber":61,"Velocity":60,"Duration":479807,"SoundDuration":479807,"Delta":81920461},{"NoteNumber":49,"Velocity":33,"Duration":479807,"SoundDuration":479807,"Delta":81920461},{"NoteNumber":69,"Velocity":72,"Duration":930678,"SoundDuration":930678,"Delta":82400269},{"NoteNumber":36,"Velocity":39,"Duration":930678,"SoundDuration":930678,"Delta":82400269},{"NoteNumber":48,"Velocity":39,"Duration":930678,"SoundDuration":930678,"Delta":82400269},{"NoteNumber":57,"Velocity":46,"Duration":463571,"SoundDuration":463571,"Delta":82867377},{"NoteNumber":63,"Velocity":46,"Duration":463571,"SoundDuration":463571,"Delta":82867377},{"NoteNumber":51,"Velocity":42,"Duration":463571,"SoundDuration":463571,"Delta":82867377},{"NoteNumber":57,"Velocity":46,"Duration":477973,"SoundDuration":477973,"Delta":83330948},{"NoteNumber":63,"Velocity":46,"Duration":477973,"SoundDuration":477973,"Delta":83330948},{"NoteNumber":68,"Velocity":69,"Duration":238986,"SoundDuration":238986,"Delta":83330948},{"NoteNumber":36,"Velocity":36,"Duration":477973,"SoundDuration":477973,"Delta":83330948},{"NoteNumber":48,"Velocity":36,"Duration":477973,"SoundDuration":477973,"Delta":83330948},{"NoteNumber":66,"Velocity":61,"Duration":238986,"SoundDuration":238986,"Delta":83569934},{"NoteNumber":66,"Velocity":64,"Duration":410252,"SoundDuration":410252,"Delta":83808921},{"NoteNumber":37,"Velocity":39,"Duration":935075,"SoundDuration":935075,"Delta":83808921},{"NoteNumber":49,"Velocity":39,"Duration":935075,"SoundDuration":935075,"Delta":83808921},{"NoteNumber":64,"Velocity":52,"Duration":58607,"SoundDuration":58607,"Delta":84160566},{"NoteNumber":66,"Velocity":51,"Duration":58607,"SoundDuration":58607,"Delta":84219173},{"NoteNumber":57,"Velocity":40,"Duration":466215,"SoundDuration":466215,"Delta":84277781},{"NoteNumber":64,"Velocity":62,"Duration":231785,"SoundDuration":231785,"Delta":84277781},{"NoteNumber":52,"Velocity":42,"Duration":466215,"SoundDuration":466215,"Delta":84277781},{"NoteNumber":63,"Velocity":58,"Duration":234430,"SoundDuration":234430,"Delta":84509566},{"NoteNumber":57,"Velocity":45,"Duration":477973,"SoundDuration":477973,"Delta":84743996},{"NoteNumber":64,"Velocity":68,"Duration":477973,"SoundDuration":477973,"Delta":84743996},{"NoteNumber":37,"Velocity":36,"Duration":477973,"SoundDuration":477973,"Delta":84743996},{"NoteNumber":49,"Velocity":36,"Duration":477973,"SoundDuration":477973,"Delta":84743996},{"NoteNumber":69,"Velocity":70,"Duration":934193,"SoundDuration":934193,"Delta":85221969},{"NoteNumber":37,"Velocity":39,"Duration":934193,"SoundDuration":934193,"Delta":85221969},{"NoteNumber":49,"Velocity":39,"Duration":934193,"SoundDuration":934193,"Delta":85221969},{"NoteNumber":57,"Velocity":47,"Duration":465333,"SoundDuration":465333,"Delta":85690829},{"NoteNumber":64,"Velocity":47,"Duration":465333,"SoundDuration":465333,"Delta":85690829},{"NoteNumber":52,"Velocity":42,"Duration":465333,"SoundDuration":465333,"Delta":85690829},{"NoteNumber":57,"Velocity":46,"Duration":468860,"SoundDuration":468860,"Delta":86156162},{"NoteNumber":64,"Velocity":46,"Duration":468860,"SoundDuration":468860,"Delta":86156162},{"NoteNumber":68,"Velocity":69,"Duration":234430,"SoundDuration":234430,"Delta":86156162},{"NoteNumber":37,"Velocity":35,"Duration":468860,"SoundDuration":468860,"Delta":86156162},{"NoteNumber":49,"Velocity":35,"Duration":468860,"SoundDuration":468860,"Delta":86156162},{"NoteNumber":67,"Velocity":61,"Duration":234430,"SoundDuration":234430,"Delta":86390592},{"NoteNumber":67,"Velocity":66,"Duration":410252,"SoundDuration":410252,"Delta":86625022},{"NoteNumber":38,"Velocity":39,"Duration":938661,"SoundDuration":938661,"Delta":86625022},{"NoteNumber":50,"Velocity":39,"Duration":938661,"SoundDuration":938661,"Delta":86625022},{"NoteNumber":66,"Velocity":58,"Duration":58607,"SoundDuration":58607,"Delta":86976667},{"NoteNumber":67,"Velocity":53,"Duration":58607,"SoundDuration":58607,"Delta":87035275},{"NoteNumber":57,"Velocity":41,"Duration":469801,"SoundDuration":469801,"Delta":87093882},{"NoteNumber":62,"Velocity":41,"Duration":469801,"SoundDuration":469801,"Delta":87093882},{"NoteNumber":66,"Velocity":63,"Duration":232666,"SoundDuration":232666,"Delta":87093882},{"NoteNumber":54,"Velocity":42,"Duration":469801,"SoundDuration":469801,"Delta":87093882},{"NoteNumber":65,"Velocity":60,"Duration":237135,"SoundDuration":237135,"Delta":87326549},{"NoteNumber":57,"Velocity":42,"Duration":481695,"SoundDuration":481695,"Delta":87563684},{"NoteNumber":62,"Velocity":42,"Duration":481695,"SoundDuration":481695,"Delta":87563684},{"NoteNumber":66,"Velocity":64,"Duration":481695,"SoundDuration":481695,"Delta":87563684},{"NoteNumber":38,"Velocity":36,"Duration":481695,"SoundDuration":481695,"Delta":87563684},{"NoteNumber":50,"Velocity":36,"Duration":481695,"SoundDuration":481695,"Delta":87563684},{"NoteNumber":73,"Velocity":74,"Duration":937778,"SoundDuration":937778,"Delta":88045380},{"NoteNumber":41,"Velocity":46,"Duration":1409431,"SoundDuration":1409431,"Delta":88045380},{"NoteNumber":61,"Velocity":42,"Duration":467116,"SoundDuration":467116,"Delta":88516042},{"NoteNumber":68,"Velocity":42,"Duration":467116,"SoundDuration":467116,"Delta":88516042},{"NoteNumber":49,"Velocity":37,"Duration":467116,"SoundDuration":467116,"Delta":88516042},{"NoteNumber":56,"Velocity":37,"Duration":467116,"SoundDuration":467116,"Delta":88516042},{"NoteNumber":61,"Velocity":42,"Duration":471652,"SoundDuration":471652,"Delta":88983159},{"NoteNumber":68,"Velocity":42,"Duration":471652,"SoundDuration":471652,"Delta":88983159},{"NoteNumber":72,"Velocity":64,"Duration":232666,"SoundDuration":232666,"Delta":88983159},{"NoteNumber":49,"Velocity":45,"Duration":471652,"SoundDuration":471652,"Delta":88983159},{"NoteNumber":56,"Velocity":45,"Duration":471652,"SoundDuration":471652,"Delta":88983159},{"NoteNumber":71,"Velocity":60,"Duration":238986,"SoundDuration":238986,"Delta":89215825},{"NoteNumber":69,"Velocity":70,"Duration":941447,"SoundDuration":941447,"Delta":89454812},{"NoteNumber":42,"Velocity":44,"Duration":1416725,"SoundDuration":1416725,"Delta":89454812},{"NoteNumber":57,"Velocity":41,"Duration":465333,"SoundDuration":465333,"Delta":89930927},{"NoteNumber":61,"Velocity":41,"Duration":465333,"SoundDuration":465333,"Delta":89930927},{"NoteNumber":49,"Velocity":38,"Duration":465333,"SoundDuration":465333,"Delta":89930927},{"NoteNumber":54,"Velocity":38,"Duration":465333,"SoundDuration":465333,"Delta":89930927},{"NoteNumber":57,"Velocity":41,"Duration":475278,"SoundDuration":475278,"Delta":90396260},{"NoteNumber":61,"Velocity":41,"Duration":475278,"SoundDuration":475278,"Delta":90396260},{"NoteNumber":68,"Velocity":68,"Duration":234430,"SoundDuration":234430,"Delta":90396260},{"NoteNumber":49,"Velocity":37,"Duration":475278,"SoundDuration":475278,"Delta":90396260},{"NoteNumber":54,"Velocity":37,"Duration":475278,"SoundDuration":475278,"Delta":90396260},{"NoteNumber":66,"Velocity":62,"Duration":240847,"SoundDuration":240847,"Delta":90630690},{"NoteNumber":66,"Velocity":69,"Duration":729322,"SoundDuration":729322,"Delta":90871538},{"NoteNumber":35,"Velocity":44,"Duration":965561,"SoundDuration":965561,"Delta":90871538},{"NoteNumber":47,"Velocity":44,"Duration":965561,"SoundDuration":965561,"Delta":90871538},{"NoteNumber":57,"Velocity":46,"Duration":477086,"SoundDuration":477086,"Delta":91360013},{"NoteNumber":63,"Velocity":51,"Duration":477086,"SoundDuration":477086,"Delta":91360013},{"NoteNumber":51,"Velocity":39,"Duration":477086,"SoundDuration":477086,"Delta":91360013},{"NoteNumber":66,"Velocity":62,"Duration":236238,"SoundDuration":236238,"Delta":91600861},{"NoteNumber":57,"Velocity":40,"Duration":478037,"SoundDuration":478037,"Delta":91837100},{"NoteNumber":63,"Velocity":40,"Duration":478037,"SoundDuration":478037,"Delta":91837100},{"NoteNumber":68,"Velocity":64,"Duration":236238,"SoundDuration":236238,"Delta":91837100},{"NoteNumber":35,"Velocity":44,"Duration":478037,"SoundDuration":478037,"Delta":91837100},{"NoteNumber":47,"Velocity":44,"Duration":478037,"SoundDuration":478037,"Delta":91837100},{"NoteNumber":66,"Velocity":62,"Duration":241799,"SoundDuration":241799,"Delta":92073339},{"NoteNumber":66,"Velocity":68,"Duration":731224,"SoundDuration":731224,"Delta":92315138},{"NoteNumber":40,"Velocity":42,"Duration":1492879,"SoundDuration":1492879,"Delta":92315138},{"NoteNumber":56,"Velocity":41,"Duration":496238,"SoundDuration":496238,"Delta":92798736},{"NoteNumber":62,"Velocity":47,"Duration":496238,"SoundDuration":496238,"Delta":92798736},{"NoteNumber":52,"Velocity":38,"Duration":496238,"SoundDuration":496238,"Delta":92798736},{"NoteNumber":64,"Velocity":52,"Duration":248611,"SoundDuration":248611,"Delta":93046363},{"NoteNumber":57,"Velocity":34,"Duration":249625,"SoundDuration":249625,"Delta":93294975},{"NoteNumber":63,"Velocity":52,"Duration":249625,"SoundDuration":249625,"Delta":93294975},{"NoteNumber":54,"Velocity":37,"Duration":249625,"SoundDuration":249625,"Delta":93294975},{"NoteNumber":59,"Velocity":27,"Duration":263416,"SoundDuration":263416,"Delta":93544600},{"NoteNumber":62,"Velocity":42,"Duration":263416,"SoundDuration":263416,"Delta":93544600},{"NoteNumber":56,"Velocity":30,"Duration":263416,"SoundDuration":263416,"Delta":93544600},{"NoteNumber":61,"Velocity":49,"Duration":357086,"SoundDuration":357086,"Delta":93808017},{"NoteNumber":69,"Velocity":49,"Duration":357086,"SoundDuration":357086,"Delta":93808017},{"NoteNumber":73,"Velocity":64,"Duration":357086,"SoundDuration":357086,"Delta":93808017},{"NoteNumber":45,"Velocity":40,"Duration":934514,"SoundDuration":934514,"Delta":93808017},{"NoteNumber":52,"Velocity":40,"Duration":934514,"SoundDuration":934514,"Delta":93808017},{"NoteNumber":57,"Velocity":51,"Duration":934514,"SoundDuration":934514,"Delta":93808017},{"NoteNumber":73,"Velocity":62,"Duration":59514,"SoundDuration":59514,"Delta":94165103},{"NoteNumber":76,"Velocity":52,"Duration":59514,"SoundDuration":59514,"Delta":94224618},{"NoteNumber":69,"Velocity":49,"Duration":925507,"SoundDuration":925507,"Delta":94284132},{"NoteNumber":74,"Velocity":72,"Duration":691953,"SoundDuration":691953,"Delta":94284132},{"NoteNumber":52,"Velocity":38,"Duration":925507,"SoundDuration":925507,"Delta":94284132},{"NoteNumber":64,"Velocity":45,"Duration":925507,"SoundDuration":925507,"Delta":94284132},{"NoteNumber":45,"Velocity":35,"Duration":467107,"SoundDuration":467107,"Delta":94742532},{"NoteNumber":52,"Velocity":35,"Duration":467107,"SoundDuration":467107,"Delta":94742532},{"NoteNumber":57,"Velocity":41,"Duration":467107,"SoundDuration":467107,"Delta":94742532},{"NoteNumber":73,"Velocity":64,"Duration":233553,"SoundDuration":233553,"Delta":94976086},{"NoteNumber":62,"Velocity":39,"Duration":467108,"SoundDuration":467108,"Delta":95209640},{"NoteNumber":69,"Velocity":45,"Duration":467108,"SoundDuration":467108,"Delta":95209640},{"NoteNumber":71,"Velocity":72,"Duration":350330,"SoundDuration":350330,"Delta":95209640},{"NoteNumber":45,"Velocity":30,"Duration":928966,"SoundDuration":928966,"Delta":95209640},{"NoteNumber":53,"Velocity":32,"Duration":467108,"SoundDuration":467108,"Delta":95209640},{"NoteNumber":57,"Velocity":38,"Duration":928966,"SoundDuration":928966,"Delta":95209640},{"NoteNumber":73,"Velocity":63,"Duration":116777,"SoundDuration":116777,"Delta":95559971},{"NoteNumber":71,"Velocity":53,"Duration":928966,"SoundDuration":928966,"Delta":95676748},{"NoteNumber":69,"Velocity":47,"Duration":928966,"SoundDuration":928966,"Delta":95676748},{"NoteNumber":74,"Velocity":72,"Duration":695412,"SoundDuration":695412,"Delta":95676748},{"NoteNumber":53,"Velocity":31,"Duration":928966,"SoundDuration":928966,"Delta":95676748},{"NoteNumber":65,"Velocity":43,"Duration":928966,"SoundDuration":928966,"Delta":95676748},{"NoteNumber":45,"Velocity":35,"Duration":467107,"SoundDuration":467107,"Delta":96138606},{"NoteNumber":53,"Velocity":35,"Duration":467107,"SoundDuration":467107,"Delta":96138606},{"NoteNumber":57,"Velocity":41,"Duration":467107,"SoundDuration":467107,"Delta":96138606},{"NoteNumber":73,"Velocity":64,"Duration":233553,"SoundDuration":233553,"Delta":96372160},{"NoteNumber":62,"Velocity":36,"Duration":467108,"SoundDuration":467108,"Delta":96605714},{"NoteNumber":69,"Velocity":36,"Duration":467108,"SoundDuration":467108,"Delta":96605714},{"NoteNumber":71,"Velocity":72,"Duration":233553,"SoundDuration":233553,"Delta":96605714},{"NoteNumber":45,"Velocity":36,"Duration":925508,"SoundDuration":925508,"Delta":96605714},{"NoteNumber":53,"Velocity":36,"Duration":925508,"SoundDuration":925508,"Delta":96605714},{"NoteNumber":57,"Velocity":45,"Duration":925508,"SoundDuration":925508,"Delta":96605714},{"NoteNumber":73,"Velocity":63,"Duration":175165,"SoundDuration":175165,"Delta":96839268},{"NoteNumber":74,"Velocity":51,"Duration":58388,"SoundDuration":58388,"Delta":96956045},{"NoteNumber":76,"Velocity":49,"Duration":58388,"SoundDuration":58388,"Delta":97014434},{"NoteNumber":69,"Velocity":51,"Duration":458399,"SoundDuration":458399,"Delta":97072822},{"NoteNumber":71,"Velocity":51,"Duration":458399,"SoundDuration":458399,"Delta":97072822},{"NoteNumber":74,"Velocity":72,"Duration":229200,"SoundDuration":229200,"Delta":97072822},{"NoteNumber":53,"Velocity":42,"Duration":458399,"SoundDuration":458399,"Delta":97072822},{"NoteNumber":65,"Velocity":51,"Duration":458399,"SoundDuration":458399,"Delta":97072822},{"NoteNumber":73,"Velocity":63,"Duration":229199,"SoundDuration":229199,"Delta":97302022},{"NoteNumber":69,"Velocity":51,"Duration":463571,"SoundDuration":463571,"Delta":97531222},{"NoteNumber":71,"Velocity":51,"Duration":463571,"SoundDuration":463571,"Delta":97531222},{"NoteNumber":74,"Velocity":70,"Duration":463571,"SoundDuration":463571,"Delta":97531222},{"NoteNumber":45,"Velocity":36,"Duration":463571,"SoundDuration":463571,"Delta":97531222},{"NoteNumber":53,"Velocity":36,"Duration":463571,"SoundDuration":463571,"Delta":97531222},{"NoteNumber":57,"Velocity":42,"Duration":463571,"SoundDuration":463571,"Delta":97531222},{"NoteNumber":69,"Velocity":61,"Duration":1422948,"SoundDuration":1422948,"Delta":97994793},{"NoteNumber":72,"Velocity":61,"Duration":1422948,"SoundDuration":1422948,"Delta":97994793},{"NoteNumber":75,"Velocity":81,"Duration":477973,"SoundDuration":477973,"Delta":97994793},{"NoteNumber":45,"Velocity":41,"Duration":946833,"SoundDuration":946833,"Delta":97994793},{"NoteNumber":54,"Velocity":41,"Duration":477973,"SoundDuration":477973,"Delta":97994793},{"NoteNumber":57,"Velocity":51,"Duration":946833,"SoundDuration":946833,"Delta":97994793},{"NoteNumber":81,"Velocity":79,"Duration":944974,"SoundDuration":944974,"Delta":98472766},{"NoteNumber":54,"Velocity":36,"Duration":944974,"SoundDuration":944974,"Delta":98472766},{"NoteNumber":66,"Velocity":42,"Duration":944974,"SoundDuration":944974,"Delta":98472766},{"NoteNumber":45,"Velocity":36,"Duration":476114,"SoundDuration":476114,"Delta":98941626},{"NoteNumber":54,"Velocity":36,"Duration":476114,"SoundDuration":476114,"Delta":98941626},{"NoteNumber":57,"Velocity":42,"Duration":476114,"SoundDuration":476114,"Delta":98941626},{"NoteNumber":76,"Velocity":81,"Duration":476115,"SoundDuration":476115,"Delta":99417741},{"NoteNumber":44,"Velocity":55,"Duration":941448,"SoundDuration":941448,"Delta":99417741},{"NoteNumber":64,"Velocity":53,"Duration":465333,"SoundDuration":465333,"Delta":99893856},{"NoteNumber":71,"Velocity":73,"Duration":232666,"SoundDuration":232666,"Delta":99893856},{"NoteNumber":52,"Velocity":41,"Duration":465333,"SoundDuration":465333,"Delta":99893856},{"NoteNumber":59,"Velocity":50,"Duration":465333,"SoundDuration":465333,"Delta":99893856},{"NoteNumber":73,"Velocity":72,"Duration":232666,"SoundDuration":232666,"Delta":100126523},{"NoteNumber":70,"Velocity":58,"Duration":468024,"SoundDuration":468024,"Delta":100359189},{"NoteNumber":73,"Velocity":58,"Duration":468024,"SoundDuration":468024,"Delta":100359189},{"NoteNumber":78,"Velocity":77,"Duration":231785,"SoundDuration":231785,"Delta":100359189},{"NoteNumber":43,"Velocity":37,"Duration":468024,"SoundDuration":468024,"Delta":100359189},{"NoteNumber":61,"Velocity":47,"Duration":468024,"SoundDuration":468024,"Delta":100359189},{"NoteNumber":76,"Velocity":73,"Duration":236238,"SoundDuration":236238,"Delta":100590975},{"NoteNumber":76,"Velocity":81,"Duration":354358,"SoundDuration":354358,"Delta":100827214},{"NoteNumber":42,"Velocity":57,"Duration":936048,"SoundDuration":936048,"Delta":100827214},{"NoteNumber":74,"Velocity":72,"Duration":59059,"SoundDuration":59059,"Delta":101181572},{"NoteNumber":76,"Velocity":63,"Duration":59059,"SoundDuration":59059,"Delta":101240632},{"NoteNumber":69,"Velocity":56,"Duration":463571,"SoundDuration":463571,"Delta":101299692},{"NoteNumber":74,"Velocity":75,"Duration":231785,"SoundDuration":231785,"Delta":101299692},{"NoteNumber":50,"Velocity":41,"Duration":463571,"SoundDuration":463571,"Delta":101299692},{"NoteNumber":57,"Velocity":51,"Duration":463571,"SoundDuration":463571,"Delta":101299692},{"NoteNumber":73,"Velocity":72,"Duration":231785,"SoundDuration":231785,"Delta":101531477},{"NoteNumber":62,"Velocity":57,"Duration":468860,"SoundDuration":468860,"Delta":101763263},{"NoteNumber":69,"Velocity":57,"Duration":468860,"SoundDuration":468860,"Delta":101763263},{"NoteNumber":74,"Velocity":77,"Duration":468860,"SoundDuration":468860,"Delta":101763263},{"NoteNumber":50,"Velocity":37,"Duration":468860,"SoundDuration":468860,"Delta":101763263},{"NoteNumber":57,"Velocity":46,"Duration":468860,"SoundDuration":468860,"Delta":101763263},{"NoteNumber":73,"Velocity":74,"Duration":474271,"SoundDuration":474271,"Delta":102232123},{"NoteNumber":41,"Velocity":51,"Duration":939604,"SoundDuration":939604,"Delta":102232123},{"NoteNumber":61,"Velocity":50,"Duration":465333,"SoundDuration":465333,"Delta":102706394},{"NoteNumber":68,"Velocity":67,"Duration":232666,"SoundDuration":232666,"Delta":102706394},{"NoteNumber":49,"Velocity":39,"Duration":465333,"SoundDuration":465333,"Delta":102706394},{"NoteNumber":56,"Velocity":48,"Duration":465333,"SoundDuration":465333,"Delta":102706394},{"NoteNumber":70,"Velocity":66,"Duration":232666,"SoundDuration":232666,"Delta":102939060},{"NoteNumber":67,"Velocity":52,"Duration":468024,"SoundDuration":468024,"Delta":103171727},{"NoteNumber":70,"Velocity":52,"Duration":468024,"SoundDuration":468024,"Delta":103171727},{"NoteNumber":74,"Velocity":73,"Duration":231785,"SoundDuration":231785,"Delta":103171727},{"NoteNumber":40,"Velocity":33,"Duration":468024,"SoundDuration":468024,"Delta":103171727},{"NoteNumber":58,"Velocity":41,"Duration":468024,"SoundDuration":468024,"Delta":103171727},{"NoteNumber":73,"Velocity":67,"Duration":236238,"SoundDuration":236238,"Delta":103403512},{"NoteNumber":73,"Velocity":74,"Duration":354358,"SoundDuration":354358,"Delta":103639751},{"NoteNumber":39,"Velocity":51,"Duration":1404909,"SoundDuration":1404909,"Delta":103639751},{"NoteNumber":71,"Velocity":59,"Duration":59059,"SoundDuration":59059,"Delta":103994110},{"NoteNumber":73,"Velocity":51,"Duration":59059,"SoundDuration":59059,"Delta":104053169},{"NoteNumber":66,"Velocity":46,"Duration":463571,"SoundDuration":463571,"Delta":104112229},{"NoteNumber":71,"Velocity":62,"Duration":231785,"SoundDuration":231785,"Delta":104112229},{"NoteNumber":47,"Velocity":39,"Duration":463571,"SoundDuration":463571,"Delta":104112229},{"NoteNumber":54,"Velocity":48,"Duration":463571,"SoundDuration":463571,"Delta":104112229},{"NoteNumber":70,"Velocity":59,"Duration":231785,"SoundDuration":231785,"Delta":104344015},{"NoteNumber":59,"Velocity":46,"Duration":468860,"SoundDuration":468860,"Delta":104575800},{"NoteNumber":66,"Velocity":46,"Duration":468860,"SoundDuration":468860,"Delta":104575800},{"NoteNumber":71,"Velocity":62,"Duration":468860,"SoundDuration":468860,"Delta":104575800},{"NoteNumber":47,"Velocity":33,"Duration":468860,"SoundDuration":468860,"Delta":104575800},{"NoteNumber":54,"Velocity":40,"Duration":468860,"SoundDuration":468860,"Delta":104575800},{"NoteNumber":71,"Velocity":68,"Duration":358479,"SoundDuration":358479,"Delta":105044660},{"NoteNumber":38,"Velocity":49,"Duration":1422948,"SoundDuration":1422948,"Delta":105044660},{"NoteNumber":71,"Velocity":61,"Duration":119493,"SoundDuration":119493,"Delta":105403140},{"NoteNumber":59,"Velocity":52,"Duration":944974,"SoundDuration":944974,"Delta":105522633},{"NoteNumber":66,"Velocity":70,"Duration":468860,"SoundDuration":468860,"Delta":105522633},{"NoteNumber":56,"Velocity":50,"Duration":468860,"SoundDuration":468860,"Delta":105522633},{"NoteNumber":68,"Velocity":61,"Duration":476114,"SoundDuration":476114,"Delta":105991493},{"NoteNumber":50,"Velocity":47,"Duration":476114,"SoundDuration":476114,"Delta":105991493},{"NoteNumber":66,"Velocity":49,"Duration":468860,"SoundDuration":468860,"Delta":106467608},{"NoteNumber":68,"Velocity":66,"Duration":468860,"SoundDuration":468860,"Delta":106467608},{"NoteNumber":37,"Velocity":46,"Duration":1421318,"SoundDuration":1421318,"Delta":106467608},{"NoteNumber":65,"Velocity":44,"Duration":952458,"SoundDuration":952458,"Delta":106936468},{"NoteNumber":73,"Velocity":59,"Duration":952458,"SoundDuration":952458,"Delta":106936468},{"NoteNumber":59,"Velocity":50,"Duration":468860,"SoundDuration":468860,"Delta":106936468},{"NoteNumber":49,"Velocity":34,"Duration":483598,"SoundDuration":483598,"Delta":107405328},{"NoteNumber":71,"Velocity":63,"Duration":358479,"SoundDuration":358479,"Delta":107888926},{"NoteNumber":38,"Velocity":44,"Duration":1430202,"SoundDuration":1430202,"Delta":107888926},{"NoteNumber":71,"Velocity":58,"Duration":119493,"SoundDuration":119493,"Delta":108247406},{"NoteNumber":59,"Velocity":47,"Duration":952229,"SoundDuration":952229,"Delta":108366899},{"NoteNumber":66,"Velocity":62,"Duration":476114,"SoundDuration":476114,"Delta":108366899},{"NoteNumber":56,"Velocity":45,"Duration":476114,"SoundDuration":476114,"Delta":108366899},{"NoteNumber":68,"Velocity":55,"Duration":476114,"SoundDuration":476114,"Delta":108843014},{"NoteNumber":50,"Velocity":41,"Duration":476114,"SoundDuration":476114,"Delta":108843014},{"NoteNumber":66,"Velocity":44,"Duration":468860,"SoundDuration":468860,"Delta":109319129},{"NoteNumber":68,"Velocity":59,"Duration":468860,"SoundDuration":468860,"Delta":109319129},{"NoteNumber":37,"Velocity":40,"Duration":1430451,"SoundDuration":1430451,"Delta":109319129},{"NoteNumber":65,"Velocity":39,"Duration":961590,"SoundDuration":961590,"Delta":109787989},{"NoteNumber":73,"Velocity":52,"Duration":961590,"SoundDuration":961590,"Delta":109787989},{"NoteNumber":59,"Velocity":45,"Duration":476114,"SoundDuration":476114,"Delta":109787989},{"NoteNumber":49,"Velocity":29,"Duration":954336,"SoundDuration":954336,"Delta":110264104},{"NoteNumber":66,"Velocity":44,"Duration":468860,"SoundDuration":468860,"Delta":110749580},{"NoteNumber":68,"Velocity":59,"Duration":468860,"SoundDuration":468860,"Delta":110749580},{"NoteNumber":65,"Velocity":39,"Duration":961942,"SoundDuration":961942,"Delta":111218440},{"NoteNumber":73,"Velocity":52,"Duration":961942,"SoundDuration":961942,"Delta":111218440},{"NoteNumber":59,"Velocity":45,"Duration":470662,"SoundDuration":470662,"Delta":111218440},{"NoteNumber":49,"Velocity":29,"Duration":971088,"SoundDuration":971088,"Delta":111689102},{"NoteNumber":66,"Velocity":44,"Duration":479808,"SoundDuration":479808,"Delta":112180382},{"NoteNumber":68,"Velocity":59,"Duration":479808,"SoundDuration":479808,"Delta":112180382},{"NoteNumber":65,"Velocity":39,"Duration":980667,"SoundDuration":980667,"Delta":112660190},{"NoteNumber":73,"Velocity":52,"Duration":980667,"SoundDuration":980667,"Delta":112660190},{"NoteNumber":59,"Velocity":45,"Duration":487408,"SoundDuration":487408,"Delta":112660190},{"NoteNumber":49,"Velocity":29,"Duration":493258,"SoundDuration":493258,"Delta":113147599},{"NoteNumber":60,"Velocity":42,"Duration":986518,"SoundDuration":986518,"Delta":113640858},{"NoteNumber":68,"Velocity":39,"Duration":986517,"SoundDuration":986517,"Delta":114134117},{"NoteNumber":66,"Velocity":35,"Duration":986517,"SoundDuration":986517,"Delta":114134117},{"NoteNumber":49,"Velocity":27,"Duration":493258,"SoundDuration":493258,"Delta":114627376},{"NoteNumber":60,"Velocity":42,"Duration":986518,"SoundDuration":986518,"Delta":115120635},{"NoteNumber":68,"Velocity":39,"Duration":987355,"SoundDuration":987355,"Delta":115613894},{"NoteNumber":66,"Velocity":35,"Duration":987355,"SoundDuration":987355,"Delta":115613894},{"NoteNumber":49,"Velocity":28,"Duration":494096,"SoundDuration":494096,"Delta":116107153},{"NoteNumber":60,"Velocity":45,"Duration":1021335,"SoundDuration":1021335,"Delta":116601250},{"NoteNumber":68,"Velocity":38,"Duration":1038529,"SoundDuration":1038529,"Delta":117107686},{"NoteNumber":66,"Velocity":34,"Duration":1038529,"SoundDuration":1038529,"Delta":117107686},{"NoteNumber":49,"Velocity":27,"Duration":523629,"SoundDuration":523629,"Delta":117622586},{"NoteNumber":60,"Velocity":45,"Duration":1058481,"SoundDuration":1058481,"Delta":118146215},{"NoteNumber":56,"Velocity":34,"Duration":264620,"SoundDuration":264620,"Delta":118675456},{"NoteNumber":54,"Velocity":28,"Duration":264620,"SoundDuration":264620,"Delta":118675456},{"NoteNumber":56,"Velocity":34,"Duration":264620,"SoundDuration":264620,"Delta":119204697},{"NoteNumber":54,"Velocity":28,"Duration":264620,"SoundDuration":264620,"Delta":119204697},{"NoteNumber":49,"Velocity":26,"Duration":529240,"SoundDuration":529240,"Delta":119204697},{"NoteNumber":48,"Velocity":39,"Duration":247934,"SoundDuration":247934,"Delta":119733938},{"NoteNumber":56,"Velocity":34,"Duration":242914,"SoundDuration":242914,"Delta":120229806},{"NoteNumber":54,"Velocity":28,"Duration":242914,"SoundDuration":242914,"Delta":120229806},{"NoteNumber":53,"Velocity":47,"Duration":722983,"SoundDuration":722983,"Delta":120229806},{"NoteNumber":56,"Velocity":34,"Duration":237154,"SoundDuration":237154,"Delta":120715636},{"NoteNumber":54,"Velocity":28,"Duration":237154,"SoundDuration":237154,"Delta":120715636},{"NoteNumber":51,"Velocity":44,"Duration":229007,"SoundDuration":229007,"Delta":120952790},{"NoteNumber":53,"Velocity":50,"Duration":343511,"SoundDuration":343511,"Delta":121181798},{"NoteNumber":54,"Velocity":47,"Duration":114503,"SoundDuration":114503,"Delta":121525309},{"NoteNumber":61,"Velocity":33,"Duration":235293,"SoundDuration":235293,"Delta":121639813},{"NoteNumber":65,"Velocity":39,"Duration":235293,"SoundDuration":235293,"Delta":121639813},{"NoteNumber":56,"Velocity":50,"Duration":470588,"SoundDuration":470588,"Delta":121639813},{"NoteNumber":61,"Velocity":35,"Duration":226415,"SoundDuration":226415,"Delta":122110401},{"NoteNumber":65,"Velocity":41,"Duration":226415,"SoundDuration":226415,"Delta":122110401},{"NoteNumber":58,"Velocity":47,"Duration":226415,"SoundDuration":226415,"Delta":122110401},{"NoteNumber":61,"Velocity":52,"Duration":233463,"SoundDuration":233463,"Delta":122336816},{"NoteNumber":61,"Velocity":55,"Duration":343511,"SoundDuration":343511,"Delta":122570279},{"NoteNumber":60,"Velocity":47,"Duration":59288,"SoundDuration":59288,"Delta":122913790},{"NoteNumber":61,"Velocity":52,"Duration":59288,"SoundDuration":59288,"Delta":122973079},{"NoteNumber":68,"Velocity":40,"Duration":222222,"SoundDuration":222222,"Delta":123032367},{"NoteNumber":66,"Velocity":34,"Duration":222222,"SoundDuration":222222,"Delta":123032367},{"NoteNumber":63,"Velocity":34,"Duration":222222,"SoundDuration":222222,"Delta":123032367},{"NoteNumber":60,"Velocity":54,"Duration":222222,"SoundDuration":222222,"Delta":123032367},{"NoteNumber":58,"Velocity":50,"Duration":226415,"SoundDuration":226415,"Delta":123254589},{"NoteNumber":68,"Velocity":40,"Duration":225564,"SoundDuration":225564,"Delta":123481004},{"NoteNumber":66,"Velocity":34,"Duration":225564,"SoundDuration":225564,"Delta":123481004},{"NoteNumber":63,"Velocity":34,"Duration":225564,"SoundDuration":225564,"Delta":123481004},{"NoteNumber":60,"Velocity":54,"Duration":225564,"SoundDuration":225564,"Delta":123481004},{"NoteNumber":56,"Velocity":49,"Duration":229007,"SoundDuration":229007,"Delta":123706568},{"NoteNumber":58,"Velocity":52,"Duration":342205,"SoundDuration":342205,"Delta":123935576},{"NoteNumber":56,"Velocity":44,"Duration":59288,"SoundDuration":59288,"Delta":124277781},{"NoteNumber":58,"Velocity":44,"Duration":59288,"SoundDuration":59288,"Delta":124337070},{"NoteNumber":68,"Velocity":36,"Duration":225208,"SoundDuration":225208,"Delta":124396358},{"NoteNumber":61,"Velocity":30,"Duration":225208,"SoundDuration":225208,"Delta":124396358},{"NoteNumber":65,"Velocity":30,"Duration":225208,"SoundDuration":225208,"Delta":124396358},{"NoteNumber":56,"Velocity":52,"Duration":225208,"SoundDuration":225208,"Delta":124396358},{"NoteNumber":53,"Velocity":46,"Duration":231018,"SoundDuration":231018,"Delta":124621567},{"NoteNumber":61,"Velocity":29,"Duration":231017,"SoundDuration":231017,"Delta":124852585},{"NoteNumber":65,"Velocity":29,"Duration":231017,"SoundDuration":231017,"Delta":124852585},{"NoteNumber":68,"Velocity":35,"Duration":231017,"SoundDuration":231017,"Delta":124852585},{"NoteNumber":49,"Velocity":49,"Duration":231017,"SoundDuration":231017,"Delta":124852585},{"NoteNumber":53,"Velocity":45,"Duration":236220,"SoundDuration":236220,"Delta":125083603},{"NoteNumber":48,"Velocity":49,"Duration":238095,"SoundDuration":238095,"Delta":125319823},{"NoteNumber":56,"Velocity":34,"Duration":230768,"SoundDuration":230768,"Delta":125796013},{"NoteNumber":54,"Velocity":28,"Duration":230768,"SoundDuration":230768,"Delta":125796013},{"NoteNumber":53,"Velocity":52,"Duration":687102,"SoundDuration":687102,"Delta":125796013},{"NoteNumber":56,"Velocity":34,"Duration":225564,"SoundDuration":225564,"Delta":126257551},{"NoteNumber":54,"Velocity":28,"Duration":225564,"SoundDuration":225564,"Delta":126257551},{"NoteNumber":51,"Velocity":48,"Duration":222222,"SoundDuration":222222,"Delta":126483115},{"NoteNumber":53,"Velocity":55,"Duration":342205,"SoundDuration":342205,"Delta":126705337},{"NoteNumber":54,"Velocity":50,"Duration":114068,"SoundDuration":114068,"Delta":127047543},{"NoteNumber":61,"Velocity":33,"Duration":235293,"SoundDuration":235293,"Delta":127161611},{"NoteNumber":65,"Velocity":39,"Duration":235293,"SoundDuration":235293,"Delta":127161611},{"NoteNumber":56,"Velocity":53,"Duration":470588,"SoundDuration":470588,"Delta":127161611},{"NoteNumber":61,"Velocity":35,"Duration":219780,"SoundDuration":219780,"Delta":127632199},{"NoteNumber":65,"Velocity":41,"Duration":219780,"SoundDuration":219780,"Delta":127632199},{"NoteNumber":58,"Velocity":47,"Duration":219780,"SoundDuration":219780,"Delta":127632199},{"NoteNumber":61,"Velocity":49,"Duration":225563,"SoundDuration":225563,"Delta":127851979},{"NoteNumber":61,"Velocity":54,"Duration":444444,"SoundDuration":444444,"Delta":128077543},{"NoteNumber":67,"Velocity":40,"Duration":225563,"SoundDuration":225563,"Delta":128521987},{"NoteNumber":64,"Velocity":34,"Duration":225563,"SoundDuration":225563,"Delta":128521987},{"NoteNumber":60,"Velocity":54,"Duration":225563,"SoundDuration":225563,"Delta":128521987},{"NoteNumber":61,"Velocity":50,"Duration":229007,"SoundDuration":229007,"Delta":128747551},{"NoteNumber":67,"Velocity":40,"Duration":225563,"SoundDuration":225563,"Delta":128976559},{"NoteNumber":64,"Velocity":34,"Duration":225563,"SoundDuration":225563,"Delta":128976559},{"NoteNumber":60,"Velocity":54,"Duration":225563,"SoundDuration":225563,"Delta":128976559},{"NoteNumber":58,"Velocity":49,"Duration":234485,"SoundDuration":234485,"Delta":129202123},{"NoteNumber":57,"Velocity":52,"Duration":346527,"SoundDuration":346527,"Delta":129436608},{"NoteNumber":58,"Velocity":44,"Duration":115509,"SoundDuration":115509,"Delta":129783135},{"NoteNumber":69,"Velocity":36,"Duration":227272,"SoundDuration":227272,"Delta":129898644},{"NoteNumber":65,"Velocity":30,"Duration":227272,"SoundDuration":227272,"Delta":129898644},{"NoteNumber":60,"Velocity":52,"Duration":454544,"SoundDuration":454544,"Delta":129898644},{"NoteNumber":65,"Velocity":29,"Duration":237154,"SoundDuration":237154,"Delta":130353189},{"NoteNumber":69,"Velocity":35,"Duration":237154,"SoundDuration":237154,"Delta":130353189},{"NoteNumber":48,"Velocity":49,"Duration":237154,"SoundDuration":237154,"Delta":130353189},{"NoteNumber":62,"Velocity":55,"Duration":235294,"SoundDuration":235294,"Delta":130827497},{"NoteNumber":59,"Velocity":41,"Duration":926861,"SoundDuration":926861,"Delta":130827497},{"NoteNumber":64,"Velocity":41,"Duration":901580,"SoundDuration":901580,"Delta":131298085},{"NoteNumber":69,"Velocity":62,"Duration":680993,"SoundDuration":680993,"Delta":131298085},{"NoteNumber":60,"Velocity":48,"Duration":901580,"SoundDuration":901580,"Delta":131298085},{"NoteNumber":58,"Velocity":41,"Duration":445306,"SoundDuration":445306,"Delta":131754359},{"NoteNumber":67,"Velocity":55,"Duration":220587,"SoundDuration":220587,"Delta":131979078},{"NoteNumber":65,"Velocity":41,"Duration":912988,"SoundDuration":912988,"Delta":132199666},{"NoteNumber":69,"Velocity":63,"Duration":339622,"SoundDuration":339622,"Delta":132199666},{"NoteNumber":57,"Velocity":41,"Duration":912988,"SoundDuration":912988,"Delta":132199666},{"NoteNumber":70,"Velocity":59,"Duration":113207,"SoundDuration":113207,"Delta":132539288},{"NoteNumber":72,"Velocity":61,"Duration":460158,"SoundDuration":460158,"Delta":132652496},{"NoteNumber":60,"Velocity":50,"Duration":911597,"SoundDuration":911597,"Delta":132652496},{"NoteNumber":65,"Velocity":41,"Duration":451439,"SoundDuration":451439,"Delta":133112654},{"NoteNumber":74,"Velocity":60,"Duration":219779,"SoundDuration":219779,"Delta":133112654},{"NoteNumber":56,"Velocity":44,"Duration":451439,"SoundDuration":451439,"Delta":133112654},{"NoteNumber":77,"Velocity":57,"Duration":231660,"SoundDuration":231660,"Delta":133332434},{"NoteNumber":70,"Velocity":43,"Duration":448623,"SoundDuration":448623,"Delta":133564094},{"NoteNumber":77,"Velocity":61,"Duration":338346,"SoundDuration":338346,"Delta":133564094},{"NoteNumber":54,"Velocity":46,"Duration":898982,"SoundDuration":898982,"Delta":133564094},{"NoteNumber":76,"Velocity":56,"Duration":55138,"SoundDuration":55138,"Delta":133902440},{"NoteNumber":77,"Velocity":56,"Duration":55138,"SoundDuration":55138,"Delta":133957579},{"NoteNumber":70,"Velocity":42,"Duration":450358,"SoundDuration":450358,"Delta":134012718},{"NoteNumber":76,"Velocity":65,"Duration":222221,"SoundDuration":222221,"Delta":134012718},{"NoteNumber":60,"Velocity":51,"Duration":2252830,"SoundDuration":2252830,"Delta":134012718},{"NoteNumber":74,"Velocity":60,"Duration":228137,"SoundDuration":228137,"Delta":134234940},{"NoteNumber":70,"Velocity":43,"Duration":452369,"SoundDuration":452369,"Delta":134463077},{"NoteNumber":76,"Velocity":65,"Duration":224232,"SoundDuration":224232,"Delta":134463077},{"NoteNumber":48,"Velocity":47,"Duration":452369,"SoundDuration":452369,"Delta":134463077},{"NoteNumber":72,"Velocity":59,"Duration":228137,"SoundDuration":228137,"Delta":134687309},{"NoteNumber":65,"Velocity":41,"Duration":450568,"SoundDuration":450568,"Delta":134915446},{"NoteNumber":74,"Velocity":60,"Duration":334622,"SoundDuration":334622,"Delta":134915446},{"NoteNumber":56,"Velocity":44,"Duration":450568,"SoundDuration":450568,"Delta":134915446},{"NoteNumber":72,"Velocity":49,"Duration":57973,"SoundDuration":57973,"Delta":135250068},{"NoteNumber":74,"Velocity":44,"Duration":57973,"SoundDuration":57973,"Delta":135308041},{"NoteNumber":65,"Velocity":41,"Duration":443764,"SoundDuration":443764,"Delta":135366014},{"NoteNumber":72,"Velocity":58,"Duration":218977,"SoundDuration":218977,"Delta":135366014},{"NoteNumber":57,"Velocity":44,"Duration":443764,"SoundDuration":443764,"Delta":135366014},{"NoteNumber":69,"Velocity":52,"Duration":224786,"SoundDuration":224786,"Delta":135584992},{"NoteNumber":65,"Velocity":56,"Duration":455769,"SoundDuration":455769,"Delta":135809779},{"NoteNumber":48,"Velocity":36,"Duration":455769,"SoundDuration":455769,"Delta":135809779},{"NoteNumber":69,"Velocity":50,"Duration":230982,"SoundDuration":230982,"Delta":136034565},{"NoteNumber":62,"Velocity":55,"Duration":231893,"SoundDuration":231893,"Delta":136265548},{"NoteNumber":59,"Velocity":41,"Duration":922150,"SoundDuration":922150,"Delta":136265548},{"NoteNumber":64,"Velocity":41,"Duration":900366,"SoundDuration":900366,"Delta":136729334},{"NoteNumber":69,"Velocity":62,"Duration":680586,"SoundDuration":680586,"Delta":136729334},{"NoteNumber":60,"Velocity":48,"Duration":900366,"SoundDuration":900366,"Delta":136729334},{"NoteNumber":58,"Velocity":41,"Duration":442001,"SoundDuration":442001,"Delta":137187699},{"NoteNumber":67,"Velocity":58,"Duration":219779,"SoundDuration":219779,"Delta":137409921},{"NoteNumber":65,"Velocity":41,"Duration":910270,"SoundDuration":910270,"Delta":137629701},{"NoteNumber":69,"Velocity":63,"Duration":337584,"SoundDuration":337584,"Delta":137629701},{"NoteNumber":57,"Velocity":41,"Duration":910270,"SoundDuration":910270,"Delta":137629701},{"NoteNumber":70,"Velocity":61,"Duration":112528,"SoundDuration":112528,"Delta":137967286},{"NoteNumber":72,"Velocity":64,"Duration":460158,"SoundDuration":460158,"Delta":138079814},{"NoteNumber":60,"Velocity":50,"Duration":770897,"SoundDuration":770897,"Delta":138079814},{"NoteNumber":65,"Velocity":44,"Duration":310739,"SoundDuration":310739,"Delta":138539972},{"NoteNumber":74,"Velocity":64,"Duration":310739,"SoundDuration":310739,"Delta":138539972},{"NoteNumber":56,"Velocity":44,"Duration":310739,"SoundDuration":310739,"Delta":138539972},{"NoteNumber":55,"Velocity":46,"Duration":660697,"SoundDuration":660697,"Delta":138850711},{"NoteNumber":64,"Velocity":55,"Duration":471416,"SoundDuration":471416,"Delta":138924046},{"NoteNumber":70,"Velocity":60,"Duration":398080,"SoundDuration":398080,"Delta":138997382},{"NoteNumber":74,"Velocity":69,"Duration":324745,"SoundDuration":324745,"Delta":139070717},{"NoteNumber":72,"Velocity":53,"Duration":57973,"SoundDuration":57973,"Delta":139395462},{"NoteNumber":74,"Velocity":55,"Duration":57973,"SoundDuration":57973,"Delta":139453436},{"NoteNumber":72,"Velocity":59,"Duration":217297,"SoundDuration":217297,"Delta":139511409},{"NoteNumber":60,"Velocity":51,"Duration":893873,"SoundDuration":893873,"Delta":139511409},{"NoteNumber":70,"Velocity":51,"Duration":225886,"SoundDuration":225886,"Delta":139728706},{"NoteNumber":69,"Velocity":55,"Duration":221402,"SoundDuration":221402,"Delta":139954592},{"NoteNumber":67,"Velocity":51,"Duration":229287,"SoundDuration":229287,"Delta":140175994},{"NoteNumber":69,"Velocity":44,"Duration":338829,"SoundDuration":338829,"Delta":140405282},{"NoteNumber":64,"Velocity":44,"Duration":338829,"SoundDuration":338829,"Delta":140405282},{"NoteNumber":72,"Velocity":62,"Duration":338829,"SoundDuration":338829,"Delta":140405282},{"NoteNumber":58,"Velocity":44,"Duration":454776,"SoundDuration":454776,"Delta":140405282},{"NoteNumber":67,"Velocity":51,"Duration":57973,"SoundDuration":57973,"Delta":140744112},{"NoteNumber":69,"Velocity":47,"Duration":57973,"SoundDuration":57973,"Delta":140802085},{"NoteNumber":67,"Velocity":59,"Duration":218102,"SoundDuration":218102,"Delta":140860058},{"NoteNumber":60,"Velocity":40,"Duration":741607,"SoundDuration":741607,"Delta":140860058},{"NoteNumber":65,"Velocity":55,"Duration":225886,"SoundDuration":225886,"Delta":141078161},{"NoteNumber":64,"Velocity":59,"Duration":297618,"SoundDuration":297618,"Delta":141304047},{"NoteNumber":53,"Velocity":46,"Duration":624984,"SoundDuration":624984,"Delta":141601666},{"NoteNumber":58,"Velocity":46,"Duration":453055,"SoundDuration":453055,"Delta":141657649},{"NoteNumber":62,"Velocity":50,"Duration":397072,"SoundDuration":397072,"Delta":141713631},{"NoteNumber":69,"Velocity":57,"Duration":341090,"SoundDuration":341090,"Delta":141769614},{"NoteNumber":67,"Velocity":41,"Duration":57973,"SoundDuration":57973,"Delta":142110704},{"NoteNumber":69,"Velocity":40,"Duration":57973,"SoundDuration":57973,"Delta":142168677},{"NoteNumber":67,"Velocity":47,"Duration":220215,"SoundDuration":220215,"Delta":142226651},{"NoteNumber":58,"Velocity":38,"Duration":918925,"SoundDuration":918925,"Delta":142226651},{"NoteNumber":65,"Velocity":40,"Duration":225886,"SoundDuration":225886,"Delta":142446867},{"NoteNumber":64,"Velocity":46,"Duration":224232,"SoundDuration":224232,"Delta":142672753},{"NoteNumber":62,"Velocity":40,"Duration":248591,"SoundDuration":248591,"Delta":142896985},{"NoteNumber":58,"Velocity":38,"Duration":1489471,"SoundDuration":1489471,"Delta":143145577},{"NoteNumber":60,"Velocity":38,"Duration":1489471,"SoundDuration":1489471,"Delta":143145577},{"NoteNumber":53,"Velocity":45,"Duration":356294,"SoundDuration":356294,"Delta":143145577},{"NoteNumber":52,"Velocity":38,"Duration":62682,"SoundDuration":62682,"Delta":143501871},{"NoteNumber":53,"Velocity":34,"Duration":62682,"SoundDuration":62682,"Delta":143564554},{"NoteNumber":52,"Velocity":42,"Duration":243447,"SoundDuration":243447,"Delta":143627237},{"NoteNumber":50,"Velocity":39,"Duration":260755,"SoundDuration":260755,"Delta":143870684},{"NoteNumber":48,"Velocity":37,"Duration":503609,"SoundDuration":503609,"Delta":144131440},{"NoteNumber":48,"Velocity":41,"Duration":239044,"SoundDuration":239044,"Delta":144635049},{"NoteNumber":56,"Velocity":34,"Duration":240000,"SoundDuration":240000,"Delta":145113137},{"NoteNumber":54,"Velocity":28,"Duration":240000,"SoundDuration":240000,"Delta":145113137},{"NoteNumber":53,"Velocity":52,"Duration":714374,"SoundDuration":714374,"Delta":145113137},{"NoteNumber":56,"Velocity":34,"Duration":234375,"SoundDuration":234375,"Delta":145593137},{"NoteNumber":54,"Velocity":28,"Duration":234375,"SoundDuration":234375,"Delta":145593137},{"NoteNumber":51,"Velocity":47,"Duration":227272,"SoundDuration":227272,"Delta":145827512},{"NoteNumber":53,"Velocity":52,"Duration":343511,"SoundDuration":343511,"Delta":146054784},{"NoteNumber":54,"Velocity":50,"Duration":114503,"SoundDuration":114503,"Delta":146398295},{"NoteNumber":61,"Velocity":33,"Duration":235294,"SoundDuration":235294,"Delta":146512799},{"NoteNumber":65,"Velocity":39,"Duration":235294,"SoundDuration":235294,"Delta":146512799},{"NoteNumber":56,"Velocity":53,"Duration":470587,"SoundDuration":470587,"Delta":146512799},{"NoteNumber":61,"Velocity":35,"Duration":224718,"SoundDuration":224718,"Delta":146983387},{"NoteNumber":65,"Velocity":41,"Duration":224718,"SoundDuration":224718,"Delta":146983387},{"NoteNumber":58,"Velocity":46,"Duration":224718,"SoundDuration":224718,"Delta":146983387},{"NoteNumber":61,"Velocity":49,"Duration":233463,"SoundDuration":233463,"Delta":147208106},{"NoteNumber":61,"Velocity":53,"Duration":343511,"SoundDuration":343511,"Delta":147441569},{"NoteNumber":60,"Velocity":47,"Duration":59288,"SoundDuration":59288,"Delta":147785080},{"NoteNumber":61,"Velocity":52,"Duration":59288,"SoundDuration":59288,"Delta":147844369},{"NoteNumber":68,"Velocity":40,"Duration":220587,"SoundDuration":220587,"Delta":147903657},{"NoteNumber":66,"Velocity":34,"Duration":220587,"SoundDuration":220587,"Delta":147903657},{"NoteNumber":63,"Velocity":34,"Duration":220587,"SoundDuration":220587,"Delta":147903657},{"NoteNumber":60,"Velocity":54,"Duration":220587,"SoundDuration":220587,"Delta":147903657},{"NoteNumber":58,"Velocity":50,"Duration":226415,"SoundDuration":226415,"Delta":148124245},{"NoteNumber":68,"Velocity":40,"Duration":223880,"SoundDuration":223880,"Delta":148350660},{"NoteNumber":66,"Velocity":34,"Duration":223880,"SoundDuration":223880,"Delta":148350660},{"NoteNumber":63,"Velocity":34,"Duration":223880,"SoundDuration":223880,"Delta":148350660},{"NoteNumber":60,"Velocity":54,"Duration":223880,"SoundDuration":223880,"Delta":148350660},{"NoteNumber":56,"Velocity":49,"Duration":229007,"SoundDuration":229007,"Delta":148574541},{"NoteNumber":58,"Velocity":52,"Duration":342205,"SoundDuration":342205,"Delta":148803548},{"NoteNumber":56,"Velocity":44,"Duration":59288,"SoundDuration":59288,"Delta":149145754},{"NoteNumber":58,"Velocity":44,"Duration":59288,"SoundDuration":59288,"Delta":149205042},{"NoteNumber":68,"Velocity":36,"Duration":225208,"SoundDuration":225208,"Delta":149264331},{"NoteNumber":61,"Velocity":30,"Duration":225208,"SoundDuration":225208,"Delta":149264331},{"NoteNumber":65,"Velocity":30,"Duration":225208,"SoundDuration":225208,"Delta":149264331},{"NoteNumber":56,"Velocity":52,"Duration":225208,"SoundDuration":225208,"Delta":149264331},{"NoteNumber":53,"Velocity":46,"Duration":231018,"SoundDuration":231018,"Delta":149489539},{"NoteNumber":61,"Velocity":29,"Duration":231018,"SoundDuration":231018,"Delta":149720557},{"NoteNumber":65,"Velocity":29,"Duration":231018,"SoundDuration":231018,"Delta":149720557},{"NoteNumber":68,"Velocity":35,"Duration":231018,"SoundDuration":231018,"Delta":149720557},{"NoteNumber":49,"Velocity":49,"Duration":231018,"SoundDuration":231018,"Delta":149720557},{"NoteNumber":53,"Velocity":45,"Duration":236220,"SoundDuration":236220,"Delta":149951575},{"NoteNumber":48,"Velocity":49,"Duration":238094,"SoundDuration":238094,"Delta":150187796},{"NoteNumber":56,"Velocity":34,"Duration":230769,"SoundDuration":230769,"Delta":150663986},{"NoteNumber":54,"Velocity":28,"Duration":230769,"SoundDuration":230769,"Delta":150663986},{"NoteNumber":53,"Velocity":53,"Duration":688810,"SoundDuration":688810,"Delta":150663986},{"NoteNumber":56,"Velocity":34,"Duration":227272,"SoundDuration":227272,"Delta":151125524},{"NoteNumber":54,"Velocity":28,"Duration":227272,"SoundDuration":227272,"Delta":151125524},{"NoteNumber":51,"Velocity":47,"Duration":224718,"SoundDuration":224718,"Delta":151352796},{"NoteNumber":53,"Velocity":52,"Duration":342205,"SoundDuration":342205,"Delta":151577515},{"NoteNumber":54,"Velocity":47,"Duration":114068,"SoundDuration":114068,"Delta":151919721},{"NoteNumber":61,"Velocity":33,"Duration":235294,"SoundDuration":235294,"Delta":152033789},{"NoteNumber":65,"Velocity":39,"Duration":235294,"SoundDuration":235294,"Delta":152033789},{"NoteNumber":56,"Velocity":53,"Duration":470587,"SoundDuration":470587,"Delta":152033789},{"NoteNumber":61,"Velocity":35,"Duration":222221,"SoundDuration":222221,"Delta":152504377},{"NoteNumber":65,"Velocity":41,"Duration":222221,"SoundDuration":222221,"Delta":152504377},{"NoteNumber":58,"Velocity":46,"Duration":222221,"SoundDuration":222221,"Delta":152504377},{"NoteNumber":61,"Velocity":52,"Duration":228137,"SoundDuration":228137,"Delta":152726599},{"NoteNumber":61,"Velocity":55,"Duration":447761,"SoundDuration":447761,"Delta":152954736},{"NoteNumber":67,"Velocity":40,"Duration":225563,"SoundDuration":225563,"Delta":153402497},{"NoteNumber":64,"Velocity":34,"Duration":225563,"SoundDuration":225563,"Delta":153402497},{"NoteNumber":60,"Velocity":54,"Duration":225563,"SoundDuration":225563,"Delta":153402497},{"NoteNumber":61,"Velocity":50,"Duration":229007,"SoundDuration":229007,"Delta":153628061},{"NoteNumber":67,"Velocity":40,"Duration":225563,"SoundDuration":225563,"Delta":153857069},{"NoteNumber":64,"Velocity":34,"Duration":225563,"SoundDuration":225563,"Delta":153857069},{"NoteNumber":60,"Velocity":54,"Duration":225563,"SoundDuration":225563,"Delta":153857069},{"NoteNumber":58,"Velocity":49,"Duration":234485,"SoundDuration":234485,"Delta":154082633},{"NoteNumber":56,"Velocity":52,"Duration":346527,"SoundDuration":346527,"Delta":154317118},{"NoteNumber":58,"Velocity":44,"Duration":115509,"SoundDuration":115509,"Delta":154663645},{"NoteNumber":68,"Velocity":36,"Duration":227272,"SoundDuration":227272,"Delta":154779154},{"NoteNumber":65,"Velocity":30,"Duration":227272,"SoundDuration":227272,"Delta":154779154},{"NoteNumber":60,"Velocity":52,"Duration":454544,"SoundDuration":454544,"Delta":154779154},{"NoteNumber":65,"Velocity":29,"Duration":237154,"SoundDuration":237154,"Delta":155233699},{"NoteNumber":68,"Velocity":35,"Duration":237154,"SoundDuration":237154,"Delta":155233699},{"NoteNumber":48,"Velocity":49,"Duration":237154,"SoundDuration":237154,"Delta":155233699},{"NoteNumber":70,"Velocity":60,"Duration":235294,"SoundDuration":235294,"Delta":155708007},{"NoteNumber":43,"Velocity":38,"Duration":928602,"SoundDuration":928602,"Delta":155708007},{"NoteNumber":55,"Velocity":46,"Duration":928602,"SoundDuration":928602,"Delta":155708007},{"NoteNumber":72,"Velocity":46,"Duration":901217,"SoundDuration":901217,"Delta":156178595},{"NoteNumber":77,"Velocity":70,"Duration":682733,"SoundDuration":682733,"Delta":156178595},{"NoteNumber":56,"Velocity":50,"Duration":901217,"SoundDuration":901217,"Delta":156178595},{"NoteNumber":42,"Velocity":38,"Duration":443202,"SoundDuration":443202,"Delta":156636610},{"NoteNumber":54,"Velocity":46,"Duration":443202,"SoundDuration":443202,"Delta":156636610},{"NoteNumber":75,"Velocity":60,"Duration":218483,"SoundDuration":218483,"Delta":156861329},{"NoteNumber":73,"Velocity":46,"Duration":898896,"SoundDuration":898896,"Delta":157079812},{"NoteNumber":77,"Velocity":70,"Duration":327725,"SoundDuration":327725,"Delta":157079812},{"NoteNumber":41,"Velocity":38,"Duration":898896,"SoundDuration":898896,"Delta":157079812},{"NoteNumber":53,"Velocity":46,"Duration":898896,"SoundDuration":898896,"Delta":157079812},{"NoteNumber":78,"Velocity":63,"Duration":109241,"SoundDuration":109241,"Delta":157407538},{"NoteNumber":80,"Velocity":67,"Duration":461928,"SoundDuration":461928,"Delta":157516779},{"NoteNumber":56,"Velocity":56,"Duration":908931,"SoundDuration":908931,"Delta":157516779},{"NoteNumber":80,"Velocity":40,"Duration":447002,"SoundDuration":447002,"Delta":157978708},{"NoteNumber":73,"Velocity":40,"Duration":447002,"SoundDuration":447002,"Delta":157978708},{"NoteNumber":82,"Velocity":63,"Duration":220587,"SoundDuration":220587,"Delta":157978708},{"NoteNumber":40,"Velocity":41,"Duration":447002,"SoundDuration":447002,"Delta":157978708},{"NoteNumber":52,"Velocity":49,"Duration":447002,"SoundDuration":447002,"Delta":157978708},{"NoteNumber":85,"Velocity":62,"Duration":226415,"SoundDuration":226415,"Delta":158199296},{"NoteNumber":73,"Velocity":49,"Duration":447880,"SoundDuration":447880,"Delta":158425711},{"NoteNumber":78,"Velocity":49,"Duration":447880,"SoundDuration":447880,"Delta":158425711},{"NoteNumber":85,"Velocity":66,"Duration":337179,"SoundDuration":337179,"Delta":158425711},{"NoteNumber":39,"Velocity":43,"Duration":890739,"SoundDuration":890739,"Delta":158425711},{"NoteNumber":51,"Velocity":52,"Duration":890739,"SoundDuration":890739,"Delta":158425711},{"NoteNumber":84,"Velocity":59,"Duration":55350,"SoundDuration":55350,"Delta":158762891},{"NoteNumber":85,"Velocity":57,"Duration":55350,"SoundDuration":55350,"Delta":158818241},{"NoteNumber":72,"Velocity":41,"Duration":442858,"SoundDuration":442858,"Delta":158873592},{"NoteNumber":78,"Velocity":41,"Duration":442858,"SoundDuration":442858,"Delta":158873592},{"NoteNumber":84,"Velocity":67,"Duration":218977,"SoundDuration":218977,"Delta":158873592},{"NoteNumber":56,"Velocity":57,"Duration":895247,"SoundDuration":895247,"Delta":158873592},{"NoteNumber":82,"Velocity":64,"Duration":223880,"SoundDuration":223880,"Delta":159092570},{"NoteNumber":72,"Velocity":43,"Duration":452389,"SoundDuration":452389,"Delta":159316450},{"NoteNumber":78,"Velocity":43,"Duration":452389,"SoundDuration":452389,"Delta":159316450},{"NoteNumber":84,"Velocity":67,"Duration":222221,"SoundDuration":222221,"Delta":159316450},{"NoteNumber":32,"Velocity":44,"Duration":452389,"SoundDuration":452389,"Delta":159316450},{"NoteNumber":44,"Velocity":53,"Duration":452389,"SoundDuration":452389,"Delta":159316450},{"NoteNumber":80,"Velocity":63,"Duration":230167,"SoundDuration":230167,"Delta":159538672},{"NoteNumber":73,"Velocity":46,"Duration":452291,"SoundDuration":452291,"Delta":159768840},{"NoteNumber":82,"Velocity":66,"Duration":335895,"SoundDuration":335895,"Delta":159768840},{"NoteNumber":40,"Velocity":41,"Duration":452291,"SoundDuration":452291,"Delta":159768840},{"NoteNumber":52,"Velocity":49,"Duration":452291,"SoundDuration":452291,"Delta":159768840},{"NoteNumber":80,"Velocity":55,"Duration":58198,"SoundDuration":58198,"Delta":160104736},{"NoteNumber":82,"Velocity":50,"Duration":58198,"SoundDuration":58198,"Delta":160162934},{"NoteNumber":73,"Velocity":46,"Duration":445396,"SoundDuration":445396,"Delta":160221132},{"NoteNumber":80,"Velocity":66,"Duration":219748,"SoundDuration":219748,"Delta":160221132},{"NoteNumber":41,"Velocity":41,"Duration":445396,"SoundDuration":445396,"Delta":160221132},{"NoteNumber":53,"Velocity":49,"Duration":445396,"SoundDuration":445396,"Delta":160221132},{"NoteNumber":77,"Velocity":57,"Duration":225648,"SoundDuration":225648,"Delta":160440880},{"NoteNumber":73,"Velocity":63,"Duration":457523,"SoundDuration":457523,"Delta":160666528},{"NoteNumber":32,"Velocity":33,"Duration":457523,"SoundDuration":457523,"Delta":160666528},{"NoteNumber":44,"Velocity":38,"Duration":457523,"SoundDuration":457523,"Delta":160666528},{"NoteNumber":77,"Velocity":56,"Duration":231875,"SoundDuration":231875,"Delta":160892177},{"NoteNumber":70,"Velocity":60,"Duration":232792,"SoundDuration":232792,"Delta":161124052},{"NoteNumber":43,"Velocity":38,"Duration":925708,"SoundDuration":925708,"Delta":161124052},{"NoteNumber":55,"Velocity":46,"Duration":925708,"SoundDuration":925708,"Delta":161124052},{"NoteNumber":72,"Velocity":46,"Duration":902932,"SoundDuration":902932,"Delta":161589637},{"NoteNumber":77,"Velocity":70,"Duration":682344,"SoundDuration":682344,"Delta":161589637},{"NoteNumber":56,"Velocity":54,"Duration":902932,"SoundDuration":902932,"Delta":161589637},{"NoteNumber":42,"Velocity":38,"Duration":442809,"SoundDuration":442809,"Delta":162049760},{"NoteNumber":54,"Velocity":46,"Duration":442809,"SoundDuration":442809,"Delta":162049760},{"NoteNumber":75,"Velocity":65,"Duration":220587,"SoundDuration":220587,"Delta":162271982},{"NoteNumber":73,"Velocity":46,"Duration":913769,"SoundDuration":913769,"Delta":162492570},{"NoteNumber":77,"Velocity":70,"Duration":338880,"SoundDuration":338880,"Delta":162492570},{"NoteNumber":41,"Velocity":38,"Duration":913769,"SoundDuration":913769,"Delta":162492570},{"NoteNumber":53,"Velocity":46,"Duration":913769,"SoundDuration":913769,"Delta":162492570},{"NoteNumber":78,"Velocity":66,"Duration":112960,"SoundDuration":112960,"Delta":162831451},{"NoteNumber":80,"Velocity":69,"Duration":461928,"SoundDuration":461928,"Delta":162944411},{"NoteNumber":56,"Velocity":56,"Duration":825477,"SoundDuration":825477,"Delta":162944411},{"NoteNumber":80,"Velocity":49,"Duration":363548,"SoundDuration":363548,"Delta":163406340},{"NoteNumber":73,"Velocity":49,"Duration":363548,"SoundDuration":363548,"Delta":163406340},{"NoteNumber":82,"Velocity":70,"Duration":363548,"SoundDuration":363548,"Delta":163406340},{"NoteNumber":40,"Velocity":41,"Duration":363548,"SoundDuration":363548,"Delta":163406340},{"NoteNumber":52,"Velocity":49,"Duration":363548,"SoundDuration":363548,"Delta":163406340},{"NoteNumber":72,"Velocity":60,"Duration":462954,"SoundDuration":462954,"Delta":163769888},{"NoteNumber":78,"Velocity":68,"Duration":394473,"SoundDuration":394473,"Delta":163838369},{"NoteNumber":82,"Velocity":75,"Duration":325992,"SoundDuration":325992,"Delta":163906850},{"NoteNumber":39,"Velocity":43,"Duration":442389,"SoundDuration":442389,"Delta":163906850},{"NoteNumber":51,"Velocity":52,"Duration":442389,"SoundDuration":442389,"Delta":163906850},{"NoteNumber":80,"Velocity":57,"Duration":58198,"SoundDuration":58198,"Delta":164232842},{"NoteNumber":82,"Velocity":55,"Duration":58198,"SoundDuration":58198,"Delta":164291040},{"NoteNumber":80,"Velocity":67,"Duration":218133,"SoundDuration":218133,"Delta":164349239},{"NoteNumber":56,"Velocity":57,"Duration":902389,"SoundDuration":902389,"Delta":164349239},{"NoteNumber":78,"Velocity":57,"Duration":226757,"SoundDuration":226757,"Delta":164567373},{"NoteNumber":77,"Velocity":60,"Duration":222221,"SoundDuration":222221,"Delta":164794130},{"NoteNumber":75,"Velocity":55,"Duration":115083,"SoundDuration":115083,"Delta":165016352},{"NoteNumber":66,"Velocity":43,"Duration":462606,"SoundDuration":462606,"Delta":165131436},{"NoteNumber":70,"Velocity":56,"Duration":402510,"SoundDuration":402510,"Delta":165191532},{"NoteNumber":77,"Velocity":68,"Duration":342413,"SoundDuration":342413,"Delta":165251628},{"NoteNumber":37,"Velocity":43,"Duration":458810,"SoundDuration":458810,"Delta":165251628},{"NoteNumber":49,"Velocity":52,"Duration":458810,"SoundDuration":458810,"Delta":165251628},{"NoteNumber":75,"Velocity":52,"Duration":58198,"SoundDuration":58198,"Delta":165594042},{"NoteNumber":77,"Velocity":56,"Duration":58198,"SoundDuration":58198,"Delta":165652240},{"NoteNumber":75,"Velocity":60,"Duration":221059,"SoundDuration":221059,"Delta":165710438},{"NoteNumber":54,"Velocity":55,"Duration":904781,"SoundDuration":904781,"Delta":165710438},{"NoteNumber":73,"Velocity":52,"Duration":226757,"SoundDuration":226757,"Delta":165931498},{"NoteNumber":72,"Velocity":57,"Duration":225089,"SoundDuration":225089,"Delta":166158255},{"NoteNumber":70,"Velocity":52,"Duration":231875,"SoundDuration":231875,"Delta":166383345},{"NoteNumber":63,"Velocity":54,"Duration":342413,"SoundDuration":342413,"Delta":166615220},{"NoteNumber":66,"Velocity":54,"Duration":342413,"SoundDuration":342413,"Delta":166615220},{"NoteNumber":70,"Velocity":59,"Duration":342413,"SoundDuration":342413,"Delta":166615220},{"NoteNumber":36,"Velocity":43,"Duration":458810,"SoundDuration":458810,"Delta":166615220},{"NoteNumber":48,"Velocity":52,"Duration":458810,"SoundDuration":458810,"Delta":166615220},{"NoteNumber":68,"Velocity":54,"Duration":58198,"SoundDuration":58198,"Delta":166957634},{"NoteNumber":70,"Velocity":54,"Duration":58198,"SoundDuration":58198,"Delta":167015832},{"NoteNumber":68,"Velocity":59,"Duration":221059,"SoundDuration":221059,"Delta":167074030},{"NoteNumber":51,"Velocity":57,"Duration":447816,"SoundDuration":447816,"Delta":167074030},{"NoteNumber":66,"Velocity":53,"Duration":226757,"SoundDuration":226757,"Delta":167295090},{"NoteNumber":63,"Velocity":48,"Duration":464496,"SoundDuration":464496,"Delta":167521847},{"NoteNumber":65,"Velocity":55,"Duration":464496,"SoundDuration":464496,"Delta":167521847},{"NoteNumber":35,"Velocity":41,"Duration":464496,"SoundDuration":464496,"Delta":167521847},{"NoteNumber":47,"Velocity":48,"Duration":464496,"SoundDuration":464496,"Delta":167521847},{"NoteNumber":61,"Velocity":54,"Duration":342413,"SoundDuration":342413,"Delta":167986344},{"NoteNumber":68,"Velocity":59,"Duration":342413,"SoundDuration":342413,"Delta":167986344},{"NoteNumber":34,"Velocity":43,"Duration":458810,"SoundDuration":458810,"Delta":167986344},{"NoteNumber":46,"Velocity":52,"Duration":458810,"SoundDuration":458810,"Delta":167986344},{"NoteNumber":66,"Velocity":46,"Duration":58198,"SoundDuration":58198,"Delta":168328758},{"NoteNumber":68,"Velocity":52,"Duration":58198,"SoundDuration":58198,"Delta":168386956},{"NoteNumber":66,"Velocity":58,"Duration":221059,"SoundDuration":221059,"Delta":168445154},{"NoteNumber":49,"Velocity":57,"Duration":447816,"SoundDuration":447816,"Delta":168445154},{"NoteNumber":65,"Velocity":49,"Duration":226757,"SoundDuration":226757,"Delta":168666214},{"NoteNumber":61,"Velocity":54,"Duration":461260,"SoundDuration":461260,"Delta":168892971},{"NoteNumber":63,"Velocity":59,"Duration":227843,"SoundDuration":227843,"Delta":168892971},{"NoteNumber":33,"Velocity":43,"Duration":461260,"SoundDuration":461260,"Delta":168892971},{"NoteNumber":45,"Velocity":52,"Duration":461260,"SoundDuration":461260,"Delta":168892971},{"NoteNumber":64,"Velocity":62,"Duration":174444,"SoundDuration":174444,"Delta":169120815},{"NoteNumber":61,"Velocity":57,"Duration":401386,"SoundDuration":401386,"Delta":169295259},{"NoteNumber":65,"Velocity":70,"Duration":342413,"SoundDuration":342413,"Delta":169354231},{"NoteNumber":32,"Velocity":49,"Duration":458810,"SoundDuration":458810,"Delta":169354231},{"NoteNumber":44,"Velocity":57,"Duration":458810,"SoundDuration":458810,"Delta":169354231},{"NoteNumber":63,"Velocity":58,"Duration":58198,"SoundDuration":58198,"Delta":169696645},{"NoteNumber":65,"Velocity":59,"Duration":58198,"SoundDuration":58198,"Delta":169754844},{"NoteNumber":63,"Velocity":64,"Duration":221059,"SoundDuration":221059,"Delta":169813042},{"NoteNumber":56,"Velocity":63,"Duration":922470,"SoundDuration":922470,"Delta":169813042},{"NoteNumber":61,"Velocity":48,"Duration":226757,"SoundDuration":226757,"Delta":170034101},{"NoteNumber":60,"Velocity":61,"Duration":225089,"SoundDuration":225089,"Delta":170260859},{"NoteNumber":58,"Velocity":55,"Duration":249563,"SoundDuration":249563,"Delta":170485949},{"NoteNumber":54,"Velocity":48,"Duration":1488756,"SoundDuration":1488756,"Delta":170735512},{"NoteNumber":56,"Velocity":48,"Duration":1488756,"SoundDuration":1488756,"Delta":170735512},{"NoteNumber":53,"Velocity":60,"Duration":357653,"SoundDuration":357653,"Delta":170735512},{"NoteNumber":51,"Velocity":48,"Duration":62919,"SoundDuration":62919,"Delta":171093166},{"NoteNumber":53,"Velocity":41,"Duration":62919,"SoundDuration":62919,"Delta":171156086},{"NoteNumber":51,"Velocity":52,"Duration":244379,"SoundDuration":244379,"Delta":171219005},{"NoteNumber":49,"Velocity":49,"Duration":261757,"SoundDuration":261757,"Delta":171463385},{"NoteNumber":48,"Velocity":46,"Duration":499126,"SoundDuration":499126,"Delta":171725142},{"NoteNumber":49,"Velocity":49,"Duration":1478218,"SoundDuration":1478218,"Delta":172224269},{"NoteNumber":53,"Velocity":49,"Duration":979091,"SoundDuration":979091,"Delta":172723396},{"NoteNumber":61,"Velocity":49,"Duration":979091,"SoundDuration":979091,"Delta":172723396},{"NoteNumber":44,"Velocity":41,"Duration":479424,"SoundDuration":479424,"Delta":172723396},{"NoteNumber":37,"Velocity":33,"Duration":499666,"SoundDuration":499666,"Delta":173202821},{"NoteNumber":54,"Velocity":49,"Duration":183508,"SoundDuration":183508,"Delta":173702488},{"NoteNumber":58,"Velocity":49,"Duration":183508,"SoundDuration":183508,"Delta":173702488},{"NoteNumber":51,"Velocity":49,"Duration":968780,"SoundDuration":968780,"Delta":173702488},{"NoteNumber":65,"Velocity":55,"Duration":964743,"SoundDuration":964743,"Delta":174191844},{"NoteNumber":37,"Velocity":33,"Duration":485319,"SoundDuration":485319,"Delta":174671269},{"NoteNumber":54,"Velocity":49,"Duration":181261,"SoundDuration":181261,"Delta":175156588},{"NoteNumber":59,"Velocity":49,"Duration":181261,"SoundDuration":181261,"Delta":175156588},{"NoteNumber":51,"Velocity":49,"Duration":958950,"SoundDuration":958950,"Delta":175156588},{"NoteNumber":65,"Velocity":55,"Duration":965142,"SoundDuration":965142,"Delta":175639952},{"NoteNumber":37,"Velocity":34,"Duration":489555,"SoundDuration":489555,"Delta":176115539},{"NoteNumber":54,"Velocity":49,"Duration":181261,"SoundDuration":181261,"Delta":176605095},{"NoteNumber":60,"Velocity":49,"Duration":181261,"SoundDuration":181261,"Delta":176605095},{"NoteNumber":51,"Velocity":49,"Duration":962788,"SoundDuration":962788,"Delta":176605095},{"NoteNumber":65,"Velocity":55,"Duration":907786,"SoundDuration":907786,"Delta":177088459},{"NoteNumber":37,"Velocity":31,"Duration":489555,"SoundDuration":489555,"Delta":177567884},{"NoteNumber":56,"Velocity":46,"Duration":61194,"SoundDuration":61194,"Delta":177996246},{"NoteNumber":61,"Velocity":46,"Duration":230397,"SoundDuration":230397,"Delta":178057440},{"NoteNumber":65,"Velocity":51,"Duration":230397,"SoundDuration":230397,"Delta":178057440},{"NoteNumber":53,"Velocity":49,"Duration":932907,"SoundDuration":932907,"Delta":178057440},{"NoteNumber":60,"Velocity":50,"Duration":230396,"SoundDuration":230396,"Delta":178287837},{"NoteNumber":59,"Velocity":49,"Duration":230397,"SoundDuration":230397,"Delta":178518234},{"NoteNumber":58,"Velocity":48,"Duration":178457,"SoundDuration":178457,"Delta":178748631},{"NoteNumber":57,"Velocity":41,"Duration":63259,"SoundDuration":63259,"Delta":178863830},{"NoteNumber":58,"Velocity":37,"Duration":63259,"SoundDuration":63259,"Delta":178927089},{"NoteNumber":57,"Velocity":47,"Duration":237427,"SoundDuration":237427,"Delta":178990348},{"NoteNumber":37,"Velocity":37,"Duration":491557,"SoundDuration":491557,"Delta":178990348},{"NoteNumber":56,"Velocity":46,"Duration":254129,"SoundDuration":254129,"Delta":179227775},{"NoteNumber":66,"Velocity":49,"Duration":178345,"SoundDuration":178345,"Delta":179481905},{"NoteNumber":70,"Velocity":49,"Duration":178345,"SoundDuration":178345,"Delta":179481905},{"NoteNumber":63,"Velocity":49,"Duration":934583,"SoundDuration":934583,"Delta":179481905},{"NoteNumber":77,"Velocity":57,"Duration":934583,"SoundDuration":934583,"Delta":179957492},{"NoteNumber":49,"Velocity":31,"Duration":475586,"SoundDuration":475586,"Delta":180416488},{"NoteNumber":66,"Velocity":49,"Duration":175520,"SoundDuration":175520,"Delta":180892075},{"NoteNumber":71,"Velocity":49,"Duration":175520,"SoundDuration":175520,"Delta":180892075},{"NoteNumber":63,"Velocity":49,"Duration":930624,"SoundDuration":930624,"Delta":180892075},{"NoteNumber":77,"Velocity":57,"Duration":943147,"SoundDuration":943147,"Delta":181360130},{"NoteNumber":49,"Velocity":33,"Duration":480577,"SoundDuration":480577,"Delta":181822700},{"NoteNumber":66,"Velocity":49,"Duration":177627,"SoundDuration":177627,"Delta":182303277},{"NoteNumber":72,"Velocity":49,"Duration":177627,"SoundDuration":177627,"Delta":182303277},{"NoteNumber":63,"Velocity":49,"Duration":936241,"SoundDuration":936241,"Delta":182303277},{"NoteNumber":77,"Velocity":56,"Duration":883074,"SoundDuration":883074,"Delta":182776949},{"NoteNumber":49,"Velocity":34,"Duration":480577,"SoundDuration":480577,"Delta":183239519},{"NoteNumber":68,"Velocity":47,"Duration":60072,"SoundDuration":60072,"Delta":183660024},{"NoteNumber":73,"Velocity":51,"Duration":226158,"SoundDuration":226158,"Delta":183720096},{"NoteNumber":77,"Velocity":51,"Duration":226158,"SoundDuration":226158,"Delta":183720096},{"NoteNumber":65,"Velocity":49,"Duration":915749,"SoundDuration":915749,"Delta":183720096},{"NoteNumber":72,"Velocity":50,"Duration":226158,"SoundDuration":226158,"Delta":183946255},{"NoteNumber":71,"Velocity":49,"Duration":226158,"SoundDuration":226158,"Delta":184172414},{"NoteNumber":70,"Velocity":48,"Duration":175175,"SoundDuration":175175,"Delta":184398573},{"NoteNumber":69,"Velocity":41,"Duration":62096,"SoundDuration":62096,"Delta":184511652},{"NoteNumber":70,"Velocity":37,"Duration":62096,"SoundDuration":62096,"Delta":184573749},{"NoteNumber":69,"Velocity":47,"Duration":233059,"SoundDuration":233059,"Delta":184635845},{"NoteNumber":49,"Velocity":34,"Duration":466453,"SoundDuration":466453,"Delta":184635845},{"NoteNumber":68,"Velocity":46,"Duration":233393,"SoundDuration":233393,"Delta":184868905},{"NoteNumber":73,"Velocity":41,"Duration":1531206,"SoundDuration":1531206,"Delta":185102299},{"NoteNumber":69,"Velocity":42,"Duration":368519,"SoundDuration":368519,"Delta":185102299},{"NoteNumber":65,"Velocity":39,"Duration":2408399,"SoundDuration":2408399,"Delta":185102299},{"NoteNumber":68,"Velocity":37,"Duration":61419,"SoundDuration":61419,"Delta":185470819},{"NoteNumber":69,"Velocity":34,"Duration":61419,"SoundDuration":61419,"Delta":185532239},{"NoteNumber":68,"Velocity":42,"Duration":240692,"SoundDuration":240692,"Delta":185593659},{"NoteNumber":67,"Velocity":35,"Duration":243186,"SoundDuration":243186,"Delta":185834352},{"NoteNumber":68,"Velocity":38,"Duration":208487,"SoundDuration":208487,"Delta":186077538},{"NoteNumber":68,"Velocity":34,"Duration":185322,"SoundDuration":185322,"Delta":186355522},{"NoteNumber":68,"Velocity":36,"Duration":2770570,"SoundDuration":2770570,"Delta":186494514},{"NoteNumber":73,"Velocity":38,"Duration":2701074,"SoundDuration":2701074,"Delta":186564010},{"NoteNumber":80,"Velocity":40,"Duration":2631578,"SoundDuration":2631578,"Delta":186633505},{"NoteNumber":61,"Velocity":31,"Duration":1754385,"SoundDuration":1754385,"Delta":187510698}],"license":{"name":"Creative Commons Attribution-ShareAlike 3.0 Germany","url":"http://creativecommons.org/licenses/by-sa/3.0/de/deed.en","text":"The MIDI, audio (MP3, OGG) and video files of Bernd Krueger are licensed under the cc-by-sa Germany License. This means that you can use and adapt the files, as long as you attribute the copyright holder.\n\nName: Bernd Krueger\nSource: http://www.piano-midi.de\n\nThe distribution or public playback of the files is only allowed under identical license conditions.\n\nThe scores are open source.","attribution":"MIDI files by Bernd Krueger (piano-midi.de)"}}