{"title":"5. Reverei","artist":"Piano","durationMs":94823,"midiSha256":"f90b9450e54553c3ed27469e964b20b81609c98252cd923b26a43ebeef35bdd6","midiObject":[{"NoteNumber":66,"Velocity":46,"Duration":950871,"SoundDuration":950871,"Delta":0},{"NoteNumber":70,"Velocity":46,"Duration":950871,"SoundDuration":950871,"Delta":0},{"NoteNumber":73,"Velocity":55,"Duration":950871,"SoundDuration":950871,"Delta":0},{"NoteNumber":63,"Velocity":45,"Duration":950871,"SoundDuration":950871,"Delta":0},{"NoteNumber":58,"Velocity":37,"Duration":950871,"SoundDuration":950871,"Delta":0},{"NoteNumber":54,"Velocity":37,"Duration":950871,"SoundDuration":950871,"Delta":0},{"NoteNumber":61,"Velocity":35,"Duration":971503,"SoundDuration":971503,"Delta":950871},{"NoteNumber":49,"Velocity":27,"Duration":971503,"SoundDuration":971503,"Delta":950871},{"NoteNumber":66,"Velocity":46,"Duration":957702,"SoundDuration":957702,"Delta":1922375},{"NoteNumber":70,"Velocity":46,"Duration":957702,"SoundDuration":957702,"Delta":1922375},{"NoteNumber":73,"Velocity":55,"Duration":957702,"SoundDuration":957702,"Delta":1922375},{"NoteNumber":54,"Velocity":37,"Duration":957702,"SoundDuration":957702,"Delta":1922375},{"NoteNumber":58,"Velocity":37,"Duration":957702,"SoundDuration":957702,"Delta":1922375},{"NoteNumber":63,"Velocity":44,"Duration":957702,"SoundDuration":957702,"Delta":1922375},{"NoteNumber":61,"Velocity":35,"Duration":2692586,"SoundDuration":2692586,"Delta":2880077},{"NoteNumber":49,"Velocity":26,"Duration":2692586,"SoundDuration":2692586,"Delta":2880077},{"NoteNumber":66,"Velocity":44,"Duration":1728111,"SoundDuration":1728111,"Delta":3844552},{"NoteNumber":70,"Velocity":44,"Duration":931098,"SoundDuration":931098,"Delta":3844552},{"NoteNumber":73,"Velocity":52,"Duration":931098,"SoundDuration":931098,"Delta":3844552},{"NoteNumber":58,"Velocity":45,"Duration":931098,"SoundDuration":931098,"Delta":3844552},{"NoteNumber":72,"Velocity":47,"Duration":797012,"SoundDuration":797012,"Delta":4775651},{"NoteNumber":75,"Velocity":56,"Duration":797012,"SoundDuration":797012,"Delta":4775651},{"NoteNumber":57,"Velocity":48,"Duration":797012,"SoundDuration":797012,"Delta":4775651},{"NoteNumber":49,"Velocity":34,"Duration":2345632,"SoundDuration":2345632,"Delta":5572663},{"NoteNumber":56,"Velocity":36,"Duration":2229380,"SoundDuration":2229380,"Delta":5688915},{"NoteNumber":61,"Velocity":38,"Duration":2118205,"SoundDuration":2118205,"Delta":5800091},{"NoteNumber":65,"Velocity":39,"Duration":2010743,"SoundDuration":2010743,"Delta":5907553},{"NoteNumber":68,"Velocity":41,"Duration":1907408,"SoundDuration":1907408,"Delta":6010887},{"NoteNumber":73,"Velocity":46,"Duration":1807667,"SoundDuration":1807667,"Delta":6110629},{"NoteNumber":77,"Velocity":52,"Duration":1711494,"SoundDuration":1711494,"Delta":6206801},{"NoteNumber":37,"Velocity":38,"Duration":743752,"SoundDuration":743752,"Delta":7174543},{"NoteNumber":42,"Velocity":26,"Duration":1291887,"SoundDuration":1291887,"Delta":7918296},{"NoteNumber":49,"Velocity":29,"Duration":1214294,"SoundDuration":1214294,"Delta":7995889},{"NoteNumber":51,"Velocity":33,"Duration":1138784,"SoundDuration":1138784,"Delta":8071400},{"NoteNumber":54,"Velocity":35,"Duration":1065725,"SoundDuration":1065725,"Delta":8144458},{"NoteNumber":58,"Velocity":35,"Duration":994517,"SoundDuration":994517,"Delta":8215666},{"NoteNumber":61,"Velocity":40,"Duration":925494,"SoundDuration":925494,"Delta":8284690},{"NoteNumber":63,"Velocity":46,"Duration":858124,"SoundDuration":858124,"Delta":8352060},{"NoteNumber":70,"Velocity":46,"Duration":858124,"SoundDuration":858124,"Delta":8352060},{"NoteNumber":69,"Velocity":49,"Duration":882094,"SoundDuration":882094,"Delta":9210184},{"NoteNumber":61,"Velocity":39,"Duration":882094,"SoundDuration":882094,"Delta":9210184},{"NoteNumber":68,"Velocity":51,"Duration":2615967,"SoundDuration":2615967,"Delta":10092278},{"NoteNumber":60,"Velocity":37,"Duration":1752036,"SoundDuration":1752036,"Delta":10092278},{"NoteNumber":75,"Velocity":62,"Duration":882094,"SoundDuration":882094,"Delta":10962221},{"NoteNumber":54,"Velocity":41,"Duration":882094,"SoundDuration":882094,"Delta":10962221},{"NoteNumber":73,"Velocity":61,"Duration":863930,"SoundDuration":863930,"Delta":11844315},{"NoteNumber":61,"Velocity":49,"Duration":863930,"SoundDuration":863930,"Delta":11844315},{"NoteNumber":53,"Velocity":44,"Duration":1733873,"SoundDuration":1733873,"Delta":11844315},{"NoteNumber":72,"Velocity":59,"Duration":652457,"SoundDuration":652457,"Delta":12708246},{"NoteNumber":68,"Velocity":52,"Duration":869942,"SoundDuration":869942,"Delta":12708246},{"NoteNumber":61,"Velocity":41,"Duration":1745982,"SoundDuration":1745982,"Delta":12708246},{"NoteNumber":73,"Velocity":58,"Duration":108742,"SoundDuration":108742,"Delta":13360703},{"NoteNumber":72,"Velocity":53,"Duration":108742,"SoundDuration":108742,"Delta":13469446},{"NoteNumber":66,"Velocity":49,"Duration":876039,"SoundDuration":876039,"Delta":13578189},{"NoteNumber":70,"Velocity":55,"Duration":876039,"SoundDuration":876039,"Delta":13578189},{"NoteNumber":54,"Velocity":45,"Duration":876039,"SoundDuration":876039,"Delta":13578189},{"NoteNumber":62,"Velocity":49,"Duration":901035,"SoundDuration":901035,"Delta":14454229},{"NoteNumber":68,"Velocity":55,"Duration":901035,"SoundDuration":901035,"Delta":14454229},{"NoteNumber":53,"Velocity":36,"Duration":901035,"SoundDuration":901035,"Delta":14454229},{"NoteNumber":58,"Velocity":40,"Duration":901035,"SoundDuration":901035,"Delta":14454229},{"NoteNumber":63,"Velocity":52,"Duration":901036,"SoundDuration":901036,"Delta":15355265},{"NoteNumber":66,"Velocity":59,"Duration":901036,"SoundDuration":901036,"Delta":15355265},{"NoteNumber":51,"Velocity":42,"Duration":1795624,"SoundDuration":1795624,"Delta":15355265},{"NoteNumber":58,"Velocity":48,"Duration":901036,"SoundDuration":901036,"Delta":15355265},{"NoteNumber":60,"Velocity":49,"Duration":894587,"SoundDuration":894587,"Delta":16256301},{"NoteNumber":70,"Velocity":56,"Duration":894587,"SoundDuration":894587,"Delta":16256301},{"NoteNumber":54,"Velocity":41,"Duration":894587,"SoundDuration":894587,"Delta":16256301},{"NoteNumber":61,"Velocity":49,"Duration":1766549,"SoundDuration":1766549,"Delta":17150889},{"NoteNumber":68,"Velocity":56,"Duration":652457,"SoundDuration":652457,"Delta":17150889},{"NoteNumber":53,"Velocity":40,"Duration":861312,"SoundDuration":861312,"Delta":17150889},{"NoteNumber":56,"Velocity":46,"Duration":1766549,"SoundDuration":1766549,"Delta":17150889},{"NoteNumber":66,"Velocity":47,"Duration":104427,"SoundDuration":104427,"Delta":17803346},{"NoteNumber":68,"Velocity":42,"Duration":104427,"SoundDuration":104427,"Delta":17907774},{"NoteNumber":66,"Velocity":55,"Duration":438020,"SoundDuration":438020,"Delta":18012201},{"NoteNumber":49,"Velocity":36,"Duration":905237,"SoundDuration":905237,"Delta":18012201},{"NoteNumber":65,"Velocity":47,"Duration":467217,"SoundDuration":467217,"Delta":18450221},{"NoteNumber":58,"Velocity":49,"Duration":920809,"SoundDuration":920809,"Delta":18917438},{"NoteNumber":61,"Velocity":47,"Duration":1891213,"SoundDuration":1891213,"Delta":18917438},{"NoteNumber":63,"Velocity":52,"Duration":1891213,"SoundDuration":1891213,"Delta":18917438},{"NoteNumber":42,"Velocity":45,"Duration":1891213,"SoundDuration":1891213,"Delta":18917438},{"NoteNumber":57,"Velocity":39,"Duration":970403,"SoundDuration":970403,"Delta":19838248},{"NoteNumber":60,"Velocity":42,"Duration":1940805,"SoundDuration":1940805,"Delta":20808651},{"NoteNumber":68,"Velocity":48,"Duration":1940805,"SoundDuration":1940805,"Delta":20808651},{"NoteNumber":44,"Velocity":35,"Duration":1940805,"SoundDuration":1940805,"Delta":20808651},{"NoteNumber":56,"Velocity":39,"Duration":970402,"SoundDuration":970402,"Delta":20808651},{"NoteNumber":54,"Velocity":33,"Duration":970403,"SoundDuration":970403,"Delta":21779054},{"NoteNumber":61,"Velocity":49,"Duration":892326,"SoundDuration":892326,"Delta":22749457},{"NoteNumber":68,"Velocity":56,"Duration":892326,"SoundDuration":892326,"Delta":22749457},{"NoteNumber":49,"Velocity":36,"Duration":2581859,"SoundDuration":2581859,"Delta":22749457},{"NoteNumber":53,"Velocity":45,"Duration":892326,"SoundDuration":892326,"Delta":22749457},{"NoteNumber":77,"Velocity":59,"Duration":860831,"SoundDuration":860831,"Delta":23641783},{"NoteNumber":65,"Velocity":53,"Duration":860831,"SoundDuration":860831,"Delta":23641783},{"NoteNumber":56,"Velocity":41,"Duration":860831,"SoundDuration":860831,"Delta":23641783},{"NoteNumber":61,"Velocity":55,"Duration":1680524,"SoundDuration":1680524,"Delta":24502615},{"NoteNumber":75,"Velocity":61,"Duration":627790,"SoundDuration":627790,"Delta":24502615},{"NoteNumber":57,"Velocity":46,"Duration":1680524,"SoundDuration":1680524,"Delta":24502615},{"NoteNumber":73,"Velocity":57,"Duration":100455,"SoundDuration":100455,"Delta":25130406},{"NoteNumber":75,"Velocity":52,"Duration":100455,"SoundDuration":100455,"Delta":25230861},{"NoteNumber":73,"Velocity":64,"Duration":421407,"SoundDuration":421407,"Delta":25331317},{"NoteNumber":49,"Velocity":31,"Duration":1700599,"SoundDuration":1700599,"Delta":25331317},{"NoteNumber":72,"Velocity":57,"Duration":430416,"SoundDuration":430416,"Delta":25752724},{"NoteNumber":65,"Velocity":57,"Duration":1722011,"SoundDuration":1722011,"Delta":26183140},{"NoteNumber":70,"Velocity":63,"Duration":848776,"SoundDuration":848776,"Delta":26183140},{"NoteNumber":58,"Velocity":41,"Duration":1722011,"SoundDuration":1722011,"Delta":26183140},{"NoteNumber":65,"Velocity":56,"Duration":873235,"SoundDuration":873235,"Delta":27031916},{"NoteNumber":49,"Velocity":37,"Duration":873235,"SoundDuration":873235,"Delta":27031916},{"NoteNumber":58,"Velocity":52,"Duration":1715703,"SoundDuration":1715703,"Delta":27905151},{"NoteNumber":66,"Velocity":59,"Duration":848776,"SoundDuration":848776,"Delta":27905151},{"NoteNumber":51,"Velocity":40,"Duration":848776,"SoundDuration":848776,"Delta":27905151},{"NoteNumber":65,"Velocity":56,"Duration":866927,"SoundDuration":866927,"Delta":28753927},{"NoteNumber":49,"Velocity":31,"Duration":866927,"SoundDuration":866927,"Delta":28753927},{"NoteNumber":53,"Velocity":36,"Duration":866927,"SoundDuration":866927,"Delta":28753927},{"NoteNumber":63,"Velocity":59,"Duration":415627,"SoundDuration":415627,"Delta":29620854},{"NoteNumber":58,"Velocity":52,"Duration":2552918,"SoundDuration":2552918,"Delta":29620854},{"NoteNumber":54,"Velocity":46,"Duration":415627,"SoundDuration":415627,"Delta":29620854},{"NoteNumber":48,"Velocity":40,"Duration":1692086,"SoundDuration":1692086,"Delta":29620854},{"NoteNumber":65,"Velocity":56,"Duration":415627,"SoundDuration":415627,"Delta":30036482},{"NoteNumber":53,"Velocity":37,"Duration":415627,"SoundDuration":415627,"Delta":30036482},{"NoteNumber":66,"Velocity":59,"Duration":860831,"SoundDuration":860831,"Delta":30452109},{"NoteNumber":51,"Velocity":42,"Duration":860831,"SoundDuration":860831,"Delta":30452109},{"NoteNumber":63,"Velocity":55,"Duration":1766491,"SoundDuration":1766491,"Delta":31312941},{"NoteNumber":65,"Velocity":55,"Duration":1766491,"SoundDuration":1766491,"Delta":31312941},{"NoteNumber":53,"Velocity":46,"Duration":860832,"SoundDuration":860832,"Delta":31312941},{"NoteNumber":57,"Velocity":39,"Duration":905659,"SoundDuration":905659,"Delta":32173773},{"NoteNumber":41,"Velocity":39,"Duration":905659,"SoundDuration":905659,"Delta":32173773},{"NoteNumber":62,"Velocity":52,"Duration":3543904,"SoundDuration":3543904,"Delta":33079433},{"NoteNumber":65,"Velocity":52,"Duration":3543904,"SoundDuration":3543904,"Delta":33079433},{"NoteNumber":34,"Velocity":39,"Duration":2651578,"SoundDuration":2651578,"Delta":33079433},{"NoteNumber":59,"Velocity":36,"Duration":892325,"SoundDuration":892325,"Delta":33946360},{"NoteNumber":58,"Velocity":33,"Duration":1784652,"SoundDuration":1784652,"Delta":34838686},{"NoteNumber":46,"Velocity":27,"Duration":892325,"SoundDuration":892325,"Delta":35731012},{"NoteNumber":71,"Velocity":62,"Duration":632111,"SoundDuration":632111,"Delta":36623338},{"NoteNumber":65,"Velocity":50,"Duration":1665454,"SoundDuration":1665454,"Delta":36623338},{"NoteNumber":68,"Velocity":50,"Duration":1665454,"SoundDuration":1665454,"Delta":36623338},{"NoteNumber":62,"Velocity":46,"Duration":1665454,"SoundDuration":1665454,"Delta":36623338},{"NoteNumber":70,"Velocity":57,"Duration":98515,"SoundDuration":98515,"Delta":37255449},{"NoteNumber":71,"Velocity":52,"Duration":98515,"SoundDuration":98515,"Delta":37353965},{"NoteNumber":70,"Velocity":62,"Duration":407221,"SoundDuration":407221,"Delta":37452481},{"NoteNumber":49,"Velocity":38,"Duration":1670543,"SoundDuration":1670543,"Delta":37452481},{"NoteNumber":69,"Velocity":56,"Duration":429089,"SoundDuration":429089,"Delta":37859702},{"NoteNumber":66,"Velocity":50,"Duration":1659882,"SoundDuration":1659882,"Delta":38288792},{"NoteNumber":70,"Velocity":62,"Duration":421407,"SoundDuration":421407,"Delta":38288792},{"NoteNumber":63,"Velocity":46,"Duration":1659882,"SoundDuration":1659882,"Delta":38288792},{"NoteNumber":75,"Velocity":58,"Duration":412824,"SoundDuration":412824,"Delta":38710200},{"NoteNumber":73,"Velocity":63,"Duration":412825,"SoundDuration":412825,"Delta":39123025},{"NoteNumber":49,"Velocity":38,"Duration":1663184,"SoundDuration":1663184,"Delta":39123025},{"NoteNumber":72,"Velocity":60,"Duration":412824,"SoundDuration":412824,"Delta":39535850},{"NoteNumber":63,"Velocity":52,"Duration":1680349,"SoundDuration":1680349,"Delta":39948675},{"NoteNumber":66,"Velocity":52,"Duration":1680349,"SoundDuration":1680349,"Delta":39948675},{"NoteNumber":70,"Velocity":64,"Duration":837534,"SoundDuration":837534,"Delta":39948675},{"NoteNumber":60,"Velocity":46,"Duration":1680349,"SoundDuration":1680349,"Delta":39948675},{"NoteNumber":69,"Velocity":59,"Duration":842815,"SoundDuration":842815,"Delta":40786209},{"NoteNumber":49,"Velocity":34,"Duration":1674070,"SoundDuration":1674070,"Delta":40786209},{"NoteNumber":65,"Velocity":52,"Duration":1685955,"SoundDuration":1685955,"Delta":41629024},{"NoteNumber":68,"Velocity":64,"Duration":831254,"SoundDuration":831254,"Delta":41629024},{"NoteNumber":61,"Velocity":46,"Duration":1685955,"SoundDuration":1685955,"Delta":41629024},{"NoteNumber":73,"Velocity":66,"Duration":854700,"SoundDuration":854700,"Delta":42460279},{"NoteNumber":49,"Velocity":37,"Duration":1675173,"SoundDuration":1675173,"Delta":42460279},{"NoteNumber":65,"Velocity":52,"Duration":1643597,"SoundDuration":1643597,"Delta":43314980},{"NoteNumber":68,"Velocity":52,"Duration":1643597,"SoundDuration":1643597,"Delta":43314980},{"NoteNumber":71,"Velocity":64,"Duration":623441,"SoundDuration":623441,"Delta":43314980},{"NoteNumber":62,"Velocity":46,"Duration":1643597,"SoundDuration":1643597,"Delta":43314980},{"NoteNumber":70,"Velocity":56,"Duration":98515,"SoundDuration":98515,"Delta":43938421},{"NoteNumber":71,"Velocity":57,"Duration":98515,"SoundDuration":98515,"Delta":44036937},{"NoteNumber":70,"Velocity":59,"Duration":404530,"SoundDuration":404530,"Delta":44135453},{"NoteNumber":49,"Velocity":37,"Duration":1641148,"SoundDuration":1641148,"Delta":44135453},{"NoteNumber":69,"Velocity":57,"Duration":418594,"SoundDuration":418594,"Delta":44539983},{"NoteNumber":66,"Velocity":50,"Duration":1675641,"SoundDuration":1675641,"Delta":44958578},{"NoteNumber":70,"Velocity":62,"Duration":175586,"SoundDuration":175586,"Delta":44958578},{"NoteNumber":63,"Velocity":46,"Duration":1675641,"SoundDuration":1675641,"Delta":44958578},{"NoteNumber":75,"Velocity":63,"Duration":173520,"SoundDuration":173520,"Delta":45239516},{"NoteNumber":74,"Velocity":58,"Duration":165256,"SoundDuration":165256,"Delta":45512190},{"NoteNumber":73,"Velocity":63,"Duration":169458,"SoundDuration":169458,"Delta":45776601},{"NoteNumber":49,"Velocity":39,"Duration":857618,"SoundDuration":857618,"Delta":45776601},{"NoteNumber":72,"Velocity":61,"Duration":176205,"SoundDuration":176205,"Delta":46049031},{"NoteNumber":71,"Velocity":58,"Duration":185901,"SoundDuration":185901,"Delta":46336778},{"NoteNumber":63,"Velocity":47,"Duration":1697886,"SoundDuration":1697886,"Delta":46634220},{"NoteNumber":66,"Velocity":47,"Duration":1697886,"SoundDuration":1697886,"Delta":46634220},{"NoteNumber":70,"Velocity":64,"Duration":837054,"SoundDuration":837054,"Delta":46634220},{"NoteNumber":49,"Velocity":40,"Duration":837054,"SoundDuration":837054,"Delta":46634220},{"NoteNumber":60,"Velocity":40,"Duration":1697886,"SoundDuration":1697886,"Delta":46634220},{"NoteNumber":69,"Velocity":61,"Duration":860832,"SoundDuration":860832,"Delta":47471274},{"NoteNumber":49,"Velocity":37,"Duration":3357944,"SoundDuration":3357944,"Delta":47471274},{"NoteNumber":65,"Velocity":52,"Duration":1674070,"SoundDuration":1674070,"Delta":48332106},{"NoteNumber":68,"Velocity":64,"Duration":831254,"SoundDuration":831254,"Delta":48332106},{"NoteNumber":61,"Velocity":39,"Duration":831254,"SoundDuration":831254,"Delta":48332106},{"NoteNumber":77,"Velocity":67,"Duration":842815,"SoundDuration":842815,"Delta":49163361},{"NoteNumber":56,"Velocity":42,"Duration":842815,"SoundDuration":842815,"Delta":49163361},{"NoteNumber":75,"Velocity":71,"Duration":623441,"SoundDuration":623441,"Delta":50006176},{"NoteNumber":66,"Velocity":63,"Duration":1660254,"SoundDuration":1660254,"Delta":50006176},{"NoteNumber":57,"Velocity":49,"Duration":1660254,"SoundDuration":1660254,"Delta":50006176},{"NoteNumber":73,"Velocity":67,"Duration":99800,"SoundDuration":99800,"Delta":50629617},{"NoteNumber":75,"Velocity":61,"Duration":99800,"SoundDuration":99800,"Delta":50729417},{"NoteNumber":73,"Velocity":71,"Duration":412824,"SoundDuration":412824,"Delta":50829218},{"NoteNumber":49,"Velocity":40,"Duration":1668467,"SoundDuration":1668467,"Delta":50829218},{"NoteNumber":72,"Velocity":64,"Duration":424388,"SoundDuration":424388,"Delta":51242043},{"NoteNumber":65,"Velocity":62,"Duration":831254,"SoundDuration":831254,"Delta":51666431},{"NoteNumber":70,"Velocity":70,"Duration":831254,"SoundDuration":831254,"Delta":51666431},{"NoteNumber":58,"Velocity":46,"Duration":1662509,"SoundDuration":1662509,"Delta":51666431},{"NoteNumber":65,"Velocity":64,"Duration":831254,"SoundDuration":831254,"Delta":52497686},{"NoteNumber":49,"Velocity":40,"Duration":1680030,"SoundDuration":1680030,"Delta":52497686},{"NoteNumber":65,"Velocity":59,"Duration":1812565,"SoundDuration":1812565,"Delta":53328941},{"NoteNumber":69,"Velocity":67,"Duration":1812565,"SoundDuration":1812565,"Delta":53328941},{"NoteNumber":59,"Velocity":52,"Duration":1405144,"SoundDuration":1405144,"Delta":53328941},{"NoteNumber":61,"Velocity":57,"Duration":963789,"SoundDuration":963789,"Delta":54177717},{"NoteNumber":49,"Velocity":41,"Duration":556368,"SoundDuration":556368,"Delta":54177717},{"NoteNumber":42,"Velocity":37,"Duration":407420,"SoundDuration":407420,"Delta":54734086},{"NoteNumber":49,"Velocity":40,"Duration":1142461,"SoundDuration":1142461,"Delta":54808105},{"NoteNumber":51,"Velocity":44,"Duration":1070800,"SoundDuration":1070800,"Delta":54879767},{"NoteNumber":54,"Velocity":46,"Duration":1000918,"SoundDuration":1000918,"Delta":54949648},{"NoteNumber":58,"Velocity":51,"Duration":933142,"SoundDuration":933142,"Delta":55017424},{"NoteNumber":61,"Velocity":56,"Duration":866961,"SoundDuration":866961,"Delta":55083605},{"NoteNumber":63,"Velocity":60,"Duration":809060,"SoundDuration":809060,"Delta":55141506},{"NoteNumber":70,"Velocity":60,"Duration":1236411,"SoundDuration":1236411,"Delta":55141506},{"NoteNumber":49,"Velocity":49,"Duration":1691755,"SoundDuration":1691755,"Delta":55950567},{"NoteNumber":61,"Velocity":49,"Duration":1691755,"SoundDuration":1691755,"Delta":55950567},{"NoteNumber":62,"Velocity":61,"Duration":320512,"SoundDuration":320512,"Delta":56377917},{"NoteNumber":63,"Velocity":62,"Duration":106837,"SoundDuration":106837,"Delta":56591593},{"NoteNumber":65,"Velocity":59,"Duration":106837,"SoundDuration":106837,"Delta":56698430},{"NoteNumber":63,"Velocity":66,"Duration":418526,"SoundDuration":418526,"Delta":56805268},{"NoteNumber":46,"Velocity":44,"Duration":1651496,"SoundDuration":1651496,"Delta":56805268},{"NoteNumber":62,"Velocity":63,"Duration":418527,"SoundDuration":418527,"Delta":57223795},{"NoteNumber":63,"Velocity":67,"Duration":1232969,"SoundDuration":1232969,"Delta":57642322},{"NoteNumber":49,"Velocity":50,"Duration":1651496,"SoundDuration":1651496,"Delta":57642322},{"NoteNumber":61,"Velocity":50,"Duration":1651496,"SoundDuration":1651496,"Delta":57642322},{"NoteNumber":45,"Velocity":46,"Duration":1703980,"SoundDuration":1703980,"Delta":58456765},{"NoteNumber":62,"Velocity":57,"Duration":418527,"SoundDuration":418527,"Delta":58875292},{"NoteNumber":63,"Velocity":61,"Duration":433463,"SoundDuration":433463,"Delta":59293819},{"NoteNumber":49,"Velocity":50,"Duration":866926,"SoundDuration":866926,"Delta":59293819},{"NoteNumber":61,"Velocity":50,"Duration":866926,"SoundDuration":866926,"Delta":59293819},{"NoteNumber":65,"Velocity":56,"Duration":433463,"SoundDuration":433463,"Delta":59727282},{"NoteNumber":61,"Velocity":56,"Duration":892325,"SoundDuration":892325,"Delta":60160746},{"NoteNumber":66,"Velocity":62,"Duration":892325,"SoundDuration":892325,"Delta":60160746},{"NoteNumber":58,"Velocity":50,"Duration":892325,"SoundDuration":892325,"Delta":60160746},{"NoteNumber":44,"Velocity":50,"Duration":2753040,"SoundDuration":2753040,"Delta":60160746},{"NoteNumber":65,"Velocity":58,"Duration":912548,"SoundDuration":912548,"Delta":61053072},{"NoteNumber":60,"Velocity":51,"Duration":912548,"SoundDuration":912548,"Delta":61053072},{"NoteNumber":56,"Velocity":48,"Duration":456274,"SoundDuration":456274,"Delta":61053072},{"NoteNumber":54,"Velocity":38,"Duration":456274,"SoundDuration":456274,"Delta":61509346},{"NoteNumber":56,"Velocity":47,"Duration":1896334,"SoundDuration":1896334,"Delta":61965620},{"NoteNumber":61,"Velocity":52,"Duration":1896334,"SoundDuration":1896334,"Delta":61965620},{"NoteNumber":53,"Velocity":41,"Duration":1896334,"SoundDuration":1896334,"Delta":61965620},{"NoteNumber":44,"Velocity":35,"Duration":948167,"SoundDuration":948167,"Delta":62913787},{"NoteNumber":58,"Velocity":47,"Duration":407251,"SoundDuration":407251,"Delta":63861954},{"NoteNumber":63,"Velocity":51,"Duration":1649041,"SoundDuration":1649041,"Delta":63861954},{"NoteNumber":66,"Velocity":51,"Duration":1649041,"SoundDuration":1649041,"Delta":63861954},{"NoteNumber":57,"Velocity":41,"Duration":416139,"SoundDuration":416139,"Delta":64269206},{"NoteNumber":58,"Velocity":46,"Duration":412824,"SoundDuration":412824,"Delta":64685346},{"NoteNumber":32,"Velocity":47,"Duration":1640092,"SoundDuration":1640092,"Delta":64685346},{"NoteNumber":57,"Velocity":39,"Duration":412824,"SoundDuration":412824,"Delta":65098171},{"NoteNumber":56,"Velocity":45,"Duration":407221,"SoundDuration":407221,"Delta":65510996},{"NoteNumber":61,"Velocity":49,"Duration":1675274,"SoundDuration":1675274,"Delta":65510996},{"NoteNumber":65,"Velocity":49,"Duration":1675274,"SoundDuration":1675274,"Delta":65510996},{"NoteNumber":55,"Velocity":39,"Duration":407221,"SoundDuration":407221,"Delta":65918217},{"NoteNumber":56,"Velocity":42,"Duration":860832,"SoundDuration":860832,"Delta":66325439},{"NoteNumber":32,"Velocity":39,"Duration":1689866,"SoundDuration":1689866,"Delta":66325439},{"NoteNumber":58,"Velocity":47,"Duration":410016,"SoundDuration":410016,"Delta":67186271},{"NoteNumber":63,"Velocity":51,"Duration":1649042,"SoundDuration":1649042,"Delta":67186271},{"NoteNumber":66,"Velocity":51,"Duration":1649042,"SoundDuration":1649042,"Delta":67186271},{"NoteNumber":57,"Velocity":41,"Duration":419017,"SoundDuration":419017,"Delta":67596288},{"NoteNumber":58,"Velocity":46,"Duration":410004,"SoundDuration":410004,"Delta":68015305},{"NoteNumber":32,"Velocity":47,"Duration":1634450,"SoundDuration":1634450,"Delta":68015305},{"NoteNumber":57,"Velocity":39,"Duration":410004,"SoundDuration":410004,"Delta":68425309},{"NoteNumber":56,"Velocity":45,"Duration":407221,"SoundDuration":407221,"Delta":68835313},{"NoteNumber":61,"Velocity":49,"Duration":1640092,"SoundDuration":1640092,"Delta":68835313},{"NoteNumber":65,"Velocity":49,"Duration":1640092,"SoundDuration":1640092,"Delta":68835313},{"NoteNumber":55,"Velocity":39,"Duration":407221,"SoundDuration":407221,"Delta":69242535},{"NoteNumber":56,"Velocity":42,"Duration":825649,"SoundDuration":825649,"Delta":69649756},{"NoteNumber":32,"Velocity":38,"Duration":1631126,"SoundDuration":1631126,"Delta":69649756},{"NoteNumber":58,"Velocity":49,"Duration":1629293,"SoundDuration":1629293,"Delta":70475406},{"NoteNumber":63,"Velocity":49,"Duration":1629293,"SoundDuration":1629293,"Delta":70475406},{"NoteNumber":55,"Velocity":45,"Duration":403655,"SoundDuration":403655,"Delta":70475406},{"NoteNumber":54,"Velocity":39,"Duration":401821,"SoundDuration":401821,"Delta":70897478},{"NoteNumber":55,"Velocity":42,"Duration":823816,"SoundDuration":823816,"Delta":71280883},{"NoteNumber":32,"Velocity":39,"Duration":1627459,"SoundDuration":1627459,"Delta":71280883},{"NoteNumber":54,"Velocity":45,"Duration":401821,"SoundDuration":401821,"Delta":72104699},{"NoteNumber":58,"Velocity":49,"Duration":1629292,"SoundDuration":1629292,"Delta":72104699},{"NoteNumber":63,"Velocity":49,"Duration":1629292,"SoundDuration":1629292,"Delta":72104699},{"NoteNumber":53,"Velocity":39,"Duration":401821,"SoundDuration":401821,"Delta":72506521},{"NoteNumber":54,"Velocity":42,"Duration":825649,"SoundDuration":825649,"Delta":72908342},{"NoteNumber":32,"Velocity":39,"Duration":1677930,"SoundDuration":1677930,"Delta":72908342},{"NoteNumber":54,"Velocity":42,"Duration":1706981,"SoundDuration":1706981,"Delta":73733992},{"NoteNumber":58,"Velocity":48,"Duration":1706981,"SoundDuration":1706981,"Delta":73733992},{"NoteNumber":65,"Velocity":48,"Duration":852280,"SoundDuration":852280,"Delta":73733992},{"NoteNumber":60,"Velocity":42,"Duration":854701,"SoundDuration":854701,"Delta":74586272},{"NoteNumber":32,"Velocity":36,"Duration":854701,"SoundDuration":854701,"Delta":74586272},{"NoteNumber":53,"Velocity":34,"Duration":1709402,"SoundDuration":1709402,"Delta":75440973},{"NoteNumber":56,"Velocity":34,"Duration":1709402,"SoundDuration":1709402,"Delta":75440973},{"NoteNumber":61,"Velocity":38,"Duration":1709402,"SoundDuration":1709402,"Delta":75440973},{"NoteNumber":37,"Velocity":39,"Duration":1709402,"SoundDuration":1709402,"Delta":75440973},{"NoteNumber":66,"Velocity":46,"Duration":960154,"SoundDuration":960154,"Delta":77150375},{"NoteNumber":70,"Velocity":46,"Duration":960154,"SoundDuration":960154,"Delta":77150375},{"NoteNumber":73,"Velocity":55,"Duration":960154,"SoundDuration":960154,"Delta":77150375},{"NoteNumber":63,"Velocity":45,"Duration":960154,"SoundDuration":960154,"Delta":77150375},{"NoteNumber":58,"Velocity":37,"Duration":960154,"SoundDuration":960154,"Delta":77150375},{"NoteNumber":54,"Velocity":37,"Duration":960154,"SoundDuration":960154,"Delta":77150375},{"NoteNumber":61,"Velocity":35,"Duration":981032,"SoundDuration":981032,"Delta":78110529},{"NoteNumber":49,"Velocity":27,"Duration":981032,"SoundDuration":981032,"Delta":78110529},{"NoteNumber":66,"Velocity":46,"Duration":967117,"SoundDuration":967117,"Delta":79091562},{"NoteNumber":70,"Velocity":46,"Duration":967117,"SoundDuration":967117,"Delta":79091562},{"NoteNumber":73,"Velocity":55,"Duration":967117,"SoundDuration":967117,"Delta":79091562},{"NoteNumber":54,"Velocity":37,"Duration":967117,"SoundDuration":967117,"Delta":79091562},{"NoteNumber":58,"Velocity":37,"Duration":967117,"SoundDuration":967117,"Delta":79091562},{"NoteNumber":63,"Velocity":44,"Duration":967117,"SoundDuration":967117,"Delta":79091562},{"NoteNumber":61,"Velocity":35,"Duration":2580628,"SoundDuration":2580628,"Delta":80058680},{"NoteNumber":49,"Velocity":26,"Duration":2580628,"SoundDuration":2580628,"Delta":80058680},{"NoteNumber":73,"Velocity":52,"Duration":940291,"SoundDuration":940291,"Delta":81032706},{"NoteNumber":66,"Velocity":44,"Duration":1606602,"SoundDuration":1606602,"Delta":81032706},{"NoteNumber":70,"Velocity":44,"Duration":940291,"SoundDuration":940291,"Delta":81032706},{"NoteNumber":58,"Velocity":45,"Duration":940291,"SoundDuration":940291,"Delta":81032706},{"NoteNumber":72,"Velocity":47,"Duration":666311,"SoundDuration":666311,"Delta":81972997},{"NoteNumber":75,"Velocity":56,"Duration":666311,"SoundDuration":666311,"Delta":81972997},{"NoteNumber":57,"Velocity":48,"Duration":666311,"SoundDuration":666311,"Delta":81972997},{"NoteNumber":49,"Velocity":34,"Duration":3421699,"SoundDuration":3421699,"Delta":82639308},{"NoteNumber":56,"Velocity":36,"Duration":3298043,"SoundDuration":3298043,"Delta":82762964},{"NoteNumber":61,"Velocity":38,"Duration":3179596,"SoundDuration":3179596,"Delta":82881412},{"NoteNumber":65,"Velocity":39,"Duration":3067073,"SoundDuration":3067073,"Delta":82993934},{"NoteNumber":68,"Velocity":41,"Duration":2958880,"SoundDuration":2958880,"Delta":83102128},{"NoteNumber":73,"Velocity":46,"Duration":2855652,"SoundDuration":2855652,"Delta":83205356},{"NoteNumber":77,"Velocity":52,"Duration":2756078,"SoundDuration":2756078,"Delta":83304929},{"NoteNumber":37,"Velocity":34,"Duration":1739130,"SoundDuration":1739130,"Delta":84321878},{"NoteNumber":53,"Velocity":31,"Duration":412139,"SoundDuration":412139,"Delta":86061008},{"NoteNumber":61,"Velocity":34,"Duration":422791,"SoundDuration":422791,"Delta":86890546},{"NoteNumber":65,"Velocity":34,"Duration":434004,"SoundDuration":434004,"Delta":87741664},{"NoteNumber":68,"Velocity":36,"Duration":472441,"SoundDuration":472441,"Delta":88615775},{"NoteNumber":73,"Velocity":36,"Duration":526315,"SoundDuration":526315,"Delta":89560657},{"NoteNumber":80,"Velocity":37,"Duration":4210527,"SoundDuration":4210527,"Delta":90613289}],"license":{"name":"Creative Commons Attribution-ShareAlike 3.0 Germany","url":"http://creativecommons.org/licenses/by-sa/3.0/de/deed.en","text":"The MIDI, audio (MP3, OGG) and video files of Bernd Krueger are licensed under the cc-by-sa Germany License. This means that you can use and adapt the files, as long as you attribute the copyright holder.\n\nName: Bernd Krueger\nSource: http://www.piano-midi.de\n\nThe distribution or public playback of the files is only allowed under identical license conditions.\n\nThe scores are open source.","attribution":"MIDI files by Bernd Krueger (piano-midi.de)"}}