{"title":"7. Nocturne","artist":"Piano","durationMs":122309,"midiSha256":"6ee535f5609b12f7ec9f705fde37f616e811f6625e64d42184f981afaae62305","midiObject":[{"NoteNumber":68,"Velocity":51,"Duration":370050,"SoundDuration":370050,"Delta":0},{"NoteNumber":63,"Velocity":46,"Duration":1090777,"SoundDuration":1090777,"Delta":370051},{"NoteNumber":59,"Velocity":46,"Duration":1090777,"SoundDuration":1090777,"Delta":370051},{"NoteNumber":68,"Velocity":55,"Duration":363592,"SoundDuration":363592,"Delta":370051},{"NoteNumber":54,"Velocity":45,"Duration":1090777,"SoundDuration":1090777,"Delta":370051},{"NoteNumber":70,"Velocity":49,"Duration":363592,"SoundDuration":363592,"Delta":733643},{"NoteNumber":70,"Velocity":51,"Duration":363592,"SoundDuration":363592,"Delta":1097236},{"NoteNumber":68,"Velocity":49,"Duration":374484,"SoundDuration":374484,"Delta":1460828},{"NoteNumber":59,"Velocity":49,"Duration":374484,"SoundDuration":374484,"Delta":1460828},{"NoteNumber":63,"Velocity":49,"Duration":374484,"SoundDuration":374484,"Delta":1460828},{"NoteNumber":54,"Velocity":39,"Duration":374484,"SoundDuration":374484,"Delta":1460828},{"NoteNumber":59,"Velocity":46,"Duration":1092905,"SoundDuration":1092905,"Delta":1835313},{"NoteNumber":63,"Velocity":46,"Duration":1092905,"SoundDuration":1092905,"Delta":1835313},{"NoteNumber":68,"Velocity":55,"Duration":363592,"SoundDuration":363592,"Delta":1835313},{"NoteNumber":53,"Velocity":45,"Duration":1092905,"SoundDuration":1092905,"Delta":1835313},{"NoteNumber":70,"Velocity":51,"Duration":363592,"SoundDuration":363592,"Delta":2198906},{"NoteNumber":70,"Velocity":52,"Duration":365719,"SoundDuration":365719,"Delta":2562498},{"NoteNumber":68,"Velocity":56,"Duration":379122,"SoundDuration":379122,"Delta":2928218},{"NoteNumber":59,"Velocity":47,"Duration":379122,"SoundDuration":379122,"Delta":2928218},{"NoteNumber":62,"Velocity":47,"Duration":379122,"SoundDuration":379122,"Delta":2928218},{"NoteNumber":53,"Velocity":45,"Duration":379122,"SoundDuration":379122,"Delta":2928218},{"NoteNumber":59,"Velocity":49,"Duration":1090777,"SoundDuration":1090777,"Delta":3307341},{"NoteNumber":62,"Velocity":49,"Duration":1090777,"SoundDuration":1090777,"Delta":3307341},{"NoteNumber":68,"Velocity":58,"Duration":363592,"SoundDuration":363592,"Delta":3307341},{"NoteNumber":52,"Velocity":49,"Duration":1090777,"SoundDuration":1090777,"Delta":3307341},{"NoteNumber":70,"Velocity":53,"Duration":363592,"SoundDuration":363592,"Delta":3670934},{"NoteNumber":70,"Velocity":55,"Duration":363592,"SoundDuration":363592,"Delta":4034526},{"NoteNumber":62,"Velocity":48,"Duration":374484,"SoundDuration":374484,"Delta":4398119},{"NoteNumber":59,"Velocity":48,"Duration":374484,"SoundDuration":374484,"Delta":4398119},{"NoteNumber":68,"Velocity":57,"Duration":374484,"SoundDuration":374484,"Delta":4398119},{"NoteNumber":52,"Velocity":49,"Duration":374484,"SoundDuration":374484,"Delta":4398119},{"NoteNumber":59,"Velocity":50,"Duration":1095057,"SoundDuration":1095057,"Delta":4772604},{"NoteNumber":63,"Velocity":50,"Duration":1095057,"SoundDuration":1095057,"Delta":4772604},{"NoteNumber":68,"Velocity":60,"Duration":363592,"SoundDuration":363592,"Delta":4772604},{"NoteNumber":51,"Velocity":53,"Duration":1095057,"SoundDuration":1095057,"Delta":4772604},{"NoteNumber":70,"Velocity":56,"Duration":363592,"SoundDuration":363592,"Delta":5136196},{"NoteNumber":70,"Velocity":56,"Duration":367872,"SoundDuration":367872,"Delta":5499789},{"NoteNumber":64,"Velocity":50,"Duration":381436,"SoundDuration":381436,"Delta":5867661},{"NoteNumber":59,"Velocity":50,"Duration":381436,"SoundDuration":381436,"Delta":5867661},{"NoteNumber":68,"Velocity":60,"Duration":381436,"SoundDuration":381436,"Delta":5867661},{"NoteNumber":50,"Velocity":49,"Duration":381436,"SoundDuration":381436,"Delta":5867661},{"NoteNumber":59,"Velocity":52,"Duration":2293064,"SoundDuration":2293064,"Delta":6249098},{"NoteNumber":65,"Velocity":52,"Duration":2293064,"SoundDuration":2293064,"Delta":6249098},{"NoteNumber":68,"Velocity":62,"Duration":363592,"SoundDuration":363592,"Delta":6249098},{"NoteNumber":49,"Velocity":53,"Duration":2293064,"SoundDuration":2293064,"Delta":6249098},{"NoteNumber":70,"Velocity":57,"Duration":363592,"SoundDuration":363592,"Delta":6612690},{"NoteNumber":70,"Velocity":58,"Duration":372301,"SoundDuration":372301,"Delta":6976283},{"NoteNumber":68,"Velocity":47,"Duration":386150,"SoundDuration":386150,"Delta":7348584},{"NoteNumber":68,"Velocity":51,"Duration":403714,"SoundDuration":403714,"Delta":7734734},{"NoteNumber":73,"Velocity":42,"Duration":403713,"SoundDuration":403713,"Delta":8138448},{"NoteNumber":73,"Velocity":40,"Duration":1554807,"SoundDuration":1554807,"Delta":8542162},{"NoteNumber":42,"Velocity":29,"Duration":1080416,"SoundDuration":1080416,"Delta":10096969},{"NoteNumber":49,"Velocity":33,"Duration":1080416,"SoundDuration":1080416,"Delta":10096969},{"NoteNumber":37,"Velocity":27,"Duration":353232,"SoundDuration":353232,"Delta":10460561},{"NoteNumber":37,"Velocity":30,"Duration":363592,"SoundDuration":363592,"Delta":10813793},{"NoteNumber":42,"Velocity":26,"Duration":374484,"SoundDuration":374484,"Delta":11177386},{"NoteNumber":49,"Velocity":29,"Duration":374484,"SoundDuration":374484,"Delta":11177386},{"NoteNumber":42,"Velocity":29,"Duration":1088636,"SoundDuration":1088636,"Delta":11551871},{"NoteNumber":49,"Velocity":33,"Duration":1088636,"SoundDuration":1088636,"Delta":11551871},{"NoteNumber":37,"Velocity":26,"Duration":359324,"SoundDuration":359324,"Delta":11915463},{"NoteNumber":37,"Velocity":29,"Duration":365719,"SoundDuration":365719,"Delta":12274788},{"NoteNumber":58,"Velocity":40,"Duration":367872,"SoundDuration":367872,"Delta":12640508},{"NoteNumber":66,"Velocity":46,"Duration":367872,"SoundDuration":367872,"Delta":12640508},{"NoteNumber":42,"Velocity":26,"Duration":367872,"SoundDuration":367872,"Delta":12640508},{"NoteNumber":49,"Velocity":29,"Duration":367872,"SoundDuration":367872,"Delta":12640508},{"NoteNumber":66,"Velocity":49,"Duration":1073888,"SoundDuration":1073888,"Delta":13008380},{"NoteNumber":58,"Velocity":41,"Duration":1073888,"SoundDuration":1073888,"Delta":13008380},{"NoteNumber":42,"Velocity":29,"Duration":1073888,"SoundDuration":1073888,"Delta":13008380},{"NoteNumber":49,"Velocity":33,"Duration":1073888,"SoundDuration":1073888,"Delta":13008380},{"NoteNumber":70,"Velocity":44,"Duration":355240,"SoundDuration":355240,"Delta":13367705},{"NoteNumber":37,"Velocity":27,"Duration":355240,"SoundDuration":355240,"Delta":13367705},{"NoteNumber":70,"Velocity":46,"Duration":359324,"SoundDuration":359324,"Delta":13722945},{"NoteNumber":37,"Velocity":30,"Duration":359324,"SoundDuration":359324,"Delta":13722945},{"NoteNumber":58,"Velocity":39,"Duration":359324,"SoundDuration":359324,"Delta":14082269},{"NoteNumber":65,"Velocity":44,"Duration":359324,"SoundDuration":359324,"Delta":14082269},{"NoteNumber":49,"Velocity":28,"Duration":359324,"SoundDuration":359324,"Delta":14082269},{"NoteNumber":42,"Velocity":25,"Duration":359324,"SoundDuration":359324,"Delta":14082269},{"NoteNumber":65,"Velocity":48,"Duration":1084498,"SoundDuration":1084498,"Delta":14441594},{"NoteNumber":58,"Velocity":42,"Duration":1084498,"SoundDuration":1084498,"Delta":14441594},{"NoteNumber":42,"Velocity":29,"Duration":1084498,"SoundDuration":1084498,"Delta":14441594},{"NoteNumber":49,"Velocity":33,"Duration":1084498,"SoundDuration":1084498,"Delta":14441594},{"NoteNumber":70,"Velocity":45,"Duration":357313,"SoundDuration":357313,"Delta":14805186},{"NoteNumber":37,"Velocity":26,"Duration":357313,"SoundDuration":357313,"Delta":14805186},{"NoteNumber":70,"Velocity":47,"Duration":363592,"SoundDuration":363592,"Delta":15162499},{"NoteNumber":37,"Velocity":29,"Duration":363592,"SoundDuration":363592,"Delta":15162499},{"NoteNumber":58,"Velocity":38,"Duration":367872,"SoundDuration":367872,"Delta":15526092},{"NoteNumber":63,"Velocity":42,"Duration":367872,"SoundDuration":367872,"Delta":15526092},{"NoteNumber":42,"Velocity":26,"Duration":367872,"SoundDuration":367872,"Delta":15526092},{"NoteNumber":49,"Velocity":29,"Duration":367872,"SoundDuration":367872,"Delta":15526092},{"NoteNumber":63,"Velocity":49,"Duration":1073888,"SoundDuration":1073888,"Delta":15893964},{"NoteNumber":58,"Velocity":44,"Duration":1073888,"SoundDuration":1073888,"Delta":15893964},{"NoteNumber":42,"Velocity":29,"Duration":1073888,"SoundDuration":1073888,"Delta":15893964},{"NoteNumber":49,"Velocity":33,"Duration":1073888,"SoundDuration":1073888,"Delta":15893964},{"NoteNumber":70,"Velocity":44,"Duration":355239,"SoundDuration":355239,"Delta":16253289},{"NoteNumber":37,"Velocity":27,"Duration":355239,"SoundDuration":355239,"Delta":16253289},{"NoteNumber":70,"Velocity":46,"Duration":359324,"SoundDuration":359324,"Delta":16608528},{"NoteNumber":37,"Velocity":30,"Duration":359324,"SoundDuration":359324,"Delta":16608528},{"NoteNumber":61,"Velocity":44,"Duration":272694,"SoundDuration":272694,"Delta":16967853},{"NoteNumber":58,"Velocity":39,"Duration":272694,"SoundDuration":272694,"Delta":16967853},{"NoteNumber":49,"Velocity":28,"Duration":362200,"SoundDuration":362200,"Delta":16967853},{"NoteNumber":42,"Velocity":25,"Duration":362200,"SoundDuration":362200,"Delta":16967853},{"NoteNumber":58,"Velocity":42,"Duration":266429,"SoundDuration":266429,"Delta":17330053},{"NoteNumber":63,"Velocity":48,"Duration":266429,"SoundDuration":266429,"Delta":17330053},{"NoteNumber":42,"Velocity":29,"Duration":1074042,"SoundDuration":1074042,"Delta":17330053},{"NoteNumber":49,"Velocity":33,"Duration":1074042,"SoundDuration":1074042,"Delta":17330053},{"NoteNumber":58,"Velocity":42,"Duration":267984,"SoundDuration":267984,"Delta":17685293},{"NoteNumber":65,"Velocity":42,"Duration":267984,"SoundDuration":267984,"Delta":17685293},{"NoteNumber":37,"Velocity":26,"Duration":357313,"SoundDuration":357313,"Delta":17685293},{"NoteNumber":66,"Velocity":48,"Duration":271117,"SoundDuration":271117,"Delta":18042606},{"NoteNumber":58,"Velocity":42,"Duration":271117,"SoundDuration":271117,"Delta":18042606},{"NoteNumber":37,"Velocity":29,"Duration":361489,"SoundDuration":361489,"Delta":18042606},{"NoteNumber":58,"Velocity":44,"Duration":277537,"SoundDuration":277537,"Delta":18404096},{"NoteNumber":70,"Velocity":44,"Duration":277537,"SoundDuration":277537,"Delta":18404096},{"NoteNumber":42,"Velocity":26,"Duration":370050,"SoundDuration":370050,"Delta":18404096},{"NoteNumber":49,"Velocity":29,"Duration":370050,"SoundDuration":370050,"Delta":18404096},{"NoteNumber":59,"Velocity":44,"Duration":1073888,"SoundDuration":1073888,"Delta":18774146},{"NoteNumber":68,"Velocity":49,"Duration":1073888,"SoundDuration":1073888,"Delta":18774146},{"NoteNumber":42,"Velocity":29,"Duration":1073888,"SoundDuration":1073888,"Delta":18774146},{"NoteNumber":49,"Velocity":33,"Duration":1073888,"SoundDuration":1073888,"Delta":18774146},{"NoteNumber":71,"Velocity":44,"Duration":355239,"SoundDuration":355239,"Delta":19133471},{"NoteNumber":37,"Velocity":27,"Duration":355239,"SoundDuration":355239,"Delta":19133471},{"NoteNumber":71,"Velocity":46,"Duration":359324,"SoundDuration":359324,"Delta":19488711},{"NoteNumber":37,"Velocity":30,"Duration":359324,"SoundDuration":359324,"Delta":19488711},{"NoteNumber":66,"Velocity":44,"Duration":355029,"SoundDuration":355029,"Delta":19848035},{"NoteNumber":59,"Velocity":39,"Duration":355029,"SoundDuration":355029,"Delta":19848035},{"NoteNumber":49,"Velocity":28,"Duration":355029,"SoundDuration":355029,"Delta":19848035},{"NoteNumber":42,"Velocity":25,"Duration":355029,"SoundDuration":355029,"Delta":19848035},{"NoteNumber":59,"Velocity":42,"Duration":1082307,"SoundDuration":1082307,"Delta":20203065},{"NoteNumber":66,"Velocity":48,"Duration":1082307,"SoundDuration":1082307,"Delta":20203065},{"NoteNumber":42,"Velocity":29,"Duration":1082307,"SoundDuration":1082307,"Delta":20203065},{"NoteNumber":49,"Velocity":33,"Duration":1082307,"SoundDuration":1082307,"Delta":20203065},{"NoteNumber":71,"Velocity":45,"Duration":357313,"SoundDuration":357313,"Delta":20566657},{"NoteNumber":37,"Velocity":26,"Duration":357313,"SoundDuration":357313,"Delta":20566657},{"NoteNumber":71,"Velocity":47,"Duration":361401,"SoundDuration":361401,"Delta":20923970},{"NoteNumber":37,"Velocity":29,"Duration":361401,"SoundDuration":361401,"Delta":20923970},{"NoteNumber":65,"Velocity":42,"Duration":357143,"SoundDuration":357143,"Delta":21285372},{"NoteNumber":59,"Velocity":38,"Duration":357143,"SoundDuration":357143,"Delta":21285372},{"NoteNumber":42,"Velocity":26,"Duration":357143,"SoundDuration":357143,"Delta":21285372},{"NoteNumber":49,"Velocity":29,"Duration":357143,"SoundDuration":357143,"Delta":21285372},{"NoteNumber":59,"Velocity":44,"Duration":1073888,"SoundDuration":1073888,"Delta":21642515},{"NoteNumber":65,"Velocity":49,"Duration":1073888,"SoundDuration":1073888,"Delta":21642515},{"NoteNumber":42,"Velocity":29,"Duration":1073888,"SoundDuration":1073888,"Delta":21642515},{"NoteNumber":49,"Velocity":33,"Duration":1073888,"SoundDuration":1073888,"Delta":21642515},{"NoteNumber":71,"Velocity":44,"Duration":355239,"SoundDuration":355239,"Delta":22001840},{"NoteNumber":37,"Velocity":27,"Duration":355239,"SoundDuration":355239,"Delta":22001840},{"NoteNumber":71,"Velocity":46,"Duration":359324,"SoundDuration":359324,"Delta":22357080},{"NoteNumber":37,"Velocity":30,"Duration":359324,"SoundDuration":359324,"Delta":22357080},{"NoteNumber":65,"Velocity":44,"Duration":181796,"SoundDuration":181796,"Delta":22716404},{"NoteNumber":59,"Velocity":39,"Duration":363592,"SoundDuration":363592,"Delta":22716404},{"NoteNumber":49,"Velocity":28,"Duration":363592,"SoundDuration":363592,"Delta":22716404},{"NoteNumber":42,"Velocity":25,"Duration":363592,"SoundDuration":363592,"Delta":22716404},{"NoteNumber":59,"Velocity":42,"Duration":1454831,"SoundDuration":1454831,"Delta":23079997},{"NoteNumber":66,"Velocity":48,"Duration":267984,"SoundDuration":267984,"Delta":23079997},{"NoteNumber":39,"Velocity":35,"Duration":267984,"SoundDuration":267984,"Delta":23079997},{"NoteNumber":49,"Velocity":27,"Duration":1454831,"SoundDuration":1454831,"Delta":23079997},{"NoteNumber":65,"Velocity":42,"Duration":267984,"SoundDuration":267984,"Delta":23437310},{"NoteNumber":37,"Velocity":30,"Duration":267984,"SoundDuration":267984,"Delta":23437310},{"NoteNumber":66,"Velocity":48,"Duration":274290,"SoundDuration":274290,"Delta":23794623},{"NoteNumber":39,"Velocity":36,"Duration":274290,"SoundDuration":274290,"Delta":23794623},{"NoteNumber":68,"Velocity":44,"Duration":280863,"SoundDuration":280863,"Delta":24160343},{"NoteNumber":41,"Velocity":30,"Duration":280863,"SoundDuration":280863,"Delta":24160343},{"NoteNumber":58,"Velocity":44,"Duration":1073888,"SoundDuration":1073888,"Delta":24534828},{"NoteNumber":66,"Velocity":49,"Duration":1073888,"SoundDuration":1073888,"Delta":24534828},{"NoteNumber":42,"Velocity":29,"Duration":1073888,"SoundDuration":1073888,"Delta":24534828},{"NoteNumber":49,"Velocity":33,"Duration":1073888,"SoundDuration":1073888,"Delta":24534828},{"NoteNumber":70,"Velocity":44,"Duration":355239,"SoundDuration":355239,"Delta":24894152},{"NoteNumber":37,"Velocity":27,"Duration":355239,"SoundDuration":355239,"Delta":24894152},{"NoteNumber":70,"Velocity":50,"Duration":359324,"SoundDuration":359324,"Delta":25249392},{"NoteNumber":37,"Velocity":33,"Duration":359324,"SoundDuration":359324,"Delta":25249392},{"NoteNumber":58,"Velocity":44,"Duration":357143,"SoundDuration":357143,"Delta":25608717},{"NoteNumber":65,"Velocity":48,"Duration":357143,"SoundDuration":357143,"Delta":25608717},{"NoteNumber":49,"Velocity":30,"Duration":357143,"SoundDuration":357143,"Delta":25608717},{"NoteNumber":42,"Velocity":27,"Duration":357143,"SoundDuration":357143,"Delta":25608717},{"NoteNumber":58,"Velocity":50,"Duration":1086625,"SoundDuration":1086625,"Delta":25965860},{"NoteNumber":65,"Velocity":57,"Duration":1086625,"SoundDuration":1086625,"Delta":25965860},{"NoteNumber":42,"Velocity":34,"Duration":1086625,"SoundDuration":1086625,"Delta":25965860},{"NoteNumber":49,"Velocity":39,"Duration":1086625,"SoundDuration":1086625,"Delta":25965860},{"NoteNumber":70,"Velocity":55,"Duration":357313,"SoundDuration":357313,"Delta":26329452},{"NoteNumber":37,"Velocity":33,"Duration":357313,"SoundDuration":357313,"Delta":26329452},{"NoteNumber":70,"Velocity":61,"Duration":365719,"SoundDuration":365719,"Delta":26686765},{"NoteNumber":37,"Velocity":38,"Duration":365719,"SoundDuration":365719,"Delta":26686765},{"NoteNumber":64,"Velocity":57,"Duration":383779,"SoundDuration":383779,"Delta":27052485},{"NoteNumber":58,"Velocity":50,"Duration":383779,"SoundDuration":383779,"Delta":27052485},{"NoteNumber":42,"Velocity":34,"Duration":383779,"SoundDuration":383779,"Delta":27052485},{"NoteNumber":48,"Velocity":39,"Duration":383779,"SoundDuration":383779,"Delta":27052485},{"NoteNumber":58,"Velocity":62,"Duration":1073888,"SoundDuration":1073888,"Delta":27436264},{"NoteNumber":64,"Velocity":70,"Duration":1073888,"SoundDuration":1073888,"Delta":27436264},{"NoteNumber":42,"Velocity":41,"Duration":1073888,"SoundDuration":1073888,"Delta":27436264},{"NoteNumber":48,"Velocity":47,"Duration":1073888,"SoundDuration":1073888,"Delta":27436264},{"NoteNumber":70,"Velocity":62,"Duration":355239,"SoundDuration":355239,"Delta":27795589},{"NoteNumber":36,"Velocity":37,"Duration":355239,"SoundDuration":355239,"Delta":27795589},{"NoteNumber":70,"Velocity":66,"Duration":359324,"SoundDuration":359324,"Delta":28150829},{"NoteNumber":36,"Velocity":44,"Duration":359324,"SoundDuration":359324,"Delta":28150829},{"NoteNumber":64,"Velocity":62,"Duration":363592,"SoundDuration":363592,"Delta":28510153},{"NoteNumber":58,"Velocity":56,"Duration":363592,"SoundDuration":363592,"Delta":28510153},{"NoteNumber":48,"Velocity":39,"Duration":363592,"SoundDuration":363592,"Delta":28510153},{"NoteNumber":43,"Velocity":35,"Duration":363592,"SoundDuration":363592,"Delta":28510153},{"NoteNumber":58,"Velocity":59,"Duration":1086625,"SoundDuration":1086625,"Delta":28873746},{"NoteNumber":64,"Velocity":66,"Duration":720905,"SoundDuration":720905,"Delta":28873746},{"NoteNumber":43,"Velocity":39,"Duration":1086625,"SoundDuration":1086625,"Delta":28873746},{"NoteNumber":48,"Velocity":46,"Duration":1086625,"SoundDuration":1086625,"Delta":28873746},{"NoteNumber":72,"Velocity":59,"Duration":357313,"SoundDuration":357313,"Delta":29237338},{"NoteNumber":36,"Velocity":34,"Duration":357313,"SoundDuration":357313,"Delta":29237338},{"NoteNumber":72,"Velocity":58,"Duration":365720,"SoundDuration":365720,"Delta":29594651},{"NoteNumber":36,"Velocity":37,"Duration":365720,"SoundDuration":365720,"Delta":29594651},{"NoteNumber":70,"Velocity":49,"Duration":383778,"SoundDuration":383778,"Delta":29960371},{"NoteNumber":64,"Velocity":49,"Duration":383778,"SoundDuration":383778,"Delta":29960371},{"NoteNumber":43,"Velocity":30,"Duration":383778,"SoundDuration":383778,"Delta":29960371},{"NoteNumber":48,"Velocity":33,"Duration":383778,"SoundDuration":383778,"Delta":29960371},{"NoteNumber":65,"Velocity":45,"Duration":1076010,"SoundDuration":1076010,"Delta":30344150},{"NoteNumber":69,"Velocity":50,"Duration":1076010,"SoundDuration":1076010,"Delta":30344150},{"NoteNumber":60,"Velocity":45,"Duration":1076010,"SoundDuration":1076010,"Delta":30344150},{"NoteNumber":41,"Velocity":50,"Duration":5609585,"SoundDuration":5609585,"Delta":30344150},{"NoteNumber":53,"Velocity":50,"Duration":1076010,"SoundDuration":1076010,"Delta":30344150},{"NoteNumber":57,"Velocity":44,"Duration":355240,"SoundDuration":355240,"Delta":30703475},{"NoteNumber":57,"Velocity":48,"Duration":361446,"SoundDuration":361446,"Delta":31058715},{"NoteNumber":60,"Velocity":42,"Duration":352941,"SoundDuration":352941,"Delta":31420161},{"NoteNumber":67,"Velocity":48,"Duration":352941,"SoundDuration":352941,"Delta":31420161},{"NoteNumber":72,"Velocity":48,"Duration":352941,"SoundDuration":352941,"Delta":31420161},{"NoteNumber":52,"Velocity":48,"Duration":352941,"SoundDuration":352941,"Delta":31420161},{"NoteNumber":72,"Velocity":50,"Duration":1063589,"SoundDuration":1063589,"Delta":31773102},{"NoteNumber":67,"Velocity":50,"Duration":1063589,"SoundDuration":1063589,"Delta":31773102},{"NoteNumber":60,"Velocity":45,"Duration":1063589,"SoundDuration":1063589,"Delta":31773102},{"NoteNumber":52,"Velocity":50,"Duration":1063589,"SoundDuration":1063589,"Delta":31773102},{"NoteNumber":57,"Velocity":46,"Duration":351205,"SoundDuration":351205,"Delta":32130245},{"NoteNumber":57,"Velocity":49,"Duration":355240,"SoundDuration":355240,"Delta":32481451},{"NoteNumber":69,"Velocity":52,"Duration":361489,"SoundDuration":361489,"Delta":32836691},{"NoteNumber":65,"Velocity":52,"Duration":361489,"SoundDuration":361489,"Delta":32836691},{"NoteNumber":74,"Velocity":58,"Duration":361489,"SoundDuration":361489,"Delta":32836691},{"NoteNumber":50,"Velocity":53,"Duration":361489,"SoundDuration":361489,"Delta":32836691},{"NoteNumber":65,"Velocity":55,"Duration":1055815,"SoundDuration":1055815,"Delta":33198180},{"NoteNumber":69,"Velocity":55,"Duration":1055815,"SoundDuration":1055815,"Delta":33198180},{"NoteNumber":74,"Velocity":62,"Duration":1055815,"SoundDuration":1055815,"Delta":33198180},{"NoteNumber":50,"Velocity":56,"Duration":1055815,"SoundDuration":1055815,"Delta":33198180},{"NoteNumber":57,"Velocity":47,"Duration":347343,"SoundDuration":347343,"Delta":33553420},{"NoteNumber":57,"Velocity":49,"Duration":353231,"SoundDuration":353231,"Delta":33900763},{"NoteNumber":77,"Velocity":56,"Duration":257613,"SoundDuration":257613,"Delta":34253995},{"NoteNumber":69,"Velocity":49,"Duration":257613,"SoundDuration":257613,"Delta":34253995},{"NoteNumber":72,"Velocity":49,"Duration":257613,"SoundDuration":257613,"Delta":34253995},{"NoteNumber":48,"Velocity":48,"Duration":257613,"SoundDuration":257613,"Delta":34253995},{"NoteNumber":65,"Velocity":55,"Duration":261963,"SoundDuration":261963,"Delta":34597480},{"NoteNumber":69,"Velocity":55,"Duration":261963,"SoundDuration":261963,"Delta":34597480},{"NoteNumber":74,"Velocity":60,"Duration":261963,"SoundDuration":261963,"Delta":34597480},{"NoteNumber":50,"Velocity":53,"Duration":261963,"SoundDuration":261963,"Delta":34597480},{"NoteNumber":72,"Velocity":50,"Duration":261963,"SoundDuration":261963,"Delta":34946764},{"NoteNumber":64,"Velocity":45,"Duration":261963,"SoundDuration":261963,"Delta":34946764},{"NoteNumber":67,"Velocity":45,"Duration":261963,"SoundDuration":261963,"Delta":34946764},{"NoteNumber":52,"Velocity":46,"Duration":261963,"SoundDuration":261963,"Delta":34946764},{"NoteNumber":60,"Velocity":46,"Duration":272694,"SoundDuration":272694,"Delta":35296048},{"NoteNumber":65,"Velocity":46,"Duration":272694,"SoundDuration":272694,"Delta":35296048},{"NoteNumber":69,"Velocity":51,"Duration":272694,"SoundDuration":272694,"Delta":35296048},{"NoteNumber":53,"Velocity":49,"Duration":272694,"SoundDuration":272694,"Delta":35296048},{"NoteNumber":58,"Velocity":40,"Duration":294095,"SoundDuration":294095,"Delta":35659641},{"NoteNumber":67,"Velocity":45,"Duration":294095,"SoundDuration":294095,"Delta":35659641},{"NoteNumber":62,"Velocity":40,"Duration":294095,"SoundDuration":294095,"Delta":35659641},{"NoteNumber":55,"Velocity":44,"Duration":294095,"SoundDuration":294095,"Delta":35659641},{"NoteNumber":41,"Velocity":50,"Duration":5812890,"SoundDuration":5812890,"Delta":35953736},{"NoteNumber":62,"Velocity":45,"Duration":1073889,"SoundDuration":1073889,"Delta":36044634},{"NoteNumber":58,"Velocity":45,"Duration":359324,"SoundDuration":359324,"Delta":36044634},{"NoteNumber":67,"Velocity":50,"Duration":1073889,"SoundDuration":1073889,"Delta":36044634},{"NoteNumber":55,"Velocity":50,"Duration":1073889,"SoundDuration":1073889,"Delta":36044634},{"NoteNumber":58,"Velocity":44,"Duration":355240,"SoundDuration":355240,"Delta":36403959},{"NoteNumber":58,"Velocity":48,"Duration":359324,"SoundDuration":359324,"Delta":36759199},{"NoteNumber":62,"Velocity":42,"Duration":351205,"SoundDuration":351205,"Delta":37118523},{"NoteNumber":67,"Velocity":48,"Duration":351205,"SoundDuration":351205,"Delta":37118523},{"NoteNumber":70,"Velocity":48,"Duration":351205,"SoundDuration":351205,"Delta":37118523},{"NoteNumber":53,"Velocity":48,"Duration":351205,"SoundDuration":351205,"Delta":37118523},{"NoteNumber":62,"Velocity":45,"Duration":1069854,"SoundDuration":1069854,"Delta":37469729},{"NoteNumber":70,"Velocity":50,"Duration":1069854,"SoundDuration":1069854,"Delta":37469729},{"NoteNumber":67,"Velocity":50,"Duration":1069854,"SoundDuration":1069854,"Delta":37469729},{"NoteNumber":53,"Velocity":50,"Duration":1069854,"SoundDuration":1069854,"Delta":37469729},{"NoteNumber":58,"Velocity":46,"Duration":351205,"SoundDuration":351205,"Delta":37829054},{"NoteNumber":58,"Velocity":49,"Duration":359324,"SoundDuration":359324,"Delta":38180260},{"NoteNumber":67,"Velocity":52,"Duration":355240,"SoundDuration":355240,"Delta":38539584},{"NoteNumber":70,"Velocity":52,"Duration":355240,"SoundDuration":355240,"Delta":38539584},{"NoteNumber":74,"Velocity":58,"Duration":355240,"SoundDuration":355240,"Delta":38539584},{"NoteNumber":52,"Velocity":53,"Duration":355240,"SoundDuration":355240,"Delta":38539584},{"NoteNumber":67,"Velocity":55,"Duration":1067932,"SoundDuration":1067932,"Delta":38894824},{"NoteNumber":70,"Velocity":55,"Duration":1067932,"SoundDuration":1067932,"Delta":38894824},{"NoteNumber":74,"Velocity":62,"Duration":1067932,"SoundDuration":1067932,"Delta":38894824},{"NoteNumber":52,"Velocity":56,"Duration":1067932,"SoundDuration":1067932,"Delta":38894824},{"NoteNumber":58,"Velocity":47,"Duration":349283,"SoundDuration":349283,"Delta":39254149},{"NoteNumber":58,"Velocity":49,"Duration":359324,"SoundDuration":359324,"Delta":39603433},{"NoteNumber":70,"Velocity":50,"Duration":260507,"SoundDuration":260507,"Delta":39962757},{"NoteNumber":67,"Velocity":50,"Duration":260507,"SoundDuration":260507,"Delta":39962757},{"NoteNumber":74,"Velocity":50,"Duration":260507,"SoundDuration":260507,"Delta":39962757},{"NoteNumber":77,"Velocity":57,"Duration":260507,"SoundDuration":260507,"Delta":39962757},{"NoteNumber":50,"Velocity":48,"Duration":260507,"SoundDuration":260507,"Delta":39962757},{"NoteNumber":67,"Velocity":56,"Duration":260507,"SoundDuration":260507,"Delta":40310100},{"NoteNumber":77,"Velocity":62,"Duration":260507,"SoundDuration":260507,"Delta":40310100},{"NoteNumber":70,"Velocity":56,"Duration":260507,"SoundDuration":260507,"Delta":40310100},{"NoteNumber":74,"Velocity":56,"Duration":260507,"SoundDuration":260507,"Delta":40310100},{"NoteNumber":50,"Velocity":53,"Duration":260507,"SoundDuration":260507,"Delta":40310100},{"NoteNumber":67,"Velocity":46,"Duration":267984,"SoundDuration":267984,"Delta":40657443},{"NoteNumber":70,"Velocity":46,"Duration":267984,"SoundDuration":267984,"Delta":40657443},{"NoteNumber":76,"Velocity":52,"Duration":267984,"SoundDuration":267984,"Delta":40657443},{"NoteNumber":48,"Velocity":46,"Duration":267984,"SoundDuration":267984,"Delta":40657443},{"NoteNumber":67,"Velocity":49,"Duration":274290,"SoundDuration":274290,"Delta":41014756},{"NoteNumber":77,"Velocity":55,"Duration":274290,"SoundDuration":274290,"Delta":41014756},{"NoteNumber":74,"Velocity":49,"Duration":274290,"SoundDuration":274290,"Delta":41014756},{"NoteNumber":70,"Velocity":49,"Duration":274290,"SoundDuration":274290,"Delta":41014756},{"NoteNumber":50,"Velocity":49,"Duration":274290,"SoundDuration":274290,"Delta":41014756},{"NoteNumber":72,"Velocity":42,"Duration":289612,"SoundDuration":289612,"Delta":41380476},{"NoteNumber":70,"Velocity":42,"Duration":289612,"SoundDuration":289612,"Delta":41380476},{"NoteNumber":67,"Velocity":42,"Duration":289612,"SoundDuration":289612,"Delta":41380476},{"NoteNumber":79,"Velocity":48,"Duration":289612,"SoundDuration":289612,"Delta":41380476},{"NoteNumber":52,"Velocity":44,"Duration":289612,"SoundDuration":289612,"Delta":41380476},{"NoteNumber":65,"Velocity":39,"Duration":1258173,"SoundDuration":1258173,"Delta":41573551},{"NoteNumber":72,"Velocity":45,"Duration":1161635,"SoundDuration":1161635,"Delta":41670089},{"NoteNumber":81,"Velocity":50,"Duration":1065098,"SoundDuration":1065098,"Delta":41766626},{"NoteNumber":41,"Velocity":50,"Duration":5616761,"SoundDuration":5616761,"Delta":41766626},{"NoteNumber":53,"Velocity":50,"Duration":1065098,"SoundDuration":1065098,"Delta":41766626},{"NoteNumber":57,"Velocity":44,"Duration":351205,"SoundDuration":351205,"Delta":42125951},{"NoteNumber":57,"Velocity":49,"Duration":354567,"SoundDuration":354567,"Delta":42477157},{"NoteNumber":84,"Velocity":52,"Duration":351205,"SoundDuration":351205,"Delta":42831724},{"NoteNumber":72,"Velocity":47,"Duration":351205,"SoundDuration":351205,"Delta":42831724},{"NoteNumber":79,"Velocity":52,"Duration":351205,"SoundDuration":351205,"Delta":42831724},{"NoteNumber":52,"Velocity":52,"Duration":351205,"SoundDuration":351205,"Delta":42831724},{"NoteNumber":84,"Velocity":56,"Duration":1072034,"SoundDuration":1072034,"Delta":43182930},{"NoteNumber":79,"Velocity":56,"Duration":1072034,"SoundDuration":1072034,"Delta":43182930},{"NoteNumber":72,"Velocity":50,"Duration":1072034,"SoundDuration":1072034,"Delta":43182930},{"NoteNumber":52,"Velocity":56,"Duration":1072034,"SoundDuration":1072034,"Delta":43182930},{"NoteNumber":57,"Velocity":52,"Duration":353231,"SoundDuration":353231,"Delta":43544420},{"NoteNumber":57,"Velocity":57,"Duration":357312,"SoundDuration":357312,"Delta":43897652},{"NoteNumber":86,"Velocity":64,"Duration":357312,"SoundDuration":357312,"Delta":44254965},{"NoteNumber":77,"Velocity":59,"Duration":357312,"SoundDuration":357312,"Delta":44254965},{"NoteNumber":81,"Velocity":59,"Duration":357312,"SoundDuration":357312,"Delta":44254965},{"NoteNumber":50,"Velocity":60,"Duration":357312,"SoundDuration":357312,"Delta":44254965},{"NoteNumber":77,"Velocity":61,"Duration":1067673,"SoundDuration":1067673,"Delta":44612278},{"NoteNumber":81,"Velocity":61,"Duration":1067673,"SoundDuration":1067673,"Delta":44612278},{"NoteNumber":86,"Velocity":69,"Duration":1067673,"SoundDuration":1067673,"Delta":44612278},{"NoteNumber":50,"Velocity":63,"Duration":1067673,"SoundDuration":1067673,"Delta":44612278},{"NoteNumber":57,"Velocity":53,"Duration":351205,"SoundDuration":351205,"Delta":44971602},{"NoteNumber":57,"Velocity":56,"Duration":357143,"SoundDuration":357143,"Delta":45322808},{"NoteNumber":81,"Velocity":55,"Duration":261963,"SoundDuration":261963,"Delta":45679951},{"NoteNumber":84,"Velocity":55,"Duration":261963,"SoundDuration":261963,"Delta":45679951},{"NoteNumber":89,"Velocity":62,"Duration":261963,"SoundDuration":261963,"Delta":45679951},{"NoteNumber":48,"Velocity":55,"Duration":261963,"SoundDuration":261963,"Delta":45679951},{"NoteNumber":81,"Velocity":59,"Duration":261963,"SoundDuration":261963,"Delta":46029235},{"NoteNumber":77,"Velocity":59,"Duration":261963,"SoundDuration":261963,"Delta":46029235},{"NoteNumber":86,"Velocity":66,"Duration":261963,"SoundDuration":261963,"Delta":46029235},{"NoteNumber":50,"Velocity":59,"Duration":261963,"SoundDuration":261963,"Delta":46029235},{"NoteNumber":76,"Velocity":48,"Duration":261963,"SoundDuration":261963,"Delta":46378519},{"NoteNumber":79,"Velocity":48,"Duration":261963,"SoundDuration":261963,"Delta":46378519},{"NoteNumber":84,"Velocity":52,"Duration":261963,"SoundDuration":261963,"Delta":46378519},{"NoteNumber":52,"Velocity":49,"Duration":261963,"SoundDuration":261963,"Delta":46378519},{"NoteNumber":81,"Velocity":51,"Duration":271117,"SoundDuration":271117,"Delta":46727803},{"NoteNumber":77,"Velocity":46,"Duration":271117,"SoundDuration":271117,"Delta":46727803},{"NoteNumber":72,"Velocity":46,"Duration":271117,"SoundDuration":271117,"Delta":46727803},{"NoteNumber":53,"Velocity":50,"Duration":271117,"SoundDuration":271117,"Delta":46727803},{"NoteNumber":70,"Velocity":39,"Duration":294095,"SoundDuration":294095,"Delta":47089293},{"NoteNumber":74,"Velocity":39,"Duration":294095,"SoundDuration":294095,"Delta":47089293},{"NoteNumber":79,"Velocity":44,"Duration":294095,"SoundDuration":294095,"Delta":47089293},{"NoteNumber":55,"Velocity":44,"Duration":294095,"SoundDuration":294095,"Delta":47089293},{"NoteNumber":41,"Velocity":50,"Duration":1508110,"SoundDuration":1508110,"Delta":47383388},{"NoteNumber":79,"Velocity":50,"Duration":1063980,"SoundDuration":1063980,"Delta":47474286},{"NoteNumber":70,"Velocity":45,"Duration":1063980,"SoundDuration":1063980,"Delta":47474286},{"NoteNumber":74,"Velocity":45,"Duration":1063980,"SoundDuration":1063980,"Delta":47474286},{"NoteNumber":55,"Velocity":50,"Duration":1063980,"SoundDuration":1063980,"Delta":47474286},{"NoteNumber":58,"Velocity":44,"Duration":347343,"SoundDuration":347343,"Delta":47833611},{"NoteNumber":58,"Velocity":48,"Duration":357312,"SoundDuration":357312,"Delta":48180954},{"NoteNumber":70,"Velocity":48,"Duration":353231,"SoundDuration":353231,"Delta":48538267},{"NoteNumber":67,"Velocity":42,"Duration":353231,"SoundDuration":353231,"Delta":48538267},{"NoteNumber":74,"Velocity":48,"Duration":353231,"SoundDuration":353231,"Delta":48538267},{"NoteNumber":53,"Velocity":48,"Duration":353231,"SoundDuration":353231,"Delta":48538267},{"NoteNumber":74,"Velocity":50,"Duration":1067953,"SoundDuration":1067953,"Delta":48891499},{"NoteNumber":70,"Velocity":50,"Duration":1067953,"SoundDuration":1067953,"Delta":48891499},{"NoteNumber":67,"Velocity":45,"Duration":1067953,"SoundDuration":1067953,"Delta":48891499},{"NoteNumber":53,"Velocity":50,"Duration":1067953,"SoundDuration":1067953,"Delta":48891499},{"NoteNumber":58,"Velocity":46,"Duration":353231,"SoundDuration":353231,"Delta":49252988},{"NoteNumber":58,"Velocity":50,"Duration":353231,"SoundDuration":353231,"Delta":49606220},{"NoteNumber":70,"Velocity":49,"Duration":357312,"SoundDuration":357312,"Delta":49959452},{"NoteNumber":60,"Velocity":49,"Duration":357312,"SoundDuration":357312,"Delta":49959452},{"NoteNumber":67,"Velocity":49,"Duration":357312,"SoundDuration":357312,"Delta":49959452},{"NoteNumber":72,"Velocity":55,"Duration":357312,"SoundDuration":357312,"Delta":49959452},{"NoteNumber":52,"Velocity":55,"Duration":357312,"SoundDuration":357312,"Delta":49959452},{"NoteNumber":60,"Velocity":47,"Duration":1073889,"SoundDuration":1073889,"Delta":50316765},{"NoteNumber":72,"Velocity":52,"Duration":1073889,"SoundDuration":1073889,"Delta":50316765},{"NoteNumber":67,"Velocity":47,"Duration":1073889,"SoundDuration":1073889,"Delta":50316765},{"NoteNumber":70,"Velocity":47,"Duration":1073889,"SoundDuration":1073889,"Delta":50316765},{"NoteNumber":52,"Velocity":52,"Duration":1073889,"SoundDuration":1073889,"Delta":50316765},{"NoteNumber":58,"Velocity":47,"Duration":355240,"SoundDuration":355240,"Delta":50676090},{"NoteNumber":58,"Velocity":55,"Duration":359324,"SoundDuration":359324,"Delta":51031330},{"NoteNumber":66,"Velocity":49,"Duration":357648,"SoundDuration":357648,"Delta":51390654},{"NoteNumber":60,"Velocity":49,"Duration":357648,"SoundDuration":357648,"Delta":51390654},{"NoteNumber":70,"Velocity":56,"Duration":357648,"SoundDuration":357648,"Delta":51390654},{"NoteNumber":72,"Velocity":56,"Duration":357648,"SoundDuration":357648,"Delta":51390654},{"NoteNumber":51,"Velocity":56,"Duration":357648,"SoundDuration":357648,"Delta":51390654},{"NoteNumber":60,"Velocity":53,"Duration":1084498,"SoundDuration":1084498,"Delta":51748302},{"NoteNumber":66,"Velocity":53,"Duration":1084498,"SoundDuration":1084498,"Delta":51748302},{"NoteNumber":70,"Velocity":59,"Duration":1084498,"SoundDuration":1084498,"Delta":51748302},{"NoteNumber":72,"Velocity":59,"Duration":1084498,"SoundDuration":1084498,"Delta":51748302},{"NoteNumber":51,"Velocity":59,"Duration":1084498,"SoundDuration":1084498,"Delta":51748302},{"NoteNumber":58,"Velocity":57,"Duration":357312,"SoundDuration":357312,"Delta":52111895},{"NoteNumber":58,"Velocity":61,"Duration":363592,"SoundDuration":363592,"Delta":52469208},{"NoteNumber":70,"Velocity":59,"Duration":374484,"SoundDuration":374484,"Delta":52832800},{"NoteNumber":66,"Velocity":59,"Duration":374484,"SoundDuration":374484,"Delta":52832800},{"NoteNumber":61,"Velocity":59,"Duration":374484,"SoundDuration":374484,"Delta":52832800},{"NoteNumber":73,"Velocity":66,"Duration":374484,"SoundDuration":374484,"Delta":52832800},{"NoteNumber":49,"Velocity":66,"Duration":374484,"SoundDuration":374484,"Delta":52832800},{"NoteNumber":61,"Velocity":61,"Duration":1073889,"SoundDuration":1073889,"Delta":53207285},{"NoteNumber":73,"Velocity":70,"Duration":1073889,"SoundDuration":1073889,"Delta":53207285},{"NoteNumber":66,"Velocity":61,"Duration":1073889,"SoundDuration":1073889,"Delta":53207285},{"NoteNumber":70,"Velocity":61,"Duration":1073889,"SoundDuration":1073889,"Delta":53207285},{"NoteNumber":49,"Velocity":70,"Duration":1073889,"SoundDuration":1073889,"Delta":53207285},{"NoteNumber":58,"Velocity":60,"Duration":355240,"SoundDuration":355240,"Delta":53566610},{"NoteNumber":58,"Velocity":67,"Duration":359324,"SoundDuration":359324,"Delta":53921850},{"NoteNumber":66,"Velocity":61,"Duration":374484,"SoundDuration":374484,"Delta":54281174},{"NoteNumber":63,"Velocity":61,"Duration":374484,"SoundDuration":374484,"Delta":54281174},{"NoteNumber":70,"Velocity":69,"Duration":374484,"SoundDuration":374484,"Delta":54281174},{"NoteNumber":75,"Velocity":69,"Duration":374484,"SoundDuration":374484,"Delta":54281174},{"NoteNumber":48,"Velocity":69,"Duration":374484,"SoundDuration":374484,"Delta":54281174},{"NoteNumber":63,"Velocity":67,"Duration":1082241,"SoundDuration":1082241,"Delta":54655659},{"NoteNumber":66,"Velocity":67,"Duration":1082241,"SoundDuration":1082241,"Delta":54655659},{"NoteNumber":75,"Velocity":74,"Duration":1082241,"SoundDuration":1082241,"Delta":54655659},{"NoteNumber":70,"Velocity":74,"Duration":1082241,"SoundDuration":1082241,"Delta":54655659},{"NoteNumber":48,"Velocity":74,"Duration":3964307,"SoundDuration":3964307,"Delta":54655659},{"NoteNumber":58,"Velocity":62,"Duration":359324,"SoundDuration":359324,"Delta":55019252},{"NoteNumber":58,"Velocity":69,"Duration":3241390,"SoundDuration":3241390,"Delta":55378576},{"NoteNumber":63,"Velocity":52,"Duration":386150,"SoundDuration":386150,"Delta":55737901},{"NoteNumber":63,"Velocity":58,"Duration":2495916,"SoundDuration":2495916,"Delta":56124051},{"NoteNumber":70,"Velocity":45,"Duration":372301,"SoundDuration":372301,"Delta":56496352},{"NoteNumber":70,"Velocity":39,"Duration":1751314,"SoundDuration":1751314,"Delta":56868653},{"NoteNumber":47,"Velocity":34,"Duration":388601,"SoundDuration":388601,"Delta":59008568},{"NoteNumber":47,"Velocity":39,"Duration":5765224,"SoundDuration":5765224,"Delta":59397169},{"NoteNumber":56,"Velocity":33,"Duration":381436,"SoundDuration":381436,"Delta":59778605},{"NoteNumber":56,"Velocity":33,"Duration":5002351,"SoundDuration":5002351,"Delta":60160042},{"NoteNumber":63,"Velocity":41,"Duration":390981,"SoundDuration":390981,"Delta":61342998},{"NoteNumber":63,"Velocity":48,"Duration":3428413,"SoundDuration":3428413,"Delta":61733980},{"NoteNumber":70,"Velocity":41,"Duration":431717,"SoundDuration":431717,"Delta":62140374},{"NoteNumber":70,"Velocity":42,"Duration":2590301,"SoundDuration":2590301,"Delta":62572091},{"NoteNumber":68,"Velocity":51,"Duration":370050,"SoundDuration":370050,"Delta":65532443},{"NoteNumber":59,"Velocity":46,"Duration":1090777,"SoundDuration":1090777,"Delta":65902494},{"NoteNumber":63,"Velocity":46,"Duration":1090777,"SoundDuration":1090777,"Delta":65902494},{"NoteNumber":68,"Velocity":55,"Duration":363592,"SoundDuration":363592,"Delta":65902494},{"NoteNumber":54,"Velocity":45,"Duration":1090777,"SoundDuration":1090777,"Delta":65902494},{"NoteNumber":70,"Velocity":49,"Duration":363592,"SoundDuration":363592,"Delta":66266086},{"NoteNumber":70,"Velocity":51,"Duration":363592,"SoundDuration":363592,"Delta":66629679},{"NoteNumber":63,"Velocity":49,"Duration":374485,"SoundDuration":374485,"Delta":66993271},{"NoteNumber":59,"Velocity":49,"Duration":374485,"SoundDuration":374485,"Delta":66993271},{"NoteNumber":68,"Velocity":49,"Duration":374485,"SoundDuration":374485,"Delta":66993271},{"NoteNumber":54,"Velocity":39,"Duration":374485,"SoundDuration":374485,"Delta":66993271},{"NoteNumber":59,"Velocity":46,"Duration":1092905,"SoundDuration":1092905,"Delta":67367756},{"NoteNumber":63,"Velocity":46,"Duration":1092905,"SoundDuration":1092905,"Delta":67367756},{"NoteNumber":68,"Velocity":55,"Duration":363592,"SoundDuration":363592,"Delta":67367756},{"NoteNumber":53,"Velocity":45,"Duration":1092905,"SoundDuration":1092905,"Delta":67367756},{"NoteNumber":70,"Velocity":51,"Duration":363592,"SoundDuration":363592,"Delta":67731349},{"NoteNumber":70,"Velocity":52,"Duration":365719,"SoundDuration":365719,"Delta":68094941},{"NoteNumber":59,"Velocity":47,"Duration":379123,"SoundDuration":379123,"Delta":68460661},{"NoteNumber":62,"Velocity":47,"Duration":379123,"SoundDuration":379123,"Delta":68460661},{"NoteNumber":68,"Velocity":56,"Duration":379123,"SoundDuration":379123,"Delta":68460661},{"NoteNumber":53,"Velocity":45,"Duration":379123,"SoundDuration":379123,"Delta":68460661},{"NoteNumber":59,"Velocity":49,"Duration":1090777,"SoundDuration":1090777,"Delta":68839784},{"NoteNumber":62,"Velocity":49,"Duration":1090777,"SoundDuration":1090777,"Delta":68839784},{"NoteNumber":68,"Velocity":58,"Duration":363592,"SoundDuration":363592,"Delta":68839784},{"NoteNumber":52,"Velocity":49,"Duration":1090777,"SoundDuration":1090777,"Delta":68839784},{"NoteNumber":70,"Velocity":53,"Duration":363592,"SoundDuration":363592,"Delta":69203377},{"NoteNumber":70,"Velocity":55,"Duration":363592,"SoundDuration":363592,"Delta":69566969},{"NoteNumber":59,"Velocity":48,"Duration":374485,"SoundDuration":374485,"Delta":69930562},{"NoteNumber":62,"Velocity":48,"Duration":374485,"SoundDuration":374485,"Delta":69930562},{"NoteNumber":68,"Velocity":57,"Duration":374485,"SoundDuration":374485,"Delta":69930562},{"NoteNumber":52,"Velocity":49,"Duration":374485,"SoundDuration":374485,"Delta":69930562},{"NoteNumber":68,"Velocity":60,"Duration":363592,"SoundDuration":363592,"Delta":70305047},{"NoteNumber":59,"Velocity":50,"Duration":1095057,"SoundDuration":1095057,"Delta":70305047},{"NoteNumber":63,"Velocity":50,"Duration":1095057,"SoundDuration":1095057,"Delta":70305047},{"NoteNumber":51,"Velocity":53,"Duration":1095057,"SoundDuration":1095057,"Delta":70305047},{"NoteNumber":70,"Velocity":56,"Duration":363592,"SoundDuration":363592,"Delta":70668639},{"NoteNumber":70,"Velocity":56,"Duration":367872,"SoundDuration":367872,"Delta":71032232},{"NoteNumber":59,"Velocity":50,"Duration":381436,"SoundDuration":381436,"Delta":71400104},{"NoteNumber":64,"Velocity":50,"Duration":381436,"SoundDuration":381436,"Delta":71400104},{"NoteNumber":68,"Velocity":60,"Duration":381436,"SoundDuration":381436,"Delta":71400104},{"NoteNumber":50,"Velocity":49,"Duration":381436,"SoundDuration":381436,"Delta":71400104},{"NoteNumber":65,"Velocity":52,"Duration":2293064,"SoundDuration":2293064,"Delta":71781541},{"NoteNumber":68,"Velocity":62,"Duration":363592,"SoundDuration":363592,"Delta":71781541},{"NoteNumber":59,"Velocity":52,"Duration":2293064,"SoundDuration":2293064,"Delta":71781541},{"NoteNumber":49,"Velocity":53,"Duration":2293064,"SoundDuration":2293064,"Delta":71781541},{"NoteNumber":70,"Velocity":57,"Duration":363592,"SoundDuration":363592,"Delta":72145133},{"NoteNumber":70,"Velocity":58,"Duration":372300,"SoundDuration":372300,"Delta":72508726},{"NoteNumber":68,"Velocity":47,"Duration":386150,"SoundDuration":386150,"Delta":72881027},{"NoteNumber":68,"Velocity":51,"Duration":403713,"SoundDuration":403713,"Delta":73267177},{"NoteNumber":73,"Velocity":42,"Duration":403714,"SoundDuration":403714,"Delta":73670891},{"NoteNumber":73,"Velocity":40,"Duration":1554806,"SoundDuration":1554806,"Delta":74074605},{"NoteNumber":42,"Velocity":29,"Duration":1080416,"SoundDuration":1080416,"Delta":75629412},{"NoteNumber":49,"Velocity":33,"Duration":1080416,"SoundDuration":1080416,"Delta":75629412},{"NoteNumber":37,"Velocity":27,"Duration":353232,"SoundDuration":353232,"Delta":75993004},{"NoteNumber":37,"Velocity":30,"Duration":363592,"SoundDuration":363592,"Delta":76346236},{"NoteNumber":42,"Velocity":26,"Duration":374485,"SoundDuration":374485,"Delta":76709829},{"NoteNumber":49,"Velocity":29,"Duration":374485,"SoundDuration":374485,"Delta":76709829},{"NoteNumber":42,"Velocity":29,"Duration":1088636,"SoundDuration":1088636,"Delta":77084314},{"NoteNumber":49,"Velocity":33,"Duration":1088636,"SoundDuration":1088636,"Delta":77084314},{"NoteNumber":37,"Velocity":26,"Duration":359324,"SoundDuration":359324,"Delta":77447906},{"NoteNumber":37,"Velocity":29,"Duration":365719,"SoundDuration":365719,"Delta":77807231},{"NoteNumber":66,"Velocity":46,"Duration":367872,"SoundDuration":367872,"Delta":78172951},{"NoteNumber":58,"Velocity":38,"Duration":367872,"SoundDuration":367872,"Delta":78172951},{"NoteNumber":42,"Velocity":26,"Duration":367872,"SoundDuration":367872,"Delta":78172951},{"NoteNumber":49,"Velocity":29,"Duration":367872,"SoundDuration":367872,"Delta":78172951},{"NoteNumber":58,"Velocity":40,"Duration":1073888,"SoundDuration":1073888,"Delta":78540823},{"NoteNumber":66,"Velocity":49,"Duration":1073888,"SoundDuration":1073888,"Delta":78540823},{"NoteNumber":42,"Velocity":29,"Duration":1073888,"SoundDuration":1073888,"Delta":78540823},{"NoteNumber":49,"Velocity":33,"Duration":1073888,"SoundDuration":1073888,"Delta":78540823},{"NoteNumber":70,"Velocity":44,"Duration":355239,"SoundDuration":355239,"Delta":78900148},{"NoteNumber":37,"Velocity":27,"Duration":355239,"SoundDuration":355239,"Delta":78900148},{"NoteNumber":70,"Velocity":46,"Duration":359324,"SoundDuration":359324,"Delta":79255388},{"NoteNumber":37,"Velocity":30,"Duration":359324,"SoundDuration":359324,"Delta":79255388},{"NoteNumber":58,"Velocity":39,"Duration":359324,"SoundDuration":359324,"Delta":79614712},{"NoteNumber":65,"Velocity":44,"Duration":359324,"SoundDuration":359324,"Delta":79614712},{"NoteNumber":49,"Velocity":28,"Duration":359324,"SoundDuration":359324,"Delta":79614712},{"NoteNumber":42,"Velocity":25,"Duration":359324,"SoundDuration":359324,"Delta":79614712},{"NoteNumber":65,"Velocity":48,"Duration":1084497,"SoundDuration":1084497,"Delta":79974037},{"NoteNumber":58,"Velocity":42,"Duration":1084497,"SoundDuration":1084497,"Delta":79974037},{"NoteNumber":42,"Velocity":29,"Duration":1084497,"SoundDuration":1084497,"Delta":79974037},{"NoteNumber":49,"Velocity":33,"Duration":1084497,"SoundDuration":1084497,"Delta":79974037},{"NoteNumber":70,"Velocity":45,"Duration":357313,"SoundDuration":357313,"Delta":80337629},{"NoteNumber":37,"Velocity":26,"Duration":357313,"SoundDuration":357313,"Delta":80337629},{"NoteNumber":70,"Velocity":47,"Duration":363592,"SoundDuration":363592,"Delta":80694942},{"NoteNumber":37,"Velocity":29,"Duration":363592,"SoundDuration":363592,"Delta":80694942},{"NoteNumber":58,"Velocity":38,"Duration":357142,"SoundDuration":357142,"Delta":81058535},{"NoteNumber":63,"Velocity":42,"Duration":357142,"SoundDuration":357142,"Delta":81058535},{"NoteNumber":42,"Velocity":26,"Duration":357142,"SoundDuration":357142,"Delta":81058535},{"NoteNumber":49,"Velocity":29,"Duration":357142,"SoundDuration":357142,"Delta":81058535},{"NoteNumber":63,"Velocity":49,"Duration":1073888,"SoundDuration":1073888,"Delta":81415678},{"NoteNumber":58,"Velocity":44,"Duration":1073888,"SoundDuration":1073888,"Delta":81415678},{"NoteNumber":42,"Velocity":29,"Duration":1073888,"SoundDuration":1073888,"Delta":81415678},{"NoteNumber":49,"Velocity":33,"Duration":1073888,"SoundDuration":1073888,"Delta":81415678},{"NoteNumber":70,"Velocity":44,"Duration":355239,"SoundDuration":355239,"Delta":81775002},{"NoteNumber":37,"Velocity":27,"Duration":355239,"SoundDuration":355239,"Delta":81775002},{"NoteNumber":70,"Velocity":46,"Duration":359324,"SoundDuration":359324,"Delta":82130242},{"NoteNumber":37,"Velocity":30,"Duration":359324,"SoundDuration":359324,"Delta":82130242},{"NoteNumber":58,"Velocity":39,"Duration":272694,"SoundDuration":272694,"Delta":82489567},{"NoteNumber":61,"Velocity":44,"Duration":272694,"SoundDuration":272694,"Delta":82489567},{"NoteNumber":49,"Velocity":28,"Duration":362200,"SoundDuration":362200,"Delta":82489567},{"NoteNumber":42,"Velocity":25,"Duration":362200,"SoundDuration":362200,"Delta":82489567},{"NoteNumber":63,"Velocity":48,"Duration":266429,"SoundDuration":266429,"Delta":82851767},{"NoteNumber":58,"Velocity":42,"Duration":266429,"SoundDuration":266429,"Delta":82851767},{"NoteNumber":42,"Velocity":29,"Duration":1074042,"SoundDuration":1074042,"Delta":82851767},{"NoteNumber":49,"Velocity":33,"Duration":1074042,"SoundDuration":1074042,"Delta":82851767},{"NoteNumber":58,"Velocity":42,"Duration":267984,"SoundDuration":267984,"Delta":83207007},{"NoteNumber":65,"Velocity":42,"Duration":267984,"SoundDuration":267984,"Delta":83207007},{"NoteNumber":37,"Velocity":26,"Duration":357313,"SoundDuration":357313,"Delta":83207007},{"NoteNumber":58,"Velocity":42,"Duration":271117,"SoundDuration":271117,"Delta":83564320},{"NoteNumber":66,"Velocity":48,"Duration":271117,"SoundDuration":271117,"Delta":83564320},{"NoteNumber":37,"Velocity":29,"Duration":361489,"SoundDuration":361489,"Delta":83564320},{"NoteNumber":58,"Velocity":44,"Duration":277537,"SoundDuration":277537,"Delta":83925810},{"NoteNumber":70,"Velocity":44,"Duration":277537,"SoundDuration":277537,"Delta":83925810},{"NoteNumber":42,"Velocity":26,"Duration":370050,"SoundDuration":370050,"Delta":83925810},{"NoteNumber":49,"Velocity":29,"Duration":370050,"SoundDuration":370050,"Delta":83925810},{"NoteNumber":59,"Velocity":44,"Duration":1073888,"SoundDuration":1073888,"Delta":84295860},{"NoteNumber":68,"Velocity":49,"Duration":1073888,"SoundDuration":1073888,"Delta":84295860},{"NoteNumber":42,"Velocity":29,"Duration":1073888,"SoundDuration":1073888,"Delta":84295860},{"NoteNumber":49,"Velocity":33,"Duration":1073888,"SoundDuration":1073888,"Delta":84295860},{"NoteNumber":71,"Velocity":44,"Duration":355239,"SoundDuration":355239,"Delta":84655185},{"NoteNumber":37,"Velocity":27,"Duration":355239,"SoundDuration":355239,"Delta":84655185},{"NoteNumber":71,"Velocity":46,"Duration":359324,"SoundDuration":359324,"Delta":85010425},{"NoteNumber":37,"Velocity":30,"Duration":359324,"SoundDuration":359324,"Delta":85010425},{"NoteNumber":59,"Velocity":39,"Duration":359324,"SoundDuration":359324,"Delta":85369749},{"NoteNumber":66,"Velocity":44,"Duration":359324,"SoundDuration":359324,"Delta":85369749},{"NoteNumber":49,"Velocity":28,"Duration":359324,"SoundDuration":359324,"Delta":85369749},{"NoteNumber":42,"Velocity":25,"Duration":359324,"SoundDuration":359324,"Delta":85369749},{"NoteNumber":59,"Velocity":42,"Duration":1084497,"SoundDuration":1084497,"Delta":85729074},{"NoteNumber":66,"Velocity":48,"Duration":1084497,"SoundDuration":1084497,"Delta":85729074},{"NoteNumber":42,"Velocity":29,"Duration":1084497,"SoundDuration":1084497,"Delta":85729074},{"NoteNumber":49,"Velocity":33,"Duration":1084497,"SoundDuration":1084497,"Delta":85729074},{"NoteNumber":71,"Velocity":45,"Duration":357313,"SoundDuration":357313,"Delta":86092666},{"NoteNumber":37,"Velocity":26,"Duration":357313,"SoundDuration":357313,"Delta":86092666},{"NoteNumber":71,"Velocity":47,"Duration":363592,"SoundDuration":363592,"Delta":86449979},{"NoteNumber":37,"Velocity":29,"Duration":363592,"SoundDuration":363592,"Delta":86449979},{"NoteNumber":59,"Velocity":38,"Duration":361489,"SoundDuration":361489,"Delta":86813572},{"NoteNumber":65,"Velocity":42,"Duration":361489,"SoundDuration":361489,"Delta":86813572},{"NoteNumber":42,"Velocity":26,"Duration":361489,"SoundDuration":361489,"Delta":86813572},{"NoteNumber":49,"Velocity":29,"Duration":361489,"SoundDuration":361489,"Delta":86813572},{"NoteNumber":59,"Velocity":44,"Duration":1073888,"SoundDuration":1073888,"Delta":87175061},{"NoteNumber":65,"Velocity":49,"Duration":1073888,"SoundDuration":1073888,"Delta":87175061},{"NoteNumber":42,"Velocity":29,"Duration":1073888,"SoundDuration":1073888,"Delta":87175061},{"NoteNumber":49,"Velocity":33,"Duration":1073888,"SoundDuration":1073888,"Delta":87175061},{"NoteNumber":71,"Velocity":44,"Duration":355239,"SoundDuration":355239,"Delta":87534386},{"NoteNumber":37,"Velocity":27,"Duration":355239,"SoundDuration":355239,"Delta":87534386},{"NoteNumber":71,"Velocity":46,"Duration":359324,"SoundDuration":359324,"Delta":87889626},{"NoteNumber":37,"Velocity":30,"Duration":359324,"SoundDuration":359324,"Delta":87889626},{"NoteNumber":65,"Velocity":44,"Duration":181796,"SoundDuration":181796,"Delta":88248950},{"NoteNumber":59,"Velocity":39,"Duration":363592,"SoundDuration":363592,"Delta":88248950},{"NoteNumber":49,"Velocity":28,"Duration":363592,"SoundDuration":363592,"Delta":88248950},{"NoteNumber":42,"Velocity":25,"Duration":363592,"SoundDuration":363592,"Delta":88248950},{"NoteNumber":59,"Velocity":42,"Duration":1454831,"SoundDuration":1454831,"Delta":88612543},{"NoteNumber":66,"Velocity":48,"Duration":267984,"SoundDuration":267984,"Delta":88612543},{"NoteNumber":39,"Velocity":35,"Duration":267984,"SoundDuration":267984,"Delta":88612543},{"NoteNumber":49,"Velocity":27,"Duration":1454831,"SoundDuration":1454831,"Delta":88612543},{"NoteNumber":65,"Velocity":42,"Duration":267984,"SoundDuration":267984,"Delta":88969856},{"NoteNumber":37,"Velocity":30,"Duration":267984,"SoundDuration":267984,"Delta":88969856},{"NoteNumber":66,"Velocity":48,"Duration":274289,"SoundDuration":274289,"Delta":89327169},{"NoteNumber":39,"Velocity":36,"Duration":274289,"SoundDuration":274289,"Delta":89327169},{"NoteNumber":68,"Velocity":44,"Duration":280863,"SoundDuration":280863,"Delta":89692889},{"NoteNumber":41,"Velocity":30,"Duration":280863,"SoundDuration":280863,"Delta":89692889},{"NoteNumber":58,"Velocity":44,"Duration":1073888,"SoundDuration":1073888,"Delta":90067374},{"NoteNumber":66,"Velocity":49,"Duration":1073888,"SoundDuration":1073888,"Delta":90067374},{"NoteNumber":42,"Velocity":29,"Duration":1073888,"SoundDuration":1073888,"Delta":90067374},{"NoteNumber":49,"Velocity":33,"Duration":1073888,"SoundDuration":1073888,"Delta":90067374},{"NoteNumber":70,"Velocity":44,"Duration":355239,"SoundDuration":355239,"Delta":90426698},{"NoteNumber":37,"Velocity":27,"Duration":355239,"SoundDuration":355239,"Delta":90426698},{"NoteNumber":70,"Velocity":48,"Duration":359324,"SoundDuration":359324,"Delta":90781938},{"NoteNumber":37,"Velocity":31,"Duration":359324,"SoundDuration":359324,"Delta":90781938},{"NoteNumber":58,"Velocity":41,"Duration":363592,"SoundDuration":363592,"Delta":91141263},{"NoteNumber":65,"Velocity":46,"Duration":363592,"SoundDuration":363592,"Delta":91141263},{"NoteNumber":49,"Velocity":29,"Duration":363592,"SoundDuration":363592,"Delta":91141263},{"NoteNumber":42,"Velocity":26,"Duration":363592,"SoundDuration":363592,"Delta":91141263},{"NoteNumber":58,"Velocity":45,"Duration":1086625,"SoundDuration":1086625,"Delta":91504855},{"NoteNumber":65,"Velocity":50,"Duration":1086625,"SoundDuration":1086625,"Delta":91504855},{"NoteNumber":42,"Velocity":31,"Duration":1086625,"SoundDuration":1086625,"Delta":91504855},{"NoteNumber":49,"Velocity":36,"Duration":1086625,"SoundDuration":1086625,"Delta":91504855},{"NoteNumber":70,"Velocity":45,"Duration":357313,"SoundDuration":357313,"Delta":91868448},{"NoteNumber":37,"Velocity":29,"Duration":357313,"SoundDuration":357313,"Delta":91868448},{"NoteNumber":70,"Velocity":50,"Duration":365719,"SoundDuration":365719,"Delta":92225761},{"NoteNumber":37,"Velocity":34,"Duration":365719,"SoundDuration":365719,"Delta":92225761},{"NoteNumber":58,"Velocity":48,"Duration":383779,"SoundDuration":383779,"Delta":92591481},{"NoteNumber":63,"Velocity":48,"Duration":383779,"SoundDuration":383779,"Delta":92591481},{"NoteNumber":42,"Velocity":24,"Duration":383779,"SoundDuration":383779,"Delta":92591481},{"NoteNumber":47,"Velocity":27,"Duration":383779,"SoundDuration":383779,"Delta":92591481},{"NoteNumber":58,"Velocity":48,"Duration":1073888,"SoundDuration":1073888,"Delta":92975260},{"NoteNumber":63,"Velocity":53,"Duration":1073888,"SoundDuration":1073888,"Delta":92975260},{"NoteNumber":42,"Velocity":30,"Duration":1073888,"SoundDuration":1073888,"Delta":92975260},{"NoteNumber":47,"Velocity":35,"Duration":1073888,"SoundDuration":1073888,"Delta":92975260},{"NoteNumber":70,"Velocity":49,"Duration":355239,"SoundDuration":355239,"Delta":93334584},{"NoteNumber":35,"Velocity":31,"Duration":355239,"SoundDuration":355239,"Delta":93334584},{"NoteNumber":70,"Velocity":53,"Duration":359324,"SoundDuration":359324,"Delta":93689824},{"NoteNumber":35,"Velocity":35,"Duration":359324,"SoundDuration":359324,"Delta":93689824},{"NoteNumber":63,"Velocity":53,"Duration":363592,"SoundDuration":363592,"Delta":94049149},{"NoteNumber":57,"Velocity":48,"Duration":363592,"SoundDuration":363592,"Delta":94049149},{"NoteNumber":48,"Velocity":34,"Duration":363592,"SoundDuration":363592,"Delta":94049149},{"NoteNumber":42,"Velocity":30,"Duration":363592,"SoundDuration":363592,"Delta":94049149},{"NoteNumber":57,"Velocity":56,"Duration":1086625,"SoundDuration":1086625,"Delta":94412741},{"NoteNumber":63,"Velocity":63,"Duration":1086625,"SoundDuration":1086625,"Delta":94412741},{"NoteNumber":42,"Velocity":38,"Duration":1086625,"SoundDuration":1086625,"Delta":94412741},{"NoteNumber":48,"Velocity":42,"Duration":1086625,"SoundDuration":1086625,"Delta":94412741},{"NoteNumber":69,"Velocity":61,"Duration":357313,"SoundDuration":357313,"Delta":94776334},{"NoteNumber":36,"Velocity":36,"Duration":357313,"SoundDuration":357313,"Delta":94776334},{"NoteNumber":69,"Velocity":70,"Duration":365719,"SoundDuration":365719,"Delta":95133647},{"NoteNumber":36,"Velocity":45,"Duration":365719,"SoundDuration":365719,"Delta":95133647},{"NoteNumber":63,"Velocity":67,"Duration":367492,"SoundDuration":367492,"Delta":95499367},{"NoteNumber":57,"Velocity":59,"Duration":367492,"SoundDuration":367492,"Delta":95499367},{"NoteNumber":42,"Velocity":40,"Duration":367492,"SoundDuration":367492,"Delta":95499367},{"NoteNumber":48,"Velocity":45,"Duration":367492,"SoundDuration":367492,"Delta":95499367},{"NoteNumber":37,"Velocity":53,"Duration":2901362,"SoundDuration":2901362,"Delta":95779058},{"NoteNumber":58,"Velocity":44,"Duration":1053902,"SoundDuration":1053902,"Delta":95866859},{"NoteNumber":66,"Velocity":49,"Duration":1053902,"SoundDuration":1053902,"Delta":95866859},{"NoteNumber":54,"Velocity":56,"Duration":702696,"SoundDuration":702696,"Delta":95866859},{"NoteNumber":70,"Velocity":44,"Duration":345383,"SoundDuration":345383,"Delta":96224172},{"NoteNumber":70,"Velocity":46,"Duration":351206,"SoundDuration":351206,"Delta":96569556},{"NoteNumber":53,"Velocity":52,"Duration":712695,"SoundDuration":712695,"Delta":96569556},{"NoteNumber":66,"Velocity":44,"Duration":361489,"SoundDuration":361489,"Delta":96920762},{"NoteNumber":58,"Velocity":39,"Duration":361489,"SoundDuration":361489,"Delta":96920762},{"NoteNumber":58,"Velocity":42,"Duration":1034398,"SoundDuration":1034398,"Delta":97282251},{"NoteNumber":66,"Velocity":48,"Duration":1034398,"SoundDuration":1034398,"Delta":97282251},{"NoteNumber":51,"Velocity":56,"Duration":687055,"SoundDuration":687055,"Delta":97282251},{"NoteNumber":70,"Velocity":45,"Duration":339712,"SoundDuration":339712,"Delta":97629594},{"NoteNumber":70,"Velocity":47,"Duration":347342,"SoundDuration":347342,"Delta":97969307},{"NoteNumber":49,"Velocity":51,"Duration":622303,"SoundDuration":622303,"Delta":97969307},{"NoteNumber":58,"Velocity":38,"Duration":274960,"SoundDuration":274960,"Delta":98316650},{"NoteNumber":66,"Velocity":42,"Duration":274960,"SoundDuration":274960,"Delta":98316650},{"NoteNumber":37,"Velocity":47,"Duration":2875293,"SoundDuration":2875293,"Delta":98502800},{"NoteNumber":59,"Velocity":44,"Duration":1032505,"SoundDuration":1032505,"Delta":98680420},{"NoteNumber":63,"Velocity":49,"Duration":1032505,"SoundDuration":1032505,"Delta":98680420},{"NoteNumber":58,"Velocity":66,"Duration":687122,"SoundDuration":687122,"Delta":98680420},{"NoteNumber":70,"Velocity":44,"Duration":337838,"SoundDuration":337838,"Delta":99029704},{"NoteNumber":70,"Velocity":46,"Duration":345383,"SoundDuration":345383,"Delta":99367542},{"NoteNumber":56,"Velocity":57,"Duration":521999,"SoundDuration":521999,"Delta":99367542},{"NoteNumber":59,"Velocity":39,"Duration":353232,"SoundDuration":353232,"Delta":99712926},{"NoteNumber":63,"Velocity":44,"Duration":353232,"SoundDuration":353232,"Delta":99712926},{"NoteNumber":54,"Velocity":53,"Duration":176616,"SoundDuration":176616,"Delta":99889542},{"NoteNumber":59,"Velocity":42,"Duration":1034398,"SoundDuration":1034398,"Delta":100066158},{"NoteNumber":63,"Velocity":48,"Duration":1034398,"SoundDuration":1034398,"Delta":100066158},{"NoteNumber":54,"Velocity":59,"Duration":347342,"SoundDuration":347342,"Delta":100066158},{"NoteNumber":70,"Velocity":45,"Duration":339712,"SoundDuration":339712,"Delta":100413501},{"NoteNumber":53,"Velocity":53,"Duration":339712,"SoundDuration":339712,"Delta":100413501},{"NoteNumber":70,"Velocity":47,"Duration":347342,"SoundDuration":347342,"Delta":100753213},{"NoteNumber":51,"Velocity":57,"Duration":347342,"SoundDuration":347342,"Delta":100753213},{"NoteNumber":59,"Velocity":38,"Duration":277537,"SoundDuration":277537,"Delta":101100556},{"NoteNumber":63,"Velocity":42,"Duration":277537,"SoundDuration":277537,"Delta":101100556},{"NoteNumber":53,"Velocity":52,"Duration":277537,"SoundDuration":277537,"Delta":101100556},{"NoteNumber":37,"Velocity":47,"Duration":2862969,"SoundDuration":2862969,"Delta":101378094},{"NoteNumber":58,"Velocity":44,"Duration":1028666,"SoundDuration":1028666,"Delta":101466402},{"NoteNumber":66,"Velocity":49,"Duration":1028666,"SoundDuration":1028666,"Delta":101466402},{"NoteNumber":54,"Velocity":56,"Duration":685181,"SoundDuration":685181,"Delta":101466402},{"NoteNumber":70,"Velocity":44,"Duration":337838,"SoundDuration":337838,"Delta":101813745},{"NoteNumber":70,"Velocity":46,"Duration":343485,"SoundDuration":343485,"Delta":102151583},{"NoteNumber":49,"Velocity":52,"Duration":343485,"SoundDuration":343485,"Delta":102151583},{"NoteNumber":66,"Velocity":44,"Duration":353232,"SoundDuration":353232,"Delta":102495068},{"NoteNumber":58,"Velocity":39,"Duration":353232,"SoundDuration":353232,"Delta":102495068},{"NoteNumber":50,"Velocity":47,"Duration":353232,"SoundDuration":353232,"Delta":102495068},{"NoteNumber":58,"Velocity":42,"Duration":1034398,"SoundDuration":1034398,"Delta":102848300},{"NoteNumber":66,"Velocity":48,"Duration":1034398,"SoundDuration":1034398,"Delta":102848300},{"NoteNumber":51,"Velocity":56,"Duration":347342,"SoundDuration":347342,"Delta":102848300},{"NoteNumber":70,"Velocity":45,"Duration":339712,"SoundDuration":339712,"Delta":103195643},{"NoteNumber":48,"Velocity":48,"Duration":339712,"SoundDuration":339712,"Delta":103195643},{"NoteNumber":70,"Velocity":47,"Duration":347342,"SoundDuration":347342,"Delta":103535356},{"NoteNumber":49,"Velocity":51,"Duration":705707,"SoundDuration":705707,"Delta":103535356},{"NoteNumber":58,"Velocity":48,"Duration":358364,"SoundDuration":358364,"Delta":103882699},{"NoteNumber":66,"Velocity":42,"Duration":358364,"SoundDuration":358364,"Delta":103882699},{"NoteNumber":37,"Velocity":47,"Duration":2864186,"SoundDuration":2864186,"Delta":104063443},{"NoteNumber":59,"Velocity":44,"Duration":1032505,"SoundDuration":1032505,"Delta":104241063},{"NoteNumber":63,"Velocity":49,"Duration":1032505,"SoundDuration":1032505,"Delta":104241063},{"NoteNumber":58,"Velocity":66,"Duration":687122,"SoundDuration":687122,"Delta":104241063},{"NoteNumber":70,"Velocity":44,"Duration":337838,"SoundDuration":337838,"Delta":104590347},{"NoteNumber":70,"Velocity":46,"Duration":345383,"SoundDuration":345383,"Delta":104928185},{"NoteNumber":56,"Velocity":57,"Duration":521999,"SoundDuration":521999,"Delta":104928185},{"NoteNumber":59,"Velocity":39,"Duration":353232,"SoundDuration":353232,"Delta":105273569},{"NoteNumber":63,"Velocity":44,"Duration":353232,"SoundDuration":353232,"Delta":105273569},{"NoteNumber":54,"Velocity":53,"Duration":176616,"SoundDuration":176616,"Delta":105450185},{"NoteNumber":59,"Velocity":42,"Duration":1034398,"SoundDuration":1034398,"Delta":105626801},{"NoteNumber":63,"Velocity":48,"Duration":1034398,"SoundDuration":1034398,"Delta":105626801},{"NoteNumber":54,"Velocity":59,"Duration":347342,"SoundDuration":347342,"Delta":105626801},{"NoteNumber":70,"Velocity":45,"Duration":339712,"SoundDuration":339712,"Delta":105974144},{"NoteNumber":53,"Velocity":53,"Duration":339712,"SoundDuration":339712,"Delta":105974144},{"NoteNumber":70,"Velocity":47,"Duration":347342,"SoundDuration":347342,"Delta":106313856},{"NoteNumber":51,"Velocity":57,"Duration":347342,"SoundDuration":347342,"Delta":106313856},{"NoteNumber":59,"Velocity":38,"Duration":355239,"SoundDuration":355239,"Delta":106661199},{"NoteNumber":63,"Velocity":42,"Duration":355239,"SoundDuration":355239,"Delta":106661199},{"NoteNumber":53,"Velocity":52,"Duration":355239,"SoundDuration":355239,"Delta":106661199},{"NoteNumber":58,"Velocity":44,"Duration":1036339,"SoundDuration":1036339,"Delta":107016439},{"NoteNumber":66,"Velocity":49,"Duration":1036339,"SoundDuration":1036339,"Delta":107016439},{"NoteNumber":42,"Velocity":48,"Duration":1036339,"SoundDuration":1036339,"Delta":107016439},{"NoteNumber":49,"Velocity":55,"Duration":1036339,"SoundDuration":1036339,"Delta":107016439},{"NoteNumber":70,"Velocity":44,"Duration":339712,"SoundDuration":339712,"Delta":107365723},{"NoteNumber":70,"Velocity":46,"Duration":347342,"SoundDuration":347342,"Delta":107705436},{"NoteNumber":58,"Velocity":39,"Duration":349283,"SoundDuration":349283,"Delta":108052779},{"NoteNumber":66,"Velocity":44,"Duration":349283,"SoundDuration":349283,"Delta":108052779},{"NoteNumber":36,"Velocity":47,"Duration":261962,"SoundDuration":261962,"Delta":108052779},{"NoteNumber":58,"Velocity":42,"Duration":1043932,"SoundDuration":1043932,"Delta":108402063},{"NoteNumber":66,"Velocity":48,"Duration":1043932,"SoundDuration":1043932,"Delta":108402063},{"NoteNumber":37,"Velocity":53,"Duration":263404,"SoundDuration":263404,"Delta":108402063},{"NoteNumber":70,"Velocity":45,"Duration":345383,"SoundDuration":345383,"Delta":108753269},{"NoteNumber":42,"Velocity":48,"Duration":259037,"SoundDuration":259037,"Delta":108753269},{"NoteNumber":70,"Velocity":47,"Duration":347342,"SoundDuration":347342,"Delta":109098652},{"NoteNumber":46,"Velocity":51,"Duration":260507,"SoundDuration":260507,"Delta":109098652},{"NoteNumber":66,"Velocity":42,"Duration":355239,"SoundDuration":355239,"Delta":109445995},{"NoteNumber":58,"Velocity":48,"Duration":355239,"SoundDuration":355239,"Delta":109445995},{"NoteNumber":49,"Velocity":48,"Duration":266429,"SoundDuration":266429,"Delta":109445995},{"NoteNumber":58,"Velocity":41,"Duration":1036339,"SoundDuration":1036339,"Delta":109801235},{"NoteNumber":66,"Velocity":46,"Duration":1036339,"SoundDuration":1036339,"Delta":109801235},{"NoteNumber":51,"Velocity":51,"Duration":1036339,"SoundDuration":1036339,"Delta":109801235},{"NoteNumber":70,"Velocity":40,"Duration":339712,"SoundDuration":339712,"Delta":110150519},{"NoteNumber":70,"Velocity":41,"Duration":347342,"SoundDuration":347342,"Delta":110490232},{"NoteNumber":66,"Velocity":39,"Duration":349283,"SoundDuration":349283,"Delta":110837575},{"NoteNumber":58,"Velocity":35,"Duration":349283,"SoundDuration":349283,"Delta":110837575},{"NoteNumber":48,"Velocity":41,"Duration":261962,"SoundDuration":261962,"Delta":110837575},{"NoteNumber":66,"Velocity":41,"Duration":1049821,"SoundDuration":1049821,"Delta":111186859},{"NoteNumber":58,"Velocity":37,"Duration":961513,"SoundDuration":961513,"Delta":111186859},{"NoteNumber":49,"Velocity":47,"Duration":263404,"SoundDuration":263404,"Delta":111186859},{"NoteNumber":70,"Velocity":38,"Duration":345383,"SoundDuration":345383,"Delta":111538065},{"NoteNumber":54,"Velocity":40,"Duration":259037,"SoundDuration":259037,"Delta":111538065},{"NoteNumber":70,"Velocity":39,"Duration":353232,"SoundDuration":353232,"Delta":111883448},{"NoteNumber":58,"Velocity":42,"Duration":353232,"SoundDuration":353232,"Delta":111883448},{"NoteNumber":58,"Velocity":39,"Duration":361489,"SoundDuration":361489,"Delta":112236680},{"NoteNumber":66,"Velocity":34,"Duration":361489,"SoundDuration":361489,"Delta":112236680},{"NoteNumber":61,"Velocity":39,"Duration":271117,"SoundDuration":271117,"Delta":112236680},{"NoteNumber":66,"Velocity":39,"Duration":355239,"SoundDuration":355239,"Delta":112598170},{"NoteNumber":63,"Velocity":41,"Duration":1415069,"SoundDuration":1415069,"Delta":112598170},{"NoteNumber":70,"Velocity":34,"Duration":349283,"SoundDuration":349283,"Delta":112953410},{"NoteNumber":70,"Velocity":39,"Duration":357313,"SoundDuration":357313,"Delta":113302694},{"NoteNumber":66,"Velocity":34,"Duration":353232,"SoundDuration":353232,"Delta":113660007},{"NoteNumber":73,"Velocity":39,"Duration":1452370,"SoundDuration":1452370,"Delta":114013239},{"NoteNumber":66,"Velocity":39,"Duration":363592,"SoundDuration":363592,"Delta":114013239},{"NoteNumber":58,"Velocity":39,"Duration":1452370,"SoundDuration":1452370,"Delta":114013239},{"NoteNumber":70,"Velocity":33,"Duration":357313,"SoundDuration":357313,"Delta":114376831},{"NoteNumber":70,"Velocity":39,"Duration":363592,"SoundDuration":363592,"Delta":114734144},{"NoteNumber":66,"Velocity":33,"Duration":367872,"SoundDuration":367872,"Delta":115097737},{"NoteNumber":66,"Velocity":37,"Duration":359324,"SoundDuration":359324,"Delta":115465609},{"NoteNumber":63,"Velocity":39,"Duration":1443939,"SoundDuration":1443939,"Delta":115465609},{"NoteNumber":70,"Velocity":30,"Duration":355239,"SoundDuration":355239,"Delta":115824934},{"NoteNumber":70,"Velocity":36,"Duration":370050,"SoundDuration":370050,"Delta":116180174},{"NoteNumber":66,"Velocity":28,"Duration":359324,"SoundDuration":359324,"Delta":116550224},{"NoteNumber":73,"Velocity":35,"Duration":1496528,"SoundDuration":1496528,"Delta":116909549},{"NoteNumber":66,"Velocity":35,"Duration":372300,"SoundDuration":372300,"Delta":116909549},{"NoteNumber":58,"Velocity":35,"Duration":1496528,"SoundDuration":1496528,"Delta":116909549},{"NoteNumber":70,"Velocity":28,"Duration":363592,"SoundDuration":363592,"Delta":117281850},{"NoteNumber":70,"Velocity":34,"Duration":374485,"SoundDuration":374485,"Delta":117645442},{"NoteNumber":66,"Velocity":28,"Duration":386150,"SoundDuration":386150,"Delta":118019927},{"NoteNumber":66,"Velocity":28,"Duration":3903418,"SoundDuration":3903418,"Delta":118406077},{"NoteNumber":70,"Velocity":31,"Duration":408997,"SoundDuration":408997,"Delta":118792227},{"NoteNumber":70,"Velocity":30,"Duration":518045,"SoundDuration":518045,"Delta":119201225}],"license":{"name":"Creative Commons Attribution-ShareAlike 3.0 Germany","url":"http://creativecommons.org/licenses/by-sa/3.0/de/deed.en","text":"The MIDI, audio (MP3, OGG) and video files of Bernd Krueger are licensed under the cc-by-sa Germany License. This means that you can use and adapt the files, as long as you attribute the copyright holder.\n\nName: Bernd Krueger\nSource: http://www.piano-midi.de\n\nThe distribution or public playback of the files is only allowed under identical license conditions.\n\nThe scores are open source.","attribution":"MIDI files by Bernd Krueger (piano-midi.de)"}}