{"title":"Agitato","artist":"Piano","durationMs":90468,"midiSha256":"a5f231a864b5a3748cc77213914201be6f798f792d8af0bd6523ab7e4a3dddb2","midiObject":[{"NoteNumber":64,"Velocity":28,"Duration":104029,"SoundDuration":104029,"Delta":0},{"NoteNumber":67,"Velocity":21,"Duration":107380,"SoundDuration":107380,"Delta":104029},{"NoteNumber":71,"Velocity":36,"Duration":103669,"SoundDuration":103669,"Delta":211410},{"NoteNumber":67,"Velocity":22,"Duration":106997,"SoundDuration":106997,"Delta":315080},{"NoteNumber":64,"Velocity":29,"Duration":103377,"SoundDuration":103377,"Delta":422078},{"NoteNumber":67,"Velocity":22,"Duration":106617,"SoundDuration":106617,"Delta":525455},{"NoteNumber":71,"Velocity":39,"Duration":103312,"SoundDuration":103312,"Delta":632072},{"NoteNumber":67,"Velocity":23,"Duration":105122,"SoundDuration":105122,"Delta":735385},{"NoteNumber":64,"Velocity":32,"Duration":101283,"SoundDuration":101283,"Delta":840508},{"NoteNumber":67,"Velocity":26,"Duration":120192,"SoundDuration":120192,"Delta":941791},{"NoteNumber":79,"Velocity":58,"Duration":416198,"SoundDuration":416198,"Delta":1061983},{"NoteNumber":71,"Velocity":24,"Duration":105492,"SoundDuration":105492,"Delta":1164590},{"NoteNumber":64,"Velocity":37,"Duration":102606,"SoundDuration":102606,"Delta":1270082},{"NoteNumber":67,"Velocity":29,"Duration":105492,"SoundDuration":105492,"Delta":1372689},{"NoteNumber":79,"Velocity":57,"Duration":415181,"SoundDuration":415181,"Delta":1478181},{"NoteNumber":71,"Velocity":28,"Duration":101978,"SoundDuration":101978,"Delta":1580788},{"NoteNumber":63,"Velocity":36,"Duration":99953,"SoundDuration":99953,"Delta":1682766},{"NoteNumber":69,"Velocity":29,"Duration":110643,"SoundDuration":110643,"Delta":1782719},{"NoteNumber":79,"Velocity":64,"Duration":403831,"SoundDuration":403831,"Delta":1893363},{"NoteNumber":71,"Velocity":29,"Duration":101681,"SoundDuration":101681,"Delta":1993879},{"NoteNumber":63,"Velocity":37,"Duration":99953,"SoundDuration":99953,"Delta":2095561},{"NoteNumber":69,"Velocity":30,"Duration":101681,"SoundDuration":101681,"Delta":2195514},{"NoteNumber":78,"Velocity":55,"Duration":403155,"SoundDuration":403155,"Delta":2297195},{"NoteNumber":71,"Velocity":28,"Duration":101098,"SoundDuration":101098,"Delta":2397617},{"NoteNumber":63,"Velocity":37,"Duration":99953,"SoundDuration":99953,"Delta":2498716},{"NoteNumber":69,"Velocity":30,"Duration":101681,"SoundDuration":101681,"Delta":2598669},{"NoteNumber":77,"Velocity":56,"Duration":402105,"SoundDuration":402105,"Delta":2700350},{"NoteNumber":71,"Velocity":28,"Duration":100806,"SoundDuration":100806,"Delta":2800303},{"NoteNumber":63,"Velocity":37,"Duration":99953,"SoundDuration":99953,"Delta":2901110},{"NoteNumber":69,"Velocity":30,"Duration":101392,"SoundDuration":101392,"Delta":3001063},{"NoteNumber":78,"Velocity":62,"Duration":422445,"SoundDuration":422445,"Delta":3102456},{"NoteNumber":71,"Velocity":28,"Duration":102690,"SoundDuration":102690,"Delta":3202409},{"NoteNumber":64,"Velocity":36,"Duration":104478,"SoundDuration":104478,"Delta":3305099},{"NoteNumber":67,"Velocity":29,"Duration":115322,"SoundDuration":115322,"Delta":3409578},{"NoteNumber":83,"Velocity":64,"Duration":403831,"SoundDuration":403831,"Delta":3524901},{"NoteNumber":71,"Velocity":41,"Duration":101681,"SoundDuration":101681,"Delta":3625417},{"NoteNumber":64,"Velocity":47,"Duration":99953,"SoundDuration":99953,"Delta":3727098},{"NoteNumber":67,"Velocity":40,"Duration":101681,"SoundDuration":101681,"Delta":3827051},{"NoteNumber":79,"Velocity":63,"Duration":403155,"SoundDuration":403155,"Delta":3928732},{"NoteNumber":71,"Velocity":39,"Duration":101098,"SoundDuration":101098,"Delta":4029155},{"NoteNumber":64,"Velocity":46,"Duration":99953,"SoundDuration":99953,"Delta":4130253},{"NoteNumber":67,"Velocity":38,"Duration":101681,"SoundDuration":101681,"Delta":4230206},{"NoteNumber":78,"Velocity":57,"Duration":402105,"SoundDuration":402105,"Delta":4331888},{"NoteNumber":71,"Velocity":28,"Duration":100806,"SoundDuration":100806,"Delta":4431841},{"NoteNumber":64,"Velocity":37,"Duration":99953,"SoundDuration":99953,"Delta":4532647},{"NoteNumber":67,"Velocity":30,"Duration":101392,"SoundDuration":101392,"Delta":4632601},{"NoteNumber":76,"Velocity":57,"Duration":405441,"SoundDuration":405441,"Delta":4733993},{"NoteNumber":71,"Velocity":28,"Duration":99953,"SoundDuration":99953,"Delta":4833946},{"NoteNumber":63,"Velocity":36,"Duration":99953,"SoundDuration":99953,"Delta":4933900},{"NoteNumber":69,"Velocity":29,"Duration":105581,"SoundDuration":105581,"Delta":5033853},{"NoteNumber":79,"Velocity":64,"Duration":403831,"SoundDuration":403831,"Delta":5139435},{"NoteNumber":71,"Velocity":36,"Duration":101681,"SoundDuration":101681,"Delta":5239951},{"NoteNumber":63,"Velocity":41,"Duration":99953,"SoundDuration":99953,"Delta":5341632},{"NoteNumber":69,"Velocity":34,"Duration":101681,"SoundDuration":101681,"Delta":5441585},{"NoteNumber":78,"Velocity":63,"Duration":405229,"SoundDuration":405229,"Delta":5543266},{"NoteNumber":71,"Velocity":34,"Duration":101098,"SoundDuration":101098,"Delta":5643689},{"NoteNumber":63,"Velocity":40,"Duration":99953,"SoundDuration":99953,"Delta":5744787},{"NoteNumber":69,"Velocity":35,"Duration":103755,"SoundDuration":103755,"Delta":5844740},{"NoteNumber":77,"Velocity":57,"Duration":411150,"SoundDuration":411150,"Delta":5948496},{"NoteNumber":71,"Velocity":28,"Duration":103755,"SoundDuration":103755,"Delta":6050143},{"NoteNumber":63,"Velocity":37,"Duration":101992,"SoundDuration":101992,"Delta":6153899},{"NoteNumber":69,"Velocity":30,"Duration":103755,"SoundDuration":103755,"Delta":6255891},{"NoteNumber":78,"Velocity":57,"Duration":433517,"SoundDuration":433517,"Delta":6359647},{"NoteNumber":71,"Velocity":28,"Duration":105581,"SoundDuration":105581,"Delta":6465229},{"NoteNumber":64,"Velocity":36,"Duration":107472,"SoundDuration":107472,"Delta":6570811},{"NoteNumber":67,"Velocity":29,"Duration":114880,"SoundDuration":114880,"Delta":6678284},{"NoteNumber":79,"Velocity":64,"Duration":416532,"SoundDuration":416532,"Delta":6793165},{"NoteNumber":71,"Velocity":36,"Duration":103734,"SoundDuration":103734,"Delta":6899472},{"NoteNumber":64,"Velocity":41,"Duration":101646,"SoundDuration":101646,"Delta":7003207},{"NoteNumber":67,"Velocity":34,"Duration":104843,"SoundDuration":104843,"Delta":7104854},{"NoteNumber":79,"Velocity":63,"Duration":406670,"SoundDuration":406670,"Delta":7209697},{"NoteNumber":71,"Velocity":39,"Duration":103043,"SoundDuration":103043,"Delta":7311690},{"NoteNumber":62,"Velocity":47,"Duration":99953,"SoundDuration":99953,"Delta":7414733},{"NoteNumber":65,"Velocity":40,"Duration":101681,"SoundDuration":101681,"Delta":7514686},{"NoteNumber":80,"Velocity":70,"Duration":402105,"SoundDuration":402105,"Delta":7616367},{"NoteNumber":71,"Velocity":38,"Duration":100806,"SoundDuration":100806,"Delta":7716321},{"NoteNumber":62,"Velocity":50,"Duration":99953,"SoundDuration":99953,"Delta":7817127},{"NoteNumber":65,"Velocity":42,"Duration":101392,"SoundDuration":101392,"Delta":7917080},{"NoteNumber":80,"Velocity":70,"Duration":407496,"SoundDuration":407496,"Delta":8018473},{"NoteNumber":71,"Velocity":46,"Duration":99953,"SoundDuration":99953,"Delta":8118426},{"NoteNumber":60,"Velocity":53,"Duration":101283,"SoundDuration":101283,"Delta":8218379},{"NoteNumber":64,"Velocity":45,"Duration":106307,"SoundDuration":106307,"Delta":8319662},{"NoteNumber":81,"Velocity":72,"Duration":403831,"SoundDuration":403831,"Delta":8425970},{"NoteNumber":69,"Velocity":36,"Duration":101681,"SoundDuration":101681,"Delta":8526486},{"NoteNumber":60,"Velocity":41,"Duration":99953,"SoundDuration":99953,"Delta":8628167},{"NoteNumber":64,"Velocity":34,"Duration":101681,"SoundDuration":101681,"Delta":8728120},{"NoteNumber":76,"Velocity":63,"Duration":403155,"SoundDuration":403155,"Delta":8829802},{"NoteNumber":69,"Velocity":34,"Duration":101098,"SoundDuration":101098,"Delta":8930224},{"NoteNumber":60,"Velocity":40,"Duration":99953,"SoundDuration":99953,"Delta":9031322},{"NoteNumber":64,"Velocity":35,"Duration":101681,"SoundDuration":101681,"Delta":9131276},{"NoteNumber":75,"Velocity":57,"Duration":402105,"SoundDuration":402105,"Delta":9232957},{"NoteNumber":69,"Velocity":28,"Duration":100806,"SoundDuration":100806,"Delta":9332910},{"NoteNumber":60,"Velocity":37,"Duration":99953,"SoundDuration":99953,"Delta":9433717},{"NoteNumber":64,"Velocity":30,"Duration":101392,"SoundDuration":101392,"Delta":9533670},{"NoteNumber":76,"Velocity":57,"Duration":424129,"SoundDuration":424129,"Delta":9635062},{"NoteNumber":69,"Velocity":28,"Duration":101646,"SoundDuration":101646,"Delta":9736709},{"NoteNumber":59,"Velocity":36,"Duration":105954,"SoundDuration":105954,"Delta":9838356},{"NoteNumber":64,"Velocity":29,"Duration":114881,"SoundDuration":114881,"Delta":9944311},{"NoteNumber":79,"Velocity":64,"Duration":409406,"SoundDuration":409406,"Delta":10059192},{"NoteNumber":71,"Velocity":36,"Duration":103756,"SoundDuration":103756,"Delta":10160495},{"NoteNumber":59,"Velocity":41,"Duration":101303,"SoundDuration":101303,"Delta":10264251},{"NoteNumber":69,"Velocity":34,"Duration":103043,"SoundDuration":103043,"Delta":10365555},{"NoteNumber":78,"Velocity":63,"Duration":403155,"SoundDuration":403155,"Delta":10468598},{"NoteNumber":71,"Velocity":34,"Duration":101098,"SoundDuration":101098,"Delta":10569020},{"NoteNumber":59,"Velocity":40,"Duration":99953,"SoundDuration":99953,"Delta":10670119},{"NoteNumber":67,"Velocity":35,"Duration":101681,"SoundDuration":101681,"Delta":10770072},{"NoteNumber":76,"Velocity":57,"Duration":402105,"SoundDuration":402105,"Delta":10871753},{"NoteNumber":71,"Velocity":28,"Duration":100806,"SoundDuration":100806,"Delta":10971706},{"NoteNumber":59,"Velocity":37,"Duration":99953,"SoundDuration":99953,"Delta":11072513},{"NoteNumber":66,"Velocity":30,"Duration":101392,"SoundDuration":101392,"Delta":11172466},{"NoteNumber":75,"Velocity":57,"Duration":406167,"SoundDuration":406167,"Delta":11273859},{"NoteNumber":71,"Velocity":28,"Duration":99953,"SoundDuration":99953,"Delta":11373812},{"NoteNumber":64,"Velocity":36,"Duration":99953,"SoundDuration":99953,"Delta":11473765},{"NoteNumber":67,"Velocity":29,"Duration":106307,"SoundDuration":106307,"Delta":11573718},{"NoteNumber":76,"Velocity":55,"Duration":101625,"SoundDuration":101625,"Delta":11680026},{"NoteNumber":71,"Velocity":33,"Duration":103734,"SoundDuration":103734,"Delta":11781652},{"NoteNumber":70,"Velocity":38,"Duration":101625,"SoundDuration":101625,"Delta":11885386},{"NoteNumber":71,"Velocity":29,"Duration":104456,"SoundDuration":104456,"Delta":11987012},{"NoteNumber":72,"Velocity":42,"Duration":100758,"SoundDuration":100758,"Delta":12091469},{"NoteNumber":71,"Velocity":30,"Duration":104094,"SoundDuration":104094,"Delta":12192228},{"NoteNumber":70,"Velocity":38,"Duration":101971,"SoundDuration":101971,"Delta":12296322},{"NoteNumber":71,"Velocity":34,"Duration":106239,"SoundDuration":106239,"Delta":12398294},{"NoteNumber":72,"Velocity":42,"Duration":104391,"SoundDuration":104391,"Delta":12504533},{"NoteNumber":71,"Velocity":26,"Duration":109737,"SoundDuration":109737,"Delta":12608925},{"NoteNumber":70,"Velocity":34,"Duration":106617,"SoundDuration":106617,"Delta":12718662},{"NoteNumber":71,"Velocity":27,"Duration":112199,"SoundDuration":112199,"Delta":12825280},{"NoteNumber":72,"Velocity":39,"Duration":108940,"SoundDuration":108940,"Delta":12937479},{"NoteNumber":71,"Velocity":24,"Duration":114338,"SoundDuration":114338,"Delta":13046420},{"NoteNumber":64,"Velocity":28,"Duration":108940,"SoundDuration":108940,"Delta":13160758},{"NoteNumber":67,"Velocity":21,"Duration":111781,"SoundDuration":111781,"Delta":13269698},{"NoteNumber":71,"Velocity":35,"Duration":107766,"SoundDuration":107766,"Delta":13381480},{"NoteNumber":67,"Velocity":22,"Duration":109737,"SoundDuration":109737,"Delta":13489246},{"NoteNumber":64,"Velocity":29,"Duration":105123,"SoundDuration":105123,"Delta":13598983},{"NoteNumber":67,"Velocity":22,"Duration":108155,"SoundDuration":108155,"Delta":13704106},{"NoteNumber":71,"Velocity":36,"Duration":104756,"SoundDuration":104756,"Delta":13812261},{"NoteNumber":67,"Velocity":23,"Duration":107380,"SoundDuration":107380,"Delta":13917017},{"NoteNumber":64,"Velocity":32,"Duration":104391,"SoundDuration":104391,"Delta":14024398},{"NoteNumber":67,"Velocity":26,"Duration":120192,"SoundDuration":120192,"Delta":14128789},{"NoteNumber":79,"Velocity":58,"Duration":417264,"SoundDuration":417264,"Delta":14248982},{"NoteNumber":71,"Velocity":24,"Duration":105864,"SoundDuration":105864,"Delta":14352652},{"NoteNumber":64,"Velocity":37,"Duration":102606,"SoundDuration":102606,"Delta":14458517},{"NoteNumber":67,"Velocity":29,"Duration":105123,"SoundDuration":105123,"Delta":14561123},{"NoteNumber":79,"Velocity":57,"Duration":413517,"SoundDuration":413517,"Delta":14666246},{"NoteNumber":71,"Velocity":28,"Duration":101978,"SoundDuration":101978,"Delta":14767188},{"NoteNumber":63,"Velocity":36,"Duration":99953,"SoundDuration":99953,"Delta":14869167},{"NoteNumber":69,"Velocity":29,"Duration":110644,"SoundDuration":110644,"Delta":14969120},{"NoteNumber":79,"Velocity":64,"Duration":403831,"SoundDuration":403831,"Delta":15079764},{"NoteNumber":71,"Velocity":29,"Duration":101681,"SoundDuration":101681,"Delta":15180280},{"NoteNumber":63,"Velocity":37,"Duration":99953,"SoundDuration":99953,"Delta":15281961},{"NoteNumber":69,"Velocity":30,"Duration":101681,"SoundDuration":101681,"Delta":15381914},{"NoteNumber":78,"Velocity":55,"Duration":403155,"SoundDuration":403155,"Delta":15483596},{"NoteNumber":71,"Velocity":28,"Duration":101098,"SoundDuration":101098,"Delta":15584018},{"NoteNumber":63,"Velocity":37,"Duration":99953,"SoundDuration":99953,"Delta":15685116},{"NoteNumber":69,"Velocity":30,"Duration":101681,"SoundDuration":101681,"Delta":15785070},{"NoteNumber":77,"Velocity":56,"Duration":402105,"SoundDuration":402105,"Delta":15886751},{"NoteNumber":71,"Velocity":28,"Duration":100806,"SoundDuration":100806,"Delta":15986704},{"NoteNumber":63,"Velocity":37,"Duration":99953,"SoundDuration":99953,"Delta":16087511},{"NoteNumber":69,"Velocity":30,"Duration":101392,"SoundDuration":101392,"Delta":16187464},{"NoteNumber":78,"Velocity":62,"Duration":422444,"SoundDuration":422444,"Delta":16288856},{"NoteNumber":71,"Velocity":28,"Duration":102690,"SoundDuration":102690,"Delta":16388810},{"NoteNumber":64,"Velocity":36,"Duration":104478,"SoundDuration":104478,"Delta":16491500},{"NoteNumber":67,"Velocity":29,"Duration":115322,"SoundDuration":115322,"Delta":16595979},{"NoteNumber":83,"Velocity":64,"Duration":403831,"SoundDuration":403831,"Delta":16711301},{"NoteNumber":71,"Velocity":39,"Duration":101681,"SoundDuration":101681,"Delta":16811817},{"NoteNumber":64,"Velocity":46,"Duration":99953,"SoundDuration":99953,"Delta":16913499},{"NoteNumber":67,"Velocity":39,"Duration":101681,"SoundDuration":101681,"Delta":17013452},{"NoteNumber":79,"Velocity":63,"Duration":403155,"SoundDuration":403155,"Delta":17115133},{"NoteNumber":71,"Velocity":37,"Duration":101098,"SoundDuration":101098,"Delta":17215555},{"NoteNumber":64,"Velocity":43,"Duration":99953,"SoundDuration":99953,"Delta":17316654},{"NoteNumber":67,"Velocity":38,"Duration":101681,"SoundDuration":101681,"Delta":17416607},{"NoteNumber":78,"Velocity":57,"Duration":402105,"SoundDuration":402105,"Delta":17518288},{"NoteNumber":71,"Velocity":28,"Duration":100806,"SoundDuration":100806,"Delta":17618242},{"NoteNumber":64,"Velocity":37,"Duration":99953,"SoundDuration":99953,"Delta":17719048},{"NoteNumber":67,"Velocity":30,"Duration":101392,"SoundDuration":101392,"Delta":17819001},{"NoteNumber":76,"Velocity":57,"Duration":405441,"SoundDuration":405441,"Delta":17920394},{"NoteNumber":71,"Velocity":28,"Duration":99953,"SoundDuration":99953,"Delta":18020347},{"NoteNumber":63,"Velocity":36,"Duration":99953,"SoundDuration":99953,"Delta":18120300},{"NoteNumber":69,"Velocity":29,"Duration":105581,"SoundDuration":105581,"Delta":18220254},{"NoteNumber":79,"Velocity":64,"Duration":403831,"SoundDuration":403831,"Delta":18325835},{"NoteNumber":71,"Velocity":36,"Duration":101681,"SoundDuration":101681,"Delta":18426351},{"NoteNumber":63,"Velocity":41,"Duration":99953,"SoundDuration":99953,"Delta":18528033},{"NoteNumber":69,"Velocity":34,"Duration":101681,"SoundDuration":101681,"Delta":18627986},{"NoteNumber":78,"Velocity":63,"Duration":405229,"SoundDuration":405229,"Delta":18729667},{"NoteNumber":71,"Velocity":34,"Duration":101098,"SoundDuration":101098,"Delta":18830089},{"NoteNumber":63,"Velocity":40,"Duration":99953,"SoundDuration":99953,"Delta":18931188},{"NoteNumber":69,"Velocity":35,"Duration":103756,"SoundDuration":103756,"Delta":19031141},{"NoteNumber":77,"Velocity":57,"Duration":411151,"SoundDuration":411151,"Delta":19134897},{"NoteNumber":71,"Velocity":28,"Duration":103756,"SoundDuration":103756,"Delta":19236544},{"NoteNumber":63,"Velocity":37,"Duration":101992,"SoundDuration":101992,"Delta":19340300},{"NoteNumber":69,"Velocity":30,"Duration":103756,"SoundDuration":103756,"Delta":19442292},{"NoteNumber":78,"Velocity":57,"Duration":433517,"SoundDuration":433517,"Delta":19546048},{"NoteNumber":71,"Velocity":28,"Duration":105581,"SoundDuration":105581,"Delta":19651630},{"NoteNumber":64,"Velocity":36,"Duration":107472,"SoundDuration":107472,"Delta":19757211},{"NoteNumber":67,"Velocity":29,"Duration":114881,"SoundDuration":114881,"Delta":19864684},{"NoteNumber":79,"Velocity":64,"Duration":416532,"SoundDuration":416532,"Delta":19979565},{"NoteNumber":71,"Velocity":36,"Duration":103734,"SoundDuration":103734,"Delta":20085873},{"NoteNumber":64,"Velocity":41,"Duration":101646,"SoundDuration":101646,"Delta":20189607},{"NoteNumber":67,"Velocity":34,"Duration":104843,"SoundDuration":104843,"Delta":20291254},{"NoteNumber":79,"Velocity":63,"Duration":406669,"SoundDuration":406669,"Delta":20396098},{"NoteNumber":71,"Velocity":39,"Duration":103043,"SoundDuration":103043,"Delta":20498090},{"NoteNumber":62,"Velocity":47,"Duration":99953,"SoundDuration":99953,"Delta":20601133},{"NoteNumber":65,"Velocity":40,"Duration":101681,"SoundDuration":101681,"Delta":20701087},{"NoteNumber":80,"Velocity":70,"Duration":402105,"SoundDuration":402105,"Delta":20802768},{"NoteNumber":71,"Velocity":38,"Duration":100806,"SoundDuration":100806,"Delta":20902721},{"NoteNumber":62,"Velocity":50,"Duration":99953,"SoundDuration":99953,"Delta":21003528},{"NoteNumber":65,"Velocity":42,"Duration":101392,"SoundDuration":101392,"Delta":21103481},{"NoteNumber":80,"Velocity":70,"Duration":407496,"SoundDuration":407496,"Delta":21204873},{"NoteNumber":71,"Velocity":45,"Duration":99953,"SoundDuration":99953,"Delta":21304827},{"NoteNumber":60,"Velocity":52,"Duration":101282,"SoundDuration":101282,"Delta":21404780},{"NoteNumber":64,"Velocity":43,"Duration":106307,"SoundDuration":106307,"Delta":21506063},{"NoteNumber":81,"Velocity":70,"Duration":403831,"SoundDuration":403831,"Delta":21612370},{"NoteNumber":69,"Velocity":39,"Duration":101681,"SoundDuration":101681,"Delta":21712886},{"NoteNumber":60,"Velocity":46,"Duration":99953,"SoundDuration":99953,"Delta":21814568},{"NoteNumber":64,"Velocity":38,"Duration":101681,"SoundDuration":101681,"Delta":21914521},{"NoteNumber":76,"Velocity":63,"Duration":403155,"SoundDuration":403155,"Delta":22016202},{"NoteNumber":69,"Velocity":34,"Duration":101098,"SoundDuration":101098,"Delta":22116624},{"NoteNumber":60,"Velocity":40,"Duration":99953,"SoundDuration":99953,"Delta":22217723},{"NoteNumber":64,"Velocity":35,"Duration":101681,"SoundDuration":101681,"Delta":22317676},{"NoteNumber":75,"Velocity":57,"Duration":402105,"SoundDuration":402105,"Delta":22419357},{"NoteNumber":69,"Velocity":28,"Duration":100806,"SoundDuration":100806,"Delta":22519311},{"NoteNumber":60,"Velocity":37,"Duration":99953,"SoundDuration":99953,"Delta":22620117},{"NoteNumber":64,"Velocity":30,"Duration":101392,"SoundDuration":101392,"Delta":22720070},{"NoteNumber":76,"Velocity":57,"Duration":424129,"SoundDuration":424129,"Delta":22821463},{"NoteNumber":69,"Velocity":28,"Duration":101646,"SoundDuration":101646,"Delta":22923110},{"NoteNumber":59,"Velocity":36,"Duration":105954,"SoundDuration":105954,"Delta":23024756},{"NoteNumber":64,"Velocity":29,"Duration":114881,"SoundDuration":114881,"Delta":23130711},{"NoteNumber":79,"Velocity":64,"Duration":409406,"SoundDuration":409406,"Delta":23245592},{"NoteNumber":71,"Velocity":36,"Duration":103756,"SoundDuration":103756,"Delta":23346896},{"NoteNumber":59,"Velocity":41,"Duration":101303,"SoundDuration":101303,"Delta":23450652},{"NoteNumber":69,"Velocity":34,"Duration":103043,"SoundDuration":103043,"Delta":23551955},{"NoteNumber":78,"Velocity":63,"Duration":403155,"SoundDuration":403155,"Delta":23654998},{"NoteNumber":71,"Velocity":34,"Duration":101098,"SoundDuration":101098,"Delta":23755421},{"NoteNumber":59,"Velocity":40,"Duration":99953,"SoundDuration":99953,"Delta":23856519},{"NoteNumber":67,"Velocity":35,"Duration":101681,"SoundDuration":101681,"Delta":23956472},{"NoteNumber":76,"Velocity":57,"Duration":402105,"SoundDuration":402105,"Delta":24058154},{"NoteNumber":71,"Velocity":28,"Duration":100806,"SoundDuration":100806,"Delta":24158107},{"NoteNumber":59,"Velocity":37,"Duration":99953,"SoundDuration":99953,"Delta":24258913},{"NoteNumber":66,"Velocity":30,"Duration":101392,"SoundDuration":101392,"Delta":24358867},{"NoteNumber":75,"Velocity":57,"Duration":406167,"SoundDuration":406167,"Delta":24460259},{"NoteNumber":71,"Velocity":28,"Duration":99953,"SoundDuration":99953,"Delta":24560212},{"NoteNumber":64,"Velocity":36,"Duration":99953,"SoundDuration":99953,"Delta":24660166},{"NoteNumber":67,"Velocity":29,"Duration":106307,"SoundDuration":106307,"Delta":24760119},{"NoteNumber":76,"Velocity":55,"Duration":101625,"SoundDuration":101625,"Delta":24866426},{"NoteNumber":71,"Velocity":33,"Duration":103734,"SoundDuration":103734,"Delta":24968052},{"NoteNumber":70,"Velocity":38,"Duration":101625,"SoundDuration":101625,"Delta":25071787},{"NoteNumber":71,"Velocity":29,"Duration":104456,"SoundDuration":104456,"Delta":25173413},{"NoteNumber":72,"Velocity":42,"Duration":100758,"SoundDuration":100758,"Delta":25277870},{"NoteNumber":71,"Velocity":30,"Duration":104094,"SoundDuration":104094,"Delta":25378628},{"NoteNumber":70,"Velocity":38,"Duration":101971,"SoundDuration":101971,"Delta":25482723},{"NoteNumber":71,"Velocity":35,"Duration":105865,"SoundDuration":105865,"Delta":25584694},{"NoteNumber":72,"Velocity":43,"Duration":104391,"SoundDuration":104391,"Delta":25690559},{"NoteNumber":71,"Velocity":28,"Duration":110140,"SoundDuration":110140,"Delta":25794951},{"NoteNumber":70,"Velocity":37,"Duration":106997,"SoundDuration":106997,"Delta":25905091},{"NoteNumber":71,"Velocity":30,"Duration":111366,"SoundDuration":111366,"Delta":26012089},{"NoteNumber":72,"Velocity":37,"Duration":108940,"SoundDuration":108940,"Delta":26123455},{"NoteNumber":71,"Velocity":28,"Duration":114338,"SoundDuration":114338,"Delta":26232396},{"NoteNumber":55,"Velocity":35,"Duration":105865,"SoundDuration":105865,"Delta":26346734},{"NoteNumber":59,"Velocity":27,"Duration":108546,"SoundDuration":108546,"Delta":26452599},{"NoteNumber":62,"Velocity":45,"Duration":418170,"SoundDuration":418170,"Delta":26561145},{"NoteNumber":59,"Velocity":27,"Duration":106307,"SoundDuration":106307,"Delta":26665174},{"NoteNumber":55,"Velocity":35,"Duration":103376,"SoundDuration":103376,"Delta":26771482},{"NoteNumber":59,"Velocity":26,"Duration":104456,"SoundDuration":104456,"Delta":26874859},{"NoteNumber":67,"Velocity":45,"Duration":419530,"SoundDuration":419530,"Delta":26979316},{"NoteNumber":62,"Velocity":27,"Duration":105122,"SoundDuration":105122,"Delta":27080880},{"NoteNumber":55,"Velocity":36,"Duration":102606,"SoundDuration":102606,"Delta":27186003},{"NoteNumber":59,"Velocity":29,"Duration":110237,"SoundDuration":110237,"Delta":27288609},{"NoteNumber":69,"Velocity":58,"Duration":415478,"SoundDuration":415478,"Delta":27398846},{"NoteNumber":62,"Velocity":26,"Duration":105122,"SoundDuration":105122,"Delta":27501453},{"NoteNumber":55,"Velocity":39,"Duration":102256,"SoundDuration":102256,"Delta":27606576},{"NoteNumber":59,"Velocity":31,"Duration":105492,"SoundDuration":105492,"Delta":27708832},{"NoteNumber":71,"Velocity":57,"Duration":415819,"SoundDuration":415819,"Delta":27814325},{"NoteNumber":62,"Velocity":29,"Duration":103312,"SoundDuration":103312,"Delta":27916234},{"NoteNumber":54,"Velocity":36,"Duration":99953,"SoundDuration":99953,"Delta":28019547},{"NoteNumber":60,"Velocity":29,"Duration":110644,"SoundDuration":110644,"Delta":28119500},{"NoteNumber":71,"Velocity":64,"Duration":403831,"SoundDuration":403831,"Delta":28230144},{"NoteNumber":62,"Velocity":29,"Duration":101681,"SoundDuration":101681,"Delta":28330660},{"NoteNumber":54,"Velocity":37,"Duration":99953,"SoundDuration":99953,"Delta":28432341},{"NoteNumber":60,"Velocity":30,"Duration":101681,"SoundDuration":101681,"Delta":28532295},{"NoteNumber":69,"Velocity":55,"Duration":403155,"SoundDuration":403155,"Delta":28633976},{"NoteNumber":62,"Velocity":28,"Duration":101098,"SoundDuration":101098,"Delta":28734398},{"NoteNumber":54,"Velocity":37,"Duration":99953,"SoundDuration":99953,"Delta":28835497},{"NoteNumber":60,"Velocity":30,"Duration":101681,"SoundDuration":101681,"Delta":28935450},{"NoteNumber":68,"Velocity":56,"Duration":402105,"SoundDuration":402105,"Delta":29037131},{"NoteNumber":62,"Velocity":28,"Duration":100806,"SoundDuration":100806,"Delta":29137084},{"NoteNumber":54,"Velocity":37,"Duration":99953,"SoundDuration":99953,"Delta":29237891},{"NoteNumber":60,"Velocity":30,"Duration":101392,"SoundDuration":101392,"Delta":29337844},{"NoteNumber":69,"Velocity":62,"Duration":413064,"SoundDuration":413064,"Delta":29439237},{"NoteNumber":62,"Velocity":28,"Duration":102690,"SoundDuration":102690,"Delta":29539190},{"NoteNumber":55,"Velocity":35,"Duration":103734,"SoundDuration":103734,"Delta":29641880},{"NoteNumber":59,"Velocity":27,"Duration":106685,"SoundDuration":106685,"Delta":29745615},{"NoteNumber":62,"Velocity":51,"Duration":417518,"SoundDuration":417518,"Delta":29852301},{"NoteNumber":59,"Velocity":27,"Duration":106307,"SoundDuration":106307,"Delta":29955678},{"NoteNumber":55,"Velocity":35,"Duration":103376,"SoundDuration":103376,"Delta":30061985},{"NoteNumber":59,"Velocity":26,"Duration":104456,"SoundDuration":104456,"Delta":30165362},{"NoteNumber":67,"Velocity":54,"Duration":415825,"SoundDuration":415825,"Delta":30269819},{"NoteNumber":62,"Velocity":27,"Duration":103021,"SoundDuration":103021,"Delta":30371102},{"NoteNumber":55,"Velocity":36,"Duration":101282,"SoundDuration":101282,"Delta":30474124},{"NoteNumber":59,"Velocity":29,"Duration":110237,"SoundDuration":110237,"Delta":30575407},{"NoteNumber":69,"Velocity":63,"Duration":407930,"SoundDuration":407930,"Delta":30685644},{"NoteNumber":62,"Velocity":26,"Duration":103021,"SoundDuration":103021,"Delta":30786927},{"NoteNumber":55,"Velocity":39,"Duration":100603,"SoundDuration":100603,"Delta":30889949},{"NoteNumber":59,"Velocity":35,"Duration":103021,"SoundDuration":103021,"Delta":30990553},{"NoteNumber":71,"Velocity":66,"Duration":418090,"SoundDuration":418090,"Delta":31093575},{"NoteNumber":62,"Velocity":42,"Duration":101978,"SoundDuration":101978,"Delta":31194517},{"NoteNumber":54,"Velocity":50,"Duration":99953,"SoundDuration":99953,"Delta":31296496},{"NoteNumber":57,"Velocity":46,"Duration":115216,"SoundDuration":115216,"Delta":31396449},{"NoteNumber":74,"Velocity":69,"Duration":403831,"SoundDuration":403831,"Delta":31511665},{"NoteNumber":62,"Velocity":47,"Duration":101681,"SoundDuration":101681,"Delta":31612181},{"NoteNumber":54,"Velocity":56,"Duration":99953,"SoundDuration":99953,"Delta":31713862},{"NoteNumber":57,"Velocity":48,"Duration":101681,"SoundDuration":101681,"Delta":31813816},{"NoteNumber":73,"Velocity":64,"Duration":403155,"SoundDuration":403155,"Delta":31915497},{"NoteNumber":62,"Velocity":37,"Duration":101098,"SoundDuration":101098,"Delta":32015919},{"NoteNumber":54,"Velocity":45,"Duration":99953,"SoundDuration":99953,"Delta":32117018},{"NoteNumber":57,"Velocity":33,"Duration":101681,"SoundDuration":101681,"Delta":32216971},{"NoteNumber":72,"Velocity":68,"Duration":407424,"SoundDuration":407424,"Delta":32318652},{"NoteNumber":62,"Velocity":28,"Duration":100806,"SoundDuration":100806,"Delta":32418605},{"NoteNumber":54,"Velocity":37,"Duration":101908,"SoundDuration":101908,"Delta":32519412},{"NoteNumber":60,"Velocity":30,"Duration":104756,"SoundDuration":104756,"Delta":32621321},{"NoteNumber":69,"Velocity":64,"Duration":418194,"SoundDuration":418194,"Delta":32726077},{"NoteNumber":62,"Velocity":28,"Duration":105865,"SoundDuration":105865,"Delta":32827986},{"NoteNumber":55,"Velocity":35,"Duration":103734,"SoundDuration":103734,"Delta":32933851},{"NoteNumber":59,"Velocity":27,"Duration":106685,"SoundDuration":106685,"Delta":33037585},{"NoteNumber":71,"Velocity":58,"Duration":417518,"SoundDuration":417518,"Delta":33144271},{"NoteNumber":62,"Velocity":36,"Duration":106307,"SoundDuration":106307,"Delta":33247648},{"NoteNumber":55,"Velocity":46,"Duration":103377,"SoundDuration":103377,"Delta":33353956},{"NoteNumber":59,"Velocity":37,"Duration":104456,"SoundDuration":104456,"Delta":33457333},{"NoteNumber":71,"Velocity":66,"Duration":415825,"SoundDuration":415825,"Delta":33561789},{"NoteNumber":62,"Velocity":39,"Duration":103022,"SoundDuration":103022,"Delta":33663072},{"NoteNumber":56,"Velocity":48,"Duration":101283,"SoundDuration":101283,"Delta":33766094},{"NoteNumber":59,"Velocity":39,"Duration":110237,"SoundDuration":110237,"Delta":33867377},{"NoteNumber":76,"Velocity":72,"Duration":407930,"SoundDuration":407930,"Delta":33977615},{"NoteNumber":64,"Velocity":46,"Duration":103022,"SoundDuration":103022,"Delta":34078898},{"NoteNumber":56,"Velocity":53,"Duration":100603,"SoundDuration":100603,"Delta":34181920},{"NoteNumber":59,"Velocity":45,"Duration":103022,"SoundDuration":103022,"Delta":34282523},{"NoteNumber":71,"Velocity":65,"Duration":413341,"SoundDuration":413341,"Delta":34385545},{"NoteNumber":64,"Velocity":37,"Duration":101978,"SoundDuration":101978,"Delta":34486488},{"NoteNumber":57,"Velocity":44,"Duration":103734,"SoundDuration":103734,"Delta":34588466},{"NoteNumber":60,"Velocity":27,"Duration":106685,"SoundDuration":106685,"Delta":34692201},{"NoteNumber":72,"Velocity":63,"Duration":417518,"SoundDuration":417518,"Delta":34798886},{"NoteNumber":64,"Velocity":39,"Duration":106307,"SoundDuration":106307,"Delta":34902263},{"NoteNumber":57,"Velocity":50,"Duration":103377,"SoundDuration":103377,"Delta":35008571},{"NoteNumber":60,"Velocity":40,"Duration":104456,"SoundDuration":104456,"Delta":35111948},{"NoteNumber":72,"Velocity":69,"Duration":415825,"SoundDuration":415825,"Delta":35216405},{"NoteNumber":64,"Velocity":47,"Duration":103022,"SoundDuration":103022,"Delta":35317688},{"NoteNumber":59,"Velocity":56,"Duration":101283,"SoundDuration":101283,"Delta":35420710},{"NoteNumber":62,"Velocity":49,"Duration":110237,"SoundDuration":110237,"Delta":35521993},{"NoteNumber":79,"Velocity":76,"Duration":407930,"SoundDuration":407930,"Delta":35632230},{"NoteNumber":67,"Velocity":56,"Duration":103022,"SoundDuration":103022,"Delta":35733513},{"NoteNumber":59,"Velocity":62,"Duration":100603,"SoundDuration":100603,"Delta":35836535},{"NoteNumber":62,"Velocity":56,"Duration":103022,"SoundDuration":103022,"Delta":35937139},{"NoteNumber":74,"Velocity":72,"Duration":413341,"SoundDuration":413341,"Delta":36040161},{"NoteNumber":67,"Velocity":46,"Duration":101978,"SoundDuration":101978,"Delta":36141103},{"NoteNumber":60,"Velocity":56,"Duration":103734,"SoundDuration":103734,"Delta":36243081},{"NoteNumber":64,"Velocity":47,"Duration":106685,"SoundDuration":106685,"Delta":36346816},{"NoteNumber":76,"Velocity":71,"Duration":417518,"SoundDuration":417518,"Delta":36453502},{"NoteNumber":67,"Velocity":45,"Duration":106307,"SoundDuration":106307,"Delta":36556879},{"NoteNumber":60,"Velocity":54,"Duration":103377,"SoundDuration":103377,"Delta":36663186},{"NoteNumber":64,"Velocity":45,"Duration":104456,"SoundDuration":104456,"Delta":36766563},{"NoteNumber":76,"Velocity":69,"Duration":409704,"SoundDuration":409704,"Delta":36871020},{"NoteNumber":68,"Velocity":47,"Duration":103022,"SoundDuration":103022,"Delta":36972303},{"NoteNumber":60,"Velocity":56,"Duration":101283,"SoundDuration":101283,"Delta":37075325},{"NoteNumber":64,"Velocity":48,"Duration":104115,"SoundDuration":104115,"Delta":37176608},{"NoteNumber":76,"Velocity":73,"Duration":413162,"SoundDuration":413162,"Delta":37280724},{"NoteNumber":69,"Velocity":50,"Duration":104675,"SoundDuration":104675,"Delta":37382007},{"NoteNumber":60,"Velocity":58,"Duration":102528,"SoundDuration":102528,"Delta":37486682},{"NoteNumber":64,"Velocity":49,"Duration":104675,"SoundDuration":104675,"Delta":37589211},{"NoteNumber":76,"Velocity":66,"Duration":418411,"SoundDuration":418411,"Delta":37693887},{"NoteNumber":70,"Velocity":40,"Duration":104675,"SoundDuration":104675,"Delta":37796416},{"NoteNumber":59,"Velocity":44,"Duration":103734,"SoundDuration":103734,"Delta":37901091},{"NoteNumber":66,"Velocity":37,"Duration":107472,"SoundDuration":107472,"Delta":38004826},{"NoteNumber":75,"Velocity":71,"Duration":417518,"SoundDuration":417518,"Delta":38112299},{"NoteNumber":71,"Velocity":45,"Duration":106307,"SoundDuration":106307,"Delta":38215676},{"NoteNumber":47,"Velocity":62,"Duration":103377,"SoundDuration":103377,"Delta":38321983},{"NoteNumber":59,"Velocity":45,"Duration":104456,"SoundDuration":104456,"Delta":38425360},{"NoteNumber":71,"Velocity":72,"Duration":417937,"SoundDuration":417937,"Delta":38529817},{"NoteNumber":59,"Velocity":54,"Duration":105211,"SoundDuration":105211,"Delta":38631464},{"NoteNumber":43,"Velocity":69,"Duration":103312,"SoundDuration":103312,"Delta":38736675},{"NoteNumber":55,"Velocity":52,"Duration":107766,"SoundDuration":107766,"Delta":38839988},{"NoteNumber":71,"Velocity":78,"Duration":434416,"SoundDuration":434416,"Delta":38947755},{"NoteNumber":59,"Velocity":58,"Duration":110545,"SoundDuration":110545,"Delta":39052878},{"NoteNumber":42,"Velocity":71,"Duration":107380,"SoundDuration":107380,"Delta":39163424},{"NoteNumber":54,"Velocity":57,"Duration":111366,"SoundDuration":111366,"Delta":39270804},{"NoteNumber":71,"Velocity":83,"Duration":247293,"SoundDuration":247293,"Delta":39382171},{"NoteNumber":59,"Velocity":50,"Duration":27516,"SoundDuration":27516,"Delta":39497387},{"NoteNumber":59,"Velocity":66,"Duration":1082664,"SoundDuration":1082664,"Delta":39530407},{"NoteNumber":64,"Velocity":66,"Duration":1049645,"SoundDuration":1049645,"Delta":39563426},{"NoteNumber":67,"Velocity":66,"Duration":1016625,"SoundDuration":1016625,"Delta":39596445},{"NoteNumber":71,"Velocity":83,"Duration":983606,"SoundDuration":983606,"Delta":39629465},{"NoteNumber":40,"Velocity":71,"Duration":983606,"SoundDuration":983606,"Delta":39629465},{"NoteNumber":52,"Velocity":71,"Duration":983606,"SoundDuration":983606,"Delta":39629465},{"NoteNumber":71,"Velocity":37,"Duration":105122,"SoundDuration":105122,"Delta":40613071},{"NoteNumber":67,"Velocity":22,"Duration":109337,"SoundDuration":109337,"Delta":40718194},{"NoteNumber":64,"Velocity":28,"Duration":105865,"SoundDuration":105865,"Delta":40827532},{"NoteNumber":67,"Velocity":21,"Duration":107766,"SoundDuration":107766,"Delta":40933397},{"NoteNumber":71,"Velocity":37,"Duration":104756,"SoundDuration":104756,"Delta":41041163},{"NoteNumber":67,"Velocity":22,"Duration":106997,"SoundDuration":106997,"Delta":41145919},{"NoteNumber":64,"Velocity":30,"Duration":104029,"SoundDuration":104029,"Delta":41252917},{"NoteNumber":67,"Velocity":25,"Duration":110237,"SoundDuration":110237,"Delta":41356946},{"NoteNumber":79,"Velocity":58,"Duration":414621,"SoundDuration":414621,"Delta":41467184},{"NoteNumber":71,"Velocity":23,"Duration":105270,"SoundDuration":105270,"Delta":41569930},{"NoteNumber":64,"Velocity":36,"Duration":101701,"SoundDuration":101701,"Delta":41675201},{"NoteNumber":67,"Velocity":29,"Duration":104902,"SoundDuration":104902,"Delta":41776903},{"NoteNumber":79,"Velocity":57,"Duration":416112,"SoundDuration":416112,"Delta":41881805},{"NoteNumber":71,"Velocity":28,"Duration":103813,"SoundDuration":103813,"Delta":41983507},{"NoteNumber":63,"Velocity":36,"Duration":99953,"SoundDuration":99953,"Delta":42087320},{"NoteNumber":69,"Velocity":29,"Duration":110644,"SoundDuration":110644,"Delta":42187274},{"NoteNumber":79,"Velocity":64,"Duration":403831,"SoundDuration":403831,"Delta":42297918},{"NoteNumber":71,"Velocity":29,"Duration":101681,"SoundDuration":101681,"Delta":42398434},{"NoteNumber":63,"Velocity":37,"Duration":99953,"SoundDuration":99953,"Delta":42500115},{"NoteNumber":69,"Velocity":30,"Duration":101681,"SoundDuration":101681,"Delta":42600068},{"NoteNumber":78,"Velocity":55,"Duration":403155,"SoundDuration":403155,"Delta":42701749},{"NoteNumber":71,"Velocity":28,"Duration":101098,"SoundDuration":101098,"Delta":42802172},{"NoteNumber":63,"Velocity":37,"Duration":99953,"SoundDuration":99953,"Delta":42903270},{"NoteNumber":69,"Velocity":30,"Duration":101681,"SoundDuration":101681,"Delta":43003223},{"NoteNumber":77,"Velocity":56,"Duration":402105,"SoundDuration":402105,"Delta":43104905},{"NoteNumber":71,"Velocity":28,"Duration":100806,"SoundDuration":100806,"Delta":43204858},{"NoteNumber":63,"Velocity":37,"Duration":99953,"SoundDuration":99953,"Delta":43305664},{"NoteNumber":69,"Velocity":30,"Duration":101392,"SoundDuration":101392,"Delta":43405618},{"NoteNumber":78,"Velocity":62,"Duration":429572,"SoundDuration":429572,"Delta":43507010},{"NoteNumber":71,"Velocity":28,"Duration":102690,"SoundDuration":102690,"Delta":43606963},{"NoteNumber":64,"Velocity":36,"Duration":107472,"SoundDuration":107472,"Delta":43709654},{"NoteNumber":67,"Velocity":29,"Duration":119455,"SoundDuration":119455,"Delta":43817127},{"NoteNumber":84,"Velocity":69,"Duration":403831,"SoundDuration":403831,"Delta":43936582},{"NoteNumber":71,"Velocity":41,"Duration":101681,"SoundDuration":101681,"Delta":44037098},{"NoteNumber":64,"Velocity":47,"Duration":99953,"SoundDuration":99953,"Delta":44138779},{"NoteNumber":67,"Velocity":39,"Duration":101681,"SoundDuration":101681,"Delta":44238733},{"NoteNumber":83,"Velocity":66,"Duration":403155,"SoundDuration":403155,"Delta":44340414},{"NoteNumber":71,"Velocity":38,"Duration":101098,"SoundDuration":101098,"Delta":44440836},{"NoteNumber":64,"Velocity":44,"Duration":99953,"SoundDuration":99953,"Delta":44541935},{"NoteNumber":67,"Velocity":35,"Duration":101681,"SoundDuration":101681,"Delta":44641888},{"NoteNumber":79,"Velocity":57,"Duration":402105,"SoundDuration":402105,"Delta":44743569},{"NoteNumber":71,"Velocity":28,"Duration":100806,"SoundDuration":100806,"Delta":44843522},{"NoteNumber":64,"Velocity":37,"Duration":99953,"SoundDuration":99953,"Delta":44944329},{"NoteNumber":67,"Velocity":30,"Duration":101392,"SoundDuration":101392,"Delta":45044282},{"NoteNumber":76,"Velocity":57,"Duration":405441,"SoundDuration":405441,"Delta":45145675},{"NoteNumber":71,"Velocity":28,"Duration":99953,"SoundDuration":99953,"Delta":45245628},{"NoteNumber":63,"Velocity":36,"Duration":99953,"SoundDuration":99953,"Delta":45345581},{"NoteNumber":69,"Velocity":29,"Duration":105581,"SoundDuration":105581,"Delta":45445534},{"NoteNumber":79,"Velocity":64,"Duration":403831,"SoundDuration":403831,"Delta":45551116},{"NoteNumber":71,"Velocity":36,"Duration":101681,"SoundDuration":101681,"Delta":45651632},{"NoteNumber":63,"Velocity":41,"Duration":99953,"SoundDuration":99953,"Delta":45753313},{"NoteNumber":69,"Velocity":34,"Duration":101681,"SoundDuration":101681,"Delta":45853267},{"NoteNumber":78,"Velocity":63,"Duration":405229,"SoundDuration":405229,"Delta":45954948},{"NoteNumber":71,"Velocity":34,"Duration":101098,"SoundDuration":101098,"Delta":46055370},{"NoteNumber":63,"Velocity":40,"Duration":99953,"SoundDuration":99953,"Delta":46156469},{"NoteNumber":69,"Velocity":35,"Duration":103755,"SoundDuration":103755,"Delta":46256422},{"NoteNumber":77,"Velocity":57,"Duration":411150,"SoundDuration":411150,"Delta":46360178},{"NoteNumber":71,"Velocity":28,"Duration":103755,"SoundDuration":103755,"Delta":46461825},{"NoteNumber":63,"Velocity":37,"Duration":101992,"SoundDuration":101992,"Delta":46565581},{"NoteNumber":69,"Velocity":30,"Duration":103755,"SoundDuration":103755,"Delta":46667573},{"NoteNumber":78,"Velocity":57,"Duration":433517,"SoundDuration":433517,"Delta":46771329},{"NoteNumber":71,"Velocity":28,"Duration":105581,"SoundDuration":105581,"Delta":46876911},{"NoteNumber":64,"Velocity":36,"Duration":107472,"SoundDuration":107472,"Delta":46982492},{"NoteNumber":67,"Velocity":29,"Duration":114880,"SoundDuration":114880,"Delta":47089965},{"NoteNumber":79,"Velocity":64,"Duration":416532,"SoundDuration":416532,"Delta":47204846},{"NoteNumber":71,"Velocity":36,"Duration":103734,"SoundDuration":103734,"Delta":47311154},{"NoteNumber":64,"Velocity":41,"Duration":101646,"SoundDuration":101646,"Delta":47414888},{"NoteNumber":67,"Velocity":34,"Duration":104843,"SoundDuration":104843,"Delta":47516535},{"NoteNumber":79,"Velocity":63,"Duration":406669,"SoundDuration":406669,"Delta":47621379},{"NoteNumber":71,"Velocity":39,"Duration":103043,"SoundDuration":103043,"Delta":47723371},{"NoteNumber":62,"Velocity":47,"Duration":99953,"SoundDuration":99953,"Delta":47826414},{"NoteNumber":65,"Velocity":40,"Duration":101681,"SoundDuration":101681,"Delta":47926368},{"NoteNumber":80,"Velocity":70,"Duration":402105,"SoundDuration":402105,"Delta":48028049},{"NoteNumber":71,"Velocity":43,"Duration":100806,"SoundDuration":100806,"Delta":48128002},{"NoteNumber":62,"Velocity":54,"Duration":99953,"SoundDuration":99953,"Delta":48228809},{"NoteNumber":65,"Velocity":48,"Duration":101392,"SoundDuration":101392,"Delta":48328762},{"NoteNumber":80,"Velocity":70,"Duration":407496,"SoundDuration":407496,"Delta":48430154},{"NoteNumber":71,"Velocity":47,"Duration":99953,"SoundDuration":99953,"Delta":48530108},{"NoteNumber":60,"Velocity":55,"Duration":101283,"SoundDuration":101283,"Delta":48630061},{"NoteNumber":64,"Velocity":47,"Duration":106307,"SoundDuration":106307,"Delta":48731344},{"NoteNumber":81,"Velocity":73,"Duration":403831,"SoundDuration":403831,"Delta":48837651},{"NoteNumber":69,"Velocity":36,"Duration":101681,"SoundDuration":101681,"Delta":48938167},{"NoteNumber":60,"Velocity":41,"Duration":99953,"SoundDuration":99953,"Delta":49039849},{"NoteNumber":64,"Velocity":34,"Duration":101681,"SoundDuration":101681,"Delta":49139802},{"NoteNumber":76,"Velocity":63,"Duration":403155,"SoundDuration":403155,"Delta":49241483},{"NoteNumber":69,"Velocity":34,"Duration":101098,"SoundDuration":101098,"Delta":49341905},{"NoteNumber":60,"Velocity":40,"Duration":99953,"SoundDuration":99953,"Delta":49443004},{"NoteNumber":64,"Velocity":35,"Duration":101681,"SoundDuration":101681,"Delta":49542957},{"NoteNumber":75,"Velocity":57,"Duration":402105,"SoundDuration":402105,"Delta":49644638},{"NoteNumber":69,"Velocity":28,"Duration":100806,"SoundDuration":100806,"Delta":49744591},{"NoteNumber":60,"Velocity":37,"Duration":99953,"SoundDuration":99953,"Delta":49845398},{"NoteNumber":64,"Velocity":30,"Duration":101392,"SoundDuration":101392,"Delta":49945351},{"NoteNumber":76,"Velocity":57,"Duration":424129,"SoundDuration":424129,"Delta":50046744},{"NoteNumber":69,"Velocity":28,"Duration":101646,"SoundDuration":101646,"Delta":50148390},{"NoteNumber":59,"Velocity":36,"Duration":105954,"SoundDuration":105954,"Delta":50250037},{"NoteNumber":64,"Velocity":29,"Duration":114880,"SoundDuration":114880,"Delta":50355992},{"NoteNumber":79,"Velocity":64,"Duration":409406,"SoundDuration":409406,"Delta":50470873},{"NoteNumber":71,"Velocity":36,"Duration":103755,"SoundDuration":103755,"Delta":50572176},{"NoteNumber":59,"Velocity":41,"Duration":101303,"SoundDuration":101303,"Delta":50675932},{"NoteNumber":69,"Velocity":34,"Duration":103043,"SoundDuration":103043,"Delta":50777236},{"NoteNumber":78,"Velocity":63,"Duration":403155,"SoundDuration":403155,"Delta":50880279},{"NoteNumber":71,"Velocity":34,"Duration":101098,"SoundDuration":101098,"Delta":50980701},{"NoteNumber":59,"Velocity":40,"Duration":99953,"SoundDuration":99953,"Delta":51081800},{"NoteNumber":67,"Velocity":35,"Duration":101681,"SoundDuration":101681,"Delta":51181753},{"NoteNumber":76,"Velocity":57,"Duration":402105,"SoundDuration":402105,"Delta":51283434},{"NoteNumber":71,"Velocity":28,"Duration":100806,"SoundDuration":100806,"Delta":51383388},{"NoteNumber":59,"Velocity":37,"Duration":99953,"SoundDuration":99953,"Delta":51484194},{"NoteNumber":66,"Velocity":30,"Duration":101392,"SoundDuration":101392,"Delta":51584147},{"NoteNumber":75,"Velocity":57,"Duration":406167,"SoundDuration":406167,"Delta":51685540},{"NoteNumber":71,"Velocity":28,"Duration":99953,"SoundDuration":99953,"Delta":51785493},{"NoteNumber":64,"Velocity":36,"Duration":99953,"SoundDuration":99953,"Delta":51885446},{"NoteNumber":67,"Velocity":29,"Duration":106307,"SoundDuration":106307,"Delta":51985400},{"NoteNumber":76,"Velocity":55,"Duration":101626,"SoundDuration":101626,"Delta":52091707},{"NoteNumber":71,"Velocity":33,"Duration":103734,"SoundDuration":103734,"Delta":52193333},{"NoteNumber":70,"Velocity":38,"Duration":101626,"SoundDuration":101626,"Delta":52297068},{"NoteNumber":71,"Velocity":29,"Duration":104456,"SoundDuration":104456,"Delta":52398694},{"NoteNumber":72,"Velocity":42,"Duration":100758,"SoundDuration":100758,"Delta":52503150},{"NoteNumber":71,"Velocity":30,"Duration":105865,"SoundDuration":105865,"Delta":52603909},{"NoteNumber":70,"Velocity":38,"Duration":103670,"SoundDuration":103670,"Delta":52709774},{"NoteNumber":71,"Velocity":35,"Duration":107766,"SoundDuration":107766,"Delta":52813444},{"NoteNumber":72,"Velocity":44,"Duration":105122,"SoundDuration":105122,"Delta":52921210},{"NoteNumber":71,"Velocity":28,"Duration":110140,"SoundDuration":110140,"Delta":53026333},{"NoteNumber":70,"Velocity":37,"Duration":106997,"SoundDuration":106997,"Delta":53136474},{"NoteNumber":71,"Velocity":30,"Duration":110954,"SoundDuration":110954,"Delta":53243471},{"NoteNumber":72,"Velocity":39,"Duration":107766,"SoundDuration":107766,"Delta":53354426},{"NoteNumber":71,"Velocity":28,"Duration":112620,"SoundDuration":112620,"Delta":53462193},{"NoteNumber":55,"Velocity":35,"Duration":105270,"SoundDuration":105270,"Delta":53574814},{"NoteNumber":59,"Velocity":27,"Duration":109098,"SoundDuration":109098,"Delta":53680084},{"NoteNumber":62,"Velocity":45,"Duration":420351,"SoundDuration":420351,"Delta":53789183},{"NoteNumber":59,"Velocity":27,"Duration":107534,"SoundDuration":107534,"Delta":53893720},{"NoteNumber":55,"Velocity":35,"Duration":103377,"SoundDuration":103377,"Delta":54001254},{"NoteNumber":59,"Velocity":26,"Duration":104902,"SoundDuration":104902,"Delta":54104631},{"NoteNumber":67,"Velocity":45,"Duration":416244,"SoundDuration":416244,"Delta":54209534},{"NoteNumber":62,"Velocity":27,"Duration":103022,"SoundDuration":103022,"Delta":54311236},{"NoteNumber":55,"Velocity":36,"Duration":101283,"SoundDuration":101283,"Delta":54414258},{"NoteNumber":59,"Velocity":29,"Duration":110237,"SoundDuration":110237,"Delta":54515541},{"NoteNumber":69,"Velocity":58,"Duration":412823,"SoundDuration":412823,"Delta":54625778},{"NoteNumber":62,"Velocity":26,"Duration":104537,"SoundDuration":104537,"Delta":54727826},{"NoteNumber":55,"Velocity":39,"Duration":101701,"SoundDuration":101701,"Delta":54832363},{"NoteNumber":59,"Velocity":31,"Duration":104537,"SoundDuration":104537,"Delta":54934065},{"NoteNumber":71,"Velocity":57,"Duration":416254,"SoundDuration":416254,"Delta":55038602},{"NoteNumber":62,"Velocity":38,"Duration":101978,"SoundDuration":101978,"Delta":55140303},{"NoteNumber":54,"Velocity":44,"Duration":99953,"SoundDuration":99953,"Delta":55242282},{"NoteNumber":60,"Velocity":37,"Duration":112620,"SoundDuration":112620,"Delta":55342235},{"NoteNumber":71,"Velocity":64,"Duration":403831,"SoundDuration":403831,"Delta":55454856},{"NoteNumber":62,"Velocity":38,"Duration":101681,"SoundDuration":101681,"Delta":55555372},{"NoteNumber":54,"Velocity":43,"Duration":99953,"SoundDuration":99953,"Delta":55657053},{"NoteNumber":60,"Velocity":37,"Duration":101681,"SoundDuration":101681,"Delta":55757007},{"NoteNumber":69,"Velocity":55,"Duration":403155,"SoundDuration":403155,"Delta":55858688},{"NoteNumber":62,"Velocity":28,"Duration":101098,"SoundDuration":101098,"Delta":55959110},{"NoteNumber":54,"Velocity":37,"Duration":99953,"SoundDuration":99953,"Delta":56060208},{"NoteNumber":60,"Velocity":30,"Duration":101681,"SoundDuration":101681,"Delta":56160162},{"NoteNumber":68,"Velocity":56,"Duration":402105,"SoundDuration":402105,"Delta":56261843},{"NoteNumber":62,"Velocity":28,"Duration":100806,"SoundDuration":100806,"Delta":56361796},{"NoteNumber":54,"Velocity":37,"Duration":99953,"SoundDuration":99953,"Delta":56462603},{"NoteNumber":60,"Velocity":30,"Duration":101392,"SoundDuration":101392,"Delta":56562556},{"NoteNumber":69,"Velocity":62,"Duration":413063,"SoundDuration":413063,"Delta":56663948},{"NoteNumber":62,"Velocity":28,"Duration":102690,"SoundDuration":102690,"Delta":56763902},{"NoteNumber":55,"Velocity":35,"Duration":103734,"SoundDuration":103734,"Delta":56866592},{"NoteNumber":59,"Velocity":27,"Duration":106685,"SoundDuration":106685,"Delta":56970327},{"NoteNumber":62,"Velocity":51,"Duration":417518,"SoundDuration":417518,"Delta":57077012},{"NoteNumber":59,"Velocity":27,"Duration":106307,"SoundDuration":106307,"Delta":57180389},{"NoteNumber":55,"Velocity":35,"Duration":103377,"SoundDuration":103377,"Delta":57286697},{"NoteNumber":59,"Velocity":26,"Duration":104456,"SoundDuration":104456,"Delta":57390074},{"NoteNumber":67,"Velocity":54,"Duration":415825,"SoundDuration":415825,"Delta":57494531},{"NoteNumber":62,"Velocity":27,"Duration":103022,"SoundDuration":103022,"Delta":57595814},{"NoteNumber":55,"Velocity":36,"Duration":101283,"SoundDuration":101283,"Delta":57698836},{"NoteNumber":59,"Velocity":29,"Duration":110237,"SoundDuration":110237,"Delta":57800119},{"NoteNumber":69,"Velocity":63,"Duration":407930,"SoundDuration":407930,"Delta":57910356},{"NoteNumber":62,"Velocity":26,"Duration":103022,"SoundDuration":103022,"Delta":58011639},{"NoteNumber":55,"Velocity":39,"Duration":100603,"SoundDuration":100603,"Delta":58114661},{"NoteNumber":59,"Velocity":35,"Duration":103022,"SoundDuration":103022,"Delta":58215265},{"NoteNumber":71,"Velocity":61,"Duration":418090,"SoundDuration":418090,"Delta":58318287},{"NoteNumber":62,"Velocity":42,"Duration":101978,"SoundDuration":101978,"Delta":58419229},{"NoteNumber":54,"Velocity":50,"Duration":99953,"SoundDuration":99953,"Delta":58521207},{"NoteNumber":57,"Velocity":43,"Duration":115216,"SoundDuration":115216,"Delta":58621161},{"NoteNumber":74,"Velocity":71,"Duration":403831,"SoundDuration":403831,"Delta":58736377},{"NoteNumber":62,"Velocity":45,"Duration":101681,"SoundDuration":101681,"Delta":58836893},{"NoteNumber":54,"Velocity":54,"Duration":99953,"SoundDuration":99953,"Delta":58938574},{"NoteNumber":57,"Velocity":48,"Duration":101681,"SoundDuration":101681,"Delta":59038527},{"NoteNumber":73,"Velocity":64,"Duration":403155,"SoundDuration":403155,"Delta":59140209},{"NoteNumber":62,"Velocity":37,"Duration":101098,"SoundDuration":101098,"Delta":59240631},{"NoteNumber":54,"Velocity":45,"Duration":99953,"SoundDuration":99953,"Delta":59341729},{"NoteNumber":57,"Velocity":33,"Duration":101681,"SoundDuration":101681,"Delta":59441683},{"NoteNumber":72,"Velocity":68,"Duration":405590,"SoundDuration":405590,"Delta":59543364},{"NoteNumber":62,"Velocity":28,"Duration":100806,"SoundDuration":100806,"Delta":59643317},{"NoteNumber":54,"Velocity":37,"Duration":101016,"SoundDuration":101016,"Delta":59744124},{"NoteNumber":60,"Velocity":30,"Duration":103813,"SoundDuration":103813,"Delta":59845141},{"NoteNumber":69,"Velocity":64,"Duration":415974,"SoundDuration":415974,"Delta":59948954},{"NoteNumber":62,"Velocity":28,"Duration":104537,"SoundDuration":104537,"Delta":60049971},{"NoteNumber":55,"Velocity":35,"Duration":103734,"SoundDuration":103734,"Delta":60154508},{"NoteNumber":59,"Velocity":27,"Duration":106685,"SoundDuration":106685,"Delta":60258243},{"NoteNumber":71,"Velocity":58,"Duration":417518,"SoundDuration":417518,"Delta":60364928},{"NoteNumber":62,"Velocity":36,"Duration":106307,"SoundDuration":106307,"Delta":60468305},{"NoteNumber":55,"Velocity":46,"Duration":103377,"SoundDuration":103377,"Delta":60574613},{"NoteNumber":59,"Velocity":37,"Duration":104456,"SoundDuration":104456,"Delta":60677990},{"NoteNumber":71,"Velocity":66,"Duration":415825,"SoundDuration":415825,"Delta":60782447},{"NoteNumber":62,"Velocity":39,"Duration":103022,"SoundDuration":103022,"Delta":60883730},{"NoteNumber":56,"Velocity":48,"Duration":101283,"SoundDuration":101283,"Delta":60986752},{"NoteNumber":59,"Velocity":39,"Duration":110237,"SoundDuration":110237,"Delta":61088035},{"NoteNumber":76,"Velocity":72,"Duration":407930,"SoundDuration":407930,"Delta":61198272},{"NoteNumber":64,"Velocity":49,"Duration":103022,"SoundDuration":103022,"Delta":61299555},{"NoteNumber":56,"Velocity":56,"Duration":100603,"SoundDuration":100603,"Delta":61402577},{"NoteNumber":59,"Velocity":50,"Duration":103022,"SoundDuration":103022,"Delta":61503181},{"NoteNumber":71,"Velocity":65,"Duration":413341,"SoundDuration":413341,"Delta":61606203},{"NoteNumber":64,"Velocity":37,"Duration":101978,"SoundDuration":101978,"Delta":61707145},{"NoteNumber":57,"Velocity":44,"Duration":103734,"SoundDuration":103734,"Delta":61809123},{"NoteNumber":60,"Velocity":27,"Duration":106685,"SoundDuration":106685,"Delta":61912858},{"NoteNumber":72,"Velocity":63,"Duration":417518,"SoundDuration":417518,"Delta":62019544},{"NoteNumber":64,"Velocity":39,"Duration":106307,"SoundDuration":106307,"Delta":62122921},{"NoteNumber":57,"Velocity":50,"Duration":103377,"SoundDuration":103377,"Delta":62229228},{"NoteNumber":60,"Velocity":40,"Duration":104456,"SoundDuration":104456,"Delta":62332605},{"NoteNumber":72,"Velocity":69,"Duration":415825,"SoundDuration":415825,"Delta":62437062},{"NoteNumber":64,"Velocity":42,"Duration":103022,"SoundDuration":103022,"Delta":62538345},{"NoteNumber":59,"Velocity":52,"Duration":101283,"SoundDuration":101283,"Delta":62641367},{"NoteNumber":62,"Velocity":42,"Duration":110237,"SoundDuration":110237,"Delta":62742650},{"NoteNumber":79,"Velocity":73,"Duration":407930,"SoundDuration":407930,"Delta":62852887},{"NoteNumber":67,"Velocity":50,"Duration":103022,"SoundDuration":103022,"Delta":62954170},{"NoteNumber":59,"Velocity":58,"Duration":100603,"SoundDuration":100603,"Delta":63057192},{"NoteNumber":62,"Velocity":49,"Duration":103022,"SoundDuration":103022,"Delta":63157796},{"NoteNumber":74,"Velocity":66,"Duration":413341,"SoundDuration":413341,"Delta":63260818},{"NoteNumber":67,"Velocity":40,"Duration":101978,"SoundDuration":101978,"Delta":63361760},{"NoteNumber":60,"Velocity":44,"Duration":103734,"SoundDuration":103734,"Delta":63463739},{"NoteNumber":64,"Velocity":37,"Duration":106685,"SoundDuration":106685,"Delta":63567473},{"NoteNumber":76,"Velocity":71,"Duration":417518,"SoundDuration":417518,"Delta":63674159},{"NoteNumber":67,"Velocity":45,"Duration":106307,"SoundDuration":106307,"Delta":63777536},{"NoteNumber":60,"Velocity":54,"Duration":103377,"SoundDuration":103377,"Delta":63883843},{"NoteNumber":64,"Velocity":45,"Duration":104456,"SoundDuration":104456,"Delta":63987220},{"NoteNumber":76,"Velocity":69,"Duration":409703,"SoundDuration":409703,"Delta":64091677},{"NoteNumber":68,"Velocity":47,"Duration":103021,"SoundDuration":103021,"Delta":64192960},{"NoteNumber":60,"Velocity":56,"Duration":101282,"SoundDuration":101282,"Delta":64295982},{"NoteNumber":64,"Velocity":48,"Duration":104116,"SoundDuration":104116,"Delta":64397265},{"NoteNumber":76,"Velocity":73,"Duration":407930,"SoundDuration":407930,"Delta":64501381},{"NoteNumber":69,"Velocity":50,"Duration":103021,"SoundDuration":103021,"Delta":64602664},{"NoteNumber":60,"Velocity":58,"Duration":100603,"SoundDuration":100603,"Delta":64705686},{"NoteNumber":64,"Velocity":49,"Duration":103021,"SoundDuration":103021,"Delta":64806290},{"NoteNumber":76,"Velocity":66,"Duration":414128,"SoundDuration":414128,"Delta":64909312},{"NoteNumber":70,"Velocity":45,"Duration":101978,"SoundDuration":101978,"Delta":65010254},{"NoteNumber":59,"Velocity":53,"Duration":103734,"SoundDuration":103734,"Delta":65112232},{"NoteNumber":66,"Velocity":46,"Duration":107472,"SoundDuration":107472,"Delta":65215967},{"NoteNumber":75,"Velocity":71,"Duration":417518,"SoundDuration":417518,"Delta":65323440},{"NoteNumber":71,"Velocity":45,"Duration":106307,"SoundDuration":106307,"Delta":65426817},{"NoteNumber":47,"Velocity":62,"Duration":103376,"SoundDuration":103376,"Delta":65533124},{"NoteNumber":59,"Velocity":45,"Duration":104456,"SoundDuration":104456,"Delta":65636501},{"NoteNumber":71,"Velocity":72,"Duration":419711,"SoundDuration":419711,"Delta":65740958},{"NoteNumber":59,"Velocity":54,"Duration":106239,"SoundDuration":106239,"Delta":65842605},{"NoteNumber":43,"Velocity":69,"Duration":103669,"SoundDuration":103669,"Delta":65948845},{"NoteNumber":55,"Velocity":52,"Duration":108154,"SoundDuration":108154,"Delta":66052515},{"NoteNumber":71,"Velocity":78,"Duration":433627,"SoundDuration":433627,"Delta":66160670},{"NoteNumber":59,"Velocity":58,"Duration":110140,"SoundDuration":110140,"Delta":66265793},{"NoteNumber":42,"Velocity":71,"Duration":106997,"SoundDuration":106997,"Delta":66375933},{"NoteNumber":54,"Velocity":57,"Duration":111366,"SoundDuration":111366,"Delta":66482931},{"NoteNumber":71,"Velocity":83,"Duration":246852,"SoundDuration":246852,"Delta":66594297},{"NoteNumber":59,"Velocity":50,"Duration":27516,"SoundDuration":27516,"Delta":66709073},{"NoteNumber":59,"Velocity":66,"Duration":1066799,"SoundDuration":1066799,"Delta":66742092},{"NoteNumber":64,"Velocity":66,"Duration":1033780,"SoundDuration":1033780,"Delta":66775112},{"NoteNumber":67,"Velocity":66,"Duration":1000761,"SoundDuration":1000761,"Delta":66808131},{"NoteNumber":71,"Velocity":83,"Duration":967742,"SoundDuration":967742,"Delta":66841150},{"NoteNumber":40,"Velocity":71,"Duration":967742,"SoundDuration":967742,"Delta":66841150},{"NoteNumber":52,"Velocity":71,"Duration":967742,"SoundDuration":967742,"Delta":66841150},{"NoteNumber":71,"Velocity":37,"Duration":107380,"SoundDuration":107380,"Delta":67808892},{"NoteNumber":67,"Velocity":22,"Duration":110955,"SoundDuration":110955,"Delta":67916273},{"NoteNumber":64,"Velocity":28,"Duration":105492,"SoundDuration":105492,"Delta":68027228},{"NoteNumber":67,"Velocity":21,"Duration":108940,"SoundDuration":108940,"Delta":68132721},{"NoteNumber":71,"Velocity":37,"Duration":104391,"SoundDuration":104391,"Delta":68241661},{"NoteNumber":67,"Velocity":22,"Duration":106997,"SoundDuration":106997,"Delta":68346052},{"NoteNumber":64,"Velocity":30,"Duration":104029,"SoundDuration":104029,"Delta":68453050},{"NoteNumber":67,"Velocity":25,"Duration":117187,"SoundDuration":117187,"Delta":68557080},{"NoteNumber":79,"Velocity":58,"Duration":416585,"SoundDuration":416585,"Delta":68674267},{"NoteNumber":71,"Velocity":23,"Duration":105263,"SoundDuration":105263,"Delta":68777937},{"NoteNumber":64,"Velocity":36,"Duration":102389,"SoundDuration":102389,"Delta":68883200},{"NoteNumber":67,"Velocity":29,"Duration":105263,"SoundDuration":105263,"Delta":68985589},{"NoteNumber":79,"Velocity":57,"Duration":414616,"SoundDuration":414616,"Delta":69090853},{"NoteNumber":71,"Velocity":28,"Duration":101978,"SoundDuration":101978,"Delta":69192893},{"NoteNumber":63,"Velocity":36,"Duration":99953,"SoundDuration":99953,"Delta":69294872},{"NoteNumber":69,"Velocity":29,"Duration":110643,"SoundDuration":110643,"Delta":69394825},{"NoteNumber":79,"Velocity":64,"Duration":403831,"SoundDuration":403831,"Delta":69505469},{"NoteNumber":71,"Velocity":29,"Duration":101681,"SoundDuration":101681,"Delta":69605985},{"NoteNumber":63,"Velocity":37,"Duration":99953,"SoundDuration":99953,"Delta":69707666},{"NoteNumber":69,"Velocity":30,"Duration":101681,"SoundDuration":101681,"Delta":69807620},{"NoteNumber":78,"Velocity":55,"Duration":403155,"SoundDuration":403155,"Delta":69909301},{"NoteNumber":71,"Velocity":28,"Duration":101098,"SoundDuration":101098,"Delta":70009723},{"NoteNumber":63,"Velocity":37,"Duration":99953,"SoundDuration":99953,"Delta":70110822},{"NoteNumber":69,"Velocity":30,"Duration":101681,"SoundDuration":101681,"Delta":70210775},{"NoteNumber":77,"Velocity":56,"Duration":402105,"SoundDuration":402105,"Delta":70312456},{"NoteNumber":71,"Velocity":28,"Duration":100806,"SoundDuration":100806,"Delta":70412409},{"NoteNumber":63,"Velocity":37,"Duration":99953,"SoundDuration":99953,"Delta":70513216},{"NoteNumber":69,"Velocity":30,"Duration":101392,"SoundDuration":101392,"Delta":70613169},{"NoteNumber":78,"Velocity":62,"Duration":429571,"SoundDuration":429571,"Delta":70714562},{"NoteNumber":71,"Velocity":28,"Duration":102690,"SoundDuration":102690,"Delta":70814515},{"NoteNumber":64,"Velocity":36,"Duration":107472,"SoundDuration":107472,"Delta":70917205},{"NoteNumber":67,"Velocity":29,"Duration":119455,"SoundDuration":119455,"Delta":71024678},{"NoteNumber":84,"Velocity":69,"Duration":403831,"SoundDuration":403831,"Delta":71144134},{"NoteNumber":71,"Velocity":38,"Duration":101681,"SoundDuration":101681,"Delta":71244650},{"NoteNumber":64,"Velocity":45,"Duration":99953,"SoundDuration":99953,"Delta":71346331},{"NoteNumber":67,"Velocity":39,"Duration":101681,"SoundDuration":101681,"Delta":71446284},{"NoteNumber":83,"Velocity":66,"Duration":403155,"SoundDuration":403155,"Delta":71547965},{"NoteNumber":71,"Velocity":35,"Duration":101098,"SoundDuration":101098,"Delta":71648388},{"NoteNumber":64,"Velocity":43,"Duration":99953,"SoundDuration":99953,"Delta":71749486},{"NoteNumber":67,"Velocity":35,"Duration":101681,"SoundDuration":101681,"Delta":71849439},{"NoteNumber":79,"Velocity":57,"Duration":402105,"SoundDuration":402105,"Delta":71951121},{"NoteNumber":71,"Velocity":28,"Duration":100806,"SoundDuration":100806,"Delta":72051074},{"NoteNumber":64,"Velocity":37,"Duration":99953,"SoundDuration":99953,"Delta":72151880},{"NoteNumber":67,"Velocity":30,"Duration":101392,"SoundDuration":101392,"Delta":72251834},{"NoteNumber":76,"Velocity":57,"Duration":405441,"SoundDuration":405441,"Delta":72353226},{"NoteNumber":71,"Velocity":28,"Duration":99953,"SoundDuration":99953,"Delta":72453179},{"NoteNumber":63,"Velocity":36,"Duration":99953,"SoundDuration":99953,"Delta":72553133},{"NoteNumber":69,"Velocity":29,"Duration":105581,"SoundDuration":105581,"Delta":72653086},{"NoteNumber":79,"Velocity":64,"Duration":403831,"SoundDuration":403831,"Delta":72758668},{"NoteNumber":71,"Velocity":36,"Duration":101681,"SoundDuration":101681,"Delta":72859184},{"NoteNumber":63,"Velocity":41,"Duration":99953,"SoundDuration":99953,"Delta":72960865},{"NoteNumber":69,"Velocity":34,"Duration":101681,"SoundDuration":101681,"Delta":73060818},{"NoteNumber":78,"Velocity":63,"Duration":405229,"SoundDuration":405229,"Delta":73162499},{"NoteNumber":71,"Velocity":34,"Duration":101098,"SoundDuration":101098,"Delta":73262922},{"NoteNumber":63,"Velocity":40,"Duration":99953,"SoundDuration":99953,"Delta":73364020},{"NoteNumber":69,"Velocity":35,"Duration":103756,"SoundDuration":103756,"Delta":73463973},{"NoteNumber":77,"Velocity":57,"Duration":411151,"SoundDuration":411151,"Delta":73567729},{"NoteNumber":71,"Velocity":28,"Duration":103756,"SoundDuration":103756,"Delta":73669376},{"NoteNumber":63,"Velocity":37,"Duration":101992,"SoundDuration":101992,"Delta":73773132},{"NoteNumber":69,"Velocity":30,"Duration":103756,"SoundDuration":103756,"Delta":73875124},{"NoteNumber":78,"Velocity":57,"Duration":439504,"SoundDuration":439504,"Delta":73978880},{"NoteNumber":71,"Velocity":28,"Duration":106383,"SoundDuration":106383,"Delta":74085263},{"NoteNumber":64,"Velocity":36,"Duration":109091,"SoundDuration":109091,"Delta":74191646},{"NoteNumber":67,"Velocity":29,"Duration":117647,"SoundDuration":117647,"Delta":74300737},{"NoteNumber":79,"Velocity":64,"Duration":416532,"SoundDuration":416532,"Delta":74418384},{"NoteNumber":71,"Velocity":36,"Duration":103734,"SoundDuration":103734,"Delta":74524692},{"NoteNumber":64,"Velocity":41,"Duration":101646,"SoundDuration":101646,"Delta":74628426},{"NoteNumber":67,"Velocity":34,"Duration":104843,"SoundDuration":104843,"Delta":74730073},{"NoteNumber":79,"Velocity":63,"Duration":406669,"SoundDuration":406669,"Delta":74834917},{"NoteNumber":71,"Velocity":39,"Duration":103043,"SoundDuration":103043,"Delta":74936909},{"NoteNumber":62,"Velocity":47,"Duration":99953,"SoundDuration":99953,"Delta":75039952},{"NoteNumber":65,"Velocity":40,"Duration":101681,"SoundDuration":101681,"Delta":75139906},{"NoteNumber":80,"Velocity":70,"Duration":402105,"SoundDuration":402105,"Delta":75241587},{"NoteNumber":71,"Velocity":45,"Duration":100806,"SoundDuration":100806,"Delta":75341540},{"NoteNumber":62,"Velocity":54,"Duration":99953,"SoundDuration":99953,"Delta":75442347},{"NoteNumber":65,"Velocity":47,"Duration":101392,"SoundDuration":101392,"Delta":75542300},{"NoteNumber":80,"Velocity":70,"Duration":416849,"SoundDuration":416849,"Delta":75643692},{"NoteNumber":71,"Velocity":47,"Duration":99953,"SoundDuration":99953,"Delta":75743646},{"NoteNumber":60,"Velocity":54,"Duration":101282,"SoundDuration":101282,"Delta":75843599},{"NoteNumber":64,"Velocity":46,"Duration":115660,"SoundDuration":115660,"Delta":75944882},{"NoteNumber":81,"Velocity":69,"Duration":403831,"SoundDuration":403831,"Delta":76060542},{"NoteNumber":69,"Velocity":36,"Duration":101681,"SoundDuration":101681,"Delta":76161058},{"NoteNumber":60,"Velocity":41,"Duration":99953,"SoundDuration":99953,"Delta":76262740},{"NoteNumber":64,"Velocity":34,"Duration":101681,"SoundDuration":101681,"Delta":76362693},{"NoteNumber":76,"Velocity":63,"Duration":403155,"SoundDuration":403155,"Delta":76464374},{"NoteNumber":69,"Velocity":34,"Duration":101098,"SoundDuration":101098,"Delta":76564796},{"NoteNumber":60,"Velocity":40,"Duration":99953,"SoundDuration":99953,"Delta":76665895},{"NoteNumber":64,"Velocity":35,"Duration":101681,"SoundDuration":101681,"Delta":76765848},{"NoteNumber":75,"Velocity":57,"Duration":402105,"SoundDuration":402105,"Delta":76867529},{"NoteNumber":69,"Velocity":28,"Duration":100806,"SoundDuration":100806,"Delta":76967483},{"NoteNumber":60,"Velocity":37,"Duration":99953,"SoundDuration":99953,"Delta":77068289},{"NoteNumber":64,"Velocity":30,"Duration":101392,"SoundDuration":101392,"Delta":77168242},{"NoteNumber":76,"Velocity":57,"Duration":424129,"SoundDuration":424129,"Delta":77269635},{"NoteNumber":69,"Velocity":28,"Duration":101646,"SoundDuration":101646,"Delta":77371282},{"NoteNumber":59,"Velocity":36,"Duration":105954,"SoundDuration":105954,"Delta":77472928},{"NoteNumber":64,"Velocity":29,"Duration":114880,"SoundDuration":114880,"Delta":77578883},{"NoteNumber":79,"Velocity":64,"Duration":409406,"SoundDuration":409406,"Delta":77693764},{"NoteNumber":71,"Velocity":41,"Duration":103756,"SoundDuration":103756,"Delta":77795068},{"NoteNumber":59,"Velocity":47,"Duration":101303,"SoundDuration":101303,"Delta":77898824},{"NoteNumber":69,"Velocity":41,"Duration":103043,"SoundDuration":103043,"Delta":78000127},{"NoteNumber":78,"Velocity":63,"Duration":403155,"SoundDuration":403155,"Delta":78103170},{"NoteNumber":71,"Velocity":34,"Duration":101098,"SoundDuration":101098,"Delta":78203592},{"NoteNumber":59,"Velocity":40,"Duration":99953,"SoundDuration":99953,"Delta":78304691},{"NoteNumber":67,"Velocity":35,"Duration":101681,"SoundDuration":101681,"Delta":78404644},{"NoteNumber":76,"Velocity":57,"Duration":402105,"SoundDuration":402105,"Delta":78506325},{"NoteNumber":71,"Velocity":28,"Duration":100806,"SoundDuration":100806,"Delta":78606279},{"NoteNumber":59,"Velocity":37,"Duration":99953,"SoundDuration":99953,"Delta":78707085},{"NoteNumber":66,"Velocity":30,"Duration":101392,"SoundDuration":101392,"Delta":78807038},{"NoteNumber":75,"Velocity":57,"Duration":406167,"SoundDuration":406167,"Delta":78908431},{"NoteNumber":71,"Velocity":28,"Duration":99953,"SoundDuration":99953,"Delta":79008384},{"NoteNumber":64,"Velocity":36,"Duration":99953,"SoundDuration":99953,"Delta":79108337},{"NoteNumber":67,"Velocity":29,"Duration":106307,"SoundDuration":106307,"Delta":79208291},{"NoteNumber":76,"Velocity":55,"Duration":411443,"SoundDuration":411443,"Delta":79314598},{"NoteNumber":71,"Velocity":33,"Duration":103734,"SoundDuration":103734,"Delta":79416224},{"NoteNumber":64,"Velocity":36,"Duration":101625,"SoundDuration":101625,"Delta":79519959},{"NoteNumber":67,"Velocity":29,"Duration":104456,"SoundDuration":104456,"Delta":79621585},{"NoteNumber":76,"Velocity":61,"Duration":412013,"SoundDuration":412013,"Delta":79726041},{"NoteNumber":71,"Velocity":40,"Duration":104094,"SoundDuration":104094,"Delta":79826800},{"NoteNumber":64,"Velocity":45,"Duration":101971,"SoundDuration":101971,"Delta":79930895},{"NoteNumber":69,"Velocity":41,"Duration":105189,"SoundDuration":105189,"Delta":80032866},{"NoteNumber":76,"Velocity":64,"Duration":425504,"SoundDuration":425504,"Delta":80138055},{"NoteNumber":72,"Velocity":47,"Duration":107859,"SoundDuration":107859,"Delta":80241454},{"NoteNumber":64,"Velocity":51,"Duration":105211,"SoundDuration":105211,"Delta":80349313},{"NoteNumber":66,"Velocity":45,"Duration":109035,"SoundDuration":109035,"Delta":80454524},{"NoteNumber":76,"Velocity":58,"Duration":423681,"SoundDuration":423681,"Delta":80563560},{"NoteNumber":69,"Velocity":33,"Duration":111466,"SoundDuration":111466,"Delta":80669515},{"NoteNumber":64,"Velocity":36,"Duration":99953,"SoundDuration":99953,"Delta":80780981},{"NoteNumber":67,"Velocity":29,"Duration":106307,"SoundDuration":106307,"Delta":80880934},{"NoteNumber":76,"Velocity":54,"Duration":411443,"SoundDuration":411443,"Delta":80987242},{"NoteNumber":71,"Velocity":34,"Duration":103734,"SoundDuration":103734,"Delta":81088868},{"NoteNumber":64,"Velocity":40,"Duration":101625,"SoundDuration":101625,"Delta":81192602},{"NoteNumber":67,"Velocity":33,"Duration":104456,"SoundDuration":104456,"Delta":81294228},{"NoteNumber":76,"Velocity":56,"Duration":412013,"SoundDuration":412013,"Delta":81398685},{"NoteNumber":71,"Velocity":40,"Duration":104094,"SoundDuration":104094,"Delta":81499443},{"NoteNumber":64,"Velocity":48,"Duration":101971,"SoundDuration":101971,"Delta":81603538},{"NoteNumber":69,"Velocity":43,"Duration":105189,"SoundDuration":105189,"Delta":81705509},{"NoteNumber":76,"Velocity":61,"Duration":425504,"SoundDuration":425504,"Delta":81810699},{"NoteNumber":72,"Velocity":43,"Duration":107859,"SoundDuration":107859,"Delta":81914097},{"NoteNumber":64,"Velocity":55,"Duration":105211,"SoundDuration":105211,"Delta":82021956},{"NoteNumber":66,"Velocity":47,"Duration":109035,"SoundDuration":109035,"Delta":82127168},{"NoteNumber":76,"Velocity":57,"Duration":423681,"SoundDuration":423681,"Delta":82236203},{"NoteNumber":69,"Velocity":41,"Duration":111466,"SoundDuration":111466,"Delta":82342158},{"NoteNumber":64,"Velocity":45,"Duration":99953,"SoundDuration":99953,"Delta":82453624},{"NoteNumber":67,"Velocity":36,"Duration":106307,"SoundDuration":106307,"Delta":82553577},{"NoteNumber":76,"Velocity":63,"Duration":411443,"SoundDuration":411443,"Delta":82659885},{"NoteNumber":71,"Velocity":41,"Duration":103734,"SoundDuration":103734,"Delta":82761511},{"NoteNumber":64,"Velocity":45,"Duration":101625,"SoundDuration":101625,"Delta":82865245},{"NoteNumber":67,"Velocity":36,"Duration":104456,"SoundDuration":104456,"Delta":82966871},{"NoteNumber":71,"Velocity":66,"Duration":410991,"SoundDuration":410991,"Delta":83071328},{"NoteNumber":67,"Velocity":44,"Duration":104094,"SoundDuration":104094,"Delta":83172087},{"NoteNumber":59,"Velocity":51,"Duration":100948,"SoundDuration":100948,"Delta":83276181},{"NoteNumber":64,"Velocity":42,"Duration":105189,"SoundDuration":105189,"Delta":83377130},{"NoteNumber":67,"Velocity":70,"Duration":412759,"SoundDuration":412759,"Delta":83482319},{"NoteNumber":64,"Velocity":46,"Duration":104029,"SoundDuration":104029,"Delta":83583200},{"NoteNumber":55,"Velocity":54,"Duration":101909,"SoundDuration":101909,"Delta":83687230},{"NoteNumber":59,"Velocity":45,"Duration":105939,"SoundDuration":105939,"Delta":83789139},{"NoteNumber":64,"Velocity":64,"Duration":416013,"SoundDuration":416013,"Delta":83895079},{"NoteNumber":59,"Velocity":49,"Duration":107843,"SoundDuration":107843,"Delta":83996988},{"NoteNumber":52,"Velocity":54,"Duration":99953,"SoundDuration":99953,"Delta":84104831},{"NoteNumber":55,"Velocity":47,"Duration":106307,"SoundDuration":106307,"Delta":84204785},{"NoteNumber":59,"Velocity":63,"Duration":408605,"SoundDuration":408605,"Delta":84311092},{"NoteNumber":55,"Velocity":53,"Duration":103734,"SoundDuration":103734,"Delta":84411299},{"NoteNumber":52,"Velocity":59,"Duration":100206,"SoundDuration":100206,"Delta":84515034},{"NoteNumber":55,"Velocity":47,"Duration":104456,"SoundDuration":104456,"Delta":84615241},{"NoteNumber":59,"Velocity":65,"Duration":408730,"SoundDuration":408730,"Delta":84719697},{"NoteNumber":55,"Velocity":53,"Duration":104094,"SoundDuration":104094,"Delta":84820456},{"NoteNumber":47,"Velocity":59,"Duration":100206,"SoundDuration":100206,"Delta":84924551},{"NoteNumber":52,"Velocity":47,"Duration":103669,"SoundDuration":103669,"Delta":85024758},{"NoteNumber":55,"Velocity":68,"Duration":416275,"SoundDuration":416275,"Delta":85128428},{"NoteNumber":52,"Velocity":53,"Duration":107859,"SoundDuration":107859,"Delta":85228971},{"NoteNumber":43,"Velocity":59,"Duration":102676,"SoundDuration":102676,"Delta":85336830},{"NoteNumber":47,"Velocity":56,"Duration":105196,"SoundDuration":105196,"Delta":85439506},{"NoteNumber":52,"Velocity":63,"Duration":208991,"SoundDuration":208991,"Delta":85544703},{"NoteNumber":47,"Velocity":49,"Duration":106314,"SoundDuration":106314,"Delta":85647380},{"NoteNumber":40,"Velocity":74,"Duration":411621,"SoundDuration":411621,"Delta":85753695},{"NoteNumber":43,"Velocity":33,"Duration":106307,"SoundDuration":106307,"Delta":85853648},{"NoteNumber":47,"Velocity":54,"Duration":101625,"SoundDuration":101625,"Delta":85959955},{"NoteNumber":43,"Velocity":34,"Duration":103734,"SoundDuration":103734,"Delta":86061581},{"NoteNumber":40,"Velocity":67,"Duration":410935,"SoundDuration":410935,"Delta":86165316},{"NoteNumber":43,"Velocity":33,"Duration":104456,"SoundDuration":104456,"Delta":86266942},{"NoteNumber":47,"Velocity":51,"Duration":100758,"SoundDuration":100758,"Delta":86371399},{"NoteNumber":43,"Velocity":37,"Duration":104094,"SoundDuration":104094,"Delta":86472157},{"NoteNumber":40,"Velocity":66,"Duration":427773,"SoundDuration":427773,"Delta":86576252},{"NoteNumber":43,"Velocity":33,"Duration":108154,"SoundDuration":108154,"Delta":86678223},{"NoteNumber":47,"Velocity":56,"Duration":105864,"SoundDuration":105864,"Delta":86786378},{"NoteNumber":43,"Velocity":38,"Duration":111781,"SoundDuration":111781,"Delta":86892243},{"NoteNumber":40,"Velocity":70,"Duration":468777,"SoundDuration":468777,"Delta":87004025},{"NoteNumber":43,"Velocity":33,"Duration":115216,"SoundDuration":115216,"Delta":87112965},{"NoteNumber":47,"Velocity":57,"Duration":119817,"SoundDuration":119817,"Delta":87228181},{"NoteNumber":43,"Velocity":38,"Duration":124802,"SoundDuration":124802,"Delta":87347999},{"NoteNumber":40,"Velocity":83,"Duration":499210,"SoundDuration":499210,"Delta":87472802},{"NoteNumber":67,"Velocity":70,"Duration":249605,"SoundDuration":249605,"Delta":88471222},{"NoteNumber":71,"Velocity":70,"Duration":249605,"SoundDuration":249605,"Delta":88471222},{"NoteNumber":76,"Velocity":70,"Duration":249605,"SoundDuration":249605,"Delta":88471222},{"NoteNumber":79,"Velocity":88,"Duration":249605,"SoundDuration":249605,"Delta":88471222},{"NoteNumber":64,"Velocity":82,"Duration":249605,"SoundDuration":249605,"Delta":88471222},{"NoteNumber":59,"Velocity":65,"Duration":249605,"SoundDuration":249605,"Delta":88471222},{"NoteNumber":52,"Velocity":65,"Duration":249605,"SoundDuration":249605,"Delta":88471222},{"NoteNumber":52,"Velocity":92,"Duration":998420,"SoundDuration":998420,"Delta":89469642},{"NoteNumber":40,"Velocity":88,"Duration":998420,"SoundDuration":998420,"Delta":89469642},{"NoteNumber":28,"Velocity":70,"Duration":998420,"SoundDuration":998420,"Delta":89469642}],"license":{"name":"Creative Commons Attribution-ShareAlike 3.0 Germany","url":"http://creativecommons.org/licenses/by-sa/3.0/de/deed.en","text":"The MIDI, audio (MP3, OGG) and video files of Bernd Krueger are licensed under the cc-by-sa Germany License. This means that you can use and adapt the files, as long as you attribute the copyright holder.\n\nName: Bernd Krueger\nSource: http://www.piano-midi.de\n\nThe distribution or public playback of the files is only allowed under identical license conditions.\n\nThe scores are open source.","attribution":"MIDI files by Bernd Krueger (piano-midi.de)"}}