{"title":"Air suisse (Original)","artist":"Piano","durationMs":106705,"midiSha256":"6669715400cc94df1cb0aeb5a4c48c9e3ea7412269743c44c3fbac2e77d99a21","midiObject":[{"NoteNumber":72,"Velocity":34,"Duration":60689,"SoundDuration":60689,"Delta":0},{"NoteNumber":74,"Velocity":34,"Duration":60689,"SoundDuration":60689,"Delta":60689},{"NoteNumber":76,"Velocity":40,"Duration":855621,"SoundDuration":855621,"Delta":121378},{"NoteNumber":48,"Velocity":30,"Duration":428818,"SoundDuration":428818,"Delta":121378},{"NoteNumber":55,"Velocity":24,"Duration":426803,"SoundDuration":426803,"Delta":550197},{"NoteNumber":76,"Velocity":40,"Duration":103036,"SoundDuration":103036,"Delta":977000},{"NoteNumber":60,"Velocity":24,"Duration":412144,"SoundDuration":412144,"Delta":977000},{"NoteNumber":74,"Velocity":35,"Duration":103036,"SoundDuration":103036,"Delta":1080036},{"NoteNumber":72,"Velocity":35,"Duration":103036,"SoundDuration":103036,"Delta":1183073},{"NoteNumber":74,"Velocity":35,"Duration":103036,"SoundDuration":103036,"Delta":1286109},{"NoteNumber":72,"Velocity":40,"Duration":853606,"SoundDuration":853606,"Delta":1389145},{"NoteNumber":48,"Velocity":30,"Duration":426803,"SoundDuration":426803,"Delta":1389145},{"NoteNumber":55,"Velocity":25,"Duration":426803,"SoundDuration":426803,"Delta":1815948},{"NoteNumber":76,"Velocity":37,"Duration":426802,"SoundDuration":426802,"Delta":2242751},{"NoteNumber":60,"Velocity":25,"Duration":426802,"SoundDuration":426802,"Delta":2242751},{"NoteNumber":74,"Velocity":40,"Duration":109825,"SoundDuration":109825,"Delta":2669554},{"NoteNumber":48,"Velocity":30,"Duration":439302,"SoundDuration":439302,"Delta":2669554},{"NoteNumber":74,"Velocity":40,"Duration":206072,"SoundDuration":206072,"Delta":3108857},{"NoteNumber":55,"Velocity":25,"Duration":412144,"SoundDuration":412144,"Delta":3108857},{"NoteNumber":71,"Velocity":34,"Duration":206072,"SoundDuration":206072,"Delta":3314929},{"NoteNumber":72,"Velocity":37,"Duration":213401,"SoundDuration":213401,"Delta":3521001},{"NoteNumber":60,"Velocity":25,"Duration":426803,"SoundDuration":426803,"Delta":3521001},{"NoteNumber":76,"Velocity":35,"Duration":213401,"SoundDuration":213401,"Delta":3734403},{"NoteNumber":74,"Velocity":40,"Duration":110635,"SoundDuration":110635,"Delta":3947804},{"NoteNumber":48,"Velocity":30,"Duration":442543,"SoundDuration":442543,"Delta":3947804},{"NoteNumber":74,"Velocity":37,"Duration":204666,"SoundDuration":204666,"Delta":4390347},{"NoteNumber":55,"Velocity":26,"Duration":409333,"SoundDuration":409333,"Delta":4390347},{"NoteNumber":71,"Velocity":34,"Duration":204666,"SoundDuration":204666,"Delta":4595014},{"NoteNumber":72,"Velocity":37,"Duration":213401,"SoundDuration":213401,"Delta":4799680},{"NoteNumber":60,"Velocity":26,"Duration":426802,"SoundDuration":426802,"Delta":4799680},{"NoteNumber":76,"Velocity":33,"Duration":213401,"SoundDuration":213401,"Delta":5013082},{"NoteNumber":74,"Velocity":40,"Duration":109825,"SoundDuration":109825,"Delta":5226483},{"NoteNumber":48,"Velocity":30,"Duration":439302,"SoundDuration":439302,"Delta":5226483},{"NoteNumber":74,"Velocity":39,"Duration":207497,"SoundDuration":207497,"Delta":5665786},{"NoteNumber":55,"Velocity":25,"Duration":414995,"SoundDuration":414995,"Delta":5665786},{"NoteNumber":71,"Velocity":37,"Duration":207497,"SoundDuration":207497,"Delta":5873284},{"NoteNumber":72,"Velocity":38,"Duration":211894,"SoundDuration":211894,"Delta":6080781},{"NoteNumber":60,"Velocity":25,"Duration":423788,"SoundDuration":423788,"Delta":6080781},{"NoteNumber":76,"Velocity":35,"Duration":211894,"SoundDuration":211894,"Delta":6292676},{"NoteNumber":67,"Velocity":40,"Duration":1182451,"SoundDuration":1182451,"Delta":6504570},{"NoteNumber":43,"Velocity":30,"Duration":439302,"SoundDuration":439302,"Delta":6504570},{"NoteNumber":55,"Velocity":32,"Duration":208196,"SoundDuration":208196,"Delta":6943873},{"NoteNumber":53,"Velocity":26,"Duration":210514,"SoundDuration":210514,"Delta":7152069},{"NoteNumber":52,"Velocity":31,"Duration":215144,"SoundDuration":215144,"Delta":7362583},{"NoteNumber":50,"Velocity":29,"Duration":219986,"SoundDuration":219986,"Delta":7577728},{"NoteNumber":72,"Velocity":34,"Duration":55155,"SoundDuration":55155,"Delta":7687021},{"NoteNumber":74,"Velocity":34,"Duration":108887,"SoundDuration":108887,"Delta":7742177},{"NoteNumber":76,"Velocity":40,"Duration":853606,"SoundDuration":853606,"Delta":7797714},{"NoteNumber":48,"Velocity":30,"Duration":426802,"SoundDuration":426802,"Delta":7797714},{"NoteNumber":55,"Velocity":24,"Duration":426803,"SoundDuration":426803,"Delta":8224517},{"NoteNumber":76,"Velocity":40,"Duration":103036,"SoundDuration":103036,"Delta":8651320},{"NoteNumber":60,"Velocity":24,"Duration":412144,"SoundDuration":412144,"Delta":8651320},{"NoteNumber":74,"Velocity":35,"Duration":103036,"SoundDuration":103036,"Delta":8754356},{"NoteNumber":72,"Velocity":35,"Duration":103036,"SoundDuration":103036,"Delta":8857393},{"NoteNumber":74,"Velocity":35,"Duration":103036,"SoundDuration":103036,"Delta":8960429},{"NoteNumber":72,"Velocity":40,"Duration":853605,"SoundDuration":853605,"Delta":9063465},{"NoteNumber":48,"Velocity":30,"Duration":426802,"SoundDuration":426802,"Delta":9063465},{"NoteNumber":55,"Velocity":25,"Duration":426802,"SoundDuration":426802,"Delta":9490268},{"NoteNumber":76,"Velocity":37,"Duration":426803,"SoundDuration":426803,"Delta":9917071},{"NoteNumber":60,"Velocity":25,"Duration":426803,"SoundDuration":426803,"Delta":9917071},{"NoteNumber":74,"Velocity":40,"Duration":109027,"SoundDuration":109027,"Delta":10343874},{"NoteNumber":48,"Velocity":30,"Duration":436109,"SoundDuration":436109,"Delta":10343874},{"NoteNumber":74,"Velocity":40,"Duration":207497,"SoundDuration":207497,"Delta":10779984},{"NoteNumber":55,"Velocity":25,"Duration":414994,"SoundDuration":414994,"Delta":10779984},{"NoteNumber":71,"Velocity":34,"Duration":207497,"SoundDuration":207497,"Delta":10987481},{"NoteNumber":72,"Velocity":37,"Duration":214930,"SoundDuration":214930,"Delta":11194979},{"NoteNumber":60,"Velocity":25,"Duration":429861,"SoundDuration":429861,"Delta":11194979},{"NoteNumber":76,"Velocity":35,"Duration":214930,"SoundDuration":214930,"Delta":11409909},{"NoteNumber":74,"Velocity":40,"Duration":109825,"SoundDuration":109825,"Delta":11624840},{"NoteNumber":48,"Velocity":30,"Duration":439303,"SoundDuration":439303,"Delta":11624840},{"NoteNumber":76,"Velocity":35,"Duration":54912,"SoundDuration":54912,"Delta":12009230},{"NoteNumber":74,"Velocity":37,"Duration":208942,"SoundDuration":208942,"Delta":12064143},{"NoteNumber":53,"Velocity":26,"Duration":417885,"SoundDuration":417885,"Delta":12064143},{"NoteNumber":72,"Velocity":34,"Duration":208942,"SoundDuration":208942,"Delta":12273086},{"NoteNumber":74,"Velocity":37,"Duration":214930,"SoundDuration":214930,"Delta":12482028},{"NoteNumber":59,"Velocity":26,"Duration":429861,"SoundDuration":429861,"Delta":12482028},{"NoteNumber":76,"Velocity":33,"Duration":214930,"SoundDuration":214930,"Delta":12696959},{"NoteNumber":74,"Velocity":40,"Duration":110635,"SoundDuration":110635,"Delta":12911889},{"NoteNumber":48,"Velocity":30,"Duration":442543,"SoundDuration":442543,"Delta":12911889},{"NoteNumber":76,"Velocity":35,"Duration":55317,"SoundDuration":55317,"Delta":13299114},{"NoteNumber":74,"Velocity":39,"Duration":208942,"SoundDuration":208942,"Delta":13354432},{"NoteNumber":53,"Velocity":25,"Duration":417885,"SoundDuration":417885,"Delta":13354432},{"NoteNumber":72,"Velocity":37,"Duration":208942,"SoundDuration":208942,"Delta":13563375},{"NoteNumber":74,"Velocity":38,"Duration":214930,"SoundDuration":214930,"Delta":13772318},{"NoteNumber":59,"Velocity":25,"Duration":429861,"SoundDuration":429861,"Delta":13772318},{"NoteNumber":76,"Velocity":35,"Duration":214930,"SoundDuration":214930,"Delta":13987248},{"NoteNumber":72,"Velocity":40,"Duration":1182117,"SoundDuration":1182117,"Delta":14202179},{"NoteNumber":60,"Velocity":30,"Duration":429860,"SoundDuration":429860,"Delta":14202179},{"NoteNumber":48,"Velocity":26,"Duration":429860,"SoundDuration":429860,"Delta":14202179},{"NoteNumber":52,"Velocity":22,"Duration":429861,"SoundDuration":429861,"Delta":14632040},{"NoteNumber":55,"Velocity":18,"Duration":429860,"SoundDuration":429860,"Delta":15061901},{"NoteNumber":72,"Velocity":27,"Duration":53732,"SoundDuration":53732,"Delta":15384297},{"NoteNumber":74,"Velocity":27,"Duration":53732,"SoundDuration":53732,"Delta":15438029},{"NoteNumber":76,"Velocity":32,"Duration":859721,"SoundDuration":859721,"Delta":15491762},{"NoteNumber":48,"Velocity":19,"Duration":429861,"SoundDuration":429861,"Delta":15491762},{"NoteNumber":55,"Velocity":15,"Duration":429860,"SoundDuration":429860,"Delta":15921623},{"NoteNumber":76,"Velocity":32,"Duration":103748,"SoundDuration":103748,"Delta":16351484},{"NoteNumber":60,"Velocity":15,"Duration":414995,"SoundDuration":414995,"Delta":16351484},{"NoteNumber":74,"Velocity":28,"Duration":103748,"SoundDuration":103748,"Delta":16455233},{"NoteNumber":72,"Velocity":28,"Duration":103748,"SoundDuration":103748,"Delta":16558981},{"NoteNumber":74,"Velocity":28,"Duration":103748,"SoundDuration":103748,"Delta":16662730},{"NoteNumber":72,"Velocity":32,"Duration":859722,"SoundDuration":859722,"Delta":16766479},{"NoteNumber":48,"Velocity":19,"Duration":429860,"SoundDuration":429860,"Delta":16766479},{"NoteNumber":55,"Velocity":16,"Duration":429861,"SoundDuration":429861,"Delta":17196340},{"NoteNumber":76,"Velocity":29,"Duration":429860,"SoundDuration":429860,"Delta":17626201},{"NoteNumber":60,"Velocity":16,"Duration":429860,"SoundDuration":429860,"Delta":17626201},{"NoteNumber":74,"Velocity":32,"Duration":112292,"SoundDuration":112292,"Delta":18056062},{"NoteNumber":48,"Velocity":19,"Duration":449169,"SoundDuration":449169,"Delta":18056062},{"NoteNumber":74,"Velocity":32,"Duration":207497,"SoundDuration":207497,"Delta":18505231},{"NoteNumber":55,"Velocity":16,"Duration":414995,"SoundDuration":414995,"Delta":18505231},{"NoteNumber":71,"Velocity":27,"Duration":207497,"SoundDuration":207497,"Delta":18712728},{"NoteNumber":72,"Velocity":29,"Duration":216481,"SoundDuration":216481,"Delta":18920226},{"NoteNumber":60,"Velocity":16,"Duration":432963,"SoundDuration":432963,"Delta":18920226},{"NoteNumber":76,"Velocity":28,"Duration":216481,"SoundDuration":216481,"Delta":19136707},{"NoteNumber":74,"Velocity":32,"Duration":110635,"SoundDuration":110635,"Delta":19353189},{"NoteNumber":48,"Velocity":19,"Duration":442543,"SoundDuration":442543,"Delta":19353189},{"NoteNumber":74,"Velocity":29,"Duration":208942,"SoundDuration":208942,"Delta":19795732},{"NoteNumber":55,"Velocity":16,"Duration":417885,"SoundDuration":417885,"Delta":19795732},{"NoteNumber":71,"Velocity":27,"Duration":208942,"SoundDuration":208942,"Delta":20004675},{"NoteNumber":72,"Velocity":29,"Duration":216481,"SoundDuration":216481,"Delta":20213617},{"NoteNumber":60,"Velocity":16,"Duration":432963,"SoundDuration":432963,"Delta":20213617},{"NoteNumber":76,"Velocity":26,"Duration":216481,"SoundDuration":216481,"Delta":20430099},{"NoteNumber":74,"Velocity":32,"Duration":110635,"SoundDuration":110635,"Delta":20646580},{"NoteNumber":48,"Velocity":19,"Duration":442543,"SoundDuration":442543,"Delta":20646580},{"NoteNumber":74,"Velocity":31,"Duration":210408,"SoundDuration":210408,"Delta":21089123},{"NoteNumber":55,"Velocity":16,"Duration":420816,"SoundDuration":420816,"Delta":21089123},{"NoteNumber":71,"Velocity":29,"Duration":210408,"SoundDuration":210408,"Delta":21299532},{"NoteNumber":72,"Velocity":30,"Duration":216481,"SoundDuration":216481,"Delta":21509940},{"NoteNumber":60,"Velocity":16,"Duration":432963,"SoundDuration":432963,"Delta":21509940},{"NoteNumber":76,"Velocity":28,"Duration":216481,"SoundDuration":216481,"Delta":21726421},{"NoteNumber":67,"Velocity":32,"Duration":1163949,"SoundDuration":1163949,"Delta":21942903},{"NoteNumber":43,"Velocity":36,"Duration":201827,"SoundDuration":201827,"Delta":21942903},{"NoteNumber":55,"Velocity":30,"Duration":205891,"SoundDuration":205891,"Delta":22144730},{"NoteNumber":45,"Velocity":40,"Duration":210317,"SoundDuration":210317,"Delta":22350622},{"NoteNumber":57,"Velocity":36,"Duration":214733,"SoundDuration":214733,"Delta":22560939},{"NoteNumber":47,"Velocity":44,"Duration":219552,"SoundDuration":219552,"Delta":22775673},{"NoteNumber":59,"Velocity":52,"Duration":224370,"SoundDuration":224370,"Delta":22995226},{"NoteNumber":72,"Velocity":51,"Duration":56174,"SoundDuration":56174,"Delta":23106852},{"NoteNumber":74,"Velocity":51,"Duration":56569,"SoundDuration":56569,"Delta":23163027},{"NoteNumber":76,"Velocity":64,"Duration":859722,"SoundDuration":859722,"Delta":23219596},{"NoteNumber":48,"Velocity":45,"Duration":429860,"SoundDuration":429860,"Delta":23219596},{"NoteNumber":55,"Velocity":36,"Duration":429861,"SoundDuration":429861,"Delta":23649457},{"NoteNumber":76,"Velocity":60,"Duration":103748,"SoundDuration":103748,"Delta":24079318},{"NoteNumber":60,"Velocity":36,"Duration":414995,"SoundDuration":414995,"Delta":24079318},{"NoteNumber":74,"Velocity":52,"Duration":103748,"SoundDuration":103748,"Delta":24183067},{"NoteNumber":72,"Velocity":52,"Duration":103748,"SoundDuration":103748,"Delta":24286816},{"NoteNumber":74,"Velocity":52,"Duration":103748,"SoundDuration":103748,"Delta":24390564},{"NoteNumber":72,"Velocity":60,"Duration":752256,"SoundDuration":752256,"Delta":24494313},{"NoteNumber":48,"Velocity":45,"Duration":429860,"SoundDuration":429860,"Delta":24494313},{"NoteNumber":55,"Velocity":37,"Duration":429861,"SoundDuration":429861,"Delta":24924174},{"NoteNumber":72,"Velocity":53,"Duration":53732,"SoundDuration":53732,"Delta":25246570},{"NoteNumber":74,"Velocity":56,"Duration":53732,"SoundDuration":53732,"Delta":25300303},{"NoteNumber":76,"Velocity":61,"Duration":429860,"SoundDuration":429860,"Delta":25354035},{"NoteNumber":60,"Velocity":37,"Duration":429860,"SoundDuration":429860,"Delta":25354035},{"NoteNumber":74,"Velocity":60,"Duration":112292,"SoundDuration":112292,"Delta":25783896},{"NoteNumber":48,"Velocity":45,"Duration":449169,"SoundDuration":449169,"Delta":25783896},{"NoteNumber":74,"Velocity":60,"Duration":206072,"SoundDuration":206072,"Delta":26233065},{"NoteNumber":55,"Velocity":37,"Duration":412144,"SoundDuration":412144,"Delta":26233065},{"NoteNumber":71,"Velocity":51,"Duration":206072,"SoundDuration":206072,"Delta":26439137},{"NoteNumber":72,"Velocity":55,"Duration":214930,"SoundDuration":214930,"Delta":26645210},{"NoteNumber":60,"Velocity":37,"Duration":429860,"SoundDuration":429860,"Delta":26645210},{"NoteNumber":76,"Velocity":52,"Duration":214930,"SoundDuration":214930,"Delta":26860140},{"NoteNumber":74,"Velocity":60,"Duration":111457,"SoundDuration":111457,"Delta":27075071},{"NoteNumber":48,"Velocity":45,"Duration":445831,"SoundDuration":445831,"Delta":27075071},{"NoteNumber":76,"Velocity":52,"Duration":55728,"SoundDuration":55728,"Delta":27465173},{"NoteNumber":74,"Velocity":55,"Duration":207497,"SoundDuration":207497,"Delta":27520902},{"NoteNumber":53,"Velocity":39,"Duration":414995,"SoundDuration":414995,"Delta":27520902},{"NoteNumber":72,"Velocity":51,"Duration":207497,"SoundDuration":207497,"Delta":27728400},{"NoteNumber":74,"Velocity":55,"Duration":214930,"SoundDuration":214930,"Delta":27935897},{"NoteNumber":59,"Velocity":39,"Duration":429860,"SoundDuration":429860,"Delta":27935897},{"NoteNumber":76,"Velocity":49,"Duration":214930,"SoundDuration":214930,"Delta":28150828},{"NoteNumber":74,"Velocity":60,"Duration":110635,"SoundDuration":110635,"Delta":28365758},{"NoteNumber":48,"Velocity":45,"Duration":442543,"SoundDuration":442543,"Delta":28365758},{"NoteNumber":76,"Velocity":52,"Duration":55317,"SoundDuration":55317,"Delta":28752983},{"NoteNumber":74,"Velocity":58,"Duration":208942,"SoundDuration":208942,"Delta":28808301},{"NoteNumber":53,"Velocity":37,"Duration":417885,"SoundDuration":417885,"Delta":28808301},{"NoteNumber":72,"Velocity":55,"Duration":208942,"SoundDuration":208942,"Delta":29017244},{"NoteNumber":74,"Velocity":57,"Duration":214930,"SoundDuration":214930,"Delta":29226187},{"NoteNumber":59,"Velocity":37,"Duration":429860,"SoundDuration":429860,"Delta":29226187},{"NoteNumber":76,"Velocity":52,"Duration":214930,"SoundDuration":214930,"Delta":29441117},{"NoteNumber":72,"Velocity":60,"Duration":1311654,"SoundDuration":1311654,"Delta":29656048},{"NoteNumber":48,"Velocity":45,"Duration":429861,"SoundDuration":429861,"Delta":29656048},{"NoteNumber":52,"Velocity":42,"Duration":206072,"SoundDuration":206072,"Delta":30085909},{"NoteNumber":55,"Velocity":37,"Duration":242757,"SoundDuration":242757,"Delta":30291981},{"NoteNumber":60,"Velocity":33,"Duration":432963,"SoundDuration":432963,"Delta":30534739},{"NoteNumber":72,"Velocity":40,"Duration":432963,"SoundDuration":432963,"Delta":30967702},{"NoteNumber":60,"Velocity":31,"Duration":216481,"SoundDuration":216481,"Delta":30967702},{"NoteNumber":67,"Velocity":22,"Duration":216481,"SoundDuration":216481,"Delta":31184183},{"NoteNumber":72,"Velocity":35,"Duration":216481,"SoundDuration":216481,"Delta":31400665},{"NoteNumber":64,"Velocity":25,"Duration":216481,"SoundDuration":216481,"Delta":31400665},{"NoteNumber":74,"Velocity":35,"Duration":208942,"SoundDuration":208942,"Delta":31617146},{"NoteNumber":67,"Velocity":23,"Duration":208942,"SoundDuration":208942,"Delta":31617146},{"NoteNumber":76,"Velocity":35,"Duration":208942,"SoundDuration":208942,"Delta":31826089},{"NoteNumber":60,"Velocity":25,"Duration":208942,"SoundDuration":208942,"Delta":31826089},{"NoteNumber":77,"Velocity":35,"Duration":227998,"SoundDuration":227998,"Delta":32035032},{"NoteNumber":67,"Velocity":23,"Duration":227998,"SoundDuration":227998,"Delta":32035032},{"NoteNumber":79,"Velocity":40,"Duration":417885,"SoundDuration":417885,"Delta":32263030},{"NoteNumber":60,"Velocity":31,"Duration":208942,"SoundDuration":208942,"Delta":32263030},{"NoteNumber":67,"Velocity":22,"Duration":208942,"SoundDuration":208942,"Delta":32471973},{"NoteNumber":76,"Velocity":33,"Duration":426802,"SoundDuration":426802,"Delta":32680915},{"NoteNumber":64,"Velocity":25,"Duration":213401,"SoundDuration":213401,"Delta":32680915},{"NoteNumber":67,"Velocity":23,"Duration":213401,"SoundDuration":213401,"Delta":32894317},{"NoteNumber":79,"Velocity":35,"Duration":448548,"SoundDuration":448548,"Delta":33107718},{"NoteNumber":60,"Velocity":25,"Duration":213401,"SoundDuration":213401,"Delta":33107718},{"NoteNumber":67,"Velocity":23,"Duration":235146,"SoundDuration":235146,"Delta":33321120},{"NoteNumber":81,"Velocity":40,"Duration":414994,"SoundDuration":414994,"Delta":33556266},{"NoteNumber":60,"Velocity":31,"Duration":207497,"SoundDuration":207497,"Delta":33556266},{"NoteNumber":69,"Velocity":22,"Duration":207497,"SoundDuration":207497,"Delta":33763764},{"NoteNumber":77,"Velocity":35,"Duration":423788,"SoundDuration":423788,"Delta":33971261},{"NoteNumber":65,"Velocity":25,"Duration":211894,"SoundDuration":211894,"Delta":33971261},{"NoteNumber":69,"Velocity":23,"Duration":211894,"SoundDuration":211894,"Delta":34183156},{"NoteNumber":81,"Velocity":35,"Duration":441638,"SoundDuration":441638,"Delta":34395050},{"NoteNumber":60,"Velocity":25,"Duration":211894,"SoundDuration":211894,"Delta":34395050},{"NoteNumber":69,"Velocity":23,"Duration":229744,"SoundDuration":229744,"Delta":34606944},{"NoteNumber":79,"Velocity":40,"Duration":414994,"SoundDuration":414994,"Delta":34836688},{"NoteNumber":60,"Velocity":31,"Duration":207497,"SoundDuration":207497,"Delta":34836688},{"NoteNumber":67,"Velocity":22,"Duration":207497,"SoundDuration":207497,"Delta":35044186},{"NoteNumber":76,"Velocity":35,"Duration":423788,"SoundDuration":423788,"Delta":35251683},{"NoteNumber":64,"Velocity":25,"Duration":211894,"SoundDuration":211894,"Delta":35251683},{"NoteNumber":67,"Velocity":23,"Duration":211894,"SoundDuration":211894,"Delta":35463578},{"NoteNumber":79,"Velocity":33,"Duration":439892,"SoundDuration":439892,"Delta":35675472},{"NoteNumber":60,"Velocity":25,"Duration":211894,"SoundDuration":211894,"Delta":35675472},{"NoteNumber":67,"Velocity":23,"Duration":227998,"SoundDuration":227998,"Delta":35887366},{"NoteNumber":77,"Velocity":40,"Duration":414994,"SoundDuration":414994,"Delta":36115364},{"NoteNumber":59,"Velocity":31,"Duration":207497,"SoundDuration":207497,"Delta":36115364},{"NoteNumber":67,"Velocity":22,"Duration":207497,"SoundDuration":207497,"Delta":36322862},{"NoteNumber":74,"Velocity":36,"Duration":420816,"SoundDuration":420816,"Delta":36530359},{"NoteNumber":62,"Velocity":25,"Duration":210408,"SoundDuration":210408,"Delta":36530359},{"NoteNumber":67,"Velocity":23,"Duration":210408,"SoundDuration":210408,"Delta":36740768},{"NoteNumber":77,"Velocity":36,"Duration":436686,"SoundDuration":436686,"Delta":36951176},{"NoteNumber":59,"Velocity":25,"Duration":210408,"SoundDuration":210408,"Delta":36951176},{"NoteNumber":67,"Velocity":23,"Duration":226278,"SoundDuration":226278,"Delta":37161584},{"NoteNumber":76,"Velocity":40,"Duration":414994,"SoundDuration":414994,"Delta":37387863},{"NoteNumber":60,"Velocity":31,"Duration":207497,"SoundDuration":207497,"Delta":37387863},{"NoteNumber":67,"Velocity":22,"Duration":207497,"SoundDuration":207497,"Delta":37595360},{"NoteNumber":72,"Velocity":36,"Duration":423788,"SoundDuration":423788,"Delta":37802858},{"NoteNumber":64,"Velocity":25,"Duration":211894,"SoundDuration":211894,"Delta":37802858},{"NoteNumber":67,"Velocity":23,"Duration":211894,"SoundDuration":211894,"Delta":38014752},{"NoteNumber":76,"Velocity":36,"Duration":438172,"SoundDuration":438172,"Delta":38226646},{"NoteNumber":60,"Velocity":25,"Duration":211894,"SoundDuration":211894,"Delta":38226646},{"NoteNumber":67,"Velocity":23,"Duration":226278,"SoundDuration":226278,"Delta":38438540},{"NoteNumber":74,"Velocity":40,"Duration":210408,"SoundDuration":210408,"Delta":38664819},{"NoteNumber":55,"Velocity":31,"Duration":210408,"SoundDuration":210408,"Delta":38664819},{"NoteNumber":65,"Velocity":22,"Duration":210408,"SoundDuration":210408,"Delta":38875227},{"NoteNumber":76,"Velocity":36,"Duration":52602,"SoundDuration":52602,"Delta":39033033},{"NoteNumber":74,"Velocity":40,"Duration":210408,"SoundDuration":210408,"Delta":39085635},{"NoteNumber":59,"Velocity":25,"Duration":210408,"SoundDuration":210408,"Delta":39085635},{"NoteNumber":72,"Velocity":34,"Duration":204666,"SoundDuration":204666,"Delta":39296044},{"NoteNumber":65,"Velocity":23,"Duration":204666,"SoundDuration":204666,"Delta":39296044},{"NoteNumber":74,"Velocity":37,"Duration":204666,"SoundDuration":204666,"Delta":39500710},{"NoteNumber":55,"Velocity":25,"Duration":204666,"SoundDuration":204666,"Delta":39500710},{"NoteNumber":76,"Velocity":35,"Duration":233317,"SoundDuration":233317,"Delta":39705377},{"NoteNumber":65,"Velocity":23,"Duration":233317,"SoundDuration":233317,"Delta":39705377},{"NoteNumber":72,"Velocity":40,"Duration":1268440,"SoundDuration":1268440,"Delta":39938694},{"NoteNumber":60,"Velocity":31,"Duration":205744,"SoundDuration":205744,"Delta":39938694},{"NoteNumber":67,"Velocity":19,"Duration":206029,"SoundDuration":206029,"Delta":40144439},{"NoteNumber":64,"Velocity":24,"Duration":209093,"SoundDuration":209093,"Delta":40350469},{"NoteNumber":67,"Velocity":19,"Duration":212449,"SoundDuration":212449,"Delta":40559562},{"NoteNumber":60,"Velocity":26,"Duration":215733,"SoundDuration":215733,"Delta":40772011},{"NoteNumber":67,"Velocity":22,"Duration":219390,"SoundDuration":219390,"Delta":40987745},{"NoteNumber":72,"Velocity":60,"Duration":432963,"SoundDuration":432963,"Delta":41207135},{"NoteNumber":60,"Velocity":46,"Duration":216481,"SoundDuration":216481,"Delta":41207135},{"NoteNumber":67,"Velocity":33,"Duration":216481,"SoundDuration":216481,"Delta":41423617},{"NoteNumber":72,"Velocity":52,"Duration":216481,"SoundDuration":216481,"Delta":41640098},{"NoteNumber":64,"Velocity":37,"Duration":216481,"SoundDuration":216481,"Delta":41640098},{"NoteNumber":74,"Velocity":52,"Duration":208942,"SoundDuration":208942,"Delta":41856580},{"NoteNumber":67,"Velocity":34,"Duration":208942,"SoundDuration":208942,"Delta":41856580},{"NoteNumber":76,"Velocity":52,"Duration":208942,"SoundDuration":208942,"Delta":42065523},{"NoteNumber":60,"Velocity":37,"Duration":208942,"SoundDuration":208942,"Delta":42065523},{"NoteNumber":77,"Velocity":52,"Duration":227998,"SoundDuration":227998,"Delta":42274465},{"NoteNumber":67,"Velocity":34,"Duration":227998,"SoundDuration":227998,"Delta":42274465},{"NoteNumber":79,"Velocity":60,"Duration":417885,"SoundDuration":417885,"Delta":42502464},{"NoteNumber":60,"Velocity":46,"Duration":208942,"SoundDuration":208942,"Delta":42502464},{"NoteNumber":67,"Velocity":33,"Duration":208942,"SoundDuration":208942,"Delta":42711406},{"NoteNumber":76,"Velocity":49,"Duration":426802,"SoundDuration":426802,"Delta":42920349},{"NoteNumber":64,"Velocity":37,"Duration":213401,"SoundDuration":213401,"Delta":42920349},{"NoteNumber":67,"Velocity":34,"Duration":213401,"SoundDuration":213401,"Delta":43133751},{"NoteNumber":79,"Velocity":52,"Duration":330974,"SoundDuration":330974,"Delta":43347152},{"NoteNumber":60,"Velocity":37,"Duration":213401,"SoundDuration":213401,"Delta":43347152},{"NoteNumber":67,"Velocity":34,"Duration":235146,"SoundDuration":235146,"Delta":43560554},{"NoteNumber":77,"Velocity":55,"Duration":58786,"SoundDuration":58786,"Delta":43678127},{"NoteNumber":79,"Velocity":55,"Duration":58786,"SoundDuration":58786,"Delta":43736913},{"NoteNumber":81,"Velocity":60,"Duration":414994,"SoundDuration":414994,"Delta":43795700},{"NoteNumber":60,"Velocity":46,"Duration":207497,"SoundDuration":207497,"Delta":43795700},{"NoteNumber":69,"Velocity":33,"Duration":207497,"SoundDuration":207497,"Delta":44003198},{"NoteNumber":77,"Velocity":52,"Duration":423788,"SoundDuration":423788,"Delta":44210695},{"NoteNumber":65,"Velocity":37,"Duration":211894,"SoundDuration":211894,"Delta":44210695},{"NoteNumber":69,"Velocity":34,"Duration":211894,"SoundDuration":211894,"Delta":44422589},{"NoteNumber":81,"Velocity":52,"Duration":441638,"SoundDuration":441638,"Delta":44634484},{"NoteNumber":60,"Velocity":37,"Duration":211894,"SoundDuration":211894,"Delta":44634484},{"NoteNumber":69,"Velocity":34,"Duration":229744,"SoundDuration":229744,"Delta":44846378},{"NoteNumber":81,"Velocity":61,"Duration":207497,"SoundDuration":207497,"Delta":45076122},{"NoteNumber":60,"Velocity":46,"Duration":207497,"SoundDuration":207497,"Delta":45076122},{"NoteNumber":79,"Velocity":57,"Duration":207497,"SoundDuration":207497,"Delta":45283620},{"NoteNumber":67,"Velocity":33,"Duration":207497,"SoundDuration":207497,"Delta":45283620},{"NoteNumber":76,"Velocity":52,"Duration":423788,"SoundDuration":423788,"Delta":45491117},{"NoteNumber":64,"Velocity":37,"Duration":211894,"SoundDuration":211894,"Delta":45491117},{"NoteNumber":67,"Velocity":34,"Duration":211894,"SoundDuration":211894,"Delta":45703011},{"NoteNumber":79,"Velocity":49,"Duration":439892,"SoundDuration":439892,"Delta":45914906},{"NoteNumber":60,"Velocity":37,"Duration":211894,"SoundDuration":211894,"Delta":45914906},{"NoteNumber":67,"Velocity":34,"Duration":227998,"SoundDuration":227998,"Delta":46126800},{"NoteNumber":79,"Velocity":61,"Duration":207497,"SoundDuration":207497,"Delta":46354798},{"NoteNumber":59,"Velocity":46,"Duration":207497,"SoundDuration":207497,"Delta":46354798},{"NoteNumber":77,"Velocity":57,"Duration":207497,"SoundDuration":207497,"Delta":46562296},{"NoteNumber":67,"Velocity":33,"Duration":207497,"SoundDuration":207497,"Delta":46562296},{"NoteNumber":74,"Velocity":54,"Duration":420816,"SoundDuration":420816,"Delta":46769793},{"NoteNumber":62,"Velocity":37,"Duration":210408,"SoundDuration":210408,"Delta":46769793},{"NoteNumber":67,"Velocity":34,"Duration":210408,"SoundDuration":210408,"Delta":46980201},{"NoteNumber":77,"Velocity":54,"Duration":436686,"SoundDuration":436686,"Delta":47190610},{"NoteNumber":59,"Velocity":37,"Duration":210408,"SoundDuration":210408,"Delta":47190610},{"NoteNumber":67,"Velocity":34,"Duration":226278,"SoundDuration":226278,"Delta":47401018},{"NoteNumber":77,"Velocity":60,"Duration":207497,"SoundDuration":207497,"Delta":47627296},{"NoteNumber":60,"Velocity":46,"Duration":207497,"SoundDuration":207497,"Delta":47627296},{"NoteNumber":76,"Velocity":58,"Duration":207497,"SoundDuration":207497,"Delta":47834794},{"NoteNumber":67,"Velocity":33,"Duration":207497,"SoundDuration":207497,"Delta":47834794},{"NoteNumber":72,"Velocity":54,"Duration":423788,"SoundDuration":423788,"Delta":48042291},{"NoteNumber":64,"Velocity":37,"Duration":211894,"SoundDuration":211894,"Delta":48042291},{"NoteNumber":67,"Velocity":34,"Duration":211894,"SoundDuration":211894,"Delta":48254186},{"NoteNumber":76,"Velocity":54,"Duration":438172,"SoundDuration":438172,"Delta":48466080},{"NoteNumber":60,"Velocity":37,"Duration":211894,"SoundDuration":211894,"Delta":48466080},{"NoteNumber":67,"Velocity":34,"Duration":226278,"SoundDuration":226278,"Delta":48677974},{"NoteNumber":76,"Velocity":60,"Duration":210408,"SoundDuration":210408,"Delta":48904253},{"NoteNumber":55,"Velocity":46,"Duration":210408,"SoundDuration":210408,"Delta":48904253},{"NoteNumber":74,"Velocity":57,"Duration":157806,"SoundDuration":157806,"Delta":49114661},{"NoteNumber":65,"Velocity":33,"Duration":210408,"SoundDuration":210408,"Delta":49114661},{"NoteNumber":76,"Velocity":54,"Duration":52602,"SoundDuration":52602,"Delta":49272467},{"NoteNumber":74,"Velocity":60,"Duration":210408,"SoundDuration":210408,"Delta":49325069},{"NoteNumber":59,"Velocity":37,"Duration":210408,"SoundDuration":210408,"Delta":49325069},{"NoteNumber":72,"Velocity":51,"Duration":204666,"SoundDuration":204666,"Delta":49535477},{"NoteNumber":65,"Velocity":34,"Duration":204666,"SoundDuration":204666,"Delta":49535477},{"NoteNumber":74,"Velocity":55,"Duration":204666,"SoundDuration":204666,"Delta":49740144},{"NoteNumber":55,"Velocity":37,"Duration":204666,"SoundDuration":204666,"Delta":49740144},{"NoteNumber":76,"Velocity":52,"Duration":233317,"SoundDuration":233317,"Delta":49944810},{"NoteNumber":65,"Velocity":34,"Duration":233317,"SoundDuration":233317,"Delta":49944810},{"NoteNumber":72,"Velocity":60,"Duration":1268440,"SoundDuration":1268440,"Delta":50178128},{"NoteNumber":60,"Velocity":46,"Duration":205744,"SoundDuration":205744,"Delta":50178128},{"NoteNumber":67,"Velocity":25,"Duration":206029,"SoundDuration":206029,"Delta":50383873},{"NoteNumber":64,"Velocity":33,"Duration":209093,"SoundDuration":209093,"Delta":50589903},{"NoteNumber":67,"Velocity":26,"Duration":212449,"SoundDuration":212449,"Delta":50798996},{"NoteNumber":60,"Velocity":34,"Duration":435123,"SoundDuration":435123,"Delta":51011445},{"NoteNumber":79,"Velocity":40,"Duration":206072,"SoundDuration":206072,"Delta":51446569},{"NoteNumber":77,"Velocity":33,"Duration":206072,"SoundDuration":206072,"Delta":51652641},{"NoteNumber":74,"Velocity":40,"Duration":108240,"SoundDuration":108240,"Delta":51858713},{"NoteNumber":55,"Velocity":20,"Duration":108240,"SoundDuration":108240,"Delta":51858713},{"NoteNumber":59,"Velocity":20,"Duration":108240,"SoundDuration":108240,"Delta":51858713},{"NoteNumber":62,"Velocity":25,"Duration":108240,"SoundDuration":108240,"Delta":51858713},{"NoteNumber":74,"Velocity":38,"Duration":108240,"SoundDuration":108240,"Delta":52291676},{"NoteNumber":55,"Velocity":20,"Duration":108240,"SoundDuration":108240,"Delta":52291676},{"NoteNumber":62,"Velocity":25,"Duration":108240,"SoundDuration":108240,"Delta":52291676},{"NoteNumber":59,"Velocity":20,"Duration":108240,"SoundDuration":108240,"Delta":52291676},{"NoteNumber":77,"Velocity":40,"Duration":206072,"SoundDuration":206072,"Delta":52724639},{"NoteNumber":76,"Velocity":34,"Duration":206072,"SoundDuration":206072,"Delta":52930712},{"NoteNumber":72,"Velocity":40,"Duration":107465,"SoundDuration":107465,"Delta":53136784},{"NoteNumber":55,"Velocity":20,"Duration":107465,"SoundDuration":107465,"Delta":53136784},{"NoteNumber":60,"Velocity":20,"Duration":107465,"SoundDuration":107465,"Delta":53136784},{"NoteNumber":64,"Velocity":25,"Duration":107465,"SoundDuration":107465,"Delta":53136784},{"NoteNumber":72,"Velocity":35,"Duration":107465,"SoundDuration":107465,"Delta":53566645},{"NoteNumber":55,"Velocity":20,"Duration":107465,"SoundDuration":107465,"Delta":53566645},{"NoteNumber":64,"Velocity":25,"Duration":107465,"SoundDuration":107465,"Delta":53566645},{"NoteNumber":60,"Velocity":20,"Duration":107465,"SoundDuration":107465,"Delta":53566645},{"NoteNumber":76,"Velocity":40,"Duration":206072,"SoundDuration":206072,"Delta":53996506},{"NoteNumber":74,"Velocity":34,"Duration":206072,"SoundDuration":206072,"Delta":54202578},{"NoteNumber":71,"Velocity":40,"Duration":106700,"SoundDuration":106700,"Delta":54408650},{"NoteNumber":55,"Velocity":20,"Duration":106700,"SoundDuration":106700,"Delta":54408650},{"NoteNumber":62,"Velocity":20,"Duration":106700,"SoundDuration":106700,"Delta":54408650},{"NoteNumber":65,"Velocity":25,"Duration":106700,"SoundDuration":106700,"Delta":54408650},{"NoteNumber":71,"Velocity":38,"Duration":106700,"SoundDuration":106700,"Delta":54835453},{"NoteNumber":55,"Velocity":20,"Duration":106700,"SoundDuration":106700,"Delta":54835453},{"NoteNumber":65,"Velocity":25,"Duration":106700,"SoundDuration":106700,"Delta":54835453},{"NoteNumber":62,"Velocity":20,"Duration":106700,"SoundDuration":106700,"Delta":54835453},{"NoteNumber":72,"Velocity":40,"Duration":104471,"SoundDuration":104471,"Delta":55262256},{"NoteNumber":74,"Velocity":35,"Duration":104471,"SoundDuration":104471,"Delta":55366728},{"NoteNumber":72,"Velocity":37,"Duration":104471,"SoundDuration":104471,"Delta":55471199},{"NoteNumber":71,"Velocity":37,"Duration":104471,"SoundDuration":104471,"Delta":55575671},{"NoteNumber":72,"Velocity":41,"Duration":211894,"SoundDuration":211894,"Delta":55680142},{"NoteNumber":55,"Velocity":20,"Duration":105947,"SoundDuration":105947,"Delta":55680142},{"NoteNumber":60,"Velocity":20,"Duration":105947,"SoundDuration":105947,"Delta":55680142},{"NoteNumber":64,"Velocity":25,"Duration":105947,"SoundDuration":105947,"Delta":55680142},{"NoteNumber":74,"Velocity":35,"Duration":211894,"SoundDuration":211894,"Delta":55892036},{"NoteNumber":76,"Velocity":37,"Duration":218054,"SoundDuration":218054,"Delta":56103930},{"NoteNumber":55,"Velocity":20,"Duration":109027,"SoundDuration":109027,"Delta":56103930},{"NoteNumber":64,"Velocity":25,"Duration":109027,"SoundDuration":109027,"Delta":56103930},{"NoteNumber":60,"Velocity":20,"Duration":109027,"SoundDuration":109027,"Delta":56103930},{"NoteNumber":77,"Velocity":44,"Duration":218054,"SoundDuration":218054,"Delta":56321985},{"NoteNumber":79,"Velocity":40,"Duration":206072,"SoundDuration":206072,"Delta":56540040},{"NoteNumber":77,"Velocity":33,"Duration":206072,"SoundDuration":206072,"Delta":56746113},{"NoteNumber":74,"Velocity":40,"Duration":108240,"SoundDuration":108240,"Delta":56952185},{"NoteNumber":55,"Velocity":20,"Duration":108240,"SoundDuration":108240,"Delta":56952185},{"NoteNumber":59,"Velocity":20,"Duration":108240,"SoundDuration":108240,"Delta":56952185},{"NoteNumber":62,"Velocity":25,"Duration":108240,"SoundDuration":108240,"Delta":56952185},{"NoteNumber":74,"Velocity":38,"Duration":108240,"SoundDuration":108240,"Delta":57385148},{"NoteNumber":55,"Velocity":20,"Duration":108240,"SoundDuration":108240,"Delta":57385148},{"NoteNumber":62,"Velocity":25,"Duration":108240,"SoundDuration":108240,"Delta":57385148},{"NoteNumber":59,"Velocity":20,"Duration":108240,"SoundDuration":108240,"Delta":57385148},{"NoteNumber":77,"Velocity":40,"Duration":206072,"SoundDuration":206072,"Delta":57818111},{"NoteNumber":76,"Velocity":34,"Duration":206072,"SoundDuration":206072,"Delta":58024183},{"NoteNumber":72,"Velocity":40,"Duration":107465,"SoundDuration":107465,"Delta":58230255},{"NoteNumber":55,"Velocity":20,"Duration":107465,"SoundDuration":107465,"Delta":58230255},{"NoteNumber":60,"Velocity":20,"Duration":107465,"SoundDuration":107465,"Delta":58230255},{"NoteNumber":64,"Velocity":25,"Duration":107465,"SoundDuration":107465,"Delta":58230255},{"NoteNumber":72,"Velocity":35,"Duration":107465,"SoundDuration":107465,"Delta":58660116},{"NoteNumber":55,"Velocity":20,"Duration":107465,"SoundDuration":107465,"Delta":58660116},{"NoteNumber":64,"Velocity":25,"Duration":107465,"SoundDuration":107465,"Delta":58660116},{"NoteNumber":60,"Velocity":20,"Duration":107465,"SoundDuration":107465,"Delta":58660116},{"NoteNumber":72,"Velocity":40,"Duration":104471,"SoundDuration":104471,"Delta":59089977},{"NoteNumber":74,"Velocity":35,"Duration":104471,"SoundDuration":104471,"Delta":59194449},{"NoteNumber":72,"Velocity":37,"Duration":104471,"SoundDuration":104471,"Delta":59298920},{"NoteNumber":71,"Velocity":37,"Duration":104471,"SoundDuration":104471,"Delta":59403392},{"NoteNumber":72,"Velocity":41,"Duration":222915,"SoundDuration":222915,"Delta":59507863},{"NoteNumber":57,"Velocity":20,"Duration":111457,"SoundDuration":111457,"Delta":59507863},{"NoteNumber":60,"Velocity":20,"Duration":111457,"SoundDuration":111457,"Delta":59507863},{"NoteNumber":66,"Velocity":25,"Duration":111457,"SoundDuration":111457,"Delta":59507863},{"NoteNumber":74,"Velocity":35,"Duration":246751,"SoundDuration":246751,"Delta":59730779},{"NoteNumber":76,"Velocity":37,"Duration":284144,"SoundDuration":284144,"Delta":59977530},{"NoteNumber":57,"Velocity":20,"Duration":142072,"SoundDuration":142072,"Delta":59977530},{"NoteNumber":66,"Velocity":25,"Duration":142072,"SoundDuration":142072,"Delta":59977530},{"NoteNumber":60,"Velocity":20,"Duration":142072,"SoundDuration":142072,"Delta":59977530},{"NoteNumber":78,"Velocity":44,"Duration":407719,"SoundDuration":407719,"Delta":60261674},{"NoteNumber":71,"Velocity":34,"Duration":1630309,"SoundDuration":1630309,"Delta":60669394},{"NoteNumber":79,"Velocity":41,"Duration":1630309,"SoundDuration":1630309,"Delta":60669394},{"NoteNumber":55,"Velocity":21,"Duration":1630309,"SoundDuration":1630309,"Delta":60669394},{"NoteNumber":62,"Velocity":25,"Duration":1630309,"SoundDuration":1630309,"Delta":60669394},{"NoteNumber":72,"Velocity":34,"Duration":55155,"SoundDuration":55155,"Delta":62189011},{"NoteNumber":74,"Velocity":34,"Duration":108887,"SoundDuration":108887,"Delta":62244167},{"NoteNumber":76,"Velocity":40,"Duration":853605,"SoundDuration":853605,"Delta":62299704},{"NoteNumber":48,"Velocity":30,"Duration":426802,"SoundDuration":426802,"Delta":62299704},{"NoteNumber":55,"Velocity":24,"Duration":426802,"SoundDuration":426802,"Delta":62726507},{"NoteNumber":76,"Velocity":40,"Duration":103036,"SoundDuration":103036,"Delta":63153310},{"NoteNumber":60,"Velocity":24,"Duration":412144,"SoundDuration":412144,"Delta":63153310},{"NoteNumber":74,"Velocity":35,"Duration":103036,"SoundDuration":103036,"Delta":63256346},{"NoteNumber":72,"Velocity":35,"Duration":103036,"SoundDuration":103036,"Delta":63359382},{"NoteNumber":74,"Velocity":35,"Duration":103036,"SoundDuration":103036,"Delta":63462418},{"NoteNumber":72,"Velocity":40,"Duration":853605,"SoundDuration":853605,"Delta":63565454},{"NoteNumber":48,"Velocity":30,"Duration":426802,"SoundDuration":426802,"Delta":63565454},{"NoteNumber":55,"Velocity":25,"Duration":426802,"SoundDuration":426802,"Delta":63992257},{"NoteNumber":76,"Velocity":37,"Duration":426803,"SoundDuration":426803,"Delta":64419060},{"NoteNumber":60,"Velocity":25,"Duration":426803,"SoundDuration":426803,"Delta":64419060},{"NoteNumber":74,"Velocity":40,"Duration":109825,"SoundDuration":109825,"Delta":64845863},{"NoteNumber":48,"Velocity":30,"Duration":439302,"SoundDuration":439302,"Delta":64845863},{"NoteNumber":74,"Velocity":40,"Duration":206072,"SoundDuration":206072,"Delta":65285166},{"NoteNumber":55,"Velocity":25,"Duration":412144,"SoundDuration":412144,"Delta":65285166},{"NoteNumber":71,"Velocity":34,"Duration":206072,"SoundDuration":206072,"Delta":65491239},{"NoteNumber":72,"Velocity":37,"Duration":213401,"SoundDuration":213401,"Delta":65697311},{"NoteNumber":60,"Velocity":25,"Duration":426803,"SoundDuration":426803,"Delta":65697311},{"NoteNumber":76,"Velocity":35,"Duration":213401,"SoundDuration":213401,"Delta":65910712},{"NoteNumber":74,"Velocity":40,"Duration":110635,"SoundDuration":110635,"Delta":66124114},{"NoteNumber":48,"Velocity":30,"Duration":442543,"SoundDuration":442543,"Delta":66124114},{"NoteNumber":74,"Velocity":37,"Duration":204666,"SoundDuration":204666,"Delta":66566657},{"NoteNumber":55,"Velocity":26,"Duration":409333,"SoundDuration":409333,"Delta":66566657},{"NoteNumber":71,"Velocity":34,"Duration":204666,"SoundDuration":204666,"Delta":66771323},{"NoteNumber":72,"Velocity":37,"Duration":213401,"SoundDuration":213401,"Delta":66975990},{"NoteNumber":60,"Velocity":26,"Duration":426803,"SoundDuration":426803,"Delta":66975990},{"NoteNumber":76,"Velocity":33,"Duration":213401,"SoundDuration":213401,"Delta":67189391},{"NoteNumber":74,"Velocity":40,"Duration":109825,"SoundDuration":109825,"Delta":67402793},{"NoteNumber":48,"Velocity":30,"Duration":439302,"SoundDuration":439302,"Delta":67402793},{"NoteNumber":74,"Velocity":39,"Duration":207497,"SoundDuration":207497,"Delta":67842096},{"NoteNumber":55,"Velocity":25,"Duration":414995,"SoundDuration":414995,"Delta":67842096},{"NoteNumber":71,"Velocity":37,"Duration":207497,"SoundDuration":207497,"Delta":68049593},{"NoteNumber":72,"Velocity":38,"Duration":211894,"SoundDuration":211894,"Delta":68257091},{"NoteNumber":60,"Velocity":25,"Duration":423788,"SoundDuration":423788,"Delta":68257091},{"NoteNumber":76,"Velocity":35,"Duration":211894,"SoundDuration":211894,"Delta":68468985},{"NoteNumber":67,"Velocity":40,"Duration":1182451,"SoundDuration":1182451,"Delta":68680879},{"NoteNumber":43,"Velocity":30,"Duration":439302,"SoundDuration":439302,"Delta":68680879},{"NoteNumber":55,"Velocity":32,"Duration":208196,"SoundDuration":208196,"Delta":69120182},{"NoteNumber":53,"Velocity":26,"Duration":210514,"SoundDuration":210514,"Delta":69328379},{"NoteNumber":52,"Velocity":31,"Duration":215144,"SoundDuration":215144,"Delta":69538893},{"NoteNumber":50,"Velocity":29,"Duration":219986,"SoundDuration":219986,"Delta":69754037},{"NoteNumber":72,"Velocity":34,"Duration":55155,"SoundDuration":55155,"Delta":69863331},{"NoteNumber":74,"Velocity":34,"Duration":111266,"SoundDuration":111266,"Delta":69918487},{"NoteNumber":76,"Velocity":32,"Duration":891662,"SoundDuration":891662,"Delta":69974024},{"NoteNumber":48,"Velocity":19,"Duration":445831,"SoundDuration":445831,"Delta":69974024},{"NoteNumber":55,"Velocity":15,"Duration":445831,"SoundDuration":445831,"Delta":70419855},{"NoteNumber":76,"Velocity":32,"Duration":103748,"SoundDuration":103748,"Delta":70865687},{"NoteNumber":60,"Velocity":15,"Duration":414995,"SoundDuration":414995,"Delta":70865687},{"NoteNumber":74,"Velocity":28,"Duration":103748,"SoundDuration":103748,"Delta":70969436},{"NoteNumber":72,"Velocity":28,"Duration":103748,"SoundDuration":103748,"Delta":71073184},{"NoteNumber":74,"Velocity":28,"Duration":103748,"SoundDuration":103748,"Delta":71176933},{"NoteNumber":72,"Velocity":32,"Duration":859722,"SoundDuration":859722,"Delta":71280682},{"NoteNumber":48,"Velocity":19,"Duration":429861,"SoundDuration":429861,"Delta":71280682},{"NoteNumber":55,"Velocity":16,"Duration":429861,"SoundDuration":429861,"Delta":71710543},{"NoteNumber":76,"Velocity":29,"Duration":429860,"SoundDuration":429860,"Delta":72140404},{"NoteNumber":60,"Velocity":16,"Duration":429860,"SoundDuration":429860,"Delta":72140404},{"NoteNumber":74,"Velocity":32,"Duration":112292,"SoundDuration":112292,"Delta":72570265},{"NoteNumber":48,"Velocity":19,"Duration":449168,"SoundDuration":449168,"Delta":72570265},{"NoteNumber":74,"Velocity":32,"Duration":207497,"SoundDuration":207497,"Delta":73019434},{"NoteNumber":55,"Velocity":16,"Duration":414995,"SoundDuration":414995,"Delta":73019434},{"NoteNumber":71,"Velocity":27,"Duration":207497,"SoundDuration":207497,"Delta":73226931},{"NoteNumber":72,"Velocity":29,"Duration":216481,"SoundDuration":216481,"Delta":73434429},{"NoteNumber":60,"Velocity":16,"Duration":432963,"SoundDuration":432963,"Delta":73434429},{"NoteNumber":76,"Velocity":28,"Duration":216481,"SoundDuration":216481,"Delta":73650910},{"NoteNumber":74,"Velocity":32,"Duration":110635,"SoundDuration":110635,"Delta":73867392},{"NoteNumber":48,"Velocity":19,"Duration":442543,"SoundDuration":442543,"Delta":73867392},{"NoteNumber":76,"Velocity":29,"Duration":55317,"SoundDuration":55317,"Delta":74254617},{"NoteNumber":74,"Velocity":29,"Duration":208942,"SoundDuration":208942,"Delta":74309935},{"NoteNumber":53,"Velocity":16,"Duration":417885,"SoundDuration":417885,"Delta":74309935},{"NoteNumber":72,"Velocity":27,"Duration":208942,"SoundDuration":208942,"Delta":74518878},{"NoteNumber":74,"Velocity":29,"Duration":216481,"SoundDuration":216481,"Delta":74727820},{"NoteNumber":59,"Velocity":16,"Duration":432963,"SoundDuration":432963,"Delta":74727820},{"NoteNumber":76,"Velocity":26,"Duration":216481,"SoundDuration":216481,"Delta":74944302},{"NoteNumber":74,"Velocity":32,"Duration":110635,"SoundDuration":110635,"Delta":75160783},{"NoteNumber":48,"Velocity":19,"Duration":442543,"SoundDuration":442543,"Delta":75160783},{"NoteNumber":76,"Velocity":29,"Duration":55317,"SoundDuration":55317,"Delta":75548009},{"NoteNumber":74,"Velocity":31,"Duration":210408,"SoundDuration":210408,"Delta":75603326},{"NoteNumber":53,"Velocity":16,"Duration":420816,"SoundDuration":420816,"Delta":75603326},{"NoteNumber":72,"Velocity":29,"Duration":210408,"SoundDuration":210408,"Delta":75813735},{"NoteNumber":74,"Velocity":30,"Duration":216481,"SoundDuration":216481,"Delta":76024143},{"NoteNumber":59,"Velocity":16,"Duration":432963,"SoundDuration":432963,"Delta":76024143},{"NoteNumber":76,"Velocity":28,"Duration":216481,"SoundDuration":216481,"Delta":76240624},{"NoteNumber":72,"Velocity":32,"Duration":1163949,"SoundDuration":1163949,"Delta":76457106},{"NoteNumber":48,"Velocity":31,"Duration":201827,"SoundDuration":201827,"Delta":76457106},{"NoteNumber":60,"Velocity":26,"Duration":205891,"SoundDuration":205891,"Delta":76658933},{"NoteNumber":55,"Velocity":37,"Duration":210317,"SoundDuration":210317,"Delta":76864825},{"NoteNumber":60,"Velocity":33,"Duration":214733,"SoundDuration":214733,"Delta":77075142},{"NoteNumber":52,"Velocity":41,"Duration":219552,"SoundDuration":219552,"Delta":77289876},{"NoteNumber":55,"Velocity":46,"Duration":224370,"SoundDuration":224370,"Delta":77509429},{"NoteNumber":84,"Velocity":61,"Duration":56174,"SoundDuration":56174,"Delta":77621055},{"NoteNumber":86,"Velocity":66,"Duration":56569,"SoundDuration":56569,"Delta":77677230},{"NoteNumber":88,"Velocity":74,"Duration":859722,"SoundDuration":859722,"Delta":77733799},{"NoteNumber":48,"Velocity":45,"Duration":214930,"SoundDuration":214930,"Delta":77733799},{"NoteNumber":55,"Velocity":31,"Duration":214930,"SoundDuration":214930,"Delta":77948730},{"NoteNumber":48,"Velocity":34,"Duration":214930,"SoundDuration":214930,"Delta":78163660},{"NoteNumber":55,"Velocity":25,"Duration":214930,"SoundDuration":214930,"Delta":78378591},{"NoteNumber":88,"Velocity":69,"Duration":103748,"SoundDuration":103748,"Delta":78593521},{"NoteNumber":50,"Velocity":34,"Duration":207497,"SoundDuration":207497,"Delta":78593521},{"NoteNumber":86,"Velocity":59,"Duration":103748,"SoundDuration":103748,"Delta":78697270},{"NoteNumber":84,"Velocity":59,"Duration":103748,"SoundDuration":103748,"Delta":78801019},{"NoteNumber":55,"Velocity":30,"Duration":207497,"SoundDuration":207497,"Delta":78801019},{"NoteNumber":86,"Velocity":59,"Duration":103748,"SoundDuration":103748,"Delta":78904768},{"NoteNumber":84,"Velocity":69,"Duration":752256,"SoundDuration":752256,"Delta":79008516},{"NoteNumber":52,"Velocity":45,"Duration":214930,"SoundDuration":214930,"Delta":79008516},{"NoteNumber":55,"Velocity":31,"Duration":214930,"SoundDuration":214930,"Delta":79223447},{"NoteNumber":52,"Velocity":34,"Duration":214930,"SoundDuration":214930,"Delta":79438377},{"NoteNumber":55,"Velocity":25,"Duration":214930,"SoundDuration":214930,"Delta":79653308},{"NoteNumber":84,"Velocity":60,"Duration":53732,"SoundDuration":53732,"Delta":79760773},{"NoteNumber":86,"Velocity":64,"Duration":53732,"SoundDuration":53732,"Delta":79814506},{"NoteNumber":88,"Velocity":70,"Duration":429860,"SoundDuration":429860,"Delta":79868238},{"NoteNumber":48,"Velocity":34,"Duration":214930,"SoundDuration":214930,"Delta":79868238},{"NoteNumber":55,"Velocity":30,"Duration":214930,"SoundDuration":214930,"Delta":80083169},{"NoteNumber":86,"Velocity":69,"Duration":112292,"SoundDuration":112292,"Delta":80298099},{"NoteNumber":53,"Velocity":45,"Duration":224584,"SoundDuration":224584,"Delta":80298099},{"NoteNumber":55,"Velocity":31,"Duration":224584,"SoundDuration":224584,"Delta":80522684},{"NoteNumber":86,"Velocity":69,"Duration":206072,"SoundDuration":206072,"Delta":80747268},{"NoteNumber":53,"Velocity":34,"Duration":206072,"SoundDuration":206072,"Delta":80747268},{"NoteNumber":83,"Velocity":58,"Duration":206072,"SoundDuration":206072,"Delta":80953341},{"NoteNumber":55,"Velocity":25,"Duration":206072,"SoundDuration":206072,"Delta":80953341},{"NoteNumber":84,"Velocity":63,"Duration":214930,"SoundDuration":214930,"Delta":81159413},{"NoteNumber":52,"Velocity":34,"Duration":214930,"SoundDuration":214930,"Delta":81159413},{"NoteNumber":88,"Velocity":59,"Duration":214930,"SoundDuration":214930,"Delta":81374343},{"NoteNumber":55,"Velocity":30,"Duration":214930,"SoundDuration":214930,"Delta":81374343},{"NoteNumber":86,"Velocity":69,"Duration":111457,"SoundDuration":111457,"Delta":81589274},{"NoteNumber":53,"Velocity":45,"Duration":222915,"SoundDuration":222915,"Delta":81589274},{"NoteNumber":55,"Velocity":31,"Duration":222915,"SoundDuration":222915,"Delta":81812190},{"NoteNumber":86,"Velocity":63,"Duration":207497,"SoundDuration":207497,"Delta":82035105},{"NoteNumber":53,"Velocity":34,"Duration":207497,"SoundDuration":207497,"Delta":82035105},{"NoteNumber":83,"Velocity":58,"Duration":207497,"SoundDuration":207497,"Delta":82242603},{"NoteNumber":55,"Velocity":25,"Duration":207497,"SoundDuration":207497,"Delta":82242603},{"NoteNumber":84,"Velocity":63,"Duration":214930,"SoundDuration":214930,"Delta":82450100},{"NoteNumber":52,"Velocity":34,"Duration":214930,"SoundDuration":214930,"Delta":82450100},{"NoteNumber":88,"Velocity":56,"Duration":214930,"SoundDuration":214930,"Delta":82665031},{"NoteNumber":55,"Velocity":30,"Duration":214930,"SoundDuration":214930,"Delta":82665031},{"NoteNumber":86,"Velocity":69,"Duration":110635,"SoundDuration":110635,"Delta":82879961},{"NoteNumber":53,"Velocity":45,"Duration":221271,"SoundDuration":221271,"Delta":82879961},{"NoteNumber":55,"Velocity":31,"Duration":221271,"SoundDuration":221271,"Delta":83101233},{"NoteNumber":86,"Velocity":66,"Duration":208942,"SoundDuration":208942,"Delta":83322504},{"NoteNumber":53,"Velocity":34,"Duration":208942,"SoundDuration":208942,"Delta":83322504},{"NoteNumber":83,"Velocity":63,"Duration":208942,"SoundDuration":208942,"Delta":83531447},{"NoteNumber":55,"Velocity":25,"Duration":208942,"SoundDuration":208942,"Delta":83531447},{"NoteNumber":84,"Velocity":65,"Duration":214930,"SoundDuration":214930,"Delta":83740390},{"NoteNumber":52,"Velocity":34,"Duration":214930,"SoundDuration":214930,"Delta":83740390},{"NoteNumber":88,"Velocity":59,"Duration":214930,"SoundDuration":214930,"Delta":83955320},{"NoteNumber":55,"Velocity":30,"Duration":214930,"SoundDuration":214930,"Delta":83955320},{"NoteNumber":79,"Velocity":69,"Duration":1301968,"SoundDuration":1301968,"Delta":84170251},{"NoteNumber":43,"Velocity":45,"Duration":219067,"SoundDuration":219067,"Delta":84170251},{"NoteNumber":55,"Velocity":40,"Duration":216434,"SoundDuration":216434,"Delta":84389318},{"NoteNumber":45,"Velocity":48,"Duration":213558,"SoundDuration":213558,"Delta":84605753},{"NoteNumber":55,"Velocity":41,"Duration":210757,"SoundDuration":210757,"Delta":84819311},{"NoteNumber":47,"Velocity":46,"Duration":208028,"SoundDuration":208028,"Delta":85030069},{"NoteNumber":55,"Velocity":42,"Duration":234122,"SoundDuration":234122,"Delta":85238097},{"NoteNumber":84,"Velocity":63,"Duration":56174,"SoundDuration":56174,"Delta":85359476},{"NoteNumber":86,"Velocity":67,"Duration":56569,"SoundDuration":56569,"Delta":85415650},{"NoteNumber":88,"Velocity":76,"Duration":859722,"SoundDuration":859722,"Delta":85472220},{"NoteNumber":48,"Velocity":45,"Duration":214930,"SoundDuration":214930,"Delta":85472220},{"NoteNumber":55,"Velocity":31,"Duration":214930,"SoundDuration":214930,"Delta":85687150},{"NoteNumber":48,"Velocity":34,"Duration":214930,"SoundDuration":214930,"Delta":85902081},{"NoteNumber":55,"Velocity":25,"Duration":214930,"SoundDuration":214930,"Delta":86117011},{"NoteNumber":88,"Velocity":69,"Duration":103748,"SoundDuration":103748,"Delta":86331942},{"NoteNumber":50,"Velocity":34,"Duration":207497,"SoundDuration":207497,"Delta":86331942},{"NoteNumber":86,"Velocity":59,"Duration":103748,"SoundDuration":103748,"Delta":86435691},{"NoteNumber":84,"Velocity":59,"Duration":103748,"SoundDuration":103748,"Delta":86539439},{"NoteNumber":55,"Velocity":30,"Duration":207497,"SoundDuration":207497,"Delta":86539439},{"NoteNumber":86,"Velocity":59,"Duration":103748,"SoundDuration":103748,"Delta":86643188},{"NoteNumber":84,"Velocity":69,"Duration":752256,"SoundDuration":752256,"Delta":86746937},{"NoteNumber":52,"Velocity":45,"Duration":214930,"SoundDuration":214930,"Delta":86746937},{"NoteNumber":55,"Velocity":31,"Duration":214930,"SoundDuration":214930,"Delta":86961867},{"NoteNumber":52,"Velocity":34,"Duration":214930,"SoundDuration":214930,"Delta":87176798},{"NoteNumber":55,"Velocity":25,"Duration":214930,"SoundDuration":214930,"Delta":87391728},{"NoteNumber":84,"Velocity":60,"Duration":53732,"SoundDuration":53732,"Delta":87499194},{"NoteNumber":86,"Velocity":64,"Duration":53732,"SoundDuration":53732,"Delta":87552926},{"NoteNumber":88,"Velocity":70,"Duration":429860,"SoundDuration":429860,"Delta":87606659},{"NoteNumber":48,"Velocity":34,"Duration":214930,"SoundDuration":214930,"Delta":87606659},{"NoteNumber":55,"Velocity":30,"Duration":214930,"SoundDuration":214930,"Delta":87821589},{"NoteNumber":86,"Velocity":69,"Duration":112292,"SoundDuration":112292,"Delta":88036520},{"NoteNumber":53,"Velocity":45,"Duration":224584,"SoundDuration":224584,"Delta":88036520},{"NoteNumber":55,"Velocity":31,"Duration":224584,"SoundDuration":224584,"Delta":88261104},{"NoteNumber":86,"Velocity":69,"Duration":206072,"SoundDuration":206072,"Delta":88485689},{"NoteNumber":53,"Velocity":34,"Duration":206072,"SoundDuration":206072,"Delta":88485689},{"NoteNumber":83,"Velocity":58,"Duration":206072,"SoundDuration":206072,"Delta":88691761},{"NoteNumber":55,"Velocity":25,"Duration":206072,"SoundDuration":206072,"Delta":88691761},{"NoteNumber":84,"Velocity":63,"Duration":214930,"SoundDuration":214930,"Delta":88897833},{"NoteNumber":52,"Velocity":34,"Duration":214930,"SoundDuration":214930,"Delta":88897833},{"NoteNumber":88,"Velocity":59,"Duration":214930,"SoundDuration":214930,"Delta":89112764},{"NoteNumber":55,"Velocity":30,"Duration":214930,"SoundDuration":214930,"Delta":89112764},{"NoteNumber":86,"Velocity":69,"Duration":111457,"SoundDuration":111457,"Delta":89327694},{"NoteNumber":43,"Velocity":45,"Duration":222915,"SoundDuration":222915,"Delta":89327694},{"NoteNumber":53,"Velocity":31,"Duration":222915,"SoundDuration":222915,"Delta":89550610},{"NoteNumber":88,"Velocity":58,"Duration":55728,"SoundDuration":55728,"Delta":89717797},{"NoteNumber":86,"Velocity":63,"Duration":207497,"SoundDuration":207497,"Delta":89773526},{"NoteNumber":47,"Velocity":34,"Duration":207497,"SoundDuration":207497,"Delta":89773526},{"NoteNumber":84,"Velocity":58,"Duration":207497,"SoundDuration":207497,"Delta":89981023},{"NoteNumber":53,"Velocity":25,"Duration":207497,"SoundDuration":207497,"Delta":89981023},{"NoteNumber":86,"Velocity":63,"Duration":214930,"SoundDuration":214930,"Delta":90188521},{"NoteNumber":43,"Velocity":34,"Duration":214930,"SoundDuration":214930,"Delta":90188521},{"NoteNumber":88,"Velocity":56,"Duration":214930,"SoundDuration":214930,"Delta":90403451},{"NoteNumber":53,"Velocity":30,"Duration":214930,"SoundDuration":214930,"Delta":90403451},{"NoteNumber":86,"Velocity":69,"Duration":110635,"SoundDuration":110635,"Delta":90618382},{"NoteNumber":43,"Velocity":45,"Duration":221271,"SoundDuration":221271,"Delta":90618382},{"NoteNumber":53,"Velocity":31,"Duration":221271,"SoundDuration":221271,"Delta":90839653},{"NoteNumber":88,"Velocity":58,"Duration":55317,"SoundDuration":55317,"Delta":91005607},{"NoteNumber":86,"Velocity":66,"Duration":208942,"SoundDuration":208942,"Delta":91060925},{"NoteNumber":47,"Velocity":34,"Duration":208942,"SoundDuration":208942,"Delta":91060925},{"NoteNumber":84,"Velocity":63,"Duration":208942,"SoundDuration":208942,"Delta":91269868},{"NoteNumber":53,"Velocity":25,"Duration":208942,"SoundDuration":208942,"Delta":91269868},{"NoteNumber":86,"Velocity":65,"Duration":214930,"SoundDuration":214930,"Delta":91478810},{"NoteNumber":43,"Velocity":34,"Duration":214930,"SoundDuration":214930,"Delta":91478810},{"NoteNumber":88,"Velocity":59,"Duration":214930,"SoundDuration":214930,"Delta":91693741},{"NoteNumber":53,"Velocity":30,"Duration":214930,"SoundDuration":214930,"Delta":91693741},{"NoteNumber":84,"Velocity":69,"Duration":110635,"SoundDuration":110635,"Delta":91908671},{"NoteNumber":48,"Velocity":45,"Duration":221271,"SoundDuration":221271,"Delta":91908671},{"NoteNumber":52,"Velocity":48,"Duration":221271,"SoundDuration":221271,"Delta":91908671},{"NoteNumber":86,"Velocity":58,"Duration":55317,"SoundDuration":55317,"Delta":92295896},{"NoteNumber":84,"Velocity":66,"Duration":208942,"SoundDuration":208942,"Delta":92351214},{"NoteNumber":83,"Velocity":63,"Duration":208942,"SoundDuration":208942,"Delta":92560157},{"NoteNumber":84,"Velocity":65,"Duration":214930,"SoundDuration":214930,"Delta":92769100},{"NoteNumber":88,"Velocity":59,"Duration":214930,"SoundDuration":214930,"Delta":92984030},{"NoteNumber":79,"Velocity":69,"Duration":110635,"SoundDuration":110635,"Delta":93198961},{"NoteNumber":48,"Velocity":45,"Duration":221271,"SoundDuration":221271,"Delta":93198961},{"NoteNumber":52,"Velocity":48,"Duration":221271,"SoundDuration":221271,"Delta":93198961},{"NoteNumber":81,"Velocity":58,"Duration":55317,"SoundDuration":55317,"Delta":93586186},{"NoteNumber":79,"Velocity":66,"Duration":208942,"SoundDuration":208942,"Delta":93641504},{"NoteNumber":78,"Velocity":63,"Duration":208942,"SoundDuration":208942,"Delta":93850447},{"NoteNumber":79,"Velocity":65,"Duration":214930,"SoundDuration":214930,"Delta":94059389},{"NoteNumber":84,"Velocity":59,"Duration":214930,"SoundDuration":214930,"Delta":94274320},{"NoteNumber":76,"Velocity":69,"Duration":110635,"SoundDuration":110635,"Delta":94489250},{"NoteNumber":48,"Velocity":45,"Duration":221271,"SoundDuration":221271,"Delta":94489250},{"NoteNumber":52,"Velocity":48,"Duration":221271,"SoundDuration":221271,"Delta":94489250},{"NoteNumber":77,"Velocity":58,"Duration":55317,"SoundDuration":55317,"Delta":94876475},{"NoteNumber":76,"Velocity":66,"Duration":208942,"SoundDuration":208942,"Delta":94931793},{"NoteNumber":74,"Velocity":63,"Duration":208942,"SoundDuration":208942,"Delta":95140736},{"NoteNumber":76,"Velocity":65,"Duration":214930,"SoundDuration":214930,"Delta":95349679},{"NoteNumber":79,"Velocity":59,"Duration":214930,"SoundDuration":214930,"Delta":95564609},{"NoteNumber":72,"Velocity":69,"Duration":214930,"SoundDuration":214930,"Delta":95779540},{"NoteNumber":48,"Velocity":45,"Duration":214930,"SoundDuration":214930,"Delta":95779540},{"NoteNumber":52,"Velocity":48,"Duration":214930,"SoundDuration":214930,"Delta":95779540},{"NoteNumber":72,"Velocity":69,"Duration":214930,"SoundDuration":214930,"Delta":96209401},{"NoteNumber":48,"Velocity":45,"Duration":214930,"SoundDuration":214930,"Delta":96209401},{"NoteNumber":52,"Velocity":48,"Duration":214930,"SoundDuration":214930,"Delta":96209401},{"NoteNumber":72,"Velocity":69,"Duration":214930,"SoundDuration":214930,"Delta":96639262},{"NoteNumber":48,"Velocity":45,"Duration":214930,"SoundDuration":214930,"Delta":96639262},{"NoteNumber":52,"Velocity":48,"Duration":214930,"SoundDuration":214930,"Delta":96639262},{"NoteNumber":72,"Velocity":69,"Duration":1292810,"SoundDuration":1292810,"Delta":97069123},{"NoteNumber":36,"Velocity":48,"Duration":1292810,"SoundDuration":1292810,"Delta":97069123},{"NoteNumber":48,"Velocity":33,"Duration":214930,"SoundDuration":214930,"Delta":97284053},{"NoteNumber":43,"Velocity":39,"Duration":214930,"SoundDuration":214930,"Delta":97498984},{"NoteNumber":48,"Velocity":29,"Duration":214930,"SoundDuration":214930,"Delta":97713914},{"NoteNumber":43,"Velocity":34,"Duration":214930,"SoundDuration":214930,"Delta":97928845},{"NoteNumber":48,"Velocity":29,"Duration":218158,"SoundDuration":218158,"Delta":98143775},{"NoteNumber":60,"Velocity":37,"Duration":55155,"SoundDuration":55155,"Delta":98251241},{"NoteNumber":62,"Velocity":37,"Duration":108887,"SoundDuration":108887,"Delta":98306396},{"NoteNumber":64,"Velocity":44,"Duration":853605,"SoundDuration":853605,"Delta":98361934},{"NoteNumber":36,"Velocity":30,"Duration":1265750,"SoundDuration":1265750,"Delta":98361934},{"NoteNumber":48,"Velocity":19,"Duration":213401,"SoundDuration":213401,"Delta":98575335},{"NoteNumber":43,"Velocity":24,"Duration":213401,"SoundDuration":213401,"Delta":98788737},{"NoteNumber":48,"Velocity":19,"Duration":213401,"SoundDuration":213401,"Delta":99002138},{"NoteNumber":64,"Velocity":44,"Duration":103036,"SoundDuration":103036,"Delta":99215540},{"NoteNumber":43,"Velocity":24,"Duration":206072,"SoundDuration":206072,"Delta":99215540},{"NoteNumber":62,"Velocity":38,"Duration":103036,"SoundDuration":103036,"Delta":99318576},{"NoteNumber":60,"Velocity":38,"Duration":103036,"SoundDuration":103036,"Delta":99421612},{"NoteNumber":48,"Velocity":19,"Duration":206072,"SoundDuration":206072,"Delta":99421612},{"NoteNumber":62,"Velocity":38,"Duration":103036,"SoundDuration":103036,"Delta":99524648},{"NoteNumber":60,"Velocity":44,"Duration":426803,"SoundDuration":426803,"Delta":99627684},{"NoteNumber":36,"Velocity":30,"Duration":1284401,"SoundDuration":1284401,"Delta":99627684},{"NoteNumber":48,"Velocity":19,"Duration":213401,"SoundDuration":213401,"Delta":99841086},{"NoteNumber":55,"Velocity":34,"Duration":106700,"SoundDuration":106700,"Delta":100054487},{"NoteNumber":43,"Velocity":24,"Duration":213401,"SoundDuration":213401,"Delta":100054487},{"NoteNumber":48,"Velocity":19,"Duration":213401,"SoundDuration":213401,"Delta":100267889},{"NoteNumber":55,"Velocity":34,"Duration":106700,"SoundDuration":106700,"Delta":100481290},{"NoteNumber":43,"Velocity":24,"Duration":213401,"SoundDuration":213401,"Delta":100481290},{"NoteNumber":48,"Velocity":19,"Duration":217393,"SoundDuration":217393,"Delta":100694692},{"NoteNumber":60,"Velocity":35,"Duration":55155,"SoundDuration":55155,"Delta":100801392},{"NoteNumber":62,"Velocity":35,"Duration":108887,"SoundDuration":108887,"Delta":100856548},{"NoteNumber":64,"Velocity":42,"Duration":853605,"SoundDuration":853605,"Delta":100912085},{"NoteNumber":36,"Velocity":30,"Duration":1265750,"SoundDuration":1265750,"Delta":100912085},{"NoteNumber":48,"Velocity":18,"Duration":213401,"SoundDuration":213401,"Delta":101125487},{"NoteNumber":43,"Velocity":22,"Duration":213401,"SoundDuration":213401,"Delta":101338888},{"NoteNumber":48,"Velocity":17,"Duration":213401,"SoundDuration":213401,"Delta":101552290},{"NoteNumber":64,"Velocity":34,"Duration":103036,"SoundDuration":103036,"Delta":101765691},{"NoteNumber":43,"Velocity":20,"Duration":206072,"SoundDuration":206072,"Delta":101765691},{"NoteNumber":62,"Velocity":29,"Duration":103036,"SoundDuration":103036,"Delta":101868727},{"NoteNumber":60,"Velocity":29,"Duration":103036,"SoundDuration":103036,"Delta":101971764},{"NoteNumber":48,"Velocity":15,"Duration":206072,"SoundDuration":206072,"Delta":101971764},{"NoteNumber":62,"Velocity":28,"Duration":103036,"SoundDuration":103036,"Delta":102074800},{"NoteNumber":60,"Velocity":32,"Duration":436109,"SoundDuration":436109,"Delta":102177836},{"NoteNumber":36,"Velocity":24,"Duration":1378829,"SoundDuration":1378829,"Delta":102177836},{"NoteNumber":48,"Velocity":15,"Duration":218054,"SoundDuration":218054,"Delta":102395891},{"NoteNumber":43,"Velocity":19,"Duration":226620,"SoundDuration":226620,"Delta":102613946},{"NoteNumber":48,"Velocity":15,"Duration":226620,"SoundDuration":226620,"Delta":102840566},{"NoteNumber":43,"Velocity":19,"Duration":235515,"SoundDuration":235515,"Delta":103067186},{"NoteNumber":48,"Velocity":15,"Duration":253963,"SoundDuration":253963,"Delta":103302702},{"NoteNumber":52,"Velocity":22,"Duration":550384,"SoundDuration":550384,"Delta":103556665},{"NoteNumber":55,"Velocity":25,"Duration":550384,"SoundDuration":550384,"Delta":103556665},{"NoteNumber":36,"Velocity":24,"Duration":2084828,"SoundDuration":2084828,"Delta":103556665},{"NoteNumber":48,"Velocity":15,"Duration":284103,"SoundDuration":284103,"Delta":103822946},{"NoteNumber":43,"Velocity":19,"Duration":293742,"SoundDuration":293742,"Delta":104107050},{"NoteNumber":48,"Velocity":15,"Duration":324646,"SoundDuration":324646,"Delta":104400793},{"NoteNumber":43,"Velocity":19,"Duration":383951,"SoundDuration":383951,"Delta":104725439},{"NoteNumber":48,"Velocity":15,"Duration":532103,"SoundDuration":532103,"Delta":105109391},{"NoteNumber":52,"Velocity":19,"Duration":1064206,"SoundDuration":1064206,"Delta":105641494},{"NoteNumber":60,"Velocity":22,"Duration":1064206,"SoundDuration":1064206,"Delta":105641494},{"NoteNumber":36,"Velocity":21,"Duration":1064206,"SoundDuration":1064206,"Delta":105641494}],"license":{"name":"Creative Commons Attribution-ShareAlike 3.0 Germany","url":"http://creativecommons.org/licenses/by-sa/3.0/de/deed.en","text":"The MIDI, audio (MP3, OGG) and video files of Bernd Krueger are licensed under the cc-by-sa Germany License. This means that you can use and adapt the files, as long as you attribute the copyright holder.\n\nName: Bernd Krueger\nSource: http://www.piano-midi.de\n\nThe distribution or public playback of the files is only allowed under identical license conditions.\n\nThe scores are open source.","attribution":"MIDI files by Bernd Krueger (piano-midi.de)"}}