{"title":"Aragon","artist":"Piano","durationMs":238181,"midiSha256":"84ba3532bf6cadbc6c49836b0c8ac505c0bccdeb3d0ed9a1c3cf4f9103d73073","midiObject":[{"NoteNumber":69,"Velocity":46,"Duration":279070,"SoundDuration":279070,"Delta":0},{"NoteNumber":77,"Velocity":56,"Duration":279070,"SoundDuration":279070,"Delta":0},{"NoteNumber":53,"Velocity":42,"Duration":279070,"SoundDuration":279070,"Delta":0},{"NoteNumber":60,"Velocity":42,"Duration":279070,"SoundDuration":279070,"Delta":0},{"NoteNumber":65,"Velocity":42,"Duration":279070,"SoundDuration":279070,"Delta":0},{"NoteNumber":69,"Velocity":46,"Duration":272727,"SoundDuration":272727,"Delta":279070},{"NoteNumber":76,"Velocity":50,"Duration":90909,"SoundDuration":90909,"Delta":279070},{"NoteNumber":64,"Velocity":37,"Duration":90909,"SoundDuration":90909,"Delta":279070},{"NoteNumber":77,"Velocity":47,"Duration":90909,"SoundDuration":90909,"Delta":369979},{"NoteNumber":65,"Velocity":35,"Duration":90909,"SoundDuration":90909,"Delta":369979},{"NoteNumber":76,"Velocity":47,"Duration":90909,"SoundDuration":90909,"Delta":460888},{"NoteNumber":64,"Velocity":35,"Duration":90909,"SoundDuration":90909,"Delta":460888},{"NoteNumber":74,"Velocity":50,"Duration":135746,"SoundDuration":135746,"Delta":551797},{"NoteNumber":69,"Velocity":33,"Duration":275933,"SoundDuration":275933,"Delta":551797},{"NoteNumber":62,"Velocity":37,"Duration":135746,"SoundDuration":135746,"Delta":551797},{"NoteNumber":76,"Velocity":47,"Duration":140187,"SoundDuration":140187,"Delta":687543},{"NoteNumber":64,"Velocity":35,"Duration":140187,"SoundDuration":140187,"Delta":687543},{"NoteNumber":69,"Velocity":34,"Duration":280870,"SoundDuration":280870,"Delta":827731},{"NoteNumber":77,"Velocity":53,"Duration":134529,"SoundDuration":134529,"Delta":827731},{"NoteNumber":65,"Velocity":40,"Duration":134529,"SoundDuration":134529,"Delta":827731},{"NoteNumber":74,"Velocity":49,"Duration":146341,"SoundDuration":146341,"Delta":962260},{"NoteNumber":62,"Velocity":36,"Duration":146341,"SoundDuration":146341,"Delta":962260},{"NoteNumber":69,"Velocity":43,"Duration":107142,"SoundDuration":107142,"Delta":1108601},{"NoteNumber":76,"Velocity":51,"Duration":107142,"SoundDuration":107142,"Delta":1108601},{"NoteNumber":64,"Velocity":38,"Duration":107142,"SoundDuration":107142,"Delta":1108601},{"NoteNumber":69,"Velocity":38,"Duration":109223,"SoundDuration":109223,"Delta":1394316},{"NoteNumber":72,"Velocity":44,"Duration":109223,"SoundDuration":109223,"Delta":1394316},{"NoteNumber":60,"Velocity":32,"Duration":109223,"SoundDuration":109223,"Delta":1394316},{"NoteNumber":77,"Velocity":56,"Duration":279069,"SoundDuration":279069,"Delta":1685578},{"NoteNumber":69,"Velocity":46,"Duration":279069,"SoundDuration":279069,"Delta":1685578},{"NoteNumber":60,"Velocity":42,"Duration":279069,"SoundDuration":279069,"Delta":1685578},{"NoteNumber":53,"Velocity":42,"Duration":279069,"SoundDuration":279069,"Delta":1685578},{"NoteNumber":65,"Velocity":42,"Duration":279069,"SoundDuration":279069,"Delta":1685578},{"NoteNumber":69,"Velocity":46,"Duration":272727,"SoundDuration":272727,"Delta":1964648},{"NoteNumber":76,"Velocity":50,"Duration":90909,"SoundDuration":90909,"Delta":1964648},{"NoteNumber":64,"Velocity":37,"Duration":90909,"SoundDuration":90909,"Delta":1964648},{"NoteNumber":77,"Velocity":47,"Duration":90909,"SoundDuration":90909,"Delta":2055557},{"NoteNumber":65,"Velocity":35,"Duration":90909,"SoundDuration":90909,"Delta":2055557},{"NoteNumber":76,"Velocity":47,"Duration":90909,"SoundDuration":90909,"Delta":2146466},{"NoteNumber":64,"Velocity":35,"Duration":90909,"SoundDuration":90909,"Delta":2146466},{"NoteNumber":69,"Velocity":32,"Duration":275933,"SoundDuration":275933,"Delta":2237375},{"NoteNumber":74,"Velocity":50,"Duration":135746,"SoundDuration":135746,"Delta":2237375},{"NoteNumber":62,"Velocity":37,"Duration":135746,"SoundDuration":135746,"Delta":2237375},{"NoteNumber":76,"Velocity":47,"Duration":140187,"SoundDuration":140187,"Delta":2373122},{"NoteNumber":64,"Velocity":35,"Duration":140187,"SoundDuration":140187,"Delta":2373122},{"NoteNumber":77,"Velocity":53,"Duration":134529,"SoundDuration":134529,"Delta":2513309},{"NoteNumber":69,"Velocity":33,"Duration":280160,"SoundDuration":280160,"Delta":2513309},{"NoteNumber":65,"Velocity":40,"Duration":134529,"SoundDuration":134529,"Delta":2513309},{"NoteNumber":74,"Velocity":49,"Duration":145630,"SoundDuration":145630,"Delta":2647838},{"NoteNumber":62,"Velocity":36,"Duration":145630,"SoundDuration":145630,"Delta":2647838},{"NoteNumber":69,"Velocity":43,"Duration":107142,"SoundDuration":107142,"Delta":2793469},{"NoteNumber":76,"Velocity":51,"Duration":107142,"SoundDuration":107142,"Delta":2793469},{"NoteNumber":64,"Velocity":38,"Duration":107142,"SoundDuration":107142,"Delta":2793469},{"NoteNumber":72,"Velocity":44,"Duration":109223,"SoundDuration":109223,"Delta":3079183},{"NoteNumber":69,"Velocity":38,"Duration":109223,"SoundDuration":109223,"Delta":3079183},{"NoteNumber":60,"Velocity":32,"Duration":109223,"SoundDuration":109223,"Delta":3079183},{"NoteNumber":69,"Velocity":43,"Duration":276497,"SoundDuration":276497,"Delta":3370446},{"NoteNumber":74,"Velocity":58,"Duration":138248,"SoundDuration":138248,"Delta":3370446},{"NoteNumber":62,"Velocity":44,"Duration":138248,"SoundDuration":138248,"Delta":3370446},{"NoteNumber":76,"Velocity":52,"Duration":138248,"SoundDuration":138248,"Delta":3508694},{"NoteNumber":64,"Velocity":39,"Duration":138248,"SoundDuration":138248,"Delta":3508694},{"NoteNumber":72,"Velocity":54,"Duration":252403,"SoundDuration":252403,"Delta":3646943},{"NoteNumber":69,"Velocity":38,"Duration":252403,"SoundDuration":252403,"Delta":3646943},{"NoteNumber":60,"Velocity":36,"Duration":252403,"SoundDuration":252403,"Delta":3646943},{"NoteNumber":69,"Velocity":43,"Duration":275898,"SoundDuration":275898,"Delta":3935405},{"NoteNumber":74,"Velocity":58,"Duration":136363,"SoundDuration":136363,"Delta":3935405},{"NoteNumber":62,"Velocity":44,"Duration":136363,"SoundDuration":136363,"Delta":3935405},{"NoteNumber":76,"Velocity":60,"Duration":139535,"SoundDuration":139535,"Delta":4071768},{"NoteNumber":64,"Velocity":45,"Duration":139535,"SoundDuration":139535,"Delta":4071768},{"NoteNumber":77,"Velocity":64,"Duration":244186,"SoundDuration":244186,"Delta":4211303},{"NoteNumber":69,"Velocity":45,"Duration":244186,"SoundDuration":244186,"Delta":4211303},{"NoteNumber":65,"Velocity":48,"Duration":244186,"SoundDuration":244186,"Delta":4211303},{"NoteNumber":69,"Velocity":43,"Duration":276497,"SoundDuration":276497,"Delta":4490373},{"NoteNumber":74,"Velocity":58,"Duration":138248,"SoundDuration":138248,"Delta":4490373},{"NoteNumber":62,"Velocity":44,"Duration":138248,"SoundDuration":138248,"Delta":4490373},{"NoteNumber":76,"Velocity":52,"Duration":138248,"SoundDuration":138248,"Delta":4628622},{"NoteNumber":64,"Velocity":39,"Duration":138248,"SoundDuration":138248,"Delta":4628622},{"NoteNumber":72,"Velocity":48,"Duration":253623,"SoundDuration":253623,"Delta":4766871},{"NoteNumber":69,"Velocity":34,"Duration":253623,"SoundDuration":253623,"Delta":4766871},{"NoteNumber":60,"Velocity":32,"Duration":253623,"SoundDuration":253623,"Delta":4766871},{"NoteNumber":69,"Velocity":41,"Duration":273995,"SoundDuration":273995,"Delta":5056726},{"NoteNumber":74,"Velocity":56,"Duration":135746,"SoundDuration":135746,"Delta":5056726},{"NoteNumber":62,"Velocity":42,"Duration":135746,"SoundDuration":135746,"Delta":5056726},{"NoteNumber":76,"Velocity":51,"Duration":138248,"SoundDuration":138248,"Delta":5192472},{"NoteNumber":64,"Velocity":38,"Duration":138248,"SoundDuration":138248,"Delta":5192472},{"NoteNumber":72,"Velocity":47,"Duration":250601,"SoundDuration":250601,"Delta":5330721},{"NoteNumber":69,"Velocity":32,"Duration":250601,"SoundDuration":250601,"Delta":5330721},{"NoteNumber":60,"Velocity":31,"Duration":250601,"SoundDuration":250601,"Delta":5330721},{"NoteNumber":69,"Velocity":46,"Duration":279070,"SoundDuration":279070,"Delta":5617907},{"NoteNumber":74,"Velocity":52,"Duration":139535,"SoundDuration":139535,"Delta":5617907},{"NoteNumber":62,"Velocity":36,"Duration":139535,"SoundDuration":139535,"Delta":5617907},{"NoteNumber":76,"Velocity":54,"Duration":139535,"SoundDuration":139535,"Delta":5757442},{"NoteNumber":64,"Velocity":38,"Duration":139535,"SoundDuration":139535,"Delta":5757442},{"NoteNumber":79,"Velocity":57,"Duration":138888,"SoundDuration":138888,"Delta":5896978},{"NoteNumber":69,"Velocity":43,"Duration":283119,"SoundDuration":283119,"Delta":5896978},{"NoteNumber":67,"Velocity":43,"Duration":138888,"SoundDuration":138888,"Delta":5896978},{"NoteNumber":77,"Velocity":51,"Duration":144230,"SoundDuration":144230,"Delta":6035867},{"NoteNumber":65,"Velocity":38,"Duration":144230,"SoundDuration":144230,"Delta":6035867},{"NoteNumber":69,"Velocity":43,"Duration":287140,"SoundDuration":287140,"Delta":6180097},{"NoteNumber":74,"Velocity":55,"Duration":141509,"SoundDuration":141509,"Delta":6180097},{"NoteNumber":62,"Velocity":42,"Duration":141509,"SoundDuration":141509,"Delta":6180097},{"NoteNumber":76,"Velocity":54,"Duration":145630,"SoundDuration":145630,"Delta":6321607},{"NoteNumber":64,"Velocity":40,"Duration":145630,"SoundDuration":145630,"Delta":6321607},{"NoteNumber":72,"Velocity":49,"Duration":291261,"SoundDuration":291261,"Delta":6467238},{"NoteNumber":69,"Velocity":40,"Duration":291261,"SoundDuration":291261,"Delta":6467238},{"NoteNumber":60,"Velocity":36,"Duration":291261,"SoundDuration":291261,"Delta":6467238},{"NoteNumber":73,"Velocity":43,"Duration":279069,"SoundDuration":279069,"Delta":6758500},{"NoteNumber":81,"Velocity":52,"Duration":279069,"SoundDuration":279069,"Delta":6758500},{"NoteNumber":64,"Velocity":38,"Duration":279069,"SoundDuration":279069,"Delta":6758500},{"NoteNumber":57,"Velocity":38,"Duration":279069,"SoundDuration":279069,"Delta":6758500},{"NoteNumber":69,"Velocity":44,"Duration":279069,"SoundDuration":279069,"Delta":6758500},{"NoteNumber":80,"Velocity":47,"Duration":90909,"SoundDuration":90909,"Delta":7037570},{"NoteNumber":73,"Velocity":43,"Duration":272727,"SoundDuration":272727,"Delta":7037570},{"NoteNumber":68,"Velocity":38,"Duration":90909,"SoundDuration":90909,"Delta":7037570},{"NoteNumber":81,"Velocity":44,"Duration":90909,"SoundDuration":90909,"Delta":7128479},{"NoteNumber":69,"Velocity":36,"Duration":90909,"SoundDuration":90909,"Delta":7128479},{"NoteNumber":80,"Velocity":44,"Duration":90909,"SoundDuration":90909,"Delta":7219388},{"NoteNumber":68,"Velocity":36,"Duration":90909,"SoundDuration":90909,"Delta":7219388},{"NoteNumber":73,"Velocity":37,"Duration":275933,"SoundDuration":275933,"Delta":7310297},{"NoteNumber":78,"Velocity":47,"Duration":135746,"SoundDuration":135746,"Delta":7310297},{"NoteNumber":66,"Velocity":38,"Duration":135746,"SoundDuration":135746,"Delta":7310297},{"NoteNumber":80,"Velocity":44,"Duration":140187,"SoundDuration":140187,"Delta":7446044},{"NoteNumber":68,"Velocity":36,"Duration":140187,"SoundDuration":140187,"Delta":7446044},{"NoteNumber":73,"Velocity":36,"Duration":278760,"SoundDuration":278760,"Delta":7586231},{"NoteNumber":81,"Velocity":49,"Duration":134529,"SoundDuration":134529,"Delta":7586231},{"NoteNumber":69,"Velocity":42,"Duration":134529,"SoundDuration":134529,"Delta":7586231},{"NoteNumber":78,"Velocity":46,"Duration":144230,"SoundDuration":144230,"Delta":7720760},{"NoteNumber":66,"Velocity":37,"Duration":144230,"SoundDuration":144230,"Delta":7720760},{"NoteNumber":80,"Velocity":47,"Duration":107142,"SoundDuration":107142,"Delta":7864991},{"NoteNumber":73,"Velocity":39,"Duration":107142,"SoundDuration":107142,"Delta":7864991},{"NoteNumber":68,"Velocity":39,"Duration":107142,"SoundDuration":107142,"Delta":7864991},{"NoteNumber":73,"Velocity":39,"Duration":109223,"SoundDuration":109223,"Delta":8150705},{"NoteNumber":76,"Velocity":46,"Duration":109223,"SoundDuration":109223,"Delta":8150705},{"NoteNumber":64,"Velocity":37,"Duration":109223,"SoundDuration":109223,"Delta":8150705},{"NoteNumber":73,"Velocity":43,"Duration":279070,"SoundDuration":279070,"Delta":8441967},{"NoteNumber":81,"Velocity":52,"Duration":279070,"SoundDuration":279070,"Delta":8441967},{"NoteNumber":64,"Velocity":38,"Duration":279070,"SoundDuration":279070,"Delta":8441967},{"NoteNumber":57,"Velocity":38,"Duration":279070,"SoundDuration":279070,"Delta":8441967},{"NoteNumber":69,"Velocity":44,"Duration":279070,"SoundDuration":279070,"Delta":8441967},{"NoteNumber":73,"Velocity":43,"Duration":272727,"SoundDuration":272727,"Delta":8721037},{"NoteNumber":80,"Velocity":47,"Duration":90909,"SoundDuration":90909,"Delta":8721037},{"NoteNumber":68,"Velocity":38,"Duration":90909,"SoundDuration":90909,"Delta":8721037},{"NoteNumber":81,"Velocity":44,"Duration":90909,"SoundDuration":90909,"Delta":8811946},{"NoteNumber":69,"Velocity":36,"Duration":90909,"SoundDuration":90909,"Delta":8811946},{"NoteNumber":80,"Velocity":44,"Duration":90909,"SoundDuration":90909,"Delta":8902856},{"NoteNumber":68,"Velocity":36,"Duration":90909,"SoundDuration":90909,"Delta":8902856},{"NoteNumber":73,"Velocity":37,"Duration":275933,"SoundDuration":275933,"Delta":8993765},{"NoteNumber":78,"Velocity":47,"Duration":135746,"SoundDuration":135746,"Delta":8993765},{"NoteNumber":66,"Velocity":38,"Duration":135746,"SoundDuration":135746,"Delta":8993765},{"NoteNumber":80,"Velocity":44,"Duration":140186,"SoundDuration":140186,"Delta":9129511},{"NoteNumber":68,"Velocity":36,"Duration":140186,"SoundDuration":140186,"Delta":9129511},{"NoteNumber":73,"Velocity":36,"Duration":278760,"SoundDuration":278760,"Delta":9269698},{"NoteNumber":81,"Velocity":49,"Duration":134529,"SoundDuration":134529,"Delta":9269698},{"NoteNumber":69,"Velocity":42,"Duration":134529,"SoundDuration":134529,"Delta":9269698},{"NoteNumber":78,"Velocity":46,"Duration":144230,"SoundDuration":144230,"Delta":9404227},{"NoteNumber":66,"Velocity":37,"Duration":144230,"SoundDuration":144230,"Delta":9404227},{"NoteNumber":80,"Velocity":47,"Duration":107142,"SoundDuration":107142,"Delta":9548458},{"NoteNumber":73,"Velocity":39,"Duration":107142,"SoundDuration":107142,"Delta":9548458},{"NoteNumber":68,"Velocity":39,"Duration":107142,"SoundDuration":107142,"Delta":9548458},{"NoteNumber":73,"Velocity":39,"Duration":109223,"SoundDuration":109223,"Delta":9834173},{"NoteNumber":76,"Velocity":46,"Duration":109223,"SoundDuration":109223,"Delta":9834173},{"NoteNumber":64,"Velocity":37,"Duration":109223,"SoundDuration":109223,"Delta":9834173},{"NoteNumber":73,"Velocity":45,"Duration":276497,"SoundDuration":276497,"Delta":10125435},{"NoteNumber":78,"Velocity":54,"Duration":138248,"SoundDuration":138248,"Delta":10125435},{"NoteNumber":66,"Velocity":46,"Duration":138248,"SoundDuration":138248,"Delta":10125435},{"NoteNumber":80,"Velocity":48,"Duration":138248,"SoundDuration":138248,"Delta":10263683},{"NoteNumber":68,"Velocity":40,"Duration":138248,"SoundDuration":138248,"Delta":10263683},{"NoteNumber":73,"Velocity":40,"Duration":252403,"SoundDuration":252403,"Delta":10401932},{"NoteNumber":76,"Velocity":50,"Duration":252403,"SoundDuration":252403,"Delta":10401932},{"NoteNumber":64,"Velocity":37,"Duration":252403,"SoundDuration":252403,"Delta":10401932},{"NoteNumber":73,"Velocity":45,"Duration":275898,"SoundDuration":275898,"Delta":10690394},{"NoteNumber":78,"Velocity":54,"Duration":136363,"SoundDuration":136363,"Delta":10690394},{"NoteNumber":66,"Velocity":46,"Duration":136363,"SoundDuration":136363,"Delta":10690394},{"NoteNumber":80,"Velocity":56,"Duration":139535,"SoundDuration":139535,"Delta":10826757},{"NoteNumber":68,"Velocity":47,"Duration":139535,"SoundDuration":139535,"Delta":10826757},{"NoteNumber":73,"Velocity":47,"Duration":244186,"SoundDuration":244186,"Delta":10966292},{"NoteNumber":81,"Velocity":59,"Duration":244186,"SoundDuration":244186,"Delta":10966292},{"NoteNumber":69,"Velocity":50,"Duration":244186,"SoundDuration":244186,"Delta":10966292},{"NoteNumber":73,"Velocity":45,"Duration":276497,"SoundDuration":276497,"Delta":11245362},{"NoteNumber":78,"Velocity":54,"Duration":138248,"SoundDuration":138248,"Delta":11245362},{"NoteNumber":66,"Velocity":46,"Duration":138248,"SoundDuration":138248,"Delta":11245362},{"NoteNumber":80,"Velocity":48,"Duration":138248,"SoundDuration":138248,"Delta":11383611},{"NoteNumber":68,"Velocity":40,"Duration":138248,"SoundDuration":138248,"Delta":11383611},{"NoteNumber":73,"Velocity":36,"Duration":253623,"SoundDuration":253623,"Delta":11521860},{"NoteNumber":76,"Velocity":45,"Duration":253623,"SoundDuration":253623,"Delta":11521860},{"NoteNumber":64,"Velocity":33,"Duration":253623,"SoundDuration":253623,"Delta":11521860},{"NoteNumber":73,"Velocity":43,"Duration":273995,"SoundDuration":273995,"Delta":11811715},{"NoteNumber":78,"Velocity":52,"Duration":135746,"SoundDuration":135746,"Delta":11811715},{"NoteNumber":66,"Velocity":44,"Duration":135746,"SoundDuration":135746,"Delta":11811715},{"NoteNumber":80,"Velocity":47,"Duration":138248,"SoundDuration":138248,"Delta":11947461},{"NoteNumber":68,"Velocity":39,"Duration":138248,"SoundDuration":138248,"Delta":11947461},{"NoteNumber":73,"Velocity":34,"Duration":250601,"SoundDuration":250601,"Delta":12085710},{"NoteNumber":76,"Velocity":44,"Duration":250601,"SoundDuration":250601,"Delta":12085710},{"NoteNumber":64,"Velocity":32,"Duration":250601,"SoundDuration":250601,"Delta":12085710},{"NoteNumber":73,"Velocity":48,"Duration":279070,"SoundDuration":279070,"Delta":12372897},{"NoteNumber":78,"Velocity":48,"Duration":139535,"SoundDuration":139535,"Delta":12372897},{"NoteNumber":66,"Velocity":37,"Duration":139535,"SoundDuration":139535,"Delta":12372897},{"NoteNumber":80,"Velocity":50,"Duration":139535,"SoundDuration":139535,"Delta":12512432},{"NoteNumber":68,"Velocity":39,"Duration":139535,"SoundDuration":139535,"Delta":12512432},{"NoteNumber":73,"Velocity":45,"Duration":283119,"SoundDuration":283119,"Delta":12651967},{"NoteNumber":83,"Velocity":53,"Duration":138889,"SoundDuration":138889,"Delta":12651967},{"NoteNumber":71,"Velocity":45,"Duration":138889,"SoundDuration":138889,"Delta":12651967},{"NoteNumber":81,"Velocity":47,"Duration":144230,"SoundDuration":144230,"Delta":12790856},{"NoteNumber":69,"Velocity":39,"Duration":144230,"SoundDuration":144230,"Delta":12790856},{"NoteNumber":78,"Velocity":51,"Duration":141509,"SoundDuration":141509,"Delta":12935087},{"NoteNumber":73,"Velocity":45,"Duration":287140,"SoundDuration":287140,"Delta":12935087},{"NoteNumber":66,"Velocity":44,"Duration":141509,"SoundDuration":141509,"Delta":12935087},{"NoteNumber":80,"Velocity":50,"Duration":145630,"SoundDuration":145630,"Delta":13076596},{"NoteNumber":68,"Velocity":42,"Duration":145630,"SoundDuration":145630,"Delta":13076596},{"NoteNumber":73,"Velocity":42,"Duration":291261,"SoundDuration":291261,"Delta":13222227},{"NoteNumber":76,"Velocity":46,"Duration":291261,"SoundDuration":291261,"Delta":13222227},{"NoteNumber":64,"Velocity":37,"Duration":291261,"SoundDuration":291261,"Delta":13222227},{"NoteNumber":84,"Velocity":84,"Duration":279070,"SoundDuration":279070,"Delta":13513489},{"NoteNumber":76,"Velocity":56,"Duration":279070,"SoundDuration":279070,"Delta":13513489},{"NoteNumber":48,"Velocity":55,"Duration":139535,"SoundDuration":139535,"Delta":13513489},{"NoteNumber":55,"Velocity":62,"Duration":139535,"SoundDuration":139535,"Delta":13513489},{"NoteNumber":76,"Velocity":56,"Duration":272727,"SoundDuration":272727,"Delta":13792559},{"NoteNumber":83,"Velocity":76,"Duration":90909,"SoundDuration":90909,"Delta":13792559},{"NoteNumber":55,"Velocity":56,"Duration":136363,"SoundDuration":136363,"Delta":13792559},{"NoteNumber":43,"Velocity":50,"Duration":136363,"SoundDuration":136363,"Delta":13792559},{"NoteNumber":84,"Velocity":66,"Duration":90909,"SoundDuration":90909,"Delta":13883468},{"NoteNumber":83,"Velocity":66,"Duration":90909,"SoundDuration":90909,"Delta":13974377},{"NoteNumber":81,"Velocity":72,"Duration":135746,"SoundDuration":135746,"Delta":14065287},{"NoteNumber":76,"Velocity":41,"Duration":275933,"SoundDuration":275933,"Delta":14065287},{"NoteNumber":55,"Velocity":49,"Duration":135746,"SoundDuration":135746,"Delta":14065287},{"NoteNumber":48,"Velocity":43,"Duration":135746,"SoundDuration":135746,"Delta":14065287},{"NoteNumber":83,"Velocity":66,"Duration":140186,"SoundDuration":140186,"Delta":14201033},{"NoteNumber":77,"Velocity":42,"Duration":276038,"SoundDuration":276038,"Delta":14341220},{"NoteNumber":84,"Velocity":76,"Duration":134529,"SoundDuration":134529,"Delta":14341220},{"NoteNumber":50,"Velocity":55,"Duration":134529,"SoundDuration":134529,"Delta":14341220},{"NoteNumber":55,"Velocity":62,"Duration":134529,"SoundDuration":134529,"Delta":14341220},{"NoteNumber":81,"Velocity":67,"Duration":141509,"SoundDuration":141509,"Delta":14475749},{"NoteNumber":77,"Velocity":51,"Duration":107142,"SoundDuration":107142,"Delta":14617259},{"NoteNumber":83,"Velocity":77,"Duration":107142,"SoundDuration":107142,"Delta":14617259},{"NoteNumber":55,"Velocity":56,"Duration":107142,"SoundDuration":107142,"Delta":14617259},{"NoteNumber":43,"Velocity":50,"Duration":107142,"SoundDuration":107142,"Delta":14617259},{"NoteNumber":77,"Velocity":51,"Duration":111940,"SoundDuration":111940,"Delta":14902973},{"NoteNumber":79,"Velocity":73,"Duration":111940,"SoundDuration":111940,"Delta":14902973},{"NoteNumber":55,"Velocity":56,"Duration":111940,"SoundDuration":111940,"Delta":14902973},{"NoteNumber":50,"Velocity":50,"Duration":111940,"SoundDuration":111940,"Delta":14902973},{"NoteNumber":84,"Velocity":84,"Duration":279070,"SoundDuration":279070,"Delta":15201481},{"NoteNumber":76,"Velocity":56,"Duration":279070,"SoundDuration":279070,"Delta":15201481},{"NoteNumber":55,"Velocity":62,"Duration":139535,"SoundDuration":139535,"Delta":15201481},{"NoteNumber":48,"Velocity":55,"Duration":139535,"SoundDuration":139535,"Delta":15201481},{"NoteNumber":76,"Velocity":56,"Duration":272727,"SoundDuration":272727,"Delta":15480551},{"NoteNumber":83,"Velocity":76,"Duration":90909,"SoundDuration":90909,"Delta":15480551},{"NoteNumber":55,"Velocity":56,"Duration":136363,"SoundDuration":136363,"Delta":15480551},{"NoteNumber":43,"Velocity":50,"Duration":136363,"SoundDuration":136363,"Delta":15480551},{"NoteNumber":84,"Velocity":67,"Duration":90909,"SoundDuration":90909,"Delta":15571460},{"NoteNumber":83,"Velocity":67,"Duration":90909,"SoundDuration":90909,"Delta":15662369},{"NoteNumber":76,"Velocity":41,"Duration":275933,"SoundDuration":275933,"Delta":15753278},{"NoteNumber":81,"Velocity":73,"Duration":135746,"SoundDuration":135746,"Delta":15753278},{"NoteNumber":55,"Velocity":49,"Duration":135746,"SoundDuration":135746,"Delta":15753278},{"NoteNumber":48,"Velocity":42,"Duration":135746,"SoundDuration":135746,"Delta":15753278},{"NoteNumber":83,"Velocity":68,"Duration":140186,"SoundDuration":140186,"Delta":15889025},{"NoteNumber":84,"Velocity":77,"Duration":134529,"SoundDuration":134529,"Delta":16029212},{"NoteNumber":77,"Velocity":40,"Duration":276038,"SoundDuration":276038,"Delta":16029212},{"NoteNumber":50,"Velocity":55,"Duration":134529,"SoundDuration":134529,"Delta":16029212},{"NoteNumber":55,"Velocity":62,"Duration":134529,"SoundDuration":134529,"Delta":16029212},{"NoteNumber":81,"Velocity":67,"Duration":141509,"SoundDuration":141509,"Delta":16163741},{"NoteNumber":77,"Velocity":51,"Duration":107142,"SoundDuration":107142,"Delta":16305250},{"NoteNumber":83,"Velocity":77,"Duration":107142,"SoundDuration":107142,"Delta":16305250},{"NoteNumber":43,"Velocity":50,"Duration":107142,"SoundDuration":107142,"Delta":16305250},{"NoteNumber":55,"Velocity":56,"Duration":107142,"SoundDuration":107142,"Delta":16305250},{"NoteNumber":79,"Velocity":73,"Duration":109223,"SoundDuration":109223,"Delta":16590965},{"NoteNumber":77,"Velocity":51,"Duration":109223,"SoundDuration":109223,"Delta":16590965},{"NoteNumber":55,"Velocity":56,"Duration":109223,"SoundDuration":109223,"Delta":16590965},{"NoteNumber":50,"Velocity":50,"Duration":109223,"SoundDuration":109223,"Delta":16590965},{"NoteNumber":60,"Velocity":54,"Duration":145631,"SoundDuration":145631,"Delta":16882227},{"NoteNumber":64,"Velocity":61,"Duration":145631,"SoundDuration":145631,"Delta":16882227},{"NoteNumber":48,"Velocity":45,"Duration":291261,"SoundDuration":291261,"Delta":16882227},{"NoteNumber":55,"Velocity":48,"Duration":145631,"SoundDuration":145631,"Delta":16882227},{"NoteNumber":62,"Velocity":51,"Duration":145630,"SoundDuration":145630,"Delta":17027858},{"NoteNumber":65,"Velocity":57,"Duration":145630,"SoundDuration":145630,"Delta":17027858},{"NoteNumber":56,"Velocity":45,"Duration":145630,"SoundDuration":145630,"Delta":17027858},{"NoteNumber":64,"Velocity":55,"Duration":291261,"SoundDuration":291261,"Delta":17173489},{"NoteNumber":67,"Velocity":62,"Duration":291261,"SoundDuration":291261,"Delta":17173489},{"NoteNumber":58,"Velocity":49,"Duration":291261,"SoundDuration":291261,"Delta":17173489},{"NoteNumber":64,"Velocity":51,"Duration":142179,"SoundDuration":142179,"Delta":17464751},{"NoteNumber":67,"Velocity":57,"Duration":142179,"SoundDuration":142179,"Delta":17464751},{"NoteNumber":58,"Velocity":45,"Duration":142179,"SoundDuration":142179,"Delta":17464751},{"NoteNumber":62,"Velocity":51,"Duration":142292,"SoundDuration":142292,"Delta":17606931},{"NoteNumber":65,"Velocity":57,"Duration":142292,"SoundDuration":142292,"Delta":17606931},{"NoteNumber":56,"Velocity":45,"Duration":142292,"SoundDuration":142292,"Delta":17606931},{"NoteNumber":64,"Velocity":54,"Duration":142857,"SoundDuration":142857,"Delta":17749224},{"NoteNumber":60,"Velocity":48,"Duration":142857,"SoundDuration":142857,"Delta":17749224},{"NoteNumber":55,"Velocity":43,"Duration":142857,"SoundDuration":142857,"Delta":17749224},{"NoteNumber":62,"Velocity":48,"Duration":142518,"SoundDuration":142518,"Delta":17892081},{"NoteNumber":65,"Velocity":54,"Duration":142518,"SoundDuration":142518,"Delta":17892081},{"NoteNumber":56,"Velocity":43,"Duration":142518,"SoundDuration":142518,"Delta":17892081},{"NoteNumber":67,"Velocity":55,"Duration":142179,"SoundDuration":142179,"Delta":18034600},{"NoteNumber":64,"Velocity":49,"Duration":142179,"SoundDuration":142179,"Delta":18034600},{"NoteNumber":58,"Velocity":44,"Duration":142179,"SoundDuration":142179,"Delta":18034600},{"NoteNumber":65,"Velocity":51,"Duration":142179,"SoundDuration":142179,"Delta":18176780},{"NoteNumber":68,"Velocity":57,"Duration":142179,"SoundDuration":142179,"Delta":18176780},{"NoteNumber":60,"Velocity":45,"Duration":142179,"SoundDuration":142179,"Delta":18176780},{"NoteNumber":67,"Velocity":52,"Duration":140844,"SoundDuration":140844,"Delta":18318960},{"NoteNumber":70,"Velocity":58,"Duration":140844,"SoundDuration":140844,"Delta":18318960},{"NoteNumber":61,"Velocity":46,"Duration":140844,"SoundDuration":140844,"Delta":18318960},{"NoteNumber":72,"Velocity":60,"Duration":140845,"SoundDuration":140845,"Delta":18459805},{"NoteNumber":68,"Velocity":54,"Duration":140845,"SoundDuration":140845,"Delta":18459805},{"NoteNumber":63,"Velocity":48,"Duration":140845,"SoundDuration":140845,"Delta":18459805},{"NoteNumber":67,"Velocity":53,"Duration":147783,"SoundDuration":147783,"Delta":18600650},{"NoteNumber":70,"Velocity":59,"Duration":147783,"SoundDuration":147783,"Delta":18600650},{"NoteNumber":61,"Velocity":47,"Duration":147783,"SoundDuration":147783,"Delta":18600650},{"NoteNumber":73,"Velocity":62,"Duration":140844,"SoundDuration":140844,"Delta":18748433},{"NoteNumber":70,"Velocity":55,"Duration":140844,"SoundDuration":140844,"Delta":18748433},{"NoteNumber":65,"Velocity":49,"Duration":140844,"SoundDuration":140844,"Delta":18748433},{"NoteNumber":68,"Velocity":55,"Duration":140845,"SoundDuration":140845,"Delta":18889278},{"NoteNumber":72,"Velocity":62,"Duration":140845,"SoundDuration":140845,"Delta":18889278},{"NoteNumber":64,"Velocity":49,"Duration":140845,"SoundDuration":140845,"Delta":18889278},{"NoteNumber":65,"Velocity":51,"Duration":140844,"SoundDuration":140844,"Delta":19030123},{"NoteNumber":68,"Velocity":57,"Duration":140844,"SoundDuration":140844,"Delta":19030123},{"NoteNumber":60,"Velocity":45,"Duration":140844,"SoundDuration":140844,"Delta":19030123},{"NoteNumber":70,"Velocity":60,"Duration":140844,"SoundDuration":140844,"Delta":19170968},{"NoteNumber":67,"Velocity":54,"Duration":140844,"SoundDuration":140844,"Delta":19170968},{"NoteNumber":61,"Velocity":48,"Duration":140844,"SoundDuration":140844,"Delta":19170968},{"NoteNumber":64,"Velocity":51,"Duration":140845,"SoundDuration":140845,"Delta":19311813},{"NoteNumber":67,"Velocity":57,"Duration":140845,"SoundDuration":140845,"Delta":19311813},{"NoteNumber":58,"Velocity":45,"Duration":140845,"SoundDuration":140845,"Delta":19311813},{"NoteNumber":65,"Velocity":57,"Duration":141509,"SoundDuration":141509,"Delta":19452658},{"NoteNumber":60,"Velocity":51,"Duration":141509,"SoundDuration":141509,"Delta":19452658},{"NoteNumber":56,"Velocity":45,"Duration":141509,"SoundDuration":141509,"Delta":19452658},{"NoteNumber":61,"Velocity":45,"Duration":146341,"SoundDuration":146341,"Delta":19594168},{"NoteNumber":67,"Velocity":51,"Duration":146341,"SoundDuration":146341,"Delta":19594168},{"NoteNumber":58,"Velocity":40,"Duration":146341,"SoundDuration":146341,"Delta":19594168},{"NoteNumber":58,"Velocity":49,"Duration":142179,"SoundDuration":142179,"Delta":19740509},{"NoteNumber":64,"Velocity":55,"Duration":142179,"SoundDuration":142179,"Delta":19740509},{"NoteNumber":55,"Velocity":44,"Duration":142179,"SoundDuration":142179,"Delta":19740509},{"NoteNumber":65,"Velocity":50,"Duration":147058,"SoundDuration":147058,"Delta":19882689},{"NoteNumber":60,"Velocity":45,"Duration":147058,"SoundDuration":147058,"Delta":19882689},{"NoteNumber":56,"Velocity":40,"Duration":147058,"SoundDuration":147058,"Delta":19882689},{"NoteNumber":56,"Velocity":47,"Duration":144230,"SoundDuration":144230,"Delta":20029748},{"NoteNumber":61,"Velocity":53,"Duration":144230,"SoundDuration":144230,"Delta":20029748},{"NoteNumber":53,"Velocity":42,"Duration":144230,"SoundDuration":144230,"Delta":20029748},{"NoteNumber":63,"Velocity":50,"Duration":171428,"SoundDuration":171428,"Delta":20173979},{"NoteNumber":58,"Velocity":45,"Duration":171428,"SoundDuration":171428,"Delta":20173979},{"NoteNumber":55,"Velocity":40,"Duration":171428,"SoundDuration":171428,"Delta":20173979},{"NoteNumber":76,"Velocity":56,"Duration":279070,"SoundDuration":279070,"Delta":20345407},{"NoteNumber":84,"Velocity":84,"Duration":279070,"SoundDuration":279070,"Delta":20345407},{"NoteNumber":55,"Velocity":62,"Duration":139534,"SoundDuration":139534,"Delta":20345407},{"NoteNumber":48,"Velocity":55,"Duration":139534,"SoundDuration":139534,"Delta":20345407},{"NoteNumber":76,"Velocity":56,"Duration":272727,"SoundDuration":272727,"Delta":20624477},{"NoteNumber":83,"Velocity":76,"Duration":90909,"SoundDuration":90909,"Delta":20624477},{"NoteNumber":55,"Velocity":56,"Duration":136363,"SoundDuration":136363,"Delta":20624477},{"NoteNumber":43,"Velocity":50,"Duration":136363,"SoundDuration":136363,"Delta":20624477},{"NoteNumber":84,"Velocity":66,"Duration":90909,"SoundDuration":90909,"Delta":20715386},{"NoteNumber":83,"Velocity":66,"Duration":90909,"SoundDuration":90909,"Delta":20806295},{"NoteNumber":76,"Velocity":42,"Duration":275933,"SoundDuration":275933,"Delta":20897205},{"NoteNumber":81,"Velocity":73,"Duration":135746,"SoundDuration":135746,"Delta":20897205},{"NoteNumber":55,"Velocity":48,"Duration":135746,"SoundDuration":135746,"Delta":20897205},{"NoteNumber":48,"Velocity":43,"Duration":135746,"SoundDuration":135746,"Delta":20897205},{"NoteNumber":83,"Velocity":69,"Duration":140187,"SoundDuration":140187,"Delta":21032951},{"NoteNumber":84,"Velocity":75,"Duration":134529,"SoundDuration":134529,"Delta":21173138},{"NoteNumber":77,"Velocity":41,"Duration":275374,"SoundDuration":275374,"Delta":21173138},{"NoteNumber":55,"Velocity":62,"Duration":134529,"SoundDuration":134529,"Delta":21173138},{"NoteNumber":50,"Velocity":55,"Duration":134529,"SoundDuration":134529,"Delta":21173138},{"NoteNumber":81,"Velocity":66,"Duration":140844,"SoundDuration":140844,"Delta":21307667},{"NoteNumber":77,"Velocity":51,"Duration":107142,"SoundDuration":107142,"Delta":21448512},{"NoteNumber":83,"Velocity":77,"Duration":107142,"SoundDuration":107142,"Delta":21448512},{"NoteNumber":55,"Velocity":56,"Duration":107142,"SoundDuration":107142,"Delta":21448512},{"NoteNumber":43,"Velocity":50,"Duration":107142,"SoundDuration":107142,"Delta":21448512},{"NoteNumber":79,"Velocity":73,"Duration":109223,"SoundDuration":109223,"Delta":21734227},{"NoteNumber":77,"Velocity":51,"Duration":109223,"SoundDuration":109223,"Delta":21734227},{"NoteNumber":55,"Velocity":56,"Duration":109223,"SoundDuration":109223,"Delta":21734227},{"NoteNumber":50,"Velocity":50,"Duration":109223,"SoundDuration":109223,"Delta":21734227},{"NoteNumber":76,"Velocity":56,"Duration":279070,"SoundDuration":279070,"Delta":22025489},{"NoteNumber":84,"Velocity":84,"Duration":279070,"SoundDuration":279070,"Delta":22025489},{"NoteNumber":55,"Velocity":62,"Duration":139534,"SoundDuration":139534,"Delta":22025489},{"NoteNumber":48,"Velocity":55,"Duration":139534,"SoundDuration":139534,"Delta":22025489},{"NoteNumber":83,"Velocity":76,"Duration":90909,"SoundDuration":90909,"Delta":22304559},{"NoteNumber":76,"Velocity":56,"Duration":272727,"SoundDuration":272727,"Delta":22304559},{"NoteNumber":55,"Velocity":56,"Duration":136363,"SoundDuration":136363,"Delta":22304559},{"NoteNumber":43,"Velocity":50,"Duration":136363,"SoundDuration":136363,"Delta":22304559},{"NoteNumber":84,"Velocity":67,"Duration":90909,"SoundDuration":90909,"Delta":22395468},{"NoteNumber":83,"Velocity":67,"Duration":90909,"SoundDuration":90909,"Delta":22486377},{"NoteNumber":76,"Velocity":39,"Duration":275933,"SoundDuration":275933,"Delta":22577286},{"NoteNumber":81,"Velocity":72,"Duration":135746,"SoundDuration":135746,"Delta":22577286},{"NoteNumber":55,"Velocity":49,"Duration":135746,"SoundDuration":135746,"Delta":22577286},{"NoteNumber":48,"Velocity":41,"Duration":135746,"SoundDuration":135746,"Delta":22577286},{"NoteNumber":83,"Velocity":68,"Duration":140187,"SoundDuration":140187,"Delta":22713033},{"NoteNumber":77,"Velocity":41,"Duration":274716,"SoundDuration":274716,"Delta":22853220},{"NoteNumber":84,"Velocity":75,"Duration":134529,"SoundDuration":134529,"Delta":22853220},{"NoteNumber":55,"Velocity":62,"Duration":134529,"SoundDuration":134529,"Delta":22853220},{"NoteNumber":50,"Velocity":55,"Duration":134529,"SoundDuration":134529,"Delta":22853220},{"NoteNumber":81,"Velocity":65,"Duration":140187,"SoundDuration":140187,"Delta":22987749},{"NoteNumber":83,"Velocity":77,"Duration":107142,"SoundDuration":107142,"Delta":23127936},{"NoteNumber":77,"Velocity":51,"Duration":107142,"SoundDuration":107142,"Delta":23127936},{"NoteNumber":55,"Velocity":56,"Duration":107142,"SoundDuration":107142,"Delta":23127936},{"NoteNumber":43,"Velocity":50,"Duration":107142,"SoundDuration":107142,"Delta":23127936},{"NoteNumber":77,"Velocity":51,"Duration":109223,"SoundDuration":109223,"Delta":23413651},{"NoteNumber":79,"Velocity":73,"Duration":109223,"SoundDuration":109223,"Delta":23413651},{"NoteNumber":55,"Velocity":56,"Duration":109223,"SoundDuration":109223,"Delta":23413651},{"NoteNumber":50,"Velocity":50,"Duration":109223,"SoundDuration":109223,"Delta":23413651},{"NoteNumber":72,"Velocity":48,"Duration":149999,"SoundDuration":149999,"Delta":23704913},{"NoteNumber":76,"Velocity":54,"Duration":149999,"SoundDuration":149999,"Delta":23704913},{"NoteNumber":67,"Velocity":43,"Duration":149999,"SoundDuration":149999,"Delta":23704913},{"NoteNumber":60,"Velocity":40,"Duration":300000,"SoundDuration":300000,"Delta":23704913},{"NoteNumber":77,"Velocity":51,"Duration":150000,"SoundDuration":150000,"Delta":23854913},{"NoteNumber":74,"Velocity":45,"Duration":150000,"SoundDuration":150000,"Delta":23854913},{"NoteNumber":68,"Velocity":40,"Duration":150000,"SoundDuration":150000,"Delta":23854913},{"NoteNumber":76,"Velocity":49,"Duration":300000,"SoundDuration":300000,"Delta":24004913},{"NoteNumber":79,"Velocity":55,"Duration":300000,"SoundDuration":300000,"Delta":24004913},{"NoteNumber":70,"Velocity":44,"Duration":300000,"SoundDuration":300000,"Delta":24004913},{"NoteNumber":79,"Velocity":51,"Duration":142179,"SoundDuration":142179,"Delta":24304913},{"NoteNumber":76,"Velocity":45,"Duration":142179,"SoundDuration":142179,"Delta":24304913},{"NoteNumber":70,"Velocity":40,"Duration":142179,"SoundDuration":142179,"Delta":24304913},{"NoteNumber":77,"Velocity":51,"Duration":142292,"SoundDuration":142292,"Delta":24447093},{"NoteNumber":74,"Velocity":45,"Duration":142292,"SoundDuration":142292,"Delta":24447093},{"NoteNumber":68,"Velocity":40,"Duration":142292,"SoundDuration":142292,"Delta":24447093},{"NoteNumber":72,"Velocity":43,"Duration":142857,"SoundDuration":142857,"Delta":24589385},{"NoteNumber":76,"Velocity":48,"Duration":142857,"SoundDuration":142857,"Delta":24589385},{"NoteNumber":67,"Velocity":38,"Duration":142857,"SoundDuration":142857,"Delta":24589385},{"NoteNumber":77,"Velocity":48,"Duration":142518,"SoundDuration":142518,"Delta":24732243},{"NoteNumber":74,"Velocity":43,"Duration":142518,"SoundDuration":142518,"Delta":24732243},{"NoteNumber":68,"Velocity":38,"Duration":142518,"SoundDuration":142518,"Delta":24732243},{"NoteNumber":76,"Velocity":44,"Duration":142179,"SoundDuration":142179,"Delta":24874761},{"NoteNumber":79,"Velocity":49,"Duration":142179,"SoundDuration":142179,"Delta":24874761},{"NoteNumber":70,"Velocity":39,"Duration":142179,"SoundDuration":142179,"Delta":24874761},{"NoteNumber":77,"Velocity":45,"Duration":142179,"SoundDuration":142179,"Delta":25016941},{"NoteNumber":80,"Velocity":51,"Duration":142179,"SoundDuration":142179,"Delta":25016941},{"NoteNumber":72,"Velocity":40,"Duration":142179,"SoundDuration":142179,"Delta":25016941},{"NoteNumber":82,"Velocity":52,"Duration":140844,"SoundDuration":140844,"Delta":25159121},{"NoteNumber":79,"Velocity":46,"Duration":140844,"SoundDuration":140844,"Delta":25159121},{"NoteNumber":73,"Velocity":41,"Duration":140844,"SoundDuration":140844,"Delta":25159121},{"NoteNumber":80,"Velocity":48,"Duration":140845,"SoundDuration":140845,"Delta":25299966},{"NoteNumber":84,"Velocity":53,"Duration":140845,"SoundDuration":140845,"Delta":25299966},{"NoteNumber":75,"Velocity":43,"Duration":140845,"SoundDuration":140845,"Delta":25299966},{"NoteNumber":82,"Velocity":52,"Duration":147783,"SoundDuration":147783,"Delta":25440811},{"NoteNumber":79,"Velocity":47,"Duration":147783,"SoundDuration":147783,"Delta":25440811},{"NoteNumber":73,"Velocity":42,"Duration":147783,"SoundDuration":147783,"Delta":25440811},{"NoteNumber":82,"Velocity":49,"Duration":140844,"SoundDuration":140844,"Delta":25588595},{"NoteNumber":85,"Velocity":55,"Duration":140844,"SoundDuration":140844,"Delta":25588595},{"NoteNumber":77,"Velocity":44,"Duration":140844,"SoundDuration":140844,"Delta":25588595},{"NoteNumber":80,"Velocity":49,"Duration":140845,"SoundDuration":140845,"Delta":25729440},{"NoteNumber":84,"Velocity":55,"Duration":140845,"SoundDuration":140845,"Delta":25729440},{"NoteNumber":76,"Velocity":44,"Duration":140845,"SoundDuration":140845,"Delta":25729440},{"NoteNumber":80,"Velocity":51,"Duration":140844,"SoundDuration":140844,"Delta":25870285},{"NoteNumber":77,"Velocity":45,"Duration":140844,"SoundDuration":140844,"Delta":25870285},{"NoteNumber":72,"Velocity":40,"Duration":140844,"SoundDuration":140844,"Delta":25870285},{"NoteNumber":79,"Velocity":48,"Duration":140844,"SoundDuration":140844,"Delta":26011130},{"NoteNumber":82,"Velocity":53,"Duration":140844,"SoundDuration":140844,"Delta":26011130},{"NoteNumber":73,"Velocity":43,"Duration":140844,"SoundDuration":140844,"Delta":26011130},{"NoteNumber":79,"Velocity":51,"Duration":140845,"SoundDuration":140845,"Delta":26151975},{"NoteNumber":76,"Velocity":45,"Duration":140845,"SoundDuration":140845,"Delta":26151975},{"NoteNumber":70,"Velocity":40,"Duration":140845,"SoundDuration":140845,"Delta":26151975},{"NoteNumber":72,"Velocity":45,"Duration":141509,"SoundDuration":141509,"Delta":26292820},{"NoteNumber":77,"Velocity":51,"Duration":141509,"SoundDuration":141509,"Delta":26292820},{"NoteNumber":68,"Velocity":40,"Duration":141509,"SoundDuration":141509,"Delta":26292820},{"NoteNumber":73,"Velocity":40,"Duration":146341,"SoundDuration":146341,"Delta":26434329},{"NoteNumber":79,"Velocity":45,"Duration":146341,"SoundDuration":146341,"Delta":26434329},{"NoteNumber":70,"Velocity":36,"Duration":146341,"SoundDuration":146341,"Delta":26434329},{"NoteNumber":76,"Velocity":49,"Duration":142179,"SoundDuration":142179,"Delta":26580671},{"NoteNumber":70,"Velocity":44,"Duration":142179,"SoundDuration":142179,"Delta":26580671},{"NoteNumber":67,"Velocity":39,"Duration":142179,"SoundDuration":142179,"Delta":26580671},{"NoteNumber":72,"Velocity":40,"Duration":147058,"SoundDuration":147058,"Delta":26722851},{"NoteNumber":77,"Velocity":44,"Duration":147058,"SoundDuration":147058,"Delta":26722851},{"NoteNumber":68,"Velocity":36,"Duration":147058,"SoundDuration":147058,"Delta":26722851},{"NoteNumber":73,"Velocity":47,"Duration":144230,"SoundDuration":144230,"Delta":26869909},{"NoteNumber":68,"Velocity":42,"Duration":144230,"SoundDuration":144230,"Delta":26869909},{"NoteNumber":65,"Velocity":37,"Duration":144230,"SoundDuration":144230,"Delta":26869909},{"NoteNumber":70,"Velocity":40,"Duration":171428,"SoundDuration":171428,"Delta":27014140},{"NoteNumber":75,"Velocity":44,"Duration":171428,"SoundDuration":171428,"Delta":27014140},{"NoteNumber":67,"Velocity":36,"Duration":171428,"SoundDuration":171428,"Delta":27014140},{"NoteNumber":64,"Velocity":45,"Duration":279070,"SoundDuration":279070,"Delta":27185569},{"NoteNumber":72,"Velocity":67,"Duration":279070,"SoundDuration":279070,"Delta":27185569},{"NoteNumber":60,"Velocity":45,"Duration":139534,"SoundDuration":139534,"Delta":27185569},{"NoteNumber":71,"Velocity":60,"Duration":90909,"SoundDuration":90909,"Delta":27464639},{"NoteNumber":64,"Velocity":45,"Duration":272727,"SoundDuration":272727,"Delta":27464639},{"NoteNumber":79,"Velocity":65,"Duration":136363,"SoundDuration":136363,"Delta":27464639},{"NoteNumber":72,"Velocity":54,"Duration":90909,"SoundDuration":90909,"Delta":27555548},{"NoteNumber":71,"Velocity":54,"Duration":90909,"SoundDuration":90909,"Delta":27646457},{"NoteNumber":69,"Velocity":60,"Duration":135746,"SoundDuration":135746,"Delta":27737366},{"NoteNumber":64,"Velocity":33,"Duration":275933,"SoundDuration":275933,"Delta":27737366},{"NoteNumber":55,"Velocity":41,"Duration":135746,"SoundDuration":135746,"Delta":27737366},{"NoteNumber":71,"Velocity":56,"Duration":140187,"SoundDuration":140187,"Delta":27873113},{"NoteNumber":65,"Velocity":33,"Duration":274716,"SoundDuration":274716,"Delta":28013300},{"NoteNumber":72,"Velocity":59,"Duration":134529,"SoundDuration":134529,"Delta":28013300},{"NoteNumber":62,"Velocity":45,"Duration":134529,"SoundDuration":134529,"Delta":28013300},{"NoteNumber":69,"Velocity":58,"Duration":140187,"SoundDuration":140187,"Delta":28147829},{"NoteNumber":71,"Velocity":61,"Duration":107142,"SoundDuration":107142,"Delta":28288016},{"NoteNumber":65,"Velocity":41,"Duration":107142,"SoundDuration":107142,"Delta":28288016},{"NoteNumber":79,"Velocity":65,"Duration":107142,"SoundDuration":107142,"Delta":28288016},{"NoteNumber":65,"Velocity":41,"Duration":109223,"SoundDuration":109223,"Delta":28573730},{"NoteNumber":67,"Velocity":58,"Duration":109223,"SoundDuration":109223,"Delta":28573730},{"NoteNumber":55,"Velocity":41,"Duration":109223,"SoundDuration":109223,"Delta":28573730},{"NoteNumber":72,"Velocity":67,"Duration":279070,"SoundDuration":279070,"Delta":28864992},{"NoteNumber":64,"Velocity":45,"Duration":279070,"SoundDuration":279070,"Delta":28864992},{"NoteNumber":60,"Velocity":45,"Duration":139534,"SoundDuration":139534,"Delta":28864992},{"NoteNumber":64,"Velocity":45,"Duration":272727,"SoundDuration":272727,"Delta":29144062},{"NoteNumber":71,"Velocity":60,"Duration":90909,"SoundDuration":90909,"Delta":29144062},{"NoteNumber":79,"Velocity":64,"Duration":136363,"SoundDuration":136363,"Delta":29144062},{"NoteNumber":72,"Velocity":56,"Duration":90909,"SoundDuration":90909,"Delta":29234971},{"NoteNumber":71,"Velocity":52,"Duration":90909,"SoundDuration":90909,"Delta":29325881},{"NoteNumber":69,"Velocity":60,"Duration":135746,"SoundDuration":135746,"Delta":29416790},{"NoteNumber":64,"Velocity":30,"Duration":275933,"SoundDuration":275933,"Delta":29416790},{"NoteNumber":55,"Velocity":41,"Duration":135746,"SoundDuration":135746,"Delta":29416790},{"NoteNumber":71,"Velocity":56,"Duration":140187,"SoundDuration":140187,"Delta":29552536},{"NoteNumber":65,"Velocity":32,"Duration":274716,"SoundDuration":274716,"Delta":29692723},{"NoteNumber":72,"Velocity":59,"Duration":134529,"SoundDuration":134529,"Delta":29692723},{"NoteNumber":62,"Velocity":45,"Duration":134529,"SoundDuration":134529,"Delta":29692723},{"NoteNumber":69,"Velocity":58,"Duration":140187,"SoundDuration":140187,"Delta":29827253},{"NoteNumber":65,"Velocity":41,"Duration":107142,"SoundDuration":107142,"Delta":29967440},{"NoteNumber":71,"Velocity":61,"Duration":107142,"SoundDuration":107142,"Delta":29967440},{"NoteNumber":79,"Velocity":65,"Duration":107142,"SoundDuration":107142,"Delta":29967440},{"NoteNumber":65,"Velocity":41,"Duration":109223,"SoundDuration":109223,"Delta":30253154},{"NoteNumber":67,"Velocity":58,"Duration":109223,"SoundDuration":109223,"Delta":30253154},{"NoteNumber":55,"Velocity":41,"Duration":109223,"SoundDuration":109223,"Delta":30253154},{"NoteNumber":72,"Velocity":67,"Duration":104651,"SoundDuration":104651,"Delta":30544416},{"NoteNumber":67,"Velocity":45,"Duration":104651,"SoundDuration":104651,"Delta":30544416},{"NoteNumber":64,"Velocity":45,"Duration":279070,"SoundDuration":279070,"Delta":30544416},{"NoteNumber":60,"Velocity":43,"Duration":279070,"SoundDuration":279070,"Delta":30544416},{"NoteNumber":67,"Velocity":43,"Duration":272727,"SoundDuration":272727,"Delta":30823486},{"NoteNumber":70,"Velocity":45,"Duration":272727,"SoundDuration":272727,"Delta":30823486},{"NoteNumber":74,"Velocity":60,"Duration":90909,"SoundDuration":90909,"Delta":30823486},{"NoteNumber":65,"Velocity":50,"Duration":272727,"SoundDuration":272727,"Delta":30823486},{"NoteNumber":60,"Velocity":41,"Duration":272727,"SoundDuration":272727,"Delta":30823486},{"NoteNumber":76,"Velocity":53,"Duration":90909,"SoundDuration":90909,"Delta":30914395},{"NoteNumber":74,"Velocity":53,"Duration":90909,"SoundDuration":90909,"Delta":31005304},{"NoteNumber":67,"Velocity":57,"Duration":101809,"SoundDuration":101809,"Delta":31096214},{"NoteNumber":72,"Velocity":57,"Duration":101809,"SoundDuration":101809,"Delta":31096214},{"NoteNumber":64,"Velocity":38,"Duration":135746,"SoundDuration":135746,"Delta":31096214},{"NoteNumber":60,"Velocity":36,"Duration":135746,"SoundDuration":135746,"Delta":31096214},{"NoteNumber":86,"Velocity":66,"Duration":90909,"SoundDuration":90909,"Delta":31372147},{"NoteNumber":82,"Velocity":49,"Duration":272727,"SoundDuration":272727,"Delta":31372147},{"NoteNumber":79,"Velocity":47,"Duration":272727,"SoundDuration":272727,"Delta":31372147},{"NoteNumber":77,"Velocity":55,"Duration":272727,"SoundDuration":272727,"Delta":31372147},{"NoteNumber":72,"Velocity":45,"Duration":272727,"SoundDuration":272727,"Delta":31372147},{"NoteNumber":88,"Velocity":58,"Duration":90909,"SoundDuration":90909,"Delta":31463056},{"NoteNumber":86,"Velocity":58,"Duration":90909,"SoundDuration":90909,"Delta":31553965},{"NoteNumber":79,"Velocity":62,"Duration":101809,"SoundDuration":101809,"Delta":31644875},{"NoteNumber":84,"Velocity":62,"Duration":101809,"SoundDuration":101809,"Delta":31644875},{"NoteNumber":76,"Velocity":41,"Duration":135746,"SoundDuration":135746,"Delta":31644875},{"NoteNumber":72,"Velocity":39,"Duration":135746,"SoundDuration":135746,"Delta":31644875},{"NoteNumber":98,"Velocity":66,"Duration":90909,"SoundDuration":90909,"Delta":31920808},{"NoteNumber":91,"Velocity":47,"Duration":272727,"SoundDuration":272727,"Delta":31920808},{"NoteNumber":94,"Velocity":49,"Duration":272727,"SoundDuration":272727,"Delta":31920808},{"NoteNumber":84,"Velocity":45,"Duration":272727,"SoundDuration":272727,"Delta":31920808},{"NoteNumber":89,"Velocity":55,"Duration":272727,"SoundDuration":272727,"Delta":31920808},{"NoteNumber":100,"Velocity":58,"Duration":90909,"SoundDuration":90909,"Delta":32011717},{"NoteNumber":98,"Velocity":58,"Duration":90909,"SoundDuration":90909,"Delta":32102626},{"NoteNumber":96,"Velocity":65,"Duration":105140,"SoundDuration":105140,"Delta":32193536},{"NoteNumber":91,"Velocity":65,"Duration":105140,"SoundDuration":105140,"Delta":32193536},{"NoteNumber":88,"Velocity":43,"Duration":140186,"SoundDuration":140186,"Delta":32193536},{"NoteNumber":84,"Velocity":40,"Duration":140186,"SoundDuration":140186,"Delta":32193536},{"NoteNumber":79,"Velocity":53,"Duration":272727,"SoundDuration":272727,"Delta":32473910},{"NoteNumber":82,"Velocity":55,"Duration":272727,"SoundDuration":272727,"Delta":32473910},{"NoteNumber":86,"Velocity":75,"Duration":90909,"SoundDuration":90909,"Delta":32473910},{"NoteNumber":77,"Velocity":63,"Duration":272727,"SoundDuration":272727,"Delta":32473910},{"NoteNumber":72,"Velocity":51,"Duration":272727,"SoundDuration":272727,"Delta":32473910},{"NoteNumber":88,"Velocity":66,"Duration":90909,"SoundDuration":90909,"Delta":32564819},{"NoteNumber":86,"Velocity":66,"Duration":90909,"SoundDuration":90909,"Delta":32655728},{"NoteNumber":79,"Velocity":71,"Duration":107655,"SoundDuration":107655,"Delta":32746637},{"NoteNumber":84,"Velocity":71,"Duration":107655,"SoundDuration":107655,"Delta":32746637},{"NoteNumber":72,"Velocity":44,"Duration":143540,"SoundDuration":143540,"Delta":32746637},{"NoteNumber":76,"Velocity":47,"Duration":143540,"SoundDuration":143540,"Delta":32746637},{"NoteNumber":67,"Velocity":60,"Duration":279069,"SoundDuration":279069,"Delta":33033719},{"NoteNumber":74,"Velocity":85,"Duration":93023,"SoundDuration":93023,"Delta":33033719},{"NoteNumber":70,"Velocity":62,"Duration":279069,"SoundDuration":279069,"Delta":33033719},{"NoteNumber":60,"Velocity":58,"Duration":279069,"SoundDuration":279069,"Delta":33033719},{"NoteNumber":65,"Velocity":72,"Duration":279069,"SoundDuration":279069,"Delta":33033719},{"NoteNumber":76,"Velocity":73,"Duration":93023,"SoundDuration":93023,"Delta":33126742},{"NoteNumber":74,"Velocity":69,"Duration":93023,"SoundDuration":93023,"Delta":33219765},{"NoteNumber":67,"Velocity":81,"Duration":113065,"SoundDuration":113065,"Delta":33312789},{"NoteNumber":72,"Velocity":81,"Duration":113065,"SoundDuration":113065,"Delta":33312789},{"NoteNumber":64,"Velocity":53,"Duration":150753,"SoundDuration":150753,"Delta":33312789},{"NoteNumber":60,"Velocity":50,"Duration":150753,"SoundDuration":150753,"Delta":33312789},{"NoteNumber":76,"Velocity":88,"Duration":310881,"SoundDuration":310881,"Delta":33614296},{"NoteNumber":82,"Velocity":88,"Duration":310881,"SoundDuration":310881,"Delta":33614296},{"NoteNumber":84,"Velocity":88,"Duration":310881,"SoundDuration":310881,"Delta":33614296},{"NoteNumber":72,"Velocity":88,"Duration":310881,"SoundDuration":310881,"Delta":33614296},{"NoteNumber":48,"Velocity":61,"Duration":155440,"SoundDuration":155440,"Delta":33614296},{"NoteNumber":36,"Velocity":61,"Duration":155440,"SoundDuration":155440,"Delta":33614296},{"NoteNumber":77,"Velocity":87,"Duration":279069,"SoundDuration":279069,"Delta":33925177},{"NoteNumber":69,"Velocity":71,"Duration":279069,"SoundDuration":279069,"Delta":33925177},{"NoteNumber":53,"Velocity":64,"Duration":279069,"SoundDuration":279069,"Delta":33925177},{"NoteNumber":65,"Velocity":64,"Duration":279069,"SoundDuration":279069,"Delta":33925177},{"NoteNumber":60,"Velocity":64,"Duration":279069,"SoundDuration":279069,"Delta":33925177},{"NoteNumber":69,"Velocity":71,"Duration":272727,"SoundDuration":272727,"Delta":34204247},{"NoteNumber":76,"Velocity":78,"Duration":90909,"SoundDuration":90909,"Delta":34204247},{"NoteNumber":64,"Velocity":57,"Duration":90909,"SoundDuration":90909,"Delta":34204247},{"NoteNumber":77,"Velocity":69,"Duration":90909,"SoundDuration":90909,"Delta":34295156},{"NoteNumber":65,"Velocity":50,"Duration":90909,"SoundDuration":90909,"Delta":34295156},{"NoteNumber":76,"Velocity":69,"Duration":90909,"SoundDuration":90909,"Delta":34386065},{"NoteNumber":64,"Velocity":50,"Duration":90909,"SoundDuration":90909,"Delta":34386065},{"NoteNumber":74,"Velocity":74,"Duration":138248,"SoundDuration":138248,"Delta":34476975},{"NoteNumber":69,"Velocity":54,"Duration":277137,"SoundDuration":277137,"Delta":34476975},{"NoteNumber":62,"Velocity":57,"Duration":138248,"SoundDuration":138248,"Delta":34476975},{"NoteNumber":76,"Velocity":71,"Duration":138888,"SoundDuration":138888,"Delta":34615223},{"NoteNumber":64,"Velocity":53,"Duration":138888,"SoundDuration":138888,"Delta":34615223},{"NoteNumber":69,"Velocity":55,"Duration":280160,"SoundDuration":280160,"Delta":34754112},{"NoteNumber":77,"Velocity":76,"Duration":134529,"SoundDuration":134529,"Delta":34754112},{"NoteNumber":65,"Velocity":61,"Duration":134529,"SoundDuration":134529,"Delta":34754112},{"NoteNumber":74,"Velocity":72,"Duration":145631,"SoundDuration":145631,"Delta":34888642},{"NoteNumber":62,"Velocity":56,"Duration":145631,"SoundDuration":145631,"Delta":34888642},{"NoteNumber":69,"Velocity":67,"Duration":108695,"SoundDuration":108695,"Delta":35034273},{"NoteNumber":76,"Velocity":79,"Duration":108695,"SoundDuration":108695,"Delta":35034273},{"NoteNumber":64,"Velocity":59,"Duration":108695,"SoundDuration":108695,"Delta":35034273},{"NoteNumber":69,"Velocity":60,"Duration":109223,"SoundDuration":109223,"Delta":35324128},{"NoteNumber":72,"Velocity":68,"Duration":109223,"SoundDuration":109223,"Delta":35324128},{"NoteNumber":60,"Velocity":50,"Duration":109223,"SoundDuration":109223,"Delta":35324128},{"NoteNumber":77,"Velocity":83,"Duration":279069,"SoundDuration":279069,"Delta":35615390},{"NoteNumber":69,"Velocity":68,"Duration":279069,"SoundDuration":279069,"Delta":35615390},{"NoteNumber":60,"Velocity":61,"Duration":279069,"SoundDuration":279069,"Delta":35615390},{"NoteNumber":53,"Velocity":61,"Duration":279069,"SoundDuration":279069,"Delta":35615390},{"NoteNumber":65,"Velocity":61,"Duration":279069,"SoundDuration":279069,"Delta":35615390},{"NoteNumber":69,"Velocity":68,"Duration":272727,"SoundDuration":272727,"Delta":35894460},{"NoteNumber":76,"Velocity":75,"Duration":90909,"SoundDuration":90909,"Delta":35894460},{"NoteNumber":64,"Velocity":55,"Duration":90909,"SoundDuration":90909,"Delta":35894460},{"NoteNumber":77,"Velocity":69,"Duration":90909,"SoundDuration":90909,"Delta":35985369},{"NoteNumber":65,"Velocity":50,"Duration":90909,"SoundDuration":90909,"Delta":35985369},{"NoteNumber":76,"Velocity":69,"Duration":90909,"SoundDuration":90909,"Delta":36076278},{"NoteNumber":64,"Velocity":50,"Duration":90909,"SoundDuration":90909,"Delta":36076278},{"NoteNumber":69,"Velocity":54,"Duration":278424,"SoundDuration":278424,"Delta":36167187},{"NoteNumber":74,"Velocity":75,"Duration":138888,"SoundDuration":138888,"Delta":36167187},{"NoteNumber":62,"Velocity":55,"Duration":138888,"SoundDuration":138888,"Delta":36167187},{"NoteNumber":76,"Velocity":69,"Duration":139535,"SoundDuration":139535,"Delta":36306076},{"NoteNumber":64,"Velocity":50,"Duration":139535,"SoundDuration":139535,"Delta":36306076},{"NoteNumber":77,"Velocity":77,"Duration":134529,"SoundDuration":134529,"Delta":36445611},{"NoteNumber":69,"Velocity":51,"Duration":280870,"SoundDuration":280870,"Delta":36445611},{"NoteNumber":65,"Velocity":56,"Duration":134529,"SoundDuration":134529,"Delta":36445611},{"NoteNumber":74,"Velocity":70,"Duration":146341,"SoundDuration":146341,"Delta":36580140},{"NoteNumber":62,"Velocity":54,"Duration":146341,"SoundDuration":146341,"Delta":36580140},{"NoteNumber":69,"Velocity":64,"Duration":108695,"SoundDuration":108695,"Delta":36726482},{"NoteNumber":76,"Velocity":76,"Duration":108695,"SoundDuration":108695,"Delta":36726482},{"NoteNumber":64,"Velocity":57,"Duration":108695,"SoundDuration":108695,"Delta":36726482},{"NoteNumber":72,"Velocity":64,"Duration":109223,"SoundDuration":109223,"Delta":37016337},{"NoteNumber":69,"Velocity":57,"Duration":109223,"SoundDuration":109223,"Delta":37016337},{"NoteNumber":60,"Velocity":49,"Duration":109223,"SoundDuration":109223,"Delta":37016337},{"NoteNumber":69,"Velocity":53,"Duration":276497,"SoundDuration":276497,"Delta":37307599},{"NoteNumber":74,"Velocity":78,"Duration":138248,"SoundDuration":138248,"Delta":37307599},{"NoteNumber":62,"Velocity":54,"Duration":138248,"SoundDuration":138248,"Delta":37307599},{"NoteNumber":76,"Velocity":72,"Duration":138248,"SoundDuration":138248,"Delta":37445848},{"NoteNumber":64,"Velocity":48,"Duration":138248,"SoundDuration":138248,"Delta":37445848},{"NoteNumber":72,"Velocity":76,"Duration":252403,"SoundDuration":252403,"Delta":37584096},{"NoteNumber":69,"Velocity":43,"Duration":252403,"SoundDuration":252403,"Delta":37584096},{"NoteNumber":60,"Velocity":45,"Duration":252403,"SoundDuration":252403,"Delta":37584096},{"NoteNumber":69,"Velocity":51,"Duration":275898,"SoundDuration":275898,"Delta":37872558},{"NoteNumber":74,"Velocity":72,"Duration":136363,"SoundDuration":136363,"Delta":37872558},{"NoteNumber":62,"Velocity":48,"Duration":136363,"SoundDuration":136363,"Delta":37872558},{"NoteNumber":76,"Velocity":73,"Duration":139535,"SoundDuration":139535,"Delta":38008922},{"NoteNumber":64,"Velocity":51,"Duration":139535,"SoundDuration":139535,"Delta":38008922},{"NoteNumber":77,"Velocity":77,"Duration":244186,"SoundDuration":244186,"Delta":38148457},{"NoteNumber":69,"Velocity":53,"Duration":244186,"SoundDuration":244186,"Delta":38148457},{"NoteNumber":65,"Velocity":55,"Duration":244186,"SoundDuration":244186,"Delta":38148457},{"NoteNumber":69,"Velocity":53,"Duration":276497,"SoundDuration":276497,"Delta":38427527},{"NoteNumber":74,"Velocity":78,"Duration":138248,"SoundDuration":138248,"Delta":38427527},{"NoteNumber":62,"Velocity":54,"Duration":138248,"SoundDuration":138248,"Delta":38427527},{"NoteNumber":76,"Velocity":72,"Duration":138248,"SoundDuration":138248,"Delta":38565775},{"NoteNumber":64,"Velocity":48,"Duration":138248,"SoundDuration":138248,"Delta":38565775},{"NoteNumber":72,"Velocity":73,"Duration":253623,"SoundDuration":253623,"Delta":38704024},{"NoteNumber":69,"Velocity":43,"Duration":253623,"SoundDuration":253623,"Delta":38704024},{"NoteNumber":60,"Velocity":42,"Duration":253623,"SoundDuration":253623,"Delta":38704024},{"NoteNumber":69,"Velocity":45,"Duration":273995,"SoundDuration":273995,"Delta":38993879},{"NoteNumber":74,"Velocity":79,"Duration":135746,"SoundDuration":135746,"Delta":38993879},{"NoteNumber":62,"Velocity":51,"Duration":135746,"SoundDuration":135746,"Delta":38993879},{"NoteNumber":76,"Velocity":71,"Duration":138248,"SoundDuration":138248,"Delta":39129626},{"NoteNumber":64,"Velocity":48,"Duration":138248,"SoundDuration":138248,"Delta":39129626},{"NoteNumber":72,"Velocity":72,"Duration":250601,"SoundDuration":250601,"Delta":39267874},{"NoteNumber":69,"Velocity":40,"Duration":250601,"SoundDuration":250601,"Delta":39267874},{"NoteNumber":60,"Velocity":39,"Duration":250601,"SoundDuration":250601,"Delta":39267874},{"NoteNumber":74,"Velocity":71,"Duration":139535,"SoundDuration":139535,"Delta":39555061},{"NoteNumber":69,"Velocity":50,"Duration":279070,"SoundDuration":279070,"Delta":39555061},{"NoteNumber":62,"Velocity":43,"Duration":139535,"SoundDuration":139535,"Delta":39555061},{"NoteNumber":76,"Velocity":73,"Duration":139535,"SoundDuration":139535,"Delta":39694596},{"NoteNumber":64,"Velocity":44,"Duration":139535,"SoundDuration":139535,"Delta":39694596},{"NoteNumber":69,"Velocity":53,"Duration":570260,"SoundDuration":570260,"Delta":39834131},{"NoteNumber":79,"Velocity":78,"Duration":138888,"SoundDuration":138888,"Delta":39834131},{"NoteNumber":67,"Velocity":48,"Duration":138888,"SoundDuration":138888,"Delta":39834131},{"NoteNumber":77,"Velocity":71,"Duration":144230,"SoundDuration":144230,"Delta":39973020},{"NoteNumber":65,"Velocity":44,"Duration":144230,"SoundDuration":144230,"Delta":39973020},{"NoteNumber":74,"Velocity":77,"Duration":141509,"SoundDuration":141509,"Delta":40117251},{"NoteNumber":62,"Velocity":49,"Duration":141509,"SoundDuration":141509,"Delta":40117251},{"NoteNumber":76,"Velocity":72,"Duration":145631,"SoundDuration":145631,"Delta":40258760},{"NoteNumber":64,"Velocity":46,"Duration":145631,"SoundDuration":145631,"Delta":40258760},{"NoteNumber":72,"Velocity":68,"Duration":291261,"SoundDuration":291261,"Delta":40404391},{"NoteNumber":60,"Velocity":46,"Duration":291261,"SoundDuration":291261,"Delta":40404391},{"NoteNumber":80,"Velocity":83,"Duration":279069,"SoundDuration":279069,"Delta":40695653},{"NoteNumber":72,"Velocity":68,"Duration":279069,"SoundDuration":279069,"Delta":40695653},{"NoteNumber":56,"Velocity":61,"Duration":279069,"SoundDuration":279069,"Delta":40695653},{"NoteNumber":68,"Velocity":61,"Duration":279069,"SoundDuration":279069,"Delta":40695653},{"NoteNumber":63,"Velocity":61,"Duration":279069,"SoundDuration":279069,"Delta":40695653},{"NoteNumber":72,"Velocity":68,"Duration":272727,"SoundDuration":272727,"Delta":40974723},{"NoteNumber":79,"Velocity":75,"Duration":90909,"SoundDuration":90909,"Delta":40974723},{"NoteNumber":67,"Velocity":55,"Duration":90909,"SoundDuration":90909,"Delta":40974723},{"NoteNumber":80,"Velocity":67,"Duration":90909,"SoundDuration":90909,"Delta":41065632},{"NoteNumber":68,"Velocity":50,"Duration":90909,"SoundDuration":90909,"Delta":41065632},{"NoteNumber":79,"Velocity":67,"Duration":90909,"SoundDuration":90909,"Delta":41156541},{"NoteNumber":67,"Velocity":50,"Duration":90909,"SoundDuration":90909,"Delta":41156541},{"NoteNumber":77,"Velocity":75,"Duration":138248,"SoundDuration":138248,"Delta":41247451},{"NoteNumber":72,"Velocity":57,"Duration":278435,"SoundDuration":278435,"Delta":41247451},{"NoteNumber":65,"Velocity":55,"Duration":138248,"SoundDuration":138248,"Delta":41247451},{"NoteNumber":79,"Velocity":69,"Duration":140186,"SoundDuration":140186,"Delta":41385699},{"NoteNumber":67,"Velocity":50,"Duration":140186,"SoundDuration":140186,"Delta":41385699},{"NoteNumber":72,"Velocity":54,"Duration":274064,"SoundDuration":274064,"Delta":41525886},{"NoteNumber":80,"Velocity":79,"Duration":134529,"SoundDuration":134529,"Delta":41525886},{"NoteNumber":68,"Velocity":59,"Duration":134529,"SoundDuration":134529,"Delta":41525886},{"NoteNumber":77,"Velocity":72,"Duration":139535,"SoundDuration":139535,"Delta":41660416},{"NoteNumber":65,"Velocity":54,"Duration":139535,"SoundDuration":139535,"Delta":41660416},{"NoteNumber":73,"Velocity":64,"Duration":108695,"SoundDuration":108695,"Delta":41799951},{"NoteNumber":79,"Velocity":76,"Duration":108695,"SoundDuration":108695,"Delta":41799951},{"NoteNumber":67,"Velocity":57,"Duration":108695,"SoundDuration":108695,"Delta":41799951},{"NoteNumber":73,"Velocity":64,"Duration":109223,"SoundDuration":109223,"Delta":42089806},{"NoteNumber":75,"Velocity":72,"Duration":109223,"SoundDuration":109223,"Delta":42089806},{"NoteNumber":63,"Velocity":54,"Duration":109223,"SoundDuration":109223,"Delta":42089806},{"NoteNumber":80,"Velocity":83,"Duration":279069,"SoundDuration":279069,"Delta":42381068},{"NoteNumber":72,"Velocity":68,"Duration":279069,"SoundDuration":279069,"Delta":42381068},{"NoteNumber":63,"Velocity":61,"Duration":279069,"SoundDuration":279069,"Delta":42381068},{"NoteNumber":56,"Velocity":61,"Duration":279069,"SoundDuration":279069,"Delta":42381068},{"NoteNumber":68,"Velocity":61,"Duration":279069,"SoundDuration":279069,"Delta":42381068},{"NoteNumber":72,"Velocity":68,"Duration":272727,"SoundDuration":272727,"Delta":42660138},{"NoteNumber":79,"Velocity":75,"Duration":90909,"SoundDuration":90909,"Delta":42660138},{"NoteNumber":67,"Velocity":55,"Duration":90909,"SoundDuration":90909,"Delta":42660138},{"NoteNumber":80,"Velocity":67,"Duration":90909,"SoundDuration":90909,"Delta":42751047},{"NoteNumber":68,"Velocity":50,"Duration":90909,"SoundDuration":90909,"Delta":42751047},{"NoteNumber":79,"Velocity":69,"Duration":90909,"SoundDuration":90909,"Delta":42841956},{"NoteNumber":67,"Velocity":50,"Duration":90909,"SoundDuration":90909,"Delta":42841956},{"NoteNumber":72,"Velocity":58,"Duration":282392,"SoundDuration":282392,"Delta":42932865},{"NoteNumber":77,"Velocity":75,"Duration":139535,"SoundDuration":139535,"Delta":42932865},{"NoteNumber":65,"Velocity":55,"Duration":139535,"SoundDuration":139535,"Delta":42932865},{"NoteNumber":79,"Velocity":69,"Duration":142857,"SoundDuration":142857,"Delta":43072400},{"NoteNumber":67,"Velocity":50,"Duration":142857,"SoundDuration":142857,"Delta":43072400},{"NoteNumber":80,"Velocity":79,"Duration":134529,"SoundDuration":134529,"Delta":43215257},{"NoteNumber":72,"Velocity":53,"Duration":273418,"SoundDuration":273418,"Delta":43215257},{"NoteNumber":68,"Velocity":59,"Duration":134529,"SoundDuration":134529,"Delta":43215257},{"NoteNumber":77,"Velocity":72,"Duration":138888,"SoundDuration":138888,"Delta":43349787},{"NoteNumber":65,"Velocity":54,"Duration":138888,"SoundDuration":138888,"Delta":43349787},{"NoteNumber":73,"Velocity":64,"Duration":108695,"SoundDuration":108695,"Delta":43488676},{"NoteNumber":79,"Velocity":76,"Duration":108695,"SoundDuration":108695,"Delta":43488676},{"NoteNumber":67,"Velocity":57,"Duration":108695,"SoundDuration":108695,"Delta":43488676},{"NoteNumber":75,"Velocity":72,"Duration":109223,"SoundDuration":109223,"Delta":43778531},{"NoteNumber":73,"Velocity":64,"Duration":109223,"SoundDuration":109223,"Delta":43778531},{"NoteNumber":63,"Velocity":54,"Duration":109223,"SoundDuration":109223,"Delta":43778531},{"NoteNumber":72,"Velocity":53,"Duration":276497,"SoundDuration":276497,"Delta":44069793},{"NoteNumber":77,"Velocity":78,"Duration":138248,"SoundDuration":138248,"Delta":44069793},{"NoteNumber":56,"Velocity":44,"Duration":276497,"SoundDuration":276497,"Delta":44069793},{"NoteNumber":65,"Velocity":54,"Duration":138248,"SoundDuration":138248,"Delta":44069793},{"NoteNumber":79,"Velocity":72,"Duration":138248,"SoundDuration":138248,"Delta":44208041},{"NoteNumber":67,"Velocity":48,"Duration":138248,"SoundDuration":138248,"Delta":44208041},{"NoteNumber":75,"Velocity":76,"Duration":252403,"SoundDuration":252403,"Delta":44346290},{"NoteNumber":72,"Velocity":43,"Duration":252403,"SoundDuration":252403,"Delta":44346290},{"NoteNumber":63,"Velocity":45,"Duration":252403,"SoundDuration":252403,"Delta":44346290},{"NoteNumber":72,"Velocity":51,"Duration":275898,"SoundDuration":275898,"Delta":44634752},{"NoteNumber":77,"Velocity":72,"Duration":136363,"SoundDuration":136363,"Delta":44634752},{"NoteNumber":65,"Velocity":48,"Duration":136363,"SoundDuration":136363,"Delta":44634752},{"NoteNumber":79,"Velocity":73,"Duration":139535,"SoundDuration":139535,"Delta":44771115},{"NoteNumber":67,"Velocity":51,"Duration":139535,"SoundDuration":139535,"Delta":44771115},{"NoteNumber":80,"Velocity":77,"Duration":244186,"SoundDuration":244186,"Delta":44910650},{"NoteNumber":72,"Velocity":53,"Duration":244186,"SoundDuration":244186,"Delta":44910650},{"NoteNumber":68,"Velocity":55,"Duration":244186,"SoundDuration":244186,"Delta":44910650},{"NoteNumber":72,"Velocity":53,"Duration":276497,"SoundDuration":276497,"Delta":45189720},{"NoteNumber":77,"Velocity":78,"Duration":138248,"SoundDuration":138248,"Delta":45189720},{"NoteNumber":65,"Velocity":54,"Duration":138248,"SoundDuration":138248,"Delta":45189720},{"NoteNumber":79,"Velocity":72,"Duration":138248,"SoundDuration":138248,"Delta":45327969},{"NoteNumber":67,"Velocity":48,"Duration":138248,"SoundDuration":138248,"Delta":45327969},{"NoteNumber":75,"Velocity":72,"Duration":253623,"SoundDuration":253623,"Delta":45466218},{"NoteNumber":72,"Velocity":40,"Duration":253623,"SoundDuration":253623,"Delta":45466218},{"NoteNumber":63,"Velocity":42,"Duration":253623,"SoundDuration":253623,"Delta":45466218},{"NoteNumber":72,"Velocity":45,"Duration":273995,"SoundDuration":273995,"Delta":45756073},{"NoteNumber":77,"Velocity":79,"Duration":135746,"SoundDuration":135746,"Delta":45756073},{"NoteNumber":56,"Velocity":41,"Duration":273995,"SoundDuration":273995,"Delta":45756073},{"NoteNumber":65,"Velocity":51,"Duration":135746,"SoundDuration":135746,"Delta":45756073},{"NoteNumber":79,"Velocity":71,"Duration":138248,"SoundDuration":138248,"Delta":45891819},{"NoteNumber":67,"Velocity":48,"Duration":138248,"SoundDuration":138248,"Delta":45891819},{"NoteNumber":75,"Velocity":71,"Duration":250601,"SoundDuration":250601,"Delta":46030068},{"NoteNumber":72,"Velocity":37,"Duration":250601,"SoundDuration":250601,"Delta":46030068},{"NoteNumber":63,"Velocity":40,"Duration":250601,"SoundDuration":250601,"Delta":46030068},{"NoteNumber":72,"Velocity":50,"Duration":279070,"SoundDuration":279070,"Delta":46317255},{"NoteNumber":77,"Velocity":71,"Duration":139535,"SoundDuration":139535,"Delta":46317255},{"NoteNumber":65,"Velocity":43,"Duration":139535,"SoundDuration":139535,"Delta":46317255},{"NoteNumber":79,"Velocity":73,"Duration":139535,"SoundDuration":139535,"Delta":46456790},{"NoteNumber":67,"Velocity":44,"Duration":139535,"SoundDuration":139535,"Delta":46456790},{"NoteNumber":82,"Velocity":78,"Duration":138888,"SoundDuration":138888,"Delta":46596325},{"NoteNumber":72,"Velocity":53,"Duration":283119,"SoundDuration":283119,"Delta":46596325},{"NoteNumber":70,"Velocity":48,"Duration":138888,"SoundDuration":138888,"Delta":46596325},{"NoteNumber":80,"Velocity":71,"Duration":144230,"SoundDuration":144230,"Delta":46735214},{"NoteNumber":68,"Velocity":44,"Duration":144230,"SoundDuration":144230,"Delta":46735214},{"NoteNumber":72,"Velocity":49,"Duration":287140,"SoundDuration":287140,"Delta":46879444},{"NoteNumber":77,"Velocity":77,"Duration":141509,"SoundDuration":141509,"Delta":46879444},{"NoteNumber":65,"Velocity":49,"Duration":141509,"SoundDuration":141509,"Delta":46879444},{"NoteNumber":79,"Velocity":72,"Duration":145631,"SoundDuration":145631,"Delta":47020954},{"NoteNumber":67,"Velocity":46,"Duration":145631,"SoundDuration":145631,"Delta":47020954},{"NoteNumber":75,"Velocity":68,"Duration":291261,"SoundDuration":291261,"Delta":47166585},{"NoteNumber":72,"Velocity":44,"Duration":291261,"SoundDuration":291261,"Delta":47166585},{"NoteNumber":63,"Velocity":46,"Duration":291261,"SoundDuration":291261,"Delta":47166585},{"NoteNumber":36,"Velocity":92,"Duration":152284,"SoundDuration":152284,"Delta":47457847},{"NoteNumber":58,"Velocity":53,"Duration":125000,"SoundDuration":125000,"Delta":47762415},{"NoteNumber":61,"Velocity":60,"Duration":125000,"SoundDuration":125000,"Delta":47762415},{"NoteNumber":65,"Velocity":68,"Duration":125000,"SoundDuration":125000,"Delta":47762415},{"NoteNumber":53,"Velocity":58,"Duration":136986,"SoundDuration":136986,"Delta":47887415},{"NoteNumber":60,"Velocity":53,"Duration":144927,"SoundDuration":144927,"Delta":48024402},{"NoteNumber":70,"Velocity":60,"Duration":125523,"SoundDuration":125523,"Delta":48314257},{"NoteNumber":73,"Velocity":60,"Duration":125523,"SoundDuration":125523,"Delta":48314257},{"NoteNumber":77,"Velocity":68,"Duration":125523,"SoundDuration":125523,"Delta":48314257},{"NoteNumber":65,"Velocity":57,"Duration":136363,"SoundDuration":136363,"Delta":48439780},{"NoteNumber":72,"Velocity":54,"Duration":139535,"SoundDuration":139535,"Delta":48576143},{"NoteNumber":79,"Velocity":60,"Duration":125523,"SoundDuration":125523,"Delta":48855213},{"NoteNumber":82,"Velocity":60,"Duration":125523,"SoundDuration":125523,"Delta":48855213},{"NoteNumber":85,"Velocity":68,"Duration":125523,"SoundDuration":125523,"Delta":48855213},{"NoteNumber":77,"Velocity":61,"Duration":135746,"SoundDuration":135746,"Delta":48980736},{"NoteNumber":84,"Velocity":55,"Duration":147783,"SoundDuration":147783,"Delta":49116483},{"NoteNumber":82,"Velocity":75,"Duration":68493,"SoundDuration":68493,"Delta":49412049},{"NoteNumber":77,"Velocity":67,"Duration":68493,"SoundDuration":68493,"Delta":49412049},{"NoteNumber":67,"Velocity":51,"Duration":68493,"SoundDuration":68493,"Delta":49412049},{"NoteNumber":73,"Velocity":56,"Duration":68493,"SoundDuration":68493,"Delta":49412049},{"NoteNumber":77,"Velocity":67,"Duration":68493,"SoundDuration":68493,"Delta":49549036},{"NoteNumber":82,"Velocity":75,"Duration":68493,"SoundDuration":68493,"Delta":49549036},{"NoteNumber":67,"Velocity":51,"Duration":68493,"SoundDuration":68493,"Delta":49549036},{"NoteNumber":73,"Velocity":56,"Duration":68493,"SoundDuration":68493,"Delta":49549036},{"NoteNumber":89,"Velocity":80,"Duration":140844,"SoundDuration":140844,"Delta":49686022},{"NoteNumber":82,"Velocity":72,"Duration":140844,"SoundDuration":140844,"Delta":49686022},{"NoteNumber":79,"Velocity":63,"Duration":140844,"SoundDuration":140844,"Delta":49686022},{"NoteNumber":77,"Velocity":69,"Duration":144230,"SoundDuration":144230,"Delta":49967712},{"NoteNumber":82,"Velocity":77,"Duration":144230,"SoundDuration":144230,"Delta":49967712},{"NoteNumber":67,"Velocity":45,"Duration":144230,"SoundDuration":144230,"Delta":49967712},{"NoteNumber":73,"Velocity":52,"Duration":144230,"SoundDuration":144230,"Delta":49967712},{"NoteNumber":89,"Velocity":81,"Duration":144230,"SoundDuration":144230,"Delta":50256173},{"NoteNumber":82,"Velocity":72,"Duration":144230,"SoundDuration":144230,"Delta":50256173},{"NoteNumber":79,"Velocity":54,"Duration":144230,"SoundDuration":144230,"Delta":50256173},{"NoteNumber":82,"Velocity":78,"Duration":144230,"SoundDuration":144230,"Delta":50544635},{"NoteNumber":77,"Velocity":70,"Duration":144230,"SoundDuration":144230,"Delta":50544635},{"NoteNumber":73,"Velocity":52,"Duration":144230,"SoundDuration":144230,"Delta":50544635},{"NoteNumber":67,"Velocity":45,"Duration":144230,"SoundDuration":144230,"Delta":50544635},{"NoteNumber":36,"Velocity":92,"Duration":153846,"SoundDuration":153846,"Delta":50833096},{"NoteNumber":61,"Velocity":60,"Duration":125000,"SoundDuration":125000,"Delta":51140789},{"NoteNumber":58,"Velocity":60,"Duration":125000,"SoundDuration":125000,"Delta":51140789},{"NoteNumber":65,"Velocity":68,"Duration":125000,"SoundDuration":125000,"Delta":51140789},{"NoteNumber":53,"Velocity":56,"Duration":136363,"SoundDuration":136363,"Delta":51265789},{"NoteNumber":60,"Velocity":54,"Duration":139535,"SoundDuration":139535,"Delta":51402153},{"NoteNumber":77,"Velocity":68,"Duration":125000,"SoundDuration":125000,"Delta":51681223},{"NoteNumber":70,"Velocity":60,"Duration":125000,"SoundDuration":125000,"Delta":51681223},{"NoteNumber":73,"Velocity":60,"Duration":125000,"SoundDuration":125000,"Delta":51681223},{"NoteNumber":65,"Velocity":57,"Duration":136363,"SoundDuration":136363,"Delta":51806223},{"NoteNumber":72,"Velocity":54,"Duration":139535,"SoundDuration":139535,"Delta":51942586},{"NoteNumber":85,"Velocity":68,"Duration":124481,"SoundDuration":124481,"Delta":52221656},{"NoteNumber":79,"Velocity":60,"Duration":124481,"SoundDuration":124481,"Delta":52221656},{"NoteNumber":82,"Velocity":60,"Duration":124481,"SoundDuration":124481,"Delta":52221656},{"NoteNumber":77,"Velocity":57,"Duration":136363,"SoundDuration":136363,"Delta":52346138},{"NoteNumber":84,"Velocity":54,"Duration":147783,"SoundDuration":147783,"Delta":52482501},{"NoteNumber":82,"Velocity":75,"Duration":68493,"SoundDuration":68493,"Delta":52778068},{"NoteNumber":77,"Velocity":67,"Duration":68493,"SoundDuration":68493,"Delta":52778068},{"NoteNumber":73,"Velocity":56,"Duration":68493,"SoundDuration":68493,"Delta":52778068},{"NoteNumber":67,"Velocity":51,"Duration":68493,"SoundDuration":68493,"Delta":52778068},{"NoteNumber":77,"Velocity":67,"Duration":68493,"SoundDuration":68493,"Delta":52915054},{"NoteNumber":82,"Velocity":75,"Duration":68493,"SoundDuration":68493,"Delta":52915054},{"NoteNumber":73,"Velocity":56,"Duration":68493,"SoundDuration":68493,"Delta":52915054},{"NoteNumber":67,"Velocity":51,"Duration":68493,"SoundDuration":68493,"Delta":52915054},{"NoteNumber":89,"Velocity":80,"Duration":140844,"SoundDuration":140844,"Delta":53052040},{"NoteNumber":82,"Velocity":72,"Duration":140844,"SoundDuration":140844,"Delta":53052040},{"NoteNumber":79,"Velocity":63,"Duration":140844,"SoundDuration":140844,"Delta":53052040},{"NoteNumber":82,"Velocity":77,"Duration":144230,"SoundDuration":144230,"Delta":53333730},{"NoteNumber":77,"Velocity":69,"Duration":144230,"SoundDuration":144230,"Delta":53333730},{"NoteNumber":67,"Velocity":45,"Duration":144230,"SoundDuration":144230,"Delta":53333730},{"NoteNumber":73,"Velocity":52,"Duration":144230,"SoundDuration":144230,"Delta":53333730},{"NoteNumber":82,"Velocity":72,"Duration":144230,"SoundDuration":144230,"Delta":53622192},{"NoteNumber":89,"Velocity":81,"Duration":144230,"SoundDuration":144230,"Delta":53622192},{"NoteNumber":79,"Velocity":54,"Duration":144230,"SoundDuration":144230,"Delta":53622192},{"NoteNumber":82,"Velocity":78,"Duration":144230,"SoundDuration":144230,"Delta":53910653},{"NoteNumber":77,"Velocity":70,"Duration":144230,"SoundDuration":144230,"Delta":53910653},{"NoteNumber":67,"Velocity":45,"Duration":144230,"SoundDuration":144230,"Delta":53910653},{"NoteNumber":73,"Velocity":52,"Duration":144230,"SoundDuration":144230,"Delta":53910653},{"NoteNumber":88,"Velocity":75,"Duration":279069,"SoundDuration":279069,"Delta":54199115},{"NoteNumber":84,"Velocity":63,"Duration":551797,"SoundDuration":551797,"Delta":54199115},{"NoteNumber":72,"Velocity":44,"Duration":1688005,"SoundDuration":1688005,"Delta":54199115},{"NoteNumber":79,"Velocity":58,"Duration":279069,"SoundDuration":279069,"Delta":54199115},{"NoteNumber":86,"Velocity":70,"Duration":90909,"SoundDuration":90909,"Delta":54478185},{"NoteNumber":77,"Velocity":52,"Duration":90909,"SoundDuration":90909,"Delta":54478185},{"NoteNumber":88,"Velocity":65,"Duration":90909,"SoundDuration":90909,"Delta":54569094},{"NoteNumber":79,"Velocity":48,"Duration":90909,"SoundDuration":90909,"Delta":54569094},{"NoteNumber":86,"Velocity":65,"Duration":90909,"SoundDuration":90909,"Delta":54660003},{"NoteNumber":77,"Velocity":48,"Duration":90909,"SoundDuration":90909,"Delta":54660003},{"NoteNumber":84,"Velocity":70,"Duration":552578,"SoundDuration":552578,"Delta":54750912},{"NoteNumber":76,"Velocity":52,"Duration":135746,"SoundDuration":135746,"Delta":54750912},{"NoteNumber":86,"Velocity":65,"Duration":140186,"SoundDuration":140186,"Delta":54886659},{"NoteNumber":77,"Velocity":48,"Duration":140186,"SoundDuration":140186,"Delta":54886659},{"NoteNumber":88,"Velocity":74,"Duration":135135,"SoundDuration":135135,"Delta":55026846},{"NoteNumber":79,"Velocity":56,"Duration":135135,"SoundDuration":135135,"Delta":55026846},{"NoteNumber":84,"Velocity":64,"Duration":141509,"SoundDuration":141509,"Delta":55161981},{"NoteNumber":76,"Velocity":46,"Duration":141509,"SoundDuration":141509,"Delta":55161981},{"NoteNumber":80,"Velocity":48,"Duration":285714,"SoundDuration":285714,"Delta":55303491},{"NoteNumber":85,"Velocity":68,"Duration":107142,"SoundDuration":107142,"Delta":55303491},{"NoteNumber":77,"Velocity":50,"Duration":107142,"SoundDuration":107142,"Delta":55303491},{"NoteNumber":84,"Velocity":62,"Duration":107142,"SoundDuration":107142,"Delta":55446348},{"NoteNumber":76,"Velocity":45,"Duration":107142,"SoundDuration":107142,"Delta":55446348},{"NoteNumber":80,"Velocity":52,"Duration":259844,"SoundDuration":259844,"Delta":55589205},{"NoteNumber":85,"Velocity":67,"Duration":109223,"SoundDuration":109223,"Delta":55589205},{"NoteNumber":77,"Velocity":49,"Duration":109223,"SoundDuration":109223,"Delta":55589205},{"NoteNumber":89,"Velocity":62,"Duration":114213,"SoundDuration":114213,"Delta":55734836},{"NoteNumber":80,"Velocity":45,"Duration":152284,"SoundDuration":152284,"Delta":55734836},{"NoteNumber":88,"Velocity":75,"Duration":279069,"SoundDuration":279069,"Delta":55887120},{"NoteNumber":84,"Velocity":63,"Duration":551797,"SoundDuration":551797,"Delta":55887120},{"NoteNumber":72,"Velocity":44,"Duration":1681352,"SoundDuration":1681352,"Delta":55887120},{"NoteNumber":79,"Velocity":58,"Duration":279069,"SoundDuration":279069,"Delta":55887120},{"NoteNumber":86,"Velocity":70,"Duration":90909,"SoundDuration":90909,"Delta":56166190},{"NoteNumber":77,"Velocity":52,"Duration":90909,"SoundDuration":90909,"Delta":56166190},{"NoteNumber":88,"Velocity":65,"Duration":90909,"SoundDuration":90909,"Delta":56257099},{"NoteNumber":79,"Velocity":48,"Duration":90909,"SoundDuration":90909,"Delta":56257099},{"NoteNumber":86,"Velocity":65,"Duration":90909,"SoundDuration":90909,"Delta":56348009},{"NoteNumber":77,"Velocity":48,"Duration":90909,"SoundDuration":90909,"Delta":56348009},{"NoteNumber":84,"Velocity":70,"Duration":552578,"SoundDuration":552578,"Delta":56438918},{"NoteNumber":76,"Velocity":52,"Duration":135746,"SoundDuration":135746,"Delta":56438918},{"NoteNumber":86,"Velocity":65,"Duration":140186,"SoundDuration":140186,"Delta":56574664},{"NoteNumber":77,"Velocity":48,"Duration":140186,"SoundDuration":140186,"Delta":56574664},{"NoteNumber":88,"Velocity":74,"Duration":135135,"SoundDuration":135135,"Delta":56714851},{"NoteNumber":79,"Velocity":56,"Duration":135135,"SoundDuration":135135,"Delta":56714851},{"NoteNumber":84,"Velocity":64,"Duration":141509,"SoundDuration":141509,"Delta":56849987},{"NoteNumber":76,"Velocity":46,"Duration":141509,"SoundDuration":141509,"Delta":56849987},{"NoteNumber":80,"Velocity":51,"Duration":285714,"SoundDuration":285714,"Delta":56991496},{"NoteNumber":85,"Velocity":68,"Duration":107142,"SoundDuration":107142,"Delta":56991496},{"NoteNumber":77,"Velocity":50,"Duration":107142,"SoundDuration":107142,"Delta":56991496},{"NoteNumber":84,"Velocity":62,"Duration":107142,"SoundDuration":107142,"Delta":57134353},{"NoteNumber":76,"Velocity":45,"Duration":107142,"SoundDuration":107142,"Delta":57134353},{"NoteNumber":80,"Velocity":49,"Duration":254854,"SoundDuration":254854,"Delta":57277211},{"NoteNumber":85,"Velocity":67,"Duration":109223,"SoundDuration":109223,"Delta":57277211},{"NoteNumber":77,"Velocity":49,"Duration":109223,"SoundDuration":109223,"Delta":57277211},{"NoteNumber":89,"Velocity":62,"Duration":109223,"SoundDuration":109223,"Delta":57422842},{"NoteNumber":80,"Velocity":45,"Duration":145631,"SoundDuration":145631,"Delta":57422842},{"NoteNumber":76,"Velocity":75,"Duration":279069,"SoundDuration":279069,"Delta":57568473},{"NoteNumber":72,"Velocity":63,"Duration":551797,"SoundDuration":551797,"Delta":57568473},{"NoteNumber":67,"Velocity":58,"Duration":279069,"SoundDuration":279069,"Delta":57568473},{"NoteNumber":60,"Velocity":44,"Duration":827731,"SoundDuration":827731,"Delta":57568473},{"NoteNumber":74,"Velocity":70,"Duration":90909,"SoundDuration":90909,"Delta":57847543},{"NoteNumber":65,"Velocity":52,"Duration":90909,"SoundDuration":90909,"Delta":57847543},{"NoteNumber":76,"Velocity":65,"Duration":90909,"SoundDuration":90909,"Delta":57938452},{"NoteNumber":67,"Velocity":48,"Duration":90909,"SoundDuration":90909,"Delta":57938452},{"NoteNumber":74,"Velocity":65,"Duration":90909,"SoundDuration":90909,"Delta":58029361},{"NoteNumber":65,"Velocity":48,"Duration":90909,"SoundDuration":90909,"Delta":58029361},{"NoteNumber":72,"Velocity":70,"Duration":67873,"SoundDuration":67873,"Delta":58120270},{"NoteNumber":64,"Velocity":52,"Duration":67873,"SoundDuration":67873,"Delta":58120270},{"NoteNumber":74,"Velocity":65,"Duration":70093,"SoundDuration":70093,"Delta":58256017},{"NoteNumber":65,"Velocity":48,"Duration":70093,"SoundDuration":70093,"Delta":58256017},{"NoteNumber":76,"Velocity":66,"Duration":69124,"SoundDuration":69124,"Delta":58396204},{"NoteNumber":67,"Velocity":46,"Duration":69124,"SoundDuration":69124,"Delta":58396204},{"NoteNumber":77,"Velocity":67,"Duration":68807,"SoundDuration":68807,"Delta":58534347},{"NoteNumber":68,"Velocity":48,"Duration":68807,"SoundDuration":68807,"Delta":58534347},{"NoteNumber":79,"Velocity":69,"Duration":68389,"SoundDuration":68389,"Delta":58671752},{"NoteNumber":70,"Velocity":50,"Duration":68389,"SoundDuration":68389,"Delta":58671752},{"NoteNumber":80,"Velocity":71,"Duration":67976,"SoundDuration":67976,"Delta":58808323},{"NoteNumber":72,"Velocity":52,"Duration":67976,"SoundDuration":67976,"Delta":58808323},{"NoteNumber":82,"Velocity":73,"Duration":69125,"SoundDuration":69125,"Delta":58944793},{"NoteNumber":73,"Velocity":54,"Duration":69125,"SoundDuration":69125,"Delta":58944793},{"NoteNumber":84,"Velocity":74,"Duration":72611,"SoundDuration":72611,"Delta":59083687},{"NoteNumber":75,"Velocity":55,"Duration":72611,"SoundDuration":72611,"Delta":59083687},{"NoteNumber":82,"Velocity":72,"Duration":89686,"SoundDuration":89686,"Delta":59233619},{"NoteNumber":73,"Velocity":54,"Duration":89686,"SoundDuration":89686,"Delta":59233619},{"NoteNumber":84,"Velocity":68,"Duration":89686,"SoundDuration":89686,"Delta":59323305},{"NoteNumber":75,"Velocity":51,"Duration":89686,"SoundDuration":89686,"Delta":59323305},{"NoteNumber":82,"Velocity":68,"Duration":95693,"SoundDuration":95693,"Delta":59412991},{"NoteNumber":73,"Velocity":51,"Duration":95693,"SoundDuration":95693,"Delta":59412991},{"NoteNumber":80,"Velocity":70,"Duration":89285,"SoundDuration":89285,"Delta":59508685},{"NoteNumber":72,"Velocity":53,"Duration":89285,"SoundDuration":89285,"Delta":59508685},{"NoteNumber":82,"Velocity":65,"Duration":89285,"SoundDuration":89285,"Delta":59597971},{"NoteNumber":73,"Velocity":49,"Duration":89285,"SoundDuration":89285,"Delta":59597971},{"NoteNumber":80,"Velocity":69,"Duration":94339,"SoundDuration":94339,"Delta":59687256},{"NoteNumber":72,"Velocity":52,"Duration":94339,"SoundDuration":94339,"Delta":59687256},{"NoteNumber":79,"Velocity":68,"Duration":90090,"SoundDuration":90090,"Delta":59781596},{"NoteNumber":70,"Velocity":51,"Duration":90090,"SoundDuration":90090,"Delta":59781596},{"NoteNumber":80,"Velocity":65,"Duration":90090,"SoundDuration":90090,"Delta":59871686},{"NoteNumber":72,"Velocity":49,"Duration":90090,"SoundDuration":90090,"Delta":59871686},{"NoteNumber":79,"Velocity":64,"Duration":94786,"SoundDuration":94786,"Delta":59961776},{"NoteNumber":70,"Velocity":48,"Duration":94786,"SoundDuration":94786,"Delta":59961776},{"NoteNumber":77,"Velocity":66,"Duration":90497,"SoundDuration":90497,"Delta":60056563},{"NoteNumber":68,"Velocity":50,"Duration":90497,"SoundDuration":90497,"Delta":60056563},{"NoteNumber":79,"Velocity":61,"Duration":91012,"SoundDuration":91012,"Delta":60147061},{"NoteNumber":70,"Velocity":45,"Duration":91012,"SoundDuration":91012,"Delta":60147061},{"NoteNumber":77,"Velocity":61,"Duration":96618,"SoundDuration":96618,"Delta":60238074},{"NoteNumber":68,"Velocity":45,"Duration":96618,"SoundDuration":96618,"Delta":60238074},{"NoteNumber":75,"Velocity":64,"Duration":93278,"SoundDuration":93278,"Delta":60334692},{"NoteNumber":67,"Velocity":48,"Duration":93278,"SoundDuration":93278,"Delta":60334692},{"NoteNumber":77,"Velocity":60,"Duration":92700,"SoundDuration":92700,"Delta":60427971},{"NoteNumber":68,"Velocity":45,"Duration":92700,"SoundDuration":92700,"Delta":60427971},{"NoteNumber":75,"Velocity":60,"Duration":100000,"SoundDuration":100000,"Delta":60520671},{"NoteNumber":67,"Velocity":45,"Duration":100000,"SoundDuration":100000,"Delta":60520671},{"NoteNumber":73,"Velocity":62,"Duration":93896,"SoundDuration":93896,"Delta":60620671},{"NoteNumber":65,"Velocity":46,"Duration":93896,"SoundDuration":93896,"Delta":60620671},{"NoteNumber":75,"Velocity":57,"Duration":94451,"SoundDuration":94451,"Delta":60714568},{"NoteNumber":67,"Velocity":43,"Duration":94451,"SoundDuration":94451,"Delta":60714568},{"NoteNumber":73,"Velocity":57,"Duration":131579,"SoundDuration":131579,"Delta":60809019},{"NoteNumber":65,"Velocity":43,"Duration":131579,"SoundDuration":131579,"Delta":60809019},{"NoteNumber":36,"Velocity":77,"Duration":154639,"SoundDuration":154639,"Delta":60940598},{"NoteNumber":77,"Velocity":57,"Duration":125523,"SoundDuration":125523,"Delta":61249877},{"NoteNumber":70,"Velocity":51,"Duration":125523,"SoundDuration":125523,"Delta":61249877},{"NoteNumber":73,"Velocity":51,"Duration":125523,"SoundDuration":125523,"Delta":61249877},{"NoteNumber":67,"Velocity":53,"Duration":136363,"SoundDuration":136363,"Delta":61375400},{"NoteNumber":72,"Velocity":50,"Duration":144927,"SoundDuration":144927,"Delta":61511763},{"NoteNumber":82,"Velocity":51,"Duration":125000,"SoundDuration":125000,"Delta":61801618},{"NoteNumber":89,"Velocity":57,"Duration":125000,"SoundDuration":125000,"Delta":61801618},{"NoteNumber":85,"Velocity":51,"Duration":125000,"SoundDuration":125000,"Delta":61801618},{"NoteNumber":79,"Velocity":52,"Duration":136363,"SoundDuration":136363,"Delta":61926618},{"NoteNumber":84,"Velocity":52,"Duration":144230,"SoundDuration":144230,"Delta":62062982},{"NoteNumber":77,"Velocity":57,"Duration":125523,"SoundDuration":125523,"Delta":62351444},{"NoteNumber":73,"Velocity":51,"Duration":125523,"SoundDuration":125523,"Delta":62351444},{"NoteNumber":70,"Velocity":51,"Duration":125523,"SoundDuration":125523,"Delta":62351444},{"NoteNumber":67,"Velocity":53,"Duration":136363,"SoundDuration":136363,"Delta":62476967},{"NoteNumber":72,"Velocity":51,"Duration":140186,"SoundDuration":140186,"Delta":62613330},{"NoteNumber":82,"Velocity":69,"Duration":68493,"SoundDuration":68493,"Delta":62893704},{"NoteNumber":77,"Velocity":61,"Duration":68493,"SoundDuration":68493,"Delta":62893704},{"NoteNumber":73,"Velocity":52,"Duration":68493,"SoundDuration":68493,"Delta":62893704},{"NoteNumber":67,"Velocity":46,"Duration":68493,"SoundDuration":68493,"Delta":62893704},{"NoteNumber":82,"Velocity":69,"Duration":68493,"SoundDuration":68493,"Delta":63030691},{"NoteNumber":77,"Velocity":61,"Duration":68493,"SoundDuration":68493,"Delta":63030691},{"NoteNumber":67,"Velocity":46,"Duration":68493,"SoundDuration":68493,"Delta":63030691},{"NoteNumber":73,"Velocity":52,"Duration":68493,"SoundDuration":68493,"Delta":63030691},{"NoteNumber":82,"Velocity":66,"Duration":140844,"SoundDuration":140844,"Delta":63167677},{"NoteNumber":89,"Velocity":73,"Duration":140844,"SoundDuration":140844,"Delta":63167677},{"NoteNumber":79,"Velocity":57,"Duration":140844,"SoundDuration":140844,"Delta":63167677},{"NoteNumber":82,"Velocity":70,"Duration":144230,"SoundDuration":144230,"Delta":63449367},{"NoteNumber":77,"Velocity":63,"Duration":144230,"SoundDuration":144230,"Delta":63449367},{"NoteNumber":73,"Velocity":47,"Duration":144230,"SoundDuration":144230,"Delta":63449367},{"NoteNumber":67,"Velocity":42,"Duration":144230,"SoundDuration":144230,"Delta":63449367},{"NoteNumber":82,"Velocity":66,"Duration":144230,"SoundDuration":144230,"Delta":63737828},{"NoteNumber":89,"Velocity":74,"Duration":144230,"SoundDuration":144230,"Delta":63737828},{"NoteNumber":79,"Velocity":49,"Duration":144230,"SoundDuration":144230,"Delta":63737828},{"NoteNumber":82,"Velocity":71,"Duration":148514,"SoundDuration":148514,"Delta":64026290},{"NoteNumber":77,"Velocity":64,"Duration":148514,"SoundDuration":148514,"Delta":64026290},{"NoteNumber":67,"Velocity":42,"Duration":148514,"SoundDuration":148514,"Delta":64026290},{"NoteNumber":73,"Velocity":47,"Duration":148514,"SoundDuration":148514,"Delta":64026290},{"NoteNumber":36,"Velocity":73,"Duration":151515,"SoundDuration":151515,"Delta":64323319},{"NoteNumber":70,"Velocity":48,"Duration":129870,"SoundDuration":129870,"Delta":64626350},{"NoteNumber":77,"Velocity":53,"Duration":129870,"SoundDuration":129870,"Delta":64626350},{"NoteNumber":73,"Velocity":48,"Duration":129870,"SoundDuration":129870,"Delta":64626350},{"NoteNumber":67,"Velocity":51,"Duration":141509,"SoundDuration":141509,"Delta":64756220},{"NoteNumber":72,"Velocity":45,"Duration":147058,"SoundDuration":147058,"Delta":64897730},{"NoteNumber":82,"Velocity":46,"Duration":129870,"SoundDuration":129870,"Delta":65191847},{"NoteNumber":85,"Velocity":46,"Duration":129870,"SoundDuration":129870,"Delta":65191847},{"NoteNumber":89,"Velocity":52,"Duration":129870,"SoundDuration":129870,"Delta":65191847},{"NoteNumber":79,"Velocity":49,"Duration":140844,"SoundDuration":140844,"Delta":65321717},{"NoteNumber":84,"Velocity":46,"Duration":142857,"SoundDuration":142857,"Delta":65462562},{"NoteNumber":77,"Velocity":51,"Duration":129870,"SoundDuration":129870,"Delta":65748277},{"NoteNumber":73,"Velocity":45,"Duration":129870,"SoundDuration":129870,"Delta":65748277},{"NoteNumber":70,"Velocity":45,"Duration":129870,"SoundDuration":129870,"Delta":65748277},{"NoteNumber":67,"Velocity":46,"Duration":141509,"SoundDuration":141509,"Delta":65878147},{"NoteNumber":72,"Velocity":44,"Duration":148514,"SoundDuration":148514,"Delta":66019657},{"NoteNumber":65,"Velocity":54,"Duration":68493,"SoundDuration":68493,"Delta":66316686},{"NoteNumber":70,"Velocity":62,"Duration":68493,"SoundDuration":68493,"Delta":66316686},{"NoteNumber":61,"Velocity":46,"Duration":68493,"SoundDuration":68493,"Delta":66316686},{"NoteNumber":55,"Velocity":41,"Duration":68493,"SoundDuration":68493,"Delta":66316686},{"NoteNumber":70,"Velocity":61,"Duration":68493,"SoundDuration":68493,"Delta":66453672},{"NoteNumber":65,"Velocity":54,"Duration":68493,"SoundDuration":68493,"Delta":66453672},{"NoteNumber":61,"Velocity":45,"Duration":68493,"SoundDuration":68493,"Delta":66453672},{"NoteNumber":55,"Velocity":41,"Duration":68493,"SoundDuration":68493,"Delta":66453672},{"NoteNumber":70,"Velocity":58,"Duration":140844,"SoundDuration":140844,"Delta":66590659},{"NoteNumber":77,"Velocity":64,"Duration":140844,"SoundDuration":140844,"Delta":66590659},{"NoteNumber":67,"Velocity":50,"Duration":140844,"SoundDuration":140844,"Delta":66590659},{"NoteNumber":70,"Velocity":61,"Duration":144230,"SoundDuration":144230,"Delta":66872349},{"NoteNumber":65,"Velocity":55,"Duration":144230,"SoundDuration":144230,"Delta":66872349},{"NoteNumber":61,"Velocity":41,"Duration":144230,"SoundDuration":144230,"Delta":66872349},{"NoteNumber":55,"Velocity":36,"Duration":144230,"SoundDuration":144230,"Delta":66872349},{"NoteNumber":77,"Velocity":64,"Duration":144230,"SoundDuration":144230,"Delta":67160810},{"NoteNumber":70,"Velocity":57,"Duration":144230,"SoundDuration":144230,"Delta":67160810},{"NoteNumber":67,"Velocity":42,"Duration":144230,"SoundDuration":144230,"Delta":67160810},{"NoteNumber":65,"Velocity":55,"Duration":146341,"SoundDuration":146341,"Delta":67449272},{"NoteNumber":70,"Velocity":61,"Duration":146341,"SoundDuration":146341,"Delta":67449272},{"NoteNumber":61,"Velocity":40,"Duration":146341,"SoundDuration":146341,"Delta":67449272},{"NoteNumber":55,"Velocity":36,"Duration":146341,"SoundDuration":146341,"Delta":67449272},{"NoteNumber":48,"Velocity":56,"Duration":142179,"SoundDuration":142179,"Delta":67741955},{"NoteNumber":70,"Velocity":45,"Duration":135746,"SoundDuration":135746,"Delta":68026315},{"NoteNumber":73,"Velocity":45,"Duration":135746,"SoundDuration":135746,"Delta":68026315},{"NoteNumber":77,"Velocity":50,"Duration":135746,"SoundDuration":135746,"Delta":68026315},{"NoteNumber":67,"Velocity":50,"Duration":143540,"SoundDuration":143540,"Delta":68162061},{"NoteNumber":72,"Velocity":38,"Duration":154639,"SoundDuration":154639,"Delta":68305602},{"NoteNumber":70,"Velocity":41,"Duration":151515,"SoundDuration":151515,"Delta":68614880},{"NoteNumber":73,"Velocity":41,"Duration":151515,"SoundDuration":151515,"Delta":68614880},{"NoteNumber":77,"Velocity":44,"Duration":151515,"SoundDuration":151515,"Delta":68614880},{"NoteNumber":67,"Velocity":44,"Duration":158730,"SoundDuration":158730,"Delta":68766396},{"NoteNumber":72,"Velocity":34,"Duration":178571,"SoundDuration":178571,"Delta":68925126},{"NoteNumber":73,"Velocity":36,"Duration":170454,"SoundDuration":170454,"Delta":69282269},{"NoteNumber":70,"Velocity":36,"Duration":170454,"SoundDuration":170454,"Delta":69282269},{"NoteNumber":77,"Velocity":40,"Duration":170454,"SoundDuration":170454,"Delta":69282269},{"NoteNumber":67,"Velocity":39,"Duration":187500,"SoundDuration":187500,"Delta":69452723},{"NoteNumber":72,"Velocity":32,"Duration":176470,"SoundDuration":176470,"Delta":69640223},{"NoteNumber":48,"Velocity":38,"Duration":142179,"SoundDuration":142179,"Delta":69993164},{"NoteNumber":48,"Velocity":38,"Duration":142744,"SoundDuration":142744,"Delta":70135344},{"NoteNumber":48,"Velocity":38,"Duration":143312,"SoundDuration":143312,"Delta":70278089},{"NoteNumber":48,"Velocity":38,"Duration":144000,"SoundDuration":144000,"Delta":70421402},{"NoteNumber":48,"Velocity":37,"Duration":144579,"SoundDuration":144579,"Delta":70565403},{"NoteNumber":48,"Velocity":37,"Duration":145161,"SoundDuration":145161,"Delta":70709982},{"NoteNumber":48,"Velocity":37,"Duration":145867,"SoundDuration":145867,"Delta":70855144},{"NoteNumber":48,"Velocity":36,"Duration":146461,"SoundDuration":146461,"Delta":71001011},{"NoteNumber":48,"Velocity":36,"Duration":147058,"SoundDuration":147058,"Delta":71147473},{"NoteNumber":48,"Velocity":36,"Duration":147783,"SoundDuration":147783,"Delta":71294531},{"NoteNumber":48,"Velocity":36,"Duration":1084338,"SoundDuration":1084338,"Delta":71442315},{"NoteNumber":70,"Velocity":59,"Duration":423310,"SoundDuration":423310,"Delta":72526653},{"NoteNumber":74,"Velocity":59,"Duration":423310,"SoundDuration":423310,"Delta":72526653},{"NoteNumber":36,"Velocity":49,"Duration":1255351,"SoundDuration":1255351,"Delta":72526653},{"NoteNumber":70,"Velocity":56,"Duration":200829,"SoundDuration":200829,"Delta":72949963},{"NoteNumber":74,"Velocity":56,"Duration":200829,"SoundDuration":200829,"Delta":72949963},{"NoteNumber":70,"Velocity":56,"Duration":207900,"SoundDuration":207900,"Delta":73150793},{"NoteNumber":74,"Velocity":56,"Duration":207900,"SoundDuration":207900,"Delta":73150793},{"NoteNumber":79,"Velocity":59,"Duration":1484503,"SoundDuration":1484503,"Delta":73358693},{"NoteNumber":76,"Velocity":59,"Duration":1484503,"SoundDuration":1484503,"Delta":73358693},{"NoteNumber":48,"Velocity":47,"Duration":206668,"SoundDuration":206668,"Delta":73782004},{"NoteNumber":72,"Velocity":37,"Duration":212681,"SoundDuration":212681,"Delta":74195341},{"NoteNumber":60,"Velocity":37,"Duration":222288,"SoundDuration":222288,"Delta":74620909},{"NoteNumber":74,"Velocity":54,"Duration":222287,"SoundDuration":222287,"Delta":74843197},{"NoteNumber":77,"Velocity":54,"Duration":222287,"SoundDuration":222287,"Delta":74843197},{"NoteNumber":72,"Velocity":45,"Duration":418234,"SoundDuration":418234,"Delta":75065485},{"NoteNumber":76,"Velocity":45,"Duration":139411,"SoundDuration":139411,"Delta":75065485},{"NoteNumber":41,"Velocity":46,"Duration":1259005,"SoundDuration":1259005,"Delta":75065485},{"NoteNumber":77,"Velocity":45,"Duration":139411,"SoundDuration":139411,"Delta":75204897},{"NoteNumber":76,"Velocity":45,"Duration":139411,"SoundDuration":139411,"Delta":75344308},{"NoteNumber":69,"Velocity":45,"Duration":418235,"SoundDuration":418235,"Delta":75483720},{"NoteNumber":72,"Velocity":51,"Duration":418235,"SoundDuration":418235,"Delta":75483720},{"NoteNumber":69,"Velocity":43,"Duration":105633,"SoundDuration":105633,"Delta":75901955},{"NoteNumber":65,"Velocity":27,"Duration":105633,"SoundDuration":105633,"Delta":76113223},{"NoteNumber":69,"Velocity":27,"Duration":105633,"SoundDuration":105633,"Delta":76113223},{"NoteNumber":72,"Velocity":33,"Duration":105633,"SoundDuration":105633,"Delta":76113223},{"NoteNumber":64,"Velocity":41,"Duration":103448,"SoundDuration":103448,"Delta":76324490},{"NoteNumber":72,"Velocity":29,"Duration":103448,"SoundDuration":103448,"Delta":76531387},{"NoteNumber":69,"Velocity":25,"Duration":103448,"SoundDuration":103448,"Delta":76531387},{"NoteNumber":65,"Velocity":25,"Duration":103448,"SoundDuration":103448,"Delta":76531387},{"NoteNumber":65,"Velocity":44,"Duration":104166,"SoundDuration":104166,"Delta":76738283},{"NoteNumber":72,"Velocity":33,"Duration":104166,"SoundDuration":104166,"Delta":76946616},{"NoteNumber":69,"Velocity":27,"Duration":104166,"SoundDuration":104166,"Delta":76946616},{"NoteNumber":65,"Velocity":27,"Duration":104166,"SoundDuration":104166,"Delta":76946616},{"NoteNumber":60,"Velocity":41,"Duration":108885,"SoundDuration":108885,"Delta":77154950},{"NoteNumber":72,"Velocity":27,"Duration":108885,"SoundDuration":108885,"Delta":77372720},{"NoteNumber":69,"Velocity":22,"Duration":108885,"SoundDuration":108885,"Delta":77372720},{"NoteNumber":65,"Velocity":22,"Duration":108885,"SoundDuration":108885,"Delta":77372720},{"NoteNumber":77,"Velocity":59,"Duration":421348,"SoundDuration":421348,"Delta":77588951},{"NoteNumber":81,"Velocity":59,"Duration":421348,"SoundDuration":421348,"Delta":77588951},{"NoteNumber":37,"Velocity":51,"Duration":210674,"SoundDuration":210674,"Delta":77588951},{"NoteNumber":76,"Velocity":53,"Duration":199893,"SoundDuration":199893,"Delta":78010299},{"NoteNumber":79,"Velocity":53,"Duration":199893,"SoundDuration":199893,"Delta":78010299},{"NoteNumber":69,"Velocity":45,"Duration":199893,"SoundDuration":199893,"Delta":78010299},{"NoteNumber":74,"Velocity":53,"Duration":206953,"SoundDuration":206953,"Delta":78210192},{"NoteNumber":77,"Velocity":53,"Duration":206953,"SoundDuration":206953,"Delta":78210192},{"NoteNumber":77,"Velocity":57,"Duration":832814,"SoundDuration":832814,"Delta":78417146},{"NoteNumber":74,"Velocity":57,"Duration":832814,"SoundDuration":832814,"Delta":78417146},{"NoteNumber":57,"Velocity":47,"Duration":210674,"SoundDuration":210674,"Delta":78417146},{"NoteNumber":38,"Velocity":47,"Duration":205732,"SoundDuration":205732,"Delta":78838495},{"NoteNumber":75,"Velocity":50,"Duration":212064,"SoundDuration":212064,"Delta":79249961},{"NoteNumber":72,"Velocity":45,"Duration":212064,"SoundDuration":212064,"Delta":79249961},{"NoteNumber":50,"Velocity":37,"Duration":212064,"SoundDuration":212064,"Delta":79249961},{"NoteNumber":78,"Velocity":39,"Duration":211924,"SoundDuration":211924,"Delta":79462025},{"NoteNumber":74,"Velocity":35,"Duration":211924,"SoundDuration":211924,"Delta":79462025},{"NoteNumber":70,"Velocity":45,"Duration":221271,"SoundDuration":221271,"Delta":79673950},{"NoteNumber":74,"Velocity":50,"Duration":221271,"SoundDuration":221271,"Delta":79673950},{"NoteNumber":66,"Velocity":38,"Duration":221271,"SoundDuration":221271,"Delta":79673950},{"NoteNumber":72,"Velocity":37,"Duration":221271,"SoundDuration":221271,"Delta":79895221},{"NoteNumber":75,"Velocity":42,"Duration":221271,"SoundDuration":221271,"Delta":79895221},{"NoteNumber":69,"Velocity":45,"Duration":416377,"SoundDuration":416377,"Delta":80116493},{"NoteNumber":72,"Velocity":45,"Duration":138792,"SoundDuration":138792,"Delta":80116493},{"NoteNumber":43,"Velocity":46,"Duration":835472,"SoundDuration":835472,"Delta":80116493},{"NoteNumber":74,"Velocity":45,"Duration":138792,"SoundDuration":138792,"Delta":80255285},{"NoteNumber":72,"Velocity":45,"Duration":138792,"SoundDuration":138792,"Delta":80394078},{"NoteNumber":67,"Velocity":46,"Duration":419095,"SoundDuration":419095,"Delta":80532870},{"NoteNumber":70,"Velocity":51,"Duration":419095,"SoundDuration":419095,"Delta":80532870},{"NoteNumber":66,"Velocity":43,"Duration":104094,"SoundDuration":104094,"Delta":80951965},{"NoteNumber":62,"Velocity":27,"Duration":104094,"SoundDuration":104094,"Delta":81160154},{"NoteNumber":67,"Velocity":27,"Duration":104094,"SoundDuration":104094,"Delta":81160154},{"NoteNumber":70,"Velocity":33,"Duration":104094,"SoundDuration":104094,"Delta":81160154},{"NoteNumber":61,"Velocity":41,"Duration":103634,"SoundDuration":103634,"Delta":81368343},{"NoteNumber":70,"Velocity":29,"Duration":103634,"SoundDuration":103634,"Delta":81575611},{"NoteNumber":67,"Velocity":25,"Duration":103634,"SoundDuration":103634,"Delta":81575611},{"NoteNumber":62,"Velocity":25,"Duration":103634,"SoundDuration":103634,"Delta":81575611},{"NoteNumber":63,"Velocity":44,"Duration":101805,"SoundDuration":101805,"Delta":81782879},{"NoteNumber":70,"Velocity":33,"Duration":101805,"SoundDuration":101805,"Delta":81986490},{"NoteNumber":67,"Velocity":27,"Duration":101805,"SoundDuration":101805,"Delta":81986490},{"NoteNumber":62,"Velocity":27,"Duration":101805,"SoundDuration":101805,"Delta":81986490},{"NoteNumber":62,"Velocity":41,"Duration":107526,"SoundDuration":107526,"Delta":82190101},{"NoteNumber":70,"Velocity":27,"Duration":116242,"SoundDuration":116242,"Delta":82405155},{"NoteNumber":67,"Velocity":22,"Duration":116242,"SoundDuration":116242,"Delta":82405155},{"NoteNumber":62,"Velocity":22,"Duration":116242,"SoundDuration":116242,"Delta":82405155},{"NoteNumber":70,"Velocity":64,"Duration":423310,"SoundDuration":423310,"Delta":82637641},{"NoteNumber":74,"Velocity":64,"Duration":423310,"SoundDuration":423310,"Delta":82637641},{"NoteNumber":36,"Velocity":52,"Duration":1271929,"SoundDuration":1271929,"Delta":82637641},{"NoteNumber":70,"Velocity":61,"Duration":204806,"SoundDuration":204806,"Delta":83060951},{"NoteNumber":74,"Velocity":61,"Duration":204806,"SoundDuration":204806,"Delta":83060951},{"NoteNumber":70,"Velocity":61,"Duration":213705,"SoundDuration":213705,"Delta":83265757},{"NoteNumber":74,"Velocity":61,"Duration":213705,"SoundDuration":213705,"Delta":83265757},{"NoteNumber":79,"Velocity":64,"Duration":1556381,"SoundDuration":1556381,"Delta":83479463},{"NoteNumber":76,"Velocity":64,"Duration":1556381,"SoundDuration":1556381,"Delta":83479463},{"NoteNumber":48,"Velocity":51,"Duration":223446,"SoundDuration":223446,"Delta":83909570},{"NoteNumber":72,"Velocity":40,"Duration":223446,"SoundDuration":223446,"Delta":84356464},{"NoteNumber":60,"Velocity":38,"Duration":232485,"SoundDuration":232485,"Delta":84803358},{"NoteNumber":74,"Velocity":54,"Duration":232486,"SoundDuration":232486,"Delta":85035844},{"NoteNumber":77,"Velocity":54,"Duration":232486,"SoundDuration":232486,"Delta":85035844},{"NoteNumber":72,"Velocity":45,"Duration":418234,"SoundDuration":418234,"Delta":85268330},{"NoteNumber":76,"Velocity":45,"Duration":139411,"SoundDuration":139411,"Delta":85268330},{"NoteNumber":41,"Velocity":46,"Duration":1269404,"SoundDuration":1269404,"Delta":85268330},{"NoteNumber":77,"Velocity":45,"Duration":139411,"SoundDuration":139411,"Delta":85407742},{"NoteNumber":76,"Velocity":45,"Duration":139411,"SoundDuration":139411,"Delta":85547154},{"NoteNumber":69,"Velocity":41,"Duration":434097,"SoundDuration":434097,"Delta":85686565},{"NoteNumber":72,"Velocity":46,"Duration":434097,"SoundDuration":434097,"Delta":85686565},{"NoteNumber":69,"Velocity":43,"Duration":104268,"SoundDuration":104268,"Delta":86120663},{"NoteNumber":65,"Velocity":27,"Duration":104268,"SoundDuration":104268,"Delta":86329199},{"NoteNumber":69,"Velocity":27,"Duration":104268,"SoundDuration":104268,"Delta":86329199},{"NoteNumber":72,"Velocity":33,"Duration":104268,"SoundDuration":104268,"Delta":86329199},{"NoteNumber":64,"Velocity":41,"Duration":103634,"SoundDuration":103634,"Delta":86537735},{"NoteNumber":72,"Velocity":29,"Duration":103634,"SoundDuration":103634,"Delta":86745004},{"NoteNumber":69,"Velocity":25,"Duration":103634,"SoundDuration":103634,"Delta":86745004},{"NoteNumber":65,"Velocity":25,"Duration":103634,"SoundDuration":103634,"Delta":86745004},{"NoteNumber":65,"Velocity":44,"Duration":101805,"SoundDuration":101805,"Delta":86952272},{"NoteNumber":72,"Velocity":33,"Duration":101805,"SoundDuration":101805,"Delta":87155883},{"NoteNumber":69,"Velocity":27,"Duration":101805,"SoundDuration":101805,"Delta":87155883},{"NoteNumber":65,"Velocity":27,"Duration":101805,"SoundDuration":101805,"Delta":87155883},{"NoteNumber":60,"Velocity":41,"Duration":108885,"SoundDuration":108885,"Delta":87359493},{"NoteNumber":72,"Velocity":27,"Duration":117041,"SoundDuration":117041,"Delta":87577263},{"NoteNumber":69,"Velocity":22,"Duration":117041,"SoundDuration":117041,"Delta":87577263},{"NoteNumber":65,"Velocity":22,"Duration":117041,"SoundDuration":117041,"Delta":87577263},{"NoteNumber":72,"Velocity":52,"Duration":106895,"SoundDuration":106895,"Delta":87694305},{"NoteNumber":48,"Velocity":44,"Duration":106895,"SoundDuration":106895,"Delta":87694305},{"NoteNumber":81,"Velocity":64,"Duration":421348,"SoundDuration":421348,"Delta":87801200},{"NoteNumber":84,"Velocity":64,"Duration":421348,"SoundDuration":421348,"Delta":87801200},{"NoteNumber":33,"Velocity":56,"Duration":421348,"SoundDuration":421348,"Delta":87801200},{"NoteNumber":79,"Velocity":58,"Duration":199893,"SoundDuration":199893,"Delta":88222549},{"NoteNumber":82,"Velocity":58,"Duration":199893,"SoundDuration":199893,"Delta":88222549},{"NoteNumber":40,"Velocity":49,"Duration":828195,"SoundDuration":828195,"Delta":88222549},{"NoteNumber":77,"Velocity":58,"Duration":206953,"SoundDuration":206953,"Delta":88422442},{"NoteNumber":81,"Velocity":58,"Duration":206953,"SoundDuration":206953,"Delta":88422442},{"NoteNumber":81,"Velocity":62,"Duration":421348,"SoundDuration":421348,"Delta":88629396},{"NoteNumber":77,"Velocity":62,"Duration":421348,"SoundDuration":421348,"Delta":88629396},{"NoteNumber":76,"Velocity":58,"Duration":213705,"SoundDuration":213705,"Delta":89050745},{"NoteNumber":79,"Velocity":58,"Duration":213705,"SoundDuration":213705,"Delta":89050745},{"NoteNumber":48,"Velocity":51,"Duration":440086,"SoundDuration":440086,"Delta":89050745},{"NoteNumber":74,"Velocity":58,"Duration":226381,"SoundDuration":226381,"Delta":89264450},{"NoteNumber":77,"Velocity":58,"Duration":226381,"SoundDuration":226381,"Delta":89264450},{"NoteNumber":77,"Velocity":58,"Duration":237304,"SoundDuration":237304,"Delta":89490831},{"NoteNumber":81,"Velocity":58,"Duration":237304,"SoundDuration":237304,"Delta":89490831},{"NoteNumber":60,"Velocity":40,"Duration":1431748,"SoundDuration":1431748,"Delta":89490831},{"NoteNumber":76,"Velocity":50,"Duration":222222,"SoundDuration":222222,"Delta":90478136},{"NoteNumber":79,"Velocity":50,"Duration":222222,"SoundDuration":222222,"Delta":90478136},{"NoteNumber":72,"Velocity":45,"Duration":222222,"SoundDuration":222222,"Delta":90700358},{"NoteNumber":76,"Velocity":45,"Duration":222222,"SoundDuration":222222,"Delta":90700358},{"NoteNumber":70,"Velocity":45,"Duration":416666,"SoundDuration":416666,"Delta":90922580},{"NoteNumber":74,"Velocity":45,"Duration":416666,"SoundDuration":416666,"Delta":90922580},{"NoteNumber":51,"Velocity":35,"Duration":208333,"SoundDuration":208333,"Delta":90922580},{"NoteNumber":52,"Velocity":31,"Duration":208333,"SoundDuration":208333,"Delta":91130913},{"NoteNumber":70,"Velocity":40,"Duration":143369,"SoundDuration":143369,"Delta":91339247},{"NoteNumber":67,"Velocity":40,"Duration":430107,"SoundDuration":430107,"Delta":91339247},{"NoteNumber":60,"Velocity":41,"Duration":215053,"SoundDuration":215053,"Delta":91339247},{"NoteNumber":72,"Velocity":40,"Duration":143369,"SoundDuration":143369,"Delta":91482616},{"NoteNumber":70,"Velocity":40,"Duration":143369,"SoundDuration":143369,"Delta":91625985},{"NoteNumber":67,"Velocity":43,"Duration":447760,"SoundDuration":447760,"Delta":91769354},{"NoteNumber":64,"Velocity":38,"Duration":447760,"SoundDuration":447760,"Delta":91769354},{"NoteNumber":60,"Velocity":41,"Duration":223880,"SoundDuration":223880,"Delta":91769354},{"NoteNumber":65,"Velocity":38,"Duration":108695,"SoundDuration":108695,"Delta":92217115},{"NoteNumber":70,"Velocity":27,"Duration":108960,"SoundDuration":108960,"Delta":92434506},{"NoteNumber":72,"Velocity":27,"Duration":108960,"SoundDuration":108960,"Delta":92434506},{"NoteNumber":64,"Velocity":27,"Duration":108960,"SoundDuration":108960,"Delta":92434506},{"NoteNumber":64,"Velocity":41,"Duration":109489,"SoundDuration":109489,"Delta":92652955},{"NoteNumber":70,"Velocity":31,"Duration":110294,"SoundDuration":110294,"Delta":92872470},{"NoteNumber":72,"Velocity":31,"Duration":110294,"SoundDuration":110294,"Delta":92872470},{"NoteNumber":64,"Velocity":31,"Duration":110294,"SoundDuration":110294,"Delta":92872470},{"NoteNumber":62,"Velocity":38,"Duration":111111,"SoundDuration":111111,"Delta":93093058},{"NoteNumber":64,"Velocity":25,"Duration":116242,"SoundDuration":116242,"Delta":93315281},{"NoteNumber":72,"Velocity":25,"Duration":116242,"SoundDuration":116242,"Delta":93315281},{"NoteNumber":70,"Velocity":25,"Duration":116242,"SoundDuration":116242,"Delta":93315281},{"NoteNumber":67,"Velocity":59,"Duration":423310,"SoundDuration":423310,"Delta":93547767},{"NoteNumber":70,"Velocity":59,"Duration":423310,"SoundDuration":423310,"Delta":93547767},{"NoteNumber":36,"Velocity":49,"Duration":1255351,"SoundDuration":1255351,"Delta":93547767},{"NoteNumber":69,"Velocity":56,"Duration":200829,"SoundDuration":200829,"Delta":93971077},{"NoteNumber":72,"Velocity":56,"Duration":200829,"SoundDuration":200829,"Delta":93971077},{"NoteNumber":70,"Velocity":56,"Duration":207900,"SoundDuration":207900,"Delta":94171907},{"NoteNumber":74,"Velocity":56,"Duration":207900,"SoundDuration":207900,"Delta":94171907},{"NoteNumber":79,"Velocity":59,"Duration":1484503,"SoundDuration":1484503,"Delta":94379807},{"NoteNumber":76,"Velocity":59,"Duration":1484503,"SoundDuration":1484503,"Delta":94379807},{"NoteNumber":48,"Velocity":47,"Duration":206668,"SoundDuration":206668,"Delta":94803118},{"NoteNumber":72,"Velocity":37,"Duration":212681,"SoundDuration":212681,"Delta":95216455},{"NoteNumber":60,"Velocity":37,"Duration":222288,"SoundDuration":222288,"Delta":95642023},{"NoteNumber":74,"Velocity":54,"Duration":222287,"SoundDuration":222287,"Delta":95864311},{"NoteNumber":77,"Velocity":54,"Duration":222287,"SoundDuration":222287,"Delta":95864311},{"NoteNumber":72,"Velocity":45,"Duration":418234,"SoundDuration":418234,"Delta":96086599},{"NoteNumber":76,"Velocity":45,"Duration":139411,"SoundDuration":139411,"Delta":96086599},{"NoteNumber":41,"Velocity":46,"Duration":845945,"SoundDuration":845945,"Delta":96086599},{"NoteNumber":77,"Velocity":45,"Duration":139411,"SoundDuration":139411,"Delta":96226011},{"NoteNumber":76,"Velocity":45,"Duration":139411,"SoundDuration":139411,"Delta":96365422},{"NoteNumber":69,"Velocity":41,"Duration":427710,"SoundDuration":427710,"Delta":96504834},{"NoteNumber":72,"Velocity":46,"Duration":427710,"SoundDuration":427710,"Delta":96504834},{"NoteNumber":69,"Velocity":43,"Duration":107142,"SoundDuration":107142,"Delta":96932544},{"NoteNumber":65,"Velocity":27,"Duration":107142,"SoundDuration":107142,"Delta":97146830},{"NoteNumber":69,"Velocity":27,"Duration":107142,"SoundDuration":107142,"Delta":97146830},{"NoteNumber":72,"Velocity":33,"Duration":107142,"SoundDuration":107142,"Delta":97146830},{"NoteNumber":64,"Velocity":41,"Duration":105633,"SoundDuration":105633,"Delta":97361116},{"NoteNumber":72,"Velocity":29,"Duration":105633,"SoundDuration":105633,"Delta":97572383},{"NoteNumber":69,"Velocity":25,"Duration":105633,"SoundDuration":105633,"Delta":97572383},{"NoteNumber":65,"Velocity":25,"Duration":105633,"SoundDuration":105633,"Delta":97572383},{"NoteNumber":65,"Velocity":44,"Duration":104166,"SoundDuration":104166,"Delta":97783651},{"NoteNumber":72,"Velocity":33,"Duration":104166,"SoundDuration":104166,"Delta":97991984},{"NoteNumber":69,"Velocity":27,"Duration":104166,"SoundDuration":104166,"Delta":97991984},{"NoteNumber":65,"Velocity":27,"Duration":104166,"SoundDuration":104166,"Delta":97991984},{"NoteNumber":60,"Velocity":41,"Duration":108885,"SoundDuration":108885,"Delta":98200317},{"NoteNumber":72,"Velocity":27,"Duration":108885,"SoundDuration":108885,"Delta":98418087},{"NoteNumber":69,"Velocity":22,"Duration":108885,"SoundDuration":108885,"Delta":98418087},{"NoteNumber":65,"Velocity":22,"Duration":108885,"SoundDuration":108885,"Delta":98418087},{"NoteNumber":77,"Velocity":59,"Duration":421348,"SoundDuration":421348,"Delta":98634318},{"NoteNumber":81,"Velocity":59,"Duration":421348,"SoundDuration":421348,"Delta":98634318},{"NoteNumber":37,"Velocity":51,"Duration":210674,"SoundDuration":210674,"Delta":98634318},{"NoteNumber":76,"Velocity":53,"Duration":199893,"SoundDuration":199893,"Delta":99055667},{"NoteNumber":79,"Velocity":53,"Duration":199893,"SoundDuration":199893,"Delta":99055667},{"NoteNumber":69,"Velocity":45,"Duration":199893,"SoundDuration":199893,"Delta":99055667},{"NoteNumber":74,"Velocity":53,"Duration":206953,"SoundDuration":206953,"Delta":99255560},{"NoteNumber":77,"Velocity":53,"Duration":206953,"SoundDuration":206953,"Delta":99255560},{"NoteNumber":77,"Velocity":57,"Duration":832814,"SoundDuration":832814,"Delta":99462514},{"NoteNumber":74,"Velocity":57,"Duration":832814,"SoundDuration":832814,"Delta":99462514},{"NoteNumber":57,"Velocity":47,"Duration":210674,"SoundDuration":210674,"Delta":99462514},{"NoteNumber":38,"Velocity":47,"Duration":205732,"SoundDuration":205732,"Delta":99883862},{"NoteNumber":75,"Velocity":51,"Duration":211715,"SoundDuration":211715,"Delta":100295328},{"NoteNumber":72,"Velocity":45,"Duration":211715,"SoundDuration":211715,"Delta":100295328},{"NoteNumber":50,"Velocity":37,"Duration":211715,"SoundDuration":211715,"Delta":100295328},{"NoteNumber":78,"Velocity":40,"Duration":211924,"SoundDuration":211924,"Delta":100507044},{"NoteNumber":74,"Velocity":36,"Duration":211924,"SoundDuration":211924,"Delta":100507044},{"NoteNumber":70,"Velocity":45,"Duration":221271,"SoundDuration":221271,"Delta":100718969},{"NoteNumber":74,"Velocity":51,"Duration":221271,"SoundDuration":221271,"Delta":100718969},{"NoteNumber":66,"Velocity":38,"Duration":221271,"SoundDuration":221271,"Delta":100718969},{"NoteNumber":72,"Velocity":36,"Duration":221271,"SoundDuration":221271,"Delta":100940240},{"NoteNumber":75,"Velocity":41,"Duration":221271,"SoundDuration":221271,"Delta":100940240},{"NoteNumber":69,"Velocity":45,"Duration":416377,"SoundDuration":416377,"Delta":101161512},{"NoteNumber":72,"Velocity":45,"Duration":138792,"SoundDuration":138792,"Delta":101161512},{"NoteNumber":43,"Velocity":46,"Duration":835472,"SoundDuration":835472,"Delta":101161512},{"NoteNumber":74,"Velocity":45,"Duration":138792,"SoundDuration":138792,"Delta":101300304},{"NoteNumber":72,"Velocity":45,"Duration":138792,"SoundDuration":138792,"Delta":101439097},{"NoteNumber":67,"Velocity":44,"Duration":419095,"SoundDuration":419095,"Delta":101577889},{"NoteNumber":70,"Velocity":51,"Duration":419095,"SoundDuration":419095,"Delta":101577889},{"NoteNumber":66,"Velocity":43,"Duration":106382,"SoundDuration":106382,"Delta":101996985},{"NoteNumber":62,"Velocity":27,"Duration":106382,"SoundDuration":106382,"Delta":102209751},{"NoteNumber":67,"Velocity":27,"Duration":106382,"SoundDuration":106382,"Delta":102209751},{"NoteNumber":70,"Velocity":33,"Duration":106382,"SoundDuration":106382,"Delta":102209751},{"NoteNumber":61,"Velocity":41,"Duration":105633,"SoundDuration":105633,"Delta":102422517},{"NoteNumber":70,"Velocity":29,"Duration":105633,"SoundDuration":105633,"Delta":102633784},{"NoteNumber":67,"Velocity":25,"Duration":105633,"SoundDuration":105633,"Delta":102633784},{"NoteNumber":62,"Velocity":25,"Duration":105633,"SoundDuration":105633,"Delta":102633784},{"NoteNumber":63,"Velocity":44,"Duration":104166,"SoundDuration":104166,"Delta":102845052},{"NoteNumber":70,"Velocity":33,"Duration":104166,"SoundDuration":104166,"Delta":103053385},{"NoteNumber":67,"Velocity":27,"Duration":104166,"SoundDuration":104166,"Delta":103053385},{"NoteNumber":62,"Velocity":27,"Duration":104166,"SoundDuration":104166,"Delta":103053385},{"NoteNumber":62,"Velocity":41,"Duration":107526,"SoundDuration":107526,"Delta":103261718},{"NoteNumber":70,"Velocity":27,"Duration":116242,"SoundDuration":116242,"Delta":103476772},{"NoteNumber":67,"Velocity":22,"Duration":116242,"SoundDuration":116242,"Delta":103476772},{"NoteNumber":62,"Velocity":22,"Duration":116242,"SoundDuration":116242,"Delta":103476772},{"NoteNumber":79,"Velocity":59,"Duration":211655,"SoundDuration":211655,"Delta":103709258},{"NoteNumber":82,"Velocity":59,"Duration":211655,"SoundDuration":211655,"Delta":103709258},{"NoteNumber":36,"Velocity":51,"Duration":1255351,"SoundDuration":1255351,"Delta":103709258},{"NoteNumber":76,"Velocity":56,"Duration":200829,"SoundDuration":200829,"Delta":104132568},{"NoteNumber":79,"Velocity":56,"Duration":200829,"SoundDuration":200829,"Delta":104132568},{"NoteNumber":72,"Velocity":56,"Duration":207900,"SoundDuration":207900,"Delta":104333398},{"NoteNumber":76,"Velocity":56,"Duration":207900,"SoundDuration":207900,"Delta":104333398},{"NoteNumber":72,"Velocity":59,"Duration":1049329,"SoundDuration":1049329,"Delta":104541299},{"NoteNumber":69,"Velocity":59,"Duration":1262215,"SoundDuration":1262215,"Delta":104541299},{"NoteNumber":60,"Velocity":47,"Duration":206668,"SoundDuration":206668,"Delta":104964609},{"NoteNumber":72,"Velocity":37,"Duration":425568,"SoundDuration":425568,"Delta":105377946},{"NoteNumber":70,"Velocity":46,"Duration":444575,"SoundDuration":444575,"Delta":105803514},{"NoteNumber":74,"Velocity":51,"Duration":444575,"SoundDuration":444575,"Delta":105803514},{"NoteNumber":48,"Velocity":39,"Duration":222288,"SoundDuration":222288,"Delta":105803514},{"NoteNumber":67,"Velocity":45,"Duration":424787,"SoundDuration":424787,"Delta":106248090},{"NoteNumber":70,"Velocity":45,"Duration":139411,"SoundDuration":139411,"Delta":106248090},{"NoteNumber":41,"Velocity":46,"Duration":424787,"SoundDuration":424787,"Delta":106248090},{"NoteNumber":72,"Velocity":45,"Duration":139411,"SoundDuration":139411,"Delta":106387502},{"NoteNumber":70,"Velocity":45,"Duration":145964,"SoundDuration":145964,"Delta":106526914},{"NoteNumber":65,"Velocity":43,"Duration":488095,"SoundDuration":488095,"Delta":106672878},{"NoteNumber":69,"Velocity":45,"Duration":488095,"SoundDuration":488095,"Delta":106672878},{"NoteNumber":47,"Velocity":31,"Duration":238095,"SoundDuration":238095,"Delta":106672878},{"NoteNumber":48,"Velocity":29,"Duration":250000,"SoundDuration":250000,"Delta":106910973},{"NoteNumber":57,"Velocity":30,"Duration":500000,"SoundDuration":500000,"Delta":107160973},{"NoteNumber":36,"Velocity":42,"Duration":152578,"SoundDuration":152578,"Delta":107660973},{"NoteNumber":57,"Velocity":46,"Duration":287136,"SoundDuration":287136,"Delta":107966130},{"NoteNumber":65,"Velocity":50,"Duration":95712,"SoundDuration":95712,"Delta":107966130},{"NoteNumber":53,"Velocity":37,"Duration":95712,"SoundDuration":95712,"Delta":107966130},{"NoteNumber":67,"Velocity":47,"Duration":95712,"SoundDuration":95712,"Delta":108061842},{"NoteNumber":55,"Velocity":35,"Duration":95712,"SoundDuration":95712,"Delta":108061842},{"NoteNumber":65,"Velocity":47,"Duration":95712,"SoundDuration":95712,"Delta":108157554},{"NoteNumber":53,"Velocity":35,"Duration":95712,"SoundDuration":95712,"Delta":108157554},{"NoteNumber":57,"Velocity":43,"Duration":290505,"SoundDuration":290505,"Delta":108253266},{"NoteNumber":64,"Velocity":50,"Duration":142911,"SoundDuration":142911,"Delta":108253266},{"NoteNumber":52,"Velocity":37,"Duration":142911,"SoundDuration":142911,"Delta":108253266},{"NoteNumber":62,"Velocity":47,"Duration":147594,"SoundDuration":147594,"Delta":108396178},{"NoteNumber":50,"Velocity":35,"Duration":147594,"SoundDuration":147594,"Delta":108396178},{"NoteNumber":57,"Velocity":39,"Duration":295710,"SoundDuration":295710,"Delta":108543772},{"NoteNumber":65,"Velocity":53,"Duration":295710,"SoundDuration":295710,"Delta":108543772},{"NoteNumber":41,"Velocity":40,"Duration":295710,"SoundDuration":295710,"Delta":108543772},{"NoteNumber":53,"Velocity":40,"Duration":295710,"SoundDuration":295710,"Delta":108543772},{"NoteNumber":57,"Velocity":43,"Duration":112804,"SoundDuration":112804,"Delta":108839483},{"NoteNumber":64,"Velocity":51,"Duration":112804,"SoundDuration":112804,"Delta":108839483},{"NoteNumber":52,"Velocity":43,"Duration":112804,"SoundDuration":112804,"Delta":108839483},{"NoteNumber":62,"Velocity":48,"Duration":112804,"SoundDuration":112804,"Delta":108989889},{"NoteNumber":50,"Velocity":40,"Duration":112804,"SoundDuration":112804,"Delta":108989889},{"NoteNumber":57,"Velocity":43,"Duration":114995,"SoundDuration":114995,"Delta":109140295},{"NoteNumber":60,"Velocity":49,"Duration":114995,"SoundDuration":114995,"Delta":109140295},{"NoteNumber":48,"Velocity":41,"Duration":114995,"SoundDuration":114995,"Delta":109140295},{"NoteNumber":64,"Velocity":46,"Duration":114995,"SoundDuration":114995,"Delta":109293622},{"NoteNumber":52,"Velocity":39,"Duration":114995,"SoundDuration":114995,"Delta":109293622},{"NoteNumber":57,"Velocity":39,"Duration":305964,"SoundDuration":305964,"Delta":109446949},{"NoteNumber":62,"Velocity":51,"Duration":113350,"SoundDuration":113350,"Delta":109446949},{"NoteNumber":50,"Velocity":43,"Duration":113350,"SoundDuration":113350,"Delta":109446949},{"NoteNumber":64,"Velocity":48,"Duration":116123,"SoundDuration":116123,"Delta":109598083},{"NoteNumber":52,"Velocity":40,"Duration":116123,"SoundDuration":116123,"Delta":109598083},{"NoteNumber":57,"Velocity":46,"Duration":287136,"SoundDuration":287136,"Delta":109752913},{"NoteNumber":65,"Velocity":50,"Duration":95712,"SoundDuration":95712,"Delta":109752913},{"NoteNumber":53,"Velocity":37,"Duration":95712,"SoundDuration":95712,"Delta":109752913},{"NoteNumber":67,"Velocity":47,"Duration":95712,"SoundDuration":95712,"Delta":109848626},{"NoteNumber":55,"Velocity":35,"Duration":95712,"SoundDuration":95712,"Delta":109848626},{"NoteNumber":65,"Velocity":47,"Duration":95712,"SoundDuration":95712,"Delta":109944338},{"NoteNumber":53,"Velocity":35,"Duration":95712,"SoundDuration":95712,"Delta":109944338},{"NoteNumber":57,"Velocity":43,"Duration":290505,"SoundDuration":290505,"Delta":110040050},{"NoteNumber":64,"Velocity":50,"Duration":142911,"SoundDuration":142911,"Delta":110040050},{"NoteNumber":52,"Velocity":37,"Duration":142911,"SoundDuration":142911,"Delta":110040050},{"NoteNumber":62,"Velocity":47,"Duration":147594,"SoundDuration":147594,"Delta":110182961},{"NoteNumber":50,"Velocity":35,"Duration":147594,"SoundDuration":147594,"Delta":110182961},{"NoteNumber":57,"Velocity":39,"Duration":295710,"SoundDuration":295710,"Delta":110330556},{"NoteNumber":65,"Velocity":53,"Duration":295710,"SoundDuration":295710,"Delta":110330556},{"NoteNumber":41,"Velocity":40,"Duration":295710,"SoundDuration":295710,"Delta":110330556},{"NoteNumber":53,"Velocity":40,"Duration":295710,"SoundDuration":295710,"Delta":110330556},{"NoteNumber":57,"Velocity":43,"Duration":112804,"SoundDuration":112804,"Delta":110626266},{"NoteNumber":64,"Velocity":51,"Duration":112804,"SoundDuration":112804,"Delta":110626266},{"NoteNumber":52,"Velocity":43,"Duration":112804,"SoundDuration":112804,"Delta":110626266},{"NoteNumber":62,"Velocity":48,"Duration":112804,"SoundDuration":112804,"Delta":110776672},{"NoteNumber":50,"Velocity":40,"Duration":112804,"SoundDuration":112804,"Delta":110776672},{"NoteNumber":57,"Velocity":43,"Duration":114995,"SoundDuration":114995,"Delta":110927078},{"NoteNumber":60,"Velocity":49,"Duration":114995,"SoundDuration":114995,"Delta":110927078},{"NoteNumber":48,"Velocity":41,"Duration":114995,"SoundDuration":114995,"Delta":110927078},{"NoteNumber":64,"Velocity":46,"Duration":114995,"SoundDuration":114995,"Delta":111080405},{"NoteNumber":52,"Velocity":39,"Duration":114995,"SoundDuration":114995,"Delta":111080405},{"NoteNumber":57,"Velocity":39,"Duration":305964,"SoundDuration":305964,"Delta":111233733},{"NoteNumber":62,"Velocity":51,"Duration":113350,"SoundDuration":113350,"Delta":111233733},{"NoteNumber":50,"Velocity":43,"Duration":113350,"SoundDuration":113350,"Delta":111233733},{"NoteNumber":64,"Velocity":48,"Duration":116123,"SoundDuration":116123,"Delta":111384866},{"NoteNumber":52,"Velocity":40,"Duration":116123,"SoundDuration":116123,"Delta":111384866},{"NoteNumber":57,"Velocity":46,"Duration":291862,"SoundDuration":291862,"Delta":111539697},{"NoteNumber":65,"Velocity":50,"Duration":95712,"SoundDuration":95712,"Delta":111539697},{"NoteNumber":53,"Velocity":37,"Duration":95712,"SoundDuration":95712,"Delta":111539697},{"NoteNumber":67,"Velocity":47,"Duration":97287,"SoundDuration":97287,"Delta":111635409},{"NoteNumber":55,"Velocity":35,"Duration":97287,"SoundDuration":97287,"Delta":111635409},{"NoteNumber":65,"Velocity":47,"Duration":98863,"SoundDuration":98863,"Delta":111732697},{"NoteNumber":53,"Velocity":35,"Duration":98863,"SoundDuration":98863,"Delta":111732697},{"NoteNumber":57,"Velocity":43,"Duration":310042,"SoundDuration":310042,"Delta":111831560},{"NoteNumber":64,"Velocity":50,"Duration":142911,"SoundDuration":142911,"Delta":111831560},{"NoteNumber":52,"Velocity":37,"Duration":142911,"SoundDuration":142911,"Delta":111831560},{"NoteNumber":62,"Velocity":47,"Duration":167130,"SoundDuration":167130,"Delta":111974471},{"NoteNumber":50,"Velocity":35,"Duration":167130,"SoundDuration":167130,"Delta":111974471},{"NoteNumber":57,"Velocity":51,"Duration":316880,"SoundDuration":316880,"Delta":112141602},{"NoteNumber":65,"Velocity":60,"Duration":154067,"SoundDuration":154067,"Delta":112141602},{"NoteNumber":53,"Velocity":40,"Duration":154067,"SoundDuration":154067,"Delta":112141602},{"NoteNumber":64,"Velocity":48,"Duration":122110,"SoundDuration":122110,"Delta":112295670},{"NoteNumber":52,"Velocity":40,"Duration":122110,"SoundDuration":122110,"Delta":112295670},{"NoteNumber":57,"Velocity":48,"Duration":117850,"SoundDuration":117850,"Delta":112458483},{"NoteNumber":62,"Velocity":57,"Duration":117850,"SoundDuration":117850,"Delta":112458483},{"NoteNumber":50,"Velocity":43,"Duration":117850,"SoundDuration":117850,"Delta":112458483},{"NoteNumber":64,"Velocity":48,"Duration":123382,"SoundDuration":123382,"Delta":112615617},{"NoteNumber":52,"Velocity":40,"Duration":123382,"SoundDuration":123382,"Delta":112615617},{"NoteNumber":57,"Velocity":45,"Duration":118446,"SoundDuration":118446,"Delta":112780127},{"NoteNumber":60,"Velocity":54,"Duration":118446,"SoundDuration":118446,"Delta":112780127},{"NoteNumber":48,"Velocity":41,"Duration":118446,"SoundDuration":118446,"Delta":112780127},{"NoteNumber":64,"Velocity":46,"Duration":132352,"SoundDuration":132352,"Delta":112938055},{"NoteNumber":52,"Velocity":39,"Duration":132352,"SoundDuration":132352,"Delta":112938055},{"NoteNumber":57,"Velocity":39,"Duration":305964,"SoundDuration":305964,"Delta":113114525},{"NoteNumber":62,"Velocity":51,"Duration":113350,"SoundDuration":113350,"Delta":113114525},{"NoteNumber":50,"Velocity":43,"Duration":113350,"SoundDuration":113350,"Delta":113114525},{"NoteNumber":64,"Velocity":48,"Duration":116123,"SoundDuration":116123,"Delta":113265659},{"NoteNumber":52,"Velocity":40,"Duration":116123,"SoundDuration":116123,"Delta":113265659},{"NoteNumber":57,"Velocity":46,"Duration":291862,"SoundDuration":291862,"Delta":113420490},{"NoteNumber":65,"Velocity":50,"Duration":95712,"SoundDuration":95712,"Delta":113420490},{"NoteNumber":53,"Velocity":37,"Duration":95712,"SoundDuration":95712,"Delta":113420490},{"NoteNumber":67,"Velocity":47,"Duration":97287,"SoundDuration":97287,"Delta":113516202},{"NoteNumber":55,"Velocity":35,"Duration":97287,"SoundDuration":97287,"Delta":113516202},{"NoteNumber":65,"Velocity":47,"Duration":98863,"SoundDuration":98863,"Delta":113613489},{"NoteNumber":53,"Velocity":35,"Duration":98863,"SoundDuration":98863,"Delta":113613489},{"NoteNumber":57,"Velocity":43,"Duration":298513,"SoundDuration":298513,"Delta":113712352},{"NoteNumber":64,"Velocity":50,"Duration":142911,"SoundDuration":142911,"Delta":113712352},{"NoteNumber":52,"Velocity":37,"Duration":142911,"SoundDuration":142911,"Delta":113712352},{"NoteNumber":62,"Velocity":47,"Duration":155601,"SoundDuration":155601,"Delta":113855264},{"NoteNumber":50,"Velocity":35,"Duration":155601,"SoundDuration":155601,"Delta":113855264},{"NoteNumber":58,"Velocity":51,"Duration":316880,"SoundDuration":316880,"Delta":114010866},{"NoteNumber":65,"Velocity":57,"Duration":154067,"SoundDuration":154067,"Delta":114010866},{"NoteNumber":43,"Velocity":40,"Duration":954380,"SoundDuration":954380,"Delta":114010866},{"NoteNumber":53,"Velocity":40,"Duration":154067,"SoundDuration":154067,"Delta":114010866},{"NoteNumber":64,"Velocity":48,"Duration":122110,"SoundDuration":122110,"Delta":114164933},{"NoteNumber":52,"Velocity":40,"Duration":122110,"SoundDuration":122110,"Delta":114164933},{"NoteNumber":58,"Velocity":48,"Duration":117850,"SoundDuration":117850,"Delta":114327747},{"NoteNumber":62,"Velocity":53,"Duration":117850,"SoundDuration":117850,"Delta":114327747},{"NoteNumber":50,"Velocity":43,"Duration":117850,"SoundDuration":117850,"Delta":114327747},{"NoteNumber":65,"Velocity":48,"Duration":123382,"SoundDuration":123382,"Delta":114484881},{"NoteNumber":53,"Velocity":40,"Duration":123382,"SoundDuration":123382,"Delta":114484881},{"NoteNumber":58,"Velocity":45,"Duration":315855,"SoundDuration":315855,"Delta":114649390},{"NoteNumber":64,"Velocity":54,"Duration":315855,"SoundDuration":315855,"Delta":114649390},{"NoteNumber":52,"Velocity":41,"Duration":315855,"SoundDuration":315855,"Delta":114649390},{"NoteNumber":36,"Velocity":54,"Duration":299999,"SoundDuration":299999,"Delta":114965246},{"NoteNumber":79,"Velocity":67,"Duration":297775,"SoundDuration":297775,"Delta":115265246},{"NoteNumber":82,"Velocity":67,"Duration":98644,"SoundDuration":98644,"Delta":115265246},{"NoteNumber":73,"Velocity":57,"Duration":148149,"SoundDuration":148149,"Delta":115265246},{"NoteNumber":84,"Velocity":57,"Duration":99256,"SoundDuration":99256,"Delta":115363891},{"NoteNumber":76,"Velocity":52,"Duration":149626,"SoundDuration":149626,"Delta":115413395},{"NoteNumber":82,"Velocity":57,"Duration":99875,"SoundDuration":99875,"Delta":115463147},{"NoteNumber":78,"Velocity":65,"Duration":303938,"SoundDuration":303938,"Delta":115563022},{"NoteNumber":81,"Velocity":65,"Duration":100629,"SoundDuration":100629,"Delta":115563022},{"NoteNumber":72,"Velocity":57,"Duration":151134,"SoundDuration":151134,"Delta":115563022},{"NoteNumber":82,"Velocity":57,"Duration":101266,"SoundDuration":101266,"Delta":115663652},{"NoteNumber":75,"Velocity":52,"Duration":152803,"SoundDuration":152803,"Delta":115714157},{"NoteNumber":81,"Velocity":57,"Duration":102042,"SoundDuration":102042,"Delta":115764918},{"NoteNumber":77,"Velocity":66,"Duration":331491,"SoundDuration":331491,"Delta":115866960},{"NoteNumber":80,"Velocity":66,"Duration":331491,"SoundDuration":331491,"Delta":115866960},{"NoteNumber":71,"Velocity":57,"Duration":165745,"SoundDuration":165745,"Delta":115866960},{"NoteNumber":89,"Velocity":78,"Duration":75000,"SoundDuration":75000,"Delta":116198452},{"NoteNumber":71,"Velocity":65,"Duration":75000,"SoundDuration":75000,"Delta":116198452},{"NoteNumber":77,"Velocity":70,"Duration":77720,"SoundDuration":77720,"Delta":116348452},{"NoteNumber":80,"Velocity":70,"Duration":77720,"SoundDuration":77720,"Delta":116348452},{"NoteNumber":74,"Velocity":56,"Duration":77720,"SoundDuration":77720,"Delta":116348452},{"NoteNumber":95,"Velocity":76,"Duration":157894,"SoundDuration":157894,"Delta":116503892},{"NoteNumber":68,"Velocity":65,"Duration":157894,"SoundDuration":157894,"Delta":116503892},{"NoteNumber":35,"Velocity":54,"Duration":299999,"SoundDuration":299999,"Delta":116819682},{"NoteNumber":77,"Velocity":67,"Duration":295947,"SoundDuration":295947,"Delta":117119682},{"NoteNumber":80,"Velocity":67,"Duration":97920,"SoundDuration":97920,"Delta":117119682},{"NoteNumber":71,"Velocity":57,"Duration":147061,"SoundDuration":147061,"Delta":117119682},{"NoteNumber":82,"Velocity":57,"Duration":98523,"SoundDuration":98523,"Delta":117217603},{"NoteNumber":74,"Velocity":52,"Duration":148886,"SoundDuration":148886,"Delta":117266743},{"NoteNumber":80,"Velocity":57,"Duration":99503,"SoundDuration":99503,"Delta":117316126},{"NoteNumber":76,"Velocity":65,"Duration":304593,"SoundDuration":304593,"Delta":117415630},{"NoteNumber":79,"Velocity":65,"Duration":100503,"SoundDuration":100503,"Delta":117415630},{"NoteNumber":70,"Velocity":57,"Duration":151137,"SoundDuration":151137,"Delta":117415630},{"NoteNumber":80,"Velocity":57,"Duration":101524,"SoundDuration":101524,"Delta":117516134},{"NoteNumber":73,"Velocity":52,"Duration":153456,"SoundDuration":153456,"Delta":117566767},{"NoteNumber":79,"Velocity":57,"Duration":102565,"SoundDuration":102565,"Delta":117617658},{"NoteNumber":75,"Velocity":66,"Duration":342856,"SoundDuration":342856,"Delta":117720223},{"NoteNumber":78,"Velocity":66,"Duration":342856,"SoundDuration":342856,"Delta":117720223},{"NoteNumber":69,"Velocity":57,"Duration":171428,"SoundDuration":171428,"Delta":117720223},{"NoteNumber":87,"Velocity":78,"Duration":75000,"SoundDuration":75000,"Delta":118063080},{"NoteNumber":71,"Velocity":65,"Duration":75000,"SoundDuration":75000,"Delta":118063080},{"NoteNumber":75,"Velocity":70,"Duration":77720,"SoundDuration":77720,"Delta":118213080},{"NoteNumber":78,"Velocity":70,"Duration":77720,"SoundDuration":77720,"Delta":118213080},{"NoteNumber":72,"Velocity":56,"Duration":77720,"SoundDuration":77720,"Delta":118213080},{"NoteNumber":93,"Velocity":76,"Duration":159574,"SoundDuration":159574,"Delta":118368521},{"NoteNumber":66,"Velocity":65,"Duration":159574,"SoundDuration":159574,"Delta":118368521},{"NoteNumber":54,"Velocity":54,"Duration":150000,"SoundDuration":150000,"Delta":118687670},{"NoteNumber":75,"Velocity":58,"Duration":144927,"SoundDuration":144927,"Delta":118987670},{"NoteNumber":78,"Velocity":74,"Duration":96618,"SoundDuration":96618,"Delta":118987670},{"NoteNumber":69,"Velocity":63,"Duration":144927,"SoundDuration":144927,"Delta":118987670},{"NoteNumber":80,"Velocity":63,"Duration":96735,"SoundDuration":96735,"Delta":119084288},{"NoteNumber":72,"Velocity":58,"Duration":145513,"SoundDuration":145513,"Delta":119132597},{"NoteNumber":78,"Velocity":63,"Duration":97087,"SoundDuration":97087,"Delta":119181024},{"NoteNumber":74,"Velocity":56,"Duration":146223,"SoundDuration":146223,"Delta":119278111},{"NoteNumber":77,"Velocity":72,"Duration":97442,"SoundDuration":97442,"Delta":119278111},{"NoteNumber":68,"Velocity":61,"Duration":146223,"SoundDuration":146223,"Delta":119278111},{"NoteNumber":78,"Velocity":63,"Duration":97680,"SoundDuration":97680,"Delta":119375554},{"NoteNumber":71,"Velocity":57,"Duration":146939,"SoundDuration":146939,"Delta":119424334},{"NoteNumber":77,"Velocity":63,"Duration":98039,"SoundDuration":98039,"Delta":119473234},{"NoteNumber":73,"Velocity":54,"Duration":147662,"SoundDuration":147662,"Delta":119571273},{"NoteNumber":76,"Velocity":71,"Duration":98401,"SoundDuration":98401,"Delta":119571273},{"NoteNumber":67,"Velocity":59,"Duration":147662,"SoundDuration":147662,"Delta":119571273},{"NoteNumber":78,"Velocity":61,"Duration":98522,"SoundDuration":98522,"Delta":119669675},{"NoteNumber":70,"Velocity":53,"Duration":148270,"SoundDuration":148270,"Delta":119718936},{"NoteNumber":76,"Velocity":60,"Duration":99009,"SoundDuration":99009,"Delta":119768197},{"NoteNumber":72,"Velocity":54,"Duration":149007,"SoundDuration":149007,"Delta":119867207},{"NoteNumber":75,"Velocity":69,"Duration":99256,"SoundDuration":99256,"Delta":119867207},{"NoteNumber":66,"Velocity":59,"Duration":149007,"SoundDuration":149007,"Delta":119867207},{"NoteNumber":77,"Velocity":59,"Duration":99502,"SoundDuration":99502,"Delta":119966463},{"NoteNumber":69,"Velocity":52,"Duration":149751,"SoundDuration":149751,"Delta":120016214},{"NoteNumber":75,"Velocity":59,"Duration":99999,"SoundDuration":99999,"Delta":120065965},{"NoteNumber":71,"Velocity":52,"Duration":150502,"SoundDuration":150502,"Delta":120165965},{"NoteNumber":74,"Velocity":67,"Duration":100251,"SoundDuration":100251,"Delta":120165965},{"NoteNumber":65,"Velocity":57,"Duration":150502,"SoundDuration":150502,"Delta":120165965},{"NoteNumber":75,"Velocity":55,"Duration":100502,"SoundDuration":100502,"Delta":120266217},{"NoteNumber":68,"Velocity":50,"Duration":151134,"SoundDuration":151134,"Delta":120316468},{"NoteNumber":74,"Velocity":55,"Duration":100883,"SoundDuration":100883,"Delta":120366719},{"NoteNumber":70,"Velocity":51,"Duration":151899,"SoundDuration":151899,"Delta":120467602},{"NoteNumber":73,"Velocity":65,"Duration":101138,"SoundDuration":101138,"Delta":120467602},{"NoteNumber":65,"Velocity":56,"Duration":151899,"SoundDuration":151899,"Delta":120467602},{"NoteNumber":75,"Velocity":56,"Duration":101522,"SoundDuration":101522,"Delta":120568741},{"NoteNumber":67,"Velocity":49,"Duration":152672,"SoundDuration":152672,"Delta":120619502},{"NoteNumber":73,"Velocity":55,"Duration":101911,"SoundDuration":101911,"Delta":120670264},{"NoteNumber":70,"Velocity":49,"Duration":166666,"SoundDuration":166666,"Delta":120772175},{"NoteNumber":72,"Velocity":63,"Duration":111111,"SoundDuration":111111,"Delta":120772175},{"NoteNumber":64,"Velocity":53,"Duration":166666,"SoundDuration":166666,"Delta":120772175},{"NoteNumber":74,"Velocity":54,"Duration":111111,"SoundDuration":111111,"Delta":120883286},{"NoteNumber":67,"Velocity":48,"Duration":188888,"SoundDuration":188888,"Delta":120938842},{"NoteNumber":72,"Velocity":54,"Duration":133333,"SoundDuration":133333,"Delta":120994397},{"NoteNumber":82,"Velocity":68,"Duration":322580,"SoundDuration":322580,"Delta":121127731},{"NoteNumber":74,"Velocity":68,"Duration":107526,"SoundDuration":107526,"Delta":121127731},{"NoteNumber":48,"Velocity":52,"Duration":322580,"SoundDuration":322580,"Delta":121127731},{"NoteNumber":72,"Velocity":56,"Duration":107526,"SoundDuration":107526,"Delta":121235257},{"NoteNumber":74,"Velocity":56,"Duration":107526,"SoundDuration":107526,"Delta":121342784},{"NoteNumber":72,"Velocity":61,"Duration":180723,"SoundDuration":180723,"Delta":121450311},{"NoteNumber":81,"Velocity":69,"Duration":180723,"SoundDuration":180723,"Delta":121450311},{"NoteNumber":41,"Velocity":56,"Duration":336973,"SoundDuration":336973,"Delta":121450311},{"NoteNumber":77,"Velocity":48,"Duration":78125,"SoundDuration":78125,"Delta":121631034},{"NoteNumber":79,"Velocity":48,"Duration":78125,"SoundDuration":78125,"Delta":121709159},{"NoteNumber":69,"Velocity":57,"Duration":324324,"SoundDuration":324324,"Delta":121787284},{"NoteNumber":77,"Velocity":57,"Duration":162162,"SoundDuration":162162,"Delta":121787284},{"NoteNumber":59,"Velocity":49,"Duration":162162,"SoundDuration":162162,"Delta":121787284},{"NoteNumber":74,"Velocity":57,"Duration":162162,"SoundDuration":162162,"Delta":121949446},{"NoteNumber":60,"Velocity":49,"Duration":162162,"SoundDuration":162162,"Delta":121949446},{"NoteNumber":72,"Velocity":63,"Duration":324324,"SoundDuration":324324,"Delta":122111609},{"NoteNumber":69,"Velocity":54,"Duration":324324,"SoundDuration":324324,"Delta":122111609},{"NoteNumber":36,"Velocity":42,"Duration":153814,"SoundDuration":153814,"Delta":122435933},{"NoteNumber":57,"Velocity":46,"Duration":289463,"SoundDuration":289463,"Delta":122743562},{"NoteNumber":65,"Velocity":50,"Duration":96487,"SoundDuration":96487,"Delta":122743562},{"NoteNumber":53,"Velocity":37,"Duration":96487,"SoundDuration":96487,"Delta":122743562},{"NoteNumber":67,"Velocity":47,"Duration":96487,"SoundDuration":96487,"Delta":122840050},{"NoteNumber":55,"Velocity":35,"Duration":96487,"SoundDuration":96487,"Delta":122840050},{"NoteNumber":65,"Velocity":47,"Duration":96487,"SoundDuration":96487,"Delta":122936538},{"NoteNumber":53,"Velocity":35,"Duration":96487,"SoundDuration":96487,"Delta":122936538},{"NoteNumber":57,"Velocity":43,"Duration":292844,"SoundDuration":292844,"Delta":123033026},{"NoteNumber":64,"Velocity":50,"Duration":144064,"SoundDuration":144064,"Delta":123033026},{"NoteNumber":52,"Velocity":37,"Duration":144064,"SoundDuration":144064,"Delta":123033026},{"NoteNumber":62,"Velocity":47,"Duration":148780,"SoundDuration":148780,"Delta":123177090},{"NoteNumber":50,"Velocity":35,"Duration":148780,"SoundDuration":148780,"Delta":123177090},{"NoteNumber":57,"Velocity":39,"Duration":298101,"SoundDuration":298101,"Delta":123325870},{"NoteNumber":65,"Velocity":53,"Duration":298101,"SoundDuration":298101,"Delta":123325870},{"NoteNumber":53,"Velocity":40,"Duration":298101,"SoundDuration":298101,"Delta":123325870},{"NoteNumber":41,"Velocity":40,"Duration":298101,"SoundDuration":298101,"Delta":123325870},{"NoteNumber":57,"Velocity":43,"Duration":113716,"SoundDuration":113716,"Delta":123623971},{"NoteNumber":64,"Velocity":51,"Duration":113716,"SoundDuration":113716,"Delta":123623971},{"NoteNumber":52,"Velocity":43,"Duration":113716,"SoundDuration":113716,"Delta":123623971},{"NoteNumber":62,"Velocity":48,"Duration":113716,"SoundDuration":113716,"Delta":123775593},{"NoteNumber":50,"Velocity":40,"Duration":113716,"SoundDuration":113716,"Delta":123775593},{"NoteNumber":57,"Velocity":43,"Duration":115931,"SoundDuration":115931,"Delta":123927216},{"NoteNumber":60,"Velocity":49,"Duration":115931,"SoundDuration":115931,"Delta":123927216},{"NoteNumber":48,"Velocity":41,"Duration":115931,"SoundDuration":115931,"Delta":123927216},{"NoteNumber":64,"Velocity":46,"Duration":115931,"SoundDuration":115931,"Delta":124081791},{"NoteNumber":52,"Velocity":39,"Duration":115931,"SoundDuration":115931,"Delta":124081791},{"NoteNumber":57,"Velocity":39,"Duration":308448,"SoundDuration":308448,"Delta":124236367},{"NoteNumber":62,"Velocity":51,"Duration":114271,"SoundDuration":114271,"Delta":124236367},{"NoteNumber":50,"Velocity":43,"Duration":114271,"SoundDuration":114271,"Delta":124236367},{"NoteNumber":64,"Velocity":48,"Duration":117065,"SoundDuration":117065,"Delta":124388728},{"NoteNumber":52,"Velocity":40,"Duration":117065,"SoundDuration":117065,"Delta":124388728},{"NoteNumber":57,"Velocity":46,"Duration":289463,"SoundDuration":289463,"Delta":124544816},{"NoteNumber":65,"Velocity":50,"Duration":96487,"SoundDuration":96487,"Delta":124544816},{"NoteNumber":53,"Velocity":37,"Duration":96487,"SoundDuration":96487,"Delta":124544816},{"NoteNumber":67,"Velocity":47,"Duration":96487,"SoundDuration":96487,"Delta":124641303},{"NoteNumber":55,"Velocity":35,"Duration":96487,"SoundDuration":96487,"Delta":124641303},{"NoteNumber":65,"Velocity":47,"Duration":96487,"SoundDuration":96487,"Delta":124737791},{"NoteNumber":53,"Velocity":35,"Duration":96487,"SoundDuration":96487,"Delta":124737791},{"NoteNumber":57,"Velocity":43,"Duration":292844,"SoundDuration":292844,"Delta":124834279},{"NoteNumber":64,"Velocity":50,"Duration":144064,"SoundDuration":144064,"Delta":124834279},{"NoteNumber":52,"Velocity":37,"Duration":144064,"SoundDuration":144064,"Delta":124834279},{"NoteNumber":62,"Velocity":47,"Duration":148780,"SoundDuration":148780,"Delta":124978344},{"NoteNumber":50,"Velocity":35,"Duration":148780,"SoundDuration":148780,"Delta":124978344},{"NoteNumber":57,"Velocity":39,"Duration":298101,"SoundDuration":298101,"Delta":125127124},{"NoteNumber":65,"Velocity":53,"Duration":298101,"SoundDuration":298101,"Delta":125127124},{"NoteNumber":41,"Velocity":40,"Duration":298101,"SoundDuration":298101,"Delta":125127124},{"NoteNumber":53,"Velocity":40,"Duration":298101,"SoundDuration":298101,"Delta":125127124},{"NoteNumber":57,"Velocity":43,"Duration":113716,"SoundDuration":113716,"Delta":125425225},{"NoteNumber":64,"Velocity":51,"Duration":113716,"SoundDuration":113716,"Delta":125425225},{"NoteNumber":52,"Velocity":43,"Duration":113716,"SoundDuration":113716,"Delta":125425225},{"NoteNumber":62,"Velocity":48,"Duration":113716,"SoundDuration":113716,"Delta":125576847},{"NoteNumber":50,"Velocity":40,"Duration":113716,"SoundDuration":113716,"Delta":125576847},{"NoteNumber":57,"Velocity":43,"Duration":115931,"SoundDuration":115931,"Delta":125728469},{"NoteNumber":60,"Velocity":49,"Duration":115931,"SoundDuration":115931,"Delta":125728469},{"NoteNumber":48,"Velocity":41,"Duration":115931,"SoundDuration":115931,"Delta":125728469},{"NoteNumber":64,"Velocity":46,"Duration":115931,"SoundDuration":115931,"Delta":125883045},{"NoteNumber":52,"Velocity":39,"Duration":115931,"SoundDuration":115931,"Delta":125883045},{"NoteNumber":57,"Velocity":39,"Duration":308448,"SoundDuration":308448,"Delta":126037620},{"NoteNumber":62,"Velocity":51,"Duration":114271,"SoundDuration":114271,"Delta":126037620},{"NoteNumber":50,"Velocity":43,"Duration":114271,"SoundDuration":114271,"Delta":126037620},{"NoteNumber":64,"Velocity":48,"Duration":117065,"SoundDuration":117065,"Delta":126189982},{"NoteNumber":52,"Velocity":40,"Duration":117065,"SoundDuration":117065,"Delta":126189982},{"NoteNumber":57,"Velocity":46,"Duration":294223,"SoundDuration":294223,"Delta":126346069},{"NoteNumber":65,"Velocity":50,"Duration":96487,"SoundDuration":96487,"Delta":126346069},{"NoteNumber":53,"Velocity":37,"Duration":96487,"SoundDuration":96487,"Delta":126346069},{"NoteNumber":67,"Velocity":47,"Duration":98074,"SoundDuration":98074,"Delta":126442557},{"NoteNumber":55,"Velocity":35,"Duration":98074,"SoundDuration":98074,"Delta":126442557},{"NoteNumber":65,"Velocity":47,"Duration":99661,"SoundDuration":99661,"Delta":126540631},{"NoteNumber":53,"Velocity":35,"Duration":99661,"SoundDuration":99661,"Delta":126540631},{"NoteNumber":57,"Velocity":43,"Duration":312546,"SoundDuration":312546,"Delta":126640293},{"NoteNumber":64,"Velocity":50,"Duration":144064,"SoundDuration":144064,"Delta":126640293},{"NoteNumber":52,"Velocity":37,"Duration":144064,"SoundDuration":144064,"Delta":126640293},{"NoteNumber":62,"Velocity":47,"Duration":168482,"SoundDuration":168482,"Delta":126784357},{"NoteNumber":50,"Velocity":35,"Duration":168482,"SoundDuration":168482,"Delta":126784357},{"NoteNumber":57,"Velocity":51,"Duration":319425,"SoundDuration":319425,"Delta":126952840},{"NoteNumber":65,"Velocity":60,"Duration":155311,"SoundDuration":155311,"Delta":126952840},{"NoteNumber":53,"Velocity":40,"Duration":155311,"SoundDuration":155311,"Delta":126952840},{"NoteNumber":64,"Velocity":48,"Duration":123085,"SoundDuration":123085,"Delta":127108151},{"NoteNumber":52,"Velocity":40,"Duration":123085,"SoundDuration":123085,"Delta":127108151},{"NoteNumber":57,"Velocity":48,"Duration":118796,"SoundDuration":118796,"Delta":127272265},{"NoteNumber":62,"Velocity":57,"Duration":118796,"SoundDuration":118796,"Delta":127272265},{"NoteNumber":50,"Velocity":43,"Duration":118796,"SoundDuration":118796,"Delta":127272265},{"NoteNumber":64,"Velocity":48,"Duration":124378,"SoundDuration":124378,"Delta":127430660},{"NoteNumber":52,"Velocity":40,"Duration":124378,"SoundDuration":124378,"Delta":127430660},{"NoteNumber":57,"Velocity":45,"Duration":119401,"SoundDuration":119401,"Delta":127596498},{"NoteNumber":60,"Velocity":54,"Duration":119401,"SoundDuration":119401,"Delta":127596498},{"NoteNumber":48,"Velocity":41,"Duration":119401,"SoundDuration":119401,"Delta":127596498},{"NoteNumber":64,"Velocity":46,"Duration":133420,"SoundDuration":133420,"Delta":127755699},{"NoteNumber":52,"Velocity":39,"Duration":133420,"SoundDuration":133420,"Delta":127755699},{"NoteNumber":57,"Velocity":39,"Duration":308449,"SoundDuration":308449,"Delta":127933593},{"NoteNumber":62,"Velocity":51,"Duration":114271,"SoundDuration":114271,"Delta":127933593},{"NoteNumber":50,"Velocity":43,"Duration":114271,"SoundDuration":114271,"Delta":127933593},{"NoteNumber":64,"Velocity":48,"Duration":117065,"SoundDuration":117065,"Delta":128085955},{"NoteNumber":52,"Velocity":40,"Duration":117065,"SoundDuration":117065,"Delta":128085955},{"NoteNumber":57,"Velocity":46,"Duration":294223,"SoundDuration":294223,"Delta":128242042},{"NoteNumber":65,"Velocity":50,"Duration":96487,"SoundDuration":96487,"Delta":128242042},{"NoteNumber":53,"Velocity":37,"Duration":96487,"SoundDuration":96487,"Delta":128242042},{"NoteNumber":67,"Velocity":47,"Duration":98074,"SoundDuration":98074,"Delta":128338530},{"NoteNumber":55,"Velocity":35,"Duration":98074,"SoundDuration":98074,"Delta":128338530},{"NoteNumber":65,"Velocity":47,"Duration":99661,"SoundDuration":99661,"Delta":128436604},{"NoteNumber":53,"Velocity":35,"Duration":99661,"SoundDuration":99661,"Delta":128436604},{"NoteNumber":57,"Velocity":43,"Duration":300919,"SoundDuration":300919,"Delta":128536266},{"NoteNumber":64,"Velocity":50,"Duration":144064,"SoundDuration":144064,"Delta":128536266},{"NoteNumber":52,"Velocity":37,"Duration":144064,"SoundDuration":144064,"Delta":128536266},{"NoteNumber":62,"Velocity":47,"Duration":156854,"SoundDuration":156854,"Delta":128680330},{"NoteNumber":50,"Velocity":35,"Duration":156854,"SoundDuration":156854,"Delta":128680330},{"NoteNumber":58,"Velocity":51,"Duration":319425,"SoundDuration":319425,"Delta":128837185},{"NoteNumber":65,"Velocity":57,"Duration":155311,"SoundDuration":155311,"Delta":128837185},{"NoteNumber":53,"Velocity":40,"Duration":155311,"SoundDuration":155311,"Delta":128837185},{"NoteNumber":43,"Velocity":40,"Duration":962061,"SoundDuration":962061,"Delta":128837185},{"NoteNumber":64,"Velocity":48,"Duration":123085,"SoundDuration":123085,"Delta":128992496},{"NoteNumber":52,"Velocity":40,"Duration":123085,"SoundDuration":123085,"Delta":128992496},{"NoteNumber":58,"Velocity":48,"Duration":118796,"SoundDuration":118796,"Delta":129156610},{"NoteNumber":62,"Velocity":53,"Duration":118796,"SoundDuration":118796,"Delta":129156610},{"NoteNumber":50,"Velocity":43,"Duration":118796,"SoundDuration":118796,"Delta":129156610},{"NoteNumber":65,"Velocity":48,"Duration":124378,"SoundDuration":124378,"Delta":129315005},{"NoteNumber":53,"Velocity":40,"Duration":124378,"SoundDuration":124378,"Delta":129315005},{"NoteNumber":58,"Velocity":45,"Duration":318403,"SoundDuration":318403,"Delta":129480843},{"NoteNumber":64,"Velocity":54,"Duration":318403,"SoundDuration":318403,"Delta":129480843},{"NoteNumber":52,"Velocity":41,"Duration":318403,"SoundDuration":318403,"Delta":129480843},{"NoteNumber":31,"Velocity":56,"Duration":300000,"SoundDuration":300000,"Delta":129799246},{"NoteNumber":79,"Velocity":69,"Duration":297775,"SoundDuration":297775,"Delta":130099246},{"NoteNumber":82,"Velocity":69,"Duration":98644,"SoundDuration":98644,"Delta":130099246},{"NoteNumber":74,"Velocity":59,"Duration":148148,"SoundDuration":148148,"Delta":130099246},{"NoteNumber":84,"Velocity":58,"Duration":99256,"SoundDuration":99256,"Delta":130197890},{"NoteNumber":76,"Velocity":53,"Duration":149626,"SoundDuration":149626,"Delta":130247395},{"NoteNumber":82,"Velocity":58,"Duration":99875,"SoundDuration":99875,"Delta":130297146},{"NoteNumber":79,"Velocity":67,"Duration":100629,"SoundDuration":100629,"Delta":130397022},{"NoteNumber":70,"Velocity":59,"Duration":151134,"SoundDuration":151134,"Delta":130397022},{"NoteNumber":81,"Velocity":58,"Duration":101266,"SoundDuration":101266,"Delta":130497651},{"NoteNumber":74,"Velocity":53,"Duration":152803,"SoundDuration":152803,"Delta":130548156},{"NoteNumber":79,"Velocity":58,"Duration":102042,"SoundDuration":102042,"Delta":130598918},{"NoteNumber":76,"Velocity":68,"Duration":331491,"SoundDuration":331491,"Delta":130700960},{"NoteNumber":67,"Velocity":59,"Duration":331491,"SoundDuration":331491,"Delta":130700960},{"NoteNumber":86,"Velocity":71,"Duration":150000,"SoundDuration":150000,"Delta":131032451},{"NoteNumber":88,"Velocity":76,"Duration":150000,"SoundDuration":150000,"Delta":131032451},{"NoteNumber":70,"Velocity":62,"Duration":150000,"SoundDuration":150000,"Delta":131032451},{"NoteNumber":79,"Velocity":68,"Duration":155440,"SoundDuration":155440,"Delta":131182451},{"NoteNumber":74,"Velocity":54,"Duration":155440,"SoundDuration":155440,"Delta":131182451},{"NoteNumber":91,"Velocity":74,"Duration":315789,"SoundDuration":315789,"Delta":131337892},{"NoteNumber":64,"Velocity":62,"Duration":315789,"SoundDuration":315789,"Delta":131337892},{"NoteNumber":52,"Velocity":56,"Duration":300000,"SoundDuration":300000,"Delta":131653681},{"NoteNumber":76,"Velocity":69,"Duration":295947,"SoundDuration":295947,"Delta":131953681},{"NoteNumber":79,"Velocity":69,"Duration":97920,"SoundDuration":97920,"Delta":131953681},{"NoteNumber":70,"Velocity":59,"Duration":147061,"SoundDuration":147061,"Delta":131953681},{"NoteNumber":81,"Velocity":58,"Duration":98523,"SoundDuration":98523,"Delta":132051602},{"NoteNumber":74,"Velocity":53,"Duration":148886,"SoundDuration":148886,"Delta":132100743},{"NoteNumber":79,"Velocity":58,"Duration":99503,"SoundDuration":99503,"Delta":132150126},{"NoteNumber":76,"Velocity":67,"Duration":100503,"SoundDuration":100503,"Delta":132249629},{"NoteNumber":67,"Velocity":59,"Duration":151137,"SoundDuration":151137,"Delta":132249629},{"NoteNumber":77,"Velocity":58,"Duration":101524,"SoundDuration":101524,"Delta":132350133},{"NoteNumber":70,"Velocity":53,"Duration":153456,"SoundDuration":153456,"Delta":132400766},{"NoteNumber":76,"Velocity":58,"Duration":102565,"SoundDuration":102565,"Delta":132451657},{"NoteNumber":73,"Velocity":68,"Duration":342857,"SoundDuration":342857,"Delta":132554223},{"NoteNumber":64,"Velocity":59,"Duration":342857,"SoundDuration":342857,"Delta":132554223},{"NoteNumber":81,"Velocity":69,"Duration":150000,"SoundDuration":150000,"Delta":132897080},{"NoteNumber":88,"Velocity":73,"Duration":150000,"SoundDuration":150000,"Delta":132897080},{"NoteNumber":61,"Velocity":59,"Duration":150000,"SoundDuration":150000,"Delta":132897080},{"NoteNumber":79,"Velocity":65,"Duration":155440,"SoundDuration":155440,"Delta":133047080},{"NoteNumber":69,"Velocity":52,"Duration":155440,"SoundDuration":155440,"Delta":133047080},{"NoteNumber":85,"Velocity":48,"Duration":319149,"SoundDuration":319149,"Delta":133202520},{"NoteNumber":93,"Velocity":70,"Duration":319149,"SoundDuration":319149,"Delta":133202520},{"NoteNumber":57,"Velocity":59,"Duration":319149,"SoundDuration":319149,"Delta":133202520},{"NoteNumber":45,"Velocity":56,"Duration":300000,"SoundDuration":300000,"Delta":133521669},{"NoteNumber":70,"Velocity":59,"Duration":144927,"SoundDuration":144927,"Delta":133821669},{"NoteNumber":76,"Velocity":76,"Duration":96618,"SoundDuration":96618,"Delta":133821669},{"NoteNumber":55,"Velocity":45,"Duration":96618,"SoundDuration":96618,"Delta":133821669},{"NoteNumber":77,"Velocity":65,"Duration":96735,"SoundDuration":96735,"Delta":133918288},{"NoteNumber":57,"Velocity":38,"Duration":96735,"SoundDuration":96735,"Delta":133918288},{"NoteNumber":76,"Velocity":65,"Duration":97087,"SoundDuration":97087,"Delta":134015023},{"NoteNumber":55,"Velocity":38,"Duration":97087,"SoundDuration":97087,"Delta":134015023},{"NoteNumber":69,"Velocity":57,"Duration":146223,"SoundDuration":146223,"Delta":134112111},{"NoteNumber":74,"Velocity":75,"Duration":97442,"SoundDuration":97442,"Delta":134112111},{"NoteNumber":53,"Velocity":44,"Duration":97442,"SoundDuration":97442,"Delta":134112111},{"NoteNumber":76,"Velocity":65,"Duration":97680,"SoundDuration":97680,"Delta":134209553},{"NoteNumber":55,"Velocity":38,"Duration":97680,"SoundDuration":97680,"Delta":134209553},{"NoteNumber":74,"Velocity":65,"Duration":98039,"SoundDuration":98039,"Delta":134307234},{"NoteNumber":53,"Velocity":38,"Duration":98039,"SoundDuration":98039,"Delta":134307234},{"NoteNumber":67,"Velocity":56,"Duration":147662,"SoundDuration":147662,"Delta":134405273},{"NoteNumber":73,"Velocity":74,"Duration":98401,"SoundDuration":98401,"Delta":134405273},{"NoteNumber":52,"Velocity":43,"Duration":98401,"SoundDuration":98401,"Delta":134405273},{"NoteNumber":74,"Velocity":63,"Duration":98522,"SoundDuration":98522,"Delta":134503674},{"NoteNumber":53,"Velocity":37,"Duration":98522,"SoundDuration":98522,"Delta":134503674},{"NoteNumber":73,"Velocity":62,"Duration":99009,"SoundDuration":99009,"Delta":134602196},{"NoteNumber":52,"Velocity":37,"Duration":99009,"SoundDuration":99009,"Delta":134602196},{"NoteNumber":65,"Velocity":56,"Duration":149007,"SoundDuration":149007,"Delta":134701206},{"NoteNumber":70,"Velocity":71,"Duration":99256,"SoundDuration":99256,"Delta":134701206},{"NoteNumber":50,"Velocity":42,"Duration":99256,"SoundDuration":99256,"Delta":134701206},{"NoteNumber":72,"Velocity":60,"Duration":99502,"SoundDuration":99502,"Delta":134800462},{"NoteNumber":52,"Velocity":36,"Duration":99502,"SoundDuration":99502,"Delta":134800462},{"NoteNumber":70,"Velocity":60,"Duration":99999,"SoundDuration":99999,"Delta":134899965},{"NoteNumber":50,"Velocity":36,"Duration":99999,"SoundDuration":99999,"Delta":134899965},{"NoteNumber":64,"Velocity":54,"Duration":150502,"SoundDuration":150502,"Delta":134999965},{"NoteNumber":69,"Velocity":69,"Duration":100251,"SoundDuration":100251,"Delta":134999965},{"NoteNumber":49,"Velocity":41,"Duration":100251,"SoundDuration":100251,"Delta":134999965},{"NoteNumber":70,"Velocity":57,"Duration":100502,"SoundDuration":100502,"Delta":135100216},{"NoteNumber":50,"Velocity":34,"Duration":100502,"SoundDuration":100502,"Delta":135100216},{"NoteNumber":69,"Velocity":57,"Duration":100883,"SoundDuration":100883,"Delta":135200719},{"NoteNumber":49,"Velocity":34,"Duration":100883,"SoundDuration":100883,"Delta":135200719},{"NoteNumber":61,"Velocity":53,"Duration":913320,"SoundDuration":913320,"Delta":135301602},{"NoteNumber":67,"Velocity":67,"Duration":101138,"SoundDuration":101138,"Delta":135301602},{"NoteNumber":58,"Velocity":41,"Duration":304183,"SoundDuration":304183,"Delta":135301602},{"NoteNumber":45,"Velocity":41,"Duration":913320,"SoundDuration":913320,"Delta":135301602},{"NoteNumber":69,"Velocity":57,"Duration":101522,"SoundDuration":101522,"Delta":135402740},{"NoteNumber":67,"Velocity":57,"Duration":101522,"SoundDuration":101522,"Delta":135504263},{"NoteNumber":65,"Velocity":65,"Duration":101522,"SoundDuration":101522,"Delta":135605786},{"NoteNumber":57,"Velocity":41,"Duration":304568,"SoundDuration":304568,"Delta":135605786},{"NoteNumber":67,"Velocity":56,"Duration":101522,"SoundDuration":101522,"Delta":135707309},{"NoteNumber":65,"Velocity":56,"Duration":101522,"SoundDuration":101522,"Delta":135808832},{"NoteNumber":64,"Velocity":63,"Duration":101522,"SoundDuration":101522,"Delta":135910354},{"NoteNumber":55,"Velocity":41,"Duration":304568,"SoundDuration":304568,"Delta":135910354},{"NoteNumber":65,"Velocity":54,"Duration":101522,"SoundDuration":101522,"Delta":136011877},{"NoteNumber":64,"Velocity":54,"Duration":101522,"SoundDuration":101522,"Delta":136113400},{"NoteNumber":38,"Velocity":64,"Duration":157068,"SoundDuration":157068,"Delta":136214923},{"NoteNumber":74,"Velocity":68,"Duration":146341,"SoundDuration":146341,"Delta":136529059},{"NoteNumber":77,"Velocity":68,"Duration":146341,"SoundDuration":146341,"Delta":136529059},{"NoteNumber":81,"Velocity":68,"Duration":146341,"SoundDuration":146341,"Delta":136529059},{"NoteNumber":69,"Velocity":60,"Duration":156250,"SoundDuration":156250,"Delta":136675400},{"NoteNumber":74,"Velocity":71,"Duration":155440,"SoundDuration":155440,"Delta":136831650},{"NoteNumber":38,"Velocity":42,"Duration":305157,"SoundDuration":305157,"Delta":137142531},{"NoteNumber":75,"Velocity":39,"Duration":577642,"SoundDuration":577642,"Delta":137447688},{"NoteNumber":81,"Velocity":50,"Duration":95712,"SoundDuration":95712,"Delta":137447688},{"NoteNumber":62,"Velocity":37,"Duration":577642,"SoundDuration":577642,"Delta":137447688},{"NoteNumber":72,"Velocity":37,"Duration":287136,"SoundDuration":287136,"Delta":137447688},{"NoteNumber":82,"Velocity":47,"Duration":95712,"SoundDuration":95712,"Delta":137543401},{"NoteNumber":81,"Velocity":47,"Duration":95712,"SoundDuration":95712,"Delta":137639113},{"NoteNumber":79,"Velocity":50,"Duration":142911,"SoundDuration":142911,"Delta":137734825},{"NoteNumber":70,"Velocity":37,"Duration":142911,"SoundDuration":142911,"Delta":137734825},{"NoteNumber":78,"Velocity":47,"Duration":147594,"SoundDuration":147594,"Delta":137877736},{"NoteNumber":69,"Velocity":35,"Duration":147594,"SoundDuration":147594,"Delta":137877736},{"NoteNumber":74,"Velocity":39,"Duration":295710,"SoundDuration":295710,"Delta":138025331},{"NoteNumber":81,"Velocity":53,"Duration":295710,"SoundDuration":295710,"Delta":138025331},{"NoteNumber":72,"Velocity":40,"Duration":295710,"SoundDuration":295710,"Delta":138025331},{"NoteNumber":62,"Velocity":38,"Duration":1797975,"SoundDuration":1797975,"Delta":138025331},{"NoteNumber":74,"Velocity":39,"Duration":607466,"SoundDuration":607466,"Delta":138321041},{"NoteNumber":79,"Velocity":51,"Duration":112804,"SoundDuration":112804,"Delta":138321041},{"NoteNumber":70,"Velocity":43,"Duration":112804,"SoundDuration":112804,"Delta":138321041},{"NoteNumber":77,"Velocity":48,"Duration":112804,"SoundDuration":112804,"Delta":138471447},{"NoteNumber":69,"Velocity":40,"Duration":112804,"SoundDuration":112804,"Delta":138471447},{"NoteNumber":76,"Velocity":49,"Duration":114995,"SoundDuration":114995,"Delta":138621853},{"NoteNumber":67,"Velocity":41,"Duration":114995,"SoundDuration":114995,"Delta":138621853},{"NoteNumber":77,"Velocity":46,"Duration":114995,"SoundDuration":114995,"Delta":138775180},{"NoteNumber":69,"Velocity":39,"Duration":114995,"SoundDuration":114995,"Delta":138775180},{"NoteNumber":73,"Velocity":39,"Duration":305964,"SoundDuration":305964,"Delta":138928508},{"NoteNumber":76,"Velocity":51,"Duration":113350,"SoundDuration":113350,"Delta":138928508},{"NoteNumber":67,"Velocity":43,"Duration":113350,"SoundDuration":113350,"Delta":138928508},{"NoteNumber":77,"Velocity":48,"Duration":116123,"SoundDuration":116123,"Delta":139079641},{"NoteNumber":69,"Velocity":40,"Duration":116123,"SoundDuration":116123,"Delta":139079641},{"NoteNumber":73,"Velocity":46,"Duration":287136,"SoundDuration":287136,"Delta":139234472},{"NoteNumber":79,"Velocity":50,"Duration":95712,"SoundDuration":95712,"Delta":139234472},{"NoteNumber":70,"Velocity":37,"Duration":287136,"SoundDuration":287136,"Delta":139234472},{"NoteNumber":81,"Velocity":47,"Duration":95712,"SoundDuration":95712,"Delta":139330184},{"NoteNumber":79,"Velocity":47,"Duration":95712,"SoundDuration":95712,"Delta":139425896},{"NoteNumber":73,"Velocity":43,"Duration":301698,"SoundDuration":301698,"Delta":139521608},{"NoteNumber":77,"Velocity":50,"Duration":147058,"SoundDuration":147058,"Delta":139521608},{"NoteNumber":69,"Velocity":37,"Duration":147058,"SoundDuration":147058,"Delta":139521608},{"NoteNumber":76,"Velocity":47,"Duration":154639,"SoundDuration":154639,"Delta":139668667},{"NoteNumber":67,"Velocity":35,"Duration":154639,"SoundDuration":154639,"Delta":139668667},{"NoteNumber":73,"Velocity":39,"Duration":619433,"SoundDuration":619433,"Delta":139823306},{"NoteNumber":79,"Velocity":53,"Duration":307692,"SoundDuration":307692,"Delta":139823306},{"NoteNumber":70,"Velocity":40,"Duration":307692,"SoundDuration":307692,"Delta":139823306},{"NoteNumber":62,"Velocity":40,"Duration":619433,"SoundDuration":619433,"Delta":139823306},{"NoteNumber":76,"Velocity":51,"Duration":115384,"SoundDuration":115384,"Delta":140130999},{"NoteNumber":67,"Velocity":43,"Duration":115384,"SoundDuration":115384,"Delta":140130999},{"NoteNumber":77,"Velocity":48,"Duration":118421,"SoundDuration":118421,"Delta":140284845},{"NoteNumber":69,"Velocity":40,"Duration":118421,"SoundDuration":118421,"Delta":140284845},{"NoteNumber":69,"Velocity":43,"Duration":306654,"SoundDuration":306654,"Delta":140442740},{"NoteNumber":74,"Velocity":49,"Duration":306654,"SoundDuration":306654,"Delta":140442740},{"NoteNumber":65,"Velocity":41,"Duration":306654,"SoundDuration":306654,"Delta":140442740},{"NoteNumber":38,"Velocity":42,"Duration":305157,"SoundDuration":305157,"Delta":140749394},{"NoteNumber":75,"Velocity":39,"Duration":577642,"SoundDuration":577642,"Delta":141054551},{"NoteNumber":81,"Velocity":50,"Duration":95712,"SoundDuration":95712,"Delta":141054551},{"NoteNumber":72,"Velocity":37,"Duration":287136,"SoundDuration":287136,"Delta":141054551},{"NoteNumber":62,"Velocity":37,"Duration":577642,"SoundDuration":577642,"Delta":141054551},{"NoteNumber":82,"Velocity":47,"Duration":95712,"SoundDuration":95712,"Delta":141150264},{"NoteNumber":81,"Velocity":47,"Duration":95712,"SoundDuration":95712,"Delta":141245976},{"NoteNumber":79,"Velocity":50,"Duration":142911,"SoundDuration":142911,"Delta":141341688},{"NoteNumber":70,"Velocity":37,"Duration":142911,"SoundDuration":142911,"Delta":141341688},{"NoteNumber":78,"Velocity":47,"Duration":147594,"SoundDuration":147594,"Delta":141484599},{"NoteNumber":69,"Velocity":35,"Duration":147594,"SoundDuration":147594,"Delta":141484599},{"NoteNumber":74,"Velocity":39,"Duration":295710,"SoundDuration":295710,"Delta":141632194},{"NoteNumber":81,"Velocity":53,"Duration":295710,"SoundDuration":295710,"Delta":141632194},{"NoteNumber":72,"Velocity":40,"Duration":295710,"SoundDuration":295710,"Delta":141632194},{"NoteNumber":62,"Velocity":38,"Duration":1797975,"SoundDuration":1797975,"Delta":141632194},{"NoteNumber":74,"Velocity":39,"Duration":607466,"SoundDuration":607466,"Delta":141927904},{"NoteNumber":79,"Velocity":51,"Duration":112804,"SoundDuration":112804,"Delta":141927904},{"NoteNumber":70,"Velocity":43,"Duration":112804,"SoundDuration":112804,"Delta":141927904},{"NoteNumber":77,"Velocity":48,"Duration":112804,"SoundDuration":112804,"Delta":142078310},{"NoteNumber":69,"Velocity":40,"Duration":112804,"SoundDuration":112804,"Delta":142078310},{"NoteNumber":76,"Velocity":49,"Duration":114995,"SoundDuration":114995,"Delta":142228716},{"NoteNumber":67,"Velocity":41,"Duration":114995,"SoundDuration":114995,"Delta":142228716},{"NoteNumber":77,"Velocity":46,"Duration":114995,"SoundDuration":114995,"Delta":142382043},{"NoteNumber":69,"Velocity":39,"Duration":114995,"SoundDuration":114995,"Delta":142382043},{"NoteNumber":73,"Velocity":39,"Duration":305964,"SoundDuration":305964,"Delta":142535371},{"NoteNumber":76,"Velocity":51,"Duration":113350,"SoundDuration":113350,"Delta":142535371},{"NoteNumber":67,"Velocity":43,"Duration":113350,"SoundDuration":113350,"Delta":142535371},{"NoteNumber":77,"Velocity":48,"Duration":116123,"SoundDuration":116123,"Delta":142686504},{"NoteNumber":69,"Velocity":40,"Duration":116123,"SoundDuration":116123,"Delta":142686504},{"NoteNumber":73,"Velocity":46,"Duration":287136,"SoundDuration":287136,"Delta":142841335},{"NoteNumber":79,"Velocity":50,"Duration":95712,"SoundDuration":95712,"Delta":142841335},{"NoteNumber":70,"Velocity":37,"Duration":287136,"SoundDuration":287136,"Delta":142841335},{"NoteNumber":81,"Velocity":47,"Duration":95712,"SoundDuration":95712,"Delta":142937047},{"NoteNumber":79,"Velocity":47,"Duration":95712,"SoundDuration":95712,"Delta":143032759},{"NoteNumber":73,"Velocity":43,"Duration":301698,"SoundDuration":301698,"Delta":143128471},{"NoteNumber":77,"Velocity":50,"Duration":147058,"SoundDuration":147058,"Delta":143128471},{"NoteNumber":69,"Velocity":37,"Duration":147058,"SoundDuration":147058,"Delta":143128471},{"NoteNumber":76,"Velocity":47,"Duration":154639,"SoundDuration":154639,"Delta":143275530},{"NoteNumber":67,"Velocity":35,"Duration":154639,"SoundDuration":154639,"Delta":143275530},{"NoteNumber":73,"Velocity":39,"Duration":619433,"SoundDuration":619433,"Delta":143430169},{"NoteNumber":79,"Velocity":53,"Duration":307692,"SoundDuration":307692,"Delta":143430169},{"NoteNumber":70,"Velocity":40,"Duration":307692,"SoundDuration":307692,"Delta":143430169},{"NoteNumber":62,"Velocity":40,"Duration":619433,"SoundDuration":619433,"Delta":143430169},{"NoteNumber":76,"Velocity":51,"Duration":115384,"SoundDuration":115384,"Delta":143737862},{"NoteNumber":67,"Velocity":43,"Duration":115384,"SoundDuration":115384,"Delta":143737862},{"NoteNumber":77,"Velocity":48,"Duration":118421,"SoundDuration":118421,"Delta":143891708},{"NoteNumber":69,"Velocity":40,"Duration":118421,"SoundDuration":118421,"Delta":143891708},{"NoteNumber":69,"Velocity":43,"Duration":306654,"SoundDuration":306654,"Delta":144049603},{"NoteNumber":74,"Velocity":49,"Duration":306654,"SoundDuration":306654,"Delta":144049603},{"NoteNumber":65,"Velocity":41,"Duration":306654,"SoundDuration":306654,"Delta":144049603},{"NoteNumber":38,"Velocity":45,"Duration":300000,"SoundDuration":300000,"Delta":144356257},{"NoteNumber":75,"Velocity":57,"Duration":297775,"SoundDuration":297775,"Delta":144656257},{"NoteNumber":81,"Velocity":57,"Duration":98644,"SoundDuration":98644,"Delta":144656257},{"NoteNumber":72,"Velocity":43,"Duration":297775,"SoundDuration":297775,"Delta":144656257},{"NoteNumber":82,"Velocity":48,"Duration":99256,"SoundDuration":99256,"Delta":144754902},{"NoteNumber":81,"Velocity":48,"Duration":99875,"SoundDuration":99875,"Delta":144854158},{"NoteNumber":79,"Velocity":55,"Duration":151134,"SoundDuration":151134,"Delta":144954033},{"NoteNumber":70,"Velocity":43,"Duration":151134,"SoundDuration":151134,"Delta":144954033},{"NoteNumber":78,"Velocity":48,"Duration":152803,"SoundDuration":152803,"Delta":145105168},{"NoteNumber":69,"Velocity":40,"Duration":152803,"SoundDuration":152803,"Delta":145105168},{"NoteNumber":75,"Velocity":56,"Duration":165745,"SoundDuration":165745,"Delta":145257971},{"NoteNumber":81,"Velocity":56,"Duration":165745,"SoundDuration":165745,"Delta":145257971},{"NoteNumber":72,"Velocity":43,"Duration":165745,"SoundDuration":165745,"Delta":145257971},{"NoteNumber":81,"Velocity":59,"Duration":150000,"SoundDuration":150000,"Delta":145589463},{"NoteNumber":87,"Velocity":59,"Duration":150000,"SoundDuration":150000,"Delta":145589463},{"NoteNumber":66,"Velocity":49,"Duration":150000,"SoundDuration":150000,"Delta":145589463},{"NoteNumber":75,"Velocity":57,"Duration":155440,"SoundDuration":155440,"Delta":145739463},{"NoteNumber":72,"Velocity":42,"Duration":155440,"SoundDuration":155440,"Delta":145739463},{"NoteNumber":93,"Velocity":63,"Duration":157894,"SoundDuration":157894,"Delta":145894903},{"NoteNumber":63,"Velocity":49,"Duration":157894,"SoundDuration":157894,"Delta":145894903},{"NoteNumber":54,"Velocity":48,"Duration":300000,"SoundDuration":300000,"Delta":146210693},{"NoteNumber":75,"Velocity":60,"Duration":297775,"SoundDuration":297775,"Delta":146510693},{"NoteNumber":81,"Velocity":60,"Duration":98644,"SoundDuration":98644,"Delta":146510693},{"NoteNumber":72,"Velocity":46,"Duration":297775,"SoundDuration":297775,"Delta":146510693},{"NoteNumber":82,"Velocity":51,"Duration":99256,"SoundDuration":99256,"Delta":146609337},{"NoteNumber":81,"Velocity":51,"Duration":99875,"SoundDuration":99875,"Delta":146708593},{"NoteNumber":79,"Velocity":58,"Duration":151134,"SoundDuration":151134,"Delta":146808469},{"NoteNumber":70,"Velocity":46,"Duration":151134,"SoundDuration":151134,"Delta":146808469},{"NoteNumber":78,"Velocity":51,"Duration":152803,"SoundDuration":152803,"Delta":146959603},{"NoteNumber":69,"Velocity":43,"Duration":152803,"SoundDuration":152803,"Delta":146959603},{"NoteNumber":75,"Velocity":59,"Duration":165745,"SoundDuration":165745,"Delta":147112407},{"NoteNumber":81,"Velocity":59,"Duration":165745,"SoundDuration":165745,"Delta":147112407},{"NoteNumber":72,"Velocity":46,"Duration":165745,"SoundDuration":165745,"Delta":147112407},{"NoteNumber":81,"Velocity":63,"Duration":150000,"SoundDuration":150000,"Delta":147443898},{"NoteNumber":87,"Velocity":63,"Duration":150000,"SoundDuration":150000,"Delta":147443898},{"NoteNumber":66,"Velocity":52,"Duration":150000,"SoundDuration":150000,"Delta":147443898},{"NoteNumber":75,"Velocity":57,"Duration":155440,"SoundDuration":155440,"Delta":147593898},{"NoteNumber":72,"Velocity":45,"Duration":155440,"SoundDuration":155440,"Delta":147593898},{"NoteNumber":93,"Velocity":65,"Duration":157894,"SoundDuration":157894,"Delta":147749339},{"NoteNumber":63,"Velocity":52,"Duration":157894,"SoundDuration":157894,"Delta":147749339},{"NoteNumber":54,"Velocity":48,"Duration":300000,"SoundDuration":300000,"Delta":148065128},{"NoteNumber":75,"Velocity":63,"Duration":297775,"SoundDuration":297775,"Delta":148365128},{"NoteNumber":81,"Velocity":63,"Duration":98644,"SoundDuration":98644,"Delta":148365128},{"NoteNumber":72,"Velocity":48,"Duration":297775,"SoundDuration":297775,"Delta":148365128},{"NoteNumber":82,"Velocity":53,"Duration":99256,"SoundDuration":99256,"Delta":148463772},{"NoteNumber":81,"Velocity":53,"Duration":99875,"SoundDuration":99875,"Delta":148563029},{"NoteNumber":79,"Velocity":60,"Duration":151134,"SoundDuration":151134,"Delta":148662904},{"NoteNumber":70,"Velocity":47,"Duration":151134,"SoundDuration":151134,"Delta":148662904},{"NoteNumber":78,"Velocity":53,"Duration":152803,"SoundDuration":152803,"Delta":148814039},{"NoteNumber":69,"Velocity":44,"Duration":152803,"SoundDuration":152803,"Delta":148814039},{"NoteNumber":75,"Velocity":60,"Duration":165745,"SoundDuration":165745,"Delta":148966842},{"NoteNumber":81,"Velocity":60,"Duration":165745,"SoundDuration":165745,"Delta":148966842},{"NoteNumber":72,"Velocity":47,"Duration":165745,"SoundDuration":165745,"Delta":148966842},{"NoteNumber":75,"Velocity":64,"Duration":297775,"SoundDuration":297775,"Delta":149298334},{"NoteNumber":81,"Velocity":64,"Duration":98644,"SoundDuration":98644,"Delta":149298334},{"NoteNumber":72,"Velocity":48,"Duration":297775,"SoundDuration":297775,"Delta":149298334},{"NoteNumber":82,"Velocity":54,"Duration":99256,"SoundDuration":99256,"Delta":149396978},{"NoteNumber":81,"Velocity":53,"Duration":99875,"SoundDuration":99875,"Delta":149496234},{"NoteNumber":79,"Velocity":60,"Duration":151134,"SoundDuration":151134,"Delta":149596110},{"NoteNumber":70,"Velocity":47,"Duration":151134,"SoundDuration":151134,"Delta":149596110},{"NoteNumber":78,"Velocity":52,"Duration":152803,"SoundDuration":152803,"Delta":149747244},{"NoteNumber":69,"Velocity":44,"Duration":152803,"SoundDuration":152803,"Delta":149747244},{"NoteNumber":75,"Velocity":60,"Duration":165745,"SoundDuration":165745,"Delta":149900048},{"NoteNumber":81,"Velocity":60,"Duration":165745,"SoundDuration":165745,"Delta":149900048},{"NoteNumber":72,"Velocity":46,"Duration":165745,"SoundDuration":165745,"Delta":149900048},{"NoteNumber":75,"Velocity":74,"Duration":297775,"SoundDuration":297775,"Delta":150231539},{"NoteNumber":81,"Velocity":74,"Duration":98644,"SoundDuration":98644,"Delta":150231539},{"NoteNumber":53,"Velocity":61,"Duration":933205,"SoundDuration":933205,"Delta":150231539},{"NoteNumber":41,"Velocity":61,"Duration":933205,"SoundDuration":933205,"Delta":150231539},{"NoteNumber":83,"Velocity":65,"Duration":99256,"SoundDuration":99256,"Delta":150330183},{"NoteNumber":81,"Velocity":66,"Duration":99875,"SoundDuration":99875,"Delta":150429440},{"NoteNumber":80,"Velocity":72,"Duration":151134,"SoundDuration":151134,"Delta":150529315},{"NoteNumber":81,"Velocity":67,"Duration":152803,"SoundDuration":152803,"Delta":150680450},{"NoteNumber":75,"Velocity":83,"Duration":165745,"SoundDuration":165745,"Delta":150833253},{"NoteNumber":81,"Velocity":83,"Duration":165745,"SoundDuration":165745,"Delta":150833253},{"NoteNumber":87,"Velocity":83,"Duration":165745,"SoundDuration":165745,"Delta":150833253},{"NoteNumber":87,"Velocity":81,"Duration":307692,"SoundDuration":307692,"Delta":151164745},{"NoteNumber":93,"Velocity":81,"Duration":102564,"SoundDuration":102564,"Delta":151164745},{"NoteNumber":29,"Velocity":61,"Duration":621113,"SoundDuration":621113,"Delta":151164745},{"NoteNumber":41,"Velocity":61,"Duration":621113,"SoundDuration":621113,"Delta":151164745},{"NoteNumber":95,"Velocity":71,"Duration":102564,"SoundDuration":102564,"Delta":151267309},{"NoteNumber":93,"Velocity":72,"Duration":102564,"SoundDuration":102564,"Delta":151369873},{"NoteNumber":92,"Velocity":79,"Duration":153846,"SoundDuration":153846,"Delta":151472437},{"NoteNumber":93,"Velocity":73,"Duration":119680,"SoundDuration":119680,"Delta":151626283},{"NoteNumber":93,"Velocity":74,"Duration":388452,"SoundDuration":388452,"Delta":151745964},{"NoteNumber":97,"Velocity":78,"Duration":368506,"SoundDuration":368506,"Delta":151765911},{"NoteNumber":100,"Velocity":95,"Duration":348559,"SoundDuration":348559,"Delta":151785858},{"NoteNumber":28,"Velocity":53,"Duration":2318968,"SoundDuration":2318968,"Delta":151785858},{"NoteNumber":40,"Velocity":61,"Duration":2318968,"SoundDuration":2318968,"Delta":151785858},{"NoteNumber":81,"Velocity":38,"Duration":385901,"SoundDuration":385901,"Delta":152134417},{"NoteNumber":85,"Velocity":39,"Duration":361004,"SoundDuration":361004,"Delta":152159314},{"NoteNumber":88,"Velocity":45,"Duration":336107,"SoundDuration":336107,"Delta":152184211},{"NoteNumber":81,"Velocity":40,"Duration":384122,"SoundDuration":384122,"Delta":152520319},{"NoteNumber":85,"Velocity":41,"Duration":360115,"SoundDuration":360115,"Delta":152544327},{"NoteNumber":88,"Velocity":45,"Duration":336107,"SoundDuration":336107,"Delta":152568334},{"NoteNumber":81,"Velocity":41,"Duration":384122,"SoundDuration":384122,"Delta":152904442},{"NoteNumber":85,"Velocity":41,"Duration":360115,"SoundDuration":360115,"Delta":152928450},{"NoteNumber":88,"Velocity":45,"Duration":336107,"SoundDuration":336107,"Delta":152952457},{"NoteNumber":81,"Velocity":40,"Duration":384123,"SoundDuration":384123,"Delta":153288565},{"NoteNumber":85,"Velocity":40,"Duration":360115,"SoundDuration":360115,"Delta":153312573},{"NoteNumber":88,"Velocity":45,"Duration":336107,"SoundDuration":336107,"Delta":153336580},{"NoteNumber":81,"Velocity":39,"Duration":384122,"SoundDuration":384122,"Delta":153672688},{"NoteNumber":85,"Velocity":40,"Duration":360115,"SoundDuration":360115,"Delta":153696696},{"NoteNumber":88,"Velocity":45,"Duration":336107,"SoundDuration":336107,"Delta":153720703},{"NoteNumber":76,"Velocity":34,"Duration":392404,"SoundDuration":392404,"Delta":154032803},{"NoteNumber":80,"Velocity":34,"Duration":368397,"SoundDuration":368397,"Delta":154056811},{"NoteNumber":86,"Velocity":39,"Duration":344389,"SoundDuration":344389,"Delta":154080819},{"NoteNumber":88,"Velocity":45,"Duration":320381,"SoundDuration":320381,"Delta":154104826},{"NoteNumber":76,"Velocity":34,"Duration":389226,"SoundDuration":389226,"Delta":154425208},{"NoteNumber":80,"Velocity":34,"Duration":364309,"SoundDuration":364309,"Delta":154450125},{"NoteNumber":86,"Velocity":39,"Duration":339392,"SoundDuration":339392,"Delta":154475042},{"NoteNumber":88,"Velocity":45,"Duration":314475,"SoundDuration":314475,"Delta":154499959},{"NoteNumber":59,"Velocity":53,"Duration":193523,"SoundDuration":193523,"Delta":154499959},{"NoteNumber":61,"Velocity":49,"Duration":193523,"SoundDuration":193523,"Delta":154693482},{"NoteNumber":76,"Velocity":34,"Duration":387046,"SoundDuration":387046,"Delta":154814435},{"NoteNumber":80,"Velocity":34,"Duration":362856,"SoundDuration":362856,"Delta":154838625},{"NoteNumber":86,"Velocity":39,"Duration":338666,"SoundDuration":338666,"Delta":154862816},{"NoteNumber":88,"Velocity":45,"Duration":314475,"SoundDuration":314475,"Delta":154887006},{"NoteNumber":62,"Velocity":54,"Duration":580570,"SoundDuration":580570,"Delta":154887006},{"NoteNumber":76,"Velocity":34,"Duration":390580,"SoundDuration":390580,"Delta":155201482},{"NoteNumber":80,"Velocity":34,"Duration":366389,"SoundDuration":366389,"Delta":155225672},{"NoteNumber":86,"Velocity":39,"Duration":342199,"SoundDuration":342199,"Delta":155249863},{"NoteNumber":88,"Velocity":45,"Duration":318008,"SoundDuration":318008,"Delta":155274053},{"NoteNumber":64,"Velocity":51,"Duration":199176,"SoundDuration":199176,"Delta":155467576},{"NoteNumber":76,"Velocity":34,"Duration":386791,"SoundDuration":386791,"Delta":155592062},{"NoteNumber":80,"Velocity":34,"Duration":361894,"SoundDuration":361894,"Delta":155616959},{"NoteNumber":86,"Velocity":39,"Duration":336997,"SoundDuration":336997,"Delta":155641856},{"NoteNumber":88,"Velocity":45,"Duration":312099,"SoundDuration":312099,"Delta":155666753},{"NoteNumber":66,"Velocity":54,"Duration":582273,"SoundDuration":582273,"Delta":155666753},{"NoteNumber":76,"Velocity":34,"Duration":424325,"SoundDuration":424325,"Delta":155978853},{"NoteNumber":80,"Velocity":34,"Duration":400317,"SoundDuration":400317,"Delta":156002861},{"NoteNumber":86,"Velocity":39,"Duration":376309,"SoundDuration":376309,"Delta":156026869},{"NoteNumber":88,"Velocity":45,"Duration":352302,"SoundDuration":352302,"Delta":156050876},{"NoteNumber":69,"Velocity":50,"Duration":205535,"SoundDuration":205535,"Delta":156249027},{"NoteNumber":80,"Velocity":34,"Duration":387491,"SoundDuration":387491,"Delta":156403179},{"NoteNumber":86,"Velocity":39,"Duration":361799,"SoundDuration":361799,"Delta":156428871},{"NoteNumber":88,"Velocity":45,"Duration":336107,"SoundDuration":336107,"Delta":156454562},{"NoteNumber":66,"Velocity":54,"Duration":128040,"SoundDuration":128040,"Delta":156454562},{"NoteNumber":68,"Velocity":49,"Duration":128040,"SoundDuration":128040,"Delta":156582603},{"NoteNumber":66,"Velocity":50,"Duration":128040,"SoundDuration":128040,"Delta":156710644},{"NoteNumber":80,"Velocity":34,"Duration":388614,"SoundDuration":388614,"Delta":156790670},{"NoteNumber":86,"Velocity":39,"Duration":364607,"SoundDuration":364607,"Delta":156814678},{"NoteNumber":88,"Velocity":45,"Duration":340599,"SoundDuration":340599,"Delta":156838685},{"NoteNumber":64,"Velocity":50,"Duration":389256,"SoundDuration":389256,"Delta":156838685},{"NoteNumber":80,"Velocity":34,"Duration":396484,"SoundDuration":396484,"Delta":157179285},{"NoteNumber":86,"Velocity":39,"Duration":372155,"SoundDuration":372155,"Delta":157203613},{"NoteNumber":88,"Velocity":45,"Duration":347826,"SoundDuration":347826,"Delta":157227942},{"NoteNumber":59,"Velocity":42,"Duration":184048,"SoundDuration":184048,"Delta":157437732},{"NoteNumber":80,"Velocity":34,"Duration":384678,"SoundDuration":384678,"Delta":157575769},{"NoteNumber":86,"Velocity":39,"Duration":361672,"SoundDuration":361672,"Delta":157598775},{"NoteNumber":88,"Velocity":45,"Duration":338666,"SoundDuration":338666,"Delta":157621781},{"NoteNumber":56,"Velocity":45,"Duration":580570,"SoundDuration":580570,"Delta":157621781},{"NoteNumber":80,"Velocity":34,"Duration":382529,"SoundDuration":382529,"Delta":157960447},{"NoteNumber":86,"Velocity":39,"Duration":358338,"SoundDuration":358338,"Delta":157984638},{"NoteNumber":88,"Velocity":45,"Duration":334148,"SoundDuration":334148,"Delta":158008828},{"NoteNumber":47,"Velocity":42,"Duration":187500,"SoundDuration":187500,"Delta":158202352},{"NoteNumber":80,"Velocity":34,"Duration":390012,"SoundDuration":390012,"Delta":158342977},{"NoteNumber":86,"Velocity":39,"Duration":366574,"SoundDuration":366574,"Delta":158366414},{"NoteNumber":88,"Velocity":45,"Duration":343137,"SoundDuration":343137,"Delta":158389852},{"NoteNumber":40,"Velocity":46,"Duration":392156,"SoundDuration":392156,"Delta":158389852},{"NoteNumber":81,"Velocity":41,"Duration":383798,"SoundDuration":383798,"Delta":158732989},{"NoteNumber":85,"Velocity":41,"Duration":359288,"SoundDuration":359288,"Delta":158757499},{"NoteNumber":88,"Velocity":45,"Duration":334778,"SoundDuration":334778,"Delta":158782009},{"NoteNumber":81,"Velocity":40,"Duration":388469,"SoundDuration":388469,"Delta":159116788},{"NoteNumber":85,"Velocity":40,"Duration":364556,"SoundDuration":364556,"Delta":159140700},{"NoteNumber":88,"Velocity":45,"Duration":340643,"SoundDuration":340643,"Delta":159164613},{"NoteNumber":64,"Velocity":52,"Duration":389307,"SoundDuration":389307,"Delta":159164613},{"NoteNumber":81,"Velocity":39,"Duration":383399,"SoundDuration":383399,"Delta":159505257},{"NoteNumber":85,"Velocity":40,"Duration":359067,"SoundDuration":359067,"Delta":159529589},{"NoteNumber":88,"Velocity":45,"Duration":334736,"SoundDuration":334736,"Delta":159553920},{"NoteNumber":69,"Velocity":50,"Duration":573638,"SoundDuration":573638,"Delta":159553920},{"NoteNumber":81,"Velocity":41,"Duration":382214,"SoundDuration":382214,"Delta":159888656},{"NoteNumber":85,"Velocity":41,"Duration":358304,"SoundDuration":358304,"Delta":159912566},{"NoteNumber":88,"Velocity":45,"Duration":334394,"SoundDuration":334394,"Delta":159936476},{"NoteNumber":71,"Velocity":50,"Duration":191082,"SoundDuration":191082,"Delta":160127558},{"NoteNumber":81,"Velocity":40,"Duration":390908,"SoundDuration":390908,"Delta":160270871},{"NoteNumber":85,"Velocity":40,"Duration":367022,"SoundDuration":367022,"Delta":160294756},{"NoteNumber":88,"Velocity":45,"Duration":343137,"SoundDuration":343137,"Delta":160318641},{"NoteNumber":68,"Velocity":53,"Duration":196078,"SoundDuration":196078,"Delta":160318641},{"NoteNumber":69,"Velocity":50,"Duration":196078,"SoundDuration":196078,"Delta":160514720},{"NoteNumber":81,"Velocity":39,"Duration":411152,"SoundDuration":411152,"Delta":160661779},{"NoteNumber":85,"Velocity":40,"Duration":386642,"SoundDuration":386642,"Delta":160686288},{"NoteNumber":88,"Velocity":45,"Duration":362132,"SoundDuration":362132,"Delta":160710798},{"NoteNumber":66,"Velocity":53,"Duration":203032,"SoundDuration":203032,"Delta":160710798},{"NoteNumber":68,"Velocity":50,"Duration":212133,"SoundDuration":212133,"Delta":160913830},{"NoteNumber":80,"Velocity":41,"Duration":395678,"SoundDuration":395678,"Delta":161072931},{"NoteNumber":86,"Velocity":41,"Duration":369161,"SoundDuration":369161,"Delta":161099447},{"NoteNumber":88,"Velocity":45,"Duration":342644,"SoundDuration":342644,"Delta":161125964},{"NoteNumber":64,"Velocity":50,"Duration":97898,"SoundDuration":97898,"Delta":161125964},{"NoteNumber":66,"Velocity":46,"Duration":97898,"SoundDuration":97898,"Delta":161223863},{"NoteNumber":64,"Velocity":49,"Duration":97898,"SoundDuration":97898,"Delta":161321761},{"NoteNumber":62,"Velocity":43,"Duration":97898,"SoundDuration":97898,"Delta":161419660},{"NoteNumber":80,"Velocity":40,"Duration":391593,"SoundDuration":391593,"Delta":161468609},{"NoteNumber":86,"Velocity":40,"Duration":367119,"SoundDuration":367119,"Delta":161493084},{"NoteNumber":88,"Velocity":45,"Duration":342644,"SoundDuration":342644,"Delta":161517558},{"NoteNumber":59,"Velocity":47,"Duration":592936,"SoundDuration":592936,"Delta":161517558},{"NoteNumber":80,"Velocity":39,"Duration":388328,"SoundDuration":388328,"Delta":161860203},{"NoteNumber":86,"Velocity":40,"Duration":363853,"SoundDuration":363853,"Delta":161884678},{"NoteNumber":88,"Velocity":45,"Duration":339379,"SoundDuration":339379,"Delta":161909152},{"NoteNumber":59,"Velocity":42,"Duration":184048,"SoundDuration":184048,"Delta":162110494},{"NoteNumber":80,"Velocity":34,"Duration":384678,"SoundDuration":384678,"Delta":162248531},{"NoteNumber":86,"Velocity":39,"Duration":361672,"SoundDuration":361672,"Delta":162271537},{"NoteNumber":88,"Velocity":45,"Duration":338666,"SoundDuration":338666,"Delta":162294543},{"NoteNumber":52,"Velocity":45,"Duration":580570,"SoundDuration":580570,"Delta":162294543},{"NoteNumber":80,"Velocity":34,"Duration":382529,"SoundDuration":382529,"Delta":162633210},{"NoteNumber":86,"Velocity":39,"Duration":358338,"SoundDuration":358338,"Delta":162657400},{"NoteNumber":88,"Velocity":45,"Duration":334148,"SoundDuration":334148,"Delta":162681590},{"NoteNumber":47,"Velocity":42,"Duration":187500,"SoundDuration":187500,"Delta":162875114},{"NoteNumber":80,"Velocity":34,"Duration":390012,"SoundDuration":390012,"Delta":163015739},{"NoteNumber":86,"Velocity":39,"Duration":366574,"SoundDuration":366574,"Delta":163039176},{"NoteNumber":88,"Velocity":45,"Duration":343137,"SoundDuration":343137,"Delta":163062614},{"NoteNumber":40,"Velocity":46,"Duration":392156,"SoundDuration":392156,"Delta":163062614},{"NoteNumber":80,"Velocity":34,"Duration":390100,"SoundDuration":390100,"Delta":163405751},{"NoteNumber":86,"Velocity":39,"Duration":365590,"SoundDuration":365590,"Delta":163430261},{"NoteNumber":88,"Velocity":45,"Duration":341080,"SoundDuration":341080,"Delta":163454771},{"NoteNumber":80,"Velocity":34,"Duration":386134,"SoundDuration":386134,"Delta":163795852},{"NoteNumber":86,"Velocity":39,"Duration":362400,"SoundDuration":362400,"Delta":163819586},{"NoteNumber":88,"Velocity":45,"Duration":338666,"SoundDuration":338666,"Delta":163843320},{"NoteNumber":59,"Velocity":53,"Duration":193523,"SoundDuration":193523,"Delta":163843320},{"NoteNumber":61,"Velocity":49,"Duration":193523,"SoundDuration":193523,"Delta":164036843},{"NoteNumber":80,"Velocity":34,"Duration":387046,"SoundDuration":387046,"Delta":164181986},{"NoteNumber":86,"Velocity":39,"Duration":362856,"SoundDuration":362856,"Delta":164206177},{"NoteNumber":88,"Velocity":45,"Duration":338666,"SoundDuration":338666,"Delta":164230367},{"NoteNumber":62,"Velocity":54,"Duration":580570,"SoundDuration":580570,"Delta":164230367},{"NoteNumber":80,"Velocity":34,"Duration":391286,"SoundDuration":391286,"Delta":164569033},{"NoteNumber":86,"Velocity":39,"Duration":367096,"SoundDuration":367096,"Delta":164593224},{"NoteNumber":88,"Velocity":45,"Duration":342906,"SoundDuration":342906,"Delta":164617414},{"NoteNumber":64,"Velocity":51,"Duration":199176,"SoundDuration":199176,"Delta":164810937},{"NoteNumber":80,"Velocity":34,"Duration":385901,"SoundDuration":385901,"Delta":164960320},{"NoteNumber":86,"Velocity":39,"Duration":361004,"SoundDuration":361004,"Delta":164985217},{"NoteNumber":88,"Velocity":45,"Duration":336107,"SoundDuration":336107,"Delta":165010114},{"NoteNumber":66,"Velocity":54,"Duration":582273,"SoundDuration":582273,"Delta":165010114},{"NoteNumber":80,"Velocity":34,"Duration":400317,"SoundDuration":400317,"Delta":165346222},{"NoteNumber":86,"Velocity":39,"Duration":376309,"SoundDuration":376309,"Delta":165370230},{"NoteNumber":88,"Velocity":45,"Duration":352302,"SoundDuration":352302,"Delta":165394237},{"NoteNumber":69,"Velocity":50,"Duration":205535,"SoundDuration":205535,"Delta":165592388},{"NoteNumber":81,"Velocity":34,"Duration":387491,"SoundDuration":387491,"Delta":165746540},{"NoteNumber":85,"Velocity":39,"Duration":361799,"SoundDuration":361799,"Delta":165772232},{"NoteNumber":88,"Velocity":45,"Duration":336107,"SoundDuration":336107,"Delta":165797923},{"NoteNumber":66,"Velocity":54,"Duration":128040,"SoundDuration":128040,"Delta":165797923},{"NoteNumber":68,"Velocity":48,"Duration":128040,"SoundDuration":128040,"Delta":165925964},{"NoteNumber":66,"Velocity":50,"Duration":128040,"SoundDuration":128040,"Delta":166054005},{"NoteNumber":81,"Velocity":34,"Duration":388614,"SoundDuration":388614,"Delta":166134031},{"NoteNumber":85,"Velocity":39,"Duration":364607,"SoundDuration":364607,"Delta":166158039},{"NoteNumber":88,"Velocity":45,"Duration":340599,"SoundDuration":340599,"Delta":166182046},{"NoteNumber":64,"Velocity":50,"Duration":389256,"SoundDuration":389256,"Delta":166182046},{"NoteNumber":81,"Velocity":34,"Duration":392173,"SoundDuration":392173,"Delta":166522646},{"NoteNumber":85,"Velocity":39,"Duration":367844,"SoundDuration":367844,"Delta":166546974},{"NoteNumber":88,"Velocity":45,"Duration":343516,"SoundDuration":343516,"Delta":166571303},{"NoteNumber":52,"Velocity":42,"Duration":184048,"SoundDuration":184048,"Delta":166776782},{"NoteNumber":81,"Velocity":34,"Duration":384678,"SoundDuration":384678,"Delta":166914819},{"NoteNumber":85,"Velocity":39,"Duration":361672,"SoundDuration":361672,"Delta":166937825},{"NoteNumber":88,"Velocity":45,"Duration":338666,"SoundDuration":338666,"Delta":166960831},{"NoteNumber":45,"Velocity":45,"Duration":580570,"SoundDuration":580570,"Delta":166960831},{"NoteNumber":81,"Velocity":34,"Duration":382529,"SoundDuration":382529,"Delta":167299498},{"NoteNumber":85,"Velocity":39,"Duration":358338,"SoundDuration":358338,"Delta":167323688},{"NoteNumber":88,"Velocity":45,"Duration":334148,"SoundDuration":334148,"Delta":167347878},{"NoteNumber":40,"Velocity":42,"Duration":187500,"SoundDuration":187500,"Delta":167541402},{"NoteNumber":81,"Velocity":34,"Duration":390012,"SoundDuration":390012,"Delta":167682027},{"NoteNumber":85,"Velocity":39,"Duration":366574,"SoundDuration":366574,"Delta":167705464},{"NoteNumber":88,"Velocity":45,"Duration":343137,"SoundDuration":343137,"Delta":167728902},{"NoteNumber":33,"Velocity":46,"Duration":609548,"SoundDuration":609548,"Delta":167728902},{"NoteNumber":81,"Velocity":41,"Duration":409722,"SoundDuration":409722,"Delta":168072039},{"NoteNumber":85,"Velocity":41,"Duration":385213,"SoundDuration":385213,"Delta":168096549},{"NoteNumber":88,"Velocity":45,"Duration":360703,"SoundDuration":360703,"Delta":168121059},{"NoteNumber":64,"Velocity":48,"Duration":191082,"SoundDuration":191082,"Delta":168338450},{"NoteNumber":81,"Velocity":41,"Duration":398200,"SoundDuration":398200,"Delta":168481762},{"NoteNumber":85,"Velocity":41,"Duration":374315,"SoundDuration":374315,"Delta":168505648},{"NoteNumber":88,"Velocity":46,"Duration":350429,"SoundDuration":350429,"Delta":168529533},{"NoteNumber":69,"Velocity":51,"Duration":197368,"SoundDuration":197368,"Delta":168529533},{"NoteNumber":71,"Velocity":54,"Duration":204081,"SoundDuration":204081,"Delta":168726901},{"NoteNumber":81,"Velocity":41,"Duration":385756,"SoundDuration":385756,"Delta":168879963},{"NoteNumber":85,"Velocity":42,"Duration":360246,"SoundDuration":360246,"Delta":168905473},{"NoteNumber":88,"Velocity":48,"Duration":334736,"SoundDuration":334736,"Delta":168930983},{"NoteNumber":74,"Velocity":59,"Duration":573638,"SoundDuration":573638,"Delta":168930983},{"NoteNumber":81,"Velocity":41,"Duration":382214,"SoundDuration":382214,"Delta":169265719},{"NoteNumber":85,"Velocity":41,"Duration":358304,"SoundDuration":358304,"Delta":169289629},{"NoteNumber":88,"Velocity":45,"Duration":334394,"SoundDuration":334394,"Delta":169313539},{"NoteNumber":73,"Velocity":52,"Duration":191082,"SoundDuration":191082,"Delta":169504621},{"NoteNumber":81,"Velocity":40,"Duration":390908,"SoundDuration":390908,"Delta":169647934},{"NoteNumber":85,"Velocity":40,"Duration":367022,"SoundDuration":367022,"Delta":169671819},{"NoteNumber":88,"Velocity":45,"Duration":343137,"SoundDuration":343137,"Delta":169695704},{"NoteNumber":71,"Velocity":55,"Duration":196078,"SoundDuration":196078,"Delta":169695704},{"NoteNumber":69,"Velocity":52,"Duration":196078,"SoundDuration":196078,"Delta":169891783},{"NoteNumber":81,"Velocity":39,"Duration":384635,"SoundDuration":384635,"Delta":170038842},{"NoteNumber":85,"Velocity":40,"Duration":360125,"SoundDuration":360125,"Delta":170063351},{"NoteNumber":88,"Velocity":45,"Duration":335615,"SoundDuration":335615,"Delta":170087861},{"NoteNumber":66,"Velocity":55,"Duration":203032,"SoundDuration":203032,"Delta":170087861},{"NoteNumber":68,"Velocity":52,"Duration":212133,"SoundDuration":212133,"Delta":170290893},{"NoteNumber":76,"Velocity":34,"Duration":397720,"SoundDuration":397720,"Delta":170423477},{"NoteNumber":80,"Velocity":34,"Duration":371203,"SoundDuration":371203,"Delta":170449994},{"NoteNumber":86,"Velocity":39,"Duration":344686,"SoundDuration":344686,"Delta":170476510},{"NoteNumber":88,"Velocity":45,"Duration":318170,"SoundDuration":318170,"Delta":170503027},{"NoteNumber":64,"Velocity":52,"Duration":97898,"SoundDuration":97898,"Delta":170503027},{"NoteNumber":66,"Velocity":48,"Duration":97898,"SoundDuration":97898,"Delta":170600926},{"NoteNumber":64,"Velocity":52,"Duration":97898,"SoundDuration":97898,"Delta":170698824},{"NoteNumber":62,"Velocity":48,"Duration":97898,"SoundDuration":97898,"Delta":170796723},{"NoteNumber":76,"Velocity":34,"Duration":391593,"SoundDuration":391593,"Delta":170821197},{"NoteNumber":80,"Velocity":34,"Duration":367119,"SoundDuration":367119,"Delta":170845672},{"NoteNumber":86,"Velocity":39,"Duration":342644,"SoundDuration":342644,"Delta":170870147},{"NoteNumber":88,"Velocity":45,"Duration":318170,"SoundDuration":318170,"Delta":170894621},{"NoteNumber":59,"Velocity":52,"Duration":595675,"SoundDuration":595675,"Delta":170894621},{"NoteNumber":76,"Velocity":34,"Duration":392536,"SoundDuration":392536,"Delta":171212791},{"NoteNumber":80,"Velocity":34,"Duration":368061,"SoundDuration":368061,"Delta":171237266},{"NoteNumber":86,"Velocity":39,"Duration":343586,"SoundDuration":343586,"Delta":171261741},{"NoteNumber":88,"Velocity":45,"Duration":319112,"SoundDuration":319112,"Delta":171286215},{"NoteNumber":59,"Velocity":42,"Duration":184048,"SoundDuration":184048,"Delta":171490297},{"NoteNumber":76,"Velocity":34,"Duration":383494,"SoundDuration":383494,"Delta":171605328},{"NoteNumber":80,"Velocity":34,"Duration":360487,"SoundDuration":360487,"Delta":171628334},{"NoteNumber":86,"Velocity":39,"Duration":337481,"SoundDuration":337481,"Delta":171651340},{"NoteNumber":88,"Velocity":45,"Duration":314475,"SoundDuration":314475,"Delta":171674346},{"NoteNumber":52,"Velocity":45,"Duration":580570,"SoundDuration":580570,"Delta":171674346},{"NoteNumber":76,"Velocity":34,"Duration":383282,"SoundDuration":383282,"Delta":171988822},{"NoteNumber":80,"Velocity":34,"Duration":359091,"SoundDuration":359091,"Delta":172013012},{"NoteNumber":86,"Velocity":39,"Duration":334901,"SoundDuration":334901,"Delta":172037203},{"NoteNumber":88,"Velocity":45,"Duration":310710,"SoundDuration":310710,"Delta":172061393},{"NoteNumber":47,"Velocity":42,"Duration":187500,"SoundDuration":187500,"Delta":172254916},{"NoteNumber":76,"Velocity":34,"Duration":388940,"SoundDuration":388940,"Delta":172372104},{"NoteNumber":80,"Velocity":34,"Duration":365502,"SoundDuration":365502,"Delta":172395541},{"NoteNumber":86,"Velocity":39,"Duration":342065,"SoundDuration":342065,"Delta":172418979},{"NoteNumber":88,"Velocity":45,"Duration":318627,"SoundDuration":318627,"Delta":172442416},{"NoteNumber":40,"Velocity":46,"Duration":392156,"SoundDuration":392156,"Delta":172442416},{"NoteNumber":76,"Velocity":34,"Duration":390716,"SoundDuration":390716,"Delta":172761044},{"NoteNumber":80,"Velocity":34,"Duration":366207,"SoundDuration":366207,"Delta":172785554},{"NoteNumber":86,"Velocity":39,"Duration":341697,"SoundDuration":341697,"Delta":172810064},{"NoteNumber":88,"Velocity":45,"Duration":317187,"SoundDuration":317187,"Delta":172834573},{"NoteNumber":76,"Velocity":34,"Duration":384788,"SoundDuration":384788,"Delta":173151761},{"NoteNumber":80,"Velocity":34,"Duration":361350,"SoundDuration":361350,"Delta":173175198},{"NoteNumber":86,"Velocity":39,"Duration":337913,"SoundDuration":337913,"Delta":173198636},{"NoteNumber":88,"Velocity":45,"Duration":314475,"SoundDuration":314475,"Delta":173222073},{"NoteNumber":59,"Velocity":53,"Duration":193523,"SoundDuration":193523,"Delta":173222073},{"NoteNumber":61,"Velocity":49,"Duration":193523,"SoundDuration":193523,"Delta":173415597},{"NoteNumber":76,"Velocity":34,"Duration":387046,"SoundDuration":387046,"Delta":173536549},{"NoteNumber":80,"Velocity":34,"Duration":362856,"SoundDuration":362856,"Delta":173560740},{"NoteNumber":86,"Velocity":39,"Duration":338666,"SoundDuration":338666,"Delta":173584930},{"NoteNumber":88,"Velocity":45,"Duration":314475,"SoundDuration":314475,"Delta":173609120},{"NoteNumber":62,"Velocity":54,"Duration":580570,"SoundDuration":580570,"Delta":173609120},{"NoteNumber":76,"Velocity":34,"Duration":390580,"SoundDuration":390580,"Delta":173923596},{"NoteNumber":80,"Velocity":34,"Duration":366389,"SoundDuration":366389,"Delta":173947787},{"NoteNumber":86,"Velocity":39,"Duration":342199,"SoundDuration":342199,"Delta":173971977},{"NoteNumber":88,"Velocity":45,"Duration":318008,"SoundDuration":318008,"Delta":173996167},{"NoteNumber":64,"Velocity":51,"Duration":199176,"SoundDuration":199176,"Delta":174189691},{"NoteNumber":76,"Velocity":34,"Duration":386791,"SoundDuration":386791,"Delta":174314176},{"NoteNumber":80,"Velocity":34,"Duration":361894,"SoundDuration":361894,"Delta":174339074},{"NoteNumber":86,"Velocity":39,"Duration":336997,"SoundDuration":336997,"Delta":174363971},{"NoteNumber":88,"Velocity":45,"Duration":312099,"SoundDuration":312099,"Delta":174388868},{"NoteNumber":66,"Velocity":54,"Duration":582273,"SoundDuration":582273,"Delta":174388868},{"NoteNumber":76,"Velocity":34,"Duration":398633,"SoundDuration":398633,"Delta":174700968},{"NoteNumber":80,"Velocity":34,"Duration":374625,"SoundDuration":374625,"Delta":174724975},{"NoteNumber":86,"Velocity":39,"Duration":350618,"SoundDuration":350618,"Delta":174748983},{"NoteNumber":88,"Velocity":45,"Duration":326610,"SoundDuration":326610,"Delta":174772991},{"NoteNumber":69,"Velocity":50,"Duration":205535,"SoundDuration":205535,"Delta":174971141},{"NoteNumber":76,"Velocity":34,"Duration":389175,"SoundDuration":389175,"Delta":175099601},{"NoteNumber":81,"Velocity":34,"Duration":363483,"SoundDuration":363483,"Delta":175125293},{"NoteNumber":85,"Velocity":39,"Duration":337791,"SoundDuration":337791,"Delta":175150985},{"NoteNumber":88,"Velocity":45,"Duration":312099,"SoundDuration":312099,"Delta":175176677},{"NoteNumber":66,"Velocity":54,"Duration":128040,"SoundDuration":128040,"Delta":175176677},{"NoteNumber":68,"Velocity":46,"Duration":128040,"SoundDuration":128040,"Delta":175304718},{"NoteNumber":66,"Velocity":50,"Duration":128040,"SoundDuration":128040,"Delta":175432759},{"NoteNumber":76,"Velocity":34,"Duration":388293,"SoundDuration":388293,"Delta":175488777},{"NoteNumber":81,"Velocity":34,"Duration":364286,"SoundDuration":364286,"Delta":175512785},{"NoteNumber":85,"Velocity":39,"Duration":340278,"SoundDuration":340278,"Delta":175536792},{"NoteNumber":88,"Velocity":45,"Duration":316270,"SoundDuration":316270,"Delta":175560800},{"NoteNumber":64,"Velocity":50,"Duration":1985123,"SoundDuration":1985123,"Delta":175560800},{"NoteNumber":76,"Velocity":34,"Duration":389256,"SoundDuration":389256,"Delta":175877071},{"NoteNumber":81,"Velocity":34,"Duration":364927,"SoundDuration":364927,"Delta":175901399},{"NoteNumber":85,"Velocity":39,"Duration":340599,"SoundDuration":340599,"Delta":175925728},{"NoteNumber":88,"Velocity":45,"Duration":316270,"SoundDuration":316270,"Delta":175950056},{"NoteNumber":76,"Velocity":34,"Duration":388496,"SoundDuration":388496,"Delta":176266327},{"NoteNumber":81,"Velocity":34,"Duration":364168,"SoundDuration":364168,"Delta":176290656},{"NoteNumber":85,"Velocity":39,"Duration":339839,"SoundDuration":339839,"Delta":176314984},{"NoteNumber":88,"Velocity":44,"Duration":315511,"SoundDuration":315511,"Delta":176339313},{"NoteNumber":76,"Velocity":31,"Duration":393936,"SoundDuration":393936,"Delta":176654824},{"NoteNumber":81,"Velocity":31,"Duration":369479,"SoundDuration":369479,"Delta":176679281},{"NoteNumber":85,"Velocity":36,"Duration":344969,"SoundDuration":344969,"Delta":176703791},{"NoteNumber":88,"Velocity":41,"Duration":320460,"SoundDuration":320460,"Delta":176728301},{"NoteNumber":76,"Velocity":29,"Duration":425507,"SoundDuration":425507,"Delta":177048761},{"NoteNumber":81,"Velocity":29,"Duration":400672,"SoundDuration":400672,"Delta":177073595},{"NoteNumber":85,"Velocity":33,"Duration":375838,"SoundDuration":375838,"Delta":177098430},{"NoteNumber":88,"Velocity":38,"Duration":351003,"SoundDuration":351003,"Delta":177123264},{"NoteNumber":76,"Velocity":27,"Duration":390283,"SoundDuration":390283,"Delta":177474268},{"NoteNumber":81,"Velocity":27,"Duration":366398,"SoundDuration":366398,"Delta":177498153},{"NoteNumber":84,"Velocity":31,"Duration":342512,"SoundDuration":342512,"Delta":177522039},{"NoteNumber":88,"Velocity":36,"Duration":318627,"SoundDuration":318627,"Delta":177545924},{"NoteNumber":65,"Velocity":44,"Duration":130718,"SoundDuration":130718,"Delta":177545924},{"NoteNumber":67,"Velocity":37,"Duration":130718,"SoundDuration":130718,"Delta":177676643},{"NoteNumber":65,"Velocity":37,"Duration":130718,"SoundDuration":130718,"Delta":177807362},{"NoteNumber":76,"Velocity":27,"Duration":400710,"SoundDuration":400710,"Delta":177864552},{"NoteNumber":81,"Velocity":27,"Duration":376200,"SoundDuration":376200,"Delta":177889061},{"NoteNumber":84,"Velocity":31,"Duration":351690,"SoundDuration":351690,"Delta":177913571},{"NoteNumber":88,"Velocity":36,"Duration":327181,"SoundDuration":327181,"Delta":177938081},{"NoteNumber":64,"Velocity":38,"Duration":2048694,"SoundDuration":2048694,"Delta":177938081},{"NoteNumber":76,"Velocity":27,"Duration":402684,"SoundDuration":402684,"Delta":178265262},{"NoteNumber":81,"Velocity":27,"Duration":377516,"SoundDuration":377516,"Delta":178290430},{"NoteNumber":84,"Velocity":31,"Duration":352348,"SoundDuration":352348,"Delta":178315598},{"NoteNumber":88,"Velocity":36,"Duration":327181,"SoundDuration":327181,"Delta":178340765},{"NoteNumber":76,"Velocity":27,"Duration":402684,"SoundDuration":402684,"Delta":178667947},{"NoteNumber":81,"Velocity":27,"Duration":377516,"SoundDuration":377516,"Delta":178693114},{"NoteNumber":84,"Velocity":31,"Duration":352348,"SoundDuration":352348,"Delta":178718282},{"NoteNumber":88,"Velocity":36,"Duration":327181,"SoundDuration":327181,"Delta":178743450},{"NoteNumber":76,"Velocity":27,"Duration":402684,"SoundDuration":402684,"Delta":179070631},{"NoteNumber":81,"Velocity":27,"Duration":377516,"SoundDuration":377516,"Delta":179095799},{"NoteNumber":84,"Velocity":31,"Duration":352348,"SoundDuration":352348,"Delta":179120967},{"NoteNumber":88,"Velocity":36,"Duration":327181,"SoundDuration":327181,"Delta":179146134},{"NoteNumber":76,"Velocity":27,"Duration":431342,"SoundDuration":431342,"Delta":179473316},{"NoteNumber":81,"Velocity":27,"Duration":406174,"SoundDuration":406174,"Delta":179498483},{"NoteNumber":84,"Velocity":31,"Duration":381007,"SoundDuration":381007,"Delta":179523651},{"NoteNumber":88,"Velocity":36,"Duration":355839,"SoundDuration":355839,"Delta":179548819},{"NoteNumber":37,"Velocity":69,"Duration":279069,"SoundDuration":279069,"Delta":179986775},{"NoteNumber":68,"Velocity":51,"Duration":272727,"SoundDuration":272727,"Delta":180265845},{"NoteNumber":71,"Velocity":54,"Duration":272727,"SoundDuration":272727,"Delta":180265845},{"NoteNumber":74,"Velocity":72,"Duration":90909,"SoundDuration":90909,"Delta":180265845},{"NoteNumber":66,"Velocity":60,"Duration":272727,"SoundDuration":272727,"Delta":180265845},{"NoteNumber":61,"Velocity":49,"Duration":272727,"SoundDuration":272727,"Delta":180265845},{"NoteNumber":76,"Velocity":60,"Duration":90909,"SoundDuration":90909,"Delta":180356754},{"NoteNumber":74,"Velocity":59,"Duration":90909,"SoundDuration":90909,"Delta":180447663},{"NoteNumber":71,"Velocity":54,"Duration":135746,"SoundDuration":135746,"Delta":180538572},{"NoteNumber":68,"Velocity":68,"Duration":101809,"SoundDuration":101809,"Delta":180538572},{"NoteNumber":73,"Velocity":68,"Duration":101809,"SoundDuration":101809,"Delta":180538572},{"NoteNumber":65,"Velocity":45,"Duration":135746,"SoundDuration":135746,"Delta":180538572},{"NoteNumber":61,"Velocity":43,"Duration":135746,"SoundDuration":135746,"Delta":180538572},{"NoteNumber":80,"Velocity":51,"Duration":272727,"SoundDuration":272727,"Delta":180814506},{"NoteNumber":83,"Velocity":53,"Duration":272727,"SoundDuration":272727,"Delta":180814506},{"NoteNumber":86,"Velocity":72,"Duration":90909,"SoundDuration":90909,"Delta":180814506},{"NoteNumber":73,"Velocity":49,"Duration":272727,"SoundDuration":272727,"Delta":180814506},{"NoteNumber":78,"Velocity":60,"Duration":272727,"SoundDuration":272727,"Delta":180814506},{"NoteNumber":88,"Velocity":61,"Duration":90909,"SoundDuration":90909,"Delta":180905415},{"NoteNumber":86,"Velocity":61,"Duration":90909,"SoundDuration":90909,"Delta":180996324},{"NoteNumber":83,"Velocity":61,"Duration":101809,"SoundDuration":101809,"Delta":181087233},{"NoteNumber":80,"Velocity":62,"Duration":101809,"SoundDuration":101809,"Delta":181087233},{"NoteNumber":85,"Velocity":68,"Duration":101809,"SoundDuration":101809,"Delta":181087233},{"NoteNumber":77,"Velocity":45,"Duration":135746,"SoundDuration":135746,"Delta":181087233},{"NoteNumber":73,"Velocity":42,"Duration":135746,"SoundDuration":135746,"Delta":181087233},{"NoteNumber":92,"Velocity":51,"Duration":272727,"SoundDuration":272727,"Delta":181363167},{"NoteNumber":95,"Velocity":53,"Duration":272727,"SoundDuration":272727,"Delta":181363167},{"NoteNumber":98,"Velocity":72,"Duration":90909,"SoundDuration":90909,"Delta":181363167},{"NoteNumber":90,"Velocity":60,"Duration":272727,"SoundDuration":272727,"Delta":181363167},{"NoteNumber":85,"Velocity":49,"Duration":272727,"SoundDuration":272727,"Delta":181363167},{"NoteNumber":100,"Velocity":60,"Duration":90909,"SoundDuration":90909,"Delta":181454076},{"NoteNumber":98,"Velocity":61,"Duration":90909,"SoundDuration":90909,"Delta":181544985},{"NoteNumber":95,"Velocity":62,"Duration":105140,"SoundDuration":105140,"Delta":181635894},{"NoteNumber":92,"Velocity":64,"Duration":105140,"SoundDuration":105140,"Delta":181635894},{"NoteNumber":97,"Velocity":71,"Duration":105140,"SoundDuration":105140,"Delta":181635894},{"NoteNumber":85,"Velocity":44,"Duration":140186,"SoundDuration":140186,"Delta":181635894},{"NoteNumber":89,"Velocity":47,"Duration":140186,"SoundDuration":140186,"Delta":181635894},{"NoteNumber":80,"Velocity":53,"Duration":272727,"SoundDuration":272727,"Delta":181916268},{"NoteNumber":83,"Velocity":55,"Duration":272727,"SoundDuration":272727,"Delta":181916268},{"NoteNumber":86,"Velocity":75,"Duration":90909,"SoundDuration":90909,"Delta":181916268},{"NoteNumber":78,"Velocity":63,"Duration":272727,"SoundDuration":272727,"Delta":181916268},{"NoteNumber":73,"Velocity":51,"Duration":272727,"SoundDuration":272727,"Delta":181916268},{"NoteNumber":88,"Velocity":65,"Duration":90909,"SoundDuration":90909,"Delta":182007178},{"NoteNumber":86,"Velocity":67,"Duration":90909,"SoundDuration":90909,"Delta":182098087},{"NoteNumber":83,"Velocity":59,"Duration":115384,"SoundDuration":115384,"Delta":182188996},{"NoteNumber":80,"Velocity":59,"Duration":115384,"SoundDuration":115384,"Delta":182188996},{"NoteNumber":85,"Velocity":71,"Duration":115384,"SoundDuration":115384,"Delta":182188996},{"NoteNumber":73,"Velocity":44,"Duration":153846,"SoundDuration":153846,"Delta":182188996},{"NoteNumber":77,"Velocity":47,"Duration":153846,"SoundDuration":153846,"Delta":182188996},{"NoteNumber":67,"Velocity":57,"Duration":284359,"SoundDuration":284359,"Delta":182496688},{"NoteNumber":70,"Velocity":59,"Duration":284359,"SoundDuration":284359,"Delta":182496688},{"NoteNumber":74,"Velocity":81,"Duration":94786,"SoundDuration":94786,"Delta":182496688},{"NoteNumber":60,"Velocity":55,"Duration":284359,"SoundDuration":284359,"Delta":182496688},{"NoteNumber":65,"Velocity":69,"Duration":284359,"SoundDuration":284359,"Delta":182496688},{"NoteNumber":76,"Velocity":72,"Duration":94786,"SoundDuration":94786,"Delta":182591475},{"NoteNumber":74,"Velocity":72,"Duration":94786,"SoundDuration":94786,"Delta":182686262},{"NoteNumber":70,"Velocity":70,"Duration":111940,"SoundDuration":111940,"Delta":182781048},{"NoteNumber":67,"Velocity":70,"Duration":111940,"SoundDuration":111940,"Delta":182781048},{"NoteNumber":72,"Velocity":77,"Duration":111940,"SoundDuration":111940,"Delta":182781048},{"NoteNumber":64,"Velocity":51,"Duration":149253,"SoundDuration":149253,"Delta":182781048},{"NoteNumber":60,"Velocity":48,"Duration":149253,"SoundDuration":149253,"Delta":182781048},{"NoteNumber":84,"Velocity":84,"Duration":312500,"SoundDuration":312500,"Delta":183079556},{"NoteNumber":88,"Velocity":84,"Duration":312500,"SoundDuration":312500,"Delta":183079556},{"NoteNumber":96,"Velocity":84,"Duration":312500,"SoundDuration":312500,"Delta":183079556},{"NoteNumber":94,"Velocity":84,"Duration":312500,"SoundDuration":312500,"Delta":183079556},{"NoteNumber":36,"Velocity":58,"Duration":156250,"SoundDuration":156250,"Delta":183079556},{"NoteNumber":48,"Velocity":58,"Duration":156250,"SoundDuration":156250,"Delta":183079556},{"NoteNumber":69,"Velocity":71,"Duration":279069,"SoundDuration":279069,"Delta":183392056},{"NoteNumber":77,"Velocity":87,"Duration":279069,"SoundDuration":279069,"Delta":183392056},{"NoteNumber":41,"Velocity":64,"Duration":279069,"SoundDuration":279069,"Delta":183392056},{"NoteNumber":53,"Velocity":64,"Duration":279069,"SoundDuration":279069,"Delta":183392056},{"NoteNumber":69,"Velocity":71,"Duration":272727,"SoundDuration":272727,"Delta":183671126},{"NoteNumber":76,"Velocity":77,"Duration":90909,"SoundDuration":90909,"Delta":183671126},{"NoteNumber":57,"Velocity":58,"Duration":272727,"SoundDuration":272727,"Delta":183671126},{"NoteNumber":60,"Velocity":58,"Duration":272727,"SoundDuration":272727,"Delta":183671126},{"NoteNumber":65,"Velocity":58,"Duration":272727,"SoundDuration":272727,"Delta":183671126},{"NoteNumber":77,"Velocity":66,"Duration":90909,"SoundDuration":90909,"Delta":183762035},{"NoteNumber":76,"Velocity":67,"Duration":90909,"SoundDuration":90909,"Delta":183852944},{"NoteNumber":69,"Velocity":67,"Duration":277137,"SoundDuration":277137,"Delta":183943853},{"NoteNumber":74,"Velocity":77,"Duration":138248,"SoundDuration":138248,"Delta":183943853},{"NoteNumber":57,"Velocity":58,"Duration":277137,"SoundDuration":277137,"Delta":183943853},{"NoteNumber":60,"Velocity":58,"Duration":277137,"SoundDuration":277137,"Delta":183943853},{"NoteNumber":65,"Velocity":58,"Duration":277137,"SoundDuration":277137,"Delta":183943853},{"NoteNumber":76,"Velocity":70,"Duration":138889,"SoundDuration":138889,"Delta":184082102},{"NoteNumber":69,"Velocity":58,"Duration":280160,"SoundDuration":280160,"Delta":184220991},{"NoteNumber":77,"Velocity":79,"Duration":134529,"SoundDuration":134529,"Delta":184220991},{"NoteNumber":36,"Velocity":64,"Duration":280160,"SoundDuration":280160,"Delta":184220991},{"NoteNumber":48,"Velocity":64,"Duration":280160,"SoundDuration":280160,"Delta":184220991},{"NoteNumber":74,"Velocity":71,"Duration":145631,"SoundDuration":145631,"Delta":184355520},{"NoteNumber":69,"Velocity":67,"Duration":108695,"SoundDuration":108695,"Delta":184501151},{"NoteNumber":76,"Velocity":78,"Duration":108695,"SoundDuration":108695,"Delta":184501151},{"NoteNumber":57,"Velocity":58,"Duration":144927,"SoundDuration":144927,"Delta":184501151},{"NoteNumber":60,"Velocity":58,"Duration":144927,"SoundDuration":144927,"Delta":184501151},{"NoteNumber":65,"Velocity":58,"Duration":144927,"SoundDuration":144927,"Delta":184501151},{"NoteNumber":69,"Velocity":67,"Duration":109223,"SoundDuration":109223,"Delta":184791006},{"NoteNumber":72,"Velocity":75,"Duration":109223,"SoundDuration":109223,"Delta":184791006},{"NoteNumber":57,"Velocity":58,"Duration":145631,"SoundDuration":145631,"Delta":184791006},{"NoteNumber":60,"Velocity":58,"Duration":145631,"SoundDuration":145631,"Delta":184791006},{"NoteNumber":65,"Velocity":58,"Duration":145631,"SoundDuration":145631,"Delta":184791006},{"NoteNumber":69,"Velocity":68,"Duration":279069,"SoundDuration":279069,"Delta":185082268},{"NoteNumber":77,"Velocity":83,"Duration":279069,"SoundDuration":279069,"Delta":185082268},{"NoteNumber":41,"Velocity":64,"Duration":279069,"SoundDuration":279069,"Delta":185082268},{"NoteNumber":53,"Velocity":64,"Duration":279069,"SoundDuration":279069,"Delta":185082268},{"NoteNumber":69,"Velocity":68,"Duration":272727,"SoundDuration":272727,"Delta":185361338},{"NoteNumber":76,"Velocity":74,"Duration":90909,"SoundDuration":90909,"Delta":185361338},{"NoteNumber":65,"Velocity":58,"Duration":272727,"SoundDuration":272727,"Delta":185361338},{"NoteNumber":57,"Velocity":58,"Duration":272727,"SoundDuration":272727,"Delta":185361338},{"NoteNumber":60,"Velocity":58,"Duration":272727,"SoundDuration":272727,"Delta":185361338},{"NoteNumber":77,"Velocity":67,"Duration":90909,"SoundDuration":90909,"Delta":185452248},{"NoteNumber":76,"Velocity":67,"Duration":90909,"SoundDuration":90909,"Delta":185543157},{"NoteNumber":69,"Velocity":64,"Duration":278424,"SoundDuration":278424,"Delta":185634066},{"NoteNumber":74,"Velocity":74,"Duration":138889,"SoundDuration":138889,"Delta":185634066},{"NoteNumber":57,"Velocity":58,"Duration":278424,"SoundDuration":278424,"Delta":185634066},{"NoteNumber":65,"Velocity":58,"Duration":278424,"SoundDuration":278424,"Delta":185634066},{"NoteNumber":60,"Velocity":58,"Duration":278424,"SoundDuration":278424,"Delta":185634066},{"NoteNumber":76,"Velocity":69,"Duration":139534,"SoundDuration":139534,"Delta":185772955},{"NoteNumber":69,"Velocity":56,"Duration":280870,"SoundDuration":280870,"Delta":185912490},{"NoteNumber":77,"Velocity":76,"Duration":134529,"SoundDuration":134529,"Delta":185912490},{"NoteNumber":48,"Velocity":64,"Duration":280870,"SoundDuration":280870,"Delta":185912490},{"NoteNumber":36,"Velocity":64,"Duration":280870,"SoundDuration":280870,"Delta":185912490},{"NoteNumber":74,"Velocity":67,"Duration":146341,"SoundDuration":146341,"Delta":186047019},{"NoteNumber":69,"Velocity":64,"Duration":108695,"SoundDuration":108695,"Delta":186193361},{"NoteNumber":76,"Velocity":75,"Duration":108695,"SoundDuration":108695,"Delta":186193361},{"NoteNumber":57,"Velocity":58,"Duration":144927,"SoundDuration":144927,"Delta":186193361},{"NoteNumber":65,"Velocity":58,"Duration":144927,"SoundDuration":144927,"Delta":186193361},{"NoteNumber":60,"Velocity":58,"Duration":144927,"SoundDuration":144927,"Delta":186193361},{"NoteNumber":69,"Velocity":64,"Duration":109223,"SoundDuration":109223,"Delta":186483216},{"NoteNumber":72,"Velocity":72,"Duration":109223,"SoundDuration":109223,"Delta":186483216},{"NoteNumber":57,"Velocity":58,"Duration":145631,"SoundDuration":145631,"Delta":186483216},{"NoteNumber":65,"Velocity":58,"Duration":145631,"SoundDuration":145631,"Delta":186483216},{"NoteNumber":60,"Velocity":58,"Duration":145631,"SoundDuration":145631,"Delta":186483216},{"NoteNumber":69,"Velocity":59,"Duration":276497,"SoundDuration":276497,"Delta":186774478},{"NoteNumber":74,"Velocity":77,"Duration":138248,"SoundDuration":138248,"Delta":186774478},{"NoteNumber":53,"Velocity":58,"Duration":276497,"SoundDuration":276497,"Delta":186774478},{"NoteNumber":76,"Velocity":72,"Duration":138248,"SoundDuration":138248,"Delta":186912726},{"NoteNumber":69,"Velocity":48,"Duration":256313,"SoundDuration":256313,"Delta":187050975},{"NoteNumber":72,"Velocity":75,"Duration":256313,"SoundDuration":256313,"Delta":187050975},{"NoteNumber":59,"Velocity":59,"Duration":144927,"SoundDuration":144927,"Delta":187050975},{"NoteNumber":60,"Velocity":52,"Duration":148514,"SoundDuration":148514,"Delta":187195903},{"NoteNumber":69,"Velocity":56,"Duration":279220,"SoundDuration":279220,"Delta":187344417},{"NoteNumber":74,"Velocity":72,"Duration":136363,"SoundDuration":136363,"Delta":187344417},{"NoteNumber":48,"Velocity":51,"Duration":207792,"SoundDuration":207792,"Delta":187344417},{"NoteNumber":76,"Velocity":73,"Duration":142857,"SoundDuration":142857,"Delta":187480781},{"NoteNumber":62,"Velocity":52,"Duration":71428,"SoundDuration":71428,"Delta":187552210},{"NoteNumber":69,"Velocity":59,"Duration":244186,"SoundDuration":244186,"Delta":187623638},{"NoteNumber":77,"Velocity":76,"Duration":244186,"SoundDuration":244186,"Delta":187623638},{"NoteNumber":60,"Velocity":59,"Duration":139534,"SoundDuration":139534,"Delta":187623638},{"NoteNumber":59,"Velocity":50,"Duration":139534,"SoundDuration":139534,"Delta":187763173},{"NoteNumber":69,"Velocity":59,"Duration":276497,"SoundDuration":276497,"Delta":187902708},{"NoteNumber":74,"Velocity":77,"Duration":138248,"SoundDuration":138248,"Delta":187902708},{"NoteNumber":60,"Velocity":58,"Duration":138248,"SoundDuration":138248,"Delta":187902708},{"NoteNumber":76,"Velocity":72,"Duration":138248,"SoundDuration":138248,"Delta":188040957},{"NoteNumber":62,"Velocity":51,"Duration":138248,"SoundDuration":138248,"Delta":188040957},{"NoteNumber":69,"Velocity":48,"Duration":253623,"SoundDuration":253623,"Delta":188179206},{"NoteNumber":72,"Velocity":68,"Duration":253623,"SoundDuration":253623,"Delta":188179206},{"NoteNumber":60,"Velocity":49,"Duration":253623,"SoundDuration":253623,"Delta":188179206},{"NoteNumber":69,"Velocity":50,"Duration":273995,"SoundDuration":273995,"Delta":188469061},{"NoteNumber":74,"Velocity":78,"Duration":135746,"SoundDuration":135746,"Delta":188469061},{"NoteNumber":53,"Velocity":58,"Duration":273995,"SoundDuration":273995,"Delta":188469061},{"NoteNumber":76,"Velocity":71,"Duration":138248,"SoundDuration":138248,"Delta":188604807},{"NoteNumber":69,"Velocity":45,"Duration":253986,"SoundDuration":253986,"Delta":188743056},{"NoteNumber":72,"Velocity":74,"Duration":253986,"SoundDuration":253986,"Delta":188743056},{"NoteNumber":59,"Velocity":58,"Duration":144230,"SoundDuration":144230,"Delta":188743056},{"NoteNumber":60,"Velocity":53,"Duration":146341,"SoundDuration":146341,"Delta":188887287},{"NoteNumber":69,"Velocity":55,"Duration":283765,"SoundDuration":283765,"Delta":189033628},{"NoteNumber":74,"Velocity":71,"Duration":139534,"SoundDuration":139534,"Delta":189033628},{"NoteNumber":48,"Velocity":51,"Duration":211650,"SoundDuration":211650,"Delta":189033628},{"NoteNumber":76,"Velocity":73,"Duration":144230,"SoundDuration":144230,"Delta":189173163},{"NoteNumber":62,"Velocity":52,"Duration":72115,"SoundDuration":72115,"Delta":189245279},{"NoteNumber":69,"Velocity":59,"Duration":285740,"SoundDuration":285740,"Delta":189317394},{"NoteNumber":79,"Velocity":77,"Duration":141509,"SoundDuration":141509,"Delta":189317394},{"NoteNumber":60,"Velocity":59,"Duration":141509,"SoundDuration":141509,"Delta":189317394},{"NoteNumber":77,"Velocity":71,"Duration":144230,"SoundDuration":144230,"Delta":189458904},{"NoteNumber":59,"Velocity":49,"Duration":144230,"SoundDuration":144230,"Delta":189458904},{"NoteNumber":69,"Velocity":59,"Duration":287140,"SoundDuration":287140,"Delta":189603134},{"NoteNumber":74,"Velocity":76,"Duration":141509,"SoundDuration":141509,"Delta":189603134},{"NoteNumber":60,"Velocity":58,"Duration":141509,"SoundDuration":141509,"Delta":189603134},{"NoteNumber":76,"Velocity":72,"Duration":145631,"SoundDuration":145631,"Delta":189744644},{"NoteNumber":62,"Velocity":49,"Duration":145631,"SoundDuration":145631,"Delta":189744644},{"NoteNumber":69,"Velocity":49,"Duration":322580,"SoundDuration":322580,"Delta":189890275},{"NoteNumber":72,"Velocity":68,"Duration":322580,"SoundDuration":322580,"Delta":189890275},{"NoteNumber":60,"Velocity":49,"Duration":282257,"SoundDuration":282257,"Delta":189890275},{"NoteNumber":36,"Velocity":55,"Duration":150000,"SoundDuration":150000,"Delta":190212855},{"NoteNumber":58,"Velocity":35,"Duration":126582,"SoundDuration":126582,"Delta":190512855},{"NoteNumber":62,"Velocity":41,"Duration":126582,"SoundDuration":126582,"Delta":190512855},{"NoteNumber":65,"Velocity":46,"Duration":126582,"SoundDuration":126582,"Delta":190512855},{"NoteNumber":55,"Velocity":40,"Duration":136363,"SoundDuration":136363,"Delta":190639438},{"NoteNumber":60,"Velocity":36,"Duration":144230,"SoundDuration":144230,"Delta":190775801},{"NoteNumber":70,"Velocity":41,"Duration":126582,"SoundDuration":126582,"Delta":191064263},{"NoteNumber":74,"Velocity":41,"Duration":126582,"SoundDuration":126582,"Delta":191064263},{"NoteNumber":77,"Velocity":46,"Duration":126582,"SoundDuration":126582,"Delta":191064263},{"NoteNumber":67,"Velocity":38,"Duration":135746,"SoundDuration":135746,"Delta":191190845},{"NoteNumber":72,"Velocity":36,"Duration":143540,"SoundDuration":143540,"Delta":191326592},{"NoteNumber":89,"Velocity":46,"Duration":126582,"SoundDuration":126582,"Delta":191613673},{"NoteNumber":86,"Velocity":41,"Duration":126582,"SoundDuration":126582,"Delta":191613673},{"NoteNumber":82,"Velocity":41,"Duration":126582,"SoundDuration":126582,"Delta":191613673},{"NoteNumber":79,"Velocity":43,"Duration":136363,"SoundDuration":136363,"Delta":191740255},{"NoteNumber":84,"Velocity":36,"Duration":147783,"SoundDuration":147783,"Delta":191876619},{"NoteNumber":82,"Velocity":48,"Duration":68493,"SoundDuration":68493,"Delta":192172186},{"NoteNumber":77,"Velocity":42,"Duration":68493,"SoundDuration":68493,"Delta":192172186},{"NoteNumber":67,"Velocity":36,"Duration":68493,"SoundDuration":68493,"Delta":192172186},{"NoteNumber":74,"Velocity":40,"Duration":68493,"SoundDuration":68493,"Delta":192172186},{"NoteNumber":82,"Velocity":48,"Duration":68493,"SoundDuration":68493,"Delta":192309172},{"NoteNumber":77,"Velocity":42,"Duration":68493,"SoundDuration":68493,"Delta":192309172},{"NoteNumber":67,"Velocity":36,"Duration":68493,"SoundDuration":68493,"Delta":192309172},{"NoteNumber":74,"Velocity":40,"Duration":68493,"SoundDuration":68493,"Delta":192309172},{"NoteNumber":89,"Velocity":51,"Duration":140845,"SoundDuration":140845,"Delta":192446158},{"NoteNumber":82,"Velocity":46,"Duration":140845,"SoundDuration":140845,"Delta":192446158},{"NoteNumber":79,"Velocity":44,"Duration":140845,"SoundDuration":140845,"Delta":192446158},{"NoteNumber":82,"Velocity":49,"Duration":144230,"SoundDuration":144230,"Delta":192727848},{"NoteNumber":77,"Velocity":44,"Duration":144230,"SoundDuration":144230,"Delta":192727848},{"NoteNumber":67,"Velocity":32,"Duration":144230,"SoundDuration":144230,"Delta":192727848},{"NoteNumber":74,"Velocity":37,"Duration":144230,"SoundDuration":144230,"Delta":192727848},{"NoteNumber":89,"Velocity":51,"Duration":144230,"SoundDuration":144230,"Delta":193016310},{"NoteNumber":82,"Velocity":46,"Duration":144230,"SoundDuration":144230,"Delta":193016310},{"NoteNumber":79,"Velocity":38,"Duration":144230,"SoundDuration":144230,"Delta":193016310},{"NoteNumber":82,"Velocity":49,"Duration":144230,"SoundDuration":144230,"Delta":193304771},{"NoteNumber":77,"Velocity":44,"Duration":144230,"SoundDuration":144230,"Delta":193304771},{"NoteNumber":67,"Velocity":32,"Duration":144230,"SoundDuration":144230,"Delta":193304771},{"NoteNumber":74,"Velocity":37,"Duration":144230,"SoundDuration":144230,"Delta":193304771},{"NoteNumber":36,"Velocity":52,"Duration":150000,"SoundDuration":150000,"Delta":193593233},{"NoteNumber":58,"Velocity":41,"Duration":126050,"SoundDuration":126050,"Delta":193893233},{"NoteNumber":62,"Velocity":41,"Duration":126050,"SoundDuration":126050,"Delta":193893233},{"NoteNumber":65,"Velocity":46,"Duration":126050,"SoundDuration":126050,"Delta":193893233},{"NoteNumber":55,"Velocity":38,"Duration":137614,"SoundDuration":137614,"Delta":194019283},{"NoteNumber":60,"Velocity":37,"Duration":140845,"SoundDuration":140845,"Delta":194156898},{"NoteNumber":70,"Velocity":41,"Duration":126050,"SoundDuration":126050,"Delta":194438588},{"NoteNumber":74,"Velocity":41,"Duration":126050,"SoundDuration":126050,"Delta":194438588},{"NoteNumber":77,"Velocity":46,"Duration":126050,"SoundDuration":126050,"Delta":194438588},{"NoteNumber":67,"Velocity":39,"Duration":136986,"SoundDuration":136986,"Delta":194564638},{"NoteNumber":72,"Velocity":38,"Duration":140186,"SoundDuration":140186,"Delta":194701625},{"NoteNumber":89,"Velocity":46,"Duration":126050,"SoundDuration":126050,"Delta":194981999},{"NoteNumber":86,"Velocity":41,"Duration":126050,"SoundDuration":126050,"Delta":194981999},{"NoteNumber":82,"Velocity":41,"Duration":126050,"SoundDuration":126050,"Delta":194981999},{"NoteNumber":79,"Velocity":38,"Duration":136363,"SoundDuration":136363,"Delta":195108049},{"NoteNumber":84,"Velocity":38,"Duration":147783,"SoundDuration":147783,"Delta":195244413},{"NoteNumber":79,"Velocity":42,"Duration":70093,"SoundDuration":70093,"Delta":195539979},{"NoteNumber":86,"Velocity":48,"Duration":70093,"SoundDuration":70093,"Delta":195539979},{"NoteNumber":82,"Velocity":42,"Duration":70093,"SoundDuration":70093,"Delta":195539979},{"NoteNumber":72,"Velocity":36,"Duration":70093,"SoundDuration":70093,"Delta":195539979},{"NoteNumber":77,"Velocity":40,"Duration":70093,"SoundDuration":70093,"Delta":195539979},{"NoteNumber":79,"Velocity":42,"Duration":70093,"SoundDuration":70093,"Delta":195680166},{"NoteNumber":86,"Velocity":48,"Duration":70093,"SoundDuration":70093,"Delta":195680166},{"NoteNumber":82,"Velocity":42,"Duration":70093,"SoundDuration":70093,"Delta":195680166},{"NoteNumber":72,"Velocity":36,"Duration":70093,"SoundDuration":70093,"Delta":195680166},{"NoteNumber":77,"Velocity":40,"Duration":70093,"SoundDuration":70093,"Delta":195680166},{"NoteNumber":79,"Velocity":46,"Duration":145631,"SoundDuration":145631,"Delta":195820353},{"NoteNumber":91,"Velocity":51,"Duration":145631,"SoundDuration":145631,"Delta":195820353},{"NoteNumber":82,"Velocity":46,"Duration":145631,"SoundDuration":145631,"Delta":195820353},{"NoteNumber":72,"Velocity":44,"Duration":145631,"SoundDuration":145631,"Delta":195820353},{"NoteNumber":77,"Velocity":44,"Duration":145631,"SoundDuration":145631,"Delta":195820353},{"NoteNumber":86,"Velocity":48,"Duration":71428,"SoundDuration":71428,"Delta":196111615},{"NoteNumber":82,"Velocity":42,"Duration":71428,"SoundDuration":71428,"Delta":196111615},{"NoteNumber":79,"Velocity":42,"Duration":71428,"SoundDuration":71428,"Delta":196111615},{"NoteNumber":72,"Velocity":36,"Duration":71428,"SoundDuration":71428,"Delta":196111615},{"NoteNumber":77,"Velocity":40,"Duration":71428,"SoundDuration":71428,"Delta":196111615},{"NoteNumber":82,"Velocity":42,"Duration":71428,"SoundDuration":71428,"Delta":196254473},{"NoteNumber":79,"Velocity":42,"Duration":71428,"SoundDuration":71428,"Delta":196254473},{"NoteNumber":86,"Velocity":48,"Duration":71428,"SoundDuration":71428,"Delta":196254473},{"NoteNumber":72,"Velocity":36,"Duration":71428,"SoundDuration":71428,"Delta":196254473},{"NoteNumber":77,"Velocity":40,"Duration":71428,"SoundDuration":71428,"Delta":196254473},{"NoteNumber":79,"Velocity":46,"Duration":144230,"SoundDuration":144230,"Delta":196397330},{"NoteNumber":82,"Velocity":46,"Duration":144230,"SoundDuration":144230,"Delta":196397330},{"NoteNumber":91,"Velocity":51,"Duration":144230,"SoundDuration":144230,"Delta":196397330},{"NoteNumber":72,"Velocity":44,"Duration":144230,"SoundDuration":144230,"Delta":196397330},{"NoteNumber":77,"Velocity":44,"Duration":144230,"SoundDuration":144230,"Delta":196397330},{"NoteNumber":79,"Velocity":44,"Duration":157894,"SoundDuration":157894,"Delta":196685791},{"NoteNumber":82,"Velocity":44,"Duration":157894,"SoundDuration":157894,"Delta":196685791},{"NoteNumber":84,"Velocity":49,"Duration":157894,"SoundDuration":157894,"Delta":196685791},{"NoteNumber":72,"Velocity":32,"Duration":157894,"SoundDuration":157894,"Delta":196685791},{"NoteNumber":76,"Velocity":37,"Duration":157894,"SoundDuration":157894,"Delta":196685791},{"NoteNumber":69,"Velocity":73,"Duration":279069,"SoundDuration":279069,"Delta":197001581},{"NoteNumber":77,"Velocity":89,"Duration":279069,"SoundDuration":279069,"Delta":197001581},{"NoteNumber":41,"Velocity":66,"Duration":279069,"SoundDuration":279069,"Delta":197001581},{"NoteNumber":53,"Velocity":66,"Duration":279069,"SoundDuration":279069,"Delta":197001581},{"NoteNumber":69,"Velocity":73,"Duration":272727,"SoundDuration":272727,"Delta":197280651},{"NoteNumber":76,"Velocity":79,"Duration":90909,"SoundDuration":90909,"Delta":197280651},{"NoteNumber":57,"Velocity":60,"Duration":272727,"SoundDuration":272727,"Delta":197280651},{"NoteNumber":60,"Velocity":60,"Duration":272727,"SoundDuration":272727,"Delta":197280651},{"NoteNumber":65,"Velocity":60,"Duration":272727,"SoundDuration":272727,"Delta":197280651},{"NoteNumber":77,"Velocity":69,"Duration":90909,"SoundDuration":90909,"Delta":197371560},{"NoteNumber":76,"Velocity":69,"Duration":90909,"SoundDuration":90909,"Delta":197462469},{"NoteNumber":69,"Velocity":69,"Duration":277137,"SoundDuration":277137,"Delta":197553378},{"NoteNumber":74,"Velocity":79,"Duration":138248,"SoundDuration":138248,"Delta":197553378},{"NoteNumber":57,"Velocity":60,"Duration":277137,"SoundDuration":277137,"Delta":197553378},{"NoteNumber":60,"Velocity":60,"Duration":277137,"SoundDuration":277137,"Delta":197553378},{"NoteNumber":65,"Velocity":60,"Duration":277137,"SoundDuration":277137,"Delta":197553378},{"NoteNumber":76,"Velocity":69,"Duration":138889,"SoundDuration":138889,"Delta":197691627},{"NoteNumber":69,"Velocity":60,"Duration":280160,"SoundDuration":280160,"Delta":197830516},{"NoteNumber":77,"Velocity":81,"Duration":134529,"SoundDuration":134529,"Delta":197830516},{"NoteNumber":36,"Velocity":66,"Duration":280160,"SoundDuration":280160,"Delta":197830516},{"NoteNumber":48,"Velocity":66,"Duration":280160,"SoundDuration":280160,"Delta":197830516},{"NoteNumber":74,"Velocity":72,"Duration":145631,"SoundDuration":145631,"Delta":197965045},{"NoteNumber":69,"Velocity":69,"Duration":108695,"SoundDuration":108695,"Delta":198110676},{"NoteNumber":76,"Velocity":80,"Duration":108695,"SoundDuration":108695,"Delta":198110676},{"NoteNumber":57,"Velocity":60,"Duration":144927,"SoundDuration":144927,"Delta":198110676},{"NoteNumber":60,"Velocity":60,"Duration":144927,"SoundDuration":144927,"Delta":198110676},{"NoteNumber":65,"Velocity":60,"Duration":144927,"SoundDuration":144927,"Delta":198110676},{"NoteNumber":69,"Velocity":69,"Duration":109223,"SoundDuration":109223,"Delta":198400531},{"NoteNumber":72,"Velocity":77,"Duration":109223,"SoundDuration":109223,"Delta":198400531},{"NoteNumber":57,"Velocity":60,"Duration":145631,"SoundDuration":145631,"Delta":198400531},{"NoteNumber":60,"Velocity":60,"Duration":145631,"SoundDuration":145631,"Delta":198400531},{"NoteNumber":65,"Velocity":60,"Duration":145631,"SoundDuration":145631,"Delta":198400531},{"NoteNumber":69,"Velocity":70,"Duration":279069,"SoundDuration":279069,"Delta":198691793},{"NoteNumber":77,"Velocity":85,"Duration":279069,"SoundDuration":279069,"Delta":198691793},{"NoteNumber":41,"Velocity":66,"Duration":279069,"SoundDuration":279069,"Delta":198691793},{"NoteNumber":53,"Velocity":66,"Duration":279069,"SoundDuration":279069,"Delta":198691793},{"NoteNumber":69,"Velocity":70,"Duration":272727,"SoundDuration":272727,"Delta":198970863},{"NoteNumber":76,"Velocity":76,"Duration":90909,"SoundDuration":90909,"Delta":198970863},{"NoteNumber":65,"Velocity":60,"Duration":272727,"SoundDuration":272727,"Delta":198970863},{"NoteNumber":57,"Velocity":60,"Duration":272727,"SoundDuration":272727,"Delta":198970863},{"NoteNumber":60,"Velocity":60,"Duration":272727,"SoundDuration":272727,"Delta":198970863},{"NoteNumber":77,"Velocity":68,"Duration":90909,"SoundDuration":90909,"Delta":199061773},{"NoteNumber":76,"Velocity":68,"Duration":90909,"SoundDuration":90909,"Delta":199152682},{"NoteNumber":69,"Velocity":66,"Duration":278424,"SoundDuration":278424,"Delta":199243591},{"NoteNumber":74,"Velocity":76,"Duration":138889,"SoundDuration":138889,"Delta":199243591},{"NoteNumber":57,"Velocity":60,"Duration":278424,"SoundDuration":278424,"Delta":199243591},{"NoteNumber":65,"Velocity":60,"Duration":278424,"SoundDuration":278424,"Delta":199243591},{"NoteNumber":60,"Velocity":60,"Duration":278424,"SoundDuration":278424,"Delta":199243591},{"NoteNumber":76,"Velocity":69,"Duration":139534,"SoundDuration":139534,"Delta":199382480},{"NoteNumber":69,"Velocity":58,"Duration":280870,"SoundDuration":280870,"Delta":199522015},{"NoteNumber":77,"Velocity":78,"Duration":134529,"SoundDuration":134529,"Delta":199522015},{"NoteNumber":48,"Velocity":66,"Duration":280870,"SoundDuration":280870,"Delta":199522015},{"NoteNumber":36,"Velocity":66,"Duration":280870,"SoundDuration":280870,"Delta":199522015},{"NoteNumber":74,"Velocity":71,"Duration":146341,"SoundDuration":146341,"Delta":199656544},{"NoteNumber":69,"Velocity":66,"Duration":108695,"SoundDuration":108695,"Delta":199802886},{"NoteNumber":76,"Velocity":77,"Duration":108695,"SoundDuration":108695,"Delta":199802886},{"NoteNumber":57,"Velocity":60,"Duration":144927,"SoundDuration":144927,"Delta":199802886},{"NoteNumber":65,"Velocity":60,"Duration":144927,"SoundDuration":144927,"Delta":199802886},{"NoteNumber":60,"Velocity":60,"Duration":144927,"SoundDuration":144927,"Delta":199802886},{"NoteNumber":69,"Velocity":66,"Duration":109223,"SoundDuration":109223,"Delta":200092741},{"NoteNumber":72,"Velocity":74,"Duration":109223,"SoundDuration":109223,"Delta":200092741},{"NoteNumber":57,"Velocity":60,"Duration":145631,"SoundDuration":145631,"Delta":200092741},{"NoteNumber":65,"Velocity":60,"Duration":145631,"SoundDuration":145631,"Delta":200092741},{"NoteNumber":60,"Velocity":60,"Duration":145631,"SoundDuration":145631,"Delta":200092741},{"NoteNumber":69,"Velocity":61,"Duration":276497,"SoundDuration":276497,"Delta":200384003},{"NoteNumber":74,"Velocity":79,"Duration":138248,"SoundDuration":138248,"Delta":200384003},{"NoteNumber":53,"Velocity":60,"Duration":276497,"SoundDuration":276497,"Delta":200384003},{"NoteNumber":76,"Velocity":74,"Duration":138248,"SoundDuration":138248,"Delta":200522251},{"NoteNumber":69,"Velocity":49,"Duration":256313,"SoundDuration":256313,"Delta":200660500},{"NoteNumber":72,"Velocity":77,"Duration":256313,"SoundDuration":256313,"Delta":200660500},{"NoteNumber":59,"Velocity":61,"Duration":144927,"SoundDuration":144927,"Delta":200660500},{"NoteNumber":60,"Velocity":54,"Duration":148514,"SoundDuration":148514,"Delta":200805428},{"NoteNumber":69,"Velocity":58,"Duration":279220,"SoundDuration":279220,"Delta":200953942},{"NoteNumber":74,"Velocity":74,"Duration":136363,"SoundDuration":136363,"Delta":200953942},{"NoteNumber":48,"Velocity":53,"Duration":207792,"SoundDuration":207792,"Delta":200953942},{"NoteNumber":76,"Velocity":75,"Duration":142857,"SoundDuration":142857,"Delta":201090306},{"NoteNumber":62,"Velocity":54,"Duration":71428,"SoundDuration":71428,"Delta":201161735},{"NoteNumber":69,"Velocity":61,"Duration":244186,"SoundDuration":244186,"Delta":201233163},{"NoteNumber":77,"Velocity":78,"Duration":244186,"SoundDuration":244186,"Delta":201233163},{"NoteNumber":60,"Velocity":61,"Duration":139534,"SoundDuration":139534,"Delta":201233163},{"NoteNumber":59,"Velocity":51,"Duration":139534,"SoundDuration":139534,"Delta":201372698},{"NoteNumber":69,"Velocity":61,"Duration":276497,"SoundDuration":276497,"Delta":201512233},{"NoteNumber":74,"Velocity":79,"Duration":138248,"SoundDuration":138248,"Delta":201512233},{"NoteNumber":60,"Velocity":60,"Duration":138248,"SoundDuration":138248,"Delta":201512233},{"NoteNumber":76,"Velocity":74,"Duration":138248,"SoundDuration":138248,"Delta":201650482},{"NoteNumber":62,"Velocity":53,"Duration":138248,"SoundDuration":138248,"Delta":201650482},{"NoteNumber":69,"Velocity":49,"Duration":253623,"SoundDuration":253623,"Delta":201788731},{"NoteNumber":72,"Velocity":77,"Duration":253623,"SoundDuration":253623,"Delta":201788731},{"NoteNumber":60,"Velocity":50,"Duration":253623,"SoundDuration":253623,"Delta":201788731},{"NoteNumber":69,"Velocity":52,"Duration":273995,"SoundDuration":273995,"Delta":202078586},{"NoteNumber":74,"Velocity":80,"Duration":135746,"SoundDuration":135746,"Delta":202078586},{"NoteNumber":53,"Velocity":60,"Duration":273995,"SoundDuration":273995,"Delta":202078586},{"NoteNumber":76,"Velocity":73,"Duration":138248,"SoundDuration":138248,"Delta":202214332},{"NoteNumber":69,"Velocity":46,"Duration":253986,"SoundDuration":253986,"Delta":202352581},{"NoteNumber":72,"Velocity":76,"Duration":253986,"SoundDuration":253986,"Delta":202352581},{"NoteNumber":59,"Velocity":64,"Duration":144230,"SoundDuration":144230,"Delta":202352581},{"NoteNumber":60,"Velocity":55,"Duration":146341,"SoundDuration":146341,"Delta":202496812},{"NoteNumber":69,"Velocity":57,"Duration":283765,"SoundDuration":283765,"Delta":202643153},{"NoteNumber":74,"Velocity":73,"Duration":139534,"SoundDuration":139534,"Delta":202643153},{"NoteNumber":48,"Velocity":53,"Duration":211650,"SoundDuration":211650,"Delta":202643153},{"NoteNumber":76,"Velocity":75,"Duration":144230,"SoundDuration":144230,"Delta":202782688},{"NoteNumber":62,"Velocity":54,"Duration":72115,"SoundDuration":72115,"Delta":202854804},{"NoteNumber":69,"Velocity":61,"Duration":285740,"SoundDuration":285740,"Delta":202926919},{"NoteNumber":79,"Velocity":79,"Duration":141509,"SoundDuration":141509,"Delta":202926919},{"NoteNumber":60,"Velocity":61,"Duration":141509,"SoundDuration":141509,"Delta":202926919},{"NoteNumber":77,"Velocity":73,"Duration":144230,"SoundDuration":144230,"Delta":203068429},{"NoteNumber":59,"Velocity":49,"Duration":144230,"SoundDuration":144230,"Delta":203068429},{"NoteNumber":69,"Velocity":61,"Duration":287140,"SoundDuration":287140,"Delta":203212659},{"NoteNumber":74,"Velocity":78,"Duration":141509,"SoundDuration":141509,"Delta":203212659},{"NoteNumber":60,"Velocity":60,"Duration":141509,"SoundDuration":141509,"Delta":203212659},{"NoteNumber":76,"Velocity":74,"Duration":145631,"SoundDuration":145631,"Delta":203354169},{"NoteNumber":62,"Velocity":53,"Duration":145631,"SoundDuration":145631,"Delta":203354169},{"NoteNumber":69,"Velocity":51,"Duration":291261,"SoundDuration":291261,"Delta":203499800},{"NoteNumber":72,"Velocity":70,"Duration":291261,"SoundDuration":291261,"Delta":203499800},{"NoteNumber":60,"Velocity":50,"Duration":254854,"SoundDuration":254854,"Delta":203499800},{"NoteNumber":36,"Velocity":98,"Duration":148514,"SoundDuration":148514,"Delta":203791062},{"NoteNumber":58,"Velocity":56,"Duration":126582,"SoundDuration":126582,"Delta":204088091},{"NoteNumber":62,"Velocity":66,"Duration":126582,"SoundDuration":126582,"Delta":204088091},{"NoteNumber":65,"Velocity":74,"Duration":126582,"SoundDuration":126582,"Delta":204088091},{"NoteNumber":55,"Velocity":69,"Duration":136363,"SoundDuration":136363,"Delta":204214674},{"NoteNumber":60,"Velocity":62,"Duration":145631,"SoundDuration":145631,"Delta":204351037},{"NoteNumber":70,"Velocity":66,"Duration":126050,"SoundDuration":126050,"Delta":204642299},{"NoteNumber":74,"Velocity":66,"Duration":126050,"SoundDuration":126050,"Delta":204642299},{"NoteNumber":77,"Velocity":74,"Duration":126050,"SoundDuration":126050,"Delta":204642299},{"NoteNumber":67,"Velocity":65,"Duration":136363,"SoundDuration":136363,"Delta":204768350},{"NoteNumber":72,"Velocity":60,"Duration":140186,"SoundDuration":140186,"Delta":204904714},{"NoteNumber":89,"Velocity":74,"Duration":126050,"SoundDuration":126050,"Delta":205185088},{"NoteNumber":86,"Velocity":66,"Duration":126050,"SoundDuration":126050,"Delta":205185088},{"NoteNumber":82,"Velocity":66,"Duration":126050,"SoundDuration":126050,"Delta":205185088},{"NoteNumber":79,"Velocity":67,"Duration":135746,"SoundDuration":135746,"Delta":205311138},{"NoteNumber":84,"Velocity":61,"Duration":147783,"SoundDuration":147783,"Delta":205446885},{"NoteNumber":82,"Velocity":82,"Duration":68493,"SoundDuration":68493,"Delta":205742451},{"NoteNumber":77,"Velocity":72,"Duration":68493,"SoundDuration":68493,"Delta":205742451},{"NoteNumber":67,"Velocity":54,"Duration":68493,"SoundDuration":68493,"Delta":205742451},{"NoteNumber":74,"Velocity":62,"Duration":68493,"SoundDuration":68493,"Delta":205742451},{"NoteNumber":82,"Velocity":82,"Duration":68493,"SoundDuration":68493,"Delta":205879437},{"NoteNumber":77,"Velocity":72,"Duration":68493,"SoundDuration":68493,"Delta":205879437},{"NoteNumber":67,"Velocity":54,"Duration":68493,"SoundDuration":68493,"Delta":205879437},{"NoteNumber":74,"Velocity":62,"Duration":68493,"SoundDuration":68493,"Delta":205879437},{"NoteNumber":89,"Velocity":87,"Duration":140845,"SoundDuration":140845,"Delta":206016424},{"NoteNumber":82,"Velocity":78,"Duration":140845,"SoundDuration":140845,"Delta":206016424},{"NoteNumber":79,"Velocity":67,"Duration":140845,"SoundDuration":140845,"Delta":206016424},{"NoteNumber":82,"Velocity":84,"Duration":144230,"SoundDuration":144230,"Delta":206298114},{"NoteNumber":77,"Velocity":75,"Duration":144230,"SoundDuration":144230,"Delta":206298114},{"NoteNumber":67,"Velocity":48,"Duration":144230,"SoundDuration":144230,"Delta":206298114},{"NoteNumber":74,"Velocity":56,"Duration":144230,"SoundDuration":144230,"Delta":206298114},{"NoteNumber":89,"Velocity":87,"Duration":144230,"SoundDuration":144230,"Delta":206586575},{"NoteNumber":82,"Velocity":78,"Duration":144230,"SoundDuration":144230,"Delta":206586575},{"NoteNumber":79,"Velocity":58,"Duration":144230,"SoundDuration":144230,"Delta":206586575},{"NoteNumber":82,"Velocity":84,"Duration":144230,"SoundDuration":144230,"Delta":206875037},{"NoteNumber":77,"Velocity":75,"Duration":144230,"SoundDuration":144230,"Delta":206875037},{"NoteNumber":67,"Velocity":48,"Duration":144230,"SoundDuration":144230,"Delta":206875037},{"NoteNumber":74,"Velocity":56,"Duration":144230,"SoundDuration":144230,"Delta":206875037},{"NoteNumber":36,"Velocity":98,"Duration":150000,"SoundDuration":150000,"Delta":207163498},{"NoteNumber":58,"Velocity":66,"Duration":126050,"SoundDuration":126050,"Delta":207463498},{"NoteNumber":62,"Velocity":66,"Duration":126050,"SoundDuration":126050,"Delta":207463498},{"NoteNumber":65,"Velocity":74,"Duration":126050,"SoundDuration":126050,"Delta":207463498},{"NoteNumber":55,"Velocity":67,"Duration":136363,"SoundDuration":136363,"Delta":207589549},{"NoteNumber":60,"Velocity":59,"Duration":141574,"SoundDuration":141574,"Delta":207725912},{"NoteNumber":70,"Velocity":66,"Duration":125522,"SoundDuration":125522,"Delta":208007674},{"NoteNumber":74,"Velocity":66,"Duration":125522,"SoundDuration":125522,"Delta":208007674},{"NoteNumber":77,"Velocity":74,"Duration":125522,"SoundDuration":125522,"Delta":208007674},{"NoteNumber":67,"Velocity":69,"Duration":135746,"SoundDuration":135746,"Delta":208133197},{"NoteNumber":72,"Velocity":60,"Duration":140186,"SoundDuration":140186,"Delta":208268944},{"NoteNumber":89,"Velocity":72,"Duration":125522,"SoundDuration":125522,"Delta":208549318},{"NoteNumber":86,"Velocity":66,"Duration":125522,"SoundDuration":125522,"Delta":208549318},{"NoteNumber":82,"Velocity":66,"Duration":125522,"SoundDuration":125522,"Delta":208549318},{"NoteNumber":79,"Velocity":68,"Duration":134529,"SoundDuration":134529,"Delta":208674841},{"NoteNumber":84,"Velocity":59,"Duration":147783,"SoundDuration":147783,"Delta":208809370},{"NoteNumber":79,"Velocity":72,"Duration":70754,"SoundDuration":70754,"Delta":209104937},{"NoteNumber":86,"Velocity":82,"Duration":70754,"SoundDuration":70754,"Delta":209104937},{"NoteNumber":82,"Velocity":72,"Duration":70754,"SoundDuration":70754,"Delta":209104937},{"NoteNumber":72,"Velocity":54,"Duration":70754,"SoundDuration":70754,"Delta":209104937},{"NoteNumber":77,"Velocity":62,"Duration":70754,"SoundDuration":70754,"Delta":209104937},{"NoteNumber":79,"Velocity":72,"Duration":70754,"SoundDuration":70754,"Delta":209246446},{"NoteNumber":86,"Velocity":82,"Duration":70754,"SoundDuration":70754,"Delta":209246446},{"NoteNumber":82,"Velocity":72,"Duration":70754,"SoundDuration":70754,"Delta":209246446},{"NoteNumber":72,"Velocity":54,"Duration":70754,"SoundDuration":70754,"Delta":209246446},{"NoteNumber":77,"Velocity":62,"Duration":70754,"SoundDuration":70754,"Delta":209246446},{"NoteNumber":79,"Velocity":78,"Duration":150000,"SoundDuration":150000,"Delta":209387956},{"NoteNumber":91,"Velocity":87,"Duration":150000,"SoundDuration":150000,"Delta":209387956},{"NoteNumber":82,"Velocity":78,"Duration":150000,"SoundDuration":150000,"Delta":209387956},{"NoteNumber":72,"Velocity":67,"Duration":150000,"SoundDuration":150000,"Delta":209387956},{"NoteNumber":77,"Velocity":67,"Duration":150000,"SoundDuration":150000,"Delta":209387956},{"NoteNumber":86,"Velocity":82,"Duration":72815,"SoundDuration":72815,"Delta":209687956},{"NoteNumber":82,"Velocity":72,"Duration":72815,"SoundDuration":72815,"Delta":209687956},{"NoteNumber":79,"Velocity":72,"Duration":72815,"SoundDuration":72815,"Delta":209687956},{"NoteNumber":72,"Velocity":54,"Duration":72815,"SoundDuration":72815,"Delta":209687956},{"NoteNumber":77,"Velocity":62,"Duration":72815,"SoundDuration":72815,"Delta":209687956},{"NoteNumber":82,"Velocity":72,"Duration":72815,"SoundDuration":72815,"Delta":209833587},{"NoteNumber":79,"Velocity":72,"Duration":72815,"SoundDuration":72815,"Delta":209833587},{"NoteNumber":86,"Velocity":82,"Duration":72815,"SoundDuration":72815,"Delta":209833587},{"NoteNumber":72,"Velocity":54,"Duration":72815,"SoundDuration":72815,"Delta":209833587},{"NoteNumber":77,"Velocity":62,"Duration":72815,"SoundDuration":72815,"Delta":209833587},{"NoteNumber":79,"Velocity":78,"Duration":150753,"SoundDuration":150753,"Delta":209979218},{"NoteNumber":82,"Velocity":78,"Duration":150753,"SoundDuration":150753,"Delta":209979218},{"NoteNumber":91,"Velocity":87,"Duration":150753,"SoundDuration":150753,"Delta":209979218},{"NoteNumber":72,"Velocity":67,"Duration":150753,"SoundDuration":150753,"Delta":209979218},{"NoteNumber":77,"Velocity":67,"Duration":150753,"SoundDuration":150753,"Delta":209979218},{"NoteNumber":79,"Velocity":75,"Duration":153846,"SoundDuration":153846,"Delta":210280725},{"NoteNumber":82,"Velocity":75,"Duration":153846,"SoundDuration":153846,"Delta":210280725},{"NoteNumber":84,"Velocity":84,"Duration":153846,"SoundDuration":153846,"Delta":210280725},{"NoteNumber":72,"Velocity":48,"Duration":153846,"SoundDuration":153846,"Delta":210280725},{"NoteNumber":76,"Velocity":56,"Duration":153846,"SoundDuration":153846,"Delta":210280725},{"NoteNumber":69,"Velocity":54,"Duration":223880,"SoundDuration":223880,"Delta":210588418},{"NoteNumber":77,"Velocity":54,"Duration":223880,"SoundDuration":223880,"Delta":210588418},{"NoteNumber":81,"Velocity":54,"Duration":223880,"SoundDuration":223880,"Delta":210588418},{"NoteNumber":53,"Velocity":35,"Duration":298507,"SoundDuration":298507,"Delta":210588418},{"NoteNumber":60,"Velocity":35,"Duration":298507,"SoundDuration":298507,"Delta":210588418},{"NoteNumber":65,"Velocity":35,"Duration":298507,"SoundDuration":298507,"Delta":210588418},{"NoteNumber":79,"Velocity":45,"Duration":74626,"SoundDuration":74626,"Delta":210737671},{"NoteNumber":81,"Velocity":45,"Duration":74626,"SoundDuration":74626,"Delta":210812298},{"NoteNumber":79,"Velocity":53,"Duration":149253,"SoundDuration":149253,"Delta":210886925},{"NoteNumber":53,"Velocity":32,"Duration":298507,"SoundDuration":298507,"Delta":210886925},{"NoteNumber":60,"Velocity":32,"Duration":298507,"SoundDuration":298507,"Delta":210886925},{"NoteNumber":65,"Velocity":32,"Duration":298507,"SoundDuration":298507,"Delta":210886925},{"NoteNumber":77,"Velocity":49,"Duration":149253,"SoundDuration":149253,"Delta":211036179},{"NoteNumber":69,"Velocity":46,"Duration":146341,"SoundDuration":146341,"Delta":211185433},{"NoteNumber":53,"Velocity":27,"Duration":305915,"SoundDuration":305915,"Delta":211185433},{"NoteNumber":60,"Velocity":27,"Duration":305915,"SoundDuration":305915,"Delta":211185433},{"NoteNumber":65,"Velocity":27,"Duration":305915,"SoundDuration":305915,"Delta":211185433},{"NoteNumber":77,"Velocity":46,"Duration":159574,"SoundDuration":159574,"Delta":211331774},{"NoteNumber":81,"Velocity":51,"Duration":150000,"SoundDuration":150000,"Delta":211491349},{"NoteNumber":53,"Velocity":35,"Duration":150000,"SoundDuration":150000,"Delta":211491349},{"NoteNumber":61,"Velocity":35,"Duration":150000,"SoundDuration":150000,"Delta":211491349},{"NoteNumber":65,"Velocity":35,"Duration":150000,"SoundDuration":150000,"Delta":211491349},{"NoteNumber":79,"Velocity":47,"Duration":150000,"SoundDuration":150000,"Delta":211641349},{"NoteNumber":77,"Velocity":53,"Duration":149999,"SoundDuration":149999,"Delta":211791349},{"NoteNumber":53,"Velocity":31,"Duration":149999,"SoundDuration":149999,"Delta":211791349},{"NoteNumber":61,"Velocity":31,"Duration":149999,"SoundDuration":149999,"Delta":211791349},{"NoteNumber":65,"Velocity":31,"Duration":149999,"SoundDuration":149999,"Delta":211791349},{"NoteNumber":69,"Velocity":45,"Duration":150000,"SoundDuration":150000,"Delta":211941349},{"NoteNumber":65,"Velocity":48,"Duration":148514,"SoundDuration":148514,"Delta":212091349},{"NoteNumber":53,"Velocity":28,"Duration":148514,"SoundDuration":148514,"Delta":212091349},{"NoteNumber":61,"Velocity":28,"Duration":148514,"SoundDuration":148514,"Delta":212091349},{"NoteNumber":69,"Velocity":44,"Duration":157068,"SoundDuration":157068,"Delta":212239863},{"NoteNumber":77,"Velocity":57,"Duration":223880,"SoundDuration":223880,"Delta":212396931},{"NoteNumber":81,"Velocity":57,"Duration":223880,"SoundDuration":223880,"Delta":212396931},{"NoteNumber":53,"Velocity":37,"Duration":298507,"SoundDuration":298507,"Delta":212396931},{"NoteNumber":62,"Velocity":37,"Duration":298507,"SoundDuration":298507,"Delta":212396931},{"NoteNumber":65,"Velocity":37,"Duration":298507,"SoundDuration":298507,"Delta":212396931},{"NoteNumber":79,"Velocity":51,"Duration":74626,"SoundDuration":74626,"Delta":212546185},{"NoteNumber":81,"Velocity":51,"Duration":74626,"SoundDuration":74626,"Delta":212620812},{"NoteNumber":79,"Velocity":57,"Duration":149253,"SoundDuration":149253,"Delta":212695439},{"NoteNumber":53,"Velocity":34,"Duration":298507,"SoundDuration":298507,"Delta":212695439},{"NoteNumber":62,"Velocity":34,"Duration":298507,"SoundDuration":298507,"Delta":212695439},{"NoteNumber":65,"Velocity":34,"Duration":298507,"SoundDuration":298507,"Delta":212695439},{"NoteNumber":77,"Velocity":55,"Duration":149253,"SoundDuration":149253,"Delta":212844693},{"NoteNumber":69,"Velocity":51,"Duration":146341,"SoundDuration":146341,"Delta":212993946},{"NoteNumber":53,"Velocity":30,"Duration":305915,"SoundDuration":305915,"Delta":212993946},{"NoteNumber":62,"Velocity":30,"Duration":305915,"SoundDuration":305915,"Delta":212993946},{"NoteNumber":65,"Velocity":30,"Duration":305915,"SoundDuration":305915,"Delta":212993946},{"NoteNumber":77,"Velocity":53,"Duration":159574,"SoundDuration":159574,"Delta":213140288},{"NoteNumber":81,"Velocity":60,"Duration":150000,"SoundDuration":150000,"Delta":213299862},{"NoteNumber":53,"Velocity":40,"Duration":150000,"SoundDuration":150000,"Delta":213299862},{"NoteNumber":61,"Velocity":40,"Duration":150000,"SoundDuration":150000,"Delta":213299862},{"NoteNumber":65,"Velocity":40,"Duration":150000,"SoundDuration":150000,"Delta":213299862},{"NoteNumber":79,"Velocity":56,"Duration":150000,"SoundDuration":150000,"Delta":213449862},{"NoteNumber":77,"Velocity":62,"Duration":149999,"SoundDuration":149999,"Delta":213599862},{"NoteNumber":53,"Velocity":36,"Duration":149999,"SoundDuration":149999,"Delta":213599862},{"NoteNumber":61,"Velocity":36,"Duration":149999,"SoundDuration":149999,"Delta":213599862},{"NoteNumber":65,"Velocity":36,"Duration":149999,"SoundDuration":149999,"Delta":213599862},{"NoteNumber":69,"Velocity":49,"Duration":150000,"SoundDuration":150000,"Delta":213749862},{"NoteNumber":65,"Velocity":57,"Duration":148514,"SoundDuration":148514,"Delta":213899862},{"NoteNumber":53,"Velocity":33,"Duration":148514,"SoundDuration":148514,"Delta":213899862},{"NoteNumber":61,"Velocity":33,"Duration":148514,"SoundDuration":148514,"Delta":213899862},{"NoteNumber":69,"Velocity":51,"Duration":157068,"SoundDuration":157068,"Delta":214048377},{"NoteNumber":69,"Velocity":66,"Duration":223880,"SoundDuration":223880,"Delta":214205445},{"NoteNumber":77,"Velocity":66,"Duration":223880,"SoundDuration":223880,"Delta":214205445},{"NoteNumber":81,"Velocity":66,"Duration":223880,"SoundDuration":223880,"Delta":214205445},{"NoteNumber":53,"Velocity":42,"Duration":298507,"SoundDuration":298507,"Delta":214205445},{"NoteNumber":60,"Velocity":42,"Duration":298507,"SoundDuration":298507,"Delta":214205445},{"NoteNumber":65,"Velocity":42,"Duration":298507,"SoundDuration":298507,"Delta":214205445},{"NoteNumber":79,"Velocity":58,"Duration":74626,"SoundDuration":74626,"Delta":214354699},{"NoteNumber":81,"Velocity":59,"Duration":74626,"SoundDuration":74626,"Delta":214429326},{"NoteNumber":79,"Velocity":67,"Duration":149253,"SoundDuration":149253,"Delta":214503953},{"NoteNumber":53,"Velocity":39,"Duration":298507,"SoundDuration":298507,"Delta":214503953},{"NoteNumber":60,"Velocity":39,"Duration":298507,"SoundDuration":298507,"Delta":214503953},{"NoteNumber":65,"Velocity":39,"Duration":298507,"SoundDuration":298507,"Delta":214503953},{"NoteNumber":77,"Velocity":64,"Duration":149253,"SoundDuration":149253,"Delta":214653206},{"NoteNumber":69,"Velocity":59,"Duration":146341,"SoundDuration":146341,"Delta":214802460},{"NoteNumber":53,"Velocity":34,"Duration":315832,"SoundDuration":315832,"Delta":214802460},{"NoteNumber":60,"Velocity":34,"Duration":315832,"SoundDuration":315832,"Delta":214802460},{"NoteNumber":65,"Velocity":34,"Duration":315832,"SoundDuration":315832,"Delta":214802460},{"NoteNumber":77,"Velocity":61,"Duration":169491,"SoundDuration":169491,"Delta":214948802},{"NoteNumber":74,"Velocity":70,"Duration":223880,"SoundDuration":223880,"Delta":215118293},{"NoteNumber":77,"Velocity":70,"Duration":223880,"SoundDuration":223880,"Delta":215118293},{"NoteNumber":81,"Velocity":70,"Duration":223880,"SoundDuration":223880,"Delta":215118293},{"NoteNumber":47,"Velocity":45,"Duration":298507,"SoundDuration":298507,"Delta":215118293},{"NoteNumber":79,"Velocity":61,"Duration":74626,"SoundDuration":74626,"Delta":215267547},{"NoteNumber":81,"Velocity":61,"Duration":74626,"SoundDuration":74626,"Delta":215342174},{"NoteNumber":79,"Velocity":71,"Duration":149253,"SoundDuration":149253,"Delta":215416801},{"NoteNumber":55,"Velocity":42,"Duration":604423,"SoundDuration":604423,"Delta":215416801},{"NoteNumber":59,"Velocity":42,"Duration":298507,"SoundDuration":298507,"Delta":215416801},{"NoteNumber":77,"Velocity":60,"Duration":149253,"SoundDuration":149253,"Delta":215566054},{"NoteNumber":69,"Velocity":63,"Duration":146341,"SoundDuration":146341,"Delta":215715308},{"NoteNumber":65,"Velocity":36,"Duration":305915,"SoundDuration":305915,"Delta":215715308},{"NoteNumber":67,"Velocity":58,"Duration":159574,"SoundDuration":159574,"Delta":215861650},{"NoteNumber":65,"Velocity":57,"Duration":303525,"SoundDuration":303525,"Delta":216021224},{"NoteNumber":69,"Velocity":57,"Duration":303525,"SoundDuration":303525,"Delta":216021224},{"NoteNumber":74,"Velocity":78,"Duration":145631,"SoundDuration":145631,"Delta":216021224},{"NoteNumber":36,"Velocity":63,"Duration":303525,"SoundDuration":303525,"Delta":216021224},{"NoteNumber":72,"Velocity":70,"Duration":157894,"SoundDuration":157894,"Delta":216166855},{"NoteNumber":69,"Velocity":61,"Duration":302591,"SoundDuration":302591,"Delta":216324750},{"NoteNumber":72,"Velocity":61,"Duration":302591,"SoundDuration":302591,"Delta":216324750},{"NoteNumber":79,"Velocity":82,"Duration":146341,"SoundDuration":146341,"Delta":216324750},{"NoteNumber":59,"Velocity":62,"Duration":146341,"SoundDuration":146341,"Delta":216324750},{"NoteNumber":77,"Velocity":75,"Duration":156250,"SoundDuration":156250,"Delta":216471091},{"NoteNumber":60,"Velocity":57,"Duration":156250,"SoundDuration":156250,"Delta":216471091},{"NoteNumber":77,"Velocity":63,"Duration":300187,"SoundDuration":300187,"Delta":216627341},{"NoteNumber":81,"Velocity":63,"Duration":300187,"SoundDuration":300187,"Delta":216627341},{"NoteNumber":86,"Velocity":85,"Duration":146341,"SoundDuration":146341,"Delta":216627341},{"NoteNumber":57,"Velocity":64,"Duration":146341,"SoundDuration":146341,"Delta":216627341},{"NoteNumber":84,"Velocity":75,"Duration":153846,"SoundDuration":153846,"Delta":216773683},{"NoteNumber":53,"Velocity":57,"Duration":153846,"SoundDuration":153846,"Delta":216773683},{"NoteNumber":76,"Velocity":75,"Duration":306250,"SoundDuration":306250,"Delta":216927529},{"NoteNumber":82,"Velocity":75,"Duration":306250,"SoundDuration":306250,"Delta":216927529},{"NoteNumber":86,"Velocity":100,"Duration":150000,"SoundDuration":150000,"Delta":216927529},{"NoteNumber":36,"Velocity":82,"Duration":150000,"SoundDuration":150000,"Delta":216927529},{"NoteNumber":84,"Velocity":83,"Duration":156250,"SoundDuration":156250,"Delta":217077529},{"NoteNumber":94,"Velocity":74,"Duration":311290,"SoundDuration":311290,"Delta":217233779},{"NoteNumber":88,"Velocity":74,"Duration":311290,"SoundDuration":311290,"Delta":217233779},{"NoteNumber":98,"Velocity":99,"Duration":150000,"SoundDuration":150000,"Delta":217233779},{"NoteNumber":72,"Velocity":78,"Duration":150000,"SoundDuration":150000,"Delta":217233779},{"NoteNumber":96,"Velocity":80,"Duration":161290,"SoundDuration":161290,"Delta":217383779},{"NoteNumber":82,"Velocity":74,"Duration":348790,"SoundDuration":348790,"Delta":217545069},{"NoteNumber":76,"Velocity":74,"Duration":348790,"SoundDuration":348790,"Delta":217545069},{"NoteNumber":86,"Velocity":99,"Duration":161290,"SoundDuration":161290,"Delta":217545069},{"NoteNumber":60,"Velocity":79,"Duration":161290,"SoundDuration":161290,"Delta":217545069},{"NoteNumber":84,"Velocity":79,"Duration":187500,"SoundDuration":187500,"Delta":217706360},{"NoteNumber":69,"Velocity":54,"Duration":223880,"SoundDuration":223880,"Delta":217893860},{"NoteNumber":77,"Velocity":54,"Duration":223880,"SoundDuration":223880,"Delta":217893860},{"NoteNumber":81,"Velocity":54,"Duration":223880,"SoundDuration":223880,"Delta":217893860},{"NoteNumber":53,"Velocity":35,"Duration":298507,"SoundDuration":298507,"Delta":217893860},{"NoteNumber":60,"Velocity":35,"Duration":298507,"SoundDuration":298507,"Delta":217893860},{"NoteNumber":65,"Velocity":35,"Duration":298507,"SoundDuration":298507,"Delta":217893860},{"NoteNumber":79,"Velocity":48,"Duration":74626,"SoundDuration":74626,"Delta":218043113},{"NoteNumber":81,"Velocity":48,"Duration":74626,"SoundDuration":74626,"Delta":218117740},{"NoteNumber":79,"Velocity":53,"Duration":149253,"SoundDuration":149253,"Delta":218192367},{"NoteNumber":53,"Velocity":32,"Duration":298507,"SoundDuration":298507,"Delta":218192367},{"NoteNumber":60,"Velocity":32,"Duration":298507,"SoundDuration":298507,"Delta":218192367},{"NoteNumber":65,"Velocity":32,"Duration":298507,"SoundDuration":298507,"Delta":218192367},{"NoteNumber":77,"Velocity":49,"Duration":149253,"SoundDuration":149253,"Delta":218341621},{"NoteNumber":69,"Velocity":46,"Duration":146341,"SoundDuration":146341,"Delta":218490875},{"NoteNumber":53,"Velocity":27,"Duration":305915,"SoundDuration":305915,"Delta":218490875},{"NoteNumber":60,"Velocity":27,"Duration":305915,"SoundDuration":305915,"Delta":218490875},{"NoteNumber":65,"Velocity":27,"Duration":305915,"SoundDuration":305915,"Delta":218490875},{"NoteNumber":77,"Velocity":46,"Duration":159574,"SoundDuration":159574,"Delta":218637216},{"NoteNumber":81,"Velocity":51,"Duration":150000,"SoundDuration":150000,"Delta":218796791},{"NoteNumber":53,"Velocity":35,"Duration":150000,"SoundDuration":150000,"Delta":218796791},{"NoteNumber":61,"Velocity":35,"Duration":150000,"SoundDuration":150000,"Delta":218796791},{"NoteNumber":65,"Velocity":35,"Duration":150000,"SoundDuration":150000,"Delta":218796791},{"NoteNumber":79,"Velocity":47,"Duration":150000,"SoundDuration":150000,"Delta":218946791},{"NoteNumber":77,"Velocity":53,"Duration":149999,"SoundDuration":149999,"Delta":219096791},{"NoteNumber":53,"Velocity":31,"Duration":149999,"SoundDuration":149999,"Delta":219096791},{"NoteNumber":61,"Velocity":31,"Duration":149999,"SoundDuration":149999,"Delta":219096791},{"NoteNumber":65,"Velocity":31,"Duration":149999,"SoundDuration":149999,"Delta":219096791},{"NoteNumber":69,"Velocity":45,"Duration":150000,"SoundDuration":150000,"Delta":219246791},{"NoteNumber":65,"Velocity":48,"Duration":148514,"SoundDuration":148514,"Delta":219396791},{"NoteNumber":53,"Velocity":28,"Duration":148514,"SoundDuration":148514,"Delta":219396791},{"NoteNumber":61,"Velocity":28,"Duration":148514,"SoundDuration":148514,"Delta":219396791},{"NoteNumber":69,"Velocity":43,"Duration":157068,"SoundDuration":157068,"Delta":219545305},{"NoteNumber":77,"Velocity":57,"Duration":223880,"SoundDuration":223880,"Delta":219702373},{"NoteNumber":81,"Velocity":57,"Duration":223880,"SoundDuration":223880,"Delta":219702373},{"NoteNumber":53,"Velocity":37,"Duration":298507,"SoundDuration":298507,"Delta":219702373},{"NoteNumber":62,"Velocity":37,"Duration":298507,"SoundDuration":298507,"Delta":219702373},{"NoteNumber":65,"Velocity":37,"Duration":298507,"SoundDuration":298507,"Delta":219702373},{"NoteNumber":79,"Velocity":51,"Duration":74626,"SoundDuration":74626,"Delta":219851627},{"NoteNumber":81,"Velocity":51,"Duration":74626,"SoundDuration":74626,"Delta":219926254},{"NoteNumber":79,"Velocity":57,"Duration":149253,"SoundDuration":149253,"Delta":220000881},{"NoteNumber":53,"Velocity":34,"Duration":298507,"SoundDuration":298507,"Delta":220000881},{"NoteNumber":62,"Velocity":34,"Duration":298507,"SoundDuration":298507,"Delta":220000881},{"NoteNumber":65,"Velocity":34,"Duration":298507,"SoundDuration":298507,"Delta":220000881},{"NoteNumber":77,"Velocity":55,"Duration":149253,"SoundDuration":149253,"Delta":220150135},{"NoteNumber":69,"Velocity":51,"Duration":146341,"SoundDuration":146341,"Delta":220299388},{"NoteNumber":53,"Velocity":30,"Duration":305915,"SoundDuration":305915,"Delta":220299388},{"NoteNumber":62,"Velocity":30,"Duration":305915,"SoundDuration":305915,"Delta":220299388},{"NoteNumber":65,"Velocity":30,"Duration":305915,"SoundDuration":305915,"Delta":220299388},{"NoteNumber":77,"Velocity":53,"Duration":159574,"SoundDuration":159574,"Delta":220445730},{"NoteNumber":81,"Velocity":60,"Duration":150000,"SoundDuration":150000,"Delta":220605304},{"NoteNumber":53,"Velocity":40,"Duration":150000,"SoundDuration":150000,"Delta":220605304},{"NoteNumber":61,"Velocity":40,"Duration":150000,"SoundDuration":150000,"Delta":220605304},{"NoteNumber":65,"Velocity":40,"Duration":150000,"SoundDuration":150000,"Delta":220605304},{"NoteNumber":79,"Velocity":56,"Duration":150000,"SoundDuration":150000,"Delta":220755304},{"NoteNumber":77,"Velocity":62,"Duration":149999,"SoundDuration":149999,"Delta":220905304},{"NoteNumber":53,"Velocity":36,"Duration":149999,"SoundDuration":149999,"Delta":220905304},{"NoteNumber":61,"Velocity":36,"Duration":149999,"SoundDuration":149999,"Delta":220905304},{"NoteNumber":65,"Velocity":36,"Duration":149999,"SoundDuration":149999,"Delta":220905304},{"NoteNumber":69,"Velocity":52,"Duration":150000,"SoundDuration":150000,"Delta":221055304},{"NoteNumber":65,"Velocity":57,"Duration":148514,"SoundDuration":148514,"Delta":221205304},{"NoteNumber":53,"Velocity":33,"Duration":148514,"SoundDuration":148514,"Delta":221205304},{"NoteNumber":61,"Velocity":33,"Duration":148514,"SoundDuration":148514,"Delta":221205304},{"NoteNumber":69,"Velocity":50,"Duration":157068,"SoundDuration":157068,"Delta":221353819},{"NoteNumber":69,"Velocity":66,"Duration":223880,"SoundDuration":223880,"Delta":221510887},{"NoteNumber":77,"Velocity":66,"Duration":223880,"SoundDuration":223880,"Delta":221510887},{"NoteNumber":81,"Velocity":66,"Duration":223880,"SoundDuration":223880,"Delta":221510887},{"NoteNumber":53,"Velocity":42,"Duration":298507,"SoundDuration":298507,"Delta":221510887},{"NoteNumber":60,"Velocity":42,"Duration":298507,"SoundDuration":298507,"Delta":221510887},{"NoteNumber":65,"Velocity":42,"Duration":298507,"SoundDuration":298507,"Delta":221510887},{"NoteNumber":79,"Velocity":58,"Duration":74626,"SoundDuration":74626,"Delta":221660141},{"NoteNumber":81,"Velocity":56,"Duration":74626,"SoundDuration":74626,"Delta":221734768},{"NoteNumber":79,"Velocity":67,"Duration":149253,"SoundDuration":149253,"Delta":221809395},{"NoteNumber":53,"Velocity":39,"Duration":298507,"SoundDuration":298507,"Delta":221809395},{"NoteNumber":60,"Velocity":39,"Duration":298507,"SoundDuration":298507,"Delta":221809395},{"NoteNumber":65,"Velocity":39,"Duration":298507,"SoundDuration":298507,"Delta":221809395},{"NoteNumber":77,"Velocity":64,"Duration":149253,"SoundDuration":149253,"Delta":221958648},{"NoteNumber":69,"Velocity":59,"Duration":146341,"SoundDuration":146341,"Delta":222107902},{"NoteNumber":53,"Velocity":34,"Duration":315832,"SoundDuration":315832,"Delta":222107902},{"NoteNumber":60,"Velocity":34,"Duration":315832,"SoundDuration":315832,"Delta":222107902},{"NoteNumber":65,"Velocity":34,"Duration":315832,"SoundDuration":315832,"Delta":222107902},{"NoteNumber":77,"Velocity":61,"Duration":169491,"SoundDuration":169491,"Delta":222254244},{"NoteNumber":74,"Velocity":70,"Duration":223880,"SoundDuration":223880,"Delta":222423735},{"NoteNumber":77,"Velocity":70,"Duration":223880,"SoundDuration":223880,"Delta":222423735},{"NoteNumber":81,"Velocity":70,"Duration":223880,"SoundDuration":223880,"Delta":222423735},{"NoteNumber":47,"Velocity":45,"Duration":298507,"SoundDuration":298507,"Delta":222423735},{"NoteNumber":79,"Velocity":63,"Duration":74626,"SoundDuration":74626,"Delta":222572989},{"NoteNumber":81,"Velocity":63,"Duration":74626,"SoundDuration":74626,"Delta":222647616},{"NoteNumber":79,"Velocity":71,"Duration":149253,"SoundDuration":149253,"Delta":222722243},{"NoteNumber":55,"Velocity":42,"Duration":604423,"SoundDuration":604423,"Delta":222722243},{"NoteNumber":59,"Velocity":42,"Duration":298507,"SoundDuration":298507,"Delta":222722243},{"NoteNumber":77,"Velocity":63,"Duration":149253,"SoundDuration":149253,"Delta":222871496},{"NoteNumber":69,"Velocity":63,"Duration":146341,"SoundDuration":146341,"Delta":223020750},{"NoteNumber":65,"Velocity":36,"Duration":305915,"SoundDuration":305915,"Delta":223020750},{"NoteNumber":67,"Velocity":57,"Duration":159574,"SoundDuration":159574,"Delta":223167092},{"NoteNumber":65,"Velocity":57,"Duration":303525,"SoundDuration":303525,"Delta":223326666},{"NoteNumber":69,"Velocity":57,"Duration":303525,"SoundDuration":303525,"Delta":223326666},{"NoteNumber":74,"Velocity":78,"Duration":145631,"SoundDuration":145631,"Delta":223326666},{"NoteNumber":36,"Velocity":63,"Duration":303525,"SoundDuration":303525,"Delta":223326666},{"NoteNumber":72,"Velocity":69,"Duration":157894,"SoundDuration":157894,"Delta":223472297},{"NoteNumber":69,"Velocity":61,"Duration":302591,"SoundDuration":302591,"Delta":223630192},{"NoteNumber":72,"Velocity":61,"Duration":302591,"SoundDuration":302591,"Delta":223630192},{"NoteNumber":79,"Velocity":82,"Duration":146341,"SoundDuration":146341,"Delta":223630192},{"NoteNumber":59,"Velocity":62,"Duration":146341,"SoundDuration":146341,"Delta":223630192},{"NoteNumber":77,"Velocity":73,"Duration":156250,"SoundDuration":156250,"Delta":223776533},{"NoteNumber":60,"Velocity":57,"Duration":156250,"SoundDuration":156250,"Delta":223776533},{"NoteNumber":77,"Velocity":63,"Duration":300187,"SoundDuration":300187,"Delta":223932783},{"NoteNumber":81,"Velocity":63,"Duration":300187,"SoundDuration":300187,"Delta":223932783},{"NoteNumber":86,"Velocity":85,"Duration":146341,"SoundDuration":146341,"Delta":223932783},{"NoteNumber":57,"Velocity":64,"Duration":146341,"SoundDuration":146341,"Delta":223932783},{"NoteNumber":84,"Velocity":76,"Duration":153846,"SoundDuration":153846,"Delta":224079125},{"NoteNumber":53,"Velocity":57,"Duration":153846,"SoundDuration":153846,"Delta":224079125},{"NoteNumber":76,"Velocity":75,"Duration":306250,"SoundDuration":306250,"Delta":224232971},{"NoteNumber":82,"Velocity":75,"Duration":306250,"SoundDuration":306250,"Delta":224232971},{"NoteNumber":86,"Velocity":100,"Duration":150000,"SoundDuration":150000,"Delta":224232971},{"NoteNumber":36,"Velocity":82,"Duration":150000,"SoundDuration":150000,"Delta":224232971},{"NoteNumber":84,"Velocity":77,"Duration":156250,"SoundDuration":156250,"Delta":224382971},{"NoteNumber":94,"Velocity":74,"Duration":311290,"SoundDuration":311290,"Delta":224539221},{"NoteNumber":88,"Velocity":74,"Duration":311290,"SoundDuration":311290,"Delta":224539221},{"NoteNumber":98,"Velocity":99,"Duration":150000,"SoundDuration":150000,"Delta":224539221},{"NoteNumber":72,"Velocity":78,"Duration":150000,"SoundDuration":150000,"Delta":224539221},{"NoteNumber":96,"Velocity":80,"Duration":161290,"SoundDuration":161290,"Delta":224689221},{"NoteNumber":82,"Velocity":74,"Duration":347625,"SoundDuration":347625,"Delta":224850511},{"NoteNumber":76,"Velocity":74,"Duration":347625,"SoundDuration":347625,"Delta":224850511},{"NoteNumber":86,"Velocity":99,"Duration":161290,"SoundDuration":161290,"Delta":224850511},{"NoteNumber":60,"Velocity":79,"Duration":161290,"SoundDuration":161290,"Delta":224850511},{"NoteNumber":84,"Velocity":76,"Duration":186335,"SoundDuration":186335,"Delta":225011802},{"NoteNumber":41,"Velocity":107,"Duration":140699,"SoundDuration":140699,"Delta":225198137},{"NoteNumber":56,"Velocity":60,"Duration":118915,"SoundDuration":118915,"Delta":225479537},{"NoteNumber":61,"Velocity":73,"Duration":118915,"SoundDuration":118915,"Delta":225479537},{"NoteNumber":65,"Velocity":80,"Duration":118915,"SoundDuration":118915,"Delta":225479537},{"NoteNumber":53,"Velocity":71,"Duration":129198,"SoundDuration":129198,"Delta":225598452},{"NoteNumber":59,"Velocity":70,"Duration":131004,"SoundDuration":131004,"Delta":225727651},{"NoteNumber":68,"Velocity":73,"Duration":118915,"SoundDuration":118915,"Delta":225989660},{"NoteNumber":73,"Velocity":73,"Duration":118915,"SoundDuration":118915,"Delta":225989660},{"NoteNumber":77,"Velocity":80,"Duration":118915,"SoundDuration":118915,"Delta":225989660},{"NoteNumber":65,"Velocity":71,"Duration":129198,"SoundDuration":129198,"Delta":226108575},{"NoteNumber":71,"Velocity":70,"Duration":131004,"SoundDuration":131004,"Delta":226237774},{"NoteNumber":89,"Velocity":79,"Duration":118915,"SoundDuration":118915,"Delta":226499783},{"NoteNumber":85,"Velocity":72,"Duration":118915,"SoundDuration":118915,"Delta":226499783},{"NoteNumber":80,"Velocity":72,"Duration":118915,"SoundDuration":118915,"Delta":226499783},{"NoteNumber":77,"Velocity":72,"Duration":129198,"SoundDuration":129198,"Delta":226618698},{"NoteNumber":83,"Velocity":69,"Duration":140003,"SoundDuration":140003,"Delta":226747897},{"NoteNumber":89,"Velocity":81,"Duration":64890,"SoundDuration":64890,"Delta":227027905},{"NoteNumber":83,"Velocity":71,"Duration":64890,"SoundDuration":64890,"Delta":227027905},{"NoteNumber":65,"Velocity":54,"Duration":64890,"SoundDuration":64890,"Delta":227027905},{"NoteNumber":73,"Velocity":60,"Duration":64890,"SoundDuration":64890,"Delta":227027905},{"NoteNumber":89,"Velocity":81,"Duration":64890,"SoundDuration":64890,"Delta":227157685},{"NoteNumber":83,"Velocity":71,"Duration":64890,"SoundDuration":64890,"Delta":227157685},{"NoteNumber":65,"Velocity":54,"Duration":64890,"SoundDuration":64890,"Delta":227157685},{"NoteNumber":73,"Velocity":60,"Duration":64890,"SoundDuration":64890,"Delta":227157685},{"NoteNumber":95,"Velocity":85,"Duration":133440,"SoundDuration":133440,"Delta":227287465},{"NoteNumber":89,"Velocity":76,"Duration":133440,"SoundDuration":133440,"Delta":227287465},{"NoteNumber":73,"Velocity":65,"Duration":133440,"SoundDuration":133440,"Delta":227287465},{"NoteNumber":79,"Velocity":65,"Duration":133440,"SoundDuration":133440,"Delta":227287465},{"NoteNumber":89,"Velocity":82,"Duration":136637,"SoundDuration":136637,"Delta":227554345},{"NoteNumber":83,"Velocity":73,"Duration":136637,"SoundDuration":136637,"Delta":227554345},{"NoteNumber":65,"Velocity":47,"Duration":136637,"SoundDuration":136637,"Delta":227554345},{"NoteNumber":73,"Velocity":55,"Duration":136637,"SoundDuration":136637,"Delta":227554345},{"NoteNumber":95,"Velocity":85,"Duration":136637,"SoundDuration":136637,"Delta":227827619},{"NoteNumber":89,"Velocity":76,"Duration":136637,"SoundDuration":136637,"Delta":227827619},{"NoteNumber":73,"Velocity":56,"Duration":136637,"SoundDuration":136637,"Delta":227827619},{"NoteNumber":79,"Velocity":56,"Duration":136637,"SoundDuration":136637,"Delta":227827619},{"NoteNumber":89,"Velocity":82,"Duration":136637,"SoundDuration":136637,"Delta":228100893},{"NoteNumber":83,"Velocity":73,"Duration":136637,"SoundDuration":136637,"Delta":228100893},{"NoteNumber":65,"Velocity":47,"Duration":136637,"SoundDuration":136637,"Delta":228100893},{"NoteNumber":73,"Velocity":55,"Duration":136637,"SoundDuration":136637,"Delta":228100893},{"NoteNumber":41,"Velocity":107,"Duration":140699,"SoundDuration":140699,"Delta":228374167},{"NoteNumber":56,"Velocity":60,"Duration":118915,"SoundDuration":118915,"Delta":228655567},{"NoteNumber":61,"Velocity":73,"Duration":118915,"SoundDuration":118915,"Delta":228655567},{"NoteNumber":65,"Velocity":80,"Duration":118915,"SoundDuration":118915,"Delta":228655567},{"NoteNumber":53,"Velocity":71,"Duration":129198,"SoundDuration":129198,"Delta":228774482},{"NoteNumber":59,"Velocity":68,"Duration":132158,"SoundDuration":132158,"Delta":228903681},{"NoteNumber":68,"Velocity":73,"Duration":118427,"SoundDuration":118427,"Delta":229167998},{"NoteNumber":73,"Velocity":73,"Duration":118427,"SoundDuration":118427,"Delta":229167998},{"NoteNumber":77,"Velocity":80,"Duration":118427,"SoundDuration":118427,"Delta":229167998},{"NoteNumber":65,"Velocity":71,"Duration":129198,"SoundDuration":129198,"Delta":229286425},{"NoteNumber":71,"Velocity":68,"Duration":131004,"SoundDuration":131004,"Delta":229415624},{"NoteNumber":89,"Velocity":80,"Duration":118427,"SoundDuration":118427,"Delta":229677633},{"NoteNumber":85,"Velocity":73,"Duration":118427,"SoundDuration":118427,"Delta":229677633},{"NoteNumber":80,"Velocity":73,"Duration":118427,"SoundDuration":118427,"Delta":229677633},{"NoteNumber":77,"Velocity":73,"Duration":129198,"SoundDuration":129198,"Delta":229796060},{"NoteNumber":83,"Velocity":69,"Duration":140003,"SoundDuration":140003,"Delta":229925259},{"NoteNumber":89,"Velocity":90,"Duration":64890,"SoundDuration":64890,"Delta":230205267},{"NoteNumber":83,"Velocity":79,"Duration":64890,"SoundDuration":64890,"Delta":230205267},{"NoteNumber":65,"Velocity":60,"Duration":64890,"SoundDuration":64890,"Delta":230205267},{"NoteNumber":73,"Velocity":67,"Duration":64890,"SoundDuration":64890,"Delta":230205267},{"NoteNumber":89,"Velocity":81,"Duration":64890,"SoundDuration":64890,"Delta":230335047},{"NoteNumber":83,"Velocity":71,"Duration":64890,"SoundDuration":64890,"Delta":230335047},{"NoteNumber":65,"Velocity":54,"Duration":64890,"SoundDuration":64890,"Delta":230335047},{"NoteNumber":73,"Velocity":60,"Duration":64890,"SoundDuration":64890,"Delta":230335047},{"NoteNumber":95,"Velocity":85,"Duration":133440,"SoundDuration":133440,"Delta":230464827},{"NoteNumber":89,"Velocity":76,"Duration":133440,"SoundDuration":133440,"Delta":230464827},{"NoteNumber":73,"Velocity":65,"Duration":133440,"SoundDuration":133440,"Delta":230464827},{"NoteNumber":79,"Velocity":65,"Duration":133440,"SoundDuration":133440,"Delta":230464827},{"NoteNumber":89,"Velocity":82,"Duration":136637,"SoundDuration":136637,"Delta":230731707},{"NoteNumber":83,"Velocity":73,"Duration":136637,"SoundDuration":136637,"Delta":230731707},{"NoteNumber":65,"Velocity":47,"Duration":136637,"SoundDuration":136637,"Delta":230731707},{"NoteNumber":73,"Velocity":55,"Duration":136637,"SoundDuration":136637,"Delta":230731707},{"NoteNumber":95,"Velocity":85,"Duration":136637,"SoundDuration":136637,"Delta":231004981},{"NoteNumber":89,"Velocity":76,"Duration":136637,"SoundDuration":136637,"Delta":231004981},{"NoteNumber":73,"Velocity":56,"Duration":136637,"SoundDuration":136637,"Delta":231004981},{"NoteNumber":79,"Velocity":56,"Duration":136637,"SoundDuration":136637,"Delta":231004981},{"NoteNumber":89,"Velocity":82,"Duration":136637,"SoundDuration":136637,"Delta":231278255},{"NoteNumber":83,"Velocity":73,"Duration":136637,"SoundDuration":136637,"Delta":231278255},{"NoteNumber":65,"Velocity":47,"Duration":136637,"SoundDuration":136637,"Delta":231278255},{"NoteNumber":73,"Velocity":55,"Duration":136637,"SoundDuration":136637,"Delta":231278255},{"NoteNumber":89,"Velocity":76,"Duration":68649,"SoundDuration":68649,"Delta":231551529},{"NoteNumber":96,"Velocity":78,"Duration":68649,"SoundDuration":68649,"Delta":231551529},{"NoteNumber":101,"Velocity":90,"Duration":68649,"SoundDuration":68649,"Delta":231551529},{"NoteNumber":41,"Velocity":69,"Duration":137299,"SoundDuration":137299,"Delta":231551529},{"NoteNumber":48,"Velocity":69,"Duration":137299,"SoundDuration":137299,"Delta":231551529},{"NoteNumber":57,"Velocity":69,"Duration":137299,"SoundDuration":137299,"Delta":231551529},{"NoteNumber":91,"Velocity":69,"Duration":63667,"SoundDuration":63667,"Delta":231688829},{"NoteNumber":93,"Velocity":70,"Duration":63667,"SoundDuration":63667,"Delta":231752496},{"NoteNumber":91,"Velocity":75,"Duration":122619,"SoundDuration":122619,"Delta":231816163},{"NoteNumber":89,"Velocity":68,"Duration":126742,"SoundDuration":126742,"Delta":231938783},{"NoteNumber":86,"Velocity":72,"Duration":126742,"SoundDuration":126742,"Delta":232065525},{"NoteNumber":84,"Velocity":63,"Duration":130502,"SoundDuration":130502,"Delta":232192268},{"NoteNumber":81,"Velocity":68,"Duration":264634,"SoundDuration":264634,"Delta":232322771},{"NoteNumber":79,"Velocity":62,"Duration":63667,"SoundDuration":63667,"Delta":232460071},{"NoteNumber":81,"Velocity":63,"Duration":63667,"SoundDuration":63667,"Delta":232523738},{"NoteNumber":79,"Velocity":69,"Duration":122619,"SoundDuration":122619,"Delta":232587405},{"NoteNumber":77,"Velocity":68,"Duration":126742,"SoundDuration":126742,"Delta":232710024},{"NoteNumber":74,"Velocity":72,"Duration":126742,"SoundDuration":126742,"Delta":232836767},{"NoteNumber":72,"Velocity":63,"Duration":130502,"SoundDuration":130502,"Delta":232963510},{"NoteNumber":69,"Velocity":68,"Duration":264634,"SoundDuration":264634,"Delta":233094013},{"NoteNumber":67,"Velocity":62,"Duration":63667,"SoundDuration":63667,"Delta":233231312},{"NoteNumber":69,"Velocity":63,"Duration":63667,"SoundDuration":63667,"Delta":233294980},{"NoteNumber":67,"Velocity":69,"Duration":122619,"SoundDuration":122619,"Delta":233358647},{"NoteNumber":65,"Velocity":68,"Duration":126742,"SoundDuration":126742,"Delta":233481266},{"NoteNumber":62,"Velocity":72,"Duration":126742,"SoundDuration":126742,"Delta":233608009},{"NoteNumber":60,"Velocity":63,"Duration":130502,"SoundDuration":130502,"Delta":233734752},{"NoteNumber":57,"Velocity":68,"Duration":137299,"SoundDuration":137299,"Delta":233865254},{"NoteNumber":55,"Velocity":63,"Duration":65570,"SoundDuration":65570,"Delta":234002554},{"NoteNumber":57,"Velocity":63,"Duration":65570,"SoundDuration":65570,"Delta":234068125},{"NoteNumber":55,"Velocity":70,"Duration":134504,"SoundDuration":134504,"Delta":234133696},{"NoteNumber":53,"Velocity":67,"Duration":138007,"SoundDuration":138007,"Delta":234268201},{"NoteNumber":48,"Velocity":73,"Duration":148104,"SoundDuration":148104,"Delta":234406208},{"NoteNumber":45,"Velocity":63,"Duration":164780,"SoundDuration":164780,"Delta":234554312},{"NoteNumber":41,"Velocity":76,"Duration":825045,"SoundDuration":825045,"Delta":234719093},{"NoteNumber":46,"Velocity":57,"Duration":878487,"SoundDuration":878487,"Delta":235462463},{"NoteNumber":53,"Velocity":57,"Duration":864874,"SoundDuration":864874,"Delta":235476076},{"NoteNumber":61,"Velocity":57,"Duration":851262,"SoundDuration":851262,"Delta":235489688},{"NoteNumber":65,"Velocity":68,"Duration":837649,"SoundDuration":837649,"Delta":235503301},{"NoteNumber":70,"Velocity":74,"Duration":824037,"SoundDuration":824037,"Delta":235516913},{"NoteNumber":73,"Velocity":79,"Duration":810424,"SoundDuration":810424,"Delta":235530526},{"NoteNumber":77,"Velocity":87,"Duration":796811,"SoundDuration":796811,"Delta":235544138},{"NoteNumber":89,"Velocity":101,"Duration":819821,"SoundDuration":819821,"Delta":236340950},{"NoteNumber":84,"Velocity":85,"Duration":819821,"SoundDuration":819821,"Delta":236340950},{"NoteNumber":81,"Velocity":85,"Duration":819821,"SoundDuration":819821,"Delta":236340950},{"NoteNumber":77,"Velocity":85,"Duration":819821,"SoundDuration":819821,"Delta":236340950},{"NoteNumber":41,"Velocity":71,"Duration":819821,"SoundDuration":819821,"Delta":236340950},{"NoteNumber":48,"Velocity":71,"Duration":819821,"SoundDuration":819821,"Delta":236340950},{"NoteNumber":57,"Velocity":84,"Duration":819821,"SoundDuration":819821,"Delta":236340950},{"NoteNumber":93,"Velocity":107,"Duration":136637,"SoundDuration":136637,"Delta":237434046},{"NoteNumber":89,"Velocity":107,"Duration":136637,"SoundDuration":136637,"Delta":237434046},{"NoteNumber":84,"Velocity":91,"Duration":136637,"SoundDuration":136637,"Delta":237434046},{"NoteNumber":81,"Velocity":91,"Duration":136637,"SoundDuration":136637,"Delta":237434046},{"NoteNumber":65,"Velocity":74,"Duration":136637,"SoundDuration":136637,"Delta":237434046},{"NoteNumber":72,"Velocity":74,"Duration":136637,"SoundDuration":136637,"Delta":237434046},{"NoteNumber":77,"Velocity":74,"Duration":136637,"SoundDuration":136637,"Delta":237434046},{"NoteNumber":53,"Velocity":107,"Duration":473783,"SoundDuration":473783,"Delta":237707320},{"NoteNumber":29,"Velocity":74,"Duration":473783,"SoundDuration":473783,"Delta":237707320},{"NoteNumber":41,"Velocity":88,"Duration":473783,"SoundDuration":473783,"Delta":237707320}],"license":{"name":"Creative Commons Attribution-ShareAlike 3.0 Germany","url":"http://creativecommons.org/licenses/by-sa/3.0/de/deed.en","text":"The MIDI, audio (MP3, OGG) and video files of Bernd Krueger are licensed under the cc-by-sa Germany License. This means that you can use and adapt the files, as long as you attribute the copyright holder.\n\nName: Bernd Krueger\nSource: http://www.piano-midi.de\n\nThe distribution or public playback of the files is only allowed under identical license conditions.\n\nThe scores are open source.","attribution":"MIDI files by Bernd Krueger (piano-midi.de)"}}