{"title":"Cadiz","artist":"Piano","durationMs":217855,"midiSha256":"1a3cccb756c777b5371063aba0eb0f95a8be8e5bbf8cf6fd0a9e349a6e0a6792","midiObject":[{"NoteNumber":49,"Velocity":34,"Duration":1172377,"SoundDuration":1172377,"Delta":0},{"NoteNumber":68,"Velocity":39,"Duration":94488,"SoundDuration":94488,"Delta":309501},{"NoteNumber":65,"Velocity":39,"Duration":96909,"SoundDuration":96909,"Delta":384833},{"NoteNumber":61,"Velocity":39,"Duration":107318,"SoundDuration":107318,"Delta":462058},{"NoteNumber":56,"Velocity":44,"Duration":167691,"SoundDuration":167691,"Delta":541428},{"NoteNumber":56,"Velocity":33,"Duration":597353,"SoundDuration":597353,"Delta":876811},{"NoteNumber":68,"Velocity":40,"Duration":597353,"SoundDuration":597353,"Delta":876811},{"NoteNumber":61,"Velocity":33,"Duration":597353,"SoundDuration":597353,"Delta":876811},{"NoteNumber":65,"Velocity":39,"Duration":597353,"SoundDuration":597353,"Delta":876811},{"NoteNumber":44,"Velocity":34,"Duration":301786,"SoundDuration":301786,"Delta":1172377},{"NoteNumber":56,"Velocity":36,"Duration":328155,"SoundDuration":328155,"Delta":1474164},{"NoteNumber":59,"Velocity":36,"Duration":328155,"SoundDuration":328155,"Delta":1474164},{"NoteNumber":68,"Velocity":43,"Duration":328155,"SoundDuration":328155,"Delta":1474164},{"NoteNumber":65,"Velocity":43,"Duration":328155,"SoundDuration":328155,"Delta":1474164},{"NoteNumber":50,"Velocity":39,"Duration":328155,"SoundDuration":328155,"Delta":1474164},{"NoteNumber":51,"Velocity":49,"Duration":1168474,"SoundDuration":1168474,"Delta":1802320},{"NoteNumber":68,"Velocity":39,"Duration":95716,"SoundDuration":95716,"Delta":2111821},{"NoteNumber":66,"Velocity":39,"Duration":97816,"SoundDuration":97816,"Delta":2188158},{"NoteNumber":60,"Velocity":39,"Duration":107639,"SoundDuration":107639,"Delta":2266133},{"NoteNumber":56,"Velocity":44,"Duration":166777,"SoundDuration":166777,"Delta":2345977},{"NoteNumber":66,"Velocity":41,"Duration":593773,"SoundDuration":593773,"Delta":2679532},{"NoteNumber":68,"Velocity":42,"Duration":593773,"SoundDuration":593773,"Delta":2679532},{"NoteNumber":60,"Velocity":34,"Duration":593773,"SoundDuration":593773,"Delta":2679532},{"NoteNumber":56,"Velocity":34,"Duration":593773,"SoundDuration":593773,"Delta":2679532},{"NoteNumber":44,"Velocity":39,"Duration":302511,"SoundDuration":302511,"Delta":2970794},{"NoteNumber":56,"Velocity":32,"Duration":344787,"SoundDuration":344787,"Delta":3273305},{"NoteNumber":68,"Velocity":38,"Duration":344787,"SoundDuration":344787,"Delta":3273305},{"NoteNumber":64,"Velocity":38,"Duration":344787,"SoundDuration":344787,"Delta":3273305},{"NoteNumber":48,"Velocity":35,"Duration":344787,"SoundDuration":344787,"Delta":3273305},{"NoteNumber":49,"Velocity":27,"Duration":1164374,"SoundDuration":1164374,"Delta":3618093},{"NoteNumber":68,"Velocity":27,"Duration":94488,"SoundDuration":94488,"Delta":3927595},{"NoteNumber":65,"Velocity":27,"Duration":96681,"SoundDuration":96681,"Delta":4002927},{"NoteNumber":61,"Velocity":27,"Duration":106852,"SoundDuration":106852,"Delta":4080000},{"NoteNumber":56,"Velocity":30,"Duration":166777,"SoundDuration":166777,"Delta":4159057},{"NoteNumber":65,"Velocity":27,"Duration":591362,"SoundDuration":591362,"Delta":4492612},{"NoteNumber":68,"Velocity":29,"Duration":591362,"SoundDuration":591362,"Delta":4492612},{"NoteNumber":61,"Velocity":27,"Duration":591362,"SoundDuration":591362,"Delta":4492612},{"NoteNumber":56,"Velocity":27,"Duration":591362,"SoundDuration":591362,"Delta":4492612},{"NoteNumber":44,"Velocity":27,"Duration":301507,"SoundDuration":301507,"Delta":4782467},{"NoteNumber":56,"Velocity":26,"Duration":328155,"SoundDuration":328155,"Delta":5083975},{"NoteNumber":68,"Velocity":26,"Duration":328155,"SoundDuration":328155,"Delta":5083975},{"NoteNumber":65,"Velocity":26,"Duration":328155,"SoundDuration":328155,"Delta":5083975},{"NoteNumber":59,"Velocity":26,"Duration":328155,"SoundDuration":328155,"Delta":5083975},{"NoteNumber":50,"Velocity":31,"Duration":328155,"SoundDuration":328155,"Delta":5083975},{"NoteNumber":51,"Velocity":36,"Duration":1185785,"SoundDuration":1185785,"Delta":5412131},{"NoteNumber":68,"Velocity":27,"Duration":97205,"SoundDuration":97205,"Delta":5721632},{"NoteNumber":66,"Velocity":27,"Duration":99372,"SoundDuration":99372,"Delta":5799153},{"NoteNumber":60,"Velocity":27,"Duration":109087,"SoundDuration":109087,"Delta":5878364},{"NoteNumber":56,"Velocity":30,"Duration":167691,"SoundDuration":167691,"Delta":5959502},{"NoteNumber":60,"Velocity":31,"Duration":610723,"SoundDuration":610723,"Delta":6294885},{"NoteNumber":68,"Velocity":33,"Duration":610723,"SoundDuration":610723,"Delta":6294885},{"NoteNumber":66,"Velocity":31,"Duration":610723,"SoundDuration":610723,"Delta":6294885},{"NoteNumber":56,"Velocity":31,"Duration":610723,"SoundDuration":610723,"Delta":6294885},{"NoteNumber":44,"Velocity":31,"Duration":307692,"SoundDuration":307692,"Delta":6597916},{"NoteNumber":68,"Velocity":31,"Duration":317919,"SoundDuration":317919,"Delta":6905608},{"NoteNumber":64,"Velocity":31,"Duration":317919,"SoundDuration":317919,"Delta":6905608},{"NoteNumber":56,"Velocity":31,"Duration":317919,"SoundDuration":317919,"Delta":6905608},{"NoteNumber":48,"Velocity":34,"Duration":317919,"SoundDuration":317919,"Delta":6905608},{"NoteNumber":77,"Velocity":46,"Duration":383582,"SoundDuration":383582,"Delta":7252429},{"NoteNumber":65,"Velocity":45,"Duration":383582,"SoundDuration":383582,"Delta":7252429},{"NoteNumber":49,"Velocity":39,"Duration":191791,"SoundDuration":191791,"Delta":7252429},{"NoteNumber":55,"Velocity":32,"Duration":96084,"SoundDuration":96084,"Delta":7636012},{"NoteNumber":56,"Velocity":32,"Duration":98200,"SoundDuration":98200,"Delta":7712641},{"NoteNumber":61,"Velocity":31,"Duration":80163,"SoundDuration":80163,"Delta":7790922},{"NoteNumber":65,"Velocity":45,"Duration":927746,"SoundDuration":927746,"Delta":7871085},{"NoteNumber":77,"Velocity":47,"Duration":927746,"SoundDuration":927746,"Delta":7871085},{"NoteNumber":68,"Velocity":42,"Duration":292683,"SoundDuration":292683,"Delta":8204641},{"NoteNumber":44,"Velocity":38,"Duration":150753,"SoundDuration":150753,"Delta":8497324},{"NoteNumber":77,"Velocity":41,"Duration":328155,"SoundDuration":328155,"Delta":8798831},{"NoteNumber":65,"Velocity":41,"Duration":328155,"SoundDuration":328155,"Delta":8798831},{"NoteNumber":61,"Velocity":34,"Duration":164077,"SoundDuration":164077,"Delta":8798831},{"NoteNumber":68,"Velocity":34,"Duration":164077,"SoundDuration":164077,"Delta":8798831},{"NoteNumber":56,"Velocity":34,"Duration":164077,"SoundDuration":164077,"Delta":8798831},{"NoteNumber":65,"Velocity":46,"Duration":464392,"SoundDuration":464392,"Delta":9126987},{"NoteNumber":77,"Velocity":46,"Duration":464392,"SoundDuration":464392,"Delta":9126987},{"NoteNumber":49,"Velocity":39,"Duration":173370,"SoundDuration":173370,"Delta":9126987},{"NoteNumber":55,"Velocity":32,"Duration":97888,"SoundDuration":97888,"Delta":9473728},{"NoteNumber":56,"Velocity":32,"Duration":99686,"SoundDuration":99686,"Delta":9551854},{"NoteNumber":80,"Velocity":43,"Duration":121138,"SoundDuration":121138,"Delta":9591379},{"NoteNumber":68,"Velocity":43,"Duration":121138,"SoundDuration":121138,"Delta":9591379},{"NoteNumber":61,"Velocity":31,"Duration":109087,"SoundDuration":109087,"Delta":9631379},{"NoteNumber":80,"Velocity":43,"Duration":1266935,"SoundDuration":1266935,"Delta":9712518},{"NoteNumber":68,"Velocity":43,"Duration":1266935,"SoundDuration":1266935,"Delta":9712518},{"NoteNumber":65,"Velocity":38,"Duration":167691,"SoundDuration":167691,"Delta":9712518},{"NoteNumber":56,"Velocity":40,"Duration":294117,"SoundDuration":294117,"Delta":10047901},{"NoteNumber":65,"Velocity":40,"Duration":294117,"SoundDuration":294117,"Delta":10047901},{"NoteNumber":61,"Velocity":40,"Duration":294117,"SoundDuration":294117,"Delta":10047901},{"NoteNumber":44,"Velocity":38,"Duration":154639,"SoundDuration":154639,"Delta":10342019},{"NoteNumber":61,"Velocity":30,"Duration":164077,"SoundDuration":164077,"Delta":10651297},{"NoteNumber":65,"Velocity":30,"Duration":164077,"SoundDuration":164077,"Delta":10651297},{"NoteNumber":56,"Velocity":30,"Duration":164077,"SoundDuration":164077,"Delta":10651297},{"NoteNumber":51,"Velocity":46,"Duration":153437,"SoundDuration":153437,"Delta":10979453},{"NoteNumber":78,"Velocity":55,"Duration":321184,"SoundDuration":321184,"Delta":11286327},{"NoteNumber":66,"Velocity":55,"Duration":321184,"SoundDuration":321184,"Delta":11286327},{"NoteNumber":55,"Velocity":38,"Duration":123762,"SoundDuration":123762,"Delta":11286327},{"NoteNumber":56,"Velocity":38,"Duration":123762,"SoundDuration":123762,"Delta":11385337},{"NoteNumber":60,"Velocity":37,"Duration":123164,"SoundDuration":123164,"Delta":11484347},{"NoteNumber":80,"Velocity":58,"Duration":314607,"SoundDuration":314607,"Delta":11583357},{"NoteNumber":68,"Velocity":58,"Duration":314607,"SoundDuration":314607,"Delta":11583357},{"NoteNumber":66,"Velocity":45,"Duration":144927,"SoundDuration":144927,"Delta":11583357},{"NoteNumber":70,"Velocity":61,"Duration":322282,"SoundDuration":322282,"Delta":11873212},{"NoteNumber":82,"Velocity":61,"Duration":322282,"SoundDuration":322282,"Delta":11873212},{"NoteNumber":56,"Velocity":49,"Duration":297029,"SoundDuration":297029,"Delta":11873212},{"NoteNumber":66,"Velocity":49,"Duration":297029,"SoundDuration":297029,"Delta":11873212},{"NoteNumber":60,"Velocity":49,"Duration":297029,"SoundDuration":297029,"Delta":11873212},{"NoteNumber":73,"Velocity":64,"Duration":329808,"SoundDuration":329808,"Delta":12170241},{"NoteNumber":85,"Velocity":64,"Duration":329808,"SoundDuration":329808,"Delta":12170241},{"NoteNumber":44,"Velocity":47,"Duration":151515,"SoundDuration":151515,"Delta":12170241},{"NoteNumber":72,"Velocity":62,"Duration":347168,"SoundDuration":347168,"Delta":12473272},{"NoteNumber":84,"Velocity":62,"Duration":347168,"SoundDuration":347168,"Delta":12473272},{"NoteNumber":66,"Velocity":38,"Duration":160668,"SoundDuration":160668,"Delta":12473272},{"NoteNumber":56,"Velocity":38,"Duration":160668,"SoundDuration":160668,"Delta":12473272},{"NoteNumber":60,"Velocity":38,"Duration":160668,"SoundDuration":160668,"Delta":12473272},{"NoteNumber":75,"Velocity":71,"Duration":335175,"SoundDuration":335175,"Delta":12794609},{"NoteNumber":87,"Velocity":71,"Duration":335175,"SoundDuration":335175,"Delta":12794609},{"NoteNumber":51,"Velocity":53,"Duration":154990,"SoundDuration":154990,"Delta":12794609},{"NoteNumber":70,"Velocity":56,"Duration":329247,"SoundDuration":329247,"Delta":13104590},{"NoteNumber":82,"Velocity":56,"Duration":329247,"SoundDuration":329247,"Delta":13104590},{"NoteNumber":55,"Velocity":38,"Duration":125970,"SoundDuration":125970,"Delta":13104590},{"NoteNumber":56,"Velocity":38,"Duration":125970,"SoundDuration":125970,"Delta":13205366},{"NoteNumber":60,"Velocity":37,"Duration":127695,"SoundDuration":127695,"Delta":13306142},{"NoteNumber":80,"Velocity":55,"Duration":1251986,"SoundDuration":1251986,"Delta":13406918},{"NoteNumber":68,"Velocity":55,"Duration":1251986,"SoundDuration":1251986,"Delta":13406918},{"NoteNumber":66,"Velocity":45,"Duration":161516,"SoundDuration":161516,"Delta":13406918},{"NoteNumber":56,"Velocity":43,"Duration":291261,"SoundDuration":291261,"Delta":13729950},{"NoteNumber":66,"Velocity":43,"Duration":291261,"SoundDuration":291261,"Delta":13729950},{"NoteNumber":60,"Velocity":43,"Duration":291261,"SoundDuration":291261,"Delta":13729950},{"NoteNumber":44,"Velocity":37,"Duration":158177,"SoundDuration":158177,"Delta":14021212},{"NoteNumber":60,"Velocity":36,"Duration":160668,"SoundDuration":160668,"Delta":14337568},{"NoteNumber":56,"Velocity":36,"Duration":160668,"SoundDuration":160668,"Delta":14337568},{"NoteNumber":66,"Velocity":36,"Duration":160668,"SoundDuration":160668,"Delta":14337568},{"NoteNumber":77,"Velocity":53,"Duration":383582,"SoundDuration":383582,"Delta":14658905},{"NoteNumber":65,"Velocity":53,"Duration":383582,"SoundDuration":383582,"Delta":14658905},{"NoteNumber":49,"Velocity":46,"Duration":191791,"SoundDuration":191791,"Delta":14658905},{"NoteNumber":55,"Velocity":38,"Duration":96455,"SoundDuration":96455,"Delta":15042487},{"NoteNumber":56,"Velocity":38,"Duration":98352,"SoundDuration":98352,"Delta":15119412},{"NoteNumber":61,"Velocity":37,"Duration":80163,"SoundDuration":80163,"Delta":15197844},{"NoteNumber":77,"Velocity":53,"Duration":922144,"SoundDuration":922144,"Delta":15278007},{"NoteNumber":65,"Velocity":53,"Duration":922144,"SoundDuration":922144,"Delta":15278007},{"NoteNumber":68,"Velocity":50,"Duration":287081,"SoundDuration":287081,"Delta":15611563},{"NoteNumber":44,"Velocity":45,"Duration":150753,"SoundDuration":150753,"Delta":15898644},{"NoteNumber":77,"Velocity":49,"Duration":328155,"SoundDuration":328155,"Delta":16200152},{"NoteNumber":65,"Velocity":49,"Duration":328155,"SoundDuration":328155,"Delta":16200152},{"NoteNumber":68,"Velocity":40,"Duration":164077,"SoundDuration":164077,"Delta":16200152},{"NoteNumber":61,"Velocity":40,"Duration":164077,"SoundDuration":164077,"Delta":16200152},{"NoteNumber":56,"Velocity":40,"Duration":164077,"SoundDuration":164077,"Delta":16200152},{"NoteNumber":65,"Velocity":55,"Duration":468030,"SoundDuration":468030,"Delta":16528308},{"NoteNumber":77,"Velocity":55,"Duration":468030,"SoundDuration":468030,"Delta":16528308},{"NoteNumber":49,"Velocity":46,"Duration":173370,"SoundDuration":173370,"Delta":16528308},{"NoteNumber":55,"Velocity":38,"Duration":101075,"SoundDuration":101075,"Delta":16875048},{"NoteNumber":56,"Velocity":38,"Duration":101075,"SoundDuration":101075,"Delta":16955909},{"NoteNumber":80,"Velocity":51,"Duration":121290,"SoundDuration":121290,"Delta":16996339},{"NoteNumber":68,"Velocity":51,"Duration":121290,"SoundDuration":121290,"Delta":16996339},{"NoteNumber":61,"Velocity":37,"Duration":108808,"SoundDuration":108808,"Delta":17036769},{"NoteNumber":68,"Velocity":51,"Duration":1265500,"SoundDuration":1265500,"Delta":17117629},{"NoteNumber":80,"Velocity":51,"Duration":1265500,"SoundDuration":1265500,"Delta":17117629},{"NoteNumber":65,"Velocity":45,"Duration":167691,"SoundDuration":167691,"Delta":17117629},{"NoteNumber":61,"Velocity":48,"Duration":292683,"SoundDuration":292683,"Delta":17453012},{"NoteNumber":65,"Velocity":48,"Duration":292683,"SoundDuration":292683,"Delta":17453012},{"NoteNumber":56,"Velocity":48,"Duration":292683,"SoundDuration":292683,"Delta":17453012},{"NoteNumber":44,"Velocity":45,"Duration":154639,"SoundDuration":154639,"Delta":17745695},{"NoteNumber":65,"Velocity":36,"Duration":164077,"SoundDuration":164077,"Delta":18054974},{"NoteNumber":56,"Velocity":36,"Duration":164077,"SoundDuration":164077,"Delta":18054974},{"NoteNumber":61,"Velocity":36,"Duration":164077,"SoundDuration":164077,"Delta":18054974},{"NoteNumber":51,"Velocity":46,"Duration":153437,"SoundDuration":153437,"Delta":18383130},{"NoteNumber":78,"Velocity":55,"Duration":321419,"SoundDuration":321419,"Delta":18690004},{"NoteNumber":66,"Velocity":55,"Duration":321419,"SoundDuration":321419,"Delta":18690004},{"NoteNumber":55,"Velocity":38,"Duration":123762,"SoundDuration":123762,"Delta":18690004},{"NoteNumber":56,"Velocity":38,"Duration":123762,"SoundDuration":123762,"Delta":18789014},{"NoteNumber":60,"Velocity":37,"Duration":123400,"SoundDuration":123400,"Delta":18888024},{"NoteNumber":68,"Velocity":58,"Duration":317435,"SoundDuration":317435,"Delta":18987033},{"NoteNumber":80,"Velocity":58,"Duration":317435,"SoundDuration":317435,"Delta":18987033},{"NoteNumber":66,"Velocity":45,"Duration":146341,"SoundDuration":146341,"Delta":18987033},{"NoteNumber":82,"Velocity":61,"Duration":322282,"SoundDuration":322282,"Delta":19279716},{"NoteNumber":70,"Velocity":61,"Duration":322282,"SoundDuration":322282,"Delta":19279716},{"NoteNumber":60,"Velocity":49,"Duration":297029,"SoundDuration":297029,"Delta":19279716},{"NoteNumber":66,"Velocity":49,"Duration":297029,"SoundDuration":297029,"Delta":19279716},{"NoteNumber":56,"Velocity":49,"Duration":297029,"SoundDuration":297029,"Delta":19279716},{"NoteNumber":73,"Velocity":64,"Duration":329808,"SoundDuration":329808,"Delta":19576746},{"NoteNumber":85,"Velocity":64,"Duration":329808,"SoundDuration":329808,"Delta":19576746},{"NoteNumber":44,"Velocity":47,"Duration":151515,"SoundDuration":151515,"Delta":19576746},{"NoteNumber":84,"Velocity":62,"Duration":347168,"SoundDuration":347168,"Delta":19879776},{"NoteNumber":72,"Velocity":62,"Duration":347168,"SoundDuration":347168,"Delta":19879776},{"NoteNumber":60,"Velocity":38,"Duration":160668,"SoundDuration":160668,"Delta":19879776},{"NoteNumber":66,"Velocity":38,"Duration":160668,"SoundDuration":160668,"Delta":19879776},{"NoteNumber":56,"Velocity":38,"Duration":160668,"SoundDuration":160668,"Delta":19879776},{"NoteNumber":78,"Velocity":59,"Duration":335813,"SoundDuration":335813,"Delta":20201113},{"NoteNumber":90,"Velocity":68,"Duration":335813,"SoundDuration":335813,"Delta":20201113},{"NoteNumber":51,"Velocity":53,"Duration":154990,"SoundDuration":154990,"Delta":20201113},{"NoteNumber":70,"Velocity":56,"Duration":336900,"SoundDuration":336900,"Delta":20511095},{"NoteNumber":82,"Velocity":56,"Duration":336900,"SoundDuration":336900,"Delta":20511095},{"NoteNumber":55,"Velocity":38,"Duration":129158,"SoundDuration":129158,"Delta":20511095},{"NoteNumber":56,"Velocity":38,"Duration":129158,"SoundDuration":129158,"Delta":20614422},{"NoteNumber":60,"Velocity":37,"Duration":130246,"SoundDuration":130246,"Delta":20717749},{"NoteNumber":68,"Velocity":55,"Duration":1251986,"SoundDuration":1251986,"Delta":20821076},{"NoteNumber":80,"Velocity":55,"Duration":1251986,"SoundDuration":1251986,"Delta":20821076},{"NoteNumber":66,"Velocity":45,"Duration":161515,"SoundDuration":161515,"Delta":20821076},{"NoteNumber":60,"Velocity":43,"Duration":291261,"SoundDuration":291261,"Delta":21144108},{"NoteNumber":56,"Velocity":43,"Duration":291261,"SoundDuration":291261,"Delta":21144108},{"NoteNumber":66,"Velocity":43,"Duration":291261,"SoundDuration":291261,"Delta":21144108},{"NoteNumber":44,"Velocity":37,"Duration":158177,"SoundDuration":158177,"Delta":21435370},{"NoteNumber":64,"Velocity":36,"Duration":160668,"SoundDuration":160668,"Delta":21751726},{"NoteNumber":56,"Velocity":36,"Duration":160668,"SoundDuration":160668,"Delta":21751726},{"NoteNumber":60,"Velocity":36,"Duration":160668,"SoundDuration":160668,"Delta":21751726},{"NoteNumber":85,"Velocity":58,"Duration":383582,"SoundDuration":383582,"Delta":22073063},{"NoteNumber":73,"Velocity":58,"Duration":383582,"SoundDuration":383582,"Delta":22073063},{"NoteNumber":53,"Velocity":50,"Duration":191791,"SoundDuration":191791,"Delta":22073063},{"NoteNumber":57,"Velocity":41,"Duration":99506,"SoundDuration":99506,"Delta":22456645},{"NoteNumber":61,"Velocity":41,"Duration":99506,"SoundDuration":99506,"Delta":22536251},{"NoteNumber":65,"Velocity":40,"Duration":79605,"SoundDuration":79605,"Delta":22615856},{"NoteNumber":73,"Velocity":58,"Duration":942834,"SoundDuration":942834,"Delta":22695461},{"NoteNumber":85,"Velocity":58,"Duration":942834,"SoundDuration":942834,"Delta":22695461},{"NoteNumber":69,"Velocity":55,"Duration":166777,"SoundDuration":166777,"Delta":22695461},{"NoteNumber":65,"Velocity":49,"Duration":300000,"SoundDuration":300000,"Delta":23029016},{"NoteNumber":61,"Velocity":49,"Duration":300000,"SoundDuration":300000,"Delta":23029016},{"NoteNumber":53,"Velocity":49,"Duration":154639,"SoundDuration":154639,"Delta":23329016},{"NoteNumber":84,"Velocity":53,"Duration":328155,"SoundDuration":328155,"Delta":23638295},{"NoteNumber":72,"Velocity":53,"Duration":328155,"SoundDuration":328155,"Delta":23638295},{"NoteNumber":57,"Velocity":44,"Duration":164077,"SoundDuration":164077,"Delta":23638295},{"NoteNumber":63,"Velocity":44,"Duration":164077,"SoundDuration":164077,"Delta":23638295},{"NoteNumber":84,"Velocity":58,"Duration":593845,"SoundDuration":593845,"Delta":23966451},{"NoteNumber":72,"Velocity":58,"Duration":593845,"SoundDuration":593845,"Delta":23966451},{"NoteNumber":54,"Velocity":50,"Duration":177514,"SoundDuration":177514,"Delta":23966451},{"NoteNumber":60,"Velocity":41,"Duration":99506,"SoundDuration":99506,"Delta":24321480},{"NoteNumber":61,"Velocity":41,"Duration":99506,"SoundDuration":99506,"Delta":24401086},{"NoteNumber":66,"Velocity":40,"Duration":79605,"SoundDuration":79605,"Delta":24480691},{"NoteNumber":82,"Velocity":55,"Duration":324324,"SoundDuration":324324,"Delta":24560296},{"NoteNumber":70,"Velocity":55,"Duration":324324,"SoundDuration":324324,"Delta":24560296},{"NoteNumber":77,"Velocity":55,"Duration":303736,"SoundDuration":303736,"Delta":24884620},{"NoteNumber":65,"Velocity":55,"Duration":303736,"SoundDuration":303736,"Delta":24884620},{"NoteNumber":62,"Velocity":55,"Duration":303736,"SoundDuration":303736,"Delta":24884620},{"NoteNumber":68,"Velocity":58,"Duration":303736,"SoundDuration":303736,"Delta":25188356},{"NoteNumber":80,"Velocity":58,"Duration":303736,"SoundDuration":303736,"Delta":25188356},{"NoteNumber":50,"Velocity":49,"Duration":151868,"SoundDuration":151868,"Delta":25188356},{"NoteNumber":82,"Velocity":53,"Duration":328155,"SoundDuration":328155,"Delta":25492092},{"NoteNumber":70,"Velocity":53,"Duration":328155,"SoundDuration":328155,"Delta":25492092},{"NoteNumber":65,"Velocity":44,"Duration":164077,"SoundDuration":164077,"Delta":25492092},{"NoteNumber":58,"Velocity":44,"Duration":164077,"SoundDuration":164077,"Delta":25492092},{"NoteNumber":80,"Velocity":58,"Duration":622398,"SoundDuration":622398,"Delta":25820248},{"NoteNumber":68,"Velocity":58,"Duration":622398,"SoundDuration":622398,"Delta":25820248},{"NoteNumber":51,"Velocity":50,"Duration":191791,"SoundDuration":191791,"Delta":25820248},{"NoteNumber":57,"Velocity":41,"Duration":99506,"SoundDuration":99506,"Delta":26203831},{"NoteNumber":58,"Velocity":41,"Duration":99506,"SoundDuration":99506,"Delta":26283436},{"NoteNumber":63,"Velocity":40,"Duration":79605,"SoundDuration":79605,"Delta":26363041},{"NoteNumber":66,"Velocity":58,"Duration":331748,"SoundDuration":331748,"Delta":26442646},{"NoteNumber":78,"Velocity":58,"Duration":331748,"SoundDuration":331748,"Delta":26442646},{"NoteNumber":71,"Velocity":57,"Duration":248344,"SoundDuration":248344,"Delta":26774395},{"NoteNumber":74,"Velocity":57,"Duration":248344,"SoundDuration":248344,"Delta":26774395},{"NoteNumber":58,"Velocity":50,"Duration":990785,"SoundDuration":990785,"Delta":26774395},{"NoteNumber":71,"Velocity":53,"Duration":405362,"SoundDuration":405362,"Delta":27022739},{"NoteNumber":78,"Velocity":58,"Duration":322580,"SoundDuration":322580,"Delta":27105521},{"NoteNumber":70,"Velocity":46,"Duration":322580,"SoundDuration":322580,"Delta":27105521},{"NoteNumber":71,"Velocity":54,"Duration":252808,"SoundDuration":252808,"Delta":27428101},{"NoteNumber":77,"Velocity":54,"Duration":252808,"SoundDuration":252808,"Delta":27428101},{"NoteNumber":68,"Velocity":43,"Duration":337078,"SoundDuration":337078,"Delta":27428101},{"NoteNumber":66,"Velocity":41,"Duration":1956806,"SoundDuration":1956806,"Delta":27680910},{"NoteNumber":77,"Velocity":56,"Duration":589692,"SoundDuration":589692,"Delta":27765180},{"NoteNumber":51,"Velocity":46,"Duration":175438,"SoundDuration":175438,"Delta":27765180},{"NoteNumber":57,"Velocity":38,"Duration":99506,"SoundDuration":99506,"Delta":28116057},{"NoteNumber":58,"Velocity":38,"Duration":99506,"SoundDuration":99506,"Delta":28195662},{"NoteNumber":59,"Velocity":37,"Duration":79605,"SoundDuration":79605,"Delta":28275267},{"NoteNumber":58,"Velocity":50,"Duration":332785,"SoundDuration":332785,"Delta":28348902},{"NoteNumber":75,"Velocity":56,"Duration":1282844,"SoundDuration":1282844,"Delta":28354872},{"NoteNumber":62,"Velocity":50,"Duration":309359,"SoundDuration":309359,"Delta":28693934},{"NoteNumber":65,"Velocity":55,"Duration":315874,"SoundDuration":315874,"Delta":29003294},{"NoteNumber":63,"Velocity":51,"Duration":322624,"SoundDuration":322624,"Delta":29319168},{"NoteNumber":67,"Velocity":47,"Duration":326087,"SoundDuration":326087,"Delta":29637716},{"NoteNumber":73,"Velocity":56,"Duration":326087,"SoundDuration":326087,"Delta":29637716},{"NoteNumber":65,"Velocity":47,"Duration":326087,"SoundDuration":326087,"Delta":29637716},{"NoteNumber":39,"Velocity":46,"Duration":163043,"SoundDuration":163043,"Delta":29637716},{"NoteNumber":67,"Velocity":45,"Duration":326442,"SoundDuration":326442,"Delta":29963803},{"NoteNumber":63,"Velocity":45,"Duration":326442,"SoundDuration":326442,"Delta":29963803},{"NoteNumber":72,"Velocity":53,"Duration":326442,"SoundDuration":326442,"Delta":29963803},{"NoteNumber":50,"Velocity":38,"Duration":136017,"SoundDuration":136017,"Delta":29963803},{"NoteNumber":51,"Velocity":38,"Duration":136017,"SoundDuration":136017,"Delta":30072617},{"NoteNumber":53,"Velocity":37,"Duration":108813,"SoundDuration":108813,"Delta":30181431},{"NoteNumber":61,"Velocity":45,"Duration":638460,"SoundDuration":638460,"Delta":30290245},{"NoteNumber":72,"Velocity":53,"Duration":638460,"SoundDuration":638460,"Delta":30290245},{"NoteNumber":67,"Velocity":45,"Duration":638460,"SoundDuration":638460,"Delta":30290245},{"NoteNumber":51,"Velocity":50,"Duration":162162,"SoundDuration":162162,"Delta":30290245},{"NoteNumber":51,"Velocity":50,"Duration":639402,"SoundDuration":639402,"Delta":30614570},{"NoteNumber":61,"Velocity":47,"Duration":245901,"SoundDuration":245901,"Delta":30928706},{"NoteNumber":67,"Velocity":47,"Duration":245901,"SoundDuration":245901,"Delta":30928706},{"NoteNumber":70,"Velocity":56,"Duration":245901,"SoundDuration":245901,"Delta":30928706},{"NoteNumber":61,"Velocity":35,"Duration":390246,"SoundDuration":390246,"Delta":31174608},{"NoteNumber":67,"Velocity":42,"Duration":350563,"SoundDuration":350563,"Delta":31214290},{"NoteNumber":75,"Velocity":55,"Duration":310880,"SoundDuration":310880,"Delta":31253973},{"NoteNumber":51,"Velocity":46,"Duration":310880,"SoundDuration":310880,"Delta":31253973},{"NoteNumber":63,"Velocity":54,"Duration":317460,"SoundDuration":317460,"Delta":31564854},{"NoteNumber":68,"Velocity":54,"Duration":317460,"SoundDuration":317460,"Delta":31564854},{"NoteNumber":60,"Velocity":49,"Duration":317460,"SoundDuration":317460,"Delta":31564854},{"NoteNumber":51,"Velocity":49,"Duration":1922959,"SoundDuration":1922959,"Delta":31564854},{"NoteNumber":65,"Velocity":49,"Duration":322580,"SoundDuration":322580,"Delta":31882314},{"NoteNumber":70,"Velocity":49,"Duration":322580,"SoundDuration":322580,"Delta":31882314},{"NoteNumber":61,"Velocity":46,"Duration":322580,"SoundDuration":322580,"Delta":31882314},{"NoteNumber":73,"Velocity":54,"Duration":316355,"SoundDuration":316355,"Delta":32204895},{"NoteNumber":68,"Velocity":54,"Duration":316355,"SoundDuration":316355,"Delta":32204895},{"NoteNumber":65,"Velocity":49,"Duration":316355,"SoundDuration":316355,"Delta":32204895},{"NoteNumber":67,"Velocity":50,"Duration":241002,"SoundDuration":241002,"Delta":32521250},{"NoteNumber":72,"Velocity":50,"Duration":241002,"SoundDuration":241002,"Delta":32521250},{"NoteNumber":63,"Velocity":45,"Duration":321336,"SoundDuration":321336,"Delta":32521250},{"NoteNumber":68,"Velocity":50,"Duration":388754,"SoundDuration":388754,"Delta":32762253},{"NoteNumber":75,"Velocity":55,"Duration":308419,"SoundDuration":308419,"Delta":32842587},{"NoteNumber":67,"Velocity":48,"Duration":308419,"SoundDuration":308419,"Delta":32842587},{"NoteNumber":72,"Velocity":50,"Duration":243243,"SoundDuration":243243,"Delta":33151007},{"NoteNumber":67,"Velocity":50,"Duration":243243,"SoundDuration":243243,"Delta":33151007},{"NoteNumber":63,"Velocity":45,"Duration":336806,"SoundDuration":336806,"Delta":33151007},{"NoteNumber":61,"Velocity":41,"Duration":713551,"SoundDuration":713551,"Delta":33394251},{"NoteNumber":67,"Velocity":41,"Duration":666770,"SoundDuration":666770,"Delta":33441032},{"NoteNumber":73,"Velocity":56,"Duration":619988,"SoundDuration":619988,"Delta":33487814},{"NoteNumber":51,"Velocity":46,"Duration":165874,"SoundDuration":165874,"Delta":33487814},{"NoteNumber":62,"Velocity":38,"Duration":115760,"SoundDuration":115760,"Delta":33819562},{"NoteNumber":63,"Velocity":38,"Duration":120683,"SoundDuration":120683,"Delta":33911738},{"NoteNumber":65,"Velocity":37,"Duration":100011,"SoundDuration":100011,"Delta":34007791},{"NoteNumber":67,"Velocity":55,"Duration":646478,"SoundDuration":646478,"Delta":34107802},{"NoteNumber":65,"Velocity":55,"Duration":646478,"SoundDuration":646478,"Delta":34107802},{"NoteNumber":73,"Velocity":55,"Duration":646478,"SoundDuration":646478,"Delta":34107802},{"NoteNumber":63,"Velocity":43,"Duration":165874,"SoundDuration":165874,"Delta":34107802},{"NoteNumber":63,"Velocity":50,"Duration":639474,"SoundDuration":639474,"Delta":34439551},{"NoteNumber":61,"Velocity":52,"Duration":641100,"SoundDuration":641100,"Delta":34754280},{"NoteNumber":72,"Velocity":52,"Duration":641100,"SoundDuration":641100,"Delta":34754280},{"NoteNumber":67,"Velocity":52,"Duration":641100,"SoundDuration":641100,"Delta":34754280},{"NoteNumber":63,"Velocity":46,"Duration":316355,"SoundDuration":316355,"Delta":35079026},{"NoteNumber":68,"Velocity":54,"Duration":333555,"SoundDuration":333555,"Delta":35395381},{"NoteNumber":63,"Velocity":48,"Duration":333555,"SoundDuration":333555,"Delta":35395381},{"NoteNumber":60,"Velocity":49,"Duration":333555,"SoundDuration":333555,"Delta":35395381},{"NoteNumber":56,"Velocity":49,"Duration":2134913,"SoundDuration":2134913,"Delta":35395381},{"NoteNumber":65,"Velocity":48,"Duration":333555,"SoundDuration":333555,"Delta":35728937},{"NoteNumber":70,"Velocity":54,"Duration":333555,"SoundDuration":333555,"Delta":35728937},{"NoteNumber":61,"Velocity":46,"Duration":333555,"SoundDuration":333555,"Delta":35728937},{"NoteNumber":72,"Velocity":59,"Duration":362756,"SoundDuration":362756,"Delta":36062492},{"NoteNumber":66,"Velocity":53,"Duration":362756,"SoundDuration":362756,"Delta":36062492},{"NoteNumber":63,"Velocity":49,"Duration":362756,"SoundDuration":362756,"Delta":36062492},{"NoteNumber":72,"Velocity":54,"Duration":349160,"SoundDuration":349160,"Delta":36425248},{"NoteNumber":78,"Velocity":59,"Duration":349160,"SoundDuration":349160,"Delta":36425248},{"NoteNumber":70,"Velocity":50,"Duration":349160,"SoundDuration":349160,"Delta":36425248},{"NoteNumber":72,"Velocity":52,"Duration":367724,"SoundDuration":367724,"Delta":36774409},{"NoteNumber":77,"Velocity":58,"Duration":367724,"SoundDuration":367724,"Delta":36774409},{"NoteNumber":68,"Velocity":50,"Duration":367724,"SoundDuration":367724,"Delta":36774409},{"NoteNumber":72,"Velocity":45,"Duration":388161,"SoundDuration":388161,"Delta":37142133},{"NoteNumber":76,"Velocity":54,"Duration":388161,"SoundDuration":388161,"Delta":37142133},{"NoteNumber":66,"Velocity":47,"Duration":388161,"SoundDuration":388161,"Delta":37142133},{"NoteNumber":65,"Velocity":50,"Duration":431654,"SoundDuration":431654,"Delta":37530295},{"NoteNumber":77,"Velocity":56,"Duration":431654,"SoundDuration":431654,"Delta":37530295},{"NoteNumber":49,"Velocity":55,"Duration":215827,"SoundDuration":215827,"Delta":37530295},{"NoteNumber":55,"Velocity":49,"Duration":105848,"SoundDuration":105848,"Delta":37961949},{"NoteNumber":56,"Velocity":49,"Duration":108423,"SoundDuration":108423,"Delta":38046339},{"NoteNumber":61,"Velocity":48,"Duration":88695,"SoundDuration":88695,"Delta":38132735},{"NoteNumber":65,"Velocity":55,"Duration":934219,"SoundDuration":934219,"Delta":38221431},{"NoteNumber":77,"Velocity":62,"Duration":934219,"SoundDuration":934219,"Delta":38221431},{"NoteNumber":68,"Velocity":61,"Duration":289855,"SoundDuration":289855,"Delta":38564288},{"NoteNumber":44,"Velocity":59,"Duration":150753,"SoundDuration":150753,"Delta":38854143},{"NoteNumber":77,"Velocity":63,"Duration":337078,"SoundDuration":337078,"Delta":39155651},{"NoteNumber":65,"Velocity":56,"Duration":337078,"SoundDuration":337078,"Delta":39155651},{"NoteNumber":61,"Velocity":52,"Duration":168539,"SoundDuration":168539,"Delta":39155651},{"NoteNumber":56,"Velocity":52,"Duration":168539,"SoundDuration":168539,"Delta":39155651},{"NoteNumber":68,"Velocity":52,"Duration":168539,"SoundDuration":168539,"Delta":39155651},{"NoteNumber":65,"Velocity":61,"Duration":483768,"SoundDuration":483768,"Delta":39492729},{"NoteNumber":77,"Velocity":68,"Duration":483768,"SoundDuration":483768,"Delta":39492729},{"NoteNumber":49,"Velocity":60,"Duration":179640,"SoundDuration":179640,"Delta":39492729},{"NoteNumber":55,"Velocity":49,"Duration":103566,"SoundDuration":103566,"Delta":39852011},{"NoteNumber":56,"Velocity":49,"Duration":105311,"SoundDuration":105311,"Delta":39934657},{"NoteNumber":68,"Velocity":61,"Duration":127850,"SoundDuration":127850,"Delta":39976498},{"NoteNumber":80,"Velocity":68,"Duration":127850,"SoundDuration":127850,"Delta":39976498},{"NoteNumber":61,"Velocity":48,"Duration":113605,"SoundDuration":113605,"Delta":40018692},{"NoteNumber":68,"Velocity":61,"Duration":1263914,"SoundDuration":1263914,"Delta":40104348},{"NoteNumber":80,"Velocity":68,"Duration":1263914,"SoundDuration":1263914,"Delta":40104348},{"NoteNumber":65,"Velocity":60,"Duration":167691,"SoundDuration":167691,"Delta":40104348},{"NoteNumber":56,"Velocity":57,"Duration":292682,"SoundDuration":292682,"Delta":40439731},{"NoteNumber":65,"Velocity":57,"Duration":292682,"SoundDuration":292682,"Delta":40439731},{"NoteNumber":61,"Velocity":57,"Duration":292682,"SoundDuration":292682,"Delta":40439731},{"NoteNumber":44,"Velocity":61,"Duration":153846,"SoundDuration":153846,"Delta":40732414},{"NoteNumber":61,"Velocity":49,"Duration":164078,"SoundDuration":164078,"Delta":41040107},{"NoteNumber":56,"Velocity":49,"Duration":164078,"SoundDuration":164078,"Delta":41040107},{"NoteNumber":65,"Velocity":49,"Duration":164078,"SoundDuration":164078,"Delta":41040107},{"NoteNumber":51,"Velocity":57,"Duration":153436,"SoundDuration":153436,"Delta":41368263},{"NoteNumber":78,"Velocity":69,"Duration":319956,"SoundDuration":319956,"Delta":41675137},{"NoteNumber":66,"Velocity":61,"Duration":319956,"SoundDuration":319956,"Delta":41675137},{"NoteNumber":55,"Velocity":47,"Duration":123152,"SoundDuration":123152,"Delta":41675137},{"NoteNumber":56,"Velocity":47,"Duration":123152,"SoundDuration":123152,"Delta":41773659},{"NoteNumber":60,"Velocity":46,"Duration":122912,"SoundDuration":122912,"Delta":41872181},{"NoteNumber":68,"Velocity":63,"Duration":318324,"SoundDuration":318324,"Delta":41970703},{"NoteNumber":80,"Velocity":71,"Duration":318324,"SoundDuration":318324,"Delta":41970703},{"NoteNumber":66,"Velocity":56,"Duration":146341,"SoundDuration":146341,"Delta":41970703},{"NoteNumber":82,"Velocity":73,"Duration":332692,"SoundDuration":332692,"Delta":42263386},{"NoteNumber":70,"Velocity":66,"Duration":332692,"SoundDuration":332692,"Delta":42263386},{"NoteNumber":56,"Velocity":59,"Duration":307692,"SoundDuration":307692,"Delta":42263386},{"NoteNumber":66,"Velocity":59,"Duration":307692,"SoundDuration":307692,"Delta":42263386},{"NoteNumber":60,"Velocity":59,"Duration":307692,"SoundDuration":307692,"Delta":42263386},{"NoteNumber":73,"Velocity":69,"Duration":326778,"SoundDuration":326778,"Delta":42571079},{"NoteNumber":85,"Velocity":77,"Duration":326778,"SoundDuration":326778,"Delta":42571079},{"NoteNumber":44,"Velocity":56,"Duration":149999,"SoundDuration":149999,"Delta":42571079},{"NoteNumber":84,"Velocity":72,"Duration":347168,"SoundDuration":347168,"Delta":42871079},{"NoteNumber":72,"Velocity":64,"Duration":347168,"SoundDuration":347168,"Delta":42871079},{"NoteNumber":66,"Velocity":44,"Duration":160668,"SoundDuration":160668,"Delta":42871079},{"NoteNumber":56,"Velocity":44,"Duration":160668,"SoundDuration":160668,"Delta":42871079},{"NoteNumber":60,"Velocity":44,"Duration":160668,"SoundDuration":160668,"Delta":42871079},{"NoteNumber":87,"Velocity":83,"Duration":335175,"SoundDuration":335175,"Delta":43192416},{"NoteNumber":75,"Velocity":72,"Duration":335175,"SoundDuration":335175,"Delta":43192416},{"NoteNumber":51,"Velocity":60,"Duration":154990,"SoundDuration":154990,"Delta":43192416},{"NoteNumber":70,"Velocity":62,"Duration":329247,"SoundDuration":329247,"Delta":43502397},{"NoteNumber":82,"Velocity":70,"Duration":329247,"SoundDuration":329247,"Delta":43502397},{"NoteNumber":55,"Velocity":47,"Duration":125970,"SoundDuration":125970,"Delta":43502397},{"NoteNumber":56,"Velocity":47,"Duration":125969,"SoundDuration":125969,"Delta":43603173},{"NoteNumber":60,"Velocity":44,"Duration":127695,"SoundDuration":127695,"Delta":43703949},{"NoteNumber":80,"Velocity":66,"Duration":1253407,"SoundDuration":1253407,"Delta":43804725},{"NoteNumber":68,"Velocity":59,"Duration":1253407,"SoundDuration":1253407,"Delta":43804725},{"NoteNumber":66,"Velocity":55,"Duration":161515,"SoundDuration":161515,"Delta":43804725},{"NoteNumber":56,"Velocity":51,"Duration":292682,"SoundDuration":292682,"Delta":44127757},{"NoteNumber":66,"Velocity":51,"Duration":292682,"SoundDuration":292682,"Delta":44127757},{"NoteNumber":60,"Velocity":51,"Duration":292682,"SoundDuration":292682,"Delta":44127757},{"NoteNumber":44,"Velocity":42,"Duration":158177,"SoundDuration":158177,"Delta":44420440},{"NoteNumber":60,"Velocity":40,"Duration":160668,"SoundDuration":160668,"Delta":44736796},{"NoteNumber":66,"Velocity":40,"Duration":160668,"SoundDuration":160668,"Delta":44736796},{"NoteNumber":56,"Velocity":40,"Duration":160668,"SoundDuration":160668,"Delta":44736796},{"NoteNumber":77,"Velocity":45,"Duration":383582,"SoundDuration":383582,"Delta":45058133},{"NoteNumber":65,"Velocity":45,"Duration":383582,"SoundDuration":383582,"Delta":45058133},{"NoteNumber":49,"Velocity":39,"Duration":191791,"SoundDuration":191791,"Delta":45058133},{"NoteNumber":55,"Velocity":32,"Duration":96752,"SoundDuration":96752,"Delta":45441715},{"NoteNumber":56,"Velocity":32,"Duration":98508,"SoundDuration":98508,"Delta":45518936},{"NoteNumber":61,"Velocity":31,"Duration":80163,"SoundDuration":80163,"Delta":45597525},{"NoteNumber":65,"Velocity":45,"Duration":926325,"SoundDuration":926325,"Delta":45677688},{"NoteNumber":77,"Velocity":45,"Duration":926325,"SoundDuration":926325,"Delta":45677688},{"NoteNumber":68,"Velocity":42,"Duration":291262,"SoundDuration":291262,"Delta":46011243},{"NoteNumber":44,"Velocity":38,"Duration":150753,"SoundDuration":150753,"Delta":46302505},{"NoteNumber":65,"Velocity":41,"Duration":328155,"SoundDuration":328155,"Delta":46604013},{"NoteNumber":77,"Velocity":41,"Duration":328155,"SoundDuration":328155,"Delta":46604013},{"NoteNumber":68,"Velocity":34,"Duration":164078,"SoundDuration":164078,"Delta":46604013},{"NoteNumber":56,"Velocity":34,"Duration":164078,"SoundDuration":164078,"Delta":46604013},{"NoteNumber":61,"Velocity":34,"Duration":164078,"SoundDuration":164078,"Delta":46604013},{"NoteNumber":65,"Velocity":46,"Duration":468031,"SoundDuration":468031,"Delta":46932169},{"NoteNumber":77,"Velocity":46,"Duration":468031,"SoundDuration":468031,"Delta":46932169},{"NoteNumber":49,"Velocity":39,"Duration":173370,"SoundDuration":173370,"Delta":46932169},{"NoteNumber":55,"Velocity":32,"Duration":101075,"SoundDuration":101075,"Delta":47278909},{"NoteNumber":56,"Velocity":32,"Duration":101075,"SoundDuration":101075,"Delta":47359770},{"NoteNumber":68,"Velocity":43,"Duration":121290,"SoundDuration":121290,"Delta":47400200},{"NoteNumber":80,"Velocity":43,"Duration":121290,"SoundDuration":121290,"Delta":47400200},{"NoteNumber":61,"Velocity":31,"Duration":108808,"SoundDuration":108808,"Delta":47440630},{"NoteNumber":80,"Velocity":43,"Duration":1274324,"SoundDuration":1274324,"Delta":47521490},{"NoteNumber":68,"Velocity":43,"Duration":1274324,"SoundDuration":1274324,"Delta":47521490},{"NoteNumber":65,"Velocity":38,"Duration":167691,"SoundDuration":167691,"Delta":47521490},{"NoteNumber":61,"Velocity":40,"Duration":301507,"SoundDuration":301507,"Delta":47856873},{"NoteNumber":56,"Velocity":40,"Duration":301507,"SoundDuration":301507,"Delta":47856873},{"NoteNumber":65,"Velocity":40,"Duration":301507,"SoundDuration":301507,"Delta":47856873},{"NoteNumber":44,"Velocity":38,"Duration":154639,"SoundDuration":154639,"Delta":48158381},{"NoteNumber":65,"Velocity":30,"Duration":164078,"SoundDuration":164078,"Delta":48467659},{"NoteNumber":56,"Velocity":30,"Duration":164078,"SoundDuration":164078,"Delta":48467659},{"NoteNumber":61,"Velocity":30,"Duration":164078,"SoundDuration":164078,"Delta":48467659},{"NoteNumber":51,"Velocity":46,"Duration":153436,"SoundDuration":153436,"Delta":48795815},{"NoteNumber":78,"Velocity":55,"Duration":325550,"SoundDuration":325550,"Delta":49102689},{"NoteNumber":66,"Velocity":55,"Duration":325550,"SoundDuration":325550,"Delta":49102689},{"NoteNumber":55,"Velocity":38,"Duration":125351,"SoundDuration":125351,"Delta":49102689},{"NoteNumber":56,"Velocity":38,"Duration":125351,"SoundDuration":125351,"Delta":49202970},{"NoteNumber":60,"Velocity":37,"Duration":124989,"SoundDuration":124989,"Delta":49303251},{"NoteNumber":80,"Velocity":57,"Duration":321695,"SoundDuration":321695,"Delta":49403532},{"NoteNumber":68,"Velocity":57,"Duration":321695,"SoundDuration":321695,"Delta":49403532},{"NoteNumber":66,"Velocity":45,"Duration":148250,"SoundDuration":148250,"Delta":49403532},{"NoteNumber":82,"Velocity":59,"Duration":327328,"SoundDuration":327328,"Delta":49700033},{"NoteNumber":70,"Velocity":59,"Duration":327328,"SoundDuration":327328,"Delta":49700033},{"NoteNumber":60,"Velocity":48,"Duration":302328,"SoundDuration":302328,"Delta":49700033},{"NoteNumber":56,"Velocity":48,"Duration":302328,"SoundDuration":302328,"Delta":49700033},{"NoteNumber":66,"Velocity":48,"Duration":302328,"SoundDuration":302328,"Delta":49700033},{"NoteNumber":73,"Velocity":61,"Duration":326778,"SoundDuration":326778,"Delta":50002361},{"NoteNumber":85,"Velocity":61,"Duration":326778,"SoundDuration":326778,"Delta":50002361},{"NoteNumber":44,"Velocity":45,"Duration":149999,"SoundDuration":149999,"Delta":50002361},{"NoteNumber":84,"Velocity":58,"Duration":347168,"SoundDuration":347168,"Delta":50302361},{"NoteNumber":72,"Velocity":58,"Duration":347168,"SoundDuration":347168,"Delta":50302361},{"NoteNumber":60,"Velocity":36,"Duration":160668,"SoundDuration":160668,"Delta":50302361},{"NoteNumber":56,"Velocity":36,"Duration":160668,"SoundDuration":160668,"Delta":50302361},{"NoteNumber":66,"Velocity":36,"Duration":160668,"SoundDuration":160668,"Delta":50302361},{"NoteNumber":78,"Velocity":65,"Duration":335813,"SoundDuration":335813,"Delta":50623698},{"NoteNumber":90,"Velocity":65,"Duration":335813,"SoundDuration":335813,"Delta":50623698},{"NoteNumber":51,"Velocity":49,"Duration":154990,"SoundDuration":154990,"Delta":50623698},{"NoteNumber":70,"Velocity":56,"Duration":338585,"SoundDuration":338585,"Delta":50933680},{"NoteNumber":82,"Velocity":56,"Duration":338585,"SoundDuration":338585,"Delta":50933680},{"NoteNumber":55,"Velocity":38,"Duration":129158,"SoundDuration":129158,"Delta":50933680},{"NoteNumber":56,"Velocity":38,"Duration":129158,"SoundDuration":129158,"Delta":51037007},{"NoteNumber":60,"Velocity":37,"Duration":131931,"SoundDuration":131931,"Delta":51140334},{"NoteNumber":68,"Velocity":55,"Duration":721083,"SoundDuration":721083,"Delta":51243661},{"NoteNumber":80,"Velocity":55,"Duration":721083,"SoundDuration":721083,"Delta":51243661},{"NoteNumber":66,"Velocity":45,"Duration":171624,"SoundDuration":171624,"Delta":51243661},{"NoteNumber":60,"Velocity":43,"Duration":377834,"SoundDuration":377834,"Delta":51586911},{"NoteNumber":66,"Velocity":43,"Duration":377834,"SoundDuration":377834,"Delta":51586911},{"NoteNumber":56,"Velocity":43,"Duration":377834,"SoundDuration":377834,"Delta":51586911},{"NoteNumber":69,"Velocity":33,"Duration":320855,"SoundDuration":320855,"Delta":51964745},{"NoteNumber":75,"Velocity":33,"Duration":320855,"SoundDuration":320855,"Delta":51964745},{"NoteNumber":80,"Velocity":40,"Duration":348479,"SoundDuration":348479,"Delta":51964745},{"NoteNumber":47,"Velocity":33,"Duration":652346,"SoundDuration":652346,"Delta":51964745},{"NoteNumber":58,"Velocity":23,"Duration":80213,"SoundDuration":80213,"Delta":52205387},{"NoteNumber":79,"Velocity":37,"Duration":331491,"SoundDuration":331491,"Delta":52285600},{"NoteNumber":59,"Velocity":28,"Duration":165745,"SoundDuration":165745,"Delta":52285600},{"NoteNumber":68,"Velocity":45,"Duration":383582,"SoundDuration":383582,"Delta":52617092},{"NoteNumber":80,"Velocity":49,"Duration":383582,"SoundDuration":383582,"Delta":52617092},{"NoteNumber":52,"Velocity":42,"Duration":191791,"SoundDuration":191791,"Delta":52617092},{"NoteNumber":58,"Velocity":36,"Duration":99506,"SoundDuration":99506,"Delta":53000674},{"NoteNumber":59,"Velocity":36,"Duration":99506,"SoundDuration":99506,"Delta":53080280},{"NoteNumber":61,"Velocity":36,"Duration":79605,"SoundDuration":79605,"Delta":53159885},{"NoteNumber":68,"Velocity":52,"Duration":940003,"SoundDuration":940003,"Delta":53239490},{"NoteNumber":80,"Velocity":52,"Duration":940003,"SoundDuration":940003,"Delta":53239490},{"NoteNumber":59,"Velocity":49,"Duration":166777,"SoundDuration":166777,"Delta":53239490},{"NoteNumber":59,"Velocity":44,"Duration":295566,"SoundDuration":295566,"Delta":53573045},{"NoteNumber":47,"Velocity":44,"Duration":155440,"SoundDuration":155440,"Delta":53868612},{"NoteNumber":80,"Velocity":53,"Duration":328155,"SoundDuration":328155,"Delta":54179493},{"NoteNumber":68,"Velocity":53,"Duration":328155,"SoundDuration":328155,"Delta":54179493},{"NoteNumber":59,"Velocity":44,"Duration":164078,"SoundDuration":164078,"Delta":54179493},{"NoteNumber":53,"Velocity":44,"Duration":164078,"SoundDuration":164078,"Delta":54179493},{"NoteNumber":62,"Velocity":44,"Duration":164078,"SoundDuration":164078,"Delta":54179493},{"NoteNumber":71,"Velocity":52,"Duration":295566,"SoundDuration":295566,"Delta":54507649},{"NoteNumber":83,"Velocity":58,"Duration":295566,"SoundDuration":295566,"Delta":54507649},{"NoteNumber":54,"Velocity":50,"Duration":147783,"SoundDuration":147783,"Delta":54507649},{"NoteNumber":69,"Velocity":52,"Duration":289855,"SoundDuration":289855,"Delta":54803215},{"NoteNumber":81,"Velocity":58,"Duration":289855,"SoundDuration":289855,"Delta":54803215},{"NoteNumber":58,"Velocity":41,"Duration":120772,"SoundDuration":120772,"Delta":54803215},{"NoteNumber":59,"Velocity":41,"Duration":120772,"SoundDuration":120772,"Delta":54899834},{"NoteNumber":61,"Velocity":40,"Duration":96618,"SoundDuration":96618,"Delta":54996452},{"NoteNumber":85,"Velocity":65,"Duration":309278,"SoundDuration":309278,"Delta":55093070},{"NoteNumber":73,"Velocity":58,"Duration":309278,"SoundDuration":309278,"Delta":55093070},{"NoteNumber":59,"Velocity":55,"Duration":154639,"SoundDuration":154639,"Delta":55093070},{"NoteNumber":75,"Velocity":54,"Duration":295566,"SoundDuration":295566,"Delta":55402349},{"NoteNumber":87,"Velocity":61,"Duration":295566,"SoundDuration":295566,"Delta":55402349},{"NoteNumber":59,"Velocity":56,"Duration":295566,"SoundDuration":295566,"Delta":55402349},{"NoteNumber":80,"Velocity":64,"Duration":303030,"SoundDuration":303030,"Delta":55697915},{"NoteNumber":92,"Velocity":72,"Duration":303030,"SoundDuration":303030,"Delta":55697915},{"NoteNumber":47,"Velocity":51,"Duration":151515,"SoundDuration":151515,"Delta":55697915},{"NoteNumber":78,"Velocity":61,"Duration":328155,"SoundDuration":328155,"Delta":56000946},{"NoteNumber":90,"Velocity":68,"Duration":328155,"SoundDuration":328155,"Delta":56000946},{"NoteNumber":63,"Velocity":47,"Duration":164078,"SoundDuration":164078,"Delta":56000946},{"NoteNumber":59,"Velocity":47,"Duration":164078,"SoundDuration":164078,"Delta":56000946},{"NoteNumber":69,"Velocity":47,"Duration":164078,"SoundDuration":164078,"Delta":56000946},{"NoteNumber":80,"Velocity":49,"Duration":383582,"SoundDuration":383582,"Delta":56329102},{"NoteNumber":68,"Velocity":49,"Duration":383582,"SoundDuration":383582,"Delta":56329102},{"NoteNumber":52,"Velocity":42,"Duration":191791,"SoundDuration":191791,"Delta":56329102},{"NoteNumber":58,"Velocity":34,"Duration":96309,"SoundDuration":96309,"Delta":56712684},{"NoteNumber":59,"Velocity":34,"Duration":98588,"SoundDuration":98588,"Delta":56789462},{"NoteNumber":61,"Velocity":34,"Duration":80485,"SoundDuration":80485,"Delta":56868050},{"NoteNumber":68,"Velocity":49,"Duration":942833,"SoundDuration":942833,"Delta":56948536},{"NoteNumber":80,"Velocity":49,"Duration":942833,"SoundDuration":942833,"Delta":56948536},{"NoteNumber":59,"Velocity":46,"Duration":166777,"SoundDuration":166777,"Delta":56948536},{"NoteNumber":59,"Velocity":41,"Duration":299999,"SoundDuration":299999,"Delta":57282092},{"NoteNumber":47,"Velocity":41,"Duration":154639,"SoundDuration":154639,"Delta":57582092},{"NoteNumber":80,"Velocity":45,"Duration":328155,"SoundDuration":328155,"Delta":57891370},{"NoteNumber":68,"Velocity":45,"Duration":328155,"SoundDuration":328155,"Delta":57891370},{"NoteNumber":59,"Velocity":37,"Duration":164078,"SoundDuration":164078,"Delta":57891370},{"NoteNumber":53,"Velocity":37,"Duration":164078,"SoundDuration":164078,"Delta":57891370},{"NoteNumber":62,"Velocity":37,"Duration":164078,"SoundDuration":164078,"Delta":57891370},{"NoteNumber":83,"Velocity":49,"Duration":314135,"SoundDuration":314135,"Delta":58219526},{"NoteNumber":71,"Velocity":49,"Duration":314135,"SoundDuration":314135,"Delta":58219526},{"NoteNumber":54,"Velocity":42,"Duration":157068,"SoundDuration":157068,"Delta":58219526},{"NoteNumber":81,"Velocity":49,"Duration":304568,"SoundDuration":304568,"Delta":58533662},{"NoteNumber":69,"Velocity":49,"Duration":304568,"SoundDuration":304568,"Delta":58533662},{"NoteNumber":58,"Velocity":34,"Duration":126903,"SoundDuration":126903,"Delta":58533662},{"NoteNumber":59,"Velocity":34,"Duration":126903,"SoundDuration":126903,"Delta":58635185},{"NoteNumber":61,"Velocity":34,"Duration":101522,"SoundDuration":101522,"Delta":58736708},{"NoteNumber":73,"Velocity":51,"Duration":317460,"SoundDuration":317460,"Delta":58838231},{"NoteNumber":85,"Velocity":51,"Duration":317460,"SoundDuration":317460,"Delta":58838231},{"NoteNumber":59,"Velocity":46,"Duration":158730,"SoundDuration":158730,"Delta":58838231},{"NoteNumber":75,"Velocity":48,"Duration":255102,"SoundDuration":255102,"Delta":59155691},{"NoteNumber":87,"Velocity":48,"Duration":255102,"SoundDuration":255102,"Delta":59155691},{"NoteNumber":59,"Velocity":46,"Duration":340136,"SoundDuration":340136,"Delta":59155691},{"NoteNumber":80,"Velocity":48,"Duration":407614,"SoundDuration":407614,"Delta":59410793},{"NoteNumber":92,"Velocity":55,"Duration":322580,"SoundDuration":322580,"Delta":59495827},{"NoteNumber":47,"Velocity":48,"Duration":161290,"SoundDuration":161290,"Delta":59495827},{"NoteNumber":90,"Velocity":52,"Duration":343249,"SoundDuration":343249,"Delta":59818408},{"NoteNumber":78,"Velocity":52,"Duration":343249,"SoundDuration":343249,"Delta":59818408},{"NoteNumber":63,"Velocity":43,"Duration":171624,"SoundDuration":171624,"Delta":59818408},{"NoteNumber":59,"Velocity":43,"Duration":171624,"SoundDuration":171624,"Delta":59818408},{"NoteNumber":69,"Velocity":43,"Duration":171624,"SoundDuration":171624,"Delta":59818408},{"NoteNumber":80,"Velocity":63,"Duration":594423,"SoundDuration":594423,"Delta":60161657},{"NoteNumber":68,"Velocity":53,"Duration":594423,"SoundDuration":594423,"Delta":60161657},{"NoteNumber":64,"Velocity":69,"Duration":304568,"SoundDuration":304568,"Delta":60161657},{"NoteNumber":63,"Velocity":56,"Duration":120772,"SoundDuration":120772,"Delta":60466226},{"NoteNumber":64,"Velocity":56,"Duration":120772,"SoundDuration":120772,"Delta":60562844},{"NoteNumber":63,"Velocity":56,"Duration":96618,"SoundDuration":96618,"Delta":60659462},{"NoteNumber":80,"Velocity":58,"Duration":615530,"SoundDuration":615530,"Delta":60756081},{"NoteNumber":68,"Velocity":49,"Duration":615530,"SoundDuration":615530,"Delta":60756081},{"NoteNumber":78,"Velocity":58,"Duration":615530,"SoundDuration":615530,"Delta":60756081},{"NoteNumber":62,"Velocity":66,"Duration":312500,"SoundDuration":312500,"Delta":60756081},{"NoteNumber":63,"Velocity":53,"Duration":303030,"SoundDuration":303030,"Delta":61068581},{"NoteNumber":68,"Velocity":56,"Duration":934626,"SoundDuration":934626,"Delta":61371611},{"NoteNumber":76,"Velocity":66,"Duration":631596,"SoundDuration":631596,"Delta":61371611},{"NoteNumber":80,"Velocity":66,"Duration":934626,"SoundDuration":934626,"Delta":61371611},{"NoteNumber":60,"Velocity":60,"Duration":317460,"SoundDuration":317460,"Delta":61371611},{"NoteNumber":56,"Velocity":55,"Duration":314135,"SoundDuration":314135,"Delta":61689072},{"NoteNumber":77,"Velocity":66,"Duration":303030,"SoundDuration":303030,"Delta":62003208},{"NoteNumber":61,"Velocity":60,"Duration":303030,"SoundDuration":303030,"Delta":62003208},{"NoteNumber":72,"Velocity":57,"Duration":292682,"SoundDuration":292682,"Delta":62306238},{"NoteNumber":66,"Velocity":48,"Duration":292682,"SoundDuration":292682,"Delta":62306238},{"NoteNumber":75,"Velocity":57,"Duration":292682,"SoundDuration":292682,"Delta":62306238},{"NoteNumber":57,"Velocity":55,"Duration":292682,"SoundDuration":292682,"Delta":62306238},{"NoteNumber":65,"Velocity":53,"Duration":319149,"SoundDuration":319149,"Delta":62598921},{"NoteNumber":73,"Velocity":63,"Duration":319149,"SoundDuration":319149,"Delta":62598921},{"NoteNumber":58,"Velocity":58,"Duration":319149,"SoundDuration":319149,"Delta":62598921},{"NoteNumber":72,"Velocity":56,"Duration":303030,"SoundDuration":303030,"Delta":62918070},{"NoteNumber":69,"Velocity":56,"Duration":303030,"SoundDuration":303030,"Delta":62918070},{"NoteNumber":63,"Velocity":47,"Duration":303030,"SoundDuration":303030,"Delta":62918070},{"NoteNumber":53,"Velocity":54,"Duration":303030,"SoundDuration":303030,"Delta":62918070},{"NoteNumber":61,"Velocity":51,"Duration":309278,"SoundDuration":309278,"Delta":63221101},{"NoteNumber":70,"Velocity":60,"Duration":309278,"SoundDuration":309278,"Delta":63221101},{"NoteNumber":54,"Velocity":57,"Duration":309278,"SoundDuration":309278,"Delta":63221101},{"NoteNumber":68,"Velocity":53,"Duration":327868,"SoundDuration":327868,"Delta":63530379},{"NoteNumber":65,"Velocity":53,"Duration":327868,"SoundDuration":327868,"Delta":63530379},{"NoteNumber":50,"Velocity":53,"Duration":327868,"SoundDuration":327868,"Delta":63530379},{"NoteNumber":59,"Velocity":53,"Duration":327868,"SoundDuration":327868,"Delta":63530379},{"NoteNumber":66,"Velocity":58,"Duration":310881,"SoundDuration":310881,"Delta":63858248},{"NoteNumber":58,"Velocity":49,"Duration":1858018,"SoundDuration":1858018,"Delta":63858248},{"NoteNumber":51,"Velocity":49,"Duration":1858018,"SoundDuration":1858018,"Delta":63858248},{"NoteNumber":68,"Velocity":55,"Duration":298507,"SoundDuration":298507,"Delta":64169129},{"NoteNumber":69,"Velocity":55,"Duration":315789,"SoundDuration":315789,"Delta":64467637},{"NoteNumber":70,"Velocity":60,"Duration":304568,"SoundDuration":304568,"Delta":64783426},{"NoteNumber":73,"Velocity":65,"Duration":314136,"SoundDuration":314136,"Delta":65087995},{"NoteNumber":66,"Velocity":58,"Duration":235602,"SoundDuration":235602,"Delta":65402131},{"NoteNumber":60,"Velocity":50,"Duration":631707,"SoundDuration":631707,"Delta":65637733},{"NoteNumber":66,"Velocity":51,"Duration":592440,"SoundDuration":592440,"Delta":65677000},{"NoteNumber":70,"Velocity":58,"Duration":553173,"SoundDuration":553173,"Delta":65716267},{"NoteNumber":44,"Velocity":50,"Duration":340908,"SoundDuration":340908,"Delta":65716267},{"NoteNumber":55,"Velocity":41,"Duration":117924,"SoundDuration":117924,"Delta":66057176},{"NoteNumber":56,"Velocity":41,"Duration":117924,"SoundDuration":117924,"Delta":66151515},{"NoteNumber":58,"Velocity":40,"Duration":94339,"SoundDuration":94339,"Delta":66245855},{"NoteNumber":66,"Velocity":48,"Duration":1433477,"SoundDuration":1433477,"Delta":66269440},{"NoteNumber":77,"Velocity":58,"Duration":1022586,"SoundDuration":1022586,"Delta":66340195},{"NoteNumber":56,"Velocity":50,"Duration":331748,"SoundDuration":331748,"Delta":66340195},{"NoteNumber":56,"Velocity":50,"Duration":359712,"SoundDuration":359712,"Delta":66671943},{"NoteNumber":44,"Velocity":46,"Duration":671261,"SoundDuration":671261,"Delta":67031655},{"NoteNumber":72,"Velocity":53,"Duration":340136,"SoundDuration":340136,"Delta":67362781},{"NoteNumber":56,"Velocity":43,"Duration":340136,"SoundDuration":340136,"Delta":67362781},{"NoteNumber":49,"Velocity":40,"Duration":1161632,"SoundDuration":1161632,"Delta":67702917},{"NoteNumber":68,"Velocity":46,"Duration":94133,"SoundDuration":94133,"Delta":68012419},{"NoteNumber":65,"Velocity":46,"Duration":96535,"SoundDuration":96535,"Delta":68087468},{"NoteNumber":61,"Velocity":46,"Duration":107004,"SoundDuration":107004,"Delta":68164396},{"NoteNumber":56,"Velocity":52,"Duration":167691,"SoundDuration":167691,"Delta":68243452},{"NoteNumber":61,"Velocity":39,"Duration":587221,"SoundDuration":587221,"Delta":68578835},{"NoteNumber":68,"Velocity":48,"Duration":587221,"SoundDuration":587221,"Delta":68578835},{"NoteNumber":65,"Velocity":46,"Duration":587221,"SoundDuration":587221,"Delta":68578835},{"NoteNumber":56,"Velocity":39,"Duration":587221,"SoundDuration":587221,"Delta":68578835},{"NoteNumber":44,"Velocity":40,"Duration":301507,"SoundDuration":301507,"Delta":68864549},{"NoteNumber":65,"Velocity":51,"Duration":328156,"SoundDuration":328156,"Delta":69166057},{"NoteNumber":68,"Velocity":51,"Duration":328156,"SoundDuration":328156,"Delta":69166057},{"NoteNumber":59,"Velocity":43,"Duration":328156,"SoundDuration":328156,"Delta":69166057},{"NoteNumber":56,"Velocity":43,"Duration":328156,"SoundDuration":328156,"Delta":69166057},{"NoteNumber":50,"Velocity":47,"Duration":328156,"SoundDuration":328156,"Delta":69166057},{"NoteNumber":51,"Velocity":58,"Duration":1163011,"SoundDuration":1163011,"Delta":69494213},{"NoteNumber":68,"Velocity":46,"Duration":94206,"SoundDuration":94206,"Delta":69803714},{"NoteNumber":66,"Velocity":46,"Duration":96758,"SoundDuration":96758,"Delta":69878764},{"NoteNumber":60,"Velocity":46,"Duration":107166,"SoundDuration":107166,"Delta":69955838},{"NoteNumber":56,"Velocity":52,"Duration":166777,"SoundDuration":166777,"Delta":70035208},{"NoteNumber":56,"Velocity":41,"Duration":589968,"SoundDuration":589968,"Delta":70368763},{"NoteNumber":60,"Velocity":41,"Duration":589968,"SoundDuration":589968,"Delta":70368763},{"NoteNumber":66,"Velocity":49,"Duration":589968,"SoundDuration":589968,"Delta":70368763},{"NoteNumber":68,"Velocity":51,"Duration":589968,"SoundDuration":589968,"Delta":70368763},{"NoteNumber":44,"Velocity":47,"Duration":301507,"SoundDuration":301507,"Delta":70657225},{"NoteNumber":64,"Velocity":45,"Duration":344787,"SoundDuration":344787,"Delta":70958732},{"NoteNumber":56,"Velocity":38,"Duration":344787,"SoundDuration":344787,"Delta":70958732},{"NoteNumber":68,"Velocity":45,"Duration":344787,"SoundDuration":344787,"Delta":70958732},{"NoteNumber":48,"Velocity":42,"Duration":344787,"SoundDuration":344787,"Delta":70958732},{"NoteNumber":49,"Velocity":27,"Duration":1167184,"SoundDuration":1167184,"Delta":71303520},{"NoteNumber":68,"Velocity":27,"Duration":94629,"SoundDuration":94629,"Delta":71613022},{"NoteNumber":65,"Velocity":27,"Duration":96681,"SoundDuration":96681,"Delta":71688494},{"NoteNumber":61,"Velocity":27,"Duration":106694,"SoundDuration":106694,"Delta":71765568},{"NoteNumber":56,"Velocity":30,"Duration":166777,"SoundDuration":166777,"Delta":71844466},{"NoteNumber":56,"Velocity":27,"Duration":594190,"SoundDuration":594190,"Delta":72178022},{"NoteNumber":61,"Velocity":27,"Duration":594190,"SoundDuration":594190,"Delta":72178022},{"NoteNumber":65,"Velocity":27,"Duration":594190,"SoundDuration":594190,"Delta":72178022},{"NoteNumber":68,"Velocity":28,"Duration":594190,"SoundDuration":594190,"Delta":72178022},{"NoteNumber":44,"Velocity":27,"Duration":301507,"SoundDuration":301507,"Delta":72470705},{"NoteNumber":59,"Velocity":26,"Duration":328156,"SoundDuration":328156,"Delta":72772212},{"NoteNumber":68,"Velocity":26,"Duration":328156,"SoundDuration":328156,"Delta":72772212},{"NoteNumber":65,"Velocity":26,"Duration":328156,"SoundDuration":328156,"Delta":72772212},{"NoteNumber":56,"Velocity":26,"Duration":328156,"SoundDuration":328156,"Delta":72772212},{"NoteNumber":50,"Velocity":31,"Duration":328156,"SoundDuration":328156,"Delta":72772212},{"NoteNumber":51,"Velocity":36,"Duration":1198792,"SoundDuration":1198792,"Delta":73100368},{"NoteNumber":68,"Velocity":27,"Duration":96681,"SoundDuration":96681,"Delta":73409870},{"NoteNumber":66,"Velocity":27,"Duration":98978,"SoundDuration":98978,"Delta":73486944},{"NoteNumber":60,"Velocity":27,"Duration":108759,"SoundDuration":108759,"Delta":73565842},{"NoteNumber":56,"Velocity":30,"Duration":167691,"SoundDuration":167691,"Delta":73646653},{"NoteNumber":56,"Velocity":31,"Duration":642504,"SoundDuration":642504,"Delta":73982036},{"NoteNumber":60,"Velocity":31,"Duration":642504,"SoundDuration":642504,"Delta":73982036},{"NoteNumber":68,"Velocity":31,"Duration":642504,"SoundDuration":642504,"Delta":73982036},{"NoteNumber":66,"Velocity":31,"Duration":642504,"SoundDuration":642504,"Delta":73982036},{"NoteNumber":44,"Velocity":31,"Duration":325379,"SoundDuration":325379,"Delta":74299160},{"NoteNumber":56,"Velocity":31,"Duration":337078,"SoundDuration":337078,"Delta":74624540},{"NoteNumber":64,"Velocity":31,"Duration":337078,"SoundDuration":337078,"Delta":74624540},{"NoteNumber":68,"Velocity":31,"Duration":337078,"SoundDuration":337078,"Delta":74624540},{"NoteNumber":48,"Velocity":34,"Duration":337078,"SoundDuration":337078,"Delta":74624540},{"NoteNumber":64,"Velocity":40,"Duration":155440,"SoundDuration":155440,"Delta":74961618},{"NoteNumber":68,"Velocity":40,"Duration":155440,"SoundDuration":155440,"Delta":74961618},{"NoteNumber":61,"Velocity":63,"Duration":310880,"SoundDuration":310880,"Delta":74961618},{"NoteNumber":64,"Velocity":41,"Duration":140186,"SoundDuration":140186,"Delta":75272499},{"NoteNumber":68,"Velocity":41,"Duration":140186,"SoundDuration":140186,"Delta":75272499},{"NoteNumber":59,"Velocity":56,"Duration":116822,"SoundDuration":116822,"Delta":75272499},{"NoteNumber":61,"Velocity":56,"Duration":116822,"SoundDuration":116822,"Delta":75365957},{"NoteNumber":59,"Velocity":56,"Duration":93457,"SoundDuration":93457,"Delta":75459415},{"NoteNumber":64,"Velocity":40,"Duration":150000,"SoundDuration":150000,"Delta":75552873},{"NoteNumber":68,"Velocity":40,"Duration":150000,"SoundDuration":150000,"Delta":75552873},{"NoteNumber":57,"Velocity":62,"Duration":299999,"SoundDuration":299999,"Delta":75552873},{"NoteNumber":64,"Velocity":42,"Duration":146341,"SoundDuration":146341,"Delta":75852873},{"NoteNumber":68,"Velocity":42,"Duration":146341,"SoundDuration":146341,"Delta":75852873},{"NoteNumber":59,"Velocity":56,"Duration":292682,"SoundDuration":292682,"Delta":75852873},{"NoteNumber":64,"Velocity":45,"Duration":150753,"SoundDuration":150753,"Delta":76145556},{"NoteNumber":68,"Velocity":45,"Duration":150753,"SoundDuration":150753,"Delta":76145556},{"NoteNumber":61,"Velocity":63,"Duration":301507,"SoundDuration":301507,"Delta":76145556},{"NoteNumber":64,"Velocity":48,"Duration":147058,"SoundDuration":147058,"Delta":76447064},{"NoteNumber":68,"Velocity":48,"Duration":147058,"SoundDuration":147058,"Delta":76447064},{"NoteNumber":63,"Velocity":58,"Duration":294117,"SoundDuration":294117,"Delta":76447064},{"NoteNumber":64,"Velocity":50,"Duration":156250,"SoundDuration":156250,"Delta":76741181},{"NoteNumber":68,"Velocity":50,"Duration":156250,"SoundDuration":156250,"Delta":76741181},{"NoteNumber":61,"Velocity":68,"Duration":312500,"SoundDuration":312500,"Delta":76741181},{"NoteNumber":64,"Velocity":45,"Duration":135135,"SoundDuration":135135,"Delta":77053681},{"NoteNumber":68,"Velocity":45,"Duration":135135,"SoundDuration":135135,"Delta":77053681},{"NoteNumber":60,"Velocity":52,"Duration":112612,"SoundDuration":112612,"Delta":77053681},{"NoteNumber":61,"Velocity":52,"Duration":112612,"SoundDuration":112612,"Delta":77143772},{"NoteNumber":60,"Velocity":52,"Duration":90090,"SoundDuration":90090,"Delta":77233862},{"NoteNumber":64,"Velocity":47,"Duration":153061,"SoundDuration":153061,"Delta":77323952},{"NoteNumber":68,"Velocity":47,"Duration":153061,"SoundDuration":153061,"Delta":77323952},{"NoteNumber":56,"Velocity":57,"Duration":1225063,"SoundDuration":1225063,"Delta":77323952},{"NoteNumber":64,"Velocity":32,"Duration":148514,"SoundDuration":148514,"Delta":77630074},{"NoteNumber":68,"Velocity":32,"Duration":148514,"SoundDuration":148514,"Delta":77630074},{"NoteNumber":64,"Velocity":29,"Duration":153061,"SoundDuration":153061,"Delta":77927104},{"NoteNumber":68,"Velocity":29,"Duration":153061,"SoundDuration":153061,"Delta":77927104},{"NoteNumber":64,"Velocity":28,"Duration":157894,"SoundDuration":157894,"Delta":78233226},{"NoteNumber":68,"Velocity":28,"Duration":157894,"SoundDuration":157894,"Delta":78233226},{"NoteNumber":76,"Velocity":33,"Duration":3543998,"SoundDuration":3543998,"Delta":78549016},{"NoteNumber":64,"Velocity":24,"Duration":150000,"SoundDuration":150000,"Delta":78549016},{"NoteNumber":68,"Velocity":24,"Duration":150000,"SoundDuration":150000,"Delta":78549016},{"NoteNumber":61,"Velocity":34,"Duration":299999,"SoundDuration":299999,"Delta":78549016},{"NoteNumber":64,"Velocity":24,"Duration":133333,"SoundDuration":133333,"Delta":78849016},{"NoteNumber":68,"Velocity":24,"Duration":133333,"SoundDuration":133333,"Delta":78849016},{"NoteNumber":59,"Velocity":30,"Duration":111111,"SoundDuration":111111,"Delta":78849016},{"NoteNumber":61,"Velocity":30,"Duration":111111,"SoundDuration":111111,"Delta":78937905},{"NoteNumber":59,"Velocity":30,"Duration":88888,"SoundDuration":88888,"Delta":79026794},{"NoteNumber":64,"Velocity":24,"Duration":150000,"SoundDuration":150000,"Delta":79115682},{"NoteNumber":68,"Velocity":24,"Duration":150000,"SoundDuration":150000,"Delta":79115682},{"NoteNumber":57,"Velocity":33,"Duration":299999,"SoundDuration":299999,"Delta":79115682},{"NoteNumber":64,"Velocity":24,"Duration":146341,"SoundDuration":146341,"Delta":79415682},{"NoteNumber":68,"Velocity":24,"Duration":146341,"SoundDuration":146341,"Delta":79415682},{"NoteNumber":59,"Velocity":30,"Duration":292682,"SoundDuration":292682,"Delta":79415682},{"NoteNumber":64,"Velocity":27,"Duration":150753,"SoundDuration":150753,"Delta":79708365},{"NoteNumber":68,"Velocity":27,"Duration":150753,"SoundDuration":150753,"Delta":79708365},{"NoteNumber":61,"Velocity":34,"Duration":301507,"SoundDuration":301507,"Delta":79708365},{"NoteNumber":64,"Velocity":28,"Duration":147058,"SoundDuration":147058,"Delta":80009873},{"NoteNumber":68,"Velocity":28,"Duration":147058,"SoundDuration":147058,"Delta":80009873},{"NoteNumber":63,"Velocity":31,"Duration":294117,"SoundDuration":294117,"Delta":80009873},{"NoteNumber":64,"Velocity":30,"Duration":152284,"SoundDuration":152284,"Delta":80303990},{"NoteNumber":68,"Velocity":30,"Duration":152284,"SoundDuration":152284,"Delta":80303990},{"NoteNumber":61,"Velocity":39,"Duration":304568,"SoundDuration":304568,"Delta":80303990},{"NoteNumber":64,"Velocity":27,"Duration":134529,"SoundDuration":134529,"Delta":80608559},{"NoteNumber":68,"Velocity":27,"Duration":134529,"SoundDuration":134529,"Delta":80608559},{"NoteNumber":60,"Velocity":28,"Duration":112107,"SoundDuration":112107,"Delta":80608559},{"NoteNumber":61,"Velocity":28,"Duration":112107,"SoundDuration":112107,"Delta":80698245},{"NoteNumber":60,"Velocity":28,"Duration":89686,"SoundDuration":89686,"Delta":80787931},{"NoteNumber":64,"Velocity":27,"Duration":153061,"SoundDuration":153061,"Delta":80877617},{"NoteNumber":68,"Velocity":27,"Duration":153061,"SoundDuration":153061,"Delta":80877617},{"NoteNumber":56,"Velocity":30,"Duration":1215396,"SoundDuration":1215396,"Delta":80877617},{"NoteNumber":64,"Velocity":23,"Duration":148514,"SoundDuration":148514,"Delta":81183740},{"NoteNumber":68,"Velocity":23,"Duration":148514,"SoundDuration":148514,"Delta":81183740},{"NoteNumber":64,"Velocity":21,"Duration":153061,"SoundDuration":153061,"Delta":81480769},{"NoteNumber":68,"Velocity":21,"Duration":153061,"SoundDuration":153061,"Delta":81480769},{"NoteNumber":64,"Velocity":21,"Duration":153061,"SoundDuration":153061,"Delta":81786892},{"NoteNumber":68,"Velocity":21,"Duration":153061,"SoundDuration":153061,"Delta":81786892},{"NoteNumber":69,"Velocity":54,"Duration":1148700,"SoundDuration":1148700,"Delta":82093014},{"NoteNumber":76,"Velocity":73,"Duration":298507,"SoundDuration":298507,"Delta":82093014},{"NoteNumber":54,"Velocity":46,"Duration":1148700,"SoundDuration":1148700,"Delta":82093014},{"NoteNumber":61,"Velocity":52,"Duration":1148700,"SoundDuration":1148700,"Delta":82093014},{"NoteNumber":75,"Velocity":64,"Duration":107296,"SoundDuration":107296,"Delta":82391522},{"NoteNumber":76,"Velocity":63,"Duration":107296,"SoundDuration":107296,"Delta":82477359},{"NoteNumber":75,"Velocity":63,"Duration":85836,"SoundDuration":85836,"Delta":82563196},{"NoteNumber":73,"Velocity":74,"Duration":299999,"SoundDuration":299999,"Delta":82649032},{"NoteNumber":75,"Velocity":63,"Duration":292682,"SoundDuration":292682,"Delta":82949032},{"NoteNumber":64,"Velocity":50,"Duration":595624,"SoundDuration":595624,"Delta":83241715},{"NoteNumber":76,"Velocity":70,"Duration":301507,"SoundDuration":301507,"Delta":83241715},{"NoteNumber":49,"Velocity":47,"Duration":595624,"SoundDuration":595624,"Delta":83241715},{"NoteNumber":56,"Velocity":47,"Duration":595624,"SoundDuration":595624,"Delta":83241715},{"NoteNumber":73,"Velocity":62,"Duration":294117,"SoundDuration":294117,"Delta":83543223},{"NoteNumber":69,"Velocity":38,"Duration":1149810,"SoundDuration":1149810,"Delta":83837340},{"NoteNumber":76,"Velocity":47,"Duration":298507,"SoundDuration":298507,"Delta":83837340},{"NoteNumber":54,"Velocity":37,"Duration":1149810,"SoundDuration":1149810,"Delta":83837340},{"NoteNumber":61,"Velocity":37,"Duration":1149810,"SoundDuration":1149810,"Delta":83837340},{"NoteNumber":75,"Velocity":42,"Duration":107758,"SoundDuration":107758,"Delta":84135848},{"NoteNumber":76,"Velocity":41,"Duration":107758,"SoundDuration":107758,"Delta":84222055},{"NoteNumber":75,"Velocity":41,"Duration":86206,"SoundDuration":86206,"Delta":84308262},{"NoteNumber":73,"Velocity":48,"Duration":299999,"SoundDuration":299999,"Delta":84394468},{"NoteNumber":75,"Velocity":41,"Duration":292682,"SoundDuration":292682,"Delta":84694468},{"NoteNumber":64,"Velocity":35,"Duration":595624,"SoundDuration":595624,"Delta":84987151},{"NoteNumber":76,"Velocity":45,"Duration":301507,"SoundDuration":301507,"Delta":84987151},{"NoteNumber":49,"Velocity":33,"Duration":595624,"SoundDuration":595624,"Delta":84987151},{"NoteNumber":56,"Velocity":33,"Duration":595624,"SoundDuration":595624,"Delta":84987151},{"NoteNumber":73,"Velocity":40,"Duration":294117,"SoundDuration":294117,"Delta":85288659},{"NoteNumber":64,"Velocity":38,"Duration":557128,"SoundDuration":557128,"Delta":85582776},{"NoteNumber":71,"Velocity":47,"Duration":298507,"SoundDuration":298507,"Delta":85582776},{"NoteNumber":56,"Velocity":37,"Duration":3256424,"SoundDuration":3256424,"Delta":85582776},{"NoteNumber":63,"Velocity":41,"Duration":298507,"SoundDuration":298507,"Delta":85582776},{"NoteNumber":69,"Velocity":42,"Duration":107758,"SoundDuration":107758,"Delta":85881284},{"NoteNumber":61,"Velocity":37,"Duration":258620,"SoundDuration":258620,"Delta":85881284},{"NoteNumber":71,"Velocity":41,"Duration":107758,"SoundDuration":107758,"Delta":85967491},{"NoteNumber":69,"Velocity":41,"Duration":86206,"SoundDuration":86206,"Delta":86053698},{"NoteNumber":63,"Velocity":35,"Duration":299999,"SoundDuration":299999,"Delta":86139904},{"NoteNumber":68,"Velocity":48,"Duration":592682,"SoundDuration":592682,"Delta":86139904},{"NoteNumber":60,"Velocity":41,"Duration":592682,"SoundDuration":592682,"Delta":86139904},{"NoteNumber":63,"Velocity":39,"Duration":292682,"SoundDuration":292682,"Delta":86439904},{"NoteNumber":64,"Velocity":41,"Duration":294117,"SoundDuration":294117,"Delta":86732587},{"NoteNumber":69,"Velocity":46,"Duration":294117,"SoundDuration":294117,"Delta":86732587},{"NoteNumber":61,"Velocity":34,"Duration":294117,"SoundDuration":294117,"Delta":86732587},{"NoteNumber":66,"Velocity":44,"Duration":301507,"SoundDuration":301507,"Delta":87026705},{"NoteNumber":71,"Velocity":49,"Duration":301507,"SoundDuration":301507,"Delta":87026705},{"NoteNumber":63,"Velocity":36,"Duration":301507,"SoundDuration":301507,"Delta":87026705},{"NoteNumber":68,"Velocity":46,"Duration":292682,"SoundDuration":292682,"Delta":87328212},{"NoteNumber":73,"Velocity":52,"Duration":292682,"SoundDuration":292682,"Delta":87328212},{"NoteNumber":64,"Velocity":39,"Duration":292682,"SoundDuration":292682,"Delta":87328212},{"NoteNumber":66,"Velocity":44,"Duration":303030,"SoundDuration":303030,"Delta":87620895},{"NoteNumber":71,"Velocity":49,"Duration":303030,"SoundDuration":303030,"Delta":87620895},{"NoteNumber":63,"Velocity":36,"Duration":303030,"SoundDuration":303030,"Delta":87620895},{"NoteNumber":64,"Velocity":43,"Duration":303030,"SoundDuration":303030,"Delta":87923926},{"NoteNumber":69,"Velocity":48,"Duration":303030,"SoundDuration":303030,"Delta":87923926},{"NoteNumber":61,"Velocity":39,"Duration":303030,"SoundDuration":303030,"Delta":87923926},{"NoteNumber":66,"Velocity":41,"Duration":306122,"SoundDuration":306122,"Delta":88226956},{"NoteNumber":71,"Velocity":46,"Duration":306122,"SoundDuration":306122,"Delta":88226956},{"NoteNumber":63,"Velocity":34,"Duration":306122,"SoundDuration":306122,"Delta":88226956},{"NoteNumber":63,"Velocity":40,"Duration":612245,"SoundDuration":612245,"Delta":88533079},{"NoteNumber":68,"Velocity":45,"Duration":612245,"SoundDuration":612245,"Delta":88533079},{"NoteNumber":60,"Velocity":37,"Duration":306122,"SoundDuration":306122,"Delta":88533079},{"NoteNumber":56,"Velocity":34,"Duration":306122,"SoundDuration":306122,"Delta":88839201},{"NoteNumber":64,"Velocity":30,"Duration":155440,"SoundDuration":155440,"Delta":89145324},{"NoteNumber":68,"Velocity":30,"Duration":155440,"SoundDuration":155440,"Delta":89145324},{"NoteNumber":61,"Velocity":48,"Duration":310880,"SoundDuration":310880,"Delta":89145324},{"NoteNumber":64,"Velocity":30,"Duration":134529,"SoundDuration":134529,"Delta":89456205},{"NoteNumber":68,"Velocity":30,"Duration":134529,"SoundDuration":134529,"Delta":89456205},{"NoteNumber":59,"Velocity":41,"Duration":112107,"SoundDuration":112107,"Delta":89456205},{"NoteNumber":61,"Velocity":41,"Duration":112107,"SoundDuration":112107,"Delta":89545891},{"NoteNumber":59,"Velocity":41,"Duration":89686,"SoundDuration":89686,"Delta":89635577},{"NoteNumber":64,"Velocity":30,"Duration":150000,"SoundDuration":150000,"Delta":89725263},{"NoteNumber":68,"Velocity":30,"Duration":150000,"SoundDuration":150000,"Delta":89725263},{"NoteNumber":57,"Velocity":47,"Duration":299999,"SoundDuration":299999,"Delta":89725263},{"NoteNumber":64,"Velocity":31,"Duration":146341,"SoundDuration":146341,"Delta":90025263},{"NoteNumber":68,"Velocity":31,"Duration":146341,"SoundDuration":146341,"Delta":90025263},{"NoteNumber":59,"Velocity":41,"Duration":292682,"SoundDuration":292682,"Delta":90025263},{"NoteNumber":64,"Velocity":34,"Duration":150753,"SoundDuration":150753,"Delta":90317946},{"NoteNumber":68,"Velocity":34,"Duration":150753,"SoundDuration":150753,"Delta":90317946},{"NoteNumber":61,"Velocity":48,"Duration":301507,"SoundDuration":301507,"Delta":90317946},{"NoteNumber":64,"Velocity":36,"Duration":147058,"SoundDuration":147058,"Delta":90619454},{"NoteNumber":68,"Velocity":36,"Duration":147058,"SoundDuration":147058,"Delta":90619454},{"NoteNumber":63,"Velocity":43,"Duration":294117,"SoundDuration":294117,"Delta":90619454},{"NoteNumber":64,"Velocity":38,"Duration":152284,"SoundDuration":152284,"Delta":90913571},{"NoteNumber":68,"Velocity":38,"Duration":152284,"SoundDuration":152284,"Delta":90913571},{"NoteNumber":61,"Velocity":53,"Duration":304568,"SoundDuration":304568,"Delta":90913571},{"NoteNumber":64,"Velocity":34,"Duration":135135,"SoundDuration":135135,"Delta":91218140},{"NoteNumber":68,"Velocity":34,"Duration":135135,"SoundDuration":135135,"Delta":91218140},{"NoteNumber":60,"Velocity":39,"Duration":112612,"SoundDuration":112612,"Delta":91218140},{"NoteNumber":61,"Velocity":39,"Duration":112612,"SoundDuration":112612,"Delta":91308230},{"NoteNumber":60,"Velocity":39,"Duration":90090,"SoundDuration":90090,"Delta":91398320},{"NoteNumber":64,"Velocity":35,"Duration":153061,"SoundDuration":153061,"Delta":91488410},{"NoteNumber":68,"Velocity":35,"Duration":153061,"SoundDuration":153061,"Delta":91488410},{"NoteNumber":56,"Velocity":42,"Duration":1225063,"SoundDuration":1225063,"Delta":91488410},{"NoteNumber":64,"Velocity":25,"Duration":148514,"SoundDuration":148514,"Delta":91794533},{"NoteNumber":68,"Velocity":25,"Duration":148514,"SoundDuration":148514,"Delta":91794533},{"NoteNumber":64,"Velocity":24,"Duration":153061,"SoundDuration":153061,"Delta":92091562},{"NoteNumber":68,"Velocity":24,"Duration":153061,"SoundDuration":153061,"Delta":92091562},{"NoteNumber":64,"Velocity":23,"Duration":157894,"SoundDuration":157894,"Delta":92397685},{"NoteNumber":68,"Velocity":23,"Duration":157894,"SoundDuration":157894,"Delta":92397685},{"NoteNumber":76,"Velocity":33,"Duration":3543998,"SoundDuration":3543998,"Delta":92713474},{"NoteNumber":64,"Velocity":24,"Duration":150000,"SoundDuration":150000,"Delta":92713474},{"NoteNumber":68,"Velocity":24,"Duration":150000,"SoundDuration":150000,"Delta":92713474},{"NoteNumber":61,"Velocity":34,"Duration":299999,"SoundDuration":299999,"Delta":92713474},{"NoteNumber":64,"Velocity":24,"Duration":133333,"SoundDuration":133333,"Delta":93013474},{"NoteNumber":68,"Velocity":24,"Duration":133333,"SoundDuration":133333,"Delta":93013474},{"NoteNumber":59,"Velocity":30,"Duration":111111,"SoundDuration":111111,"Delta":93013474},{"NoteNumber":61,"Velocity":30,"Duration":111111,"SoundDuration":111111,"Delta":93102363},{"NoteNumber":59,"Velocity":30,"Duration":88888,"SoundDuration":88888,"Delta":93191252},{"NoteNumber":64,"Velocity":24,"Duration":150000,"SoundDuration":150000,"Delta":93280141},{"NoteNumber":68,"Velocity":24,"Duration":150000,"SoundDuration":150000,"Delta":93280141},{"NoteNumber":57,"Velocity":33,"Duration":299999,"SoundDuration":299999,"Delta":93280141},{"NoteNumber":64,"Velocity":24,"Duration":146341,"SoundDuration":146341,"Delta":93580141},{"NoteNumber":68,"Velocity":24,"Duration":146341,"SoundDuration":146341,"Delta":93580141},{"NoteNumber":59,"Velocity":30,"Duration":292682,"SoundDuration":292682,"Delta":93580141},{"NoteNumber":64,"Velocity":27,"Duration":150753,"SoundDuration":150753,"Delta":93872824},{"NoteNumber":68,"Velocity":27,"Duration":150753,"SoundDuration":150753,"Delta":93872824},{"NoteNumber":61,"Velocity":34,"Duration":301507,"SoundDuration":301507,"Delta":93872824},{"NoteNumber":64,"Velocity":28,"Duration":147058,"SoundDuration":147058,"Delta":94174331},{"NoteNumber":68,"Velocity":28,"Duration":147058,"SoundDuration":147058,"Delta":94174331},{"NoteNumber":63,"Velocity":31,"Duration":294117,"SoundDuration":294117,"Delta":94174331},{"NoteNumber":64,"Velocity":30,"Duration":152284,"SoundDuration":152284,"Delta":94468449},{"NoteNumber":68,"Velocity":30,"Duration":152284,"SoundDuration":152284,"Delta":94468449},{"NoteNumber":61,"Velocity":39,"Duration":304568,"SoundDuration":304568,"Delta":94468449},{"NoteNumber":64,"Velocity":27,"Duration":134529,"SoundDuration":134529,"Delta":94773017},{"NoteNumber":68,"Velocity":27,"Duration":134529,"SoundDuration":134529,"Delta":94773017},{"NoteNumber":60,"Velocity":28,"Duration":112107,"SoundDuration":112107,"Delta":94773017},{"NoteNumber":61,"Velocity":28,"Duration":112107,"SoundDuration":112107,"Delta":94862704},{"NoteNumber":60,"Velocity":28,"Duration":89686,"SoundDuration":89686,"Delta":94952390},{"NoteNumber":64,"Velocity":27,"Duration":153061,"SoundDuration":153061,"Delta":95042076},{"NoteNumber":68,"Velocity":27,"Duration":153061,"SoundDuration":153061,"Delta":95042076},{"NoteNumber":56,"Velocity":30,"Duration":1215396,"SoundDuration":1215396,"Delta":95042076},{"NoteNumber":64,"Velocity":23,"Duration":148514,"SoundDuration":148514,"Delta":95348198},{"NoteNumber":68,"Velocity":23,"Duration":148514,"SoundDuration":148514,"Delta":95348198},{"NoteNumber":64,"Velocity":21,"Duration":153061,"SoundDuration":153061,"Delta":95645228},{"NoteNumber":68,"Velocity":21,"Duration":153061,"SoundDuration":153061,"Delta":95645228},{"NoteNumber":64,"Velocity":21,"Duration":153061,"SoundDuration":153061,"Delta":95951350},{"NoteNumber":68,"Velocity":21,"Duration":153061,"SoundDuration":153061,"Delta":95951350},{"NoteNumber":69,"Velocity":54,"Duration":1148700,"SoundDuration":1148700,"Delta":96257473},{"NoteNumber":76,"Velocity":73,"Duration":298507,"SoundDuration":298507,"Delta":96257473},{"NoteNumber":54,"Velocity":47,"Duration":1148700,"SoundDuration":1148700,"Delta":96257473},{"NoteNumber":61,"Velocity":52,"Duration":1148700,"SoundDuration":1148700,"Delta":96257473},{"NoteNumber":75,"Velocity":64,"Duration":107296,"SoundDuration":107296,"Delta":96555980},{"NoteNumber":76,"Velocity":63,"Duration":107296,"SoundDuration":107296,"Delta":96641817},{"NoteNumber":75,"Velocity":63,"Duration":85836,"SoundDuration":85836,"Delta":96727654},{"NoteNumber":73,"Velocity":74,"Duration":299999,"SoundDuration":299999,"Delta":96813491},{"NoteNumber":75,"Velocity":63,"Duration":292682,"SoundDuration":292682,"Delta":97113491},{"NoteNumber":64,"Velocity":50,"Duration":595624,"SoundDuration":595624,"Delta":97406174},{"NoteNumber":76,"Velocity":70,"Duration":301507,"SoundDuration":301507,"Delta":97406174},{"NoteNumber":49,"Velocity":47,"Duration":595624,"SoundDuration":595624,"Delta":97406174},{"NoteNumber":56,"Velocity":47,"Duration":595624,"SoundDuration":595624,"Delta":97406174},{"NoteNumber":73,"Velocity":62,"Duration":294117,"SoundDuration":294117,"Delta":97707681},{"NoteNumber":69,"Velocity":38,"Duration":1149810,"SoundDuration":1149810,"Delta":98001799},{"NoteNumber":76,"Velocity":47,"Duration":298507,"SoundDuration":298507,"Delta":98001799},{"NoteNumber":54,"Velocity":37,"Duration":1149810,"SoundDuration":1149810,"Delta":98001799},{"NoteNumber":61,"Velocity":37,"Duration":1149810,"SoundDuration":1149810,"Delta":98001799},{"NoteNumber":75,"Velocity":42,"Duration":107758,"SoundDuration":107758,"Delta":98300306},{"NoteNumber":76,"Velocity":41,"Duration":107758,"SoundDuration":107758,"Delta":98386513},{"NoteNumber":75,"Velocity":41,"Duration":86206,"SoundDuration":86206,"Delta":98472720},{"NoteNumber":73,"Velocity":48,"Duration":299999,"SoundDuration":299999,"Delta":98558927},{"NoteNumber":75,"Velocity":41,"Duration":292682,"SoundDuration":292682,"Delta":98858927},{"NoteNumber":64,"Velocity":35,"Duration":595624,"SoundDuration":595624,"Delta":99151610},{"NoteNumber":76,"Velocity":45,"Duration":301507,"SoundDuration":301507,"Delta":99151610},{"NoteNumber":49,"Velocity":33,"Duration":595624,"SoundDuration":595624,"Delta":99151610},{"NoteNumber":56,"Velocity":33,"Duration":595624,"SoundDuration":595624,"Delta":99151610},{"NoteNumber":73,"Velocity":40,"Duration":294117,"SoundDuration":294117,"Delta":99453117},{"NoteNumber":61,"Velocity":34,"Duration":309278,"SoundDuration":309278,"Delta":99747235},{"NoteNumber":64,"Velocity":34,"Duration":309278,"SoundDuration":309278,"Delta":99747235},{"NoteNumber":59,"Velocity":51,"Duration":309278,"SoundDuration":309278,"Delta":99747235},{"NoteNumber":61,"Velocity":30,"Duration":272727,"SoundDuration":272727,"Delta":100056513},{"NoteNumber":64,"Velocity":30,"Duration":272727,"SoundDuration":272727,"Delta":100056513},{"NoteNumber":57,"Velocity":46,"Duration":113636,"SoundDuration":113636,"Delta":100056513},{"NoteNumber":59,"Velocity":45,"Duration":113636,"SoundDuration":113636,"Delta":100147423},{"NoteNumber":57,"Velocity":45,"Duration":90909,"SoundDuration":90909,"Delta":100238332},{"NoteNumber":60,"Velocity":34,"Duration":299999,"SoundDuration":299999,"Delta":100329241},{"NoteNumber":64,"Velocity":34,"Duration":299999,"SoundDuration":299999,"Delta":100329241},{"NoteNumber":56,"Velocity":52,"Duration":592682,"SoundDuration":592682,"Delta":100329241},{"NoteNumber":61,"Velocity":30,"Duration":292682,"SoundDuration":292682,"Delta":100629241},{"NoteNumber":64,"Velocity":30,"Duration":292682,"SoundDuration":292682,"Delta":100629241},{"NoteNumber":63,"Velocity":48,"Duration":303030,"SoundDuration":303030,"Delta":100921924},{"NoteNumber":68,"Velocity":48,"Duration":303030,"SoundDuration":303030,"Delta":100921924},{"NoteNumber":59,"Velocity":41,"Duration":303030,"SoundDuration":303030,"Delta":100921924},{"NoteNumber":61,"Velocity":44,"Duration":162162,"SoundDuration":162162,"Delta":101224954},{"NoteNumber":66,"Velocity":44,"Duration":162162,"SoundDuration":162162,"Delta":101224954},{"NoteNumber":57,"Velocity":39,"Duration":162162,"SoundDuration":162162,"Delta":101224954},{"NoteNumber":44,"Velocity":37,"Duration":742557,"SoundDuration":742557,"Delta":101387117},{"NoteNumber":54,"Velocity":45,"Duration":705611,"SoundDuration":705611,"Delta":101424063},{"NoteNumber":57,"Velocity":41,"Duration":668665,"SoundDuration":668665,"Delta":101461008},{"NoteNumber":60,"Velocity":41,"Duration":631719,"SoundDuration":631719,"Delta":101497954},{"NoteNumber":64,"Velocity":48,"Duration":307692,"SoundDuration":307692,"Delta":101534900},{"NoteNumber":63,"Velocity":42,"Duration":119617,"SoundDuration":119617,"Delta":101842592},{"NoteNumber":64,"Velocity":42,"Duration":119617,"SoundDuration":119617,"Delta":101938286},{"NoteNumber":63,"Velocity":42,"Duration":122575,"SoundDuration":122575,"Delta":102033980},{"NoteNumber":56,"Velocity":47,"Duration":322580,"SoundDuration":322580,"Delta":102129674},{"NoteNumber":61,"Velocity":47,"Duration":322580,"SoundDuration":322580,"Delta":102129674},{"NoteNumber":49,"Velocity":40,"Duration":1317054,"SoundDuration":1317054,"Delta":102129674},{"NoteNumber":52,"Velocity":40,"Duration":322580,"SoundDuration":322580,"Delta":102129674},{"NoteNumber":57,"Velocity":45,"Duration":248618,"SoundDuration":248618,"Delta":102452254},{"NoteNumber":54,"Velocity":39,"Duration":331491,"SoundDuration":331491,"Delta":102452254},{"NoteNumber":56,"Velocity":45,"Duration":745855,"SoundDuration":745855,"Delta":102700873},{"NoteNumber":61,"Velocity":45,"Duration":662982,"SoundDuration":662982,"Delta":102783746},{"NoteNumber":52,"Velocity":40,"Duration":662982,"SoundDuration":662982,"Delta":102783746},{"NoteNumber":60,"Velocity":36,"Duration":312500,"SoundDuration":312500,"Delta":103446729},{"NoteNumber":63,"Velocity":36,"Duration":312500,"SoundDuration":312500,"Delta":103446729},{"NoteNumber":56,"Velocity":50,"Duration":937500,"SoundDuration":937500,"Delta":103446729},{"NoteNumber":60,"Velocity":36,"Duration":312500,"SoundDuration":312500,"Delta":103759229},{"NoteNumber":63,"Velocity":36,"Duration":312500,"SoundDuration":312500,"Delta":103759229},{"NoteNumber":63,"Velocity":36,"Duration":312500,"SoundDuration":312500,"Delta":104071729},{"NoteNumber":61,"Velocity":36,"Duration":312500,"SoundDuration":312500,"Delta":104071729},{"NoteNumber":61,"Velocity":36,"Duration":309278,"SoundDuration":309278,"Delta":104384229},{"NoteNumber":63,"Velocity":36,"Duration":309278,"SoundDuration":309278,"Delta":104384229},{"NoteNumber":54,"Velocity":50,"Duration":154639,"SoundDuration":154639,"Delta":104384229},{"NoteNumber":56,"Velocity":48,"Duration":154639,"SoundDuration":154639,"Delta":104538868},{"NoteNumber":61,"Velocity":41,"Duration":304071,"SoundDuration":304071,"Delta":104693507},{"NoteNumber":63,"Velocity":41,"Duration":304071,"SoundDuration":304071,"Delta":104693507},{"NoteNumber":57,"Velocity":52,"Duration":152556,"SoundDuration":152556,"Delta":104693507},{"NoteNumber":59,"Velocity":50,"Duration":151515,"SoundDuration":151515,"Delta":104846064},{"NoteNumber":61,"Velocity":39,"Duration":303030,"SoundDuration":303030,"Delta":104997579},{"NoteNumber":63,"Velocity":39,"Duration":303030,"SoundDuration":303030,"Delta":104997579},{"NoteNumber":57,"Velocity":50,"Duration":151515,"SoundDuration":151515,"Delta":104997579},{"NoteNumber":54,"Velocity":46,"Duration":151515,"SoundDuration":151515,"Delta":105149095},{"NoteNumber":60,"Velocity":45,"Duration":322580,"SoundDuration":322580,"Delta":105300610},{"NoteNumber":63,"Velocity":45,"Duration":322580,"SoundDuration":322580,"Delta":105300610},{"NoteNumber":56,"Velocity":52,"Duration":322580,"SoundDuration":322580,"Delta":105300610},{"NoteNumber":61,"Velocity":45,"Duration":285714,"SoundDuration":285714,"Delta":105623190},{"NoteNumber":63,"Velocity":45,"Duration":596595,"SoundDuration":596595,"Delta":105623190},{"NoteNumber":57,"Velocity":47,"Duration":119047,"SoundDuration":119047,"Delta":105623190},{"NoteNumber":59,"Velocity":47,"Duration":119047,"SoundDuration":119047,"Delta":105718428},{"NoteNumber":57,"Velocity":47,"Duration":121144,"SoundDuration":121144,"Delta":105813667},{"NoteNumber":60,"Velocity":45,"Duration":310880,"SoundDuration":310880,"Delta":105908905},{"NoteNumber":56,"Velocity":52,"Duration":310880,"SoundDuration":310880,"Delta":105908905},{"NoteNumber":73,"Velocity":48,"Duration":287081,"SoundDuration":287081,"Delta":106219786},{"NoteNumber":75,"Velocity":48,"Duration":597962,"SoundDuration":597962,"Delta":106219786},{"NoteNumber":69,"Velocity":54,"Duration":119617,"SoundDuration":119617,"Delta":106219786},{"NoteNumber":71,"Velocity":54,"Duration":119617,"SoundDuration":119617,"Delta":106315480},{"NoteNumber":69,"Velocity":55,"Duration":121600,"SoundDuration":121600,"Delta":106411173},{"NoteNumber":72,"Velocity":47,"Duration":310880,"SoundDuration":310880,"Delta":106506867},{"NoteNumber":68,"Velocity":65,"Duration":310880,"SoundDuration":310880,"Delta":106506867},{"NoteNumber":80,"Velocity":63,"Duration":327869,"SoundDuration":327869,"Delta":106817748},{"NoteNumber":69,"Velocity":66,"Duration":937590,"SoundDuration":937590,"Delta":107145617},{"NoteNumber":72,"Velocity":66,"Duration":937590,"SoundDuration":937590,"Delta":107145617},{"NoteNumber":80,"Velocity":66,"Duration":613266,"SoundDuration":613266,"Delta":107145617},{"NoteNumber":44,"Velocity":57,"Duration":159574,"SoundDuration":159574,"Delta":107145617},{"NoteNumber":63,"Velocity":51,"Duration":122548,"SoundDuration":122548,"Delta":107464766},{"NoteNumber":64,"Velocity":51,"Duration":122548,"SoundDuration":122548,"Delta":107562805},{"NoteNumber":63,"Velocity":51,"Duration":125066,"SoundDuration":125066,"Delta":107660845},{"NoteNumber":78,"Velocity":62,"Duration":324324,"SoundDuration":324324,"Delta":107758884},{"NoteNumber":56,"Velocity":60,"Duration":3236444,"SoundDuration":3236444,"Delta":107758884},{"NoteNumber":69,"Velocity":58,"Duration":317460,"SoundDuration":317460,"Delta":108083208},{"NoteNumber":72,"Velocity":58,"Duration":317460,"SoundDuration":317460,"Delta":108083208},{"NoteNumber":63,"Velocity":50,"Duration":317460,"SoundDuration":317460,"Delta":108083208},{"NoteNumber":69,"Velocity":50,"Duration":628652,"SoundDuration":628652,"Delta":108400669},{"NoteNumber":72,"Velocity":50,"Duration":628652,"SoundDuration":628652,"Delta":108400669},{"NoteNumber":76,"Velocity":63,"Duration":310880,"SoundDuration":310880,"Delta":108400669},{"NoteNumber":68,"Velocity":53,"Duration":310880,"SoundDuration":310880,"Delta":108400669},{"NoteNumber":75,"Velocity":57,"Duration":317771,"SoundDuration":317771,"Delta":108711550},{"NoteNumber":66,"Velocity":50,"Duration":317771,"SoundDuration":317771,"Delta":108711550},{"NoteNumber":68,"Velocity":52,"Duration":306122,"SoundDuration":306122,"Delta":109029321},{"NoteNumber":73,"Velocity":58,"Duration":127551,"SoundDuration":127551,"Delta":109029321},{"NoteNumber":64,"Velocity":56,"Duration":306122,"SoundDuration":306122,"Delta":109029321},{"NoteNumber":75,"Velocity":54,"Duration":127551,"SoundDuration":127551,"Delta":109131362},{"NoteNumber":73,"Velocity":55,"Duration":129067,"SoundDuration":129067,"Delta":109233402},{"NoteNumber":66,"Velocity":52,"Duration":189189,"SoundDuration":189189,"Delta":109335443},{"NoteNumber":71,"Velocity":58,"Duration":189189,"SoundDuration":189189,"Delta":109335443},{"NoteNumber":63,"Velocity":52,"Duration":162162,"SoundDuration":162162,"Delta":109335443},{"NoteNumber":64,"Velocity":51,"Duration":189189,"SoundDuration":189189,"Delta":109497606},{"NoteNumber":69,"Velocity":57,"Duration":189189,"SoundDuration":189189,"Delta":109497606},{"NoteNumber":61,"Velocity":52,"Duration":162162,"SoundDuration":162162,"Delta":109497606},{"NoteNumber":63,"Velocity":47,"Duration":324324,"SoundDuration":324324,"Delta":109659768},{"NoteNumber":68,"Velocity":53,"Duration":661403,"SoundDuration":661403,"Delta":109659768},{"NoteNumber":60,"Velocity":55,"Duration":324324,"SoundDuration":324324,"Delta":109659768},{"NoteNumber":64,"Velocity":45,"Duration":337078,"SoundDuration":337078,"Delta":109984092},{"NoteNumber":61,"Velocity":53,"Duration":337078,"SoundDuration":337078,"Delta":109984092},{"NoteNumber":63,"Velocity":49,"Duration":674156,"SoundDuration":674156,"Delta":110321171},{"NoteNumber":68,"Velocity":55,"Duration":674156,"SoundDuration":674156,"Delta":110321171},{"NoteNumber":60,"Velocity":53,"Duration":674156,"SoundDuration":674156,"Delta":110321171},{"NoteNumber":60,"Velocity":32,"Duration":312500,"SoundDuration":312500,"Delta":110995328},{"NoteNumber":63,"Velocity":32,"Duration":312500,"SoundDuration":312500,"Delta":110995328},{"NoteNumber":56,"Velocity":45,"Duration":937500,"SoundDuration":937500,"Delta":110995328},{"NoteNumber":60,"Velocity":32,"Duration":312500,"SoundDuration":312500,"Delta":111307828},{"NoteNumber":63,"Velocity":32,"Duration":312500,"SoundDuration":312500,"Delta":111307828},{"NoteNumber":63,"Velocity":32,"Duration":312500,"SoundDuration":312500,"Delta":111620328},{"NoteNumber":61,"Velocity":32,"Duration":312500,"SoundDuration":312500,"Delta":111620328},{"NoteNumber":61,"Velocity":32,"Duration":309278,"SoundDuration":309278,"Delta":111932828},{"NoteNumber":63,"Velocity":32,"Duration":309278,"SoundDuration":309278,"Delta":111932828},{"NoteNumber":54,"Velocity":45,"Duration":154639,"SoundDuration":154639,"Delta":111932828},{"NoteNumber":56,"Velocity":43,"Duration":154639,"SoundDuration":154639,"Delta":112087467},{"NoteNumber":61,"Velocity":36,"Duration":304071,"SoundDuration":304071,"Delta":112242106},{"NoteNumber":63,"Velocity":36,"Duration":304071,"SoundDuration":304071,"Delta":112242106},{"NoteNumber":57,"Velocity":46,"Duration":152556,"SoundDuration":152556,"Delta":112242106},{"NoteNumber":59,"Velocity":45,"Duration":151515,"SoundDuration":151515,"Delta":112394663},{"NoteNumber":61,"Velocity":35,"Duration":303030,"SoundDuration":303030,"Delta":112546178},{"NoteNumber":63,"Velocity":35,"Duration":303030,"SoundDuration":303030,"Delta":112546178},{"NoteNumber":57,"Velocity":45,"Duration":151515,"SoundDuration":151515,"Delta":112546178},{"NoteNumber":54,"Velocity":41,"Duration":151515,"SoundDuration":151515,"Delta":112697693},{"NoteNumber":60,"Velocity":40,"Duration":322580,"SoundDuration":322580,"Delta":112849209},{"NoteNumber":63,"Velocity":40,"Duration":322580,"SoundDuration":322580,"Delta":112849209},{"NoteNumber":56,"Velocity":46,"Duration":322580,"SoundDuration":322580,"Delta":112849209},{"NoteNumber":61,"Velocity":40,"Duration":285714,"SoundDuration":285714,"Delta":113171789},{"NoteNumber":63,"Velocity":40,"Duration":606569,"SoundDuration":606569,"Delta":113171789},{"NoteNumber":57,"Velocity":42,"Duration":119047,"SoundDuration":119047,"Delta":113171789},{"NoteNumber":59,"Velocity":42,"Duration":119047,"SoundDuration":119047,"Delta":113267027},{"NoteNumber":57,"Velocity":42,"Duration":121976,"SoundDuration":121976,"Delta":113362265},{"NoteNumber":60,"Velocity":40,"Duration":320855,"SoundDuration":320855,"Delta":113457504},{"NoteNumber":56,"Velocity":46,"Duration":320855,"SoundDuration":320855,"Delta":113457504},{"NoteNumber":73,"Velocity":43,"Duration":299999,"SoundDuration":299999,"Delta":113778359},{"NoteNumber":75,"Velocity":43,"Duration":626086,"SoundDuration":626086,"Delta":113778359},{"NoteNumber":69,"Velocity":48,"Duration":125000,"SoundDuration":125000,"Delta":113778359},{"NoteNumber":71,"Velocity":48,"Duration":125000,"SoundDuration":125000,"Delta":113878359},{"NoteNumber":69,"Velocity":48,"Duration":127173,"SoundDuration":127173,"Delta":113978359},{"NoteNumber":72,"Velocity":40,"Duration":326087,"SoundDuration":326087,"Delta":114078359},{"NoteNumber":68,"Velocity":50,"Duration":326087,"SoundDuration":326087,"Delta":114078359},{"NoteNumber":71,"Velocity":43,"Duration":381679,"SoundDuration":381679,"Delta":114404446},{"NoteNumber":75,"Velocity":43,"Duration":381679,"SoundDuration":381679,"Delta":114404446},{"NoteNumber":59,"Velocity":30,"Duration":381679,"SoundDuration":381679,"Delta":114404446},{"NoteNumber":69,"Velocity":39,"Duration":381679,"SoundDuration":381679,"Delta":114404446},{"NoteNumber":71,"Velocity":45,"Duration":604250,"SoundDuration":604250,"Delta":114786126},{"NoteNumber":76,"Velocity":45,"Duration":315789,"SoundDuration":315789,"Delta":114786126},{"NoteNumber":64,"Velocity":40,"Duration":1822909,"SoundDuration":1822909,"Delta":114786126},{"NoteNumber":68,"Velocity":40,"Duration":604250,"SoundDuration":604250,"Delta":114786126},{"NoteNumber":75,"Velocity":42,"Duration":120192,"SoundDuration":120192,"Delta":115101915},{"NoteNumber":76,"Velocity":42,"Duration":120192,"SoundDuration":120192,"Delta":115198069},{"NoteNumber":75,"Velocity":42,"Duration":121279,"SoundDuration":121279,"Delta":115294223},{"NoteNumber":73,"Velocity":45,"Duration":458575,"SoundDuration":458575,"Delta":115390377},{"NoteNumber":69,"Velocity":40,"Duration":615643,"SoundDuration":615643,"Delta":115390377},{"NoteNumber":73,"Velocity":42,"Duration":157068,"SoundDuration":157068,"Delta":115848952},{"NoteNumber":71,"Velocity":48,"Duration":452261,"SoundDuration":452261,"Delta":116006020},{"NoteNumber":75,"Velocity":48,"Duration":150753,"SoundDuration":150753,"Delta":116006020},{"NoteNumber":66,"Velocity":42,"Duration":301507,"SoundDuration":301507,"Delta":116006020},{"NoteNumber":78,"Velocity":45,"Duration":150753,"SoundDuration":150753,"Delta":116156774},{"NoteNumber":75,"Velocity":47,"Duration":150753,"SoundDuration":150753,"Delta":116307528},{"NoteNumber":69,"Velocity":39,"Duration":301507,"SoundDuration":301507,"Delta":116307528},{"NoteNumber":71,"Velocity":45,"Duration":150753,"SoundDuration":150753,"Delta":116458281},{"NoteNumber":73,"Velocity":46,"Duration":153846,"SoundDuration":153846,"Delta":116609035},{"NoteNumber":69,"Velocity":41,"Duration":600375,"SoundDuration":600375,"Delta":116609035},{"NoteNumber":64,"Velocity":41,"Duration":1837875,"SoundDuration":1837875,"Delta":116609035},{"NoteNumber":73,"Velocity":43,"Duration":121951,"SoundDuration":121951,"Delta":116916728},{"NoteNumber":75,"Velocity":43,"Duration":121951,"SoundDuration":121951,"Delta":117014289},{"NoteNumber":73,"Velocity":43,"Duration":122561,"SoundDuration":122561,"Delta":117111850},{"NoteNumber":71,"Velocity":46,"Duration":150000,"SoundDuration":150000,"Delta":117209411},{"NoteNumber":68,"Velocity":41,"Duration":299999,"SoundDuration":299999,"Delta":117209411},{"NoteNumber":76,"Velocity":42,"Duration":149999,"SoundDuration":149999,"Delta":117359411},{"NoteNumber":73,"Velocity":44,"Duration":156250,"SoundDuration":156250,"Delta":117509411},{"NoteNumber":69,"Velocity":39,"Duration":312500,"SoundDuration":312500,"Delta":117509411},{"NoteNumber":75,"Velocity":43,"Duration":156250,"SoundDuration":156250,"Delta":117665661},{"NoteNumber":71,"Velocity":43,"Duration":625000,"SoundDuration":625000,"Delta":117821911},{"NoteNumber":68,"Velocity":39,"Duration":625000,"SoundDuration":625000,"Delta":117821911},{"NoteNumber":61,"Velocity":53,"Duration":608294,"SoundDuration":608294,"Delta":118446911},{"NoteNumber":63,"Velocity":53,"Duration":1235444,"SoundDuration":1235444,"Delta":118446911},{"NoteNumber":57,"Velocity":62,"Duration":322580,"SoundDuration":322580,"Delta":118446911},{"NoteNumber":57,"Velocity":56,"Duration":119047,"SoundDuration":119047,"Delta":118769491},{"NoteNumber":59,"Velocity":56,"Duration":119047,"SoundDuration":119047,"Delta":118864729},{"NoteNumber":57,"Velocity":56,"Duration":122119,"SoundDuration":122119,"Delta":118959967},{"NoteNumber":60,"Velocity":53,"Duration":627149,"SoundDuration":627149,"Delta":119055206},{"NoteNumber":56,"Velocity":62,"Duration":322580,"SoundDuration":322580,"Delta":119055206},{"NoteNumber":51,"Velocity":58,"Duration":126903,"SoundDuration":126903,"Delta":119377786},{"NoteNumber":56,"Velocity":58,"Duration":126903,"SoundDuration":126903,"Delta":119530070},{"NoteNumber":63,"Velocity":57,"Duration":952957,"SoundDuration":952957,"Delta":119682355},{"NoteNumber":61,"Velocity":57,"Duration":638750,"SoundDuration":638750,"Delta":119682355},{"NoteNumber":57,"Velocity":62,"Duration":310880,"SoundDuration":310880,"Delta":119682355},{"NoteNumber":57,"Velocity":56,"Duration":136612,"SoundDuration":136612,"Delta":119993236},{"NoteNumber":59,"Velocity":56,"Duration":136612,"SoundDuration":136612,"Delta":120102525},{"NoteNumber":57,"Velocity":56,"Duration":136612,"SoundDuration":136612,"Delta":120211815},{"NoteNumber":60,"Velocity":53,"Duration":327868,"SoundDuration":327868,"Delta":120321105},{"NoteNumber":56,"Velocity":62,"Duration":327868,"SoundDuration":327868,"Delta":120321105},{"NoteNumber":87,"Velocity":48,"Duration":152284,"SoundDuration":152284,"Delta":120648974},{"NoteNumber":63,"Velocity":38,"Duration":152284,"SoundDuration":152284,"Delta":120648974},{"NoteNumber":88,"Velocity":45,"Duration":152284,"SoundDuration":152284,"Delta":120801258},{"NoteNumber":64,"Velocity":35,"Duration":152284,"SoundDuration":152284,"Delta":120801258},{"NoteNumber":90,"Velocity":48,"Duration":144927,"SoundDuration":144927,"Delta":120953542},{"NoteNumber":66,"Velocity":38,"Duration":144927,"SoundDuration":144927,"Delta":120953542},{"NoteNumber":92,"Velocity":45,"Duration":144927,"SoundDuration":144927,"Delta":121098470},{"NoteNumber":68,"Velocity":35,"Duration":144927,"SoundDuration":144927,"Delta":121098470},{"NoteNumber":90,"Velocity":45,"Duration":144927,"SoundDuration":144927,"Delta":121243397},{"NoteNumber":66,"Velocity":35,"Duration":144927,"SoundDuration":144927,"Delta":121243397},{"NoteNumber":87,"Velocity":45,"Duration":154129,"SoundDuration":154129,"Delta":121388325},{"NoteNumber":63,"Velocity":35,"Duration":154129,"SoundDuration":154129,"Delta":121388325},{"NoteNumber":84,"Velocity":48,"Duration":150753,"SoundDuration":150753,"Delta":121542454},{"NoteNumber":60,"Velocity":38,"Duration":150753,"SoundDuration":150753,"Delta":121542454},{"NoteNumber":88,"Velocity":45,"Duration":150753,"SoundDuration":150753,"Delta":121693208},{"NoteNumber":64,"Velocity":35,"Duration":150753,"SoundDuration":150753,"Delta":121693208},{"NoteNumber":87,"Velocity":45,"Duration":150753,"SoundDuration":150753,"Delta":121843961},{"NoteNumber":63,"Velocity":35,"Duration":150753,"SoundDuration":150753,"Delta":121843961},{"NoteNumber":81,"Velocity":45,"Duration":160427,"SoundDuration":160427,"Delta":121994715},{"NoteNumber":57,"Velocity":35,"Duration":160427,"SoundDuration":160427,"Delta":121994715},{"NoteNumber":80,"Velocity":55,"Duration":322580,"SoundDuration":322580,"Delta":122155143},{"NoteNumber":56,"Velocity":57,"Duration":322580,"SoundDuration":322580,"Delta":122155143},{"NoteNumber":57,"Velocity":56,"Duration":119047,"SoundDuration":119047,"Delta":122477723},{"NoteNumber":59,"Velocity":56,"Duration":119047,"SoundDuration":119047,"Delta":122572962},{"NoteNumber":57,"Velocity":56,"Duration":122119,"SoundDuration":122119,"Delta":122668200},{"NoteNumber":63,"Velocity":53,"Duration":627149,"SoundDuration":627149,"Delta":122763438},{"NoteNumber":60,"Velocity":53,"Duration":627149,"SoundDuration":627149,"Delta":122763438},{"NoteNumber":56,"Velocity":62,"Duration":322580,"SoundDuration":322580,"Delta":122763438},{"NoteNumber":51,"Velocity":58,"Duration":126903,"SoundDuration":126903,"Delta":123086018},{"NoteNumber":56,"Velocity":58,"Duration":126903,"SoundDuration":126903,"Delta":123238303},{"NoteNumber":63,"Velocity":57,"Duration":926249,"SoundDuration":926249,"Delta":123390587},{"NoteNumber":61,"Velocity":57,"Duration":638750,"SoundDuration":638750,"Delta":123390587},{"NoteNumber":57,"Velocity":62,"Duration":310880,"SoundDuration":310880,"Delta":123390587},{"NoteNumber":57,"Velocity":56,"Duration":136612,"SoundDuration":136612,"Delta":123701468},{"NoteNumber":59,"Velocity":56,"Duration":136612,"SoundDuration":136612,"Delta":123810758},{"NoteNumber":57,"Velocity":56,"Duration":134289,"SoundDuration":134289,"Delta":123920047},{"NoteNumber":60,"Velocity":53,"Duration":299999,"SoundDuration":299999,"Delta":124029337},{"NoteNumber":56,"Velocity":62,"Duration":299999,"SoundDuration":299999,"Delta":124029337},{"NoteNumber":87,"Velocity":62,"Duration":153846,"SoundDuration":153846,"Delta":124329337},{"NoteNumber":63,"Velocity":49,"Duration":153846,"SoundDuration":153846,"Delta":124329337},{"NoteNumber":88,"Velocity":58,"Duration":153846,"SoundDuration":153846,"Delta":124483183},{"NoteNumber":64,"Velocity":46,"Duration":153846,"SoundDuration":153846,"Delta":124483183},{"NoteNumber":90,"Velocity":62,"Duration":145630,"SoundDuration":145630,"Delta":124637029},{"NoteNumber":66,"Velocity":49,"Duration":145630,"SoundDuration":145630,"Delta":124637029},{"NoteNumber":92,"Velocity":58,"Duration":145631,"SoundDuration":145631,"Delta":124782660},{"NoteNumber":68,"Velocity":46,"Duration":145631,"SoundDuration":145631,"Delta":124782660},{"NoteNumber":90,"Velocity":58,"Duration":145630,"SoundDuration":145630,"Delta":124928291},{"NoteNumber":66,"Velocity":46,"Duration":145630,"SoundDuration":145630,"Delta":124928291},{"NoteNumber":87,"Velocity":58,"Duration":154363,"SoundDuration":154363,"Delta":125073922},{"NoteNumber":63,"Velocity":46,"Duration":154363,"SoundDuration":154363,"Delta":125073922},{"NoteNumber":84,"Velocity":66,"Duration":150753,"SoundDuration":150753,"Delta":125228286},{"NoteNumber":60,"Velocity":54,"Duration":150753,"SoundDuration":150753,"Delta":125228286},{"NoteNumber":88,"Velocity":63,"Duration":150753,"SoundDuration":150753,"Delta":125379040},{"NoteNumber":64,"Velocity":48,"Duration":150753,"SoundDuration":150753,"Delta":125379040},{"NoteNumber":87,"Velocity":61,"Duration":150753,"SoundDuration":150753,"Delta":125529794},{"NoteNumber":63,"Velocity":48,"Duration":150753,"SoundDuration":150753,"Delta":125529794},{"NoteNumber":81,"Velocity":61,"Duration":160427,"SoundDuration":160427,"Delta":125680548},{"NoteNumber":57,"Velocity":48,"Duration":160427,"SoundDuration":160427,"Delta":125680548},{"NoteNumber":80,"Velocity":66,"Duration":315789,"SoundDuration":315789,"Delta":125840975},{"NoteNumber":56,"Velocity":62,"Duration":315789,"SoundDuration":315789,"Delta":125840975},{"NoteNumber":78,"Velocity":68,"Duration":152284,"SoundDuration":152284,"Delta":126156765},{"NoteNumber":54,"Velocity":54,"Duration":152284,"SoundDuration":152284,"Delta":126156765},{"NoteNumber":80,"Velocity":63,"Duration":152284,"SoundDuration":152284,"Delta":126309049},{"NoteNumber":56,"Velocity":50,"Duration":152284,"SoundDuration":152284,"Delta":126309049},{"NoteNumber":81,"Velocity":68,"Duration":144927,"SoundDuration":144927,"Delta":126461333},{"NoteNumber":57,"Velocity":54,"Duration":144927,"SoundDuration":144927,"Delta":126461333},{"NoteNumber":85,"Velocity":63,"Duration":144927,"SoundDuration":144927,"Delta":126606261},{"NoteNumber":61,"Velocity":50,"Duration":144927,"SoundDuration":144927,"Delta":126606261},{"NoteNumber":83,"Velocity":63,"Duration":144927,"SoundDuration":144927,"Delta":126751188},{"NoteNumber":59,"Velocity":50,"Duration":144927,"SoundDuration":144927,"Delta":126751188},{"NoteNumber":80,"Velocity":63,"Duration":154129,"SoundDuration":154129,"Delta":126896116},{"NoteNumber":56,"Velocity":50,"Duration":154129,"SoundDuration":154129,"Delta":126896116},{"NoteNumber":78,"Velocity":68,"Duration":147058,"SoundDuration":147058,"Delta":127050245},{"NoteNumber":54,"Velocity":54,"Duration":147058,"SoundDuration":147058,"Delta":127050245},{"NoteNumber":81,"Velocity":63,"Duration":147058,"SoundDuration":147058,"Delta":127197304},{"NoteNumber":57,"Velocity":50,"Duration":147058,"SoundDuration":147058,"Delta":127197304},{"NoteNumber":80,"Velocity":63,"Duration":147058,"SoundDuration":147058,"Delta":127344363},{"NoteNumber":56,"Velocity":50,"Duration":147058,"SoundDuration":147058,"Delta":127344363},{"NoteNumber":76,"Velocity":63,"Duration":160427,"SoundDuration":160427,"Delta":127491421},{"NoteNumber":52,"Velocity":50,"Duration":160427,"SoundDuration":160427,"Delta":127491421},{"NoteNumber":75,"Velocity":68,"Duration":150753,"SoundDuration":150753,"Delta":127651849},{"NoteNumber":51,"Velocity":54,"Duration":150753,"SoundDuration":150753,"Delta":127651849},{"NoteNumber":76,"Velocity":66,"Duration":147058,"SoundDuration":147058,"Delta":127802603},{"NoteNumber":52,"Velocity":52,"Duration":147058,"SoundDuration":147058,"Delta":127802603},{"NoteNumber":78,"Velocity":66,"Duration":147058,"SoundDuration":147058,"Delta":127949662},{"NoteNumber":54,"Velocity":52,"Duration":147058,"SoundDuration":147058,"Delta":127949662},{"NoteNumber":80,"Velocity":66,"Duration":158987,"SoundDuration":158987,"Delta":128096720},{"NoteNumber":56,"Velocity":52,"Duration":158987,"SoundDuration":158987,"Delta":128096720},{"NoteNumber":78,"Velocity":72,"Duration":154133,"SoundDuration":154133,"Delta":128255708},{"NoteNumber":54,"Velocity":57,"Duration":154133,"SoundDuration":154133,"Delta":128255708},{"NoteNumber":75,"Velocity":69,"Duration":156710,"SoundDuration":156710,"Delta":128409842},{"NoteNumber":51,"Velocity":55,"Duration":156710,"SoundDuration":156710,"Delta":128409842},{"NoteNumber":76,"Velocity":70,"Duration":159374,"SoundDuration":159374,"Delta":128566552},{"NoteNumber":52,"Velocity":56,"Duration":159374,"SoundDuration":159374,"Delta":128566552},{"NoteNumber":73,"Velocity":68,"Duration":162332,"SoundDuration":162332,"Delta":128725926},{"NoteNumber":49,"Velocity":54,"Duration":162332,"SoundDuration":162332,"Delta":128725926},{"NoteNumber":75,"Velocity":68,"Duration":165426,"SoundDuration":165426,"Delta":128888258},{"NoteNumber":51,"Velocity":54,"Duration":165426,"SoundDuration":165426,"Delta":128888258},{"NoteNumber":71,"Velocity":65,"Duration":170141,"SoundDuration":170141,"Delta":129053685},{"NoteNumber":47,"Velocity":52,"Duration":170141,"SoundDuration":170141,"Delta":129053685},{"NoteNumber":73,"Velocity":68,"Duration":183373,"SoundDuration":183373,"Delta":129223826},{"NoteNumber":49,"Velocity":54,"Duration":183373,"SoundDuration":183373,"Delta":129223826},{"NoteNumber":69,"Velocity":64,"Duration":205479,"SoundDuration":205479,"Delta":129407200},{"NoteNumber":45,"Velocity":51,"Duration":205479,"SoundDuration":205479,"Delta":129407200},{"NoteNumber":68,"Velocity":68,"Duration":338983,"SoundDuration":338983,"Delta":129612679},{"NoteNumber":44,"Velocity":68,"Duration":338983,"SoundDuration":338983,"Delta":129612679},{"NoteNumber":61,"Velocity":68,"Duration":322580,"SoundDuration":322580,"Delta":129951662},{"NoteNumber":66,"Velocity":68,"Duration":107526,"SoundDuration":107526,"Delta":129951662},{"NoteNumber":51,"Velocity":49,"Duration":322580,"SoundDuration":322580,"Delta":129951662},{"NoteNumber":57,"Velocity":58,"Duration":322580,"SoundDuration":322580,"Delta":129951662},{"NoteNumber":68,"Velocity":58,"Duration":107526,"SoundDuration":107526,"Delta":130059189},{"NoteNumber":69,"Velocity":57,"Duration":107526,"SoundDuration":107526,"Delta":130166716},{"NoteNumber":63,"Velocity":63,"Duration":335195,"SoundDuration":335195,"Delta":130274243},{"NoteNumber":68,"Velocity":63,"Duration":111731,"SoundDuration":111731,"Delta":130274243},{"NoteNumber":56,"Velocity":44,"Duration":335195,"SoundDuration":335195,"Delta":130274243},{"NoteNumber":60,"Velocity":52,"Duration":335195,"SoundDuration":335195,"Delta":130274243},{"NoteNumber":69,"Velocity":54,"Duration":111731,"SoundDuration":111731,"Delta":130385975},{"NoteNumber":68,"Velocity":55,"Duration":111731,"SoundDuration":111731,"Delta":130497706},{"NoteNumber":61,"Velocity":68,"Duration":326087,"SoundDuration":326087,"Delta":130609438},{"NoteNumber":66,"Velocity":68,"Duration":108695,"SoundDuration":108695,"Delta":130609438},{"NoteNumber":51,"Velocity":48,"Duration":326087,"SoundDuration":326087,"Delta":130609438},{"NoteNumber":57,"Velocity":57,"Duration":326087,"SoundDuration":326087,"Delta":130609438},{"NoteNumber":68,"Velocity":56,"Duration":108695,"SoundDuration":108695,"Delta":130718134},{"NoteNumber":69,"Velocity":56,"Duration":108695,"SoundDuration":108695,"Delta":130826830},{"NoteNumber":63,"Velocity":59,"Duration":337078,"SoundDuration":337078,"Delta":130935525},{"NoteNumber":68,"Velocity":59,"Duration":112359,"SoundDuration":112359,"Delta":130935525},{"NoteNumber":56,"Velocity":42,"Duration":337078,"SoundDuration":337078,"Delta":130935525},{"NoteNumber":60,"Velocity":50,"Duration":337078,"SoundDuration":337078,"Delta":130935525},{"NoteNumber":69,"Velocity":55,"Duration":112359,"SoundDuration":112359,"Delta":131047885},{"NoteNumber":68,"Velocity":55,"Duration":112359,"SoundDuration":112359,"Delta":131160244},{"NoteNumber":61,"Velocity":65,"Duration":344827,"SoundDuration":344827,"Delta":131272604},{"NoteNumber":66,"Velocity":65,"Duration":114942,"SoundDuration":114942,"Delta":131272604},{"NoteNumber":51,"Velocity":46,"Duration":344827,"SoundDuration":344827,"Delta":131272604},{"NoteNumber":57,"Velocity":55,"Duration":344827,"SoundDuration":344827,"Delta":131272604},{"NoteNumber":68,"Velocity":55,"Duration":114942,"SoundDuration":114942,"Delta":131387546},{"NoteNumber":69,"Velocity":55,"Duration":114942,"SoundDuration":114942,"Delta":131502489},{"NoteNumber":63,"Velocity":68,"Duration":331491,"SoundDuration":331491,"Delta":131617431},{"NoteNumber":68,"Velocity":68,"Duration":331491,"SoundDuration":331491,"Delta":131617431},{"NoteNumber":56,"Velocity":42,"Duration":331491,"SoundDuration":331491,"Delta":131617431},{"NoteNumber":60,"Velocity":50,"Duration":331491,"SoundDuration":331491,"Delta":131617431},{"NoteNumber":56,"Velocity":57,"Duration":662982,"SoundDuration":662982,"Delta":131948923},{"NoteNumber":56,"Velocity":65,"Duration":662982,"SoundDuration":662982,"Delta":132611906},{"NoteNumber":56,"Velocity":68,"Duration":331491,"SoundDuration":331491,"Delta":133274889},{"NoteNumber":49,"Velocity":48,"Duration":1172377,"SoundDuration":1172377,"Delta":133606380},{"NoteNumber":68,"Velocity":55,"Duration":94489,"SoundDuration":94489,"Delta":133915882},{"NoteNumber":65,"Velocity":55,"Duration":96909,"SoundDuration":96909,"Delta":133991214},{"NoteNumber":61,"Velocity":55,"Duration":107318,"SoundDuration":107318,"Delta":134068438},{"NoteNumber":56,"Velocity":62,"Duration":167691,"SoundDuration":167691,"Delta":134147808},{"NoteNumber":56,"Velocity":46,"Duration":597074,"SoundDuration":597074,"Delta":134483191},{"NoteNumber":61,"Velocity":46,"Duration":597074,"SoundDuration":597074,"Delta":134483191},{"NoteNumber":65,"Velocity":55,"Duration":597074,"SoundDuration":597074,"Delta":134483191},{"NoteNumber":68,"Velocity":57,"Duration":597074,"SoundDuration":597074,"Delta":134483191},{"NoteNumber":44,"Velocity":48,"Duration":301507,"SoundDuration":301507,"Delta":134778758},{"NoteNumber":56,"Velocity":51,"Duration":328156,"SoundDuration":328156,"Delta":135080265},{"NoteNumber":59,"Velocity":51,"Duration":328156,"SoundDuration":328156,"Delta":135080265},{"NoteNumber":65,"Velocity":61,"Duration":328156,"SoundDuration":328156,"Delta":135080265},{"NoteNumber":68,"Velocity":61,"Duration":328156,"SoundDuration":328156,"Delta":135080265},{"NoteNumber":50,"Velocity":56,"Duration":328156,"SoundDuration":328156,"Delta":135080265},{"NoteNumber":51,"Velocity":69,"Duration":1169895,"SoundDuration":1169895,"Delta":135408421},{"NoteNumber":68,"Velocity":55,"Duration":95716,"SoundDuration":95716,"Delta":135717923},{"NoteNumber":66,"Velocity":55,"Duration":97816,"SoundDuration":97816,"Delta":135794260},{"NoteNumber":60,"Velocity":55,"Duration":107639,"SoundDuration":107639,"Delta":135872235},{"NoteNumber":56,"Velocity":62,"Duration":166777,"SoundDuration":166777,"Delta":135952078},{"NoteNumber":56,"Velocity":49,"Duration":594190,"SoundDuration":594190,"Delta":136285634},{"NoteNumber":60,"Velocity":49,"Duration":594190,"SoundDuration":594190,"Delta":136285634},{"NoteNumber":66,"Velocity":58,"Duration":594190,"SoundDuration":594190,"Delta":136285634},{"NoteNumber":68,"Velocity":60,"Duration":594190,"SoundDuration":594190,"Delta":136285634},{"NoteNumber":44,"Velocity":56,"Duration":301507,"SoundDuration":301507,"Delta":136578317},{"NoteNumber":56,"Velocity":45,"Duration":344787,"SoundDuration":344787,"Delta":136879824},{"NoteNumber":64,"Velocity":54,"Duration":344787,"SoundDuration":344787,"Delta":136879824},{"NoteNumber":68,"Velocity":54,"Duration":344787,"SoundDuration":344787,"Delta":136879824},{"NoteNumber":48,"Velocity":50,"Duration":344787,"SoundDuration":344787,"Delta":136879824},{"NoteNumber":49,"Velocity":30,"Duration":1167202,"SoundDuration":1167202,"Delta":137224612},{"NoteNumber":68,"Velocity":30,"Duration":94489,"SoundDuration":94489,"Delta":137534114},{"NoteNumber":65,"Velocity":30,"Duration":96681,"SoundDuration":96681,"Delta":137609446},{"NoteNumber":61,"Velocity":30,"Duration":106852,"SoundDuration":106852,"Delta":137686520},{"NoteNumber":56,"Velocity":34,"Duration":166777,"SoundDuration":166777,"Delta":137765576},{"NoteNumber":56,"Velocity":30,"Duration":594190,"SoundDuration":594190,"Delta":138099132},{"NoteNumber":61,"Velocity":30,"Duration":594190,"SoundDuration":594190,"Delta":138099132},{"NoteNumber":65,"Velocity":30,"Duration":594190,"SoundDuration":594190,"Delta":138099132},{"NoteNumber":68,"Velocity":32,"Duration":594190,"SoundDuration":594190,"Delta":138099132},{"NoteNumber":44,"Velocity":30,"Duration":301507,"SoundDuration":301507,"Delta":138391815},{"NoteNumber":56,"Velocity":29,"Duration":328156,"SoundDuration":328156,"Delta":138693322},{"NoteNumber":59,"Velocity":29,"Duration":328156,"SoundDuration":328156,"Delta":138693322},{"NoteNumber":65,"Velocity":29,"Duration":328156,"SoundDuration":328156,"Delta":138693322},{"NoteNumber":68,"Velocity":29,"Duration":328156,"SoundDuration":328156,"Delta":138693322},{"NoteNumber":50,"Velocity":35,"Duration":328156,"SoundDuration":328156,"Delta":138693322},{"NoteNumber":51,"Velocity":40,"Duration":1182754,"SoundDuration":1182754,"Delta":139021478},{"NoteNumber":68,"Velocity":30,"Duration":97205,"SoundDuration":97205,"Delta":139330980},{"NoteNumber":66,"Velocity":30,"Duration":99372,"SoundDuration":99372,"Delta":139408500},{"NoteNumber":60,"Velocity":30,"Duration":109087,"SoundDuration":109087,"Delta":139487711},{"NoteNumber":56,"Velocity":34,"Duration":167691,"SoundDuration":167691,"Delta":139568850},{"NoteNumber":56,"Velocity":35,"Duration":609278,"SoundDuration":609278,"Delta":139904233},{"NoteNumber":60,"Velocity":35,"Duration":609278,"SoundDuration":609278,"Delta":139904233},{"NoteNumber":66,"Velocity":35,"Duration":609278,"SoundDuration":609278,"Delta":139904233},{"NoteNumber":68,"Velocity":37,"Duration":609278,"SoundDuration":609278,"Delta":139904233},{"NoteNumber":44,"Velocity":35,"Duration":309278,"SoundDuration":309278,"Delta":140204233},{"NoteNumber":56,"Velocity":35,"Duration":314371,"SoundDuration":314371,"Delta":140513511},{"NoteNumber":64,"Velocity":35,"Duration":314371,"SoundDuration":314371,"Delta":140513511},{"NoteNumber":68,"Velocity":35,"Duration":314371,"SoundDuration":314371,"Delta":140513511},{"NoteNumber":48,"Velocity":39,"Duration":314371,"SoundDuration":314371,"Delta":140513511},{"NoteNumber":77,"Velocity":45,"Duration":383582,"SoundDuration":383582,"Delta":140872793},{"NoteNumber":65,"Velocity":45,"Duration":383582,"SoundDuration":383582,"Delta":140872793},{"NoteNumber":49,"Velocity":39,"Duration":191791,"SoundDuration":191791,"Delta":140872793},{"NoteNumber":55,"Velocity":32,"Duration":96084,"SoundDuration":96084,"Delta":141256375},{"NoteNumber":56,"Velocity":32,"Duration":98200,"SoundDuration":98200,"Delta":141333005},{"NoteNumber":61,"Velocity":31,"Duration":80163,"SoundDuration":80163,"Delta":141411285},{"NoteNumber":65,"Velocity":45,"Duration":922144,"SoundDuration":922144,"Delta":141491448},{"NoteNumber":77,"Velocity":47,"Duration":922144,"SoundDuration":922144,"Delta":141491448},{"NoteNumber":68,"Velocity":42,"Duration":287081,"SoundDuration":287081,"Delta":141825004},{"NoteNumber":44,"Velocity":38,"Duration":150753,"SoundDuration":150753,"Delta":142112085},{"NoteNumber":65,"Velocity":41,"Duration":328156,"SoundDuration":328156,"Delta":142413593},{"NoteNumber":77,"Velocity":41,"Duration":328156,"SoundDuration":328156,"Delta":142413593},{"NoteNumber":68,"Velocity":34,"Duration":164077,"SoundDuration":164077,"Delta":142413593},{"NoteNumber":61,"Velocity":34,"Duration":164077,"SoundDuration":164077,"Delta":142413593},{"NoteNumber":56,"Velocity":34,"Duration":164077,"SoundDuration":164077,"Delta":142413593},{"NoteNumber":65,"Velocity":46,"Duration":464392,"SoundDuration":464392,"Delta":142741749},{"NoteNumber":77,"Velocity":46,"Duration":464392,"SoundDuration":464392,"Delta":142741749},{"NoteNumber":49,"Velocity":39,"Duration":173370,"SoundDuration":173370,"Delta":142741749},{"NoteNumber":55,"Velocity":32,"Duration":97889,"SoundDuration":97889,"Delta":143088489},{"NoteNumber":56,"Velocity":32,"Duration":99686,"SoundDuration":99686,"Delta":143166616},{"NoteNumber":68,"Velocity":43,"Duration":121138,"SoundDuration":121138,"Delta":143206141},{"NoteNumber":80,"Velocity":43,"Duration":121138,"SoundDuration":121138,"Delta":143206141},{"NoteNumber":61,"Velocity":31,"Duration":109087,"SoundDuration":109087,"Delta":143246141},{"NoteNumber":68,"Velocity":43,"Duration":1272817,"SoundDuration":1272817,"Delta":143327280},{"NoteNumber":80,"Velocity":43,"Duration":1272817,"SoundDuration":1272817,"Delta":143327280},{"NoteNumber":65,"Velocity":38,"Duration":167691,"SoundDuration":167691,"Delta":143327280},{"NoteNumber":56,"Velocity":40,"Duration":300000,"SoundDuration":300000,"Delta":143662663},{"NoteNumber":61,"Velocity":40,"Duration":300000,"SoundDuration":300000,"Delta":143662663},{"NoteNumber":65,"Velocity":40,"Duration":300000,"SoundDuration":300000,"Delta":143662663},{"NoteNumber":44,"Velocity":38,"Duration":154639,"SoundDuration":154639,"Delta":143962663},{"NoteNumber":65,"Velocity":30,"Duration":164077,"SoundDuration":164077,"Delta":144271942},{"NoteNumber":61,"Velocity":30,"Duration":164077,"SoundDuration":164077,"Delta":144271942},{"NoteNumber":56,"Velocity":30,"Duration":164077,"SoundDuration":164077,"Delta":144271942},{"NoteNumber":51,"Velocity":46,"Duration":153436,"SoundDuration":153436,"Delta":144600098},{"NoteNumber":78,"Velocity":55,"Duration":319838,"SoundDuration":319838,"Delta":144906972},{"NoteNumber":66,"Velocity":55,"Duration":319838,"SoundDuration":319838,"Delta":144906972},{"NoteNumber":55,"Velocity":38,"Duration":123152,"SoundDuration":123152,"Delta":144906972},{"NoteNumber":56,"Velocity":38,"Duration":123152,"SoundDuration":123152,"Delta":145005494},{"NoteNumber":60,"Velocity":37,"Duration":122793,"SoundDuration":122793,"Delta":145104016},{"NoteNumber":68,"Velocity":58,"Duration":316455,"SoundDuration":316455,"Delta":145202538},{"NoteNumber":80,"Velocity":58,"Duration":316455,"SoundDuration":316455,"Delta":145202538},{"NoteNumber":66,"Velocity":45,"Duration":145631,"SoundDuration":145631,"Delta":145202538},{"NoteNumber":70,"Velocity":61,"Duration":327900,"SoundDuration":327900,"Delta":145493800},{"NoteNumber":82,"Velocity":61,"Duration":327900,"SoundDuration":327900,"Delta":145493800},{"NoteNumber":56,"Velocity":49,"Duration":302327,"SoundDuration":302327,"Delta":145493800},{"NoteNumber":60,"Velocity":49,"Duration":302327,"SoundDuration":302327,"Delta":145493800},{"NoteNumber":66,"Velocity":49,"Duration":302327,"SoundDuration":302327,"Delta":145493800},{"NoteNumber":73,"Velocity":64,"Duration":333652,"SoundDuration":333652,"Delta":145796128},{"NoteNumber":85,"Velocity":64,"Duration":333652,"SoundDuration":333652,"Delta":145796128},{"NoteNumber":44,"Velocity":47,"Duration":153436,"SoundDuration":153436,"Delta":145796128},{"NoteNumber":72,"Velocity":62,"Duration":347168,"SoundDuration":347168,"Delta":146103002},{"NoteNumber":84,"Velocity":62,"Duration":347168,"SoundDuration":347168,"Delta":146103002},{"NoteNumber":66,"Velocity":38,"Duration":160668,"SoundDuration":160668,"Delta":146103002},{"NoteNumber":60,"Velocity":38,"Duration":160668,"SoundDuration":160668,"Delta":146103002},{"NoteNumber":56,"Velocity":38,"Duration":160668,"SoundDuration":160668,"Delta":146103002},{"NoteNumber":75,"Velocity":71,"Duration":335175,"SoundDuration":335175,"Delta":146424339},{"NoteNumber":87,"Velocity":71,"Duration":335175,"SoundDuration":335175,"Delta":146424339},{"NoteNumber":51,"Velocity":53,"Duration":154990,"SoundDuration":154990,"Delta":146424339},{"NoteNumber":70,"Velocity":56,"Duration":329247,"SoundDuration":329247,"Delta":146734321},{"NoteNumber":82,"Velocity":56,"Duration":329247,"SoundDuration":329247,"Delta":146734321},{"NoteNumber":55,"Velocity":38,"Duration":125969,"SoundDuration":125969,"Delta":146734321},{"NoteNumber":56,"Velocity":38,"Duration":125969,"SoundDuration":125969,"Delta":146835097},{"NoteNumber":60,"Velocity":37,"Duration":127695,"SoundDuration":127695,"Delta":146935873},{"NoteNumber":68,"Velocity":55,"Duration":1250579,"SoundDuration":1250579,"Delta":147036649},{"NoteNumber":80,"Velocity":55,"Duration":1250579,"SoundDuration":1250579,"Delta":147036649},{"NoteNumber":66,"Velocity":45,"Duration":161516,"SoundDuration":161516,"Delta":147036649},{"NoteNumber":56,"Velocity":43,"Duration":289854,"SoundDuration":289854,"Delta":147359681},{"NoteNumber":60,"Velocity":43,"Duration":289854,"SoundDuration":289854,"Delta":147359681},{"NoteNumber":66,"Velocity":43,"Duration":289854,"SoundDuration":289854,"Delta":147359681},{"NoteNumber":44,"Velocity":37,"Duration":158177,"SoundDuration":158177,"Delta":147649536},{"NoteNumber":66,"Velocity":36,"Duration":160668,"SoundDuration":160668,"Delta":147965891},{"NoteNumber":60,"Velocity":36,"Duration":160668,"SoundDuration":160668,"Delta":147965891},{"NoteNumber":56,"Velocity":36,"Duration":160668,"SoundDuration":160668,"Delta":147965891},{"NoteNumber":77,"Velocity":45,"Duration":383582,"SoundDuration":383582,"Delta":148287228},{"NoteNumber":65,"Velocity":45,"Duration":383582,"SoundDuration":383582,"Delta":148287228},{"NoteNumber":49,"Velocity":39,"Duration":191791,"SoundDuration":191791,"Delta":148287228},{"NoteNumber":55,"Velocity":32,"Duration":96455,"SoundDuration":96455,"Delta":148670811},{"NoteNumber":56,"Velocity":32,"Duration":98352,"SoundDuration":98352,"Delta":148747735},{"NoteNumber":61,"Velocity":31,"Duration":80163,"SoundDuration":80163,"Delta":148826167},{"NoteNumber":65,"Velocity":45,"Duration":920777,"SoundDuration":920777,"Delta":148906331},{"NoteNumber":77,"Velocity":45,"Duration":920777,"SoundDuration":920777,"Delta":148906331},{"NoteNumber":68,"Velocity":42,"Duration":285714,"SoundDuration":285714,"Delta":149239886},{"NoteNumber":44,"Velocity":38,"Duration":150753,"SoundDuration":150753,"Delta":149525601},{"NoteNumber":65,"Velocity":41,"Duration":328156,"SoundDuration":328156,"Delta":149827108},{"NoteNumber":77,"Velocity":41,"Duration":328156,"SoundDuration":328156,"Delta":149827108},{"NoteNumber":68,"Velocity":34,"Duration":164077,"SoundDuration":164077,"Delta":149827108},{"NoteNumber":61,"Velocity":34,"Duration":164077,"SoundDuration":164077,"Delta":149827108},{"NoteNumber":56,"Velocity":34,"Duration":164077,"SoundDuration":164077,"Delta":149827108},{"NoteNumber":65,"Velocity":46,"Duration":468030,"SoundDuration":468030,"Delta":150155264},{"NoteNumber":77,"Velocity":46,"Duration":468030,"SoundDuration":468030,"Delta":150155264},{"NoteNumber":49,"Velocity":39,"Duration":173370,"SoundDuration":173370,"Delta":150155264},{"NoteNumber":55,"Velocity":32,"Duration":101075,"SoundDuration":101075,"Delta":150502005},{"NoteNumber":56,"Velocity":32,"Duration":101075,"SoundDuration":101075,"Delta":150582865},{"NoteNumber":68,"Velocity":43,"Duration":121290,"SoundDuration":121290,"Delta":150623295},{"NoteNumber":80,"Velocity":43,"Duration":121290,"SoundDuration":121290,"Delta":150623295},{"NoteNumber":61,"Velocity":31,"Duration":108808,"SoundDuration":108808,"Delta":150663725},{"NoteNumber":68,"Velocity":43,"Duration":1265349,"SoundDuration":1265349,"Delta":150744586},{"NoteNumber":80,"Velocity":43,"Duration":1265349,"SoundDuration":1265349,"Delta":150744586},{"NoteNumber":65,"Velocity":38,"Duration":167691,"SoundDuration":167691,"Delta":150744586},{"NoteNumber":56,"Velocity":40,"Duration":294117,"SoundDuration":294117,"Delta":151079969},{"NoteNumber":61,"Velocity":40,"Duration":294117,"SoundDuration":294117,"Delta":151079969},{"NoteNumber":65,"Velocity":40,"Duration":294117,"SoundDuration":294117,"Delta":151079969},{"NoteNumber":44,"Velocity":38,"Duration":153846,"SoundDuration":153846,"Delta":151374086},{"NoteNumber":65,"Velocity":30,"Duration":164077,"SoundDuration":164077,"Delta":151681779},{"NoteNumber":61,"Velocity":30,"Duration":164077,"SoundDuration":164077,"Delta":151681779},{"NoteNumber":56,"Velocity":30,"Duration":164077,"SoundDuration":164077,"Delta":151681779},{"NoteNumber":51,"Velocity":46,"Duration":153436,"SoundDuration":153436,"Delta":152009935},{"NoteNumber":78,"Velocity":55,"Duration":319838,"SoundDuration":319838,"Delta":152316809},{"NoteNumber":66,"Velocity":55,"Duration":319838,"SoundDuration":319838,"Delta":152316809},{"NoteNumber":55,"Velocity":38,"Duration":123152,"SoundDuration":123152,"Delta":152316809},{"NoteNumber":56,"Velocity":38,"Duration":123152,"SoundDuration":123152,"Delta":152415331},{"NoteNumber":60,"Velocity":37,"Duration":122793,"SoundDuration":122793,"Delta":152513853},{"NoteNumber":68,"Velocity":58,"Duration":316455,"SoundDuration":316455,"Delta":152612375},{"NoteNumber":80,"Velocity":58,"Duration":316455,"SoundDuration":316455,"Delta":152612375},{"NoteNumber":66,"Velocity":45,"Duration":145631,"SoundDuration":145631,"Delta":152612375},{"NoteNumber":70,"Velocity":61,"Duration":327900,"SoundDuration":327900,"Delta":152903637},{"NoteNumber":82,"Velocity":61,"Duration":327900,"SoundDuration":327900,"Delta":152903637},{"NoteNumber":56,"Velocity":49,"Duration":302327,"SoundDuration":302327,"Delta":152903637},{"NoteNumber":60,"Velocity":49,"Duration":302327,"SoundDuration":302327,"Delta":152903637},{"NoteNumber":66,"Velocity":49,"Duration":302327,"SoundDuration":302327,"Delta":152903637},{"NoteNumber":73,"Velocity":64,"Duration":333652,"SoundDuration":333652,"Delta":153205965},{"NoteNumber":85,"Velocity":64,"Duration":333652,"SoundDuration":333652,"Delta":153205965},{"NoteNumber":44,"Velocity":47,"Duration":153436,"SoundDuration":153436,"Delta":153205965},{"NoteNumber":72,"Velocity":62,"Duration":347168,"SoundDuration":347168,"Delta":153512839},{"NoteNumber":84,"Velocity":62,"Duration":347168,"SoundDuration":347168,"Delta":153512839},{"NoteNumber":66,"Velocity":38,"Duration":160668,"SoundDuration":160668,"Delta":153512839},{"NoteNumber":60,"Velocity":38,"Duration":160668,"SoundDuration":160668,"Delta":153512839},{"NoteNumber":56,"Velocity":38,"Duration":160668,"SoundDuration":160668,"Delta":153512839},{"NoteNumber":78,"Velocity":65,"Duration":335813,"SoundDuration":335813,"Delta":153834176},{"NoteNumber":90,"Velocity":69,"Duration":335813,"SoundDuration":335813,"Delta":153834176},{"NoteNumber":51,"Velocity":53,"Duration":154990,"SoundDuration":154990,"Delta":153834176},{"NoteNumber":70,"Velocity":56,"Duration":336900,"SoundDuration":336900,"Delta":154144158},{"NoteNumber":82,"Velocity":56,"Duration":336900,"SoundDuration":336900,"Delta":154144158},{"NoteNumber":55,"Velocity":38,"Duration":129158,"SoundDuration":129158,"Delta":154144158},{"NoteNumber":56,"Velocity":38,"Duration":129158,"SoundDuration":129158,"Delta":154247485},{"NoteNumber":60,"Velocity":37,"Duration":130246,"SoundDuration":130246,"Delta":154350812},{"NoteNumber":68,"Velocity":55,"Duration":1261566,"SoundDuration":1261566,"Delta":154454139},{"NoteNumber":80,"Velocity":55,"Duration":1261566,"SoundDuration":1261566,"Delta":154454139},{"NoteNumber":66,"Velocity":45,"Duration":161516,"SoundDuration":161516,"Delta":154454139},{"NoteNumber":56,"Velocity":43,"Duration":300842,"SoundDuration":300842,"Delta":154777171},{"NoteNumber":60,"Velocity":43,"Duration":300842,"SoundDuration":300842,"Delta":154777171},{"NoteNumber":66,"Velocity":43,"Duration":300842,"SoundDuration":300842,"Delta":154777171},{"NoteNumber":44,"Velocity":37,"Duration":158177,"SoundDuration":158177,"Delta":155078014},{"NoteNumber":64,"Velocity":36,"Duration":160668,"SoundDuration":160668,"Delta":155394369},{"NoteNumber":60,"Velocity":36,"Duration":160668,"SoundDuration":160668,"Delta":155394369},{"NoteNumber":56,"Velocity":36,"Duration":160668,"SoundDuration":160668,"Delta":155394369},{"NoteNumber":85,"Velocity":58,"Duration":383582,"SoundDuration":383582,"Delta":155715706},{"NoteNumber":73,"Velocity":58,"Duration":383582,"SoundDuration":383582,"Delta":155715706},{"NoteNumber":53,"Velocity":50,"Duration":191791,"SoundDuration":191791,"Delta":155715706},{"NoteNumber":57,"Velocity":41,"Duration":99506,"SoundDuration":99506,"Delta":156099289},{"NoteNumber":61,"Velocity":41,"Duration":99506,"SoundDuration":99506,"Delta":156178894},{"NoteNumber":65,"Velocity":40,"Duration":79605,"SoundDuration":79605,"Delta":156258499},{"NoteNumber":73,"Velocity":58,"Duration":940002,"SoundDuration":940002,"Delta":156338104},{"NoteNumber":85,"Velocity":58,"Duration":940002,"SoundDuration":940002,"Delta":156338104},{"NoteNumber":69,"Velocity":55,"Duration":166777,"SoundDuration":166777,"Delta":156338104},{"NoteNumber":61,"Velocity":49,"Duration":295566,"SoundDuration":295566,"Delta":156671660},{"NoteNumber":65,"Velocity":49,"Duration":295566,"SoundDuration":295566,"Delta":156671660},{"NoteNumber":53,"Velocity":49,"Duration":155440,"SoundDuration":155440,"Delta":156967226},{"NoteNumber":72,"Velocity":53,"Duration":328156,"SoundDuration":328156,"Delta":157278107},{"NoteNumber":84,"Velocity":53,"Duration":328156,"SoundDuration":328156,"Delta":157278107},{"NoteNumber":63,"Velocity":44,"Duration":164077,"SoundDuration":164077,"Delta":157278107},{"NoteNumber":57,"Velocity":44,"Duration":164077,"SoundDuration":164077,"Delta":157278107},{"NoteNumber":84,"Velocity":58,"Duration":593844,"SoundDuration":593844,"Delta":157606263},{"NoteNumber":72,"Velocity":58,"Duration":593844,"SoundDuration":593844,"Delta":157606263},{"NoteNumber":54,"Velocity":50,"Duration":177514,"SoundDuration":177514,"Delta":157606263},{"NoteNumber":60,"Velocity":41,"Duration":99506,"SoundDuration":99506,"Delta":157961293},{"NoteNumber":61,"Velocity":41,"Duration":99506,"SoundDuration":99506,"Delta":158040898},{"NoteNumber":66,"Velocity":40,"Duration":79605,"SoundDuration":79605,"Delta":158120503},{"NoteNumber":70,"Velocity":55,"Duration":324324,"SoundDuration":324324,"Delta":158200108},{"NoteNumber":82,"Velocity":55,"Duration":324324,"SoundDuration":324324,"Delta":158200108},{"NoteNumber":65,"Velocity":55,"Duration":289854,"SoundDuration":289854,"Delta":158524433},{"NoteNumber":77,"Velocity":55,"Duration":289854,"SoundDuration":289854,"Delta":158524433},{"NoteNumber":62,"Velocity":55,"Duration":289854,"SoundDuration":289854,"Delta":158524433},{"NoteNumber":68,"Velocity":58,"Duration":301507,"SoundDuration":301507,"Delta":158814288},{"NoteNumber":80,"Velocity":58,"Duration":301507,"SoundDuration":301507,"Delta":158814288},{"NoteNumber":50,"Velocity":49,"Duration":150753,"SoundDuration":150753,"Delta":158814288},{"NoteNumber":70,"Velocity":53,"Duration":328156,"SoundDuration":328156,"Delta":159115795},{"NoteNumber":82,"Velocity":53,"Duration":328156,"SoundDuration":328156,"Delta":159115795},{"NoteNumber":65,"Velocity":44,"Duration":164077,"SoundDuration":164077,"Delta":159115795},{"NoteNumber":58,"Velocity":44,"Duration":164077,"SoundDuration":164077,"Delta":159115795},{"NoteNumber":80,"Velocity":58,"Duration":622397,"SoundDuration":622397,"Delta":159443951},{"NoteNumber":68,"Velocity":58,"Duration":622397,"SoundDuration":622397,"Delta":159443951},{"NoteNumber":51,"Velocity":50,"Duration":191791,"SoundDuration":191791,"Delta":159443951},{"NoteNumber":57,"Velocity":41,"Duration":99506,"SoundDuration":99506,"Delta":159827534},{"NoteNumber":58,"Velocity":41,"Duration":99506,"SoundDuration":99506,"Delta":159907139},{"NoteNumber":63,"Velocity":40,"Duration":79605,"SoundDuration":79605,"Delta":159986744},{"NoteNumber":66,"Velocity":58,"Duration":340136,"SoundDuration":340136,"Delta":160066349},{"NoteNumber":78,"Velocity":58,"Duration":340136,"SoundDuration":340136,"Delta":160066349},{"NoteNumber":71,"Velocity":57,"Duration":236047,"SoundDuration":236047,"Delta":160406485},{"NoteNumber":74,"Velocity":57,"Duration":236047,"SoundDuration":236047,"Delta":160406485},{"NoteNumber":58,"Velocity":50,"Duration":977187,"SoundDuration":977187,"Delta":160406485},{"NoteNumber":71,"Velocity":53,"Duration":404061,"SoundDuration":404061,"Delta":160642532},{"NoteNumber":78,"Velocity":58,"Duration":325379,"SoundDuration":325379,"Delta":160721215},{"NoteNumber":70,"Velocity":46,"Duration":325379,"SoundDuration":325379,"Delta":160721215},{"NoteNumber":71,"Velocity":54,"Duration":252808,"SoundDuration":252808,"Delta":161046594},{"NoteNumber":77,"Velocity":54,"Duration":252808,"SoundDuration":252808,"Delta":161046594},{"NoteNumber":68,"Velocity":43,"Duration":337078,"SoundDuration":337078,"Delta":161046594},{"NoteNumber":66,"Velocity":41,"Duration":1956806,"SoundDuration":1956806,"Delta":161299403},{"NoteNumber":77,"Velocity":56,"Duration":589692,"SoundDuration":589692,"Delta":161383673},{"NoteNumber":51,"Velocity":46,"Duration":175438,"SoundDuration":175438,"Delta":161383673},{"NoteNumber":57,"Velocity":38,"Duration":99506,"SoundDuration":99506,"Delta":161734550},{"NoteNumber":58,"Velocity":38,"Duration":99506,"SoundDuration":99506,"Delta":161814155},{"NoteNumber":59,"Velocity":37,"Duration":79605,"SoundDuration":79605,"Delta":161893760},{"NoteNumber":75,"Velocity":56,"Duration":1282843,"SoundDuration":1282843,"Delta":161973365},{"NoteNumber":58,"Velocity":50,"Duration":335195,"SoundDuration":335195,"Delta":161973365},{"NoteNumber":62,"Velocity":50,"Duration":309278,"SoundDuration":309278,"Delta":162308561},{"NoteNumber":65,"Velocity":55,"Duration":315789,"SoundDuration":315789,"Delta":162617839},{"NoteNumber":63,"Velocity":51,"Duration":322580,"SoundDuration":322580,"Delta":162933629},{"NoteNumber":67,"Velocity":47,"Duration":326087,"SoundDuration":326087,"Delta":163256209},{"NoteNumber":65,"Velocity":47,"Duration":326087,"SoundDuration":326087,"Delta":163256209},{"NoteNumber":73,"Velocity":56,"Duration":326087,"SoundDuration":326087,"Delta":163256209},{"NoteNumber":39,"Velocity":46,"Duration":163043,"SoundDuration":163043,"Delta":163256209},{"NoteNumber":63,"Velocity":45,"Duration":326441,"SoundDuration":326441,"Delta":163582296},{"NoteNumber":67,"Velocity":45,"Duration":326441,"SoundDuration":326441,"Delta":163582296},{"NoteNumber":72,"Velocity":53,"Duration":326441,"SoundDuration":326441,"Delta":163582296},{"NoteNumber":50,"Velocity":38,"Duration":136017,"SoundDuration":136017,"Delta":163582296},{"NoteNumber":51,"Velocity":38,"Duration":136017,"SoundDuration":136017,"Delta":163691110},{"NoteNumber":53,"Velocity":37,"Duration":108813,"SoundDuration":108813,"Delta":163799924},{"NoteNumber":61,"Velocity":45,"Duration":638460,"SoundDuration":638460,"Delta":163908738},{"NoteNumber":67,"Velocity":45,"Duration":638460,"SoundDuration":638460,"Delta":163908738},{"NoteNumber":72,"Velocity":53,"Duration":638460,"SoundDuration":638460,"Delta":163908738},{"NoteNumber":51,"Velocity":50,"Duration":162162,"SoundDuration":162162,"Delta":163908738},{"NoteNumber":51,"Velocity":50,"Duration":639402,"SoundDuration":639402,"Delta":164233063},{"NoteNumber":61,"Velocity":47,"Duration":245901,"SoundDuration":245901,"Delta":164547199},{"NoteNumber":67,"Velocity":47,"Duration":245901,"SoundDuration":245901,"Delta":164547199},{"NoteNumber":70,"Velocity":56,"Duration":245901,"SoundDuration":245901,"Delta":164547199},{"NoteNumber":61,"Velocity":35,"Duration":390246,"SoundDuration":390246,"Delta":164793100},{"NoteNumber":67,"Velocity":42,"Duration":350563,"SoundDuration":350563,"Delta":164832783},{"NoteNumber":75,"Velocity":55,"Duration":310880,"SoundDuration":310880,"Delta":164872466},{"NoteNumber":51,"Velocity":46,"Duration":310880,"SoundDuration":310880,"Delta":164872466},{"NoteNumber":63,"Velocity":45,"Duration":317460,"SoundDuration":317460,"Delta":165183347},{"NoteNumber":68,"Velocity":45,"Duration":317460,"SoundDuration":317460,"Delta":165183347},{"NoteNumber":51,"Velocity":41,"Duration":1922959,"SoundDuration":1922959,"Delta":165183347},{"NoteNumber":60,"Velocity":41,"Duration":317460,"SoundDuration":317460,"Delta":165183347},{"NoteNumber":65,"Velocity":41,"Duration":322580,"SoundDuration":322580,"Delta":165500807},{"NoteNumber":70,"Velocity":41,"Duration":322580,"SoundDuration":322580,"Delta":165500807},{"NoteNumber":61,"Velocity":39,"Duration":322580,"SoundDuration":322580,"Delta":165500807},{"NoteNumber":68,"Velocity":45,"Duration":316355,"SoundDuration":316355,"Delta":165823388},{"NoteNumber":73,"Velocity":45,"Duration":316355,"SoundDuration":316355,"Delta":165823388},{"NoteNumber":65,"Velocity":41,"Duration":316355,"SoundDuration":316355,"Delta":165823388},{"NoteNumber":67,"Velocity":42,"Duration":241002,"SoundDuration":241002,"Delta":166139743},{"NoteNumber":72,"Velocity":42,"Duration":241002,"SoundDuration":241002,"Delta":166139743},{"NoteNumber":63,"Velocity":38,"Duration":321336,"SoundDuration":321336,"Delta":166139743},{"NoteNumber":68,"Velocity":42,"Duration":388754,"SoundDuration":388754,"Delta":166380746},{"NoteNumber":75,"Velocity":46,"Duration":308420,"SoundDuration":308420,"Delta":166461080},{"NoteNumber":67,"Velocity":40,"Duration":308420,"SoundDuration":308420,"Delta":166461080},{"NoteNumber":67,"Velocity":42,"Duration":243243,"SoundDuration":243243,"Delta":166769500},{"NoteNumber":72,"Velocity":42,"Duration":243243,"SoundDuration":243243,"Delta":166769500},{"NoteNumber":63,"Velocity":38,"Duration":336806,"SoundDuration":336806,"Delta":166769500},{"NoteNumber":61,"Velocity":34,"Duration":713551,"SoundDuration":713551,"Delta":167012743},{"NoteNumber":67,"Velocity":34,"Duration":666770,"SoundDuration":666770,"Delta":167059525},{"NoteNumber":73,"Velocity":47,"Duration":619988,"SoundDuration":619988,"Delta":167106306},{"NoteNumber":51,"Velocity":39,"Duration":165874,"SoundDuration":165874,"Delta":167106306},{"NoteNumber":62,"Velocity":32,"Duration":115760,"SoundDuration":115760,"Delta":167438055},{"NoteNumber":63,"Velocity":32,"Duration":120683,"SoundDuration":120683,"Delta":167530231},{"NoteNumber":65,"Velocity":31,"Duration":100011,"SoundDuration":100011,"Delta":167626284},{"NoteNumber":65,"Velocity":46,"Duration":646478,"SoundDuration":646478,"Delta":167726295},{"NoteNumber":67,"Velocity":46,"Duration":646478,"SoundDuration":646478,"Delta":167726295},{"NoteNumber":73,"Velocity":46,"Duration":646478,"SoundDuration":646478,"Delta":167726295},{"NoteNumber":63,"Velocity":36,"Duration":165874,"SoundDuration":165874,"Delta":167726295},{"NoteNumber":63,"Velocity":42,"Duration":639475,"SoundDuration":639475,"Delta":168058044},{"NoteNumber":61,"Velocity":44,"Duration":641100,"SoundDuration":641100,"Delta":168372773},{"NoteNumber":67,"Velocity":44,"Duration":641100,"SoundDuration":641100,"Delta":168372773},{"NoteNumber":72,"Velocity":44,"Duration":641100,"SoundDuration":641100,"Delta":168372773},{"NoteNumber":63,"Velocity":39,"Duration":316355,"SoundDuration":316355,"Delta":168697519},{"NoteNumber":63,"Velocity":45,"Duration":333555,"SoundDuration":333555,"Delta":169013874},{"NoteNumber":68,"Velocity":45,"Duration":333555,"SoundDuration":333555,"Delta":169013874},{"NoteNumber":56,"Velocity":41,"Duration":2176172,"SoundDuration":2176172,"Delta":169013874},{"NoteNumber":60,"Velocity":41,"Duration":333555,"SoundDuration":333555,"Delta":169013874},{"NoteNumber":65,"Velocity":42,"Duration":333555,"SoundDuration":333555,"Delta":169347430},{"NoteNumber":70,"Velocity":42,"Duration":333555,"SoundDuration":333555,"Delta":169347430},{"NoteNumber":61,"Velocity":40,"Duration":333555,"SoundDuration":333555,"Delta":169347430},{"NoteNumber":66,"Velocity":48,"Duration":359712,"SoundDuration":359712,"Delta":169680985},{"NoteNumber":72,"Velocity":48,"Duration":359712,"SoundDuration":359712,"Delta":169680985},{"NoteNumber":63,"Velocity":44,"Duration":359712,"SoundDuration":359712,"Delta":169680985},{"NoteNumber":72,"Velocity":47,"Duration":351661,"SoundDuration":351661,"Delta":170040697},{"NoteNumber":78,"Velocity":53,"Duration":351661,"SoundDuration":351661,"Delta":170040697},{"NoteNumber":70,"Velocity":47,"Duration":351661,"SoundDuration":351661,"Delta":170040697},{"NoteNumber":72,"Velocity":41,"Duration":370077,"SoundDuration":370077,"Delta":170392359},{"NoteNumber":77,"Velocity":46,"Duration":370077,"SoundDuration":370077,"Delta":170392359},{"NoteNumber":68,"Velocity":44,"Duration":370077,"SoundDuration":370077,"Delta":170392359},{"NoteNumber":72,"Velocity":34,"Duration":427610,"SoundDuration":427610,"Delta":170762436},{"NoteNumber":76,"Velocity":38,"Duration":427610,"SoundDuration":427610,"Delta":170762436},{"NoteNumber":66,"Velocity":36,"Duration":427610,"SoundDuration":427610,"Delta":170762436},{"NoteNumber":77,"Velocity":52,"Duration":431654,"SoundDuration":431654,"Delta":171190046},{"NoteNumber":65,"Velocity":46,"Duration":431654,"SoundDuration":431654,"Delta":171190046},{"NoteNumber":49,"Velocity":54,"Duration":215827,"SoundDuration":215827,"Delta":171190046},{"NoteNumber":55,"Velocity":49,"Duration":105848,"SoundDuration":105848,"Delta":171621701},{"NoteNumber":56,"Velocity":49,"Duration":108423,"SoundDuration":108423,"Delta":171706090},{"NoteNumber":61,"Velocity":48,"Duration":88695,"SoundDuration":88695,"Delta":171792487},{"NoteNumber":65,"Velocity":55,"Duration":931446,"SoundDuration":931446,"Delta":171881183},{"NoteNumber":77,"Velocity":62,"Duration":931446,"SoundDuration":931446,"Delta":171881183},{"NoteNumber":68,"Velocity":59,"Duration":287081,"SoundDuration":287081,"Delta":172224040},{"NoteNumber":44,"Velocity":58,"Duration":150753,"SoundDuration":150753,"Delta":172511121},{"NoteNumber":65,"Velocity":56,"Duration":337078,"SoundDuration":337078,"Delta":172812629},{"NoteNumber":77,"Velocity":63,"Duration":337078,"SoundDuration":337078,"Delta":172812629},{"NoteNumber":68,"Velocity":52,"Duration":168539,"SoundDuration":168539,"Delta":172812629},{"NoteNumber":61,"Velocity":52,"Duration":168539,"SoundDuration":168539,"Delta":172812629},{"NoteNumber":56,"Velocity":52,"Duration":168539,"SoundDuration":168539,"Delta":172812629},{"NoteNumber":65,"Velocity":63,"Duration":483768,"SoundDuration":483768,"Delta":173149707},{"NoteNumber":77,"Velocity":71,"Duration":483768,"SoundDuration":483768,"Delta":173149707},{"NoteNumber":49,"Velocity":59,"Duration":179640,"SoundDuration":179640,"Delta":173149707},{"NoteNumber":55,"Velocity":49,"Duration":103566,"SoundDuration":103566,"Delta":173508989},{"NoteNumber":56,"Velocity":49,"Duration":105311,"SoundDuration":105311,"Delta":173591635},{"NoteNumber":68,"Velocity":60,"Duration":127850,"SoundDuration":127850,"Delta":173633476},{"NoteNumber":80,"Velocity":67,"Duration":127850,"SoundDuration":127850,"Delta":173633476},{"NoteNumber":61,"Velocity":48,"Duration":113605,"SoundDuration":113605,"Delta":173675670},{"NoteNumber":68,"Velocity":60,"Duration":1268384,"SoundDuration":1268384,"Delta":173761326},{"NoteNumber":80,"Velocity":67,"Duration":1268384,"SoundDuration":1268384,"Delta":173761326},{"NoteNumber":65,"Velocity":59,"Duration":167691,"SoundDuration":167691,"Delta":173761326},{"NoteNumber":56,"Velocity":56,"Duration":295566,"SoundDuration":295566,"Delta":174096709},{"NoteNumber":61,"Velocity":56,"Duration":295566,"SoundDuration":295566,"Delta":174096709},{"NoteNumber":65,"Velocity":56,"Duration":295566,"SoundDuration":295566,"Delta":174096709},{"NoteNumber":44,"Velocity":61,"Duration":154639,"SoundDuration":154639,"Delta":174392276},{"NoteNumber":65,"Velocity":49,"Duration":164077,"SoundDuration":164077,"Delta":174701554},{"NoteNumber":61,"Velocity":49,"Duration":164077,"SoundDuration":164077,"Delta":174701554},{"NoteNumber":56,"Velocity":49,"Duration":164077,"SoundDuration":164077,"Delta":174701554},{"NoteNumber":51,"Velocity":55,"Duration":153436,"SoundDuration":153436,"Delta":175029710},{"NoteNumber":78,"Velocity":66,"Duration":321419,"SoundDuration":321419,"Delta":175336584},{"NoteNumber":66,"Velocity":59,"Duration":321419,"SoundDuration":321419,"Delta":175336584},{"NoteNumber":55,"Velocity":45,"Duration":123762,"SoundDuration":123762,"Delta":175336584},{"NoteNumber":56,"Velocity":45,"Duration":123762,"SoundDuration":123762,"Delta":175435594},{"NoteNumber":60,"Velocity":44,"Duration":123400,"SoundDuration":123400,"Delta":175534604},{"NoteNumber":68,"Velocity":61,"Duration":317558,"SoundDuration":317558,"Delta":175633614},{"NoteNumber":80,"Velocity":68,"Duration":317558,"SoundDuration":317558,"Delta":175633614},{"NoteNumber":66,"Velocity":53,"Duration":146341,"SoundDuration":146341,"Delta":175633614},{"NoteNumber":70,"Velocity":63,"Duration":323259,"SoundDuration":323259,"Delta":175926297},{"NoteNumber":82,"Velocity":70,"Duration":323259,"SoundDuration":323259,"Delta":175926297},{"NoteNumber":56,"Velocity":57,"Duration":298507,"SoundDuration":298507,"Delta":175926297},{"NoteNumber":60,"Velocity":57,"Duration":298507,"SoundDuration":298507,"Delta":175926297},{"NoteNumber":66,"Velocity":57,"Duration":298507,"SoundDuration":298507,"Delta":175926297},{"NoteNumber":73,"Velocity":65,"Duration":323807,"SoundDuration":323807,"Delta":176224804},{"NoteNumber":85,"Velocity":73,"Duration":323807,"SoundDuration":323807,"Delta":176224804},{"NoteNumber":44,"Velocity":53,"Duration":148514,"SoundDuration":148514,"Delta":176229755},{"NoteNumber":72,"Velocity":62,"Duration":347168,"SoundDuration":347168,"Delta":176521834},{"NoteNumber":84,"Velocity":69,"Duration":347168,"SoundDuration":347168,"Delta":176521834},{"NoteNumber":66,"Velocity":42,"Duration":160668,"SoundDuration":160668,"Delta":176521834},{"NoteNumber":60,"Velocity":42,"Duration":160668,"SoundDuration":160668,"Delta":176521834},{"NoteNumber":56,"Velocity":42,"Duration":160668,"SoundDuration":160668,"Delta":176521834},{"NoteNumber":75,"Velocity":70,"Duration":335175,"SoundDuration":335175,"Delta":176843171},{"NoteNumber":87,"Velocity":83,"Duration":335175,"SoundDuration":335175,"Delta":176843171},{"NoteNumber":51,"Velocity":58,"Duration":154990,"SoundDuration":154990,"Delta":176843171},{"NoteNumber":70,"Velocity":60,"Duration":329247,"SoundDuration":329247,"Delta":177153152},{"NoteNumber":82,"Velocity":67,"Duration":329247,"SoundDuration":329247,"Delta":177153152},{"NoteNumber":55,"Velocity":45,"Duration":125969,"SoundDuration":125969,"Delta":177153152},{"NoteNumber":56,"Velocity":45,"Duration":125969,"SoundDuration":125969,"Delta":177253928},{"NoteNumber":60,"Velocity":42,"Duration":127695,"SoundDuration":127695,"Delta":177354704},{"NoteNumber":68,"Velocity":56,"Duration":1253407,"SoundDuration":1253407,"Delta":177455480},{"NoteNumber":80,"Velocity":63,"Duration":1253407,"SoundDuration":1253407,"Delta":177455480},{"NoteNumber":66,"Velocity":52,"Duration":161516,"SoundDuration":161516,"Delta":177455480},{"NoteNumber":56,"Velocity":49,"Duration":292683,"SoundDuration":292683,"Delta":177778512},{"NoteNumber":60,"Velocity":49,"Duration":292683,"SoundDuration":292683,"Delta":177778512},{"NoteNumber":66,"Velocity":49,"Duration":292683,"SoundDuration":292683,"Delta":177778512},{"NoteNumber":44,"Velocity":41,"Duration":158177,"SoundDuration":158177,"Delta":178071195},{"NoteNumber":66,"Velocity":39,"Duration":160668,"SoundDuration":160668,"Delta":178387551},{"NoteNumber":60,"Velocity":39,"Duration":160668,"SoundDuration":160668,"Delta":178387551},{"NoteNumber":56,"Velocity":39,"Duration":160668,"SoundDuration":160668,"Delta":178387551},{"NoteNumber":77,"Velocity":45,"Duration":383582,"SoundDuration":383582,"Delta":178708888},{"NoteNumber":65,"Velocity":45,"Duration":383582,"SoundDuration":383582,"Delta":178708888},{"NoteNumber":49,"Velocity":39,"Duration":191791,"SoundDuration":191791,"Delta":178708888},{"NoteNumber":55,"Velocity":32,"Duration":96752,"SoundDuration":96752,"Delta":179092470},{"NoteNumber":56,"Velocity":32,"Duration":98508,"SoundDuration":98508,"Delta":179169692},{"NoteNumber":61,"Velocity":31,"Duration":80163,"SoundDuration":80163,"Delta":179248280},{"NoteNumber":65,"Velocity":45,"Duration":924917,"SoundDuration":924917,"Delta":179328443},{"NoteNumber":77,"Velocity":45,"Duration":924917,"SoundDuration":924917,"Delta":179328443},{"NoteNumber":68,"Velocity":42,"Duration":289854,"SoundDuration":289854,"Delta":179661998},{"NoteNumber":44,"Velocity":38,"Duration":150753,"SoundDuration":150753,"Delta":179951853},{"NoteNumber":65,"Velocity":41,"Duration":328156,"SoundDuration":328156,"Delta":180253361},{"NoteNumber":77,"Velocity":41,"Duration":328156,"SoundDuration":328156,"Delta":180253361},{"NoteNumber":68,"Velocity":34,"Duration":164077,"SoundDuration":164077,"Delta":180253361},{"NoteNumber":61,"Velocity":34,"Duration":164077,"SoundDuration":164077,"Delta":180253361},{"NoteNumber":56,"Velocity":34,"Duration":164077,"SoundDuration":164077,"Delta":180253361},{"NoteNumber":65,"Velocity":46,"Duration":468030,"SoundDuration":468030,"Delta":180581517},{"NoteNumber":77,"Velocity":46,"Duration":468030,"SoundDuration":468030,"Delta":180581517},{"NoteNumber":49,"Velocity":39,"Duration":173370,"SoundDuration":173370,"Delta":180581517},{"NoteNumber":55,"Velocity":32,"Duration":101075,"SoundDuration":101075,"Delta":180928257},{"NoteNumber":56,"Velocity":32,"Duration":101075,"SoundDuration":101075,"Delta":181009118},{"NoteNumber":68,"Velocity":43,"Duration":121290,"SoundDuration":121290,"Delta":181049548},{"NoteNumber":80,"Velocity":43,"Duration":121290,"SoundDuration":121290,"Delta":181049548},{"NoteNumber":61,"Velocity":31,"Duration":108808,"SoundDuration":108808,"Delta":181089978},{"NoteNumber":68,"Velocity":43,"Duration":1269847,"SoundDuration":1269847,"Delta":181170838},{"NoteNumber":80,"Velocity":43,"Duration":1269847,"SoundDuration":1269847,"Delta":181170838},{"NoteNumber":65,"Velocity":38,"Duration":167691,"SoundDuration":167691,"Delta":181170838},{"NoteNumber":56,"Velocity":40,"Duration":297029,"SoundDuration":297029,"Delta":181506221},{"NoteNumber":61,"Velocity":40,"Duration":297029,"SoundDuration":297029,"Delta":181506221},{"NoteNumber":65,"Velocity":40,"Duration":297029,"SoundDuration":297029,"Delta":181506221},{"NoteNumber":44,"Velocity":38,"Duration":154639,"SoundDuration":154639,"Delta":181803251},{"NoteNumber":65,"Velocity":30,"Duration":164077,"SoundDuration":164077,"Delta":182112529},{"NoteNumber":61,"Velocity":30,"Duration":164077,"SoundDuration":164077,"Delta":182112529},{"NoteNumber":56,"Velocity":30,"Duration":164077,"SoundDuration":164077,"Delta":182112529},{"NoteNumber":51,"Velocity":46,"Duration":153436,"SoundDuration":153436,"Delta":182440685},{"NoteNumber":78,"Velocity":55,"Duration":321419,"SoundDuration":321419,"Delta":182747559},{"NoteNumber":66,"Velocity":55,"Duration":321419,"SoundDuration":321419,"Delta":182747559},{"NoteNumber":55,"Velocity":38,"Duration":123762,"SoundDuration":123762,"Delta":182747559},{"NoteNumber":56,"Velocity":38,"Duration":123762,"SoundDuration":123762,"Delta":182846569},{"NoteNumber":60,"Velocity":37,"Duration":123400,"SoundDuration":123400,"Delta":182945579},{"NoteNumber":68,"Velocity":57,"Duration":317877,"SoundDuration":317877,"Delta":183044589},{"NoteNumber":80,"Velocity":57,"Duration":317877,"SoundDuration":317877,"Delta":183044589},{"NoteNumber":66,"Velocity":45,"Duration":146341,"SoundDuration":146341,"Delta":183044589},{"NoteNumber":70,"Velocity":59,"Duration":327900,"SoundDuration":327900,"Delta":183337272},{"NoteNumber":82,"Velocity":59,"Duration":327900,"SoundDuration":327900,"Delta":183337272},{"NoteNumber":56,"Velocity":48,"Duration":302327,"SoundDuration":302327,"Delta":183337272},{"NoteNumber":60,"Velocity":48,"Duration":302327,"SoundDuration":302327,"Delta":183337272},{"NoteNumber":66,"Velocity":48,"Duration":302327,"SoundDuration":302327,"Delta":183337272},{"NoteNumber":73,"Velocity":61,"Duration":333652,"SoundDuration":333652,"Delta":183639600},{"NoteNumber":85,"Velocity":61,"Duration":333652,"SoundDuration":333652,"Delta":183639600},{"NoteNumber":44,"Velocity":45,"Duration":153436,"SoundDuration":153436,"Delta":183639600},{"NoteNumber":72,"Velocity":58,"Duration":347168,"SoundDuration":347168,"Delta":183946474},{"NoteNumber":84,"Velocity":58,"Duration":347168,"SoundDuration":347168,"Delta":183946474},{"NoteNumber":66,"Velocity":36,"Duration":160668,"SoundDuration":160668,"Delta":183946474},{"NoteNumber":60,"Velocity":36,"Duration":160668,"SoundDuration":160668,"Delta":183946474},{"NoteNumber":56,"Velocity":36,"Duration":160668,"SoundDuration":160668,"Delta":183946474},{"NoteNumber":78,"Velocity":65,"Duration":335813,"SoundDuration":335813,"Delta":184267811},{"NoteNumber":90,"Velocity":65,"Duration":335813,"SoundDuration":335813,"Delta":184267811},{"NoteNumber":51,"Velocity":49,"Duration":154990,"SoundDuration":154990,"Delta":184267811},{"NoteNumber":70,"Velocity":56,"Duration":338071,"SoundDuration":338071,"Delta":184577792},{"NoteNumber":82,"Velocity":56,"Duration":338071,"SoundDuration":338071,"Delta":184577792},{"NoteNumber":55,"Velocity":38,"Duration":129158,"SoundDuration":129158,"Delta":184577792},{"NoteNumber":56,"Velocity":38,"Duration":129158,"SoundDuration":129158,"Delta":184681120},{"NoteNumber":60,"Velocity":37,"Duration":131417,"SoundDuration":131417,"Delta":184784447},{"NoteNumber":68,"Velocity":55,"Duration":690019,"SoundDuration":690019,"Delta":184887774},{"NoteNumber":80,"Velocity":55,"Duration":690019,"SoundDuration":690019,"Delta":184887774},{"NoteNumber":66,"Velocity":45,"Duration":168539,"SoundDuration":168539,"Delta":184887774},{"NoteNumber":56,"Velocity":43,"Duration":352940,"SoundDuration":352940,"Delta":185224852},{"NoteNumber":60,"Velocity":43,"Duration":352940,"SoundDuration":352940,"Delta":185224852},{"NoteNumber":66,"Velocity":43,"Duration":352940,"SoundDuration":352940,"Delta":185224852},{"NoteNumber":69,"Velocity":33,"Duration":315789,"SoundDuration":315789,"Delta":185577793},{"NoteNumber":75,"Velocity":33,"Duration":315789,"SoundDuration":315789,"Delta":185577793},{"NoteNumber":80,"Velocity":40,"Duration":342963,"SoundDuration":342963,"Delta":185577793},{"NoteNumber":47,"Velocity":33,"Duration":641876,"SoundDuration":641876,"Delta":185577793},{"NoteNumber":58,"Velocity":23,"Duration":78947,"SoundDuration":78947,"Delta":185814636},{"NoteNumber":79,"Velocity":37,"Duration":326087,"SoundDuration":326087,"Delta":185893583},{"NoteNumber":59,"Velocity":28,"Duration":163043,"SoundDuration":163043,"Delta":185893583},{"NoteNumber":80,"Velocity":49,"Duration":383582,"SoundDuration":383582,"Delta":186219670},{"NoteNumber":68,"Velocity":49,"Duration":383582,"SoundDuration":383582,"Delta":186219670},{"NoteNumber":52,"Velocity":42,"Duration":191791,"SoundDuration":191791,"Delta":186219670},{"NoteNumber":58,"Velocity":36,"Duration":99506,"SoundDuration":99506,"Delta":186603252},{"NoteNumber":59,"Velocity":36,"Duration":99506,"SoundDuration":99506,"Delta":186682858},{"NoteNumber":61,"Velocity":36,"Duration":79605,"SoundDuration":79605,"Delta":186762463},{"NoteNumber":68,"Velocity":52,"Duration":942943,"SoundDuration":942943,"Delta":186842068},{"NoteNumber":80,"Velocity":52,"Duration":942943,"SoundDuration":942943,"Delta":186842068},{"NoteNumber":59,"Velocity":49,"Duration":166777,"SoundDuration":166777,"Delta":186842068},{"NoteNumber":59,"Velocity":44,"Duration":298507,"SoundDuration":298507,"Delta":187175623},{"NoteNumber":47,"Velocity":44,"Duration":155440,"SoundDuration":155440,"Delta":187474131},{"NoteNumber":68,"Velocity":53,"Duration":328156,"SoundDuration":328156,"Delta":187785012},{"NoteNumber":80,"Velocity":53,"Duration":328156,"SoundDuration":328156,"Delta":187785012},{"NoteNumber":59,"Velocity":44,"Duration":164077,"SoundDuration":164077,"Delta":187785012},{"NoteNumber":62,"Velocity":44,"Duration":164077,"SoundDuration":164077,"Delta":187785012},{"NoteNumber":53,"Velocity":44,"Duration":164077,"SoundDuration":164077,"Delta":187785012},{"NoteNumber":83,"Velocity":58,"Duration":304568,"SoundDuration":304568,"Delta":188113168},{"NoteNumber":71,"Velocity":52,"Duration":304568,"SoundDuration":304568,"Delta":188113168},{"NoteNumber":54,"Velocity":50,"Duration":152284,"SoundDuration":152284,"Delta":188113168},{"NoteNumber":69,"Velocity":52,"Duration":297029,"SoundDuration":297029,"Delta":188417736},{"NoteNumber":81,"Velocity":58,"Duration":297029,"SoundDuration":297029,"Delta":188417736},{"NoteNumber":58,"Velocity":41,"Duration":123762,"SoundDuration":123762,"Delta":188417736},{"NoteNumber":59,"Velocity":41,"Duration":123762,"SoundDuration":123762,"Delta":188516746},{"NoteNumber":61,"Velocity":40,"Duration":99009,"SoundDuration":99009,"Delta":188615756},{"NoteNumber":73,"Velocity":58,"Duration":309278,"SoundDuration":309278,"Delta":188714766},{"NoteNumber":85,"Velocity":65,"Duration":309278,"SoundDuration":309278,"Delta":188714766},{"NoteNumber":59,"Velocity":55,"Duration":154639,"SoundDuration":154639,"Delta":188714766},{"NoteNumber":75,"Velocity":54,"Duration":289854,"SoundDuration":289854,"Delta":189024044},{"NoteNumber":87,"Velocity":61,"Duration":289854,"SoundDuration":289854,"Delta":189024044},{"NoteNumber":59,"Velocity":56,"Duration":289854,"SoundDuration":289854,"Delta":189024044},{"NoteNumber":80,"Velocity":64,"Duration":301507,"SoundDuration":301507,"Delta":189313899},{"NoteNumber":92,"Velocity":72,"Duration":301507,"SoundDuration":301507,"Delta":189313899},{"NoteNumber":47,"Velocity":51,"Duration":150753,"SoundDuration":150753,"Delta":189313899},{"NoteNumber":78,"Velocity":61,"Duration":328156,"SoundDuration":328156,"Delta":189615407},{"NoteNumber":90,"Velocity":68,"Duration":328156,"SoundDuration":328156,"Delta":189615407},{"NoteNumber":63,"Velocity":47,"Duration":164077,"SoundDuration":164077,"Delta":189615407},{"NoteNumber":69,"Velocity":47,"Duration":164077,"SoundDuration":164077,"Delta":189615407},{"NoteNumber":59,"Velocity":47,"Duration":164077,"SoundDuration":164077,"Delta":189615407},{"NoteNumber":80,"Velocity":49,"Duration":383582,"SoundDuration":383582,"Delta":189943563},{"NoteNumber":68,"Velocity":49,"Duration":383582,"SoundDuration":383582,"Delta":189943563},{"NoteNumber":52,"Velocity":42,"Duration":191791,"SoundDuration":191791,"Delta":189943563},{"NoteNumber":58,"Velocity":34,"Duration":96309,"SoundDuration":96309,"Delta":190327145},{"NoteNumber":59,"Velocity":34,"Duration":98588,"SoundDuration":98588,"Delta":190403923},{"NoteNumber":61,"Velocity":34,"Duration":80485,"SoundDuration":80485,"Delta":190482512},{"NoteNumber":68,"Velocity":49,"Duration":939863,"SoundDuration":939863,"Delta":190562997},{"NoteNumber":80,"Velocity":49,"Duration":939863,"SoundDuration":939863,"Delta":190562997},{"NoteNumber":59,"Velocity":46,"Duration":166777,"SoundDuration":166777,"Delta":190562997},{"NoteNumber":59,"Velocity":41,"Duration":297029,"SoundDuration":297029,"Delta":190896553},{"NoteNumber":47,"Velocity":41,"Duration":154639,"SoundDuration":154639,"Delta":191193582},{"NoteNumber":68,"Velocity":45,"Duration":328156,"SoundDuration":328156,"Delta":191502861},{"NoteNumber":80,"Velocity":45,"Duration":328156,"SoundDuration":328156,"Delta":191502861},{"NoteNumber":59,"Velocity":37,"Duration":164077,"SoundDuration":164077,"Delta":191502861},{"NoteNumber":62,"Velocity":37,"Duration":164077,"SoundDuration":164077,"Delta":191502861},{"NoteNumber":53,"Velocity":37,"Duration":164077,"SoundDuration":164077,"Delta":191502861},{"NoteNumber":83,"Velocity":49,"Duration":304568,"SoundDuration":304568,"Delta":191831017},{"NoteNumber":71,"Velocity":49,"Duration":304568,"SoundDuration":304568,"Delta":191831017},{"NoteNumber":54,"Velocity":42,"Duration":152284,"SoundDuration":152284,"Delta":191831017},{"NoteNumber":69,"Velocity":49,"Duration":297029,"SoundDuration":297029,"Delta":192135585},{"NoteNumber":81,"Velocity":49,"Duration":297029,"SoundDuration":297029,"Delta":192135585},{"NoteNumber":58,"Velocity":34,"Duration":123762,"SoundDuration":123762,"Delta":192135585},{"NoteNumber":59,"Velocity":34,"Duration":123762,"SoundDuration":123762,"Delta":192234595},{"NoteNumber":61,"Velocity":34,"Duration":99009,"SoundDuration":99009,"Delta":192333605},{"NoteNumber":73,"Velocity":51,"Duration":309278,"SoundDuration":309278,"Delta":192432615},{"NoteNumber":85,"Velocity":51,"Duration":309278,"SoundDuration":309278,"Delta":192432615},{"NoteNumber":59,"Velocity":46,"Duration":154639,"SoundDuration":154639,"Delta":192432615},{"NoteNumber":75,"Velocity":48,"Duration":237843,"SoundDuration":237843,"Delta":192741893},{"NoteNumber":87,"Velocity":48,"Duration":237843,"SoundDuration":237843,"Delta":192741893},{"NoteNumber":59,"Velocity":46,"Duration":317124,"SoundDuration":317124,"Delta":192741893},{"NoteNumber":80,"Velocity":48,"Duration":404660,"SoundDuration":404660,"Delta":192979737},{"NoteNumber":92,"Velocity":55,"Duration":325379,"SoundDuration":325379,"Delta":193059018},{"NoteNumber":47,"Velocity":48,"Duration":162689,"SoundDuration":162689,"Delta":193059018},{"NoteNumber":78,"Velocity":52,"Duration":346420,"SoundDuration":346420,"Delta":193384397},{"NoteNumber":90,"Velocity":52,"Duration":346420,"SoundDuration":346420,"Delta":193384397},{"NoteNumber":63,"Velocity":43,"Duration":173210,"SoundDuration":173210,"Delta":193384397},{"NoteNumber":69,"Velocity":43,"Duration":173210,"SoundDuration":173210,"Delta":193384397},{"NoteNumber":59,"Velocity":43,"Duration":173210,"SoundDuration":173210,"Delta":193384397},{"NoteNumber":80,"Velocity":63,"Duration":594423,"SoundDuration":594423,"Delta":193730818},{"NoteNumber":68,"Velocity":53,"Duration":594423,"SoundDuration":594423,"Delta":193730818},{"NoteNumber":64,"Velocity":69,"Duration":304568,"SoundDuration":304568,"Delta":193730818},{"NoteNumber":63,"Velocity":56,"Duration":120772,"SoundDuration":120772,"Delta":194035386},{"NoteNumber":64,"Velocity":56,"Duration":120772,"SoundDuration":120772,"Delta":194132005},{"NoteNumber":63,"Velocity":56,"Duration":96618,"SoundDuration":96618,"Delta":194228623},{"NoteNumber":78,"Velocity":58,"Duration":615530,"SoundDuration":615530,"Delta":194325241},{"NoteNumber":68,"Velocity":49,"Duration":615530,"SoundDuration":615530,"Delta":194325241},{"NoteNumber":80,"Velocity":58,"Duration":615530,"SoundDuration":615530,"Delta":194325241},{"NoteNumber":62,"Velocity":66,"Duration":312500,"SoundDuration":312500,"Delta":194325241},{"NoteNumber":63,"Velocity":53,"Duration":303030,"SoundDuration":303030,"Delta":194637741},{"NoteNumber":68,"Velocity":56,"Duration":933104,"SoundDuration":933104,"Delta":194940772},{"NoteNumber":76,"Velocity":66,"Duration":631596,"SoundDuration":631596,"Delta":194940772},{"NoteNumber":80,"Velocity":66,"Duration":933104,"SoundDuration":933104,"Delta":194940772},{"NoteNumber":60,"Velocity":60,"Duration":317460,"SoundDuration":317460,"Delta":194940772},{"NoteNumber":56,"Velocity":55,"Duration":314135,"SoundDuration":314135,"Delta":195258232},{"NoteNumber":77,"Velocity":66,"Duration":301507,"SoundDuration":301507,"Delta":195572368},{"NoteNumber":61,"Velocity":60,"Duration":301507,"SoundDuration":301507,"Delta":195572368},{"NoteNumber":66,"Velocity":48,"Duration":292683,"SoundDuration":292683,"Delta":195873876},{"NoteNumber":72,"Velocity":57,"Duration":292683,"SoundDuration":292683,"Delta":195873876},{"NoteNumber":75,"Velocity":57,"Duration":292683,"SoundDuration":292683,"Delta":195873876},{"NoteNumber":57,"Velocity":55,"Duration":292683,"SoundDuration":292683,"Delta":195873876},{"NoteNumber":65,"Velocity":53,"Duration":319149,"SoundDuration":319149,"Delta":196166559},{"NoteNumber":73,"Velocity":63,"Duration":319149,"SoundDuration":319149,"Delta":196166559},{"NoteNumber":58,"Velocity":58,"Duration":319149,"SoundDuration":319149,"Delta":196166559},{"NoteNumber":63,"Velocity":47,"Duration":303030,"SoundDuration":303030,"Delta":196485708},{"NoteNumber":69,"Velocity":56,"Duration":303030,"SoundDuration":303030,"Delta":196485708},{"NoteNumber":72,"Velocity":56,"Duration":303030,"SoundDuration":303030,"Delta":196485708},{"NoteNumber":53,"Velocity":54,"Duration":303030,"SoundDuration":303030,"Delta":196485708},{"NoteNumber":61,"Velocity":51,"Duration":309278,"SoundDuration":309278,"Delta":196788738},{"NoteNumber":70,"Velocity":60,"Duration":309278,"SoundDuration":309278,"Delta":196788738},{"NoteNumber":54,"Velocity":57,"Duration":309278,"SoundDuration":309278,"Delta":196788738},{"NoteNumber":65,"Velocity":53,"Duration":324324,"SoundDuration":324324,"Delta":197098017},{"NoteNumber":68,"Velocity":53,"Duration":324324,"SoundDuration":324324,"Delta":197098017},{"NoteNumber":50,"Velocity":53,"Duration":324324,"SoundDuration":324324,"Delta":197098017},{"NoteNumber":59,"Velocity":53,"Duration":324324,"SoundDuration":324324,"Delta":197098017},{"NoteNumber":66,"Velocity":58,"Duration":310880,"SoundDuration":310880,"Delta":197422341},{"NoteNumber":51,"Velocity":49,"Duration":1862635,"SoundDuration":1862635,"Delta":197422341},{"NoteNumber":58,"Velocity":49,"Duration":1862635,"SoundDuration":1862635,"Delta":197422341},{"NoteNumber":68,"Velocity":55,"Duration":300000,"SoundDuration":300000,"Delta":197733222},{"NoteNumber":69,"Velocity":55,"Duration":315789,"SoundDuration":315789,"Delta":198033222},{"NoteNumber":70,"Velocity":60,"Duration":307692,"SoundDuration":307692,"Delta":198349012},{"NoteNumber":73,"Velocity":65,"Duration":314135,"SoundDuration":314135,"Delta":198656704},{"NoteNumber":66,"Velocity":58,"Duration":235602,"SoundDuration":235602,"Delta":198970840},{"NoteNumber":60,"Velocity":50,"Duration":631707,"SoundDuration":631707,"Delta":199206442},{"NoteNumber":66,"Velocity":51,"Duration":592440,"SoundDuration":592440,"Delta":199245709},{"NoteNumber":70,"Velocity":58,"Duration":553173,"SoundDuration":553173,"Delta":199284976},{"NoteNumber":44,"Velocity":50,"Duration":340909,"SoundDuration":340909,"Delta":199284976},{"NoteNumber":55,"Velocity":41,"Duration":117924,"SoundDuration":117924,"Delta":199625885},{"NoteNumber":56,"Velocity":41,"Duration":117924,"SoundDuration":117924,"Delta":199720225},{"NoteNumber":58,"Velocity":40,"Duration":94339,"SoundDuration":94339,"Delta":199814565},{"NoteNumber":66,"Velocity":48,"Duration":1427422,"SoundDuration":1427422,"Delta":199838150},{"NoteNumber":77,"Velocity":58,"Duration":1013418,"SoundDuration":1013418,"Delta":199908904},{"NoteNumber":56,"Velocity":50,"Duration":359712,"SoundDuration":359712,"Delta":199908904},{"NoteNumber":56,"Velocity":50,"Duration":322580,"SoundDuration":322580,"Delta":200268616},{"NoteNumber":44,"Velocity":46,"Duration":674375,"SoundDuration":674375,"Delta":200591197},{"NoteNumber":72,"Velocity":53,"Duration":343249,"SoundDuration":343249,"Delta":200922323},{"NoteNumber":56,"Velocity":43,"Duration":343249,"SoundDuration":343249,"Delta":200922323},{"NoteNumber":49,"Velocity":34,"Duration":1171484,"SoundDuration":1171484,"Delta":201265572},{"NoteNumber":68,"Velocity":39,"Duration":94133,"SoundDuration":94133,"Delta":201575074},{"NoteNumber":65,"Velocity":39,"Duration":96535,"SoundDuration":96535,"Delta":201650123},{"NoteNumber":61,"Velocity":39,"Duration":107004,"SoundDuration":107004,"Delta":201727051},{"NoteNumber":56,"Velocity":44,"Duration":167691,"SoundDuration":167691,"Delta":201806107},{"NoteNumber":56,"Velocity":33,"Duration":597074,"SoundDuration":597074,"Delta":202141490},{"NoteNumber":61,"Velocity":33,"Duration":597074,"SoundDuration":597074,"Delta":202141490},{"NoteNumber":68,"Velocity":40,"Duration":597074,"SoundDuration":597074,"Delta":202141490},{"NoteNumber":65,"Velocity":39,"Duration":597074,"SoundDuration":597074,"Delta":202141490},{"NoteNumber":44,"Velocity":34,"Duration":301507,"SoundDuration":301507,"Delta":202437057},{"NoteNumber":56,"Velocity":36,"Duration":328156,"SoundDuration":328156,"Delta":202738564},{"NoteNumber":59,"Velocity":36,"Duration":328156,"SoundDuration":328156,"Delta":202738564},{"NoteNumber":65,"Velocity":43,"Duration":328156,"SoundDuration":328156,"Delta":202738564},{"NoteNumber":68,"Velocity":43,"Duration":328156,"SoundDuration":328156,"Delta":202738564},{"NoteNumber":50,"Velocity":39,"Duration":328156,"SoundDuration":328156,"Delta":202738564},{"NoteNumber":51,"Velocity":49,"Duration":1168667,"SoundDuration":1168667,"Delta":203066720},{"NoteNumber":68,"Velocity":39,"Duration":94206,"SoundDuration":94206,"Delta":203376222},{"NoteNumber":66,"Velocity":39,"Duration":96758,"SoundDuration":96758,"Delta":203451271},{"NoteNumber":60,"Velocity":39,"Duration":107166,"SoundDuration":107166,"Delta":203528345},{"NoteNumber":56,"Velocity":44,"Duration":166777,"SoundDuration":166777,"Delta":203607715},{"NoteNumber":56,"Velocity":34,"Duration":595625,"SoundDuration":595625,"Delta":203941270},{"NoteNumber":60,"Velocity":34,"Duration":595625,"SoundDuration":595625,"Delta":203941270},{"NoteNumber":66,"Velocity":41,"Duration":595625,"SoundDuration":595625,"Delta":203941270},{"NoteNumber":68,"Velocity":43,"Duration":595625,"SoundDuration":595625,"Delta":203941270},{"NoteNumber":44,"Velocity":39,"Duration":301507,"SoundDuration":301507,"Delta":204235388},{"NoteNumber":56,"Velocity":32,"Duration":344787,"SoundDuration":344787,"Delta":204536895},{"NoteNumber":64,"Velocity":38,"Duration":344787,"SoundDuration":344787,"Delta":204536895},{"NoteNumber":68,"Velocity":38,"Duration":344787,"SoundDuration":344787,"Delta":204536895},{"NoteNumber":48,"Velocity":35,"Duration":344787,"SoundDuration":344787,"Delta":204536895},{"NoteNumber":49,"Velocity":27,"Duration":1164356,"SoundDuration":1164356,"Delta":204881683},{"NoteNumber":68,"Velocity":27,"Duration":94629,"SoundDuration":94629,"Delta":205191185},{"NoteNumber":65,"Velocity":27,"Duration":96681,"SoundDuration":96681,"Delta":205266657},{"NoteNumber":61,"Velocity":27,"Duration":106694,"SoundDuration":106694,"Delta":205343731},{"NoteNumber":56,"Velocity":30,"Duration":166777,"SoundDuration":166777,"Delta":205422629},{"NoteNumber":56,"Velocity":27,"Duration":591362,"SoundDuration":591362,"Delta":205756185},{"NoteNumber":61,"Velocity":27,"Duration":591362,"SoundDuration":591362,"Delta":205756185},{"NoteNumber":65,"Velocity":27,"Duration":591362,"SoundDuration":591362,"Delta":205756185},{"NoteNumber":68,"Velocity":28,"Duration":591362,"SoundDuration":591362,"Delta":205756185},{"NoteNumber":44,"Velocity":27,"Duration":301507,"SoundDuration":301507,"Delta":206046040},{"NoteNumber":56,"Velocity":26,"Duration":328156,"SoundDuration":328156,"Delta":206347547},{"NoteNumber":59,"Velocity":26,"Duration":328156,"SoundDuration":328156,"Delta":206347547},{"NoteNumber":65,"Velocity":26,"Duration":328156,"SoundDuration":328156,"Delta":206347547},{"NoteNumber":68,"Velocity":26,"Duration":328156,"SoundDuration":328156,"Delta":206347547},{"NoteNumber":50,"Velocity":31,"Duration":328156,"SoundDuration":328156,"Delta":206347547},{"NoteNumber":51,"Velocity":36,"Duration":1181667,"SoundDuration":1181667,"Delta":206675703},{"NoteNumber":68,"Velocity":27,"Duration":96681,"SoundDuration":96681,"Delta":206985205},{"NoteNumber":66,"Velocity":27,"Duration":98978,"SoundDuration":98978,"Delta":207062279},{"NoteNumber":60,"Velocity":27,"Duration":108759,"SoundDuration":108759,"Delta":207141177},{"NoteNumber":56,"Velocity":30,"Duration":167691,"SoundDuration":167691,"Delta":207221988},{"NoteNumber":56,"Velocity":31,"Duration":609278,"SoundDuration":609278,"Delta":207557371},{"NoteNumber":60,"Velocity":31,"Duration":609278,"SoundDuration":609278,"Delta":207557371},{"NoteNumber":66,"Velocity":31,"Duration":609278,"SoundDuration":609278,"Delta":207557371},{"NoteNumber":68,"Velocity":33,"Duration":609278,"SoundDuration":609278,"Delta":207557371},{"NoteNumber":44,"Velocity":31,"Duration":309278,"SoundDuration":309278,"Delta":207857371},{"NoteNumber":56,"Velocity":31,"Duration":326477,"SoundDuration":326477,"Delta":208166650},{"NoteNumber":64,"Velocity":31,"Duration":326477,"SoundDuration":326477,"Delta":208166650},{"NoteNumber":68,"Velocity":31,"Duration":326477,"SoundDuration":326477,"Delta":208166650},{"NoteNumber":48,"Velocity":34,"Duration":326477,"SoundDuration":326477,"Delta":208166650},{"NoteNumber":56,"Velocity":31,"Duration":361446,"SoundDuration":361446,"Delta":208493127},{"NoteNumber":65,"Velocity":31,"Duration":361446,"SoundDuration":361446,"Delta":208493127},{"NoteNumber":68,"Velocity":31,"Duration":361446,"SoundDuration":361446,"Delta":208493127},{"NoteNumber":49,"Velocity":31,"Duration":361446,"SoundDuration":361446,"Delta":208493127},{"NoteNumber":56,"Velocity":32,"Duration":86479,"SoundDuration":86479,"Delta":208854573},{"NoteNumber":65,"Velocity":33,"Duration":87412,"SoundDuration":87412,"Delta":209028465},{"NoteNumber":61,"Velocity":33,"Duration":87412,"SoundDuration":87412,"Delta":209028465},{"NoteNumber":61,"Velocity":32,"Duration":87116,"SoundDuration":87116,"Delta":209203290},{"NoteNumber":68,"Velocity":33,"Duration":86605,"SoundDuration":86605,"Delta":209377012},{"NoteNumber":65,"Velocity":33,"Duration":86605,"SoundDuration":86605,"Delta":209377012},{"NoteNumber":65,"Velocity":31,"Duration":86314,"SoundDuration":86314,"Delta":209550222},{"NoteNumber":73,"Velocity":33,"Duration":85812,"SoundDuration":85812,"Delta":209722349},{"NoteNumber":68,"Velocity":33,"Duration":85812,"SoundDuration":85812,"Delta":209722349},{"NoteNumber":68,"Velocity":31,"Duration":85526,"SoundDuration":85526,"Delta":209893974},{"NoteNumber":77,"Velocity":32,"Duration":85034,"SoundDuration":85034,"Delta":210064535},{"NoteNumber":73,"Velocity":32,"Duration":85034,"SoundDuration":85034,"Delta":210064535},{"NoteNumber":73,"Velocity":30,"Duration":84753,"SoundDuration":84753,"Delta":210234603},{"NoteNumber":80,"Velocity":32,"Duration":84269,"SoundDuration":84269,"Delta":210403626},{"NoteNumber":77,"Velocity":32,"Duration":84269,"SoundDuration":84269,"Delta":210403626},{"NoteNumber":77,"Velocity":30,"Duration":82869,"SoundDuration":82869,"Delta":210572165},{"NoteNumber":85,"Velocity":31,"Duration":84006,"SoundDuration":84006,"Delta":210737988},{"NoteNumber":80,"Velocity":31,"Duration":84006,"SoundDuration":84006,"Delta":210737988},{"NoteNumber":68,"Velocity":29,"Duration":86327,"SoundDuration":86327,"Delta":210907058},{"NoteNumber":73,"Velocity":31,"Duration":88780,"SoundDuration":88780,"Delta":211080828},{"NoteNumber":77,"Velocity":31,"Duration":88780,"SoundDuration":88780,"Delta":211080828},{"NoteNumber":73,"Velocity":29,"Duration":89273,"SoundDuration":89273,"Delta":211259569},{"NoteNumber":80,"Velocity":30,"Duration":91142,"SoundDuration":91142,"Delta":211438357},{"NoteNumber":77,"Velocity":30,"Duration":91142,"SoundDuration":91142,"Delta":211438357},{"NoteNumber":77,"Velocity":29,"Duration":94829,"SoundDuration":94829,"Delta":211622569},{"NoteNumber":85,"Velocity":30,"Duration":98828,"SoundDuration":98828,"Delta":211814318},{"NoteNumber":80,"Velocity":30,"Duration":98828,"SoundDuration":98828,"Delta":211814318},{"NoteNumber":80,"Velocity":28,"Duration":103931,"SoundDuration":103931,"Delta":212014246},{"NoteNumber":89,"Velocity":30,"Duration":114170,"SoundDuration":114170,"Delta":212226991},{"NoteNumber":85,"Velocity":30,"Duration":114170,"SoundDuration":114170,"Delta":212226991},{"NoteNumber":85,"Velocity":28,"Duration":127488,"SoundDuration":127488,"Delta":212461840},{"NoteNumber":92,"Velocity":29,"Duration":179425,"SoundDuration":179425,"Delta":212724340},{"NoteNumber":89,"Velocity":29,"Duration":179425,"SoundDuration":179425,"Delta":212724340},{"NoteNumber":73,"Velocity":28,"Duration":2379913,"SoundDuration":2379913,"Delta":212903766},{"NoteNumber":80,"Velocity":28,"Duration":2323010,"SoundDuration":2323010,"Delta":212978527},{"NoteNumber":85,"Velocity":29,"Duration":2290200,"SoundDuration":2290200,"Delta":212993479},{"NoteNumber":89,"Velocity":35,"Duration":2245344,"SoundDuration":2245344,"Delta":213038336},{"NoteNumber":97,"Velocity":35,"Duration":2200488,"SoundDuration":2200488,"Delta":213083192},{"NoteNumber":65,"Velocity":26,"Duration":2571428,"SoundDuration":2571428,"Delta":215283680},{"NoteNumber":61,"Velocity":20,"Duration":2571428,"SoundDuration":2571428,"Delta":215283680},{"NoteNumber":53,"Velocity":20,"Duration":2571428,"SoundDuration":2571428,"Delta":215283680},{"NoteNumber":37,"Velocity":17,"Duration":2571428,"SoundDuration":2571428,"Delta":215283680},{"NoteNumber":44,"Velocity":17,"Duration":2571428,"SoundDuration":2571428,"Delta":215283680},{"NoteNumber":49,"Velocity":22,"Duration":2571428,"SoundDuration":2571428,"Delta":215283680}],"license":{"name":"Creative Commons Attribution-ShareAlike 3.0 Germany","url":"http://creativecommons.org/licenses/by-sa/3.0/de/deed.en","text":"The MIDI, audio (MP3, OGG) and video files of Bernd Krueger are licensed under the cc-by-sa Germany License. This means that you can use and adapt the files, as long as you attribute the copyright holder.\n\nName: Bernd Krueger\nSource: http://www.piano-midi.de\n\nThe distribution or public playback of the files is only allowed under identical license conditions.\n\nThe scores are open source.","attribution":"MIDI files by Bernd Krueger (piano-midi.de)"}}