{"title":"Clementi: Sonatine Opus 36 Nr. 2, 1. Satz","artist":"Piano","durationMs":117773,"midiSha256":"c68b83c85f8e636d017fe74cbf9e81f294a7577ae1c63bcd7952ad9d26b49688","midiObject":[{"NoteNumber":74,"Velocity":46,"Duration":248983,"SoundDuration":248983,"Delta":0},{"NoteNumber":74,"Velocity":50,"Duration":248983,"SoundDuration":248983,"Delta":248984},{"NoteNumber":55,"Velocity":35,"Duration":248983,"SoundDuration":248983,"Delta":248984},{"NoteNumber":71,"Velocity":45,"Duration":248983,"SoundDuration":248983,"Delta":497967},{"NoteNumber":59,"Velocity":28,"Duration":248983,"SoundDuration":248983,"Delta":497967},{"NoteNumber":71,"Velocity":49,"Duration":254043,"SoundDuration":254043,"Delta":746951},{"NoteNumber":62,"Velocity":28,"Duration":254043,"SoundDuration":254043,"Delta":746951},{"NoteNumber":79,"Velocity":62,"Duration":254043,"SoundDuration":254043,"Delta":1000994},{"NoteNumber":59,"Velocity":32,"Duration":254043,"SoundDuration":254043,"Delta":1000994},{"NoteNumber":79,"Velocity":69,"Duration":743248,"SoundDuration":743248,"Delta":1255037},{"NoteNumber":55,"Velocity":41,"Duration":247749,"SoundDuration":247749,"Delta":1255037},{"NoteNumber":59,"Velocity":33,"Duration":247749,"SoundDuration":247749,"Delta":1502787},{"NoteNumber":62,"Velocity":31,"Duration":247749,"SoundDuration":247749,"Delta":1750537},{"NoteNumber":78,"Velocity":49,"Duration":119436,"SoundDuration":119436,"Delta":1998286},{"NoteNumber":59,"Velocity":31,"Duration":238872,"SoundDuration":238872,"Delta":1998286},{"NoteNumber":76,"Velocity":45,"Duration":119436,"SoundDuration":119436,"Delta":2117722},{"NoteNumber":74,"Velocity":50,"Duration":123365,"SoundDuration":123365,"Delta":2237158},{"NoteNumber":54,"Velocity":35,"Duration":246731,"SoundDuration":246731,"Delta":2237158},{"NoteNumber":74,"Velocity":45,"Duration":123365,"SoundDuration":123365,"Delta":2483889},{"NoteNumber":57,"Velocity":31,"Duration":246731,"SoundDuration":246731,"Delta":2483889},{"NoteNumber":74,"Velocity":50,"Duration":132434,"SoundDuration":132434,"Delta":2730620},{"NoteNumber":62,"Velocity":35,"Duration":240790,"SoundDuration":240790,"Delta":2730620},{"NoteNumber":76,"Velocity":43,"Duration":132434,"SoundDuration":132434,"Delta":2851015},{"NoteNumber":74,"Velocity":43,"Duration":133151,"SoundDuration":133151,"Delta":2971411},{"NoteNumber":57,"Velocity":30,"Duration":247956,"SoundDuration":247956,"Delta":2971411},{"NoteNumber":72,"Velocity":43,"Duration":139847,"SoundDuration":139847,"Delta":3091805},{"NoteNumber":71,"Velocity":53,"Duration":245720,"SoundDuration":245720,"Delta":3219367},{"NoteNumber":55,"Velocity":35,"Duration":245720,"SoundDuration":245720,"Delta":3219367},{"NoteNumber":74,"Velocity":46,"Duration":122860,"SoundDuration":122860,"Delta":3465088},{"NoteNumber":59,"Velocity":30,"Duration":245720,"SoundDuration":245720,"Delta":3465088},{"NoteNumber":62,"Velocity":30,"Duration":245720,"SoundDuration":245720,"Delta":3710808},{"NoteNumber":79,"Velocity":46,"Duration":245720,"SoundDuration":245720,"Delta":3956529},{"NoteNumber":59,"Velocity":30,"Duration":245720,"SoundDuration":245720,"Delta":3956529},{"NoteNumber":79,"Velocity":53,"Duration":245720,"SoundDuration":245720,"Delta":4202249},{"NoteNumber":55,"Velocity":35,"Duration":245720,"SoundDuration":245720,"Delta":4202249},{"NoteNumber":74,"Velocity":49,"Duration":245720,"SoundDuration":245720,"Delta":4447970},{"NoteNumber":59,"Velocity":28,"Duration":245720,"SoundDuration":245720,"Delta":4447970},{"NoteNumber":74,"Velocity":58,"Duration":251910,"SoundDuration":251910,"Delta":4693690},{"NoteNumber":62,"Velocity":34,"Duration":251910,"SoundDuration":251910,"Delta":4693690},{"NoteNumber":83,"Velocity":62,"Duration":251910,"SoundDuration":251910,"Delta":4945601},{"NoteNumber":59,"Velocity":39,"Duration":251910,"SoundDuration":251910,"Delta":4945601},{"NoteNumber":83,"Velocity":69,"Duration":731171,"SoundDuration":731171,"Delta":5197511},{"NoteNumber":55,"Velocity":42,"Duration":243724,"SoundDuration":243724,"Delta":5197511},{"NoteNumber":59,"Velocity":38,"Duration":243723,"SoundDuration":243723,"Delta":5441235},{"NoteNumber":64,"Velocity":31,"Duration":243724,"SoundDuration":243724,"Delta":5684959},{"NoteNumber":79,"Velocity":49,"Duration":116649,"SoundDuration":116649,"Delta":5928683},{"NoteNumber":76,"Velocity":45,"Duration":116649,"SoundDuration":116649,"Delta":6045333},{"NoteNumber":74,"Velocity":50,"Duration":121862,"SoundDuration":121862,"Delta":6161983},{"NoteNumber":66,"Velocity":35,"Duration":121862,"SoundDuration":121862,"Delta":6161983},{"NoteNumber":57,"Velocity":35,"Duration":121862,"SoundDuration":121862,"Delta":6161983},{"NoteNumber":74,"Velocity":45,"Duration":121862,"SoundDuration":121862,"Delta":6405707},{"NoteNumber":66,"Velocity":31,"Duration":121862,"SoundDuration":121862,"Delta":6405707},{"NoteNumber":57,"Velocity":31,"Duration":121862,"SoundDuration":121862,"Delta":6405707},{"NoteNumber":74,"Velocity":50,"Duration":130859,"SoundDuration":130859,"Delta":6649431},{"NoteNumber":57,"Velocity":35,"Duration":118962,"SoundDuration":118962,"Delta":6649431},{"NoteNumber":64,"Velocity":35,"Duration":118962,"SoundDuration":118962,"Delta":6649431},{"NoteNumber":73,"Velocity":43,"Duration":130859,"SoundDuration":130859,"Delta":6768394},{"NoteNumber":71,"Velocity":43,"Duration":131505,"SoundDuration":131505,"Delta":6887356},{"NoteNumber":64,"Velocity":30,"Duration":118962,"SoundDuration":118962,"Delta":6887356},{"NoteNumber":57,"Velocity":30,"Duration":118962,"SoundDuration":118962,"Delta":6887356},{"NoteNumber":73,"Velocity":43,"Duration":137815,"SoundDuration":137815,"Delta":7006319},{"NoteNumber":74,"Velocity":53,"Duration":497090,"SoundDuration":497090,"Delta":7131748},{"NoteNumber":50,"Velocity":35,"Duration":123874,"SoundDuration":123874,"Delta":7131748},{"NoteNumber":62,"Velocity":30,"Duration":125428,"SoundDuration":125428,"Delta":7377981},{"NoteNumber":50,"Velocity":35,"Duration":122860,"SoundDuration":122860,"Delta":7628838},{"NoteNumber":81,"Velocity":50,"Duration":137971,"SoundDuration":137971,"Delta":7874559},{"NoteNumber":62,"Velocity":35,"Duration":125428,"SoundDuration":125428,"Delta":7874559},{"NoteNumber":79,"Velocity":46,"Duration":137614,"SoundDuration":137614,"Delta":7999987},{"NoteNumber":78,"Velocity":50,"Duration":132439,"SoundDuration":132439,"Delta":8125416},{"NoteNumber":50,"Velocity":35,"Duration":120399,"SoundDuration":120399,"Delta":8125416},{"NoteNumber":76,"Velocity":45,"Duration":132822,"SoundDuration":132822,"Delta":8245815},{"NoteNumber":74,"Velocity":45,"Duration":133900,"SoundDuration":133900,"Delta":8366501},{"NoteNumber":62,"Velocity":32,"Duration":121664,"SoundDuration":121664,"Delta":8366501},{"NoteNumber":73,"Velocity":45,"Duration":134251,"SoundDuration":134251,"Delta":8488166},{"NoteNumber":71,"Velocity":50,"Duration":133359,"SoundDuration":133359,"Delta":8610330},{"NoteNumber":50,"Velocity":35,"Duration":121173,"SoundDuration":121173,"Delta":8610330},{"NoteNumber":73,"Velocity":46,"Duration":134296,"SoundDuration":134296,"Delta":8731503},{"NoteNumber":74,"Velocity":46,"Duration":135827,"SoundDuration":135827,"Delta":8853564},{"NoteNumber":62,"Velocity":31,"Duration":122962,"SoundDuration":122962,"Delta":8853564},{"NoteNumber":71,"Velocity":46,"Duration":143176,"SoundDuration":143176,"Delta":8976526},{"NoteNumber":69,"Velocity":50,"Duration":255185,"SoundDuration":255185,"Delta":9106613},{"NoteNumber":50,"Velocity":35,"Duration":142031,"SoundDuration":142031,"Delta":9106613},{"NoteNumber":52,"Velocity":30,"Duration":138349,"SoundDuration":138349,"Delta":9235887},{"NoteNumber":54,"Velocity":31,"Duration":134762,"SoundDuration":134762,"Delta":9361798},{"NoteNumber":55,"Velocity":31,"Duration":131388,"SoundDuration":131388,"Delta":9484472},{"NoteNumber":57,"Velocity":32,"Duration":129390,"SoundDuration":129390,"Delta":9604058},{"NoteNumber":59,"Velocity":34,"Duration":132054,"SoundDuration":132054,"Delta":9721553},{"NoteNumber":81,"Velocity":50,"Duration":133608,"SoundDuration":133608,"Delta":9841470},{"NoteNumber":61,"Velocity":34,"Duration":133608,"SoundDuration":133608,"Delta":9841470},{"NoteNumber":79,"Velocity":46,"Duration":137891,"SoundDuration":137891,"Delta":9962843},{"NoteNumber":62,"Velocity":36,"Duration":125705,"SoundDuration":125705,"Delta":9962843},{"NoteNumber":78,"Velocity":50,"Duration":132439,"SoundDuration":132439,"Delta":10088548},{"NoteNumber":50,"Velocity":35,"Duration":120399,"SoundDuration":120399,"Delta":10088548},{"NoteNumber":76,"Velocity":45,"Duration":133017,"SoundDuration":133017,"Delta":10208948},{"NoteNumber":74,"Velocity":45,"Duration":134098,"SoundDuration":134098,"Delta":10329829},{"NoteNumber":62,"Velocity":32,"Duration":121862,"SoundDuration":121862,"Delta":10329829},{"NoteNumber":73,"Velocity":45,"Duration":135099,"SoundDuration":135099,"Delta":10451691},{"NoteNumber":71,"Velocity":50,"Duration":132680,"SoundDuration":132680,"Delta":10574654},{"NoteNumber":50,"Velocity":42,"Duration":120592,"SoundDuration":120592,"Delta":10574654},{"NoteNumber":73,"Velocity":48,"Duration":133705,"SoundDuration":133705,"Delta":10695246},{"NoteNumber":74,"Velocity":50,"Duration":136243,"SoundDuration":136243,"Delta":10816716},{"NoteNumber":62,"Velocity":37,"Duration":123266,"SoundDuration":123266,"Delta":10816716},{"NoteNumber":71,"Velocity":55,"Duration":141955,"SoundDuration":141955,"Delta":10939982},{"NoteNumber":69,"Velocity":60,"Duration":247558,"SoundDuration":247558,"Delta":11069751},{"NoteNumber":50,"Velocity":48,"Duration":124090,"SoundDuration":124090,"Delta":11069751},{"NoteNumber":54,"Velocity":41,"Duration":123468,"SoundDuration":123468,"Delta":11193842},{"NoteNumber":57,"Velocity":47,"Duration":121962,"SoundDuration":121962,"Delta":11317310},{"NoteNumber":62,"Velocity":41,"Duration":120687,"SoundDuration":120687,"Delta":11439272},{"NoteNumber":86,"Velocity":62,"Duration":119913,"SoundDuration":119913,"Delta":11559960},{"NoteNumber":81,"Velocity":53,"Duration":119913,"SoundDuration":119913,"Delta":11679873},{"NoteNumber":78,"Velocity":56,"Duration":119913,"SoundDuration":119913,"Delta":11799787},{"NoteNumber":74,"Velocity":54,"Duration":130901,"SoundDuration":130901,"Delta":11919701},{"NoteNumber":76,"Velocity":62,"Duration":124388,"SoundDuration":124388,"Delta":12050602},{"NoteNumber":55,"Velocity":40,"Duration":124388,"SoundDuration":124388,"Delta":12050602},{"NoteNumber":59,"Velocity":48,"Duration":124388,"SoundDuration":124388,"Delta":12050602},{"NoteNumber":76,"Velocity":58,"Duration":124388,"SoundDuration":124388,"Delta":12299379},{"NoteNumber":59,"Velocity":43,"Duration":124388,"SoundDuration":124388,"Delta":12299379},{"NoteNumber":55,"Velocity":36,"Duration":124388,"SoundDuration":124388,"Delta":12299379},{"NoteNumber":73,"Velocity":52,"Duration":124388,"SoundDuration":124388,"Delta":12548156},{"NoteNumber":81,"Velocity":62,"Duration":124388,"SoundDuration":124388,"Delta":12548156},{"NoteNumber":57,"Velocity":48,"Duration":124388,"SoundDuration":124388,"Delta":12548156},{"NoteNumber":81,"Velocity":57,"Duration":133226,"SoundDuration":133226,"Delta":12796933},{"NoteNumber":73,"Velocity":48,"Duration":133226,"SoundDuration":133226,"Delta":12796933},{"NoteNumber":57,"Velocity":43,"Duration":133226,"SoundDuration":133226,"Delta":12796933},{"NoteNumber":76,"Velocity":52,"Duration":499625,"SoundDuration":499625,"Delta":13063387},{"NoteNumber":79,"Velocity":62,"Duration":499625,"SoundDuration":499625,"Delta":13063387},{"NoteNumber":50,"Velocity":35,"Duration":124906,"SoundDuration":124906,"Delta":13063387},{"NoteNumber":62,"Velocity":32,"Duration":124906,"SoundDuration":124906,"Delta":13313199},{"NoteNumber":78,"Velocity":59,"Duration":256213,"SoundDuration":256213,"Delta":13563012},{"NoteNumber":74,"Velocity":50,"Duration":256213,"SoundDuration":256213,"Delta":13563012},{"NoteNumber":50,"Velocity":35,"Duration":128106,"SoundDuration":128106,"Delta":13563012},{"NoteNumber":81,"Velocity":50,"Duration":132967,"SoundDuration":132967,"Delta":13819225},{"NoteNumber":62,"Velocity":35,"Duration":120879,"SoundDuration":120879,"Delta":13819225},{"NoteNumber":79,"Velocity":46,"Duration":133475,"SoundDuration":133475,"Delta":13940105},{"NoteNumber":78,"Velocity":50,"Duration":138129,"SoundDuration":138129,"Delta":14060985},{"NoteNumber":50,"Velocity":35,"Duration":125639,"SoundDuration":125639,"Delta":14060985},{"NoteNumber":76,"Velocity":45,"Duration":137086,"SoundDuration":137086,"Delta":14186624},{"NoteNumber":74,"Velocity":45,"Duration":135957,"SoundDuration":135957,"Delta":14311323},{"NoteNumber":62,"Velocity":32,"Duration":123671,"SoundDuration":123671,"Delta":14311323},{"NoteNumber":73,"Velocity":45,"Duration":134796,"SoundDuration":134796,"Delta":14434994},{"NoteNumber":71,"Velocity":50,"Duration":133752,"SoundDuration":133752,"Delta":14557654},{"NoteNumber":50,"Velocity":35,"Duration":121566,"SoundDuration":121566,"Delta":14557654},{"NoteNumber":73,"Velocity":46,"Duration":134645,"SoundDuration":134645,"Delta":14679220},{"NoteNumber":74,"Velocity":46,"Duration":135550,"SoundDuration":135550,"Delta":14801580},{"NoteNumber":62,"Velocity":31,"Duration":123163,"SoundDuration":123163,"Delta":14801580},{"NoteNumber":71,"Velocity":46,"Duration":135882,"SoundDuration":135882,"Delta":14924744},{"NoteNumber":69,"Velocity":50,"Duration":129829,"SoundDuration":129829,"Delta":15048824},{"NoteNumber":50,"Velocity":35,"Duration":118026,"SoundDuration":118026,"Delta":15048824},{"NoteNumber":67,"Velocity":46,"Duration":130262,"SoundDuration":130262,"Delta":15166850},{"NoteNumber":66,"Velocity":46,"Duration":134594,"SoundDuration":134594,"Delta":15284877},{"NoteNumber":62,"Velocity":32,"Duration":122358,"SoundDuration":122358,"Delta":15284877},{"NoteNumber":67,"Velocity":46,"Duration":135335,"SoundDuration":135335,"Delta":15407236},{"NoteNumber":69,"Velocity":50,"Duration":129768,"SoundDuration":129768,"Delta":15529595},{"NoteNumber":50,"Velocity":35,"Duration":129768,"SoundDuration":129768,"Delta":15529595},{"NoteNumber":81,"Velocity":50,"Duration":137396,"SoundDuration":137396,"Delta":15789133},{"NoteNumber":62,"Velocity":31,"Duration":124906,"SoundDuration":124906,"Delta":15789133},{"NoteNumber":79,"Velocity":46,"Duration":137396,"SoundDuration":137396,"Delta":15914039},{"NoteNumber":78,"Velocity":50,"Duration":136623,"SoundDuration":136623,"Delta":16038945},{"NoteNumber":50,"Velocity":35,"Duration":124286,"SoundDuration":124286,"Delta":16038945},{"NoteNumber":76,"Velocity":45,"Duration":135198,"SoundDuration":135198,"Delta":16163232},{"NoteNumber":74,"Velocity":45,"Duration":133901,"SoundDuration":133901,"Delta":16286194},{"NoteNumber":62,"Velocity":32,"Duration":121764,"SoundDuration":121764,"Delta":16286194},{"NoteNumber":73,"Velocity":45,"Duration":134248,"SoundDuration":134248,"Delta":16407958},{"NoteNumber":71,"Velocity":50,"Duration":135652,"SoundDuration":135652,"Delta":16529920},{"NoteNumber":50,"Velocity":42,"Duration":123265,"SoundDuration":123265,"Delta":16529920},{"NoteNumber":73,"Velocity":48,"Duration":137640,"SoundDuration":137640,"Delta":16653186},{"NoteNumber":74,"Velocity":50,"Duration":144622,"SoundDuration":144622,"Delta":16777678},{"NoteNumber":62,"Velocity":37,"Duration":131475,"SoundDuration":131475,"Delta":16777678},{"NoteNumber":71,"Velocity":55,"Duration":143965,"SoundDuration":143965,"Delta":16909154},{"NoteNumber":69,"Velocity":60,"Duration":249812,"SoundDuration":249812,"Delta":17040629},{"NoteNumber":50,"Velocity":48,"Duration":124906,"SoundDuration":124906,"Delta":17040629},{"NoteNumber":54,"Velocity":41,"Duration":124906,"SoundDuration":124906,"Delta":17165535},{"NoteNumber":57,"Velocity":47,"Duration":124906,"SoundDuration":124906,"Delta":17290441},{"NoteNumber":62,"Velocity":41,"Duration":125329,"SoundDuration":125329,"Delta":17415348},{"NoteNumber":74,"Velocity":62,"Duration":126594,"SoundDuration":126594,"Delta":17540677},{"NoteNumber":78,"Velocity":53,"Duration":125324,"SoundDuration":125324,"Delta":17667271},{"NoteNumber":81,"Velocity":56,"Duration":124286,"SoundDuration":124286,"Delta":17792596},{"NoteNumber":86,"Velocity":54,"Duration":123471,"SoundDuration":123471,"Delta":17916883},{"NoteNumber":85,"Velocity":67,"Duration":135859,"SoundDuration":135859,"Delta":18040354},{"NoteNumber":55,"Velocity":49,"Duration":247758,"SoundDuration":247758,"Delta":18040354},{"NoteNumber":83,"Velocity":55,"Duration":136777,"SoundDuration":136777,"Delta":18163826},{"NoteNumber":81,"Velocity":58,"Duration":138183,"SoundDuration":138183,"Delta":18288112},{"NoteNumber":52,"Velocity":40,"Duration":251509,"SoundDuration":251509,"Delta":18288112},{"NoteNumber":79,"Velocity":55,"Duration":138261,"SoundDuration":138261,"Delta":18413647},{"NoteNumber":78,"Velocity":66,"Duration":135652,"SoundDuration":135652,"Delta":18539622},{"NoteNumber":57,"Velocity":47,"Duration":247758,"SoundDuration":247758,"Delta":18539622},{"NoteNumber":76,"Velocity":53,"Duration":137035,"SoundDuration":137035,"Delta":18662888},{"NoteNumber":74,"Velocity":58,"Duration":138499,"SoundDuration":138499,"Delta":18787381},{"NoteNumber":45,"Velocity":42,"Duration":252765,"SoundDuration":252765,"Delta":18787381},{"NoteNumber":73,"Velocity":56,"Duration":126914,"SoundDuration":126914,"Delta":18913231},{"NoteNumber":74,"Velocity":67,"Duration":124906,"SoundDuration":124906,"Delta":19040146},{"NoteNumber":50,"Velocity":49,"Duration":249812,"SoundDuration":249812,"Delta":19040146},{"NoteNumber":78,"Velocity":58,"Duration":124906,"SoundDuration":124906,"Delta":19165052},{"NoteNumber":81,"Velocity":64,"Duration":122860,"SoundDuration":122860,"Delta":19289958},{"NoteNumber":78,"Velocity":58,"Duration":122860,"SoundDuration":122860,"Delta":19412819},{"NoteNumber":81,"Velocity":67,"Duration":122860,"SoundDuration":122860,"Delta":19535679},{"NoteNumber":78,"Velocity":59,"Duration":122860,"SoundDuration":122860,"Delta":19658539},{"NoteNumber":79,"Velocity":64,"Duration":133821,"SoundDuration":133821,"Delta":19781399},{"NoteNumber":45,"Velocity":49,"Duration":133821,"SoundDuration":133821,"Delta":19781399},{"NoteNumber":76,"Velocity":58,"Duration":133820,"SoundDuration":133820,"Delta":19915220},{"NoteNumber":74,"Velocity":67,"Duration":124388,"SoundDuration":124388,"Delta":20049041},{"NoteNumber":50,"Velocity":57,"Duration":124388,"SoundDuration":124388,"Delta":20049041},{"NoteNumber":78,"Velocity":59,"Duration":124388,"SoundDuration":124388,"Delta":20173430},{"NoteNumber":81,"Velocity":63,"Duration":121862,"SoundDuration":121862,"Delta":20297818},{"NoteNumber":78,"Velocity":58,"Duration":121862,"SoundDuration":121862,"Delta":20419680},{"NoteNumber":81,"Velocity":67,"Duration":121862,"SoundDuration":121862,"Delta":20541542},{"NoteNumber":78,"Velocity":59,"Duration":121862,"SoundDuration":121862,"Delta":20663404},{"NoteNumber":79,"Velocity":65,"Duration":133226,"SoundDuration":133226,"Delta":20785266},{"NoteNumber":45,"Velocity":49,"Duration":133226,"SoundDuration":133226,"Delta":20785266},{"NoteNumber":76,"Velocity":59,"Duration":133226,"SoundDuration":133226,"Delta":20918493},{"NoteNumber":74,"Velocity":70,"Duration":508086,"SoundDuration":508086,"Delta":21051720},{"NoteNumber":50,"Velocity":56,"Duration":127021,"SoundDuration":127021,"Delta":21051720},{"NoteNumber":38,"Velocity":49,"Duration":127021,"SoundDuration":127021,"Delta":21305763},{"NoteNumber":38,"Velocity":54,"Duration":141924,"SoundDuration":141924,"Delta":21559807},{"NoteNumber":74,"Velocity":46,"Duration":248983,"SoundDuration":248983,"Delta":21843656},{"NoteNumber":74,"Velocity":50,"Duration":248983,"SoundDuration":248983,"Delta":22092639},{"NoteNumber":55,"Velocity":35,"Duration":248983,"SoundDuration":248983,"Delta":22092639},{"NoteNumber":71,"Velocity":45,"Duration":248983,"SoundDuration":248983,"Delta":22341623},{"NoteNumber":59,"Velocity":28,"Duration":248983,"SoundDuration":248983,"Delta":22341623},{"NoteNumber":71,"Velocity":49,"Duration":254043,"SoundDuration":254043,"Delta":22590606},{"NoteNumber":62,"Velocity":28,"Duration":254043,"SoundDuration":254043,"Delta":22590606},{"NoteNumber":79,"Velocity":62,"Duration":254043,"SoundDuration":254043,"Delta":22844650},{"NoteNumber":59,"Velocity":32,"Duration":254043,"SoundDuration":254043,"Delta":22844650},{"NoteNumber":79,"Velocity":69,"Duration":743248,"SoundDuration":743248,"Delta":23098693},{"NoteNumber":55,"Velocity":41,"Duration":247749,"SoundDuration":247749,"Delta":23098693},{"NoteNumber":59,"Velocity":33,"Duration":247749,"SoundDuration":247749,"Delta":23346443},{"NoteNumber":62,"Velocity":31,"Duration":247749,"SoundDuration":247749,"Delta":23594192},{"NoteNumber":78,"Velocity":49,"Duration":119436,"SoundDuration":119436,"Delta":23841942},{"NoteNumber":59,"Velocity":31,"Duration":238872,"SoundDuration":238872,"Delta":23841942},{"NoteNumber":76,"Velocity":45,"Duration":119436,"SoundDuration":119436,"Delta":23961378},{"NoteNumber":74,"Velocity":50,"Duration":123365,"SoundDuration":123365,"Delta":24080814},{"NoteNumber":54,"Velocity":35,"Duration":246731,"SoundDuration":246731,"Delta":24080814},{"NoteNumber":74,"Velocity":45,"Duration":123365,"SoundDuration":123365,"Delta":24327545},{"NoteNumber":57,"Velocity":31,"Duration":246731,"SoundDuration":246731,"Delta":24327545},{"NoteNumber":74,"Velocity":50,"Duration":132434,"SoundDuration":132434,"Delta":24574276},{"NoteNumber":62,"Velocity":35,"Duration":240790,"SoundDuration":240790,"Delta":24574276},{"NoteNumber":76,"Velocity":43,"Duration":132434,"SoundDuration":132434,"Delta":24694671},{"NoteNumber":74,"Velocity":43,"Duration":133151,"SoundDuration":133151,"Delta":24815066},{"NoteNumber":57,"Velocity":30,"Duration":247956,"SoundDuration":247956,"Delta":24815066},{"NoteNumber":72,"Velocity":43,"Duration":139847,"SoundDuration":139847,"Delta":24935461},{"NoteNumber":71,"Velocity":53,"Duration":245720,"SoundDuration":245720,"Delta":25063023},{"NoteNumber":55,"Velocity":35,"Duration":245720,"SoundDuration":245720,"Delta":25063023},{"NoteNumber":74,"Velocity":46,"Duration":122860,"SoundDuration":122860,"Delta":25308744},{"NoteNumber":59,"Velocity":30,"Duration":245720,"SoundDuration":245720,"Delta":25308744},{"NoteNumber":62,"Velocity":30,"Duration":245720,"SoundDuration":245720,"Delta":25554464},{"NoteNumber":79,"Velocity":46,"Duration":245720,"SoundDuration":245720,"Delta":25800185},{"NoteNumber":59,"Velocity":30,"Duration":245720,"SoundDuration":245720,"Delta":25800185},{"NoteNumber":79,"Velocity":53,"Duration":245720,"SoundDuration":245720,"Delta":26045905},{"NoteNumber":55,"Velocity":35,"Duration":245720,"SoundDuration":245720,"Delta":26045905},{"NoteNumber":74,"Velocity":49,"Duration":245720,"SoundDuration":245720,"Delta":26291626},{"NoteNumber":59,"Velocity":28,"Duration":245720,"SoundDuration":245720,"Delta":26291626},{"NoteNumber":74,"Velocity":58,"Duration":251910,"SoundDuration":251910,"Delta":26537346},{"NoteNumber":62,"Velocity":34,"Duration":251910,"SoundDuration":251910,"Delta":26537346},{"NoteNumber":83,"Velocity":62,"Duration":251910,"SoundDuration":251910,"Delta":26789257},{"NoteNumber":59,"Velocity":39,"Duration":251910,"SoundDuration":251910,"Delta":26789257},{"NoteNumber":83,"Velocity":69,"Duration":731172,"SoundDuration":731172,"Delta":27041167},{"NoteNumber":55,"Velocity":42,"Duration":243724,"SoundDuration":243724,"Delta":27041167},{"NoteNumber":59,"Velocity":38,"Duration":243724,"SoundDuration":243724,"Delta":27284891},{"NoteNumber":64,"Velocity":31,"Duration":243724,"SoundDuration":243724,"Delta":27528615},{"NoteNumber":79,"Velocity":49,"Duration":116649,"SoundDuration":116649,"Delta":27772339},{"NoteNumber":76,"Velocity":45,"Duration":116649,"SoundDuration":116649,"Delta":27888989},{"NoteNumber":74,"Velocity":50,"Duration":121862,"SoundDuration":121862,"Delta":28005639},{"NoteNumber":66,"Velocity":35,"Duration":121862,"SoundDuration":121862,"Delta":28005639},{"NoteNumber":57,"Velocity":35,"Duration":121862,"SoundDuration":121862,"Delta":28005639},{"NoteNumber":74,"Velocity":45,"Duration":121862,"SoundDuration":121862,"Delta":28249363},{"NoteNumber":66,"Velocity":31,"Duration":121862,"SoundDuration":121862,"Delta":28249363},{"NoteNumber":57,"Velocity":31,"Duration":121862,"SoundDuration":121862,"Delta":28249363},{"NoteNumber":74,"Velocity":50,"Duration":130859,"SoundDuration":130859,"Delta":28493087},{"NoteNumber":57,"Velocity":35,"Duration":118962,"SoundDuration":118962,"Delta":28493087},{"NoteNumber":64,"Velocity":35,"Duration":118962,"SoundDuration":118962,"Delta":28493087},{"NoteNumber":73,"Velocity":43,"Duration":130859,"SoundDuration":130859,"Delta":28612049},{"NoteNumber":71,"Velocity":43,"Duration":131505,"SoundDuration":131505,"Delta":28731012},{"NoteNumber":64,"Velocity":30,"Duration":118962,"SoundDuration":118962,"Delta":28731012},{"NoteNumber":57,"Velocity":30,"Duration":118962,"SoundDuration":118962,"Delta":28731012},{"NoteNumber":73,"Velocity":43,"Duration":137565,"SoundDuration":137565,"Delta":28849975},{"NoteNumber":74,"Velocity":53,"Duration":494121,"SoundDuration":494121,"Delta":28975403},{"NoteNumber":50,"Velocity":35,"Duration":121369,"SoundDuration":121369,"Delta":28975403},{"NoteNumber":62,"Velocity":30,"Duration":125955,"SoundDuration":125955,"Delta":29218141},{"NoteNumber":50,"Velocity":35,"Duration":121369,"SoundDuration":121369,"Delta":29469525},{"NoteNumber":81,"Velocity":50,"Duration":138550,"SoundDuration":138550,"Delta":29712263},{"NoteNumber":62,"Velocity":35,"Duration":125955,"SoundDuration":125955,"Delta":29712263},{"NoteNumber":79,"Velocity":46,"Duration":138141,"SoundDuration":138141,"Delta":29838218},{"NoteNumber":78,"Velocity":50,"Duration":132475,"SoundDuration":132475,"Delta":29964174},{"NoteNumber":50,"Velocity":35,"Duration":120436,"SoundDuration":120436,"Delta":29964174},{"NoteNumber":76,"Velocity":45,"Duration":133128,"SoundDuration":133128,"Delta":30084610},{"NoteNumber":74,"Velocity":45,"Duration":134509,"SoundDuration":134509,"Delta":30205564},{"NoteNumber":62,"Velocity":32,"Duration":122223,"SoundDuration":122223,"Delta":30205564},{"NoteNumber":73,"Velocity":45,"Duration":134873,"SoundDuration":134873,"Delta":30327787},{"NoteNumber":71,"Velocity":50,"Duration":133128,"SoundDuration":133128,"Delta":30450621},{"NoteNumber":50,"Velocity":35,"Duration":120954,"SoundDuration":120954,"Delta":30450621},{"NoteNumber":73,"Velocity":46,"Duration":134509,"SoundDuration":134509,"Delta":30571576},{"NoteNumber":74,"Velocity":46,"Duration":135725,"SoundDuration":135725,"Delta":30693799},{"NoteNumber":62,"Velocity":31,"Duration":122860,"SoundDuration":122860,"Delta":30693799},{"NoteNumber":71,"Velocity":46,"Duration":140963,"SoundDuration":140963,"Delta":30816659},{"NoteNumber":69,"Velocity":50,"Duration":253497,"SoundDuration":253497,"Delta":30944757},{"NoteNumber":50,"Velocity":35,"Duration":140468,"SoundDuration":140468,"Delta":30944757},{"NoteNumber":52,"Velocity":30,"Duration":138116,"SoundDuration":138116,"Delta":31072577},{"NoteNumber":54,"Velocity":31,"Duration":135842,"SoundDuration":135842,"Delta":31198254},{"NoteNumber":55,"Velocity":31,"Duration":133641,"SoundDuration":133641,"Delta":31321861},{"NoteNumber":57,"Velocity":32,"Duration":131511,"SoundDuration":131511,"Delta":31443463},{"NoteNumber":59,"Velocity":34,"Duration":131960,"SoundDuration":131960,"Delta":31563125},{"NoteNumber":81,"Velocity":50,"Duration":133608,"SoundDuration":133608,"Delta":31682948},{"NoteNumber":61,"Velocity":34,"Duration":133608,"SoundDuration":133608,"Delta":31682948},{"NoteNumber":79,"Velocity":46,"Duration":137745,"SoundDuration":137745,"Delta":31804321},{"NoteNumber":62,"Velocity":36,"Duration":125705,"SoundDuration":125705,"Delta":31804321},{"NoteNumber":78,"Velocity":50,"Duration":132182,"SoundDuration":132182,"Delta":31930027},{"NoteNumber":50,"Velocity":35,"Duration":120142,"SoundDuration":120142,"Delta":31930027},{"NoteNumber":76,"Velocity":45,"Duration":132993,"SoundDuration":132993,"Delta":32050169},{"NoteNumber":74,"Velocity":45,"Duration":133875,"SoundDuration":133875,"Delta":32171026},{"NoteNumber":62,"Velocity":32,"Duration":121652,"SoundDuration":121652,"Delta":32171026},{"NoteNumber":73,"Velocity":45,"Duration":134708,"SoundDuration":134708,"Delta":32292678},{"NoteNumber":71,"Velocity":50,"Duration":132824,"SoundDuration":132824,"Delta":32415213},{"NoteNumber":50,"Velocity":42,"Duration":120736,"SoundDuration":120736,"Delta":32415213},{"NoteNumber":73,"Velocity":48,"Duration":133667,"SoundDuration":133667,"Delta":32535949},{"NoteNumber":74,"Velocity":50,"Duration":135611,"SoundDuration":135611,"Delta":32657393},{"NoteNumber":62,"Velocity":37,"Duration":122634,"SoundDuration":122634,"Delta":32657393},{"NoteNumber":71,"Velocity":55,"Duration":141955,"SoundDuration":141955,"Delta":32780028},{"NoteNumber":69,"Velocity":60,"Duration":247558,"SoundDuration":247558,"Delta":32909797},{"NoteNumber":50,"Velocity":48,"Duration":124090,"SoundDuration":124090,"Delta":32909797},{"NoteNumber":54,"Velocity":41,"Duration":123468,"SoundDuration":123468,"Delta":33033887},{"NoteNumber":57,"Velocity":47,"Duration":121962,"SoundDuration":121962,"Delta":33157355},{"NoteNumber":62,"Velocity":41,"Duration":120687,"SoundDuration":120687,"Delta":33279318},{"NoteNumber":86,"Velocity":62,"Duration":119913,"SoundDuration":119913,"Delta":33400005},{"NoteNumber":81,"Velocity":53,"Duration":119913,"SoundDuration":119913,"Delta":33519919},{"NoteNumber":78,"Velocity":56,"Duration":119913,"SoundDuration":119913,"Delta":33639833},{"NoteNumber":74,"Velocity":54,"Duration":130901,"SoundDuration":130901,"Delta":33759746},{"NoteNumber":76,"Velocity":62,"Duration":124388,"SoundDuration":124388,"Delta":33890648},{"NoteNumber":55,"Velocity":40,"Duration":124388,"SoundDuration":124388,"Delta":33890648},{"NoteNumber":59,"Velocity":48,"Duration":124388,"SoundDuration":124388,"Delta":33890648},{"NoteNumber":76,"Velocity":58,"Duration":124388,"SoundDuration":124388,"Delta":34139425},{"NoteNumber":59,"Velocity":43,"Duration":124388,"SoundDuration":124388,"Delta":34139425},{"NoteNumber":55,"Velocity":36,"Duration":124388,"SoundDuration":124388,"Delta":34139425},{"NoteNumber":73,"Velocity":52,"Duration":124388,"SoundDuration":124388,"Delta":34388202},{"NoteNumber":81,"Velocity":62,"Duration":124388,"SoundDuration":124388,"Delta":34388202},{"NoteNumber":57,"Velocity":48,"Duration":124388,"SoundDuration":124388,"Delta":34388202},{"NoteNumber":81,"Velocity":57,"Duration":133226,"SoundDuration":133226,"Delta":34636979},{"NoteNumber":73,"Velocity":48,"Duration":133226,"SoundDuration":133226,"Delta":34636979},{"NoteNumber":57,"Velocity":43,"Duration":133226,"SoundDuration":133226,"Delta":34636979},{"NoteNumber":76,"Velocity":52,"Duration":499625,"SoundDuration":499625,"Delta":34903432},{"NoteNumber":79,"Velocity":62,"Duration":499625,"SoundDuration":499625,"Delta":34903432},{"NoteNumber":50,"Velocity":35,"Duration":124906,"SoundDuration":124906,"Delta":34903432},{"NoteNumber":62,"Velocity":32,"Duration":124906,"SoundDuration":124906,"Delta":35153245},{"NoteNumber":78,"Velocity":59,"Duration":256213,"SoundDuration":256213,"Delta":35403057},{"NoteNumber":74,"Velocity":50,"Duration":256213,"SoundDuration":256213,"Delta":35403057},{"NoteNumber":50,"Velocity":35,"Duration":128106,"SoundDuration":128106,"Delta":35403057},{"NoteNumber":81,"Velocity":50,"Duration":132967,"SoundDuration":132967,"Delta":35659270},{"NoteNumber":62,"Velocity":35,"Duration":120879,"SoundDuration":120879,"Delta":35659270},{"NoteNumber":79,"Velocity":46,"Duration":133475,"SoundDuration":133475,"Delta":35780150},{"NoteNumber":78,"Velocity":50,"Duration":138129,"SoundDuration":138129,"Delta":35901030},{"NoteNumber":50,"Velocity":35,"Duration":125639,"SoundDuration":125639,"Delta":35901030},{"NoteNumber":76,"Velocity":45,"Duration":137086,"SoundDuration":137086,"Delta":36026670},{"NoteNumber":74,"Velocity":45,"Duration":135957,"SoundDuration":135957,"Delta":36151369},{"NoteNumber":62,"Velocity":32,"Duration":123671,"SoundDuration":123671,"Delta":36151369},{"NoteNumber":73,"Velocity":45,"Duration":134796,"SoundDuration":134796,"Delta":36275040},{"NoteNumber":71,"Velocity":50,"Duration":133752,"SoundDuration":133752,"Delta":36397699},{"NoteNumber":50,"Velocity":35,"Duration":121566,"SoundDuration":121566,"Delta":36397699},{"NoteNumber":73,"Velocity":46,"Duration":134645,"SoundDuration":134645,"Delta":36519266},{"NoteNumber":74,"Velocity":46,"Duration":135550,"SoundDuration":135550,"Delta":36641626},{"NoteNumber":62,"Velocity":31,"Duration":123163,"SoundDuration":123163,"Delta":36641626},{"NoteNumber":71,"Velocity":46,"Duration":136570,"SoundDuration":136570,"Delta":36764789},{"NoteNumber":69,"Velocity":50,"Duration":135613,"SoundDuration":135613,"Delta":36888869},{"NoteNumber":50,"Velocity":35,"Duration":123377,"SoundDuration":123377,"Delta":36888869},{"NoteNumber":67,"Velocity":46,"Duration":134594,"SoundDuration":134594,"Delta":37012247},{"NoteNumber":66,"Velocity":46,"Duration":134594,"SoundDuration":134594,"Delta":37134606},{"NoteNumber":62,"Velocity":32,"Duration":122359,"SoundDuration":122359,"Delta":37134606},{"NoteNumber":67,"Velocity":46,"Duration":135335,"SoundDuration":135335,"Delta":37256965},{"NoteNumber":69,"Velocity":50,"Duration":129769,"SoundDuration":129769,"Delta":37379324},{"NoteNumber":50,"Velocity":35,"Duration":129769,"SoundDuration":129769,"Delta":37379324},{"NoteNumber":81,"Velocity":50,"Duration":137396,"SoundDuration":137396,"Delta":37638862},{"NoteNumber":62,"Velocity":31,"Duration":124906,"SoundDuration":124906,"Delta":37638862},{"NoteNumber":79,"Velocity":46,"Duration":137396,"SoundDuration":137396,"Delta":37763768},{"NoteNumber":78,"Velocity":50,"Duration":136623,"SoundDuration":136623,"Delta":37888675},{"NoteNumber":50,"Velocity":35,"Duration":124286,"SoundDuration":124286,"Delta":37888675},{"NoteNumber":76,"Velocity":45,"Duration":135198,"SoundDuration":135198,"Delta":38012961},{"NoteNumber":74,"Velocity":45,"Duration":133901,"SoundDuration":133901,"Delta":38135923},{"NoteNumber":62,"Velocity":32,"Duration":121764,"SoundDuration":121764,"Delta":38135923},{"NoteNumber":73,"Velocity":45,"Duration":134248,"SoundDuration":134248,"Delta":38257687},{"NoteNumber":71,"Velocity":50,"Duration":135652,"SoundDuration":135652,"Delta":38379650},{"NoteNumber":50,"Velocity":42,"Duration":123265,"SoundDuration":123265,"Delta":38379650},{"NoteNumber":73,"Velocity":48,"Duration":137640,"SoundDuration":137640,"Delta":38502915},{"NoteNumber":74,"Velocity":50,"Duration":144622,"SoundDuration":144622,"Delta":38627408},{"NoteNumber":62,"Velocity":37,"Duration":131475,"SoundDuration":131475,"Delta":38627408},{"NoteNumber":71,"Velocity":55,"Duration":143965,"SoundDuration":143965,"Delta":38758883},{"NoteNumber":69,"Velocity":60,"Duration":249812,"SoundDuration":249812,"Delta":38890358},{"NoteNumber":50,"Velocity":48,"Duration":124906,"SoundDuration":124906,"Delta":38890358},{"NoteNumber":54,"Velocity":41,"Duration":124906,"SoundDuration":124906,"Delta":39015264},{"NoteNumber":57,"Velocity":47,"Duration":124906,"SoundDuration":124906,"Delta":39140171},{"NoteNumber":62,"Velocity":41,"Duration":125329,"SoundDuration":125329,"Delta":39265077},{"NoteNumber":74,"Velocity":62,"Duration":126594,"SoundDuration":126594,"Delta":39390406},{"NoteNumber":78,"Velocity":53,"Duration":125324,"SoundDuration":125324,"Delta":39517001},{"NoteNumber":81,"Velocity":56,"Duration":124286,"SoundDuration":124286,"Delta":39642326},{"NoteNumber":86,"Velocity":54,"Duration":123471,"SoundDuration":123471,"Delta":39766612},{"NoteNumber":85,"Velocity":67,"Duration":135305,"SoundDuration":135305,"Delta":39890084},{"NoteNumber":55,"Velocity":49,"Duration":246360,"SoundDuration":246360,"Delta":39890084},{"NoteNumber":83,"Velocity":55,"Duration":135728,"SoundDuration":135728,"Delta":40013103},{"NoteNumber":81,"Velocity":58,"Duration":136854,"SoundDuration":136854,"Delta":40136444},{"NoteNumber":52,"Velocity":40,"Duration":249872,"SoundDuration":249872,"Delta":40136444},{"NoteNumber":79,"Velocity":55,"Duration":137871,"SoundDuration":137871,"Delta":40260808},{"NoteNumber":78,"Velocity":66,"Duration":135362,"SoundDuration":135362,"Delta":40386316},{"NoteNumber":57,"Velocity":47,"Duration":246582,"SoundDuration":246582,"Delta":40386316},{"NoteNumber":76,"Velocity":53,"Duration":135943,"SoundDuration":135943,"Delta":40509342},{"NoteNumber":74,"Velocity":58,"Duration":136750,"SoundDuration":136750,"Delta":40632899},{"NoteNumber":45,"Velocity":42,"Duration":249362,"SoundDuration":249362,"Delta":40632899},{"NoteNumber":73,"Velocity":56,"Duration":125089,"SoundDuration":125089,"Delta":40757172},{"NoteNumber":74,"Velocity":67,"Duration":124906,"SoundDuration":124906,"Delta":40882261},{"NoteNumber":50,"Velocity":49,"Duration":249812,"SoundDuration":249812,"Delta":40882261},{"NoteNumber":78,"Velocity":58,"Duration":124906,"SoundDuration":124906,"Delta":41007167},{"NoteNumber":81,"Velocity":64,"Duration":122860,"SoundDuration":122860,"Delta":41132074},{"NoteNumber":78,"Velocity":58,"Duration":122860,"SoundDuration":122860,"Delta":41254934},{"NoteNumber":81,"Velocity":67,"Duration":122860,"SoundDuration":122860,"Delta":41377794},{"NoteNumber":78,"Velocity":59,"Duration":122860,"SoundDuration":122860,"Delta":41500654},{"NoteNumber":79,"Velocity":64,"Duration":133820,"SoundDuration":133820,"Delta":41623515},{"NoteNumber":45,"Velocity":49,"Duration":133820,"SoundDuration":133820,"Delta":41623515},{"NoteNumber":76,"Velocity":58,"Duration":133821,"SoundDuration":133821,"Delta":41757336},{"NoteNumber":74,"Velocity":67,"Duration":124388,"SoundDuration":124388,"Delta":41891157},{"NoteNumber":50,"Velocity":57,"Duration":124388,"SoundDuration":124388,"Delta":41891157},{"NoteNumber":78,"Velocity":59,"Duration":124388,"SoundDuration":124388,"Delta":42015545},{"NoteNumber":81,"Velocity":63,"Duration":121862,"SoundDuration":121862,"Delta":42139934},{"NoteNumber":78,"Velocity":58,"Duration":121862,"SoundDuration":121862,"Delta":42261796},{"NoteNumber":81,"Velocity":67,"Duration":121862,"SoundDuration":121862,"Delta":42383658},{"NoteNumber":78,"Velocity":59,"Duration":121862,"SoundDuration":121862,"Delta":42505520},{"NoteNumber":79,"Velocity":65,"Duration":133226,"SoundDuration":133226,"Delta":42627382},{"NoteNumber":45,"Velocity":49,"Duration":133226,"SoundDuration":133226,"Delta":42627382},{"NoteNumber":76,"Velocity":59,"Duration":133226,"SoundDuration":133226,"Delta":42760608},{"NoteNumber":74,"Velocity":70,"Duration":508087,"SoundDuration":508087,"Delta":42893835},{"NoteNumber":50,"Velocity":56,"Duration":127021,"SoundDuration":127021,"Delta":42893835},{"NoteNumber":38,"Velocity":49,"Duration":127021,"SoundDuration":127021,"Delta":43147879},{"NoteNumber":38,"Velocity":54,"Duration":141389,"SoundDuration":141389,"Delta":43401922},{"NoteNumber":74,"Velocity":46,"Duration":248983,"SoundDuration":248983,"Delta":43684701},{"NoteNumber":74,"Velocity":50,"Duration":248983,"SoundDuration":248983,"Delta":43933685},{"NoteNumber":71,"Velocity":45,"Duration":248983,"SoundDuration":248983,"Delta":44182668},{"NoteNumber":71,"Velocity":49,"Duration":254043,"SoundDuration":254043,"Delta":44431652},{"NoteNumber":77,"Velocity":62,"Duration":254043,"SoundDuration":254043,"Delta":44685695},{"NoteNumber":56,"Velocity":32,"Duration":254043,"SoundDuration":254043,"Delta":44685695},{"NoteNumber":77,"Velocity":69,"Duration":743248,"SoundDuration":743248,"Delta":44939739},{"NoteNumber":56,"Velocity":41,"Duration":247749,"SoundDuration":247749,"Delta":44939739},{"NoteNumber":62,"Velocity":33,"Duration":247749,"SoundDuration":247749,"Delta":45187488},{"NoteNumber":59,"Velocity":33,"Duration":247749,"SoundDuration":247749,"Delta":45187488},{"NoteNumber":59,"Velocity":31,"Duration":247749,"SoundDuration":247749,"Delta":45435238},{"NoteNumber":62,"Velocity":31,"Duration":247749,"SoundDuration":247749,"Delta":45435238},{"NoteNumber":76,"Velocity":49,"Duration":119436,"SoundDuration":119436,"Delta":45682987},{"NoteNumber":56,"Velocity":31,"Duration":238872,"SoundDuration":238872,"Delta":45682987},{"NoteNumber":74,"Velocity":45,"Duration":119436,"SoundDuration":119436,"Delta":45802423},{"NoteNumber":72,"Velocity":50,"Duration":123365,"SoundDuration":123365,"Delta":45921860},{"NoteNumber":57,"Velocity":35,"Duration":123365,"SoundDuration":123365,"Delta":45921860},{"NoteNumber":72,"Velocity":45,"Duration":123365,"SoundDuration":123365,"Delta":46168591},{"NoteNumber":72,"Velocity":50,"Duration":132434,"SoundDuration":132434,"Delta":46415322},{"NoteNumber":52,"Velocity":35,"Duration":120395,"SoundDuration":120395,"Delta":46415322},{"NoteNumber":71,"Velocity":43,"Duration":132434,"SoundDuration":132434,"Delta":46535717},{"NoteNumber":69,"Velocity":43,"Duration":133151,"SoundDuration":133151,"Delta":46656112},{"NoteNumber":71,"Velocity":43,"Duration":139847,"SoundDuration":139847,"Delta":46776507},{"NoteNumber":72,"Velocity":53,"Duration":245720,"SoundDuration":245720,"Delta":46904068},{"NoteNumber":45,"Velocity":35,"Duration":245720,"SoundDuration":245720,"Delta":46904068},{"NoteNumber":81,"Velocity":46,"Duration":122860,"SoundDuration":122860,"Delta":47149789},{"NoteNumber":76,"Velocity":50,"Duration":133391,"SoundDuration":133391,"Delta":47396018},{"NoteNumber":77,"Velocity":43,"Duration":129724,"SoundDuration":129724,"Delta":47517466},{"NoteNumber":76,"Velocity":43,"Duration":129861,"SoundDuration":129861,"Delta":47635479},{"NoteNumber":56,"Velocity":35,"Duration":117105,"SoundDuration":117105,"Delta":47635479},{"NoteNumber":74,"Velocity":43,"Duration":139847,"SoundDuration":139847,"Delta":47752585},{"NoteNumber":72,"Velocity":53,"Duration":245720,"SoundDuration":245720,"Delta":47880146},{"NoteNumber":57,"Velocity":35,"Duration":245720,"SoundDuration":245720,"Delta":47880146},{"NoteNumber":81,"Velocity":46,"Duration":122860,"SoundDuration":122860,"Delta":48125867},{"NoteNumber":76,"Velocity":50,"Duration":133832,"SoundDuration":133832,"Delta":48371689},{"NoteNumber":77,"Velocity":43,"Duration":130703,"SoundDuration":130703,"Delta":48493530},{"NoteNumber":76,"Velocity":43,"Duration":129581,"SoundDuration":129581,"Delta":48612477},{"NoteNumber":56,"Velocity":35,"Duration":116824,"SoundDuration":116824,"Delta":48612477},{"NoteNumber":74,"Velocity":43,"Duration":140317,"SoundDuration":140317,"Delta":48729302},{"NoteNumber":72,"Velocity":50,"Duration":140000,"SoundDuration":140000,"Delta":48856864},{"NoteNumber":57,"Velocity":42,"Duration":251950,"SoundDuration":251950,"Delta":48856864},{"NoteNumber":74,"Velocity":45,"Duration":136827,"SoundDuration":136827,"Delta":48984425},{"NoteNumber":72,"Velocity":45,"Duration":136827,"SoundDuration":136827,"Delta":49108814},{"NoteNumber":45,"Velocity":35,"Duration":248776,"SoundDuration":248776,"Delta":49108814},{"NoteNumber":71,"Velocity":45,"Duration":136827,"SoundDuration":136827,"Delta":49233202},{"NoteNumber":69,"Velocity":51,"Duration":136827,"SoundDuration":136827,"Delta":49357591},{"NoteNumber":57,"Velocity":39,"Duration":249570,"SoundDuration":249570,"Delta":49357591},{"NoteNumber":71,"Velocity":55,"Duration":137817,"SoundDuration":137817,"Delta":49481979},{"NoteNumber":72,"Velocity":58,"Duration":140777,"SoundDuration":140777,"Delta":49607162},{"NoteNumber":55,"Velocity":48,"Duration":257834,"SoundDuration":257834,"Delta":49607162},{"NoteNumber":74,"Velocity":62,"Duration":142830,"SoundDuration":142830,"Delta":49734976},{"NoteNumber":76,"Velocity":70,"Duration":753709,"SoundDuration":753709,"Delta":49864996},{"NoteNumber":54,"Velocity":52,"Duration":251995,"SoundDuration":251995,"Delta":49864996},{"NoteNumber":57,"Velocity":35,"Duration":250856,"SoundDuration":250856,"Delta":50116992},{"NoteNumber":60,"Velocity":42,"Duration":250856,"SoundDuration":250856,"Delta":50116992},{"NoteNumber":57,"Velocity":35,"Duration":250857,"SoundDuration":250857,"Delta":50367849},{"NoteNumber":60,"Velocity":42,"Duration":250857,"SoundDuration":250857,"Delta":50367849},{"NoteNumber":74,"Velocity":50,"Duration":137971,"SoundDuration":137971,"Delta":50618706},{"NoteNumber":54,"Velocity":38,"Duration":250856,"SoundDuration":250856,"Delta":50618706},{"NoteNumber":72,"Velocity":43,"Duration":137971,"SoundDuration":137971,"Delta":50744134},{"NoteNumber":71,"Velocity":50,"Duration":125428,"SoundDuration":125428,"Delta":50869563},{"NoteNumber":55,"Velocity":35,"Duration":125428,"SoundDuration":125428,"Delta":50869563},{"NoteNumber":74,"Velocity":45,"Duration":137714,"SoundDuration":137714,"Delta":50994991},{"NoteNumber":72,"Velocity":43,"Duration":135146,"SoundDuration":135146,"Delta":51120420},{"NoteNumber":71,"Velocity":43,"Duration":135146,"SoundDuration":135146,"Delta":51243280},{"NoteNumber":69,"Velocity":50,"Duration":135146,"SoundDuration":135146,"Delta":51366140},{"NoteNumber":50,"Velocity":29,"Duration":122860,"SoundDuration":122860,"Delta":51366140},{"NoteNumber":72,"Velocity":45,"Duration":135146,"SoundDuration":135146,"Delta":51489000},{"NoteNumber":71,"Velocity":43,"Duration":135950,"SoundDuration":135950,"Delta":51611861},{"NoteNumber":69,"Velocity":43,"Duration":143187,"SoundDuration":143187,"Delta":51734721},{"NoteNumber":67,"Velocity":50,"Duration":135146,"SoundDuration":135146,"Delta":51865622},{"NoteNumber":52,"Velocity":38,"Duration":1000653,"SoundDuration":1000653,"Delta":51865622},{"NoteNumber":40,"Velocity":38,"Duration":1000653,"SoundDuration":1000653,"Delta":51865622},{"NoteNumber":69,"Velocity":45,"Duration":135146,"SoundDuration":135146,"Delta":51988483},{"NoteNumber":67,"Velocity":45,"Duration":135146,"SoundDuration":135146,"Delta":52111343},{"NoteNumber":66,"Velocity":45,"Duration":135285,"SoundDuration":135285,"Delta":52234203},{"NoteNumber":67,"Velocity":50,"Duration":136675,"SoundDuration":136675,"Delta":52357152},{"NoteNumber":69,"Velocity":46,"Duration":138818,"SoundDuration":138818,"Delta":52481298},{"NoteNumber":71,"Velocity":50,"Duration":141049,"SoundDuration":141049,"Delta":52607414},{"NoteNumber":73,"Velocity":57,"Duration":143187,"SoundDuration":143187,"Delta":52735374},{"NoteNumber":74,"Velocity":67,"Duration":245720,"SoundDuration":245720,"Delta":52866276},{"NoteNumber":50,"Velocity":49,"Duration":122860,"SoundDuration":122860,"Delta":52866276},{"NoteNumber":38,"Velocity":38,"Duration":122860,"SoundDuration":122860,"Delta":53111996},{"NoteNumber":66,"Velocity":54,"Duration":135146,"SoundDuration":135146,"Delta":53357717},{"NoteNumber":67,"Velocity":50,"Duration":135146,"SoundDuration":135146,"Delta":53480577},{"NoteNumber":66,"Velocity":53,"Duration":136065,"SoundDuration":136065,"Delta":53603437},{"NoteNumber":64,"Velocity":50,"Duration":144340,"SoundDuration":144340,"Delta":53726297},{"NoteNumber":62,"Velocity":58,"Duration":122860,"SoundDuration":122860,"Delta":53858351},{"NoteNumber":50,"Velocity":49,"Duration":122860,"SoundDuration":122860,"Delta":53858351},{"NoteNumber":38,"Velocity":38,"Duration":122860,"SoundDuration":122860,"Delta":54104072},{"NoteNumber":67,"Velocity":50,"Duration":135146,"SoundDuration":135146,"Delta":54349792},{"NoteNumber":69,"Velocity":46,"Duration":135146,"SoundDuration":135146,"Delta":54472653},{"NoteNumber":67,"Velocity":50,"Duration":136065,"SoundDuration":136065,"Delta":54595513},{"NoteNumber":66,"Velocity":47,"Duration":144492,"SoundDuration":144492,"Delta":54718373},{"NoteNumber":64,"Velocity":50,"Duration":124388,"SoundDuration":124388,"Delta":54850427},{"NoteNumber":50,"Velocity":39,"Duration":124388,"SoundDuration":124388,"Delta":54850427},{"NoteNumber":38,"Velocity":34,"Duration":124388,"SoundDuration":124388,"Delta":55099204},{"NoteNumber":69,"Velocity":45,"Duration":139723,"SoundDuration":139723,"Delta":55347981},{"NoteNumber":71,"Velocity":41,"Duration":139723,"SoundDuration":139723,"Delta":55475003},{"NoteNumber":69,"Velocity":45,"Duration":140285,"SoundDuration":140285,"Delta":55602025},{"NoteNumber":67,"Velocity":39,"Duration":145424,"SoundDuration":145424,"Delta":55729046},{"NoteNumber":66,"Velocity":45,"Duration":144812,"SoundDuration":144812,"Delta":55861380},{"NoteNumber":50,"Velocity":34,"Duration":264629,"SoundDuration":264629,"Delta":55861380},{"NoteNumber":67,"Velocity":38,"Duration":146447,"SoundDuration":146447,"Delta":55992943},{"NoteNumber":66,"Velocity":38,"Duration":148061,"SoundDuration":148061,"Delta":56126009},{"NoteNumber":38,"Velocity":28,"Duration":270596,"SoundDuration":270596,"Delta":56126009},{"NoteNumber":64,"Velocity":38,"Duration":149678,"SoundDuration":149678,"Delta":56260522},{"NoteNumber":66,"Velocity":42,"Duration":151819,"SoundDuration":151819,"Delta":56396606},{"NoteNumber":50,"Velocity":37,"Duration":279141,"SoundDuration":279141,"Delta":56396606},{"NoteNumber":67,"Velocity":43,"Duration":155637,"SoundDuration":155637,"Delta":56534435},{"NoteNumber":69,"Velocity":41,"Duration":164154,"SoundDuration":164154,"Delta":56675748},{"NoteNumber":38,"Velocity":31,"Duration":337921,"SoundDuration":337921,"Delta":56675748},{"NoteNumber":71,"Velocity":40,"Duration":209000,"SoundDuration":209000,"Delta":56820594},{"NoteNumber":72,"Velocity":42,"Duration":318505,"SoundDuration":318505,"Delta":57013669},{"NoteNumber":50,"Velocity":30,"Duration":318505,"SoundDuration":318505,"Delta":57013669},{"NoteNumber":74,"Velocity":46,"Duration":248983,"SoundDuration":248983,"Delta":57865880},{"NoteNumber":74,"Velocity":50,"Duration":248983,"SoundDuration":248983,"Delta":58114863},{"NoteNumber":55,"Velocity":35,"Duration":248983,"SoundDuration":248983,"Delta":58114863},{"NoteNumber":71,"Velocity":45,"Duration":248983,"SoundDuration":248983,"Delta":58363847},{"NoteNumber":59,"Velocity":28,"Duration":248983,"SoundDuration":248983,"Delta":58363847},{"NoteNumber":71,"Velocity":49,"Duration":254043,"SoundDuration":254043,"Delta":58612830},{"NoteNumber":62,"Velocity":28,"Duration":254043,"SoundDuration":254043,"Delta":58612830},{"NoteNumber":79,"Velocity":62,"Duration":254043,"SoundDuration":254043,"Delta":58866874},{"NoteNumber":59,"Velocity":32,"Duration":254043,"SoundDuration":254043,"Delta":58866874},{"NoteNumber":79,"Velocity":69,"Duration":743248,"SoundDuration":743248,"Delta":59120917},{"NoteNumber":55,"Velocity":41,"Duration":247749,"SoundDuration":247749,"Delta":59120917},{"NoteNumber":59,"Velocity":33,"Duration":247749,"SoundDuration":247749,"Delta":59368667},{"NoteNumber":62,"Velocity":31,"Duration":247749,"SoundDuration":247749,"Delta":59616416},{"NoteNumber":78,"Velocity":49,"Duration":119436,"SoundDuration":119436,"Delta":59864166},{"NoteNumber":59,"Velocity":31,"Duration":238872,"SoundDuration":238872,"Delta":59864166},{"NoteNumber":76,"Velocity":45,"Duration":119436,"SoundDuration":119436,"Delta":59983602},{"NoteNumber":74,"Velocity":50,"Duration":123365,"SoundDuration":123365,"Delta":60103038},{"NoteNumber":54,"Velocity":35,"Duration":246730,"SoundDuration":246730,"Delta":60103038},{"NoteNumber":74,"Velocity":45,"Duration":123365,"SoundDuration":123365,"Delta":60349769},{"NoteNumber":57,"Velocity":31,"Duration":246731,"SoundDuration":246731,"Delta":60349769},{"NoteNumber":74,"Velocity":50,"Duration":132434,"SoundDuration":132434,"Delta":60596500},{"NoteNumber":62,"Velocity":35,"Duration":240789,"SoundDuration":240789,"Delta":60596500},{"NoteNumber":76,"Velocity":43,"Duration":132434,"SoundDuration":132434,"Delta":60716895},{"NoteNumber":74,"Velocity":43,"Duration":133151,"SoundDuration":133151,"Delta":60837290},{"NoteNumber":57,"Velocity":30,"Duration":247956,"SoundDuration":247956,"Delta":60837290},{"NoteNumber":72,"Velocity":43,"Duration":139847,"SoundDuration":139847,"Delta":60957685},{"NoteNumber":71,"Velocity":53,"Duration":245720,"SoundDuration":245720,"Delta":61085247},{"NoteNumber":55,"Velocity":35,"Duration":245720,"SoundDuration":245720,"Delta":61085247},{"NoteNumber":74,"Velocity":46,"Duration":122860,"SoundDuration":122860,"Delta":61330968},{"NoteNumber":50,"Velocity":30,"Duration":245720,"SoundDuration":245720,"Delta":61330968},{"NoteNumber":47,"Velocity":30,"Duration":245720,"SoundDuration":245720,"Delta":61576688},{"NoteNumber":71,"Velocity":46,"Duration":245720,"SoundDuration":245720,"Delta":61822409},{"NoteNumber":43,"Velocity":30,"Duration":245720,"SoundDuration":245720,"Delta":61822409},{"NoteNumber":71,"Velocity":53,"Duration":245720,"SoundDuration":245720,"Delta":62068129},{"NoteNumber":48,"Velocity":35,"Duration":245720,"SoundDuration":245720,"Delta":62068129},{"NoteNumber":69,"Velocity":49,"Duration":245720,"SoundDuration":245720,"Delta":62313850},{"NoteNumber":52,"Velocity":28,"Duration":245720,"SoundDuration":245720,"Delta":62313850},{"NoteNumber":69,"Velocity":58,"Duration":251910,"SoundDuration":251910,"Delta":62559570},{"NoteNumber":57,"Velocity":34,"Duration":251910,"SoundDuration":251910,"Delta":62559570},{"NoteNumber":76,"Velocity":62,"Duration":251910,"SoundDuration":251910,"Delta":62811481},{"NoteNumber":52,"Velocity":39,"Duration":251910,"SoundDuration":251910,"Delta":62811481},{"NoteNumber":76,"Velocity":69,"Duration":731171,"SoundDuration":731171,"Delta":63063391},{"NoteNumber":48,"Velocity":42,"Duration":243723,"SoundDuration":243723,"Delta":63063391},{"NoteNumber":52,"Velocity":38,"Duration":243724,"SoundDuration":243724,"Delta":63307115},{"NoteNumber":57,"Velocity":31,"Duration":243724,"SoundDuration":243724,"Delta":63550839},{"NoteNumber":72,"Velocity":49,"Duration":116649,"SoundDuration":116649,"Delta":63794563},{"NoteNumber":69,"Velocity":45,"Duration":116649,"SoundDuration":116649,"Delta":63911213},{"NoteNumber":67,"Velocity":50,"Duration":121861,"SoundDuration":121861,"Delta":64027863},{"NoteNumber":59,"Velocity":35,"Duration":121861,"SoundDuration":121861,"Delta":64027863},{"NoteNumber":50,"Velocity":35,"Duration":121861,"SoundDuration":121861,"Delta":64027863},{"NoteNumber":67,"Velocity":45,"Duration":121861,"SoundDuration":121861,"Delta":64271587},{"NoteNumber":59,"Velocity":31,"Duration":121861,"SoundDuration":121861,"Delta":64271587},{"NoteNumber":50,"Velocity":31,"Duration":121861,"SoundDuration":121861,"Delta":64271587},{"NoteNumber":67,"Velocity":50,"Duration":130859,"SoundDuration":130859,"Delta":64515311},{"NoteNumber":50,"Velocity":35,"Duration":118962,"SoundDuration":118962,"Delta":64515311},{"NoteNumber":57,"Velocity":35,"Duration":118962,"SoundDuration":118962,"Delta":64515311},{"NoteNumber":66,"Velocity":43,"Duration":130859,"SoundDuration":130859,"Delta":64634273},{"NoteNumber":64,"Velocity":43,"Duration":131505,"SoundDuration":131505,"Delta":64753236},{"NoteNumber":57,"Velocity":30,"Duration":118962,"SoundDuration":118962,"Delta":64753236},{"NoteNumber":50,"Velocity":30,"Duration":118962,"SoundDuration":118962,"Delta":64753236},{"NoteNumber":66,"Velocity":43,"Duration":137565,"SoundDuration":137565,"Delta":64872199},{"NoteNumber":67,"Velocity":53,"Duration":494648,"SoundDuration":494648,"Delta":64997627},{"NoteNumber":43,"Velocity":35,"Duration":121369,"SoundDuration":121369,"Delta":64997627},{"NoteNumber":55,"Velocity":30,"Duration":125955,"SoundDuration":125955,"Delta":65240365},{"NoteNumber":43,"Velocity":35,"Duration":121861,"SoundDuration":121861,"Delta":65492276},{"NoteNumber":74,"Velocity":50,"Duration":137971,"SoundDuration":137971,"Delta":65736000},{"NoteNumber":55,"Velocity":35,"Duration":125428,"SoundDuration":125428,"Delta":65736000},{"NoteNumber":72,"Velocity":46,"Duration":137614,"SoundDuration":137614,"Delta":65861428},{"NoteNumber":71,"Velocity":50,"Duration":132251,"SoundDuration":132251,"Delta":65986857},{"NoteNumber":43,"Velocity":35,"Duration":120260,"SoundDuration":120260,"Delta":65986857},{"NoteNumber":69,"Velocity":45,"Duration":132459,"SoundDuration":132459,"Delta":66107117},{"NoteNumber":67,"Velocity":45,"Duration":133815,"SoundDuration":133815,"Delta":66227489},{"NoteNumber":55,"Velocity":32,"Duration":121579,"SoundDuration":121579,"Delta":66227489},{"NoteNumber":66,"Velocity":45,"Duration":134240,"SoundDuration":134240,"Delta":66349069},{"NoteNumber":64,"Velocity":50,"Duration":133433,"SoundDuration":133433,"Delta":66471221},{"NoteNumber":43,"Velocity":35,"Duration":121247,"SoundDuration":121247,"Delta":66471221},{"NoteNumber":66,"Velocity":46,"Duration":134333,"SoundDuration":134333,"Delta":66592468},{"NoteNumber":67,"Velocity":46,"Duration":135224,"SoundDuration":135224,"Delta":66714566},{"NoteNumber":55,"Velocity":31,"Duration":122359,"SoundDuration":122359,"Delta":66714566},{"NoteNumber":64,"Velocity":46,"Duration":140529,"SoundDuration":140529,"Delta":66836925},{"NoteNumber":62,"Velocity":50,"Duration":262131,"SoundDuration":262131,"Delta":66964625},{"NoteNumber":43,"Velocity":35,"Duration":148173,"SoundDuration":148173,"Delta":66964625},{"NoteNumber":45,"Velocity":30,"Duration":139495,"SoundDuration":139495,"Delta":67099662},{"NoteNumber":47,"Velocity":31,"Duration":134741,"SoundDuration":134741,"Delta":67226757},{"NoteNumber":48,"Velocity":31,"Duration":131615,"SoundDuration":131615,"Delta":67349399},{"NoteNumber":50,"Velocity":32,"Duration":128662,"SoundDuration":128662,"Delta":67469199},{"NoteNumber":52,"Velocity":34,"Duration":131411,"SoundDuration":131411,"Delta":67586287},{"NoteNumber":74,"Velocity":50,"Duration":133608,"SoundDuration":133608,"Delta":67705562},{"NoteNumber":54,"Velocity":34,"Duration":133608,"SoundDuration":133608,"Delta":67705562},{"NoteNumber":72,"Velocity":46,"Duration":137891,"SoundDuration":137891,"Delta":67826935},{"NoteNumber":55,"Velocity":36,"Duration":125705,"SoundDuration":125705,"Delta":67826935},{"NoteNumber":71,"Velocity":50,"Duration":132251,"SoundDuration":132251,"Delta":67952640},{"NoteNumber":43,"Velocity":35,"Duration":120260,"SoundDuration":120260,"Delta":67952640},{"NoteNumber":69,"Velocity":45,"Duration":132459,"SoundDuration":132459,"Delta":68072900},{"NoteNumber":67,"Velocity":45,"Duration":133629,"SoundDuration":133629,"Delta":68193272},{"NoteNumber":55,"Velocity":32,"Duration":121443,"SoundDuration":121443,"Delta":68193272},{"NoteNumber":66,"Velocity":45,"Duration":134909,"SoundDuration":134909,"Delta":68314716},{"NoteNumber":64,"Velocity":50,"Duration":133462,"SoundDuration":133462,"Delta":68437289},{"NoteNumber":43,"Velocity":42,"Duration":121325,"SoundDuration":121325,"Delta":68437289},{"NoteNumber":66,"Velocity":48,"Duration":134172,"SoundDuration":134172,"Delta":68558614},{"NoteNumber":67,"Velocity":50,"Duration":136014,"SoundDuration":136014,"Delta":68680551},{"NoteNumber":55,"Velocity":37,"Duration":123037,"SoundDuration":123037,"Delta":68680551},{"NoteNumber":64,"Velocity":55,"Duration":141955,"SoundDuration":141955,"Delta":68803588},{"NoteNumber":62,"Velocity":60,"Duration":124090,"SoundDuration":124090,"Delta":68933357},{"NoteNumber":43,"Velocity":48,"Duration":124090,"SoundDuration":124090,"Delta":68933357},{"NoteNumber":79,"Velocity":62,"Duration":121962,"SoundDuration":121962,"Delta":69180916},{"NoteNumber":47,"Velocity":42,"Duration":242649,"SoundDuration":242649,"Delta":69180916},{"NoteNumber":78,"Velocity":58,"Duration":120687,"SoundDuration":120687,"Delta":69302878},{"NoteNumber":76,"Velocity":56,"Duration":119913,"SoundDuration":119913,"Delta":69423566},{"NoteNumber":50,"Velocity":48,"Duration":239827,"SoundDuration":239827,"Delta":69423566},{"NoteNumber":74,"Velocity":56,"Duration":119913,"SoundDuration":119913,"Delta":69543479},{"NoteNumber":72,"Velocity":56,"Duration":119913,"SoundDuration":119913,"Delta":69663393},{"NoteNumber":55,"Velocity":43,"Duration":239827,"SoundDuration":239827,"Delta":69663393},{"NoteNumber":71,"Velocity":56,"Duration":119913,"SoundDuration":119913,"Delta":69783307},{"NoteNumber":69,"Velocity":62,"Duration":125955,"SoundDuration":125955,"Delta":69903221},{"NoteNumber":48,"Velocity":48,"Duration":125955,"SoundDuration":125955,"Delta":69903221},{"NoteNumber":69,"Velocity":58,"Duration":125955,"SoundDuration":125955,"Delta":70155131},{"NoteNumber":48,"Velocity":43,"Duration":125955,"SoundDuration":125955,"Delta":70155131},{"NoteNumber":66,"Velocity":52,"Duration":125955,"SoundDuration":125955,"Delta":70407042},{"NoteNumber":74,"Velocity":62,"Duration":125955,"SoundDuration":125955,"Delta":70407042},{"NoteNumber":50,"Velocity":48,"Duration":125955,"SoundDuration":125955,"Delta":70407042},{"NoteNumber":74,"Velocity":57,"Duration":133226,"SoundDuration":133226,"Delta":70658952},{"NoteNumber":66,"Velocity":48,"Duration":133226,"SoundDuration":133226,"Delta":70658952},{"NoteNumber":50,"Velocity":43,"Duration":133226,"SoundDuration":133226,"Delta":70658952},{"NoteNumber":69,"Velocity":52,"Duration":499624,"SoundDuration":499624,"Delta":70925406},{"NoteNumber":72,"Velocity":62,"Duration":499624,"SoundDuration":499624,"Delta":70925406},{"NoteNumber":43,"Velocity":35,"Duration":124906,"SoundDuration":124906,"Delta":70925406},{"NoteNumber":55,"Velocity":32,"Duration":124906,"SoundDuration":124906,"Delta":71175218},{"NoteNumber":71,"Velocity":59,"Duration":256213,"SoundDuration":256213,"Delta":71425031},{"NoteNumber":67,"Velocity":50,"Duration":256213,"SoundDuration":256213,"Delta":71425031},{"NoteNumber":43,"Velocity":35,"Duration":128106,"SoundDuration":128106,"Delta":71425031},{"NoteNumber":83,"Velocity":50,"Duration":132968,"SoundDuration":132968,"Delta":71681244},{"NoteNumber":55,"Velocity":35,"Duration":120879,"SoundDuration":120879,"Delta":71681244},{"NoteNumber":81,"Velocity":46,"Duration":133672,"SoundDuration":133672,"Delta":71802124},{"NoteNumber":79,"Velocity":50,"Duration":136802,"SoundDuration":136802,"Delta":71923306},{"NoteNumber":43,"Velocity":35,"Duration":124415,"SoundDuration":124415,"Delta":71923306},{"NoteNumber":78,"Velocity":45,"Duration":135186,"SoundDuration":135186,"Delta":72047721},{"NoteNumber":76,"Velocity":45,"Duration":133643,"SoundDuration":133643,"Delta":72170671},{"NoteNumber":55,"Velocity":32,"Duration":121555,"SoundDuration":121555,"Delta":72170671},{"NoteNumber":75,"Velocity":45,"Duration":132134,"SoundDuration":132134,"Delta":72292227},{"NoteNumber":76,"Velocity":50,"Duration":132367,"SoundDuration":132367,"Delta":72412418},{"NoteNumber":43,"Velocity":35,"Duration":120181,"SoundDuration":120181,"Delta":72412418},{"NoteNumber":78,"Velocity":46,"Duration":134645,"SoundDuration":134645,"Delta":72532600},{"NoteNumber":79,"Velocity":46,"Duration":135550,"SoundDuration":135550,"Delta":72654960},{"NoteNumber":55,"Velocity":31,"Duration":123163,"SoundDuration":123163,"Delta":72654960},{"NoteNumber":76,"Velocity":46,"Duration":136570,"SoundDuration":136570,"Delta":72778123},{"NoteNumber":74,"Velocity":50,"Duration":135613,"SoundDuration":135613,"Delta":72902203},{"NoteNumber":43,"Velocity":35,"Duration":123377,"SoundDuration":123377,"Delta":72902203},{"NoteNumber":72,"Velocity":46,"Duration":134594,"SoundDuration":134594,"Delta":73025581},{"NoteNumber":71,"Velocity":46,"Duration":134594,"SoundDuration":134594,"Delta":73147940},{"NoteNumber":55,"Velocity":32,"Duration":122358,"SoundDuration":122358,"Delta":73147940},{"NoteNumber":72,"Velocity":46,"Duration":135335,"SoundDuration":135335,"Delta":73270299},{"NoteNumber":74,"Velocity":50,"Duration":129768,"SoundDuration":129768,"Delta":73392658},{"NoteNumber":43,"Velocity":35,"Duration":129768,"SoundDuration":129768,"Delta":73392658},{"NoteNumber":83,"Velocity":50,"Duration":137396,"SoundDuration":137396,"Delta":73652196},{"NoteNumber":55,"Velocity":31,"Duration":124906,"SoundDuration":124906,"Delta":73652196},{"NoteNumber":81,"Velocity":46,"Duration":137396,"SoundDuration":137396,"Delta":73777102},{"NoteNumber":79,"Velocity":50,"Duration":136623,"SoundDuration":136623,"Delta":73902009},{"NoteNumber":43,"Velocity":35,"Duration":124286,"SoundDuration":124286,"Delta":73902009},{"NoteNumber":78,"Velocity":45,"Duration":135197,"SoundDuration":135197,"Delta":74026295},{"NoteNumber":76,"Velocity":45,"Duration":133901,"SoundDuration":133901,"Delta":74149257},{"NoteNumber":55,"Velocity":32,"Duration":121764,"SoundDuration":121764,"Delta":74149257},{"NoteNumber":75,"Velocity":45,"Duration":134248,"SoundDuration":134248,"Delta":74271021},{"NoteNumber":76,"Velocity":50,"Duration":135652,"SoundDuration":135652,"Delta":74392984},{"NoteNumber":43,"Velocity":42,"Duration":123265,"SoundDuration":123265,"Delta":74392984},{"NoteNumber":78,"Velocity":48,"Duration":136983,"SoundDuration":136983,"Delta":74516249},{"NoteNumber":79,"Velocity":50,"Duration":138845,"SoundDuration":138845,"Delta":74640742},{"NoteNumber":55,"Velocity":37,"Duration":126089,"SoundDuration":126089,"Delta":74640742},{"NoteNumber":76,"Velocity":55,"Duration":140052,"SoundDuration":140052,"Delta":74766832},{"NoteNumber":74,"Velocity":62,"Duration":124906,"SoundDuration":124906,"Delta":74894393},{"NoteNumber":43,"Velocity":48,"Duration":249812,"SoundDuration":249812,"Delta":74894393},{"NoteNumber":79,"Velocity":53,"Duration":124906,"SoundDuration":124906,"Delta":75019300},{"NoteNumber":83,"Velocity":56,"Duration":124906,"SoundDuration":124906,"Delta":75144206},{"NoteNumber":55,"Velocity":41,"Duration":250235,"SoundDuration":250235,"Delta":75144206},{"NoteNumber":86,"Velocity":54,"Duration":125329,"SoundDuration":125329,"Delta":75269112},{"NoteNumber":84,"Velocity":62,"Duration":126594,"SoundDuration":126594,"Delta":75394441},{"NoteNumber":50,"Velocity":41,"Duration":251919,"SoundDuration":251919,"Delta":75394441},{"NoteNumber":83,"Velocity":53,"Duration":125324,"SoundDuration":125324,"Delta":75521036},{"NoteNumber":81,"Velocity":56,"Duration":124286,"SoundDuration":124286,"Delta":75646361},{"NoteNumber":47,"Velocity":41,"Duration":247758,"SoundDuration":247758,"Delta":75646361},{"NoteNumber":79,"Velocity":59,"Duration":123471,"SoundDuration":123471,"Delta":75770647},{"NoteNumber":78,"Velocity":67,"Duration":125509,"SoundDuration":125509,"Delta":75894119},{"NoteNumber":48,"Velocity":49,"Duration":251464,"SoundDuration":251464,"Delta":75894119},{"NoteNumber":76,"Velocity":55,"Duration":125955,"SoundDuration":125955,"Delta":76019628},{"NoteNumber":74,"Velocity":58,"Duration":125441,"SoundDuration":125441,"Delta":76145583},{"NoteNumber":45,"Velocity":40,"Duration":250569,"SoundDuration":250569,"Delta":76145583},{"NoteNumber":72,"Velocity":55,"Duration":125128,"SoundDuration":125128,"Delta":76271025},{"NoteNumber":71,"Velocity":66,"Duration":124906,"SoundDuration":124906,"Delta":76396153},{"NoteNumber":50,"Velocity":47,"Duration":249307,"SoundDuration":249307,"Delta":76396153},{"NoteNumber":69,"Velocity":53,"Duration":124401,"SoundDuration":124401,"Delta":76521059},{"NoteNumber":67,"Velocity":58,"Duration":124093,"SoundDuration":124093,"Delta":76645461},{"NoteNumber":38,"Velocity":42,"Duration":247878,"SoundDuration":247878,"Delta":76645461},{"NoteNumber":66,"Velocity":56,"Duration":123785,"SoundDuration":123785,"Delta":76769554},{"NoteNumber":67,"Velocity":67,"Duration":124906,"SoundDuration":124906,"Delta":76893340},{"NoteNumber":43,"Velocity":49,"Duration":249812,"SoundDuration":249812,"Delta":76893340},{"NoteNumber":71,"Velocity":58,"Duration":124906,"SoundDuration":124906,"Delta":77018246},{"NoteNumber":74,"Velocity":64,"Duration":122860,"SoundDuration":122860,"Delta":77143152},{"NoteNumber":71,"Velocity":58,"Duration":122860,"SoundDuration":122860,"Delta":77266012},{"NoteNumber":74,"Velocity":67,"Duration":122860,"SoundDuration":122860,"Delta":77388873},{"NoteNumber":71,"Velocity":59,"Duration":122860,"SoundDuration":122860,"Delta":77511733},{"NoteNumber":72,"Velocity":64,"Duration":133820,"SoundDuration":133820,"Delta":77634593},{"NoteNumber":50,"Velocity":49,"Duration":133820,"SoundDuration":133820,"Delta":77634593},{"NoteNumber":69,"Velocity":58,"Duration":133820,"SoundDuration":133820,"Delta":77768414},{"NoteNumber":67,"Velocity":67,"Duration":124388,"SoundDuration":124388,"Delta":77902235},{"NoteNumber":55,"Velocity":57,"Duration":124388,"SoundDuration":124388,"Delta":77902235},{"NoteNumber":71,"Velocity":59,"Duration":124388,"SoundDuration":124388,"Delta":78026624},{"NoteNumber":74,"Velocity":63,"Duration":121861,"SoundDuration":121861,"Delta":78151012},{"NoteNumber":71,"Velocity":58,"Duration":121862,"SoundDuration":121862,"Delta":78272874},{"NoteNumber":74,"Velocity":67,"Duration":121861,"SoundDuration":121861,"Delta":78394736},{"NoteNumber":71,"Velocity":59,"Duration":121862,"SoundDuration":121862,"Delta":78516598},{"NoteNumber":72,"Velocity":65,"Duration":133226,"SoundDuration":133226,"Delta":78638460},{"NoteNumber":50,"Velocity":49,"Duration":133226,"SoundDuration":133226,"Delta":78638460},{"NoteNumber":69,"Velocity":59,"Duration":133226,"SoundDuration":133226,"Delta":78771687},{"NoteNumber":67,"Velocity":70,"Duration":257311,"SoundDuration":257311,"Delta":78904914},{"NoteNumber":43,"Velocity":56,"Duration":128656,"SoundDuration":128656,"Delta":78904914},{"NoteNumber":55,"Velocity":41,"Duration":257311,"SoundDuration":257311,"Delta":79162226},{"NoteNumber":71,"Velocity":59,"Duration":277546,"SoundDuration":277546,"Delta":79419538},{"NoteNumber":74,"Velocity":59,"Duration":277546,"SoundDuration":277546,"Delta":79419538},{"NoteNumber":79,"Velocity":70,"Duration":277546,"SoundDuration":277546,"Delta":79419538},{"NoteNumber":50,"Velocity":48,"Duration":277546,"SoundDuration":277546,"Delta":79419538},{"NoteNumber":47,"Velocity":41,"Duration":320547,"SoundDuration":320547,"Delta":79697084},{"NoteNumber":71,"Velocity":59,"Duration":505944,"SoundDuration":505944,"Delta":80017631},{"NoteNumber":74,"Velocity":59,"Duration":505944,"SoundDuration":505944,"Delta":80017631},{"NoteNumber":79,"Velocity":70,"Duration":505944,"SoundDuration":505944,"Delta":80017631},{"NoteNumber":43,"Velocity":56,"Duration":505944,"SoundDuration":505944,"Delta":80017631},{"NoteNumber":74,"Velocity":46,"Duration":249131,"SoundDuration":249131,"Delta":80818591},{"NoteNumber":74,"Velocity":50,"Duration":248983,"SoundDuration":248983,"Delta":81067722},{"NoteNumber":71,"Velocity":45,"Duration":248983,"SoundDuration":248983,"Delta":81316705},{"NoteNumber":71,"Velocity":49,"Duration":253895,"SoundDuration":253895,"Delta":81565689},{"NoteNumber":77,"Velocity":62,"Duration":254043,"SoundDuration":254043,"Delta":81819585},{"NoteNumber":56,"Velocity":32,"Duration":254043,"SoundDuration":254043,"Delta":81819585},{"NoteNumber":77,"Velocity":69,"Duration":743432,"SoundDuration":743432,"Delta":82073628},{"NoteNumber":56,"Velocity":41,"Duration":247933,"SoundDuration":247933,"Delta":82073628},{"NoteNumber":62,"Velocity":33,"Duration":247749,"SoundDuration":247749,"Delta":82321561},{"NoteNumber":59,"Velocity":33,"Duration":247749,"SoundDuration":247749,"Delta":82321561},{"NoteNumber":59,"Velocity":31,"Duration":247749,"SoundDuration":247749,"Delta":82569311},{"NoteNumber":62,"Velocity":31,"Duration":247749,"SoundDuration":247749,"Delta":82569311},{"NoteNumber":76,"Velocity":49,"Duration":119695,"SoundDuration":119695,"Delta":82817060},{"NoteNumber":56,"Velocity":31,"Duration":239131,"SoundDuration":239131,"Delta":82817060},{"NoteNumber":74,"Velocity":45,"Duration":119436,"SoundDuration":119436,"Delta":82936755},{"NoteNumber":72,"Velocity":50,"Duration":123136,"SoundDuration":123136,"Delta":83056192},{"NoteNumber":57,"Velocity":35,"Duration":123136,"SoundDuration":123136,"Delta":83056192},{"NoteNumber":72,"Velocity":45,"Duration":123365,"SoundDuration":123365,"Delta":83302693},{"NoteNumber":72,"Velocity":50,"Duration":132607,"SoundDuration":132607,"Delta":83549424},{"NoteNumber":52,"Velocity":35,"Duration":120568,"SoundDuration":120568,"Delta":83549424},{"NoteNumber":71,"Velocity":43,"Duration":132434,"SoundDuration":132434,"Delta":83669993},{"NoteNumber":69,"Velocity":43,"Duration":132733,"SoundDuration":132733,"Delta":83790388},{"NoteNumber":71,"Velocity":43,"Duration":139703,"SoundDuration":139703,"Delta":83910783},{"NoteNumber":72,"Velocity":53,"Duration":245994,"SoundDuration":245994,"Delta":84037926},{"NoteNumber":45,"Velocity":35,"Duration":245994,"SoundDuration":245994,"Delta":84037926},{"NoteNumber":81,"Velocity":46,"Duration":122860,"SoundDuration":122860,"Delta":84283921},{"NoteNumber":76,"Velocity":50,"Duration":133641,"SoundDuration":133641,"Delta":84530099},{"NoteNumber":77,"Velocity":43,"Duration":129884,"SoundDuration":129884,"Delta":84651774},{"NoteNumber":76,"Velocity":43,"Duration":129251,"SoundDuration":129251,"Delta":84769948},{"NoteNumber":56,"Velocity":35,"Duration":117105,"SoundDuration":117105,"Delta":84769948},{"NoteNumber":74,"Velocity":43,"Duration":139512,"SoundDuration":139512,"Delta":84887053},{"NoteNumber":72,"Velocity":53,"Duration":245994,"SoundDuration":245994,"Delta":85014005},{"NoteNumber":57,"Velocity":35,"Duration":245994,"SoundDuration":245994,"Delta":85014005},{"NoteNumber":81,"Velocity":46,"Duration":122860,"SoundDuration":122860,"Delta":85259999},{"NoteNumber":76,"Velocity":50,"Duration":134030,"SoundDuration":134030,"Delta":85505796},{"NoteNumber":77,"Velocity":43,"Duration":130888,"SoundDuration":130888,"Delta":85627786},{"NoteNumber":76,"Velocity":43,"Duration":129021,"SoundDuration":129021,"Delta":85746895},{"NoteNumber":56,"Velocity":35,"Duration":116901,"SoundDuration":116901,"Delta":85746895},{"NoteNumber":74,"Velocity":43,"Duration":139681,"SoundDuration":139681,"Delta":85863796},{"NoteNumber":72,"Velocity":50,"Duration":140185,"SoundDuration":140185,"Delta":85990722},{"NoteNumber":57,"Velocity":42,"Duration":252135,"SoundDuration":252135,"Delta":85990722},{"NoteNumber":74,"Velocity":45,"Duration":137012,"SoundDuration":137012,"Delta":86118283},{"NoteNumber":72,"Velocity":45,"Duration":136827,"SoundDuration":136827,"Delta":86242857},{"NoteNumber":45,"Velocity":35,"Duration":248777,"SoundDuration":248777,"Delta":86242857},{"NoteNumber":71,"Velocity":45,"Duration":136827,"SoundDuration":136827,"Delta":86367246},{"NoteNumber":69,"Velocity":51,"Duration":136827,"SoundDuration":136827,"Delta":86491634},{"NoteNumber":57,"Velocity":39,"Duration":249479,"SoundDuration":249479,"Delta":86491634},{"NoteNumber":71,"Velocity":55,"Duration":137695,"SoundDuration":137695,"Delta":86616023},{"NoteNumber":72,"Velocity":58,"Duration":140555,"SoundDuration":140555,"Delta":86741113},{"NoteNumber":55,"Velocity":48,"Duration":257865,"SoundDuration":257865,"Delta":86741113},{"NoteNumber":74,"Velocity":62,"Duration":142895,"SoundDuration":142895,"Delta":86868738},{"NoteNumber":76,"Velocity":70,"Duration":753709,"SoundDuration":753709,"Delta":86998979},{"NoteNumber":54,"Velocity":52,"Duration":251995,"SoundDuration":251995,"Delta":86998979},{"NoteNumber":57,"Velocity":35,"Duration":250856,"SoundDuration":250856,"Delta":87250974},{"NoteNumber":60,"Velocity":42,"Duration":250856,"SoundDuration":250856,"Delta":87250974},{"NoteNumber":57,"Velocity":35,"Duration":250857,"SoundDuration":250857,"Delta":87501831},{"NoteNumber":60,"Velocity":42,"Duration":250857,"SoundDuration":250857,"Delta":87501831},{"NoteNumber":74,"Velocity":50,"Duration":137971,"SoundDuration":137971,"Delta":87752688},{"NoteNumber":54,"Velocity":38,"Duration":250856,"SoundDuration":250856,"Delta":87752688},{"NoteNumber":72,"Velocity":43,"Duration":137971,"SoundDuration":137971,"Delta":87878117},{"NoteNumber":71,"Velocity":50,"Duration":125428,"SoundDuration":125428,"Delta":88003545},{"NoteNumber":55,"Velocity":35,"Duration":125428,"SoundDuration":125428,"Delta":88003545},{"NoteNumber":74,"Velocity":45,"Duration":137864,"SoundDuration":137864,"Delta":88128974},{"NoteNumber":72,"Velocity":43,"Duration":135296,"SoundDuration":135296,"Delta":88254402},{"NoteNumber":71,"Velocity":43,"Duration":135146,"SoundDuration":135146,"Delta":88377412},{"NoteNumber":69,"Velocity":50,"Duration":135146,"SoundDuration":135146,"Delta":88500272},{"NoteNumber":50,"Velocity":29,"Duration":122860,"SoundDuration":122860,"Delta":88500272},{"NoteNumber":72,"Velocity":45,"Duration":135146,"SoundDuration":135146,"Delta":88623133},{"NoteNumber":71,"Velocity":43,"Duration":135481,"SoundDuration":135481,"Delta":88745993},{"NoteNumber":69,"Velocity":43,"Duration":143187,"SoundDuration":143187,"Delta":88868853},{"NoteNumber":67,"Velocity":50,"Duration":135615,"SoundDuration":135615,"Delta":88999286},{"NoteNumber":52,"Velocity":38,"Duration":1000653,"SoundDuration":1000653,"Delta":88999286},{"NoteNumber":40,"Velocity":38,"Duration":1000653,"SoundDuration":1000653,"Delta":88999286},{"NoteNumber":69,"Velocity":45,"Duration":135146,"SoundDuration":135146,"Delta":89122615},{"NoteNumber":67,"Velocity":45,"Duration":135146,"SoundDuration":135146,"Delta":89245475},{"NoteNumber":66,"Velocity":45,"Duration":135255,"SoundDuration":135255,"Delta":89368335},{"NoteNumber":67,"Velocity":50,"Duration":136555,"SoundDuration":136555,"Delta":89491255},{"NoteNumber":69,"Velocity":46,"Duration":138695,"SoundDuration":138695,"Delta":89615311},{"NoteNumber":71,"Velocity":50,"Duration":140823,"SoundDuration":140823,"Delta":89741304},{"NoteNumber":73,"Velocity":57,"Duration":143525,"SoundDuration":143525,"Delta":89869168},{"NoteNumber":74,"Velocity":67,"Duration":246189,"SoundDuration":246189,"Delta":89999939},{"NoteNumber":50,"Velocity":49,"Duration":123329,"SoundDuration":123329,"Delta":89999939},{"NoteNumber":38,"Velocity":38,"Duration":122860,"SoundDuration":122860,"Delta":90246128},{"NoteNumber":66,"Velocity":54,"Duration":135146,"SoundDuration":135146,"Delta":90491849},{"NoteNumber":67,"Velocity":50,"Duration":135146,"SoundDuration":135146,"Delta":90614709},{"NoteNumber":66,"Velocity":53,"Duration":135529,"SoundDuration":135529,"Delta":90737569},{"NoteNumber":64,"Velocity":50,"Duration":144340,"SoundDuration":144340,"Delta":90860430},{"NoteNumber":62,"Velocity":58,"Duration":123396,"SoundDuration":123396,"Delta":90991947},{"NoteNumber":50,"Velocity":49,"Duration":123396,"SoundDuration":123396,"Delta":90991947},{"NoteNumber":38,"Velocity":38,"Duration":122860,"SoundDuration":122860,"Delta":91238204},{"NoteNumber":67,"Velocity":50,"Duration":135146,"SoundDuration":135146,"Delta":91483925},{"NoteNumber":69,"Velocity":46,"Duration":135146,"SoundDuration":135146,"Delta":91606785},{"NoteNumber":67,"Velocity":50,"Duration":135529,"SoundDuration":135529,"Delta":91729645},{"NoteNumber":66,"Velocity":47,"Duration":144403,"SoundDuration":144403,"Delta":91852505},{"NoteNumber":64,"Velocity":50,"Duration":124835,"SoundDuration":124835,"Delta":91984023},{"NoteNumber":50,"Velocity":39,"Duration":124835,"SoundDuration":124835,"Delta":91984023},{"NoteNumber":38,"Velocity":34,"Duration":124388,"SoundDuration":124388,"Delta":92233247},{"NoteNumber":69,"Velocity":45,"Duration":139570,"SoundDuration":139570,"Delta":92482024},{"NoteNumber":71,"Velocity":41,"Duration":139723,"SoundDuration":139723,"Delta":92608892},{"NoteNumber":69,"Velocity":45,"Duration":139957,"SoundDuration":139957,"Delta":92735914},{"NoteNumber":67,"Velocity":39,"Duration":145197,"SoundDuration":145197,"Delta":92862936},{"NoteNumber":66,"Velocity":45,"Duration":144711,"SoundDuration":144711,"Delta":92995043},{"NoteNumber":50,"Velocity":34,"Duration":264458,"SoundDuration":264458,"Delta":92995043},{"NoteNumber":67,"Velocity":38,"Duration":146344,"SoundDuration":146344,"Delta":93126539},{"NoteNumber":66,"Velocity":38,"Duration":147955,"SoundDuration":147955,"Delta":93259502},{"NoteNumber":38,"Velocity":28,"Duration":270418,"SoundDuration":270418,"Delta":93259502},{"NoteNumber":64,"Velocity":38,"Duration":149642,"SoundDuration":149642,"Delta":93393945},{"NoteNumber":66,"Velocity":42,"Duration":151633,"SoundDuration":151633,"Delta":93529921},{"NoteNumber":50,"Velocity":37,"Duration":278799,"SoundDuration":278799,"Delta":93529921},{"NoteNumber":67,"Velocity":43,"Duration":155404,"SoundDuration":155404,"Delta":93667601},{"NoteNumber":69,"Velocity":41,"Duration":161654,"SoundDuration":161654,"Delta":93808721},{"NoteNumber":38,"Velocity":31,"Duration":344854,"SoundDuration":344854,"Delta":93808721},{"NoteNumber":71,"Velocity":40,"Duration":218761,"SoundDuration":218761,"Delta":93953323},{"NoteNumber":72,"Velocity":42,"Duration":321089,"SoundDuration":321089,"Delta":94153575},{"NoteNumber":50,"Velocity":30,"Duration":321089,"SoundDuration":321089,"Delta":94153575},{"NoteNumber":74,"Velocity":46,"Duration":249124,"SoundDuration":249124,"Delta":95010256},{"NoteNumber":74,"Velocity":50,"Duration":248983,"SoundDuration":248983,"Delta":95259381},{"NoteNumber":55,"Velocity":35,"Duration":248983,"SoundDuration":248983,"Delta":95259381},{"NoteNumber":71,"Velocity":45,"Duration":248983,"SoundDuration":248983,"Delta":95508365},{"NoteNumber":59,"Velocity":28,"Duration":248983,"SoundDuration":248983,"Delta":95508365},{"NoteNumber":71,"Velocity":49,"Duration":253895,"SoundDuration":253895,"Delta":95757348},{"NoteNumber":62,"Velocity":28,"Duration":253895,"SoundDuration":253895,"Delta":95757348},{"NoteNumber":79,"Velocity":62,"Duration":254043,"SoundDuration":254043,"Delta":96011244},{"NoteNumber":59,"Velocity":32,"Duration":254043,"SoundDuration":254043,"Delta":96011244},{"NoteNumber":79,"Velocity":69,"Duration":743432,"SoundDuration":743432,"Delta":96265287},{"NoteNumber":55,"Velocity":41,"Duration":247933,"SoundDuration":247933,"Delta":96265287},{"NoteNumber":59,"Velocity":33,"Duration":247749,"SoundDuration":247749,"Delta":96513221},{"NoteNumber":62,"Velocity":31,"Duration":247749,"SoundDuration":247749,"Delta":96760970},{"NoteNumber":78,"Velocity":49,"Duration":119695,"SoundDuration":119695,"Delta":97008720},{"NoteNumber":59,"Velocity":31,"Duration":239131,"SoundDuration":239131,"Delta":97008720},{"NoteNumber":76,"Velocity":45,"Duration":119436,"SoundDuration":119436,"Delta":97128415},{"NoteNumber":74,"Velocity":50,"Duration":123136,"SoundDuration":123136,"Delta":97247851},{"NoteNumber":54,"Velocity":35,"Duration":246501,"SoundDuration":246501,"Delta":97247851},{"NoteNumber":74,"Velocity":45,"Duration":123365,"SoundDuration":123365,"Delta":97494353},{"NoteNumber":57,"Velocity":31,"Duration":246730,"SoundDuration":246730,"Delta":97494353},{"NoteNumber":74,"Velocity":50,"Duration":132607,"SoundDuration":132607,"Delta":97741084},{"NoteNumber":62,"Velocity":35,"Duration":240963,"SoundDuration":240963,"Delta":97741084},{"NoteNumber":76,"Velocity":43,"Duration":132434,"SoundDuration":132434,"Delta":97861652},{"NoteNumber":74,"Velocity":43,"Duration":132733,"SoundDuration":132733,"Delta":97982047},{"NoteNumber":57,"Velocity":30,"Duration":247538,"SoundDuration":247538,"Delta":97982047},{"NoteNumber":72,"Velocity":43,"Duration":139703,"SoundDuration":139703,"Delta":98102442},{"NoteNumber":71,"Velocity":53,"Duration":245994,"SoundDuration":245994,"Delta":98229586},{"NoteNumber":55,"Velocity":35,"Duration":245994,"SoundDuration":245994,"Delta":98229586},{"NoteNumber":74,"Velocity":46,"Duration":122860,"SoundDuration":122860,"Delta":98475581},{"NoteNumber":50,"Velocity":30,"Duration":245720,"SoundDuration":245720,"Delta":98475581},{"NoteNumber":47,"Velocity":30,"Duration":245720,"SoundDuration":245720,"Delta":98721301},{"NoteNumber":71,"Velocity":46,"Duration":245720,"SoundDuration":245720,"Delta":98967022},{"NoteNumber":43,"Velocity":30,"Duration":245720,"SoundDuration":245720,"Delta":98967022},{"NoteNumber":71,"Velocity":53,"Duration":245720,"SoundDuration":245720,"Delta":99212742},{"NoteNumber":48,"Velocity":35,"Duration":245720,"SoundDuration":245720,"Delta":99212742},{"NoteNumber":69,"Velocity":49,"Duration":245720,"SoundDuration":245720,"Delta":99458463},{"NoteNumber":52,"Velocity":28,"Duration":245720,"SoundDuration":245720,"Delta":99458463},{"NoteNumber":69,"Velocity":58,"Duration":251729,"SoundDuration":251729,"Delta":99704183},{"NoteNumber":57,"Velocity":34,"Duration":251729,"SoundDuration":251729,"Delta":99704183},{"NoteNumber":76,"Velocity":62,"Duration":251910,"SoundDuration":251910,"Delta":99955913},{"NoteNumber":52,"Velocity":39,"Duration":251910,"SoundDuration":251910,"Delta":99955913},{"NoteNumber":76,"Velocity":69,"Duration":731410,"SoundDuration":731410,"Delta":100207823},{"NoteNumber":48,"Velocity":42,"Duration":243962,"SoundDuration":243962,"Delta":100207823},{"NoteNumber":52,"Velocity":38,"Duration":243724,"SoundDuration":243724,"Delta":100451786},{"NoteNumber":57,"Velocity":31,"Duration":243724,"SoundDuration":243724,"Delta":100695510},{"NoteNumber":72,"Velocity":49,"Duration":116953,"SoundDuration":116953,"Delta":100939234},{"NoteNumber":69,"Velocity":45,"Duration":116649,"SoundDuration":116649,"Delta":101056188},{"NoteNumber":67,"Velocity":50,"Duration":121557,"SoundDuration":121557,"Delta":101172838},{"NoteNumber":59,"Velocity":35,"Duration":121557,"SoundDuration":121557,"Delta":101172838},{"NoteNumber":50,"Velocity":35,"Duration":121557,"SoundDuration":121557,"Delta":101172838},{"NoteNumber":67,"Velocity":45,"Duration":121862,"SoundDuration":121862,"Delta":101416258},{"NoteNumber":59,"Velocity":31,"Duration":121862,"SoundDuration":121862,"Delta":101416258},{"NoteNumber":50,"Velocity":31,"Duration":121862,"SoundDuration":121862,"Delta":101416258},{"NoteNumber":67,"Velocity":50,"Duration":131028,"SoundDuration":131028,"Delta":101659982},{"NoteNumber":50,"Velocity":35,"Duration":119131,"SoundDuration":119131,"Delta":101659982},{"NoteNumber":57,"Velocity":35,"Duration":119131,"SoundDuration":119131,"Delta":101659982},{"NoteNumber":66,"Velocity":43,"Duration":130859,"SoundDuration":130859,"Delta":101779114},{"NoteNumber":64,"Velocity":43,"Duration":131128,"SoundDuration":131128,"Delta":101898076},{"NoteNumber":57,"Velocity":30,"Duration":118962,"SoundDuration":118962,"Delta":101898076},{"NoteNumber":50,"Velocity":30,"Duration":118962,"SoundDuration":118962,"Delta":101898076},{"NoteNumber":66,"Velocity":43,"Duration":136994,"SoundDuration":136994,"Delta":102017039},{"NoteNumber":67,"Velocity":53,"Duration":491844,"SoundDuration":491844,"Delta":102142090},{"NoteNumber":43,"Velocity":35,"Duration":119436,"SoundDuration":119436,"Delta":102142090},{"NoteNumber":55,"Velocity":30,"Duration":126486,"SoundDuration":126486,"Delta":102380963},{"NoteNumber":43,"Velocity":35,"Duration":121861,"SoundDuration":121861,"Delta":102633935},{"NoteNumber":74,"Velocity":50,"Duration":138550,"SoundDuration":138550,"Delta":102877659},{"NoteNumber":55,"Velocity":35,"Duration":125955,"SoundDuration":125955,"Delta":102877659},{"NoteNumber":72,"Velocity":46,"Duration":138380,"SoundDuration":138380,"Delta":103003615},{"NoteNumber":71,"Velocity":50,"Duration":132517,"SoundDuration":132517,"Delta":103129570},{"NoteNumber":43,"Velocity":35,"Duration":120525,"SoundDuration":120525,"Delta":103129570},{"NoteNumber":69,"Velocity":45,"Duration":132246,"SoundDuration":132246,"Delta":103250096},{"NoteNumber":67,"Velocity":45,"Duration":132928,"SoundDuration":132928,"Delta":103370302},{"NoteNumber":55,"Velocity":32,"Duration":120791,"SoundDuration":120791,"Delta":103370302},{"NoteNumber":66,"Velocity":45,"Duration":133657,"SoundDuration":133657,"Delta":103491094},{"NoteNumber":64,"Velocity":50,"Duration":133405,"SoundDuration":133405,"Delta":103612565},{"NoteNumber":43,"Velocity":35,"Duration":121268,"SoundDuration":121268,"Delta":103612565},{"NoteNumber":66,"Velocity":46,"Duration":133756,"SoundDuration":133756,"Delta":103733834},{"NoteNumber":67,"Velocity":46,"Duration":134895,"SoundDuration":134895,"Delta":103855404},{"NoteNumber":55,"Velocity":31,"Duration":122368,"SoundDuration":122368,"Delta":103855404},{"NoteNumber":64,"Velocity":46,"Duration":140126,"SoundDuration":140126,"Delta":103977772},{"NoteNumber":62,"Velocity":50,"Duration":262101,"SoundDuration":262101,"Delta":104105413},{"NoteNumber":43,"Velocity":35,"Duration":147770,"SoundDuration":147770,"Delta":104105413},{"NoteNumber":45,"Velocity":30,"Duration":140034,"SoundDuration":140034,"Delta":104239911},{"NoteNumber":47,"Velocity":31,"Duration":134946,"SoundDuration":134946,"Delta":104367515},{"NoteNumber":48,"Velocity":31,"Duration":131810,"SoundDuration":131810,"Delta":104490332},{"NoteNumber":50,"Velocity":32,"Duration":128822,"SoundDuration":128822,"Delta":104610301},{"NoteNumber":52,"Velocity":34,"Duration":131084,"SoundDuration":131084,"Delta":104727549},{"NoteNumber":74,"Velocity":50,"Duration":133522,"SoundDuration":133522,"Delta":104846524},{"NoteNumber":54,"Velocity":34,"Duration":133522,"SoundDuration":133522,"Delta":104846524},{"NoteNumber":72,"Velocity":46,"Duration":137494,"SoundDuration":137494,"Delta":104967926},{"NoteNumber":55,"Velocity":36,"Duration":125503,"SoundDuration":125503,"Delta":104967926},{"NoteNumber":71,"Velocity":50,"Duration":132149,"SoundDuration":132149,"Delta":105093429},{"NoteNumber":43,"Velocity":35,"Duration":120110,"SoundDuration":120110,"Delta":105093429},{"NoteNumber":69,"Velocity":45,"Duration":133025,"SoundDuration":133025,"Delta":105213539},{"NoteNumber":67,"Velocity":45,"Duration":133908,"SoundDuration":133908,"Delta":105334428},{"NoteNumber":55,"Velocity":32,"Duration":121673,"SoundDuration":121673,"Delta":105334428},{"NoteNumber":66,"Velocity":45,"Duration":134849,"SoundDuration":134849,"Delta":105456101},{"NoteNumber":64,"Velocity":50,"Duration":133498,"SoundDuration":133498,"Delta":105578665},{"NoteNumber":43,"Velocity":42,"Duration":121361,"SoundDuration":121361,"Delta":105578665},{"NoteNumber":66,"Velocity":48,"Duration":134106,"SoundDuration":134106,"Delta":105700026},{"NoteNumber":67,"Velocity":50,"Duration":135338,"SoundDuration":135338,"Delta":105821897},{"NoteNumber":55,"Velocity":37,"Duration":122764,"SoundDuration":122764,"Delta":105821897},{"NoteNumber":64,"Velocity":55,"Duration":142013,"SoundDuration":142013,"Delta":105944661},{"NoteNumber":62,"Velocity":60,"Duration":124404,"SoundDuration":124404,"Delta":106074027},{"NoteNumber":43,"Velocity":48,"Duration":124404,"SoundDuration":124404,"Delta":106074027},{"NoteNumber":79,"Velocity":62,"Duration":122049,"SoundDuration":122049,"Delta":106321989},{"NoteNumber":47,"Velocity":42,"Duration":242821,"SoundDuration":242821,"Delta":106321989},{"NoteNumber":78,"Velocity":58,"Duration":120772,"SoundDuration":120772,"Delta":106444038},{"NoteNumber":76,"Velocity":56,"Duration":119913,"SoundDuration":119913,"Delta":106564810},{"NoteNumber":50,"Velocity":48,"Duration":239827,"SoundDuration":239827,"Delta":106564810},{"NoteNumber":74,"Velocity":56,"Duration":119913,"SoundDuration":119913,"Delta":106684724},{"NoteNumber":72,"Velocity":56,"Duration":119913,"SoundDuration":119913,"Delta":106804638},{"NoteNumber":55,"Velocity":43,"Duration":239827,"SoundDuration":239827,"Delta":106804638},{"NoteNumber":71,"Velocity":56,"Duration":119913,"SoundDuration":119913,"Delta":106924551},{"NoteNumber":69,"Velocity":62,"Duration":125955,"SoundDuration":125955,"Delta":107044465},{"NoteNumber":48,"Velocity":48,"Duration":125955,"SoundDuration":125955,"Delta":107044465},{"NoteNumber":69,"Velocity":58,"Duration":125955,"SoundDuration":125955,"Delta":107296376},{"NoteNumber":48,"Velocity":43,"Duration":125955,"SoundDuration":125955,"Delta":107296376},{"NoteNumber":66,"Velocity":52,"Duration":125955,"SoundDuration":125955,"Delta":107548286},{"NoteNumber":74,"Velocity":62,"Duration":125955,"SoundDuration":125955,"Delta":107548286},{"NoteNumber":50,"Velocity":48,"Duration":125955,"SoundDuration":125955,"Delta":107548286},{"NoteNumber":74,"Velocity":57,"Duration":132802,"SoundDuration":132802,"Delta":107800197},{"NoteNumber":66,"Velocity":48,"Duration":132802,"SoundDuration":132802,"Delta":107800197},{"NoteNumber":50,"Velocity":43,"Duration":132802,"SoundDuration":132802,"Delta":107800197},{"NoteNumber":69,"Velocity":52,"Duration":500110,"SoundDuration":500110,"Delta":108066226},{"NoteNumber":72,"Velocity":62,"Duration":500110,"SoundDuration":500110,"Delta":108066226},{"NoteNumber":43,"Velocity":35,"Duration":125391,"SoundDuration":125391,"Delta":108066226},{"NoteNumber":55,"Velocity":32,"Duration":124906,"SoundDuration":124906,"Delta":108316524},{"NoteNumber":71,"Velocity":59,"Duration":256026,"SoundDuration":256026,"Delta":108566336},{"NoteNumber":67,"Velocity":50,"Duration":256026,"SoundDuration":256026,"Delta":108566336},{"NoteNumber":43,"Velocity":35,"Duration":127919,"SoundDuration":127919,"Delta":108566336},{"NoteNumber":83,"Velocity":50,"Duration":133389,"SoundDuration":133389,"Delta":108822363},{"NoteNumber":55,"Velocity":35,"Duration":121301,"SoundDuration":121301,"Delta":108822363},{"NoteNumber":81,"Velocity":46,"Duration":133437,"SoundDuration":133437,"Delta":108943664},{"NoteNumber":79,"Velocity":50,"Duration":136863,"SoundDuration":136863,"Delta":109064611},{"NoteNumber":43,"Velocity":35,"Duration":124475,"SoundDuration":124475,"Delta":109064611},{"NoteNumber":78,"Velocity":45,"Duration":135274,"SoundDuration":135274,"Delta":109189087},{"NoteNumber":76,"Velocity":45,"Duration":133729,"SoundDuration":133729,"Delta":109312126},{"NoteNumber":55,"Velocity":32,"Duration":121641,"SoundDuration":121641,"Delta":109312126},{"NoteNumber":75,"Velocity":45,"Duration":132219,"SoundDuration":132219,"Delta":109433768},{"NoteNumber":76,"Velocity":50,"Duration":132226,"SoundDuration":132226,"Delta":109554043},{"NoteNumber":43,"Velocity":35,"Duration":120040,"SoundDuration":120040,"Delta":109554043},{"NoteNumber":78,"Velocity":46,"Duration":134587,"SoundDuration":134587,"Delta":109674083},{"NoteNumber":79,"Velocity":46,"Duration":135491,"SoundDuration":135491,"Delta":109796385},{"NoteNumber":55,"Velocity":31,"Duration":123133,"SoundDuration":123133,"Delta":109796385},{"NoteNumber":76,"Velocity":46,"Duration":136480,"SoundDuration":136480,"Delta":109919519},{"NoteNumber":74,"Velocity":50,"Duration":135732,"SoundDuration":135732,"Delta":110043539},{"NoteNumber":43,"Velocity":35,"Duration":123496,"SoundDuration":123496,"Delta":110043539},{"NoteNumber":72,"Velocity":46,"Duration":134594,"SoundDuration":134594,"Delta":110167035},{"NoteNumber":71,"Velocity":46,"Duration":134594,"SoundDuration":134594,"Delta":110289394},{"NoteNumber":55,"Velocity":32,"Duration":122359,"SoundDuration":122359,"Delta":110289394},{"NoteNumber":72,"Velocity":46,"Duration":134903,"SoundDuration":134903,"Delta":110411753},{"NoteNumber":74,"Velocity":50,"Duration":129336,"SoundDuration":129336,"Delta":110534112},{"NoteNumber":43,"Velocity":35,"Duration":129336,"SoundDuration":129336,"Delta":110534112},{"NoteNumber":83,"Velocity":50,"Duration":137680,"SoundDuration":137680,"Delta":110793218},{"NoteNumber":55,"Velocity":31,"Duration":125189,"SoundDuration":125189,"Delta":110793218},{"NoteNumber":81,"Velocity":46,"Duration":137396,"SoundDuration":137396,"Delta":110918408},{"NoteNumber":79,"Velocity":50,"Duration":136712,"SoundDuration":136712,"Delta":111043314},{"NoteNumber":43,"Velocity":35,"Duration":124346,"SoundDuration":124346,"Delta":111043314},{"NoteNumber":78,"Velocity":45,"Duration":135286,"SoundDuration":135286,"Delta":111167661},{"NoteNumber":76,"Velocity":45,"Duration":133958,"SoundDuration":133958,"Delta":111290712},{"NoteNumber":55,"Velocity":32,"Duration":121821,"SoundDuration":121821,"Delta":111290712},{"NoteNumber":75,"Velocity":45,"Duration":134161,"SoundDuration":134161,"Delta":111412534},{"NoteNumber":76,"Velocity":50,"Duration":135564,"SoundDuration":135564,"Delta":111534438},{"NoteNumber":43,"Velocity":42,"Duration":123176,"SoundDuration":123176,"Delta":111534438},{"NoteNumber":78,"Velocity":48,"Duration":136923,"SoundDuration":136923,"Delta":111657615},{"NoteNumber":79,"Velocity":50,"Duration":138691,"SoundDuration":138691,"Delta":111782048},{"NoteNumber":55,"Velocity":37,"Duration":125934,"SoundDuration":125934,"Delta":111782048},{"NoteNumber":76,"Velocity":55,"Duration":140207,"SoundDuration":140207,"Delta":111907982},{"NoteNumber":74,"Velocity":62,"Duration":125061,"SoundDuration":125061,"Delta":112035544},{"NoteNumber":43,"Velocity":48,"Duration":249967,"SoundDuration":249967,"Delta":112035544},{"NoteNumber":79,"Velocity":53,"Duration":124906,"SoundDuration":124906,"Delta":112160605},{"NoteNumber":83,"Velocity":56,"Duration":124906,"SoundDuration":124906,"Delta":112285512},{"NoteNumber":55,"Velocity":41,"Duration":250112,"SoundDuration":250112,"Delta":112285512},{"NoteNumber":86,"Velocity":54,"Duration":125205,"SoundDuration":125205,"Delta":112410418},{"NoteNumber":84,"Velocity":62,"Duration":126656,"SoundDuration":126656,"Delta":112535624},{"NoteNumber":50,"Velocity":41,"Duration":252042,"SoundDuration":252042,"Delta":112535624},{"NoteNumber":83,"Velocity":53,"Duration":125386,"SoundDuration":125386,"Delta":112662280},{"NoteNumber":81,"Velocity":56,"Duration":124346,"SoundDuration":124346,"Delta":112787666},{"NoteNumber":47,"Velocity":41,"Duration":247758,"SoundDuration":247758,"Delta":112787666},{"NoteNumber":79,"Velocity":59,"Duration":123411,"SoundDuration":123411,"Delta":112912013},{"NoteNumber":78,"Velocity":67,"Duration":125448,"SoundDuration":125448,"Delta":113035424},{"NoteNumber":48,"Velocity":49,"Duration":251403,"SoundDuration":251403,"Delta":113035424},{"NoteNumber":76,"Velocity":55,"Duration":125955,"SoundDuration":125955,"Delta":113160873},{"NoteNumber":74,"Velocity":58,"Duration":125472,"SoundDuration":125472,"Delta":113286828},{"NoteNumber":45,"Velocity":40,"Duration":250631,"SoundDuration":250631,"Delta":113286828},{"NoteNumber":72,"Velocity":55,"Duration":125158,"SoundDuration":125158,"Delta":113412300},{"NoteNumber":71,"Velocity":66,"Duration":124906,"SoundDuration":124906,"Delta":113537459},{"NoteNumber":50,"Velocity":47,"Duration":249337,"SoundDuration":249337,"Delta":113537459},{"NoteNumber":69,"Velocity":53,"Duration":124431,"SoundDuration":124431,"Delta":113662365},{"NoteNumber":67,"Velocity":58,"Duration":124123,"SoundDuration":124123,"Delta":113786797},{"NoteNumber":38,"Velocity":42,"Duration":247938,"SoundDuration":247938,"Delta":113786797},{"NoteNumber":66,"Velocity":56,"Duration":123815,"SoundDuration":123815,"Delta":113910920},{"NoteNumber":67,"Velocity":67,"Duration":124816,"SoundDuration":124816,"Delta":114034735},{"NoteNumber":43,"Velocity":49,"Duration":249722,"SoundDuration":249722,"Delta":114034735},{"NoteNumber":71,"Velocity":58,"Duration":124906,"SoundDuration":124906,"Delta":114159552},{"NoteNumber":74,"Velocity":64,"Duration":122979,"SoundDuration":122979,"Delta":114284458},{"NoteNumber":71,"Velocity":58,"Duration":122860,"SoundDuration":122860,"Delta":114407437},{"NoteNumber":74,"Velocity":67,"Duration":122860,"SoundDuration":122860,"Delta":114530298},{"NoteNumber":71,"Velocity":59,"Duration":122860,"SoundDuration":122860,"Delta":114653158},{"NoteNumber":72,"Velocity":64,"Duration":133181,"SoundDuration":133181,"Delta":114776018},{"NoteNumber":50,"Velocity":49,"Duration":133181,"SoundDuration":133181,"Delta":114776018},{"NoteNumber":69,"Velocity":58,"Duration":133820,"SoundDuration":133820,"Delta":114909200},{"NoteNumber":67,"Velocity":67,"Duration":124938,"SoundDuration":124938,"Delta":115043021},{"NoteNumber":55,"Velocity":57,"Duration":124938,"SoundDuration":124938,"Delta":115043021},{"NoteNumber":71,"Velocity":59,"Duration":124388,"SoundDuration":124388,"Delta":115167960},{"NoteNumber":74,"Velocity":63,"Duration":122009,"SoundDuration":122009,"Delta":115292348},{"NoteNumber":71,"Velocity":58,"Duration":121861,"SoundDuration":121861,"Delta":115414357},{"NoteNumber":74,"Velocity":67,"Duration":121862,"SoundDuration":121862,"Delta":115536219},{"NoteNumber":71,"Velocity":59,"Duration":121861,"SoundDuration":121861,"Delta":115658081},{"NoteNumber":72,"Velocity":65,"Duration":132563,"SoundDuration":132563,"Delta":115779943},{"NoteNumber":50,"Velocity":49,"Duration":132563,"SoundDuration":132563,"Delta":115779943},{"NoteNumber":69,"Velocity":59,"Duration":133226,"SoundDuration":133226,"Delta":115912507},{"NoteNumber":67,"Velocity":70,"Duration":262720,"SoundDuration":262720,"Delta":116045734},{"NoteNumber":43,"Velocity":56,"Duration":131360,"SoundDuration":131360,"Delta":116045734},{"NoteNumber":55,"Velocity":41,"Duration":262720,"SoundDuration":262720,"Delta":116308454},{"NoteNumber":71,"Velocity":59,"Duration":303982,"SoundDuration":303982,"Delta":116571174},{"NoteNumber":74,"Velocity":59,"Duration":303982,"SoundDuration":303982,"Delta":116571174},{"NoteNumber":79,"Velocity":70,"Duration":303982,"SoundDuration":303982,"Delta":116571174},{"NoteNumber":50,"Velocity":48,"Duration":303982,"SoundDuration":303982,"Delta":116571174},{"NoteNumber":47,"Velocity":41,"Duration":388651,"SoundDuration":388651,"Delta":116875156},{"NoteNumber":71,"Velocity":59,"Duration":509902,"SoundDuration":509902,"Delta":117263808},{"NoteNumber":74,"Velocity":59,"Duration":509902,"SoundDuration":509902,"Delta":117263808},{"NoteNumber":79,"Velocity":70,"Duration":509902,"SoundDuration":509902,"Delta":117263808},{"NoteNumber":43,"Velocity":56,"Duration":509902,"SoundDuration":509902,"Delta":117263808}],"license":{"name":"Creative Commons Attribution-ShareAlike 3.0 Germany","url":"http://creativecommons.org/licenses/by-sa/3.0/de/deed.en","text":"The MIDI, audio (MP3, OGG) and video files of Bernd Krueger are licensed under the cc-by-sa Germany License. This means that you can use and adapt the files, as long as you attribute the copyright holder.\n\nName: Bernd Krueger\nSource: http://www.piano-midi.de\n\nThe distribution or public playback of the files is only allowed under identical license conditions.\n\nThe scores are open source.","attribution":"MIDI files by Bernd Krueger (piano-midi.de)"}}