{"title":"Clementi: Sonatine Opus 36 Nr. 6, 1. Satz","artist":"Piano","durationMs":319336,"midiSha256":"a9f1d15459be77009b249c1fd82cf6a35d15149251b43cd3bd4079f0a2792e63","midiObject":[{"NoteNumber":71,"Velocity":50,"Duration":104609,"SoundDuration":104609,"Delta":0},{"NoteNumber":69,"Velocity":46,"Duration":104609,"SoundDuration":104609,"Delta":104609},{"NoteNumber":68,"Velocity":46,"Duration":112452,"SoundDuration":112452,"Delta":209219},{"NoteNumber":69,"Velocity":46,"Duration":112452,"SoundDuration":112452,"Delta":321671},{"NoteNumber":74,"Velocity":55,"Duration":651212,"SoundDuration":651212,"Delta":434124},{"NoteNumber":50,"Velocity":32,"Duration":219957,"SoundDuration":219957,"Delta":434124},{"NoteNumber":57,"Velocity":26,"Duration":217564,"SoundDuration":217564,"Delta":654081},{"NoteNumber":54,"Velocity":26,"Duration":213690,"SoundDuration":213690,"Delta":871646},{"NoteNumber":69,"Velocity":42,"Duration":213690,"SoundDuration":213690,"Delta":1085336},{"NoteNumber":57,"Velocity":26,"Duration":213690,"SoundDuration":213690,"Delta":1085336},{"NoteNumber":66,"Velocity":46,"Duration":213690,"SoundDuration":213690,"Delta":1299027},{"NoteNumber":50,"Velocity":30,"Duration":213690,"SoundDuration":213690,"Delta":1299027},{"NoteNumber":69,"Velocity":43,"Duration":213690,"SoundDuration":213690,"Delta":1512717},{"NoteNumber":57,"Velocity":28,"Duration":213690,"SoundDuration":213690,"Delta":1512717},{"NoteNumber":74,"Velocity":46,"Duration":213690,"SoundDuration":213690,"Delta":1726408},{"NoteNumber":54,"Velocity":28,"Duration":213690,"SoundDuration":213690,"Delta":1726408},{"NoteNumber":78,"Velocity":46,"Duration":171899,"SoundDuration":171899,"Delta":1940098},{"NoteNumber":57,"Velocity":28,"Duration":229200,"SoundDuration":229200,"Delta":1940098},{"NoteNumber":69,"Velocity":45,"Duration":57300,"SoundDuration":57300,"Delta":2111998},{"NoteNumber":81,"Velocity":54,"Duration":644464,"SoundDuration":644464,"Delta":2169298},{"NoteNumber":50,"Velocity":37,"Duration":213843,"SoundDuration":213843,"Delta":2169298},{"NoteNumber":57,"Velocity":26,"Duration":213842,"SoundDuration":213842,"Delta":2383141},{"NoteNumber":54,"Velocity":26,"Duration":216778,"SoundDuration":216778,"Delta":2596984},{"NoteNumber":78,"Velocity":40,"Duration":104975,"SoundDuration":104975,"Delta":2813763},{"NoteNumber":57,"Velocity":26,"Duration":209951,"SoundDuration":209951,"Delta":2813763},{"NoteNumber":74,"Velocity":40,"Duration":104975,"SoundDuration":104975,"Delta":2918738},{"NoteNumber":69,"Velocity":47,"Duration":106845,"SoundDuration":106845,"Delta":3023714},{"NoteNumber":50,"Velocity":31,"Duration":213690,"SoundDuration":213690,"Delta":3023714},{"NoteNumber":57,"Velocity":27,"Duration":213690,"SoundDuration":213690,"Delta":3237405},{"NoteNumber":74,"Velocity":45,"Duration":104246,"SoundDuration":104246,"Delta":3451095},{"NoteNumber":54,"Velocity":27,"Duration":208492,"SoundDuration":208492,"Delta":3451095},{"NoteNumber":76,"Velocity":40,"Duration":104246,"SoundDuration":104246,"Delta":3555341},{"NoteNumber":74,"Velocity":40,"Duration":104246,"SoundDuration":104246,"Delta":3659588},{"NoteNumber":57,"Velocity":27,"Duration":208492,"SoundDuration":208492,"Delta":3659588},{"NoteNumber":73,"Velocity":41,"Duration":104246,"SoundDuration":104246,"Delta":3763834},{"NoteNumber":71,"Velocity":48,"Duration":108389,"SoundDuration":108389,"Delta":3868080},{"NoteNumber":50,"Velocity":32,"Duration":216778,"SoundDuration":216778,"Delta":3868080},{"NoteNumber":59,"Velocity":26,"Duration":216778,"SoundDuration":216778,"Delta":4084859},{"NoteNumber":74,"Velocity":45,"Duration":104975,"SoundDuration":104975,"Delta":4301637},{"NoteNumber":55,"Velocity":26,"Duration":209951,"SoundDuration":209951,"Delta":4301637},{"NoteNumber":76,"Velocity":39,"Duration":104975,"SoundDuration":104975,"Delta":4406613},{"NoteNumber":74,"Velocity":40,"Duration":104975,"SoundDuration":104975,"Delta":4511589},{"NoteNumber":59,"Velocity":26,"Duration":209951,"SoundDuration":209951,"Delta":4511589},{"NoteNumber":73,"Velocity":41,"Duration":104975,"SoundDuration":104975,"Delta":4616564},{"NoteNumber":71,"Velocity":46,"Duration":107999,"SoundDuration":107999,"Delta":4721540},{"NoteNumber":50,"Velocity":31,"Duration":215998,"SoundDuration":215998,"Delta":4721540},{"NoteNumber":59,"Velocity":27,"Duration":215998,"SoundDuration":215998,"Delta":4937539},{"NoteNumber":86,"Velocity":48,"Duration":107999,"SoundDuration":107999,"Delta":5153537},{"NoteNumber":55,"Velocity":27,"Duration":214088,"SoundDuration":214088,"Delta":5153537},{"NoteNumber":83,"Velocity":40,"Duration":106089,"SoundDuration":106089,"Delta":5261536},{"NoteNumber":86,"Velocity":44,"Duration":106089,"SoundDuration":106089,"Delta":5367626},{"NoteNumber":59,"Velocity":27,"Duration":212178,"SoundDuration":212178,"Delta":5367626},{"NoteNumber":83,"Velocity":40,"Duration":106089,"SoundDuration":106089,"Delta":5473715},{"NoteNumber":81,"Velocity":50,"Duration":106089,"SoundDuration":106089,"Delta":5579805},{"NoteNumber":50,"Velocity":37,"Duration":212934,"SoundDuration":212934,"Delta":5579805},{"NoteNumber":86,"Velocity":51,"Duration":106845,"SoundDuration":106845,"Delta":5685894},{"NoteNumber":85,"Velocity":48,"Duration":106845,"SoundDuration":106845,"Delta":5792740},{"NoteNumber":57,"Velocity":26,"Duration":213437,"SoundDuration":213437,"Delta":5792740},{"NoteNumber":83,"Velocity":46,"Duration":106592,"SoundDuration":106592,"Delta":5899585},{"NoteNumber":81,"Velocity":48,"Duration":107099,"SoundDuration":107099,"Delta":6006177},{"NoteNumber":54,"Velocity":26,"Duration":215099,"SoundDuration":215099,"Delta":6006177},{"NoteNumber":79,"Velocity":43,"Duration":108000,"SoundDuration":108000,"Delta":6113277},{"NoteNumber":78,"Velocity":43,"Duration":114600,"SoundDuration":114600,"Delta":6221277},{"NoteNumber":57,"Velocity":26,"Duration":229199,"SoundDuration":229199,"Delta":6221277},{"NoteNumber":76,"Velocity":42,"Duration":114599,"SoundDuration":114599,"Delta":6335877},{"NoteNumber":74,"Velocity":48,"Duration":431996,"SoundDuration":431996,"Delta":6450477},{"NoteNumber":54,"Velocity":31,"Duration":215998,"SoundDuration":215998,"Delta":6450477},{"NoteNumber":57,"Velocity":21,"Duration":215998,"SoundDuration":215998,"Delta":6666476},{"NoteNumber":50,"Velocity":22,"Duration":215998,"SoundDuration":215998,"Delta":6882474},{"NoteNumber":66,"Velocity":41,"Duration":215998,"SoundDuration":215998,"Delta":7098472},{"NoteNumber":57,"Velocity":22,"Duration":215998,"SoundDuration":215998,"Delta":7098472},{"NoteNumber":67,"Velocity":46,"Duration":109178,"SoundDuration":109178,"Delta":7314471},{"NoteNumber":49,"Velocity":29,"Duration":218356,"SoundDuration":218356,"Delta":7314471},{"NoteNumber":67,"Velocity":41,"Duration":109178,"SoundDuration":109178,"Delta":7532828},{"NoteNumber":57,"Velocity":24,"Duration":215644,"SoundDuration":215644,"Delta":7532828},{"NoteNumber":69,"Velocity":50,"Duration":106466,"SoundDuration":106466,"Delta":7748472},{"NoteNumber":52,"Velocity":24,"Duration":212932,"SoundDuration":212932,"Delta":7748472},{"NoteNumber":67,"Velocity":41,"Duration":106465,"SoundDuration":106465,"Delta":7854938},{"NoteNumber":66,"Velocity":42,"Duration":114599,"SoundDuration":114599,"Delta":7961404},{"NoteNumber":57,"Velocity":24,"Duration":229200,"SoundDuration":229200,"Delta":7961404},{"NoteNumber":67,"Velocity":48,"Duration":114600,"SoundDuration":114600,"Delta":8076004},{"NoteNumber":76,"Velocity":56,"Duration":647995,"SoundDuration":647995,"Delta":8190604},{"NoteNumber":49,"Velocity":31,"Duration":215998,"SoundDuration":215998,"Delta":8190604},{"NoteNumber":57,"Velocity":27,"Duration":215998,"SoundDuration":215998,"Delta":8406602},{"NoteNumber":52,"Velocity":27,"Duration":215998,"SoundDuration":215998,"Delta":8622601},{"NoteNumber":67,"Velocity":40,"Duration":215998,"SoundDuration":215998,"Delta":8838599},{"NoteNumber":57,"Velocity":27,"Duration":215998,"SoundDuration":215998,"Delta":8838599},{"NoteNumber":66,"Velocity":46,"Duration":109178,"SoundDuration":109178,"Delta":9054598},{"NoteNumber":50,"Velocity":32,"Duration":218356,"SoundDuration":218356,"Delta":9054598},{"NoteNumber":66,"Velocity":40,"Duration":109178,"SoundDuration":109178,"Delta":9272954},{"NoteNumber":57,"Velocity":23,"Duration":218356,"SoundDuration":218356,"Delta":9272954},{"NoteNumber":67,"Velocity":50,"Duration":107226,"SoundDuration":107226,"Delta":9491311},{"NoteNumber":54,"Velocity":23,"Duration":214453,"SoundDuration":214453,"Delta":9491311},{"NoteNumber":66,"Velocity":40,"Duration":107226,"SoundDuration":107226,"Delta":9598538},{"NoteNumber":64,"Velocity":46,"Duration":113731,"SoundDuration":113731,"Delta":9705765},{"NoteNumber":57,"Velocity":23,"Duration":227462,"SoundDuration":227462,"Delta":9705765},{"NoteNumber":66,"Velocity":48,"Duration":113731,"SoundDuration":113731,"Delta":9819496},{"NoteNumber":74,"Velocity":56,"Duration":647995,"SoundDuration":647995,"Delta":9933227},{"NoteNumber":50,"Velocity":31,"Duration":215998,"SoundDuration":215998,"Delta":9933227},{"NoteNumber":57,"Velocity":27,"Duration":215998,"SoundDuration":215998,"Delta":10149226},{"NoteNumber":54,"Velocity":27,"Duration":215998,"SoundDuration":215998,"Delta":10365224},{"NoteNumber":66,"Velocity":40,"Duration":215998,"SoundDuration":215998,"Delta":10581223},{"NoteNumber":57,"Velocity":27,"Duration":215998,"SoundDuration":215998,"Delta":10581223},{"NoteNumber":66,"Velocity":47,"Duration":219153,"SoundDuration":219153,"Delta":10797221},{"NoteNumber":43,"Velocity":32,"Duration":884065,"SoundDuration":884065,"Delta":10797221},{"NoteNumber":55,"Velocity":32,"Duration":884065,"SoundDuration":884065,"Delta":10797221},{"NoteNumber":64,"Velocity":37,"Duration":219153,"SoundDuration":219153,"Delta":11016375},{"NoteNumber":67,"Velocity":40,"Duration":219154,"SoundDuration":219154,"Delta":11235529},{"NoteNumber":71,"Velocity":37,"Duration":226603,"SoundDuration":226603,"Delta":11454683},{"NoteNumber":71,"Velocity":45,"Duration":216778,"SoundDuration":216778,"Delta":11681286},{"NoteNumber":45,"Velocity":32,"Duration":886490,"SoundDuration":886490,"Delta":11681286},{"NoteNumber":57,"Velocity":32,"Duration":886490,"SoundDuration":886490,"Delta":11681286},{"NoteNumber":61,"Velocity":37,"Duration":216778,"SoundDuration":216778,"Delta":11898065},{"NoteNumber":64,"Velocity":40,"Duration":218356,"SoundDuration":218356,"Delta":12114843},{"NoteNumber":69,"Velocity":37,"Duration":234576,"SoundDuration":234576,"Delta":12333200},{"NoteNumber":67,"Velocity":45,"Duration":883103,"SoundDuration":883103,"Delta":12567776},{"NoteNumber":64,"Velocity":45,"Duration":883103,"SoundDuration":883103,"Delta":12567776},{"NoteNumber":38,"Velocity":31,"Duration":219957,"SoundDuration":219957,"Delta":12787734},{"NoteNumber":42,"Velocity":32,"Duration":219957,"SoundDuration":219957,"Delta":13007691},{"NoteNumber":45,"Velocity":34,"Duration":223231,"SoundDuration":223231,"Delta":13227649},{"NoteNumber":62,"Velocity":40,"Duration":440346,"SoundDuration":440346,"Delta":13450880},{"NoteNumber":66,"Velocity":40,"Duration":440346,"SoundDuration":440346,"Delta":13450880},{"NoteNumber":50,"Velocity":36,"Duration":221192,"SoundDuration":221192,"Delta":13450880},{"NoteNumber":45,"Velocity":31,"Duration":219153,"SoundDuration":219153,"Delta":13672072},{"NoteNumber":38,"Velocity":32,"Duration":219154,"SoundDuration":219154,"Delta":13891226},{"NoteNumber":66,"Velocity":40,"Duration":219021,"SoundDuration":219021,"Delta":14110380},{"NoteNumber":50,"Velocity":31,"Duration":219021,"SoundDuration":219021,"Delta":14110380},{"NoteNumber":67,"Velocity":46,"Duration":109046,"SoundDuration":109046,"Delta":14329401},{"NoteNumber":49,"Velocity":43,"Duration":217697,"SoundDuration":217697,"Delta":14329401},{"NoteNumber":64,"Velocity":37,"Duration":108651,"SoundDuration":108651,"Delta":14438448},{"NoteNumber":66,"Velocity":38,"Duration":108259,"SoundDuration":108259,"Delta":14547099},{"NoteNumber":57,"Velocity":36,"Duration":216129,"SoundDuration":216129,"Delta":14547099},{"NoteNumber":67,"Velocity":39,"Duration":107870,"SoundDuration":107870,"Delta":14655358},{"NoteNumber":69,"Velocity":46,"Duration":107483,"SoundDuration":107483,"Delta":14763228},{"NoteNumber":52,"Velocity":40,"Duration":214456,"SoundDuration":214456,"Delta":14763228},{"NoteNumber":71,"Velocity":39,"Duration":106972,"SoundDuration":106972,"Delta":14870712},{"NoteNumber":73,"Velocity":39,"Duration":106341,"SoundDuration":106341,"Delta":14977684},{"NoteNumber":57,"Velocity":36,"Duration":212430,"SoundDuration":212430,"Delta":14977684},{"NoteNumber":74,"Velocity":40,"Duration":106089,"SoundDuration":106089,"Delta":15084026},{"NoteNumber":76,"Velocity":48,"Duration":106089,"SoundDuration":106089,"Delta":15190115},{"NoteNumber":49,"Velocity":46,"Duration":212179,"SoundDuration":212179,"Delta":15190115},{"NoteNumber":74,"Velocity":40,"Duration":106089,"SoundDuration":106089,"Delta":15296205},{"NoteNumber":73,"Velocity":41,"Duration":106089,"SoundDuration":106089,"Delta":15402294},{"NoteNumber":57,"Velocity":36,"Duration":212178,"SoundDuration":212178,"Delta":15402294},{"NoteNumber":71,"Velocity":42,"Duration":106089,"SoundDuration":106089,"Delta":15508384},{"NoteNumber":69,"Velocity":48,"Duration":106089,"SoundDuration":106089,"Delta":15614473},{"NoteNumber":52,"Velocity":39,"Duration":212178,"SoundDuration":212178,"Delta":15614473},{"NoteNumber":67,"Velocity":41,"Duration":106089,"SoundDuration":106089,"Delta":15720563},{"NoteNumber":66,"Velocity":41,"Duration":117288,"SoundDuration":117288,"Delta":15826652},{"NoteNumber":57,"Velocity":36,"Duration":234576,"SoundDuration":234576,"Delta":15826652},{"NoteNumber":64,"Velocity":41,"Duration":117288,"SoundDuration":117288,"Delta":15943940},{"NoteNumber":66,"Velocity":49,"Duration":107611,"SoundDuration":107611,"Delta":16061229},{"NoteNumber":50,"Velocity":47,"Duration":215223,"SoundDuration":215223,"Delta":16061229},{"NoteNumber":62,"Velocity":40,"Duration":107611,"SoundDuration":107611,"Delta":16168840},{"NoteNumber":64,"Velocity":40,"Duration":107611,"SoundDuration":107611,"Delta":16276452},{"NoteNumber":57,"Velocity":36,"Duration":215223,"SoundDuration":215223,"Delta":16276452},{"NoteNumber":66,"Velocity":42,"Duration":107611,"SoundDuration":107611,"Delta":16384064},{"NoteNumber":67,"Velocity":51,"Duration":107611,"SoundDuration":107611,"Delta":16491676},{"NoteNumber":54,"Velocity":41,"Duration":215223,"SoundDuration":215223,"Delta":16491676},{"NoteNumber":69,"Velocity":42,"Duration":107611,"SoundDuration":107611,"Delta":16599287},{"NoteNumber":71,"Velocity":44,"Duration":107611,"SoundDuration":107611,"Delta":16706899},{"NoteNumber":57,"Velocity":36,"Duration":215223,"SoundDuration":215223,"Delta":16706899},{"NoteNumber":73,"Velocity":46,"Duration":107611,"SoundDuration":107611,"Delta":16814511},{"NoteNumber":74,"Velocity":57,"Duration":108259,"SoundDuration":108259,"Delta":16922123},{"NoteNumber":50,"Velocity":48,"Duration":217892,"SoundDuration":217892,"Delta":16922123},{"NoteNumber":76,"Velocity":47,"Duration":109632,"SoundDuration":109632,"Delta":17030382},{"NoteNumber":78,"Velocity":49,"Duration":110792,"SoundDuration":110792,"Delta":17140015},{"NoteNumber":57,"Velocity":40,"Duration":223078,"SoundDuration":223078,"Delta":17140015},{"NoteNumber":79,"Velocity":48,"Duration":112285,"SoundDuration":112285,"Delta":17250807},{"NoteNumber":81,"Velocity":57,"Duration":113474,"SoundDuration":113474,"Delta":17363093},{"NoteNumber":54,"Velocity":45,"Duration":228515,"SoundDuration":228515,"Delta":17363093},{"NoteNumber":83,"Velocity":57,"Duration":115041,"SoundDuration":115041,"Delta":17476568},{"NoteNumber":85,"Velocity":64,"Duration":116320,"SoundDuration":116320,"Delta":17591609},{"NoteNumber":57,"Velocity":43,"Duration":234349,"SoundDuration":234349,"Delta":17591609},{"NoteNumber":86,"Velocity":69,"Duration":118028,"SoundDuration":118028,"Delta":17707929},{"NoteNumber":55,"Velocity":58,"Duration":882531,"SoundDuration":882531,"Delta":17825958},{"NoteNumber":43,"Velocity":49,"Duration":882531,"SoundDuration":882531,"Delta":17825958},{"NoteNumber":71,"Velocity":54,"Duration":115989,"SoundDuration":115989,"Delta":17945110},{"NoteNumber":76,"Velocity":55,"Duration":109398,"SoundDuration":109398,"Delta":18061099},{"NoteNumber":79,"Velocity":61,"Duration":108738,"SoundDuration":108738,"Delta":18170498},{"NoteNumber":83,"Velocity":65,"Duration":107955,"SoundDuration":107955,"Delta":18279236},{"NoteNumber":81,"Velocity":59,"Duration":107439,"SoundDuration":107439,"Delta":18387192},{"NoteNumber":79,"Velocity":59,"Duration":106929,"SoundDuration":106929,"Delta":18494632},{"NoteNumber":78,"Velocity":55,"Duration":106929,"SoundDuration":106929,"Delta":18601561},{"NoteNumber":76,"Velocity":54,"Duration":106928,"SoundDuration":106928,"Delta":18708490},{"NoteNumber":45,"Velocity":41,"Duration":429088,"SoundDuration":429088,"Delta":18708490},{"NoteNumber":57,"Velocity":49,"Duration":429088,"SoundDuration":429088,"Delta":18708490},{"NoteNumber":74,"Velocity":53,"Duration":106929,"SoundDuration":106929,"Delta":18815419},{"NoteNumber":73,"Velocity":51,"Duration":107411,"SoundDuration":107411,"Delta":18922348},{"NoteNumber":71,"Velocity":51,"Duration":107818,"SoundDuration":107818,"Delta":19029759},{"NoteNumber":69,"Velocity":55,"Duration":108467,"SoundDuration":108467,"Delta":19137578},{"NoteNumber":45,"Velocity":38,"Duration":436937,"SoundDuration":436937,"Delta":19137578},{"NoteNumber":57,"Velocity":45,"Duration":436937,"SoundDuration":436937,"Delta":19137578},{"NoteNumber":67,"Velocity":60,"Duration":108940,"SoundDuration":108940,"Delta":19246046},{"NoteNumber":66,"Velocity":63,"Duration":109550,"SoundDuration":109550,"Delta":19354986},{"NoteNumber":64,"Velocity":65,"Duration":109978,"SoundDuration":109978,"Delta":19464537},{"NoteNumber":62,"Velocity":78,"Duration":644945,"SoundDuration":644945,"Delta":19574516},{"NoteNumber":38,"Velocity":63,"Duration":213690,"SoundDuration":213690,"Delta":19574516},{"NoteNumber":42,"Velocity":50,"Duration":213690,"SoundDuration":213690,"Delta":19788206},{"NoteNumber":45,"Velocity":56,"Duration":217564,"SoundDuration":217564,"Delta":20001897},{"NoteNumber":62,"Velocity":61,"Duration":213690,"SoundDuration":213690,"Delta":20219461},{"NoteNumber":50,"Velocity":50,"Duration":213690,"SoundDuration":213690,"Delta":20219461},{"NoteNumber":61,"Velocity":65,"Duration":213690,"SoundDuration":213690,"Delta":20433152},{"NoteNumber":38,"Velocity":46,"Duration":213690,"SoundDuration":213690,"Delta":20433152},{"NoteNumber":62,"Velocity":63,"Duration":213690,"SoundDuration":213690,"Delta":20646842},{"NoteNumber":50,"Velocity":36,"Duration":213690,"SoundDuration":213690,"Delta":20646842},{"NoteNumber":60,"Velocity":65,"Duration":213690,"SoundDuration":213690,"Delta":20860533},{"NoteNumber":38,"Velocity":42,"Duration":213690,"SoundDuration":213690,"Delta":20860533},{"NoteNumber":66,"Velocity":62,"Duration":219957,"SoundDuration":219957,"Delta":21074223},{"NoteNumber":50,"Velocity":37,"Duration":219957,"SoundDuration":219957,"Delta":21074223},{"NoteNumber":59,"Velocity":65,"Duration":212931,"SoundDuration":212931,"Delta":21294181},{"NoteNumber":38,"Velocity":46,"Duration":212931,"SoundDuration":212931,"Delta":21294181},{"NoteNumber":67,"Velocity":63,"Duration":212932,"SoundDuration":212932,"Delta":21507113},{"NoteNumber":50,"Velocity":29,"Duration":212932,"SoundDuration":212932,"Delta":21507113},{"NoteNumber":69,"Velocity":65,"Duration":104609,"SoundDuration":104609,"Delta":21720045},{"NoteNumber":38,"Velocity":35,"Duration":209219,"SoundDuration":209219,"Delta":21720045},{"NoteNumber":67,"Velocity":62,"Duration":104609,"SoundDuration":104609,"Delta":21824654},{"NoteNumber":66,"Velocity":62,"Duration":104609,"SoundDuration":104609,"Delta":21929264},{"NoteNumber":50,"Velocity":30,"Duration":209219,"SoundDuration":209219,"Delta":21929264},{"NoteNumber":67,"Velocity":62,"Duration":104609,"SoundDuration":104609,"Delta":22033874},{"NoteNumber":71,"Velocity":71,"Duration":216778,"SoundDuration":216778,"Delta":22138484},{"NoteNumber":38,"Velocity":46,"Duration":216778,"SoundDuration":216778,"Delta":22138484},{"NoteNumber":67,"Velocity":65,"Duration":216778,"SoundDuration":216778,"Delta":22355262},{"NoteNumber":50,"Velocity":29,"Duration":216778,"SoundDuration":216778,"Delta":22355262},{"NoteNumber":64,"Velocity":70,"Duration":216778,"SoundDuration":216778,"Delta":22572041},{"NoteNumber":38,"Velocity":35,"Duration":216778,"SoundDuration":216778,"Delta":22572041},{"NoteNumber":73,"Velocity":68,"Duration":237360,"SoundDuration":237360,"Delta":22788819},{"NoteNumber":50,"Velocity":29,"Duration":237360,"SoundDuration":237360,"Delta":22788819},{"NoteNumber":66,"Velocity":73,"Duration":644945,"SoundDuration":644945,"Delta":23026180},{"NoteNumber":74,"Velocity":82,"Duration":644945,"SoundDuration":644945,"Delta":23026180},{"NoteNumber":38,"Velocity":63,"Duration":213690,"SoundDuration":213690,"Delta":23026180},{"NoteNumber":42,"Velocity":50,"Duration":213690,"SoundDuration":213690,"Delta":23239870},{"NoteNumber":45,"Velocity":56,"Duration":217564,"SoundDuration":217564,"Delta":23453561},{"NoteNumber":74,"Velocity":67,"Duration":213690,"SoundDuration":213690,"Delta":23671125},{"NoteNumber":50,"Velocity":50,"Duration":213690,"SoundDuration":213690,"Delta":23671125},{"NoteNumber":73,"Velocity":71,"Duration":213690,"SoundDuration":213690,"Delta":23884816},{"NoteNumber":38,"Velocity":46,"Duration":213690,"SoundDuration":213690,"Delta":23884816},{"NoteNumber":74,"Velocity":69,"Duration":213690,"SoundDuration":213690,"Delta":24098506},{"NoteNumber":50,"Velocity":31,"Duration":213690,"SoundDuration":213690,"Delta":24098506},{"NoteNumber":72,"Velocity":71,"Duration":213690,"SoundDuration":213690,"Delta":24312197},{"NoteNumber":38,"Velocity":36,"Duration":213690,"SoundDuration":213690,"Delta":24312197},{"NoteNumber":78,"Velocity":68,"Duration":219957,"SoundDuration":219957,"Delta":24525887},{"NoteNumber":50,"Velocity":32,"Duration":219957,"SoundDuration":219957,"Delta":24525887},{"NoteNumber":71,"Velocity":71,"Duration":212931,"SoundDuration":212931,"Delta":24745845},{"NoteNumber":38,"Velocity":46,"Duration":212931,"SoundDuration":212931,"Delta":24745845},{"NoteNumber":79,"Velocity":69,"Duration":212932,"SoundDuration":212932,"Delta":24958777},{"NoteNumber":50,"Velocity":32,"Duration":212932,"SoundDuration":212932,"Delta":24958777},{"NoteNumber":81,"Velocity":71,"Duration":104609,"SoundDuration":104609,"Delta":25171709},{"NoteNumber":38,"Velocity":40,"Duration":209219,"SoundDuration":209219,"Delta":25171709},{"NoteNumber":79,"Velocity":68,"Duration":104609,"SoundDuration":104609,"Delta":25276318},{"NoteNumber":78,"Velocity":68,"Duration":104609,"SoundDuration":104609,"Delta":25380928},{"NoteNumber":50,"Velocity":33,"Duration":209219,"SoundDuration":209219,"Delta":25380928},{"NoteNumber":79,"Velocity":68,"Duration":104609,"SoundDuration":104609,"Delta":25485538},{"NoteNumber":83,"Velocity":78,"Duration":217564,"SoundDuration":217564,"Delta":25590148},{"NoteNumber":38,"Velocity":46,"Duration":217564,"SoundDuration":217564,"Delta":25590148},{"NoteNumber":79,"Velocity":71,"Duration":217564,"SoundDuration":217564,"Delta":25807712},{"NoteNumber":50,"Velocity":32,"Duration":217564,"SoundDuration":217564,"Delta":25807712},{"NoteNumber":76,"Velocity":77,"Duration":217564,"SoundDuration":217564,"Delta":26025277},{"NoteNumber":38,"Velocity":38,"Duration":217564,"SoundDuration":217564,"Delta":26025277},{"NoteNumber":85,"Velocity":71,"Duration":226603,"SoundDuration":226603,"Delta":26242841},{"NoteNumber":50,"Velocity":34,"Duration":226603,"SoundDuration":226603,"Delta":26242841},{"NoteNumber":78,"Velocity":73,"Duration":646535,"SoundDuration":646535,"Delta":26469444},{"NoteNumber":86,"Velocity":82,"Duration":646535,"SoundDuration":646535,"Delta":26469444},{"NoteNumber":50,"Velocity":63,"Duration":213690,"SoundDuration":213690,"Delta":26469444},{"NoteNumber":54,"Velocity":42,"Duration":213690,"SoundDuration":213690,"Delta":26683135},{"NoteNumber":57,"Velocity":42,"Duration":219153,"SoundDuration":219153,"Delta":26896825},{"NoteNumber":86,"Velocity":69,"Duration":213690,"SoundDuration":213690,"Delta":27115979},{"NoteNumber":62,"Velocity":41,"Duration":213690,"SoundDuration":213690,"Delta":27115979},{"NoteNumber":80,"Velocity":77,"Duration":106845,"SoundDuration":106845,"Delta":27329670},{"NoteNumber":59,"Velocity":41,"Duration":213690,"SoundDuration":213690,"Delta":27329670},{"NoteNumber":80,"Velocity":73,"Duration":106845,"SoundDuration":106845,"Delta":27543360},{"NoteNumber":62,"Velocity":40,"Duration":213690,"SoundDuration":213690,"Delta":27543360},{"NoteNumber":83,"Velocity":71,"Duration":103885,"SoundDuration":103885,"Delta":27757051},{"NoteNumber":57,"Velocity":49,"Duration":207770,"SoundDuration":207770,"Delta":27757051},{"NoteNumber":81,"Velocity":61,"Duration":103885,"SoundDuration":103885,"Delta":27860936},{"NoteNumber":80,"Velocity":65,"Duration":111201,"SoundDuration":111201,"Delta":27964821},{"NoteNumber":62,"Velocity":41,"Duration":222403,"SoundDuration":222403,"Delta":27964821},{"NoteNumber":81,"Velocity":62,"Duration":111201,"SoundDuration":111201,"Delta":28076023},{"NoteNumber":83,"Velocity":71,"Duration":213690,"SoundDuration":213690,"Delta":28187225},{"NoteNumber":56,"Velocity":63,"Duration":213690,"SoundDuration":213690,"Delta":28187225},{"NoteNumber":62,"Velocity":32,"Duration":213690,"SoundDuration":213690,"Delta":28400915},{"NoteNumber":52,"Velocity":38,"Duration":219153,"SoundDuration":219153,"Delta":28614606},{"NoteNumber":86,"Velocity":69,"Duration":213690,"SoundDuration":213690,"Delta":28833760},{"NoteNumber":62,"Velocity":32,"Duration":213690,"SoundDuration":213690,"Delta":28833760},{"NoteNumber":80,"Velocity":77,"Duration":106845,"SoundDuration":106845,"Delta":29047450},{"NoteNumber":59,"Velocity":41,"Duration":213690,"SoundDuration":213690,"Delta":29047450},{"NoteNumber":80,"Velocity":73,"Duration":106845,"SoundDuration":106845,"Delta":29261141},{"NoteNumber":62,"Velocity":40,"Duration":213690,"SoundDuration":213690,"Delta":29261141},{"NoteNumber":83,"Velocity":71,"Duration":103885,"SoundDuration":103885,"Delta":29474831},{"NoteNumber":57,"Velocity":49,"Duration":207770,"SoundDuration":207770,"Delta":29474831},{"NoteNumber":81,"Velocity":61,"Duration":103885,"SoundDuration":103885,"Delta":29578716},{"NoteNumber":80,"Velocity":65,"Duration":112875,"SoundDuration":112875,"Delta":29682602},{"NoteNumber":62,"Velocity":41,"Duration":225750,"SoundDuration":225750,"Delta":29682602},{"NoteNumber":81,"Velocity":62,"Duration":112875,"SoundDuration":112875,"Delta":29795477},{"NoteNumber":83,"Velocity":71,"Duration":219957,"SoundDuration":219957,"Delta":29908352},{"NoteNumber":56,"Velocity":63,"Duration":219957,"SoundDuration":219957,"Delta":29908352},{"NoteNumber":62,"Velocity":32,"Duration":215616,"SoundDuration":215616,"Delta":30128310},{"NoteNumber":52,"Velocity":39,"Duration":433378,"SoundDuration":433378,"Delta":30343926},{"NoteNumber":83,"Velocity":59,"Duration":107112,"SoundDuration":107112,"Delta":30563080},{"NoteNumber":85,"Velocity":59,"Duration":107112,"SoundDuration":107112,"Delta":30670192},{"NoteNumber":86,"Velocity":65,"Duration":109106,"SoundDuration":109106,"Delta":30777304},{"NoteNumber":85,"Velocity":61,"Duration":109106,"SoundDuration":109106,"Delta":30886411},{"NoteNumber":83,"Velocity":61,"Duration":109106,"SoundDuration":109106,"Delta":30995518},{"NoteNumber":85,"Velocity":61,"Duration":109106,"SoundDuration":109106,"Delta":31104625},{"NoteNumber":86,"Velocity":65,"Duration":109106,"SoundDuration":109106,"Delta":31213731},{"NoteNumber":85,"Velocity":61,"Duration":109106,"SoundDuration":109106,"Delta":31322838},{"NoteNumber":83,"Velocity":61,"Duration":109106,"SoundDuration":109106,"Delta":31431945},{"NoteNumber":85,"Velocity":61,"Duration":109106,"SoundDuration":109106,"Delta":31541052},{"NoteNumber":86,"Velocity":65,"Duration":108313,"SoundDuration":108313,"Delta":31650158},{"NoteNumber":40,"Velocity":63,"Duration":108313,"SoundDuration":108313,"Delta":31650158},{"NoteNumber":85,"Velocity":61,"Duration":108154,"SoundDuration":108154,"Delta":31758472},{"NoteNumber":83,"Velocity":61,"Duration":107889,"SoundDuration":107889,"Delta":31866626},{"NoteNumber":52,"Velocity":56,"Duration":107889,"SoundDuration":107889,"Delta":31866626},{"NoteNumber":85,"Velocity":61,"Duration":107503,"SoundDuration":107503,"Delta":31974515},{"NoteNumber":86,"Velocity":65,"Duration":107226,"SoundDuration":107226,"Delta":32082019},{"NoteNumber":40,"Velocity":63,"Duration":107226,"SoundDuration":107226,"Delta":32082019},{"NoteNumber":85,"Velocity":61,"Duration":106966,"SoundDuration":106966,"Delta":32189245},{"NoteNumber":83,"Velocity":61,"Duration":106707,"SoundDuration":106707,"Delta":32296212},{"NoteNumber":52,"Velocity":56,"Duration":106707,"SoundDuration":106707,"Delta":32296212},{"NoteNumber":85,"Velocity":61,"Duration":113362,"SoundDuration":113362,"Delta":32402919},{"NoteNumber":86,"Velocity":66,"Duration":107835,"SoundDuration":107835,"Delta":32516282},{"NoteNumber":42,"Velocity":63,"Duration":107835,"SoundDuration":107835,"Delta":32516282},{"NoteNumber":85,"Velocity":62,"Duration":107461,"SoundDuration":107461,"Delta":32624117},{"NoteNumber":83,"Velocity":61,"Duration":107096,"SoundDuration":107096,"Delta":32731579},{"NoteNumber":54,"Velocity":57,"Duration":107096,"SoundDuration":107096,"Delta":32731579},{"NoteNumber":81,"Velocity":61,"Duration":106723,"SoundDuration":106723,"Delta":32838675},{"NoteNumber":80,"Velocity":59,"Duration":106347,"SoundDuration":106347,"Delta":32945398},{"NoteNumber":44,"Velocity":63,"Duration":106347,"SoundDuration":106347,"Delta":32945398},{"NoteNumber":78,"Velocity":58,"Duration":105989,"SoundDuration":105989,"Delta":33051745},{"NoteNumber":76,"Velocity":57,"Duration":105634,"SoundDuration":105634,"Delta":33157735},{"NoteNumber":56,"Velocity":57,"Duration":105634,"SoundDuration":105634,"Delta":33157735},{"NoteNumber":74,"Velocity":55,"Duration":105281,"SoundDuration":105281,"Delta":33263370},{"NoteNumber":73,"Velocity":61,"Duration":106685,"SoundDuration":106685,"Delta":33368652},{"NoteNumber":45,"Velocity":63,"Duration":106685,"SoundDuration":106685,"Delta":33368652},{"NoteNumber":69,"Velocity":55,"Duration":106723,"SoundDuration":106723,"Delta":33475337},{"NoteNumber":71,"Velocity":55,"Duration":106723,"SoundDuration":106723,"Delta":33582060},{"NoteNumber":57,"Velocity":56,"Duration":106723,"SoundDuration":106723,"Delta":33582060},{"NoteNumber":73,"Velocity":56,"Duration":106723,"SoundDuration":106723,"Delta":33688784},{"NoteNumber":74,"Velocity":56,"Duration":106723,"SoundDuration":106723,"Delta":33795507},{"NoteNumber":45,"Velocity":63,"Duration":106723,"SoundDuration":106723,"Delta":33795507},{"NoteNumber":76,"Velocity":56,"Duration":106723,"SoundDuration":106723,"Delta":33902231},{"NoteNumber":78,"Velocity":60,"Duration":106723,"SoundDuration":106723,"Delta":34008954},{"NoteNumber":57,"Velocity":56,"Duration":106723,"SoundDuration":106723,"Delta":34008954},{"NoteNumber":80,"Velocity":62,"Duration":118352,"SoundDuration":118352,"Delta":34115678},{"NoteNumber":81,"Velocity":63,"Duration":216606,"SoundDuration":216606,"Delta":34234030},{"NoteNumber":54,"Velocity":63,"Duration":216606,"SoundDuration":216606,"Delta":34234030},{"NoteNumber":69,"Velocity":56,"Duration":215415,"SoundDuration":215415,"Delta":34450637},{"NoteNumber":57,"Velocity":55,"Duration":215415,"SoundDuration":215415,"Delta":34450637},{"NoteNumber":71,"Velocity":63,"Duration":106337,"SoundDuration":106337,"Delta":34666052},{"NoteNumber":54,"Velocity":63,"Duration":212675,"SoundDuration":212675,"Delta":34666052},{"NoteNumber":69,"Velocity":57,"Duration":106337,"SoundDuration":106337,"Delta":34772390},{"NoteNumber":68,"Velocity":57,"Duration":106337,"SoundDuration":106337,"Delta":34878728},{"NoteNumber":57,"Velocity":56,"Duration":243511,"SoundDuration":243511,"Delta":34878728},{"NoteNumber":69,"Velocity":57,"Duration":137174,"SoundDuration":137174,"Delta":34985066},{"NoteNumber":81,"Velocity":63,"Duration":216606,"SoundDuration":216606,"Delta":35122240},{"NoteNumber":49,"Velocity":63,"Duration":216606,"SoundDuration":216606,"Delta":35122240},{"NoteNumber":69,"Velocity":56,"Duration":216606,"SoundDuration":216606,"Delta":35338846},{"NoteNumber":57,"Velocity":55,"Duration":216606,"SoundDuration":216606,"Delta":35338846},{"NoteNumber":71,"Velocity":63,"Duration":106337,"SoundDuration":106337,"Delta":35555453},{"NoteNumber":49,"Velocity":63,"Duration":212675,"SoundDuration":212675,"Delta":35555453},{"NoteNumber":69,"Velocity":57,"Duration":106337,"SoundDuration":106337,"Delta":35661791},{"NoteNumber":68,"Velocity":57,"Duration":106337,"SoundDuration":106337,"Delta":35768128},{"NoteNumber":57,"Velocity":56,"Duration":232866,"SoundDuration":232866,"Delta":35768128},{"NoteNumber":69,"Velocity":57,"Duration":126528,"SoundDuration":126528,"Delta":35874466},{"NoteNumber":81,"Velocity":63,"Duration":216606,"SoundDuration":216606,"Delta":36000995},{"NoteNumber":51,"Velocity":53,"Duration":433213,"SoundDuration":433213,"Delta":36000995},{"NoteNumber":54,"Velocity":63,"Duration":216606,"SoundDuration":216606,"Delta":36000995},{"NoteNumber":69,"Velocity":56,"Duration":216606,"SoundDuration":216606,"Delta":36217602},{"NoteNumber":57,"Velocity":55,"Duration":216606,"SoundDuration":216606,"Delta":36217602},{"NoteNumber":71,"Velocity":63,"Duration":106337,"SoundDuration":106337,"Delta":36434208},{"NoteNumber":51,"Velocity":53,"Duration":437365,"SoundDuration":437365,"Delta":36434208},{"NoteNumber":54,"Velocity":63,"Duration":212675,"SoundDuration":212675,"Delta":36434208},{"NoteNumber":69,"Velocity":57,"Duration":106337,"SoundDuration":106337,"Delta":36540546},{"NoteNumber":68,"Velocity":57,"Duration":106337,"SoundDuration":106337,"Delta":36646884},{"NoteNumber":57,"Velocity":56,"Duration":224690,"SoundDuration":224690,"Delta":36646884},{"NoteNumber":69,"Velocity":57,"Duration":118352,"SoundDuration":118352,"Delta":36753221},{"NoteNumber":68,"Velocity":67,"Duration":115553,"SoundDuration":115553,"Delta":36871574},{"NoteNumber":52,"Velocity":68,"Duration":115553,"SoundDuration":115553,"Delta":36871574},{"NoteNumber":68,"Velocity":60,"Duration":113765,"SoundDuration":113765,"Delta":37333788},{"NoteNumber":71,"Velocity":60,"Duration":113765,"SoundDuration":113765,"Delta":37333788},{"NoteNumber":76,"Velocity":72,"Duration":113765,"SoundDuration":113765,"Delta":37333788},{"NoteNumber":40,"Velocity":53,"Duration":113765,"SoundDuration":113765,"Delta":37333788},{"NoteNumber":52,"Velocity":63,"Duration":113765,"SoundDuration":113765,"Delta":37333788},{"NoteNumber":76,"Velocity":74,"Duration":127075,"SoundDuration":127075,"Delta":37788851},{"NoteNumber":71,"Velocity":63,"Duration":127075,"SoundDuration":127075,"Delta":37788851},{"NoteNumber":68,"Velocity":63,"Duration":127075,"SoundDuration":127075,"Delta":37788851},{"NoteNumber":40,"Velocity":53,"Duration":127075,"SoundDuration":127075,"Delta":37788851},{"NoteNumber":52,"Velocity":63,"Duration":127075,"SoundDuration":127075,"Delta":37788851},{"NoteNumber":74,"Velocity":50,"Duration":227531,"SoundDuration":227531,"Delta":38297153},{"NoteNumber":73,"Velocity":46,"Duration":227531,"SoundDuration":227531,"Delta":38524684},{"NoteNumber":71,"Velocity":50,"Duration":341297,"SoundDuration":341297,"Delta":38752216},{"NoteNumber":62,"Velocity":31,"Duration":227531,"SoundDuration":227531,"Delta":38752216},{"NoteNumber":64,"Velocity":24,"Duration":227531,"SoundDuration":227531,"Delta":38979747},{"NoteNumber":71,"Velocity":47,"Duration":461413,"SoundDuration":461413,"Delta":39207279},{"NoteNumber":62,"Velocity":31,"Duration":227531,"SoundDuration":227531,"Delta":39207279},{"NoteNumber":64,"Velocity":26,"Duration":233881,"SoundDuration":233881,"Delta":39434810},{"NoteNumber":76,"Velocity":50,"Duration":453308,"SoundDuration":453308,"Delta":39668692},{"NoteNumber":62,"Velocity":31,"Duration":226654,"SoundDuration":226654,"Delta":39668692},{"NoteNumber":64,"Velocity":25,"Duration":226654,"SoundDuration":226654,"Delta":39895346},{"NoteNumber":68,"Velocity":46,"Duration":467251,"SoundDuration":467251,"Delta":40122001},{"NoteNumber":62,"Velocity":31,"Duration":226654,"SoundDuration":226654,"Delta":40122001},{"NoteNumber":64,"Velocity":28,"Duration":240596,"SoundDuration":240596,"Delta":40348655},{"NoteNumber":71,"Velocity":50,"Duration":894790,"SoundDuration":894790,"Delta":40589252},{"NoteNumber":61,"Velocity":31,"Duration":227531,"SoundDuration":227531,"Delta":40589252},{"NoteNumber":64,"Velocity":18,"Duration":223197,"SoundDuration":223197,"Delta":40816783},{"NoteNumber":61,"Velocity":20,"Duration":217407,"SoundDuration":217407,"Delta":41039981},{"NoteNumber":64,"Velocity":15,"Duration":226654,"SoundDuration":226654,"Delta":41257388},{"NoteNumber":69,"Velocity":44,"Duration":454624,"SoundDuration":454624,"Delta":41484042},{"NoteNumber":61,"Velocity":31,"Duration":227092,"SoundDuration":227092,"Delta":41484042},{"NoteNumber":64,"Velocity":23,"Duration":227531,"SoundDuration":227531,"Delta":41711135},{"NoteNumber":71,"Velocity":51,"Duration":220685,"SoundDuration":220685,"Delta":41938667},{"NoteNumber":61,"Velocity":33,"Duration":220685,"SoundDuration":220685,"Delta":41938667},{"NoteNumber":73,"Velocity":52,"Duration":235756,"SoundDuration":235756,"Delta":42159352},{"NoteNumber":64,"Velocity":30,"Duration":235756,"SoundDuration":235756,"Delta":42159352},{"NoteNumber":74,"Velocity":60,"Duration":342622,"SoundDuration":342622,"Delta":42395109},{"NoteNumber":59,"Velocity":38,"Duration":228414,"SoundDuration":228414,"Delta":42395109},{"NoteNumber":64,"Velocity":24,"Duration":228414,"SoundDuration":228414,"Delta":42623524},{"NoteNumber":74,"Velocity":47,"Duration":459522,"SoundDuration":459522,"Delta":42851939},{"NoteNumber":52,"Velocity":31,"Duration":228415,"SoundDuration":228415,"Delta":42851939},{"NoteNumber":64,"Velocity":26,"Duration":231107,"SoundDuration":231107,"Delta":43080354},{"NoteNumber":73,"Velocity":50,"Duration":455063,"SoundDuration":455063,"Delta":43311461},{"NoteNumber":57,"Velocity":31,"Duration":227531,"SoundDuration":227531,"Delta":43311461},{"NoteNumber":64,"Velocity":25,"Duration":227531,"SoundDuration":227531,"Delta":43538992},{"NoteNumber":73,"Velocity":46,"Duration":468128,"SoundDuration":468128,"Delta":43766524},{"NoteNumber":52,"Velocity":31,"Duration":227531,"SoundDuration":227531,"Delta":43766524},{"NoteNumber":64,"Velocity":28,"Duration":240596,"SoundDuration":240596,"Delta":43994055},{"NoteNumber":71,"Velocity":54,"Duration":223197,"SoundDuration":223197,"Delta":44234652},{"NoteNumber":56,"Velocity":31,"Duration":223197,"SoundDuration":223197,"Delta":44234652},{"NoteNumber":64,"Velocity":23,"Duration":249812,"SoundDuration":249812,"Delta":44457849},{"NoteNumber":76,"Velocity":49,"Duration":896341,"SoundDuration":896341,"Delta":44707662},{"NoteNumber":52,"Velocity":30,"Duration":226654,"SoundDuration":226654,"Delta":44707662},{"NoteNumber":64,"Velocity":24,"Duration":226654,"SoundDuration":226654,"Delta":44934316},{"NoteNumber":56,"Velocity":31,"Duration":221516,"SoundDuration":221516,"Delta":45160971},{"NoteNumber":64,"Velocity":23,"Duration":221516,"SoundDuration":221516,"Delta":45382487},{"NoteNumber":74,"Velocity":50,"Duration":221516,"SoundDuration":221516,"Delta":45604004},{"NoteNumber":59,"Velocity":31,"Duration":221516,"SoundDuration":221516,"Delta":45604004},{"NoteNumber":73,"Velocity":46,"Duration":232036,"SoundDuration":232036,"Delta":45825520},{"NoteNumber":64,"Velocity":23,"Duration":232036,"SoundDuration":232036,"Delta":45825520},{"NoteNumber":71,"Velocity":50,"Duration":339981,"SoundDuration":339981,"Delta":46057557},{"NoteNumber":62,"Velocity":31,"Duration":226654,"SoundDuration":226654,"Delta":46057557},{"NoteNumber":64,"Velocity":24,"Duration":226654,"SoundDuration":226654,"Delta":46284211},{"NoteNumber":71,"Velocity":47,"Duration":446395,"SoundDuration":446395,"Delta":46510866},{"NoteNumber":62,"Velocity":31,"Duration":223197,"SoundDuration":223197,"Delta":46510866},{"NoteNumber":64,"Velocity":26,"Duration":223197,"SoundDuration":223197,"Delta":46734063},{"NoteNumber":76,"Velocity":50,"Duration":453308,"SoundDuration":453308,"Delta":46957261},{"NoteNumber":62,"Velocity":31,"Duration":226654,"SoundDuration":226654,"Delta":46957261},{"NoteNumber":64,"Velocity":25,"Duration":226654,"SoundDuration":226654,"Delta":47183915},{"NoteNumber":68,"Velocity":46,"Duration":467251,"SoundDuration":467251,"Delta":47410570},{"NoteNumber":62,"Velocity":31,"Duration":226654,"SoundDuration":226654,"Delta":47410570},{"NoteNumber":64,"Velocity":28,"Duration":240596,"SoundDuration":240596,"Delta":47637224},{"NoteNumber":71,"Velocity":50,"Duration":894888,"SoundDuration":894888,"Delta":47877821},{"NoteNumber":61,"Velocity":31,"Duration":227531,"SoundDuration":227531,"Delta":47877821},{"NoteNumber":64,"Velocity":23,"Duration":219025,"SoundDuration":219025,"Delta":48105352},{"NoteNumber":61,"Velocity":24,"Duration":219025,"SoundDuration":219025,"Delta":48324378},{"NoteNumber":64,"Velocity":19,"Duration":229304,"SoundDuration":229304,"Delta":48543404},{"NoteNumber":69,"Velocity":44,"Duration":453308,"SoundDuration":453308,"Delta":48772709},{"NoteNumber":61,"Velocity":31,"Duration":226654,"SoundDuration":226654,"Delta":48772709},{"NoteNumber":64,"Velocity":23,"Duration":226654,"SoundDuration":226654,"Delta":48999364},{"NoteNumber":81,"Velocity":50,"Duration":221516,"SoundDuration":221516,"Delta":49226018},{"NoteNumber":61,"Velocity":31,"Duration":221516,"SoundDuration":221516,"Delta":49226018},{"NoteNumber":76,"Velocity":46,"Duration":235756,"SoundDuration":235756,"Delta":49447535},{"NoteNumber":64,"Velocity":23,"Duration":235756,"SoundDuration":235756,"Delta":49447535},{"NoteNumber":73,"Velocity":50,"Duration":339981,"SoundDuration":339981,"Delta":49683291},{"NoteNumber":52,"Velocity":31,"Duration":226654,"SoundDuration":226654,"Delta":49683291},{"NoteNumber":64,"Velocity":24,"Duration":224925,"SoundDuration":224925,"Delta":49909946},{"NoteNumber":73,"Velocity":47,"Duration":673049,"SoundDuration":673049,"Delta":50134872},{"NoteNumber":57,"Velocity":31,"Duration":223197,"SoundDuration":223197,"Delta":50134872},{"NoteNumber":64,"Velocity":26,"Duration":223197,"SoundDuration":223197,"Delta":50358069},{"NoteNumber":52,"Velocity":31,"Duration":226654,"SoundDuration":226654,"Delta":50581267},{"NoteNumber":76,"Velocity":50,"Duration":226654,"SoundDuration":226654,"Delta":50807921},{"NoteNumber":64,"Velocity":25,"Duration":226654,"SoundDuration":226654,"Delta":50807921},{"NoteNumber":74,"Velocity":46,"Duration":226654,"SoundDuration":226654,"Delta":51034576},{"NoteNumber":56,"Velocity":31,"Duration":226654,"SoundDuration":226654,"Delta":51034576},{"NoteNumber":71,"Velocity":44,"Duration":240596,"SoundDuration":240596,"Delta":51261230},{"NoteNumber":64,"Velocity":28,"Duration":240596,"SoundDuration":240596,"Delta":51261230},{"NoteNumber":69,"Velocity":54,"Duration":105954,"SoundDuration":105954,"Delta":51501827},{"NoteNumber":57,"Velocity":34,"Duration":423819,"SoundDuration":423819,"Delta":51501827},{"NoteNumber":61,"Velocity":40,"Duration":423819,"SoundDuration":423819,"Delta":51501827},{"NoteNumber":71,"Velocity":46,"Duration":105954,"SoundDuration":105954,"Delta":51607782},{"NoteNumber":69,"Velocity":53,"Duration":105954,"SoundDuration":105954,"Delta":51713736},{"NoteNumber":71,"Velocity":46,"Duration":105954,"SoundDuration":105954,"Delta":51819691},{"NoteNumber":73,"Velocity":57,"Duration":52977,"SoundDuration":52977,"Delta":51925646},{"NoteNumber":69,"Velocity":51,"Duration":57103,"SoundDuration":57103,"Delta":52137555},{"NoteNumber":66,"Velocity":54,"Duration":107503,"SoundDuration":107503,"Delta":52365970},{"NoteNumber":57,"Velocity":26,"Duration":107503,"SoundDuration":107503,"Delta":52365970},{"NoteNumber":62,"Velocity":31,"Duration":107503,"SoundDuration":107503,"Delta":52365970},{"NoteNumber":69,"Velocity":46,"Duration":106723,"SoundDuration":106723,"Delta":52473474},{"NoteNumber":66,"Velocity":53,"Duration":106723,"SoundDuration":106723,"Delta":52580198},{"NoteNumber":69,"Velocity":46,"Duration":106723,"SoundDuration":106723,"Delta":52686921},{"NoteNumber":68,"Velocity":55,"Duration":106723,"SoundDuration":106723,"Delta":52793645},{"NoteNumber":59,"Velocity":31,"Duration":106723,"SoundDuration":106723,"Delta":52793645},{"NoteNumber":57,"Velocity":26,"Duration":106723,"SoundDuration":106723,"Delta":52793645},{"NoteNumber":71,"Velocity":46,"Duration":106723,"SoundDuration":106723,"Delta":52900368},{"NoteNumber":68,"Velocity":53,"Duration":114207,"SoundDuration":114207,"Delta":53007092},{"NoteNumber":71,"Velocity":46,"Duration":114207,"SoundDuration":114207,"Delta":53121299},{"NoteNumber":69,"Velocity":54,"Duration":105954,"SoundDuration":105954,"Delta":53235507},{"NoteNumber":57,"Velocity":34,"Duration":423819,"SoundDuration":423819,"Delta":53235507},{"NoteNumber":61,"Velocity":40,"Duration":423819,"SoundDuration":423819,"Delta":53235507},{"NoteNumber":71,"Velocity":46,"Duration":105954,"SoundDuration":105954,"Delta":53341461},{"NoteNumber":69,"Velocity":53,"Duration":105954,"SoundDuration":105954,"Delta":53447416},{"NoteNumber":71,"Velocity":46,"Duration":105954,"SoundDuration":105954,"Delta":53553371},{"NoteNumber":73,"Velocity":57,"Duration":52977,"SoundDuration":52977,"Delta":53659326},{"NoteNumber":69,"Velocity":51,"Duration":57103,"SoundDuration":57103,"Delta":53871235},{"NoteNumber":66,"Velocity":54,"Duration":107503,"SoundDuration":107503,"Delta":54099650},{"NoteNumber":57,"Velocity":26,"Duration":107503,"SoundDuration":107503,"Delta":54099650},{"NoteNumber":62,"Velocity":31,"Duration":107503,"SoundDuration":107503,"Delta":54099650},{"NoteNumber":69,"Velocity":46,"Duration":106723,"SoundDuration":106723,"Delta":54207154},{"NoteNumber":66,"Velocity":53,"Duration":106723,"SoundDuration":106723,"Delta":54313877},{"NoteNumber":69,"Velocity":46,"Duration":106723,"SoundDuration":106723,"Delta":54420601},{"NoteNumber":68,"Velocity":55,"Duration":109106,"SoundDuration":109106,"Delta":54527324},{"NoteNumber":59,"Velocity":31,"Duration":109106,"SoundDuration":109106,"Delta":54527324},{"NoteNumber":57,"Velocity":26,"Duration":109106,"SoundDuration":109106,"Delta":54527324},{"NoteNumber":71,"Velocity":46,"Duration":109106,"SoundDuration":109106,"Delta":54636431},{"NoteNumber":68,"Velocity":53,"Duration":114207,"SoundDuration":114207,"Delta":54745538},{"NoteNumber":71,"Velocity":46,"Duration":119610,"SoundDuration":119610,"Delta":54859745},{"NoteNumber":69,"Velocity":56,"Duration":112431,"SoundDuration":112431,"Delta":54979356},{"NoteNumber":57,"Velocity":34,"Duration":440379,"SoundDuration":440379,"Delta":54979356},{"NoteNumber":61,"Velocity":40,"Duration":440379,"SoundDuration":440379,"Delta":54979356},{"NoteNumber":71,"Velocity":53,"Duration":110347,"SoundDuration":110347,"Delta":55091787},{"NoteNumber":73,"Velocity":55,"Duration":108659,"SoundDuration":108659,"Delta":55202134},{"NoteNumber":74,"Velocity":56,"Duration":108942,"SoundDuration":108942,"Delta":55310793},{"NoteNumber":76,"Velocity":58,"Duration":108460,"SoundDuration":108460,"Delta":55419735},{"NoteNumber":78,"Velocity":58,"Duration":107978,"SoundDuration":107978,"Delta":55528195},{"NoteNumber":80,"Velocity":58,"Duration":107422,"SoundDuration":107422,"Delta":55636174},{"NoteNumber":81,"Velocity":62,"Duration":120792,"SoundDuration":120792,"Delta":55743596},{"NoteNumber":69,"Velocity":71,"Duration":109106,"SoundDuration":109106,"Delta":55864389},{"NoteNumber":42,"Velocity":55,"Duration":218213,"SoundDuration":218213,"Delta":55864389},{"NoteNumber":54,"Velocity":65,"Duration":218213,"SoundDuration":218213,"Delta":55864389},{"NoteNumber":71,"Velocity":71,"Duration":109106,"SoundDuration":109106,"Delta":55973496},{"NoteNumber":73,"Velocity":71,"Duration":109106,"SoundDuration":109106,"Delta":56082602},{"NoteNumber":74,"Velocity":72,"Duration":109049,"SoundDuration":109049,"Delta":56191709},{"NoteNumber":76,"Velocity":73,"Duration":108703,"SoundDuration":108703,"Delta":56300759},{"NoteNumber":54,"Velocity":57,"Duration":217403,"SoundDuration":217403,"Delta":56300759},{"NoteNumber":42,"Velocity":48,"Duration":217403,"SoundDuration":217403,"Delta":56300759},{"NoteNumber":78,"Velocity":74,"Duration":108700,"SoundDuration":108700,"Delta":56409462},{"NoteNumber":80,"Velocity":77,"Duration":108303,"SoundDuration":108303,"Delta":56518162},{"NoteNumber":81,"Velocity":78,"Duration":120408,"SoundDuration":120408,"Delta":56626466},{"NoteNumber":78,"Velocity":82,"Duration":108757,"SoundDuration":108757,"Delta":56746874},{"NoteNumber":38,"Velocity":54,"Duration":217945,"SoundDuration":217945,"Delta":56746874},{"NoteNumber":50,"Velocity":64,"Duration":217945,"SoundDuration":217945,"Delta":56746874},{"NoteNumber":76,"Velocity":78,"Duration":109187,"SoundDuration":109187,"Delta":56855632},{"NoteNumber":74,"Velocity":78,"Duration":109567,"SoundDuration":109567,"Delta":56964820},{"NoteNumber":73,"Velocity":74,"Duration":110006,"SoundDuration":110006,"Delta":57074387},{"NoteNumber":71,"Velocity":71,"Duration":110398,"SoundDuration":110398,"Delta":57184393},{"NoteNumber":50,"Velocity":56,"Duration":221240,"SoundDuration":221240,"Delta":57184393},{"NoteNumber":38,"Velocity":47,"Duration":221240,"SoundDuration":221240,"Delta":57184393},{"NoteNumber":69,"Velocity":70,"Duration":110841,"SoundDuration":110841,"Delta":57294792},{"NoteNumber":68,"Velocity":73,"Duration":111233,"SoundDuration":111233,"Delta":57405634},{"NoteNumber":66,"Velocity":72,"Duration":111683,"SoundDuration":111683,"Delta":57516867},{"NoteNumber":64,"Velocity":81,"Duration":117407,"SoundDuration":117407,"Delta":57628551},{"NoteNumber":52,"Velocity":66,"Duration":117407,"SoundDuration":117407,"Delta":57628551},{"NoteNumber":40,"Velocity":56,"Duration":117407,"SoundDuration":117407,"Delta":57628551},{"NoteNumber":62,"Velocity":62,"Duration":117407,"SoundDuration":117407,"Delta":58098182},{"NoteNumber":64,"Velocity":62,"Duration":117407,"SoundDuration":117407,"Delta":58098182},{"NoteNumber":68,"Velocity":73,"Duration":117407,"SoundDuration":117407,"Delta":58098182},{"NoteNumber":40,"Velocity":47,"Duration":117407,"SoundDuration":117407,"Delta":58098182},{"NoteNumber":52,"Velocity":56,"Duration":117407,"SoundDuration":117407,"Delta":58098182},{"NoteNumber":69,"Velocity":43,"Duration":105954,"SoundDuration":105954,"Delta":58567813},{"NoteNumber":45,"Velocity":27,"Duration":423819,"SoundDuration":423819,"Delta":58567813},{"NoteNumber":57,"Velocity":32,"Duration":423819,"SoundDuration":423819,"Delta":58567813},{"NoteNumber":73,"Velocity":36,"Duration":105954,"SoundDuration":105954,"Delta":58673767},{"NoteNumber":76,"Velocity":42,"Duration":105954,"SoundDuration":105954,"Delta":58779722},{"NoteNumber":74,"Velocity":36,"Duration":105954,"SoundDuration":105954,"Delta":58885677},{"NoteNumber":73,"Velocity":45,"Duration":105954,"SoundDuration":105954,"Delta":58991632},{"NoteNumber":71,"Velocity":42,"Duration":105954,"SoundDuration":105954,"Delta":59097586},{"NoteNumber":69,"Velocity":40,"Duration":114207,"SoundDuration":114207,"Delta":59203541},{"NoteNumber":68,"Velocity":37,"Duration":114207,"SoundDuration":114207,"Delta":59317749},{"NoteNumber":66,"Velocity":43,"Duration":107503,"SoundDuration":107503,"Delta":59431956},{"NoteNumber":57,"Velocity":20,"Duration":107503,"SoundDuration":107503,"Delta":59431956},{"NoteNumber":62,"Velocity":24,"Duration":107503,"SoundDuration":107503,"Delta":59431956},{"NoteNumber":69,"Velocity":36,"Duration":106723,"SoundDuration":106723,"Delta":59539460},{"NoteNumber":66,"Velocity":42,"Duration":106723,"SoundDuration":106723,"Delta":59646183},{"NoteNumber":69,"Velocity":36,"Duration":106723,"SoundDuration":106723,"Delta":59752907},{"NoteNumber":68,"Velocity":44,"Duration":106723,"SoundDuration":106723,"Delta":59859630},{"NoteNumber":59,"Velocity":24,"Duration":106723,"SoundDuration":106723,"Delta":59859630},{"NoteNumber":57,"Velocity":20,"Duration":106723,"SoundDuration":106723,"Delta":59859630},{"NoteNumber":71,"Velocity":36,"Duration":106723,"SoundDuration":106723,"Delta":59966354},{"NoteNumber":68,"Velocity":42,"Duration":114207,"SoundDuration":114207,"Delta":60073077},{"NoteNumber":71,"Velocity":36,"Duration":114207,"SoundDuration":114207,"Delta":60187285},{"NoteNumber":69,"Velocity":43,"Duration":105954,"SoundDuration":105954,"Delta":60301492},{"NoteNumber":57,"Velocity":27,"Duration":423819,"SoundDuration":423819,"Delta":60301492},{"NoteNumber":61,"Velocity":32,"Duration":423819,"SoundDuration":423819,"Delta":60301492},{"NoteNumber":73,"Velocity":36,"Duration":105954,"SoundDuration":105954,"Delta":60407447},{"NoteNumber":76,"Velocity":42,"Duration":105954,"SoundDuration":105954,"Delta":60513402},{"NoteNumber":74,"Velocity":36,"Duration":105954,"SoundDuration":105954,"Delta":60619357},{"NoteNumber":73,"Velocity":45,"Duration":105954,"SoundDuration":105954,"Delta":60725311},{"NoteNumber":71,"Velocity":42,"Duration":105954,"SoundDuration":105954,"Delta":60831266},{"NoteNumber":69,"Velocity":40,"Duration":114207,"SoundDuration":114207,"Delta":60937221},{"NoteNumber":68,"Velocity":37,"Duration":114207,"SoundDuration":114207,"Delta":61051428},{"NoteNumber":66,"Velocity":43,"Duration":107503,"SoundDuration":107503,"Delta":61165636},{"NoteNumber":57,"Velocity":20,"Duration":107503,"SoundDuration":107503,"Delta":61165636},{"NoteNumber":62,"Velocity":24,"Duration":107503,"SoundDuration":107503,"Delta":61165636},{"NoteNumber":69,"Velocity":36,"Duration":106723,"SoundDuration":106723,"Delta":61273140},{"NoteNumber":66,"Velocity":42,"Duration":106723,"SoundDuration":106723,"Delta":61379863},{"NoteNumber":69,"Velocity":36,"Duration":106723,"SoundDuration":106723,"Delta":61486587},{"NoteNumber":68,"Velocity":44,"Duration":106723,"SoundDuration":106723,"Delta":61593310},{"NoteNumber":59,"Velocity":24,"Duration":106723,"SoundDuration":106723,"Delta":61593310},{"NoteNumber":57,"Velocity":20,"Duration":106723,"SoundDuration":106723,"Delta":61593310},{"NoteNumber":71,"Velocity":36,"Duration":106723,"SoundDuration":106723,"Delta":61700034},{"NoteNumber":68,"Velocity":42,"Duration":114207,"SoundDuration":114207,"Delta":61806757},{"NoteNumber":71,"Velocity":36,"Duration":114207,"SoundDuration":114207,"Delta":61920965},{"NoteNumber":69,"Velocity":52,"Duration":109106,"SoundDuration":109106,"Delta":62035172},{"NoteNumber":57,"Velocity":27,"Duration":436369,"SoundDuration":436369,"Delta":62035172},{"NoteNumber":61,"Velocity":32,"Duration":436369,"SoundDuration":436369,"Delta":62035172},{"NoteNumber":71,"Velocity":53,"Duration":109106,"SoundDuration":109106,"Delta":62144279},{"NoteNumber":73,"Velocity":54,"Duration":109106,"SoundDuration":109106,"Delta":62253386},{"NoteNumber":74,"Velocity":56,"Duration":109049,"SoundDuration":109049,"Delta":62362492},{"NoteNumber":76,"Velocity":59,"Duration":108703,"SoundDuration":108703,"Delta":62471542},{"NoteNumber":78,"Velocity":62,"Duration":108700,"SoundDuration":108700,"Delta":62580246},{"NoteNumber":80,"Velocity":65,"Duration":108303,"SoundDuration":108303,"Delta":62688946},{"NoteNumber":81,"Velocity":68,"Duration":120408,"SoundDuration":120408,"Delta":62797249},{"NoteNumber":78,"Velocity":75,"Duration":108757,"SoundDuration":108757,"Delta":62917658},{"NoteNumber":38,"Velocity":58,"Duration":217945,"SoundDuration":217945,"Delta":62917658},{"NoteNumber":76,"Velocity":71,"Duration":109188,"SoundDuration":109188,"Delta":63026415},{"NoteNumber":74,"Velocity":74,"Duration":109567,"SoundDuration":109567,"Delta":63135603},{"NoteNumber":50,"Velocity":50,"Duration":219573,"SoundDuration":219573,"Delta":63135603},{"NoteNumber":73,"Velocity":72,"Duration":110006,"SoundDuration":110006,"Delta":63245170},{"NoteNumber":71,"Velocity":70,"Duration":110398,"SoundDuration":110398,"Delta":63355177},{"NoteNumber":38,"Velocity":55,"Duration":221240,"SoundDuration":221240,"Delta":63355177},{"NoteNumber":69,"Velocity":71,"Duration":110841,"SoundDuration":110841,"Delta":63465575},{"NoteNumber":68,"Velocity":76,"Duration":111233,"SoundDuration":111233,"Delta":63576417},{"NoteNumber":50,"Velocity":48,"Duration":222917,"SoundDuration":222917,"Delta":63576417},{"NoteNumber":66,"Velocity":77,"Duration":111683,"SoundDuration":111683,"Delta":63687650},{"NoteNumber":64,"Velocity":85,"Duration":227531,"SoundDuration":227531,"Delta":63799334},{"NoteNumber":40,"Velocity":57,"Duration":227531,"SoundDuration":227531,"Delta":63799334},{"NoteNumber":73,"Velocity":72,"Duration":113765,"SoundDuration":113765,"Delta":64026866},{"NoteNumber":69,"Velocity":72,"Duration":113765,"SoundDuration":113765,"Delta":64026866},{"NoteNumber":52,"Velocity":49,"Duration":113765,"SoundDuration":113765,"Delta":64026866},{"NoteNumber":73,"Velocity":80,"Duration":113765,"SoundDuration":113765,"Delta":64254397},{"NoteNumber":69,"Velocity":80,"Duration":113765,"SoundDuration":113765,"Delta":64254397},{"NoteNumber":40,"Velocity":57,"Duration":113765,"SoundDuration":113765,"Delta":64254397},{"NoteNumber":69,"Velocity":72,"Duration":120298,"SoundDuration":120298,"Delta":64481929},{"NoteNumber":73,"Velocity":72,"Duration":120298,"SoundDuration":120298,"Delta":64481929},{"NoteNumber":52,"Velocity":49,"Duration":120298,"SoundDuration":120298,"Delta":64481929},{"NoteNumber":73,"Velocity":80,"Duration":227531,"SoundDuration":227531,"Delta":64722525},{"NoteNumber":69,"Velocity":80,"Duration":227531,"SoundDuration":227531,"Delta":64722525},{"NoteNumber":40,"Velocity":57,"Duration":227531,"SoundDuration":227531,"Delta":64722525},{"NoteNumber":74,"Velocity":72,"Duration":113765,"SoundDuration":113765,"Delta":64950057},{"NoteNumber":71,"Velocity":72,"Duration":113765,"SoundDuration":113765,"Delta":64950057},{"NoteNumber":52,"Velocity":49,"Duration":113765,"SoundDuration":113765,"Delta":64950057},{"NoteNumber":71,"Velocity":80,"Duration":113765,"SoundDuration":113765,"Delta":65177588},{"NoteNumber":68,"Velocity":80,"Duration":113765,"SoundDuration":113765,"Delta":65177588},{"NoteNumber":40,"Velocity":57,"Duration":113765,"SoundDuration":113765,"Delta":65177588},{"NoteNumber":68,"Velocity":72,"Duration":113765,"SoundDuration":113765,"Delta":65405120},{"NoteNumber":71,"Velocity":72,"Duration":113765,"SoundDuration":113765,"Delta":65405120},{"NoteNumber":52,"Velocity":49,"Duration":113765,"SoundDuration":113765,"Delta":65405120},{"NoteNumber":69,"Velocity":83,"Duration":238644,"SoundDuration":238644,"Delta":65632651},{"NoteNumber":45,"Velocity":57,"Duration":238644,"SoundDuration":238644,"Delta":65632651},{"NoteNumber":57,"Velocity":52,"Duration":238644,"SoundDuration":238644,"Delta":65871296},{"NoteNumber":76,"Velocity":79,"Duration":125439,"SoundDuration":125439,"Delta":66109940},{"NoteNumber":73,"Velocity":79,"Duration":125439,"SoundDuration":125439,"Delta":66109940},{"NoteNumber":69,"Velocity":79,"Duration":125439,"SoundDuration":125439,"Delta":66109940},{"NoteNumber":81,"Velocity":79,"Duration":125439,"SoundDuration":125439,"Delta":66109940},{"NoteNumber":52,"Velocity":57,"Duration":250878,"SoundDuration":250878,"Delta":66109940},{"NoteNumber":49,"Velocity":51,"Duration":250878,"SoundDuration":250878,"Delta":66360818},{"NoteNumber":81,"Velocity":79,"Duration":125439,"SoundDuration":125439,"Delta":66611696},{"NoteNumber":76,"Velocity":79,"Duration":125439,"SoundDuration":125439,"Delta":66611696},{"NoteNumber":73,"Velocity":79,"Duration":125439,"SoundDuration":125439,"Delta":66611696},{"NoteNumber":69,"Velocity":79,"Duration":125439,"SoundDuration":125439,"Delta":66611696},{"NoteNumber":45,"Velocity":62,"Duration":125439,"SoundDuration":125439,"Delta":66611696},{"NoteNumber":71,"Velocity":50,"Duration":102256,"SoundDuration":102256,"Delta":67377601},{"NoteNumber":69,"Velocity":46,"Duration":102256,"SoundDuration":102256,"Delta":67479857},{"NoteNumber":68,"Velocity":46,"Duration":112452,"SoundDuration":112452,"Delta":67582114},{"NoteNumber":69,"Velocity":46,"Duration":112452,"SoundDuration":112452,"Delta":67694566},{"NoteNumber":74,"Velocity":55,"Duration":651212,"SoundDuration":651212,"Delta":67807018},{"NoteNumber":50,"Velocity":32,"Duration":219957,"SoundDuration":219957,"Delta":67807018},{"NoteNumber":57,"Velocity":26,"Duration":217564,"SoundDuration":217564,"Delta":68026976},{"NoteNumber":54,"Velocity":26,"Duration":213690,"SoundDuration":213690,"Delta":68244540},{"NoteNumber":69,"Velocity":42,"Duration":213690,"SoundDuration":213690,"Delta":68458231},{"NoteNumber":57,"Velocity":26,"Duration":213690,"SoundDuration":213690,"Delta":68458231},{"NoteNumber":66,"Velocity":46,"Duration":213690,"SoundDuration":213690,"Delta":68671921},{"NoteNumber":50,"Velocity":30,"Duration":213690,"SoundDuration":213690,"Delta":68671921},{"NoteNumber":69,"Velocity":43,"Duration":213690,"SoundDuration":213690,"Delta":68885612},{"NoteNumber":57,"Velocity":28,"Duration":213690,"SoundDuration":213690,"Delta":68885612},{"NoteNumber":74,"Velocity":46,"Duration":213690,"SoundDuration":213690,"Delta":69099302},{"NoteNumber":54,"Velocity":28,"Duration":213690,"SoundDuration":213690,"Delta":69099302},{"NoteNumber":78,"Velocity":46,"Duration":171899,"SoundDuration":171899,"Delta":69312993},{"NoteNumber":57,"Velocity":28,"Duration":229200,"SoundDuration":229200,"Delta":69312993},{"NoteNumber":69,"Velocity":45,"Duration":57300,"SoundDuration":57300,"Delta":69484893},{"NoteNumber":81,"Velocity":54,"Duration":644464,"SoundDuration":644464,"Delta":69542193},{"NoteNumber":50,"Velocity":37,"Duration":213842,"SoundDuration":213842,"Delta":69542193},{"NoteNumber":57,"Velocity":26,"Duration":213842,"SoundDuration":213842,"Delta":69756036},{"NoteNumber":54,"Velocity":26,"Duration":216778,"SoundDuration":216778,"Delta":69969879},{"NoteNumber":78,"Velocity":40,"Duration":104975,"SoundDuration":104975,"Delta":70186657},{"NoteNumber":57,"Velocity":26,"Duration":209951,"SoundDuration":209951,"Delta":70186657},{"NoteNumber":74,"Velocity":40,"Duration":104975,"SoundDuration":104975,"Delta":70291633},{"NoteNumber":69,"Velocity":47,"Duration":106845,"SoundDuration":106845,"Delta":70396609},{"NoteNumber":50,"Velocity":31,"Duration":213690,"SoundDuration":213690,"Delta":70396609},{"NoteNumber":57,"Velocity":27,"Duration":213690,"SoundDuration":213690,"Delta":70610299},{"NoteNumber":74,"Velocity":45,"Duration":104246,"SoundDuration":104246,"Delta":70823990},{"NoteNumber":54,"Velocity":27,"Duration":208492,"SoundDuration":208492,"Delta":70823990},{"NoteNumber":76,"Velocity":40,"Duration":104246,"SoundDuration":104246,"Delta":70928236},{"NoteNumber":74,"Velocity":40,"Duration":104246,"SoundDuration":104246,"Delta":71032482},{"NoteNumber":57,"Velocity":27,"Duration":208492,"SoundDuration":208492,"Delta":71032482},{"NoteNumber":73,"Velocity":41,"Duration":104246,"SoundDuration":104246,"Delta":71136729},{"NoteNumber":71,"Velocity":48,"Duration":108389,"SoundDuration":108389,"Delta":71240975},{"NoteNumber":50,"Velocity":32,"Duration":216778,"SoundDuration":216778,"Delta":71240975},{"NoteNumber":59,"Velocity":26,"Duration":216778,"SoundDuration":216778,"Delta":71457753},{"NoteNumber":74,"Velocity":45,"Duration":104975,"SoundDuration":104975,"Delta":71674532},{"NoteNumber":55,"Velocity":26,"Duration":209951,"SoundDuration":209951,"Delta":71674532},{"NoteNumber":76,"Velocity":39,"Duration":104975,"SoundDuration":104975,"Delta":71779508},{"NoteNumber":74,"Velocity":40,"Duration":104975,"SoundDuration":104975,"Delta":71884483},{"NoteNumber":59,"Velocity":26,"Duration":209951,"SoundDuration":209951,"Delta":71884483},{"NoteNumber":73,"Velocity":41,"Duration":104975,"SoundDuration":104975,"Delta":71989459},{"NoteNumber":71,"Velocity":46,"Duration":107999,"SoundDuration":107999,"Delta":72094435},{"NoteNumber":50,"Velocity":31,"Duration":215998,"SoundDuration":215998,"Delta":72094435},{"NoteNumber":59,"Velocity":27,"Duration":215998,"SoundDuration":215998,"Delta":72310433},{"NoteNumber":86,"Velocity":48,"Duration":107999,"SoundDuration":107999,"Delta":72526432},{"NoteNumber":55,"Velocity":27,"Duration":214088,"SoundDuration":214088,"Delta":72526432},{"NoteNumber":83,"Velocity":40,"Duration":106089,"SoundDuration":106089,"Delta":72634431},{"NoteNumber":86,"Velocity":44,"Duration":106089,"SoundDuration":106089,"Delta":72740521},{"NoteNumber":59,"Velocity":27,"Duration":212179,"SoundDuration":212179,"Delta":72740521},{"NoteNumber":83,"Velocity":40,"Duration":106089,"SoundDuration":106089,"Delta":72846610},{"NoteNumber":81,"Velocity":50,"Duration":106089,"SoundDuration":106089,"Delta":72952700},{"NoteNumber":50,"Velocity":37,"Duration":212934,"SoundDuration":212934,"Delta":72952700},{"NoteNumber":86,"Velocity":51,"Duration":106845,"SoundDuration":106845,"Delta":73058789},{"NoteNumber":85,"Velocity":48,"Duration":106845,"SoundDuration":106845,"Delta":73165634},{"NoteNumber":57,"Velocity":26,"Duration":213349,"SoundDuration":213349,"Delta":73165634},{"NoteNumber":83,"Velocity":46,"Duration":106504,"SoundDuration":106504,"Delta":73272480},{"NoteNumber":81,"Velocity":48,"Duration":106891,"SoundDuration":106891,"Delta":73378984},{"NoteNumber":54,"Velocity":26,"Duration":216820,"SoundDuration":216820,"Delta":73378984},{"NoteNumber":79,"Velocity":43,"Duration":109928,"SoundDuration":109928,"Delta":73485876},{"NoteNumber":78,"Velocity":43,"Duration":114599,"SoundDuration":114599,"Delta":73595804},{"NoteNumber":57,"Velocity":26,"Duration":229200,"SoundDuration":229200,"Delta":73595804},{"NoteNumber":76,"Velocity":42,"Duration":114600,"SoundDuration":114600,"Delta":73710404},{"NoteNumber":74,"Velocity":48,"Duration":431996,"SoundDuration":431996,"Delta":73825004},{"NoteNumber":54,"Velocity":31,"Duration":215998,"SoundDuration":215998,"Delta":73825004},{"NoteNumber":57,"Velocity":21,"Duration":215998,"SoundDuration":215998,"Delta":74041003},{"NoteNumber":50,"Velocity":22,"Duration":215998,"SoundDuration":215998,"Delta":74257001},{"NoteNumber":66,"Velocity":41,"Duration":215998,"SoundDuration":215998,"Delta":74473000},{"NoteNumber":57,"Velocity":22,"Duration":215998,"SoundDuration":215998,"Delta":74473000},{"NoteNumber":67,"Velocity":46,"Duration":109178,"SoundDuration":109178,"Delta":74688998},{"NoteNumber":49,"Velocity":29,"Duration":218356,"SoundDuration":218356,"Delta":74688998},{"NoteNumber":67,"Velocity":41,"Duration":109178,"SoundDuration":109178,"Delta":74907355},{"NoteNumber":57,"Velocity":24,"Duration":214235,"SoundDuration":214235,"Delta":74907355},{"NoteNumber":69,"Velocity":50,"Duration":105056,"SoundDuration":105056,"Delta":75121590},{"NoteNumber":52,"Velocity":24,"Duration":210113,"SoundDuration":210113,"Delta":75121590},{"NoteNumber":67,"Velocity":41,"Duration":105056,"SoundDuration":105056,"Delta":75226647},{"NoteNumber":66,"Velocity":42,"Duration":114599,"SoundDuration":114599,"Delta":75331703},{"NoteNumber":57,"Velocity":24,"Duration":229200,"SoundDuration":229200,"Delta":75331703},{"NoteNumber":67,"Velocity":48,"Duration":114600,"SoundDuration":114600,"Delta":75446303},{"NoteNumber":76,"Velocity":56,"Duration":647995,"SoundDuration":647995,"Delta":75560903},{"NoteNumber":49,"Velocity":31,"Duration":215998,"SoundDuration":215998,"Delta":75560903},{"NoteNumber":57,"Velocity":27,"Duration":215998,"SoundDuration":215998,"Delta":75776902},{"NoteNumber":52,"Velocity":27,"Duration":215998,"SoundDuration":215998,"Delta":75992900},{"NoteNumber":67,"Velocity":40,"Duration":215998,"SoundDuration":215998,"Delta":76208899},{"NoteNumber":57,"Velocity":27,"Duration":215998,"SoundDuration":215998,"Delta":76208899},{"NoteNumber":66,"Velocity":46,"Duration":109178,"SoundDuration":109178,"Delta":76424897},{"NoteNumber":50,"Velocity":32,"Duration":218356,"SoundDuration":218356,"Delta":76424897},{"NoteNumber":66,"Velocity":40,"Duration":109178,"SoundDuration":109178,"Delta":76643254},{"NoteNumber":57,"Velocity":23,"Duration":218356,"SoundDuration":218356,"Delta":76643254},{"NoteNumber":67,"Velocity":50,"Duration":105425,"SoundDuration":105425,"Delta":76861610},{"NoteNumber":54,"Velocity":23,"Duration":210852,"SoundDuration":210852,"Delta":76861610},{"NoteNumber":66,"Velocity":40,"Duration":105426,"SoundDuration":105426,"Delta":76967036},{"NoteNumber":64,"Velocity":46,"Duration":113826,"SoundDuration":113826,"Delta":77072462},{"NoteNumber":57,"Velocity":23,"Duration":227652,"SoundDuration":227652,"Delta":77072462},{"NoteNumber":66,"Velocity":48,"Duration":113826,"SoundDuration":113826,"Delta":77186288},{"NoteNumber":74,"Velocity":56,"Duration":647995,"SoundDuration":647995,"Delta":77300114},{"NoteNumber":50,"Velocity":31,"Duration":215998,"SoundDuration":215998,"Delta":77300114},{"NoteNumber":57,"Velocity":27,"Duration":215998,"SoundDuration":215998,"Delta":77516113},{"NoteNumber":54,"Velocity":27,"Duration":215998,"SoundDuration":215998,"Delta":77732111},{"NoteNumber":66,"Velocity":40,"Duration":215998,"SoundDuration":215998,"Delta":77948110},{"NoteNumber":57,"Velocity":27,"Duration":215998,"SoundDuration":215998,"Delta":77948110},{"NoteNumber":66,"Velocity":47,"Duration":219154,"SoundDuration":219154,"Delta":78164108},{"NoteNumber":43,"Velocity":32,"Duration":884064,"SoundDuration":884064,"Delta":78164108},{"NoteNumber":55,"Velocity":32,"Duration":884064,"SoundDuration":884064,"Delta":78164108},{"NoteNumber":64,"Velocity":37,"Duration":219154,"SoundDuration":219154,"Delta":78383262},{"NoteNumber":67,"Velocity":40,"Duration":219153,"SoundDuration":219153,"Delta":78602416},{"NoteNumber":71,"Velocity":37,"Duration":226602,"SoundDuration":226602,"Delta":78821570},{"NoteNumber":71,"Velocity":45,"Duration":216778,"SoundDuration":216778,"Delta":79048173},{"NoteNumber":45,"Velocity":32,"Duration":886489,"SoundDuration":886489,"Delta":79048173},{"NoteNumber":57,"Velocity":32,"Duration":886489,"SoundDuration":886489,"Delta":79048173},{"NoteNumber":61,"Velocity":37,"Duration":216778,"SoundDuration":216778,"Delta":79264952},{"NoteNumber":64,"Velocity":40,"Duration":218356,"SoundDuration":218356,"Delta":79481730},{"NoteNumber":69,"Velocity":37,"Duration":234576,"SoundDuration":234576,"Delta":79700087},{"NoteNumber":67,"Velocity":45,"Duration":883103,"SoundDuration":883103,"Delta":79934663},{"NoteNumber":64,"Velocity":45,"Duration":883103,"SoundDuration":883103,"Delta":79934663},{"NoteNumber":38,"Velocity":31,"Duration":219957,"SoundDuration":219957,"Delta":80154621},{"NoteNumber":42,"Velocity":32,"Duration":219957,"SoundDuration":219957,"Delta":80374578},{"NoteNumber":45,"Velocity":34,"Duration":223230,"SoundDuration":223230,"Delta":80594536},{"NoteNumber":62,"Velocity":40,"Duration":440346,"SoundDuration":440346,"Delta":80817767},{"NoteNumber":66,"Velocity":40,"Duration":440346,"SoundDuration":440346,"Delta":80817767},{"NoteNumber":50,"Velocity":36,"Duration":221192,"SoundDuration":221192,"Delta":80817767},{"NoteNumber":45,"Velocity":31,"Duration":219154,"SoundDuration":219154,"Delta":81038959},{"NoteNumber":38,"Velocity":32,"Duration":219153,"SoundDuration":219153,"Delta":81258113},{"NoteNumber":66,"Velocity":40,"Duration":219021,"SoundDuration":219021,"Delta":81477267},{"NoteNumber":50,"Velocity":31,"Duration":219021,"SoundDuration":219021,"Delta":81477267},{"NoteNumber":67,"Velocity":46,"Duration":109046,"SoundDuration":109046,"Delta":81696288},{"NoteNumber":49,"Velocity":43,"Duration":217697,"SoundDuration":217697,"Delta":81696288},{"NoteNumber":64,"Velocity":37,"Duration":108651,"SoundDuration":108651,"Delta":81805335},{"NoteNumber":66,"Velocity":38,"Duration":108259,"SoundDuration":108259,"Delta":81913986},{"NoteNumber":57,"Velocity":36,"Duration":216129,"SoundDuration":216129,"Delta":81913986},{"NoteNumber":67,"Velocity":39,"Duration":107870,"SoundDuration":107870,"Delta":82022245},{"NoteNumber":69,"Velocity":46,"Duration":107483,"SoundDuration":107483,"Delta":82130115},{"NoteNumber":52,"Velocity":40,"Duration":214456,"SoundDuration":214456,"Delta":82130115},{"NoteNumber":71,"Velocity":39,"Duration":106972,"SoundDuration":106972,"Delta":82237599},{"NoteNumber":73,"Velocity":39,"Duration":106341,"SoundDuration":106341,"Delta":82344571},{"NoteNumber":57,"Velocity":36,"Duration":212430,"SoundDuration":212430,"Delta":82344571},{"NoteNumber":74,"Velocity":40,"Duration":106089,"SoundDuration":106089,"Delta":82450913},{"NoteNumber":76,"Velocity":48,"Duration":106089,"SoundDuration":106089,"Delta":82557002},{"NoteNumber":49,"Velocity":46,"Duration":212178,"SoundDuration":212178,"Delta":82557002},{"NoteNumber":74,"Velocity":40,"Duration":106089,"SoundDuration":106089,"Delta":82663092},{"NoteNumber":73,"Velocity":41,"Duration":106089,"SoundDuration":106089,"Delta":82769181},{"NoteNumber":57,"Velocity":36,"Duration":212179,"SoundDuration":212179,"Delta":82769181},{"NoteNumber":71,"Velocity":42,"Duration":106089,"SoundDuration":106089,"Delta":82875271},{"NoteNumber":69,"Velocity":48,"Duration":106089,"SoundDuration":106089,"Delta":82981360},{"NoteNumber":52,"Velocity":39,"Duration":212178,"SoundDuration":212178,"Delta":82981360},{"NoteNumber":67,"Velocity":41,"Duration":106089,"SoundDuration":106089,"Delta":83087450},{"NoteNumber":66,"Velocity":41,"Duration":117288,"SoundDuration":117288,"Delta":83193539},{"NoteNumber":57,"Velocity":36,"Duration":234576,"SoundDuration":234576,"Delta":83193539},{"NoteNumber":64,"Velocity":41,"Duration":117288,"SoundDuration":117288,"Delta":83310827},{"NoteNumber":66,"Velocity":49,"Duration":107611,"SoundDuration":107611,"Delta":83428116},{"NoteNumber":50,"Velocity":47,"Duration":215223,"SoundDuration":215223,"Delta":83428116},{"NoteNumber":62,"Velocity":40,"Duration":107611,"SoundDuration":107611,"Delta":83535727},{"NoteNumber":64,"Velocity":40,"Duration":107611,"SoundDuration":107611,"Delta":83643339},{"NoteNumber":57,"Velocity":36,"Duration":215223,"SoundDuration":215223,"Delta":83643339},{"NoteNumber":66,"Velocity":42,"Duration":107611,"SoundDuration":107611,"Delta":83750951},{"NoteNumber":67,"Velocity":51,"Duration":107611,"SoundDuration":107611,"Delta":83858563},{"NoteNumber":54,"Velocity":41,"Duration":215223,"SoundDuration":215223,"Delta":83858563},{"NoteNumber":69,"Velocity":42,"Duration":107611,"SoundDuration":107611,"Delta":83966174},{"NoteNumber":71,"Velocity":44,"Duration":107611,"SoundDuration":107611,"Delta":84073786},{"NoteNumber":57,"Velocity":36,"Duration":215223,"SoundDuration":215223,"Delta":84073786},{"NoteNumber":73,"Velocity":46,"Duration":107611,"SoundDuration":107611,"Delta":84181398},{"NoteNumber":74,"Velocity":57,"Duration":108259,"SoundDuration":108259,"Delta":84289010},{"NoteNumber":50,"Velocity":48,"Duration":217892,"SoundDuration":217892,"Delta":84289010},{"NoteNumber":76,"Velocity":47,"Duration":109632,"SoundDuration":109632,"Delta":84397270},{"NoteNumber":78,"Velocity":49,"Duration":110792,"SoundDuration":110792,"Delta":84506902},{"NoteNumber":57,"Velocity":40,"Duration":223078,"SoundDuration":223078,"Delta":84506902},{"NoteNumber":79,"Velocity":48,"Duration":112285,"SoundDuration":112285,"Delta":84617694},{"NoteNumber":81,"Velocity":57,"Duration":113474,"SoundDuration":113474,"Delta":84729980},{"NoteNumber":54,"Velocity":45,"Duration":228515,"SoundDuration":228515,"Delta":84729980},{"NoteNumber":83,"Velocity":57,"Duration":115041,"SoundDuration":115041,"Delta":84843455},{"NoteNumber":85,"Velocity":64,"Duration":116320,"SoundDuration":116320,"Delta":84958496},{"NoteNumber":57,"Velocity":43,"Duration":234349,"SoundDuration":234349,"Delta":84958496},{"NoteNumber":86,"Velocity":69,"Duration":118028,"SoundDuration":118028,"Delta":85074816},{"NoteNumber":55,"Velocity":58,"Duration":884199,"SoundDuration":884199,"Delta":85192845},{"NoteNumber":43,"Velocity":49,"Duration":884199,"SoundDuration":884199,"Delta":85192845},{"NoteNumber":71,"Velocity":54,"Duration":119151,"SoundDuration":119151,"Delta":85311997},{"NoteNumber":76,"Velocity":55,"Duration":108959,"SoundDuration":108959,"Delta":85431149},{"NoteNumber":79,"Velocity":61,"Duration":108941,"SoundDuration":108941,"Delta":85540108},{"NoteNumber":83,"Velocity":65,"Duration":107459,"SoundDuration":107459,"Delta":85649050},{"NoteNumber":81,"Velocity":59,"Duration":106845,"SoundDuration":106845,"Delta":85756509},{"NoteNumber":79,"Velocity":59,"Duration":106845,"SoundDuration":106845,"Delta":85863354},{"NoteNumber":78,"Velocity":55,"Duration":106845,"SoundDuration":106845,"Delta":85970200},{"NoteNumber":76,"Velocity":54,"Duration":106845,"SoundDuration":106845,"Delta":86077045},{"NoteNumber":45,"Velocity":41,"Duration":428915,"SoundDuration":428915,"Delta":86077045},{"NoteNumber":57,"Velocity":49,"Duration":428915,"SoundDuration":428915,"Delta":86077045},{"NoteNumber":74,"Velocity":53,"Duration":106896,"SoundDuration":106896,"Delta":86183890},{"NoteNumber":73,"Velocity":51,"Duration":107355,"SoundDuration":107355,"Delta":86290786},{"NoteNumber":71,"Velocity":51,"Duration":107818,"SoundDuration":107818,"Delta":86398142},{"NoteNumber":69,"Velocity":55,"Duration":108467,"SoundDuration":108467,"Delta":86505960},{"NoteNumber":45,"Velocity":38,"Duration":436937,"SoundDuration":436937,"Delta":86505960},{"NoteNumber":57,"Velocity":45,"Duration":436937,"SoundDuration":436937,"Delta":86505960},{"NoteNumber":67,"Velocity":60,"Duration":108940,"SoundDuration":108940,"Delta":86614428},{"NoteNumber":66,"Velocity":63,"Duration":109550,"SoundDuration":109550,"Delta":86723368},{"NoteNumber":64,"Velocity":65,"Duration":109978,"SoundDuration":109978,"Delta":86832919},{"NoteNumber":62,"Velocity":78,"Duration":644945,"SoundDuration":644945,"Delta":86942898},{"NoteNumber":38,"Velocity":63,"Duration":213690,"SoundDuration":213690,"Delta":86942898},{"NoteNumber":42,"Velocity":50,"Duration":213690,"SoundDuration":213690,"Delta":87156588},{"NoteNumber":45,"Velocity":56,"Duration":217564,"SoundDuration":217564,"Delta":87370279},{"NoteNumber":62,"Velocity":61,"Duration":213690,"SoundDuration":213690,"Delta":87587843},{"NoteNumber":50,"Velocity":50,"Duration":213690,"SoundDuration":213690,"Delta":87587843},{"NoteNumber":61,"Velocity":65,"Duration":213690,"SoundDuration":213690,"Delta":87801534},{"NoteNumber":38,"Velocity":46,"Duration":213690,"SoundDuration":213690,"Delta":87801534},{"NoteNumber":62,"Velocity":63,"Duration":213690,"SoundDuration":213690,"Delta":88015224},{"NoteNumber":50,"Velocity":32,"Duration":213690,"SoundDuration":213690,"Delta":88015224},{"NoteNumber":60,"Velocity":65,"Duration":213690,"SoundDuration":213690,"Delta":88228915},{"NoteNumber":38,"Velocity":39,"Duration":213690,"SoundDuration":213690,"Delta":88228915},{"NoteNumber":66,"Velocity":62,"Duration":219957,"SoundDuration":219957,"Delta":88442605},{"NoteNumber":50,"Velocity":35,"Duration":219957,"SoundDuration":219957,"Delta":88442605},{"NoteNumber":59,"Velocity":65,"Duration":212931,"SoundDuration":212931,"Delta":88662563},{"NoteNumber":38,"Velocity":46,"Duration":212931,"SoundDuration":212931,"Delta":88662563},{"NoteNumber":67,"Velocity":63,"Duration":212932,"SoundDuration":212932,"Delta":88875495},{"NoteNumber":50,"Velocity":32,"Duration":212932,"SoundDuration":212932,"Delta":88875495},{"NoteNumber":69,"Velocity":65,"Duration":104609,"SoundDuration":104609,"Delta":89088427},{"NoteNumber":38,"Velocity":37,"Duration":209219,"SoundDuration":209219,"Delta":89088427},{"NoteNumber":67,"Velocity":62,"Duration":104609,"SoundDuration":104609,"Delta":89193037},{"NoteNumber":66,"Velocity":62,"Duration":104609,"SoundDuration":104609,"Delta":89297646},{"NoteNumber":50,"Velocity":32,"Duration":209219,"SoundDuration":209219,"Delta":89297646},{"NoteNumber":67,"Velocity":62,"Duration":104609,"SoundDuration":104609,"Delta":89402256},{"NoteNumber":71,"Velocity":71,"Duration":216778,"SoundDuration":216778,"Delta":89506866},{"NoteNumber":38,"Velocity":46,"Duration":216778,"SoundDuration":216778,"Delta":89506866},{"NoteNumber":67,"Velocity":65,"Duration":216778,"SoundDuration":216778,"Delta":89723644},{"NoteNumber":50,"Velocity":34,"Duration":216778,"SoundDuration":216778,"Delta":89723644},{"NoteNumber":64,"Velocity":70,"Duration":216778,"SoundDuration":216778,"Delta":89940423},{"NoteNumber":38,"Velocity":39,"Duration":216778,"SoundDuration":216778,"Delta":89940423},{"NoteNumber":73,"Velocity":65,"Duration":241390,"SoundDuration":241390,"Delta":90157201},{"NoteNumber":50,"Velocity":33,"Duration":241390,"SoundDuration":241390,"Delta":90157201},{"NoteNumber":66,"Velocity":73,"Duration":644945,"SoundDuration":644945,"Delta":90398592},{"NoteNumber":74,"Velocity":82,"Duration":644945,"SoundDuration":644945,"Delta":90398592},{"NoteNumber":38,"Velocity":63,"Duration":213690,"SoundDuration":213690,"Delta":90398592},{"NoteNumber":42,"Velocity":50,"Duration":213690,"SoundDuration":213690,"Delta":90612282},{"NoteNumber":45,"Velocity":56,"Duration":217564,"SoundDuration":217564,"Delta":90825973},{"NoteNumber":74,"Velocity":67,"Duration":213690,"SoundDuration":213690,"Delta":91043537},{"NoteNumber":50,"Velocity":50,"Duration":213690,"SoundDuration":213690,"Delta":91043537},{"NoteNumber":73,"Velocity":71,"Duration":213690,"SoundDuration":213690,"Delta":91257228},{"NoteNumber":38,"Velocity":46,"Duration":213690,"SoundDuration":213690,"Delta":91257228},{"NoteNumber":74,"Velocity":69,"Duration":213690,"SoundDuration":213690,"Delta":91470918},{"NoteNumber":50,"Velocity":31,"Duration":213690,"SoundDuration":213690,"Delta":91470918},{"NoteNumber":72,"Velocity":71,"Duration":213690,"SoundDuration":213690,"Delta":91684609},{"NoteNumber":38,"Velocity":38,"Duration":213690,"SoundDuration":213690,"Delta":91684609},{"NoteNumber":78,"Velocity":68,"Duration":219957,"SoundDuration":219957,"Delta":91898299},{"NoteNumber":50,"Velocity":31,"Duration":219957,"SoundDuration":219957,"Delta":91898299},{"NoteNumber":71,"Velocity":71,"Duration":212931,"SoundDuration":212931,"Delta":92118257},{"NoteNumber":38,"Velocity":46,"Duration":212931,"SoundDuration":212931,"Delta":92118257},{"NoteNumber":79,"Velocity":69,"Duration":212932,"SoundDuration":212932,"Delta":92331189},{"NoteNumber":50,"Velocity":31,"Duration":212932,"SoundDuration":212932,"Delta":92331189},{"NoteNumber":81,"Velocity":71,"Duration":104609,"SoundDuration":104609,"Delta":92544121},{"NoteNumber":38,"Velocity":36,"Duration":209219,"SoundDuration":209219,"Delta":92544121},{"NoteNumber":79,"Velocity":68,"Duration":104609,"SoundDuration":104609,"Delta":92648731},{"NoteNumber":78,"Velocity":68,"Duration":104609,"SoundDuration":104609,"Delta":92753340},{"NoteNumber":50,"Velocity":32,"Duration":209219,"SoundDuration":209219,"Delta":92753340},{"NoteNumber":79,"Velocity":68,"Duration":104609,"SoundDuration":104609,"Delta":92857950},{"NoteNumber":83,"Velocity":78,"Duration":217564,"SoundDuration":217564,"Delta":92962560},{"NoteNumber":38,"Velocity":46,"Duration":217564,"SoundDuration":217564,"Delta":92962560},{"NoteNumber":79,"Velocity":71,"Duration":217564,"SoundDuration":217564,"Delta":93180124},{"NoteNumber":50,"Velocity":32,"Duration":217564,"SoundDuration":217564,"Delta":93180124},{"NoteNumber":76,"Velocity":77,"Duration":217564,"SoundDuration":217564,"Delta":93397689},{"NoteNumber":38,"Velocity":37,"Duration":217564,"SoundDuration":217564,"Delta":93397689},{"NoteNumber":85,"Velocity":71,"Duration":226602,"SoundDuration":226602,"Delta":93615253},{"NoteNumber":50,"Velocity":32,"Duration":226602,"SoundDuration":226602,"Delta":93615253},{"NoteNumber":78,"Velocity":73,"Duration":646535,"SoundDuration":646535,"Delta":93841856},{"NoteNumber":86,"Velocity":82,"Duration":646535,"SoundDuration":646535,"Delta":93841856},{"NoteNumber":50,"Velocity":63,"Duration":213690,"SoundDuration":213690,"Delta":93841856},{"NoteNumber":54,"Velocity":42,"Duration":213690,"SoundDuration":213690,"Delta":94055547},{"NoteNumber":57,"Velocity":42,"Duration":219154,"SoundDuration":219154,"Delta":94269237},{"NoteNumber":86,"Velocity":69,"Duration":213690,"SoundDuration":213690,"Delta":94488391},{"NoteNumber":62,"Velocity":41,"Duration":213690,"SoundDuration":213690,"Delta":94488391},{"NoteNumber":80,"Velocity":77,"Duration":106845,"SoundDuration":106845,"Delta":94702082},{"NoteNumber":59,"Velocity":41,"Duration":213690,"SoundDuration":213690,"Delta":94702082},{"NoteNumber":80,"Velocity":73,"Duration":106845,"SoundDuration":106845,"Delta":94915772},{"NoteNumber":62,"Velocity":40,"Duration":213690,"SoundDuration":213690,"Delta":94915772},{"NoteNumber":83,"Velocity":71,"Duration":103885,"SoundDuration":103885,"Delta":95129463},{"NoteNumber":57,"Velocity":49,"Duration":207770,"SoundDuration":207770,"Delta":95129463},{"NoteNumber":81,"Velocity":61,"Duration":103885,"SoundDuration":103885,"Delta":95233348},{"NoteNumber":80,"Velocity":65,"Duration":111201,"SoundDuration":111201,"Delta":95337233},{"NoteNumber":62,"Velocity":41,"Duration":222403,"SoundDuration":222403,"Delta":95337233},{"NoteNumber":81,"Velocity":62,"Duration":111201,"SoundDuration":111201,"Delta":95448435},{"NoteNumber":83,"Velocity":71,"Duration":213690,"SoundDuration":213690,"Delta":95559637},{"NoteNumber":56,"Velocity":63,"Duration":213690,"SoundDuration":213690,"Delta":95559637},{"NoteNumber":62,"Velocity":32,"Duration":213690,"SoundDuration":213690,"Delta":95773327},{"NoteNumber":52,"Velocity":38,"Duration":219154,"SoundDuration":219154,"Delta":95987018},{"NoteNumber":86,"Velocity":69,"Duration":213690,"SoundDuration":213690,"Delta":96206172},{"NoteNumber":62,"Velocity":32,"Duration":213690,"SoundDuration":213690,"Delta":96206172},{"NoteNumber":80,"Velocity":77,"Duration":106845,"SoundDuration":106845,"Delta":96419862},{"NoteNumber":59,"Velocity":41,"Duration":213690,"SoundDuration":213690,"Delta":96419862},{"NoteNumber":80,"Velocity":73,"Duration":106845,"SoundDuration":106845,"Delta":96633553},{"NoteNumber":62,"Velocity":40,"Duration":213690,"SoundDuration":213690,"Delta":96633553},{"NoteNumber":83,"Velocity":71,"Duration":103885,"SoundDuration":103885,"Delta":96847243},{"NoteNumber":57,"Velocity":49,"Duration":207770,"SoundDuration":207770,"Delta":96847243},{"NoteNumber":81,"Velocity":61,"Duration":103885,"SoundDuration":103885,"Delta":96951129},{"NoteNumber":80,"Velocity":65,"Duration":112875,"SoundDuration":112875,"Delta":97055014},{"NoteNumber":62,"Velocity":41,"Duration":225750,"SoundDuration":225750,"Delta":97055014},{"NoteNumber":81,"Velocity":62,"Duration":112875,"SoundDuration":112875,"Delta":97167889},{"NoteNumber":83,"Velocity":71,"Duration":219957,"SoundDuration":219957,"Delta":97280764},{"NoteNumber":56,"Velocity":63,"Duration":219957,"SoundDuration":219957,"Delta":97280764},{"NoteNumber":62,"Velocity":32,"Duration":215616,"SoundDuration":215616,"Delta":97500722},{"NoteNumber":52,"Velocity":39,"Duration":433562,"SoundDuration":433562,"Delta":97716338},{"NoteNumber":83,"Velocity":59,"Duration":107203,"SoundDuration":107203,"Delta":97935492},{"NoteNumber":85,"Velocity":59,"Duration":107204,"SoundDuration":107204,"Delta":98042696},{"NoteNumber":86,"Velocity":65,"Duration":109201,"SoundDuration":109201,"Delta":98149900},{"NoteNumber":85,"Velocity":61,"Duration":109202,"SoundDuration":109202,"Delta":98259102},{"NoteNumber":83,"Velocity":61,"Duration":109201,"SoundDuration":109201,"Delta":98368304},{"NoteNumber":85,"Velocity":61,"Duration":109201,"SoundDuration":109201,"Delta":98477506},{"NoteNumber":86,"Velocity":65,"Duration":109201,"SoundDuration":109201,"Delta":98586708},{"NoteNumber":85,"Velocity":61,"Duration":109202,"SoundDuration":109202,"Delta":98695910},{"NoteNumber":83,"Velocity":61,"Duration":109201,"SoundDuration":109201,"Delta":98805112},{"NoteNumber":85,"Velocity":61,"Duration":109201,"SoundDuration":109201,"Delta":98914314},{"NoteNumber":86,"Velocity":65,"Duration":108399,"SoundDuration":108399,"Delta":99023516},{"NoteNumber":40,"Velocity":63,"Duration":108399,"SoundDuration":108399,"Delta":99023516},{"NoteNumber":85,"Velocity":61,"Duration":108240,"SoundDuration":108240,"Delta":99131916},{"NoteNumber":83,"Velocity":61,"Duration":107974,"SoundDuration":107974,"Delta":99240156},{"NoteNumber":52,"Velocity":56,"Duration":107974,"SoundDuration":107974,"Delta":99240156},{"NoteNumber":85,"Velocity":61,"Duration":107596,"SoundDuration":107596,"Delta":99348130},{"NoteNumber":86,"Velocity":65,"Duration":107318,"SoundDuration":107318,"Delta":99455727},{"NoteNumber":40,"Velocity":63,"Duration":107318,"SoundDuration":107318,"Delta":99455727},{"NoteNumber":85,"Velocity":61,"Duration":107058,"SoundDuration":107058,"Delta":99563045},{"NoteNumber":83,"Velocity":61,"Duration":106798,"SoundDuration":106798,"Delta":99670103},{"NoteNumber":52,"Velocity":56,"Duration":106798,"SoundDuration":106798,"Delta":99670103},{"NoteNumber":85,"Velocity":61,"Duration":113123,"SoundDuration":113123,"Delta":99776902},{"NoteNumber":86,"Velocity":66,"Duration":109365,"SoundDuration":109365,"Delta":99890025},{"NoteNumber":42,"Velocity":63,"Duration":109365,"SoundDuration":109365,"Delta":99890025},{"NoteNumber":85,"Velocity":62,"Duration":108721,"SoundDuration":108721,"Delta":99999391},{"NoteNumber":83,"Velocity":61,"Duration":108182,"SoundDuration":108182,"Delta":100108113},{"NoteNumber":54,"Velocity":57,"Duration":108182,"SoundDuration":108182,"Delta":100108113},{"NoteNumber":81,"Velocity":61,"Duration":107552,"SoundDuration":107552,"Delta":100216295},{"NoteNumber":80,"Velocity":59,"Duration":107024,"SoundDuration":107024,"Delta":100323847},{"NoteNumber":44,"Velocity":63,"Duration":107024,"SoundDuration":107024,"Delta":100323847},{"NoteNumber":78,"Velocity":58,"Duration":106407,"SoundDuration":106407,"Delta":100430872},{"NoteNumber":76,"Velocity":57,"Duration":105891,"SoundDuration":105891,"Delta":100537280},{"NoteNumber":56,"Velocity":57,"Duration":105891,"SoundDuration":105891,"Delta":100537280},{"NoteNumber":74,"Velocity":55,"Duration":105287,"SoundDuration":105287,"Delta":100643171},{"NoteNumber":73,"Velocity":61,"Duration":106770,"SoundDuration":106770,"Delta":100748459},{"NoteNumber":45,"Velocity":63,"Duration":106770,"SoundDuration":106770,"Delta":100748459},{"NoteNumber":69,"Velocity":55,"Duration":106814,"SoundDuration":106814,"Delta":100855230},{"NoteNumber":71,"Velocity":55,"Duration":106814,"SoundDuration":106814,"Delta":100962045},{"NoteNumber":57,"Velocity":56,"Duration":106814,"SoundDuration":106814,"Delta":100962045},{"NoteNumber":73,"Velocity":56,"Duration":106814,"SoundDuration":106814,"Delta":101068859},{"NoteNumber":74,"Velocity":56,"Duration":106814,"SoundDuration":106814,"Delta":101175674},{"NoteNumber":45,"Velocity":63,"Duration":106814,"SoundDuration":106814,"Delta":101175674},{"NoteNumber":76,"Velocity":56,"Duration":106814,"SoundDuration":106814,"Delta":101282489},{"NoteNumber":78,"Velocity":60,"Duration":106814,"SoundDuration":106814,"Delta":101389304},{"NoteNumber":57,"Velocity":56,"Duration":106814,"SoundDuration":106814,"Delta":101389304},{"NoteNumber":80,"Velocity":62,"Duration":118455,"SoundDuration":118455,"Delta":101496118},{"NoteNumber":81,"Velocity":63,"Duration":216778,"SoundDuration":216778,"Delta":101614574},{"NoteNumber":54,"Velocity":63,"Duration":216778,"SoundDuration":216778,"Delta":101614574},{"NoteNumber":69,"Velocity":56,"Duration":215593,"SoundDuration":215593,"Delta":101831352},{"NoteNumber":57,"Velocity":55,"Duration":215593,"SoundDuration":215593,"Delta":101831352},{"NoteNumber":71,"Velocity":63,"Duration":106428,"SoundDuration":106428,"Delta":102046945},{"NoteNumber":54,"Velocity":63,"Duration":212856,"SoundDuration":212856,"Delta":102046945},{"NoteNumber":69,"Velocity":57,"Duration":106428,"SoundDuration":106428,"Delta":102153374},{"NoteNumber":68,"Velocity":57,"Duration":106428,"SoundDuration":106428,"Delta":102259802},{"NoteNumber":57,"Velocity":56,"Duration":243727,"SoundDuration":243727,"Delta":102259802},{"NoteNumber":69,"Velocity":57,"Duration":137299,"SoundDuration":137299,"Delta":102366230},{"NoteNumber":81,"Velocity":63,"Duration":216778,"SoundDuration":216778,"Delta":102503530},{"NoteNumber":49,"Velocity":63,"Duration":216778,"SoundDuration":216778,"Delta":102503530},{"NoteNumber":69,"Velocity":56,"Duration":216778,"SoundDuration":216778,"Delta":102720308},{"NoteNumber":57,"Velocity":55,"Duration":216778,"SoundDuration":216778,"Delta":102720308},{"NoteNumber":71,"Velocity":63,"Duration":106428,"SoundDuration":106428,"Delta":102937087},{"NoteNumber":49,"Velocity":63,"Duration":212856,"SoundDuration":212856,"Delta":102937087},{"NoteNumber":69,"Velocity":57,"Duration":106428,"SoundDuration":106428,"Delta":103043515},{"NoteNumber":68,"Velocity":57,"Duration":106428,"SoundDuration":106428,"Delta":103149943},{"NoteNumber":57,"Velocity":56,"Duration":236546,"SoundDuration":236546,"Delta":103149943},{"NoteNumber":69,"Velocity":57,"Duration":130117,"SoundDuration":130117,"Delta":103256372},{"NoteNumber":81,"Velocity":63,"Duration":216778,"SoundDuration":216778,"Delta":103386490},{"NoteNumber":51,"Velocity":53,"Duration":433556,"SoundDuration":433556,"Delta":103386490},{"NoteNumber":54,"Velocity":63,"Duration":216778,"SoundDuration":216778,"Delta":103386490},{"NoteNumber":69,"Velocity":56,"Duration":216778,"SoundDuration":216778,"Delta":103603268},{"NoteNumber":57,"Velocity":55,"Duration":216778,"SoundDuration":216778,"Delta":103603268},{"NoteNumber":71,"Velocity":63,"Duration":106428,"SoundDuration":106428,"Delta":103820047},{"NoteNumber":51,"Velocity":53,"Duration":437739,"SoundDuration":437739,"Delta":103820047},{"NoteNumber":54,"Velocity":63,"Duration":212856,"SoundDuration":212856,"Delta":103820047},{"NoteNumber":69,"Velocity":57,"Duration":106428,"SoundDuration":106428,"Delta":103926475},{"NoteNumber":68,"Velocity":57,"Duration":106428,"SoundDuration":106428,"Delta":104032903},{"NoteNumber":57,"Velocity":56,"Duration":224883,"SoundDuration":224883,"Delta":104032903},{"NoteNumber":69,"Velocity":57,"Duration":118455,"SoundDuration":118455,"Delta":104139331},{"NoteNumber":68,"Velocity":67,"Duration":115651,"SoundDuration":115651,"Delta":104257787},{"NoteNumber":52,"Velocity":68,"Duration":115651,"SoundDuration":115651,"Delta":104257787},{"NoteNumber":68,"Velocity":60,"Duration":113860,"SoundDuration":113860,"Delta":104720393},{"NoteNumber":71,"Velocity":60,"Duration":113860,"SoundDuration":113860,"Delta":104720393},{"NoteNumber":76,"Velocity":72,"Duration":113860,"SoundDuration":113860,"Delta":104720393},{"NoteNumber":40,"Velocity":53,"Duration":113860,"SoundDuration":113860,"Delta":104720393},{"NoteNumber":52,"Velocity":63,"Duration":113860,"SoundDuration":113860,"Delta":104720393},{"NoteNumber":76,"Velocity":74,"Duration":127183,"SoundDuration":127183,"Delta":105175836},{"NoteNumber":71,"Velocity":63,"Duration":127183,"SoundDuration":127183,"Delta":105175836},{"NoteNumber":68,"Velocity":63,"Duration":127183,"SoundDuration":127183,"Delta":105175836},{"NoteNumber":40,"Velocity":53,"Duration":127183,"SoundDuration":127183,"Delta":105175836},{"NoteNumber":52,"Velocity":63,"Duration":127183,"SoundDuration":127183,"Delta":105175836},{"NoteNumber":74,"Velocity":50,"Duration":227721,"SoundDuration":227721,"Delta":105684569},{"NoteNumber":73,"Velocity":46,"Duration":227721,"SoundDuration":227721,"Delta":105912290},{"NoteNumber":71,"Velocity":50,"Duration":341582,"SoundDuration":341582,"Delta":106140012},{"NoteNumber":62,"Velocity":31,"Duration":227721,"SoundDuration":227721,"Delta":106140012},{"NoteNumber":64,"Velocity":24,"Duration":227721,"SoundDuration":227721,"Delta":106367733},{"NoteNumber":71,"Velocity":47,"Duration":461804,"SoundDuration":461804,"Delta":106595455},{"NoteNumber":62,"Velocity":31,"Duration":227721,"SoundDuration":227721,"Delta":106595455},{"NoteNumber":64,"Velocity":26,"Duration":234082,"SoundDuration":234082,"Delta":106823176},{"NoteNumber":76,"Velocity":50,"Duration":453686,"SoundDuration":453686,"Delta":107057259},{"NoteNumber":62,"Velocity":31,"Duration":226843,"SoundDuration":226843,"Delta":107057259},{"NoteNumber":64,"Velocity":25,"Duration":226843,"SoundDuration":226843,"Delta":107284102},{"NoteNumber":68,"Velocity":46,"Duration":463374,"SoundDuration":463374,"Delta":107510945},{"NoteNumber":62,"Velocity":31,"Duration":222584,"SoundDuration":222584,"Delta":107510945},{"NoteNumber":64,"Velocity":28,"Duration":240790,"SoundDuration":240790,"Delta":107733530},{"NoteNumber":71,"Velocity":50,"Duration":895541,"SoundDuration":895541,"Delta":107974320},{"NoteNumber":61,"Velocity":31,"Duration":227721,"SoundDuration":227721,"Delta":107974320},{"NoteNumber":64,"Velocity":18,"Duration":223380,"SoundDuration":223380,"Delta":108202041},{"NoteNumber":61,"Velocity":20,"Duration":217596,"SoundDuration":217596,"Delta":108425422},{"NoteNumber":64,"Velocity":15,"Duration":226843,"SoundDuration":226843,"Delta":108643018},{"NoteNumber":69,"Velocity":44,"Duration":455003,"SoundDuration":455003,"Delta":108869861},{"NoteNumber":61,"Velocity":31,"Duration":227282,"SoundDuration":227282,"Delta":108869861},{"NoteNumber":64,"Velocity":23,"Duration":227721,"SoundDuration":227721,"Delta":109097143},{"NoteNumber":71,"Velocity":51,"Duration":220864,"SoundDuration":220864,"Delta":109324865},{"NoteNumber":61,"Velocity":33,"Duration":220864,"SoundDuration":220864,"Delta":109324865},{"NoteNumber":73,"Velocity":52,"Duration":235960,"SoundDuration":235960,"Delta":109545729},{"NoteNumber":64,"Velocity":30,"Duration":235960,"SoundDuration":235960,"Delta":109545729},{"NoteNumber":74,"Velocity":60,"Duration":340187,"SoundDuration":340187,"Delta":109781690},{"NoteNumber":59,"Velocity":38,"Duration":226791,"SoundDuration":226791,"Delta":109781690},{"NoteNumber":64,"Velocity":24,"Duration":226791,"SoundDuration":226791,"Delta":110008481},{"NoteNumber":74,"Velocity":47,"Duration":458094,"SoundDuration":458094,"Delta":110235273},{"NoteNumber":52,"Velocity":31,"Duration":226791,"SoundDuration":226791,"Delta":110235273},{"NoteNumber":64,"Velocity":26,"Duration":231302,"SoundDuration":231302,"Delta":110462064},{"NoteNumber":73,"Velocity":50,"Duration":455443,"SoundDuration":455443,"Delta":110693367},{"NoteNumber":57,"Velocity":31,"Duration":227721,"SoundDuration":227721,"Delta":110693367},{"NoteNumber":64,"Velocity":25,"Duration":227721,"SoundDuration":227721,"Delta":110921089},{"NoteNumber":73,"Velocity":46,"Duration":474067,"SoundDuration":474067,"Delta":111148810},{"NoteNumber":52,"Velocity":31,"Duration":227721,"SoundDuration":227721,"Delta":111148810},{"NoteNumber":64,"Velocity":28,"Duration":246346,"SoundDuration":246346,"Delta":111376532},{"NoteNumber":71,"Velocity":54,"Duration":223380,"SoundDuration":223380,"Delta":111622878},{"NoteNumber":56,"Velocity":31,"Duration":223380,"SoundDuration":223380,"Delta":111622878},{"NoteNumber":64,"Velocity":23,"Duration":250021,"SoundDuration":250021,"Delta":111846258},{"NoteNumber":76,"Velocity":49,"Duration":893573,"SoundDuration":893573,"Delta":112096279},{"NoteNumber":52,"Velocity":30,"Duration":225089,"SoundDuration":225089,"Delta":112096279},{"NoteNumber":64,"Velocity":24,"Duration":225090,"SoundDuration":225090,"Delta":112321369},{"NoteNumber":56,"Velocity":31,"Duration":221696,"SoundDuration":221696,"Delta":112546459},{"NoteNumber":64,"Velocity":23,"Duration":221696,"SoundDuration":221696,"Delta":112768156},{"NoteNumber":74,"Velocity":50,"Duration":221696,"SoundDuration":221696,"Delta":112989852},{"NoteNumber":59,"Velocity":31,"Duration":221696,"SoundDuration":221696,"Delta":112989852},{"NoteNumber":73,"Velocity":46,"Duration":232215,"SoundDuration":232215,"Delta":113211549},{"NoteNumber":64,"Velocity":23,"Duration":232215,"SoundDuration":232215,"Delta":113211549},{"NoteNumber":71,"Velocity":50,"Duration":340264,"SoundDuration":340264,"Delta":113443765},{"NoteNumber":62,"Velocity":31,"Duration":226843,"SoundDuration":226843,"Delta":113443765},{"NoteNumber":64,"Velocity":24,"Duration":226843,"SoundDuration":226843,"Delta":113670608},{"NoteNumber":71,"Velocity":47,"Duration":446760,"SoundDuration":446760,"Delta":113897451},{"NoteNumber":62,"Velocity":31,"Duration":223380,"SoundDuration":223380,"Delta":113897451},{"NoteNumber":64,"Velocity":26,"Duration":223380,"SoundDuration":223380,"Delta":114120831},{"NoteNumber":76,"Velocity":50,"Duration":453686,"SoundDuration":453686,"Delta":114344212},{"NoteNumber":62,"Velocity":31,"Duration":226843,"SoundDuration":226843,"Delta":114344212},{"NoteNumber":64,"Velocity":25,"Duration":226843,"SoundDuration":226843,"Delta":114571055},{"NoteNumber":68,"Velocity":46,"Duration":467632,"SoundDuration":467632,"Delta":114797898},{"NoteNumber":62,"Velocity":31,"Duration":226842,"SoundDuration":226842,"Delta":114797898},{"NoteNumber":64,"Velocity":28,"Duration":240790,"SoundDuration":240790,"Delta":115024741},{"NoteNumber":71,"Velocity":50,"Duration":895655,"SoundDuration":895655,"Delta":115265531},{"NoteNumber":61,"Velocity":31,"Duration":227721,"SoundDuration":227721,"Delta":115265531},{"NoteNumber":64,"Velocity":23,"Duration":219217,"SoundDuration":219217,"Delta":115493252},{"NoteNumber":61,"Velocity":24,"Duration":219217,"SoundDuration":219217,"Delta":115712470},{"NoteNumber":64,"Velocity":19,"Duration":229498,"SoundDuration":229498,"Delta":115931688},{"NoteNumber":69,"Velocity":44,"Duration":466306,"SoundDuration":466306,"Delta":116161186},{"NoteNumber":61,"Velocity":31,"Duration":226843,"SoundDuration":226843,"Delta":116161186},{"NoteNumber":64,"Velocity":23,"Duration":239463,"SoundDuration":239463,"Delta":116388029},{"NoteNumber":81,"Velocity":50,"Duration":221696,"SoundDuration":221696,"Delta":116627493},{"NoteNumber":61,"Velocity":31,"Duration":221696,"SoundDuration":221696,"Delta":116627493},{"NoteNumber":76,"Velocity":46,"Duration":235960,"SoundDuration":235960,"Delta":116849189},{"NoteNumber":64,"Velocity":23,"Duration":235960,"SoundDuration":235960,"Delta":116849189},{"NoteNumber":73,"Velocity":50,"Duration":340264,"SoundDuration":340264,"Delta":117085150},{"NoteNumber":52,"Velocity":31,"Duration":226843,"SoundDuration":226843,"Delta":117085150},{"NoteNumber":64,"Velocity":24,"Duration":225111,"SoundDuration":225111,"Delta":117311993},{"NoteNumber":73,"Velocity":47,"Duration":673604,"SoundDuration":673604,"Delta":117537105},{"NoteNumber":57,"Velocity":31,"Duration":223380,"SoundDuration":223380,"Delta":117537105},{"NoteNumber":64,"Velocity":26,"Duration":223380,"SoundDuration":223380,"Delta":117760485},{"NoteNumber":52,"Velocity":31,"Duration":226843,"SoundDuration":226843,"Delta":117983866},{"NoteNumber":76,"Velocity":50,"Duration":226843,"SoundDuration":226843,"Delta":118210709},{"NoteNumber":64,"Velocity":25,"Duration":226843,"SoundDuration":226843,"Delta":118210709},{"NoteNumber":74,"Velocity":46,"Duration":226842,"SoundDuration":226842,"Delta":118437552},{"NoteNumber":56,"Velocity":31,"Duration":226842,"SoundDuration":226842,"Delta":118437552},{"NoteNumber":71,"Velocity":44,"Duration":240790,"SoundDuration":240790,"Delta":118664395},{"NoteNumber":64,"Velocity":28,"Duration":240790,"SoundDuration":240790,"Delta":118664395},{"NoteNumber":69,"Velocity":54,"Duration":106044,"SoundDuration":106044,"Delta":118905185},{"NoteNumber":57,"Velocity":34,"Duration":424177,"SoundDuration":424177,"Delta":118905185},{"NoteNumber":61,"Velocity":40,"Duration":424177,"SoundDuration":424177,"Delta":118905185},{"NoteNumber":71,"Velocity":46,"Duration":106044,"SoundDuration":106044,"Delta":119011229},{"NoteNumber":69,"Velocity":53,"Duration":106044,"SoundDuration":106044,"Delta":119117274},{"NoteNumber":71,"Velocity":46,"Duration":106044,"SoundDuration":106044,"Delta":119223318},{"NoteNumber":73,"Velocity":57,"Duration":53022,"SoundDuration":53022,"Delta":119329363},{"NoteNumber":69,"Velocity":51,"Duration":57151,"SoundDuration":57151,"Delta":119541452},{"NoteNumber":66,"Velocity":54,"Duration":107596,"SoundDuration":107596,"Delta":119770058},{"NoteNumber":57,"Velocity":26,"Duration":107596,"SoundDuration":107596,"Delta":119770058},{"NoteNumber":62,"Velocity":31,"Duration":107596,"SoundDuration":107596,"Delta":119770058},{"NoteNumber":69,"Velocity":46,"Duration":106814,"SoundDuration":106814,"Delta":119877654},{"NoteNumber":66,"Velocity":53,"Duration":106814,"SoundDuration":106814,"Delta":119984469},{"NoteNumber":69,"Velocity":46,"Duration":106814,"SoundDuration":106814,"Delta":120091284},{"NoteNumber":68,"Velocity":55,"Duration":106814,"SoundDuration":106814,"Delta":120198099},{"NoteNumber":59,"Velocity":31,"Duration":106814,"SoundDuration":106814,"Delta":120198099},{"NoteNumber":57,"Velocity":26,"Duration":106814,"SoundDuration":106814,"Delta":120198099},{"NoteNumber":71,"Velocity":46,"Duration":106814,"SoundDuration":106814,"Delta":120304913},{"NoteNumber":68,"Velocity":53,"Duration":114303,"SoundDuration":114303,"Delta":120411728},{"NoteNumber":71,"Velocity":46,"Duration":114303,"SoundDuration":114303,"Delta":120526031},{"NoteNumber":69,"Velocity":54,"Duration":106044,"SoundDuration":106044,"Delta":120640335},{"NoteNumber":57,"Velocity":34,"Duration":424177,"SoundDuration":424177,"Delta":120640335},{"NoteNumber":61,"Velocity":40,"Duration":424177,"SoundDuration":424177,"Delta":120640335},{"NoteNumber":71,"Velocity":46,"Duration":106044,"SoundDuration":106044,"Delta":120746379},{"NoteNumber":69,"Velocity":53,"Duration":106044,"SoundDuration":106044,"Delta":120852424},{"NoteNumber":71,"Velocity":46,"Duration":106044,"SoundDuration":106044,"Delta":120958468},{"NoteNumber":73,"Velocity":57,"Duration":53022,"SoundDuration":53022,"Delta":121064513},{"NoteNumber":69,"Velocity":51,"Duration":57151,"SoundDuration":57151,"Delta":121276602},{"NoteNumber":66,"Velocity":54,"Duration":107596,"SoundDuration":107596,"Delta":121505208},{"NoteNumber":57,"Velocity":26,"Duration":107596,"SoundDuration":107596,"Delta":121505208},{"NoteNumber":62,"Velocity":31,"Duration":107596,"SoundDuration":107596,"Delta":121505208},{"NoteNumber":69,"Velocity":46,"Duration":106814,"SoundDuration":106814,"Delta":121612804},{"NoteNumber":66,"Velocity":53,"Duration":106814,"SoundDuration":106814,"Delta":121719619},{"NoteNumber":69,"Velocity":46,"Duration":106814,"SoundDuration":106814,"Delta":121826434},{"NoteNumber":68,"Velocity":55,"Duration":109201,"SoundDuration":109201,"Delta":121933249},{"NoteNumber":59,"Velocity":31,"Duration":109201,"SoundDuration":109201,"Delta":121933249},{"NoteNumber":57,"Velocity":26,"Duration":109201,"SoundDuration":109201,"Delta":121933249},{"NoteNumber":71,"Velocity":46,"Duration":109202,"SoundDuration":109202,"Delta":122042451},{"NoteNumber":68,"Velocity":53,"Duration":114303,"SoundDuration":114303,"Delta":122151653},{"NoteNumber":71,"Velocity":46,"Duration":119715,"SoundDuration":119715,"Delta":122265956},{"NoteNumber":69,"Velocity":56,"Duration":112528,"SoundDuration":112528,"Delta":122385671},{"NoteNumber":57,"Velocity":34,"Duration":440755,"SoundDuration":440755,"Delta":122385671},{"NoteNumber":61,"Velocity":40,"Duration":440755,"SoundDuration":440755,"Delta":122385671},{"NoteNumber":71,"Velocity":53,"Duration":110439,"SoundDuration":110439,"Delta":122498200},{"NoteNumber":73,"Velocity":55,"Duration":108751,"SoundDuration":108751,"Delta":122608639},{"NoteNumber":74,"Velocity":56,"Duration":109037,"SoundDuration":109037,"Delta":122717390},{"NoteNumber":76,"Velocity":58,"Duration":108549,"SoundDuration":108549,"Delta":122826427},{"NoteNumber":78,"Velocity":58,"Duration":108064,"SoundDuration":108064,"Delta":122934977},{"NoteNumber":80,"Velocity":58,"Duration":107514,"SoundDuration":107514,"Delta":123043041},{"NoteNumber":81,"Velocity":62,"Duration":120899,"SoundDuration":120899,"Delta":123150555},{"NoteNumber":69,"Velocity":71,"Duration":109201,"SoundDuration":109201,"Delta":123271455},{"NoteNumber":42,"Velocity":55,"Duration":218403,"SoundDuration":218403,"Delta":123271455},{"NoteNumber":54,"Velocity":65,"Duration":218403,"SoundDuration":218403,"Delta":123271455},{"NoteNumber":71,"Velocity":71,"Duration":109201,"SoundDuration":109201,"Delta":123380657},{"NoteNumber":73,"Velocity":71,"Duration":109201,"SoundDuration":109201,"Delta":123489859},{"NoteNumber":74,"Velocity":72,"Duration":109144,"SoundDuration":109144,"Delta":123599061},{"NoteNumber":76,"Velocity":73,"Duration":108798,"SoundDuration":108798,"Delta":123708206},{"NoteNumber":54,"Velocity":57,"Duration":217593,"SoundDuration":217593,"Delta":123708206},{"NoteNumber":42,"Velocity":48,"Duration":217593,"SoundDuration":217593,"Delta":123708206},{"NoteNumber":78,"Velocity":74,"Duration":108794,"SoundDuration":108794,"Delta":123817004},{"NoteNumber":80,"Velocity":77,"Duration":108389,"SoundDuration":108389,"Delta":123925799},{"NoteNumber":81,"Velocity":78,"Duration":120508,"SoundDuration":120508,"Delta":124034188},{"NoteNumber":78,"Velocity":82,"Duration":108852,"SoundDuration":108852,"Delta":124154697},{"NoteNumber":38,"Velocity":54,"Duration":218135,"SoundDuration":218135,"Delta":124154697},{"NoteNumber":50,"Velocity":64,"Duration":218135,"SoundDuration":218135,"Delta":124154697},{"NoteNumber":76,"Velocity":78,"Duration":109283,"SoundDuration":109283,"Delta":124263549},{"NoteNumber":74,"Velocity":78,"Duration":109663,"SoundDuration":109663,"Delta":124372832},{"NoteNumber":73,"Velocity":74,"Duration":110101,"SoundDuration":110101,"Delta":124482496},{"NoteNumber":71,"Velocity":71,"Duration":110487,"SoundDuration":110487,"Delta":124592598},{"NoteNumber":50,"Velocity":56,"Duration":221419,"SoundDuration":221419,"Delta":124592598},{"NoteNumber":38,"Velocity":47,"Duration":221419,"SoundDuration":221419,"Delta":124592598},{"NoteNumber":69,"Velocity":70,"Duration":110932,"SoundDuration":110932,"Delta":124703085},{"NoteNumber":68,"Velocity":73,"Duration":111324,"SoundDuration":111324,"Delta":124814017},{"NoteNumber":66,"Velocity":72,"Duration":111775,"SoundDuration":111775,"Delta":124925342},{"NoteNumber":64,"Velocity":81,"Duration":117508,"SoundDuration":117508,"Delta":125037117},{"NoteNumber":52,"Velocity":66,"Duration":117508,"SoundDuration":117508,"Delta":125037117},{"NoteNumber":40,"Velocity":56,"Duration":117508,"SoundDuration":117508,"Delta":125037117},{"NoteNumber":62,"Velocity":62,"Duration":117508,"SoundDuration":117508,"Delta":125507152},{"NoteNumber":64,"Velocity":62,"Duration":117508,"SoundDuration":117508,"Delta":125507152},{"NoteNumber":68,"Velocity":73,"Duration":117508,"SoundDuration":117508,"Delta":125507152},{"NoteNumber":40,"Velocity":47,"Duration":117508,"SoundDuration":117508,"Delta":125507152},{"NoteNumber":52,"Velocity":56,"Duration":117508,"SoundDuration":117508,"Delta":125507152},{"NoteNumber":69,"Velocity":43,"Duration":106044,"SoundDuration":106044,"Delta":125977187},{"NoteNumber":57,"Velocity":27,"Duration":424177,"SoundDuration":424177,"Delta":125977187},{"NoteNumber":61,"Velocity":32,"Duration":424177,"SoundDuration":424177,"Delta":125977187},{"NoteNumber":73,"Velocity":36,"Duration":106044,"SoundDuration":106044,"Delta":126083231},{"NoteNumber":76,"Velocity":42,"Duration":106044,"SoundDuration":106044,"Delta":126189276},{"NoteNumber":74,"Velocity":36,"Duration":106044,"SoundDuration":106044,"Delta":126295320},{"NoteNumber":73,"Velocity":45,"Duration":106044,"SoundDuration":106044,"Delta":126401365},{"NoteNumber":71,"Velocity":42,"Duration":106044,"SoundDuration":106044,"Delta":126507409},{"NoteNumber":69,"Velocity":40,"Duration":114303,"SoundDuration":114303,"Delta":126613454},{"NoteNumber":68,"Velocity":37,"Duration":114303,"SoundDuration":114303,"Delta":126727757},{"NoteNumber":66,"Velocity":43,"Duration":107596,"SoundDuration":107596,"Delta":126842060},{"NoteNumber":57,"Velocity":20,"Duration":107596,"SoundDuration":107596,"Delta":126842060},{"NoteNumber":62,"Velocity":24,"Duration":107596,"SoundDuration":107596,"Delta":126842060},{"NoteNumber":69,"Velocity":36,"Duration":106814,"SoundDuration":106814,"Delta":126949657},{"NoteNumber":66,"Velocity":42,"Duration":106814,"SoundDuration":106814,"Delta":127056471},{"NoteNumber":69,"Velocity":36,"Duration":106814,"SoundDuration":106814,"Delta":127163286},{"NoteNumber":68,"Velocity":44,"Duration":106814,"SoundDuration":106814,"Delta":127270101},{"NoteNumber":59,"Velocity":24,"Duration":106814,"SoundDuration":106814,"Delta":127270101},{"NoteNumber":57,"Velocity":20,"Duration":106814,"SoundDuration":106814,"Delta":127270101},{"NoteNumber":71,"Velocity":36,"Duration":106814,"SoundDuration":106814,"Delta":127376916},{"NoteNumber":68,"Velocity":42,"Duration":114303,"SoundDuration":114303,"Delta":127483730},{"NoteNumber":71,"Velocity":36,"Duration":114303,"SoundDuration":114303,"Delta":127598034},{"NoteNumber":69,"Velocity":43,"Duration":106044,"SoundDuration":106044,"Delta":127712337},{"NoteNumber":45,"Velocity":27,"Duration":424178,"SoundDuration":424178,"Delta":127712337},{"NoteNumber":57,"Velocity":32,"Duration":424178,"SoundDuration":424178,"Delta":127712337},{"NoteNumber":73,"Velocity":36,"Duration":106044,"SoundDuration":106044,"Delta":127818381},{"NoteNumber":76,"Velocity":42,"Duration":106044,"SoundDuration":106044,"Delta":127924426},{"NoteNumber":74,"Velocity":36,"Duration":106044,"SoundDuration":106044,"Delta":128030470},{"NoteNumber":73,"Velocity":45,"Duration":106044,"SoundDuration":106044,"Delta":128136515},{"NoteNumber":71,"Velocity":42,"Duration":106044,"SoundDuration":106044,"Delta":128242559},{"NoteNumber":69,"Velocity":40,"Duration":114303,"SoundDuration":114303,"Delta":128348604},{"NoteNumber":68,"Velocity":37,"Duration":114303,"SoundDuration":114303,"Delta":128462907},{"NoteNumber":66,"Velocity":43,"Duration":107596,"SoundDuration":107596,"Delta":128577210},{"NoteNumber":57,"Velocity":20,"Duration":107596,"SoundDuration":107596,"Delta":128577210},{"NoteNumber":62,"Velocity":24,"Duration":107596,"SoundDuration":107596,"Delta":128577210},{"NoteNumber":69,"Velocity":36,"Duration":106814,"SoundDuration":106814,"Delta":128684807},{"NoteNumber":66,"Velocity":42,"Duration":106814,"SoundDuration":106814,"Delta":128791621},{"NoteNumber":69,"Velocity":36,"Duration":106814,"SoundDuration":106814,"Delta":128898436},{"NoteNumber":68,"Velocity":44,"Duration":106814,"SoundDuration":106814,"Delta":129005251},{"NoteNumber":59,"Velocity":24,"Duration":106814,"SoundDuration":106814,"Delta":129005251},{"NoteNumber":57,"Velocity":20,"Duration":106814,"SoundDuration":106814,"Delta":129005251},{"NoteNumber":71,"Velocity":36,"Duration":106814,"SoundDuration":106814,"Delta":129112066},{"NoteNumber":68,"Velocity":42,"Duration":114303,"SoundDuration":114303,"Delta":129218880},{"NoteNumber":71,"Velocity":36,"Duration":114303,"SoundDuration":114303,"Delta":129333184},{"NoteNumber":69,"Velocity":52,"Duration":109202,"SoundDuration":109202,"Delta":129447487},{"NoteNumber":61,"Velocity":32,"Duration":436750,"SoundDuration":436750,"Delta":129447487},{"NoteNumber":57,"Velocity":27,"Duration":436730,"SoundDuration":436730,"Delta":129452947},{"NoteNumber":71,"Velocity":53,"Duration":109201,"SoundDuration":109201,"Delta":129556689},{"NoteNumber":73,"Velocity":54,"Duration":109202,"SoundDuration":109202,"Delta":129665891},{"NoteNumber":74,"Velocity":56,"Duration":109144,"SoundDuration":109144,"Delta":129775093},{"NoteNumber":76,"Velocity":59,"Duration":108798,"SoundDuration":108798,"Delta":129884238},{"NoteNumber":78,"Velocity":62,"Duration":108794,"SoundDuration":108794,"Delta":129993036},{"NoteNumber":80,"Velocity":65,"Duration":108389,"SoundDuration":108389,"Delta":130101831},{"NoteNumber":81,"Velocity":68,"Duration":120508,"SoundDuration":120508,"Delta":130210220},{"NoteNumber":78,"Velocity":75,"Duration":108852,"SoundDuration":108852,"Delta":130330729},{"NoteNumber":38,"Velocity":58,"Duration":218135,"SoundDuration":218135,"Delta":130330729},{"NoteNumber":76,"Velocity":71,"Duration":109283,"SoundDuration":109283,"Delta":130439581},{"NoteNumber":74,"Velocity":74,"Duration":109663,"SoundDuration":109663,"Delta":130548864},{"NoteNumber":50,"Velocity":50,"Duration":219765,"SoundDuration":219765,"Delta":130548864},{"NoteNumber":73,"Velocity":72,"Duration":110101,"SoundDuration":110101,"Delta":130658528},{"NoteNumber":71,"Velocity":70,"Duration":110487,"SoundDuration":110487,"Delta":130768630},{"NoteNumber":38,"Velocity":55,"Duration":221419,"SoundDuration":221419,"Delta":130768630},{"NoteNumber":69,"Velocity":71,"Duration":110932,"SoundDuration":110932,"Delta":130879117},{"NoteNumber":68,"Velocity":76,"Duration":111324,"SoundDuration":111324,"Delta":130990050},{"NoteNumber":50,"Velocity":48,"Duration":223099,"SoundDuration":223099,"Delta":130990050},{"NoteNumber":66,"Velocity":77,"Duration":111775,"SoundDuration":111775,"Delta":131101374},{"NoteNumber":64,"Velocity":85,"Duration":227721,"SoundDuration":227721,"Delta":131213149},{"NoteNumber":40,"Velocity":57,"Duration":227721,"SoundDuration":227721,"Delta":131213149},{"NoteNumber":73,"Velocity":72,"Duration":113860,"SoundDuration":113860,"Delta":131440871},{"NoteNumber":69,"Velocity":72,"Duration":113860,"SoundDuration":113860,"Delta":131440871},{"NoteNumber":52,"Velocity":49,"Duration":113860,"SoundDuration":113860,"Delta":131440871},{"NoteNumber":73,"Velocity":80,"Duration":113860,"SoundDuration":113860,"Delta":131668592},{"NoteNumber":69,"Velocity":80,"Duration":113860,"SoundDuration":113860,"Delta":131668592},{"NoteNumber":40,"Velocity":57,"Duration":113860,"SoundDuration":113860,"Delta":131668592},{"NoteNumber":69,"Velocity":72,"Duration":120395,"SoundDuration":120395,"Delta":131896314},{"NoteNumber":73,"Velocity":72,"Duration":120395,"SoundDuration":120395,"Delta":131896314},{"NoteNumber":52,"Velocity":49,"Duration":120395,"SoundDuration":120395,"Delta":131896314},{"NoteNumber":73,"Velocity":80,"Duration":227721,"SoundDuration":227721,"Delta":132137104},{"NoteNumber":69,"Velocity":80,"Duration":227721,"SoundDuration":227721,"Delta":132137104},{"NoteNumber":40,"Velocity":57,"Duration":227721,"SoundDuration":227721,"Delta":132137104},{"NoteNumber":74,"Velocity":72,"Duration":113860,"SoundDuration":113860,"Delta":132364825},{"NoteNumber":71,"Velocity":72,"Duration":113860,"SoundDuration":113860,"Delta":132364825},{"NoteNumber":52,"Velocity":49,"Duration":113860,"SoundDuration":113860,"Delta":132364825},{"NoteNumber":71,"Velocity":80,"Duration":113860,"SoundDuration":113860,"Delta":132592547},{"NoteNumber":68,"Velocity":80,"Duration":113860,"SoundDuration":113860,"Delta":132592547},{"NoteNumber":40,"Velocity":57,"Duration":113860,"SoundDuration":113860,"Delta":132592547},{"NoteNumber":68,"Velocity":72,"Duration":113860,"SoundDuration":113860,"Delta":132820268},{"NoteNumber":71,"Velocity":72,"Duration":113860,"SoundDuration":113860,"Delta":132820268},{"NoteNumber":52,"Velocity":49,"Duration":113860,"SoundDuration":113860,"Delta":132820268},{"NoteNumber":69,"Velocity":83,"Duration":238834,"SoundDuration":238834,"Delta":133047990},{"NoteNumber":45,"Velocity":57,"Duration":238834,"SoundDuration":238834,"Delta":133047990},{"NoteNumber":57,"Velocity":52,"Duration":238834,"SoundDuration":238834,"Delta":133286824},{"NoteNumber":76,"Velocity":79,"Duration":125543,"SoundDuration":125543,"Delta":133525659},{"NoteNumber":73,"Velocity":79,"Duration":125543,"SoundDuration":125543,"Delta":133525659},{"NoteNumber":69,"Velocity":79,"Duration":125543,"SoundDuration":125543,"Delta":133525659},{"NoteNumber":81,"Velocity":79,"Duration":125543,"SoundDuration":125543,"Delta":133525659},{"NoteNumber":52,"Velocity":57,"Duration":251088,"SoundDuration":251088,"Delta":133525659},{"NoteNumber":49,"Velocity":51,"Duration":251087,"SoundDuration":251087,"Delta":133776747},{"NoteNumber":81,"Velocity":79,"Duration":161290,"SoundDuration":161290,"Delta":134027835},{"NoteNumber":76,"Velocity":79,"Duration":161290,"SoundDuration":161290,"Delta":134027835},{"NoteNumber":73,"Velocity":79,"Duration":161290,"SoundDuration":161290,"Delta":134027835},{"NoteNumber":69,"Velocity":79,"Duration":161290,"SoundDuration":161290,"Delta":134027835},{"NoteNumber":45,"Velocity":62,"Duration":161290,"SoundDuration":161290,"Delta":134027835},{"NoteNumber":69,"Velocity":46,"Duration":111036,"SoundDuration":111036,"Delta":134796170},{"NoteNumber":71,"Velocity":47,"Duration":111037,"SoundDuration":111037,"Delta":134907207},{"NoteNumber":73,"Velocity":48,"Duration":111037,"SoundDuration":111037,"Delta":135018244},{"NoteNumber":74,"Velocity":49,"Duration":111036,"SoundDuration":111036,"Delta":135129281},{"NoteNumber":76,"Velocity":52,"Duration":109801,"SoundDuration":109801,"Delta":135240318},{"NoteNumber":57,"Velocity":35,"Duration":109801,"SoundDuration":109801,"Delta":135240318},{"NoteNumber":57,"Velocity":27,"Duration":109801,"SoundDuration":109801,"Delta":135459921},{"NoteNumber":73,"Velocity":48,"Duration":108593,"SoundDuration":108593,"Delta":135679525},{"NoteNumber":69,"Velocity":48,"Duration":108593,"SoundDuration":108593,"Delta":135679525},{"NoteNumber":57,"Velocity":30,"Duration":108593,"SoundDuration":108593,"Delta":135679525},{"NoteNumber":57,"Velocity":27,"Duration":108593,"SoundDuration":108593,"Delta":135896711},{"NoteNumber":71,"Velocity":50,"Duration":107797,"SoundDuration":107797,"Delta":136113898},{"NoteNumber":74,"Velocity":50,"Duration":107797,"SoundDuration":107797,"Delta":136113898},{"NoteNumber":57,"Velocity":31,"Duration":107797,"SoundDuration":107797,"Delta":136113898},{"NoteNumber":57,"Velocity":27,"Duration":107797,"SoundDuration":107797,"Delta":136329492},{"NoteNumber":76,"Velocity":47,"Duration":107797,"SoundDuration":107797,"Delta":136545087},{"NoteNumber":73,"Velocity":47,"Duration":107797,"SoundDuration":107797,"Delta":136545087},{"NoteNumber":57,"Velocity":30,"Duration":107797,"SoundDuration":107797,"Delta":136545087},{"NoteNumber":57,"Velocity":27,"Duration":118240,"SoundDuration":118240,"Delta":136760681},{"NoteNumber":74,"Velocity":50,"Duration":642582,"SoundDuration":642582,"Delta":136997162},{"NoteNumber":71,"Velocity":50,"Duration":642582,"SoundDuration":642582,"Delta":136997162},{"NoteNumber":57,"Velocity":35,"Duration":107097,"SoundDuration":107097,"Delta":136997162},{"NoteNumber":57,"Velocity":29,"Duration":107097,"SoundDuration":107097,"Delta":137211356},{"NoteNumber":57,"Velocity":31,"Duration":107096,"SoundDuration":107096,"Delta":137425550},{"NoteNumber":76,"Velocity":43,"Duration":214193,"SoundDuration":214193,"Delta":137639744},{"NoteNumber":73,"Velocity":43,"Duration":214193,"SoundDuration":214193,"Delta":137639744},{"NoteNumber":57,"Velocity":29,"Duration":107096,"SoundDuration":107096,"Delta":137639744},{"NoteNumber":78,"Velocity":47,"Duration":443341,"SoundDuration":443341,"Delta":137853938},{"NoteNumber":74,"Velocity":47,"Duration":443341,"SoundDuration":443341,"Delta":137853938},{"NoteNumber":57,"Velocity":32,"Duration":107097,"SoundDuration":107097,"Delta":137853938},{"NoteNumber":57,"Velocity":29,"Duration":114573,"SoundDuration":114573,"Delta":138068132},{"NoteNumber":71,"Velocity":46,"Duration":107873,"SoundDuration":107873,"Delta":138297280},{"NoteNumber":57,"Velocity":32,"Duration":107873,"SoundDuration":107873,"Delta":138297280},{"NoteNumber":73,"Velocity":47,"Duration":106708,"SoundDuration":106708,"Delta":138405154},{"NoteNumber":74,"Velocity":48,"Duration":107029,"SoundDuration":107029,"Delta":138511862},{"NoteNumber":57,"Velocity":29,"Duration":107029,"SoundDuration":107029,"Delta":138511862},{"NoteNumber":76,"Velocity":49,"Duration":107097,"SoundDuration":107097,"Delta":138618891},{"NoteNumber":78,"Velocity":52,"Duration":107464,"SoundDuration":107464,"Delta":138725988},{"NoteNumber":57,"Velocity":35,"Duration":107464,"SoundDuration":107464,"Delta":138725988},{"NoteNumber":57,"Velocity":27,"Duration":107480,"SoundDuration":107480,"Delta":138940934},{"NoteNumber":74,"Velocity":48,"Duration":107480,"SoundDuration":107480,"Delta":139155895},{"NoteNumber":71,"Velocity":43,"Duration":107480,"SoundDuration":107480,"Delta":139155895},{"NoteNumber":57,"Velocity":30,"Duration":107480,"SoundDuration":107480,"Delta":139155895},{"NoteNumber":57,"Velocity":27,"Duration":107480,"SoundDuration":107480,"Delta":139370857},{"NoteNumber":73,"Velocity":45,"Duration":107480,"SoundDuration":107480,"Delta":139585818},{"NoteNumber":76,"Velocity":50,"Duration":107480,"SoundDuration":107480,"Delta":139585818},{"NoteNumber":57,"Velocity":31,"Duration":107480,"SoundDuration":107480,"Delta":139585818},{"NoteNumber":57,"Velocity":27,"Duration":107480,"SoundDuration":107480,"Delta":139800780},{"NoteNumber":78,"Velocity":47,"Duration":107480,"SoundDuration":107480,"Delta":140015741},{"NoteNumber":74,"Velocity":42,"Duration":107480,"SoundDuration":107480,"Delta":140015741},{"NoteNumber":57,"Velocity":30,"Duration":107480,"SoundDuration":107480,"Delta":140015741},{"NoteNumber":57,"Velocity":27,"Duration":118240,"SoundDuration":118240,"Delta":140230703},{"NoteNumber":76,"Velocity":50,"Duration":642582,"SoundDuration":642582,"Delta":140467184},{"NoteNumber":73,"Velocity":45,"Duration":642582,"SoundDuration":642582,"Delta":140467184},{"NoteNumber":57,"Velocity":35,"Duration":107097,"SoundDuration":107097,"Delta":140467184},{"NoteNumber":57,"Velocity":29,"Duration":107097,"SoundDuration":107097,"Delta":140681378},{"NoteNumber":57,"Velocity":31,"Duration":107096,"SoundDuration":107096,"Delta":140895572},{"NoteNumber":78,"Velocity":43,"Duration":214193,"SoundDuration":214193,"Delta":141109766},{"NoteNumber":74,"Velocity":38,"Duration":214193,"SoundDuration":214193,"Delta":141109766},{"NoteNumber":57,"Velocity":29,"Duration":107096,"SoundDuration":107096,"Delta":141109766},{"NoteNumber":79,"Velocity":47,"Duration":443341,"SoundDuration":443341,"Delta":141323960},{"NoteNumber":76,"Velocity":42,"Duration":443341,"SoundDuration":443341,"Delta":141323960},{"NoteNumber":57,"Velocity":32,"Duration":107097,"SoundDuration":107097,"Delta":141323960},{"NoteNumber":57,"Velocity":29,"Duration":114573,"SoundDuration":114573,"Delta":141538154},{"NoteNumber":79,"Velocity":62,"Duration":108271,"SoundDuration":108271,"Delta":141767301},{"NoteNumber":57,"Velocity":41,"Duration":108271,"SoundDuration":108271,"Delta":141767301},{"NoteNumber":81,"Velocity":47,"Duration":108271,"SoundDuration":108271,"Delta":141875573},{"NoteNumber":83,"Velocity":50,"Duration":108271,"SoundDuration":108271,"Delta":141983845},{"NoteNumber":57,"Velocity":37,"Duration":108271,"SoundDuration":108271,"Delta":141983845},{"NoteNumber":81,"Velocity":46,"Duration":108271,"SoundDuration":108271,"Delta":142092117},{"NoteNumber":79,"Velocity":61,"Duration":106708,"SoundDuration":106708,"Delta":142200389},{"NoteNumber":57,"Velocity":48,"Duration":426834,"SoundDuration":426834,"Delta":142200389},{"NoteNumber":81,"Velocity":48,"Duration":106708,"SoundDuration":106708,"Delta":142307098},{"NoteNumber":78,"Velocity":50,"Duration":106708,"SoundDuration":106708,"Delta":142413806},{"NoteNumber":79,"Velocity":47,"Duration":106708,"SoundDuration":106708,"Delta":142520515},{"NoteNumber":76,"Velocity":57,"Duration":106708,"SoundDuration":106708,"Delta":142627223},{"NoteNumber":78,"Velocity":48,"Duration":106708,"SoundDuration":106708,"Delta":142733932},{"NoteNumber":74,"Velocity":50,"Duration":106708,"SoundDuration":106708,"Delta":142840640},{"NoteNumber":76,"Velocity":48,"Duration":106708,"SoundDuration":106708,"Delta":142947349},{"NoteNumber":73,"Velocity":56,"Duration":106483,"SoundDuration":106483,"Delta":143054057},{"NoteNumber":74,"Velocity":48,"Duration":106214,"SoundDuration":106214,"Delta":143160541},{"NoteNumber":71,"Velocity":50,"Duration":107037,"SoundDuration":107037,"Delta":143266755},{"NoteNumber":73,"Velocity":47,"Duration":107868,"SoundDuration":107868,"Delta":143373793},{"NoteNumber":69,"Velocity":56,"Duration":109999,"SoundDuration":109999,"Delta":143481662},{"NoteNumber":71,"Velocity":42,"Duration":111640,"SoundDuration":111640,"Delta":143591662},{"NoteNumber":67,"Velocity":50,"Duration":114054,"SoundDuration":114054,"Delta":143703302},{"NoteNumber":69,"Velocity":42,"Duration":116595,"SoundDuration":116595,"Delta":143817357},{"NoteNumber":66,"Velocity":61,"Duration":434687,"SoundDuration":434687,"Delta":143933952},{"NoteNumber":50,"Velocity":41,"Duration":217343,"SoundDuration":217343,"Delta":143933952},{"NoteNumber":62,"Velocity":30,"Duration":108672,"SoundDuration":108672,"Delta":144151296},{"NoteNumber":62,"Velocity":34,"Duration":108672,"SoundDuration":108672,"Delta":144368640},{"NoteNumber":62,"Velocity":30,"Duration":108672,"SoundDuration":108672,"Delta":144585984},{"NoteNumber":62,"Velocity":36,"Duration":108672,"SoundDuration":108672,"Delta":144803328},{"NoteNumber":62,"Velocity":30,"Duration":108671,"SoundDuration":108671,"Delta":145020672},{"NoteNumber":74,"Velocity":46,"Duration":108688,"SoundDuration":108688,"Delta":145238016},{"NoteNumber":62,"Velocity":34,"Duration":108688,"SoundDuration":108688,"Delta":145238016},{"NoteNumber":76,"Velocity":47,"Duration":108315,"SoundDuration":108315,"Delta":145346705},{"NoteNumber":78,"Velocity":48,"Duration":107944,"SoundDuration":107944,"Delta":145455020},{"NoteNumber":62,"Velocity":30,"Duration":107944,"SoundDuration":107944,"Delta":145455020},{"NoteNumber":79,"Velocity":49,"Duration":107575,"SoundDuration":107575,"Delta":145562965},{"NoteNumber":81,"Velocity":52,"Duration":107215,"SoundDuration":107215,"Delta":145670541},{"NoteNumber":62,"Velocity":35,"Duration":107215,"SoundDuration":107215,"Delta":145670541},{"NoteNumber":62,"Velocity":27,"Duration":107097,"SoundDuration":107097,"Delta":145884853},{"NoteNumber":78,"Velocity":48,"Duration":107097,"SoundDuration":107097,"Delta":146099047},{"NoteNumber":74,"Velocity":43,"Duration":107097,"SoundDuration":107097,"Delta":146099047},{"NoteNumber":62,"Velocity":30,"Duration":107097,"SoundDuration":107097,"Delta":146099047},{"NoteNumber":62,"Velocity":27,"Duration":107096,"SoundDuration":107096,"Delta":146313241},{"NoteNumber":76,"Velocity":45,"Duration":107096,"SoundDuration":107096,"Delta":146527435},{"NoteNumber":79,"Velocity":50,"Duration":107096,"SoundDuration":107096,"Delta":146527435},{"NoteNumber":62,"Velocity":31,"Duration":107096,"SoundDuration":107096,"Delta":146527435},{"NoteNumber":62,"Velocity":27,"Duration":107097,"SoundDuration":107097,"Delta":146741629},{"NoteNumber":81,"Velocity":47,"Duration":107097,"SoundDuration":107097,"Delta":146955823},{"NoteNumber":78,"Velocity":42,"Duration":107097,"SoundDuration":107097,"Delta":146955823},{"NoteNumber":62,"Velocity":30,"Duration":107097,"SoundDuration":107097,"Delta":146955823},{"NoteNumber":62,"Velocity":27,"Duration":118240,"SoundDuration":118240,"Delta":147170017},{"NoteNumber":79,"Velocity":50,"Duration":642582,"SoundDuration":642582,"Delta":147406498},{"NoteNumber":76,"Velocity":45,"Duration":642582,"SoundDuration":642582,"Delta":147406498},{"NoteNumber":62,"Velocity":35,"Duration":107097,"SoundDuration":107097,"Delta":147406498},{"NoteNumber":62,"Velocity":29,"Duration":107097,"SoundDuration":107097,"Delta":147620692},{"NoteNumber":62,"Velocity":31,"Duration":107096,"SoundDuration":107096,"Delta":147834886},{"NoteNumber":81,"Velocity":43,"Duration":214193,"SoundDuration":214193,"Delta":148049080},{"NoteNumber":78,"Velocity":38,"Duration":214193,"SoundDuration":214193,"Delta":148049080},{"NoteNumber":62,"Velocity":29,"Duration":107096,"SoundDuration":107096,"Delta":148049080},{"NoteNumber":83,"Velocity":47,"Duration":441398,"SoundDuration":441398,"Delta":148263274},{"NoteNumber":79,"Velocity":42,"Duration":441398,"SoundDuration":441398,"Delta":148263274},{"NoteNumber":62,"Velocity":32,"Duration":107097,"SoundDuration":107097,"Delta":148263274},{"NoteNumber":62,"Velocity":29,"Duration":114573,"SoundDuration":114573,"Delta":148477468},{"NoteNumber":76,"Velocity":46,"Duration":106000,"SoundDuration":106000,"Delta":148704673},{"NoteNumber":62,"Velocity":34,"Duration":106000,"SoundDuration":106000,"Delta":148704673},{"NoteNumber":78,"Velocity":47,"Duration":106358,"SoundDuration":106358,"Delta":148810673},{"NoteNumber":79,"Velocity":48,"Duration":106718,"SoundDuration":106718,"Delta":148917031},{"NoteNumber":62,"Velocity":30,"Duration":106718,"SoundDuration":106718,"Delta":148917031},{"NoteNumber":81,"Velocity":49,"Duration":107097,"SoundDuration":107097,"Delta":149023750},{"NoteNumber":83,"Velocity":52,"Duration":107464,"SoundDuration":107464,"Delta":149130847},{"NoteNumber":62,"Velocity":35,"Duration":107464,"SoundDuration":107464,"Delta":149130847},{"NoteNumber":62,"Velocity":27,"Duration":107480,"SoundDuration":107480,"Delta":149345792},{"NoteNumber":79,"Velocity":52,"Duration":107480,"SoundDuration":107480,"Delta":149560754},{"NoteNumber":76,"Velocity":47,"Duration":107480,"SoundDuration":107480,"Delta":149560754},{"NoteNumber":62,"Velocity":33,"Duration":107480,"SoundDuration":107480,"Delta":149560754},{"NoteNumber":62,"Velocity":30,"Duration":107480,"SoundDuration":107480,"Delta":149775715},{"NoteNumber":78,"Velocity":52,"Duration":107480,"SoundDuration":107480,"Delta":149990677},{"NoteNumber":81,"Velocity":58,"Duration":107480,"SoundDuration":107480,"Delta":149990677},{"NoteNumber":62,"Velocity":35,"Duration":107480,"SoundDuration":107480,"Delta":149990677},{"NoteNumber":62,"Velocity":32,"Duration":107480,"SoundDuration":107480,"Delta":150205638},{"NoteNumber":83,"Velocity":57,"Duration":107480,"SoundDuration":107480,"Delta":150420600},{"NoteNumber":79,"Velocity":51,"Duration":107480,"SoundDuration":107480,"Delta":150420600},{"NoteNumber":62,"Velocity":36,"Duration":107480,"SoundDuration":107480,"Delta":150420600},{"NoteNumber":62,"Velocity":34,"Duration":118240,"SoundDuration":118240,"Delta":150635561},{"NoteNumber":81,"Velocity":67,"Duration":214193,"SoundDuration":214193,"Delta":150872042},{"NoteNumber":78,"Velocity":53,"Duration":214193,"SoundDuration":214193,"Delta":150872042},{"NoteNumber":62,"Velocity":48,"Duration":428388,"SoundDuration":428388,"Delta":150872042},{"NoteNumber":84,"Velocity":56,"Duration":214194,"SoundDuration":214194,"Delta":151086236},{"NoteNumber":78,"Velocity":56,"Duration":109473,"SoundDuration":109473,"Delta":151300430},{"NoteNumber":81,"Velocity":63,"Duration":109473,"SoundDuration":109473,"Delta":151300430},{"NoteNumber":81,"Velocity":57,"Duration":109473,"SoundDuration":109473,"Delta":151519376},{"NoteNumber":78,"Velocity":50,"Duration":109473,"SoundDuration":109473,"Delta":151519376},{"NoteNumber":78,"Velocity":39,"Duration":214193,"SoundDuration":214193,"Delta":151738322},{"NoteNumber":81,"Velocity":47,"Duration":214193,"SoundDuration":214193,"Delta":151738322},{"NoteNumber":63,"Velocity":37,"Duration":321291,"SoundDuration":321291,"Delta":151738322},{"NoteNumber":84,"Velocity":39,"Duration":214194,"SoundDuration":214194,"Delta":151952516},{"NoteNumber":81,"Velocity":43,"Duration":109074,"SoundDuration":109074,"Delta":152166710},{"NoteNumber":78,"Velocity":36,"Duration":109074,"SoundDuration":109074,"Delta":152166710},{"NoteNumber":63,"Velocity":37,"Duration":330889,"SoundDuration":330889,"Delta":152166710},{"NoteNumber":78,"Velocity":30,"Duration":112739,"SoundDuration":112739,"Delta":152384860},{"NoteNumber":81,"Velocity":36,"Duration":112739,"SoundDuration":112739,"Delta":152384860},{"NoteNumber":78,"Velocity":39,"Duration":214193,"SoundDuration":214193,"Delta":152610339},{"NoteNumber":81,"Velocity":47,"Duration":214193,"SoundDuration":214193,"Delta":152610339},{"NoteNumber":64,"Velocity":37,"Duration":428388,"SoundDuration":428388,"Delta":152610339},{"NoteNumber":83,"Velocity":39,"Duration":214194,"SoundDuration":214194,"Delta":152824533},{"NoteNumber":79,"Velocity":43,"Duration":109074,"SoundDuration":109074,"Delta":153038727},{"NoteNumber":76,"Velocity":36,"Duration":109074,"SoundDuration":109074,"Delta":153038727},{"NoteNumber":76,"Velocity":30,"Duration":111457,"SoundDuration":111457,"Delta":153256877},{"NoteNumber":79,"Velocity":36,"Duration":111457,"SoundDuration":111457,"Delta":153256877},{"NoteNumber":76,"Velocity":39,"Duration":214193,"SoundDuration":214193,"Delta":153479793},{"NoteNumber":79,"Velocity":47,"Duration":214193,"SoundDuration":214193,"Delta":153479793},{"NoteNumber":61,"Velocity":37,"Duration":321291,"SoundDuration":321291,"Delta":153479793},{"NoteNumber":82,"Velocity":39,"Duration":214194,"SoundDuration":214194,"Delta":153693987},{"NoteNumber":79,"Velocity":43,"Duration":109074,"SoundDuration":109074,"Delta":153908181},{"NoteNumber":76,"Velocity":36,"Duration":109074,"SoundDuration":109074,"Delta":153908181},{"NoteNumber":61,"Velocity":37,"Duration":334899,"SoundDuration":334899,"Delta":153908181},{"NoteNumber":76,"Velocity":30,"Duration":116749,"SoundDuration":116749,"Delta":154126331},{"NoteNumber":79,"Velocity":36,"Duration":116749,"SoundDuration":116749,"Delta":154126331},{"NoteNumber":76,"Velocity":39,"Duration":214193,"SoundDuration":214193,"Delta":154359830},{"NoteNumber":79,"Velocity":47,"Duration":214193,"SoundDuration":214193,"Delta":154359830},{"NoteNumber":62,"Velocity":37,"Duration":428388,"SoundDuration":428388,"Delta":154359830},{"NoteNumber":81,"Velocity":39,"Duration":214194,"SoundDuration":214194,"Delta":154574024},{"NoteNumber":78,"Velocity":43,"Duration":109074,"SoundDuration":109074,"Delta":154788218},{"NoteNumber":74,"Velocity":36,"Duration":109074,"SoundDuration":109074,"Delta":154788218},{"NoteNumber":74,"Velocity":30,"Duration":109074,"SoundDuration":109074,"Delta":155006368},{"NoteNumber":78,"Velocity":36,"Duration":109074,"SoundDuration":109074,"Delta":155006368},{"NoteNumber":78,"Velocity":53,"Duration":214193,"SoundDuration":214193,"Delta":155224518},{"NoteNumber":74,"Velocity":45,"Duration":214193,"SoundDuration":214193,"Delta":155224518},{"NoteNumber":58,"Velocity":45,"Duration":321291,"SoundDuration":321291,"Delta":155224518},{"NoteNumber":79,"Velocity":42,"Duration":214194,"SoundDuration":214194,"Delta":155438712},{"NoteNumber":73,"Velocity":45,"Duration":109074,"SoundDuration":109074,"Delta":155652906},{"NoteNumber":76,"Velocity":53,"Duration":109074,"SoundDuration":109074,"Delta":155652906},{"NoteNumber":58,"Velocity":41,"Duration":332279,"SoundDuration":332279,"Delta":155652906},{"NoteNumber":76,"Velocity":45,"Duration":114129,"SoundDuration":114129,"Delta":155871056},{"NoteNumber":73,"Velocity":38,"Duration":114129,"SoundDuration":114129,"Delta":155871056},{"NoteNumber":76,"Velocity":59,"Duration":214193,"SoundDuration":214193,"Delta":156099315},{"NoteNumber":73,"Velocity":50,"Duration":214193,"SoundDuration":214193,"Delta":156099315},{"NoteNumber":59,"Velocity":50,"Duration":321291,"SoundDuration":321291,"Delta":156099315},{"NoteNumber":78,"Velocity":49,"Duration":214194,"SoundDuration":214194,"Delta":156313509},{"NoteNumber":71,"Velocity":48,"Duration":109074,"SoundDuration":109074,"Delta":156527703},{"NoteNumber":74,"Velocity":57,"Duration":109074,"SoundDuration":109074,"Delta":156527703},{"NoteNumber":59,"Velocity":46,"Duration":332279,"SoundDuration":332279,"Delta":156527703},{"NoteNumber":74,"Velocity":48,"Duration":114129,"SoundDuration":114129,"Delta":156745853},{"NoteNumber":71,"Velocity":40,"Duration":114129,"SoundDuration":114129,"Delta":156745853},{"NoteNumber":74,"Velocity":65,"Duration":214193,"SoundDuration":214193,"Delta":156974111},{"NoteNumber":71,"Velocity":55,"Duration":214193,"SoundDuration":214193,"Delta":156974111},{"NoteNumber":54,"Velocity":50,"Duration":321291,"SoundDuration":321291,"Delta":156974111},{"NoteNumber":42,"Velocity":42,"Duration":321291,"SoundDuration":321291,"Delta":156974111},{"NoteNumber":76,"Velocity":51,"Duration":214194,"SoundDuration":214194,"Delta":157188305},{"NoteNumber":72,"Velocity":60,"Duration":109074,"SoundDuration":109074,"Delta":157402499},{"NoteNumber":69,"Velocity":51,"Duration":109074,"SoundDuration":109074,"Delta":157402499},{"NoteNumber":54,"Velocity":42,"Duration":332279,"SoundDuration":332279,"Delta":157402499},{"NoteNumber":42,"Velocity":35,"Duration":332279,"SoundDuration":332279,"Delta":157402499},{"NoteNumber":69,"Velocity":41,"Duration":114129,"SoundDuration":114129,"Delta":157620649},{"NoteNumber":72,"Velocity":49,"Duration":114129,"SoundDuration":114129,"Delta":157620649},{"NoteNumber":71,"Velocity":68,"Duration":109881,"SoundDuration":109881,"Delta":157848908},{"NoteNumber":55,"Velocity":56,"Duration":439527,"SoundDuration":439527,"Delta":157848908},{"NoteNumber":43,"Velocity":47,"Duration":439527,"SoundDuration":439527,"Delta":157848908},{"NoteNumber":62,"Velocity":50,"Duration":109881,"SoundDuration":109881,"Delta":157958790},{"NoteNumber":71,"Velocity":55,"Duration":109881,"SoundDuration":109881,"Delta":158068672},{"NoteNumber":62,"Velocity":49,"Duration":109881,"SoundDuration":109881,"Delta":158178554},{"NoteNumber":66,"Velocity":66,"Duration":109881,"SoundDuration":109881,"Delta":158288436},{"NoteNumber":60,"Velocity":53,"Duration":439527,"SoundDuration":439527,"Delta":158288436},{"NoteNumber":48,"Velocity":45,"Duration":439527,"SoundDuration":439527,"Delta":158288436},{"NoteNumber":62,"Velocity":48,"Duration":109881,"SoundDuration":109881,"Delta":158398318},{"NoteNumber":66,"Velocity":53,"Duration":109881,"SoundDuration":109881,"Delta":158508200},{"NoteNumber":62,"Velocity":47,"Duration":109881,"SoundDuration":109881,"Delta":158618082},{"NoteNumber":67,"Velocity":63,"Duration":109881,"SoundDuration":109881,"Delta":158727964},{"NoteNumber":59,"Velocity":61,"Duration":439456,"SoundDuration":439456,"Delta":158727964},{"NoteNumber":47,"Velocity":51,"Duration":439456,"SoundDuration":439456,"Delta":158727964},{"NoteNumber":62,"Velocity":48,"Duration":109881,"SoundDuration":109881,"Delta":158837846},{"NoteNumber":67,"Velocity":53,"Duration":109881,"SoundDuration":109881,"Delta":158947728},{"NoteNumber":62,"Velocity":48,"Duration":109810,"SoundDuration":109810,"Delta":159057610},{"NoteNumber":69,"Velocity":63,"Duration":109735,"SoundDuration":109735,"Delta":159167420},{"NoteNumber":54,"Velocity":54,"Duration":440922,"SoundDuration":440922,"Delta":159167420},{"NoteNumber":42,"Velocity":45,"Duration":440922,"SoundDuration":440922,"Delta":159167420},{"NoteNumber":62,"Velocity":47,"Duration":109899,"SoundDuration":109899,"Delta":159277155},{"NoteNumber":69,"Velocity":53,"Duration":110394,"SoundDuration":110394,"Delta":159387055},{"NoteNumber":62,"Velocity":47,"Duration":110893,"SoundDuration":110893,"Delta":159497449},{"NoteNumber":71,"Velocity":68,"Duration":111502,"SoundDuration":111502,"Delta":159608343},{"NoteNumber":55,"Velocity":56,"Duration":443630,"SoundDuration":443630,"Delta":159608343},{"NoteNumber":43,"Velocity":47,"Duration":443630,"SoundDuration":443630,"Delta":159608343},{"NoteNumber":62,"Velocity":50,"Duration":110709,"SoundDuration":110709,"Delta":159719846},{"NoteNumber":71,"Velocity":55,"Duration":110709,"SoundDuration":110709,"Delta":159830555},{"NoteNumber":62,"Velocity":49,"Duration":110709,"SoundDuration":110709,"Delta":159941264},{"NoteNumber":67,"Velocity":66,"Duration":109473,"SoundDuration":109473,"Delta":160051974},{"NoteNumber":52,"Velocity":53,"Duration":437892,"SoundDuration":437892,"Delta":160051974},{"NoteNumber":40,"Velocity":45,"Duration":437892,"SoundDuration":437892,"Delta":160051974},{"NoteNumber":61,"Velocity":48,"Duration":109472,"SoundDuration":109472,"Delta":160161447},{"NoteNumber":67,"Velocity":53,"Duration":109473,"SoundDuration":109473,"Delta":160270920},{"NoteNumber":61,"Velocity":47,"Duration":109473,"SoundDuration":109473,"Delta":160380393},{"NoteNumber":66,"Velocity":63,"Duration":110294,"SoundDuration":110294,"Delta":160489866},{"NoteNumber":50,"Velocity":61,"Duration":441176,"SoundDuration":441176,"Delta":160489866},{"NoteNumber":38,"Velocity":51,"Duration":441176,"SoundDuration":441176,"Delta":160489866},{"NoteNumber":62,"Velocity":48,"Duration":110293,"SoundDuration":110293,"Delta":160600160},{"NoteNumber":66,"Velocity":53,"Duration":110294,"SoundDuration":110294,"Delta":160710454},{"NoteNumber":62,"Velocity":48,"Duration":110294,"SoundDuration":110294,"Delta":160820748},{"NoteNumber":65,"Velocity":63,"Duration":110987,"SoundDuration":110987,"Delta":160931042},{"NoteNumber":44,"Velocity":54,"Duration":451356,"SoundDuration":451356,"Delta":160931042},{"NoteNumber":32,"Velocity":45,"Duration":451356,"SoundDuration":451356,"Delta":160931042},{"NoteNumber":62,"Velocity":47,"Duration":112162,"SoundDuration":112162,"Delta":161042029},{"NoteNumber":65,"Velocity":53,"Duration":113485,"SoundDuration":113485,"Delta":161154191},{"NoteNumber":62,"Velocity":47,"Duration":114721,"SoundDuration":114721,"Delta":161267677},{"NoteNumber":64,"Velocity":70,"Duration":106708,"SoundDuration":106708,"Delta":161382398},{"NoteNumber":33,"Velocity":45,"Duration":435598,"SoundDuration":435598,"Delta":161382398},{"NoteNumber":45,"Velocity":54,"Duration":435598,"SoundDuration":435598,"Delta":161382398},{"NoteNumber":61,"Velocity":63,"Duration":106708,"SoundDuration":106708,"Delta":161489106},{"NoteNumber":64,"Velocity":63,"Duration":106708,"SoundDuration":106708,"Delta":161595815},{"NoteNumber":61,"Velocity":63,"Duration":115473,"SoundDuration":115473,"Delta":161702523},{"NoteNumber":69,"Velocity":72,"Duration":110294,"SoundDuration":110294,"Delta":161817997},{"NoteNumber":45,"Velocity":49,"Duration":110294,"SoundDuration":110294,"Delta":162038585},{"NoteNumber":33,"Velocity":41,"Duration":110294,"SoundDuration":110294,"Delta":162038585},{"NoteNumber":65,"Velocity":69,"Duration":106708,"SoundDuration":106708,"Delta":162259173},{"NoteNumber":33,"Velocity":45,"Duration":436045,"SoundDuration":436045,"Delta":162259173},{"NoteNumber":45,"Velocity":54,"Duration":436045,"SoundDuration":436045,"Delta":162259173},{"NoteNumber":62,"Velocity":63,"Duration":106708,"SoundDuration":106708,"Delta":162365881},{"NoteNumber":65,"Velocity":63,"Duration":106708,"SoundDuration":106708,"Delta":162472590},{"NoteNumber":62,"Velocity":63,"Duration":115919,"SoundDuration":115919,"Delta":162579298},{"NoteNumber":69,"Velocity":71,"Duration":110294,"SoundDuration":110294,"Delta":162695218},{"NoteNumber":45,"Velocity":48,"Duration":110294,"SoundDuration":110294,"Delta":162915806},{"NoteNumber":33,"Velocity":40,"Duration":110294,"SoundDuration":110294,"Delta":162915806},{"NoteNumber":64,"Velocity":69,"Duration":106322,"SoundDuration":106322,"Delta":163136394},{"NoteNumber":33,"Velocity":45,"Duration":433097,"SoundDuration":433097,"Delta":163136394},{"NoteNumber":45,"Velocity":54,"Duration":433097,"SoundDuration":433097,"Delta":163136394},{"NoteNumber":61,"Velocity":58,"Duration":106322,"SoundDuration":106322,"Delta":163242717},{"NoteNumber":64,"Velocity":58,"Duration":106322,"SoundDuration":106322,"Delta":163349039},{"NoteNumber":61,"Velocity":57,"Duration":114129,"SoundDuration":114129,"Delta":163455362},{"NoteNumber":69,"Velocity":66,"Duration":111127,"SoundDuration":111127,"Delta":163569491},{"NoteNumber":33,"Velocity":30,"Duration":111127,"SoundDuration":111127,"Delta":163791746},{"NoteNumber":45,"Velocity":36,"Duration":111127,"SoundDuration":111127,"Delta":163791746},{"NoteNumber":68,"Velocity":55,"Duration":109074,"SoundDuration":109074,"Delta":164014001},{"NoteNumber":45,"Velocity":41,"Duration":449884,"SoundDuration":449884,"Delta":164014001},{"NoteNumber":33,"Velocity":34,"Duration":449884,"SoundDuration":449884,"Delta":164014001},{"NoteNumber":62,"Velocity":43,"Duration":109075,"SoundDuration":109075,"Delta":164123076},{"NoteNumber":68,"Velocity":43,"Duration":109074,"SoundDuration":109074,"Delta":164232151},{"NoteNumber":62,"Velocity":43,"Duration":122659,"SoundDuration":122659,"Delta":164341226},{"NoteNumber":71,"Velocity":55,"Duration":114129,"SoundDuration":114129,"Delta":164463886},{"NoteNumber":33,"Velocity":21,"Duration":114129,"SoundDuration":114129,"Delta":164692144},{"NoteNumber":45,"Velocity":25,"Duration":114129,"SoundDuration":114129,"Delta":164692144},{"NoteNumber":67,"Velocity":41,"Duration":156211,"SoundDuration":156211,"Delta":164960348},{"NoteNumber":33,"Velocity":28,"Duration":1196786,"SoundDuration":1196786,"Delta":164960348},{"NoteNumber":45,"Velocity":34,"Duration":1196786,"SoundDuration":1196786,"Delta":164960348},{"NoteNumber":64,"Velocity":34,"Duration":163337,"SoundDuration":163337,"Delta":165116559},{"NoteNumber":67,"Velocity":34,"Duration":170262,"SoundDuration":170262,"Delta":165279897},{"NoteNumber":64,"Velocity":34,"Duration":208015,"SoundDuration":208015,"Delta":165450159},{"NoteNumber":73,"Velocity":39,"Duration":498960,"SoundDuration":498960,"Delta":165658174},{"NoteNumber":71,"Velocity":50,"Duration":104609,"SoundDuration":104609,"Delta":166656094},{"NoteNumber":69,"Velocity":46,"Duration":104609,"SoundDuration":104609,"Delta":166760704},{"NoteNumber":68,"Velocity":46,"Duration":112452,"SoundDuration":112452,"Delta":166865314},{"NoteNumber":69,"Velocity":46,"Duration":112452,"SoundDuration":112452,"Delta":166977766},{"NoteNumber":66,"Velocity":48,"Duration":651212,"SoundDuration":651212,"Delta":167090218},{"NoteNumber":74,"Velocity":55,"Duration":651212,"SoundDuration":651212,"Delta":167090218},{"NoteNumber":50,"Velocity":32,"Duration":219957,"SoundDuration":219957,"Delta":167090218},{"NoteNumber":57,"Velocity":26,"Duration":217564,"SoundDuration":217564,"Delta":167310176},{"NoteNumber":54,"Velocity":26,"Duration":213690,"SoundDuration":213690,"Delta":167527740},{"NoteNumber":69,"Velocity":42,"Duration":213690,"SoundDuration":213690,"Delta":167741431},{"NoteNumber":57,"Velocity":26,"Duration":213690,"SoundDuration":213690,"Delta":167741431},{"NoteNumber":66,"Velocity":46,"Duration":213690,"SoundDuration":213690,"Delta":167955121},{"NoteNumber":50,"Velocity":30,"Duration":213690,"SoundDuration":213690,"Delta":167955121},{"NoteNumber":69,"Velocity":43,"Duration":213690,"SoundDuration":213690,"Delta":168168812},{"NoteNumber":57,"Velocity":28,"Duration":213690,"SoundDuration":213690,"Delta":168168812},{"NoteNumber":74,"Velocity":46,"Duration":213690,"SoundDuration":213690,"Delta":168382502},{"NoteNumber":54,"Velocity":28,"Duration":213690,"SoundDuration":213690,"Delta":168382502},{"NoteNumber":78,"Velocity":46,"Duration":171899,"SoundDuration":171899,"Delta":168596193},{"NoteNumber":57,"Velocity":28,"Duration":229199,"SoundDuration":229199,"Delta":168596193},{"NoteNumber":69,"Velocity":45,"Duration":57299,"SoundDuration":57299,"Delta":168768093},{"NoteNumber":81,"Velocity":54,"Duration":644464,"SoundDuration":644464,"Delta":168825393},{"NoteNumber":50,"Velocity":37,"Duration":213842,"SoundDuration":213842,"Delta":168825393},{"NoteNumber":57,"Velocity":26,"Duration":213842,"SoundDuration":213842,"Delta":169039236},{"NoteNumber":54,"Velocity":26,"Duration":216778,"SoundDuration":216778,"Delta":169253079},{"NoteNumber":78,"Velocity":40,"Duration":104975,"SoundDuration":104975,"Delta":169469857},{"NoteNumber":57,"Velocity":26,"Duration":209951,"SoundDuration":209951,"Delta":169469857},{"NoteNumber":74,"Velocity":40,"Duration":104975,"SoundDuration":104975,"Delta":169574833},{"NoteNumber":69,"Velocity":47,"Duration":106845,"SoundDuration":106845,"Delta":169679809},{"NoteNumber":50,"Velocity":31,"Duration":213690,"SoundDuration":213690,"Delta":169679809},{"NoteNumber":57,"Velocity":27,"Duration":213690,"SoundDuration":213690,"Delta":169893499},{"NoteNumber":74,"Velocity":45,"Duration":104246,"SoundDuration":104246,"Delta":170107190},{"NoteNumber":54,"Velocity":27,"Duration":208936,"SoundDuration":208936,"Delta":170107190},{"NoteNumber":76,"Velocity":40,"Duration":104690,"SoundDuration":104690,"Delta":170211436},{"NoteNumber":74,"Velocity":40,"Duration":104690,"SoundDuration":104690,"Delta":170316126},{"NoteNumber":57,"Velocity":27,"Duration":209379,"SoundDuration":209379,"Delta":170316126},{"NoteNumber":73,"Velocity":41,"Duration":104689,"SoundDuration":104689,"Delta":170420816},{"NoteNumber":71,"Velocity":48,"Duration":108389,"SoundDuration":108389,"Delta":170525506},{"NoteNumber":50,"Velocity":32,"Duration":216778,"SoundDuration":216778,"Delta":170525506},{"NoteNumber":59,"Velocity":26,"Duration":216778,"SoundDuration":216778,"Delta":170742285},{"NoteNumber":74,"Velocity":45,"Duration":104975,"SoundDuration":104975,"Delta":170959063},{"NoteNumber":55,"Velocity":26,"Duration":209951,"SoundDuration":209951,"Delta":170959063},{"NoteNumber":76,"Velocity":39,"Duration":104975,"SoundDuration":104975,"Delta":171064039},{"NoteNumber":74,"Velocity":40,"Duration":104975,"SoundDuration":104975,"Delta":171169015},{"NoteNumber":59,"Velocity":26,"Duration":209951,"SoundDuration":209951,"Delta":171169015},{"NoteNumber":73,"Velocity":41,"Duration":104975,"SoundDuration":104975,"Delta":171273990},{"NoteNumber":71,"Velocity":46,"Duration":107999,"SoundDuration":107999,"Delta":171378966},{"NoteNumber":50,"Velocity":31,"Duration":215998,"SoundDuration":215998,"Delta":171378966},{"NoteNumber":59,"Velocity":27,"Duration":215998,"SoundDuration":215998,"Delta":171594965},{"NoteNumber":86,"Velocity":48,"Duration":107999,"SoundDuration":107999,"Delta":171810963},{"NoteNumber":55,"Velocity":27,"Duration":214088,"SoundDuration":214088,"Delta":171810963},{"NoteNumber":83,"Velocity":40,"Duration":106089,"SoundDuration":106089,"Delta":171918962},{"NoteNumber":86,"Velocity":44,"Duration":106089,"SoundDuration":106089,"Delta":172025052},{"NoteNumber":59,"Velocity":27,"Duration":212178,"SoundDuration":212178,"Delta":172025052},{"NoteNumber":83,"Velocity":40,"Duration":106089,"SoundDuration":106089,"Delta":172131141},{"NoteNumber":81,"Velocity":50,"Duration":106089,"SoundDuration":106089,"Delta":172237231},{"NoteNumber":50,"Velocity":37,"Duration":212934,"SoundDuration":212934,"Delta":172237231},{"NoteNumber":86,"Velocity":51,"Duration":106845,"SoundDuration":106845,"Delta":172343320},{"NoteNumber":85,"Velocity":48,"Duration":106845,"SoundDuration":106845,"Delta":172450166},{"NoteNumber":57,"Velocity":26,"Duration":213352,"SoundDuration":213352,"Delta":172450166},{"NoteNumber":83,"Velocity":46,"Duration":106507,"SoundDuration":106507,"Delta":172557011},{"NoteNumber":81,"Velocity":48,"Duration":107682,"SoundDuration":107682,"Delta":172663519},{"NoteNumber":54,"Velocity":26,"Duration":216227,"SoundDuration":216227,"Delta":172663519},{"NoteNumber":79,"Velocity":43,"Duration":108545,"SoundDuration":108545,"Delta":172771201},{"NoteNumber":78,"Velocity":43,"Duration":120695,"SoundDuration":120695,"Delta":172879746},{"NoteNumber":57,"Velocity":26,"Duration":241390,"SoundDuration":241390,"Delta":172879746},{"NoteNumber":76,"Velocity":42,"Duration":120695,"SoundDuration":120695,"Delta":173000442},{"NoteNumber":74,"Velocity":48,"Duration":431996,"SoundDuration":431996,"Delta":173121137},{"NoteNumber":54,"Velocity":31,"Duration":215998,"SoundDuration":215998,"Delta":173121137},{"NoteNumber":57,"Velocity":21,"Duration":215998,"SoundDuration":215998,"Delta":173337135},{"NoteNumber":50,"Velocity":22,"Duration":215998,"SoundDuration":215998,"Delta":173553134},{"NoteNumber":66,"Velocity":41,"Duration":215998,"SoundDuration":215998,"Delta":173769132},{"NoteNumber":57,"Velocity":22,"Duration":215998,"SoundDuration":215998,"Delta":173769132},{"NoteNumber":67,"Velocity":46,"Duration":109178,"SoundDuration":109178,"Delta":173985131},{"NoteNumber":49,"Velocity":29,"Duration":218356,"SoundDuration":218356,"Delta":173985131},{"NoteNumber":67,"Velocity":41,"Duration":109178,"SoundDuration":109178,"Delta":174203487},{"NoteNumber":57,"Velocity":24,"Duration":215644,"SoundDuration":215644,"Delta":174203487},{"NoteNumber":69,"Velocity":50,"Duration":106465,"SoundDuration":106465,"Delta":174419132},{"NoteNumber":52,"Velocity":24,"Duration":212931,"SoundDuration":212931,"Delta":174419132},{"NoteNumber":67,"Velocity":41,"Duration":106466,"SoundDuration":106466,"Delta":174525598},{"NoteNumber":66,"Velocity":42,"Duration":114599,"SoundDuration":114599,"Delta":174632064},{"NoteNumber":57,"Velocity":24,"Duration":229199,"SoundDuration":229199,"Delta":174632064},{"NoteNumber":67,"Velocity":48,"Duration":114599,"SoundDuration":114599,"Delta":174746664},{"NoteNumber":76,"Velocity":56,"Duration":647995,"SoundDuration":647995,"Delta":174861264},{"NoteNumber":49,"Velocity":31,"Duration":215998,"SoundDuration":215998,"Delta":174861264},{"NoteNumber":57,"Velocity":27,"Duration":215998,"SoundDuration":215998,"Delta":175077262},{"NoteNumber":52,"Velocity":27,"Duration":215998,"SoundDuration":215998,"Delta":175293261},{"NoteNumber":67,"Velocity":40,"Duration":215998,"SoundDuration":215998,"Delta":175509259},{"NoteNumber":57,"Velocity":27,"Duration":215998,"SoundDuration":215998,"Delta":175509259},{"NoteNumber":66,"Velocity":46,"Duration":109178,"SoundDuration":109178,"Delta":175725258},{"NoteNumber":50,"Velocity":32,"Duration":218356,"SoundDuration":218356,"Delta":175725258},{"NoteNumber":66,"Velocity":40,"Duration":109178,"SoundDuration":109178,"Delta":175943614},{"NoteNumber":57,"Velocity":23,"Duration":218356,"SoundDuration":218356,"Delta":175943614},{"NoteNumber":67,"Velocity":50,"Duration":107226,"SoundDuration":107226,"Delta":176161971},{"NoteNumber":54,"Velocity":23,"Duration":214453,"SoundDuration":214453,"Delta":176161971},{"NoteNumber":66,"Velocity":40,"Duration":107226,"SoundDuration":107226,"Delta":176269198},{"NoteNumber":64,"Velocity":46,"Duration":113731,"SoundDuration":113731,"Delta":176376425},{"NoteNumber":57,"Velocity":23,"Duration":227462,"SoundDuration":227462,"Delta":176376425},{"NoteNumber":66,"Velocity":48,"Duration":113731,"SoundDuration":113731,"Delta":176490156},{"NoteNumber":74,"Velocity":56,"Duration":647995,"SoundDuration":647995,"Delta":176603887},{"NoteNumber":50,"Velocity":31,"Duration":215998,"SoundDuration":215998,"Delta":176603887},{"NoteNumber":57,"Velocity":27,"Duration":215998,"SoundDuration":215998,"Delta":176819886},{"NoteNumber":54,"Velocity":27,"Duration":215998,"SoundDuration":215998,"Delta":177035884},{"NoteNumber":66,"Velocity":40,"Duration":215998,"SoundDuration":215998,"Delta":177251883},{"NoteNumber":57,"Velocity":27,"Duration":215998,"SoundDuration":215998,"Delta":177251883},{"NoteNumber":66,"Velocity":47,"Duration":219154,"SoundDuration":219154,"Delta":177467881},{"NoteNumber":43,"Velocity":32,"Duration":884065,"SoundDuration":884065,"Delta":177467881},{"NoteNumber":55,"Velocity":32,"Duration":884065,"SoundDuration":884065,"Delta":177467881},{"NoteNumber":64,"Velocity":37,"Duration":219154,"SoundDuration":219154,"Delta":177687035},{"NoteNumber":67,"Velocity":40,"Duration":219154,"SoundDuration":219154,"Delta":177906189},{"NoteNumber":71,"Velocity":37,"Duration":226603,"SoundDuration":226603,"Delta":178125343},{"NoteNumber":71,"Velocity":45,"Duration":216778,"SoundDuration":216778,"Delta":178351946},{"NoteNumber":45,"Velocity":32,"Duration":886490,"SoundDuration":886490,"Delta":178351946},{"NoteNumber":57,"Velocity":32,"Duration":886490,"SoundDuration":886490,"Delta":178351946},{"NoteNumber":61,"Velocity":37,"Duration":216778,"SoundDuration":216778,"Delta":178568725},{"NoteNumber":64,"Velocity":40,"Duration":218356,"SoundDuration":218356,"Delta":178785503},{"NoteNumber":69,"Velocity":37,"Duration":234576,"SoundDuration":234576,"Delta":179003860},{"NoteNumber":67,"Velocity":45,"Duration":883103,"SoundDuration":883103,"Delta":179238436},{"NoteNumber":64,"Velocity":45,"Duration":883103,"SoundDuration":883103,"Delta":179238436},{"NoteNumber":38,"Velocity":31,"Duration":219957,"SoundDuration":219957,"Delta":179458394},{"NoteNumber":42,"Velocity":32,"Duration":219957,"SoundDuration":219957,"Delta":179678351},{"NoteNumber":45,"Velocity":34,"Duration":223230,"SoundDuration":223230,"Delta":179898309},{"NoteNumber":62,"Velocity":40,"Duration":440346,"SoundDuration":440346,"Delta":180121540},{"NoteNumber":66,"Velocity":40,"Duration":440346,"SoundDuration":440346,"Delta":180121540},{"NoteNumber":50,"Velocity":36,"Duration":221192,"SoundDuration":221192,"Delta":180121540},{"NoteNumber":45,"Velocity":31,"Duration":219154,"SoundDuration":219154,"Delta":180342732},{"NoteNumber":38,"Velocity":32,"Duration":219154,"SoundDuration":219154,"Delta":180561886},{"NoteNumber":66,"Velocity":40,"Duration":219021,"SoundDuration":219021,"Delta":180781040},{"NoteNumber":50,"Velocity":31,"Duration":219021,"SoundDuration":219021,"Delta":180781040},{"NoteNumber":67,"Velocity":46,"Duration":109046,"SoundDuration":109046,"Delta":181000061},{"NoteNumber":49,"Velocity":43,"Duration":217697,"SoundDuration":217697,"Delta":181000061},{"NoteNumber":64,"Velocity":37,"Duration":108651,"SoundDuration":108651,"Delta":181109107},{"NoteNumber":66,"Velocity":38,"Duration":108259,"SoundDuration":108259,"Delta":181217759},{"NoteNumber":57,"Velocity":36,"Duration":216129,"SoundDuration":216129,"Delta":181217759},{"NoteNumber":67,"Velocity":39,"Duration":107870,"SoundDuration":107870,"Delta":181326018},{"NoteNumber":69,"Velocity":46,"Duration":107483,"SoundDuration":107483,"Delta":181433888},{"NoteNumber":52,"Velocity":40,"Duration":214456,"SoundDuration":214456,"Delta":181433888},{"NoteNumber":71,"Velocity":39,"Duration":106972,"SoundDuration":106972,"Delta":181541372},{"NoteNumber":73,"Velocity":39,"Duration":106341,"SoundDuration":106341,"Delta":181648344},{"NoteNumber":57,"Velocity":36,"Duration":212430,"SoundDuration":212430,"Delta":181648344},{"NoteNumber":74,"Velocity":40,"Duration":106089,"SoundDuration":106089,"Delta":181754685},{"NoteNumber":76,"Velocity":48,"Duration":106089,"SoundDuration":106089,"Delta":181860775},{"NoteNumber":49,"Velocity":46,"Duration":212178,"SoundDuration":212178,"Delta":181860775},{"NoteNumber":74,"Velocity":40,"Duration":106089,"SoundDuration":106089,"Delta":181966864},{"NoteNumber":73,"Velocity":41,"Duration":106089,"SoundDuration":106089,"Delta":182072954},{"NoteNumber":57,"Velocity":36,"Duration":212178,"SoundDuration":212178,"Delta":182072954},{"NoteNumber":71,"Velocity":42,"Duration":106089,"SoundDuration":106089,"Delta":182179043},{"NoteNumber":69,"Velocity":48,"Duration":106089,"SoundDuration":106089,"Delta":182285133},{"NoteNumber":52,"Velocity":39,"Duration":212179,"SoundDuration":212179,"Delta":182285133},{"NoteNumber":67,"Velocity":41,"Duration":106089,"SoundDuration":106089,"Delta":182391222},{"NoteNumber":66,"Velocity":41,"Duration":117288,"SoundDuration":117288,"Delta":182497312},{"NoteNumber":57,"Velocity":36,"Duration":234576,"SoundDuration":234576,"Delta":182497312},{"NoteNumber":64,"Velocity":41,"Duration":117288,"SoundDuration":117288,"Delta":182614600},{"NoteNumber":66,"Velocity":49,"Duration":107611,"SoundDuration":107611,"Delta":182731888},{"NoteNumber":50,"Velocity":47,"Duration":215223,"SoundDuration":215223,"Delta":182731888},{"NoteNumber":62,"Velocity":40,"Duration":107611,"SoundDuration":107611,"Delta":182839500},{"NoteNumber":64,"Velocity":40,"Duration":107611,"SoundDuration":107611,"Delta":182947112},{"NoteNumber":57,"Velocity":36,"Duration":215223,"SoundDuration":215223,"Delta":182947112},{"NoteNumber":66,"Velocity":42,"Duration":107611,"SoundDuration":107611,"Delta":183054724},{"NoteNumber":67,"Velocity":51,"Duration":107611,"SoundDuration":107611,"Delta":183162335},{"NoteNumber":54,"Velocity":41,"Duration":215223,"SoundDuration":215223,"Delta":183162335},{"NoteNumber":69,"Velocity":42,"Duration":107611,"SoundDuration":107611,"Delta":183269947},{"NoteNumber":71,"Velocity":44,"Duration":107611,"SoundDuration":107611,"Delta":183377559},{"NoteNumber":57,"Velocity":36,"Duration":215223,"SoundDuration":215223,"Delta":183377559},{"NoteNumber":73,"Velocity":46,"Duration":107611,"SoundDuration":107611,"Delta":183485171},{"NoteNumber":74,"Velocity":57,"Duration":108259,"SoundDuration":108259,"Delta":183592782},{"NoteNumber":50,"Velocity":48,"Duration":217892,"SoundDuration":217892,"Delta":183592782},{"NoteNumber":76,"Velocity":47,"Duration":109632,"SoundDuration":109632,"Delta":183701042},{"NoteNumber":78,"Velocity":49,"Duration":110792,"SoundDuration":110792,"Delta":183810675},{"NoteNumber":57,"Velocity":40,"Duration":223078,"SoundDuration":223078,"Delta":183810675},{"NoteNumber":79,"Velocity":48,"Duration":112285,"SoundDuration":112285,"Delta":183921467},{"NoteNumber":81,"Velocity":57,"Duration":113474,"SoundDuration":113474,"Delta":184033753},{"NoteNumber":54,"Velocity":45,"Duration":228515,"SoundDuration":228515,"Delta":184033753},{"NoteNumber":83,"Velocity":57,"Duration":115041,"SoundDuration":115041,"Delta":184147228},{"NoteNumber":85,"Velocity":64,"Duration":116320,"SoundDuration":116320,"Delta":184262269},{"NoteNumber":57,"Velocity":43,"Duration":234349,"SoundDuration":234349,"Delta":184262269},{"NoteNumber":86,"Velocity":69,"Duration":118028,"SoundDuration":118028,"Delta":184378589},{"NoteNumber":55,"Velocity":58,"Duration":884199,"SoundDuration":884199,"Delta":184496618},{"NoteNumber":43,"Velocity":49,"Duration":884199,"SoundDuration":884199,"Delta":184496618},{"NoteNumber":71,"Velocity":54,"Duration":119151,"SoundDuration":119151,"Delta":184615770},{"NoteNumber":76,"Velocity":55,"Duration":108959,"SoundDuration":108959,"Delta":184734922},{"NoteNumber":79,"Velocity":61,"Duration":108941,"SoundDuration":108941,"Delta":184843881},{"NoteNumber":83,"Velocity":65,"Duration":107459,"SoundDuration":107459,"Delta":184952823},{"NoteNumber":81,"Velocity":59,"Duration":106845,"SoundDuration":106845,"Delta":185060282},{"NoteNumber":79,"Velocity":59,"Duration":106845,"SoundDuration":106845,"Delta":185167127},{"NoteNumber":78,"Velocity":55,"Duration":106845,"SoundDuration":106845,"Delta":185273972},{"NoteNumber":76,"Velocity":54,"Duration":106845,"SoundDuration":106845,"Delta":185380818},{"NoteNumber":45,"Velocity":41,"Duration":428915,"SoundDuration":428915,"Delta":185380818},{"NoteNumber":57,"Velocity":49,"Duration":428915,"SoundDuration":428915,"Delta":185380818},{"NoteNumber":74,"Velocity":53,"Duration":106896,"SoundDuration":106896,"Delta":185487663},{"NoteNumber":73,"Velocity":51,"Duration":107355,"SoundDuration":107355,"Delta":185594559},{"NoteNumber":71,"Velocity":51,"Duration":107818,"SoundDuration":107818,"Delta":185701914},{"NoteNumber":69,"Velocity":55,"Duration":108467,"SoundDuration":108467,"Delta":185809733},{"NoteNumber":45,"Velocity":38,"Duration":436937,"SoundDuration":436937,"Delta":185809733},{"NoteNumber":57,"Velocity":45,"Duration":436937,"SoundDuration":436937,"Delta":185809733},{"NoteNumber":67,"Velocity":60,"Duration":108940,"SoundDuration":108940,"Delta":185918201},{"NoteNumber":66,"Velocity":63,"Duration":109550,"SoundDuration":109550,"Delta":186027141},{"NoteNumber":64,"Velocity":65,"Duration":109978,"SoundDuration":109978,"Delta":186136692},{"NoteNumber":62,"Velocity":78,"Duration":644945,"SoundDuration":644945,"Delta":186246671},{"NoteNumber":38,"Velocity":63,"Duration":213690,"SoundDuration":213690,"Delta":186246671},{"NoteNumber":42,"Velocity":50,"Duration":213690,"SoundDuration":213690,"Delta":186460361},{"NoteNumber":45,"Velocity":56,"Duration":217564,"SoundDuration":217564,"Delta":186674052},{"NoteNumber":62,"Velocity":61,"Duration":213690,"SoundDuration":213690,"Delta":186891616},{"NoteNumber":50,"Velocity":50,"Duration":213690,"SoundDuration":213690,"Delta":186891616},{"NoteNumber":61,"Velocity":65,"Duration":213690,"SoundDuration":213690,"Delta":187105307},{"NoteNumber":38,"Velocity":46,"Duration":213690,"SoundDuration":213690,"Delta":187105307},{"NoteNumber":62,"Velocity":63,"Duration":213690,"SoundDuration":213690,"Delta":187318997},{"NoteNumber":50,"Velocity":36,"Duration":213690,"SoundDuration":213690,"Delta":187318997},{"NoteNumber":60,"Velocity":65,"Duration":213690,"SoundDuration":213690,"Delta":187532688},{"NoteNumber":38,"Velocity":40,"Duration":213690,"SoundDuration":213690,"Delta":187532688},{"NoteNumber":66,"Velocity":62,"Duration":219957,"SoundDuration":219957,"Delta":187746378},{"NoteNumber":50,"Velocity":36,"Duration":219957,"SoundDuration":219957,"Delta":187746378},{"NoteNumber":59,"Velocity":65,"Duration":212931,"SoundDuration":212931,"Delta":187966336},{"NoteNumber":38,"Velocity":46,"Duration":212931,"SoundDuration":212931,"Delta":187966336},{"NoteNumber":67,"Velocity":63,"Duration":212931,"SoundDuration":212931,"Delta":188179268},{"NoteNumber":50,"Velocity":30,"Duration":212931,"SoundDuration":212931,"Delta":188179268},{"NoteNumber":69,"Velocity":65,"Duration":104609,"SoundDuration":104609,"Delta":188392200},{"NoteNumber":38,"Velocity":36,"Duration":209219,"SoundDuration":209219,"Delta":188392200},{"NoteNumber":67,"Velocity":62,"Duration":104609,"SoundDuration":104609,"Delta":188496809},{"NoteNumber":66,"Velocity":62,"Duration":104609,"SoundDuration":104609,"Delta":188601419},{"NoteNumber":50,"Velocity":31,"Duration":209219,"SoundDuration":209219,"Delta":188601419},{"NoteNumber":67,"Velocity":62,"Duration":104609,"SoundDuration":104609,"Delta":188706029},{"NoteNumber":71,"Velocity":71,"Duration":216778,"SoundDuration":216778,"Delta":188810639},{"NoteNumber":38,"Velocity":46,"Duration":216778,"SoundDuration":216778,"Delta":188810639},{"NoteNumber":67,"Velocity":65,"Duration":216778,"SoundDuration":216778,"Delta":189027417},{"NoteNumber":50,"Velocity":33,"Duration":216778,"SoundDuration":216778,"Delta":189027417},{"NoteNumber":64,"Velocity":70,"Duration":216778,"SoundDuration":216778,"Delta":189244196},{"NoteNumber":38,"Velocity":38,"Duration":216778,"SoundDuration":216778,"Delta":189244196},{"NoteNumber":73,"Velocity":68,"Duration":237360,"SoundDuration":237360,"Delta":189460974},{"NoteNumber":50,"Velocity":32,"Duration":237360,"SoundDuration":237360,"Delta":189460974},{"NoteNumber":66,"Velocity":73,"Duration":644945,"SoundDuration":644945,"Delta":189698335},{"NoteNumber":74,"Velocity":82,"Duration":644945,"SoundDuration":644945,"Delta":189698335},{"NoteNumber":38,"Velocity":63,"Duration":213690,"SoundDuration":213690,"Delta":189698335},{"NoteNumber":42,"Velocity":50,"Duration":213690,"SoundDuration":213690,"Delta":189912025},{"NoteNumber":45,"Velocity":56,"Duration":217564,"SoundDuration":217564,"Delta":190125716},{"NoteNumber":74,"Velocity":67,"Duration":213690,"SoundDuration":213690,"Delta":190343280},{"NoteNumber":50,"Velocity":50,"Duration":213690,"SoundDuration":213690,"Delta":190343280},{"NoteNumber":73,"Velocity":71,"Duration":213690,"SoundDuration":213690,"Delta":190556971},{"NoteNumber":38,"Velocity":46,"Duration":213690,"SoundDuration":213690,"Delta":190556971},{"NoteNumber":74,"Velocity":69,"Duration":213690,"SoundDuration":213690,"Delta":190770661},{"NoteNumber":50,"Velocity":32,"Duration":213690,"SoundDuration":213690,"Delta":190770661},{"NoteNumber":72,"Velocity":71,"Duration":213690,"SoundDuration":213690,"Delta":190984352},{"NoteNumber":38,"Velocity":37,"Duration":213690,"SoundDuration":213690,"Delta":190984352},{"NoteNumber":78,"Velocity":68,"Duration":219957,"SoundDuration":219957,"Delta":191198042},{"NoteNumber":50,"Velocity":33,"Duration":219957,"SoundDuration":219957,"Delta":191198042},{"NoteNumber":71,"Velocity":71,"Duration":106466,"SoundDuration":106466,"Delta":191418000},{"NoteNumber":38,"Velocity":46,"Duration":212931,"SoundDuration":212931,"Delta":191418000},{"NoteNumber":79,"Velocity":64,"Duration":106465,"SoundDuration":106465,"Delta":191524466},{"NoteNumber":78,"Velocity":69,"Duration":106466,"SoundDuration":106466,"Delta":191630932},{"NoteNumber":50,"Velocity":31,"Duration":212931,"SoundDuration":212931,"Delta":191630932},{"NoteNumber":79,"Velocity":65,"Duration":106465,"SoundDuration":106465,"Delta":191737398},{"NoteNumber":81,"Velocity":71,"Duration":104609,"SoundDuration":104609,"Delta":191843864},{"NoteNumber":38,"Velocity":36,"Duration":209219,"SoundDuration":209219,"Delta":191843864},{"NoteNumber":79,"Velocity":68,"Duration":104609,"SoundDuration":104609,"Delta":191948473},{"NoteNumber":78,"Velocity":68,"Duration":104609,"SoundDuration":104609,"Delta":192053083},{"NoteNumber":50,"Velocity":30,"Duration":209219,"SoundDuration":209219,"Delta":192053083},{"NoteNumber":79,"Velocity":68,"Duration":104609,"SoundDuration":104609,"Delta":192157693},{"NoteNumber":83,"Velocity":78,"Duration":212313,"SoundDuration":212313,"Delta":192262303},{"NoteNumber":38,"Velocity":46,"Duration":212313,"SoundDuration":212313,"Delta":192262303},{"NoteNumber":79,"Velocity":71,"Duration":212314,"SoundDuration":212314,"Delta":192474617},{"NoteNumber":50,"Velocity":31,"Duration":212314,"SoundDuration":212314,"Delta":192474617},{"NoteNumber":76,"Velocity":77,"Duration":212313,"SoundDuration":212313,"Delta":192686931},{"NoteNumber":38,"Velocity":37,"Duration":212313,"SoundDuration":212313,"Delta":192686931},{"NoteNumber":85,"Velocity":71,"Duration":221140,"SoundDuration":221140,"Delta":192899245},{"NoteNumber":50,"Velocity":35,"Duration":221140,"SoundDuration":221140,"Delta":192899245},{"NoteNumber":86,"Velocity":88,"Duration":105310,"SoundDuration":105310,"Delta":193120386},{"NoteNumber":38,"Velocity":63,"Duration":210949,"SoundDuration":210949,"Delta":193120386},{"NoteNumber":74,"Velocity":64,"Duration":105639,"SoundDuration":105639,"Delta":193225696},{"NoteNumber":76,"Velocity":64,"Duration":105386,"SoundDuration":105386,"Delta":193331336},{"NoteNumber":50,"Velocity":36,"Duration":210406,"SoundDuration":210406,"Delta":193331336},{"NoteNumber":78,"Velocity":64,"Duration":105019,"SoundDuration":105019,"Delta":193436722},{"NoteNumber":79,"Velocity":64,"Duration":104756,"SoundDuration":104756,"Delta":193541742},{"NoteNumber":38,"Velocity":45,"Duration":209262,"SoundDuration":209262,"Delta":193541742},{"NoteNumber":81,"Velocity":67,"Duration":104506,"SoundDuration":104506,"Delta":193646499},{"NoteNumber":83,"Velocity":68,"Duration":104258,"SoundDuration":104258,"Delta":193751005},{"NoteNumber":50,"Velocity":35,"Duration":215246,"SoundDuration":215246,"Delta":193751005},{"NoteNumber":85,"Velocity":70,"Duration":110987,"SoundDuration":110987,"Delta":193855264},{"NoteNumber":86,"Velocity":82,"Duration":105775,"SoundDuration":105775,"Delta":193966251},{"NoteNumber":37,"Velocity":49,"Duration":211677,"SoundDuration":211677,"Delta":193966251},{"NoteNumber":74,"Velocity":71,"Duration":105902,"SoundDuration":105902,"Delta":194072027},{"NoteNumber":76,"Velocity":71,"Duration":105966,"SoundDuration":105966,"Delta":194177929},{"NoteNumber":49,"Velocity":36,"Duration":211488,"SoundDuration":211488,"Delta":194177929},{"NoteNumber":78,"Velocity":71,"Duration":105522,"SoundDuration":105522,"Delta":194283895},{"NoteNumber":79,"Velocity":71,"Duration":105082,"SoundDuration":105082,"Delta":194389418},{"NoteNumber":37,"Velocity":43,"Duration":209659,"SoundDuration":209659,"Delta":194389418},{"NoteNumber":81,"Velocity":71,"Duration":104577,"SoundDuration":104577,"Delta":194494501},{"NoteNumber":83,"Velocity":73,"Duration":104145,"SoundDuration":104145,"Delta":194599078},{"NoteNumber":49,"Velocity":36,"Duration":224347,"SoundDuration":224347,"Delta":194599078},{"NoteNumber":85,"Velocity":77,"Duration":120202,"SoundDuration":120202,"Delta":194703223},{"NoteNumber":86,"Velocity":82,"Duration":105775,"SoundDuration":105775,"Delta":194823425},{"NoteNumber":35,"Velocity":65,"Duration":211677,"SoundDuration":211677,"Delta":194823425},{"NoteNumber":74,"Velocity":71,"Duration":105902,"SoundDuration":105902,"Delta":194929200},{"NoteNumber":76,"Velocity":71,"Duration":105966,"SoundDuration":105966,"Delta":195035103},{"NoteNumber":47,"Velocity":38,"Duration":211488,"SoundDuration":211488,"Delta":195035103},{"NoteNumber":78,"Velocity":71,"Duration":105522,"SoundDuration":105522,"Delta":195141069},{"NoteNumber":79,"Velocity":71,"Duration":105082,"SoundDuration":105082,"Delta":195246591},{"NoteNumber":35,"Velocity":48,"Duration":209659,"SoundDuration":209659,"Delta":195246591},{"NoteNumber":81,"Velocity":71,"Duration":104577,"SoundDuration":104577,"Delta":195351674},{"NoteNumber":83,"Velocity":73,"Duration":119722,"SoundDuration":119722,"Delta":195456251},{"NoteNumber":47,"Velocity":41,"Duration":232682,"SoundDuration":232682,"Delta":195456251},{"NoteNumber":85,"Velocity":77,"Duration":112960,"SoundDuration":112960,"Delta":195575974},{"NoteNumber":86,"Velocity":89,"Duration":225920,"SoundDuration":225920,"Delta":195688934},{"NoteNumber":32,"Velocity":66,"Duration":225920,"SoundDuration":225920,"Delta":195688934},{"NoteNumber":74,"Velocity":76,"Duration":225920,"SoundDuration":225920,"Delta":195914854},{"NoteNumber":44,"Velocity":45,"Duration":225920,"SoundDuration":225920,"Delta":195914854},{"NoteNumber":76,"Velocity":86,"Duration":106156,"SoundDuration":106156,"Delta":196140775},{"NoteNumber":32,"Velocity":56,"Duration":212313,"SoundDuration":212313,"Delta":196140775},{"NoteNumber":74,"Velocity":71,"Duration":106156,"SoundDuration":106156,"Delta":196246932},{"NoteNumber":73,"Velocity":75,"Duration":106156,"SoundDuration":106156,"Delta":196353089},{"NoteNumber":44,"Velocity":45,"Duration":224313,"SoundDuration":224313,"Delta":196353089},{"NoteNumber":74,"Velocity":77,"Duration":118156,"SoundDuration":118156,"Delta":196459246},{"NoteNumber":73,"Velocity":69,"Duration":115357,"SoundDuration":115357,"Delta":196577403},{"NoteNumber":76,"Velocity":69,"Duration":115357,"SoundDuration":115357,"Delta":196577403},{"NoteNumber":81,"Velocity":82,"Duration":115357,"SoundDuration":115357,"Delta":196577403},{"NoteNumber":45,"Velocity":75,"Duration":115357,"SoundDuration":115357,"Delta":196577403},{"NoteNumber":33,"Velocity":75,"Duration":115357,"SoundDuration":115357,"Delta":196577403},{"NoteNumber":73,"Velocity":56,"Duration":113576,"SoundDuration":113576,"Delta":197038835},{"NoteNumber":76,"Velocity":56,"Duration":113576,"SoundDuration":113576,"Delta":197038835},{"NoteNumber":81,"Velocity":67,"Duration":113576,"SoundDuration":113576,"Delta":197038835},{"NoteNumber":45,"Velocity":49,"Duration":113576,"SoundDuration":113576,"Delta":197038835},{"NoteNumber":57,"Velocity":59,"Duration":113576,"SoundDuration":113576,"Delta":197038835},{"NoteNumber":81,"Velocity":69,"Duration":126860,"SoundDuration":126860,"Delta":197493140},{"NoteNumber":76,"Velocity":59,"Duration":126860,"SoundDuration":126860,"Delta":197493140},{"NoteNumber":73,"Velocity":59,"Duration":126860,"SoundDuration":126860,"Delta":197493140},{"NoteNumber":45,"Velocity":49,"Duration":126860,"SoundDuration":126860,"Delta":197493140},{"NoteNumber":57,"Velocity":59,"Duration":126860,"SoundDuration":126860,"Delta":197493140},{"NoteNumber":79,"Velocity":50,"Duration":227152,"SoundDuration":227152,"Delta":198000582},{"NoteNumber":78,"Velocity":46,"Duration":227152,"SoundDuration":227152,"Delta":198227734},{"NoteNumber":76,"Velocity":50,"Duration":340728,"SoundDuration":340728,"Delta":198454887},{"NoteNumber":67,"Velocity":31,"Duration":227152,"SoundDuration":227152,"Delta":198454887},{"NoteNumber":69,"Velocity":24,"Duration":227152,"SoundDuration":227152,"Delta":198682039},{"NoteNumber":76,"Velocity":47,"Duration":460633,"SoundDuration":460633,"Delta":198909192},{"NoteNumber":67,"Velocity":31,"Duration":227152,"SoundDuration":227152,"Delta":198909192},{"NoteNumber":69,"Velocity":26,"Duration":233481,"SoundDuration":233481,"Delta":199136344},{"NoteNumber":81,"Velocity":50,"Duration":452523,"SoundDuration":452523,"Delta":199369825},{"NoteNumber":67,"Velocity":31,"Duration":226261,"SoundDuration":226261,"Delta":199369825},{"NoteNumber":69,"Velocity":25,"Duration":226261,"SoundDuration":226261,"Delta":199596087},{"NoteNumber":73,"Velocity":46,"Duration":466453,"SoundDuration":466453,"Delta":199822348},{"NoteNumber":67,"Velocity":31,"Duration":226261,"SoundDuration":226261,"Delta":199822348},{"NoteNumber":69,"Velocity":28,"Duration":240192,"SoundDuration":240192,"Delta":200048610},{"NoteNumber":76,"Velocity":50,"Duration":893275,"SoundDuration":893275,"Delta":200288802},{"NoteNumber":66,"Velocity":31,"Duration":227152,"SoundDuration":227152,"Delta":200288802},{"NoteNumber":69,"Velocity":18,"Duration":222816,"SoundDuration":222816,"Delta":200515954},{"NoteNumber":66,"Velocity":20,"Duration":217045,"SoundDuration":217045,"Delta":200738771},{"NoteNumber":69,"Velocity":15,"Duration":226261,"SoundDuration":226261,"Delta":200955816},{"NoteNumber":74,"Velocity":44,"Duration":453859,"SoundDuration":453859,"Delta":201182078},{"NoteNumber":66,"Velocity":31,"Duration":226707,"SoundDuration":226707,"Delta":201182078},{"NoteNumber":69,"Velocity":23,"Duration":227152,"SoundDuration":227152,"Delta":201408785},{"NoteNumber":76,"Velocity":51,"Duration":220313,"SoundDuration":220313,"Delta":201635937},{"NoteNumber":66,"Velocity":33,"Duration":220313,"SoundDuration":220313,"Delta":201635937},{"NoteNumber":78,"Velocity":52,"Duration":235367,"SoundDuration":235367,"Delta":201856250},{"NoteNumber":69,"Velocity":30,"Duration":235367,"SoundDuration":235367,"Delta":201856250},{"NoteNumber":79,"Velocity":60,"Duration":342049,"SoundDuration":342049,"Delta":202091618},{"NoteNumber":64,"Velocity":38,"Duration":228033,"SoundDuration":228033,"Delta":202091618},{"NoteNumber":69,"Velocity":24,"Duration":228032,"SoundDuration":228032,"Delta":202319651},{"NoteNumber":79,"Velocity":47,"Duration":458749,"SoundDuration":458749,"Delta":202547684},{"NoteNumber":57,"Velocity":31,"Duration":228033,"SoundDuration":228033,"Delta":202547684},{"NoteNumber":69,"Velocity":26,"Duration":230716,"SoundDuration":230716,"Delta":202775717},{"NoteNumber":78,"Velocity":50,"Duration":454305,"SoundDuration":454305,"Delta":203006433},{"NoteNumber":62,"Velocity":31,"Duration":227152,"SoundDuration":227152,"Delta":203006433},{"NoteNumber":69,"Velocity":25,"Duration":227152,"SoundDuration":227152,"Delta":203233586},{"NoteNumber":78,"Velocity":46,"Duration":467344,"SoundDuration":467344,"Delta":203460738},{"NoteNumber":57,"Velocity":31,"Duration":227152,"SoundDuration":227152,"Delta":203460738},{"NoteNumber":69,"Velocity":28,"Duration":240192,"SoundDuration":240192,"Delta":203687891},{"NoteNumber":76,"Velocity":54,"Duration":222816,"SoundDuration":222816,"Delta":203928083},{"NoteNumber":61,"Velocity":31,"Duration":222816,"SoundDuration":222816,"Delta":203928083},{"NoteNumber":69,"Velocity":23,"Duration":249397,"SoundDuration":249397,"Delta":204150899},{"NoteNumber":81,"Velocity":49,"Duration":894805,"SoundDuration":894805,"Delta":204400297},{"NoteNumber":57,"Velocity":30,"Duration":226261,"SoundDuration":226261,"Delta":204400297},{"NoteNumber":69,"Velocity":24,"Duration":226261,"SoundDuration":226261,"Delta":204626558},{"NoteNumber":61,"Velocity":31,"Duration":221140,"SoundDuration":221140,"Delta":204852820},{"NoteNumber":69,"Velocity":23,"Duration":221141,"SoundDuration":221141,"Delta":205073961},{"NoteNumber":79,"Velocity":50,"Duration":221140,"SoundDuration":221140,"Delta":205295102},{"NoteNumber":64,"Velocity":31,"Duration":221140,"SoundDuration":221140,"Delta":205295102},{"NoteNumber":78,"Velocity":46,"Duration":231642,"SoundDuration":231642,"Delta":205516243},{"NoteNumber":69,"Velocity":23,"Duration":231642,"SoundDuration":231642,"Delta":205516243},{"NoteNumber":76,"Velocity":50,"Duration":339392,"SoundDuration":339392,"Delta":205747885},{"NoteNumber":67,"Velocity":31,"Duration":226261,"SoundDuration":226261,"Delta":205747885},{"NoteNumber":69,"Velocity":24,"Duration":226261,"SoundDuration":226261,"Delta":205974147},{"NoteNumber":76,"Velocity":47,"Duration":445632,"SoundDuration":445632,"Delta":206200408},{"NoteNumber":67,"Velocity":31,"Duration":222816,"SoundDuration":222816,"Delta":206200408},{"NoteNumber":69,"Velocity":26,"Duration":222816,"SoundDuration":222816,"Delta":206423225},{"NoteNumber":81,"Velocity":50,"Duration":452523,"SoundDuration":452523,"Delta":206646041},{"NoteNumber":67,"Velocity":31,"Duration":226261,"SoundDuration":226261,"Delta":206646041},{"NoteNumber":69,"Velocity":25,"Duration":226261,"SoundDuration":226261,"Delta":206872303},{"NoteNumber":73,"Velocity":46,"Duration":466453,"SoundDuration":466453,"Delta":207098564},{"NoteNumber":67,"Velocity":31,"Duration":226261,"SoundDuration":226261,"Delta":207098564},{"NoteNumber":69,"Velocity":28,"Duration":240192,"SoundDuration":240192,"Delta":207324826},{"NoteNumber":76,"Velocity":50,"Duration":893390,"SoundDuration":893390,"Delta":207565018},{"NoteNumber":66,"Velocity":31,"Duration":227152,"SoundDuration":227152,"Delta":207565018},{"NoteNumber":69,"Velocity":23,"Duration":218659,"SoundDuration":218659,"Delta":207792170},{"NoteNumber":66,"Velocity":24,"Duration":218659,"SoundDuration":218659,"Delta":208010829},{"NoteNumber":69,"Velocity":19,"Duration":228920,"SoundDuration":228920,"Delta":208229488},{"NoteNumber":74,"Velocity":44,"Duration":452523,"SoundDuration":452523,"Delta":208458409},{"NoteNumber":66,"Velocity":31,"Duration":226261,"SoundDuration":226261,"Delta":208458409},{"NoteNumber":69,"Velocity":23,"Duration":226261,"SoundDuration":226261,"Delta":208684670},{"NoteNumber":86,"Velocity":50,"Duration":221140,"SoundDuration":221140,"Delta":208910932},{"NoteNumber":66,"Velocity":31,"Duration":221140,"SoundDuration":221140,"Delta":208910932},{"NoteNumber":81,"Velocity":46,"Duration":235367,"SoundDuration":235367,"Delta":209132073},{"NoteNumber":69,"Velocity":23,"Duration":235367,"SoundDuration":235367,"Delta":209132073},{"NoteNumber":78,"Velocity":50,"Duration":339392,"SoundDuration":339392,"Delta":209367441},{"NoteNumber":57,"Velocity":31,"Duration":226261,"SoundDuration":226261,"Delta":209367441},{"NoteNumber":69,"Velocity":24,"Duration":224539,"SoundDuration":224539,"Delta":209593702},{"NoteNumber":78,"Velocity":47,"Duration":671894,"SoundDuration":671894,"Delta":209818241},{"NoteNumber":62,"Velocity":31,"Duration":222816,"SoundDuration":222816,"Delta":209818241},{"NoteNumber":69,"Velocity":26,"Duration":222816,"SoundDuration":222816,"Delta":210041058},{"NoteNumber":57,"Velocity":31,"Duration":226261,"SoundDuration":226261,"Delta":210263874},{"NoteNumber":81,"Velocity":50,"Duration":226261,"SoundDuration":226261,"Delta":210490136},{"NoteNumber":69,"Velocity":25,"Duration":226261,"SoundDuration":226261,"Delta":210490136},{"NoteNumber":79,"Velocity":46,"Duration":226261,"SoundDuration":226261,"Delta":210716397},{"NoteNumber":61,"Velocity":31,"Duration":226261,"SoundDuration":226261,"Delta":210716397},{"NoteNumber":76,"Velocity":44,"Duration":240192,"SoundDuration":240192,"Delta":210942659},{"NoteNumber":69,"Velocity":28,"Duration":240192,"SoundDuration":240192,"Delta":210942659},{"NoteNumber":74,"Velocity":54,"Duration":105775,"SoundDuration":105775,"Delta":211182851},{"NoteNumber":62,"Velocity":34,"Duration":423101,"SoundDuration":423101,"Delta":211182851},{"NoteNumber":66,"Velocity":40,"Duration":423101,"SoundDuration":423101,"Delta":211182851},{"NoteNumber":76,"Velocity":46,"Duration":105775,"SoundDuration":105775,"Delta":211288626},{"NoteNumber":74,"Velocity":53,"Duration":105775,"SoundDuration":105775,"Delta":211394401},{"NoteNumber":76,"Velocity":46,"Duration":105775,"SoundDuration":105775,"Delta":211500176},{"NoteNumber":78,"Velocity":57,"Duration":52887,"SoundDuration":52887,"Delta":211605952},{"NoteNumber":74,"Velocity":51,"Duration":57008,"SoundDuration":57008,"Delta":211817502},{"NoteNumber":71,"Velocity":54,"Duration":107326,"SoundDuration":107326,"Delta":212045535},{"NoteNumber":62,"Velocity":26,"Duration":107326,"SoundDuration":107326,"Delta":212045535},{"NoteNumber":67,"Velocity":31,"Duration":107326,"SoundDuration":107326,"Delta":212045535},{"NoteNumber":74,"Velocity":46,"Duration":106541,"SoundDuration":106541,"Delta":212152862},{"NoteNumber":71,"Velocity":53,"Duration":106541,"SoundDuration":106541,"Delta":212259404},{"NoteNumber":74,"Velocity":46,"Duration":106541,"SoundDuration":106541,"Delta":212365945},{"NoteNumber":73,"Velocity":55,"Duration":106541,"SoundDuration":106541,"Delta":212472487},{"NoteNumber":64,"Velocity":31,"Duration":106541,"SoundDuration":106541,"Delta":212472487},{"NoteNumber":62,"Velocity":26,"Duration":106541,"SoundDuration":106541,"Delta":212472487},{"NoteNumber":76,"Velocity":46,"Duration":106541,"SoundDuration":106541,"Delta":212579029},{"NoteNumber":73,"Velocity":53,"Duration":114016,"SoundDuration":114016,"Delta":212685571},{"NoteNumber":76,"Velocity":46,"Duration":114016,"SoundDuration":114016,"Delta":212799587},{"NoteNumber":74,"Velocity":54,"Duration":105775,"SoundDuration":105775,"Delta":212913604},{"NoteNumber":62,"Velocity":34,"Duration":423101,"SoundDuration":423101,"Delta":212913604},{"NoteNumber":66,"Velocity":40,"Duration":423101,"SoundDuration":423101,"Delta":212913604},{"NoteNumber":76,"Velocity":46,"Duration":105775,"SoundDuration":105775,"Delta":213019379},{"NoteNumber":74,"Velocity":53,"Duration":105775,"SoundDuration":105775,"Delta":213125154},{"NoteNumber":76,"Velocity":46,"Duration":105775,"SoundDuration":105775,"Delta":213230929},{"NoteNumber":78,"Velocity":57,"Duration":52887,"SoundDuration":52887,"Delta":213336705},{"NoteNumber":74,"Velocity":51,"Duration":57008,"SoundDuration":57008,"Delta":213548255},{"NoteNumber":71,"Velocity":54,"Duration":107326,"SoundDuration":107326,"Delta":213776288},{"NoteNumber":62,"Velocity":26,"Duration":107326,"SoundDuration":107326,"Delta":213776288},{"NoteNumber":67,"Velocity":31,"Duration":107326,"SoundDuration":107326,"Delta":213776288},{"NoteNumber":74,"Velocity":46,"Duration":106541,"SoundDuration":106541,"Delta":213883615},{"NoteNumber":71,"Velocity":53,"Duration":106541,"SoundDuration":106541,"Delta":213990157},{"NoteNumber":74,"Velocity":46,"Duration":106541,"SoundDuration":106541,"Delta":214096698},{"NoteNumber":73,"Velocity":55,"Duration":108924,"SoundDuration":108924,"Delta":214203240},{"NoteNumber":64,"Velocity":31,"Duration":108924,"SoundDuration":108924,"Delta":214203240},{"NoteNumber":62,"Velocity":26,"Duration":108924,"SoundDuration":108924,"Delta":214203240},{"NoteNumber":76,"Velocity":46,"Duration":108924,"SoundDuration":108924,"Delta":214312165},{"NoteNumber":73,"Velocity":53,"Duration":114016,"SoundDuration":114016,"Delta":214421089},{"NoteNumber":76,"Velocity":46,"Duration":119407,"SoundDuration":119407,"Delta":214535106},{"NoteNumber":74,"Velocity":56,"Duration":112244,"SoundDuration":112244,"Delta":214654513},{"NoteNumber":62,"Velocity":34,"Duration":439641,"SoundDuration":439641,"Delta":214654513},{"NoteNumber":66,"Velocity":40,"Duration":439641,"SoundDuration":439641,"Delta":214654513},{"NoteNumber":76,"Velocity":53,"Duration":110161,"SoundDuration":110161,"Delta":214766758},{"NoteNumber":78,"Velocity":55,"Duration":108476,"SoundDuration":108476,"Delta":214876919},{"NoteNumber":79,"Velocity":56,"Duration":108760,"SoundDuration":108760,"Delta":214985395},{"NoteNumber":81,"Velocity":58,"Duration":108275,"SoundDuration":108275,"Delta":215094155},{"NoteNumber":83,"Velocity":58,"Duration":107792,"SoundDuration":107792,"Delta":215202430},{"NoteNumber":85,"Velocity":58,"Duration":107245,"SoundDuration":107245,"Delta":215310223},{"NoteNumber":86,"Velocity":62,"Duration":120588,"SoundDuration":120588,"Delta":215417469},{"NoteNumber":74,"Velocity":71,"Duration":108924,"SoundDuration":108924,"Delta":215538057},{"NoteNumber":47,"Velocity":55,"Duration":217848,"SoundDuration":217848,"Delta":215538057},{"NoteNumber":59,"Velocity":65,"Duration":217848,"SoundDuration":217848,"Delta":215538057},{"NoteNumber":76,"Velocity":71,"Duration":108924,"SoundDuration":108924,"Delta":215646982},{"NoteNumber":78,"Velocity":71,"Duration":108924,"SoundDuration":108924,"Delta":215755906},{"NoteNumber":79,"Velocity":72,"Duration":108867,"SoundDuration":108867,"Delta":215864831},{"NoteNumber":81,"Velocity":73,"Duration":108522,"SoundDuration":108522,"Delta":215973698},{"NoteNumber":59,"Velocity":57,"Duration":217042,"SoundDuration":217042,"Delta":215973698},{"NoteNumber":47,"Velocity":48,"Duration":217042,"SoundDuration":217042,"Delta":215973698},{"NoteNumber":83,"Velocity":74,"Duration":108519,"SoundDuration":108519,"Delta":216082221},{"NoteNumber":85,"Velocity":77,"Duration":108115,"SoundDuration":108115,"Delta":216190740},{"NoteNumber":86,"Velocity":78,"Duration":120202,"SoundDuration":120202,"Delta":216298856},{"NoteNumber":83,"Velocity":82,"Duration":108576,"SoundDuration":108576,"Delta":216419059},{"NoteNumber":43,"Velocity":54,"Duration":217581,"SoundDuration":217581,"Delta":216419059},{"NoteNumber":55,"Velocity":64,"Duration":217581,"SoundDuration":217581,"Delta":216419059},{"NoteNumber":81,"Velocity":78,"Duration":109005,"SoundDuration":109005,"Delta":216527635},{"NoteNumber":79,"Velocity":78,"Duration":109383,"SoundDuration":109383,"Delta":216636641},{"NoteNumber":78,"Velocity":74,"Duration":109821,"SoundDuration":109821,"Delta":216746024},{"NoteNumber":76,"Velocity":71,"Duration":110211,"SoundDuration":110211,"Delta":216855846},{"NoteNumber":55,"Velocity":56,"Duration":220865,"SoundDuration":220865,"Delta":216855846},{"NoteNumber":43,"Velocity":47,"Duration":220865,"SoundDuration":220865,"Delta":216855846},{"NoteNumber":74,"Velocity":70,"Duration":110653,"SoundDuration":110653,"Delta":216966057},{"NoteNumber":73,"Velocity":73,"Duration":111043,"SoundDuration":111043,"Delta":217076711},{"NoteNumber":71,"Velocity":72,"Duration":111494,"SoundDuration":111494,"Delta":217187755},{"NoteNumber":69,"Velocity":81,"Duration":117205,"SoundDuration":117205,"Delta":217299250},{"NoteNumber":57,"Velocity":66,"Duration":117205,"SoundDuration":117205,"Delta":217299250},{"NoteNumber":45,"Velocity":56,"Duration":117205,"SoundDuration":117205,"Delta":217299250},{"NoteNumber":67,"Velocity":62,"Duration":117205,"SoundDuration":117205,"Delta":217768073},{"NoteNumber":69,"Velocity":62,"Duration":117205,"SoundDuration":117205,"Delta":217768073},{"NoteNumber":73,"Velocity":73,"Duration":117205,"SoundDuration":117205,"Delta":217768073},{"NoteNumber":45,"Velocity":47,"Duration":117205,"SoundDuration":117205,"Delta":217768073},{"NoteNumber":57,"Velocity":56,"Duration":117205,"SoundDuration":117205,"Delta":217768073},{"NoteNumber":74,"Velocity":43,"Duration":105775,"SoundDuration":105775,"Delta":218236896},{"NoteNumber":50,"Velocity":27,"Duration":423101,"SoundDuration":423101,"Delta":218236896},{"NoteNumber":62,"Velocity":32,"Duration":423101,"SoundDuration":423101,"Delta":218236896},{"NoteNumber":78,"Velocity":36,"Duration":105775,"SoundDuration":105775,"Delta":218342671},{"NoteNumber":81,"Velocity":42,"Duration":105775,"SoundDuration":105775,"Delta":218448446},{"NoteNumber":79,"Velocity":36,"Duration":105775,"SoundDuration":105775,"Delta":218554221},{"NoteNumber":78,"Velocity":45,"Duration":105775,"SoundDuration":105775,"Delta":218659997},{"NoteNumber":76,"Velocity":42,"Duration":105775,"SoundDuration":105775,"Delta":218765772},{"NoteNumber":74,"Velocity":40,"Duration":114016,"SoundDuration":114016,"Delta":218871547},{"NoteNumber":73,"Velocity":37,"Duration":114016,"SoundDuration":114016,"Delta":218985564},{"NoteNumber":71,"Velocity":43,"Duration":107326,"SoundDuration":107326,"Delta":219099580},{"NoteNumber":62,"Velocity":20,"Duration":107326,"SoundDuration":107326,"Delta":219099580},{"NoteNumber":67,"Velocity":24,"Duration":107326,"SoundDuration":107326,"Delta":219099580},{"NoteNumber":74,"Velocity":36,"Duration":106541,"SoundDuration":106541,"Delta":219206907},{"NoteNumber":71,"Velocity":42,"Duration":106541,"SoundDuration":106541,"Delta":219313449},{"NoteNumber":74,"Velocity":36,"Duration":106541,"SoundDuration":106541,"Delta":219419990},{"NoteNumber":73,"Velocity":44,"Duration":106541,"SoundDuration":106541,"Delta":219526532},{"NoteNumber":64,"Velocity":24,"Duration":106541,"SoundDuration":106541,"Delta":219526532},{"NoteNumber":62,"Velocity":20,"Duration":106541,"SoundDuration":106541,"Delta":219526532},{"NoteNumber":76,"Velocity":36,"Duration":106541,"SoundDuration":106541,"Delta":219633074},{"NoteNumber":73,"Velocity":42,"Duration":114016,"SoundDuration":114016,"Delta":219739616},{"NoteNumber":76,"Velocity":36,"Duration":114016,"SoundDuration":114016,"Delta":219853632},{"NoteNumber":74,"Velocity":43,"Duration":105775,"SoundDuration":105775,"Delta":219967649},{"NoteNumber":62,"Velocity":27,"Duration":423101,"SoundDuration":423101,"Delta":219967649},{"NoteNumber":66,"Velocity":32,"Duration":423101,"SoundDuration":423101,"Delta":219967649},{"NoteNumber":78,"Velocity":36,"Duration":105775,"SoundDuration":105775,"Delta":220073424},{"NoteNumber":81,"Velocity":42,"Duration":105775,"SoundDuration":105775,"Delta":220179199},{"NoteNumber":79,"Velocity":36,"Duration":105775,"SoundDuration":105775,"Delta":220284974},{"NoteNumber":78,"Velocity":45,"Duration":105775,"SoundDuration":105775,"Delta":220390750},{"NoteNumber":76,"Velocity":42,"Duration":105775,"SoundDuration":105775,"Delta":220496525},{"NoteNumber":74,"Velocity":40,"Duration":114016,"SoundDuration":114016,"Delta":220602300},{"NoteNumber":73,"Velocity":37,"Duration":114016,"SoundDuration":114016,"Delta":220716317},{"NoteNumber":71,"Velocity":43,"Duration":107326,"SoundDuration":107326,"Delta":220830333},{"NoteNumber":62,"Velocity":20,"Duration":107326,"SoundDuration":107326,"Delta":220830333},{"NoteNumber":67,"Velocity":24,"Duration":107326,"SoundDuration":107326,"Delta":220830333},{"NoteNumber":74,"Velocity":36,"Duration":106541,"SoundDuration":106541,"Delta":220937660},{"NoteNumber":71,"Velocity":42,"Duration":106541,"SoundDuration":106541,"Delta":221044202},{"NoteNumber":74,"Velocity":36,"Duration":106541,"SoundDuration":106541,"Delta":221150743},{"NoteNumber":73,"Velocity":44,"Duration":106541,"SoundDuration":106541,"Delta":221257285},{"NoteNumber":64,"Velocity":24,"Duration":106541,"SoundDuration":106541,"Delta":221257285},{"NoteNumber":62,"Velocity":20,"Duration":106541,"SoundDuration":106541,"Delta":221257285},{"NoteNumber":76,"Velocity":36,"Duration":106541,"SoundDuration":106541,"Delta":221363827},{"NoteNumber":73,"Velocity":42,"Duration":114016,"SoundDuration":114016,"Delta":221470369},{"NoteNumber":76,"Velocity":36,"Duration":114016,"SoundDuration":114016,"Delta":221584385},{"NoteNumber":74,"Velocity":52,"Duration":108924,"SoundDuration":108924,"Delta":221698402},{"NoteNumber":62,"Velocity":27,"Duration":435641,"SoundDuration":435641,"Delta":221698402},{"NoteNumber":66,"Velocity":32,"Duration":435641,"SoundDuration":435641,"Delta":221698402},{"NoteNumber":78,"Velocity":56,"Duration":108924,"SoundDuration":108924,"Delta":221807326},{"NoteNumber":81,"Velocity":59,"Duration":108924,"SoundDuration":108924,"Delta":221916251},{"NoteNumber":79,"Velocity":56,"Duration":108867,"SoundDuration":108867,"Delta":222025175},{"NoteNumber":78,"Velocity":59,"Duration":108522,"SoundDuration":108522,"Delta":222134043},{"NoteNumber":76,"Velocity":60,"Duration":108519,"SoundDuration":108519,"Delta":222242565},{"NoteNumber":74,"Velocity":61,"Duration":108115,"SoundDuration":108115,"Delta":222351085},{"NoteNumber":73,"Velocity":65,"Duration":120202,"SoundDuration":120202,"Delta":222459201},{"NoteNumber":71,"Velocity":69,"Duration":108576,"SoundDuration":108576,"Delta":222579403},{"NoteNumber":31,"Velocity":58,"Duration":217581,"SoundDuration":217581,"Delta":222579403},{"NoteNumber":69,"Velocity":71,"Duration":109005,"SoundDuration":109005,"Delta":222687980},{"NoteNumber":67,"Velocity":70,"Duration":109383,"SoundDuration":109383,"Delta":222796985},{"NoteNumber":43,"Velocity":50,"Duration":219204,"SoundDuration":219204,"Delta":222796985},{"NoteNumber":66,"Velocity":69,"Duration":109821,"SoundDuration":109821,"Delta":222906369},{"NoteNumber":64,"Velocity":69,"Duration":110211,"SoundDuration":110211,"Delta":223016190},{"NoteNumber":31,"Velocity":55,"Duration":220865,"SoundDuration":220865,"Delta":223016190},{"NoteNumber":62,"Velocity":70,"Duration":110653,"SoundDuration":110653,"Delta":223126402},{"NoteNumber":61,"Velocity":72,"Duration":111043,"SoundDuration":111043,"Delta":223237056},{"NoteNumber":43,"Velocity":48,"Duration":222538,"SoundDuration":222538,"Delta":223237056},{"NoteNumber":59,"Velocity":76,"Duration":111494,"SoundDuration":111494,"Delta":223348100},{"NoteNumber":57,"Velocity":85,"Duration":227152,"SoundDuration":227152,"Delta":223459594},{"NoteNumber":33,"Velocity":57,"Duration":227152,"SoundDuration":227152,"Delta":223459594},{"NoteNumber":66,"Velocity":72,"Duration":113576,"SoundDuration":113576,"Delta":223686747},{"NoteNumber":62,"Velocity":72,"Duration":113576,"SoundDuration":113576,"Delta":223686747},{"NoteNumber":45,"Velocity":49,"Duration":113576,"SoundDuration":113576,"Delta":223686747},{"NoteNumber":66,"Velocity":80,"Duration":113576,"SoundDuration":113576,"Delta":223913899},{"NoteNumber":62,"Velocity":80,"Duration":113576,"SoundDuration":113576,"Delta":223913899},{"NoteNumber":33,"Velocity":57,"Duration":113576,"SoundDuration":113576,"Delta":223913899},{"NoteNumber":62,"Velocity":72,"Duration":120095,"SoundDuration":120095,"Delta":224141052},{"NoteNumber":66,"Velocity":72,"Duration":120095,"SoundDuration":120095,"Delta":224141052},{"NoteNumber":45,"Velocity":49,"Duration":120095,"SoundDuration":120095,"Delta":224141052},{"NoteNumber":66,"Velocity":80,"Duration":227152,"SoundDuration":227152,"Delta":224381244},{"NoteNumber":62,"Velocity":80,"Duration":227152,"SoundDuration":227152,"Delta":224381244},{"NoteNumber":33,"Velocity":57,"Duration":227152,"SoundDuration":227152,"Delta":224381244},{"NoteNumber":67,"Velocity":72,"Duration":113576,"SoundDuration":113576,"Delta":224608396},{"NoteNumber":64,"Velocity":72,"Duration":113576,"SoundDuration":113576,"Delta":224608396},{"NoteNumber":45,"Velocity":49,"Duration":113576,"SoundDuration":113576,"Delta":224608396},{"NoteNumber":64,"Velocity":80,"Duration":113576,"SoundDuration":113576,"Delta":224835549},{"NoteNumber":61,"Velocity":80,"Duration":113576,"SoundDuration":113576,"Delta":224835549},{"NoteNumber":33,"Velocity":57,"Duration":113576,"SoundDuration":113576,"Delta":224835549},{"NoteNumber":61,"Velocity":72,"Duration":113576,"SoundDuration":113576,"Delta":225062701},{"NoteNumber":64,"Velocity":72,"Duration":113576,"SoundDuration":113576,"Delta":225062701},{"NoteNumber":45,"Velocity":49,"Duration":113576,"SoundDuration":113576,"Delta":225062701},{"NoteNumber":62,"Velocity":83,"Duration":238227,"SoundDuration":238227,"Delta":225289854},{"NoteNumber":38,"Velocity":57,"Duration":238227,"SoundDuration":238227,"Delta":225289854},{"NoteNumber":50,"Velocity":52,"Duration":238227,"SoundDuration":238227,"Delta":225528081},{"NoteNumber":69,"Velocity":79,"Duration":123173,"SoundDuration":123173,"Delta":225766309},{"NoteNumber":66,"Velocity":79,"Duration":123173,"SoundDuration":123173,"Delta":225766309},{"NoteNumber":62,"Velocity":79,"Duration":123173,"SoundDuration":123173,"Delta":225766309},{"NoteNumber":74,"Velocity":79,"Duration":123173,"SoundDuration":123173,"Delta":225766309},{"NoteNumber":45,"Velocity":57,"Duration":246345,"SoundDuration":246345,"Delta":225766309},{"NoteNumber":42,"Velocity":51,"Duration":262513,"SoundDuration":262513,"Delta":226012655},{"NoteNumber":74,"Velocity":79,"Duration":131256,"SoundDuration":131256,"Delta":226275168},{"NoteNumber":69,"Velocity":79,"Duration":131256,"SoundDuration":131256,"Delta":226275168},{"NoteNumber":66,"Velocity":79,"Duration":131256,"SoundDuration":131256,"Delta":226275168},{"NoteNumber":62,"Velocity":79,"Duration":131256,"SoundDuration":131256,"Delta":226275168},{"NoteNumber":38,"Velocity":62,"Duration":131256,"SoundDuration":131256,"Delta":226275168},{"NoteNumber":69,"Velocity":46,"Duration":111037,"SoundDuration":111037,"Delta":226972419},{"NoteNumber":71,"Velocity":47,"Duration":111036,"SoundDuration":111036,"Delta":227083456},{"NoteNumber":73,"Velocity":48,"Duration":111037,"SoundDuration":111037,"Delta":227194493},{"NoteNumber":74,"Velocity":49,"Duration":111037,"SoundDuration":111037,"Delta":227305530},{"NoteNumber":76,"Velocity":52,"Duration":111292,"SoundDuration":111292,"Delta":227416567},{"NoteNumber":57,"Velocity":35,"Duration":111292,"SoundDuration":111292,"Delta":227416567},{"NoteNumber":57,"Velocity":27,"Duration":111292,"SoundDuration":111292,"Delta":227639152},{"NoteNumber":73,"Velocity":48,"Duration":109665,"SoundDuration":109665,"Delta":227861737},{"NoteNumber":69,"Velocity":48,"Duration":109665,"SoundDuration":109665,"Delta":227861737},{"NoteNumber":57,"Velocity":30,"Duration":109665,"SoundDuration":109665,"Delta":227861737},{"NoteNumber":57,"Velocity":27,"Duration":109665,"SoundDuration":109665,"Delta":228081067},{"NoteNumber":71,"Velocity":50,"Duration":107797,"SoundDuration":107797,"Delta":228300398},{"NoteNumber":74,"Velocity":50,"Duration":107797,"SoundDuration":107797,"Delta":228300398},{"NoteNumber":57,"Velocity":31,"Duration":107797,"SoundDuration":107797,"Delta":228300398},{"NoteNumber":57,"Velocity":27,"Duration":107797,"SoundDuration":107797,"Delta":228515992},{"NoteNumber":76,"Velocity":47,"Duration":107797,"SoundDuration":107797,"Delta":228731587},{"NoteNumber":73,"Velocity":47,"Duration":107797,"SoundDuration":107797,"Delta":228731587},{"NoteNumber":57,"Velocity":30,"Duration":107797,"SoundDuration":107797,"Delta":228731587},{"NoteNumber":57,"Velocity":27,"Duration":118240,"SoundDuration":118240,"Delta":228947181},{"NoteNumber":74,"Velocity":50,"Duration":642582,"SoundDuration":642582,"Delta":229183662},{"NoteNumber":71,"Velocity":50,"Duration":642582,"SoundDuration":642582,"Delta":229183662},{"NoteNumber":57,"Velocity":35,"Duration":107097,"SoundDuration":107097,"Delta":229183662},{"NoteNumber":57,"Velocity":29,"Duration":107097,"SoundDuration":107097,"Delta":229397856},{"NoteNumber":57,"Velocity":31,"Duration":107096,"SoundDuration":107096,"Delta":229612050},{"NoteNumber":76,"Velocity":43,"Duration":214193,"SoundDuration":214193,"Delta":229826244},{"NoteNumber":73,"Velocity":43,"Duration":214193,"SoundDuration":214193,"Delta":229826244},{"NoteNumber":57,"Velocity":29,"Duration":107096,"SoundDuration":107096,"Delta":229826244},{"NoteNumber":78,"Velocity":47,"Duration":443341,"SoundDuration":443341,"Delta":230040438},{"NoteNumber":74,"Velocity":47,"Duration":443341,"SoundDuration":443341,"Delta":230040438},{"NoteNumber":57,"Velocity":32,"Duration":107097,"SoundDuration":107097,"Delta":230040438},{"NoteNumber":57,"Velocity":29,"Duration":114573,"SoundDuration":114573,"Delta":230254632},{"NoteNumber":71,"Velocity":46,"Duration":107873,"SoundDuration":107873,"Delta":230483780},{"NoteNumber":57,"Velocity":32,"Duration":107873,"SoundDuration":107873,"Delta":230483780},{"NoteNumber":73,"Velocity":47,"Duration":106708,"SoundDuration":106708,"Delta":230591654},{"NoteNumber":74,"Velocity":48,"Duration":107029,"SoundDuration":107029,"Delta":230698362},{"NoteNumber":57,"Velocity":29,"Duration":107029,"SoundDuration":107029,"Delta":230698362},{"NoteNumber":76,"Velocity":49,"Duration":107097,"SoundDuration":107097,"Delta":230805391},{"NoteNumber":78,"Velocity":52,"Duration":107464,"SoundDuration":107464,"Delta":230912488},{"NoteNumber":57,"Velocity":35,"Duration":107464,"SoundDuration":107464,"Delta":230912488},{"NoteNumber":57,"Velocity":27,"Duration":107480,"SoundDuration":107480,"Delta":231127434},{"NoteNumber":74,"Velocity":48,"Duration":107480,"SoundDuration":107480,"Delta":231342395},{"NoteNumber":71,"Velocity":43,"Duration":107480,"SoundDuration":107480,"Delta":231342395},{"NoteNumber":57,"Velocity":30,"Duration":107480,"SoundDuration":107480,"Delta":231342395},{"NoteNumber":57,"Velocity":27,"Duration":107480,"SoundDuration":107480,"Delta":231557357},{"NoteNumber":73,"Velocity":45,"Duration":107480,"SoundDuration":107480,"Delta":231772318},{"NoteNumber":76,"Velocity":50,"Duration":107480,"SoundDuration":107480,"Delta":231772318},{"NoteNumber":57,"Velocity":31,"Duration":107480,"SoundDuration":107480,"Delta":231772318},{"NoteNumber":57,"Velocity":27,"Duration":107480,"SoundDuration":107480,"Delta":231987280},{"NoteNumber":78,"Velocity":47,"Duration":107480,"SoundDuration":107480,"Delta":232202241},{"NoteNumber":74,"Velocity":42,"Duration":107480,"SoundDuration":107480,"Delta":232202241},{"NoteNumber":57,"Velocity":30,"Duration":107480,"SoundDuration":107480,"Delta":232202241},{"NoteNumber":57,"Velocity":27,"Duration":118240,"SoundDuration":118240,"Delta":232417203},{"NoteNumber":76,"Velocity":50,"Duration":642582,"SoundDuration":642582,"Delta":232653684},{"NoteNumber":73,"Velocity":45,"Duration":642582,"SoundDuration":642582,"Delta":232653684},{"NoteNumber":57,"Velocity":35,"Duration":107097,"SoundDuration":107097,"Delta":232653684},{"NoteNumber":57,"Velocity":29,"Duration":107097,"SoundDuration":107097,"Delta":232867878},{"NoteNumber":57,"Velocity":31,"Duration":107096,"SoundDuration":107096,"Delta":233082072},{"NoteNumber":78,"Velocity":43,"Duration":214193,"SoundDuration":214193,"Delta":233296266},{"NoteNumber":74,"Velocity":38,"Duration":214193,"SoundDuration":214193,"Delta":233296266},{"NoteNumber":57,"Velocity":29,"Duration":107096,"SoundDuration":107096,"Delta":233296266},{"NoteNumber":79,"Velocity":47,"Duration":443341,"SoundDuration":443341,"Delta":233510460},{"NoteNumber":76,"Velocity":42,"Duration":443341,"SoundDuration":443341,"Delta":233510460},{"NoteNumber":57,"Velocity":32,"Duration":107097,"SoundDuration":107097,"Delta":233510460},{"NoteNumber":57,"Velocity":29,"Duration":114573,"SoundDuration":114573,"Delta":233724654},{"NoteNumber":79,"Velocity":62,"Duration":108271,"SoundDuration":108271,"Delta":233953801},{"NoteNumber":57,"Velocity":41,"Duration":108271,"SoundDuration":108271,"Delta":233953801},{"NoteNumber":81,"Velocity":47,"Duration":108271,"SoundDuration":108271,"Delta":234062073},{"NoteNumber":83,"Velocity":50,"Duration":108271,"SoundDuration":108271,"Delta":234170345},{"NoteNumber":57,"Velocity":37,"Duration":108271,"SoundDuration":108271,"Delta":234170345},{"NoteNumber":81,"Velocity":46,"Duration":108271,"SoundDuration":108271,"Delta":234278617},{"NoteNumber":79,"Velocity":61,"Duration":106708,"SoundDuration":106708,"Delta":234386889},{"NoteNumber":57,"Velocity":48,"Duration":426834,"SoundDuration":426834,"Delta":234386889},{"NoteNumber":81,"Velocity":48,"Duration":106708,"SoundDuration":106708,"Delta":234493598},{"NoteNumber":78,"Velocity":50,"Duration":106708,"SoundDuration":106708,"Delta":234600306},{"NoteNumber":79,"Velocity":47,"Duration":106708,"SoundDuration":106708,"Delta":234707015},{"NoteNumber":76,"Velocity":57,"Duration":106708,"SoundDuration":106708,"Delta":234813723},{"NoteNumber":78,"Velocity":48,"Duration":106708,"SoundDuration":106708,"Delta":234920432},{"NoteNumber":74,"Velocity":50,"Duration":106708,"SoundDuration":106708,"Delta":235027140},{"NoteNumber":76,"Velocity":48,"Duration":106708,"SoundDuration":106708,"Delta":235133849},{"NoteNumber":73,"Velocity":56,"Duration":106483,"SoundDuration":106483,"Delta":235240557},{"NoteNumber":74,"Velocity":48,"Duration":106214,"SoundDuration":106214,"Delta":235347041},{"NoteNumber":71,"Velocity":50,"Duration":107037,"SoundDuration":107037,"Delta":235453256},{"NoteNumber":73,"Velocity":47,"Duration":107868,"SoundDuration":107868,"Delta":235560293},{"NoteNumber":69,"Velocity":56,"Duration":109999,"SoundDuration":109999,"Delta":235668162},{"NoteNumber":71,"Velocity":42,"Duration":111640,"SoundDuration":111640,"Delta":235778162},{"NoteNumber":67,"Velocity":50,"Duration":114054,"SoundDuration":114054,"Delta":235889802},{"NoteNumber":69,"Velocity":42,"Duration":116595,"SoundDuration":116595,"Delta":236003857},{"NoteNumber":66,"Velocity":61,"Duration":434687,"SoundDuration":434687,"Delta":236120453},{"NoteNumber":50,"Velocity":41,"Duration":217343,"SoundDuration":217343,"Delta":236120453},{"NoteNumber":62,"Velocity":30,"Duration":108672,"SoundDuration":108672,"Delta":236337797},{"NoteNumber":62,"Velocity":34,"Duration":108672,"SoundDuration":108672,"Delta":236555141},{"NoteNumber":62,"Velocity":30,"Duration":108672,"SoundDuration":108672,"Delta":236772485},{"NoteNumber":62,"Velocity":36,"Duration":108672,"SoundDuration":108672,"Delta":236989829},{"NoteNumber":62,"Velocity":30,"Duration":108671,"SoundDuration":108671,"Delta":237207173},{"NoteNumber":74,"Velocity":46,"Duration":108688,"SoundDuration":108688,"Delta":237424517},{"NoteNumber":62,"Velocity":34,"Duration":108688,"SoundDuration":108688,"Delta":237424517},{"NoteNumber":76,"Velocity":47,"Duration":108315,"SoundDuration":108315,"Delta":237533205},{"NoteNumber":78,"Velocity":48,"Duration":107944,"SoundDuration":107944,"Delta":237641521},{"NoteNumber":62,"Velocity":30,"Duration":107944,"SoundDuration":107944,"Delta":237641521},{"NoteNumber":79,"Velocity":49,"Duration":107575,"SoundDuration":107575,"Delta":237749465},{"NoteNumber":81,"Velocity":52,"Duration":107215,"SoundDuration":107215,"Delta":237857041},{"NoteNumber":62,"Velocity":35,"Duration":107215,"SoundDuration":107215,"Delta":237857041},{"NoteNumber":62,"Velocity":27,"Duration":107097,"SoundDuration":107097,"Delta":238071353},{"NoteNumber":78,"Velocity":48,"Duration":107097,"SoundDuration":107097,"Delta":238285547},{"NoteNumber":74,"Velocity":43,"Duration":107097,"SoundDuration":107097,"Delta":238285547},{"NoteNumber":62,"Velocity":30,"Duration":107097,"SoundDuration":107097,"Delta":238285547},{"NoteNumber":62,"Velocity":27,"Duration":107096,"SoundDuration":107096,"Delta":238499741},{"NoteNumber":76,"Velocity":45,"Duration":107096,"SoundDuration":107096,"Delta":238713935},{"NoteNumber":79,"Velocity":50,"Duration":107096,"SoundDuration":107096,"Delta":238713935},{"NoteNumber":62,"Velocity":31,"Duration":107096,"SoundDuration":107096,"Delta":238713935},{"NoteNumber":62,"Velocity":27,"Duration":107097,"SoundDuration":107097,"Delta":238928129},{"NoteNumber":81,"Velocity":47,"Duration":107097,"SoundDuration":107097,"Delta":239142323},{"NoteNumber":78,"Velocity":42,"Duration":107097,"SoundDuration":107097,"Delta":239142323},{"NoteNumber":62,"Velocity":30,"Duration":107097,"SoundDuration":107097,"Delta":239142323},{"NoteNumber":62,"Velocity":27,"Duration":118240,"SoundDuration":118240,"Delta":239356517},{"NoteNumber":79,"Velocity":50,"Duration":642582,"SoundDuration":642582,"Delta":239592998},{"NoteNumber":76,"Velocity":45,"Duration":642582,"SoundDuration":642582,"Delta":239592998},{"NoteNumber":62,"Velocity":35,"Duration":107097,"SoundDuration":107097,"Delta":239592998},{"NoteNumber":62,"Velocity":29,"Duration":107097,"SoundDuration":107097,"Delta":239807192},{"NoteNumber":62,"Velocity":31,"Duration":107096,"SoundDuration":107096,"Delta":240021386},{"NoteNumber":81,"Velocity":43,"Duration":214193,"SoundDuration":214193,"Delta":240235580},{"NoteNumber":78,"Velocity":38,"Duration":214193,"SoundDuration":214193,"Delta":240235580},{"NoteNumber":62,"Velocity":29,"Duration":107096,"SoundDuration":107096,"Delta":240235580},{"NoteNumber":83,"Velocity":47,"Duration":441398,"SoundDuration":441398,"Delta":240449774},{"NoteNumber":79,"Velocity":42,"Duration":441398,"SoundDuration":441398,"Delta":240449774},{"NoteNumber":62,"Velocity":32,"Duration":107097,"SoundDuration":107097,"Delta":240449774},{"NoteNumber":62,"Velocity":29,"Duration":114573,"SoundDuration":114573,"Delta":240663968},{"NoteNumber":76,"Velocity":46,"Duration":106000,"SoundDuration":106000,"Delta":240891173},{"NoteNumber":62,"Velocity":34,"Duration":106000,"SoundDuration":106000,"Delta":240891173},{"NoteNumber":78,"Velocity":47,"Duration":106358,"SoundDuration":106358,"Delta":240997174},{"NoteNumber":79,"Velocity":48,"Duration":106718,"SoundDuration":106718,"Delta":241103532},{"NoteNumber":62,"Velocity":30,"Duration":106718,"SoundDuration":106718,"Delta":241103532},{"NoteNumber":81,"Velocity":49,"Duration":107097,"SoundDuration":107097,"Delta":241210250},{"NoteNumber":83,"Velocity":52,"Duration":107464,"SoundDuration":107464,"Delta":241317347},{"NoteNumber":62,"Velocity":35,"Duration":107464,"SoundDuration":107464,"Delta":241317347},{"NoteNumber":62,"Velocity":27,"Duration":107480,"SoundDuration":107480,"Delta":241532292},{"NoteNumber":79,"Velocity":52,"Duration":107480,"SoundDuration":107480,"Delta":241747254},{"NoteNumber":76,"Velocity":47,"Duration":107480,"SoundDuration":107480,"Delta":241747254},{"NoteNumber":62,"Velocity":33,"Duration":107480,"SoundDuration":107480,"Delta":241747254},{"NoteNumber":62,"Velocity":30,"Duration":107480,"SoundDuration":107480,"Delta":241962215},{"NoteNumber":78,"Velocity":52,"Duration":107480,"SoundDuration":107480,"Delta":242177177},{"NoteNumber":81,"Velocity":58,"Duration":107480,"SoundDuration":107480,"Delta":242177177},{"NoteNumber":62,"Velocity":35,"Duration":107480,"SoundDuration":107480,"Delta":242177177},{"NoteNumber":62,"Velocity":32,"Duration":107480,"SoundDuration":107480,"Delta":242392138},{"NoteNumber":83,"Velocity":57,"Duration":109665,"SoundDuration":109665,"Delta":242607100},{"NoteNumber":79,"Velocity":51,"Duration":109665,"SoundDuration":109665,"Delta":242607100},{"NoteNumber":62,"Velocity":36,"Duration":109665,"SoundDuration":109665,"Delta":242607100},{"NoteNumber":62,"Velocity":34,"Duration":118783,"SoundDuration":118783,"Delta":242826430},{"NoteNumber":81,"Velocity":67,"Duration":214193,"SoundDuration":214193,"Delta":243063998},{"NoteNumber":78,"Velocity":53,"Duration":214193,"SoundDuration":214193,"Delta":243063998},{"NoteNumber":62,"Velocity":48,"Duration":428388,"SoundDuration":428388,"Delta":243063998},{"NoteNumber":84,"Velocity":56,"Duration":214194,"SoundDuration":214194,"Delta":243278192},{"NoteNumber":78,"Velocity":56,"Duration":109473,"SoundDuration":109473,"Delta":243492386},{"NoteNumber":81,"Velocity":63,"Duration":109473,"SoundDuration":109473,"Delta":243492386},{"NoteNumber":81,"Velocity":57,"Duration":109473,"SoundDuration":109473,"Delta":243711332},{"NoteNumber":78,"Velocity":50,"Duration":109473,"SoundDuration":109473,"Delta":243711332},{"NoteNumber":78,"Velocity":39,"Duration":214193,"SoundDuration":214193,"Delta":243930278},{"NoteNumber":81,"Velocity":47,"Duration":214193,"SoundDuration":214193,"Delta":243930278},{"NoteNumber":63,"Velocity":37,"Duration":321291,"SoundDuration":321291,"Delta":243930278},{"NoteNumber":84,"Velocity":39,"Duration":214194,"SoundDuration":214194,"Delta":244144472},{"NoteNumber":81,"Velocity":43,"Duration":109074,"SoundDuration":109074,"Delta":244358666},{"NoteNumber":78,"Velocity":36,"Duration":109074,"SoundDuration":109074,"Delta":244358666},{"NoteNumber":63,"Velocity":37,"Duration":330889,"SoundDuration":330889,"Delta":244358666},{"NoteNumber":78,"Velocity":30,"Duration":112739,"SoundDuration":112739,"Delta":244576816},{"NoteNumber":81,"Velocity":36,"Duration":112739,"SoundDuration":112739,"Delta":244576816},{"NoteNumber":78,"Velocity":39,"Duration":214193,"SoundDuration":214193,"Delta":244802295},{"NoteNumber":81,"Velocity":47,"Duration":214193,"SoundDuration":214193,"Delta":244802295},{"NoteNumber":64,"Velocity":37,"Duration":428388,"SoundDuration":428388,"Delta":244802295},{"NoteNumber":83,"Velocity":39,"Duration":214194,"SoundDuration":214194,"Delta":245016489},{"NoteNumber":79,"Velocity":43,"Duration":109074,"SoundDuration":109074,"Delta":245230683},{"NoteNumber":76,"Velocity":36,"Duration":109074,"SoundDuration":109074,"Delta":245230683},{"NoteNumber":76,"Velocity":30,"Duration":111457,"SoundDuration":111457,"Delta":245448833},{"NoteNumber":79,"Velocity":36,"Duration":111457,"SoundDuration":111457,"Delta":245448833},{"NoteNumber":76,"Velocity":39,"Duration":214193,"SoundDuration":214193,"Delta":245671748},{"NoteNumber":79,"Velocity":47,"Duration":214193,"SoundDuration":214193,"Delta":245671748},{"NoteNumber":61,"Velocity":37,"Duration":321291,"SoundDuration":321291,"Delta":245671748},{"NoteNumber":82,"Velocity":39,"Duration":214194,"SoundDuration":214194,"Delta":245885942},{"NoteNumber":79,"Velocity":43,"Duration":109074,"SoundDuration":109074,"Delta":246100136},{"NoteNumber":76,"Velocity":36,"Duration":109074,"SoundDuration":109074,"Delta":246100136},{"NoteNumber":61,"Velocity":37,"Duration":334899,"SoundDuration":334899,"Delta":246100136},{"NoteNumber":76,"Velocity":30,"Duration":116749,"SoundDuration":116749,"Delta":246318286},{"NoteNumber":79,"Velocity":36,"Duration":116749,"SoundDuration":116749,"Delta":246318286},{"NoteNumber":76,"Velocity":39,"Duration":214193,"SoundDuration":214193,"Delta":246551786},{"NoteNumber":79,"Velocity":47,"Duration":214193,"SoundDuration":214193,"Delta":246551786},{"NoteNumber":62,"Velocity":37,"Duration":428388,"SoundDuration":428388,"Delta":246551786},{"NoteNumber":81,"Velocity":39,"Duration":214194,"SoundDuration":214194,"Delta":246765980},{"NoteNumber":78,"Velocity":43,"Duration":109074,"SoundDuration":109074,"Delta":246980174},{"NoteNumber":74,"Velocity":36,"Duration":109074,"SoundDuration":109074,"Delta":246980174},{"NoteNumber":74,"Velocity":30,"Duration":109074,"SoundDuration":109074,"Delta":247198324},{"NoteNumber":78,"Velocity":36,"Duration":109074,"SoundDuration":109074,"Delta":247198324},{"NoteNumber":78,"Velocity":53,"Duration":214193,"SoundDuration":214193,"Delta":247416474},{"NoteNumber":74,"Velocity":45,"Duration":214193,"SoundDuration":214193,"Delta":247416474},{"NoteNumber":58,"Velocity":45,"Duration":321291,"SoundDuration":321291,"Delta":247416474},{"NoteNumber":79,"Velocity":42,"Duration":214194,"SoundDuration":214194,"Delta":247630668},{"NoteNumber":73,"Velocity":45,"Duration":109074,"SoundDuration":109074,"Delta":247844862},{"NoteNumber":76,"Velocity":53,"Duration":109074,"SoundDuration":109074,"Delta":247844862},{"NoteNumber":58,"Velocity":41,"Duration":332279,"SoundDuration":332279,"Delta":247844862},{"NoteNumber":76,"Velocity":45,"Duration":114129,"SoundDuration":114129,"Delta":248063012},{"NoteNumber":73,"Velocity":38,"Duration":114129,"SoundDuration":114129,"Delta":248063012},{"NoteNumber":76,"Velocity":59,"Duration":214193,"SoundDuration":214193,"Delta":248291270},{"NoteNumber":73,"Velocity":50,"Duration":214193,"SoundDuration":214193,"Delta":248291270},{"NoteNumber":59,"Velocity":50,"Duration":321291,"SoundDuration":321291,"Delta":248291270},{"NoteNumber":78,"Velocity":49,"Duration":214194,"SoundDuration":214194,"Delta":248505464},{"NoteNumber":71,"Velocity":48,"Duration":109074,"SoundDuration":109074,"Delta":248719658},{"NoteNumber":74,"Velocity":57,"Duration":109074,"SoundDuration":109074,"Delta":248719658},{"NoteNumber":59,"Velocity":46,"Duration":332279,"SoundDuration":332279,"Delta":248719658},{"NoteNumber":74,"Velocity":48,"Duration":114129,"SoundDuration":114129,"Delta":248937808},{"NoteNumber":71,"Velocity":40,"Duration":114129,"SoundDuration":114129,"Delta":248937808},{"NoteNumber":74,"Velocity":65,"Duration":214193,"SoundDuration":214193,"Delta":249166067},{"NoteNumber":71,"Velocity":55,"Duration":214193,"SoundDuration":214193,"Delta":249166067},{"NoteNumber":54,"Velocity":50,"Duration":321291,"SoundDuration":321291,"Delta":249166067},{"NoteNumber":42,"Velocity":42,"Duration":321291,"SoundDuration":321291,"Delta":249166067},{"NoteNumber":76,"Velocity":51,"Duration":214194,"SoundDuration":214194,"Delta":249380261},{"NoteNumber":72,"Velocity":60,"Duration":109074,"SoundDuration":109074,"Delta":249594455},{"NoteNumber":69,"Velocity":51,"Duration":109074,"SoundDuration":109074,"Delta":249594455},{"NoteNumber":54,"Velocity":42,"Duration":332279,"SoundDuration":332279,"Delta":249594455},{"NoteNumber":42,"Velocity":35,"Duration":332279,"SoundDuration":332279,"Delta":249594455},{"NoteNumber":69,"Velocity":41,"Duration":114129,"SoundDuration":114129,"Delta":249812605},{"NoteNumber":72,"Velocity":49,"Duration":114129,"SoundDuration":114129,"Delta":249812605},{"NoteNumber":71,"Velocity":68,"Duration":109999,"SoundDuration":109999,"Delta":250040863},{"NoteNumber":55,"Velocity":56,"Duration":437855,"SoundDuration":437855,"Delta":250040863},{"NoteNumber":43,"Velocity":47,"Duration":437855,"SoundDuration":437855,"Delta":250040863},{"NoteNumber":62,"Velocity":50,"Duration":109812,"SoundDuration":109812,"Delta":250150863},{"NoteNumber":71,"Velocity":55,"Duration":109279,"SoundDuration":109279,"Delta":250260676},{"NoteNumber":62,"Velocity":49,"Duration":108764,"SoundDuration":108764,"Delta":250369955},{"NoteNumber":66,"Velocity":66,"Duration":108475,"SoundDuration":108475,"Delta":250478719},{"NoteNumber":60,"Velocity":53,"Duration":433901,"SoundDuration":433901,"Delta":250478719},{"NoteNumber":48,"Velocity":45,"Duration":433901,"SoundDuration":433901,"Delta":250478719},{"NoteNumber":62,"Velocity":48,"Duration":108475,"SoundDuration":108475,"Delta":250587195},{"NoteNumber":66,"Velocity":53,"Duration":108475,"SoundDuration":108475,"Delta":250695670},{"NoteNumber":62,"Velocity":47,"Duration":108475,"SoundDuration":108475,"Delta":250804146},{"NoteNumber":67,"Velocity":63,"Duration":108475,"SoundDuration":108475,"Delta":250912621},{"NoteNumber":59,"Velocity":61,"Duration":434076,"SoundDuration":434076,"Delta":250912621},{"NoteNumber":47,"Velocity":51,"Duration":434076,"SoundDuration":434076,"Delta":250912621},{"NoteNumber":62,"Velocity":48,"Duration":108475,"SoundDuration":108475,"Delta":251021097},{"NoteNumber":67,"Velocity":53,"Duration":108475,"SoundDuration":108475,"Delta":251129572},{"NoteNumber":62,"Velocity":48,"Duration":108650,"SoundDuration":108650,"Delta":251238048},{"NoteNumber":69,"Velocity":63,"Duration":109735,"SoundDuration":109735,"Delta":251346698},{"NoteNumber":54,"Velocity":54,"Duration":440922,"SoundDuration":440922,"Delta":251346698},{"NoteNumber":42,"Velocity":45,"Duration":440922,"SoundDuration":440922,"Delta":251346698},{"NoteNumber":62,"Velocity":47,"Duration":109899,"SoundDuration":109899,"Delta":251456433},{"NoteNumber":69,"Velocity":53,"Duration":110394,"SoundDuration":110394,"Delta":251566332},{"NoteNumber":62,"Velocity":47,"Duration":110893,"SoundDuration":110893,"Delta":251676727},{"NoteNumber":71,"Velocity":68,"Duration":111502,"SoundDuration":111502,"Delta":251787621},{"NoteNumber":55,"Velocity":56,"Duration":443630,"SoundDuration":443630,"Delta":251787621},{"NoteNumber":43,"Velocity":47,"Duration":443630,"SoundDuration":443630,"Delta":251787621},{"NoteNumber":62,"Velocity":50,"Duration":110709,"SoundDuration":110709,"Delta":251899123},{"NoteNumber":71,"Velocity":55,"Duration":110709,"SoundDuration":110709,"Delta":252009833},{"NoteNumber":62,"Velocity":49,"Duration":110709,"SoundDuration":110709,"Delta":252120542},{"NoteNumber":67,"Velocity":66,"Duration":108841,"SoundDuration":108841,"Delta":252231251},{"NoteNumber":52,"Velocity":53,"Duration":434267,"SoundDuration":434267,"Delta":252231251},{"NoteNumber":40,"Velocity":45,"Duration":434267,"SoundDuration":434267,"Delta":252231251},{"NoteNumber":61,"Velocity":48,"Duration":108475,"SoundDuration":108475,"Delta":252340092},{"NoteNumber":67,"Velocity":53,"Duration":108475,"SoundDuration":108475,"Delta":252448568},{"NoteNumber":61,"Velocity":47,"Duration":108475,"SoundDuration":108475,"Delta":252557043},{"NoteNumber":66,"Velocity":63,"Duration":110294,"SoundDuration":110294,"Delta":252665519},{"NoteNumber":50,"Velocity":61,"Duration":441176,"SoundDuration":441176,"Delta":252665519},{"NoteNumber":38,"Velocity":51,"Duration":441176,"SoundDuration":441176,"Delta":252665519},{"NoteNumber":62,"Velocity":48,"Duration":110293,"SoundDuration":110293,"Delta":252775813},{"NoteNumber":66,"Velocity":53,"Duration":110294,"SoundDuration":110294,"Delta":252886107},{"NoteNumber":62,"Velocity":48,"Duration":110294,"SoundDuration":110294,"Delta":252996401},{"NoteNumber":65,"Velocity":63,"Duration":110987,"SoundDuration":110987,"Delta":253106695},{"NoteNumber":44,"Velocity":54,"Duration":451356,"SoundDuration":451356,"Delta":253106695},{"NoteNumber":32,"Velocity":45,"Duration":451356,"SoundDuration":451356,"Delta":253106695},{"NoteNumber":62,"Velocity":47,"Duration":112162,"SoundDuration":112162,"Delta":253217682},{"NoteNumber":65,"Velocity":53,"Duration":113485,"SoundDuration":113485,"Delta":253329844},{"NoteNumber":62,"Velocity":47,"Duration":114721,"SoundDuration":114721,"Delta":253443330},{"NoteNumber":64,"Velocity":70,"Duration":106708,"SoundDuration":106708,"Delta":253558051},{"NoteNumber":33,"Velocity":45,"Duration":435598,"SoundDuration":435598,"Delta":253558051},{"NoteNumber":45,"Velocity":54,"Duration":435598,"SoundDuration":435598,"Delta":253558051},{"NoteNumber":61,"Velocity":63,"Duration":106708,"SoundDuration":106708,"Delta":253664759},{"NoteNumber":64,"Velocity":63,"Duration":106708,"SoundDuration":106708,"Delta":253771468},{"NoteNumber":61,"Velocity":63,"Duration":115473,"SoundDuration":115473,"Delta":253878176},{"NoteNumber":69,"Velocity":72,"Duration":110294,"SoundDuration":110294,"Delta":253993650},{"NoteNumber":45,"Velocity":49,"Duration":110294,"SoundDuration":110294,"Delta":254214238},{"NoteNumber":33,"Velocity":41,"Duration":110294,"SoundDuration":110294,"Delta":254214238},{"NoteNumber":65,"Velocity":69,"Duration":106708,"SoundDuration":106708,"Delta":254434826},{"NoteNumber":33,"Velocity":45,"Duration":436045,"SoundDuration":436045,"Delta":254434826},{"NoteNumber":45,"Velocity":54,"Duration":436045,"SoundDuration":436045,"Delta":254434826},{"NoteNumber":62,"Velocity":63,"Duration":106708,"SoundDuration":106708,"Delta":254541534},{"NoteNumber":65,"Velocity":63,"Duration":106708,"SoundDuration":106708,"Delta":254648243},{"NoteNumber":62,"Velocity":63,"Duration":115919,"SoundDuration":115919,"Delta":254754951},{"NoteNumber":69,"Velocity":71,"Duration":110294,"SoundDuration":110294,"Delta":254870871},{"NoteNumber":45,"Velocity":48,"Duration":110293,"SoundDuration":110293,"Delta":255091459},{"NoteNumber":33,"Velocity":40,"Duration":110293,"SoundDuration":110293,"Delta":255091459},{"NoteNumber":64,"Velocity":69,"Duration":106322,"SoundDuration":106322,"Delta":255312047},{"NoteNumber":33,"Velocity":45,"Duration":433097,"SoundDuration":433097,"Delta":255312047},{"NoteNumber":45,"Velocity":54,"Duration":433097,"SoundDuration":433097,"Delta":255312047},{"NoteNumber":61,"Velocity":58,"Duration":106322,"SoundDuration":106322,"Delta":255418370},{"NoteNumber":64,"Velocity":58,"Duration":106322,"SoundDuration":106322,"Delta":255524693},{"NoteNumber":61,"Velocity":57,"Duration":114129,"SoundDuration":114129,"Delta":255631015},{"NoteNumber":69,"Velocity":66,"Duration":111127,"SoundDuration":111127,"Delta":255745145},{"NoteNumber":33,"Velocity":30,"Duration":111127,"SoundDuration":111127,"Delta":255967400},{"NoteNumber":45,"Velocity":36,"Duration":111127,"SoundDuration":111127,"Delta":255967400},{"NoteNumber":68,"Velocity":55,"Duration":109075,"SoundDuration":109075,"Delta":256189655},{"NoteNumber":45,"Velocity":41,"Duration":449884,"SoundDuration":449884,"Delta":256189655},{"NoteNumber":33,"Velocity":34,"Duration":449884,"SoundDuration":449884,"Delta":256189655},{"NoteNumber":62,"Velocity":43,"Duration":109074,"SoundDuration":109074,"Delta":256298730},{"NoteNumber":68,"Velocity":43,"Duration":109075,"SoundDuration":109075,"Delta":256407805},{"NoteNumber":62,"Velocity":43,"Duration":122659,"SoundDuration":122659,"Delta":256516880},{"NoteNumber":71,"Velocity":55,"Duration":114129,"SoundDuration":114129,"Delta":256639539},{"NoteNumber":33,"Velocity":21,"Duration":114129,"SoundDuration":114129,"Delta":256867797},{"NoteNumber":45,"Velocity":25,"Duration":114129,"SoundDuration":114129,"Delta":256867797},{"NoteNumber":67,"Velocity":41,"Duration":157868,"SoundDuration":157868,"Delta":257136001},{"NoteNumber":33,"Velocity":28,"Duration":1217929,"SoundDuration":1217929,"Delta":257136001},{"NoteNumber":45,"Velocity":34,"Duration":1217929,"SoundDuration":1217929,"Delta":257136001},{"NoteNumber":64,"Velocity":34,"Duration":165725,"SoundDuration":165725,"Delta":257293869},{"NoteNumber":67,"Velocity":34,"Duration":174397,"SoundDuration":174397,"Delta":257459595},{"NoteNumber":64,"Velocity":34,"Duration":220978,"SoundDuration":220978,"Delta":257633992},{"NoteNumber":73,"Velocity":39,"Duration":498960,"SoundDuration":498960,"Delta":257854971},{"NoteNumber":71,"Velocity":50,"Duration":104609,"SoundDuration":104609,"Delta":258852891},{"NoteNumber":69,"Velocity":46,"Duration":104609,"SoundDuration":104609,"Delta":258957500},{"NoteNumber":68,"Velocity":46,"Duration":112452,"SoundDuration":112452,"Delta":259062110},{"NoteNumber":69,"Velocity":46,"Duration":112452,"SoundDuration":112452,"Delta":259174562},{"NoteNumber":66,"Velocity":48,"Duration":651212,"SoundDuration":651212,"Delta":259287015},{"NoteNumber":74,"Velocity":55,"Duration":651212,"SoundDuration":651212,"Delta":259287015},{"NoteNumber":50,"Velocity":32,"Duration":219957,"SoundDuration":219957,"Delta":259287015},{"NoteNumber":57,"Velocity":26,"Duration":217564,"SoundDuration":217564,"Delta":259506972},{"NoteNumber":54,"Velocity":26,"Duration":213690,"SoundDuration":213690,"Delta":259724537},{"NoteNumber":69,"Velocity":42,"Duration":213690,"SoundDuration":213690,"Delta":259938227},{"NoteNumber":57,"Velocity":26,"Duration":213690,"SoundDuration":213690,"Delta":259938227},{"NoteNumber":66,"Velocity":46,"Duration":213690,"SoundDuration":213690,"Delta":260151918},{"NoteNumber":50,"Velocity":30,"Duration":213690,"SoundDuration":213690,"Delta":260151918},{"NoteNumber":69,"Velocity":43,"Duration":213690,"SoundDuration":213690,"Delta":260365608},{"NoteNumber":57,"Velocity":28,"Duration":213690,"SoundDuration":213690,"Delta":260365608},{"NoteNumber":74,"Velocity":46,"Duration":213690,"SoundDuration":213690,"Delta":260579299},{"NoteNumber":54,"Velocity":28,"Duration":213690,"SoundDuration":213690,"Delta":260579299},{"NoteNumber":78,"Velocity":46,"Duration":171899,"SoundDuration":171899,"Delta":260792989},{"NoteNumber":57,"Velocity":28,"Duration":229199,"SoundDuration":229199,"Delta":260792989},{"NoteNumber":69,"Velocity":45,"Duration":57299,"SoundDuration":57299,"Delta":260964889},{"NoteNumber":81,"Velocity":54,"Duration":644464,"SoundDuration":644464,"Delta":261022189},{"NoteNumber":50,"Velocity":37,"Duration":213842,"SoundDuration":213842,"Delta":261022189},{"NoteNumber":57,"Velocity":26,"Duration":213842,"SoundDuration":213842,"Delta":261236032},{"NoteNumber":54,"Velocity":26,"Duration":216778,"SoundDuration":216778,"Delta":261449875},{"NoteNumber":78,"Velocity":40,"Duration":104975,"SoundDuration":104975,"Delta":261666654},{"NoteNumber":57,"Velocity":26,"Duration":209951,"SoundDuration":209951,"Delta":261666654},{"NoteNumber":74,"Velocity":40,"Duration":104975,"SoundDuration":104975,"Delta":261771629},{"NoteNumber":69,"Velocity":47,"Duration":106845,"SoundDuration":106845,"Delta":261876605},{"NoteNumber":50,"Velocity":31,"Duration":213690,"SoundDuration":213690,"Delta":261876605},{"NoteNumber":57,"Velocity":27,"Duration":213690,"SoundDuration":213690,"Delta":262090296},{"NoteNumber":74,"Velocity":45,"Duration":104246,"SoundDuration":104246,"Delta":262303986},{"NoteNumber":54,"Velocity":27,"Duration":208492,"SoundDuration":208492,"Delta":262303986},{"NoteNumber":76,"Velocity":40,"Duration":104246,"SoundDuration":104246,"Delta":262408232},{"NoteNumber":74,"Velocity":40,"Duration":104246,"SoundDuration":104246,"Delta":262512479},{"NoteNumber":57,"Velocity":27,"Duration":208492,"SoundDuration":208492,"Delta":262512479},{"NoteNumber":73,"Velocity":41,"Duration":104246,"SoundDuration":104246,"Delta":262616725},{"NoteNumber":71,"Velocity":48,"Duration":108389,"SoundDuration":108389,"Delta":262720971},{"NoteNumber":50,"Velocity":32,"Duration":216778,"SoundDuration":216778,"Delta":262720971},{"NoteNumber":59,"Velocity":26,"Duration":216778,"SoundDuration":216778,"Delta":262937750},{"NoteNumber":74,"Velocity":45,"Duration":104975,"SoundDuration":104975,"Delta":263154528},{"NoteNumber":55,"Velocity":26,"Duration":209951,"SoundDuration":209951,"Delta":263154528},{"NoteNumber":76,"Velocity":39,"Duration":104975,"SoundDuration":104975,"Delta":263259504},{"NoteNumber":74,"Velocity":40,"Duration":104975,"SoundDuration":104975,"Delta":263364480},{"NoteNumber":59,"Velocity":26,"Duration":209951,"SoundDuration":209951,"Delta":263364480},{"NoteNumber":73,"Velocity":41,"Duration":104975,"SoundDuration":104975,"Delta":263469455},{"NoteNumber":71,"Velocity":46,"Duration":107999,"SoundDuration":107999,"Delta":263574431},{"NoteNumber":50,"Velocity":31,"Duration":215998,"SoundDuration":215998,"Delta":263574431},{"NoteNumber":59,"Velocity":27,"Duration":215998,"SoundDuration":215998,"Delta":263790430},{"NoteNumber":86,"Velocity":48,"Duration":107999,"SoundDuration":107999,"Delta":264006428},{"NoteNumber":55,"Velocity":27,"Duration":214088,"SoundDuration":214088,"Delta":264006428},{"NoteNumber":83,"Velocity":40,"Duration":106089,"SoundDuration":106089,"Delta":264114427},{"NoteNumber":86,"Velocity":44,"Duration":106089,"SoundDuration":106089,"Delta":264220517},{"NoteNumber":59,"Velocity":27,"Duration":212178,"SoundDuration":212178,"Delta":264220517},{"NoteNumber":83,"Velocity":40,"Duration":106089,"SoundDuration":106089,"Delta":264326606},{"NoteNumber":81,"Velocity":50,"Duration":106089,"SoundDuration":106089,"Delta":264432696},{"NoteNumber":50,"Velocity":37,"Duration":212934,"SoundDuration":212934,"Delta":264432696},{"NoteNumber":86,"Velocity":51,"Duration":106845,"SoundDuration":106845,"Delta":264538785},{"NoteNumber":85,"Velocity":48,"Duration":106845,"SoundDuration":106845,"Delta":264645631},{"NoteNumber":57,"Velocity":26,"Duration":213462,"SoundDuration":213462,"Delta":264645631},{"NoteNumber":83,"Velocity":46,"Duration":106617,"SoundDuration":106617,"Delta":264752476},{"NoteNumber":81,"Velocity":48,"Duration":107274,"SoundDuration":107274,"Delta":264859093},{"NoteNumber":54,"Velocity":26,"Duration":215593,"SoundDuration":215593,"Delta":264859093},{"NoteNumber":79,"Velocity":43,"Duration":108319,"SoundDuration":108319,"Delta":264966367},{"NoteNumber":78,"Velocity":43,"Duration":116931,"SoundDuration":116931,"Delta":265074687},{"NoteNumber":57,"Velocity":26,"Duration":233863,"SoundDuration":233863,"Delta":265074687},{"NoteNumber":76,"Velocity":42,"Duration":116931,"SoundDuration":116931,"Delta":265191619},{"NoteNumber":74,"Velocity":48,"Duration":431997,"SoundDuration":431997,"Delta":265308550},{"NoteNumber":54,"Velocity":31,"Duration":215998,"SoundDuration":215998,"Delta":265308550},{"NoteNumber":57,"Velocity":18,"Duration":215998,"SoundDuration":215998,"Delta":265524549},{"NoteNumber":50,"Velocity":22,"Duration":215998,"SoundDuration":215998,"Delta":265740547},{"NoteNumber":66,"Velocity":41,"Duration":215998,"SoundDuration":215998,"Delta":265956546},{"NoteNumber":57,"Velocity":19,"Duration":215998,"SoundDuration":215998,"Delta":265956546},{"NoteNumber":67,"Velocity":46,"Duration":109178,"SoundDuration":109178,"Delta":266172544},{"NoteNumber":49,"Velocity":29,"Duration":218356,"SoundDuration":218356,"Delta":266172544},{"NoteNumber":67,"Velocity":41,"Duration":109178,"SoundDuration":109178,"Delta":266390901},{"NoteNumber":57,"Velocity":24,"Duration":215644,"SoundDuration":215644,"Delta":266390901},{"NoteNumber":69,"Velocity":50,"Duration":105426,"SoundDuration":105426,"Delta":266606545},{"NoteNumber":52,"Velocity":24,"Duration":210851,"SoundDuration":210851,"Delta":266606545},{"NoteNumber":67,"Velocity":41,"Duration":105425,"SoundDuration":105425,"Delta":266711971},{"NoteNumber":66,"Velocity":42,"Duration":114599,"SoundDuration":114599,"Delta":266817397},{"NoteNumber":57,"Velocity":24,"Duration":229199,"SoundDuration":229199,"Delta":266817397},{"NoteNumber":67,"Velocity":48,"Duration":114599,"SoundDuration":114599,"Delta":266931997},{"NoteNumber":76,"Velocity":56,"Duration":647995,"SoundDuration":647995,"Delta":267046597},{"NoteNumber":49,"Velocity":31,"Duration":215998,"SoundDuration":215998,"Delta":267046597},{"NoteNumber":57,"Velocity":27,"Duration":215998,"SoundDuration":215998,"Delta":267262596},{"NoteNumber":52,"Velocity":27,"Duration":215998,"SoundDuration":215998,"Delta":267478594},{"NoteNumber":67,"Velocity":40,"Duration":215998,"SoundDuration":215998,"Delta":267694593},{"NoteNumber":57,"Velocity":27,"Duration":215998,"SoundDuration":215998,"Delta":267694593},{"NoteNumber":66,"Velocity":46,"Duration":109178,"SoundDuration":109178,"Delta":267910591},{"NoteNumber":50,"Velocity":32,"Duration":218356,"SoundDuration":218356,"Delta":267910591},{"NoteNumber":66,"Velocity":40,"Duration":109178,"SoundDuration":109178,"Delta":268128948},{"NoteNumber":57,"Velocity":23,"Duration":218356,"SoundDuration":218356,"Delta":268128948},{"NoteNumber":67,"Velocity":50,"Duration":105426,"SoundDuration":105426,"Delta":268347304},{"NoteNumber":54,"Velocity":23,"Duration":210851,"SoundDuration":210851,"Delta":268347304},{"NoteNumber":66,"Velocity":40,"Duration":105425,"SoundDuration":105425,"Delta":268452730},{"NoteNumber":64,"Velocity":46,"Duration":113731,"SoundDuration":113731,"Delta":268558156},{"NoteNumber":57,"Velocity":23,"Duration":227462,"SoundDuration":227462,"Delta":268558156},{"NoteNumber":66,"Velocity":48,"Duration":113731,"SoundDuration":113731,"Delta":268671887},{"NoteNumber":74,"Velocity":56,"Duration":647995,"SoundDuration":647995,"Delta":268785619},{"NoteNumber":50,"Velocity":31,"Duration":215998,"SoundDuration":215998,"Delta":268785619},{"NoteNumber":57,"Velocity":27,"Duration":215998,"SoundDuration":215998,"Delta":269001617},{"NoteNumber":54,"Velocity":27,"Duration":215998,"SoundDuration":215998,"Delta":269217616},{"NoteNumber":66,"Velocity":40,"Duration":215998,"SoundDuration":215998,"Delta":269433614},{"NoteNumber":57,"Velocity":27,"Duration":215998,"SoundDuration":215998,"Delta":269433614},{"NoteNumber":66,"Velocity":47,"Duration":219154,"SoundDuration":219154,"Delta":269649613},{"NoteNumber":43,"Velocity":32,"Duration":884065,"SoundDuration":884065,"Delta":269649613},{"NoteNumber":55,"Velocity":32,"Duration":884065,"SoundDuration":884065,"Delta":269649613},{"NoteNumber":64,"Velocity":37,"Duration":219154,"SoundDuration":219154,"Delta":269868767},{"NoteNumber":67,"Velocity":40,"Duration":219154,"SoundDuration":219154,"Delta":270087921},{"NoteNumber":71,"Velocity":37,"Duration":226603,"SoundDuration":226603,"Delta":270307075},{"NoteNumber":71,"Velocity":45,"Duration":216778,"SoundDuration":216778,"Delta":270533678},{"NoteNumber":45,"Velocity":32,"Duration":886490,"SoundDuration":886490,"Delta":270533678},{"NoteNumber":57,"Velocity":32,"Duration":886490,"SoundDuration":886490,"Delta":270533678},{"NoteNumber":61,"Velocity":37,"Duration":216778,"SoundDuration":216778,"Delta":270750456},{"NoteNumber":64,"Velocity":40,"Duration":218356,"SoundDuration":218356,"Delta":270967235},{"NoteNumber":69,"Velocity":37,"Duration":234576,"SoundDuration":234576,"Delta":271185591},{"NoteNumber":67,"Velocity":45,"Duration":883103,"SoundDuration":883103,"Delta":271420168},{"NoteNumber":64,"Velocity":45,"Duration":883103,"SoundDuration":883103,"Delta":271420168},{"NoteNumber":38,"Velocity":31,"Duration":219957,"SoundDuration":219957,"Delta":271640125},{"NoteNumber":42,"Velocity":32,"Duration":219957,"SoundDuration":219957,"Delta":271860083},{"NoteNumber":45,"Velocity":34,"Duration":223230,"SoundDuration":223230,"Delta":272080040},{"NoteNumber":62,"Velocity":40,"Duration":440346,"SoundDuration":440346,"Delta":272303271},{"NoteNumber":66,"Velocity":40,"Duration":440346,"SoundDuration":440346,"Delta":272303271},{"NoteNumber":50,"Velocity":36,"Duration":221192,"SoundDuration":221192,"Delta":272303271},{"NoteNumber":45,"Velocity":31,"Duration":219154,"SoundDuration":219154,"Delta":272524464},{"NoteNumber":38,"Velocity":32,"Duration":219154,"SoundDuration":219154,"Delta":272743618},{"NoteNumber":66,"Velocity":40,"Duration":219021,"SoundDuration":219021,"Delta":272962772},{"NoteNumber":50,"Velocity":31,"Duration":219021,"SoundDuration":219021,"Delta":272962772},{"NoteNumber":67,"Velocity":46,"Duration":109046,"SoundDuration":109046,"Delta":273181793},{"NoteNumber":49,"Velocity":43,"Duration":217697,"SoundDuration":217697,"Delta":273181793},{"NoteNumber":64,"Velocity":37,"Duration":108651,"SoundDuration":108651,"Delta":273290839},{"NoteNumber":66,"Velocity":38,"Duration":108259,"SoundDuration":108259,"Delta":273399490},{"NoteNumber":57,"Velocity":36,"Duration":216129,"SoundDuration":216129,"Delta":273399490},{"NoteNumber":67,"Velocity":39,"Duration":107870,"SoundDuration":107870,"Delta":273507749},{"NoteNumber":69,"Velocity":46,"Duration":107483,"SoundDuration":107483,"Delta":273615619},{"NoteNumber":52,"Velocity":40,"Duration":214456,"SoundDuration":214456,"Delta":273615619},{"NoteNumber":71,"Velocity":39,"Duration":106972,"SoundDuration":106972,"Delta":273723103},{"NoteNumber":73,"Velocity":39,"Duration":106341,"SoundDuration":106341,"Delta":273830075},{"NoteNumber":57,"Velocity":36,"Duration":212430,"SoundDuration":212430,"Delta":273830075},{"NoteNumber":74,"Velocity":40,"Duration":106089,"SoundDuration":106089,"Delta":273936417},{"NoteNumber":76,"Velocity":48,"Duration":106089,"SoundDuration":106089,"Delta":274042506},{"NoteNumber":49,"Velocity":46,"Duration":212179,"SoundDuration":212179,"Delta":274042506},{"NoteNumber":74,"Velocity":40,"Duration":106089,"SoundDuration":106089,"Delta":274148596},{"NoteNumber":73,"Velocity":41,"Duration":106089,"SoundDuration":106089,"Delta":274254685},{"NoteNumber":57,"Velocity":36,"Duration":212178,"SoundDuration":212178,"Delta":274254685},{"NoteNumber":71,"Velocity":42,"Duration":106089,"SoundDuration":106089,"Delta":274360775},{"NoteNumber":69,"Velocity":48,"Duration":106089,"SoundDuration":106089,"Delta":274466864},{"NoteNumber":52,"Velocity":39,"Duration":212178,"SoundDuration":212178,"Delta":274466864},{"NoteNumber":67,"Velocity":41,"Duration":106089,"SoundDuration":106089,"Delta":274572954},{"NoteNumber":66,"Velocity":41,"Duration":117288,"SoundDuration":117288,"Delta":274679043},{"NoteNumber":57,"Velocity":36,"Duration":234576,"SoundDuration":234576,"Delta":274679043},{"NoteNumber":64,"Velocity":41,"Duration":117288,"SoundDuration":117288,"Delta":274796332},{"NoteNumber":66,"Velocity":49,"Duration":107611,"SoundDuration":107611,"Delta":274913620},{"NoteNumber":50,"Velocity":47,"Duration":215223,"SoundDuration":215223,"Delta":274913620},{"NoteNumber":62,"Velocity":40,"Duration":107611,"SoundDuration":107611,"Delta":275021232},{"NoteNumber":64,"Velocity":40,"Duration":107611,"SoundDuration":107611,"Delta":275128843},{"NoteNumber":57,"Velocity":36,"Duration":215223,"SoundDuration":215223,"Delta":275128843},{"NoteNumber":66,"Velocity":42,"Duration":107611,"SoundDuration":107611,"Delta":275236455},{"NoteNumber":67,"Velocity":51,"Duration":107611,"SoundDuration":107611,"Delta":275344067},{"NoteNumber":54,"Velocity":41,"Duration":215223,"SoundDuration":215223,"Delta":275344067},{"NoteNumber":69,"Velocity":42,"Duration":107611,"SoundDuration":107611,"Delta":275451679},{"NoteNumber":71,"Velocity":44,"Duration":107611,"SoundDuration":107611,"Delta":275559290},{"NoteNumber":57,"Velocity":36,"Duration":215223,"SoundDuration":215223,"Delta":275559290},{"NoteNumber":73,"Velocity":46,"Duration":107611,"SoundDuration":107611,"Delta":275666902},{"NoteNumber":74,"Velocity":57,"Duration":108259,"SoundDuration":108259,"Delta":275774514},{"NoteNumber":50,"Velocity":48,"Duration":217892,"SoundDuration":217892,"Delta":275774514},{"NoteNumber":76,"Velocity":47,"Duration":109632,"SoundDuration":109632,"Delta":275882774},{"NoteNumber":78,"Velocity":49,"Duration":110792,"SoundDuration":110792,"Delta":275992406},{"NoteNumber":57,"Velocity":40,"Duration":223078,"SoundDuration":223078,"Delta":275992406},{"NoteNumber":79,"Velocity":48,"Duration":112285,"SoundDuration":112285,"Delta":276103199},{"NoteNumber":81,"Velocity":57,"Duration":113474,"SoundDuration":113474,"Delta":276215484},{"NoteNumber":54,"Velocity":45,"Duration":228515,"SoundDuration":228515,"Delta":276215484},{"NoteNumber":83,"Velocity":57,"Duration":115041,"SoundDuration":115041,"Delta":276328959},{"NoteNumber":85,"Velocity":64,"Duration":116320,"SoundDuration":116320,"Delta":276444000},{"NoteNumber":57,"Velocity":43,"Duration":234349,"SoundDuration":234349,"Delta":276444000},{"NoteNumber":86,"Velocity":69,"Duration":118028,"SoundDuration":118028,"Delta":276560321},{"NoteNumber":55,"Velocity":58,"Duration":890916,"SoundDuration":890916,"Delta":276678349},{"NoteNumber":43,"Velocity":49,"Duration":890916,"SoundDuration":890916,"Delta":276678349},{"NoteNumber":71,"Velocity":54,"Duration":116793,"SoundDuration":116793,"Delta":276797501},{"NoteNumber":76,"Velocity":55,"Duration":110909,"SoundDuration":110909,"Delta":276914295},{"NoteNumber":79,"Velocity":61,"Duration":110095,"SoundDuration":110095,"Delta":277025205},{"NoteNumber":83,"Velocity":65,"Duration":109293,"SoundDuration":109293,"Delta":277135300},{"NoteNumber":81,"Velocity":59,"Duration":108502,"SoundDuration":108502,"Delta":277244593},{"NoteNumber":79,"Velocity":59,"Duration":108084,"SoundDuration":108084,"Delta":277353096},{"NoteNumber":78,"Velocity":55,"Duration":108084,"SoundDuration":108084,"Delta":277461181},{"NoteNumber":76,"Velocity":54,"Duration":107738,"SoundDuration":107738,"Delta":277569265},{"NoteNumber":45,"Velocity":41,"Duration":429521,"SoundDuration":429521,"Delta":277569265},{"NoteNumber":57,"Velocity":49,"Duration":429521,"SoundDuration":429521,"Delta":277569265},{"NoteNumber":74,"Velocity":53,"Duration":106928,"SoundDuration":106928,"Delta":277677003},{"NoteNumber":73,"Velocity":51,"Duration":107298,"SoundDuration":107298,"Delta":277783932},{"NoteNumber":71,"Velocity":51,"Duration":107555,"SoundDuration":107555,"Delta":277891231},{"NoteNumber":69,"Velocity":55,"Duration":107942,"SoundDuration":107942,"Delta":277998787},{"NoteNumber":45,"Velocity":38,"Duration":434790,"SoundDuration":434790,"Delta":277998787},{"NoteNumber":57,"Velocity":45,"Duration":434790,"SoundDuration":434790,"Delta":277998787},{"NoteNumber":67,"Velocity":60,"Duration":108201,"SoundDuration":108201,"Delta":278106729},{"NoteNumber":66,"Velocity":63,"Duration":108667,"SoundDuration":108667,"Delta":278214931},{"NoteNumber":64,"Velocity":65,"Duration":109978,"SoundDuration":109978,"Delta":278323599},{"NoteNumber":62,"Velocity":78,"Duration":644945,"SoundDuration":644945,"Delta":278433578},{"NoteNumber":38,"Velocity":63,"Duration":213690,"SoundDuration":213690,"Delta":278433578},{"NoteNumber":42,"Velocity":50,"Duration":213690,"SoundDuration":213690,"Delta":278647268},{"NoteNumber":45,"Velocity":56,"Duration":217564,"SoundDuration":217564,"Delta":278860959},{"NoteNumber":62,"Velocity":61,"Duration":213690,"SoundDuration":213690,"Delta":279078523},{"NoteNumber":50,"Velocity":50,"Duration":213690,"SoundDuration":213690,"Delta":279078523},{"NoteNumber":61,"Velocity":65,"Duration":213690,"SoundDuration":213690,"Delta":279292214},{"NoteNumber":38,"Velocity":46,"Duration":213690,"SoundDuration":213690,"Delta":279292214},{"NoteNumber":62,"Velocity":63,"Duration":213690,"SoundDuration":213690,"Delta":279505904},{"NoteNumber":50,"Velocity":33,"Duration":213690,"SoundDuration":213690,"Delta":279505904},{"NoteNumber":60,"Velocity":65,"Duration":213690,"SoundDuration":213690,"Delta":279719595},{"NoteNumber":38,"Velocity":37,"Duration":213690,"SoundDuration":213690,"Delta":279719595},{"NoteNumber":66,"Velocity":62,"Duration":219957,"SoundDuration":219957,"Delta":279933285},{"NoteNumber":50,"Velocity":32,"Duration":219957,"SoundDuration":219957,"Delta":279933285},{"NoteNumber":59,"Velocity":65,"Duration":212932,"SoundDuration":212932,"Delta":280153243},{"NoteNumber":38,"Velocity":46,"Duration":212932,"SoundDuration":212932,"Delta":280153243},{"NoteNumber":67,"Velocity":63,"Duration":212931,"SoundDuration":212931,"Delta":280366175},{"NoteNumber":50,"Velocity":31,"Duration":212931,"SoundDuration":212931,"Delta":280366175},{"NoteNumber":69,"Velocity":65,"Duration":104609,"SoundDuration":104609,"Delta":280579107},{"NoteNumber":38,"Velocity":36,"Duration":209219,"SoundDuration":209219,"Delta":280579107},{"NoteNumber":67,"Velocity":62,"Duration":104609,"SoundDuration":104609,"Delta":280683716},{"NoteNumber":66,"Velocity":62,"Duration":104609,"SoundDuration":104609,"Delta":280788326},{"NoteNumber":50,"Velocity":33,"Duration":209219,"SoundDuration":209219,"Delta":280788326},{"NoteNumber":67,"Velocity":62,"Duration":104609,"SoundDuration":104609,"Delta":280892936},{"NoteNumber":71,"Velocity":71,"Duration":216778,"SoundDuration":216778,"Delta":280997546},{"NoteNumber":38,"Velocity":46,"Duration":216778,"SoundDuration":216778,"Delta":280997546},{"NoteNumber":67,"Velocity":65,"Duration":216778,"SoundDuration":216778,"Delta":281214324},{"NoteNumber":50,"Velocity":32,"Duration":216778,"SoundDuration":216778,"Delta":281214324},{"NoteNumber":64,"Velocity":70,"Duration":216778,"SoundDuration":216778,"Delta":281431103},{"NoteNumber":38,"Velocity":37,"Duration":216778,"SoundDuration":216778,"Delta":281431103},{"NoteNumber":73,"Velocity":68,"Duration":237360,"SoundDuration":237360,"Delta":281647881},{"NoteNumber":50,"Velocity":32,"Duration":237360,"SoundDuration":237360,"Delta":281647881},{"NoteNumber":66,"Velocity":73,"Duration":644945,"SoundDuration":644945,"Delta":281885242},{"NoteNumber":74,"Velocity":82,"Duration":644945,"SoundDuration":644945,"Delta":281885242},{"NoteNumber":38,"Velocity":63,"Duration":213690,"SoundDuration":213690,"Delta":281885242},{"NoteNumber":42,"Velocity":50,"Duration":213690,"SoundDuration":213690,"Delta":282098932},{"NoteNumber":45,"Velocity":56,"Duration":217564,"SoundDuration":217564,"Delta":282312623},{"NoteNumber":74,"Velocity":67,"Duration":213690,"SoundDuration":213690,"Delta":282530187},{"NoteNumber":50,"Velocity":50,"Duration":213690,"SoundDuration":213690,"Delta":282530187},{"NoteNumber":73,"Velocity":71,"Duration":213690,"SoundDuration":213690,"Delta":282743878},{"NoteNumber":38,"Velocity":46,"Duration":213690,"SoundDuration":213690,"Delta":282743878},{"NoteNumber":74,"Velocity":69,"Duration":213690,"SoundDuration":213690,"Delta":282957568},{"NoteNumber":50,"Velocity":32,"Duration":213690,"SoundDuration":213690,"Delta":282957568},{"NoteNumber":72,"Velocity":71,"Duration":213690,"SoundDuration":213690,"Delta":283171259},{"NoteNumber":38,"Velocity":38,"Duration":213690,"SoundDuration":213690,"Delta":283171259},{"NoteNumber":78,"Velocity":68,"Duration":219957,"SoundDuration":219957,"Delta":283384949},{"NoteNumber":50,"Velocity":34,"Duration":219957,"SoundDuration":219957,"Delta":283384949},{"NoteNumber":71,"Velocity":71,"Duration":106466,"SoundDuration":106466,"Delta":283604907},{"NoteNumber":38,"Velocity":46,"Duration":212932,"SoundDuration":212932,"Delta":283604907},{"NoteNumber":79,"Velocity":64,"Duration":106466,"SoundDuration":106466,"Delta":283711373},{"NoteNumber":78,"Velocity":69,"Duration":106465,"SoundDuration":106465,"Delta":283817839},{"NoteNumber":50,"Velocity":32,"Duration":212931,"SoundDuration":212931,"Delta":283817839},{"NoteNumber":79,"Velocity":65,"Duration":106466,"SoundDuration":106466,"Delta":283924305},{"NoteNumber":81,"Velocity":71,"Duration":104609,"SoundDuration":104609,"Delta":284030771},{"NoteNumber":38,"Velocity":36,"Duration":209219,"SoundDuration":209219,"Delta":284030771},{"NoteNumber":79,"Velocity":68,"Duration":104609,"SoundDuration":104609,"Delta":284135380},{"NoteNumber":78,"Velocity":68,"Duration":104609,"SoundDuration":104609,"Delta":284239990},{"NoteNumber":50,"Velocity":32,"Duration":209219,"SoundDuration":209219,"Delta":284239990},{"NoteNumber":79,"Velocity":68,"Duration":104609,"SoundDuration":104609,"Delta":284344600},{"NoteNumber":83,"Velocity":78,"Duration":212313,"SoundDuration":212313,"Delta":284449210},{"NoteNumber":38,"Velocity":46,"Duration":212313,"SoundDuration":212313,"Delta":284449210},{"NoteNumber":79,"Velocity":71,"Duration":212313,"SoundDuration":212313,"Delta":284661524},{"NoteNumber":50,"Velocity":33,"Duration":212313,"SoundDuration":212313,"Delta":284661524},{"NoteNumber":76,"Velocity":77,"Duration":212313,"SoundDuration":212313,"Delta":284873838},{"NoteNumber":38,"Velocity":39,"Duration":212313,"SoundDuration":212313,"Delta":284873838},{"NoteNumber":85,"Velocity":71,"Duration":221140,"SoundDuration":221140,"Delta":285086152},{"NoteNumber":50,"Velocity":36,"Duration":221140,"SoundDuration":221140,"Delta":285086152},{"NoteNumber":86,"Velocity":88,"Duration":105310,"SoundDuration":105310,"Delta":285307293},{"NoteNumber":38,"Velocity":63,"Duration":210949,"SoundDuration":210949,"Delta":285307293},{"NoteNumber":74,"Velocity":64,"Duration":105639,"SoundDuration":105639,"Delta":285412603},{"NoteNumber":76,"Velocity":64,"Duration":105386,"SoundDuration":105386,"Delta":285518242},{"NoteNumber":50,"Velocity":37,"Duration":210406,"SoundDuration":210406,"Delta":285518242},{"NoteNumber":78,"Velocity":64,"Duration":105019,"SoundDuration":105019,"Delta":285623629},{"NoteNumber":79,"Velocity":64,"Duration":104756,"SoundDuration":104756,"Delta":285728649},{"NoteNumber":38,"Velocity":42,"Duration":209262,"SoundDuration":209262,"Delta":285728649},{"NoteNumber":81,"Velocity":67,"Duration":104506,"SoundDuration":104506,"Delta":285833406},{"NoteNumber":83,"Velocity":68,"Duration":104258,"SoundDuration":104258,"Delta":285937912},{"NoteNumber":50,"Velocity":38,"Duration":215246,"SoundDuration":215246,"Delta":285937912},{"NoteNumber":85,"Velocity":70,"Duration":110987,"SoundDuration":110987,"Delta":286042171},{"NoteNumber":86,"Velocity":82,"Duration":105775,"SoundDuration":105775,"Delta":286153158},{"NoteNumber":37,"Velocity":49,"Duration":211677,"SoundDuration":211677,"Delta":286153158},{"NoteNumber":74,"Velocity":71,"Duration":105902,"SoundDuration":105902,"Delta":286258934},{"NoteNumber":76,"Velocity":71,"Duration":105966,"SoundDuration":105966,"Delta":286364836},{"NoteNumber":49,"Velocity":36,"Duration":211488,"SoundDuration":211488,"Delta":286364836},{"NoteNumber":78,"Velocity":71,"Duration":105522,"SoundDuration":105522,"Delta":286470802},{"NoteNumber":79,"Velocity":72,"Duration":105082,"SoundDuration":105082,"Delta":286576325},{"NoteNumber":37,"Velocity":42,"Duration":209659,"SoundDuration":209659,"Delta":286576325},{"NoteNumber":81,"Velocity":73,"Duration":104577,"SoundDuration":104577,"Delta":286681408},{"NoteNumber":83,"Velocity":75,"Duration":104145,"SoundDuration":104145,"Delta":286785985},{"NoteNumber":49,"Velocity":38,"Duration":224347,"SoundDuration":224347,"Delta":286785985},{"NoteNumber":85,"Velocity":80,"Duration":120202,"SoundDuration":120202,"Delta":286890130},{"NoteNumber":86,"Velocity":86,"Duration":105775,"SoundDuration":105775,"Delta":287010332},{"NoteNumber":35,"Velocity":68,"Duration":211677,"SoundDuration":211677,"Delta":287010332},{"NoteNumber":74,"Velocity":74,"Duration":105902,"SoundDuration":105902,"Delta":287116107},{"NoteNumber":76,"Velocity":75,"Duration":105966,"SoundDuration":105966,"Delta":287222010},{"NoteNumber":47,"Velocity":38,"Duration":212834,"SoundDuration":212834,"Delta":287222010},{"NoteNumber":78,"Velocity":75,"Duration":106868,"SoundDuration":106868,"Delta":287327976},{"NoteNumber":79,"Velocity":75,"Duration":109190,"SoundDuration":109190,"Delta":287434844},{"NoteNumber":35,"Velocity":47,"Duration":220567,"SoundDuration":220567,"Delta":287434844},{"NoteNumber":81,"Velocity":75,"Duration":111377,"SoundDuration":111377,"Delta":287544035},{"NoteNumber":83,"Velocity":78,"Duration":119722,"SoundDuration":119722,"Delta":287655412},{"NoteNumber":47,"Velocity":43,"Duration":232682,"SoundDuration":232682,"Delta":287655412},{"NoteNumber":85,"Velocity":83,"Duration":112960,"SoundDuration":112960,"Delta":287775134},{"NoteNumber":86,"Velocity":97,"Duration":225920,"SoundDuration":225920,"Delta":287888095},{"NoteNumber":32,"Velocity":72,"Duration":225920,"SoundDuration":225920,"Delta":287888095},{"NoteNumber":74,"Velocity":76,"Duration":225920,"SoundDuration":225920,"Delta":288114015},{"NoteNumber":44,"Velocity":45,"Duration":225920,"SoundDuration":225920,"Delta":288114015},{"NoteNumber":76,"Velocity":86,"Duration":106156,"SoundDuration":106156,"Delta":288339936},{"NoteNumber":32,"Velocity":52,"Duration":212313,"SoundDuration":212313,"Delta":288339936},{"NoteNumber":74,"Velocity":71,"Duration":106156,"SoundDuration":106156,"Delta":288446093},{"NoteNumber":73,"Velocity":75,"Duration":106156,"SoundDuration":106156,"Delta":288552250},{"NoteNumber":44,"Velocity":45,"Duration":224313,"SoundDuration":224313,"Delta":288552250},{"NoteNumber":74,"Velocity":77,"Duration":118156,"SoundDuration":118156,"Delta":288658407},{"NoteNumber":73,"Velocity":69,"Duration":115358,"SoundDuration":115358,"Delta":288776563},{"NoteNumber":76,"Velocity":69,"Duration":115358,"SoundDuration":115358,"Delta":288776563},{"NoteNumber":81,"Velocity":82,"Duration":115358,"SoundDuration":115358,"Delta":288776563},{"NoteNumber":45,"Velocity":75,"Duration":115358,"SoundDuration":115358,"Delta":288776563},{"NoteNumber":33,"Velocity":75,"Duration":115358,"SoundDuration":115358,"Delta":288776563},{"NoteNumber":73,"Velocity":56,"Duration":118783,"SoundDuration":118783,"Delta":289237995},{"NoteNumber":76,"Velocity":56,"Duration":118783,"SoundDuration":118783,"Delta":289237995},{"NoteNumber":81,"Velocity":67,"Duration":118783,"SoundDuration":118783,"Delta":289237995},{"NoteNumber":45,"Velocity":49,"Duration":118783,"SoundDuration":118783,"Delta":289237995},{"NoteNumber":57,"Velocity":59,"Duration":118783,"SoundDuration":118783,"Delta":289237995},{"NoteNumber":81,"Velocity":69,"Duration":126860,"SoundDuration":126860,"Delta":289713130},{"NoteNumber":76,"Velocity":59,"Duration":126860,"SoundDuration":126860,"Delta":289713130},{"NoteNumber":73,"Velocity":59,"Duration":126860,"SoundDuration":126860,"Delta":289713130},{"NoteNumber":45,"Velocity":49,"Duration":126860,"SoundDuration":126860,"Delta":289713130},{"NoteNumber":57,"Velocity":59,"Duration":126860,"SoundDuration":126860,"Delta":289713130},{"NoteNumber":79,"Velocity":50,"Duration":227152,"SoundDuration":227152,"Delta":290220572},{"NoteNumber":78,"Velocity":46,"Duration":227152,"SoundDuration":227152,"Delta":290447725},{"NoteNumber":76,"Velocity":50,"Duration":340728,"SoundDuration":340728,"Delta":290674877},{"NoteNumber":67,"Velocity":31,"Duration":227152,"SoundDuration":227152,"Delta":290674877},{"NoteNumber":69,"Velocity":24,"Duration":227152,"SoundDuration":227152,"Delta":290902030},{"NoteNumber":76,"Velocity":47,"Duration":460633,"SoundDuration":460633,"Delta":291129182},{"NoteNumber":67,"Velocity":31,"Duration":227152,"SoundDuration":227152,"Delta":291129182},{"NoteNumber":69,"Velocity":26,"Duration":233480,"SoundDuration":233480,"Delta":291356335},{"NoteNumber":81,"Velocity":50,"Duration":452522,"SoundDuration":452522,"Delta":291589816},{"NoteNumber":67,"Velocity":31,"Duration":226261,"SoundDuration":226261,"Delta":291589816},{"NoteNumber":69,"Velocity":25,"Duration":226261,"SoundDuration":226261,"Delta":291816077},{"NoteNumber":73,"Velocity":46,"Duration":466453,"SoundDuration":466453,"Delta":292042339},{"NoteNumber":67,"Velocity":31,"Duration":226261,"SoundDuration":226261,"Delta":292042339},{"NoteNumber":69,"Velocity":28,"Duration":240191,"SoundDuration":240191,"Delta":292268600},{"NoteNumber":76,"Velocity":50,"Duration":893276,"SoundDuration":893276,"Delta":292508792},{"NoteNumber":66,"Velocity":31,"Duration":227152,"SoundDuration":227152,"Delta":292508792},{"NoteNumber":69,"Velocity":18,"Duration":222816,"SoundDuration":222816,"Delta":292735945},{"NoteNumber":66,"Velocity":20,"Duration":217045,"SoundDuration":217045,"Delta":292958761},{"NoteNumber":69,"Velocity":15,"Duration":226261,"SoundDuration":226261,"Delta":293175807},{"NoteNumber":74,"Velocity":44,"Duration":445774,"SoundDuration":445774,"Delta":293402068},{"NoteNumber":66,"Velocity":31,"Duration":224011,"SoundDuration":224011,"Delta":293402068},{"NoteNumber":69,"Velocity":23,"Duration":221762,"SoundDuration":221762,"Delta":293626080},{"NoteNumber":76,"Velocity":51,"Duration":216169,"SoundDuration":216169,"Delta":293847843},{"NoteNumber":66,"Velocity":33,"Duration":216169,"SoundDuration":216169,"Delta":293847843},{"NoteNumber":78,"Velocity":52,"Duration":235367,"SoundDuration":235367,"Delta":294064012},{"NoteNumber":69,"Velocity":30,"Duration":235367,"SoundDuration":235367,"Delta":294064012},{"NoteNumber":79,"Velocity":60,"Duration":342049,"SoundDuration":342049,"Delta":294299380},{"NoteNumber":64,"Velocity":38,"Duration":228032,"SoundDuration":228032,"Delta":294299380},{"NoteNumber":69,"Velocity":24,"Duration":228033,"SoundDuration":228033,"Delta":294527413},{"NoteNumber":79,"Velocity":47,"Duration":458748,"SoundDuration":458748,"Delta":294755446},{"NoteNumber":57,"Velocity":31,"Duration":228032,"SoundDuration":228032,"Delta":294755446},{"NoteNumber":69,"Velocity":26,"Duration":230715,"SoundDuration":230715,"Delta":294983479},{"NoteNumber":78,"Velocity":50,"Duration":454304,"SoundDuration":454304,"Delta":295214195},{"NoteNumber":62,"Velocity":31,"Duration":227152,"SoundDuration":227152,"Delta":295214195},{"NoteNumber":69,"Velocity":25,"Duration":227152,"SoundDuration":227152,"Delta":295441348},{"NoteNumber":78,"Velocity":46,"Duration":467344,"SoundDuration":467344,"Delta":295668500},{"NoteNumber":57,"Velocity":31,"Duration":227152,"SoundDuration":227152,"Delta":295668500},{"NoteNumber":69,"Velocity":28,"Duration":240191,"SoundDuration":240191,"Delta":295895653},{"NoteNumber":76,"Velocity":54,"Duration":222816,"SoundDuration":222816,"Delta":296135845},{"NoteNumber":61,"Velocity":31,"Duration":222816,"SoundDuration":222816,"Delta":296135845},{"NoteNumber":69,"Velocity":23,"Duration":259112,"SoundDuration":259112,"Delta":296358661},{"NoteNumber":81,"Velocity":49,"Duration":893103,"SoundDuration":893103,"Delta":296617773},{"NoteNumber":57,"Velocity":30,"Duration":226261,"SoundDuration":226261,"Delta":296617773},{"NoteNumber":69,"Velocity":24,"Duration":226261,"SoundDuration":226261,"Delta":296844035},{"NoteNumber":61,"Velocity":31,"Duration":221140,"SoundDuration":221140,"Delta":297070296},{"NoteNumber":69,"Velocity":23,"Duration":219439,"SoundDuration":219439,"Delta":297291437},{"NoteNumber":79,"Velocity":50,"Duration":221140,"SoundDuration":221140,"Delta":297510877},{"NoteNumber":64,"Velocity":31,"Duration":221140,"SoundDuration":221140,"Delta":297510877},{"NoteNumber":78,"Velocity":46,"Duration":231642,"SoundDuration":231642,"Delta":297732018},{"NoteNumber":69,"Velocity":23,"Duration":231642,"SoundDuration":231642,"Delta":297732018},{"NoteNumber":76,"Velocity":50,"Duration":339392,"SoundDuration":339392,"Delta":297963661},{"NoteNumber":67,"Velocity":31,"Duration":226261,"SoundDuration":226261,"Delta":297963661},{"NoteNumber":69,"Velocity":24,"Duration":226261,"SoundDuration":226261,"Delta":298189922},{"NoteNumber":76,"Velocity":47,"Duration":445632,"SoundDuration":445632,"Delta":298416184},{"NoteNumber":67,"Velocity":31,"Duration":222816,"SoundDuration":222816,"Delta":298416184},{"NoteNumber":69,"Velocity":26,"Duration":222816,"SoundDuration":222816,"Delta":298639000},{"NoteNumber":81,"Velocity":50,"Duration":452522,"SoundDuration":452522,"Delta":298861817},{"NoteNumber":67,"Velocity":31,"Duration":226261,"SoundDuration":226261,"Delta":298861817},{"NoteNumber":69,"Velocity":25,"Duration":226261,"SoundDuration":226261,"Delta":299088078},{"NoteNumber":73,"Velocity":46,"Duration":466453,"SoundDuration":466453,"Delta":299314340},{"NoteNumber":67,"Velocity":31,"Duration":226261,"SoundDuration":226261,"Delta":299314340},{"NoteNumber":69,"Velocity":28,"Duration":240191,"SoundDuration":240191,"Delta":299540601},{"NoteNumber":76,"Velocity":50,"Duration":893391,"SoundDuration":893391,"Delta":299780793},{"NoteNumber":66,"Velocity":31,"Duration":227152,"SoundDuration":227152,"Delta":299780793},{"NoteNumber":69,"Velocity":23,"Duration":218659,"SoundDuration":218659,"Delta":300007946},{"NoteNumber":66,"Velocity":24,"Duration":218659,"SoundDuration":218659,"Delta":300226605},{"NoteNumber":69,"Velocity":19,"Duration":228920,"SoundDuration":228920,"Delta":300445264},{"NoteNumber":74,"Velocity":44,"Duration":452522,"SoundDuration":452522,"Delta":300674184},{"NoteNumber":66,"Velocity":31,"Duration":226261,"SoundDuration":226261,"Delta":300674184},{"NoteNumber":69,"Velocity":23,"Duration":226261,"SoundDuration":226261,"Delta":300900446},{"NoteNumber":86,"Velocity":50,"Duration":216950,"SoundDuration":216950,"Delta":301126707},{"NoteNumber":66,"Velocity":31,"Duration":216950,"SoundDuration":216950,"Delta":301126707},{"NoteNumber":81,"Velocity":46,"Duration":235367,"SoundDuration":235367,"Delta":301343658},{"NoteNumber":69,"Velocity":23,"Duration":235367,"SoundDuration":235367,"Delta":301343658},{"NoteNumber":78,"Velocity":50,"Duration":339392,"SoundDuration":339392,"Delta":301579026},{"NoteNumber":57,"Velocity":31,"Duration":226261,"SoundDuration":226261,"Delta":301579026},{"NoteNumber":69,"Velocity":24,"Duration":224538,"SoundDuration":224538,"Delta":301805288},{"NoteNumber":78,"Velocity":47,"Duration":671894,"SoundDuration":671894,"Delta":302029827},{"NoteNumber":62,"Velocity":31,"Duration":222816,"SoundDuration":222816,"Delta":302029827},{"NoteNumber":69,"Velocity":26,"Duration":222816,"SoundDuration":222816,"Delta":302252643},{"NoteNumber":57,"Velocity":31,"Duration":226261,"SoundDuration":226261,"Delta":302475460},{"NoteNumber":81,"Velocity":50,"Duration":226261,"SoundDuration":226261,"Delta":302701721},{"NoteNumber":69,"Velocity":25,"Duration":226261,"SoundDuration":226261,"Delta":302701721},{"NoteNumber":79,"Velocity":46,"Duration":226261,"SoundDuration":226261,"Delta":302927983},{"NoteNumber":61,"Velocity":31,"Duration":226261,"SoundDuration":226261,"Delta":302927983},{"NoteNumber":76,"Velocity":44,"Duration":240191,"SoundDuration":240191,"Delta":303154244},{"NoteNumber":69,"Velocity":28,"Duration":240191,"SoundDuration":240191,"Delta":303154244},{"NoteNumber":74,"Velocity":54,"Duration":105775,"SoundDuration":105775,"Delta":303394436},{"NoteNumber":62,"Velocity":34,"Duration":423100,"SoundDuration":423100,"Delta":303394436},{"NoteNumber":66,"Velocity":40,"Duration":423100,"SoundDuration":423100,"Delta":303394436},{"NoteNumber":76,"Velocity":46,"Duration":105775,"SoundDuration":105775,"Delta":303500211},{"NoteNumber":74,"Velocity":53,"Duration":105775,"SoundDuration":105775,"Delta":303605987},{"NoteNumber":76,"Velocity":46,"Duration":105775,"SoundDuration":105775,"Delta":303711762},{"NoteNumber":78,"Velocity":57,"Duration":52887,"SoundDuration":52887,"Delta":303817537},{"NoteNumber":74,"Velocity":51,"Duration":57008,"SoundDuration":57008,"Delta":304029088},{"NoteNumber":71,"Velocity":54,"Duration":107326,"SoundDuration":107326,"Delta":304257121},{"NoteNumber":62,"Velocity":26,"Duration":107326,"SoundDuration":107326,"Delta":304257121},{"NoteNumber":67,"Velocity":31,"Duration":107326,"SoundDuration":107326,"Delta":304257121},{"NoteNumber":74,"Velocity":46,"Duration":106541,"SoundDuration":106541,"Delta":304364447},{"NoteNumber":71,"Velocity":53,"Duration":106541,"SoundDuration":106541,"Delta":304470989},{"NoteNumber":74,"Velocity":46,"Duration":106541,"SoundDuration":106541,"Delta":304577531},{"NoteNumber":73,"Velocity":55,"Duration":106541,"SoundDuration":106541,"Delta":304684073},{"NoteNumber":64,"Velocity":31,"Duration":106541,"SoundDuration":106541,"Delta":304684073},{"NoteNumber":62,"Velocity":26,"Duration":106541,"SoundDuration":106541,"Delta":304684073},{"NoteNumber":76,"Velocity":46,"Duration":106541,"SoundDuration":106541,"Delta":304790614},{"NoteNumber":73,"Velocity":53,"Duration":114016,"SoundDuration":114016,"Delta":304897156},{"NoteNumber":76,"Velocity":46,"Duration":114016,"SoundDuration":114016,"Delta":305011173},{"NoteNumber":74,"Velocity":54,"Duration":105775,"SoundDuration":105775,"Delta":305125189},{"NoteNumber":62,"Velocity":34,"Duration":423100,"SoundDuration":423100,"Delta":305125189},{"NoteNumber":66,"Velocity":40,"Duration":423100,"SoundDuration":423100,"Delta":305125189},{"NoteNumber":76,"Velocity":46,"Duration":105775,"SoundDuration":105775,"Delta":305230964},{"NoteNumber":74,"Velocity":53,"Duration":105775,"SoundDuration":105775,"Delta":305336740},{"NoteNumber":76,"Velocity":46,"Duration":105775,"SoundDuration":105775,"Delta":305442515},{"NoteNumber":78,"Velocity":57,"Duration":52887,"SoundDuration":52887,"Delta":305548290},{"NoteNumber":74,"Velocity":51,"Duration":57008,"SoundDuration":57008,"Delta":305759841},{"NoteNumber":71,"Velocity":54,"Duration":107326,"SoundDuration":107326,"Delta":305987874},{"NoteNumber":62,"Velocity":26,"Duration":107326,"SoundDuration":107326,"Delta":305987874},{"NoteNumber":67,"Velocity":31,"Duration":107326,"SoundDuration":107326,"Delta":305987874},{"NoteNumber":74,"Velocity":46,"Duration":106541,"SoundDuration":106541,"Delta":306095200},{"NoteNumber":71,"Velocity":53,"Duration":106541,"SoundDuration":106541,"Delta":306201742},{"NoteNumber":74,"Velocity":46,"Duration":106541,"SoundDuration":106541,"Delta":306308284},{"NoteNumber":73,"Velocity":55,"Duration":108924,"SoundDuration":108924,"Delta":306414826},{"NoteNumber":64,"Velocity":31,"Duration":108924,"SoundDuration":108924,"Delta":306414826},{"NoteNumber":62,"Velocity":26,"Duration":108924,"SoundDuration":108924,"Delta":306414826},{"NoteNumber":76,"Velocity":46,"Duration":108924,"SoundDuration":108924,"Delta":306523750},{"NoteNumber":73,"Velocity":53,"Duration":114016,"SoundDuration":114016,"Delta":306632675},{"NoteNumber":76,"Velocity":46,"Duration":119407,"SoundDuration":119407,"Delta":306746691},{"NoteNumber":74,"Velocity":56,"Duration":112244,"SoundDuration":112244,"Delta":306866099},{"NoteNumber":62,"Velocity":34,"Duration":439641,"SoundDuration":439641,"Delta":306866099},{"NoteNumber":66,"Velocity":40,"Duration":439641,"SoundDuration":439641,"Delta":306866099},{"NoteNumber":76,"Velocity":53,"Duration":110161,"SoundDuration":110161,"Delta":306978343},{"NoteNumber":78,"Velocity":55,"Duration":108476,"SoundDuration":108476,"Delta":307088504},{"NoteNumber":79,"Velocity":56,"Duration":108760,"SoundDuration":108760,"Delta":307196980},{"NoteNumber":81,"Velocity":58,"Duration":108275,"SoundDuration":108275,"Delta":307305741},{"NoteNumber":83,"Velocity":58,"Duration":107792,"SoundDuration":107792,"Delta":307414016},{"NoteNumber":85,"Velocity":58,"Duration":107245,"SoundDuration":107245,"Delta":307521809},{"NoteNumber":86,"Velocity":62,"Duration":120588,"SoundDuration":120588,"Delta":307629054},{"NoteNumber":74,"Velocity":71,"Duration":108924,"SoundDuration":108924,"Delta":307749643},{"NoteNumber":47,"Velocity":55,"Duration":217849,"SoundDuration":217849,"Delta":307749643},{"NoteNumber":59,"Velocity":65,"Duration":217849,"SoundDuration":217849,"Delta":307749643},{"NoteNumber":76,"Velocity":71,"Duration":108924,"SoundDuration":108924,"Delta":307858567},{"NoteNumber":78,"Velocity":71,"Duration":108924,"SoundDuration":108924,"Delta":307967492},{"NoteNumber":79,"Velocity":72,"Duration":108867,"SoundDuration":108867,"Delta":308076416},{"NoteNumber":81,"Velocity":73,"Duration":108522,"SoundDuration":108522,"Delta":308185284},{"NoteNumber":59,"Velocity":57,"Duration":217042,"SoundDuration":217042,"Delta":308185284},{"NoteNumber":47,"Velocity":48,"Duration":217042,"SoundDuration":217042,"Delta":308185284},{"NoteNumber":83,"Velocity":74,"Duration":108519,"SoundDuration":108519,"Delta":308293806},{"NoteNumber":85,"Velocity":77,"Duration":108115,"SoundDuration":108115,"Delta":308402326},{"NoteNumber":86,"Velocity":78,"Duration":120202,"SoundDuration":120202,"Delta":308510442},{"NoteNumber":83,"Velocity":82,"Duration":108576,"SoundDuration":108576,"Delta":308630644},{"NoteNumber":43,"Velocity":54,"Duration":217581,"SoundDuration":217581,"Delta":308630644},{"NoteNumber":55,"Velocity":64,"Duration":217581,"SoundDuration":217581,"Delta":308630644},{"NoteNumber":81,"Velocity":78,"Duration":109005,"SoundDuration":109005,"Delta":308739221},{"NoteNumber":79,"Velocity":78,"Duration":109383,"SoundDuration":109383,"Delta":308848226},{"NoteNumber":78,"Velocity":74,"Duration":109821,"SoundDuration":109821,"Delta":308957610},{"NoteNumber":76,"Velocity":71,"Duration":110211,"SoundDuration":110211,"Delta":309067431},{"NoteNumber":55,"Velocity":56,"Duration":220865,"SoundDuration":220865,"Delta":309067431},{"NoteNumber":43,"Velocity":47,"Duration":220865,"SoundDuration":220865,"Delta":309067431},{"NoteNumber":74,"Velocity":70,"Duration":110653,"SoundDuration":110653,"Delta":309177643},{"NoteNumber":73,"Velocity":73,"Duration":111043,"SoundDuration":111043,"Delta":309288297},{"NoteNumber":71,"Velocity":72,"Duration":111494,"SoundDuration":111494,"Delta":309399341},{"NoteNumber":69,"Velocity":81,"Duration":117205,"SoundDuration":117205,"Delta":309510835},{"NoteNumber":57,"Velocity":66,"Duration":117205,"SoundDuration":117205,"Delta":309510835},{"NoteNumber":45,"Velocity":56,"Duration":117205,"SoundDuration":117205,"Delta":309510835},{"NoteNumber":67,"Velocity":62,"Duration":117205,"SoundDuration":117205,"Delta":309979658},{"NoteNumber":69,"Velocity":62,"Duration":117205,"SoundDuration":117205,"Delta":309979658},{"NoteNumber":73,"Velocity":73,"Duration":117205,"SoundDuration":117205,"Delta":309979658},{"NoteNumber":45,"Velocity":47,"Duration":117205,"SoundDuration":117205,"Delta":309979658},{"NoteNumber":57,"Velocity":56,"Duration":117205,"SoundDuration":117205,"Delta":309979658},{"NoteNumber":74,"Velocity":43,"Duration":105775,"SoundDuration":105775,"Delta":310448481},{"NoteNumber":50,"Velocity":27,"Duration":423100,"SoundDuration":423100,"Delta":310448481},{"NoteNumber":62,"Velocity":32,"Duration":423100,"SoundDuration":423100,"Delta":310448481},{"NoteNumber":78,"Velocity":36,"Duration":105775,"SoundDuration":105775,"Delta":310554256},{"NoteNumber":81,"Velocity":42,"Duration":105775,"SoundDuration":105775,"Delta":310660032},{"NoteNumber":79,"Velocity":36,"Duration":105775,"SoundDuration":105775,"Delta":310765807},{"NoteNumber":78,"Velocity":45,"Duration":105775,"SoundDuration":105775,"Delta":310871582},{"NoteNumber":76,"Velocity":42,"Duration":105775,"SoundDuration":105775,"Delta":310977357},{"NoteNumber":74,"Velocity":40,"Duration":114016,"SoundDuration":114016,"Delta":311083133},{"NoteNumber":73,"Velocity":37,"Duration":114016,"SoundDuration":114016,"Delta":311197149},{"NoteNumber":71,"Velocity":43,"Duration":107326,"SoundDuration":107326,"Delta":311311166},{"NoteNumber":62,"Velocity":20,"Duration":107326,"SoundDuration":107326,"Delta":311311166},{"NoteNumber":67,"Velocity":24,"Duration":107326,"SoundDuration":107326,"Delta":311311166},{"NoteNumber":74,"Velocity":36,"Duration":106541,"SoundDuration":106541,"Delta":311418492},{"NoteNumber":71,"Velocity":42,"Duration":106541,"SoundDuration":106541,"Delta":311525034},{"NoteNumber":74,"Velocity":36,"Duration":106541,"SoundDuration":106541,"Delta":311631576},{"NoteNumber":73,"Velocity":44,"Duration":106541,"SoundDuration":106541,"Delta":311738118},{"NoteNumber":64,"Velocity":24,"Duration":106541,"SoundDuration":106541,"Delta":311738118},{"NoteNumber":62,"Velocity":20,"Duration":106541,"SoundDuration":106541,"Delta":311738118},{"NoteNumber":76,"Velocity":36,"Duration":106541,"SoundDuration":106541,"Delta":311844659},{"NoteNumber":73,"Velocity":42,"Duration":114016,"SoundDuration":114016,"Delta":311951201},{"NoteNumber":76,"Velocity":36,"Duration":114016,"SoundDuration":114016,"Delta":312065218},{"NoteNumber":74,"Velocity":43,"Duration":105775,"SoundDuration":105775,"Delta":312179234},{"NoteNumber":62,"Velocity":27,"Duration":423100,"SoundDuration":423100,"Delta":312179234},{"NoteNumber":66,"Velocity":32,"Duration":423100,"SoundDuration":423100,"Delta":312179234},{"NoteNumber":78,"Velocity":36,"Duration":105775,"SoundDuration":105775,"Delta":312285009},{"NoteNumber":81,"Velocity":42,"Duration":105775,"SoundDuration":105775,"Delta":312390785},{"NoteNumber":79,"Velocity":36,"Duration":105775,"SoundDuration":105775,"Delta":312496560},{"NoteNumber":78,"Velocity":45,"Duration":105775,"SoundDuration":105775,"Delta":312602335},{"NoteNumber":76,"Velocity":42,"Duration":105775,"SoundDuration":105775,"Delta":312708110},{"NoteNumber":74,"Velocity":40,"Duration":114016,"SoundDuration":114016,"Delta":312813886},{"NoteNumber":73,"Velocity":37,"Duration":114016,"SoundDuration":114016,"Delta":312927902},{"NoteNumber":71,"Velocity":43,"Duration":107326,"SoundDuration":107326,"Delta":313041919},{"NoteNumber":62,"Velocity":20,"Duration":107326,"SoundDuration":107326,"Delta":313041919},{"NoteNumber":67,"Velocity":24,"Duration":107326,"SoundDuration":107326,"Delta":313041919},{"NoteNumber":74,"Velocity":36,"Duration":106541,"SoundDuration":106541,"Delta":313149245},{"NoteNumber":71,"Velocity":42,"Duration":106541,"SoundDuration":106541,"Delta":313255787},{"NoteNumber":74,"Velocity":36,"Duration":106541,"SoundDuration":106541,"Delta":313362329},{"NoteNumber":73,"Velocity":44,"Duration":106541,"SoundDuration":106541,"Delta":313468871},{"NoteNumber":64,"Velocity":24,"Duration":106541,"SoundDuration":106541,"Delta":313468871},{"NoteNumber":62,"Velocity":20,"Duration":106541,"SoundDuration":106541,"Delta":313468871},{"NoteNumber":76,"Velocity":36,"Duration":106541,"SoundDuration":106541,"Delta":313575412},{"NoteNumber":73,"Velocity":42,"Duration":114016,"SoundDuration":114016,"Delta":313681954},{"NoteNumber":76,"Velocity":36,"Duration":114016,"SoundDuration":114016,"Delta":313795971},{"NoteNumber":74,"Velocity":52,"Duration":108924,"SoundDuration":108924,"Delta":313909987},{"NoteNumber":62,"Velocity":27,"Duration":435641,"SoundDuration":435641,"Delta":313909987},{"NoteNumber":66,"Velocity":32,"Duration":435641,"SoundDuration":435641,"Delta":313909987},{"NoteNumber":78,"Velocity":56,"Duration":108924,"SoundDuration":108924,"Delta":314018912},{"NoteNumber":81,"Velocity":59,"Duration":108924,"SoundDuration":108924,"Delta":314127836},{"NoteNumber":79,"Velocity":56,"Duration":108867,"SoundDuration":108867,"Delta":314236761},{"NoteNumber":78,"Velocity":59,"Duration":108522,"SoundDuration":108522,"Delta":314345628},{"NoteNumber":76,"Velocity":60,"Duration":108519,"SoundDuration":108519,"Delta":314454151},{"NoteNumber":74,"Velocity":61,"Duration":108115,"SoundDuration":108115,"Delta":314562670},{"NoteNumber":73,"Velocity":65,"Duration":120202,"SoundDuration":120202,"Delta":314670786},{"NoteNumber":71,"Velocity":69,"Duration":108576,"SoundDuration":108576,"Delta":314790989},{"NoteNumber":31,"Velocity":58,"Duration":217581,"SoundDuration":217581,"Delta":314790989},{"NoteNumber":69,"Velocity":71,"Duration":109005,"SoundDuration":109005,"Delta":314899565},{"NoteNumber":67,"Velocity":70,"Duration":109383,"SoundDuration":109383,"Delta":315008571},{"NoteNumber":43,"Velocity":50,"Duration":219204,"SoundDuration":219204,"Delta":315008571},{"NoteNumber":66,"Velocity":69,"Duration":109821,"SoundDuration":109821,"Delta":315117955},{"NoteNumber":64,"Velocity":69,"Duration":110211,"SoundDuration":110211,"Delta":315227776},{"NoteNumber":31,"Velocity":55,"Duration":220865,"SoundDuration":220865,"Delta":315227776},{"NoteNumber":62,"Velocity":70,"Duration":110653,"SoundDuration":110653,"Delta":315337987},{"NoteNumber":61,"Velocity":72,"Duration":111043,"SoundDuration":111043,"Delta":315448641},{"NoteNumber":43,"Velocity":48,"Duration":222538,"SoundDuration":222538,"Delta":315448641},{"NoteNumber":59,"Velocity":76,"Duration":111494,"SoundDuration":111494,"Delta":315559685},{"NoteNumber":57,"Velocity":85,"Duration":227152,"SoundDuration":227152,"Delta":315671180},{"NoteNumber":33,"Velocity":57,"Duration":227152,"SoundDuration":227152,"Delta":315671180},{"NoteNumber":66,"Velocity":72,"Duration":113576,"SoundDuration":113576,"Delta":315898332},{"NoteNumber":62,"Velocity":72,"Duration":113576,"SoundDuration":113576,"Delta":315898332},{"NoteNumber":45,"Velocity":49,"Duration":113576,"SoundDuration":113576,"Delta":315898332},{"NoteNumber":66,"Velocity":80,"Duration":113576,"SoundDuration":113576,"Delta":316125485},{"NoteNumber":62,"Velocity":80,"Duration":113576,"SoundDuration":113576,"Delta":316125485},{"NoteNumber":33,"Velocity":57,"Duration":113576,"SoundDuration":113576,"Delta":316125485},{"NoteNumber":62,"Velocity":72,"Duration":120095,"SoundDuration":120095,"Delta":316352637},{"NoteNumber":66,"Velocity":72,"Duration":120095,"SoundDuration":120095,"Delta":316352637},{"NoteNumber":45,"Velocity":49,"Duration":120095,"SoundDuration":120095,"Delta":316352637},{"NoteNumber":66,"Velocity":80,"Duration":227152,"SoundDuration":227152,"Delta":316592829},{"NoteNumber":62,"Velocity":80,"Duration":227152,"SoundDuration":227152,"Delta":316592829},{"NoteNumber":33,"Velocity":57,"Duration":227152,"SoundDuration":227152,"Delta":316592829},{"NoteNumber":67,"Velocity":72,"Duration":113576,"SoundDuration":113576,"Delta":316819982},{"NoteNumber":64,"Velocity":72,"Duration":113576,"SoundDuration":113576,"Delta":316819982},{"NoteNumber":45,"Velocity":49,"Duration":113576,"SoundDuration":113576,"Delta":316819982},{"NoteNumber":64,"Velocity":80,"Duration":113576,"SoundDuration":113576,"Delta":317047134},{"NoteNumber":61,"Velocity":80,"Duration":113576,"SoundDuration":113576,"Delta":317047134},{"NoteNumber":33,"Velocity":57,"Duration":113576,"SoundDuration":113576,"Delta":317047134},{"NoteNumber":61,"Velocity":72,"Duration":113576,"SoundDuration":113576,"Delta":317274287},{"NoteNumber":64,"Velocity":72,"Duration":113576,"SoundDuration":113576,"Delta":317274287},{"NoteNumber":45,"Velocity":49,"Duration":113576,"SoundDuration":113576,"Delta":317274287},{"NoteNumber":62,"Velocity":83,"Duration":241390,"SoundDuration":241390,"Delta":317501439},{"NoteNumber":38,"Velocity":57,"Duration":241390,"SoundDuration":241390,"Delta":317501439},{"NoteNumber":50,"Velocity":52,"Duration":251508,"SoundDuration":251508,"Delta":317742830},{"NoteNumber":69,"Velocity":79,"Duration":134794,"SoundDuration":134794,"Delta":317994339},{"NoteNumber":66,"Velocity":79,"Duration":134794,"SoundDuration":134794,"Delta":317994339},{"NoteNumber":62,"Velocity":79,"Duration":134794,"SoundDuration":134794,"Delta":317994339},{"NoteNumber":74,"Velocity":79,"Duration":134794,"SoundDuration":134794,"Delta":317994339},{"NoteNumber":45,"Velocity":57,"Duration":283634,"SoundDuration":283634,"Delta":317994339},{"NoteNumber":42,"Velocity":51,"Duration":339838,"SoundDuration":339838,"Delta":318277973},{"NoteNumber":74,"Velocity":79,"Duration":718649,"SoundDuration":718649,"Delta":318617812},{"NoteNumber":69,"Velocity":79,"Duration":718649,"SoundDuration":718649,"Delta":318617812},{"NoteNumber":66,"Velocity":79,"Duration":718649,"SoundDuration":718649,"Delta":318617812},{"NoteNumber":62,"Velocity":79,"Duration":718649,"SoundDuration":718649,"Delta":318617812},{"NoteNumber":38,"Velocity":62,"Duration":718649,"SoundDuration":718649,"Delta":318617812}],"license":{"name":"Creative Commons Attribution-ShareAlike 3.0 Germany","url":"http://creativecommons.org/licenses/by-sa/3.0/de/deed.en","text":"The MIDI, audio (MP3, OGG) and video files of Bernd Krueger are licensed under the cc-by-sa Germany License. This means that you can use and adapt the files, as long as you attribute the copyright holder.\n\nName: Bernd Krueger\nSource: http://www.piano-midi.de\n\nThe distribution or public playback of the files is only allowed under identical license conditions.\n\nThe scores are open source.","attribution":"MIDI files by Bernd Krueger (piano-midi.de)"}}