{"title":"Clementi: Sonatine Opus 36 Nr. 5, 1. Satz","artist":"Piano","durationMs":294339,"midiSha256":"a39eea458eb2ccdad03ec4850d4eb39fd966e7f88361f9038c3eb71c0ed22bf1","midiObject":[{"NoteNumber":81,"Velocity":43,"Duration":53460,"SoundDuration":53460,"Delta":0},{"NoteNumber":79,"Velocity":50,"Duration":142562,"SoundDuration":142562,"Delta":53461},{"NoteNumber":78,"Velocity":45,"Duration":142561,"SoundDuration":142561,"Delta":196023},{"NoteNumber":79,"Velocity":45,"Duration":142562,"SoundDuration":142562,"Delta":338585},{"NoteNumber":83,"Velocity":50,"Duration":106921,"SoundDuration":106921,"Delta":481147},{"NoteNumber":55,"Velocity":29,"Duration":142561,"SoundDuration":142561,"Delta":481147},{"NoteNumber":59,"Velocity":20,"Duration":142562,"SoundDuration":142562,"Delta":623709},{"NoteNumber":62,"Velocity":20,"Duration":142561,"SoundDuration":142561,"Delta":766271},{"NoteNumber":83,"Velocity":46,"Duration":106921,"SoundDuration":106921,"Delta":908833},{"NoteNumber":55,"Velocity":29,"Duration":142561,"SoundDuration":142561,"Delta":908833},{"NoteNumber":59,"Velocity":20,"Duration":142562,"SoundDuration":142562,"Delta":1051395},{"NoteNumber":62,"Velocity":20,"Duration":142561,"SoundDuration":142561,"Delta":1193957},{"NoteNumber":79,"Velocity":50,"Duration":213842,"SoundDuration":213842,"Delta":1336519},{"NoteNumber":55,"Velocity":29,"Duration":142561,"SoundDuration":142561,"Delta":1336519},{"NoteNumber":59,"Velocity":21,"Duration":142562,"SoundDuration":142562,"Delta":1479081},{"NoteNumber":62,"Velocity":20,"Duration":142561,"SoundDuration":142561,"Delta":1621643},{"NoteNumber":81,"Velocity":41,"Duration":53460,"SoundDuration":53460,"Delta":1710744},{"NoteNumber":79,"Velocity":50,"Duration":142561,"SoundDuration":142561,"Delta":1764205},{"NoteNumber":55,"Velocity":29,"Duration":142561,"SoundDuration":142561,"Delta":1764205},{"NoteNumber":78,"Velocity":44,"Duration":142562,"SoundDuration":142562,"Delta":1906767},{"NoteNumber":59,"Velocity":21,"Duration":142562,"SoundDuration":142562,"Delta":1906767},{"NoteNumber":79,"Velocity":53,"Duration":158995,"SoundDuration":158995,"Delta":2049329},{"NoteNumber":62,"Velocity":21,"Duration":158995,"SoundDuration":158995,"Delta":2049329},{"NoteNumber":86,"Velocity":62,"Duration":855372,"SoundDuration":855372,"Delta":2208324},{"NoteNumber":55,"Velocity":29,"Duration":142561,"SoundDuration":142561,"Delta":2208324},{"NoteNumber":59,"Velocity":20,"Duration":142562,"SoundDuration":142562,"Delta":2350886},{"NoteNumber":62,"Velocity":20,"Duration":142561,"SoundDuration":142561,"Delta":2493448},{"NoteNumber":55,"Velocity":29,"Duration":142562,"SoundDuration":142562,"Delta":2636010},{"NoteNumber":59,"Velocity":20,"Duration":142561,"SoundDuration":142561,"Delta":2778572},{"NoteNumber":62,"Velocity":20,"Duration":142561,"SoundDuration":142561,"Delta":2921134},{"NoteNumber":83,"Velocity":50,"Duration":427685,"SoundDuration":427685,"Delta":3063696},{"NoteNumber":55,"Velocity":29,"Duration":142561,"SoundDuration":142561,"Delta":3063696},{"NoteNumber":59,"Velocity":21,"Duration":142561,"SoundDuration":142561,"Delta":3206258},{"NoteNumber":62,"Velocity":20,"Duration":142561,"SoundDuration":142561,"Delta":3348820},{"NoteNumber":79,"Velocity":47,"Duration":437031,"SoundDuration":437031,"Delta":3491382},{"NoteNumber":55,"Velocity":29,"Duration":145677,"SoundDuration":145677,"Delta":3491382},{"NoteNumber":59,"Velocity":21,"Duration":145677,"SoundDuration":145677,"Delta":3637059},{"NoteNumber":62,"Velocity":21,"Duration":145677,"SoundDuration":145677,"Delta":3782736},{"NoteNumber":84,"Velocity":62,"Duration":213842,"SoundDuration":213842,"Delta":3928413},{"NoteNumber":55,"Velocity":33,"Duration":142561,"SoundDuration":142561,"Delta":3928413},{"NoteNumber":60,"Velocity":23,"Duration":142561,"SoundDuration":142561,"Delta":4070975},{"NoteNumber":64,"Velocity":23,"Duration":142562,"SoundDuration":142562,"Delta":4213537},{"NoteNumber":86,"Velocity":54,"Duration":53460,"SoundDuration":53460,"Delta":4302638},{"NoteNumber":84,"Velocity":62,"Duration":142561,"SoundDuration":142561,"Delta":4356099},{"NoteNumber":55,"Velocity":32,"Duration":142561,"SoundDuration":142561,"Delta":4356099},{"NoteNumber":83,"Velocity":50,"Duration":142561,"SoundDuration":142561,"Delta":4498661},{"NoteNumber":60,"Velocity":20,"Duration":142561,"SoundDuration":142561,"Delta":4498661},{"NoteNumber":84,"Velocity":50,"Duration":142561,"SoundDuration":142561,"Delta":4641223},{"NoteNumber":64,"Velocity":21,"Duration":142561,"SoundDuration":142561,"Delta":4641223},{"NoteNumber":88,"Velocity":64,"Duration":213842,"SoundDuration":213842,"Delta":4783785},{"NoteNumber":55,"Velocity":35,"Duration":142561,"SoundDuration":142561,"Delta":4783785},{"NoteNumber":60,"Velocity":25,"Duration":142561,"SoundDuration":142561,"Delta":4926347},{"NoteNumber":64,"Velocity":24,"Duration":142561,"SoundDuration":142561,"Delta":5068909},{"NoteNumber":88,"Velocity":61,"Duration":213843,"SoundDuration":213843,"Delta":5211471},{"NoteNumber":55,"Velocity":35,"Duration":142562,"SoundDuration":142562,"Delta":5211471},{"NoteNumber":60,"Velocity":25,"Duration":142561,"SoundDuration":142561,"Delta":5354033},{"NoteNumber":64,"Velocity":25,"Duration":165576,"SoundDuration":165576,"Delta":5496594},{"NoteNumber":85,"Velocity":65,"Duration":437031,"SoundDuration":437031,"Delta":5662171},{"NoteNumber":55,"Velocity":35,"Duration":145677,"SoundDuration":145677,"Delta":5662171},{"NoteNumber":59,"Velocity":24,"Duration":145677,"SoundDuration":145677,"Delta":5807848},{"NoteNumber":62,"Velocity":24,"Duration":145677,"SoundDuration":145677,"Delta":5953525},{"NoteNumber":86,"Velocity":63,"Duration":218515,"SoundDuration":218515,"Delta":6099202},{"NoteNumber":55,"Velocity":35,"Duration":145677,"SoundDuration":145677,"Delta":6099202},{"NoteNumber":59,"Velocity":23,"Duration":145677,"SoundDuration":145677,"Delta":6244879},{"NoteNumber":62,"Velocity":23,"Duration":145677,"SoundDuration":145677,"Delta":6390556},{"NoteNumber":55,"Velocity":33,"Duration":145677,"SoundDuration":145677,"Delta":6536233},{"NoteNumber":59,"Velocity":20,"Duration":145676,"SoundDuration":145676,"Delta":6681910},{"NoteNumber":62,"Velocity":20,"Duration":144508,"SoundDuration":144508,"Delta":6827587},{"NoteNumber":81,"Velocity":43,"Duration":53460,"SoundDuration":53460,"Delta":6918635},{"NoteNumber":79,"Velocity":50,"Duration":142561,"SoundDuration":142561,"Delta":6972096},{"NoteNumber":55,"Velocity":29,"Duration":142561,"SoundDuration":142561,"Delta":6972096},{"NoteNumber":78,"Velocity":45,"Duration":142562,"SoundDuration":142562,"Delta":7114658},{"NoteNumber":59,"Velocity":21,"Duration":142562,"SoundDuration":142562,"Delta":7114658},{"NoteNumber":79,"Velocity":45,"Duration":142561,"SoundDuration":142561,"Delta":7257220},{"NoteNumber":62,"Velocity":21,"Duration":142561,"SoundDuration":142561,"Delta":7257220},{"NoteNumber":81,"Velocity":50,"Duration":106921,"SoundDuration":106921,"Delta":7399782},{"NoteNumber":60,"Velocity":26,"Duration":142561,"SoundDuration":142561,"Delta":7399782},{"NoteNumber":64,"Velocity":20,"Duration":142561,"SoundDuration":142561,"Delta":7542344},{"NoteNumber":69,"Velocity":20,"Duration":142561,"SoundDuration":142561,"Delta":7684906},{"NoteNumber":81,"Velocity":46,"Duration":427685,"SoundDuration":427685,"Delta":7827468},{"NoteNumber":60,"Velocity":29,"Duration":142561,"SoundDuration":142561,"Delta":7827468},{"NoteNumber":64,"Velocity":20,"Duration":142561,"SoundDuration":142561,"Delta":7970030},{"NoteNumber":69,"Velocity":20,"Duration":142561,"SoundDuration":142561,"Delta":8112592},{"NoteNumber":76,"Velocity":50,"Duration":427685,"SoundDuration":427685,"Delta":8255154},{"NoteNumber":60,"Velocity":29,"Duration":142561,"SoundDuration":142561,"Delta":8255154},{"NoteNumber":64,"Velocity":21,"Duration":142561,"SoundDuration":142561,"Delta":8397716},{"NoteNumber":69,"Velocity":20,"Duration":142561,"SoundDuration":142561,"Delta":8540278},{"NoteNumber":81,"Velocity":50,"Duration":444119,"SoundDuration":444119,"Delta":8682840},{"NoteNumber":60,"Velocity":29,"Duration":142561,"SoundDuration":142561,"Delta":8682840},{"NoteNumber":64,"Velocity":21,"Duration":142562,"SoundDuration":142562,"Delta":8825402},{"NoteNumber":69,"Velocity":21,"Duration":158994,"SoundDuration":158994,"Delta":8967964},{"NoteNumber":74,"Velocity":62,"Duration":855371,"SoundDuration":855371,"Delta":9126959},{"NoteNumber":59,"Velocity":29,"Duration":142561,"SoundDuration":142561,"Delta":9126959},{"NoteNumber":62,"Velocity":20,"Duration":142561,"SoundDuration":142561,"Delta":9269521},{"NoteNumber":67,"Velocity":20,"Duration":142561,"SoundDuration":142561,"Delta":9412083},{"NoteNumber":59,"Velocity":29,"Duration":142561,"SoundDuration":142561,"Delta":9554645},{"NoteNumber":62,"Velocity":20,"Duration":142561,"SoundDuration":142561,"Delta":9697207},{"NoteNumber":67,"Velocity":20,"Duration":142561,"SoundDuration":142561,"Delta":9839769},{"NoteNumber":79,"Velocity":50,"Duration":427686,"SoundDuration":427686,"Delta":9982331},{"NoteNumber":59,"Velocity":29,"Duration":142562,"SoundDuration":142562,"Delta":9982331},{"NoteNumber":62,"Velocity":21,"Duration":142561,"SoundDuration":142561,"Delta":10124893},{"NoteNumber":67,"Velocity":20,"Duration":142561,"SoundDuration":142561,"Delta":10267455},{"NoteNumber":74,"Velocity":47,"Duration":437030,"SoundDuration":437030,"Delta":10410017},{"NoteNumber":59,"Velocity":29,"Duration":145676,"SoundDuration":145676,"Delta":10410017},{"NoteNumber":62,"Velocity":21,"Duration":145677,"SoundDuration":145677,"Delta":10555694},{"NoteNumber":67,"Velocity":21,"Duration":145676,"SoundDuration":145676,"Delta":10701371},{"NoteNumber":72,"Velocity":50,"Duration":214607,"SoundDuration":214607,"Delta":10847048},{"NoteNumber":54,"Velocity":29,"Duration":143071,"SoundDuration":143071,"Delta":10847048},{"NoteNumber":57,"Velocity":20,"Duration":143071,"SoundDuration":143071,"Delta":10990120},{"NoteNumber":62,"Velocity":20,"Duration":143071,"SoundDuration":143071,"Delta":11133191},{"NoteNumber":72,"Velocity":46,"Duration":214607,"SoundDuration":214607,"Delta":11276263},{"NoteNumber":54,"Velocity":29,"Duration":143071,"SoundDuration":143071,"Delta":11276263},{"NoteNumber":57,"Velocity":20,"Duration":143071,"SoundDuration":143071,"Delta":11419335},{"NoteNumber":62,"Velocity":20,"Duration":143071,"SoundDuration":143071,"Delta":11562406},{"NoteNumber":71,"Velocity":50,"Duration":214607,"SoundDuration":214607,"Delta":11705478},{"NoteNumber":55,"Velocity":31,"Duration":143071,"SoundDuration":143071,"Delta":11705478},{"NoteNumber":59,"Velocity":21,"Duration":143071,"SoundDuration":143071,"Delta":11848550},{"NoteNumber":62,"Velocity":20,"Duration":143071,"SoundDuration":143071,"Delta":11991621},{"NoteNumber":74,"Velocity":50,"Duration":219314,"SoundDuration":219314,"Delta":12134693},{"NoteNumber":55,"Velocity":33,"Duration":146209,"SoundDuration":146209,"Delta":12134693},{"NoteNumber":59,"Velocity":24,"Duration":146209,"SoundDuration":146209,"Delta":12280903},{"NoteNumber":62,"Velocity":24,"Duration":155896,"SoundDuration":155896,"Delta":12427112},{"NoteNumber":74,"Velocity":64,"Duration":441859,"SoundDuration":441859,"Delta":12583009},{"NoteNumber":50,"Velocity":34,"Duration":147286,"SoundDuration":147286,"Delta":12583009},{"NoteNumber":54,"Velocity":37,"Duration":147286,"SoundDuration":147286,"Delta":12730295},{"NoteNumber":57,"Velocity":40,"Duration":147286,"SoundDuration":147286,"Delta":12877582},{"NoteNumber":69,"Velocity":48,"Duration":226774,"SoundDuration":226774,"Delta":13024868},{"NoteNumber":62,"Velocity":42,"Duration":151182,"SoundDuration":151182,"Delta":13024868},{"NoteNumber":57,"Velocity":35,"Duration":151182,"SoundDuration":151182,"Delta":13176051},{"NoteNumber":54,"Velocity":38,"Duration":160269,"SoundDuration":160269,"Delta":13327234},{"NoteNumber":50,"Velocity":43,"Duration":440087,"SoundDuration":440087,"Delta":13487503},{"NoteNumber":69,"Velocity":43,"Duration":53460,"SoundDuration":53460,"Delta":13874130},{"NoteNumber":67,"Velocity":50,"Duration":142561,"SoundDuration":142561,"Delta":13927591},{"NoteNumber":66,"Velocity":45,"Duration":142562,"SoundDuration":142562,"Delta":14070153},{"NoteNumber":67,"Velocity":45,"Duration":142561,"SoundDuration":142561,"Delta":14212715},{"NoteNumber":71,"Velocity":50,"Duration":106921,"SoundDuration":106921,"Delta":14355277},{"NoteNumber":55,"Velocity":29,"Duration":142561,"SoundDuration":142561,"Delta":14355277},{"NoteNumber":59,"Velocity":20,"Duration":142561,"SoundDuration":142561,"Delta":14497839},{"NoteNumber":62,"Velocity":20,"Duration":142561,"SoundDuration":142561,"Delta":14640401},{"NoteNumber":71,"Velocity":46,"Duration":106921,"SoundDuration":106921,"Delta":14782963},{"NoteNumber":55,"Velocity":29,"Duration":142562,"SoundDuration":142562,"Delta":14782963},{"NoteNumber":59,"Velocity":20,"Duration":142561,"SoundDuration":142561,"Delta":14925525},{"NoteNumber":62,"Velocity":20,"Duration":142562,"SoundDuration":142562,"Delta":15068087},{"NoteNumber":67,"Velocity":50,"Duration":213843,"SoundDuration":213843,"Delta":15210649},{"NoteNumber":55,"Velocity":29,"Duration":142562,"SoundDuration":142562,"Delta":15210649},{"NoteNumber":59,"Velocity":21,"Duration":142561,"SoundDuration":142561,"Delta":15353211},{"NoteNumber":62,"Velocity":20,"Duration":142562,"SoundDuration":142562,"Delta":15495773},{"NoteNumber":69,"Velocity":41,"Duration":53460,"SoundDuration":53460,"Delta":15584874},{"NoteNumber":67,"Velocity":50,"Duration":142561,"SoundDuration":142561,"Delta":15638335},{"NoteNumber":55,"Velocity":29,"Duration":142561,"SoundDuration":142561,"Delta":15638335},{"NoteNumber":66,"Velocity":44,"Duration":142562,"SoundDuration":142562,"Delta":15780897},{"NoteNumber":59,"Velocity":21,"Duration":142562,"SoundDuration":142562,"Delta":15780897},{"NoteNumber":67,"Velocity":53,"Duration":158995,"SoundDuration":158995,"Delta":15923459},{"NoteNumber":62,"Velocity":21,"Duration":158995,"SoundDuration":158995,"Delta":15923459},{"NoteNumber":74,"Velocity":62,"Duration":855371,"SoundDuration":855371,"Delta":16082454},{"NoteNumber":55,"Velocity":29,"Duration":142562,"SoundDuration":142562,"Delta":16082454},{"NoteNumber":59,"Velocity":20,"Duration":142561,"SoundDuration":142561,"Delta":16225016},{"NoteNumber":62,"Velocity":20,"Duration":142562,"SoundDuration":142562,"Delta":16367578},{"NoteNumber":55,"Velocity":29,"Duration":142561,"SoundDuration":142561,"Delta":16510140},{"NoteNumber":59,"Velocity":20,"Duration":142562,"SoundDuration":142562,"Delta":16652702},{"NoteNumber":62,"Velocity":20,"Duration":142561,"SoundDuration":142561,"Delta":16795264},{"NoteNumber":71,"Velocity":50,"Duration":427686,"SoundDuration":427686,"Delta":16937826},{"NoteNumber":55,"Velocity":29,"Duration":142562,"SoundDuration":142562,"Delta":16937826},{"NoteNumber":59,"Velocity":21,"Duration":142561,"SoundDuration":142561,"Delta":17080388},{"NoteNumber":62,"Velocity":20,"Duration":142562,"SoundDuration":142562,"Delta":17222950},{"NoteNumber":67,"Velocity":47,"Duration":437031,"SoundDuration":437031,"Delta":17365512},{"NoteNumber":55,"Velocity":29,"Duration":145676,"SoundDuration":145676,"Delta":17365512},{"NoteNumber":59,"Velocity":21,"Duration":145676,"SoundDuration":145676,"Delta":17511189},{"NoteNumber":62,"Velocity":21,"Duration":145677,"SoundDuration":145677,"Delta":17656866},{"NoteNumber":72,"Velocity":62,"Duration":213843,"SoundDuration":213843,"Delta":17802543},{"NoteNumber":55,"Velocity":33,"Duration":142562,"SoundDuration":142562,"Delta":17802543},{"NoteNumber":60,"Velocity":23,"Duration":142561,"SoundDuration":142561,"Delta":17945105},{"NoteNumber":64,"Velocity":23,"Duration":142562,"SoundDuration":142562,"Delta":18087667},{"NoteNumber":74,"Velocity":54,"Duration":53460,"SoundDuration":53460,"Delta":18176768},{"NoteNumber":72,"Velocity":62,"Duration":142561,"SoundDuration":142561,"Delta":18230229},{"NoteNumber":55,"Velocity":32,"Duration":142561,"SoundDuration":142561,"Delta":18230229},{"NoteNumber":71,"Velocity":50,"Duration":142562,"SoundDuration":142562,"Delta":18372791},{"NoteNumber":60,"Velocity":20,"Duration":142562,"SoundDuration":142562,"Delta":18372791},{"NoteNumber":72,"Velocity":50,"Duration":142561,"SoundDuration":142561,"Delta":18515353},{"NoteNumber":64,"Velocity":21,"Duration":142561,"SoundDuration":142561,"Delta":18515353},{"NoteNumber":76,"Velocity":64,"Duration":213843,"SoundDuration":213843,"Delta":18657915},{"NoteNumber":55,"Velocity":35,"Duration":142562,"SoundDuration":142562,"Delta":18657915},{"NoteNumber":60,"Velocity":25,"Duration":142561,"SoundDuration":142561,"Delta":18800477},{"NoteNumber":64,"Velocity":31,"Duration":142562,"SoundDuration":142562,"Delta":18943039},{"NoteNumber":76,"Velocity":61,"Duration":213843,"SoundDuration":213843,"Delta":19085601},{"NoteNumber":55,"Velocity":35,"Duration":142561,"SoundDuration":142561,"Delta":19085601},{"NoteNumber":60,"Velocity":25,"Duration":142562,"SoundDuration":142562,"Delta":19228163},{"NoteNumber":64,"Velocity":25,"Duration":165576,"SoundDuration":165576,"Delta":19370725},{"NoteNumber":73,"Velocity":65,"Duration":437031,"SoundDuration":437031,"Delta":19536301},{"NoteNumber":55,"Velocity":35,"Duration":145676,"SoundDuration":145676,"Delta":19536301},{"NoteNumber":59,"Velocity":24,"Duration":145676,"SoundDuration":145676,"Delta":19681978},{"NoteNumber":62,"Velocity":24,"Duration":145677,"SoundDuration":145677,"Delta":19827655},{"NoteNumber":74,"Velocity":63,"Duration":218515,"SoundDuration":218515,"Delta":19973332},{"NoteNumber":55,"Velocity":35,"Duration":145676,"SoundDuration":145676,"Delta":19973332},{"NoteNumber":59,"Velocity":23,"Duration":145676,"SoundDuration":145676,"Delta":20119009},{"NoteNumber":62,"Velocity":23,"Duration":145676,"SoundDuration":145676,"Delta":20264686},{"NoteNumber":55,"Velocity":29,"Duration":145677,"SoundDuration":145677,"Delta":20410363},{"NoteNumber":59,"Velocity":20,"Duration":145676,"SoundDuration":145676,"Delta":20556040},{"NoteNumber":62,"Velocity":20,"Duration":144508,"SoundDuration":144508,"Delta":20701717},{"NoteNumber":81,"Velocity":49,"Duration":53460,"SoundDuration":53460,"Delta":20792766},{"NoteNumber":79,"Velocity":57,"Duration":142562,"SoundDuration":142562,"Delta":20846226},{"NoteNumber":55,"Velocity":29,"Duration":142562,"SoundDuration":142562,"Delta":20846226},{"NoteNumber":78,"Velocity":51,"Duration":142561,"SoundDuration":142561,"Delta":20988788},{"NoteNumber":59,"Velocity":21,"Duration":142561,"SoundDuration":142561,"Delta":20988788},{"NoteNumber":79,"Velocity":51,"Duration":142562,"SoundDuration":142562,"Delta":21131350},{"NoteNumber":62,"Velocity":21,"Duration":142562,"SoundDuration":142562,"Delta":21131350},{"NoteNumber":83,"Velocity":64,"Duration":106921,"SoundDuration":106921,"Delta":21273912},{"NoteNumber":55,"Velocity":29,"Duration":142561,"SoundDuration":142561,"Delta":21273912},{"NoteNumber":61,"Velocity":20,"Duration":142562,"SoundDuration":142562,"Delta":21416474},{"NoteNumber":64,"Velocity":20,"Duration":142561,"SoundDuration":142561,"Delta":21559036},{"NoteNumber":83,"Velocity":52,"Duration":213843,"SoundDuration":213843,"Delta":21701598},{"NoteNumber":55,"Velocity":29,"Duration":142562,"SoundDuration":142562,"Delta":21701598},{"NoteNumber":61,"Velocity":20,"Duration":142562,"SoundDuration":142562,"Delta":21844160},{"NoteNumber":64,"Velocity":23,"Duration":142561,"SoundDuration":142561,"Delta":21986722},{"NoteNumber":76,"Velocity":57,"Duration":213843,"SoundDuration":213843,"Delta":22129284},{"NoteNumber":55,"Velocity":38,"Duration":142562,"SoundDuration":142562,"Delta":22129284},{"NoteNumber":61,"Velocity":25,"Duration":142561,"SoundDuration":142561,"Delta":22271846},{"NoteNumber":64,"Velocity":25,"Duration":142562,"SoundDuration":142562,"Delta":22414408},{"NoteNumber":76,"Velocity":57,"Duration":213842,"SoundDuration":213842,"Delta":22556970},{"NoteNumber":55,"Velocity":39,"Duration":142561,"SoundDuration":142561,"Delta":22556970},{"NoteNumber":61,"Velocity":25,"Duration":142561,"SoundDuration":142561,"Delta":22699532},{"NoteNumber":64,"Velocity":25,"Duration":158995,"SoundDuration":158995,"Delta":22842094},{"NoteNumber":81,"Velocity":69,"Duration":855371,"SoundDuration":855371,"Delta":23001089},{"NoteNumber":54,"Velocity":48,"Duration":142562,"SoundDuration":142562,"Delta":23001089},{"NoteNumber":57,"Velocity":26,"Duration":142561,"SoundDuration":142561,"Delta":23143651},{"NoteNumber":62,"Velocity":26,"Duration":142562,"SoundDuration":142562,"Delta":23286213},{"NoteNumber":54,"Velocity":38,"Duration":142561,"SoundDuration":142561,"Delta":23428775},{"NoteNumber":57,"Velocity":20,"Duration":142562,"SoundDuration":142562,"Delta":23571337},{"NoteNumber":62,"Velocity":20,"Duration":142561,"SoundDuration":142561,"Delta":23713899},{"NoteNumber":78,"Velocity":62,"Duration":427686,"SoundDuration":427686,"Delta":23856461},{"NoteNumber":54,"Velocity":29,"Duration":142562,"SoundDuration":142562,"Delta":23856461},{"NoteNumber":57,"Velocity":21,"Duration":142561,"SoundDuration":142561,"Delta":23999023},{"NoteNumber":62,"Velocity":20,"Duration":142562,"SoundDuration":142562,"Delta":24141585},{"NoteNumber":74,"Velocity":54,"Duration":437031,"SoundDuration":437031,"Delta":24284147},{"NoteNumber":54,"Velocity":29,"Duration":145676,"SoundDuration":145676,"Delta":24284147},{"NoteNumber":57,"Velocity":21,"Duration":145676,"SoundDuration":145676,"Delta":24429824},{"NoteNumber":62,"Velocity":21,"Duration":145677,"SoundDuration":145677,"Delta":24575501},{"NoteNumber":71,"Velocity":50,"Duration":214607,"SoundDuration":214607,"Delta":24721178},{"NoteNumber":55,"Velocity":29,"Duration":143071,"SoundDuration":143071,"Delta":24721178},{"NoteNumber":59,"Velocity":20,"Duration":143071,"SoundDuration":143071,"Delta":24864250},{"NoteNumber":64,"Velocity":20,"Duration":143071,"SoundDuration":143071,"Delta":25007322},{"NoteNumber":71,"Velocity":46,"Duration":214607,"SoundDuration":214607,"Delta":25150393},{"NoteNumber":55,"Velocity":29,"Duration":143071,"SoundDuration":143071,"Delta":25150393},{"NoteNumber":59,"Velocity":20,"Duration":143071,"SoundDuration":143071,"Delta":25293465},{"NoteNumber":64,"Velocity":20,"Duration":143071,"SoundDuration":143071,"Delta":25436537},{"NoteNumber":73,"Velocity":50,"Duration":214607,"SoundDuration":214607,"Delta":25579608},{"NoteNumber":57,"Velocity":31,"Duration":143071,"SoundDuration":143071,"Delta":25579608},{"NoteNumber":64,"Velocity":21,"Duration":143071,"SoundDuration":143071,"Delta":25722680},{"NoteNumber":67,"Velocity":26,"Duration":143071,"SoundDuration":143071,"Delta":25865752},{"NoteNumber":74,"Velocity":46,"Duration":53651,"SoundDuration":53651,"Delta":25955171},{"NoteNumber":73,"Velocity":51,"Duration":146209,"SoundDuration":146209,"Delta":26008823},{"NoteNumber":57,"Velocity":33,"Duration":146209,"SoundDuration":146209,"Delta":26008823},{"NoteNumber":71,"Velocity":46,"Duration":146209,"SoundDuration":146209,"Delta":26155033},{"NoteNumber":64,"Velocity":24,"Duration":146209,"SoundDuration":146209,"Delta":26155033},{"NoteNumber":73,"Velocity":46,"Duration":155896,"SoundDuration":155896,"Delta":26301243},{"NoteNumber":67,"Velocity":24,"Duration":155896,"SoundDuration":155896,"Delta":26301243},{"NoteNumber":74,"Velocity":47,"Duration":146209,"SoundDuration":146209,"Delta":26457139},{"NoteNumber":66,"Velocity":33,"Duration":109657,"SoundDuration":109657,"Delta":26457139},{"NoteNumber":62,"Velocity":28,"Duration":109657,"SoundDuration":109657,"Delta":26457139},{"NoteNumber":78,"Velocity":50,"Duration":146209,"SoundDuration":146209,"Delta":26603349},{"NoteNumber":81,"Velocity":52,"Duration":146209,"SoundDuration":146209,"Delta":26749559},{"NoteNumber":86,"Velocity":54,"Duration":142055,"SoundDuration":142055,"Delta":26895768},{"NoteNumber":85,"Velocity":49,"Duration":142055,"SoundDuration":142055,"Delta":27037824},{"NoteNumber":83,"Velocity":49,"Duration":142055,"SoundDuration":142055,"Delta":27179880},{"NoteNumber":81,"Velocity":51,"Duration":142055,"SoundDuration":142055,"Delta":27321935},{"NoteNumber":79,"Velocity":48,"Duration":142055,"SoundDuration":142055,"Delta":27463991},{"NoteNumber":78,"Velocity":48,"Duration":142055,"SoundDuration":142055,"Delta":27606047},{"NoteNumber":76,"Velocity":51,"Duration":142055,"SoundDuration":142055,"Delta":27748102},{"NoteNumber":74,"Velocity":46,"Duration":142055,"SoundDuration":142055,"Delta":27890158},{"NoteNumber":73,"Velocity":46,"Duration":153503,"SoundDuration":153503,"Delta":28032214},{"NoteNumber":71,"Velocity":46,"Duration":143585,"SoundDuration":143585,"Delta":28185717},{"NoteNumber":62,"Velocity":28,"Duration":107689,"SoundDuration":107689,"Delta":28185717},{"NoteNumber":67,"Velocity":33,"Duration":107689,"SoundDuration":107689,"Delta":28185717},{"NoteNumber":83,"Velocity":51,"Duration":143585,"SoundDuration":143585,"Delta":28329303},{"NoteNumber":81,"Velocity":46,"Duration":143585,"SoundDuration":143585,"Delta":28472888},{"NoteNumber":79,"Velocity":50,"Duration":143585,"SoundDuration":143585,"Delta":28616473},{"NoteNumber":67,"Velocity":29,"Duration":107689,"SoundDuration":107689,"Delta":28616473},{"NoteNumber":62,"Velocity":24,"Duration":107689,"SoundDuration":107689,"Delta":28616473},{"NoteNumber":78,"Velocity":48,"Duration":143585,"SoundDuration":143585,"Delta":28760059},{"NoteNumber":76,"Velocity":48,"Duration":151182,"SoundDuration":151182,"Delta":28903644},{"NoteNumber":74,"Velocity":49,"Duration":143585,"SoundDuration":143585,"Delta":29054827},{"NoteNumber":64,"Velocity":30,"Duration":107689,"SoundDuration":107689,"Delta":29054827},{"NoteNumber":62,"Velocity":25,"Duration":107689,"SoundDuration":107689,"Delta":29054827},{"NoteNumber":73,"Velocity":46,"Duration":143585,"SoundDuration":143585,"Delta":29198412},{"NoteNumber":71,"Velocity":46,"Duration":143585,"SoundDuration":143585,"Delta":29341998},{"NoteNumber":69,"Velocity":47,"Duration":143585,"SoundDuration":143585,"Delta":29485583},{"NoteNumber":64,"Velocity":30,"Duration":107689,"SoundDuration":107689,"Delta":29485583},{"NoteNumber":62,"Velocity":25,"Duration":107689,"SoundDuration":107689,"Delta":29485583},{"NoteNumber":71,"Velocity":45,"Duration":143585,"SoundDuration":143585,"Delta":29629168},{"NoteNumber":73,"Velocity":45,"Duration":150613,"SoundDuration":150613,"Delta":29772754},{"NoteNumber":74,"Velocity":47,"Duration":146209,"SoundDuration":146209,"Delta":29923367},{"NoteNumber":66,"Velocity":33,"Duration":109657,"SoundDuration":109657,"Delta":29923367},{"NoteNumber":62,"Velocity":28,"Duration":109657,"SoundDuration":109657,"Delta":29923367},{"NoteNumber":78,"Velocity":50,"Duration":146209,"SoundDuration":146209,"Delta":30069577},{"NoteNumber":81,"Velocity":52,"Duration":146209,"SoundDuration":146209,"Delta":30215787},{"NoteNumber":86,"Velocity":54,"Duration":142055,"SoundDuration":142055,"Delta":30361996},{"NoteNumber":85,"Velocity":49,"Duration":142055,"SoundDuration":142055,"Delta":30504052},{"NoteNumber":83,"Velocity":49,"Duration":142055,"SoundDuration":142055,"Delta":30646108},{"NoteNumber":81,"Velocity":51,"Duration":142055,"SoundDuration":142055,"Delta":30788163},{"NoteNumber":79,"Velocity":48,"Duration":142055,"SoundDuration":142055,"Delta":30930219},{"NoteNumber":78,"Velocity":48,"Duration":142055,"SoundDuration":142055,"Delta":31072275},{"NoteNumber":76,"Velocity":51,"Duration":142055,"SoundDuration":142055,"Delta":31214330},{"NoteNumber":74,"Velocity":46,"Duration":142055,"SoundDuration":142055,"Delta":31356386},{"NoteNumber":73,"Velocity":46,"Duration":153503,"SoundDuration":153503,"Delta":31498442},{"NoteNumber":71,"Velocity":46,"Duration":143585,"SoundDuration":143585,"Delta":31651945},{"NoteNumber":62,"Velocity":28,"Duration":107689,"SoundDuration":107689,"Delta":31651945},{"NoteNumber":67,"Velocity":33,"Duration":107689,"SoundDuration":107689,"Delta":31651945},{"NoteNumber":83,"Velocity":51,"Duration":143585,"SoundDuration":143585,"Delta":31795531},{"NoteNumber":81,"Velocity":46,"Duration":143585,"SoundDuration":143585,"Delta":31939116},{"NoteNumber":79,"Velocity":50,"Duration":143585,"SoundDuration":143585,"Delta":32082701},{"NoteNumber":67,"Velocity":29,"Duration":107689,"SoundDuration":107689,"Delta":32082701},{"NoteNumber":62,"Velocity":24,"Duration":107689,"SoundDuration":107689,"Delta":32082701},{"NoteNumber":78,"Velocity":48,"Duration":143585,"SoundDuration":143585,"Delta":32226287},{"NoteNumber":76,"Velocity":48,"Duration":151182,"SoundDuration":151182,"Delta":32369872},{"NoteNumber":74,"Velocity":49,"Duration":143585,"SoundDuration":143585,"Delta":32521055},{"NoteNumber":64,"Velocity":30,"Duration":107689,"SoundDuration":107689,"Delta":32521055},{"NoteNumber":62,"Velocity":25,"Duration":107689,"SoundDuration":107689,"Delta":32521055},{"NoteNumber":73,"Velocity":46,"Duration":143585,"SoundDuration":143585,"Delta":32664640},{"NoteNumber":71,"Velocity":46,"Duration":143585,"SoundDuration":143585,"Delta":32808226},{"NoteNumber":69,"Velocity":47,"Duration":143585,"SoundDuration":143585,"Delta":32951811},{"NoteNumber":64,"Velocity":30,"Duration":107689,"SoundDuration":107689,"Delta":32951811},{"NoteNumber":62,"Velocity":25,"Duration":107689,"SoundDuration":107689,"Delta":32951811},{"NoteNumber":71,"Velocity":45,"Duration":143585,"SoundDuration":143585,"Delta":33095396},{"NoteNumber":73,"Velocity":45,"Duration":150613,"SoundDuration":150613,"Delta":33238982},{"NoteNumber":74,"Velocity":47,"Duration":145676,"SoundDuration":145676,"Delta":33389595},{"NoteNumber":62,"Velocity":28,"Duration":109257,"SoundDuration":109257,"Delta":33389595},{"NoteNumber":66,"Velocity":33,"Duration":109257,"SoundDuration":109257,"Delta":33389595},{"NoteNumber":76,"Velocity":42,"Duration":145676,"SoundDuration":145676,"Delta":33535272},{"NoteNumber":78,"Velocity":42,"Duration":145676,"SoundDuration":145676,"Delta":33680949},{"NoteNumber":74,"Velocity":47,"Duration":145676,"SoundDuration":145676,"Delta":33826626},{"NoteNumber":76,"Velocity":43,"Duration":145677,"SoundDuration":145677,"Delta":33972303},{"NoteNumber":78,"Velocity":47,"Duration":145676,"SoundDuration":145676,"Delta":34117980},{"NoteNumber":74,"Velocity":54,"Duration":147017,"SoundDuration":147017,"Delta":34263657},{"NoteNumber":42,"Velocity":32,"Duration":220121,"SoundDuration":220121,"Delta":34263657},{"NoteNumber":54,"Velocity":36,"Duration":220121,"SoundDuration":220121,"Delta":34263657},{"NoteNumber":76,"Velocity":48,"Duration":146209,"SoundDuration":146209,"Delta":34410674},{"NoteNumber":78,"Velocity":48,"Duration":146209,"SoundDuration":146209,"Delta":34556884},{"NoteNumber":74,"Velocity":56,"Duration":146209,"SoundDuration":146209,"Delta":34703094},{"NoteNumber":42,"Velocity":33,"Duration":219314,"SoundDuration":219314,"Delta":34703094},{"NoteNumber":54,"Velocity":38,"Duration":219314,"SoundDuration":219314,"Delta":34703094},{"NoteNumber":76,"Velocity":52,"Duration":146209,"SoundDuration":146209,"Delta":34849303},{"NoteNumber":78,"Velocity":52,"Duration":146209,"SoundDuration":146209,"Delta":34995513},{"NoteNumber":74,"Velocity":60,"Duration":147830,"SoundDuration":147830,"Delta":35141723},{"NoteNumber":43,"Velocity":36,"Duration":221746,"SoundDuration":221746,"Delta":35141723},{"NoteNumber":55,"Velocity":41,"Duration":221746,"SoundDuration":221746,"Delta":35141723},{"NoteNumber":76,"Velocity":52,"Duration":147830,"SoundDuration":147830,"Delta":35289553},{"NoteNumber":78,"Velocity":57,"Duration":147830,"SoundDuration":147830,"Delta":35437384},{"NoteNumber":74,"Velocity":64,"Duration":147830,"SoundDuration":147830,"Delta":35585215},{"NoteNumber":43,"Velocity":38,"Duration":221746,"SoundDuration":221746,"Delta":35585215},{"NoteNumber":55,"Velocity":44,"Duration":221746,"SoundDuration":221746,"Delta":35585215},{"NoteNumber":76,"Velocity":58,"Duration":147830,"SoundDuration":147830,"Delta":35733045},{"NoteNumber":78,"Velocity":61,"Duration":147830,"SoundDuration":147830,"Delta":35880876},{"NoteNumber":74,"Velocity":68,"Duration":148845,"SoundDuration":148845,"Delta":36028707},{"NoteNumber":44,"Velocity":40,"Duration":223673,"SoundDuration":223673,"Delta":36028707},{"NoteNumber":56,"Velocity":46,"Duration":223673,"SoundDuration":223673,"Delta":36028707},{"NoteNumber":76,"Velocity":63,"Duration":150071,"SoundDuration":150071,"Delta":36177552},{"NoteNumber":78,"Velocity":65,"Duration":151881,"SoundDuration":151881,"Delta":36327624},{"NoteNumber":74,"Velocity":73,"Duration":153719,"SoundDuration":153719,"Delta":36479505},{"NoteNumber":44,"Velocity":42,"Duration":231260,"SoundDuration":231260,"Delta":36479505},{"NoteNumber":56,"Velocity":48,"Duration":231260,"SoundDuration":231260,"Delta":36479505},{"NoteNumber":76,"Velocity":69,"Duration":155186,"SoundDuration":155186,"Delta":36633224},{"NoteNumber":78,"Velocity":70,"Duration":172726,"SoundDuration":172726,"Delta":36788411},{"NoteNumber":74,"Velocity":75,"Duration":152917,"SoundDuration":152917,"Delta":36961137},{"NoteNumber":45,"Velocity":42,"Duration":1807209,"SoundDuration":1807209,"Delta":36961137},{"NoteNumber":57,"Velocity":48,"Duration":1807209,"SoundDuration":1807209,"Delta":36961137},{"NoteNumber":78,"Velocity":71,"Duration":152917,"SoundDuration":152917,"Delta":37114054},{"NoteNumber":81,"Velocity":68,"Duration":146746,"SoundDuration":146746,"Delta":37266971},{"NoteNumber":79,"Velocity":74,"Duration":147830,"SoundDuration":147830,"Delta":37413717},{"NoteNumber":78,"Velocity":68,"Duration":147830,"SoundDuration":147830,"Delta":37561548},{"NoteNumber":76,"Velocity":64,"Duration":147830,"SoundDuration":147830,"Delta":37709379},{"NoteNumber":74,"Velocity":71,"Duration":147830,"SoundDuration":147830,"Delta":37857209},{"NoteNumber":73,"Velocity":64,"Duration":147830,"SoundDuration":147830,"Delta":38005040},{"NoteNumber":71,"Velocity":62,"Duration":147830,"SoundDuration":147830,"Delta":38152871},{"NoteNumber":69,"Velocity":72,"Duration":147830,"SoundDuration":147830,"Delta":38300701},{"NoteNumber":67,"Velocity":67,"Duration":147830,"SoundDuration":147830,"Delta":38448532},{"NoteNumber":66,"Velocity":67,"Duration":171983,"SoundDuration":171983,"Delta":38596363},{"NoteNumber":64,"Velocity":41,"Duration":81186,"SoundDuration":81186,"Delta":38768347},{"NoteNumber":45,"Velocity":50,"Duration":162041,"SoundDuration":162041,"Delta":38768347},{"NoteNumber":66,"Velocity":39,"Duration":80855,"SoundDuration":80855,"Delta":38849533},{"NoteNumber":64,"Velocity":46,"Duration":80315,"SoundDuration":80315,"Delta":38930389},{"NoteNumber":49,"Velocity":45,"Duration":160135,"SoundDuration":160135,"Delta":38930389},{"NoteNumber":66,"Velocity":44,"Duration":79819,"SoundDuration":79819,"Delta":39010705},{"NoteNumber":64,"Velocity":49,"Duration":79324,"SoundDuration":79324,"Delta":39090524},{"NoteNumber":55,"Velocity":45,"Duration":158133,"SoundDuration":158133,"Delta":39090524},{"NoteNumber":66,"Velocity":46,"Duration":78808,"SoundDuration":78808,"Delta":39169848},{"NoteNumber":64,"Velocity":51,"Duration":78353,"SoundDuration":78353,"Delta":39248657},{"NoteNumber":45,"Velocity":51,"Duration":156184,"SoundDuration":156184,"Delta":39248657},{"NoteNumber":66,"Velocity":48,"Duration":77831,"SoundDuration":77831,"Delta":39327010},{"NoteNumber":64,"Velocity":54,"Duration":77379,"SoundDuration":77379,"Delta":39404841},{"NoteNumber":49,"Velocity":46,"Duration":154279,"SoundDuration":154279,"Delta":39404841},{"NoteNumber":66,"Velocity":49,"Duration":76899,"SoundDuration":76899,"Delta":39482221},{"NoteNumber":64,"Velocity":57,"Duration":76498,"SoundDuration":76498,"Delta":39559121},{"NoteNumber":55,"Velocity":47,"Duration":152957,"SoundDuration":152957,"Delta":39559121},{"NoteNumber":66,"Velocity":53,"Duration":76458,"SoundDuration":76458,"Delta":39635620},{"NoteNumber":64,"Velocity":56,"Duration":76458,"SoundDuration":76458,"Delta":39712078},{"NoteNumber":45,"Velocity":52,"Duration":153122,"SoundDuration":153122,"Delta":39712078},{"NoteNumber":66,"Velocity":51,"Duration":76663,"SoundDuration":76663,"Delta":39788537},{"NoteNumber":64,"Velocity":56,"Duration":76751,"SoundDuration":76751,"Delta":39865200},{"NoteNumber":49,"Velocity":48,"Duration":153503,"SoundDuration":153503,"Delta":39865200},{"NoteNumber":66,"Velocity":50,"Duration":76751,"SoundDuration":76751,"Delta":39941952},{"NoteNumber":64,"Velocity":56,"Duration":76914,"SoundDuration":76914,"Delta":40018704},{"NoteNumber":55,"Velocity":49,"Duration":153961,"SoundDuration":153961,"Delta":40018704},{"NoteNumber":66,"Velocity":51,"Duration":77047,"SoundDuration":77047,"Delta":40095619},{"NoteNumber":64,"Velocity":54,"Duration":77047,"SoundDuration":77047,"Delta":40172666},{"NoteNumber":45,"Velocity":54,"Duration":154210,"SoundDuration":154210,"Delta":40172666},{"NoteNumber":66,"Velocity":49,"Duration":77162,"SoundDuration":77162,"Delta":40249714},{"NoteNumber":64,"Velocity":53,"Duration":77744,"SoundDuration":77744,"Delta":40326876},{"NoteNumber":49,"Velocity":49,"Duration":156457,"SoundDuration":156457,"Delta":40326876},{"NoteNumber":66,"Velocity":49,"Duration":58940,"SoundDuration":58940,"Delta":40404621},{"NoteNumber":64,"Velocity":53,"Duration":59493,"SoundDuration":59493,"Delta":40463562},{"NoteNumber":55,"Velocity":50,"Duration":160418,"SoundDuration":160418,"Delta":40483334},{"NoteNumber":62,"Velocity":49,"Duration":60065,"SoundDuration":60065,"Delta":40523055},{"NoteNumber":64,"Velocity":49,"Duration":60631,"SoundDuration":60631,"Delta":40583121},{"NoteNumber":62,"Velocity":49,"Duration":143071,"SoundDuration":143071,"Delta":40643753},{"NoteNumber":54,"Velocity":59,"Duration":429214,"SoundDuration":429214,"Delta":40643753},{"NoteNumber":50,"Velocity":50,"Duration":429214,"SoundDuration":429214,"Delta":40643753},{"NoteNumber":66,"Velocity":32,"Duration":143071,"SoundDuration":143071,"Delta":40786824},{"NoteNumber":69,"Velocity":32,"Duration":143071,"SoundDuration":143071,"Delta":40929896},{"NoteNumber":66,"Velocity":48,"Duration":143071,"SoundDuration":143071,"Delta":41072968},{"NoteNumber":69,"Velocity":32,"Duration":143071,"SoundDuration":143071,"Delta":41216039},{"NoteNumber":74,"Velocity":29,"Duration":143071,"SoundDuration":143071,"Delta":41359111},{"NoteNumber":66,"Velocity":41,"Duration":143071,"SoundDuration":143071,"Delta":41502183},{"NoteNumber":69,"Velocity":28,"Duration":143071,"SoundDuration":143071,"Delta":41645254},{"NoteNumber":74,"Velocity":28,"Duration":152916,"SoundDuration":152916,"Delta":41788326},{"NoteNumber":66,"Velocity":41,"Duration":142561,"SoundDuration":142561,"Delta":41941243},{"NoteNumber":62,"Velocity":40,"Duration":213842,"SoundDuration":213842,"Delta":41941243},{"NoteNumber":69,"Velocity":29,"Duration":142562,"SoundDuration":142562,"Delta":42083805},{"NoteNumber":74,"Velocity":29,"Duration":142561,"SoundDuration":142561,"Delta":42226367},{"NoteNumber":68,"Velocity":41,"Duration":142561,"SoundDuration":142561,"Delta":42368929},{"NoteNumber":59,"Velocity":45,"Duration":213842,"SoundDuration":213842,"Delta":42368929},{"NoteNumber":71,"Velocity":29,"Duration":142561,"SoundDuration":142561,"Delta":42511491},{"NoteNumber":74,"Velocity":29,"Duration":142562,"SoundDuration":142562,"Delta":42654053},{"NoteNumber":68,"Velocity":41,"Duration":142561,"SoundDuration":142561,"Delta":42796615},{"NoteNumber":59,"Velocity":40,"Duration":213842,"SoundDuration":213842,"Delta":42796615},{"NoteNumber":71,"Velocity":29,"Duration":142561,"SoundDuration":142561,"Delta":42939177},{"NoteNumber":74,"Velocity":29,"Duration":151756,"SoundDuration":151756,"Delta":43081739},{"NoteNumber":68,"Velocity":41,"Duration":142561,"SoundDuration":142561,"Delta":43233496},{"NoteNumber":64,"Velocity":37,"Duration":213842,"SoundDuration":213842,"Delta":43233496},{"NoteNumber":71,"Velocity":29,"Duration":142562,"SoundDuration":142562,"Delta":43376058},{"NoteNumber":74,"Velocity":29,"Duration":142561,"SoundDuration":142561,"Delta":43518620},{"NoteNumber":68,"Velocity":41,"Duration":142561,"SoundDuration":142561,"Delta":43661182},{"NoteNumber":64,"Velocity":40,"Duration":213842,"SoundDuration":213842,"Delta":43661182},{"NoteNumber":71,"Velocity":30,"Duration":142562,"SoundDuration":142562,"Delta":43803744},{"NoteNumber":74,"Velocity":30,"Duration":162879,"SoundDuration":162879,"Delta":43946306},{"NoteNumber":67,"Velocity":41,"Duration":142561,"SoundDuration":142561,"Delta":44109185},{"NoteNumber":57,"Velocity":45,"Duration":865726,"SoundDuration":865726,"Delta":44109185},{"NoteNumber":69,"Velocity":29,"Duration":142562,"SoundDuration":142562,"Delta":44251747},{"NoteNumber":73,"Velocity":29,"Duration":142561,"SoundDuration":142561,"Delta":44394309},{"NoteNumber":67,"Velocity":41,"Duration":142561,"SoundDuration":142561,"Delta":44536871},{"NoteNumber":69,"Velocity":29,"Duration":142562,"SoundDuration":142562,"Delta":44679433},{"NoteNumber":73,"Velocity":29,"Duration":152916,"SoundDuration":152916,"Delta":44821995},{"NoteNumber":66,"Velocity":41,"Duration":142561,"SoundDuration":142561,"Delta":44974912},{"NoteNumber":62,"Velocity":37,"Duration":213842,"SoundDuration":213842,"Delta":44974912},{"NoteNumber":69,"Velocity":29,"Duration":142562,"SoundDuration":142562,"Delta":45117474},{"NoteNumber":74,"Velocity":29,"Duration":142561,"SoundDuration":142561,"Delta":45260036},{"NoteNumber":66,"Velocity":41,"Duration":142561,"SoundDuration":142561,"Delta":45402598},{"NoteNumber":62,"Velocity":40,"Duration":213842,"SoundDuration":213842,"Delta":45402598},{"NoteNumber":69,"Velocity":30,"Duration":142562,"SoundDuration":142562,"Delta":45545160},{"NoteNumber":74,"Velocity":30,"Duration":158994,"SoundDuration":158994,"Delta":45687722},{"NoteNumber":64,"Velocity":41,"Duration":142055,"SoundDuration":142055,"Delta":45846717},{"NoteNumber":55,"Velocity":45,"Duration":213083,"SoundDuration":213083,"Delta":45846717},{"NoteNumber":67,"Velocity":29,"Duration":142055,"SoundDuration":142055,"Delta":45988773},{"NoteNumber":71,"Velocity":29,"Duration":142055,"SoundDuration":142055,"Delta":46130829},{"NoteNumber":64,"Velocity":41,"Duration":142055,"SoundDuration":142055,"Delta":46272884},{"NoteNumber":55,"Velocity":40,"Duration":213083,"SoundDuration":213083,"Delta":46272884},{"NoteNumber":67,"Velocity":29,"Duration":142055,"SoundDuration":142055,"Delta":46414940},{"NoteNumber":71,"Velocity":29,"Duration":157121,"SoundDuration":157121,"Delta":46556996},{"NoteNumber":61,"Velocity":41,"Duration":142561,"SoundDuration":142561,"Delta":46714117},{"NoteNumber":57,"Velocity":37,"Duration":213842,"SoundDuration":213842,"Delta":46714117},{"NoteNumber":64,"Velocity":29,"Duration":142562,"SoundDuration":142562,"Delta":46856679},{"NoteNumber":69,"Velocity":29,"Duration":142561,"SoundDuration":142561,"Delta":46999241},{"NoteNumber":61,"Velocity":41,"Duration":142561,"SoundDuration":142561,"Delta":47141803},{"NoteNumber":57,"Velocity":40,"Duration":213842,"SoundDuration":213842,"Delta":47141803},{"NoteNumber":64,"Velocity":30,"Duration":142562,"SoundDuration":142562,"Delta":47284365},{"NoteNumber":69,"Velocity":30,"Duration":161563,"SoundDuration":161563,"Delta":47426927},{"NoteNumber":62,"Velocity":49,"Duration":143071,"SoundDuration":143071,"Delta":47588491},{"NoteNumber":54,"Velocity":50,"Duration":429214,"SoundDuration":429214,"Delta":47588491},{"NoteNumber":50,"Velocity":42,"Duration":429214,"SoundDuration":429214,"Delta":47588491},{"NoteNumber":66,"Velocity":30,"Duration":143071,"SoundDuration":143071,"Delta":47731563},{"NoteNumber":69,"Velocity":30,"Duration":143071,"SoundDuration":143071,"Delta":47874635},{"NoteNumber":66,"Velocity":46,"Duration":143071,"SoundDuration":143071,"Delta":48017706},{"NoteNumber":69,"Velocity":30,"Duration":143071,"SoundDuration":143071,"Delta":48160778},{"NoteNumber":74,"Velocity":30,"Duration":143071,"SoundDuration":143071,"Delta":48303850},{"NoteNumber":66,"Velocity":41,"Duration":143071,"SoundDuration":143071,"Delta":48446921},{"NoteNumber":69,"Velocity":28,"Duration":143071,"SoundDuration":143071,"Delta":48589993},{"NoteNumber":74,"Velocity":28,"Duration":152916,"SoundDuration":152916,"Delta":48733065},{"NoteNumber":66,"Velocity":45,"Duration":142561,"SoundDuration":142561,"Delta":48885982},{"NoteNumber":50,"Velocity":44,"Duration":213842,"SoundDuration":213842,"Delta":48885982},{"NoteNumber":69,"Velocity":32,"Duration":142562,"SoundDuration":142562,"Delta":49028544},{"NoteNumber":74,"Velocity":32,"Duration":142561,"SoundDuration":142561,"Delta":49171106},{"NoteNumber":68,"Velocity":46,"Duration":142561,"SoundDuration":142561,"Delta":49313668},{"NoteNumber":47,"Velocity":50,"Duration":213842,"SoundDuration":213842,"Delta":49313668},{"NoteNumber":71,"Velocity":33,"Duration":142561,"SoundDuration":142561,"Delta":49456230},{"NoteNumber":74,"Velocity":33,"Duration":142562,"SoundDuration":142562,"Delta":49598792},{"NoteNumber":68,"Velocity":47,"Duration":142561,"SoundDuration":142561,"Delta":49741354},{"NoteNumber":47,"Velocity":46,"Duration":213842,"SoundDuration":213842,"Delta":49741354},{"NoteNumber":71,"Velocity":34,"Duration":142561,"SoundDuration":142561,"Delta":49883916},{"NoteNumber":74,"Velocity":34,"Duration":151756,"SoundDuration":151756,"Delta":50026478},{"NoteNumber":68,"Velocity":49,"Duration":142561,"SoundDuration":142561,"Delta":50178234},{"NoteNumber":52,"Velocity":45,"Duration":213842,"SoundDuration":213842,"Delta":50178234},{"NoteNumber":71,"Velocity":36,"Duration":142562,"SoundDuration":142562,"Delta":50320796},{"NoteNumber":74,"Velocity":36,"Duration":142561,"SoundDuration":142561,"Delta":50463358},{"NoteNumber":68,"Velocity":52,"Duration":142561,"SoundDuration":142561,"Delta":50605920},{"NoteNumber":52,"Velocity":50,"Duration":213842,"SoundDuration":213842,"Delta":50605920},{"NoteNumber":71,"Velocity":38,"Duration":142562,"SoundDuration":142562,"Delta":50748482},{"NoteNumber":74,"Velocity":39,"Duration":162879,"SoundDuration":162879,"Delta":50891044},{"NoteNumber":67,"Velocity":54,"Duration":142561,"SoundDuration":142561,"Delta":51053924},{"NoteNumber":45,"Velocity":59,"Duration":865726,"SoundDuration":865726,"Delta":51053924},{"NoteNumber":69,"Velocity":39,"Duration":142562,"SoundDuration":142562,"Delta":51196486},{"NoteNumber":73,"Velocity":39,"Duration":142561,"SoundDuration":142561,"Delta":51339048},{"NoteNumber":67,"Velocity":55,"Duration":142561,"SoundDuration":142561,"Delta":51481610},{"NoteNumber":69,"Velocity":39,"Duration":142562,"SoundDuration":142562,"Delta":51624172},{"NoteNumber":73,"Velocity":40,"Duration":152916,"SoundDuration":152916,"Delta":51766734},{"NoteNumber":66,"Velocity":56,"Duration":142561,"SoundDuration":142561,"Delta":51919651},{"NoteNumber":50,"Velocity":50,"Duration":213842,"SoundDuration":213842,"Delta":51919651},{"NoteNumber":69,"Velocity":40,"Duration":142562,"SoundDuration":142562,"Delta":52062213},{"NoteNumber":74,"Velocity":41,"Duration":142561,"SoundDuration":142561,"Delta":52204775},{"NoteNumber":66,"Velocity":58,"Duration":142561,"SoundDuration":142561,"Delta":52347337},{"NoteNumber":50,"Velocity":57,"Duration":213842,"SoundDuration":213842,"Delta":52347337},{"NoteNumber":69,"Velocity":43,"Duration":142562,"SoundDuration":142562,"Delta":52489899},{"NoteNumber":74,"Velocity":44,"Duration":158994,"SoundDuration":158994,"Delta":52632461},{"NoteNumber":64,"Velocity":63,"Duration":142055,"SoundDuration":142055,"Delta":52791456},{"NoteNumber":55,"Velocity":68,"Duration":213083,"SoundDuration":213083,"Delta":52791456},{"NoteNumber":43,"Velocity":57,"Duration":213083,"SoundDuration":213083,"Delta":52791456},{"NoteNumber":67,"Velocity":44,"Duration":142055,"SoundDuration":142055,"Delta":52933512},{"NoteNumber":71,"Velocity":45,"Duration":142055,"SoundDuration":142055,"Delta":53075567},{"NoteNumber":64,"Velocity":64,"Duration":142055,"SoundDuration":142055,"Delta":53217623},{"NoteNumber":55,"Velocity":63,"Duration":213083,"SoundDuration":213083,"Delta":53217623},{"NoteNumber":43,"Velocity":52,"Duration":213083,"SoundDuration":213083,"Delta":53217623},{"NoteNumber":67,"Velocity":45,"Duration":142055,"SoundDuration":142055,"Delta":53359679},{"NoteNumber":71,"Velocity":46,"Duration":157121,"SoundDuration":157121,"Delta":53501734},{"NoteNumber":61,"Velocity":64,"Duration":142561,"SoundDuration":142561,"Delta":53658856},{"NoteNumber":57,"Velocity":58,"Duration":213842,"SoundDuration":213842,"Delta":53658856},{"NoteNumber":45,"Velocity":48,"Duration":213842,"SoundDuration":213842,"Delta":53658856},{"NoteNumber":64,"Velocity":46,"Duration":142562,"SoundDuration":142562,"Delta":53801418},{"NoteNumber":69,"Velocity":46,"Duration":142561,"SoundDuration":142561,"Delta":53943980},{"NoteNumber":61,"Velocity":66,"Duration":142561,"SoundDuration":142561,"Delta":54086542},{"NoteNumber":57,"Velocity":64,"Duration":213842,"SoundDuration":213842,"Delta":54086542},{"NoteNumber":45,"Velocity":54,"Duration":213842,"SoundDuration":213842,"Delta":54086542},{"NoteNumber":64,"Velocity":48,"Duration":142562,"SoundDuration":142562,"Delta":54229104},{"NoteNumber":69,"Velocity":48,"Duration":161563,"SoundDuration":161563,"Delta":54371666},{"NoteNumber":62,"Velocity":70,"Duration":427686,"SoundDuration":427686,"Delta":54533230},{"NoteNumber":50,"Velocity":56,"Duration":142561,"SoundDuration":142561,"Delta":54533230},{"NoteNumber":54,"Velocity":48,"Duration":142562,"SoundDuration":142562,"Delta":54675792},{"NoteNumber":57,"Velocity":47,"Duration":142561,"SoundDuration":142561,"Delta":54818354},{"NoteNumber":50,"Velocity":56,"Duration":142561,"SoundDuration":142561,"Delta":54960916},{"NoteNumber":54,"Velocity":48,"Duration":142561,"SoundDuration":142561,"Delta":55103478},{"NoteNumber":57,"Velocity":48,"Duration":142562,"SoundDuration":142562,"Delta":55246040},{"NoteNumber":50,"Velocity":56,"Duration":142561,"SoundDuration":142561,"Delta":55388602},{"NoteNumber":54,"Velocity":49,"Duration":142561,"SoundDuration":142561,"Delta":55531164},{"NoteNumber":57,"Velocity":49,"Duration":142561,"SoundDuration":142561,"Delta":55673726},{"NoteNumber":71,"Velocity":65,"Duration":53460,"SoundDuration":53460,"Delta":55762827},{"NoteNumber":69,"Velocity":70,"Duration":146209,"SoundDuration":146209,"Delta":55816288},{"NoteNumber":49,"Velocity":56,"Duration":146209,"SoundDuration":146209,"Delta":55816288},{"NoteNumber":68,"Velocity":66,"Duration":146209,"SoundDuration":146209,"Delta":55962498},{"NoteNumber":52,"Velocity":48,"Duration":146209,"SoundDuration":146209,"Delta":55962498},{"NoteNumber":69,"Velocity":66,"Duration":160914,"SoundDuration":160914,"Delta":56108707},{"NoteNumber":57,"Velocity":49,"Duration":160914,"SoundDuration":160914,"Delta":56108707},{"NoteNumber":66,"Velocity":70,"Duration":213842,"SoundDuration":213842,"Delta":56269621},{"NoteNumber":74,"Velocity":76,"Duration":213842,"SoundDuration":213842,"Delta":56269621},{"NoteNumber":50,"Velocity":56,"Duration":142561,"SoundDuration":142561,"Delta":56269621},{"NoteNumber":54,"Velocity":49,"Duration":142562,"SoundDuration":142562,"Delta":56412183},{"NoteNumber":57,"Velocity":49,"Duration":142561,"SoundDuration":142561,"Delta":56554745},{"NoteNumber":50,"Velocity":56,"Duration":142561,"SoundDuration":142561,"Delta":56697307},{"NoteNumber":54,"Velocity":49,"Duration":142561,"SoundDuration":142561,"Delta":56839869},{"NoteNumber":57,"Velocity":49,"Duration":142562,"SoundDuration":142562,"Delta":56982431},{"NoteNumber":50,"Velocity":56,"Duration":142561,"SoundDuration":142561,"Delta":57124993},{"NoteNumber":54,"Velocity":50,"Duration":142561,"SoundDuration":142561,"Delta":57267555},{"NoteNumber":57,"Velocity":50,"Duration":142561,"SoundDuration":142561,"Delta":57410117},{"NoteNumber":71,"Velocity":65,"Duration":53460,"SoundDuration":53460,"Delta":57499219},{"NoteNumber":69,"Velocity":70,"Duration":145148,"SoundDuration":145148,"Delta":57552679},{"NoteNumber":49,"Velocity":56,"Duration":145148,"SoundDuration":145148,"Delta":57552679},{"NoteNumber":68,"Velocity":66,"Duration":145148,"SoundDuration":145148,"Delta":57697828},{"NoteNumber":52,"Velocity":49,"Duration":145148,"SoundDuration":145148,"Delta":57697828},{"NoteNumber":69,"Velocity":66,"Duration":163545,"SoundDuration":163545,"Delta":57842976},{"NoteNumber":57,"Velocity":49,"Duration":163545,"SoundDuration":163545,"Delta":57842976},{"NoteNumber":66,"Velocity":70,"Duration":230255,"SoundDuration":230255,"Delta":58006522},{"NoteNumber":74,"Velocity":76,"Duration":230255,"SoundDuration":230255,"Delta":58006522},{"NoteNumber":50,"Velocity":56,"Duration":153503,"SoundDuration":153503,"Delta":58006522},{"NoteNumber":54,"Velocity":50,"Duration":153503,"SoundDuration":153503,"Delta":58160025},{"NoteNumber":57,"Velocity":50,"Duration":153503,"SoundDuration":153503,"Delta":58313529},{"NoteNumber":50,"Velocity":56,"Duration":158994,"SoundDuration":158994,"Delta":58467033},{"NoteNumber":54,"Velocity":49,"Duration":158994,"SoundDuration":158994,"Delta":58626028},{"NoteNumber":57,"Velocity":49,"Duration":178110,"SoundDuration":178110,"Delta":58785023},{"NoteNumber":50,"Velocity":56,"Duration":520562,"SoundDuration":520562,"Delta":58963133},{"NoteNumber":81,"Velocity":43,"Duration":53460,"SoundDuration":53460,"Delta":59430235},{"NoteNumber":79,"Velocity":50,"Duration":142561,"SoundDuration":142561,"Delta":59483695},{"NoteNumber":78,"Velocity":45,"Duration":142562,"SoundDuration":142562,"Delta":59626257},{"NoteNumber":79,"Velocity":45,"Duration":142561,"SoundDuration":142561,"Delta":59768819},{"NoteNumber":83,"Velocity":50,"Duration":106921,"SoundDuration":106921,"Delta":59911381},{"NoteNumber":55,"Velocity":29,"Duration":142561,"SoundDuration":142561,"Delta":59911381},{"NoteNumber":59,"Velocity":20,"Duration":142561,"SoundDuration":142561,"Delta":60053943},{"NoteNumber":62,"Velocity":20,"Duration":142562,"SoundDuration":142562,"Delta":60196505},{"NoteNumber":83,"Velocity":46,"Duration":106921,"SoundDuration":106921,"Delta":60339067},{"NoteNumber":55,"Velocity":29,"Duration":142561,"SoundDuration":142561,"Delta":60339067},{"NoteNumber":59,"Velocity":20,"Duration":142561,"SoundDuration":142561,"Delta":60481629},{"NoteNumber":62,"Velocity":20,"Duration":142562,"SoundDuration":142562,"Delta":60624191},{"NoteNumber":79,"Velocity":50,"Duration":213842,"SoundDuration":213842,"Delta":60766753},{"NoteNumber":55,"Velocity":29,"Duration":142561,"SoundDuration":142561,"Delta":60766753},{"NoteNumber":59,"Velocity":21,"Duration":142561,"SoundDuration":142561,"Delta":60909315},{"NoteNumber":62,"Velocity":20,"Duration":142561,"SoundDuration":142561,"Delta":61051877},{"NoteNumber":81,"Velocity":41,"Duration":53460,"SoundDuration":53460,"Delta":61140979},{"NoteNumber":79,"Velocity":50,"Duration":142562,"SoundDuration":142562,"Delta":61194439},{"NoteNumber":55,"Velocity":29,"Duration":142562,"SoundDuration":142562,"Delta":61194439},{"NoteNumber":78,"Velocity":44,"Duration":142561,"SoundDuration":142561,"Delta":61337001},{"NoteNumber":59,"Velocity":21,"Duration":142561,"SoundDuration":142561,"Delta":61337001},{"NoteNumber":79,"Velocity":53,"Duration":158995,"SoundDuration":158995,"Delta":61479563},{"NoteNumber":62,"Velocity":21,"Duration":158995,"SoundDuration":158995,"Delta":61479563},{"NoteNumber":86,"Velocity":62,"Duration":855372,"SoundDuration":855372,"Delta":61638558},{"NoteNumber":55,"Velocity":29,"Duration":142561,"SoundDuration":142561,"Delta":61638558},{"NoteNumber":59,"Velocity":20,"Duration":142562,"SoundDuration":142562,"Delta":61781120},{"NoteNumber":62,"Velocity":20,"Duration":142561,"SoundDuration":142561,"Delta":61923682},{"NoteNumber":55,"Velocity":29,"Duration":142561,"SoundDuration":142561,"Delta":62066244},{"NoteNumber":59,"Velocity":20,"Duration":142561,"SoundDuration":142561,"Delta":62208806},{"NoteNumber":62,"Velocity":20,"Duration":142562,"SoundDuration":142562,"Delta":62351368},{"NoteNumber":83,"Velocity":50,"Duration":427686,"SoundDuration":427686,"Delta":62493930},{"NoteNumber":55,"Velocity":29,"Duration":142561,"SoundDuration":142561,"Delta":62493930},{"NoteNumber":59,"Velocity":21,"Duration":142562,"SoundDuration":142562,"Delta":62636492},{"NoteNumber":62,"Velocity":20,"Duration":142561,"SoundDuration":142561,"Delta":62779054},{"NoteNumber":79,"Velocity":47,"Duration":437031,"SoundDuration":437031,"Delta":62921616},{"NoteNumber":55,"Velocity":29,"Duration":145677,"SoundDuration":145677,"Delta":62921616},{"NoteNumber":59,"Velocity":21,"Duration":145676,"SoundDuration":145676,"Delta":63067293},{"NoteNumber":62,"Velocity":21,"Duration":145677,"SoundDuration":145677,"Delta":63212970},{"NoteNumber":84,"Velocity":62,"Duration":213842,"SoundDuration":213842,"Delta":63358647},{"NoteNumber":55,"Velocity":33,"Duration":142561,"SoundDuration":142561,"Delta":63358647},{"NoteNumber":60,"Velocity":23,"Duration":142561,"SoundDuration":142561,"Delta":63501209},{"NoteNumber":64,"Velocity":23,"Duration":142561,"SoundDuration":142561,"Delta":63643771},{"NoteNumber":86,"Velocity":54,"Duration":53460,"SoundDuration":53460,"Delta":63732873},{"NoteNumber":84,"Velocity":62,"Duration":142562,"SoundDuration":142562,"Delta":63786333},{"NoteNumber":55,"Velocity":32,"Duration":142562,"SoundDuration":142562,"Delta":63786333},{"NoteNumber":83,"Velocity":50,"Duration":142561,"SoundDuration":142561,"Delta":63928895},{"NoteNumber":60,"Velocity":20,"Duration":142561,"SoundDuration":142561,"Delta":63928895},{"NoteNumber":84,"Velocity":50,"Duration":142561,"SoundDuration":142561,"Delta":64071457},{"NoteNumber":64,"Velocity":21,"Duration":142561,"SoundDuration":142561,"Delta":64071457},{"NoteNumber":88,"Velocity":64,"Duration":213842,"SoundDuration":213842,"Delta":64214019},{"NoteNumber":55,"Velocity":35,"Duration":142561,"SoundDuration":142561,"Delta":64214019},{"NoteNumber":60,"Velocity":25,"Duration":142561,"SoundDuration":142561,"Delta":64356581},{"NoteNumber":64,"Velocity":24,"Duration":142561,"SoundDuration":142561,"Delta":64499143},{"NoteNumber":88,"Velocity":61,"Duration":213842,"SoundDuration":213842,"Delta":64641705},{"NoteNumber":55,"Velocity":35,"Duration":142561,"SoundDuration":142561,"Delta":64641705},{"NoteNumber":60,"Velocity":25,"Duration":142561,"SoundDuration":142561,"Delta":64784267},{"NoteNumber":64,"Velocity":25,"Duration":165576,"SoundDuration":165576,"Delta":64926829},{"NoteNumber":85,"Velocity":65,"Duration":437031,"SoundDuration":437031,"Delta":65092406},{"NoteNumber":55,"Velocity":35,"Duration":145677,"SoundDuration":145677,"Delta":65092406},{"NoteNumber":59,"Velocity":24,"Duration":145676,"SoundDuration":145676,"Delta":65238083},{"NoteNumber":62,"Velocity":24,"Duration":145677,"SoundDuration":145677,"Delta":65383760},{"NoteNumber":86,"Velocity":63,"Duration":218515,"SoundDuration":218515,"Delta":65529437},{"NoteNumber":55,"Velocity":35,"Duration":145676,"SoundDuration":145676,"Delta":65529437},{"NoteNumber":59,"Velocity":23,"Duration":145677,"SoundDuration":145677,"Delta":65675114},{"NoteNumber":62,"Velocity":23,"Duration":145676,"SoundDuration":145676,"Delta":65820791},{"NoteNumber":55,"Velocity":33,"Duration":145677,"SoundDuration":145677,"Delta":65966468},{"NoteNumber":59,"Velocity":20,"Duration":145676,"SoundDuration":145676,"Delta":66112145},{"NoteNumber":62,"Velocity":20,"Duration":144508,"SoundDuration":144508,"Delta":66257822},{"NoteNumber":81,"Velocity":43,"Duration":53460,"SoundDuration":53460,"Delta":66348870},{"NoteNumber":79,"Velocity":50,"Duration":142561,"SoundDuration":142561,"Delta":66402331},{"NoteNumber":55,"Velocity":29,"Duration":142561,"SoundDuration":142561,"Delta":66402331},{"NoteNumber":78,"Velocity":45,"Duration":142561,"SoundDuration":142561,"Delta":66544893},{"NoteNumber":59,"Velocity":21,"Duration":142561,"SoundDuration":142561,"Delta":66544893},{"NoteNumber":79,"Velocity":45,"Duration":142561,"SoundDuration":142561,"Delta":66687455},{"NoteNumber":62,"Velocity":21,"Duration":142561,"SoundDuration":142561,"Delta":66687455},{"NoteNumber":81,"Velocity":50,"Duration":106921,"SoundDuration":106921,"Delta":66830017},{"NoteNumber":60,"Velocity":26,"Duration":142562,"SoundDuration":142562,"Delta":66830017},{"NoteNumber":64,"Velocity":16,"Duration":142561,"SoundDuration":142561,"Delta":66972579},{"NoteNumber":69,"Velocity":16,"Duration":142561,"SoundDuration":142561,"Delta":67115141},{"NoteNumber":81,"Velocity":46,"Duration":427685,"SoundDuration":427685,"Delta":67257703},{"NoteNumber":60,"Velocity":29,"Duration":142561,"SoundDuration":142561,"Delta":67257703},{"NoteNumber":64,"Velocity":16,"Duration":142561,"SoundDuration":142561,"Delta":67400265},{"NoteNumber":69,"Velocity":16,"Duration":142561,"SoundDuration":142561,"Delta":67542827},{"NoteNumber":76,"Velocity":50,"Duration":427686,"SoundDuration":427686,"Delta":67685389},{"NoteNumber":60,"Velocity":29,"Duration":142561,"SoundDuration":142561,"Delta":67685389},{"NoteNumber":64,"Velocity":16,"Duration":142562,"SoundDuration":142562,"Delta":67827951},{"NoteNumber":69,"Velocity":16,"Duration":142561,"SoundDuration":142561,"Delta":67970513},{"NoteNumber":81,"Velocity":50,"Duration":444119,"SoundDuration":444119,"Delta":68113075},{"NoteNumber":60,"Velocity":29,"Duration":142561,"SoundDuration":142561,"Delta":68113075},{"NoteNumber":64,"Velocity":16,"Duration":142561,"SoundDuration":142561,"Delta":68255637},{"NoteNumber":69,"Velocity":16,"Duration":158995,"SoundDuration":158995,"Delta":68398199},{"NoteNumber":74,"Velocity":62,"Duration":855372,"SoundDuration":855372,"Delta":68557194},{"NoteNumber":59,"Velocity":29,"Duration":142561,"SoundDuration":142561,"Delta":68557194},{"NoteNumber":62,"Velocity":16,"Duration":142561,"SoundDuration":142561,"Delta":68699756},{"NoteNumber":67,"Velocity":16,"Duration":142561,"SoundDuration":142561,"Delta":68842318},{"NoteNumber":59,"Velocity":29,"Duration":142562,"SoundDuration":142562,"Delta":68984880},{"NoteNumber":62,"Velocity":16,"Duration":142561,"SoundDuration":142561,"Delta":69127442},{"NoteNumber":67,"Velocity":16,"Duration":142561,"SoundDuration":142561,"Delta":69270004},{"NoteNumber":79,"Velocity":50,"Duration":427685,"SoundDuration":427685,"Delta":69412566},{"NoteNumber":59,"Velocity":29,"Duration":142561,"SoundDuration":142561,"Delta":69412566},{"NoteNumber":62,"Velocity":16,"Duration":142561,"SoundDuration":142561,"Delta":69555128},{"NoteNumber":67,"Velocity":16,"Duration":142561,"SoundDuration":142561,"Delta":69697690},{"NoteNumber":74,"Velocity":47,"Duration":437031,"SoundDuration":437031,"Delta":69840252},{"NoteNumber":59,"Velocity":29,"Duration":145677,"SoundDuration":145677,"Delta":69840252},{"NoteNumber":62,"Velocity":16,"Duration":145676,"SoundDuration":145676,"Delta":69985929},{"NoteNumber":67,"Velocity":16,"Duration":145677,"SoundDuration":145677,"Delta":70131606},{"NoteNumber":72,"Velocity":50,"Duration":214607,"SoundDuration":214607,"Delta":70277283},{"NoteNumber":54,"Velocity":29,"Duration":143071,"SoundDuration":143071,"Delta":70277283},{"NoteNumber":57,"Velocity":16,"Duration":143071,"SoundDuration":143071,"Delta":70420355},{"NoteNumber":62,"Velocity":16,"Duration":143071,"SoundDuration":143071,"Delta":70563426},{"NoteNumber":72,"Velocity":46,"Duration":214607,"SoundDuration":214607,"Delta":70706498},{"NoteNumber":54,"Velocity":29,"Duration":143071,"SoundDuration":143071,"Delta":70706498},{"NoteNumber":57,"Velocity":16,"Duration":143071,"SoundDuration":143071,"Delta":70849570},{"NoteNumber":62,"Velocity":16,"Duration":143071,"SoundDuration":143071,"Delta":70992641},{"NoteNumber":71,"Velocity":50,"Duration":214607,"SoundDuration":214607,"Delta":71135713},{"NoteNumber":55,"Velocity":31,"Duration":143071,"SoundDuration":143071,"Delta":71135713},{"NoteNumber":59,"Velocity":16,"Duration":143071,"SoundDuration":143071,"Delta":71278785},{"NoteNumber":62,"Velocity":16,"Duration":143071,"SoundDuration":143071,"Delta":71421856},{"NoteNumber":74,"Velocity":50,"Duration":219314,"SoundDuration":219314,"Delta":71564928},{"NoteNumber":55,"Velocity":33,"Duration":146209,"SoundDuration":146209,"Delta":71564928},{"NoteNumber":59,"Velocity":19,"Duration":146209,"SoundDuration":146209,"Delta":71711138},{"NoteNumber":62,"Velocity":19,"Duration":155896,"SoundDuration":155896,"Delta":71857347},{"NoteNumber":74,"Velocity":64,"Duration":441858,"SoundDuration":441858,"Delta":72013244},{"NoteNumber":50,"Velocity":34,"Duration":147286,"SoundDuration":147286,"Delta":72013244},{"NoteNumber":54,"Velocity":37,"Duration":147286,"SoundDuration":147286,"Delta":72160530},{"NoteNumber":57,"Velocity":40,"Duration":147286,"SoundDuration":147286,"Delta":72307817},{"NoteNumber":69,"Velocity":48,"Duration":226774,"SoundDuration":226774,"Delta":72455103},{"NoteNumber":62,"Velocity":42,"Duration":151183,"SoundDuration":151183,"Delta":72455103},{"NoteNumber":57,"Velocity":35,"Duration":151182,"SoundDuration":151182,"Delta":72606286},{"NoteNumber":54,"Velocity":38,"Duration":160269,"SoundDuration":160269,"Delta":72757469},{"NoteNumber":50,"Velocity":43,"Duration":440087,"SoundDuration":440087,"Delta":72917738},{"NoteNumber":69,"Velocity":43,"Duration":53460,"SoundDuration":53460,"Delta":73304365},{"NoteNumber":67,"Velocity":50,"Duration":142561,"SoundDuration":142561,"Delta":73357826},{"NoteNumber":66,"Velocity":45,"Duration":142561,"SoundDuration":142561,"Delta":73500388},{"NoteNumber":67,"Velocity":45,"Duration":142561,"SoundDuration":142561,"Delta":73642950},{"NoteNumber":71,"Velocity":50,"Duration":106921,"SoundDuration":106921,"Delta":73785512},{"NoteNumber":55,"Velocity":29,"Duration":142562,"SoundDuration":142562,"Delta":73785512},{"NoteNumber":59,"Velocity":20,"Duration":142561,"SoundDuration":142561,"Delta":73928074},{"NoteNumber":62,"Velocity":20,"Duration":142561,"SoundDuration":142561,"Delta":74070636},{"NoteNumber":71,"Velocity":46,"Duration":106921,"SoundDuration":106921,"Delta":74213198},{"NoteNumber":55,"Velocity":29,"Duration":142561,"SoundDuration":142561,"Delta":74213198},{"NoteNumber":59,"Velocity":20,"Duration":142561,"SoundDuration":142561,"Delta":74355760},{"NoteNumber":62,"Velocity":20,"Duration":142561,"SoundDuration":142561,"Delta":74498322},{"NoteNumber":67,"Velocity":50,"Duration":213842,"SoundDuration":213842,"Delta":74640884},{"NoteNumber":55,"Velocity":29,"Duration":142561,"SoundDuration":142561,"Delta":74640884},{"NoteNumber":59,"Velocity":21,"Duration":142562,"SoundDuration":142562,"Delta":74783446},{"NoteNumber":62,"Velocity":20,"Duration":142561,"SoundDuration":142561,"Delta":74926008},{"NoteNumber":69,"Velocity":41,"Duration":53460,"SoundDuration":53460,"Delta":75015109},{"NoteNumber":67,"Velocity":50,"Duration":142561,"SoundDuration":142561,"Delta":75068570},{"NoteNumber":55,"Velocity":29,"Duration":142561,"SoundDuration":142561,"Delta":75068570},{"NoteNumber":66,"Velocity":44,"Duration":142561,"SoundDuration":142561,"Delta":75211132},{"NoteNumber":59,"Velocity":21,"Duration":142561,"SoundDuration":142561,"Delta":75211132},{"NoteNumber":67,"Velocity":53,"Duration":158995,"SoundDuration":158995,"Delta":75353694},{"NoteNumber":62,"Velocity":21,"Duration":158995,"SoundDuration":158995,"Delta":75353694},{"NoteNumber":74,"Velocity":62,"Duration":855372,"SoundDuration":855372,"Delta":75512689},{"NoteNumber":55,"Velocity":29,"Duration":142561,"SoundDuration":142561,"Delta":75512689},{"NoteNumber":59,"Velocity":20,"Duration":142561,"SoundDuration":142561,"Delta":75655251},{"NoteNumber":62,"Velocity":20,"Duration":142561,"SoundDuration":142561,"Delta":75797813},{"NoteNumber":55,"Velocity":29,"Duration":142562,"SoundDuration":142562,"Delta":75940375},{"NoteNumber":59,"Velocity":20,"Duration":142561,"SoundDuration":142561,"Delta":76082937},{"NoteNumber":62,"Velocity":20,"Duration":142561,"SoundDuration":142561,"Delta":76225499},{"NoteNumber":71,"Velocity":50,"Duration":427685,"SoundDuration":427685,"Delta":76368061},{"NoteNumber":55,"Velocity":29,"Duration":142561,"SoundDuration":142561,"Delta":76368061},{"NoteNumber":59,"Velocity":21,"Duration":142561,"SoundDuration":142561,"Delta":76510623},{"NoteNumber":62,"Velocity":20,"Duration":142561,"SoundDuration":142561,"Delta":76653185},{"NoteNumber":67,"Velocity":47,"Duration":437031,"SoundDuration":437031,"Delta":76795747},{"NoteNumber":55,"Velocity":29,"Duration":145677,"SoundDuration":145677,"Delta":76795747},{"NoteNumber":59,"Velocity":21,"Duration":145676,"SoundDuration":145676,"Delta":76941424},{"NoteNumber":62,"Velocity":21,"Duration":145677,"SoundDuration":145677,"Delta":77087101},{"NoteNumber":72,"Velocity":62,"Duration":213842,"SoundDuration":213842,"Delta":77232778},{"NoteNumber":55,"Velocity":33,"Duration":142561,"SoundDuration":142561,"Delta":77232778},{"NoteNumber":60,"Velocity":18,"Duration":142561,"SoundDuration":142561,"Delta":77375340},{"NoteNumber":64,"Velocity":18,"Duration":142561,"SoundDuration":142561,"Delta":77517902},{"NoteNumber":74,"Velocity":54,"Duration":53460,"SoundDuration":53460,"Delta":77607003},{"NoteNumber":72,"Velocity":62,"Duration":142562,"SoundDuration":142562,"Delta":77660464},{"NoteNumber":55,"Velocity":32,"Duration":142562,"SoundDuration":142562,"Delta":77660464},{"NoteNumber":71,"Velocity":50,"Duration":142561,"SoundDuration":142561,"Delta":77803026},{"NoteNumber":60,"Velocity":16,"Duration":142561,"SoundDuration":142561,"Delta":77803026},{"NoteNumber":72,"Velocity":50,"Duration":142561,"SoundDuration":142561,"Delta":77945588},{"NoteNumber":64,"Velocity":16,"Duration":142561,"SoundDuration":142561,"Delta":77945588},{"NoteNumber":76,"Velocity":64,"Duration":213842,"SoundDuration":213842,"Delta":78088150},{"NoteNumber":55,"Velocity":35,"Duration":142561,"SoundDuration":142561,"Delta":78088150},{"NoteNumber":60,"Velocity":20,"Duration":142561,"SoundDuration":142561,"Delta":78230712},{"NoteNumber":64,"Velocity":19,"Duration":142561,"SoundDuration":142561,"Delta":78373274},{"NoteNumber":76,"Velocity":61,"Duration":213842,"SoundDuration":213842,"Delta":78515836},{"NoteNumber":55,"Velocity":35,"Duration":142561,"SoundDuration":142561,"Delta":78515836},{"NoteNumber":60,"Velocity":20,"Duration":142561,"SoundDuration":142561,"Delta":78658398},{"NoteNumber":64,"Velocity":20,"Duration":165576,"SoundDuration":165576,"Delta":78800960},{"NoteNumber":73,"Velocity":65,"Duration":437031,"SoundDuration":437031,"Delta":78966536},{"NoteNumber":55,"Velocity":35,"Duration":145677,"SoundDuration":145677,"Delta":78966536},{"NoteNumber":59,"Velocity":19,"Duration":145676,"SoundDuration":145676,"Delta":79112213},{"NoteNumber":62,"Velocity":19,"Duration":145677,"SoundDuration":145677,"Delta":79257890},{"NoteNumber":74,"Velocity":63,"Duration":218515,"SoundDuration":218515,"Delta":79403567},{"NoteNumber":55,"Velocity":35,"Duration":145676,"SoundDuration":145676,"Delta":79403567},{"NoteNumber":59,"Velocity":18,"Duration":145677,"SoundDuration":145677,"Delta":79549244},{"NoteNumber":62,"Velocity":18,"Duration":145676,"SoundDuration":145676,"Delta":79694921},{"NoteNumber":55,"Velocity":29,"Duration":145677,"SoundDuration":145677,"Delta":79840598},{"NoteNumber":59,"Velocity":16,"Duration":145676,"SoundDuration":145676,"Delta":79986275},{"NoteNumber":62,"Velocity":16,"Duration":144508,"SoundDuration":144508,"Delta":80131952},{"NoteNumber":81,"Velocity":49,"Duration":53460,"SoundDuration":53460,"Delta":80223000},{"NoteNumber":79,"Velocity":57,"Duration":142561,"SoundDuration":142561,"Delta":80276461},{"NoteNumber":55,"Velocity":29,"Duration":142561,"SoundDuration":142561,"Delta":80276461},{"NoteNumber":78,"Velocity":51,"Duration":142561,"SoundDuration":142561,"Delta":80419023},{"NoteNumber":59,"Velocity":16,"Duration":142561,"SoundDuration":142561,"Delta":80419023},{"NoteNumber":79,"Velocity":51,"Duration":142561,"SoundDuration":142561,"Delta":80561585},{"NoteNumber":62,"Velocity":16,"Duration":142561,"SoundDuration":142561,"Delta":80561585},{"NoteNumber":83,"Velocity":64,"Duration":106921,"SoundDuration":106921,"Delta":80704147},{"NoteNumber":55,"Velocity":29,"Duration":142562,"SoundDuration":142562,"Delta":80704147},{"NoteNumber":61,"Velocity":20,"Duration":142561,"SoundDuration":142561,"Delta":80846709},{"NoteNumber":64,"Velocity":20,"Duration":142561,"SoundDuration":142561,"Delta":80989271},{"NoteNumber":83,"Velocity":52,"Duration":213842,"SoundDuration":213842,"Delta":81131833},{"NoteNumber":55,"Velocity":29,"Duration":142561,"SoundDuration":142561,"Delta":81131833},{"NoteNumber":61,"Velocity":20,"Duration":142561,"SoundDuration":142561,"Delta":81274395},{"NoteNumber":64,"Velocity":23,"Duration":142561,"SoundDuration":142561,"Delta":81416957},{"NoteNumber":76,"Velocity":57,"Duration":213842,"SoundDuration":213842,"Delta":81559519},{"NoteNumber":55,"Velocity":38,"Duration":142561,"SoundDuration":142561,"Delta":81559519},{"NoteNumber":61,"Velocity":25,"Duration":142562,"SoundDuration":142562,"Delta":81702081},{"NoteNumber":64,"Velocity":25,"Duration":142561,"SoundDuration":142561,"Delta":81844643},{"NoteNumber":76,"Velocity":57,"Duration":213842,"SoundDuration":213842,"Delta":81987205},{"NoteNumber":55,"Velocity":39,"Duration":142561,"SoundDuration":142561,"Delta":81987205},{"NoteNumber":61,"Velocity":25,"Duration":142561,"SoundDuration":142561,"Delta":82129767},{"NoteNumber":64,"Velocity":25,"Duration":158995,"SoundDuration":158995,"Delta":82272329},{"NoteNumber":81,"Velocity":69,"Duration":855372,"SoundDuration":855372,"Delta":82431324},{"NoteNumber":54,"Velocity":48,"Duration":142561,"SoundDuration":142561,"Delta":82431324},{"NoteNumber":57,"Velocity":26,"Duration":142561,"SoundDuration":142561,"Delta":82573886},{"NoteNumber":62,"Velocity":26,"Duration":142561,"SoundDuration":142561,"Delta":82716448},{"NoteNumber":54,"Velocity":38,"Duration":142562,"SoundDuration":142562,"Delta":82859010},{"NoteNumber":57,"Velocity":20,"Duration":142561,"SoundDuration":142561,"Delta":83001572},{"NoteNumber":62,"Velocity":20,"Duration":142561,"SoundDuration":142561,"Delta":83144134},{"NoteNumber":78,"Velocity":62,"Duration":427685,"SoundDuration":427685,"Delta":83286696},{"NoteNumber":54,"Velocity":29,"Duration":142561,"SoundDuration":142561,"Delta":83286696},{"NoteNumber":57,"Velocity":21,"Duration":142561,"SoundDuration":142561,"Delta":83429258},{"NoteNumber":62,"Velocity":20,"Duration":142561,"SoundDuration":142561,"Delta":83571820},{"NoteNumber":74,"Velocity":54,"Duration":437031,"SoundDuration":437031,"Delta":83714382},{"NoteNumber":54,"Velocity":29,"Duration":145677,"SoundDuration":145677,"Delta":83714382},{"NoteNumber":57,"Velocity":21,"Duration":145676,"SoundDuration":145676,"Delta":83860059},{"NoteNumber":62,"Velocity":21,"Duration":145677,"SoundDuration":145677,"Delta":84005736},{"NoteNumber":71,"Velocity":50,"Duration":214607,"SoundDuration":214607,"Delta":84151413},{"NoteNumber":55,"Velocity":29,"Duration":143071,"SoundDuration":143071,"Delta":84151413},{"NoteNumber":59,"Velocity":20,"Duration":143071,"SoundDuration":143071,"Delta":84294485},{"NoteNumber":64,"Velocity":20,"Duration":143071,"SoundDuration":143071,"Delta":84437557},{"NoteNumber":71,"Velocity":46,"Duration":214607,"SoundDuration":214607,"Delta":84580628},{"NoteNumber":55,"Velocity":29,"Duration":143071,"SoundDuration":143071,"Delta":84580628},{"NoteNumber":59,"Velocity":20,"Duration":143071,"SoundDuration":143071,"Delta":84723700},{"NoteNumber":64,"Velocity":20,"Duration":143071,"SoundDuration":143071,"Delta":84866772},{"NoteNumber":73,"Velocity":50,"Duration":214607,"SoundDuration":214607,"Delta":85009843},{"NoteNumber":57,"Velocity":31,"Duration":143071,"SoundDuration":143071,"Delta":85009843},{"NoteNumber":64,"Velocity":21,"Duration":143071,"SoundDuration":143071,"Delta":85152915},{"NoteNumber":67,"Velocity":20,"Duration":143071,"SoundDuration":143071,"Delta":85295987},{"NoteNumber":74,"Velocity":46,"Duration":53651,"SoundDuration":53651,"Delta":85385406},{"NoteNumber":73,"Velocity":51,"Duration":146209,"SoundDuration":146209,"Delta":85439058},{"NoteNumber":57,"Velocity":33,"Duration":146209,"SoundDuration":146209,"Delta":85439058},{"NoteNumber":71,"Velocity":46,"Duration":146209,"SoundDuration":146209,"Delta":85585268},{"NoteNumber":64,"Velocity":24,"Duration":146209,"SoundDuration":146209,"Delta":85585268},{"NoteNumber":73,"Velocity":46,"Duration":155896,"SoundDuration":155896,"Delta":85731478},{"NoteNumber":67,"Velocity":24,"Duration":155896,"SoundDuration":155896,"Delta":85731478},{"NoteNumber":74,"Velocity":47,"Duration":146209,"SoundDuration":146209,"Delta":85887374},{"NoteNumber":66,"Velocity":33,"Duration":109657,"SoundDuration":109657,"Delta":85887374},{"NoteNumber":62,"Velocity":28,"Duration":109657,"SoundDuration":109657,"Delta":85887374},{"NoteNumber":78,"Velocity":50,"Duration":146209,"SoundDuration":146209,"Delta":86033584},{"NoteNumber":81,"Velocity":52,"Duration":146209,"SoundDuration":146209,"Delta":86179794},{"NoteNumber":86,"Velocity":54,"Duration":142055,"SoundDuration":142055,"Delta":86326003},{"NoteNumber":85,"Velocity":49,"Duration":142055,"SoundDuration":142055,"Delta":86468059},{"NoteNumber":83,"Velocity":49,"Duration":142055,"SoundDuration":142055,"Delta":86610115},{"NoteNumber":81,"Velocity":51,"Duration":142055,"SoundDuration":142055,"Delta":86752170},{"NoteNumber":79,"Velocity":48,"Duration":142055,"SoundDuration":142055,"Delta":86894226},{"NoteNumber":78,"Velocity":48,"Duration":142055,"SoundDuration":142055,"Delta":87036282},{"NoteNumber":76,"Velocity":51,"Duration":142055,"SoundDuration":142055,"Delta":87178337},{"NoteNumber":74,"Velocity":46,"Duration":142055,"SoundDuration":142055,"Delta":87320393},{"NoteNumber":73,"Velocity":46,"Duration":153503,"SoundDuration":153503,"Delta":87462449},{"NoteNumber":71,"Velocity":46,"Duration":143585,"SoundDuration":143585,"Delta":87615952},{"NoteNumber":62,"Velocity":28,"Duration":107688,"SoundDuration":107688,"Delta":87615952},{"NoteNumber":67,"Velocity":33,"Duration":107688,"SoundDuration":107688,"Delta":87615952},{"NoteNumber":83,"Velocity":51,"Duration":143585,"SoundDuration":143585,"Delta":87759538},{"NoteNumber":81,"Velocity":46,"Duration":143585,"SoundDuration":143585,"Delta":87903123},{"NoteNumber":79,"Velocity":50,"Duration":143585,"SoundDuration":143585,"Delta":88046708},{"NoteNumber":67,"Velocity":29,"Duration":107688,"SoundDuration":107688,"Delta":88046708},{"NoteNumber":62,"Velocity":24,"Duration":107688,"SoundDuration":107688,"Delta":88046708},{"NoteNumber":78,"Velocity":48,"Duration":143585,"SoundDuration":143585,"Delta":88190294},{"NoteNumber":76,"Velocity":48,"Duration":151183,"SoundDuration":151183,"Delta":88333879},{"NoteNumber":74,"Velocity":49,"Duration":143585,"SoundDuration":143585,"Delta":88485062},{"NoteNumber":64,"Velocity":30,"Duration":107688,"SoundDuration":107688,"Delta":88485062},{"NoteNumber":62,"Velocity":25,"Duration":107688,"SoundDuration":107688,"Delta":88485062},{"NoteNumber":73,"Velocity":46,"Duration":143585,"SoundDuration":143585,"Delta":88628647},{"NoteNumber":71,"Velocity":46,"Duration":143585,"SoundDuration":143585,"Delta":88772233},{"NoteNumber":69,"Velocity":47,"Duration":143585,"SoundDuration":143585,"Delta":88915818},{"NoteNumber":64,"Velocity":30,"Duration":107688,"SoundDuration":107688,"Delta":88915818},{"NoteNumber":62,"Velocity":25,"Duration":107688,"SoundDuration":107688,"Delta":88915818},{"NoteNumber":71,"Velocity":45,"Duration":143585,"SoundDuration":143585,"Delta":89059403},{"NoteNumber":73,"Velocity":45,"Duration":150613,"SoundDuration":150613,"Delta":89202989},{"NoteNumber":74,"Velocity":47,"Duration":146209,"SoundDuration":146209,"Delta":89353602},{"NoteNumber":66,"Velocity":33,"Duration":109657,"SoundDuration":109657,"Delta":89353602},{"NoteNumber":62,"Velocity":28,"Duration":109657,"SoundDuration":109657,"Delta":89353602},{"NoteNumber":78,"Velocity":50,"Duration":146209,"SoundDuration":146209,"Delta":89499812},{"NoteNumber":81,"Velocity":52,"Duration":146209,"SoundDuration":146209,"Delta":89646022},{"NoteNumber":86,"Velocity":54,"Duration":142055,"SoundDuration":142055,"Delta":89792231},{"NoteNumber":85,"Velocity":49,"Duration":142055,"SoundDuration":142055,"Delta":89934287},{"NoteNumber":83,"Velocity":49,"Duration":142055,"SoundDuration":142055,"Delta":90076343},{"NoteNumber":81,"Velocity":51,"Duration":142055,"SoundDuration":142055,"Delta":90218398},{"NoteNumber":79,"Velocity":48,"Duration":142055,"SoundDuration":142055,"Delta":90360454},{"NoteNumber":78,"Velocity":48,"Duration":142055,"SoundDuration":142055,"Delta":90502510},{"NoteNumber":76,"Velocity":51,"Duration":142055,"SoundDuration":142055,"Delta":90644565},{"NoteNumber":74,"Velocity":46,"Duration":142055,"SoundDuration":142055,"Delta":90786621},{"NoteNumber":73,"Velocity":46,"Duration":153503,"SoundDuration":153503,"Delta":90928677},{"NoteNumber":71,"Velocity":46,"Duration":143585,"SoundDuration":143585,"Delta":91082180},{"NoteNumber":62,"Velocity":28,"Duration":107688,"SoundDuration":107688,"Delta":91082180},{"NoteNumber":67,"Velocity":33,"Duration":107688,"SoundDuration":107688,"Delta":91082180},{"NoteNumber":83,"Velocity":51,"Duration":143585,"SoundDuration":143585,"Delta":91225766},{"NoteNumber":81,"Velocity":46,"Duration":143585,"SoundDuration":143585,"Delta":91369351},{"NoteNumber":79,"Velocity":50,"Duration":143585,"SoundDuration":143585,"Delta":91512936},{"NoteNumber":67,"Velocity":29,"Duration":107688,"SoundDuration":107688,"Delta":91512936},{"NoteNumber":62,"Velocity":24,"Duration":107688,"SoundDuration":107688,"Delta":91512936},{"NoteNumber":78,"Velocity":48,"Duration":143585,"SoundDuration":143585,"Delta":91656522},{"NoteNumber":76,"Velocity":48,"Duration":151183,"SoundDuration":151183,"Delta":91800107},{"NoteNumber":74,"Velocity":49,"Duration":143585,"SoundDuration":143585,"Delta":91951290},{"NoteNumber":64,"Velocity":30,"Duration":107688,"SoundDuration":107688,"Delta":91951290},{"NoteNumber":62,"Velocity":25,"Duration":107688,"SoundDuration":107688,"Delta":91951290},{"NoteNumber":73,"Velocity":46,"Duration":143585,"SoundDuration":143585,"Delta":92094875},{"NoteNumber":71,"Velocity":46,"Duration":143585,"SoundDuration":143585,"Delta":92238461},{"NoteNumber":69,"Velocity":47,"Duration":143585,"SoundDuration":143585,"Delta":92382046},{"NoteNumber":64,"Velocity":30,"Duration":107688,"SoundDuration":107688,"Delta":92382046},{"NoteNumber":62,"Velocity":25,"Duration":107688,"SoundDuration":107688,"Delta":92382046},{"NoteNumber":71,"Velocity":45,"Duration":143585,"SoundDuration":143585,"Delta":92525631},{"NoteNumber":73,"Velocity":45,"Duration":150613,"SoundDuration":150613,"Delta":92669217},{"NoteNumber":74,"Velocity":47,"Duration":145677,"SoundDuration":145677,"Delta":92819830},{"NoteNumber":62,"Velocity":28,"Duration":109257,"SoundDuration":109257,"Delta":92819830},{"NoteNumber":66,"Velocity":33,"Duration":109257,"SoundDuration":109257,"Delta":92819830},{"NoteNumber":76,"Velocity":42,"Duration":145676,"SoundDuration":145676,"Delta":92965507},{"NoteNumber":78,"Velocity":42,"Duration":145677,"SoundDuration":145677,"Delta":93111184},{"NoteNumber":74,"Velocity":47,"Duration":145676,"SoundDuration":145676,"Delta":93256861},{"NoteNumber":76,"Velocity":43,"Duration":145677,"SoundDuration":145677,"Delta":93402538},{"NoteNumber":78,"Velocity":47,"Duration":145676,"SoundDuration":145676,"Delta":93548215},{"NoteNumber":74,"Velocity":54,"Duration":147017,"SoundDuration":147017,"Delta":93693892},{"NoteNumber":42,"Velocity":32,"Duration":220122,"SoundDuration":220122,"Delta":93693892},{"NoteNumber":54,"Velocity":36,"Duration":220122,"SoundDuration":220122,"Delta":93693892},{"NoteNumber":76,"Velocity":48,"Duration":146209,"SoundDuration":146209,"Delta":93840909},{"NoteNumber":78,"Velocity":48,"Duration":146209,"SoundDuration":146209,"Delta":93987119},{"NoteNumber":74,"Velocity":56,"Duration":146209,"SoundDuration":146209,"Delta":94133329},{"NoteNumber":42,"Velocity":33,"Duration":219314,"SoundDuration":219314,"Delta":94133329},{"NoteNumber":54,"Velocity":38,"Duration":219314,"SoundDuration":219314,"Delta":94133329},{"NoteNumber":76,"Velocity":52,"Duration":146209,"SoundDuration":146209,"Delta":94279538},{"NoteNumber":78,"Velocity":52,"Duration":146209,"SoundDuration":146209,"Delta":94425748},{"NoteNumber":74,"Velocity":60,"Duration":147830,"SoundDuration":147830,"Delta":94571958},{"NoteNumber":43,"Velocity":36,"Duration":221745,"SoundDuration":221745,"Delta":94571958},{"NoteNumber":55,"Velocity":41,"Duration":221745,"SoundDuration":221745,"Delta":94571958},{"NoteNumber":76,"Velocity":52,"Duration":147830,"SoundDuration":147830,"Delta":94719788},{"NoteNumber":78,"Velocity":57,"Duration":147830,"SoundDuration":147830,"Delta":94867619},{"NoteNumber":74,"Velocity":64,"Duration":147830,"SoundDuration":147830,"Delta":95015450},{"NoteNumber":43,"Velocity":38,"Duration":221745,"SoundDuration":221745,"Delta":95015450},{"NoteNumber":55,"Velocity":44,"Duration":221745,"SoundDuration":221745,"Delta":95015450},{"NoteNumber":76,"Velocity":58,"Duration":147830,"SoundDuration":147830,"Delta":95163280},{"NoteNumber":78,"Velocity":61,"Duration":147830,"SoundDuration":147830,"Delta":95311111},{"NoteNumber":74,"Velocity":68,"Duration":148845,"SoundDuration":148845,"Delta":95458942},{"NoteNumber":44,"Velocity":40,"Duration":223673,"SoundDuration":223673,"Delta":95458942},{"NoteNumber":56,"Velocity":46,"Duration":223673,"SoundDuration":223673,"Delta":95458942},{"NoteNumber":76,"Velocity":63,"Duration":150071,"SoundDuration":150071,"Delta":95607787},{"NoteNumber":78,"Velocity":65,"Duration":151881,"SoundDuration":151881,"Delta":95757858},{"NoteNumber":74,"Velocity":73,"Duration":153719,"SoundDuration":153719,"Delta":95909740},{"NoteNumber":44,"Velocity":42,"Duration":231260,"SoundDuration":231260,"Delta":95909740},{"NoteNumber":56,"Velocity":48,"Duration":231260,"SoundDuration":231260,"Delta":95909740},{"NoteNumber":76,"Velocity":69,"Duration":155186,"SoundDuration":155186,"Delta":96063459},{"NoteNumber":78,"Velocity":70,"Duration":172726,"SoundDuration":172726,"Delta":96218646},{"NoteNumber":74,"Velocity":75,"Duration":152917,"SoundDuration":152917,"Delta":96391372},{"NoteNumber":45,"Velocity":42,"Duration":1807209,"SoundDuration":1807209,"Delta":96391372},{"NoteNumber":57,"Velocity":48,"Duration":1807209,"SoundDuration":1807209,"Delta":96391372},{"NoteNumber":78,"Velocity":71,"Duration":152916,"SoundDuration":152916,"Delta":96544289},{"NoteNumber":81,"Velocity":68,"Duration":146746,"SoundDuration":146746,"Delta":96697206},{"NoteNumber":79,"Velocity":74,"Duration":147830,"SoundDuration":147830,"Delta":96843952},{"NoteNumber":78,"Velocity":68,"Duration":147830,"SoundDuration":147830,"Delta":96991783},{"NoteNumber":76,"Velocity":64,"Duration":147830,"SoundDuration":147830,"Delta":97139614},{"NoteNumber":74,"Velocity":71,"Duration":147830,"SoundDuration":147830,"Delta":97287444},{"NoteNumber":73,"Velocity":64,"Duration":147830,"SoundDuration":147830,"Delta":97435275},{"NoteNumber":71,"Velocity":62,"Duration":147830,"SoundDuration":147830,"Delta":97583106},{"NoteNumber":69,"Velocity":72,"Duration":147830,"SoundDuration":147830,"Delta":97730936},{"NoteNumber":67,"Velocity":67,"Duration":147830,"SoundDuration":147830,"Delta":97878767},{"NoteNumber":66,"Velocity":67,"Duration":171984,"SoundDuration":171984,"Delta":98026598},{"NoteNumber":64,"Velocity":41,"Duration":81186,"SoundDuration":81186,"Delta":98198582},{"NoteNumber":45,"Velocity":50,"Duration":162041,"SoundDuration":162041,"Delta":98198582},{"NoteNumber":66,"Velocity":39,"Duration":80855,"SoundDuration":80855,"Delta":98279768},{"NoteNumber":64,"Velocity":46,"Duration":80315,"SoundDuration":80315,"Delta":98360623},{"NoteNumber":49,"Velocity":45,"Duration":160135,"SoundDuration":160135,"Delta":98360623},{"NoteNumber":66,"Velocity":44,"Duration":79819,"SoundDuration":79819,"Delta":98440939},{"NoteNumber":64,"Velocity":49,"Duration":79324,"SoundDuration":79324,"Delta":98520759},{"NoteNumber":55,"Velocity":45,"Duration":158133,"SoundDuration":158133,"Delta":98520759},{"NoteNumber":66,"Velocity":46,"Duration":78808,"SoundDuration":78808,"Delta":98600083},{"NoteNumber":64,"Velocity":51,"Duration":78353,"SoundDuration":78353,"Delta":98678892},{"NoteNumber":45,"Velocity":51,"Duration":156184,"SoundDuration":156184,"Delta":98678892},{"NoteNumber":66,"Velocity":48,"Duration":77831,"SoundDuration":77831,"Delta":98757245},{"NoteNumber":64,"Velocity":54,"Duration":77379,"SoundDuration":77379,"Delta":98835076},{"NoteNumber":49,"Velocity":46,"Duration":154279,"SoundDuration":154279,"Delta":98835076},{"NoteNumber":66,"Velocity":49,"Duration":76899,"SoundDuration":76899,"Delta":98912456},{"NoteNumber":64,"Velocity":57,"Duration":76498,"SoundDuration":76498,"Delta":98989356},{"NoteNumber":55,"Velocity":47,"Duration":152957,"SoundDuration":152957,"Delta":98989356},{"NoteNumber":66,"Velocity":53,"Duration":76458,"SoundDuration":76458,"Delta":99065854},{"NoteNumber":64,"Velocity":56,"Duration":76458,"SoundDuration":76458,"Delta":99142313},{"NoteNumber":45,"Velocity":52,"Duration":153122,"SoundDuration":153122,"Delta":99142313},{"NoteNumber":66,"Velocity":51,"Duration":76663,"SoundDuration":76663,"Delta":99218771},{"NoteNumber":64,"Velocity":56,"Duration":76751,"SoundDuration":76751,"Delta":99295435},{"NoteNumber":49,"Velocity":48,"Duration":153503,"SoundDuration":153503,"Delta":99295435},{"NoteNumber":66,"Velocity":50,"Duration":76751,"SoundDuration":76751,"Delta":99372187},{"NoteNumber":64,"Velocity":56,"Duration":76914,"SoundDuration":76914,"Delta":99448939},{"NoteNumber":55,"Velocity":49,"Duration":153961,"SoundDuration":153961,"Delta":99448939},{"NoteNumber":66,"Velocity":51,"Duration":77047,"SoundDuration":77047,"Delta":99525853},{"NoteNumber":64,"Velocity":54,"Duration":77047,"SoundDuration":77047,"Delta":99602901},{"NoteNumber":45,"Velocity":54,"Duration":154210,"SoundDuration":154210,"Delta":99602901},{"NoteNumber":66,"Velocity":49,"Duration":77162,"SoundDuration":77162,"Delta":99679948},{"NoteNumber":64,"Velocity":53,"Duration":77744,"SoundDuration":77744,"Delta":99757111},{"NoteNumber":49,"Velocity":49,"Duration":156457,"SoundDuration":156457,"Delta":99757111},{"NoteNumber":66,"Velocity":49,"Duration":58940,"SoundDuration":58940,"Delta":99834856},{"NoteNumber":64,"Velocity":53,"Duration":59493,"SoundDuration":59493,"Delta":99893797},{"NoteNumber":55,"Velocity":50,"Duration":160418,"SoundDuration":160418,"Delta":99913569},{"NoteNumber":62,"Velocity":49,"Duration":60065,"SoundDuration":60065,"Delta":99953290},{"NoteNumber":64,"Velocity":49,"Duration":60631,"SoundDuration":60631,"Delta":100013356},{"NoteNumber":62,"Velocity":49,"Duration":143071,"SoundDuration":143071,"Delta":100073988},{"NoteNumber":54,"Velocity":59,"Duration":429214,"SoundDuration":429214,"Delta":100073988},{"NoteNumber":50,"Velocity":50,"Duration":429214,"SoundDuration":429214,"Delta":100073988},{"NoteNumber":66,"Velocity":32,"Duration":143071,"SoundDuration":143071,"Delta":100217059},{"NoteNumber":69,"Velocity":32,"Duration":143071,"SoundDuration":143071,"Delta":100360131},{"NoteNumber":66,"Velocity":48,"Duration":143071,"SoundDuration":143071,"Delta":100503203},{"NoteNumber":69,"Velocity":32,"Duration":143071,"SoundDuration":143071,"Delta":100646274},{"NoteNumber":74,"Velocity":29,"Duration":143071,"SoundDuration":143071,"Delta":100789346},{"NoteNumber":66,"Velocity":41,"Duration":143071,"SoundDuration":143071,"Delta":100932418},{"NoteNumber":69,"Velocity":28,"Duration":143071,"SoundDuration":143071,"Delta":101075489},{"NoteNumber":74,"Velocity":28,"Duration":152917,"SoundDuration":152917,"Delta":101218561},{"NoteNumber":66,"Velocity":41,"Duration":142561,"SoundDuration":142561,"Delta":101371478},{"NoteNumber":62,"Velocity":40,"Duration":213842,"SoundDuration":213842,"Delta":101371478},{"NoteNumber":69,"Velocity":29,"Duration":142561,"SoundDuration":142561,"Delta":101514040},{"NoteNumber":74,"Velocity":29,"Duration":142561,"SoundDuration":142561,"Delta":101656602},{"NoteNumber":68,"Velocity":41,"Duration":142562,"SoundDuration":142562,"Delta":101799164},{"NoteNumber":59,"Velocity":45,"Duration":213843,"SoundDuration":213843,"Delta":101799164},{"NoteNumber":71,"Velocity":29,"Duration":142561,"SoundDuration":142561,"Delta":101941726},{"NoteNumber":74,"Velocity":29,"Duration":142561,"SoundDuration":142561,"Delta":102084288},{"NoteNumber":68,"Velocity":41,"Duration":142561,"SoundDuration":142561,"Delta":102226850},{"NoteNumber":59,"Velocity":40,"Duration":213842,"SoundDuration":213842,"Delta":102226850},{"NoteNumber":71,"Velocity":29,"Duration":142561,"SoundDuration":142561,"Delta":102369412},{"NoteNumber":74,"Velocity":29,"Duration":151756,"SoundDuration":151756,"Delta":102511974},{"NoteNumber":68,"Velocity":41,"Duration":142561,"SoundDuration":142561,"Delta":102663731},{"NoteNumber":64,"Velocity":37,"Duration":213842,"SoundDuration":213842,"Delta":102663731},{"NoteNumber":71,"Velocity":29,"Duration":142561,"SoundDuration":142561,"Delta":102806293},{"NoteNumber":74,"Velocity":29,"Duration":142561,"SoundDuration":142561,"Delta":102948855},{"NoteNumber":68,"Velocity":41,"Duration":142562,"SoundDuration":142562,"Delta":103091417},{"NoteNumber":64,"Velocity":40,"Duration":213843,"SoundDuration":213843,"Delta":103091417},{"NoteNumber":71,"Velocity":30,"Duration":142561,"SoundDuration":142561,"Delta":103233979},{"NoteNumber":74,"Velocity":30,"Duration":162879,"SoundDuration":162879,"Delta":103376541},{"NoteNumber":67,"Velocity":41,"Duration":142561,"SoundDuration":142561,"Delta":103539420},{"NoteNumber":57,"Velocity":45,"Duration":865726,"SoundDuration":865726,"Delta":103539420},{"NoteNumber":69,"Velocity":29,"Duration":142561,"SoundDuration":142561,"Delta":103681982},{"NoteNumber":73,"Velocity":29,"Duration":142561,"SoundDuration":142561,"Delta":103824544},{"NoteNumber":67,"Velocity":41,"Duration":142562,"SoundDuration":142562,"Delta":103967106},{"NoteNumber":69,"Velocity":29,"Duration":142561,"SoundDuration":142561,"Delta":104109668},{"NoteNumber":73,"Velocity":29,"Duration":152917,"SoundDuration":152917,"Delta":104252230},{"NoteNumber":66,"Velocity":41,"Duration":142561,"SoundDuration":142561,"Delta":104405147},{"NoteNumber":62,"Velocity":37,"Duration":213842,"SoundDuration":213842,"Delta":104405147},{"NoteNumber":69,"Velocity":29,"Duration":142561,"SoundDuration":142561,"Delta":104547709},{"NoteNumber":74,"Velocity":29,"Duration":142561,"SoundDuration":142561,"Delta":104690271},{"NoteNumber":66,"Velocity":41,"Duration":142562,"SoundDuration":142562,"Delta":104832833},{"NoteNumber":62,"Velocity":40,"Duration":213843,"SoundDuration":213843,"Delta":104832833},{"NoteNumber":69,"Velocity":30,"Duration":142561,"SoundDuration":142561,"Delta":104975395},{"NoteNumber":74,"Velocity":30,"Duration":158995,"SoundDuration":158995,"Delta":105117957},{"NoteNumber":64,"Velocity":41,"Duration":142055,"SoundDuration":142055,"Delta":105276952},{"NoteNumber":55,"Velocity":45,"Duration":213083,"SoundDuration":213083,"Delta":105276952},{"NoteNumber":67,"Velocity":29,"Duration":142055,"SoundDuration":142055,"Delta":105419008},{"NoteNumber":71,"Velocity":29,"Duration":142055,"SoundDuration":142055,"Delta":105561064},{"NoteNumber":64,"Velocity":41,"Duration":142055,"SoundDuration":142055,"Delta":105703119},{"NoteNumber":55,"Velocity":40,"Duration":213083,"SoundDuration":213083,"Delta":105703119},{"NoteNumber":67,"Velocity":29,"Duration":142055,"SoundDuration":142055,"Delta":105845175},{"NoteNumber":71,"Velocity":29,"Duration":157121,"SoundDuration":157121,"Delta":105987231},{"NoteNumber":61,"Velocity":41,"Duration":142561,"SoundDuration":142561,"Delta":106144352},{"NoteNumber":57,"Velocity":37,"Duration":213842,"SoundDuration":213842,"Delta":106144352},{"NoteNumber":64,"Velocity":29,"Duration":142561,"SoundDuration":142561,"Delta":106286914},{"NoteNumber":69,"Velocity":29,"Duration":142561,"SoundDuration":142561,"Delta":106429476},{"NoteNumber":61,"Velocity":41,"Duration":142562,"SoundDuration":142562,"Delta":106572038},{"NoteNumber":57,"Velocity":40,"Duration":213843,"SoundDuration":213843,"Delta":106572038},{"NoteNumber":64,"Velocity":30,"Duration":142561,"SoundDuration":142561,"Delta":106714600},{"NoteNumber":69,"Velocity":30,"Duration":161563,"SoundDuration":161563,"Delta":106857162},{"NoteNumber":62,"Velocity":49,"Duration":143071,"SoundDuration":143071,"Delta":107018726},{"NoteNumber":54,"Velocity":50,"Duration":429214,"SoundDuration":429214,"Delta":107018726},{"NoteNumber":50,"Velocity":42,"Duration":429214,"SoundDuration":429214,"Delta":107018726},{"NoteNumber":66,"Velocity":30,"Duration":143071,"SoundDuration":143071,"Delta":107161798},{"NoteNumber":69,"Velocity":30,"Duration":143071,"SoundDuration":143071,"Delta":107304870},{"NoteNumber":66,"Velocity":46,"Duration":143071,"SoundDuration":143071,"Delta":107447941},{"NoteNumber":69,"Velocity":30,"Duration":143071,"SoundDuration":143071,"Delta":107591013},{"NoteNumber":74,"Velocity":30,"Duration":143071,"SoundDuration":143071,"Delta":107734085},{"NoteNumber":66,"Velocity":41,"Duration":143071,"SoundDuration":143071,"Delta":107877156},{"NoteNumber":69,"Velocity":28,"Duration":143071,"SoundDuration":143071,"Delta":108020228},{"NoteNumber":74,"Velocity":28,"Duration":152917,"SoundDuration":152917,"Delta":108163300},{"NoteNumber":66,"Velocity":45,"Duration":142561,"SoundDuration":142561,"Delta":108316217},{"NoteNumber":50,"Velocity":44,"Duration":213842,"SoundDuration":213842,"Delta":108316217},{"NoteNumber":69,"Velocity":32,"Duration":142561,"SoundDuration":142561,"Delta":108458779},{"NoteNumber":74,"Velocity":32,"Duration":142561,"SoundDuration":142561,"Delta":108601341},{"NoteNumber":68,"Velocity":46,"Duration":142562,"SoundDuration":142562,"Delta":108743903},{"NoteNumber":47,"Velocity":50,"Duration":213843,"SoundDuration":213843,"Delta":108743903},{"NoteNumber":71,"Velocity":33,"Duration":142561,"SoundDuration":142561,"Delta":108886465},{"NoteNumber":74,"Velocity":33,"Duration":142561,"SoundDuration":142561,"Delta":109029027},{"NoteNumber":68,"Velocity":47,"Duration":142561,"SoundDuration":142561,"Delta":109171589},{"NoteNumber":47,"Velocity":46,"Duration":213842,"SoundDuration":213842,"Delta":109171589},{"NoteNumber":71,"Velocity":34,"Duration":142561,"SoundDuration":142561,"Delta":109314151},{"NoteNumber":74,"Velocity":34,"Duration":151756,"SoundDuration":151756,"Delta":109456713},{"NoteNumber":68,"Velocity":49,"Duration":142561,"SoundDuration":142561,"Delta":109608469},{"NoteNumber":52,"Velocity":45,"Duration":213842,"SoundDuration":213842,"Delta":109608469},{"NoteNumber":71,"Velocity":36,"Duration":142561,"SoundDuration":142561,"Delta":109751031},{"NoteNumber":74,"Velocity":36,"Duration":142561,"SoundDuration":142561,"Delta":109893593},{"NoteNumber":68,"Velocity":52,"Duration":142562,"SoundDuration":142562,"Delta":110036155},{"NoteNumber":52,"Velocity":50,"Duration":213843,"SoundDuration":213843,"Delta":110036155},{"NoteNumber":71,"Velocity":38,"Duration":142561,"SoundDuration":142561,"Delta":110178717},{"NoteNumber":74,"Velocity":39,"Duration":162879,"SoundDuration":162879,"Delta":110321279},{"NoteNumber":67,"Velocity":54,"Duration":142561,"SoundDuration":142561,"Delta":110484159},{"NoteNumber":45,"Velocity":59,"Duration":865726,"SoundDuration":865726,"Delta":110484159},{"NoteNumber":69,"Velocity":39,"Duration":142561,"SoundDuration":142561,"Delta":110626721},{"NoteNumber":73,"Velocity":39,"Duration":142561,"SoundDuration":142561,"Delta":110769283},{"NoteNumber":67,"Velocity":55,"Duration":142562,"SoundDuration":142562,"Delta":110911845},{"NoteNumber":69,"Velocity":39,"Duration":142561,"SoundDuration":142561,"Delta":111054407},{"NoteNumber":73,"Velocity":40,"Duration":152916,"SoundDuration":152916,"Delta":111196969},{"NoteNumber":66,"Velocity":56,"Duration":142561,"SoundDuration":142561,"Delta":111349886},{"NoteNumber":50,"Velocity":50,"Duration":213842,"SoundDuration":213842,"Delta":111349886},{"NoteNumber":69,"Velocity":40,"Duration":142561,"SoundDuration":142561,"Delta":111492448},{"NoteNumber":74,"Velocity":41,"Duration":142561,"SoundDuration":142561,"Delta":111635010},{"NoteNumber":66,"Velocity":58,"Duration":142562,"SoundDuration":142562,"Delta":111777572},{"NoteNumber":50,"Velocity":57,"Duration":213843,"SoundDuration":213843,"Delta":111777572},{"NoteNumber":69,"Velocity":43,"Duration":142561,"SoundDuration":142561,"Delta":111920134},{"NoteNumber":74,"Velocity":44,"Duration":158994,"SoundDuration":158994,"Delta":112062696},{"NoteNumber":64,"Velocity":63,"Duration":142055,"SoundDuration":142055,"Delta":112221691},{"NoteNumber":55,"Velocity":68,"Duration":213083,"SoundDuration":213083,"Delta":112221691},{"NoteNumber":43,"Velocity":57,"Duration":213083,"SoundDuration":213083,"Delta":112221691},{"NoteNumber":67,"Velocity":44,"Duration":142055,"SoundDuration":142055,"Delta":112363747},{"NoteNumber":71,"Velocity":45,"Duration":142055,"SoundDuration":142055,"Delta":112505802},{"NoteNumber":64,"Velocity":64,"Duration":142055,"SoundDuration":142055,"Delta":112647858},{"NoteNumber":55,"Velocity":63,"Duration":213083,"SoundDuration":213083,"Delta":112647858},{"NoteNumber":43,"Velocity":52,"Duration":213083,"SoundDuration":213083,"Delta":112647858},{"NoteNumber":67,"Velocity":45,"Duration":142055,"SoundDuration":142055,"Delta":112789914},{"NoteNumber":71,"Velocity":46,"Duration":157121,"SoundDuration":157121,"Delta":112931969},{"NoteNumber":61,"Velocity":64,"Duration":142561,"SoundDuration":142561,"Delta":113089091},{"NoteNumber":57,"Velocity":58,"Duration":213842,"SoundDuration":213842,"Delta":113089091},{"NoteNumber":45,"Velocity":48,"Duration":213842,"SoundDuration":213842,"Delta":113089091},{"NoteNumber":64,"Velocity":46,"Duration":142561,"SoundDuration":142561,"Delta":113231653},{"NoteNumber":69,"Velocity":46,"Duration":142561,"SoundDuration":142561,"Delta":113374215},{"NoteNumber":61,"Velocity":66,"Duration":142562,"SoundDuration":142562,"Delta":113516777},{"NoteNumber":57,"Velocity":64,"Duration":213843,"SoundDuration":213843,"Delta":113516777},{"NoteNumber":45,"Velocity":54,"Duration":213843,"SoundDuration":213843,"Delta":113516777},{"NoteNumber":64,"Velocity":48,"Duration":142561,"SoundDuration":142561,"Delta":113659339},{"NoteNumber":69,"Velocity":48,"Duration":161563,"SoundDuration":161563,"Delta":113801901},{"NoteNumber":62,"Velocity":70,"Duration":427685,"SoundDuration":427685,"Delta":113963465},{"NoteNumber":50,"Velocity":56,"Duration":142561,"SoundDuration":142561,"Delta":113963465},{"NoteNumber":54,"Velocity":48,"Duration":142561,"SoundDuration":142561,"Delta":114106027},{"NoteNumber":57,"Velocity":47,"Duration":142561,"SoundDuration":142561,"Delta":114248589},{"NoteNumber":50,"Velocity":56,"Duration":142562,"SoundDuration":142562,"Delta":114391151},{"NoteNumber":54,"Velocity":48,"Duration":142561,"SoundDuration":142561,"Delta":114533713},{"NoteNumber":57,"Velocity":48,"Duration":142561,"SoundDuration":142561,"Delta":114676275},{"NoteNumber":50,"Velocity":56,"Duration":142561,"SoundDuration":142561,"Delta":114818837},{"NoteNumber":54,"Velocity":49,"Duration":142561,"SoundDuration":142561,"Delta":114961399},{"NoteNumber":57,"Velocity":49,"Duration":142561,"SoundDuration":142561,"Delta":115103961},{"NoteNumber":71,"Velocity":65,"Duration":53460,"SoundDuration":53460,"Delta":115193062},{"NoteNumber":69,"Velocity":70,"Duration":146209,"SoundDuration":146209,"Delta":115246523},{"NoteNumber":49,"Velocity":56,"Duration":146209,"SoundDuration":146209,"Delta":115246523},{"NoteNumber":68,"Velocity":66,"Duration":146209,"SoundDuration":146209,"Delta":115392733},{"NoteNumber":52,"Velocity":48,"Duration":146209,"SoundDuration":146209,"Delta":115392733},{"NoteNumber":69,"Velocity":66,"Duration":160913,"SoundDuration":160913,"Delta":115538942},{"NoteNumber":57,"Velocity":49,"Duration":160913,"SoundDuration":160913,"Delta":115538942},{"NoteNumber":66,"Velocity":70,"Duration":213842,"SoundDuration":213842,"Delta":115699856},{"NoteNumber":74,"Velocity":76,"Duration":213842,"SoundDuration":213842,"Delta":115699856},{"NoteNumber":50,"Velocity":56,"Duration":142561,"SoundDuration":142561,"Delta":115699856},{"NoteNumber":54,"Velocity":49,"Duration":142561,"SoundDuration":142561,"Delta":115842418},{"NoteNumber":57,"Velocity":49,"Duration":142561,"SoundDuration":142561,"Delta":115984980},{"NoteNumber":50,"Velocity":56,"Duration":142562,"SoundDuration":142562,"Delta":116127542},{"NoteNumber":54,"Velocity":49,"Duration":142561,"SoundDuration":142561,"Delta":116270104},{"NoteNumber":57,"Velocity":49,"Duration":142561,"SoundDuration":142561,"Delta":116412666},{"NoteNumber":50,"Velocity":56,"Duration":142561,"SoundDuration":142561,"Delta":116555228},{"NoteNumber":54,"Velocity":50,"Duration":142561,"SoundDuration":142561,"Delta":116697790},{"NoteNumber":57,"Velocity":50,"Duration":142561,"SoundDuration":142561,"Delta":116840352},{"NoteNumber":71,"Velocity":65,"Duration":53460,"SoundDuration":53460,"Delta":116929454},{"NoteNumber":69,"Velocity":70,"Duration":145148,"SoundDuration":145148,"Delta":116982914},{"NoteNumber":49,"Velocity":56,"Duration":145148,"SoundDuration":145148,"Delta":116982914},{"NoteNumber":68,"Velocity":66,"Duration":145148,"SoundDuration":145148,"Delta":117128063},{"NoteNumber":52,"Velocity":49,"Duration":145148,"SoundDuration":145148,"Delta":117128063},{"NoteNumber":69,"Velocity":66,"Duration":163545,"SoundDuration":163545,"Delta":117273211},{"NoteNumber":57,"Velocity":49,"Duration":163545,"SoundDuration":163545,"Delta":117273211},{"NoteNumber":66,"Velocity":70,"Duration":230255,"SoundDuration":230255,"Delta":117436757},{"NoteNumber":74,"Velocity":76,"Duration":230255,"SoundDuration":230255,"Delta":117436757},{"NoteNumber":50,"Velocity":56,"Duration":153503,"SoundDuration":153503,"Delta":117436757},{"NoteNumber":54,"Velocity":50,"Duration":153503,"SoundDuration":153503,"Delta":117590260},{"NoteNumber":57,"Velocity":50,"Duration":153503,"SoundDuration":153503,"Delta":117743764},{"NoteNumber":50,"Velocity":56,"Duration":158995,"SoundDuration":158995,"Delta":117897268},{"NoteNumber":54,"Velocity":49,"Duration":158995,"SoundDuration":158995,"Delta":118056263},{"NoteNumber":57,"Velocity":49,"Duration":178110,"SoundDuration":178110,"Delta":118215258},{"NoteNumber":50,"Velocity":56,"Duration":507615,"SoundDuration":507615,"Delta":118393368},{"NoteNumber":76,"Velocity":43,"Duration":53460,"SoundDuration":53460,"Delta":118847523},{"NoteNumber":74,"Velocity":50,"Duration":142561,"SoundDuration":142561,"Delta":118900984},{"NoteNumber":73,"Velocity":45,"Duration":142561,"SoundDuration":142561,"Delta":119043546},{"NoteNumber":74,"Velocity":45,"Duration":142561,"SoundDuration":142561,"Delta":119186108},{"NoteNumber":81,"Velocity":50,"Duration":106921,"SoundDuration":106921,"Delta":119328670},{"NoteNumber":60,"Velocity":29,"Duration":142562,"SoundDuration":142562,"Delta":119328670},{"NoteNumber":66,"Velocity":20,"Duration":142561,"SoundDuration":142561,"Delta":119471232},{"NoteNumber":69,"Velocity":20,"Duration":142561,"SoundDuration":142561,"Delta":119613794},{"NoteNumber":81,"Velocity":46,"Duration":427685,"SoundDuration":427685,"Delta":119756356},{"NoteNumber":60,"Velocity":29,"Duration":142561,"SoundDuration":142561,"Delta":119756356},{"NoteNumber":66,"Velocity":20,"Duration":142561,"SoundDuration":142561,"Delta":119898918},{"NoteNumber":69,"Velocity":20,"Duration":142561,"SoundDuration":142561,"Delta":120041480},{"NoteNumber":78,"Velocity":50,"Duration":427686,"SoundDuration":427686,"Delta":120184042},{"NoteNumber":60,"Velocity":29,"Duration":142561,"SoundDuration":142561,"Delta":120184042},{"NoteNumber":66,"Velocity":21,"Duration":142562,"SoundDuration":142562,"Delta":120326604},{"NoteNumber":69,"Velocity":26,"Duration":142561,"SoundDuration":142561,"Delta":120469166},{"NoteNumber":74,"Velocity":50,"Duration":444119,"SoundDuration":444119,"Delta":120611728},{"NoteNumber":60,"Velocity":29,"Duration":142561,"SoundDuration":142561,"Delta":120611728},{"NoteNumber":66,"Velocity":21,"Duration":142562,"SoundDuration":142562,"Delta":120754290},{"NoteNumber":69,"Velocity":21,"Duration":158994,"SoundDuration":158994,"Delta":120896852},{"NoteNumber":86,"Velocity":62,"Duration":855372,"SoundDuration":855372,"Delta":121055847},{"NoteNumber":58,"Velocity":29,"Duration":142561,"SoundDuration":142561,"Delta":121055847},{"NoteNumber":62,"Velocity":20,"Duration":142561,"SoundDuration":142561,"Delta":121198409},{"NoteNumber":67,"Velocity":20,"Duration":142561,"SoundDuration":142561,"Delta":121340971},{"NoteNumber":58,"Velocity":29,"Duration":142562,"SoundDuration":142562,"Delta":121483533},{"NoteNumber":62,"Velocity":20,"Duration":142561,"SoundDuration":142561,"Delta":121626095},{"NoteNumber":67,"Velocity":20,"Duration":142561,"SoundDuration":142561,"Delta":121768657},{"NoteNumber":82,"Velocity":50,"Duration":213842,"SoundDuration":213842,"Delta":121911219},{"NoteNumber":58,"Velocity":29,"Duration":142561,"SoundDuration":142561,"Delta":121911219},{"NoteNumber":62,"Velocity":21,"Duration":142561,"SoundDuration":142561,"Delta":122053781},{"NoteNumber":67,"Velocity":20,"Duration":142561,"SoundDuration":142561,"Delta":122196343},{"NoteNumber":79,"Velocity":47,"Duration":218515,"SoundDuration":218515,"Delta":122338905},{"NoteNumber":58,"Velocity":29,"Duration":145677,"SoundDuration":145677,"Delta":122338905},{"NoteNumber":62,"Velocity":21,"Duration":145676,"SoundDuration":145676,"Delta":122484582},{"NoteNumber":67,"Velocity":21,"Duration":145677,"SoundDuration":145677,"Delta":122630259},{"NoteNumber":78,"Velocity":62,"Duration":213842,"SoundDuration":213842,"Delta":122775936},{"NoteNumber":57,"Velocity":33,"Duration":142561,"SoundDuration":142561,"Delta":122775936},{"NoteNumber":60,"Velocity":23,"Duration":142561,"SoundDuration":142561,"Delta":122918498},{"NoteNumber":62,"Velocity":23,"Duration":142561,"SoundDuration":142561,"Delta":123061060},{"NoteNumber":79,"Velocity":54,"Duration":53460,"SoundDuration":53460,"Delta":123150161},{"NoteNumber":78,"Velocity":62,"Duration":142562,"SoundDuration":142562,"Delta":123203622},{"NoteNumber":57,"Velocity":32,"Duration":142562,"SoundDuration":142562,"Delta":123203622},{"NoteNumber":76,"Velocity":50,"Duration":142561,"SoundDuration":142561,"Delta":123346184},{"NoteNumber":60,"Velocity":20,"Duration":142561,"SoundDuration":142561,"Delta":123346184},{"NoteNumber":78,"Velocity":50,"Duration":142561,"SoundDuration":142561,"Delta":123488746},{"NoteNumber":62,"Velocity":21,"Duration":142561,"SoundDuration":142561,"Delta":123488746},{"NoteNumber":79,"Velocity":64,"Duration":213842,"SoundDuration":213842,"Delta":123631308},{"NoteNumber":55,"Velocity":35,"Duration":142561,"SoundDuration":142561,"Delta":123631308},{"NoteNumber":58,"Velocity":25,"Duration":142561,"SoundDuration":142561,"Delta":123773870},{"NoteNumber":62,"Velocity":24,"Duration":142561,"SoundDuration":142561,"Delta":123916432},{"NoteNumber":75,"Velocity":61,"Duration":213842,"SoundDuration":213842,"Delta":124058994},{"NoteNumber":55,"Velocity":35,"Duration":142561,"SoundDuration":142561,"Delta":124058994},{"NoteNumber":58,"Velocity":25,"Duration":142562,"SoundDuration":142562,"Delta":124201556},{"NoteNumber":62,"Velocity":25,"Duration":165576,"SoundDuration":165576,"Delta":124344118},{"NoteNumber":73,"Velocity":65,"Duration":448464,"SoundDuration":448464,"Delta":124509695},{"NoteNumber":54,"Velocity":35,"Duration":149488,"SoundDuration":149488,"Delta":124509695},{"NoteNumber":57,"Velocity":24,"Duration":149487,"SoundDuration":149487,"Delta":124659183},{"NoteNumber":62,"Velocity":24,"Duration":149488,"SoundDuration":149488,"Delta":124808671},{"NoteNumber":74,"Velocity":63,"Duration":653167,"SoundDuration":653167,"Delta":124958159},{"NoteNumber":54,"Velocity":35,"Duration":145148,"SoundDuration":145148,"Delta":124958159},{"NoteNumber":57,"Velocity":23,"Duration":145148,"SoundDuration":145148,"Delta":125103307},{"NoteNumber":62,"Velocity":23,"Duration":145148,"SoundDuration":145148,"Delta":125248455},{"NoteNumber":54,"Velocity":29,"Duration":145148,"SoundDuration":145148,"Delta":125393604},{"NoteNumber":57,"Velocity":20,"Duration":145148,"SoundDuration":145148,"Delta":125538752},{"NoteNumber":62,"Velocity":20,"Duration":144178,"SoundDuration":144178,"Delta":125683900},{"NoteNumber":75,"Velocity":43,"Duration":53460,"SoundDuration":53460,"Delta":125774618},{"NoteNumber":74,"Velocity":50,"Duration":142561,"SoundDuration":142561,"Delta":125828079},{"NoteNumber":54,"Velocity":29,"Duration":142561,"SoundDuration":142561,"Delta":125828079},{"NoteNumber":73,"Velocity":45,"Duration":142561,"SoundDuration":142561,"Delta":125970641},{"NoteNumber":57,"Velocity":21,"Duration":142561,"SoundDuration":142561,"Delta":125970641},{"NoteNumber":74,"Velocity":45,"Duration":142561,"SoundDuration":142561,"Delta":126113203},{"NoteNumber":62,"Velocity":21,"Duration":142561,"SoundDuration":142561,"Delta":126113203},{"NoteNumber":75,"Velocity":50,"Duration":213843,"SoundDuration":213843,"Delta":126255765},{"NoteNumber":53,"Velocity":36,"Duration":142562,"SoundDuration":142562,"Delta":126255765},{"NoteNumber":57,"Velocity":24,"Duration":142561,"SoundDuration":142561,"Delta":126398327},{"NoteNumber":60,"Velocity":24,"Duration":142561,"SoundDuration":142561,"Delta":126540889},{"NoteNumber":75,"Velocity":46,"Duration":427686,"SoundDuration":427686,"Delta":126683451},{"NoteNumber":53,"Velocity":36,"Duration":142561,"SoundDuration":142561,"Delta":126683451},{"NoteNumber":57,"Velocity":25,"Duration":142562,"SoundDuration":142562,"Delta":126826013},{"NoteNumber":60,"Velocity":25,"Duration":142561,"SoundDuration":142561,"Delta":126968575},{"NoteNumber":72,"Velocity":50,"Duration":427685,"SoundDuration":427685,"Delta":127111137},{"NoteNumber":53,"Velocity":41,"Duration":142561,"SoundDuration":142561,"Delta":127111137},{"NoteNumber":57,"Velocity":26,"Duration":142561,"SoundDuration":142561,"Delta":127253699},{"NoteNumber":60,"Velocity":25,"Duration":142561,"SoundDuration":142561,"Delta":127396261},{"NoteNumber":69,"Velocity":50,"Duration":446165,"SoundDuration":446165,"Delta":127538823},{"NoteNumber":53,"Velocity":44,"Duration":143585,"SoundDuration":143585,"Delta":127538823},{"NoteNumber":57,"Velocity":30,"Duration":143585,"SoundDuration":143585,"Delta":127682408},{"NoteNumber":60,"Velocity":33,"Duration":158995,"SoundDuration":158995,"Delta":127825994},{"NoteNumber":79,"Velocity":62,"Duration":427685,"SoundDuration":427685,"Delta":127984989},{"NoteNumber":53,"Velocity":52,"Duration":142561,"SoundDuration":142561,"Delta":127984989},{"NoteNumber":58,"Velocity":31,"Duration":142561,"SoundDuration":142561,"Delta":128127551},{"NoteNumber":62,"Velocity":31,"Duration":142561,"SoundDuration":142561,"Delta":128270113},{"NoteNumber":77,"Velocity":50,"Duration":427685,"SoundDuration":427685,"Delta":128412675},{"NoteNumber":53,"Velocity":41,"Duration":142561,"SoundDuration":142561,"Delta":128412675},{"NoteNumber":58,"Velocity":28,"Duration":142561,"SoundDuration":142561,"Delta":128555237},{"NoteNumber":62,"Velocity":28,"Duration":142561,"SoundDuration":142561,"Delta":128697799},{"NoteNumber":74,"Velocity":56,"Duration":427686,"SoundDuration":427686,"Delta":128840361},{"NoteNumber":53,"Velocity":41,"Duration":142561,"SoundDuration":142561,"Delta":128840361},{"NoteNumber":58,"Velocity":29,"Duration":142562,"SoundDuration":142562,"Delta":128982923},{"NoteNumber":62,"Velocity":28,"Duration":142561,"SoundDuration":142561,"Delta":129125485},{"NoteNumber":70,"Velocity":50,"Duration":437030,"SoundDuration":437030,"Delta":129268047},{"NoteNumber":53,"Velocity":41,"Duration":145677,"SoundDuration":145677,"Delta":129268047},{"NoteNumber":58,"Velocity":29,"Duration":145677,"SoundDuration":145677,"Delta":129413724},{"NoteNumber":62,"Velocity":29,"Duration":145676,"SoundDuration":145676,"Delta":129559401},{"NoteNumber":67,"Velocity":63,"Duration":429214,"SoundDuration":429214,"Delta":129705078},{"NoteNumber":53,"Velocity":41,"Duration":143071,"SoundDuration":143071,"Delta":129705078},{"NoteNumber":60,"Velocity":28,"Duration":143071,"SoundDuration":143071,"Delta":129848149},{"NoteNumber":63,"Velocity":28,"Duration":143071,"SoundDuration":143071,"Delta":129991221},{"NoteNumber":72,"Velocity":48,"Duration":429214,"SoundDuration":429214,"Delta":130134293},{"NoteNumber":53,"Velocity":41,"Duration":143071,"SoundDuration":143071,"Delta":130134293},{"NoteNumber":60,"Velocity":28,"Duration":143071,"SoundDuration":143071,"Delta":130277364},{"NoteNumber":63,"Velocity":28,"Duration":143071,"SoundDuration":143071,"Delta":130420436},{"NoteNumber":69,"Velocity":61,"Duration":429214,"SoundDuration":429214,"Delta":130563508},{"NoteNumber":53,"Velocity":43,"Duration":143071,"SoundDuration":143071,"Delta":130563508},{"NoteNumber":60,"Velocity":29,"Duration":143071,"SoundDuration":143071,"Delta":130706579},{"NoteNumber":63,"Velocity":28,"Duration":143071,"SoundDuration":143071,"Delta":130849651},{"NoteNumber":65,"Velocity":55,"Duration":448315,"SoundDuration":448315,"Delta":130992723},{"NoteNumber":53,"Velocity":47,"Duration":146209,"SoundDuration":146209,"Delta":130992723},{"NoteNumber":60,"Velocity":33,"Duration":146209,"SoundDuration":146209,"Delta":131138932},{"NoteNumber":63,"Velocity":33,"Duration":155896,"SoundDuration":155896,"Delta":131285142},{"NoteNumber":70,"Velocity":56,"Duration":143071,"SoundDuration":143071,"Delta":131441039},{"NoteNumber":58,"Velocity":61,"Duration":429214,"SoundDuration":429214,"Delta":131441039},{"NoteNumber":65,"Velocity":34,"Duration":143071,"SoundDuration":143071,"Delta":131584110},{"NoteNumber":62,"Velocity":34,"Duration":143071,"SoundDuration":143071,"Delta":131727182},{"NoteNumber":70,"Velocity":52,"Duration":143071,"SoundDuration":143071,"Delta":131870254},{"NoteNumber":65,"Velocity":34,"Duration":143071,"SoundDuration":143071,"Delta":132013325},{"NoteNumber":62,"Velocity":34,"Duration":143071,"SoundDuration":143071,"Delta":132156397},{"NoteNumber":70,"Velocity":47,"Duration":143071,"SoundDuration":143071,"Delta":132299469},{"NoteNumber":65,"Velocity":32,"Duration":143071,"SoundDuration":143071,"Delta":132442540},{"NoteNumber":62,"Velocity":32,"Duration":152917,"SoundDuration":152917,"Delta":132585612},{"NoteNumber":70,"Velocity":51,"Duration":142561,"SoundDuration":142561,"Delta":132738529},{"NoteNumber":56,"Velocity":54,"Duration":213842,"SoundDuration":213842,"Delta":132738529},{"NoteNumber":65,"Velocity":36,"Duration":142561,"SoundDuration":142561,"Delta":132881091},{"NoteNumber":62,"Velocity":36,"Duration":142561,"SoundDuration":142561,"Delta":133023653},{"NoteNumber":71,"Velocity":52,"Duration":142561,"SoundDuration":142561,"Delta":133166215},{"NoteNumber":55,"Velocity":65,"Duration":213842,"SoundDuration":213842,"Delta":133166215},{"NoteNumber":65,"Velocity":38,"Duration":142561,"SoundDuration":142561,"Delta":133308777},{"NoteNumber":62,"Velocity":38,"Duration":142561,"SoundDuration":142561,"Delta":133451339},{"NoteNumber":71,"Velocity":54,"Duration":142561,"SoundDuration":142561,"Delta":133593901},{"NoteNumber":55,"Velocity":57,"Duration":213843,"SoundDuration":213843,"Delta":133593901},{"NoteNumber":65,"Velocity":39,"Duration":142562,"SoundDuration":142562,"Delta":133736463},{"NoteNumber":62,"Velocity":39,"Duration":151756,"SoundDuration":151756,"Delta":133879025},{"NoteNumber":71,"Velocity":55,"Duration":142561,"SoundDuration":142561,"Delta":134030782},{"NoteNumber":43,"Velocity":65,"Duration":213842,"SoundDuration":213842,"Delta":134030782},{"NoteNumber":65,"Velocity":40,"Duration":142561,"SoundDuration":142561,"Delta":134173344},{"NoteNumber":62,"Velocity":40,"Duration":142561,"SoundDuration":142561,"Delta":134315906},{"NoteNumber":71,"Velocity":57,"Duration":142561,"SoundDuration":142561,"Delta":134458468},{"NoteNumber":43,"Velocity":57,"Duration":213842,"SoundDuration":213842,"Delta":134458468},{"NoteNumber":65,"Velocity":41,"Duration":142562,"SoundDuration":142562,"Delta":134601030},{"NoteNumber":62,"Velocity":42,"Duration":162879,"SoundDuration":162879,"Delta":134743592},{"NoteNumber":48,"Velocity":67,"Duration":865727,"SoundDuration":865727,"Delta":134906471},{"NoteNumber":36,"Velocity":67,"Duration":865727,"SoundDuration":865727,"Delta":134906471},{"NoteNumber":60,"Velocity":52,"Duration":142561,"SoundDuration":142561,"Delta":135049033},{"NoteNumber":63,"Velocity":52,"Duration":142561,"SoundDuration":142561,"Delta":135191595},{"NoteNumber":67,"Velocity":58,"Duration":142561,"SoundDuration":142561,"Delta":135334157},{"NoteNumber":63,"Velocity":52,"Duration":142562,"SoundDuration":142562,"Delta":135476719},{"NoteNumber":67,"Velocity":52,"Duration":152917,"SoundDuration":152917,"Delta":135619281},{"NoteNumber":72,"Velocity":58,"Duration":142561,"SoundDuration":142561,"Delta":135772198},{"NoteNumber":67,"Velocity":52,"Duration":142561,"SoundDuration":142561,"Delta":135914760},{"NoteNumber":63,"Velocity":54,"Duration":142561,"SoundDuration":142561,"Delta":136057322},{"NoteNumber":72,"Velocity":51,"Duration":142561,"SoundDuration":142561,"Delta":136199884},{"NoteNumber":58,"Velocity":54,"Duration":213842,"SoundDuration":213842,"Delta":136199884},{"NoteNumber":67,"Velocity":46,"Duration":142561,"SoundDuration":142561,"Delta":136342446},{"NoteNumber":63,"Velocity":46,"Duration":142561,"SoundDuration":142561,"Delta":136485008},{"NoteNumber":73,"Velocity":52,"Duration":142561,"SoundDuration":142561,"Delta":136627570},{"NoteNumber":57,"Velocity":65,"Duration":213842,"SoundDuration":213842,"Delta":136627570},{"NoteNumber":67,"Velocity":38,"Duration":142561,"SoundDuration":142561,"Delta":136770132},{"NoteNumber":64,"Velocity":38,"Duration":142561,"SoundDuration":142561,"Delta":136912694},{"NoteNumber":73,"Velocity":54,"Duration":142561,"SoundDuration":142561,"Delta":137055256},{"NoteNumber":57,"Velocity":57,"Duration":213843,"SoundDuration":213843,"Delta":137055256},{"NoteNumber":67,"Velocity":39,"Duration":142562,"SoundDuration":142562,"Delta":137197818},{"NoteNumber":64,"Velocity":39,"Duration":151756,"SoundDuration":151756,"Delta":137340380},{"NoteNumber":73,"Velocity":55,"Duration":142561,"SoundDuration":142561,"Delta":137492137},{"NoteNumber":45,"Velocity":65,"Duration":213842,"SoundDuration":213842,"Delta":137492137},{"NoteNumber":67,"Velocity":40,"Duration":142561,"SoundDuration":142561,"Delta":137634699},{"NoteNumber":64,"Velocity":40,"Duration":142561,"SoundDuration":142561,"Delta":137777261},{"NoteNumber":73,"Velocity":57,"Duration":142561,"SoundDuration":142561,"Delta":137919823},{"NoteNumber":45,"Velocity":57,"Duration":213842,"SoundDuration":213842,"Delta":137919823},{"NoteNumber":67,"Velocity":41,"Duration":142562,"SoundDuration":142562,"Delta":138062385},{"NoteNumber":64,"Velocity":42,"Duration":162879,"SoundDuration":162879,"Delta":138204947},{"NoteNumber":50,"Velocity":67,"Duration":1738166,"SoundDuration":1738166,"Delta":138367827},{"NoteNumber":38,"Velocity":67,"Duration":1738166,"SoundDuration":1738166,"Delta":138367827},{"NoteNumber":62,"Velocity":52,"Duration":142561,"SoundDuration":142561,"Delta":138510389},{"NoteNumber":66,"Velocity":52,"Duration":142561,"SoundDuration":142561,"Delta":138652951},{"NoteNumber":69,"Velocity":58,"Duration":142561,"SoundDuration":142561,"Delta":138795513},{"NoteNumber":66,"Velocity":52,"Duration":142562,"SoundDuration":142562,"Delta":138938075},{"NoteNumber":69,"Velocity":52,"Duration":152917,"SoundDuration":152917,"Delta":139080637},{"NoteNumber":74,"Velocity":58,"Duration":142561,"SoundDuration":142561,"Delta":139233554},{"NoteNumber":69,"Velocity":52,"Duration":142561,"SoundDuration":142561,"Delta":139376116},{"NoteNumber":66,"Velocity":54,"Duration":142561,"SoundDuration":142561,"Delta":139518678},{"NoteNumber":69,"Velocity":58,"Duration":142561,"SoundDuration":142561,"Delta":139661240},{"NoteNumber":66,"Velocity":53,"Duration":142562,"SoundDuration":142562,"Delta":139803802},{"NoteNumber":62,"Velocity":53,"Duration":159629,"SoundDuration":159629,"Delta":139946364},{"NoteNumber":50,"Velocity":67,"Duration":1738166,"SoundDuration":1738166,"Delta":140105993},{"NoteNumber":38,"Velocity":67,"Duration":1738166,"SoundDuration":1738166,"Delta":140105993},{"NoteNumber":62,"Velocity":52,"Duration":142561,"SoundDuration":142561,"Delta":140248555},{"NoteNumber":67,"Velocity":52,"Duration":142561,"SoundDuration":142561,"Delta":140391117},{"NoteNumber":70,"Velocity":58,"Duration":142561,"SoundDuration":142561,"Delta":140533679},{"NoteNumber":67,"Velocity":52,"Duration":142562,"SoundDuration":142562,"Delta":140676241},{"NoteNumber":70,"Velocity":52,"Duration":152917,"SoundDuration":152917,"Delta":140818803},{"NoteNumber":74,"Velocity":58,"Duration":142561,"SoundDuration":142561,"Delta":140971720},{"NoteNumber":70,"Velocity":52,"Duration":142561,"SoundDuration":142561,"Delta":141114282},{"NoteNumber":67,"Velocity":54,"Duration":142561,"SoundDuration":142561,"Delta":141256844},{"NoteNumber":70,"Velocity":58,"Duration":142561,"SoundDuration":142561,"Delta":141399406},{"NoteNumber":67,"Velocity":53,"Duration":142562,"SoundDuration":142562,"Delta":141541968},{"NoteNumber":62,"Velocity":53,"Duration":159629,"SoundDuration":159629,"Delta":141684530},{"NoteNumber":38,"Velocity":67,"Duration":1731263,"SoundDuration":1731263,"Delta":141844160},{"NoteNumber":50,"Velocity":67,"Duration":1731263,"SoundDuration":1731263,"Delta":141844160},{"NoteNumber":62,"Velocity":50,"Duration":146023,"SoundDuration":146023,"Delta":141991376},{"NoteNumber":64,"Velocity":50,"Duration":145630,"SoundDuration":145630,"Delta":142137399},{"NoteNumber":66,"Velocity":50,"Duration":145148,"SoundDuration":145148,"Delta":142283030},{"NoteNumber":67,"Velocity":50,"Duration":144715,"SoundDuration":144715,"Delta":142428178},{"NoteNumber":69,"Velocity":50,"Duration":144415,"SoundDuration":144415,"Delta":142572894},{"NoteNumber":71,"Velocity":50,"Duration":144031,"SoundDuration":144031,"Delta":142717309},{"NoteNumber":73,"Velocity":50,"Duration":143585,"SoundDuration":143585,"Delta":142861341},{"NoteNumber":74,"Velocity":50,"Duration":143135,"SoundDuration":143135,"Delta":143004926},{"NoteNumber":76,"Velocity":52,"Duration":142839,"SoundDuration":142839,"Delta":143148062},{"NoteNumber":78,"Velocity":53,"Duration":142467,"SoundDuration":142467,"Delta":143290901},{"NoteNumber":79,"Velocity":54,"Duration":142055,"SoundDuration":142055,"Delta":143433368},{"NoteNumber":81,"Velocity":55,"Duration":141590,"SoundDuration":141590,"Delta":143575424},{"NoteNumber":83,"Velocity":56,"Duration":141553,"SoundDuration":141553,"Delta":143717014},{"NoteNumber":85,"Velocity":60,"Duration":154094,"SoundDuration":154094,"Delta":143858567},{"NoteNumber":86,"Velocity":66,"Duration":141053,"SoundDuration":141053,"Delta":144012662},{"NoteNumber":81,"Velocity":59,"Duration":141053,"SoundDuration":141053,"Delta":144153716},{"NoteNumber":78,"Velocity":53,"Duration":141220,"SoundDuration":141220,"Delta":144294770},{"NoteNumber":74,"Velocity":58,"Duration":142987,"SoundDuration":142987,"Delta":144435990},{"NoteNumber":69,"Velocity":54,"Duration":144638,"SoundDuration":144638,"Delta":144578977},{"NoteNumber":66,"Velocity":54,"Duration":146465,"SoundDuration":146465,"Delta":144723616},{"NoteNumber":62,"Velocity":56,"Duration":158597,"SoundDuration":158597,"Delta":144870081},{"NoteNumber":57,"Velocity":54,"Duration":165995,"SoundDuration":165995,"Delta":145028679},{"NoteNumber":54,"Velocity":54,"Duration":173597,"SoundDuration":173597,"Delta":145194675},{"NoteNumber":50,"Velocity":65,"Duration":1609967,"SoundDuration":1609967,"Delta":145368272},{"NoteNumber":81,"Velocity":43,"Duration":53460,"SoundDuration":53460,"Delta":146924779},{"NoteNumber":79,"Velocity":50,"Duration":142561,"SoundDuration":142561,"Delta":146978240},{"NoteNumber":78,"Velocity":45,"Duration":142561,"SoundDuration":142561,"Delta":147120802},{"NoteNumber":79,"Velocity":45,"Duration":142561,"SoundDuration":142561,"Delta":147263364},{"NoteNumber":83,"Velocity":50,"Duration":106921,"SoundDuration":106921,"Delta":147405926},{"NoteNumber":55,"Velocity":29,"Duration":142561,"SoundDuration":142561,"Delta":147405926},{"NoteNumber":59,"Velocity":20,"Duration":142561,"SoundDuration":142561,"Delta":147548488},{"NoteNumber":62,"Velocity":20,"Duration":142561,"SoundDuration":142561,"Delta":147691050},{"NoteNumber":83,"Velocity":46,"Duration":106921,"SoundDuration":106921,"Delta":147833612},{"NoteNumber":55,"Velocity":29,"Duration":142561,"SoundDuration":142561,"Delta":147833612},{"NoteNumber":59,"Velocity":20,"Duration":142562,"SoundDuration":142562,"Delta":147976174},{"NoteNumber":62,"Velocity":20,"Duration":142561,"SoundDuration":142561,"Delta":148118736},{"NoteNumber":79,"Velocity":50,"Duration":213842,"SoundDuration":213842,"Delta":148261298},{"NoteNumber":55,"Velocity":29,"Duration":142561,"SoundDuration":142561,"Delta":148261298},{"NoteNumber":59,"Velocity":21,"Duration":142561,"SoundDuration":142561,"Delta":148403860},{"NoteNumber":62,"Velocity":20,"Duration":142561,"SoundDuration":142561,"Delta":148546422},{"NoteNumber":81,"Velocity":41,"Duration":53460,"SoundDuration":53460,"Delta":148635523},{"NoteNumber":79,"Velocity":50,"Duration":142561,"SoundDuration":142561,"Delta":148688984},{"NoteNumber":55,"Velocity":29,"Duration":142561,"SoundDuration":142561,"Delta":148688984},{"NoteNumber":78,"Velocity":44,"Duration":142561,"SoundDuration":142561,"Delta":148831546},{"NoteNumber":59,"Velocity":21,"Duration":142561,"SoundDuration":142561,"Delta":148831546},{"NoteNumber":79,"Velocity":53,"Duration":158995,"SoundDuration":158995,"Delta":148974108},{"NoteNumber":62,"Velocity":21,"Duration":158995,"SoundDuration":158995,"Delta":148974108},{"NoteNumber":86,"Velocity":62,"Duration":855371,"SoundDuration":855371,"Delta":149133103},{"NoteNumber":55,"Velocity":29,"Duration":142561,"SoundDuration":142561,"Delta":149133103},{"NoteNumber":59,"Velocity":20,"Duration":142561,"SoundDuration":142561,"Delta":149275665},{"NoteNumber":62,"Velocity":20,"Duration":142561,"SoundDuration":142561,"Delta":149418227},{"NoteNumber":55,"Velocity":29,"Duration":142561,"SoundDuration":142561,"Delta":149560789},{"NoteNumber":59,"Velocity":20,"Duration":142561,"SoundDuration":142561,"Delta":149703351},{"NoteNumber":62,"Velocity":20,"Duration":142561,"SoundDuration":142561,"Delta":149845913},{"NoteNumber":83,"Velocity":50,"Duration":427686,"SoundDuration":427686,"Delta":149988475},{"NoteNumber":55,"Velocity":29,"Duration":142561,"SoundDuration":142561,"Delta":149988475},{"NoteNumber":59,"Velocity":21,"Duration":142562,"SoundDuration":142562,"Delta":150131037},{"NoteNumber":62,"Velocity":20,"Duration":142561,"SoundDuration":142561,"Delta":150273599},{"NoteNumber":79,"Velocity":47,"Duration":437030,"SoundDuration":437030,"Delta":150416161},{"NoteNumber":55,"Velocity":29,"Duration":145677,"SoundDuration":145677,"Delta":150416161},{"NoteNumber":59,"Velocity":21,"Duration":145677,"SoundDuration":145677,"Delta":150561838},{"NoteNumber":62,"Velocity":21,"Duration":145676,"SoundDuration":145676,"Delta":150707515},{"NoteNumber":84,"Velocity":62,"Duration":213842,"SoundDuration":213842,"Delta":150853192},{"NoteNumber":55,"Velocity":33,"Duration":142561,"SoundDuration":142561,"Delta":150853192},{"NoteNumber":60,"Velocity":23,"Duration":142561,"SoundDuration":142561,"Delta":150995754},{"NoteNumber":64,"Velocity":23,"Duration":142561,"SoundDuration":142561,"Delta":151138316},{"NoteNumber":86,"Velocity":54,"Duration":53460,"SoundDuration":53460,"Delta":151227417},{"NoteNumber":84,"Velocity":62,"Duration":142561,"SoundDuration":142561,"Delta":151280878},{"NoteNumber":55,"Velocity":32,"Duration":142561,"SoundDuration":142561,"Delta":151280878},{"NoteNumber":83,"Velocity":50,"Duration":142561,"SoundDuration":142561,"Delta":151423440},{"NoteNumber":60,"Velocity":20,"Duration":142561,"SoundDuration":142561,"Delta":151423440},{"NoteNumber":84,"Velocity":50,"Duration":142561,"SoundDuration":142561,"Delta":151566002},{"NoteNumber":64,"Velocity":21,"Duration":142561,"SoundDuration":142561,"Delta":151566002},{"NoteNumber":88,"Velocity":64,"Duration":213843,"SoundDuration":213843,"Delta":151708564},{"NoteNumber":55,"Velocity":35,"Duration":142561,"SoundDuration":142561,"Delta":151708564},{"NoteNumber":60,"Velocity":25,"Duration":142562,"SoundDuration":142562,"Delta":151851126},{"NoteNumber":64,"Velocity":24,"Duration":142561,"SoundDuration":142561,"Delta":151993688},{"NoteNumber":88,"Velocity":61,"Duration":213842,"SoundDuration":213842,"Delta":152136250},{"NoteNumber":55,"Velocity":35,"Duration":142561,"SoundDuration":142561,"Delta":152136250},{"NoteNumber":60,"Velocity":25,"Duration":142561,"SoundDuration":142561,"Delta":152278812},{"NoteNumber":64,"Velocity":25,"Duration":165576,"SoundDuration":165576,"Delta":152421374},{"NoteNumber":85,"Velocity":65,"Duration":437030,"SoundDuration":437030,"Delta":152586951},{"NoteNumber":55,"Velocity":35,"Duration":145677,"SoundDuration":145677,"Delta":152586951},{"NoteNumber":59,"Velocity":24,"Duration":145677,"SoundDuration":145677,"Delta":152732628},{"NoteNumber":62,"Velocity":24,"Duration":145676,"SoundDuration":145676,"Delta":152878305},{"NoteNumber":86,"Velocity":63,"Duration":218515,"SoundDuration":218515,"Delta":153023982},{"NoteNumber":55,"Velocity":35,"Duration":145677,"SoundDuration":145677,"Delta":153023982},{"NoteNumber":59,"Velocity":23,"Duration":145677,"SoundDuration":145677,"Delta":153169659},{"NoteNumber":62,"Velocity":23,"Duration":145677,"SoundDuration":145677,"Delta":153315336},{"NoteNumber":55,"Velocity":29,"Duration":145676,"SoundDuration":145676,"Delta":153461013},{"NoteNumber":59,"Velocity":20,"Duration":145677,"SoundDuration":145677,"Delta":153606690},{"NoteNumber":62,"Velocity":20,"Duration":144508,"SoundDuration":144508,"Delta":153752367},{"NoteNumber":81,"Velocity":43,"Duration":53460,"SoundDuration":53460,"Delta":153843415},{"NoteNumber":79,"Velocity":50,"Duration":142561,"SoundDuration":142561,"Delta":153896876},{"NoteNumber":55,"Velocity":29,"Duration":142561,"SoundDuration":142561,"Delta":153896876},{"NoteNumber":78,"Velocity":45,"Duration":142561,"SoundDuration":142561,"Delta":154039438},{"NoteNumber":59,"Velocity":21,"Duration":142561,"SoundDuration":142561,"Delta":154039438},{"NoteNumber":79,"Velocity":45,"Duration":142561,"SoundDuration":142561,"Delta":154182000},{"NoteNumber":62,"Velocity":21,"Duration":142561,"SoundDuration":142561,"Delta":154182000},{"NoteNumber":81,"Velocity":50,"Duration":106921,"SoundDuration":106921,"Delta":154324562},{"NoteNumber":60,"Velocity":29,"Duration":142561,"SoundDuration":142561,"Delta":154324562},{"NoteNumber":64,"Velocity":20,"Duration":142561,"SoundDuration":142561,"Delta":154467124},{"NoteNumber":69,"Velocity":20,"Duration":142561,"SoundDuration":142561,"Delta":154609686},{"NoteNumber":81,"Velocity":46,"Duration":427686,"SoundDuration":427686,"Delta":154752248},{"NoteNumber":60,"Velocity":29,"Duration":142561,"SoundDuration":142561,"Delta":154752248},{"NoteNumber":64,"Velocity":20,"Duration":142562,"SoundDuration":142562,"Delta":154894810},{"NoteNumber":69,"Velocity":20,"Duration":142561,"SoundDuration":142561,"Delta":155037372},{"NoteNumber":76,"Velocity":50,"Duration":427685,"SoundDuration":427685,"Delta":155179934},{"NoteNumber":60,"Velocity":29,"Duration":142561,"SoundDuration":142561,"Delta":155179934},{"NoteNumber":64,"Velocity":21,"Duration":142561,"SoundDuration":142561,"Delta":155322496},{"NoteNumber":69,"Velocity":20,"Duration":142561,"SoundDuration":142561,"Delta":155465058},{"NoteNumber":81,"Velocity":50,"Duration":444119,"SoundDuration":444119,"Delta":155607620},{"NoteNumber":60,"Velocity":29,"Duration":142561,"SoundDuration":142561,"Delta":155607620},{"NoteNumber":64,"Velocity":21,"Duration":142561,"SoundDuration":142561,"Delta":155750182},{"NoteNumber":69,"Velocity":21,"Duration":158995,"SoundDuration":158995,"Delta":155892744},{"NoteNumber":74,"Velocity":62,"Duration":855371,"SoundDuration":855371,"Delta":156051739},{"NoteNumber":59,"Velocity":29,"Duration":142561,"SoundDuration":142561,"Delta":156051739},{"NoteNumber":62,"Velocity":20,"Duration":142561,"SoundDuration":142561,"Delta":156194301},{"NoteNumber":67,"Velocity":20,"Duration":142561,"SoundDuration":142561,"Delta":156336863},{"NoteNumber":59,"Velocity":29,"Duration":142561,"SoundDuration":142561,"Delta":156479425},{"NoteNumber":62,"Velocity":20,"Duration":142561,"SoundDuration":142561,"Delta":156621987},{"NoteNumber":67,"Velocity":20,"Duration":142561,"SoundDuration":142561,"Delta":156764549},{"NoteNumber":79,"Velocity":50,"Duration":427686,"SoundDuration":427686,"Delta":156907111},{"NoteNumber":59,"Velocity":29,"Duration":142561,"SoundDuration":142561,"Delta":156907111},{"NoteNumber":62,"Velocity":21,"Duration":142562,"SoundDuration":142562,"Delta":157049673},{"NoteNumber":67,"Velocity":20,"Duration":142561,"SoundDuration":142561,"Delta":157192235},{"NoteNumber":74,"Velocity":47,"Duration":437030,"SoundDuration":437030,"Delta":157334797},{"NoteNumber":59,"Velocity":29,"Duration":145677,"SoundDuration":145677,"Delta":157334797},{"NoteNumber":62,"Velocity":21,"Duration":145677,"SoundDuration":145677,"Delta":157480474},{"NoteNumber":67,"Velocity":21,"Duration":145676,"SoundDuration":145676,"Delta":157626151},{"NoteNumber":72,"Velocity":50,"Duration":214607,"SoundDuration":214607,"Delta":157771828},{"NoteNumber":54,"Velocity":29,"Duration":143071,"SoundDuration":143071,"Delta":157771828},{"NoteNumber":57,"Velocity":20,"Duration":143071,"SoundDuration":143071,"Delta":157914899},{"NoteNumber":62,"Velocity":20,"Duration":143071,"SoundDuration":143071,"Delta":158057971},{"NoteNumber":72,"Velocity":46,"Duration":214607,"SoundDuration":214607,"Delta":158201043},{"NoteNumber":54,"Velocity":29,"Duration":143071,"SoundDuration":143071,"Delta":158201043},{"NoteNumber":57,"Velocity":20,"Duration":143071,"SoundDuration":143071,"Delta":158344114},{"NoteNumber":62,"Velocity":20,"Duration":143071,"SoundDuration":143071,"Delta":158487186},{"NoteNumber":71,"Velocity":50,"Duration":214607,"SoundDuration":214607,"Delta":158630258},{"NoteNumber":55,"Velocity":31,"Duration":143071,"SoundDuration":143071,"Delta":158630258},{"NoteNumber":59,"Velocity":21,"Duration":143071,"SoundDuration":143071,"Delta":158773329},{"NoteNumber":62,"Velocity":20,"Duration":143071,"SoundDuration":143071,"Delta":158916401},{"NoteNumber":74,"Velocity":50,"Duration":219314,"SoundDuration":219314,"Delta":159059473},{"NoteNumber":55,"Velocity":33,"Duration":146209,"SoundDuration":146209,"Delta":159059473},{"NoteNumber":59,"Velocity":24,"Duration":146209,"SoundDuration":146209,"Delta":159205682},{"NoteNumber":62,"Velocity":24,"Duration":155896,"SoundDuration":155896,"Delta":159351892},{"NoteNumber":74,"Velocity":64,"Duration":441858,"SoundDuration":441858,"Delta":159507789},{"NoteNumber":50,"Velocity":34,"Duration":147286,"SoundDuration":147286,"Delta":159507789},{"NoteNumber":54,"Velocity":37,"Duration":147286,"SoundDuration":147286,"Delta":159655075},{"NoteNumber":57,"Velocity":40,"Duration":147286,"SoundDuration":147286,"Delta":159802361},{"NoteNumber":69,"Velocity":48,"Duration":226774,"SoundDuration":226774,"Delta":159949648},{"NoteNumber":62,"Velocity":42,"Duration":151183,"SoundDuration":151183,"Delta":159949648},{"NoteNumber":57,"Velocity":35,"Duration":151183,"SoundDuration":151183,"Delta":160100831},{"NoteNumber":54,"Velocity":38,"Duration":160269,"SoundDuration":160269,"Delta":160252014},{"NoteNumber":50,"Velocity":43,"Duration":440087,"SoundDuration":440087,"Delta":160412283},{"NoteNumber":69,"Velocity":43,"Duration":53460,"SoundDuration":53460,"Delta":160798910},{"NoteNumber":67,"Velocity":50,"Duration":142561,"SoundDuration":142561,"Delta":160852370},{"NoteNumber":66,"Velocity":45,"Duration":142561,"SoundDuration":142561,"Delta":160994932},{"NoteNumber":67,"Velocity":45,"Duration":142561,"SoundDuration":142561,"Delta":161137494},{"NoteNumber":71,"Velocity":50,"Duration":106921,"SoundDuration":106921,"Delta":161280056},{"NoteNumber":55,"Velocity":29,"Duration":142561,"SoundDuration":142561,"Delta":161280056},{"NoteNumber":59,"Velocity":20,"Duration":142561,"SoundDuration":142561,"Delta":161422618},{"NoteNumber":62,"Velocity":20,"Duration":142561,"SoundDuration":142561,"Delta":161565180},{"NoteNumber":71,"Velocity":46,"Duration":106921,"SoundDuration":106921,"Delta":161707742},{"NoteNumber":55,"Velocity":29,"Duration":142562,"SoundDuration":142562,"Delta":161707742},{"NoteNumber":59,"Velocity":20,"Duration":142561,"SoundDuration":142561,"Delta":161850304},{"NoteNumber":62,"Velocity":20,"Duration":142561,"SoundDuration":142561,"Delta":161992866},{"NoteNumber":67,"Velocity":50,"Duration":213842,"SoundDuration":213842,"Delta":162135428},{"NoteNumber":55,"Velocity":29,"Duration":142561,"SoundDuration":142561,"Delta":162135428},{"NoteNumber":59,"Velocity":21,"Duration":142561,"SoundDuration":142561,"Delta":162277990},{"NoteNumber":62,"Velocity":20,"Duration":142561,"SoundDuration":142561,"Delta":162420552},{"NoteNumber":69,"Velocity":41,"Duration":53460,"SoundDuration":53460,"Delta":162509654},{"NoteNumber":67,"Velocity":50,"Duration":142561,"SoundDuration":142561,"Delta":162563114},{"NoteNumber":55,"Velocity":29,"Duration":142561,"SoundDuration":142561,"Delta":162563114},{"NoteNumber":66,"Velocity":44,"Duration":142561,"SoundDuration":142561,"Delta":162705676},{"NoteNumber":59,"Velocity":21,"Duration":142561,"SoundDuration":142561,"Delta":162705676},{"NoteNumber":67,"Velocity":53,"Duration":158995,"SoundDuration":158995,"Delta":162848238},{"NoteNumber":62,"Velocity":21,"Duration":158995,"SoundDuration":158995,"Delta":162848238},{"NoteNumber":74,"Velocity":62,"Duration":855371,"SoundDuration":855371,"Delta":163007233},{"NoteNumber":55,"Velocity":29,"Duration":142561,"SoundDuration":142561,"Delta":163007233},{"NoteNumber":59,"Velocity":20,"Duration":142561,"SoundDuration":142561,"Delta":163149795},{"NoteNumber":62,"Velocity":20,"Duration":142561,"SoundDuration":142561,"Delta":163292357},{"NoteNumber":55,"Velocity":29,"Duration":142561,"SoundDuration":142561,"Delta":163434919},{"NoteNumber":59,"Velocity":20,"Duration":142561,"SoundDuration":142561,"Delta":163577481},{"NoteNumber":62,"Velocity":26,"Duration":142561,"SoundDuration":142561,"Delta":163720043},{"NoteNumber":71,"Velocity":50,"Duration":427686,"SoundDuration":427686,"Delta":163862605},{"NoteNumber":55,"Velocity":29,"Duration":142561,"SoundDuration":142561,"Delta":163862605},{"NoteNumber":59,"Velocity":21,"Duration":142562,"SoundDuration":142562,"Delta":164005167},{"NoteNumber":62,"Velocity":20,"Duration":142561,"SoundDuration":142561,"Delta":164147729},{"NoteNumber":67,"Velocity":47,"Duration":437030,"SoundDuration":437030,"Delta":164290291},{"NoteNumber":55,"Velocity":29,"Duration":145677,"SoundDuration":145677,"Delta":164290291},{"NoteNumber":59,"Velocity":21,"Duration":145677,"SoundDuration":145677,"Delta":164435968},{"NoteNumber":62,"Velocity":21,"Duration":145676,"SoundDuration":145676,"Delta":164581645},{"NoteNumber":72,"Velocity":62,"Duration":213842,"SoundDuration":213842,"Delta":164727322},{"NoteNumber":55,"Velocity":33,"Duration":142561,"SoundDuration":142561,"Delta":164727322},{"NoteNumber":60,"Velocity":23,"Duration":142561,"SoundDuration":142561,"Delta":164869884},{"NoteNumber":64,"Velocity":23,"Duration":142561,"SoundDuration":142561,"Delta":165012446},{"NoteNumber":74,"Velocity":54,"Duration":53460,"SoundDuration":53460,"Delta":165101548},{"NoteNumber":72,"Velocity":62,"Duration":142561,"SoundDuration":142561,"Delta":165155008},{"NoteNumber":55,"Velocity":32,"Duration":142561,"SoundDuration":142561,"Delta":165155008},{"NoteNumber":71,"Velocity":50,"Duration":142561,"SoundDuration":142561,"Delta":165297570},{"NoteNumber":60,"Velocity":20,"Duration":142561,"SoundDuration":142561,"Delta":165297570},{"NoteNumber":72,"Velocity":50,"Duration":142561,"SoundDuration":142561,"Delta":165440132},{"NoteNumber":64,"Velocity":21,"Duration":142561,"SoundDuration":142561,"Delta":165440132},{"NoteNumber":76,"Velocity":64,"Duration":213843,"SoundDuration":213843,"Delta":165582694},{"NoteNumber":55,"Velocity":35,"Duration":142561,"SoundDuration":142561,"Delta":165582694},{"NoteNumber":60,"Velocity":25,"Duration":142562,"SoundDuration":142562,"Delta":165725256},{"NoteNumber":64,"Velocity":24,"Duration":142561,"SoundDuration":142561,"Delta":165867818},{"NoteNumber":76,"Velocity":61,"Duration":213842,"SoundDuration":213842,"Delta":166010380},{"NoteNumber":55,"Velocity":35,"Duration":142561,"SoundDuration":142561,"Delta":166010380},{"NoteNumber":60,"Velocity":25,"Duration":142561,"SoundDuration":142561,"Delta":166152942},{"NoteNumber":64,"Velocity":25,"Duration":165576,"SoundDuration":165576,"Delta":166295504},{"NoteNumber":73,"Velocity":65,"Duration":437030,"SoundDuration":437030,"Delta":166461081},{"NoteNumber":55,"Velocity":35,"Duration":145677,"SoundDuration":145677,"Delta":166461081},{"NoteNumber":59,"Velocity":24,"Duration":145677,"SoundDuration":145677,"Delta":166606758},{"NoteNumber":62,"Velocity":24,"Duration":145676,"SoundDuration":145676,"Delta":166752435},{"NoteNumber":74,"Velocity":63,"Duration":218515,"SoundDuration":218515,"Delta":166898112},{"NoteNumber":55,"Velocity":35,"Duration":145677,"SoundDuration":145677,"Delta":166898112},{"NoteNumber":59,"Velocity":23,"Duration":145677,"SoundDuration":145677,"Delta":167043789},{"NoteNumber":62,"Velocity":29,"Duration":145677,"SoundDuration":145677,"Delta":167189466},{"NoteNumber":55,"Velocity":33,"Duration":145676,"SoundDuration":145676,"Delta":167335143},{"NoteNumber":59,"Velocity":22,"Duration":145677,"SoundDuration":145677,"Delta":167480820},{"NoteNumber":62,"Velocity":22,"Duration":144508,"SoundDuration":144508,"Delta":167626497},{"NoteNumber":79,"Velocity":49,"Duration":53460,"SoundDuration":53460,"Delta":167717545},{"NoteNumber":77,"Velocity":57,"Duration":142561,"SoundDuration":142561,"Delta":167771006},{"NoteNumber":55,"Velocity":33,"Duration":142561,"SoundDuration":142561,"Delta":167771006},{"NoteNumber":76,"Velocity":51,"Duration":142561,"SoundDuration":142561,"Delta":167913568},{"NoteNumber":59,"Velocity":24,"Duration":142561,"SoundDuration":142561,"Delta":167913568},{"NoteNumber":77,"Velocity":51,"Duration":142561,"SoundDuration":142561,"Delta":168056130},{"NoteNumber":62,"Velocity":24,"Duration":142561,"SoundDuration":142561,"Delta":168056130},{"NoteNumber":81,"Velocity":64,"Duration":106921,"SoundDuration":106921,"Delta":168198692},{"NoteNumber":53,"Velocity":29,"Duration":142561,"SoundDuration":142561,"Delta":168198692},{"NoteNumber":59,"Velocity":20,"Duration":142561,"SoundDuration":142561,"Delta":168341254},{"NoteNumber":62,"Velocity":20,"Duration":142561,"SoundDuration":142561,"Delta":168483816},{"NoteNumber":81,"Velocity":52,"Duration":213843,"SoundDuration":213843,"Delta":168626378},{"NoteNumber":53,"Velocity":23,"Duration":142562,"SoundDuration":142562,"Delta":168626378},{"NoteNumber":59,"Velocity":20,"Duration":142561,"SoundDuration":142561,"Delta":168768940},{"NoteNumber":62,"Velocity":23,"Duration":142561,"SoundDuration":142561,"Delta":168911502},{"NoteNumber":74,"Velocity":57,"Duration":213842,"SoundDuration":213842,"Delta":169054064},{"NoteNumber":53,"Velocity":38,"Duration":142561,"SoundDuration":142561,"Delta":169054064},{"NoteNumber":59,"Velocity":25,"Duration":142561,"SoundDuration":142561,"Delta":169196626},{"NoteNumber":62,"Velocity":25,"Duration":142561,"SoundDuration":142561,"Delta":169339188},{"NoteNumber":74,"Velocity":57,"Duration":213842,"SoundDuration":213842,"Delta":169481750},{"NoteNumber":53,"Velocity":39,"Duration":142561,"SoundDuration":142561,"Delta":169481750},{"NoteNumber":59,"Velocity":25,"Duration":142561,"SoundDuration":142561,"Delta":169624312},{"NoteNumber":62,"Velocity":25,"Duration":158995,"SoundDuration":158995,"Delta":169766874},{"NoteNumber":79,"Velocity":69,"Duration":855371,"SoundDuration":855371,"Delta":169925869},{"NoteNumber":52,"Velocity":48,"Duration":142561,"SoundDuration":142561,"Delta":169925869},{"NoteNumber":55,"Velocity":26,"Duration":142561,"SoundDuration":142561,"Delta":170068431},{"NoteNumber":60,"Velocity":26,"Duration":142561,"SoundDuration":142561,"Delta":170210993},{"NoteNumber":52,"Velocity":38,"Duration":142561,"SoundDuration":142561,"Delta":170353555},{"NoteNumber":55,"Velocity":20,"Duration":142561,"SoundDuration":142561,"Delta":170496117},{"NoteNumber":60,"Velocity":20,"Duration":142561,"SoundDuration":142561,"Delta":170638679},{"NoteNumber":76,"Velocity":62,"Duration":427686,"SoundDuration":427686,"Delta":170781241},{"NoteNumber":52,"Velocity":29,"Duration":142561,"SoundDuration":142561,"Delta":170781241},{"NoteNumber":55,"Velocity":21,"Duration":142562,"SoundDuration":142562,"Delta":170923803},{"NoteNumber":58,"Velocity":20,"Duration":142561,"SoundDuration":142561,"Delta":171066365},{"NoteNumber":73,"Velocity":54,"Duration":437030,"SoundDuration":437030,"Delta":171208927},{"NoteNumber":52,"Velocity":29,"Duration":145677,"SoundDuration":145677,"Delta":171208927},{"NoteNumber":55,"Velocity":21,"Duration":145677,"SoundDuration":145677,"Delta":171354604},{"NoteNumber":58,"Velocity":21,"Duration":145676,"SoundDuration":145676,"Delta":171500281},{"NoteNumber":74,"Velocity":50,"Duration":214607,"SoundDuration":214607,"Delta":171645958},{"NoteNumber":50,"Velocity":29,"Duration":143071,"SoundDuration":143071,"Delta":171645958},{"NoteNumber":55,"Velocity":20,"Duration":143071,"SoundDuration":143071,"Delta":171789030},{"NoteNumber":59,"Velocity":20,"Duration":143071,"SoundDuration":143071,"Delta":171932101},{"NoteNumber":74,"Velocity":46,"Duration":214607,"SoundDuration":214607,"Delta":172075173},{"NoteNumber":50,"Velocity":29,"Duration":143071,"SoundDuration":143071,"Delta":172075173},{"NoteNumber":55,"Velocity":20,"Duration":143071,"SoundDuration":143071,"Delta":172218245},{"NoteNumber":59,"Velocity":20,"Duration":143071,"SoundDuration":143071,"Delta":172361316},{"NoteNumber":66,"Velocity":50,"Duration":214607,"SoundDuration":214607,"Delta":172504388},{"NoteNumber":50,"Velocity":31,"Duration":143071,"SoundDuration":143071,"Delta":172504388},{"NoteNumber":57,"Velocity":21,"Duration":143071,"SoundDuration":143071,"Delta":172647460},{"NoteNumber":60,"Velocity":20,"Duration":143071,"SoundDuration":143071,"Delta":172790531},{"NoteNumber":67,"Velocity":46,"Duration":53651,"SoundDuration":53651,"Delta":172879951},{"NoteNumber":66,"Velocity":51,"Duration":146209,"SoundDuration":146209,"Delta":172933603},{"NoteNumber":50,"Velocity":33,"Duration":146209,"SoundDuration":146209,"Delta":172933603},{"NoteNumber":64,"Velocity":46,"Duration":146209,"SoundDuration":146209,"Delta":173079813},{"NoteNumber":57,"Velocity":24,"Duration":146209,"SoundDuration":146209,"Delta":173079813},{"NoteNumber":66,"Velocity":46,"Duration":155896,"SoundDuration":155896,"Delta":173226022},{"NoteNumber":60,"Velocity":24,"Duration":155896,"SoundDuration":155896,"Delta":173226022},{"NoteNumber":67,"Velocity":47,"Duration":146209,"SoundDuration":146209,"Delta":173381919},{"NoteNumber":59,"Velocity":33,"Duration":219314,"SoundDuration":219314,"Delta":173381919},{"NoteNumber":55,"Velocity":28,"Duration":219314,"SoundDuration":219314,"Delta":173381919},{"NoteNumber":71,"Velocity":50,"Duration":146209,"SoundDuration":146209,"Delta":173528129},{"NoteNumber":74,"Velocity":52,"Duration":146209,"SoundDuration":146209,"Delta":173674338},{"NoteNumber":79,"Velocity":54,"Duration":142055,"SoundDuration":142055,"Delta":173820548},{"NoteNumber":78,"Velocity":49,"Duration":142055,"SoundDuration":142055,"Delta":173962604},{"NoteNumber":76,"Velocity":49,"Duration":142055,"SoundDuration":142055,"Delta":174104659},{"NoteNumber":74,"Velocity":51,"Duration":142055,"SoundDuration":142055,"Delta":174246715},{"NoteNumber":72,"Velocity":48,"Duration":142055,"SoundDuration":142055,"Delta":174388771},{"NoteNumber":71,"Velocity":48,"Duration":142055,"SoundDuration":142055,"Delta":174530826},{"NoteNumber":69,"Velocity":51,"Duration":142055,"SoundDuration":142055,"Delta":174672882},{"NoteNumber":67,"Velocity":46,"Duration":142055,"SoundDuration":142055,"Delta":174814938},{"NoteNumber":66,"Velocity":46,"Duration":153503,"SoundDuration":153503,"Delta":174956993},{"NoteNumber":64,"Velocity":46,"Duration":143585,"SoundDuration":143585,"Delta":175110497},{"NoteNumber":55,"Velocity":28,"Duration":107688,"SoundDuration":107688,"Delta":175110497},{"NoteNumber":60,"Velocity":33,"Duration":107688,"SoundDuration":107688,"Delta":175110497},{"NoteNumber":76,"Velocity":51,"Duration":143585,"SoundDuration":143585,"Delta":175254082},{"NoteNumber":74,"Velocity":46,"Duration":143585,"SoundDuration":143585,"Delta":175397668},{"NoteNumber":72,"Velocity":50,"Duration":143585,"SoundDuration":143585,"Delta":175541253},{"NoteNumber":60,"Velocity":29,"Duration":107688,"SoundDuration":107688,"Delta":175541253},{"NoteNumber":55,"Velocity":24,"Duration":107688,"SoundDuration":107688,"Delta":175541253},{"NoteNumber":71,"Velocity":48,"Duration":143585,"SoundDuration":143585,"Delta":175684838},{"NoteNumber":69,"Velocity":48,"Duration":151183,"SoundDuration":151183,"Delta":175828424},{"NoteNumber":67,"Velocity":49,"Duration":143585,"SoundDuration":143585,"Delta":175979607},{"NoteNumber":57,"Velocity":30,"Duration":107688,"SoundDuration":107688,"Delta":175979607},{"NoteNumber":55,"Velocity":25,"Duration":107688,"SoundDuration":107688,"Delta":175979607},{"NoteNumber":66,"Velocity":46,"Duration":143585,"SoundDuration":143585,"Delta":176123192},{"NoteNumber":64,"Velocity":46,"Duration":143585,"SoundDuration":143585,"Delta":176266777},{"NoteNumber":62,"Velocity":47,"Duration":143585,"SoundDuration":143585,"Delta":176410363},{"NoteNumber":57,"Velocity":30,"Duration":107688,"SoundDuration":107688,"Delta":176410363},{"NoteNumber":55,"Velocity":25,"Duration":107688,"SoundDuration":107688,"Delta":176410363},{"NoteNumber":64,"Velocity":45,"Duration":143585,"SoundDuration":143585,"Delta":176553948},{"NoteNumber":66,"Velocity":45,"Duration":150613,"SoundDuration":150613,"Delta":176697533},{"NoteNumber":67,"Velocity":47,"Duration":146209,"SoundDuration":146209,"Delta":176848147},{"NoteNumber":59,"Velocity":33,"Duration":219314,"SoundDuration":219314,"Delta":176848147},{"NoteNumber":55,"Velocity":28,"Duration":219314,"SoundDuration":219314,"Delta":176848147},{"NoteNumber":71,"Velocity":50,"Duration":146209,"SoundDuration":146209,"Delta":176994357},{"NoteNumber":74,"Velocity":52,"Duration":146209,"SoundDuration":146209,"Delta":177140566},{"NoteNumber":79,"Velocity":54,"Duration":142055,"SoundDuration":142055,"Delta":177286776},{"NoteNumber":78,"Velocity":49,"Duration":142055,"SoundDuration":142055,"Delta":177428832},{"NoteNumber":76,"Velocity":49,"Duration":142055,"SoundDuration":142055,"Delta":177570887},{"NoteNumber":74,"Velocity":51,"Duration":142055,"SoundDuration":142055,"Delta":177712943},{"NoteNumber":72,"Velocity":48,"Duration":142055,"SoundDuration":142055,"Delta":177854999},{"NoteNumber":71,"Velocity":48,"Duration":142055,"SoundDuration":142055,"Delta":177997054},{"NoteNumber":69,"Velocity":51,"Duration":142055,"SoundDuration":142055,"Delta":178139110},{"NoteNumber":67,"Velocity":46,"Duration":142055,"SoundDuration":142055,"Delta":178281166},{"NoteNumber":66,"Velocity":46,"Duration":153503,"SoundDuration":153503,"Delta":178423221},{"NoteNumber":64,"Velocity":46,"Duration":143585,"SoundDuration":143585,"Delta":178576725},{"NoteNumber":55,"Velocity":28,"Duration":107688,"SoundDuration":107688,"Delta":178576725},{"NoteNumber":60,"Velocity":33,"Duration":107688,"SoundDuration":107688,"Delta":178576725},{"NoteNumber":76,"Velocity":51,"Duration":143585,"SoundDuration":143585,"Delta":178720310},{"NoteNumber":74,"Velocity":46,"Duration":143585,"SoundDuration":143585,"Delta":178863896},{"NoteNumber":72,"Velocity":50,"Duration":143585,"SoundDuration":143585,"Delta":179007481},{"NoteNumber":60,"Velocity":29,"Duration":107688,"SoundDuration":107688,"Delta":179007481},{"NoteNumber":55,"Velocity":24,"Duration":107688,"SoundDuration":107688,"Delta":179007481},{"NoteNumber":71,"Velocity":48,"Duration":143585,"SoundDuration":143585,"Delta":179151066},{"NoteNumber":69,"Velocity":48,"Duration":151183,"SoundDuration":151183,"Delta":179294652},{"NoteNumber":67,"Velocity":49,"Duration":143585,"SoundDuration":143585,"Delta":179445835},{"NoteNumber":57,"Velocity":30,"Duration":107688,"SoundDuration":107688,"Delta":179445835},{"NoteNumber":55,"Velocity":25,"Duration":107688,"SoundDuration":107688,"Delta":179445835},{"NoteNumber":66,"Velocity":46,"Duration":143585,"SoundDuration":143585,"Delta":179589420},{"NoteNumber":64,"Velocity":46,"Duration":143585,"SoundDuration":143585,"Delta":179733005},{"NoteNumber":62,"Velocity":47,"Duration":143585,"SoundDuration":143585,"Delta":179876591},{"NoteNumber":57,"Velocity":30,"Duration":107688,"SoundDuration":107688,"Delta":179876591},{"NoteNumber":55,"Velocity":25,"Duration":107688,"SoundDuration":107688,"Delta":179876591},{"NoteNumber":64,"Velocity":45,"Duration":143585,"SoundDuration":143585,"Delta":180020176},{"NoteNumber":66,"Velocity":45,"Duration":150613,"SoundDuration":150613,"Delta":180163761},{"NoteNumber":67,"Velocity":47,"Duration":145677,"SoundDuration":145677,"Delta":180314375},{"NoteNumber":55,"Velocity":28,"Duration":218515,"SoundDuration":218515,"Delta":180314375},{"NoteNumber":59,"Velocity":33,"Duration":218515,"SoundDuration":218515,"Delta":180314375},{"NoteNumber":69,"Velocity":42,"Duration":145677,"SoundDuration":145677,"Delta":180460052},{"NoteNumber":71,"Velocity":42,"Duration":145676,"SoundDuration":145676,"Delta":180605729},{"NoteNumber":67,"Velocity":47,"Duration":145677,"SoundDuration":145677,"Delta":180751406},{"NoteNumber":69,"Velocity":43,"Duration":145677,"SoundDuration":145677,"Delta":180897083},{"NoteNumber":71,"Velocity":47,"Duration":145677,"SoundDuration":145677,"Delta":181042760},{"NoteNumber":67,"Velocity":54,"Duration":147017,"SoundDuration":147017,"Delta":181188437},{"NoteNumber":35,"Velocity":32,"Duration":220122,"SoundDuration":220122,"Delta":181188437},{"NoteNumber":47,"Velocity":36,"Duration":220122,"SoundDuration":220122,"Delta":181188437},{"NoteNumber":69,"Velocity":48,"Duration":146209,"SoundDuration":146209,"Delta":181335454},{"NoteNumber":71,"Velocity":48,"Duration":146209,"SoundDuration":146209,"Delta":181481664},{"NoteNumber":67,"Velocity":56,"Duration":146209,"SoundDuration":146209,"Delta":181627873},{"NoteNumber":35,"Velocity":33,"Duration":219314,"SoundDuration":219314,"Delta":181627873},{"NoteNumber":47,"Velocity":38,"Duration":219314,"SoundDuration":219314,"Delta":181627873},{"NoteNumber":69,"Velocity":52,"Duration":146209,"SoundDuration":146209,"Delta":181774083},{"NoteNumber":71,"Velocity":52,"Duration":146209,"SoundDuration":146209,"Delta":181920293},{"NoteNumber":67,"Velocity":60,"Duration":147830,"SoundDuration":147830,"Delta":182066502},{"NoteNumber":36,"Velocity":36,"Duration":221745,"SoundDuration":221745,"Delta":182066502},{"NoteNumber":48,"Velocity":41,"Duration":221745,"SoundDuration":221745,"Delta":182066502},{"NoteNumber":69,"Velocity":52,"Duration":147830,"SoundDuration":147830,"Delta":182214333},{"NoteNumber":71,"Velocity":57,"Duration":147830,"SoundDuration":147830,"Delta":182362164},{"NoteNumber":67,"Velocity":64,"Duration":147830,"SoundDuration":147830,"Delta":182509994},{"NoteNumber":36,"Velocity":38,"Duration":221745,"SoundDuration":221745,"Delta":182509994},{"NoteNumber":48,"Velocity":44,"Duration":221745,"SoundDuration":221745,"Delta":182509994},{"NoteNumber":69,"Velocity":58,"Duration":147830,"SoundDuration":147830,"Delta":182657825},{"NoteNumber":71,"Velocity":61,"Duration":147830,"SoundDuration":147830,"Delta":182805656},{"NoteNumber":67,"Velocity":68,"Duration":148845,"SoundDuration":148845,"Delta":182953486},{"NoteNumber":37,"Velocity":40,"Duration":223673,"SoundDuration":223673,"Delta":182953486},{"NoteNumber":49,"Velocity":46,"Duration":223673,"SoundDuration":223673,"Delta":182953486},{"NoteNumber":69,"Velocity":63,"Duration":150071,"SoundDuration":150071,"Delta":183102332},{"NoteNumber":71,"Velocity":65,"Duration":151881,"SoundDuration":151881,"Delta":183252403},{"NoteNumber":67,"Velocity":73,"Duration":153719,"SoundDuration":153719,"Delta":183404284},{"NoteNumber":37,"Velocity":43,"Duration":231260,"SoundDuration":231260,"Delta":183404284},{"NoteNumber":49,"Velocity":49,"Duration":231260,"SoundDuration":231260,"Delta":183404284},{"NoteNumber":69,"Velocity":69,"Duration":155186,"SoundDuration":155186,"Delta":183558004},{"NoteNumber":71,"Velocity":70,"Duration":172726,"SoundDuration":172726,"Delta":183713191},{"NoteNumber":38,"Velocity":55,"Duration":1807209,"SoundDuration":1807209,"Delta":183885917},{"NoteNumber":50,"Velocity":68,"Duration":1807209,"SoundDuration":1807209,"Delta":183885917},{"NoteNumber":83,"Velocity":71,"Duration":152917,"SoundDuration":152917,"Delta":184038834},{"NoteNumber":86,"Velocity":68,"Duration":146745,"SoundDuration":146745,"Delta":184191751},{"NoteNumber":84,"Velocity":74,"Duration":147830,"SoundDuration":147830,"Delta":184338497},{"NoteNumber":83,"Velocity":68,"Duration":147830,"SoundDuration":147830,"Delta":184486328},{"NoteNumber":81,"Velocity":64,"Duration":147830,"SoundDuration":147830,"Delta":184634158},{"NoteNumber":79,"Velocity":71,"Duration":147830,"SoundDuration":147830,"Delta":184781989},{"NoteNumber":78,"Velocity":64,"Duration":147830,"SoundDuration":147830,"Delta":184929820},{"NoteNumber":76,"Velocity":62,"Duration":147830,"SoundDuration":147830,"Delta":185077650},{"NoteNumber":74,"Velocity":72,"Duration":147830,"SoundDuration":147830,"Delta":185225481},{"NoteNumber":72,"Velocity":67,"Duration":147830,"SoundDuration":147830,"Delta":185373312},{"NoteNumber":71,"Velocity":67,"Duration":171983,"SoundDuration":171983,"Delta":185521142},{"NoteNumber":69,"Velocity":41,"Duration":81186,"SoundDuration":81186,"Delta":185693126},{"NoteNumber":50,"Velocity":50,"Duration":162041,"SoundDuration":162041,"Delta":185693126},{"NoteNumber":71,"Velocity":39,"Duration":80855,"SoundDuration":80855,"Delta":185774312},{"NoteNumber":69,"Velocity":46,"Duration":80315,"SoundDuration":80315,"Delta":185855168},{"NoteNumber":54,"Velocity":45,"Duration":160135,"SoundDuration":160135,"Delta":185855168},{"NoteNumber":71,"Velocity":44,"Duration":79819,"SoundDuration":79819,"Delta":185935484},{"NoteNumber":69,"Velocity":49,"Duration":79324,"SoundDuration":79324,"Delta":186015303},{"NoteNumber":60,"Velocity":45,"Duration":158133,"SoundDuration":158133,"Delta":186015303},{"NoteNumber":71,"Velocity":46,"Duration":78808,"SoundDuration":78808,"Delta":186094628},{"NoteNumber":69,"Velocity":51,"Duration":78353,"SoundDuration":78353,"Delta":186173437},{"NoteNumber":50,"Velocity":51,"Duration":156184,"SoundDuration":156184,"Delta":186173437},{"NoteNumber":71,"Velocity":48,"Duration":77831,"SoundDuration":77831,"Delta":186251790},{"NoteNumber":69,"Velocity":54,"Duration":77379,"SoundDuration":77379,"Delta":186329621},{"NoteNumber":54,"Velocity":46,"Duration":154279,"SoundDuration":154279,"Delta":186329621},{"NoteNumber":71,"Velocity":49,"Duration":76899,"SoundDuration":76899,"Delta":186407001},{"NoteNumber":69,"Velocity":57,"Duration":76498,"SoundDuration":76498,"Delta":186483900},{"NoteNumber":60,"Velocity":47,"Duration":152957,"SoundDuration":152957,"Delta":186483900},{"NoteNumber":71,"Velocity":53,"Duration":76458,"SoundDuration":76458,"Delta":186560399},{"NoteNumber":69,"Velocity":56,"Duration":76458,"SoundDuration":76458,"Delta":186636858},{"NoteNumber":50,"Velocity":52,"Duration":153122,"SoundDuration":153122,"Delta":186636858},{"NoteNumber":71,"Velocity":51,"Duration":76663,"SoundDuration":76663,"Delta":186713316},{"NoteNumber":69,"Velocity":56,"Duration":76751,"SoundDuration":76751,"Delta":186789980},{"NoteNumber":54,"Velocity":48,"Duration":153503,"SoundDuration":153503,"Delta":186789980},{"NoteNumber":71,"Velocity":50,"Duration":76751,"SoundDuration":76751,"Delta":186866732},{"NoteNumber":69,"Velocity":56,"Duration":76914,"SoundDuration":76914,"Delta":186943484},{"NoteNumber":60,"Velocity":49,"Duration":153961,"SoundDuration":153961,"Delta":186943484},{"NoteNumber":71,"Velocity":51,"Duration":77047,"SoundDuration":77047,"Delta":187020398},{"NoteNumber":69,"Velocity":54,"Duration":77047,"SoundDuration":77047,"Delta":187097446},{"NoteNumber":50,"Velocity":54,"Duration":154210,"SoundDuration":154210,"Delta":187097446},{"NoteNumber":71,"Velocity":49,"Duration":77162,"SoundDuration":77162,"Delta":187174493},{"NoteNumber":69,"Velocity":53,"Duration":77744,"SoundDuration":77744,"Delta":187251656},{"NoteNumber":54,"Velocity":49,"Duration":156457,"SoundDuration":156457,"Delta":187251656},{"NoteNumber":71,"Velocity":49,"Duration":58940,"SoundDuration":58940,"Delta":187329401},{"NoteNumber":69,"Velocity":53,"Duration":59493,"SoundDuration":59493,"Delta":187388341},{"NoteNumber":60,"Velocity":50,"Duration":160418,"SoundDuration":160418,"Delta":187408114},{"NoteNumber":67,"Velocity":49,"Duration":60065,"SoundDuration":60065,"Delta":187447835},{"NoteNumber":69,"Velocity":49,"Duration":60631,"SoundDuration":60631,"Delta":187507901},{"NoteNumber":67,"Velocity":49,"Duration":143071,"SoundDuration":143071,"Delta":187568532},{"NoteNumber":59,"Velocity":59,"Duration":429214,"SoundDuration":429214,"Delta":187568532},{"NoteNumber":55,"Velocity":50,"Duration":429214,"SoundDuration":429214,"Delta":187568532},{"NoteNumber":71,"Velocity":32,"Duration":143071,"SoundDuration":143071,"Delta":187711604},{"NoteNumber":74,"Velocity":32,"Duration":143071,"SoundDuration":143071,"Delta":187854676},{"NoteNumber":71,"Velocity":48,"Duration":143071,"SoundDuration":143071,"Delta":187997747},{"NoteNumber":74,"Velocity":32,"Duration":143071,"SoundDuration":143071,"Delta":188140819},{"NoteNumber":79,"Velocity":29,"Duration":143071,"SoundDuration":143071,"Delta":188283891},{"NoteNumber":71,"Velocity":41,"Duration":143071,"SoundDuration":143071,"Delta":188426962},{"NoteNumber":74,"Velocity":28,"Duration":143071,"SoundDuration":143071,"Delta":188570034},{"NoteNumber":79,"Velocity":28,"Duration":152917,"SoundDuration":152917,"Delta":188713106},{"NoteNumber":71,"Velocity":41,"Duration":142561,"SoundDuration":142561,"Delta":188866023},{"NoteNumber":67,"Velocity":40,"Duration":213842,"SoundDuration":213842,"Delta":188866023},{"NoteNumber":74,"Velocity":29,"Duration":142561,"SoundDuration":142561,"Delta":189008585},{"NoteNumber":79,"Velocity":29,"Duration":142561,"SoundDuration":142561,"Delta":189151147},{"NoteNumber":73,"Velocity":41,"Duration":142561,"SoundDuration":142561,"Delta":189293709},{"NoteNumber":64,"Velocity":45,"Duration":213842,"SoundDuration":213842,"Delta":189293709},{"NoteNumber":76,"Velocity":29,"Duration":142561,"SoundDuration":142561,"Delta":189436271},{"NoteNumber":79,"Velocity":29,"Duration":142561,"SoundDuration":142561,"Delta":189578833},{"NoteNumber":73,"Velocity":41,"Duration":142561,"SoundDuration":142561,"Delta":189721395},{"NoteNumber":64,"Velocity":40,"Duration":213843,"SoundDuration":213843,"Delta":189721395},{"NoteNumber":76,"Velocity":29,"Duration":142562,"SoundDuration":142562,"Delta":189863957},{"NoteNumber":79,"Velocity":29,"Duration":151756,"SoundDuration":151756,"Delta":190006519},{"NoteNumber":73,"Velocity":41,"Duration":142561,"SoundDuration":142561,"Delta":190158275},{"NoteNumber":69,"Velocity":37,"Duration":213842,"SoundDuration":213842,"Delta":190158275},{"NoteNumber":76,"Velocity":29,"Duration":142561,"SoundDuration":142561,"Delta":190300837},{"NoteNumber":79,"Velocity":29,"Duration":142561,"SoundDuration":142561,"Delta":190443399},{"NoteNumber":73,"Velocity":41,"Duration":142561,"SoundDuration":142561,"Delta":190585961},{"NoteNumber":69,"Velocity":40,"Duration":213842,"SoundDuration":213842,"Delta":190585961},{"NoteNumber":76,"Velocity":30,"Duration":142562,"SoundDuration":142562,"Delta":190728523},{"NoteNumber":79,"Velocity":30,"Duration":162879,"SoundDuration":162879,"Delta":190871085},{"NoteNumber":72,"Velocity":41,"Duration":142561,"SoundDuration":142561,"Delta":191033965},{"NoteNumber":62,"Velocity":45,"Duration":865727,"SoundDuration":865727,"Delta":191033965},{"NoteNumber":74,"Velocity":29,"Duration":142561,"SoundDuration":142561,"Delta":191176527},{"NoteNumber":78,"Velocity":29,"Duration":142561,"SoundDuration":142561,"Delta":191319089},{"NoteNumber":72,"Velocity":41,"Duration":142561,"SoundDuration":142561,"Delta":191461651},{"NoteNumber":74,"Velocity":29,"Duration":142562,"SoundDuration":142562,"Delta":191604213},{"NoteNumber":78,"Velocity":29,"Duration":152917,"SoundDuration":152917,"Delta":191746775},{"NoteNumber":71,"Velocity":41,"Duration":142561,"SoundDuration":142561,"Delta":191899692},{"NoteNumber":67,"Velocity":37,"Duration":213842,"SoundDuration":213842,"Delta":191899692},{"NoteNumber":74,"Velocity":29,"Duration":142561,"SoundDuration":142561,"Delta":192042254},{"NoteNumber":79,"Velocity":29,"Duration":142561,"SoundDuration":142561,"Delta":192184816},{"NoteNumber":71,"Velocity":41,"Duration":142561,"SoundDuration":142561,"Delta":192327378},{"NoteNumber":67,"Velocity":40,"Duration":213842,"SoundDuration":213842,"Delta":192327378},{"NoteNumber":74,"Velocity":30,"Duration":142562,"SoundDuration":142562,"Delta":192469940},{"NoteNumber":79,"Velocity":30,"Duration":158995,"SoundDuration":158995,"Delta":192612502},{"NoteNumber":69,"Velocity":41,"Duration":142055,"SoundDuration":142055,"Delta":192771497},{"NoteNumber":60,"Velocity":45,"Duration":213083,"SoundDuration":213083,"Delta":192771497},{"NoteNumber":72,"Velocity":29,"Duration":142055,"SoundDuration":142055,"Delta":192913553},{"NoteNumber":76,"Velocity":29,"Duration":142055,"SoundDuration":142055,"Delta":193055608},{"NoteNumber":69,"Velocity":41,"Duration":142055,"SoundDuration":142055,"Delta":193197664},{"NoteNumber":60,"Velocity":40,"Duration":213083,"SoundDuration":213083,"Delta":193197664},{"NoteNumber":72,"Velocity":29,"Duration":142055,"SoundDuration":142055,"Delta":193339720},{"NoteNumber":76,"Velocity":37,"Duration":157121,"SoundDuration":157121,"Delta":193481775},{"NoteNumber":66,"Velocity":41,"Duration":142561,"SoundDuration":142561,"Delta":193638897},{"NoteNumber":62,"Velocity":37,"Duration":213842,"SoundDuration":213842,"Delta":193638897},{"NoteNumber":69,"Velocity":29,"Duration":142561,"SoundDuration":142561,"Delta":193781459},{"NoteNumber":74,"Velocity":29,"Duration":142561,"SoundDuration":142561,"Delta":193924021},{"NoteNumber":66,"Velocity":41,"Duration":142561,"SoundDuration":142561,"Delta":194066583},{"NoteNumber":62,"Velocity":40,"Duration":213842,"SoundDuration":213842,"Delta":194066583},{"NoteNumber":69,"Velocity":30,"Duration":142562,"SoundDuration":142562,"Delta":194209145},{"NoteNumber":74,"Velocity":30,"Duration":161563,"SoundDuration":161563,"Delta":194351707},{"NoteNumber":67,"Velocity":49,"Duration":143071,"SoundDuration":143071,"Delta":194513271},{"NoteNumber":59,"Velocity":50,"Duration":429214,"SoundDuration":429214,"Delta":194513271},{"NoteNumber":55,"Velocity":42,"Duration":429214,"SoundDuration":429214,"Delta":194513271},{"NoteNumber":71,"Velocity":30,"Duration":143071,"SoundDuration":143071,"Delta":194656343},{"NoteNumber":74,"Velocity":30,"Duration":143071,"SoundDuration":143071,"Delta":194799414},{"NoteNumber":71,"Velocity":46,"Duration":143071,"SoundDuration":143071,"Delta":194942486},{"NoteNumber":74,"Velocity":30,"Duration":143071,"SoundDuration":143071,"Delta":195085558},{"NoteNumber":79,"Velocity":30,"Duration":143071,"SoundDuration":143071,"Delta":195228629},{"NoteNumber":71,"Velocity":41,"Duration":143071,"SoundDuration":143071,"Delta":195371701},{"NoteNumber":74,"Velocity":28,"Duration":143071,"SoundDuration":143071,"Delta":195514773},{"NoteNumber":79,"Velocity":28,"Duration":152917,"SoundDuration":152917,"Delta":195657844},{"NoteNumber":71,"Velocity":45,"Duration":142561,"SoundDuration":142561,"Delta":195810761},{"NoteNumber":55,"Velocity":44,"Duration":213842,"SoundDuration":213842,"Delta":195810761},{"NoteNumber":74,"Velocity":32,"Duration":142561,"SoundDuration":142561,"Delta":195953323},{"NoteNumber":79,"Velocity":32,"Duration":142561,"SoundDuration":142561,"Delta":196095885},{"NoteNumber":73,"Velocity":46,"Duration":142561,"SoundDuration":142561,"Delta":196238447},{"NoteNumber":52,"Velocity":50,"Duration":213842,"SoundDuration":213842,"Delta":196238447},{"NoteNumber":76,"Velocity":33,"Duration":142561,"SoundDuration":142561,"Delta":196381009},{"NoteNumber":79,"Velocity":33,"Duration":142561,"SoundDuration":142561,"Delta":196523571},{"NoteNumber":73,"Velocity":47,"Duration":142561,"SoundDuration":142561,"Delta":196666133},{"NoteNumber":52,"Velocity":46,"Duration":213843,"SoundDuration":213843,"Delta":196666133},{"NoteNumber":76,"Velocity":34,"Duration":142562,"SoundDuration":142562,"Delta":196808695},{"NoteNumber":79,"Velocity":34,"Duration":151756,"SoundDuration":151756,"Delta":196951257},{"NoteNumber":73,"Velocity":49,"Duration":142561,"SoundDuration":142561,"Delta":197103014},{"NoteNumber":57,"Velocity":45,"Duration":213842,"SoundDuration":213842,"Delta":197103014},{"NoteNumber":76,"Velocity":36,"Duration":142561,"SoundDuration":142561,"Delta":197245576},{"NoteNumber":79,"Velocity":36,"Duration":142561,"SoundDuration":142561,"Delta":197388138},{"NoteNumber":73,"Velocity":52,"Duration":142561,"SoundDuration":142561,"Delta":197530700},{"NoteNumber":57,"Velocity":50,"Duration":213842,"SoundDuration":213842,"Delta":197530700},{"NoteNumber":76,"Velocity":38,"Duration":142562,"SoundDuration":142562,"Delta":197673262},{"NoteNumber":79,"Velocity":39,"Duration":162879,"SoundDuration":162879,"Delta":197815824},{"NoteNumber":72,"Velocity":43,"Duration":142561,"SoundDuration":142561,"Delta":197978704},{"NoteNumber":50,"Velocity":59,"Duration":865727,"SoundDuration":865727,"Delta":197978704},{"NoteNumber":74,"Velocity":39,"Duration":142561,"SoundDuration":142561,"Delta":198121266},{"NoteNumber":78,"Velocity":39,"Duration":142561,"SoundDuration":142561,"Delta":198263828},{"NoteNumber":72,"Velocity":55,"Duration":142561,"SoundDuration":142561,"Delta":198406390},{"NoteNumber":74,"Velocity":39,"Duration":142562,"SoundDuration":142562,"Delta":198548952},{"NoteNumber":78,"Velocity":40,"Duration":152917,"SoundDuration":152917,"Delta":198691514},{"NoteNumber":71,"Velocity":56,"Duration":142561,"SoundDuration":142561,"Delta":198844431},{"NoteNumber":55,"Velocity":50,"Duration":213842,"SoundDuration":213842,"Delta":198844431},{"NoteNumber":74,"Velocity":40,"Duration":142561,"SoundDuration":142561,"Delta":198986993},{"NoteNumber":79,"Velocity":41,"Duration":142561,"SoundDuration":142561,"Delta":199129555},{"NoteNumber":71,"Velocity":58,"Duration":142561,"SoundDuration":142561,"Delta":199272117},{"NoteNumber":55,"Velocity":57,"Duration":213842,"SoundDuration":213842,"Delta":199272117},{"NoteNumber":74,"Velocity":43,"Duration":142562,"SoundDuration":142562,"Delta":199414679},{"NoteNumber":79,"Velocity":44,"Duration":158995,"SoundDuration":158995,"Delta":199557241},{"NoteNumber":69,"Velocity":63,"Duration":142055,"SoundDuration":142055,"Delta":199716236},{"NoteNumber":60,"Velocity":68,"Duration":213083,"SoundDuration":213083,"Delta":199716236},{"NoteNumber":48,"Velocity":57,"Duration":213083,"SoundDuration":213083,"Delta":199716236},{"NoteNumber":72,"Velocity":44,"Duration":142055,"SoundDuration":142055,"Delta":199858291},{"NoteNumber":76,"Velocity":45,"Duration":142055,"SoundDuration":142055,"Delta":200000347},{"NoteNumber":69,"Velocity":64,"Duration":142055,"SoundDuration":142055,"Delta":200142403},{"NoteNumber":60,"Velocity":63,"Duration":213083,"SoundDuration":213083,"Delta":200142403},{"NoteNumber":48,"Velocity":52,"Duration":213083,"SoundDuration":213083,"Delta":200142403},{"NoteNumber":72,"Velocity":45,"Duration":142055,"SoundDuration":142055,"Delta":200284458},{"NoteNumber":76,"Velocity":46,"Duration":157121,"SoundDuration":157121,"Delta":200426514},{"NoteNumber":66,"Velocity":64,"Duration":142561,"SoundDuration":142561,"Delta":200583636},{"NoteNumber":62,"Velocity":58,"Duration":213842,"SoundDuration":213842,"Delta":200583636},{"NoteNumber":50,"Velocity":48,"Duration":213842,"SoundDuration":213842,"Delta":200583636},{"NoteNumber":69,"Velocity":46,"Duration":142561,"SoundDuration":142561,"Delta":200726198},{"NoteNumber":74,"Velocity":46,"Duration":142561,"SoundDuration":142561,"Delta":200868760},{"NoteNumber":66,"Velocity":66,"Duration":142561,"SoundDuration":142561,"Delta":201011322},{"NoteNumber":62,"Velocity":64,"Duration":213842,"SoundDuration":213842,"Delta":201011322},{"NoteNumber":50,"Velocity":54,"Duration":213842,"SoundDuration":213842,"Delta":201011322},{"NoteNumber":69,"Velocity":48,"Duration":142562,"SoundDuration":142562,"Delta":201153884},{"NoteNumber":74,"Velocity":48,"Duration":161563,"SoundDuration":161563,"Delta":201296446},{"NoteNumber":67,"Velocity":73,"Duration":427685,"SoundDuration":427685,"Delta":201458010},{"NoteNumber":55,"Velocity":56,"Duration":142561,"SoundDuration":142561,"Delta":201458010},{"NoteNumber":59,"Velocity":48,"Duration":142561,"SoundDuration":142561,"Delta":201600572},{"NoteNumber":62,"Velocity":47,"Duration":142561,"SoundDuration":142561,"Delta":201743134},{"NoteNumber":55,"Velocity":56,"Duration":142561,"SoundDuration":142561,"Delta":201885696},{"NoteNumber":59,"Velocity":48,"Duration":142561,"SoundDuration":142561,"Delta":202028258},{"NoteNumber":62,"Velocity":48,"Duration":142561,"SoundDuration":142561,"Delta":202170820},{"NoteNumber":55,"Velocity":56,"Duration":142561,"SoundDuration":142561,"Delta":202313382},{"NoteNumber":59,"Velocity":49,"Duration":142562,"SoundDuration":142562,"Delta":202455944},{"NoteNumber":62,"Velocity":49,"Duration":142561,"SoundDuration":142561,"Delta":202598506},{"NoteNumber":76,"Velocity":65,"Duration":53460,"SoundDuration":53460,"Delta":202687607},{"NoteNumber":74,"Velocity":70,"Duration":146209,"SoundDuration":146209,"Delta":202741068},{"NoteNumber":54,"Velocity":56,"Duration":146209,"SoundDuration":146209,"Delta":202741068},{"NoteNumber":73,"Velocity":66,"Duration":146209,"SoundDuration":146209,"Delta":202887277},{"NoteNumber":57,"Velocity":48,"Duration":146209,"SoundDuration":146209,"Delta":202887277},{"NoteNumber":74,"Velocity":66,"Duration":160913,"SoundDuration":160913,"Delta":203033487},{"NoteNumber":62,"Velocity":49,"Duration":160913,"SoundDuration":160913,"Delta":203033487},{"NoteNumber":71,"Velocity":70,"Duration":213842,"SoundDuration":213842,"Delta":203194401},{"NoteNumber":79,"Velocity":76,"Duration":213842,"SoundDuration":213842,"Delta":203194401},{"NoteNumber":55,"Velocity":56,"Duration":142561,"SoundDuration":142561,"Delta":203194401},{"NoteNumber":59,"Velocity":49,"Duration":142561,"SoundDuration":142561,"Delta":203336963},{"NoteNumber":62,"Velocity":49,"Duration":142561,"SoundDuration":142561,"Delta":203479525},{"NoteNumber":55,"Velocity":56,"Duration":142561,"SoundDuration":142561,"Delta":203622087},{"NoteNumber":59,"Velocity":49,"Duration":142561,"SoundDuration":142561,"Delta":203764649},{"NoteNumber":62,"Velocity":49,"Duration":142561,"SoundDuration":142561,"Delta":203907211},{"NoteNumber":55,"Velocity":56,"Duration":142561,"SoundDuration":142561,"Delta":204049773},{"NoteNumber":59,"Velocity":50,"Duration":142562,"SoundDuration":142562,"Delta":204192335},{"NoteNumber":62,"Velocity":50,"Duration":142561,"SoundDuration":142561,"Delta":204334897},{"NoteNumber":76,"Velocity":65,"Duration":53460,"SoundDuration":53460,"Delta":204423998},{"NoteNumber":74,"Velocity":70,"Duration":145148,"SoundDuration":145148,"Delta":204477459},{"NoteNumber":54,"Velocity":56,"Duration":145148,"SoundDuration":145148,"Delta":204477459},{"NoteNumber":73,"Velocity":66,"Duration":145148,"SoundDuration":145148,"Delta":204622607},{"NoteNumber":57,"Velocity":49,"Duration":145148,"SoundDuration":145148,"Delta":204622607},{"NoteNumber":74,"Velocity":66,"Duration":163545,"SoundDuration":163545,"Delta":204767756},{"NoteNumber":62,"Velocity":49,"Duration":163545,"SoundDuration":163545,"Delta":204767756},{"NoteNumber":71,"Velocity":70,"Duration":230255,"SoundDuration":230255,"Delta":204931301},{"NoteNumber":79,"Velocity":76,"Duration":230255,"SoundDuration":230255,"Delta":204931301},{"NoteNumber":55,"Velocity":56,"Duration":153503,"SoundDuration":153503,"Delta":204931301},{"NoteNumber":59,"Velocity":50,"Duration":153503,"SoundDuration":153503,"Delta":205084805},{"NoteNumber":62,"Velocity":50,"Duration":153503,"SoundDuration":153503,"Delta":205238309},{"NoteNumber":55,"Velocity":56,"Duration":158995,"SoundDuration":158995,"Delta":205391812},{"NoteNumber":59,"Velocity":49,"Duration":158995,"SoundDuration":158995,"Delta":205550807},{"NoteNumber":62,"Velocity":49,"Duration":178110,"SoundDuration":178110,"Delta":205709802},{"NoteNumber":55,"Velocity":56,"Duration":536041,"SoundDuration":536041,"Delta":205887913},{"NoteNumber":76,"Velocity":43,"Duration":53460,"SoundDuration":53460,"Delta":206370494},{"NoteNumber":74,"Velocity":50,"Duration":142561,"SoundDuration":142561,"Delta":206423954},{"NoteNumber":73,"Velocity":45,"Duration":142561,"SoundDuration":142561,"Delta":206566516},{"NoteNumber":74,"Velocity":45,"Duration":142561,"SoundDuration":142561,"Delta":206709078},{"NoteNumber":81,"Velocity":50,"Duration":106921,"SoundDuration":106921,"Delta":206851640},{"NoteNumber":60,"Velocity":29,"Duration":142561,"SoundDuration":142561,"Delta":206851640},{"NoteNumber":66,"Velocity":20,"Duration":142561,"SoundDuration":142561,"Delta":206994202},{"NoteNumber":69,"Velocity":20,"Duration":142561,"SoundDuration":142561,"Delta":207136764},{"NoteNumber":81,"Velocity":46,"Duration":427686,"SoundDuration":427686,"Delta":207279326},{"NoteNumber":60,"Velocity":29,"Duration":142561,"SoundDuration":142561,"Delta":207279326},{"NoteNumber":66,"Velocity":20,"Duration":142562,"SoundDuration":142562,"Delta":207421888},{"NoteNumber":69,"Velocity":20,"Duration":142561,"SoundDuration":142561,"Delta":207564450},{"NoteNumber":78,"Velocity":50,"Duration":427685,"SoundDuration":427685,"Delta":207707012},{"NoteNumber":60,"Velocity":29,"Duration":142561,"SoundDuration":142561,"Delta":207707012},{"NoteNumber":66,"Velocity":21,"Duration":142561,"SoundDuration":142561,"Delta":207849574},{"NoteNumber":69,"Velocity":26,"Duration":142561,"SoundDuration":142561,"Delta":207992136},{"NoteNumber":74,"Velocity":50,"Duration":444119,"SoundDuration":444119,"Delta":208134698},{"NoteNumber":60,"Velocity":29,"Duration":142561,"SoundDuration":142561,"Delta":208134698},{"NoteNumber":66,"Velocity":21,"Duration":142561,"SoundDuration":142561,"Delta":208277260},{"NoteNumber":69,"Velocity":21,"Duration":158995,"SoundDuration":158995,"Delta":208419822},{"NoteNumber":86,"Velocity":62,"Duration":855371,"SoundDuration":855371,"Delta":208578817},{"NoteNumber":58,"Velocity":29,"Duration":142561,"SoundDuration":142561,"Delta":208578817},{"NoteNumber":62,"Velocity":20,"Duration":142561,"SoundDuration":142561,"Delta":208721379},{"NoteNumber":67,"Velocity":20,"Duration":142561,"SoundDuration":142561,"Delta":208863941},{"NoteNumber":58,"Velocity":29,"Duration":142561,"SoundDuration":142561,"Delta":209006503},{"NoteNumber":62,"Velocity":20,"Duration":142561,"SoundDuration":142561,"Delta":209149065},{"NoteNumber":67,"Velocity":20,"Duration":142561,"SoundDuration":142561,"Delta":209291627},{"NoteNumber":82,"Velocity":50,"Duration":213843,"SoundDuration":213843,"Delta":209434189},{"NoteNumber":58,"Velocity":29,"Duration":142561,"SoundDuration":142561,"Delta":209434189},{"NoteNumber":62,"Velocity":21,"Duration":142562,"SoundDuration":142562,"Delta":209576751},{"NoteNumber":67,"Velocity":20,"Duration":142561,"SoundDuration":142561,"Delta":209719313},{"NoteNumber":79,"Velocity":47,"Duration":218515,"SoundDuration":218515,"Delta":209861875},{"NoteNumber":58,"Velocity":29,"Duration":145677,"SoundDuration":145677,"Delta":209861875},{"NoteNumber":62,"Velocity":21,"Duration":145677,"SoundDuration":145677,"Delta":210007552},{"NoteNumber":67,"Velocity":21,"Duration":145676,"SoundDuration":145676,"Delta":210153229},{"NoteNumber":78,"Velocity":62,"Duration":213842,"SoundDuration":213842,"Delta":210298906},{"NoteNumber":57,"Velocity":33,"Duration":142561,"SoundDuration":142561,"Delta":210298906},{"NoteNumber":60,"Velocity":23,"Duration":142561,"SoundDuration":142561,"Delta":210441468},{"NoteNumber":62,"Velocity":23,"Duration":142561,"SoundDuration":142561,"Delta":210584030},{"NoteNumber":79,"Velocity":54,"Duration":53460,"SoundDuration":53460,"Delta":210673132},{"NoteNumber":78,"Velocity":62,"Duration":142561,"SoundDuration":142561,"Delta":210726592},{"NoteNumber":57,"Velocity":32,"Duration":142561,"SoundDuration":142561,"Delta":210726592},{"NoteNumber":76,"Velocity":50,"Duration":142561,"SoundDuration":142561,"Delta":210869154},{"NoteNumber":60,"Velocity":20,"Duration":142561,"SoundDuration":142561,"Delta":210869154},{"NoteNumber":78,"Velocity":50,"Duration":142561,"SoundDuration":142561,"Delta":211011716},{"NoteNumber":62,"Velocity":21,"Duration":142561,"SoundDuration":142561,"Delta":211011716},{"NoteNumber":79,"Velocity":64,"Duration":213843,"SoundDuration":213843,"Delta":211154278},{"NoteNumber":55,"Velocity":35,"Duration":142561,"SoundDuration":142561,"Delta":211154278},{"NoteNumber":58,"Velocity":25,"Duration":142562,"SoundDuration":142562,"Delta":211296840},{"NoteNumber":62,"Velocity":24,"Duration":142561,"SoundDuration":142561,"Delta":211439402},{"NoteNumber":75,"Velocity":61,"Duration":213842,"SoundDuration":213842,"Delta":211581964},{"NoteNumber":55,"Velocity":35,"Duration":142561,"SoundDuration":142561,"Delta":211581964},{"NoteNumber":58,"Velocity":25,"Duration":142561,"SoundDuration":142561,"Delta":211724526},{"NoteNumber":62,"Velocity":25,"Duration":165576,"SoundDuration":165576,"Delta":211867088},{"NoteNumber":73,"Velocity":65,"Duration":448464,"SoundDuration":448464,"Delta":212032665},{"NoteNumber":54,"Velocity":35,"Duration":149487,"SoundDuration":149487,"Delta":212032665},{"NoteNumber":57,"Velocity":24,"Duration":149488,"SoundDuration":149488,"Delta":212182153},{"NoteNumber":62,"Velocity":24,"Duration":149487,"SoundDuration":149487,"Delta":212331641},{"NoteNumber":74,"Velocity":63,"Duration":653167,"SoundDuration":653167,"Delta":212481129},{"NoteNumber":54,"Velocity":35,"Duration":145148,"SoundDuration":145148,"Delta":212481129},{"NoteNumber":57,"Velocity":23,"Duration":145148,"SoundDuration":145148,"Delta":212626277},{"NoteNumber":62,"Velocity":23,"Duration":145148,"SoundDuration":145148,"Delta":212771426},{"NoteNumber":54,"Velocity":29,"Duration":145148,"SoundDuration":145148,"Delta":212916574},{"NoteNumber":57,"Velocity":20,"Duration":145148,"SoundDuration":145148,"Delta":213061722},{"NoteNumber":62,"Velocity":20,"Duration":144178,"SoundDuration":144178,"Delta":213206871},{"NoteNumber":75,"Velocity":43,"Duration":53460,"SoundDuration":53460,"Delta":213297588},{"NoteNumber":74,"Velocity":50,"Duration":142561,"SoundDuration":142561,"Delta":213351049},{"NoteNumber":54,"Velocity":29,"Duration":142561,"SoundDuration":142561,"Delta":213351049},{"NoteNumber":73,"Velocity":45,"Duration":142561,"SoundDuration":142561,"Delta":213493611},{"NoteNumber":57,"Velocity":21,"Duration":142561,"SoundDuration":142561,"Delta":213493611},{"NoteNumber":74,"Velocity":45,"Duration":142561,"SoundDuration":142561,"Delta":213636173},{"NoteNumber":62,"Velocity":21,"Duration":142561,"SoundDuration":142561,"Delta":213636173},{"NoteNumber":75,"Velocity":50,"Duration":213842,"SoundDuration":213842,"Delta":213778735},{"NoteNumber":53,"Velocity":36,"Duration":142561,"SoundDuration":142561,"Delta":213778735},{"NoteNumber":57,"Velocity":24,"Duration":142561,"SoundDuration":142561,"Delta":213921297},{"NoteNumber":60,"Velocity":24,"Duration":142561,"SoundDuration":142561,"Delta":214063859},{"NoteNumber":75,"Velocity":46,"Duration":427686,"SoundDuration":427686,"Delta":214206421},{"NoteNumber":53,"Velocity":36,"Duration":142561,"SoundDuration":142561,"Delta":214206421},{"NoteNumber":57,"Velocity":25,"Duration":142562,"SoundDuration":142562,"Delta":214348983},{"NoteNumber":60,"Velocity":25,"Duration":142561,"SoundDuration":142561,"Delta":214491545},{"NoteNumber":72,"Velocity":50,"Duration":427685,"SoundDuration":427685,"Delta":214634107},{"NoteNumber":53,"Velocity":41,"Duration":142561,"SoundDuration":142561,"Delta":214634107},{"NoteNumber":57,"Velocity":26,"Duration":142561,"SoundDuration":142561,"Delta":214776669},{"NoteNumber":60,"Velocity":25,"Duration":142561,"SoundDuration":142561,"Delta":214919231},{"NoteNumber":69,"Velocity":50,"Duration":446165,"SoundDuration":446165,"Delta":215061793},{"NoteNumber":53,"Velocity":44,"Duration":143585,"SoundDuration":143585,"Delta":215061793},{"NoteNumber":57,"Velocity":30,"Duration":143585,"SoundDuration":143585,"Delta":215205379},{"NoteNumber":60,"Velocity":33,"Duration":158995,"SoundDuration":158995,"Delta":215348964},{"NoteNumber":79,"Velocity":62,"Duration":427685,"SoundDuration":427685,"Delta":215507959},{"NoteNumber":53,"Velocity":52,"Duration":142561,"SoundDuration":142561,"Delta":215507959},{"NoteNumber":58,"Velocity":31,"Duration":142561,"SoundDuration":142561,"Delta":215650521},{"NoteNumber":62,"Velocity":31,"Duration":142561,"SoundDuration":142561,"Delta":215793083},{"NoteNumber":77,"Velocity":50,"Duration":427685,"SoundDuration":427685,"Delta":215935645},{"NoteNumber":53,"Velocity":41,"Duration":142561,"SoundDuration":142561,"Delta":215935645},{"NoteNumber":58,"Velocity":28,"Duration":142561,"SoundDuration":142561,"Delta":216078207},{"NoteNumber":62,"Velocity":28,"Duration":142561,"SoundDuration":142561,"Delta":216220769},{"NoteNumber":74,"Velocity":56,"Duration":427686,"SoundDuration":427686,"Delta":216363331},{"NoteNumber":53,"Velocity":41,"Duration":142561,"SoundDuration":142561,"Delta":216363331},{"NoteNumber":58,"Velocity":29,"Duration":142562,"SoundDuration":142562,"Delta":216505893},{"NoteNumber":62,"Velocity":28,"Duration":142561,"SoundDuration":142561,"Delta":216648455},{"NoteNumber":70,"Velocity":50,"Duration":437030,"SoundDuration":437030,"Delta":216791017},{"NoteNumber":53,"Velocity":41,"Duration":145677,"SoundDuration":145677,"Delta":216791017},{"NoteNumber":58,"Velocity":29,"Duration":145677,"SoundDuration":145677,"Delta":216936694},{"NoteNumber":62,"Velocity":29,"Duration":145676,"SoundDuration":145676,"Delta":217082371},{"NoteNumber":67,"Velocity":63,"Duration":429214,"SoundDuration":429214,"Delta":217228048},{"NoteNumber":53,"Velocity":41,"Duration":143071,"SoundDuration":143071,"Delta":217228048},{"NoteNumber":60,"Velocity":28,"Duration":143071,"SoundDuration":143071,"Delta":217371120},{"NoteNumber":63,"Velocity":28,"Duration":143071,"SoundDuration":143071,"Delta":217514191},{"NoteNumber":72,"Velocity":48,"Duration":429214,"SoundDuration":429214,"Delta":217657263},{"NoteNumber":53,"Velocity":41,"Duration":143071,"SoundDuration":143071,"Delta":217657263},{"NoteNumber":60,"Velocity":28,"Duration":143071,"SoundDuration":143071,"Delta":217800335},{"NoteNumber":63,"Velocity":28,"Duration":143071,"SoundDuration":143071,"Delta":217943406},{"NoteNumber":69,"Velocity":61,"Duration":429214,"SoundDuration":429214,"Delta":218086478},{"NoteNumber":53,"Velocity":43,"Duration":143071,"SoundDuration":143071,"Delta":218086478},{"NoteNumber":60,"Velocity":29,"Duration":143071,"SoundDuration":143071,"Delta":218229550},{"NoteNumber":63,"Velocity":28,"Duration":143071,"SoundDuration":143071,"Delta":218372621},{"NoteNumber":65,"Velocity":55,"Duration":448315,"SoundDuration":448315,"Delta":218515693},{"NoteNumber":53,"Velocity":47,"Duration":146209,"SoundDuration":146209,"Delta":218515693},{"NoteNumber":60,"Velocity":33,"Duration":146209,"SoundDuration":146209,"Delta":218661903},{"NoteNumber":63,"Velocity":33,"Duration":155896,"SoundDuration":155896,"Delta":218808112},{"NoteNumber":70,"Velocity":56,"Duration":143071,"SoundDuration":143071,"Delta":218964009},{"NoteNumber":58,"Velocity":61,"Duration":429214,"SoundDuration":429214,"Delta":218964009},{"NoteNumber":65,"Velocity":34,"Duration":143071,"SoundDuration":143071,"Delta":219107081},{"NoteNumber":62,"Velocity":34,"Duration":143071,"SoundDuration":143071,"Delta":219250152},{"NoteNumber":70,"Velocity":52,"Duration":143071,"SoundDuration":143071,"Delta":219393224},{"NoteNumber":65,"Velocity":34,"Duration":143071,"SoundDuration":143071,"Delta":219536296},{"NoteNumber":62,"Velocity":34,"Duration":143071,"SoundDuration":143071,"Delta":219679367},{"NoteNumber":70,"Velocity":47,"Duration":143071,"SoundDuration":143071,"Delta":219822439},{"NoteNumber":65,"Velocity":32,"Duration":143071,"SoundDuration":143071,"Delta":219965511},{"NoteNumber":62,"Velocity":32,"Duration":152917,"SoundDuration":152917,"Delta":220108582},{"NoteNumber":70,"Velocity":51,"Duration":141153,"SoundDuration":141153,"Delta":220261499},{"NoteNumber":56,"Velocity":54,"Duration":211729,"SoundDuration":211729,"Delta":220261499},{"NoteNumber":65,"Velocity":36,"Duration":141153,"SoundDuration":141153,"Delta":220402653},{"NoteNumber":62,"Velocity":36,"Duration":141153,"SoundDuration":141153,"Delta":220543806},{"NoteNumber":71,"Velocity":52,"Duration":141153,"SoundDuration":141153,"Delta":220684959},{"NoteNumber":55,"Velocity":65,"Duration":211729,"SoundDuration":211729,"Delta":220684959},{"NoteNumber":65,"Velocity":38,"Duration":141153,"SoundDuration":141153,"Delta":220826113},{"NoteNumber":62,"Velocity":38,"Duration":141153,"SoundDuration":141153,"Delta":220967266},{"NoteNumber":71,"Velocity":54,"Duration":141153,"SoundDuration":141153,"Delta":221108419},{"NoteNumber":55,"Velocity":57,"Duration":211729,"SoundDuration":211729,"Delta":221108419},{"NoteNumber":65,"Velocity":39,"Duration":141153,"SoundDuration":141153,"Delta":221249573},{"NoteNumber":62,"Velocity":39,"Duration":151756,"SoundDuration":151756,"Delta":221390726},{"NoteNumber":71,"Velocity":55,"Duration":142561,"SoundDuration":142561,"Delta":221542483},{"NoteNumber":43,"Velocity":65,"Duration":213842,"SoundDuration":213842,"Delta":221542483},{"NoteNumber":65,"Velocity":40,"Duration":142561,"SoundDuration":142561,"Delta":221685045},{"NoteNumber":62,"Velocity":40,"Duration":142561,"SoundDuration":142561,"Delta":221827607},{"NoteNumber":71,"Velocity":57,"Duration":142561,"SoundDuration":142561,"Delta":221970169},{"NoteNumber":43,"Velocity":57,"Duration":213842,"SoundDuration":213842,"Delta":221970169},{"NoteNumber":65,"Velocity":41,"Duration":142562,"SoundDuration":142562,"Delta":222112731},{"NoteNumber":62,"Velocity":42,"Duration":162879,"SoundDuration":162879,"Delta":222255293},{"NoteNumber":48,"Velocity":67,"Duration":865727,"SoundDuration":865727,"Delta":222418172},{"NoteNumber":36,"Velocity":67,"Duration":865727,"SoundDuration":865727,"Delta":222418172},{"NoteNumber":60,"Velocity":52,"Duration":142561,"SoundDuration":142561,"Delta":222560734},{"NoteNumber":63,"Velocity":52,"Duration":142561,"SoundDuration":142561,"Delta":222703296},{"NoteNumber":67,"Velocity":58,"Duration":142561,"SoundDuration":142561,"Delta":222845858},{"NoteNumber":63,"Velocity":52,"Duration":142561,"SoundDuration":142561,"Delta":222988420},{"NoteNumber":67,"Velocity":52,"Duration":152917,"SoundDuration":152917,"Delta":223130982},{"NoteNumber":72,"Velocity":58,"Duration":142561,"SoundDuration":142561,"Delta":223283899},{"NoteNumber":67,"Velocity":52,"Duration":142561,"SoundDuration":142561,"Delta":223426461},{"NoteNumber":63,"Velocity":54,"Duration":142561,"SoundDuration":142561,"Delta":223569023},{"NoteNumber":72,"Velocity":51,"Duration":142561,"SoundDuration":142561,"Delta":223711585},{"NoteNumber":58,"Velocity":54,"Duration":213842,"SoundDuration":213842,"Delta":223711585},{"NoteNumber":67,"Velocity":46,"Duration":142561,"SoundDuration":142561,"Delta":223854147},{"NoteNumber":63,"Velocity":46,"Duration":142561,"SoundDuration":142561,"Delta":223996709},{"NoteNumber":73,"Velocity":52,"Duration":141153,"SoundDuration":141153,"Delta":224139271},{"NoteNumber":57,"Velocity":65,"Duration":211729,"SoundDuration":211729,"Delta":224139271},{"NoteNumber":67,"Velocity":38,"Duration":141153,"SoundDuration":141153,"Delta":224280425},{"NoteNumber":64,"Velocity":38,"Duration":141153,"SoundDuration":141153,"Delta":224421578},{"NoteNumber":73,"Velocity":54,"Duration":141153,"SoundDuration":141153,"Delta":224562731},{"NoteNumber":57,"Velocity":57,"Duration":211729,"SoundDuration":211729,"Delta":224562731},{"NoteNumber":67,"Velocity":39,"Duration":141153,"SoundDuration":141153,"Delta":224703885},{"NoteNumber":64,"Velocity":39,"Duration":146853,"SoundDuration":146853,"Delta":224845038},{"NoteNumber":73,"Velocity":55,"Duration":141153,"SoundDuration":141153,"Delta":224991892},{"NoteNumber":45,"Velocity":65,"Duration":211729,"SoundDuration":211729,"Delta":224991892},{"NoteNumber":67,"Velocity":40,"Duration":141153,"SoundDuration":141153,"Delta":225133045},{"NoteNumber":64,"Velocity":40,"Duration":141153,"SoundDuration":141153,"Delta":225274198},{"NoteNumber":73,"Velocity":57,"Duration":141153,"SoundDuration":141153,"Delta":225415352},{"NoteNumber":45,"Velocity":57,"Duration":211729,"SoundDuration":211729,"Delta":225415352},{"NoteNumber":67,"Velocity":41,"Duration":141153,"SoundDuration":141153,"Delta":225556505},{"NoteNumber":64,"Velocity":42,"Duration":162879,"SoundDuration":162879,"Delta":225697658},{"NoteNumber":50,"Velocity":67,"Duration":1729985,"SoundDuration":1729985,"Delta":225860538},{"NoteNumber":38,"Velocity":67,"Duration":1729985,"SoundDuration":1729985,"Delta":225860538},{"NoteNumber":62,"Velocity":52,"Duration":141653,"SoundDuration":141653,"Delta":226002191},{"NoteNumber":66,"Velocity":52,"Duration":141652,"SoundDuration":141652,"Delta":226143844},{"NoteNumber":69,"Velocity":58,"Duration":141652,"SoundDuration":141652,"Delta":226285497},{"NoteNumber":66,"Velocity":52,"Duration":141652,"SoundDuration":141652,"Delta":226427150},{"NoteNumber":69,"Velocity":52,"Duration":152917,"SoundDuration":152917,"Delta":226568803},{"NoteNumber":74,"Velocity":58,"Duration":142562,"SoundDuration":142562,"Delta":226721720},{"NoteNumber":69,"Velocity":52,"Duration":141652,"SoundDuration":141652,"Delta":226864282},{"NoteNumber":66,"Velocity":54,"Duration":141653,"SoundDuration":141653,"Delta":227005935},{"NoteNumber":69,"Velocity":58,"Duration":141652,"SoundDuration":141652,"Delta":227147588},{"NoteNumber":66,"Velocity":53,"Duration":141652,"SoundDuration":141652,"Delta":227289241},{"NoteNumber":62,"Velocity":53,"Duration":159629,"SoundDuration":159629,"Delta":227430894},{"NoteNumber":50,"Velocity":67,"Duration":1738166,"SoundDuration":1738166,"Delta":227590524},{"NoteNumber":38,"Velocity":67,"Duration":1738166,"SoundDuration":1738166,"Delta":227590524},{"NoteNumber":62,"Velocity":52,"Duration":142561,"SoundDuration":142561,"Delta":227733086},{"NoteNumber":67,"Velocity":52,"Duration":142561,"SoundDuration":142561,"Delta":227875648},{"NoteNumber":70,"Velocity":58,"Duration":142561,"SoundDuration":142561,"Delta":228018210},{"NoteNumber":67,"Velocity":52,"Duration":142561,"SoundDuration":142561,"Delta":228160772},{"NoteNumber":70,"Velocity":52,"Duration":152917,"SoundDuration":152917,"Delta":228303334},{"NoteNumber":74,"Velocity":58,"Duration":142561,"SoundDuration":142561,"Delta":228456251},{"NoteNumber":70,"Velocity":52,"Duration":142561,"SoundDuration":142561,"Delta":228598813},{"NoteNumber":67,"Velocity":54,"Duration":142561,"SoundDuration":142561,"Delta":228741375},{"NoteNumber":70,"Velocity":58,"Duration":142561,"SoundDuration":142561,"Delta":228883937},{"NoteNumber":67,"Velocity":53,"Duration":142561,"SoundDuration":142561,"Delta":229026499},{"NoteNumber":62,"Velocity":53,"Duration":159629,"SoundDuration":159629,"Delta":229169061},{"NoteNumber":38,"Velocity":67,"Duration":1731263,"SoundDuration":1731263,"Delta":229328690},{"NoteNumber":50,"Velocity":67,"Duration":1731263,"SoundDuration":1731263,"Delta":229328690},{"NoteNumber":62,"Velocity":50,"Duration":146023,"SoundDuration":146023,"Delta":229475906},{"NoteNumber":64,"Velocity":50,"Duration":145630,"SoundDuration":145630,"Delta":229621930},{"NoteNumber":66,"Velocity":50,"Duration":145148,"SoundDuration":145148,"Delta":229767560},{"NoteNumber":67,"Velocity":50,"Duration":144715,"SoundDuration":144715,"Delta":229912709},{"NoteNumber":69,"Velocity":50,"Duration":144415,"SoundDuration":144415,"Delta":230057424},{"NoteNumber":71,"Velocity":50,"Duration":144031,"SoundDuration":144031,"Delta":230201839},{"NoteNumber":73,"Velocity":50,"Duration":143585,"SoundDuration":143585,"Delta":230345871},{"NoteNumber":74,"Velocity":50,"Duration":143135,"SoundDuration":143135,"Delta":230489456},{"NoteNumber":76,"Velocity":52,"Duration":142839,"SoundDuration":142839,"Delta":230632592},{"NoteNumber":78,"Velocity":53,"Duration":142467,"SoundDuration":142467,"Delta":230775431},{"NoteNumber":79,"Velocity":54,"Duration":142055,"SoundDuration":142055,"Delta":230917898},{"NoteNumber":81,"Velocity":55,"Duration":141590,"SoundDuration":141590,"Delta":231059954},{"NoteNumber":83,"Velocity":56,"Duration":141552,"SoundDuration":141552,"Delta":231201545},{"NoteNumber":85,"Velocity":60,"Duration":154095,"SoundDuration":154095,"Delta":231343098},{"NoteNumber":86,"Velocity":66,"Duration":141053,"SoundDuration":141053,"Delta":231497193},{"NoteNumber":81,"Velocity":59,"Duration":141053,"SoundDuration":141053,"Delta":231638246},{"NoteNumber":78,"Velocity":53,"Duration":141220,"SoundDuration":141220,"Delta":231779300},{"NoteNumber":74,"Velocity":58,"Duration":142987,"SoundDuration":142987,"Delta":231920521},{"NoteNumber":69,"Velocity":54,"Duration":144638,"SoundDuration":144638,"Delta":232063508},{"NoteNumber":66,"Velocity":54,"Duration":146465,"SoundDuration":146465,"Delta":232208146},{"NoteNumber":62,"Velocity":56,"Duration":158597,"SoundDuration":158597,"Delta":232354611},{"NoteNumber":57,"Velocity":54,"Duration":165995,"SoundDuration":165995,"Delta":232513209},{"NoteNumber":54,"Velocity":54,"Duration":173597,"SoundDuration":173597,"Delta":232679205},{"NoteNumber":50,"Velocity":65,"Duration":1609967,"SoundDuration":1609967,"Delta":232852803},{"NoteNumber":81,"Velocity":43,"Duration":53460,"SoundDuration":53460,"Delta":234409310},{"NoteNumber":79,"Velocity":50,"Duration":142561,"SoundDuration":142561,"Delta":234462770},{"NoteNumber":78,"Velocity":45,"Duration":142561,"SoundDuration":142561,"Delta":234605332},{"NoteNumber":79,"Velocity":45,"Duration":142561,"SoundDuration":142561,"Delta":234747894},{"NoteNumber":83,"Velocity":50,"Duration":106921,"SoundDuration":106921,"Delta":234890456},{"NoteNumber":55,"Velocity":29,"Duration":142561,"SoundDuration":142561,"Delta":234890456},{"NoteNumber":59,"Velocity":20,"Duration":142561,"SoundDuration":142561,"Delta":235033018},{"NoteNumber":62,"Velocity":20,"Duration":142561,"SoundDuration":142561,"Delta":235175580},{"NoteNumber":83,"Velocity":46,"Duration":106921,"SoundDuration":106921,"Delta":235318142},{"NoteNumber":55,"Velocity":29,"Duration":142561,"SoundDuration":142561,"Delta":235318142},{"NoteNumber":59,"Velocity":20,"Duration":142562,"SoundDuration":142562,"Delta":235460704},{"NoteNumber":62,"Velocity":20,"Duration":142561,"SoundDuration":142561,"Delta":235603266},{"NoteNumber":79,"Velocity":50,"Duration":213842,"SoundDuration":213842,"Delta":235745828},{"NoteNumber":55,"Velocity":29,"Duration":142561,"SoundDuration":142561,"Delta":235745828},{"NoteNumber":59,"Velocity":21,"Duration":142561,"SoundDuration":142561,"Delta":235888390},{"NoteNumber":62,"Velocity":20,"Duration":142561,"SoundDuration":142561,"Delta":236030952},{"NoteNumber":81,"Velocity":41,"Duration":53460,"SoundDuration":53460,"Delta":236120054},{"NoteNumber":79,"Velocity":50,"Duration":142561,"SoundDuration":142561,"Delta":236173514},{"NoteNumber":55,"Velocity":29,"Duration":142561,"SoundDuration":142561,"Delta":236173514},{"NoteNumber":78,"Velocity":44,"Duration":142561,"SoundDuration":142561,"Delta":236316076},{"NoteNumber":59,"Velocity":21,"Duration":142561,"SoundDuration":142561,"Delta":236316076},{"NoteNumber":79,"Velocity":53,"Duration":158995,"SoundDuration":158995,"Delta":236458638},{"NoteNumber":62,"Velocity":21,"Duration":158995,"SoundDuration":158995,"Delta":236458638},{"NoteNumber":86,"Velocity":62,"Duration":855371,"SoundDuration":855371,"Delta":236617633},{"NoteNumber":55,"Velocity":29,"Duration":142561,"SoundDuration":142561,"Delta":236617633},{"NoteNumber":59,"Velocity":20,"Duration":142561,"SoundDuration":142561,"Delta":236760195},{"NoteNumber":62,"Velocity":20,"Duration":142561,"SoundDuration":142561,"Delta":236902757},{"NoteNumber":55,"Velocity":29,"Duration":142561,"SoundDuration":142561,"Delta":237045319},{"NoteNumber":59,"Velocity":20,"Duration":142561,"SoundDuration":142561,"Delta":237187881},{"NoteNumber":62,"Velocity":20,"Duration":142561,"SoundDuration":142561,"Delta":237330443},{"NoteNumber":83,"Velocity":50,"Duration":427686,"SoundDuration":427686,"Delta":237473005},{"NoteNumber":55,"Velocity":29,"Duration":142561,"SoundDuration":142561,"Delta":237473005},{"NoteNumber":59,"Velocity":21,"Duration":142562,"SoundDuration":142562,"Delta":237615567},{"NoteNumber":62,"Velocity":20,"Duration":142561,"SoundDuration":142561,"Delta":237758129},{"NoteNumber":79,"Velocity":47,"Duration":437030,"SoundDuration":437030,"Delta":237900691},{"NoteNumber":55,"Velocity":29,"Duration":145677,"SoundDuration":145677,"Delta":237900691},{"NoteNumber":59,"Velocity":21,"Duration":145677,"SoundDuration":145677,"Delta":238046368},{"NoteNumber":62,"Velocity":21,"Duration":145676,"SoundDuration":145676,"Delta":238192045},{"NoteNumber":84,"Velocity":62,"Duration":213842,"SoundDuration":213842,"Delta":238337722},{"NoteNumber":55,"Velocity":33,"Duration":142561,"SoundDuration":142561,"Delta":238337722},{"NoteNumber":60,"Velocity":23,"Duration":142561,"SoundDuration":142561,"Delta":238480284},{"NoteNumber":64,"Velocity":23,"Duration":142561,"SoundDuration":142561,"Delta":238622846},{"NoteNumber":86,"Velocity":54,"Duration":53460,"SoundDuration":53460,"Delta":238711948},{"NoteNumber":84,"Velocity":62,"Duration":142561,"SoundDuration":142561,"Delta":238765408},{"NoteNumber":55,"Velocity":32,"Duration":142561,"SoundDuration":142561,"Delta":238765408},{"NoteNumber":83,"Velocity":50,"Duration":142561,"SoundDuration":142561,"Delta":238907970},{"NoteNumber":60,"Velocity":20,"Duration":142561,"SoundDuration":142561,"Delta":238907970},{"NoteNumber":84,"Velocity":50,"Duration":142561,"SoundDuration":142561,"Delta":239050532},{"NoteNumber":64,"Velocity":21,"Duration":142561,"SoundDuration":142561,"Delta":239050532},{"NoteNumber":88,"Velocity":64,"Duration":213843,"SoundDuration":213843,"Delta":239193094},{"NoteNumber":55,"Velocity":35,"Duration":142561,"SoundDuration":142561,"Delta":239193094},{"NoteNumber":60,"Velocity":25,"Duration":142562,"SoundDuration":142562,"Delta":239335656},{"NoteNumber":64,"Velocity":24,"Duration":142561,"SoundDuration":142561,"Delta":239478218},{"NoteNumber":88,"Velocity":61,"Duration":213842,"SoundDuration":213842,"Delta":239620780},{"NoteNumber":55,"Velocity":35,"Duration":142561,"SoundDuration":142561,"Delta":239620780},{"NoteNumber":60,"Velocity":25,"Duration":142561,"SoundDuration":142561,"Delta":239763342},{"NoteNumber":64,"Velocity":25,"Duration":165576,"SoundDuration":165576,"Delta":239905904},{"NoteNumber":85,"Velocity":65,"Duration":437030,"SoundDuration":437030,"Delta":240071481},{"NoteNumber":55,"Velocity":35,"Duration":145677,"SoundDuration":145677,"Delta":240071481},{"NoteNumber":59,"Velocity":24,"Duration":145677,"SoundDuration":145677,"Delta":240217158},{"NoteNumber":62,"Velocity":24,"Duration":145676,"SoundDuration":145676,"Delta":240362835},{"NoteNumber":86,"Velocity":63,"Duration":218515,"SoundDuration":218515,"Delta":240508512},{"NoteNumber":55,"Velocity":35,"Duration":145677,"SoundDuration":145677,"Delta":240508512},{"NoteNumber":59,"Velocity":23,"Duration":145677,"SoundDuration":145677,"Delta":240654189},{"NoteNumber":62,"Velocity":23,"Duration":145677,"SoundDuration":145677,"Delta":240799866},{"NoteNumber":55,"Velocity":29,"Duration":145676,"SoundDuration":145676,"Delta":240945543},{"NoteNumber":59,"Velocity":20,"Duration":145677,"SoundDuration":145677,"Delta":241091220},{"NoteNumber":62,"Velocity":20,"Duration":144508,"SoundDuration":144508,"Delta":241236897},{"NoteNumber":81,"Velocity":43,"Duration":53460,"SoundDuration":53460,"Delta":241327945},{"NoteNumber":79,"Velocity":50,"Duration":142561,"SoundDuration":142561,"Delta":241381406},{"NoteNumber":55,"Velocity":29,"Duration":142561,"SoundDuration":142561,"Delta":241381406},{"NoteNumber":78,"Velocity":45,"Duration":142561,"SoundDuration":142561,"Delta":241523968},{"NoteNumber":59,"Velocity":21,"Duration":142561,"SoundDuration":142561,"Delta":241523968},{"NoteNumber":79,"Velocity":45,"Duration":142561,"SoundDuration":142561,"Delta":241666530},{"NoteNumber":62,"Velocity":21,"Duration":142561,"SoundDuration":142561,"Delta":241666530},{"NoteNumber":81,"Velocity":50,"Duration":106921,"SoundDuration":106921,"Delta":241809092},{"NoteNumber":60,"Velocity":29,"Duration":142561,"SoundDuration":142561,"Delta":241809092},{"NoteNumber":64,"Velocity":20,"Duration":142561,"SoundDuration":142561,"Delta":241951654},{"NoteNumber":69,"Velocity":20,"Duration":142561,"SoundDuration":142561,"Delta":242094216},{"NoteNumber":81,"Velocity":46,"Duration":427686,"SoundDuration":427686,"Delta":242236778},{"NoteNumber":60,"Velocity":29,"Duration":142562,"SoundDuration":142562,"Delta":242236778},{"NoteNumber":64,"Velocity":20,"Duration":142561,"SoundDuration":142561,"Delta":242379340},{"NoteNumber":69,"Velocity":20,"Duration":142561,"SoundDuration":142561,"Delta":242521902},{"NoteNumber":76,"Velocity":50,"Duration":427685,"SoundDuration":427685,"Delta":242664464},{"NoteNumber":60,"Velocity":29,"Duration":142561,"SoundDuration":142561,"Delta":242664464},{"NoteNumber":64,"Velocity":21,"Duration":142561,"SoundDuration":142561,"Delta":242807026},{"NoteNumber":69,"Velocity":20,"Duration":142561,"SoundDuration":142561,"Delta":242949588},{"NoteNumber":81,"Velocity":50,"Duration":444118,"SoundDuration":444118,"Delta":243092150},{"NoteNumber":60,"Velocity":29,"Duration":142561,"SoundDuration":142561,"Delta":243092150},{"NoteNumber":64,"Velocity":21,"Duration":142561,"SoundDuration":142561,"Delta":243234712},{"NoteNumber":69,"Velocity":21,"Duration":158995,"SoundDuration":158995,"Delta":243377274},{"NoteNumber":74,"Velocity":62,"Duration":855371,"SoundDuration":855371,"Delta":243536269},{"NoteNumber":59,"Velocity":29,"Duration":142561,"SoundDuration":142561,"Delta":243536269},{"NoteNumber":62,"Velocity":20,"Duration":142561,"SoundDuration":142561,"Delta":243678831},{"NoteNumber":67,"Velocity":20,"Duration":142561,"SoundDuration":142561,"Delta":243821393},{"NoteNumber":59,"Velocity":29,"Duration":142561,"SoundDuration":142561,"Delta":243963955},{"NoteNumber":62,"Velocity":20,"Duration":142561,"SoundDuration":142561,"Delta":244106517},{"NoteNumber":67,"Velocity":20,"Duration":142561,"SoundDuration":142561,"Delta":244249079},{"NoteNumber":79,"Velocity":50,"Duration":427686,"SoundDuration":427686,"Delta":244391641},{"NoteNumber":59,"Velocity":29,"Duration":142561,"SoundDuration":142561,"Delta":244391641},{"NoteNumber":62,"Velocity":21,"Duration":142562,"SoundDuration":142562,"Delta":244534203},{"NoteNumber":67,"Velocity":20,"Duration":142561,"SoundDuration":142561,"Delta":244676765},{"NoteNumber":74,"Velocity":47,"Duration":437030,"SoundDuration":437030,"Delta":244819327},{"NoteNumber":59,"Velocity":29,"Duration":145677,"SoundDuration":145677,"Delta":244819327},{"NoteNumber":62,"Velocity":21,"Duration":145677,"SoundDuration":145677,"Delta":244965004},{"NoteNumber":67,"Velocity":21,"Duration":145676,"SoundDuration":145676,"Delta":245110681},{"NoteNumber":72,"Velocity":50,"Duration":214607,"SoundDuration":214607,"Delta":245256358},{"NoteNumber":54,"Velocity":29,"Duration":143071,"SoundDuration":143071,"Delta":245256358},{"NoteNumber":57,"Velocity":20,"Duration":143071,"SoundDuration":143071,"Delta":245399430},{"NoteNumber":62,"Velocity":20,"Duration":143071,"SoundDuration":143071,"Delta":245542501},{"NoteNumber":72,"Velocity":46,"Duration":214607,"SoundDuration":214607,"Delta":245685573},{"NoteNumber":54,"Velocity":29,"Duration":143071,"SoundDuration":143071,"Delta":245685573},{"NoteNumber":57,"Velocity":20,"Duration":143071,"SoundDuration":143071,"Delta":245828645},{"NoteNumber":62,"Velocity":20,"Duration":143071,"SoundDuration":143071,"Delta":245971716},{"NoteNumber":71,"Velocity":50,"Duration":214607,"SoundDuration":214607,"Delta":246114788},{"NoteNumber":55,"Velocity":31,"Duration":143071,"SoundDuration":143071,"Delta":246114788},{"NoteNumber":59,"Velocity":21,"Duration":143071,"SoundDuration":143071,"Delta":246257860},{"NoteNumber":62,"Velocity":20,"Duration":143071,"SoundDuration":143071,"Delta":246400931},{"NoteNumber":74,"Velocity":50,"Duration":219314,"SoundDuration":219314,"Delta":246544003},{"NoteNumber":55,"Velocity":33,"Duration":146209,"SoundDuration":146209,"Delta":246544003},{"NoteNumber":59,"Velocity":24,"Duration":146209,"SoundDuration":146209,"Delta":246690213},{"NoteNumber":62,"Velocity":24,"Duration":155896,"SoundDuration":155896,"Delta":246836422},{"NoteNumber":74,"Velocity":64,"Duration":441858,"SoundDuration":441858,"Delta":246992319},{"NoteNumber":50,"Velocity":34,"Duration":147286,"SoundDuration":147286,"Delta":246992319},{"NoteNumber":54,"Velocity":37,"Duration":147286,"SoundDuration":147286,"Delta":247139605},{"NoteNumber":57,"Velocity":40,"Duration":147286,"SoundDuration":147286,"Delta":247286892},{"NoteNumber":69,"Velocity":48,"Duration":226774,"SoundDuration":226774,"Delta":247434178},{"NoteNumber":62,"Velocity":42,"Duration":151183,"SoundDuration":151183,"Delta":247434178},{"NoteNumber":57,"Velocity":35,"Duration":151182,"SoundDuration":151182,"Delta":247585361},{"NoteNumber":54,"Velocity":38,"Duration":160269,"SoundDuration":160269,"Delta":247736544},{"NoteNumber":50,"Velocity":43,"Duration":440087,"SoundDuration":440087,"Delta":247896813},{"NoteNumber":69,"Velocity":43,"Duration":53460,"SoundDuration":53460,"Delta":248283440},{"NoteNumber":67,"Velocity":50,"Duration":142561,"SoundDuration":142561,"Delta":248336901},{"NoteNumber":66,"Velocity":45,"Duration":142561,"SoundDuration":142561,"Delta":248479463},{"NoteNumber":67,"Velocity":45,"Duration":142561,"SoundDuration":142561,"Delta":248622025},{"NoteNumber":71,"Velocity":50,"Duration":106921,"SoundDuration":106921,"Delta":248764587},{"NoteNumber":55,"Velocity":29,"Duration":142561,"SoundDuration":142561,"Delta":248764587},{"NoteNumber":59,"Velocity":20,"Duration":142561,"SoundDuration":142561,"Delta":248907149},{"NoteNumber":62,"Velocity":20,"Duration":142561,"SoundDuration":142561,"Delta":249049711},{"NoteNumber":71,"Velocity":46,"Duration":106921,"SoundDuration":106921,"Delta":249192273},{"NoteNumber":55,"Velocity":29,"Duration":142561,"SoundDuration":142561,"Delta":249192273},{"NoteNumber":59,"Velocity":20,"Duration":142562,"SoundDuration":142562,"Delta":249334835},{"NoteNumber":62,"Velocity":20,"Duration":142561,"SoundDuration":142561,"Delta":249477397},{"NoteNumber":67,"Velocity":50,"Duration":213842,"SoundDuration":213842,"Delta":249619959},{"NoteNumber":55,"Velocity":29,"Duration":142561,"SoundDuration":142561,"Delta":249619959},{"NoteNumber":59,"Velocity":21,"Duration":142561,"SoundDuration":142561,"Delta":249762521},{"NoteNumber":62,"Velocity":20,"Duration":142561,"SoundDuration":142561,"Delta":249905083},{"NoteNumber":69,"Velocity":41,"Duration":53460,"SoundDuration":53460,"Delta":249994184},{"NoteNumber":67,"Velocity":50,"Duration":142561,"SoundDuration":142561,"Delta":250047645},{"NoteNumber":55,"Velocity":29,"Duration":142561,"SoundDuration":142561,"Delta":250047645},{"NoteNumber":66,"Velocity":44,"Duration":142561,"SoundDuration":142561,"Delta":250190207},{"NoteNumber":59,"Velocity":21,"Duration":142561,"SoundDuration":142561,"Delta":250190207},{"NoteNumber":67,"Velocity":53,"Duration":158995,"SoundDuration":158995,"Delta":250332769},{"NoteNumber":62,"Velocity":21,"Duration":158995,"SoundDuration":158995,"Delta":250332769},{"NoteNumber":74,"Velocity":62,"Duration":855371,"SoundDuration":855371,"Delta":250491764},{"NoteNumber":55,"Velocity":29,"Duration":142561,"SoundDuration":142561,"Delta":250491764},{"NoteNumber":59,"Velocity":20,"Duration":142561,"SoundDuration":142561,"Delta":250634326},{"NoteNumber":62,"Velocity":20,"Duration":142561,"SoundDuration":142561,"Delta":250776888},{"NoteNumber":55,"Velocity":29,"Duration":142561,"SoundDuration":142561,"Delta":250919450},{"NoteNumber":59,"Velocity":20,"Duration":142561,"SoundDuration":142561,"Delta":251062012},{"NoteNumber":62,"Velocity":26,"Duration":142561,"SoundDuration":142561,"Delta":251204574},{"NoteNumber":71,"Velocity":50,"Duration":427686,"SoundDuration":427686,"Delta":251347136},{"NoteNumber":55,"Velocity":29,"Duration":142561,"SoundDuration":142561,"Delta":251347136},{"NoteNumber":59,"Velocity":21,"Duration":142562,"SoundDuration":142562,"Delta":251489698},{"NoteNumber":62,"Velocity":20,"Duration":142561,"SoundDuration":142561,"Delta":251632260},{"NoteNumber":67,"Velocity":47,"Duration":437030,"SoundDuration":437030,"Delta":251774822},{"NoteNumber":55,"Velocity":29,"Duration":145677,"SoundDuration":145677,"Delta":251774822},{"NoteNumber":59,"Velocity":21,"Duration":145677,"SoundDuration":145677,"Delta":251920499},{"NoteNumber":62,"Velocity":21,"Duration":145676,"SoundDuration":145676,"Delta":252066176},{"NoteNumber":72,"Velocity":62,"Duration":213842,"SoundDuration":213842,"Delta":252211853},{"NoteNumber":55,"Velocity":33,"Duration":142561,"SoundDuration":142561,"Delta":252211853},{"NoteNumber":60,"Velocity":23,"Duration":142561,"SoundDuration":142561,"Delta":252354415},{"NoteNumber":64,"Velocity":23,"Duration":142561,"SoundDuration":142561,"Delta":252496977},{"NoteNumber":74,"Velocity":54,"Duration":53460,"SoundDuration":53460,"Delta":252586078},{"NoteNumber":72,"Velocity":62,"Duration":142561,"SoundDuration":142561,"Delta":252639539},{"NoteNumber":55,"Velocity":32,"Duration":142561,"SoundDuration":142561,"Delta":252639539},{"NoteNumber":71,"Velocity":50,"Duration":142561,"SoundDuration":142561,"Delta":252782101},{"NoteNumber":60,"Velocity":20,"Duration":142561,"SoundDuration":142561,"Delta":252782101},{"NoteNumber":72,"Velocity":50,"Duration":142561,"SoundDuration":142561,"Delta":252924663},{"NoteNumber":64,"Velocity":21,"Duration":142561,"SoundDuration":142561,"Delta":252924663},{"NoteNumber":76,"Velocity":64,"Duration":213843,"SoundDuration":213843,"Delta":253067225},{"NoteNumber":55,"Velocity":35,"Duration":142561,"SoundDuration":142561,"Delta":253067225},{"NoteNumber":60,"Velocity":25,"Duration":142562,"SoundDuration":142562,"Delta":253209787},{"NoteNumber":64,"Velocity":24,"Duration":142561,"SoundDuration":142561,"Delta":253352349},{"NoteNumber":76,"Velocity":61,"Duration":213842,"SoundDuration":213842,"Delta":253494911},{"NoteNumber":55,"Velocity":35,"Duration":142561,"SoundDuration":142561,"Delta":253494911},{"NoteNumber":60,"Velocity":25,"Duration":142561,"SoundDuration":142561,"Delta":253637473},{"NoteNumber":64,"Velocity":25,"Duration":165576,"SoundDuration":165576,"Delta":253780035},{"NoteNumber":73,"Velocity":65,"Duration":437030,"SoundDuration":437030,"Delta":253945611},{"NoteNumber":55,"Velocity":35,"Duration":145677,"SoundDuration":145677,"Delta":253945611},{"NoteNumber":59,"Velocity":24,"Duration":145677,"SoundDuration":145677,"Delta":254091288},{"NoteNumber":62,"Velocity":24,"Duration":145676,"SoundDuration":145676,"Delta":254236965},{"NoteNumber":74,"Velocity":63,"Duration":218515,"SoundDuration":218515,"Delta":254382642},{"NoteNumber":55,"Velocity":35,"Duration":145677,"SoundDuration":145677,"Delta":254382642},{"NoteNumber":59,"Velocity":23,"Duration":145677,"SoundDuration":145677,"Delta":254528319},{"NoteNumber":62,"Velocity":29,"Duration":145676,"SoundDuration":145676,"Delta":254673996},{"NoteNumber":55,"Velocity":33,"Duration":145677,"SoundDuration":145677,"Delta":254819673},{"NoteNumber":59,"Velocity":22,"Duration":145676,"SoundDuration":145676,"Delta":254965350},{"NoteNumber":62,"Velocity":22,"Duration":144508,"SoundDuration":144508,"Delta":255111027},{"NoteNumber":79,"Velocity":49,"Duration":53460,"SoundDuration":53460,"Delta":255202076},{"NoteNumber":77,"Velocity":57,"Duration":142561,"SoundDuration":142561,"Delta":255255536},{"NoteNumber":55,"Velocity":33,"Duration":142561,"SoundDuration":142561,"Delta":255255536},{"NoteNumber":76,"Velocity":51,"Duration":142561,"SoundDuration":142561,"Delta":255398098},{"NoteNumber":59,"Velocity":24,"Duration":142561,"SoundDuration":142561,"Delta":255398098},{"NoteNumber":77,"Velocity":51,"Duration":142561,"SoundDuration":142561,"Delta":255540660},{"NoteNumber":62,"Velocity":24,"Duration":142561,"SoundDuration":142561,"Delta":255540660},{"NoteNumber":81,"Velocity":64,"Duration":106921,"SoundDuration":106921,"Delta":255683222},{"NoteNumber":53,"Velocity":29,"Duration":142561,"SoundDuration":142561,"Delta":255683222},{"NoteNumber":59,"Velocity":20,"Duration":142561,"SoundDuration":142561,"Delta":255825784},{"NoteNumber":62,"Velocity":20,"Duration":142561,"SoundDuration":142561,"Delta":255968346},{"NoteNumber":81,"Velocity":52,"Duration":213842,"SoundDuration":213842,"Delta":256110908},{"NoteNumber":53,"Velocity":23,"Duration":142561,"SoundDuration":142561,"Delta":256110908},{"NoteNumber":59,"Velocity":20,"Duration":142561,"SoundDuration":142561,"Delta":256253470},{"NoteNumber":62,"Velocity":23,"Duration":142561,"SoundDuration":142561,"Delta":256396032},{"NoteNumber":74,"Velocity":57,"Duration":213842,"SoundDuration":213842,"Delta":256538594},{"NoteNumber":53,"Velocity":38,"Duration":142561,"SoundDuration":142561,"Delta":256538594},{"NoteNumber":59,"Velocity":25,"Duration":142561,"SoundDuration":142561,"Delta":256681156},{"NoteNumber":62,"Velocity":25,"Duration":142561,"SoundDuration":142561,"Delta":256823718},{"NoteNumber":74,"Velocity":57,"Duration":213842,"SoundDuration":213842,"Delta":256966280},{"NoteNumber":53,"Velocity":39,"Duration":142561,"SoundDuration":142561,"Delta":256966280},{"NoteNumber":59,"Velocity":25,"Duration":142561,"SoundDuration":142561,"Delta":257108842},{"NoteNumber":62,"Velocity":25,"Duration":158995,"SoundDuration":158995,"Delta":257251404},{"NoteNumber":79,"Velocity":69,"Duration":855371,"SoundDuration":855371,"Delta":257410399},{"NoteNumber":52,"Velocity":48,"Duration":142561,"SoundDuration":142561,"Delta":257410399},{"NoteNumber":55,"Velocity":26,"Duration":142561,"SoundDuration":142561,"Delta":257552961},{"NoteNumber":60,"Velocity":26,"Duration":142561,"SoundDuration":142561,"Delta":257695523},{"NoteNumber":52,"Velocity":38,"Duration":142561,"SoundDuration":142561,"Delta":257838085},{"NoteNumber":55,"Velocity":20,"Duration":142561,"SoundDuration":142561,"Delta":257980647},{"NoteNumber":60,"Velocity":20,"Duration":142561,"SoundDuration":142561,"Delta":258123209},{"NoteNumber":76,"Velocity":62,"Duration":427685,"SoundDuration":427685,"Delta":258265771},{"NoteNumber":52,"Velocity":29,"Duration":142561,"SoundDuration":142561,"Delta":258265771},{"NoteNumber":55,"Velocity":21,"Duration":142561,"SoundDuration":142561,"Delta":258408333},{"NoteNumber":58,"Velocity":20,"Duration":142561,"SoundDuration":142561,"Delta":258550895},{"NoteNumber":73,"Velocity":54,"Duration":437030,"SoundDuration":437030,"Delta":258693457},{"NoteNumber":52,"Velocity":29,"Duration":145676,"SoundDuration":145676,"Delta":258693457},{"NoteNumber":55,"Velocity":21,"Duration":145677,"SoundDuration":145677,"Delta":258839134},{"NoteNumber":58,"Velocity":21,"Duration":145676,"SoundDuration":145676,"Delta":258984811},{"NoteNumber":74,"Velocity":50,"Duration":214607,"SoundDuration":214607,"Delta":259130488},{"NoteNumber":50,"Velocity":29,"Duration":143071,"SoundDuration":143071,"Delta":259130488},{"NoteNumber":55,"Velocity":20,"Duration":143071,"SoundDuration":143071,"Delta":259273560},{"NoteNumber":59,"Velocity":20,"Duration":143071,"SoundDuration":143071,"Delta":259416632},{"NoteNumber":74,"Velocity":46,"Duration":214607,"SoundDuration":214607,"Delta":259559703},{"NoteNumber":50,"Velocity":29,"Duration":143071,"SoundDuration":143071,"Delta":259559703},{"NoteNumber":55,"Velocity":20,"Duration":143071,"SoundDuration":143071,"Delta":259702775},{"NoteNumber":59,"Velocity":20,"Duration":143071,"SoundDuration":143071,"Delta":259845847},{"NoteNumber":66,"Velocity":50,"Duration":214607,"SoundDuration":214607,"Delta":259988918},{"NoteNumber":50,"Velocity":31,"Duration":143071,"SoundDuration":143071,"Delta":259988918},{"NoteNumber":57,"Velocity":21,"Duration":143071,"SoundDuration":143071,"Delta":260131990},{"NoteNumber":60,"Velocity":20,"Duration":143071,"SoundDuration":143071,"Delta":260275062},{"NoteNumber":67,"Velocity":46,"Duration":53651,"SoundDuration":53651,"Delta":260364481},{"NoteNumber":66,"Velocity":51,"Duration":146209,"SoundDuration":146209,"Delta":260418133},{"NoteNumber":50,"Velocity":33,"Duration":146209,"SoundDuration":146209,"Delta":260418133},{"NoteNumber":64,"Velocity":46,"Duration":146209,"SoundDuration":146209,"Delta":260564343},{"NoteNumber":57,"Velocity":24,"Duration":146209,"SoundDuration":146209,"Delta":260564343},{"NoteNumber":66,"Velocity":46,"Duration":155896,"SoundDuration":155896,"Delta":260710553},{"NoteNumber":60,"Velocity":24,"Duration":155896,"SoundDuration":155896,"Delta":260710553},{"NoteNumber":67,"Velocity":47,"Duration":146209,"SoundDuration":146209,"Delta":260866449},{"NoteNumber":59,"Velocity":33,"Duration":219314,"SoundDuration":219314,"Delta":260866449},{"NoteNumber":55,"Velocity":28,"Duration":219314,"SoundDuration":219314,"Delta":260866449},{"NoteNumber":71,"Velocity":50,"Duration":146209,"SoundDuration":146209,"Delta":261012659},{"NoteNumber":74,"Velocity":52,"Duration":146209,"SoundDuration":146209,"Delta":261158869},{"NoteNumber":79,"Velocity":54,"Duration":142055,"SoundDuration":142055,"Delta":261305078},{"NoteNumber":78,"Velocity":49,"Duration":142055,"SoundDuration":142055,"Delta":261447134},{"NoteNumber":76,"Velocity":49,"Duration":142055,"SoundDuration":142055,"Delta":261589190},{"NoteNumber":74,"Velocity":51,"Duration":139674,"SoundDuration":139674,"Delta":261731245},{"NoteNumber":72,"Velocity":48,"Duration":139674,"SoundDuration":139674,"Delta":261870920},{"NoteNumber":71,"Velocity":48,"Duration":139674,"SoundDuration":139674,"Delta":262010595},{"NoteNumber":69,"Velocity":51,"Duration":139674,"SoundDuration":139674,"Delta":262150269},{"NoteNumber":67,"Velocity":46,"Duration":139674,"SoundDuration":139674,"Delta":262289944},{"NoteNumber":66,"Velocity":46,"Duration":153503,"SoundDuration":153503,"Delta":262429619},{"NoteNumber":64,"Velocity":46,"Duration":143585,"SoundDuration":143585,"Delta":262583122},{"NoteNumber":55,"Velocity":28,"Duration":107688,"SoundDuration":107688,"Delta":262583122},{"NoteNumber":60,"Velocity":33,"Duration":107688,"SoundDuration":107688,"Delta":262583122},{"NoteNumber":76,"Velocity":51,"Duration":143585,"SoundDuration":143585,"Delta":262726708},{"NoteNumber":74,"Velocity":46,"Duration":143585,"SoundDuration":143585,"Delta":262870293},{"NoteNumber":72,"Velocity":50,"Duration":143585,"SoundDuration":143585,"Delta":263013878},{"NoteNumber":60,"Velocity":29,"Duration":107689,"SoundDuration":107689,"Delta":263013878},{"NoteNumber":55,"Velocity":24,"Duration":107689,"SoundDuration":107689,"Delta":263013878},{"NoteNumber":71,"Velocity":48,"Duration":143585,"SoundDuration":143585,"Delta":263157464},{"NoteNumber":69,"Velocity":48,"Duration":151183,"SoundDuration":151183,"Delta":263301049},{"NoteNumber":67,"Velocity":49,"Duration":143585,"SoundDuration":143585,"Delta":263452232},{"NoteNumber":57,"Velocity":30,"Duration":107688,"SoundDuration":107688,"Delta":263452232},{"NoteNumber":55,"Velocity":25,"Duration":107688,"SoundDuration":107688,"Delta":263452232},{"NoteNumber":66,"Velocity":46,"Duration":143585,"SoundDuration":143585,"Delta":263595817},{"NoteNumber":64,"Velocity":46,"Duration":143585,"SoundDuration":143585,"Delta":263739403},{"NoteNumber":62,"Velocity":47,"Duration":143585,"SoundDuration":143585,"Delta":263882988},{"NoteNumber":57,"Velocity":30,"Duration":107689,"SoundDuration":107689,"Delta":263882988},{"NoteNumber":55,"Velocity":25,"Duration":107689,"SoundDuration":107689,"Delta":263882988},{"NoteNumber":64,"Velocity":45,"Duration":143585,"SoundDuration":143585,"Delta":264026573},{"NoteNumber":66,"Velocity":45,"Duration":150613,"SoundDuration":150613,"Delta":264170159},{"NoteNumber":67,"Velocity":47,"Duration":146209,"SoundDuration":146209,"Delta":264320772},{"NoteNumber":59,"Velocity":33,"Duration":219314,"SoundDuration":219314,"Delta":264320772},{"NoteNumber":55,"Velocity":28,"Duration":219314,"SoundDuration":219314,"Delta":264320772},{"NoteNumber":71,"Velocity":50,"Duration":146209,"SoundDuration":146209,"Delta":264466982},{"NoteNumber":74,"Velocity":52,"Duration":146209,"SoundDuration":146209,"Delta":264613192},{"NoteNumber":79,"Velocity":54,"Duration":142055,"SoundDuration":142055,"Delta":264759401},{"NoteNumber":78,"Velocity":49,"Duration":142055,"SoundDuration":142055,"Delta":264901457},{"NoteNumber":76,"Velocity":49,"Duration":142055,"SoundDuration":142055,"Delta":265043513},{"NoteNumber":74,"Velocity":51,"Duration":140656,"SoundDuration":140656,"Delta":265185568},{"NoteNumber":72,"Velocity":48,"Duration":140657,"SoundDuration":140657,"Delta":265326225},{"NoteNumber":71,"Velocity":48,"Duration":140656,"SoundDuration":140656,"Delta":265466882},{"NoteNumber":69,"Velocity":51,"Duration":140657,"SoundDuration":140657,"Delta":265607539},{"NoteNumber":67,"Velocity":46,"Duration":140656,"SoundDuration":140656,"Delta":265748196},{"NoteNumber":66,"Velocity":46,"Duration":153503,"SoundDuration":153503,"Delta":265888853},{"NoteNumber":64,"Velocity":46,"Duration":143585,"SoundDuration":143585,"Delta":266042357},{"NoteNumber":55,"Velocity":28,"Duration":107688,"SoundDuration":107688,"Delta":266042357},{"NoteNumber":60,"Velocity":33,"Duration":107688,"SoundDuration":107688,"Delta":266042357},{"NoteNumber":76,"Velocity":51,"Duration":143585,"SoundDuration":143585,"Delta":266185942},{"NoteNumber":74,"Velocity":46,"Duration":143585,"SoundDuration":143585,"Delta":266329528},{"NoteNumber":72,"Velocity":50,"Duration":143585,"SoundDuration":143585,"Delta":266473113},{"NoteNumber":60,"Velocity":29,"Duration":107689,"SoundDuration":107689,"Delta":266473113},{"NoteNumber":55,"Velocity":24,"Duration":107689,"SoundDuration":107689,"Delta":266473113},{"NoteNumber":71,"Velocity":48,"Duration":143585,"SoundDuration":143585,"Delta":266616698},{"NoteNumber":69,"Velocity":48,"Duration":151183,"SoundDuration":151183,"Delta":266760284},{"NoteNumber":67,"Velocity":49,"Duration":143585,"SoundDuration":143585,"Delta":266911467},{"NoteNumber":57,"Velocity":30,"Duration":107688,"SoundDuration":107688,"Delta":266911467},{"NoteNumber":55,"Velocity":25,"Duration":107688,"SoundDuration":107688,"Delta":266911467},{"NoteNumber":66,"Velocity":46,"Duration":143585,"SoundDuration":143585,"Delta":267055052},{"NoteNumber":64,"Velocity":46,"Duration":143585,"SoundDuration":143585,"Delta":267198637},{"NoteNumber":62,"Velocity":47,"Duration":143585,"SoundDuration":143585,"Delta":267342223},{"NoteNumber":57,"Velocity":30,"Duration":107689,"SoundDuration":107689,"Delta":267342223},{"NoteNumber":55,"Velocity":25,"Duration":107689,"SoundDuration":107689,"Delta":267342223},{"NoteNumber":64,"Velocity":45,"Duration":143585,"SoundDuration":143585,"Delta":267485808},{"NoteNumber":66,"Velocity":45,"Duration":150613,"SoundDuration":150613,"Delta":267629393},{"NoteNumber":67,"Velocity":47,"Duration":145676,"SoundDuration":145676,"Delta":267780007},{"NoteNumber":55,"Velocity":28,"Duration":218515,"SoundDuration":218515,"Delta":267780007},{"NoteNumber":59,"Velocity":33,"Duration":218515,"SoundDuration":218515,"Delta":267780007},{"NoteNumber":69,"Velocity":42,"Duration":145677,"SoundDuration":145677,"Delta":267925684},{"NoteNumber":71,"Velocity":42,"Duration":145676,"SoundDuration":145676,"Delta":268071361},{"NoteNumber":67,"Velocity":47,"Duration":145677,"SoundDuration":145677,"Delta":268217038},{"NoteNumber":69,"Velocity":43,"Duration":145676,"SoundDuration":145676,"Delta":268362715},{"NoteNumber":71,"Velocity":47,"Duration":145676,"SoundDuration":145676,"Delta":268508392},{"NoteNumber":67,"Velocity":54,"Duration":147017,"SoundDuration":147017,"Delta":268654069},{"NoteNumber":35,"Velocity":32,"Duration":220122,"SoundDuration":220122,"Delta":268654069},{"NoteNumber":47,"Velocity":36,"Duration":220122,"SoundDuration":220122,"Delta":268654069},{"NoteNumber":69,"Velocity":48,"Duration":146209,"SoundDuration":146209,"Delta":268801086},{"NoteNumber":71,"Velocity":48,"Duration":146209,"SoundDuration":146209,"Delta":268947296},{"NoteNumber":67,"Velocity":56,"Duration":146209,"SoundDuration":146209,"Delta":269093505},{"NoteNumber":35,"Velocity":33,"Duration":219314,"SoundDuration":219314,"Delta":269093505},{"NoteNumber":47,"Velocity":38,"Duration":219314,"SoundDuration":219314,"Delta":269093505},{"NoteNumber":69,"Velocity":52,"Duration":146209,"SoundDuration":146209,"Delta":269239715},{"NoteNumber":71,"Velocity":52,"Duration":146209,"SoundDuration":146209,"Delta":269385925},{"NoteNumber":67,"Velocity":60,"Duration":147940,"SoundDuration":147940,"Delta":269532134},{"NoteNumber":36,"Velocity":36,"Duration":221909,"SoundDuration":221909,"Delta":269532134},{"NoteNumber":48,"Velocity":41,"Duration":221909,"SoundDuration":221909,"Delta":269532134},{"NoteNumber":69,"Velocity":52,"Duration":147940,"SoundDuration":147940,"Delta":269680074},{"NoteNumber":71,"Velocity":57,"Duration":147940,"SoundDuration":147940,"Delta":269828014},{"NoteNumber":67,"Velocity":64,"Duration":147940,"SoundDuration":147940,"Delta":269975954},{"NoteNumber":36,"Velocity":38,"Duration":221909,"SoundDuration":221909,"Delta":269975954},{"NoteNumber":48,"Velocity":44,"Duration":221909,"SoundDuration":221909,"Delta":269975954},{"NoteNumber":69,"Velocity":58,"Duration":147940,"SoundDuration":147940,"Delta":270123894},{"NoteNumber":71,"Velocity":61,"Duration":147939,"SoundDuration":147939,"Delta":270271834},{"NoteNumber":67,"Velocity":68,"Duration":148531,"SoundDuration":148531,"Delta":270419774},{"NoteNumber":37,"Velocity":40,"Duration":223359,"SoundDuration":223359,"Delta":270419774},{"NoteNumber":49,"Velocity":46,"Duration":223359,"SoundDuration":223359,"Delta":270419774},{"NoteNumber":69,"Velocity":63,"Duration":150071,"SoundDuration":150071,"Delta":270568306},{"NoteNumber":71,"Velocity":65,"Duration":151881,"SoundDuration":151881,"Delta":270718377},{"NoteNumber":67,"Velocity":73,"Duration":153719,"SoundDuration":153719,"Delta":270870258},{"NoteNumber":37,"Velocity":43,"Duration":231260,"SoundDuration":231260,"Delta":270870258},{"NoteNumber":49,"Velocity":49,"Duration":231260,"SoundDuration":231260,"Delta":270870258},{"NoteNumber":69,"Velocity":69,"Duration":155186,"SoundDuration":155186,"Delta":271023978},{"NoteNumber":71,"Velocity":70,"Duration":175146,"SoundDuration":175146,"Delta":271179165},{"NoteNumber":38,"Velocity":55,"Duration":1807209,"SoundDuration":1807209,"Delta":271354311},{"NoteNumber":50,"Velocity":68,"Duration":1807209,"SoundDuration":1807209,"Delta":271354311},{"NoteNumber":83,"Velocity":71,"Duration":152917,"SoundDuration":152917,"Delta":271507228},{"NoteNumber":86,"Velocity":68,"Duration":146746,"SoundDuration":146746,"Delta":271660145},{"NoteNumber":84,"Velocity":74,"Duration":147830,"SoundDuration":147830,"Delta":271806891},{"NoteNumber":83,"Velocity":68,"Duration":147830,"SoundDuration":147830,"Delta":271954722},{"NoteNumber":81,"Velocity":64,"Duration":147830,"SoundDuration":147830,"Delta":272102553},{"NoteNumber":79,"Velocity":71,"Duration":147830,"SoundDuration":147830,"Delta":272250383},{"NoteNumber":78,"Velocity":64,"Duration":147830,"SoundDuration":147830,"Delta":272398214},{"NoteNumber":76,"Velocity":62,"Duration":147830,"SoundDuration":147830,"Delta":272546045},{"NoteNumber":74,"Velocity":72,"Duration":147830,"SoundDuration":147830,"Delta":272693875},{"NoteNumber":72,"Velocity":67,"Duration":147830,"SoundDuration":147830,"Delta":272841706},{"NoteNumber":71,"Velocity":67,"Duration":171984,"SoundDuration":171984,"Delta":272989537},{"NoteNumber":69,"Velocity":41,"Duration":81186,"SoundDuration":81186,"Delta":273161521},{"NoteNumber":50,"Velocity":50,"Duration":162041,"SoundDuration":162041,"Delta":273161521},{"NoteNumber":71,"Velocity":39,"Duration":80855,"SoundDuration":80855,"Delta":273242707},{"NoteNumber":69,"Velocity":46,"Duration":80315,"SoundDuration":80315,"Delta":273323563},{"NoteNumber":54,"Velocity":45,"Duration":160135,"SoundDuration":160135,"Delta":273323563},{"NoteNumber":71,"Velocity":44,"Duration":79819,"SoundDuration":79819,"Delta":273403879},{"NoteNumber":69,"Velocity":49,"Duration":79324,"SoundDuration":79324,"Delta":273483698},{"NoteNumber":60,"Velocity":45,"Duration":158133,"SoundDuration":158133,"Delta":273483698},{"NoteNumber":71,"Velocity":46,"Duration":78808,"SoundDuration":78808,"Delta":273563022},{"NoteNumber":69,"Velocity":51,"Duration":78353,"SoundDuration":78353,"Delta":273641831},{"NoteNumber":50,"Velocity":51,"Duration":156184,"SoundDuration":156184,"Delta":273641831},{"NoteNumber":71,"Velocity":48,"Duration":77831,"SoundDuration":77831,"Delta":273720185},{"NoteNumber":69,"Velocity":54,"Duration":77379,"SoundDuration":77379,"Delta":273798016},{"NoteNumber":54,"Velocity":46,"Duration":154279,"SoundDuration":154279,"Delta":273798016},{"NoteNumber":71,"Velocity":49,"Duration":76899,"SoundDuration":76899,"Delta":273875395},{"NoteNumber":69,"Velocity":57,"Duration":76498,"SoundDuration":76498,"Delta":273952295},{"NoteNumber":60,"Velocity":47,"Duration":152957,"SoundDuration":152957,"Delta":273952295},{"NoteNumber":71,"Velocity":53,"Duration":76458,"SoundDuration":76458,"Delta":274028794},{"NoteNumber":69,"Velocity":56,"Duration":76458,"SoundDuration":76458,"Delta":274105252},{"NoteNumber":50,"Velocity":52,"Duration":153122,"SoundDuration":153122,"Delta":274105252},{"NoteNumber":71,"Velocity":51,"Duration":76663,"SoundDuration":76663,"Delta":274181711},{"NoteNumber":69,"Velocity":56,"Duration":76751,"SoundDuration":76751,"Delta":274258375},{"NoteNumber":54,"Velocity":48,"Duration":153503,"SoundDuration":153503,"Delta":274258375},{"NoteNumber":71,"Velocity":50,"Duration":76751,"SoundDuration":76751,"Delta":274335126},{"NoteNumber":69,"Velocity":56,"Duration":76914,"SoundDuration":76914,"Delta":274411878},{"NoteNumber":60,"Velocity":49,"Duration":153961,"SoundDuration":153961,"Delta":274411878},{"NoteNumber":71,"Velocity":51,"Duration":77047,"SoundDuration":77047,"Delta":274488793},{"NoteNumber":69,"Velocity":54,"Duration":77047,"SoundDuration":77047,"Delta":274565840},{"NoteNumber":50,"Velocity":54,"Duration":154210,"SoundDuration":154210,"Delta":274565840},{"NoteNumber":71,"Velocity":49,"Duration":77162,"SoundDuration":77162,"Delta":274642888},{"NoteNumber":69,"Velocity":53,"Duration":77744,"SoundDuration":77744,"Delta":274720051},{"NoteNumber":54,"Velocity":49,"Duration":156457,"SoundDuration":156457,"Delta":274720051},{"NoteNumber":71,"Velocity":49,"Duration":58940,"SoundDuration":58940,"Delta":274797796},{"NoteNumber":69,"Velocity":53,"Duration":59493,"SoundDuration":59493,"Delta":274856736},{"NoteNumber":60,"Velocity":50,"Duration":160418,"SoundDuration":160418,"Delta":274876508},{"NoteNumber":67,"Velocity":49,"Duration":60065,"SoundDuration":60065,"Delta":274916230},{"NoteNumber":69,"Velocity":49,"Duration":60631,"SoundDuration":60631,"Delta":274976295},{"NoteNumber":67,"Velocity":49,"Duration":143071,"SoundDuration":143071,"Delta":275036927},{"NoteNumber":59,"Velocity":59,"Duration":429214,"SoundDuration":429214,"Delta":275036927},{"NoteNumber":55,"Velocity":50,"Duration":429214,"SoundDuration":429214,"Delta":275036927},{"NoteNumber":71,"Velocity":32,"Duration":143071,"SoundDuration":143071,"Delta":275179999},{"NoteNumber":74,"Velocity":32,"Duration":143071,"SoundDuration":143071,"Delta":275323070},{"NoteNumber":71,"Velocity":48,"Duration":143071,"SoundDuration":143071,"Delta":275466142},{"NoteNumber":74,"Velocity":32,"Duration":143071,"SoundDuration":143071,"Delta":275609214},{"NoteNumber":79,"Velocity":29,"Duration":143071,"SoundDuration":143071,"Delta":275752285},{"NoteNumber":71,"Velocity":41,"Duration":143071,"SoundDuration":143071,"Delta":275895357},{"NoteNumber":74,"Velocity":28,"Duration":143071,"SoundDuration":143071,"Delta":276038429},{"NoteNumber":79,"Velocity":28,"Duration":152917,"SoundDuration":152917,"Delta":276181500},{"NoteNumber":71,"Velocity":41,"Duration":142561,"SoundDuration":142561,"Delta":276334417},{"NoteNumber":67,"Velocity":40,"Duration":213842,"SoundDuration":213842,"Delta":276334417},{"NoteNumber":74,"Velocity":29,"Duration":142561,"SoundDuration":142561,"Delta":276476979},{"NoteNumber":79,"Velocity":29,"Duration":142561,"SoundDuration":142561,"Delta":276619541},{"NoteNumber":73,"Velocity":41,"Duration":142561,"SoundDuration":142561,"Delta":276762103},{"NoteNumber":64,"Velocity":45,"Duration":213842,"SoundDuration":213842,"Delta":276762103},{"NoteNumber":76,"Velocity":29,"Duration":142561,"SoundDuration":142561,"Delta":276904665},{"NoteNumber":79,"Velocity":29,"Duration":142561,"SoundDuration":142561,"Delta":277047227},{"NoteNumber":73,"Velocity":41,"Duration":142561,"SoundDuration":142561,"Delta":277189789},{"NoteNumber":64,"Velocity":40,"Duration":213842,"SoundDuration":213842,"Delta":277189789},{"NoteNumber":76,"Velocity":29,"Duration":142561,"SoundDuration":142561,"Delta":277332351},{"NoteNumber":79,"Velocity":29,"Duration":151756,"SoundDuration":151756,"Delta":277474913},{"NoteNumber":73,"Velocity":41,"Duration":142561,"SoundDuration":142561,"Delta":277626670},{"NoteNumber":69,"Velocity":37,"Duration":213842,"SoundDuration":213842,"Delta":277626670},{"NoteNumber":76,"Velocity":29,"Duration":142561,"SoundDuration":142561,"Delta":277769232},{"NoteNumber":79,"Velocity":29,"Duration":142561,"SoundDuration":142561,"Delta":277911794},{"NoteNumber":73,"Velocity":41,"Duration":142561,"SoundDuration":142561,"Delta":278054356},{"NoteNumber":69,"Velocity":40,"Duration":213842,"SoundDuration":213842,"Delta":278054356},{"NoteNumber":76,"Velocity":30,"Duration":142561,"SoundDuration":142561,"Delta":278196918},{"NoteNumber":79,"Velocity":30,"Duration":162879,"SoundDuration":162879,"Delta":278339480},{"NoteNumber":72,"Velocity":41,"Duration":142561,"SoundDuration":142561,"Delta":278502360},{"NoteNumber":62,"Velocity":45,"Duration":865726,"SoundDuration":865726,"Delta":278502360},{"NoteNumber":74,"Velocity":29,"Duration":142561,"SoundDuration":142561,"Delta":278644922},{"NoteNumber":78,"Velocity":29,"Duration":142561,"SoundDuration":142561,"Delta":278787484},{"NoteNumber":72,"Velocity":41,"Duration":142561,"SoundDuration":142561,"Delta":278930046},{"NoteNumber":74,"Velocity":29,"Duration":142561,"SoundDuration":142561,"Delta":279072608},{"NoteNumber":78,"Velocity":29,"Duration":152917,"SoundDuration":152917,"Delta":279215170},{"NoteNumber":71,"Velocity":41,"Duration":142561,"SoundDuration":142561,"Delta":279368087},{"NoteNumber":67,"Velocity":37,"Duration":213842,"SoundDuration":213842,"Delta":279368087},{"NoteNumber":74,"Velocity":29,"Duration":142561,"SoundDuration":142561,"Delta":279510649},{"NoteNumber":79,"Velocity":29,"Duration":142561,"SoundDuration":142561,"Delta":279653211},{"NoteNumber":71,"Velocity":41,"Duration":142561,"SoundDuration":142561,"Delta":279795773},{"NoteNumber":67,"Velocity":40,"Duration":213842,"SoundDuration":213842,"Delta":279795773},{"NoteNumber":74,"Velocity":30,"Duration":142561,"SoundDuration":142561,"Delta":279938335},{"NoteNumber":79,"Velocity":30,"Duration":158995,"SoundDuration":158995,"Delta":280080897},{"NoteNumber":69,"Velocity":41,"Duration":142055,"SoundDuration":142055,"Delta":280239892},{"NoteNumber":60,"Velocity":45,"Duration":213083,"SoundDuration":213083,"Delta":280239892},{"NoteNumber":72,"Velocity":29,"Duration":142055,"SoundDuration":142055,"Delta":280381947},{"NoteNumber":76,"Velocity":29,"Duration":142055,"SoundDuration":142055,"Delta":280524003},{"NoteNumber":69,"Velocity":41,"Duration":142055,"SoundDuration":142055,"Delta":280666059},{"NoteNumber":60,"Velocity":40,"Duration":213083,"SoundDuration":213083,"Delta":280666059},{"NoteNumber":72,"Velocity":29,"Duration":142055,"SoundDuration":142055,"Delta":280808114},{"NoteNumber":76,"Velocity":37,"Duration":153621,"SoundDuration":153621,"Delta":280950170},{"NoteNumber":66,"Velocity":41,"Duration":142561,"SoundDuration":142561,"Delta":281103792},{"NoteNumber":62,"Velocity":37,"Duration":213842,"SoundDuration":213842,"Delta":281103792},{"NoteNumber":69,"Velocity":29,"Duration":142561,"SoundDuration":142561,"Delta":281246354},{"NoteNumber":74,"Velocity":29,"Duration":142561,"SoundDuration":142561,"Delta":281388916},{"NoteNumber":66,"Velocity":41,"Duration":142561,"SoundDuration":142561,"Delta":281531478},{"NoteNumber":62,"Velocity":40,"Duration":213842,"SoundDuration":213842,"Delta":281531478},{"NoteNumber":69,"Velocity":30,"Duration":142561,"SoundDuration":142561,"Delta":281674040},{"NoteNumber":74,"Velocity":30,"Duration":161563,"SoundDuration":161563,"Delta":281816602},{"NoteNumber":67,"Velocity":49,"Duration":143071,"SoundDuration":143071,"Delta":281978166},{"NoteNumber":59,"Velocity":50,"Duration":429214,"SoundDuration":429214,"Delta":281978166},{"NoteNumber":55,"Velocity":42,"Duration":429214,"SoundDuration":429214,"Delta":281978166},{"NoteNumber":71,"Velocity":30,"Duration":143071,"SoundDuration":143071,"Delta":282121237},{"NoteNumber":74,"Velocity":30,"Duration":143071,"SoundDuration":143071,"Delta":282264309},{"NoteNumber":71,"Velocity":46,"Duration":143071,"SoundDuration":143071,"Delta":282407381},{"NoteNumber":74,"Velocity":30,"Duration":143071,"SoundDuration":143071,"Delta":282550452},{"NoteNumber":79,"Velocity":30,"Duration":143071,"SoundDuration":143071,"Delta":282693524},{"NoteNumber":71,"Velocity":41,"Duration":143071,"SoundDuration":143071,"Delta":282836596},{"NoteNumber":74,"Velocity":28,"Duration":143071,"SoundDuration":143071,"Delta":282979667},{"NoteNumber":79,"Velocity":28,"Duration":152917,"SoundDuration":152917,"Delta":283122739},{"NoteNumber":71,"Velocity":45,"Duration":142561,"SoundDuration":142561,"Delta":283275656},{"NoteNumber":55,"Velocity":44,"Duration":213842,"SoundDuration":213842,"Delta":283275656},{"NoteNumber":74,"Velocity":32,"Duration":142561,"SoundDuration":142561,"Delta":283418218},{"NoteNumber":79,"Velocity":32,"Duration":142561,"SoundDuration":142561,"Delta":283560780},{"NoteNumber":73,"Velocity":46,"Duration":142561,"SoundDuration":142561,"Delta":283703342},{"NoteNumber":52,"Velocity":50,"Duration":213842,"SoundDuration":213842,"Delta":283703342},{"NoteNumber":76,"Velocity":33,"Duration":142561,"SoundDuration":142561,"Delta":283845904},{"NoteNumber":79,"Velocity":33,"Duration":142561,"SoundDuration":142561,"Delta":283988466},{"NoteNumber":73,"Velocity":47,"Duration":142561,"SoundDuration":142561,"Delta":284131028},{"NoteNumber":52,"Velocity":46,"Duration":213842,"SoundDuration":213842,"Delta":284131028},{"NoteNumber":76,"Velocity":34,"Duration":142561,"SoundDuration":142561,"Delta":284273590},{"NoteNumber":79,"Velocity":34,"Duration":151756,"SoundDuration":151756,"Delta":284416152},{"NoteNumber":73,"Velocity":49,"Duration":142561,"SoundDuration":142561,"Delta":284567909},{"NoteNumber":57,"Velocity":45,"Duration":213842,"SoundDuration":213842,"Delta":284567909},{"NoteNumber":76,"Velocity":36,"Duration":142561,"SoundDuration":142561,"Delta":284710471},{"NoteNumber":79,"Velocity":36,"Duration":142561,"SoundDuration":142561,"Delta":284853033},{"NoteNumber":73,"Velocity":52,"Duration":142561,"SoundDuration":142561,"Delta":284995595},{"NoteNumber":57,"Velocity":50,"Duration":213842,"SoundDuration":213842,"Delta":284995595},{"NoteNumber":76,"Velocity":38,"Duration":142561,"SoundDuration":142561,"Delta":285138157},{"NoteNumber":79,"Velocity":39,"Duration":162879,"SoundDuration":162879,"Delta":285280719},{"NoteNumber":72,"Velocity":43,"Duration":142561,"SoundDuration":142561,"Delta":285443598},{"NoteNumber":50,"Velocity":59,"Duration":865726,"SoundDuration":865726,"Delta":285443598},{"NoteNumber":74,"Velocity":39,"Duration":142561,"SoundDuration":142561,"Delta":285586160},{"NoteNumber":78,"Velocity":39,"Duration":142561,"SoundDuration":142561,"Delta":285728722},{"NoteNumber":72,"Velocity":55,"Duration":142561,"SoundDuration":142561,"Delta":285871284},{"NoteNumber":74,"Velocity":39,"Duration":142561,"SoundDuration":142561,"Delta":286013846},{"NoteNumber":78,"Velocity":40,"Duration":152917,"SoundDuration":152917,"Delta":286156408},{"NoteNumber":71,"Velocity":56,"Duration":142561,"SoundDuration":142561,"Delta":286309325},{"NoteNumber":55,"Velocity":50,"Duration":213842,"SoundDuration":213842,"Delta":286309325},{"NoteNumber":74,"Velocity":40,"Duration":142561,"SoundDuration":142561,"Delta":286451887},{"NoteNumber":79,"Velocity":41,"Duration":142561,"SoundDuration":142561,"Delta":286594449},{"NoteNumber":71,"Velocity":58,"Duration":142561,"SoundDuration":142561,"Delta":286737011},{"NoteNumber":55,"Velocity":57,"Duration":213842,"SoundDuration":213842,"Delta":286737011},{"NoteNumber":74,"Velocity":43,"Duration":142561,"SoundDuration":142561,"Delta":286879573},{"NoteNumber":79,"Velocity":44,"Duration":158995,"SoundDuration":158995,"Delta":287022135},{"NoteNumber":69,"Velocity":63,"Duration":142055,"SoundDuration":142055,"Delta":287181130},{"NoteNumber":60,"Velocity":68,"Duration":213083,"SoundDuration":213083,"Delta":287181130},{"NoteNumber":48,"Velocity":57,"Duration":213083,"SoundDuration":213083,"Delta":287181130},{"NoteNumber":72,"Velocity":44,"Duration":142055,"SoundDuration":142055,"Delta":287323186},{"NoteNumber":76,"Velocity":45,"Duration":142055,"SoundDuration":142055,"Delta":287465242},{"NoteNumber":69,"Velocity":64,"Duration":142055,"SoundDuration":142055,"Delta":287607297},{"NoteNumber":60,"Velocity":63,"Duration":213083,"SoundDuration":213083,"Delta":287607297},{"NoteNumber":48,"Velocity":52,"Duration":213083,"SoundDuration":213083,"Delta":287607297},{"NoteNumber":72,"Velocity":45,"Duration":142055,"SoundDuration":142055,"Delta":287749353},{"NoteNumber":76,"Velocity":46,"Duration":157121,"SoundDuration":157121,"Delta":287891409},{"NoteNumber":66,"Velocity":64,"Duration":142561,"SoundDuration":142561,"Delta":288048530},{"NoteNumber":62,"Velocity":58,"Duration":213842,"SoundDuration":213842,"Delta":288048530},{"NoteNumber":50,"Velocity":48,"Duration":213842,"SoundDuration":213842,"Delta":288048530},{"NoteNumber":69,"Velocity":46,"Duration":142561,"SoundDuration":142561,"Delta":288191092},{"NoteNumber":74,"Velocity":46,"Duration":142561,"SoundDuration":142561,"Delta":288333654},{"NoteNumber":66,"Velocity":66,"Duration":142561,"SoundDuration":142561,"Delta":288476216},{"NoteNumber":62,"Velocity":64,"Duration":213842,"SoundDuration":213842,"Delta":288476216},{"NoteNumber":50,"Velocity":54,"Duration":213842,"SoundDuration":213842,"Delta":288476216},{"NoteNumber":69,"Velocity":48,"Duration":142561,"SoundDuration":142561,"Delta":288618778},{"NoteNumber":74,"Velocity":48,"Duration":161563,"SoundDuration":161563,"Delta":288761340},{"NoteNumber":67,"Velocity":73,"Duration":427685,"SoundDuration":427685,"Delta":288922904},{"NoteNumber":55,"Velocity":56,"Duration":142561,"SoundDuration":142561,"Delta":288922904},{"NoteNumber":59,"Velocity":48,"Duration":142561,"SoundDuration":142561,"Delta":289065466},{"NoteNumber":62,"Velocity":47,"Duration":142561,"SoundDuration":142561,"Delta":289208028},{"NoteNumber":55,"Velocity":56,"Duration":142561,"SoundDuration":142561,"Delta":289350590},{"NoteNumber":59,"Velocity":48,"Duration":142561,"SoundDuration":142561,"Delta":289493152},{"NoteNumber":62,"Velocity":48,"Duration":142561,"SoundDuration":142561,"Delta":289635714},{"NoteNumber":55,"Velocity":56,"Duration":142561,"SoundDuration":142561,"Delta":289778276},{"NoteNumber":59,"Velocity":49,"Duration":142561,"SoundDuration":142561,"Delta":289920838},{"NoteNumber":62,"Velocity":49,"Duration":142561,"SoundDuration":142561,"Delta":290063400},{"NoteNumber":76,"Velocity":65,"Duration":53460,"SoundDuration":53460,"Delta":290152502},{"NoteNumber":74,"Velocity":70,"Duration":146209,"SoundDuration":146209,"Delta":290205962},{"NoteNumber":54,"Velocity":56,"Duration":146209,"SoundDuration":146209,"Delta":290205962},{"NoteNumber":73,"Velocity":66,"Duration":146209,"SoundDuration":146209,"Delta":290352172},{"NoteNumber":57,"Velocity":48,"Duration":146209,"SoundDuration":146209,"Delta":290352172},{"NoteNumber":74,"Velocity":66,"Duration":160913,"SoundDuration":160913,"Delta":290498382},{"NoteNumber":62,"Velocity":49,"Duration":160913,"SoundDuration":160913,"Delta":290498382},{"NoteNumber":71,"Velocity":70,"Duration":213842,"SoundDuration":213842,"Delta":290659296},{"NoteNumber":79,"Velocity":76,"Duration":213842,"SoundDuration":213842,"Delta":290659296},{"NoteNumber":55,"Velocity":56,"Duration":142561,"SoundDuration":142561,"Delta":290659296},{"NoteNumber":59,"Velocity":49,"Duration":142561,"SoundDuration":142561,"Delta":290801858},{"NoteNumber":62,"Velocity":49,"Duration":142561,"SoundDuration":142561,"Delta":290944420},{"NoteNumber":55,"Velocity":56,"Duration":142561,"SoundDuration":142561,"Delta":291086982},{"NoteNumber":59,"Velocity":49,"Duration":142561,"SoundDuration":142561,"Delta":291229544},{"NoteNumber":62,"Velocity":49,"Duration":142561,"SoundDuration":142561,"Delta":291372106},{"NoteNumber":55,"Velocity":56,"Duration":142561,"SoundDuration":142561,"Delta":291514668},{"NoteNumber":59,"Velocity":50,"Duration":142561,"SoundDuration":142561,"Delta":291657230},{"NoteNumber":62,"Velocity":50,"Duration":142561,"SoundDuration":142561,"Delta":291799792},{"NoteNumber":76,"Velocity":65,"Duration":53460,"SoundDuration":53460,"Delta":291888893},{"NoteNumber":74,"Velocity":70,"Duration":151871,"SoundDuration":151871,"Delta":291942354},{"NoteNumber":54,"Velocity":56,"Duration":151871,"SoundDuration":151871,"Delta":291942354},{"NoteNumber":73,"Velocity":66,"Duration":151871,"SoundDuration":151871,"Delta":292094225},{"NoteNumber":57,"Velocity":49,"Duration":151871,"SoundDuration":151871,"Delta":292094225},{"NoteNumber":74,"Velocity":66,"Duration":172132,"SoundDuration":172132,"Delta":292246097},{"NoteNumber":62,"Velocity":49,"Duration":172132,"SoundDuration":172132,"Delta":292246097},{"NoteNumber":71,"Velocity":70,"Duration":275002,"SoundDuration":275002,"Delta":292418229},{"NoteNumber":79,"Velocity":76,"Duration":275002,"SoundDuration":275002,"Delta":292418229},{"NoteNumber":55,"Velocity":56,"Duration":183334,"SoundDuration":183334,"Delta":292418229},{"NoteNumber":59,"Velocity":50,"Duration":183334,"SoundDuration":183334,"Delta":292601564},{"NoteNumber":62,"Velocity":50,"Duration":183334,"SoundDuration":183334,"Delta":292784899},{"NoteNumber":55,"Velocity":56,"Duration":224491,"SoundDuration":224491,"Delta":292968234},{"NoteNumber":59,"Velocity":49,"Duration":235045,"SoundDuration":235045,"Delta":293192726},{"NoteNumber":62,"Velocity":49,"Duration":297663,"SoundDuration":297663,"Delta":293427771},{"NoteNumber":55,"Velocity":56,"Duration":614188,"SoundDuration":614188,"Delta":293725435}],"license":{"name":"Creative Commons Attribution-ShareAlike 3.0 Germany","url":"http://creativecommons.org/licenses/by-sa/3.0/de/deed.en","text":"The MIDI, audio (MP3, OGG) and video files of Bernd Krueger are licensed under the cc-by-sa Germany License. This means that you can use and adapt the files, as long as you attribute the copyright holder.\n\nName: Bernd Krueger\nSource: http://www.piano-midi.de\n\nThe distribution or public playback of the files is only allowed under identical license conditions.\n\nThe scores are open source.","attribution":"MIDI files by Bernd Krueger (piano-midi.de)"}}