{"title":"Clementi: Sonatine Opus 36 Nr. 2, 2. Satz","artist":"Piano","durationMs":66018,"midiSha256":"18a989780af04d0fd455f904160bc6bfe006f53ab61062c6451c5841d258ee0b","midiObject":[{"NoteNumber":64,"Velocity":50,"Duration":589082,"SoundDuration":589082,"Delta":0},{"NoteNumber":60,"Velocity":35,"Duration":1494669,"SoundDuration":1494669,"Delta":0},{"NoteNumber":67,"Velocity":40,"Duration":170668,"SoundDuration":170668,"Delta":589082},{"NoteNumber":72,"Velocity":50,"Duration":563274,"SoundDuration":563274,"Delta":759750},{"NoteNumber":69,"Velocity":41,"Duration":171644,"SoundDuration":171644,"Delta":1323025},{"NoteNumber":67,"Velocity":47,"Duration":572940,"SoundDuration":572940,"Delta":1494669},{"NoteNumber":59,"Velocity":30,"Duration":772700,"SoundDuration":772700,"Delta":1494669},{"NoteNumber":65,"Velocity":42,"Duration":199760,"SoundDuration":199760,"Delta":2067610},{"NoteNumber":64,"Velocity":50,"Duration":561867,"SoundDuration":561867,"Delta":2267370},{"NoteNumber":60,"Velocity":35,"Duration":1464442,"SoundDuration":1464442,"Delta":2267370},{"NoteNumber":67,"Velocity":40,"Duration":172632,"SoundDuration":172632,"Delta":2829238},{"NoteNumber":72,"Velocity":50,"Duration":556311,"SoundDuration":556311,"Delta":3001870},{"NoteNumber":69,"Velocity":41,"Duration":173631,"SoundDuration":173631,"Delta":3558181},{"NoteNumber":67,"Velocity":47,"Duration":570634,"SoundDuration":570634,"Delta":3731812},{"NoteNumber":59,"Velocity":30,"Duration":769073,"SoundDuration":769073,"Delta":3731812},{"NoteNumber":65,"Velocity":42,"Duration":198438,"SoundDuration":198438,"Delta":4302446},{"NoteNumber":64,"Velocity":50,"Duration":565398,"SoundDuration":565398,"Delta":4500885},{"NoteNumber":60,"Velocity":35,"Duration":740040,"SoundDuration":740040,"Delta":4500885},{"NoteNumber":67,"Velocity":40,"Duration":174642,"SoundDuration":174642,"Delta":5066283},{"NoteNumber":69,"Velocity":50,"Duration":563274,"SoundDuration":563274,"Delta":5240925},{"NoteNumber":53,"Velocity":30,"Duration":1506389,"SoundDuration":1506389,"Delta":5240925},{"NoteNumber":65,"Velocity":41,"Duration":175664,"SoundDuration":175664,"Delta":5804200},{"NoteNumber":62,"Velocity":47,"Duration":570315,"SoundDuration":570315,"Delta":5979864},{"NoteNumber":60,"Velocity":42,"Duration":197134,"SoundDuration":197134,"Delta":6550180},{"NoteNumber":59,"Velocity":47,"Duration":561867,"SoundDuration":561867,"Delta":6747315},{"NoteNumber":55,"Velocity":35,"Duration":732535,"SoundDuration":732535,"Delta":6747315},{"NoteNumber":62,"Velocity":42,"Duration":170668,"SoundDuration":170668,"Delta":7309183},{"NoteNumber":60,"Velocity":47,"Duration":727955,"SoundDuration":727955,"Delta":7479851},{"NoteNumber":52,"Velocity":45,"Duration":556311,"SoundDuration":556311,"Delta":7479851},{"NoteNumber":55,"Velocity":37,"Duration":171644,"SoundDuration":171644,"Delta":8036162},{"NoteNumber":52,"Velocity":49,"Duration":587191,"SoundDuration":587191,"Delta":8207806},{"NoteNumber":48,"Velocity":45,"Duration":214010,"SoundDuration":214010,"Delta":8794997},{"NoteNumber":65,"Velocity":61,"Duration":1481451,"SoundDuration":1481451,"Delta":9009007},{"NoteNumber":62,"Velocity":51,"Duration":1481451,"SoundDuration":1481451,"Delta":9009007},{"NoteNumber":47,"Velocity":61,"Duration":585647,"SoundDuration":585647,"Delta":9009007},{"NoteNumber":50,"Velocity":47,"Duration":174642,"SoundDuration":174642,"Delta":9594655},{"NoteNumber":43,"Velocity":52,"Duration":549517,"SoundDuration":549517,"Delta":9769297},{"NoteNumber":47,"Velocity":37,"Duration":171644,"SoundDuration":171644,"Delta":10318815},{"NoteNumber":60,"Velocity":39,"Duration":792142,"SoundDuration":792142,"Delta":10490459},{"NoteNumber":64,"Velocity":47,"Duration":792142,"SoundDuration":792142,"Delta":10490459},{"NoteNumber":48,"Velocity":43,"Duration":578132,"SoundDuration":578132,"Delta":10490459},{"NoteNumber":52,"Velocity":41,"Duration":214010,"SoundDuration":214010,"Delta":11068591},{"NoteNumber":65,"Velocity":61,"Duration":1509852,"SoundDuration":1509852,"Delta":11282602},{"NoteNumber":62,"Velocity":51,"Duration":1509852,"SoundDuration":1509852,"Delta":11282602},{"NoteNumber":47,"Velocity":61,"Duration":591405,"SoundDuration":591405,"Delta":11282602},{"NoteNumber":50,"Velocity":47,"Duration":176699,"SoundDuration":176699,"Delta":11874007},{"NoteNumber":43,"Velocity":52,"Duration":556311,"SoundDuration":556311,"Delta":12050706},{"NoteNumber":47,"Velocity":37,"Duration":185436,"SoundDuration":185436,"Delta":12607017},{"NoteNumber":60,"Velocity":39,"Duration":792874,"SoundDuration":792874,"Delta":12792454},{"NoteNumber":64,"Velocity":47,"Duration":792874,"SoundDuration":792874,"Delta":12792454},{"NoteNumber":48,"Velocity":43,"Duration":581874,"SoundDuration":581874,"Delta":12792454},{"NoteNumber":52,"Velocity":41,"Duration":211000,"SoundDuration":211000,"Delta":13374328},{"NoteNumber":57,"Velocity":49,"Duration":591405,"SoundDuration":591405,"Delta":13585329},{"NoteNumber":53,"Velocity":35,"Duration":788539,"SoundDuration":788539,"Delta":13585329},{"NoteNumber":62,"Velocity":42,"Duration":197134,"SoundDuration":197134,"Delta":14176734},{"NoteNumber":55,"Velocity":47,"Duration":603297,"SoundDuration":603297,"Delta":14373869},{"NoteNumber":43,"Velocity":35,"Duration":804396,"SoundDuration":804396,"Delta":14373869},{"NoteNumber":52,"Velocity":35,"Duration":804396,"SoundDuration":804396,"Delta":14373869},{"NoteNumber":60,"Velocity":38,"Duration":201099,"SoundDuration":201099,"Delta":14977166},{"NoteNumber":53,"Velocity":45,"Duration":636244,"SoundDuration":636244,"Delta":15178265},{"NoteNumber":50,"Velocity":28,"Duration":870290,"SoundDuration":870290,"Delta":15178265},{"NoteNumber":43,"Velocity":28,"Duration":870290,"SoundDuration":870290,"Delta":15178265},{"NoteNumber":59,"Velocity":36,"Duration":234045,"SoundDuration":234045,"Delta":15814510},{"NoteNumber":53,"Velocity":32,"Duration":1886206,"SoundDuration":1886206,"Delta":16048556},{"NoteNumber":59,"Velocity":32,"Duration":1886206,"SoundDuration":1886206,"Delta":16048556},{"NoteNumber":62,"Velocity":38,"Duration":1886206,"SoundDuration":1886206,"Delta":16048556},{"NoteNumber":48,"Velocity":37,"Duration":887705,"SoundDuration":887705,"Delta":16048556},{"NoteNumber":43,"Velocity":31,"Duration":998501,"SoundDuration":998501,"Delta":16936261},{"NoteNumber":52,"Velocity":29,"Duration":943545,"SoundDuration":943545,"Delta":17934763},{"NoteNumber":60,"Velocity":35,"Duration":943545,"SoundDuration":943545,"Delta":17934763},{"NoteNumber":36,"Velocity":29,"Duration":943545,"SoundDuration":943545,"Delta":17934763},{"NoteNumber":64,"Velocity":50,"Duration":568971,"SoundDuration":568971,"Delta":18878308},{"NoteNumber":56,"Velocity":35,"Duration":1487135,"SoundDuration":1487135,"Delta":18878308},{"NoteNumber":76,"Velocity":44,"Duration":174641,"SoundDuration":174641,"Delta":19447279},{"NoteNumber":74,"Velocity":50,"Duration":566822,"SoundDuration":566822,"Delta":19621921},{"NoteNumber":71,"Velocity":45,"Duration":176699,"SoundDuration":176699,"Delta":20188744},{"NoteNumber":72,"Velocity":47,"Duration":575276,"SoundDuration":575276,"Delta":20365443},{"NoteNumber":57,"Velocity":30,"Duration":775037,"SoundDuration":775037,"Delta":20365443},{"NoteNumber":69,"Velocity":42,"Duration":199760,"SoundDuration":199760,"Delta":20940720},{"NoteNumber":68,"Velocity":50,"Duration":561867,"SoundDuration":561867,"Delta":21140480},{"NoteNumber":62,"Velocity":35,"Duration":1470922,"SoundDuration":1470922,"Delta":21140480},{"NoteNumber":71,"Velocity":40,"Duration":174641,"SoundDuration":174641,"Delta":21702348},{"NoteNumber":64,"Velocity":50,"Duration":559770,"SoundDuration":559770,"Delta":21876990},{"NoteNumber":68,"Velocity":41,"Duration":174641,"SoundDuration":174641,"Delta":22436760},{"NoteNumber":69,"Velocity":47,"Duration":572940,"SoundDuration":572940,"Delta":22611402},{"NoteNumber":60,"Velocity":30,"Duration":771379,"SoundDuration":771379,"Delta":22611402},{"NoteNumber":72,"Velocity":42,"Duration":198439,"SoundDuration":198439,"Delta":23184343},{"NoteNumber":62,"Velocity":50,"Duration":565397,"SoundDuration":565397,"Delta":23382782},{"NoteNumber":54,"Velocity":35,"Duration":1480001,"SoundDuration":1480001,"Delta":23382782},{"NoteNumber":74,"Velocity":40,"Duration":175664,"SoundDuration":175664,"Delta":23948180},{"NoteNumber":72,"Velocity":50,"Duration":563274,"SoundDuration":563274,"Delta":24123844},{"NoteNumber":69,"Velocity":41,"Duration":175664,"SoundDuration":175664,"Delta":24687119},{"NoteNumber":71,"Velocity":47,"Duration":572651,"SoundDuration":572651,"Delta":24862784},{"NoteNumber":55,"Velocity":30,"Duration":769786,"SoundDuration":769786,"Delta":24862784},{"NoteNumber":67,"Velocity":42,"Duration":197134,"SoundDuration":197134,"Delta":25435435},{"NoteNumber":66,"Velocity":50,"Duration":551538,"SoundDuration":551538,"Delta":25632570},{"NoteNumber":60,"Velocity":29,"Duration":724170,"SoundDuration":724170,"Delta":25632570},{"NoteNumber":74,"Velocity":49,"Duration":172632,"SoundDuration":172632,"Delta":26184108},{"NoteNumber":67,"Velocity":57,"Duration":546182,"SoundDuration":546182,"Delta":26356740},{"NoteNumber":59,"Velocity":34,"Duration":716850,"SoundDuration":716850,"Delta":26356740},{"NoteNumber":74,"Velocity":56,"Duration":170667,"SoundDuration":170667,"Delta":26902923},{"NoteNumber":69,"Velocity":64,"Duration":539633,"SoundDuration":539633,"Delta":27073591},{"NoteNumber":54,"Velocity":40,"Duration":719511,"SoundDuration":719511,"Delta":27073591},{"NoteNumber":74,"Velocity":64,"Duration":179877,"SoundDuration":179877,"Delta":27613224},{"NoteNumber":71,"Velocity":72,"Duration":531977,"SoundDuration":531977,"Delta":27793102},{"NoteNumber":55,"Velocity":54,"Duration":697012,"SoundDuration":697012,"Delta":27793102},{"NoteNumber":79,"Velocity":62,"Duration":165034,"SoundDuration":165034,"Delta":28325080},{"NoteNumber":72,"Velocity":68,"Duration":526993,"SoundDuration":526993,"Delta":28490115},{"NoteNumber":57,"Velocity":48,"Duration":693864,"SoundDuration":693864,"Delta":28490115},{"NoteNumber":79,"Velocity":61,"Duration":166870,"SoundDuration":166870,"Delta":29017108},{"NoteNumber":74,"Velocity":68,"Duration":526993,"SoundDuration":526993,"Delta":29183979},{"NoteNumber":59,"Velocity":50,"Duration":721571,"SoundDuration":721571,"Delta":29183979},{"NoteNumber":79,"Velocity":63,"Duration":194577,"SoundDuration":194577,"Delta":29710972},{"NoteNumber":76,"Velocity":68,"Duration":531977,"SoundDuration":531977,"Delta":29905550},{"NoteNumber":60,"Velocity":54,"Duration":699781,"SoundDuration":699781,"Delta":29905550},{"NoteNumber":84,"Velocity":56,"Duration":167804,"SoundDuration":167804,"Delta":30437528},{"NoteNumber":78,"Velocity":65,"Duration":530097,"SoundDuration":530097,"Delta":30605332},{"NoteNumber":57,"Velocity":48,"Duration":698845,"SoundDuration":698845,"Delta":30605332},{"NoteNumber":81,"Velocity":56,"Duration":168748,"SoundDuration":168748,"Delta":31135430},{"NoteNumber":79,"Velocity":65,"Duration":530097,"SoundDuration":530097,"Delta":31304178},{"NoteNumber":59,"Velocity":42,"Duration":733929,"SoundDuration":733929,"Delta":31304178},{"NoteNumber":71,"Velocity":42,"Duration":203831,"SoundDuration":203831,"Delta":31834276},{"NoteNumber":74,"Velocity":50,"Duration":203831,"SoundDuration":203831,"Delta":31834276},{"NoteNumber":71,"Velocity":51,"Duration":563044,"SoundDuration":563044,"Delta":32038108},{"NoteNumber":74,"Velocity":61,"Duration":563044,"SoundDuration":563044,"Delta":32038108},{"NoteNumber":48,"Velocity":53,"Duration":750333,"SoundDuration":750333,"Delta":32038108},{"NoteNumber":69,"Velocity":39,"Duration":187289,"SoundDuration":187289,"Delta":32601152},{"NoteNumber":72,"Velocity":47,"Duration":187289,"SoundDuration":187289,"Delta":32601152},{"NoteNumber":71,"Velocity":59,"Duration":773296,"SoundDuration":773296,"Delta":32788441},{"NoteNumber":67,"Velocity":50,"Duration":773296,"SoundDuration":773296,"Delta":32788441},{"NoteNumber":50,"Velocity":42,"Duration":773296,"SoundDuration":773296,"Delta":32788441},{"NoteNumber":69,"Velocity":44,"Duration":804397,"SoundDuration":804397,"Delta":33561737},{"NoteNumber":66,"Velocity":37,"Duration":804397,"SoundDuration":804397,"Delta":33561737},{"NoteNumber":38,"Velocity":36,"Duration":804397,"SoundDuration":804397,"Delta":33561737},{"NoteNumber":67,"Velocity":54,"Duration":832293,"SoundDuration":832293,"Delta":34366134},{"NoteNumber":43,"Velocity":30,"Duration":624219,"SoundDuration":624219,"Delta":34366134},{"NoteNumber":55,"Velocity":26,"Duration":208073,"SoundDuration":208073,"Delta":34990354},{"NoteNumber":66,"Velocity":40,"Duration":862192,"SoundDuration":862192,"Delta":35198427},{"NoteNumber":45,"Velocity":30,"Duration":646644,"SoundDuration":646644,"Delta":35198427},{"NoteNumber":55,"Velocity":25,"Duration":215548,"SoundDuration":215548,"Delta":35845072},{"NoteNumber":65,"Velocity":28,"Duration":945516,"SoundDuration":945516,"Delta":36060620},{"NoteNumber":47,"Velocity":30,"Duration":670740,"SoundDuration":670740,"Delta":36060620},{"NoteNumber":55,"Velocity":20,"Duration":274775,"SoundDuration":274775,"Delta":36731361},{"NoteNumber":64,"Velocity":46,"Duration":568971,"SoundDuration":568971,"Delta":37006137},{"NoteNumber":48,"Velocity":33,"Duration":1487135,"SoundDuration":1487135,"Delta":37006137},{"NoteNumber":67,"Velocity":40,"Duration":176699,"SoundDuration":176699,"Delta":37575108},{"NoteNumber":72,"Velocity":50,"Duration":566822,"SoundDuration":566822,"Delta":37751808},{"NoteNumber":69,"Velocity":41,"Duration":174641,"SoundDuration":174641,"Delta":38318630},{"NoteNumber":67,"Velocity":47,"Duration":575276,"SoundDuration":575276,"Delta":38493272},{"NoteNumber":47,"Velocity":30,"Duration":775037,"SoundDuration":775037,"Delta":38493272},{"NoteNumber":65,"Velocity":42,"Duration":199760,"SoundDuration":199760,"Delta":39068549},{"NoteNumber":64,"Velocity":50,"Duration":561867,"SoundDuration":561867,"Delta":39268309},{"NoteNumber":48,"Velocity":35,"Duration":1468485,"SoundDuration":1468485,"Delta":39268309},{"NoteNumber":67,"Velocity":40,"Duration":174641,"SoundDuration":174641,"Delta":39830177},{"NoteNumber":72,"Velocity":50,"Duration":556311,"SoundDuration":556311,"Delta":40004819},{"NoteNumber":69,"Velocity":41,"Duration":175664,"SoundDuration":175664,"Delta":40561130},{"NoteNumber":67,"Velocity":47,"Duration":572940,"SoundDuration":572940,"Delta":40736794},{"NoteNumber":47,"Velocity":30,"Duration":771379,"SoundDuration":771379,"Delta":40736794},{"NoteNumber":65,"Velocity":42,"Duration":198439,"SoundDuration":198439,"Delta":41309735},{"NoteNumber":64,"Velocity":50,"Duration":565398,"SoundDuration":565398,"Delta":41508174},{"NoteNumber":48,"Velocity":35,"Duration":741062,"SoundDuration":741062,"Delta":41508174},{"NoteNumber":67,"Velocity":40,"Duration":175664,"SoundDuration":175664,"Delta":42073572},{"NoteNumber":69,"Velocity":50,"Duration":563274,"SoundDuration":563274,"Delta":42249236},{"NoteNumber":53,"Velocity":30,"Duration":1507703,"SoundDuration":1507703,"Delta":42249236},{"NoteNumber":65,"Velocity":41,"Duration":174641,"SoundDuration":174641,"Delta":42812511},{"NoteNumber":62,"Velocity":47,"Duration":572651,"SoundDuration":572651,"Delta":42987153},{"NoteNumber":60,"Velocity":42,"Duration":197134,"SoundDuration":197134,"Delta":43559805},{"NoteNumber":59,"Velocity":47,"Duration":561867,"SoundDuration":561867,"Delta":43756940},{"NoteNumber":55,"Velocity":35,"Duration":738566,"SoundDuration":738566,"Delta":43756940},{"NoteNumber":62,"Velocity":42,"Duration":176699,"SoundDuration":176699,"Delta":44318807},{"NoteNumber":60,"Velocity":47,"Duration":734057,"SoundDuration":734057,"Delta":44495507},{"NoteNumber":52,"Velocity":45,"Duration":556311,"SoundDuration":556311,"Delta":44495507},{"NoteNumber":55,"Velocity":37,"Duration":177746,"SoundDuration":177746,"Delta":45051818},{"NoteNumber":52,"Velocity":43,"Duration":587190,"SoundDuration":587190,"Delta":45229564},{"NoteNumber":48,"Velocity":41,"Duration":214010,"SoundDuration":214010,"Delta":45816755},{"NoteNumber":65,"Velocity":61,"Duration":1505026,"SoundDuration":1505026,"Delta":46030765},{"NoteNumber":62,"Velocity":51,"Duration":1505026,"SoundDuration":1505026,"Delta":46030765},{"NoteNumber":47,"Velocity":61,"Duration":595317,"SoundDuration":595317,"Delta":46030765},{"NoteNumber":50,"Velocity":47,"Duration":176699,"SoundDuration":176699,"Delta":46626082},{"NoteNumber":43,"Velocity":52,"Duration":556311,"SoundDuration":556311,"Delta":46802782},{"NoteNumber":47,"Velocity":37,"Duration":176699,"SoundDuration":176699,"Delta":47359093},{"NoteNumber":60,"Velocity":39,"Duration":798895,"SoundDuration":798895,"Delta":47535792},{"NoteNumber":64,"Velocity":47,"Duration":798895,"SoundDuration":798895,"Delta":47535792},{"NoteNumber":48,"Velocity":43,"Duration":584884,"SoundDuration":584884,"Delta":47535792},{"NoteNumber":52,"Velocity":41,"Duration":214010,"SoundDuration":214010,"Delta":48120676},{"NoteNumber":65,"Velocity":61,"Duration":1500079,"SoundDuration":1500079,"Delta":48334687},{"NoteNumber":62,"Velocity":51,"Duration":1500079,"SoundDuration":1500079,"Delta":48334687},{"NoteNumber":47,"Velocity":61,"Duration":591405,"SoundDuration":591405,"Delta":48334687},{"NoteNumber":50,"Velocity":47,"Duration":176699,"SoundDuration":176699,"Delta":48926092},{"NoteNumber":43,"Velocity":52,"Duration":556311,"SoundDuration":556311,"Delta":49102791},{"NoteNumber":47,"Velocity":37,"Duration":175664,"SoundDuration":175664,"Delta":49659102},{"NoteNumber":60,"Velocity":39,"Duration":790596,"SoundDuration":790596,"Delta":49834767},{"NoteNumber":64,"Velocity":47,"Duration":790596,"SoundDuration":790596,"Delta":49834767},{"NoteNumber":48,"Velocity":43,"Duration":579595,"SoundDuration":579595,"Delta":49834767},{"NoteNumber":52,"Velocity":41,"Duration":211000,"SoundDuration":211000,"Delta":50414362},{"NoteNumber":57,"Velocity":49,"Duration":591405,"SoundDuration":591405,"Delta":50625363},{"NoteNumber":53,"Velocity":35,"Duration":788539,"SoundDuration":788539,"Delta":50625363},{"NoteNumber":62,"Velocity":42,"Duration":197134,"SoundDuration":197134,"Delta":51216768},{"NoteNumber":55,"Velocity":47,"Duration":603297,"SoundDuration":603297,"Delta":51413903},{"NoteNumber":43,"Velocity":35,"Duration":804397,"SoundDuration":804397,"Delta":51413903},{"NoteNumber":52,"Velocity":35,"Duration":804397,"SoundDuration":804397,"Delta":51413903},{"NoteNumber":60,"Velocity":38,"Duration":201099,"SoundDuration":201099,"Delta":52017200},{"NoteNumber":53,"Velocity":45,"Duration":636244,"SoundDuration":636244,"Delta":52218300},{"NoteNumber":50,"Velocity":28,"Duration":870289,"SoundDuration":870289,"Delta":52218300},{"NoteNumber":43,"Velocity":28,"Duration":870289,"SoundDuration":870289,"Delta":52218300},{"NoteNumber":59,"Velocity":36,"Duration":234045,"SoundDuration":234045,"Delta":52854544},{"NoteNumber":60,"Velocity":38,"Duration":665778,"SoundDuration":665778,"Delta":53088590},{"NoteNumber":52,"Velocity":37,"Duration":848951,"SoundDuration":848951,"Delta":53088590},{"NoteNumber":48,"Velocity":37,"Duration":848951,"SoundDuration":848951,"Delta":53088590},{"NoteNumber":72,"Velocity":38,"Duration":183172,"SoundDuration":183172,"Delta":53754368},{"NoteNumber":71,"Velocity":46,"Duration":577737,"SoundDuration":577737,"Delta":53937541},{"NoteNumber":69,"Velocity":47,"Duration":183172,"SoundDuration":183172,"Delta":54515279},{"NoteNumber":67,"Velocity":53,"Duration":583733,"SoundDuration":583733,"Delta":54698451},{"NoteNumber":66,"Velocity":49,"Duration":221926,"SoundDuration":221926,"Delta":55282184},{"NoteNumber":65,"Velocity":61,"Duration":1517734,"SoundDuration":1517734,"Delta":55504111},{"NoteNumber":62,"Velocity":51,"Duration":1517734,"SoundDuration":1517734,"Delta":55504111},{"NoteNumber":47,"Velocity":61,"Duration":599280,"SoundDuration":599280,"Delta":55504111},{"NoteNumber":50,"Velocity":47,"Duration":179877,"SoundDuration":179877,"Delta":56103391},{"NoteNumber":43,"Velocity":52,"Duration":559770,"SoundDuration":559770,"Delta":56283269},{"NoteNumber":47,"Velocity":37,"Duration":178805,"SoundDuration":178805,"Delta":56843040},{"NoteNumber":60,"Velocity":39,"Duration":798895,"SoundDuration":798895,"Delta":57021845},{"NoteNumber":64,"Velocity":47,"Duration":798895,"SoundDuration":798895,"Delta":57021845},{"NoteNumber":48,"Velocity":43,"Duration":584884,"SoundDuration":584884,"Delta":57021845},{"NoteNumber":52,"Velocity":41,"Duration":214010,"SoundDuration":214010,"Delta":57606730},{"NoteNumber":65,"Velocity":61,"Duration":1493835,"SoundDuration":1493835,"Delta":57820740},{"NoteNumber":62,"Velocity":51,"Duration":1493835,"SoundDuration":1493835,"Delta":57820740},{"NoteNumber":47,"Velocity":61,"Duration":587544,"SoundDuration":587544,"Delta":57820740},{"NoteNumber":50,"Velocity":47,"Duration":176699,"SoundDuration":176699,"Delta":58408284},{"NoteNumber":43,"Velocity":52,"Duration":552893,"SoundDuration":552893,"Delta":58584984},{"NoteNumber":47,"Velocity":37,"Duration":176699,"SoundDuration":176699,"Delta":59137877},{"NoteNumber":60,"Velocity":39,"Duration":788345,"SoundDuration":788345,"Delta":59314576},{"NoteNumber":64,"Velocity":47,"Duration":788345,"SoundDuration":788345,"Delta":59314576},{"NoteNumber":48,"Velocity":43,"Duration":577345,"SoundDuration":577345,"Delta":59314576},{"NoteNumber":52,"Velocity":41,"Duration":211000,"SoundDuration":211000,"Delta":59891921},{"NoteNumber":57,"Velocity":49,"Duration":579706,"SoundDuration":579706,"Delta":60102922},{"NoteNumber":53,"Velocity":35,"Duration":766297,"SoundDuration":766297,"Delta":60102922},{"NoteNumber":62,"Velocity":42,"Duration":186590,"SoundDuration":186590,"Delta":60682629},{"NoteNumber":55,"Velocity":47,"Duration":592963,"SoundDuration":592963,"Delta":60869219},{"NoteNumber":43,"Velocity":29,"Duration":790618,"SoundDuration":790618,"Delta":60869219},{"NoteNumber":52,"Velocity":35,"Duration":790618,"SoundDuration":790618,"Delta":60869219},{"NoteNumber":60,"Velocity":38,"Duration":197654,"SoundDuration":197654,"Delta":61462182},{"NoteNumber":53,"Velocity":45,"Duration":672902,"SoundDuration":672902,"Delta":61659837},{"NoteNumber":50,"Velocity":28,"Duration":926752,"SoundDuration":926752,"Delta":61659837},{"NoteNumber":43,"Velocity":23,"Duration":926752,"SoundDuration":926752,"Delta":61659837},{"NoteNumber":59,"Velocity":36,"Duration":253849,"SoundDuration":253849,"Delta":62332740},{"NoteNumber":53,"Velocity":32,"Duration":2184733,"SoundDuration":2184733,"Delta":62586590},{"NoteNumber":59,"Velocity":32,"Duration":2184733,"SoundDuration":2184733,"Delta":62586590},{"NoteNumber":62,"Velocity":38,"Duration":2184733,"SoundDuration":2184733,"Delta":62586590},{"NoteNumber":48,"Velocity":37,"Duration":1032879,"SoundDuration":1032879,"Delta":62586590},{"NoteNumber":43,"Velocity":31,"Duration":1151853,"SoundDuration":1151853,"Delta":63619470},{"NoteNumber":52,"Velocity":29,"Duration":1247660,"SoundDuration":1247660,"Delta":64771323},{"NoteNumber":60,"Velocity":35,"Duration":1247660,"SoundDuration":1247660,"Delta":64771323},{"NoteNumber":36,"Velocity":29,"Duration":1247660,"SoundDuration":1247660,"Delta":64771323}],"license":{"name":"Creative Commons Attribution-ShareAlike 3.0 Germany","url":"http://creativecommons.org/licenses/by-sa/3.0/de/deed.en","text":"The MIDI, audio (MP3, OGG) and video files of Bernd Krueger are licensed under the cc-by-sa Germany License. This means that you can use and adapt the files, as long as you attribute the copyright holder.\n\nName: Bernd Krueger\nSource: http://www.piano-midi.de\n\nThe distribution or public playback of the files is only allowed under identical license conditions.\n\nThe scores are open source.","attribution":"MIDI files by Bernd Krueger (piano-midi.de)"}}