{"title":"Danza Espanola No. 3","artist":"Piano","durationMs":188545,"midiSha256":"1dd9781f2dde4f3aef2837f37b83bf57c314c5cdb34816b2032dc3419d844860","midiObject":[{"NoteNumber":62,"Velocity":82,"Duration":300000,"SoundDuration":300000,"Delta":0},{"NoteNumber":38,"Velocity":46,"Duration":300000,"SoundDuration":300000,"Delta":0},{"NoteNumber":50,"Velocity":64,"Duration":300000,"SoundDuration":300000,"Delta":0},{"NoteNumber":64,"Velocity":78,"Duration":74074,"SoundDuration":74074,"Delta":300000},{"NoteNumber":52,"Velocity":61,"Duration":74074,"SoundDuration":74074,"Delta":300000},{"NoteNumber":40,"Velocity":44,"Duration":74074,"SoundDuration":74074,"Delta":300000},{"NoteNumber":62,"Velocity":75,"Duration":74073,"SoundDuration":74073,"Delta":448148},{"NoteNumber":50,"Velocity":59,"Duration":74073,"SoundDuration":74073,"Delta":448148},{"NoteNumber":38,"Velocity":41,"Duration":74073,"SoundDuration":74073,"Delta":448148},{"NoteNumber":61,"Velocity":79,"Duration":73349,"SoundDuration":73349,"Delta":596295},{"NoteNumber":37,"Velocity":45,"Duration":73349,"SoundDuration":73349,"Delta":596295},{"NoteNumber":49,"Velocity":62,"Duration":73349,"SoundDuration":73349,"Delta":596295},{"NoteNumber":62,"Velocity":73,"Duration":73349,"SoundDuration":73349,"Delta":742995},{"NoteNumber":38,"Velocity":40,"Duration":73349,"SoundDuration":73349,"Delta":742995},{"NoteNumber":50,"Velocity":58,"Duration":73349,"SoundDuration":73349,"Delta":742995},{"NoteNumber":64,"Velocity":81,"Duration":77319,"SoundDuration":77319,"Delta":889694},{"NoteNumber":52,"Velocity":63,"Duration":77319,"SoundDuration":77319,"Delta":889694},{"NoteNumber":40,"Velocity":45,"Duration":77319,"SoundDuration":77319,"Delta":889694},{"NoteNumber":67,"Velocity":75,"Duration":76534,"SoundDuration":76534,"Delta":1198972},{"NoteNumber":55,"Velocity":52,"Duration":76534,"SoundDuration":76534,"Delta":1198972},{"NoteNumber":43,"Velocity":37,"Duration":76534,"SoundDuration":76534,"Delta":1198972},{"NoteNumber":66,"Velocity":73,"Duration":77120,"SoundDuration":77120,"Delta":1503934},{"NoteNumber":42,"Velocity":40,"Duration":77120,"SoundDuration":77120,"Delta":1503934},{"NoteNumber":54,"Velocity":58,"Duration":77120,"SoundDuration":77120,"Delta":1503934},{"NoteNumber":62,"Velocity":82,"Duration":262499,"SoundDuration":262499,"Delta":1812417},{"NoteNumber":38,"Velocity":46,"Duration":262499,"SoundDuration":262499,"Delta":1812417},{"NoteNumber":50,"Velocity":64,"Duration":262499,"SoundDuration":262499,"Delta":1812417},{"NoteNumber":66,"Velocity":71,"Duration":37500,"SoundDuration":37500,"Delta":2074917},{"NoteNumber":54,"Velocity":56,"Duration":37500,"SoundDuration":37500,"Delta":2074917},{"NoteNumber":42,"Velocity":39,"Duration":37500,"SoundDuration":37500,"Delta":2074917},{"NoteNumber":64,"Velocity":75,"Duration":73710,"SoundDuration":73710,"Delta":2112417},{"NoteNumber":52,"Velocity":59,"Duration":73710,"SoundDuration":73710,"Delta":2112417},{"NoteNumber":40,"Velocity":42,"Duration":73710,"SoundDuration":73710,"Delta":2112417},{"NoteNumber":62,"Velocity":73,"Duration":73710,"SoundDuration":73710,"Delta":2259837},{"NoteNumber":38,"Velocity":40,"Duration":73710,"SoundDuration":73710,"Delta":2259837},{"NoteNumber":50,"Velocity":57,"Duration":73710,"SoundDuration":73710,"Delta":2259837},{"NoteNumber":61,"Velocity":77,"Duration":73170,"SoundDuration":73170,"Delta":2407257},{"NoteNumber":37,"Velocity":44,"Duration":73170,"SoundDuration":73170,"Delta":2407257},{"NoteNumber":49,"Velocity":60,"Duration":73170,"SoundDuration":73170,"Delta":2407257},{"NoteNumber":62,"Velocity":71,"Duration":73170,"SoundDuration":73170,"Delta":2553598},{"NoteNumber":50,"Velocity":56,"Duration":73170,"SoundDuration":73170,"Delta":2553598},{"NoteNumber":38,"Velocity":39,"Duration":73170,"SoundDuration":73170,"Delta":2553598},{"NoteNumber":64,"Velocity":80,"Duration":77319,"SoundDuration":77319,"Delta":2699940},{"NoteNumber":40,"Velocity":45,"Duration":77319,"SoundDuration":77319,"Delta":2699940},{"NoteNumber":52,"Velocity":63,"Duration":77319,"SoundDuration":77319,"Delta":2699940},{"NoteNumber":67,"Velocity":74,"Duration":76142,"SoundDuration":76142,"Delta":3009218},{"NoteNumber":43,"Velocity":37,"Duration":76142,"SoundDuration":76142,"Delta":3009218},{"NoteNumber":55,"Velocity":52,"Duration":76142,"SoundDuration":76142,"Delta":3009218},{"NoteNumber":66,"Velocity":73,"Duration":76726,"SoundDuration":76726,"Delta":3313787},{"NoteNumber":42,"Velocity":40,"Duration":76726,"SoundDuration":76726,"Delta":3313787},{"NoteNumber":54,"Velocity":58,"Duration":76726,"SoundDuration":76726,"Delta":3313787},{"NoteNumber":62,"Velocity":80,"Duration":299999,"SoundDuration":299999,"Delta":3620692},{"NoteNumber":50,"Velocity":63,"Duration":299999,"SoundDuration":299999,"Delta":3620692},{"NoteNumber":38,"Velocity":59,"Duration":299999,"SoundDuration":299999,"Delta":3620692},{"NoteNumber":64,"Velocity":73,"Duration":147783,"SoundDuration":147783,"Delta":3920692},{"NoteNumber":52,"Velocity":58,"Duration":147783,"SoundDuration":147783,"Delta":3920692},{"NoteNumber":66,"Velocity":74,"Duration":147783,"SoundDuration":147783,"Delta":4068475},{"NoteNumber":54,"Velocity":59,"Duration":147783,"SoundDuration":147783,"Delta":4068475},{"NoteNumber":69,"Velocity":77,"Duration":146341,"SoundDuration":146341,"Delta":4216259},{"NoteNumber":57,"Velocity":60,"Duration":146341,"SoundDuration":146341,"Delta":4216259},{"NoteNumber":72,"Velocity":78,"Duration":146341,"SoundDuration":146341,"Delta":4362600},{"NoteNumber":60,"Velocity":61,"Duration":146341,"SoundDuration":146341,"Delta":4362600},{"NoteNumber":76,"Velocity":79,"Duration":296295,"SoundDuration":296295,"Delta":4508942},{"NoteNumber":64,"Velocity":62,"Duration":296295,"SoundDuration":296295,"Delta":4508942},{"NoteNumber":79,"Velocity":78,"Duration":296295,"SoundDuration":296295,"Delta":4805238},{"NoteNumber":67,"Velocity":61,"Duration":296295,"SoundDuration":296295,"Delta":4805238},{"NoteNumber":78,"Velocity":78,"Duration":304568,"SoundDuration":304568,"Delta":5101534},{"NoteNumber":66,"Velocity":60,"Duration":304568,"SoundDuration":304568,"Delta":5101534},{"NoteNumber":62,"Velocity":60,"Duration":297767,"SoundDuration":297767,"Delta":5406103},{"NoteNumber":66,"Velocity":60,"Duration":297767,"SoundDuration":297767,"Delta":5406103},{"NoteNumber":78,"Velocity":79,"Duration":297767,"SoundDuration":297767,"Delta":5406103},{"NoteNumber":59,"Velocity":57,"Duration":894797,"SoundDuration":894797,"Delta":5406103},{"NoteNumber":55,"Velocity":55,"Duration":894797,"SoundDuration":894797,"Delta":5406103},{"NoteNumber":79,"Velocity":72,"Duration":148514,"SoundDuration":148514,"Delta":5703870},{"NoteNumber":67,"Velocity":57,"Duration":148514,"SoundDuration":148514,"Delta":5703870},{"NoteNumber":66,"Velocity":57,"Duration":148515,"SoundDuration":148515,"Delta":5852385},{"NoteNumber":78,"Velocity":72,"Duration":148515,"SoundDuration":148515,"Delta":5852385},{"NoteNumber":76,"Velocity":71,"Duration":150000,"SoundDuration":150000,"Delta":6000900},{"NoteNumber":64,"Velocity":56,"Duration":150000,"SoundDuration":150000,"Delta":6000900},{"NoteNumber":62,"Velocity":56,"Duration":149999,"SoundDuration":149999,"Delta":6150900},{"NoteNumber":74,"Velocity":71,"Duration":149999,"SoundDuration":149999,"Delta":6150900},{"NoteNumber":67,"Velocity":70,"Duration":264483,"SoundDuration":264483,"Delta":6300900},{"NoteNumber":73,"Velocity":77,"Duration":264483,"SoundDuration":264483,"Delta":6300900},{"NoteNumber":55,"Velocity":58,"Duration":264483,"SoundDuration":264483,"Delta":6300900},{"NoteNumber":61,"Velocity":60,"Duration":264483,"SoundDuration":264483,"Delta":6300900},{"NoteNumber":57,"Velocity":58,"Duration":264483,"SoundDuration":264483,"Delta":6300900},{"NoteNumber":74,"Velocity":64,"Duration":37783,"SoundDuration":37783,"Delta":6565384},{"NoteNumber":73,"Velocity":73,"Duration":148147,"SoundDuration":148147,"Delta":6603167},{"NoteNumber":61,"Velocity":58,"Duration":148147,"SoundDuration":148147,"Delta":6603167},{"NoteNumber":69,"Velocity":67,"Duration":148147,"SoundDuration":148147,"Delta":6751315},{"NoteNumber":57,"Velocity":53,"Duration":148147,"SoundDuration":148147,"Delta":6751315},{"NoteNumber":71,"Velocity":72,"Duration":150000,"SoundDuration":150000,"Delta":6899463},{"NoteNumber":59,"Velocity":57,"Duration":150000,"SoundDuration":150000,"Delta":6899463},{"NoteNumber":73,"Velocity":69,"Duration":149999,"SoundDuration":149999,"Delta":7049463},{"NoteNumber":61,"Velocity":55,"Duration":149999,"SoundDuration":149999,"Delta":7049463},{"NoteNumber":66,"Velocity":74,"Duration":305343,"SoundDuration":305343,"Delta":7199463},{"NoteNumber":74,"Velocity":74,"Duration":305343,"SoundDuration":305343,"Delta":7199463},{"NoteNumber":54,"Velocity":59,"Duration":305343,"SoundDuration":305343,"Delta":7199463},{"NoteNumber":57,"Velocity":59,"Duration":305343,"SoundDuration":305343,"Delta":7199463},{"NoteNumber":62,"Velocity":59,"Duration":305343,"SoundDuration":305343,"Delta":7199463},{"NoteNumber":64,"Velocity":78,"Duration":74074,"SoundDuration":74074,"Delta":7504807},{"NoteNumber":40,"Velocity":44,"Duration":74074,"SoundDuration":74074,"Delta":7504807},{"NoteNumber":52,"Velocity":61,"Duration":74074,"SoundDuration":74074,"Delta":7504807},{"NoteNumber":62,"Velocity":75,"Duration":74074,"SoundDuration":74074,"Delta":7652955},{"NoteNumber":50,"Velocity":59,"Duration":74074,"SoundDuration":74074,"Delta":7652955},{"NoteNumber":38,"Velocity":41,"Duration":74074,"SoundDuration":74074,"Delta":7652955},{"NoteNumber":61,"Velocity":79,"Duration":73529,"SoundDuration":73529,"Delta":7801103},{"NoteNumber":37,"Velocity":45,"Duration":73529,"SoundDuration":73529,"Delta":7801103},{"NoteNumber":49,"Velocity":62,"Duration":73529,"SoundDuration":73529,"Delta":7801103},{"NoteNumber":62,"Velocity":73,"Duration":73529,"SoundDuration":73529,"Delta":7948162},{"NoteNumber":38,"Velocity":40,"Duration":73529,"SoundDuration":73529,"Delta":7948162},{"NoteNumber":50,"Velocity":58,"Duration":73529,"SoundDuration":73529,"Delta":7948162},{"NoteNumber":64,"Velocity":81,"Duration":77921,"SoundDuration":77921,"Delta":8095221},{"NoteNumber":52,"Velocity":63,"Duration":77921,"SoundDuration":77921,"Delta":8095221},{"NoteNumber":40,"Velocity":45,"Duration":77921,"SoundDuration":77921,"Delta":8095221},{"NoteNumber":67,"Velocity":74,"Duration":76142,"SoundDuration":76142,"Delta":8406909},{"NoteNumber":55,"Velocity":52,"Duration":76142,"SoundDuration":76142,"Delta":8406909},{"NoteNumber":43,"Velocity":37,"Duration":76142,"SoundDuration":76142,"Delta":8406909},{"NoteNumber":66,"Velocity":73,"Duration":76923,"SoundDuration":76923,"Delta":8711478},{"NoteNumber":42,"Velocity":40,"Duration":76923,"SoundDuration":76923,"Delta":8711478},{"NoteNumber":54,"Velocity":58,"Duration":76923,"SoundDuration":76923,"Delta":8711478},{"NoteNumber":62,"Velocity":82,"Duration":262499,"SoundDuration":262499,"Delta":9019170},{"NoteNumber":38,"Velocity":46,"Duration":262499,"SoundDuration":262499,"Delta":9019170},{"NoteNumber":50,"Velocity":64,"Duration":262499,"SoundDuration":262499,"Delta":9019170},{"NoteNumber":66,"Velocity":71,"Duration":37500,"SoundDuration":37500,"Delta":9281670},{"NoteNumber":54,"Velocity":56,"Duration":37500,"SoundDuration":37500,"Delta":9281670},{"NoteNumber":42,"Velocity":39,"Duration":37500,"SoundDuration":37500,"Delta":9281670},{"NoteNumber":64,"Velocity":75,"Duration":73710,"SoundDuration":73710,"Delta":9319170},{"NoteNumber":52,"Velocity":59,"Duration":73710,"SoundDuration":73710,"Delta":9319170},{"NoteNumber":40,"Velocity":42,"Duration":73710,"SoundDuration":73710,"Delta":9319170},{"NoteNumber":62,"Velocity":73,"Duration":73710,"SoundDuration":73710,"Delta":9466590},{"NoteNumber":38,"Velocity":40,"Duration":73710,"SoundDuration":73710,"Delta":9466590},{"NoteNumber":50,"Velocity":57,"Duration":73710,"SoundDuration":73710,"Delta":9466590},{"NoteNumber":61,"Velocity":77,"Duration":73170,"SoundDuration":73170,"Delta":9614010},{"NoteNumber":37,"Velocity":44,"Duration":73170,"SoundDuration":73170,"Delta":9614010},{"NoteNumber":49,"Velocity":60,"Duration":73170,"SoundDuration":73170,"Delta":9614010},{"NoteNumber":62,"Velocity":71,"Duration":73170,"SoundDuration":73170,"Delta":9760351},{"NoteNumber":50,"Velocity":56,"Duration":73170,"SoundDuration":73170,"Delta":9760351},{"NoteNumber":38,"Velocity":39,"Duration":73170,"SoundDuration":73170,"Delta":9760351},{"NoteNumber":64,"Velocity":80,"Duration":77720,"SoundDuration":77720,"Delta":9906693},{"NoteNumber":40,"Velocity":45,"Duration":77720,"SoundDuration":77720,"Delta":9906693},{"NoteNumber":52,"Velocity":63,"Duration":77720,"SoundDuration":77720,"Delta":9906693},{"NoteNumber":67,"Velocity":74,"Duration":76335,"SoundDuration":76335,"Delta":10217574},{"NoteNumber":43,"Velocity":37,"Duration":76335,"SoundDuration":76335,"Delta":10217574},{"NoteNumber":55,"Velocity":52,"Duration":76335,"SoundDuration":76335,"Delta":10217574},{"NoteNumber":66,"Velocity":73,"Duration":75949,"SoundDuration":75949,"Delta":10522918},{"NoteNumber":42,"Velocity":40,"Duration":75949,"SoundDuration":75949,"Delta":10522918},{"NoteNumber":54,"Velocity":58,"Duration":75949,"SoundDuration":75949,"Delta":10522918},{"NoteNumber":62,"Velocity":80,"Duration":300000,"SoundDuration":300000,"Delta":10826715},{"NoteNumber":50,"Velocity":63,"Duration":300000,"SoundDuration":300000,"Delta":10826715},{"NoteNumber":38,"Velocity":58,"Duration":300000,"SoundDuration":300000,"Delta":10826715},{"NoteNumber":64,"Velocity":73,"Duration":147420,"SoundDuration":147420,"Delta":11126715},{"NoteNumber":52,"Velocity":58,"Duration":147420,"SoundDuration":147420,"Delta":11126715},{"NoteNumber":66,"Velocity":74,"Duration":147420,"SoundDuration":147420,"Delta":11274135},{"NoteNumber":54,"Velocity":59,"Duration":147420,"SoundDuration":147420,"Delta":11274135},{"NoteNumber":69,"Velocity":77,"Duration":145630,"SoundDuration":145630,"Delta":11421555},{"NoteNumber":57,"Velocity":60,"Duration":145630,"SoundDuration":145630,"Delta":11421555},{"NoteNumber":72,"Velocity":78,"Duration":145630,"SoundDuration":145630,"Delta":11567186},{"NoteNumber":60,"Velocity":61,"Duration":145630,"SoundDuration":145630,"Delta":11567186},{"NoteNumber":76,"Velocity":79,"Duration":296295,"SoundDuration":296295,"Delta":11712817},{"NoteNumber":64,"Velocity":62,"Duration":296295,"SoundDuration":296295,"Delta":11712817},{"NoteNumber":79,"Velocity":78,"Duration":296295,"SoundDuration":296295,"Delta":12009113},{"NoteNumber":67,"Velocity":61,"Duration":296295,"SoundDuration":296295,"Delta":12009113},{"NoteNumber":78,"Velocity":78,"Duration":304569,"SoundDuration":304569,"Delta":12305409},{"NoteNumber":66,"Velocity":60,"Duration":304569,"SoundDuration":304569,"Delta":12305409},{"NoteNumber":62,"Velocity":60,"Duration":297767,"SoundDuration":297767,"Delta":12609978},{"NoteNumber":78,"Velocity":79,"Duration":297767,"SoundDuration":297767,"Delta":12609978},{"NoteNumber":66,"Velocity":60,"Duration":297767,"SoundDuration":297767,"Delta":12609978},{"NoteNumber":59,"Velocity":57,"Duration":894797,"SoundDuration":894797,"Delta":12609978},{"NoteNumber":55,"Velocity":55,"Duration":894797,"SoundDuration":894797,"Delta":12609978},{"NoteNumber":67,"Velocity":57,"Duration":148514,"SoundDuration":148514,"Delta":12907745},{"NoteNumber":79,"Velocity":72,"Duration":148514,"SoundDuration":148514,"Delta":12907745},{"NoteNumber":66,"Velocity":57,"Duration":148514,"SoundDuration":148514,"Delta":13056260},{"NoteNumber":78,"Velocity":72,"Duration":148514,"SoundDuration":148514,"Delta":13056260},{"NoteNumber":76,"Velocity":71,"Duration":150000,"SoundDuration":150000,"Delta":13204775},{"NoteNumber":64,"Velocity":56,"Duration":150000,"SoundDuration":150000,"Delta":13204775},{"NoteNumber":62,"Velocity":56,"Duration":150000,"SoundDuration":150000,"Delta":13354775},{"NoteNumber":74,"Velocity":71,"Duration":150000,"SoundDuration":150000,"Delta":13354775},{"NoteNumber":73,"Velocity":77,"Duration":264483,"SoundDuration":264483,"Delta":13504775},{"NoteNumber":67,"Velocity":70,"Duration":264483,"SoundDuration":264483,"Delta":13504775},{"NoteNumber":55,"Velocity":58,"Duration":264483,"SoundDuration":264483,"Delta":13504775},{"NoteNumber":61,"Velocity":60,"Duration":264483,"SoundDuration":264483,"Delta":13504775},{"NoteNumber":57,"Velocity":58,"Duration":264483,"SoundDuration":264483,"Delta":13504775},{"NoteNumber":74,"Velocity":64,"Duration":37783,"SoundDuration":37783,"Delta":13769259},{"NoteNumber":73,"Velocity":73,"Duration":148148,"SoundDuration":148148,"Delta":13807042},{"NoteNumber":61,"Velocity":58,"Duration":148148,"SoundDuration":148148,"Delta":13807042},{"NoteNumber":69,"Velocity":67,"Duration":148147,"SoundDuration":148147,"Delta":13955190},{"NoteNumber":57,"Velocity":53,"Duration":148147,"SoundDuration":148147,"Delta":13955190},{"NoteNumber":71,"Velocity":72,"Duration":150000,"SoundDuration":150000,"Delta":14103338},{"NoteNumber":59,"Velocity":57,"Duration":150000,"SoundDuration":150000,"Delta":14103338},{"NoteNumber":73,"Velocity":69,"Duration":150000,"SoundDuration":150000,"Delta":14253338},{"NoteNumber":61,"Velocity":55,"Duration":150000,"SoundDuration":150000,"Delta":14253338},{"NoteNumber":66,"Velocity":74,"Duration":266497,"SoundDuration":266497,"Delta":14403338},{"NoteNumber":74,"Velocity":74,"Duration":266497,"SoundDuration":266497,"Delta":14403338},{"NoteNumber":54,"Velocity":59,"Duration":304569,"SoundDuration":304569,"Delta":14403338},{"NoteNumber":57,"Velocity":59,"Duration":304569,"SoundDuration":304569,"Delta":14403338},{"NoteNumber":62,"Velocity":59,"Duration":304569,"SoundDuration":304569,"Delta":14403338},{"NoteNumber":64,"Velocity":73,"Duration":38071,"SoundDuration":38071,"Delta":14669836},{"NoteNumber":62,"Velocity":78,"Duration":74073,"SoundDuration":74073,"Delta":14707907},{"NoteNumber":38,"Velocity":44,"Duration":74073,"SoundDuration":74073,"Delta":14707907},{"NoteNumber":50,"Velocity":61,"Duration":74073,"SoundDuration":74073,"Delta":14707907},{"NoteNumber":61,"Velocity":75,"Duration":74073,"SoundDuration":74073,"Delta":14856055},{"NoteNumber":49,"Velocity":59,"Duration":74073,"SoundDuration":74073,"Delta":14856055},{"NoteNumber":37,"Velocity":41,"Duration":74073,"SoundDuration":74073,"Delta":14856055},{"NoteNumber":62,"Velocity":79,"Duration":74073,"SoundDuration":74073,"Delta":15004203},{"NoteNumber":38,"Velocity":45,"Duration":74073,"SoundDuration":74073,"Delta":15004203},{"NoteNumber":50,"Velocity":62,"Duration":74073,"SoundDuration":74073,"Delta":15004203},{"NoteNumber":62,"Velocity":74,"Duration":74999,"SoundDuration":74999,"Delta":15300499},{"NoteNumber":38,"Velocity":52,"Duration":74999,"SoundDuration":74999,"Delta":15300499},{"NoteNumber":50,"Velocity":59,"Duration":74999,"SoundDuration":74999,"Delta":15300499},{"NoteNumber":69,"Velocity":78,"Duration":74073,"SoundDuration":74073,"Delta":15600499},{"NoteNumber":45,"Velocity":44,"Duration":74073,"SoundDuration":74073,"Delta":15600499},{"NoteNumber":57,"Velocity":61,"Duration":74073,"SoundDuration":74073,"Delta":15600499},{"NoteNumber":66,"Velocity":75,"Duration":74073,"SoundDuration":74073,"Delta":15748647},{"NoteNumber":54,"Velocity":59,"Duration":74073,"SoundDuration":74073,"Delta":15748647},{"NoteNumber":42,"Velocity":41,"Duration":74073,"SoundDuration":74073,"Delta":15748647},{"NoteNumber":62,"Velocity":79,"Duration":74999,"SoundDuration":74999,"Delta":15896795},{"NoteNumber":38,"Velocity":45,"Duration":74999,"SoundDuration":74999,"Delta":15896795},{"NoteNumber":50,"Velocity":62,"Duration":74999,"SoundDuration":74999,"Delta":15896795},{"NoteNumber":76,"Velocity":64,"Duration":37499,"SoundDuration":37499,"Delta":16159295},{"NoteNumber":86,"Velocity":64,"Duration":74999,"SoundDuration":74999,"Delta":16196795},{"NoteNumber":74,"Velocity":55,"Duration":74999,"SoundDuration":74999,"Delta":16196795},{"NoteNumber":60,"Velocity":46,"Duration":74999,"SoundDuration":74999,"Delta":16196795},{"NoteNumber":66,"Velocity":46,"Duration":74999,"SoundDuration":74999,"Delta":16196795},{"NoteNumber":69,"Velocity":46,"Duration":74999,"SoundDuration":74999,"Delta":16196795},{"NoteNumber":62,"Velocity":46,"Duration":74999,"SoundDuration":74999,"Delta":16196795},{"NoteNumber":73,"Velocity":50,"Duration":74999,"SoundDuration":74999,"Delta":16346795},{"NoteNumber":85,"Velocity":60,"Duration":74999,"SoundDuration":74999,"Delta":16346795},{"NoteNumber":62,"Velocity":42,"Duration":74999,"SoundDuration":74999,"Delta":16346795},{"NoteNumber":66,"Velocity":42,"Duration":74999,"SoundDuration":74999,"Delta":16346795},{"NoteNumber":60,"Velocity":42,"Duration":74999,"SoundDuration":74999,"Delta":16346795},{"NoteNumber":69,"Velocity":42,"Duration":74999,"SoundDuration":74999,"Delta":16346795},{"NoteNumber":86,"Velocity":63,"Duration":75566,"SoundDuration":75566,"Delta":16496795},{"NoteNumber":74,"Velocity":53,"Duration":75566,"SoundDuration":75566,"Delta":16496795},{"NoteNumber":60,"Velocity":45,"Duration":75566,"SoundDuration":75566,"Delta":16496795},{"NoteNumber":62,"Velocity":45,"Duration":75566,"SoundDuration":75566,"Delta":16496795},{"NoteNumber":69,"Velocity":45,"Duration":75566,"SoundDuration":75566,"Delta":16496795},{"NoteNumber":66,"Velocity":45,"Duration":75566,"SoundDuration":75566,"Delta":16496795},{"NoteNumber":74,"Velocity":52,"Duration":74999,"SoundDuration":74999,"Delta":16799062},{"NoteNumber":86,"Velocity":62,"Duration":74999,"SoundDuration":74999,"Delta":16799062},{"NoteNumber":60,"Velocity":44,"Duration":74999,"SoundDuration":74999,"Delta":16799062},{"NoteNumber":66,"Velocity":44,"Duration":74999,"SoundDuration":74999,"Delta":16799062},{"NoteNumber":69,"Velocity":44,"Duration":74999,"SoundDuration":74999,"Delta":16799062},{"NoteNumber":62,"Velocity":44,"Duration":74999,"SoundDuration":74999,"Delta":16799062},{"NoteNumber":73,"Velocity":49,"Duration":75000,"SoundDuration":75000,"Delta":16949062},{"NoteNumber":85,"Velocity":59,"Duration":75000,"SoundDuration":75000,"Delta":16949062},{"NoteNumber":62,"Velocity":41,"Duration":75000,"SoundDuration":75000,"Delta":16949062},{"NoteNumber":66,"Velocity":41,"Duration":75000,"SoundDuration":75000,"Delta":16949062},{"NoteNumber":60,"Velocity":41,"Duration":75000,"SoundDuration":75000,"Delta":16949062},{"NoteNumber":69,"Velocity":41,"Duration":75000,"SoundDuration":75000,"Delta":16949062},{"NoteNumber":74,"Velocity":52,"Duration":74999,"SoundDuration":74999,"Delta":17099062},{"NoteNumber":86,"Velocity":62,"Duration":74999,"SoundDuration":74999,"Delta":17099062},{"NoteNumber":59,"Velocity":44,"Duration":74999,"SoundDuration":74999,"Delta":17099062},{"NoteNumber":62,"Velocity":44,"Duration":74999,"SoundDuration":74999,"Delta":17099062},{"NoteNumber":71,"Velocity":44,"Duration":74999,"SoundDuration":74999,"Delta":17099062},{"NoteNumber":67,"Velocity":44,"Duration":74999,"SoundDuration":74999,"Delta":17099062},{"NoteNumber":83,"Velocity":59,"Duration":149999,"SoundDuration":149999,"Delta":17399062},{"NoteNumber":59,"Velocity":41,"Duration":149999,"SoundDuration":149999,"Delta":17399062},{"NoteNumber":67,"Velocity":49,"Duration":149999,"SoundDuration":149999,"Delta":17399062},{"NoteNumber":71,"Velocity":49,"Duration":149999,"SoundDuration":149999,"Delta":17399062},{"NoteNumber":62,"Velocity":41,"Duration":149999,"SoundDuration":149999,"Delta":17399062},{"NoteNumber":79,"Velocity":56,"Duration":149999,"SoundDuration":149999,"Delta":17549062},{"NoteNumber":59,"Velocity":39,"Duration":149999,"SoundDuration":149999,"Delta":17549062},{"NoteNumber":62,"Velocity":39,"Duration":149999,"SoundDuration":149999,"Delta":17549062},{"NoteNumber":71,"Velocity":47,"Duration":149999,"SoundDuration":149999,"Delta":17549062},{"NoteNumber":67,"Velocity":47,"Duration":149999,"SoundDuration":149999,"Delta":17549062},{"NoteNumber":74,"Velocity":59,"Duration":231362,"SoundDuration":231362,"Delta":17699062},{"NoteNumber":59,"Velocity":41,"Duration":231362,"SoundDuration":231362,"Delta":17699062},{"NoteNumber":67,"Velocity":49,"Duration":231362,"SoundDuration":231362,"Delta":17699062},{"NoteNumber":71,"Velocity":49,"Duration":231362,"SoundDuration":231362,"Delta":17699062},{"NoteNumber":62,"Velocity":41,"Duration":231362,"SoundDuration":231362,"Delta":17699062},{"NoteNumber":74,"Velocity":59,"Duration":151898,"SoundDuration":151898,"Delta":18007545},{"NoteNumber":58,"Velocity":53,"Duration":905778,"SoundDuration":905778,"Delta":18007545},{"NoteNumber":67,"Velocity":53,"Duration":905778,"SoundDuration":905778,"Delta":18007545},{"NoteNumber":76,"Velocity":59,"Duration":153846,"SoundDuration":153846,"Delta":18159443},{"NoteNumber":77,"Velocity":63,"Duration":223325,"SoundDuration":223325,"Delta":18313289},{"NoteNumber":62,"Velocity":53,"Duration":600034,"SoundDuration":600034,"Delta":18313289},{"NoteNumber":76,"Velocity":52,"Duration":37220,"SoundDuration":37220,"Delta":18536615},{"NoteNumber":77,"Velocity":49,"Duration":37220,"SoundDuration":37220,"Delta":18573836},{"NoteNumber":76,"Velocity":59,"Duration":151133,"SoundDuration":151133,"Delta":18611056},{"NoteNumber":64,"Velocity":48,"Duration":151133,"SoundDuration":151133,"Delta":18611056},{"NoteNumber":74,"Velocity":59,"Duration":151133,"SoundDuration":151133,"Delta":18762190},{"NoteNumber":65,"Velocity":49,"Duration":151133,"SoundDuration":151133,"Delta":18762190},{"NoteNumber":72,"Velocity":58,"Duration":76923,"SoundDuration":76923,"Delta":18913323},{"NoteNumber":62,"Velocity":56,"Duration":76923,"SoundDuration":76923,"Delta":18913323},{"NoteNumber":66,"Velocity":56,"Duration":76923,"SoundDuration":76923,"Delta":18913323},{"NoteNumber":57,"Velocity":56,"Duration":76923,"SoundDuration":76923,"Delta":18913323},{"NoteNumber":81,"Velocity":63,"Duration":150753,"SoundDuration":150753,"Delta":19221015},{"NoteNumber":50,"Velocity":59,"Duration":75376,"SoundDuration":75376,"Delta":19221015},{"NoteNumber":78,"Velocity":57,"Duration":150753,"SoundDuration":150753,"Delta":19371769},{"NoteNumber":72,"Velocity":59,"Duration":76530,"SoundDuration":76530,"Delta":19522523},{"NoteNumber":57,"Velocity":52,"Duration":76530,"SoundDuration":76530,"Delta":19522523},{"NoteNumber":66,"Velocity":52,"Duration":76530,"SoundDuration":76530,"Delta":19522523},{"NoteNumber":62,"Velocity":52,"Duration":76530,"SoundDuration":76530,"Delta":19522523},{"NoteNumber":70,"Velocity":59,"Duration":76530,"SoundDuration":76530,"Delta":19828645},{"NoteNumber":62,"Velocity":55,"Duration":76530,"SoundDuration":76530,"Delta":19828645},{"NoteNumber":67,"Velocity":55,"Duration":76530,"SoundDuration":76530,"Delta":19828645},{"NoteNumber":58,"Velocity":55,"Duration":76530,"SoundDuration":76530,"Delta":19828645},{"NoteNumber":79,"Velocity":63,"Duration":151133,"SoundDuration":151133,"Delta":20134767},{"NoteNumber":50,"Velocity":59,"Duration":75566,"SoundDuration":75566,"Delta":20134767},{"NoteNumber":74,"Velocity":57,"Duration":151133,"SoundDuration":151133,"Delta":20285901},{"NoteNumber":70,"Velocity":59,"Duration":76336,"SoundDuration":76336,"Delta":20437034},{"NoteNumber":58,"Velocity":51,"Duration":76336,"SoundDuration":76336,"Delta":20437034},{"NoteNumber":67,"Velocity":51,"Duration":76336,"SoundDuration":76336,"Delta":20437034},{"NoteNumber":62,"Velocity":51,"Duration":76336,"SoundDuration":76336,"Delta":20437034},{"NoteNumber":69,"Velocity":59,"Duration":924004,"SoundDuration":924004,"Delta":20742378},{"NoteNumber":66,"Velocity":55,"Duration":76335,"SoundDuration":76335,"Delta":20742378},{"NoteNumber":62,"Velocity":55,"Duration":76335,"SoundDuration":76335,"Delta":20742378},{"NoteNumber":42,"Velocity":61,"Duration":76336,"SoundDuration":76336,"Delta":21047722},{"NoteNumber":54,"Velocity":61,"Duration":76336,"SoundDuration":76336,"Delta":21047722},{"NoteNumber":40,"Velocity":57,"Duration":76336,"SoundDuration":76336,"Delta":21200394},{"NoteNumber":52,"Velocity":57,"Duration":76336,"SoundDuration":76336,"Delta":21200394},{"NoteNumber":50,"Velocity":62,"Duration":78329,"SoundDuration":78329,"Delta":21353066},{"NoteNumber":38,"Velocity":62,"Duration":78329,"SoundDuration":78329,"Delta":21353066},{"NoteNumber":66,"Velocity":74,"Duration":266497,"SoundDuration":266497,"Delta":21666382},{"NoteNumber":74,"Velocity":74,"Duration":266497,"SoundDuration":266497,"Delta":21666382},{"NoteNumber":57,"Velocity":59,"Duration":304569,"SoundDuration":304569,"Delta":21666382},{"NoteNumber":62,"Velocity":59,"Duration":304569,"SoundDuration":304569,"Delta":21666382},{"NoteNumber":54,"Velocity":59,"Duration":304569,"SoundDuration":304569,"Delta":21666382},{"NoteNumber":64,"Velocity":73,"Duration":38071,"SoundDuration":38071,"Delta":21932880},{"NoteNumber":62,"Velocity":78,"Duration":74073,"SoundDuration":74073,"Delta":21970951},{"NoteNumber":50,"Velocity":61,"Duration":74073,"SoundDuration":74073,"Delta":21970951},{"NoteNumber":38,"Velocity":44,"Duration":74073,"SoundDuration":74073,"Delta":21970951},{"NoteNumber":61,"Velocity":75,"Duration":74073,"SoundDuration":74073,"Delta":22119099},{"NoteNumber":37,"Velocity":41,"Duration":74073,"SoundDuration":74073,"Delta":22119099},{"NoteNumber":49,"Velocity":59,"Duration":74073,"SoundDuration":74073,"Delta":22119099},{"NoteNumber":62,"Velocity":79,"Duration":74073,"SoundDuration":74073,"Delta":22267247},{"NoteNumber":38,"Velocity":45,"Duration":74073,"SoundDuration":74073,"Delta":22267247},{"NoteNumber":50,"Velocity":62,"Duration":74073,"SoundDuration":74073,"Delta":22267247},{"NoteNumber":62,"Velocity":74,"Duration":74999,"SoundDuration":74999,"Delta":22563543},{"NoteNumber":38,"Velocity":52,"Duration":74999,"SoundDuration":74999,"Delta":22563543},{"NoteNumber":50,"Velocity":59,"Duration":74999,"SoundDuration":74999,"Delta":22563543},{"NoteNumber":69,"Velocity":78,"Duration":74073,"SoundDuration":74073,"Delta":22863543},{"NoteNumber":57,"Velocity":61,"Duration":74073,"SoundDuration":74073,"Delta":22863543},{"NoteNumber":45,"Velocity":44,"Duration":74073,"SoundDuration":74073,"Delta":22863543},{"NoteNumber":66,"Velocity":75,"Duration":74073,"SoundDuration":74073,"Delta":23011691},{"NoteNumber":42,"Velocity":41,"Duration":74073,"SoundDuration":74073,"Delta":23011691},{"NoteNumber":54,"Velocity":59,"Duration":74073,"SoundDuration":74073,"Delta":23011691},{"NoteNumber":62,"Velocity":79,"Duration":74999,"SoundDuration":74999,"Delta":23159839},{"NoteNumber":38,"Velocity":45,"Duration":74999,"SoundDuration":74999,"Delta":23159839},{"NoteNumber":50,"Velocity":62,"Duration":74999,"SoundDuration":74999,"Delta":23159839},{"NoteNumber":76,"Velocity":64,"Duration":37500,"SoundDuration":37500,"Delta":23422339},{"NoteNumber":86,"Velocity":64,"Duration":74999,"SoundDuration":74999,"Delta":23459839},{"NoteNumber":74,"Velocity":55,"Duration":74999,"SoundDuration":74999,"Delta":23459839},{"NoteNumber":60,"Velocity":46,"Duration":74999,"SoundDuration":74999,"Delta":23459839},{"NoteNumber":62,"Velocity":46,"Duration":74999,"SoundDuration":74999,"Delta":23459839},{"NoteNumber":69,"Velocity":46,"Duration":74999,"SoundDuration":74999,"Delta":23459839},{"NoteNumber":66,"Velocity":46,"Duration":74999,"SoundDuration":74999,"Delta":23459839},{"NoteNumber":73,"Velocity":50,"Duration":74999,"SoundDuration":74999,"Delta":23609839},{"NoteNumber":85,"Velocity":60,"Duration":74999,"SoundDuration":74999,"Delta":23609839},{"NoteNumber":60,"Velocity":42,"Duration":74999,"SoundDuration":74999,"Delta":23609839},{"NoteNumber":66,"Velocity":42,"Duration":74999,"SoundDuration":74999,"Delta":23609839},{"NoteNumber":69,"Velocity":42,"Duration":74999,"SoundDuration":74999,"Delta":23609839},{"NoteNumber":62,"Velocity":42,"Duration":74999,"SoundDuration":74999,"Delta":23609839},{"NoteNumber":74,"Velocity":53,"Duration":75566,"SoundDuration":75566,"Delta":23759839},{"NoteNumber":86,"Velocity":63,"Duration":75566,"SoundDuration":75566,"Delta":23759839},{"NoteNumber":62,"Velocity":45,"Duration":75566,"SoundDuration":75566,"Delta":23759839},{"NoteNumber":66,"Velocity":45,"Duration":75566,"SoundDuration":75566,"Delta":23759839},{"NoteNumber":60,"Velocity":45,"Duration":75566,"SoundDuration":75566,"Delta":23759839},{"NoteNumber":69,"Velocity":45,"Duration":75566,"SoundDuration":75566,"Delta":23759839},{"NoteNumber":86,"Velocity":62,"Duration":74999,"SoundDuration":74999,"Delta":24062106},{"NoteNumber":74,"Velocity":52,"Duration":74999,"SoundDuration":74999,"Delta":24062106},{"NoteNumber":60,"Velocity":44,"Duration":74999,"SoundDuration":74999,"Delta":24062106},{"NoteNumber":62,"Velocity":44,"Duration":74999,"SoundDuration":74999,"Delta":24062106},{"NoteNumber":69,"Velocity":44,"Duration":74999,"SoundDuration":74999,"Delta":24062106},{"NoteNumber":66,"Velocity":44,"Duration":74999,"SoundDuration":74999,"Delta":24062106},{"NoteNumber":73,"Velocity":49,"Duration":75000,"SoundDuration":75000,"Delta":24212106},{"NoteNumber":85,"Velocity":59,"Duration":75000,"SoundDuration":75000,"Delta":24212106},{"NoteNumber":60,"Velocity":41,"Duration":75000,"SoundDuration":75000,"Delta":24212106},{"NoteNumber":66,"Velocity":41,"Duration":75000,"SoundDuration":75000,"Delta":24212106},{"NoteNumber":69,"Velocity":41,"Duration":75000,"SoundDuration":75000,"Delta":24212106},{"NoteNumber":62,"Velocity":41,"Duration":75000,"SoundDuration":75000,"Delta":24212106},{"NoteNumber":86,"Velocity":62,"Duration":74999,"SoundDuration":74999,"Delta":24362106},{"NoteNumber":74,"Velocity":52,"Duration":74999,"SoundDuration":74999,"Delta":24362106},{"NoteNumber":62,"Velocity":44,"Duration":74999,"SoundDuration":74999,"Delta":24362106},{"NoteNumber":67,"Velocity":44,"Duration":74999,"SoundDuration":74999,"Delta":24362106},{"NoteNumber":59,"Velocity":44,"Duration":74999,"SoundDuration":74999,"Delta":24362106},{"NoteNumber":71,"Velocity":44,"Duration":74999,"SoundDuration":74999,"Delta":24362106},{"NoteNumber":83,"Velocity":59,"Duration":149999,"SoundDuration":149999,"Delta":24662106},{"NoteNumber":59,"Velocity":41,"Duration":149999,"SoundDuration":149999,"Delta":24662106},{"NoteNumber":62,"Velocity":41,"Duration":149999,"SoundDuration":149999,"Delta":24662106},{"NoteNumber":71,"Velocity":49,"Duration":149999,"SoundDuration":149999,"Delta":24662106},{"NoteNumber":67,"Velocity":49,"Duration":149999,"SoundDuration":149999,"Delta":24662106},{"NoteNumber":79,"Velocity":56,"Duration":149999,"SoundDuration":149999,"Delta":24812106},{"NoteNumber":62,"Velocity":39,"Duration":149999,"SoundDuration":149999,"Delta":24812106},{"NoteNumber":67,"Velocity":47,"Duration":149999,"SoundDuration":149999,"Delta":24812106},{"NoteNumber":71,"Velocity":47,"Duration":149999,"SoundDuration":149999,"Delta":24812106},{"NoteNumber":59,"Velocity":39,"Duration":149999,"SoundDuration":149999,"Delta":24812106},{"NoteNumber":74,"Velocity":59,"Duration":231362,"SoundDuration":231362,"Delta":24962106},{"NoteNumber":59,"Velocity":41,"Duration":231362,"SoundDuration":231362,"Delta":24962106},{"NoteNumber":62,"Velocity":41,"Duration":231362,"SoundDuration":231362,"Delta":24962106},{"NoteNumber":71,"Velocity":49,"Duration":231362,"SoundDuration":231362,"Delta":24962106},{"NoteNumber":67,"Velocity":49,"Duration":231362,"SoundDuration":231362,"Delta":24962106},{"NoteNumber":74,"Velocity":59,"Duration":151898,"SoundDuration":151898,"Delta":25270589},{"NoteNumber":67,"Velocity":53,"Duration":904282,"SoundDuration":904282,"Delta":25270589},{"NoteNumber":58,"Velocity":53,"Duration":904282,"SoundDuration":904282,"Delta":25270589},{"NoteNumber":76,"Velocity":59,"Duration":153846,"SoundDuration":153846,"Delta":25422488},{"NoteNumber":77,"Velocity":63,"Duration":222772,"SoundDuration":222772,"Delta":25576334},{"NoteNumber":62,"Velocity":53,"Duration":598537,"SoundDuration":598537,"Delta":25576334},{"NoteNumber":76,"Velocity":52,"Duration":37128,"SoundDuration":37128,"Delta":25799106},{"NoteNumber":77,"Velocity":49,"Duration":37128,"SoundDuration":37128,"Delta":25836235},{"NoteNumber":76,"Velocity":59,"Duration":150753,"SoundDuration":150753,"Delta":25873364},{"NoteNumber":64,"Velocity":48,"Duration":150753,"SoundDuration":150753,"Delta":25873364},{"NoteNumber":74,"Velocity":59,"Duration":150753,"SoundDuration":150753,"Delta":26024118},{"NoteNumber":65,"Velocity":49,"Duration":150753,"SoundDuration":150753,"Delta":26024118},{"NoteNumber":72,"Velocity":58,"Duration":76923,"SoundDuration":76923,"Delta":26174872},{"NoteNumber":57,"Velocity":56,"Duration":76923,"SoundDuration":76923,"Delta":26174872},{"NoteNumber":62,"Velocity":56,"Duration":76923,"SoundDuration":76923,"Delta":26174872},{"NoteNumber":66,"Velocity":56,"Duration":76923,"SoundDuration":76923,"Delta":26174872},{"NoteNumber":81,"Velocity":63,"Duration":150753,"SoundDuration":150753,"Delta":26482564},{"NoteNumber":50,"Velocity":59,"Duration":75376,"SoundDuration":75376,"Delta":26482564},{"NoteNumber":78,"Velocity":57,"Duration":150753,"SoundDuration":150753,"Delta":26633318},{"NoteNumber":72,"Velocity":59,"Duration":76530,"SoundDuration":76530,"Delta":26784072},{"NoteNumber":57,"Velocity":52,"Duration":76530,"SoundDuration":76530,"Delta":26784072},{"NoteNumber":62,"Velocity":52,"Duration":76530,"SoundDuration":76530,"Delta":26784072},{"NoteNumber":66,"Velocity":52,"Duration":76530,"SoundDuration":76530,"Delta":26784072},{"NoteNumber":70,"Velocity":59,"Duration":76530,"SoundDuration":76530,"Delta":27090194},{"NoteNumber":58,"Velocity":55,"Duration":76530,"SoundDuration":76530,"Delta":27090194},{"NoteNumber":67,"Velocity":55,"Duration":76530,"SoundDuration":76530,"Delta":27090194},{"NoteNumber":62,"Velocity":55,"Duration":76530,"SoundDuration":76530,"Delta":27090194},{"NoteNumber":79,"Velocity":63,"Duration":151133,"SoundDuration":151133,"Delta":27396316},{"NoteNumber":50,"Velocity":59,"Duration":75566,"SoundDuration":75566,"Delta":27396316},{"NoteNumber":74,"Velocity":57,"Duration":151133,"SoundDuration":151133,"Delta":27547449},{"NoteNumber":70,"Velocity":59,"Duration":76336,"SoundDuration":76336,"Delta":27698583},{"NoteNumber":58,"Velocity":51,"Duration":76336,"SoundDuration":76336,"Delta":27698583},{"NoteNumber":62,"Velocity":51,"Duration":76336,"SoundDuration":76336,"Delta":27698583},{"NoteNumber":67,"Velocity":51,"Duration":76336,"SoundDuration":76336,"Delta":27698583},{"NoteNumber":69,"Velocity":59,"Duration":918418,"SoundDuration":918418,"Delta":28003927},{"NoteNumber":62,"Velocity":55,"Duration":76335,"SoundDuration":76335,"Delta":28003927},{"NoteNumber":66,"Velocity":55,"Duration":76335,"SoundDuration":76335,"Delta":28003927},{"NoteNumber":54,"Velocity":59,"Duration":75949,"SoundDuration":75949,"Delta":28309271},{"NoteNumber":42,"Velocity":59,"Duration":75949,"SoundDuration":75949,"Delta":28309271},{"NoteNumber":52,"Velocity":55,"Duration":75949,"SoundDuration":75949,"Delta":28461169},{"NoteNumber":40,"Velocity":55,"Duration":75949,"SoundDuration":75949,"Delta":28461169},{"NoteNumber":38,"Velocity":60,"Duration":77319,"SoundDuration":77319,"Delta":28613068},{"NoteNumber":50,"Velocity":60,"Duration":77319,"SoundDuration":77319,"Delta":28613068},{"NoteNumber":54,"Velocity":52,"Duration":921539,"SoundDuration":921539,"Delta":28922346},{"NoteNumber":57,"Velocity":52,"Duration":921539,"SoundDuration":921539,"Delta":28922346},{"NoteNumber":42,"Velocity":52,"Duration":76142,"SoundDuration":76142,"Delta":29231624},{"NoteNumber":40,"Velocity":49,"Duration":76142,"SoundDuration":76142,"Delta":29383908},{"NoteNumber":38,"Velocity":53,"Duration":76923,"SoundDuration":76923,"Delta":29536193},{"NoteNumber":54,"Velocity":49,"Duration":919952,"SoundDuration":919952,"Delta":29843885},{"NoteNumber":57,"Velocity":49,"Duration":919952,"SoundDuration":919952,"Delta":29843885},{"NoteNumber":42,"Velocity":49,"Duration":76142,"SoundDuration":76142,"Delta":30151577},{"NoteNumber":40,"Velocity":46,"Duration":76142,"SoundDuration":76142,"Delta":30303861},{"NoteNumber":38,"Velocity":50,"Duration":76923,"SoundDuration":76923,"Delta":30456146},{"NoteNumber":42,"Velocity":49,"Duration":76923,"SoundDuration":76923,"Delta":30763838},{"NoteNumber":54,"Velocity":49,"Duration":76923,"SoundDuration":76923,"Delta":30763838},{"NoteNumber":52,"Velocity":45,"Duration":76923,"SoundDuration":76923,"Delta":30917684},{"NoteNumber":40,"Velocity":45,"Duration":76923,"SoundDuration":76923,"Delta":30917684},{"NoteNumber":38,"Velocity":48,"Duration":77120,"SoundDuration":77120,"Delta":31071530},{"NoteNumber":50,"Velocity":48,"Duration":77120,"SoundDuration":77120,"Delta":31071530},{"NoteNumber":42,"Velocity":45,"Duration":76530,"SoundDuration":76530,"Delta":31380013},{"NoteNumber":54,"Velocity":45,"Duration":76530,"SoundDuration":76530,"Delta":31380013},{"NoteNumber":40,"Velocity":41,"Duration":76530,"SoundDuration":76530,"Delta":31533074},{"NoteNumber":52,"Velocity":41,"Duration":76530,"SoundDuration":76530,"Delta":31533074},{"NoteNumber":38,"Velocity":44,"Duration":80862,"SoundDuration":80862,"Delta":31686135},{"NoteNumber":50,"Velocity":44,"Duration":80862,"SoundDuration":80862,"Delta":31686135},{"NoteNumber":45,"Velocity":41,"Duration":80862,"SoundDuration":80862,"Delta":32009585},{"NoteNumber":38,"Velocity":40,"Duration":86207,"SoundDuration":86207,"Delta":32333035},{"NoteNumber":62,"Velocity":59,"Duration":149999,"SoundDuration":149999,"Delta":32677863},{"NoteNumber":38,"Velocity":55,"Duration":919465,"SoundDuration":919465,"Delta":32677863},{"NoteNumber":54,"Velocity":46,"Duration":769465,"SoundDuration":769465,"Delta":32827863},{"NoteNumber":66,"Velocity":49,"Duration":37499,"SoundDuration":37499,"Delta":32940363},{"NoteNumber":64,"Velocity":55,"Duration":148147,"SoundDuration":148147,"Delta":32977863},{"NoteNumber":62,"Velocity":53,"Duration":148147,"SoundDuration":148147,"Delta":33126011},{"NoteNumber":61,"Velocity":56,"Duration":146699,"SoundDuration":146699,"Delta":33274159},{"NoteNumber":62,"Velocity":51,"Duration":176470,"SoundDuration":176470,"Delta":33420858},{"NoteNumber":64,"Velocity":58,"Duration":78125,"SoundDuration":78125,"Delta":33597329},{"NoteNumber":37,"Velocity":55,"Duration":78125,"SoundDuration":78125,"Delta":33597329},{"NoteNumber":49,"Velocity":55,"Duration":78125,"SoundDuration":78125,"Delta":33753579},{"NoteNumber":55,"Velocity":49,"Duration":76142,"SoundDuration":76142,"Delta":33909829},{"NoteNumber":59,"Velocity":49,"Duration":76142,"SoundDuration":76142,"Delta":33909829},{"NoteNumber":64,"Velocity":49,"Duration":76142,"SoundDuration":76142,"Delta":33909829},{"NoteNumber":67,"Velocity":53,"Duration":76142,"SoundDuration":76142,"Delta":33909829},{"NoteNumber":54,"Velocity":42,"Duration":79155,"SoundDuration":79155,"Delta":34214398},{"NoteNumber":61,"Velocity":42,"Duration":79155,"SoundDuration":79155,"Delta":34214398},{"NoteNumber":64,"Velocity":42,"Duration":79155,"SoundDuration":79155,"Delta":34214398},{"NoteNumber":66,"Velocity":51,"Duration":79155,"SoundDuration":79155,"Delta":34214398},{"NoteNumber":46,"Velocity":55,"Duration":316622,"SoundDuration":316622,"Delta":34214398},{"NoteNumber":34,"Velocity":46,"Duration":316622,"SoundDuration":316622,"Delta":34214398},{"NoteNumber":62,"Velocity":58,"Duration":78328,"SoundDuration":78328,"Delta":34531021},{"NoteNumber":35,"Velocity":55,"Duration":78328,"SoundDuration":78328,"Delta":34531021},{"NoteNumber":47,"Velocity":55,"Duration":78328,"SoundDuration":78328,"Delta":34687679},{"NoteNumber":54,"Velocity":46,"Duration":75949,"SoundDuration":75949,"Delta":34844337},{"NoteNumber":59,"Velocity":46,"Duration":75949,"SoundDuration":75949,"Delta":34844337},{"NoteNumber":62,"Velocity":46,"Duration":75949,"SoundDuration":75949,"Delta":34844337},{"NoteNumber":66,"Velocity":55,"Duration":75949,"SoundDuration":75949,"Delta":34844337},{"NoteNumber":59,"Velocity":42,"Duration":76923,"SoundDuration":76923,"Delta":35148134},{"NoteNumber":62,"Velocity":42,"Duration":76923,"SoundDuration":76923,"Delta":35148134},{"NoteNumber":64,"Velocity":51,"Duration":76923,"SoundDuration":76923,"Delta":35148134},{"NoteNumber":32,"Velocity":46,"Duration":307692,"SoundDuration":307692,"Delta":35148134},{"NoteNumber":44,"Velocity":55,"Duration":307692,"SoundDuration":307692,"Delta":35148134},{"NoteNumber":52,"Velocity":42,"Duration":76923,"SoundDuration":76923,"Delta":35148134},{"NoteNumber":61,"Velocity":59,"Duration":149999,"SoundDuration":149999,"Delta":35455826},{"NoteNumber":33,"Velocity":55,"Duration":299999,"SoundDuration":299999,"Delta":35455826},{"NoteNumber":45,"Velocity":55,"Duration":299999,"SoundDuration":299999,"Delta":35455826},{"NoteNumber":52,"Velocity":55,"Duration":767701,"SoundDuration":767701,"Delta":35605826},{"NoteNumber":62,"Velocity":49,"Duration":37499,"SoundDuration":37499,"Delta":35718326},{"NoteNumber":61,"Velocity":55,"Duration":148147,"SoundDuration":148147,"Delta":35755826},{"NoteNumber":59,"Velocity":53,"Duration":148147,"SoundDuration":148147,"Delta":35903974},{"NoteNumber":61,"Velocity":56,"Duration":146699,"SoundDuration":146699,"Delta":36052122},{"NoteNumber":57,"Velocity":56,"Duration":146699,"SoundDuration":146699,"Delta":36052122},{"NoteNumber":45,"Velocity":55,"Duration":321405,"SoundDuration":321405,"Delta":36052122},{"NoteNumber":55,"Velocity":51,"Duration":174705,"SoundDuration":174705,"Delta":36198821},{"NoteNumber":62,"Velocity":59,"Duration":149999,"SoundDuration":149999,"Delta":36363527},{"NoteNumber":38,"Velocity":55,"Duration":919465,"SoundDuration":919465,"Delta":36363527},{"NoteNumber":54,"Velocity":46,"Duration":769465,"SoundDuration":769465,"Delta":36513527},{"NoteNumber":66,"Velocity":49,"Duration":37499,"SoundDuration":37499,"Delta":36626027},{"NoteNumber":64,"Velocity":55,"Duration":148147,"SoundDuration":148147,"Delta":36663527},{"NoteNumber":62,"Velocity":53,"Duration":148147,"SoundDuration":148147,"Delta":36811675},{"NoteNumber":61,"Velocity":56,"Duration":146699,"SoundDuration":146699,"Delta":36959823},{"NoteNumber":62,"Velocity":51,"Duration":176470,"SoundDuration":176470,"Delta":37106523},{"NoteNumber":64,"Velocity":58,"Duration":78125,"SoundDuration":78125,"Delta":37282993},{"NoteNumber":37,"Velocity":55,"Duration":78125,"SoundDuration":78125,"Delta":37282993},{"NoteNumber":49,"Velocity":48,"Duration":78125,"SoundDuration":78125,"Delta":37439243},{"NoteNumber":55,"Velocity":49,"Duration":76142,"SoundDuration":76142,"Delta":37595493},{"NoteNumber":59,"Velocity":49,"Duration":76142,"SoundDuration":76142,"Delta":37595493},{"NoteNumber":64,"Velocity":49,"Duration":76142,"SoundDuration":76142,"Delta":37595493},{"NoteNumber":67,"Velocity":53,"Duration":76142,"SoundDuration":76142,"Delta":37595493},{"NoteNumber":54,"Velocity":42,"Duration":78810,"SoundDuration":78810,"Delta":37900062},{"NoteNumber":61,"Velocity":42,"Duration":78810,"SoundDuration":78810,"Delta":37900062},{"NoteNumber":64,"Velocity":42,"Duration":78810,"SoundDuration":78810,"Delta":37900062},{"NoteNumber":66,"Velocity":51,"Duration":78810,"SoundDuration":78810,"Delta":37900062},{"NoteNumber":46,"Velocity":55,"Duration":315652,"SoundDuration":315652,"Delta":37900062},{"NoteNumber":34,"Velocity":46,"Duration":315652,"SoundDuration":315652,"Delta":37900062},{"NoteNumber":62,"Velocity":58,"Duration":78125,"SoundDuration":78125,"Delta":38225945},{"NoteNumber":59,"Velocity":58,"Duration":78125,"SoundDuration":78125,"Delta":38225945},{"NoteNumber":47,"Velocity":55,"Duration":312500,"SoundDuration":312500,"Delta":38225945},{"NoteNumber":35,"Velocity":46,"Duration":312500,"SoundDuration":312500,"Delta":38225945},{"NoteNumber":54,"Velocity":47,"Duration":78125,"SoundDuration":78125,"Delta":38382195},{"NoteNumber":62,"Velocity":55,"Duration":79575,"SoundDuration":79575,"Delta":38538445},{"NoteNumber":59,"Velocity":46,"Duration":79575,"SoundDuration":79575,"Delta":38538445},{"NoteNumber":43,"Velocity":55,"Duration":159151,"SoundDuration":159151,"Delta":38538445},{"NoteNumber":31,"Velocity":46,"Duration":159151,"SoundDuration":159151,"Delta":38538445},{"NoteNumber":64,"Velocity":50,"Duration":79575,"SoundDuration":79575,"Delta":38697596},{"NoteNumber":61,"Velocity":59,"Duration":325203,"SoundDuration":325203,"Delta":38856747},{"NoteNumber":57,"Velocity":59,"Duration":81300,"SoundDuration":81300,"Delta":38856747},{"NoteNumber":52,"Velocity":51,"Duration":81300,"SoundDuration":81300,"Delta":38856747},{"NoteNumber":45,"Velocity":51,"Duration":162601,"SoundDuration":162601,"Delta":38856747},{"NoteNumber":33,"Velocity":42,"Duration":162601,"SoundDuration":162601,"Delta":38856747},{"NoteNumber":55,"Velocity":52,"Duration":81300,"SoundDuration":81300,"Delta":39019348},{"NoteNumber":62,"Velocity":64,"Duration":165289,"SoundDuration":165289,"Delta":39181950},{"NoteNumber":38,"Velocity":49,"Duration":165289,"SoundDuration":165289,"Delta":39181950},{"NoteNumber":54,"Velocity":58,"Duration":165289,"SoundDuration":165289,"Delta":39181950},{"NoteNumber":74,"Velocity":77,"Duration":165289,"SoundDuration":165289,"Delta":39512529},{"NoteNumber":66,"Velocity":64,"Duration":165289,"SoundDuration":165289,"Delta":39512529},{"NoteNumber":57,"Velocity":70,"Duration":165289,"SoundDuration":165289,"Delta":39512529},{"NoteNumber":50,"Velocity":60,"Duration":165289,"SoundDuration":165289,"Delta":39512529},{"NoteNumber":62,"Velocity":59,"Duration":149999,"SoundDuration":149999,"Delta":40173687},{"NoteNumber":38,"Velocity":55,"Duration":919465,"SoundDuration":919465,"Delta":40173687},{"NoteNumber":54,"Velocity":46,"Duration":769465,"SoundDuration":769465,"Delta":40323687},{"NoteNumber":66,"Velocity":49,"Duration":37499,"SoundDuration":37499,"Delta":40436187},{"NoteNumber":64,"Velocity":55,"Duration":148147,"SoundDuration":148147,"Delta":40473687},{"NoteNumber":62,"Velocity":53,"Duration":148147,"SoundDuration":148147,"Delta":40621835},{"NoteNumber":61,"Velocity":56,"Duration":146699,"SoundDuration":146699,"Delta":40769983},{"NoteNumber":62,"Velocity":51,"Duration":176470,"SoundDuration":176470,"Delta":40916682},{"NoteNumber":64,"Velocity":58,"Duration":78125,"SoundDuration":78125,"Delta":41093153},{"NoteNumber":37,"Velocity":55,"Duration":78125,"SoundDuration":78125,"Delta":41093153},{"NoteNumber":49,"Velocity":55,"Duration":78125,"SoundDuration":78125,"Delta":41249403},{"NoteNumber":55,"Velocity":49,"Duration":76142,"SoundDuration":76142,"Delta":41405653},{"NoteNumber":59,"Velocity":49,"Duration":76142,"SoundDuration":76142,"Delta":41405653},{"NoteNumber":64,"Velocity":49,"Duration":76142,"SoundDuration":76142,"Delta":41405653},{"NoteNumber":67,"Velocity":53,"Duration":76142,"SoundDuration":76142,"Delta":41405653},{"NoteNumber":54,"Velocity":42,"Duration":79787,"SoundDuration":79787,"Delta":41710222},{"NoteNumber":61,"Velocity":42,"Duration":79787,"SoundDuration":79787,"Delta":41710222},{"NoteNumber":64,"Velocity":42,"Duration":79787,"SoundDuration":79787,"Delta":41710222},{"NoteNumber":66,"Velocity":51,"Duration":79787,"SoundDuration":79787,"Delta":41710222},{"NoteNumber":46,"Velocity":55,"Duration":319149,"SoundDuration":319149,"Delta":41710222},{"NoteNumber":34,"Velocity":46,"Duration":319149,"SoundDuration":319149,"Delta":41710222},{"NoteNumber":62,"Velocity":58,"Duration":77519,"SoundDuration":77519,"Delta":42029371},{"NoteNumber":35,"Velocity":55,"Duration":77519,"SoundDuration":77519,"Delta":42029371},{"NoteNumber":47,"Velocity":55,"Duration":77519,"SoundDuration":77519,"Delta":42184410},{"NoteNumber":54,"Velocity":46,"Duration":75949,"SoundDuration":75949,"Delta":42339449},{"NoteNumber":59,"Velocity":46,"Duration":75949,"SoundDuration":75949,"Delta":42339449},{"NoteNumber":62,"Velocity":46,"Duration":75949,"SoundDuration":75949,"Delta":42339449},{"NoteNumber":66,"Velocity":55,"Duration":75949,"SoundDuration":75949,"Delta":42339449},{"NoteNumber":59,"Velocity":42,"Duration":76923,"SoundDuration":76923,"Delta":42643246},{"NoteNumber":62,"Velocity":42,"Duration":76923,"SoundDuration":76923,"Delta":42643246},{"NoteNumber":64,"Velocity":51,"Duration":76923,"SoundDuration":76923,"Delta":42643246},{"NoteNumber":32,"Velocity":46,"Duration":307692,"SoundDuration":307692,"Delta":42643246},{"NoteNumber":44,"Velocity":55,"Duration":307692,"SoundDuration":307692,"Delta":42643246},{"NoteNumber":52,"Velocity":42,"Duration":76923,"SoundDuration":76923,"Delta":42643246},{"NoteNumber":61,"Velocity":59,"Duration":149999,"SoundDuration":149999,"Delta":42950938},{"NoteNumber":33,"Velocity":55,"Duration":299999,"SoundDuration":299999,"Delta":42950938},{"NoteNumber":45,"Velocity":55,"Duration":299999,"SoundDuration":299999,"Delta":42950938},{"NoteNumber":52,"Velocity":55,"Duration":767701,"SoundDuration":767701,"Delta":43100938},{"NoteNumber":62,"Velocity":49,"Duration":37499,"SoundDuration":37499,"Delta":43213438},{"NoteNumber":61,"Velocity":55,"Duration":148147,"SoundDuration":148147,"Delta":43250938},{"NoteNumber":59,"Velocity":53,"Duration":148147,"SoundDuration":148147,"Delta":43399086},{"NoteNumber":61,"Velocity":56,"Duration":146699,"SoundDuration":146699,"Delta":43547234},{"NoteNumber":57,"Velocity":56,"Duration":146699,"SoundDuration":146699,"Delta":43547234},{"NoteNumber":45,"Velocity":55,"Duration":321405,"SoundDuration":321405,"Delta":43547234},{"NoteNumber":55,"Velocity":51,"Duration":174705,"SoundDuration":174705,"Delta":43693933},{"NoteNumber":62,"Velocity":59,"Duration":149999,"SoundDuration":149999,"Delta":43858639},{"NoteNumber":38,"Velocity":55,"Duration":919465,"SoundDuration":919465,"Delta":43858639},{"NoteNumber":54,"Velocity":46,"Duration":769465,"SoundDuration":769465,"Delta":44008639},{"NoteNumber":66,"Velocity":49,"Duration":37499,"SoundDuration":37499,"Delta":44121139},{"NoteNumber":64,"Velocity":55,"Duration":148147,"SoundDuration":148147,"Delta":44158639},{"NoteNumber":62,"Velocity":53,"Duration":148147,"SoundDuration":148147,"Delta":44306787},{"NoteNumber":61,"Velocity":56,"Duration":146699,"SoundDuration":146699,"Delta":44454935},{"NoteNumber":62,"Velocity":51,"Duration":176470,"SoundDuration":176470,"Delta":44601634},{"NoteNumber":64,"Velocity":58,"Duration":78125,"SoundDuration":78125,"Delta":44778105},{"NoteNumber":37,"Velocity":55,"Duration":78125,"SoundDuration":78125,"Delta":44778105},{"NoteNumber":49,"Velocity":48,"Duration":78125,"SoundDuration":78125,"Delta":44934355},{"NoteNumber":55,"Velocity":49,"Duration":76142,"SoundDuration":76142,"Delta":45090605},{"NoteNumber":59,"Velocity":49,"Duration":76142,"SoundDuration":76142,"Delta":45090605},{"NoteNumber":64,"Velocity":49,"Duration":76142,"SoundDuration":76142,"Delta":45090605},{"NoteNumber":67,"Velocity":53,"Duration":76142,"SoundDuration":76142,"Delta":45090605},{"NoteNumber":54,"Velocity":42,"Duration":78810,"SoundDuration":78810,"Delta":45395174},{"NoteNumber":61,"Velocity":42,"Duration":78810,"SoundDuration":78810,"Delta":45395174},{"NoteNumber":64,"Velocity":42,"Duration":78810,"SoundDuration":78810,"Delta":45395174},{"NoteNumber":66,"Velocity":51,"Duration":78810,"SoundDuration":78810,"Delta":45395174},{"NoteNumber":46,"Velocity":55,"Duration":315652,"SoundDuration":315652,"Delta":45395174},{"NoteNumber":34,"Velocity":46,"Duration":315652,"SoundDuration":315652,"Delta":45395174},{"NoteNumber":62,"Velocity":58,"Duration":78125,"SoundDuration":78125,"Delta":45721056},{"NoteNumber":59,"Velocity":58,"Duration":78125,"SoundDuration":78125,"Delta":45721056},{"NoteNumber":47,"Velocity":55,"Duration":312500,"SoundDuration":312500,"Delta":45721056},{"NoteNumber":35,"Velocity":46,"Duration":312500,"SoundDuration":312500,"Delta":45721056},{"NoteNumber":54,"Velocity":47,"Duration":78125,"SoundDuration":78125,"Delta":45877306},{"NoteNumber":62,"Velocity":55,"Duration":79575,"SoundDuration":79575,"Delta":46033556},{"NoteNumber":59,"Velocity":46,"Duration":79575,"SoundDuration":79575,"Delta":46033556},{"NoteNumber":43,"Velocity":55,"Duration":159151,"SoundDuration":159151,"Delta":46033556},{"NoteNumber":31,"Velocity":46,"Duration":159151,"SoundDuration":159151,"Delta":46033556},{"NoteNumber":64,"Velocity":50,"Duration":79575,"SoundDuration":79575,"Delta":46192707},{"NoteNumber":61,"Velocity":59,"Duration":331491,"SoundDuration":331491,"Delta":46351858},{"NoteNumber":57,"Velocity":59,"Duration":82872,"SoundDuration":82872,"Delta":46351858},{"NoteNumber":52,"Velocity":51,"Duration":82872,"SoundDuration":82872,"Delta":46351858},{"NoteNumber":45,"Velocity":51,"Duration":165745,"SoundDuration":165745,"Delta":46351858},{"NoteNumber":33,"Velocity":42,"Duration":165745,"SoundDuration":165745,"Delta":46351858},{"NoteNumber":55,"Velocity":52,"Duration":82872,"SoundDuration":82872,"Delta":46517604},{"NoteNumber":62,"Velocity":64,"Duration":169971,"SoundDuration":169971,"Delta":46683350},{"NoteNumber":38,"Velocity":49,"Duration":169971,"SoundDuration":169971,"Delta":46683350},{"NoteNumber":54,"Velocity":58,"Duration":169971,"SoundDuration":169971,"Delta":46683350},{"NoteNumber":74,"Velocity":77,"Duration":165289,"SoundDuration":165289,"Delta":47023293},{"NoteNumber":66,"Velocity":64,"Duration":165289,"SoundDuration":165289,"Delta":47023293},{"NoteNumber":57,"Velocity":70,"Duration":165289,"SoundDuration":165289,"Delta":47023293},{"NoteNumber":50,"Velocity":60,"Duration":165289,"SoundDuration":165289,"Delta":47023293},{"NoteNumber":74,"Velocity":57,"Duration":1838098,"SoundDuration":1838098,"Delta":47684451},{"NoteNumber":81,"Velocity":67,"Duration":300752,"SoundDuration":300752,"Delta":47684451},{"NoteNumber":62,"Velocity":42,"Duration":1838098,"SoundDuration":1838098,"Delta":47684451},{"NoteNumber":66,"Velocity":52,"Duration":300752,"SoundDuration":300752,"Delta":47684451},{"NoteNumber":83,"Velocity":59,"Duration":149253,"SoundDuration":149253,"Delta":47985203},{"NoteNumber":67,"Velocity":47,"Duration":149253,"SoundDuration":149253,"Delta":47985203},{"NoteNumber":81,"Velocity":55,"Duration":149253,"SoundDuration":149253,"Delta":48134457},{"NoteNumber":66,"Velocity":44,"Duration":149253,"SoundDuration":149253,"Delta":48134457},{"NoteNumber":79,"Velocity":57,"Duration":149253,"SoundDuration":149253,"Delta":48283710},{"NoteNumber":64,"Velocity":45,"Duration":149253,"SoundDuration":149253,"Delta":48283710},{"NoteNumber":81,"Velocity":53,"Duration":158311,"SoundDuration":158311,"Delta":48432964},{"NoteNumber":66,"Velocity":42,"Duration":158311,"SoundDuration":158311,"Delta":48432964},{"NoteNumber":83,"Velocity":60,"Duration":307692,"SoundDuration":307692,"Delta":48591275},{"NoteNumber":67,"Velocity":48,"Duration":307692,"SoundDuration":307692,"Delta":48591275},{"NoteNumber":83,"Velocity":59,"Duration":153061,"SoundDuration":153061,"Delta":48898967},{"NoteNumber":67,"Velocity":47,"Duration":153061,"SoundDuration":153061,"Delta":48898967},{"NoteNumber":86,"Velocity":55,"Duration":153061,"SoundDuration":153061,"Delta":49052028},{"NoteNumber":71,"Velocity":44,"Duration":153061,"SoundDuration":153061,"Delta":49052028},{"NoteNumber":83,"Velocity":58,"Duration":317459,"SoundDuration":317459,"Delta":49205089},{"NoteNumber":67,"Velocity":46,"Duration":317459,"SoundDuration":317459,"Delta":49205089},{"NoteNumber":74,"Velocity":57,"Duration":909855,"SoundDuration":909855,"Delta":49522549},{"NoteNumber":81,"Velocity":67,"Duration":300752,"SoundDuration":300752,"Delta":49522549},{"NoteNumber":62,"Velocity":42,"Duration":751543,"SoundDuration":751543,"Delta":49522549},{"NoteNumber":66,"Velocity":52,"Duration":300752,"SoundDuration":300752,"Delta":49522549},{"NoteNumber":83,"Velocity":59,"Duration":149253,"SoundDuration":149253,"Delta":49823301},{"NoteNumber":67,"Velocity":47,"Duration":149253,"SoundDuration":149253,"Delta":49823301},{"NoteNumber":81,"Velocity":55,"Duration":149253,"SoundDuration":149253,"Delta":49972555},{"NoteNumber":66,"Velocity":44,"Duration":149253,"SoundDuration":149253,"Delta":49972555},{"NoteNumber":79,"Velocity":57,"Duration":152284,"SoundDuration":152284,"Delta":50121808},{"NoteNumber":64,"Velocity":45,"Duration":152284,"SoundDuration":152284,"Delta":50121808},{"NoteNumber":78,"Velocity":53,"Duration":158311,"SoundDuration":158311,"Delta":50274093},{"NoteNumber":62,"Velocity":42,"Duration":158311,"SoundDuration":158311,"Delta":50274093},{"NoteNumber":73,"Velocity":48,"Duration":307692,"SoundDuration":307692,"Delta":50432404},{"NoteNumber":76,"Velocity":60,"Duration":307692,"SoundDuration":307692,"Delta":50432404},{"NoteNumber":57,"Velocity":38,"Duration":307692,"SoundDuration":307692,"Delta":50432404},{"NoteNumber":64,"Velocity":48,"Duration":307692,"SoundDuration":307692,"Delta":50432404},{"NoteNumber":73,"Velocity":45,"Duration":153061,"SoundDuration":153061,"Delta":50740096},{"NoteNumber":76,"Velocity":57,"Duration":153061,"SoundDuration":153061,"Delta":50740096},{"NoteNumber":67,"Velocity":47,"Duration":153061,"SoundDuration":153061,"Delta":50740096},{"NoteNumber":71,"Velocity":44,"Duration":153061,"SoundDuration":153061,"Delta":50893157},{"NoteNumber":74,"Velocity":55,"Duration":153061,"SoundDuration":153061,"Delta":50893157},{"NoteNumber":66,"Velocity":41,"Duration":153061,"SoundDuration":153061,"Delta":50893157},{"NoteNumber":73,"Velocity":46,"Duration":314135,"SoundDuration":314135,"Delta":51046218},{"NoteNumber":76,"Velocity":58,"Duration":314135,"SoundDuration":314135,"Delta":51046218},{"NoteNumber":57,"Velocity":36,"Duration":314135,"SoundDuration":314135,"Delta":51046218},{"NoteNumber":67,"Velocity":46,"Duration":314135,"SoundDuration":314135,"Delta":51046218},{"NoteNumber":74,"Velocity":57,"Duration":1844962,"SoundDuration":1844962,"Delta":51360354},{"NoteNumber":81,"Velocity":67,"Duration":300752,"SoundDuration":300752,"Delta":51360354},{"NoteNumber":62,"Velocity":42,"Duration":1844962,"SoundDuration":1844962,"Delta":51360354},{"NoteNumber":66,"Velocity":52,"Duration":300752,"SoundDuration":300752,"Delta":51360354},{"NoteNumber":83,"Velocity":59,"Duration":149253,"SoundDuration":149253,"Delta":51661106},{"NoteNumber":67,"Velocity":47,"Duration":149253,"SoundDuration":149253,"Delta":51661106},{"NoteNumber":81,"Velocity":55,"Duration":149253,"SoundDuration":149253,"Delta":51810360},{"NoteNumber":66,"Velocity":44,"Duration":149253,"SoundDuration":149253,"Delta":51810360},{"NoteNumber":79,"Velocity":57,"Duration":149253,"SoundDuration":149253,"Delta":51959613},{"NoteNumber":64,"Velocity":45,"Duration":149253,"SoundDuration":149253,"Delta":51959613},{"NoteNumber":81,"Velocity":53,"Duration":158311,"SoundDuration":158311,"Delta":52108867},{"NoteNumber":66,"Velocity":42,"Duration":158311,"SoundDuration":158311,"Delta":52108867},{"NoteNumber":83,"Velocity":60,"Duration":307692,"SoundDuration":307692,"Delta":52267178},{"NoteNumber":67,"Velocity":48,"Duration":307692,"SoundDuration":307692,"Delta":52267178},{"NoteNumber":83,"Velocity":59,"Duration":153061,"SoundDuration":153061,"Delta":52574870},{"NoteNumber":67,"Velocity":47,"Duration":153061,"SoundDuration":153061,"Delta":52574870},{"NoteNumber":86,"Velocity":55,"Duration":153061,"SoundDuration":153061,"Delta":52727931},{"NoteNumber":71,"Velocity":44,"Duration":153061,"SoundDuration":153061,"Delta":52727931},{"NoteNumber":83,"Velocity":58,"Duration":324323,"SoundDuration":324323,"Delta":52880992},{"NoteNumber":67,"Velocity":46,"Duration":324323,"SoundDuration":324323,"Delta":52880992},{"NoteNumber":74,"Velocity":57,"Duration":1068864,"SoundDuration":1068864,"Delta":53205316},{"NoteNumber":81,"Velocity":67,"Duration":326656,"SoundDuration":326656,"Delta":53205316},{"NoteNumber":62,"Velocity":42,"Duration":870844,"SoundDuration":870844,"Delta":53205316},{"NoteNumber":66,"Velocity":52,"Duration":326656,"SoundDuration":326656,"Delta":53205316},{"NoteNumber":83,"Velocity":59,"Duration":171710,"SoundDuration":171710,"Delta":53531973},{"NoteNumber":67,"Velocity":47,"Duration":171710,"SoundDuration":171710,"Delta":53531973},{"NoteNumber":81,"Velocity":55,"Duration":181038,"SoundDuration":181038,"Delta":53703683},{"NoteNumber":66,"Velocity":44,"Duration":181038,"SoundDuration":181038,"Delta":53703683},{"NoteNumber":79,"Velocity":57,"Duration":191438,"SoundDuration":191438,"Delta":53884722},{"NoteNumber":64,"Velocity":45,"Duration":191438,"SoundDuration":191438,"Delta":53884722},{"NoteNumber":78,"Velocity":53,"Duration":198019,"SoundDuration":198019,"Delta":54076161},{"NoteNumber":62,"Velocity":42,"Duration":198019,"SoundDuration":198019,"Delta":54076161},{"NoteNumber":69,"Velocity":48,"Duration":960220,"SoundDuration":960220,"Delta":54274181},{"NoteNumber":73,"Velocity":48,"Duration":960220,"SoundDuration":960220,"Delta":54274181},{"NoteNumber":76,"Velocity":60,"Duration":960220,"SoundDuration":960220,"Delta":54274181},{"NoteNumber":57,"Velocity":38,"Duration":960220,"SoundDuration":960220,"Delta":54274181},{"NoteNumber":64,"Velocity":48,"Duration":960220,"SoundDuration":960220,"Delta":54274181},{"NoteNumber":62,"Velocity":59,"Duration":149999,"SoundDuration":149999,"Delta":55234402},{"NoteNumber":38,"Velocity":55,"Duration":919465,"SoundDuration":919465,"Delta":55234402},{"NoteNumber":54,"Velocity":46,"Duration":769465,"SoundDuration":769465,"Delta":55384402},{"NoteNumber":66,"Velocity":49,"Duration":37499,"SoundDuration":37499,"Delta":55496902},{"NoteNumber":64,"Velocity":55,"Duration":148147,"SoundDuration":148147,"Delta":55534402},{"NoteNumber":45,"Velocity":55,"Duration":619465,"SoundDuration":619465,"Delta":55534402},{"NoteNumber":62,"Velocity":53,"Duration":148147,"SoundDuration":148147,"Delta":55682550},{"NoteNumber":61,"Velocity":56,"Duration":146699,"SoundDuration":146699,"Delta":55830698},{"NoteNumber":62,"Velocity":51,"Duration":176470,"SoundDuration":176470,"Delta":55977397},{"NoteNumber":64,"Velocity":58,"Duration":78125,"SoundDuration":78125,"Delta":56153868},{"NoteNumber":37,"Velocity":55,"Duration":78125,"SoundDuration":78125,"Delta":56153868},{"NoteNumber":49,"Velocity":55,"Duration":78125,"SoundDuration":78125,"Delta":56310118},{"NoteNumber":55,"Velocity":49,"Duration":76142,"SoundDuration":76142,"Delta":56466368},{"NoteNumber":59,"Velocity":49,"Duration":76142,"SoundDuration":76142,"Delta":56466368},{"NoteNumber":64,"Velocity":49,"Duration":76142,"SoundDuration":76142,"Delta":56466368},{"NoteNumber":67,"Velocity":53,"Duration":76142,"SoundDuration":76142,"Delta":56466368},{"NoteNumber":54,"Velocity":42,"Duration":78740,"SoundDuration":78740,"Delta":56770937},{"NoteNumber":61,"Velocity":42,"Duration":78740,"SoundDuration":78740,"Delta":56770937},{"NoteNumber":64,"Velocity":42,"Duration":78740,"SoundDuration":78740,"Delta":56770937},{"NoteNumber":66,"Velocity":51,"Duration":78740,"SoundDuration":78740,"Delta":56770937},{"NoteNumber":46,"Velocity":55,"Duration":314960,"SoundDuration":314960,"Delta":56770937},{"NoteNumber":34,"Velocity":46,"Duration":314960,"SoundDuration":314960,"Delta":56770937},{"NoteNumber":62,"Velocity":58,"Duration":78328,"SoundDuration":78328,"Delta":57085898},{"NoteNumber":35,"Velocity":55,"Duration":78328,"SoundDuration":78328,"Delta":57085898},{"NoteNumber":47,"Velocity":55,"Duration":78328,"SoundDuration":78328,"Delta":57242556},{"NoteNumber":54,"Velocity":46,"Duration":75949,"SoundDuration":75949,"Delta":57399214},{"NoteNumber":59,"Velocity":46,"Duration":75949,"SoundDuration":75949,"Delta":57399214},{"NoteNumber":62,"Velocity":46,"Duration":75949,"SoundDuration":75949,"Delta":57399214},{"NoteNumber":66,"Velocity":55,"Duration":75949,"SoundDuration":75949,"Delta":57399214},{"NoteNumber":59,"Velocity":42,"Duration":76923,"SoundDuration":76923,"Delta":57703011},{"NoteNumber":62,"Velocity":42,"Duration":76923,"SoundDuration":76923,"Delta":57703011},{"NoteNumber":64,"Velocity":51,"Duration":76923,"SoundDuration":76923,"Delta":57703011},{"NoteNumber":32,"Velocity":46,"Duration":307692,"SoundDuration":307692,"Delta":57703011},{"NoteNumber":44,"Velocity":55,"Duration":307692,"SoundDuration":307692,"Delta":57703011},{"NoteNumber":52,"Velocity":42,"Duration":76923,"SoundDuration":76923,"Delta":57703011},{"NoteNumber":61,"Velocity":59,"Duration":149999,"SoundDuration":149999,"Delta":58010703},{"NoteNumber":33,"Velocity":55,"Duration":299999,"SoundDuration":299999,"Delta":58010703},{"NoteNumber":45,"Velocity":55,"Duration":299999,"SoundDuration":299999,"Delta":58010703},{"NoteNumber":52,"Velocity":55,"Duration":767701,"SoundDuration":767701,"Delta":58160703},{"NoteNumber":62,"Velocity":49,"Duration":37499,"SoundDuration":37499,"Delta":58273203},{"NoteNumber":61,"Velocity":55,"Duration":148147,"SoundDuration":148147,"Delta":58310703},{"NoteNumber":59,"Velocity":53,"Duration":148147,"SoundDuration":148147,"Delta":58458851},{"NoteNumber":61,"Velocity":56,"Duration":146699,"SoundDuration":146699,"Delta":58606999},{"NoteNumber":57,"Velocity":56,"Duration":146699,"SoundDuration":146699,"Delta":58606999},{"NoteNumber":45,"Velocity":55,"Duration":321405,"SoundDuration":321405,"Delta":58606999},{"NoteNumber":55,"Velocity":51,"Duration":174705,"SoundDuration":174705,"Delta":58753698},{"NoteNumber":62,"Velocity":59,"Duration":149999,"SoundDuration":149999,"Delta":58918404},{"NoteNumber":38,"Velocity":55,"Duration":919465,"SoundDuration":919465,"Delta":58918404},{"NoteNumber":54,"Velocity":46,"Duration":769465,"SoundDuration":769465,"Delta":59068404},{"NoteNumber":66,"Velocity":49,"Duration":37499,"SoundDuration":37499,"Delta":59180904},{"NoteNumber":64,"Velocity":55,"Duration":148147,"SoundDuration":148147,"Delta":59218404},{"NoteNumber":45,"Velocity":55,"Duration":620006,"SoundDuration":620006,"Delta":59228280},{"NoteNumber":62,"Velocity":53,"Duration":148147,"SoundDuration":148147,"Delta":59366552},{"NoteNumber":61,"Velocity":56,"Duration":146699,"SoundDuration":146699,"Delta":59514700},{"NoteNumber":62,"Velocity":51,"Duration":176470,"SoundDuration":176470,"Delta":59661399},{"NoteNumber":64,"Velocity":58,"Duration":78125,"SoundDuration":78125,"Delta":59837870},{"NoteNumber":37,"Velocity":55,"Duration":78125,"SoundDuration":78125,"Delta":59837870},{"NoteNumber":49,"Velocity":48,"Duration":78125,"SoundDuration":78125,"Delta":59994120},{"NoteNumber":55,"Velocity":49,"Duration":76142,"SoundDuration":76142,"Delta":60150370},{"NoteNumber":59,"Velocity":49,"Duration":76142,"SoundDuration":76142,"Delta":60150370},{"NoteNumber":64,"Velocity":49,"Duration":76142,"SoundDuration":76142,"Delta":60150370},{"NoteNumber":67,"Velocity":53,"Duration":76142,"SoundDuration":76142,"Delta":60150370},{"NoteNumber":54,"Velocity":42,"Duration":78810,"SoundDuration":78810,"Delta":60454939},{"NoteNumber":61,"Velocity":42,"Duration":78810,"SoundDuration":78810,"Delta":60454939},{"NoteNumber":64,"Velocity":42,"Duration":78810,"SoundDuration":78810,"Delta":60454939},{"NoteNumber":66,"Velocity":51,"Duration":78810,"SoundDuration":78810,"Delta":60454939},{"NoteNumber":46,"Velocity":55,"Duration":315652,"SoundDuration":315652,"Delta":60454939},{"NoteNumber":34,"Velocity":46,"Duration":315652,"SoundDuration":315652,"Delta":60454939},{"NoteNumber":62,"Velocity":58,"Duration":78125,"SoundDuration":78125,"Delta":60780821},{"NoteNumber":59,"Velocity":58,"Duration":78125,"SoundDuration":78125,"Delta":60780821},{"NoteNumber":47,"Velocity":55,"Duration":312500,"SoundDuration":312500,"Delta":60780821},{"NoteNumber":35,"Velocity":46,"Duration":312500,"SoundDuration":312500,"Delta":60780821},{"NoteNumber":54,"Velocity":47,"Duration":78125,"SoundDuration":78125,"Delta":60937071},{"NoteNumber":62,"Velocity":55,"Duration":79575,"SoundDuration":79575,"Delta":61093321},{"NoteNumber":59,"Velocity":46,"Duration":79575,"SoundDuration":79575,"Delta":61093321},{"NoteNumber":43,"Velocity":55,"Duration":159151,"SoundDuration":159151,"Delta":61093321},{"NoteNumber":31,"Velocity":46,"Duration":159151,"SoundDuration":159151,"Delta":61093321},{"NoteNumber":64,"Velocity":50,"Duration":79575,"SoundDuration":79575,"Delta":61252472},{"NoteNumber":61,"Velocity":59,"Duration":331491,"SoundDuration":331491,"Delta":61411623},{"NoteNumber":57,"Velocity":59,"Duration":82872,"SoundDuration":82872,"Delta":61411623},{"NoteNumber":52,"Velocity":51,"Duration":82872,"SoundDuration":82872,"Delta":61411623},{"NoteNumber":45,"Velocity":51,"Duration":165745,"SoundDuration":165745,"Delta":61411623},{"NoteNumber":33,"Velocity":42,"Duration":165745,"SoundDuration":165745,"Delta":61411623},{"NoteNumber":55,"Velocity":52,"Duration":82872,"SoundDuration":82872,"Delta":61577369},{"NoteNumber":62,"Velocity":64,"Duration":165289,"SoundDuration":165289,"Delta":61743115},{"NoteNumber":45,"Velocity":51,"Duration":165289,"SoundDuration":165289,"Delta":61743115},{"NoteNumber":38,"Velocity":49,"Duration":165289,"SoundDuration":165289,"Delta":61743115},{"NoteNumber":54,"Velocity":58,"Duration":165289,"SoundDuration":165289,"Delta":61743115},{"NoteNumber":74,"Velocity":77,"Duration":165289,"SoundDuration":165289,"Delta":62073694},{"NoteNumber":66,"Velocity":64,"Duration":165289,"SoundDuration":165289,"Delta":62073694},{"NoteNumber":57,"Velocity":70,"Duration":165289,"SoundDuration":165289,"Delta":62073694},{"NoteNumber":50,"Velocity":60,"Duration":165289,"SoundDuration":165289,"Delta":62073694},{"NoteNumber":78,"Velocity":59,"Duration":325555,"SoundDuration":325555,"Delta":62734852},{"NoteNumber":47,"Velocity":38,"Duration":1914591,"SoundDuration":1914591,"Delta":62734852},{"NoteNumber":62,"Velocity":47,"Duration":325555,"SoundDuration":325555,"Delta":62734852},{"NoteNumber":71,"Velocity":39,"Duration":321962,"SoundDuration":321962,"Delta":62897630},{"NoteNumber":79,"Velocity":52,"Duration":159185,"SoundDuration":159185,"Delta":63060408},{"NoteNumber":64,"Velocity":41,"Duration":159185,"SoundDuration":159185,"Delta":63060408},{"NoteNumber":71,"Velocity":35,"Duration":316203,"SoundDuration":316203,"Delta":63219593},{"NoteNumber":78,"Velocity":47,"Duration":159185,"SoundDuration":159185,"Delta":63219593},{"NoteNumber":62,"Velocity":39,"Duration":159185,"SoundDuration":159185,"Delta":63219593},{"NoteNumber":76,"Velocity":50,"Duration":157018,"SoundDuration":157018,"Delta":63378778},{"NoteNumber":61,"Velocity":39,"Duration":157018,"SoundDuration":157018,"Delta":63378778},{"NoteNumber":71,"Velocity":35,"Duration":163702,"SoundDuration":163702,"Delta":63535797},{"NoteNumber":78,"Velocity":48,"Duration":163702,"SoundDuration":163702,"Delta":63535797},{"NoteNumber":62,"Velocity":38,"Duration":163702,"SoundDuration":163702,"Delta":63535797},{"NoteNumber":79,"Velocity":53,"Duration":320136,"SoundDuration":320136,"Delta":63699499},{"NoteNumber":64,"Velocity":42,"Duration":320136,"SoundDuration":320136,"Delta":63699499},{"NoteNumber":71,"Velocity":37,"Duration":318379,"SoundDuration":318379,"Delta":63859567},{"NoteNumber":83,"Velocity":52,"Duration":316623,"SoundDuration":316623,"Delta":64019636},{"NoteNumber":61,"Velocity":41,"Duration":316623,"SoundDuration":316623,"Delta":64019636},{"NoteNumber":71,"Velocity":36,"Duration":314904,"SoundDuration":314904,"Delta":64177947},{"NoteNumber":76,"Velocity":51,"Duration":313185,"SoundDuration":313185,"Delta":64336259},{"NoteNumber":64,"Velocity":40,"Duration":313185,"SoundDuration":313185,"Delta":64336259},{"NoteNumber":71,"Velocity":28,"Duration":156592,"SoundDuration":156592,"Delta":64492851},{"NoteNumber":78,"Velocity":59,"Duration":325556,"SoundDuration":325556,"Delta":64649444},{"NoteNumber":47,"Velocity":38,"Duration":964646,"SoundDuration":964646,"Delta":64649444},{"NoteNumber":62,"Velocity":47,"Duration":325556,"SoundDuration":325556,"Delta":64649444},{"NoteNumber":71,"Velocity":39,"Duration":321962,"SoundDuration":321962,"Delta":64812222},{"NoteNumber":79,"Velocity":52,"Duration":159184,"SoundDuration":159184,"Delta":64975000},{"NoteNumber":64,"Velocity":41,"Duration":159184,"SoundDuration":159184,"Delta":64975000},{"NoteNumber":71,"Velocity":35,"Duration":316203,"SoundDuration":316203,"Delta":65134185},{"NoteNumber":78,"Velocity":47,"Duration":159185,"SoundDuration":159185,"Delta":65134185},{"NoteNumber":62,"Velocity":39,"Duration":159185,"SoundDuration":159185,"Delta":65134185},{"NoteNumber":76,"Velocity":50,"Duration":157018,"SoundDuration":157018,"Delta":65293370},{"NoteNumber":61,"Velocity":39,"Duration":157018,"SoundDuration":157018,"Delta":65293370},{"NoteNumber":71,"Velocity":35,"Duration":163702,"SoundDuration":163702,"Delta":65450388},{"NoteNumber":78,"Velocity":48,"Duration":163702,"SoundDuration":163702,"Delta":65450388},{"NoteNumber":62,"Velocity":38,"Duration":163702,"SoundDuration":163702,"Delta":65450388},{"NoteNumber":79,"Velocity":53,"Duration":320137,"SoundDuration":320137,"Delta":65614090},{"NoteNumber":52,"Velocity":38,"Duration":636760,"SoundDuration":636760,"Delta":65614090},{"NoteNumber":64,"Velocity":42,"Duration":320137,"SoundDuration":320137,"Delta":65614090},{"NoteNumber":67,"Velocity":37,"Duration":160068,"SoundDuration":160068,"Delta":65774159},{"NoteNumber":76,"Velocity":52,"Duration":316623,"SoundDuration":316623,"Delta":65934227},{"NoteNumber":61,"Velocity":41,"Duration":316623,"SoundDuration":316623,"Delta":65934227},{"NoteNumber":67,"Velocity":36,"Duration":327602,"SoundDuration":327602,"Delta":66092539},{"NoteNumber":73,"Velocity":51,"Duration":338581,"SoundDuration":338581,"Delta":66250850},{"NoteNumber":54,"Velocity":40,"Duration":338581,"SoundDuration":338581,"Delta":66250850},{"NoteNumber":58,"Velocity":40,"Duration":338581,"SoundDuration":338581,"Delta":66250850},{"NoteNumber":64,"Velocity":28,"Duration":169290,"SoundDuration":169290,"Delta":66420141},{"NoteNumber":62,"Velocity":40,"Duration":1015743,"SoundDuration":1015743,"Delta":66589431},{"NoteNumber":71,"Velocity":48,"Duration":1015743,"SoundDuration":1015743,"Delta":66589431},{"NoteNumber":47,"Velocity":31,"Duration":169290,"SoundDuration":169290,"Delta":66589431},{"NoteNumber":59,"Velocity":38,"Duration":169290,"SoundDuration":169290,"Delta":66589431},{"NoteNumber":54,"Velocity":38,"Duration":338581,"SoundDuration":338581,"Delta":66758722},{"NoteNumber":54,"Velocity":33,"Duration":338581,"SoundDuration":338581,"Delta":67097303},{"NoteNumber":54,"Velocity":33,"Duration":169290,"SoundDuration":169290,"Delta":67435884},{"NoteNumber":74,"Velocity":52,"Duration":80932,"SoundDuration":80932,"Delta":67605174},{"NoteNumber":67,"Velocity":52,"Duration":961260,"SoundDuration":961260,"Delta":67605174},{"NoteNumber":45,"Velocity":38,"Duration":961260,"SoundDuration":961260,"Delta":67605174},{"NoteNumber":52,"Velocity":38,"Duration":322825,"SoundDuration":322825,"Delta":67605174},{"NoteNumber":73,"Velocity":48,"Duration":80781,"SoundDuration":80781,"Delta":67686107},{"NoteNumber":74,"Velocity":53,"Duration":80630,"SoundDuration":80630,"Delta":67766888},{"NoteNumber":73,"Velocity":49,"Duration":80480,"SoundDuration":80480,"Delta":67847519},{"NoteNumber":74,"Velocity":56,"Duration":80256,"SoundDuration":80256,"Delta":67928000},{"NoteNumber":52,"Velocity":39,"Duration":320064,"SoundDuration":320064,"Delta":67928000},{"NoteNumber":73,"Velocity":50,"Duration":80108,"SoundDuration":80108,"Delta":68008256},{"NoteNumber":74,"Velocity":57,"Duration":79960,"SoundDuration":79960,"Delta":68088365},{"NoteNumber":73,"Velocity":51,"Duration":79739,"SoundDuration":79739,"Delta":68168325},{"NoteNumber":74,"Velocity":57,"Duration":79592,"SoundDuration":79592,"Delta":68248065},{"NoteNumber":52,"Velocity":41,"Duration":318370,"SoundDuration":318370,"Delta":68248065},{"NoteNumber":73,"Velocity":52,"Duration":79592,"SoundDuration":79592,"Delta":68327657},{"NoteNumber":71,"Velocity":58,"Duration":79592,"SoundDuration":79592,"Delta":68407250},{"NoteNumber":73,"Velocity":51,"Duration":79592,"SoundDuration":79592,"Delta":68486842},{"NoteNumber":66,"Velocity":57,"Duration":322823,"SoundDuration":322823,"Delta":68566435},{"NoteNumber":74,"Velocity":57,"Duration":322823,"SoundDuration":322823,"Delta":68566435},{"NoteNumber":54,"Velocity":42,"Duration":322823,"SoundDuration":322823,"Delta":68566435},{"NoteNumber":50,"Velocity":42,"Duration":322823,"SoundDuration":322823,"Delta":68566435},{"NoteNumber":74,"Velocity":55,"Duration":158747,"SoundDuration":158747,"Delta":68889259},{"NoteNumber":54,"Velocity":38,"Duration":317493,"SoundDuration":317493,"Delta":68889259},{"NoteNumber":76,"Velocity":49,"Duration":158746,"SoundDuration":158746,"Delta":69048006},{"NoteNumber":64,"Velocity":52,"Duration":324640,"SoundDuration":324640,"Delta":69206753},{"NoteNumber":73,"Velocity":52,"Duration":324640,"SoundDuration":324640,"Delta":69206753},{"NoteNumber":54,"Velocity":31,"Duration":324640,"SoundDuration":324640,"Delta":69206753},{"NoteNumber":58,"Velocity":31,"Duration":324640,"SoundDuration":324640,"Delta":69206753},{"NoteNumber":62,"Velocity":46,"Duration":963532,"SoundDuration":963532,"Delta":69531393},{"NoteNumber":71,"Velocity":46,"Duration":963532,"SoundDuration":963532,"Delta":69531393},{"NoteNumber":47,"Velocity":38,"Duration":318370,"SoundDuration":318370,"Delta":69531393},{"NoteNumber":55,"Velocity":38,"Duration":318370,"SoundDuration":318370,"Delta":69531393},{"NoteNumber":59,"Velocity":38,"Duration":318370,"SoundDuration":318370,"Delta":69531393},{"NoteNumber":47,"Velocity":47,"Duration":161290,"SoundDuration":161290,"Delta":69849763},{"NoteNumber":46,"Velocity":41,"Duration":161290,"SoundDuration":161290,"Delta":70011053},{"NoteNumber":47,"Velocity":38,"Duration":322580,"SoundDuration":322580,"Delta":70172344},{"NoteNumber":74,"Velocity":52,"Duration":80932,"SoundDuration":80932,"Delta":70494925},{"NoteNumber":67,"Velocity":52,"Duration":961260,"SoundDuration":961260,"Delta":70494925},{"NoteNumber":45,"Velocity":38,"Duration":961260,"SoundDuration":961260,"Delta":70494925},{"NoteNumber":52,"Velocity":38,"Duration":161713,"SoundDuration":161713,"Delta":70494925},{"NoteNumber":73,"Velocity":48,"Duration":80781,"SoundDuration":80781,"Delta":70575857},{"NoteNumber":74,"Velocity":53,"Duration":80630,"SoundDuration":80630,"Delta":70656638},{"NoteNumber":52,"Velocity":45,"Duration":321476,"SoundDuration":321476,"Delta":70656638},{"NoteNumber":73,"Velocity":49,"Duration":80480,"SoundDuration":80480,"Delta":70737269},{"NoteNumber":74,"Velocity":56,"Duration":80256,"SoundDuration":80256,"Delta":70817750},{"NoteNumber":73,"Velocity":50,"Duration":80108,"SoundDuration":80108,"Delta":70898007},{"NoteNumber":74,"Velocity":57,"Duration":79960,"SoundDuration":79960,"Delta":70978115},{"NoteNumber":52,"Velocity":38,"Duration":318884,"SoundDuration":318884,"Delta":70978115},{"NoteNumber":73,"Velocity":51,"Duration":79739,"SoundDuration":79739,"Delta":71058076},{"NoteNumber":74,"Velocity":57,"Duration":79592,"SoundDuration":79592,"Delta":71137815},{"NoteNumber":73,"Velocity":52,"Duration":79592,"SoundDuration":79592,"Delta":71217407},{"NoteNumber":71,"Velocity":58,"Duration":79592,"SoundDuration":79592,"Delta":71297000},{"NoteNumber":52,"Velocity":38,"Duration":159185,"SoundDuration":159185,"Delta":71297000},{"NoteNumber":73,"Velocity":51,"Duration":79592,"SoundDuration":79592,"Delta":71376592},{"NoteNumber":74,"Velocity":57,"Duration":326476,"SoundDuration":326476,"Delta":71456185},{"NoteNumber":54,"Velocity":42,"Duration":326476,"SoundDuration":326476,"Delta":71456185},{"NoteNumber":50,"Velocity":42,"Duration":326476,"SoundDuration":326476,"Delta":71456185},{"NoteNumber":66,"Velocity":57,"Duration":163238,"SoundDuration":163238,"Delta":71619423},{"NoteNumber":74,"Velocity":55,"Duration":161411,"SoundDuration":161411,"Delta":71782662},{"NoteNumber":54,"Velocity":38,"Duration":322823,"SoundDuration":322823,"Delta":71782662},{"NoteNumber":66,"Velocity":57,"Duration":329413,"SoundDuration":329413,"Delta":71944074},{"NoteNumber":76,"Velocity":49,"Duration":161411,"SoundDuration":161411,"Delta":71944074},{"NoteNumber":73,"Velocity":52,"Duration":336003,"SoundDuration":336003,"Delta":72105486},{"NoteNumber":54,"Velocity":31,"Duration":336003,"SoundDuration":336003,"Delta":72105486},{"NoteNumber":58,"Velocity":31,"Duration":336003,"SoundDuration":336003,"Delta":72105486},{"NoteNumber":64,"Velocity":45,"Duration":168001,"SoundDuration":168001,"Delta":72273487},{"NoteNumber":71,"Velocity":46,"Duration":1020088,"SoundDuration":1020088,"Delta":72441489},{"NoteNumber":47,"Velocity":38,"Duration":169482,"SoundDuration":169482,"Delta":72441489},{"NoteNumber":54,"Velocity":28,"Duration":338297,"SoundDuration":338297,"Delta":72610971},{"NoteNumber":62,"Velocity":29,"Duration":338507,"SoundDuration":338507,"Delta":72780453},{"NoteNumber":66,"Velocity":29,"Duration":338507,"SoundDuration":338507,"Delta":72780453},{"NoteNumber":54,"Velocity":26,"Duration":340470,"SoundDuration":340470,"Delta":72949269},{"NoteNumber":62,"Velocity":27,"Duration":342617,"SoundDuration":342617,"Delta":73118961},{"NoteNumber":66,"Velocity":27,"Duration":342617,"SoundDuration":342617,"Delta":73118961},{"NoteNumber":54,"Velocity":25,"Duration":171838,"SoundDuration":171838,"Delta":73289739},{"NoteNumber":62,"Velocity":26,"Duration":346115,"SoundDuration":346115,"Delta":73461578},{"NoteNumber":66,"Velocity":26,"Duration":346115,"SoundDuration":346115,"Delta":73461578},{"NoteNumber":47,"Velocity":23,"Duration":1053569,"SoundDuration":1053569,"Delta":73461578},{"NoteNumber":54,"Velocity":23,"Duration":347913,"SoundDuration":347913,"Delta":73634199},{"NoteNumber":62,"Velocity":25,"Duration":349644,"SoundDuration":349644,"Delta":73807693},{"NoteNumber":66,"Velocity":25,"Duration":349644,"SoundDuration":349644,"Delta":73807693},{"NoteNumber":54,"Velocity":20,"Duration":350663,"SoundDuration":350663,"Delta":73982112},{"NoteNumber":62,"Velocity":23,"Duration":357809,"SoundDuration":357809,"Delta":74157338},{"NoteNumber":66,"Velocity":23,"Duration":357809,"SoundDuration":357809,"Delta":74157338},{"NoteNumber":54,"Velocity":19,"Duration":182371,"SoundDuration":182371,"Delta":74332776},{"NoteNumber":78,"Velocity":59,"Duration":325556,"SoundDuration":325556,"Delta":74515147},{"NoteNumber":47,"Velocity":38,"Duration":1917035,"SoundDuration":1917035,"Delta":74515147},{"NoteNumber":62,"Velocity":47,"Duration":325556,"SoundDuration":325556,"Delta":74515147},{"NoteNumber":71,"Velocity":39,"Duration":321962,"SoundDuration":321962,"Delta":74677925},{"NoteNumber":79,"Velocity":52,"Duration":159184,"SoundDuration":159184,"Delta":74840703},{"NoteNumber":64,"Velocity":41,"Duration":159184,"SoundDuration":159184,"Delta":74840703},{"NoteNumber":71,"Velocity":35,"Duration":316203,"SoundDuration":316203,"Delta":74999888},{"NoteNumber":78,"Velocity":47,"Duration":159185,"SoundDuration":159185,"Delta":74999888},{"NoteNumber":62,"Velocity":39,"Duration":159185,"SoundDuration":159185,"Delta":74999888},{"NoteNumber":76,"Velocity":50,"Duration":157018,"SoundDuration":157018,"Delta":75159073},{"NoteNumber":61,"Velocity":39,"Duration":157018,"SoundDuration":157018,"Delta":75159073},{"NoteNumber":71,"Velocity":35,"Duration":163702,"SoundDuration":163702,"Delta":75316092},{"NoteNumber":78,"Velocity":48,"Duration":163702,"SoundDuration":163702,"Delta":75316092},{"NoteNumber":62,"Velocity":38,"Duration":163702,"SoundDuration":163702,"Delta":75316092},{"NoteNumber":79,"Velocity":53,"Duration":322580,"SoundDuration":322580,"Delta":75479794},{"NoteNumber":64,"Velocity":42,"Duration":322580,"SoundDuration":322580,"Delta":75479794},{"NoteNumber":71,"Velocity":37,"Duration":319601,"SoundDuration":319601,"Delta":75641084},{"NoteNumber":83,"Velocity":52,"Duration":316623,"SoundDuration":316623,"Delta":75802375},{"NoteNumber":61,"Velocity":41,"Duration":316623,"SoundDuration":316623,"Delta":75802375},{"NoteNumber":71,"Velocity":36,"Duration":314904,"SoundDuration":314904,"Delta":75960686},{"NoteNumber":76,"Velocity":51,"Duration":313185,"SoundDuration":313185,"Delta":76118998},{"NoteNumber":64,"Velocity":40,"Duration":313185,"SoundDuration":313185,"Delta":76118998},{"NoteNumber":71,"Velocity":28,"Duration":156592,"SoundDuration":156592,"Delta":76275590},{"NoteNumber":78,"Velocity":59,"Duration":325556,"SoundDuration":325556,"Delta":76432183},{"NoteNumber":47,"Velocity":38,"Duration":964646,"SoundDuration":964646,"Delta":76432183},{"NoteNumber":62,"Velocity":47,"Duration":325556,"SoundDuration":325556,"Delta":76432183},{"NoteNumber":71,"Velocity":39,"Duration":162778,"SoundDuration":162778,"Delta":76594961},{"NoteNumber":79,"Velocity":52,"Duration":159184,"SoundDuration":159184,"Delta":76757739},{"NoteNumber":64,"Velocity":41,"Duration":159184,"SoundDuration":159184,"Delta":76757739},{"NoteNumber":71,"Velocity":35,"Duration":316203,"SoundDuration":316203,"Delta":76916924},{"NoteNumber":78,"Velocity":47,"Duration":159185,"SoundDuration":159185,"Delta":76916924},{"NoteNumber":62,"Velocity":39,"Duration":159185,"SoundDuration":159185,"Delta":76916924},{"NoteNumber":76,"Velocity":50,"Duration":157018,"SoundDuration":157018,"Delta":77076109},{"NoteNumber":61,"Velocity":39,"Duration":157018,"SoundDuration":157018,"Delta":77076109},{"NoteNumber":71,"Velocity":35,"Duration":163702,"SoundDuration":163702,"Delta":77233127},{"NoteNumber":78,"Velocity":48,"Duration":163702,"SoundDuration":163702,"Delta":77233127},{"NoteNumber":62,"Velocity":38,"Duration":163702,"SoundDuration":163702,"Delta":77233127},{"NoteNumber":79,"Velocity":53,"Duration":320137,"SoundDuration":320137,"Delta":77396829},{"NoteNumber":52,"Velocity":38,"Duration":636760,"SoundDuration":636760,"Delta":77396829},{"NoteNumber":64,"Velocity":42,"Duration":320137,"SoundDuration":320137,"Delta":77396829},{"NoteNumber":67,"Velocity":37,"Duration":318380,"SoundDuration":318380,"Delta":77556898},{"NoteNumber":76,"Velocity":52,"Duration":316623,"SoundDuration":316623,"Delta":77716966},{"NoteNumber":61,"Velocity":41,"Duration":316623,"SoundDuration":316623,"Delta":77716966},{"NoteNumber":67,"Velocity":36,"Duration":327602,"SoundDuration":327602,"Delta":77875278},{"NoteNumber":73,"Velocity":51,"Duration":338581,"SoundDuration":338581,"Delta":78033589},{"NoteNumber":54,"Velocity":40,"Duration":338581,"SoundDuration":338581,"Delta":78033589},{"NoteNumber":58,"Velocity":40,"Duration":338581,"SoundDuration":338581,"Delta":78033589},{"NoteNumber":64,"Velocity":28,"Duration":169290,"SoundDuration":169290,"Delta":78202880},{"NoteNumber":62,"Velocity":40,"Duration":1015743,"SoundDuration":1015743,"Delta":78372170},{"NoteNumber":71,"Velocity":48,"Duration":1015743,"SoundDuration":1015743,"Delta":78372170},{"NoteNumber":47,"Velocity":31,"Duration":169290,"SoundDuration":169290,"Delta":78372170},{"NoteNumber":59,"Velocity":38,"Duration":169290,"SoundDuration":169290,"Delta":78372170},{"NoteNumber":54,"Velocity":38,"Duration":338581,"SoundDuration":338581,"Delta":78541461},{"NoteNumber":54,"Velocity":33,"Duration":338581,"SoundDuration":338581,"Delta":78880042},{"NoteNumber":54,"Velocity":33,"Duration":169290,"SoundDuration":169290,"Delta":79218623},{"NoteNumber":74,"Velocity":52,"Duration":80932,"SoundDuration":80932,"Delta":79387913},{"NoteNumber":67,"Velocity":52,"Duration":961260,"SoundDuration":961260,"Delta":79387913},{"NoteNumber":45,"Velocity":38,"Duration":961260,"SoundDuration":961260,"Delta":79387913},{"NoteNumber":52,"Velocity":38,"Duration":322825,"SoundDuration":322825,"Delta":79387913},{"NoteNumber":73,"Velocity":48,"Duration":80781,"SoundDuration":80781,"Delta":79468845},{"NoteNumber":74,"Velocity":53,"Duration":80630,"SoundDuration":80630,"Delta":79549627},{"NoteNumber":73,"Velocity":49,"Duration":80480,"SoundDuration":80480,"Delta":79630258},{"NoteNumber":74,"Velocity":56,"Duration":80256,"SoundDuration":80256,"Delta":79710739},{"NoteNumber":52,"Velocity":39,"Duration":320064,"SoundDuration":320064,"Delta":79710739},{"NoteNumber":73,"Velocity":50,"Duration":80108,"SoundDuration":80108,"Delta":79790995},{"NoteNumber":74,"Velocity":57,"Duration":79960,"SoundDuration":79960,"Delta":79871104},{"NoteNumber":73,"Velocity":51,"Duration":79739,"SoundDuration":79739,"Delta":79951064},{"NoteNumber":74,"Velocity":57,"Duration":79592,"SoundDuration":79592,"Delta":80030803},{"NoteNumber":52,"Velocity":41,"Duration":318369,"SoundDuration":318369,"Delta":80030803},{"NoteNumber":73,"Velocity":52,"Duration":79592,"SoundDuration":79592,"Delta":80110396},{"NoteNumber":71,"Velocity":58,"Duration":79592,"SoundDuration":79592,"Delta":80189988},{"NoteNumber":73,"Velocity":51,"Duration":79592,"SoundDuration":79592,"Delta":80269581},{"NoteNumber":66,"Velocity":57,"Duration":322823,"SoundDuration":322823,"Delta":80349173},{"NoteNumber":74,"Velocity":57,"Duration":322823,"SoundDuration":322823,"Delta":80349173},{"NoteNumber":54,"Velocity":42,"Duration":322823,"SoundDuration":322823,"Delta":80349173},{"NoteNumber":50,"Velocity":42,"Duration":322823,"SoundDuration":322823,"Delta":80349173},{"NoteNumber":74,"Velocity":55,"Duration":158747,"SoundDuration":158747,"Delta":80671997},{"NoteNumber":54,"Velocity":38,"Duration":317493,"SoundDuration":317493,"Delta":80671997},{"NoteNumber":76,"Velocity":49,"Duration":158746,"SoundDuration":158746,"Delta":80830744},{"NoteNumber":64,"Velocity":52,"Duration":324640,"SoundDuration":324640,"Delta":80989491},{"NoteNumber":73,"Velocity":52,"Duration":324640,"SoundDuration":324640,"Delta":80989491},{"NoteNumber":54,"Velocity":31,"Duration":324640,"SoundDuration":324640,"Delta":80989491},{"NoteNumber":58,"Velocity":31,"Duration":324640,"SoundDuration":324640,"Delta":80989491},{"NoteNumber":62,"Velocity":46,"Duration":973031,"SoundDuration":973031,"Delta":81314131},{"NoteNumber":71,"Velocity":46,"Duration":973031,"SoundDuration":973031,"Delta":81314131},{"NoteNumber":47,"Velocity":38,"Duration":327869,"SoundDuration":327869,"Delta":81314131},{"NoteNumber":55,"Velocity":38,"Duration":327869,"SoundDuration":327869,"Delta":81314131},{"NoteNumber":59,"Velocity":38,"Duration":327869,"SoundDuration":327869,"Delta":81314131},{"NoteNumber":47,"Velocity":49,"Duration":161290,"SoundDuration":161290,"Delta":81642000},{"NoteNumber":46,"Velocity":40,"Duration":161290,"SoundDuration":161290,"Delta":81803291},{"NoteNumber":47,"Velocity":38,"Duration":322580,"SoundDuration":322580,"Delta":81964581},{"NoteNumber":74,"Velocity":52,"Duration":80932,"SoundDuration":80932,"Delta":82287162},{"NoteNumber":67,"Velocity":52,"Duration":961260,"SoundDuration":961260,"Delta":82287162},{"NoteNumber":45,"Velocity":38,"Duration":961260,"SoundDuration":961260,"Delta":82287162},{"NoteNumber":52,"Velocity":38,"Duration":161713,"SoundDuration":161713,"Delta":82287162},{"NoteNumber":73,"Velocity":48,"Duration":80781,"SoundDuration":80781,"Delta":82368095},{"NoteNumber":74,"Velocity":53,"Duration":80630,"SoundDuration":80630,"Delta":82448876},{"NoteNumber":52,"Velocity":46,"Duration":321476,"SoundDuration":321476,"Delta":82448876},{"NoteNumber":73,"Velocity":49,"Duration":80480,"SoundDuration":80480,"Delta":82529507},{"NoteNumber":74,"Velocity":56,"Duration":80256,"SoundDuration":80256,"Delta":82609988},{"NoteNumber":73,"Velocity":50,"Duration":80108,"SoundDuration":80108,"Delta":82690245},{"NoteNumber":74,"Velocity":57,"Duration":79960,"SoundDuration":79960,"Delta":82770353},{"NoteNumber":52,"Velocity":38,"Duration":318884,"SoundDuration":318884,"Delta":82770353},{"NoteNumber":73,"Velocity":51,"Duration":79739,"SoundDuration":79739,"Delta":82850313},{"NoteNumber":74,"Velocity":57,"Duration":79592,"SoundDuration":79592,"Delta":82930053},{"NoteNumber":73,"Velocity":52,"Duration":79592,"SoundDuration":79592,"Delta":83009645},{"NoteNumber":71,"Velocity":58,"Duration":79592,"SoundDuration":79592,"Delta":83089238},{"NoteNumber":52,"Velocity":38,"Duration":159184,"SoundDuration":159184,"Delta":83089238},{"NoteNumber":73,"Velocity":51,"Duration":79592,"SoundDuration":79592,"Delta":83168830},{"NoteNumber":74,"Velocity":57,"Duration":326476,"SoundDuration":326476,"Delta":83248423},{"NoteNumber":54,"Velocity":42,"Duration":326476,"SoundDuration":326476,"Delta":83248423},{"NoteNumber":50,"Velocity":42,"Duration":326476,"SoundDuration":326476,"Delta":83248423},{"NoteNumber":66,"Velocity":57,"Duration":163238,"SoundDuration":163238,"Delta":83411661},{"NoteNumber":74,"Velocity":55,"Duration":161411,"SoundDuration":161411,"Delta":83574900},{"NoteNumber":54,"Velocity":38,"Duration":322823,"SoundDuration":322823,"Delta":83574900},{"NoteNumber":66,"Velocity":57,"Duration":329413,"SoundDuration":329413,"Delta":83736312},{"NoteNumber":76,"Velocity":49,"Duration":161411,"SoundDuration":161411,"Delta":83736312},{"NoteNumber":73,"Velocity":52,"Duration":336003,"SoundDuration":336003,"Delta":83897724},{"NoteNumber":54,"Velocity":31,"Duration":336003,"SoundDuration":336003,"Delta":83897724},{"NoteNumber":58,"Velocity":31,"Duration":336003,"SoundDuration":336003,"Delta":83897724},{"NoteNumber":64,"Velocity":45,"Duration":168001,"SoundDuration":168001,"Delta":84065725},{"NoteNumber":71,"Velocity":46,"Duration":1020088,"SoundDuration":1020088,"Delta":84233727},{"NoteNumber":47,"Velocity":38,"Duration":169482,"SoundDuration":169482,"Delta":84233727},{"NoteNumber":54,"Velocity":28,"Duration":338297,"SoundDuration":338297,"Delta":84403209},{"NoteNumber":62,"Velocity":29,"Duration":338507,"SoundDuration":338507,"Delta":84572691},{"NoteNumber":66,"Velocity":29,"Duration":338507,"SoundDuration":338507,"Delta":84572691},{"NoteNumber":54,"Velocity":26,"Duration":340470,"SoundDuration":340470,"Delta":84741506},{"NoteNumber":62,"Velocity":27,"Duration":342617,"SoundDuration":342617,"Delta":84911198},{"NoteNumber":66,"Velocity":27,"Duration":342617,"SoundDuration":342617,"Delta":84911198},{"NoteNumber":54,"Velocity":25,"Duration":171838,"SoundDuration":171838,"Delta":85081977},{"NoteNumber":62,"Velocity":26,"Duration":346115,"SoundDuration":346115,"Delta":85253816},{"NoteNumber":66,"Velocity":26,"Duration":346115,"SoundDuration":346115,"Delta":85253816},{"NoteNumber":47,"Velocity":23,"Duration":1071971,"SoundDuration":1071971,"Delta":85253816},{"NoteNumber":54,"Velocity":23,"Duration":347913,"SoundDuration":347913,"Delta":85426436},{"NoteNumber":62,"Velocity":25,"Duration":349687,"SoundDuration":349687,"Delta":85599931},{"NoteNumber":66,"Velocity":25,"Duration":349687,"SoundDuration":349687,"Delta":85599931},{"NoteNumber":54,"Velocity":20,"Duration":351436,"SoundDuration":351436,"Delta":85774350},{"NoteNumber":62,"Velocity":23,"Duration":376168,"SoundDuration":376168,"Delta":85949618},{"NoteNumber":66,"Velocity":23,"Duration":376168,"SoundDuration":376168,"Delta":85949618},{"NoteNumber":54,"Velocity":19,"Duration":200000,"SoundDuration":200000,"Delta":86125787},{"NoteNumber":62,"Velocity":82,"Duration":299999,"SoundDuration":299999,"Delta":86325787},{"NoteNumber":38,"Velocity":46,"Duration":299999,"SoundDuration":299999,"Delta":86325787},{"NoteNumber":50,"Velocity":64,"Duration":299999,"SoundDuration":299999,"Delta":86325787},{"NoteNumber":64,"Velocity":78,"Duration":74073,"SoundDuration":74073,"Delta":86625787},{"NoteNumber":40,"Velocity":44,"Duration":74073,"SoundDuration":74073,"Delta":86625787},{"NoteNumber":52,"Velocity":61,"Duration":74073,"SoundDuration":74073,"Delta":86625787},{"NoteNumber":62,"Velocity":75,"Duration":74073,"SoundDuration":74073,"Delta":86773935},{"NoteNumber":38,"Velocity":41,"Duration":74073,"SoundDuration":74073,"Delta":86773935},{"NoteNumber":50,"Velocity":59,"Duration":74073,"SoundDuration":74073,"Delta":86773935},{"NoteNumber":61,"Velocity":79,"Duration":73349,"SoundDuration":73349,"Delta":86922083},{"NoteNumber":37,"Velocity":45,"Duration":73349,"SoundDuration":73349,"Delta":86922083},{"NoteNumber":49,"Velocity":62,"Duration":73349,"SoundDuration":73349,"Delta":86922083},{"NoteNumber":62,"Velocity":73,"Duration":73349,"SoundDuration":73349,"Delta":87068782},{"NoteNumber":38,"Velocity":40,"Duration":73349,"SoundDuration":73349,"Delta":87068782},{"NoteNumber":50,"Velocity":58,"Duration":73349,"SoundDuration":73349,"Delta":87068782},{"NoteNumber":64,"Velocity":81,"Duration":77319,"SoundDuration":77319,"Delta":87215482},{"NoteNumber":40,"Velocity":45,"Duration":77319,"SoundDuration":77319,"Delta":87215482},{"NoteNumber":52,"Velocity":63,"Duration":77319,"SoundDuration":77319,"Delta":87215482},{"NoteNumber":67,"Velocity":75,"Duration":76534,"SoundDuration":76534,"Delta":87524760},{"NoteNumber":43,"Velocity":37,"Duration":76534,"SoundDuration":76534,"Delta":87524760},{"NoteNumber":55,"Velocity":52,"Duration":76534,"SoundDuration":76534,"Delta":87524760},{"NoteNumber":66,"Velocity":73,"Duration":77120,"SoundDuration":77120,"Delta":87829721},{"NoteNumber":42,"Velocity":40,"Duration":77120,"SoundDuration":77120,"Delta":87829721},{"NoteNumber":54,"Velocity":58,"Duration":77120,"SoundDuration":77120,"Delta":87829721},{"NoteNumber":62,"Velocity":82,"Duration":262500,"SoundDuration":262500,"Delta":88138204},{"NoteNumber":38,"Velocity":46,"Duration":262500,"SoundDuration":262500,"Delta":88138204},{"NoteNumber":50,"Velocity":64,"Duration":262500,"SoundDuration":262500,"Delta":88138204},{"NoteNumber":66,"Velocity":71,"Duration":37499,"SoundDuration":37499,"Delta":88400704},{"NoteNumber":42,"Velocity":39,"Duration":37499,"SoundDuration":37499,"Delta":88400704},{"NoteNumber":54,"Velocity":56,"Duration":37499,"SoundDuration":37499,"Delta":88400704},{"NoteNumber":64,"Velocity":75,"Duration":73710,"SoundDuration":73710,"Delta":88438204},{"NoteNumber":40,"Velocity":42,"Duration":73710,"SoundDuration":73710,"Delta":88438204},{"NoteNumber":52,"Velocity":59,"Duration":73710,"SoundDuration":73710,"Delta":88438204},{"NoteNumber":62,"Velocity":73,"Duration":73710,"SoundDuration":73710,"Delta":88585624},{"NoteNumber":38,"Velocity":40,"Duration":73710,"SoundDuration":73710,"Delta":88585624},{"NoteNumber":50,"Velocity":57,"Duration":73710,"SoundDuration":73710,"Delta":88585624},{"NoteNumber":61,"Velocity":77,"Duration":73170,"SoundDuration":73170,"Delta":88733044},{"NoteNumber":37,"Velocity":44,"Duration":73170,"SoundDuration":73170,"Delta":88733044},{"NoteNumber":49,"Velocity":60,"Duration":73170,"SoundDuration":73170,"Delta":88733044},{"NoteNumber":62,"Velocity":71,"Duration":73170,"SoundDuration":73170,"Delta":88879386},{"NoteNumber":38,"Velocity":39,"Duration":73170,"SoundDuration":73170,"Delta":88879386},{"NoteNumber":50,"Velocity":56,"Duration":73170,"SoundDuration":73170,"Delta":88879386},{"NoteNumber":64,"Velocity":80,"Duration":77319,"SoundDuration":77319,"Delta":89025727},{"NoteNumber":40,"Velocity":45,"Duration":77319,"SoundDuration":77319,"Delta":89025727},{"NoteNumber":52,"Velocity":63,"Duration":77319,"SoundDuration":77319,"Delta":89025727},{"NoteNumber":67,"Velocity":74,"Duration":76142,"SoundDuration":76142,"Delta":89335005},{"NoteNumber":43,"Velocity":37,"Duration":76142,"SoundDuration":76142,"Delta":89335005},{"NoteNumber":55,"Velocity":52,"Duration":76142,"SoundDuration":76142,"Delta":89335005},{"NoteNumber":66,"Velocity":73,"Duration":76726,"SoundDuration":76726,"Delta":89639574},{"NoteNumber":42,"Velocity":40,"Duration":76726,"SoundDuration":76726,"Delta":89639574},{"NoteNumber":54,"Velocity":58,"Duration":76726,"SoundDuration":76726,"Delta":89639574},{"NoteNumber":62,"Velocity":80,"Duration":299999,"SoundDuration":299999,"Delta":89946479},{"NoteNumber":38,"Velocity":59,"Duration":299999,"SoundDuration":299999,"Delta":89946479},{"NoteNumber":50,"Velocity":63,"Duration":299999,"SoundDuration":299999,"Delta":89946479},{"NoteNumber":64,"Velocity":73,"Duration":147783,"SoundDuration":147783,"Delta":90246479},{"NoteNumber":52,"Velocity":58,"Duration":147783,"SoundDuration":147783,"Delta":90246479},{"NoteNumber":66,"Velocity":74,"Duration":147783,"SoundDuration":147783,"Delta":90394263},{"NoteNumber":54,"Velocity":59,"Duration":147783,"SoundDuration":147783,"Delta":90394263},{"NoteNumber":69,"Velocity":77,"Duration":146341,"SoundDuration":146341,"Delta":90542046},{"NoteNumber":57,"Velocity":60,"Duration":146341,"SoundDuration":146341,"Delta":90542046},{"NoteNumber":72,"Velocity":78,"Duration":146341,"SoundDuration":146341,"Delta":90688388},{"NoteNumber":60,"Velocity":61,"Duration":146341,"SoundDuration":146341,"Delta":90688388},{"NoteNumber":76,"Velocity":79,"Duration":296295,"SoundDuration":296295,"Delta":90834729},{"NoteNumber":64,"Velocity":62,"Duration":296295,"SoundDuration":296295,"Delta":90834729},{"NoteNumber":79,"Velocity":78,"Duration":296295,"SoundDuration":296295,"Delta":91131025},{"NoteNumber":67,"Velocity":61,"Duration":296295,"SoundDuration":296295,"Delta":91131025},{"NoteNumber":78,"Velocity":78,"Duration":304569,"SoundDuration":304569,"Delta":91427321},{"NoteNumber":66,"Velocity":60,"Duration":304569,"SoundDuration":304569,"Delta":91427321},{"NoteNumber":62,"Velocity":60,"Duration":297766,"SoundDuration":297766,"Delta":91731890},{"NoteNumber":66,"Velocity":60,"Duration":297766,"SoundDuration":297766,"Delta":91731890},{"NoteNumber":78,"Velocity":79,"Duration":297766,"SoundDuration":297766,"Delta":91731890},{"NoteNumber":59,"Velocity":57,"Duration":894796,"SoundDuration":894796,"Delta":91731890},{"NoteNumber":55,"Velocity":55,"Duration":894796,"SoundDuration":894796,"Delta":91731890},{"NoteNumber":67,"Velocity":57,"Duration":148515,"SoundDuration":148515,"Delta":92029657},{"NoteNumber":79,"Velocity":72,"Duration":148515,"SoundDuration":148515,"Delta":92029657},{"NoteNumber":66,"Velocity":57,"Duration":148515,"SoundDuration":148515,"Delta":92178172},{"NoteNumber":78,"Velocity":72,"Duration":148515,"SoundDuration":148515,"Delta":92178172},{"NoteNumber":64,"Velocity":56,"Duration":150000,"SoundDuration":150000,"Delta":92326687},{"NoteNumber":76,"Velocity":71,"Duration":150000,"SoundDuration":150000,"Delta":92326687},{"NoteNumber":62,"Velocity":56,"Duration":149999,"SoundDuration":149999,"Delta":92476687},{"NoteNumber":74,"Velocity":71,"Duration":149999,"SoundDuration":149999,"Delta":92476687},{"NoteNumber":67,"Velocity":70,"Duration":264483,"SoundDuration":264483,"Delta":92626687},{"NoteNumber":73,"Velocity":77,"Duration":264483,"SoundDuration":264483,"Delta":92626687},{"NoteNumber":55,"Velocity":58,"Duration":264483,"SoundDuration":264483,"Delta":92626687},{"NoteNumber":57,"Velocity":58,"Duration":264483,"SoundDuration":264483,"Delta":92626687},{"NoteNumber":61,"Velocity":60,"Duration":264483,"SoundDuration":264483,"Delta":92626687},{"NoteNumber":74,"Velocity":64,"Duration":37783,"SoundDuration":37783,"Delta":92891171},{"NoteNumber":73,"Velocity":73,"Duration":148148,"SoundDuration":148148,"Delta":92928954},{"NoteNumber":61,"Velocity":58,"Duration":148148,"SoundDuration":148148,"Delta":92928954},{"NoteNumber":69,"Velocity":67,"Duration":148147,"SoundDuration":148147,"Delta":93077102},{"NoteNumber":57,"Velocity":53,"Duration":148147,"SoundDuration":148147,"Delta":93077102},{"NoteNumber":71,"Velocity":72,"Duration":150000,"SoundDuration":150000,"Delta":93225250},{"NoteNumber":59,"Velocity":57,"Duration":150000,"SoundDuration":150000,"Delta":93225250},{"NoteNumber":73,"Velocity":69,"Duration":149999,"SoundDuration":149999,"Delta":93375250},{"NoteNumber":61,"Velocity":55,"Duration":149999,"SoundDuration":149999,"Delta":93375250},{"NoteNumber":66,"Velocity":74,"Duration":305344,"SoundDuration":305344,"Delta":93525250},{"NoteNumber":74,"Velocity":74,"Duration":305344,"SoundDuration":305344,"Delta":93525250},{"NoteNumber":54,"Velocity":59,"Duration":305344,"SoundDuration":305344,"Delta":93525250},{"NoteNumber":57,"Velocity":59,"Duration":305344,"SoundDuration":305344,"Delta":93525250},{"NoteNumber":62,"Velocity":59,"Duration":305344,"SoundDuration":305344,"Delta":93525250},{"NoteNumber":64,"Velocity":78,"Duration":74073,"SoundDuration":74073,"Delta":93830594},{"NoteNumber":52,"Velocity":61,"Duration":74073,"SoundDuration":74073,"Delta":93830594},{"NoteNumber":40,"Velocity":44,"Duration":74073,"SoundDuration":74073,"Delta":93830594},{"NoteNumber":62,"Velocity":75,"Duration":74073,"SoundDuration":74073,"Delta":93978742},{"NoteNumber":38,"Velocity":41,"Duration":74073,"SoundDuration":74073,"Delta":93978742},{"NoteNumber":50,"Velocity":59,"Duration":74073,"SoundDuration":74073,"Delta":93978742},{"NoteNumber":61,"Velocity":79,"Duration":73529,"SoundDuration":73529,"Delta":94126890},{"NoteNumber":37,"Velocity":45,"Duration":73529,"SoundDuration":73529,"Delta":94126890},{"NoteNumber":49,"Velocity":62,"Duration":73529,"SoundDuration":73529,"Delta":94126890},{"NoteNumber":62,"Velocity":73,"Duration":73529,"SoundDuration":73529,"Delta":94273949},{"NoteNumber":38,"Velocity":40,"Duration":73529,"SoundDuration":73529,"Delta":94273949},{"NoteNumber":50,"Velocity":58,"Duration":73529,"SoundDuration":73529,"Delta":94273949},{"NoteNumber":64,"Velocity":81,"Duration":77922,"SoundDuration":77922,"Delta":94421008},{"NoteNumber":40,"Velocity":45,"Duration":77922,"SoundDuration":77922,"Delta":94421008},{"NoteNumber":52,"Velocity":63,"Duration":77922,"SoundDuration":77922,"Delta":94421008},{"NoteNumber":67,"Velocity":74,"Duration":76142,"SoundDuration":76142,"Delta":94732696},{"NoteNumber":43,"Velocity":37,"Duration":76142,"SoundDuration":76142,"Delta":94732696},{"NoteNumber":55,"Velocity":52,"Duration":76142,"SoundDuration":76142,"Delta":94732696},{"NoteNumber":66,"Velocity":73,"Duration":76922,"SoundDuration":76922,"Delta":95037265},{"NoteNumber":42,"Velocity":40,"Duration":76922,"SoundDuration":76922,"Delta":95037265},{"NoteNumber":54,"Velocity":58,"Duration":76922,"SoundDuration":76922,"Delta":95037265},{"NoteNumber":62,"Velocity":82,"Duration":262500,"SoundDuration":262500,"Delta":95344957},{"NoteNumber":38,"Velocity":46,"Duration":262500,"SoundDuration":262500,"Delta":95344957},{"NoteNumber":50,"Velocity":64,"Duration":262500,"SoundDuration":262500,"Delta":95344957},{"NoteNumber":66,"Velocity":71,"Duration":37499,"SoundDuration":37499,"Delta":95607457},{"NoteNumber":42,"Velocity":39,"Duration":37499,"SoundDuration":37499,"Delta":95607457},{"NoteNumber":54,"Velocity":56,"Duration":37499,"SoundDuration":37499,"Delta":95607457},{"NoteNumber":64,"Velocity":75,"Duration":73710,"SoundDuration":73710,"Delta":95644957},{"NoteNumber":40,"Velocity":42,"Duration":73710,"SoundDuration":73710,"Delta":95644957},{"NoteNumber":52,"Velocity":59,"Duration":73710,"SoundDuration":73710,"Delta":95644957},{"NoteNumber":62,"Velocity":73,"Duration":73710,"SoundDuration":73710,"Delta":95792377},{"NoteNumber":38,"Velocity":40,"Duration":73710,"SoundDuration":73710,"Delta":95792377},{"NoteNumber":50,"Velocity":57,"Duration":73710,"SoundDuration":73710,"Delta":95792377},{"NoteNumber":61,"Velocity":77,"Duration":73170,"SoundDuration":73170,"Delta":95939797},{"NoteNumber":37,"Velocity":44,"Duration":73170,"SoundDuration":73170,"Delta":95939797},{"NoteNumber":49,"Velocity":60,"Duration":73170,"SoundDuration":73170,"Delta":95939797},{"NoteNumber":62,"Velocity":71,"Duration":73170,"SoundDuration":73170,"Delta":96086139},{"NoteNumber":38,"Velocity":39,"Duration":73170,"SoundDuration":73170,"Delta":96086139},{"NoteNumber":50,"Velocity":56,"Duration":73170,"SoundDuration":73170,"Delta":96086139},{"NoteNumber":64,"Velocity":80,"Duration":77720,"SoundDuration":77720,"Delta":96232480},{"NoteNumber":40,"Velocity":45,"Duration":77720,"SoundDuration":77720,"Delta":96232480},{"NoteNumber":52,"Velocity":63,"Duration":77720,"SoundDuration":77720,"Delta":96232480},{"NoteNumber":67,"Velocity":74,"Duration":76335,"SoundDuration":76335,"Delta":96543361},{"NoteNumber":43,"Velocity":37,"Duration":76335,"SoundDuration":76335,"Delta":96543361},{"NoteNumber":55,"Velocity":52,"Duration":76335,"SoundDuration":76335,"Delta":96543361},{"NoteNumber":66,"Velocity":73,"Duration":75949,"SoundDuration":75949,"Delta":96848705},{"NoteNumber":42,"Velocity":40,"Duration":75949,"SoundDuration":75949,"Delta":96848705},{"NoteNumber":54,"Velocity":58,"Duration":75949,"SoundDuration":75949,"Delta":96848705},{"NoteNumber":62,"Velocity":80,"Duration":299999,"SoundDuration":299999,"Delta":97152502},{"NoteNumber":38,"Velocity":59,"Duration":299999,"SoundDuration":299999,"Delta":97152502},{"NoteNumber":50,"Velocity":63,"Duration":299999,"SoundDuration":299999,"Delta":97152502},{"NoteNumber":64,"Velocity":73,"Duration":147419,"SoundDuration":147419,"Delta":97452502},{"NoteNumber":52,"Velocity":58,"Duration":147419,"SoundDuration":147419,"Delta":97452502},{"NoteNumber":66,"Velocity":74,"Duration":147419,"SoundDuration":147419,"Delta":97599922},{"NoteNumber":54,"Velocity":59,"Duration":147419,"SoundDuration":147419,"Delta":97599922},{"NoteNumber":69,"Velocity":77,"Duration":145630,"SoundDuration":145630,"Delta":97747342},{"NoteNumber":57,"Velocity":60,"Duration":145630,"SoundDuration":145630,"Delta":97747342},{"NoteNumber":72,"Velocity":78,"Duration":145631,"SoundDuration":145631,"Delta":97892973},{"NoteNumber":60,"Velocity":61,"Duration":145631,"SoundDuration":145631,"Delta":97892973},{"NoteNumber":76,"Velocity":79,"Duration":296295,"SoundDuration":296295,"Delta":98038604},{"NoteNumber":64,"Velocity":62,"Duration":296295,"SoundDuration":296295,"Delta":98038604},{"NoteNumber":79,"Velocity":78,"Duration":296295,"SoundDuration":296295,"Delta":98334900},{"NoteNumber":67,"Velocity":61,"Duration":296295,"SoundDuration":296295,"Delta":98334900},{"NoteNumber":78,"Velocity":78,"Duration":304569,"SoundDuration":304569,"Delta":98631196},{"NoteNumber":66,"Velocity":60,"Duration":304569,"SoundDuration":304569,"Delta":98631196},{"NoteNumber":62,"Velocity":60,"Duration":297766,"SoundDuration":297766,"Delta":98935765},{"NoteNumber":66,"Velocity":60,"Duration":297766,"SoundDuration":297766,"Delta":98935765},{"NoteNumber":78,"Velocity":79,"Duration":297766,"SoundDuration":297766,"Delta":98935765},{"NoteNumber":59,"Velocity":57,"Duration":894796,"SoundDuration":894796,"Delta":98935765},{"NoteNumber":55,"Velocity":55,"Duration":894796,"SoundDuration":894796,"Delta":98935765},{"NoteNumber":67,"Velocity":57,"Duration":148515,"SoundDuration":148515,"Delta":99233532},{"NoteNumber":79,"Velocity":72,"Duration":148515,"SoundDuration":148515,"Delta":99233532},{"NoteNumber":66,"Velocity":57,"Duration":148515,"SoundDuration":148515,"Delta":99382047},{"NoteNumber":78,"Velocity":72,"Duration":148515,"SoundDuration":148515,"Delta":99382047},{"NoteNumber":64,"Velocity":56,"Duration":150000,"SoundDuration":150000,"Delta":99530562},{"NoteNumber":76,"Velocity":71,"Duration":150000,"SoundDuration":150000,"Delta":99530562},{"NoteNumber":62,"Velocity":56,"Duration":149999,"SoundDuration":149999,"Delta":99680562},{"NoteNumber":74,"Velocity":71,"Duration":149999,"SoundDuration":149999,"Delta":99680562},{"NoteNumber":67,"Velocity":68,"Duration":264483,"SoundDuration":264483,"Delta":99830562},{"NoteNumber":73,"Velocity":77,"Duration":264483,"SoundDuration":264483,"Delta":99830562},{"NoteNumber":55,"Velocity":58,"Duration":264483,"SoundDuration":264483,"Delta":99830562},{"NoteNumber":57,"Velocity":58,"Duration":264483,"SoundDuration":264483,"Delta":99830562},{"NoteNumber":61,"Velocity":60,"Duration":264483,"SoundDuration":264483,"Delta":99830562},{"NoteNumber":74,"Velocity":64,"Duration":37783,"SoundDuration":37783,"Delta":100095046},{"NoteNumber":73,"Velocity":73,"Duration":148148,"SoundDuration":148148,"Delta":100132829},{"NoteNumber":61,"Velocity":58,"Duration":148148,"SoundDuration":148148,"Delta":100132829},{"NoteNumber":69,"Velocity":67,"Duration":148147,"SoundDuration":148147,"Delta":100280977},{"NoteNumber":57,"Velocity":53,"Duration":148147,"SoundDuration":148147,"Delta":100280977},{"NoteNumber":71,"Velocity":72,"Duration":150000,"SoundDuration":150000,"Delta":100429125},{"NoteNumber":59,"Velocity":57,"Duration":150000,"SoundDuration":150000,"Delta":100429125},{"NoteNumber":73,"Velocity":69,"Duration":149999,"SoundDuration":149999,"Delta":100579125},{"NoteNumber":61,"Velocity":55,"Duration":149999,"SoundDuration":149999,"Delta":100579125},{"NoteNumber":66,"Velocity":74,"Duration":266497,"SoundDuration":266497,"Delta":100729125},{"NoteNumber":74,"Velocity":74,"Duration":266497,"SoundDuration":266497,"Delta":100729125},{"NoteNumber":54,"Velocity":59,"Duration":304569,"SoundDuration":304569,"Delta":100729125},{"NoteNumber":57,"Velocity":59,"Duration":304569,"SoundDuration":304569,"Delta":100729125},{"NoteNumber":62,"Velocity":59,"Duration":304569,"SoundDuration":304569,"Delta":100729125},{"NoteNumber":64,"Velocity":73,"Duration":38071,"SoundDuration":38071,"Delta":100995623},{"NoteNumber":62,"Velocity":78,"Duration":74073,"SoundDuration":74073,"Delta":101033694},{"NoteNumber":50,"Velocity":61,"Duration":74073,"SoundDuration":74073,"Delta":101033694},{"NoteNumber":38,"Velocity":44,"Duration":74073,"SoundDuration":74073,"Delta":101033694},{"NoteNumber":61,"Velocity":75,"Duration":74073,"SoundDuration":74073,"Delta":101181842},{"NoteNumber":37,"Velocity":41,"Duration":74073,"SoundDuration":74073,"Delta":101181842},{"NoteNumber":49,"Velocity":59,"Duration":74073,"SoundDuration":74073,"Delta":101181842},{"NoteNumber":62,"Velocity":79,"Duration":74073,"SoundDuration":74073,"Delta":101329990},{"NoteNumber":38,"Velocity":45,"Duration":74073,"SoundDuration":74073,"Delta":101329990},{"NoteNumber":50,"Velocity":62,"Duration":74073,"SoundDuration":74073,"Delta":101329990},{"NoteNumber":62,"Velocity":74,"Duration":75000,"SoundDuration":75000,"Delta":101626286},{"NoteNumber":38,"Velocity":52,"Duration":75000,"SoundDuration":75000,"Delta":101626286},{"NoteNumber":50,"Velocity":59,"Duration":75000,"SoundDuration":75000,"Delta":101626286},{"NoteNumber":69,"Velocity":78,"Duration":74073,"SoundDuration":74073,"Delta":101926286},{"NoteNumber":57,"Velocity":61,"Duration":74073,"SoundDuration":74073,"Delta":101926286},{"NoteNumber":45,"Velocity":44,"Duration":74073,"SoundDuration":74073,"Delta":101926286},{"NoteNumber":66,"Velocity":75,"Duration":74073,"SoundDuration":74073,"Delta":102074434},{"NoteNumber":42,"Velocity":41,"Duration":74073,"SoundDuration":74073,"Delta":102074434},{"NoteNumber":54,"Velocity":59,"Duration":74073,"SoundDuration":74073,"Delta":102074434},{"NoteNumber":62,"Velocity":79,"Duration":75000,"SoundDuration":75000,"Delta":102222582},{"NoteNumber":38,"Velocity":45,"Duration":75000,"SoundDuration":75000,"Delta":102222582},{"NoteNumber":50,"Velocity":62,"Duration":75000,"SoundDuration":75000,"Delta":102222582},{"NoteNumber":76,"Velocity":64,"Duration":37499,"SoundDuration":37499,"Delta":102485082},{"NoteNumber":74,"Velocity":55,"Duration":75000,"SoundDuration":75000,"Delta":102522582},{"NoteNumber":86,"Velocity":64,"Duration":75000,"SoundDuration":75000,"Delta":102522582},{"NoteNumber":60,"Velocity":46,"Duration":75000,"SoundDuration":75000,"Delta":102522582},{"NoteNumber":62,"Velocity":46,"Duration":75000,"SoundDuration":75000,"Delta":102522582},{"NoteNumber":66,"Velocity":46,"Duration":75000,"SoundDuration":75000,"Delta":102522582},{"NoteNumber":69,"Velocity":46,"Duration":75000,"SoundDuration":75000,"Delta":102522582},{"NoteNumber":73,"Velocity":50,"Duration":75000,"SoundDuration":75000,"Delta":102672582},{"NoteNumber":85,"Velocity":60,"Duration":75000,"SoundDuration":75000,"Delta":102672582},{"NoteNumber":60,"Velocity":42,"Duration":75000,"SoundDuration":75000,"Delta":102672582},{"NoteNumber":62,"Velocity":42,"Duration":75000,"SoundDuration":75000,"Delta":102672582},{"NoteNumber":66,"Velocity":42,"Duration":75000,"SoundDuration":75000,"Delta":102672582},{"NoteNumber":69,"Velocity":42,"Duration":75000,"SoundDuration":75000,"Delta":102672582},{"NoteNumber":74,"Velocity":53,"Duration":75566,"SoundDuration":75566,"Delta":102822582},{"NoteNumber":86,"Velocity":63,"Duration":75566,"SoundDuration":75566,"Delta":102822582},{"NoteNumber":60,"Velocity":45,"Duration":75566,"SoundDuration":75566,"Delta":102822582},{"NoteNumber":62,"Velocity":45,"Duration":75566,"SoundDuration":75566,"Delta":102822582},{"NoteNumber":66,"Velocity":45,"Duration":75566,"SoundDuration":75566,"Delta":102822582},{"NoteNumber":69,"Velocity":45,"Duration":75566,"SoundDuration":75566,"Delta":102822582},{"NoteNumber":74,"Velocity":52,"Duration":75000,"SoundDuration":75000,"Delta":103124849},{"NoteNumber":86,"Velocity":62,"Duration":75000,"SoundDuration":75000,"Delta":103124849},{"NoteNumber":60,"Velocity":44,"Duration":75000,"SoundDuration":75000,"Delta":103124849},{"NoteNumber":62,"Velocity":44,"Duration":75000,"SoundDuration":75000,"Delta":103124849},{"NoteNumber":66,"Velocity":44,"Duration":75000,"SoundDuration":75000,"Delta":103124849},{"NoteNumber":69,"Velocity":44,"Duration":75000,"SoundDuration":75000,"Delta":103124849},{"NoteNumber":73,"Velocity":49,"Duration":74999,"SoundDuration":74999,"Delta":103274849},{"NoteNumber":85,"Velocity":59,"Duration":74999,"SoundDuration":74999,"Delta":103274849},{"NoteNumber":60,"Velocity":41,"Duration":74999,"SoundDuration":74999,"Delta":103274849},{"NoteNumber":62,"Velocity":41,"Duration":74999,"SoundDuration":74999,"Delta":103274849},{"NoteNumber":66,"Velocity":41,"Duration":74999,"SoundDuration":74999,"Delta":103274849},{"NoteNumber":69,"Velocity":41,"Duration":74999,"SoundDuration":74999,"Delta":103274849},{"NoteNumber":74,"Velocity":52,"Duration":75000,"SoundDuration":75000,"Delta":103424849},{"NoteNumber":86,"Velocity":62,"Duration":75000,"SoundDuration":75000,"Delta":103424849},{"NoteNumber":59,"Velocity":44,"Duration":75000,"SoundDuration":75000,"Delta":103424849},{"NoteNumber":62,"Velocity":44,"Duration":75000,"SoundDuration":75000,"Delta":103424849},{"NoteNumber":67,"Velocity":44,"Duration":75000,"SoundDuration":75000,"Delta":103424849},{"NoteNumber":71,"Velocity":44,"Duration":75000,"SoundDuration":75000,"Delta":103424849},{"NoteNumber":83,"Velocity":59,"Duration":150000,"SoundDuration":150000,"Delta":103724849},{"NoteNumber":59,"Velocity":41,"Duration":150000,"SoundDuration":150000,"Delta":103724849},{"NoteNumber":62,"Velocity":41,"Duration":150000,"SoundDuration":150000,"Delta":103724849},{"NoteNumber":67,"Velocity":49,"Duration":150000,"SoundDuration":150000,"Delta":103724849},{"NoteNumber":71,"Velocity":49,"Duration":150000,"SoundDuration":150000,"Delta":103724849},{"NoteNumber":79,"Velocity":56,"Duration":150000,"SoundDuration":150000,"Delta":103874849},{"NoteNumber":59,"Velocity":39,"Duration":150000,"SoundDuration":150000,"Delta":103874849},{"NoteNumber":62,"Velocity":39,"Duration":150000,"SoundDuration":150000,"Delta":103874849},{"NoteNumber":67,"Velocity":47,"Duration":150000,"SoundDuration":150000,"Delta":103874849},{"NoteNumber":71,"Velocity":47,"Duration":150000,"SoundDuration":150000,"Delta":103874849},{"NoteNumber":74,"Velocity":59,"Duration":231362,"SoundDuration":231362,"Delta":104024849},{"NoteNumber":59,"Velocity":41,"Duration":231362,"SoundDuration":231362,"Delta":104024849},{"NoteNumber":62,"Velocity":41,"Duration":231362,"SoundDuration":231362,"Delta":104024849},{"NoteNumber":67,"Velocity":49,"Duration":231362,"SoundDuration":231362,"Delta":104024849},{"NoteNumber":71,"Velocity":49,"Duration":231362,"SoundDuration":231362,"Delta":104024849},{"NoteNumber":74,"Velocity":59,"Duration":151898,"SoundDuration":151898,"Delta":104333332},{"NoteNumber":58,"Velocity":53,"Duration":905778,"SoundDuration":905778,"Delta":104333332},{"NoteNumber":67,"Velocity":53,"Duration":905778,"SoundDuration":905778,"Delta":104333332},{"NoteNumber":76,"Velocity":59,"Duration":153846,"SoundDuration":153846,"Delta":104485231},{"NoteNumber":77,"Velocity":63,"Duration":223325,"SoundDuration":223325,"Delta":104639077},{"NoteNumber":62,"Velocity":53,"Duration":600033,"SoundDuration":600033,"Delta":104639077},{"NoteNumber":76,"Velocity":52,"Duration":37220,"SoundDuration":37220,"Delta":104862402},{"NoteNumber":77,"Velocity":49,"Duration":37220,"SoundDuration":37220,"Delta":104899623},{"NoteNumber":76,"Velocity":59,"Duration":151133,"SoundDuration":151133,"Delta":104936844},{"NoteNumber":64,"Velocity":48,"Duration":151133,"SoundDuration":151133,"Delta":104936844},{"NoteNumber":74,"Velocity":59,"Duration":151133,"SoundDuration":151133,"Delta":105087977},{"NoteNumber":65,"Velocity":49,"Duration":151133,"SoundDuration":151133,"Delta":105087977},{"NoteNumber":72,"Velocity":58,"Duration":76922,"SoundDuration":76922,"Delta":105239111},{"NoteNumber":57,"Velocity":56,"Duration":76922,"SoundDuration":76922,"Delta":105239111},{"NoteNumber":62,"Velocity":56,"Duration":76922,"SoundDuration":76922,"Delta":105239111},{"NoteNumber":66,"Velocity":56,"Duration":76922,"SoundDuration":76922,"Delta":105239111},{"NoteNumber":81,"Velocity":63,"Duration":150754,"SoundDuration":150754,"Delta":105546803},{"NoteNumber":50,"Velocity":59,"Duration":75377,"SoundDuration":75377,"Delta":105546803},{"NoteNumber":78,"Velocity":57,"Duration":150753,"SoundDuration":150753,"Delta":105697557},{"NoteNumber":72,"Velocity":59,"Duration":76530,"SoundDuration":76530,"Delta":105848311},{"NoteNumber":57,"Velocity":52,"Duration":76530,"SoundDuration":76530,"Delta":105848311},{"NoteNumber":62,"Velocity":52,"Duration":76530,"SoundDuration":76530,"Delta":105848311},{"NoteNumber":66,"Velocity":52,"Duration":76530,"SoundDuration":76530,"Delta":105848311},{"NoteNumber":70,"Velocity":59,"Duration":76530,"SoundDuration":76530,"Delta":106154433},{"NoteNumber":58,"Velocity":55,"Duration":76530,"SoundDuration":76530,"Delta":106154433},{"NoteNumber":62,"Velocity":55,"Duration":76530,"SoundDuration":76530,"Delta":106154433},{"NoteNumber":67,"Velocity":55,"Duration":76530,"SoundDuration":76530,"Delta":106154433},{"NoteNumber":79,"Velocity":63,"Duration":151133,"SoundDuration":151133,"Delta":106460555},{"NoteNumber":50,"Velocity":59,"Duration":75566,"SoundDuration":75566,"Delta":106460555},{"NoteNumber":74,"Velocity":57,"Duration":151133,"SoundDuration":151133,"Delta":106611688},{"NoteNumber":70,"Velocity":59,"Duration":76335,"SoundDuration":76335,"Delta":106762822},{"NoteNumber":58,"Velocity":51,"Duration":76335,"SoundDuration":76335,"Delta":106762822},{"NoteNumber":62,"Velocity":51,"Duration":76335,"SoundDuration":76335,"Delta":106762822},{"NoteNumber":67,"Velocity":51,"Duration":76335,"SoundDuration":76335,"Delta":106762822},{"NoteNumber":69,"Velocity":59,"Duration":924003,"SoundDuration":924003,"Delta":107068166},{"NoteNumber":62,"Velocity":55,"Duration":76335,"SoundDuration":76335,"Delta":107068166},{"NoteNumber":66,"Velocity":55,"Duration":76335,"SoundDuration":76335,"Delta":107068166},{"NoteNumber":42,"Velocity":61,"Duration":76335,"SoundDuration":76335,"Delta":107373510},{"NoteNumber":54,"Velocity":61,"Duration":76335,"SoundDuration":76335,"Delta":107373510},{"NoteNumber":40,"Velocity":57,"Duration":76335,"SoundDuration":76335,"Delta":107526182},{"NoteNumber":52,"Velocity":57,"Duration":76335,"SoundDuration":76335,"Delta":107526182},{"NoteNumber":38,"Velocity":62,"Duration":78328,"SoundDuration":78328,"Delta":107678854},{"NoteNumber":50,"Velocity":62,"Duration":78328,"SoundDuration":78328,"Delta":107678854},{"NoteNumber":66,"Velocity":74,"Duration":266497,"SoundDuration":266497,"Delta":107992170},{"NoteNumber":74,"Velocity":74,"Duration":266497,"SoundDuration":266497,"Delta":107992170},{"NoteNumber":54,"Velocity":59,"Duration":304569,"SoundDuration":304569,"Delta":107992170},{"NoteNumber":57,"Velocity":59,"Duration":304569,"SoundDuration":304569,"Delta":107992170},{"NoteNumber":62,"Velocity":59,"Duration":304569,"SoundDuration":304569,"Delta":107992170},{"NoteNumber":64,"Velocity":73,"Duration":38071,"SoundDuration":38071,"Delta":108258668},{"NoteNumber":62,"Velocity":78,"Duration":74073,"SoundDuration":74073,"Delta":108296739},{"NoteNumber":50,"Velocity":61,"Duration":74073,"SoundDuration":74073,"Delta":108296739},{"NoteNumber":38,"Velocity":44,"Duration":74073,"SoundDuration":74073,"Delta":108296739},{"NoteNumber":61,"Velocity":75,"Duration":74073,"SoundDuration":74073,"Delta":108444887},{"NoteNumber":37,"Velocity":41,"Duration":74073,"SoundDuration":74073,"Delta":108444887},{"NoteNumber":49,"Velocity":59,"Duration":74073,"SoundDuration":74073,"Delta":108444887},{"NoteNumber":62,"Velocity":79,"Duration":74073,"SoundDuration":74073,"Delta":108593035},{"NoteNumber":38,"Velocity":45,"Duration":74073,"SoundDuration":74073,"Delta":108593035},{"NoteNumber":50,"Velocity":62,"Duration":74073,"SoundDuration":74073,"Delta":108593035},{"NoteNumber":62,"Velocity":74,"Duration":75000,"SoundDuration":75000,"Delta":108889331},{"NoteNumber":38,"Velocity":52,"Duration":75000,"SoundDuration":75000,"Delta":108889331},{"NoteNumber":50,"Velocity":59,"Duration":75000,"SoundDuration":75000,"Delta":108889331},{"NoteNumber":69,"Velocity":78,"Duration":74073,"SoundDuration":74073,"Delta":109189331},{"NoteNumber":57,"Velocity":61,"Duration":74073,"SoundDuration":74073,"Delta":109189331},{"NoteNumber":45,"Velocity":44,"Duration":74073,"SoundDuration":74073,"Delta":109189331},{"NoteNumber":66,"Velocity":75,"Duration":74073,"SoundDuration":74073,"Delta":109337479},{"NoteNumber":42,"Velocity":41,"Duration":74073,"SoundDuration":74073,"Delta":109337479},{"NoteNumber":54,"Velocity":59,"Duration":74073,"SoundDuration":74073,"Delta":109337479},{"NoteNumber":62,"Velocity":79,"Duration":75000,"SoundDuration":75000,"Delta":109485627},{"NoteNumber":38,"Velocity":45,"Duration":75000,"SoundDuration":75000,"Delta":109485627},{"NoteNumber":50,"Velocity":62,"Duration":75000,"SoundDuration":75000,"Delta":109485627},{"NoteNumber":76,"Velocity":64,"Duration":37499,"SoundDuration":37499,"Delta":109748127},{"NoteNumber":74,"Velocity":55,"Duration":75000,"SoundDuration":75000,"Delta":109785627},{"NoteNumber":86,"Velocity":64,"Duration":75000,"SoundDuration":75000,"Delta":109785627},{"NoteNumber":60,"Velocity":46,"Duration":75000,"SoundDuration":75000,"Delta":109785627},{"NoteNumber":62,"Velocity":46,"Duration":75000,"SoundDuration":75000,"Delta":109785627},{"NoteNumber":66,"Velocity":46,"Duration":75000,"SoundDuration":75000,"Delta":109785627},{"NoteNumber":69,"Velocity":46,"Duration":75000,"SoundDuration":75000,"Delta":109785627},{"NoteNumber":73,"Velocity":50,"Duration":75000,"SoundDuration":75000,"Delta":109935627},{"NoteNumber":85,"Velocity":60,"Duration":75000,"SoundDuration":75000,"Delta":109935627},{"NoteNumber":60,"Velocity":42,"Duration":75000,"SoundDuration":75000,"Delta":109935627},{"NoteNumber":62,"Velocity":42,"Duration":75000,"SoundDuration":75000,"Delta":109935627},{"NoteNumber":66,"Velocity":42,"Duration":75000,"SoundDuration":75000,"Delta":109935627},{"NoteNumber":69,"Velocity":42,"Duration":75000,"SoundDuration":75000,"Delta":109935627},{"NoteNumber":74,"Velocity":53,"Duration":75566,"SoundDuration":75566,"Delta":110085627},{"NoteNumber":86,"Velocity":63,"Duration":75566,"SoundDuration":75566,"Delta":110085627},{"NoteNumber":60,"Velocity":45,"Duration":75566,"SoundDuration":75566,"Delta":110085627},{"NoteNumber":62,"Velocity":45,"Duration":75566,"SoundDuration":75566,"Delta":110085627},{"NoteNumber":66,"Velocity":45,"Duration":75566,"SoundDuration":75566,"Delta":110085627},{"NoteNumber":69,"Velocity":45,"Duration":75566,"SoundDuration":75566,"Delta":110085627},{"NoteNumber":74,"Velocity":52,"Duration":75000,"SoundDuration":75000,"Delta":110387894},{"NoteNumber":86,"Velocity":62,"Duration":75000,"SoundDuration":75000,"Delta":110387894},{"NoteNumber":60,"Velocity":44,"Duration":75000,"SoundDuration":75000,"Delta":110387894},{"NoteNumber":62,"Velocity":44,"Duration":75000,"SoundDuration":75000,"Delta":110387894},{"NoteNumber":66,"Velocity":44,"Duration":75000,"SoundDuration":75000,"Delta":110387894},{"NoteNumber":69,"Velocity":44,"Duration":75000,"SoundDuration":75000,"Delta":110387894},{"NoteNumber":73,"Velocity":49,"Duration":74999,"SoundDuration":74999,"Delta":110537894},{"NoteNumber":85,"Velocity":59,"Duration":74999,"SoundDuration":74999,"Delta":110537894},{"NoteNumber":60,"Velocity":41,"Duration":74999,"SoundDuration":74999,"Delta":110537894},{"NoteNumber":62,"Velocity":41,"Duration":74999,"SoundDuration":74999,"Delta":110537894},{"NoteNumber":66,"Velocity":41,"Duration":74999,"SoundDuration":74999,"Delta":110537894},{"NoteNumber":69,"Velocity":41,"Duration":74999,"SoundDuration":74999,"Delta":110537894},{"NoteNumber":74,"Velocity":52,"Duration":75000,"SoundDuration":75000,"Delta":110687894},{"NoteNumber":86,"Velocity":62,"Duration":75000,"SoundDuration":75000,"Delta":110687894},{"NoteNumber":59,"Velocity":44,"Duration":75000,"SoundDuration":75000,"Delta":110687894},{"NoteNumber":62,"Velocity":44,"Duration":75000,"SoundDuration":75000,"Delta":110687894},{"NoteNumber":67,"Velocity":44,"Duration":75000,"SoundDuration":75000,"Delta":110687894},{"NoteNumber":71,"Velocity":44,"Duration":75000,"SoundDuration":75000,"Delta":110687894},{"NoteNumber":83,"Velocity":59,"Duration":150000,"SoundDuration":150000,"Delta":110987894},{"NoteNumber":59,"Velocity":41,"Duration":150000,"SoundDuration":150000,"Delta":110987894},{"NoteNumber":62,"Velocity":41,"Duration":150000,"SoundDuration":150000,"Delta":110987894},{"NoteNumber":67,"Velocity":49,"Duration":150000,"SoundDuration":150000,"Delta":110987894},{"NoteNumber":71,"Velocity":49,"Duration":150000,"SoundDuration":150000,"Delta":110987894},{"NoteNumber":79,"Velocity":56,"Duration":150000,"SoundDuration":150000,"Delta":111137894},{"NoteNumber":59,"Velocity":39,"Duration":150000,"SoundDuration":150000,"Delta":111137894},{"NoteNumber":62,"Velocity":39,"Duration":150000,"SoundDuration":150000,"Delta":111137894},{"NoteNumber":67,"Velocity":47,"Duration":150000,"SoundDuration":150000,"Delta":111137894},{"NoteNumber":71,"Velocity":47,"Duration":150000,"SoundDuration":150000,"Delta":111137894},{"NoteNumber":74,"Velocity":59,"Duration":231362,"SoundDuration":231362,"Delta":111287894},{"NoteNumber":59,"Velocity":41,"Duration":231362,"SoundDuration":231362,"Delta":111287894},{"NoteNumber":62,"Velocity":41,"Duration":231362,"SoundDuration":231362,"Delta":111287894},{"NoteNumber":67,"Velocity":49,"Duration":231362,"SoundDuration":231362,"Delta":111287894},{"NoteNumber":71,"Velocity":49,"Duration":231362,"SoundDuration":231362,"Delta":111287894},{"NoteNumber":74,"Velocity":59,"Duration":151898,"SoundDuration":151898,"Delta":111596377},{"NoteNumber":58,"Velocity":53,"Duration":904282,"SoundDuration":904282,"Delta":111596377},{"NoteNumber":67,"Velocity":53,"Duration":904282,"SoundDuration":904282,"Delta":111596377},{"NoteNumber":76,"Velocity":59,"Duration":153846,"SoundDuration":153846,"Delta":111748275},{"NoteNumber":77,"Velocity":63,"Duration":222772,"SoundDuration":222772,"Delta":111902121},{"NoteNumber":62,"Velocity":53,"Duration":598538,"SoundDuration":598538,"Delta":111902121},{"NoteNumber":76,"Velocity":52,"Duration":37128,"SoundDuration":37128,"Delta":112124894},{"NoteNumber":77,"Velocity":49,"Duration":37128,"SoundDuration":37128,"Delta":112162023},{"NoteNumber":76,"Velocity":59,"Duration":150754,"SoundDuration":150754,"Delta":112199151},{"NoteNumber":64,"Velocity":48,"Duration":150754,"SoundDuration":150754,"Delta":112199151},{"NoteNumber":74,"Velocity":59,"Duration":150753,"SoundDuration":150753,"Delta":112349905},{"NoteNumber":65,"Velocity":49,"Duration":150753,"SoundDuration":150753,"Delta":112349905},{"NoteNumber":72,"Velocity":58,"Duration":76922,"SoundDuration":76922,"Delta":112500659},{"NoteNumber":57,"Velocity":56,"Duration":76922,"SoundDuration":76922,"Delta":112500659},{"NoteNumber":62,"Velocity":56,"Duration":76922,"SoundDuration":76922,"Delta":112500659},{"NoteNumber":66,"Velocity":56,"Duration":76922,"SoundDuration":76922,"Delta":112500659},{"NoteNumber":81,"Velocity":63,"Duration":150754,"SoundDuration":150754,"Delta":112808351},{"NoteNumber":50,"Velocity":59,"Duration":75377,"SoundDuration":75377,"Delta":112808351},{"NoteNumber":78,"Velocity":57,"Duration":150753,"SoundDuration":150753,"Delta":112959105},{"NoteNumber":72,"Velocity":59,"Duration":76530,"SoundDuration":76530,"Delta":113109859},{"NoteNumber":57,"Velocity":52,"Duration":76530,"SoundDuration":76530,"Delta":113109859},{"NoteNumber":62,"Velocity":52,"Duration":76530,"SoundDuration":76530,"Delta":113109859},{"NoteNumber":66,"Velocity":52,"Duration":76530,"SoundDuration":76530,"Delta":113109859},{"NoteNumber":70,"Velocity":59,"Duration":76530,"SoundDuration":76530,"Delta":113415981},{"NoteNumber":58,"Velocity":55,"Duration":76530,"SoundDuration":76530,"Delta":113415981},{"NoteNumber":62,"Velocity":55,"Duration":76530,"SoundDuration":76530,"Delta":113415981},{"NoteNumber":67,"Velocity":55,"Duration":76530,"SoundDuration":76530,"Delta":113415981},{"NoteNumber":79,"Velocity":63,"Duration":151133,"SoundDuration":151133,"Delta":113722103},{"NoteNumber":50,"Velocity":59,"Duration":75566,"SoundDuration":75566,"Delta":113722103},{"NoteNumber":74,"Velocity":57,"Duration":151133,"SoundDuration":151133,"Delta":113873237},{"NoteNumber":70,"Velocity":59,"Duration":76335,"SoundDuration":76335,"Delta":114024370},{"NoteNumber":58,"Velocity":51,"Duration":76335,"SoundDuration":76335,"Delta":114024370},{"NoteNumber":62,"Velocity":51,"Duration":76335,"SoundDuration":76335,"Delta":114024370},{"NoteNumber":67,"Velocity":51,"Duration":76335,"SoundDuration":76335,"Delta":114024370},{"NoteNumber":69,"Velocity":59,"Duration":918419,"SoundDuration":918419,"Delta":114329714},{"NoteNumber":62,"Velocity":55,"Duration":76335,"SoundDuration":76335,"Delta":114329714},{"NoteNumber":66,"Velocity":55,"Duration":76335,"SoundDuration":76335,"Delta":114329714},{"NoteNumber":42,"Velocity":59,"Duration":75949,"SoundDuration":75949,"Delta":114635058},{"NoteNumber":54,"Velocity":59,"Duration":75949,"SoundDuration":75949,"Delta":114635058},{"NoteNumber":40,"Velocity":55,"Duration":75949,"SoundDuration":75949,"Delta":114786957},{"NoteNumber":52,"Velocity":55,"Duration":75949,"SoundDuration":75949,"Delta":114786957},{"NoteNumber":38,"Velocity":60,"Duration":77319,"SoundDuration":77319,"Delta":114938855},{"NoteNumber":50,"Velocity":60,"Duration":77319,"SoundDuration":77319,"Delta":114938855},{"NoteNumber":54,"Velocity":52,"Duration":921538,"SoundDuration":921538,"Delta":115248133},{"NoteNumber":57,"Velocity":52,"Duration":921538,"SoundDuration":921538,"Delta":115248133},{"NoteNumber":42,"Velocity":52,"Duration":76142,"SoundDuration":76142,"Delta":115557411},{"NoteNumber":40,"Velocity":49,"Duration":76142,"SoundDuration":76142,"Delta":115709696},{"NoteNumber":38,"Velocity":53,"Duration":76922,"SoundDuration":76922,"Delta":115861980},{"NoteNumber":57,"Velocity":49,"Duration":919953,"SoundDuration":919953,"Delta":116169672},{"NoteNumber":54,"Velocity":49,"Duration":919953,"SoundDuration":919953,"Delta":116169672},{"NoteNumber":42,"Velocity":49,"Duration":76142,"SoundDuration":76142,"Delta":116477364},{"NoteNumber":40,"Velocity":46,"Duration":76142,"SoundDuration":76142,"Delta":116629649},{"NoteNumber":38,"Velocity":50,"Duration":76922,"SoundDuration":76922,"Delta":116781933},{"NoteNumber":42,"Velocity":49,"Duration":76922,"SoundDuration":76922,"Delta":117089625},{"NoteNumber":54,"Velocity":49,"Duration":76922,"SoundDuration":76922,"Delta":117089625},{"NoteNumber":40,"Velocity":45,"Duration":76922,"SoundDuration":76922,"Delta":117243471},{"NoteNumber":52,"Velocity":45,"Duration":76922,"SoundDuration":76922,"Delta":117243471},{"NoteNumber":38,"Velocity":48,"Duration":77120,"SoundDuration":77120,"Delta":117397317},{"NoteNumber":50,"Velocity":48,"Duration":77120,"SoundDuration":77120,"Delta":117397317},{"NoteNumber":42,"Velocity":45,"Duration":76530,"SoundDuration":76530,"Delta":117705800},{"NoteNumber":54,"Velocity":45,"Duration":76530,"SoundDuration":76530,"Delta":117705800},{"NoteNumber":52,"Velocity":41,"Duration":76530,"SoundDuration":76530,"Delta":117858861},{"NoteNumber":40,"Velocity":41,"Duration":76530,"SoundDuration":76530,"Delta":117858861},{"NoteNumber":38,"Velocity":44,"Duration":80862,"SoundDuration":80862,"Delta":118011922},{"NoteNumber":50,"Velocity":44,"Duration":80862,"SoundDuration":80862,"Delta":118011922},{"NoteNumber":45,"Velocity":41,"Duration":80862,"SoundDuration":80862,"Delta":118335372},{"NoteNumber":38,"Velocity":40,"Duration":86207,"SoundDuration":86207,"Delta":118658822},{"NoteNumber":62,"Velocity":59,"Duration":150000,"SoundDuration":150000,"Delta":119003650},{"NoteNumber":38,"Velocity":55,"Duration":919465,"SoundDuration":919465,"Delta":119003650},{"NoteNumber":54,"Velocity":46,"Duration":769465,"SoundDuration":769465,"Delta":119153650},{"NoteNumber":66,"Velocity":49,"Duration":37499,"SoundDuration":37499,"Delta":119266150},{"NoteNumber":64,"Velocity":55,"Duration":148148,"SoundDuration":148148,"Delta":119303650},{"NoteNumber":62,"Velocity":53,"Duration":148147,"SoundDuration":148147,"Delta":119451798},{"NoteNumber":61,"Velocity":56,"Duration":146699,"SoundDuration":146699,"Delta":119599946},{"NoteNumber":62,"Velocity":51,"Duration":176470,"SoundDuration":176470,"Delta":119746646},{"NoteNumber":64,"Velocity":58,"Duration":78125,"SoundDuration":78125,"Delta":119923116},{"NoteNumber":37,"Velocity":55,"Duration":78125,"SoundDuration":78125,"Delta":119923116},{"NoteNumber":49,"Velocity":55,"Duration":78125,"SoundDuration":78125,"Delta":120079366},{"NoteNumber":55,"Velocity":49,"Duration":76142,"SoundDuration":76142,"Delta":120235616},{"NoteNumber":59,"Velocity":49,"Duration":76142,"SoundDuration":76142,"Delta":120235616},{"NoteNumber":64,"Velocity":49,"Duration":76142,"SoundDuration":76142,"Delta":120235616},{"NoteNumber":67,"Velocity":53,"Duration":76142,"SoundDuration":76142,"Delta":120235616},{"NoteNumber":54,"Velocity":42,"Duration":79155,"SoundDuration":79155,"Delta":120540185},{"NoteNumber":61,"Velocity":42,"Duration":79155,"SoundDuration":79155,"Delta":120540185},{"NoteNumber":64,"Velocity":42,"Duration":79155,"SoundDuration":79155,"Delta":120540185},{"NoteNumber":66,"Velocity":51,"Duration":79155,"SoundDuration":79155,"Delta":120540185},{"NoteNumber":46,"Velocity":55,"Duration":316623,"SoundDuration":316623,"Delta":120540185},{"NoteNumber":34,"Velocity":46,"Duration":316623,"SoundDuration":316623,"Delta":120540185},{"NoteNumber":62,"Velocity":58,"Duration":78328,"SoundDuration":78328,"Delta":120856808},{"NoteNumber":35,"Velocity":55,"Duration":78328,"SoundDuration":78328,"Delta":120856808},{"NoteNumber":47,"Velocity":55,"Duration":78329,"SoundDuration":78329,"Delta":121013466},{"NoteNumber":54,"Velocity":46,"Duration":75949,"SoundDuration":75949,"Delta":121170124},{"NoteNumber":59,"Velocity":46,"Duration":75949,"SoundDuration":75949,"Delta":121170124},{"NoteNumber":62,"Velocity":46,"Duration":75949,"SoundDuration":75949,"Delta":121170124},{"NoteNumber":66,"Velocity":55,"Duration":75949,"SoundDuration":75949,"Delta":121170124},{"NoteNumber":59,"Velocity":42,"Duration":77519,"SoundDuration":77519,"Delta":121473921},{"NoteNumber":62,"Velocity":42,"Duration":77519,"SoundDuration":77519,"Delta":121473921},{"NoteNumber":64,"Velocity":51,"Duration":77519,"SoundDuration":77519,"Delta":121473921},{"NoteNumber":32,"Velocity":46,"Duration":310078,"SoundDuration":310078,"Delta":121473921},{"NoteNumber":44,"Velocity":55,"Duration":310078,"SoundDuration":310078,"Delta":121473921},{"NoteNumber":52,"Velocity":42,"Duration":77519,"SoundDuration":77519,"Delta":121473921},{"NoteNumber":61,"Velocity":59,"Duration":150000,"SoundDuration":150000,"Delta":121783999},{"NoteNumber":33,"Velocity":55,"Duration":299999,"SoundDuration":299999,"Delta":121783999},{"NoteNumber":45,"Velocity":55,"Duration":299999,"SoundDuration":299999,"Delta":121783999},{"NoteNumber":52,"Velocity":55,"Duration":767701,"SoundDuration":767701,"Delta":121933999},{"NoteNumber":62,"Velocity":49,"Duration":37499,"SoundDuration":37499,"Delta":122046499},{"NoteNumber":61,"Velocity":55,"Duration":148148,"SoundDuration":148148,"Delta":122083999},{"NoteNumber":59,"Velocity":53,"Duration":148147,"SoundDuration":148147,"Delta":122232147},{"NoteNumber":61,"Velocity":56,"Duration":146699,"SoundDuration":146699,"Delta":122380295},{"NoteNumber":57,"Velocity":56,"Duration":146699,"SoundDuration":146699,"Delta":122380295},{"NoteNumber":45,"Velocity":55,"Duration":321405,"SoundDuration":321405,"Delta":122380295},{"NoteNumber":55,"Velocity":51,"Duration":174705,"SoundDuration":174705,"Delta":122526995},{"NoteNumber":62,"Velocity":59,"Duration":150000,"SoundDuration":150000,"Delta":122691701},{"NoteNumber":38,"Velocity":55,"Duration":919465,"SoundDuration":919465,"Delta":122691701},{"NoteNumber":54,"Velocity":46,"Duration":769465,"SoundDuration":769465,"Delta":122841701},{"NoteNumber":66,"Velocity":49,"Duration":37499,"SoundDuration":37499,"Delta":122954201},{"NoteNumber":64,"Velocity":55,"Duration":148148,"SoundDuration":148148,"Delta":122991701},{"NoteNumber":62,"Velocity":53,"Duration":148147,"SoundDuration":148147,"Delta":123139849},{"NoteNumber":61,"Velocity":56,"Duration":146699,"SoundDuration":146699,"Delta":123287997},{"NoteNumber":62,"Velocity":51,"Duration":176470,"SoundDuration":176470,"Delta":123434696},{"NoteNumber":64,"Velocity":58,"Duration":78125,"SoundDuration":78125,"Delta":123611167},{"NoteNumber":37,"Velocity":55,"Duration":78125,"SoundDuration":78125,"Delta":123611167},{"NoteNumber":49,"Velocity":48,"Duration":78125,"SoundDuration":78125,"Delta":123767417},{"NoteNumber":55,"Velocity":49,"Duration":76142,"SoundDuration":76142,"Delta":123923667},{"NoteNumber":59,"Velocity":49,"Duration":76142,"SoundDuration":76142,"Delta":123923667},{"NoteNumber":64,"Velocity":49,"Duration":76142,"SoundDuration":76142,"Delta":123923667},{"NoteNumber":67,"Velocity":53,"Duration":76142,"SoundDuration":76142,"Delta":123923667},{"NoteNumber":54,"Velocity":42,"Duration":78810,"SoundDuration":78810,"Delta":124228236},{"NoteNumber":61,"Velocity":42,"Duration":78810,"SoundDuration":78810,"Delta":124228236},{"NoteNumber":64,"Velocity":42,"Duration":78810,"SoundDuration":78810,"Delta":124228236},{"NoteNumber":66,"Velocity":51,"Duration":78810,"SoundDuration":78810,"Delta":124228236},{"NoteNumber":46,"Velocity":55,"Duration":315652,"SoundDuration":315652,"Delta":124228236},{"NoteNumber":34,"Velocity":46,"Duration":315652,"SoundDuration":315652,"Delta":124228236},{"NoteNumber":62,"Velocity":58,"Duration":78125,"SoundDuration":78125,"Delta":124554118},{"NoteNumber":59,"Velocity":58,"Duration":78125,"SoundDuration":78125,"Delta":124554118},{"NoteNumber":47,"Velocity":55,"Duration":312500,"SoundDuration":312500,"Delta":124554118},{"NoteNumber":35,"Velocity":46,"Duration":312500,"SoundDuration":312500,"Delta":124554118},{"NoteNumber":54,"Velocity":47,"Duration":78125,"SoundDuration":78125,"Delta":124710368},{"NoteNumber":62,"Velocity":55,"Duration":79575,"SoundDuration":79575,"Delta":124866618},{"NoteNumber":59,"Velocity":46,"Duration":79575,"SoundDuration":79575,"Delta":124866618},{"NoteNumber":43,"Velocity":55,"Duration":159150,"SoundDuration":159150,"Delta":124866618},{"NoteNumber":31,"Velocity":46,"Duration":159150,"SoundDuration":159150,"Delta":124866618},{"NoteNumber":64,"Velocity":50,"Duration":79575,"SoundDuration":79575,"Delta":125025769},{"NoteNumber":61,"Velocity":59,"Duration":325203,"SoundDuration":325203,"Delta":125184920},{"NoteNumber":57,"Velocity":59,"Duration":162601,"SoundDuration":162601,"Delta":125184920},{"NoteNumber":52,"Velocity":51,"Duration":81300,"SoundDuration":81300,"Delta":125184920},{"NoteNumber":45,"Velocity":51,"Duration":655782,"SoundDuration":655782,"Delta":125184920},{"NoteNumber":33,"Velocity":42,"Duration":162601,"SoundDuration":162601,"Delta":125184920},{"NoteNumber":55,"Velocity":52,"Duration":162601,"SoundDuration":162601,"Delta":125347522},{"NoteNumber":62,"Velocity":64,"Duration":165289,"SoundDuration":165289,"Delta":125510123},{"NoteNumber":38,"Velocity":49,"Duration":165289,"SoundDuration":165289,"Delta":125510123},{"NoteNumber":54,"Velocity":58,"Duration":165289,"SoundDuration":165289,"Delta":125510123},{"NoteNumber":74,"Velocity":77,"Duration":165289,"SoundDuration":165289,"Delta":125840702},{"NoteNumber":66,"Velocity":64,"Duration":165289,"SoundDuration":165289,"Delta":125840702},{"NoteNumber":57,"Velocity":70,"Duration":165289,"SoundDuration":165289,"Delta":125840702},{"NoteNumber":50,"Velocity":60,"Duration":165289,"SoundDuration":165289,"Delta":125840702},{"NoteNumber":62,"Velocity":59,"Duration":150000,"SoundDuration":150000,"Delta":126501860},{"NoteNumber":38,"Velocity":55,"Duration":919465,"SoundDuration":919465,"Delta":126501860},{"NoteNumber":54,"Velocity":46,"Duration":769465,"SoundDuration":769465,"Delta":126651860},{"NoteNumber":66,"Velocity":49,"Duration":37499,"SoundDuration":37499,"Delta":126764360},{"NoteNumber":64,"Velocity":55,"Duration":148148,"SoundDuration":148148,"Delta":126801860},{"NoteNumber":62,"Velocity":53,"Duration":148147,"SoundDuration":148147,"Delta":126950008},{"NoteNumber":61,"Velocity":56,"Duration":146699,"SoundDuration":146699,"Delta":127098156},{"NoteNumber":62,"Velocity":51,"Duration":176470,"SoundDuration":176470,"Delta":127244856},{"NoteNumber":64,"Velocity":58,"Duration":78125,"SoundDuration":78125,"Delta":127421326},{"NoteNumber":37,"Velocity":55,"Duration":78125,"SoundDuration":78125,"Delta":127421326},{"NoteNumber":49,"Velocity":55,"Duration":78125,"SoundDuration":78125,"Delta":127577576},{"NoteNumber":55,"Velocity":49,"Duration":76142,"SoundDuration":76142,"Delta":127733826},{"NoteNumber":59,"Velocity":49,"Duration":76142,"SoundDuration":76142,"Delta":127733826},{"NoteNumber":64,"Velocity":49,"Duration":76142,"SoundDuration":76142,"Delta":127733826},{"NoteNumber":67,"Velocity":53,"Duration":76142,"SoundDuration":76142,"Delta":127733826},{"NoteNumber":54,"Velocity":42,"Duration":79787,"SoundDuration":79787,"Delta":128038395},{"NoteNumber":61,"Velocity":42,"Duration":79787,"SoundDuration":79787,"Delta":128038395},{"NoteNumber":64,"Velocity":42,"Duration":79787,"SoundDuration":79787,"Delta":128038395},{"NoteNumber":66,"Velocity":51,"Duration":79787,"SoundDuration":79787,"Delta":128038395},{"NoteNumber":46,"Velocity":55,"Duration":319149,"SoundDuration":319149,"Delta":128038395},{"NoteNumber":34,"Velocity":46,"Duration":319149,"SoundDuration":319149,"Delta":128038395},{"NoteNumber":62,"Velocity":58,"Duration":78533,"SoundDuration":78533,"Delta":128357544},{"NoteNumber":35,"Velocity":55,"Duration":78533,"SoundDuration":78533,"Delta":128357544},{"NoteNumber":47,"Velocity":55,"Duration":78533,"SoundDuration":78533,"Delta":128514612},{"NoteNumber":54,"Velocity":46,"Duration":75949,"SoundDuration":75949,"Delta":128671680},{"NoteNumber":59,"Velocity":46,"Duration":75949,"SoundDuration":75949,"Delta":128671680},{"NoteNumber":62,"Velocity":46,"Duration":75949,"SoundDuration":75949,"Delta":128671680},{"NoteNumber":66,"Velocity":55,"Duration":75949,"SoundDuration":75949,"Delta":128671680},{"NoteNumber":59,"Velocity":42,"Duration":76922,"SoundDuration":76922,"Delta":128975477},{"NoteNumber":62,"Velocity":42,"Duration":76922,"SoundDuration":76922,"Delta":128975477},{"NoteNumber":64,"Velocity":51,"Duration":76922,"SoundDuration":76922,"Delta":128975477},{"NoteNumber":32,"Velocity":46,"Duration":307692,"SoundDuration":307692,"Delta":128975477},{"NoteNumber":44,"Velocity":55,"Duration":307692,"SoundDuration":307692,"Delta":128975477},{"NoteNumber":52,"Velocity":42,"Duration":76922,"SoundDuration":76922,"Delta":128975477},{"NoteNumber":61,"Velocity":59,"Duration":150000,"SoundDuration":150000,"Delta":129283169},{"NoteNumber":33,"Velocity":55,"Duration":300000,"SoundDuration":300000,"Delta":129283169},{"NoteNumber":45,"Velocity":55,"Duration":300000,"SoundDuration":300000,"Delta":129283169},{"NoteNumber":52,"Velocity":55,"Duration":767701,"SoundDuration":767701,"Delta":129433169},{"NoteNumber":62,"Velocity":49,"Duration":37500,"SoundDuration":37500,"Delta":129545669},{"NoteNumber":61,"Velocity":55,"Duration":148147,"SoundDuration":148147,"Delta":129583169},{"NoteNumber":59,"Velocity":53,"Duration":148148,"SoundDuration":148148,"Delta":129731317},{"NoteNumber":61,"Velocity":56,"Duration":146699,"SoundDuration":146699,"Delta":129879465},{"NoteNumber":57,"Velocity":56,"Duration":146699,"SoundDuration":146699,"Delta":129879465},{"NoteNumber":45,"Velocity":55,"Duration":321405,"SoundDuration":321405,"Delta":129879465},{"NoteNumber":55,"Velocity":51,"Duration":174705,"SoundDuration":174705,"Delta":130026165},{"NoteNumber":62,"Velocity":59,"Duration":150000,"SoundDuration":150000,"Delta":130190870},{"NoteNumber":38,"Velocity":55,"Duration":919466,"SoundDuration":919466,"Delta":130190870},{"NoteNumber":54,"Velocity":46,"Duration":769466,"SoundDuration":769466,"Delta":130340870},{"NoteNumber":66,"Velocity":49,"Duration":37500,"SoundDuration":37500,"Delta":130453370},{"NoteNumber":64,"Velocity":55,"Duration":148147,"SoundDuration":148147,"Delta":130490870},{"NoteNumber":62,"Velocity":53,"Duration":148148,"SoundDuration":148148,"Delta":130639018},{"NoteNumber":61,"Velocity":56,"Duration":146699,"SoundDuration":146699,"Delta":130787166},{"NoteNumber":62,"Velocity":51,"Duration":176470,"SoundDuration":176470,"Delta":130933866},{"NoteNumber":64,"Velocity":58,"Duration":78125,"SoundDuration":78125,"Delta":131110336},{"NoteNumber":37,"Velocity":55,"Duration":78125,"SoundDuration":78125,"Delta":131110336},{"NoteNumber":49,"Velocity":48,"Duration":78125,"SoundDuration":78125,"Delta":131266586},{"NoteNumber":55,"Velocity":49,"Duration":76142,"SoundDuration":76142,"Delta":131422836},{"NoteNumber":59,"Velocity":49,"Duration":76142,"SoundDuration":76142,"Delta":131422836},{"NoteNumber":64,"Velocity":49,"Duration":76142,"SoundDuration":76142,"Delta":131422836},{"NoteNumber":67,"Velocity":53,"Duration":76142,"SoundDuration":76142,"Delta":131422836},{"NoteNumber":54,"Velocity":42,"Duration":78810,"SoundDuration":78810,"Delta":131727405},{"NoteNumber":61,"Velocity":42,"Duration":78810,"SoundDuration":78810,"Delta":131727405},{"NoteNumber":64,"Velocity":42,"Duration":78810,"SoundDuration":78810,"Delta":131727405},{"NoteNumber":66,"Velocity":51,"Duration":78810,"SoundDuration":78810,"Delta":131727405},{"NoteNumber":46,"Velocity":55,"Duration":315652,"SoundDuration":315652,"Delta":131727405},{"NoteNumber":34,"Velocity":46,"Duration":315652,"SoundDuration":315652,"Delta":131727405},{"NoteNumber":62,"Velocity":58,"Duration":78125,"SoundDuration":78125,"Delta":132053288},{"NoteNumber":59,"Velocity":58,"Duration":78125,"SoundDuration":78125,"Delta":132053288},{"NoteNumber":47,"Velocity":55,"Duration":312500,"SoundDuration":312500,"Delta":132053288},{"NoteNumber":35,"Velocity":46,"Duration":312500,"SoundDuration":312500,"Delta":132053288},{"NoteNumber":54,"Velocity":47,"Duration":78125,"SoundDuration":78125,"Delta":132209538},{"NoteNumber":62,"Velocity":55,"Duration":79575,"SoundDuration":79575,"Delta":132365788},{"NoteNumber":59,"Velocity":46,"Duration":79575,"SoundDuration":79575,"Delta":132365788},{"NoteNumber":43,"Velocity":55,"Duration":159151,"SoundDuration":159151,"Delta":132365788},{"NoteNumber":31,"Velocity":46,"Duration":159151,"SoundDuration":159151,"Delta":132365788},{"NoteNumber":64,"Velocity":50,"Duration":79575,"SoundDuration":79575,"Delta":132524939},{"NoteNumber":61,"Velocity":59,"Duration":330579,"SoundDuration":330579,"Delta":132684090},{"NoteNumber":57,"Velocity":59,"Duration":165289,"SoundDuration":165289,"Delta":132684090},{"NoteNumber":52,"Velocity":51,"Duration":82644,"SoundDuration":82644,"Delta":132684090},{"NoteNumber":45,"Velocity":51,"Duration":666712,"SoundDuration":666712,"Delta":132684090},{"NoteNumber":33,"Velocity":42,"Duration":165289,"SoundDuration":165289,"Delta":132684090},{"NoteNumber":55,"Velocity":52,"Duration":165289,"SoundDuration":165289,"Delta":132849379},{"NoteNumber":62,"Velocity":64,"Duration":168067,"SoundDuration":168067,"Delta":133014669},{"NoteNumber":38,"Velocity":49,"Duration":168067,"SoundDuration":168067,"Delta":133014669},{"NoteNumber":54,"Velocity":58,"Duration":168067,"SoundDuration":168067,"Delta":133014669},{"NoteNumber":74,"Velocity":77,"Duration":165289,"SoundDuration":165289,"Delta":133350803},{"NoteNumber":66,"Velocity":64,"Duration":165289,"SoundDuration":165289,"Delta":133350803},{"NoteNumber":57,"Velocity":70,"Duration":165289,"SoundDuration":165289,"Delta":133350803},{"NoteNumber":50,"Velocity":60,"Duration":165289,"SoundDuration":165289,"Delta":133350803},{"NoteNumber":74,"Velocity":57,"Duration":1838097,"SoundDuration":1838097,"Delta":134011961},{"NoteNumber":81,"Velocity":67,"Duration":300751,"SoundDuration":300751,"Delta":134011961},{"NoteNumber":62,"Velocity":42,"Duration":1838097,"SoundDuration":1838097,"Delta":134011961},{"NoteNumber":66,"Velocity":52,"Duration":300751,"SoundDuration":300751,"Delta":134011961},{"NoteNumber":83,"Velocity":59,"Duration":149253,"SoundDuration":149253,"Delta":134312713},{"NoteNumber":67,"Velocity":47,"Duration":149253,"SoundDuration":149253,"Delta":134312713},{"NoteNumber":81,"Velocity":55,"Duration":149253,"SoundDuration":149253,"Delta":134461966},{"NoteNumber":66,"Velocity":44,"Duration":149253,"SoundDuration":149253,"Delta":134461966},{"NoteNumber":79,"Velocity":57,"Duration":149253,"SoundDuration":149253,"Delta":134611220},{"NoteNumber":64,"Velocity":45,"Duration":149253,"SoundDuration":149253,"Delta":134611220},{"NoteNumber":81,"Velocity":53,"Duration":158311,"SoundDuration":158311,"Delta":134760473},{"NoteNumber":66,"Velocity":42,"Duration":158311,"SoundDuration":158311,"Delta":134760473},{"NoteNumber":83,"Velocity":60,"Duration":307692,"SoundDuration":307692,"Delta":134918785},{"NoteNumber":67,"Velocity":48,"Duration":307692,"SoundDuration":307692,"Delta":134918785},{"NoteNumber":83,"Velocity":59,"Duration":153061,"SoundDuration":153061,"Delta":135226477},{"NoteNumber":67,"Velocity":47,"Duration":153061,"SoundDuration":153061,"Delta":135226477},{"NoteNumber":86,"Velocity":55,"Duration":153060,"SoundDuration":153060,"Delta":135379538},{"NoteNumber":71,"Velocity":44,"Duration":153060,"SoundDuration":153060,"Delta":135379538},{"NoteNumber":83,"Velocity":58,"Duration":317460,"SoundDuration":317460,"Delta":135532599},{"NoteNumber":67,"Velocity":46,"Duration":317460,"SoundDuration":317460,"Delta":135532599},{"NoteNumber":74,"Velocity":57,"Duration":909854,"SoundDuration":909854,"Delta":135850059},{"NoteNumber":81,"Velocity":67,"Duration":300751,"SoundDuration":300751,"Delta":135850059},{"NoteNumber":62,"Velocity":42,"Duration":751543,"SoundDuration":751543,"Delta":135850059},{"NoteNumber":66,"Velocity":52,"Duration":300751,"SoundDuration":300751,"Delta":135850059},{"NoteNumber":83,"Velocity":59,"Duration":149253,"SoundDuration":149253,"Delta":136150811},{"NoteNumber":67,"Velocity":47,"Duration":149253,"SoundDuration":149253,"Delta":136150811},{"NoteNumber":81,"Velocity":55,"Duration":149253,"SoundDuration":149253,"Delta":136300064},{"NoteNumber":66,"Velocity":44,"Duration":149253,"SoundDuration":149253,"Delta":136300064},{"NoteNumber":79,"Velocity":57,"Duration":152284,"SoundDuration":152284,"Delta":136449318},{"NoteNumber":64,"Velocity":45,"Duration":152284,"SoundDuration":152284,"Delta":136449318},{"NoteNumber":78,"Velocity":53,"Duration":158311,"SoundDuration":158311,"Delta":136601602},{"NoteNumber":62,"Velocity":42,"Duration":158311,"SoundDuration":158311,"Delta":136601602},{"NoteNumber":73,"Velocity":48,"Duration":307692,"SoundDuration":307692,"Delta":136759914},{"NoteNumber":76,"Velocity":60,"Duration":307692,"SoundDuration":307692,"Delta":136759914},{"NoteNumber":57,"Velocity":38,"Duration":307692,"SoundDuration":307692,"Delta":136759914},{"NoteNumber":64,"Velocity":48,"Duration":307692,"SoundDuration":307692,"Delta":136759914},{"NoteNumber":73,"Velocity":45,"Duration":153061,"SoundDuration":153061,"Delta":137067606},{"NoteNumber":76,"Velocity":57,"Duration":153061,"SoundDuration":153061,"Delta":137067606},{"NoteNumber":67,"Velocity":47,"Duration":153061,"SoundDuration":153061,"Delta":137067606},{"NoteNumber":71,"Velocity":44,"Duration":153060,"SoundDuration":153060,"Delta":137220667},{"NoteNumber":74,"Velocity":55,"Duration":153060,"SoundDuration":153060,"Delta":137220667},{"NoteNumber":66,"Velocity":41,"Duration":153060,"SoundDuration":153060,"Delta":137220667},{"NoteNumber":73,"Velocity":46,"Duration":314135,"SoundDuration":314135,"Delta":137373728},{"NoteNumber":76,"Velocity":58,"Duration":314135,"SoundDuration":314135,"Delta":137373728},{"NoteNumber":57,"Velocity":36,"Duration":314135,"SoundDuration":314135,"Delta":137373728},{"NoteNumber":67,"Velocity":46,"Duration":314135,"SoundDuration":314135,"Delta":137373728},{"NoteNumber":74,"Velocity":57,"Duration":1852992,"SoundDuration":1852992,"Delta":137687864},{"NoteNumber":81,"Velocity":67,"Duration":300751,"SoundDuration":300751,"Delta":137687864},{"NoteNumber":62,"Velocity":42,"Duration":1852992,"SoundDuration":1852992,"Delta":137687864},{"NoteNumber":66,"Velocity":52,"Duration":300751,"SoundDuration":300751,"Delta":137687864},{"NoteNumber":83,"Velocity":59,"Duration":149253,"SoundDuration":149253,"Delta":137988616},{"NoteNumber":67,"Velocity":47,"Duration":149253,"SoundDuration":149253,"Delta":137988616},{"NoteNumber":81,"Velocity":55,"Duration":149253,"SoundDuration":149253,"Delta":138137869},{"NoteNumber":66,"Velocity":44,"Duration":149253,"SoundDuration":149253,"Delta":138137869},{"NoteNumber":79,"Velocity":57,"Duration":149253,"SoundDuration":149253,"Delta":138287123},{"NoteNumber":64,"Velocity":45,"Duration":149253,"SoundDuration":149253,"Delta":138287123},{"NoteNumber":81,"Velocity":53,"Duration":158311,"SoundDuration":158311,"Delta":138436376},{"NoteNumber":66,"Velocity":42,"Duration":158311,"SoundDuration":158311,"Delta":138436376},{"NoteNumber":83,"Velocity":60,"Duration":311688,"SoundDuration":311688,"Delta":138594688},{"NoteNumber":67,"Velocity":48,"Duration":311688,"SoundDuration":311688,"Delta":138594688},{"NoteNumber":83,"Velocity":59,"Duration":154639,"SoundDuration":154639,"Delta":138906376},{"NoteNumber":67,"Velocity":47,"Duration":154639,"SoundDuration":154639,"Delta":138906376},{"NoteNumber":86,"Velocity":55,"Duration":154639,"SoundDuration":154639,"Delta":139061015},{"NoteNumber":71,"Velocity":44,"Duration":154639,"SoundDuration":154639,"Delta":139061015},{"NoteNumber":83,"Velocity":58,"Duration":325202,"SoundDuration":325202,"Delta":139215654},{"NoteNumber":67,"Velocity":46,"Duration":325202,"SoundDuration":325202,"Delta":139215654},{"NoteNumber":74,"Velocity":57,"Duration":1091501,"SoundDuration":1091501,"Delta":139540857},{"NoteNumber":81,"Velocity":67,"Duration":329140,"SoundDuration":329140,"Delta":139540857},{"NoteNumber":62,"Velocity":42,"Duration":884605,"SoundDuration":884605,"Delta":139540857},{"NoteNumber":66,"Velocity":52,"Duration":329140,"SoundDuration":329140,"Delta":139540857},{"NoteNumber":83,"Velocity":59,"Duration":172882,"SoundDuration":172882,"Delta":139869997},{"NoteNumber":67,"Velocity":47,"Duration":172882,"SoundDuration":172882,"Delta":139869997},{"NoteNumber":81,"Velocity":55,"Duration":184587,"SoundDuration":184587,"Delta":140042880},{"NoteNumber":66,"Velocity":44,"Duration":184587,"SoundDuration":184587,"Delta":140042880},{"NoteNumber":79,"Velocity":57,"Duration":197993,"SoundDuration":197993,"Delta":140227468},{"NoteNumber":64,"Velocity":45,"Duration":197993,"SoundDuration":197993,"Delta":140227468},{"NoteNumber":78,"Velocity":53,"Duration":206896,"SoundDuration":206896,"Delta":140425462},{"NoteNumber":62,"Velocity":42,"Duration":206896,"SoundDuration":206896,"Delta":140425462},{"NoteNumber":69,"Velocity":48,"Duration":960221,"SoundDuration":960221,"Delta":140632359},{"NoteNumber":73,"Velocity":48,"Duration":960221,"SoundDuration":960221,"Delta":140632359},{"NoteNumber":76,"Velocity":60,"Duration":960221,"SoundDuration":960221,"Delta":140632359},{"NoteNumber":57,"Velocity":38,"Duration":960221,"SoundDuration":960221,"Delta":140632359},{"NoteNumber":64,"Velocity":48,"Duration":960221,"SoundDuration":960221,"Delta":140632359},{"NoteNumber":62,"Velocity":59,"Duration":150000,"SoundDuration":150000,"Delta":141592580},{"NoteNumber":38,"Velocity":55,"Duration":919466,"SoundDuration":919466,"Delta":141592580},{"NoteNumber":54,"Velocity":46,"Duration":769466,"SoundDuration":769466,"Delta":141742580},{"NoteNumber":66,"Velocity":49,"Duration":37500,"SoundDuration":37500,"Delta":141855080},{"NoteNumber":64,"Velocity":55,"Duration":148147,"SoundDuration":148147,"Delta":141892580},{"NoteNumber":45,"Velocity":55,"Duration":619466,"SoundDuration":619466,"Delta":141892580},{"NoteNumber":62,"Velocity":53,"Duration":148148,"SoundDuration":148148,"Delta":142040728},{"NoteNumber":61,"Velocity":56,"Duration":146699,"SoundDuration":146699,"Delta":142188876},{"NoteNumber":62,"Velocity":51,"Duration":176470,"SoundDuration":176470,"Delta":142335575},{"NoteNumber":64,"Velocity":58,"Duration":78125,"SoundDuration":78125,"Delta":142512046},{"NoteNumber":37,"Velocity":55,"Duration":78125,"SoundDuration":78125,"Delta":142512046},{"NoteNumber":49,"Velocity":55,"Duration":78125,"SoundDuration":78125,"Delta":142668296},{"NoteNumber":55,"Velocity":49,"Duration":76142,"SoundDuration":76142,"Delta":142824546},{"NoteNumber":59,"Velocity":49,"Duration":76142,"SoundDuration":76142,"Delta":142824546},{"NoteNumber":64,"Velocity":49,"Duration":76142,"SoundDuration":76142,"Delta":142824546},{"NoteNumber":67,"Velocity":53,"Duration":76142,"SoundDuration":76142,"Delta":142824546},{"NoteNumber":54,"Velocity":42,"Duration":78740,"SoundDuration":78740,"Delta":143129115},{"NoteNumber":61,"Velocity":42,"Duration":78740,"SoundDuration":78740,"Delta":143129115},{"NoteNumber":64,"Velocity":42,"Duration":78740,"SoundDuration":78740,"Delta":143129115},{"NoteNumber":66,"Velocity":51,"Duration":78740,"SoundDuration":78740,"Delta":143129115},{"NoteNumber":46,"Velocity":55,"Duration":314961,"SoundDuration":314961,"Delta":143129115},{"NoteNumber":34,"Velocity":46,"Duration":314961,"SoundDuration":314961,"Delta":143129115},{"NoteNumber":62,"Velocity":58,"Duration":78328,"SoundDuration":78328,"Delta":143444076},{"NoteNumber":35,"Velocity":55,"Duration":78328,"SoundDuration":78328,"Delta":143444076},{"NoteNumber":47,"Velocity":55,"Duration":78328,"SoundDuration":78328,"Delta":143600734},{"NoteNumber":54,"Velocity":46,"Duration":75949,"SoundDuration":75949,"Delta":143757392},{"NoteNumber":59,"Velocity":46,"Duration":75949,"SoundDuration":75949,"Delta":143757392},{"NoteNumber":62,"Velocity":46,"Duration":75949,"SoundDuration":75949,"Delta":143757392},{"NoteNumber":66,"Velocity":55,"Duration":75949,"SoundDuration":75949,"Delta":143757392},{"NoteNumber":59,"Velocity":42,"Duration":76922,"SoundDuration":76922,"Delta":144061189},{"NoteNumber":62,"Velocity":42,"Duration":76922,"SoundDuration":76922,"Delta":144061189},{"NoteNumber":64,"Velocity":51,"Duration":76922,"SoundDuration":76922,"Delta":144061189},{"NoteNumber":32,"Velocity":46,"Duration":307692,"SoundDuration":307692,"Delta":144061189},{"NoteNumber":44,"Velocity":55,"Duration":307692,"SoundDuration":307692,"Delta":144061189},{"NoteNumber":52,"Velocity":42,"Duration":76922,"SoundDuration":76922,"Delta":144061189},{"NoteNumber":61,"Velocity":59,"Duration":150000,"SoundDuration":150000,"Delta":144368881},{"NoteNumber":33,"Velocity":55,"Duration":300000,"SoundDuration":300000,"Delta":144368881},{"NoteNumber":45,"Velocity":55,"Duration":300000,"SoundDuration":300000,"Delta":144368881},{"NoteNumber":52,"Velocity":55,"Duration":767701,"SoundDuration":767701,"Delta":144518881},{"NoteNumber":62,"Velocity":49,"Duration":37500,"SoundDuration":37500,"Delta":144631381},{"NoteNumber":61,"Velocity":55,"Duration":148147,"SoundDuration":148147,"Delta":144668881},{"NoteNumber":59,"Velocity":53,"Duration":148148,"SoundDuration":148148,"Delta":144817029},{"NoteNumber":61,"Velocity":56,"Duration":146699,"SoundDuration":146699,"Delta":144965177},{"NoteNumber":57,"Velocity":56,"Duration":146699,"SoundDuration":146699,"Delta":144965177},{"NoteNumber":45,"Velocity":55,"Duration":321405,"SoundDuration":321405,"Delta":144965177},{"NoteNumber":55,"Velocity":51,"Duration":174705,"SoundDuration":174705,"Delta":145111876},{"NoteNumber":62,"Velocity":59,"Duration":150000,"SoundDuration":150000,"Delta":145286582},{"NoteNumber":38,"Velocity":55,"Duration":919882,"SoundDuration":919882,"Delta":145286582},{"NoteNumber":54,"Velocity":46,"Duration":769466,"SoundDuration":769466,"Delta":145426582},{"NoteNumber":66,"Velocity":49,"Duration":37500,"SoundDuration":37500,"Delta":145539082},{"NoteNumber":64,"Velocity":55,"Duration":148147,"SoundDuration":148147,"Delta":145586458},{"NoteNumber":45,"Velocity":55,"Duration":620006,"SoundDuration":620006,"Delta":145586458},{"NoteNumber":62,"Velocity":53,"Duration":148051,"SoundDuration":148051,"Delta":145734606},{"NoteNumber":61,"Velocity":56,"Duration":148684,"SoundDuration":148684,"Delta":145882658},{"NoteNumber":62,"Velocity":51,"Duration":171752,"SoundDuration":171752,"Delta":146060754},{"NoteNumber":64,"Velocity":58,"Duration":78125,"SoundDuration":78125,"Delta":146206465},{"NoteNumber":37,"Velocity":55,"Duration":78125,"SoundDuration":78125,"Delta":146206465},{"NoteNumber":49,"Velocity":48,"Duration":78125,"SoundDuration":78125,"Delta":146362715},{"NoteNumber":55,"Velocity":49,"Duration":76142,"SoundDuration":76142,"Delta":146518700},{"NoteNumber":59,"Velocity":49,"Duration":76142,"SoundDuration":76142,"Delta":146518700},{"NoteNumber":64,"Velocity":49,"Duration":76142,"SoundDuration":76142,"Delta":146518700},{"NoteNumber":67,"Velocity":53,"Duration":76142,"SoundDuration":76142,"Delta":146518700},{"NoteNumber":54,"Velocity":42,"Duration":78947,"SoundDuration":78947,"Delta":146823506},{"NoteNumber":61,"Velocity":42,"Duration":78947,"SoundDuration":78947,"Delta":146823506},{"NoteNumber":64,"Velocity":42,"Duration":78947,"SoundDuration":78947,"Delta":146823506},{"NoteNumber":66,"Velocity":51,"Duration":78947,"SoundDuration":78947,"Delta":146823506},{"NoteNumber":34,"Velocity":46,"Duration":315492,"SoundDuration":315492,"Delta":146823506},{"NoteNumber":46,"Velocity":55,"Duration":315492,"SoundDuration":315492,"Delta":146823506},{"NoteNumber":62,"Velocity":58,"Duration":78125,"SoundDuration":78125,"Delta":147138999},{"NoteNumber":59,"Velocity":58,"Duration":78125,"SoundDuration":78125,"Delta":147138999},{"NoteNumber":47,"Velocity":55,"Duration":312500,"SoundDuration":312500,"Delta":147138999},{"NoteNumber":35,"Velocity":46,"Duration":312500,"SoundDuration":312500,"Delta":147138999},{"NoteNumber":54,"Velocity":47,"Duration":78125,"SoundDuration":78125,"Delta":147295249},{"NoteNumber":62,"Velocity":55,"Duration":80429,"SoundDuration":80429,"Delta":147451499},{"NoteNumber":59,"Velocity":46,"Duration":80429,"SoundDuration":80429,"Delta":147451499},{"NoteNumber":43,"Velocity":55,"Duration":160857,"SoundDuration":160857,"Delta":147451499},{"NoteNumber":31,"Velocity":46,"Duration":160857,"SoundDuration":160857,"Delta":147451499},{"NoteNumber":64,"Velocity":50,"Duration":80429,"SoundDuration":80429,"Delta":147612357},{"NoteNumber":61,"Velocity":59,"Duration":329669,"SoundDuration":329669,"Delta":147773215},{"NoteNumber":57,"Velocity":59,"Duration":164835,"SoundDuration":164835,"Delta":147773215},{"NoteNumber":52,"Velocity":51,"Duration":82417,"SoundDuration":82417,"Delta":147773215},{"NoteNumber":45,"Velocity":51,"Duration":665803,"SoundDuration":665803,"Delta":147773215},{"NoteNumber":33,"Velocity":42,"Duration":164835,"SoundDuration":164835,"Delta":147773215},{"NoteNumber":55,"Velocity":52,"Duration":164834,"SoundDuration":164834,"Delta":147938050},{"NoteNumber":62,"Velocity":64,"Duration":168067,"SoundDuration":168067,"Delta":148102885},{"NoteNumber":38,"Velocity":49,"Duration":168067,"SoundDuration":168067,"Delta":148102885},{"NoteNumber":54,"Velocity":58,"Duration":168067,"SoundDuration":168067,"Delta":148102885},{"NoteNumber":74,"Velocity":77,"Duration":165289,"SoundDuration":165289,"Delta":148439019},{"NoteNumber":66,"Velocity":64,"Duration":165289,"SoundDuration":165289,"Delta":148439019},{"NoteNumber":57,"Velocity":70,"Duration":165289,"SoundDuration":165289,"Delta":148439019},{"NoteNumber":50,"Velocity":60,"Duration":165289,"SoundDuration":165289,"Delta":148439019},{"NoteNumber":78,"Velocity":59,"Duration":325556,"SoundDuration":325556,"Delta":149100177},{"NoteNumber":47,"Velocity":38,"Duration":1914591,"SoundDuration":1914591,"Delta":149100177},{"NoteNumber":62,"Velocity":47,"Duration":325556,"SoundDuration":325556,"Delta":149100177},{"NoteNumber":71,"Velocity":39,"Duration":321963,"SoundDuration":321963,"Delta":149262955},{"NoteNumber":79,"Velocity":52,"Duration":159185,"SoundDuration":159185,"Delta":149425733},{"NoteNumber":64,"Velocity":41,"Duration":159185,"SoundDuration":159185,"Delta":149425733},{"NoteNumber":71,"Velocity":35,"Duration":316203,"SoundDuration":316203,"Delta":149584918},{"NoteNumber":78,"Velocity":47,"Duration":159184,"SoundDuration":159184,"Delta":149584918},{"NoteNumber":62,"Velocity":39,"Duration":159184,"SoundDuration":159184,"Delta":149584918},{"NoteNumber":76,"Velocity":50,"Duration":157018,"SoundDuration":157018,"Delta":149744103},{"NoteNumber":61,"Velocity":39,"Duration":157018,"SoundDuration":157018,"Delta":149744103},{"NoteNumber":71,"Velocity":35,"Duration":163702,"SoundDuration":163702,"Delta":149901122},{"NoteNumber":78,"Velocity":48,"Duration":163702,"SoundDuration":163702,"Delta":149901122},{"NoteNumber":62,"Velocity":38,"Duration":163702,"SoundDuration":163702,"Delta":149901122},{"NoteNumber":79,"Velocity":53,"Duration":320136,"SoundDuration":320136,"Delta":150064824},{"NoteNumber":64,"Velocity":42,"Duration":320136,"SoundDuration":320136,"Delta":150064824},{"NoteNumber":71,"Velocity":37,"Duration":318379,"SoundDuration":318379,"Delta":150224892},{"NoteNumber":83,"Velocity":52,"Duration":316622,"SoundDuration":316622,"Delta":150384961},{"NoteNumber":61,"Velocity":41,"Duration":316622,"SoundDuration":316622,"Delta":150384961},{"NoteNumber":71,"Velocity":36,"Duration":314903,"SoundDuration":314903,"Delta":150543272},{"NoteNumber":76,"Velocity":51,"Duration":313185,"SoundDuration":313185,"Delta":150701584},{"NoteNumber":64,"Velocity":40,"Duration":313185,"SoundDuration":313185,"Delta":150701584},{"NoteNumber":71,"Velocity":28,"Duration":156592,"SoundDuration":156592,"Delta":150858176},{"NoteNumber":78,"Velocity":59,"Duration":325556,"SoundDuration":325556,"Delta":151014769},{"NoteNumber":47,"Velocity":38,"Duration":964646,"SoundDuration":964646,"Delta":151014769},{"NoteNumber":62,"Velocity":47,"Duration":325556,"SoundDuration":325556,"Delta":151014769},{"NoteNumber":71,"Velocity":39,"Duration":162778,"SoundDuration":162778,"Delta":151177547},{"NoteNumber":79,"Velocity":52,"Duration":159185,"SoundDuration":159185,"Delta":151340325},{"NoteNumber":64,"Velocity":41,"Duration":159185,"SoundDuration":159185,"Delta":151340325},{"NoteNumber":71,"Velocity":35,"Duration":159184,"SoundDuration":159184,"Delta":151499510},{"NoteNumber":78,"Velocity":47,"Duration":159184,"SoundDuration":159184,"Delta":151499510},{"NoteNumber":62,"Velocity":39,"Duration":159184,"SoundDuration":159184,"Delta":151499510},{"NoteNumber":76,"Velocity":50,"Duration":157018,"SoundDuration":157018,"Delta":151658695},{"NoteNumber":61,"Velocity":39,"Duration":157018,"SoundDuration":157018,"Delta":151658695},{"NoteNumber":71,"Velocity":35,"Duration":163702,"SoundDuration":163702,"Delta":151815713},{"NoteNumber":78,"Velocity":48,"Duration":163702,"SoundDuration":163702,"Delta":151815713},{"NoteNumber":62,"Velocity":38,"Duration":163702,"SoundDuration":163702,"Delta":151815713},{"NoteNumber":79,"Velocity":53,"Duration":320136,"SoundDuration":320136,"Delta":151979415},{"NoteNumber":52,"Velocity":38,"Duration":636759,"SoundDuration":636759,"Delta":151979415},{"NoteNumber":64,"Velocity":42,"Duration":320136,"SoundDuration":320136,"Delta":151979415},{"NoteNumber":67,"Velocity":37,"Duration":160068,"SoundDuration":160068,"Delta":152139484},{"NoteNumber":76,"Velocity":52,"Duration":316622,"SoundDuration":316622,"Delta":152299552},{"NoteNumber":61,"Velocity":41,"Duration":316622,"SoundDuration":316622,"Delta":152299552},{"NoteNumber":67,"Velocity":36,"Duration":158311,"SoundDuration":158311,"Delta":152457864},{"NoteNumber":73,"Velocity":51,"Duration":338581,"SoundDuration":338581,"Delta":152616175},{"NoteNumber":54,"Velocity":40,"Duration":338581,"SoundDuration":338581,"Delta":152616175},{"NoteNumber":58,"Velocity":40,"Duration":338581,"SoundDuration":338581,"Delta":152616175},{"NoteNumber":64,"Velocity":28,"Duration":169290,"SoundDuration":169290,"Delta":152785466},{"NoteNumber":62,"Velocity":40,"Duration":1015742,"SoundDuration":1015742,"Delta":152954756},{"NoteNumber":71,"Velocity":48,"Duration":1015742,"SoundDuration":1015742,"Delta":152954756},{"NoteNumber":47,"Velocity":31,"Duration":169290,"SoundDuration":169290,"Delta":152954756},{"NoteNumber":59,"Velocity":38,"Duration":169290,"SoundDuration":169290,"Delta":152954756},{"NoteNumber":54,"Velocity":38,"Duration":338581,"SoundDuration":338581,"Delta":153124047},{"NoteNumber":54,"Velocity":33,"Duration":338581,"SoundDuration":338581,"Delta":153462628},{"NoteNumber":54,"Velocity":33,"Duration":169290,"SoundDuration":169290,"Delta":153801209},{"NoteNumber":74,"Velocity":52,"Duration":80932,"SoundDuration":80932,"Delta":153970499},{"NoteNumber":67,"Velocity":52,"Duration":961260,"SoundDuration":961260,"Delta":153970499},{"NoteNumber":45,"Velocity":38,"Duration":961260,"SoundDuration":961260,"Delta":153970499},{"NoteNumber":52,"Velocity":38,"Duration":322825,"SoundDuration":322825,"Delta":153970499},{"NoteNumber":73,"Velocity":48,"Duration":80781,"SoundDuration":80781,"Delta":154051432},{"NoteNumber":74,"Velocity":53,"Duration":80630,"SoundDuration":80630,"Delta":154132213},{"NoteNumber":73,"Velocity":49,"Duration":80480,"SoundDuration":80480,"Delta":154212844},{"NoteNumber":74,"Velocity":56,"Duration":80256,"SoundDuration":80256,"Delta":154293325},{"NoteNumber":52,"Velocity":39,"Duration":320064,"SoundDuration":320064,"Delta":154293325},{"NoteNumber":73,"Velocity":50,"Duration":80108,"SoundDuration":80108,"Delta":154373581},{"NoteNumber":74,"Velocity":57,"Duration":79960,"SoundDuration":79960,"Delta":154453690},{"NoteNumber":73,"Velocity":51,"Duration":79739,"SoundDuration":79739,"Delta":154533650},{"NoteNumber":74,"Velocity":57,"Duration":79592,"SoundDuration":79592,"Delta":154613390},{"NoteNumber":52,"Velocity":41,"Duration":318369,"SoundDuration":318369,"Delta":154613390},{"NoteNumber":73,"Velocity":52,"Duration":79592,"SoundDuration":79592,"Delta":154692982},{"NoteNumber":71,"Velocity":58,"Duration":79592,"SoundDuration":79592,"Delta":154772575},{"NoteNumber":73,"Velocity":51,"Duration":79592,"SoundDuration":79592,"Delta":154852167},{"NoteNumber":66,"Velocity":57,"Duration":322823,"SoundDuration":322823,"Delta":154931760},{"NoteNumber":74,"Velocity":57,"Duration":322823,"SoundDuration":322823,"Delta":154931760},{"NoteNumber":54,"Velocity":42,"Duration":322823,"SoundDuration":322823,"Delta":154931760},{"NoteNumber":50,"Velocity":42,"Duration":322823,"SoundDuration":322823,"Delta":154931760},{"NoteNumber":74,"Velocity":55,"Duration":158747,"SoundDuration":158747,"Delta":155254584},{"NoteNumber":54,"Velocity":38,"Duration":317494,"SoundDuration":317494,"Delta":155254584},{"NoteNumber":76,"Velocity":49,"Duration":158747,"SoundDuration":158747,"Delta":155413331},{"NoteNumber":64,"Velocity":52,"Duration":324639,"SoundDuration":324639,"Delta":155572078},{"NoteNumber":73,"Velocity":52,"Duration":324639,"SoundDuration":324639,"Delta":155572078},{"NoteNumber":54,"Velocity":31,"Duration":324639,"SoundDuration":324639,"Delta":155572078},{"NoteNumber":58,"Velocity":31,"Duration":324639,"SoundDuration":324639,"Delta":155572078},{"NoteNumber":62,"Velocity":46,"Duration":980941,"SoundDuration":980941,"Delta":155896718},{"NoteNumber":71,"Velocity":46,"Duration":980941,"SoundDuration":980941,"Delta":155896718},{"NoteNumber":47,"Velocity":38,"Duration":328766,"SoundDuration":328766,"Delta":155896718},{"NoteNumber":55,"Velocity":38,"Duration":328766,"SoundDuration":328766,"Delta":155896718},{"NoteNumber":59,"Velocity":38,"Duration":328766,"SoundDuration":328766,"Delta":155896718},{"NoteNumber":47,"Velocity":48,"Duration":163043,"SoundDuration":163043,"Delta":156225485},{"NoteNumber":46,"Velocity":41,"Duration":163043,"SoundDuration":163043,"Delta":156388528},{"NoteNumber":47,"Velocity":38,"Duration":326087,"SoundDuration":326087,"Delta":156551572},{"NoteNumber":74,"Velocity":52,"Duration":80932,"SoundDuration":80932,"Delta":156877659},{"NoteNumber":67,"Velocity":52,"Duration":961260,"SoundDuration":961260,"Delta":156877659},{"NoteNumber":45,"Velocity":38,"Duration":961260,"SoundDuration":961260,"Delta":156877659},{"NoteNumber":52,"Velocity":38,"Duration":161713,"SoundDuration":161713,"Delta":156877659},{"NoteNumber":73,"Velocity":48,"Duration":80781,"SoundDuration":80781,"Delta":156958591},{"NoteNumber":74,"Velocity":53,"Duration":80630,"SoundDuration":80630,"Delta":157039372},{"NoteNumber":52,"Velocity":45,"Duration":321476,"SoundDuration":321476,"Delta":157039372},{"NoteNumber":73,"Velocity":49,"Duration":80480,"SoundDuration":80480,"Delta":157120003},{"NoteNumber":74,"Velocity":56,"Duration":80256,"SoundDuration":80256,"Delta":157200484},{"NoteNumber":73,"Velocity":50,"Duration":80108,"SoundDuration":80108,"Delta":157280741},{"NoteNumber":74,"Velocity":57,"Duration":79960,"SoundDuration":79960,"Delta":157360849},{"NoteNumber":52,"Velocity":38,"Duration":318884,"SoundDuration":318884,"Delta":157360849},{"NoteNumber":73,"Velocity":51,"Duration":79739,"SoundDuration":79739,"Delta":157440810},{"NoteNumber":74,"Velocity":57,"Duration":79592,"SoundDuration":79592,"Delta":157520549},{"NoteNumber":73,"Velocity":52,"Duration":79592,"SoundDuration":79592,"Delta":157600141},{"NoteNumber":71,"Velocity":58,"Duration":79592,"SoundDuration":79592,"Delta":157679734},{"NoteNumber":52,"Velocity":38,"Duration":159184,"SoundDuration":159184,"Delta":157679734},{"NoteNumber":73,"Velocity":51,"Duration":79592,"SoundDuration":79592,"Delta":157759326},{"NoteNumber":74,"Velocity":57,"Duration":326477,"SoundDuration":326477,"Delta":157838919},{"NoteNumber":54,"Velocity":42,"Duration":326477,"SoundDuration":326477,"Delta":157838919},{"NoteNumber":50,"Velocity":42,"Duration":326477,"SoundDuration":326477,"Delta":157838919},{"NoteNumber":66,"Velocity":57,"Duration":163238,"SoundDuration":163238,"Delta":158002157},{"NoteNumber":74,"Velocity":55,"Duration":161412,"SoundDuration":161412,"Delta":158165396},{"NoteNumber":54,"Velocity":38,"Duration":322823,"SoundDuration":322823,"Delta":158165396},{"NoteNumber":66,"Velocity":57,"Duration":329413,"SoundDuration":329413,"Delta":158326808},{"NoteNumber":76,"Velocity":49,"Duration":161411,"SoundDuration":161411,"Delta":158326808},{"NoteNumber":73,"Velocity":52,"Duration":336003,"SoundDuration":336003,"Delta":158488220},{"NoteNumber":54,"Velocity":31,"Duration":336003,"SoundDuration":336003,"Delta":158488220},{"NoteNumber":58,"Velocity":31,"Duration":336003,"SoundDuration":336003,"Delta":158488220},{"NoteNumber":64,"Velocity":45,"Duration":168001,"SoundDuration":168001,"Delta":158656221},{"NoteNumber":71,"Velocity":46,"Duration":1020088,"SoundDuration":1020088,"Delta":158824223},{"NoteNumber":47,"Velocity":38,"Duration":169481,"SoundDuration":169481,"Delta":158824223},{"NoteNumber":54,"Velocity":28,"Duration":338297,"SoundDuration":338297,"Delta":158993705},{"NoteNumber":62,"Velocity":29,"Duration":338507,"SoundDuration":338507,"Delta":159163187},{"NoteNumber":66,"Velocity":29,"Duration":338507,"SoundDuration":338507,"Delta":159163187},{"NoteNumber":54,"Velocity":26,"Duration":340470,"SoundDuration":340470,"Delta":159332003},{"NoteNumber":62,"Velocity":27,"Duration":342617,"SoundDuration":342617,"Delta":159501695},{"NoteNumber":66,"Velocity":27,"Duration":342617,"SoundDuration":342617,"Delta":159501695},{"NoteNumber":54,"Velocity":25,"Duration":171838,"SoundDuration":171838,"Delta":159672473},{"NoteNumber":62,"Velocity":26,"Duration":346115,"SoundDuration":346115,"Delta":159844312},{"NoteNumber":66,"Velocity":26,"Duration":346115,"SoundDuration":346115,"Delta":159844312},{"NoteNumber":47,"Velocity":23,"Duration":1053016,"SoundDuration":1053016,"Delta":159844312},{"NoteNumber":54,"Velocity":23,"Duration":347913,"SoundDuration":347913,"Delta":160016933},{"NoteNumber":62,"Velocity":25,"Duration":349644,"SoundDuration":349644,"Delta":160190427},{"NoteNumber":66,"Velocity":25,"Duration":349644,"SoundDuration":349644,"Delta":160190427},{"NoteNumber":54,"Velocity":20,"Duration":350663,"SoundDuration":350663,"Delta":160364846},{"NoteNumber":62,"Velocity":23,"Duration":357256,"SoundDuration":357256,"Delta":160540072},{"NoteNumber":66,"Velocity":23,"Duration":357256,"SoundDuration":357256,"Delta":160540072},{"NoteNumber":54,"Velocity":19,"Duration":181817,"SoundDuration":181817,"Delta":160715510},{"NoteNumber":78,"Velocity":59,"Duration":325556,"SoundDuration":325556,"Delta":160897328},{"NoteNumber":47,"Velocity":38,"Duration":1914591,"SoundDuration":1914591,"Delta":160897328},{"NoteNumber":62,"Velocity":47,"Duration":325556,"SoundDuration":325556,"Delta":160897328},{"NoteNumber":71,"Velocity":39,"Duration":321963,"SoundDuration":321963,"Delta":161060106},{"NoteNumber":79,"Velocity":52,"Duration":159185,"SoundDuration":159185,"Delta":161222884},{"NoteNumber":64,"Velocity":41,"Duration":159185,"SoundDuration":159185,"Delta":161222884},{"NoteNumber":71,"Velocity":35,"Duration":316203,"SoundDuration":316203,"Delta":161382069},{"NoteNumber":78,"Velocity":47,"Duration":159184,"SoundDuration":159184,"Delta":161382069},{"NoteNumber":62,"Velocity":39,"Duration":159184,"SoundDuration":159184,"Delta":161382069},{"NoteNumber":76,"Velocity":50,"Duration":157018,"SoundDuration":157018,"Delta":161541254},{"NoteNumber":61,"Velocity":39,"Duration":157018,"SoundDuration":157018,"Delta":161541254},{"NoteNumber":71,"Velocity":35,"Duration":163702,"SoundDuration":163702,"Delta":161698273},{"NoteNumber":78,"Velocity":48,"Duration":163702,"SoundDuration":163702,"Delta":161698273},{"NoteNumber":62,"Velocity":38,"Duration":163702,"SoundDuration":163702,"Delta":161698273},{"NoteNumber":79,"Velocity":53,"Duration":320136,"SoundDuration":320136,"Delta":161861975},{"NoteNumber":64,"Velocity":42,"Duration":320136,"SoundDuration":320136,"Delta":161861975},{"NoteNumber":71,"Velocity":37,"Duration":318379,"SoundDuration":318379,"Delta":162022043},{"NoteNumber":83,"Velocity":52,"Duration":316622,"SoundDuration":316622,"Delta":162182112},{"NoteNumber":61,"Velocity":41,"Duration":316622,"SoundDuration":316622,"Delta":162182112},{"NoteNumber":71,"Velocity":36,"Duration":314903,"SoundDuration":314903,"Delta":162340423},{"NoteNumber":76,"Velocity":51,"Duration":313185,"SoundDuration":313185,"Delta":162498735},{"NoteNumber":64,"Velocity":40,"Duration":313185,"SoundDuration":313185,"Delta":162498735},{"NoteNumber":71,"Velocity":28,"Duration":156592,"SoundDuration":156592,"Delta":162655327},{"NoteNumber":78,"Velocity":59,"Duration":325556,"SoundDuration":325556,"Delta":162811920},{"NoteNumber":47,"Velocity":38,"Duration":964646,"SoundDuration":964646,"Delta":162811920},{"NoteNumber":62,"Velocity":47,"Duration":325556,"SoundDuration":325556,"Delta":162811920},{"NoteNumber":71,"Velocity":39,"Duration":162778,"SoundDuration":162778,"Delta":162974698},{"NoteNumber":79,"Velocity":52,"Duration":159185,"SoundDuration":159185,"Delta":163137476},{"NoteNumber":64,"Velocity":41,"Duration":159185,"SoundDuration":159185,"Delta":163137476},{"NoteNumber":71,"Velocity":35,"Duration":159184,"SoundDuration":159184,"Delta":163296661},{"NoteNumber":78,"Velocity":47,"Duration":159184,"SoundDuration":159184,"Delta":163296661},{"NoteNumber":62,"Velocity":39,"Duration":159184,"SoundDuration":159184,"Delta":163296661},{"NoteNumber":76,"Velocity":50,"Duration":157018,"SoundDuration":157018,"Delta":163455846},{"NoteNumber":61,"Velocity":39,"Duration":157018,"SoundDuration":157018,"Delta":163455846},{"NoteNumber":71,"Velocity":35,"Duration":163702,"SoundDuration":163702,"Delta":163612864},{"NoteNumber":78,"Velocity":48,"Duration":163702,"SoundDuration":163702,"Delta":163612864},{"NoteNumber":62,"Velocity":38,"Duration":163702,"SoundDuration":163702,"Delta":163612864},{"NoteNumber":79,"Velocity":53,"Duration":320136,"SoundDuration":320136,"Delta":163776566},{"NoteNumber":52,"Velocity":38,"Duration":636759,"SoundDuration":636759,"Delta":163776566},{"NoteNumber":64,"Velocity":42,"Duration":320136,"SoundDuration":320136,"Delta":163776566},{"NoteNumber":67,"Velocity":37,"Duration":160068,"SoundDuration":160068,"Delta":163936635},{"NoteNumber":76,"Velocity":52,"Duration":316622,"SoundDuration":316622,"Delta":164096703},{"NoteNumber":61,"Velocity":41,"Duration":316622,"SoundDuration":316622,"Delta":164096703},{"NoteNumber":67,"Velocity":36,"Duration":158311,"SoundDuration":158311,"Delta":164255015},{"NoteNumber":73,"Velocity":51,"Duration":338581,"SoundDuration":338581,"Delta":164413326},{"NoteNumber":54,"Velocity":40,"Duration":338581,"SoundDuration":338581,"Delta":164413326},{"NoteNumber":58,"Velocity":40,"Duration":338581,"SoundDuration":338581,"Delta":164413326},{"NoteNumber":64,"Velocity":28,"Duration":169290,"SoundDuration":169290,"Delta":164582617},{"NoteNumber":62,"Velocity":40,"Duration":1015742,"SoundDuration":1015742,"Delta":164751907},{"NoteNumber":71,"Velocity":48,"Duration":1015742,"SoundDuration":1015742,"Delta":164751907},{"NoteNumber":47,"Velocity":31,"Duration":169290,"SoundDuration":169290,"Delta":164751907},{"NoteNumber":59,"Velocity":38,"Duration":169290,"SoundDuration":169290,"Delta":164751907},{"NoteNumber":54,"Velocity":38,"Duration":338581,"SoundDuration":338581,"Delta":164921198},{"NoteNumber":54,"Velocity":33,"Duration":338581,"SoundDuration":338581,"Delta":165259779},{"NoteNumber":54,"Velocity":33,"Duration":169290,"SoundDuration":169290,"Delta":165598360},{"NoteNumber":74,"Velocity":52,"Duration":80932,"SoundDuration":80932,"Delta":165767650},{"NoteNumber":67,"Velocity":52,"Duration":961260,"SoundDuration":961260,"Delta":165767650},{"NoteNumber":45,"Velocity":38,"Duration":961260,"SoundDuration":961260,"Delta":165767650},{"NoteNumber":52,"Velocity":38,"Duration":322825,"SoundDuration":322825,"Delta":165767650},{"NoteNumber":73,"Velocity":48,"Duration":80781,"SoundDuration":80781,"Delta":165848582},{"NoteNumber":74,"Velocity":53,"Duration":80630,"SoundDuration":80630,"Delta":165929364},{"NoteNumber":73,"Velocity":49,"Duration":80480,"SoundDuration":80480,"Delta":166009995},{"NoteNumber":74,"Velocity":56,"Duration":80256,"SoundDuration":80256,"Delta":166090475},{"NoteNumber":52,"Velocity":39,"Duration":320064,"SoundDuration":320064,"Delta":166090475},{"NoteNumber":73,"Velocity":50,"Duration":80108,"SoundDuration":80108,"Delta":166170732},{"NoteNumber":74,"Velocity":57,"Duration":79960,"SoundDuration":79960,"Delta":166250841},{"NoteNumber":73,"Velocity":51,"Duration":79739,"SoundDuration":79739,"Delta":166330801},{"NoteNumber":74,"Velocity":57,"Duration":79592,"SoundDuration":79592,"Delta":166410540},{"NoteNumber":52,"Velocity":41,"Duration":318370,"SoundDuration":318370,"Delta":166410540},{"NoteNumber":73,"Velocity":52,"Duration":79592,"SoundDuration":79592,"Delta":166490133},{"NoteNumber":71,"Velocity":58,"Duration":79592,"SoundDuration":79592,"Delta":166569725},{"NoteNumber":73,"Velocity":51,"Duration":79592,"SoundDuration":79592,"Delta":166649318},{"NoteNumber":66,"Velocity":57,"Duration":322823,"SoundDuration":322823,"Delta":166728910},{"NoteNumber":74,"Velocity":57,"Duration":322823,"SoundDuration":322823,"Delta":166728910},{"NoteNumber":54,"Velocity":42,"Duration":322823,"SoundDuration":322823,"Delta":166728910},{"NoteNumber":50,"Velocity":42,"Duration":322823,"SoundDuration":322823,"Delta":166728910},{"NoteNumber":74,"Velocity":55,"Duration":158747,"SoundDuration":158747,"Delta":167051734},{"NoteNumber":54,"Velocity":38,"Duration":317494,"SoundDuration":317494,"Delta":167051734},{"NoteNumber":76,"Velocity":49,"Duration":158747,"SoundDuration":158747,"Delta":167210481},{"NoteNumber":64,"Velocity":52,"Duration":324639,"SoundDuration":324639,"Delta":167369228},{"NoteNumber":73,"Velocity":52,"Duration":324639,"SoundDuration":324639,"Delta":167369228},{"NoteNumber":54,"Velocity":31,"Duration":324639,"SoundDuration":324639,"Delta":167369228},{"NoteNumber":58,"Velocity":31,"Duration":324639,"SoundDuration":324639,"Delta":167369228},{"NoteNumber":62,"Velocity":46,"Duration":965269,"SoundDuration":965269,"Delta":167693868},{"NoteNumber":71,"Velocity":46,"Duration":965269,"SoundDuration":965269,"Delta":167693868},{"NoteNumber":47,"Velocity":38,"Duration":318369,"SoundDuration":318369,"Delta":167693868},{"NoteNumber":55,"Velocity":38,"Duration":318369,"SoundDuration":318369,"Delta":167693868},{"NoteNumber":59,"Velocity":38,"Duration":318369,"SoundDuration":318369,"Delta":167693868},{"NoteNumber":47,"Velocity":47,"Duration":161724,"SoundDuration":161724,"Delta":168012238},{"NoteNumber":46,"Velocity":41,"Duration":161725,"SoundDuration":161725,"Delta":168173963},{"NoteNumber":47,"Velocity":38,"Duration":323449,"SoundDuration":323449,"Delta":168335688},{"NoteNumber":74,"Velocity":52,"Duration":80932,"SoundDuration":80932,"Delta":168659138},{"NoteNumber":67,"Velocity":52,"Duration":961260,"SoundDuration":961260,"Delta":168659138},{"NoteNumber":45,"Velocity":38,"Duration":961260,"SoundDuration":961260,"Delta":168659138},{"NoteNumber":52,"Velocity":38,"Duration":161713,"SoundDuration":161713,"Delta":168659138},{"NoteNumber":73,"Velocity":48,"Duration":80781,"SoundDuration":80781,"Delta":168740071},{"NoteNumber":74,"Velocity":53,"Duration":80630,"SoundDuration":80630,"Delta":168820852},{"NoteNumber":52,"Velocity":47,"Duration":321476,"SoundDuration":321476,"Delta":168820852},{"NoteNumber":73,"Velocity":49,"Duration":80480,"SoundDuration":80480,"Delta":168901483},{"NoteNumber":74,"Velocity":56,"Duration":80256,"SoundDuration":80256,"Delta":168981964},{"NoteNumber":73,"Velocity":50,"Duration":80108,"SoundDuration":80108,"Delta":169062220},{"NoteNumber":74,"Velocity":57,"Duration":79960,"SoundDuration":79960,"Delta":169142329},{"NoteNumber":52,"Velocity":38,"Duration":318884,"SoundDuration":318884,"Delta":169142329},{"NoteNumber":73,"Velocity":51,"Duration":79739,"SoundDuration":79739,"Delta":169222289},{"NoteNumber":74,"Velocity":57,"Duration":79592,"SoundDuration":79592,"Delta":169302029},{"NoteNumber":73,"Velocity":52,"Duration":79592,"SoundDuration":79592,"Delta":169381621},{"NoteNumber":71,"Velocity":58,"Duration":79592,"SoundDuration":79592,"Delta":169461214},{"NoteNumber":52,"Velocity":38,"Duration":159185,"SoundDuration":159185,"Delta":169461214},{"NoteNumber":73,"Velocity":51,"Duration":79592,"SoundDuration":79592,"Delta":169540806},{"NoteNumber":74,"Velocity":57,"Duration":326477,"SoundDuration":326477,"Delta":169620399},{"NoteNumber":54,"Velocity":42,"Duration":326477,"SoundDuration":326477,"Delta":169620399},{"NoteNumber":50,"Velocity":42,"Duration":326477,"SoundDuration":326477,"Delta":169620399},{"NoteNumber":66,"Velocity":57,"Duration":163238,"SoundDuration":163238,"Delta":169783637},{"NoteNumber":74,"Velocity":55,"Duration":161412,"SoundDuration":161412,"Delta":169946876},{"NoteNumber":54,"Velocity":38,"Duration":322823,"SoundDuration":322823,"Delta":169946876},{"NoteNumber":66,"Velocity":57,"Duration":329413,"SoundDuration":329413,"Delta":170108288},{"NoteNumber":76,"Velocity":49,"Duration":161411,"SoundDuration":161411,"Delta":170108288},{"NoteNumber":73,"Velocity":52,"Duration":336003,"SoundDuration":336003,"Delta":170269700},{"NoteNumber":54,"Velocity":31,"Duration":336003,"SoundDuration":336003,"Delta":170269700},{"NoteNumber":58,"Velocity":31,"Duration":336003,"SoundDuration":336003,"Delta":170269700},{"NoteNumber":64,"Velocity":45,"Duration":168001,"SoundDuration":168001,"Delta":170437701},{"NoteNumber":71,"Velocity":46,"Duration":1020088,"SoundDuration":1020088,"Delta":170605703},{"NoteNumber":47,"Velocity":38,"Duration":169481,"SoundDuration":169481,"Delta":170605703},{"NoteNumber":54,"Velocity":28,"Duration":338297,"SoundDuration":338297,"Delta":170775185},{"NoteNumber":62,"Velocity":29,"Duration":338507,"SoundDuration":338507,"Delta":170944667},{"NoteNumber":66,"Velocity":29,"Duration":338507,"SoundDuration":338507,"Delta":170944667},{"NoteNumber":54,"Velocity":26,"Duration":340470,"SoundDuration":340470,"Delta":171113482},{"NoteNumber":62,"Velocity":27,"Duration":342617,"SoundDuration":342617,"Delta":171283174},{"NoteNumber":66,"Velocity":27,"Duration":342617,"SoundDuration":342617,"Delta":171283174},{"NoteNumber":54,"Velocity":25,"Duration":171838,"SoundDuration":171838,"Delta":171453953},{"NoteNumber":62,"Velocity":26,"Duration":346115,"SoundDuration":346115,"Delta":171625791},{"NoteNumber":66,"Velocity":26,"Duration":346115,"SoundDuration":346115,"Delta":171625791},{"NoteNumber":47,"Velocity":23,"Duration":1071971,"SoundDuration":1071971,"Delta":171625791},{"NoteNumber":54,"Velocity":23,"Duration":347913,"SoundDuration":347913,"Delta":171798412},{"NoteNumber":62,"Velocity":25,"Duration":349687,"SoundDuration":349687,"Delta":171971907},{"NoteNumber":66,"Velocity":25,"Duration":349687,"SoundDuration":349687,"Delta":171971907},{"NoteNumber":54,"Velocity":20,"Duration":351436,"SoundDuration":351436,"Delta":172146326},{"NoteNumber":62,"Velocity":23,"Duration":376168,"SoundDuration":376168,"Delta":172321594},{"NoteNumber":66,"Velocity":23,"Duration":376168,"SoundDuration":376168,"Delta":172321594},{"NoteNumber":54,"Velocity":19,"Duration":199999,"SoundDuration":199999,"Delta":172497763},{"NoteNumber":86,"Velocity":98,"Duration":306521,"SoundDuration":306521,"Delta":172697763},{"NoteNumber":74,"Velocity":82,"Duration":306521,"SoundDuration":306521,"Delta":172697763},{"NoteNumber":38,"Velocity":61,"Duration":914013,"SoundDuration":914013,"Delta":172697763},{"NoteNumber":45,"Velocity":73,"Duration":914013,"SoundDuration":914013,"Delta":172697763},{"NoteNumber":88,"Velocity":93,"Duration":151461,"SoundDuration":151461,"Delta":173004284},{"NoteNumber":76,"Velocity":78,"Duration":151461,"SoundDuration":151461,"Delta":173004284},{"NoteNumber":50,"Velocity":69,"Duration":607491,"SoundDuration":607491,"Delta":173004284},{"NoteNumber":54,"Velocity":69,"Duration":607491,"SoundDuration":607491,"Delta":173004284},{"NoteNumber":57,"Velocity":81,"Duration":607491,"SoundDuration":607491,"Delta":173004284},{"NoteNumber":86,"Velocity":89,"Duration":151461,"SoundDuration":151461,"Delta":173155746},{"NoteNumber":74,"Velocity":75,"Duration":151461,"SoundDuration":151461,"Delta":173155746},{"NoteNumber":85,"Velocity":88,"Duration":152284,"SoundDuration":152284,"Delta":173307207},{"NoteNumber":73,"Velocity":74,"Duration":152284,"SoundDuration":152284,"Delta":173307207},{"NoteNumber":86,"Velocity":87,"Duration":152284,"SoundDuration":152284,"Delta":173459492},{"NoteNumber":74,"Velocity":74,"Duration":152284,"SoundDuration":152284,"Delta":173459492},{"NoteNumber":88,"Velocity":97,"Duration":316189,"SoundDuration":316189,"Delta":173611776},{"NoteNumber":76,"Velocity":81,"Duration":316189,"SoundDuration":316189,"Delta":173611776},{"NoteNumber":38,"Velocity":61,"Duration":943361,"SoundDuration":943361,"Delta":173611776},{"NoteNumber":45,"Velocity":73,"Duration":943361,"SoundDuration":943361,"Delta":173611776},{"NoteNumber":91,"Velocity":89,"Duration":311781,"SoundDuration":311781,"Delta":173927965},{"NoteNumber":79,"Velocity":75,"Duration":311781,"SoundDuration":311781,"Delta":173927965},{"NoteNumber":49,"Velocity":67,"Duration":627172,"SoundDuration":627172,"Delta":173927965},{"NoteNumber":57,"Velocity":80,"Duration":627172,"SoundDuration":627172,"Delta":173927965},{"NoteNumber":55,"Velocity":67,"Duration":627172,"SoundDuration":627172,"Delta":173927965},{"NoteNumber":90,"Velocity":87,"Duration":315391,"SoundDuration":315391,"Delta":174239747},{"NoteNumber":78,"Velocity":74,"Duration":315391,"SoundDuration":315391,"Delta":174239747},{"NoteNumber":86,"Velocity":98,"Duration":306716,"SoundDuration":306716,"Delta":174555138},{"NoteNumber":74,"Velocity":82,"Duration":306716,"SoundDuration":306716,"Delta":174555138},{"NoteNumber":38,"Velocity":61,"Duration":911946,"SoundDuration":911946,"Delta":174555138},{"NoteNumber":45,"Velocity":73,"Duration":911946,"SoundDuration":911946,"Delta":174555138},{"NoteNumber":88,"Velocity":89,"Duration":150715,"SoundDuration":150715,"Delta":174861855},{"NoteNumber":76,"Velocity":75,"Duration":150715,"SoundDuration":150715,"Delta":174861855},{"NoteNumber":50,"Velocity":66,"Duration":605229,"SoundDuration":605229,"Delta":174861855},{"NoteNumber":54,"Velocity":66,"Duration":605229,"SoundDuration":605229,"Delta":174861855},{"NoteNumber":57,"Velocity":78,"Duration":605229,"SoundDuration":605229,"Delta":174861855},{"NoteNumber":86,"Velocity":87,"Duration":150716,"SoundDuration":150716,"Delta":175012571},{"NoteNumber":74,"Velocity":74,"Duration":150716,"SoundDuration":150716,"Delta":175012571},{"NoteNumber":85,"Velocity":86,"Duration":151898,"SoundDuration":151898,"Delta":175163287},{"NoteNumber":73,"Velocity":72,"Duration":151898,"SoundDuration":151898,"Delta":175163287},{"NoteNumber":86,"Velocity":85,"Duration":151898,"SoundDuration":151898,"Delta":175315185},{"NoteNumber":74,"Velocity":72,"Duration":151898,"SoundDuration":151898,"Delta":175315185},{"NoteNumber":88,"Velocity":96,"Duration":316189,"SoundDuration":316189,"Delta":175467084},{"NoteNumber":76,"Velocity":81,"Duration":316189,"SoundDuration":316189,"Delta":175467084},{"NoteNumber":38,"Velocity":61,"Duration":941345,"SoundDuration":941345,"Delta":175467084},{"NoteNumber":45,"Velocity":73,"Duration":941345,"SoundDuration":941345,"Delta":175467084},{"NoteNumber":91,"Velocity":88,"Duration":311381,"SoundDuration":311381,"Delta":175783273},{"NoteNumber":79,"Velocity":74,"Duration":311381,"SoundDuration":311381,"Delta":175783273},{"NoteNumber":49,"Velocity":65,"Duration":625156,"SoundDuration":625156,"Delta":175783273},{"NoteNumber":55,"Velocity":65,"Duration":625156,"SoundDuration":625156,"Delta":175783273},{"NoteNumber":57,"Velocity":77,"Duration":625156,"SoundDuration":625156,"Delta":175783273},{"NoteNumber":90,"Velocity":87,"Duration":313774,"SoundDuration":313774,"Delta":176094654},{"NoteNumber":78,"Velocity":74,"Duration":313774,"SoundDuration":313774,"Delta":176094654},{"NoteNumber":86,"Velocity":96,"Duration":306716,"SoundDuration":306716,"Delta":176408429},{"NoteNumber":74,"Velocity":81,"Duration":306716,"SoundDuration":306716,"Delta":176408429},{"NoteNumber":38,"Velocity":61,"Duration":906659,"SoundDuration":906659,"Delta":176408429},{"NoteNumber":45,"Velocity":73,"Duration":906659,"SoundDuration":906659,"Delta":176408429},{"NoteNumber":76,"Velocity":74,"Duration":151087,"SoundDuration":151087,"Delta":176715146},{"NoteNumber":88,"Velocity":87,"Duration":151087,"SoundDuration":151087,"Delta":176715146},{"NoteNumber":50,"Velocity":77,"Duration":599942,"SoundDuration":599942,"Delta":176715146},{"NoteNumber":54,"Velocity":77,"Duration":599942,"SoundDuration":599942,"Delta":176715146},{"NoteNumber":57,"Velocity":77,"Duration":599942,"SoundDuration":599942,"Delta":176715146},{"NoteNumber":78,"Velocity":74,"Duration":151088,"SoundDuration":151088,"Delta":176866234},{"NoteNumber":90,"Velocity":88,"Duration":151088,"SoundDuration":151088,"Delta":176866234},{"NoteNumber":81,"Velocity":77,"Duration":148883,"SoundDuration":148883,"Delta":177017322},{"NoteNumber":93,"Velocity":92,"Duration":148883,"SoundDuration":148883,"Delta":177017322},{"NoteNumber":84,"Velocity":78,"Duration":148883,"SoundDuration":148883,"Delta":177166205},{"NoteNumber":96,"Velocity":93,"Duration":148883,"SoundDuration":148883,"Delta":177166205},{"NoteNumber":88,"Velocity":80,"Duration":306121,"SoundDuration":306121,"Delta":177315089},{"NoteNumber":100,"Velocity":94,"Duration":306121,"SoundDuration":306121,"Delta":177315089},{"NoteNumber":38,"Velocity":61,"Duration":922071,"SoundDuration":922071,"Delta":177315089},{"NoteNumber":45,"Velocity":73,"Duration":922071,"SoundDuration":922071,"Delta":177315089},{"NoteNumber":91,"Velocity":78,"Duration":304568,"SoundDuration":304568,"Delta":177621211},{"NoteNumber":103,"Velocity":93,"Duration":304568,"SoundDuration":304568,"Delta":177621211},{"NoteNumber":64,"Velocity":81,"Duration":304568,"SoundDuration":304568,"Delta":177621211},{"NoteNumber":60,"Velocity":69,"Duration":304568,"SoundDuration":304568,"Delta":177621211},{"NoteNumber":55,"Velocity":69,"Duration":304568,"SoundDuration":304568,"Delta":177621211},{"NoteNumber":90,"Velocity":78,"Duration":311381,"SoundDuration":311381,"Delta":177925780},{"NoteNumber":102,"Velocity":93,"Duration":311381,"SoundDuration":311381,"Delta":177925780},{"NoteNumber":62,"Velocity":73,"Duration":311381,"SoundDuration":311381,"Delta":177925780},{"NoteNumber":60,"Velocity":61,"Duration":311381,"SoundDuration":311381,"Delta":177925780},{"NoteNumber":54,"Velocity":61,"Duration":311381,"SoundDuration":311381,"Delta":177925780},{"NoteNumber":90,"Velocity":60,"Duration":304428,"SoundDuration":304428,"Delta":178237161},{"NoteNumber":102,"Velocity":94,"Duration":304428,"SoundDuration":304428,"Delta":178237161},{"NoteNumber":38,"Velocity":61,"Duration":914819,"SoundDuration":914819,"Delta":178237161},{"NoteNumber":45,"Velocity":73,"Duration":914819,"SoundDuration":914819,"Delta":178237161},{"NoteNumber":91,"Velocity":57,"Duration":151837,"SoundDuration":151837,"Delta":178541590},{"NoteNumber":103,"Velocity":86,"Duration":151837,"SoundDuration":151837,"Delta":178541590},{"NoteNumber":62,"Velocity":80,"Duration":610390,"SoundDuration":610390,"Delta":178541590},{"NoteNumber":59,"Velocity":67,"Duration":610390,"SoundDuration":610390,"Delta":178541590},{"NoteNumber":55,"Velocity":67,"Duration":610390,"SoundDuration":610390,"Delta":178541590},{"NoteNumber":90,"Velocity":57,"Duration":151837,"SoundDuration":151837,"Delta":178693427},{"NoteNumber":102,"Velocity":86,"Duration":151837,"SoundDuration":151837,"Delta":178693427},{"NoteNumber":88,"Velocity":55,"Duration":153358,"SoundDuration":153358,"Delta":178845264},{"NoteNumber":100,"Velocity":85,"Duration":153358,"SoundDuration":153358,"Delta":178845264},{"NoteNumber":86,"Velocity":55,"Duration":153358,"SoundDuration":153358,"Delta":178998622},{"NoteNumber":98,"Velocity":85,"Duration":153358,"SoundDuration":153358,"Delta":178998622},{"NoteNumber":85,"Velocity":77,"Duration":270395,"SoundDuration":270395,"Delta":179151981},{"NoteNumber":97,"Velocity":92,"Duration":270395,"SoundDuration":270395,"Delta":179151981},{"NoteNumber":38,"Velocity":61,"Duration":918662,"SoundDuration":918662,"Delta":179151981},{"NoteNumber":45,"Velocity":73,"Duration":918662,"SoundDuration":918662,"Delta":179151981},{"NoteNumber":98,"Velocity":76,"Duration":38627,"SoundDuration":38627,"Delta":179422376},{"NoteNumber":85,"Velocity":74,"Duration":151461,"SoundDuration":151461,"Delta":179461004},{"NoteNumber":97,"Velocity":87,"Duration":151461,"SoundDuration":151461,"Delta":179461004},{"NoteNumber":64,"Velocity":82,"Duration":609639,"SoundDuration":609639,"Delta":179461004},{"NoteNumber":57,"Velocity":70,"Duration":609639,"SoundDuration":609639,"Delta":179461004},{"NoteNumber":55,"Velocity":70,"Duration":609639,"SoundDuration":609639,"Delta":179461004},{"NoteNumber":81,"Velocity":66,"Duration":151461,"SoundDuration":151461,"Delta":179612465},{"NoteNumber":93,"Velocity":80,"Duration":151461,"SoundDuration":151461,"Delta":179612465},{"NoteNumber":83,"Velocity":73,"Duration":153358,"SoundDuration":153358,"Delta":179763927},{"NoteNumber":95,"Velocity":86,"Duration":153358,"SoundDuration":153358,"Delta":179763927},{"NoteNumber":85,"Velocity":69,"Duration":153358,"SoundDuration":153358,"Delta":179917285},{"NoteNumber":97,"Velocity":82,"Duration":153358,"SoundDuration":153358,"Delta":179917285},{"NoteNumber":86,"Velocity":74,"Duration":280000,"SoundDuration":280000,"Delta":180070644},{"NoteNumber":98,"Velocity":88,"Duration":280000,"SoundDuration":280000,"Delta":180070644},{"NoteNumber":38,"Velocity":61,"Duration":280000,"SoundDuration":280000,"Delta":180070644},{"NoteNumber":45,"Velocity":61,"Duration":280000,"SoundDuration":280000,"Delta":180070644},{"NoteNumber":54,"Velocity":73,"Duration":280000,"SoundDuration":280000,"Delta":180070644},{"NoteNumber":64,"Velocity":64,"Duration":37036,"SoundDuration":37036,"Delta":180350644},{"NoteNumber":62,"Velocity":69,"Duration":73710,"SoundDuration":73710,"Delta":180387681},{"NoteNumber":38,"Velocity":38,"Duration":73710,"SoundDuration":73710,"Delta":180387681},{"NoteNumber":50,"Velocity":53,"Duration":73710,"SoundDuration":73710,"Delta":180387681},{"NoteNumber":61,"Velocity":66,"Duration":73709,"SoundDuration":73709,"Delta":180535101},{"NoteNumber":37,"Velocity":36,"Duration":73709,"SoundDuration":73709,"Delta":180535101},{"NoteNumber":49,"Velocity":51,"Duration":73709,"SoundDuration":73709,"Delta":180535101},{"NoteNumber":62,"Velocity":70,"Duration":76142,"SoundDuration":76142,"Delta":180682521},{"NoteNumber":38,"Velocity":38,"Duration":76142,"SoundDuration":76142,"Delta":180682521},{"NoteNumber":50,"Velocity":54,"Duration":76142,"SoundDuration":76142,"Delta":180682521},{"NoteNumber":62,"Velocity":65,"Duration":76530,"SoundDuration":76530,"Delta":180987090},{"NoteNumber":38,"Velocity":46,"Duration":76530,"SoundDuration":76530,"Delta":180987090},{"NoteNumber":50,"Velocity":51,"Duration":76530,"SoundDuration":76530,"Delta":180987090},{"NoteNumber":69,"Velocity":69,"Duration":74626,"SoundDuration":74626,"Delta":181293212},{"NoteNumber":57,"Velocity":53,"Duration":74626,"SoundDuration":74626,"Delta":181293212},{"NoteNumber":45,"Velocity":38,"Duration":74626,"SoundDuration":74626,"Delta":181293212},{"NoteNumber":66,"Velocity":66,"Duration":74626,"SoundDuration":74626,"Delta":181442465},{"NoteNumber":42,"Velocity":36,"Duration":74626,"SoundDuration":74626,"Delta":181442465},{"NoteNumber":54,"Velocity":51,"Duration":74626,"SoundDuration":74626,"Delta":181442465},{"NoteNumber":62,"Velocity":70,"Duration":76335,"SoundDuration":76335,"Delta":181591719},{"NoteNumber":38,"Velocity":38,"Duration":76335,"SoundDuration":76335,"Delta":181591719},{"NoteNumber":50,"Velocity":54,"Duration":76335,"SoundDuration":76335,"Delta":181591719},{"NoteNumber":62,"Velocity":69,"Duration":74073,"SoundDuration":74073,"Delta":181897063},{"NoteNumber":38,"Velocity":38,"Duration":74073,"SoundDuration":74073,"Delta":181897063},{"NoteNumber":50,"Velocity":53,"Duration":74073,"SoundDuration":74073,"Delta":181897063},{"NoteNumber":61,"Velocity":66,"Duration":74073,"SoundDuration":74073,"Delta":182045211},{"NoteNumber":37,"Velocity":36,"Duration":74073,"SoundDuration":74073,"Delta":182045211},{"NoteNumber":49,"Velocity":51,"Duration":74073,"SoundDuration":74073,"Delta":182045211},{"NoteNumber":62,"Velocity":70,"Duration":75566,"SoundDuration":75566,"Delta":182193359},{"NoteNumber":38,"Velocity":38,"Duration":75566,"SoundDuration":75566,"Delta":182193359},{"NoteNumber":50,"Velocity":54,"Duration":75566,"SoundDuration":75566,"Delta":182193359},{"NoteNumber":62,"Velocity":69,"Duration":74073,"SoundDuration":74073,"Delta":182495626},{"NoteNumber":38,"Velocity":38,"Duration":74073,"SoundDuration":74073,"Delta":182495626},{"NoteNumber":50,"Velocity":53,"Duration":74073,"SoundDuration":74073,"Delta":182495626},{"NoteNumber":61,"Velocity":66,"Duration":74073,"SoundDuration":74073,"Delta":182643774},{"NoteNumber":37,"Velocity":36,"Duration":74073,"SoundDuration":74073,"Delta":182643774},{"NoteNumber":49,"Velocity":51,"Duration":74073,"SoundDuration":74073,"Delta":182643774},{"NoteNumber":62,"Velocity":70,"Duration":76335,"SoundDuration":76335,"Delta":182791922},{"NoteNumber":38,"Velocity":38,"Duration":76335,"SoundDuration":76335,"Delta":182791922},{"NoteNumber":50,"Velocity":54,"Duration":76335,"SoundDuration":76335,"Delta":182791922},{"NoteNumber":69,"Velocity":72,"Duration":74626,"SoundDuration":74626,"Delta":183097266},{"NoteNumber":57,"Velocity":55,"Duration":74626,"SoundDuration":74626,"Delta":183097266},{"NoteNumber":45,"Velocity":39,"Duration":74626,"SoundDuration":74626,"Delta":183097266},{"NoteNumber":66,"Velocity":69,"Duration":74626,"SoundDuration":74626,"Delta":183246519},{"NoteNumber":42,"Velocity":37,"Duration":74626,"SoundDuration":74626,"Delta":183246519},{"NoteNumber":54,"Velocity":53,"Duration":74626,"SoundDuration":74626,"Delta":183246519},{"NoteNumber":62,"Velocity":73,"Duration":74999,"SoundDuration":74999,"Delta":183395773},{"NoteNumber":38,"Velocity":39,"Duration":74999,"SoundDuration":74999,"Delta":183395773},{"NoteNumber":50,"Velocity":57,"Duration":74999,"SoundDuration":74999,"Delta":183395773},{"NoteNumber":69,"Velocity":75,"Duration":74626,"SoundDuration":74626,"Delta":183695773},{"NoteNumber":57,"Velocity":58,"Duration":74626,"SoundDuration":74626,"Delta":183695773},{"NoteNumber":45,"Velocity":42,"Duration":74626,"SoundDuration":74626,"Delta":183695773},{"NoteNumber":66,"Velocity":72,"Duration":74626,"SoundDuration":74626,"Delta":183845026},{"NoteNumber":42,"Velocity":39,"Duration":74626,"SoundDuration":74626,"Delta":183845026},{"NoteNumber":54,"Velocity":55,"Duration":74626,"SoundDuration":74626,"Delta":183845026},{"NoteNumber":62,"Velocity":76,"Duration":74999,"SoundDuration":74999,"Delta":183994280},{"NoteNumber":38,"Velocity":42,"Duration":74999,"SoundDuration":74999,"Delta":183994280},{"NoteNumber":50,"Velocity":59,"Duration":74999,"SoundDuration":74999,"Delta":183994280},{"NoteNumber":69,"Velocity":78,"Duration":74626,"SoundDuration":74626,"Delta":184294280},{"NoteNumber":57,"Velocity":61,"Duration":74626,"SoundDuration":74626,"Delta":184294280},{"NoteNumber":45,"Velocity":44,"Duration":74626,"SoundDuration":74626,"Delta":184294280},{"NoteNumber":66,"Velocity":75,"Duration":74626,"SoundDuration":74626,"Delta":184443533},{"NoteNumber":42,"Velocity":40,"Duration":74626,"SoundDuration":74626,"Delta":184443533},{"NoteNumber":54,"Velocity":58,"Duration":74626,"SoundDuration":74626,"Delta":184443533},{"NoteNumber":62,"Velocity":71,"Duration":76530,"SoundDuration":76530,"Delta":184592787},{"NoteNumber":50,"Velocity":65,"Duration":76530,"SoundDuration":76530,"Delta":184592787},{"NoteNumber":69,"Velocity":66,"Duration":74999,"SoundDuration":74999,"Delta":184745848},{"NoteNumber":57,"Velocity":63,"Duration":74999,"SoundDuration":74999,"Delta":184745848},{"NoteNumber":66,"Velocity":72,"Duration":74999,"SoundDuration":74999,"Delta":184895848},{"NoteNumber":54,"Velocity":67,"Duration":74999,"SoundDuration":74999,"Delta":184895848},{"NoteNumber":62,"Velocity":69,"Duration":74999,"SoundDuration":74999,"Delta":185045848},{"NoteNumber":50,"Velocity":61,"Duration":74999,"SoundDuration":74999,"Delta":185045848},{"NoteNumber":69,"Velocity":72,"Duration":75000,"SoundDuration":75000,"Delta":185195848},{"NoteNumber":57,"Velocity":65,"Duration":75000,"SoundDuration":75000,"Delta":185195848},{"NoteNumber":66,"Velocity":70,"Duration":76530,"SoundDuration":76530,"Delta":185345848},{"NoteNumber":54,"Velocity":61,"Duration":76530,"SoundDuration":76530,"Delta":185345848},{"NoteNumber":62,"Velocity":71,"Duration":75949,"SoundDuration":75949,"Delta":185498909},{"NoteNumber":74,"Velocity":84,"Duration":75949,"SoundDuration":75949,"Delta":185498909},{"NoteNumber":50,"Velocity":65,"Duration":75949,"SoundDuration":75949,"Delta":185498909},{"NoteNumber":38,"Velocity":54,"Duration":75949,"SoundDuration":75949,"Delta":185498909},{"NoteNumber":69,"Velocity":64,"Duration":74626,"SoundDuration":74626,"Delta":185650807},{"NoteNumber":81,"Velocity":76,"Duration":74626,"SoundDuration":74626,"Delta":185650807},{"NoteNumber":57,"Velocity":60,"Duration":74626,"SoundDuration":74626,"Delta":185650807},{"NoteNumber":45,"Velocity":50,"Duration":74626,"SoundDuration":74626,"Delta":185650807},{"NoteNumber":78,"Velocity":88,"Duration":74626,"SoundDuration":74626,"Delta":185800061},{"NoteNumber":66,"Velocity":73,"Duration":74626,"SoundDuration":74626,"Delta":185800061},{"NoteNumber":42,"Velocity":58,"Duration":74626,"SoundDuration":74626,"Delta":185800061},{"NoteNumber":54,"Velocity":69,"Duration":74626,"SoundDuration":74626,"Delta":185800061},{"NoteNumber":62,"Velocity":72,"Duration":74626,"SoundDuration":74626,"Delta":185949314},{"NoteNumber":74,"Velocity":85,"Duration":74626,"SoundDuration":74626,"Delta":185949314},{"NoteNumber":38,"Velocity":53,"Duration":74626,"SoundDuration":74626,"Delta":185949314},{"NoteNumber":50,"Velocity":64,"Duration":74626,"SoundDuration":74626,"Delta":185949314},{"NoteNumber":81,"Velocity":87,"Duration":75377,"SoundDuration":75377,"Delta":186098568},{"NoteNumber":69,"Velocity":72,"Duration":75377,"SoundDuration":75377,"Delta":186098568},{"NoteNumber":45,"Velocity":54,"Duration":75377,"SoundDuration":75377,"Delta":186098568},{"NoteNumber":57,"Velocity":66,"Duration":75377,"SoundDuration":75377,"Delta":186098568},{"NoteNumber":78,"Velocity":88,"Duration":76530,"SoundDuration":76530,"Delta":186249322},{"NoteNumber":66,"Velocity":74,"Duration":76530,"SoundDuration":76530,"Delta":186249322},{"NoteNumber":54,"Velocity":66,"Duration":76530,"SoundDuration":76530,"Delta":186249322},{"NoteNumber":42,"Velocity":54,"Duration":76530,"SoundDuration":76530,"Delta":186249322},{"NoteNumber":62,"Velocity":81,"Duration":306121,"SoundDuration":306121,"Delta":186402383},{"NoteNumber":74,"Velocity":96,"Duration":306121,"SoundDuration":306121,"Delta":186402383},{"NoteNumber":66,"Velocity":81,"Duration":306121,"SoundDuration":306121,"Delta":186402383},{"NoteNumber":50,"Velocity":72,"Duration":306121,"SoundDuration":306121,"Delta":186402383},{"NoteNumber":38,"Velocity":60,"Duration":306121,"SoundDuration":306121,"Delta":186402383},{"NoteNumber":66,"Velocity":81,"Duration":306122,"SoundDuration":306122,"Delta":186708505},{"NoteNumber":74,"Velocity":96,"Duration":306122,"SoundDuration":306122,"Delta":186708505},{"NoteNumber":62,"Velocity":81,"Duration":306122,"SoundDuration":306122,"Delta":186708505},{"NoteNumber":50,"Velocity":72,"Duration":306122,"SoundDuration":306122,"Delta":186708505},{"NoteNumber":38,"Velocity":60,"Duration":306122,"SoundDuration":306122,"Delta":186708505},{"NoteNumber":74,"Velocity":93,"Duration":306121,"SoundDuration":306121,"Delta":187320749},{"NoteNumber":86,"Velocity":110,"Duration":306121,"SoundDuration":306121,"Delta":187320749},{"NoteNumber":78,"Velocity":93,"Duration":306121,"SoundDuration":306121,"Delta":187320749},{"NoteNumber":57,"Velocity":70,"Duration":306121,"SoundDuration":306121,"Delta":187320749},{"NoteNumber":62,"Velocity":82,"Duration":306121,"SoundDuration":306121,"Delta":187320749},{"NoteNumber":50,"Velocity":70,"Duration":306121,"SoundDuration":306121,"Delta":187320749},{"NoteNumber":78,"Velocity":93,"Duration":306122,"SoundDuration":306122,"Delta":187626871},{"NoteNumber":86,"Velocity":110,"Duration":306122,"SoundDuration":306122,"Delta":187626871},{"NoteNumber":74,"Velocity":93,"Duration":306122,"SoundDuration":306122,"Delta":187626871},{"NoteNumber":57,"Velocity":70,"Duration":306122,"SoundDuration":306122,"Delta":187626871},{"NoteNumber":62,"Velocity":82,"Duration":306122,"SoundDuration":306122,"Delta":187626871},{"NoteNumber":50,"Velocity":70,"Duration":306122,"SoundDuration":306122,"Delta":187626871},{"NoteNumber":86,"Velocity":101,"Duration":306122,"SoundDuration":306122,"Delta":188239115},{"NoteNumber":98,"Velocity":120,"Duration":306122,"SoundDuration":306122,"Delta":188239115},{"NoteNumber":90,"Velocity":101,"Duration":306122,"SoundDuration":306122,"Delta":188239115},{"NoteNumber":57,"Velocity":70,"Duration":306122,"SoundDuration":306122,"Delta":188239115},{"NoteNumber":62,"Velocity":82,"Duration":306122,"SoundDuration":306122,"Delta":188239115},{"NoteNumber":50,"Velocity":70,"Duration":306122,"SoundDuration":306122,"Delta":188239115}],"license":{"name":"Creative Commons Attribution-ShareAlike 3.0 Germany","url":"http://creativecommons.org/licenses/by-sa/3.0/de/deed.en","text":"The MIDI, audio (MP3, OGG) and video files of Bernd Krueger are licensed under the cc-by-sa Germany License. This means that you can use and adapt the files, as long as you attribute the copyright holder.\n\nName: Bernd Krueger\nSource: http://www.piano-midi.de\n\nThe distribution or public playback of the files is only allowed under identical license conditions.\n\nThe scores are open source.","attribution":"MIDI files by Bernd Krueger (piano-midi.de)"}}