{"title":"Dezember","artist":"Piano","durationMs":238148,"midiSha256":"589423e4a27d00e6a6e59bc466bf99b06c0a68fe697f0d0d57e4311cb362797b","midiObject":[{"NoteNumber":44,"Velocity":37,"Duration":304383,"SoundDuration":304383,"Delta":0},{"NoteNumber":68,"Velocity":59,"Duration":601555,"SoundDuration":601555,"Delta":304383},{"NoteNumber":56,"Velocity":27,"Duration":298983,"SoundDuration":298983,"Delta":304383},{"NoteNumber":60,"Velocity":32,"Duration":298983,"SoundDuration":298983,"Delta":304383},{"NoteNumber":51,"Velocity":27,"Duration":298983,"SoundDuration":298983,"Delta":304383},{"NoteNumber":63,"Velocity":39,"Duration":302572,"SoundDuration":302572,"Delta":603366},{"NoteNumber":51,"Velocity":24,"Duration":302572,"SoundDuration":302572,"Delta":603366},{"NoteNumber":60,"Velocity":27,"Duration":302572,"SoundDuration":302572,"Delta":603366},{"NoteNumber":56,"Velocity":24,"Duration":302572,"SoundDuration":302572,"Delta":603366},{"NoteNumber":70,"Velocity":57,"Duration":601615,"SoundDuration":601615,"Delta":905938},{"NoteNumber":39,"Velocity":44,"Duration":298983,"SoundDuration":298983,"Delta":905938},{"NoteNumber":63,"Velocity":28,"Duration":302632,"SoundDuration":302632,"Delta":1204921},{"NoteNumber":68,"Velocity":31,"Duration":302632,"SoundDuration":302632,"Delta":1204921},{"NoteNumber":51,"Velocity":19,"Duration":302632,"SoundDuration":302632,"Delta":1204921},{"NoteNumber":60,"Velocity":22,"Duration":302632,"SoundDuration":302632,"Delta":1204921},{"NoteNumber":56,"Velocity":19,"Duration":302632,"SoundDuration":302632,"Delta":1204921},{"NoteNumber":72,"Velocity":57,"Duration":296764,"SoundDuration":296764,"Delta":1507554},{"NoteNumber":51,"Velocity":26,"Duration":296764,"SoundDuration":296764,"Delta":1507554},{"NoteNumber":60,"Velocity":29,"Duration":296764,"SoundDuration":296764,"Delta":1507554},{"NoteNumber":56,"Velocity":26,"Duration":296764,"SoundDuration":296764,"Delta":1507554},{"NoteNumber":46,"Velocity":39,"Duration":301644,"SoundDuration":301644,"Delta":1804319},{"NoteNumber":73,"Velocity":63,"Duration":602344,"SoundDuration":602344,"Delta":2105963},{"NoteNumber":61,"Velocity":34,"Duration":298716,"SoundDuration":298716,"Delta":2105963},{"NoteNumber":55,"Velocity":30,"Duration":298716,"SoundDuration":298716,"Delta":2105963},{"NoteNumber":51,"Velocity":30,"Duration":298716,"SoundDuration":298716,"Delta":2105963},{"NoteNumber":63,"Velocity":34,"Duration":303628,"SoundDuration":303628,"Delta":2404679},{"NoteNumber":67,"Velocity":38,"Duration":303628,"SoundDuration":303628,"Delta":2404679},{"NoteNumber":61,"Velocity":25,"Duration":303628,"SoundDuration":303628,"Delta":2404679},{"NoteNumber":55,"Velocity":22,"Duration":303628,"SoundDuration":303628,"Delta":2404679},{"NoteNumber":51,"Velocity":22,"Duration":303628,"SoundDuration":303628,"Delta":2404679},{"NoteNumber":72,"Velocity":62,"Duration":607256,"SoundDuration":607256,"Delta":2708307},{"NoteNumber":39,"Velocity":39,"Duration":303627,"SoundDuration":303627,"Delta":2708307},{"NoteNumber":67,"Velocity":35,"Duration":303628,"SoundDuration":303628,"Delta":3011935},{"NoteNumber":63,"Velocity":30,"Duration":303628,"SoundDuration":303628,"Delta":3011935},{"NoteNumber":61,"Velocity":23,"Duration":303628,"SoundDuration":303628,"Delta":3011935},{"NoteNumber":55,"Velocity":20,"Duration":303628,"SoundDuration":303628,"Delta":3011935},{"NoteNumber":51,"Velocity":20,"Duration":303628,"SoundDuration":303628,"Delta":3011935},{"NoteNumber":70,"Velocity":51,"Duration":303628,"SoundDuration":303628,"Delta":3315563},{"NoteNumber":51,"Velocity":27,"Duration":303628,"SoundDuration":303628,"Delta":3315563},{"NoteNumber":55,"Velocity":27,"Duration":303628,"SoundDuration":303628,"Delta":3315563},{"NoteNumber":61,"Velocity":32,"Duration":303628,"SoundDuration":303628,"Delta":3315563},{"NoteNumber":44,"Velocity":50,"Duration":309756,"SoundDuration":309756,"Delta":3619191},{"NoteNumber":72,"Velocity":63,"Duration":613448,"SoundDuration":613448,"Delta":3928948},{"NoteNumber":56,"Velocity":33,"Duration":302632,"SoundDuration":302632,"Delta":3928948},{"NoteNumber":60,"Velocity":36,"Duration":302632,"SoundDuration":302632,"Delta":3928948},{"NoteNumber":51,"Velocity":33,"Duration":302632,"SoundDuration":302632,"Delta":3928948},{"NoteNumber":68,"Velocity":42,"Duration":310816,"SoundDuration":310816,"Delta":4231581},{"NoteNumber":63,"Velocity":38,"Duration":310816,"SoundDuration":310816,"Delta":4231581},{"NoteNumber":60,"Velocity":33,"Duration":310816,"SoundDuration":310816,"Delta":4231581},{"NoteNumber":56,"Velocity":27,"Duration":310816,"SoundDuration":310816,"Delta":4231581},{"NoteNumber":51,"Velocity":27,"Duration":310816,"SoundDuration":310816,"Delta":4231581},{"NoteNumber":73,"Velocity":68,"Duration":606260,"SoundDuration":606260,"Delta":4542397},{"NoteNumber":39,"Velocity":55,"Duration":303627,"SoundDuration":303627,"Delta":4542397},{"NoteNumber":63,"Velocity":37,"Duration":302633,"SoundDuration":302633,"Delta":4846025},{"NoteNumber":68,"Velocity":41,"Duration":302633,"SoundDuration":302633,"Delta":4846025},{"NoteNumber":56,"Velocity":27,"Duration":302633,"SoundDuration":302633,"Delta":4846025},{"NoteNumber":60,"Velocity":32,"Duration":302633,"SoundDuration":302633,"Delta":4846025},{"NoteNumber":54,"Velocity":27,"Duration":302633,"SoundDuration":302633,"Delta":4846025},{"NoteNumber":75,"Velocity":71,"Duration":296764,"SoundDuration":296764,"Delta":5148658},{"NoteNumber":56,"Velocity":34,"Duration":296764,"SoundDuration":296764,"Delta":5148658},{"NoteNumber":60,"Velocity":37,"Duration":296764,"SoundDuration":296764,"Delta":5148658},{"NoteNumber":54,"Velocity":34,"Duration":296764,"SoundDuration":296764,"Delta":5148658},{"NoteNumber":77,"Velocity":73,"Duration":222342,"SoundDuration":222342,"Delta":5445423},{"NoteNumber":44,"Velocity":57,"Duration":222342,"SoundDuration":222342,"Delta":5445423},{"NoteNumber":53,"Velocity":31,"Duration":334009,"SoundDuration":334009,"Delta":5667765},{"NoteNumber":56,"Velocity":37,"Duration":312143,"SoundDuration":312143,"Delta":5689631},{"NoteNumber":59,"Velocity":44,"Duration":290277,"SoundDuration":290277,"Delta":5711497},{"NoteNumber":68,"Velocity":51,"Duration":268411,"SoundDuration":268411,"Delta":5733363},{"NoteNumber":74,"Velocity":56,"Duration":246545,"SoundDuration":246545,"Delta":5755229},{"NoteNumber":79,"Velocity":74,"Duration":224679,"SoundDuration":224679,"Delta":5777095},{"NoteNumber":53,"Velocity":33,"Duration":432779,"SoundDuration":432779,"Delta":6001774},{"NoteNumber":56,"Velocity":40,"Duration":410913,"SoundDuration":410913,"Delta":6023640},{"NoteNumber":59,"Velocity":45,"Duration":389047,"SoundDuration":389047,"Delta":6045506},{"NoteNumber":68,"Velocity":51,"Duration":367181,"SoundDuration":367181,"Delta":6067372},{"NoteNumber":74,"Velocity":56,"Duration":345315,"SoundDuration":345315,"Delta":6089238},{"NoteNumber":80,"Velocity":77,"Duration":323450,"SoundDuration":323450,"Delta":6111104},{"NoteNumber":75,"Velocity":81,"Duration":933645,"SoundDuration":933645,"Delta":6434554},{"NoteNumber":44,"Velocity":63,"Duration":310881,"SoundDuration":310881,"Delta":6434554},{"NoteNumber":72,"Velocity":44,"Duration":310881,"SoundDuration":310881,"Delta":6745435},{"NoteNumber":68,"Velocity":38,"Duration":310881,"SoundDuration":310881,"Delta":6745435},{"NoteNumber":63,"Velocity":38,"Duration":310881,"SoundDuration":310881,"Delta":6745435},{"NoteNumber":56,"Velocity":22,"Duration":310881,"SoundDuration":310881,"Delta":6745435},{"NoteNumber":60,"Velocity":25,"Duration":310881,"SoundDuration":310881,"Delta":6745435},{"NoteNumber":51,"Velocity":22,"Duration":310881,"SoundDuration":310881,"Delta":6745435},{"NoteNumber":72,"Velocity":43,"Duration":311882,"SoundDuration":311882,"Delta":7056316},{"NoteNumber":68,"Velocity":38,"Duration":311882,"SoundDuration":311882,"Delta":7056316},{"NoteNumber":63,"Velocity":38,"Duration":311882,"SoundDuration":311882,"Delta":7056316},{"NoteNumber":56,"Velocity":22,"Duration":311882,"SoundDuration":311882,"Delta":7056316},{"NoteNumber":60,"Velocity":25,"Duration":311882,"SoundDuration":311882,"Delta":7056316},{"NoteNumber":51,"Velocity":22,"Duration":311882,"SoundDuration":311882,"Delta":7056316},{"NoteNumber":45,"Velocity":37,"Duration":305654,"SoundDuration":305654,"Delta":7368199},{"NoteNumber":78,"Velocity":59,"Duration":146341,"SoundDuration":146341,"Delta":7673854},{"NoteNumber":53,"Velocity":27,"Duration":292683,"SoundDuration":292683,"Delta":7673854},{"NoteNumber":63,"Velocity":32,"Duration":292683,"SoundDuration":292683,"Delta":7673854},{"NoteNumber":60,"Velocity":27,"Duration":292683,"SoundDuration":292683,"Delta":7673854},{"NoteNumber":77,"Velocity":56,"Duration":146341,"SoundDuration":146341,"Delta":7820195},{"NoteNumber":75,"Velocity":59,"Duration":155408,"SoundDuration":155408,"Delta":7966537},{"NoteNumber":63,"Velocity":27,"Duration":310816,"SoundDuration":310816,"Delta":7966537},{"NoteNumber":60,"Velocity":24,"Duration":310816,"SoundDuration":310816,"Delta":7966537},{"NoteNumber":53,"Velocity":24,"Duration":310816,"SoundDuration":310816,"Delta":7966537},{"NoteNumber":78,"Velocity":56,"Duration":155407,"SoundDuration":155407,"Delta":8121945},{"NoteNumber":77,"Velocity":62,"Duration":456971,"SoundDuration":456971,"Delta":8277353},{"NoteNumber":46,"Velocity":37,"Duration":305654,"SoundDuration":305654,"Delta":8277353},{"NoteNumber":58,"Velocity":27,"Duration":302633,"SoundDuration":302633,"Delta":8583008},{"NoteNumber":61,"Velocity":32,"Duration":302633,"SoundDuration":302633,"Delta":8583008},{"NoteNumber":53,"Velocity":27,"Duration":302633,"SoundDuration":302633,"Delta":8583008},{"NoteNumber":73,"Velocity":59,"Duration":151316,"SoundDuration":151316,"Delta":8734324},{"NoteNumber":70,"Velocity":55,"Duration":155407,"SoundDuration":155407,"Delta":8885641},{"NoteNumber":61,"Velocity":27,"Duration":310816,"SoundDuration":310816,"Delta":8885641},{"NoteNumber":58,"Velocity":24,"Duration":310816,"SoundDuration":310816,"Delta":8885641},{"NoteNumber":53,"Velocity":24,"Duration":310816,"SoundDuration":310816,"Delta":8885641},{"NoteNumber":65,"Velocity":50,"Duration":155408,"SoundDuration":155408,"Delta":9041049},{"NoteNumber":43,"Velocity":37,"Duration":305654,"SoundDuration":305654,"Delta":9196457},{"NoteNumber":76,"Velocity":59,"Duration":146341,"SoundDuration":146341,"Delta":9502112},{"NoteNumber":58,"Velocity":27,"Duration":292683,"SoundDuration":292683,"Delta":9502112},{"NoteNumber":61,"Velocity":32,"Duration":292683,"SoundDuration":292683,"Delta":9502112},{"NoteNumber":51,"Velocity":27,"Duration":292683,"SoundDuration":292683,"Delta":9502112},{"NoteNumber":75,"Velocity":56,"Duration":146341,"SoundDuration":146341,"Delta":9648453},{"NoteNumber":73,"Velocity":59,"Duration":155407,"SoundDuration":155407,"Delta":9794795},{"NoteNumber":61,"Velocity":27,"Duration":310816,"SoundDuration":310816,"Delta":9794795},{"NoteNumber":58,"Velocity":24,"Duration":310816,"SoundDuration":310816,"Delta":9794795},{"NoteNumber":51,"Velocity":24,"Duration":310816,"SoundDuration":310816,"Delta":9794795},{"NoteNumber":76,"Velocity":56,"Duration":155408,"SoundDuration":155408,"Delta":9950203},{"NoteNumber":75,"Velocity":62,"Duration":456971,"SoundDuration":456971,"Delta":10105611},{"NoteNumber":44,"Velocity":37,"Duration":305654,"SoundDuration":305654,"Delta":10105611},{"NoteNumber":51,"Velocity":27,"Duration":302633,"SoundDuration":302633,"Delta":10411266},{"NoteNumber":60,"Velocity":32,"Duration":302633,"SoundDuration":302633,"Delta":10411266},{"NoteNumber":56,"Velocity":27,"Duration":302633,"SoundDuration":302633,"Delta":10411266},{"NoteNumber":72,"Velocity":59,"Duration":151316,"SoundDuration":151316,"Delta":10562582},{"NoteNumber":68,"Velocity":57,"Duration":155407,"SoundDuration":155407,"Delta":10713899},{"NoteNumber":60,"Velocity":27,"Duration":310816,"SoundDuration":310816,"Delta":10713899},{"NoteNumber":56,"Velocity":24,"Duration":310816,"SoundDuration":310816,"Delta":10713899},{"NoteNumber":51,"Velocity":24,"Duration":310816,"SoundDuration":310816,"Delta":10713899},{"NoteNumber":63,"Velocity":52,"Duration":155408,"SoundDuration":155408,"Delta":10869307},{"NoteNumber":42,"Velocity":37,"Duration":309756,"SoundDuration":309756,"Delta":11024715},{"NoteNumber":60,"Velocity":35,"Duration":302633,"SoundDuration":302633,"Delta":11334472},{"NoteNumber":63,"Velocity":39,"Duration":302633,"SoundDuration":302633,"Delta":11334472},{"NoteNumber":68,"Velocity":59,"Duration":613449,"SoundDuration":613449,"Delta":11334472},{"NoteNumber":56,"Velocity":36,"Duration":302633,"SoundDuration":302633,"Delta":11334472},{"NoteNumber":54,"Velocity":31,"Duration":302633,"SoundDuration":302633,"Delta":11334472},{"NoteNumber":60,"Velocity":35,"Duration":310816,"SoundDuration":310816,"Delta":11637105},{"NoteNumber":63,"Velocity":39,"Duration":310816,"SoundDuration":310816,"Delta":11637105},{"NoteNumber":54,"Velocity":27,"Duration":310816,"SoundDuration":310816,"Delta":11637105},{"NoteNumber":56,"Velocity":30,"Duration":310816,"SoundDuration":310816,"Delta":11637105},{"NoteNumber":67,"Velocity":63,"Duration":606260,"SoundDuration":606260,"Delta":11947921},{"NoteNumber":41,"Velocity":44,"Duration":303627,"SoundDuration":303627,"Delta":11947921},{"NoteNumber":60,"Velocity":31,"Duration":302633,"SoundDuration":302633,"Delta":12251549},{"NoteNumber":65,"Velocity":36,"Duration":302633,"SoundDuration":302633,"Delta":12251549},{"NoteNumber":56,"Velocity":28,"Duration":302633,"SoundDuration":302633,"Delta":12251549},{"NoteNumber":53,"Velocity":25,"Duration":302633,"SoundDuration":302633,"Delta":12251549},{"NoteNumber":60,"Velocity":31,"Duration":296765,"SoundDuration":296765,"Delta":12554182},{"NoteNumber":65,"Velocity":36,"Duration":296765,"SoundDuration":296765,"Delta":12554182},{"NoteNumber":68,"Velocity":59,"Duration":296765,"SoundDuration":296765,"Delta":12554182},{"NoteNumber":53,"Velocity":29,"Duration":296765,"SoundDuration":296765,"Delta":12554182},{"NoteNumber":56,"Velocity":33,"Duration":296765,"SoundDuration":296765,"Delta":12554182},{"NoteNumber":70,"Velocity":68,"Duration":456971,"SoundDuration":456971,"Delta":12850947},{"NoteNumber":40,"Velocity":37,"Duration":305654,"SoundDuration":305654,"Delta":12850947},{"NoteNumber":62,"Velocity":31,"Duration":302633,"SoundDuration":302633,"Delta":13156602},{"NoteNumber":68,"Velocity":36,"Duration":302633,"SoundDuration":302633,"Delta":13156602},{"NoteNumber":52,"Velocity":31,"Duration":302633,"SoundDuration":302633,"Delta":13156602},{"NoteNumber":56,"Velocity":36,"Duration":302633,"SoundDuration":302633,"Delta":13156602},{"NoteNumber":71,"Velocity":61,"Duration":151316,"SoundDuration":151316,"Delta":13307918},{"NoteNumber":62,"Velocity":31,"Duration":310816,"SoundDuration":310816,"Delta":13459235},{"NoteNumber":68,"Velocity":36,"Duration":310816,"SoundDuration":310816,"Delta":13459235},{"NoteNumber":70,"Velocity":59,"Duration":155407,"SoundDuration":155407,"Delta":13459235},{"NoteNumber":52,"Velocity":27,"Duration":310816,"SoundDuration":310816,"Delta":13459235},{"NoteNumber":56,"Velocity":30,"Duration":310816,"SoundDuration":310816,"Delta":13459235},{"NoteNumber":71,"Velocity":52,"Duration":155408,"SoundDuration":155408,"Delta":13614643},{"NoteNumber":67,"Velocity":59,"Duration":929149,"SoundDuration":929149,"Delta":13770051},{"NoteNumber":39,"Velocity":37,"Duration":311688,"SoundDuration":311688,"Delta":13770051},{"NoteNumber":61,"Velocity":36,"Duration":302633,"SoundDuration":302633,"Delta":14081739},{"NoteNumber":63,"Velocity":40,"Duration":302633,"SoundDuration":302633,"Delta":14081739},{"NoteNumber":51,"Velocity":29,"Duration":302633,"SoundDuration":302633,"Delta":14081739},{"NoteNumber":58,"Velocity":34,"Duration":302633,"SoundDuration":302633,"Delta":14081739},{"NoteNumber":61,"Velocity":35,"Duration":314828,"SoundDuration":314828,"Delta":14384372},{"NoteNumber":63,"Velocity":39,"Duration":314828,"SoundDuration":314828,"Delta":14384372},{"NoteNumber":58,"Velocity":28,"Duration":314828,"SoundDuration":314828,"Delta":14384372},{"NoteNumber":51,"Velocity":25,"Duration":314828,"SoundDuration":314828,"Delta":14384372},{"NoteNumber":44,"Velocity":37,"Duration":309756,"SoundDuration":309756,"Delta":14699200},{"NoteNumber":68,"Velocity":59,"Duration":602458,"SoundDuration":602458,"Delta":15008957},{"NoteNumber":56,"Velocity":27,"Duration":298982,"SoundDuration":298982,"Delta":15008957},{"NoteNumber":60,"Velocity":32,"Duration":298982,"SoundDuration":298982,"Delta":15008957},{"NoteNumber":51,"Velocity":27,"Duration":298982,"SoundDuration":298982,"Delta":15008957},{"NoteNumber":63,"Velocity":39,"Duration":303475,"SoundDuration":303475,"Delta":15307940},{"NoteNumber":51,"Velocity":24,"Duration":303475,"SoundDuration":303475,"Delta":15307940},{"NoteNumber":60,"Velocity":27,"Duration":303475,"SoundDuration":303475,"Delta":15307940},{"NoteNumber":56,"Velocity":24,"Duration":303475,"SoundDuration":303475,"Delta":15307940},{"NoteNumber":70,"Velocity":58,"Duration":606260,"SoundDuration":606260,"Delta":15611415},{"NoteNumber":39,"Velocity":44,"Duration":303627,"SoundDuration":303627,"Delta":15611415},{"NoteNumber":63,"Velocity":28,"Duration":302632,"SoundDuration":302632,"Delta":15915043},{"NoteNumber":68,"Velocity":31,"Duration":302632,"SoundDuration":302632,"Delta":15915043},{"NoteNumber":51,"Velocity":19,"Duration":302632,"SoundDuration":302632,"Delta":15915043},{"NoteNumber":60,"Velocity":22,"Duration":302632,"SoundDuration":302632,"Delta":15915043},{"NoteNumber":56,"Velocity":19,"Duration":302632,"SoundDuration":302632,"Delta":15915043},{"NoteNumber":72,"Velocity":57,"Duration":296765,"SoundDuration":296765,"Delta":16217676},{"NoteNumber":51,"Velocity":26,"Duration":296765,"SoundDuration":296765,"Delta":16217676},{"NoteNumber":60,"Velocity":29,"Duration":296765,"SoundDuration":296765,"Delta":16217676},{"NoteNumber":56,"Velocity":26,"Duration":296765,"SoundDuration":296765,"Delta":16217676},{"NoteNumber":46,"Velocity":39,"Duration":301643,"SoundDuration":301643,"Delta":16514441},{"NoteNumber":73,"Velocity":63,"Duration":602343,"SoundDuration":602343,"Delta":16816085},{"NoteNumber":61,"Velocity":34,"Duration":298715,"SoundDuration":298715,"Delta":16816085},{"NoteNumber":55,"Velocity":30,"Duration":298715,"SoundDuration":298715,"Delta":16816085},{"NoteNumber":51,"Velocity":30,"Duration":298715,"SoundDuration":298715,"Delta":16816085},{"NoteNumber":63,"Velocity":34,"Duration":303627,"SoundDuration":303627,"Delta":17114801},{"NoteNumber":67,"Velocity":38,"Duration":303627,"SoundDuration":303627,"Delta":17114801},{"NoteNumber":61,"Velocity":25,"Duration":303627,"SoundDuration":303627,"Delta":17114801},{"NoteNumber":55,"Velocity":22,"Duration":303627,"SoundDuration":303627,"Delta":17114801},{"NoteNumber":51,"Velocity":22,"Duration":303627,"SoundDuration":303627,"Delta":17114801},{"NoteNumber":72,"Velocity":62,"Duration":607255,"SoundDuration":607255,"Delta":17418429},{"NoteNumber":39,"Velocity":39,"Duration":303627,"SoundDuration":303627,"Delta":17418429},{"NoteNumber":67,"Velocity":35,"Duration":303627,"SoundDuration":303627,"Delta":17722057},{"NoteNumber":63,"Velocity":30,"Duration":303627,"SoundDuration":303627,"Delta":17722057},{"NoteNumber":61,"Velocity":23,"Duration":303627,"SoundDuration":303627,"Delta":17722057},{"NoteNumber":55,"Velocity":20,"Duration":303627,"SoundDuration":303627,"Delta":17722057},{"NoteNumber":51,"Velocity":20,"Duration":303627,"SoundDuration":303627,"Delta":17722057},{"NoteNumber":70,"Velocity":51,"Duration":303627,"SoundDuration":303627,"Delta":18025685},{"NoteNumber":51,"Velocity":27,"Duration":303627,"SoundDuration":303627,"Delta":18025685},{"NoteNumber":55,"Velocity":27,"Duration":303627,"SoundDuration":303627,"Delta":18025685},{"NoteNumber":61,"Velocity":32,"Duration":303627,"SoundDuration":303627,"Delta":18025685},{"NoteNumber":44,"Velocity":38,"Duration":309757,"SoundDuration":309757,"Delta":18329313},{"NoteNumber":72,"Velocity":63,"Duration":613448,"SoundDuration":613448,"Delta":18639070},{"NoteNumber":56,"Velocity":30,"Duration":302633,"SoundDuration":302633,"Delta":18639070},{"NoteNumber":60,"Velocity":34,"Duration":302633,"SoundDuration":302633,"Delta":18639070},{"NoteNumber":51,"Velocity":30,"Duration":302633,"SoundDuration":302633,"Delta":18639070},{"NoteNumber":68,"Velocity":42,"Duration":310815,"SoundDuration":310815,"Delta":18941703},{"NoteNumber":63,"Velocity":38,"Duration":310815,"SoundDuration":310815,"Delta":18941703},{"NoteNumber":60,"Velocity":30,"Duration":310815,"SoundDuration":310815,"Delta":18941703},{"NoteNumber":56,"Velocity":26,"Duration":310815,"SoundDuration":310815,"Delta":18941703},{"NoteNumber":51,"Velocity":26,"Duration":310815,"SoundDuration":310815,"Delta":18941703},{"NoteNumber":73,"Velocity":68,"Duration":606260,"SoundDuration":606260,"Delta":19252519},{"NoteNumber":39,"Velocity":55,"Duration":303627,"SoundDuration":303627,"Delta":19252519},{"NoteNumber":63,"Velocity":37,"Duration":302633,"SoundDuration":302633,"Delta":19556147},{"NoteNumber":68,"Velocity":41,"Duration":302633,"SoundDuration":302633,"Delta":19556147},{"NoteNumber":56,"Velocity":27,"Duration":302633,"SoundDuration":302633,"Delta":19556147},{"NoteNumber":60,"Velocity":32,"Duration":302633,"SoundDuration":302633,"Delta":19556147},{"NoteNumber":54,"Velocity":27,"Duration":302633,"SoundDuration":302633,"Delta":19556147},{"NoteNumber":75,"Velocity":71,"Duration":296765,"SoundDuration":296765,"Delta":19858780},{"NoteNumber":56,"Velocity":34,"Duration":296765,"SoundDuration":296765,"Delta":19858780},{"NoteNumber":60,"Velocity":37,"Duration":296765,"SoundDuration":296765,"Delta":19858780},{"NoteNumber":54,"Velocity":34,"Duration":296765,"SoundDuration":296765,"Delta":19858780},{"NoteNumber":77,"Velocity":73,"Duration":228304,"SoundDuration":228304,"Delta":20155545},{"NoteNumber":44,"Velocity":56,"Duration":228304,"SoundDuration":228304,"Delta":20155545},{"NoteNumber":53,"Velocity":29,"Duration":338565,"SoundDuration":338565,"Delta":20383849},{"NoteNumber":56,"Velocity":36,"Duration":316635,"SoundDuration":316635,"Delta":20405779},{"NoteNumber":59,"Velocity":44,"Duration":294706,"SoundDuration":294706,"Delta":20427709},{"NoteNumber":68,"Velocity":48,"Duration":272776,"SoundDuration":272776,"Delta":20449639},{"NoteNumber":74,"Velocity":56,"Duration":250846,"SoundDuration":250846,"Delta":20471569},{"NoteNumber":79,"Velocity":74,"Duration":228916,"SoundDuration":228916,"Delta":20493499},{"NoteNumber":53,"Velocity":33,"Duration":439319,"SoundDuration":439319,"Delta":20722415},{"NoteNumber":56,"Velocity":39,"Duration":417389,"SoundDuration":417389,"Delta":20744345},{"NoteNumber":59,"Velocity":45,"Duration":395459,"SoundDuration":395459,"Delta":20766275},{"NoteNumber":68,"Velocity":48,"Duration":373529,"SoundDuration":373529,"Delta":20788205},{"NoteNumber":74,"Velocity":55,"Duration":351599,"SoundDuration":351599,"Delta":20810134},{"NoteNumber":80,"Velocity":77,"Duration":329670,"SoundDuration":329670,"Delta":20832064},{"NoteNumber":75,"Velocity":81,"Duration":933645,"SoundDuration":933645,"Delta":21161734},{"NoteNumber":44,"Velocity":59,"Duration":310880,"SoundDuration":310880,"Delta":21161734},{"NoteNumber":63,"Velocity":38,"Duration":310881,"SoundDuration":310881,"Delta":21472615},{"NoteNumber":68,"Velocity":38,"Duration":310881,"SoundDuration":310881,"Delta":21472615},{"NoteNumber":72,"Velocity":44,"Duration":310881,"SoundDuration":310881,"Delta":21472615},{"NoteNumber":56,"Velocity":22,"Duration":310881,"SoundDuration":310881,"Delta":21472615},{"NoteNumber":60,"Velocity":25,"Duration":310881,"SoundDuration":310881,"Delta":21472615},{"NoteNumber":51,"Velocity":22,"Duration":310881,"SoundDuration":310881,"Delta":21472615},{"NoteNumber":63,"Velocity":38,"Duration":311883,"SoundDuration":311883,"Delta":21783496},{"NoteNumber":68,"Velocity":38,"Duration":311883,"SoundDuration":311883,"Delta":21783496},{"NoteNumber":72,"Velocity":43,"Duration":311883,"SoundDuration":311883,"Delta":21783496},{"NoteNumber":56,"Velocity":22,"Duration":311883,"SoundDuration":311883,"Delta":21783496},{"NoteNumber":60,"Velocity":25,"Duration":311883,"SoundDuration":311883,"Delta":21783496},{"NoteNumber":51,"Velocity":22,"Duration":311883,"SoundDuration":311883,"Delta":21783496},{"NoteNumber":45,"Velocity":37,"Duration":305655,"SoundDuration":305655,"Delta":22095379},{"NoteNumber":78,"Velocity":59,"Duration":142517,"SoundDuration":142517,"Delta":22401034},{"NoteNumber":53,"Velocity":31,"Duration":285036,"SoundDuration":285036,"Delta":22401034},{"NoteNumber":63,"Velocity":36,"Duration":285036,"SoundDuration":285036,"Delta":22401034},{"NoteNumber":60,"Velocity":31,"Duration":285036,"SoundDuration":285036,"Delta":22401034},{"NoteNumber":77,"Velocity":56,"Duration":142518,"SoundDuration":142518,"Delta":22543552},{"NoteNumber":75,"Velocity":59,"Duration":148514,"SoundDuration":148514,"Delta":22686070},{"NoteNumber":63,"Velocity":30,"Duration":303553,"SoundDuration":303553,"Delta":22686070},{"NoteNumber":60,"Velocity":27,"Duration":303553,"SoundDuration":303553,"Delta":22686070},{"NoteNumber":53,"Velocity":27,"Duration":303553,"SoundDuration":303553,"Delta":22686070},{"NoteNumber":78,"Velocity":56,"Duration":155038,"SoundDuration":155038,"Delta":22834585},{"NoteNumber":77,"Velocity":62,"Duration":456971,"SoundDuration":456971,"Delta":22989624},{"NoteNumber":46,"Velocity":37,"Duration":305655,"SoundDuration":305655,"Delta":22989624},{"NoteNumber":58,"Velocity":31,"Duration":302633,"SoundDuration":302633,"Delta":23295279},{"NoteNumber":61,"Velocity":36,"Duration":302633,"SoundDuration":302633,"Delta":23295279},{"NoteNumber":53,"Velocity":31,"Duration":302633,"SoundDuration":302633,"Delta":23295279},{"NoteNumber":73,"Velocity":59,"Duration":151316,"SoundDuration":151316,"Delta":23446596},{"NoteNumber":70,"Velocity":55,"Duration":155408,"SoundDuration":155408,"Delta":23597912},{"NoteNumber":61,"Velocity":30,"Duration":310815,"SoundDuration":310815,"Delta":23597912},{"NoteNumber":58,"Velocity":27,"Duration":310815,"SoundDuration":310815,"Delta":23597912},{"NoteNumber":53,"Velocity":27,"Duration":310815,"SoundDuration":310815,"Delta":23597912},{"NoteNumber":65,"Velocity":50,"Duration":155407,"SoundDuration":155407,"Delta":23753320},{"NoteNumber":47,"Velocity":42,"Duration":305655,"SoundDuration":305655,"Delta":23908728},{"NoteNumber":80,"Velocity":66,"Duration":145278,"SoundDuration":145278,"Delta":24214383},{"NoteNumber":55,"Velocity":33,"Duration":290556,"SoundDuration":290556,"Delta":24214383},{"NoteNumber":62,"Velocity":33,"Duration":290556,"SoundDuration":290556,"Delta":24214383},{"NoteNumber":65,"Velocity":37,"Duration":290556,"SoundDuration":290556,"Delta":24214383},{"NoteNumber":79,"Velocity":61,"Duration":145278,"SoundDuration":145278,"Delta":24359662},{"NoteNumber":77,"Velocity":64,"Duration":151514,"SoundDuration":151514,"Delta":24504940},{"NoteNumber":65,"Velocity":31,"Duration":306153,"SoundDuration":306153,"Delta":24504940},{"NoteNumber":62,"Velocity":28,"Duration":306153,"SoundDuration":306153,"Delta":24504940},{"NoteNumber":55,"Velocity":28,"Duration":306153,"SoundDuration":306153,"Delta":24504940},{"NoteNumber":80,"Velocity":60,"Duration":154638,"SoundDuration":154638,"Delta":24656455},{"NoteNumber":79,"Velocity":68,"Duration":456971,"SoundDuration":456971,"Delta":24811094},{"NoteNumber":48,"Velocity":38,"Duration":305655,"SoundDuration":305655,"Delta":24811094},{"NoteNumber":55,"Velocity":33,"Duration":302633,"SoundDuration":302633,"Delta":25116749},{"NoteNumber":64,"Velocity":37,"Duration":302633,"SoundDuration":302633,"Delta":25116749},{"NoteNumber":60,"Velocity":33,"Duration":302633,"SoundDuration":302633,"Delta":25116749},{"NoteNumber":76,"Velocity":61,"Duration":151316,"SoundDuration":151316,"Delta":25268066},{"NoteNumber":72,"Velocity":59,"Duration":155408,"SoundDuration":155408,"Delta":25419382},{"NoteNumber":64,"Velocity":31,"Duration":310815,"SoundDuration":310815,"Delta":25419382},{"NoteNumber":60,"Velocity":28,"Duration":310815,"SoundDuration":310815,"Delta":25419382},{"NoteNumber":55,"Velocity":28,"Duration":310815,"SoundDuration":310815,"Delta":25419382},{"NoteNumber":67,"Velocity":55,"Duration":155407,"SoundDuration":155407,"Delta":25574790},{"NoteNumber":48,"Velocity":44,"Duration":301234,"SoundDuration":301234,"Delta":25730198},{"NoteNumber":74,"Velocity":70,"Duration":598618,"SoundDuration":598618,"Delta":26031433},{"NoteNumber":56,"Velocity":37,"Duration":297132,"SoundDuration":297132,"Delta":26031433},{"NoteNumber":62,"Velocity":42,"Duration":297132,"SoundDuration":297132,"Delta":26031433},{"NoteNumber":60,"Velocity":37,"Duration":297132,"SoundDuration":297132,"Delta":26031433},{"NoteNumber":66,"Velocity":46,"Duration":301485,"SoundDuration":301485,"Delta":26328566},{"NoteNumber":72,"Velocity":46,"Duration":301485,"SoundDuration":301485,"Delta":26328566},{"NoteNumber":62,"Velocity":36,"Duration":301485,"SoundDuration":301485,"Delta":26328566},{"NoteNumber":60,"Velocity":31,"Duration":301485,"SoundDuration":301485,"Delta":26328566},{"NoteNumber":56,"Velocity":31,"Duration":301485,"SoundDuration":301485,"Delta":26328566},{"NoteNumber":76,"Velocity":70,"Duration":602339,"SoundDuration":602339,"Delta":26630052},{"NoteNumber":48,"Velocity":45,"Duration":298017,"SoundDuration":298017,"Delta":26630052},{"NoteNumber":67,"Velocity":34,"Duration":304321,"SoundDuration":304321,"Delta":26928070},{"NoteNumber":72,"Velocity":37,"Duration":304321,"SoundDuration":304321,"Delta":26928070},{"NoteNumber":55,"Velocity":26,"Duration":304321,"SoundDuration":304321,"Delta":26928070},{"NoteNumber":60,"Velocity":26,"Duration":304321,"SoundDuration":304321,"Delta":26928070},{"NoteNumber":64,"Velocity":29,"Duration":304321,"SoundDuration":304321,"Delta":26928070},{"NoteNumber":79,"Velocity":70,"Duration":298432,"SoundDuration":298432,"Delta":27232391},{"NoteNumber":60,"Velocity":35,"Duration":298432,"SoundDuration":298432,"Delta":27232391},{"NoteNumber":64,"Velocity":38,"Duration":298432,"SoundDuration":298432,"Delta":27232391},{"NoteNumber":55,"Velocity":35,"Duration":298432,"SoundDuration":298432,"Delta":27232391},{"NoteNumber":48,"Velocity":46,"Duration":299759,"SoundDuration":299759,"Delta":27530824},{"NoteNumber":74,"Velocity":75,"Duration":600467,"SoundDuration":600467,"Delta":27830584},{"NoteNumber":53,"Velocity":39,"Duration":298017,"SoundDuration":298017,"Delta":27830584},{"NoteNumber":56,"Velocity":39,"Duration":298017,"SoundDuration":298017,"Delta":27830584},{"NoteNumber":62,"Velocity":45,"Duration":298017,"SoundDuration":298017,"Delta":27830584},{"NoteNumber":65,"Velocity":39,"Duration":302450,"SoundDuration":302450,"Delta":28128602},{"NoteNumber":71,"Velocity":45,"Duration":302450,"SoundDuration":302450,"Delta":28128602},{"NoteNumber":53,"Velocity":29,"Duration":302450,"SoundDuration":302450,"Delta":28128602},{"NoteNumber":62,"Velocity":34,"Duration":302450,"SoundDuration":302450,"Delta":28128602},{"NoteNumber":56,"Velocity":29,"Duration":302450,"SoundDuration":302450,"Delta":28128602},{"NoteNumber":76,"Velocity":73,"Duration":596896,"SoundDuration":596896,"Delta":28431052},{"NoteNumber":48,"Velocity":46,"Duration":298878,"SoundDuration":298878,"Delta":28431052},{"NoteNumber":67,"Velocity":40,"Duration":601354,"SoundDuration":601354,"Delta":28729931},{"NoteNumber":64,"Velocity":36,"Duration":601354,"SoundDuration":601354,"Delta":28729931},{"NoteNumber":55,"Velocity":27,"Duration":298017,"SoundDuration":298017,"Delta":28729931},{"NoteNumber":60,"Velocity":30,"Duration":298017,"SoundDuration":298017,"Delta":28729931},{"NoteNumber":72,"Velocity":61,"Duration":303336,"SoundDuration":303336,"Delta":29027949},{"NoteNumber":60,"Velocity":42,"Duration":303336,"SoundDuration":303336,"Delta":29027949},{"NoteNumber":55,"Velocity":37,"Duration":303336,"SoundDuration":303336,"Delta":29027949},{"NoteNumber":48,"Velocity":45,"Duration":300646,"SoundDuration":300646,"Delta":29331286},{"NoteNumber":74,"Velocity":71,"Duration":601354,"SoundDuration":601354,"Delta":29631932},{"NoteNumber":60,"Velocity":39,"Duration":298017,"SoundDuration":298017,"Delta":29631932},{"NoteNumber":62,"Velocity":45,"Duration":298017,"SoundDuration":298017,"Delta":29631932},{"NoteNumber":56,"Velocity":39,"Duration":298017,"SoundDuration":298017,"Delta":29631932},{"NoteNumber":72,"Velocity":50,"Duration":303336,"SoundDuration":303336,"Delta":29929950},{"NoteNumber":66,"Velocity":45,"Duration":303336,"SoundDuration":303336,"Delta":29929950},{"NoteNumber":62,"Velocity":39,"Duration":303336,"SoundDuration":303336,"Delta":29929950},{"NoteNumber":60,"Velocity":35,"Duration":303336,"SoundDuration":303336,"Delta":29929950},{"NoteNumber":56,"Velocity":35,"Duration":303336,"SoundDuration":303336,"Delta":29929950},{"NoteNumber":76,"Velocity":73,"Duration":598685,"SoundDuration":598685,"Delta":30233287},{"NoteNumber":48,"Velocity":44,"Duration":301552,"SoundDuration":301552,"Delta":30233287},{"NoteNumber":67,"Velocity":44,"Duration":297132,"SoundDuration":297132,"Delta":30534840},{"NoteNumber":72,"Velocity":48,"Duration":297132,"SoundDuration":297132,"Delta":30534840},{"NoteNumber":60,"Velocity":35,"Duration":297132,"SoundDuration":297132,"Delta":30534840},{"NoteNumber":64,"Velocity":38,"Duration":297132,"SoundDuration":297132,"Delta":30534840},{"NoteNumber":55,"Velocity":35,"Duration":297132,"SoundDuration":297132,"Delta":30534840},{"NoteNumber":79,"Velocity":69,"Duration":302053,"SoundDuration":302053,"Delta":30831973},{"NoteNumber":60,"Velocity":38,"Duration":302053,"SoundDuration":302053,"Delta":30831973},{"NoteNumber":64,"Velocity":43,"Duration":302053,"SoundDuration":302053,"Delta":30831973},{"NoteNumber":55,"Velocity":38,"Duration":302053,"SoundDuration":302053,"Delta":30831973},{"NoteNumber":74,"Velocity":73,"Duration":456147,"SoundDuration":456147,"Delta":31134027},{"NoteNumber":48,"Velocity":44,"Duration":305530,"SoundDuration":305530,"Delta":31134027},{"NoteNumber":65,"Velocity":39,"Duration":301234,"SoundDuration":301234,"Delta":31439557},{"NoteNumber":71,"Velocity":41,"Duration":301234,"SoundDuration":301234,"Delta":31439557},{"NoteNumber":53,"Velocity":35,"Duration":301234,"SoundDuration":301234,"Delta":31439557},{"NoteNumber":62,"Velocity":39,"Duration":301234,"SoundDuration":301234,"Delta":31439557},{"NoteNumber":56,"Velocity":35,"Duration":301234,"SoundDuration":301234,"Delta":31439557},{"NoteNumber":76,"Velocity":70,"Duration":150617,"SoundDuration":150617,"Delta":31590174},{"NoteNumber":65,"Velocity":45,"Duration":308150,"SoundDuration":308150,"Delta":31740792},{"NoteNumber":71,"Velocity":44,"Duration":308150,"SoundDuration":308150,"Delta":31740792},{"NoteNumber":74,"Velocity":64,"Duration":154075,"SoundDuration":154075,"Delta":31740792},{"NoteNumber":62,"Velocity":36,"Duration":308150,"SoundDuration":308150,"Delta":31740792},{"NoteNumber":56,"Velocity":31,"Duration":308150,"SoundDuration":308150,"Delta":31740792},{"NoteNumber":53,"Velocity":31,"Duration":308150,"SoundDuration":308150,"Delta":31740792},{"NoteNumber":76,"Velocity":60,"Duration":154075,"SoundDuration":154075,"Delta":31894867},{"NoteNumber":72,"Velocity":66,"Duration":456147,"SoundDuration":456147,"Delta":32048943},{"NoteNumber":48,"Velocity":44,"Duration":305529,"SoundDuration":305529,"Delta":32048943},{"NoteNumber":60,"Velocity":29,"Duration":301234,"SoundDuration":301234,"Delta":32354473},{"NoteNumber":64,"Velocity":34,"Duration":301234,"SoundDuration":301234,"Delta":32354473},{"NoteNumber":55,"Velocity":29,"Duration":301234,"SoundDuration":301234,"Delta":32354473},{"NoteNumber":76,"Velocity":55,"Duration":150617,"SoundDuration":150617,"Delta":32505090},{"NoteNumber":75,"Velocity":58,"Duration":154075,"SoundDuration":154075,"Delta":32655708},{"NoteNumber":76,"Velocity":56,"Duration":154075,"SoundDuration":154075,"Delta":32809783},{"NoteNumber":72,"Velocity":66,"Duration":456147,"SoundDuration":456147,"Delta":32963859},{"NoteNumber":48,"Velocity":44,"Duration":305529,"SoundDuration":305529,"Delta":32963859},{"NoteNumber":55,"Velocity":29,"Duration":303678,"SoundDuration":303678,"Delta":33269389},{"NoteNumber":64,"Velocity":34,"Duration":303678,"SoundDuration":303678,"Delta":33269389},{"NoteNumber":60,"Velocity":29,"Duration":303678,"SoundDuration":303678,"Delta":33269389},{"NoteNumber":76,"Velocity":55,"Duration":153061,"SoundDuration":153061,"Delta":33420006},{"NoteNumber":75,"Velocity":58,"Duration":155440,"SoundDuration":155440,"Delta":33573067},{"NoteNumber":76,"Velocity":56,"Duration":155440,"SoundDuration":155440,"Delta":33728508},{"NoteNumber":72,"Velocity":66,"Duration":153061,"SoundDuration":153061,"Delta":33883948},{"NoteNumber":48,"Velocity":44,"Duration":303815,"SoundDuration":303815,"Delta":33883948},{"NoteNumber":76,"Velocity":55,"Duration":150753,"SoundDuration":150753,"Delta":34037009},{"NoteNumber":75,"Velocity":58,"Duration":152672,"SoundDuration":152672,"Delta":34187763},{"NoteNumber":60,"Velocity":29,"Duration":305343,"SoundDuration":305343,"Delta":34187763},{"NoteNumber":64,"Velocity":34,"Duration":305343,"SoundDuration":305343,"Delta":34187763},{"NoteNumber":55,"Velocity":29,"Duration":305343,"SoundDuration":305343,"Delta":34187763},{"NoteNumber":76,"Velocity":55,"Duration":152671,"SoundDuration":152671,"Delta":34340435},{"NoteNumber":72,"Velocity":62,"Duration":151461,"SoundDuration":151461,"Delta":34493107},{"NoteNumber":76,"Velocity":56,"Duration":149768,"SoundDuration":149768,"Delta":34644569},{"NoteNumber":75,"Velocity":59,"Duration":150187,"SoundDuration":150187,"Delta":34794337},{"NoteNumber":76,"Velocity":55,"Duration":151461,"SoundDuration":151461,"Delta":34944524},{"NoteNumber":72,"Velocity":63,"Duration":150617,"SoundDuration":150617,"Delta":35095986},{"NoteNumber":76,"Velocity":55,"Duration":149350,"SoundDuration":149350,"Delta":35246603},{"NoteNumber":75,"Velocity":58,"Duration":151461,"SoundDuration":151461,"Delta":35395954},{"NoteNumber":76,"Velocity":56,"Duration":151461,"SoundDuration":151461,"Delta":35547415},{"NoteNumber":73,"Velocity":59,"Duration":148515,"SoundDuration":148515,"Delta":35698877},{"NoteNumber":58,"Velocity":44,"Duration":298703,"SoundDuration":298703,"Delta":35698877},{"NoteNumber":77,"Velocity":55,"Duration":150188,"SoundDuration":150188,"Delta":35847392},{"NoteNumber":76,"Velocity":64,"Duration":148883,"SoundDuration":148883,"Delta":35997581},{"NoteNumber":61,"Velocity":33,"Duration":296303,"SoundDuration":296303,"Delta":35997581},{"NoteNumber":65,"Velocity":37,"Duration":296303,"SoundDuration":296303,"Delta":35997581},{"NoteNumber":77,"Velocity":56,"Duration":147419,"SoundDuration":147419,"Delta":36146464},{"NoteNumber":73,"Velocity":60,"Duration":149625,"SoundDuration":149625,"Delta":36293884},{"NoteNumber":61,"Velocity":34,"Duration":299252,"SoundDuration":299252,"Delta":36293884},{"NoteNumber":65,"Velocity":38,"Duration":299252,"SoundDuration":299252,"Delta":36293884},{"NoteNumber":77,"Velocity":58,"Duration":149626,"SoundDuration":149626,"Delta":36443510},{"NoteNumber":76,"Velocity":62,"Duration":148147,"SoundDuration":148147,"Delta":36593136},{"NoteNumber":56,"Velocity":46,"Duration":298147,"SoundDuration":298147,"Delta":36593136},{"NoteNumber":77,"Velocity":58,"Duration":149999,"SoundDuration":149999,"Delta":36741284},{"NoteNumber":73,"Velocity":68,"Duration":148934,"SoundDuration":148934,"Delta":36884409},{"NoteNumber":65,"Velocity":38,"Duration":296303,"SoundDuration":296303,"Delta":36891284},{"NoteNumber":61,"Velocity":34,"Duration":296303,"SoundDuration":296303,"Delta":36891284},{"NoteNumber":58,"Velocity":34,"Duration":296303,"SoundDuration":296303,"Delta":36891284},{"NoteNumber":77,"Velocity":60,"Duration":147419,"SoundDuration":147419,"Delta":37040168},{"NoteNumber":76,"Velocity":63,"Duration":149999,"SoundDuration":149999,"Delta":37187588},{"NoteNumber":65,"Velocity":39,"Duration":299999,"SoundDuration":299999,"Delta":37187588},{"NoteNumber":61,"Velocity":35,"Duration":299999,"SoundDuration":299999,"Delta":37187588},{"NoteNumber":58,"Velocity":35,"Duration":299999,"SoundDuration":299999,"Delta":37187588},{"NoteNumber":77,"Velocity":62,"Duration":149999,"SoundDuration":149999,"Delta":37337588},{"NoteNumber":71,"Velocity":67,"Duration":904539,"SoundDuration":904539,"Delta":37487588},{"NoteNumber":55,"Velocity":49,"Duration":300345,"SoundDuration":300345,"Delta":37487588},{"NoteNumber":77,"Velocity":62,"Duration":151461,"SoundDuration":151461,"Delta":37636471},{"NoteNumber":76,"Velocity":72,"Duration":150656,"SoundDuration":150656,"Delta":37780991},{"NoteNumber":62,"Velocity":36,"Duration":299967,"SoundDuration":299967,"Delta":37787933},{"NoteNumber":59,"Velocity":36,"Duration":299967,"SoundDuration":299967,"Delta":37787933},{"NoteNumber":65,"Velocity":40,"Duration":299967,"SoundDuration":299967,"Delta":37787933},{"NoteNumber":77,"Velocity":63,"Duration":149350,"SoundDuration":149350,"Delta":37938550},{"NoteNumber":80,"Velocity":75,"Duration":151461,"SoundDuration":151461,"Delta":38087901},{"NoteNumber":65,"Velocity":41,"Duration":304226,"SoundDuration":304226,"Delta":38087901},{"NoteNumber":62,"Velocity":36,"Duration":304226,"SoundDuration":304226,"Delta":38087901},{"NoteNumber":59,"Velocity":36,"Duration":304226,"SoundDuration":304226,"Delta":38087901},{"NoteNumber":79,"Velocity":71,"Duration":152765,"SoundDuration":152765,"Delta":38239362},{"NoteNumber":75,"Velocity":82,"Duration":451837,"SoundDuration":451837,"Delta":38392127},{"NoteNumber":48,"Velocity":55,"Duration":302069,"SoundDuration":302069,"Delta":38392127},{"NoteNumber":67,"Velocity":44,"Duration":301659,"SoundDuration":301659,"Delta":38694196},{"NoteNumber":60,"Velocity":44,"Duration":301659,"SoundDuration":301659,"Delta":38694196},{"NoteNumber":55,"Velocity":44,"Duration":301659,"SoundDuration":301659,"Delta":38694196},{"NoteNumber":76,"Velocity":70,"Duration":151890,"SoundDuration":151890,"Delta":38843964},{"NoteNumber":79,"Velocity":72,"Duration":151890,"SoundDuration":151890,"Delta":38995855},{"NoteNumber":60,"Velocity":49,"Duration":303781,"SoundDuration":303781,"Delta":38995855},{"NoteNumber":55,"Velocity":49,"Duration":303781,"SoundDuration":303781,"Delta":38995855},{"NoteNumber":67,"Velocity":49,"Duration":303781,"SoundDuration":303781,"Delta":38995855},{"NoteNumber":84,"Velocity":68,"Duration":151890,"SoundDuration":151890,"Delta":39147746},{"NoteNumber":69,"Velocity":67,"Duration":905843,"SoundDuration":905843,"Delta":39299637},{"NoteNumber":53,"Velocity":49,"Duration":301649,"SoundDuration":301649,"Delta":39299637},{"NoteNumber":75,"Velocity":62,"Duration":151461,"SoundDuration":151461,"Delta":39449825},{"NoteNumber":74,"Velocity":72,"Duration":150617,"SoundDuration":150617,"Delta":39601286},{"NoteNumber":65,"Velocity":40,"Duration":299967,"SoundDuration":299967,"Delta":39601286},{"NoteNumber":60,"Velocity":36,"Duration":299967,"SoundDuration":299967,"Delta":39601286},{"NoteNumber":57,"Velocity":36,"Duration":299967,"SoundDuration":299967,"Delta":39601286},{"NoteNumber":75,"Velocity":63,"Duration":149350,"SoundDuration":149350,"Delta":39751904},{"NoteNumber":78,"Velocity":69,"Duration":151461,"SoundDuration":151461,"Delta":39901254},{"NoteNumber":65,"Velocity":41,"Duration":304226,"SoundDuration":304226,"Delta":39901254},{"NoteNumber":60,"Velocity":36,"Duration":304226,"SoundDuration":304226,"Delta":39901254},{"NoteNumber":57,"Velocity":36,"Duration":304226,"SoundDuration":304226,"Delta":39901254},{"NoteNumber":77,"Velocity":66,"Duration":152765,"SoundDuration":152765,"Delta":40052716},{"NoteNumber":72,"Velocity":71,"Duration":451837,"SoundDuration":451837,"Delta":40205481},{"NoteNumber":46,"Velocity":52,"Duration":302069,"SoundDuration":302069,"Delta":40205481},{"NoteNumber":61,"Velocity":39,"Duration":301659,"SoundDuration":301659,"Delta":40507550},{"NoteNumber":58,"Velocity":39,"Duration":301659,"SoundDuration":301659,"Delta":40507550},{"NoteNumber":65,"Velocity":39,"Duration":301659,"SoundDuration":301659,"Delta":40507550},{"NoteNumber":73,"Velocity":69,"Duration":151890,"SoundDuration":151890,"Delta":40657318},{"NoteNumber":77,"Velocity":68,"Duration":151890,"SoundDuration":151890,"Delta":40809209},{"NoteNumber":61,"Velocity":44,"Duration":303781,"SoundDuration":303781,"Delta":40809209},{"NoteNumber":58,"Velocity":44,"Duration":303781,"SoundDuration":303781,"Delta":40809209},{"NoteNumber":65,"Velocity":44,"Duration":303781,"SoundDuration":303781,"Delta":40809209},{"NoteNumber":82,"Velocity":64,"Duration":151890,"SoundDuration":151890,"Delta":40961100},{"NoteNumber":69,"Velocity":72,"Duration":451837,"SoundDuration":451837,"Delta":41112991},{"NoteNumber":49,"Velocity":48,"Duration":302069,"SoundDuration":302069,"Delta":41112991},{"NoteNumber":65,"Velocity":39,"Duration":301659,"SoundDuration":301659,"Delta":41415060},{"NoteNumber":58,"Velocity":39,"Duration":301659,"SoundDuration":301659,"Delta":41415060},{"NoteNumber":61,"Velocity":39,"Duration":301659,"SoundDuration":301659,"Delta":41415060},{"NoteNumber":70,"Velocity":67,"Duration":151890,"SoundDuration":151890,"Delta":41564828},{"NoteNumber":73,"Velocity":70,"Duration":151890,"SoundDuration":151890,"Delta":41716719},{"NoteNumber":65,"Velocity":39,"Duration":303781,"SoundDuration":303781,"Delta":41716719},{"NoteNumber":58,"Velocity":39,"Duration":303781,"SoundDuration":303781,"Delta":41716719},{"NoteNumber":61,"Velocity":39,"Duration":303781,"SoundDuration":303781,"Delta":41716719},{"NoteNumber":80,"Velocity":66,"Duration":151890,"SoundDuration":151890,"Delta":41868610},{"NoteNumber":79,"Velocity":66,"Duration":151890,"SoundDuration":151890,"Delta":42020501},{"NoteNumber":51,"Velocity":48,"Duration":303782,"SoundDuration":303782,"Delta":42020501},{"NoteNumber":77,"Velocity":60,"Duration":151891,"SoundDuration":151891,"Delta":42172392},{"NoteNumber":75,"Velocity":61,"Duration":151890,"SoundDuration":151890,"Delta":42324283},{"NoteNumber":61,"Velocity":35,"Duration":303781,"SoundDuration":303781,"Delta":42324283},{"NoteNumber":63,"Velocity":39,"Duration":303781,"SoundDuration":303781,"Delta":42324283},{"NoteNumber":58,"Velocity":35,"Duration":303781,"SoundDuration":303781,"Delta":42324283},{"NoteNumber":74,"Velocity":56,"Duration":151890,"SoundDuration":151890,"Delta":42476174},{"NoteNumber":77,"Velocity":59,"Duration":153846,"SoundDuration":153846,"Delta":42628065},{"NoteNumber":61,"Velocity":36,"Duration":307692,"SoundDuration":307692,"Delta":42628065},{"NoteNumber":63,"Velocity":40,"Duration":307692,"SoundDuration":307692,"Delta":42628065},{"NoteNumber":58,"Velocity":36,"Duration":307692,"SoundDuration":307692,"Delta":42628065},{"NoteNumber":75,"Velocity":56,"Duration":153846,"SoundDuration":153846,"Delta":42781911},{"NoteNumber":73,"Velocity":59,"Duration":152672,"SoundDuration":152672,"Delta":42935757},{"NoteNumber":58,"Velocity":45,"Duration":304133,"SoundDuration":304133,"Delta":42935757},{"NoteNumber":77,"Velocity":55,"Duration":151461,"SoundDuration":151461,"Delta":43088429},{"NoteNumber":76,"Velocity":64,"Duration":151898,"SoundDuration":151898,"Delta":43239890},{"NoteNumber":65,"Velocity":38,"Duration":301898,"SoundDuration":301898,"Delta":43239890},{"NoteNumber":61,"Velocity":34,"Duration":301898,"SoundDuration":301898,"Delta":43239890},{"NoteNumber":77,"Velocity":56,"Duration":149999,"SoundDuration":149999,"Delta":43391789},{"NoteNumber":73,"Velocity":60,"Duration":151461,"SoundDuration":151461,"Delta":43541789},{"NoteNumber":61,"Velocity":35,"Duration":302922,"SoundDuration":302922,"Delta":43541789},{"NoteNumber":65,"Velocity":39,"Duration":302922,"SoundDuration":302922,"Delta":43541789},{"NoteNumber":77,"Velocity":58,"Duration":151461,"SoundDuration":151461,"Delta":43693250},{"NoteNumber":76,"Velocity":62,"Duration":148883,"SoundDuration":148883,"Delta":43844712},{"NoteNumber":56,"Velocity":48,"Duration":300345,"SoundDuration":300345,"Delta":43844712},{"NoteNumber":77,"Velocity":58,"Duration":151461,"SoundDuration":151461,"Delta":43993595},{"NoteNumber":73,"Velocity":68,"Duration":149354,"SoundDuration":149354,"Delta":44138115},{"NoteNumber":61,"Velocity":36,"Duration":297037,"SoundDuration":297037,"Delta":44145057},{"NoteNumber":58,"Velocity":36,"Duration":297037,"SoundDuration":297037,"Delta":44145057},{"NoteNumber":65,"Velocity":40,"Duration":297037,"SoundDuration":297037,"Delta":44145057},{"NoteNumber":77,"Velocity":60,"Duration":147783,"SoundDuration":147783,"Delta":44294310},{"NoteNumber":76,"Velocity":63,"Duration":149625,"SoundDuration":149625,"Delta":44442094},{"NoteNumber":61,"Velocity":37,"Duration":299252,"SoundDuration":299252,"Delta":44442094},{"NoteNumber":58,"Velocity":37,"Duration":299252,"SoundDuration":299252,"Delta":44442094},{"NoteNumber":65,"Velocity":41,"Duration":299252,"SoundDuration":299252,"Delta":44442094},{"NoteNumber":77,"Velocity":62,"Duration":149626,"SoundDuration":149626,"Delta":44591720},{"NoteNumber":71,"Velocity":67,"Duration":905843,"SoundDuration":905843,"Delta":44741346},{"NoteNumber":55,"Velocity":52,"Duration":301649,"SoundDuration":301649,"Delta":44741346},{"NoteNumber":77,"Velocity":62,"Duration":151461,"SoundDuration":151461,"Delta":44891533},{"NoteNumber":76,"Velocity":72,"Duration":150656,"SoundDuration":150656,"Delta":45036053},{"NoteNumber":65,"Velocity":43,"Duration":299967,"SoundDuration":299967,"Delta":45042995},{"NoteNumber":59,"Velocity":39,"Duration":299967,"SoundDuration":299967,"Delta":45042995},{"NoteNumber":62,"Velocity":39,"Duration":299967,"SoundDuration":299967,"Delta":45042995},{"NoteNumber":77,"Velocity":63,"Duration":149350,"SoundDuration":149350,"Delta":45193612},{"NoteNumber":80,"Velocity":75,"Duration":151461,"SoundDuration":151461,"Delta":45342963},{"NoteNumber":62,"Velocity":39,"Duration":304226,"SoundDuration":304226,"Delta":45342963},{"NoteNumber":59,"Velocity":39,"Duration":304226,"SoundDuration":304226,"Delta":45342963},{"NoteNumber":65,"Velocity":44,"Duration":304226,"SoundDuration":304226,"Delta":45342963},{"NoteNumber":79,"Velocity":71,"Duration":152765,"SoundDuration":152765,"Delta":45494424},{"NoteNumber":75,"Velocity":82,"Duration":451837,"SoundDuration":451837,"Delta":45647189},{"NoteNumber":48,"Velocity":58,"Duration":302069,"SoundDuration":302069,"Delta":45647189},{"NoteNumber":60,"Velocity":49,"Duration":301659,"SoundDuration":301659,"Delta":45949258},{"NoteNumber":55,"Velocity":49,"Duration":301659,"SoundDuration":301659,"Delta":45949258},{"NoteNumber":67,"Velocity":49,"Duration":301659,"SoundDuration":301659,"Delta":45949258},{"NoteNumber":76,"Velocity":69,"Duration":151890,"SoundDuration":151890,"Delta":46099026},{"NoteNumber":79,"Velocity":72,"Duration":151890,"SoundDuration":151890,"Delta":46250917},{"NoteNumber":67,"Velocity":49,"Duration":303781,"SoundDuration":303781,"Delta":46250917},{"NoteNumber":60,"Velocity":49,"Duration":303781,"SoundDuration":303781,"Delta":46250917},{"NoteNumber":55,"Velocity":49,"Duration":303781,"SoundDuration":303781,"Delta":46250917},{"NoteNumber":84,"Velocity":69,"Duration":151890,"SoundDuration":151890,"Delta":46402808},{"NoteNumber":69,"Velocity":67,"Duration":905843,"SoundDuration":905843,"Delta":46554699},{"NoteNumber":53,"Velocity":49,"Duration":301649,"SoundDuration":301649,"Delta":46554699},{"NoteNumber":75,"Velocity":62,"Duration":151461,"SoundDuration":151461,"Delta":46704887},{"NoteNumber":74,"Velocity":72,"Duration":150617,"SoundDuration":150617,"Delta":46856348},{"NoteNumber":60,"Velocity":36,"Duration":299967,"SoundDuration":299967,"Delta":46856348},{"NoteNumber":57,"Velocity":36,"Duration":299967,"SoundDuration":299967,"Delta":46856348},{"NoteNumber":65,"Velocity":40,"Duration":299967,"SoundDuration":299967,"Delta":46856348},{"NoteNumber":75,"Velocity":63,"Duration":149350,"SoundDuration":149350,"Delta":47006966},{"NoteNumber":78,"Velocity":69,"Duration":151461,"SoundDuration":151461,"Delta":47156316},{"NoteNumber":65,"Velocity":41,"Duration":304226,"SoundDuration":304226,"Delta":47156316},{"NoteNumber":60,"Velocity":36,"Duration":304226,"SoundDuration":304226,"Delta":47156316},{"NoteNumber":57,"Velocity":36,"Duration":304226,"SoundDuration":304226,"Delta":47156316},{"NoteNumber":77,"Velocity":66,"Duration":152765,"SoundDuration":152765,"Delta":47307778},{"NoteNumber":72,"Velocity":74,"Duration":451837,"SoundDuration":451837,"Delta":47460543},{"NoteNumber":46,"Velocity":52,"Duration":302069,"SoundDuration":302069,"Delta":47460543},{"NoteNumber":61,"Velocity":39,"Duration":301659,"SoundDuration":301659,"Delta":47762612},{"NoteNumber":58,"Velocity":39,"Duration":301659,"SoundDuration":301659,"Delta":47762612},{"NoteNumber":65,"Velocity":39,"Duration":301659,"SoundDuration":301659,"Delta":47762612},{"NoteNumber":73,"Velocity":67,"Duration":151890,"SoundDuration":151890,"Delta":47912380},{"NoteNumber":77,"Velocity":70,"Duration":151890,"SoundDuration":151890,"Delta":48064271},{"NoteNumber":61,"Velocity":44,"Duration":303781,"SoundDuration":303781,"Delta":48064271},{"NoteNumber":58,"Velocity":44,"Duration":303781,"SoundDuration":303781,"Delta":48064271},{"NoteNumber":65,"Velocity":44,"Duration":303781,"SoundDuration":303781,"Delta":48064271},{"NoteNumber":82,"Velocity":64,"Duration":151890,"SoundDuration":151890,"Delta":48216162},{"NoteNumber":69,"Velocity":68,"Duration":451837,"SoundDuration":451837,"Delta":48368053},{"NoteNumber":49,"Velocity":48,"Duration":302069,"SoundDuration":302069,"Delta":48368053},{"NoteNumber":65,"Velocity":39,"Duration":301659,"SoundDuration":301659,"Delta":48670122},{"NoteNumber":58,"Velocity":39,"Duration":301659,"SoundDuration":301659,"Delta":48670122},{"NoteNumber":61,"Velocity":39,"Duration":301659,"SoundDuration":301659,"Delta":48670122},{"NoteNumber":70,"Velocity":60,"Duration":151890,"SoundDuration":151890,"Delta":48819890},{"NoteNumber":72,"Velocity":62,"Duration":151890,"SoundDuration":151890,"Delta":48971781},{"NoteNumber":61,"Velocity":39,"Duration":303781,"SoundDuration":303781,"Delta":48971781},{"NoteNumber":58,"Velocity":39,"Duration":303781,"SoundDuration":303781,"Delta":48971781},{"NoteNumber":65,"Velocity":39,"Duration":303781,"SoundDuration":303781,"Delta":48971781},{"NoteNumber":73,"Velocity":59,"Duration":151890,"SoundDuration":151890,"Delta":49123672},{"NoteNumber":66,"Velocity":63,"Duration":451837,"SoundDuration":451837,"Delta":49275563},{"NoteNumber":51,"Velocity":45,"Duration":302069,"SoundDuration":302069,"Delta":49275563},{"NoteNumber":61,"Velocity":37,"Duration":301659,"SoundDuration":301659,"Delta":49577632},{"NoteNumber":58,"Velocity":37,"Duration":301659,"SoundDuration":301659,"Delta":49577632},{"NoteNumber":63,"Velocity":37,"Duration":301659,"SoundDuration":301659,"Delta":49577632},{"NoteNumber":67,"Velocity":57,"Duration":151890,"SoundDuration":151890,"Delta":49727400},{"NoteNumber":69,"Velocity":59,"Duration":151890,"SoundDuration":151890,"Delta":49879291},{"NoteNumber":63,"Velocity":37,"Duration":303781,"SoundDuration":303781,"Delta":49879291},{"NoteNumber":58,"Velocity":37,"Duration":303781,"SoundDuration":303781,"Delta":49879291},{"NoteNumber":61,"Velocity":37,"Duration":303781,"SoundDuration":303781,"Delta":49879291},{"NoteNumber":70,"Velocity":56,"Duration":151890,"SoundDuration":151890,"Delta":50031182},{"NoteNumber":44,"Velocity":37,"Duration":304383,"SoundDuration":304383,"Delta":50183073},{"NoteNumber":68,"Velocity":59,"Duration":601554,"SoundDuration":601554,"Delta":50487456},{"NoteNumber":51,"Velocity":27,"Duration":298982,"SoundDuration":298982,"Delta":50487456},{"NoteNumber":56,"Velocity":27,"Duration":298982,"SoundDuration":298982,"Delta":50487456},{"NoteNumber":60,"Velocity":32,"Duration":298982,"SoundDuration":298982,"Delta":50487456},{"NoteNumber":63,"Velocity":39,"Duration":302571,"SoundDuration":302571,"Delta":50786439},{"NoteNumber":51,"Velocity":24,"Duration":302571,"SoundDuration":302571,"Delta":50786439},{"NoteNumber":60,"Velocity":27,"Duration":302571,"SoundDuration":302571,"Delta":50786439},{"NoteNumber":56,"Velocity":24,"Duration":302571,"SoundDuration":302571,"Delta":50786439},{"NoteNumber":70,"Velocity":59,"Duration":601615,"SoundDuration":601615,"Delta":51089011},{"NoteNumber":39,"Velocity":44,"Duration":298982,"SoundDuration":298982,"Delta":51089011},{"NoteNumber":63,"Velocity":28,"Duration":302633,"SoundDuration":302633,"Delta":51387994},{"NoteNumber":68,"Velocity":31,"Duration":302633,"SoundDuration":302633,"Delta":51387994},{"NoteNumber":51,"Velocity":19,"Duration":302633,"SoundDuration":302633,"Delta":51387994},{"NoteNumber":56,"Velocity":19,"Duration":302633,"SoundDuration":302633,"Delta":51387994},{"NoteNumber":60,"Velocity":22,"Duration":302633,"SoundDuration":302633,"Delta":51387994},{"NoteNumber":72,"Velocity":59,"Duration":296765,"SoundDuration":296765,"Delta":51690627},{"NoteNumber":51,"Velocity":26,"Duration":296765,"SoundDuration":296765,"Delta":51690627},{"NoteNumber":56,"Velocity":26,"Duration":296765,"SoundDuration":296765,"Delta":51690627},{"NoteNumber":60,"Velocity":29,"Duration":296765,"SoundDuration":296765,"Delta":51690627},{"NoteNumber":46,"Velocity":39,"Duration":301644,"SoundDuration":301644,"Delta":51987392},{"NoteNumber":73,"Velocity":63,"Duration":602344,"SoundDuration":602344,"Delta":52289036},{"NoteNumber":51,"Velocity":30,"Duration":298715,"SoundDuration":298715,"Delta":52289036},{"NoteNumber":61,"Velocity":34,"Duration":298715,"SoundDuration":298715,"Delta":52289036},{"NoteNumber":55,"Velocity":30,"Duration":298715,"SoundDuration":298715,"Delta":52289036},{"NoteNumber":63,"Velocity":34,"Duration":303628,"SoundDuration":303628,"Delta":52587752},{"NoteNumber":67,"Velocity":38,"Duration":303628,"SoundDuration":303628,"Delta":52587752},{"NoteNumber":51,"Velocity":22,"Duration":303628,"SoundDuration":303628,"Delta":52587752},{"NoteNumber":61,"Velocity":25,"Duration":303628,"SoundDuration":303628,"Delta":52587752},{"NoteNumber":55,"Velocity":22,"Duration":303628,"SoundDuration":303628,"Delta":52587752},{"NoteNumber":72,"Velocity":62,"Duration":607255,"SoundDuration":607255,"Delta":52891380},{"NoteNumber":39,"Velocity":39,"Duration":303628,"SoundDuration":303628,"Delta":52891380},{"NoteNumber":67,"Velocity":35,"Duration":303627,"SoundDuration":303627,"Delta":53195008},{"NoteNumber":63,"Velocity":30,"Duration":303627,"SoundDuration":303627,"Delta":53195008},{"NoteNumber":61,"Velocity":23,"Duration":303627,"SoundDuration":303627,"Delta":53195008},{"NoteNumber":51,"Velocity":20,"Duration":303627,"SoundDuration":303627,"Delta":53195008},{"NoteNumber":55,"Velocity":20,"Duration":303627,"SoundDuration":303627,"Delta":53195008},{"NoteNumber":70,"Velocity":51,"Duration":303628,"SoundDuration":303628,"Delta":53498636},{"NoteNumber":61,"Velocity":32,"Duration":303628,"SoundDuration":303628,"Delta":53498636},{"NoteNumber":51,"Velocity":27,"Duration":303628,"SoundDuration":303628,"Delta":53498636},{"NoteNumber":55,"Velocity":27,"Duration":303628,"SoundDuration":303628,"Delta":53498636},{"NoteNumber":44,"Velocity":51,"Duration":309756,"SoundDuration":309756,"Delta":53802264},{"NoteNumber":72,"Velocity":63,"Duration":613449,"SoundDuration":613449,"Delta":54112021},{"NoteNumber":51,"Velocity":33,"Duration":302633,"SoundDuration":302633,"Delta":54112021},{"NoteNumber":56,"Velocity":33,"Duration":302633,"SoundDuration":302633,"Delta":54112021},{"NoteNumber":60,"Velocity":36,"Duration":302633,"SoundDuration":302633,"Delta":54112021},{"NoteNumber":68,"Velocity":42,"Duration":310816,"SoundDuration":310816,"Delta":54414654},{"NoteNumber":63,"Velocity":38,"Duration":310816,"SoundDuration":310816,"Delta":54414654},{"NoteNumber":51,"Velocity":27,"Duration":310816,"SoundDuration":310816,"Delta":54414654},{"NoteNumber":60,"Velocity":33,"Duration":310816,"SoundDuration":310816,"Delta":54414654},{"NoteNumber":56,"Velocity":27,"Duration":310816,"SoundDuration":310816,"Delta":54414654},{"NoteNumber":73,"Velocity":68,"Duration":608972,"SoundDuration":608972,"Delta":54725470},{"NoteNumber":39,"Velocity":59,"Duration":303628,"SoundDuration":303628,"Delta":54725470},{"NoteNumber":63,"Velocity":37,"Duration":305343,"SoundDuration":305343,"Delta":55029098},{"NoteNumber":68,"Velocity":41,"Duration":305343,"SoundDuration":305343,"Delta":55029098},{"NoteNumber":54,"Velocity":27,"Duration":305343,"SoundDuration":305343,"Delta":55029098},{"NoteNumber":56,"Velocity":27,"Duration":305343,"SoundDuration":305343,"Delta":55029098},{"NoteNumber":60,"Velocity":32,"Duration":305343,"SoundDuration":305343,"Delta":55029098},{"NoteNumber":75,"Velocity":71,"Duration":301507,"SoundDuration":301507,"Delta":55334442},{"NoteNumber":54,"Velocity":34,"Duration":301507,"SoundDuration":301507,"Delta":55334442},{"NoteNumber":56,"Velocity":34,"Duration":301507,"SoundDuration":301507,"Delta":55334442},{"NoteNumber":60,"Velocity":37,"Duration":301507,"SoundDuration":301507,"Delta":55334442},{"NoteNumber":77,"Velocity":73,"Duration":228304,"SoundDuration":228304,"Delta":55635950},{"NoteNumber":44,"Velocity":52,"Duration":228304,"SoundDuration":228304,"Delta":55635950},{"NoteNumber":53,"Velocity":31,"Duration":339800,"SoundDuration":339800,"Delta":55864254},{"NoteNumber":56,"Velocity":37,"Duration":317870,"SoundDuration":317870,"Delta":55886184},{"NoteNumber":59,"Velocity":44,"Duration":295940,"SoundDuration":295940,"Delta":55908114},{"NoteNumber":68,"Velocity":51,"Duration":274010,"SoundDuration":274010,"Delta":55930044},{"NoteNumber":74,"Velocity":56,"Duration":252081,"SoundDuration":252081,"Delta":55951974},{"NoteNumber":79,"Velocity":74,"Duration":230151,"SoundDuration":230151,"Delta":55973904},{"NoteNumber":53,"Velocity":33,"Duration":440228,"SoundDuration":440228,"Delta":56204055},{"NoteNumber":56,"Velocity":40,"Duration":418298,"SoundDuration":418298,"Delta":56225985},{"NoteNumber":59,"Velocity":45,"Duration":396368,"SoundDuration":396368,"Delta":56247914},{"NoteNumber":68,"Velocity":51,"Duration":374438,"SoundDuration":374438,"Delta":56269844},{"NoteNumber":74,"Velocity":56,"Duration":352508,"SoundDuration":352508,"Delta":56291774},{"NoteNumber":80,"Velocity":77,"Duration":330579,"SoundDuration":330579,"Delta":56313704},{"NoteNumber":75,"Velocity":81,"Duration":943460,"SoundDuration":943460,"Delta":56644283},{"NoteNumber":44,"Velocity":57,"Duration":315789,"SoundDuration":315789,"Delta":56644283},{"NoteNumber":63,"Velocity":38,"Duration":315788,"SoundDuration":315788,"Delta":56960072},{"NoteNumber":68,"Velocity":38,"Duration":315788,"SoundDuration":315788,"Delta":56960072},{"NoteNumber":72,"Velocity":44,"Duration":315788,"SoundDuration":315788,"Delta":56960072},{"NoteNumber":51,"Velocity":22,"Duration":315788,"SoundDuration":315788,"Delta":56960072},{"NoteNumber":56,"Velocity":22,"Duration":315788,"SoundDuration":315788,"Delta":56960072},{"NoteNumber":60,"Velocity":25,"Duration":315788,"SoundDuration":315788,"Delta":56960072},{"NoteNumber":63,"Velocity":38,"Duration":311883,"SoundDuration":311883,"Delta":57275861},{"NoteNumber":68,"Velocity":38,"Duration":311883,"SoundDuration":311883,"Delta":57275861},{"NoteNumber":72,"Velocity":43,"Duration":311883,"SoundDuration":311883,"Delta":57275861},{"NoteNumber":51,"Velocity":22,"Duration":311883,"SoundDuration":311883,"Delta":57275861},{"NoteNumber":56,"Velocity":22,"Duration":311883,"SoundDuration":311883,"Delta":57275861},{"NoteNumber":60,"Velocity":25,"Duration":311883,"SoundDuration":311883,"Delta":57275861},{"NoteNumber":45,"Velocity":37,"Duration":305655,"SoundDuration":305655,"Delta":57587744},{"NoteNumber":78,"Velocity":59,"Duration":143197,"SoundDuration":143197,"Delta":57893399},{"NoteNumber":53,"Velocity":31,"Duration":286396,"SoundDuration":286396,"Delta":57893399},{"NoteNumber":60,"Velocity":31,"Duration":286396,"SoundDuration":286396,"Delta":57893399},{"NoteNumber":63,"Velocity":36,"Duration":286396,"SoundDuration":286396,"Delta":57893399},{"NoteNumber":77,"Velocity":56,"Duration":143198,"SoundDuration":143198,"Delta":58036597},{"NoteNumber":75,"Velocity":59,"Duration":155408,"SoundDuration":155408,"Delta":58179795},{"NoteNumber":53,"Velocity":27,"Duration":310816,"SoundDuration":310816,"Delta":58179795},{"NoteNumber":63,"Velocity":30,"Duration":310816,"SoundDuration":310816,"Delta":58179795},{"NoteNumber":60,"Velocity":27,"Duration":310816,"SoundDuration":310816,"Delta":58179795},{"NoteNumber":78,"Velocity":56,"Duration":155408,"SoundDuration":155408,"Delta":58335203},{"NoteNumber":77,"Velocity":62,"Duration":456971,"SoundDuration":456971,"Delta":58490611},{"NoteNumber":46,"Velocity":37,"Duration":305655,"SoundDuration":305655,"Delta":58490611},{"NoteNumber":53,"Velocity":31,"Duration":302633,"SoundDuration":302633,"Delta":58796266},{"NoteNumber":58,"Velocity":31,"Duration":302633,"SoundDuration":302633,"Delta":58796266},{"NoteNumber":61,"Velocity":36,"Duration":302633,"SoundDuration":302633,"Delta":58796266},{"NoteNumber":73,"Velocity":59,"Duration":151316,"SoundDuration":151316,"Delta":58947582},{"NoteNumber":70,"Velocity":55,"Duration":155408,"SoundDuration":155408,"Delta":59098899},{"NoteNumber":53,"Velocity":27,"Duration":310816,"SoundDuration":310816,"Delta":59098899},{"NoteNumber":61,"Velocity":30,"Duration":310816,"SoundDuration":310816,"Delta":59098899},{"NoteNumber":58,"Velocity":27,"Duration":310816,"SoundDuration":310816,"Delta":59098899},{"NoteNumber":65,"Velocity":50,"Duration":155408,"SoundDuration":155408,"Delta":59254307},{"NoteNumber":43,"Velocity":37,"Duration":305655,"SoundDuration":305655,"Delta":59409715},{"NoteNumber":76,"Velocity":59,"Duration":145278,"SoundDuration":145278,"Delta":59715370},{"NoteNumber":51,"Velocity":31,"Duration":290556,"SoundDuration":290556,"Delta":59715370},{"NoteNumber":58,"Velocity":31,"Duration":290556,"SoundDuration":290556,"Delta":59715370},{"NoteNumber":61,"Velocity":36,"Duration":290556,"SoundDuration":290556,"Delta":59715370},{"NoteNumber":75,"Velocity":56,"Duration":145278,"SoundDuration":145278,"Delta":59860648},{"NoteNumber":73,"Velocity":59,"Duration":155408,"SoundDuration":155408,"Delta":60005927},{"NoteNumber":51,"Velocity":27,"Duration":310816,"SoundDuration":310816,"Delta":60005927},{"NoteNumber":61,"Velocity":30,"Duration":310816,"SoundDuration":310816,"Delta":60005927},{"NoteNumber":58,"Velocity":27,"Duration":310816,"SoundDuration":310816,"Delta":60005927},{"NoteNumber":76,"Velocity":56,"Duration":155408,"SoundDuration":155408,"Delta":60161335},{"NoteNumber":75,"Velocity":62,"Duration":456971,"SoundDuration":456971,"Delta":60316743},{"NoteNumber":44,"Velocity":37,"Duration":305655,"SoundDuration":305655,"Delta":60316743},{"NoteNumber":51,"Velocity":31,"Duration":302633,"SoundDuration":302633,"Delta":60622398},{"NoteNumber":56,"Velocity":31,"Duration":302633,"SoundDuration":302633,"Delta":60622398},{"NoteNumber":60,"Velocity":36,"Duration":302633,"SoundDuration":302633,"Delta":60622398},{"NoteNumber":72,"Velocity":59,"Duration":151316,"SoundDuration":151316,"Delta":60773714},{"NoteNumber":68,"Velocity":57,"Duration":155408,"SoundDuration":155408,"Delta":60925031},{"NoteNumber":51,"Velocity":27,"Duration":310816,"SoundDuration":310816,"Delta":60925031},{"NoteNumber":60,"Velocity":30,"Duration":310816,"SoundDuration":310816,"Delta":60925031},{"NoteNumber":56,"Velocity":27,"Duration":310816,"SoundDuration":310816,"Delta":60925031},{"NoteNumber":63,"Velocity":52,"Duration":155408,"SoundDuration":155408,"Delta":61080439},{"NoteNumber":42,"Velocity":37,"Duration":309756,"SoundDuration":309756,"Delta":61235847},{"NoteNumber":60,"Velocity":35,"Duration":302633,"SoundDuration":302633,"Delta":61545604},{"NoteNumber":63,"Velocity":39,"Duration":302633,"SoundDuration":302633,"Delta":61545604},{"NoteNumber":68,"Velocity":59,"Duration":613449,"SoundDuration":613449,"Delta":61545604},{"NoteNumber":54,"Velocity":31,"Duration":302633,"SoundDuration":302633,"Delta":61545604},{"NoteNumber":56,"Velocity":36,"Duration":302633,"SoundDuration":302633,"Delta":61545604},{"NoteNumber":60,"Velocity":35,"Duration":310816,"SoundDuration":310816,"Delta":61848237},{"NoteNumber":63,"Velocity":39,"Duration":310816,"SoundDuration":310816,"Delta":61848237},{"NoteNumber":56,"Velocity":30,"Duration":310816,"SoundDuration":310816,"Delta":61848237},{"NoteNumber":54,"Velocity":27,"Duration":310816,"SoundDuration":310816,"Delta":61848237},{"NoteNumber":67,"Velocity":63,"Duration":606261,"SoundDuration":606261,"Delta":62159053},{"NoteNumber":41,"Velocity":44,"Duration":303628,"SoundDuration":303628,"Delta":62159053},{"NoteNumber":60,"Velocity":31,"Duration":302633,"SoundDuration":302633,"Delta":62462681},{"NoteNumber":65,"Velocity":36,"Duration":302633,"SoundDuration":302633,"Delta":62462681},{"NoteNumber":53,"Velocity":25,"Duration":302633,"SoundDuration":302633,"Delta":62462681},{"NoteNumber":56,"Velocity":28,"Duration":302633,"SoundDuration":302633,"Delta":62462681},{"NoteNumber":60,"Velocity":31,"Duration":296765,"SoundDuration":296765,"Delta":62765314},{"NoteNumber":65,"Velocity":36,"Duration":296765,"SoundDuration":296765,"Delta":62765314},{"NoteNumber":68,"Velocity":59,"Duration":296765,"SoundDuration":296765,"Delta":62765314},{"NoteNumber":53,"Velocity":29,"Duration":296765,"SoundDuration":296765,"Delta":62765314},{"NoteNumber":56,"Velocity":33,"Duration":296765,"SoundDuration":296765,"Delta":62765314},{"NoteNumber":70,"Velocity":68,"Duration":456971,"SoundDuration":456971,"Delta":63062079},{"NoteNumber":40,"Velocity":37,"Duration":305655,"SoundDuration":305655,"Delta":63062079},{"NoteNumber":62,"Velocity":31,"Duration":302633,"SoundDuration":302633,"Delta":63367734},{"NoteNumber":68,"Velocity":36,"Duration":302633,"SoundDuration":302633,"Delta":63367734},{"NoteNumber":52,"Velocity":31,"Duration":302633,"SoundDuration":302633,"Delta":63367734},{"NoteNumber":56,"Velocity":36,"Duration":302633,"SoundDuration":302633,"Delta":63367734},{"NoteNumber":71,"Velocity":61,"Duration":151316,"SoundDuration":151316,"Delta":63519050},{"NoteNumber":62,"Velocity":31,"Duration":310816,"SoundDuration":310816,"Delta":63670367},{"NoteNumber":68,"Velocity":36,"Duration":310816,"SoundDuration":310816,"Delta":63670367},{"NoteNumber":70,"Velocity":59,"Duration":155408,"SoundDuration":155408,"Delta":63670367},{"NoteNumber":52,"Velocity":27,"Duration":310816,"SoundDuration":310816,"Delta":63670367},{"NoteNumber":56,"Velocity":30,"Duration":310816,"SoundDuration":310816,"Delta":63670367},{"NoteNumber":71,"Velocity":52,"Duration":155408,"SoundDuration":155408,"Delta":63825775},{"NoteNumber":67,"Velocity":59,"Duration":927218,"SoundDuration":927218,"Delta":63981183},{"NoteNumber":39,"Velocity":37,"Duration":309756,"SoundDuration":309756,"Delta":63981183},{"NoteNumber":61,"Velocity":36,"Duration":302633,"SoundDuration":302633,"Delta":64290940},{"NoteNumber":63,"Velocity":40,"Duration":302633,"SoundDuration":302633,"Delta":64290940},{"NoteNumber":51,"Velocity":29,"Duration":302633,"SoundDuration":302633,"Delta":64290940},{"NoteNumber":58,"Velocity":34,"Duration":302633,"SoundDuration":302633,"Delta":64290940},{"NoteNumber":61,"Velocity":35,"Duration":314828,"SoundDuration":314828,"Delta":64593573},{"NoteNumber":63,"Velocity":39,"Duration":314828,"SoundDuration":314828,"Delta":64593573},{"NoteNumber":58,"Velocity":28,"Duration":314828,"SoundDuration":314828,"Delta":64593573},{"NoteNumber":51,"Velocity":25,"Duration":314828,"SoundDuration":314828,"Delta":64593573},{"NoteNumber":44,"Velocity":37,"Duration":309757,"SoundDuration":309757,"Delta":64908401},{"NoteNumber":68,"Velocity":59,"Duration":602458,"SoundDuration":602458,"Delta":65218158},{"NoteNumber":51,"Velocity":27,"Duration":298983,"SoundDuration":298983,"Delta":65218158},{"NoteNumber":56,"Velocity":27,"Duration":298983,"SoundDuration":298983,"Delta":65218158},{"NoteNumber":60,"Velocity":32,"Duration":298983,"SoundDuration":298983,"Delta":65218158},{"NoteNumber":63,"Velocity":39,"Duration":303475,"SoundDuration":303475,"Delta":65517141},{"NoteNumber":51,"Velocity":24,"Duration":303475,"SoundDuration":303475,"Delta":65517141},{"NoteNumber":60,"Velocity":27,"Duration":303475,"SoundDuration":303475,"Delta":65517141},{"NoteNumber":56,"Velocity":24,"Duration":303475,"SoundDuration":303475,"Delta":65517141},{"NoteNumber":70,"Velocity":59,"Duration":606261,"SoundDuration":606261,"Delta":65820616},{"NoteNumber":39,"Velocity":44,"Duration":303628,"SoundDuration":303628,"Delta":65820616},{"NoteNumber":63,"Velocity":28,"Duration":302633,"SoundDuration":302633,"Delta":66124244},{"NoteNumber":68,"Velocity":31,"Duration":302633,"SoundDuration":302633,"Delta":66124244},{"NoteNumber":51,"Velocity":19,"Duration":302633,"SoundDuration":302633,"Delta":66124244},{"NoteNumber":56,"Velocity":19,"Duration":302633,"SoundDuration":302633,"Delta":66124244},{"NoteNumber":60,"Velocity":22,"Duration":302633,"SoundDuration":302633,"Delta":66124244},{"NoteNumber":72,"Velocity":56,"Duration":296764,"SoundDuration":296764,"Delta":66426877},{"NoteNumber":51,"Velocity":26,"Duration":296764,"SoundDuration":296764,"Delta":66426877},{"NoteNumber":56,"Velocity":26,"Duration":296764,"SoundDuration":296764,"Delta":66426877},{"NoteNumber":60,"Velocity":29,"Duration":296764,"SoundDuration":296764,"Delta":66426877},{"NoteNumber":46,"Velocity":39,"Duration":301643,"SoundDuration":301643,"Delta":66723642},{"NoteNumber":73,"Velocity":63,"Duration":602344,"SoundDuration":602344,"Delta":67025286},{"NoteNumber":51,"Velocity":30,"Duration":298715,"SoundDuration":298715,"Delta":67025286},{"NoteNumber":61,"Velocity":34,"Duration":298715,"SoundDuration":298715,"Delta":67025286},{"NoteNumber":55,"Velocity":30,"Duration":298715,"SoundDuration":298715,"Delta":67025286},{"NoteNumber":63,"Velocity":34,"Duration":303628,"SoundDuration":303628,"Delta":67324002},{"NoteNumber":67,"Velocity":38,"Duration":303628,"SoundDuration":303628,"Delta":67324002},{"NoteNumber":51,"Velocity":22,"Duration":303628,"SoundDuration":303628,"Delta":67324002},{"NoteNumber":61,"Velocity":25,"Duration":303628,"SoundDuration":303628,"Delta":67324002},{"NoteNumber":55,"Velocity":22,"Duration":303628,"SoundDuration":303628,"Delta":67324002},{"NoteNumber":72,"Velocity":62,"Duration":607256,"SoundDuration":607256,"Delta":67627630},{"NoteNumber":39,"Velocity":39,"Duration":303628,"SoundDuration":303628,"Delta":67627630},{"NoteNumber":67,"Velocity":35,"Duration":303628,"SoundDuration":303628,"Delta":67931258},{"NoteNumber":63,"Velocity":30,"Duration":303628,"SoundDuration":303628,"Delta":67931258},{"NoteNumber":61,"Velocity":23,"Duration":303628,"SoundDuration":303628,"Delta":67931258},{"NoteNumber":51,"Velocity":20,"Duration":303628,"SoundDuration":303628,"Delta":67931258},{"NoteNumber":55,"Velocity":20,"Duration":303628,"SoundDuration":303628,"Delta":67931258},{"NoteNumber":70,"Velocity":51,"Duration":303627,"SoundDuration":303627,"Delta":68234886},{"NoteNumber":61,"Velocity":32,"Duration":303627,"SoundDuration":303627,"Delta":68234886},{"NoteNumber":51,"Velocity":27,"Duration":303627,"SoundDuration":303627,"Delta":68234886},{"NoteNumber":55,"Velocity":27,"Duration":303627,"SoundDuration":303627,"Delta":68234886},{"NoteNumber":44,"Velocity":38,"Duration":309757,"SoundDuration":309757,"Delta":68538514},{"NoteNumber":72,"Velocity":63,"Duration":613449,"SoundDuration":613449,"Delta":68848271},{"NoteNumber":51,"Velocity":30,"Duration":302633,"SoundDuration":302633,"Delta":68848271},{"NoteNumber":56,"Velocity":30,"Duration":302633,"SoundDuration":302633,"Delta":68848271},{"NoteNumber":60,"Velocity":34,"Duration":302633,"SoundDuration":302633,"Delta":68848271},{"NoteNumber":68,"Velocity":42,"Duration":310816,"SoundDuration":310816,"Delta":69150904},{"NoteNumber":63,"Velocity":38,"Duration":310816,"SoundDuration":310816,"Delta":69150904},{"NoteNumber":51,"Velocity":26,"Duration":310816,"SoundDuration":310816,"Delta":69150904},{"NoteNumber":60,"Velocity":30,"Duration":310816,"SoundDuration":310816,"Delta":69150904},{"NoteNumber":56,"Velocity":26,"Duration":310816,"SoundDuration":310816,"Delta":69150904},{"NoteNumber":73,"Velocity":68,"Duration":606261,"SoundDuration":606261,"Delta":69461720},{"NoteNumber":39,"Velocity":55,"Duration":303628,"SoundDuration":303628,"Delta":69461720},{"NoteNumber":63,"Velocity":37,"Duration":302633,"SoundDuration":302633,"Delta":69765348},{"NoteNumber":68,"Velocity":41,"Duration":302633,"SoundDuration":302633,"Delta":69765348},{"NoteNumber":54,"Velocity":27,"Duration":302633,"SoundDuration":302633,"Delta":69765348},{"NoteNumber":56,"Velocity":27,"Duration":302633,"SoundDuration":302633,"Delta":69765348},{"NoteNumber":60,"Velocity":32,"Duration":302633,"SoundDuration":302633,"Delta":69765348},{"NoteNumber":75,"Velocity":71,"Duration":296764,"SoundDuration":296764,"Delta":70067981},{"NoteNumber":54,"Velocity":34,"Duration":296764,"SoundDuration":296764,"Delta":70067981},{"NoteNumber":56,"Velocity":34,"Duration":296764,"SoundDuration":296764,"Delta":70067981},{"NoteNumber":60,"Velocity":37,"Duration":296764,"SoundDuration":296764,"Delta":70067981},{"NoteNumber":77,"Velocity":73,"Duration":224701,"SoundDuration":224701,"Delta":70364746},{"NoteNumber":44,"Velocity":57,"Duration":224701,"SoundDuration":224701,"Delta":70364746},{"NoteNumber":53,"Velocity":29,"Duration":333175,"SoundDuration":333175,"Delta":70589447},{"NoteNumber":56,"Velocity":36,"Duration":311245,"SoundDuration":311245,"Delta":70611377},{"NoteNumber":59,"Velocity":44,"Duration":289315,"SoundDuration":289315,"Delta":70633307},{"NoteNumber":68,"Velocity":48,"Duration":267385,"SoundDuration":267385,"Delta":70655237},{"NoteNumber":74,"Velocity":56,"Duration":245455,"SoundDuration":245455,"Delta":70677166},{"NoteNumber":79,"Velocity":74,"Duration":223525,"SoundDuration":223525,"Delta":70699096},{"NoteNumber":53,"Velocity":33,"Duration":435736,"SoundDuration":435736,"Delta":70922622},{"NoteNumber":56,"Velocity":39,"Duration":413806,"SoundDuration":413806,"Delta":70944552},{"NoteNumber":59,"Velocity":45,"Duration":391876,"SoundDuration":391876,"Delta":70966482},{"NoteNumber":68,"Velocity":48,"Duration":369946,"SoundDuration":369946,"Delta":70988412},{"NoteNumber":74,"Velocity":55,"Duration":348016,"SoundDuration":348016,"Delta":71010341},{"NoteNumber":80,"Velocity":77,"Duration":326087,"SoundDuration":326087,"Delta":71032271},{"NoteNumber":75,"Velocity":81,"Duration":936882,"SoundDuration":936882,"Delta":71358358},{"NoteNumber":44,"Velocity":63,"Duration":312500,"SoundDuration":312500,"Delta":71358358},{"NoteNumber":63,"Velocity":38,"Duration":312500,"SoundDuration":312500,"Delta":71670858},{"NoteNumber":68,"Velocity":38,"Duration":312500,"SoundDuration":312500,"Delta":71670858},{"NoteNumber":72,"Velocity":44,"Duration":312500,"SoundDuration":312500,"Delta":71670858},{"NoteNumber":51,"Velocity":22,"Duration":312500,"SoundDuration":312500,"Delta":71670858},{"NoteNumber":56,"Velocity":22,"Duration":312500,"SoundDuration":312500,"Delta":71670858},{"NoteNumber":60,"Velocity":25,"Duration":312500,"SoundDuration":312500,"Delta":71670858},{"NoteNumber":63,"Velocity":38,"Duration":311882,"SoundDuration":311882,"Delta":71983358},{"NoteNumber":68,"Velocity":38,"Duration":311882,"SoundDuration":311882,"Delta":71983358},{"NoteNumber":72,"Velocity":43,"Duration":311882,"SoundDuration":311882,"Delta":71983358},{"NoteNumber":51,"Velocity":22,"Duration":311882,"SoundDuration":311882,"Delta":71983358},{"NoteNumber":56,"Velocity":22,"Duration":311882,"SoundDuration":311882,"Delta":71983358},{"NoteNumber":60,"Velocity":25,"Duration":311882,"SoundDuration":311882,"Delta":71983358},{"NoteNumber":45,"Velocity":37,"Duration":305655,"SoundDuration":305655,"Delta":72295241},{"NoteNumber":78,"Velocity":59,"Duration":141509,"SoundDuration":141509,"Delta":72600896},{"NoteNumber":53,"Velocity":31,"Duration":283018,"SoundDuration":283018,"Delta":72600896},{"NoteNumber":60,"Velocity":31,"Duration":283018,"SoundDuration":283018,"Delta":72600896},{"NoteNumber":63,"Velocity":36,"Duration":283018,"SoundDuration":283018,"Delta":72600896},{"NoteNumber":77,"Velocity":56,"Duration":141509,"SoundDuration":141509,"Delta":72742406},{"NoteNumber":75,"Velocity":59,"Duration":155407,"SoundDuration":155407,"Delta":72883915},{"NoteNumber":53,"Velocity":27,"Duration":310816,"SoundDuration":310816,"Delta":72883915},{"NoteNumber":63,"Velocity":30,"Duration":310816,"SoundDuration":310816,"Delta":72883915},{"NoteNumber":60,"Velocity":27,"Duration":310816,"SoundDuration":310816,"Delta":72883915},{"NoteNumber":78,"Velocity":56,"Duration":155408,"SoundDuration":155408,"Delta":73039323},{"NoteNumber":77,"Velocity":62,"Duration":456971,"SoundDuration":456971,"Delta":73194731},{"NoteNumber":46,"Velocity":37,"Duration":305655,"SoundDuration":305655,"Delta":73194731},{"NoteNumber":53,"Velocity":31,"Duration":302633,"SoundDuration":302633,"Delta":73500386},{"NoteNumber":58,"Velocity":31,"Duration":302633,"SoundDuration":302633,"Delta":73500386},{"NoteNumber":61,"Velocity":36,"Duration":302633,"SoundDuration":302633,"Delta":73500386},{"NoteNumber":73,"Velocity":59,"Duration":151316,"SoundDuration":151316,"Delta":73651703},{"NoteNumber":70,"Velocity":55,"Duration":155407,"SoundDuration":155407,"Delta":73803019},{"NoteNumber":53,"Velocity":27,"Duration":310816,"SoundDuration":310816,"Delta":73803019},{"NoteNumber":61,"Velocity":30,"Duration":310816,"SoundDuration":310816,"Delta":73803019},{"NoteNumber":58,"Velocity":27,"Duration":310816,"SoundDuration":310816,"Delta":73803019},{"NoteNumber":65,"Velocity":50,"Duration":155408,"SoundDuration":155408,"Delta":73958427},{"NoteNumber":47,"Velocity":42,"Duration":305655,"SoundDuration":305655,"Delta":74113835},{"NoteNumber":80,"Velocity":66,"Duration":144578,"SoundDuration":144578,"Delta":74419490},{"NoteNumber":65,"Velocity":37,"Duration":289157,"SoundDuration":289157,"Delta":74419490},{"NoteNumber":55,"Velocity":33,"Duration":289157,"SoundDuration":289157,"Delta":74419490},{"NoteNumber":62,"Velocity":33,"Duration":289157,"SoundDuration":289157,"Delta":74419490},{"NoteNumber":79,"Velocity":61,"Duration":144578,"SoundDuration":144578,"Delta":74564069},{"NoteNumber":77,"Velocity":64,"Duration":150375,"SoundDuration":150375,"Delta":74708647},{"NoteNumber":55,"Velocity":28,"Duration":305414,"SoundDuration":305414,"Delta":74708647},{"NoteNumber":65,"Velocity":31,"Duration":305414,"SoundDuration":305414,"Delta":74708647},{"NoteNumber":62,"Velocity":28,"Duration":305414,"SoundDuration":305414,"Delta":74708647},{"NoteNumber":80,"Velocity":60,"Duration":155039,"SoundDuration":155039,"Delta":74859023},{"NoteNumber":79,"Velocity":68,"Duration":456971,"SoundDuration":456971,"Delta":75014062},{"NoteNumber":48,"Velocity":38,"Duration":305655,"SoundDuration":305655,"Delta":75014062},{"NoteNumber":55,"Velocity":33,"Duration":302633,"SoundDuration":302633,"Delta":75319717},{"NoteNumber":60,"Velocity":33,"Duration":302633,"SoundDuration":302633,"Delta":75319717},{"NoteNumber":64,"Velocity":37,"Duration":302633,"SoundDuration":302633,"Delta":75319717},{"NoteNumber":76,"Velocity":61,"Duration":151316,"SoundDuration":151316,"Delta":75471034},{"NoteNumber":72,"Velocity":59,"Duration":155407,"SoundDuration":155407,"Delta":75622350},{"NoteNumber":55,"Velocity":28,"Duration":310816,"SoundDuration":310816,"Delta":75622350},{"NoteNumber":64,"Velocity":31,"Duration":310816,"SoundDuration":310816,"Delta":75622350},{"NoteNumber":60,"Velocity":28,"Duration":310816,"SoundDuration":310816,"Delta":75622350},{"NoteNumber":67,"Velocity":55,"Duration":155408,"SoundDuration":155408,"Delta":75777758},{"NoteNumber":49,"Velocity":45,"Duration":305655,"SoundDuration":305655,"Delta":75933166},{"NoteNumber":82,"Velocity":70,"Duration":149842,"SoundDuration":149842,"Delta":76238821},{"NoteNumber":65,"Velocity":39,"Duration":299684,"SoundDuration":299684,"Delta":76238821},{"NoteNumber":58,"Velocity":35,"Duration":299684,"SoundDuration":299684,"Delta":76238821},{"NoteNumber":61,"Velocity":35,"Duration":299684,"SoundDuration":299684,"Delta":76238821},{"NoteNumber":80,"Velocity":64,"Duration":149842,"SoundDuration":149842,"Delta":76388664},{"NoteNumber":79,"Velocity":69,"Duration":155407,"SoundDuration":155407,"Delta":76538506},{"NoteNumber":58,"Velocity":29,"Duration":310816,"SoundDuration":310816,"Delta":76538506},{"NoteNumber":65,"Velocity":34,"Duration":310816,"SoundDuration":310816,"Delta":76538506},{"NoteNumber":61,"Velocity":29,"Duration":310816,"SoundDuration":310816,"Delta":76538506},{"NoteNumber":82,"Velocity":63,"Duration":155408,"SoundDuration":155408,"Delta":76693914},{"NoteNumber":80,"Velocity":72,"Duration":456971,"SoundDuration":456971,"Delta":76849322},{"NoteNumber":50,"Velocity":40,"Duration":305655,"SoundDuration":305655,"Delta":76849322},{"NoteNumber":56,"Velocity":35,"Duration":302633,"SoundDuration":302633,"Delta":77154977},{"NoteNumber":59,"Velocity":35,"Duration":302633,"SoundDuration":302633,"Delta":77154977},{"NoteNumber":65,"Velocity":39,"Duration":302633,"SoundDuration":302633,"Delta":77154977},{"NoteNumber":77,"Velocity":64,"Duration":151316,"SoundDuration":151316,"Delta":77306294},{"NoteNumber":71,"Velocity":62,"Duration":155407,"SoundDuration":155407,"Delta":77457610},{"NoteNumber":56,"Velocity":29,"Duration":310816,"SoundDuration":310816,"Delta":77457610},{"NoteNumber":65,"Velocity":34,"Duration":310816,"SoundDuration":310816,"Delta":77457610},{"NoteNumber":59,"Velocity":29,"Duration":310816,"SoundDuration":310816,"Delta":77457610},{"NoteNumber":68,"Velocity":58,"Duration":155408,"SoundDuration":155408,"Delta":77613018},{"NoteNumber":77,"Velocity":64,"Duration":459107,"SoundDuration":459107,"Delta":77768426},{"NoteNumber":51,"Velocity":36,"Duration":305655,"SoundDuration":305655,"Delta":77768426},{"NoteNumber":55,"Velocity":30,"Duration":306905,"SoundDuration":306905,"Delta":78074081},{"NoteNumber":61,"Velocity":30,"Duration":306905,"SoundDuration":306905,"Delta":78074081},{"NoteNumber":63,"Velocity":35,"Duration":306905,"SoundDuration":306905,"Delta":78074081},{"NoteNumber":73,"Velocity":58,"Duration":153452,"SoundDuration":153452,"Delta":78227534},{"NoteNumber":70,"Velocity":56,"Duration":159574,"SoundDuration":159574,"Delta":78380986},{"NoteNumber":55,"Velocity":26,"Duration":319148,"SoundDuration":319148,"Delta":78380986},{"NoteNumber":63,"Velocity":29,"Duration":319148,"SoundDuration":319148,"Delta":78380986},{"NoteNumber":61,"Velocity":26,"Duration":319148,"SoundDuration":319148,"Delta":78380986},{"NoteNumber":67,"Velocity":51,"Duration":159574,"SoundDuration":159574,"Delta":78540561},{"NoteNumber":70,"Velocity":58,"Duration":465560,"SoundDuration":465560,"Delta":78700135},{"NoteNumber":44,"Velocity":31,"Duration":312500,"SoundDuration":312500,"Delta":78700135},{"NoteNumber":51,"Velocity":27,"Duration":306122,"SoundDuration":306122,"Delta":79012635},{"NoteNumber":56,"Velocity":27,"Duration":306122,"SoundDuration":306122,"Delta":79012635},{"NoteNumber":60,"Velocity":30,"Duration":306122,"SoundDuration":306122,"Delta":79012635},{"NoteNumber":68,"Velocity":51,"Duration":153061,"SoundDuration":153061,"Delta":79165696},{"NoteNumber":63,"Velocity":49,"Duration":159999,"SoundDuration":159999,"Delta":79318757},{"NoteNumber":51,"Velocity":23,"Duration":325745,"SoundDuration":325745,"Delta":79318757},{"NoteNumber":60,"Velocity":26,"Duration":325745,"SoundDuration":325745,"Delta":79318757},{"NoteNumber":56,"Velocity":23,"Duration":325745,"SoundDuration":325745,"Delta":79318757},{"NoteNumber":60,"Velocity":46,"Duration":165745,"SoundDuration":165745,"Delta":79478757},{"NoteNumber":59,"Velocity":47,"Duration":458915,"SoundDuration":458915,"Delta":79644503},{"NoteNumber":68,"Velocity":51,"Duration":1208708,"SoundDuration":1208708,"Delta":79952717},{"NoteNumber":52,"Velocity":39,"Duration":903938,"SoundDuration":903938,"Delta":79952717},{"NoteNumber":58,"Velocity":44,"Duration":150700,"SoundDuration":150700,"Delta":80103418},{"NoteNumber":61,"Velocity":47,"Duration":152384,"SoundDuration":152384,"Delta":80254119},{"NoteNumber":58,"Velocity":42,"Duration":152385,"SoundDuration":152385,"Delta":80406504},{"NoteNumber":59,"Velocity":46,"Duration":908159,"SoundDuration":908159,"Delta":80558889},{"NoteNumber":51,"Velocity":47,"Duration":908900,"SoundDuration":908900,"Delta":80856656},{"NoteNumber":66,"Velocity":51,"Duration":911475,"SoundDuration":911475,"Delta":81161426},{"NoteNumber":59,"Velocity":47,"Duration":904359,"SoundDuration":904359,"Delta":81467049},{"NoteNumber":49,"Velocity":45,"Duration":911850,"SoundDuration":911850,"Delta":81765556},{"NoteNumber":64,"Velocity":51,"Duration":754783,"SoundDuration":754783,"Delta":82072902},{"NoteNumber":59,"Velocity":47,"Duration":911324,"SoundDuration":911324,"Delta":82371409},{"NoteNumber":47,"Velocity":48,"Duration":605326,"SoundDuration":605326,"Delta":82677407},{"NoteNumber":63,"Velocity":46,"Duration":150278,"SoundDuration":150278,"Delta":82827685},{"NoteNumber":62,"Velocity":49,"Duration":152384,"SoundDuration":152384,"Delta":82977963},{"NoteNumber":63,"Velocity":47,"Duration":152385,"SoundDuration":152385,"Delta":83130348},{"NoteNumber":59,"Velocity":47,"Duration":457097,"SoundDuration":457097,"Delta":83282733},{"NoteNumber":68,"Velocity":51,"Duration":1203603,"SoundDuration":1203603,"Delta":83590947},{"NoteNumber":52,"Velocity":39,"Duration":898832,"SoundDuration":898832,"Delta":83590947},{"NoteNumber":58,"Velocity":44,"Duration":148883,"SoundDuration":148883,"Delta":83739831},{"NoteNumber":61,"Velocity":47,"Duration":152384,"SoundDuration":152384,"Delta":83888714},{"NoteNumber":58,"Velocity":42,"Duration":152385,"SoundDuration":152385,"Delta":84041099},{"NoteNumber":59,"Velocity":46,"Duration":906689,"SoundDuration":906689,"Delta":84193484},{"NoteNumber":51,"Velocity":47,"Duration":908159,"SoundDuration":908159,"Delta":84489780},{"NoteNumber":66,"Velocity":51,"Duration":1962122,"SoundDuration":1962122,"Delta":84794550},{"NoteNumber":59,"Velocity":47,"Duration":901641,"SoundDuration":901641,"Delta":85100173},{"NoteNumber":49,"Velocity":45,"Duration":905792,"SoundDuration":905792,"Delta":85397940},{"NoteNumber":76,"Velocity":68,"Duration":749225,"SoundDuration":749225,"Delta":85704785},{"NoteNumber":59,"Velocity":47,"Duration":907243,"SoundDuration":907243,"Delta":86001815},{"NoteNumber":47,"Velocity":48,"Duration":605326,"SoundDuration":605326,"Delta":86303732},{"NoteNumber":75,"Velocity":56,"Duration":150278,"SoundDuration":150278,"Delta":86454010},{"NoteNumber":71,"Velocity":59,"Duration":152384,"SoundDuration":152384,"Delta":86604288},{"NoteNumber":66,"Velocity":55,"Duration":152385,"SoundDuration":152385,"Delta":86756673},{"NoteNumber":59,"Velocity":47,"Duration":456362,"SoundDuration":456362,"Delta":86909058},{"NoteNumber":68,"Velocity":51,"Duration":1202132,"SoundDuration":1202132,"Delta":87217272},{"NoteNumber":52,"Velocity":39,"Duration":897362,"SoundDuration":897362,"Delta":87217272},{"NoteNumber":58,"Velocity":44,"Duration":148147,"SoundDuration":148147,"Delta":87365420},{"NoteNumber":61,"Velocity":47,"Duration":152384,"SoundDuration":152384,"Delta":87513568},{"NoteNumber":58,"Velocity":42,"Duration":152385,"SoundDuration":152385,"Delta":87665953},{"NoteNumber":59,"Velocity":46,"Duration":906689,"SoundDuration":906689,"Delta":87818338},{"NoteNumber":51,"Velocity":47,"Duration":908900,"SoundDuration":908900,"Delta":88114634},{"NoteNumber":66,"Velocity":51,"Duration":911475,"SoundDuration":911475,"Delta":88419404},{"NoteNumber":59,"Velocity":47,"Duration":903619,"SoundDuration":903619,"Delta":88725027},{"NoteNumber":49,"Velocity":45,"Duration":911110,"SoundDuration":911110,"Delta":89023534},{"NoteNumber":64,"Velocity":51,"Duration":752648,"SoundDuration":752648,"Delta":89330880},{"NoteNumber":59,"Velocity":47,"Duration":908535,"SoundDuration":908535,"Delta":89628647},{"NoteNumber":47,"Velocity":48,"Duration":602536,"SoundDuration":602536,"Delta":89934645},{"NoteNumber":63,"Velocity":46,"Duration":148883,"SoundDuration":148883,"Delta":90083529},{"NoteNumber":62,"Velocity":49,"Duration":152384,"SoundDuration":152384,"Delta":90232412},{"NoteNumber":63,"Velocity":47,"Duration":152385,"SoundDuration":152385,"Delta":90384797},{"NoteNumber":59,"Velocity":47,"Duration":456729,"SoundDuration":456729,"Delta":90537182},{"NoteNumber":68,"Velocity":51,"Duration":1203600,"SoundDuration":1203600,"Delta":90845396},{"NoteNumber":52,"Velocity":39,"Duration":898830,"SoundDuration":898830,"Delta":90845396},{"NoteNumber":58,"Velocity":44,"Duration":148515,"SoundDuration":148515,"Delta":90993911},{"NoteNumber":61,"Velocity":47,"Duration":152384,"SoundDuration":152384,"Delta":91142426},{"NoteNumber":58,"Velocity":42,"Duration":152385,"SoundDuration":152385,"Delta":91294811},{"NoteNumber":59,"Velocity":46,"Duration":907423,"SoundDuration":907423,"Delta":91447196},{"NoteNumber":51,"Velocity":47,"Duration":908900,"SoundDuration":908900,"Delta":91744226},{"NoteNumber":66,"Velocity":51,"Duration":911790,"SoundDuration":911790,"Delta":92048996},{"NoteNumber":58,"Velocity":47,"Duration":902463,"SoundDuration":902463,"Delta":92354619},{"NoteNumber":51,"Velocity":45,"Duration":603956,"SoundDuration":603956,"Delta":92653126},{"NoteNumber":67,"Velocity":63,"Duration":447254,"SoundDuration":447254,"Delta":92960787},{"NoteNumber":44,"Velocity":51,"Duration":301917,"SoundDuration":301917,"Delta":93257083},{"NoteNumber":75,"Velocity":63,"Duration":150958,"SoundDuration":150958,"Delta":93408042},{"NoteNumber":71,"Velocity":64,"Duration":150278,"SoundDuration":150278,"Delta":93559000},{"NoteNumber":51,"Velocity":36,"Duration":300556,"SoundDuration":300556,"Delta":93559000},{"NoteNumber":56,"Velocity":36,"Duration":300556,"SoundDuration":300556,"Delta":93559000},{"NoteNumber":59,"Velocity":42,"Duration":300556,"SoundDuration":300556,"Delta":93559000},{"NoteNumber":70,"Velocity":61,"Duration":150278,"SoundDuration":150278,"Delta":93709278},{"NoteNumber":68,"Velocity":62,"Duration":306826,"SoundDuration":306826,"Delta":93859556},{"NoteNumber":69,"Velocity":73,"Duration":452419,"SoundDuration":452419,"Delta":94166383},{"NoteNumber":54,"Velocity":57,"Duration":303535,"SoundDuration":303535,"Delta":94166383},{"NoteNumber":61,"Velocity":46,"Duration":600427,"SoundDuration":600427,"Delta":94469919},{"NoteNumber":57,"Velocity":46,"Duration":600427,"SoundDuration":600427,"Delta":94469919},{"NoteNumber":66,"Velocity":52,"Duration":600427,"SoundDuration":600427,"Delta":94469919},{"NoteNumber":73,"Velocity":68,"Duration":148883,"SoundDuration":148883,"Delta":94618803},{"NoteNumber":78,"Velocity":72,"Duration":150375,"SoundDuration":150375,"Delta":94767686},{"NoteNumber":81,"Velocity":68,"Duration":152284,"SoundDuration":152284,"Delta":94918062},{"NoteNumber":73,"Velocity":64,"Duration":918036,"SoundDuration":918036,"Delta":95070347},{"NoteNumber":68,"Velocity":67,"Duration":612848,"SoundDuration":612848,"Delta":95070347},{"NoteNumber":80,"Velocity":75,"Duration":612848,"SoundDuration":612848,"Delta":95070347},{"NoteNumber":52,"Velocity":57,"Duration":307660,"SoundDuration":307660,"Delta":95070347},{"NoteNumber":57,"Velocity":45,"Duration":610376,"SoundDuration":610376,"Delta":95378008},{"NoteNumber":61,"Velocity":51,"Duration":610376,"SoundDuration":610376,"Delta":95378008},{"NoteNumber":66,"Velocity":64,"Duration":305188,"SoundDuration":305188,"Delta":95683196},{"NoteNumber":78,"Velocity":72,"Duration":305188,"SoundDuration":305188,"Delta":95683196},{"NoteNumber":51,"Velocity":57,"Duration":458915,"SoundDuration":458915,"Delta":95988384},{"NoteNumber":59,"Velocity":52,"Duration":606172,"SoundDuration":606172,"Delta":96296598},{"NoteNumber":66,"Velocity":52,"Duration":606172,"SoundDuration":606172,"Delta":96296598},{"NoteNumber":69,"Velocity":52,"Duration":606172,"SoundDuration":606172,"Delta":96296598},{"NoteNumber":71,"Velocity":52,"Duration":606172,"SoundDuration":606172,"Delta":96296598},{"NoteNumber":49,"Velocity":53,"Duration":150700,"SoundDuration":150700,"Delta":96447299},{"NoteNumber":52,"Velocity":58,"Duration":152384,"SoundDuration":152384,"Delta":96598000},{"NoteNumber":51,"Velocity":53,"Duration":152385,"SoundDuration":152385,"Delta":96750385},{"NoteNumber":61,"Velocity":63,"Duration":76192,"SoundDuration":76192,"Delta":96902770},{"NoteNumber":66,"Velocity":63,"Duration":76192,"SoundDuration":76192,"Delta":96902770},{"NoteNumber":69,"Velocity":63,"Duration":76192,"SoundDuration":76192,"Delta":96902770},{"NoteNumber":73,"Velocity":70,"Duration":76192,"SoundDuration":76192,"Delta":96902770},{"NoteNumber":49,"Velocity":56,"Duration":76192,"SoundDuration":76192,"Delta":96902770},{"NoteNumber":63,"Velocity":57,"Duration":76192,"SoundDuration":76192,"Delta":97207540},{"NoteNumber":66,"Velocity":57,"Duration":76192,"SoundDuration":76192,"Delta":97207540},{"NoteNumber":69,"Velocity":57,"Duration":76192,"SoundDuration":76192,"Delta":97207540},{"NoteNumber":75,"Velocity":64,"Duration":76192,"SoundDuration":76192,"Delta":97207540},{"NoteNumber":48,"Velocity":52,"Duration":76192,"SoundDuration":76192,"Delta":97207540},{"NoteNumber":64,"Velocity":55,"Duration":76192,"SoundDuration":76192,"Delta":97512310},{"NoteNumber":68,"Velocity":55,"Duration":76192,"SoundDuration":76192,"Delta":97512310},{"NoteNumber":76,"Velocity":62,"Duration":76192,"SoundDuration":76192,"Delta":97512310},{"NoteNumber":47,"Velocity":52,"Duration":76192,"SoundDuration":76192,"Delta":97512310},{"NoteNumber":66,"Velocity":63,"Duration":456729,"SoundDuration":456729,"Delta":97817080},{"NoteNumber":46,"Velocity":52,"Duration":308214,"SoundDuration":308214,"Delta":97817080},{"NoteNumber":61,"Velocity":44,"Duration":599690,"SoundDuration":599690,"Delta":98125294},{"NoteNumber":52,"Velocity":39,"Duration":599690,"SoundDuration":599690,"Delta":98125294},{"NoteNumber":54,"Velocity":39,"Duration":599690,"SoundDuration":599690,"Delta":98125294},{"NoteNumber":65,"Velocity":57,"Duration":148515,"SoundDuration":148515,"Delta":98273809},{"NoteNumber":68,"Velocity":64,"Duration":150375,"SoundDuration":150375,"Delta":98422324},{"NoteNumber":66,"Velocity":58,"Duration":152284,"SoundDuration":152284,"Delta":98572700},{"NoteNumber":75,"Velocity":63,"Duration":304569,"SoundDuration":304569,"Delta":98724984},{"NoteNumber":45,"Velocity":50,"Duration":304569,"SoundDuration":304569,"Delta":98724984},{"NoteNumber":73,"Velocity":61,"Duration":304569,"SoundDuration":304569,"Delta":99029553},{"NoteNumber":51,"Velocity":34,"Duration":610567,"SoundDuration":610567,"Delta":99029553},{"NoteNumber":54,"Velocity":34,"Duration":610567,"SoundDuration":610567,"Delta":99029553},{"NoteNumber":59,"Velocity":39,"Duration":610567,"SoundDuration":610567,"Delta":99029553},{"NoteNumber":71,"Velocity":61,"Duration":305998,"SoundDuration":305998,"Delta":99334122},{"NoteNumber":44,"Velocity":56,"Duration":459173,"SoundDuration":459173,"Delta":99640120},{"NoteNumber":59,"Velocity":53,"Duration":606365,"SoundDuration":606365,"Delta":99948210},{"NoteNumber":64,"Velocity":53,"Duration":606365,"SoundDuration":606365,"Delta":99948210},{"NoteNumber":71,"Velocity":53,"Duration":606365,"SoundDuration":606365,"Delta":99948210},{"NoteNumber":43,"Velocity":51,"Duration":150700,"SoundDuration":150700,"Delta":100092387},{"NoteNumber":45,"Velocity":57,"Duration":152195,"SoundDuration":152195,"Delta":100249995},{"NoteNumber":44,"Velocity":52,"Duration":152384,"SoundDuration":152384,"Delta":100395206},{"NoteNumber":49,"Velocity":56,"Duration":304770,"SoundDuration":304770,"Delta":100554575},{"NoteNumber":56,"Velocity":48,"Duration":614112,"SoundDuration":614112,"Delta":100859345},{"NoteNumber":64,"Velocity":48,"Duration":614112,"SoundDuration":614112,"Delta":100859345},{"NoteNumber":68,"Velocity":53,"Duration":614112,"SoundDuration":614112,"Delta":100859345},{"NoteNumber":47,"Velocity":53,"Duration":304770,"SoundDuration":304770,"Delta":100859345},{"NoteNumber":40,"Velocity":53,"Duration":309342,"SoundDuration":309342,"Delta":101164115},{"NoteNumber":69,"Velocity":73,"Duration":452050,"SoundDuration":452050,"Delta":101473457},{"NoteNumber":54,"Velocity":57,"Duration":303535,"SoundDuration":303535,"Delta":101473457},{"NoteNumber":61,"Velocity":46,"Duration":602218,"SoundDuration":602218,"Delta":101776993},{"NoteNumber":57,"Velocity":46,"Duration":602218,"SoundDuration":602218,"Delta":101776993},{"NoteNumber":66,"Velocity":52,"Duration":602218,"SoundDuration":602218,"Delta":101776993},{"NoteNumber":73,"Velocity":68,"Duration":148515,"SoundDuration":148515,"Delta":101925508},{"NoteNumber":78,"Velocity":72,"Duration":152593,"SoundDuration":152593,"Delta":102074023},{"NoteNumber":81,"Velocity":68,"Duration":152594,"SoundDuration":152594,"Delta":102226617},{"NoteNumber":73,"Velocity":64,"Duration":918036,"SoundDuration":918036,"Delta":102379211},{"NoteNumber":68,"Velocity":67,"Duration":612848,"SoundDuration":612848,"Delta":102379211},{"NoteNumber":80,"Velocity":75,"Duration":612848,"SoundDuration":612848,"Delta":102379211},{"NoteNumber":52,"Velocity":57,"Duration":307660,"SoundDuration":307660,"Delta":102379211},{"NoteNumber":57,"Velocity":45,"Duration":610376,"SoundDuration":610376,"Delta":102686872},{"NoteNumber":61,"Velocity":51,"Duration":610376,"SoundDuration":610376,"Delta":102686872},{"NoteNumber":66,"Velocity":64,"Duration":305188,"SoundDuration":305188,"Delta":102992060},{"NoteNumber":78,"Velocity":72,"Duration":305188,"SoundDuration":305188,"Delta":102992060},{"NoteNumber":51,"Velocity":57,"Duration":458915,"SoundDuration":458915,"Delta":103297248},{"NoteNumber":59,"Velocity":52,"Duration":606172,"SoundDuration":606172,"Delta":103605462},{"NoteNumber":66,"Velocity":52,"Duration":606172,"SoundDuration":606172,"Delta":103605462},{"NoteNumber":69,"Velocity":52,"Duration":606172,"SoundDuration":606172,"Delta":103605462},{"NoteNumber":71,"Velocity":52,"Duration":606172,"SoundDuration":606172,"Delta":103605462},{"NoteNumber":49,"Velocity":53,"Duration":150700,"SoundDuration":150700,"Delta":103756163},{"NoteNumber":52,"Velocity":58,"Duration":152384,"SoundDuration":152384,"Delta":103906864},{"NoteNumber":51,"Velocity":53,"Duration":152385,"SoundDuration":152385,"Delta":104059249},{"NoteNumber":61,"Velocity":63,"Duration":76192,"SoundDuration":76192,"Delta":104211634},{"NoteNumber":66,"Velocity":63,"Duration":76192,"SoundDuration":76192,"Delta":104211634},{"NoteNumber":69,"Velocity":63,"Duration":76192,"SoundDuration":76192,"Delta":104211634},{"NoteNumber":73,"Velocity":70,"Duration":76192,"SoundDuration":76192,"Delta":104211634},{"NoteNumber":49,"Velocity":56,"Duration":76192,"SoundDuration":76192,"Delta":104211634},{"NoteNumber":63,"Velocity":57,"Duration":76192,"SoundDuration":76192,"Delta":104516404},{"NoteNumber":66,"Velocity":57,"Duration":76192,"SoundDuration":76192,"Delta":104516404},{"NoteNumber":69,"Velocity":57,"Duration":76192,"SoundDuration":76192,"Delta":104516404},{"NoteNumber":75,"Velocity":64,"Duration":76192,"SoundDuration":76192,"Delta":104516404},{"NoteNumber":48,"Velocity":52,"Duration":76192,"SoundDuration":76192,"Delta":104516404},{"NoteNumber":64,"Velocity":55,"Duration":76192,"SoundDuration":76192,"Delta":104821174},{"NoteNumber":68,"Velocity":55,"Duration":76192,"SoundDuration":76192,"Delta":104821174},{"NoteNumber":76,"Velocity":62,"Duration":76192,"SoundDuration":76192,"Delta":104821174},{"NoteNumber":47,"Velocity":52,"Duration":76192,"SoundDuration":76192,"Delta":104821174},{"NoteNumber":66,"Velocity":63,"Duration":456362,"SoundDuration":456362,"Delta":105125944},{"NoteNumber":46,"Velocity":52,"Duration":308214,"SoundDuration":308214,"Delta":105125944},{"NoteNumber":61,"Velocity":44,"Duration":601066,"SoundDuration":601066,"Delta":105434158},{"NoteNumber":52,"Velocity":39,"Duration":601066,"SoundDuration":601066,"Delta":105434158},{"NoteNumber":54,"Velocity":39,"Duration":601066,"SoundDuration":601066,"Delta":105434158},{"NoteNumber":65,"Velocity":57,"Duration":148147,"SoundDuration":148147,"Delta":105582306},{"NoteNumber":68,"Velocity":64,"Duration":152384,"SoundDuration":152384,"Delta":105730454},{"NoteNumber":66,"Velocity":58,"Duration":152385,"SoundDuration":152385,"Delta":105882839},{"NoteNumber":75,"Velocity":63,"Duration":304769,"SoundDuration":304769,"Delta":106035224},{"NoteNumber":45,"Velocity":50,"Duration":304769,"SoundDuration":304769,"Delta":106035224},{"NoteNumber":73,"Velocity":61,"Duration":304770,"SoundDuration":304770,"Delta":106339994},{"NoteNumber":51,"Velocity":34,"Duration":610768,"SoundDuration":610768,"Delta":106339994},{"NoteNumber":54,"Velocity":34,"Duration":610768,"SoundDuration":610768,"Delta":106339994},{"NoteNumber":59,"Velocity":39,"Duration":610768,"SoundDuration":610768,"Delta":106339994},{"NoteNumber":71,"Velocity":61,"Duration":305998,"SoundDuration":305998,"Delta":106644764},{"NoteNumber":44,"Velocity":56,"Duration":459173,"SoundDuration":459173,"Delta":106950762},{"NoteNumber":59,"Velocity":53,"Duration":606365,"SoundDuration":606365,"Delta":107258852},{"NoteNumber":64,"Velocity":53,"Duration":606365,"SoundDuration":606365,"Delta":107258852},{"NoteNumber":71,"Velocity":53,"Duration":606365,"SoundDuration":606365,"Delta":107258852},{"NoteNumber":43,"Velocity":51,"Duration":150700,"SoundDuration":150700,"Delta":107403029},{"NoteNumber":45,"Velocity":57,"Duration":152195,"SoundDuration":152195,"Delta":107560637},{"NoteNumber":44,"Velocity":52,"Duration":152384,"SoundDuration":152384,"Delta":107705848},{"NoteNumber":51,"Velocity":56,"Duration":77120,"SoundDuration":77120,"Delta":107865217},{"NoteNumber":64,"Velocity":57,"Duration":79155,"SoundDuration":79155,"Delta":108177770},{"NoteNumber":66,"Velocity":57,"Duration":79155,"SoundDuration":79155,"Delta":108177770},{"NoteNumber":70,"Velocity":57,"Duration":79155,"SoundDuration":79155,"Delta":108177770},{"NoteNumber":49,"Velocity":52,"Duration":79155,"SoundDuration":79155,"Delta":108177770},{"NoteNumber":63,"Velocity":55,"Duration":81521,"SoundDuration":81521,"Delta":108494393},{"NoteNumber":66,"Velocity":55,"Duration":81521,"SoundDuration":81521,"Delta":108494393},{"NoteNumber":71,"Velocity":62,"Duration":81521,"SoundDuration":81521,"Delta":108494393},{"NoteNumber":47,"Velocity":52,"Duration":81521,"SoundDuration":81521,"Delta":108494393},{"NoteNumber":59,"Velocity":47,"Duration":457097,"SoundDuration":457097,"Delta":108820480},{"NoteNumber":68,"Velocity":51,"Duration":1201425,"SoundDuration":1201425,"Delta":109128694},{"NoteNumber":52,"Velocity":39,"Duration":896654,"SoundDuration":896654,"Delta":109128694},{"NoteNumber":58,"Velocity":44,"Duration":148883,"SoundDuration":148883,"Delta":109277578},{"NoteNumber":61,"Velocity":47,"Duration":152384,"SoundDuration":152384,"Delta":109426461},{"NoteNumber":58,"Velocity":42,"Duration":152385,"SoundDuration":152385,"Delta":109578846},{"NoteNumber":59,"Velocity":46,"Duration":904510,"SoundDuration":904510,"Delta":109731231},{"NoteNumber":51,"Velocity":47,"Duration":907423,"SoundDuration":907423,"Delta":110025349},{"NoteNumber":66,"Velocity":51,"Duration":909998,"SoundDuration":909998,"Delta":110330119},{"NoteNumber":59,"Velocity":47,"Duration":902883,"SoundDuration":902883,"Delta":110635742},{"NoteNumber":49,"Velocity":45,"Duration":911850,"SoundDuration":911850,"Delta":110932772},{"NoteNumber":64,"Velocity":51,"Duration":752288,"SoundDuration":752288,"Delta":111240118},{"NoteNumber":59,"Velocity":47,"Duration":906335,"SoundDuration":906335,"Delta":111538625},{"NoteNumber":47,"Velocity":48,"Duration":600337,"SoundDuration":600337,"Delta":111844623},{"NoteNumber":63,"Velocity":46,"Duration":147783,"SoundDuration":147783,"Delta":111992407},{"NoteNumber":62,"Velocity":49,"Duration":152384,"SoundDuration":152384,"Delta":112140190},{"NoteNumber":63,"Velocity":47,"Duration":152385,"SoundDuration":152385,"Delta":112292575},{"NoteNumber":59,"Velocity":47,"Duration":457097,"SoundDuration":457097,"Delta":112444960},{"NoteNumber":68,"Velocity":51,"Duration":1203603,"SoundDuration":1203603,"Delta":112753174},{"NoteNumber":52,"Velocity":39,"Duration":898832,"SoundDuration":898832,"Delta":112753174},{"NoteNumber":58,"Velocity":44,"Duration":148883,"SoundDuration":148883,"Delta":112902058},{"NoteNumber":61,"Velocity":47,"Duration":152384,"SoundDuration":152384,"Delta":113050941},{"NoteNumber":58,"Velocity":42,"Duration":152385,"SoundDuration":152385,"Delta":113203326},{"NoteNumber":59,"Velocity":46,"Duration":906689,"SoundDuration":906689,"Delta":113355711},{"NoteNumber":51,"Velocity":47,"Duration":908159,"SoundDuration":908159,"Delta":113652007},{"NoteNumber":66,"Velocity":51,"Duration":1965009,"SoundDuration":1965009,"Delta":113956777},{"NoteNumber":59,"Velocity":47,"Duration":904528,"SoundDuration":904528,"Delta":114262400},{"NoteNumber":49,"Velocity":45,"Duration":908678,"SoundDuration":908678,"Delta":114560167},{"NoteNumber":76,"Velocity":68,"Duration":751716,"SoundDuration":751716,"Delta":114867408},{"NoteNumber":59,"Velocity":47,"Duration":907243,"SoundDuration":907243,"Delta":115166929},{"NoteNumber":47,"Velocity":48,"Duration":605326,"SoundDuration":605326,"Delta":115468846},{"NoteNumber":75,"Velocity":50,"Duration":150278,"SoundDuration":150278,"Delta":115619124},{"NoteNumber":71,"Velocity":55,"Duration":152384,"SoundDuration":152384,"Delta":115769402},{"NoteNumber":66,"Velocity":47,"Duration":152385,"SoundDuration":152385,"Delta":115921787},{"NoteNumber":59,"Velocity":47,"Duration":456729,"SoundDuration":456729,"Delta":116074172},{"NoteNumber":68,"Velocity":51,"Duration":1203600,"SoundDuration":1203600,"Delta":116382386},{"NoteNumber":52,"Velocity":39,"Duration":898830,"SoundDuration":898830,"Delta":116382386},{"NoteNumber":58,"Velocity":44,"Duration":148515,"SoundDuration":148515,"Delta":116530901},{"NoteNumber":61,"Velocity":47,"Duration":152384,"SoundDuration":152384,"Delta":116679416},{"NoteNumber":58,"Velocity":42,"Duration":152385,"SoundDuration":152385,"Delta":116831801},{"NoteNumber":59,"Velocity":46,"Duration":907423,"SoundDuration":907423,"Delta":116984186},{"NoteNumber":51,"Velocity":47,"Duration":909644,"SoundDuration":909644,"Delta":117281216},{"NoteNumber":66,"Velocity":51,"Duration":912220,"SoundDuration":912220,"Delta":117585986},{"NoteNumber":59,"Velocity":47,"Duration":905849,"SoundDuration":905849,"Delta":117891609},{"NoteNumber":49,"Velocity":45,"Duration":912595,"SoundDuration":912595,"Delta":118190861},{"NoteNumber":64,"Velocity":51,"Duration":753398,"SoundDuration":753398,"Delta":118498207},{"NoteNumber":59,"Velocity":47,"Duration":907064,"SoundDuration":907064,"Delta":118797459},{"NoteNumber":47,"Velocity":48,"Duration":601066,"SoundDuration":601066,"Delta":119103457},{"NoteNumber":63,"Velocity":46,"Duration":148147,"SoundDuration":148147,"Delta":119251605},{"NoteNumber":62,"Velocity":49,"Duration":152384,"SoundDuration":152384,"Delta":119399753},{"NoteNumber":63,"Velocity":47,"Duration":152385,"SoundDuration":152385,"Delta":119552138},{"NoteNumber":59,"Velocity":47,"Duration":457097,"SoundDuration":457097,"Delta":119704523},{"NoteNumber":68,"Velocity":51,"Duration":1203603,"SoundDuration":1203603,"Delta":120012737},{"NoteNumber":52,"Velocity":39,"Duration":898832,"SoundDuration":898832,"Delta":120012737},{"NoteNumber":58,"Velocity":44,"Duration":148883,"SoundDuration":148883,"Delta":120161620},{"NoteNumber":61,"Velocity":47,"Duration":152384,"SoundDuration":152384,"Delta":120310504},{"NoteNumber":58,"Velocity":42,"Duration":152385,"SoundDuration":152385,"Delta":120462889},{"NoteNumber":59,"Velocity":46,"Duration":906689,"SoundDuration":906689,"Delta":120615274},{"NoteNumber":51,"Velocity":47,"Duration":908900,"SoundDuration":908900,"Delta":120911570},{"NoteNumber":66,"Velocity":56,"Duration":911475,"SoundDuration":911475,"Delta":121216340},{"NoteNumber":58,"Velocity":50,"Duration":905104,"SoundDuration":905104,"Delta":121521963},{"NoteNumber":61,"Velocity":50,"Duration":905104,"SoundDuration":905104,"Delta":121521963},{"NoteNumber":51,"Velocity":48,"Duration":910949,"SoundDuration":910949,"Delta":121820470},{"NoteNumber":67,"Velocity":59,"Duration":901370,"SoundDuration":901370,"Delta":122127816},{"NoteNumber":59,"Velocity":52,"Duration":906470,"SoundDuration":906470,"Delta":122427068},{"NoteNumber":63,"Velocity":52,"Duration":906470,"SoundDuration":906470,"Delta":122427068},{"NoteNumber":51,"Velocity":49,"Duration":906470,"SoundDuration":906470,"Delta":122731420},{"NoteNumber":68,"Velocity":59,"Duration":304351,"SoundDuration":304351,"Delta":123029187},{"NoteNumber":55,"Velocity":47,"Duration":906889,"SoundDuration":906889,"Delta":123333539},{"NoteNumber":61,"Velocity":47,"Duration":906889,"SoundDuration":906889,"Delta":123333539},{"NoteNumber":63,"Velocity":52,"Duration":906889,"SoundDuration":906889,"Delta":123333539},{"NoteNumber":51,"Velocity":49,"Duration":899567,"SoundDuration":899567,"Delta":123637891},{"NoteNumber":70,"Velocity":55,"Duration":148883,"SoundDuration":148883,"Delta":123786774},{"NoteNumber":71,"Velocity":59,"Duration":152384,"SoundDuration":152384,"Delta":123935658},{"NoteNumber":70,"Velocity":56,"Duration":152385,"SoundDuration":152385,"Delta":124088043},{"NoteNumber":73,"Velocity":60,"Duration":601382,"SoundDuration":601382,"Delta":124240428},{"NoteNumber":56,"Velocity":41,"Duration":907380,"SoundDuration":907380,"Delta":124240428},{"NoteNumber":59,"Velocity":41,"Duration":907380,"SoundDuration":907380,"Delta":124240428},{"NoteNumber":63,"Velocity":47,"Duration":907380,"SoundDuration":907380,"Delta":124240428},{"NoteNumber":51,"Velocity":49,"Duration":610349,"SoundDuration":610349,"Delta":124537458},{"NoteNumber":71,"Velocity":56,"Duration":305998,"SoundDuration":305998,"Delta":124841810},{"NoteNumber":59,"Velocity":44,"Duration":906888,"SoundDuration":906888,"Delta":125147808},{"NoteNumber":63,"Velocity":44,"Duration":906888,"SoundDuration":906888,"Delta":125147808},{"NoteNumber":68,"Velocity":49,"Duration":906888,"SoundDuration":906888,"Delta":125147808},{"NoteNumber":51,"Velocity":51,"Duration":602536,"SoundDuration":602536,"Delta":125452160},{"NoteNumber":74,"Velocity":57,"Duration":148883,"SoundDuration":148883,"Delta":125601043},{"NoteNumber":76,"Velocity":61,"Duration":152384,"SoundDuration":152384,"Delta":125749927},{"NoteNumber":74,"Velocity":58,"Duration":152385,"SoundDuration":152385,"Delta":125902312},{"NoteNumber":76,"Velocity":63,"Duration":610767,"SoundDuration":610767,"Delta":126054697},{"NoteNumber":58,"Velocity":44,"Duration":916765,"SoundDuration":916765,"Delta":126054697},{"NoteNumber":61,"Velocity":44,"Duration":916765,"SoundDuration":916765,"Delta":126054697},{"NoteNumber":67,"Velocity":49,"Duration":916765,"SoundDuration":916765,"Delta":126054697},{"NoteNumber":51,"Velocity":51,"Duration":611996,"SoundDuration":611996,"Delta":126359467},{"NoteNumber":75,"Velocity":58,"Duration":305998,"SoundDuration":305998,"Delta":126665465},{"NoteNumber":55,"Velocity":41,"Duration":906152,"SoundDuration":906152,"Delta":126971463},{"NoteNumber":61,"Velocity":41,"Duration":906152,"SoundDuration":906152,"Delta":126971463},{"NoteNumber":63,"Velocity":47,"Duration":906152,"SoundDuration":906152,"Delta":126971463},{"NoteNumber":51,"Velocity":49,"Duration":903717,"SoundDuration":903717,"Delta":127275815},{"NoteNumber":70,"Velocity":55,"Duration":148515,"SoundDuration":148515,"Delta":127424330},{"NoteNumber":71,"Velocity":59,"Duration":152384,"SoundDuration":152384,"Delta":127572845},{"NoteNumber":70,"Velocity":56,"Duration":152385,"SoundDuration":152385,"Delta":127725230},{"NoteNumber":73,"Velocity":60,"Duration":606268,"SoundDuration":606268,"Delta":127877615},{"NoteNumber":56,"Velocity":41,"Duration":912266,"SoundDuration":912266,"Delta":127877615},{"NoteNumber":59,"Velocity":41,"Duration":912266,"SoundDuration":912266,"Delta":127877615},{"NoteNumber":63,"Velocity":47,"Duration":912266,"SoundDuration":912266,"Delta":127877615},{"NoteNumber":51,"Velocity":49,"Duration":610349,"SoundDuration":610349,"Delta":128179532},{"NoteNumber":71,"Velocity":56,"Duration":305997,"SoundDuration":305997,"Delta":128483884},{"NoteNumber":59,"Velocity":44,"Duration":910550,"SoundDuration":910550,"Delta":128789882},{"NoteNumber":63,"Velocity":44,"Duration":910550,"SoundDuration":910550,"Delta":128789882},{"NoteNumber":68,"Velocity":49,"Duration":910550,"SoundDuration":910550,"Delta":128789882},{"NoteNumber":51,"Velocity":51,"Duration":606199,"SoundDuration":606199,"Delta":129094234},{"NoteNumber":74,"Velocity":57,"Duration":149253,"SoundDuration":149253,"Delta":129243487},{"NoteNumber":76,"Velocity":61,"Duration":153845,"SoundDuration":153845,"Delta":129392741},{"NoteNumber":74,"Velocity":58,"Duration":153846,"SoundDuration":153846,"Delta":129546587},{"NoteNumber":76,"Velocity":67,"Duration":469600,"SoundDuration":469600,"Delta":129700433},{"NoteNumber":58,"Velocity":44,"Duration":932754,"SoundDuration":932754,"Delta":129700433},{"NoteNumber":61,"Velocity":44,"Duration":932754,"SoundDuration":932754,"Delta":129700433},{"NoteNumber":67,"Velocity":49,"Duration":932754,"SoundDuration":932754,"Delta":129700433},{"NoteNumber":51,"Velocity":51,"Duration":617793,"SoundDuration":617793,"Delta":130015394},{"NoteNumber":75,"Velocity":58,"Duration":154639,"SoundDuration":154639,"Delta":130170033},{"NoteNumber":74,"Velocity":62,"Duration":154257,"SoundDuration":154257,"Delta":130324672},{"NoteNumber":75,"Velocity":58,"Duration":154257,"SoundDuration":154257,"Delta":130478929},{"NoteNumber":76,"Velocity":67,"Duration":469999,"SoundDuration":469999,"Delta":130633187},{"NoteNumber":58,"Velocity":44,"Duration":951761,"SoundDuration":951761,"Delta":130633187},{"NoteNumber":61,"Velocity":44,"Duration":951761,"SoundDuration":951761,"Delta":130633187},{"NoteNumber":67,"Velocity":49,"Duration":951761,"SoundDuration":951761,"Delta":130633187},{"NoteNumber":51,"Velocity":51,"Duration":640073,"SoundDuration":640073,"Delta":130944875},{"NoteNumber":75,"Velocity":58,"Duration":158311,"SoundDuration":158311,"Delta":131103186},{"NoteNumber":74,"Velocity":62,"Duration":161724,"SoundDuration":161724,"Delta":131261498},{"NoteNumber":75,"Velocity":58,"Duration":161725,"SoundDuration":161725,"Delta":131423223},{"NoteNumber":82,"Velocity":70,"Duration":172218,"SoundDuration":172218,"Delta":131584948},{"NoteNumber":80,"Velocity":69,"Duration":151160,"SoundDuration":151160,"Delta":131757166},{"NoteNumber":79,"Velocity":68,"Duration":151768,"SoundDuration":151768,"Delta":131908327},{"NoteNumber":76,"Velocity":67,"Duration":152315,"SoundDuration":152315,"Delta":132060095},{"NoteNumber":75,"Velocity":64,"Duration":152864,"SoundDuration":152864,"Delta":132212411},{"NoteNumber":73,"Velocity":62,"Duration":153552,"SoundDuration":153552,"Delta":132365275},{"NoteNumber":76,"Velocity":68,"Duration":151362,"SoundDuration":151362,"Delta":132518827},{"NoteNumber":75,"Velocity":67,"Duration":151632,"SoundDuration":151632,"Delta":132670190},{"NoteNumber":73,"Velocity":66,"Duration":151972,"SoundDuration":151972,"Delta":132821822},{"NoteNumber":71,"Velocity":64,"Duration":152315,"SoundDuration":152315,"Delta":132973794},{"NoteNumber":70,"Velocity":64,"Duration":152661,"SoundDuration":152661,"Delta":133126110},{"NoteNumber":68,"Velocity":63,"Duration":152999,"SoundDuration":152999,"Delta":133278771},{"NoteNumber":67,"Velocity":60,"Duration":153322,"SoundDuration":153322,"Delta":133431770},{"NoteNumber":68,"Velocity":60,"Duration":154440,"SoundDuration":154440,"Delta":133585093},{"NoteNumber":69,"Velocity":59,"Duration":155642,"SoundDuration":155642,"Delta":133739534},{"NoteNumber":70,"Velocity":58,"Duration":156658,"SoundDuration":156658,"Delta":133895177},{"NoteNumber":71,"Velocity":57,"Duration":157895,"SoundDuration":157895,"Delta":134051835},{"NoteNumber":72,"Velocity":57,"Duration":159151,"SoundDuration":159151,"Delta":134209731},{"NoteNumber":73,"Velocity":59,"Duration":159999,"SoundDuration":159999,"Delta":134368883},{"NoteNumber":72,"Velocity":53,"Duration":164835,"SoundDuration":164835,"Delta":134528883},{"NoteNumber":75,"Velocity":58,"Duration":164166,"SoundDuration":164166,"Delta":134693718},{"NoteNumber":73,"Velocity":56,"Duration":168470,"SoundDuration":168470,"Delta":134857884},{"NoteNumber":72,"Velocity":53,"Duration":173218,"SoundDuration":173218,"Delta":135026355},{"NoteNumber":70,"Velocity":51,"Duration":194515,"SoundDuration":194515,"Delta":135199573},{"NoteNumber":44,"Velocity":37,"Duration":304383,"SoundDuration":304383,"Delta":135394089},{"NoteNumber":68,"Velocity":59,"Duration":601554,"SoundDuration":601554,"Delta":135698472},{"NoteNumber":51,"Velocity":27,"Duration":298982,"SoundDuration":298982,"Delta":135698472},{"NoteNumber":56,"Velocity":27,"Duration":298982,"SoundDuration":298982,"Delta":135698472},{"NoteNumber":60,"Velocity":32,"Duration":298982,"SoundDuration":298982,"Delta":135698472},{"NoteNumber":63,"Velocity":39,"Duration":302571,"SoundDuration":302571,"Delta":135997455},{"NoteNumber":51,"Velocity":24,"Duration":302571,"SoundDuration":302571,"Delta":135997455},{"NoteNumber":60,"Velocity":27,"Duration":302571,"SoundDuration":302571,"Delta":135997455},{"NoteNumber":56,"Velocity":24,"Duration":302571,"SoundDuration":302571,"Delta":135997455},{"NoteNumber":70,"Velocity":59,"Duration":601615,"SoundDuration":601615,"Delta":136300027},{"NoteNumber":39,"Velocity":44,"Duration":298982,"SoundDuration":298982,"Delta":136300027},{"NoteNumber":63,"Velocity":28,"Duration":302632,"SoundDuration":302632,"Delta":136599010},{"NoteNumber":68,"Velocity":31,"Duration":302632,"SoundDuration":302632,"Delta":136599010},{"NoteNumber":51,"Velocity":19,"Duration":302632,"SoundDuration":302632,"Delta":136599010},{"NoteNumber":56,"Velocity":19,"Duration":302632,"SoundDuration":302632,"Delta":136599010},{"NoteNumber":60,"Velocity":22,"Duration":302632,"SoundDuration":302632,"Delta":136599010},{"NoteNumber":72,"Velocity":57,"Duration":296764,"SoundDuration":296764,"Delta":136901643},{"NoteNumber":51,"Velocity":26,"Duration":296764,"SoundDuration":296764,"Delta":136901643},{"NoteNumber":56,"Velocity":26,"Duration":296764,"SoundDuration":296764,"Delta":136901643},{"NoteNumber":60,"Velocity":29,"Duration":296764,"SoundDuration":296764,"Delta":136901643},{"NoteNumber":46,"Velocity":39,"Duration":301644,"SoundDuration":301644,"Delta":137198408},{"NoteNumber":73,"Velocity":63,"Duration":602344,"SoundDuration":602344,"Delta":137500052},{"NoteNumber":51,"Velocity":30,"Duration":298716,"SoundDuration":298716,"Delta":137500052},{"NoteNumber":61,"Velocity":34,"Duration":298716,"SoundDuration":298716,"Delta":137500052},{"NoteNumber":55,"Velocity":30,"Duration":298716,"SoundDuration":298716,"Delta":137500052},{"NoteNumber":63,"Velocity":34,"Duration":303628,"SoundDuration":303628,"Delta":137798768},{"NoteNumber":67,"Velocity":38,"Duration":303628,"SoundDuration":303628,"Delta":137798768},{"NoteNumber":51,"Velocity":22,"Duration":303628,"SoundDuration":303628,"Delta":137798768},{"NoteNumber":61,"Velocity":25,"Duration":303628,"SoundDuration":303628,"Delta":137798768},{"NoteNumber":55,"Velocity":22,"Duration":303628,"SoundDuration":303628,"Delta":137798768},{"NoteNumber":72,"Velocity":62,"Duration":607256,"SoundDuration":607256,"Delta":138102396},{"NoteNumber":39,"Velocity":39,"Duration":303628,"SoundDuration":303628,"Delta":138102396},{"NoteNumber":67,"Velocity":35,"Duration":303628,"SoundDuration":303628,"Delta":138406024},{"NoteNumber":63,"Velocity":30,"Duration":303628,"SoundDuration":303628,"Delta":138406024},{"NoteNumber":61,"Velocity":23,"Duration":303628,"SoundDuration":303628,"Delta":138406024},{"NoteNumber":51,"Velocity":20,"Duration":303628,"SoundDuration":303628,"Delta":138406024},{"NoteNumber":55,"Velocity":20,"Duration":303628,"SoundDuration":303628,"Delta":138406024},{"NoteNumber":70,"Velocity":51,"Duration":303628,"SoundDuration":303628,"Delta":138709652},{"NoteNumber":61,"Velocity":32,"Duration":303628,"SoundDuration":303628,"Delta":138709652},{"NoteNumber":51,"Velocity":27,"Duration":303628,"SoundDuration":303628,"Delta":138709652},{"NoteNumber":55,"Velocity":27,"Duration":303628,"SoundDuration":303628,"Delta":138709652},{"NoteNumber":44,"Velocity":38,"Duration":309756,"SoundDuration":309756,"Delta":139013280},{"NoteNumber":72,"Velocity":63,"Duration":613448,"SoundDuration":613448,"Delta":139323037},{"NoteNumber":51,"Velocity":30,"Duration":302632,"SoundDuration":302632,"Delta":139323037},{"NoteNumber":56,"Velocity":30,"Duration":302632,"SoundDuration":302632,"Delta":139323037},{"NoteNumber":60,"Velocity":34,"Duration":302632,"SoundDuration":302632,"Delta":139323037},{"NoteNumber":68,"Velocity":42,"Duration":310815,"SoundDuration":310815,"Delta":139625670},{"NoteNumber":63,"Velocity":38,"Duration":310815,"SoundDuration":310815,"Delta":139625670},{"NoteNumber":51,"Velocity":26,"Duration":310815,"SoundDuration":310815,"Delta":139625670},{"NoteNumber":60,"Velocity":30,"Duration":310815,"SoundDuration":310815,"Delta":139625670},{"NoteNumber":56,"Velocity":26,"Duration":310815,"SoundDuration":310815,"Delta":139625670},{"NoteNumber":73,"Velocity":68,"Duration":606260,"SoundDuration":606260,"Delta":139936486},{"NoteNumber":39,"Velocity":55,"Duration":303628,"SoundDuration":303628,"Delta":139936486},{"NoteNumber":63,"Velocity":37,"Duration":302632,"SoundDuration":302632,"Delta":140240114},{"NoteNumber":68,"Velocity":41,"Duration":302632,"SoundDuration":302632,"Delta":140240114},{"NoteNumber":54,"Velocity":27,"Duration":302632,"SoundDuration":302632,"Delta":140240114},{"NoteNumber":56,"Velocity":27,"Duration":302632,"SoundDuration":302632,"Delta":140240114},{"NoteNumber":60,"Velocity":32,"Duration":302632,"SoundDuration":302632,"Delta":140240114},{"NoteNumber":75,"Velocity":71,"Duration":296764,"SoundDuration":296764,"Delta":140542747},{"NoteNumber":54,"Velocity":34,"Duration":296764,"SoundDuration":296764,"Delta":140542747},{"NoteNumber":56,"Velocity":34,"Duration":296764,"SoundDuration":296764,"Delta":140542747},{"NoteNumber":60,"Velocity":37,"Duration":296764,"SoundDuration":296764,"Delta":140542747},{"NoteNumber":77,"Velocity":73,"Duration":227695,"SoundDuration":227695,"Delta":140839512},{"NoteNumber":44,"Velocity":56,"Duration":227695,"SoundDuration":227695,"Delta":140839512},{"NoteNumber":53,"Velocity":31,"Duration":337932,"SoundDuration":337932,"Delta":141067208},{"NoteNumber":56,"Velocity":37,"Duration":316002,"SoundDuration":316002,"Delta":141089138},{"NoteNumber":59,"Velocity":44,"Duration":294072,"SoundDuration":294072,"Delta":141111068},{"NoteNumber":68,"Velocity":51,"Duration":272142,"SoundDuration":272142,"Delta":141132998},{"NoteNumber":74,"Velocity":56,"Duration":250213,"SoundDuration":250213,"Delta":141154928},{"NoteNumber":79,"Velocity":74,"Duration":228283,"SoundDuration":228283,"Delta":141176857},{"NoteNumber":53,"Velocity":33,"Duration":448312,"SoundDuration":448312,"Delta":141405141},{"NoteNumber":56,"Velocity":40,"Duration":426446,"SoundDuration":426446,"Delta":141427006},{"NoteNumber":59,"Velocity":45,"Duration":404580,"SoundDuration":404580,"Delta":141448872},{"NoteNumber":68,"Velocity":51,"Duration":382714,"SoundDuration":382714,"Delta":141470738},{"NoteNumber":74,"Velocity":56,"Duration":360848,"SoundDuration":360848,"Delta":141492604},{"NoteNumber":80,"Velocity":77,"Duration":338983,"SoundDuration":338983,"Delta":141514470},{"NoteNumber":75,"Velocity":81,"Duration":955314,"SoundDuration":955314,"Delta":141853453},{"NoteNumber":44,"Velocity":60,"Duration":321716,"SoundDuration":321716,"Delta":141853453},{"NoteNumber":63,"Velocity":38,"Duration":321715,"SoundDuration":321715,"Delta":142175169},{"NoteNumber":68,"Velocity":38,"Duration":321715,"SoundDuration":321715,"Delta":142175169},{"NoteNumber":72,"Velocity":44,"Duration":321715,"SoundDuration":321715,"Delta":142175169},{"NoteNumber":51,"Velocity":22,"Duration":321715,"SoundDuration":321715,"Delta":142175169},{"NoteNumber":56,"Velocity":22,"Duration":321715,"SoundDuration":321715,"Delta":142175169},{"NoteNumber":60,"Velocity":25,"Duration":321715,"SoundDuration":321715,"Delta":142175169},{"NoteNumber":63,"Velocity":38,"Duration":311882,"SoundDuration":311882,"Delta":142496885},{"NoteNumber":68,"Velocity":38,"Duration":311882,"SoundDuration":311882,"Delta":142496885},{"NoteNumber":72,"Velocity":43,"Duration":311882,"SoundDuration":311882,"Delta":142496885},{"NoteNumber":51,"Velocity":22,"Duration":311882,"SoundDuration":311882,"Delta":142496885},{"NoteNumber":56,"Velocity":22,"Duration":311882,"SoundDuration":311882,"Delta":142496885},{"NoteNumber":60,"Velocity":25,"Duration":311882,"SoundDuration":311882,"Delta":142496885},{"NoteNumber":45,"Velocity":37,"Duration":305655,"SoundDuration":305655,"Delta":142808768},{"NoteNumber":78,"Velocity":59,"Duration":147420,"SoundDuration":147420,"Delta":143114423},{"NoteNumber":53,"Velocity":31,"Duration":294839,"SoundDuration":294839,"Delta":143114423},{"NoteNumber":60,"Velocity":31,"Duration":294839,"SoundDuration":294839,"Delta":143114423},{"NoteNumber":63,"Velocity":36,"Duration":294839,"SoundDuration":294839,"Delta":143114423},{"NoteNumber":77,"Velocity":56,"Duration":147419,"SoundDuration":147419,"Delta":143261843},{"NoteNumber":75,"Velocity":59,"Duration":155407,"SoundDuration":155407,"Delta":143409263},{"NoteNumber":53,"Velocity":27,"Duration":310815,"SoundDuration":310815,"Delta":143409263},{"NoteNumber":63,"Velocity":30,"Duration":310815,"SoundDuration":310815,"Delta":143409263},{"NoteNumber":60,"Velocity":27,"Duration":310815,"SoundDuration":310815,"Delta":143409263},{"NoteNumber":78,"Velocity":56,"Duration":155407,"SoundDuration":155407,"Delta":143564671},{"NoteNumber":77,"Velocity":62,"Duration":456971,"SoundDuration":456971,"Delta":143720079},{"NoteNumber":46,"Velocity":37,"Duration":305655,"SoundDuration":305655,"Delta":143720079},{"NoteNumber":53,"Velocity":31,"Duration":302632,"SoundDuration":302632,"Delta":144025734},{"NoteNumber":58,"Velocity":31,"Duration":302632,"SoundDuration":302632,"Delta":144025734},{"NoteNumber":61,"Velocity":36,"Duration":302632,"SoundDuration":302632,"Delta":144025734},{"NoteNumber":73,"Velocity":59,"Duration":151316,"SoundDuration":151316,"Delta":144177050},{"NoteNumber":70,"Velocity":55,"Duration":155407,"SoundDuration":155407,"Delta":144328367},{"NoteNumber":53,"Velocity":27,"Duration":310815,"SoundDuration":310815,"Delta":144328367},{"NoteNumber":61,"Velocity":30,"Duration":310815,"SoundDuration":310815,"Delta":144328367},{"NoteNumber":58,"Velocity":27,"Duration":310815,"SoundDuration":310815,"Delta":144328367},{"NoteNumber":65,"Velocity":50,"Duration":155407,"SoundDuration":155407,"Delta":144483775},{"NoteNumber":43,"Velocity":37,"Duration":305655,"SoundDuration":305655,"Delta":144639183},{"NoteNumber":76,"Velocity":59,"Duration":148147,"SoundDuration":148147,"Delta":144944838},{"NoteNumber":51,"Velocity":31,"Duration":296296,"SoundDuration":296296,"Delta":144944838},{"NoteNumber":58,"Velocity":31,"Duration":296296,"SoundDuration":296296,"Delta":144944838},{"NoteNumber":61,"Velocity":36,"Duration":296296,"SoundDuration":296296,"Delta":144944838},{"NoteNumber":75,"Velocity":56,"Duration":148148,"SoundDuration":148148,"Delta":145092986},{"NoteNumber":73,"Velocity":59,"Duration":155407,"SoundDuration":155407,"Delta":145241134},{"NoteNumber":51,"Velocity":27,"Duration":310815,"SoundDuration":310815,"Delta":145241134},{"NoteNumber":61,"Velocity":30,"Duration":310815,"SoundDuration":310815,"Delta":145241134},{"NoteNumber":58,"Velocity":27,"Duration":310815,"SoundDuration":310815,"Delta":145241134},{"NoteNumber":76,"Velocity":56,"Duration":155407,"SoundDuration":155407,"Delta":145396542},{"NoteNumber":75,"Velocity":62,"Duration":456971,"SoundDuration":456971,"Delta":145551950},{"NoteNumber":44,"Velocity":37,"Duration":305655,"SoundDuration":305655,"Delta":145551950},{"NoteNumber":51,"Velocity":31,"Duration":302632,"SoundDuration":302632,"Delta":145857605},{"NoteNumber":56,"Velocity":31,"Duration":302632,"SoundDuration":302632,"Delta":145857605},{"NoteNumber":60,"Velocity":36,"Duration":302632,"SoundDuration":302632,"Delta":145857605},{"NoteNumber":72,"Velocity":59,"Duration":151316,"SoundDuration":151316,"Delta":146008921},{"NoteNumber":68,"Velocity":57,"Duration":155407,"SoundDuration":155407,"Delta":146160238},{"NoteNumber":51,"Velocity":27,"Duration":310815,"SoundDuration":310815,"Delta":146160238},{"NoteNumber":60,"Velocity":30,"Duration":310815,"SoundDuration":310815,"Delta":146160238},{"NoteNumber":56,"Velocity":27,"Duration":310815,"SoundDuration":310815,"Delta":146160238},{"NoteNumber":63,"Velocity":52,"Duration":155407,"SoundDuration":155407,"Delta":146315646},{"NoteNumber":42,"Velocity":37,"Duration":309756,"SoundDuration":309756,"Delta":146471054},{"NoteNumber":60,"Velocity":35,"Duration":302632,"SoundDuration":302632,"Delta":146780811},{"NoteNumber":63,"Velocity":39,"Duration":302632,"SoundDuration":302632,"Delta":146780811},{"NoteNumber":68,"Velocity":59,"Duration":613448,"SoundDuration":613448,"Delta":146780811},{"NoteNumber":54,"Velocity":31,"Duration":302632,"SoundDuration":302632,"Delta":146780811},{"NoteNumber":56,"Velocity":36,"Duration":302632,"SoundDuration":302632,"Delta":146780811},{"NoteNumber":60,"Velocity":35,"Duration":310815,"SoundDuration":310815,"Delta":147083444},{"NoteNumber":63,"Velocity":39,"Duration":310815,"SoundDuration":310815,"Delta":147083444},{"NoteNumber":56,"Velocity":30,"Duration":310815,"SoundDuration":310815,"Delta":147083444},{"NoteNumber":54,"Velocity":27,"Duration":310815,"SoundDuration":310815,"Delta":147083444},{"NoteNumber":67,"Velocity":63,"Duration":606260,"SoundDuration":606260,"Delta":147394260},{"NoteNumber":41,"Velocity":44,"Duration":303628,"SoundDuration":303628,"Delta":147394260},{"NoteNumber":60,"Velocity":31,"Duration":302632,"SoundDuration":302632,"Delta":147697888},{"NoteNumber":65,"Velocity":36,"Duration":302632,"SoundDuration":302632,"Delta":147697888},{"NoteNumber":53,"Velocity":25,"Duration":302632,"SoundDuration":302632,"Delta":147697888},{"NoteNumber":56,"Velocity":28,"Duration":302632,"SoundDuration":302632,"Delta":147697888},{"NoteNumber":60,"Velocity":31,"Duration":296764,"SoundDuration":296764,"Delta":148000521},{"NoteNumber":65,"Velocity":36,"Duration":296764,"SoundDuration":296764,"Delta":148000521},{"NoteNumber":68,"Velocity":59,"Duration":296764,"SoundDuration":296764,"Delta":148000521},{"NoteNumber":53,"Velocity":29,"Duration":296764,"SoundDuration":296764,"Delta":148000521},{"NoteNumber":56,"Velocity":33,"Duration":296764,"SoundDuration":296764,"Delta":148000521},{"NoteNumber":70,"Velocity":68,"Duration":456971,"SoundDuration":456971,"Delta":148297286},{"NoteNumber":40,"Velocity":37,"Duration":305655,"SoundDuration":305655,"Delta":148297286},{"NoteNumber":62,"Velocity":31,"Duration":306355,"SoundDuration":306355,"Delta":148602941},{"NoteNumber":68,"Velocity":36,"Duration":306355,"SoundDuration":306355,"Delta":148602941},{"NoteNumber":52,"Velocity":31,"Duration":306355,"SoundDuration":306355,"Delta":148602941},{"NoteNumber":56,"Velocity":36,"Duration":306355,"SoundDuration":306355,"Delta":148602941},{"NoteNumber":71,"Velocity":61,"Duration":155038,"SoundDuration":155038,"Delta":148754257},{"NoteNumber":62,"Velocity":31,"Duration":315788,"SoundDuration":315788,"Delta":148909296},{"NoteNumber":68,"Velocity":36,"Duration":315788,"SoundDuration":315788,"Delta":148909296},{"NoteNumber":70,"Velocity":59,"Duration":157894,"SoundDuration":157894,"Delta":148909296},{"NoteNumber":52,"Velocity":27,"Duration":315788,"SoundDuration":315788,"Delta":148909296},{"NoteNumber":56,"Velocity":30,"Duration":315788,"SoundDuration":315788,"Delta":148909296},{"NoteNumber":71,"Velocity":52,"Duration":157894,"SoundDuration":157894,"Delta":149067191},{"NoteNumber":67,"Velocity":59,"Duration":927217,"SoundDuration":927217,"Delta":149225085},{"NoteNumber":39,"Velocity":37,"Duration":309756,"SoundDuration":309756,"Delta":149225085},{"NoteNumber":61,"Velocity":36,"Duration":302632,"SoundDuration":302632,"Delta":149534842},{"NoteNumber":63,"Velocity":40,"Duration":302632,"SoundDuration":302632,"Delta":149534842},{"NoteNumber":51,"Velocity":29,"Duration":302632,"SoundDuration":302632,"Delta":149534842},{"NoteNumber":58,"Velocity":34,"Duration":302632,"SoundDuration":302632,"Delta":149534842},{"NoteNumber":61,"Velocity":35,"Duration":314828,"SoundDuration":314828,"Delta":149837475},{"NoteNumber":63,"Velocity":39,"Duration":314828,"SoundDuration":314828,"Delta":149837475},{"NoteNumber":58,"Velocity":28,"Duration":314828,"SoundDuration":314828,"Delta":149837475},{"NoteNumber":51,"Velocity":25,"Duration":314828,"SoundDuration":314828,"Delta":149837475},{"NoteNumber":44,"Velocity":37,"Duration":309756,"SoundDuration":309756,"Delta":150152303},{"NoteNumber":68,"Velocity":59,"Duration":602457,"SoundDuration":602457,"Delta":150462060},{"NoteNumber":51,"Velocity":27,"Duration":298982,"SoundDuration":298982,"Delta":150462060},{"NoteNumber":56,"Velocity":27,"Duration":298982,"SoundDuration":298982,"Delta":150462060},{"NoteNumber":60,"Velocity":32,"Duration":298982,"SoundDuration":298982,"Delta":150462060},{"NoteNumber":63,"Velocity":39,"Duration":303474,"SoundDuration":303474,"Delta":150761043},{"NoteNumber":51,"Velocity":24,"Duration":303474,"SoundDuration":303474,"Delta":150761043},{"NoteNumber":60,"Velocity":27,"Duration":303474,"SoundDuration":303474,"Delta":150761043},{"NoteNumber":56,"Velocity":24,"Duration":303474,"SoundDuration":303474,"Delta":150761043},{"NoteNumber":70,"Velocity":57,"Duration":606260,"SoundDuration":606260,"Delta":151064518},{"NoteNumber":39,"Velocity":44,"Duration":303628,"SoundDuration":303628,"Delta":151064518},{"NoteNumber":63,"Velocity":28,"Duration":302632,"SoundDuration":302632,"Delta":151368146},{"NoteNumber":68,"Velocity":31,"Duration":302632,"SoundDuration":302632,"Delta":151368146},{"NoteNumber":51,"Velocity":19,"Duration":302632,"SoundDuration":302632,"Delta":151368146},{"NoteNumber":56,"Velocity":19,"Duration":302632,"SoundDuration":302632,"Delta":151368146},{"NoteNumber":60,"Velocity":22,"Duration":302632,"SoundDuration":302632,"Delta":151368146},{"NoteNumber":72,"Velocity":57,"Duration":296764,"SoundDuration":296764,"Delta":151670779},{"NoteNumber":51,"Velocity":26,"Duration":296764,"SoundDuration":296764,"Delta":151670779},{"NoteNumber":56,"Velocity":26,"Duration":296764,"SoundDuration":296764,"Delta":151670779},{"NoteNumber":60,"Velocity":29,"Duration":296764,"SoundDuration":296764,"Delta":151670779},{"NoteNumber":46,"Velocity":39,"Duration":301644,"SoundDuration":301644,"Delta":151967544},{"NoteNumber":73,"Velocity":63,"Duration":602344,"SoundDuration":602344,"Delta":152269188},{"NoteNumber":51,"Velocity":30,"Duration":298716,"SoundDuration":298716,"Delta":152269188},{"NoteNumber":61,"Velocity":34,"Duration":298716,"SoundDuration":298716,"Delta":152269188},{"NoteNumber":55,"Velocity":30,"Duration":298716,"SoundDuration":298716,"Delta":152269188},{"NoteNumber":63,"Velocity":34,"Duration":303628,"SoundDuration":303628,"Delta":152567904},{"NoteNumber":67,"Velocity":38,"Duration":303628,"SoundDuration":303628,"Delta":152567904},{"NoteNumber":51,"Velocity":22,"Duration":303628,"SoundDuration":303628,"Delta":152567904},{"NoteNumber":61,"Velocity":25,"Duration":303628,"SoundDuration":303628,"Delta":152567904},{"NoteNumber":55,"Velocity":22,"Duration":303628,"SoundDuration":303628,"Delta":152567904},{"NoteNumber":72,"Velocity":62,"Duration":607256,"SoundDuration":607256,"Delta":152871532},{"NoteNumber":39,"Velocity":39,"Duration":303628,"SoundDuration":303628,"Delta":152871532},{"NoteNumber":67,"Velocity":35,"Duration":303628,"SoundDuration":303628,"Delta":153175160},{"NoteNumber":63,"Velocity":30,"Duration":303628,"SoundDuration":303628,"Delta":153175160},{"NoteNumber":61,"Velocity":23,"Duration":303628,"SoundDuration":303628,"Delta":153175160},{"NoteNumber":51,"Velocity":20,"Duration":303628,"SoundDuration":303628,"Delta":153175160},{"NoteNumber":55,"Velocity":20,"Duration":303628,"SoundDuration":303628,"Delta":153175160},{"NoteNumber":70,"Velocity":51,"Duration":303628,"SoundDuration":303628,"Delta":153478788},{"NoteNumber":61,"Velocity":32,"Duration":303628,"SoundDuration":303628,"Delta":153478788},{"NoteNumber":51,"Velocity":27,"Duration":303628,"SoundDuration":303628,"Delta":153478788},{"NoteNumber":55,"Velocity":27,"Duration":303628,"SoundDuration":303628,"Delta":153478788},{"NoteNumber":44,"Velocity":38,"Duration":309756,"SoundDuration":309756,"Delta":153782416},{"NoteNumber":72,"Velocity":63,"Duration":613448,"SoundDuration":613448,"Delta":154092173},{"NoteNumber":51,"Velocity":30,"Duration":302632,"SoundDuration":302632,"Delta":154092173},{"NoteNumber":56,"Velocity":30,"Duration":302632,"SoundDuration":302632,"Delta":154092173},{"NoteNumber":60,"Velocity":34,"Duration":302632,"SoundDuration":302632,"Delta":154092173},{"NoteNumber":68,"Velocity":42,"Duration":310815,"SoundDuration":310815,"Delta":154394806},{"NoteNumber":63,"Velocity":38,"Duration":310815,"SoundDuration":310815,"Delta":154394806},{"NoteNumber":51,"Velocity":26,"Duration":310815,"SoundDuration":310815,"Delta":154394806},{"NoteNumber":60,"Velocity":30,"Duration":310815,"SoundDuration":310815,"Delta":154394806},{"NoteNumber":56,"Velocity":26,"Duration":310815,"SoundDuration":310815,"Delta":154394806},{"NoteNumber":73,"Velocity":68,"Duration":606260,"SoundDuration":606260,"Delta":154705622},{"NoteNumber":39,"Velocity":55,"Duration":303628,"SoundDuration":303628,"Delta":154705622},{"NoteNumber":63,"Velocity":37,"Duration":302632,"SoundDuration":302632,"Delta":155009250},{"NoteNumber":68,"Velocity":41,"Duration":302632,"SoundDuration":302632,"Delta":155009250},{"NoteNumber":54,"Velocity":27,"Duration":302632,"SoundDuration":302632,"Delta":155009250},{"NoteNumber":56,"Velocity":27,"Duration":302632,"SoundDuration":302632,"Delta":155009250},{"NoteNumber":60,"Velocity":32,"Duration":302632,"SoundDuration":302632,"Delta":155009250},{"NoteNumber":75,"Velocity":71,"Duration":296764,"SoundDuration":296764,"Delta":155311883},{"NoteNumber":54,"Velocity":34,"Duration":296764,"SoundDuration":296764,"Delta":155311883},{"NoteNumber":56,"Velocity":34,"Duration":296764,"SoundDuration":296764,"Delta":155311883},{"NoteNumber":60,"Velocity":37,"Duration":296764,"SoundDuration":296764,"Delta":155311883},{"NoteNumber":77,"Velocity":73,"Duration":221808,"SoundDuration":221808,"Delta":155608648},{"NoteNumber":44,"Velocity":60,"Duration":221808,"SoundDuration":221808,"Delta":155608648},{"NoteNumber":53,"Velocity":29,"Duration":332334,"SoundDuration":332334,"Delta":155830457},{"NoteNumber":56,"Velocity":36,"Duration":310340,"SoundDuration":310340,"Delta":155852451},{"NoteNumber":59,"Velocity":44,"Duration":288346,"SoundDuration":288346,"Delta":155874445},{"NoteNumber":68,"Velocity":48,"Duration":266352,"SoundDuration":266352,"Delta":155896440},{"NoteNumber":74,"Velocity":56,"Duration":244358,"SoundDuration":244358,"Delta":155918434},{"NoteNumber":79,"Velocity":74,"Duration":222363,"SoundDuration":222363,"Delta":155940428},{"NoteNumber":53,"Velocity":33,"Duration":435736,"SoundDuration":435736,"Delta":156162792},{"NoteNumber":56,"Velocity":39,"Duration":413806,"SoundDuration":413806,"Delta":156184722},{"NoteNumber":59,"Velocity":45,"Duration":391876,"SoundDuration":391876,"Delta":156206651},{"NoteNumber":68,"Velocity":48,"Duration":369946,"SoundDuration":369946,"Delta":156228581},{"NoteNumber":74,"Velocity":55,"Duration":348016,"SoundDuration":348016,"Delta":156250511},{"NoteNumber":80,"Velocity":77,"Duration":326087,"SoundDuration":326087,"Delta":156272441},{"NoteNumber":75,"Velocity":81,"Duration":948487,"SoundDuration":948487,"Delta":156598528},{"NoteNumber":44,"Velocity":63,"Duration":318301,"SoundDuration":318301,"Delta":156598528},{"NoteNumber":63,"Velocity":38,"Duration":318302,"SoundDuration":318302,"Delta":156916830},{"NoteNumber":68,"Velocity":38,"Duration":318302,"SoundDuration":318302,"Delta":156916830},{"NoteNumber":72,"Velocity":44,"Duration":318302,"SoundDuration":318302,"Delta":156916830},{"NoteNumber":51,"Velocity":22,"Duration":318302,"SoundDuration":318302,"Delta":156916830},{"NoteNumber":56,"Velocity":22,"Duration":318302,"SoundDuration":318302,"Delta":156916830},{"NoteNumber":60,"Velocity":25,"Duration":318302,"SoundDuration":318302,"Delta":156916830},{"NoteNumber":63,"Velocity":38,"Duration":311882,"SoundDuration":311882,"Delta":157235132},{"NoteNumber":68,"Velocity":38,"Duration":311882,"SoundDuration":311882,"Delta":157235132},{"NoteNumber":72,"Velocity":43,"Duration":311882,"SoundDuration":311882,"Delta":157235132},{"NoteNumber":51,"Velocity":22,"Duration":311882,"SoundDuration":311882,"Delta":157235132},{"NoteNumber":56,"Velocity":22,"Duration":311882,"SoundDuration":311882,"Delta":157235132},{"NoteNumber":60,"Velocity":25,"Duration":311882,"SoundDuration":311882,"Delta":157235132},{"NoteNumber":45,"Velocity":37,"Duration":305655,"SoundDuration":305655,"Delta":157547015},{"NoteNumber":78,"Velocity":59,"Duration":143198,"SoundDuration":143198,"Delta":157852670},{"NoteNumber":53,"Velocity":31,"Duration":286395,"SoundDuration":286395,"Delta":157852670},{"NoteNumber":60,"Velocity":31,"Duration":286395,"SoundDuration":286395,"Delta":157852670},{"NoteNumber":63,"Velocity":36,"Duration":286395,"SoundDuration":286395,"Delta":157852670},{"NoteNumber":77,"Velocity":56,"Duration":143197,"SoundDuration":143197,"Delta":157995868},{"NoteNumber":75,"Velocity":59,"Duration":155407,"SoundDuration":155407,"Delta":158139066},{"NoteNumber":53,"Velocity":27,"Duration":310815,"SoundDuration":310815,"Delta":158139066},{"NoteNumber":63,"Velocity":30,"Duration":310815,"SoundDuration":310815,"Delta":158139066},{"NoteNumber":60,"Velocity":27,"Duration":310815,"SoundDuration":310815,"Delta":158139066},{"NoteNumber":78,"Velocity":56,"Duration":155407,"SoundDuration":155407,"Delta":158294474},{"NoteNumber":77,"Velocity":62,"Duration":456971,"SoundDuration":456971,"Delta":158449882},{"NoteNumber":46,"Velocity":37,"Duration":305655,"SoundDuration":305655,"Delta":158449882},{"NoteNumber":53,"Velocity":31,"Duration":302632,"SoundDuration":302632,"Delta":158755537},{"NoteNumber":58,"Velocity":31,"Duration":302632,"SoundDuration":302632,"Delta":158755537},{"NoteNumber":61,"Velocity":36,"Duration":302632,"SoundDuration":302632,"Delta":158755537},{"NoteNumber":73,"Velocity":59,"Duration":151316,"SoundDuration":151316,"Delta":158906853},{"NoteNumber":70,"Velocity":55,"Duration":155407,"SoundDuration":155407,"Delta":159058170},{"NoteNumber":53,"Velocity":27,"Duration":310815,"SoundDuration":310815,"Delta":159058170},{"NoteNumber":61,"Velocity":30,"Duration":310815,"SoundDuration":310815,"Delta":159058170},{"NoteNumber":58,"Velocity":27,"Duration":310815,"SoundDuration":310815,"Delta":159058170},{"NoteNumber":65,"Velocity":50,"Duration":155407,"SoundDuration":155407,"Delta":159213578},{"NoteNumber":47,"Velocity":42,"Duration":299251,"SoundDuration":299251,"Delta":159368986},{"NoteNumber":80,"Velocity":66,"Duration":144927,"SoundDuration":144927,"Delta":159668238},{"NoteNumber":65,"Velocity":37,"Duration":289854,"SoundDuration":289854,"Delta":159668238},{"NoteNumber":55,"Velocity":33,"Duration":289854,"SoundDuration":289854,"Delta":159668238},{"NoteNumber":62,"Velocity":33,"Duration":289854,"SoundDuration":289854,"Delta":159668238},{"NoteNumber":79,"Velocity":61,"Duration":144927,"SoundDuration":144927,"Delta":159813165},{"NoteNumber":77,"Velocity":64,"Duration":155407,"SoundDuration":155407,"Delta":159958093},{"NoteNumber":55,"Velocity":28,"Duration":310815,"SoundDuration":310815,"Delta":159958093},{"NoteNumber":65,"Velocity":31,"Duration":310815,"SoundDuration":310815,"Delta":159958093},{"NoteNumber":62,"Velocity":28,"Duration":310815,"SoundDuration":310815,"Delta":159958093},{"NoteNumber":80,"Velocity":60,"Duration":155407,"SoundDuration":155407,"Delta":160113501},{"NoteNumber":79,"Velocity":68,"Duration":456971,"SoundDuration":456971,"Delta":160268909},{"NoteNumber":48,"Velocity":38,"Duration":305655,"SoundDuration":305655,"Delta":160268909},{"NoteNumber":55,"Velocity":33,"Duration":302632,"SoundDuration":302632,"Delta":160574564},{"NoteNumber":60,"Velocity":33,"Duration":302632,"SoundDuration":302632,"Delta":160574564},{"NoteNumber":64,"Velocity":37,"Duration":302632,"SoundDuration":302632,"Delta":160574564},{"NoteNumber":76,"Velocity":61,"Duration":151316,"SoundDuration":151316,"Delta":160725880},{"NoteNumber":72,"Velocity":59,"Duration":155407,"SoundDuration":155407,"Delta":160877197},{"NoteNumber":55,"Velocity":28,"Duration":310815,"SoundDuration":310815,"Delta":160877197},{"NoteNumber":64,"Velocity":31,"Duration":310815,"SoundDuration":310815,"Delta":160877197},{"NoteNumber":60,"Velocity":28,"Duration":310815,"SoundDuration":310815,"Delta":160877197},{"NoteNumber":67,"Velocity":55,"Duration":155407,"SoundDuration":155407,"Delta":161032605},{"NoteNumber":48,"Velocity":44,"Duration":301234,"SoundDuration":301234,"Delta":161188013},{"NoteNumber":74,"Velocity":70,"Duration":595603,"SoundDuration":595603,"Delta":161489248},{"NoteNumber":56,"Velocity":37,"Duration":294117,"SoundDuration":294117,"Delta":161489248},{"NoteNumber":60,"Velocity":37,"Duration":294117,"SoundDuration":294117,"Delta":161489248},{"NoteNumber":62,"Velocity":42,"Duration":294117,"SoundDuration":294117,"Delta":161489248},{"NoteNumber":66,"Velocity":46,"Duration":301485,"SoundDuration":301485,"Delta":161783366},{"NoteNumber":72,"Velocity":46,"Duration":301485,"SoundDuration":301485,"Delta":161783366},{"NoteNumber":56,"Velocity":31,"Duration":301485,"SoundDuration":301485,"Delta":161783366},{"NoteNumber":62,"Velocity":36,"Duration":301485,"SoundDuration":301485,"Delta":161783366},{"NoteNumber":60,"Velocity":31,"Duration":301485,"SoundDuration":301485,"Delta":161783366},{"NoteNumber":76,"Velocity":70,"Duration":602339,"SoundDuration":602339,"Delta":162084852},{"NoteNumber":48,"Velocity":45,"Duration":298018,"SoundDuration":298018,"Delta":162084852},{"NoteNumber":67,"Velocity":34,"Duration":304320,"SoundDuration":304320,"Delta":162382870},{"NoteNumber":72,"Velocity":37,"Duration":304320,"SoundDuration":304320,"Delta":162382870},{"NoteNumber":55,"Velocity":26,"Duration":304320,"SoundDuration":304320,"Delta":162382870},{"NoteNumber":60,"Velocity":26,"Duration":304320,"SoundDuration":304320,"Delta":162382870},{"NoteNumber":64,"Velocity":29,"Duration":304320,"SoundDuration":304320,"Delta":162382870},{"NoteNumber":79,"Velocity":70,"Duration":298432,"SoundDuration":298432,"Delta":162687191},{"NoteNumber":55,"Velocity":35,"Duration":298432,"SoundDuration":298432,"Delta":162687191},{"NoteNumber":60,"Velocity":35,"Duration":298432,"SoundDuration":298432,"Delta":162687191},{"NoteNumber":64,"Velocity":38,"Duration":298432,"SoundDuration":298432,"Delta":162687191},{"NoteNumber":48,"Velocity":46,"Duration":299759,"SoundDuration":299759,"Delta":162985624},{"NoteNumber":74,"Velocity":75,"Duration":595848,"SoundDuration":595848,"Delta":163285384},{"NoteNumber":53,"Velocity":39,"Duration":293398,"SoundDuration":293398,"Delta":163285384},{"NoteNumber":62,"Velocity":45,"Duration":293398,"SoundDuration":293398,"Delta":163285384},{"NoteNumber":56,"Velocity":39,"Duration":293398,"SoundDuration":293398,"Delta":163285384},{"NoteNumber":65,"Velocity":39,"Duration":302449,"SoundDuration":302449,"Delta":163578783},{"NoteNumber":71,"Velocity":45,"Duration":302449,"SoundDuration":302449,"Delta":163578783},{"NoteNumber":53,"Velocity":29,"Duration":302449,"SoundDuration":302449,"Delta":163578783},{"NoteNumber":62,"Velocity":34,"Duration":302449,"SoundDuration":302449,"Delta":163578783},{"NoteNumber":56,"Velocity":29,"Duration":302449,"SoundDuration":302449,"Delta":163578783},{"NoteNumber":76,"Velocity":73,"Duration":596897,"SoundDuration":596897,"Delta":163881233},{"NoteNumber":48,"Velocity":46,"Duration":298878,"SoundDuration":298878,"Delta":163881233},{"NoteNumber":67,"Velocity":40,"Duration":601355,"SoundDuration":601355,"Delta":164180112},{"NoteNumber":64,"Velocity":36,"Duration":601355,"SoundDuration":601355,"Delta":164180112},{"NoteNumber":60,"Velocity":30,"Duration":298018,"SoundDuration":298018,"Delta":164180112},{"NoteNumber":55,"Velocity":27,"Duration":298018,"SoundDuration":298018,"Delta":164180112},{"NoteNumber":72,"Velocity":61,"Duration":303336,"SoundDuration":303336,"Delta":164478130},{"NoteNumber":60,"Velocity":42,"Duration":303336,"SoundDuration":303336,"Delta":164478130},{"NoteNumber":55,"Velocity":37,"Duration":303336,"SoundDuration":303336,"Delta":164478130},{"NoteNumber":48,"Velocity":45,"Duration":300646,"SoundDuration":300646,"Delta":164781467},{"NoteNumber":74,"Velocity":71,"Duration":598176,"SoundDuration":598176,"Delta":165082113},{"NoteNumber":56,"Velocity":39,"Duration":294839,"SoundDuration":294839,"Delta":165082113},{"NoteNumber":60,"Velocity":39,"Duration":294839,"SoundDuration":294839,"Delta":165082113},{"NoteNumber":62,"Velocity":45,"Duration":294839,"SoundDuration":294839,"Delta":165082113},{"NoteNumber":72,"Velocity":50,"Duration":303336,"SoundDuration":303336,"Delta":165376953},{"NoteNumber":66,"Velocity":45,"Duration":303336,"SoundDuration":303336,"Delta":165376953},{"NoteNumber":56,"Velocity":35,"Duration":303336,"SoundDuration":303336,"Delta":165376953},{"NoteNumber":62,"Velocity":39,"Duration":303336,"SoundDuration":303336,"Delta":165376953},{"NoteNumber":60,"Velocity":35,"Duration":303336,"SoundDuration":303336,"Delta":165376953},{"NoteNumber":76,"Velocity":73,"Duration":598686,"SoundDuration":598686,"Delta":165680290},{"NoteNumber":48,"Velocity":44,"Duration":301553,"SoundDuration":301553,"Delta":165680290},{"NoteNumber":67,"Velocity":44,"Duration":297133,"SoundDuration":297133,"Delta":165981843},{"NoteNumber":72,"Velocity":48,"Duration":297133,"SoundDuration":297133,"Delta":165981843},{"NoteNumber":55,"Velocity":35,"Duration":297133,"SoundDuration":297133,"Delta":165981843},{"NoteNumber":60,"Velocity":35,"Duration":297133,"SoundDuration":297133,"Delta":165981843},{"NoteNumber":64,"Velocity":38,"Duration":297133,"SoundDuration":297133,"Delta":165981843},{"NoteNumber":79,"Velocity":69,"Duration":302053,"SoundDuration":302053,"Delta":166278976},{"NoteNumber":55,"Velocity":40,"Duration":302053,"SoundDuration":302053,"Delta":166278976},{"NoteNumber":60,"Velocity":40,"Duration":302053,"SoundDuration":302053,"Delta":166278976},{"NoteNumber":64,"Velocity":46,"Duration":302053,"SoundDuration":302053,"Delta":166278976},{"NoteNumber":74,"Velocity":73,"Duration":456147,"SoundDuration":456147,"Delta":166581030},{"NoteNumber":48,"Velocity":44,"Duration":305530,"SoundDuration":305530,"Delta":166581030},{"NoteNumber":65,"Velocity":42,"Duration":301234,"SoundDuration":301234,"Delta":166886560},{"NoteNumber":71,"Velocity":44,"Duration":301234,"SoundDuration":301234,"Delta":166886560},{"NoteNumber":53,"Velocity":37,"Duration":301234,"SoundDuration":301234,"Delta":166886560},{"NoteNumber":56,"Velocity":37,"Duration":301234,"SoundDuration":301234,"Delta":166886560},{"NoteNumber":62,"Velocity":42,"Duration":301234,"SoundDuration":301234,"Delta":166886560},{"NoteNumber":76,"Velocity":70,"Duration":150617,"SoundDuration":150617,"Delta":167037177},{"NoteNumber":65,"Velocity":45,"Duration":308151,"SoundDuration":308151,"Delta":167187795},{"NoteNumber":71,"Velocity":44,"Duration":308151,"SoundDuration":308151,"Delta":167187795},{"NoteNumber":74,"Velocity":64,"Duration":154075,"SoundDuration":154075,"Delta":167187795},{"NoteNumber":53,"Velocity":31,"Duration":308151,"SoundDuration":308151,"Delta":167187795},{"NoteNumber":62,"Velocity":36,"Duration":308151,"SoundDuration":308151,"Delta":167187795},{"NoteNumber":56,"Velocity":31,"Duration":308151,"SoundDuration":308151,"Delta":167187795},{"NoteNumber":76,"Velocity":60,"Duration":154075,"SoundDuration":154075,"Delta":167341870},{"NoteNumber":72,"Velocity":66,"Duration":456147,"SoundDuration":456147,"Delta":167495946},{"NoteNumber":48,"Velocity":44,"Duration":305530,"SoundDuration":305530,"Delta":167495946},{"NoteNumber":55,"Velocity":29,"Duration":307685,"SoundDuration":307685,"Delta":167801476},{"NoteNumber":60,"Velocity":29,"Duration":307685,"SoundDuration":307685,"Delta":167801476},{"NoteNumber":64,"Velocity":34,"Duration":307685,"SoundDuration":307685,"Delta":167801476},{"NoteNumber":76,"Velocity":55,"Duration":157068,"SoundDuration":157068,"Delta":167952093},{"NoteNumber":75,"Velocity":58,"Duration":162601,"SoundDuration":162601,"Delta":168109161},{"NoteNumber":76,"Velocity":56,"Duration":162601,"SoundDuration":162601,"Delta":168271763},{"NoteNumber":72,"Velocity":66,"Duration":468413,"SoundDuration":468413,"Delta":168434364},{"NoteNumber":48,"Velocity":44,"Duration":314961,"SoundDuration":314961,"Delta":168434364},{"NoteNumber":55,"Velocity":29,"Duration":306905,"SoundDuration":306905,"Delta":168749325},{"NoteNumber":60,"Velocity":29,"Duration":306905,"SoundDuration":306905,"Delta":168749325},{"NoteNumber":64,"Velocity":34,"Duration":306905,"SoundDuration":306905,"Delta":168749325},{"NoteNumber":76,"Velocity":55,"Duration":153452,"SoundDuration":153452,"Delta":168902778},{"NoteNumber":75,"Velocity":58,"Duration":156657,"SoundDuration":156657,"Delta":169056230},{"NoteNumber":76,"Velocity":56,"Duration":156657,"SoundDuration":156657,"Delta":169212888},{"NoteNumber":72,"Velocity":66,"Duration":154241,"SoundDuration":154241,"Delta":169369546},{"NoteNumber":48,"Velocity":44,"Duration":305756,"SoundDuration":305756,"Delta":169369546},{"NoteNumber":76,"Velocity":55,"Duration":151514,"SoundDuration":151514,"Delta":169523788},{"NoteNumber":75,"Velocity":58,"Duration":153845,"SoundDuration":153845,"Delta":169675303},{"NoteNumber":55,"Velocity":29,"Duration":307692,"SoundDuration":307692,"Delta":169675303},{"NoteNumber":60,"Velocity":29,"Duration":307692,"SoundDuration":307692,"Delta":169675303},{"NoteNumber":64,"Velocity":34,"Duration":307692,"SoundDuration":307692,"Delta":169675303},{"NoteNumber":76,"Velocity":55,"Duration":153846,"SoundDuration":153846,"Delta":169829149},{"NoteNumber":72,"Velocity":62,"Duration":152284,"SoundDuration":152284,"Delta":169982995},{"NoteNumber":76,"Velocity":56,"Duration":149767,"SoundDuration":149767,"Delta":170135279},{"NoteNumber":75,"Velocity":59,"Duration":152284,"SoundDuration":152284,"Delta":170285047},{"NoteNumber":76,"Velocity":55,"Duration":151461,"SoundDuration":151461,"Delta":170437332},{"NoteNumber":72,"Velocity":63,"Duration":150617,"SoundDuration":150617,"Delta":170588793},{"NoteNumber":76,"Velocity":55,"Duration":149350,"SoundDuration":149350,"Delta":170739411},{"NoteNumber":75,"Velocity":58,"Duration":151898,"SoundDuration":151898,"Delta":170888761},{"NoteNumber":76,"Velocity":56,"Duration":151898,"SoundDuration":151898,"Delta":171040660},{"NoteNumber":73,"Velocity":59,"Duration":149253,"SoundDuration":149253,"Delta":171192558},{"NoteNumber":58,"Velocity":44,"Duration":300714,"SoundDuration":300714,"Delta":171192558},{"NoteNumber":77,"Velocity":55,"Duration":151461,"SoundDuration":151461,"Delta":171341812},{"NoteNumber":76,"Velocity":64,"Duration":148883,"SoundDuration":148883,"Delta":171493273},{"NoteNumber":65,"Velocity":37,"Duration":296303,"SoundDuration":296303,"Delta":171493273},{"NoteNumber":61,"Velocity":33,"Duration":296303,"SoundDuration":296303,"Delta":171493273},{"NoteNumber":77,"Velocity":56,"Duration":147420,"SoundDuration":147420,"Delta":171642157},{"NoteNumber":73,"Velocity":60,"Duration":149626,"SoundDuration":149626,"Delta":171789577},{"NoteNumber":65,"Velocity":38,"Duration":299251,"SoundDuration":299251,"Delta":171789577},{"NoteNumber":61,"Velocity":34,"Duration":299251,"SoundDuration":299251,"Delta":171789577},{"NoteNumber":77,"Velocity":58,"Duration":149625,"SoundDuration":149625,"Delta":171939203},{"NoteNumber":76,"Velocity":62,"Duration":148147,"SoundDuration":148147,"Delta":172088829},{"NoteNumber":56,"Velocity":46,"Duration":297774,"SoundDuration":297774,"Delta":172088829},{"NoteNumber":77,"Velocity":58,"Duration":149626,"SoundDuration":149626,"Delta":172236977},{"NoteNumber":73,"Velocity":68,"Duration":148916,"SoundDuration":148916,"Delta":172379745},{"NoteNumber":65,"Velocity":38,"Duration":295564,"SoundDuration":295564,"Delta":172386603},{"NoteNumber":61,"Velocity":34,"Duration":295564,"SoundDuration":295564,"Delta":172386603},{"NoteNumber":58,"Velocity":34,"Duration":295564,"SoundDuration":295564,"Delta":172386603},{"NoteNumber":77,"Velocity":60,"Duration":146699,"SoundDuration":146699,"Delta":172535468},{"NoteNumber":76,"Velocity":63,"Duration":149626,"SoundDuration":149626,"Delta":172682167},{"NoteNumber":65,"Velocity":39,"Duration":299251,"SoundDuration":299251,"Delta":172682167},{"NoteNumber":61,"Velocity":35,"Duration":299251,"SoundDuration":299251,"Delta":172682167},{"NoteNumber":58,"Velocity":35,"Duration":299251,"SoundDuration":299251,"Delta":172682167},{"NoteNumber":77,"Velocity":62,"Duration":149625,"SoundDuration":149625,"Delta":172831793},{"NoteNumber":71,"Velocity":67,"Duration":903439,"SoundDuration":903439,"Delta":172981419},{"NoteNumber":55,"Velocity":49,"Duration":299245,"SoundDuration":299245,"Delta":172981419},{"NoteNumber":77,"Velocity":62,"Duration":151461,"SoundDuration":151461,"Delta":173129203},{"NoteNumber":76,"Velocity":72,"Duration":150656,"SoundDuration":150656,"Delta":173273723},{"NoteNumber":65,"Velocity":40,"Duration":299968,"SoundDuration":299968,"Delta":173280664},{"NoteNumber":62,"Velocity":36,"Duration":299968,"SoundDuration":299968,"Delta":173280664},{"NoteNumber":59,"Velocity":36,"Duration":299968,"SoundDuration":299968,"Delta":173280664},{"NoteNumber":77,"Velocity":63,"Duration":149350,"SoundDuration":149350,"Delta":173431282},{"NoteNumber":80,"Velocity":75,"Duration":151461,"SoundDuration":151461,"Delta":173580632},{"NoteNumber":65,"Velocity":41,"Duration":304226,"SoundDuration":304226,"Delta":173580632},{"NoteNumber":62,"Velocity":36,"Duration":304226,"SoundDuration":304226,"Delta":173580632},{"NoteNumber":59,"Velocity":36,"Duration":304226,"SoundDuration":304226,"Delta":173580632},{"NoteNumber":79,"Velocity":71,"Duration":152764,"SoundDuration":152764,"Delta":173732094},{"NoteNumber":75,"Velocity":82,"Duration":451836,"SoundDuration":451836,"Delta":173884859},{"NoteNumber":48,"Velocity":55,"Duration":302068,"SoundDuration":302068,"Delta":173884859},{"NoteNumber":67,"Velocity":44,"Duration":301659,"SoundDuration":301659,"Delta":174186928},{"NoteNumber":60,"Velocity":44,"Duration":301659,"SoundDuration":301659,"Delta":174186928},{"NoteNumber":55,"Velocity":44,"Duration":301659,"SoundDuration":301659,"Delta":174186928},{"NoteNumber":76,"Velocity":70,"Duration":151891,"SoundDuration":151891,"Delta":174336696},{"NoteNumber":79,"Velocity":72,"Duration":151891,"SoundDuration":151891,"Delta":174488587},{"NoteNumber":67,"Velocity":49,"Duration":303782,"SoundDuration":303782,"Delta":174488587},{"NoteNumber":60,"Velocity":49,"Duration":303782,"SoundDuration":303782,"Delta":174488587},{"NoteNumber":55,"Velocity":49,"Duration":303782,"SoundDuration":303782,"Delta":174488587},{"NoteNumber":84,"Velocity":68,"Duration":151891,"SoundDuration":151891,"Delta":174640478},{"NoteNumber":69,"Velocity":67,"Duration":905843,"SoundDuration":905843,"Delta":174792369},{"NoteNumber":53,"Velocity":49,"Duration":301648,"SoundDuration":301648,"Delta":174792369},{"NoteNumber":75,"Velocity":62,"Duration":151461,"SoundDuration":151461,"Delta":174942556},{"NoteNumber":74,"Velocity":72,"Duration":150617,"SoundDuration":150617,"Delta":175094018},{"NoteNumber":65,"Velocity":40,"Duration":299968,"SoundDuration":299968,"Delta":175094018},{"NoteNumber":60,"Velocity":36,"Duration":299968,"SoundDuration":299968,"Delta":175094018},{"NoteNumber":57,"Velocity":36,"Duration":299968,"SoundDuration":299968,"Delta":175094018},{"NoteNumber":75,"Velocity":63,"Duration":149350,"SoundDuration":149350,"Delta":175244635},{"NoteNumber":78,"Velocity":70,"Duration":151461,"SoundDuration":151461,"Delta":175393986},{"NoteNumber":65,"Velocity":41,"Duration":304226,"SoundDuration":304226,"Delta":175393986},{"NoteNumber":60,"Velocity":36,"Duration":304226,"SoundDuration":304226,"Delta":175393986},{"NoteNumber":57,"Velocity":36,"Duration":304226,"SoundDuration":304226,"Delta":175393986},{"NoteNumber":77,"Velocity":66,"Duration":152764,"SoundDuration":152764,"Delta":175545447},{"NoteNumber":72,"Velocity":72,"Duration":451836,"SoundDuration":451836,"Delta":175698212},{"NoteNumber":46,"Velocity":52,"Duration":302068,"SoundDuration":302068,"Delta":175698212},{"NoteNumber":65,"Velocity":39,"Duration":301659,"SoundDuration":301659,"Delta":176000281},{"NoteNumber":61,"Velocity":39,"Duration":301659,"SoundDuration":301659,"Delta":176000281},{"NoteNumber":58,"Velocity":39,"Duration":301659,"SoundDuration":301659,"Delta":176000281},{"NoteNumber":73,"Velocity":68,"Duration":151891,"SoundDuration":151891,"Delta":176150049},{"NoteNumber":77,"Velocity":69,"Duration":151891,"SoundDuration":151891,"Delta":176301940},{"NoteNumber":65,"Velocity":44,"Duration":303782,"SoundDuration":303782,"Delta":176301940},{"NoteNumber":61,"Velocity":44,"Duration":303782,"SoundDuration":303782,"Delta":176301940},{"NoteNumber":58,"Velocity":44,"Duration":303782,"SoundDuration":303782,"Delta":176301940},{"NoteNumber":82,"Velocity":67,"Duration":151891,"SoundDuration":151891,"Delta":176453831},{"NoteNumber":69,"Velocity":72,"Duration":451836,"SoundDuration":451836,"Delta":176605722},{"NoteNumber":49,"Velocity":48,"Duration":302068,"SoundDuration":302068,"Delta":176605722},{"NoteNumber":65,"Velocity":39,"Duration":301659,"SoundDuration":301659,"Delta":176907791},{"NoteNumber":61,"Velocity":39,"Duration":301659,"SoundDuration":301659,"Delta":176907791},{"NoteNumber":58,"Velocity":39,"Duration":301659,"SoundDuration":301659,"Delta":176907791},{"NoteNumber":70,"Velocity":67,"Duration":151891,"SoundDuration":151891,"Delta":177057559},{"NoteNumber":73,"Velocity":70,"Duration":151891,"SoundDuration":151891,"Delta":177209450},{"NoteNumber":65,"Velocity":39,"Duration":303782,"SoundDuration":303782,"Delta":177209450},{"NoteNumber":61,"Velocity":39,"Duration":303782,"SoundDuration":303782,"Delta":177209450},{"NoteNumber":58,"Velocity":39,"Duration":303782,"SoundDuration":303782,"Delta":177209450},{"NoteNumber":80,"Velocity":66,"Duration":151891,"SoundDuration":151891,"Delta":177361341},{"NoteNumber":79,"Velocity":66,"Duration":155440,"SoundDuration":155440,"Delta":177513232},{"NoteNumber":51,"Velocity":48,"Duration":310880,"SoundDuration":310880,"Delta":177513232},{"NoteNumber":77,"Velocity":60,"Duration":155440,"SoundDuration":155440,"Delta":177668673},{"NoteNumber":75,"Velocity":61,"Duration":155440,"SoundDuration":155440,"Delta":177824113},{"NoteNumber":58,"Velocity":35,"Duration":310880,"SoundDuration":310880,"Delta":177824113},{"NoteNumber":61,"Velocity":35,"Duration":310880,"SoundDuration":310880,"Delta":177824113},{"NoteNumber":63,"Velocity":39,"Duration":310880,"SoundDuration":310880,"Delta":177824113},{"NoteNumber":74,"Velocity":56,"Duration":155440,"SoundDuration":155440,"Delta":177979554},{"NoteNumber":77,"Velocity":59,"Duration":155440,"SoundDuration":155440,"Delta":178134994},{"NoteNumber":58,"Velocity":35,"Duration":310881,"SoundDuration":310881,"Delta":178134994},{"NoteNumber":61,"Velocity":35,"Duration":310881,"SoundDuration":310881,"Delta":178134994},{"NoteNumber":63,"Velocity":39,"Duration":310881,"SoundDuration":310881,"Delta":178134994},{"NoteNumber":75,"Velocity":56,"Duration":155440,"SoundDuration":155440,"Delta":178290435},{"NoteNumber":73,"Velocity":59,"Duration":153061,"SoundDuration":153061,"Delta":178445875},{"NoteNumber":58,"Velocity":44,"Duration":304522,"SoundDuration":304522,"Delta":178445875},{"NoteNumber":77,"Velocity":55,"Duration":151461,"SoundDuration":151461,"Delta":178598936},{"NoteNumber":76,"Velocity":64,"Duration":150617,"SoundDuration":150617,"Delta":178750398},{"NoteNumber":65,"Velocity":37,"Duration":299968,"SoundDuration":299968,"Delta":178750398},{"NoteNumber":61,"Velocity":33,"Duration":299968,"SoundDuration":299968,"Delta":178750398},{"NoteNumber":77,"Velocity":56,"Duration":149350,"SoundDuration":149350,"Delta":178901015},{"NoteNumber":73,"Velocity":60,"Duration":152284,"SoundDuration":152284,"Delta":179050366},{"NoteNumber":65,"Velocity":38,"Duration":304568,"SoundDuration":304568,"Delta":179050366},{"NoteNumber":61,"Velocity":34,"Duration":304568,"SoundDuration":304568,"Delta":179050366},{"NoteNumber":77,"Velocity":58,"Duration":152284,"SoundDuration":152284,"Delta":179202650},{"NoteNumber":76,"Velocity":62,"Duration":150754,"SoundDuration":150754,"Delta":179354935},{"NoteNumber":56,"Velocity":46,"Duration":303815,"SoundDuration":303815,"Delta":179354935},{"NoteNumber":77,"Velocity":58,"Duration":153061,"SoundDuration":153061,"Delta":179505689},{"NoteNumber":73,"Velocity":68,"Duration":150140,"SoundDuration":150140,"Delta":179651735},{"NoteNumber":65,"Velocity":38,"Duration":297783,"SoundDuration":297783,"Delta":179658750},{"NoteNumber":61,"Velocity":34,"Duration":297783,"SoundDuration":297783,"Delta":179658750},{"NoteNumber":58,"Velocity":34,"Duration":297783,"SoundDuration":297783,"Delta":179658750},{"NoteNumber":77,"Velocity":60,"Duration":147783,"SoundDuration":147783,"Delta":179808750},{"NoteNumber":76,"Velocity":63,"Duration":149626,"SoundDuration":149626,"Delta":179956533},{"NoteNumber":65,"Velocity":39,"Duration":299251,"SoundDuration":299251,"Delta":179956533},{"NoteNumber":61,"Velocity":35,"Duration":299251,"SoundDuration":299251,"Delta":179956533},{"NoteNumber":58,"Velocity":35,"Duration":299251,"SoundDuration":299251,"Delta":179956533},{"NoteNumber":77,"Velocity":62,"Duration":149625,"SoundDuration":149625,"Delta":180106159},{"NoteNumber":71,"Velocity":67,"Duration":905843,"SoundDuration":905843,"Delta":180255785},{"NoteNumber":55,"Velocity":49,"Duration":301648,"SoundDuration":301648,"Delta":180255785},{"NoteNumber":77,"Velocity":62,"Duration":151461,"SoundDuration":151461,"Delta":180405973},{"NoteNumber":76,"Velocity":72,"Duration":150656,"SoundDuration":150656,"Delta":180550493},{"NoteNumber":65,"Velocity":40,"Duration":299968,"SoundDuration":299968,"Delta":180557434},{"NoteNumber":62,"Velocity":36,"Duration":299968,"SoundDuration":299968,"Delta":180557434},{"NoteNumber":59,"Velocity":36,"Duration":299968,"SoundDuration":299968,"Delta":180557434},{"NoteNumber":77,"Velocity":63,"Duration":149350,"SoundDuration":149350,"Delta":180708052},{"NoteNumber":80,"Velocity":75,"Duration":151461,"SoundDuration":151461,"Delta":180857402},{"NoteNumber":65,"Velocity":41,"Duration":304226,"SoundDuration":304226,"Delta":180857402},{"NoteNumber":62,"Velocity":36,"Duration":304226,"SoundDuration":304226,"Delta":180857402},{"NoteNumber":59,"Velocity":36,"Duration":304226,"SoundDuration":304226,"Delta":180857402},{"NoteNumber":79,"Velocity":71,"Duration":152764,"SoundDuration":152764,"Delta":181008864},{"NoteNumber":75,"Velocity":82,"Duration":451836,"SoundDuration":451836,"Delta":181161629},{"NoteNumber":48,"Velocity":55,"Duration":302068,"SoundDuration":302068,"Delta":181161629},{"NoteNumber":67,"Velocity":49,"Duration":301659,"SoundDuration":301659,"Delta":181463698},{"NoteNumber":60,"Velocity":49,"Duration":301659,"SoundDuration":301659,"Delta":181463698},{"NoteNumber":55,"Velocity":49,"Duration":301659,"SoundDuration":301659,"Delta":181463698},{"NoteNumber":76,"Velocity":69,"Duration":151891,"SoundDuration":151891,"Delta":181613466},{"NoteNumber":79,"Velocity":72,"Duration":151891,"SoundDuration":151891,"Delta":181765357},{"NoteNumber":67,"Velocity":49,"Duration":303782,"SoundDuration":303782,"Delta":181765357},{"NoteNumber":60,"Velocity":49,"Duration":303782,"SoundDuration":303782,"Delta":181765357},{"NoteNumber":55,"Velocity":49,"Duration":303782,"SoundDuration":303782,"Delta":181765357},{"NoteNumber":84,"Velocity":69,"Duration":151891,"SoundDuration":151891,"Delta":181917248},{"NoteNumber":69,"Velocity":67,"Duration":905843,"SoundDuration":905843,"Delta":182069139},{"NoteNumber":53,"Velocity":49,"Duration":301648,"SoundDuration":301648,"Delta":182069139},{"NoteNumber":75,"Velocity":62,"Duration":151461,"SoundDuration":151461,"Delta":182219326},{"NoteNumber":74,"Velocity":72,"Duration":150617,"SoundDuration":150617,"Delta":182370788},{"NoteNumber":65,"Velocity":40,"Duration":299968,"SoundDuration":299968,"Delta":182370788},{"NoteNumber":60,"Velocity":36,"Duration":299968,"SoundDuration":299968,"Delta":182370788},{"NoteNumber":57,"Velocity":36,"Duration":299968,"SoundDuration":299968,"Delta":182370788},{"NoteNumber":75,"Velocity":63,"Duration":149350,"SoundDuration":149350,"Delta":182521405},{"NoteNumber":78,"Velocity":69,"Duration":151461,"SoundDuration":151461,"Delta":182670756},{"NoteNumber":65,"Velocity":41,"Duration":304226,"SoundDuration":304226,"Delta":182670756},{"NoteNumber":60,"Velocity":36,"Duration":304226,"SoundDuration":304226,"Delta":182670756},{"NoteNumber":57,"Velocity":36,"Duration":304226,"SoundDuration":304226,"Delta":182670756},{"NoteNumber":77,"Velocity":66,"Duration":152764,"SoundDuration":152764,"Delta":182822217},{"NoteNumber":72,"Velocity":74,"Duration":451836,"SoundDuration":451836,"Delta":182974982},{"NoteNumber":46,"Velocity":52,"Duration":302068,"SoundDuration":302068,"Delta":182974982},{"NoteNumber":65,"Velocity":39,"Duration":301659,"SoundDuration":301659,"Delta":183277051},{"NoteNumber":61,"Velocity":39,"Duration":301659,"SoundDuration":301659,"Delta":183277051},{"NoteNumber":58,"Velocity":39,"Duration":301659,"SoundDuration":301659,"Delta":183277051},{"NoteNumber":73,"Velocity":67,"Duration":151891,"SoundDuration":151891,"Delta":183426819},{"NoteNumber":77,"Velocity":70,"Duration":151891,"SoundDuration":151891,"Delta":183578710},{"NoteNumber":65,"Velocity":44,"Duration":303782,"SoundDuration":303782,"Delta":183578710},{"NoteNumber":61,"Velocity":44,"Duration":303782,"SoundDuration":303782,"Delta":183578710},{"NoteNumber":58,"Velocity":44,"Duration":303782,"SoundDuration":303782,"Delta":183578710},{"NoteNumber":82,"Velocity":64,"Duration":151891,"SoundDuration":151891,"Delta":183730601},{"NoteNumber":69,"Velocity":68,"Duration":451836,"SoundDuration":451836,"Delta":183882492},{"NoteNumber":49,"Velocity":48,"Duration":302068,"SoundDuration":302068,"Delta":183882492},{"NoteNumber":65,"Velocity":39,"Duration":301659,"SoundDuration":301659,"Delta":184184561},{"NoteNumber":61,"Velocity":39,"Duration":301659,"SoundDuration":301659,"Delta":184184561},{"NoteNumber":58,"Velocity":39,"Duration":301659,"SoundDuration":301659,"Delta":184184561},{"NoteNumber":70,"Velocity":60,"Duration":151891,"SoundDuration":151891,"Delta":184334329},{"NoteNumber":72,"Velocity":62,"Duration":151891,"SoundDuration":151891,"Delta":184486220},{"NoteNumber":65,"Velocity":39,"Duration":303782,"SoundDuration":303782,"Delta":184486220},{"NoteNumber":61,"Velocity":39,"Duration":303782,"SoundDuration":303782,"Delta":184486220},{"NoteNumber":58,"Velocity":39,"Duration":303782,"SoundDuration":303782,"Delta":184486220},{"NoteNumber":73,"Velocity":59,"Duration":151891,"SoundDuration":151891,"Delta":184638111},{"NoteNumber":66,"Velocity":63,"Duration":451836,"SoundDuration":451836,"Delta":184790002},{"NoteNumber":51,"Velocity":45,"Duration":302068,"SoundDuration":302068,"Delta":184790002},{"NoteNumber":63,"Velocity":37,"Duration":301659,"SoundDuration":301659,"Delta":185092071},{"NoteNumber":61,"Velocity":37,"Duration":301659,"SoundDuration":301659,"Delta":185092071},{"NoteNumber":58,"Velocity":37,"Duration":301659,"SoundDuration":301659,"Delta":185092071},{"NoteNumber":67,"Velocity":57,"Duration":151891,"SoundDuration":151891,"Delta":185241839},{"NoteNumber":69,"Velocity":59,"Duration":151891,"SoundDuration":151891,"Delta":185393730},{"NoteNumber":63,"Velocity":37,"Duration":303782,"SoundDuration":303782,"Delta":185393730},{"NoteNumber":61,"Velocity":37,"Duration":303782,"SoundDuration":303782,"Delta":185393730},{"NoteNumber":58,"Velocity":37,"Duration":303782,"SoundDuration":303782,"Delta":185393730},{"NoteNumber":70,"Velocity":56,"Duration":151891,"SoundDuration":151891,"Delta":185545621},{"NoteNumber":44,"Velocity":37,"Duration":304383,"SoundDuration":304383,"Delta":185697512},{"NoteNumber":68,"Velocity":59,"Duration":601554,"SoundDuration":601554,"Delta":186001895},{"NoteNumber":51,"Velocity":31,"Duration":298982,"SoundDuration":298982,"Delta":186001895},{"NoteNumber":56,"Velocity":31,"Duration":298982,"SoundDuration":298982,"Delta":186001895},{"NoteNumber":60,"Velocity":36,"Duration":298982,"SoundDuration":298982,"Delta":186001895},{"NoteNumber":63,"Velocity":39,"Duration":302571,"SoundDuration":302571,"Delta":186300878},{"NoteNumber":51,"Velocity":27,"Duration":302571,"SoundDuration":302571,"Delta":186300878},{"NoteNumber":60,"Velocity":30,"Duration":302571,"SoundDuration":302571,"Delta":186300878},{"NoteNumber":56,"Velocity":27,"Duration":302571,"SoundDuration":302571,"Delta":186300878},{"NoteNumber":70,"Velocity":59,"Duration":601615,"SoundDuration":601615,"Delta":186603450},{"NoteNumber":39,"Velocity":44,"Duration":298982,"SoundDuration":298982,"Delta":186603450},{"NoteNumber":63,"Velocity":28,"Duration":302632,"SoundDuration":302632,"Delta":186902433},{"NoteNumber":68,"Velocity":31,"Duration":302632,"SoundDuration":302632,"Delta":186902433},{"NoteNumber":51,"Velocity":22,"Duration":302632,"SoundDuration":302632,"Delta":186902433},{"NoteNumber":56,"Velocity":22,"Duration":302632,"SoundDuration":302632,"Delta":186902433},{"NoteNumber":60,"Velocity":25,"Duration":302632,"SoundDuration":302632,"Delta":186902433},{"NoteNumber":72,"Velocity":59,"Duration":296764,"SoundDuration":296764,"Delta":187205066},{"NoteNumber":51,"Velocity":29,"Duration":296764,"SoundDuration":296764,"Delta":187205066},{"NoteNumber":56,"Velocity":29,"Duration":296764,"SoundDuration":296764,"Delta":187205066},{"NoteNumber":60,"Velocity":33,"Duration":296764,"SoundDuration":296764,"Delta":187205066},{"NoteNumber":46,"Velocity":39,"Duration":301644,"SoundDuration":301644,"Delta":187501831},{"NoteNumber":73,"Velocity":63,"Duration":602344,"SoundDuration":602344,"Delta":187803475},{"NoteNumber":51,"Velocity":34,"Duration":298716,"SoundDuration":298716,"Delta":187803475},{"NoteNumber":61,"Velocity":38,"Duration":298716,"SoundDuration":298716,"Delta":187803475},{"NoteNumber":55,"Velocity":34,"Duration":298716,"SoundDuration":298716,"Delta":187803475},{"NoteNumber":63,"Velocity":34,"Duration":303628,"SoundDuration":303628,"Delta":188102191},{"NoteNumber":67,"Velocity":38,"Duration":303628,"SoundDuration":303628,"Delta":188102191},{"NoteNumber":51,"Velocity":25,"Duration":303628,"SoundDuration":303628,"Delta":188102191},{"NoteNumber":61,"Velocity":28,"Duration":303628,"SoundDuration":303628,"Delta":188102191},{"NoteNumber":55,"Velocity":25,"Duration":303628,"SoundDuration":303628,"Delta":188102191},{"NoteNumber":72,"Velocity":62,"Duration":607256,"SoundDuration":607256,"Delta":188405819},{"NoteNumber":39,"Velocity":39,"Duration":303628,"SoundDuration":303628,"Delta":188405819},{"NoteNumber":67,"Velocity":35,"Duration":303628,"SoundDuration":303628,"Delta":188709447},{"NoteNumber":63,"Velocity":30,"Duration":303628,"SoundDuration":303628,"Delta":188709447},{"NoteNumber":61,"Velocity":26,"Duration":303628,"SoundDuration":303628,"Delta":188709447},{"NoteNumber":51,"Velocity":23,"Duration":303628,"SoundDuration":303628,"Delta":188709447},{"NoteNumber":55,"Velocity":23,"Duration":303628,"SoundDuration":303628,"Delta":188709447},{"NoteNumber":70,"Velocity":51,"Duration":303628,"SoundDuration":303628,"Delta":189013075},{"NoteNumber":61,"Velocity":36,"Duration":303628,"SoundDuration":303628,"Delta":189013075},{"NoteNumber":51,"Velocity":31,"Duration":303628,"SoundDuration":303628,"Delta":189013075},{"NoteNumber":55,"Velocity":31,"Duration":303628,"SoundDuration":303628,"Delta":189013075},{"NoteNumber":44,"Velocity":38,"Duration":309756,"SoundDuration":309756,"Delta":189316703},{"NoteNumber":72,"Velocity":63,"Duration":613448,"SoundDuration":613448,"Delta":189626460},{"NoteNumber":51,"Velocity":34,"Duration":302632,"SoundDuration":302632,"Delta":189626460},{"NoteNumber":56,"Velocity":34,"Duration":302632,"SoundDuration":302632,"Delta":189626460},{"NoteNumber":60,"Velocity":38,"Duration":302632,"SoundDuration":302632,"Delta":189626460},{"NoteNumber":68,"Velocity":42,"Duration":310815,"SoundDuration":310815,"Delta":189929093},{"NoteNumber":63,"Velocity":38,"Duration":310815,"SoundDuration":310815,"Delta":189929093},{"NoteNumber":51,"Velocity":29,"Duration":310815,"SoundDuration":310815,"Delta":189929093},{"NoteNumber":60,"Velocity":34,"Duration":310815,"SoundDuration":310815,"Delta":189929093},{"NoteNumber":56,"Velocity":29,"Duration":310815,"SoundDuration":310815,"Delta":189929093},{"NoteNumber":73,"Velocity":68,"Duration":615387,"SoundDuration":615387,"Delta":190239909},{"NoteNumber":39,"Velocity":55,"Duration":308482,"SoundDuration":308482,"Delta":190239909},{"NoteNumber":63,"Velocity":37,"Duration":306905,"SoundDuration":306905,"Delta":190548392},{"NoteNumber":68,"Velocity":41,"Duration":306905,"SoundDuration":306905,"Delta":190548392},{"NoteNumber":54,"Velocity":31,"Duration":306905,"SoundDuration":306905,"Delta":190548392},{"NoteNumber":56,"Velocity":31,"Duration":306905,"SoundDuration":306905,"Delta":190548392},{"NoteNumber":60,"Velocity":36,"Duration":306905,"SoundDuration":306905,"Delta":190548392},{"NoteNumber":75,"Velocity":71,"Duration":314135,"SoundDuration":314135,"Delta":190855297},{"NoteNumber":54,"Velocity":38,"Duration":314135,"SoundDuration":314135,"Delta":190855297},{"NoteNumber":56,"Velocity":38,"Duration":314135,"SoundDuration":314135,"Delta":190855297},{"NoteNumber":60,"Velocity":42,"Duration":314135,"SoundDuration":314135,"Delta":190855297},{"NoteNumber":77,"Velocity":73,"Duration":227111,"SoundDuration":227111,"Delta":191169433},{"NoteNumber":44,"Velocity":55,"Duration":227111,"SoundDuration":227111,"Delta":191169433},{"NoteNumber":53,"Velocity":31,"Duration":340766,"SoundDuration":340766,"Delta":191396545},{"NoteNumber":56,"Velocity":37,"Duration":318771,"SoundDuration":318771,"Delta":191418539},{"NoteNumber":59,"Velocity":44,"Duration":296777,"SoundDuration":296777,"Delta":191440533},{"NoteNumber":68,"Velocity":51,"Duration":274783,"SoundDuration":274783,"Delta":191462527},{"NoteNumber":74,"Velocity":56,"Duration":252789,"SoundDuration":252789,"Delta":191484521},{"NoteNumber":79,"Velocity":74,"Duration":230795,"SoundDuration":230795,"Delta":191506515},{"NoteNumber":53,"Velocity":33,"Duration":444232,"SoundDuration":444232,"Delta":191737311},{"NoteNumber":56,"Velocity":40,"Duration":422238,"SoundDuration":422238,"Delta":191759305},{"NoteNumber":59,"Velocity":45,"Duration":400244,"SoundDuration":400244,"Delta":191781299},{"NoteNumber":68,"Velocity":51,"Duration":378250,"SoundDuration":378250,"Delta":191803293},{"NoteNumber":74,"Velocity":56,"Duration":356256,"SoundDuration":356256,"Delta":191825287},{"NoteNumber":80,"Velocity":77,"Duration":334261,"SoundDuration":334261,"Delta":191847281},{"NoteNumber":75,"Velocity":81,"Duration":955314,"SoundDuration":955314,"Delta":192181543},{"NoteNumber":44,"Velocity":60,"Duration":321716,"SoundDuration":321716,"Delta":192181543},{"NoteNumber":63,"Velocity":41,"Duration":321715,"SoundDuration":321715,"Delta":192503259},{"NoteNumber":68,"Velocity":41,"Duration":321715,"SoundDuration":321715,"Delta":192503259},{"NoteNumber":72,"Velocity":47,"Duration":321715,"SoundDuration":321715,"Delta":192503259},{"NoteNumber":51,"Velocity":27,"Duration":321715,"SoundDuration":321715,"Delta":192503259},{"NoteNumber":56,"Velocity":27,"Duration":321715,"SoundDuration":321715,"Delta":192503259},{"NoteNumber":60,"Velocity":30,"Duration":321715,"SoundDuration":321715,"Delta":192503259},{"NoteNumber":63,"Velocity":41,"Duration":311882,"SoundDuration":311882,"Delta":192824975},{"NoteNumber":68,"Velocity":41,"Duration":311882,"SoundDuration":311882,"Delta":192824975},{"NoteNumber":72,"Velocity":46,"Duration":311882,"SoundDuration":311882,"Delta":192824975},{"NoteNumber":51,"Velocity":27,"Duration":311882,"SoundDuration":311882,"Delta":192824975},{"NoteNumber":56,"Velocity":27,"Duration":311882,"SoundDuration":311882,"Delta":192824975},{"NoteNumber":60,"Velocity":30,"Duration":311882,"SoundDuration":311882,"Delta":192824975},{"NoteNumber":45,"Velocity":37,"Duration":305655,"SoundDuration":305655,"Delta":193136858},{"NoteNumber":78,"Velocity":59,"Duration":141843,"SoundDuration":141843,"Delta":193442513},{"NoteNumber":53,"Velocity":31,"Duration":283688,"SoundDuration":283688,"Delta":193442513},{"NoteNumber":60,"Velocity":31,"Duration":283688,"SoundDuration":283688,"Delta":193442513},{"NoteNumber":63,"Velocity":36,"Duration":283688,"SoundDuration":283688,"Delta":193442513},{"NoteNumber":77,"Velocity":56,"Duration":141844,"SoundDuration":141844,"Delta":193584357},{"NoteNumber":75,"Velocity":59,"Duration":150000,"SoundDuration":150000,"Delta":193726201},{"NoteNumber":53,"Velocity":27,"Duration":305844,"SoundDuration":305844,"Delta":193726201},{"NoteNumber":63,"Velocity":30,"Duration":305844,"SoundDuration":305844,"Delta":193726201},{"NoteNumber":60,"Velocity":27,"Duration":305844,"SoundDuration":305844,"Delta":193726201},{"NoteNumber":78,"Velocity":56,"Duration":155844,"SoundDuration":155844,"Delta":193876201},{"NoteNumber":77,"Velocity":62,"Duration":456971,"SoundDuration":456971,"Delta":194032045},{"NoteNumber":46,"Velocity":37,"Duration":305655,"SoundDuration":305655,"Delta":194032045},{"NoteNumber":53,"Velocity":31,"Duration":302632,"SoundDuration":302632,"Delta":194337700},{"NoteNumber":58,"Velocity":31,"Duration":302632,"SoundDuration":302632,"Delta":194337700},{"NoteNumber":61,"Velocity":36,"Duration":302632,"SoundDuration":302632,"Delta":194337700},{"NoteNumber":73,"Velocity":59,"Duration":151316,"SoundDuration":151316,"Delta":194489017},{"NoteNumber":70,"Velocity":55,"Duration":155407,"SoundDuration":155407,"Delta":194640333},{"NoteNumber":53,"Velocity":27,"Duration":310815,"SoundDuration":310815,"Delta":194640333},{"NoteNumber":61,"Velocity":30,"Duration":310815,"SoundDuration":310815,"Delta":194640333},{"NoteNumber":58,"Velocity":27,"Duration":310815,"SoundDuration":310815,"Delta":194640333},{"NoteNumber":65,"Velocity":50,"Duration":155407,"SoundDuration":155407,"Delta":194795741},{"NoteNumber":43,"Velocity":37,"Duration":305655,"SoundDuration":305655,"Delta":194951149},{"NoteNumber":76,"Velocity":59,"Duration":147420,"SoundDuration":147420,"Delta":195256804},{"NoteNumber":51,"Velocity":31,"Duration":294839,"SoundDuration":294839,"Delta":195256804},{"NoteNumber":58,"Velocity":31,"Duration":294839,"SoundDuration":294839,"Delta":195256804},{"NoteNumber":61,"Velocity":36,"Duration":294839,"SoundDuration":294839,"Delta":195256804},{"NoteNumber":75,"Velocity":56,"Duration":147419,"SoundDuration":147419,"Delta":195404224},{"NoteNumber":73,"Velocity":59,"Duration":155407,"SoundDuration":155407,"Delta":195551644},{"NoteNumber":51,"Velocity":27,"Duration":310815,"SoundDuration":310815,"Delta":195551644},{"NoteNumber":61,"Velocity":30,"Duration":310815,"SoundDuration":310815,"Delta":195551644},{"NoteNumber":58,"Velocity":27,"Duration":310815,"SoundDuration":310815,"Delta":195551644},{"NoteNumber":76,"Velocity":56,"Duration":155407,"SoundDuration":155407,"Delta":195707052},{"NoteNumber":75,"Velocity":62,"Duration":456971,"SoundDuration":456971,"Delta":195862460},{"NoteNumber":44,"Velocity":37,"Duration":305655,"SoundDuration":305655,"Delta":195862460},{"NoteNumber":51,"Velocity":31,"Duration":302632,"SoundDuration":302632,"Delta":196168115},{"NoteNumber":56,"Velocity":31,"Duration":302632,"SoundDuration":302632,"Delta":196168115},{"NoteNumber":60,"Velocity":36,"Duration":302632,"SoundDuration":302632,"Delta":196168115},{"NoteNumber":72,"Velocity":59,"Duration":151316,"SoundDuration":151316,"Delta":196319432},{"NoteNumber":68,"Velocity":57,"Duration":155407,"SoundDuration":155407,"Delta":196470748},{"NoteNumber":51,"Velocity":27,"Duration":310815,"SoundDuration":310815,"Delta":196470748},{"NoteNumber":60,"Velocity":30,"Duration":310815,"SoundDuration":310815,"Delta":196470748},{"NoteNumber":56,"Velocity":27,"Duration":310815,"SoundDuration":310815,"Delta":196470748},{"NoteNumber":63,"Velocity":52,"Duration":155407,"SoundDuration":155407,"Delta":196626156},{"NoteNumber":42,"Velocity":37,"Duration":309756,"SoundDuration":309756,"Delta":196781564},{"NoteNumber":60,"Velocity":35,"Duration":302632,"SoundDuration":302632,"Delta":197091321},{"NoteNumber":63,"Velocity":39,"Duration":302632,"SoundDuration":302632,"Delta":197091321},{"NoteNumber":68,"Velocity":59,"Duration":613448,"SoundDuration":613448,"Delta":197091321},{"NoteNumber":54,"Velocity":31,"Duration":302632,"SoundDuration":302632,"Delta":197091321},{"NoteNumber":56,"Velocity":36,"Duration":302632,"SoundDuration":302632,"Delta":197091321},{"NoteNumber":60,"Velocity":35,"Duration":310815,"SoundDuration":310815,"Delta":197393954},{"NoteNumber":63,"Velocity":39,"Duration":310815,"SoundDuration":310815,"Delta":197393954},{"NoteNumber":56,"Velocity":30,"Duration":310815,"SoundDuration":310815,"Delta":197393954},{"NoteNumber":54,"Velocity":27,"Duration":310815,"SoundDuration":310815,"Delta":197393954},{"NoteNumber":67,"Velocity":63,"Duration":606260,"SoundDuration":606260,"Delta":197704770},{"NoteNumber":41,"Velocity":44,"Duration":303628,"SoundDuration":303628,"Delta":197704770},{"NoteNumber":60,"Velocity":31,"Duration":302632,"SoundDuration":302632,"Delta":198008398},{"NoteNumber":65,"Velocity":36,"Duration":302632,"SoundDuration":302632,"Delta":198008398},{"NoteNumber":53,"Velocity":25,"Duration":302632,"SoundDuration":302632,"Delta":198008398},{"NoteNumber":56,"Velocity":28,"Duration":302632,"SoundDuration":302632,"Delta":198008398},{"NoteNumber":60,"Velocity":31,"Duration":296764,"SoundDuration":296764,"Delta":198311031},{"NoteNumber":65,"Velocity":36,"Duration":296764,"SoundDuration":296764,"Delta":198311031},{"NoteNumber":68,"Velocity":59,"Duration":296764,"SoundDuration":296764,"Delta":198311031},{"NoteNumber":53,"Velocity":29,"Duration":296764,"SoundDuration":296764,"Delta":198311031},{"NoteNumber":56,"Velocity":33,"Duration":296764,"SoundDuration":296764,"Delta":198311031},{"NoteNumber":70,"Velocity":68,"Duration":456971,"SoundDuration":456971,"Delta":198607796},{"NoteNumber":40,"Velocity":37,"Duration":305655,"SoundDuration":305655,"Delta":198607796},{"NoteNumber":62,"Velocity":31,"Duration":302632,"SoundDuration":302632,"Delta":198913451},{"NoteNumber":68,"Velocity":36,"Duration":302632,"SoundDuration":302632,"Delta":198913451},{"NoteNumber":52,"Velocity":31,"Duration":302632,"SoundDuration":302632,"Delta":198913451},{"NoteNumber":56,"Velocity":36,"Duration":302632,"SoundDuration":302632,"Delta":198913451},{"NoteNumber":71,"Velocity":61,"Duration":151316,"SoundDuration":151316,"Delta":199064768},{"NoteNumber":62,"Velocity":31,"Duration":310815,"SoundDuration":310815,"Delta":199216084},{"NoteNumber":68,"Velocity":36,"Duration":310815,"SoundDuration":310815,"Delta":199216084},{"NoteNumber":70,"Velocity":59,"Duration":155407,"SoundDuration":155407,"Delta":199216084},{"NoteNumber":52,"Velocity":27,"Duration":310815,"SoundDuration":310815,"Delta":199216084},{"NoteNumber":56,"Velocity":30,"Duration":310815,"SoundDuration":310815,"Delta":199216084},{"NoteNumber":71,"Velocity":52,"Duration":155407,"SoundDuration":155407,"Delta":199371492},{"NoteNumber":67,"Velocity":59,"Duration":953513,"SoundDuration":953513,"Delta":199526900},{"NoteNumber":39,"Velocity":37,"Duration":316622,"SoundDuration":316622,"Delta":199526900},{"NoteNumber":61,"Velocity":36,"Duration":311688,"SoundDuration":311688,"Delta":199843523},{"NoteNumber":63,"Velocity":40,"Duration":311688,"SoundDuration":311688,"Delta":199843523},{"NoteNumber":51,"Velocity":29,"Duration":311688,"SoundDuration":311688,"Delta":199843523},{"NoteNumber":58,"Velocity":34,"Duration":311688,"SoundDuration":311688,"Delta":199843523},{"NoteNumber":61,"Velocity":35,"Duration":325202,"SoundDuration":325202,"Delta":200155211},{"NoteNumber":63,"Velocity":39,"Duration":325202,"SoundDuration":325202,"Delta":200155211},{"NoteNumber":58,"Velocity":28,"Duration":325202,"SoundDuration":325202,"Delta":200155211},{"NoteNumber":51,"Velocity":25,"Duration":325202,"SoundDuration":325202,"Delta":200155211},{"NoteNumber":44,"Velocity":37,"Duration":309756,"SoundDuration":309756,"Delta":200480414},{"NoteNumber":68,"Velocity":59,"Duration":602457,"SoundDuration":602457,"Delta":200790171},{"NoteNumber":51,"Velocity":27,"Duration":298982,"SoundDuration":298982,"Delta":200790171},{"NoteNumber":56,"Velocity":27,"Duration":298982,"SoundDuration":298982,"Delta":200790171},{"NoteNumber":60,"Velocity":32,"Duration":298982,"SoundDuration":298982,"Delta":200790171},{"NoteNumber":63,"Velocity":39,"Duration":303474,"SoundDuration":303474,"Delta":201089154},{"NoteNumber":51,"Velocity":24,"Duration":303474,"SoundDuration":303474,"Delta":201089154},{"NoteNumber":60,"Velocity":27,"Duration":303474,"SoundDuration":303474,"Delta":201089154},{"NoteNumber":56,"Velocity":24,"Duration":303474,"SoundDuration":303474,"Delta":201089154},{"NoteNumber":70,"Velocity":59,"Duration":606260,"SoundDuration":606260,"Delta":201392629},{"NoteNumber":39,"Velocity":44,"Duration":303628,"SoundDuration":303628,"Delta":201392629},{"NoteNumber":63,"Velocity":28,"Duration":302632,"SoundDuration":302632,"Delta":201696257},{"NoteNumber":68,"Velocity":31,"Duration":302632,"SoundDuration":302632,"Delta":201696257},{"NoteNumber":51,"Velocity":19,"Duration":302632,"SoundDuration":302632,"Delta":201696257},{"NoteNumber":56,"Velocity":19,"Duration":302632,"SoundDuration":302632,"Delta":201696257},{"NoteNumber":60,"Velocity":22,"Duration":302632,"SoundDuration":302632,"Delta":201696257},{"NoteNumber":72,"Velocity":59,"Duration":296764,"SoundDuration":296764,"Delta":201998890},{"NoteNumber":51,"Velocity":26,"Duration":296764,"SoundDuration":296764,"Delta":201998890},{"NoteNumber":56,"Velocity":26,"Duration":296764,"SoundDuration":296764,"Delta":201998890},{"NoteNumber":60,"Velocity":29,"Duration":296764,"SoundDuration":296764,"Delta":201998890},{"NoteNumber":46,"Velocity":39,"Duration":301644,"SoundDuration":301644,"Delta":202295655},{"NoteNumber":73,"Velocity":63,"Duration":602344,"SoundDuration":602344,"Delta":202597299},{"NoteNumber":51,"Velocity":30,"Duration":298716,"SoundDuration":298716,"Delta":202597299},{"NoteNumber":61,"Velocity":34,"Duration":298716,"SoundDuration":298716,"Delta":202597299},{"NoteNumber":55,"Velocity":30,"Duration":298716,"SoundDuration":298716,"Delta":202597299},{"NoteNumber":63,"Velocity":34,"Duration":303628,"SoundDuration":303628,"Delta":202896015},{"NoteNumber":67,"Velocity":38,"Duration":303628,"SoundDuration":303628,"Delta":202896015},{"NoteNumber":51,"Velocity":22,"Duration":303628,"SoundDuration":303628,"Delta":202896015},{"NoteNumber":61,"Velocity":25,"Duration":303628,"SoundDuration":303628,"Delta":202896015},{"NoteNumber":55,"Velocity":22,"Duration":303628,"SoundDuration":303628,"Delta":202896015},{"NoteNumber":72,"Velocity":62,"Duration":607256,"SoundDuration":607256,"Delta":203199643},{"NoteNumber":39,"Velocity":39,"Duration":303628,"SoundDuration":303628,"Delta":203199643},{"NoteNumber":67,"Velocity":35,"Duration":303628,"SoundDuration":303628,"Delta":203503271},{"NoteNumber":63,"Velocity":30,"Duration":303628,"SoundDuration":303628,"Delta":203503271},{"NoteNumber":61,"Velocity":23,"Duration":303628,"SoundDuration":303628,"Delta":203503271},{"NoteNumber":51,"Velocity":20,"Duration":303628,"SoundDuration":303628,"Delta":203503271},{"NoteNumber":55,"Velocity":20,"Duration":303628,"SoundDuration":303628,"Delta":203503271},{"NoteNumber":70,"Velocity":51,"Duration":303628,"SoundDuration":303628,"Delta":203806899},{"NoteNumber":61,"Velocity":32,"Duration":303628,"SoundDuration":303628,"Delta":203806899},{"NoteNumber":51,"Velocity":27,"Duration":303628,"SoundDuration":303628,"Delta":203806899},{"NoteNumber":55,"Velocity":27,"Duration":303628,"SoundDuration":303628,"Delta":203806899},{"NoteNumber":44,"Velocity":38,"Duration":309756,"SoundDuration":309756,"Delta":204110527},{"NoteNumber":72,"Velocity":63,"Duration":613448,"SoundDuration":613448,"Delta":204420284},{"NoteNumber":51,"Velocity":30,"Duration":302632,"SoundDuration":302632,"Delta":204420284},{"NoteNumber":56,"Velocity":30,"Duration":302632,"SoundDuration":302632,"Delta":204420284},{"NoteNumber":60,"Velocity":34,"Duration":302632,"SoundDuration":302632,"Delta":204420284},{"NoteNumber":68,"Velocity":42,"Duration":310815,"SoundDuration":310815,"Delta":204722917},{"NoteNumber":63,"Velocity":38,"Duration":310815,"SoundDuration":310815,"Delta":204722917},{"NoteNumber":51,"Velocity":26,"Duration":310815,"SoundDuration":310815,"Delta":204722917},{"NoteNumber":60,"Velocity":30,"Duration":310815,"SoundDuration":310815,"Delta":204722917},{"NoteNumber":56,"Velocity":26,"Duration":310815,"SoundDuration":310815,"Delta":204722917},{"NoteNumber":73,"Velocity":68,"Duration":606260,"SoundDuration":606260,"Delta":205033733},{"NoteNumber":39,"Velocity":59,"Duration":303628,"SoundDuration":303628,"Delta":205033733},{"NoteNumber":63,"Velocity":37,"Duration":302632,"SoundDuration":302632,"Delta":205337361},{"NoteNumber":68,"Velocity":41,"Duration":302632,"SoundDuration":302632,"Delta":205337361},{"NoteNumber":54,"Velocity":27,"Duration":302632,"SoundDuration":302632,"Delta":205337361},{"NoteNumber":56,"Velocity":27,"Duration":302632,"SoundDuration":302632,"Delta":205337361},{"NoteNumber":60,"Velocity":32,"Duration":302632,"SoundDuration":302632,"Delta":205337361},{"NoteNumber":75,"Velocity":71,"Duration":296764,"SoundDuration":296764,"Delta":205639994},{"NoteNumber":54,"Velocity":34,"Duration":296764,"SoundDuration":296764,"Delta":205639994},{"NoteNumber":56,"Velocity":34,"Duration":296764,"SoundDuration":296764,"Delta":205639994},{"NoteNumber":60,"Velocity":37,"Duration":296764,"SoundDuration":296764,"Delta":205639994},{"NoteNumber":77,"Velocity":73,"Duration":222363,"SoundDuration":222363,"Delta":205936759},{"NoteNumber":44,"Velocity":60,"Duration":222363,"SoundDuration":222363,"Delta":205936759},{"NoteNumber":53,"Velocity":29,"Duration":332613,"SoundDuration":332613,"Delta":206159123},{"NoteNumber":56,"Velocity":36,"Duration":310683,"SoundDuration":310683,"Delta":206181053},{"NoteNumber":59,"Velocity":44,"Duration":288754,"SoundDuration":288754,"Delta":206202983},{"NoteNumber":68,"Velocity":48,"Duration":266824,"SoundDuration":266824,"Delta":206224913},{"NoteNumber":74,"Velocity":56,"Duration":244894,"SoundDuration":244894,"Delta":206246843},{"NoteNumber":79,"Velocity":74,"Duration":222964,"SoundDuration":222964,"Delta":206268772},{"NoteNumber":53,"Velocity":33,"Duration":443303,"SoundDuration":443303,"Delta":206491737},{"NoteNumber":56,"Velocity":39,"Duration":421309,"SoundDuration":421309,"Delta":206513731},{"NoteNumber":59,"Velocity":45,"Duration":399315,"SoundDuration":399315,"Delta":206535725},{"NoteNumber":68,"Velocity":48,"Duration":377321,"SoundDuration":377321,"Delta":206557720},{"NoteNumber":74,"Velocity":55,"Duration":355327,"SoundDuration":355327,"Delta":206579714},{"NoteNumber":80,"Velocity":77,"Duration":333333,"SoundDuration":333333,"Delta":206601708},{"NoteNumber":75,"Velocity":81,"Duration":960531,"SoundDuration":960531,"Delta":206935041},{"NoteNumber":44,"Velocity":68,"Duration":324323,"SoundDuration":324323,"Delta":206935041},{"NoteNumber":63,"Velocity":38,"Duration":324324,"SoundDuration":324324,"Delta":207259365},{"NoteNumber":68,"Velocity":38,"Duration":324324,"SoundDuration":324324,"Delta":207259365},{"NoteNumber":72,"Velocity":44,"Duration":324324,"SoundDuration":324324,"Delta":207259365},{"NoteNumber":51,"Velocity":22,"Duration":324324,"SoundDuration":324324,"Delta":207259365},{"NoteNumber":56,"Velocity":22,"Duration":324324,"SoundDuration":324324,"Delta":207259365},{"NoteNumber":60,"Velocity":25,"Duration":324324,"SoundDuration":324324,"Delta":207259365},{"NoteNumber":63,"Velocity":38,"Duration":311882,"SoundDuration":311882,"Delta":207583689},{"NoteNumber":68,"Velocity":38,"Duration":311882,"SoundDuration":311882,"Delta":207583689},{"NoteNumber":72,"Velocity":43,"Duration":311882,"SoundDuration":311882,"Delta":207583689},{"NoteNumber":51,"Velocity":22,"Duration":311882,"SoundDuration":311882,"Delta":207583689},{"NoteNumber":56,"Velocity":22,"Duration":311882,"SoundDuration":311882,"Delta":207583689},{"NoteNumber":60,"Velocity":25,"Duration":311882,"SoundDuration":311882,"Delta":207583689},{"NoteNumber":45,"Velocity":37,"Duration":305655,"SoundDuration":305655,"Delta":207895572},{"NoteNumber":78,"Velocity":59,"Duration":144230,"SoundDuration":144230,"Delta":208201227},{"NoteNumber":53,"Velocity":31,"Duration":288462,"SoundDuration":288462,"Delta":208201227},{"NoteNumber":60,"Velocity":31,"Duration":288462,"SoundDuration":288462,"Delta":208201227},{"NoteNumber":63,"Velocity":36,"Duration":288462,"SoundDuration":288462,"Delta":208201227},{"NoteNumber":77,"Velocity":56,"Duration":144231,"SoundDuration":144231,"Delta":208345458},{"NoteNumber":75,"Velocity":59,"Duration":155407,"SoundDuration":155407,"Delta":208489689},{"NoteNumber":53,"Velocity":27,"Duration":310815,"SoundDuration":310815,"Delta":208489689},{"NoteNumber":63,"Velocity":30,"Duration":310815,"SoundDuration":310815,"Delta":208489689},{"NoteNumber":60,"Velocity":27,"Duration":310815,"SoundDuration":310815,"Delta":208489689},{"NoteNumber":78,"Velocity":56,"Duration":155407,"SoundDuration":155407,"Delta":208645097},{"NoteNumber":77,"Velocity":62,"Duration":456971,"SoundDuration":456971,"Delta":208800505},{"NoteNumber":46,"Velocity":37,"Duration":305655,"SoundDuration":305655,"Delta":208800505},{"NoteNumber":53,"Velocity":31,"Duration":302632,"SoundDuration":302632,"Delta":209106160},{"NoteNumber":58,"Velocity":31,"Duration":302632,"SoundDuration":302632,"Delta":209106160},{"NoteNumber":61,"Velocity":36,"Duration":302632,"SoundDuration":302632,"Delta":209106160},{"NoteNumber":73,"Velocity":59,"Duration":151316,"SoundDuration":151316,"Delta":209257476},{"NoteNumber":70,"Velocity":55,"Duration":155407,"SoundDuration":155407,"Delta":209408793},{"NoteNumber":53,"Velocity":27,"Duration":310815,"SoundDuration":310815,"Delta":209408793},{"NoteNumber":61,"Velocity":30,"Duration":310815,"SoundDuration":310815,"Delta":209408793},{"NoteNumber":58,"Velocity":27,"Duration":310815,"SoundDuration":310815,"Delta":209408793},{"NoteNumber":65,"Velocity":50,"Duration":155407,"SoundDuration":155407,"Delta":209564201},{"NoteNumber":47,"Velocity":42,"Duration":305655,"SoundDuration":305655,"Delta":209719609},{"NoteNumber":80,"Velocity":66,"Duration":149842,"SoundDuration":149842,"Delta":210025264},{"NoteNumber":65,"Velocity":37,"Duration":299685,"SoundDuration":299685,"Delta":210025264},{"NoteNumber":55,"Velocity":33,"Duration":299685,"SoundDuration":299685,"Delta":210025264},{"NoteNumber":62,"Velocity":33,"Duration":299685,"SoundDuration":299685,"Delta":210025264},{"NoteNumber":79,"Velocity":61,"Duration":149842,"SoundDuration":149842,"Delta":210175106},{"NoteNumber":77,"Velocity":64,"Duration":155407,"SoundDuration":155407,"Delta":210324949},{"NoteNumber":55,"Velocity":28,"Duration":310815,"SoundDuration":310815,"Delta":210324949},{"NoteNumber":65,"Velocity":31,"Duration":310815,"SoundDuration":310815,"Delta":210324949},{"NoteNumber":62,"Velocity":28,"Duration":310815,"SoundDuration":310815,"Delta":210324949},{"NoteNumber":80,"Velocity":60,"Duration":155407,"SoundDuration":155407,"Delta":210480357},{"NoteNumber":79,"Velocity":68,"Duration":456971,"SoundDuration":456971,"Delta":210635765},{"NoteNumber":48,"Velocity":38,"Duration":305655,"SoundDuration":305655,"Delta":210635765},{"NoteNumber":55,"Velocity":33,"Duration":302632,"SoundDuration":302632,"Delta":210941420},{"NoteNumber":60,"Velocity":33,"Duration":302632,"SoundDuration":302632,"Delta":210941420},{"NoteNumber":64,"Velocity":37,"Duration":302632,"SoundDuration":302632,"Delta":210941420},{"NoteNumber":76,"Velocity":61,"Duration":151316,"SoundDuration":151316,"Delta":211092736},{"NoteNumber":72,"Velocity":59,"Duration":155407,"SoundDuration":155407,"Delta":211244053},{"NoteNumber":55,"Velocity":28,"Duration":310815,"SoundDuration":310815,"Delta":211244053},{"NoteNumber":64,"Velocity":31,"Duration":310815,"SoundDuration":310815,"Delta":211244053},{"NoteNumber":60,"Velocity":28,"Duration":310815,"SoundDuration":310815,"Delta":211244053},{"NoteNumber":67,"Velocity":55,"Duration":155407,"SoundDuration":155407,"Delta":211399461},{"NoteNumber":49,"Velocity":45,"Duration":305655,"SoundDuration":305655,"Delta":211554869},{"NoteNumber":82,"Velocity":70,"Duration":149842,"SoundDuration":149842,"Delta":211860524},{"NoteNumber":65,"Velocity":39,"Duration":299685,"SoundDuration":299685,"Delta":211860524},{"NoteNumber":58,"Velocity":35,"Duration":299685,"SoundDuration":299685,"Delta":211860524},{"NoteNumber":61,"Velocity":35,"Duration":299685,"SoundDuration":299685,"Delta":211860524},{"NoteNumber":80,"Velocity":64,"Duration":149842,"SoundDuration":149842,"Delta":212010366},{"NoteNumber":79,"Velocity":69,"Duration":155407,"SoundDuration":155407,"Delta":212160209},{"NoteNumber":58,"Velocity":29,"Duration":310815,"SoundDuration":310815,"Delta":212160209},{"NoteNumber":65,"Velocity":34,"Duration":310815,"SoundDuration":310815,"Delta":212160209},{"NoteNumber":61,"Velocity":29,"Duration":310815,"SoundDuration":310815,"Delta":212160209},{"NoteNumber":82,"Velocity":63,"Duration":155407,"SoundDuration":155407,"Delta":212315617},{"NoteNumber":80,"Velocity":72,"Duration":456971,"SoundDuration":456971,"Delta":212471025},{"NoteNumber":50,"Velocity":40,"Duration":305655,"SoundDuration":305655,"Delta":212471025},{"NoteNumber":56,"Velocity":35,"Duration":302632,"SoundDuration":302632,"Delta":212776680},{"NoteNumber":59,"Velocity":35,"Duration":302632,"SoundDuration":302632,"Delta":212776680},{"NoteNumber":65,"Velocity":39,"Duration":302632,"SoundDuration":302632,"Delta":212776680},{"NoteNumber":77,"Velocity":64,"Duration":151316,"SoundDuration":151316,"Delta":212927996},{"NoteNumber":71,"Velocity":62,"Duration":155407,"SoundDuration":155407,"Delta":213079313},{"NoteNumber":56,"Velocity":29,"Duration":310815,"SoundDuration":310815,"Delta":213079313},{"NoteNumber":65,"Velocity":34,"Duration":310815,"SoundDuration":310815,"Delta":213079313},{"NoteNumber":59,"Velocity":29,"Duration":310815,"SoundDuration":310815,"Delta":213079313},{"NoteNumber":68,"Velocity":58,"Duration":155407,"SoundDuration":155407,"Delta":213234721},{"NoteNumber":77,"Velocity":64,"Duration":456971,"SoundDuration":456971,"Delta":213390129},{"NoteNumber":51,"Velocity":36,"Duration":305655,"SoundDuration":305655,"Delta":213390129},{"NoteNumber":55,"Velocity":30,"Duration":302632,"SoundDuration":302632,"Delta":213695784},{"NoteNumber":61,"Velocity":30,"Duration":302632,"SoundDuration":302632,"Delta":213695784},{"NoteNumber":63,"Velocity":35,"Duration":302632,"SoundDuration":302632,"Delta":213695784},{"NoteNumber":73,"Velocity":58,"Duration":151316,"SoundDuration":151316,"Delta":213847100},{"NoteNumber":70,"Velocity":56,"Duration":156339,"SoundDuration":156339,"Delta":213998417},{"NoteNumber":55,"Velocity":26,"Duration":312679,"SoundDuration":312679,"Delta":213998417},{"NoteNumber":63,"Velocity":29,"Duration":312679,"SoundDuration":312679,"Delta":213998417},{"NoteNumber":61,"Velocity":26,"Duration":312679,"SoundDuration":312679,"Delta":213998417},{"NoteNumber":67,"Velocity":51,"Duration":156339,"SoundDuration":156339,"Delta":214154756},{"NoteNumber":70,"Velocity":58,"Duration":460042,"SoundDuration":460042,"Delta":214311096},{"NoteNumber":44,"Velocity":31,"Duration":308151,"SoundDuration":308151,"Delta":214311096},{"NoteNumber":51,"Velocity":27,"Duration":303782,"SoundDuration":303782,"Delta":214619247},{"NoteNumber":56,"Velocity":27,"Duration":303782,"SoundDuration":303782,"Delta":214619247},{"NoteNumber":60,"Velocity":30,"Duration":303782,"SoundDuration":303782,"Delta":214619247},{"NoteNumber":68,"Velocity":51,"Duration":151891,"SoundDuration":151891,"Delta":214771138},{"NoteNumber":63,"Velocity":49,"Duration":159016,"SoundDuration":159016,"Delta":214923029},{"NoteNumber":51,"Velocity":23,"Duration":318031,"SoundDuration":318031,"Delta":214923029},{"NoteNumber":60,"Velocity":26,"Duration":318031,"SoundDuration":318031,"Delta":214923029},{"NoteNumber":56,"Velocity":23,"Duration":318031,"SoundDuration":318031,"Delta":214923029},{"NoteNumber":60,"Velocity":46,"Duration":159015,"SoundDuration":159015,"Delta":215082045},{"NoteNumber":44,"Velocity":37,"Duration":880283,"SoundDuration":880283,"Delta":215241061},{"NoteNumber":59,"Velocity":39,"Duration":289854,"SoundDuration":289854,"Delta":215538091},{"NoteNumber":62,"Velocity":39,"Duration":289854,"SoundDuration":289854,"Delta":215538091},{"NoteNumber":65,"Velocity":59,"Duration":583253,"SoundDuration":583253,"Delta":215538091},{"NoteNumber":50,"Velocity":31,"Duration":289854,"SoundDuration":289854,"Delta":215538091},{"NoteNumber":53,"Velocity":31,"Duration":289854,"SoundDuration":289854,"Delta":215538091},{"NoteNumber":56,"Velocity":36,"Duration":289854,"SoundDuration":289854,"Delta":215538091},{"NoteNumber":59,"Velocity":39,"Duration":293398,"SoundDuration":293398,"Delta":215827946},{"NoteNumber":62,"Velocity":39,"Duration":293398,"SoundDuration":293398,"Delta":215827946},{"NoteNumber":50,"Velocity":27,"Duration":293398,"SoundDuration":293398,"Delta":215827946},{"NoteNumber":56,"Velocity":30,"Duration":293398,"SoundDuration":293398,"Delta":215827946},{"NoteNumber":53,"Velocity":27,"Duration":293398,"SoundDuration":293398,"Delta":215827946},{"NoteNumber":67,"Velocity":61,"Duration":580398,"SoundDuration":580398,"Delta":216121345},{"NoteNumber":44,"Velocity":44,"Duration":865325,"SoundDuration":865325,"Delta":216121345},{"NoteNumber":59,"Velocity":39,"Duration":290543,"SoundDuration":290543,"Delta":216411200},{"NoteNumber":62,"Velocity":39,"Duration":290543,"SoundDuration":290543,"Delta":216411200},{"NoteNumber":50,"Velocity":22,"Duration":290543,"SoundDuration":290543,"Delta":216411200},{"NoteNumber":53,"Velocity":22,"Duration":290543,"SoundDuration":290543,"Delta":216411200},{"NoteNumber":56,"Velocity":25,"Duration":290543,"SoundDuration":290543,"Delta":216411200},{"NoteNumber":59,"Velocity":39,"Duration":284927,"SoundDuration":284927,"Delta":216701743},{"NoteNumber":62,"Velocity":39,"Duration":284927,"SoundDuration":284927,"Delta":216701743},{"NoteNumber":68,"Velocity":59,"Duration":284927,"SoundDuration":284927,"Delta":216701743},{"NoteNumber":50,"Velocity":29,"Duration":284927,"SoundDuration":284927,"Delta":216701743},{"NoteNumber":53,"Velocity":29,"Duration":284927,"SoundDuration":284927,"Delta":216701743},{"NoteNumber":56,"Velocity":33,"Duration":284927,"SoundDuration":284927,"Delta":216701743},{"NoteNumber":60,"Velocity":42,"Duration":283739,"SoundDuration":283739,"Delta":216986670},{"NoteNumber":63,"Velocity":42,"Duration":283739,"SoundDuration":283739,"Delta":216986670},{"NoteNumber":67,"Velocity":48,"Duration":283739,"SoundDuration":283739,"Delta":216986670},{"NoteNumber":39,"Velocity":53,"Duration":283739,"SoundDuration":283739,"Delta":216986670},{"NoteNumber":51,"Velocity":53,"Duration":283739,"SoundDuration":283739,"Delta":216986670},{"NoteNumber":41,"Velocity":58,"Duration":560131,"SoundDuration":560131,"Delta":217270409},{"NoteNumber":53,"Velocity":58,"Duration":560131,"SoundDuration":560131,"Delta":217270409},{"NoteNumber":60,"Velocity":47,"Duration":282353,"SoundDuration":282353,"Delta":217548187},{"NoteNumber":63,"Velocity":47,"Duration":282353,"SoundDuration":282353,"Delta":217548187},{"NoteNumber":67,"Velocity":52,"Duration":282353,"SoundDuration":282353,"Delta":217548187},{"NoteNumber":43,"Velocity":62,"Duration":557786,"SoundDuration":557786,"Delta":217830540},{"NoteNumber":55,"Velocity":62,"Duration":557786,"SoundDuration":557786,"Delta":217830540},{"NoteNumber":63,"Velocity":51,"Duration":281288,"SoundDuration":281288,"Delta":218107038},{"NoteNumber":60,"Velocity":46,"Duration":281288,"SoundDuration":281288,"Delta":218107038},{"NoteNumber":44,"Velocity":57,"Duration":282153,"SoundDuration":282153,"Delta":218388326},{"NoteNumber":56,"Velocity":57,"Duration":282153,"SoundDuration":282153,"Delta":218388326},{"NoteNumber":50,"Velocity":63,"Duration":827235,"SoundDuration":827235,"Delta":218670479},{"NoteNumber":59,"Velocity":42,"Duration":270880,"SoundDuration":270880,"Delta":218948992},{"NoteNumber":64,"Velocity":42,"Duration":270880,"SoundDuration":270880,"Delta":218948992},{"NoteNumber":68,"Velocity":64,"Duration":548721,"SoundDuration":548721,"Delta":218948992},{"NoteNumber":52,"Velocity":37,"Duration":270880,"SoundDuration":270880,"Delta":218948992},{"NoteNumber":56,"Velocity":42,"Duration":270880,"SoundDuration":270880,"Delta":218948992},{"NoteNumber":59,"Velocity":42,"Duration":277841,"SoundDuration":277841,"Delta":219219872},{"NoteNumber":64,"Velocity":42,"Duration":277841,"SoundDuration":277841,"Delta":219219872},{"NoteNumber":56,"Velocity":36,"Duration":277841,"SoundDuration":277841,"Delta":219219872},{"NoteNumber":52,"Velocity":31,"Duration":277841,"SoundDuration":277841,"Delta":219219872},{"NoteNumber":70,"Velocity":67,"Duration":549141,"SoundDuration":549141,"Delta":219497714},{"NoteNumber":50,"Velocity":48,"Duration":821769,"SoundDuration":821769,"Delta":219497714},{"NoteNumber":59,"Velocity":42,"Duration":277174,"SoundDuration":277174,"Delta":219769681},{"NoteNumber":64,"Velocity":42,"Duration":277174,"SoundDuration":277174,"Delta":219769681},{"NoteNumber":52,"Velocity":24,"Duration":277174,"SoundDuration":277174,"Delta":219769681},{"NoteNumber":56,"Velocity":27,"Duration":277174,"SoundDuration":277174,"Delta":219769681},{"NoteNumber":59,"Velocity":42,"Duration":272627,"SoundDuration":272627,"Delta":220046856},{"NoteNumber":64,"Velocity":42,"Duration":272627,"SoundDuration":272627,"Delta":220046856},{"NoteNumber":71,"Velocity":64,"Duration":272627,"SoundDuration":272627,"Delta":220046856},{"NoteNumber":52,"Velocity":31,"Duration":272627,"SoundDuration":272627,"Delta":220046856},{"NoteNumber":56,"Velocity":36,"Duration":272627,"SoundDuration":272627,"Delta":220046856},{"NoteNumber":60,"Velocity":46,"Duration":274537,"SoundDuration":274537,"Delta":220319484},{"NoteNumber":63,"Velocity":46,"Duration":274537,"SoundDuration":274537,"Delta":220319484},{"NoteNumber":72,"Velocity":52,"Duration":274537,"SoundDuration":274537,"Delta":220319484},{"NoteNumber":39,"Velocity":58,"Duration":274537,"SoundDuration":274537,"Delta":220319484},{"NoteNumber":51,"Velocity":58,"Duration":274537,"SoundDuration":274537,"Delta":220319484},{"NoteNumber":41,"Velocity":63,"Duration":544807,"SoundDuration":544807,"Delta":220594021},{"NoteNumber":53,"Velocity":63,"Duration":544807,"SoundDuration":544807,"Delta":220594021},{"NoteNumber":60,"Velocity":52,"Duration":274537,"SoundDuration":274537,"Delta":220864291},{"NoteNumber":63,"Velocity":52,"Duration":274537,"SoundDuration":274537,"Delta":220864291},{"NoteNumber":72,"Velocity":58,"Duration":274537,"SoundDuration":274537,"Delta":220864291},{"NoteNumber":43,"Velocity":69,"Duration":546728,"SoundDuration":546728,"Delta":221138828},{"NoteNumber":55,"Velocity":69,"Duration":546728,"SoundDuration":546728,"Delta":221138828},{"NoteNumber":63,"Velocity":52,"Duration":275848,"SoundDuration":275848,"Delta":221409708},{"NoteNumber":72,"Velocity":57,"Duration":275848,"SoundDuration":275848,"Delta":221409708},{"NoteNumber":60,"Velocity":51,"Duration":275848,"SoundDuration":275848,"Delta":221409708},{"NoteNumber":44,"Velocity":63,"Duration":270270,"SoundDuration":270270,"Delta":221685557},{"NoteNumber":56,"Velocity":63,"Duration":270270,"SoundDuration":270270,"Delta":221685557},{"NoteNumber":56,"Velocity":63,"Duration":816032,"SoundDuration":816032,"Delta":221955827},{"NoteNumber":71,"Velocity":48,"Duration":269058,"SoundDuration":269058,"Delta":222228666},{"NoteNumber":74,"Velocity":48,"Duration":269058,"SoundDuration":269058,"Delta":222228666},{"NoteNumber":77,"Velocity":72,"Duration":543193,"SoundDuration":543193,"Delta":222228666},{"NoteNumber":62,"Velocity":41,"Duration":269058,"SoundDuration":269058,"Delta":222228666},{"NoteNumber":65,"Velocity":41,"Duration":269058,"SoundDuration":269058,"Delta":222228666},{"NoteNumber":68,"Velocity":47,"Duration":269058,"SoundDuration":269058,"Delta":222228666},{"NoteNumber":71,"Velocity":48,"Duration":274135,"SoundDuration":274135,"Delta":222497724},{"NoteNumber":74,"Velocity":48,"Duration":274135,"SoundDuration":274135,"Delta":222497724},{"NoteNumber":62,"Velocity":36,"Duration":274135,"SoundDuration":274135,"Delta":222497724},{"NoteNumber":68,"Velocity":40,"Duration":274135,"SoundDuration":274135,"Delta":222497724},{"NoteNumber":65,"Velocity":36,"Duration":274135,"SoundDuration":274135,"Delta":222497724},{"NoteNumber":79,"Velocity":76,"Duration":545058,"SoundDuration":545058,"Delta":222771859},{"NoteNumber":56,"Velocity":55,"Duration":817266,"SoundDuration":817266,"Delta":222771859},{"NoteNumber":71,"Velocity":48,"Duration":274788,"SoundDuration":274788,"Delta":223042129},{"NoteNumber":74,"Velocity":48,"Duration":274788,"SoundDuration":274788,"Delta":223042129},{"NoteNumber":62,"Velocity":27,"Duration":274788,"SoundDuration":274788,"Delta":223042129},{"NoteNumber":65,"Velocity":27,"Duration":274788,"SoundDuration":274788,"Delta":223042129},{"NoteNumber":68,"Velocity":30,"Duration":274788,"SoundDuration":274788,"Delta":223042129},{"NoteNumber":71,"Velocity":48,"Duration":272208,"SoundDuration":272208,"Delta":223316917},{"NoteNumber":74,"Velocity":48,"Duration":272208,"SoundDuration":272208,"Delta":223316917},{"NoteNumber":80,"Velocity":73,"Duration":272208,"SoundDuration":272208,"Delta":223316917},{"NoteNumber":62,"Velocity":36,"Duration":272208,"SoundDuration":272208,"Delta":223316917},{"NoteNumber":65,"Velocity":36,"Duration":272208,"SoundDuration":272208,"Delta":223316917},{"NoteNumber":68,"Velocity":40,"Duration":272208,"SoundDuration":272208,"Delta":223316917},{"NoteNumber":72,"Velocity":53,"Duration":272208,"SoundDuration":272208,"Delta":223589125},{"NoteNumber":75,"Velocity":53,"Duration":272208,"SoundDuration":272208,"Delta":223589125},{"NoteNumber":79,"Velocity":60,"Duration":272208,"SoundDuration":272208,"Delta":223589125},{"NoteNumber":51,"Velocity":68,"Duration":272208,"SoundDuration":272208,"Delta":223589125},{"NoteNumber":63,"Velocity":68,"Duration":272208,"SoundDuration":272208,"Delta":223589125},{"NoteNumber":53,"Velocity":73,"Duration":537010,"SoundDuration":537010,"Delta":223861333},{"NoteNumber":65,"Velocity":73,"Duration":537010,"SoundDuration":537010,"Delta":223861333},{"NoteNumber":72,"Velocity":59,"Duration":270342,"SoundDuration":270342,"Delta":224128000},{"NoteNumber":75,"Velocity":59,"Duration":270342,"SoundDuration":270342,"Delta":224128000},{"NoteNumber":79,"Velocity":66,"Duration":270342,"SoundDuration":270342,"Delta":224128000},{"NoteNumber":55,"Velocity":79,"Duration":541395,"SoundDuration":541395,"Delta":224398343},{"NoteNumber":67,"Velocity":79,"Duration":541395,"SoundDuration":541395,"Delta":224398343},{"NoteNumber":75,"Velocity":65,"Duration":274135,"SoundDuration":274135,"Delta":224665604},{"NoteNumber":72,"Velocity":59,"Duration":274135,"SoundDuration":274135,"Delta":224665604},{"NoteNumber":56,"Velocity":74,"Duration":274135,"SoundDuration":274135,"Delta":224939739},{"NoteNumber":68,"Velocity":74,"Duration":274135,"SoundDuration":274135,"Delta":224939739},{"NoteNumber":62,"Velocity":71,"Duration":804982,"SoundDuration":804982,"Delta":225213874},{"NoteNumber":71,"Velocity":54,"Duration":265487,"SoundDuration":265487,"Delta":225483937},{"NoteNumber":76,"Velocity":54,"Duration":265487,"SoundDuration":265487,"Delta":225483937},{"NoteNumber":80,"Velocity":83,"Duration":534919,"SoundDuration":534919,"Delta":225483937},{"NoteNumber":64,"Velocity":43,"Duration":265487,"SoundDuration":265487,"Delta":225483937},{"NoteNumber":68,"Velocity":50,"Duration":265487,"SoundDuration":265487,"Delta":225483937},{"NoteNumber":71,"Velocity":54,"Duration":269432,"SoundDuration":269432,"Delta":225749424},{"NoteNumber":76,"Velocity":54,"Duration":269432,"SoundDuration":269432,"Delta":225749424},{"NoteNumber":68,"Velocity":42,"Duration":269432,"SoundDuration":269432,"Delta":225749424},{"NoteNumber":64,"Velocity":38,"Duration":269432,"SoundDuration":269432,"Delta":225749424},{"NoteNumber":82,"Velocity":87,"Duration":537340,"SoundDuration":537340,"Delta":226018857},{"NoteNumber":62,"Velocity":61,"Duration":805738,"SoundDuration":805738,"Delta":226018857},{"NoteNumber":71,"Velocity":55,"Duration":270672,"SoundDuration":270672,"Delta":226285524},{"NoteNumber":76,"Velocity":55,"Duration":270672,"SoundDuration":270672,"Delta":226285524},{"NoteNumber":64,"Velocity":30,"Duration":270672,"SoundDuration":270672,"Delta":226285524},{"NoteNumber":68,"Velocity":36,"Duration":270672,"SoundDuration":270672,"Delta":226285524},{"NoteNumber":71,"Velocity":56,"Duration":268398,"SoundDuration":268398,"Delta":226556197},{"NoteNumber":76,"Velocity":56,"Duration":268398,"SoundDuration":268398,"Delta":226556197},{"NoteNumber":83,"Velocity":86,"Duration":268398,"SoundDuration":268398,"Delta":226556197},{"NoteNumber":64,"Velocity":40,"Duration":268398,"SoundDuration":268398,"Delta":226556197},{"NoteNumber":68,"Velocity":46,"Duration":268398,"SoundDuration":268398,"Delta":226556197},{"NoteNumber":72,"Velocity":61,"Duration":273847,"SoundDuration":273847,"Delta":226824596},{"NoteNumber":75,"Velocity":61,"Duration":273847,"SoundDuration":273847,"Delta":226824596},{"NoteNumber":84,"Velocity":68,"Duration":273847,"SoundDuration":273847,"Delta":226824596},{"NoteNumber":51,"Velocity":76,"Duration":273847,"SoundDuration":273847,"Delta":226824596},{"NoteNumber":63,"Velocity":76,"Duration":273847,"SoundDuration":273847,"Delta":226824596},{"NoteNumber":53,"Velocity":84,"Duration":532015,"SoundDuration":532015,"Delta":227098444},{"NoteNumber":65,"Velocity":84,"Duration":532015,"SoundDuration":532015,"Delta":227098444},{"NoteNumber":72,"Velocity":67,"Duration":269432,"SoundDuration":269432,"Delta":227361026},{"NoteNumber":75,"Velocity":67,"Duration":269432,"SoundDuration":269432,"Delta":227361026},{"NoteNumber":84,"Velocity":75,"Duration":269432,"SoundDuration":269432,"Delta":227361026},{"NoteNumber":55,"Velocity":91,"Duration":535136,"SoundDuration":535136,"Delta":227630459},{"NoteNumber":67,"Velocity":91,"Duration":535136,"SoundDuration":535136,"Delta":227630459},{"NoteNumber":75,"Velocity":68,"Duration":272554,"SoundDuration":272554,"Delta":227893041},{"NoteNumber":84,"Velocity":75,"Duration":272554,"SoundDuration":272554,"Delta":227893041},{"NoteNumber":72,"Velocity":67,"Duration":272554,"SoundDuration":272554,"Delta":227893041},{"NoteNumber":56,"Velocity":84,"Duration":270635,"SoundDuration":270635,"Delta":228165595},{"NoteNumber":68,"Velocity":84,"Duration":270635,"SoundDuration":270635,"Delta":228165595},{"NoteNumber":56,"Velocity":89,"Duration":289327,"SoundDuration":289327,"Delta":228436231},{"NoteNumber":88,"Velocity":87,"Duration":564706,"SoundDuration":564706,"Delta":228725558},{"NoteNumber":83,"Velocity":76,"Duration":564706,"SoundDuration":564706,"Delta":228725558},{"NoteNumber":80,"Velocity":76,"Duration":564706,"SoundDuration":564706,"Delta":228725558},{"NoteNumber":76,"Velocity":76,"Duration":564706,"SoundDuration":564706,"Delta":228725558},{"NoteNumber":62,"Velocity":64,"Duration":564706,"SoundDuration":564706,"Delta":228725558},{"NoteNumber":64,"Velocity":64,"Duration":564706,"SoundDuration":564706,"Delta":228725558},{"NoteNumber":68,"Velocity":64,"Duration":564706,"SoundDuration":564706,"Delta":228725558},{"NoteNumber":71,"Velocity":72,"Duration":564706,"SoundDuration":564706,"Delta":228725558},{"NoteNumber":87,"Velocity":82,"Duration":68181,"SoundDuration":68181,"Delta":229290264},{"NoteNumber":63,"Velocity":73,"Duration":272727,"SoundDuration":272727,"Delta":229290264},{"NoteNumber":68,"Velocity":73,"Duration":272727,"SoundDuration":272727,"Delta":229290264},{"NoteNumber":72,"Velocity":73,"Duration":272727,"SoundDuration":272727,"Delta":229290264},{"NoteNumber":84,"Velocity":76,"Duration":68181,"SoundDuration":68181,"Delta":229426628},{"NoteNumber":80,"Velocity":79,"Duration":68649,"SoundDuration":68649,"Delta":229562991},{"NoteNumber":75,"Velocity":77,"Duration":68649,"SoundDuration":68649,"Delta":229700291},{"NoteNumber":72,"Velocity":80,"Duration":69929,"SoundDuration":69929,"Delta":229837591},{"NoteNumber":44,"Velocity":80,"Duration":289156,"SoundDuration":289156,"Delta":230117311},{"NoteNumber":76,"Velocity":77,"Duration":563408,"SoundDuration":563408,"Delta":230406468},{"NoteNumber":71,"Velocity":69,"Duration":563408,"SoundDuration":563408,"Delta":230406468},{"NoteNumber":68,"Velocity":69,"Duration":563408,"SoundDuration":563408,"Delta":230406468},{"NoteNumber":64,"Velocity":69,"Duration":563408,"SoundDuration":563408,"Delta":230406468},{"NoteNumber":50,"Velocity":57,"Duration":563408,"SoundDuration":563408,"Delta":230406468},{"NoteNumber":52,"Velocity":57,"Duration":563408,"SoundDuration":563408,"Delta":230406468},{"NoteNumber":56,"Velocity":57,"Duration":563408,"SoundDuration":563408,"Delta":230406468},{"NoteNumber":59,"Velocity":65,"Duration":563408,"SoundDuration":563408,"Delta":230406468},{"NoteNumber":75,"Velocity":78,"Duration":70921,"SoundDuration":70921,"Delta":230969876},{"NoteNumber":51,"Velocity":70,"Duration":283688,"SoundDuration":283688,"Delta":230969876},{"NoteNumber":56,"Velocity":70,"Duration":283688,"SoundDuration":283688,"Delta":230969876},{"NoteNumber":60,"Velocity":70,"Duration":283688,"SoundDuration":283688,"Delta":230969876},{"NoteNumber":72,"Velocity":72,"Duration":70921,"SoundDuration":70921,"Delta":231111720},{"NoteNumber":68,"Velocity":75,"Duration":70921,"SoundDuration":70921,"Delta":231253564},{"NoteNumber":63,"Velocity":72,"Duration":70921,"SoundDuration":70921,"Delta":231395408},{"NoteNumber":60,"Velocity":76,"Duration":72289,"SoundDuration":72289,"Delta":231537252},{"NoteNumber":75,"Velocity":74,"Duration":71258,"SoundDuration":71258,"Delta":231826409},{"NoteNumber":44,"Velocity":65,"Duration":285035,"SoundDuration":285035,"Delta":231826409},{"NoteNumber":72,"Velocity":67,"Duration":71258,"SoundDuration":71258,"Delta":231968927},{"NoteNumber":68,"Velocity":71,"Duration":72992,"SoundDuration":72992,"Delta":232111445},{"NoteNumber":51,"Velocity":51,"Duration":291970,"SoundDuration":291970,"Delta":232111445},{"NoteNumber":56,"Velocity":51,"Duration":291970,"SoundDuration":291970,"Delta":232111445},{"NoteNumber":60,"Velocity":51,"Duration":291970,"SoundDuration":291970,"Delta":232111445},{"NoteNumber":63,"Velocity":67,"Duration":72992,"SoundDuration":72992,"Delta":232257431},{"NoteNumber":60,"Velocity":71,"Duration":72992,"SoundDuration":72992,"Delta":232403416},{"NoteNumber":75,"Velocity":65,"Duration":72289,"SoundDuration":72289,"Delta":232695387},{"NoteNumber":44,"Velocity":58,"Duration":289156,"SoundDuration":289156,"Delta":232695387},{"NoteNumber":72,"Velocity":60,"Duration":72289,"SoundDuration":72289,"Delta":232839966},{"NoteNumber":68,"Velocity":62,"Duration":73710,"SoundDuration":73710,"Delta":232984544},{"NoteNumber":51,"Velocity":45,"Duration":294839,"SoundDuration":294839,"Delta":232984544},{"NoteNumber":56,"Velocity":45,"Duration":294839,"SoundDuration":294839,"Delta":232984544},{"NoteNumber":60,"Velocity":45,"Duration":294839,"SoundDuration":294839,"Delta":232984544},{"NoteNumber":63,"Velocity":59,"Duration":73709,"SoundDuration":73709,"Delta":233131964},{"NoteNumber":60,"Velocity":62,"Duration":73710,"SoundDuration":73710,"Delta":233279384},{"NoteNumber":75,"Velocity":61,"Duration":72463,"SoundDuration":72463,"Delta":233574224},{"NoteNumber":44,"Velocity":53,"Duration":289854,"SoundDuration":289854,"Delta":233574224},{"NoteNumber":72,"Velocity":56,"Duration":72463,"SoundDuration":72463,"Delta":233719152},{"NoteNumber":68,"Velocity":58,"Duration":73294,"SoundDuration":73294,"Delta":233864079},{"NoteNumber":51,"Velocity":41,"Duration":294424,"SoundDuration":294424,"Delta":233864079},{"NoteNumber":56,"Velocity":41,"Duration":294424,"SoundDuration":294424,"Delta":233864079},{"NoteNumber":60,"Velocity":41,"Duration":294424,"SoundDuration":294424,"Delta":233864079},{"NoteNumber":63,"Velocity":55,"Duration":73710,"SoundDuration":73710,"Delta":234011084},{"NoteNumber":60,"Velocity":58,"Duration":73709,"SoundDuration":73709,"Delta":234158504},{"NoteNumber":75,"Velocity":56,"Duration":73328,"SoundDuration":73328,"Delta":234453344},{"NoteNumber":44,"Velocity":49,"Duration":293311,"SoundDuration":293311,"Delta":234453344},{"NoteNumber":72,"Velocity":51,"Duration":73328,"SoundDuration":73328,"Delta":234600000},{"NoteNumber":68,"Velocity":53,"Duration":73710,"SoundDuration":73710,"Delta":234746656},{"NoteNumber":51,"Velocity":39,"Duration":294839,"SoundDuration":294839,"Delta":234746656},{"NoteNumber":56,"Velocity":39,"Duration":294839,"SoundDuration":294839,"Delta":234746656},{"NoteNumber":60,"Velocity":39,"Duration":294839,"SoundDuration":294839,"Delta":234746656},{"NoteNumber":63,"Velocity":51,"Duration":73709,"SoundDuration":73709,"Delta":234894076},{"NoteNumber":60,"Velocity":55,"Duration":73710,"SoundDuration":73710,"Delta":235041496},{"NoteNumber":44,"Velocity":49,"Duration":301129,"SoundDuration":301129,"Delta":235336336},{"NoteNumber":60,"Velocity":46,"Duration":150564,"SoundDuration":150564,"Delta":235486900},{"NoteNumber":63,"Velocity":48,"Duration":149307,"SoundDuration":149307,"Delta":235637465},{"NoteNumber":51,"Velocity":39,"Duration":903316,"SoundDuration":903316,"Delta":235637465},{"NoteNumber":56,"Velocity":39,"Duration":903316,"SoundDuration":903316,"Delta":235637465},{"NoteNumber":60,"Velocity":39,"Duration":903316,"SoundDuration":903316,"Delta":235637465},{"NoteNumber":68,"Velocity":49,"Duration":149694,"SoundDuration":149694,"Delta":235786773},{"NoteNumber":72,"Velocity":51,"Duration":150494,"SoundDuration":150494,"Delta":235936468},{"NoteNumber":75,"Velocity":52,"Duration":151295,"SoundDuration":151295,"Delta":236086962},{"NoteNumber":77,"Velocity":55,"Duration":151497,"SoundDuration":151497,"Delta":236238257},{"NoteNumber":75,"Velocity":52,"Duration":151025,"SoundDuration":151025,"Delta":236389755},{"NoteNumber":72,"Velocity":51,"Duration":150496,"SoundDuration":150496,"Delta":236540781},{"NoteNumber":56,"Velocity":35,"Duration":75282,"SoundDuration":75282,"Delta":236540781},{"NoteNumber":60,"Velocity":35,"Duration":75282,"SoundDuration":75282,"Delta":236540781},{"NoteNumber":63,"Velocity":35,"Duration":75282,"SoundDuration":75282,"Delta":236540781},{"NoteNumber":68,"Velocity":49,"Duration":150428,"SoundDuration":150428,"Delta":236691278},{"NoteNumber":72,"Velocity":51,"Duration":150630,"SoundDuration":150630,"Delta":236841706},{"NoteNumber":56,"Velocity":35,"Duration":75282,"SoundDuration":75282,"Delta":236841706},{"NoteNumber":60,"Velocity":35,"Duration":75282,"SoundDuration":75282,"Delta":236841706},{"NoteNumber":63,"Velocity":35,"Duration":75282,"SoundDuration":75282,"Delta":236841706},{"NoteNumber":75,"Velocity":55,"Duration":150958,"SoundDuration":150958,"Delta":236992337},{"NoteNumber":80,"Velocity":58,"Duration":75949,"SoundDuration":75949,"Delta":237143295},{"NoteNumber":56,"Velocity":37,"Duration":75949,"SoundDuration":75949,"Delta":237143295},{"NoteNumber":60,"Velocity":37,"Duration":75949,"SoundDuration":75949,"Delta":237143295},{"NoteNumber":63,"Velocity":37,"Duration":75949,"SoundDuration":75949,"Delta":237143295},{"NoteNumber":84,"Velocity":55,"Duration":77120,"SoundDuration":77120,"Delta":237447092},{"NoteNumber":80,"Velocity":55,"Duration":77120,"SoundDuration":77120,"Delta":237447092},{"NoteNumber":68,"Velocity":35,"Duration":77120,"SoundDuration":77120,"Delta":237447092},{"NoteNumber":72,"Velocity":35,"Duration":77120,"SoundDuration":77120,"Delta":237447092},{"NoteNumber":75,"Velocity":35,"Duration":77120,"SoundDuration":77120,"Delta":237447092},{"NoteNumber":87,"Velocity":55,"Duration":78533,"SoundDuration":78533,"Delta":237755575},{"NoteNumber":84,"Velocity":55,"Duration":78533,"SoundDuration":78533,"Delta":237755575},{"NoteNumber":80,"Velocity":55,"Duration":78533,"SoundDuration":78533,"Delta":237755575},{"NoteNumber":68,"Velocity":35,"Duration":78533,"SoundDuration":78533,"Delta":237755575},{"NoteNumber":72,"Velocity":35,"Duration":78533,"SoundDuration":78533,"Delta":237755575},{"NoteNumber":75,"Velocity":35,"Duration":78533,"SoundDuration":78533,"Delta":237755575},{"NoteNumber":92,"Velocity":57,"Duration":78534,"SoundDuration":78534,"Delta":238069711},{"NoteNumber":84,"Velocity":57,"Duration":78534,"SoundDuration":78534,"Delta":238069711},{"NoteNumber":80,"Velocity":57,"Duration":78534,"SoundDuration":78534,"Delta":238069711},{"NoteNumber":68,"Velocity":39,"Duration":78534,"SoundDuration":78534,"Delta":238069711},{"NoteNumber":72,"Velocity":39,"Duration":78534,"SoundDuration":78534,"Delta":238069711},{"NoteNumber":75,"Velocity":39,"Duration":78534,"SoundDuration":78534,"Delta":238069711}]}