{"title":"Erwachen im Walde","artist":"Piano","durationMs":77685,"midiSha256":"e52de0bd7e5c63e62e68abcf5843662065946227c7e5bcbc384eb0979f7f4230","midiObject":[{"NoteNumber":72,"Velocity":50,"Duration":94936,"SoundDuration":94936,"Delta":0},{"NoteNumber":84,"Velocity":41,"Duration":94936,"SoundDuration":94936,"Delta":189873},{"NoteNumber":72,"Velocity":47,"Duration":94936,"SoundDuration":94936,"Delta":379747},{"NoteNumber":84,"Velocity":40,"Duration":94936,"SoundDuration":94936,"Delta":569620},{"NoteNumber":72,"Velocity":49,"Duration":94936,"SoundDuration":94936,"Delta":759494},{"NoteNumber":69,"Velocity":26,"Duration":759696,"SoundDuration":759696,"Delta":759494},{"NoteNumber":65,"Velocity":20,"Duration":759696,"SoundDuration":759696,"Delta":759494},{"NoteNumber":60,"Velocity":20,"Duration":759696,"SoundDuration":759696,"Delta":759494},{"NoteNumber":84,"Velocity":40,"Duration":94936,"SoundDuration":94936,"Delta":949367},{"NoteNumber":72,"Velocity":56,"Duration":95187,"SoundDuration":95187,"Delta":1139241},{"NoteNumber":84,"Velocity":49,"Duration":94936,"SoundDuration":94936,"Delta":1329566},{"NoteNumber":72,"Velocity":61,"Duration":94488,"SoundDuration":94488,"Delta":1519190},{"NoteNumber":64,"Velocity":28,"Duration":757253,"SoundDuration":757253,"Delta":1519190},{"NoteNumber":67,"Velocity":36,"Duration":757253,"SoundDuration":757253,"Delta":1519190},{"NoteNumber":58,"Velocity":28,"Duration":757253,"SoundDuration":757253,"Delta":1519190},{"NoteNumber":60,"Velocity":28,"Duration":757253,"SoundDuration":757253,"Delta":1519190},{"NoteNumber":84,"Velocity":52,"Duration":94339,"SoundDuration":94339,"Delta":1708018},{"NoteNumber":72,"Velocity":63,"Duration":94936,"SoundDuration":94936,"Delta":1896697},{"NoteNumber":84,"Velocity":55,"Duration":94936,"SoundDuration":94936,"Delta":2086570},{"NoteNumber":72,"Velocity":68,"Duration":96774,"SoundDuration":96774,"Delta":2276444},{"NoteNumber":57,"Velocity":38,"Duration":779253,"SoundDuration":779253,"Delta":2276444},{"NoteNumber":60,"Velocity":38,"Duration":779253,"SoundDuration":779253,"Delta":2276444},{"NoteNumber":63,"Velocity":38,"Duration":779253,"SoundDuration":779253,"Delta":2276444},{"NoteNumber":66,"Velocity":48,"Duration":779253,"SoundDuration":779253,"Delta":2276444},{"NoteNumber":84,"Velocity":59,"Duration":96774,"SoundDuration":96774,"Delta":2469992},{"NoteNumber":72,"Velocity":63,"Duration":98039,"SoundDuration":98039,"Delta":2663541},{"NoteNumber":84,"Velocity":51,"Duration":98039,"SoundDuration":98039,"Delta":2859619},{"NoteNumber":72,"Velocity":58,"Duration":94637,"SoundDuration":94637,"Delta":3055698},{"NoteNumber":67,"Velocity":34,"Duration":189274,"SoundDuration":189274,"Delta":3055698},{"NoteNumber":64,"Velocity":27,"Duration":189274,"SoundDuration":189274,"Delta":3055698},{"NoteNumber":60,"Velocity":27,"Duration":189274,"SoundDuration":189274,"Delta":3055698},{"NoteNumber":58,"Velocity":27,"Duration":189274,"SoundDuration":189274,"Delta":3055698},{"NoteNumber":84,"Velocity":41,"Duration":94637,"SoundDuration":94637,"Delta":3244972},{"NoteNumber":72,"Velocity":47,"Duration":94637,"SoundDuration":94637,"Delta":3434247},{"NoteNumber":84,"Velocity":52,"Duration":100133,"SoundDuration":100133,"Delta":3623521},{"NoteNumber":48,"Velocity":43,"Duration":100133,"SoundDuration":100133,"Delta":3623521},{"NoteNumber":60,"Velocity":52,"Duration":100133,"SoundDuration":100133,"Delta":3623521},{"NoteNumber":72,"Velocity":64,"Duration":96899,"SoundDuration":96899,"Delta":3823788},{"NoteNumber":60,"Velocity":62,"Duration":387596,"SoundDuration":387596,"Delta":3823788},{"NoteNumber":48,"Velocity":52,"Duration":387596,"SoundDuration":387596,"Delta":3823788},{"NoteNumber":84,"Velocity":34,"Duration":96899,"SoundDuration":96899,"Delta":4017587},{"NoteNumber":72,"Velocity":46,"Duration":96899,"SoundDuration":96899,"Delta":4211385},{"NoteNumber":84,"Velocity":51,"Duration":100468,"SoundDuration":100468,"Delta":4405184},{"NoteNumber":48,"Velocity":42,"Duration":100468,"SoundDuration":100468,"Delta":4405184},{"NoteNumber":60,"Velocity":51,"Duration":100468,"SoundDuration":100468,"Delta":4405184},{"NoteNumber":72,"Velocity":63,"Duration":96899,"SoundDuration":96899,"Delta":4606121},{"NoteNumber":60,"Velocity":66,"Duration":387597,"SoundDuration":387597,"Delta":4606121},{"NoteNumber":48,"Velocity":56,"Duration":387597,"SoundDuration":387597,"Delta":4606121},{"NoteNumber":84,"Velocity":43,"Duration":96899,"SoundDuration":96899,"Delta":4799920},{"NoteNumber":72,"Velocity":55,"Duration":96899,"SoundDuration":96899,"Delta":4993718},{"NoteNumber":84,"Velocity":50,"Duration":100468,"SoundDuration":100468,"Delta":5187517},{"NoteNumber":60,"Velocity":53,"Duration":100468,"SoundDuration":100468,"Delta":5187517},{"NoteNumber":48,"Velocity":45,"Duration":100468,"SoundDuration":100468,"Delta":5187517},{"NoteNumber":72,"Velocity":63,"Duration":96899,"SoundDuration":96899,"Delta":5388454},{"NoteNumber":60,"Velocity":66,"Duration":387596,"SoundDuration":387596,"Delta":5388454},{"NoteNumber":48,"Velocity":56,"Duration":387596,"SoundDuration":387596,"Delta":5388454},{"NoteNumber":84,"Velocity":38,"Duration":96899,"SoundDuration":96899,"Delta":5582253},{"NoteNumber":72,"Velocity":47,"Duration":98489,"SoundDuration":98489,"Delta":5776051},{"NoteNumber":84,"Velocity":39,"Duration":104894,"SoundDuration":104894,"Delta":5973031},{"NoteNumber":72,"Velocity":37,"Duration":97402,"SoundDuration":97402,"Delta":6182821},{"NoteNumber":60,"Velocity":31,"Duration":97402,"SoundDuration":97402,"Delta":6182821},{"NoteNumber":57,"Velocity":24,"Duration":97402,"SoundDuration":97402,"Delta":6182821},{"NoteNumber":53,"Velocity":24,"Duration":97402,"SoundDuration":97402,"Delta":6182821},{"NoteNumber":84,"Velocity":35,"Duration":97402,"SoundDuration":97402,"Delta":6377626},{"NoteNumber":53,"Velocity":16,"Duration":97402,"SoundDuration":97402,"Delta":6377626},{"NoteNumber":57,"Velocity":16,"Duration":97402,"SoundDuration":97402,"Delta":6377626},{"NoteNumber":60,"Velocity":20,"Duration":97402,"SoundDuration":97402,"Delta":6377626},{"NoteNumber":77,"Velocity":39,"Duration":95846,"SoundDuration":95846,"Delta":6572431},{"NoteNumber":60,"Velocity":31,"Duration":95846,"SoundDuration":95846,"Delta":6572431},{"NoteNumber":57,"Velocity":24,"Duration":95846,"SoundDuration":95846,"Delta":6572431},{"NoteNumber":53,"Velocity":24,"Duration":95846,"SoundDuration":95846,"Delta":6572431},{"NoteNumber":89,"Velocity":38,"Duration":95846,"SoundDuration":95846,"Delta":6764124},{"NoteNumber":53,"Velocity":18,"Duration":95846,"SoundDuration":95846,"Delta":6764124},{"NoteNumber":57,"Velocity":18,"Duration":95846,"SoundDuration":95846,"Delta":6764124},{"NoteNumber":60,"Velocity":23,"Duration":95846,"SoundDuration":95846,"Delta":6764124},{"NoteNumber":81,"Velocity":41,"Duration":94339,"SoundDuration":94339,"Delta":6955818},{"NoteNumber":53,"Velocity":28,"Duration":94339,"SoundDuration":94339,"Delta":6955818},{"NoteNumber":57,"Velocity":28,"Duration":94339,"SoundDuration":94339,"Delta":6955818},{"NoteNumber":60,"Velocity":36,"Duration":94339,"SoundDuration":94339,"Delta":6955818},{"NoteNumber":93,"Velocity":40,"Duration":94339,"SoundDuration":94339,"Delta":7144497},{"NoteNumber":53,"Velocity":19,"Duration":94339,"SoundDuration":94339,"Delta":7144497},{"NoteNumber":57,"Velocity":19,"Duration":94339,"SoundDuration":94339,"Delta":7144497},{"NoteNumber":60,"Velocity":24,"Duration":94339,"SoundDuration":94339,"Delta":7144497},{"NoteNumber":79,"Velocity":46,"Duration":95238,"SoundDuration":95238,"Delta":7333176},{"NoteNumber":53,"Velocity":29,"Duration":95238,"SoundDuration":95238,"Delta":7333176},{"NoteNumber":57,"Velocity":29,"Duration":95238,"SoundDuration":95238,"Delta":7333176},{"NoteNumber":60,"Velocity":37,"Duration":95238,"SoundDuration":95238,"Delta":7333176},{"NoteNumber":91,"Velocity":42,"Duration":99009,"SoundDuration":99009,"Delta":7523652},{"NoteNumber":53,"Velocity":19,"Duration":99009,"SoundDuration":99009,"Delta":7523652},{"NoteNumber":57,"Velocity":19,"Duration":99009,"SoundDuration":99009,"Delta":7523652},{"NoteNumber":60,"Velocity":24,"Duration":99009,"SoundDuration":99009,"Delta":7523652},{"NoteNumber":77,"Velocity":49,"Duration":95541,"SoundDuration":95541,"Delta":7721672},{"NoteNumber":53,"Velocity":30,"Duration":95541,"SoundDuration":95541,"Delta":7721672},{"NoteNumber":57,"Velocity":30,"Duration":95541,"SoundDuration":95541,"Delta":7721672},{"NoteNumber":61,"Velocity":38,"Duration":95541,"SoundDuration":95541,"Delta":7721672},{"NoteNumber":89,"Velocity":43,"Duration":95541,"SoundDuration":95541,"Delta":7912755},{"NoteNumber":61,"Velocity":24,"Duration":95541,"SoundDuration":95541,"Delta":7912755},{"NoteNumber":57,"Velocity":19,"Duration":95541,"SoundDuration":95541,"Delta":7912755},{"NoteNumber":53,"Velocity":19,"Duration":95541,"SoundDuration":95541,"Delta":7912755},{"NoteNumber":76,"Velocity":49,"Duration":95541,"SoundDuration":95541,"Delta":8103838},{"NoteNumber":53,"Velocity":33,"Duration":95541,"SoundDuration":95541,"Delta":8103838},{"NoteNumber":57,"Velocity":33,"Duration":95541,"SoundDuration":95541,"Delta":8103838},{"NoteNumber":61,"Velocity":42,"Duration":95541,"SoundDuration":95541,"Delta":8103838},{"NoteNumber":88,"Velocity":46,"Duration":95541,"SoundDuration":95541,"Delta":8294921},{"NoteNumber":61,"Velocity":27,"Duration":95541,"SoundDuration":95541,"Delta":8294921},{"NoteNumber":57,"Velocity":21,"Duration":95541,"SoundDuration":95541,"Delta":8294921},{"NoteNumber":53,"Velocity":21,"Duration":95541,"SoundDuration":95541,"Delta":8294921},{"NoteNumber":79,"Velocity":58,"Duration":94637,"SoundDuration":94637,"Delta":8486004},{"NoteNumber":62,"Velocity":47,"Duration":94637,"SoundDuration":94637,"Delta":8486004},{"NoteNumber":57,"Velocity":37,"Duration":94637,"SoundDuration":94637,"Delta":8486004},{"NoteNumber":53,"Velocity":37,"Duration":94637,"SoundDuration":94637,"Delta":8486004},{"NoteNumber":91,"Velocity":41,"Duration":94637,"SoundDuration":94637,"Delta":8675278},{"NoteNumber":53,"Velocity":21,"Duration":94637,"SoundDuration":94637,"Delta":8675278},{"NoteNumber":57,"Velocity":21,"Duration":94637,"SoundDuration":94637,"Delta":8675278},{"NoteNumber":62,"Velocity":27,"Duration":94637,"SoundDuration":94637,"Delta":8675278},{"NoteNumber":77,"Velocity":51,"Duration":95846,"SoundDuration":95846,"Delta":8864553},{"NoteNumber":53,"Velocity":29,"Duration":95846,"SoundDuration":95846,"Delta":8864553},{"NoteNumber":57,"Velocity":29,"Duration":95846,"SoundDuration":95846,"Delta":8864553},{"NoteNumber":62,"Velocity":37,"Duration":95846,"SoundDuration":95846,"Delta":8864553},{"NoteNumber":89,"Velocity":42,"Duration":99337,"SoundDuration":99337,"Delta":9056246},{"NoteNumber":53,"Velocity":19,"Duration":99337,"SoundDuration":99337,"Delta":9056246},{"NoteNumber":57,"Velocity":19,"Duration":99337,"SoundDuration":99337,"Delta":9056246},{"NoteNumber":62,"Velocity":24,"Duration":99337,"SoundDuration":99337,"Delta":9056246},{"NoteNumber":76,"Velocity":50,"Duration":96774,"SoundDuration":96774,"Delta":9254922},{"NoteNumber":55,"Velocity":33,"Duration":96774,"SoundDuration":96774,"Delta":9254922},{"NoteNumber":58,"Velocity":33,"Duration":96774,"SoundDuration":96774,"Delta":9254922},{"NoteNumber":62,"Velocity":42,"Duration":96774,"SoundDuration":96774,"Delta":9254922},{"NoteNumber":53,"Velocity":33,"Duration":96774,"SoundDuration":96774,"Delta":9254922},{"NoteNumber":88,"Velocity":39,"Duration":96774,"SoundDuration":96774,"Delta":9448470},{"NoteNumber":62,"Velocity":27,"Duration":96774,"SoundDuration":96774,"Delta":9448470},{"NoteNumber":58,"Velocity":21,"Duration":96774,"SoundDuration":96774,"Delta":9448470},{"NoteNumber":55,"Velocity":21,"Duration":96774,"SoundDuration":96774,"Delta":9448470},{"NoteNumber":53,"Velocity":21,"Duration":96774,"SoundDuration":96774,"Delta":9448470},{"NoteNumber":74,"Velocity":44,"Duration":95541,"SoundDuration":95541,"Delta":9642019},{"NoteNumber":55,"Velocity":24,"Duration":95541,"SoundDuration":95541,"Delta":9642019},{"NoteNumber":62,"Velocity":31,"Duration":95541,"SoundDuration":95541,"Delta":9642019},{"NoteNumber":58,"Velocity":24,"Duration":95541,"SoundDuration":95541,"Delta":9642019},{"NoteNumber":53,"Velocity":24,"Duration":95541,"SoundDuration":95541,"Delta":9642019},{"NoteNumber":86,"Velocity":40,"Duration":95541,"SoundDuration":95541,"Delta":9833102},{"NoteNumber":55,"Velocity":18,"Duration":95541,"SoundDuration":95541,"Delta":9833102},{"NoteNumber":53,"Velocity":18,"Duration":95541,"SoundDuration":95541,"Delta":9833102},{"NoteNumber":58,"Velocity":18,"Duration":95541,"SoundDuration":95541,"Delta":9833102},{"NoteNumber":62,"Velocity":23,"Duration":95541,"SoundDuration":95541,"Delta":9833102},{"NoteNumber":67,"Velocity":44,"Duration":96153,"SoundDuration":96153,"Delta":10024185},{"NoteNumber":55,"Velocity":28,"Duration":96153,"SoundDuration":96153,"Delta":10024185},{"NoteNumber":53,"Velocity":28,"Duration":96153,"SoundDuration":96153,"Delta":10024185},{"NoteNumber":58,"Velocity":28,"Duration":96153,"SoundDuration":96153,"Delta":10024185},{"NoteNumber":62,"Velocity":36,"Duration":96153,"SoundDuration":96153,"Delta":10024185},{"NoteNumber":79,"Velocity":43,"Duration":96153,"SoundDuration":96153,"Delta":10216492},{"NoteNumber":55,"Velocity":19,"Duration":96153,"SoundDuration":96153,"Delta":10216492},{"NoteNumber":53,"Velocity":19,"Duration":96153,"SoundDuration":96153,"Delta":10216492},{"NoteNumber":58,"Velocity":19,"Duration":96153,"SoundDuration":96153,"Delta":10216492},{"NoteNumber":62,"Velocity":24,"Duration":96153,"SoundDuration":96153,"Delta":10216492},{"NoteNumber":69,"Velocity":48,"Duration":96462,"SoundDuration":96462,"Delta":10408800},{"NoteNumber":55,"Velocity":29,"Duration":96462,"SoundDuration":96462,"Delta":10408800},{"NoteNumber":53,"Velocity":29,"Duration":96462,"SoundDuration":96462,"Delta":10408800},{"NoteNumber":58,"Velocity":29,"Duration":96462,"SoundDuration":96462,"Delta":10408800},{"NoteNumber":62,"Velocity":37,"Duration":96462,"SoundDuration":96462,"Delta":10408800},{"NoteNumber":81,"Velocity":45,"Duration":98039,"SoundDuration":98039,"Delta":10601726},{"NoteNumber":55,"Velocity":19,"Duration":98039,"SoundDuration":98039,"Delta":10601726},{"NoteNumber":53,"Velocity":19,"Duration":98039,"SoundDuration":98039,"Delta":10601726},{"NoteNumber":58,"Velocity":19,"Duration":98039,"SoundDuration":98039,"Delta":10601726},{"NoteNumber":62,"Velocity":24,"Duration":98039,"SoundDuration":98039,"Delta":10601726},{"NoteNumber":70,"Velocity":58,"Duration":96153,"SoundDuration":96153,"Delta":10797804},{"NoteNumber":52,"Velocity":30,"Duration":96153,"SoundDuration":96153,"Delta":10797804},{"NoteNumber":55,"Velocity":30,"Duration":96153,"SoundDuration":96153,"Delta":10797804},{"NoteNumber":60,"Velocity":38,"Duration":96153,"SoundDuration":96153,"Delta":10797804},{"NoteNumber":82,"Velocity":51,"Duration":96153,"SoundDuration":96153,"Delta":10990112},{"NoteNumber":60,"Velocity":24,"Duration":96153,"SoundDuration":96153,"Delta":10990112},{"NoteNumber":55,"Velocity":19,"Duration":96153,"SoundDuration":96153,"Delta":10990112},{"NoteNumber":52,"Velocity":19,"Duration":96153,"SoundDuration":96153,"Delta":10990112},{"NoteNumber":71,"Velocity":53,"Duration":96153,"SoundDuration":96153,"Delta":11182419},{"NoteNumber":52,"Velocity":33,"Duration":96153,"SoundDuration":96153,"Delta":11182419},{"NoteNumber":55,"Velocity":33,"Duration":96153,"SoundDuration":96153,"Delta":11182419},{"NoteNumber":60,"Velocity":42,"Duration":96153,"SoundDuration":96153,"Delta":11182419},{"NoteNumber":83,"Velocity":50,"Duration":98360,"SoundDuration":98360,"Delta":11374727},{"NoteNumber":60,"Velocity":27,"Duration":98360,"SoundDuration":98360,"Delta":11374727},{"NoteNumber":55,"Velocity":21,"Duration":98360,"SoundDuration":98360,"Delta":11374727},{"NoteNumber":52,"Velocity":21,"Duration":98360,"SoundDuration":98360,"Delta":11374727},{"NoteNumber":72,"Velocity":58,"Duration":97402,"SoundDuration":97402,"Delta":11571448},{"NoteNumber":60,"Velocity":47,"Duration":97402,"SoundDuration":97402,"Delta":11571448},{"NoteNumber":55,"Velocity":37,"Duration":97402,"SoundDuration":97402,"Delta":11571448},{"NoteNumber":52,"Velocity":37,"Duration":97402,"SoundDuration":97402,"Delta":11571448},{"NoteNumber":84,"Velocity":43,"Duration":97402,"SoundDuration":97402,"Delta":11766253},{"NoteNumber":52,"Velocity":21,"Duration":97402,"SoundDuration":97402,"Delta":11766253},{"NoteNumber":55,"Velocity":21,"Duration":97402,"SoundDuration":97402,"Delta":11766253},{"NoteNumber":60,"Velocity":27,"Duration":97402,"SoundDuration":97402,"Delta":11766253},{"NoteNumber":70,"Velocity":52,"Duration":99337,"SoundDuration":99337,"Delta":11961058},{"NoteNumber":52,"Velocity":29,"Duration":99337,"SoundDuration":99337,"Delta":11961058},{"NoteNumber":55,"Velocity":29,"Duration":99337,"SoundDuration":99337,"Delta":11961058},{"NoteNumber":60,"Velocity":37,"Duration":99337,"SoundDuration":99337,"Delta":11961058},{"NoteNumber":82,"Velocity":43,"Duration":104529,"SoundDuration":104529,"Delta":12159734},{"NoteNumber":52,"Velocity":19,"Duration":104529,"SoundDuration":104529,"Delta":12159734},{"NoteNumber":55,"Velocity":19,"Duration":104529,"SoundDuration":104529,"Delta":12159734},{"NoteNumber":60,"Velocity":24,"Duration":104529,"SoundDuration":104529,"Delta":12159734},{"NoteNumber":72,"Velocity":55,"Duration":98039,"SoundDuration":98039,"Delta":12368793},{"NoteNumber":53,"Velocity":29,"Duration":98039,"SoundDuration":98039,"Delta":12368793},{"NoteNumber":57,"Velocity":29,"Duration":98039,"SoundDuration":98039,"Delta":12368793},{"NoteNumber":60,"Velocity":37,"Duration":98039,"SoundDuration":98039,"Delta":12368793},{"NoteNumber":84,"Velocity":46,"Duration":98039,"SoundDuration":98039,"Delta":12564871},{"NoteNumber":60,"Velocity":24,"Duration":98039,"SoundDuration":98039,"Delta":12564871},{"NoteNumber":57,"Velocity":19,"Duration":98039,"SoundDuration":98039,"Delta":12564871},{"NoteNumber":53,"Velocity":19,"Duration":98039,"SoundDuration":98039,"Delta":12564871},{"NoteNumber":77,"Velocity":55,"Duration":96153,"SoundDuration":96153,"Delta":12760950},{"NoteNumber":53,"Velocity":32,"Duration":96153,"SoundDuration":96153,"Delta":12760950},{"NoteNumber":57,"Velocity":32,"Duration":96153,"SoundDuration":96153,"Delta":12760950},{"NoteNumber":60,"Velocity":40,"Duration":96153,"SoundDuration":96153,"Delta":12760950},{"NoteNumber":89,"Velocity":44,"Duration":98360,"SoundDuration":98360,"Delta":12953257},{"NoteNumber":60,"Velocity":28,"Duration":98360,"SoundDuration":98360,"Delta":12953257},{"NoteNumber":57,"Velocity":21,"Duration":98360,"SoundDuration":98360,"Delta":12953257},{"NoteNumber":53,"Velocity":21,"Duration":98360,"SoundDuration":98360,"Delta":12953257},{"NoteNumber":77,"Velocity":62,"Duration":95846,"SoundDuration":95846,"Delta":13149979},{"NoteNumber":67,"Velocity":47,"Duration":95846,"SoundDuration":95846,"Delta":13149979},{"NoteNumber":57,"Velocity":36,"Duration":95846,"SoundDuration":95846,"Delta":13149979},{"NoteNumber":61,"Velocity":36,"Duration":95846,"SoundDuration":95846,"Delta":13149979},{"NoteNumber":89,"Velocity":52,"Duration":95846,"SoundDuration":95846,"Delta":13341672},{"NoteNumber":67,"Velocity":31,"Duration":95846,"SoundDuration":95846,"Delta":13341672},{"NoteNumber":57,"Velocity":24,"Duration":95846,"SoundDuration":95846,"Delta":13341672},{"NoteNumber":61,"Velocity":24,"Duration":95846,"SoundDuration":95846,"Delta":13341672},{"NoteNumber":76,"Velocity":64,"Duration":95846,"SoundDuration":95846,"Delta":13533366},{"NoteNumber":67,"Velocity":44,"Duration":95846,"SoundDuration":95846,"Delta":13533366},{"NoteNumber":57,"Velocity":35,"Duration":95846,"SoundDuration":95846,"Delta":13533366},{"NoteNumber":61,"Velocity":35,"Duration":95846,"SoundDuration":95846,"Delta":13533366},{"NoteNumber":88,"Velocity":50,"Duration":99337,"SoundDuration":99337,"Delta":13725059},{"NoteNumber":67,"Velocity":30,"Duration":99337,"SoundDuration":99337,"Delta":13725059},{"NoteNumber":57,"Velocity":24,"Duration":99337,"SoundDuration":99337,"Delta":13725059},{"NoteNumber":61,"Velocity":24,"Duration":99337,"SoundDuration":99337,"Delta":13725059},{"NoteNumber":76,"Velocity":72,"Duration":96462,"SoundDuration":96462,"Delta":13923735},{"NoteNumber":67,"Velocity":50,"Duration":96462,"SoundDuration":96462,"Delta":13923735},{"NoteNumber":61,"Velocity":38,"Duration":96462,"SoundDuration":96462,"Delta":13923735},{"NoteNumber":58,"Velocity":38,"Duration":96462,"SoundDuration":96462,"Delta":13923735},{"NoteNumber":88,"Velocity":65,"Duration":96462,"SoundDuration":96462,"Delta":14116661},{"NoteNumber":67,"Velocity":33,"Duration":96462,"SoundDuration":96462,"Delta":14116661},{"NoteNumber":61,"Velocity":26,"Duration":96462,"SoundDuration":96462,"Delta":14116661},{"NoteNumber":58,"Velocity":26,"Duration":96462,"SoundDuration":96462,"Delta":14116661},{"NoteNumber":74,"Velocity":70,"Duration":96462,"SoundDuration":96462,"Delta":14309587},{"NoteNumber":65,"Velocity":49,"Duration":96462,"SoundDuration":96462,"Delta":14309587},{"NoteNumber":62,"Velocity":39,"Duration":96462,"SoundDuration":96462,"Delta":14309587},{"NoteNumber":58,"Velocity":39,"Duration":96462,"SoundDuration":96462,"Delta":14309587},{"NoteNumber":86,"Velocity":57,"Duration":97783,"SoundDuration":97783,"Delta":14502513},{"NoteNumber":58,"Velocity":22,"Duration":97783,"SoundDuration":97783,"Delta":14502513},{"NoteNumber":62,"Velocity":22,"Duration":97783,"SoundDuration":97783,"Delta":14502513},{"NoteNumber":65,"Velocity":28,"Duration":97783,"SoundDuration":97783,"Delta":14502513},{"NoteNumber":72,"Velocity":63,"Duration":96153,"SoundDuration":96153,"Delta":14698080},{"NoteNumber":69,"Velocity":47,"Duration":96153,"SoundDuration":96153,"Delta":14698080},{"NoteNumber":62,"Velocity":36,"Duration":96153,"SoundDuration":96153,"Delta":14698080},{"NoteNumber":58,"Velocity":36,"Duration":96153,"SoundDuration":96153,"Delta":14698080},{"NoteNumber":84,"Velocity":49,"Duration":96153,"SoundDuration":96153,"Delta":14890387},{"NoteNumber":69,"Velocity":27,"Duration":96153,"SoundDuration":96153,"Delta":14890387},{"NoteNumber":62,"Velocity":21,"Duration":96153,"SoundDuration":96153,"Delta":14890387},{"NoteNumber":58,"Velocity":21,"Duration":96153,"SoundDuration":96153,"Delta":14890387},{"NoteNumber":70,"Velocity":58,"Duration":96153,"SoundDuration":96153,"Delta":15082695},{"NoteNumber":67,"Velocity":46,"Duration":96153,"SoundDuration":96153,"Delta":15082695},{"NoteNumber":62,"Velocity":36,"Duration":96153,"SoundDuration":96153,"Delta":15082695},{"NoteNumber":58,"Velocity":36,"Duration":96153,"SoundDuration":96153,"Delta":15082695},{"NoteNumber":82,"Velocity":48,"Duration":99337,"SoundDuration":99337,"Delta":15275002},{"NoteNumber":67,"Velocity":29,"Duration":99337,"SoundDuration":99337,"Delta":15275002},{"NoteNumber":62,"Velocity":23,"Duration":99337,"SoundDuration":99337,"Delta":15275002},{"NoteNumber":58,"Velocity":23,"Duration":99337,"SoundDuration":99337,"Delta":15275002},{"NoteNumber":69,"Velocity":60,"Duration":96462,"SoundDuration":96462,"Delta":15473678},{"NoteNumber":60,"Velocity":39,"Duration":96462,"SoundDuration":96462,"Delta":15473678},{"NoteNumber":65,"Velocity":46,"Duration":96462,"SoundDuration":96462,"Delta":15473678},{"NoteNumber":81,"Velocity":48,"Duration":96462,"SoundDuration":96462,"Delta":15666604},{"NoteNumber":65,"Velocity":28,"Duration":96462,"SoundDuration":96462,"Delta":15666604},{"NoteNumber":60,"Velocity":24,"Duration":96462,"SoundDuration":96462,"Delta":15666604},{"NoteNumber":65,"Velocity":58,"Duration":96462,"SoundDuration":96462,"Delta":15859530},{"NoteNumber":57,"Velocity":36,"Duration":96462,"SoundDuration":96462,"Delta":15859530},{"NoteNumber":60,"Velocity":44,"Duration":96462,"SoundDuration":96462,"Delta":15859530},{"NoteNumber":77,"Velocity":50,"Duration":98039,"SoundDuration":98039,"Delta":16052456},{"NoteNumber":60,"Velocity":29,"Duration":98039,"SoundDuration":98039,"Delta":16052456},{"NoteNumber":57,"Velocity":24,"Duration":98039,"SoundDuration":98039,"Delta":16052456},{"NoteNumber":65,"Velocity":66,"Duration":96153,"SoundDuration":96153,"Delta":16248534},{"NoteNumber":61,"Velocity":49,"Duration":96153,"SoundDuration":96153,"Delta":16248534},{"NoteNumber":58,"Velocity":41,"Duration":96153,"SoundDuration":96153,"Delta":16248534},{"NoteNumber":55,"Velocity":41,"Duration":96153,"SoundDuration":96153,"Delta":16248534},{"NoteNumber":77,"Velocity":60,"Duration":96153,"SoundDuration":96153,"Delta":16440842},{"NoteNumber":61,"Velocity":35,"Duration":96153,"SoundDuration":96153,"Delta":16440842},{"NoteNumber":58,"Velocity":28,"Duration":96153,"SoundDuration":96153,"Delta":16440842},{"NoteNumber":55,"Velocity":28,"Duration":96153,"SoundDuration":96153,"Delta":16440842},{"NoteNumber":64,"Velocity":64,"Duration":96462,"SoundDuration":96462,"Delta":16633149},{"NoteNumber":60,"Velocity":54,"Duration":96462,"SoundDuration":96462,"Delta":16633149},{"NoteNumber":58,"Velocity":44,"Duration":96462,"SoundDuration":96462,"Delta":16633149},{"NoteNumber":55,"Velocity":44,"Duration":96462,"SoundDuration":96462,"Delta":16633149},{"NoteNumber":76,"Velocity":51,"Duration":99337,"SoundDuration":99337,"Delta":16826075},{"NoteNumber":60,"Velocity":37,"Duration":99337,"SoundDuration":99337,"Delta":16826075},{"NoteNumber":58,"Velocity":31,"Duration":99337,"SoundDuration":99337,"Delta":16826075},{"NoteNumber":55,"Velocity":31,"Duration":99337,"SoundDuration":99337,"Delta":16826075},{"NoteNumber":65,"Velocity":59,"Duration":95541,"SoundDuration":95541,"Delta":17024751},{"NoteNumber":60,"Velocity":43,"Duration":95541,"SoundDuration":95541,"Delta":17024751},{"NoteNumber":57,"Velocity":36,"Duration":95541,"SoundDuration":95541,"Delta":17024751},{"NoteNumber":53,"Velocity":36,"Duration":95541,"SoundDuration":95541,"Delta":17024751},{"NoteNumber":77,"Velocity":52,"Duration":98684,"SoundDuration":98684,"Delta":17215834},{"NoteNumber":53,"Velocity":31,"Duration":98684,"SoundDuration":98684,"Delta":17215834},{"NoteNumber":57,"Velocity":31,"Duration":98684,"SoundDuration":98684,"Delta":17215834},{"NoteNumber":60,"Velocity":36,"Duration":98684,"SoundDuration":98684,"Delta":17215834},{"NoteNumber":70,"Velocity":67,"Duration":96462,"SoundDuration":96462,"Delta":17413202},{"NoteNumber":62,"Velocity":50,"Duration":96462,"SoundDuration":96462,"Delta":17413202},{"NoteNumber":53,"Velocity":42,"Duration":96462,"SoundDuration":96462,"Delta":17413202},{"NoteNumber":82,"Velocity":55,"Duration":98360,"SoundDuration":98360,"Delta":17606128},{"NoteNumber":53,"Velocity":35,"Duration":98360,"SoundDuration":98360,"Delta":17606128},{"NoteNumber":62,"Velocity":42,"Duration":98360,"SoundDuration":98360,"Delta":17606128},{"NoteNumber":69,"Velocity":62,"Duration":98360,"SoundDuration":98360,"Delta":17802850},{"NoteNumber":53,"Velocity":41,"Duration":98360,"SoundDuration":98360,"Delta":17802850},{"NoteNumber":60,"Velocity":49,"Duration":98360,"SoundDuration":98360,"Delta":17802850},{"NoteNumber":81,"Velocity":56,"Duration":98360,"SoundDuration":98360,"Delta":17999571},{"NoteNumber":60,"Velocity":39,"Duration":98360,"SoundDuration":98360,"Delta":17999571},{"NoteNumber":53,"Velocity":32,"Duration":98360,"SoundDuration":98360,"Delta":17999571},{"NoteNumber":74,"Velocity":59,"Duration":99667,"SoundDuration":99667,"Delta":18196293},{"NoteNumber":53,"Velocity":27,"Duration":99667,"SoundDuration":99667,"Delta":18196293},{"NoteNumber":58,"Velocity":42,"Duration":99667,"SoundDuration":99667,"Delta":18196293},{"NoteNumber":86,"Velocity":49,"Duration":117647,"SoundDuration":117647,"Delta":18395628},{"NoteNumber":53,"Velocity":23,"Duration":117647,"SoundDuration":117647,"Delta":18395628},{"NoteNumber":58,"Velocity":35,"Duration":117647,"SoundDuration":117647,"Delta":18395628},{"NoteNumber":72,"Velocity":37,"Duration":97402,"SoundDuration":97402,"Delta":18630922},{"NoteNumber":60,"Velocity":31,"Duration":97402,"SoundDuration":97402,"Delta":18630922},{"NoteNumber":57,"Velocity":24,"Duration":97402,"SoundDuration":97402,"Delta":18630922},{"NoteNumber":53,"Velocity":24,"Duration":97402,"SoundDuration":97402,"Delta":18630922},{"NoteNumber":84,"Velocity":35,"Duration":97402,"SoundDuration":97402,"Delta":18825727},{"NoteNumber":53,"Velocity":16,"Duration":97402,"SoundDuration":97402,"Delta":18825727},{"NoteNumber":57,"Velocity":16,"Duration":97402,"SoundDuration":97402,"Delta":18825727},{"NoteNumber":60,"Velocity":20,"Duration":97402,"SoundDuration":97402,"Delta":18825727},{"NoteNumber":77,"Velocity":39,"Duration":95846,"SoundDuration":95846,"Delta":19020532},{"NoteNumber":60,"Velocity":31,"Duration":95846,"SoundDuration":95846,"Delta":19020532},{"NoteNumber":57,"Velocity":24,"Duration":95846,"SoundDuration":95846,"Delta":19020532},{"NoteNumber":53,"Velocity":24,"Duration":95846,"SoundDuration":95846,"Delta":19020532},{"NoteNumber":89,"Velocity":38,"Duration":95846,"SoundDuration":95846,"Delta":19212226},{"NoteNumber":53,"Velocity":18,"Duration":95846,"SoundDuration":95846,"Delta":19212226},{"NoteNumber":57,"Velocity":18,"Duration":95846,"SoundDuration":95846,"Delta":19212226},{"NoteNumber":60,"Velocity":23,"Duration":95846,"SoundDuration":95846,"Delta":19212226},{"NoteNumber":81,"Velocity":41,"Duration":94339,"SoundDuration":94339,"Delta":19403919},{"NoteNumber":53,"Velocity":28,"Duration":94339,"SoundDuration":94339,"Delta":19403919},{"NoteNumber":57,"Velocity":28,"Duration":94339,"SoundDuration":94339,"Delta":19403919},{"NoteNumber":60,"Velocity":36,"Duration":94339,"SoundDuration":94339,"Delta":19403919},{"NoteNumber":93,"Velocity":40,"Duration":94339,"SoundDuration":94339,"Delta":19592598},{"NoteNumber":53,"Velocity":19,"Duration":94339,"SoundDuration":94339,"Delta":19592598},{"NoteNumber":57,"Velocity":19,"Duration":94339,"SoundDuration":94339,"Delta":19592598},{"NoteNumber":60,"Velocity":24,"Duration":94339,"SoundDuration":94339,"Delta":19592598},{"NoteNumber":79,"Velocity":46,"Duration":95237,"SoundDuration":95237,"Delta":19781277},{"NoteNumber":53,"Velocity":29,"Duration":95237,"SoundDuration":95237,"Delta":19781277},{"NoteNumber":57,"Velocity":29,"Duration":95237,"SoundDuration":95237,"Delta":19781277},{"NoteNumber":60,"Velocity":37,"Duration":95237,"SoundDuration":95237,"Delta":19781277},{"NoteNumber":91,"Velocity":42,"Duration":99009,"SoundDuration":99009,"Delta":19971753},{"NoteNumber":53,"Velocity":19,"Duration":99009,"SoundDuration":99009,"Delta":19971753},{"NoteNumber":57,"Velocity":19,"Duration":99009,"SoundDuration":99009,"Delta":19971753},{"NoteNumber":60,"Velocity":24,"Duration":99009,"SoundDuration":99009,"Delta":19971753},{"NoteNumber":77,"Velocity":49,"Duration":95541,"SoundDuration":95541,"Delta":20169773},{"NoteNumber":53,"Velocity":30,"Duration":95541,"SoundDuration":95541,"Delta":20169773},{"NoteNumber":57,"Velocity":30,"Duration":95541,"SoundDuration":95541,"Delta":20169773},{"NoteNumber":61,"Velocity":38,"Duration":95541,"SoundDuration":95541,"Delta":20169773},{"NoteNumber":89,"Velocity":43,"Duration":95541,"SoundDuration":95541,"Delta":20360856},{"NoteNumber":61,"Velocity":24,"Duration":95541,"SoundDuration":95541,"Delta":20360856},{"NoteNumber":57,"Velocity":19,"Duration":95541,"SoundDuration":95541,"Delta":20360856},{"NoteNumber":53,"Velocity":19,"Duration":95541,"SoundDuration":95541,"Delta":20360856},{"NoteNumber":76,"Velocity":49,"Duration":95541,"SoundDuration":95541,"Delta":20551939},{"NoteNumber":53,"Velocity":33,"Duration":95541,"SoundDuration":95541,"Delta":20551939},{"NoteNumber":57,"Velocity":33,"Duration":95541,"SoundDuration":95541,"Delta":20551939},{"NoteNumber":61,"Velocity":42,"Duration":95541,"SoundDuration":95541,"Delta":20551939},{"NoteNumber":88,"Velocity":46,"Duration":95541,"SoundDuration":95541,"Delta":20743022},{"NoteNumber":61,"Velocity":27,"Duration":95541,"SoundDuration":95541,"Delta":20743022},{"NoteNumber":57,"Velocity":21,"Duration":95541,"SoundDuration":95541,"Delta":20743022},{"NoteNumber":53,"Velocity":21,"Duration":95541,"SoundDuration":95541,"Delta":20743022},{"NoteNumber":79,"Velocity":58,"Duration":94637,"SoundDuration":94637,"Delta":20934105},{"NoteNumber":62,"Velocity":47,"Duration":94637,"SoundDuration":94637,"Delta":20934105},{"NoteNumber":57,"Velocity":37,"Duration":94637,"SoundDuration":94637,"Delta":20934105},{"NoteNumber":53,"Velocity":37,"Duration":94637,"SoundDuration":94637,"Delta":20934105},{"NoteNumber":91,"Velocity":41,"Duration":94637,"SoundDuration":94637,"Delta":21123380},{"NoteNumber":53,"Velocity":21,"Duration":94637,"SoundDuration":94637,"Delta":21123380},{"NoteNumber":57,"Velocity":21,"Duration":94637,"SoundDuration":94637,"Delta":21123380},{"NoteNumber":62,"Velocity":27,"Duration":94637,"SoundDuration":94637,"Delta":21123380},{"NoteNumber":77,"Velocity":51,"Duration":95846,"SoundDuration":95846,"Delta":21312654},{"NoteNumber":53,"Velocity":29,"Duration":95846,"SoundDuration":95846,"Delta":21312654},{"NoteNumber":57,"Velocity":29,"Duration":95846,"SoundDuration":95846,"Delta":21312654},{"NoteNumber":62,"Velocity":37,"Duration":95846,"SoundDuration":95846,"Delta":21312654},{"NoteNumber":89,"Velocity":42,"Duration":99337,"SoundDuration":99337,"Delta":21504348},{"NoteNumber":53,"Velocity":19,"Duration":99337,"SoundDuration":99337,"Delta":21504348},{"NoteNumber":57,"Velocity":19,"Duration":99337,"SoundDuration":99337,"Delta":21504348},{"NoteNumber":62,"Velocity":24,"Duration":99337,"SoundDuration":99337,"Delta":21504348},{"NoteNumber":76,"Velocity":50,"Duration":96774,"SoundDuration":96774,"Delta":21703023},{"NoteNumber":53,"Velocity":27,"Duration":96774,"SoundDuration":96774,"Delta":21703023},{"NoteNumber":62,"Velocity":35,"Duration":96774,"SoundDuration":96774,"Delta":21703023},{"NoteNumber":58,"Velocity":27,"Duration":96774,"SoundDuration":96774,"Delta":21703023},{"NoteNumber":55,"Velocity":27,"Duration":96774,"SoundDuration":96774,"Delta":21703023},{"NoteNumber":88,"Velocity":35,"Duration":96774,"SoundDuration":96774,"Delta":21896572},{"NoteNumber":53,"Velocity":16,"Duration":96774,"SoundDuration":96774,"Delta":21896572},{"NoteNumber":55,"Velocity":16,"Duration":96774,"SoundDuration":96774,"Delta":21896572},{"NoteNumber":58,"Velocity":16,"Duration":96774,"SoundDuration":96774,"Delta":21896572},{"NoteNumber":62,"Velocity":20,"Duration":96774,"SoundDuration":96774,"Delta":21896572},{"NoteNumber":74,"Velocity":44,"Duration":95541,"SoundDuration":95541,"Delta":22090120},{"NoteNumber":55,"Velocity":24,"Duration":95541,"SoundDuration":95541,"Delta":22090120},{"NoteNumber":62,"Velocity":31,"Duration":95541,"SoundDuration":95541,"Delta":22090120},{"NoteNumber":58,"Velocity":24,"Duration":95541,"SoundDuration":95541,"Delta":22090120},{"NoteNumber":53,"Velocity":24,"Duration":95541,"SoundDuration":95541,"Delta":22090120},{"NoteNumber":86,"Velocity":40,"Duration":95541,"SoundDuration":95541,"Delta":22281203},{"NoteNumber":55,"Velocity":18,"Duration":95541,"SoundDuration":95541,"Delta":22281203},{"NoteNumber":53,"Velocity":18,"Duration":95541,"SoundDuration":95541,"Delta":22281203},{"NoteNumber":58,"Velocity":18,"Duration":95541,"SoundDuration":95541,"Delta":22281203},{"NoteNumber":62,"Velocity":23,"Duration":95541,"SoundDuration":95541,"Delta":22281203},{"NoteNumber":67,"Velocity":44,"Duration":96153,"SoundDuration":96153,"Delta":22472286},{"NoteNumber":55,"Velocity":28,"Duration":96153,"SoundDuration":96153,"Delta":22472286},{"NoteNumber":53,"Velocity":28,"Duration":96153,"SoundDuration":96153,"Delta":22472286},{"NoteNumber":58,"Velocity":28,"Duration":96153,"SoundDuration":96153,"Delta":22472286},{"NoteNumber":62,"Velocity":36,"Duration":96153,"SoundDuration":96153,"Delta":22472286},{"NoteNumber":79,"Velocity":43,"Duration":96153,"SoundDuration":96153,"Delta":22664594},{"NoteNumber":55,"Velocity":19,"Duration":96153,"SoundDuration":96153,"Delta":22664594},{"NoteNumber":53,"Velocity":19,"Duration":96153,"SoundDuration":96153,"Delta":22664594},{"NoteNumber":58,"Velocity":19,"Duration":96153,"SoundDuration":96153,"Delta":22664594},{"NoteNumber":62,"Velocity":24,"Duration":96153,"SoundDuration":96153,"Delta":22664594},{"NoteNumber":69,"Velocity":48,"Duration":96462,"SoundDuration":96462,"Delta":22856901},{"NoteNumber":55,"Velocity":29,"Duration":96462,"SoundDuration":96462,"Delta":22856901},{"NoteNumber":53,"Velocity":29,"Duration":96462,"SoundDuration":96462,"Delta":22856901},{"NoteNumber":58,"Velocity":29,"Duration":96462,"SoundDuration":96462,"Delta":22856901},{"NoteNumber":62,"Velocity":37,"Duration":96462,"SoundDuration":96462,"Delta":22856901},{"NoteNumber":81,"Velocity":45,"Duration":98039,"SoundDuration":98039,"Delta":23049827},{"NoteNumber":55,"Velocity":19,"Duration":98039,"SoundDuration":98039,"Delta":23049827},{"NoteNumber":53,"Velocity":19,"Duration":98039,"SoundDuration":98039,"Delta":23049827},{"NoteNumber":58,"Velocity":19,"Duration":98039,"SoundDuration":98039,"Delta":23049827},{"NoteNumber":62,"Velocity":24,"Duration":98039,"SoundDuration":98039,"Delta":23049827},{"NoteNumber":70,"Velocity":58,"Duration":96153,"SoundDuration":96153,"Delta":23245906},{"NoteNumber":52,"Velocity":30,"Duration":96153,"SoundDuration":96153,"Delta":23245906},{"NoteNumber":55,"Velocity":30,"Duration":96153,"SoundDuration":96153,"Delta":23245906},{"NoteNumber":60,"Velocity":38,"Duration":96153,"SoundDuration":96153,"Delta":23245906},{"NoteNumber":82,"Velocity":51,"Duration":96153,"SoundDuration":96153,"Delta":23438213},{"NoteNumber":60,"Velocity":24,"Duration":96153,"SoundDuration":96153,"Delta":23438213},{"NoteNumber":55,"Velocity":19,"Duration":96153,"SoundDuration":96153,"Delta":23438213},{"NoteNumber":52,"Velocity":19,"Duration":96153,"SoundDuration":96153,"Delta":23438213},{"NoteNumber":71,"Velocity":53,"Duration":96153,"SoundDuration":96153,"Delta":23630521},{"NoteNumber":52,"Velocity":33,"Duration":96153,"SoundDuration":96153,"Delta":23630521},{"NoteNumber":55,"Velocity":33,"Duration":96153,"SoundDuration":96153,"Delta":23630521},{"NoteNumber":60,"Velocity":42,"Duration":96153,"SoundDuration":96153,"Delta":23630521},{"NoteNumber":83,"Velocity":50,"Duration":98360,"SoundDuration":98360,"Delta":23822828},{"NoteNumber":60,"Velocity":27,"Duration":98360,"SoundDuration":98360,"Delta":23822828},{"NoteNumber":55,"Velocity":21,"Duration":98360,"SoundDuration":98360,"Delta":23822828},{"NoteNumber":52,"Velocity":21,"Duration":98360,"SoundDuration":98360,"Delta":23822828},{"NoteNumber":72,"Velocity":58,"Duration":97402,"SoundDuration":97402,"Delta":24019550},{"NoteNumber":60,"Velocity":47,"Duration":97402,"SoundDuration":97402,"Delta":24019550},{"NoteNumber":55,"Velocity":37,"Duration":97402,"SoundDuration":97402,"Delta":24019550},{"NoteNumber":52,"Velocity":37,"Duration":97402,"SoundDuration":97402,"Delta":24019550},{"NoteNumber":84,"Velocity":43,"Duration":97402,"SoundDuration":97402,"Delta":24214355},{"NoteNumber":52,"Velocity":21,"Duration":97402,"SoundDuration":97402,"Delta":24214355},{"NoteNumber":55,"Velocity":21,"Duration":97402,"SoundDuration":97402,"Delta":24214355},{"NoteNumber":60,"Velocity":27,"Duration":97402,"SoundDuration":97402,"Delta":24214355},{"NoteNumber":70,"Velocity":52,"Duration":99337,"SoundDuration":99337,"Delta":24409160},{"NoteNumber":52,"Velocity":29,"Duration":99337,"SoundDuration":99337,"Delta":24409160},{"NoteNumber":55,"Velocity":29,"Duration":99337,"SoundDuration":99337,"Delta":24409160},{"NoteNumber":60,"Velocity":37,"Duration":99337,"SoundDuration":99337,"Delta":24409160},{"NoteNumber":82,"Velocity":43,"Duration":104529,"SoundDuration":104529,"Delta":24607835},{"NoteNumber":52,"Velocity":19,"Duration":104529,"SoundDuration":104529,"Delta":24607835},{"NoteNumber":55,"Velocity":19,"Duration":104529,"SoundDuration":104529,"Delta":24607835},{"NoteNumber":60,"Velocity":24,"Duration":104529,"SoundDuration":104529,"Delta":24607835},{"NoteNumber":72,"Velocity":55,"Duration":98039,"SoundDuration":98039,"Delta":24816894},{"NoteNumber":53,"Velocity":29,"Duration":98039,"SoundDuration":98039,"Delta":24816894},{"NoteNumber":57,"Velocity":29,"Duration":98039,"SoundDuration":98039,"Delta":24816894},{"NoteNumber":60,"Velocity":37,"Duration":98039,"SoundDuration":98039,"Delta":24816894},{"NoteNumber":84,"Velocity":46,"Duration":98039,"SoundDuration":98039,"Delta":25012973},{"NoteNumber":60,"Velocity":24,"Duration":98039,"SoundDuration":98039,"Delta":25012973},{"NoteNumber":57,"Velocity":19,"Duration":98039,"SoundDuration":98039,"Delta":25012973},{"NoteNumber":53,"Velocity":19,"Duration":98039,"SoundDuration":98039,"Delta":25012973},{"NoteNumber":77,"Velocity":55,"Duration":96153,"SoundDuration":96153,"Delta":25209051},{"NoteNumber":53,"Velocity":32,"Duration":96153,"SoundDuration":96153,"Delta":25209051},{"NoteNumber":57,"Velocity":32,"Duration":96153,"SoundDuration":96153,"Delta":25209051},{"NoteNumber":60,"Velocity":40,"Duration":96153,"SoundDuration":96153,"Delta":25209051},{"NoteNumber":89,"Velocity":44,"Duration":98360,"SoundDuration":98360,"Delta":25401359},{"NoteNumber":60,"Velocity":28,"Duration":98360,"SoundDuration":98360,"Delta":25401359},{"NoteNumber":57,"Velocity":21,"Duration":98360,"SoundDuration":98360,"Delta":25401359},{"NoteNumber":53,"Velocity":21,"Duration":98360,"SoundDuration":98360,"Delta":25401359},{"NoteNumber":77,"Velocity":62,"Duration":95846,"SoundDuration":95846,"Delta":25598080},{"NoteNumber":67,"Velocity":47,"Duration":95846,"SoundDuration":95846,"Delta":25598080},{"NoteNumber":57,"Velocity":36,"Duration":95846,"SoundDuration":95846,"Delta":25598080},{"NoteNumber":61,"Velocity":36,"Duration":95846,"SoundDuration":95846,"Delta":25598080},{"NoteNumber":89,"Velocity":52,"Duration":95846,"SoundDuration":95846,"Delta":25789774},{"NoteNumber":67,"Velocity":31,"Duration":95846,"SoundDuration":95846,"Delta":25789774},{"NoteNumber":57,"Velocity":24,"Duration":95846,"SoundDuration":95846,"Delta":25789774},{"NoteNumber":61,"Velocity":24,"Duration":95846,"SoundDuration":95846,"Delta":25789774},{"NoteNumber":76,"Velocity":64,"Duration":95846,"SoundDuration":95846,"Delta":25981467},{"NoteNumber":67,"Velocity":44,"Duration":95846,"SoundDuration":95846,"Delta":25981467},{"NoteNumber":57,"Velocity":35,"Duration":95846,"SoundDuration":95846,"Delta":25981467},{"NoteNumber":61,"Velocity":35,"Duration":95846,"SoundDuration":95846,"Delta":25981467},{"NoteNumber":88,"Velocity":50,"Duration":99337,"SoundDuration":99337,"Delta":26173161},{"NoteNumber":67,"Velocity":30,"Duration":99337,"SoundDuration":99337,"Delta":26173161},{"NoteNumber":57,"Velocity":24,"Duration":99337,"SoundDuration":99337,"Delta":26173161},{"NoteNumber":61,"Velocity":24,"Duration":99337,"SoundDuration":99337,"Delta":26173161},{"NoteNumber":76,"Velocity":72,"Duration":96462,"SoundDuration":96462,"Delta":26371836},{"NoteNumber":67,"Velocity":50,"Duration":96462,"SoundDuration":96462,"Delta":26371836},{"NoteNumber":61,"Velocity":38,"Duration":96462,"SoundDuration":96462,"Delta":26371836},{"NoteNumber":58,"Velocity":38,"Duration":96462,"SoundDuration":96462,"Delta":26371836},{"NoteNumber":88,"Velocity":65,"Duration":96462,"SoundDuration":96462,"Delta":26564762},{"NoteNumber":67,"Velocity":33,"Duration":96462,"SoundDuration":96462,"Delta":26564762},{"NoteNumber":61,"Velocity":26,"Duration":96462,"SoundDuration":96462,"Delta":26564762},{"NoteNumber":58,"Velocity":26,"Duration":96462,"SoundDuration":96462,"Delta":26564762},{"NoteNumber":74,"Velocity":70,"Duration":96462,"SoundDuration":96462,"Delta":26757688},{"NoteNumber":65,"Velocity":49,"Duration":96462,"SoundDuration":96462,"Delta":26757688},{"NoteNumber":62,"Velocity":39,"Duration":96462,"SoundDuration":96462,"Delta":26757688},{"NoteNumber":58,"Velocity":39,"Duration":96462,"SoundDuration":96462,"Delta":26757688},{"NoteNumber":86,"Velocity":57,"Duration":97466,"SoundDuration":97466,"Delta":26950614},{"NoteNumber":58,"Velocity":22,"Duration":97466,"SoundDuration":97466,"Delta":26950614},{"NoteNumber":62,"Velocity":22,"Duration":97466,"SoundDuration":97466,"Delta":26950614},{"NoteNumber":65,"Velocity":28,"Duration":97466,"SoundDuration":97466,"Delta":26950614},{"NoteNumber":72,"Velocity":63,"Duration":96153,"SoundDuration":96153,"Delta":27145546},{"NoteNumber":69,"Velocity":47,"Duration":96153,"SoundDuration":96153,"Delta":27145546},{"NoteNumber":62,"Velocity":36,"Duration":96153,"SoundDuration":96153,"Delta":27145546},{"NoteNumber":58,"Velocity":36,"Duration":96153,"SoundDuration":96153,"Delta":27145546},{"NoteNumber":84,"Velocity":49,"Duration":96153,"SoundDuration":96153,"Delta":27337854},{"NoteNumber":69,"Velocity":27,"Duration":96153,"SoundDuration":96153,"Delta":27337854},{"NoteNumber":62,"Velocity":21,"Duration":96153,"SoundDuration":96153,"Delta":27337854},{"NoteNumber":58,"Velocity":21,"Duration":96153,"SoundDuration":96153,"Delta":27337854},{"NoteNumber":70,"Velocity":58,"Duration":96153,"SoundDuration":96153,"Delta":27530161},{"NoteNumber":67,"Velocity":46,"Duration":96153,"SoundDuration":96153,"Delta":27530161},{"NoteNumber":62,"Velocity":36,"Duration":96153,"SoundDuration":96153,"Delta":27530161},{"NoteNumber":58,"Velocity":36,"Duration":96153,"SoundDuration":96153,"Delta":27530161},{"NoteNumber":82,"Velocity":48,"Duration":99337,"SoundDuration":99337,"Delta":27722469},{"NoteNumber":67,"Velocity":29,"Duration":99337,"SoundDuration":99337,"Delta":27722469},{"NoteNumber":62,"Velocity":23,"Duration":99337,"SoundDuration":99337,"Delta":27722469},{"NoteNumber":58,"Velocity":23,"Duration":99337,"SoundDuration":99337,"Delta":27722469},{"NoteNumber":69,"Velocity":60,"Duration":96462,"SoundDuration":96462,"Delta":27921144},{"NoteNumber":60,"Velocity":39,"Duration":96462,"SoundDuration":96462,"Delta":27921144},{"NoteNumber":65,"Velocity":46,"Duration":96462,"SoundDuration":96462,"Delta":27921144},{"NoteNumber":81,"Velocity":48,"Duration":96462,"SoundDuration":96462,"Delta":28114070},{"NoteNumber":65,"Velocity":36,"Duration":96462,"SoundDuration":96462,"Delta":28114070},{"NoteNumber":60,"Velocity":31,"Duration":96462,"SoundDuration":96462,"Delta":28114070},{"NoteNumber":65,"Velocity":58,"Duration":96462,"SoundDuration":96462,"Delta":28306996},{"NoteNumber":57,"Velocity":36,"Duration":96462,"SoundDuration":96462,"Delta":28306996},{"NoteNumber":60,"Velocity":44,"Duration":96462,"SoundDuration":96462,"Delta":28306996},{"NoteNumber":77,"Velocity":50,"Duration":98039,"SoundDuration":98039,"Delta":28499922},{"NoteNumber":60,"Velocity":37,"Duration":98039,"SoundDuration":98039,"Delta":28499922},{"NoteNumber":57,"Velocity":31,"Duration":98039,"SoundDuration":98039,"Delta":28499922},{"NoteNumber":65,"Velocity":66,"Duration":96153,"SoundDuration":96153,"Delta":28696001},{"NoteNumber":61,"Velocity":49,"Duration":96153,"SoundDuration":96153,"Delta":28696001},{"NoteNumber":58,"Velocity":41,"Duration":96153,"SoundDuration":96153,"Delta":28696001},{"NoteNumber":55,"Velocity":41,"Duration":96153,"SoundDuration":96153,"Delta":28696001},{"NoteNumber":77,"Velocity":60,"Duration":96153,"SoundDuration":96153,"Delta":28888308},{"NoteNumber":61,"Velocity":44,"Duration":96153,"SoundDuration":96153,"Delta":28888308},{"NoteNumber":58,"Velocity":36,"Duration":96153,"SoundDuration":96153,"Delta":28888308},{"NoteNumber":55,"Velocity":36,"Duration":96153,"SoundDuration":96153,"Delta":28888308},{"NoteNumber":64,"Velocity":64,"Duration":96462,"SoundDuration":96462,"Delta":29080616},{"NoteNumber":60,"Velocity":54,"Duration":96462,"SoundDuration":96462,"Delta":29080616},{"NoteNumber":58,"Velocity":44,"Duration":96462,"SoundDuration":96462,"Delta":29080616},{"NoteNumber":55,"Velocity":44,"Duration":96462,"SoundDuration":96462,"Delta":29080616},{"NoteNumber":76,"Velocity":51,"Duration":99337,"SoundDuration":99337,"Delta":29273542},{"NoteNumber":60,"Velocity":47,"Duration":99337,"SoundDuration":99337,"Delta":29273542},{"NoteNumber":58,"Velocity":39,"Duration":99337,"SoundDuration":99337,"Delta":29273542},{"NoteNumber":55,"Velocity":39,"Duration":99337,"SoundDuration":99337,"Delta":29273542},{"NoteNumber":65,"Velocity":59,"Duration":95541,"SoundDuration":95541,"Delta":29472217},{"NoteNumber":60,"Velocity":43,"Duration":388451,"SoundDuration":388451,"Delta":29472217},{"NoteNumber":57,"Velocity":36,"Duration":388451,"SoundDuration":388451,"Delta":29472217},{"NoteNumber":53,"Velocity":36,"Duration":388451,"SoundDuration":388451,"Delta":29472217},{"NoteNumber":77,"Velocity":52,"Duration":98684,"SoundDuration":98684,"Delta":29663300},{"NoteNumber":65,"Velocity":61,"Duration":96462,"SoundDuration":96462,"Delta":29860669},{"NoteNumber":77,"Velocity":60,"Duration":98360,"SoundDuration":98360,"Delta":30053595},{"NoteNumber":53,"Velocity":42,"Duration":98360,"SoundDuration":98360,"Delta":30053595},{"NoteNumber":41,"Velocity":35,"Duration":98360,"SoundDuration":98360,"Delta":30053595},{"NoteNumber":65,"Velocity":68,"Duration":98360,"SoundDuration":98360,"Delta":30250316},{"NoteNumber":53,"Velocity":52,"Duration":393443,"SoundDuration":393443,"Delta":30250316},{"NoteNumber":41,"Velocity":43,"Duration":393443,"SoundDuration":393443,"Delta":30250316},{"NoteNumber":77,"Velocity":45,"Duration":98360,"SoundDuration":98360,"Delta":30447038},{"NoteNumber":65,"Velocity":51,"Duration":99667,"SoundDuration":99667,"Delta":30643759},{"NoteNumber":77,"Velocity":43,"Duration":104894,"SoundDuration":104894,"Delta":30843095},{"NoteNumber":77,"Velocity":31,"Duration":97402,"SoundDuration":97402,"Delta":31052885},{"NoteNumber":74,"Velocity":24,"Duration":97402,"SoundDuration":97402,"Delta":31052885},{"NoteNumber":65,"Velocity":24,"Duration":97402,"SoundDuration":97402,"Delta":31052885},{"NoteNumber":38,"Velocity":37,"Duration":97402,"SoundDuration":97402,"Delta":31052885},{"NoteNumber":65,"Velocity":20,"Duration":97402,"SoundDuration":97402,"Delta":31247690},{"NoteNumber":74,"Velocity":20,"Duration":97402,"SoundDuration":97402,"Delta":31247690},{"NoteNumber":77,"Velocity":26,"Duration":97402,"SoundDuration":97402,"Delta":31247690},{"NoteNumber":50,"Velocity":35,"Duration":97402,"SoundDuration":97402,"Delta":31247690},{"NoteNumber":77,"Velocity":31,"Duration":95846,"SoundDuration":95846,"Delta":31442495},{"NoteNumber":74,"Velocity":24,"Duration":95846,"SoundDuration":95846,"Delta":31442495},{"NoteNumber":65,"Velocity":24,"Duration":95846,"SoundDuration":95846,"Delta":31442495},{"NoteNumber":41,"Velocity":39,"Duration":95846,"SoundDuration":95846,"Delta":31442495},{"NoteNumber":65,"Velocity":23,"Duration":95846,"SoundDuration":95846,"Delta":31634188},{"NoteNumber":74,"Velocity":23,"Duration":95846,"SoundDuration":95846,"Delta":31634188},{"NoteNumber":77,"Velocity":29,"Duration":95846,"SoundDuration":95846,"Delta":31634188},{"NoteNumber":53,"Velocity":38,"Duration":95846,"SoundDuration":95846,"Delta":31634188},{"NoteNumber":65,"Velocity":28,"Duration":94339,"SoundDuration":94339,"Delta":31825882},{"NoteNumber":74,"Velocity":28,"Duration":94339,"SoundDuration":94339,"Delta":31825882},{"NoteNumber":77,"Velocity":36,"Duration":94339,"SoundDuration":94339,"Delta":31825882},{"NoteNumber":44,"Velocity":48,"Duration":94339,"SoundDuration":94339,"Delta":31825882},{"NoteNumber":65,"Velocity":24,"Duration":94339,"SoundDuration":94339,"Delta":32014561},{"NoteNumber":74,"Velocity":24,"Duration":94339,"SoundDuration":94339,"Delta":32014561},{"NoteNumber":77,"Velocity":31,"Duration":94339,"SoundDuration":94339,"Delta":32014561},{"NoteNumber":56,"Velocity":42,"Duration":94339,"SoundDuration":94339,"Delta":32014561},{"NoteNumber":77,"Velocity":42,"Duration":95238,"SoundDuration":95238,"Delta":32203240},{"NoteNumber":74,"Velocity":35,"Duration":95238,"SoundDuration":95238,"Delta":32203240},{"NoteNumber":65,"Velocity":35,"Duration":95238,"SoundDuration":95238,"Delta":32203240},{"NoteNumber":45,"Velocity":54,"Duration":95238,"SoundDuration":95238,"Delta":32203240},{"NoteNumber":77,"Velocity":34,"Duration":99009,"SoundDuration":99009,"Delta":32393716},{"NoteNumber":74,"Velocity":28,"Duration":99009,"SoundDuration":99009,"Delta":32393716},{"NoteNumber":65,"Velocity":28,"Duration":99009,"SoundDuration":99009,"Delta":32393716},{"NoteNumber":57,"Velocity":48,"Duration":99009,"SoundDuration":99009,"Delta":32393716},{"NoteNumber":65,"Velocity":39,"Duration":95541,"SoundDuration":95541,"Delta":32591736},{"NoteNumber":74,"Velocity":39,"Duration":95541,"SoundDuration":95541,"Delta":32591736},{"NoteNumber":77,"Velocity":46,"Duration":95541,"SoundDuration":95541,"Delta":32591736},{"NoteNumber":46,"Velocity":60,"Duration":95541,"SoundDuration":95541,"Delta":32591736},{"NoteNumber":77,"Velocity":33,"Duration":95541,"SoundDuration":95541,"Delta":32782819},{"NoteNumber":74,"Velocity":28,"Duration":95541,"SoundDuration":95541,"Delta":32782819},{"NoteNumber":65,"Velocity":28,"Duration":95541,"SoundDuration":95541,"Delta":32782819},{"NoteNumber":58,"Velocity":49,"Duration":95541,"SoundDuration":95541,"Delta":32782819},{"NoteNumber":65,"Velocity":35,"Duration":95541,"SoundDuration":95541,"Delta":32973902},{"NoteNumber":74,"Velocity":35,"Duration":95541,"SoundDuration":95541,"Delta":32973902},{"NoteNumber":77,"Velocity":42,"Duration":95541,"SoundDuration":95541,"Delta":32973902},{"NoteNumber":45,"Velocity":57,"Duration":95541,"SoundDuration":95541,"Delta":32973902},{"NoteNumber":77,"Velocity":33,"Duration":95541,"SoundDuration":95541,"Delta":33164985},{"NoteNumber":74,"Velocity":28,"Duration":95541,"SoundDuration":95541,"Delta":33164985},{"NoteNumber":65,"Velocity":28,"Duration":95541,"SoundDuration":95541,"Delta":33164985},{"NoteNumber":57,"Velocity":46,"Duration":95541,"SoundDuration":95541,"Delta":33164985},{"NoteNumber":77,"Velocity":40,"Duration":94637,"SoundDuration":94637,"Delta":33356068},{"NoteNumber":74,"Velocity":34,"Duration":94637,"SoundDuration":94637,"Delta":33356068},{"NoteNumber":65,"Velocity":34,"Duration":94637,"SoundDuration":94637,"Delta":33356068},{"NoteNumber":41,"Velocity":53,"Duration":94637,"SoundDuration":94637,"Delta":33356068},{"NoteNumber":77,"Velocity":30,"Duration":94637,"SoundDuration":94637,"Delta":33545342},{"NoteNumber":74,"Velocity":25,"Duration":94637,"SoundDuration":94637,"Delta":33545342},{"NoteNumber":65,"Velocity":25,"Duration":94637,"SoundDuration":94637,"Delta":33545342},{"NoteNumber":53,"Velocity":41,"Duration":94637,"SoundDuration":94637,"Delta":33545342},{"NoteNumber":65,"Velocity":24,"Duration":95846,"SoundDuration":95846,"Delta":33734617},{"NoteNumber":74,"Velocity":24,"Duration":95846,"SoundDuration":95846,"Delta":33734617},{"NoteNumber":77,"Velocity":37,"Duration":95846,"SoundDuration":95846,"Delta":33734617},{"NoteNumber":38,"Velocity":51,"Duration":95846,"SoundDuration":95846,"Delta":33734617},{"NoteNumber":65,"Velocity":20,"Duration":99337,"SoundDuration":99337,"Delta":33926310},{"NoteNumber":74,"Velocity":20,"Duration":99337,"SoundDuration":99337,"Delta":33926310},{"NoteNumber":77,"Velocity":31,"Duration":99337,"SoundDuration":99337,"Delta":33926310},{"NoteNumber":50,"Velocity":42,"Duration":99337,"SoundDuration":99337,"Delta":33926310},{"NoteNumber":76,"Velocity":35,"Duration":97402,"SoundDuration":97402,"Delta":34124986},{"NoteNumber":74,"Velocity":27,"Duration":97402,"SoundDuration":97402,"Delta":34124986},{"NoteNumber":70,"Velocity":27,"Duration":97402,"SoundDuration":97402,"Delta":34124986},{"NoteNumber":43,"Velocity":42,"Duration":97402,"SoundDuration":97402,"Delta":34124986},{"NoteNumber":70,"Velocity":23,"Duration":97402,"SoundDuration":97402,"Delta":34319791},{"NoteNumber":74,"Velocity":23,"Duration":97402,"SoundDuration":97402,"Delta":34319791},{"NoteNumber":76,"Velocity":29,"Duration":97402,"SoundDuration":97402,"Delta":34319791},{"NoteNumber":55,"Velocity":40,"Duration":97402,"SoundDuration":97402,"Delta":34319791},{"NoteNumber":76,"Velocity":35,"Duration":95846,"SoundDuration":95846,"Delta":34514596},{"NoteNumber":74,"Velocity":27,"Duration":95846,"SoundDuration":95846,"Delta":34514596},{"NoteNumber":69,"Velocity":27,"Duration":95846,"SoundDuration":95846,"Delta":34514596},{"NoteNumber":45,"Velocity":44,"Duration":95846,"SoundDuration":95846,"Delta":34514596},{"NoteNumber":69,"Velocity":26,"Duration":95846,"SoundDuration":95846,"Delta":34706289},{"NoteNumber":74,"Velocity":26,"Duration":95846,"SoundDuration":95846,"Delta":34706289},{"NoteNumber":76,"Velocity":33,"Duration":95846,"SoundDuration":95846,"Delta":34706289},{"NoteNumber":57,"Velocity":43,"Duration":95846,"SoundDuration":95846,"Delta":34706289},{"NoteNumber":67,"Velocity":32,"Duration":94339,"SoundDuration":94339,"Delta":34897983},{"NoteNumber":74,"Velocity":32,"Duration":94339,"SoundDuration":94339,"Delta":34897983},{"NoteNumber":76,"Velocity":41,"Duration":94339,"SoundDuration":94339,"Delta":34897983},{"NoteNumber":46,"Velocity":55,"Duration":94339,"SoundDuration":94339,"Delta":34897983},{"NoteNumber":67,"Velocity":27,"Duration":94339,"SoundDuration":94339,"Delta":35086662},{"NoteNumber":74,"Velocity":27,"Duration":94339,"SoundDuration":94339,"Delta":35086662},{"NoteNumber":76,"Velocity":35,"Duration":94339,"SoundDuration":94339,"Delta":35086662},{"NoteNumber":58,"Velocity":48,"Duration":94339,"SoundDuration":94339,"Delta":35086662},{"NoteNumber":76,"Velocity":48,"Duration":95238,"SoundDuration":95238,"Delta":35275341},{"NoteNumber":74,"Velocity":40,"Duration":95238,"SoundDuration":95238,"Delta":35275341},{"NoteNumber":70,"Velocity":40,"Duration":95238,"SoundDuration":95238,"Delta":35275341},{"NoteNumber":43,"Velocity":62,"Duration":95238,"SoundDuration":95238,"Delta":35275341},{"NoteNumber":76,"Velocity":39,"Duration":99009,"SoundDuration":99009,"Delta":35465817},{"NoteNumber":74,"Velocity":32,"Duration":99009,"SoundDuration":99009,"Delta":35465817},{"NoteNumber":70,"Velocity":32,"Duration":99009,"SoundDuration":99009,"Delta":35465817},{"NoteNumber":55,"Velocity":55,"Duration":99009,"SoundDuration":99009,"Delta":35465817},{"NoteNumber":69,"Velocity":44,"Duration":95541,"SoundDuration":95541,"Delta":35663837},{"NoteNumber":73,"Velocity":44,"Duration":95541,"SoundDuration":95541,"Delta":35663837},{"NoteNumber":76,"Velocity":52,"Duration":95541,"SoundDuration":95541,"Delta":35663837},{"NoteNumber":45,"Velocity":69,"Duration":95541,"SoundDuration":95541,"Delta":35663837},{"NoteNumber":76,"Velocity":37,"Duration":95541,"SoundDuration":95541,"Delta":35854920},{"NoteNumber":73,"Velocity":32,"Duration":95541,"SoundDuration":95541,"Delta":35854920},{"NoteNumber":69,"Velocity":32,"Duration":95541,"SoundDuration":95541,"Delta":35854920},{"NoteNumber":57,"Velocity":56,"Duration":95541,"SoundDuration":95541,"Delta":35854920},{"NoteNumber":69,"Velocity":40,"Duration":95541,"SoundDuration":95541,"Delta":36046003},{"NoteNumber":73,"Velocity":40,"Duration":95541,"SoundDuration":95541,"Delta":36046003},{"NoteNumber":76,"Velocity":48,"Duration":95541,"SoundDuration":95541,"Delta":36046003},{"NoteNumber":43,"Velocity":65,"Duration":95541,"SoundDuration":95541,"Delta":36046003},{"NoteNumber":76,"Velocity":37,"Duration":95541,"SoundDuration":95541,"Delta":36237086},{"NoteNumber":73,"Velocity":32,"Duration":95541,"SoundDuration":95541,"Delta":36237086},{"NoteNumber":69,"Velocity":32,"Duration":95541,"SoundDuration":95541,"Delta":36237086},{"NoteNumber":55,"Velocity":52,"Duration":95541,"SoundDuration":95541,"Delta":36237086},{"NoteNumber":74,"Velocity":55,"Duration":95908,"SoundDuration":95908,"Delta":36428169},{"NoteNumber":69,"Velocity":46,"Duration":95908,"SoundDuration":95908,"Delta":36428169},{"NoteNumber":41,"Velocity":66,"Duration":95908,"SoundDuration":95908,"Delta":36428169},{"NoteNumber":74,"Velocity":41,"Duration":95907,"SoundDuration":95907,"Delta":36619985},{"NoteNumber":69,"Velocity":33,"Duration":95907,"SoundDuration":95907,"Delta":36619985},{"NoteNumber":53,"Velocity":53,"Duration":95907,"SoundDuration":95907,"Delta":36619985},{"NoteNumber":76,"Velocity":57,"Duration":97465,"SoundDuration":97465,"Delta":36811801},{"NoteNumber":73,"Velocity":48,"Duration":97465,"SoundDuration":97465,"Delta":36811801},{"NoteNumber":69,"Velocity":48,"Duration":97465,"SoundDuration":97465,"Delta":36811801},{"NoteNumber":40,"Velocity":67,"Duration":97465,"SoundDuration":97465,"Delta":36811801},{"NoteNumber":76,"Velocity":50,"Duration":99337,"SoundDuration":99337,"Delta":37006733},{"NoteNumber":73,"Velocity":42,"Duration":99337,"SoundDuration":99337,"Delta":37006733},{"NoteNumber":69,"Velocity":42,"Duration":99337,"SoundDuration":99337,"Delta":37006733},{"NoteNumber":52,"Velocity":58,"Duration":99337,"SoundDuration":99337,"Delta":37006733},{"NoteNumber":69,"Velocity":55,"Duration":97402,"SoundDuration":97402,"Delta":37205408},{"NoteNumber":74,"Velocity":55,"Duration":97402,"SoundDuration":97402,"Delta":37205408},{"NoteNumber":77,"Velocity":55,"Duration":97402,"SoundDuration":97402,"Delta":37205408},{"NoteNumber":38,"Velocity":59,"Duration":194805,"SoundDuration":194805,"Delta":37205408},{"NoteNumber":69,"Velocity":42,"Duration":97402,"SoundDuration":97402,"Delta":37400213},{"NoteNumber":74,"Velocity":42,"Duration":97402,"SoundDuration":97402,"Delta":37400213},{"NoteNumber":77,"Velocity":42,"Duration":97402,"SoundDuration":97402,"Delta":37400213},{"NoteNumber":50,"Velocity":49,"Duration":97402,"SoundDuration":97402,"Delta":37400213},{"NoteNumber":69,"Velocity":58,"Duration":95846,"SoundDuration":95846,"Delta":37595018},{"NoteNumber":73,"Velocity":58,"Duration":95846,"SoundDuration":95846,"Delta":37595018},{"NoteNumber":76,"Velocity":58,"Duration":95846,"SoundDuration":95846,"Delta":37595018},{"NoteNumber":33,"Velocity":58,"Duration":191693,"SoundDuration":191693,"Delta":37595018},{"NoteNumber":76,"Velocity":46,"Duration":95846,"SoundDuration":95846,"Delta":37786712},{"NoteNumber":73,"Velocity":46,"Duration":95846,"SoundDuration":95846,"Delta":37786712},{"NoteNumber":69,"Velocity":46,"Duration":95846,"SoundDuration":95846,"Delta":37786712},{"NoteNumber":45,"Velocity":52,"Duration":95846,"SoundDuration":95846,"Delta":37786712},{"NoteNumber":77,"Velocity":61,"Duration":94339,"SoundDuration":94339,"Delta":37978405},{"NoteNumber":74,"Velocity":61,"Duration":94339,"SoundDuration":94339,"Delta":37978405},{"NoteNumber":69,"Velocity":61,"Duration":94339,"SoundDuration":94339,"Delta":37978405},{"NoteNumber":38,"Velocity":59,"Duration":188679,"SoundDuration":188679,"Delta":37978405},{"NoteNumber":77,"Velocity":48,"Duration":94339,"SoundDuration":94339,"Delta":38167084},{"NoteNumber":74,"Velocity":48,"Duration":94339,"SoundDuration":94339,"Delta":38167084},{"NoteNumber":69,"Velocity":48,"Duration":94339,"SoundDuration":94339,"Delta":38167084},{"NoteNumber":50,"Velocity":53,"Duration":94339,"SoundDuration":94339,"Delta":38167084},{"NoteNumber":72,"Velocity":64,"Duration":95238,"SoundDuration":95238,"Delta":38355763},{"NoteNumber":76,"Velocity":64,"Duration":95238,"SoundDuration":95238,"Delta":38355763},{"NoteNumber":79,"Velocity":64,"Duration":95238,"SoundDuration":95238,"Delta":38355763},{"NoteNumber":36,"Velocity":64,"Duration":190475,"SoundDuration":190475,"Delta":38355763},{"NoteNumber":72,"Velocity":54,"Duration":99009,"SoundDuration":99009,"Delta":38546239},{"NoteNumber":76,"Velocity":54,"Duration":99009,"SoundDuration":99009,"Delta":38546239},{"NoteNumber":79,"Velocity":54,"Duration":99009,"SoundDuration":99009,"Delta":38546239},{"NoteNumber":48,"Velocity":55,"Duration":99009,"SoundDuration":99009,"Delta":38546239},{"NoteNumber":72,"Velocity":66,"Duration":96462,"SoundDuration":96462,"Delta":38744259},{"NoteNumber":77,"Velocity":66,"Duration":96462,"SoundDuration":96462,"Delta":38744259},{"NoteNumber":81,"Velocity":66,"Duration":96462,"SoundDuration":96462,"Delta":38744259},{"NoteNumber":41,"Velocity":73,"Duration":192925,"SoundDuration":192925,"Delta":38744259},{"NoteNumber":72,"Velocity":51,"Duration":96462,"SoundDuration":96462,"Delta":38937185},{"NoteNumber":77,"Velocity":51,"Duration":96462,"SoundDuration":96462,"Delta":38937185},{"NoteNumber":81,"Velocity":51,"Duration":96462,"SoundDuration":96462,"Delta":38937185},{"NoteNumber":53,"Velocity":60,"Duration":96462,"SoundDuration":96462,"Delta":38937185},{"NoteNumber":76,"Velocity":70,"Duration":95846,"SoundDuration":95846,"Delta":39130111},{"NoteNumber":80,"Velocity":70,"Duration":95846,"SoundDuration":95846,"Delta":39130111},{"NoteNumber":83,"Velocity":70,"Duration":95846,"SoundDuration":95846,"Delta":39130111},{"NoteNumber":40,"Velocity":71,"Duration":191693,"SoundDuration":191693,"Delta":39130111},{"NoteNumber":83,"Velocity":56,"Duration":95846,"SoundDuration":95846,"Delta":39321805},{"NoteNumber":80,"Velocity":56,"Duration":95846,"SoundDuration":95846,"Delta":39321805},{"NoteNumber":76,"Velocity":56,"Duration":95846,"SoundDuration":95846,"Delta":39321805},{"NoteNumber":52,"Velocity":63,"Duration":95846,"SoundDuration":95846,"Delta":39321805},{"NoteNumber":84,"Velocity":73,"Duration":94339,"SoundDuration":94339,"Delta":39513498},{"NoteNumber":81,"Velocity":73,"Duration":94339,"SoundDuration":94339,"Delta":39513498},{"NoteNumber":76,"Velocity":73,"Duration":94339,"SoundDuration":94339,"Delta":39513498},{"NoteNumber":45,"Velocity":71,"Duration":188679,"SoundDuration":188679,"Delta":39513498},{"NoteNumber":84,"Velocity":59,"Duration":94339,"SoundDuration":94339,"Delta":39702177},{"NoteNumber":81,"Velocity":59,"Duration":94339,"SoundDuration":94339,"Delta":39702177},{"NoteNumber":76,"Velocity":59,"Duration":94339,"SoundDuration":94339,"Delta":39702177},{"NoteNumber":57,"Velocity":63,"Duration":94339,"SoundDuration":94339,"Delta":39702177},{"NoteNumber":79,"Velocity":77,"Duration":95238,"SoundDuration":95238,"Delta":39890856},{"NoteNumber":83,"Velocity":77,"Duration":95238,"SoundDuration":95238,"Delta":39890856},{"NoteNumber":86,"Velocity":77,"Duration":95238,"SoundDuration":95238,"Delta":39890856},{"NoteNumber":43,"Velocity":77,"Duration":190475,"SoundDuration":190475,"Delta":39890856},{"NoteNumber":83,"Velocity":65,"Duration":99009,"SoundDuration":99009,"Delta":40081332},{"NoteNumber":79,"Velocity":65,"Duration":99009,"SoundDuration":99009,"Delta":40081332},{"NoteNumber":86,"Velocity":65,"Duration":99009,"SoundDuration":99009,"Delta":40081332},{"NoteNumber":55,"Velocity":66,"Duration":99009,"SoundDuration":99009,"Delta":40081332},{"NoteNumber":79,"Velocity":68,"Duration":95541,"SoundDuration":95541,"Delta":40279352},{"NoteNumber":84,"Velocity":81,"Duration":95541,"SoundDuration":95541,"Delta":40279352},{"NoteNumber":88,"Velocity":81,"Duration":95541,"SoundDuration":95541,"Delta":40279352},{"NoteNumber":48,"Velocity":82,"Duration":95541,"SoundDuration":95541,"Delta":40279352},{"NoteNumber":88,"Velocity":64,"Duration":95541,"SoundDuration":95541,"Delta":40470435},{"NoteNumber":84,"Velocity":64,"Duration":95541,"SoundDuration":95541,"Delta":40470435},{"NoteNumber":79,"Velocity":53,"Duration":95541,"SoundDuration":95541,"Delta":40470435},{"NoteNumber":60,"Velocity":65,"Duration":95541,"SoundDuration":95541,"Delta":40470435},{"NoteNumber":82,"Velocity":66,"Duration":95541,"SoundDuration":95541,"Delta":40661518},{"NoteNumber":86,"Velocity":79,"Duration":95541,"SoundDuration":95541,"Delta":40661518},{"NoteNumber":48,"Velocity":74,"Duration":95541,"SoundDuration":95541,"Delta":40661518},{"NoteNumber":86,"Velocity":62,"Duration":95541,"SoundDuration":95541,"Delta":40852601},{"NoteNumber":82,"Velocity":51,"Duration":95541,"SoundDuration":95541,"Delta":40852601},{"NoteNumber":60,"Velocity":58,"Duration":95541,"SoundDuration":95541,"Delta":40852601},{"NoteNumber":81,"Velocity":62,"Duration":94637,"SoundDuration":94637,"Delta":41043684},{"NoteNumber":84,"Velocity":73,"Duration":94637,"SoundDuration":94637,"Delta":41043684},{"NoteNumber":48,"Velocity":67,"Duration":94637,"SoundDuration":94637,"Delta":41043684},{"NoteNumber":81,"Velocity":52,"Duration":94637,"SoundDuration":94637,"Delta":41232959},{"NoteNumber":84,"Velocity":61,"Duration":94637,"SoundDuration":94637,"Delta":41232959},{"NoteNumber":60,"Velocity":55,"Duration":94637,"SoundDuration":94637,"Delta":41232959},{"NoteNumber":80,"Velocity":59,"Duration":95846,"SoundDuration":95846,"Delta":41422233},{"NoteNumber":83,"Velocity":72,"Duration":95846,"SoundDuration":95846,"Delta":41422233},{"NoteNumber":48,"Velocity":67,"Duration":95846,"SoundDuration":95846,"Delta":41422233},{"NoteNumber":83,"Velocity":54,"Duration":99337,"SoundDuration":99337,"Delta":41613927},{"NoteNumber":80,"Velocity":45,"Duration":99337,"SoundDuration":99337,"Delta":41613927},{"NoteNumber":60,"Velocity":58,"Duration":99337,"SoundDuration":99337,"Delta":41613927},{"NoteNumber":79,"Velocity":56,"Duration":95541,"SoundDuration":95541,"Delta":41812602},{"NoteNumber":82,"Velocity":67,"Duration":95541,"SoundDuration":95541,"Delta":41812602},{"NoteNumber":48,"Velocity":68,"Duration":95541,"SoundDuration":95541,"Delta":41812602},{"NoteNumber":82,"Velocity":51,"Duration":95541,"SoundDuration":95541,"Delta":42003685},{"NoteNumber":79,"Velocity":43,"Duration":95541,"SoundDuration":95541,"Delta":42003685},{"NoteNumber":60,"Velocity":52,"Duration":95541,"SoundDuration":95541,"Delta":42003685},{"NoteNumber":78,"Velocity":51,"Duration":95541,"SoundDuration":95541,"Delta":42194768},{"NoteNumber":81,"Velocity":61,"Duration":95541,"SoundDuration":95541,"Delta":42194768},{"NoteNumber":48,"Velocity":58,"Duration":95541,"SoundDuration":95541,"Delta":42194768},{"NoteNumber":81,"Velocity":47,"Duration":99667,"SoundDuration":99667,"Delta":42385851},{"NoteNumber":78,"Velocity":39,"Duration":99667,"SoundDuration":99667,"Delta":42385851},{"NoteNumber":60,"Velocity":44,"Duration":99667,"SoundDuration":99667,"Delta":42385851},{"NoteNumber":79,"Velocity":41,"Duration":104968,"SoundDuration":104968,"Delta":42585187},{"NoteNumber":82,"Velocity":49,"Duration":104968,"SoundDuration":104968,"Delta":42585187},{"NoteNumber":48,"Velocity":45,"Duration":104968,"SoundDuration":104968,"Delta":42585187},{"NoteNumber":79,"Velocity":32,"Duration":106458,"SoundDuration":106458,"Delta":42795124},{"NoteNumber":82,"Velocity":38,"Duration":106458,"SoundDuration":106458,"Delta":42795124},{"NoteNumber":60,"Velocity":34,"Duration":106458,"SoundDuration":106458,"Delta":42795124},{"NoteNumber":72,"Velocity":34,"Duration":108774,"SoundDuration":108774,"Delta":43008041},{"NoteNumber":84,"Velocity":41,"Duration":108774,"SoundDuration":108774,"Delta":43008041},{"NoteNumber":48,"Velocity":39,"Duration":108774,"SoundDuration":108774,"Delta":43008041},{"NoteNumber":84,"Velocity":29,"Duration":117739,"SoundDuration":117739,"Delta":43225590},{"NoteNumber":72,"Velocity":24,"Duration":117739,"SoundDuration":117739,"Delta":43225590},{"NoteNumber":60,"Velocity":30,"Duration":117739,"SoundDuration":117739,"Delta":43225590},{"NoteNumber":72,"Velocity":37,"Duration":97402,"SoundDuration":97402,"Delta":43461069},{"NoteNumber":60,"Velocity":31,"Duration":97402,"SoundDuration":97402,"Delta":43461069},{"NoteNumber":57,"Velocity":24,"Duration":97402,"SoundDuration":97402,"Delta":43461069},{"NoteNumber":53,"Velocity":24,"Duration":97402,"SoundDuration":97402,"Delta":43461069},{"NoteNumber":84,"Velocity":35,"Duration":97402,"SoundDuration":97402,"Delta":43655874},{"NoteNumber":53,"Velocity":16,"Duration":97402,"SoundDuration":97402,"Delta":43655874},{"NoteNumber":57,"Velocity":16,"Duration":97402,"SoundDuration":97402,"Delta":43655874},{"NoteNumber":60,"Velocity":20,"Duration":97402,"SoundDuration":97402,"Delta":43655874},{"NoteNumber":77,"Velocity":39,"Duration":95846,"SoundDuration":95846,"Delta":43850679},{"NoteNumber":60,"Velocity":31,"Duration":95846,"SoundDuration":95846,"Delta":43850679},{"NoteNumber":57,"Velocity":24,"Duration":95846,"SoundDuration":95846,"Delta":43850679},{"NoteNumber":53,"Velocity":24,"Duration":95846,"SoundDuration":95846,"Delta":43850679},{"NoteNumber":89,"Velocity":38,"Duration":95846,"SoundDuration":95846,"Delta":44042372},{"NoteNumber":53,"Velocity":18,"Duration":95846,"SoundDuration":95846,"Delta":44042372},{"NoteNumber":57,"Velocity":18,"Duration":95846,"SoundDuration":95846,"Delta":44042372},{"NoteNumber":60,"Velocity":23,"Duration":95846,"SoundDuration":95846,"Delta":44042372},{"NoteNumber":81,"Velocity":41,"Duration":94339,"SoundDuration":94339,"Delta":44234066},{"NoteNumber":53,"Velocity":28,"Duration":94339,"SoundDuration":94339,"Delta":44234066},{"NoteNumber":57,"Velocity":28,"Duration":94339,"SoundDuration":94339,"Delta":44234066},{"NoteNumber":60,"Velocity":36,"Duration":94339,"SoundDuration":94339,"Delta":44234066},{"NoteNumber":93,"Velocity":40,"Duration":94339,"SoundDuration":94339,"Delta":44422745},{"NoteNumber":53,"Velocity":19,"Duration":94339,"SoundDuration":94339,"Delta":44422745},{"NoteNumber":57,"Velocity":19,"Duration":94339,"SoundDuration":94339,"Delta":44422745},{"NoteNumber":60,"Velocity":24,"Duration":94339,"SoundDuration":94339,"Delta":44422745},{"NoteNumber":79,"Velocity":46,"Duration":95238,"SoundDuration":95238,"Delta":44611424},{"NoteNumber":53,"Velocity":29,"Duration":95238,"SoundDuration":95238,"Delta":44611424},{"NoteNumber":57,"Velocity":29,"Duration":95238,"SoundDuration":95238,"Delta":44611424},{"NoteNumber":60,"Velocity":37,"Duration":95238,"SoundDuration":95238,"Delta":44611424},{"NoteNumber":91,"Velocity":42,"Duration":99009,"SoundDuration":99009,"Delta":44801900},{"NoteNumber":53,"Velocity":19,"Duration":99009,"SoundDuration":99009,"Delta":44801900},{"NoteNumber":57,"Velocity":19,"Duration":99009,"SoundDuration":99009,"Delta":44801900},{"NoteNumber":60,"Velocity":24,"Duration":99009,"SoundDuration":99009,"Delta":44801900},{"NoteNumber":77,"Velocity":49,"Duration":95541,"SoundDuration":95541,"Delta":44999920},{"NoteNumber":53,"Velocity":30,"Duration":95541,"SoundDuration":95541,"Delta":44999920},{"NoteNumber":57,"Velocity":30,"Duration":95541,"SoundDuration":95541,"Delta":44999920},{"NoteNumber":61,"Velocity":38,"Duration":95541,"SoundDuration":95541,"Delta":44999920},{"NoteNumber":89,"Velocity":43,"Duration":95541,"SoundDuration":95541,"Delta":45191003},{"NoteNumber":61,"Velocity":24,"Duration":95541,"SoundDuration":95541,"Delta":45191003},{"NoteNumber":57,"Velocity":19,"Duration":95541,"SoundDuration":95541,"Delta":45191003},{"NoteNumber":53,"Velocity":19,"Duration":95541,"SoundDuration":95541,"Delta":45191003},{"NoteNumber":76,"Velocity":49,"Duration":95541,"SoundDuration":95541,"Delta":45382086},{"NoteNumber":53,"Velocity":33,"Duration":95541,"SoundDuration":95541,"Delta":45382086},{"NoteNumber":57,"Velocity":33,"Duration":95541,"SoundDuration":95541,"Delta":45382086},{"NoteNumber":61,"Velocity":42,"Duration":95541,"SoundDuration":95541,"Delta":45382086},{"NoteNumber":88,"Velocity":46,"Duration":95541,"SoundDuration":95541,"Delta":45573169},{"NoteNumber":61,"Velocity":27,"Duration":95541,"SoundDuration":95541,"Delta":45573169},{"NoteNumber":57,"Velocity":21,"Duration":95541,"SoundDuration":95541,"Delta":45573169},{"NoteNumber":53,"Velocity":21,"Duration":95541,"SoundDuration":95541,"Delta":45573169},{"NoteNumber":79,"Velocity":58,"Duration":94637,"SoundDuration":94637,"Delta":45764252},{"NoteNumber":62,"Velocity":47,"Duration":94637,"SoundDuration":94637,"Delta":45764252},{"NoteNumber":57,"Velocity":37,"Duration":94637,"SoundDuration":94637,"Delta":45764252},{"NoteNumber":53,"Velocity":37,"Duration":94637,"SoundDuration":94637,"Delta":45764252},{"NoteNumber":91,"Velocity":41,"Duration":94637,"SoundDuration":94637,"Delta":45953526},{"NoteNumber":53,"Velocity":21,"Duration":94637,"SoundDuration":94637,"Delta":45953526},{"NoteNumber":57,"Velocity":21,"Duration":94637,"SoundDuration":94637,"Delta":45953526},{"NoteNumber":62,"Velocity":27,"Duration":94637,"SoundDuration":94637,"Delta":45953526},{"NoteNumber":77,"Velocity":51,"Duration":95846,"SoundDuration":95846,"Delta":46142801},{"NoteNumber":53,"Velocity":29,"Duration":95846,"SoundDuration":95846,"Delta":46142801},{"NoteNumber":57,"Velocity":29,"Duration":95846,"SoundDuration":95846,"Delta":46142801},{"NoteNumber":62,"Velocity":37,"Duration":95846,"SoundDuration":95846,"Delta":46142801},{"NoteNumber":89,"Velocity":42,"Duration":99337,"SoundDuration":99337,"Delta":46334494},{"NoteNumber":53,"Velocity":19,"Duration":99337,"SoundDuration":99337,"Delta":46334494},{"NoteNumber":57,"Velocity":19,"Duration":99337,"SoundDuration":99337,"Delta":46334494},{"NoteNumber":62,"Velocity":24,"Duration":99337,"SoundDuration":99337,"Delta":46334494},{"NoteNumber":76,"Velocity":55,"Duration":96774,"SoundDuration":96774,"Delta":46533170},{"NoteNumber":53,"Velocity":27,"Duration":96774,"SoundDuration":96774,"Delta":46533170},{"NoteNumber":62,"Velocity":35,"Duration":96774,"SoundDuration":96774,"Delta":46533170},{"NoteNumber":58,"Velocity":27,"Duration":96774,"SoundDuration":96774,"Delta":46533170},{"NoteNumber":55,"Velocity":27,"Duration":96774,"SoundDuration":96774,"Delta":46533170},{"NoteNumber":88,"Velocity":43,"Duration":96774,"SoundDuration":96774,"Delta":46726718},{"NoteNumber":53,"Velocity":16,"Duration":96774,"SoundDuration":96774,"Delta":46726718},{"NoteNumber":55,"Velocity":16,"Duration":96774,"SoundDuration":96774,"Delta":46726718},{"NoteNumber":58,"Velocity":16,"Duration":96774,"SoundDuration":96774,"Delta":46726718},{"NoteNumber":62,"Velocity":20,"Duration":96774,"SoundDuration":96774,"Delta":46726718},{"NoteNumber":74,"Velocity":49,"Duration":95541,"SoundDuration":95541,"Delta":46920267},{"NoteNumber":55,"Velocity":24,"Duration":95541,"SoundDuration":95541,"Delta":46920267},{"NoteNumber":62,"Velocity":31,"Duration":95541,"SoundDuration":95541,"Delta":46920267},{"NoteNumber":58,"Velocity":24,"Duration":95541,"SoundDuration":95541,"Delta":46920267},{"NoteNumber":53,"Velocity":24,"Duration":95541,"SoundDuration":95541,"Delta":46920267},{"NoteNumber":86,"Velocity":40,"Duration":95541,"SoundDuration":95541,"Delta":47111350},{"NoteNumber":55,"Velocity":18,"Duration":95541,"SoundDuration":95541,"Delta":47111350},{"NoteNumber":53,"Velocity":18,"Duration":95541,"SoundDuration":95541,"Delta":47111350},{"NoteNumber":58,"Velocity":18,"Duration":95541,"SoundDuration":95541,"Delta":47111350},{"NoteNumber":62,"Velocity":23,"Duration":95541,"SoundDuration":95541,"Delta":47111350},{"NoteNumber":67,"Velocity":44,"Duration":96153,"SoundDuration":96153,"Delta":47302433},{"NoteNumber":55,"Velocity":28,"Duration":96153,"SoundDuration":96153,"Delta":47302433},{"NoteNumber":53,"Velocity":28,"Duration":96153,"SoundDuration":96153,"Delta":47302433},{"NoteNumber":58,"Velocity":28,"Duration":96153,"SoundDuration":96153,"Delta":47302433},{"NoteNumber":62,"Velocity":36,"Duration":96153,"SoundDuration":96153,"Delta":47302433},{"NoteNumber":79,"Velocity":43,"Duration":96153,"SoundDuration":96153,"Delta":47494740},{"NoteNumber":55,"Velocity":19,"Duration":96153,"SoundDuration":96153,"Delta":47494740},{"NoteNumber":53,"Velocity":19,"Duration":96153,"SoundDuration":96153,"Delta":47494740},{"NoteNumber":58,"Velocity":19,"Duration":96153,"SoundDuration":96153,"Delta":47494740},{"NoteNumber":62,"Velocity":24,"Duration":96153,"SoundDuration":96153,"Delta":47494740},{"NoteNumber":69,"Velocity":48,"Duration":96462,"SoundDuration":96462,"Delta":47687048},{"NoteNumber":55,"Velocity":29,"Duration":96462,"SoundDuration":96462,"Delta":47687048},{"NoteNumber":53,"Velocity":29,"Duration":96462,"SoundDuration":96462,"Delta":47687048},{"NoteNumber":58,"Velocity":29,"Duration":96462,"SoundDuration":96462,"Delta":47687048},{"NoteNumber":62,"Velocity":37,"Duration":96462,"SoundDuration":96462,"Delta":47687048},{"NoteNumber":81,"Velocity":45,"Duration":98039,"SoundDuration":98039,"Delta":47879974},{"NoteNumber":55,"Velocity":19,"Duration":98039,"SoundDuration":98039,"Delta":47879974},{"NoteNumber":53,"Velocity":19,"Duration":98039,"SoundDuration":98039,"Delta":47879974},{"NoteNumber":58,"Velocity":19,"Duration":98039,"SoundDuration":98039,"Delta":47879974},{"NoteNumber":62,"Velocity":24,"Duration":98039,"SoundDuration":98039,"Delta":47879974},{"NoteNumber":70,"Velocity":58,"Duration":96153,"SoundDuration":96153,"Delta":48076052},{"NoteNumber":52,"Velocity":30,"Duration":96153,"SoundDuration":96153,"Delta":48076052},{"NoteNumber":55,"Velocity":30,"Duration":96153,"SoundDuration":96153,"Delta":48076052},{"NoteNumber":60,"Velocity":38,"Duration":96153,"SoundDuration":96153,"Delta":48076052},{"NoteNumber":82,"Velocity":51,"Duration":96153,"SoundDuration":96153,"Delta":48268360},{"NoteNumber":60,"Velocity":24,"Duration":96153,"SoundDuration":96153,"Delta":48268360},{"NoteNumber":55,"Velocity":19,"Duration":96153,"SoundDuration":96153,"Delta":48268360},{"NoteNumber":52,"Velocity":19,"Duration":96153,"SoundDuration":96153,"Delta":48268360},{"NoteNumber":71,"Velocity":53,"Duration":96153,"SoundDuration":96153,"Delta":48460667},{"NoteNumber":52,"Velocity":33,"Duration":96153,"SoundDuration":96153,"Delta":48460667},{"NoteNumber":55,"Velocity":33,"Duration":96153,"SoundDuration":96153,"Delta":48460667},{"NoteNumber":60,"Velocity":42,"Duration":96153,"SoundDuration":96153,"Delta":48460667},{"NoteNumber":83,"Velocity":50,"Duration":98360,"SoundDuration":98360,"Delta":48652975},{"NoteNumber":60,"Velocity":27,"Duration":98360,"SoundDuration":98360,"Delta":48652975},{"NoteNumber":55,"Velocity":21,"Duration":98360,"SoundDuration":98360,"Delta":48652975},{"NoteNumber":52,"Velocity":21,"Duration":98360,"SoundDuration":98360,"Delta":48652975},{"NoteNumber":72,"Velocity":58,"Duration":97402,"SoundDuration":97402,"Delta":48849696},{"NoteNumber":60,"Velocity":47,"Duration":97402,"SoundDuration":97402,"Delta":48849696},{"NoteNumber":55,"Velocity":37,"Duration":97402,"SoundDuration":97402,"Delta":48849696},{"NoteNumber":52,"Velocity":37,"Duration":97402,"SoundDuration":97402,"Delta":48849696},{"NoteNumber":84,"Velocity":43,"Duration":97402,"SoundDuration":97402,"Delta":49044501},{"NoteNumber":52,"Velocity":21,"Duration":97402,"SoundDuration":97402,"Delta":49044501},{"NoteNumber":55,"Velocity":21,"Duration":97402,"SoundDuration":97402,"Delta":49044501},{"NoteNumber":60,"Velocity":27,"Duration":97402,"SoundDuration":97402,"Delta":49044501},{"NoteNumber":70,"Velocity":52,"Duration":99337,"SoundDuration":99337,"Delta":49239306},{"NoteNumber":52,"Velocity":29,"Duration":99337,"SoundDuration":99337,"Delta":49239306},{"NoteNumber":55,"Velocity":29,"Duration":99337,"SoundDuration":99337,"Delta":49239306},{"NoteNumber":60,"Velocity":37,"Duration":99337,"SoundDuration":99337,"Delta":49239306},{"NoteNumber":82,"Velocity":43,"Duration":104529,"SoundDuration":104529,"Delta":49437982},{"NoteNumber":52,"Velocity":19,"Duration":104529,"SoundDuration":104529,"Delta":49437982},{"NoteNumber":55,"Velocity":19,"Duration":104529,"SoundDuration":104529,"Delta":49437982},{"NoteNumber":60,"Velocity":24,"Duration":104529,"SoundDuration":104529,"Delta":49437982},{"NoteNumber":72,"Velocity":55,"Duration":98039,"SoundDuration":98039,"Delta":49647041},{"NoteNumber":53,"Velocity":29,"Duration":98039,"SoundDuration":98039,"Delta":49647041},{"NoteNumber":57,"Velocity":29,"Duration":98039,"SoundDuration":98039,"Delta":49647041},{"NoteNumber":60,"Velocity":37,"Duration":98039,"SoundDuration":98039,"Delta":49647041},{"NoteNumber":84,"Velocity":46,"Duration":98039,"SoundDuration":98039,"Delta":49843119},{"NoteNumber":60,"Velocity":24,"Duration":98039,"SoundDuration":98039,"Delta":49843119},{"NoteNumber":57,"Velocity":19,"Duration":98039,"SoundDuration":98039,"Delta":49843119},{"NoteNumber":53,"Velocity":19,"Duration":98039,"SoundDuration":98039,"Delta":49843119},{"NoteNumber":77,"Velocity":55,"Duration":96153,"SoundDuration":96153,"Delta":50039198},{"NoteNumber":53,"Velocity":32,"Duration":96153,"SoundDuration":96153,"Delta":50039198},{"NoteNumber":57,"Velocity":32,"Duration":96153,"SoundDuration":96153,"Delta":50039198},{"NoteNumber":60,"Velocity":40,"Duration":96153,"SoundDuration":96153,"Delta":50039198},{"NoteNumber":89,"Velocity":44,"Duration":98360,"SoundDuration":98360,"Delta":50231505},{"NoteNumber":60,"Velocity":28,"Duration":98360,"SoundDuration":98360,"Delta":50231505},{"NoteNumber":57,"Velocity":21,"Duration":98360,"SoundDuration":98360,"Delta":50231505},{"NoteNumber":53,"Velocity":21,"Duration":98360,"SoundDuration":98360,"Delta":50231505},{"NoteNumber":77,"Velocity":62,"Duration":95846,"SoundDuration":95846,"Delta":50428227},{"NoteNumber":67,"Velocity":47,"Duration":95846,"SoundDuration":95846,"Delta":50428227},{"NoteNumber":57,"Velocity":36,"Duration":95846,"SoundDuration":95846,"Delta":50428227},{"NoteNumber":61,"Velocity":36,"Duration":95846,"SoundDuration":95846,"Delta":50428227},{"NoteNumber":89,"Velocity":52,"Duration":95846,"SoundDuration":95846,"Delta":50619920},{"NoteNumber":67,"Velocity":31,"Duration":95846,"SoundDuration":95846,"Delta":50619920},{"NoteNumber":57,"Velocity":24,"Duration":95846,"SoundDuration":95846,"Delta":50619920},{"NoteNumber":61,"Velocity":24,"Duration":95846,"SoundDuration":95846,"Delta":50619920},{"NoteNumber":76,"Velocity":64,"Duration":95846,"SoundDuration":95846,"Delta":50811614},{"NoteNumber":67,"Velocity":44,"Duration":95846,"SoundDuration":95846,"Delta":50811614},{"NoteNumber":57,"Velocity":35,"Duration":95846,"SoundDuration":95846,"Delta":50811614},{"NoteNumber":61,"Velocity":35,"Duration":95846,"SoundDuration":95846,"Delta":50811614},{"NoteNumber":88,"Velocity":50,"Duration":99337,"SoundDuration":99337,"Delta":51003307},{"NoteNumber":67,"Velocity":30,"Duration":99337,"SoundDuration":99337,"Delta":51003307},{"NoteNumber":57,"Velocity":24,"Duration":99337,"SoundDuration":99337,"Delta":51003307},{"NoteNumber":61,"Velocity":24,"Duration":99337,"SoundDuration":99337,"Delta":51003307},{"NoteNumber":76,"Velocity":72,"Duration":96462,"SoundDuration":96462,"Delta":51201983},{"NoteNumber":67,"Velocity":50,"Duration":96462,"SoundDuration":96462,"Delta":51201983},{"NoteNumber":61,"Velocity":38,"Duration":96462,"SoundDuration":96462,"Delta":51201983},{"NoteNumber":58,"Velocity":38,"Duration":96462,"SoundDuration":96462,"Delta":51201983},{"NoteNumber":88,"Velocity":65,"Duration":96462,"SoundDuration":96462,"Delta":51394909},{"NoteNumber":67,"Velocity":33,"Duration":96462,"SoundDuration":96462,"Delta":51394909},{"NoteNumber":61,"Velocity":26,"Duration":96462,"SoundDuration":96462,"Delta":51394909},{"NoteNumber":58,"Velocity":26,"Duration":96462,"SoundDuration":96462,"Delta":51394909},{"NoteNumber":74,"Velocity":70,"Duration":96462,"SoundDuration":96462,"Delta":51587835},{"NoteNumber":65,"Velocity":49,"Duration":96462,"SoundDuration":96462,"Delta":51587835},{"NoteNumber":62,"Velocity":39,"Duration":96462,"SoundDuration":96462,"Delta":51587835},{"NoteNumber":58,"Velocity":39,"Duration":96462,"SoundDuration":96462,"Delta":51587835},{"NoteNumber":86,"Velocity":57,"Duration":97783,"SoundDuration":97783,"Delta":51780761},{"NoteNumber":58,"Velocity":22,"Duration":97783,"SoundDuration":97783,"Delta":51780761},{"NoteNumber":62,"Velocity":22,"Duration":97783,"SoundDuration":97783,"Delta":51780761},{"NoteNumber":65,"Velocity":28,"Duration":97783,"SoundDuration":97783,"Delta":51780761},{"NoteNumber":72,"Velocity":63,"Duration":96153,"SoundDuration":96153,"Delta":51976328},{"NoteNumber":69,"Velocity":47,"Duration":96153,"SoundDuration":96153,"Delta":51976328},{"NoteNumber":62,"Velocity":36,"Duration":96153,"SoundDuration":96153,"Delta":51976328},{"NoteNumber":58,"Velocity":36,"Duration":96153,"SoundDuration":96153,"Delta":51976328},{"NoteNumber":84,"Velocity":49,"Duration":96153,"SoundDuration":96153,"Delta":52168635},{"NoteNumber":69,"Velocity":27,"Duration":96153,"SoundDuration":96153,"Delta":52168635},{"NoteNumber":62,"Velocity":21,"Duration":96153,"SoundDuration":96153,"Delta":52168635},{"NoteNumber":58,"Velocity":21,"Duration":96153,"SoundDuration":96153,"Delta":52168635},{"NoteNumber":70,"Velocity":58,"Duration":96153,"SoundDuration":96153,"Delta":52360943},{"NoteNumber":67,"Velocity":46,"Duration":96153,"SoundDuration":96153,"Delta":52360943},{"NoteNumber":62,"Velocity":36,"Duration":96153,"SoundDuration":96153,"Delta":52360943},{"NoteNumber":58,"Velocity":36,"Duration":96153,"SoundDuration":96153,"Delta":52360943},{"NoteNumber":82,"Velocity":48,"Duration":99337,"SoundDuration":99337,"Delta":52553250},{"NoteNumber":67,"Velocity":29,"Duration":99337,"SoundDuration":99337,"Delta":52553250},{"NoteNumber":62,"Velocity":23,"Duration":99337,"SoundDuration":99337,"Delta":52553250},{"NoteNumber":58,"Velocity":23,"Duration":99337,"SoundDuration":99337,"Delta":52553250},{"NoteNumber":69,"Velocity":60,"Duration":96462,"SoundDuration":96462,"Delta":52751926},{"NoteNumber":60,"Velocity":39,"Duration":96462,"SoundDuration":96462,"Delta":52751926},{"NoteNumber":65,"Velocity":46,"Duration":96462,"SoundDuration":96462,"Delta":52751926},{"NoteNumber":81,"Velocity":48,"Duration":96462,"SoundDuration":96462,"Delta":52944852},{"NoteNumber":65,"Velocity":36,"Duration":96462,"SoundDuration":96462,"Delta":52944852},{"NoteNumber":60,"Velocity":31,"Duration":96462,"SoundDuration":96462,"Delta":52944852},{"NoteNumber":65,"Velocity":58,"Duration":96462,"SoundDuration":96462,"Delta":53137778},{"NoteNumber":57,"Velocity":36,"Duration":96462,"SoundDuration":96462,"Delta":53137778},{"NoteNumber":60,"Velocity":44,"Duration":96462,"SoundDuration":96462,"Delta":53137778},{"NoteNumber":77,"Velocity":50,"Duration":98039,"SoundDuration":98039,"Delta":53330704},{"NoteNumber":60,"Velocity":37,"Duration":98039,"SoundDuration":98039,"Delta":53330704},{"NoteNumber":57,"Velocity":31,"Duration":98039,"SoundDuration":98039,"Delta":53330704},{"NoteNumber":65,"Velocity":66,"Duration":96153,"SoundDuration":96153,"Delta":53526782},{"NoteNumber":61,"Velocity":49,"Duration":96153,"SoundDuration":96153,"Delta":53526782},{"NoteNumber":58,"Velocity":41,"Duration":96153,"SoundDuration":96153,"Delta":53526782},{"NoteNumber":55,"Velocity":41,"Duration":96153,"SoundDuration":96153,"Delta":53526782},{"NoteNumber":77,"Velocity":60,"Duration":96153,"SoundDuration":96153,"Delta":53719090},{"NoteNumber":61,"Velocity":44,"Duration":96153,"SoundDuration":96153,"Delta":53719090},{"NoteNumber":58,"Velocity":36,"Duration":96153,"SoundDuration":96153,"Delta":53719090},{"NoteNumber":55,"Velocity":36,"Duration":96153,"SoundDuration":96153,"Delta":53719090},{"NoteNumber":64,"Velocity":64,"Duration":96462,"SoundDuration":96462,"Delta":53911397},{"NoteNumber":60,"Velocity":54,"Duration":96462,"SoundDuration":96462,"Delta":53911397},{"NoteNumber":58,"Velocity":44,"Duration":96462,"SoundDuration":96462,"Delta":53911397},{"NoteNumber":55,"Velocity":44,"Duration":96462,"SoundDuration":96462,"Delta":53911397},{"NoteNumber":76,"Velocity":51,"Duration":99337,"SoundDuration":99337,"Delta":54104323},{"NoteNumber":60,"Velocity":47,"Duration":99337,"SoundDuration":99337,"Delta":54104323},{"NoteNumber":58,"Velocity":39,"Duration":99337,"SoundDuration":99337,"Delta":54104323},{"NoteNumber":55,"Velocity":39,"Duration":99337,"SoundDuration":99337,"Delta":54104323},{"NoteNumber":65,"Velocity":59,"Duration":95541,"SoundDuration":95541,"Delta":54302999},{"NoteNumber":60,"Velocity":43,"Duration":388451,"SoundDuration":388451,"Delta":54302999},{"NoteNumber":57,"Velocity":36,"Duration":388451,"SoundDuration":388451,"Delta":54302999},{"NoteNumber":53,"Velocity":36,"Duration":388451,"SoundDuration":388451,"Delta":54302999},{"NoteNumber":65,"Velocity":44,"Duration":98684,"SoundDuration":98684,"Delta":54494082},{"NoteNumber":77,"Velocity":52,"Duration":98684,"SoundDuration":98684,"Delta":54494082},{"NoteNumber":77,"Velocity":61,"Duration":96462,"SoundDuration":96462,"Delta":54691450},{"NoteNumber":65,"Velocity":51,"Duration":96462,"SoundDuration":96462,"Delta":54691450},{"NoteNumber":53,"Velocity":39,"Duration":98360,"SoundDuration":98360,"Delta":54884376},{"NoteNumber":65,"Velocity":47,"Duration":98360,"SoundDuration":98360,"Delta":54884376},{"NoteNumber":53,"Velocity":45,"Duration":393442,"SoundDuration":393442,"Delta":55081098},{"NoteNumber":65,"Velocity":53,"Duration":295082,"SoundDuration":295082,"Delta":55081098},{"NoteNumber":65,"Velocity":38,"Duration":196721,"SoundDuration":196721,"Delta":55277819},{"NoteNumber":77,"Velocity":45,"Duration":98360,"SoundDuration":98360,"Delta":55277819},{"NoteNumber":77,"Velocity":51,"Duration":99667,"SoundDuration":99667,"Delta":55474541},{"NoteNumber":65,"Velocity":43,"Duration":99667,"SoundDuration":99667,"Delta":55474541},{"NoteNumber":51,"Velocity":42,"Duration":104894,"SoundDuration":104894,"Delta":55673876},{"NoteNumber":63,"Velocity":51,"Duration":104894,"SoundDuration":104894,"Delta":55673876},{"NoteNumber":49,"Velocity":49,"Duration":405229,"SoundDuration":405229,"Delta":55883666},{"NoteNumber":61,"Velocity":58,"Duration":405229,"SoundDuration":405229,"Delta":55883666},{"NoteNumber":65,"Velocity":44,"Duration":97719,"SoundDuration":97719,"Delta":56093456},{"NoteNumber":77,"Velocity":52,"Duration":97719,"SoundDuration":97719,"Delta":56093456},{"NoteNumber":77,"Velocity":61,"Duration":96462,"SoundDuration":96462,"Delta":56288896},{"NoteNumber":65,"Velocity":51,"Duration":96462,"SoundDuration":96462,"Delta":56288896},{"NoteNumber":53,"Velocity":39,"Duration":98360,"SoundDuration":98360,"Delta":56481822},{"NoteNumber":65,"Velocity":47,"Duration":98360,"SoundDuration":98360,"Delta":56481822},{"NoteNumber":53,"Velocity":45,"Duration":393442,"SoundDuration":393442,"Delta":56678543},{"NoteNumber":65,"Velocity":53,"Duration":295082,"SoundDuration":295082,"Delta":56678543},{"NoteNumber":77,"Velocity":53,"Duration":98360,"SoundDuration":98360,"Delta":56875265},{"NoteNumber":65,"Velocity":45,"Duration":196721,"SoundDuration":196721,"Delta":56875265},{"NoteNumber":65,"Velocity":48,"Duration":99667,"SoundDuration":99667,"Delta":57071986},{"NoteNumber":77,"Velocity":57,"Duration":99667,"SoundDuration":99667,"Delta":57071986},{"NoteNumber":61,"Velocity":61,"Duration":103163,"SoundDuration":103163,"Delta":57271322},{"NoteNumber":49,"Velocity":51,"Duration":103163,"SoundDuration":103163,"Delta":57271322},{"NoteNumber":60,"Velocity":69,"Duration":405846,"SoundDuration":405846,"Delta":57477649},{"NoteNumber":48,"Velocity":58,"Duration":405846,"SoundDuration":405846,"Delta":57477649},{"NoteNumber":75,"Velocity":52,"Duration":98684,"SoundDuration":98684,"Delta":57686127},{"NoteNumber":65,"Velocity":44,"Duration":98684,"SoundDuration":98684,"Delta":57686127},{"NoteNumber":77,"Velocity":52,"Duration":98684,"SoundDuration":98684,"Delta":57686127},{"NoteNumber":75,"Velocity":61,"Duration":96462,"SoundDuration":96462,"Delta":57883496},{"NoteNumber":77,"Velocity":61,"Duration":96462,"SoundDuration":96462,"Delta":57883496},{"NoteNumber":65,"Velocity":51,"Duration":96462,"SoundDuration":96462,"Delta":57883496},{"NoteNumber":65,"Velocity":54,"Duration":98360,"SoundDuration":98360,"Delta":58076422},{"NoteNumber":53,"Velocity":45,"Duration":98360,"SoundDuration":98360,"Delta":58076422},{"NoteNumber":65,"Velocity":63,"Duration":295082,"SoundDuration":295082,"Delta":58273143},{"NoteNumber":53,"Velocity":53,"Duration":393442,"SoundDuration":393442,"Delta":58273143},{"NoteNumber":77,"Velocity":51,"Duration":98360,"SoundDuration":98360,"Delta":58469865},{"NoteNumber":65,"Velocity":43,"Duration":196721,"SoundDuration":196721,"Delta":58469865},{"NoteNumber":75,"Velocity":51,"Duration":98360,"SoundDuration":98360,"Delta":58469865},{"NoteNumber":65,"Velocity":48,"Duration":99667,"SoundDuration":99667,"Delta":58666586},{"NoteNumber":77,"Velocity":57,"Duration":99667,"SoundDuration":99667,"Delta":58666586},{"NoteNumber":75,"Velocity":57,"Duration":99667,"SoundDuration":99667,"Delta":58666586},{"NoteNumber":60,"Velocity":62,"Duration":102810,"SoundDuration":102810,"Delta":58865922},{"NoteNumber":48,"Velocity":52,"Duration":102810,"SoundDuration":102810,"Delta":58865922},{"NoteNumber":58,"Velocity":79,"Duration":404556,"SoundDuration":404556,"Delta":59071542},{"NoteNumber":46,"Velocity":67,"Duration":404556,"SoundDuration":404556,"Delta":59071542},{"NoteNumber":77,"Velocity":57,"Duration":98039,"SoundDuration":98039,"Delta":59280020},{"NoteNumber":65,"Velocity":48,"Duration":98039,"SoundDuration":98039,"Delta":59280020},{"NoteNumber":73,"Velocity":57,"Duration":98039,"SoundDuration":98039,"Delta":59280020},{"NoteNumber":65,"Velocity":56,"Duration":96462,"SoundDuration":96462,"Delta":59476099},{"NoteNumber":77,"Velocity":66,"Duration":96462,"SoundDuration":96462,"Delta":59476099},{"NoteNumber":73,"Velocity":66,"Duration":96462,"SoundDuration":96462,"Delta":59476099},{"NoteNumber":65,"Velocity":64,"Duration":98360,"SoundDuration":98360,"Delta":59669025},{"NoteNumber":53,"Velocity":54,"Duration":98360,"SoundDuration":98360,"Delta":59669025},{"NoteNumber":65,"Velocity":78,"Duration":295082,"SoundDuration":295082,"Delta":59865746},{"NoteNumber":53,"Velocity":66,"Duration":393442,"SoundDuration":393442,"Delta":59865746},{"NoteNumber":77,"Velocity":54,"Duration":98360,"SoundDuration":98360,"Delta":60062468},{"NoteNumber":65,"Velocity":45,"Duration":196721,"SoundDuration":196721,"Delta":60062468},{"NoteNumber":73,"Velocity":54,"Duration":98360,"SoundDuration":98360,"Delta":60062468},{"NoteNumber":65,"Velocity":50,"Duration":99667,"SoundDuration":99667,"Delta":60259189},{"NoteNumber":77,"Velocity":59,"Duration":99667,"SoundDuration":99667,"Delta":60259189},{"NoteNumber":73,"Velocity":59,"Duration":99667,"SoundDuration":99667,"Delta":60259189},{"NoteNumber":58,"Velocity":81,"Duration":108381,"SoundDuration":108381,"Delta":60458525},{"NoteNumber":46,"Velocity":68,"Duration":108381,"SoundDuration":108381,"Delta":60458525},{"NoteNumber":57,"Velocity":88,"Duration":208477,"SoundDuration":208477,"Delta":60675288},{"NoteNumber":45,"Velocity":74,"Duration":208477,"SoundDuration":208477,"Delta":60675288},{"NoteNumber":77,"Velocity":60,"Duration":98039,"SoundDuration":98039,"Delta":60883766},{"NoteNumber":72,"Velocity":51,"Duration":98039,"SoundDuration":98039,"Delta":60883766},{"NoteNumber":65,"Velocity":51,"Duration":98039,"SoundDuration":98039,"Delta":60883766},{"NoteNumber":60,"Velocity":54,"Duration":98039,"SoundDuration":98039,"Delta":60883766},{"NoteNumber":57,"Velocity":45,"Duration":98039,"SoundDuration":98039,"Delta":60883766},{"NoteNumber":77,"Velocity":60,"Duration":96462,"SoundDuration":96462,"Delta":61079844},{"NoteNumber":72,"Velocity":51,"Duration":96462,"SoundDuration":96462,"Delta":61079844},{"NoteNumber":65,"Velocity":51,"Duration":96462,"SoundDuration":96462,"Delta":61079844},{"NoteNumber":60,"Velocity":54,"Duration":96462,"SoundDuration":96462,"Delta":61079844},{"NoteNumber":57,"Velocity":45,"Duration":96462,"SoundDuration":96462,"Delta":61079844},{"NoteNumber":77,"Velocity":66,"Duration":101694,"SoundDuration":101694,"Delta":61272770},{"NoteNumber":72,"Velocity":56,"Duration":101694,"SoundDuration":101694,"Delta":61272770},{"NoteNumber":65,"Velocity":56,"Duration":101694,"SoundDuration":101694,"Delta":61272770},{"NoteNumber":60,"Velocity":59,"Duration":101694,"SoundDuration":101694,"Delta":61272770},{"NoteNumber":57,"Velocity":49,"Duration":101694,"SoundDuration":101694,"Delta":61272770},{"NoteNumber":77,"Velocity":78,"Duration":196078,"SoundDuration":196078,"Delta":61476160},{"NoteNumber":72,"Velocity":64,"Duration":196078,"SoundDuration":196078,"Delta":61476160},{"NoteNumber":65,"Velocity":64,"Duration":196078,"SoundDuration":196078,"Delta":61476160},{"NoteNumber":57,"Velocity":60,"Duration":196078,"SoundDuration":196078,"Delta":61476160},{"NoteNumber":60,"Velocity":71,"Duration":196078,"SoundDuration":196078,"Delta":61476160},{"NoteNumber":78,"Velocity":66,"Duration":98039,"SoundDuration":98039,"Delta":61672239},{"NoteNumber":75,"Velocity":56,"Duration":98039,"SoundDuration":98039,"Delta":61672239},{"NoteNumber":66,"Velocity":56,"Duration":98039,"SoundDuration":98039,"Delta":61672239},{"NoteNumber":57,"Velocity":46,"Duration":98039,"SoundDuration":98039,"Delta":61672239},{"NoteNumber":60,"Velocity":55,"Duration":98039,"SoundDuration":98039,"Delta":61672239},{"NoteNumber":66,"Velocity":55,"Duration":96774,"SoundDuration":96774,"Delta":61868317},{"NoteNumber":75,"Velocity":55,"Duration":96774,"SoundDuration":96774,"Delta":61868317},{"NoteNumber":78,"Velocity":65,"Duration":96774,"SoundDuration":96774,"Delta":61868317},{"NoteNumber":57,"Velocity":46,"Duration":96774,"SoundDuration":96774,"Delta":61868317},{"NoteNumber":60,"Velocity":55,"Duration":96774,"SoundDuration":96774,"Delta":61868317},{"NoteNumber":66,"Velocity":52,"Duration":100000,"SoundDuration":100000,"Delta":62061866},{"NoteNumber":75,"Velocity":52,"Duration":100000,"SoundDuration":100000,"Delta":62061866},{"NoteNumber":78,"Velocity":62,"Duration":100000,"SoundDuration":100000,"Delta":62061866},{"NoteNumber":57,"Velocity":50,"Duration":100000,"SoundDuration":100000,"Delta":62061866},{"NoteNumber":60,"Velocity":60,"Duration":100000,"SoundDuration":100000,"Delta":62061866},{"NoteNumber":66,"Velocity":63,"Duration":204081,"SoundDuration":204081,"Delta":62261866},{"NoteNumber":75,"Velocity":63,"Duration":204081,"SoundDuration":204081,"Delta":62261866},{"NoteNumber":78,"Velocity":75,"Duration":204081,"SoundDuration":204081,"Delta":62261866},{"NoteNumber":60,"Velocity":78,"Duration":204081,"SoundDuration":204081,"Delta":62261866},{"NoteNumber":57,"Velocity":64,"Duration":204081,"SoundDuration":204081,"Delta":62261866},{"NoteNumber":79,"Velocity":63,"Duration":98039,"SoundDuration":98039,"Delta":62465947},{"NoteNumber":74,"Velocity":53,"Duration":98039,"SoundDuration":98039,"Delta":62465947},{"NoteNumber":67,"Velocity":53,"Duration":98039,"SoundDuration":98039,"Delta":62465947},{"NoteNumber":62,"Velocity":56,"Duration":98039,"SoundDuration":98039,"Delta":62465947},{"NoteNumber":58,"Velocity":47,"Duration":98039,"SoundDuration":98039,"Delta":62465947},{"NoteNumber":79,"Velocity":63,"Duration":96462,"SoundDuration":96462,"Delta":62662026},{"NoteNumber":74,"Velocity":54,"Duration":96462,"SoundDuration":96462,"Delta":62662026},{"NoteNumber":67,"Velocity":54,"Duration":96462,"SoundDuration":96462,"Delta":62662026},{"NoteNumber":62,"Velocity":57,"Duration":96462,"SoundDuration":96462,"Delta":62662026},{"NoteNumber":58,"Velocity":47,"Duration":96462,"SoundDuration":96462,"Delta":62662026},{"NoteNumber":79,"Velocity":69,"Duration":99667,"SoundDuration":99667,"Delta":62854952},{"NoteNumber":74,"Velocity":59,"Duration":99667,"SoundDuration":99667,"Delta":62854952},{"NoteNumber":67,"Velocity":59,"Duration":99667,"SoundDuration":99667,"Delta":62854952},{"NoteNumber":62,"Velocity":62,"Duration":99667,"SoundDuration":99667,"Delta":62854952},{"NoteNumber":58,"Velocity":51,"Duration":99667,"SoundDuration":99667,"Delta":62854952},{"NoteNumber":79,"Velocity":82,"Duration":195439,"SoundDuration":195439,"Delta":63054287},{"NoteNumber":74,"Velocity":69,"Duration":195439,"SoundDuration":195439,"Delta":63054287},{"NoteNumber":67,"Velocity":69,"Duration":195439,"SoundDuration":195439,"Delta":63054287},{"NoteNumber":58,"Velocity":63,"Duration":195439,"SoundDuration":195439,"Delta":63054287},{"NoteNumber":62,"Velocity":75,"Duration":195439,"SoundDuration":195439,"Delta":63054287},{"NoteNumber":80,"Velocity":78,"Duration":97719,"SoundDuration":97719,"Delta":63249727},{"NoteNumber":74,"Velocity":66,"Duration":97719,"SoundDuration":97719,"Delta":63249727},{"NoteNumber":68,"Velocity":66,"Duration":97719,"SoundDuration":97719,"Delta":63249727},{"NoteNumber":59,"Velocity":53,"Duration":97719,"SoundDuration":97719,"Delta":63249727},{"NoteNumber":65,"Velocity":64,"Duration":97719,"SoundDuration":97719,"Delta":63249727},{"NoteNumber":80,"Velocity":77,"Duration":103448,"SoundDuration":103448,"Delta":63445166},{"NoteNumber":74,"Velocity":65,"Duration":103448,"SoundDuration":103448,"Delta":63445166},{"NoteNumber":68,"Velocity":65,"Duration":103448,"SoundDuration":103448,"Delta":63445166},{"NoteNumber":59,"Velocity":54,"Duration":103448,"SoundDuration":103448,"Delta":63445166},{"NoteNumber":65,"Velocity":66,"Duration":103448,"SoundDuration":103448,"Delta":63445166},{"NoteNumber":80,"Velocity":71,"Duration":138888,"SoundDuration":138888,"Delta":63652063},{"NoteNumber":74,"Velocity":60,"Duration":138888,"SoundDuration":138888,"Delta":63652063},{"NoteNumber":68,"Velocity":60,"Duration":138888,"SoundDuration":138888,"Delta":63652063},{"NoteNumber":59,"Velocity":57,"Duration":138888,"SoundDuration":138888,"Delta":63652063},{"NoteNumber":65,"Velocity":67,"Duration":138888,"SoundDuration":138888,"Delta":63652063},{"NoteNumber":69,"Velocity":67,"Duration":334158,"SoundDuration":334158,"Delta":63848867},{"NoteNumber":72,"Velocity":67,"Duration":305200,"SoundDuration":305200,"Delta":63877824},{"NoteNumber":81,"Velocity":79,"Duration":276243,"SoundDuration":276243,"Delta":63906782},{"NoteNumber":60,"Velocity":62,"Duration":276243,"SoundDuration":276243,"Delta":63906782},{"NoteNumber":65,"Velocity":74,"Duration":276243,"SoundDuration":276243,"Delta":63906782},{"NoteNumber":65,"Velocity":42,"Duration":75250,"SoundDuration":75250,"Delta":64459268},{"NoteNumber":69,"Velocity":50,"Duration":75250,"SoundDuration":75250,"Delta":64459268},{"NoteNumber":60,"Velocity":47,"Duration":75250,"SoundDuration":75250,"Delta":64459268},{"NoteNumber":65,"Velocity":45,"Duration":75250,"SoundDuration":75250,"Delta":64659937},{"NoteNumber":60,"Velocity":38,"Duration":75250,"SoundDuration":75250,"Delta":64659937},{"NoteNumber":57,"Velocity":40,"Duration":75250,"SoundDuration":75250,"Delta":64659937},{"NoteNumber":65,"Velocity":42,"Duration":74061,"SoundDuration":74061,"Delta":64860606},{"NoteNumber":69,"Velocity":50,"Duration":74061,"SoundDuration":74061,"Delta":64860606},{"NoteNumber":60,"Velocity":47,"Duration":74061,"SoundDuration":74061,"Delta":64860606},{"NoteNumber":65,"Velocity":38,"Duration":74061,"SoundDuration":74061,"Delta":65058104},{"NoteNumber":60,"Velocity":38,"Duration":74061,"SoundDuration":74061,"Delta":65058104},{"NoteNumber":57,"Velocity":41,"Duration":74061,"SoundDuration":74061,"Delta":65058104},{"NoteNumber":69,"Velocity":54,"Duration":74061,"SoundDuration":74061,"Delta":65255603},{"NoteNumber":65,"Velocity":45,"Duration":74061,"SoundDuration":74061,"Delta":65255603},{"NoteNumber":60,"Velocity":50,"Duration":74061,"SoundDuration":74061,"Delta":65255603},{"NoteNumber":60,"Velocity":48,"Duration":80645,"SoundDuration":80645,"Delta":65453101},{"NoteNumber":65,"Velocity":57,"Duration":80645,"SoundDuration":80645,"Delta":65453101},{"NoteNumber":57,"Velocity":48,"Duration":80645,"SoundDuration":80645,"Delta":65453101},{"NoteNumber":64,"Velocity":60,"Duration":200669,"SoundDuration":200669,"Delta":65668155},{"NoteNumber":67,"Velocity":72,"Duration":200669,"SoundDuration":200669,"Delta":65668155},{"NoteNumber":48,"Velocity":51,"Duration":200669,"SoundDuration":200669,"Delta":65668155},{"NoteNumber":58,"Velocity":62,"Duration":200669,"SoundDuration":200669,"Delta":65668155},{"NoteNumber":72,"Velocity":47,"Duration":100334,"SoundDuration":100334,"Delta":65868824},{"NoteNumber":60,"Velocity":39,"Duration":100334,"SoundDuration":100334,"Delta":65868824},{"NoteNumber":72,"Velocity":47,"Duration":100334,"SoundDuration":100334,"Delta":66069493},{"NoteNumber":60,"Velocity":39,"Duration":100334,"SoundDuration":100334,"Delta":66069493},{"NoteNumber":63,"Velocity":48,"Duration":107527,"SoundDuration":107527,"Delta":66270162},{"NoteNumber":66,"Velocity":57,"Duration":107527,"SoundDuration":107527,"Delta":66270162},{"NoteNumber":48,"Velocity":40,"Duration":107527,"SoundDuration":107527,"Delta":66270162},{"NoteNumber":57,"Velocity":48,"Duration":107527,"SoundDuration":107527,"Delta":66270162},{"NoteNumber":64,"Velocity":60,"Duration":200669,"SoundDuration":200669,"Delta":66485216},{"NoteNumber":67,"Velocity":72,"Duration":200669,"SoundDuration":200669,"Delta":66485216},{"NoteNumber":48,"Velocity":51,"Duration":200669,"SoundDuration":200669,"Delta":66485216},{"NoteNumber":58,"Velocity":62,"Duration":200669,"SoundDuration":200669,"Delta":66485216},{"NoteNumber":72,"Velocity":47,"Duration":100334,"SoundDuration":100334,"Delta":66685885},{"NoteNumber":60,"Velocity":39,"Duration":100334,"SoundDuration":100334,"Delta":66685885},{"NoteNumber":72,"Velocity":47,"Duration":100334,"SoundDuration":100334,"Delta":66886554},{"NoteNumber":60,"Velocity":39,"Duration":100334,"SoundDuration":100334,"Delta":66886554},{"NoteNumber":48,"Velocity":56,"Duration":208416,"SoundDuration":208416,"Delta":67087223},{"NoteNumber":36,"Velocity":47,"Duration":208416,"SoundDuration":208416,"Delta":67087223},{"NoteNumber":69,"Velocity":64,"Duration":357975,"SoundDuration":357975,"Delta":67212641},{"NoteNumber":72,"Velocity":64,"Duration":332892,"SoundDuration":332892,"Delta":67237725},{"NoteNumber":77,"Velocity":64,"Duration":303934,"SoundDuration":303934,"Delta":67266682},{"NoteNumber":81,"Velocity":75,"Duration":274977,"SoundDuration":274977,"Delta":67295640},{"NoteNumber":41,"Velocity":59,"Duration":274977,"SoundDuration":274977,"Delta":67295640},{"NoteNumber":53,"Velocity":69,"Duration":274976,"SoundDuration":274976,"Delta":67303660},{"NoteNumber":65,"Velocity":42,"Duration":74306,"SoundDuration":74306,"Delta":67845594},{"NoteNumber":69,"Velocity":50,"Duration":74306,"SoundDuration":74306,"Delta":67845594},{"NoteNumber":60,"Velocity":47,"Duration":74306,"SoundDuration":74306,"Delta":67845594},{"NoteNumber":65,"Velocity":45,"Duration":74306,"SoundDuration":74306,"Delta":68043744},{"NoteNumber":60,"Velocity":38,"Duration":74306,"SoundDuration":74306,"Delta":68043744},{"NoteNumber":57,"Velocity":40,"Duration":74306,"SoundDuration":74306,"Delta":68043744},{"NoteNumber":65,"Velocity":42,"Duration":73577,"SoundDuration":73577,"Delta":68241895},{"NoteNumber":69,"Velocity":50,"Duration":73577,"SoundDuration":73577,"Delta":68241895},{"NoteNumber":60,"Velocity":47,"Duration":73577,"SoundDuration":73577,"Delta":68241895},{"NoteNumber":65,"Velocity":38,"Duration":73577,"SoundDuration":73577,"Delta":68438101},{"NoteNumber":60,"Velocity":38,"Duration":73577,"SoundDuration":73577,"Delta":68438101},{"NoteNumber":57,"Velocity":41,"Duration":73577,"SoundDuration":73577,"Delta":68438101},{"NoteNumber":69,"Velocity":54,"Duration":73577,"SoundDuration":73577,"Delta":68634308},{"NoteNumber":65,"Velocity":45,"Duration":73577,"SoundDuration":73577,"Delta":68634308},{"NoteNumber":60,"Velocity":50,"Duration":73577,"SoundDuration":73577,"Delta":68634308},{"NoteNumber":60,"Velocity":46,"Duration":80645,"SoundDuration":80645,"Delta":68830514},{"NoteNumber":65,"Velocity":55,"Duration":80645,"SoundDuration":80645,"Delta":68830514},{"NoteNumber":57,"Velocity":46,"Duration":80645,"SoundDuration":80645,"Delta":68830514},{"NoteNumber":64,"Velocity":60,"Duration":200669,"SoundDuration":200669,"Delta":69045568},{"NoteNumber":67,"Velocity":72,"Duration":200669,"SoundDuration":200669,"Delta":69045568},{"NoteNumber":48,"Velocity":51,"Duration":200669,"SoundDuration":200669,"Delta":69045568},{"NoteNumber":58,"Velocity":62,"Duration":200669,"SoundDuration":200669,"Delta":69045568},{"NoteNumber":72,"Velocity":47,"Duration":100334,"SoundDuration":100334,"Delta":69246237},{"NoteNumber":60,"Velocity":39,"Duration":100334,"SoundDuration":100334,"Delta":69246237},{"NoteNumber":72,"Velocity":47,"Duration":100334,"SoundDuration":100334,"Delta":69446906},{"NoteNumber":60,"Velocity":39,"Duration":100334,"SoundDuration":100334,"Delta":69446906},{"NoteNumber":63,"Velocity":46,"Duration":107527,"SoundDuration":107527,"Delta":69647575},{"NoteNumber":66,"Velocity":55,"Duration":107527,"SoundDuration":107527,"Delta":69647575},{"NoteNumber":48,"Velocity":38,"Duration":107527,"SoundDuration":107527,"Delta":69647575},{"NoteNumber":57,"Velocity":46,"Duration":107527,"SoundDuration":107527,"Delta":69647575},{"NoteNumber":64,"Velocity":60,"Duration":200669,"SoundDuration":200669,"Delta":69862629},{"NoteNumber":67,"Velocity":72,"Duration":200669,"SoundDuration":200669,"Delta":69862629},{"NoteNumber":48,"Velocity":51,"Duration":200669,"SoundDuration":200669,"Delta":69862629},{"NoteNumber":58,"Velocity":62,"Duration":200669,"SoundDuration":200669,"Delta":69862629},{"NoteNumber":72,"Velocity":47,"Duration":100334,"SoundDuration":100334,"Delta":70063298},{"NoteNumber":60,"Velocity":39,"Duration":100334,"SoundDuration":100334,"Delta":70063298},{"NoteNumber":72,"Velocity":47,"Duration":100334,"SoundDuration":100334,"Delta":70263967},{"NoteNumber":60,"Velocity":39,"Duration":100334,"SoundDuration":100334,"Delta":70263967},{"NoteNumber":48,"Velocity":56,"Duration":208416,"SoundDuration":208416,"Delta":70464636},{"NoteNumber":36,"Velocity":47,"Duration":208416,"SoundDuration":208416,"Delta":70464636},{"NoteNumber":69,"Velocity":61,"Duration":288478,"SoundDuration":288478,"Delta":70590055},{"NoteNumber":72,"Velocity":61,"Duration":263394,"SoundDuration":263394,"Delta":70615138},{"NoteNumber":77,"Velocity":61,"Duration":208752,"SoundDuration":208752,"Delta":70644096},{"NoteNumber":81,"Velocity":72,"Duration":205479,"SoundDuration":205479,"Delta":70673053},{"NoteNumber":41,"Velocity":57,"Duration":410959,"SoundDuration":410959,"Delta":70673053},{"NoteNumber":53,"Velocity":68,"Duration":410959,"SoundDuration":410959,"Delta":70679046},{"NoteNumber":77,"Velocity":63,"Duration":102739,"SoundDuration":102739,"Delta":70878533},{"NoteNumber":65,"Velocity":53,"Duration":102739,"SoundDuration":102739,"Delta":70878533},{"NoteNumber":77,"Velocity":64,"Duration":102739,"SoundDuration":102739,"Delta":71084012},{"NoteNumber":65,"Velocity":54,"Duration":102739,"SoundDuration":102739,"Delta":71084012},{"NoteNumber":40,"Velocity":55,"Duration":411541,"SoundDuration":411541,"Delta":71084012},{"NoteNumber":52,"Velocity":65,"Duration":411541,"SoundDuration":411541,"Delta":71084012},{"NoteNumber":77,"Velocity":65,"Duration":102969,"SoundDuration":102969,"Delta":71289492},{"NoteNumber":65,"Velocity":55,"Duration":102969,"SoundDuration":102969,"Delta":71289492},{"NoteNumber":77,"Velocity":65,"Duration":103442,"SoundDuration":103442,"Delta":71495554},{"NoteNumber":65,"Velocity":55,"Duration":103442,"SoundDuration":103442,"Delta":71495554},{"NoteNumber":38,"Velocity":57,"Duration":414910,"SoundDuration":414910,"Delta":71495554},{"NoteNumber":50,"Velocity":68,"Duration":414910,"SoundDuration":414910,"Delta":71495554},{"NoteNumber":77,"Velocity":67,"Duration":103806,"SoundDuration":103806,"Delta":71702558},{"NoteNumber":65,"Velocity":56,"Duration":103806,"SoundDuration":103806,"Delta":71702558},{"NoteNumber":77,"Velocity":69,"Duration":104221,"SoundDuration":104221,"Delta":71910464},{"NoteNumber":65,"Velocity":58,"Duration":104221,"SoundDuration":104221,"Delta":71910464},{"NoteNumber":48,"Velocity":69,"Duration":418351,"SoundDuration":418351,"Delta":71910464},{"NoteNumber":36,"Velocity":58,"Duration":418351,"SoundDuration":418351,"Delta":71910464},{"NoteNumber":77,"Velocity":70,"Duration":104706,"SoundDuration":104706,"Delta":72119215},{"NoteNumber":65,"Velocity":59,"Duration":104706,"SoundDuration":104706,"Delta":72119215},{"NoteNumber":77,"Velocity":77,"Duration":105257,"SoundDuration":105257,"Delta":72328816},{"NoteNumber":67,"Velocity":65,"Duration":105257,"SoundDuration":105257,"Delta":72328816},{"NoteNumber":79,"Velocity":77,"Duration":105257,"SoundDuration":105257,"Delta":72328816},{"NoteNumber":46,"Velocity":70,"Duration":418132,"SoundDuration":418132,"Delta":72328816},{"NoteNumber":34,"Velocity":59,"Duration":418132,"SoundDuration":418132,"Delta":72328816},{"NoteNumber":79,"Velocity":69,"Duration":103806,"SoundDuration":103806,"Delta":72539337},{"NoteNumber":67,"Velocity":58,"Duration":103806,"SoundDuration":103806,"Delta":72539337},{"NoteNumber":77,"Velocity":69,"Duration":103806,"SoundDuration":103806,"Delta":72539337},{"NoteNumber":77,"Velocity":71,"Duration":103806,"SoundDuration":103806,"Delta":72746949},{"NoteNumber":67,"Velocity":60,"Duration":103806,"SoundDuration":103806,"Delta":72746949},{"NoteNumber":79,"Velocity":71,"Duration":103806,"SoundDuration":103806,"Delta":72746949},{"NoteNumber":47,"Velocity":64,"Duration":415225,"SoundDuration":415225,"Delta":72746949},{"NoteNumber":35,"Velocity":54,"Duration":415225,"SoundDuration":415225,"Delta":72746949},{"NoteNumber":77,"Velocity":72,"Duration":103806,"SoundDuration":103806,"Delta":72954562},{"NoteNumber":67,"Velocity":61,"Duration":103806,"SoundDuration":103806,"Delta":72954562},{"NoteNumber":79,"Velocity":72,"Duration":103806,"SoundDuration":103806,"Delta":72954562},{"NoteNumber":76,"Velocity":73,"Duration":103806,"SoundDuration":103806,"Delta":73162174},{"NoteNumber":67,"Velocity":62,"Duration":103806,"SoundDuration":103806,"Delta":73162174},{"NoteNumber":79,"Velocity":73,"Duration":103806,"SoundDuration":103806,"Delta":73162174},{"NoteNumber":48,"Velocity":67,"Duration":415224,"SoundDuration":415224,"Delta":73162174},{"NoteNumber":36,"Velocity":56,"Duration":415224,"SoundDuration":415224,"Delta":73162174},{"NoteNumber":79,"Velocity":73,"Duration":103806,"SoundDuration":103806,"Delta":73369787},{"NoteNumber":67,"Velocity":62,"Duration":103806,"SoundDuration":103806,"Delta":73369787},{"NoteNumber":76,"Velocity":73,"Duration":103806,"SoundDuration":103806,"Delta":73369787},{"NoteNumber":81,"Velocity":73,"Duration":104894,"SoundDuration":104894,"Delta":73577399},{"NoteNumber":79,"Velocity":73,"Duration":104894,"SoundDuration":104894,"Delta":73577399},{"NoteNumber":69,"Velocity":62,"Duration":104894,"SoundDuration":104894,"Delta":73577399},{"NoteNumber":76,"Velocity":62,"Duration":104894,"SoundDuration":104894,"Delta":73577399},{"NoteNumber":49,"Velocity":70,"Duration":426396,"SoundDuration":426396,"Delta":73577399},{"NoteNumber":37,"Velocity":59,"Duration":426396,"SoundDuration":426396,"Delta":73577399},{"NoteNumber":81,"Velocity":73,"Duration":108303,"SoundDuration":108303,"Delta":73787189},{"NoteNumber":79,"Velocity":73,"Duration":108303,"SoundDuration":108303,"Delta":73787189},{"NoteNumber":69,"Velocity":62,"Duration":108303,"SoundDuration":108303,"Delta":73787189},{"NoteNumber":76,"Velocity":62,"Duration":108303,"SoundDuration":108303,"Delta":73787189},{"NoteNumber":77,"Velocity":78,"Duration":104166,"SoundDuration":104166,"Delta":74003796},{"NoteNumber":69,"Velocity":66,"Duration":104166,"SoundDuration":104166,"Delta":74003796},{"NoteNumber":81,"Velocity":78,"Duration":104166,"SoundDuration":104166,"Delta":74003796},{"NoteNumber":38,"Velocity":58,"Duration":416667,"SoundDuration":416667,"Delta":74003796},{"NoteNumber":50,"Velocity":69,"Duration":416667,"SoundDuration":416667,"Delta":74003796},{"NoteNumber":77,"Velocity":70,"Duration":104166,"SoundDuration":104166,"Delta":74212129},{"NoteNumber":69,"Velocity":59,"Duration":104166,"SoundDuration":104166,"Delta":74212129},{"NoteNumber":81,"Velocity":70,"Duration":104166,"SoundDuration":104166,"Delta":74212129},{"NoteNumber":81,"Velocity":74,"Duration":104166,"SoundDuration":104166,"Delta":74420463},{"NoteNumber":69,"Velocity":62,"Duration":104166,"SoundDuration":104166,"Delta":74420463},{"NoteNumber":77,"Velocity":74,"Duration":104166,"SoundDuration":104166,"Delta":74420463},{"NoteNumber":51,"Velocity":70,"Duration":417014,"SoundDuration":417014,"Delta":74420463},{"NoteNumber":39,"Velocity":59,"Duration":417014,"SoundDuration":417014,"Delta":74420463},{"NoteNumber":81,"Velocity":76,"Duration":104166,"SoundDuration":104166,"Delta":74628796},{"NoteNumber":69,"Velocity":64,"Duration":104166,"SoundDuration":104166,"Delta":74628796},{"NoteNumber":77,"Velocity":76,"Duration":104166,"SoundDuration":104166,"Delta":74628796},{"NoteNumber":82,"Velocity":77,"Duration":105560,"SoundDuration":105560,"Delta":74837477},{"NoteNumber":70,"Velocity":65,"Duration":105560,"SoundDuration":105560,"Delta":74837477},{"NoteNumber":77,"Velocity":77,"Duration":105560,"SoundDuration":105560,"Delta":74837477},{"NoteNumber":50,"Velocity":73,"Duration":426393,"SoundDuration":426393,"Delta":74837477},{"NoteNumber":38,"Velocity":62,"Duration":426393,"SoundDuration":426393,"Delta":74837477},{"NoteNumber":82,"Velocity":79,"Duration":106939,"SoundDuration":106939,"Delta":75049288},{"NoteNumber":70,"Velocity":67,"Duration":106939,"SoundDuration":106939,"Delta":75049288},{"NoteNumber":77,"Velocity":79,"Duration":106939,"SoundDuration":106939,"Delta":75049288},{"NoteNumber":83,"Velocity":81,"Duration":108356,"SoundDuration":108356,"Delta":75263871},{"NoteNumber":80,"Velocity":81,"Duration":108356,"SoundDuration":108356,"Delta":75263871},{"NoteNumber":71,"Velocity":68,"Duration":108356,"SoundDuration":108356,"Delta":75263871},{"NoteNumber":77,"Velocity":68,"Duration":108356,"SoundDuration":108356,"Delta":75263871},{"NoteNumber":49,"Velocity":77,"Duration":437602,"SoundDuration":437602,"Delta":75263871},{"NoteNumber":37,"Velocity":65,"Duration":437602,"SoundDuration":437602,"Delta":75263871},{"NoteNumber":77,"Velocity":72,"Duration":109749,"SoundDuration":109749,"Delta":75481239},{"NoteNumber":71,"Velocity":72,"Duration":109749,"SoundDuration":109749,"Delta":75481239},{"NoteNumber":80,"Velocity":85,"Duration":109749,"SoundDuration":109749,"Delta":75481239},{"NoteNumber":83,"Velocity":85,"Duration":109749,"SoundDuration":109749,"Delta":75481239},{"NoteNumber":84,"Velocity":94,"Duration":107142,"SoundDuration":107142,"Delta":75701473},{"NoteNumber":81,"Velocity":79,"Duration":107142,"SoundDuration":107142,"Delta":75701473},{"NoteNumber":77,"Velocity":79,"Duration":107142,"SoundDuration":107142,"Delta":75701473},{"NoteNumber":72,"Velocity":79,"Duration":107142,"SoundDuration":107142,"Delta":75701473},{"NoteNumber":48,"Velocity":85,"Duration":107142,"SoundDuration":107142,"Delta":75701473},{"NoteNumber":36,"Velocity":72,"Duration":107142,"SoundDuration":107142,"Delta":75701473},{"NoteNumber":84,"Velocity":84,"Duration":107142,"SoundDuration":107142,"Delta":75915758},{"NoteNumber":72,"Velocity":71,"Duration":107142,"SoundDuration":107142,"Delta":75915758},{"NoteNumber":60,"Velocity":69,"Duration":107142,"SoundDuration":107142,"Delta":75915758},{"NoteNumber":48,"Velocity":58,"Duration":107142,"SoundDuration":107142,"Delta":75915758},{"NoteNumber":84,"Velocity":84,"Duration":107142,"SoundDuration":107142,"Delta":76130044},{"NoteNumber":72,"Velocity":71,"Duration":107142,"SoundDuration":107142,"Delta":76130044},{"NoteNumber":60,"Velocity":69,"Duration":107142,"SoundDuration":107142,"Delta":76130044},{"NoteNumber":48,"Velocity":58,"Duration":107142,"SoundDuration":107142,"Delta":76130044},{"NoteNumber":72,"Velocity":66,"Duration":107142,"SoundDuration":107142,"Delta":76344329},{"NoteNumber":84,"Velocity":78,"Duration":107142,"SoundDuration":107142,"Delta":76344329},{"NoteNumber":60,"Velocity":69,"Duration":107142,"SoundDuration":107142,"Delta":76344329},{"NoteNumber":48,"Velocity":58,"Duration":107142,"SoundDuration":107142,"Delta":76344329},{"NoteNumber":84,"Velocity":94,"Duration":107527,"SoundDuration":107527,"Delta":76558615},{"NoteNumber":79,"Velocity":79,"Duration":107527,"SoundDuration":107527,"Delta":76558615},{"NoteNumber":76,"Velocity":79,"Duration":107527,"SoundDuration":107527,"Delta":76558615},{"NoteNumber":72,"Velocity":79,"Duration":107527,"SoundDuration":107527,"Delta":76558615},{"NoteNumber":48,"Velocity":85,"Duration":107527,"SoundDuration":107527,"Delta":76558615},{"NoteNumber":36,"Velocity":72,"Duration":107527,"SoundDuration":107527,"Delta":76558615},{"NoteNumber":84,"Velocity":84,"Duration":107527,"SoundDuration":107527,"Delta":76773669},{"NoteNumber":72,"Velocity":71,"Duration":107527,"SoundDuration":107527,"Delta":76773669},{"NoteNumber":60,"Velocity":69,"Duration":107527,"SoundDuration":107527,"Delta":76773669},{"NoteNumber":48,"Velocity":58,"Duration":107527,"SoundDuration":107527,"Delta":76773669},{"NoteNumber":84,"Velocity":84,"Duration":108303,"SoundDuration":108303,"Delta":76988723},{"NoteNumber":72,"Velocity":71,"Duration":108303,"SoundDuration":108303,"Delta":76988723},{"NoteNumber":60,"Velocity":69,"Duration":108303,"SoundDuration":108303,"Delta":76988723},{"NoteNumber":48,"Velocity":58,"Duration":108303,"SoundDuration":108303,"Delta":76988723},{"NoteNumber":72,"Velocity":66,"Duration":120000,"SoundDuration":120000,"Delta":77205329},{"NoteNumber":84,"Velocity":78,"Duration":120000,"SoundDuration":120000,"Delta":77205329},{"NoteNumber":60,"Velocity":69,"Duration":120000,"SoundDuration":120000,"Delta":77205329},{"NoteNumber":48,"Velocity":58,"Duration":120000,"SoundDuration":120000,"Delta":77205329},{"NoteNumber":41,"Velocity":76,"Duration":240000,"SoundDuration":240000,"Delta":77445329},{"NoteNumber":53,"Velocity":80,"Duration":210000,"SoundDuration":210000,"Delta":77475329},{"NoteNumber":77,"Velocity":86,"Duration":180000,"SoundDuration":180000,"Delta":77505329},{"NoteNumber":81,"Velocity":86,"Duration":150000,"SoundDuration":150000,"Delta":77535329},{"NoteNumber":84,"Velocity":86,"Duration":120000,"SoundDuration":120000,"Delta":77565329},{"NoteNumber":89,"Velocity":103,"Duration":90000,"SoundDuration":90000,"Delta":77595329}],"license":{"name":"Creative Commons Attribution-ShareAlike 3.0 Germany","url":"http://creativecommons.org/licenses/by-sa/3.0/de/deed.en","text":"The MIDI, audio (MP3, OGG) and video files of Bernd Krueger are licensed under the cc-by-sa Germany License. This means that you can use and adapt the files, as long as you attribute the copyright holder.\n\nName: Bernd Krueger\nSource: http://www.piano-midi.de\n\nThe distribution or public playback of the files is only allowed under identical license conditions.\n\nThe scores are open source.","attribution":"MIDI files by Bernd Krueger (piano-midi.de)"}}