{"title":"Etude No. 1 aus Grandes Etudes de Paganini","artist":"Piano","durationMs":285602,"midiSha256":"f5cea204a2292be0da610a2dd7760f324de7df4b7f8319dfb639a57de5c4479a","midiObject":[{"NoteNumber":31,"Velocity":80,"Duration":1379310,"SoundDuration":1379310,"Delta":0},{"NoteNumber":34,"Velocity":55,"Duration":172413,"SoundDuration":172413,"Delta":1379310},{"NoteNumber":38,"Velocity":58,"Duration":171107,"SoundDuration":171107,"Delta":1551723},{"NoteNumber":43,"Velocity":61,"Duration":162662,"SoundDuration":162662,"Delta":1722831},{"NoteNumber":46,"Velocity":63,"Duration":144296,"SoundDuration":144296,"Delta":1885493},{"NoteNumber":50,"Velocity":66,"Duration":140177,"SoundDuration":140177,"Delta":2029790},{"NoteNumber":55,"Velocity":68,"Duration":134014,"SoundDuration":134014,"Delta":2169967},{"NoteNumber":58,"Velocity":68,"Duration":131430,"SoundDuration":131430,"Delta":2303982},{"NoteNumber":62,"Velocity":71,"Duration":128869,"SoundDuration":128869,"Delta":2435412},{"NoteNumber":67,"Velocity":77,"Duration":1603301,"SoundDuration":1603301,"Delta":2564282},{"NoteNumber":66,"Velocity":60,"Duration":166086,"SoundDuration":166086,"Delta":4167583},{"NoteNumber":63,"Velocity":61,"Duration":158146,"SoundDuration":158146,"Delta":4333669},{"NoteNumber":62,"Velocity":62,"Duration":151032,"SoundDuration":151032,"Delta":4491816},{"NoteNumber":60,"Velocity":62,"Duration":144438,"SoundDuration":144438,"Delta":4642848},{"NoteNumber":58,"Velocity":63,"Duration":138481,"SoundDuration":138481,"Delta":4787287},{"NoteNumber":57,"Velocity":63,"Duration":132918,"SoundDuration":132918,"Delta":4925769},{"NoteNumber":55,"Velocity":63,"Duration":127856,"SoundDuration":127856,"Delta":5058687},{"NoteNumber":54,"Velocity":64,"Duration":117134,"SoundDuration":117134,"Delta":5186543},{"NoteNumber":51,"Velocity":63,"Duration":113361,"SoundDuration":113361,"Delta":5303678},{"NoteNumber":50,"Velocity":63,"Duration":110083,"SoundDuration":110083,"Delta":5417039},{"NoteNumber":48,"Velocity":64,"Duration":106897,"SoundDuration":106897,"Delta":5527122},{"NoteNumber":46,"Velocity":64,"Duration":103645,"SoundDuration":103645,"Delta":5634020},{"NoteNumber":45,"Velocity":65,"Duration":101131,"SoundDuration":101131,"Delta":5737665},{"NoteNumber":43,"Velocity":66,"Duration":98131,"SoundDuration":98131,"Delta":5838796},{"NoteNumber":42,"Velocity":67,"Duration":96195,"SoundDuration":96195,"Delta":5936928},{"NoteNumber":39,"Velocity":68,"Duration":96153,"SoundDuration":96153,"Delta":6033124},{"NoteNumber":38,"Velocity":69,"Duration":95745,"SoundDuration":95745,"Delta":6129277},{"NoteNumber":36,"Velocity":70,"Duration":95541,"SoundDuration":95541,"Delta":6225023},{"NoteNumber":34,"Velocity":70,"Duration":95259,"SoundDuration":95259,"Delta":6320564},{"NoteNumber":33,"Velocity":71,"Duration":94936,"SoundDuration":94936,"Delta":6415824},{"NoteNumber":46,"Velocity":79,"Duration":1728575,"SoundDuration":1728575,"Delta":6510760},{"NoteNumber":31,"Velocity":74,"Duration":1728575,"SoundDuration":1728575,"Delta":6510760},{"NoteNumber":50,"Velocity":60,"Duration":141209,"SoundDuration":141209,"Delta":8239335},{"NoteNumber":34,"Velocity":54,"Duration":141209,"SoundDuration":141209,"Delta":8239335},{"NoteNumber":55,"Velocity":62,"Duration":129363,"SoundDuration":129363,"Delta":8380545},{"NoteNumber":38,"Velocity":55,"Duration":129363,"SoundDuration":129363,"Delta":8380545},{"NoteNumber":58,"Velocity":63,"Duration":119324,"SoundDuration":119324,"Delta":8509909},{"NoteNumber":43,"Velocity":56,"Duration":119324,"SoundDuration":119324,"Delta":8509909},{"NoteNumber":62,"Velocity":64,"Duration":111054,"SoundDuration":111054,"Delta":8629233},{"NoteNumber":46,"Velocity":58,"Duration":111054,"SoundDuration":111054,"Delta":8629233},{"NoteNumber":67,"Velocity":65,"Duration":107500,"SoundDuration":107500,"Delta":8740288},{"NoteNumber":50,"Velocity":59,"Duration":107500,"SoundDuration":107500,"Delta":8740288},{"NoteNumber":70,"Velocity":67,"Duration":106271,"SoundDuration":106271,"Delta":8847788},{"NoteNumber":55,"Velocity":60,"Duration":106271,"SoundDuration":106271,"Delta":8847788},{"NoteNumber":74,"Velocity":68,"Duration":105153,"SoundDuration":105153,"Delta":8954060},{"NoteNumber":58,"Velocity":62,"Duration":105153,"SoundDuration":105153,"Delta":8954060},{"NoteNumber":79,"Velocity":70,"Duration":104059,"SoundDuration":104059,"Delta":9059214},{"NoteNumber":62,"Velocity":63,"Duration":104059,"SoundDuration":104059,"Delta":9059214},{"NoteNumber":82,"Velocity":71,"Duration":102987,"SoundDuration":102987,"Delta":9163273},{"NoteNumber":67,"Velocity":64,"Duration":102987,"SoundDuration":102987,"Delta":9163273},{"NoteNumber":86,"Velocity":72,"Duration":101938,"SoundDuration":101938,"Delta":9266261},{"NoteNumber":70,"Velocity":65,"Duration":101938,"SoundDuration":101938,"Delta":9266261},{"NoteNumber":91,"Velocity":77,"Duration":101010,"SoundDuration":101010,"Delta":9368199},{"NoteNumber":74,"Velocity":67,"Duration":101010,"SoundDuration":101010,"Delta":9368199},{"NoteNumber":94,"Velocity":80,"Duration":1357378,"SoundDuration":1357378,"Delta":9469209},{"NoteNumber":79,"Velocity":75,"Duration":1357378,"SoundDuration":1357378,"Delta":9469209},{"NoteNumber":93,"Velocity":58,"Duration":130593,"SoundDuration":130593,"Delta":10826588},{"NoteNumber":78,"Velocity":50,"Duration":130593,"SoundDuration":130593,"Delta":10826588},{"NoteNumber":91,"Velocity":59,"Duration":127346,"SoundDuration":127346,"Delta":10957182},{"NoteNumber":75,"Velocity":51,"Duration":127346,"SoundDuration":127346,"Delta":10957182},{"NoteNumber":90,"Velocity":59,"Duration":122629,"SoundDuration":122629,"Delta":11084529},{"NoteNumber":74,"Velocity":51,"Duration":122629,"SoundDuration":122629,"Delta":11084529},{"NoteNumber":87,"Velocity":60,"Duration":118246,"SoundDuration":118246,"Delta":11207159},{"NoteNumber":72,"Velocity":52,"Duration":118246,"SoundDuration":118246,"Delta":11207159},{"NoteNumber":86,"Velocity":60,"Duration":113829,"SoundDuration":113829,"Delta":11325406},{"NoteNumber":70,"Velocity":52,"Duration":113829,"SoundDuration":113829,"Delta":11325406},{"NoteNumber":84,"Velocity":61,"Duration":109605,"SoundDuration":109605,"Delta":11439235},{"NoteNumber":69,"Velocity":53,"Duration":109605,"SoundDuration":109605,"Delta":11439235},{"NoteNumber":82,"Velocity":62,"Duration":106141,"SoundDuration":106141,"Delta":11548840},{"NoteNumber":67,"Velocity":54,"Duration":106141,"SoundDuration":106141,"Delta":11548840},{"NoteNumber":81,"Velocity":62,"Duration":102841,"SoundDuration":102841,"Delta":11654981},{"NoteNumber":66,"Velocity":54,"Duration":102841,"SoundDuration":102841,"Delta":11654981},{"NoteNumber":79,"Velocity":63,"Duration":99483,"SoundDuration":99483,"Delta":11757823},{"NoteNumber":63,"Velocity":54,"Duration":99483,"SoundDuration":99483,"Delta":11757823},{"NoteNumber":78,"Velocity":63,"Duration":96163,"SoundDuration":96163,"Delta":11857306},{"NoteNumber":62,"Velocity":54,"Duration":96163,"SoundDuration":96163,"Delta":11857306},{"NoteNumber":75,"Velocity":63,"Duration":92981,"SoundDuration":92981,"Delta":11953470},{"NoteNumber":60,"Velocity":55,"Duration":92981,"SoundDuration":92981,"Delta":11953470},{"NoteNumber":74,"Velocity":63,"Duration":90008,"SoundDuration":90008,"Delta":12046451},{"NoteNumber":58,"Velocity":56,"Duration":90008,"SoundDuration":90008,"Delta":12046451},{"NoteNumber":72,"Velocity":64,"Duration":87319,"SoundDuration":87319,"Delta":12136460},{"NoteNumber":57,"Velocity":56,"Duration":87319,"SoundDuration":87319,"Delta":12136460},{"NoteNumber":70,"Velocity":64,"Duration":84752,"SoundDuration":84752,"Delta":12223780},{"NoteNumber":55,"Velocity":57,"Duration":84752,"SoundDuration":84752,"Delta":12223780},{"NoteNumber":69,"Velocity":65,"Duration":82271,"SoundDuration":82271,"Delta":12308532},{"NoteNumber":54,"Velocity":57,"Duration":82271,"SoundDuration":82271,"Delta":12308532},{"NoteNumber":67,"Velocity":65,"Duration":81521,"SoundDuration":81521,"Delta":12390803},{"NoteNumber":51,"Velocity":58,"Duration":81521,"SoundDuration":81521,"Delta":12390803},{"NoteNumber":66,"Velocity":66,"Duration":81110,"SoundDuration":81110,"Delta":12472325},{"NoteNumber":50,"Velocity":58,"Duration":81110,"SoundDuration":81110,"Delta":12472325},{"NoteNumber":63,"Velocity":66,"Duration":80732,"SoundDuration":80732,"Delta":12553435},{"NoteNumber":48,"Velocity":59,"Duration":80732,"SoundDuration":80732,"Delta":12553435},{"NoteNumber":62,"Velocity":67,"Duration":80242,"SoundDuration":80242,"Delta":12634167},{"NoteNumber":46,"Velocity":60,"Duration":80242,"SoundDuration":80242,"Delta":12634167},{"NoteNumber":60,"Velocity":68,"Duration":79872,"SoundDuration":79872,"Delta":12714410},{"NoteNumber":45,"Velocity":60,"Duration":79872,"SoundDuration":79872,"Delta":12714410},{"NoteNumber":58,"Velocity":68,"Duration":79393,"SoundDuration":79393,"Delta":12794283},{"NoteNumber":43,"Velocity":61,"Duration":79393,"SoundDuration":79393,"Delta":12794283},{"NoteNumber":57,"Velocity":69,"Duration":79030,"SoundDuration":79030,"Delta":12873676},{"NoteNumber":42,"Velocity":61,"Duration":79030,"SoundDuration":79030,"Delta":12873676},{"NoteNumber":55,"Velocity":69,"Duration":78561,"SoundDuration":78561,"Delta":12952707},{"NoteNumber":39,"Velocity":62,"Duration":78561,"SoundDuration":78561,"Delta":12952707},{"NoteNumber":54,"Velocity":70,"Duration":78206,"SoundDuration":78206,"Delta":13031268},{"NoteNumber":38,"Velocity":63,"Duration":78206,"SoundDuration":78206,"Delta":13031268},{"NoteNumber":51,"Velocity":70,"Duration":77747,"SoundDuration":77747,"Delta":13109475},{"NoteNumber":36,"Velocity":63,"Duration":77747,"SoundDuration":77747,"Delta":13109475},{"NoteNumber":50,"Velocity":71,"Duration":77399,"SoundDuration":77399,"Delta":13187222},{"NoteNumber":34,"Velocity":63,"Duration":77399,"SoundDuration":77399,"Delta":13187222},{"NoteNumber":48,"Velocity":71,"Duration":76949,"SoundDuration":76949,"Delta":13264622},{"NoteNumber":33,"Velocity":63,"Duration":76949,"SoundDuration":76949,"Delta":13264622},{"NoteNumber":46,"Velocity":72,"Duration":76609,"SoundDuration":76609,"Delta":13341572},{"NoteNumber":38,"Velocity":64,"Duration":76609,"SoundDuration":76609,"Delta":13341572},{"NoteNumber":45,"Velocity":72,"Duration":76168,"SoundDuration":76168,"Delta":13418181},{"NoteNumber":36,"Velocity":64,"Duration":76168,"SoundDuration":76168,"Delta":13418181},{"NoteNumber":43,"Velocity":80,"Duration":1558587,"SoundDuration":1558587,"Delta":13494349},{"NoteNumber":31,"Velocity":73,"Duration":1558587,"SoundDuration":1558587,"Delta":13494349},{"NoteNumber":34,"Velocity":73,"Duration":1558587,"SoundDuration":1558587,"Delta":13494349},{"NoteNumber":46,"Velocity":60,"Duration":110097,"SoundDuration":110097,"Delta":15052936},{"NoteNumber":38,"Velocity":54,"Duration":110097,"SoundDuration":110097,"Delta":15052936},{"NoteNumber":50,"Velocity":62,"Duration":102258,"SoundDuration":102258,"Delta":15163034},{"NoteNumber":43,"Velocity":55,"Duration":102258,"SoundDuration":102258,"Delta":15163034},{"NoteNumber":55,"Velocity":63,"Duration":95984,"SoundDuration":95984,"Delta":15265293},{"NoteNumber":46,"Velocity":56,"Duration":95984,"SoundDuration":95984,"Delta":15265293},{"NoteNumber":58,"Velocity":64,"Duration":90354,"SoundDuration":90354,"Delta":15361277},{"NoteNumber":50,"Velocity":58,"Duration":90354,"SoundDuration":90354,"Delta":15361277},{"NoteNumber":62,"Velocity":65,"Duration":85407,"SoundDuration":85407,"Delta":15451632},{"NoteNumber":55,"Velocity":59,"Duration":85407,"SoundDuration":85407,"Delta":15451632},{"NoteNumber":67,"Velocity":67,"Duration":81673,"SoundDuration":81673,"Delta":15537040},{"NoteNumber":58,"Velocity":60,"Duration":81673,"SoundDuration":81673,"Delta":15537040},{"NoteNumber":70,"Velocity":68,"Duration":80443,"SoundDuration":80443,"Delta":15618713},{"NoteNumber":62,"Velocity":62,"Duration":80443,"SoundDuration":80443,"Delta":15618713},{"NoteNumber":74,"Velocity":70,"Duration":79816,"SoundDuration":79816,"Delta":15699157},{"NoteNumber":67,"Velocity":63,"Duration":79816,"SoundDuration":79816,"Delta":15699157},{"NoteNumber":79,"Velocity":71,"Duration":79170,"SoundDuration":79170,"Delta":15778973},{"NoteNumber":70,"Velocity":64,"Duration":79170,"SoundDuration":79170,"Delta":15778973},{"NoteNumber":82,"Velocity":72,"Duration":78562,"SoundDuration":78562,"Delta":15858143},{"NoteNumber":74,"Velocity":65,"Duration":78562,"SoundDuration":78562,"Delta":15858143},{"NoteNumber":86,"Velocity":73,"Duration":77936,"SoundDuration":77936,"Delta":15936706},{"NoteNumber":79,"Velocity":64,"Duration":77936,"SoundDuration":77936,"Delta":15936706},{"NoteNumber":91,"Velocity":75,"Duration":77346,"SoundDuration":77346,"Delta":16014642},{"NoteNumber":82,"Velocity":66,"Duration":77346,"SoundDuration":77346,"Delta":16014642},{"NoteNumber":94,"Velocity":78,"Duration":1585968,"SoundDuration":1585968,"Delta":16091989},{"NoteNumber":86,"Velocity":68,"Duration":76739,"SoundDuration":76739,"Delta":16091989},{"NoteNumber":98,"Velocity":80,"Duration":1509228,"SoundDuration":1509228,"Delta":16168729},{"NoteNumber":91,"Velocity":75,"Duration":1509228,"SoundDuration":1509228,"Delta":16168729},{"NoteNumber":96,"Velocity":58,"Duration":130593,"SoundDuration":130593,"Delta":17677957},{"NoteNumber":87,"Velocity":50,"Duration":130593,"SoundDuration":130593,"Delta":17677957},{"NoteNumber":94,"Velocity":58,"Duration":127346,"SoundDuration":127346,"Delta":17808551},{"NoteNumber":86,"Velocity":50,"Duration":127346,"SoundDuration":127346,"Delta":17808551},{"NoteNumber":93,"Velocity":58,"Duration":122629,"SoundDuration":122629,"Delta":17935897},{"NoteNumber":84,"Velocity":50,"Duration":122629,"SoundDuration":122629,"Delta":17935897},{"NoteNumber":91,"Velocity":59,"Duration":118246,"SoundDuration":118246,"Delta":18058527},{"NoteNumber":82,"Velocity":51,"Duration":118246,"SoundDuration":118246,"Delta":18058527},{"NoteNumber":90,"Velocity":59,"Duration":113829,"SoundDuration":113829,"Delta":18176774},{"NoteNumber":81,"Velocity":51,"Duration":113829,"SoundDuration":113829,"Delta":18176774},{"NoteNumber":87,"Velocity":60,"Duration":109605,"SoundDuration":109605,"Delta":18290603},{"NoteNumber":79,"Velocity":52,"Duration":109605,"SoundDuration":109605,"Delta":18290603},{"NoteNumber":86,"Velocity":60,"Duration":106141,"SoundDuration":106141,"Delta":18400209},{"NoteNumber":78,"Velocity":52,"Duration":106141,"SoundDuration":106141,"Delta":18400209},{"NoteNumber":84,"Velocity":61,"Duration":102841,"SoundDuration":102841,"Delta":18506350},{"NoteNumber":75,"Velocity":53,"Duration":102841,"SoundDuration":102841,"Delta":18506350},{"NoteNumber":82,"Velocity":62,"Duration":99483,"SoundDuration":99483,"Delta":18609192},{"NoteNumber":74,"Velocity":54,"Duration":99483,"SoundDuration":99483,"Delta":18609192},{"NoteNumber":81,"Velocity":62,"Duration":96163,"SoundDuration":96163,"Delta":18708675},{"NoteNumber":72,"Velocity":54,"Duration":96163,"SoundDuration":96163,"Delta":18708675},{"NoteNumber":79,"Velocity":63,"Duration":92981,"SoundDuration":92981,"Delta":18804838},{"NoteNumber":70,"Velocity":54,"Duration":92981,"SoundDuration":92981,"Delta":18804838},{"NoteNumber":78,"Velocity":63,"Duration":90008,"SoundDuration":90008,"Delta":18897820},{"NoteNumber":69,"Velocity":54,"Duration":90008,"SoundDuration":90008,"Delta":18897820},{"NoteNumber":75,"Velocity":63,"Duration":87319,"SoundDuration":87319,"Delta":18987828},{"NoteNumber":67,"Velocity":55,"Duration":87319,"SoundDuration":87319,"Delta":18987828},{"NoteNumber":74,"Velocity":63,"Duration":84752,"SoundDuration":84752,"Delta":19075148},{"NoteNumber":66,"Velocity":56,"Duration":84752,"SoundDuration":84752,"Delta":19075148},{"NoteNumber":72,"Velocity":64,"Duration":82271,"SoundDuration":82271,"Delta":19159900},{"NoteNumber":63,"Velocity":56,"Duration":82271,"SoundDuration":82271,"Delta":19159900},{"NoteNumber":70,"Velocity":64,"Duration":81521,"SoundDuration":81521,"Delta":19242171},{"NoteNumber":62,"Velocity":57,"Duration":81521,"SoundDuration":81521,"Delta":19242171},{"NoteNumber":69,"Velocity":65,"Duration":81110,"SoundDuration":81110,"Delta":19323693},{"NoteNumber":60,"Velocity":57,"Duration":81110,"SoundDuration":81110,"Delta":19323693},{"NoteNumber":67,"Velocity":65,"Duration":80732,"SoundDuration":80732,"Delta":19404804},{"NoteNumber":58,"Velocity":58,"Duration":80732,"SoundDuration":80732,"Delta":19404804},{"NoteNumber":66,"Velocity":66,"Duration":80242,"SoundDuration":80242,"Delta":19485536},{"NoteNumber":57,"Velocity":58,"Duration":80242,"SoundDuration":80242,"Delta":19485536},{"NoteNumber":63,"Velocity":66,"Duration":79872,"SoundDuration":79872,"Delta":19565779},{"NoteNumber":55,"Velocity":59,"Duration":79872,"SoundDuration":79872,"Delta":19565779},{"NoteNumber":62,"Velocity":67,"Duration":79393,"SoundDuration":79393,"Delta":19645651},{"NoteNumber":54,"Velocity":60,"Duration":79393,"SoundDuration":79393,"Delta":19645651},{"NoteNumber":60,"Velocity":68,"Duration":79030,"SoundDuration":79030,"Delta":19725044},{"NoteNumber":51,"Velocity":60,"Duration":79030,"SoundDuration":79030,"Delta":19725044},{"NoteNumber":58,"Velocity":68,"Duration":78561,"SoundDuration":78561,"Delta":19804075},{"NoteNumber":50,"Velocity":61,"Duration":78561,"SoundDuration":78561,"Delta":19804075},{"NoteNumber":57,"Velocity":69,"Duration":78206,"SoundDuration":78206,"Delta":19882637},{"NoteNumber":48,"Velocity":61,"Duration":78206,"SoundDuration":78206,"Delta":19882637},{"NoteNumber":55,"Velocity":69,"Duration":77747,"SoundDuration":77747,"Delta":19960844},{"NoteNumber":46,"Velocity":62,"Duration":77747,"SoundDuration":77747,"Delta":19960844},{"NoteNumber":54,"Velocity":70,"Duration":77399,"SoundDuration":77399,"Delta":20038591},{"NoteNumber":45,"Velocity":61,"Duration":77399,"SoundDuration":77399,"Delta":20038591},{"NoteNumber":51,"Velocity":69,"Duration":76949,"SoundDuration":76949,"Delta":20115991},{"NoteNumber":43,"Velocity":62,"Duration":76949,"SoundDuration":76949,"Delta":20115991},{"NoteNumber":50,"Velocity":70,"Duration":76609,"SoundDuration":76609,"Delta":20192940},{"NoteNumber":42,"Velocity":63,"Duration":76609,"SoundDuration":76609,"Delta":20192940},{"NoteNumber":48,"Velocity":72,"Duration":76168,"SoundDuration":76168,"Delta":20269549},{"NoteNumber":39,"Velocity":63,"Duration":76168,"SoundDuration":76168,"Delta":20269549},{"NoteNumber":46,"Velocity":73,"Duration":75834,"SoundDuration":75834,"Delta":20345717},{"NoteNumber":38,"Velocity":65,"Duration":75834,"SoundDuration":75834,"Delta":20345717},{"NoteNumber":45,"Velocity":74,"Duration":75402,"SoundDuration":75402,"Delta":20421552},{"NoteNumber":36,"Velocity":66,"Duration":75402,"SoundDuration":75402,"Delta":20421552},{"NoteNumber":43,"Velocity":80,"Duration":1332918,"SoundDuration":1332918,"Delta":20496954},{"NoteNumber":31,"Velocity":73,"Duration":1332918,"SoundDuration":1332918,"Delta":20496954},{"NoteNumber":34,"Velocity":73,"Duration":1332918,"SoundDuration":1332918,"Delta":20496954},{"NoteNumber":44,"Velocity":61,"Duration":127576,"SoundDuration":127576,"Delta":21829872},{"NoteNumber":35,"Velocity":43,"Duration":127576,"SoundDuration":127576,"Delta":21829872},{"NoteNumber":45,"Velocity":61,"Duration":122097,"SoundDuration":122097,"Delta":21957449},{"NoteNumber":36,"Velocity":44,"Duration":122097,"SoundDuration":122097,"Delta":21957449},{"NoteNumber":46,"Velocity":62,"Duration":117393,"SoundDuration":117393,"Delta":22079546},{"NoteNumber":37,"Velocity":44,"Duration":117393,"SoundDuration":117393,"Delta":22079546},{"NoteNumber":47,"Velocity":63,"Duration":112906,"SoundDuration":112906,"Delta":22196939},{"NoteNumber":38,"Velocity":45,"Duration":112906,"SoundDuration":112906,"Delta":22196939},{"NoteNumber":48,"Velocity":63,"Duration":108712,"SoundDuration":108712,"Delta":22309845},{"NoteNumber":39,"Velocity":45,"Duration":108712,"SoundDuration":108712,"Delta":22309845},{"NoteNumber":49,"Velocity":63,"Duration":105001,"SoundDuration":105001,"Delta":22418558},{"NoteNumber":40,"Velocity":46,"Duration":105001,"SoundDuration":105001,"Delta":22418558},{"NoteNumber":50,"Velocity":64,"Duration":101178,"SoundDuration":101178,"Delta":22523560},{"NoteNumber":41,"Velocity":46,"Duration":101178,"SoundDuration":101178,"Delta":22523560},{"NoteNumber":51,"Velocity":64,"Duration":98049,"SoundDuration":98049,"Delta":22624738},{"NoteNumber":42,"Velocity":47,"Duration":98049,"SoundDuration":98049,"Delta":22624738},{"NoteNumber":52,"Velocity":65,"Duration":94743,"SoundDuration":94743,"Delta":22722788},{"NoteNumber":43,"Velocity":48,"Duration":94743,"SoundDuration":94743,"Delta":22722788},{"NoteNumber":53,"Velocity":66,"Duration":91921,"SoundDuration":91921,"Delta":22817531},{"NoteNumber":44,"Velocity":49,"Duration":91921,"SoundDuration":91921,"Delta":22817531},{"NoteNumber":54,"Velocity":66,"Duration":89114,"SoundDuration":89114,"Delta":22909453},{"NoteNumber":45,"Velocity":49,"Duration":89114,"SoundDuration":89114,"Delta":22909453},{"NoteNumber":55,"Velocity":67,"Duration":86480,"SoundDuration":86480,"Delta":22998567},{"NoteNumber":46,"Velocity":50,"Duration":86480,"SoundDuration":86480,"Delta":22998567},{"NoteNumber":56,"Velocity":68,"Duration":84116,"SoundDuration":84116,"Delta":23085048},{"NoteNumber":47,"Velocity":51,"Duration":84116,"SoundDuration":84116,"Delta":23085048},{"NoteNumber":57,"Velocity":68,"Duration":81676,"SoundDuration":81676,"Delta":23169164},{"NoteNumber":48,"Velocity":52,"Duration":81676,"SoundDuration":81676,"Delta":23169164},{"NoteNumber":58,"Velocity":69,"Duration":79649,"SoundDuration":79649,"Delta":23250840},{"NoteNumber":49,"Velocity":52,"Duration":79649,"SoundDuration":79649,"Delta":23250840},{"NoteNumber":59,"Velocity":69,"Duration":78125,"SoundDuration":78125,"Delta":23330490},{"NoteNumber":50,"Velocity":53,"Duration":78125,"SoundDuration":78125,"Delta":23330490},{"NoteNumber":60,"Velocity":70,"Duration":78125,"SoundDuration":78125,"Delta":23408615},{"NoteNumber":51,"Velocity":54,"Duration":78125,"SoundDuration":78125,"Delta":23408615},{"NoteNumber":61,"Velocity":71,"Duration":78125,"SoundDuration":78125,"Delta":23486740},{"NoteNumber":52,"Velocity":54,"Duration":78125,"SoundDuration":78125,"Delta":23486740},{"NoteNumber":62,"Velocity":72,"Duration":78125,"SoundDuration":78125,"Delta":23564865},{"NoteNumber":53,"Velocity":54,"Duration":78125,"SoundDuration":78125,"Delta":23564865},{"NoteNumber":63,"Velocity":72,"Duration":78125,"SoundDuration":78125,"Delta":23642990},{"NoteNumber":54,"Velocity":55,"Duration":78125,"SoundDuration":78125,"Delta":23642990},{"NoteNumber":64,"Velocity":72,"Duration":78125,"SoundDuration":78125,"Delta":23721115},{"NoteNumber":55,"Velocity":56,"Duration":78125,"SoundDuration":78125,"Delta":23721115},{"NoteNumber":65,"Velocity":72,"Duration":78125,"SoundDuration":78125,"Delta":23799240},{"NoteNumber":56,"Velocity":57,"Duration":78125,"SoundDuration":78125,"Delta":23799240},{"NoteNumber":66,"Velocity":73,"Duration":78125,"SoundDuration":78125,"Delta":23877365},{"NoteNumber":57,"Velocity":57,"Duration":78125,"SoundDuration":78125,"Delta":23877365},{"NoteNumber":67,"Velocity":76,"Duration":77319,"SoundDuration":77319,"Delta":23955490},{"NoteNumber":58,"Velocity":53,"Duration":77319,"SoundDuration":77319,"Delta":23955490},{"NoteNumber":66,"Velocity":75,"Duration":77319,"SoundDuration":77319,"Delta":24032810},{"NoteNumber":57,"Velocity":53,"Duration":77319,"SoundDuration":77319,"Delta":24032810},{"NoteNumber":65,"Velocity":74,"Duration":76923,"SoundDuration":76923,"Delta":24110129},{"NoteNumber":56,"Velocity":52,"Duration":76923,"SoundDuration":76923,"Delta":24110129},{"NoteNumber":64,"Velocity":72,"Duration":76818,"SoundDuration":76818,"Delta":24187053},{"NoteNumber":55,"Velocity":51,"Duration":76818,"SoundDuration":76818,"Delta":24187053},{"NoteNumber":63,"Velocity":72,"Duration":76530,"SoundDuration":76530,"Delta":24263871},{"NoteNumber":54,"Velocity":51,"Duration":76530,"SoundDuration":76530,"Delta":24263871},{"NoteNumber":62,"Velocity":71,"Duration":76349,"SoundDuration":76349,"Delta":24340402},{"NoteNumber":53,"Velocity":50,"Duration":76349,"SoundDuration":76349,"Delta":24340402},{"NoteNumber":61,"Velocity":70,"Duration":76142,"SoundDuration":76142,"Delta":24416751},{"NoteNumber":52,"Velocity":49,"Duration":76142,"SoundDuration":76142,"Delta":24416751},{"NoteNumber":60,"Velocity":68,"Duration":75885,"SoundDuration":75885,"Delta":24492893},{"NoteNumber":51,"Velocity":49,"Duration":75885,"SoundDuration":75885,"Delta":24492893},{"NoteNumber":59,"Velocity":66,"Duration":76065,"SoundDuration":76065,"Delta":24568779},{"NoteNumber":50,"Velocity":46,"Duration":76065,"SoundDuration":76065,"Delta":24568779},{"NoteNumber":58,"Velocity":67,"Duration":76609,"SoundDuration":76609,"Delta":24644844},{"NoteNumber":49,"Velocity":47,"Duration":76609,"SoundDuration":76609,"Delta":24644844},{"NoteNumber":57,"Velocity":68,"Duration":77055,"SoundDuration":77055,"Delta":24721454},{"NoteNumber":48,"Velocity":48,"Duration":77055,"SoundDuration":77055,"Delta":24721454},{"NoteNumber":56,"Velocity":69,"Duration":77586,"SoundDuration":77586,"Delta":24798509},{"NoteNumber":47,"Velocity":50,"Duration":77586,"SoundDuration":77586,"Delta":24798509},{"NoteNumber":55,"Velocity":70,"Duration":78098,"SoundDuration":78098,"Delta":24876096},{"NoteNumber":46,"Velocity":51,"Duration":78098,"SoundDuration":78098,"Delta":24876096},{"NoteNumber":54,"Velocity":71,"Duration":78644,"SoundDuration":78644,"Delta":24954194},{"NoteNumber":45,"Velocity":53,"Duration":78644,"SoundDuration":78644,"Delta":24954194},{"NoteNumber":53,"Velocity":72,"Duration":79086,"SoundDuration":79086,"Delta":25032838},{"NoteNumber":44,"Velocity":54,"Duration":79086,"SoundDuration":79086,"Delta":25032838},{"NoteNumber":52,"Velocity":73,"Duration":79646,"SoundDuration":79646,"Delta":25111925},{"NoteNumber":43,"Velocity":55,"Duration":79646,"SoundDuration":79646,"Delta":25111925},{"NoteNumber":51,"Velocity":74,"Duration":80186,"SoundDuration":80186,"Delta":25191571},{"NoteNumber":42,"Velocity":59,"Duration":80186,"SoundDuration":80186,"Delta":25191571},{"NoteNumber":50,"Velocity":75,"Duration":80761,"SoundDuration":80761,"Delta":25271758},{"NoteNumber":41,"Velocity":60,"Duration":80761,"SoundDuration":80761,"Delta":25271758},{"NoteNumber":49,"Velocity":77,"Duration":81345,"SoundDuration":81345,"Delta":25352519},{"NoteNumber":40,"Velocity":62,"Duration":81345,"SoundDuration":81345,"Delta":25352519},{"NoteNumber":48,"Velocity":79,"Duration":81818,"SoundDuration":81818,"Delta":25433864},{"NoteNumber":39,"Velocity":63,"Duration":81818,"SoundDuration":81818,"Delta":25433864},{"NoteNumber":47,"Velocity":80,"Duration":82388,"SoundDuration":82388,"Delta":25515683},{"NoteNumber":38,"Velocity":64,"Duration":82388,"SoundDuration":82388,"Delta":25515683},{"NoteNumber":46,"Velocity":81,"Duration":82995,"SoundDuration":82995,"Delta":25598071},{"NoteNumber":37,"Velocity":66,"Duration":82995,"SoundDuration":82995,"Delta":25598071},{"NoteNumber":45,"Velocity":83,"Duration":83612,"SoundDuration":83612,"Delta":25681067},{"NoteNumber":36,"Velocity":67,"Duration":83612,"SoundDuration":83612,"Delta":25681067},{"NoteNumber":44,"Velocity":85,"Duration":83798,"SoundDuration":83798,"Delta":25764680},{"NoteNumber":35,"Velocity":69,"Duration":83798,"SoundDuration":83798,"Delta":25764680},{"NoteNumber":43,"Velocity":97,"Duration":252100,"SoundDuration":252100,"Delta":25848479},{"NoteNumber":31,"Velocity":79,"Duration":252100,"SoundDuration":252100,"Delta":25848479},{"NoteNumber":34,"Velocity":79,"Duration":252100,"SoundDuration":252100,"Delta":25848479},{"NoteNumber":103,"Velocity":96,"Duration":252100,"SoundDuration":252100,"Delta":26856882},{"NoteNumber":98,"Velocity":81,"Duration":252100,"SoundDuration":252100,"Delta":26856882},{"NoteNumber":94,"Velocity":69,"Duration":252100,"SoundDuration":252100,"Delta":26856882},{"NoteNumber":91,"Velocity":69,"Duration":252100,"SoundDuration":252100,"Delta":26856882},{"NoteNumber":67,"Velocity":76,"Duration":252100,"SoundDuration":252100,"Delta":26856882},{"NoteNumber":62,"Velocity":63,"Duration":252100,"SoundDuration":252100,"Delta":26856882},{"NoteNumber":58,"Velocity":63,"Duration":252100,"SoundDuration":252100,"Delta":26856882},{"NoteNumber":55,"Velocity":54,"Duration":252100,"SoundDuration":252100,"Delta":26856882},{"NoteNumber":43,"Velocity":37,"Duration":1771398,"SoundDuration":1771398,"Delta":31069376},{"NoteNumber":50,"Velocity":42,"Duration":1669408,"SoundDuration":1669408,"Delta":31171366},{"NoteNumber":58,"Velocity":47,"Duration":216677,"SoundDuration":216677,"Delta":31281897},{"NoteNumber":62,"Velocity":50,"Duration":2284875,"SoundDuration":2284875,"Delta":31395314},{"NoteNumber":55,"Velocity":32,"Duration":102138,"SoundDuration":102138,"Delta":31498574},{"NoteNumber":58,"Velocity":40,"Duration":100899,"SoundDuration":100899,"Delta":31600712},{"NoteNumber":55,"Velocity":31,"Duration":99733,"SoundDuration":99733,"Delta":31701612},{"NoteNumber":58,"Velocity":40,"Duration":98676,"SoundDuration":98676,"Delta":31801345},{"NoteNumber":55,"Velocity":31,"Duration":97564,"SoundDuration":97564,"Delta":31900021},{"NoteNumber":58,"Velocity":40,"Duration":96347,"SoundDuration":96347,"Delta":31997585},{"NoteNumber":55,"Velocity":32,"Duration":95282,"SoundDuration":95282,"Delta":32093933},{"NoteNumber":58,"Velocity":41,"Duration":93949,"SoundDuration":93949,"Delta":32189215},{"NoteNumber":55,"Velocity":33,"Duration":93868,"SoundDuration":93868,"Delta":32283165},{"NoteNumber":58,"Velocity":41,"Duration":93341,"SoundDuration":93341,"Delta":32377033},{"NoteNumber":55,"Velocity":33,"Duration":93141,"SoundDuration":93141,"Delta":32470375},{"NoteNumber":58,"Velocity":42,"Duration":92741,"SoundDuration":92741,"Delta":32563517},{"NoteNumber":55,"Velocity":33,"Duration":92379,"SoundDuration":92379,"Delta":32656258},{"NoteNumber":58,"Velocity":42,"Duration":92137,"SoundDuration":92137,"Delta":32748637},{"NoteNumber":55,"Velocity":34,"Duration":91922,"SoundDuration":91922,"Delta":32840775},{"NoteNumber":58,"Velocity":42,"Duration":92501,"SoundDuration":92501,"Delta":32932697},{"NoteNumber":55,"Velocity":34,"Duration":92651,"SoundDuration":92651,"Delta":33025199},{"NoteNumber":58,"Velocity":43,"Duration":93063,"SoundDuration":93063,"Delta":33117850},{"NoteNumber":55,"Velocity":34,"Duration":93212,"SoundDuration":93212,"Delta":33210913},{"NoteNumber":58,"Velocity":43,"Duration":93621,"SoundDuration":93621,"Delta":33304126},{"NoteNumber":55,"Velocity":34,"Duration":93774,"SoundDuration":93774,"Delta":33397747},{"NoteNumber":58,"Velocity":44,"Duration":94197,"SoundDuration":94197,"Delta":33491522},{"NoteNumber":55,"Velocity":35,"Duration":94469,"SoundDuration":94469,"Delta":33585719},{"NoteNumber":67,"Velocity":56,"Duration":738245,"SoundDuration":738245,"Delta":33680189},{"NoteNumber":63,"Velocity":48,"Duration":94122,"SoundDuration":94122,"Delta":33680189},{"NoteNumber":55,"Velocity":36,"Duration":92838,"SoundDuration":92838,"Delta":33774311},{"NoteNumber":63,"Velocity":44,"Duration":91515,"SoundDuration":91515,"Delta":33867150},{"NoteNumber":55,"Velocity":33,"Duration":91407,"SoundDuration":91407,"Delta":33958665},{"NoteNumber":63,"Velocity":40,"Duration":91407,"SoundDuration":91407,"Delta":34050072},{"NoteNumber":55,"Velocity":45,"Duration":91909,"SoundDuration":91909,"Delta":34141480},{"NoteNumber":63,"Velocity":34,"Duration":92019,"SoundDuration":92019,"Delta":34233390},{"NoteNumber":55,"Velocity":40,"Duration":93024,"SoundDuration":93024,"Delta":34325409},{"NoteNumber":66,"Velocity":54,"Duration":745657,"SoundDuration":745657,"Delta":34418434},{"NoteNumber":62,"Velocity":47,"Duration":94120,"SoundDuration":94120,"Delta":34418434},{"NoteNumber":55,"Velocity":34,"Duration":93361,"SoundDuration":93361,"Delta":34512555},{"NoteNumber":62,"Velocity":43,"Duration":92539,"SoundDuration":92539,"Delta":34605916},{"NoteNumber":55,"Velocity":35,"Duration":91945,"SoundDuration":91945,"Delta":34698456},{"NoteNumber":62,"Velocity":40,"Duration":92576,"SoundDuration":92576,"Delta":34790401},{"NoteNumber":55,"Velocity":35,"Duration":93063,"SoundDuration":93063,"Delta":34882978},{"NoteNumber":62,"Velocity":44,"Duration":93698,"SoundDuration":93698,"Delta":34976041},{"NoteNumber":55,"Velocity":40,"Duration":94353,"SoundDuration":94353,"Delta":35069739},{"NoteNumber":63,"Velocity":54,"Duration":805040,"SoundDuration":805040,"Delta":35164092},{"NoteNumber":60,"Velocity":47,"Duration":94586,"SoundDuration":94586,"Delta":35164092},{"NoteNumber":55,"Velocity":33,"Duration":93928,"SoundDuration":93928,"Delta":35258679},{"NoteNumber":60,"Velocity":43,"Duration":93286,"SoundDuration":93286,"Delta":35352607},{"NoteNumber":55,"Velocity":34,"Duration":92912,"SoundDuration":92912,"Delta":35445894},{"NoteNumber":60,"Velocity":42,"Duration":97641,"SoundDuration":97641,"Delta":35538806},{"NoteNumber":55,"Velocity":33,"Duration":103672,"SoundDuration":103672,"Delta":35636448},{"NoteNumber":60,"Velocity":42,"Duration":110605,"SoundDuration":110605,"Delta":35740121},{"NoteNumber":55,"Velocity":34,"Duration":118406,"SoundDuration":118406,"Delta":35850727},{"NoteNumber":62,"Velocity":50,"Duration":2294113,"SoundDuration":2294113,"Delta":35969133},{"NoteNumber":58,"Velocity":44,"Duration":96982,"SoundDuration":96982,"Delta":35969133},{"NoteNumber":55,"Velocity":32,"Duration":97382,"SoundDuration":97382,"Delta":36066115},{"NoteNumber":58,"Velocity":40,"Duration":96614,"SoundDuration":96614,"Delta":36163498},{"NoteNumber":55,"Velocity":31,"Duration":95690,"SoundDuration":95690,"Delta":36260112},{"NoteNumber":58,"Velocity":40,"Duration":95016,"SoundDuration":95016,"Delta":36355802},{"NoteNumber":55,"Velocity":31,"Duration":94082,"SoundDuration":94082,"Delta":36450819},{"NoteNumber":58,"Velocity":40,"Duration":93435,"SoundDuration":93435,"Delta":36544902},{"NoteNumber":55,"Velocity":31,"Duration":92688,"SoundDuration":92688,"Delta":36638337},{"NoteNumber":58,"Velocity":40,"Duration":91945,"SoundDuration":91945,"Delta":36731026},{"NoteNumber":55,"Velocity":31,"Duration":91945,"SoundDuration":91945,"Delta":36822971},{"NoteNumber":58,"Velocity":39,"Duration":91945,"SoundDuration":91945,"Delta":36914917},{"NoteNumber":55,"Velocity":30,"Duration":91945,"SoundDuration":91945,"Delta":37006863},{"NoteNumber":58,"Velocity":37,"Duration":91945,"SoundDuration":91945,"Delta":37098808},{"NoteNumber":55,"Velocity":29,"Duration":91945,"SoundDuration":91945,"Delta":37190754},{"NoteNumber":58,"Velocity":36,"Duration":91945,"SoundDuration":91945,"Delta":37282699},{"NoteNumber":55,"Velocity":29,"Duration":92093,"SoundDuration":92093,"Delta":37374645},{"NoteNumber":58,"Velocity":32,"Duration":92501,"SoundDuration":92501,"Delta":37466739},{"NoteNumber":55,"Velocity":28,"Duration":92651,"SoundDuration":92651,"Delta":37559240},{"NoteNumber":58,"Velocity":36,"Duration":93063,"SoundDuration":93063,"Delta":37651891},{"NoteNumber":55,"Velocity":29,"Duration":93212,"SoundDuration":93212,"Delta":37744955},{"NoteNumber":58,"Velocity":37,"Duration":93621,"SoundDuration":93621,"Delta":37838167},{"NoteNumber":55,"Velocity":30,"Duration":93774,"SoundDuration":93774,"Delta":37931789},{"NoteNumber":58,"Velocity":39,"Duration":94197,"SoundDuration":94197,"Delta":38025563},{"NoteNumber":55,"Velocity":31,"Duration":47828,"SoundDuration":47828,"Delta":38119761},{"NoteNumber":53,"Velocity":35,"Duration":199520,"SoundDuration":199520,"Delta":38167590},{"NoteNumber":57,"Velocity":48,"Duration":151691,"SoundDuration":151691,"Delta":38215418},{"NoteNumber":62,"Velocity":56,"Duration":794548,"SoundDuration":794548,"Delta":38263247},{"NoteNumber":53,"Velocity":36,"Duration":92838,"SoundDuration":92838,"Delta":38367110},{"NoteNumber":57,"Velocity":44,"Duration":91515,"SoundDuration":91515,"Delta":38459948},{"NoteNumber":53,"Velocity":33,"Duration":91407,"SoundDuration":91407,"Delta":38551463},{"NoteNumber":57,"Velocity":40,"Duration":91407,"SoundDuration":91407,"Delta":38642871},{"NoteNumber":53,"Velocity":45,"Duration":91909,"SoundDuration":91909,"Delta":38734279},{"NoteNumber":57,"Velocity":34,"Duration":92019,"SoundDuration":92019,"Delta":38826188},{"NoteNumber":53,"Velocity":40,"Duration":46528,"SoundDuration":46528,"Delta":38918208},{"NoteNumber":51,"Velocity":39,"Duration":187178,"SoundDuration":187178,"Delta":38964737},{"NoteNumber":55,"Velocity":47,"Duration":140649,"SoundDuration":140649,"Delta":39011266},{"NoteNumber":60,"Velocity":54,"Duration":793485,"SoundDuration":793485,"Delta":39057795},{"NoteNumber":51,"Velocity":34,"Duration":93361,"SoundDuration":93361,"Delta":39151916},{"NoteNumber":55,"Velocity":43,"Duration":92539,"SoundDuration":92539,"Delta":39245277},{"NoteNumber":51,"Velocity":35,"Duration":91945,"SoundDuration":91945,"Delta":39337816},{"NoteNumber":55,"Velocity":40,"Duration":92576,"SoundDuration":92576,"Delta":39429762},{"NoteNumber":51,"Velocity":35,"Duration":93063,"SoundDuration":93063,"Delta":39522338},{"NoteNumber":55,"Velocity":44,"Duration":93698,"SoundDuration":93698,"Delta":39615402},{"NoteNumber":51,"Velocity":40,"Duration":47393,"SoundDuration":47393,"Delta":39709100},{"NoteNumber":50,"Velocity":39,"Duration":190569,"SoundDuration":190569,"Delta":39756493},{"NoteNumber":53,"Velocity":47,"Duration":143175,"SoundDuration":143175,"Delta":39803887},{"NoteNumber":58,"Velocity":54,"Duration":817401,"SoundDuration":817401,"Delta":39851280},{"NoteNumber":50,"Velocity":33,"Duration":93928,"SoundDuration":93928,"Delta":39947062},{"NoteNumber":53,"Velocity":43,"Duration":93286,"SoundDuration":93286,"Delta":40040991},{"NoteNumber":50,"Velocity":34,"Duration":92538,"SoundDuration":92538,"Delta":40134278},{"NoteNumber":53,"Velocity":42,"Duration":93249,"SoundDuration":93249,"Delta":40226816},{"NoteNumber":50,"Velocity":33,"Duration":93890,"SoundDuration":93890,"Delta":40320066},{"NoteNumber":53,"Velocity":42,"Duration":94742,"SoundDuration":94742,"Delta":40413956},{"NoteNumber":50,"Velocity":34,"Duration":53327,"SoundDuration":53327,"Delta":40508699},{"NoteNumber":48,"Velocity":32,"Duration":203637,"SoundDuration":203637,"Delta":40562026},{"NoteNumber":51,"Velocity":44,"Duration":150309,"SoundDuration":150309,"Delta":40615354},{"NoteNumber":57,"Velocity":50,"Duration":2247175,"SoundDuration":2247175,"Delta":40668682},{"NoteNumber":48,"Velocity":32,"Duration":97382,"SoundDuration":97382,"Delta":40765664},{"NoteNumber":51,"Velocity":40,"Duration":96614,"SoundDuration":96614,"Delta":40863046},{"NoteNumber":48,"Velocity":32,"Duration":95690,"SoundDuration":95690,"Delta":40959660},{"NoteNumber":51,"Velocity":42,"Duration":95016,"SoundDuration":95016,"Delta":41055351},{"NoteNumber":48,"Velocity":33,"Duration":94082,"SoundDuration":94082,"Delta":41150368},{"NoteNumber":51,"Velocity":43,"Duration":93435,"SoundDuration":93435,"Delta":41244450},{"NoteNumber":48,"Velocity":33,"Duration":92688,"SoundDuration":92688,"Delta":41337886},{"NoteNumber":51,"Velocity":44,"Duration":91945,"SoundDuration":91945,"Delta":41430574},{"NoteNumber":48,"Velocity":35,"Duration":91945,"SoundDuration":91945,"Delta":41522520},{"NoteNumber":51,"Velocity":45,"Duration":91945,"SoundDuration":91945,"Delta":41614466},{"NoteNumber":48,"Velocity":36,"Duration":91945,"SoundDuration":91945,"Delta":41706411},{"NoteNumber":51,"Velocity":45,"Duration":91945,"SoundDuration":91945,"Delta":41798357},{"NoteNumber":48,"Velocity":36,"Duration":91945,"SoundDuration":91945,"Delta":41890302},{"NoteNumber":51,"Velocity":46,"Duration":91945,"SoundDuration":91945,"Delta":41982248},{"NoteNumber":48,"Velocity":37,"Duration":92093,"SoundDuration":92093,"Delta":42074194},{"NoteNumber":51,"Velocity":48,"Duration":92501,"SoundDuration":92501,"Delta":42166287},{"NoteNumber":48,"Velocity":38,"Duration":92651,"SoundDuration":92651,"Delta":42258789},{"NoteNumber":51,"Velocity":48,"Duration":93063,"SoundDuration":93063,"Delta":42351440},{"NoteNumber":48,"Velocity":39,"Duration":93212,"SoundDuration":93212,"Delta":42444504},{"NoteNumber":51,"Velocity":50,"Duration":93621,"SoundDuration":93621,"Delta":42537716},{"NoteNumber":48,"Velocity":40,"Duration":93774,"SoundDuration":93774,"Delta":42631337},{"NoteNumber":51,"Velocity":51,"Duration":94510,"SoundDuration":94510,"Delta":42725112},{"NoteNumber":48,"Velocity":41,"Duration":96234,"SoundDuration":96234,"Delta":42819623},{"NoteNumber":60,"Velocity":72,"Duration":798687,"SoundDuration":798687,"Delta":42915857},{"NoteNumber":51,"Velocity":57,"Duration":96691,"SoundDuration":96691,"Delta":42915857},{"NoteNumber":48,"Velocity":39,"Duration":95404,"SoundDuration":95404,"Delta":43012549},{"NoteNumber":51,"Velocity":51,"Duration":94360,"SoundDuration":94360,"Delta":43107954},{"NoteNumber":48,"Velocity":36,"Duration":93341,"SoundDuration":93341,"Delta":43202314},{"NoteNumber":51,"Velocity":44,"Duration":93341,"SoundDuration":93341,"Delta":43295656},{"NoteNumber":48,"Velocity":48,"Duration":93341,"SoundDuration":93341,"Delta":43388998},{"NoteNumber":51,"Velocity":36,"Duration":92618,"SoundDuration":92618,"Delta":43482339},{"NoteNumber":48,"Velocity":43,"Duration":46528,"SoundDuration":46528,"Delta":43574958},{"NoteNumber":49,"Velocity":42,"Duration":187178,"SoundDuration":187178,"Delta":43621487},{"NoteNumber":52,"Velocity":52,"Duration":140649,"SoundDuration":140649,"Delta":43668016},{"NoteNumber":57,"Velocity":67,"Duration":748322,"SoundDuration":748322,"Delta":43714545},{"NoteNumber":49,"Velocity":36,"Duration":93361,"SoundDuration":93361,"Delta":43808665},{"NoteNumber":52,"Velocity":45,"Duration":92539,"SoundDuration":92539,"Delta":43902026},{"NoteNumber":49,"Velocity":36,"Duration":91945,"SoundDuration":91945,"Delta":43994566},{"NoteNumber":52,"Velocity":44,"Duration":92576,"SoundDuration":92576,"Delta":44086512},{"NoteNumber":49,"Velocity":38,"Duration":93063,"SoundDuration":93063,"Delta":44179088},{"NoteNumber":52,"Velocity":45,"Duration":93698,"SoundDuration":93698,"Delta":44272152},{"NoteNumber":49,"Velocity":41,"Duration":97017,"SoundDuration":97017,"Delta":44365850},{"NoteNumber":55,"Velocity":61,"Duration":812505,"SoundDuration":812505,"Delta":44462868},{"NoteNumber":52,"Velocity":52,"Duration":95782,"SoundDuration":95782,"Delta":44462868},{"NoteNumber":49,"Velocity":34,"Duration":93928,"SoundDuration":93928,"Delta":44558650},{"NoteNumber":52,"Velocity":44,"Duration":93286,"SoundDuration":93286,"Delta":44652579},{"NoteNumber":49,"Velocity":35,"Duration":92538,"SoundDuration":92538,"Delta":44745865},{"NoteNumber":52,"Velocity":42,"Duration":93249,"SoundDuration":93249,"Delta":44838404},{"NoteNumber":49,"Velocity":33,"Duration":93890,"SoundDuration":93890,"Delta":44931654},{"NoteNumber":52,"Velocity":42,"Duration":94742,"SoundDuration":94742,"Delta":45025544},{"NoteNumber":49,"Velocity":34,"Duration":51695,"SoundDuration":51695,"Delta":45120287},{"NoteNumber":50,"Velocity":44,"Duration":200373,"SoundDuration":200373,"Delta":45171982},{"NoteNumber":55,"Velocity":44,"Duration":148677,"SoundDuration":148677,"Delta":45223678},{"NoteNumber":58,"Velocity":60,"Duration":1483152,"SoundDuration":1483152,"Delta":45275373},{"NoteNumber":50,"Velocity":32,"Duration":97382,"SoundDuration":97382,"Delta":45372355},{"NoteNumber":55,"Velocity":40,"Duration":96614,"SoundDuration":96614,"Delta":45469738},{"NoteNumber":50,"Velocity":32,"Duration":95690,"SoundDuration":95690,"Delta":45566352},{"NoteNumber":55,"Velocity":42,"Duration":95016,"SoundDuration":95016,"Delta":45662042},{"NoteNumber":50,"Velocity":33,"Duration":94082,"SoundDuration":94082,"Delta":45757059},{"NoteNumber":55,"Velocity":43,"Duration":93435,"SoundDuration":93435,"Delta":45851142},{"NoteNumber":50,"Velocity":33,"Duration":92485,"SoundDuration":92485,"Delta":45944577},{"NoteNumber":55,"Velocity":44,"Duration":90709,"SoundDuration":90709,"Delta":46037063},{"NoteNumber":50,"Velocity":35,"Duration":89954,"SoundDuration":89954,"Delta":46127772},{"NoteNumber":55,"Velocity":43,"Duration":90519,"SoundDuration":90519,"Delta":46217726},{"NoteNumber":50,"Velocity":34,"Duration":90899,"SoundDuration":90899,"Delta":46308246},{"NoteNumber":55,"Velocity":42,"Duration":89770,"SoundDuration":89770,"Delta":46399145},{"NoteNumber":50,"Velocity":33,"Duration":88800,"SoundDuration":88800,"Delta":46488915},{"NoteNumber":55,"Velocity":41,"Duration":89656,"SoundDuration":89656,"Delta":46577715},{"NoteNumber":50,"Velocity":32,"Duration":91154,"SoundDuration":91154,"Delta":46667372},{"NoteNumber":57,"Velocity":48,"Duration":796507,"SoundDuration":796507,"Delta":46758526},{"NoteNumber":54,"Velocity":40,"Duration":92501,"SoundDuration":92501,"Delta":46758526},{"NoteNumber":50,"Velocity":32,"Duration":92651,"SoundDuration":92651,"Delta":46851027},{"NoteNumber":54,"Velocity":40,"Duration":93063,"SoundDuration":93063,"Delta":46943679},{"NoteNumber":50,"Velocity":32,"Duration":93212,"SoundDuration":93212,"Delta":47036742},{"NoteNumber":54,"Velocity":40,"Duration":93621,"SoundDuration":93621,"Delta":47129954},{"NoteNumber":50,"Velocity":32,"Duration":93774,"SoundDuration":93774,"Delta":47223576},{"NoteNumber":54,"Velocity":40,"Duration":94197,"SoundDuration":94197,"Delta":47317351},{"NoteNumber":50,"Velocity":32,"Duration":47828,"SoundDuration":47828,"Delta":47411548},{"NoteNumber":48,"Velocity":35,"Duration":193900,"SoundDuration":193900,"Delta":47459377},{"NoteNumber":51,"Velocity":48,"Duration":146071,"SoundDuration":146071,"Delta":47507205},{"NoteNumber":57,"Velocity":56,"Duration":789766,"SoundDuration":789766,"Delta":47555034},{"NoteNumber":48,"Velocity":36,"Duration":93870,"SoundDuration":93870,"Delta":47653277},{"NoteNumber":51,"Velocity":44,"Duration":92499,"SoundDuration":92499,"Delta":47747147},{"NoteNumber":48,"Velocity":33,"Duration":91630,"SoundDuration":91630,"Delta":47839647},{"NoteNumber":51,"Velocity":40,"Duration":92419,"SoundDuration":92419,"Delta":47931277},{"NoteNumber":48,"Velocity":45,"Duration":93302,"SoundDuration":93302,"Delta":48023697},{"NoteNumber":51,"Velocity":34,"Duration":93961,"SoundDuration":93961,"Delta":48117000},{"NoteNumber":48,"Velocity":40,"Duration":46528,"SoundDuration":46528,"Delta":48210961},{"NoteNumber":46,"Velocity":39,"Duration":183485,"SoundDuration":183485,"Delta":48257490},{"NoteNumber":50,"Velocity":47,"Duration":136957,"SoundDuration":136957,"Delta":48304019},{"NoteNumber":55,"Velocity":54,"Duration":797316,"SoundDuration":797316,"Delta":48344800},{"NoteNumber":46,"Velocity":34,"Duration":94733,"SoundDuration":94733,"Delta":48440976},{"NoteNumber":50,"Velocity":43,"Duration":93278,"SoundDuration":93278,"Delta":48535709},{"NoteNumber":46,"Velocity":35,"Duration":92300,"SoundDuration":92300,"Delta":48628988},{"NoteNumber":50,"Velocity":40,"Duration":93585,"SoundDuration":93585,"Delta":48721288},{"NoteNumber":46,"Velocity":35,"Duration":95026,"SoundDuration":95026,"Delta":48814873},{"NoteNumber":50,"Velocity":44,"Duration":96044,"SoundDuration":96044,"Delta":48909899},{"NoteNumber":46,"Velocity":40,"Duration":47393,"SoundDuration":47393,"Delta":49005944},{"NoteNumber":45,"Velocity":39,"Duration":185601,"SoundDuration":185601,"Delta":49053337},{"NoteNumber":50,"Velocity":47,"Duration":138207,"SoundDuration":138207,"Delta":49100731},{"NoteNumber":54,"Velocity":54,"Duration":859707,"SoundDuration":859707,"Delta":49142117},{"NoteNumber":45,"Velocity":33,"Duration":95876,"SoundDuration":95876,"Delta":49238939},{"NoteNumber":50,"Velocity":43,"Duration":94898,"SoundDuration":94898,"Delta":49334815},{"NoteNumber":45,"Velocity":34,"Duration":94278,"SoundDuration":94278,"Delta":49429714},{"NoteNumber":50,"Velocity":42,"Duration":95448,"SoundDuration":95448,"Delta":49523992},{"NoteNumber":45,"Velocity":33,"Duration":96953,"SoundDuration":96953,"Delta":49619441},{"NoteNumber":50,"Velocity":42,"Duration":97908,"SoundDuration":97908,"Delta":49716394},{"NoteNumber":45,"Velocity":32,"Duration":54458,"SoundDuration":54458,"Delta":49814302},{"NoteNumber":43,"Velocity":40,"Duration":1679921,"SoundDuration":1679921,"Delta":49868760},{"NoteNumber":50,"Velocity":40,"Duration":1603274,"SoundDuration":1603274,"Delta":49923219},{"NoteNumber":58,"Velocity":40,"Duration":129809,"SoundDuration":129809,"Delta":49975783},{"NoteNumber":62,"Velocity":50,"Duration":2256454,"SoundDuration":2256454,"Delta":50001824},{"NoteNumber":55,"Velocity":32,"Duration":102138,"SoundDuration":102138,"Delta":50105592},{"NoteNumber":58,"Velocity":40,"Duration":100899,"SoundDuration":100899,"Delta":50207730},{"NoteNumber":55,"Velocity":31,"Duration":99733,"SoundDuration":99733,"Delta":50308629},{"NoteNumber":58,"Velocity":40,"Duration":98676,"SoundDuration":98676,"Delta":50408362},{"NoteNumber":55,"Velocity":31,"Duration":97564,"SoundDuration":97564,"Delta":50507039},{"NoteNumber":58,"Velocity":40,"Duration":96347,"SoundDuration":96347,"Delta":50604603},{"NoteNumber":55,"Velocity":31,"Duration":95177,"SoundDuration":95177,"Delta":50700951},{"NoteNumber":58,"Velocity":41,"Duration":93167,"SoundDuration":93167,"Delta":50796129},{"NoteNumber":55,"Velocity":33,"Duration":92592,"SoundDuration":92592,"Delta":50889296},{"NoteNumber":58,"Velocity":41,"Duration":92062,"SoundDuration":92062,"Delta":50981889},{"NoteNumber":55,"Velocity":33,"Duration":91575,"SoundDuration":91575,"Delta":51073951},{"NoteNumber":58,"Velocity":42,"Duration":91093,"SoundDuration":91093,"Delta":51165527},{"NoteNumber":55,"Velocity":33,"Duration":90580,"SoundDuration":90580,"Delta":51256621},{"NoteNumber":58,"Velocity":42,"Duration":90108,"SoundDuration":90108,"Delta":51347201},{"NoteNumber":55,"Velocity":34,"Duration":89182,"SoundDuration":89182,"Delta":51437310},{"NoteNumber":58,"Velocity":42,"Duration":89109,"SoundDuration":89109,"Delta":51526493},{"NoteNumber":55,"Velocity":34,"Duration":89713,"SoundDuration":89713,"Delta":51615603},{"NoteNumber":58,"Velocity":43,"Duration":90471,"SoundDuration":90471,"Delta":51705316},{"NoteNumber":55,"Velocity":34,"Duration":91093,"SoundDuration":91093,"Delta":51795788},{"NoteNumber":58,"Velocity":43,"Duration":91725,"SoundDuration":91725,"Delta":51886881},{"NoteNumber":55,"Velocity":34,"Duration":92478,"SoundDuration":92478,"Delta":51978607},{"NoteNumber":58,"Velocity":44,"Duration":93129,"SoundDuration":93129,"Delta":52071086},{"NoteNumber":55,"Velocity":35,"Duration":94064,"SoundDuration":94064,"Delta":52164215},{"NoteNumber":62,"Velocity":68,"Duration":738245,"SoundDuration":738245,"Delta":52258279},{"NoteNumber":59,"Velocity":53,"Duration":94122,"SoundDuration":94122,"Delta":52258279},{"NoteNumber":55,"Velocity":39,"Duration":92838,"SoundDuration":92838,"Delta":52352401},{"NoteNumber":59,"Velocity":47,"Duration":91515,"SoundDuration":91515,"Delta":52445240},{"NoteNumber":55,"Velocity":36,"Duration":91407,"SoundDuration":91407,"Delta":52536755},{"NoteNumber":59,"Velocity":44,"Duration":91407,"SoundDuration":91407,"Delta":52628163},{"NoteNumber":55,"Velocity":50,"Duration":91909,"SoundDuration":91909,"Delta":52719570},{"NoteNumber":59,"Velocity":37,"Duration":92019,"SoundDuration":92019,"Delta":52811480},{"NoteNumber":55,"Velocity":45,"Duration":93024,"SoundDuration":93024,"Delta":52903500},{"NoteNumber":63,"Velocity":72,"Duration":745657,"SoundDuration":745657,"Delta":52996524},{"NoteNumber":60,"Velocity":59,"Duration":94120,"SoundDuration":94120,"Delta":52996524},{"NoteNumber":55,"Velocity":44,"Duration":93361,"SoundDuration":93361,"Delta":53090645},{"NoteNumber":60,"Velocity":53,"Duration":92539,"SoundDuration":92539,"Delta":53184006},{"NoteNumber":55,"Velocity":42,"Duration":91945,"SoundDuration":91945,"Delta":53276546},{"NoteNumber":60,"Velocity":50,"Duration":92576,"SoundDuration":92576,"Delta":53368491},{"NoteNumber":55,"Velocity":44,"Duration":93063,"SoundDuration":93063,"Delta":53461068},{"NoteNumber":60,"Velocity":50,"Duration":93698,"SoundDuration":93698,"Delta":53554131},{"NoteNumber":55,"Velocity":46,"Duration":94353,"SoundDuration":94353,"Delta":53647829},{"NoteNumber":60,"Velocity":66,"Duration":800740,"SoundDuration":800740,"Delta":53742182},{"NoteNumber":63,"Velocity":66,"Duration":800740,"SoundDuration":800740,"Delta":53742182},{"NoteNumber":58,"Velocity":61,"Duration":94586,"SoundDuration":94586,"Delta":53742182},{"NoteNumber":54,"Velocity":44,"Duration":93928,"SoundDuration":93928,"Delta":53836769},{"NoteNumber":58,"Velocity":55,"Duration":93286,"SoundDuration":93286,"Delta":53930697},{"NoteNumber":54,"Velocity":44,"Duration":92426,"SoundDuration":92426,"Delta":54023984},{"NoteNumber":58,"Velocity":52,"Duration":94650,"SoundDuration":94650,"Delta":54116411},{"NoteNumber":54,"Velocity":38,"Duration":99433,"SoundDuration":99433,"Delta":54211061},{"NoteNumber":58,"Velocity":49,"Duration":111460,"SoundDuration":111460,"Delta":54310495},{"NoteNumber":54,"Velocity":40,"Duration":120968,"SoundDuration":120968,"Delta":54421955},{"NoteNumber":60,"Velocity":61,"Duration":2208463,"SoundDuration":2208463,"Delta":54542923},{"NoteNumber":63,"Velocity":61,"Duration":2208463,"SoundDuration":2208463,"Delta":54542923},{"NoteNumber":57,"Velocity":44,"Duration":95847,"SoundDuration":95847,"Delta":54542923},{"NoteNumber":53,"Velocity":32,"Duration":94938,"SoundDuration":94938,"Delta":54638771},{"NoteNumber":57,"Velocity":40,"Duration":93986,"SoundDuration":93986,"Delta":54733709},{"NoteNumber":53,"Velocity":31,"Duration":92918,"SoundDuration":92918,"Delta":54827695},{"NoteNumber":57,"Velocity":40,"Duration":92100,"SoundDuration":92100,"Delta":54920614},{"NoteNumber":53,"Velocity":31,"Duration":91112,"SoundDuration":91112,"Delta":55012715},{"NoteNumber":57,"Velocity":40,"Duration":90217,"SoundDuration":90217,"Delta":55103827},{"NoteNumber":53,"Velocity":31,"Duration":89481,"SoundDuration":89481,"Delta":55194045},{"NoteNumber":57,"Velocity":40,"Duration":89285,"SoundDuration":89285,"Delta":55283526},{"NoteNumber":53,"Velocity":32,"Duration":89374,"SoundDuration":89374,"Delta":55372812},{"NoteNumber":57,"Velocity":40,"Duration":89820,"SoundDuration":89820,"Delta":55462187},{"NoteNumber":53,"Velocity":32,"Duration":89910,"SoundDuration":89910,"Delta":55552007},{"NoteNumber":57,"Velocity":40,"Duration":90361,"SoundDuration":90361,"Delta":55641918},{"NoteNumber":53,"Velocity":32,"Duration":90452,"SoundDuration":90452,"Delta":55732279},{"NoteNumber":57,"Velocity":40,"Duration":90909,"SoundDuration":90909,"Delta":55822732},{"NoteNumber":53,"Velocity":32,"Duration":91001,"SoundDuration":91001,"Delta":55913641},{"NoteNumber":57,"Velocity":40,"Duration":91463,"SoundDuration":91463,"Delta":56004643},{"NoteNumber":53,"Velocity":32,"Duration":91890,"SoundDuration":91890,"Delta":56096106},{"NoteNumber":57,"Velocity":40,"Duration":93063,"SoundDuration":93063,"Delta":56187996},{"NoteNumber":53,"Velocity":33,"Duration":93212,"SoundDuration":93212,"Delta":56281060},{"NoteNumber":57,"Velocity":42,"Duration":93621,"SoundDuration":93621,"Delta":56374272},{"NoteNumber":53,"Velocity":34,"Duration":93774,"SoundDuration":93774,"Delta":56467893},{"NoteNumber":57,"Velocity":43,"Duration":94528,"SoundDuration":94528,"Delta":56561668},{"NoteNumber":53,"Velocity":35,"Duration":95189,"SoundDuration":95189,"Delta":56656197},{"NoteNumber":60,"Velocity":56,"Duration":740143,"SoundDuration":740143,"Delta":56751386},{"NoteNumber":63,"Velocity":56,"Duration":740143,"SoundDuration":740143,"Delta":56751386},{"NoteNumber":57,"Velocity":48,"Duration":94203,"SoundDuration":94203,"Delta":56751386},{"NoteNumber":54,"Velocity":36,"Duration":92838,"SoundDuration":92838,"Delta":56845590},{"NoteNumber":57,"Velocity":44,"Duration":91515,"SoundDuration":91515,"Delta":56938429},{"NoteNumber":54,"Velocity":33,"Duration":91407,"SoundDuration":91407,"Delta":57029944},{"NoteNumber":57,"Velocity":40,"Duration":91407,"SoundDuration":91407,"Delta":57121351},{"NoteNumber":54,"Velocity":45,"Duration":91909,"SoundDuration":91909,"Delta":57212759},{"NoteNumber":57,"Velocity":34,"Duration":92294,"SoundDuration":92294,"Delta":57304669},{"NoteNumber":54,"Velocity":40,"Duration":94565,"SoundDuration":94565,"Delta":57396964},{"NoteNumber":62,"Velocity":54,"Duration":750276,"SoundDuration":750276,"Delta":57491529},{"NoteNumber":58,"Velocity":47,"Duration":94120,"SoundDuration":94120,"Delta":57491529},{"NoteNumber":55,"Velocity":34,"Duration":93361,"SoundDuration":93361,"Delta":57585650},{"NoteNumber":58,"Velocity":43,"Duration":92539,"SoundDuration":92539,"Delta":57679011},{"NoteNumber":55,"Velocity":35,"Duration":91945,"SoundDuration":91945,"Delta":57771551},{"NoteNumber":58,"Velocity":40,"Duration":92576,"SoundDuration":92576,"Delta":57863496},{"NoteNumber":55,"Velocity":35,"Duration":93063,"SoundDuration":93063,"Delta":57956073},{"NoteNumber":58,"Velocity":44,"Duration":94192,"SoundDuration":94192,"Delta":58049136},{"NoteNumber":55,"Velocity":40,"Duration":98477,"SoundDuration":98477,"Delta":58143329},{"NoteNumber":62,"Velocity":54,"Duration":834056,"SoundDuration":834056,"Delta":58241806},{"NoteNumber":56,"Velocity":47,"Duration":127181,"SoundDuration":127181,"Delta":58241806},{"NoteNumber":53,"Velocity":33,"Duration":93928,"SoundDuration":93928,"Delta":58337589},{"NoteNumber":56,"Velocity":43,"Duration":93286,"SoundDuration":93286,"Delta":58431517},{"NoteNumber":53,"Velocity":34,"Duration":92459,"SoundDuration":92459,"Delta":58524804},{"NoteNumber":56,"Velocity":42,"Duration":94544,"SoundDuration":94544,"Delta":58617263},{"NoteNumber":53,"Velocity":33,"Duration":99561,"SoundDuration":99561,"Delta":58711808},{"NoteNumber":56,"Velocity":42,"Duration":104510,"SoundDuration":104510,"Delta":58811369},{"NoteNumber":53,"Velocity":34,"Duration":53327,"SoundDuration":53327,"Delta":58915880},{"NoteNumber":51,"Velocity":32,"Duration":203637,"SoundDuration":203637,"Delta":58969208},{"NoteNumber":55,"Velocity":44,"Duration":150309,"SoundDuration":150309,"Delta":59022535},{"NoteNumber":60,"Velocity":50,"Duration":2247175,"SoundDuration":2247175,"Delta":59075863},{"NoteNumber":51,"Velocity":32,"Duration":97382,"SoundDuration":97382,"Delta":59172845},{"NoteNumber":55,"Velocity":40,"Duration":96614,"SoundDuration":96614,"Delta":59270227},{"NoteNumber":51,"Velocity":32,"Duration":95690,"SoundDuration":95690,"Delta":59366841},{"NoteNumber":55,"Velocity":42,"Duration":95016,"SoundDuration":95016,"Delta":59462532},{"NoteNumber":51,"Velocity":33,"Duration":94082,"SoundDuration":94082,"Delta":59557549},{"NoteNumber":55,"Velocity":43,"Duration":93435,"SoundDuration":93435,"Delta":59651631},{"NoteNumber":51,"Velocity":33,"Duration":92688,"SoundDuration":92688,"Delta":59745067},{"NoteNumber":55,"Velocity":44,"Duration":91945,"SoundDuration":91945,"Delta":59837755},{"NoteNumber":51,"Velocity":35,"Duration":91945,"SoundDuration":91945,"Delta":59929701},{"NoteNumber":55,"Velocity":45,"Duration":91945,"SoundDuration":91945,"Delta":60021647},{"NoteNumber":51,"Velocity":36,"Duration":91945,"SoundDuration":91945,"Delta":60113592},{"NoteNumber":55,"Velocity":45,"Duration":91945,"SoundDuration":91945,"Delta":60205538},{"NoteNumber":51,"Velocity":36,"Duration":91945,"SoundDuration":91945,"Delta":60297483},{"NoteNumber":55,"Velocity":46,"Duration":91945,"SoundDuration":91945,"Delta":60389429},{"NoteNumber":51,"Velocity":37,"Duration":92093,"SoundDuration":92093,"Delta":60481375},{"NoteNumber":55,"Velocity":48,"Duration":92501,"SoundDuration":92501,"Delta":60573469},{"NoteNumber":51,"Velocity":38,"Duration":92651,"SoundDuration":92651,"Delta":60665970},{"NoteNumber":55,"Velocity":48,"Duration":93063,"SoundDuration":93063,"Delta":60758621},{"NoteNumber":51,"Velocity":39,"Duration":93212,"SoundDuration":93212,"Delta":60851685},{"NoteNumber":55,"Velocity":50,"Duration":93621,"SoundDuration":93621,"Delta":60944897},{"NoteNumber":51,"Velocity":40,"Duration":93774,"SoundDuration":93774,"Delta":61038518},{"NoteNumber":55,"Velocity":51,"Duration":94510,"SoundDuration":94510,"Delta":61132293},{"NoteNumber":51,"Velocity":41,"Duration":96234,"SoundDuration":96234,"Delta":61226804},{"NoteNumber":61,"Velocity":72,"Duration":754845,"SoundDuration":754845,"Delta":61323039},{"NoteNumber":55,"Velocity":57,"Duration":96691,"SoundDuration":96691,"Delta":61323039},{"NoteNumber":52,"Velocity":39,"Duration":95404,"SoundDuration":95404,"Delta":61419731},{"NoteNumber":55,"Velocity":51,"Duration":94360,"SoundDuration":94360,"Delta":61515135},{"NoteNumber":52,"Velocity":36,"Duration":93341,"SoundDuration":93341,"Delta":61609495},{"NoteNumber":55,"Velocity":44,"Duration":93341,"SoundDuration":93341,"Delta":61702837},{"NoteNumber":52,"Velocity":48,"Duration":93341,"SoundDuration":93341,"Delta":61796179},{"NoteNumber":55,"Velocity":36,"Duration":93817,"SoundDuration":93817,"Delta":61889520},{"NoteNumber":52,"Velocity":43,"Duration":94545,"SoundDuration":94545,"Delta":61983338},{"NoteNumber":60,"Velocity":67,"Duration":748322,"SoundDuration":748322,"Delta":62077884},{"NoteNumber":55,"Velocity":52,"Duration":125327,"SoundDuration":125327,"Delta":62077884},{"NoteNumber":52,"Velocity":36,"Duration":93361,"SoundDuration":93361,"Delta":62172004},{"NoteNumber":55,"Velocity":45,"Duration":92539,"SoundDuration":92539,"Delta":62265366},{"NoteNumber":52,"Velocity":36,"Duration":91945,"SoundDuration":91945,"Delta":62357905},{"NoteNumber":55,"Velocity":44,"Duration":92576,"SoundDuration":92576,"Delta":62449851},{"NoteNumber":52,"Velocity":38,"Duration":93063,"SoundDuration":93063,"Delta":62542427},{"NoteNumber":55,"Velocity":45,"Duration":93698,"SoundDuration":93698,"Delta":62635491},{"NoteNumber":52,"Velocity":41,"Duration":97017,"SoundDuration":97017,"Delta":62729189},{"NoteNumber":58,"Velocity":61,"Duration":751932,"SoundDuration":751932,"Delta":62826207},{"NoteNumber":55,"Velocity":52,"Duration":95782,"SoundDuration":95782,"Delta":62826207},{"NoteNumber":52,"Velocity":34,"Duration":93928,"SoundDuration":93928,"Delta":62921989},{"NoteNumber":55,"Velocity":44,"Duration":93286,"SoundDuration":93286,"Delta":63015918},{"NoteNumber":52,"Velocity":35,"Duration":92538,"SoundDuration":92538,"Delta":63109204},{"NoteNumber":55,"Velocity":42,"Duration":93249,"SoundDuration":93249,"Delta":63201743},{"NoteNumber":52,"Velocity":33,"Duration":93890,"SoundDuration":93890,"Delta":63294993},{"NoteNumber":55,"Velocity":42,"Duration":94648,"SoundDuration":94648,"Delta":63388883},{"NoteNumber":52,"Velocity":33,"Duration":94607,"SoundDuration":94607,"Delta":63483532},{"NoteNumber":60,"Velocity":61,"Duration":754709,"SoundDuration":754709,"Delta":63578139},{"NoteNumber":57,"Velocity":46,"Duration":95189,"SoundDuration":95189,"Delta":63578139},{"NoteNumber":53,"Velocity":37,"Duration":95189,"SoundDuration":95189,"Delta":63673329},{"NoteNumber":57,"Velocity":46,"Duration":94773,"SoundDuration":94773,"Delta":63768518},{"NoteNumber":53,"Velocity":36,"Duration":94565,"SoundDuration":94565,"Delta":63863292},{"NoteNumber":57,"Velocity":45,"Duration":94154,"SoundDuration":94154,"Delta":63957858},{"NoteNumber":53,"Velocity":34,"Duration":93949,"SoundDuration":93949,"Delta":64052013},{"NoteNumber":57,"Velocity":45,"Duration":93544,"SoundDuration":93544,"Delta":64145962},{"NoteNumber":53,"Velocity":36,"Duration":31113,"SoundDuration":31113,"Delta":64239507},{"NoteNumber":51,"Velocity":36,"Duration":154969,"SoundDuration":154969,"Delta":64270620},{"NoteNumber":57,"Velocity":45,"Duration":123855,"SoundDuration":123855,"Delta":64301734},{"NoteNumber":65,"Velocity":64,"Duration":794397,"SoundDuration":794397,"Delta":64332848},{"NoteNumber":51,"Velocity":38,"Duration":92741,"SoundDuration":92741,"Delta":64425590},{"NoteNumber":57,"Velocity":47,"Duration":92741,"SoundDuration":92741,"Delta":64518331},{"NoteNumber":51,"Velocity":44,"Duration":92741,"SoundDuration":92741,"Delta":64611072},{"NoteNumber":57,"Velocity":48,"Duration":92741,"SoundDuration":92741,"Delta":64703814},{"NoteNumber":51,"Velocity":38,"Duration":92741,"SoundDuration":92741,"Delta":64796555},{"NoteNumber":57,"Velocity":45,"Duration":92741,"SoundDuration":92741,"Delta":64889296},{"NoteNumber":51,"Velocity":37,"Duration":48402,"SoundDuration":48402,"Delta":64982038},{"NoteNumber":50,"Velocity":40,"Duration":190147,"SoundDuration":190147,"Delta":65030440},{"NoteNumber":58,"Velocity":46,"Duration":141744,"SoundDuration":141744,"Delta":65078843},{"NoteNumber":65,"Velocity":63,"Duration":785271,"SoundDuration":785271,"Delta":65127246},{"NoteNumber":50,"Velocity":38,"Duration":93341,"SoundDuration":93341,"Delta":65220588},{"NoteNumber":58,"Velocity":46,"Duration":93341,"SoundDuration":93341,"Delta":65313929},{"NoteNumber":50,"Velocity":38,"Duration":93341,"SoundDuration":93341,"Delta":65407271},{"NoteNumber":58,"Velocity":47,"Duration":93341,"SoundDuration":93341,"Delta":65500612},{"NoteNumber":50,"Velocity":39,"Duration":93341,"SoundDuration":93341,"Delta":65593954},{"NoteNumber":58,"Velocity":47,"Duration":93341,"SoundDuration":93341,"Delta":65687296},{"NoteNumber":50,"Velocity":39,"Duration":43959,"SoundDuration":43959,"Delta":65780637},{"NoteNumber":54,"Velocity":42,"Duration":181261,"SoundDuration":181261,"Delta":65824597},{"NoteNumber":57,"Velocity":47,"Duration":137301,"SoundDuration":137301,"Delta":65868557},{"NoteNumber":60,"Velocity":66,"Duration":779718,"SoundDuration":779718,"Delta":65912517},{"NoteNumber":54,"Velocity":39,"Duration":92941,"SoundDuration":92941,"Delta":66005859},{"NoteNumber":57,"Velocity":48,"Duration":92137,"SoundDuration":92137,"Delta":66098800},{"NoteNumber":54,"Velocity":39,"Duration":91360,"SoundDuration":91360,"Delta":66190938},{"NoteNumber":57,"Velocity":48,"Duration":91360,"SoundDuration":91360,"Delta":66282298},{"NoteNumber":54,"Velocity":40,"Duration":92338,"SoundDuration":92338,"Delta":66373658},{"NoteNumber":57,"Velocity":49,"Duration":93141,"SoundDuration":93141,"Delta":66465997},{"NoteNumber":54,"Velocity":40,"Duration":44365,"SoundDuration":44365,"Delta":66559139},{"NoteNumber":53,"Velocity":43,"Duration":183091,"SoundDuration":183091,"Delta":66603504},{"NoteNumber":58,"Velocity":49,"Duration":138725,"SoundDuration":138725,"Delta":66647870},{"NoteNumber":62,"Velocity":67,"Duration":800047,"SoundDuration":800047,"Delta":66692235},{"NoteNumber":53,"Velocity":40,"Duration":93746,"SoundDuration":93746,"Delta":66786596},{"NoteNumber":58,"Velocity":50,"Duration":93141,"SoundDuration":93141,"Delta":66880343},{"NoteNumber":53,"Velocity":40,"Duration":92540,"SoundDuration":92540,"Delta":66973484},{"NoteNumber":58,"Velocity":50,"Duration":92740,"SoundDuration":92740,"Delta":67066024},{"NoteNumber":53,"Velocity":41,"Duration":94568,"SoundDuration":94568,"Delta":67158765},{"NoteNumber":58,"Velocity":51,"Duration":95189,"SoundDuration":95189,"Delta":67253333},{"NoteNumber":53,"Velocity":42,"Duration":47920,"SoundDuration":47920,"Delta":67348523},{"NoteNumber":51,"Velocity":44,"Duration":186815,"SoundDuration":186815,"Delta":67396443},{"NoteNumber":57,"Velocity":51,"Duration":138895,"SoundDuration":138895,"Delta":67444363},{"NoteNumber":65,"Velocity":67,"Duration":764031,"SoundDuration":764031,"Delta":67492283},{"NoteNumber":51,"Velocity":44,"Duration":90975,"SoundDuration":90975,"Delta":67583259},{"NoteNumber":57,"Velocity":52,"Duration":90975,"SoundDuration":90975,"Delta":67674234},{"NoteNumber":51,"Velocity":43,"Duration":90975,"SoundDuration":90975,"Delta":67765209},{"NoteNumber":57,"Velocity":52,"Duration":90975,"SoundDuration":90975,"Delta":67856184},{"NoteNumber":51,"Velocity":43,"Duration":90975,"SoundDuration":90975,"Delta":67947160},{"NoteNumber":57,"Velocity":53,"Duration":90975,"SoundDuration":90975,"Delta":68038135},{"NoteNumber":51,"Velocity":43,"Duration":42401,"SoundDuration":42401,"Delta":68129110},{"NoteNumber":50,"Velocity":46,"Duration":175208,"SoundDuration":175208,"Delta":68171512},{"NoteNumber":58,"Velocity":53,"Duration":132806,"SoundDuration":132806,"Delta":68213913},{"NoteNumber":65,"Velocity":69,"Duration":714675,"SoundDuration":714675,"Delta":68256315},{"NoteNumber":50,"Velocity":44,"Duration":90217,"SoundDuration":90217,"Delta":68346720},{"NoteNumber":58,"Velocity":52,"Duration":89841,"SoundDuration":89841,"Delta":68436937},{"NoteNumber":50,"Velocity":43,"Duration":89471,"SoundDuration":89471,"Delta":68526779},{"NoteNumber":58,"Velocity":52,"Duration":89285,"SoundDuration":89285,"Delta":68616250},{"NoteNumber":50,"Velocity":44,"Duration":88725,"SoundDuration":88725,"Delta":68705536},{"NoteNumber":58,"Velocity":52,"Duration":88545,"SoundDuration":88545,"Delta":68794262},{"NoteNumber":50,"Velocity":44,"Duration":88183,"SoundDuration":88183,"Delta":68882807},{"NoteNumber":66,"Velocity":74,"Duration":730769,"SoundDuration":730769,"Delta":68970990},{"NoteNumber":58,"Velocity":52,"Duration":87647,"SoundDuration":87647,"Delta":68970990},{"NoteNumber":50,"Velocity":44,"Duration":87471,"SoundDuration":87471,"Delta":69058638},{"NoteNumber":58,"Velocity":52,"Duration":87294,"SoundDuration":87294,"Delta":69146109},{"NoteNumber":50,"Velocity":44,"Duration":88004,"SoundDuration":88004,"Delta":69233403},{"NoteNumber":58,"Velocity":52,"Duration":88912,"SoundDuration":88912,"Delta":69321408},{"NoteNumber":50,"Velocity":45,"Duration":89656,"SoundDuration":89656,"Delta":69410321},{"NoteNumber":58,"Velocity":52,"Duration":89841,"SoundDuration":89841,"Delta":69499977},{"NoteNumber":50,"Velocity":45,"Duration":37313,"SoundDuration":37313,"Delta":69589819},{"NoteNumber":51,"Velocity":48,"Duration":166764,"SoundDuration":166764,"Delta":69627132},{"NoteNumber":58,"Velocity":53,"Duration":129451,"SoundDuration":129451,"Delta":69664446},{"NoteNumber":67,"Velocity":72,"Duration":728052,"SoundDuration":728052,"Delta":69701759},{"NoteNumber":51,"Velocity":45,"Duration":91942,"SoundDuration":91942,"Delta":69793897},{"NoteNumber":58,"Velocity":53,"Duration":91552,"SoundDuration":91552,"Delta":69885840},{"NoteNumber":51,"Velocity":45,"Duration":91167,"SoundDuration":91167,"Delta":69977392},{"NoteNumber":58,"Velocity":52,"Duration":90975,"SoundDuration":90975,"Delta":70068560},{"NoteNumber":51,"Velocity":45,"Duration":90405,"SoundDuration":90405,"Delta":70159535},{"NoteNumber":58,"Velocity":54,"Duration":90029,"SoundDuration":90029,"Delta":70249940},{"NoteNumber":51,"Velocity":46,"Duration":89841,"SoundDuration":89841,"Delta":70339970},{"NoteNumber":67,"Velocity":75,"Duration":739806,"SoundDuration":739806,"Delta":70429812},{"NoteNumber":61,"Velocity":54,"Duration":89841,"SoundDuration":89841,"Delta":70429812},{"NoteNumber":58,"Velocity":54,"Duration":89841,"SoundDuration":89841,"Delta":70429812},{"NoteNumber":52,"Velocity":47,"Duration":90029,"SoundDuration":90029,"Delta":70519654},{"NoteNumber":61,"Velocity":55,"Duration":90405,"SoundDuration":90405,"Delta":70609683},{"NoteNumber":58,"Velocity":55,"Duration":90405,"SoundDuration":90405,"Delta":70609683},{"NoteNumber":52,"Velocity":47,"Duration":90404,"SoundDuration":90404,"Delta":70700088},{"NoteNumber":61,"Velocity":56,"Duration":90405,"SoundDuration":90405,"Delta":70790493},{"NoteNumber":58,"Velocity":56,"Duration":90405,"SoundDuration":90405,"Delta":70790493},{"NoteNumber":52,"Velocity":47,"Duration":90975,"SoundDuration":90975,"Delta":70880898},{"NoteNumber":61,"Velocity":57,"Duration":90975,"SoundDuration":90975,"Delta":70971874},{"NoteNumber":58,"Velocity":57,"Duration":90975,"SoundDuration":90975,"Delta":70971874},{"NoteNumber":52,"Velocity":48,"Duration":106769,"SoundDuration":106769,"Delta":71062849},{"NoteNumber":70,"Velocity":75,"Duration":728793,"SoundDuration":728793,"Delta":71169618},{"NoteNumber":61,"Velocity":59,"Duration":92137,"SoundDuration":92137,"Delta":71169618},{"NoteNumber":64,"Velocity":59,"Duration":92137,"SoundDuration":92137,"Delta":71169618},{"NoteNumber":55,"Velocity":50,"Duration":92137,"SoundDuration":92137,"Delta":71261756},{"NoteNumber":61,"Velocity":59,"Duration":92137,"SoundDuration":92137,"Delta":71353894},{"NoteNumber":64,"Velocity":59,"Duration":92137,"SoundDuration":92137,"Delta":71353894},{"NoteNumber":55,"Velocity":50,"Duration":92137,"SoundDuration":92137,"Delta":71446031},{"NoteNumber":61,"Velocity":60,"Duration":91123,"SoundDuration":91123,"Delta":71538169},{"NoteNumber":64,"Velocity":60,"Duration":91123,"SoundDuration":91123,"Delta":71538169},{"NoteNumber":55,"Velocity":51,"Duration":90544,"SoundDuration":90544,"Delta":71629293},{"NoteNumber":61,"Velocity":60,"Duration":89642,"SoundDuration":89642,"Delta":71719837},{"NoteNumber":64,"Velocity":60,"Duration":89642,"SoundDuration":89642,"Delta":71719837},{"NoteNumber":55,"Velocity":51,"Duration":88933,"SoundDuration":88933,"Delta":71809479},{"NoteNumber":73,"Velocity":78,"Duration":746338,"SoundDuration":746338,"Delta":71898412},{"NoteNumber":64,"Velocity":60,"Duration":90061,"SoundDuration":90061,"Delta":71898412},{"NoteNumber":67,"Velocity":60,"Duration":90061,"SoundDuration":90061,"Delta":71898412},{"NoteNumber":58,"Velocity":52,"Duration":91167,"SoundDuration":91167,"Delta":71988474},{"NoteNumber":64,"Velocity":61,"Duration":91747,"SoundDuration":91747,"Delta":72079642},{"NoteNumber":67,"Velocity":61,"Duration":91747,"SoundDuration":91747,"Delta":72079642},{"NoteNumber":58,"Velocity":51,"Duration":92338,"SoundDuration":92338,"Delta":72171390},{"NoteNumber":64,"Velocity":62,"Duration":92741,"SoundDuration":92741,"Delta":72263729},{"NoteNumber":67,"Velocity":62,"Duration":92741,"SoundDuration":92741,"Delta":72263729},{"NoteNumber":58,"Velocity":56,"Duration":93341,"SoundDuration":93341,"Delta":72356470},{"NoteNumber":64,"Velocity":64,"Duration":94219,"SoundDuration":94219,"Delta":72449812},{"NoteNumber":67,"Velocity":64,"Duration":94219,"SoundDuration":94219,"Delta":72449812},{"NoteNumber":58,"Velocity":51,"Duration":100719,"SoundDuration":100719,"Delta":72544031},{"NoteNumber":74,"Velocity":81,"Duration":739180,"SoundDuration":739180,"Delta":72644751},{"NoteNumber":65,"Velocity":64,"Duration":93949,"SoundDuration":93949,"Delta":72644751},{"NoteNumber":58,"Velocity":52,"Duration":93544,"SoundDuration":93544,"Delta":72738700},{"NoteNumber":65,"Velocity":63,"Duration":92941,"SoundDuration":92941,"Delta":72832245},{"NoteNumber":58,"Velocity":52,"Duration":92338,"SoundDuration":92338,"Delta":72925186},{"NoteNumber":65,"Velocity":63,"Duration":91747,"SoundDuration":91747,"Delta":73017525},{"NoteNumber":58,"Velocity":53,"Duration":91552,"SoundDuration":91552,"Delta":73109273},{"NoteNumber":65,"Velocity":63,"Duration":91552,"SoundDuration":91552,"Delta":73200825},{"NoteNumber":58,"Velocity":52,"Duration":91552,"SoundDuration":91552,"Delta":73292378},{"NoteNumber":70,"Velocity":74,"Duration":736131,"SoundDuration":736131,"Delta":73383931},{"NoteNumber":62,"Velocity":63,"Duration":91942,"SoundDuration":91942,"Delta":73383931},{"NoteNumber":53,"Velocity":52,"Duration":92137,"SoundDuration":92137,"Delta":73475874},{"NoteNumber":62,"Velocity":62,"Duration":92137,"SoundDuration":92137,"Delta":73568011},{"NoteNumber":53,"Velocity":51,"Duration":92137,"SoundDuration":92137,"Delta":73660149},{"NoteNumber":62,"Velocity":61,"Duration":92137,"SoundDuration":92137,"Delta":73752286},{"NoteNumber":53,"Velocity":50,"Duration":92137,"SoundDuration":92137,"Delta":73844424},{"NoteNumber":62,"Velocity":60,"Duration":92137,"SoundDuration":92137,"Delta":73936562},{"NoteNumber":53,"Velocity":50,"Duration":91362,"SoundDuration":91362,"Delta":74028699},{"NoteNumber":65,"Velocity":70,"Duration":1488057,"SoundDuration":1488057,"Delta":74120062},{"NoteNumber":58,"Velocity":56,"Duration":90975,"SoundDuration":90975,"Delta":74120062},{"NoteNumber":50,"Velocity":46,"Duration":91552,"SoundDuration":91552,"Delta":74211037},{"NoteNumber":58,"Velocity":55,"Duration":91942,"SoundDuration":91942,"Delta":74302590},{"NoteNumber":50,"Velocity":45,"Duration":92338,"SoundDuration":92338,"Delta":74394533},{"NoteNumber":58,"Velocity":55,"Duration":92741,"SoundDuration":92741,"Delta":74486872},{"NoteNumber":50,"Velocity":45,"Duration":93141,"SoundDuration":93141,"Delta":74579613},{"NoteNumber":58,"Velocity":54,"Duration":93544,"SoundDuration":93544,"Delta":74672755},{"NoteNumber":50,"Velocity":45,"Duration":93746,"SoundDuration":93746,"Delta":74766299},{"NoteNumber":59,"Velocity":54,"Duration":93141,"SoundDuration":93141,"Delta":74860046},{"NoteNumber":50,"Velocity":44,"Duration":92338,"SoundDuration":92338,"Delta":74953187},{"NoteNumber":59,"Velocity":54,"Duration":91360,"SoundDuration":91360,"Delta":75045526},{"NoteNumber":50,"Velocity":44,"Duration":90595,"SoundDuration":90595,"Delta":75136886},{"NoteNumber":59,"Velocity":53,"Duration":90977,"SoundDuration":90977,"Delta":75227482},{"NoteNumber":50,"Velocity":44,"Duration":92740,"SoundDuration":92740,"Delta":75318459},{"NoteNumber":59,"Velocity":52,"Duration":93341,"SoundDuration":93341,"Delta":75411199},{"NoteNumber":50,"Velocity":43,"Duration":103578,"SoundDuration":103578,"Delta":75504541},{"NoteNumber":65,"Velocity":63,"Duration":1527124,"SoundDuration":1527124,"Delta":75608119},{"NoteNumber":60,"Velocity":52,"Duration":94565,"SoundDuration":94565,"Delta":75608119},{"NoteNumber":51,"Velocity":43,"Duration":94154,"SoundDuration":94154,"Delta":75702685},{"NoteNumber":60,"Velocity":51,"Duration":93746,"SoundDuration":93746,"Delta":75796840},{"NoteNumber":51,"Velocity":42,"Duration":93341,"SoundDuration":93341,"Delta":75890587},{"NoteNumber":60,"Velocity":50,"Duration":93949,"SoundDuration":93949,"Delta":75983929},{"NoteNumber":51,"Velocity":41,"Duration":94360,"SoundDuration":94360,"Delta":76077878},{"NoteNumber":60,"Velocity":50,"Duration":94773,"SoundDuration":94773,"Delta":76172238},{"NoteNumber":51,"Velocity":41,"Duration":95189,"SoundDuration":95189,"Delta":76267012},{"NoteNumber":57,"Velocity":50,"Duration":94339,"SoundDuration":94339,"Delta":76362202},{"NoteNumber":48,"Velocity":40,"Duration":94737,"SoundDuration":94737,"Delta":76456542},{"NoteNumber":57,"Velocity":49,"Duration":95339,"SoundDuration":95339,"Delta":76551279},{"NoteNumber":48,"Velocity":40,"Duration":95949,"SoundDuration":95949,"Delta":76646619},{"NoteNumber":57,"Velocity":48,"Duration":96360,"SoundDuration":96360,"Delta":76742569},{"NoteNumber":48,"Velocity":39,"Duration":96983,"SoundDuration":96983,"Delta":76838929},{"NoteNumber":57,"Velocity":47,"Duration":97614,"SoundDuration":97614,"Delta":76935913},{"NoteNumber":48,"Velocity":39,"Duration":101715,"SoundDuration":101715,"Delta":77033528},{"NoteNumber":46,"Velocity":50,"Duration":2182810,"SoundDuration":2182810,"Delta":77135244},{"NoteNumber":58,"Velocity":50,"Duration":2182810,"SoundDuration":2182810,"Delta":77135244},{"NoteNumber":50,"Velocity":40,"Duration":96982,"SoundDuration":96982,"Delta":77135244},{"NoteNumber":53,"Velocity":32,"Duration":97382,"SoundDuration":97382,"Delta":77232226},{"NoteNumber":50,"Velocity":40,"Duration":96614,"SoundDuration":96614,"Delta":77329608},{"NoteNumber":53,"Velocity":32,"Duration":95690,"SoundDuration":95690,"Delta":77426222},{"NoteNumber":50,"Velocity":42,"Duration":95016,"SoundDuration":95016,"Delta":77521912},{"NoteNumber":53,"Velocity":34,"Duration":94082,"SoundDuration":94082,"Delta":77616929},{"NoteNumber":50,"Velocity":44,"Duration":93435,"SoundDuration":93435,"Delta":77711012},{"NoteNumber":53,"Velocity":34,"Duration":92688,"SoundDuration":92688,"Delta":77804448},{"NoteNumber":50,"Velocity":44,"Duration":91945,"SoundDuration":91945,"Delta":77897136},{"NoteNumber":53,"Velocity":32,"Duration":91945,"SoundDuration":91945,"Delta":77989082},{"NoteNumber":50,"Velocity":43,"Duration":91945,"SoundDuration":91945,"Delta":78081027},{"NoteNumber":53,"Velocity":35,"Duration":91945,"SoundDuration":91945,"Delta":78172973},{"NoteNumber":50,"Velocity":45,"Duration":91945,"SoundDuration":91945,"Delta":78264919},{"NoteNumber":53,"Velocity":35,"Duration":91945,"SoundDuration":91945,"Delta":78356864},{"NoteNumber":50,"Velocity":46,"Duration":91945,"SoundDuration":91945,"Delta":78448810},{"NoteNumber":53,"Velocity":35,"Duration":92093,"SoundDuration":92093,"Delta":78540756},{"NoteNumber":50,"Velocity":47,"Duration":92501,"SoundDuration":92501,"Delta":78632849},{"NoteNumber":53,"Velocity":36,"Duration":92651,"SoundDuration":92651,"Delta":78725351},{"NoteNumber":50,"Velocity":45,"Duration":93063,"SoundDuration":93063,"Delta":78818002},{"NoteNumber":53,"Velocity":34,"Duration":93212,"SoundDuration":93212,"Delta":78911065},{"NoteNumber":50,"Velocity":45,"Duration":93621,"SoundDuration":93621,"Delta":79004278},{"NoteNumber":53,"Velocity":34,"Duration":93774,"SoundDuration":93774,"Delta":79097899},{"NoteNumber":50,"Velocity":45,"Duration":94510,"SoundDuration":94510,"Delta":79191674},{"NoteNumber":53,"Velocity":34,"Duration":96234,"SoundDuration":96234,"Delta":79286184},{"NoteNumber":46,"Velocity":45,"Duration":769994,"SoundDuration":769994,"Delta":79318055},{"NoteNumber":53,"Velocity":43,"Duration":224471,"SoundDuration":224471,"Delta":79350044},{"NoteNumber":62,"Velocity":51,"Duration":705629,"SoundDuration":705629,"Delta":79382419},{"NoteNumber":56,"Velocity":45,"Duration":96691,"SoundDuration":96691,"Delta":79382419},{"NoteNumber":53,"Velocity":36,"Duration":283106,"SoundDuration":283106,"Delta":79479111},{"NoteNumber":56,"Velocity":44,"Duration":94360,"SoundDuration":94360,"Delta":79574516},{"NoteNumber":53,"Velocity":32,"Duration":280024,"SoundDuration":280024,"Delta":79668876},{"NoteNumber":56,"Velocity":44,"Duration":93341,"SoundDuration":93341,"Delta":79762218},{"NoteNumber":53,"Velocity":36,"Duration":232489,"SoundDuration":232489,"Delta":79855560},{"NoteNumber":56,"Velocity":44,"Duration":92618,"SoundDuration":92618,"Delta":79948901},{"NoteNumber":53,"Velocity":35,"Duration":139586,"SoundDuration":139586,"Delta":80041520},{"NoteNumber":46,"Velocity":47,"Duration":776554,"SoundDuration":776554,"Delta":80088049},{"NoteNumber":63,"Velocity":56,"Duration":683496,"SoundDuration":683496,"Delta":80181107},{"NoteNumber":55,"Velocity":46,"Duration":94120,"SoundDuration":94120,"Delta":80181107},{"NoteNumber":51,"Velocity":38,"Duration":93361,"SoundDuration":93361,"Delta":80275227},{"NoteNumber":55,"Velocity":48,"Duration":92539,"SoundDuration":92539,"Delta":80368588},{"NoteNumber":51,"Velocity":36,"Duration":91945,"SoundDuration":91945,"Delta":80461128},{"NoteNumber":55,"Velocity":48,"Duration":92576,"SoundDuration":92576,"Delta":80553074},{"NoteNumber":51,"Velocity":40,"Duration":93063,"SoundDuration":93063,"Delta":80645650},{"NoteNumber":55,"Velocity":49,"Duration":93698,"SoundDuration":93698,"Delta":80738714},{"NoteNumber":51,"Velocity":41,"Duration":97017,"SoundDuration":97017,"Delta":80832412},{"NoteNumber":46,"Velocity":50,"Duration":773940,"SoundDuration":773940,"Delta":80864603},{"NoteNumber":63,"Velocity":61,"Duration":709114,"SoundDuration":709114,"Delta":80929430},{"NoteNumber":54,"Velocity":49,"Duration":95782,"SoundDuration":95782,"Delta":80929430},{"NoteNumber":49,"Velocity":34,"Duration":93928,"SoundDuration":93928,"Delta":81025212},{"NoteNumber":54,"Velocity":50,"Duration":93286,"SoundDuration":93286,"Delta":81119141},{"NoteNumber":49,"Velocity":35,"Duration":92538,"SoundDuration":92538,"Delta":81212427},{"NoteNumber":54,"Velocity":49,"Duration":93249,"SoundDuration":93249,"Delta":81304966},{"NoteNumber":49,"Velocity":38,"Duration":93890,"SoundDuration":93890,"Delta":81398215},{"NoteNumber":54,"Velocity":48,"Duration":94742,"SoundDuration":94742,"Delta":81492106},{"NoteNumber":49,"Velocity":34,"Duration":155086,"SoundDuration":155086,"Delta":81586848},{"NoteNumber":45,"Velocity":54,"Duration":1538580,"SoundDuration":1538580,"Delta":81638544},{"NoteNumber":63,"Velocity":63,"Duration":1435189,"SoundDuration":1435189,"Delta":81741935},{"NoteNumber":54,"Velocity":51,"Duration":194364,"SoundDuration":194364,"Delta":81741935},{"NoteNumber":48,"Velocity":32,"Duration":97382,"SoundDuration":97382,"Delta":81838917},{"NoteNumber":54,"Velocity":40,"Duration":192304,"SoundDuration":192304,"Delta":81936300},{"NoteNumber":48,"Velocity":32,"Duration":95690,"SoundDuration":95690,"Delta":82032914},{"NoteNumber":54,"Velocity":42,"Duration":189099,"SoundDuration":189099,"Delta":82128604},{"NoteNumber":48,"Velocity":33,"Duration":94082,"SoundDuration":94082,"Delta":82223621},{"NoteNumber":54,"Velocity":43,"Duration":185920,"SoundDuration":185920,"Delta":82317704},{"NoteNumber":48,"Velocity":34,"Duration":92485,"SoundDuration":92485,"Delta":82411139},{"NoteNumber":53,"Velocity":46,"Duration":180663,"SoundDuration":180663,"Delta":82503624},{"NoteNumber":48,"Velocity":37,"Duration":89954,"SoundDuration":89954,"Delta":82594334},{"NoteNumber":53,"Velocity":42,"Duration":181418,"SoundDuration":181418,"Delta":82684288},{"NoteNumber":48,"Velocity":32,"Duration":90899,"SoundDuration":90899,"Delta":82774808},{"NoteNumber":53,"Velocity":40,"Duration":178570,"SoundDuration":178570,"Delta":82865707},{"NoteNumber":48,"Velocity":32,"Duration":88800,"SoundDuration":88800,"Delta":82955477},{"NoteNumber":53,"Velocity":40,"Duration":209788,"SoundDuration":209788,"Delta":83044277},{"NoteNumber":48,"Velocity":32,"Duration":120502,"SoundDuration":120502,"Delta":83133563},{"NoteNumber":46,"Velocity":51,"Duration":777791,"SoundDuration":777791,"Delta":83177125},{"NoteNumber":62,"Velocity":61,"Duration":700850,"SoundDuration":700850,"Delta":83254066},{"NoteNumber":53,"Velocity":40,"Duration":92501,"SoundDuration":92501,"Delta":83254066},{"NoteNumber":50,"Velocity":32,"Duration":92651,"SoundDuration":92651,"Delta":83346567},{"NoteNumber":53,"Velocity":40,"Duration":93063,"SoundDuration":93063,"Delta":83439218},{"NoteNumber":50,"Velocity":32,"Duration":93212,"SoundDuration":93212,"Delta":83532282},{"NoteNumber":53,"Velocity":40,"Duration":93621,"SoundDuration":93621,"Delta":83625494},{"NoteNumber":50,"Velocity":32,"Duration":93774,"SoundDuration":93774,"Delta":83719115},{"NoteNumber":53,"Velocity":40,"Duration":94197,"SoundDuration":94197,"Delta":83812890},{"NoteNumber":46,"Velocity":44,"Duration":798113,"SoundDuration":798113,"Delta":83954916},{"NoteNumber":53,"Velocity":44,"Duration":239941,"SoundDuration":239941,"Delta":84002745},{"NoteNumber":62,"Velocity":48,"Duration":702456,"SoundDuration":702456,"Delta":84050573},{"NoteNumber":56,"Velocity":41,"Duration":98243,"SoundDuration":98243,"Delta":84050573},{"NoteNumber":53,"Velocity":31,"Duration":278000,"SoundDuration":278000,"Delta":84148817},{"NoteNumber":56,"Velocity":40,"Duration":92499,"SoundDuration":92499,"Delta":84242687},{"NoteNumber":53,"Velocity":33,"Duration":277352,"SoundDuration":277352,"Delta":84335186},{"NoteNumber":56,"Velocity":40,"Duration":92419,"SoundDuration":92419,"Delta":84426817},{"NoteNumber":53,"Velocity":34,"Duration":233793,"SoundDuration":233793,"Delta":84519236},{"NoteNumber":56,"Velocity":41,"Duration":93961,"SoundDuration":93961,"Delta":84612539},{"NoteNumber":53,"Velocity":34,"Duration":133838,"SoundDuration":133838,"Delta":84706501},{"NoteNumber":46,"Velocity":46,"Duration":795847,"SoundDuration":795847,"Delta":84753030},{"NoteNumber":63,"Velocity":55,"Duration":708537,"SoundDuration":708537,"Delta":84840340},{"NoteNumber":55,"Velocity":45,"Duration":127906,"SoundDuration":127906,"Delta":84840340},{"NoteNumber":51,"Velocity":38,"Duration":94733,"SoundDuration":94733,"Delta":84936516},{"NoteNumber":55,"Velocity":45,"Duration":93278,"SoundDuration":93278,"Delta":85031249},{"NoteNumber":51,"Velocity":35,"Duration":92300,"SoundDuration":92300,"Delta":85124527},{"NoteNumber":55,"Velocity":45,"Duration":93585,"SoundDuration":93585,"Delta":85216828},{"NoteNumber":51,"Velocity":35,"Duration":95026,"SoundDuration":95026,"Delta":85310413},{"NoteNumber":55,"Velocity":47,"Duration":96044,"SoundDuration":96044,"Delta":85405439},{"NoteNumber":51,"Velocity":35,"Duration":136172,"SoundDuration":136172,"Delta":85501484},{"NoteNumber":46,"Velocity":54,"Duration":833575,"SoundDuration":833575,"Delta":85548877},{"NoteNumber":63,"Velocity":62,"Duration":744796,"SoundDuration":744796,"Delta":85637656},{"NoteNumber":54,"Velocity":47,"Duration":128894,"SoundDuration":128894,"Delta":85637656},{"NoteNumber":49,"Velocity":33,"Duration":95876,"SoundDuration":95876,"Delta":85734478},{"NoteNumber":54,"Velocity":43,"Duration":94898,"SoundDuration":94898,"Delta":85830355},{"NoteNumber":49,"Velocity":34,"Duration":94278,"SoundDuration":94278,"Delta":85925253},{"NoteNumber":54,"Velocity":42,"Duration":95448,"SoundDuration":95448,"Delta":86019532},{"NoteNumber":49,"Velocity":33,"Duration":96953,"SoundDuration":96953,"Delta":86114981},{"NoteNumber":54,"Velocity":42,"Duration":97908,"SoundDuration":97908,"Delta":86211934},{"NoteNumber":49,"Velocity":33,"Duration":217833,"SoundDuration":217833,"Delta":86309842},{"NoteNumber":45,"Velocity":54,"Duration":1580411,"SoundDuration":1580411,"Delta":86382453},{"NoteNumber":63,"Velocity":63,"Duration":1435189,"SoundDuration":1435189,"Delta":86527675},{"NoteNumber":54,"Velocity":51,"Duration":194364,"SoundDuration":194364,"Delta":86527675},{"NoteNumber":48,"Velocity":32,"Duration":97382,"SoundDuration":97382,"Delta":86624657},{"NoteNumber":54,"Velocity":40,"Duration":192304,"SoundDuration":192304,"Delta":86722039},{"NoteNumber":48,"Velocity":31,"Duration":95690,"SoundDuration":95690,"Delta":86818654},{"NoteNumber":54,"Velocity":44,"Duration":189099,"SoundDuration":189099,"Delta":86914344},{"NoteNumber":48,"Velocity":34,"Duration":94082,"SoundDuration":94082,"Delta":87009361},{"NoteNumber":54,"Velocity":43,"Duration":185920,"SoundDuration":185920,"Delta":87103443},{"NoteNumber":48,"Velocity":36,"Duration":92485,"SoundDuration":92485,"Delta":87196879},{"NoteNumber":53,"Velocity":46,"Duration":180663,"SoundDuration":180663,"Delta":87289364},{"NoteNumber":48,"Velocity":36,"Duration":89954,"SoundDuration":89954,"Delta":87380073},{"NoteNumber":53,"Velocity":41,"Duration":181418,"SoundDuration":181418,"Delta":87470028},{"NoteNumber":48,"Velocity":32,"Duration":90899,"SoundDuration":90899,"Delta":87560547},{"NoteNumber":53,"Velocity":40,"Duration":178570,"SoundDuration":178570,"Delta":87651446},{"NoteNumber":48,"Velocity":32,"Duration":88800,"SoundDuration":88800,"Delta":87741216},{"NoteNumber":53,"Velocity":40,"Duration":209788,"SoundDuration":209788,"Delta":87830017},{"NoteNumber":48,"Velocity":32,"Duration":120502,"SoundDuration":120502,"Delta":87919303},{"NoteNumber":46,"Velocity":51,"Duration":873448,"SoundDuration":873448,"Delta":87962864},{"NoteNumber":62,"Velocity":61,"Duration":796507,"SoundDuration":796507,"Delta":88039805},{"NoteNumber":53,"Velocity":40,"Duration":123335,"SoundDuration":123335,"Delta":88039805},{"NoteNumber":50,"Velocity":32,"Duration":123859,"SoundDuration":123859,"Delta":88163140},{"NoteNumber":53,"Velocity":40,"Duration":124233,"SoundDuration":124233,"Delta":88287000},{"NoteNumber":50,"Velocity":32,"Duration":124828,"SoundDuration":124828,"Delta":88411234},{"NoteNumber":53,"Velocity":40,"Duration":125366,"SoundDuration":125366,"Delta":88536062},{"NoteNumber":50,"Velocity":32,"Duration":174884,"SoundDuration":174884,"Delta":88661428},{"NoteNumber":56,"Velocity":52,"Duration":709806,"SoundDuration":709806,"Delta":88836313},{"NoteNumber":58,"Velocity":61,"Duration":709806,"SoundDuration":709806,"Delta":88836313},{"NoteNumber":53,"Velocity":45,"Duration":118301,"SoundDuration":118301,"Delta":88836313},{"NoteNumber":50,"Velocity":38,"Duration":118301,"SoundDuration":118301,"Delta":88954614},{"NoteNumber":53,"Velocity":45,"Duration":118301,"SoundDuration":118301,"Delta":89072915},{"NoteNumber":50,"Velocity":38,"Duration":118301,"SoundDuration":118301,"Delta":89191217},{"NoteNumber":53,"Velocity":45,"Duration":118301,"SoundDuration":118301,"Delta":89309518},{"NoteNumber":50,"Velocity":38,"Duration":118301,"SoundDuration":118301,"Delta":89427819},{"NoteNumber":58,"Velocity":61,"Duration":709806,"SoundDuration":709806,"Delta":89546120},{"NoteNumber":55,"Velocity":45,"Duration":118301,"SoundDuration":118301,"Delta":89546120},{"NoteNumber":51,"Velocity":38,"Duration":118301,"SoundDuration":118301,"Delta":89664421},{"NoteNumber":55,"Velocity":45,"Duration":118301,"SoundDuration":118301,"Delta":89782722},{"NoteNumber":51,"Velocity":38,"Duration":118301,"SoundDuration":118301,"Delta":89901024},{"NoteNumber":55,"Velocity":45,"Duration":118301,"SoundDuration":118301,"Delta":90019325},{"NoteNumber":51,"Velocity":37,"Duration":118301,"SoundDuration":118301,"Delta":90137626},{"NoteNumber":58,"Velocity":50,"Duration":688692,"SoundDuration":688692,"Delta":90255927},{"NoteNumber":60,"Velocity":63,"Duration":688692,"SoundDuration":688692,"Delta":90255927},{"NoteNumber":55,"Velocity":48,"Duration":115606,"SoundDuration":115606,"Delta":90255927},{"NoteNumber":52,"Velocity":39,"Duration":115606,"SoundDuration":115606,"Delta":90371534},{"NoteNumber":55,"Velocity":48,"Duration":114942,"SoundDuration":114942,"Delta":90487141},{"NoteNumber":52,"Velocity":41,"Duration":114614,"SoundDuration":114614,"Delta":90602084},{"NoteNumber":55,"Velocity":48,"Duration":114285,"SoundDuration":114285,"Delta":90716698},{"NoteNumber":52,"Velocity":41,"Duration":113636,"SoundDuration":113636,"Delta":90830983},{"NoteNumber":60,"Velocity":63,"Duration":675462,"SoundDuration":675462,"Delta":90944620},{"NoteNumber":57,"Velocity":48,"Duration":113315,"SoundDuration":113315,"Delta":90944620},{"NoteNumber":53,"Velocity":39,"Duration":112994,"SoundDuration":112994,"Delta":91057935},{"NoteNumber":57,"Velocity":48,"Duration":112994,"SoundDuration":112994,"Delta":91170929},{"NoteNumber":53,"Velocity":41,"Duration":112994,"SoundDuration":112994,"Delta":91283924},{"NoteNumber":57,"Velocity":48,"Duration":112994,"SoundDuration":112994,"Delta":91396918},{"NoteNumber":53,"Velocity":41,"Duration":112994,"SoundDuration":112994,"Delta":91509912},{"NoteNumber":60,"Velocity":53,"Duration":662982,"SoundDuration":662982,"Delta":91622907},{"NoteNumber":62,"Velocity":66,"Duration":662982,"SoundDuration":662982,"Delta":91622907},{"NoteNumber":57,"Velocity":50,"Duration":110497,"SoundDuration":110497,"Delta":91622907},{"NoteNumber":54,"Velocity":41,"Duration":110497,"SoundDuration":110497,"Delta":91733404},{"NoteNumber":57,"Velocity":50,"Duration":110497,"SoundDuration":110497,"Delta":91843901},{"NoteNumber":54,"Velocity":43,"Duration":110497,"SoundDuration":110497,"Delta":91954398},{"NoteNumber":57,"Velocity":50,"Duration":110497,"SoundDuration":110497,"Delta":92064895},{"NoteNumber":54,"Velocity":43,"Duration":110497,"SoundDuration":110497,"Delta":92175392},{"NoteNumber":62,"Velocity":66,"Duration":674156,"SoundDuration":674156,"Delta":92285890},{"NoteNumber":58,"Velocity":50,"Duration":112359,"SoundDuration":112359,"Delta":92285890},{"NoteNumber":55,"Velocity":41,"Duration":112359,"SoundDuration":112359,"Delta":92398249},{"NoteNumber":58,"Velocity":50,"Duration":112359,"SoundDuration":112359,"Delta":92510609},{"NoteNumber":55,"Velocity":43,"Duration":112359,"SoundDuration":112359,"Delta":92622968},{"NoteNumber":58,"Velocity":51,"Duration":112359,"SoundDuration":112359,"Delta":92735328},{"NoteNumber":55,"Velocity":43,"Duration":112359,"SoundDuration":112359,"Delta":92847687},{"NoteNumber":65,"Velocity":69,"Duration":652174,"SoundDuration":652174,"Delta":92960047},{"NoteNumber":63,"Velocity":54,"Duration":652174,"SoundDuration":652174,"Delta":92960047},{"NoteNumber":60,"Velocity":53,"Duration":108695,"SoundDuration":108695,"Delta":92960047},{"NoteNumber":57,"Velocity":43,"Duration":108695,"SoundDuration":108695,"Delta":93068742},{"NoteNumber":60,"Velocity":53,"Duration":108695,"SoundDuration":108695,"Delta":93177438},{"NoteNumber":57,"Velocity":45,"Duration":108695,"SoundDuration":108695,"Delta":93286134},{"NoteNumber":60,"Velocity":53,"Duration":108695,"SoundDuration":108695,"Delta":93394829},{"NoteNumber":57,"Velocity":45,"Duration":108695,"SoundDuration":108695,"Delta":93503525},{"NoteNumber":65,"Velocity":69,"Duration":649456,"SoundDuration":649456,"Delta":93612221},{"NoteNumber":62,"Velocity":53,"Duration":108695,"SoundDuration":108695,"Delta":93612221},{"NoteNumber":58,"Velocity":44,"Duration":108695,"SoundDuration":108695,"Delta":93720916},{"NoteNumber":62,"Velocity":53,"Duration":108695,"SoundDuration":108695,"Delta":93829612},{"NoteNumber":58,"Velocity":45,"Duration":108695,"SoundDuration":108695,"Delta":93938308},{"NoteNumber":62,"Velocity":53,"Duration":108695,"SoundDuration":108695,"Delta":94047003},{"NoteNumber":58,"Velocity":46,"Duration":108695,"SoundDuration":108695,"Delta":94155699},{"NoteNumber":65,"Velocity":57,"Duration":659340,"SoundDuration":659340,"Delta":94264395},{"NoteNumber":69,"Velocity":72,"Duration":659340,"SoundDuration":659340,"Delta":94264395},{"NoteNumber":63,"Velocity":55,"Duration":109890,"SoundDuration":109890,"Delta":94264395},{"NoteNumber":60,"Velocity":46,"Duration":109890,"SoundDuration":109890,"Delta":94374285},{"NoteNumber":63,"Velocity":55,"Duration":109890,"SoundDuration":109890,"Delta":94484175},{"NoteNumber":60,"Velocity":48,"Duration":109890,"SoundDuration":109890,"Delta":94594065},{"NoteNumber":63,"Velocity":55,"Duration":109890,"SoundDuration":109890,"Delta":94703955},{"NoteNumber":60,"Velocity":48,"Duration":109890,"SoundDuration":109890,"Delta":94813845},{"NoteNumber":70,"Velocity":72,"Duration":656593,"SoundDuration":656593,"Delta":94923736},{"NoteNumber":65,"Velocity":56,"Duration":109890,"SoundDuration":109890,"Delta":94923736},{"NoteNumber":62,"Velocity":46,"Duration":109890,"SoundDuration":109890,"Delta":95033626},{"NoteNumber":65,"Velocity":56,"Duration":109890,"SoundDuration":109890,"Delta":95143516},{"NoteNumber":62,"Velocity":48,"Duration":109890,"SoundDuration":109890,"Delta":95253406},{"NoteNumber":65,"Velocity":56,"Duration":109890,"SoundDuration":109890,"Delta":95363296},{"NoteNumber":62,"Velocity":48,"Duration":109890,"SoundDuration":109890,"Delta":95473186},{"NoteNumber":70,"Velocity":72,"Duration":648649,"SoundDuration":648649,"Delta":95583077},{"NoteNumber":66,"Velocity":56,"Duration":108108,"SoundDuration":108108,"Delta":95583077},{"NoteNumber":63,"Velocity":46,"Duration":108108,"SoundDuration":108108,"Delta":95691185},{"NoteNumber":66,"Velocity":56,"Duration":108108,"SoundDuration":108108,"Delta":95799293},{"NoteNumber":63,"Velocity":49,"Duration":108108,"SoundDuration":108108,"Delta":95907401},{"NoteNumber":66,"Velocity":56,"Duration":108108,"SoundDuration":108108,"Delta":96015509},{"NoteNumber":63,"Velocity":49,"Duration":108108,"SoundDuration":108108,"Delta":96123617},{"NoteNumber":70,"Velocity":61,"Duration":662982,"SoundDuration":662982,"Delta":96231726},{"NoteNumber":72,"Velocity":76,"Duration":662982,"SoundDuration":662982,"Delta":96231726},{"NoteNumber":67,"Velocity":56,"Duration":110497,"SoundDuration":110497,"Delta":96231726},{"NoteNumber":64,"Velocity":47,"Duration":110497,"SoundDuration":110497,"Delta":96342223},{"NoteNumber":67,"Velocity":57,"Duration":110497,"SoundDuration":110497,"Delta":96452720},{"NoteNumber":64,"Velocity":49,"Duration":110497,"SoundDuration":110497,"Delta":96563217},{"NoteNumber":67,"Velocity":57,"Duration":110497,"SoundDuration":110497,"Delta":96673714},{"NoteNumber":64,"Velocity":49,"Duration":110497,"SoundDuration":110497,"Delta":96784211},{"NoteNumber":73,"Velocity":75,"Duration":676436,"SoundDuration":676436,"Delta":96894709},{"NoteNumber":67,"Velocity":46,"Duration":112739,"SoundDuration":112739,"Delta":96894709},{"NoteNumber":70,"Velocity":59,"Duration":112739,"SoundDuration":112739,"Delta":96894709},{"NoteNumber":64,"Velocity":47,"Duration":112739,"SoundDuration":112739,"Delta":97007448},{"NoteNumber":67,"Velocity":46,"Duration":112739,"SoundDuration":112739,"Delta":97120188},{"NoteNumber":70,"Velocity":59,"Duration":112739,"SoundDuration":112739,"Delta":97120188},{"NoteNumber":64,"Velocity":49,"Duration":112739,"SoundDuration":112739,"Delta":97232927},{"NoteNumber":67,"Velocity":46,"Duration":112739,"SoundDuration":112739,"Delta":97345667},{"NoteNumber":70,"Velocity":59,"Duration":112739,"SoundDuration":112739,"Delta":97345667},{"NoteNumber":64,"Velocity":50,"Duration":112739,"SoundDuration":112739,"Delta":97458406},{"NoteNumber":79,"Velocity":78,"Duration":684462,"SoundDuration":684462,"Delta":97571146},{"NoteNumber":70,"Velocity":46,"Duration":114077,"SoundDuration":114077,"Delta":97571146},{"NoteNumber":73,"Velocity":59,"Duration":114077,"SoundDuration":114077,"Delta":97571146},{"NoteNumber":64,"Velocity":49,"Duration":114077,"SoundDuration":114077,"Delta":97685223},{"NoteNumber":70,"Velocity":46,"Duration":114077,"SoundDuration":114077,"Delta":97799300},{"NoteNumber":73,"Velocity":59,"Duration":114077,"SoundDuration":114077,"Delta":97799300},{"NoteNumber":64,"Velocity":52,"Duration":114077,"SoundDuration":114077,"Delta":97913377},{"NoteNumber":70,"Velocity":46,"Duration":114077,"SoundDuration":114077,"Delta":98027454},{"NoteNumber":73,"Velocity":59,"Duration":114077,"SoundDuration":114077,"Delta":98027454},{"NoteNumber":64,"Velocity":52,"Duration":114077,"SoundDuration":114077,"Delta":98141531},{"NoteNumber":82,"Velocity":79,"Duration":696944,"SoundDuration":696944,"Delta":98255609},{"NoteNumber":73,"Velocity":48,"Duration":116157,"SoundDuration":116157,"Delta":98255609},{"NoteNumber":76,"Velocity":61,"Duration":116157,"SoundDuration":116157,"Delta":98255609},{"NoteNumber":67,"Velocity":49,"Duration":116157,"SoundDuration":116157,"Delta":98371766},{"NoteNumber":73,"Velocity":48,"Duration":116157,"SoundDuration":116157,"Delta":98487924},{"NoteNumber":76,"Velocity":61,"Duration":116157,"SoundDuration":116157,"Delta":98487924},{"NoteNumber":67,"Velocity":52,"Duration":116157,"SoundDuration":116157,"Delta":98604081},{"NoteNumber":73,"Velocity":48,"Duration":116157,"SoundDuration":116157,"Delta":98720239},{"NoteNumber":76,"Velocity":61,"Duration":116157,"SoundDuration":116157,"Delta":98720239},{"NoteNumber":67,"Velocity":52,"Duration":116157,"SoundDuration":116157,"Delta":98836396},{"NoteNumber":77,"Velocity":76,"Duration":697667,"SoundDuration":697667,"Delta":98952554},{"NoteNumber":70,"Velocity":46,"Duration":116880,"SoundDuration":116880,"Delta":98952554},{"NoteNumber":74,"Velocity":59,"Duration":116880,"SoundDuration":116880,"Delta":98952554},{"NoteNumber":65,"Velocity":49,"Duration":116157,"SoundDuration":116157,"Delta":99069434},{"NoteNumber":70,"Velocity":46,"Duration":116157,"SoundDuration":116157,"Delta":99185591},{"NoteNumber":74,"Velocity":58,"Duration":116157,"SoundDuration":116157,"Delta":99185591},{"NoteNumber":65,"Velocity":50,"Duration":116157,"SoundDuration":116157,"Delta":99301749},{"NoteNumber":70,"Velocity":45,"Duration":116157,"SoundDuration":116157,"Delta":99417906},{"NoteNumber":74,"Velocity":57,"Duration":116157,"SoundDuration":116157,"Delta":99417906},{"NoteNumber":65,"Velocity":50,"Duration":116157,"SoundDuration":116157,"Delta":99534064},{"NoteNumber":74,"Velocity":72,"Duration":714286,"SoundDuration":714286,"Delta":99650221},{"NoteNumber":65,"Velocity":45,"Duration":119047,"SoundDuration":119047,"Delta":99650221},{"NoteNumber":70,"Velocity":57,"Duration":119047,"SoundDuration":119047,"Delta":99650221},{"NoteNumber":62,"Velocity":47,"Duration":119047,"SoundDuration":119047,"Delta":99769269},{"NoteNumber":65,"Velocity":45,"Duration":119047,"SoundDuration":119047,"Delta":99888317},{"NoteNumber":70,"Velocity":57,"Duration":119047,"SoundDuration":119047,"Delta":99888317},{"NoteNumber":62,"Velocity":49,"Duration":119047,"SoundDuration":119047,"Delta":100007364},{"NoteNumber":65,"Velocity":45,"Duration":119047,"SoundDuration":119047,"Delta":100126412},{"NoteNumber":70,"Velocity":56,"Duration":119047,"SoundDuration":119047,"Delta":100126412},{"NoteNumber":62,"Velocity":49,"Duration":119047,"SoundDuration":119047,"Delta":100245460},{"NoteNumber":70,"Velocity":70,"Duration":741930,"SoundDuration":741930,"Delta":100364507},{"NoteNumber":62,"Velocity":44,"Duration":123655,"SoundDuration":123655,"Delta":100364507},{"NoteNumber":65,"Velocity":55,"Duration":123655,"SoundDuration":123655,"Delta":100364507},{"NoteNumber":58,"Velocity":46,"Duration":123655,"SoundDuration":123655,"Delta":100488162},{"NoteNumber":62,"Velocity":44,"Duration":123655,"SoundDuration":123655,"Delta":100611818},{"NoteNumber":65,"Velocity":54,"Duration":123655,"SoundDuration":123655,"Delta":100611818},{"NoteNumber":58,"Velocity":47,"Duration":123655,"SoundDuration":123655,"Delta":100735473},{"NoteNumber":62,"Velocity":43,"Duration":123655,"SoundDuration":123655,"Delta":100859128},{"NoteNumber":65,"Velocity":54,"Duration":123655,"SoundDuration":123655,"Delta":100859128},{"NoteNumber":58,"Velocity":47,"Duration":123655,"SoundDuration":123655,"Delta":100982783},{"NoteNumber":65,"Velocity":70,"Duration":798418,"SoundDuration":798418,"Delta":101106438},{"NoteNumber":58,"Velocity":44,"Duration":123655,"SoundDuration":123655,"Delta":101106438},{"NoteNumber":62,"Velocity":54,"Duration":123655,"SoundDuration":123655,"Delta":101106438},{"NoteNumber":53,"Velocity":45,"Duration":123655,"SoundDuration":123655,"Delta":101230093},{"NoteNumber":58,"Velocity":43,"Duration":123655,"SoundDuration":123655,"Delta":101353749},{"NoteNumber":62,"Velocity":54,"Duration":123655,"SoundDuration":123655,"Delta":101353749},{"NoteNumber":53,"Velocity":47,"Duration":123655,"SoundDuration":123655,"Delta":101477404},{"NoteNumber":58,"Velocity":43,"Duration":123655,"SoundDuration":123655,"Delta":101601059},{"NoteNumber":62,"Velocity":54,"Duration":123655,"SoundDuration":123655,"Delta":101601059},{"NoteNumber":53,"Velocity":46,"Duration":61827,"SoundDuration":61827,"Delta":101724714},{"NoteNumber":57,"Velocity":43,"Duration":239615,"SoundDuration":239615,"Delta":101786542},{"NoteNumber":60,"Velocity":51,"Duration":180457,"SoundDuration":180457,"Delta":101845699},{"NoteNumber":66,"Velocity":64,"Duration":727801,"SoundDuration":727801,"Delta":101904857},{"NoteNumber":51,"Velocity":45,"Duration":121300,"SoundDuration":121300,"Delta":102026157},{"NoteNumber":57,"Velocity":52,"Duration":121300,"SoundDuration":121300,"Delta":102147457},{"NoteNumber":60,"Velocity":52,"Duration":121300,"SoundDuration":121300,"Delta":102147457},{"NoteNumber":51,"Velocity":46,"Duration":121300,"SoundDuration":121300,"Delta":102268758},{"NoteNumber":57,"Velocity":50,"Duration":121300,"SoundDuration":121300,"Delta":102390058},{"NoteNumber":60,"Velocity":50,"Duration":121300,"SoundDuration":121300,"Delta":102390058},{"NoteNumber":51,"Velocity":45,"Duration":121300,"SoundDuration":121300,"Delta":102511358},{"NoteNumber":57,"Velocity":61,"Duration":741930,"SoundDuration":741930,"Delta":102632659},{"NoteNumber":48,"Velocity":38,"Duration":123655,"SoundDuration":123655,"Delta":102632659},{"NoteNumber":51,"Velocity":48,"Duration":123655,"SoundDuration":123655,"Delta":102632659},{"NoteNumber":41,"Velocity":40,"Duration":123655,"SoundDuration":123655,"Delta":102756314},{"NoteNumber":48,"Velocity":38,"Duration":123655,"SoundDuration":123655,"Delta":102879969},{"NoteNumber":51,"Velocity":48,"Duration":123655,"SoundDuration":123655,"Delta":102879969},{"NoteNumber":41,"Velocity":41,"Duration":123655,"SoundDuration":123655,"Delta":103003624},{"NoteNumber":48,"Velocity":38,"Duration":123655,"SoundDuration":123655,"Delta":103127279},{"NoteNumber":51,"Velocity":48,"Duration":123655,"SoundDuration":123655,"Delta":103127279},{"NoteNumber":41,"Velocity":41,"Duration":123655,"SoundDuration":123655,"Delta":103250935},{"NoteNumber":58,"Velocity":60,"Duration":739627,"SoundDuration":739627,"Delta":103374590},{"NoteNumber":50,"Velocity":45,"Duration":123655,"SoundDuration":123655,"Delta":103374590},{"NoteNumber":46,"Velocity":37,"Duration":123655,"SoundDuration":123655,"Delta":103498245},{"NoteNumber":50,"Velocity":45,"Duration":123655,"SoundDuration":123655,"Delta":103621900},{"NoteNumber":46,"Velocity":36,"Duration":123655,"SoundDuration":123655,"Delta":103745555},{"NoteNumber":50,"Velocity":44,"Duration":123655,"SoundDuration":123655,"Delta":103869210},{"NoteNumber":46,"Velocity":35,"Duration":121351,"SoundDuration":121351,"Delta":103992866},{"NoteNumber":57,"Velocity":58,"Duration":715027,"SoundDuration":715027,"Delta":104114217},{"NoteNumber":50,"Velocity":44,"Duration":119047,"SoundDuration":119047,"Delta":104114217},{"NoteNumber":46,"Velocity":35,"Duration":119047,"SoundDuration":119047,"Delta":104233265},{"NoteNumber":50,"Velocity":43,"Duration":119047,"SoundDuration":119047,"Delta":104352312},{"NoteNumber":46,"Velocity":35,"Duration":119047,"SoundDuration":119047,"Delta":104471360},{"NoteNumber":50,"Velocity":43,"Duration":119047,"SoundDuration":119047,"Delta":104590408},{"NoteNumber":46,"Velocity":34,"Duration":119789,"SoundDuration":119789,"Delta":104709455},{"NoteNumber":56,"Velocity":57,"Duration":720236,"SoundDuration":720236,"Delta":104829245},{"NoteNumber":50,"Velocity":42,"Duration":119789,"SoundDuration":119789,"Delta":104829245},{"NoteNumber":46,"Velocity":34,"Duration":119789,"SoundDuration":119789,"Delta":104949034},{"NoteNumber":50,"Velocity":42,"Duration":119789,"SoundDuration":119789,"Delta":105068823},{"NoteNumber":46,"Velocity":34,"Duration":119789,"SoundDuration":119789,"Delta":105188612},{"NoteNumber":50,"Velocity":41,"Duration":120540,"SoundDuration":120540,"Delta":105308401},{"NoteNumber":46,"Velocity":30,"Duration":120539,"SoundDuration":120539,"Delta":105428941},{"NoteNumber":55,"Velocity":55,"Duration":725521,"SoundDuration":725521,"Delta":105549481},{"NoteNumber":51,"Velocity":41,"Duration":120540,"SoundDuration":120540,"Delta":105549481},{"NoteNumber":46,"Velocity":32,"Duration":120539,"SoundDuration":120539,"Delta":105670021},{"NoteNumber":51,"Velocity":40,"Duration":120540,"SoundDuration":120540,"Delta":105790561},{"NoteNumber":46,"Velocity":30,"Duration":121300,"SoundDuration":121300,"Delta":105911101},{"NoteNumber":51,"Velocity":40,"Duration":121300,"SoundDuration":121300,"Delta":106032402},{"NoteNumber":46,"Velocity":30,"Duration":121300,"SoundDuration":121300,"Delta":106153702},{"NoteNumber":54,"Velocity":54,"Duration":730882,"SoundDuration":730882,"Delta":106275002},{"NoteNumber":51,"Velocity":39,"Duration":121300,"SoundDuration":121300,"Delta":106275002},{"NoteNumber":45,"Velocity":31,"Duration":121300,"SoundDuration":121300,"Delta":106396303},{"NoteNumber":51,"Velocity":39,"Duration":122070,"SoundDuration":122070,"Delta":106517603},{"NoteNumber":45,"Velocity":29,"Duration":122070,"SoundDuration":122070,"Delta":106639673},{"NoteNumber":51,"Velocity":38,"Duration":122070,"SoundDuration":122070,"Delta":106761744},{"NoteNumber":45,"Velocity":29,"Duration":122070,"SoundDuration":122070,"Delta":106883814},{"NoteNumber":53,"Velocity":53,"Duration":734391,"SoundDuration":734391,"Delta":107005884},{"NoteNumber":51,"Velocity":38,"Duration":122070,"SoundDuration":122070,"Delta":107005884},{"NoteNumber":45,"Velocity":29,"Duration":122850,"SoundDuration":122850,"Delta":107127955},{"NoteNumber":51,"Velocity":37,"Duration":122850,"SoundDuration":122850,"Delta":107250805},{"NoteNumber":45,"Velocity":29,"Duration":122850,"SoundDuration":122850,"Delta":107373655},{"NoteNumber":51,"Velocity":37,"Duration":122850,"SoundDuration":122850,"Delta":107496505},{"NoteNumber":45,"Velocity":29,"Duration":120920,"SoundDuration":120920,"Delta":107619355},{"NoteNumber":53,"Velocity":53,"Duration":1460224,"SoundDuration":1460224,"Delta":107740275},{"NoteNumber":51,"Velocity":39,"Duration":121300,"SoundDuration":121300,"Delta":107740275},{"NoteNumber":46,"Velocity":32,"Duration":121300,"SoundDuration":121300,"Delta":107861576},{"NoteNumber":51,"Velocity":39,"Duration":121300,"SoundDuration":121300,"Delta":107982876},{"NoteNumber":46,"Velocity":32,"Duration":121300,"SoundDuration":121300,"Delta":108104176},{"NoteNumber":51,"Velocity":38,"Duration":121300,"SoundDuration":121300,"Delta":108225477},{"NoteNumber":46,"Velocity":28,"Duration":121300,"SoundDuration":121300,"Delta":108346777},{"NoteNumber":51,"Velocity":38,"Duration":122070,"SoundDuration":122070,"Delta":108468077},{"NoteNumber":46,"Velocity":30,"Duration":122070,"SoundDuration":122070,"Delta":108590148},{"NoteNumber":51,"Velocity":37,"Duration":122070,"SoundDuration":122070,"Delta":108712218},{"NoteNumber":46,"Velocity":28,"Duration":122070,"SoundDuration":122070,"Delta":108834288},{"NoteNumber":51,"Velocity":37,"Duration":122070,"SoundDuration":122070,"Delta":108956359},{"NoteNumber":46,"Velocity":28,"Duration":122070,"SoundDuration":122070,"Delta":109078429},{"NoteNumber":53,"Velocity":50,"Duration":1479031,"SoundDuration":1479031,"Delta":109200499},{"NoteNumber":50,"Velocity":36,"Duration":122850,"SoundDuration":122850,"Delta":109200499},{"NoteNumber":46,"Velocity":29,"Duration":122850,"SoundDuration":122850,"Delta":109323350},{"NoteNumber":50,"Velocity":36,"Duration":122850,"SoundDuration":122850,"Delta":109446200},{"NoteNumber":46,"Velocity":27,"Duration":122850,"SoundDuration":122850,"Delta":109569050},{"NoteNumber":50,"Velocity":36,"Duration":122850,"SoundDuration":122850,"Delta":109691900},{"NoteNumber":46,"Velocity":27,"Duration":122850,"SoundDuration":122850,"Delta":109814750},{"NoteNumber":50,"Velocity":36,"Duration":123655,"SoundDuration":123655,"Delta":109937600},{"NoteNumber":46,"Velocity":27,"Duration":123655,"SoundDuration":123655,"Delta":110061256},{"NoteNumber":50,"Velocity":35,"Duration":123655,"SoundDuration":123655,"Delta":110184911},{"NoteNumber":46,"Velocity":27,"Duration":123655,"SoundDuration":123655,"Delta":110308566},{"NoteNumber":50,"Velocity":35,"Duration":123655,"SoundDuration":123655,"Delta":110432221},{"NoteNumber":46,"Velocity":27,"Duration":123655,"SoundDuration":123655,"Delta":110555876},{"NoteNumber":50,"Velocity":66,"Duration":1136343,"SoundDuration":1136343,"Delta":110679531},{"NoteNumber":62,"Velocity":66,"Duration":1136343,"SoundDuration":1136343,"Delta":110679531},{"NoteNumber":54,"Velocity":50,"Duration":1563710,"SoundDuration":1563710,"Delta":110679531},{"NoteNumber":48,"Velocity":50,"Duration":124455,"SoundDuration":124455,"Delta":110679531},{"NoteNumber":45,"Velocity":42,"Duration":124455,"SoundDuration":124455,"Delta":110803987},{"NoteNumber":48,"Velocity":50,"Duration":124455,"SoundDuration":124455,"Delta":110928442},{"NoteNumber":45,"Velocity":44,"Duration":124455,"SoundDuration":124455,"Delta":111052898},{"NoteNumber":48,"Velocity":51,"Duration":124455,"SoundDuration":124455,"Delta":111177353},{"NoteNumber":45,"Velocity":45,"Duration":124455,"SoundDuration":124455,"Delta":111301809},{"NoteNumber":48,"Velocity":52,"Duration":129870,"SoundDuration":129870,"Delta":111426264},{"NoteNumber":45,"Velocity":46,"Duration":129870,"SoundDuration":129870,"Delta":111556135},{"NoteNumber":48,"Velocity":53,"Duration":129870,"SoundDuration":129870,"Delta":111686005},{"NoteNumber":50,"Velocity":67,"Duration":427366,"SoundDuration":427366,"Delta":111815875},{"NoteNumber":62,"Velocity":67,"Duration":427366,"SoundDuration":427366,"Delta":111815875},{"NoteNumber":45,"Velocity":46,"Duration":144113,"SoundDuration":144113,"Delta":111815875},{"NoteNumber":48,"Velocity":54,"Duration":144112,"SoundDuration":144112,"Delta":111959988},{"NoteNumber":45,"Velocity":47,"Duration":139140,"SoundDuration":139140,"Delta":112104101},{"NoteNumber":50,"Velocity":53,"Duration":93167,"SoundDuration":93167,"Delta":112243242},{"NoteNumber":59,"Velocity":53,"Duration":93167,"SoundDuration":93167,"Delta":112243242},{"NoteNumber":31,"Velocity":50,"Duration":1438976,"SoundDuration":1438976,"Delta":112243242},{"NoteNumber":35,"Velocity":50,"Duration":1438976,"SoundDuration":1438976,"Delta":112243242},{"NoteNumber":38,"Velocity":50,"Duration":1438976,"SoundDuration":1438976,"Delta":112243242},{"NoteNumber":43,"Velocity":60,"Duration":1438976,"SoundDuration":1438976,"Delta":112243242},{"NoteNumber":62,"Velocity":45,"Duration":92592,"SoundDuration":92592,"Delta":112336409},{"NoteNumber":50,"Velocity":53,"Duration":92213,"SoundDuration":92213,"Delta":112429002},{"NoteNumber":59,"Velocity":53,"Duration":92213,"SoundDuration":92213,"Delta":112429002},{"NoteNumber":62,"Velocity":46,"Duration":91837,"SoundDuration":91837,"Delta":112521216},{"NoteNumber":50,"Velocity":52,"Duration":91278,"SoundDuration":91278,"Delta":112613053},{"NoteNumber":59,"Velocity":52,"Duration":91278,"SoundDuration":91278,"Delta":112613053},{"NoteNumber":62,"Velocity":45,"Duration":90909,"SoundDuration":90909,"Delta":112704332},{"NoteNumber":50,"Velocity":51,"Duration":90361,"SoundDuration":90361,"Delta":112795241},{"NoteNumber":59,"Velocity":51,"Duration":90361,"SoundDuration":90361,"Delta":112795241},{"NoteNumber":62,"Velocity":46,"Duration":90000,"SoundDuration":90000,"Delta":112885602},{"NoteNumber":50,"Velocity":51,"Duration":89463,"SoundDuration":89463,"Delta":112975603},{"NoteNumber":59,"Velocity":51,"Duration":89463,"SoundDuration":89463,"Delta":112975603},{"NoteNumber":62,"Velocity":44,"Duration":89109,"SoundDuration":89109,"Delta":113065067},{"NoteNumber":50,"Velocity":50,"Duration":88757,"SoundDuration":88757,"Delta":113154177},{"NoteNumber":59,"Velocity":50,"Duration":88757,"SoundDuration":88757,"Delta":113154177},{"NoteNumber":62,"Velocity":45,"Duration":88235,"SoundDuration":88235,"Delta":113242934},{"NoteNumber":50,"Velocity":50,"Duration":87719,"SoundDuration":87719,"Delta":113331169},{"NoteNumber":59,"Velocity":50,"Duration":87719,"SoundDuration":87719,"Delta":113331169},{"NoteNumber":62,"Velocity":44,"Duration":87719,"SoundDuration":87719,"Delta":113418889},{"NoteNumber":50,"Velocity":49,"Duration":87719,"SoundDuration":87719,"Delta":113506608},{"NoteNumber":59,"Velocity":49,"Duration":87719,"SoundDuration":87719,"Delta":113506608},{"NoteNumber":62,"Velocity":45,"Duration":87891,"SoundDuration":87891,"Delta":113594327},{"NoteNumber":50,"Velocity":49,"Duration":88235,"SoundDuration":88235,"Delta":113682218},{"NoteNumber":59,"Velocity":49,"Duration":88235,"SoundDuration":88235,"Delta":113682218},{"NoteNumber":62,"Velocity":42,"Duration":88757,"SoundDuration":88757,"Delta":113770454},{"NoteNumber":50,"Velocity":48,"Duration":89285,"SoundDuration":89285,"Delta":113859211},{"NoteNumber":59,"Velocity":48,"Duration":89285,"SoundDuration":89285,"Delta":113859211},{"NoteNumber":62,"Velocity":43,"Duration":89642,"SoundDuration":89642,"Delta":113948497},{"NoteNumber":50,"Velocity":48,"Duration":90000,"SoundDuration":90000,"Delta":114038139},{"NoteNumber":59,"Velocity":48,"Duration":90000,"SoundDuration":90000,"Delta":114038139},{"NoteNumber":62,"Velocity":42,"Duration":90544,"SoundDuration":90544,"Delta":114128140},{"NoteNumber":50,"Velocity":47,"Duration":90909,"SoundDuration":90909,"Delta":114218684},{"NoteNumber":59,"Velocity":47,"Duration":90909,"SoundDuration":90909,"Delta":114218684},{"NoteNumber":62,"Velocity":43,"Duration":91463,"SoundDuration":91463,"Delta":114309593},{"NoteNumber":67,"Velocity":71,"Duration":736196,"SoundDuration":736196,"Delta":114401056},{"NoteNumber":79,"Velocity":71,"Duration":736196,"SoundDuration":736196,"Delta":114401056},{"NoteNumber":47,"Velocity":64,"Duration":122699,"SoundDuration":122699,"Delta":114401056},{"NoteNumber":55,"Velocity":55,"Duration":122699,"SoundDuration":122699,"Delta":114523756},{"NoteNumber":47,"Velocity":63,"Duration":122699,"SoundDuration":122699,"Delta":114646455},{"NoteNumber":55,"Velocity":53,"Duration":122699,"SoundDuration":122699,"Delta":114769154},{"NoteNumber":47,"Velocity":63,"Duration":122699,"SoundDuration":122699,"Delta":114891854},{"NoteNumber":55,"Velocity":55,"Duration":122699,"SoundDuration":122699,"Delta":115014553},{"NoteNumber":66,"Velocity":69,"Duration":736195,"SoundDuration":736195,"Delta":115137252},{"NoteNumber":78,"Velocity":69,"Duration":736195,"SoundDuration":736195,"Delta":115137252},{"NoteNumber":48,"Velocity":63,"Duration":122699,"SoundDuration":122699,"Delta":115137252},{"NoteNumber":57,"Velocity":55,"Duration":122699,"SoundDuration":122699,"Delta":115259952},{"NoteNumber":48,"Velocity":63,"Duration":122699,"SoundDuration":122699,"Delta":115382651},{"NoteNumber":57,"Velocity":53,"Duration":122699,"SoundDuration":122699,"Delta":115505350},{"NoteNumber":48,"Velocity":62,"Duration":122699,"SoundDuration":122699,"Delta":115628050},{"NoteNumber":57,"Velocity":53,"Duration":122699,"SoundDuration":122699,"Delta":115750749},{"NoteNumber":65,"Velocity":67,"Duration":766675,"SoundDuration":766675,"Delta":115873448},{"NoteNumber":77,"Velocity":67,"Duration":766675,"SoundDuration":766675,"Delta":115873448},{"NoteNumber":50,"Velocity":62,"Duration":127779,"SoundDuration":127779,"Delta":115873448},{"NoteNumber":59,"Velocity":54,"Duration":127779,"SoundDuration":127779,"Delta":116001227},{"NoteNumber":50,"Velocity":63,"Duration":127779,"SoundDuration":127779,"Delta":116129007},{"NoteNumber":59,"Velocity":57,"Duration":127779,"SoundDuration":127779,"Delta":116256786},{"NoteNumber":50,"Velocity":64,"Duration":127779,"SoundDuration":127779,"Delta":116384565},{"NoteNumber":59,"Velocity":59,"Duration":127779,"SoundDuration":127779,"Delta":116512344},{"NoteNumber":63,"Velocity":66,"Duration":732421,"SoundDuration":732421,"Delta":116640123},{"NoteNumber":75,"Velocity":66,"Duration":732421,"SoundDuration":732421,"Delta":116640123},{"NoteNumber":51,"Velocity":67,"Duration":122070,"SoundDuration":122070,"Delta":116640123},{"NoteNumber":60,"Velocity":54,"Duration":122070,"SoundDuration":122070,"Delta":116762194},{"NoteNumber":51,"Velocity":60,"Duration":122070,"SoundDuration":122070,"Delta":116884264},{"NoteNumber":60,"Velocity":52,"Duration":122070,"SoundDuration":122070,"Delta":117006334},{"NoteNumber":51,"Velocity":60,"Duration":122070,"SoundDuration":122070,"Delta":117128405},{"NoteNumber":60,"Velocity":52,"Duration":122070,"SoundDuration":122070,"Delta":117250475},{"NoteNumber":68,"Velocity":59,"Duration":751597,"SoundDuration":751597,"Delta":117372545},{"NoteNumber":71,"Velocity":65,"Duration":751597,"SoundDuration":751597,"Delta":117372545},{"NoteNumber":74,"Velocity":65,"Duration":751597,"SoundDuration":751597,"Delta":117372545},{"NoteNumber":53,"Velocity":59,"Duration":125266,"SoundDuration":125266,"Delta":117372545},{"NoteNumber":62,"Velocity":53,"Duration":125266,"SoundDuration":125266,"Delta":117497811},{"NoteNumber":53,"Velocity":58,"Duration":125266,"SoundDuration":125266,"Delta":117623078},{"NoteNumber":62,"Velocity":51,"Duration":125266,"SoundDuration":125266,"Delta":117748344},{"NoteNumber":53,"Velocity":58,"Duration":125266,"SoundDuration":125266,"Delta":117873610},{"NoteNumber":62,"Velocity":51,"Duration":125266,"SoundDuration":125266,"Delta":117998876},{"NoteNumber":67,"Velocity":63,"Duration":751596,"SoundDuration":751596,"Delta":118124142},{"NoteNumber":72,"Velocity":63,"Duration":751596,"SoundDuration":751596,"Delta":118124142},{"NoteNumber":55,"Velocity":57,"Duration":125266,"SoundDuration":125266,"Delta":118124142},{"NoteNumber":63,"Velocity":51,"Duration":125266,"SoundDuration":125266,"Delta":118249408},{"NoteNumber":55,"Velocity":56,"Duration":125266,"SoundDuration":125266,"Delta":118374675},{"NoteNumber":63,"Velocity":50,"Duration":125266,"SoundDuration":125266,"Delta":118499941},{"NoteNumber":55,"Velocity":57,"Duration":125266,"SoundDuration":125266,"Delta":118625207},{"NoteNumber":63,"Velocity":51,"Duration":125266,"SoundDuration":125266,"Delta":118750473},{"NoteNumber":63,"Velocity":63,"Duration":119047,"SoundDuration":119047,"Delta":118875739},{"NoteNumber":55,"Velocity":63,"Duration":119047,"SoundDuration":119047,"Delta":118875739},{"NoteNumber":27,"Velocity":55,"Duration":707995,"SoundDuration":707995,"Delta":118875739},{"NoteNumber":39,"Velocity":66,"Duration":707995,"SoundDuration":707995,"Delta":118875739},{"NoteNumber":67,"Velocity":51,"Duration":118695,"SoundDuration":118695,"Delta":118994787},{"NoteNumber":63,"Velocity":58,"Duration":118343,"SoundDuration":118343,"Delta":119113482},{"NoteNumber":55,"Velocity":58,"Duration":118343,"SoundDuration":118343,"Delta":119113482},{"NoteNumber":67,"Velocity":52,"Duration":117647,"SoundDuration":117647,"Delta":119231826},{"NoteNumber":55,"Velocity":60,"Duration":117302,"SoundDuration":117302,"Delta":119349473},{"NoteNumber":63,"Velocity":60,"Duration":117302,"SoundDuration":117302,"Delta":119349473},{"NoteNumber":67,"Velocity":54,"Duration":116958,"SoundDuration":116958,"Delta":119466776},{"NoteNumber":62,"Velocity":66,"Duration":116279,"SoundDuration":116279,"Delta":119583735},{"NoteNumber":53,"Velocity":66,"Duration":116279,"SoundDuration":116279,"Delta":119583735},{"NoteNumber":29,"Velocity":56,"Duration":697674,"SoundDuration":697674,"Delta":119583735},{"NoteNumber":41,"Velocity":67,"Duration":697674,"SoundDuration":697674,"Delta":119583735},{"NoteNumber":65,"Velocity":55,"Duration":116278,"SoundDuration":116278,"Delta":119700014},{"NoteNumber":62,"Velocity":62,"Duration":116279,"SoundDuration":116279,"Delta":119816293},{"NoteNumber":53,"Velocity":62,"Duration":116279,"SoundDuration":116279,"Delta":119816293},{"NoteNumber":65,"Velocity":56,"Duration":116278,"SoundDuration":116278,"Delta":119932572},{"NoteNumber":53,"Velocity":63,"Duration":116279,"SoundDuration":116279,"Delta":120048851},{"NoteNumber":62,"Velocity":63,"Duration":116279,"SoundDuration":116279,"Delta":120048851},{"NoteNumber":65,"Velocity":57,"Duration":116279,"SoundDuration":116279,"Delta":120165130},{"NoteNumber":60,"Velocity":70,"Duration":116278,"SoundDuration":116278,"Delta":120281409},{"NoteNumber":51,"Velocity":70,"Duration":116278,"SoundDuration":116278,"Delta":120281409},{"NoteNumber":30,"Velocity":57,"Duration":348836,"SoundDuration":348836,"Delta":120281409},{"NoteNumber":42,"Velocity":69,"Duration":348836,"SoundDuration":348836,"Delta":120281409},{"NoteNumber":63,"Velocity":58,"Duration":116279,"SoundDuration":116279,"Delta":120397688},{"NoteNumber":60,"Velocity":65,"Duration":116278,"SoundDuration":116278,"Delta":120513967},{"NoteNumber":51,"Velocity":65,"Duration":116278,"SoundDuration":116278,"Delta":120513967},{"NoteNumber":63,"Velocity":60,"Duration":131268,"SoundDuration":131268,"Delta":120630246},{"NoteNumber":51,"Velocity":67,"Duration":165454,"SoundDuration":165454,"Delta":120761514},{"NoteNumber":60,"Velocity":67,"Duration":165454,"SoundDuration":165454,"Delta":120761514},{"NoteNumber":31,"Velocity":58,"Duration":74865,"SoundDuration":74865,"Delta":120827148},{"NoteNumber":35,"Velocity":62,"Duration":74865,"SoundDuration":74865,"Delta":120902013},{"NoteNumber":63,"Velocity":62,"Duration":199640,"SoundDuration":199640,"Delta":120926968},{"NoteNumber":38,"Velocity":66,"Duration":74865,"SoundDuration":74865,"Delta":120976878},{"NoteNumber":43,"Velocity":70,"Duration":74865,"SoundDuration":74865,"Delta":121051743},{"NoteNumber":50,"Velocity":53,"Duration":90975,"SoundDuration":90975,"Delta":121126609},{"NoteNumber":59,"Velocity":53,"Duration":90975,"SoundDuration":90975,"Delta":121126609},{"NoteNumber":71,"Velocity":80,"Duration":2109680,"SoundDuration":2109680,"Delta":121126609},{"NoteNumber":74,"Velocity":80,"Duration":2109680,"SoundDuration":2109680,"Delta":121126609},{"NoteNumber":62,"Velocity":45,"Duration":90595,"SoundDuration":90595,"Delta":121217584},{"NoteNumber":50,"Velocity":53,"Duration":90029,"SoundDuration":90029,"Delta":121308179},{"NoteNumber":59,"Velocity":53,"Duration":90029,"SoundDuration":90029,"Delta":121308179},{"NoteNumber":62,"Velocity":48,"Duration":89471,"SoundDuration":89471,"Delta":121398208},{"NoteNumber":50,"Velocity":54,"Duration":88912,"SoundDuration":88912,"Delta":121487680},{"NoteNumber":59,"Velocity":54,"Duration":88912,"SoundDuration":88912,"Delta":121487680},{"NoteNumber":62,"Velocity":47,"Duration":88545,"SoundDuration":88545,"Delta":121576592},{"NoteNumber":50,"Velocity":54,"Duration":88004,"SoundDuration":88004,"Delta":121665137},{"NoteNumber":59,"Velocity":54,"Duration":88004,"SoundDuration":88004,"Delta":121665137},{"NoteNumber":62,"Velocity":50,"Duration":87471,"SoundDuration":87471,"Delta":121753142},{"NoteNumber":50,"Velocity":54,"Duration":86598,"SoundDuration":86598,"Delta":121840613},{"NoteNumber":59,"Velocity":54,"Duration":86598,"SoundDuration":86598,"Delta":121840613},{"NoteNumber":62,"Velocity":47,"Duration":85557,"SoundDuration":85557,"Delta":121927211},{"NoteNumber":50,"Velocity":55,"Duration":85557,"SoundDuration":85557,"Delta":122012769},{"NoteNumber":59,"Velocity":55,"Duration":85557,"SoundDuration":85557,"Delta":122012769},{"NoteNumber":62,"Velocity":50,"Duration":86068,"SoundDuration":86068,"Delta":122098327},{"NoteNumber":50,"Velocity":56,"Duration":86068,"SoundDuration":86068,"Delta":122184395},{"NoteNumber":59,"Velocity":56,"Duration":86068,"SoundDuration":86068,"Delta":122184395},{"NoteNumber":62,"Velocity":50,"Duration":86595,"SoundDuration":86595,"Delta":122270463},{"NoteNumber":50,"Velocity":56,"Duration":86595,"SoundDuration":86595,"Delta":122357059},{"NoteNumber":59,"Velocity":56,"Duration":86595,"SoundDuration":86595,"Delta":122357059},{"NoteNumber":62,"Velocity":52,"Duration":87118,"SoundDuration":87118,"Delta":122443654},{"NoteNumber":50,"Velocity":57,"Duration":87118,"SoundDuration":87118,"Delta":122530772},{"NoteNumber":59,"Velocity":57,"Duration":87118,"SoundDuration":87118,"Delta":122530772},{"NoteNumber":62,"Velocity":49,"Duration":87647,"SoundDuration":87647,"Delta":122617890},{"NoteNumber":50,"Velocity":56,"Duration":87647,"SoundDuration":87647,"Delta":122705537},{"NoteNumber":59,"Velocity":56,"Duration":87647,"SoundDuration":87647,"Delta":122705537},{"NoteNumber":62,"Velocity":50,"Duration":88183,"SoundDuration":88183,"Delta":122793185},{"NoteNumber":50,"Velocity":54,"Duration":88183,"SoundDuration":88183,"Delta":122881368},{"NoteNumber":59,"Velocity":54,"Duration":88183,"SoundDuration":88183,"Delta":122881368},{"NoteNumber":62,"Velocity":48,"Duration":88725,"SoundDuration":88725,"Delta":122969552},{"NoteNumber":50,"Velocity":54,"Duration":88725,"SoundDuration":88725,"Delta":123058278},{"NoteNumber":59,"Velocity":54,"Duration":88725,"SoundDuration":88725,"Delta":123058278},{"NoteNumber":62,"Velocity":48,"Duration":89285,"SoundDuration":89285,"Delta":123147003},{"NoteNumber":53,"Velocity":74,"Duration":164275,"SoundDuration":164275,"Delta":123236289},{"NoteNumber":56,"Velocity":54,"Duration":109516,"SoundDuration":109516,"Delta":123345806},{"NoteNumber":53,"Velocity":60,"Duration":109517,"SoundDuration":109517,"Delta":123455323},{"NoteNumber":59,"Velocity":54,"Duration":638841,"SoundDuration":638841,"Delta":123564840},{"NoteNumber":62,"Velocity":54,"Duration":638841,"SoundDuration":638841,"Delta":123564840},{"NoteNumber":71,"Velocity":65,"Duration":638841,"SoundDuration":638841,"Delta":123564840},{"NoteNumber":56,"Velocity":54,"Duration":106473,"SoundDuration":106473,"Delta":123564840},{"NoteNumber":53,"Velocity":60,"Duration":106473,"SoundDuration":106473,"Delta":123671314},{"NoteNumber":56,"Velocity":54,"Duration":106473,"SoundDuration":106473,"Delta":123777788},{"NoteNumber":51,"Velocity":75,"Duration":159710,"SoundDuration":159710,"Delta":123884261},{"NoteNumber":55,"Velocity":52,"Duration":106473,"SoundDuration":106473,"Delta":123990735},{"NoteNumber":51,"Velocity":57,"Duration":106473,"SoundDuration":106473,"Delta":124097209},{"NoteNumber":60,"Velocity":59,"Duration":636474,"SoundDuration":636474,"Delta":124203682},{"NoteNumber":63,"Velocity":59,"Duration":636474,"SoundDuration":636474,"Delta":124203682},{"NoteNumber":72,"Velocity":71,"Duration":636474,"SoundDuration":636474,"Delta":124203682},{"NoteNumber":55,"Velocity":53,"Duration":106473,"SoundDuration":106473,"Delta":124203682},{"NoteNumber":51,"Velocity":57,"Duration":106473,"SoundDuration":106473,"Delta":124310156},{"NoteNumber":55,"Velocity":54,"Duration":106762,"SoundDuration":106762,"Delta":124416630},{"NoteNumber":44,"Velocity":76,"Duration":158730,"SoundDuration":158730,"Delta":124523392},{"NoteNumber":53,"Velocity":56,"Duration":105680,"SoundDuration":105680,"Delta":124629212},{"NoteNumber":44,"Velocity":61,"Duration":105263,"SoundDuration":105263,"Delta":124734893},{"NoteNumber":62,"Velocity":60,"Duration":626238,"SoundDuration":626238,"Delta":124840157},{"NoteNumber":65,"Velocity":60,"Duration":626238,"SoundDuration":626238,"Delta":124840157},{"NoteNumber":74,"Velocity":72,"Duration":626238,"SoundDuration":626238,"Delta":124840157},{"NoteNumber":53,"Velocity":55,"Duration":105125,"SoundDuration":105125,"Delta":124840157},{"NoteNumber":44,"Velocity":61,"Duration":104711,"SoundDuration":104711,"Delta":124945282},{"NoteNumber":53,"Velocity":61,"Duration":104575,"SoundDuration":104575,"Delta":125049994},{"NoteNumber":43,"Velocity":77,"Duration":156250,"SoundDuration":156250,"Delta":125154570},{"NoteNumber":51,"Velocity":54,"Duration":104031,"SoundDuration":104031,"Delta":125258736},{"NoteNumber":43,"Velocity":60,"Duration":103626,"SoundDuration":103626,"Delta":125362768},{"NoteNumber":63,"Velocity":63,"Duration":616977,"SoundDuration":616977,"Delta":125466395},{"NoteNumber":67,"Velocity":63,"Duration":616977,"SoundDuration":616977,"Delta":125466395},{"NoteNumber":75,"Velocity":74,"Duration":616977,"SoundDuration":616977,"Delta":125466395},{"NoteNumber":51,"Velocity":56,"Duration":103493,"SoundDuration":103493,"Delta":125466395},{"NoteNumber":43,"Velocity":61,"Duration":103092,"SoundDuration":103092,"Delta":125569888},{"NoteNumber":51,"Velocity":55,"Duration":102960,"SoundDuration":102960,"Delta":125672981},{"NoteNumber":41,"Velocity":77,"Duration":153846,"SoundDuration":153846,"Delta":125775942},{"NoteNumber":50,"Velocity":58,"Duration":102564,"SoundDuration":102564,"Delta":125878506},{"NoteNumber":41,"Velocity":63,"Duration":102302,"SoundDuration":102302,"Delta":125981070},{"NoteNumber":65,"Velocity":64,"Duration":609532,"SoundDuration":609532,"Delta":126083373},{"NoteNumber":74,"Velocity":64,"Duration":609532,"SoundDuration":609532,"Delta":126083373},{"NoteNumber":77,"Velocity":76,"Duration":609532,"SoundDuration":609532,"Delta":126083373},{"NoteNumber":50,"Velocity":57,"Duration":102040,"SoundDuration":102040,"Delta":126083373},{"NoteNumber":41,"Velocity":63,"Duration":102040,"SoundDuration":102040,"Delta":126185414},{"NoteNumber":50,"Velocity":56,"Duration":101522,"SoundDuration":101522,"Delta":126287454},{"NoteNumber":39,"Velocity":79,"Duration":152284,"SoundDuration":152284,"Delta":126388977},{"NoteNumber":48,"Velocity":59,"Duration":101394,"SoundDuration":101394,"Delta":126490500},{"NoteNumber":39,"Velocity":63,"Duration":101010,"SoundDuration":101010,"Delta":126591895},{"NoteNumber":67,"Velocity":67,"Duration":602644,"SoundDuration":602644,"Delta":126692905},{"NoteNumber":75,"Velocity":67,"Duration":602644,"SoundDuration":602644,"Delta":126692905},{"NoteNumber":79,"Velocity":79,"Duration":602644,"SoundDuration":602644,"Delta":126692905},{"NoteNumber":48,"Velocity":60,"Duration":101010,"SoundDuration":101010,"Delta":126692905},{"NoteNumber":39,"Velocity":64,"Duration":100629,"SoundDuration":100629,"Delta":126793915},{"NoteNumber":48,"Velocity":59,"Duration":100502,"SoundDuration":100502,"Delta":126894545},{"NoteNumber":38,"Velocity":80,"Duration":150502,"SoundDuration":150502,"Delta":126995047},{"NoteNumber":47,"Velocity":60,"Duration":99999,"SoundDuration":99999,"Delta":127095550},{"NoteNumber":38,"Velocity":65,"Duration":100000,"SoundDuration":100000,"Delta":127195550},{"NoteNumber":67,"Velocity":70,"Duration":602747,"SoundDuration":602747,"Delta":127295550},{"NoteNumber":77,"Velocity":70,"Duration":602747,"SoundDuration":602747,"Delta":127295550},{"NoteNumber":79,"Velocity":82,"Duration":602747,"SoundDuration":602747,"Delta":127295550},{"NoteNumber":47,"Velocity":59,"Duration":99751,"SoundDuration":99751,"Delta":127295550},{"NoteNumber":38,"Velocity":64,"Duration":99502,"SoundDuration":99502,"Delta":127395301},{"NoteNumber":47,"Velocity":62,"Duration":99502,"SoundDuration":99502,"Delta":127494803},{"NoteNumber":36,"Velocity":81,"Duration":609028,"SoundDuration":609028,"Delta":127594306},{"NoteNumber":39,"Velocity":75,"Duration":99009,"SoundDuration":99009,"Delta":127594306},{"NoteNumber":48,"Velocity":62,"Duration":102490,"SoundDuration":102490,"Delta":127693316},{"NoteNumber":39,"Velocity":66,"Duration":102490,"SoundDuration":102490,"Delta":127795806},{"NoteNumber":87,"Velocity":90,"Duration":616219,"SoundDuration":616219,"Delta":127898297},{"NoteNumber":79,"Velocity":76,"Duration":616219,"SoundDuration":616219,"Delta":127898297},{"NoteNumber":75,"Velocity":76,"Duration":616219,"SoundDuration":616219,"Delta":127898297},{"NoteNumber":48,"Velocity":61,"Duration":101950,"SoundDuration":101950,"Delta":127898297},{"NoteNumber":39,"Velocity":65,"Duration":101409,"SoundDuration":101409,"Delta":128000247},{"NoteNumber":48,"Velocity":61,"Duration":101678,"SoundDuration":101678,"Delta":128101656},{"NoteNumber":34,"Velocity":81,"Duration":205270,"SoundDuration":205270,"Delta":128203335},{"NoteNumber":40,"Velocity":77,"Duration":101947,"SoundDuration":101947,"Delta":128203335},{"NoteNumber":46,"Velocity":63,"Duration":103323,"SoundDuration":103323,"Delta":128305282},{"NoteNumber":34,"Velocity":67,"Duration":236288,"SoundDuration":236288,"Delta":128408605},{"NoteNumber":40,"Velocity":67,"Duration":105910,"SoundDuration":105910,"Delta":128408605},{"NoteNumber":86,"Velocity":91,"Duration":381986,"SoundDuration":381986,"Delta":128514516},{"NoteNumber":80,"Velocity":76,"Duration":381986,"SoundDuration":381986,"Delta":128514516},{"NoteNumber":74,"Velocity":76,"Duration":381986,"SoundDuration":381986,"Delta":128514516},{"NoteNumber":46,"Velocity":63,"Duration":130378,"SoundDuration":130378,"Delta":128514516},{"NoteNumber":34,"Velocity":67,"Duration":251608,"SoundDuration":251608,"Delta":128644894},{"NoteNumber":40,"Velocity":66,"Duration":130378,"SoundDuration":130378,"Delta":128644894},{"NoteNumber":46,"Velocity":63,"Duration":121230,"SoundDuration":121230,"Delta":128775272},{"NoteNumber":85,"Velocity":95,"Duration":340213,"SoundDuration":340213,"Delta":128896503},{"NoteNumber":81,"Velocity":80,"Duration":340213,"SoundDuration":340213,"Delta":128896503},{"NoteNumber":73,"Velocity":80,"Duration":340213,"SoundDuration":340213,"Delta":128896503},{"NoteNumber":33,"Velocity":79,"Duration":340213,"SoundDuration":340213,"Delta":128896503},{"NoteNumber":40,"Velocity":79,"Duration":340213,"SoundDuration":340213,"Delta":128896503},{"NoteNumber":45,"Velocity":79,"Duration":340213,"SoundDuration":340213,"Delta":128896503},{"NoteNumber":52,"Velocity":55,"Duration":92403,"SoundDuration":92403,"Delta":129576929},{"NoteNumber":61,"Velocity":55,"Duration":92403,"SoundDuration":92403,"Delta":129576929},{"NoteNumber":64,"Velocity":47,"Duration":91278,"SoundDuration":91278,"Delta":129669332},{"NoteNumber":52,"Velocity":54,"Duration":90181,"SoundDuration":90181,"Delta":129760611},{"NoteNumber":61,"Velocity":54,"Duration":90181,"SoundDuration":90181,"Delta":129760611},{"NoteNumber":64,"Velocity":49,"Duration":89109,"SoundDuration":89109,"Delta":129850792},{"NoteNumber":52,"Velocity":54,"Duration":88063,"SoundDuration":88063,"Delta":129939901},{"NoteNumber":61,"Velocity":54,"Duration":88063,"SoundDuration":88063,"Delta":129939901},{"NoteNumber":64,"Velocity":47,"Duration":87383,"SoundDuration":87383,"Delta":130027965},{"NoteNumber":52,"Velocity":54,"Duration":88235,"SoundDuration":88235,"Delta":130115348},{"NoteNumber":61,"Velocity":54,"Duration":88235,"SoundDuration":88235,"Delta":130115348},{"NoteNumber":64,"Velocity":49,"Duration":87891,"SoundDuration":87891,"Delta":130203583},{"NoteNumber":52,"Velocity":54,"Duration":88063,"SoundDuration":88063,"Delta":130291474},{"NoteNumber":61,"Velocity":54,"Duration":88063,"SoundDuration":88063,"Delta":130291474},{"NoteNumber":64,"Velocity":45,"Duration":88583,"SoundDuration":88583,"Delta":130379538},{"NoteNumber":52,"Velocity":53,"Duration":89285,"SoundDuration":89285,"Delta":130468121},{"NoteNumber":61,"Velocity":53,"Duration":89285,"SoundDuration":89285,"Delta":130468121},{"NoteNumber":64,"Velocity":46,"Duration":89820,"SoundDuration":89820,"Delta":130557407},{"NoteNumber":52,"Velocity":53,"Duration":90544,"SoundDuration":90544,"Delta":130647227},{"NoteNumber":61,"Velocity":53,"Duration":90544,"SoundDuration":90544,"Delta":130647227},{"NoteNumber":64,"Velocity":45,"Duration":91093,"SoundDuration":91093,"Delta":130737771},{"NoteNumber":52,"Velocity":52,"Duration":91650,"SoundDuration":91650,"Delta":130828865},{"NoteNumber":61,"Velocity":52,"Duration":91650,"SoundDuration":91650,"Delta":130828865},{"NoteNumber":64,"Velocity":46,"Duration":92403,"SoundDuration":92403,"Delta":130920515},{"NoteNumber":69,"Velocity":71,"Duration":746733,"SoundDuration":746733,"Delta":131012919},{"NoteNumber":81,"Velocity":71,"Duration":746733,"SoundDuration":746733,"Delta":131012919},{"NoteNumber":49,"Velocity":64,"Duration":124455,"SoundDuration":124455,"Delta":131012919},{"NoteNumber":57,"Velocity":55,"Duration":124455,"SoundDuration":124455,"Delta":131137374},{"NoteNumber":49,"Velocity":63,"Duration":124455,"SoundDuration":124455,"Delta":131261830},{"NoteNumber":57,"Velocity":53,"Duration":124455,"SoundDuration":124455,"Delta":131386285},{"NoteNumber":49,"Velocity":63,"Duration":124455,"SoundDuration":124455,"Delta":131510741},{"NoteNumber":57,"Velocity":55,"Duration":124455,"SoundDuration":124455,"Delta":131635196},{"NoteNumber":68,"Velocity":69,"Duration":731707,"SoundDuration":731707,"Delta":131759652},{"NoteNumber":80,"Velocity":69,"Duration":731707,"SoundDuration":731707,"Delta":131759652},{"NoteNumber":50,"Velocity":63,"Duration":121951,"SoundDuration":121951,"Delta":131759652},{"NoteNumber":59,"Velocity":55,"Duration":121951,"SoundDuration":121951,"Delta":131881603},{"NoteNumber":50,"Velocity":63,"Duration":121951,"SoundDuration":121951,"Delta":132003554},{"NoteNumber":59,"Velocity":53,"Duration":121951,"SoundDuration":121951,"Delta":132125505},{"NoteNumber":50,"Velocity":62,"Duration":121951,"SoundDuration":121951,"Delta":132247456},{"NoteNumber":59,"Velocity":53,"Duration":121951,"SoundDuration":121951,"Delta":132369407},{"NoteNumber":67,"Velocity":67,"Duration":766674,"SoundDuration":766674,"Delta":132491359},{"NoteNumber":79,"Velocity":67,"Duration":766674,"SoundDuration":766674,"Delta":132491359},{"NoteNumber":52,"Velocity":62,"Duration":127779,"SoundDuration":127779,"Delta":132491359},{"NoteNumber":61,"Velocity":54,"Duration":127779,"SoundDuration":127779,"Delta":132619138},{"NoteNumber":52,"Velocity":61,"Duration":127779,"SoundDuration":127779,"Delta":132746917},{"NoteNumber":61,"Velocity":53,"Duration":127779,"SoundDuration":127779,"Delta":132874696},{"NoteNumber":52,"Velocity":62,"Duration":127779,"SoundDuration":127779,"Delta":133002475},{"NoteNumber":61,"Velocity":54,"Duration":127779,"SoundDuration":127779,"Delta":133130254},{"NoteNumber":65,"Velocity":66,"Duration":718562,"SoundDuration":718562,"Delta":133258034},{"NoteNumber":77,"Velocity":66,"Duration":718562,"SoundDuration":718562,"Delta":133258034},{"NoteNumber":53,"Velocity":65,"Duration":119760,"SoundDuration":119760,"Delta":133258034},{"NoteNumber":62,"Velocity":55,"Duration":119760,"SoundDuration":119760,"Delta":133377794},{"NoteNumber":53,"Velocity":60,"Duration":119760,"SoundDuration":119760,"Delta":133497555},{"NoteNumber":62,"Velocity":52,"Duration":119760,"SoundDuration":119760,"Delta":133617315},{"NoteNumber":53,"Velocity":60,"Duration":119760,"SoundDuration":119760,"Delta":133737076},{"NoteNumber":62,"Velocity":52,"Duration":119760,"SoundDuration":119760,"Delta":133856836},{"NoteNumber":70,"Velocity":59,"Duration":740741,"SoundDuration":740741,"Delta":133976597},{"NoteNumber":73,"Velocity":65,"Duration":740741,"SoundDuration":740741,"Delta":133976597},{"NoteNumber":76,"Velocity":65,"Duration":740741,"SoundDuration":740741,"Delta":133976597},{"NoteNumber":55,"Velocity":59,"Duration":123456,"SoundDuration":123456,"Delta":133976597},{"NoteNumber":64,"Velocity":53,"Duration":123456,"SoundDuration":123456,"Delta":134100053},{"NoteNumber":55,"Velocity":58,"Duration":123456,"SoundDuration":123456,"Delta":134223510},{"NoteNumber":64,"Velocity":51,"Duration":123456,"SoundDuration":123456,"Delta":134346967},{"NoteNumber":55,"Velocity":58,"Duration":123456,"SoundDuration":123456,"Delta":134470424},{"NoteNumber":64,"Velocity":51,"Duration":123456,"SoundDuration":123456,"Delta":134593881},{"NoteNumber":69,"Velocity":63,"Duration":745341,"SoundDuration":745341,"Delta":134717338},{"NoteNumber":74,"Velocity":63,"Duration":745341,"SoundDuration":745341,"Delta":134717338},{"NoteNumber":57,"Velocity":57,"Duration":124223,"SoundDuration":124223,"Delta":134717338},{"NoteNumber":65,"Velocity":51,"Duration":124223,"SoundDuration":124223,"Delta":134841561},{"NoteNumber":57,"Velocity":56,"Duration":124223,"SoundDuration":124223,"Delta":134965785},{"NoteNumber":65,"Velocity":50,"Duration":124223,"SoundDuration":124223,"Delta":135090009},{"NoteNumber":57,"Velocity":57,"Duration":124223,"SoundDuration":124223,"Delta":135214232},{"NoteNumber":65,"Velocity":51,"Duration":124223,"SoundDuration":124223,"Delta":135338456},{"NoteNumber":65,"Velocity":63,"Duration":119789,"SoundDuration":119789,"Delta":135462680},{"NoteNumber":57,"Velocity":63,"Duration":119789,"SoundDuration":119789,"Delta":135462680},{"NoteNumber":29,"Velocity":55,"Duration":719490,"SoundDuration":719490,"Delta":135462680},{"NoteNumber":41,"Velocity":66,"Duration":719490,"SoundDuration":719490,"Delta":135462680},{"NoteNumber":69,"Velocity":51,"Duration":119789,"SoundDuration":119789,"Delta":135582469},{"NoteNumber":65,"Velocity":58,"Duration":119789,"SoundDuration":119789,"Delta":135702258},{"NoteNumber":57,"Velocity":58,"Duration":119789,"SoundDuration":119789,"Delta":135702258},{"NoteNumber":69,"Velocity":52,"Duration":119789,"SoundDuration":119789,"Delta":135822047},{"NoteNumber":57,"Velocity":60,"Duration":119789,"SoundDuration":119789,"Delta":135941836},{"NoteNumber":65,"Velocity":60,"Duration":119789,"SoundDuration":119789,"Delta":135941836},{"NoteNumber":69,"Velocity":54,"Duration":120544,"SoundDuration":120544,"Delta":136061625},{"NoteNumber":64,"Velocity":66,"Duration":116863,"SoundDuration":116863,"Delta":136182170},{"NoteNumber":55,"Velocity":66,"Duration":116863,"SoundDuration":116863,"Delta":136182170},{"NoteNumber":31,"Velocity":56,"Duration":701179,"SoundDuration":701179,"Delta":136182170},{"NoteNumber":43,"Velocity":67,"Duration":701179,"SoundDuration":701179,"Delta":136182170},{"NoteNumber":67,"Velocity":55,"Duration":116863,"SoundDuration":116863,"Delta":136299033},{"NoteNumber":64,"Velocity":62,"Duration":116863,"SoundDuration":116863,"Delta":136415897},{"NoteNumber":55,"Velocity":62,"Duration":116863,"SoundDuration":116863,"Delta":136415897},{"NoteNumber":67,"Velocity":56,"Duration":116863,"SoundDuration":116863,"Delta":136532760},{"NoteNumber":55,"Velocity":63,"Duration":116863,"SoundDuration":116863,"Delta":136649623},{"NoteNumber":64,"Velocity":63,"Duration":116863,"SoundDuration":116863,"Delta":136649623},{"NoteNumber":67,"Velocity":57,"Duration":116863,"SoundDuration":116863,"Delta":136766487},{"NoteNumber":62,"Velocity":70,"Duration":116863,"SoundDuration":116863,"Delta":136883350},{"NoteNumber":53,"Velocity":70,"Duration":116863,"SoundDuration":116863,"Delta":136883350},{"NoteNumber":32,"Velocity":57,"Duration":350590,"SoundDuration":350590,"Delta":136883350},{"NoteNumber":44,"Velocity":69,"Duration":350590,"SoundDuration":350590,"Delta":136883350},{"NoteNumber":65,"Velocity":58,"Duration":116863,"SoundDuration":116863,"Delta":137000213},{"NoteNumber":62,"Velocity":65,"Duration":116863,"SoundDuration":116863,"Delta":137117077},{"NoteNumber":53,"Velocity":65,"Duration":116863,"SoundDuration":116863,"Delta":137117077},{"NoteNumber":65,"Velocity":60,"Duration":131268,"SoundDuration":131268,"Delta":137233940},{"NoteNumber":53,"Velocity":67,"Duration":165454,"SoundDuration":165454,"Delta":137365208},{"NoteNumber":62,"Velocity":67,"Duration":165454,"SoundDuration":165454,"Delta":137365208},{"NoteNumber":33,"Velocity":58,"Duration":74865,"SoundDuration":74865,"Delta":137430842},{"NoteNumber":37,"Velocity":62,"Duration":74865,"SoundDuration":74865,"Delta":137505707},{"NoteNumber":65,"Velocity":62,"Duration":199640,"SoundDuration":199640,"Delta":137530662},{"NoteNumber":40,"Velocity":66,"Duration":74865,"SoundDuration":74865,"Delta":137580573},{"NoteNumber":45,"Velocity":70,"Duration":74865,"SoundDuration":74865,"Delta":137655438},{"NoteNumber":52,"Velocity":53,"Duration":90975,"SoundDuration":90975,"Delta":137730303},{"NoteNumber":61,"Velocity":53,"Duration":90975,"SoundDuration":90975,"Delta":137730303},{"NoteNumber":73,"Velocity":80,"Duration":2109680,"SoundDuration":2109680,"Delta":137730303},{"NoteNumber":76,"Velocity":80,"Duration":2109680,"SoundDuration":2109680,"Delta":137730303},{"NoteNumber":64,"Velocity":45,"Duration":90595,"SoundDuration":90595,"Delta":137821278},{"NoteNumber":52,"Velocity":53,"Duration":90029,"SoundDuration":90029,"Delta":137911873},{"NoteNumber":61,"Velocity":53,"Duration":90029,"SoundDuration":90029,"Delta":137911873},{"NoteNumber":64,"Velocity":48,"Duration":89471,"SoundDuration":89471,"Delta":138001903},{"NoteNumber":52,"Velocity":54,"Duration":88912,"SoundDuration":88912,"Delta":138091374},{"NoteNumber":61,"Velocity":54,"Duration":88912,"SoundDuration":88912,"Delta":138091374},{"NoteNumber":64,"Velocity":47,"Duration":88545,"SoundDuration":88545,"Delta":138180287},{"NoteNumber":52,"Velocity":54,"Duration":88004,"SoundDuration":88004,"Delta":138268832},{"NoteNumber":61,"Velocity":54,"Duration":88004,"SoundDuration":88004,"Delta":138268832},{"NoteNumber":64,"Velocity":50,"Duration":87471,"SoundDuration":87471,"Delta":138356836},{"NoteNumber":52,"Velocity":54,"Duration":86598,"SoundDuration":86598,"Delta":138444308},{"NoteNumber":61,"Velocity":54,"Duration":86598,"SoundDuration":86598,"Delta":138444308},{"NoteNumber":64,"Velocity":47,"Duration":85557,"SoundDuration":85557,"Delta":138530906},{"NoteNumber":52,"Velocity":55,"Duration":85557,"SoundDuration":85557,"Delta":138616463},{"NoteNumber":61,"Velocity":55,"Duration":85557,"SoundDuration":85557,"Delta":138616463},{"NoteNumber":64,"Velocity":50,"Duration":86068,"SoundDuration":86068,"Delta":138702021},{"NoteNumber":52,"Velocity":56,"Duration":86068,"SoundDuration":86068,"Delta":138788090},{"NoteNumber":61,"Velocity":56,"Duration":86068,"SoundDuration":86068,"Delta":138788090},{"NoteNumber":64,"Velocity":50,"Duration":86595,"SoundDuration":86595,"Delta":138874158},{"NoteNumber":52,"Velocity":56,"Duration":86595,"SoundDuration":86595,"Delta":138960753},{"NoteNumber":61,"Velocity":56,"Duration":86595,"SoundDuration":86595,"Delta":138960753},{"NoteNumber":64,"Velocity":52,"Duration":87118,"SoundDuration":87118,"Delta":139047348},{"NoteNumber":52,"Velocity":57,"Duration":87118,"SoundDuration":87118,"Delta":139134466},{"NoteNumber":61,"Velocity":57,"Duration":87118,"SoundDuration":87118,"Delta":139134466},{"NoteNumber":64,"Velocity":49,"Duration":87647,"SoundDuration":87647,"Delta":139221585},{"NoteNumber":52,"Velocity":56,"Duration":87647,"SoundDuration":87647,"Delta":139309232},{"NoteNumber":61,"Velocity":56,"Duration":87647,"SoundDuration":87647,"Delta":139309232},{"NoteNumber":64,"Velocity":50,"Duration":88183,"SoundDuration":88183,"Delta":139396880},{"NoteNumber":52,"Velocity":54,"Duration":88183,"SoundDuration":88183,"Delta":139485063},{"NoteNumber":61,"Velocity":54,"Duration":88183,"SoundDuration":88183,"Delta":139485063},{"NoteNumber":64,"Velocity":48,"Duration":88725,"SoundDuration":88725,"Delta":139573246},{"NoteNumber":52,"Velocity":54,"Duration":88725,"SoundDuration":88725,"Delta":139661972},{"NoteNumber":61,"Velocity":54,"Duration":88725,"SoundDuration":88725,"Delta":139661972},{"NoteNumber":64,"Velocity":49,"Duration":89285,"SoundDuration":89285,"Delta":139750698},{"NoteNumber":55,"Velocity":74,"Duration":164275,"SoundDuration":164275,"Delta":139839984},{"NoteNumber":58,"Velocity":54,"Duration":109516,"SoundDuration":109516,"Delta":139949501},{"NoteNumber":55,"Velocity":60,"Duration":109517,"SoundDuration":109517,"Delta":140059018},{"NoteNumber":61,"Velocity":54,"Duration":638842,"SoundDuration":638842,"Delta":140168535},{"NoteNumber":64,"Velocity":54,"Duration":638842,"SoundDuration":638842,"Delta":140168535},{"NoteNumber":73,"Velocity":65,"Duration":638842,"SoundDuration":638842,"Delta":140168535},{"NoteNumber":58,"Velocity":53,"Duration":106473,"SoundDuration":106473,"Delta":140168535},{"NoteNumber":55,"Velocity":60,"Duration":106473,"SoundDuration":106473,"Delta":140275008},{"NoteNumber":58,"Velocity":54,"Duration":106473,"SoundDuration":106473,"Delta":140381482},{"NoteNumber":53,"Velocity":75,"Duration":159710,"SoundDuration":159710,"Delta":140487956},{"NoteNumber":57,"Velocity":52,"Duration":106473,"SoundDuration":106473,"Delta":140594429},{"NoteNumber":53,"Velocity":57,"Duration":106473,"SoundDuration":106473,"Delta":140700903},{"NoteNumber":62,"Velocity":59,"Duration":640651,"SoundDuration":640651,"Delta":140807377},{"NoteNumber":65,"Velocity":59,"Duration":640651,"SoundDuration":640651,"Delta":140807377},{"NoteNumber":74,"Velocity":71,"Duration":640651,"SoundDuration":640651,"Delta":140807377},{"NoteNumber":57,"Velocity":51,"Duration":106473,"SoundDuration":106473,"Delta":140807377},{"NoteNumber":53,"Velocity":57,"Duration":106473,"SoundDuration":106473,"Delta":140913850},{"NoteNumber":57,"Velocity":53,"Duration":107378,"SoundDuration":107378,"Delta":141020324},{"NoteNumber":46,"Velocity":76,"Duration":160615,"SoundDuration":160615,"Delta":141127703},{"NoteNumber":55,"Velocity":55,"Duration":106473,"SoundDuration":106473,"Delta":141235081},{"NoteNumber":46,"Velocity":61,"Duration":106473,"SoundDuration":106473,"Delta":141341555},{"NoteNumber":64,"Velocity":60,"Duration":634750,"SoundDuration":634750,"Delta":141448029},{"NoteNumber":67,"Velocity":60,"Duration":634750,"SoundDuration":634750,"Delta":141448029},{"NoteNumber":76,"Velocity":72,"Duration":634750,"SoundDuration":634750,"Delta":141448029},{"NoteNumber":55,"Velocity":54,"Duration":106473,"SoundDuration":106473,"Delta":141448029},{"NoteNumber":46,"Velocity":61,"Duration":105887,"SoundDuration":105887,"Delta":141554502},{"NoteNumber":55,"Velocity":54,"Duration":105887,"SoundDuration":105887,"Delta":141660390},{"NoteNumber":45,"Velocity":77,"Duration":158541,"SoundDuration":158541,"Delta":141766277},{"NoteNumber":53,"Velocity":54,"Duration":105307,"SoundDuration":105307,"Delta":141872164},{"NoteNumber":45,"Velocity":60,"Duration":105307,"SoundDuration":105307,"Delta":141977472},{"NoteNumber":65,"Velocity":63,"Duration":628397,"SoundDuration":628397,"Delta":142082779},{"NoteNumber":69,"Velocity":63,"Duration":628397,"SoundDuration":628397,"Delta":142082779},{"NoteNumber":77,"Velocity":74,"Duration":628397,"SoundDuration":628397,"Delta":142082779},{"NoteNumber":53,"Velocity":54,"Duration":105307,"SoundDuration":105307,"Delta":142082779},{"NoteNumber":45,"Velocity":61,"Duration":105020,"SoundDuration":105020,"Delta":142188087},{"NoteNumber":53,"Velocity":55,"Duration":104734,"SoundDuration":104734,"Delta":142293108},{"NoteNumber":43,"Velocity":78,"Duration":157100,"SoundDuration":157100,"Delta":142397842},{"NoteNumber":52,"Velocity":57,"Duration":104444,"SoundDuration":104444,"Delta":142502576},{"NoteNumber":43,"Velocity":63,"Duration":104155,"SoundDuration":104155,"Delta":142607021},{"NoteNumber":67,"Velocity":65,"Duration":622135,"SoundDuration":622135,"Delta":142711176},{"NoteNumber":76,"Velocity":65,"Duration":622135,"SoundDuration":622135,"Delta":142711176},{"NoteNumber":79,"Velocity":77,"Duration":622135,"SoundDuration":622135,"Delta":142711176},{"NoteNumber":52,"Velocity":56,"Duration":104155,"SoundDuration":104155,"Delta":142711176},{"NoteNumber":43,"Velocity":63,"Duration":104155,"SoundDuration":104155,"Delta":142815332},{"NoteNumber":52,"Velocity":57,"Duration":103594,"SoundDuration":103594,"Delta":142919488},{"NoteNumber":41,"Velocity":80,"Duration":155391,"SoundDuration":155391,"Delta":143023083},{"NoteNumber":50,"Velocity":58,"Duration":103594,"SoundDuration":103594,"Delta":143126677},{"NoteNumber":41,"Velocity":63,"Duration":103039,"SoundDuration":103039,"Delta":143230272},{"NoteNumber":69,"Velocity":69,"Duration":616044,"SoundDuration":616044,"Delta":143333312},{"NoteNumber":77,"Velocity":69,"Duration":616044,"SoundDuration":616044,"Delta":143333312},{"NoteNumber":81,"Velocity":81,"Duration":616044,"SoundDuration":616044,"Delta":143333312},{"NoteNumber":50,"Velocity":58,"Duration":103039,"SoundDuration":103039,"Delta":143333312},{"NoteNumber":41,"Velocity":64,"Duration":103039,"SoundDuration":103039,"Delta":143436351},{"NoteNumber":50,"Velocity":60,"Duration":102765,"SoundDuration":102765,"Delta":143539391},{"NoteNumber":40,"Velocity":81,"Duration":153735,"SoundDuration":153735,"Delta":143642156},{"NoteNumber":49,"Velocity":61,"Duration":102490,"SoundDuration":102490,"Delta":143744647},{"NoteNumber":40,"Velocity":65,"Duration":102218,"SoundDuration":102218,"Delta":143847137},{"NoteNumber":69,"Velocity":72,"Duration":611963,"SoundDuration":611963,"Delta":143949356},{"NoteNumber":79,"Velocity":72,"Duration":611963,"SoundDuration":611963,"Delta":143949356},{"NoteNumber":81,"Velocity":84,"Duration":611963,"SoundDuration":611963,"Delta":143949356},{"NoteNumber":49,"Velocity":59,"Duration":101947,"SoundDuration":101947,"Delta":143949356},{"NoteNumber":40,"Velocity":64,"Duration":101947,"SoundDuration":101947,"Delta":144051303},{"NoteNumber":49,"Velocity":60,"Duration":101678,"SoundDuration":101678,"Delta":144153250},{"NoteNumber":38,"Velocity":82,"Duration":202619,"SoundDuration":202619,"Delta":144254929},{"NoteNumber":45,"Velocity":75,"Duration":101409,"SoundDuration":101409,"Delta":144254929},{"NoteNumber":41,"Velocity":64,"Duration":101409,"SoundDuration":101409,"Delta":144254929},{"NoteNumber":50,"Velocity":63,"Duration":102490,"SoundDuration":102490,"Delta":144356338},{"NoteNumber":45,"Velocity":57,"Duration":102490,"SoundDuration":102490,"Delta":144458829},{"NoteNumber":38,"Velocity":57,"Duration":102490,"SoundDuration":102490,"Delta":144458829},{"NoteNumber":41,"Velocity":66,"Duration":102490,"SoundDuration":102490,"Delta":144458829},{"NoteNumber":89,"Velocity":94,"Duration":616219,"SoundDuration":616219,"Delta":144561319},{"NoteNumber":81,"Velocity":79,"Duration":616219,"SoundDuration":616219,"Delta":144561319},{"NoteNumber":77,"Velocity":77,"Duration":616219,"SoundDuration":616219,"Delta":144561319},{"NoteNumber":50,"Velocity":62,"Duration":101950,"SoundDuration":101950,"Delta":144561319},{"NoteNumber":45,"Velocity":63,"Duration":101409,"SoundDuration":101409,"Delta":144663270},{"NoteNumber":38,"Velocity":63,"Duration":101409,"SoundDuration":101409,"Delta":144663270},{"NoteNumber":41,"Velocity":65,"Duration":101409,"SoundDuration":101409,"Delta":144663270},{"NoteNumber":50,"Velocity":62,"Duration":101678,"SoundDuration":101678,"Delta":144764679},{"NoteNumber":37,"Velocity":84,"Duration":205270,"SoundDuration":205270,"Delta":144866358},{"NoteNumber":45,"Velocity":77,"Duration":101947,"SoundDuration":101947,"Delta":144866358},{"NoteNumber":40,"Velocity":77,"Duration":101947,"SoundDuration":101947,"Delta":144866358},{"NoteNumber":49,"Velocity":63,"Duration":103323,"SoundDuration":103323,"Delta":144968305},{"NoteNumber":45,"Velocity":67,"Duration":105910,"SoundDuration":105910,"Delta":145071628},{"NoteNumber":37,"Velocity":67,"Duration":105910,"SoundDuration":105910,"Delta":145071628},{"NoteNumber":40,"Velocity":67,"Duration":105910,"SoundDuration":105910,"Delta":145071628},{"NoteNumber":88,"Velocity":94,"Duration":420555,"SoundDuration":420555,"Delta":145177539},{"NoteNumber":81,"Velocity":78,"Duration":420555,"SoundDuration":420555,"Delta":145177539},{"NoteNumber":76,"Velocity":74,"Duration":420555,"SoundDuration":420555,"Delta":145177539},{"NoteNumber":49,"Velocity":62,"Duration":130378,"SoundDuration":130378,"Delta":145177539},{"NoteNumber":40,"Velocity":66,"Duration":130378,"SoundDuration":130378,"Delta":145307917},{"NoteNumber":37,"Velocity":67,"Duration":130378,"SoundDuration":130378,"Delta":145307917},{"NoteNumber":45,"Velocity":66,"Duration":130378,"SoundDuration":130378,"Delta":145307917},{"NoteNumber":49,"Velocity":63,"Duration":159799,"SoundDuration":159799,"Delta":145438295},{"NoteNumber":36,"Velocity":79,"Duration":63602,"SoundDuration":63602,"Delta":145470890},{"NoteNumber":48,"Velocity":79,"Duration":63602,"SoundDuration":63602,"Delta":145534492},{"NoteNumber":75,"Velocity":65,"Duration":89306,"SoundDuration":89306,"Delta":145598095},{"NoteNumber":77,"Velocity":65,"Duration":89306,"SoundDuration":89306,"Delta":145598095},{"NoteNumber":81,"Velocity":78,"Duration":89306,"SoundDuration":89306,"Delta":145598095},{"NoteNumber":60,"Velocity":92,"Duration":1398621,"SoundDuration":1398621,"Delta":145598095},{"NoteNumber":87,"Velocity":65,"Duration":89307,"SoundDuration":89307,"Delta":145687402},{"NoteNumber":75,"Velocity":55,"Duration":89306,"SoundDuration":89306,"Delta":145776709},{"NoteNumber":77,"Velocity":55,"Duration":89306,"SoundDuration":89306,"Delta":145776709},{"NoteNumber":81,"Velocity":65,"Duration":89306,"SoundDuration":89306,"Delta":145776709},{"NoteNumber":87,"Velocity":63,"Duration":88919,"SoundDuration":88919,"Delta":145866016},{"NoteNumber":75,"Velocity":54,"Duration":88725,"SoundDuration":88725,"Delta":145954935},{"NoteNumber":77,"Velocity":54,"Duration":88725,"SoundDuration":88725,"Delta":145954935},{"NoteNumber":81,"Velocity":64,"Duration":88725,"SoundDuration":88725,"Delta":145954935},{"NoteNumber":87,"Velocity":63,"Duration":88725,"SoundDuration":88725,"Delta":146043661},{"NoteNumber":75,"Velocity":54,"Duration":88152,"SoundDuration":88152,"Delta":146132387},{"NoteNumber":77,"Velocity":54,"Duration":88152,"SoundDuration":88152,"Delta":146132387},{"NoteNumber":81,"Velocity":64,"Duration":88152,"SoundDuration":88152,"Delta":146132387},{"NoteNumber":87,"Velocity":63,"Duration":88152,"SoundDuration":88152,"Delta":146220539},{"NoteNumber":75,"Velocity":56,"Duration":88035,"SoundDuration":88035,"Delta":146308692},{"NoteNumber":77,"Velocity":56,"Duration":88035,"SoundDuration":88035,"Delta":146308692},{"NoteNumber":81,"Velocity":68,"Duration":88035,"SoundDuration":88035,"Delta":146308692},{"NoteNumber":87,"Velocity":61,"Duration":86707,"SoundDuration":86707,"Delta":146396727},{"NoteNumber":75,"Velocity":49,"Duration":85229,"SoundDuration":85229,"Delta":146483434},{"NoteNumber":77,"Velocity":49,"Duration":85229,"SoundDuration":85229,"Delta":146483434},{"NoteNumber":81,"Velocity":58,"Duration":85229,"SoundDuration":85229,"Delta":146483434},{"NoteNumber":87,"Velocity":58,"Duration":83647,"SoundDuration":83647,"Delta":146568663},{"NoteNumber":75,"Velocity":48,"Duration":84752,"SoundDuration":84752,"Delta":146652311},{"NoteNumber":77,"Velocity":48,"Duration":84752,"SoundDuration":84752,"Delta":146652311},{"NoteNumber":81,"Velocity":57,"Duration":84752,"SoundDuration":84752,"Delta":146652311},{"NoteNumber":87,"Velocity":58,"Duration":85714,"SoundDuration":85714,"Delta":146737064},{"NoteNumber":75,"Velocity":47,"Duration":86341,"SoundDuration":86341,"Delta":146822778},{"NoteNumber":77,"Velocity":47,"Duration":86341,"SoundDuration":86341,"Delta":146822778},{"NoteNumber":81,"Velocity":57,"Duration":86341,"SoundDuration":86341,"Delta":146822778},{"NoteNumber":87,"Velocity":59,"Duration":87596,"SoundDuration":87596,"Delta":146909119},{"NoteNumber":35,"Velocity":79,"Duration":43798,"SoundDuration":43798,"Delta":146909119},{"NoteNumber":47,"Velocity":79,"Duration":43798,"SoundDuration":43798,"Delta":146952918},{"NoteNumber":75,"Velocity":61,"Duration":83351,"SoundDuration":83351,"Delta":146996716},{"NoteNumber":77,"Velocity":61,"Duration":83351,"SoundDuration":83351,"Delta":146996716},{"NoteNumber":81,"Velocity":72,"Duration":83351,"SoundDuration":83351,"Delta":146996716},{"NoteNumber":59,"Velocity":92,"Duration":666815,"SoundDuration":666815,"Delta":146996716},{"NoteNumber":87,"Velocity":62,"Duration":83351,"SoundDuration":83351,"Delta":147080068},{"NoteNumber":75,"Velocity":50,"Duration":83351,"SoundDuration":83351,"Delta":147163420},{"NoteNumber":77,"Velocity":50,"Duration":83351,"SoundDuration":83351,"Delta":147163420},{"NoteNumber":81,"Velocity":60,"Duration":83351,"SoundDuration":83351,"Delta":147163420},{"NoteNumber":87,"Velocity":62,"Duration":83351,"SoundDuration":83351,"Delta":147246771},{"NoteNumber":75,"Velocity":50,"Duration":83351,"SoundDuration":83351,"Delta":147330123},{"NoteNumber":77,"Velocity":50,"Duration":83351,"SoundDuration":83351,"Delta":147330123},{"NoteNumber":81,"Velocity":60,"Duration":83351,"SoundDuration":83351,"Delta":147330123},{"NoteNumber":87,"Velocity":62,"Duration":83351,"SoundDuration":83351,"Delta":147413475},{"NoteNumber":75,"Velocity":50,"Duration":83351,"SoundDuration":83351,"Delta":147496827},{"NoteNumber":77,"Velocity":50,"Duration":83351,"SoundDuration":83351,"Delta":147496827},{"NoteNumber":81,"Velocity":60,"Duration":83351,"SoundDuration":83351,"Delta":147496827},{"NoteNumber":87,"Velocity":62,"Duration":83351,"SoundDuration":83351,"Delta":147580179},{"NoteNumber":81,"Velocity":83,"Duration":214277,"SoundDuration":214277,"Delta":147663531},{"NoteNumber":75,"Velocity":55,"Duration":108495,"SoundDuration":108495,"Delta":147663531},{"NoteNumber":77,"Velocity":66,"Duration":108495,"SoundDuration":108495,"Delta":147663531},{"NoteNumber":60,"Velocity":75,"Duration":650970,"SoundDuration":650970,"Delta":147663531},{"NoteNumber":72,"Velocity":75,"Duration":650970,"SoundDuration":650970,"Delta":147663531},{"NoteNumber":87,"Velocity":61,"Duration":108495,"SoundDuration":108495,"Delta":147772026},{"NoteNumber":75,"Velocity":55,"Duration":108495,"SoundDuration":108495,"Delta":147880521},{"NoteNumber":77,"Velocity":55,"Duration":108495,"SoundDuration":108495,"Delta":147880521},{"NoteNumber":81,"Velocity":66,"Duration":108495,"SoundDuration":108495,"Delta":147880521},{"NoteNumber":87,"Velocity":61,"Duration":108495,"SoundDuration":108495,"Delta":147989016},{"NoteNumber":75,"Velocity":56,"Duration":108495,"SoundDuration":108495,"Delta":148097511},{"NoteNumber":77,"Velocity":56,"Duration":108495,"SoundDuration":108495,"Delta":148097511},{"NoteNumber":81,"Velocity":67,"Duration":108495,"SoundDuration":108495,"Delta":148097511},{"NoteNumber":87,"Velocity":62,"Duration":108495,"SoundDuration":108495,"Delta":148206007},{"NoteNumber":83,"Velocity":88,"Duration":219493,"SoundDuration":219493,"Delta":148314502},{"NoteNumber":75,"Velocity":57,"Duration":111135,"SoundDuration":111135,"Delta":148314502},{"NoteNumber":77,"Velocity":68,"Duration":111135,"SoundDuration":111135,"Delta":148314502},{"NoteNumber":59,"Velocity":79,"Duration":666815,"SoundDuration":666815,"Delta":148314502},{"NoteNumber":71,"Velocity":79,"Duration":666815,"SoundDuration":666815,"Delta":148314502},{"NoteNumber":87,"Velocity":63,"Duration":111135,"SoundDuration":111135,"Delta":148425638},{"NoteNumber":75,"Velocity":58,"Duration":111135,"SoundDuration":111135,"Delta":148536773},{"NoteNumber":77,"Velocity":58,"Duration":111135,"SoundDuration":111135,"Delta":148536773},{"NoteNumber":83,"Velocity":69,"Duration":111135,"SoundDuration":111135,"Delta":148536773},{"NoteNumber":87,"Velocity":63,"Duration":111135,"SoundDuration":111135,"Delta":148647909},{"NoteNumber":75,"Velocity":58,"Duration":111135,"SoundDuration":111135,"Delta":148759045},{"NoteNumber":77,"Velocity":58,"Duration":111135,"SoundDuration":111135,"Delta":148759045},{"NoteNumber":83,"Velocity":69,"Duration":111135,"SoundDuration":111135,"Delta":148759045},{"NoteNumber":87,"Velocity":63,"Duration":111135,"SoundDuration":111135,"Delta":148870181},{"NoteNumber":84,"Velocity":91,"Duration":219493,"SoundDuration":219493,"Delta":148981317},{"NoteNumber":75,"Velocity":59,"Duration":111135,"SoundDuration":111135,"Delta":148981317},{"NoteNumber":77,"Velocity":70,"Duration":111135,"SoundDuration":111135,"Delta":148981317},{"NoteNumber":57,"Velocity":82,"Duration":686963,"SoundDuration":686963,"Delta":148981317},{"NoteNumber":69,"Velocity":82,"Duration":686963,"SoundDuration":686963,"Delta":148981317},{"NoteNumber":87,"Velocity":64,"Duration":111135,"SoundDuration":111135,"Delta":149092453},{"NoteNumber":75,"Velocity":60,"Duration":111135,"SoundDuration":111135,"Delta":149203588},{"NoteNumber":77,"Velocity":60,"Duration":111135,"SoundDuration":111135,"Delta":149203588},{"NoteNumber":84,"Velocity":71,"Duration":111135,"SoundDuration":111135,"Delta":149203588},{"NoteNumber":87,"Velocity":64,"Duration":115403,"SoundDuration":115403,"Delta":149314724},{"NoteNumber":75,"Velocity":61,"Duration":119076,"SoundDuration":119076,"Delta":149430128},{"NoteNumber":77,"Velocity":61,"Duration":119076,"SoundDuration":119076,"Delta":149430128},{"NoteNumber":84,"Velocity":72,"Duration":119076,"SoundDuration":119076,"Delta":149430128},{"NoteNumber":87,"Velocity":65,"Duration":119076,"SoundDuration":119076,"Delta":149549204},{"NoteNumber":76,"Velocity":62,"Duration":107863,"SoundDuration":107863,"Delta":149668280},{"NoteNumber":80,"Velocity":72,"Duration":107863,"SoundDuration":107863,"Delta":149668280},{"NoteNumber":64,"Velocity":82,"Duration":659009,"SoundDuration":659009,"Delta":149668280},{"NoteNumber":56,"Velocity":76,"Duration":161794,"SoundDuration":161794,"Delta":149668280},{"NoteNumber":88,"Velocity":67,"Duration":107863,"SoundDuration":107863,"Delta":149776143},{"NoteNumber":76,"Velocity":63,"Duration":107863,"SoundDuration":107863,"Delta":149884006},{"NoteNumber":80,"Velocity":63,"Duration":107863,"SoundDuration":107863,"Delta":149884006},{"NoteNumber":88,"Velocity":67,"Duration":111806,"SoundDuration":111806,"Delta":149991870},{"NoteNumber":40,"Velocity":63,"Duration":167710,"SoundDuration":167710,"Delta":149991870},{"NoteNumber":76,"Velocity":63,"Duration":111806,"SoundDuration":111806,"Delta":150103676},{"NoteNumber":80,"Velocity":63,"Duration":111806,"SoundDuration":111806,"Delta":150103676},{"NoteNumber":88,"Velocity":68,"Duration":111806,"SoundDuration":111806,"Delta":150215483},{"NoteNumber":84,"Velocity":91,"Duration":191617,"SoundDuration":191617,"Delta":150327290},{"NoteNumber":75,"Velocity":62,"Duration":97021,"SoundDuration":97021,"Delta":150327290},{"NoteNumber":63,"Velocity":84,"Duration":612746,"SoundDuration":612746,"Delta":150327290},{"NoteNumber":60,"Velocity":74,"Duration":145532,"SoundDuration":145532,"Delta":150327290},{"NoteNumber":87,"Velocity":67,"Duration":97021,"SoundDuration":97021,"Delta":150424312},{"NoteNumber":75,"Velocity":63,"Duration":97021,"SoundDuration":97021,"Delta":150521333},{"NoteNumber":84,"Velocity":63,"Duration":97021,"SoundDuration":97021,"Delta":150521333},{"NoteNumber":87,"Velocity":67,"Duration":107227,"SoundDuration":107227,"Delta":150618355},{"NoteNumber":52,"Velocity":63,"Duration":160840,"SoundDuration":160840,"Delta":150618355},{"NoteNumber":75,"Velocity":63,"Duration":107227,"SoundDuration":107227,"Delta":150725582},{"NoteNumber":84,"Velocity":63,"Duration":107227,"SoundDuration":107227,"Delta":150725582},{"NoteNumber":87,"Velocity":68,"Duration":107227,"SoundDuration":107227,"Delta":150832809},{"NoteNumber":83,"Velocity":90,"Duration":197895,"SoundDuration":197895,"Delta":150940036},{"NoteNumber":74,"Velocity":62,"Duration":100200,"SoundDuration":100200,"Delta":150940036},{"NoteNumber":62,"Velocity":83,"Duration":622282,"SoundDuration":622282,"Delta":150940036},{"NoteNumber":59,"Velocity":75,"Duration":150300,"SoundDuration":150300,"Delta":150940036},{"NoteNumber":86,"Velocity":67,"Duration":100200,"SoundDuration":100200,"Delta":151040236},{"NoteNumber":74,"Velocity":63,"Duration":100200,"SoundDuration":100200,"Delta":151140437},{"NoteNumber":83,"Velocity":63,"Duration":100200,"SoundDuration":100200,"Delta":151140437},{"NoteNumber":86,"Velocity":67,"Duration":107227,"SoundDuration":107227,"Delta":151240637},{"NoteNumber":40,"Velocity":64,"Duration":160840,"SoundDuration":160840,"Delta":151240637},{"NoteNumber":74,"Velocity":63,"Duration":107227,"SoundDuration":107227,"Delta":151347864},{"NoteNumber":83,"Velocity":63,"Duration":107227,"SoundDuration":107227,"Delta":151347864},{"NoteNumber":86,"Velocity":68,"Duration":107227,"SoundDuration":107227,"Delta":151455091},{"NoteNumber":82,"Velocity":90,"Duration":204599,"SoundDuration":204599,"Delta":151562319},{"NoteNumber":73,"Velocity":62,"Duration":103594,"SoundDuration":103594,"Delta":151562319},{"NoteNumber":61,"Velocity":82,"Duration":634373,"SoundDuration":634373,"Delta":151562319},{"NoteNumber":58,"Velocity":75,"Duration":155392,"SoundDuration":155392,"Delta":151562319},{"NoteNumber":85,"Velocity":67,"Duration":103594,"SoundDuration":103594,"Delta":151665913},{"NoteNumber":73,"Velocity":63,"Duration":103594,"SoundDuration":103594,"Delta":151769508},{"NoteNumber":82,"Velocity":63,"Duration":103594,"SoundDuration":103594,"Delta":151769508},{"NoteNumber":85,"Velocity":67,"Duration":107863,"SoundDuration":107863,"Delta":151873103},{"NoteNumber":52,"Velocity":64,"Duration":161794,"SoundDuration":161794,"Delta":151873103},{"NoteNumber":73,"Velocity":63,"Duration":107863,"SoundDuration":107863,"Delta":151980966},{"NoteNumber":82,"Velocity":63,"Duration":107863,"SoundDuration":107863,"Delta":151980966},{"NoteNumber":85,"Velocity":68,"Duration":107863,"SoundDuration":107863,"Delta":152088829},{"NoteNumber":81,"Velocity":88,"Duration":205750,"SoundDuration":205750,"Delta":152196692},{"NoteNumber":72,"Velocity":62,"Duration":104177,"SoundDuration":104177,"Delta":152196692},{"NoteNumber":60,"Velocity":81,"Duration":638018,"SoundDuration":638018,"Delta":152196692},{"NoteNumber":51,"Velocity":77,"Duration":156266,"SoundDuration":156266,"Delta":152196692},{"NoteNumber":57,"Velocity":77,"Duration":156266,"SoundDuration":156266,"Delta":152196692},{"NoteNumber":84,"Velocity":67,"Duration":104177,"SoundDuration":104177,"Delta":152300870},{"NoteNumber":72,"Velocity":63,"Duration":104177,"SoundDuration":104177,"Delta":152405047},{"NoteNumber":81,"Velocity":63,"Duration":104177,"SoundDuration":104177,"Delta":152405047},{"NoteNumber":84,"Velocity":67,"Duration":108495,"SoundDuration":108495,"Delta":152509225},{"NoteNumber":40,"Velocity":64,"Duration":162742,"SoundDuration":162742,"Delta":152509225},{"NoteNumber":72,"Velocity":63,"Duration":108495,"SoundDuration":108495,"Delta":152617720},{"NoteNumber":81,"Velocity":63,"Duration":108495,"SoundDuration":108495,"Delta":152617720},{"NoteNumber":84,"Velocity":68,"Duration":108495,"SoundDuration":108495,"Delta":152726215},{"NoteNumber":80,"Velocity":87,"Duration":206936,"SoundDuration":206936,"Delta":152834710},{"NoteNumber":71,"Velocity":62,"Duration":104777,"SoundDuration":104777,"Delta":152834710},{"NoteNumber":59,"Velocity":81,"Duration":558447,"SoundDuration":558447,"Delta":152834710},{"NoteNumber":52,"Velocity":67,"Duration":157166,"SoundDuration":157166,"Delta":152834710},{"NoteNumber":56,"Velocity":80,"Duration":157166,"SoundDuration":157166,"Delta":152834710},{"NoteNumber":83,"Velocity":67,"Duration":104777,"SoundDuration":104777,"Delta":152939488},{"NoteNumber":71,"Velocity":63,"Duration":104777,"SoundDuration":104777,"Delta":153044266},{"NoteNumber":80,"Velocity":63,"Duration":104777,"SoundDuration":104777,"Delta":153044266},{"NoteNumber":83,"Velocity":67,"Duration":108495,"SoundDuration":108495,"Delta":153149044},{"NoteNumber":71,"Velocity":63,"Duration":108495,"SoundDuration":108495,"Delta":153257539},{"NoteNumber":80,"Velocity":63,"Duration":108495,"SoundDuration":108495,"Delta":153257539},{"NoteNumber":83,"Velocity":68,"Duration":148837,"SoundDuration":148837,"Delta":153366034},{"NoteNumber":37,"Velocity":79,"Duration":60856,"SoundDuration":60856,"Delta":153393158},{"NoteNumber":49,"Velocity":79,"Duration":60856,"SoundDuration":60856,"Delta":153454015},{"NoteNumber":76,"Velocity":65,"Duration":88766,"SoundDuration":88766,"Delta":153514871},{"NoteNumber":79,"Velocity":65,"Duration":88766,"SoundDuration":88766,"Delta":153514871},{"NoteNumber":82,"Velocity":78,"Duration":88766,"SoundDuration":88766,"Delta":153514871},{"NoteNumber":61,"Velocity":92,"Duration":1384843,"SoundDuration":1384843,"Delta":153514871},{"NoteNumber":88,"Velocity":65,"Duration":87211,"SoundDuration":87211,"Delta":153603638},{"NoteNumber":76,"Velocity":55,"Duration":85716,"SoundDuration":85716,"Delta":153690849},{"NoteNumber":79,"Velocity":55,"Duration":85716,"SoundDuration":85716,"Delta":153690849},{"NoteNumber":82,"Velocity":65,"Duration":85716,"SoundDuration":85716,"Delta":153690849},{"NoteNumber":88,"Velocity":63,"Duration":84114,"SoundDuration":84114,"Delta":153776565},{"NoteNumber":76,"Velocity":54,"Duration":84428,"SoundDuration":84428,"Delta":153860680},{"NoteNumber":79,"Velocity":54,"Duration":84428,"SoundDuration":84428,"Delta":153860680},{"NoteNumber":82,"Velocity":64,"Duration":84428,"SoundDuration":84428,"Delta":153860680},{"NoteNumber":88,"Velocity":63,"Duration":85066,"SoundDuration":85066,"Delta":153945108},{"NoteNumber":76,"Velocity":54,"Duration":85878,"SoundDuration":85878,"Delta":154030175},{"NoteNumber":79,"Velocity":54,"Duration":85878,"SoundDuration":85878,"Delta":154030175},{"NoteNumber":82,"Velocity":64,"Duration":85878,"SoundDuration":85878,"Delta":154030175},{"NoteNumber":88,"Velocity":63,"Duration":86206,"SoundDuration":86206,"Delta":154116053},{"NoteNumber":76,"Velocity":56,"Duration":86206,"SoundDuration":86206,"Delta":154202260},{"NoteNumber":79,"Velocity":56,"Duration":86206,"SoundDuration":86206,"Delta":154202260},{"NoteNumber":82,"Velocity":68,"Duration":86206,"SoundDuration":86206,"Delta":154202260},{"NoteNumber":88,"Velocity":61,"Duration":87133,"SoundDuration":87133,"Delta":154288467},{"NoteNumber":76,"Velocity":49,"Duration":87596,"SoundDuration":87596,"Delta":154375600},{"NoteNumber":79,"Velocity":49,"Duration":87596,"SoundDuration":87596,"Delta":154375600},{"NoteNumber":82,"Velocity":58,"Duration":87596,"SoundDuration":87596,"Delta":154375600},{"NoteNumber":88,"Velocity":58,"Duration":87596,"SoundDuration":87596,"Delta":154463197},{"NoteNumber":76,"Velocity":48,"Duration":87047,"SoundDuration":87047,"Delta":154550793},{"NoteNumber":79,"Velocity":48,"Duration":87047,"SoundDuration":87047,"Delta":154550793},{"NoteNumber":82,"Velocity":57,"Duration":87047,"SoundDuration":87047,"Delta":154550793},{"NoteNumber":88,"Velocity":58,"Duration":87047,"SoundDuration":87047,"Delta":154637840},{"NoteNumber":76,"Velocity":47,"Duration":87230,"SoundDuration":87230,"Delta":154724888},{"NoteNumber":79,"Velocity":47,"Duration":87230,"SoundDuration":87230,"Delta":154724888},{"NoteNumber":82,"Velocity":57,"Duration":87230,"SoundDuration":87230,"Delta":154724888},{"NoteNumber":88,"Velocity":59,"Duration":87596,"SoundDuration":87596,"Delta":154812118},{"NoteNumber":36,"Velocity":79,"Duration":43798,"SoundDuration":43798,"Delta":154812118},{"NoteNumber":48,"Velocity":79,"Duration":43798,"SoundDuration":43798,"Delta":154855916},{"NoteNumber":76,"Velocity":61,"Duration":83351,"SoundDuration":83351,"Delta":154899715},{"NoteNumber":79,"Velocity":61,"Duration":83351,"SoundDuration":83351,"Delta":154899715},{"NoteNumber":82,"Velocity":72,"Duration":83351,"SoundDuration":83351,"Delta":154899715},{"NoteNumber":60,"Velocity":92,"Duration":666815,"SoundDuration":666815,"Delta":154899715},{"NoteNumber":88,"Velocity":62,"Duration":83351,"SoundDuration":83351,"Delta":154983066},{"NoteNumber":76,"Velocity":50,"Duration":83351,"SoundDuration":83351,"Delta":155066418},{"NoteNumber":79,"Velocity":50,"Duration":83351,"SoundDuration":83351,"Delta":155066418},{"NoteNumber":82,"Velocity":60,"Duration":83351,"SoundDuration":83351,"Delta":155066418},{"NoteNumber":88,"Velocity":62,"Duration":83351,"SoundDuration":83351,"Delta":155149770},{"NoteNumber":76,"Velocity":50,"Duration":83351,"SoundDuration":83351,"Delta":155233122},{"NoteNumber":79,"Velocity":50,"Duration":83351,"SoundDuration":83351,"Delta":155233122},{"NoteNumber":82,"Velocity":60,"Duration":83351,"SoundDuration":83351,"Delta":155233122},{"NoteNumber":88,"Velocity":62,"Duration":83351,"SoundDuration":83351,"Delta":155316474},{"NoteNumber":76,"Velocity":50,"Duration":83351,"SoundDuration":83351,"Delta":155399826},{"NoteNumber":79,"Velocity":50,"Duration":83351,"SoundDuration":83351,"Delta":155399826},{"NoteNumber":82,"Velocity":60,"Duration":83351,"SoundDuration":83351,"Delta":155399826},{"NoteNumber":88,"Velocity":62,"Duration":83351,"SoundDuration":83351,"Delta":155483178},{"NoteNumber":82,"Velocity":83,"Duration":214277,"SoundDuration":214277,"Delta":155566530},{"NoteNumber":76,"Velocity":55,"Duration":108495,"SoundDuration":108495,"Delta":155566530},{"NoteNumber":79,"Velocity":66,"Duration":108495,"SoundDuration":108495,"Delta":155566530},{"NoteNumber":61,"Velocity":75,"Duration":650970,"SoundDuration":650970,"Delta":155566530},{"NoteNumber":73,"Velocity":75,"Duration":650970,"SoundDuration":650970,"Delta":155566530},{"NoteNumber":88,"Velocity":61,"Duration":108495,"SoundDuration":108495,"Delta":155675025},{"NoteNumber":76,"Velocity":55,"Duration":108495,"SoundDuration":108495,"Delta":155783520},{"NoteNumber":79,"Velocity":55,"Duration":108495,"SoundDuration":108495,"Delta":155783520},{"NoteNumber":82,"Velocity":66,"Duration":108495,"SoundDuration":108495,"Delta":155783520},{"NoteNumber":88,"Velocity":61,"Duration":108495,"SoundDuration":108495,"Delta":155892015},{"NoteNumber":76,"Velocity":56,"Duration":108495,"SoundDuration":108495,"Delta":156000510},{"NoteNumber":79,"Velocity":56,"Duration":108495,"SoundDuration":108495,"Delta":156000510},{"NoteNumber":82,"Velocity":67,"Duration":108495,"SoundDuration":108495,"Delta":156000510},{"NoteNumber":88,"Velocity":62,"Duration":108495,"SoundDuration":108495,"Delta":156109005},{"NoteNumber":84,"Velocity":88,"Duration":219493,"SoundDuration":219493,"Delta":156217501},{"NoteNumber":76,"Velocity":57,"Duration":111135,"SoundDuration":111135,"Delta":156217501},{"NoteNumber":79,"Velocity":68,"Duration":111135,"SoundDuration":111135,"Delta":156217501},{"NoteNumber":60,"Velocity":79,"Duration":666815,"SoundDuration":666815,"Delta":156217501},{"NoteNumber":72,"Velocity":79,"Duration":666815,"SoundDuration":666815,"Delta":156217501},{"NoteNumber":88,"Velocity":63,"Duration":111135,"SoundDuration":111135,"Delta":156328636},{"NoteNumber":76,"Velocity":58,"Duration":111135,"SoundDuration":111135,"Delta":156439772},{"NoteNumber":79,"Velocity":58,"Duration":111135,"SoundDuration":111135,"Delta":156439772},{"NoteNumber":84,"Velocity":69,"Duration":111135,"SoundDuration":111135,"Delta":156439772},{"NoteNumber":88,"Velocity":63,"Duration":111135,"SoundDuration":111135,"Delta":156550908},{"NoteNumber":76,"Velocity":58,"Duration":111135,"SoundDuration":111135,"Delta":156662044},{"NoteNumber":79,"Velocity":58,"Duration":111135,"SoundDuration":111135,"Delta":156662044},{"NoteNumber":84,"Velocity":69,"Duration":111135,"SoundDuration":111135,"Delta":156662044},{"NoteNumber":88,"Velocity":63,"Duration":111135,"SoundDuration":111135,"Delta":156773180},{"NoteNumber":85,"Velocity":91,"Duration":219493,"SoundDuration":219493,"Delta":156884316},{"NoteNumber":76,"Velocity":59,"Duration":111135,"SoundDuration":111135,"Delta":156884316},{"NoteNumber":79,"Velocity":70,"Duration":111135,"SoundDuration":111135,"Delta":156884316},{"NoteNumber":58,"Velocity":82,"Duration":686963,"SoundDuration":686963,"Delta":156884316},{"NoteNumber":70,"Velocity":82,"Duration":686963,"SoundDuration":686963,"Delta":156884316},{"NoteNumber":88,"Velocity":64,"Duration":111135,"SoundDuration":111135,"Delta":156995451},{"NoteNumber":76,"Velocity":60,"Duration":111135,"SoundDuration":111135,"Delta":157106587},{"NoteNumber":79,"Velocity":60,"Duration":111135,"SoundDuration":111135,"Delta":157106587},{"NoteNumber":85,"Velocity":71,"Duration":111135,"SoundDuration":111135,"Delta":157106587},{"NoteNumber":88,"Velocity":64,"Duration":115403,"SoundDuration":115403,"Delta":157217723},{"NoteNumber":76,"Velocity":61,"Duration":119076,"SoundDuration":119076,"Delta":157333127},{"NoteNumber":79,"Velocity":61,"Duration":119076,"SoundDuration":119076,"Delta":157333127},{"NoteNumber":85,"Velocity":72,"Duration":119076,"SoundDuration":119076,"Delta":157333127},{"NoteNumber":88,"Velocity":65,"Duration":119076,"SoundDuration":119076,"Delta":157452203},{"NoteNumber":77,"Velocity":62,"Duration":107863,"SoundDuration":107863,"Delta":157571279},{"NoteNumber":81,"Velocity":72,"Duration":107863,"SoundDuration":107863,"Delta":157571279},{"NoteNumber":65,"Velocity":82,"Duration":659009,"SoundDuration":659009,"Delta":157571279},{"NoteNumber":57,"Velocity":73,"Duration":161794,"SoundDuration":161794,"Delta":157571279},{"NoteNumber":89,"Velocity":67,"Duration":107863,"SoundDuration":107863,"Delta":157679142},{"NoteNumber":77,"Velocity":63,"Duration":107863,"SoundDuration":107863,"Delta":157787005},{"NoteNumber":81,"Velocity":63,"Duration":107863,"SoundDuration":107863,"Delta":157787005},{"NoteNumber":89,"Velocity":67,"Duration":111806,"SoundDuration":111806,"Delta":157894868},{"NoteNumber":41,"Velocity":63,"Duration":167710,"SoundDuration":167710,"Delta":157894868},{"NoteNumber":77,"Velocity":63,"Duration":111806,"SoundDuration":111806,"Delta":158006675},{"NoteNumber":81,"Velocity":63,"Duration":111806,"SoundDuration":111806,"Delta":158006675},{"NoteNumber":89,"Velocity":68,"Duration":111806,"SoundDuration":111806,"Delta":158118482},{"NoteNumber":85,"Velocity":91,"Duration":201181,"SoundDuration":201181,"Delta":158230289},{"NoteNumber":76,"Velocity":62,"Duration":101864,"SoundDuration":101864,"Delta":158230289},{"NoteNumber":64,"Velocity":84,"Duration":627273,"SoundDuration":627273,"Delta":158230289},{"NoteNumber":61,"Velocity":76,"Duration":152796,"SoundDuration":152796,"Delta":158230289},{"NoteNumber":88,"Velocity":67,"Duration":101864,"SoundDuration":101864,"Delta":158332153},{"NoteNumber":76,"Velocity":63,"Duration":101864,"SoundDuration":101864,"Delta":158434017},{"NoteNumber":85,"Velocity":63,"Duration":101864,"SoundDuration":101864,"Delta":158434017},{"NoteNumber":88,"Velocity":67,"Duration":107227,"SoundDuration":107227,"Delta":158535881},{"NoteNumber":53,"Velocity":63,"Duration":160840,"SoundDuration":160840,"Delta":158535881},{"NoteNumber":76,"Velocity":63,"Duration":107227,"SoundDuration":107227,"Delta":158643108},{"NoteNumber":85,"Velocity":63,"Duration":107227,"SoundDuration":107227,"Delta":158643108},{"NoteNumber":88,"Velocity":68,"Duration":107227,"SoundDuration":107227,"Delta":158750336},{"NoteNumber":84,"Velocity":90,"Duration":203461,"SoundDuration":203461,"Delta":158857563},{"NoteNumber":75,"Velocity":62,"Duration":103018,"SoundDuration":103018,"Delta":158857563},{"NoteNumber":63,"Velocity":83,"Duration":630737,"SoundDuration":630737,"Delta":158857563},{"NoteNumber":60,"Velocity":72,"Duration":154527,"SoundDuration":154527,"Delta":158857563},{"NoteNumber":87,"Velocity":67,"Duration":103018,"SoundDuration":103018,"Delta":158960581},{"NoteNumber":75,"Velocity":63,"Duration":103018,"SoundDuration":103018,"Delta":159063600},{"NoteNumber":84,"Velocity":63,"Duration":103018,"SoundDuration":103018,"Delta":159063600},{"NoteNumber":87,"Velocity":67,"Duration":107227,"SoundDuration":107227,"Delta":159166618},{"NoteNumber":41,"Velocity":64,"Duration":160840,"SoundDuration":160840,"Delta":159166618},{"NoteNumber":75,"Velocity":63,"Duration":107227,"SoundDuration":107227,"Delta":159273845},{"NoteNumber":84,"Velocity":63,"Duration":107227,"SoundDuration":107227,"Delta":159273845},{"NoteNumber":87,"Velocity":68,"Duration":107227,"SoundDuration":107227,"Delta":159381073},{"NoteNumber":83,"Velocity":90,"Duration":204599,"SoundDuration":204599,"Delta":159488300},{"NoteNumber":74,"Velocity":62,"Duration":103594,"SoundDuration":103594,"Delta":159488300},{"NoteNumber":62,"Velocity":82,"Duration":634373,"SoundDuration":634373,"Delta":159488300},{"NoteNumber":59,"Velocity":72,"Duration":155392,"SoundDuration":155392,"Delta":159488300},{"NoteNumber":86,"Velocity":67,"Duration":103594,"SoundDuration":103594,"Delta":159591894},{"NoteNumber":74,"Velocity":63,"Duration":103594,"SoundDuration":103594,"Delta":159695489},{"NoteNumber":83,"Velocity":63,"Duration":103594,"SoundDuration":103594,"Delta":159695489},{"NoteNumber":86,"Velocity":67,"Duration":107863,"SoundDuration":107863,"Delta":159799084},{"NoteNumber":53,"Velocity":64,"Duration":161794,"SoundDuration":161794,"Delta":159799084},{"NoteNumber":74,"Velocity":63,"Duration":107863,"SoundDuration":107863,"Delta":159906947},{"NoteNumber":83,"Velocity":63,"Duration":107863,"SoundDuration":107863,"Delta":159906947},{"NoteNumber":86,"Velocity":68,"Duration":107863,"SoundDuration":107863,"Delta":160014810},{"NoteNumber":82,"Velocity":88,"Duration":205750,"SoundDuration":205750,"Delta":160122673},{"NoteNumber":73,"Velocity":62,"Duration":104177,"SoundDuration":104177,"Delta":160122673},{"NoteNumber":61,"Velocity":81,"Duration":638018,"SoundDuration":638018,"Delta":160122673},{"NoteNumber":52,"Velocity":62,"Duration":156266,"SoundDuration":156266,"Delta":160122673},{"NoteNumber":58,"Velocity":72,"Duration":156266,"SoundDuration":156266,"Delta":160122673},{"NoteNumber":85,"Velocity":67,"Duration":104177,"SoundDuration":104177,"Delta":160226851},{"NoteNumber":73,"Velocity":63,"Duration":104177,"SoundDuration":104177,"Delta":160331028},{"NoteNumber":82,"Velocity":63,"Duration":104177,"SoundDuration":104177,"Delta":160331028},{"NoteNumber":85,"Velocity":67,"Duration":108495,"SoundDuration":108495,"Delta":160435206},{"NoteNumber":41,"Velocity":64,"Duration":162742,"SoundDuration":162742,"Delta":160435206},{"NoteNumber":73,"Velocity":63,"Duration":108495,"SoundDuration":108495,"Delta":160543701},{"NoteNumber":82,"Velocity":63,"Duration":108495,"SoundDuration":108495,"Delta":160543701},{"NoteNumber":85,"Velocity":68,"Duration":108495,"SoundDuration":108495,"Delta":160652196},{"NoteNumber":81,"Velocity":87,"Duration":206936,"SoundDuration":206936,"Delta":160760691},{"NoteNumber":72,"Velocity":62,"Duration":104777,"SoundDuration":104777,"Delta":160760691},{"NoteNumber":60,"Velocity":81,"Duration":680161,"SoundDuration":680161,"Delta":160760691},{"NoteNumber":53,"Velocity":62,"Duration":157166,"SoundDuration":157166,"Delta":160760691},{"NoteNumber":57,"Velocity":72,"Duration":157166,"SoundDuration":157166,"Delta":160760691},{"NoteNumber":84,"Velocity":67,"Duration":104777,"SoundDuration":104777,"Delta":160865469},{"NoteNumber":72,"Velocity":63,"Duration":104777,"SoundDuration":104777,"Delta":160970247},{"NoteNumber":81,"Velocity":63,"Duration":104777,"SoundDuration":104777,"Delta":160970247},{"NoteNumber":84,"Velocity":67,"Duration":108495,"SoundDuration":108495,"Delta":161075025},{"NoteNumber":72,"Velocity":63,"Duration":108495,"SoundDuration":108495,"Delta":161183520},{"NoteNumber":81,"Velocity":63,"Duration":108495,"SoundDuration":108495,"Delta":161183520},{"NoteNumber":84,"Velocity":68,"Duration":148837,"SoundDuration":148837,"Delta":161292015},{"NoteNumber":39,"Velocity":79,"Duration":60856,"SoundDuration":60856,"Delta":161319139},{"NoteNumber":51,"Velocity":79,"Duration":60856,"SoundDuration":60856,"Delta":161379996},{"NoteNumber":78,"Velocity":65,"Duration":88067,"SoundDuration":88067,"Delta":161440853},{"NoteNumber":81,"Velocity":65,"Duration":88067,"SoundDuration":88067,"Delta":161440853},{"NoteNumber":84,"Velocity":78,"Duration":88067,"SoundDuration":88067,"Delta":161440853},{"NoteNumber":63,"Velocity":92,"Duration":1366932,"SoundDuration":1366932,"Delta":161440853},{"NoteNumber":90,"Velocity":65,"Duration":85234,"SoundDuration":85234,"Delta":161528920},{"NoteNumber":78,"Velocity":55,"Duration":82422,"SoundDuration":82422,"Delta":161614154},{"NoteNumber":81,"Velocity":55,"Duration":82422,"SoundDuration":82422,"Delta":161614154},{"NoteNumber":84,"Velocity":65,"Duration":82422,"SoundDuration":82422,"Delta":161614154},{"NoteNumber":90,"Velocity":63,"Duration":82569,"SoundDuration":82569,"Delta":161696577},{"NoteNumber":78,"Velocity":55,"Duration":83488,"SoundDuration":83488,"Delta":161779146},{"NoteNumber":81,"Velocity":55,"Duration":83488,"SoundDuration":83488,"Delta":161779146},{"NoteNumber":84,"Velocity":65,"Duration":83488,"SoundDuration":83488,"Delta":161779146},{"NoteNumber":90,"Velocity":64,"Duration":84428,"SoundDuration":84428,"Delta":161862635},{"NoteNumber":78,"Velocity":55,"Duration":85389,"SoundDuration":85389,"Delta":161947063},{"NoteNumber":81,"Velocity":55,"Duration":85389,"SoundDuration":85389,"Delta":161947063},{"NoteNumber":84,"Velocity":65,"Duration":85389,"SoundDuration":85389,"Delta":161947063},{"NoteNumber":90,"Velocity":64,"Duration":86373,"SoundDuration":86373,"Delta":162032453},{"NoteNumber":78,"Velocity":58,"Duration":87041,"SoundDuration":87041,"Delta":162118826},{"NoteNumber":81,"Velocity":58,"Duration":87041,"SoundDuration":87041,"Delta":162118826},{"NoteNumber":84,"Velocity":70,"Duration":87041,"SoundDuration":87041,"Delta":162118826},{"NoteNumber":90,"Velocity":63,"Duration":85878,"SoundDuration":85878,"Delta":162205867},{"NoteNumber":78,"Velocity":51,"Duration":84747,"SoundDuration":84747,"Delta":162291746},{"NoteNumber":81,"Velocity":51,"Duration":84747,"SoundDuration":84747,"Delta":162291746},{"NoteNumber":84,"Velocity":61,"Duration":84747,"SoundDuration":84747,"Delta":162291746},{"NoteNumber":90,"Velocity":61,"Duration":84271,"SoundDuration":84271,"Delta":162376493},{"NoteNumber":78,"Velocity":50,"Duration":85716,"SoundDuration":85716,"Delta":162460765},{"NoteNumber":81,"Velocity":50,"Duration":85716,"SoundDuration":85716,"Delta":162460765},{"NoteNumber":84,"Velocity":60,"Duration":85716,"SoundDuration":85716,"Delta":162460765},{"NoteNumber":90,"Velocity":61,"Duration":86705,"SoundDuration":86705,"Delta":162546481},{"NoteNumber":78,"Velocity":50,"Duration":87002,"SoundDuration":87002,"Delta":162633186},{"NoteNumber":81,"Velocity":50,"Duration":87002,"SoundDuration":87002,"Delta":162633186},{"NoteNumber":84,"Velocity":60,"Duration":87002,"SoundDuration":87002,"Delta":162633186},{"NoteNumber":90,"Velocity":62,"Duration":87596,"SoundDuration":87596,"Delta":162720188},{"NoteNumber":38,"Velocity":79,"Duration":43798,"SoundDuration":43798,"Delta":162720188},{"NoteNumber":50,"Velocity":79,"Duration":43798,"SoundDuration":43798,"Delta":162763986},{"NoteNumber":78,"Velocity":61,"Duration":83032,"SoundDuration":83032,"Delta":162807785},{"NoteNumber":81,"Velocity":61,"Duration":83032,"SoundDuration":83032,"Delta":162807785},{"NoteNumber":84,"Velocity":72,"Duration":83032,"SoundDuration":83032,"Delta":162807785},{"NoteNumber":62,"Velocity":92,"Duration":655184,"SoundDuration":655184,"Delta":162807785},{"NoteNumber":90,"Velocity":62,"Duration":82267,"SoundDuration":82267,"Delta":162890817},{"NoteNumber":78,"Velocity":50,"Duration":81523,"SoundDuration":81523,"Delta":162973085},{"NoteNumber":81,"Velocity":50,"Duration":81523,"SoundDuration":81523,"Delta":162973085},{"NoteNumber":84,"Velocity":60,"Duration":81523,"SoundDuration":81523,"Delta":162973085},{"NoteNumber":90,"Velocity":62,"Duration":81081,"SoundDuration":81081,"Delta":163054608},{"NoteNumber":78,"Velocity":50,"Duration":81374,"SoundDuration":81374,"Delta":163135689},{"NoteNumber":81,"Velocity":50,"Duration":81374,"SoundDuration":81374,"Delta":163135689},{"NoteNumber":84,"Velocity":60,"Duration":81374,"SoundDuration":81374,"Delta":163135689},{"NoteNumber":90,"Velocity":62,"Duration":81670,"SoundDuration":81670,"Delta":163217064},{"NoteNumber":78,"Velocity":50,"Duration":81967,"SoundDuration":81967,"Delta":163298734},{"NoteNumber":81,"Velocity":50,"Duration":81967,"SoundDuration":81967,"Delta":163298734},{"NoteNumber":84,"Velocity":60,"Duration":81967,"SoundDuration":81967,"Delta":163298734},{"NoteNumber":90,"Velocity":62,"Duration":82267,"SoundDuration":82267,"Delta":163380702},{"NoteNumber":84,"Velocity":83,"Duration":216767,"SoundDuration":216767,"Delta":163462969},{"NoteNumber":78,"Velocity":55,"Duration":110193,"SoundDuration":110193,"Delta":163462969},{"NoteNumber":81,"Velocity":66,"Duration":110193,"SoundDuration":110193,"Delta":163462969},{"NoteNumber":63,"Velocity":75,"Duration":649468,"SoundDuration":649468,"Delta":163462969},{"NoteNumber":75,"Velocity":75,"Duration":649468,"SoundDuration":649468,"Delta":163462969},{"NoteNumber":90,"Velocity":61,"Duration":109291,"SoundDuration":109291,"Delta":163573163},{"NoteNumber":78,"Velocity":55,"Duration":107817,"SoundDuration":107817,"Delta":163682454},{"NoteNumber":81,"Velocity":55,"Duration":107817,"SoundDuration":107817,"Delta":163682454},{"NoteNumber":84,"Velocity":66,"Duration":107817,"SoundDuration":107817,"Delta":163682454},{"NoteNumber":90,"Velocity":61,"Duration":106525,"SoundDuration":106525,"Delta":163790272},{"NoteNumber":78,"Velocity":56,"Duration":107239,"SoundDuration":107239,"Delta":163896797},{"NoteNumber":81,"Velocity":56,"Duration":107239,"SoundDuration":107239,"Delta":163896797},{"NoteNumber":84,"Velocity":67,"Duration":107239,"SoundDuration":107239,"Delta":163896797},{"NoteNumber":90,"Velocity":62,"Duration":108401,"SoundDuration":108401,"Delta":164004036},{"NoteNumber":86,"Velocity":88,"Duration":212786,"SoundDuration":212786,"Delta":164112438},{"NoteNumber":78,"Velocity":57,"Duration":107526,"SoundDuration":107526,"Delta":164112438},{"NoteNumber":81,"Velocity":68,"Duration":107526,"SoundDuration":107526,"Delta":164112438},{"NoteNumber":62,"Velocity":79,"Duration":653113,"SoundDuration":653113,"Delta":164112438},{"NoteNumber":74,"Velocity":79,"Duration":653113,"SoundDuration":653113,"Delta":164112438},{"NoteNumber":90,"Velocity":63,"Duration":107962,"SoundDuration":107962,"Delta":164219965},{"NoteNumber":78,"Velocity":58,"Duration":108548,"SoundDuration":108548,"Delta":164327928},{"NoteNumber":81,"Velocity":58,"Duration":108548,"SoundDuration":108548,"Delta":164327928},{"NoteNumber":86,"Velocity":69,"Duration":108548,"SoundDuration":108548,"Delta":164327928},{"NoteNumber":90,"Velocity":63,"Duration":109141,"SoundDuration":109141,"Delta":164436476},{"NoteNumber":78,"Velocity":58,"Duration":109740,"SoundDuration":109740,"Delta":164545618},{"NoteNumber":81,"Velocity":58,"Duration":109740,"SoundDuration":109740,"Delta":164545618},{"NoteNumber":86,"Velocity":69,"Duration":109740,"SoundDuration":109740,"Delta":164545618},{"NoteNumber":90,"Velocity":63,"Duration":110193,"SoundDuration":110193,"Delta":164655358},{"NoteNumber":87,"Velocity":91,"Duration":219432,"SoundDuration":219432,"Delta":164765551},{"NoteNumber":78,"Velocity":59,"Duration":110804,"SoundDuration":110804,"Delta":164765551},{"NoteNumber":81,"Velocity":70,"Duration":110804,"SoundDuration":110804,"Delta":164765551},{"NoteNumber":60,"Velocity":82,"Duration":688392,"SoundDuration":688392,"Delta":164765551},{"NoteNumber":72,"Velocity":82,"Duration":688392,"SoundDuration":688392,"Delta":164765551},{"NoteNumber":90,"Velocity":64,"Duration":111421,"SoundDuration":111421,"Delta":164876355},{"NoteNumber":78,"Velocity":60,"Duration":112045,"SoundDuration":112045,"Delta":164987777},{"NoteNumber":81,"Velocity":60,"Duration":112045,"SoundDuration":112045,"Delta":164987777},{"NoteNumber":87,"Velocity":71,"Duration":112045,"SoundDuration":112045,"Delta":164987777},{"NoteNumber":90,"Velocity":64,"Duration":115969,"SoundDuration":115969,"Delta":165099823},{"NoteNumber":78,"Velocity":61,"Duration":119076,"SoundDuration":119076,"Delta":165215792},{"NoteNumber":81,"Velocity":61,"Duration":119076,"SoundDuration":119076,"Delta":165215792},{"NoteNumber":87,"Velocity":72,"Duration":119076,"SoundDuration":119076,"Delta":165215792},{"NoteNumber":90,"Velocity":65,"Duration":119076,"SoundDuration":119076,"Delta":165334868},{"NoteNumber":79,"Velocity":62,"Duration":100200,"SoundDuration":100200,"Delta":165453944},{"NoteNumber":83,"Velocity":72,"Duration":100200,"SoundDuration":100200,"Delta":165453944},{"NoteNumber":59,"Velocity":75,"Duration":624190,"SoundDuration":624190,"Delta":165453944},{"NoteNumber":67,"Velocity":82,"Duration":624190,"SoundDuration":624190,"Delta":165453944},{"NoteNumber":55,"Velocity":72,"Duration":150300,"SoundDuration":150300,"Delta":165453944},{"NoteNumber":91,"Velocity":91,"Duration":197895,"SoundDuration":197895,"Delta":165554145},{"NoteNumber":79,"Velocity":63,"Duration":100200,"SoundDuration":100200,"Delta":165654345},{"NoteNumber":83,"Velocity":63,"Duration":100200,"SoundDuration":100200,"Delta":165654345},{"NoteNumber":91,"Velocity":67,"Duration":215726,"SoundDuration":215726,"Delta":165754545},{"NoteNumber":43,"Velocity":63,"Duration":161794,"SoundDuration":161794,"Delta":165754545},{"NoteNumber":79,"Velocity":63,"Duration":107863,"SoundDuration":107863,"Delta":165862408},{"NoteNumber":83,"Velocity":63,"Duration":107863,"SoundDuration":107863,"Delta":165862408},{"NoteNumber":91,"Velocity":68,"Duration":107863,"SoundDuration":107863,"Delta":165970272},{"NoteNumber":86,"Velocity":62,"Duration":74338,"SoundDuration":74338,"Delta":166078135},{"NoteNumber":79,"Velocity":62,"Duration":99117,"SoundDuration":99117,"Delta":166078135},{"NoteNumber":77,"Velocity":62,"Duration":99117,"SoundDuration":99117,"Delta":166078135},{"NoteNumber":65,"Velocity":84,"Duration":619035,"SoundDuration":619035,"Delta":166078135},{"NoteNumber":59,"Velocity":63,"Duration":148676,"SoundDuration":148676,"Delta":166078135},{"NoteNumber":62,"Velocity":72,"Duration":148676,"SoundDuration":148676,"Delta":166078135},{"NoteNumber":89,"Velocity":90,"Duration":195757,"SoundDuration":195757,"Delta":166177253},{"NoteNumber":79,"Velocity":62,"Duration":99117,"SoundDuration":99117,"Delta":166276370},{"NoteNumber":77,"Velocity":63,"Duration":99117,"SoundDuration":99117,"Delta":166276370},{"NoteNumber":86,"Velocity":63,"Duration":99117,"SoundDuration":99117,"Delta":166276370},{"NoteNumber":89,"Velocity":67,"Duration":214454,"SoundDuration":214454,"Delta":166375488},{"NoteNumber":47,"Velocity":63,"Duration":160840,"SoundDuration":160840,"Delta":166375488},{"NoteNumber":79,"Velocity":63,"Duration":107227,"SoundDuration":107227,"Delta":166482715},{"NoteNumber":77,"Velocity":63,"Duration":107227,"SoundDuration":107227,"Delta":166482715},{"NoteNumber":86,"Velocity":63,"Duration":107227,"SoundDuration":107227,"Delta":166482715},{"NoteNumber":89,"Velocity":68,"Duration":107227,"SoundDuration":107227,"Delta":166589943},{"NoteNumber":75,"Velocity":62,"Duration":100200,"SoundDuration":100200,"Delta":166697170},{"NoteNumber":79,"Velocity":62,"Duration":100200,"SoundDuration":100200,"Delta":166697170},{"NoteNumber":63,"Velocity":83,"Duration":622282,"SoundDuration":622282,"Delta":166697170},{"NoteNumber":60,"Velocity":72,"Duration":150300,"SoundDuration":150300,"Delta":166697170},{"NoteNumber":87,"Velocity":90,"Duration":197895,"SoundDuration":197895,"Delta":166797370},{"NoteNumber":75,"Velocity":63,"Duration":100200,"SoundDuration":100200,"Delta":166897570},{"NoteNumber":79,"Velocity":63,"Duration":100200,"SoundDuration":100200,"Delta":166897570},{"NoteNumber":87,"Velocity":67,"Duration":214454,"SoundDuration":214454,"Delta":166997771},{"NoteNumber":48,"Velocity":64,"Duration":160840,"SoundDuration":160840,"Delta":166997771},{"NoteNumber":75,"Velocity":63,"Duration":107227,"SoundDuration":107227,"Delta":167104998},{"NoteNumber":79,"Velocity":63,"Duration":107227,"SoundDuration":107227,"Delta":167104998},{"NoteNumber":87,"Velocity":68,"Duration":107227,"SoundDuration":107227,"Delta":167212225},{"NoteNumber":72,"Velocity":62,"Duration":97021,"SoundDuration":97021,"Delta":167319452},{"NoteNumber":75,"Velocity":62,"Duration":97021,"SoundDuration":97021,"Delta":167319452},{"NoteNumber":60,"Velocity":82,"Duration":590018,"SoundDuration":590018,"Delta":167319452},{"NoteNumber":58,"Velocity":72,"Duration":145532,"SoundDuration":145532,"Delta":167319452},{"NoteNumber":84,"Velocity":88,"Duration":191617,"SoundDuration":191617,"Delta":167416474},{"NoteNumber":72,"Velocity":63,"Duration":97021,"SoundDuration":97021,"Delta":167513495},{"NoteNumber":75,"Velocity":63,"Duration":97021,"SoundDuration":97021,"Delta":167513495},{"NoteNumber":84,"Velocity":67,"Duration":199302,"SoundDuration":199302,"Delta":167610517},{"NoteNumber":46,"Velocity":64,"Duration":149476,"SoundDuration":149476,"Delta":167610517},{"NoteNumber":72,"Velocity":63,"Duration":99651,"SoundDuration":99651,"Delta":167710168},{"NoteNumber":75,"Velocity":63,"Duration":99651,"SoundDuration":99651,"Delta":167710168},{"NoteNumber":84,"Velocity":68,"Duration":99651,"SoundDuration":99651,"Delta":167809819},{"NoteNumber":75,"Velocity":62,"Duration":100200,"SoundDuration":100200,"Delta":167909470},{"NoteNumber":79,"Velocity":62,"Duration":100200,"SoundDuration":100200,"Delta":167909470},{"NoteNumber":63,"Velocity":81,"Duration":618565,"SoundDuration":618565,"Delta":167909470},{"NoteNumber":57,"Velocity":62,"Duration":150300,"SoundDuration":150300,"Delta":167909470},{"NoteNumber":60,"Velocity":72,"Duration":150300,"SoundDuration":150300,"Delta":167909470},{"NoteNumber":87,"Velocity":87,"Duration":197895,"SoundDuration":197895,"Delta":168009671},{"NoteNumber":75,"Velocity":63,"Duration":100200,"SoundDuration":100200,"Delta":168109871},{"NoteNumber":79,"Velocity":63,"Duration":100200,"SoundDuration":100200,"Delta":168109871},{"NoteNumber":87,"Velocity":67,"Duration":211976,"SoundDuration":211976,"Delta":168210071},{"NoteNumber":45,"Velocity":64,"Duration":158982,"SoundDuration":158982,"Delta":168210071},{"NoteNumber":75,"Velocity":63,"Duration":105988,"SoundDuration":105988,"Delta":168316060},{"NoteNumber":79,"Velocity":63,"Duration":105988,"SoundDuration":105988,"Delta":168316060},{"NoteNumber":87,"Velocity":68,"Duration":105988,"SoundDuration":105988,"Delta":168422048},{"NoteNumber":72,"Velocity":62,"Duration":101864,"SoundDuration":101864,"Delta":168528036},{"NoteNumber":75,"Velocity":62,"Duration":101864,"SoundDuration":101864,"Delta":168528036},{"NoteNumber":60,"Velocity":81,"Duration":629522,"SoundDuration":629522,"Delta":168528036},{"NoteNumber":55,"Velocity":62,"Duration":152796,"SoundDuration":152796,"Delta":168528036},{"NoteNumber":57,"Velocity":72,"Duration":152796,"SoundDuration":152796,"Delta":168528036},{"NoteNumber":84,"Velocity":87,"Duration":201181,"SoundDuration":201181,"Delta":168629900},{"NoteNumber":72,"Velocity":63,"Duration":101864,"SoundDuration":101864,"Delta":168731765},{"NoteNumber":75,"Velocity":63,"Duration":101864,"SoundDuration":101864,"Delta":168731765},{"NoteNumber":84,"Velocity":67,"Duration":216990,"SoundDuration":216990,"Delta":168833629},{"NoteNumber":43,"Velocity":64,"Duration":162742,"SoundDuration":162742,"Delta":168833629},{"NoteNumber":72,"Velocity":63,"Duration":108495,"SoundDuration":108495,"Delta":168942124},{"NoteNumber":75,"Velocity":63,"Duration":108495,"SoundDuration":108495,"Delta":168942124},{"NoteNumber":84,"Velocity":68,"Duration":106940,"SoundDuration":106940,"Delta":169050619},{"NoteNumber":77,"Velocity":62,"Duration":97532,"SoundDuration":97532,"Delta":169157559},{"NoteNumber":81,"Velocity":72,"Duration":97532,"SoundDuration":97532,"Delta":169157559},{"NoteNumber":57,"Velocity":75,"Duration":594833,"SoundDuration":594833,"Delta":169157559},{"NoteNumber":65,"Velocity":82,"Duration":594833,"SoundDuration":594833,"Delta":169157559},{"NoteNumber":53,"Velocity":72,"Duration":146298,"SoundDuration":146298,"Delta":169157559},{"NoteNumber":89,"Velocity":91,"Duration":192626,"SoundDuration":192626,"Delta":169255092},{"NoteNumber":77,"Velocity":63,"Duration":97532,"SoundDuration":97532,"Delta":169352624},{"NoteNumber":81,"Velocity":63,"Duration":97532,"SoundDuration":97532,"Delta":169352624},{"NoteNumber":89,"Velocity":67,"Duration":201491,"SoundDuration":201491,"Delta":169450157},{"NoteNumber":41,"Velocity":63,"Duration":151118,"SoundDuration":151118,"Delta":169450157},{"NoteNumber":77,"Velocity":63,"Duration":100745,"SoundDuration":100745,"Delta":169550902},{"NoteNumber":81,"Velocity":63,"Duration":100745,"SoundDuration":100745,"Delta":169550902},{"NoteNumber":89,"Velocity":68,"Duration":100745,"SoundDuration":100745,"Delta":169651648},{"NoteNumber":84,"Velocity":62,"Duration":99651,"SoundDuration":99651,"Delta":169752393},{"NoteNumber":75,"Velocity":62,"Duration":99651,"SoundDuration":99651,"Delta":169752393},{"NoteNumber":63,"Velocity":84,"Duration":606267,"SoundDuration":606267,"Delta":169752393},{"NoteNumber":57,"Velocity":63,"Duration":149476,"SoundDuration":149476,"Delta":169752393},{"NoteNumber":60,"Velocity":72,"Duration":149476,"SoundDuration":149476,"Delta":169752393},{"NoteNumber":87,"Velocity":90,"Duration":196811,"SoundDuration":196811,"Delta":169852044},{"NoteNumber":75,"Velocity":63,"Duration":99651,"SoundDuration":99651,"Delta":169951696},{"NoteNumber":84,"Velocity":63,"Duration":99651,"SoundDuration":99651,"Delta":169951696},{"NoteNumber":87,"Velocity":67,"Duration":204876,"SoundDuration":204876,"Delta":170051347},{"NoteNumber":45,"Velocity":63,"Duration":153657,"SoundDuration":153657,"Delta":170051347},{"NoteNumber":75,"Velocity":63,"Duration":102438,"SoundDuration":102438,"Delta":170153785},{"NoteNumber":84,"Velocity":63,"Duration":102438,"SoundDuration":102438,"Delta":170153785},{"NoteNumber":87,"Velocity":68,"Duration":102437,"SoundDuration":102437,"Delta":170256223},{"NoteNumber":74,"Velocity":62,"Duration":96506,"SoundDuration":96506,"Delta":170358661},{"NoteNumber":77,"Velocity":62,"Duration":96506,"SoundDuration":96506,"Delta":170358661},{"NoteNumber":62,"Velocity":83,"Duration":586873,"SoundDuration":586873,"Delta":170358661},{"NoteNumber":58,"Velocity":72,"Duration":144759,"SoundDuration":144759,"Delta":170358661},{"NoteNumber":86,"Velocity":90,"Duration":190600,"SoundDuration":190600,"Delta":170455167},{"NoteNumber":74,"Velocity":63,"Duration":96506,"SoundDuration":96506,"Delta":170551674},{"NoteNumber":77,"Velocity":63,"Duration":96506,"SoundDuration":96506,"Delta":170551674},{"NoteNumber":86,"Velocity":67,"Duration":198235,"SoundDuration":198235,"Delta":170648180},{"NoteNumber":46,"Velocity":64,"Duration":148676,"SoundDuration":148676,"Delta":170648180},{"NoteNumber":74,"Velocity":63,"Duration":99117,"SoundDuration":99117,"Delta":170747298},{"NoteNumber":77,"Velocity":63,"Duration":99117,"SoundDuration":99117,"Delta":170747298},{"NoteNumber":86,"Velocity":68,"Duration":99117,"SoundDuration":99117,"Delta":170846416},{"NoteNumber":70,"Velocity":62,"Duration":99651,"SoundDuration":99651,"Delta":170945534},{"NoteNumber":74,"Velocity":62,"Duration":99651,"SoundDuration":99651,"Delta":170945534},{"NoteNumber":58,"Velocity":82,"Duration":613287,"SoundDuration":613287,"Delta":170945534},{"NoteNumber":57,"Velocity":72,"Duration":149476,"SoundDuration":149476,"Delta":170945534},{"NoteNumber":82,"Velocity":88,"Duration":196811,"SoundDuration":196811,"Delta":171045185},{"NoteNumber":70,"Velocity":63,"Duration":99651,"SoundDuration":99651,"Delta":171144836},{"NoteNumber":74,"Velocity":63,"Duration":99651,"SoundDuration":99651,"Delta":171144836},{"NoteNumber":82,"Velocity":67,"Duration":209555,"SoundDuration":209555,"Delta":171244487},{"NoteNumber":45,"Velocity":64,"Duration":157166,"SoundDuration":157166,"Delta":171244487},{"NoteNumber":70,"Velocity":63,"Duration":104777,"SoundDuration":104777,"Delta":171349265},{"NoteNumber":74,"Velocity":63,"Duration":104777,"SoundDuration":104777,"Delta":171349265},{"NoteNumber":82,"Velocity":68,"Duration":104777,"SoundDuration":104777,"Delta":171454043},{"NoteNumber":74,"Velocity":62,"Duration":100200,"SoundDuration":100200,"Delta":171558821},{"NoteNumber":77,"Velocity":62,"Duration":100200,"SoundDuration":100200,"Delta":171558821},{"NoteNumber":62,"Velocity":81,"Duration":616756,"SoundDuration":616756,"Delta":171558821},{"NoteNumber":55,"Velocity":62,"Duration":150300,"SoundDuration":150300,"Delta":171558821},{"NoteNumber":58,"Velocity":72,"Duration":150300,"SoundDuration":150300,"Delta":171558821},{"NoteNumber":86,"Velocity":87,"Duration":197895,"SoundDuration":197895,"Delta":171659021},{"NoteNumber":74,"Velocity":63,"Duration":100200,"SoundDuration":100200,"Delta":171759221},{"NoteNumber":77,"Velocity":63,"Duration":100200,"SoundDuration":100200,"Delta":171759221},{"NoteNumber":86,"Velocity":67,"Duration":210770,"SoundDuration":210770,"Delta":171859422},{"NoteNumber":43,"Velocity":64,"Duration":158077,"SoundDuration":158077,"Delta":171859422},{"NoteNumber":74,"Velocity":63,"Duration":105385,"SoundDuration":105385,"Delta":171964807},{"NoteNumber":77,"Velocity":63,"Duration":105385,"SoundDuration":105385,"Delta":171964807},{"NoteNumber":86,"Velocity":68,"Duration":105385,"SoundDuration":105385,"Delta":172070192},{"NoteNumber":70,"Velocity":62,"Duration":101306,"SoundDuration":101306,"Delta":172175577},{"NoteNumber":74,"Velocity":62,"Duration":101306,"SoundDuration":101306,"Delta":172175577},{"NoteNumber":58,"Velocity":81,"Duration":627850,"SoundDuration":627850,"Delta":172175577},{"NoteNumber":53,"Velocity":62,"Duration":151960,"SoundDuration":151960,"Delta":172175577},{"NoteNumber":57,"Velocity":72,"Duration":151960,"SoundDuration":151960,"Delta":172175577},{"NoteNumber":82,"Velocity":87,"Duration":200080,"SoundDuration":200080,"Delta":172276884},{"NoteNumber":70,"Velocity":63,"Duration":101306,"SoundDuration":101306,"Delta":172378191},{"NoteNumber":74,"Velocity":63,"Duration":101306,"SoundDuration":101306,"Delta":172378191},{"NoteNumber":82,"Velocity":67,"Duration":216990,"SoundDuration":216990,"Delta":172479498},{"NoteNumber":41,"Velocity":64,"Duration":162742,"SoundDuration":162742,"Delta":172479498},{"NoteNumber":70,"Velocity":63,"Duration":108495,"SoundDuration":108495,"Delta":172587993},{"NoteNumber":74,"Velocity":63,"Duration":108495,"SoundDuration":108495,"Delta":172587993},{"NoteNumber":82,"Velocity":68,"Duration":106940,"SoundDuration":106940,"Delta":172696488},{"NoteNumber":75,"Velocity":62,"Duration":98580,"SoundDuration":98580,"Delta":172803428},{"NoteNumber":79,"Velocity":72,"Duration":98580,"SoundDuration":98580,"Delta":172803428},{"NoteNumber":55,"Velocity":75,"Duration":599661,"SoundDuration":599661,"Delta":172803428},{"NoteNumber":63,"Velocity":82,"Duration":599661,"SoundDuration":599661,"Delta":172803428},{"NoteNumber":51,"Velocity":72,"Duration":147870,"SoundDuration":147870,"Delta":172803428},{"NoteNumber":87,"Velocity":91,"Duration":194696,"SoundDuration":194696,"Delta":172902009},{"NoteNumber":75,"Velocity":63,"Duration":98580,"SoundDuration":98580,"Delta":173000589},{"NoteNumber":79,"Velocity":63,"Duration":98580,"SoundDuration":98580,"Delta":173000589},{"NoteNumber":87,"Velocity":67,"Duration":202613,"SoundDuration":202613,"Delta":173099170},{"NoteNumber":39,"Velocity":63,"Duration":151960,"SoundDuration":151960,"Delta":173099170},{"NoteNumber":75,"Velocity":63,"Duration":101306,"SoundDuration":101306,"Delta":173200477},{"NoteNumber":79,"Velocity":63,"Duration":101306,"SoundDuration":101306,"Delta":173200477},{"NoteNumber":87,"Velocity":68,"Duration":101306,"SoundDuration":101306,"Delta":173301783},{"NoteNumber":82,"Velocity":62,"Duration":98048,"SoundDuration":98048,"Delta":173403090},{"NoteNumber":74,"Velocity":62,"Duration":98048,"SoundDuration":98048,"Delta":173403090},{"NoteNumber":62,"Velocity":84,"Duration":596383,"SoundDuration":596383,"Delta":173403090},{"NoteNumber":55,"Velocity":63,"Duration":147073,"SoundDuration":147073,"Delta":173403090},{"NoteNumber":58,"Velocity":72,"Duration":147073,"SoundDuration":147073,"Delta":173403090},{"NoteNumber":86,"Velocity":90,"Duration":193646,"SoundDuration":193646,"Delta":173501139},{"NoteNumber":74,"Velocity":63,"Duration":98048,"SoundDuration":98048,"Delta":173599188},{"NoteNumber":82,"Velocity":63,"Duration":98048,"SoundDuration":98048,"Delta":173599188},{"NoteNumber":86,"Velocity":67,"Duration":201491,"SoundDuration":201491,"Delta":173697237},{"NoteNumber":43,"Velocity":63,"Duration":151118,"SoundDuration":151118,"Delta":173697237},{"NoteNumber":74,"Velocity":63,"Duration":100745,"SoundDuration":100745,"Delta":173797982},{"NoteNumber":82,"Velocity":63,"Duration":100745,"SoundDuration":100745,"Delta":173797982},{"NoteNumber":86,"Velocity":68,"Duration":100745,"SoundDuration":100745,"Delta":173898728},{"NoteNumber":72,"Velocity":62,"Duration":97532,"SoundDuration":97532,"Delta":173999473},{"NoteNumber":75,"Velocity":62,"Duration":97532,"SoundDuration":97532,"Delta":173999473},{"NoteNumber":60,"Velocity":83,"Duration":598189,"SoundDuration":598189,"Delta":173999473},{"NoteNumber":57,"Velocity":72,"Duration":146298,"SoundDuration":146298,"Delta":173999473},{"NoteNumber":84,"Velocity":90,"Duration":192626,"SoundDuration":192626,"Delta":174097006},{"NoteNumber":72,"Velocity":63,"Duration":97532,"SoundDuration":97532,"Delta":174194538},{"NoteNumber":75,"Velocity":63,"Duration":97532,"SoundDuration":97532,"Delta":174194538},{"NoteNumber":84,"Velocity":67,"Duration":203728,"SoundDuration":203728,"Delta":174292071},{"NoteNumber":45,"Velocity":64,"Duration":152796,"SoundDuration":152796,"Delta":174292071},{"NoteNumber":72,"Velocity":63,"Duration":101864,"SoundDuration":101864,"Delta":174393935},{"NoteNumber":75,"Velocity":63,"Duration":101864,"SoundDuration":101864,"Delta":174393935},{"NoteNumber":84,"Velocity":68,"Duration":101864,"SoundDuration":101864,"Delta":174495799},{"NoteNumber":69,"Velocity":62,"Duration":100745,"SoundDuration":100745,"Delta":174597663},{"NoteNumber":72,"Velocity":62,"Duration":100745,"SoundDuration":100745,"Delta":174597663},{"NoteNumber":57,"Velocity":82,"Duration":616569,"SoundDuration":616569,"Delta":174597663},{"NoteNumber":55,"Velocity":72,"Duration":151118,"SoundDuration":151118,"Delta":174597663},{"NoteNumber":81,"Velocity":88,"Duration":198972,"SoundDuration":198972,"Delta":174698409},{"NoteNumber":69,"Velocity":63,"Duration":100745,"SoundDuration":100745,"Delta":174799154},{"NoteNumber":72,"Velocity":63,"Duration":100745,"SoundDuration":100745,"Delta":174799154},{"NoteNumber":81,"Velocity":67,"Duration":209555,"SoundDuration":209555,"Delta":174899900},{"NoteNumber":43,"Velocity":64,"Duration":157166,"SoundDuration":157166,"Delta":174899900},{"NoteNumber":69,"Velocity":63,"Duration":104777,"SoundDuration":104777,"Delta":175004678},{"NoteNumber":72,"Velocity":63,"Duration":104777,"SoundDuration":104777,"Delta":175004678},{"NoteNumber":81,"Velocity":68,"Duration":104777,"SoundDuration":104777,"Delta":175109455},{"NoteNumber":72,"Velocity":62,"Duration":100200,"SoundDuration":100200,"Delta":175214233},{"NoteNumber":75,"Velocity":62,"Duration":100200,"SoundDuration":100200,"Delta":175214233},{"NoteNumber":60,"Velocity":81,"Duration":614934,"SoundDuration":614934,"Delta":175214233},{"NoteNumber":54,"Velocity":62,"Duration":150300,"SoundDuration":150300,"Delta":175214233},{"NoteNumber":57,"Velocity":72,"Duration":150300,"SoundDuration":150300,"Delta":175214233},{"NoteNumber":84,"Velocity":87,"Duration":197895,"SoundDuration":197895,"Delta":175314434},{"NoteNumber":72,"Velocity":63,"Duration":100200,"SoundDuration":100200,"Delta":175414634},{"NoteNumber":75,"Velocity":63,"Duration":100200,"SoundDuration":100200,"Delta":175414634},{"NoteNumber":84,"Velocity":67,"Duration":209555,"SoundDuration":209555,"Delta":175514834},{"NoteNumber":42,"Velocity":64,"Duration":157166,"SoundDuration":157166,"Delta":175514834},{"NoteNumber":72,"Velocity":63,"Duration":104777,"SoundDuration":104777,"Delta":175619612},{"NoteNumber":75,"Velocity":63,"Duration":104777,"SoundDuration":104777,"Delta":175619612},{"NoteNumber":84,"Velocity":68,"Duration":104777,"SoundDuration":104777,"Delta":175724390},{"NoteNumber":69,"Velocity":62,"Duration":100745,"SoundDuration":100745,"Delta":175829168},{"NoteNumber":72,"Velocity":62,"Duration":100745,"SoundDuration":100745,"Delta":175829168},{"NoteNumber":57,"Velocity":81,"Duration":626166,"SoundDuration":626166,"Delta":175829168},{"NoteNumber":51,"Velocity":62,"Duration":151118,"SoundDuration":151118,"Delta":175829168},{"NoteNumber":55,"Velocity":72,"Duration":151118,"SoundDuration":151118,"Delta":175829168},{"NoteNumber":81,"Velocity":87,"Duration":198972,"SoundDuration":198972,"Delta":175929913},{"NoteNumber":69,"Velocity":63,"Duration":100745,"SoundDuration":100745,"Delta":176030659},{"NoteNumber":72,"Velocity":63,"Duration":100745,"SoundDuration":100745,"Delta":176030659},{"NoteNumber":81,"Velocity":67,"Duration":216990,"SoundDuration":216990,"Delta":176131404},{"NoteNumber":39,"Velocity":64,"Duration":162742,"SoundDuration":162742,"Delta":176131404},{"NoteNumber":69,"Velocity":63,"Duration":108495,"SoundDuration":108495,"Delta":176239899},{"NoteNumber":72,"Velocity":63,"Duration":108495,"SoundDuration":108495,"Delta":176239899},{"NoteNumber":81,"Velocity":68,"Duration":106940,"SoundDuration":106940,"Delta":176348395},{"NoteNumber":74,"Velocity":62,"Duration":100745,"SoundDuration":100745,"Delta":176455335},{"NoteNumber":78,"Velocity":72,"Duration":100745,"SoundDuration":100745,"Delta":176455335},{"NoteNumber":54,"Velocity":75,"Duration":618392,"SoundDuration":618392,"Delta":176455335},{"NoteNumber":62,"Velocity":82,"Duration":618392,"SoundDuration":618392,"Delta":176455335},{"NoteNumber":50,"Velocity":72,"Duration":151118,"SoundDuration":151118,"Delta":176455335},{"NoteNumber":86,"Velocity":91,"Duration":198972,"SoundDuration":198972,"Delta":176556080},{"NoteNumber":74,"Velocity":63,"Duration":100745,"SoundDuration":100745,"Delta":176656826},{"NoteNumber":78,"Velocity":63,"Duration":100745,"SoundDuration":100745,"Delta":176656826},{"NoteNumber":86,"Velocity":67,"Duration":210770,"SoundDuration":210770,"Delta":176757571},{"NoteNumber":38,"Velocity":63,"Duration":158077,"SoundDuration":158077,"Delta":176757571},{"NoteNumber":74,"Velocity":63,"Duration":105385,"SoundDuration":105385,"Delta":176862956},{"NoteNumber":78,"Velocity":63,"Duration":105385,"SoundDuration":105385,"Delta":176862956},{"NoteNumber":86,"Velocity":68,"Duration":105385,"SoundDuration":105385,"Delta":176968342},{"NoteNumber":81,"Velocity":62,"Duration":100200,"SoundDuration":100200,"Delta":177073727},{"NoteNumber":72,"Velocity":62,"Duration":100200,"SoundDuration":100200,"Delta":177073727},{"NoteNumber":60,"Velocity":84,"Duration":622282,"SoundDuration":622282,"Delta":177073727},{"NoteNumber":54,"Velocity":63,"Duration":150300,"SoundDuration":150300,"Delta":177073727},{"NoteNumber":57,"Velocity":72,"Duration":150300,"SoundDuration":150300,"Delta":177073727},{"NoteNumber":84,"Velocity":90,"Duration":197895,"SoundDuration":197895,"Delta":177173927},{"NoteNumber":72,"Velocity":63,"Duration":100200,"SoundDuration":100200,"Delta":177274127},{"NoteNumber":81,"Velocity":63,"Duration":100200,"SoundDuration":100200,"Delta":177274127},{"NoteNumber":84,"Velocity":67,"Duration":214454,"SoundDuration":214454,"Delta":177374328},{"NoteNumber":42,"Velocity":63,"Duration":160840,"SoundDuration":160840,"Delta":177374328},{"NoteNumber":72,"Velocity":63,"Duration":107227,"SoundDuration":107227,"Delta":177481555},{"NoteNumber":81,"Velocity":63,"Duration":107227,"SoundDuration":107227,"Delta":177481555},{"NoteNumber":84,"Velocity":68,"Duration":107227,"SoundDuration":107227,"Delta":177588782},{"NoteNumber":70,"Velocity":62,"Duration":103018,"SoundDuration":103018,"Delta":177696009},{"NoteNumber":79,"Velocity":62,"Duration":103018,"SoundDuration":103018,"Delta":177696009},{"NoteNumber":58,"Velocity":83,"Duration":630737,"SoundDuration":630737,"Delta":177696009},{"NoteNumber":55,"Velocity":72,"Duration":154527,"SoundDuration":154527,"Delta":177696009},{"NoteNumber":82,"Velocity":90,"Duration":203461,"SoundDuration":203461,"Delta":177799028},{"NoteNumber":70,"Velocity":63,"Duration":103018,"SoundDuration":103018,"Delta":177902046},{"NoteNumber":79,"Velocity":63,"Duration":103018,"SoundDuration":103018,"Delta":177902046},{"NoteNumber":82,"Velocity":67,"Duration":214454,"SoundDuration":214454,"Delta":178005065},{"NoteNumber":43,"Velocity":64,"Duration":160840,"SoundDuration":160840,"Delta":178005065},{"NoteNumber":70,"Velocity":63,"Duration":107227,"SoundDuration":107227,"Delta":178112292},{"NoteNumber":79,"Velocity":63,"Duration":107227,"SoundDuration":107227,"Delta":178112292},{"NoteNumber":82,"Velocity":68,"Duration":107227,"SoundDuration":107227,"Delta":178219519},{"NoteNumber":74,"Velocity":62,"Duration":103594,"SoundDuration":103594,"Delta":178326746},{"NoteNumber":81,"Velocity":62,"Duration":103594,"SoundDuration":103594,"Delta":178326746},{"NoteNumber":62,"Velocity":82,"Duration":634373,"SoundDuration":634373,"Delta":178326746},{"NoteNumber":53,"Velocity":70,"Duration":155392,"SoundDuration":155392,"Delta":178326746},{"NoteNumber":57,"Velocity":72,"Duration":155392,"SoundDuration":155392,"Delta":178326746},{"NoteNumber":86,"Velocity":88,"Duration":204599,"SoundDuration":204599,"Delta":178430341},{"NoteNumber":74,"Velocity":63,"Duration":103594,"SoundDuration":103594,"Delta":178533936},{"NoteNumber":81,"Velocity":63,"Duration":103594,"SoundDuration":103594,"Delta":178533936},{"NoteNumber":86,"Velocity":67,"Duration":215726,"SoundDuration":215726,"Delta":178637530},{"NoteNumber":41,"Velocity":64,"Duration":161794,"SoundDuration":161794,"Delta":178637530},{"NoteNumber":74,"Velocity":63,"Duration":107863,"SoundDuration":107863,"Delta":178745393},{"NoteNumber":81,"Velocity":63,"Duration":107863,"SoundDuration":107863,"Delta":178745393},{"NoteNumber":86,"Velocity":68,"Duration":107863,"SoundDuration":107863,"Delta":178853257},{"NoteNumber":74,"Velocity":62,"Duration":104177,"SoundDuration":104177,"Delta":178961120},{"NoteNumber":79,"Velocity":62,"Duration":104177,"SoundDuration":104177,"Delta":178961120},{"NoteNumber":62,"Velocity":81,"Duration":638018,"SoundDuration":638018,"Delta":178961120},{"NoteNumber":51,"Velocity":62,"Duration":156266,"SoundDuration":156266,"Delta":178961120},{"NoteNumber":55,"Velocity":72,"Duration":156266,"SoundDuration":156266,"Delta":178961120},{"NoteNumber":86,"Velocity":87,"Duration":205750,"SoundDuration":205750,"Delta":179065297},{"NoteNumber":74,"Velocity":63,"Duration":104177,"SoundDuration":104177,"Delta":179169475},{"NoteNumber":79,"Velocity":63,"Duration":104177,"SoundDuration":104177,"Delta":179169475},{"NoteNumber":86,"Velocity":67,"Duration":216990,"SoundDuration":216990,"Delta":179273652},{"NoteNumber":39,"Velocity":64,"Duration":162742,"SoundDuration":162742,"Delta":179273652},{"NoteNumber":74,"Velocity":63,"Duration":108495,"SoundDuration":108495,"Delta":179382147},{"NoteNumber":79,"Velocity":63,"Duration":108495,"SoundDuration":108495,"Delta":179382147},{"NoteNumber":86,"Velocity":68,"Duration":108495,"SoundDuration":108495,"Delta":179490643},{"NoteNumber":73,"Velocity":62,"Duration":104777,"SoundDuration":104777,"Delta":179599138},{"NoteNumber":79,"Velocity":62,"Duration":104777,"SoundDuration":104777,"Delta":179599138},{"NoteNumber":61,"Velocity":81,"Duration":638263,"SoundDuration":638263,"Delta":179599138},{"NoteNumber":51,"Velocity":62,"Duration":157166,"SoundDuration":157166,"Delta":179599138},{"NoteNumber":55,"Velocity":72,"Duration":157166,"SoundDuration":157166,"Delta":179599138},{"NoteNumber":85,"Velocity":87,"Duration":206936,"SoundDuration":206936,"Delta":179703916},{"NoteNumber":73,"Velocity":63,"Duration":104777,"SoundDuration":104777,"Delta":179808693},{"NoteNumber":79,"Velocity":63,"Duration":104777,"SoundDuration":104777,"Delta":179808693},{"NoteNumber":85,"Velocity":67,"Duration":216990,"SoundDuration":216990,"Delta":179913471},{"NoteNumber":73,"Velocity":63,"Duration":108495,"SoundDuration":108495,"Delta":180021966},{"NoteNumber":79,"Velocity":63,"Duration":108495,"SoundDuration":108495,"Delta":180021966},{"NoteNumber":85,"Velocity":68,"Duration":106940,"SoundDuration":106940,"Delta":180130462},{"NoteNumber":74,"Velocity":62,"Duration":100745,"SoundDuration":100745,"Delta":180237402},{"NoteNumber":78,"Velocity":72,"Duration":100745,"SoundDuration":100745,"Delta":180237402},{"NoteNumber":38,"Velocity":79,"Duration":618392,"SoundDuration":618392,"Delta":180237402},{"NoteNumber":45,"Velocity":79,"Duration":618392,"SoundDuration":618392,"Delta":180237402},{"NoteNumber":50,"Velocity":79,"Duration":618392,"SoundDuration":618392,"Delta":180237402},{"NoteNumber":86,"Velocity":67,"Duration":100745,"SoundDuration":100745,"Delta":180338147},{"NoteNumber":74,"Velocity":63,"Duration":100745,"SoundDuration":100745,"Delta":180438893},{"NoteNumber":86,"Velocity":67,"Duration":105385,"SoundDuration":105385,"Delta":180539638},{"NoteNumber":74,"Velocity":63,"Duration":105385,"SoundDuration":105385,"Delta":180645023},{"NoteNumber":86,"Velocity":67,"Duration":105385,"SoundDuration":105385,"Delta":180750409},{"NoteNumber":74,"Velocity":61,"Duration":100200,"SoundDuration":100200,"Delta":180855794},{"NoteNumber":50,"Velocity":71,"Duration":541862,"SoundDuration":541862,"Delta":180855794},{"NoteNumber":62,"Velocity":71,"Duration":541862,"SoundDuration":541862,"Delta":180855794},{"NoteNumber":86,"Velocity":62,"Duration":100200,"SoundDuration":100200,"Delta":180955994},{"NoteNumber":74,"Velocity":61,"Duration":100200,"SoundDuration":100200,"Delta":181056194},{"NoteNumber":86,"Velocity":65,"Duration":80420,"SoundDuration":80420,"Delta":181156395},{"NoteNumber":74,"Velocity":62,"Duration":107227,"SoundDuration":107227,"Delta":181263622},{"NoteNumber":86,"Velocity":65,"Duration":107227,"SoundDuration":107227,"Delta":181370849},{"NoteNumber":55,"Velocity":61,"Duration":630737,"SoundDuration":630737,"Delta":181397656},{"NoteNumber":62,"Velocity":68,"Duration":590526,"SoundDuration":590526,"Delta":181437866},{"NoteNumber":74,"Velocity":69,"Duration":103018,"SoundDuration":103018,"Delta":181478076},{"NoteNumber":82,"Velocity":69,"Duration":103018,"SoundDuration":103018,"Delta":181478076},{"NoteNumber":70,"Velocity":72,"Duration":550316,"SoundDuration":550316,"Delta":181478076},{"NoteNumber":86,"Velocity":61,"Duration":103018,"SoundDuration":103018,"Delta":181581095},{"NoteNumber":74,"Velocity":59,"Duration":103018,"SoundDuration":103018,"Delta":181684113},{"NoteNumber":86,"Velocity":63,"Duration":107227,"SoundDuration":107227,"Delta":181787132},{"NoteNumber":74,"Velocity":59,"Duration":107227,"SoundDuration":107227,"Delta":181894359},{"NoteNumber":86,"Velocity":63,"Duration":107227,"SoundDuration":107227,"Delta":182001586},{"NoteNumber":58,"Velocity":62,"Duration":633896,"SoundDuration":633896,"Delta":182028393},{"NoteNumber":67,"Velocity":67,"Duration":593686,"SoundDuration":593686,"Delta":182068603},{"NoteNumber":74,"Velocity":73,"Duration":204599,"SoundDuration":204599,"Delta":182108813},{"NoteNumber":86,"Velocity":57,"Duration":103594,"SoundDuration":103594,"Delta":182212408},{"NoteNumber":74,"Velocity":56,"Duration":103594,"SoundDuration":103594,"Delta":182316003},{"NoteNumber":86,"Velocity":60,"Duration":107863,"SoundDuration":107863,"Delta":182419597},{"NoteNumber":74,"Velocity":55,"Duration":107863,"SoundDuration":107863,"Delta":182527460},{"NoteNumber":86,"Velocity":60,"Duration":107863,"SoundDuration":107863,"Delta":182635324},{"NoteNumber":57,"Velocity":48,"Duration":637544,"SoundDuration":637544,"Delta":182662289},{"NoteNumber":62,"Velocity":54,"Duration":610578,"SoundDuration":610578,"Delta":182689255},{"NoteNumber":66,"Velocity":61,"Duration":583612,"SoundDuration":583612,"Delta":182716221},{"NoteNumber":72,"Velocity":66,"Duration":205750,"SoundDuration":205750,"Delta":182743187},{"NoteNumber":84,"Velocity":58,"Duration":104177,"SoundDuration":104177,"Delta":182847364},{"NoteNumber":72,"Velocity":54,"Duration":104177,"SoundDuration":104177,"Delta":182951542},{"NoteNumber":84,"Velocity":57,"Duration":108495,"SoundDuration":108495,"Delta":183055719},{"NoteNumber":72,"Velocity":54,"Duration":108495,"SoundDuration":108495,"Delta":183164214},{"NoteNumber":84,"Velocity":57,"Duration":108495,"SoundDuration":108495,"Delta":183272710},{"NoteNumber":55,"Velocity":55,"Duration":639819,"SoundDuration":639819,"Delta":183299833},{"NoteNumber":62,"Velocity":62,"Duration":599133,"SoundDuration":599133,"Delta":183340519},{"NoteNumber":70,"Velocity":68,"Duration":206936,"SoundDuration":206936,"Delta":183381205},{"NoteNumber":82,"Velocity":55,"Duration":104777,"SoundDuration":104777,"Delta":183485983},{"NoteNumber":70,"Velocity":51,"Duration":104777,"SoundDuration":104777,"Delta":183590760},{"NoteNumber":82,"Velocity":55,"Duration":108495,"SoundDuration":108495,"Delta":183695538},{"NoteNumber":70,"Velocity":51,"Duration":108495,"SoundDuration":108495,"Delta":183804033},{"NoteNumber":82,"Velocity":54,"Duration":108495,"SoundDuration":108495,"Delta":183912529},{"NoteNumber":54,"Velocity":56,"Duration":638018,"SoundDuration":638018,"Delta":183939652},{"NoteNumber":62,"Velocity":60,"Duration":597332,"SoundDuration":597332,"Delta":183980338},{"NoteNumber":69,"Velocity":66,"Duration":205750,"SoundDuration":205750,"Delta":184021024},{"NoteNumber":81,"Velocity":58,"Duration":104177,"SoundDuration":104177,"Delta":184125201},{"NoteNumber":69,"Velocity":54,"Duration":104177,"SoundDuration":104177,"Delta":184229379},{"NoteNumber":81,"Velocity":56,"Duration":108495,"SoundDuration":108495,"Delta":184333556},{"NoteNumber":69,"Velocity":53,"Duration":108495,"SoundDuration":108495,"Delta":184442051},{"NoteNumber":81,"Velocity":55,"Duration":108495,"SoundDuration":108495,"Delta":184550547},{"NoteNumber":51,"Velocity":54,"Duration":639819,"SoundDuration":639819,"Delta":184577670},{"NoteNumber":62,"Velocity":59,"Duration":599133,"SoundDuration":599133,"Delta":184618356},{"NoteNumber":67,"Velocity":65,"Duration":206936,"SoundDuration":206936,"Delta":184659042},{"NoteNumber":79,"Velocity":54,"Duration":104777,"SoundDuration":104777,"Delta":184763820},{"NoteNumber":67,"Velocity":50,"Duration":104777,"SoundDuration":104777,"Delta":184868597},{"NoteNumber":79,"Velocity":54,"Duration":108495,"SoundDuration":108495,"Delta":184973375},{"NoteNumber":67,"Velocity":49,"Duration":108495,"SoundDuration":108495,"Delta":185081870},{"NoteNumber":79,"Velocity":52,"Duration":108495,"SoundDuration":108495,"Delta":185190366},{"NoteNumber":50,"Velocity":54,"Duration":638018,"SoundDuration":638018,"Delta":185217489},{"NoteNumber":57,"Velocity":57,"Duration":597332,"SoundDuration":597332,"Delta":185258175},{"NoteNumber":66,"Velocity":63,"Duration":205750,"SoundDuration":205750,"Delta":185298861},{"NoteNumber":78,"Velocity":54,"Duration":104177,"SoundDuration":104177,"Delta":185403038},{"NoteNumber":66,"Velocity":51,"Duration":104177,"SoundDuration":104177,"Delta":185507216},{"NoteNumber":78,"Velocity":53,"Duration":108495,"SoundDuration":108495,"Delta":185611393},{"NoteNumber":66,"Velocity":51,"Duration":108495,"SoundDuration":108495,"Delta":185719888},{"NoteNumber":78,"Velocity":53,"Duration":108495,"SoundDuration":108495,"Delta":185828384},{"NoteNumber":48,"Velocity":42,"Duration":639819,"SoundDuration":639819,"Delta":185855507},{"NoteNumber":54,"Velocity":46,"Duration":612695,"SoundDuration":612695,"Delta":185882631},{"NoteNumber":57,"Velocity":51,"Duration":585571,"SoundDuration":585571,"Delta":185909755},{"NoteNumber":63,"Velocity":62,"Duration":206936,"SoundDuration":206936,"Delta":185936879},{"NoteNumber":75,"Velocity":51,"Duration":104777,"SoundDuration":104777,"Delta":186041657},{"NoteNumber":63,"Velocity":47,"Duration":104777,"SoundDuration":104777,"Delta":186146434},{"NoteNumber":75,"Velocity":51,"Duration":108495,"SoundDuration":108495,"Delta":186251212},{"NoteNumber":63,"Velocity":47,"Duration":108495,"SoundDuration":108495,"Delta":186359707},{"NoteNumber":75,"Velocity":50,"Duration":108495,"SoundDuration":108495,"Delta":186468203},{"NoteNumber":46,"Velocity":48,"Duration":638018,"SoundDuration":638018,"Delta":186495326},{"NoteNumber":55,"Velocity":53,"Duration":597332,"SoundDuration":597332,"Delta":186536012},{"NoteNumber":62,"Velocity":58,"Duration":205750,"SoundDuration":205750,"Delta":186576698},{"NoteNumber":74,"Velocity":52,"Duration":104177,"SoundDuration":104177,"Delta":186680875},{"NoteNumber":62,"Velocity":48,"Duration":104177,"SoundDuration":104177,"Delta":186785053},{"NoteNumber":74,"Velocity":51,"Duration":108495,"SoundDuration":108495,"Delta":186889230},{"NoteNumber":62,"Velocity":47,"Duration":108495,"SoundDuration":108495,"Delta":186997725},{"NoteNumber":74,"Velocity":51,"Duration":108495,"SoundDuration":108495,"Delta":187106221},{"NoteNumber":43,"Velocity":50,"Duration":639819,"SoundDuration":639819,"Delta":187133344},{"NoteNumber":50,"Velocity":52,"Duration":599133,"SoundDuration":599133,"Delta":187174030},{"NoteNumber":58,"Velocity":59,"Duration":206936,"SoundDuration":206936,"Delta":187214716},{"NoteNumber":62,"Velocity":49,"Duration":104777,"SoundDuration":104777,"Delta":187319494},{"NoteNumber":70,"Velocity":49,"Duration":104777,"SoundDuration":104777,"Delta":187319494},{"NoteNumber":58,"Velocity":45,"Duration":104777,"SoundDuration":104777,"Delta":187424271},{"NoteNumber":62,"Velocity":47,"Duration":108495,"SoundDuration":108495,"Delta":187529049},{"NoteNumber":70,"Velocity":48,"Duration":108495,"SoundDuration":108495,"Delta":187529049},{"NoteNumber":58,"Velocity":45,"Duration":108495,"SoundDuration":108495,"Delta":187637544},{"NoteNumber":62,"Velocity":46,"Duration":107586,"SoundDuration":107586,"Delta":187746040},{"NoteNumber":70,"Velocity":46,"Duration":107586,"SoundDuration":107586,"Delta":187746040},{"NoteNumber":42,"Velocity":47,"Duration":626418,"SoundDuration":626418,"Delta":187773163},{"NoteNumber":50,"Velocity":50,"Duration":585733,"SoundDuration":585733,"Delta":187813849},{"NoteNumber":57,"Velocity":55,"Duration":203242,"SoundDuration":203242,"Delta":187853626},{"NoteNumber":62,"Velocity":45,"Duration":103248,"SoundDuration":103248,"Delta":187956209},{"NoteNumber":69,"Velocity":49,"Duration":103248,"SoundDuration":103248,"Delta":187956209},{"NoteNumber":57,"Velocity":45,"Duration":103886,"SoundDuration":103886,"Delta":188059458},{"NoteNumber":62,"Velocity":44,"Duration":104567,"SoundDuration":104567,"Delta":188163344},{"NoteNumber":69,"Velocity":47,"Duration":104567,"SoundDuration":104567,"Delta":188163344},{"NoteNumber":57,"Velocity":44,"Duration":105233,"SoundDuration":105233,"Delta":188267912},{"NoteNumber":62,"Velocity":43,"Duration":106021,"SoundDuration":106021,"Delta":188373145},{"NoteNumber":69,"Velocity":45,"Duration":106021,"SoundDuration":106021,"Delta":188373145},{"NoteNumber":39,"Velocity":44,"Duration":648174,"SoundDuration":648174,"Delta":188399582},{"NoteNumber":50,"Velocity":48,"Duration":608429,"SoundDuration":608429,"Delta":188439328},{"NoteNumber":55,"Velocity":54,"Duration":211549,"SoundDuration":211549,"Delta":188479167},{"NoteNumber":62,"Velocity":38,"Duration":107481,"SoundDuration":107481,"Delta":188585931},{"NoteNumber":67,"Velocity":44,"Duration":107481,"SoundDuration":107481,"Delta":188585931},{"NoteNumber":55,"Velocity":40,"Duration":108179,"SoundDuration":108179,"Delta":188693412},{"NoteNumber":62,"Velocity":38,"Duration":108918,"SoundDuration":108918,"Delta":188801592},{"NoteNumber":67,"Velocity":44,"Duration":108918,"SoundDuration":108918,"Delta":188801592},{"NoteNumber":55,"Velocity":38,"Duration":109631,"SoundDuration":109631,"Delta":188910510},{"NoteNumber":62,"Velocity":37,"Duration":110561,"SoundDuration":110561,"Delta":189020142},{"NoteNumber":67,"Velocity":42,"Duration":110561,"SoundDuration":110561,"Delta":189020142},{"NoteNumber":38,"Velocity":43,"Duration":676173,"SoundDuration":676173,"Delta":189047757},{"NoteNumber":45,"Velocity":45,"Duration":634750,"SoundDuration":634750,"Delta":189089180},{"NoteNumber":54,"Velocity":50,"Duration":220569,"SoundDuration":220569,"Delta":189130704},{"NoteNumber":62,"Velocity":36,"Duration":112078,"SoundDuration":112078,"Delta":189242007},{"NoteNumber":66,"Velocity":44,"Duration":112078,"SoundDuration":112078,"Delta":189242007},{"NoteNumber":54,"Velocity":40,"Duration":112836,"SoundDuration":112836,"Delta":189354086},{"NoteNumber":62,"Velocity":36,"Duration":113647,"SoundDuration":113647,"Delta":189466922},{"NoteNumber":66,"Velocity":41,"Duration":113647,"SoundDuration":113647,"Delta":189466922},{"NoteNumber":54,"Velocity":39,"Duration":114529,"SoundDuration":114529,"Delta":189580569},{"NoteNumber":62,"Velocity":34,"Duration":115437,"SoundDuration":115437,"Delta":189695099},{"NoteNumber":66,"Velocity":41,"Duration":115437,"SoundDuration":115437,"Delta":189695099},{"NoteNumber":36,"Velocity":32,"Duration":706593,"SoundDuration":706593,"Delta":189723930},{"NoteNumber":42,"Velocity":36,"Duration":677761,"SoundDuration":677761,"Delta":189752762},{"NoteNumber":45,"Velocity":39,"Duration":648930,"SoundDuration":648930,"Delta":189781594},{"NoteNumber":51,"Velocity":47,"Duration":230399,"SoundDuration":230399,"Delta":189810536},{"NoteNumber":54,"Velocity":33,"Duration":117091,"SoundDuration":117091,"Delta":189926782},{"NoteNumber":57,"Velocity":34,"Duration":117091,"SoundDuration":117091,"Delta":189926782},{"NoteNumber":63,"Velocity":39,"Duration":117091,"SoundDuration":117091,"Delta":189926782},{"NoteNumber":51,"Velocity":36,"Duration":117918,"SoundDuration":117918,"Delta":190043874},{"NoteNumber":54,"Velocity":33,"Duration":118804,"SoundDuration":118804,"Delta":190161793},{"NoteNumber":57,"Velocity":33,"Duration":118804,"SoundDuration":118804,"Delta":190161793},{"NoteNumber":63,"Velocity":38,"Duration":118804,"SoundDuration":118804,"Delta":190161793},{"NoteNumber":51,"Velocity":35,"Duration":119769,"SoundDuration":119769,"Delta":190280598},{"NoteNumber":54,"Velocity":33,"Duration":120748,"SoundDuration":120748,"Delta":190400367},{"NoteNumber":57,"Velocity":33,"Duration":120748,"SoundDuration":120748,"Delta":190400367},{"NoteNumber":63,"Velocity":36,"Duration":120748,"SoundDuration":120748,"Delta":190400367},{"NoteNumber":34,"Velocity":31,"Duration":739935,"SoundDuration":739935,"Delta":190430524},{"NoteNumber":43,"Velocity":34,"Duration":694700,"SoundDuration":694700,"Delta":190475759},{"NoteNumber":50,"Velocity":44,"Duration":241134,"SoundDuration":241134,"Delta":190521115},{"NoteNumber":55,"Velocity":33,"Duration":122574,"SoundDuration":122574,"Delta":190642752},{"NoteNumber":58,"Velocity":33,"Duration":122574,"SoundDuration":122574,"Delta":190642752},{"NoteNumber":62,"Velocity":38,"Duration":122574,"SoundDuration":122574,"Delta":190642752},{"NoteNumber":50,"Velocity":35,"Duration":123473,"SoundDuration":123473,"Delta":190765327},{"NoteNumber":55,"Velocity":32,"Duration":124534,"SoundDuration":124534,"Delta":190888800},{"NoteNumber":58,"Velocity":32,"Duration":124534,"SoundDuration":124534,"Delta":190888800},{"NoteNumber":62,"Velocity":37,"Duration":124534,"SoundDuration":124534,"Delta":190888800},{"NoteNumber":50,"Velocity":34,"Duration":125512,"SoundDuration":125512,"Delta":191013334},{"NoteNumber":55,"Velocity":32,"Duration":126584,"SoundDuration":126584,"Delta":191138846},{"NoteNumber":58,"Velocity":32,"Duration":126584,"SoundDuration":126584,"Delta":191138846},{"NoteNumber":62,"Velocity":36,"Duration":126584,"SoundDuration":126584,"Delta":191138846},{"NoteNumber":33,"Velocity":28,"Duration":773428,"SoundDuration":773428,"Delta":191170460},{"NoteNumber":38,"Velocity":31,"Duration":741814,"SoundDuration":741814,"Delta":191202073},{"NoteNumber":42,"Velocity":36,"Duration":710201,"SoundDuration":710201,"Delta":191233687},{"NoteNumber":48,"Velocity":43,"Duration":678457,"SoundDuration":678457,"Delta":191265431},{"NoteNumber":60,"Velocity":34,"Duration":128595,"SoundDuration":128595,"Delta":191392983},{"NoteNumber":54,"Velocity":35,"Duration":128595,"SoundDuration":128595,"Delta":191392983},{"NoteNumber":62,"Velocity":35,"Duration":128595,"SoundDuration":128595,"Delta":191392983},{"NoteNumber":50,"Velocity":32,"Duration":129721,"SoundDuration":129721,"Delta":191521579},{"NoteNumber":60,"Velocity":27,"Duration":130038,"SoundDuration":130038,"Delta":191651300},{"NoteNumber":54,"Velocity":28,"Duration":130038,"SoundDuration":130038,"Delta":191651300},{"NoteNumber":62,"Velocity":34,"Duration":130038,"SoundDuration":130038,"Delta":191651300},{"NoteNumber":50,"Velocity":32,"Duration":130039,"SoundDuration":130039,"Delta":191781339},{"NoteNumber":60,"Velocity":27,"Duration":125669,"SoundDuration":125669,"Delta":191911378},{"NoteNumber":54,"Velocity":27,"Duration":125669,"SoundDuration":125669,"Delta":191911378},{"NoteNumber":62,"Velocity":33,"Duration":125669,"SoundDuration":125669,"Delta":191911378},{"NoteNumber":31,"Velocity":34,"Duration":816418,"SoundDuration":816418,"Delta":191943888},{"NoteNumber":38,"Velocity":37,"Duration":768746,"SoundDuration":768746,"Delta":191991560},{"NoteNumber":46,"Velocity":44,"Duration":723258,"SoundDuration":723258,"Delta":192037048},{"NoteNumber":50,"Velocity":40,"Duration":692933,"SoundDuration":692933,"Delta":192067373},{"NoteNumber":55,"Velocity":43,"Duration":662608,"SoundDuration":662608,"Delta":192097698},{"NoteNumber":58,"Velocity":44,"Duration":632283,"SoundDuration":632283,"Delta":192128023},{"NoteNumber":62,"Velocity":46,"Duration":601958,"SoundDuration":601958,"Delta":192158348},{"NoteNumber":70,"Velocity":45,"Duration":116157,"SoundDuration":116157,"Delta":192760307},{"NoteNumber":86,"Velocity":37,"Duration":115808,"SoundDuration":115808,"Delta":192876464},{"NoteNumber":74,"Velocity":40,"Duration":115460,"SoundDuration":115460,"Delta":192992273},{"NoteNumber":86,"Velocity":38,"Duration":114757,"SoundDuration":114757,"Delta":193107733},{"NoteNumber":79,"Velocity":41,"Duration":114077,"SoundDuration":114077,"Delta":193222491},{"NoteNumber":86,"Velocity":39,"Duration":113740,"SoundDuration":113740,"Delta":193336568},{"NoteNumber":82,"Velocity":47,"Duration":113071,"SoundDuration":113071,"Delta":193450309},{"NoteNumber":86,"Velocity":39,"Duration":112739,"SoundDuration":112739,"Delta":193563381},{"NoteNumber":79,"Velocity":43,"Duration":113071,"SoundDuration":113071,"Delta":193676121},{"NoteNumber":86,"Velocity":43,"Duration":113404,"SoundDuration":113404,"Delta":193789193},{"NoteNumber":74,"Velocity":44,"Duration":113740,"SoundDuration":113740,"Delta":193902597},{"NoteNumber":86,"Velocity":41,"Duration":114077,"SoundDuration":114077,"Delta":194016338},{"NoteNumber":55,"Velocity":40,"Duration":721234,"SoundDuration":721234,"Delta":194087636},{"NoteNumber":75,"Velocity":50,"Duration":114077,"SoundDuration":114077,"Delta":194130415},{"NoteNumber":67,"Velocity":54,"Duration":678455,"SoundDuration":678455,"Delta":194130415},{"NoteNumber":91,"Velocity":43,"Duration":113740,"SoundDuration":113740,"Delta":194244492},{"NoteNumber":79,"Velocity":45,"Duration":113404,"SoundDuration":113404,"Delta":194358233},{"NoteNumber":91,"Velocity":42,"Duration":112739,"SoundDuration":112739,"Delta":194471637},{"NoteNumber":87,"Velocity":45,"Duration":112410,"SoundDuration":112410,"Delta":194584377},{"NoteNumber":91,"Velocity":42,"Duration":112082,"SoundDuration":112082,"Delta":194696788},{"NoteNumber":55,"Velocity":41,"Duration":710628,"SoundDuration":710628,"Delta":194766839},{"NoteNumber":74,"Velocity":50,"Duration":111433,"SoundDuration":111433,"Delta":194808870},{"NoteNumber":66,"Velocity":58,"Duration":668598,"SoundDuration":668598,"Delta":194808870},{"NoteNumber":90,"Velocity":42,"Duration":111433,"SoundDuration":111433,"Delta":194920303},{"NoteNumber":78,"Velocity":45,"Duration":111432,"SoundDuration":111432,"Delta":195031736},{"NoteNumber":90,"Velocity":42,"Duration":111433,"SoundDuration":111433,"Delta":195143169},{"NoteNumber":86,"Velocity":45,"Duration":111433,"SoundDuration":111433,"Delta":195254602},{"NoteNumber":90,"Velocity":42,"Duration":111433,"SoundDuration":111433,"Delta":195366035},{"NoteNumber":55,"Velocity":43,"Duration":714653,"SoundDuration":714653,"Delta":195435681},{"NoteNumber":72,"Velocity":50,"Duration":110778,"SoundDuration":110778,"Delta":195477468},{"NoteNumber":63,"Velocity":59,"Duration":672866,"SoundDuration":672866,"Delta":195477468},{"NoteNumber":87,"Velocity":42,"Duration":111105,"SoundDuration":111105,"Delta":195588247},{"NoteNumber":75,"Velocity":45,"Duration":111757,"SoundDuration":111757,"Delta":195699353},{"NoteNumber":87,"Velocity":43,"Duration":112410,"SoundDuration":112410,"Delta":195811111},{"NoteNumber":79,"Velocity":45,"Duration":113071,"SoundDuration":113071,"Delta":195923522},{"NoteNumber":87,"Velocity":41,"Duration":113740,"SoundDuration":113740,"Delta":196036593},{"NoteNumber":70,"Velocity":50,"Duration":114077,"SoundDuration":114077,"Delta":196150334},{"NoteNumber":62,"Velocity":53,"Duration":2054570,"SoundDuration":2054570,"Delta":196150334},{"NoteNumber":55,"Velocity":45,"Duration":684462,"SoundDuration":684462,"Delta":196150334},{"NoteNumber":86,"Velocity":42,"Duration":114077,"SoundDuration":114077,"Delta":196264411},{"NoteNumber":74,"Velocity":45,"Duration":114077,"SoundDuration":114077,"Delta":196378489},{"NoteNumber":86,"Velocity":43,"Duration":114077,"SoundDuration":114077,"Delta":196492566},{"NoteNumber":79,"Velocity":45,"Duration":114077,"SoundDuration":114077,"Delta":196606643},{"NoteNumber":86,"Velocity":41,"Duration":114077,"SoundDuration":114077,"Delta":196720720},{"NoteNumber":82,"Velocity":50,"Duration":116157,"SoundDuration":116157,"Delta":196834797},{"NoteNumber":86,"Velocity":42,"Duration":115808,"SoundDuration":115808,"Delta":196950955},{"NoteNumber":79,"Velocity":45,"Duration":115460,"SoundDuration":115460,"Delta":197066764},{"NoteNumber":86,"Velocity":42,"Duration":114757,"SoundDuration":114757,"Delta":197182224},{"NoteNumber":74,"Velocity":45,"Duration":114077,"SoundDuration":114077,"Delta":197296982},{"NoteNumber":86,"Velocity":42,"Duration":113740,"SoundDuration":113740,"Delta":197411059},{"NoteNumber":70,"Velocity":50,"Duration":113071,"SoundDuration":113071,"Delta":197524799},{"NoteNumber":86,"Velocity":42,"Duration":112739,"SoundDuration":112739,"Delta":197637871},{"NoteNumber":74,"Velocity":45,"Duration":113071,"SoundDuration":113071,"Delta":197750611},{"NoteNumber":86,"Velocity":45,"Duration":113404,"SoundDuration":113404,"Delta":197863683},{"NoteNumber":79,"Velocity":45,"Duration":113740,"SoundDuration":113740,"Delta":197977087},{"NoteNumber":86,"Velocity":42,"Duration":114077,"SoundDuration":114077,"Delta":198090828},{"NoteNumber":69,"Velocity":50,"Duration":114077,"SoundDuration":114077,"Delta":198204905},{"NoteNumber":65,"Velocity":54,"Duration":678455,"SoundDuration":678455,"Delta":198204905},{"NoteNumber":86,"Velocity":43,"Duration":113740,"SoundDuration":113740,"Delta":198318982},{"NoteNumber":74,"Velocity":45,"Duration":113404,"SoundDuration":113404,"Delta":198432723},{"NoteNumber":86,"Velocity":42,"Duration":112739,"SoundDuration":112739,"Delta":198546127},{"NoteNumber":77,"Velocity":45,"Duration":112410,"SoundDuration":112410,"Delta":198658867},{"NoteNumber":86,"Velocity":42,"Duration":112082,"SoundDuration":112082,"Delta":198771278},{"NoteNumber":67,"Velocity":50,"Duration":111433,"SoundDuration":111433,"Delta":198883360},{"NoteNumber":63,"Velocity":57,"Duration":668598,"SoundDuration":668598,"Delta":198883360},{"NoteNumber":84,"Velocity":42,"Duration":111433,"SoundDuration":111433,"Delta":198994793},{"NoteNumber":72,"Velocity":45,"Duration":111432,"SoundDuration":111432,"Delta":199106226},{"NoteNumber":84,"Velocity":42,"Duration":111433,"SoundDuration":111433,"Delta":199217659},{"NoteNumber":75,"Velocity":45,"Duration":111433,"SoundDuration":111433,"Delta":199329092},{"NoteNumber":84,"Velocity":42,"Duration":111433,"SoundDuration":111433,"Delta":199440525},{"NoteNumber":65,"Velocity":50,"Duration":110778,"SoundDuration":110778,"Delta":199551958},{"NoteNumber":62,"Velocity":57,"Duration":672866,"SoundDuration":672866,"Delta":199551958},{"NoteNumber":82,"Velocity":42,"Duration":111105,"SoundDuration":111105,"Delta":199662737},{"NoteNumber":70,"Velocity":45,"Duration":111757,"SoundDuration":111757,"Delta":199773843},{"NoteNumber":82,"Velocity":43,"Duration":112410,"SoundDuration":112410,"Delta":199885601},{"NoteNumber":74,"Velocity":45,"Duration":113071,"SoundDuration":113071,"Delta":199998012},{"NoteNumber":82,"Velocity":41,"Duration":113740,"SoundDuration":113740,"Delta":200111084},{"NoteNumber":63,"Velocity":50,"Duration":114077,"SoundDuration":114077,"Delta":200224824},{"NoteNumber":60,"Velocity":53,"Duration":2051263,"SoundDuration":2051263,"Delta":200224824},{"NoteNumber":81,"Velocity":42,"Duration":114077,"SoundDuration":114077,"Delta":200338902},{"NoteNumber":69,"Velocity":45,"Duration":114077,"SoundDuration":114077,"Delta":200452979},{"NoteNumber":81,"Velocity":43,"Duration":114077,"SoundDuration":114077,"Delta":200567056},{"NoteNumber":72,"Velocity":45,"Duration":114077,"SoundDuration":114077,"Delta":200681133},{"NoteNumber":81,"Velocity":41,"Duration":114459,"SoundDuration":114459,"Delta":200795210},{"NoteNumber":75,"Velocity":50,"Duration":115274,"SoundDuration":115274,"Delta":200909670},{"NoteNumber":81,"Velocity":42,"Duration":113960,"SoundDuration":113960,"Delta":201024945},{"NoteNumber":72,"Velocity":45,"Duration":112996,"SoundDuration":112996,"Delta":201138906},{"NoteNumber":81,"Velocity":42,"Duration":111733,"SoundDuration":111733,"Delta":201251902},{"NoteNumber":69,"Velocity":45,"Duration":110804,"SoundDuration":110804,"Delta":201363635},{"NoteNumber":81,"Velocity":42,"Duration":109589,"SoundDuration":109589,"Delta":201474440},{"NoteNumber":63,"Velocity":50,"Duration":108695,"SoundDuration":108695,"Delta":201584029},{"NoteNumber":81,"Velocity":42,"Duration":109589,"SoundDuration":109589,"Delta":201692725},{"NoteNumber":69,"Velocity":45,"Duration":112104,"SoundDuration":112104,"Delta":201802315},{"NoteNumber":81,"Velocity":45,"Duration":114099,"SoundDuration":114099,"Delta":201914419},{"NoteNumber":72,"Velocity":45,"Duration":120185,"SoundDuration":120185,"Delta":202028519},{"NoteNumber":81,"Velocity":42,"Duration":127383,"SoundDuration":127383,"Delta":202148705},{"NoteNumber":69,"Velocity":59,"Duration":115460,"SoundDuration":115460,"Delta":202276088},{"NoteNumber":48,"Velocity":49,"Duration":680529,"SoundDuration":680529,"Delta":202276088},{"NoteNumber":63,"Velocity":59,"Duration":677727,"SoundDuration":677727,"Delta":202276088},{"NoteNumber":84,"Velocity":43,"Duration":114432,"SoundDuration":114432,"Delta":202391548},{"NoteNumber":72,"Velocity":50,"Duration":113404,"SoundDuration":113404,"Delta":202505980},{"NoteNumber":84,"Velocity":42,"Duration":112739,"SoundDuration":112739,"Delta":202619385},{"NoteNumber":75,"Velocity":47,"Duration":112410,"SoundDuration":112410,"Delta":202732124},{"NoteNumber":84,"Velocity":42,"Duration":112082,"SoundDuration":112082,"Delta":202844535},{"NoteNumber":63,"Velocity":50,"Duration":111433,"SoundDuration":111433,"Delta":202956618},{"NoteNumber":48,"Velocity":48,"Duration":668598,"SoundDuration":668598,"Delta":202956618},{"NoteNumber":60,"Velocity":57,"Duration":668598,"SoundDuration":668598,"Delta":202956618},{"NoteNumber":81,"Velocity":42,"Duration":111433,"SoundDuration":111433,"Delta":203068051},{"NoteNumber":69,"Velocity":45,"Duration":111432,"SoundDuration":111432,"Delta":203179484},{"NoteNumber":81,"Velocity":42,"Duration":111433,"SoundDuration":111433,"Delta":203290917},{"NoteNumber":72,"Velocity":45,"Duration":111433,"SoundDuration":111433,"Delta":203402350},{"NoteNumber":81,"Velocity":42,"Duration":111433,"SoundDuration":111433,"Delta":203513783},{"NoteNumber":64,"Velocity":50,"Duration":110778,"SoundDuration":110778,"Delta":203625216},{"NoteNumber":49,"Velocity":48,"Duration":700933,"SoundDuration":700933,"Delta":203625216},{"NoteNumber":58,"Velocity":57,"Duration":700933,"SoundDuration":700933,"Delta":203625216},{"NoteNumber":79,"Velocity":42,"Duration":111105,"SoundDuration":111105,"Delta":203735995},{"NoteNumber":70,"Velocity":45,"Duration":111757,"SoundDuration":111757,"Delta":203847101},{"NoteNumber":79,"Velocity":43,"Duration":114448,"SoundDuration":114448,"Delta":203958858},{"NoteNumber":76,"Velocity":45,"Duration":122903,"SoundDuration":122903,"Delta":204073307},{"NoteNumber":79,"Velocity":41,"Duration":129939,"SoundDuration":129939,"Delta":204196210},{"NoteNumber":67,"Velocity":58,"Duration":114077,"SoundDuration":114077,"Delta":204326149},{"NoteNumber":50,"Velocity":48,"Duration":1374465,"SoundDuration":1374465,"Delta":204326149},{"NoteNumber":58,"Velocity":48,"Duration":1374465,"SoundDuration":1374465,"Delta":204326149},{"NoteNumber":62,"Velocity":57,"Duration":2054570,"SoundDuration":2054570,"Delta":204326149},{"NoteNumber":82,"Velocity":46,"Duration":114077,"SoundDuration":114077,"Delta":204440226},{"NoteNumber":70,"Velocity":50,"Duration":114077,"SoundDuration":114077,"Delta":204554303},{"NoteNumber":82,"Velocity":43,"Duration":114077,"SoundDuration":114077,"Delta":204668381},{"NoteNumber":74,"Velocity":45,"Duration":114077,"SoundDuration":114077,"Delta":204782458},{"NoteNumber":82,"Velocity":41,"Duration":114077,"SoundDuration":114077,"Delta":204896535},{"NoteNumber":79,"Velocity":50,"Duration":116157,"SoundDuration":116157,"Delta":205010612},{"NoteNumber":82,"Velocity":42,"Duration":115808,"SoundDuration":115808,"Delta":205126770},{"NoteNumber":74,"Velocity":45,"Duration":115460,"SoundDuration":115460,"Delta":205242578},{"NoteNumber":82,"Velocity":42,"Duration":114757,"SoundDuration":114757,"Delta":205358039},{"NoteNumber":70,"Velocity":45,"Duration":114077,"SoundDuration":114077,"Delta":205472796},{"NoteNumber":82,"Velocity":42,"Duration":113740,"SoundDuration":113740,"Delta":205586874},{"NoteNumber":66,"Velocity":50,"Duration":113071,"SoundDuration":113071,"Delta":205700614},{"NoteNumber":50,"Velocity":48,"Duration":680105,"SoundDuration":680105,"Delta":205700614},{"NoteNumber":57,"Velocity":48,"Duration":680105,"SoundDuration":680105,"Delta":205700614},{"NoteNumber":81,"Velocity":42,"Duration":112739,"SoundDuration":112739,"Delta":205813686},{"NoteNumber":69,"Velocity":45,"Duration":113071,"SoundDuration":113071,"Delta":205926426},{"NoteNumber":81,"Velocity":45,"Duration":113404,"SoundDuration":113404,"Delta":206039498},{"NoteNumber":74,"Velocity":45,"Duration":113740,"SoundDuration":113740,"Delta":206152902},{"NoteNumber":81,"Velocity":42,"Duration":114077,"SoundDuration":114077,"Delta":206266643},{"NoteNumber":66,"Velocity":50,"Duration":114077,"SoundDuration":114077,"Delta":206380720},{"NoteNumber":60,"Velocity":45,"Duration":678455,"SoundDuration":678455,"Delta":206380720},{"NoteNumber":63,"Velocity":54,"Duration":678455,"SoundDuration":678455,"Delta":206380720},{"NoteNumber":81,"Velocity":43,"Duration":113740,"SoundDuration":113740,"Delta":206494797},{"NoteNumber":69,"Velocity":45,"Duration":113404,"SoundDuration":113404,"Delta":206608538},{"NoteNumber":81,"Velocity":42,"Duration":112739,"SoundDuration":112739,"Delta":206721942},{"NoteNumber":75,"Velocity":45,"Duration":112410,"SoundDuration":112410,"Delta":206834682},{"NoteNumber":81,"Velocity":42,"Duration":112082,"SoundDuration":112082,"Delta":206947093},{"NoteNumber":67,"Velocity":50,"Duration":111433,"SoundDuration":111433,"Delta":207059175},{"NoteNumber":58,"Velocity":48,"Duration":668598,"SoundDuration":668598,"Delta":207059175},{"NoteNumber":62,"Velocity":57,"Duration":668598,"SoundDuration":668598,"Delta":207059175},{"NoteNumber":79,"Velocity":42,"Duration":111433,"SoundDuration":111433,"Delta":207170608},{"NoteNumber":70,"Velocity":45,"Duration":111432,"SoundDuration":111432,"Delta":207282041},{"NoteNumber":79,"Velocity":42,"Duration":111433,"SoundDuration":111433,"Delta":207393474},{"NoteNumber":74,"Velocity":45,"Duration":111433,"SoundDuration":111433,"Delta":207504907},{"NoteNumber":79,"Velocity":42,"Duration":111433,"SoundDuration":111433,"Delta":207616340},{"NoteNumber":66,"Velocity":50,"Duration":110778,"SoundDuration":110778,"Delta":207727773},{"NoteNumber":57,"Velocity":40,"Duration":672866,"SoundDuration":672866,"Delta":207727773},{"NoteNumber":60,"Velocity":40,"Duration":672866,"SoundDuration":672866,"Delta":207727773},{"NoteNumber":62,"Velocity":57,"Duration":672866,"SoundDuration":672866,"Delta":207727773},{"NoteNumber":78,"Velocity":42,"Duration":111105,"SoundDuration":111105,"Delta":207838552},{"NoteNumber":69,"Velocity":45,"Duration":111757,"SoundDuration":111757,"Delta":207949658},{"NoteNumber":78,"Velocity":43,"Duration":112410,"SoundDuration":112410,"Delta":208061416},{"NoteNumber":74,"Velocity":45,"Duration":113071,"SoundDuration":113071,"Delta":208173827},{"NoteNumber":78,"Velocity":41,"Duration":113740,"SoundDuration":113740,"Delta":208286899},{"NoteNumber":65,"Velocity":55,"Duration":1374465,"SoundDuration":1374465,"Delta":208400639},{"NoteNumber":56,"Velocity":48,"Duration":1374465,"SoundDuration":1374465,"Delta":208400639},{"NoteNumber":59,"Velocity":48,"Duration":1374465,"SoundDuration":1374465,"Delta":208400639},{"NoteNumber":62,"Velocity":57,"Duration":1374465,"SoundDuration":1374465,"Delta":208400639},{"NoteNumber":77,"Velocity":46,"Duration":114077,"SoundDuration":114077,"Delta":208514716},{"NoteNumber":68,"Velocity":50,"Duration":114077,"SoundDuration":114077,"Delta":208628794},{"NoteNumber":77,"Velocity":43,"Duration":114077,"SoundDuration":114077,"Delta":208742871},{"NoteNumber":71,"Velocity":45,"Duration":114077,"SoundDuration":114077,"Delta":208856948},{"NoteNumber":77,"Velocity":41,"Duration":114077,"SoundDuration":114077,"Delta":208971025},{"NoteNumber":74,"Velocity":50,"Duration":116157,"SoundDuration":116157,"Delta":209085102},{"NoteNumber":77,"Velocity":42,"Duration":115808,"SoundDuration":115808,"Delta":209201260},{"NoteNumber":71,"Velocity":45,"Duration":115460,"SoundDuration":115460,"Delta":209317069},{"NoteNumber":77,"Velocity":42,"Duration":114757,"SoundDuration":114757,"Delta":209432529},{"NoteNumber":68,"Velocity":45,"Duration":114077,"SoundDuration":114077,"Delta":209547287},{"NoteNumber":77,"Velocity":42,"Duration":113740,"SoundDuration":113740,"Delta":209661364},{"NoteNumber":64,"Velocity":50,"Duration":669714,"SoundDuration":669714,"Delta":209775105},{"NoteNumber":55,"Velocity":48,"Duration":669714,"SoundDuration":669714,"Delta":209775105},{"NoteNumber":76,"Velocity":42,"Duration":112739,"SoundDuration":112739,"Delta":209888176},{"NoteNumber":67,"Velocity":45,"Duration":113071,"SoundDuration":113071,"Delta":210000916},{"NoteNumber":76,"Velocity":45,"Duration":109517,"SoundDuration":109517,"Delta":210113988},{"NoteNumber":72,"Velocity":45,"Duration":109516,"SoundDuration":109516,"Delta":210223505},{"NoteNumber":76,"Velocity":42,"Duration":111797,"SoundDuration":111797,"Delta":210333022},{"NoteNumber":63,"Velocity":60,"Duration":636825,"SoundDuration":636825,"Delta":210444819},{"NoteNumber":67,"Velocity":58,"Duration":312467,"SoundDuration":312467,"Delta":210444819},{"NoteNumber":75,"Velocity":43,"Duration":104155,"SoundDuration":104155,"Delta":210548975},{"NoteNumber":67,"Velocity":45,"Duration":428513,"SoundDuration":428513,"Delta":210653131},{"NoteNumber":75,"Velocity":42,"Duration":104155,"SoundDuration":104155,"Delta":210757286},{"NoteNumber":72,"Velocity":45,"Duration":108119,"SoundDuration":108119,"Delta":210861442},{"NoteNumber":75,"Velocity":42,"Duration":112082,"SoundDuration":112082,"Delta":210969561},{"NoteNumber":62,"Velocity":56,"Duration":653380,"SoundDuration":653380,"Delta":211081644},{"NoteNumber":65,"Velocity":54,"Duration":653380,"SoundDuration":653380,"Delta":211081644},{"NoteNumber":74,"Velocity":42,"Duration":108896,"SoundDuration":108896,"Delta":211190541},{"NoteNumber":67,"Velocity":45,"Duration":108896,"SoundDuration":108896,"Delta":211299438},{"NoteNumber":74,"Velocity":42,"Duration":108896,"SoundDuration":108896,"Delta":211408334},{"NoteNumber":71,"Velocity":45,"Duration":108896,"SoundDuration":108896,"Delta":211517231},{"NoteNumber":74,"Velocity":42,"Duration":108896,"SoundDuration":108896,"Delta":211626128},{"NoteNumber":63,"Velocity":58,"Duration":672866,"SoundDuration":672866,"Delta":211735025},{"NoteNumber":55,"Velocity":48,"Duration":672866,"SoundDuration":672866,"Delta":211735025},{"NoteNumber":60,"Velocity":54,"Duration":672866,"SoundDuration":672866,"Delta":211735025},{"NoteNumber":75,"Velocity":42,"Duration":111105,"SoundDuration":111105,"Delta":211845804},{"NoteNumber":67,"Velocity":45,"Duration":111757,"SoundDuration":111757,"Delta":211956910},{"NoteNumber":75,"Velocity":43,"Duration":112410,"SoundDuration":112410,"Delta":212068667},{"NoteNumber":72,"Velocity":45,"Duration":113071,"SoundDuration":113071,"Delta":212181078},{"NoteNumber":75,"Velocity":41,"Duration":113740,"SoundDuration":113740,"Delta":212294150},{"NoteNumber":63,"Velocity":55,"Duration":1374465,"SoundDuration":1374465,"Delta":212407891},{"NoteNumber":54,"Velocity":48,"Duration":1374465,"SoundDuration":1374465,"Delta":212407891},{"NoteNumber":60,"Velocity":57,"Duration":2049006,"SoundDuration":2049006,"Delta":212407891},{"NoteNumber":75,"Velocity":46,"Duration":114077,"SoundDuration":114077,"Delta":212521968},{"NoteNumber":67,"Velocity":50,"Duration":114077,"SoundDuration":114077,"Delta":212636045},{"NoteNumber":75,"Velocity":43,"Duration":114077,"SoundDuration":114077,"Delta":212750123},{"NoteNumber":68,"Velocity":45,"Duration":114077,"SoundDuration":114077,"Delta":212864200},{"NoteNumber":75,"Velocity":41,"Duration":114077,"SoundDuration":114077,"Delta":212978277},{"NoteNumber":72,"Velocity":50,"Duration":116157,"SoundDuration":116157,"Delta":213092354},{"NoteNumber":75,"Velocity":42,"Duration":115808,"SoundDuration":115808,"Delta":213208512},{"NoteNumber":67,"Velocity":45,"Duration":115460,"SoundDuration":115460,"Delta":213324320},{"NoteNumber":75,"Velocity":42,"Duration":114757,"SoundDuration":114757,"Delta":213439781},{"NoteNumber":68,"Velocity":45,"Duration":114077,"SoundDuration":114077,"Delta":213554538},{"NoteNumber":75,"Velocity":42,"Duration":113740,"SoundDuration":113740,"Delta":213668616},{"NoteNumber":63,"Velocity":50,"Duration":674541,"SoundDuration":674541,"Delta":213782356},{"NoteNumber":53,"Velocity":48,"Duration":674541,"SoundDuration":674541,"Delta":213782356},{"NoteNumber":75,"Velocity":42,"Duration":112739,"SoundDuration":112739,"Delta":213895428},{"NoteNumber":68,"Velocity":45,"Duration":112739,"SoundDuration":112739,"Delta":214008168},{"NoteNumber":75,"Velocity":45,"Duration":112739,"SoundDuration":112739,"Delta":214120907},{"NoteNumber":69,"Velocity":45,"Duration":112739,"SoundDuration":112739,"Delta":214233647},{"NoteNumber":75,"Velocity":42,"Duration":110511,"SoundDuration":110511,"Delta":214346386},{"NoteNumber":63,"Velocity":56,"Duration":656510,"SoundDuration":656510,"Delta":214456898},{"NoteNumber":72,"Velocity":42,"Duration":108283,"SoundDuration":108283,"Delta":214456898},{"NoteNumber":54,"Velocity":48,"Duration":656510,"SoundDuration":656510,"Delta":214456898},{"NoteNumber":60,"Velocity":54,"Duration":656510,"SoundDuration":656510,"Delta":214456898},{"NoteNumber":75,"Velocity":43,"Duration":108896,"SoundDuration":108896,"Delta":214565182},{"NoteNumber":68,"Velocity":45,"Duration":109206,"SoundDuration":109206,"Delta":214674078},{"NoteNumber":75,"Velocity":42,"Duration":109517,"SoundDuration":109517,"Delta":214783285},{"NoteNumber":69,"Velocity":45,"Duration":110144,"SoundDuration":110144,"Delta":214892802},{"NoteNumber":75,"Velocity":42,"Duration":110461,"SoundDuration":110461,"Delta":215002947},{"NoteNumber":62,"Velocity":53,"Duration":668598,"SoundDuration":668598,"Delta":215113408},{"NoteNumber":55,"Velocity":45,"Duration":668598,"SoundDuration":668598,"Delta":215113408},{"NoteNumber":58,"Velocity":51,"Duration":668598,"SoundDuration":668598,"Delta":215113408},{"NoteNumber":74,"Velocity":42,"Duration":111433,"SoundDuration":111433,"Delta":215224841},{"NoteNumber":69,"Velocity":45,"Duration":111432,"SoundDuration":111432,"Delta":215336274},{"NoteNumber":74,"Velocity":42,"Duration":111433,"SoundDuration":111433,"Delta":215447707},{"NoteNumber":70,"Velocity":45,"Duration":111433,"SoundDuration":111433,"Delta":215559140},{"NoteNumber":74,"Velocity":42,"Duration":111433,"SoundDuration":111433,"Delta":215670573},{"NoteNumber":62,"Velocity":54,"Duration":672866,"SoundDuration":672866,"Delta":215782006},{"NoteNumber":71,"Velocity":42,"Duration":110778,"SoundDuration":110778,"Delta":215782006},{"NoteNumber":53,"Velocity":45,"Duration":672866,"SoundDuration":672866,"Delta":215782006},{"NoteNumber":56,"Velocity":51,"Duration":672866,"SoundDuration":672866,"Delta":215782006},{"NoteNumber":74,"Velocity":42,"Duration":111105,"SoundDuration":111105,"Delta":215892785},{"NoteNumber":67,"Velocity":45,"Duration":111757,"SoundDuration":111757,"Delta":216003891},{"NoteNumber":74,"Velocity":43,"Duration":112410,"SoundDuration":112410,"Delta":216115649},{"NoteNumber":68,"Velocity":45,"Duration":113071,"SoundDuration":113071,"Delta":216228060},{"NoteNumber":74,"Velocity":41,"Duration":113740,"SoundDuration":113740,"Delta":216341132},{"NoteNumber":62,"Velocity":53,"Duration":668598,"SoundDuration":668598,"Delta":216454872},{"NoteNumber":52,"Velocity":45,"Duration":668598,"SoundDuration":668598,"Delta":216454872},{"NoteNumber":55,"Velocity":51,"Duration":668598,"SoundDuration":668598,"Delta":216454872},{"NoteNumber":74,"Velocity":42,"Duration":111433,"SoundDuration":111433,"Delta":216566305},{"NoteNumber":67,"Velocity":45,"Duration":111432,"SoundDuration":111432,"Delta":216677738},{"NoteNumber":74,"Velocity":42,"Duration":111433,"SoundDuration":111433,"Delta":216789171},{"NoteNumber":69,"Velocity":45,"Duration":111433,"SoundDuration":111433,"Delta":216900604},{"NoteNumber":74,"Velocity":42,"Duration":111433,"SoundDuration":111433,"Delta":217012037},{"NoteNumber":61,"Velocity":50,"Duration":690093,"SoundDuration":690093,"Delta":217123470},{"NoteNumber":70,"Velocity":42,"Duration":114077,"SoundDuration":114077,"Delta":217123470},{"NoteNumber":51,"Velocity":40,"Duration":690093,"SoundDuration":690093,"Delta":217123470},{"NoteNumber":55,"Velocity":45,"Duration":690093,"SoundDuration":690093,"Delta":217123470},{"NoteNumber":73,"Velocity":42,"Duration":114077,"SoundDuration":114077,"Delta":217237548},{"NoteNumber":66,"Velocity":45,"Duration":113740,"SoundDuration":113740,"Delta":217351625},{"NoteNumber":73,"Velocity":43,"Duration":114768,"SoundDuration":114768,"Delta":217465365},{"NoteNumber":67,"Velocity":45,"Duration":116867,"SoundDuration":116867,"Delta":217580134},{"NoteNumber":73,"Velocity":41,"Duration":116562,"SoundDuration":116562,"Delta":217697002},{"NoteNumber":62,"Velocity":50,"Duration":680426,"SoundDuration":680426,"Delta":217813564},{"NoteNumber":50,"Velocity":43,"Duration":1367677,"SoundDuration":1367677,"Delta":217813564},{"NoteNumber":58,"Velocity":48,"Duration":677590,"SoundDuration":677590,"Delta":217813564},{"NoteNumber":74,"Velocity":39,"Duration":113404,"SoundDuration":113404,"Delta":217926969},{"NoteNumber":66,"Velocity":42,"Duration":113404,"SoundDuration":113404,"Delta":218040373},{"NoteNumber":74,"Velocity":39,"Duration":113404,"SoundDuration":113404,"Delta":218153777},{"NoteNumber":67,"Velocity":41,"Duration":113404,"SoundDuration":113404,"Delta":218267182},{"NoteNumber":74,"Velocity":38,"Duration":113404,"SoundDuration":113404,"Delta":218380586},{"NoteNumber":58,"Velocity":50,"Duration":687251,"SoundDuration":687251,"Delta":218493990},{"NoteNumber":55,"Velocity":46,"Duration":687251,"SoundDuration":687251,"Delta":218493990},{"NoteNumber":70,"Velocity":37,"Duration":111105,"SoundDuration":111105,"Delta":218604769},{"NoteNumber":61,"Velocity":40,"Duration":112086,"SoundDuration":112086,"Delta":218715875},{"NoteNumber":70,"Velocity":38,"Duration":114768,"SoundDuration":114768,"Delta":218827961},{"NoteNumber":62,"Velocity":39,"Duration":117582,"SoundDuration":117582,"Delta":218942730},{"NoteNumber":70,"Velocity":36,"Duration":120929,"SoundDuration":120929,"Delta":219060312},{"NoteNumber":60,"Velocity":45,"Duration":689246,"SoundDuration":689246,"Delta":219181242},{"NoteNumber":50,"Velocity":39,"Duration":1410711,"SoundDuration":1410711,"Delta":219181242},{"NoteNumber":57,"Velocity":45,"Duration":686342,"SoundDuration":686342,"Delta":219181242},{"NoteNumber":72,"Velocity":36,"Duration":114757,"SoundDuration":114757,"Delta":219296000},{"NoteNumber":63,"Velocity":38,"Duration":114757,"SoundDuration":114757,"Delta":219410758},{"NoteNumber":72,"Velocity":36,"Duration":114757,"SoundDuration":114757,"Delta":219525515},{"NoteNumber":62,"Velocity":37,"Duration":114757,"SoundDuration":114757,"Delta":219640273},{"NoteNumber":72,"Velocity":35,"Duration":115457,"SoundDuration":115457,"Delta":219755031},{"NoteNumber":57,"Velocity":45,"Duration":721465,"SoundDuration":721465,"Delta":219870489},{"NoteNumber":54,"Velocity":42,"Duration":721465,"SoundDuration":721465,"Delta":219870489},{"NoteNumber":69,"Velocity":35,"Duration":117220,"SoundDuration":117220,"Delta":219986999},{"NoteNumber":63,"Velocity":36,"Duration":117577,"SoundDuration":117577,"Delta":220104220},{"NoteNumber":69,"Velocity":35,"Duration":118683,"SoundDuration":118683,"Delta":220221798},{"NoteNumber":62,"Velocity":36,"Duration":123262,"SoundDuration":123262,"Delta":220340481},{"NoteNumber":69,"Velocity":33,"Duration":128209,"SoundDuration":128209,"Delta":220463744},{"NoteNumber":58,"Velocity":45,"Duration":686342,"SoundDuration":686342,"Delta":220591954},{"NoteNumber":31,"Velocity":36,"Duration":689246,"SoundDuration":689246,"Delta":220591954},{"NoteNumber":43,"Velocity":44,"Duration":689246,"SoundDuration":689246,"Delta":220591954},{"NoteNumber":67,"Velocity":30,"Duration":114757,"SoundDuration":114757,"Delta":220706712},{"NoteNumber":70,"Velocity":36,"Duration":114757,"SoundDuration":114757,"Delta":220706712},{"NoteNumber":61,"Velocity":38,"Duration":114757,"SoundDuration":114757,"Delta":220821470},{"NoteNumber":67,"Velocity":29,"Duration":114757,"SoundDuration":114757,"Delta":220936227},{"NoteNumber":70,"Velocity":36,"Duration":114757,"SoundDuration":114757,"Delta":220936227},{"NoteNumber":62,"Velocity":37,"Duration":114757,"SoundDuration":114757,"Delta":221050985},{"NoteNumber":67,"Velocity":29,"Duration":115457,"SoundDuration":115457,"Delta":221165743},{"NoteNumber":70,"Velocity":36,"Duration":115457,"SoundDuration":115457,"Delta":221165743},{"NoteNumber":62,"Velocity":47,"Duration":648649,"SoundDuration":648649,"Delta":221281201},{"NoteNumber":50,"Velocity":34,"Duration":648649,"SoundDuration":648649,"Delta":221281201},{"NoteNumber":55,"Velocity":34,"Duration":648649,"SoundDuration":648649,"Delta":221281201},{"NoteNumber":58,"Velocity":40,"Duration":645946,"SoundDuration":645946,"Delta":221281201},{"NoteNumber":70,"Velocity":30,"Duration":108108,"SoundDuration":108108,"Delta":221389309},{"NoteNumber":74,"Velocity":36,"Duration":108108,"SoundDuration":108108,"Delta":221389309},{"NoteNumber":66,"Velocity":43,"Duration":108108,"SoundDuration":108108,"Delta":221497417},{"NoteNumber":70,"Velocity":28,"Duration":108108,"SoundDuration":108108,"Delta":221605525},{"NoteNumber":74,"Velocity":36,"Duration":108108,"SoundDuration":108108,"Delta":221605525},{"NoteNumber":67,"Velocity":43,"Duration":108108,"SoundDuration":108108,"Delta":221713633},{"NoteNumber":70,"Velocity":31,"Duration":108108,"SoundDuration":108108,"Delta":221821742},{"NoteNumber":74,"Velocity":36,"Duration":108108,"SoundDuration":108108,"Delta":221821742},{"NoteNumber":58,"Velocity":50,"Duration":665812,"SoundDuration":665812,"Delta":221929850},{"NoteNumber":31,"Velocity":40,"Duration":668598,"SoundDuration":668598,"Delta":221929850},{"NoteNumber":43,"Velocity":47,"Duration":668598,"SoundDuration":668598,"Delta":221929850},{"NoteNumber":67,"Velocity":34,"Duration":111433,"SoundDuration":111433,"Delta":222041283},{"NoteNumber":70,"Velocity":39,"Duration":111433,"SoundDuration":111433,"Delta":222041283},{"NoteNumber":61,"Velocity":42,"Duration":111432,"SoundDuration":111432,"Delta":222152716},{"NoteNumber":67,"Velocity":33,"Duration":111433,"SoundDuration":111433,"Delta":222264149},{"NoteNumber":70,"Velocity":40,"Duration":111433,"SoundDuration":111433,"Delta":222264149},{"NoteNumber":62,"Velocity":42,"Duration":111433,"SoundDuration":111433,"Delta":222375582},{"NoteNumber":67,"Velocity":33,"Duration":111433,"SoundDuration":111433,"Delta":222487015},{"NoteNumber":70,"Velocity":39,"Duration":111433,"SoundDuration":111433,"Delta":222487015},{"NoteNumber":62,"Velocity":54,"Duration":678459,"SoundDuration":678459,"Delta":222598448},{"NoteNumber":50,"Velocity":38,"Duration":678459,"SoundDuration":678459,"Delta":222598448},{"NoteNumber":55,"Velocity":38,"Duration":678459,"SoundDuration":678459,"Delta":222598448},{"NoteNumber":58,"Velocity":45,"Duration":678459,"SoundDuration":678459,"Delta":222598448},{"NoteNumber":70,"Velocity":34,"Duration":109289,"SoundDuration":109289,"Delta":222707737},{"NoteNumber":74,"Velocity":41,"Duration":109289,"SoundDuration":109289,"Delta":222707737},{"NoteNumber":66,"Velocity":47,"Duration":109289,"SoundDuration":109289,"Delta":222817027},{"NoteNumber":70,"Velocity":32,"Duration":116863,"SoundDuration":116863,"Delta":222926317},{"NoteNumber":74,"Velocity":41,"Duration":116863,"SoundDuration":116863,"Delta":222926317},{"NoteNumber":67,"Velocity":49,"Duration":116863,"SoundDuration":116863,"Delta":223043180},{"NoteNumber":70,"Velocity":34,"Duration":116863,"SoundDuration":116863,"Delta":223160043},{"NoteNumber":74,"Velocity":40,"Duration":116863,"SoundDuration":116863,"Delta":223160043},{"NoteNumber":62,"Velocity":55,"Duration":643303,"SoundDuration":643303,"Delta":223276907},{"NoteNumber":31,"Velocity":44,"Duration":645994,"SoundDuration":645994,"Delta":223276907},{"NoteNumber":43,"Velocity":53,"Duration":645994,"SoundDuration":645994,"Delta":223276907},{"NoteNumber":71,"Velocity":36,"Duration":107665,"SoundDuration":107665,"Delta":223384573},{"NoteNumber":74,"Velocity":43,"Duration":107665,"SoundDuration":107665,"Delta":223384573},{"NoteNumber":66,"Velocity":47,"Duration":107665,"SoundDuration":107665,"Delta":223492238},{"NoteNumber":71,"Velocity":36,"Duration":107665,"SoundDuration":107665,"Delta":223599904},{"NoteNumber":74,"Velocity":45,"Duration":107665,"SoundDuration":107665,"Delta":223599904},{"NoteNumber":67,"Velocity":46,"Duration":107665,"SoundDuration":107665,"Delta":223707570},{"NoteNumber":71,"Velocity":37,"Duration":107665,"SoundDuration":107665,"Delta":223815236},{"NoteNumber":74,"Velocity":44,"Duration":107665,"SoundDuration":107665,"Delta":223815236},{"NoteNumber":65,"Velocity":61,"Duration":696364,"SoundDuration":696364,"Delta":223922902},{"NoteNumber":55,"Velocity":42,"Duration":696364,"SoundDuration":696364,"Delta":223922902},{"NoteNumber":53,"Velocity":42,"Duration":696364,"SoundDuration":696364,"Delta":223922902},{"NoteNumber":59,"Velocity":42,"Duration":696364,"SoundDuration":696364,"Delta":223922902},{"NoteNumber":62,"Velocity":50,"Duration":696364,"SoundDuration":696364,"Delta":223922902},{"NoteNumber":74,"Velocity":37,"Duration":107665,"SoundDuration":107665,"Delta":224030568},{"NoteNumber":77,"Velocity":45,"Duration":107665,"SoundDuration":107665,"Delta":224030568},{"NoteNumber":68,"Velocity":50,"Duration":107665,"SoundDuration":107665,"Delta":224138233},{"NoteNumber":74,"Velocity":36,"Duration":124455,"SoundDuration":124455,"Delta":224245899},{"NoteNumber":77,"Velocity":45,"Duration":124455,"SoundDuration":124455,"Delta":224245899},{"NoteNumber":67,"Velocity":51,"Duration":124455,"SoundDuration":124455,"Delta":224370355},{"NoteNumber":74,"Velocity":37,"Duration":124455,"SoundDuration":124455,"Delta":224494810},{"NoteNumber":77,"Velocity":45,"Duration":124455,"SoundDuration":124455,"Delta":224494810},{"NoteNumber":67,"Velocity":62,"Duration":655443,"SoundDuration":655443,"Delta":224619266},{"NoteNumber":31,"Velocity":50,"Duration":655443,"SoundDuration":655443,"Delta":224619266},{"NoteNumber":43,"Velocity":60,"Duration":655443,"SoundDuration":655443,"Delta":224619266},{"NoteNumber":75,"Velocity":41,"Duration":111433,"SoundDuration":111433,"Delta":224730699},{"NoteNumber":79,"Velocity":49,"Duration":111433,"SoundDuration":111433,"Delta":224730699},{"NoteNumber":71,"Velocity":52,"Duration":111432,"SoundDuration":111432,"Delta":224842132},{"NoteNumber":75,"Velocity":40,"Duration":106951,"SoundDuration":106951,"Delta":224953565},{"NoteNumber":79,"Velocity":49,"Duration":106951,"SoundDuration":106951,"Delta":224953565},{"NoteNumber":72,"Velocity":50,"Duration":106951,"SoundDuration":106951,"Delta":225060517},{"NoteNumber":75,"Velocity":39,"Duration":107240,"SoundDuration":107240,"Delta":225167468},{"NoteNumber":79,"Velocity":46,"Duration":107240,"SoundDuration":107240,"Delta":225167468},{"NoteNumber":63,"Velocity":63,"Duration":711564,"SoundDuration":711564,"Delta":225274709},{"NoteNumber":51,"Velocity":45,"Duration":711564,"SoundDuration":711564,"Delta":225274709},{"NoteNumber":55,"Velocity":45,"Duration":711564,"SoundDuration":711564,"Delta":225274709},{"NoteNumber":60,"Velocity":53,"Duration":711564,"SoundDuration":711564,"Delta":225274709},{"NoteNumber":72,"Velocity":39,"Duration":112049,"SoundDuration":112049,"Delta":225384302},{"NoteNumber":75,"Velocity":46,"Duration":112049,"SoundDuration":112049,"Delta":225384302},{"NoteNumber":66,"Velocity":51,"Duration":114123,"SoundDuration":114123,"Delta":225496352},{"NoteNumber":72,"Velocity":36,"Duration":125266,"SoundDuration":125266,"Delta":225610475},{"NoteNumber":75,"Velocity":45,"Duration":125266,"SoundDuration":125266,"Delta":225610475},{"NoteNumber":67,"Velocity":51,"Duration":125266,"SoundDuration":125266,"Delta":225735741},{"NoteNumber":72,"Velocity":37,"Duration":125266,"SoundDuration":125266,"Delta":225861007},{"NoteNumber":75,"Velocity":45,"Duration":125266,"SoundDuration":125266,"Delta":225861007},{"NoteNumber":62,"Velocity":58,"Duration":684462,"SoundDuration":684462,"Delta":225986273},{"NoteNumber":38,"Velocity":55,"Duration":684462,"SoundDuration":684462,"Delta":225986273},{"NoteNumber":70,"Velocity":37,"Duration":114077,"SoundDuration":114077,"Delta":226100351},{"NoteNumber":74,"Velocity":45,"Duration":114077,"SoundDuration":114077,"Delta":226100351},{"NoteNumber":66,"Velocity":48,"Duration":114077,"SoundDuration":114077,"Delta":226214428},{"NoteNumber":70,"Velocity":36,"Duration":114077,"SoundDuration":114077,"Delta":226328505},{"NoteNumber":74,"Velocity":44,"Duration":114077,"SoundDuration":114077,"Delta":226328505},{"NoteNumber":67,"Velocity":45,"Duration":114077,"SoundDuration":114077,"Delta":226442582},{"NoteNumber":70,"Velocity":36,"Duration":114077,"SoundDuration":114077,"Delta":226556659},{"NoteNumber":74,"Velocity":42,"Duration":114077,"SoundDuration":114077,"Delta":226556659},{"NoteNumber":58,"Velocity":56,"Duration":721839,"SoundDuration":721839,"Delta":226670736},{"NoteNumber":50,"Velocity":39,"Duration":721839,"SoundDuration":721839,"Delta":226670736},{"NoteNumber":55,"Velocity":46,"Duration":721839,"SoundDuration":721839,"Delta":226670736},{"NoteNumber":67,"Velocity":34,"Duration":116157,"SoundDuration":116157,"Delta":226786894},{"NoteNumber":70,"Velocity":41,"Duration":116157,"SoundDuration":116157,"Delta":226786894},{"NoteNumber":61,"Velocity":46,"Duration":116157,"SoundDuration":116157,"Delta":226903051},{"NoteNumber":67,"Velocity":32,"Duration":124455,"SoundDuration":124455,"Delta":227019209},{"NoteNumber":70,"Velocity":41,"Duration":124455,"SoundDuration":124455,"Delta":227019209},{"NoteNumber":62,"Velocity":45,"Duration":124455,"SoundDuration":124455,"Delta":227143664},{"NoteNumber":67,"Velocity":32,"Duration":124455,"SoundDuration":124455,"Delta":227268120},{"NoteNumber":70,"Velocity":38,"Duration":124455,"SoundDuration":124455,"Delta":227268120},{"NoteNumber":60,"Velocity":52,"Duration":705466,"SoundDuration":705466,"Delta":227392575},{"NoteNumber":50,"Velocity":36,"Duration":705466,"SoundDuration":705466,"Delta":227392575},{"NoteNumber":57,"Velocity":47,"Duration":702527,"SoundDuration":702527,"Delta":227392575},{"NoteNumber":69,"Velocity":34,"Duration":117577,"SoundDuration":117577,"Delta":227510153},{"NoteNumber":72,"Velocity":40,"Duration":117577,"SoundDuration":117577,"Delta":227510153},{"NoteNumber":63,"Velocity":42,"Duration":117577,"SoundDuration":117577,"Delta":227627731},{"NoteNumber":69,"Velocity":32,"Duration":117577,"SoundDuration":117577,"Delta":227745309},{"NoteNumber":72,"Velocity":39,"Duration":117577,"SoundDuration":117577,"Delta":227745309},{"NoteNumber":62,"Velocity":40,"Duration":117577,"SoundDuration":117577,"Delta":227862887},{"NoteNumber":69,"Velocity":30,"Duration":117577,"SoundDuration":117577,"Delta":227980465},{"NoteNumber":72,"Velocity":36,"Duration":117577,"SoundDuration":117577,"Delta":227980465},{"NoteNumber":57,"Velocity":50,"Duration":733145,"SoundDuration":733145,"Delta":228098042},{"NoteNumber":50,"Velocity":34,"Duration":733145,"SoundDuration":733145,"Delta":228098042},{"NoteNumber":54,"Velocity":41,"Duration":733145,"SoundDuration":733145,"Delta":228098042},{"NoteNumber":66,"Velocity":30,"Duration":120164,"SoundDuration":120164,"Delta":228217832},{"NoteNumber":69,"Velocity":36,"Duration":120164,"SoundDuration":120164,"Delta":228217832},{"NoteNumber":63,"Velocity":42,"Duration":121300,"SoundDuration":121300,"Delta":228337996},{"NoteNumber":66,"Velocity":27,"Duration":122460,"SoundDuration":122460,"Delta":228459297},{"NoteNumber":69,"Velocity":36,"Duration":122460,"SoundDuration":122460,"Delta":228459297},{"NoteNumber":62,"Velocity":41,"Duration":125271,"SoundDuration":125271,"Delta":228581757},{"NoteNumber":66,"Velocity":28,"Duration":124159,"SoundDuration":124159,"Delta":228707028},{"NoteNumber":69,"Velocity":34,"Duration":124159,"SoundDuration":124159,"Delta":228707028},{"NoteNumber":58,"Velocity":45,"Duration":693177,"SoundDuration":693177,"Delta":228831188},{"NoteNumber":31,"Velocity":36,"Duration":696081,"SoundDuration":696081,"Delta":228831188},{"NoteNumber":43,"Velocity":44,"Duration":696081,"SoundDuration":696081,"Delta":228831188},{"NoteNumber":67,"Velocity":30,"Duration":117582,"SoundDuration":117582,"Delta":228950606},{"NoteNumber":70,"Velocity":36,"Duration":117582,"SoundDuration":117582,"Delta":228950606},{"NoteNumber":61,"Velocity":38,"Duration":115808,"SoundDuration":115808,"Delta":229068189},{"NoteNumber":67,"Velocity":29,"Duration":114077,"SoundDuration":114077,"Delta":229183997},{"NoteNumber":70,"Velocity":36,"Duration":114077,"SoundDuration":114077,"Delta":229183997},{"NoteNumber":62,"Velocity":37,"Duration":114077,"SoundDuration":114077,"Delta":229298075},{"NoteNumber":67,"Velocity":29,"Duration":115117,"SoundDuration":115117,"Delta":229412152},{"NoteNumber":70,"Velocity":36,"Duration":115117,"SoundDuration":115117,"Delta":229412152},{"NoteNumber":62,"Velocity":48,"Duration":645608,"SoundDuration":645608,"Delta":229527269},{"NoteNumber":50,"Velocity":34,"Duration":645608,"SoundDuration":645608,"Delta":229527269},{"NoteNumber":55,"Velocity":34,"Duration":645608,"SoundDuration":645608,"Delta":229527269},{"NoteNumber":58,"Velocity":40,"Duration":642920,"SoundDuration":642920,"Delta":229527269},{"NoteNumber":70,"Velocity":30,"Duration":108405,"SoundDuration":108405,"Delta":229638077},{"NoteNumber":74,"Velocity":36,"Duration":108405,"SoundDuration":108405,"Delta":229638077},{"NoteNumber":66,"Velocity":43,"Duration":106243,"SoundDuration":106243,"Delta":229746482},{"NoteNumber":70,"Velocity":28,"Duration":106101,"SoundDuration":106101,"Delta":229852726},{"NoteNumber":74,"Velocity":36,"Duration":106101,"SoundDuration":106101,"Delta":229852726},{"NoteNumber":67,"Velocity":43,"Duration":106667,"SoundDuration":106667,"Delta":229958827},{"NoteNumber":70,"Velocity":31,"Duration":107383,"SoundDuration":107383,"Delta":230065495},{"NoteNumber":74,"Velocity":36,"Duration":107383,"SoundDuration":107383,"Delta":230065495},{"NoteNumber":58,"Velocity":50,"Duration":661981,"SoundDuration":661981,"Delta":230172878},{"NoteNumber":31,"Velocity":40,"Duration":664698,"SoundDuration":664698,"Delta":230172878},{"NoteNumber":43,"Velocity":47,"Duration":664698,"SoundDuration":664698,"Delta":230172878},{"NoteNumber":67,"Velocity":34,"Duration":111888,"SoundDuration":111888,"Delta":230285498},{"NoteNumber":70,"Velocity":39,"Duration":111888,"SoundDuration":111888,"Delta":230285498},{"NoteNumber":61,"Velocity":42,"Duration":111111,"SoundDuration":111111,"Delta":230397387},{"NoteNumber":67,"Velocity":33,"Duration":110345,"SoundDuration":110345,"Delta":230508498},{"NoteNumber":70,"Velocity":40,"Duration":110345,"SoundDuration":110345,"Delta":230508498},{"NoteNumber":62,"Velocity":42,"Duration":109740,"SoundDuration":109740,"Delta":230618844},{"NoteNumber":67,"Velocity":33,"Duration":108992,"SoundDuration":108992,"Delta":230728584},{"NoteNumber":70,"Velocity":39,"Duration":108992,"SoundDuration":108992,"Delta":230728584},{"NoteNumber":62,"Velocity":54,"Duration":675061,"SoundDuration":675061,"Delta":230837576},{"NoteNumber":50,"Velocity":38,"Duration":675061,"SoundDuration":675061,"Delta":230837576},{"NoteNumber":55,"Velocity":38,"Duration":675061,"SoundDuration":675061,"Delta":230837576},{"NoteNumber":58,"Velocity":45,"Duration":675061,"SoundDuration":675061,"Delta":230837576},{"NoteNumber":70,"Velocity":34,"Duration":108108,"SoundDuration":108108,"Delta":230945831},{"NoteNumber":74,"Velocity":41,"Duration":108108,"SoundDuration":108108,"Delta":230945831},{"NoteNumber":66,"Velocity":46,"Duration":108108,"SoundDuration":108108,"Delta":231053940},{"NoteNumber":70,"Velocity":32,"Duration":116863,"SoundDuration":116863,"Delta":231162048},{"NoteNumber":74,"Velocity":41,"Duration":116863,"SoundDuration":116863,"Delta":231162048},{"NoteNumber":67,"Velocity":47,"Duration":116863,"SoundDuration":116863,"Delta":231278911},{"NoteNumber":70,"Velocity":34,"Duration":116863,"SoundDuration":116863,"Delta":231395774},{"NoteNumber":74,"Velocity":40,"Duration":116863,"SoundDuration":116863,"Delta":231395774},{"NoteNumber":62,"Velocity":55,"Duration":643722,"SoundDuration":643722,"Delta":231512638},{"NoteNumber":31,"Velocity":44,"Duration":646355,"SoundDuration":646355,"Delta":231512638},{"NoteNumber":43,"Velocity":53,"Duration":646355,"SoundDuration":646355,"Delta":231512638},{"NoteNumber":71,"Velocity":36,"Duration":110144,"SoundDuration":110144,"Delta":231622782},{"NoteNumber":74,"Velocity":43,"Duration":110144,"SoundDuration":110144,"Delta":231622782},{"NoteNumber":66,"Velocity":47,"Duration":110144,"SoundDuration":110144,"Delta":231732926},{"NoteNumber":71,"Velocity":36,"Duration":105307,"SoundDuration":105307,"Delta":231843071},{"NoteNumber":74,"Velocity":45,"Duration":105307,"SoundDuration":105307,"Delta":231843071},{"NoteNumber":67,"Velocity":46,"Duration":105307,"SoundDuration":105307,"Delta":231948378},{"NoteNumber":71,"Velocity":37,"Duration":105307,"SoundDuration":105307,"Delta":232053686},{"NoteNumber":74,"Velocity":44,"Duration":105307,"SoundDuration":105307,"Delta":232053686},{"NoteNumber":65,"Velocity":61,"Duration":689289,"SoundDuration":689289,"Delta":232158993},{"NoteNumber":55,"Velocity":42,"Duration":689289,"SoundDuration":689289,"Delta":232158993},{"NoteNumber":53,"Velocity":42,"Duration":689289,"SoundDuration":689289,"Delta":232158993},{"NoteNumber":59,"Velocity":42,"Duration":689289,"SoundDuration":689289,"Delta":232158993},{"NoteNumber":62,"Velocity":50,"Duration":689289,"SoundDuration":689289,"Delta":232158993},{"NoteNumber":74,"Velocity":37,"Duration":105307,"SoundDuration":105307,"Delta":232264301},{"NoteNumber":77,"Velocity":45,"Duration":105307,"SoundDuration":105307,"Delta":232264301},{"NoteNumber":68,"Velocity":50,"Duration":105307,"SoundDuration":105307,"Delta":232369608},{"NoteNumber":74,"Velocity":36,"Duration":124455,"SoundDuration":124455,"Delta":232474916},{"NoteNumber":77,"Velocity":45,"Duration":124455,"SoundDuration":124455,"Delta":232474916},{"NoteNumber":67,"Velocity":52,"Duration":124455,"SoundDuration":124455,"Delta":232599371},{"NoteNumber":74,"Velocity":37,"Duration":124455,"SoundDuration":124455,"Delta":232723827},{"NoteNumber":77,"Velocity":45,"Duration":124455,"SoundDuration":124455,"Delta":232723827},{"NoteNumber":67,"Velocity":62,"Duration":641710,"SoundDuration":641710,"Delta":232848282},{"NoteNumber":31,"Velocity":50,"Duration":641710,"SoundDuration":641710,"Delta":232848282},{"NoteNumber":43,"Velocity":60,"Duration":641710,"SoundDuration":641710,"Delta":232848282},{"NoteNumber":75,"Velocity":41,"Duration":106951,"SoundDuration":106951,"Delta":232955234},{"NoteNumber":79,"Velocity":49,"Duration":106951,"SoundDuration":106951,"Delta":232955234},{"NoteNumber":71,"Velocity":52,"Duration":106951,"SoundDuration":106951,"Delta":233062186},{"NoteNumber":75,"Velocity":40,"Duration":106951,"SoundDuration":106951,"Delta":233169138},{"NoteNumber":79,"Velocity":49,"Duration":106951,"SoundDuration":106951,"Delta":233169138},{"NoteNumber":72,"Velocity":50,"Duration":106951,"SoundDuration":106951,"Delta":233276090},{"NoteNumber":75,"Velocity":39,"Duration":106951,"SoundDuration":106951,"Delta":233383041},{"NoteNumber":79,"Velocity":46,"Duration":106951,"SoundDuration":106951,"Delta":233383041},{"NoteNumber":63,"Velocity":63,"Duration":685074,"SoundDuration":685074,"Delta":233489993},{"NoteNumber":51,"Velocity":45,"Duration":685074,"SoundDuration":685074,"Delta":233489993},{"NoteNumber":55,"Velocity":45,"Duration":685074,"SoundDuration":685074,"Delta":233489993},{"NoteNumber":60,"Velocity":53,"Duration":685074,"SoundDuration":685074,"Delta":233489993},{"NoteNumber":72,"Velocity":39,"Duration":110043,"SoundDuration":110043,"Delta":233598544},{"NoteNumber":75,"Velocity":46,"Duration":110043,"SoundDuration":110043,"Delta":233598544},{"NoteNumber":66,"Velocity":52,"Duration":111576,"SoundDuration":111576,"Delta":233708587},{"NoteNumber":72,"Velocity":36,"Duration":118301,"SoundDuration":118301,"Delta":233820164},{"NoteNumber":75,"Velocity":45,"Duration":118301,"SoundDuration":118301,"Delta":233820164},{"NoteNumber":67,"Velocity":50,"Duration":118301,"SoundDuration":118301,"Delta":233938465},{"NoteNumber":72,"Velocity":37,"Duration":118301,"SoundDuration":118301,"Delta":234056766},{"NoteNumber":75,"Velocity":45,"Duration":118301,"SoundDuration":118301,"Delta":234056766},{"NoteNumber":62,"Velocity":58,"Duration":680426,"SoundDuration":680426,"Delta":234175067},{"NoteNumber":38,"Velocity":55,"Duration":680426,"SoundDuration":680426,"Delta":234175067},{"NoteNumber":70,"Velocity":37,"Duration":113404,"SoundDuration":113404,"Delta":234288472},{"NoteNumber":74,"Velocity":45,"Duration":113404,"SoundDuration":113404,"Delta":234288472},{"NoteNumber":66,"Velocity":48,"Duration":113404,"SoundDuration":113404,"Delta":234401876},{"NoteNumber":70,"Velocity":36,"Duration":113404,"SoundDuration":113404,"Delta":234515280},{"NoteNumber":74,"Velocity":44,"Duration":113404,"SoundDuration":113404,"Delta":234515280},{"NoteNumber":67,"Velocity":45,"Duration":113404,"SoundDuration":113404,"Delta":234628685},{"NoteNumber":70,"Velocity":36,"Duration":113404,"SoundDuration":113404,"Delta":234742089},{"NoteNumber":74,"Velocity":42,"Duration":113404,"SoundDuration":113404,"Delta":234742089},{"NoteNumber":58,"Velocity":56,"Duration":721839,"SoundDuration":721839,"Delta":234855493},{"NoteNumber":50,"Velocity":39,"Duration":721839,"SoundDuration":721839,"Delta":234855493},{"NoteNumber":55,"Velocity":46,"Duration":721839,"SoundDuration":721839,"Delta":234855493},{"NoteNumber":67,"Velocity":34,"Duration":116157,"SoundDuration":116157,"Delta":234971651},{"NoteNumber":70,"Velocity":41,"Duration":116157,"SoundDuration":116157,"Delta":234971651},{"NoteNumber":61,"Velocity":47,"Duration":116157,"SoundDuration":116157,"Delta":235087808},{"NoteNumber":67,"Velocity":32,"Duration":124455,"SoundDuration":124455,"Delta":235203966},{"NoteNumber":70,"Velocity":41,"Duration":124455,"SoundDuration":124455,"Delta":235203966},{"NoteNumber":62,"Velocity":47,"Duration":124455,"SoundDuration":124455,"Delta":235328421},{"NoteNumber":67,"Velocity":32,"Duration":124455,"SoundDuration":124455,"Delta":235452877},{"NoteNumber":70,"Velocity":38,"Duration":124455,"SoundDuration":124455,"Delta":235452877},{"NoteNumber":60,"Velocity":52,"Duration":705466,"SoundDuration":705466,"Delta":235577332},{"NoteNumber":50,"Velocity":36,"Duration":705466,"SoundDuration":705466,"Delta":235577332},{"NoteNumber":57,"Velocity":47,"Duration":702527,"SoundDuration":702527,"Delta":235577332},{"NoteNumber":69,"Velocity":34,"Duration":117577,"SoundDuration":117577,"Delta":235694910},{"NoteNumber":72,"Velocity":40,"Duration":117577,"SoundDuration":117577,"Delta":235694910},{"NoteNumber":63,"Velocity":42,"Duration":117577,"SoundDuration":117577,"Delta":235812488},{"NoteNumber":69,"Velocity":32,"Duration":117577,"SoundDuration":117577,"Delta":235930066},{"NoteNumber":72,"Velocity":39,"Duration":117577,"SoundDuration":117577,"Delta":235930066},{"NoteNumber":62,"Velocity":40,"Duration":117577,"SoundDuration":117577,"Delta":236047644},{"NoteNumber":69,"Velocity":30,"Duration":117577,"SoundDuration":117577,"Delta":236165222},{"NoteNumber":72,"Velocity":36,"Duration":117577,"SoundDuration":117577,"Delta":236165222},{"NoteNumber":57,"Velocity":50,"Duration":718735,"SoundDuration":718735,"Delta":236282799},{"NoteNumber":50,"Velocity":34,"Duration":718735,"SoundDuration":718735,"Delta":236282799},{"NoteNumber":54,"Velocity":41,"Duration":718735,"SoundDuration":718735,"Delta":236282799},{"NoteNumber":66,"Velocity":30,"Duration":119789,"SoundDuration":119789,"Delta":236402589},{"NoteNumber":69,"Velocity":36,"Duration":119789,"SoundDuration":119789,"Delta":236402589},{"NoteNumber":63,"Velocity":42,"Duration":119789,"SoundDuration":119789,"Delta":236522378},{"NoteNumber":66,"Velocity":27,"Duration":119789,"SoundDuration":119789,"Delta":236642167},{"NoteNumber":69,"Velocity":36,"Duration":119789,"SoundDuration":119789,"Delta":236642167},{"NoteNumber":62,"Velocity":41,"Duration":119789,"SoundDuration":119789,"Delta":236761956},{"NoteNumber":66,"Velocity":28,"Duration":119789,"SoundDuration":119789,"Delta":236881745},{"NoteNumber":69,"Velocity":34,"Duration":119789,"SoundDuration":119789,"Delta":236881745},{"NoteNumber":62,"Velocity":51,"Duration":683876,"SoundDuration":683876,"Delta":237001534},{"NoteNumber":67,"Velocity":51,"Duration":683876,"SoundDuration":683876,"Delta":237001534},{"NoteNumber":58,"Velocity":45,"Duration":114077,"SoundDuration":114077,"Delta":237001534},{"NoteNumber":55,"Velocity":39,"Duration":114077,"SoundDuration":114077,"Delta":237115612},{"NoteNumber":58,"Velocity":44,"Duration":114077,"SoundDuration":114077,"Delta":237229689},{"NoteNumber":55,"Velocity":41,"Duration":114077,"SoundDuration":114077,"Delta":237343766},{"NoteNumber":58,"Velocity":49,"Duration":114077,"SoundDuration":114077,"Delta":237457843},{"NoteNumber":55,"Velocity":46,"Duration":113490,"SoundDuration":113490,"Delta":237571920},{"NoteNumber":62,"Velocity":56,"Duration":665149,"SoundDuration":665149,"Delta":237685411},{"NoteNumber":65,"Velocity":56,"Duration":665149,"SoundDuration":665149,"Delta":237685411},{"NoteNumber":59,"Velocity":53,"Duration":111731,"SoundDuration":111731,"Delta":237685411},{"NoteNumber":55,"Velocity":47,"Duration":111421,"SoundDuration":111421,"Delta":237797143},{"NoteNumber":59,"Velocity":53,"Duration":111111,"SoundDuration":111111,"Delta":237908564},{"NoteNumber":55,"Velocity":50,"Duration":110497,"SoundDuration":110497,"Delta":238019676},{"NoteNumber":59,"Velocity":54,"Duration":110193,"SoundDuration":110193,"Delta":238130173},{"NoteNumber":55,"Velocity":50,"Duration":110193,"SoundDuration":110193,"Delta":238240366},{"NoteNumber":64,"Velocity":62,"Duration":657257,"SoundDuration":657257,"Delta":238350560},{"NoteNumber":60,"Velocity":59,"Duration":110497,"SoundDuration":110497,"Delta":238350560},{"NoteNumber":55,"Velocity":52,"Duration":110041,"SoundDuration":110041,"Delta":238461057},{"NoteNumber":60,"Velocity":54,"Duration":109740,"SoundDuration":109740,"Delta":238571099},{"NoteNumber":55,"Velocity":45,"Duration":109289,"SoundDuration":109289,"Delta":238680839},{"NoteNumber":60,"Velocity":51,"Duration":108992,"SoundDuration":108992,"Delta":238790129},{"NoteNumber":55,"Velocity":44,"Duration":108695,"SoundDuration":108695,"Delta":238899121},{"NoteNumber":91,"Velocity":72,"Duration":673169,"SoundDuration":673169,"Delta":239007817},{"NoteNumber":79,"Velocity":62,"Duration":673169,"SoundDuration":673169,"Delta":239007817},{"NoteNumber":63,"Velocity":58,"Duration":673169,"SoundDuration":673169,"Delta":239007817},{"NoteNumber":60,"Velocity":64,"Duration":108108,"SoundDuration":108108,"Delta":239007817},{"NoteNumber":55,"Velocity":50,"Duration":108108,"SoundDuration":108108,"Delta":239115925},{"NoteNumber":60,"Velocity":60,"Duration":108108,"SoundDuration":108108,"Delta":239224033},{"NoteNumber":55,"Velocity":50,"Duration":108108,"SoundDuration":108108,"Delta":239332142},{"NoteNumber":60,"Velocity":56,"Duration":116281,"SoundDuration":116281,"Delta":239440250},{"NoteNumber":55,"Velocity":46,"Duration":1455967,"SoundDuration":1455967,"Delta":239556532},{"NoteNumber":78,"Velocity":59,"Duration":991298,"SoundDuration":991298,"Delta":239680987},{"NoteNumber":90,"Velocity":70,"Duration":991298,"SoundDuration":991298,"Delta":239680987},{"NoteNumber":66,"Velocity":58,"Duration":1331512,"SoundDuration":1331512,"Delta":239680987},{"NoteNumber":57,"Velocity":51,"Duration":1331512,"SoundDuration":1331512,"Delta":239680987},{"NoteNumber":63,"Velocity":63,"Duration":110144,"SoundDuration":110144,"Delta":239680987},{"NoteNumber":60,"Velocity":48,"Duration":110144,"SoundDuration":110144,"Delta":239791131},{"NoteNumber":63,"Velocity":56,"Duration":110144,"SoundDuration":110144,"Delta":239901276},{"NoteNumber":60,"Velocity":48,"Duration":110144,"SoundDuration":110144,"Delta":240011420},{"NoteNumber":63,"Velocity":54,"Duration":110144,"SoundDuration":110144,"Delta":240121564},{"NoteNumber":60,"Velocity":45,"Duration":110144,"SoundDuration":110144,"Delta":240231709},{"NoteNumber":63,"Velocity":52,"Duration":110144,"SoundDuration":110144,"Delta":240341853},{"NoteNumber":60,"Velocity":39,"Duration":110144,"SoundDuration":110144,"Delta":240451997},{"NoteNumber":63,"Velocity":47,"Duration":110144,"SoundDuration":110144,"Delta":240562142},{"NoteNumber":75,"Velocity":57,"Duration":340213,"SoundDuration":340213,"Delta":240672286},{"NoteNumber":87,"Velocity":67,"Duration":340213,"SoundDuration":340213,"Delta":240672286},{"NoteNumber":60,"Velocity":38,"Duration":113404,"SoundDuration":113404,"Delta":240672286},{"NoteNumber":63,"Velocity":45,"Duration":113404,"SoundDuration":113404,"Delta":240785690},{"NoteNumber":60,"Velocity":37,"Duration":113404,"SoundDuration":113404,"Delta":240899095},{"NoteNumber":74,"Velocity":50,"Duration":684462,"SoundDuration":684462,"Delta":241012499},{"NoteNumber":86,"Velocity":60,"Duration":684462,"SoundDuration":684462,"Delta":241012499},{"NoteNumber":62,"Velocity":51,"Duration":684462,"SoundDuration":684462,"Delta":241012499},{"NoteNumber":67,"Velocity":51,"Duration":684462,"SoundDuration":684462,"Delta":241012499},{"NoteNumber":58,"Velocity":45,"Duration":114077,"SoundDuration":114077,"Delta":241012499},{"NoteNumber":55,"Velocity":39,"Duration":114077,"SoundDuration":114077,"Delta":241126576},{"NoteNumber":58,"Velocity":44,"Duration":114077,"SoundDuration":114077,"Delta":241240653},{"NoteNumber":55,"Velocity":41,"Duration":114077,"SoundDuration":114077,"Delta":241354731},{"NoteNumber":58,"Velocity":49,"Duration":114077,"SoundDuration":114077,"Delta":241468808},{"NoteNumber":55,"Velocity":46,"Duration":114077,"SoundDuration":114077,"Delta":241582885},{"NoteNumber":62,"Velocity":56,"Duration":663723,"SoundDuration":663723,"Delta":241696962},{"NoteNumber":65,"Velocity":56,"Duration":663723,"SoundDuration":663723,"Delta":241696962},{"NoteNumber":59,"Velocity":53,"Duration":111819,"SoundDuration":111819,"Delta":241696962},{"NoteNumber":55,"Velocity":47,"Duration":111421,"SoundDuration":111421,"Delta":241808782},{"NoteNumber":59,"Velocity":53,"Duration":110957,"SoundDuration":110957,"Delta":241920203},{"NoteNumber":55,"Velocity":50,"Duration":110345,"SoundDuration":110345,"Delta":242031161},{"NoteNumber":59,"Velocity":54,"Duration":109890,"SoundDuration":109890,"Delta":242141506},{"NoteNumber":55,"Velocity":50,"Duration":109289,"SoundDuration":109289,"Delta":242251396},{"NoteNumber":64,"Velocity":62,"Duration":652186,"SoundDuration":652186,"Delta":242360686},{"NoteNumber":60,"Velocity":59,"Duration":109289,"SoundDuration":109289,"Delta":242360686},{"NoteNumber":55,"Velocity":52,"Duration":109289,"SoundDuration":109289,"Delta":242469976},{"NoteNumber":60,"Velocity":54,"Duration":108695,"SoundDuration":108695,"Delta":242579265},{"NoteNumber":55,"Velocity":45,"Duration":108695,"SoundDuration":108695,"Delta":242687961},{"NoteNumber":60,"Velocity":51,"Duration":108108,"SoundDuration":108108,"Delta":242796657},{"NoteNumber":55,"Velocity":44,"Duration":108108,"SoundDuration":108108,"Delta":242904765},{"NoteNumber":67,"Velocity":59,"Duration":670553,"SoundDuration":670553,"Delta":243012873},{"NoteNumber":79,"Velocity":70,"Duration":670553,"SoundDuration":670553,"Delta":243012873},{"NoteNumber":63,"Velocity":58,"Duration":670553,"SoundDuration":670553,"Delta":243012873},{"NoteNumber":60,"Velocity":64,"Duration":107526,"SoundDuration":107526,"Delta":243012873},{"NoteNumber":55,"Velocity":50,"Duration":107526,"SoundDuration":107526,"Delta":243120400},{"NoteNumber":60,"Velocity":60,"Duration":107526,"SoundDuration":107526,"Delta":243227927},{"NoteNumber":55,"Velocity":50,"Duration":107526,"SoundDuration":107526,"Delta":243335454},{"NoteNumber":60,"Velocity":56,"Duration":115991,"SoundDuration":115991,"Delta":243442980},{"NoteNumber":55,"Velocity":46,"Duration":1455967,"SoundDuration":1455967,"Delta":243558972},{"NoteNumber":66,"Velocity":56,"Duration":991298,"SoundDuration":991298,"Delta":243683427},{"NoteNumber":78,"Velocity":67,"Duration":991298,"SoundDuration":991298,"Delta":243683427},{"NoteNumber":57,"Velocity":63,"Duration":110144,"SoundDuration":110144,"Delta":243683427},{"NoteNumber":60,"Velocity":48,"Duration":110144,"SoundDuration":110144,"Delta":243793571},{"NoteNumber":57,"Velocity":56,"Duration":110144,"SoundDuration":110144,"Delta":243903716},{"NoteNumber":60,"Velocity":48,"Duration":110144,"SoundDuration":110144,"Delta":244013860},{"NoteNumber":57,"Velocity":54,"Duration":110144,"SoundDuration":110144,"Delta":244124004},{"NoteNumber":60,"Velocity":45,"Duration":110144,"SoundDuration":110144,"Delta":244234149},{"NoteNumber":57,"Velocity":52,"Duration":110144,"SoundDuration":110144,"Delta":244344293},{"NoteNumber":60,"Velocity":39,"Duration":110144,"SoundDuration":110144,"Delta":244454437},{"NoteNumber":57,"Velocity":47,"Duration":110144,"SoundDuration":110144,"Delta":244564582},{"NoteNumber":63,"Velocity":54,"Duration":340213,"SoundDuration":340213,"Delta":244674726},{"NoteNumber":75,"Velocity":64,"Duration":340213,"SoundDuration":340213,"Delta":244674726},{"NoteNumber":60,"Velocity":38,"Duration":113404,"SoundDuration":113404,"Delta":244674726},{"NoteNumber":57,"Velocity":45,"Duration":113404,"SoundDuration":113404,"Delta":244788130},{"NoteNumber":60,"Velocity":37,"Duration":113404,"SoundDuration":113404,"Delta":244901535},{"NoteNumber":74,"Velocity":60,"Duration":705466,"SoundDuration":705466,"Delta":245014939},{"NoteNumber":62,"Velocity":50,"Duration":705466,"SoundDuration":705466,"Delta":245014939},{"NoteNumber":55,"Velocity":51,"Duration":705466,"SoundDuration":705466,"Delta":245014939},{"NoteNumber":46,"Velocity":45,"Duration":117577,"SoundDuration":117577,"Delta":245014939},{"NoteNumber":43,"Velocity":39,"Duration":117577,"SoundDuration":117577,"Delta":245132517},{"NoteNumber":46,"Velocity":44,"Duration":117577,"SoundDuration":117577,"Delta":245250095},{"NoteNumber":43,"Velocity":41,"Duration":117577,"SoundDuration":117577,"Delta":245367673},{"NoteNumber":46,"Velocity":49,"Duration":117577,"SoundDuration":117577,"Delta":245485250},{"NoteNumber":43,"Velocity":46,"Duration":117577,"SoundDuration":117577,"Delta":245602828},{"NoteNumber":74,"Velocity":70,"Duration":692760,"SoundDuration":692760,"Delta":245720406},{"NoteNumber":67,"Velocity":59,"Duration":692760,"SoundDuration":692760,"Delta":245720406},{"NoteNumber":62,"Velocity":59,"Duration":692760,"SoundDuration":692760,"Delta":245720406},{"NoteNumber":53,"Velocity":56,"Duration":692760,"SoundDuration":692760,"Delta":245720406},{"NoteNumber":47,"Velocity":53,"Duration":115460,"SoundDuration":115460,"Delta":245720406},{"NoteNumber":43,"Velocity":47,"Duration":115460,"SoundDuration":115460,"Delta":245835866},{"NoteNumber":47,"Velocity":53,"Duration":115460,"SoundDuration":115460,"Delta":245951326},{"NoteNumber":43,"Velocity":50,"Duration":115460,"SoundDuration":115460,"Delta":246066787},{"NoteNumber":47,"Velocity":54,"Duration":115460,"SoundDuration":115460,"Delta":246182247},{"NoteNumber":43,"Velocity":50,"Duration":115460,"SoundDuration":115460,"Delta":246297707},{"NoteNumber":67,"Velocity":56,"Duration":2023770,"SoundDuration":2023770,"Delta":246413167},{"NoteNumber":74,"Velocity":67,"Duration":2023770,"SoundDuration":2023770,"Delta":246413167},{"NoteNumber":62,"Velocity":56,"Duration":2023770,"SoundDuration":2023770,"Delta":246413167},{"NoteNumber":55,"Velocity":62,"Duration":1335223,"SoundDuration":1335223,"Delta":246413167},{"NoteNumber":52,"Velocity":59,"Duration":112739,"SoundDuration":112739,"Delta":246413167},{"NoteNumber":43,"Velocity":52,"Duration":112410,"SoundDuration":112410,"Delta":246525907},{"NoteNumber":52,"Velocity":54,"Duration":112082,"SoundDuration":112082,"Delta":246638318},{"NoteNumber":43,"Velocity":46,"Duration":111433,"SoundDuration":111433,"Delta":246750400},{"NoteNumber":52,"Velocity":52,"Duration":111105,"SoundDuration":111105,"Delta":246861833},{"NoteNumber":43,"Velocity":45,"Duration":110778,"SoundDuration":110778,"Delta":246972939},{"NoteNumber":52,"Velocity":52,"Duration":110778,"SoundDuration":110778,"Delta":247083718},{"NoteNumber":43,"Velocity":41,"Duration":110778,"SoundDuration":110778,"Delta":247194497},{"NoteNumber":52,"Velocity":50,"Duration":110778,"SoundDuration":110778,"Delta":247305275},{"NoteNumber":43,"Velocity":43,"Duration":110778,"SoundDuration":110778,"Delta":247416054},{"NoteNumber":52,"Velocity":50,"Duration":110778,"SoundDuration":110778,"Delta":247526833},{"NoteNumber":43,"Velocity":41,"Duration":110778,"SoundDuration":110778,"Delta":247637612},{"NoteNumber":55,"Velocity":63,"Duration":1449074,"SoundDuration":1449074,"Delta":247748391},{"NoteNumber":51,"Velocity":57,"Duration":114757,"SoundDuration":114757,"Delta":247748391},{"NoteNumber":43,"Velocity":45,"Duration":114757,"SoundDuration":114757,"Delta":247863149},{"NoteNumber":51,"Velocity":53,"Duration":114757,"SoundDuration":114757,"Delta":247977906},{"NoteNumber":43,"Velocity":46,"Duration":114757,"SoundDuration":114757,"Delta":248092664},{"NoteNumber":51,"Velocity":54,"Duration":114757,"SoundDuration":114757,"Delta":248207422},{"NoteNumber":43,"Velocity":45,"Duration":114757,"SoundDuration":114757,"Delta":248322180},{"NoteNumber":67,"Velocity":63,"Duration":760527,"SoundDuration":760527,"Delta":248436938},{"NoteNumber":72,"Velocity":73,"Duration":760527,"SoundDuration":760527,"Delta":248436938},{"NoteNumber":60,"Velocity":63,"Duration":760527,"SoundDuration":760527,"Delta":248436938},{"NoteNumber":51,"Velocity":54,"Duration":119047,"SoundDuration":119047,"Delta":248436938},{"NoteNumber":43,"Velocity":42,"Duration":119047,"SoundDuration":119047,"Delta":248555985},{"NoteNumber":51,"Velocity":52,"Duration":119047,"SoundDuration":119047,"Delta":248675033},{"NoteNumber":43,"Velocity":42,"Duration":119047,"SoundDuration":119047,"Delta":248794081},{"NoteNumber":51,"Velocity":51,"Duration":119047,"SoundDuration":119047,"Delta":248913128},{"NoteNumber":43,"Velocity":44,"Duration":165289,"SoundDuration":165289,"Delta":249032176},{"NoteNumber":43,"Velocity":44,"Duration":439787,"SoundDuration":439787,"Delta":249114821},{"NoteNumber":50,"Velocity":45,"Duration":398465,"SoundDuration":398465,"Delta":249156143},{"NoteNumber":59,"Velocity":63,"Duration":119047,"SoundDuration":119047,"Delta":249197465},{"NoteNumber":67,"Velocity":63,"Duration":119047,"SoundDuration":119047,"Delta":249197465},{"NoteNumber":55,"Velocity":49,"Duration":357143,"SoundDuration":357143,"Delta":249197465},{"NoteNumber":71,"Velocity":51,"Duration":119047,"SoundDuration":119047,"Delta":249316513},{"NoteNumber":59,"Velocity":54,"Duration":119047,"SoundDuration":119047,"Delta":249435561},{"NoteNumber":67,"Velocity":54,"Duration":119047,"SoundDuration":119047,"Delta":249435561},{"NoteNumber":71,"Velocity":49,"Duration":119047,"SoundDuration":119047,"Delta":249554608},{"NoteNumber":59,"Velocity":54,"Duration":119047,"SoundDuration":119047,"Delta":249673656},{"NoteNumber":67,"Velocity":54,"Duration":119047,"SoundDuration":119047,"Delta":249673656},{"NoteNumber":71,"Velocity":50,"Duration":119047,"SoundDuration":119047,"Delta":249792704},{"NoteNumber":67,"Velocity":74,"Duration":230805,"SoundDuration":230805,"Delta":249911751},{"NoteNumber":59,"Velocity":62,"Duration":116863,"SoundDuration":116863,"Delta":249911751},{"NoteNumber":43,"Velocity":42,"Duration":701179,"SoundDuration":701179,"Delta":249911751},{"NoteNumber":47,"Velocity":42,"Duration":701179,"SoundDuration":701179,"Delta":249911751},{"NoteNumber":55,"Velocity":50,"Duration":701179,"SoundDuration":701179,"Delta":249911751},{"NoteNumber":71,"Velocity":50,"Duration":116863,"SoundDuration":116863,"Delta":250028615},{"NoteNumber":59,"Velocity":54,"Duration":116863,"SoundDuration":116863,"Delta":250145478},{"NoteNumber":67,"Velocity":54,"Duration":116863,"SoundDuration":116863,"Delta":250145478},{"NoteNumber":71,"Velocity":50,"Duration":116863,"SoundDuration":116863,"Delta":250262341},{"NoteNumber":59,"Velocity":54,"Duration":116863,"SoundDuration":116863,"Delta":250379205},{"NoteNumber":67,"Velocity":54,"Duration":116863,"SoundDuration":116863,"Delta":250379205},{"NoteNumber":71,"Velocity":50,"Duration":116863,"SoundDuration":116863,"Delta":250496068},{"NoteNumber":66,"Velocity":66,"Duration":710059,"SoundDuration":710059,"Delta":250612931},{"NoteNumber":59,"Velocity":63,"Duration":118343,"SoundDuration":118343,"Delta":250612931},{"NoteNumber":67,"Velocity":63,"Duration":118343,"SoundDuration":118343,"Delta":250612931},{"NoteNumber":42,"Velocity":43,"Duration":710059,"SoundDuration":710059,"Delta":250612931},{"NoteNumber":47,"Velocity":43,"Duration":710059,"SoundDuration":710059,"Delta":250612931},{"NoteNumber":54,"Velocity":51,"Duration":710059,"SoundDuration":710059,"Delta":250612931},{"NoteNumber":71,"Velocity":50,"Duration":118343,"SoundDuration":118343,"Delta":250731275},{"NoteNumber":59,"Velocity":54,"Duration":118343,"SoundDuration":118343,"Delta":250849618},{"NoteNumber":67,"Velocity":54,"Duration":118343,"SoundDuration":118343,"Delta":250849618},{"NoteNumber":71,"Velocity":52,"Duration":118343,"SoundDuration":118343,"Delta":250967961},{"NoteNumber":59,"Velocity":55,"Duration":118343,"SoundDuration":118343,"Delta":251086304},{"NoteNumber":67,"Velocity":55,"Duration":118343,"SoundDuration":118343,"Delta":251086304},{"NoteNumber":71,"Velocity":51,"Duration":118343,"SoundDuration":118343,"Delta":251204647},{"NoteNumber":64,"Velocity":64,"Duration":713237,"SoundDuration":713237,"Delta":251322990},{"NoteNumber":59,"Velocity":64,"Duration":118343,"SoundDuration":118343,"Delta":251322990},{"NoteNumber":67,"Velocity":64,"Duration":118343,"SoundDuration":118343,"Delta":251322990},{"NoteNumber":40,"Velocity":44,"Duration":713237,"SoundDuration":713237,"Delta":251322990},{"NoteNumber":47,"Velocity":44,"Duration":713237,"SoundDuration":713237,"Delta":251322990},{"NoteNumber":52,"Velocity":52,"Duration":713237,"SoundDuration":713237,"Delta":251322990},{"NoteNumber":71,"Velocity":52,"Duration":118343,"SoundDuration":118343,"Delta":251441334},{"NoteNumber":59,"Velocity":56,"Duration":118695,"SoundDuration":118695,"Delta":251559677},{"NoteNumber":67,"Velocity":56,"Duration":118695,"SoundDuration":118695,"Delta":251559677},{"NoteNumber":71,"Velocity":51,"Duration":119047,"SoundDuration":119047,"Delta":251678372},{"NoteNumber":59,"Velocity":56,"Duration":119047,"SoundDuration":119047,"Delta":251797420},{"NoteNumber":67,"Velocity":56,"Duration":119047,"SoundDuration":119047,"Delta":251797420},{"NoteNumber":71,"Velocity":53,"Duration":119760,"SoundDuration":119760,"Delta":251916468},{"NoteNumber":62,"Velocity":65,"Duration":724365,"SoundDuration":724365,"Delta":252036228},{"NoteNumber":59,"Velocity":65,"Duration":119760,"SoundDuration":119760,"Delta":252036228},{"NoteNumber":67,"Velocity":65,"Duration":119760,"SoundDuration":119760,"Delta":252036228},{"NoteNumber":38,"Velocity":45,"Duration":724365,"SoundDuration":724365,"Delta":252036228},{"NoteNumber":47,"Velocity":45,"Duration":724365,"SoundDuration":724365,"Delta":252036228},{"NoteNumber":50,"Velocity":53,"Duration":724365,"SoundDuration":724365,"Delta":252036228},{"NoteNumber":71,"Velocity":53,"Duration":120482,"SoundDuration":120482,"Delta":252155989},{"NoteNumber":59,"Velocity":56,"Duration":120481,"SoundDuration":120481,"Delta":252276471},{"NoteNumber":67,"Velocity":56,"Duration":120481,"SoundDuration":120481,"Delta":252276471},{"NoteNumber":71,"Velocity":52,"Duration":120847,"SoundDuration":120847,"Delta":252396953},{"NoteNumber":59,"Velocity":57,"Duration":121212,"SoundDuration":121212,"Delta":252517800},{"NoteNumber":67,"Velocity":57,"Duration":121212,"SoundDuration":121212,"Delta":252517800},{"NoteNumber":71,"Velocity":53,"Duration":121581,"SoundDuration":121581,"Delta":252639012},{"NoteNumber":59,"Velocity":68,"Duration":247400,"SoundDuration":247400,"Delta":252760593},{"NoteNumber":67,"Velocity":64,"Duration":125266,"SoundDuration":125266,"Delta":252760593},{"NoteNumber":35,"Velocity":45,"Duration":751597,"SoundDuration":751597,"Delta":252760593},{"NoteNumber":47,"Velocity":54,"Duration":751597,"SoundDuration":751597,"Delta":252760593},{"NoteNumber":71,"Velocity":53,"Duration":125266,"SoundDuration":125266,"Delta":252885860},{"NoteNumber":59,"Velocity":57,"Duration":125266,"SoundDuration":125266,"Delta":253011126},{"NoteNumber":67,"Velocity":57,"Duration":125266,"SoundDuration":125266,"Delta":253011126},{"NoteNumber":71,"Velocity":54,"Duration":125266,"SoundDuration":125266,"Delta":253136392},{"NoteNumber":59,"Velocity":57,"Duration":125266,"SoundDuration":125266,"Delta":253261658},{"NoteNumber":67,"Velocity":57,"Duration":125266,"SoundDuration":125266,"Delta":253261658},{"NoteNumber":71,"Velocity":54,"Duration":125266,"SoundDuration":125266,"Delta":253386924},{"NoteNumber":55,"Velocity":65,"Duration":240853,"SoundDuration":240853,"Delta":253512190},{"NoteNumber":31,"Velocity":45,"Duration":731707,"SoundDuration":731707,"Delta":253512190},{"NoteNumber":35,"Velocity":45,"Duration":731707,"SoundDuration":731707,"Delta":253512190},{"NoteNumber":43,"Velocity":53,"Duration":731707,"SoundDuration":731707,"Delta":253512190},{"NoteNumber":59,"Velocity":54,"Duration":121951,"SoundDuration":121951,"Delta":253634142},{"NoteNumber":55,"Velocity":59,"Duration":121951,"SoundDuration":121951,"Delta":253756093},{"NoteNumber":59,"Velocity":54,"Duration":121951,"SoundDuration":121951,"Delta":253878044},{"NoteNumber":55,"Velocity":59,"Duration":121951,"SoundDuration":121951,"Delta":253999995},{"NoteNumber":59,"Velocity":54,"Duration":121951,"SoundDuration":121951,"Delta":254121946},{"NoteNumber":54,"Velocity":66,"Duration":738543,"SoundDuration":738543,"Delta":254243897},{"NoteNumber":55,"Velocity":66,"Duration":121212,"SoundDuration":121212,"Delta":254243897},{"NoteNumber":31,"Velocity":45,"Duration":738543,"SoundDuration":738543,"Delta":254243897},{"NoteNumber":35,"Velocity":45,"Duration":738543,"SoundDuration":738543,"Delta":254243897},{"NoteNumber":42,"Velocity":54,"Duration":738543,"SoundDuration":738543,"Delta":254243897},{"NoteNumber":59,"Velocity":55,"Duration":121951,"SoundDuration":121951,"Delta":254365110},{"NoteNumber":55,"Velocity":59,"Duration":122699,"SoundDuration":122699,"Delta":254487061},{"NoteNumber":59,"Velocity":55,"Duration":123456,"SoundDuration":123456,"Delta":254609760},{"NoteNumber":55,"Velocity":60,"Duration":124223,"SoundDuration":124223,"Delta":254733217},{"NoteNumber":59,"Velocity":54,"Duration":125000,"SoundDuration":125000,"Delta":254857441},{"NoteNumber":52,"Velocity":68,"Duration":766864,"SoundDuration":766864,"Delta":254982441},{"NoteNumber":55,"Velocity":68,"Duration":125786,"SoundDuration":125786,"Delta":254982441},{"NoteNumber":31,"Velocity":47,"Duration":766864,"SoundDuration":766864,"Delta":254982441},{"NoteNumber":35,"Velocity":47,"Duration":766864,"SoundDuration":766864,"Delta":254982441},{"NoteNumber":40,"Velocity":56,"Duration":766864,"SoundDuration":766864,"Delta":254982441},{"NoteNumber":59,"Velocity":55,"Duration":126582,"SoundDuration":126582,"Delta":255108227},{"NoteNumber":55,"Velocity":60,"Duration":127388,"SoundDuration":127388,"Delta":255234809},{"NoteNumber":59,"Velocity":54,"Duration":128205,"SoundDuration":128205,"Delta":255362198},{"NoteNumber":55,"Velocity":60,"Duration":129032,"SoundDuration":129032,"Delta":255490403},{"NoteNumber":59,"Velocity":55,"Duration":129870,"SoundDuration":129870,"Delta":255619435},{"NoteNumber":51,"Velocity":69,"Duration":797444,"SoundDuration":797444,"Delta":255749305},{"NoteNumber":55,"Velocity":70,"Duration":130719,"SoundDuration":130719,"Delta":255749305},{"NoteNumber":31,"Velocity":49,"Duration":797444,"SoundDuration":797444,"Delta":255749305},{"NoteNumber":35,"Velocity":49,"Duration":797444,"SoundDuration":797444,"Delta":255749305},{"NoteNumber":39,"Velocity":58,"Duration":797444,"SoundDuration":797444,"Delta":255749305},{"NoteNumber":59,"Velocity":55,"Duration":131578,"SoundDuration":131578,"Delta":255880024},{"NoteNumber":55,"Velocity":61,"Duration":132450,"SoundDuration":132450,"Delta":256011603},{"NoteNumber":59,"Velocity":56,"Duration":133333,"SoundDuration":133333,"Delta":256144054},{"NoteNumber":55,"Velocity":62,"Duration":134228,"SoundDuration":134228,"Delta":256277387},{"NoteNumber":59,"Velocity":56,"Duration":135135,"SoundDuration":135135,"Delta":256411615},{"NoteNumber":50,"Velocity":71,"Duration":869565,"SoundDuration":869565,"Delta":256546750},{"NoteNumber":55,"Velocity":70,"Duration":144927,"SoundDuration":144927,"Delta":256546750},{"NoteNumber":31,"Velocity":51,"Duration":869565,"SoundDuration":869565,"Delta":256546750},{"NoteNumber":35,"Velocity":51,"Duration":869565,"SoundDuration":869565,"Delta":256546750},{"NoteNumber":38,"Velocity":61,"Duration":869565,"SoundDuration":869565,"Delta":256546750},{"NoteNumber":59,"Velocity":56,"Duration":144927,"SoundDuration":144927,"Delta":256691678},{"NoteNumber":55,"Velocity":62,"Duration":144927,"SoundDuration":144927,"Delta":256836605},{"NoteNumber":59,"Velocity":56,"Duration":144927,"SoundDuration":144927,"Delta":256981533},{"NoteNumber":55,"Velocity":62,"Duration":144927,"SoundDuration":144927,"Delta":257126460},{"NoteNumber":59,"Velocity":57,"Duration":144927,"SoundDuration":144927,"Delta":257271388},{"NoteNumber":47,"Velocity":72,"Duration":1045990,"SoundDuration":1045990,"Delta":257416315},{"NoteNumber":55,"Velocity":72,"Duration":153846,"SoundDuration":153846,"Delta":257416315},{"NoteNumber":31,"Velocity":53,"Duration":1045990,"SoundDuration":1045990,"Delta":257416315},{"NoteNumber":35,"Velocity":63,"Duration":1045990,"SoundDuration":1045990,"Delta":257416315},{"NoteNumber":59,"Velocity":58,"Duration":158124,"SoundDuration":158124,"Delta":257570161},{"NoteNumber":55,"Velocity":63,"Duration":165300,"SoundDuration":165300,"Delta":257728286},{"NoteNumber":59,"Velocity":57,"Duration":172807,"SoundDuration":172807,"Delta":257893587},{"NoteNumber":55,"Velocity":63,"Duration":186227,"SoundDuration":186227,"Delta":258066395},{"NoteNumber":59,"Velocity":59,"Duration":209682,"SoundDuration":209682,"Delta":258252623},{"NoteNumber":31,"Velocity":80,"Duration":1363635,"SoundDuration":1363635,"Delta":258462306},{"NoteNumber":35,"Velocity":55,"Duration":172413,"SoundDuration":172413,"Delta":259825942},{"NoteNumber":38,"Velocity":58,"Duration":171107,"SoundDuration":171107,"Delta":259998356},{"NoteNumber":43,"Velocity":61,"Duration":162662,"SoundDuration":162662,"Delta":260169463},{"NoteNumber":47,"Velocity":63,"Duration":144296,"SoundDuration":144296,"Delta":260332126},{"NoteNumber":50,"Velocity":66,"Duration":140177,"SoundDuration":140177,"Delta":260476422},{"NoteNumber":55,"Velocity":68,"Duration":134014,"SoundDuration":134014,"Delta":260616599},{"NoteNumber":59,"Velocity":68,"Duration":131430,"SoundDuration":131430,"Delta":260750614},{"NoteNumber":62,"Velocity":71,"Duration":128869,"SoundDuration":128869,"Delta":260882045},{"NoteNumber":67,"Velocity":77,"Duration":1603301,"SoundDuration":1603301,"Delta":261010914},{"NoteNumber":66,"Velocity":60,"Duration":166086,"SoundDuration":166086,"Delta":262614215},{"NoteNumber":64,"Velocity":61,"Duration":158146,"SoundDuration":158146,"Delta":262780301},{"NoteNumber":62,"Velocity":62,"Duration":151032,"SoundDuration":151032,"Delta":262938448},{"NoteNumber":60,"Velocity":62,"Duration":144438,"SoundDuration":144438,"Delta":263089481},{"NoteNumber":59,"Velocity":63,"Duration":138481,"SoundDuration":138481,"Delta":263233920},{"NoteNumber":57,"Velocity":63,"Duration":132918,"SoundDuration":132918,"Delta":263372401},{"NoteNumber":55,"Velocity":63,"Duration":127785,"SoundDuration":127785,"Delta":263505319},{"NoteNumber":54,"Velocity":64,"Duration":123300,"SoundDuration":123300,"Delta":263633105},{"NoteNumber":52,"Velocity":63,"Duration":118745,"SoundDuration":118745,"Delta":263756405},{"NoteNumber":50,"Velocity":63,"Duration":114806,"SoundDuration":114806,"Delta":263875150},{"NoteNumber":48,"Velocity":64,"Duration":110846,"SoundDuration":110846,"Delta":263989957},{"NoteNumber":47,"Velocity":64,"Duration":106896,"SoundDuration":106896,"Delta":264100804},{"NoteNumber":45,"Velocity":65,"Duration":103694,"SoundDuration":103694,"Delta":264207700},{"NoteNumber":43,"Velocity":66,"Duration":100453,"SoundDuration":100453,"Delta":264311395},{"NoteNumber":42,"Velocity":67,"Duration":97413,"SoundDuration":97413,"Delta":264411848},{"NoteNumber":40,"Velocity":68,"Duration":96153,"SoundDuration":96153,"Delta":264509262},{"NoteNumber":38,"Velocity":69,"Duration":95745,"SoundDuration":95745,"Delta":264605416},{"NoteNumber":36,"Velocity":70,"Duration":95541,"SoundDuration":95541,"Delta":264701161},{"NoteNumber":35,"Velocity":70,"Duration":95259,"SoundDuration":95259,"Delta":264796702},{"NoteNumber":33,"Velocity":71,"Duration":94936,"SoundDuration":94936,"Delta":264891962},{"NoteNumber":47,"Velocity":79,"Duration":1728575,"SoundDuration":1728575,"Delta":264986898},{"NoteNumber":31,"Velocity":74,"Duration":1728575,"SoundDuration":1728575,"Delta":264986898},{"NoteNumber":50,"Velocity":60,"Duration":141209,"SoundDuration":141209,"Delta":266715473},{"NoteNumber":35,"Velocity":54,"Duration":141209,"SoundDuration":141209,"Delta":266715473},{"NoteNumber":55,"Velocity":62,"Duration":129363,"SoundDuration":129363,"Delta":266856683},{"NoteNumber":38,"Velocity":55,"Duration":129363,"SoundDuration":129363,"Delta":266856683},{"NoteNumber":59,"Velocity":63,"Duration":119324,"SoundDuration":119324,"Delta":266986047},{"NoteNumber":43,"Velocity":56,"Duration":119324,"SoundDuration":119324,"Delta":266986047},{"NoteNumber":62,"Velocity":64,"Duration":110877,"SoundDuration":110877,"Delta":267105371},{"NoteNumber":47,"Velocity":58,"Duration":110877,"SoundDuration":110877,"Delta":267105371},{"NoteNumber":67,"Velocity":65,"Duration":107384,"SoundDuration":107384,"Delta":267216249},{"NoteNumber":50,"Velocity":59,"Duration":107384,"SoundDuration":107384,"Delta":267216249},{"NoteNumber":71,"Velocity":67,"Duration":105682,"SoundDuration":105682,"Delta":267323634},{"NoteNumber":55,"Velocity":60,"Duration":105682,"SoundDuration":105682,"Delta":267323634},{"NoteNumber":74,"Velocity":68,"Duration":104168,"SoundDuration":104168,"Delta":267429316},{"NoteNumber":59,"Velocity":62,"Duration":104168,"SoundDuration":104168,"Delta":267429316},{"NoteNumber":79,"Velocity":70,"Duration":102565,"SoundDuration":102565,"Delta":267533484},{"NoteNumber":62,"Velocity":63,"Duration":102565,"SoundDuration":102565,"Delta":267533484},{"NoteNumber":83,"Velocity":71,"Duration":101139,"SoundDuration":101139,"Delta":267636050},{"NoteNumber":67,"Velocity":64,"Duration":101139,"SoundDuration":101139,"Delta":267636050},{"NoteNumber":86,"Velocity":72,"Duration":99628,"SoundDuration":99628,"Delta":267737189},{"NoteNumber":71,"Velocity":65,"Duration":99628,"SoundDuration":99628,"Delta":267737189},{"NoteNumber":91,"Velocity":77,"Duration":98283,"SoundDuration":98283,"Delta":267836817},{"NoteNumber":74,"Velocity":67,"Duration":98283,"SoundDuration":98283,"Delta":267836817},{"NoteNumber":95,"Velocity":80,"Duration":1346853,"SoundDuration":1346853,"Delta":267935100},{"NoteNumber":79,"Velocity":75,"Duration":1346853,"SoundDuration":1346853,"Delta":267935100},{"NoteNumber":93,"Velocity":58,"Duration":131585,"SoundDuration":131585,"Delta":269281954},{"NoteNumber":78,"Velocity":50,"Duration":131585,"SoundDuration":131585,"Delta":269281954},{"NoteNumber":91,"Velocity":59,"Duration":129316,"SoundDuration":129316,"Delta":269413540},{"NoteNumber":76,"Velocity":51,"Duration":129316,"SoundDuration":129316,"Delta":269413540},{"NoteNumber":90,"Velocity":59,"Duration":126406,"SoundDuration":126406,"Delta":269542857},{"NoteNumber":74,"Velocity":51,"Duration":126406,"SoundDuration":126406,"Delta":269542857},{"NoteNumber":88,"Velocity":60,"Duration":123972,"SoundDuration":123972,"Delta":269669263},{"NoteNumber":72,"Velocity":52,"Duration":123972,"SoundDuration":123972,"Delta":269669263},{"NoteNumber":86,"Velocity":60,"Duration":121623,"SoundDuration":121623,"Delta":269793236},{"NoteNumber":71,"Velocity":52,"Duration":121623,"SoundDuration":121623,"Delta":269793236},{"NoteNumber":84,"Velocity":61,"Duration":119052,"SoundDuration":119052,"Delta":269914859},{"NoteNumber":69,"Velocity":53,"Duration":119052,"SoundDuration":119052,"Delta":269914859},{"NoteNumber":83,"Velocity":62,"Duration":114521,"SoundDuration":114521,"Delta":270033912},{"NoteNumber":67,"Velocity":54,"Duration":114521,"SoundDuration":114521,"Delta":270033912},{"NoteNumber":81,"Velocity":62,"Duration":108983,"SoundDuration":108983,"Delta":270148434},{"NoteNumber":66,"Velocity":54,"Duration":108983,"SoundDuration":108983,"Delta":270148434},{"NoteNumber":79,"Velocity":63,"Duration":103947,"SoundDuration":103947,"Delta":270257417},{"NoteNumber":64,"Velocity":54,"Duration":103947,"SoundDuration":103947,"Delta":270257417},{"NoteNumber":78,"Velocity":63,"Duration":99349,"SoundDuration":99349,"Delta":270361364},{"NoteNumber":62,"Velocity":54,"Duration":99349,"SoundDuration":99349,"Delta":270361364},{"NoteNumber":76,"Velocity":63,"Duration":94946,"SoundDuration":94946,"Delta":270460713},{"NoteNumber":60,"Velocity":55,"Duration":94946,"SoundDuration":94946,"Delta":270460713},{"NoteNumber":74,"Velocity":63,"Duration":91107,"SoundDuration":91107,"Delta":270555660},{"NoteNumber":59,"Velocity":56,"Duration":91107,"SoundDuration":91107,"Delta":270555660},{"NoteNumber":72,"Velocity":64,"Duration":87561,"SoundDuration":87561,"Delta":270646768},{"NoteNumber":57,"Velocity":56,"Duration":87561,"SoundDuration":87561,"Delta":270646768},{"NoteNumber":71,"Velocity":64,"Duration":84276,"SoundDuration":84276,"Delta":270734329},{"NoteNumber":55,"Velocity":57,"Duration":84276,"SoundDuration":84276,"Delta":270734329},{"NoteNumber":69,"Velocity":65,"Duration":82003,"SoundDuration":82003,"Delta":270818605},{"NoteNumber":54,"Velocity":57,"Duration":82003,"SoundDuration":82003,"Delta":270818605},{"NoteNumber":67,"Velocity":65,"Duration":80935,"SoundDuration":80935,"Delta":270900609},{"NoteNumber":52,"Velocity":58,"Duration":80935,"SoundDuration":80935,"Delta":270900609},{"NoteNumber":66,"Velocity":66,"Duration":80357,"SoundDuration":80357,"Delta":270981545},{"NoteNumber":50,"Velocity":58,"Duration":80357,"SoundDuration":80357,"Delta":270981545},{"NoteNumber":64,"Velocity":66,"Duration":79929,"SoundDuration":79929,"Delta":271061902},{"NoteNumber":48,"Velocity":59,"Duration":79929,"SoundDuration":79929,"Delta":271061902},{"NoteNumber":62,"Velocity":67,"Duration":79225,"SoundDuration":79225,"Delta":271141832},{"NoteNumber":47,"Velocity":60,"Duration":79225,"SoundDuration":79225,"Delta":271141832},{"NoteNumber":60,"Velocity":68,"Duration":78809,"SoundDuration":78809,"Delta":271221058},{"NoteNumber":45,"Velocity":60,"Duration":78809,"SoundDuration":78809,"Delta":271221058},{"NoteNumber":59,"Velocity":68,"Duration":78261,"SoundDuration":78261,"Delta":271299867},{"NoteNumber":43,"Velocity":61,"Duration":78261,"SoundDuration":78261,"Delta":271299867},{"NoteNumber":57,"Velocity":69,"Duration":77855,"SoundDuration":77855,"Delta":271378129},{"NoteNumber":42,"Velocity":61,"Duration":77855,"SoundDuration":77855,"Delta":271378129},{"NoteNumber":55,"Velocity":69,"Duration":77187,"SoundDuration":77187,"Delta":271455984},{"NoteNumber":40,"Velocity":62,"Duration":77187,"SoundDuration":77187,"Delta":271455984},{"NoteNumber":54,"Velocity":70,"Duration":76792,"SoundDuration":76792,"Delta":271533171},{"NoteNumber":38,"Velocity":63,"Duration":76792,"SoundDuration":76792,"Delta":271533171},{"NoteNumber":52,"Velocity":70,"Duration":76271,"SoundDuration":76271,"Delta":271609963},{"NoteNumber":36,"Velocity":63,"Duration":76271,"SoundDuration":76271,"Delta":271609963},{"NoteNumber":50,"Velocity":71,"Duration":75885,"SoundDuration":75885,"Delta":271686235},{"NoteNumber":35,"Velocity":63,"Duration":75885,"SoundDuration":75885,"Delta":271686235},{"NoteNumber":48,"Velocity":71,"Duration":75251,"SoundDuration":75251,"Delta":271762121},{"NoteNumber":33,"Velocity":63,"Duration":75251,"SoundDuration":75251,"Delta":271762121},{"NoteNumber":47,"Velocity":72,"Duration":74875,"SoundDuration":74875,"Delta":271837372},{"NoteNumber":38,"Velocity":64,"Duration":74875,"SoundDuration":74875,"Delta":271837372},{"NoteNumber":45,"Velocity":72,"Duration":74380,"SoundDuration":74380,"Delta":271912248},{"NoteNumber":36,"Velocity":64,"Duration":74380,"SoundDuration":74380,"Delta":271912248},{"NoteNumber":43,"Velocity":80,"Duration":1552894,"SoundDuration":1552894,"Delta":271986628},{"NoteNumber":31,"Velocity":73,"Duration":1552894,"SoundDuration":1552894,"Delta":271986628},{"NoteNumber":35,"Velocity":73,"Duration":1552894,"SoundDuration":1552894,"Delta":271986628},{"NoteNumber":47,"Velocity":60,"Duration":116036,"SoundDuration":116036,"Delta":273539523},{"NoteNumber":38,"Velocity":54,"Duration":116036,"SoundDuration":116036,"Delta":273539523},{"NoteNumber":50,"Velocity":62,"Duration":107947,"SoundDuration":107947,"Delta":273655559},{"NoteNumber":43,"Velocity":55,"Duration":107947,"SoundDuration":107947,"Delta":273655559},{"NoteNumber":55,"Velocity":63,"Duration":100934,"SoundDuration":100934,"Delta":273763506},{"NoteNumber":47,"Velocity":56,"Duration":100934,"SoundDuration":100934,"Delta":273763506},{"NoteNumber":59,"Velocity":64,"Duration":94959,"SoundDuration":94959,"Delta":273864441},{"NoteNumber":50,"Velocity":58,"Duration":94959,"SoundDuration":94959,"Delta":273864441},{"NoteNumber":62,"Velocity":65,"Duration":89489,"SoundDuration":89489,"Delta":273959401},{"NoteNumber":55,"Velocity":59,"Duration":89489,"SoundDuration":89489,"Delta":273959401},{"NoteNumber":67,"Velocity":67,"Duration":84762,"SoundDuration":84762,"Delta":274048890},{"NoteNumber":59,"Velocity":60,"Duration":84762,"SoundDuration":84762,"Delta":274048890},{"NoteNumber":71,"Velocity":68,"Duration":81374,"SoundDuration":81374,"Delta":274133652},{"NoteNumber":62,"Velocity":62,"Duration":81374,"SoundDuration":81374,"Delta":274133652},{"NoteNumber":74,"Velocity":70,"Duration":80215,"SoundDuration":80215,"Delta":274215027},{"NoteNumber":67,"Velocity":63,"Duration":80215,"SoundDuration":80215,"Delta":274215027},{"NoteNumber":79,"Velocity":71,"Duration":79366,"SoundDuration":79366,"Delta":274295242},{"NoteNumber":71,"Velocity":64,"Duration":79366,"SoundDuration":79366,"Delta":274295242},{"NoteNumber":83,"Velocity":72,"Duration":78261,"SoundDuration":78261,"Delta":274374609},{"NoteNumber":74,"Velocity":65,"Duration":78261,"SoundDuration":78261,"Delta":274374609},{"NoteNumber":86,"Velocity":73,"Duration":77320,"SoundDuration":77320,"Delta":274452870},{"NoteNumber":79,"Velocity":64,"Duration":77320,"SoundDuration":77320,"Delta":274452870},{"NoteNumber":91,"Velocity":75,"Duration":76401,"SoundDuration":76401,"Delta":274530191},{"NoteNumber":83,"Velocity":66,"Duration":76401,"SoundDuration":76401,"Delta":274530191},{"NoteNumber":95,"Velocity":78,"Duration":1577071,"SoundDuration":1577071,"Delta":274606592},{"NoteNumber":86,"Velocity":68,"Duration":75378,"SoundDuration":75378,"Delta":274606592},{"NoteNumber":98,"Velocity":80,"Duration":1501693,"SoundDuration":1501693,"Delta":274681971},{"NoteNumber":91,"Velocity":75,"Duration":1501693,"SoundDuration":1501693,"Delta":274681971},{"NoteNumber":96,"Velocity":58,"Duration":133935,"SoundDuration":133935,"Delta":276183664},{"NoteNumber":88,"Velocity":50,"Duration":133935,"SoundDuration":133935,"Delta":276183664},{"NoteNumber":95,"Velocity":58,"Duration":131585,"SoundDuration":131585,"Delta":276317600},{"NoteNumber":86,"Velocity":50,"Duration":131585,"SoundDuration":131585,"Delta":276317600},{"NoteNumber":93,"Velocity":58,"Duration":127855,"SoundDuration":127855,"Delta":276449186},{"NoteNumber":84,"Velocity":50,"Duration":127855,"SoundDuration":127855,"Delta":276449186},{"NoteNumber":91,"Velocity":59,"Duration":122628,"SoundDuration":122628,"Delta":276577041},{"NoteNumber":83,"Velocity":51,"Duration":122628,"SoundDuration":122628,"Delta":276577041},{"NoteNumber":90,"Velocity":59,"Duration":117504,"SoundDuration":117504,"Delta":276699670},{"NoteNumber":81,"Velocity":51,"Duration":117504,"SoundDuration":117504,"Delta":276699670},{"NoteNumber":88,"Velocity":60,"Duration":112798,"SoundDuration":112798,"Delta":276817174},{"NoteNumber":79,"Velocity":52,"Duration":112798,"SoundDuration":112798,"Delta":276817174},{"NoteNumber":86,"Velocity":60,"Duration":108710,"SoundDuration":108710,"Delta":276929973},{"NoteNumber":78,"Velocity":52,"Duration":108710,"SoundDuration":108710,"Delta":276929973},{"NoteNumber":84,"Velocity":61,"Duration":104659,"SoundDuration":104659,"Delta":277038684},{"NoteNumber":76,"Velocity":53,"Duration":104659,"SoundDuration":104659,"Delta":277038684},{"NoteNumber":83,"Velocity":62,"Duration":100904,"SoundDuration":100904,"Delta":277143343},{"NoteNumber":74,"Velocity":54,"Duration":100904,"SoundDuration":100904,"Delta":277143343},{"NoteNumber":81,"Velocity":62,"Duration":97620,"SoundDuration":97620,"Delta":277244247},{"NoteNumber":72,"Velocity":54,"Duration":97620,"SoundDuration":97620,"Delta":277244247},{"NoteNumber":79,"Velocity":63,"Duration":94349,"SoundDuration":94349,"Delta":277341868},{"NoteNumber":71,"Velocity":54,"Duration":94349,"SoundDuration":94349,"Delta":277341868},{"NoteNumber":78,"Velocity":63,"Duration":91472,"SoundDuration":91472,"Delta":277436217},{"NoteNumber":69,"Velocity":54,"Duration":91472,"SoundDuration":91472,"Delta":277436217},{"NoteNumber":76,"Velocity":63,"Duration":88587,"SoundDuration":88587,"Delta":277527690},{"NoteNumber":67,"Velocity":55,"Duration":88587,"SoundDuration":88587,"Delta":277527690},{"NoteNumber":74,"Velocity":63,"Duration":85882,"SoundDuration":85882,"Delta":277616277},{"NoteNumber":66,"Velocity":56,"Duration":85882,"SoundDuration":85882,"Delta":277616277},{"NoteNumber":72,"Velocity":64,"Duration":83034,"SoundDuration":83034,"Delta":277702159},{"NoteNumber":64,"Velocity":56,"Duration":83034,"SoundDuration":83034,"Delta":277702159},{"NoteNumber":71,"Velocity":64,"Duration":81818,"SoundDuration":81818,"Delta":277785194},{"NoteNumber":62,"Velocity":57,"Duration":81818,"SoundDuration":81818,"Delta":277785194},{"NoteNumber":69,"Velocity":65,"Duration":81228,"SoundDuration":81228,"Delta":277867013},{"NoteNumber":60,"Velocity":57,"Duration":81228,"SoundDuration":81228,"Delta":277867013},{"NoteNumber":67,"Velocity":65,"Duration":80501,"SoundDuration":80501,"Delta":277948241},{"NoteNumber":59,"Velocity":58,"Duration":80501,"SoundDuration":80501,"Delta":277948241},{"NoteNumber":66,"Velocity":66,"Duration":79788,"SoundDuration":79788,"Delta":278028742},{"NoteNumber":57,"Velocity":58,"Duration":79788,"SoundDuration":79788,"Delta":278028742},{"NoteNumber":64,"Velocity":66,"Duration":79086,"SoundDuration":79086,"Delta":278108531},{"NoteNumber":55,"Velocity":59,"Duration":79086,"SoundDuration":79086,"Delta":278108531},{"NoteNumber":62,"Velocity":67,"Duration":78397,"SoundDuration":78397,"Delta":278187618},{"NoteNumber":54,"Velocity":60,"Duration":78397,"SoundDuration":78397,"Delta":278187618},{"NoteNumber":60,"Velocity":68,"Duration":77855,"SoundDuration":77855,"Delta":278266016},{"NoteNumber":52,"Velocity":60,"Duration":77855,"SoundDuration":77855,"Delta":278266016},{"NoteNumber":59,"Velocity":68,"Duration":77187,"SoundDuration":77187,"Delta":278343871},{"NoteNumber":50,"Velocity":61,"Duration":77187,"SoundDuration":77187,"Delta":278343871},{"NoteNumber":57,"Velocity":69,"Duration":76530,"SoundDuration":76530,"Delta":278421058},{"NoteNumber":48,"Velocity":61,"Duration":76530,"SoundDuration":76530,"Delta":278421058},{"NoteNumber":55,"Velocity":69,"Duration":76142,"SoundDuration":76142,"Delta":278497589},{"NoteNumber":47,"Velocity":62,"Duration":76142,"SoundDuration":76142,"Delta":278497589},{"NoteNumber":54,"Velocity":70,"Duration":75757,"SoundDuration":75757,"Delta":278573731},{"NoteNumber":45,"Velocity":61,"Duration":75757,"SoundDuration":75757,"Delta":278573731},{"NoteNumber":52,"Velocity":69,"Duration":75376,"SoundDuration":75376,"Delta":278649489},{"NoteNumber":43,"Velocity":62,"Duration":75376,"SoundDuration":75376,"Delta":278649489},{"NoteNumber":50,"Velocity":70,"Duration":74999,"SoundDuration":74999,"Delta":278724865},{"NoteNumber":42,"Velocity":63,"Duration":74999,"SoundDuration":74999,"Delta":278724865},{"NoteNumber":48,"Velocity":72,"Duration":74626,"SoundDuration":74626,"Delta":278799865},{"NoteNumber":40,"Velocity":63,"Duration":74626,"SoundDuration":74626,"Delta":278799865},{"NoteNumber":47,"Velocity":73,"Duration":74257,"SoundDuration":74257,"Delta":278874492},{"NoteNumber":38,"Velocity":65,"Duration":74257,"SoundDuration":74257,"Delta":278874492},{"NoteNumber":45,"Velocity":74,"Duration":73770,"SoundDuration":73770,"Delta":278948750},{"NoteNumber":36,"Velocity":66,"Duration":73770,"SoundDuration":73770,"Delta":278948750},{"NoteNumber":43,"Velocity":80,"Duration":1332918,"SoundDuration":1332918,"Delta":279022521},{"NoteNumber":31,"Velocity":73,"Duration":1332918,"SoundDuration":1332918,"Delta":279022521},{"NoteNumber":35,"Velocity":73,"Duration":1332918,"SoundDuration":1332918,"Delta":279022521},{"NoteNumber":44,"Velocity":61,"Duration":127576,"SoundDuration":127576,"Delta":280355439},{"NoteNumber":36,"Velocity":43,"Duration":127576,"SoundDuration":127576,"Delta":280355439},{"NoteNumber":45,"Velocity":61,"Duration":122097,"SoundDuration":122097,"Delta":280483015},{"NoteNumber":37,"Velocity":44,"Duration":122097,"SoundDuration":122097,"Delta":280483015},{"NoteNumber":46,"Velocity":62,"Duration":117393,"SoundDuration":117393,"Delta":280605113},{"NoteNumber":38,"Velocity":44,"Duration":117393,"SoundDuration":117393,"Delta":280605113},{"NoteNumber":47,"Velocity":63,"Duration":112906,"SoundDuration":112906,"Delta":280722506},{"NoteNumber":39,"Velocity":45,"Duration":112906,"SoundDuration":112906,"Delta":280722506},{"NoteNumber":48,"Velocity":63,"Duration":108712,"SoundDuration":108712,"Delta":280835412},{"NoteNumber":40,"Velocity":45,"Duration":108712,"SoundDuration":108712,"Delta":280835412},{"NoteNumber":49,"Velocity":63,"Duration":105001,"SoundDuration":105001,"Delta":280944124},{"NoteNumber":41,"Velocity":46,"Duration":105001,"SoundDuration":105001,"Delta":280944124},{"NoteNumber":50,"Velocity":64,"Duration":101357,"SoundDuration":101357,"Delta":281049126},{"NoteNumber":42,"Velocity":46,"Duration":101357,"SoundDuration":101357,"Delta":281049126},{"NoteNumber":51,"Velocity":64,"Duration":98907,"SoundDuration":98907,"Delta":281150484},{"NoteNumber":43,"Velocity":47,"Duration":98907,"SoundDuration":98907,"Delta":281150484},{"NoteNumber":52,"Velocity":65,"Duration":95954,"SoundDuration":95954,"Delta":281249391},{"NoteNumber":44,"Velocity":48,"Duration":95954,"SoundDuration":95954,"Delta":281249391},{"NoteNumber":53,"Velocity":66,"Duration":92980,"SoundDuration":92980,"Delta":281345346},{"NoteNumber":45,"Velocity":49,"Duration":92980,"SoundDuration":92980,"Delta":281345346},{"NoteNumber":54,"Velocity":66,"Duration":90370,"SoundDuration":90370,"Delta":281438327},{"NoteNumber":46,"Velocity":49,"Duration":90370,"SoundDuration":90370,"Delta":281438327},{"NoteNumber":55,"Velocity":67,"Duration":87895,"SoundDuration":87895,"Delta":281528697},{"NoteNumber":47,"Velocity":50,"Duration":87895,"SoundDuration":87895,"Delta":281528697},{"NoteNumber":56,"Velocity":68,"Duration":85555,"SoundDuration":85555,"Delta":281616593},{"NoteNumber":48,"Velocity":51,"Duration":85555,"SoundDuration":85555,"Delta":281616593},{"NoteNumber":57,"Velocity":68,"Duration":83183,"SoundDuration":83183,"Delta":281702148},{"NoteNumber":49,"Velocity":52,"Duration":83183,"SoundDuration":83183,"Delta":281702148},{"NoteNumber":58,"Velocity":69,"Duration":80749,"SoundDuration":80749,"Delta":281785332},{"NoteNumber":50,"Velocity":52,"Duration":80749,"SoundDuration":80749,"Delta":281785332},{"NoteNumber":59,"Velocity":69,"Duration":79787,"SoundDuration":79787,"Delta":281866081},{"NoteNumber":51,"Velocity":53,"Duration":79787,"SoundDuration":79787,"Delta":281866081},{"NoteNumber":60,"Velocity":70,"Duration":79365,"SoundDuration":79365,"Delta":281945869},{"NoteNumber":52,"Velocity":54,"Duration":79365,"SoundDuration":79365,"Delta":281945869},{"NoteNumber":61,"Velocity":71,"Duration":78809,"SoundDuration":78809,"Delta":282025234},{"NoteNumber":53,"Velocity":54,"Duration":78809,"SoundDuration":78809,"Delta":282025234},{"NoteNumber":62,"Velocity":72,"Duration":78397,"SoundDuration":78397,"Delta":282104043},{"NoteNumber":54,"Velocity":54,"Duration":78397,"SoundDuration":78397,"Delta":282104043},{"NoteNumber":63,"Velocity":72,"Duration":77990,"SoundDuration":77990,"Delta":282182441},{"NoteNumber":55,"Velocity":55,"Duration":77990,"SoundDuration":77990,"Delta":282182441},{"NoteNumber":64,"Velocity":72,"Duration":77453,"SoundDuration":77453,"Delta":282260431},{"NoteNumber":56,"Velocity":56,"Duration":77453,"SoundDuration":77453,"Delta":282260431},{"NoteNumber":65,"Velocity":72,"Duration":77055,"SoundDuration":77055,"Delta":282337884},{"NoteNumber":57,"Velocity":57,"Duration":77055,"SoundDuration":77055,"Delta":282337884},{"NoteNumber":66,"Velocity":73,"Duration":76403,"SoundDuration":76403,"Delta":282414939},{"NoteNumber":58,"Velocity":57,"Duration":76403,"SoundDuration":76403,"Delta":282414939},{"NoteNumber":67,"Velocity":76,"Duration":75757,"SoundDuration":75757,"Delta":282491343},{"NoteNumber":59,"Velocity":53,"Duration":75757,"SoundDuration":75757,"Delta":282491343},{"NoteNumber":66,"Velocity":75,"Duration":75503,"SoundDuration":75503,"Delta":282567101},{"NoteNumber":58,"Velocity":53,"Duration":75503,"SoundDuration":75503,"Delta":282567101},{"NoteNumber":65,"Velocity":74,"Duration":75251,"SoundDuration":75251,"Delta":282642605},{"NoteNumber":57,"Velocity":52,"Duration":75251,"SoundDuration":75251,"Delta":282642605},{"NoteNumber":64,"Velocity":72,"Duration":75000,"SoundDuration":75000,"Delta":282717856},{"NoteNumber":56,"Velocity":51,"Duration":75000,"SoundDuration":75000,"Delta":282717856},{"NoteNumber":63,"Velocity":72,"Duration":74626,"SoundDuration":74626,"Delta":282792856},{"NoteNumber":55,"Velocity":51,"Duration":74626,"SoundDuration":74626,"Delta":282792856},{"NoteNumber":62,"Velocity":71,"Duration":74380,"SoundDuration":74380,"Delta":282867483},{"NoteNumber":54,"Velocity":50,"Duration":74380,"SoundDuration":74380,"Delta":282867483},{"NoteNumber":61,"Velocity":70,"Duration":74135,"SoundDuration":74135,"Delta":282941863},{"NoteNumber":53,"Velocity":49,"Duration":74135,"SoundDuration":74135,"Delta":282941863},{"NoteNumber":60,"Velocity":68,"Duration":73891,"SoundDuration":73891,"Delta":283015999},{"NoteNumber":52,"Velocity":49,"Duration":73891,"SoundDuration":73891,"Delta":283015999},{"NoteNumber":59,"Velocity":66,"Duration":73650,"SoundDuration":73650,"Delta":283089890},{"NoteNumber":51,"Velocity":46,"Duration":73650,"SoundDuration":73650,"Delta":283089890},{"NoteNumber":58,"Velocity":67,"Duration":74135,"SoundDuration":74135,"Delta":283163541},{"NoteNumber":50,"Velocity":47,"Duration":74135,"SoundDuration":74135,"Delta":283163541},{"NoteNumber":57,"Velocity":68,"Duration":74751,"SoundDuration":74751,"Delta":283237676},{"NoteNumber":49,"Velocity":48,"Duration":74751,"SoundDuration":74751,"Delta":283237676},{"NoteNumber":56,"Velocity":69,"Duration":75251,"SoundDuration":75251,"Delta":283312427},{"NoteNumber":48,"Velocity":50,"Duration":75251,"SoundDuration":75251,"Delta":283312427},{"NoteNumber":55,"Velocity":70,"Duration":75885,"SoundDuration":75885,"Delta":283387679},{"NoteNumber":47,"Velocity":51,"Duration":75885,"SoundDuration":75885,"Delta":283387679},{"NoteNumber":54,"Velocity":71,"Duration":76661,"SoundDuration":76661,"Delta":283463564},{"NoteNumber":46,"Velocity":53,"Duration":76661,"SoundDuration":76661,"Delta":283463564},{"NoteNumber":53,"Velocity":72,"Duration":77187,"SoundDuration":77187,"Delta":283540226},{"NoteNumber":45,"Velocity":54,"Duration":77187,"SoundDuration":77187,"Delta":283540226},{"NoteNumber":52,"Velocity":73,"Duration":77855,"SoundDuration":77855,"Delta":283617413},{"NoteNumber":44,"Velocity":55,"Duration":77855,"SoundDuration":77855,"Delta":283617413},{"NoteNumber":51,"Velocity":74,"Duration":78397,"SoundDuration":78397,"Delta":283695268},{"NoteNumber":43,"Velocity":59,"Duration":78397,"SoundDuration":78397,"Delta":283695268},{"NoteNumber":50,"Velocity":75,"Duration":79086,"SoundDuration":79086,"Delta":283773666},{"NoteNumber":42,"Velocity":60,"Duration":79086,"SoundDuration":79086,"Delta":283773666},{"NoteNumber":49,"Velocity":77,"Duration":79929,"SoundDuration":79929,"Delta":283852753},{"NoteNumber":41,"Velocity":62,"Duration":79929,"SoundDuration":79929,"Delta":283852753},{"NoteNumber":48,"Velocity":79,"Duration":80501,"SoundDuration":80501,"Delta":283932682},{"NoteNumber":40,"Velocity":63,"Duration":80501,"SoundDuration":80501,"Delta":283932682},{"NoteNumber":47,"Velocity":80,"Duration":81227,"SoundDuration":81227,"Delta":284013184},{"NoteNumber":39,"Velocity":64,"Duration":81227,"SoundDuration":81227,"Delta":284013184},{"NoteNumber":46,"Velocity":81,"Duration":81818,"SoundDuration":81818,"Delta":284094412},{"NoteNumber":38,"Velocity":66,"Duration":81818,"SoundDuration":81818,"Delta":284094412},{"NoteNumber":45,"Velocity":83,"Duration":82569,"SoundDuration":82569,"Delta":284176230},{"NoteNumber":37,"Velocity":67,"Duration":82569,"SoundDuration":82569,"Delta":284176230},{"NoteNumber":44,"Velocity":85,"Duration":83333,"SoundDuration":83333,"Delta":284258800},{"NoteNumber":36,"Velocity":69,"Duration":83333,"SoundDuration":83333,"Delta":284258800},{"NoteNumber":43,"Velocity":97,"Duration":252100,"SoundDuration":252100,"Delta":284342133},{"NoteNumber":31,"Velocity":79,"Duration":252100,"SoundDuration":252100,"Delta":284342133},{"NoteNumber":35,"Velocity":79,"Duration":252100,"SoundDuration":252100,"Delta":284342133},{"NoteNumber":103,"Velocity":101,"Duration":252100,"SoundDuration":252100,"Delta":285350536},{"NoteNumber":98,"Velocity":86,"Duration":252100,"SoundDuration":252100,"Delta":285350536},{"NoteNumber":95,"Velocity":72,"Duration":252100,"SoundDuration":252100,"Delta":285350536},{"NoteNumber":91,"Velocity":72,"Duration":252100,"SoundDuration":252100,"Delta":285350536},{"NoteNumber":67,"Velocity":81,"Duration":252100,"SoundDuration":252100,"Delta":285350536},{"NoteNumber":62,"Velocity":67,"Duration":252100,"SoundDuration":252100,"Delta":285350536},{"NoteNumber":59,"Velocity":67,"Duration":252100,"SoundDuration":252100,"Delta":285350536},{"NoteNumber":55,"Velocity":56,"Duration":252100,"SoundDuration":252100,"Delta":285350536}]}