{"title":"Etude No. 2 aus Grandes Etudes de Paganini","artist":"Piano","durationMs":315920,"midiSha256":"b86beaa46c8d4c813bc7f08468def0910450818682683fee8a95e2b600520e4d","midiObject":[{"NoteNumber":63,"Velocity":71,"Duration":82781,"SoundDuration":82781,"Delta":0},{"NoteNumber":63,"Velocity":74,"Duration":3062913,"SoundDuration":3062913,"Delta":99338},{"NoteNumber":68,"Velocity":66,"Duration":82781,"SoundDuration":82781,"Delta":3178808},{"NoteNumber":66,"Velocity":56,"Duration":82781,"SoundDuration":82781,"Delta":3178808},{"NoteNumber":60,"Velocity":56,"Duration":82781,"SoundDuration":82781,"Delta":3178808},{"NoteNumber":63,"Velocity":57,"Duration":82781,"SoundDuration":82781,"Delta":3178808},{"NoteNumber":60,"Velocity":59,"Duration":3062913,"SoundDuration":3062913,"Delta":3278146},{"NoteNumber":66,"Velocity":59,"Duration":3062913,"SoundDuration":3062913,"Delta":3278146},{"NoteNumber":68,"Velocity":71,"Duration":3062913,"SoundDuration":3062913,"Delta":3278146},{"NoteNumber":63,"Velocity":59,"Duration":3062913,"SoundDuration":3062913,"Delta":3278146},{"NoteNumber":69,"Velocity":66,"Duration":82781,"SoundDuration":82781,"Delta":6357617},{"NoteNumber":66,"Velocity":56,"Duration":82781,"SoundDuration":82781,"Delta":6357617},{"NoteNumber":59,"Velocity":56,"Duration":82781,"SoundDuration":82781,"Delta":6357617},{"NoteNumber":63,"Velocity":56,"Duration":82781,"SoundDuration":82781,"Delta":6357617},{"NoteNumber":69,"Velocity":70,"Duration":797872,"SoundDuration":797872,"Delta":6456954},{"NoteNumber":66,"Velocity":58,"Duration":797872,"SoundDuration":797872,"Delta":6456954},{"NoteNumber":59,"Velocity":58,"Duration":797872,"SoundDuration":797872,"Delta":6456954},{"NoteNumber":63,"Velocity":58,"Duration":797872,"SoundDuration":797872,"Delta":6456954},{"NoteNumber":59,"Velocity":60,"Duration":833333,"SoundDuration":833333,"Delta":7308018},{"NoteNumber":69,"Velocity":72,"Duration":833333,"SoundDuration":833333,"Delta":7308018},{"NoteNumber":66,"Velocity":60,"Duration":833333,"SoundDuration":833333,"Delta":7308018},{"NoteNumber":63,"Velocity":62,"Duration":833333,"SoundDuration":833333,"Delta":7308018},{"NoteNumber":65,"Velocity":63,"Duration":858779,"SoundDuration":858779,"Delta":8196907},{"NoteNumber":69,"Velocity":74,"Duration":858779,"SoundDuration":858779,"Delta":8196907},{"NoteNumber":62,"Velocity":54,"Duration":858779,"SoundDuration":858779,"Delta":8196907},{"NoteNumber":53,"Velocity":54,"Duration":858779,"SoundDuration":858779,"Delta":8196907},{"NoteNumber":63,"Velocity":63,"Duration":650412,"SoundDuration":650412,"Delta":9112938},{"NoteNumber":69,"Velocity":74,"Duration":650412,"SoundDuration":650412,"Delta":9112938},{"NoteNumber":53,"Velocity":54,"Duration":650412,"SoundDuration":650412,"Delta":9112938},{"NoteNumber":60,"Velocity":64,"Duration":650412,"SoundDuration":650412,"Delta":9112938},{"NoteNumber":46,"Velocity":65,"Duration":2936929,"SoundDuration":2936929,"Delta":9788603},{"NoteNumber":53,"Velocity":58,"Duration":2860130,"SoundDuration":2860130,"Delta":9865402},{"NoteNumber":58,"Velocity":58,"Duration":2780617,"SoundDuration":2780617,"Delta":9944915},{"NoteNumber":62,"Velocity":63,"Duration":2698790,"SoundDuration":2698790,"Delta":10026742},{"NoteNumber":65,"Velocity":63,"Duration":2613875,"SoundDuration":2613875,"Delta":10111657},{"NoteNumber":70,"Velocity":72,"Duration":2526315,"SoundDuration":2526315,"Delta":10199217},{"NoteNumber":70,"Velocity":36,"Duration":121212,"SoundDuration":121212,"Delta":12725532},{"NoteNumber":74,"Velocity":41,"Duration":121212,"SoundDuration":121212,"Delta":12725532},{"NoteNumber":62,"Velocity":36,"Duration":120872,"SoundDuration":120872,"Delta":12854320},{"NoteNumber":65,"Velocity":36,"Duration":120872,"SoundDuration":120872,"Delta":12854320},{"NoteNumber":70,"Velocity":36,"Duration":119403,"SoundDuration":119403,"Delta":12982656},{"NoteNumber":74,"Velocity":36,"Duration":119403,"SoundDuration":119403,"Delta":12982656},{"NoteNumber":77,"Velocity":41,"Duration":119403,"SoundDuration":119403,"Delta":12982656},{"NoteNumber":70,"Velocity":36,"Duration":118634,"SoundDuration":118634,"Delta":13109522},{"NoteNumber":65,"Velocity":36,"Duration":118634,"SoundDuration":118634,"Delta":13109522},{"NoteNumber":82,"Velocity":41,"Duration":117647,"SoundDuration":117647,"Delta":13235509},{"NoteNumber":74,"Velocity":36,"Duration":117647,"SoundDuration":117647,"Delta":13235509},{"NoteNumber":77,"Velocity":36,"Duration":117647,"SoundDuration":117647,"Delta":13235509},{"NoteNumber":70,"Velocity":36,"Duration":109228,"SoundDuration":109228,"Delta":13360509},{"NoteNumber":74,"Velocity":36,"Duration":109228,"SoundDuration":109228,"Delta":13360509},{"NoteNumber":77,"Velocity":36,"Duration":91966,"SoundDuration":91966,"Delta":13482238},{"NoteNumber":82,"Velocity":36,"Duration":91966,"SoundDuration":91966,"Delta":13482238},{"NoteNumber":86,"Velocity":41,"Duration":91966,"SoundDuration":91966,"Delta":13482238},{"NoteNumber":74,"Velocity":36,"Duration":87597,"SoundDuration":87597,"Delta":13586145},{"NoteNumber":77,"Velocity":36,"Duration":87597,"SoundDuration":87597,"Delta":13586145},{"NoteNumber":82,"Velocity":36,"Duration":83561,"SoundDuration":83561,"Delta":13685171},{"NoteNumber":86,"Velocity":36,"Duration":83561,"SoundDuration":83561,"Delta":13685171},{"NoteNumber":89,"Velocity":41,"Duration":83561,"SoundDuration":83561,"Delta":13685171},{"NoteNumber":77,"Velocity":36,"Duration":76069,"SoundDuration":76069,"Delta":13779602},{"NoteNumber":82,"Velocity":36,"Duration":76069,"SoundDuration":76069,"Delta":13779602},{"NoteNumber":94,"Velocity":43,"Duration":68617,"SoundDuration":68617,"Delta":13865288},{"NoteNumber":86,"Velocity":37,"Duration":68617,"SoundDuration":68617,"Delta":13865288},{"NoteNumber":89,"Velocity":37,"Duration":68617,"SoundDuration":68617,"Delta":13865288},{"NoteNumber":82,"Velocity":39,"Duration":64829,"SoundDuration":64829,"Delta":13942834},{"NoteNumber":86,"Velocity":39,"Duration":64829,"SoundDuration":64829,"Delta":13942834},{"NoteNumber":98,"Velocity":45,"Duration":61290,"SoundDuration":61290,"Delta":14015997},{"NoteNumber":94,"Velocity":41,"Duration":61290,"SoundDuration":61290,"Delta":14015997},{"NoteNumber":89,"Velocity":41,"Duration":61290,"SoundDuration":61290,"Delta":14015997},{"NoteNumber":86,"Velocity":43,"Duration":57712,"SoundDuration":57712,"Delta":14085226},{"NoteNumber":89,"Velocity":48,"Duration":57712,"SoundDuration":57712,"Delta":14085226},{"NoteNumber":94,"Velocity":44,"Duration":1764706,"SoundDuration":1764706,"Delta":14157976},{"NoteNumber":98,"Velocity":49,"Duration":1764706,"SoundDuration":1764706,"Delta":14157976},{"NoteNumber":101,"Velocity":44,"Duration":1764706,"SoundDuration":1764706,"Delta":14157976},{"NoteNumber":94,"Velocity":36,"Duration":322580,"SoundDuration":322580,"Delta":15922682},{"NoteNumber":97,"Velocity":41,"Duration":322580,"SoundDuration":322580,"Delta":15922682},{"NoteNumber":88,"Velocity":36,"Duration":322580,"SoundDuration":322580,"Delta":15922682},{"NoteNumber":91,"Velocity":33,"Duration":273972,"SoundDuration":273972,"Delta":16245263},{"NoteNumber":99,"Velocity":37,"Duration":273972,"SoundDuration":273972,"Delta":16245263},{"NoteNumber":89,"Velocity":35,"Duration":210843,"SoundDuration":210843,"Delta":16519235},{"NoteNumber":98,"Velocity":38,"Duration":210843,"SoundDuration":210843,"Delta":16519235},{"NoteNumber":93,"Velocity":41,"Duration":232558,"SoundDuration":232558,"Delta":16760199},{"NoteNumber":89,"Velocity":36,"Duration":232558,"SoundDuration":232558,"Delta":16760199},{"NoteNumber":85,"Velocity":36,"Duration":232558,"SoundDuration":232558,"Delta":16760199},{"NoteNumber":87,"Velocity":33,"Duration":173912,"SoundDuration":173912,"Delta":16992757},{"NoteNumber":96,"Velocity":37,"Duration":173912,"SoundDuration":173912,"Delta":16992757},{"NoteNumber":86,"Velocity":33,"Duration":145833,"SoundDuration":145833,"Delta":17166670},{"NoteNumber":94,"Velocity":37,"Duration":145833,"SoundDuration":145833,"Delta":17166670},{"NoteNumber":88,"Velocity":41,"Duration":161290,"SoundDuration":161290,"Delta":17333337},{"NoteNumber":85,"Velocity":36,"Duration":161290,"SoundDuration":161290,"Delta":17333337},{"NoteNumber":82,"Velocity":36,"Duration":161290,"SoundDuration":161290,"Delta":17333337},{"NoteNumber":86,"Velocity":35,"Duration":136054,"SoundDuration":136054,"Delta":17494627},{"NoteNumber":91,"Velocity":38,"Duration":136054,"SoundDuration":136054,"Delta":17494627},{"NoteNumber":82,"Velocity":35,"Duration":112903,"SoundDuration":112903,"Delta":17630682},{"NoteNumber":89,"Velocity":38,"Duration":112903,"SoundDuration":112903,"Delta":17630682},{"NoteNumber":76,"Velocity":36,"Duration":132450,"SoundDuration":132450,"Delta":17759714},{"NoteNumber":82,"Velocity":36,"Duration":132450,"SoundDuration":132450,"Delta":17759714},{"NoteNumber":85,"Velocity":41,"Duration":132450,"SoundDuration":132450,"Delta":17759714},{"NoteNumber":79,"Velocity":33,"Duration":124999,"SoundDuration":124999,"Delta":17892165},{"NoteNumber":87,"Velocity":37,"Duration":124999,"SoundDuration":124999,"Delta":17892165},{"NoteNumber":77,"Velocity":35,"Duration":102941,"SoundDuration":102941,"Delta":18017165},{"NoteNumber":86,"Velocity":38,"Duration":102941,"SoundDuration":102941,"Delta":18017165},{"NoteNumber":81,"Velocity":41,"Duration":108108,"SoundDuration":108108,"Delta":18134812},{"NoteNumber":77,"Velocity":36,"Duration":108108,"SoundDuration":108108,"Delta":18134812},{"NoteNumber":73,"Velocity":36,"Duration":108108,"SoundDuration":108108,"Delta":18134812},{"NoteNumber":75,"Velocity":33,"Duration":101522,"SoundDuration":101522,"Delta":18242920},{"NoteNumber":84,"Velocity":37,"Duration":101522,"SoundDuration":101522,"Delta":18242920},{"NoteNumber":74,"Velocity":35,"Duration":88832,"SoundDuration":88832,"Delta":18344443},{"NoteNumber":82,"Velocity":38,"Duration":88832,"SoundDuration":88832,"Delta":18344443},{"NoteNumber":76,"Velocity":43,"Duration":104166,"SoundDuration":104166,"Delta":18445965},{"NoteNumber":73,"Velocity":37,"Duration":104166,"SoundDuration":104166,"Delta":18445965},{"NoteNumber":70,"Velocity":37,"Duration":104166,"SoundDuration":104166,"Delta":18445965},{"NoteNumber":74,"Velocity":36,"Duration":95693,"SoundDuration":95693,"Delta":18550132},{"NoteNumber":79,"Velocity":41,"Duration":95693,"SoundDuration":95693,"Delta":18550132},{"NoteNumber":77,"Velocity":42,"Duration":83732,"SoundDuration":83732,"Delta":18645826},{"NoteNumber":70,"Velocity":36,"Duration":83732,"SoundDuration":83732,"Delta":18645826},{"NoteNumber":64,"Velocity":39,"Duration":98522,"SoundDuration":98522,"Delta":18741520},{"NoteNumber":73,"Velocity":45,"Duration":98522,"SoundDuration":98522,"Delta":18741520},{"NoteNumber":70,"Velocity":39,"Duration":98522,"SoundDuration":98522,"Delta":18741520},{"NoteNumber":67,"Velocity":36,"Duration":93896,"SoundDuration":93896,"Delta":18840042},{"NoteNumber":75,"Velocity":42,"Duration":93896,"SoundDuration":93896,"Delta":18840042},{"NoteNumber":65,"Velocity":36,"Duration":82363,"SoundDuration":82363,"Delta":18933939},{"NoteNumber":74,"Velocity":41,"Duration":82363,"SoundDuration":82363,"Delta":18933939},{"NoteNumber":69,"Velocity":46,"Duration":96618,"SoundDuration":96618,"Delta":19028380},{"NoteNumber":65,"Velocity":42,"Duration":96618,"SoundDuration":96618,"Delta":19028380},{"NoteNumber":61,"Velocity":42,"Duration":96618,"SoundDuration":96618,"Delta":19028380},{"NoteNumber":63,"Velocity":38,"Duration":91743,"SoundDuration":91743,"Delta":19124998},{"NoteNumber":72,"Velocity":44,"Duration":91743,"SoundDuration":91743,"Delta":19124998},{"NoteNumber":62,"Velocity":39,"Duration":80275,"SoundDuration":80275,"Delta":19216741},{"NoteNumber":70,"Velocity":45,"Duration":80275,"SoundDuration":80275,"Delta":19216741},{"NoteNumber":64,"Velocity":49,"Duration":93023,"SoundDuration":93023,"Delta":19308484},{"NoteNumber":58,"Velocity":44,"Duration":93023,"SoundDuration":93023,"Delta":19308484},{"NoteNumber":61,"Velocity":44,"Duration":93023,"SoundDuration":93023,"Delta":19308484},{"NoteNumber":62,"Velocity":41,"Duration":88105,"SoundDuration":88105,"Delta":19401508},{"NoteNumber":67,"Velocity":45,"Duration":88105,"SoundDuration":88105,"Delta":19401508},{"NoteNumber":58,"Velocity":41,"Duration":77092,"SoundDuration":77092,"Delta":19489613},{"NoteNumber":65,"Velocity":45,"Duration":77092,"SoundDuration":77092,"Delta":19489613},{"NoteNumber":52,"Velocity":49,"Duration":90909,"SoundDuration":90909,"Delta":19577719},{"NoteNumber":61,"Velocity":55,"Duration":90909,"SoundDuration":90909,"Delta":19577719},{"NoteNumber":58,"Velocity":49,"Duration":90909,"SoundDuration":90909,"Delta":19577719},{"NoteNumber":55,"Velocity":45,"Duration":86956,"SoundDuration":86956,"Delta":19668628},{"NoteNumber":63,"Velocity":52,"Duration":86956,"SoundDuration":86956,"Delta":19668628},{"NoteNumber":53,"Velocity":45,"Duration":76086,"SoundDuration":76086,"Delta":19755585},{"NoteNumber":62,"Velocity":52,"Duration":76086,"SoundDuration":76086,"Delta":19755585},{"NoteNumber":57,"Velocity":58,"Duration":93023,"SoundDuration":93023,"Delta":19842541},{"NoteNumber":53,"Velocity":52,"Duration":93023,"SoundDuration":93023,"Delta":19842541},{"NoteNumber":49,"Velocity":52,"Duration":93023,"SoundDuration":93023,"Delta":19842541},{"NoteNumber":60,"Velocity":54,"Duration":87719,"SoundDuration":87719,"Delta":19935564},{"NoteNumber":51,"Velocity":48,"Duration":87719,"SoundDuration":87719,"Delta":19935564},{"NoteNumber":50,"Velocity":48,"Duration":76754,"SoundDuration":76754,"Delta":20023284},{"NoteNumber":58,"Velocity":54,"Duration":76754,"SoundDuration":76754,"Delta":20023284},{"NoteNumber":52,"Velocity":63,"Duration":95238,"SoundDuration":95238,"Delta":20111003},{"NoteNumber":49,"Velocity":55,"Duration":95238,"SoundDuration":95238,"Delta":20111003},{"NoteNumber":46,"Velocity":55,"Duration":95238,"SoundDuration":95238,"Delta":20111003},{"NoteNumber":50,"Velocity":53,"Duration":88888,"SoundDuration":88888,"Delta":20206241},{"NoteNumber":55,"Velocity":59,"Duration":88888,"SoundDuration":88888,"Delta":20206241},{"NoteNumber":46,"Velocity":53,"Duration":77777,"SoundDuration":77777,"Delta":20295130},{"NoteNumber":53,"Velocity":59,"Duration":77777,"SoundDuration":77777,"Delta":20295130},{"NoteNumber":49,"Velocity":69,"Duration":95693,"SoundDuration":95693,"Delta":20384019},{"NoteNumber":46,"Velocity":62,"Duration":95693,"SoundDuration":95693,"Delta":20384019},{"NoteNumber":40,"Velocity":62,"Duration":95693,"SoundDuration":95693,"Delta":20384019},{"NoteNumber":43,"Velocity":55,"Duration":98039,"SoundDuration":98039,"Delta":20479713},{"NoteNumber":51,"Velocity":63,"Duration":98039,"SoundDuration":98039,"Delta":20479713},{"NoteNumber":41,"Velocity":55,"Duration":89743,"SoundDuration":89743,"Delta":20577752},{"NoteNumber":50,"Velocity":63,"Duration":89743,"SoundDuration":89743,"Delta":20577752},{"NoteNumber":34,"Velocity":82,"Duration":618556,"SoundDuration":618556,"Delta":20680316},{"NoteNumber":34,"Velocity":46,"Duration":81081,"SoundDuration":81081,"Delta":21298873},{"NoteNumber":36,"Velocity":43,"Duration":80200,"SoundDuration":80200,"Delta":21379954},{"NoteNumber":34,"Velocity":48,"Duration":78950,"SoundDuration":78950,"Delta":21460154},{"NoteNumber":36,"Velocity":48,"Duration":77737,"SoundDuration":77737,"Delta":21539104},{"NoteNumber":34,"Velocity":56,"Duration":76560,"SoundDuration":76560,"Delta":21616842},{"NoteNumber":36,"Velocity":52,"Duration":75350,"SoundDuration":75350,"Delta":21693403},{"NoteNumber":34,"Velocity":61,"Duration":74245,"SoundDuration":74245,"Delta":21768753},{"NoteNumber":36,"Velocity":58,"Duration":73172,"SoundDuration":73172,"Delta":21842999},{"NoteNumber":34,"Velocity":68,"Duration":72130,"SoundDuration":72130,"Delta":21916171},{"NoteNumber":36,"Velocity":66,"Duration":71428,"SoundDuration":71428,"Delta":21988302},{"NoteNumber":34,"Velocity":73,"Duration":79365,"SoundDuration":79365,"Delta":22059730},{"NoteNumber":33,"Velocity":79,"Duration":89702,"SoundDuration":89702,"Delta":22139095},{"NoteNumber":34,"Velocity":70,"Duration":94805,"SoundDuration":94805,"Delta":22228798},{"NoteNumber":46,"Velocity":77,"Duration":185185,"SoundDuration":185185,"Delta":22323603},{"NoteNumber":62,"Velocity":54,"Duration":558161,"SoundDuration":558161,"Delta":22879159},{"NoteNumber":70,"Velocity":54,"Duration":526110,"SoundDuration":526110,"Delta":22911210},{"NoteNumber":77,"Velocity":54,"Duration":494058,"SoundDuration":494058,"Delta":22943261},{"NoteNumber":80,"Velocity":53,"Duration":462007,"SoundDuration":462007,"Delta":22975313},{"NoteNumber":86,"Velocity":57,"Duration":429956,"SoundDuration":429956,"Delta":23007364},{"NoteNumber":89,"Velocity":60,"Duration":397905,"SoundDuration":397905,"Delta":23039415},{"NoteNumber":94,"Velocity":64,"Duration":365853,"SoundDuration":365853,"Delta":23071467},{"NoteNumber":58,"Velocity":66,"Duration":3257918,"SoundDuration":3257918,"Delta":23803174},{"NoteNumber":81,"Velocity":41,"Duration":66990,"SoundDuration":66990,"Delta":27061093},{"NoteNumber":82,"Velocity":36,"Duration":67689,"SoundDuration":67689,"Delta":27136762},{"NoteNumber":87,"Velocity":38,"Duration":67213,"SoundDuration":67213,"Delta":27213129},{"NoteNumber":84,"Velocity":36,"Duration":65034,"SoundDuration":65034,"Delta":27288680},{"NoteNumber":82,"Velocity":36,"Duration":65034,"SoundDuration":65034,"Delta":27362053},{"NoteNumber":80,"Velocity":36,"Duration":65034,"SoundDuration":65034,"Delta":27435425},{"NoteNumber":79,"Velocity":33,"Duration":65034,"SoundDuration":65034,"Delta":27508798},{"NoteNumber":77,"Velocity":37,"Duration":65034,"SoundDuration":65034,"Delta":27582170},{"NoteNumber":75,"Velocity":37,"Duration":65034,"SoundDuration":65034,"Delta":27655543},{"NoteNumber":74,"Velocity":36,"Duration":65034,"SoundDuration":65034,"Delta":27728915},{"NoteNumber":72,"Velocity":36,"Duration":58364,"SoundDuration":58364,"Delta":27802288},{"NoteNumber":70,"Velocity":41,"Duration":193965,"SoundDuration":193965,"Delta":27868990},{"NoteNumber":55,"Velocity":27,"Duration":206421,"SoundDuration":206421,"Delta":28386231},{"NoteNumber":58,"Velocity":27,"Duration":206421,"SoundDuration":206421,"Delta":28386231},{"NoteNumber":63,"Velocity":30,"Duration":206421,"SoundDuration":206421,"Delta":28386231},{"NoteNumber":46,"Velocity":27,"Duration":206421,"SoundDuration":206421,"Delta":28386231},{"NoteNumber":39,"Velocity":27,"Duration":206421,"SoundDuration":206421,"Delta":28386231},{"NoteNumber":65,"Velocity":32,"Duration":208333,"SoundDuration":208333,"Delta":28936690},{"NoteNumber":58,"Velocity":28,"Duration":208333,"SoundDuration":208333,"Delta":28936690},{"NoteNumber":56,"Velocity":28,"Duration":208333,"SoundDuration":208333,"Delta":28936690},{"NoteNumber":46,"Velocity":27,"Duration":208333,"SoundDuration":208333,"Delta":28936690},{"NoteNumber":39,"Velocity":27,"Duration":208333,"SoundDuration":208333,"Delta":28936690},{"NoteNumber":66,"Velocity":31,"Duration":218446,"SoundDuration":218446,"Delta":29492245},{"NoteNumber":57,"Velocity":27,"Duration":218446,"SoundDuration":218446,"Delta":29492245},{"NoteNumber":58,"Velocity":27,"Duration":218446,"SoundDuration":218446,"Delta":29492245},{"NoteNumber":46,"Velocity":27,"Duration":218446,"SoundDuration":218446,"Delta":29492245},{"NoteNumber":39,"Velocity":27,"Duration":218446,"SoundDuration":218446,"Delta":29492245},{"NoteNumber":58,"Velocity":29,"Duration":652230,"SoundDuration":652230,"Delta":30074770},{"NoteNumber":67,"Velocity":33,"Duration":652230,"SoundDuration":652230,"Delta":30074770},{"NoteNumber":46,"Velocity":29,"Duration":1304404,"SoundDuration":1304404,"Delta":30074770},{"NoteNumber":39,"Velocity":29,"Duration":1304404,"SoundDuration":1304404,"Delta":30074770},{"NoteNumber":55,"Velocity":27,"Duration":326087,"SoundDuration":326087,"Delta":30727000},{"NoteNumber":63,"Velocity":30,"Duration":326087,"SoundDuration":326087,"Delta":30727000},{"NoteNumber":81,"Velocity":41,"Duration":51418,"SoundDuration":51418,"Delta":31379174},{"NoteNumber":82,"Velocity":36,"Duration":51418,"SoundDuration":51418,"Delta":31439458},{"NoteNumber":91,"Velocity":36,"Duration":51418,"SoundDuration":51418,"Delta":31499741},{"NoteNumber":89,"Velocity":36,"Duration":49657,"SoundDuration":49657,"Delta":31559904},{"NoteNumber":87,"Velocity":36,"Duration":49657,"SoundDuration":49657,"Delta":31618123},{"NoteNumber":86,"Velocity":36,"Duration":49657,"SoundDuration":49657,"Delta":31676342},{"NoteNumber":84,"Velocity":36,"Duration":49657,"SoundDuration":49657,"Delta":31734561},{"NoteNumber":82,"Velocity":36,"Duration":49657,"SoundDuration":49657,"Delta":31792780},{"NoteNumber":80,"Velocity":36,"Duration":49657,"SoundDuration":49657,"Delta":31850999},{"NoteNumber":79,"Velocity":33,"Duration":49657,"SoundDuration":49657,"Delta":31909219},{"NoteNumber":77,"Velocity":37,"Duration":49657,"SoundDuration":49657,"Delta":31967438},{"NoteNumber":75,"Velocity":37,"Duration":49657,"SoundDuration":49657,"Delta":32025657},{"NoteNumber":74,"Velocity":36,"Duration":49657,"SoundDuration":49657,"Delta":32083876},{"NoteNumber":72,"Velocity":36,"Duration":56506,"SoundDuration":56506,"Delta":32142095},{"NoteNumber":70,"Velocity":41,"Duration":202702,"SoundDuration":202702,"Delta":32207164},{"NoteNumber":63,"Velocity":26,"Duration":212264,"SoundDuration":212264,"Delta":32747704},{"NoteNumber":55,"Velocity":26,"Duration":212264,"SoundDuration":212264,"Delta":32747704},{"NoteNumber":58,"Velocity":26,"Duration":212264,"SoundDuration":212264,"Delta":32747704},{"NoteNumber":46,"Velocity":27,"Duration":212264,"SoundDuration":212264,"Delta":32747704},{"NoteNumber":39,"Velocity":27,"Duration":212264,"SoundDuration":212264,"Delta":32747704},{"NoteNumber":56,"Velocity":28,"Duration":234375,"SoundDuration":234375,"Delta":33313742},{"NoteNumber":62,"Velocity":28,"Duration":234375,"SoundDuration":234375,"Delta":33313742},{"NoteNumber":65,"Velocity":32,"Duration":234375,"SoundDuration":234375,"Delta":33313742},{"NoteNumber":39,"Velocity":29,"Duration":234375,"SoundDuration":234375,"Delta":33313742},{"NoteNumber":46,"Velocity":29,"Duration":234375,"SoundDuration":234375,"Delta":33313742},{"NoteNumber":58,"Velocity":27,"Duration":264705,"SoundDuration":264705,"Delta":33938742},{"NoteNumber":67,"Velocity":30,"Duration":264705,"SoundDuration":264705,"Delta":33938742},{"NoteNumber":39,"Velocity":27,"Duration":264705,"SoundDuration":264705,"Delta":33938742},{"NoteNumber":46,"Velocity":27,"Duration":264705,"SoundDuration":264705,"Delta":33938742},{"NoteNumber":55,"Velocity":27,"Duration":1619718,"SoundDuration":1619718,"Delta":34644624},{"NoteNumber":63,"Velocity":30,"Duration":1619718,"SoundDuration":1619718,"Delta":34644624},{"NoteNumber":39,"Velocity":27,"Duration":1619718,"SoundDuration":1619718,"Delta":34644624},{"NoteNumber":46,"Velocity":27,"Duration":1619718,"SoundDuration":1619718,"Delta":34644624},{"NoteNumber":93,"Velocity":41,"Duration":58593,"SoundDuration":58593,"Delta":36334765},{"NoteNumber":94,"Velocity":36,"Duration":58593,"SoundDuration":58593,"Delta":36397265},{"NoteNumber":99,"Velocity":38,"Duration":46875,"SoundDuration":46875,"Delta":36459765},{"NoteNumber":96,"Velocity":36,"Duration":46875,"SoundDuration":46875,"Delta":36510547},{"NoteNumber":94,"Velocity":36,"Duration":46875,"SoundDuration":46875,"Delta":36561328},{"NoteNumber":92,"Velocity":36,"Duration":46875,"SoundDuration":46875,"Delta":36612109},{"NoteNumber":91,"Velocity":33,"Duration":46875,"SoundDuration":46875,"Delta":36662890},{"NoteNumber":89,"Velocity":37,"Duration":46875,"SoundDuration":46875,"Delta":36713672},{"NoteNumber":87,"Velocity":37,"Duration":46875,"SoundDuration":46875,"Delta":36764453},{"NoteNumber":86,"Velocity":36,"Duration":46875,"SoundDuration":46875,"Delta":36815234},{"NoteNumber":84,"Velocity":36,"Duration":46875,"SoundDuration":46875,"Delta":36866015},{"NoteNumber":82,"Velocity":36,"Duration":46875,"SoundDuration":46875,"Delta":36916797},{"NoteNumber":80,"Velocity":36,"Duration":46875,"SoundDuration":46875,"Delta":36967578},{"NoteNumber":79,"Velocity":36,"Duration":46875,"SoundDuration":46875,"Delta":37018359},{"NoteNumber":77,"Velocity":36,"Duration":46875,"SoundDuration":46875,"Delta":37069140},{"NoteNumber":75,"Velocity":36,"Duration":46875,"SoundDuration":46875,"Delta":37119922},{"NoteNumber":74,"Velocity":36,"Duration":46875,"SoundDuration":46875,"Delta":37170703},{"NoteNumber":72,"Velocity":36,"Duration":46875,"SoundDuration":46875,"Delta":37225390},{"NoteNumber":70,"Velocity":41,"Duration":199115,"SoundDuration":199115,"Delta":37272265},{"NoteNumber":63,"Velocity":33,"Duration":208333,"SoundDuration":208333,"Delta":37807068},{"NoteNumber":58,"Velocity":29,"Duration":208333,"SoundDuration":208333,"Delta":37807068},{"NoteNumber":55,"Velocity":29,"Duration":208333,"SoundDuration":208333,"Delta":37807068},{"NoteNumber":39,"Velocity":29,"Duration":208333,"SoundDuration":208333,"Delta":37807068},{"NoteNumber":46,"Velocity":29,"Duration":208333,"SoundDuration":208333,"Delta":37807068},{"NoteNumber":65,"Velocity":36,"Duration":216346,"SoundDuration":216346,"Delta":38362624},{"NoteNumber":58,"Velocity":31,"Duration":216346,"SoundDuration":216346,"Delta":38362624},{"NoteNumber":56,"Velocity":31,"Duration":216346,"SoundDuration":216346,"Delta":38362624},{"NoteNumber":39,"Velocity":32,"Duration":216346,"SoundDuration":216346,"Delta":38362624},{"NoteNumber":46,"Velocity":32,"Duration":216346,"SoundDuration":216346,"Delta":38362624},{"NoteNumber":66,"Velocity":35,"Duration":236842,"SoundDuration":236842,"Delta":38939547},{"NoteNumber":58,"Velocity":30,"Duration":236842,"SoundDuration":236842,"Delta":38939547},{"NoteNumber":57,"Velocity":30,"Duration":236842,"SoundDuration":236842,"Delta":38939547},{"NoteNumber":39,"Velocity":30,"Duration":236842,"SoundDuration":236842,"Delta":38939547},{"NoteNumber":46,"Velocity":30,"Duration":236842,"SoundDuration":236842,"Delta":38939547},{"NoteNumber":58,"Velocity":32,"Duration":697674,"SoundDuration":697674,"Delta":39571126},{"NoteNumber":67,"Velocity":36,"Duration":697674,"SoundDuration":697674,"Delta":39571126},{"NoteNumber":39,"Velocity":32,"Duration":1542744,"SoundDuration":1542744,"Delta":39571126},{"NoteNumber":46,"Velocity":32,"Duration":1542744,"SoundDuration":1542744,"Delta":39571126},{"NoteNumber":55,"Velocity":29,"Duration":422535,"SoundDuration":422535,"Delta":40268800},{"NoteNumber":63,"Velocity":33,"Duration":422535,"SoundDuration":422535,"Delta":40268800},{"NoteNumber":93,"Velocity":41,"Duration":73232,"SoundDuration":73232,"Delta":41113871},{"NoteNumber":94,"Velocity":36,"Duration":73232,"SoundDuration":73232,"Delta":41192153},{"NoteNumber":103,"Velocity":36,"Duration":50505,"SoundDuration":50505,"Delta":41270436},{"NoteNumber":101,"Velocity":36,"Duration":50505,"SoundDuration":50505,"Delta":41325992},{"NoteNumber":99,"Velocity":36,"Duration":50505,"SoundDuration":50505,"Delta":41381547},{"NoteNumber":98,"Velocity":36,"Duration":50505,"SoundDuration":50505,"Delta":41437103},{"NoteNumber":96,"Velocity":36,"Duration":50505,"SoundDuration":50505,"Delta":41492658},{"NoteNumber":94,"Velocity":36,"Duration":50505,"SoundDuration":50505,"Delta":41548214},{"NoteNumber":92,"Velocity":36,"Duration":50505,"SoundDuration":50505,"Delta":41603769},{"NoteNumber":91,"Velocity":33,"Duration":50505,"SoundDuration":50505,"Delta":41659325},{"NoteNumber":89,"Velocity":37,"Duration":50505,"SoundDuration":50505,"Delta":41714881},{"NoteNumber":87,"Velocity":37,"Duration":50505,"SoundDuration":50505,"Delta":41770436},{"NoteNumber":86,"Velocity":36,"Duration":50505,"SoundDuration":50505,"Delta":41825992},{"NoteNumber":84,"Velocity":36,"Duration":50505,"SoundDuration":50505,"Delta":41881547},{"NoteNumber":82,"Velocity":36,"Duration":50505,"SoundDuration":50505,"Delta":41937103},{"NoteNumber":80,"Velocity":36,"Duration":50505,"SoundDuration":50505,"Delta":41992658},{"NoteNumber":79,"Velocity":36,"Duration":50505,"SoundDuration":50505,"Delta":42048214},{"NoteNumber":77,"Velocity":36,"Duration":50505,"SoundDuration":50505,"Delta":42103769},{"NoteNumber":75,"Velocity":36,"Duration":50505,"SoundDuration":50505,"Delta":42159325},{"NoteNumber":74,"Velocity":36,"Duration":50505,"SoundDuration":50505,"Delta":42214880},{"NoteNumber":72,"Velocity":36,"Duration":50505,"SoundDuration":50505,"Delta":42270436},{"NoteNumber":70,"Velocity":41,"Duration":202702,"SoundDuration":202702,"Delta":42325992},{"NoteNumber":63,"Velocity":36,"Duration":218446,"SoundDuration":218446,"Delta":42866532},{"NoteNumber":58,"Velocity":32,"Duration":218446,"SoundDuration":218446,"Delta":42866532},{"NoteNumber":55,"Velocity":32,"Duration":218446,"SoundDuration":218446,"Delta":42866532},{"NoteNumber":39,"Velocity":31,"Duration":218446,"SoundDuration":218446,"Delta":42866532},{"NoteNumber":46,"Velocity":31,"Duration":218446,"SoundDuration":218446,"Delta":42866532},{"NoteNumber":56,"Velocity":33,"Duration":231958,"SoundDuration":231958,"Delta":43449057},{"NoteNumber":62,"Velocity":33,"Duration":231958,"SoundDuration":231958,"Delta":43449057},{"NoteNumber":65,"Velocity":37,"Duration":231958,"SoundDuration":231958,"Delta":43449057},{"NoteNumber":39,"Velocity":32,"Duration":231958,"SoundDuration":231958,"Delta":43449057},{"NoteNumber":47,"Velocity":32,"Duration":231958,"SoundDuration":231958,"Delta":43449057},{"NoteNumber":62,"Velocity":32,"Duration":288461,"SoundDuration":288461,"Delta":44067613},{"NoteNumber":56,"Velocity":32,"Duration":288461,"SoundDuration":288461,"Delta":44067613},{"NoteNumber":67,"Velocity":36,"Duration":288461,"SoundDuration":288461,"Delta":44067613},{"NoteNumber":46,"Velocity":31,"Duration":288461,"SoundDuration":288461,"Delta":44067613},{"NoteNumber":39,"Velocity":31,"Duration":288461,"SoundDuration":288461,"Delta":44067613},{"NoteNumber":55,"Velocity":30,"Duration":1597222,"SoundDuration":1597222,"Delta":44836844},{"NoteNumber":63,"Velocity":35,"Duration":1597222,"SoundDuration":1597222,"Delta":44836844},{"NoteNumber":39,"Velocity":29,"Duration":1597222,"SoundDuration":1597222,"Delta":44836844},{"NoteNumber":51,"Velocity":29,"Duration":1597222,"SoundDuration":1597222,"Delta":44836844},{"NoteNumber":46,"Velocity":29,"Duration":1597222,"SoundDuration":1597222,"Delta":44836844},{"NoteNumber":46,"Velocity":53,"Duration":63311,"SoundDuration":63311,"Delta":46503511},{"NoteNumber":45,"Velocity":53,"Duration":63311,"SoundDuration":63311,"Delta":46568446},{"NoteNumber":44,"Velocity":53,"Duration":63311,"SoundDuration":63311,"Delta":46633381},{"NoteNumber":43,"Velocity":53,"Duration":63311,"SoundDuration":63311,"Delta":46698316},{"NoteNumber":42,"Velocity":53,"Duration":63311,"SoundDuration":63311,"Delta":46763251},{"NoteNumber":41,"Velocity":53,"Duration":63311,"SoundDuration":63311,"Delta":46828186},{"NoteNumber":40,"Velocity":55,"Duration":63311,"SoundDuration":63311,"Delta":46893122},{"NoteNumber":39,"Velocity":57,"Duration":63311,"SoundDuration":63311,"Delta":46958057},{"NoteNumber":38,"Velocity":59,"Duration":63311,"SoundDuration":63311,"Delta":47022992},{"NoteNumber":37,"Velocity":62,"Duration":63311,"SoundDuration":63311,"Delta":47087927},{"NoteNumber":36,"Velocity":63,"Duration":63311,"SoundDuration":63311,"Delta":47152862},{"NoteNumber":35,"Velocity":65,"Duration":63311,"SoundDuration":63311,"Delta":47217797},{"NoteNumber":34,"Velocity":80,"Duration":141509,"SoundDuration":141509,"Delta":47282732},{"NoteNumber":62,"Velocity":50,"Duration":204545,"SoundDuration":204545,"Delta":47848770},{"NoteNumber":58,"Velocity":45,"Duration":204545,"SoundDuration":204545,"Delta":47848770},{"NoteNumber":46,"Velocity":41,"Duration":204545,"SoundDuration":204545,"Delta":47848770},{"NoteNumber":53,"Velocity":41,"Duration":204545,"SoundDuration":204545,"Delta":47848770},{"NoteNumber":60,"Velocity":50,"Duration":212264,"SoundDuration":212264,"Delta":48394224},{"NoteNumber":58,"Velocity":50,"Duration":212264,"SoundDuration":212264,"Delta":48394224},{"NoteNumber":63,"Velocity":56,"Duration":212264,"SoundDuration":212264,"Delta":48394224},{"NoteNumber":54,"Velocity":45,"Duration":212264,"SoundDuration":212264,"Delta":48394224},{"NoteNumber":46,"Velocity":45,"Duration":212264,"SoundDuration":212264,"Delta":48394224},{"NoteNumber":58,"Velocity":45,"Duration":225000,"SoundDuration":225000,"Delta":48960262},{"NoteNumber":61,"Velocity":45,"Duration":225000,"SoundDuration":225000,"Delta":48960262},{"NoteNumber":64,"Velocity":51,"Duration":225000,"SoundDuration":225000,"Delta":48960262},{"NoteNumber":46,"Velocity":43,"Duration":225000,"SoundDuration":225000,"Delta":48960262},{"NoteNumber":55,"Velocity":43,"Duration":225000,"SoundDuration":225000,"Delta":48960262},{"NoteNumber":62,"Velocity":45,"Duration":652174,"SoundDuration":652174,"Delta":49560262},{"NoteNumber":65,"Velocity":52,"Duration":652174,"SoundDuration":652174,"Delta":49560262},{"NoteNumber":46,"Velocity":45,"Duration":1375065,"SoundDuration":1375065,"Delta":49560262},{"NoteNumber":58,"Velocity":45,"Duration":646739,"SoundDuration":646739,"Delta":49560262},{"NoteNumber":58,"Velocity":44,"Duration":361445,"SoundDuration":361445,"Delta":50212436},{"NoteNumber":62,"Velocity":49,"Duration":361445,"SoundDuration":361445,"Delta":50212436},{"NoteNumber":53,"Velocity":44,"Duration":361445,"SoundDuration":361445,"Delta":50212436},{"NoteNumber":34,"Velocity":55,"Duration":62937,"SoundDuration":62937,"Delta":50935327},{"NoteNumber":36,"Velocity":56,"Duration":62937,"SoundDuration":62937,"Delta":51000012},{"NoteNumber":38,"Velocity":57,"Duration":62937,"SoundDuration":62937,"Delta":51064698},{"NoteNumber":39,"Velocity":59,"Duration":62937,"SoundDuration":62937,"Delta":51129383},{"NoteNumber":41,"Velocity":60,"Duration":62937,"SoundDuration":62937,"Delta":51194068},{"NoteNumber":43,"Velocity":62,"Duration":62937,"SoundDuration":62937,"Delta":51258754},{"NoteNumber":45,"Velocity":63,"Duration":62937,"SoundDuration":62937,"Delta":51323439},{"NoteNumber":46,"Velocity":63,"Duration":62937,"SoundDuration":62937,"Delta":51388124},{"NoteNumber":48,"Velocity":64,"Duration":62937,"SoundDuration":62937,"Delta":51452810},{"NoteNumber":50,"Velocity":65,"Duration":62937,"SoundDuration":62937,"Delta":51517495},{"NoteNumber":51,"Velocity":67,"Duration":62937,"SoundDuration":62937,"Delta":51582180},{"NoteNumber":52,"Velocity":69,"Duration":62937,"SoundDuration":62937,"Delta":51646866},{"NoteNumber":55,"Velocity":70,"Duration":61188,"SoundDuration":61188,"Delta":51711551},{"NoteNumber":53,"Velocity":63,"Duration":3142849,"SoundDuration":3142849,"Delta":51774488},{"NoteNumber":62,"Velocity":49,"Duration":212264,"SoundDuration":212264,"Delta":52357013},{"NoteNumber":58,"Velocity":44,"Duration":212264,"SoundDuration":212264,"Delta":52357013},{"NoteNumber":41,"Velocity":41,"Duration":212264,"SoundDuration":212264,"Delta":52357013},{"NoteNumber":46,"Velocity":41,"Duration":212264,"SoundDuration":212264,"Delta":52357013},{"NoteNumber":57,"Velocity":46,"Duration":222772,"SoundDuration":222772,"Delta":52923050},{"NoteNumber":63,"Velocity":53,"Duration":222772,"SoundDuration":222772,"Delta":52923050},{"NoteNumber":48,"Velocity":44,"Duration":222772,"SoundDuration":222772,"Delta":52923050},{"NoteNumber":41,"Velocity":44,"Duration":222772,"SoundDuration":222772,"Delta":52923050},{"NoteNumber":57,"Velocity":45,"Duration":244565,"SoundDuration":244565,"Delta":53524423},{"NoteNumber":65,"Velocity":50,"Duration":244565,"SoundDuration":244565,"Delta":53524423},{"NoteNumber":50,"Velocity":43,"Duration":244565,"SoundDuration":244565,"Delta":53524423},{"NoteNumber":41,"Velocity":43,"Duration":244565,"SoundDuration":244565,"Delta":53524423},{"NoteNumber":58,"Velocity":45,"Duration":1419752,"SoundDuration":1419752,"Delta":54176597},{"NoteNumber":62,"Velocity":51,"Duration":1419752,"SoundDuration":1419752,"Delta":54176597},{"NoteNumber":46,"Velocity":44,"Duration":1481481,"SoundDuration":1481481,"Delta":54176597},{"NoteNumber":34,"Velocity":48,"Duration":370370,"SoundDuration":370370,"Delta":54917337},{"NoteNumber":70,"Velocity":58,"Duration":56686,"SoundDuration":56686,"Delta":55658078},{"NoteNumber":69,"Velocity":58,"Duration":56686,"SoundDuration":56686,"Delta":55716217},{"NoteNumber":68,"Velocity":58,"Duration":56686,"SoundDuration":56686,"Delta":55774357},{"NoteNumber":67,"Velocity":58,"Duration":56686,"SoundDuration":56686,"Delta":55832496},{"NoteNumber":66,"Velocity":58,"Duration":56686,"SoundDuration":56686,"Delta":55890636},{"NoteNumber":65,"Velocity":58,"Duration":56686,"SoundDuration":56686,"Delta":55948775},{"NoteNumber":64,"Velocity":60,"Duration":56686,"SoundDuration":56686,"Delta":56006915},{"NoteNumber":63,"Velocity":63,"Duration":56686,"SoundDuration":56686,"Delta":56065054},{"NoteNumber":62,"Velocity":64,"Duration":56686,"SoundDuration":56686,"Delta":56123194},{"NoteNumber":61,"Velocity":67,"Duration":56686,"SoundDuration":56686,"Delta":56181333},{"NoteNumber":60,"Velocity":70,"Duration":56686,"SoundDuration":56686,"Delta":56239473},{"NoteNumber":59,"Velocity":72,"Duration":56686,"SoundDuration":56686,"Delta":56297612},{"NoteNumber":58,"Velocity":87,"Duration":125000,"SoundDuration":125000,"Delta":56355752},{"NoteNumber":74,"Velocity":53,"Duration":204545,"SoundDuration":204545,"Delta":56855752},{"NoteNumber":62,"Velocity":46,"Duration":204545,"SoundDuration":204545,"Delta":56855752},{"NoteNumber":70,"Velocity":46,"Duration":204545,"SoundDuration":204545,"Delta":56855752},{"NoteNumber":53,"Velocity":44,"Duration":204545,"SoundDuration":204545,"Delta":56855752},{"NoteNumber":58,"Velocity":44,"Duration":204545,"SoundDuration":204545,"Delta":56855752},{"NoteNumber":46,"Velocity":44,"Duration":204545,"SoundDuration":204545,"Delta":56855752},{"NoteNumber":63,"Velocity":51,"Duration":208333,"SoundDuration":208333,"Delta":57401206},{"NoteNumber":75,"Velocity":57,"Duration":208333,"SoundDuration":208333,"Delta":57401206},{"NoteNumber":70,"Velocity":51,"Duration":208333,"SoundDuration":208333,"Delta":57401206},{"NoteNumber":60,"Velocity":48,"Duration":208333,"SoundDuration":208333,"Delta":57401206},{"NoteNumber":54,"Velocity":48,"Duration":208333,"SoundDuration":208333,"Delta":57401206},{"NoteNumber":46,"Velocity":48,"Duration":208333,"SoundDuration":208333,"Delta":57401206},{"NoteNumber":76,"Velocity":54,"Duration":225000,"SoundDuration":225000,"Delta":57956762},{"NoteNumber":70,"Velocity":48,"Duration":225000,"SoundDuration":225000,"Delta":57956762},{"NoteNumber":64,"Velocity":48,"Duration":225000,"SoundDuration":225000,"Delta":57956762},{"NoteNumber":55,"Velocity":45,"Duration":225000,"SoundDuration":225000,"Delta":57956762},{"NoteNumber":46,"Velocity":45,"Duration":225000,"SoundDuration":225000,"Delta":57956762},{"NoteNumber":61,"Velocity":48,"Duration":225000,"SoundDuration":225000,"Delta":57956762},{"NoteNumber":70,"Velocity":45,"Duration":1306935,"SoundDuration":1306935,"Delta":58556762},{"NoteNumber":65,"Velocity":45,"Duration":1306935,"SoundDuration":1306935,"Delta":58556762},{"NoteNumber":77,"Velocity":55,"Duration":652174,"SoundDuration":652174,"Delta":58556762},{"NoteNumber":53,"Velocity":46,"Duration":1366459,"SoundDuration":1366459,"Delta":58556762},{"NoteNumber":46,"Velocity":46,"Duration":1366459,"SoundDuration":1366459,"Delta":58556762},{"NoteNumber":62,"Velocity":53,"Duration":652174,"SoundDuration":652174,"Delta":58556762},{"NoteNumber":74,"Velocity":52,"Duration":357142,"SoundDuration":357142,"Delta":59208936},{"NoteNumber":58,"Velocity":52,"Duration":357142,"SoundDuration":357142,"Delta":59208936},{"NoteNumber":46,"Velocity":49,"Duration":68181,"SoundDuration":68181,"Delta":59923221},{"NoteNumber":48,"Velocity":50,"Duration":68181,"SoundDuration":68181,"Delta":59993297},{"NoteNumber":50,"Velocity":51,"Duration":68181,"SoundDuration":68181,"Delta":60063373},{"NoteNumber":51,"Velocity":53,"Duration":68181,"SoundDuration":68181,"Delta":60133449},{"NoteNumber":53,"Velocity":54,"Duration":68181,"SoundDuration":68181,"Delta":60203524},{"NoteNumber":55,"Velocity":55,"Duration":68181,"SoundDuration":68181,"Delta":60273600},{"NoteNumber":57,"Velocity":55,"Duration":68181,"SoundDuration":68181,"Delta":60343676},{"NoteNumber":58,"Velocity":56,"Duration":68181,"SoundDuration":68181,"Delta":60413752},{"NoteNumber":60,"Velocity":57,"Duration":68181,"SoundDuration":68181,"Delta":60483827},{"NoteNumber":62,"Velocity":58,"Duration":68181,"SoundDuration":68181,"Delta":60553903},{"NoteNumber":63,"Velocity":60,"Duration":68181,"SoundDuration":68181,"Delta":60623979},{"NoteNumber":64,"Velocity":62,"Duration":68181,"SoundDuration":68181,"Delta":60694055},{"NoteNumber":67,"Velocity":63,"Duration":66287,"SoundDuration":66287,"Delta":60764130},{"NoteNumber":65,"Velocity":55,"Duration":1661332,"SoundDuration":1661332,"Delta":60832312},{"NoteNumber":74,"Velocity":42,"Duration":705882,"SoundDuration":705882,"Delta":61555204},{"NoteNumber":68,"Velocity":36,"Duration":705882,"SoundDuration":705882,"Delta":61555204},{"NoteNumber":53,"Velocity":35,"Duration":705882,"SoundDuration":705882,"Delta":61555204},{"NoteNumber":59,"Velocity":35,"Duration":705882,"SoundDuration":705882,"Delta":61555204},{"NoteNumber":69,"Velocity":41,"Duration":712029,"SoundDuration":712029,"Delta":62261086},{"NoteNumber":75,"Velocity":45,"Duration":712029,"SoundDuration":712029,"Delta":62261086},{"NoteNumber":53,"Velocity":36,"Duration":712029,"SoundDuration":712029,"Delta":62261086},{"NoteNumber":60,"Velocity":36,"Duration":712029,"SoundDuration":712029,"Delta":62261086},{"NoteNumber":65,"Velocity":43,"Duration":232558,"SoundDuration":232558,"Delta":62493644},{"NoteNumber":67,"Velocity":37,"Duration":246913,"SoundDuration":246913,"Delta":62726203},{"NoteNumber":72,"Velocity":36,"Duration":975422,"SoundDuration":975422,"Delta":62973116},{"NoteNumber":63,"Velocity":43,"Duration":266666,"SoundDuration":266666,"Delta":62973116},{"NoteNumber":77,"Velocity":41,"Duration":975422,"SoundDuration":975422,"Delta":62973116},{"NoteNumber":53,"Velocity":32,"Duration":975422,"SoundDuration":975422,"Delta":62973116},{"NoteNumber":65,"Velocity":36,"Duration":649335,"SoundDuration":649335,"Delta":62973116},{"NoteNumber":57,"Velocity":32,"Duration":975422,"SoundDuration":975422,"Delta":62973116},{"NoteNumber":60,"Velocity":39,"Duration":273972,"SoundDuration":273972,"Delta":63239783},{"NoteNumber":62,"Velocity":38,"Duration":108695,"SoundDuration":108695,"Delta":63513755},{"NoteNumber":46,"Velocity":32,"Duration":1880141,"SoundDuration":1880141,"Delta":63622451},{"NoteNumber":53,"Velocity":32,"Duration":1825793,"SoundDuration":1825793,"Delta":63676799},{"NoteNumber":62,"Velocity":36,"Duration":1771445,"SoundDuration":1771445,"Delta":63731147},{"NoteNumber":58,"Velocity":36,"Duration":1717097,"SoundDuration":1717097,"Delta":63785495},{"NoteNumber":65,"Velocity":36,"Duration":1662750,"SoundDuration":1662750,"Delta":63839842},{"NoteNumber":70,"Velocity":36,"Duration":1608402,"SoundDuration":1608402,"Delta":63894190},{"NoteNumber":74,"Velocity":38,"Duration":1554054,"SoundDuration":1554054,"Delta":63948538},{"NoteNumber":82,"Velocity":46,"Duration":199115,"SoundDuration":199115,"Delta":65549321},{"NoteNumber":73,"Velocity":46,"Duration":199115,"SoundDuration":199115,"Delta":65549321},{"NoteNumber":77,"Velocity":46,"Duration":199115,"SoundDuration":199115,"Delta":65549321},{"NoteNumber":81,"Velocity":38,"Duration":66371,"SoundDuration":66371,"Delta":65748437},{"NoteNumber":80,"Velocity":38,"Duration":89285,"SoundDuration":89285,"Delta":65814808},{"NoteNumber":72,"Velocity":38,"Duration":89285,"SoundDuration":89285,"Delta":65814808},{"NoteNumber":79,"Velocity":39,"Duration":88817,"SoundDuration":88817,"Delta":65904094},{"NoteNumber":74,"Velocity":39,"Duration":88817,"SoundDuration":88817,"Delta":65904094},{"NoteNumber":71,"Velocity":39,"Duration":88817,"SoundDuration":88817,"Delta":65904094},{"NoteNumber":70,"Velocity":41,"Duration":88044,"SoundDuration":88044,"Delta":65992911},{"NoteNumber":78,"Velocity":41,"Duration":88044,"SoundDuration":88044,"Delta":65992911},{"NoteNumber":77,"Velocity":42,"Duration":87285,"SoundDuration":87285,"Delta":66080955},{"NoteNumber":72,"Velocity":42,"Duration":87285,"SoundDuration":87285,"Delta":66080955},{"NoteNumber":69,"Velocity":42,"Duration":87285,"SoundDuration":87285,"Delta":66080955},{"NoteNumber":76,"Velocity":43,"Duration":86465,"SoundDuration":86465,"Delta":66168240},{"NoteNumber":68,"Velocity":43,"Duration":86465,"SoundDuration":86465,"Delta":66168240},{"NoteNumber":75,"Velocity":44,"Duration":85733,"SoundDuration":85733,"Delta":66254706},{"NoteNumber":70,"Velocity":44,"Duration":85733,"SoundDuration":85733,"Delta":66254706},{"NoteNumber":67,"Velocity":44,"Duration":85733,"SoundDuration":85733,"Delta":66254706},{"NoteNumber":74,"Velocity":45,"Duration":85013,"SoundDuration":85013,"Delta":66340439},{"NoteNumber":66,"Velocity":45,"Duration":85013,"SoundDuration":85013,"Delta":66340439},{"NoteNumber":65,"Velocity":46,"Duration":84305,"SoundDuration":84305,"Delta":66425453},{"NoteNumber":68,"Velocity":46,"Duration":84305,"SoundDuration":84305,"Delta":66425453},{"NoteNumber":73,"Velocity":46,"Duration":84305,"SoundDuration":84305,"Delta":66425453},{"NoteNumber":64,"Velocity":48,"Duration":122950,"SoundDuration":122950,"Delta":66509758},{"NoteNumber":72,"Velocity":48,"Duration":122950,"SoundDuration":122950,"Delta":66509758},{"NoteNumber":67,"Velocity":48,"Duration":122950,"SoundDuration":122950,"Delta":66509758},{"NoteNumber":58,"Velocity":37,"Duration":173971,"SoundDuration":173971,"Delta":67001562},{"NoteNumber":64,"Velocity":43,"Duration":173971,"SoundDuration":173971,"Delta":67001562},{"NoteNumber":55,"Velocity":37,"Duration":173971,"SoundDuration":173971,"Delta":67001562},{"NoteNumber":48,"Velocity":51,"Duration":77519,"SoundDuration":77519,"Delta":67001562},{"NoteNumber":49,"Velocity":53,"Duration":77221,"SoundDuration":77221,"Delta":67079081},{"NoteNumber":48,"Velocity":54,"Duration":76923,"SoundDuration":76923,"Delta":67156303},{"NoteNumber":47,"Velocity":56,"Duration":76335,"SoundDuration":76335,"Delta":67233226},{"NoteNumber":46,"Velocity":57,"Duration":76046,"SoundDuration":76046,"Delta":67309562},{"NoteNumber":45,"Velocity":58,"Duration":75472,"SoundDuration":75472,"Delta":67385608},{"NoteNumber":56,"Velocity":41,"Duration":195652,"SoundDuration":195652,"Delta":67461081},{"NoteNumber":65,"Velocity":45,"Duration":195652,"SoundDuration":195652,"Delta":67461081},{"NoteNumber":61,"Velocity":41,"Duration":195652,"SoundDuration":195652,"Delta":67461081},{"NoteNumber":44,"Velocity":60,"Duration":195652,"SoundDuration":195652,"Delta":67461081},{"NoteNumber":59,"Velocity":37,"Duration":185809,"SoundDuration":185809,"Delta":67982820},{"NoteNumber":62,"Velocity":37,"Duration":185809,"SoundDuration":185809,"Delta":67982820},{"NoteNumber":68,"Velocity":43,"Duration":185809,"SoundDuration":185809,"Delta":67982820},{"NoteNumber":41,"Velocity":52,"Duration":69338,"SoundDuration":69338,"Delta":67982820},{"NoteNumber":42,"Velocity":51,"Duration":70284,"SoundDuration":70284,"Delta":68052159},{"NoteNumber":41,"Velocity":50,"Duration":71646,"SoundDuration":71646,"Delta":68122443},{"NoteNumber":40,"Velocity":50,"Duration":72944,"SoundDuration":72944,"Delta":68194090},{"NoteNumber":39,"Velocity":49,"Duration":74222,"SoundDuration":74222,"Delta":68267034},{"NoteNumber":38,"Velocity":48,"Duration":79812,"SoundDuration":79812,"Delta":68341257},{"NoteNumber":37,"Velocity":46,"Duration":94086,"SoundDuration":94086,"Delta":68421069},{"NoteNumber":67,"Velocity":43,"Duration":582524,"SoundDuration":582524,"Delta":68515155},{"NoteNumber":64,"Velocity":37,"Duration":582524,"SoundDuration":582524,"Delta":68515155},{"NoteNumber":36,"Velocity":41,"Duration":582524,"SoundDuration":582524,"Delta":68515155},{"NoteNumber":55,"Velocity":32,"Duration":231958,"SoundDuration":231958,"Delta":69097680},{"NoteNumber":60,"Velocity":36,"Duration":231958,"SoundDuration":231958,"Delta":69097680},{"NoteNumber":52,"Velocity":36,"Duration":231958,"SoundDuration":231958,"Delta":69097680},{"NoteNumber":77,"Velocity":50,"Duration":199115,"SoundDuration":199115,"Delta":69716236},{"NoteNumber":73,"Velocity":50,"Duration":199115,"SoundDuration":199115,"Delta":69716236},{"NoteNumber":82,"Velocity":50,"Duration":199115,"SoundDuration":199115,"Delta":69716236},{"NoteNumber":81,"Velocity":41,"Duration":66371,"SoundDuration":66371,"Delta":69915351},{"NoteNumber":72,"Velocity":42,"Duration":85877,"SoundDuration":85877,"Delta":69981723},{"NoteNumber":80,"Velocity":42,"Duration":85877,"SoundDuration":85877,"Delta":69981723},{"NoteNumber":79,"Velocity":43,"Duration":85733,"SoundDuration":85733,"Delta":70067601},{"NoteNumber":74,"Velocity":43,"Duration":85733,"SoundDuration":85733,"Delta":70067601},{"NoteNumber":71,"Velocity":43,"Duration":85733,"SoundDuration":85733,"Delta":70067601},{"NoteNumber":78,"Velocity":44,"Duration":85227,"SoundDuration":85227,"Delta":70153334},{"NoteNumber":70,"Velocity":44,"Duration":85227,"SoundDuration":85227,"Delta":70153334},{"NoteNumber":77,"Velocity":45,"Duration":84657,"SoundDuration":84657,"Delta":70238562},{"NoteNumber":72,"Velocity":45,"Duration":84657,"SoundDuration":84657,"Delta":70238562},{"NoteNumber":69,"Velocity":45,"Duration":84657,"SoundDuration":84657,"Delta":70238562},{"NoteNumber":76,"Velocity":45,"Duration":84516,"SoundDuration":84516,"Delta":70323219},{"NoteNumber":68,"Velocity":45,"Duration":84516,"SoundDuration":84516,"Delta":70323219},{"NoteNumber":67,"Velocity":46,"Duration":83955,"SoundDuration":83955,"Delta":70407736},{"NoteNumber":70,"Velocity":46,"Duration":83955,"SoundDuration":83955,"Delta":70407736},{"NoteNumber":75,"Velocity":46,"Duration":83955,"SoundDuration":83955,"Delta":70407736},{"NoteNumber":74,"Velocity":49,"Duration":83471,"SoundDuration":83471,"Delta":70491691},{"NoteNumber":66,"Velocity":49,"Duration":83471,"SoundDuration":83471,"Delta":70491691},{"NoteNumber":68,"Velocity":50,"Duration":83061,"SoundDuration":83061,"Delta":70575162},{"NoteNumber":73,"Velocity":50,"Duration":83061,"SoundDuration":83061,"Delta":70575162},{"NoteNumber":65,"Velocity":50,"Duration":83061,"SoundDuration":83061,"Delta":70575162},{"NoteNumber":64,"Velocity":51,"Duration":122950,"SoundDuration":122950,"Delta":70658223},{"NoteNumber":67,"Velocity":51,"Duration":122950,"SoundDuration":122950,"Delta":70658223},{"NoteNumber":72,"Velocity":51,"Duration":122950,"SoundDuration":122950,"Delta":70658223},{"NoteNumber":64,"Velocity":37,"Duration":173971,"SoundDuration":173971,"Delta":71150027},{"NoteNumber":67,"Velocity":37,"Duration":173971,"SoundDuration":173971,"Delta":71150027},{"NoteNumber":76,"Velocity":43,"Duration":173971,"SoundDuration":173971,"Delta":71150027},{"NoteNumber":70,"Velocity":37,"Duration":173971,"SoundDuration":173971,"Delta":71150027},{"NoteNumber":48,"Velocity":51,"Duration":459519,"SoundDuration":459519,"Delta":71150027},{"NoteNumber":60,"Velocity":51,"Duration":77519,"SoundDuration":77519,"Delta":71150027},{"NoteNumber":61,"Velocity":53,"Duration":77221,"SoundDuration":77221,"Delta":71227546},{"NoteNumber":60,"Velocity":54,"Duration":76923,"SoundDuration":76923,"Delta":71304768},{"NoteNumber":59,"Velocity":56,"Duration":76335,"SoundDuration":76335,"Delta":71381691},{"NoteNumber":58,"Velocity":57,"Duration":76046,"SoundDuration":76046,"Delta":71458027},{"NoteNumber":57,"Velocity":58,"Duration":75472,"SoundDuration":75472,"Delta":71534073},{"NoteNumber":65,"Velocity":42,"Duration":189075,"SoundDuration":189075,"Delta":71609546},{"NoteNumber":73,"Velocity":42,"Duration":189075,"SoundDuration":189075,"Delta":71609546},{"NoteNumber":77,"Velocity":46,"Duration":189075,"SoundDuration":189075,"Delta":71609546},{"NoteNumber":68,"Velocity":42,"Duration":189075,"SoundDuration":189075,"Delta":71609546},{"NoteNumber":44,"Velocity":60,"Duration":189075,"SoundDuration":189075,"Delta":71609546},{"NoteNumber":56,"Velocity":60,"Duration":189075,"SoundDuration":189075,"Delta":71609546},{"NoteNumber":68,"Velocity":37,"Duration":197187,"SoundDuration":197187,"Delta":72113748},{"NoteNumber":71,"Velocity":37,"Duration":197187,"SoundDuration":197187,"Delta":72113748},{"NoteNumber":80,"Velocity":43,"Duration":197187,"SoundDuration":197187,"Delta":72113748},{"NoteNumber":74,"Velocity":37,"Duration":197187,"SoundDuration":197187,"Delta":72113748},{"NoteNumber":41,"Velocity":52,"Duration":548463,"SoundDuration":548463,"Delta":72113748},{"NoteNumber":53,"Velocity":52,"Duration":73913,"SoundDuration":73913,"Delta":72113748},{"NoteNumber":55,"Velocity":51,"Duration":74602,"SoundDuration":74602,"Delta":72187661},{"NoteNumber":53,"Velocity":50,"Duration":75260,"SoundDuration":75260,"Delta":72262263},{"NoteNumber":52,"Velocity":50,"Duration":76214,"SoundDuration":76214,"Delta":72337524},{"NoteNumber":51,"Velocity":49,"Duration":76781,"SoundDuration":76781,"Delta":72413738},{"NoteNumber":50,"Velocity":48,"Duration":81485,"SoundDuration":81485,"Delta":72490520},{"NoteNumber":49,"Velocity":46,"Duration":90206,"SoundDuration":90206,"Delta":72572005},{"NoteNumber":76,"Velocity":37,"Duration":582524,"SoundDuration":582524,"Delta":72662211},{"NoteNumber":79,"Velocity":43,"Duration":582524,"SoundDuration":582524,"Delta":72662211},{"NoteNumber":67,"Velocity":37,"Duration":582524,"SoundDuration":582524,"Delta":72662211},{"NoteNumber":48,"Velocity":41,"Duration":582524,"SoundDuration":582524,"Delta":72662211},{"NoteNumber":36,"Velocity":41,"Duration":582524,"SoundDuration":582524,"Delta":72662211},{"NoteNumber":72,"Velocity":36,"Duration":239361,"SoundDuration":239361,"Delta":73244736},{"NoteNumber":64,"Velocity":36,"Duration":239361,"SoundDuration":239361,"Delta":73244736},{"NoteNumber":55,"Velocity":36,"Duration":239361,"SoundDuration":239361,"Delta":73244736},{"NoteNumber":68,"Velocity":50,"Duration":911114,"SoundDuration":911114,"Delta":73883034},{"NoteNumber":65,"Velocity":50,"Duration":97560,"SoundDuration":97560,"Delta":73883034},{"NoteNumber":72,"Velocity":50,"Duration":824418,"SoundDuration":824418,"Delta":73883034},{"NoteNumber":80,"Velocity":50,"Duration":97560,"SoundDuration":97560,"Delta":73883034},{"NoteNumber":64,"Velocity":45,"Duration":97560,"SoundDuration":97560,"Delta":73980595},{"NoteNumber":79,"Velocity":48,"Duration":97560,"SoundDuration":97560,"Delta":73980595},{"NoteNumber":63,"Velocity":45,"Duration":92686,"SoundDuration":92686,"Delta":74078156},{"NoteNumber":78,"Velocity":49,"Duration":92686,"SoundDuration":92686,"Delta":74078156},{"NoteNumber":62,"Velocity":46,"Duration":91429,"SoundDuration":91429,"Delta":74170842},{"NoteNumber":77,"Velocity":50,"Duration":91429,"SoundDuration":91429,"Delta":74170842},{"NoteNumber":61,"Velocity":49,"Duration":90624,"SoundDuration":90624,"Delta":74262272},{"NoteNumber":76,"Velocity":52,"Duration":90624,"SoundDuration":90624,"Delta":74262272},{"NoteNumber":60,"Velocity":50,"Duration":89832,"SoundDuration":89832,"Delta":74352896},{"NoteNumber":75,"Velocity":54,"Duration":89832,"SoundDuration":89832,"Delta":74352896},{"NoteNumber":59,"Velocity":51,"Duration":89054,"SoundDuration":89054,"Delta":74442729},{"NoteNumber":74,"Velocity":55,"Duration":89054,"SoundDuration":89054,"Delta":74442729},{"NoteNumber":58,"Velocity":53,"Duration":88236,"SoundDuration":88236,"Delta":74531784},{"NoteNumber":73,"Velocity":56,"Duration":88236,"SoundDuration":88236,"Delta":74531784},{"NoteNumber":57,"Velocity":54,"Duration":87432,"SoundDuration":87432,"Delta":74620020},{"NoteNumber":72,"Velocity":58,"Duration":174128,"SoundDuration":174128,"Delta":74620020},{"NoteNumber":56,"Velocity":55,"Duration":86695,"SoundDuration":86695,"Delta":74707452},{"NoteNumber":71,"Velocity":59,"Duration":86695,"SoundDuration":86695,"Delta":74707452},{"NoteNumber":65,"Velocity":57,"Duration":122950,"SoundDuration":122950,"Delta":74794148},{"NoteNumber":62,"Velocity":57,"Duration":122950,"SoundDuration":122950,"Delta":74794148},{"NoteNumber":68,"Velocity":62,"Duration":122950,"SoundDuration":122950,"Delta":74794148},{"NoteNumber":70,"Velocity":62,"Duration":122950,"SoundDuration":122950,"Delta":74794148},{"NoteNumber":56,"Velocity":41,"Duration":173971,"SoundDuration":173971,"Delta":75285952},{"NoteNumber":62,"Velocity":45,"Duration":173971,"SoundDuration":173971,"Delta":75285952},{"NoteNumber":53,"Velocity":41,"Duration":173971,"SoundDuration":173971,"Delta":75285952},{"NoteNumber":46,"Velocity":51,"Duration":77519,"SoundDuration":77519,"Delta":75285952},{"NoteNumber":47,"Velocity":53,"Duration":77221,"SoundDuration":77221,"Delta":75363471},{"NoteNumber":46,"Velocity":54,"Duration":76923,"SoundDuration":76923,"Delta":75440692},{"NoteNumber":45,"Velocity":56,"Duration":76335,"SoundDuration":76335,"Delta":75517615},{"NoteNumber":44,"Velocity":57,"Duration":76046,"SoundDuration":76046,"Delta":75593951},{"NoteNumber":43,"Velocity":58,"Duration":75472,"SoundDuration":75472,"Delta":75669998},{"NoteNumber":54,"Velocity":45,"Duration":178571,"SoundDuration":178571,"Delta":75745471},{"NoteNumber":63,"Velocity":45,"Duration":178571,"SoundDuration":178571,"Delta":75745471},{"NoteNumber":59,"Velocity":45,"Duration":178571,"SoundDuration":178571,"Delta":75745471},{"NoteNumber":42,"Velocity":60,"Duration":178571,"SoundDuration":178571,"Delta":75745471},{"NoteNumber":57,"Velocity":42,"Duration":190146,"SoundDuration":190146,"Delta":76221661},{"NoteNumber":60,"Velocity":42,"Duration":190146,"SoundDuration":190146,"Delta":76221661},{"NoteNumber":66,"Velocity":46,"Duration":190146,"SoundDuration":190146,"Delta":76221661},{"NoteNumber":39,"Velocity":57,"Duration":71428,"SoundDuration":71428,"Delta":76221661},{"NoteNumber":41,"Velocity":57,"Duration":71927,"SoundDuration":71927,"Delta":76293090},{"NoteNumber":39,"Velocity":56,"Duration":72469,"SoundDuration":72469,"Delta":76365017},{"NoteNumber":38,"Velocity":55,"Duration":73275,"SoundDuration":73275,"Delta":76437486},{"NoteNumber":37,"Velocity":55,"Duration":73838,"SoundDuration":73838,"Delta":76510762},{"NoteNumber":36,"Velocity":54,"Duration":78896,"SoundDuration":78896,"Delta":76584600},{"NoteNumber":35,"Velocity":54,"Duration":82997,"SoundDuration":82997,"Delta":76663497},{"NoteNumber":65,"Velocity":51,"Duration":588235,"SoundDuration":588235,"Delta":76746494},{"NoteNumber":62,"Velocity":45,"Duration":588235,"SoundDuration":588235,"Delta":76746494},{"NoteNumber":34,"Velocity":53,"Duration":588235,"SoundDuration":588235,"Delta":76746494},{"NoteNumber":53,"Velocity":38,"Duration":249999,"SoundDuration":249999,"Delta":77334729},{"NoteNumber":58,"Velocity":44,"Duration":249999,"SoundDuration":249999,"Delta":77334729},{"NoteNumber":50,"Velocity":49,"Duration":249999,"SoundDuration":249999,"Delta":77334729},{"NoteNumber":68,"Velocity":50,"Duration":895357,"SoundDuration":895357,"Delta":78001396},{"NoteNumber":64,"Velocity":50,"Duration":90909,"SoundDuration":90909,"Delta":78001396},{"NoteNumber":80,"Velocity":50,"Duration":90909,"SoundDuration":90909,"Delta":78001396},{"NoteNumber":71,"Velocity":50,"Duration":895357,"SoundDuration":895357,"Delta":78001396},{"NoteNumber":63,"Velocity":45,"Duration":90909,"SoundDuration":90909,"Delta":78092305},{"NoteNumber":79,"Velocity":48,"Duration":90909,"SoundDuration":90909,"Delta":78092305},{"NoteNumber":62,"Velocity":45,"Duration":90282,"SoundDuration":90282,"Delta":78183214},{"NoteNumber":78,"Velocity":49,"Duration":90282,"SoundDuration":90282,"Delta":78183214},{"NoteNumber":61,"Velocity":46,"Duration":90225,"SoundDuration":90225,"Delta":78273497},{"NoteNumber":77,"Velocity":50,"Duration":90225,"SoundDuration":90225,"Delta":78273497},{"NoteNumber":60,"Velocity":49,"Duration":89664,"SoundDuration":89664,"Delta":78363722},{"NoteNumber":76,"Velocity":52,"Duration":89664,"SoundDuration":89664,"Delta":78363722},{"NoteNumber":59,"Velocity":50,"Duration":89441,"SoundDuration":89441,"Delta":78453387},{"NoteNumber":75,"Velocity":54,"Duration":89441,"SoundDuration":89441,"Delta":78453387},{"NoteNumber":58,"Velocity":51,"Duration":88888,"SoundDuration":88888,"Delta":78542828},{"NoteNumber":74,"Velocity":55,"Duration":88888,"SoundDuration":88888,"Delta":78542828},{"NoteNumber":57,"Velocity":53,"Duration":88834,"SoundDuration":88834,"Delta":78631717},{"NoteNumber":73,"Velocity":56,"Duration":88834,"SoundDuration":88834,"Delta":78631717},{"NoteNumber":56,"Velocity":54,"Duration":88235,"SoundDuration":88235,"Delta":78720552},{"NoteNumber":72,"Velocity":58,"Duration":88235,"SoundDuration":88235,"Delta":78720552},{"NoteNumber":59,"Velocity":55,"Duration":87966,"SoundDuration":87966,"Delta":78808787},{"NoteNumber":71,"Velocity":59,"Duration":87966,"SoundDuration":87966,"Delta":78808787},{"NoteNumber":62,"Velocity":57,"Duration":122950,"SoundDuration":122950,"Delta":78896754},{"NoteNumber":65,"Velocity":57,"Duration":122950,"SoundDuration":122950,"Delta":78896754},{"NoteNumber":68,"Velocity":62,"Duration":122950,"SoundDuration":122950,"Delta":78896754},{"NoteNumber":70,"Velocity":62,"Duration":122950,"SoundDuration":122950,"Delta":78896754},{"NoteNumber":46,"Velocity":59,"Duration":574295,"SoundDuration":574295,"Delta":79327082},{"NoteNumber":74,"Velocity":52,"Duration":192307,"SoundDuration":192307,"Delta":79388557},{"NoteNumber":68,"Velocity":45,"Duration":192307,"SoundDuration":192307,"Delta":79388557},{"NoteNumber":62,"Velocity":45,"Duration":192307,"SoundDuration":192307,"Delta":79388557},{"NoteNumber":65,"Velocity":45,"Duration":192307,"SoundDuration":192307,"Delta":79388557},{"NoteNumber":58,"Velocity":59,"Duration":85470,"SoundDuration":85470,"Delta":79388557},{"NoteNumber":59,"Velocity":60,"Duration":85470,"SoundDuration":85470,"Delta":79474027},{"NoteNumber":58,"Velocity":62,"Duration":85470,"SoundDuration":85470,"Delta":79559498},{"NoteNumber":57,"Velocity":62,"Duration":85470,"SoundDuration":85470,"Delta":79644968},{"NoteNumber":56,"Velocity":63,"Duration":85470,"SoundDuration":85470,"Delta":79730438},{"NoteNumber":55,"Velocity":63,"Duration":85470,"SoundDuration":85470,"Delta":79815908},{"NoteNumber":75,"Velocity":67,"Duration":185950,"SoundDuration":185950,"Delta":79901378},{"NoteNumber":66,"Velocity":60,"Duration":185950,"SoundDuration":185950,"Delta":79901378},{"NoteNumber":63,"Velocity":60,"Duration":185950,"SoundDuration":185950,"Delta":79901378},{"NoteNumber":71,"Velocity":60,"Duration":185950,"SoundDuration":185950,"Delta":79901378},{"NoteNumber":42,"Velocity":63,"Duration":185950,"SoundDuration":185950,"Delta":79901378},{"NoteNumber":54,"Velocity":63,"Duration":185950,"SoundDuration":185950,"Delta":79901378},{"NoteNumber":39,"Velocity":64,"Duration":619848,"SoundDuration":619848,"Delta":80335262},{"NoteNumber":72,"Velocity":60,"Duration":197010,"SoundDuration":197010,"Delta":80397246},{"NoteNumber":78,"Velocity":67,"Duration":197010,"SoundDuration":197010,"Delta":80397246},{"NoteNumber":69,"Velocity":60,"Duration":197010,"SoundDuration":197010,"Delta":80397246},{"NoteNumber":66,"Velocity":60,"Duration":197010,"SoundDuration":197010,"Delta":80397246},{"NoteNumber":51,"Velocity":64,"Duration":73538,"SoundDuration":73538,"Delta":80397246},{"NoteNumber":53,"Velocity":64,"Duration":74602,"SoundDuration":74602,"Delta":80470784},{"NoteNumber":51,"Velocity":64,"Duration":75696,"SoundDuration":75696,"Delta":80545386},{"NoteNumber":50,"Velocity":64,"Duration":76904,"SoundDuration":76904,"Delta":80621082},{"NoteNumber":49,"Velocity":64,"Duration":78110,"SoundDuration":78110,"Delta":80697987},{"NoteNumber":48,"Velocity":64,"Duration":83904,"SoundDuration":83904,"Delta":80776097},{"NoteNumber":47,"Velocity":64,"Duration":95108,"SoundDuration":95108,"Delta":80860002},{"NoteNumber":34,"Velocity":62,"Duration":734601,"SoundDuration":734601,"Delta":80887176},{"NoteNumber":46,"Velocity":77,"Duration":1332125,"SoundDuration":1332125,"Delta":80900763},{"NoteNumber":65,"Velocity":63,"Duration":707427,"SoundDuration":707427,"Delta":80914350},{"NoteNumber":70,"Velocity":63,"Duration":693840,"SoundDuration":693840,"Delta":80927937},{"NoteNumber":74,"Velocity":63,"Duration":680253,"SoundDuration":680253,"Delta":80941524},{"NoteNumber":82,"Velocity":79,"Duration":666666,"SoundDuration":666666,"Delta":80955111},{"NoteNumber":58,"Velocity":65,"Duration":249999,"SoundDuration":249999,"Delta":81621777},{"NoteNumber":50,"Velocity":52,"Duration":249999,"SoundDuration":249999,"Delta":81621777},{"NoteNumber":53,"Velocity":52,"Duration":249999,"SoundDuration":249999,"Delta":81621777},{"NoteNumber":70,"Velocity":72,"Duration":116279,"SoundDuration":116279,"Delta":82288444},{"NoteNumber":82,"Velocity":80,"Duration":174418,"SoundDuration":174418,"Delta":82288444},{"NoteNumber":81,"Velocity":63,"Duration":58139,"SoundDuration":58139,"Delta":82462862},{"NoteNumber":93,"Velocity":70,"Duration":58139,"SoundDuration":58139,"Delta":82462862},{"NoteNumber":80,"Velocity":69,"Duration":98673,"SoundDuration":98673,"Delta":82521002},{"NoteNumber":68,"Velocity":62,"Duration":98673,"SoundDuration":98673,"Delta":82521002},{"NoteNumber":91,"Velocity":71,"Duration":99823,"SoundDuration":99823,"Delta":82598521},{"NoteNumber":79,"Velocity":63,"Duration":99823,"SoundDuration":99823,"Delta":82598521},{"NoteNumber":78,"Velocity":71,"Duration":100957,"SoundDuration":100957,"Delta":82675444},{"NoteNumber":66,"Velocity":63,"Duration":100957,"SoundDuration":100957,"Delta":82675444},{"NoteNumber":89,"Velocity":73,"Duration":102073,"SoundDuration":102073,"Delta":82751780},{"NoteNumber":77,"Velocity":65,"Duration":102073,"SoundDuration":102073,"Delta":82751780},{"NoteNumber":64,"Velocity":65,"Duration":103173,"SoundDuration":103173,"Delta":82827538},{"NoteNumber":76,"Velocity":73,"Duration":103173,"SoundDuration":103173,"Delta":82827538},{"NoteNumber":87,"Velocity":76,"Duration":104256,"SoundDuration":104256,"Delta":82902726},{"NoteNumber":75,"Velocity":67,"Duration":104256,"SoundDuration":104256,"Delta":82902726},{"NoteNumber":62,"Velocity":67,"Duration":105324,"SoundDuration":105324,"Delta":82977353},{"NoteNumber":74,"Velocity":76,"Duration":105324,"SoundDuration":105324,"Delta":82977353},{"NoteNumber":73,"Velocity":70,"Duration":106376,"SoundDuration":106376,"Delta":83051427},{"NoteNumber":85,"Velocity":78,"Duration":106376,"SoundDuration":106376,"Delta":83051427},{"NoteNumber":60,"Velocity":70,"Duration":107412,"SoundDuration":107412,"Delta":83124956},{"NoteNumber":72,"Velocity":78,"Duration":107412,"SoundDuration":107412,"Delta":83124956},{"NoteNumber":83,"Velocity":81,"Duration":117508,"SoundDuration":117508,"Delta":83197949},{"NoteNumber":71,"Velocity":72,"Duration":117508,"SoundDuration":117508,"Delta":83197949},{"NoteNumber":70,"Velocity":84,"Duration":270270,"SoundDuration":270270,"Delta":83270413},{"NoteNumber":58,"Velocity":76,"Duration":270270,"SoundDuration":270270,"Delta":83270413},{"NoteNumber":50,"Velocity":63,"Duration":606060,"SoundDuration":606060,"Delta":83810953},{"NoteNumber":62,"Velocity":70,"Duration":606060,"SoundDuration":606060,"Delta":83810953},{"NoteNumber":58,"Velocity":63,"Duration":606060,"SoundDuration":606060,"Delta":83810953},{"NoteNumber":53,"Velocity":63,"Duration":606060,"SoundDuration":606060,"Delta":83810953},{"NoteNumber":34,"Velocity":63,"Duration":606060,"SoundDuration":606060,"Delta":83810953},{"NoteNumber":46,"Velocity":63,"Duration":606060,"SoundDuration":606060,"Delta":83810953},{"NoteNumber":41,"Velocity":63,"Duration":606060,"SoundDuration":606060,"Delta":83810953},{"NoteNumber":86,"Velocity":80,"Duration":174418,"SoundDuration":174418,"Delta":84417014},{"NoteNumber":74,"Velocity":72,"Duration":116279,"SoundDuration":116279,"Delta":84417014},{"NoteNumber":85,"Velocity":63,"Duration":58139,"SoundDuration":58139,"Delta":84591432},{"NoteNumber":97,"Velocity":70,"Duration":58139,"SoundDuration":58139,"Delta":84591432},{"NoteNumber":84,"Velocity":69,"Duration":98673,"SoundDuration":98673,"Delta":84649572},{"NoteNumber":72,"Velocity":62,"Duration":98673,"SoundDuration":98673,"Delta":84649572},{"NoteNumber":95,"Velocity":71,"Duration":99823,"SoundDuration":99823,"Delta":84727091},{"NoteNumber":83,"Velocity":63,"Duration":99823,"SoundDuration":99823,"Delta":84727091},{"NoteNumber":82,"Velocity":71,"Duration":100957,"SoundDuration":100957,"Delta":84804014},{"NoteNumber":70,"Velocity":63,"Duration":100957,"SoundDuration":100957,"Delta":84804014},{"NoteNumber":93,"Velocity":73,"Duration":102073,"SoundDuration":102073,"Delta":84880350},{"NoteNumber":81,"Velocity":65,"Duration":102073,"SoundDuration":102073,"Delta":84880350},{"NoteNumber":80,"Velocity":73,"Duration":103173,"SoundDuration":103173,"Delta":84956108},{"NoteNumber":68,"Velocity":65,"Duration":103173,"SoundDuration":103173,"Delta":84956108},{"NoteNumber":91,"Velocity":76,"Duration":104256,"SoundDuration":104256,"Delta":85031296},{"NoteNumber":79,"Velocity":67,"Duration":104256,"SoundDuration":104256,"Delta":85031296},{"NoteNumber":78,"Velocity":76,"Duration":105324,"SoundDuration":105324,"Delta":85105923},{"NoteNumber":66,"Velocity":67,"Duration":105324,"SoundDuration":105324,"Delta":85105923},{"NoteNumber":89,"Velocity":78,"Duration":106376,"SoundDuration":106376,"Delta":85179997},{"NoteNumber":77,"Velocity":70,"Duration":106376,"SoundDuration":106376,"Delta":85179997},{"NoteNumber":64,"Velocity":70,"Duration":107412,"SoundDuration":107412,"Delta":85253526},{"NoteNumber":76,"Velocity":78,"Duration":107412,"SoundDuration":107412,"Delta":85253526},{"NoteNumber":75,"Velocity":72,"Duration":117508,"SoundDuration":117508,"Delta":85326519},{"NoteNumber":87,"Velocity":81,"Duration":117508,"SoundDuration":117508,"Delta":85326519},{"NoteNumber":74,"Velocity":84,"Duration":270270,"SoundDuration":270270,"Delta":85398983},{"NoteNumber":62,"Velocity":76,"Duration":270270,"SoundDuration":270270,"Delta":85398983},{"NoteNumber":65,"Velocity":70,"Duration":540540,"SoundDuration":540540,"Delta":85939523},{"NoteNumber":53,"Velocity":63,"Duration":540540,"SoundDuration":540540,"Delta":85939523},{"NoteNumber":58,"Velocity":63,"Duration":540540,"SoundDuration":540540,"Delta":85939523},{"NoteNumber":62,"Velocity":63,"Duration":540540,"SoundDuration":540540,"Delta":85939523},{"NoteNumber":41,"Velocity":63,"Duration":540540,"SoundDuration":540540,"Delta":85939523},{"NoteNumber":34,"Velocity":63,"Duration":540540,"SoundDuration":540540,"Delta":85939523},{"NoteNumber":50,"Velocity":63,"Duration":540540,"SoundDuration":540540,"Delta":85939523},{"NoteNumber":89,"Velocity":74,"Duration":121951,"SoundDuration":121951,"Delta":86480064},{"NoteNumber":77,"Velocity":66,"Duration":121951,"SoundDuration":121951,"Delta":86480064},{"NoteNumber":88,"Velocity":59,"Duration":121951,"SoundDuration":121951,"Delta":86602015},{"NoteNumber":100,"Velocity":66,"Duration":121951,"SoundDuration":121951,"Delta":86602015},{"NoteNumber":87,"Velocity":74,"Duration":76335,"SoundDuration":76335,"Delta":86723966},{"NoteNumber":75,"Velocity":66,"Duration":76335,"SoundDuration":76335,"Delta":86723966},{"NoteNumber":98,"Velocity":66,"Duration":75472,"SoundDuration":75472,"Delta":86800302},{"NoteNumber":86,"Velocity":59,"Duration":75472,"SoundDuration":75472,"Delta":86800302},{"NoteNumber":85,"Velocity":76,"Duration":74350,"SoundDuration":74350,"Delta":86875775},{"NoteNumber":73,"Velocity":67,"Duration":74350,"SoundDuration":74350,"Delta":86875775},{"NoteNumber":96,"Velocity":67,"Duration":73529,"SoundDuration":73529,"Delta":86950125},{"NoteNumber":84,"Velocity":60,"Duration":73529,"SoundDuration":73529,"Delta":86950125},{"NoteNumber":83,"Velocity":77,"Duration":72728,"SoundDuration":72728,"Delta":87023655},{"NoteNumber":71,"Velocity":69,"Duration":72728,"SoundDuration":72728,"Delta":87023655},{"NoteNumber":94,"Velocity":67,"Duration":72463,"SoundDuration":72463,"Delta":87096383},{"NoteNumber":82,"Velocity":60,"Duration":72463,"SoundDuration":72463,"Delta":87096383},{"NoteNumber":81,"Velocity":78,"Duration":72463,"SoundDuration":72463,"Delta":87168847},{"NoteNumber":69,"Velocity":70,"Duration":72463,"SoundDuration":72463,"Delta":87168847},{"NoteNumber":92,"Velocity":69,"Duration":72463,"SoundDuration":72463,"Delta":87241310},{"NoteNumber":80,"Velocity":62,"Duration":72463,"SoundDuration":72463,"Delta":87241310},{"NoteNumber":67,"Velocity":71,"Duration":72463,"SoundDuration":72463,"Delta":87313774},{"NoteNumber":79,"Velocity":79,"Duration":72463,"SoundDuration":72463,"Delta":87313774},{"NoteNumber":78,"Velocity":62,"Duration":72463,"SoundDuration":72463,"Delta":87386238},{"NoteNumber":90,"Velocity":69,"Duration":72463,"SoundDuration":72463,"Delta":87386238},{"NoteNumber":65,"Velocity":71,"Duration":72463,"SoundDuration":72463,"Delta":87458702},{"NoteNumber":77,"Velocity":79,"Duration":72463,"SoundDuration":72463,"Delta":87458702},{"NoteNumber":88,"Velocity":70,"Duration":72463,"SoundDuration":72463,"Delta":87531165},{"NoteNumber":76,"Velocity":63,"Duration":72463,"SoundDuration":72463,"Delta":87531165},{"NoteNumber":63,"Velocity":72,"Duration":72463,"SoundDuration":72463,"Delta":87603629},{"NoteNumber":75,"Velocity":80,"Duration":72463,"SoundDuration":72463,"Delta":87603629},{"NoteNumber":86,"Velocity":70,"Duration":72463,"SoundDuration":72463,"Delta":87676093},{"NoteNumber":74,"Velocity":63,"Duration":72463,"SoundDuration":72463,"Delta":87676093},{"NoteNumber":61,"Velocity":72,"Duration":72463,"SoundDuration":72463,"Delta":87748557},{"NoteNumber":73,"Velocity":81,"Duration":81521,"SoundDuration":81521,"Delta":87748557},{"NoteNumber":84,"Velocity":71,"Duration":81521,"SoundDuration":81521,"Delta":87821020},{"NoteNumber":72,"Velocity":63,"Duration":81521,"SoundDuration":81521,"Delta":87821020},{"NoteNumber":71,"Velocity":82,"Duration":90579,"SoundDuration":90579,"Delta":87893484},{"NoteNumber":59,"Velocity":73,"Duration":81521,"SoundDuration":81521,"Delta":87893484},{"NoteNumber":82,"Velocity":71,"Duration":90579,"SoundDuration":90579,"Delta":87965948},{"NoteNumber":70,"Velocity":63,"Duration":90579,"SoundDuration":90579,"Delta":87965948},{"NoteNumber":69,"Velocity":82,"Duration":90579,"SoundDuration":90579,"Delta":88038412},{"NoteNumber":57,"Velocity":73,"Duration":90579,"SoundDuration":90579,"Delta":88038412},{"NoteNumber":80,"Velocity":72,"Duration":90579,"SoundDuration":90579,"Delta":88110875},{"NoteNumber":68,"Velocity":64,"Duration":90579,"SoundDuration":90579,"Delta":88110875},{"NoteNumber":67,"Velocity":83,"Duration":90579,"SoundDuration":90579,"Delta":88183339},{"NoteNumber":55,"Velocity":73,"Duration":90579,"SoundDuration":90579,"Delta":88183339},{"NoteNumber":78,"Velocity":72,"Duration":90579,"SoundDuration":90579,"Delta":88255803},{"NoteNumber":66,"Velocity":64,"Duration":90579,"SoundDuration":90579,"Delta":88255803},{"NoteNumber":65,"Velocity":84,"Duration":90579,"SoundDuration":90579,"Delta":88328267},{"NoteNumber":53,"Velocity":74,"Duration":90579,"SoundDuration":90579,"Delta":88328267},{"NoteNumber":64,"Velocity":64,"Duration":90711,"SoundDuration":90711,"Delta":88400730},{"NoteNumber":76,"Velocity":72,"Duration":90711,"SoundDuration":90711,"Delta":88400730},{"NoteNumber":63,"Velocity":85,"Duration":93065,"SoundDuration":93065,"Delta":88473194},{"NoteNumber":51,"Velocity":76,"Duration":93065,"SoundDuration":93065,"Delta":88473194},{"NoteNumber":74,"Velocity":72,"Duration":95051,"SoundDuration":95051,"Delta":88546187},{"NoteNumber":62,"Velocity":64,"Duration":95051,"SoundDuration":95051,"Delta":88546187},{"NoteNumber":61,"Velocity":86,"Duration":97426,"SoundDuration":97426,"Delta":88619179},{"NoteNumber":49,"Velocity":77,"Duration":97426,"SoundDuration":97426,"Delta":88619179},{"NoteNumber":60,"Velocity":65,"Duration":99455,"SoundDuration":99455,"Delta":88692709},{"NoteNumber":72,"Velocity":73,"Duration":99455,"SoundDuration":99455,"Delta":88692709},{"NoteNumber":47,"Velocity":77,"Duration":101851,"SoundDuration":101851,"Delta":88766238},{"NoteNumber":59,"Velocity":86,"Duration":101851,"SoundDuration":101851,"Delta":88766238},{"NoteNumber":70,"Velocity":73,"Duration":103924,"SoundDuration":103924,"Delta":88840312},{"NoteNumber":58,"Velocity":65,"Duration":103924,"SoundDuration":103924,"Delta":88840312},{"NoteNumber":57,"Velocity":87,"Duration":106343,"SoundDuration":106343,"Delta":88914386},{"NoteNumber":45,"Velocity":78,"Duration":106343,"SoundDuration":106343,"Delta":88914386},{"NoteNumber":68,"Velocity":73,"Duration":108461,"SoundDuration":108461,"Delta":88989013},{"NoteNumber":56,"Velocity":65,"Duration":108461,"SoundDuration":108461,"Delta":88989013},{"NoteNumber":41,"Velocity":79,"Duration":110902,"SoundDuration":110902,"Delta":89063640},{"NoteNumber":53,"Velocity":88,"Duration":110902,"SoundDuration":110902,"Delta":89063640},{"NoteNumber":62,"Velocity":73,"Duration":113066,"SoundDuration":113066,"Delta":89138828},{"NoteNumber":50,"Velocity":65,"Duration":113066,"SoundDuration":113066,"Delta":89138828},{"NoteNumber":46,"Velocity":94,"Duration":454545,"SoundDuration":454545,"Delta":89214016},{"NoteNumber":34,"Velocity":84,"Duration":454545,"SoundDuration":454545,"Delta":89214016},{"NoteNumber":45,"Velocity":74,"Duration":75757,"SoundDuration":75757,"Delta":89668562},{"NoteNumber":33,"Velocity":74,"Duration":75757,"SoundDuration":75757,"Delta":89668562},{"NoteNumber":46,"Velocity":72,"Duration":74907,"SoundDuration":74907,"Delta":89744319},{"NoteNumber":34,"Velocity":72,"Duration":74907,"SoundDuration":74907,"Delta":89744319},{"NoteNumber":50,"Velocity":72,"Duration":83541,"SoundDuration":83541,"Delta":89819227},{"NoteNumber":38,"Velocity":72,"Duration":83541,"SoundDuration":83541,"Delta":89819227},{"NoteNumber":53,"Velocity":73,"Duration":84209,"SoundDuration":84209,"Delta":89893577},{"NoteNumber":41,"Velocity":73,"Duration":84209,"SoundDuration":84209,"Delta":89893577},{"NoteNumber":56,"Velocity":73,"Duration":85318,"SoundDuration":85318,"Delta":89966838},{"NoteNumber":44,"Velocity":73,"Duration":85318,"SoundDuration":85318,"Delta":89966838},{"NoteNumber":58,"Velocity":74,"Duration":85971,"SoundDuration":85971,"Delta":90039566},{"NoteNumber":46,"Velocity":74,"Duration":85971,"SoundDuration":85971,"Delta":90039566},{"NoteNumber":62,"Velocity":74,"Duration":87500,"SoundDuration":87500,"Delta":90111252},{"NoteNumber":50,"Velocity":74,"Duration":87500,"SoundDuration":87500,"Delta":90111252},{"NoteNumber":65,"Velocity":76,"Duration":89285,"SoundDuration":89285,"Delta":90182680},{"NoteNumber":53,"Velocity":76,"Duration":89285,"SoundDuration":89285,"Delta":90182680},{"NoteNumber":68,"Velocity":76,"Duration":71428,"SoundDuration":71428,"Delta":90254109},{"NoteNumber":56,"Velocity":76,"Duration":71428,"SoundDuration":71428,"Delta":90254109},{"NoteNumber":70,"Velocity":77,"Duration":71428,"SoundDuration":71428,"Delta":90325538},{"NoteNumber":58,"Velocity":77,"Duration":71428,"SoundDuration":71428,"Delta":90325538},{"NoteNumber":74,"Velocity":77,"Duration":71942,"SoundDuration":71942,"Delta":90396966},{"NoteNumber":62,"Velocity":77,"Duration":71942,"SoundDuration":71942,"Delta":90396966},{"NoteNumber":77,"Velocity":77,"Duration":71942,"SoundDuration":71942,"Delta":90468909},{"NoteNumber":65,"Velocity":77,"Duration":71942,"SoundDuration":71942,"Delta":90468909},{"NoteNumber":80,"Velocity":78,"Duration":86330,"SoundDuration":86330,"Delta":90540851},{"NoteNumber":68,"Velocity":78,"Duration":86330,"SoundDuration":86330,"Delta":90540851},{"NoteNumber":82,"Velocity":78,"Duration":86539,"SoundDuration":86539,"Delta":90627182},{"NoteNumber":70,"Velocity":78,"Duration":86539,"SoundDuration":86539,"Delta":90627182},{"NoteNumber":86,"Velocity":79,"Duration":86956,"SoundDuration":86956,"Delta":90713721},{"NoteNumber":74,"Velocity":79,"Duration":86956,"SoundDuration":86956,"Delta":90713721},{"NoteNumber":89,"Velocity":80,"Duration":86956,"SoundDuration":86956,"Delta":90800678},{"NoteNumber":77,"Velocity":80,"Duration":86956,"SoundDuration":86956,"Delta":90800678},{"NoteNumber":92,"Velocity":80,"Duration":87220,"SoundDuration":87220,"Delta":90887634},{"NoteNumber":80,"Velocity":80,"Duration":87220,"SoundDuration":87220,"Delta":90887634},{"NoteNumber":93,"Velocity":81,"Duration":52083,"SoundDuration":52083,"Delta":90974855},{"NoteNumber":81,"Velocity":81,"Duration":52083,"SoundDuration":52083,"Delta":90974855},{"NoteNumber":96,"Velocity":78,"Duration":62431,"SoundDuration":62431,"Delta":91045689},{"NoteNumber":84,"Velocity":78,"Duration":62431,"SoundDuration":62431,"Delta":91045689},{"NoteNumber":94,"Velocity":77,"Duration":61983,"SoundDuration":61983,"Delta":91116384},{"NoteNumber":82,"Velocity":77,"Duration":61983,"SoundDuration":61983,"Delta":91116384},{"NoteNumber":92,"Velocity":77,"Duration":61780,"SoundDuration":61780,"Delta":91186632},{"NoteNumber":80,"Velocity":77,"Duration":61780,"SoundDuration":61780,"Delta":91186632},{"NoteNumber":89,"Velocity":77,"Duration":61475,"SoundDuration":61475,"Delta":91256609},{"NoteNumber":77,"Velocity":77,"Duration":61475,"SoundDuration":61475,"Delta":91256609},{"NoteNumber":86,"Velocity":77,"Duration":61142,"SoundDuration":61142,"Delta":91326281},{"NoteNumber":74,"Velocity":77,"Duration":61142,"SoundDuration":61142,"Delta":91326281},{"NoteNumber":82,"Velocity":77,"Duration":60975,"SoundDuration":60975,"Delta":91395554},{"NoteNumber":70,"Velocity":77,"Duration":60975,"SoundDuration":60975,"Delta":91395554},{"NoteNumber":81,"Velocity":81,"Duration":60483,"SoundDuration":60483,"Delta":91468724},{"NoteNumber":69,"Velocity":81,"Duration":60483,"SoundDuration":60483,"Delta":91468724},{"NoteNumber":84,"Velocity":78,"Duration":68548,"SoundDuration":68548,"Delta":91537273},{"NoteNumber":72,"Velocity":78,"Duration":68548,"SoundDuration":68548,"Delta":91537273},{"NoteNumber":82,"Velocity":77,"Duration":68548,"SoundDuration":68548,"Delta":91605821},{"NoteNumber":70,"Velocity":77,"Duration":68548,"SoundDuration":68548,"Delta":91605821},{"NoteNumber":80,"Velocity":77,"Duration":68548,"SoundDuration":68548,"Delta":91674370},{"NoteNumber":68,"Velocity":77,"Duration":68548,"SoundDuration":68548,"Delta":91674370},{"NoteNumber":77,"Velocity":77,"Duration":68548,"SoundDuration":68548,"Delta":91742918},{"NoteNumber":65,"Velocity":77,"Duration":68548,"SoundDuration":68548,"Delta":91742918},{"NoteNumber":74,"Velocity":77,"Duration":68548,"SoundDuration":68548,"Delta":91811466},{"NoteNumber":62,"Velocity":77,"Duration":68548,"SoundDuration":68548,"Delta":91811466},{"NoteNumber":70,"Velocity":77,"Duration":68548,"SoundDuration":68548,"Delta":91880015},{"NoteNumber":58,"Velocity":77,"Duration":68548,"SoundDuration":68548,"Delta":91880015},{"NoteNumber":69,"Velocity":81,"Duration":60483,"SoundDuration":60483,"Delta":91952595},{"NoteNumber":57,"Velocity":81,"Duration":60483,"SoundDuration":60483,"Delta":91952595},{"NoteNumber":72,"Velocity":78,"Duration":68548,"SoundDuration":68548,"Delta":92021144},{"NoteNumber":60,"Velocity":78,"Duration":68548,"SoundDuration":68548,"Delta":92021144},{"NoteNumber":70,"Velocity":77,"Duration":68548,"SoundDuration":68548,"Delta":92089692},{"NoteNumber":58,"Velocity":77,"Duration":68548,"SoundDuration":68548,"Delta":92089692},{"NoteNumber":68,"Velocity":77,"Duration":68548,"SoundDuration":68548,"Delta":92158241},{"NoteNumber":56,"Velocity":77,"Duration":68548,"SoundDuration":68548,"Delta":92158241},{"NoteNumber":65,"Velocity":77,"Duration":68548,"SoundDuration":68548,"Delta":92226789},{"NoteNumber":53,"Velocity":77,"Duration":68548,"SoundDuration":68548,"Delta":92226789},{"NoteNumber":62,"Velocity":77,"Duration":68548,"SoundDuration":68548,"Delta":92295337},{"NoteNumber":50,"Velocity":77,"Duration":68548,"SoundDuration":68548,"Delta":92295337},{"NoteNumber":58,"Velocity":76,"Duration":68548,"SoundDuration":68548,"Delta":92363886},{"NoteNumber":46,"Velocity":76,"Duration":68548,"SoundDuration":68548,"Delta":92363886},{"NoteNumber":57,"Velocity":78,"Duration":89414,"SoundDuration":89414,"Delta":92436466},{"NoteNumber":45,"Velocity":78,"Duration":89414,"SoundDuration":89414,"Delta":92436466},{"NoteNumber":58,"Velocity":80,"Duration":90162,"SoundDuration":90162,"Delta":92522284},{"NoteNumber":46,"Velocity":80,"Duration":90162,"SoundDuration":90162,"Delta":92522284},{"NoteNumber":62,"Velocity":83,"Duration":91268,"SoundDuration":91268,"Delta":92608823},{"NoteNumber":50,"Velocity":83,"Duration":91268,"SoundDuration":91268,"Delta":92608823},{"NoteNumber":65,"Velocity":85,"Duration":101633,"SoundDuration":101633,"Delta":92696415},{"NoteNumber":53,"Velocity":85,"Duration":101633,"SoundDuration":101633,"Delta":92696415},{"NoteNumber":68,"Velocity":88,"Duration":89722,"SoundDuration":89722,"Delta":92785086},{"NoteNumber":56,"Velocity":88,"Duration":89722,"SoundDuration":89722,"Delta":92785086},{"NoteNumber":57,"Velocity":92,"Duration":441176,"SoundDuration":441176,"Delta":92874808},{"NoteNumber":45,"Velocity":73,"Duration":441176,"SoundDuration":441176,"Delta":92874808},{"NoteNumber":58,"Velocity":64,"Duration":79831,"SoundDuration":79831,"Delta":93418926},{"NoteNumber":70,"Velocity":81,"Duration":79831,"SoundDuration":79831,"Delta":93418926},{"NoteNumber":51,"Velocity":66,"Duration":130109,"SoundDuration":130109,"Delta":93498758},{"NoteNumber":63,"Velocity":84,"Duration":130109,"SoundDuration":130109,"Delta":93498758},{"NoteNumber":74,"Velocity":73,"Duration":126098,"SoundDuration":126098,"Delta":93587289},{"NoteNumber":62,"Velocity":58,"Duration":126098,"SoundDuration":126098,"Delta":93587289},{"NoteNumber":61,"Velocity":85,"Duration":121861,"SoundDuration":121861,"Delta":93673388},{"NoteNumber":49,"Velocity":67,"Duration":121861,"SoundDuration":121861,"Delta":93673388},{"NoteNumber":72,"Velocity":74,"Duration":118242,"SoundDuration":118242,"Delta":93756288},{"NoteNumber":60,"Velocity":59,"Duration":118242,"SoundDuration":118242,"Delta":93756288},{"NoteNumber":59,"Velocity":87,"Duration":115487,"SoundDuration":115487,"Delta":93836635},{"NoteNumber":47,"Velocity":70,"Duration":115487,"SoundDuration":115487,"Delta":93836635},{"NoteNumber":70,"Velocity":77,"Duration":112314,"SoundDuration":112314,"Delta":93915156},{"NoteNumber":58,"Velocity":62,"Duration":112314,"SoundDuration":112314,"Delta":93915156},{"NoteNumber":57,"Velocity":90,"Duration":108942,"SoundDuration":108942,"Delta":93991756},{"NoteNumber":45,"Velocity":72,"Duration":108942,"SoundDuration":108942,"Delta":93991756},{"NoteNumber":68,"Velocity":79,"Duration":105978,"SoundDuration":105978,"Delta":94065815},{"NoteNumber":56,"Velocity":63,"Duration":105978,"SoundDuration":105978,"Delta":94065815},{"NoteNumber":43,"Velocity":72,"Duration":103195,"SoundDuration":103195,"Delta":94137829},{"NoteNumber":55,"Velocity":90,"Duration":103195,"SoundDuration":103195,"Delta":94137829},{"NoteNumber":66,"Velocity":81,"Duration":101092,"SoundDuration":101092,"Delta":94207904},{"NoteNumber":54,"Velocity":64,"Duration":101092,"SoundDuration":101092,"Delta":94207904},{"NoteNumber":41,"Velocity":73,"Duration":98500,"SoundDuration":98500,"Delta":94276738},{"NoteNumber":53,"Velocity":92,"Duration":98500,"SoundDuration":98500,"Delta":94276738},{"NoteNumber":64,"Velocity":82,"Duration":96070,"SoundDuration":96070,"Delta":94343660},{"NoteNumber":52,"Velocity":65,"Duration":96070,"SoundDuration":96070,"Delta":94343660},{"NoteNumber":39,"Velocity":73,"Duration":93778,"SoundDuration":93778,"Delta":94408907},{"NoteNumber":51,"Velocity":93,"Duration":93778,"SoundDuration":93778,"Delta":94408907},{"NoteNumber":62,"Velocity":84,"Duration":92038,"SoundDuration":92038,"Delta":94472559},{"NoteNumber":50,"Velocity":66,"Duration":92038,"SoundDuration":92038,"Delta":94472559},{"NoteNumber":37,"Velocity":95,"Duration":89885,"SoundDuration":89885,"Delta":94535185},{"NoteNumber":49,"Velocity":95,"Duration":89885,"SoundDuration":89885,"Delta":94535185},{"NoteNumber":48,"Velocity":69,"Duration":87857,"SoundDuration":87857,"Delta":94596224},{"NoteNumber":60,"Velocity":86,"Duration":87857,"SoundDuration":87857,"Delta":94596224},{"NoteNumber":47,"Velocity":97,"Duration":101131,"SoundDuration":101131,"Delta":94655866},{"NoteNumber":35,"Velocity":97,"Duration":101131,"SoundDuration":101131,"Delta":94655866},{"NoteNumber":46,"Velocity":92,"Duration":187500,"SoundDuration":187500,"Delta":94725747},{"NoteNumber":34,"Velocity":74,"Duration":187500,"SoundDuration":187500,"Delta":94725747},{"NoteNumber":63,"Velocity":64,"Duration":227272,"SoundDuration":227272,"Delta":95225747},{"NoteNumber":67,"Velocity":64,"Duration":227272,"SoundDuration":227272,"Delta":95225747},{"NoteNumber":75,"Velocity":81,"Duration":227272,"SoundDuration":227272,"Delta":95225747},{"NoteNumber":51,"Velocity":63,"Duration":227272,"SoundDuration":227272,"Delta":95225747},{"NoteNumber":46,"Velocity":63,"Duration":227272,"SoundDuration":227272,"Delta":95225747},{"NoteNumber":39,"Velocity":63,"Duration":227272,"SoundDuration":227272,"Delta":95225747},{"NoteNumber":65,"Velocity":70,"Duration":233644,"SoundDuration":233644,"Delta":95771202},{"NoteNumber":68,"Velocity":70,"Duration":233644,"SoundDuration":233644,"Delta":95771202},{"NoteNumber":77,"Velocity":87,"Duration":233644,"SoundDuration":233644,"Delta":95771202},{"NoteNumber":53,"Velocity":65,"Duration":233644,"SoundDuration":233644,"Delta":95771202},{"NoteNumber":46,"Velocity":65,"Duration":233644,"SoundDuration":233644,"Delta":95771202},{"NoteNumber":39,"Velocity":65,"Duration":233644,"SoundDuration":233644,"Delta":95771202},{"NoteNumber":66,"Velocity":64,"Duration":247524,"SoundDuration":247524,"Delta":96331949},{"NoteNumber":69,"Velocity":64,"Duration":247524,"SoundDuration":247524,"Delta":96331949},{"NoteNumber":78,"Velocity":81,"Duration":247524,"SoundDuration":247524,"Delta":96331949},{"NoteNumber":39,"Velocity":63,"Duration":247524,"SoundDuration":247524,"Delta":96331949},{"NoteNumber":46,"Velocity":63,"Duration":247524,"SoundDuration":247524,"Delta":96331949},{"NoteNumber":54,"Velocity":63,"Duration":247524,"SoundDuration":247524,"Delta":96331949},{"NoteNumber":70,"Velocity":70,"Duration":645161,"SoundDuration":645161,"Delta":96926009},{"NoteNumber":67,"Velocity":70,"Duration":645161,"SoundDuration":645161,"Delta":96926009},{"NoteNumber":79,"Velocity":87,"Duration":645161,"SoundDuration":645161,"Delta":96926009},{"NoteNumber":55,"Velocity":82,"Duration":645161,"SoundDuration":645161,"Delta":96926009},{"NoteNumber":46,"Velocity":65,"Duration":1227686,"SoundDuration":1227686,"Delta":96926009},{"NoteNumber":39,"Velocity":65,"Duration":1227686,"SoundDuration":1227686,"Delta":96926009},{"NoteNumber":63,"Velocity":64,"Duration":291262,"SoundDuration":291262,"Delta":97571170},{"NoteNumber":75,"Velocity":80,"Duration":291262,"SoundDuration":291262,"Delta":97571170},{"NoteNumber":51,"Velocity":79,"Duration":291262,"SoundDuration":291262,"Delta":97571170},{"NoteNumber":57,"Velocity":85,"Duration":160714,"SoundDuration":160714,"Delta":98153695},{"NoteNumber":45,"Velocity":85,"Duration":160714,"SoundDuration":160714,"Delta":98153695},{"NoteNumber":58,"Velocity":77,"Duration":53195,"SoundDuration":53195,"Delta":98335838},{"NoteNumber":70,"Velocity":77,"Duration":53195,"SoundDuration":53195,"Delta":98335838},{"NoteNumber":55,"Velocity":81,"Duration":132131,"SoundDuration":132131,"Delta":98389033},{"NoteNumber":67,"Velocity":81,"Duration":132131,"SoundDuration":132131,"Delta":98389033},{"NoteNumber":65,"Velocity":70,"Duration":127781,"SoundDuration":127781,"Delta":98477798},{"NoteNumber":77,"Velocity":70,"Duration":127781,"SoundDuration":127781,"Delta":98477798},{"NoteNumber":63,"Velocity":83,"Duration":123763,"SoundDuration":123763,"Delta":98563716},{"NoteNumber":51,"Velocity":83,"Duration":123763,"SoundDuration":123763,"Delta":98563716},{"NoteNumber":62,"Velocity":72,"Duration":120680,"SoundDuration":120680,"Delta":98646774},{"NoteNumber":74,"Velocity":72,"Duration":120680,"SoundDuration":120680,"Delta":98646774},{"NoteNumber":60,"Velocity":85,"Duration":117038,"SoundDuration":117038,"Delta":98727777},{"NoteNumber":48,"Velocity":85,"Duration":117038,"SoundDuration":117038,"Delta":98727777},{"NoteNumber":58,"Velocity":74,"Duration":113616,"SoundDuration":113616,"Delta":98806445},{"NoteNumber":70,"Velocity":74,"Duration":113616,"SoundDuration":113616,"Delta":98806445},{"NoteNumber":56,"Velocity":87,"Duration":111018,"SoundDuration":111018,"Delta":98882626},{"NoteNumber":44,"Velocity":87,"Duration":111018,"SoundDuration":111018,"Delta":98882626},{"NoteNumber":55,"Velocity":76,"Duration":107961,"SoundDuration":107961,"Delta":98957116},{"NoteNumber":67,"Velocity":76,"Duration":107961,"SoundDuration":107961,"Delta":98957116},{"NoteNumber":53,"Velocity":90,"Duration":105008,"SoundDuration":105008,"Delta":99029661},{"NoteNumber":41,"Velocity":90,"Duration":105008,"SoundDuration":105008,"Delta":99029661},{"NoteNumber":51,"Velocity":79,"Duration":102788,"SoundDuration":102788,"Delta":99100016},{"NoteNumber":63,"Velocity":79,"Duration":102788,"SoundDuration":102788,"Delta":99100016},{"NoteNumber":38,"Velocity":92,"Duration":100191,"SoundDuration":100191,"Delta":99168962},{"NoteNumber":50,"Velocity":92,"Duration":100191,"SoundDuration":100191,"Delta":99168962},{"NoteNumber":48,"Velocity":81,"Duration":112307,"SoundDuration":112307,"Delta":99236208},{"NoteNumber":60,"Velocity":81,"Duration":112307,"SoundDuration":112307,"Delta":99236208},{"NoteNumber":34,"Velocity":92,"Duration":185950,"SoundDuration":185950,"Delta":99309259},{"NoteNumber":46,"Velocity":92,"Duration":185950,"SoundDuration":185950,"Delta":99309259},{"NoteNumber":63,"Velocity":71,"Duration":240384,"SoundDuration":240384,"Delta":99805127},{"NoteNumber":67,"Velocity":71,"Duration":240384,"SoundDuration":240384,"Delta":99805127},{"NoteNumber":75,"Velocity":79,"Duration":240384,"SoundDuration":240384,"Delta":99805127},{"NoteNumber":39,"Velocity":66,"Duration":240384,"SoundDuration":240384,"Delta":99805127},{"NoteNumber":51,"Velocity":66,"Duration":240384,"SoundDuration":240384,"Delta":99805127},{"NoteNumber":46,"Velocity":66,"Duration":240384,"SoundDuration":240384,"Delta":99805127},{"NoteNumber":65,"Velocity":76,"Duration":250000,"SoundDuration":250000,"Delta":100382050},{"NoteNumber":68,"Velocity":76,"Duration":250000,"SoundDuration":250000,"Delta":100382050},{"NoteNumber":77,"Velocity":85,"Duration":250000,"SoundDuration":250000,"Delta":100382050},{"NoteNumber":53,"Velocity":71,"Duration":250000,"SoundDuration":250000,"Delta":100382050},{"NoteNumber":39,"Velocity":71,"Duration":250000,"SoundDuration":250000,"Delta":100382050},{"NoteNumber":47,"Velocity":71,"Duration":250000,"SoundDuration":250000,"Delta":100382050},{"NoteNumber":50,"Velocity":71,"Duration":250000,"SoundDuration":250000,"Delta":100382050},{"NoteNumber":67,"Velocity":71,"Duration":287356,"SoundDuration":287356,"Delta":100982050},{"NoteNumber":70,"Velocity":71,"Duration":287356,"SoundDuration":287356,"Delta":100982050},{"NoteNumber":79,"Velocity":79,"Duration":287356,"SoundDuration":287356,"Delta":100982050},{"NoteNumber":39,"Velocity":66,"Duration":287356,"SoundDuration":287356,"Delta":100982050},{"NoteNumber":46,"Velocity":66,"Duration":287356,"SoundDuration":287356,"Delta":100982050},{"NoteNumber":55,"Velocity":66,"Duration":287356,"SoundDuration":287356,"Delta":100982050},{"NoteNumber":63,"Velocity":66,"Duration":1173469,"SoundDuration":1173469,"Delta":101671705},{"NoteNumber":67,"Velocity":66,"Duration":1173469,"SoundDuration":1173469,"Delta":101671705},{"NoteNumber":75,"Velocity":74,"Duration":1173469,"SoundDuration":1173469,"Delta":101671705},{"NoteNumber":51,"Velocity":64,"Duration":1173469,"SoundDuration":1173469,"Delta":101671705},{"NoteNumber":46,"Velocity":64,"Duration":1173469,"SoundDuration":1173469,"Delta":101671705},{"NoteNumber":39,"Velocity":64,"Duration":1173469,"SoundDuration":1173469,"Delta":101671705},{"NoteNumber":93,"Velocity":41,"Duration":65217,"SoundDuration":65217,"Delta":102896195},{"NoteNumber":94,"Velocity":36,"Duration":64628,"SoundDuration":64628,"Delta":102965761},{"NoteNumber":99,"Velocity":38,"Duration":45112,"SoundDuration":45112,"Delta":103034149},{"NoteNumber":96,"Velocity":36,"Duration":45112,"SoundDuration":45112,"Delta":103083021},{"NoteNumber":94,"Velocity":36,"Duration":45112,"SoundDuration":45112,"Delta":103131893},{"NoteNumber":92,"Velocity":36,"Duration":44776,"SoundDuration":44776,"Delta":103180738},{"NoteNumber":91,"Velocity":33,"Duration":44776,"SoundDuration":44776,"Delta":103229245},{"NoteNumber":89,"Velocity":37,"Duration":44527,"SoundDuration":44527,"Delta":103277752},{"NoteNumber":87,"Velocity":37,"Duration":44444,"SoundDuration":44444,"Delta":103325983},{"NoteNumber":86,"Velocity":36,"Duration":44308,"SoundDuration":44308,"Delta":103374132},{"NoteNumber":84,"Velocity":36,"Duration":44117,"SoundDuration":44117,"Delta":103422116},{"NoteNumber":82,"Velocity":36,"Duration":44117,"SoundDuration":44117,"Delta":103469911},{"NoteNumber":80,"Velocity":36,"Duration":44010,"SoundDuration":44010,"Delta":103517705},{"NoteNumber":79,"Velocity":36,"Duration":43795,"SoundDuration":43795,"Delta":103565365},{"NoteNumber":77,"Velocity":36,"Duration":43795,"SoundDuration":43795,"Delta":103612810},{"NoteNumber":75,"Velocity":36,"Duration":43478,"SoundDuration":43478,"Delta":103660229},{"NoteNumber":74,"Velocity":36,"Duration":43478,"SoundDuration":43478,"Delta":103707330},{"NoteNumber":72,"Velocity":36,"Duration":43217,"SoundDuration":43217,"Delta":103758055},{"NoteNumber":70,"Velocity":41,"Duration":206421,"SoundDuration":206421,"Delta":103801272},{"NoteNumber":55,"Velocity":29,"Duration":216346,"SoundDuration":216346,"Delta":104353936},{"NoteNumber":58,"Velocity":29,"Duration":216346,"SoundDuration":216346,"Delta":104353936},{"NoteNumber":63,"Velocity":33,"Duration":216346,"SoundDuration":216346,"Delta":104353936},{"NoteNumber":51,"Velocity":29,"Duration":216346,"SoundDuration":216346,"Delta":104353936},{"NoteNumber":56,"Velocity":31,"Duration":229591,"SoundDuration":229591,"Delta":104930859},{"NoteNumber":59,"Velocity":31,"Duration":229591,"SoundDuration":229591,"Delta":104930859},{"NoteNumber":65,"Velocity":36,"Duration":229591,"SoundDuration":229591,"Delta":104930859},{"NoteNumber":50,"Velocity":32,"Duration":229591,"SoundDuration":229591,"Delta":104930859},{"NoteNumber":57,"Velocity":30,"Duration":249999,"SoundDuration":249999,"Delta":105543104},{"NoteNumber":60,"Velocity":30,"Duration":249999,"SoundDuration":249999,"Delta":105543104},{"NoteNumber":66,"Velocity":35,"Duration":249999,"SoundDuration":249999,"Delta":105543104},{"NoteNumber":38,"Velocity":30,"Duration":249999,"SoundDuration":249999,"Delta":105543104},{"NoteNumber":59,"Velocity":30,"Duration":697674,"SoundDuration":697674,"Delta":106209771},{"NoteNumber":67,"Velocity":35,"Duration":697674,"SoundDuration":697674,"Delta":106209771},{"NoteNumber":43,"Velocity":29,"Duration":1542745,"SoundDuration":1542745,"Delta":106209771},{"NoteNumber":50,"Velocity":29,"Duration":697674,"SoundDuration":697674,"Delta":106209771},{"NoteNumber":55,"Velocity":28,"Duration":422535,"SoundDuration":422535,"Delta":106907445},{"NoteNumber":62,"Velocity":32,"Duration":422535,"SoundDuration":422535,"Delta":106907445},{"NoteNumber":47,"Velocity":27,"Duration":422535,"SoundDuration":422535,"Delta":106907445},{"NoteNumber":94,"Velocity":27,"Duration":66964,"SoundDuration":66964,"Delta":107752516},{"NoteNumber":90,"Velocity":27,"Duration":66964,"SoundDuration":66964,"Delta":107752516},{"NoteNumber":95,"Velocity":27,"Duration":66964,"SoundDuration":66964,"Delta":107819480},{"NoteNumber":91,"Velocity":27,"Duration":66964,"SoundDuration":66964,"Delta":107819480},{"NoteNumber":103,"Velocity":29,"Duration":66964,"SoundDuration":66964,"Delta":107886444},{"NoteNumber":95,"Velocity":29,"Duration":66964,"SoundDuration":66964,"Delta":107886444},{"NoteNumber":102,"Velocity":29,"Duration":66964,"SoundDuration":66964,"Delta":107953409},{"NoteNumber":93,"Velocity":29,"Duration":66964,"SoundDuration":66964,"Delta":107953409},{"NoteNumber":100,"Velocity":29,"Duration":61983,"SoundDuration":61983,"Delta":108020373},{"NoteNumber":91,"Velocity":29,"Duration":61983,"SoundDuration":61983,"Delta":108020373},{"NoteNumber":98,"Velocity":29,"Duration":61983,"SoundDuration":61983,"Delta":108082356},{"NoteNumber":90,"Velocity":29,"Duration":61983,"SoundDuration":61983,"Delta":108082356},{"NoteNumber":96,"Velocity":29,"Duration":61475,"SoundDuration":61475,"Delta":108144340},{"NoteNumber":88,"Velocity":29,"Duration":61475,"SoundDuration":61475,"Delta":108144340},{"NoteNumber":95,"Velocity":28,"Duration":61475,"SoundDuration":61475,"Delta":108205815},{"NoteNumber":86,"Velocity":28,"Duration":61475,"SoundDuration":61475,"Delta":108205815},{"NoteNumber":93,"Velocity":28,"Duration":60975,"SoundDuration":60975,"Delta":108267291},{"NoteNumber":84,"Velocity":28,"Duration":60975,"SoundDuration":60975,"Delta":108267291},{"NoteNumber":91,"Velocity":28,"Duration":60975,"SoundDuration":60975,"Delta":108328266},{"NoteNumber":83,"Velocity":28,"Duration":60975,"SoundDuration":60975,"Delta":108328266},{"NoteNumber":90,"Velocity":28,"Duration":60483,"SoundDuration":60483,"Delta":108389242},{"NoteNumber":81,"Velocity":28,"Duration":60483,"SoundDuration":60483,"Delta":108389242},{"NoteNumber":88,"Velocity":28,"Duration":60483,"SoundDuration":60483,"Delta":108449726},{"NoteNumber":79,"Velocity":28,"Duration":60483,"SoundDuration":60483,"Delta":108449726},{"NoteNumber":86,"Velocity":27,"Duration":60000,"SoundDuration":60000,"Delta":108510210},{"NoteNumber":78,"Velocity":27,"Duration":60000,"SoundDuration":60000,"Delta":108510210},{"NoteNumber":84,"Velocity":27,"Duration":60000,"SoundDuration":60000,"Delta":108570210},{"NoteNumber":76,"Velocity":27,"Duration":60000,"SoundDuration":60000,"Delta":108570210},{"NoteNumber":83,"Velocity":27,"Duration":59523,"SoundDuration":59523,"Delta":108630210},{"NoteNumber":74,"Velocity":27,"Duration":59523,"SoundDuration":59523,"Delta":108630210},{"NoteNumber":81,"Velocity":27,"Duration":59211,"SoundDuration":59211,"Delta":108689734},{"NoteNumber":72,"Velocity":27,"Duration":59211,"SoundDuration":59211,"Delta":108689734},{"NoteNumber":79,"Velocity":27,"Duration":224999,"SoundDuration":224999,"Delta":108748945},{"NoteNumber":71,"Velocity":27,"Duration":224999,"SoundDuration":224999,"Delta":108748945},{"NoteNumber":60,"Velocity":32,"Duration":591398,"SoundDuration":591398,"Delta":109348945},{"NoteNumber":64,"Velocity":32,"Duration":591398,"SoundDuration":591398,"Delta":109348945},{"NoteNumber":67,"Velocity":36,"Duration":591398,"SoundDuration":591398,"Delta":109348945},{"NoteNumber":48,"Velocity":28,"Duration":591398,"SoundDuration":591398,"Delta":109348945},{"NoteNumber":60,"Velocity":32,"Duration":581395,"SoundDuration":581395,"Delta":109994106},{"NoteNumber":68,"Velocity":36,"Duration":581395,"SoundDuration":581395,"Delta":109994106},{"NoteNumber":65,"Velocity":32,"Duration":581395,"SoundDuration":581395,"Delta":109994106},{"NoteNumber":41,"Velocity":31,"Duration":581395,"SoundDuration":581395,"Delta":109994106},{"NoteNumber":56,"Velocity":30,"Duration":808823,"SoundDuration":808823,"Delta":110691781},{"NoteNumber":62,"Velocity":30,"Duration":808823,"SoundDuration":808823,"Delta":110691781},{"NoteNumber":70,"Velocity":35,"Duration":808823,"SoundDuration":808823,"Delta":110691781},{"NoteNumber":46,"Velocity":30,"Duration":808823,"SoundDuration":808823,"Delta":110691781},{"NoteNumber":34,"Velocity":30,"Duration":808823,"SoundDuration":808823,"Delta":110691781},{"NoteNumber":55,"Velocity":29,"Duration":1844262,"SoundDuration":1844262,"Delta":111574134},{"NoteNumber":63,"Velocity":29,"Duration":1844262,"SoundDuration":1844262,"Delta":111574134},{"NoteNumber":70,"Velocity":33,"Duration":1844262,"SoundDuration":1844262,"Delta":111574134},{"NoteNumber":46,"Velocity":30,"Duration":1844262,"SoundDuration":1844262,"Delta":111574134},{"NoteNumber":39,"Velocity":30,"Duration":1844262,"SoundDuration":1844262,"Delta":111574134},{"NoteNumber":43,"Velocity":73,"Duration":584415,"SoundDuration":584415,"Delta":113541347},{"NoteNumber":55,"Velocity":82,"Duration":584415,"SoundDuration":584415,"Delta":113541347},{"NoteNumber":39,"Velocity":71,"Duration":194805,"SoundDuration":194805,"Delta":114125763},{"NoteNumber":51,"Velocity":79,"Duration":194805,"SoundDuration":194805,"Delta":114125763},{"NoteNumber":36,"Velocity":73,"Duration":170454,"SoundDuration":170454,"Delta":114320568},{"NoteNumber":48,"Velocity":82,"Duration":170454,"SoundDuration":170454,"Delta":114320568},{"NoteNumber":35,"Velocity":70,"Duration":165745,"SoundDuration":165745,"Delta":114491022},{"NoteNumber":47,"Velocity":78,"Duration":165745,"SoundDuration":165745,"Delta":114491022},{"NoteNumber":55,"Velocity":79,"Duration":165745,"SoundDuration":165745,"Delta":114656768},{"NoteNumber":36,"Velocity":70,"Duration":124309,"SoundDuration":124309,"Delta":114656768},{"NoteNumber":48,"Velocity":78,"Duration":124309,"SoundDuration":124309,"Delta":114656768},{"NoteNumber":38,"Velocity":70,"Duration":124309,"SoundDuration":124309,"Delta":114822514},{"NoteNumber":50,"Velocity":78,"Duration":124309,"SoundDuration":124309,"Delta":114822514},{"NoteNumber":60,"Velocity":82,"Duration":961319,"SoundDuration":961319,"Delta":114988260},{"NoteNumber":39,"Velocity":73,"Duration":166666,"SoundDuration":166666,"Delta":114988260},{"NoteNumber":51,"Velocity":82,"Duration":166666,"SoundDuration":166666,"Delta":114988260},{"NoteNumber":38,"Velocity":70,"Duration":160427,"SoundDuration":160427,"Delta":115154926},{"NoteNumber":50,"Velocity":78,"Duration":160427,"SoundDuration":160427,"Delta":115154926},{"NoteNumber":67,"Velocity":78,"Duration":320855,"SoundDuration":320855,"Delta":115315354},{"NoteNumber":39,"Velocity":70,"Duration":120320,"SoundDuration":120320,"Delta":115315354},{"NoteNumber":51,"Velocity":78,"Duration":120320,"SoundDuration":120320,"Delta":115315354},{"NoteNumber":41,"Velocity":70,"Duration":120320,"SoundDuration":120320,"Delta":115475782},{"NoteNumber":53,"Velocity":78,"Duration":120320,"SoundDuration":120320,"Delta":115475782},{"NoteNumber":62,"Velocity":82,"Duration":930413,"SoundDuration":930413,"Delta":115636210},{"NoteNumber":43,"Velocity":73,"Duration":158730,"SoundDuration":158730,"Delta":115636210},{"NoteNumber":55,"Velocity":82,"Duration":158730,"SoundDuration":158730,"Delta":115636210},{"NoteNumber":42,"Velocity":71,"Duration":154639,"SoundDuration":154639,"Delta":115794940},{"NoteNumber":54,"Velocity":79,"Duration":154639,"SoundDuration":154639,"Delta":115794940},{"NoteNumber":59,"Velocity":79,"Duration":305412,"SoundDuration":305412,"Delta":115949579},{"NoteNumber":43,"Velocity":71,"Duration":115979,"SoundDuration":115979,"Delta":115949579},{"NoteNumber":55,"Velocity":79,"Duration":115979,"SoundDuration":115979,"Delta":115949579},{"NoteNumber":45,"Velocity":71,"Duration":115979,"SoundDuration":115979,"Delta":116104218},{"NoteNumber":57,"Velocity":79,"Duration":115979,"SoundDuration":115979,"Delta":116104218},{"NoteNumber":74,"Velocity":82,"Duration":909369,"SoundDuration":909369,"Delta":116258858},{"NoteNumber":47,"Velocity":76,"Duration":156250,"SoundDuration":156250,"Delta":116258858},{"NoteNumber":59,"Velocity":85,"Duration":156250,"SoundDuration":156250,"Delta":116258858},{"NoteNumber":45,"Velocity":71,"Duration":151515,"SoundDuration":151515,"Delta":116415108},{"NoteNumber":57,"Velocity":79,"Duration":151515,"SoundDuration":151515,"Delta":116415108},{"NoteNumber":65,"Velocity":79,"Duration":151515,"SoundDuration":151515,"Delta":116566623},{"NoteNumber":47,"Velocity":71,"Duration":113636,"SoundDuration":113636,"Delta":116566623},{"NoteNumber":59,"Velocity":79,"Duration":113636,"SoundDuration":113636,"Delta":116566623},{"NoteNumber":43,"Velocity":71,"Duration":113636,"SoundDuration":113636,"Delta":116718138},{"NoteNumber":55,"Velocity":79,"Duration":113636,"SoundDuration":113636,"Delta":116718138},{"NoteNumber":63,"Velocity":81,"Duration":589712,"SoundDuration":589712,"Delta":116869653},{"NoteNumber":48,"Velocity":79,"Duration":151515,"SoundDuration":151515,"Delta":116869653},{"NoteNumber":60,"Velocity":88,"Duration":151515,"SoundDuration":151515,"Delta":116869653},{"NoteNumber":47,"Velocity":72,"Duration":147058,"SoundDuration":147058,"Delta":117021169},{"NoteNumber":59,"Velocity":80,"Duration":147058,"SoundDuration":147058,"Delta":117021169},{"NoteNumber":67,"Velocity":83,"Duration":147058,"SoundDuration":147058,"Delta":117168227},{"NoteNumber":48,"Velocity":72,"Duration":110294,"SoundDuration":110294,"Delta":117168227},{"NoteNumber":60,"Velocity":80,"Duration":110294,"SoundDuration":110294,"Delta":117168227},{"NoteNumber":50,"Velocity":72,"Duration":110294,"SoundDuration":110294,"Delta":117315286},{"NoteNumber":62,"Velocity":80,"Duration":110294,"SoundDuration":110294,"Delta":117315286},{"NoteNumber":79,"Velocity":86,"Duration":433613,"SoundDuration":433613,"Delta":117461759},{"NoteNumber":51,"Velocity":83,"Duration":149253,"SoundDuration":149253,"Delta":117461759},{"NoteNumber":63,"Velocity":92,"Duration":149253,"SoundDuration":149253,"Delta":117461759},{"NoteNumber":50,"Velocity":72,"Duration":142179,"SoundDuration":142179,"Delta":117611012},{"NoteNumber":62,"Velocity":81,"Duration":142179,"SoundDuration":142179,"Delta":117611012},{"NoteNumber":72,"Velocity":77,"Duration":142180,"SoundDuration":142180,"Delta":117753192},{"NoteNumber":51,"Velocity":72,"Duration":106634,"SoundDuration":106634,"Delta":117753192},{"NoteNumber":63,"Velocity":81,"Duration":106634,"SoundDuration":106634,"Delta":117753192},{"NoteNumber":80,"Velocity":72,"Duration":142179,"SoundDuration":142179,"Delta":117895372},{"NoteNumber":53,"Velocity":72,"Duration":106634,"SoundDuration":106634,"Delta":117895372},{"NoteNumber":65,"Velocity":81,"Duration":106634,"SoundDuration":106634,"Delta":117895372},{"NoteNumber":74,"Velocity":77,"Duration":721693,"SoundDuration":721693,"Delta":118037552},{"NoteNumber":72,"Velocity":77,"Duration":337078,"SoundDuration":337078,"Delta":118037552},{"NoteNumber":55,"Velocity":83,"Duration":168539,"SoundDuration":168539,"Delta":118037552},{"NoteNumber":67,"Velocity":92,"Duration":168539,"SoundDuration":168539,"Delta":118037552},{"NoteNumber":62,"Velocity":64,"Duration":384615,"SoundDuration":384615,"Delta":118374631},{"NoteNumber":71,"Velocity":72,"Duration":384615,"SoundDuration":384615,"Delta":118374631},{"NoteNumber":43,"Velocity":73,"Duration":288461,"SoundDuration":288461,"Delta":118374631},{"NoteNumber":50,"Velocity":73,"Duration":288461,"SoundDuration":288461,"Delta":118374631},{"NoteNumber":59,"Velocity":82,"Duration":288461,"SoundDuration":288461,"Delta":118374631},{"NoteNumber":91,"Velocity":85,"Duration":529509,"SoundDuration":529509,"Delta":118759246},{"NoteNumber":86,"Velocity":76,"Duration":529509,"SoundDuration":529509,"Delta":118759246},{"NoteNumber":83,"Velocity":76,"Duration":529509,"SoundDuration":529509,"Delta":118759246},{"NoteNumber":79,"Velocity":76,"Duration":529509,"SoundDuration":529509,"Delta":118759246},{"NoteNumber":55,"Velocity":76,"Duration":529509,"SoundDuration":529509,"Delta":118759246},{"NoteNumber":59,"Velocity":76,"Duration":529509,"SoundDuration":529509,"Delta":118759246},{"NoteNumber":62,"Velocity":76,"Duration":529509,"SoundDuration":529509,"Delta":118759246},{"NoteNumber":67,"Velocity":85,"Duration":529509,"SoundDuration":529509,"Delta":118759246},{"NoteNumber":91,"Velocity":76,"Duration":120205,"SoundDuration":120205,"Delta":119288755},{"NoteNumber":79,"Velocity":67,"Duration":120205,"SoundDuration":120205,"Delta":119288755},{"NoteNumber":80,"Velocity":71,"Duration":117016,"SoundDuration":117016,"Delta":119449029},{"NoteNumber":92,"Velocity":79,"Duration":117016,"SoundDuration":117016,"Delta":119449029},{"NoteNumber":79,"Velocity":67,"Duration":111706,"SoundDuration":111706,"Delta":119605051},{"NoteNumber":91,"Velocity":76,"Duration":111706,"SoundDuration":111706,"Delta":119605051},{"NoteNumber":80,"Velocity":67,"Duration":111706,"SoundDuration":111706,"Delta":119753994},{"NoteNumber":92,"Velocity":76,"Duration":111706,"SoundDuration":111706,"Delta":119753994},{"NoteNumber":53,"Velocity":55,"Duration":300948,"SoundDuration":300948,"Delta":119753994},{"NoteNumber":62,"Velocity":62,"Duration":599807,"SoundDuration":599807,"Delta":119753994},{"NoteNumber":59,"Velocity":62,"Duration":599807,"SoundDuration":599807,"Delta":119753994},{"NoteNumber":74,"Velocity":67,"Duration":114004,"SoundDuration":114004,"Delta":119902936},{"NoteNumber":86,"Velocity":76,"Duration":114004,"SoundDuration":114004,"Delta":119902936},{"NoteNumber":91,"Velocity":79,"Duration":115195,"SoundDuration":115195,"Delta":120054943},{"NoteNumber":79,"Velocity":71,"Duration":115195,"SoundDuration":115195,"Delta":120054943},{"NoteNumber":67,"Velocity":67,"Duration":298858,"SoundDuration":298858,"Delta":120054943},{"NoteNumber":51,"Velocity":60,"Duration":593065,"SoundDuration":593065,"Delta":120054943},{"NoteNumber":78,"Velocity":67,"Duration":108948,"SoundDuration":108948,"Delta":120208537},{"NoteNumber":90,"Velocity":76,"Duration":108948,"SoundDuration":108948,"Delta":120208537},{"NoteNumber":79,"Velocity":67,"Duration":108948,"SoundDuration":108948,"Delta":120353801},{"NoteNumber":91,"Velocity":76,"Duration":108948,"SoundDuration":108948,"Delta":120353801},{"NoteNumber":60,"Velocity":69,"Duration":294207,"SoundDuration":294207,"Delta":120353801},{"NoteNumber":84,"Velocity":76,"Duration":111706,"SoundDuration":111706,"Delta":120499066},{"NoteNumber":72,"Velocity":67,"Duration":111706,"SoundDuration":111706,"Delta":120499066},{"NoteNumber":89,"Velocity":79,"Duration":114004,"SoundDuration":114004,"Delta":120648008},{"NoteNumber":77,"Velocity":71,"Duration":114004,"SoundDuration":114004,"Delta":120648008},{"NoteNumber":76,"Velocity":69,"Duration":108412,"SoundDuration":108412,"Delta":120800015},{"NoteNumber":88,"Velocity":77,"Duration":108412,"SoundDuration":108412,"Delta":120800015},{"NoteNumber":77,"Velocity":69,"Duration":108412,"SoundDuration":108412,"Delta":120944565},{"NoteNumber":89,"Velocity":77,"Duration":108412,"SoundDuration":108412,"Delta":120944565},{"NoteNumber":50,"Velocity":55,"Duration":293493,"SoundDuration":293493,"Delta":120944565},{"NoteNumber":59,"Velocity":55,"Duration":293493,"SoundDuration":293493,"Delta":120944565},{"NoteNumber":56,"Velocity":62,"Duration":593167,"SoundDuration":593167,"Delta":120944565},{"NoteNumber":71,"Velocity":69,"Duration":111706,"SoundDuration":111706,"Delta":121089116},{"NoteNumber":83,"Velocity":77,"Duration":111706,"SoundDuration":111706,"Delta":121089116},{"NoteNumber":75,"Velocity":71,"Duration":111706,"SoundDuration":111706,"Delta":121238058},{"NoteNumber":87,"Velocity":79,"Duration":111706,"SoundDuration":111706,"Delta":121238058},{"NoteNumber":63,"Velocity":67,"Duration":299674,"SoundDuration":299674,"Delta":121238058},{"NoteNumber":48,"Velocity":60,"Duration":299674,"SoundDuration":299674,"Delta":121238058},{"NoteNumber":74,"Velocity":67,"Duration":113043,"SoundDuration":113043,"Delta":121387001},{"NoteNumber":86,"Velocity":76,"Duration":113043,"SoundDuration":113043,"Delta":121387001},{"NoteNumber":75,"Velocity":67,"Duration":113065,"SoundDuration":113065,"Delta":121537733},{"NoteNumber":87,"Velocity":76,"Duration":113065,"SoundDuration":113065,"Delta":121537733},{"NoteNumber":51,"Velocity":56,"Duration":320245,"SoundDuration":320245,"Delta":121537733},{"NoteNumber":55,"Velocity":56,"Duration":320245,"SoundDuration":320245,"Delta":121537733},{"NoteNumber":60,"Velocity":63,"Duration":320245,"SoundDuration":320245,"Delta":121537733},{"NoteNumber":72,"Velocity":67,"Duration":127118,"SoundDuration":127118,"Delta":121688487},{"NoteNumber":84,"Velocity":76,"Duration":127118,"SoundDuration":127118,"Delta":121688487},{"NoteNumber":44,"Velocity":56,"Duration":1367959,"SoundDuration":1367959,"Delta":121688487},{"NoteNumber":72,"Velocity":67,"Duration":149491,"SoundDuration":149491,"Delta":121857978},{"NoteNumber":84,"Velocity":76,"Duration":149491,"SoundDuration":149491,"Delta":121857978},{"NoteNumber":63,"Velocity":60,"Duration":149491,"SoundDuration":149491,"Delta":121857978},{"NoteNumber":67,"Velocity":67,"Duration":149491,"SoundDuration":149491,"Delta":121857978},{"NoteNumber":70,"Velocity":64,"Duration":126505,"SoundDuration":126505,"Delta":122007470},{"NoteNumber":82,"Velocity":72,"Duration":126505,"SoundDuration":126505,"Delta":122007470},{"NoteNumber":62,"Velocity":57,"Duration":126505,"SoundDuration":126505,"Delta":122007470},{"NoteNumber":65,"Velocity":64,"Duration":126505,"SoundDuration":126505,"Delta":122007470},{"NoteNumber":70,"Velocity":64,"Duration":146341,"SoundDuration":146341,"Delta":122159277},{"NoteNumber":82,"Velocity":72,"Duration":146341,"SoundDuration":146341,"Delta":122159277},{"NoteNumber":62,"Velocity":57,"Duration":146341,"SoundDuration":146341,"Delta":122159277},{"NoteNumber":65,"Velocity":64,"Duration":146341,"SoundDuration":146341,"Delta":122159277},{"NoteNumber":68,"Velocity":64,"Duration":126505,"SoundDuration":126505,"Delta":122305618},{"NoteNumber":80,"Velocity":72,"Duration":126505,"SoundDuration":126505,"Delta":122305618},{"NoteNumber":60,"Velocity":57,"Duration":126505,"SoundDuration":126505,"Delta":122305618},{"NoteNumber":63,"Velocity":64,"Duration":126505,"SoundDuration":126505,"Delta":122305618},{"NoteNumber":68,"Velocity":69,"Duration":147058,"SoundDuration":147058,"Delta":122457039},{"NoteNumber":80,"Velocity":77,"Duration":147058,"SoundDuration":147058,"Delta":122457039},{"NoteNumber":60,"Velocity":62,"Duration":147058,"SoundDuration":147058,"Delta":122457039},{"NoteNumber":63,"Velocity":69,"Duration":147058,"SoundDuration":147058,"Delta":122457039},{"NoteNumber":67,"Velocity":64,"Duration":126505,"SoundDuration":126505,"Delta":122604098},{"NoteNumber":79,"Velocity":72,"Duration":126505,"SoundDuration":126505,"Delta":122604098},{"NoteNumber":58,"Velocity":57,"Duration":126505,"SoundDuration":126505,"Delta":122604098},{"NoteNumber":62,"Velocity":64,"Duration":126505,"SoundDuration":126505,"Delta":122604098},{"NoteNumber":67,"Velocity":64,"Duration":148735,"SoundDuration":148735,"Delta":122755904},{"NoteNumber":79,"Velocity":72,"Duration":148735,"SoundDuration":148735,"Delta":122755904},{"NoteNumber":58,"Velocity":57,"Duration":148735,"SoundDuration":148735,"Delta":122755904},{"NoteNumber":62,"Velocity":64,"Duration":148735,"SoundDuration":148735,"Delta":122755904},{"NoteNumber":66,"Velocity":64,"Duration":126505,"SoundDuration":126505,"Delta":122904640},{"NoteNumber":78,"Velocity":72,"Duration":126505,"SoundDuration":126505,"Delta":122904640},{"NoteNumber":56,"Velocity":57,"Duration":126505,"SoundDuration":126505,"Delta":122904640},{"NoteNumber":60,"Velocity":64,"Duration":126505,"SoundDuration":126505,"Delta":122904640},{"NoteNumber":66,"Velocity":67,"Duration":154143,"SoundDuration":154143,"Delta":123056446},{"NoteNumber":78,"Velocity":76,"Duration":154143,"SoundDuration":154143,"Delta":123056446},{"NoteNumber":60,"Velocity":67,"Duration":154143,"SoundDuration":154143,"Delta":123056446},{"NoteNumber":56,"Velocity":60,"Duration":154143,"SoundDuration":154143,"Delta":123056446},{"NoteNumber":67,"Velocity":66,"Duration":113065,"SoundDuration":113065,"Delta":123210590},{"NoteNumber":79,"Velocity":74,"Duration":113065,"SoundDuration":113065,"Delta":123210590},{"NoteNumber":55,"Velocity":59,"Duration":113065,"SoundDuration":113065,"Delta":123210590},{"NoteNumber":59,"Velocity":66,"Duration":113065,"SoundDuration":113065,"Delta":123210590},{"NoteNumber":91,"Velocity":95,"Duration":182926,"SoundDuration":182926,"Delta":123361344},{"NoteNumber":79,"Velocity":85,"Duration":182926,"SoundDuration":182926,"Delta":123361344},{"NoteNumber":43,"Velocity":70,"Duration":182926,"SoundDuration":182926,"Delta":123361344},{"NoteNumber":55,"Velocity":78,"Duration":182926,"SoundDuration":182926,"Delta":123361344},{"NoteNumber":55,"Velocity":73,"Duration":502793,"SoundDuration":502793,"Delta":123724518},{"NoteNumber":67,"Velocity":82,"Duration":502793,"SoundDuration":502793,"Delta":123724518},{"NoteNumber":51,"Velocity":71,"Duration":167597,"SoundDuration":167597,"Delta":124227311},{"NoteNumber":63,"Velocity":79,"Duration":167597,"SoundDuration":167597,"Delta":124227311},{"NoteNumber":48,"Velocity":73,"Duration":160427,"SoundDuration":160427,"Delta":124394909},{"NoteNumber":60,"Velocity":82,"Duration":160427,"SoundDuration":160427,"Delta":124394909},{"NoteNumber":47,"Velocity":70,"Duration":154242,"SoundDuration":154242,"Delta":124555337},{"NoteNumber":59,"Velocity":78,"Duration":154242,"SoundDuration":154242,"Delta":124555337},{"NoteNumber":48,"Velocity":70,"Duration":114601,"SoundDuration":114601,"Delta":124709579},{"NoteNumber":60,"Velocity":78,"Duration":114601,"SoundDuration":114601,"Delta":124709579},{"NoteNumber":31,"Velocity":71,"Duration":152672,"SoundDuration":152672,"Delta":124709579},{"NoteNumber":50,"Velocity":70,"Duration":113446,"SoundDuration":113446,"Delta":124862252},{"NoteNumber":62,"Velocity":78,"Duration":113446,"SoundDuration":113446,"Delta":124862252},{"NoteNumber":51,"Velocity":73,"Duration":156250,"SoundDuration":156250,"Delta":125013261},{"NoteNumber":63,"Velocity":82,"Duration":156250,"SoundDuration":156250,"Delta":125013261},{"NoteNumber":36,"Velocity":73,"Duration":912324,"SoundDuration":912324,"Delta":125013261},{"NoteNumber":50,"Velocity":70,"Duration":151515,"SoundDuration":151515,"Delta":125169511},{"NoteNumber":62,"Velocity":78,"Duration":151515,"SoundDuration":151515,"Delta":125169511},{"NoteNumber":51,"Velocity":70,"Duration":113636,"SoundDuration":113636,"Delta":125321026},{"NoteNumber":63,"Velocity":78,"Duration":113636,"SoundDuration":113636,"Delta":125321026},{"NoteNumber":43,"Velocity":70,"Duration":303030,"SoundDuration":303030,"Delta":125321026},{"NoteNumber":53,"Velocity":70,"Duration":113636,"SoundDuration":113636,"Delta":125472542},{"NoteNumber":65,"Velocity":78,"Duration":113636,"SoundDuration":113636,"Delta":125472542},{"NoteNumber":55,"Velocity":73,"Duration":152734,"SoundDuration":152734,"Delta":125624057},{"NoteNumber":67,"Velocity":82,"Duration":152734,"SoundDuration":152734,"Delta":125624057},{"NoteNumber":38,"Velocity":73,"Duration":895250,"SoundDuration":895250,"Delta":125624057},{"NoteNumber":54,"Velocity":71,"Duration":148794,"SoundDuration":148794,"Delta":125776791},{"NoteNumber":66,"Velocity":79,"Duration":148794,"SoundDuration":148794,"Delta":125776791},{"NoteNumber":55,"Velocity":71,"Duration":111596,"SoundDuration":111596,"Delta":125925586},{"NoteNumber":67,"Velocity":79,"Duration":111596,"SoundDuration":111596,"Delta":125925586},{"NoteNumber":35,"Velocity":71,"Duration":297589,"SoundDuration":297589,"Delta":125925586},{"NoteNumber":57,"Velocity":71,"Duration":111596,"SoundDuration":111596,"Delta":126074380},{"NoteNumber":69,"Velocity":79,"Duration":111596,"SoundDuration":111596,"Delta":126074380},{"NoteNumber":59,"Velocity":76,"Duration":150345,"SoundDuration":150345,"Delta":126223175},{"NoteNumber":71,"Velocity":85,"Duration":150345,"SoundDuration":150345,"Delta":126223175},{"NoteNumber":50,"Velocity":73,"Duration":879030,"SoundDuration":879030,"Delta":126223175},{"NoteNumber":57,"Velocity":71,"Duration":145786,"SoundDuration":145786,"Delta":126373521},{"NoteNumber":69,"Velocity":79,"Duration":145786,"SoundDuration":145786,"Delta":126373521},{"NoteNumber":59,"Velocity":71,"Duration":109340,"SoundDuration":109340,"Delta":126519308},{"NoteNumber":71,"Velocity":79,"Duration":109340,"SoundDuration":109340,"Delta":126519308},{"NoteNumber":41,"Velocity":71,"Duration":145786,"SoundDuration":145786,"Delta":126519308},{"NoteNumber":55,"Velocity":71,"Duration":109340,"SoundDuration":109340,"Delta":126665094},{"NoteNumber":67,"Velocity":79,"Duration":109340,"SoundDuration":109340,"Delta":126665094},{"NoteNumber":60,"Velocity":79,"Duration":147783,"SoundDuration":147783,"Delta":126810881},{"NoteNumber":72,"Velocity":88,"Duration":147783,"SoundDuration":147783,"Delta":126810881},{"NoteNumber":39,"Velocity":64,"Duration":857908,"SoundDuration":857908,"Delta":126810881},{"NoteNumber":59,"Velocity":72,"Duration":143540,"SoundDuration":143540,"Delta":126958664},{"NoteNumber":71,"Velocity":80,"Duration":143540,"SoundDuration":143540,"Delta":126958664},{"NoteNumber":60,"Velocity":72,"Duration":107655,"SoundDuration":107655,"Delta":127102205},{"NoteNumber":72,"Velocity":80,"Duration":107655,"SoundDuration":107655,"Delta":127102205},{"NoteNumber":43,"Velocity":73,"Duration":143540,"SoundDuration":143540,"Delta":127102205},{"NoteNumber":62,"Velocity":72,"Duration":107655,"SoundDuration":107655,"Delta":127245746},{"NoteNumber":74,"Velocity":80,"Duration":107655,"SoundDuration":107655,"Delta":127245746},{"NoteNumber":63,"Velocity":83,"Duration":143609,"SoundDuration":143609,"Delta":127388381},{"NoteNumber":75,"Velocity":92,"Duration":143609,"SoundDuration":143609,"Delta":127388381},{"NoteNumber":55,"Velocity":77,"Duration":417207,"SoundDuration":417207,"Delta":127388381},{"NoteNumber":62,"Velocity":72,"Duration":136798,"SoundDuration":136798,"Delta":127531991},{"NoteNumber":74,"Velocity":81,"Duration":136798,"SoundDuration":136798,"Delta":127531991},{"NoteNumber":63,"Velocity":72,"Duration":102599,"SoundDuration":102599,"Delta":127668790},{"NoteNumber":75,"Velocity":81,"Duration":102599,"SoundDuration":102599,"Delta":127668790},{"NoteNumber":48,"Velocity":69,"Duration":136798,"SoundDuration":136798,"Delta":127668790},{"NoteNumber":65,"Velocity":72,"Duration":102599,"SoundDuration":102599,"Delta":127805589},{"NoteNumber":77,"Velocity":81,"Duration":102599,"SoundDuration":102599,"Delta":127805589},{"NoteNumber":56,"Velocity":64,"Duration":136798,"SoundDuration":136798,"Delta":127805589},{"NoteNumber":67,"Velocity":83,"Duration":161290,"SoundDuration":161290,"Delta":127942388},{"NoteNumber":79,"Velocity":92,"Duration":161290,"SoundDuration":161290,"Delta":127942388},{"NoteNumber":48,"Velocity":69,"Duration":322580,"SoundDuration":322580,"Delta":127942388},{"NoteNumber":50,"Velocity":77,"Duration":690678,"SoundDuration":690678,"Delta":127942388},{"NoteNumber":55,"Velocity":93,"Duration":276073,"SoundDuration":276073,"Delta":128264968},{"NoteNumber":47,"Velocity":72,"Duration":368098,"SoundDuration":368098,"Delta":128264968},{"NoteNumber":67,"Velocity":85,"Duration":524425,"SoundDuration":524425,"Delta":128633066},{"NoteNumber":59,"Velocity":67,"Duration":524425,"SoundDuration":524425,"Delta":128633066},{"NoteNumber":62,"Velocity":67,"Duration":524425,"SoundDuration":524425,"Delta":128633066},{"NoteNumber":55,"Velocity":67,"Duration":524425,"SoundDuration":524425,"Delta":128633066},{"NoteNumber":55,"Velocity":60,"Duration":120320,"SoundDuration":120320,"Delta":129157491},{"NoteNumber":67,"Velocity":76,"Duration":120320,"SoundDuration":120320,"Delta":129157491},{"NoteNumber":56,"Velocity":63,"Duration":118570,"SoundDuration":118570,"Delta":129317919},{"NoteNumber":68,"Velocity":79,"Duration":118570,"SoundDuration":118570,"Delta":129317919},{"NoteNumber":67,"Velocity":76,"Duration":112230,"SoundDuration":112230,"Delta":129476014},{"NoteNumber":55,"Velocity":60,"Duration":112230,"SoundDuration":112230,"Delta":129476014},{"NoteNumber":71,"Velocity":57,"Duration":301278,"SoundDuration":301278,"Delta":129625654},{"NoteNumber":83,"Velocity":72,"Duration":301278,"SoundDuration":301278,"Delta":129625654},{"NoteNumber":77,"Velocity":72,"Duration":301278,"SoundDuration":301278,"Delta":129625654},{"NoteNumber":68,"Velocity":76,"Duration":112230,"SoundDuration":112230,"Delta":129625654},{"NoteNumber":56,"Velocity":60,"Duration":112230,"SoundDuration":112230,"Delta":129625654},{"NoteNumber":62,"Velocity":76,"Duration":113728,"SoundDuration":113728,"Delta":129775295},{"NoteNumber":50,"Velocity":60,"Duration":113728,"SoundDuration":113728,"Delta":129775295},{"NoteNumber":83,"Velocity":64,"Duration":295300,"SoundDuration":295300,"Delta":129926933},{"NoteNumber":87,"Velocity":81,"Duration":295300,"SoundDuration":295300,"Delta":129926933},{"NoteNumber":75,"Velocity":64,"Duration":295300,"SoundDuration":295300,"Delta":129926933},{"NoteNumber":55,"Velocity":63,"Duration":111386,"SoundDuration":111386,"Delta":129926933},{"NoteNumber":67,"Velocity":79,"Duration":111386,"SoundDuration":111386,"Delta":129926933},{"NoteNumber":54,"Velocity":60,"Duration":110089,"SoundDuration":110089,"Delta":130075448},{"NoteNumber":66,"Velocity":76,"Duration":110089,"SoundDuration":110089,"Delta":130075448},{"NoteNumber":72,"Velocity":56,"Duration":295359,"SoundDuration":295359,"Delta":130222233},{"NoteNumber":75,"Velocity":56,"Duration":295359,"SoundDuration":295359,"Delta":130222233},{"NoteNumber":84,"Velocity":71,"Duration":295359,"SoundDuration":295359,"Delta":130222233},{"NoteNumber":55,"Velocity":60,"Duration":110089,"SoundDuration":110089,"Delta":130222233},{"NoteNumber":67,"Velocity":76,"Duration":110089,"SoundDuration":110089,"Delta":130222233},{"NoteNumber":60,"Velocity":76,"Duration":111430,"SoundDuration":111430,"Delta":130369019},{"NoteNumber":48,"Velocity":60,"Duration":111430,"SoundDuration":111430,"Delta":130369019},{"NoteNumber":65,"Velocity":79,"Duration":113728,"SoundDuration":113728,"Delta":130517592},{"NoteNumber":53,"Velocity":63,"Duration":113728,"SoundDuration":113728,"Delta":130517592},{"NoteNumber":52,"Velocity":62,"Duration":109053,"SoundDuration":109053,"Delta":130669230},{"NoteNumber":64,"Velocity":77,"Duration":109053,"SoundDuration":109053,"Delta":130669230},{"NoteNumber":74,"Velocity":60,"Duration":293978,"SoundDuration":293978,"Delta":130814635},{"NoteNumber":86,"Velocity":76,"Duration":293978,"SoundDuration":293978,"Delta":130814635},{"NoteNumber":80,"Velocity":60,"Duration":293978,"SoundDuration":293978,"Delta":130814635},{"NoteNumber":65,"Velocity":77,"Duration":109053,"SoundDuration":109053,"Delta":130814635},{"NoteNumber":53,"Velocity":62,"Duration":109053,"SoundDuration":109053,"Delta":130814635},{"NoteNumber":47,"Velocity":62,"Duration":111430,"SoundDuration":111430,"Delta":130960041},{"NoteNumber":59,"Velocity":77,"Duration":111430,"SoundDuration":111430,"Delta":130960041},{"NoteNumber":91,"Velocity":82,"Duration":289717,"SoundDuration":289717,"Delta":131108614},{"NoteNumber":86,"Velocity":65,"Duration":289717,"SoundDuration":289717,"Delta":131108614},{"NoteNumber":79,"Velocity":65,"Duration":289717,"SoundDuration":289717,"Delta":131108614},{"NoteNumber":63,"Velocity":79,"Duration":109756,"SoundDuration":109756,"Delta":131108614},{"NoteNumber":51,"Velocity":63,"Duration":109756,"SoundDuration":109756,"Delta":131108614},{"NoteNumber":62,"Velocity":76,"Duration":107531,"SoundDuration":107531,"Delta":131254956},{"NoteNumber":50,"Velocity":60,"Duration":107531,"SoundDuration":107531,"Delta":131254956},{"NoteNumber":72,"Velocity":58,"Duration":285641,"SoundDuration":285641,"Delta":131398332},{"NoteNumber":79,"Velocity":58,"Duration":285641,"SoundDuration":285641,"Delta":131398332},{"NoteNumber":84,"Velocity":73,"Duration":285641,"SoundDuration":285641,"Delta":131398332},{"NoteNumber":63,"Velocity":76,"Duration":107364,"SoundDuration":107364,"Delta":131398332},{"NoteNumber":51,"Velocity":60,"Duration":107364,"SoundDuration":107364,"Delta":131398332},{"NoteNumber":60,"Velocity":76,"Duration":107030,"SoundDuration":107030,"Delta":131541374},{"NoteNumber":48,"Velocity":60,"Duration":107030,"SoundDuration":107030,"Delta":131541374},{"NoteNumber":46,"Velocity":60,"Duration":106544,"SoundDuration":106544,"Delta":131683973},{"NoteNumber":58,"Velocity":76,"Duration":106544,"SoundDuration":106544,"Delta":131683973},{"NoteNumber":44,"Velocity":57,"Duration":106161,"SoundDuration":106161,"Delta":131826032},{"NoteNumber":56,"Velocity":72,"Duration":106161,"SoundDuration":106161,"Delta":131826032},{"NoteNumber":80,"Velocity":67,"Duration":289435,"SoundDuration":289435,"Delta":131967545},{"NoteNumber":84,"Velocity":67,"Duration":289435,"SoundDuration":289435,"Delta":131967545},{"NoteNumber":92,"Velocity":85,"Duration":289435,"SoundDuration":289435,"Delta":131967545},{"NoteNumber":43,"Velocity":57,"Duration":108538,"SoundDuration":108538,"Delta":131967545},{"NoteNumber":55,"Velocity":72,"Duration":108538,"SoundDuration":108538,"Delta":131967545},{"NoteNumber":41,"Velocity":57,"Duration":108538,"SoundDuration":108538,"Delta":132112262},{"NoteNumber":53,"Velocity":72,"Duration":108538,"SoundDuration":108538,"Delta":132112262},{"NoteNumber":79,"Velocity":73,"Duration":293570,"SoundDuration":293570,"Delta":132256980},{"NoteNumber":84,"Velocity":73,"Duration":293570,"SoundDuration":293570,"Delta":132256980},{"NoteNumber":91,"Velocity":92,"Duration":293570,"SoundDuration":293570,"Delta":132256980},{"NoteNumber":39,"Velocity":62,"Duration":110089,"SoundDuration":110089,"Delta":132256980},{"NoteNumber":51,"Velocity":77,"Duration":110089,"SoundDuration":110089,"Delta":132256980},{"NoteNumber":55,"Velocity":72,"Duration":110089,"SoundDuration":110089,"Delta":132403766},{"NoteNumber":43,"Velocity":57,"Duration":110089,"SoundDuration":110089,"Delta":132403766},{"NoteNumber":95,"Velocity":86,"Duration":226070,"SoundDuration":226070,"Delta":132550551},{"NoteNumber":91,"Velocity":69,"Duration":226070,"SoundDuration":226070,"Delta":132550551},{"NoteNumber":83,"Velocity":69,"Duration":226070,"SoundDuration":226070,"Delta":132550551},{"NoteNumber":41,"Velocity":57,"Duration":112176,"SoundDuration":112176,"Delta":132550551},{"NoteNumber":53,"Velocity":72,"Duration":112176,"SoundDuration":112176,"Delta":132550551},{"NoteNumber":50,"Velocity":72,"Duration":127426,"SoundDuration":127426,"Delta":132700443},{"NoteNumber":38,"Velocity":57,"Duration":114582,"SoundDuration":114582,"Delta":132700443},{"NoteNumber":84,"Velocity":77,"Duration":230367,"SoundDuration":230367,"Delta":132853030},{"NoteNumber":87,"Velocity":77,"Duration":230367,"SoundDuration":230367,"Delta":132853030},{"NoteNumber":96,"Velocity":97,"Duration":230367,"SoundDuration":230367,"Delta":132853030},{"NoteNumber":47,"Velocity":76,"Duration":153578,"SoundDuration":153578,"Delta":132853030},{"NoteNumber":35,"Velocity":60,"Duration":153578,"SoundDuration":153578,"Delta":132853030},{"NoteNumber":48,"Velocity":74,"Duration":127982,"SoundDuration":127982,"Delta":133006608},{"NoteNumber":36,"Velocity":59,"Duration":127982,"SoundDuration":127982,"Delta":133006608},{"NoteNumber":63,"Velocity":65,"Duration":286624,"SoundDuration":286624,"Delta":133160187},{"NoteNumber":67,"Velocity":65,"Duration":286624,"SoundDuration":286624,"Delta":133160187},{"NoteNumber":72,"Velocity":82,"Duration":286624,"SoundDuration":286624,"Delta":133160187},{"NoteNumber":55,"Velocity":65,"Duration":286624,"SoundDuration":286624,"Delta":133160187},{"NoteNumber":51,"Velocity":65,"Duration":286624,"SoundDuration":286624,"Delta":133160187},{"NoteNumber":60,"Velocity":82,"Duration":286624,"SoundDuration":286624,"Delta":133160187},{"NoteNumber":58,"Velocity":81,"Duration":486328,"SoundDuration":486328,"Delta":133542352},{"NoteNumber":70,"Velocity":90,"Duration":486328,"SoundDuration":486328,"Delta":133542352},{"NoteNumber":34,"Velocity":78,"Duration":486328,"SoundDuration":486328,"Delta":133542352},{"NoteNumber":46,"Velocity":87,"Duration":486328,"SoundDuration":486328,"Delta":133542352},{"NoteNumber":62,"Velocity":66,"Duration":313304,"SoundDuration":313304,"Delta":133866571},{"NoteNumber":65,"Velocity":66,"Duration":313304,"SoundDuration":313304,"Delta":133866571},{"NoteNumber":41,"Velocity":59,"Duration":313304,"SoundDuration":313304,"Delta":133866571},{"NoteNumber":44,"Velocity":66,"Duration":313304,"SoundDuration":313304,"Delta":133866571},{"NoteNumber":58,"Velocity":70,"Duration":151194,"SoundDuration":151194,"Delta":134028681},{"NoteNumber":70,"Velocity":78,"Duration":151194,"SoundDuration":151194,"Delta":134028681},{"NoteNumber":34,"Velocity":70,"Duration":151194,"SoundDuration":151194,"Delta":134028681},{"NoteNumber":46,"Velocity":78,"Duration":151194,"SoundDuration":151194,"Delta":134028681},{"NoteNumber":58,"Velocity":73,"Duration":151194,"SoundDuration":151194,"Delta":134179875},{"NoteNumber":70,"Velocity":82,"Duration":151194,"SoundDuration":151194,"Delta":134179875},{"NoteNumber":34,"Velocity":73,"Duration":151194,"SoundDuration":151194,"Delta":134179875},{"NoteNumber":46,"Velocity":82,"Duration":151194,"SoundDuration":151194,"Delta":134179875},{"NoteNumber":57,"Velocity":64,"Duration":145900,"SoundDuration":145900,"Delta":134331070},{"NoteNumber":69,"Velocity":72,"Duration":145900,"SoundDuration":145900,"Delta":134331070},{"NoteNumber":33,"Velocity":62,"Duration":145900,"SoundDuration":145900,"Delta":134331070},{"NoteNumber":45,"Velocity":69,"Duration":145900,"SoundDuration":145900,"Delta":134331070},{"NoteNumber":58,"Velocity":66,"Duration":145900,"SoundDuration":145900,"Delta":134476970},{"NoteNumber":70,"Velocity":74,"Duration":145900,"SoundDuration":145900,"Delta":134476970},{"NoteNumber":34,"Velocity":64,"Duration":145900,"SoundDuration":145900,"Delta":134476970},{"NoteNumber":46,"Velocity":72,"Duration":145900,"SoundDuration":145900,"Delta":134476970},{"NoteNumber":62,"Velocity":69,"Duration":145900,"SoundDuration":145900,"Delta":134622870},{"NoteNumber":74,"Velocity":77,"Duration":145900,"SoundDuration":145900,"Delta":134622870},{"NoteNumber":38,"Velocity":67,"Duration":145900,"SoundDuration":145900,"Delta":134622870},{"NoteNumber":50,"Velocity":76,"Duration":145900,"SoundDuration":145900,"Delta":134622870},{"NoteNumber":65,"Velocity":71,"Duration":148883,"SoundDuration":148883,"Delta":134768771},{"NoteNumber":77,"Velocity":79,"Duration":148883,"SoundDuration":148883,"Delta":134768771},{"NoteNumber":41,"Velocity":70,"Duration":148883,"SoundDuration":148883,"Delta":134768771},{"NoteNumber":53,"Velocity":78,"Duration":148883,"SoundDuration":148883,"Delta":134768771},{"NoteNumber":70,"Velocity":72,"Duration":142342,"SoundDuration":142342,"Delta":134917654},{"NoteNumber":82,"Velocity":81,"Duration":142342,"SoundDuration":142342,"Delta":134917654},{"NoteNumber":46,"Velocity":72,"Duration":142342,"SoundDuration":142342,"Delta":134917654},{"NoteNumber":58,"Velocity":81,"Duration":142342,"SoundDuration":142342,"Delta":134917654},{"NoteNumber":74,"Velocity":73,"Duration":142341,"SoundDuration":142341,"Delta":135059996},{"NoteNumber":86,"Velocity":83,"Duration":142341,"SoundDuration":142341,"Delta":135059996},{"NoteNumber":50,"Velocity":74,"Duration":142341,"SoundDuration":142341,"Delta":135059996},{"NoteNumber":62,"Velocity":84,"Duration":142341,"SoundDuration":142341,"Delta":135059996},{"NoteNumber":77,"Velocity":76,"Duration":140234,"SoundDuration":140234,"Delta":135202338},{"NoteNumber":89,"Velocity":85,"Duration":140234,"SoundDuration":140234,"Delta":135202338},{"NoteNumber":53,"Velocity":77,"Duration":140234,"SoundDuration":140234,"Delta":135202338},{"NoteNumber":65,"Velocity":86,"Duration":140234,"SoundDuration":140234,"Delta":135202338},{"NoteNumber":80,"Velocity":78,"Duration":147058,"SoundDuration":147058,"Delta":135342573},{"NoteNumber":92,"Velocity":87,"Duration":147058,"SoundDuration":147058,"Delta":135342573},{"NoteNumber":68,"Velocity":90,"Duration":147058,"SoundDuration":147058,"Delta":135342573},{"NoteNumber":56,"Velocity":80,"Duration":147058,"SoundDuration":147058,"Delta":135342573},{"NoteNumber":77,"Velocity":73,"Duration":147058,"SoundDuration":147058,"Delta":135489631},{"NoteNumber":89,"Velocity":82,"Duration":147058,"SoundDuration":147058,"Delta":135489631},{"NoteNumber":53,"Velocity":73,"Duration":147058,"SoundDuration":147058,"Delta":135489631},{"NoteNumber":65,"Velocity":82,"Duration":147058,"SoundDuration":147058,"Delta":135489631},{"NoteNumber":86,"Velocity":70,"Duration":272727,"SoundDuration":272727,"Delta":135636690},{"NoteNumber":74,"Velocity":63,"Duration":272727,"SoundDuration":272727,"Delta":135636690},{"NoteNumber":77,"Velocity":63,"Duration":272727,"SoundDuration":272727,"Delta":135636690},{"NoteNumber":50,"Velocity":63,"Duration":272727,"SoundDuration":272727,"Delta":135636690},{"NoteNumber":56,"Velocity":63,"Duration":272727,"SoundDuration":272727,"Delta":135636690},{"NoteNumber":58,"Velocity":63,"Duration":272727,"SoundDuration":272727,"Delta":135636690},{"NoteNumber":62,"Velocity":71,"Duration":272727,"SoundDuration":272727,"Delta":135636690},{"NoteNumber":58,"Velocity":81,"Duration":486328,"SoundDuration":486328,"Delta":136000327},{"NoteNumber":70,"Velocity":90,"Duration":486328,"SoundDuration":486328,"Delta":136000327},{"NoteNumber":34,"Velocity":78,"Duration":486328,"SoundDuration":486328,"Delta":136000327},{"NoteNumber":46,"Velocity":87,"Duration":486328,"SoundDuration":486328,"Delta":136000327},{"NoteNumber":62,"Velocity":59,"Duration":309892,"SoundDuration":309892,"Delta":136324546},{"NoteNumber":65,"Velocity":66,"Duration":309892,"SoundDuration":309892,"Delta":136324546},{"NoteNumber":41,"Velocity":59,"Duration":309892,"SoundDuration":309892,"Delta":136324546},{"NoteNumber":44,"Velocity":66,"Duration":309892,"SoundDuration":309892,"Delta":136324546},{"NoteNumber":58,"Velocity":70,"Duration":147783,"SoundDuration":147783,"Delta":136486655},{"NoteNumber":70,"Velocity":78,"Duration":147783,"SoundDuration":147783,"Delta":136486655},{"NoteNumber":34,"Velocity":70,"Duration":147783,"SoundDuration":147783,"Delta":136486655},{"NoteNumber":46,"Velocity":78,"Duration":147783,"SoundDuration":147783,"Delta":136486655},{"NoteNumber":58,"Velocity":73,"Duration":147783,"SoundDuration":147783,"Delta":136634438},{"NoteNumber":70,"Velocity":82,"Duration":147783,"SoundDuration":147783,"Delta":136634438},{"NoteNumber":34,"Velocity":73,"Duration":147783,"SoundDuration":147783,"Delta":136634438},{"NoteNumber":46,"Velocity":82,"Duration":147783,"SoundDuration":147783,"Delta":136634438},{"NoteNumber":57,"Velocity":64,"Duration":143540,"SoundDuration":143540,"Delta":136782222},{"NoteNumber":69,"Velocity":72,"Duration":143540,"SoundDuration":143540,"Delta":136782222},{"NoteNumber":33,"Velocity":62,"Duration":143540,"SoundDuration":143540,"Delta":136782222},{"NoteNumber":45,"Velocity":69,"Duration":143540,"SoundDuration":143540,"Delta":136782222},{"NoteNumber":58,"Velocity":66,"Duration":143540,"SoundDuration":143540,"Delta":136925762},{"NoteNumber":70,"Velocity":74,"Duration":143540,"SoundDuration":143540,"Delta":136925762},{"NoteNumber":34,"Velocity":64,"Duration":143540,"SoundDuration":143540,"Delta":136925762},{"NoteNumber":46,"Velocity":72,"Duration":143540,"SoundDuration":143540,"Delta":136925762},{"NoteNumber":62,"Velocity":69,"Duration":143540,"SoundDuration":143540,"Delta":137069303},{"NoteNumber":74,"Velocity":77,"Duration":143540,"SoundDuration":143540,"Delta":137069303},{"NoteNumber":38,"Velocity":67,"Duration":143540,"SoundDuration":143540,"Delta":137069303},{"NoteNumber":50,"Velocity":76,"Duration":143540,"SoundDuration":143540,"Delta":137069303},{"NoteNumber":65,"Velocity":71,"Duration":147058,"SoundDuration":147058,"Delta":137212844},{"NoteNumber":77,"Velocity":79,"Duration":147058,"SoundDuration":147058,"Delta":137212844},{"NoteNumber":41,"Velocity":70,"Duration":147058,"SoundDuration":147058,"Delta":137212844},{"NoteNumber":53,"Velocity":78,"Duration":147058,"SoundDuration":147058,"Delta":137212844},{"NoteNumber":70,"Velocity":72,"Duration":148514,"SoundDuration":148514,"Delta":137359903},{"NoteNumber":82,"Velocity":81,"Duration":148514,"SoundDuration":148514,"Delta":137359903},{"NoteNumber":46,"Velocity":72,"Duration":148514,"SoundDuration":148514,"Delta":137359903},{"NoteNumber":58,"Velocity":81,"Duration":148514,"SoundDuration":148514,"Delta":137359903},{"NoteNumber":74,"Velocity":73,"Duration":151134,"SoundDuration":151134,"Delta":137508417},{"NoteNumber":86,"Velocity":83,"Duration":151134,"SoundDuration":151134,"Delta":137508417},{"NoteNumber":50,"Velocity":74,"Duration":151134,"SoundDuration":151134,"Delta":137508417},{"NoteNumber":62,"Velocity":84,"Duration":151134,"SoundDuration":151134,"Delta":137508417},{"NoteNumber":77,"Velocity":76,"Duration":151171,"SoundDuration":151171,"Delta":137659552},{"NoteNumber":89,"Velocity":85,"Duration":151171,"SoundDuration":151171,"Delta":137659552},{"NoteNumber":53,"Velocity":77,"Duration":151171,"SoundDuration":151171,"Delta":137659552},{"NoteNumber":65,"Velocity":86,"Duration":151171,"SoundDuration":151171,"Delta":137659552},{"NoteNumber":80,"Velocity":78,"Duration":160427,"SoundDuration":160427,"Delta":137810724},{"NoteNumber":92,"Velocity":87,"Duration":160427,"SoundDuration":160427,"Delta":137810724},{"NoteNumber":68,"Velocity":90,"Duration":160427,"SoundDuration":160427,"Delta":137810724},{"NoteNumber":56,"Velocity":80,"Duration":160427,"SoundDuration":160427,"Delta":137810724},{"NoteNumber":77,"Velocity":73,"Duration":134730,"SoundDuration":134730,"Delta":137971151},{"NoteNumber":89,"Velocity":82,"Duration":134730,"SoundDuration":134730,"Delta":137971151},{"NoteNumber":53,"Velocity":73,"Duration":134730,"SoundDuration":134730,"Delta":137971151},{"NoteNumber":65,"Velocity":82,"Duration":134730,"SoundDuration":134730,"Delta":137971151},{"NoteNumber":83,"Velocity":70,"Duration":292207,"SoundDuration":292207,"Delta":138150792},{"NoteNumber":74,"Velocity":63,"Duration":292207,"SoundDuration":292207,"Delta":138150792},{"NoteNumber":71,"Velocity":63,"Duration":292207,"SoundDuration":292207,"Delta":138150792},{"NoteNumber":47,"Velocity":63,"Duration":292207,"SoundDuration":292207,"Delta":138150792},{"NoteNumber":53,"Velocity":63,"Duration":292207,"SoundDuration":292207,"Delta":138150792},{"NoteNumber":56,"Velocity":63,"Duration":292207,"SoundDuration":292207,"Delta":138150792},{"NoteNumber":59,"Velocity":71,"Duration":292207,"SoundDuration":292207,"Delta":138150792},{"NoteNumber":67,"Velocity":82,"Duration":538922,"SoundDuration":538922,"Delta":138540403},{"NoteNumber":79,"Velocity":91,"Duration":538922,"SoundDuration":538922,"Delta":138540403},{"NoteNumber":43,"Velocity":90,"Duration":538922,"SoundDuration":538922,"Delta":138540403},{"NoteNumber":55,"Velocity":90,"Duration":538922,"SoundDuration":538922,"Delta":138540403},{"NoteNumber":63,"Velocity":70,"Duration":168539,"SoundDuration":168539,"Delta":139079325},{"NoteNumber":75,"Velocity":78,"Duration":168539,"SoundDuration":168539,"Delta":139079325},{"NoteNumber":39,"Velocity":70,"Duration":168539,"SoundDuration":168539,"Delta":139079325},{"NoteNumber":51,"Velocity":70,"Duration":168539,"SoundDuration":168539,"Delta":139079325},{"NoteNumber":60,"Velocity":73,"Duration":122950,"SoundDuration":122950,"Delta":139247864},{"NoteNumber":72,"Velocity":83,"Duration":122950,"SoundDuration":122950,"Delta":139247864},{"NoteNumber":36,"Velocity":73,"Duration":122950,"SoundDuration":122950,"Delta":139247864},{"NoteNumber":48,"Velocity":73,"Duration":122950,"SoundDuration":122950,"Delta":139247864},{"NoteNumber":59,"Velocity":70,"Duration":120967,"SoundDuration":120967,"Delta":139411799},{"NoteNumber":71,"Velocity":78,"Duration":120967,"SoundDuration":120967,"Delta":139411799},{"NoteNumber":35,"Velocity":70,"Duration":120967,"SoundDuration":120967,"Delta":139411799},{"NoteNumber":47,"Velocity":70,"Duration":120967,"SoundDuration":120967,"Delta":139411799},{"NoteNumber":63,"Velocity":51,"Duration":234375,"SoundDuration":234375,"Delta":139573089},{"NoteNumber":67,"Velocity":51,"Duration":234375,"SoundDuration":234375,"Delta":139573089},{"NoteNumber":60,"Velocity":70,"Duration":156250,"SoundDuration":156250,"Delta":139573089},{"NoteNumber":72,"Velocity":78,"Duration":156250,"SoundDuration":156250,"Delta":139573089},{"NoteNumber":39,"Velocity":51,"Duration":234375,"SoundDuration":234375,"Delta":139573089},{"NoteNumber":43,"Velocity":51,"Duration":234375,"SoundDuration":234375,"Delta":139573089},{"NoteNumber":36,"Velocity":70,"Duration":156250,"SoundDuration":156250,"Delta":139573089},{"NoteNumber":48,"Velocity":70,"Duration":156250,"SoundDuration":156250,"Delta":139573089},{"NoteNumber":62,"Velocity":70,"Duration":156250,"SoundDuration":156250,"Delta":139729339},{"NoteNumber":74,"Velocity":78,"Duration":156250,"SoundDuration":156250,"Delta":139729339},{"NoteNumber":38,"Velocity":70,"Duration":156250,"SoundDuration":156250,"Delta":139729339},{"NoteNumber":50,"Velocity":70,"Duration":156250,"SoundDuration":156250,"Delta":139729339},{"NoteNumber":67,"Velocity":54,"Duration":624335,"SoundDuration":624335,"Delta":139885589},{"NoteNumber":72,"Velocity":54,"Duration":624335,"SoundDuration":624335,"Delta":139885589},{"NoteNumber":63,"Velocity":72,"Duration":119680,"SoundDuration":119680,"Delta":139885589},{"NoteNumber":75,"Velocity":81,"Duration":119680,"SoundDuration":119680,"Delta":139885589},{"NoteNumber":43,"Velocity":54,"Duration":624335,"SoundDuration":624335,"Delta":139885589},{"NoteNumber":48,"Velocity":54,"Duration":624335,"SoundDuration":624335,"Delta":139885589},{"NoteNumber":39,"Velocity":72,"Duration":119680,"SoundDuration":119680,"Delta":139885589},{"NoteNumber":51,"Velocity":72,"Duration":119680,"SoundDuration":119680,"Delta":139885589},{"NoteNumber":62,"Velocity":70,"Duration":117800,"SoundDuration":117800,"Delta":140045163},{"NoteNumber":74,"Velocity":78,"Duration":117800,"SoundDuration":117800,"Delta":140045163},{"NoteNumber":38,"Velocity":70,"Duration":117800,"SoundDuration":117800,"Delta":140045163},{"NoteNumber":50,"Velocity":70,"Duration":117800,"SoundDuration":117800,"Delta":140045163},{"NoteNumber":63,"Velocity":70,"Duration":153846,"SoundDuration":153846,"Delta":140202231},{"NoteNumber":75,"Velocity":78,"Duration":153846,"SoundDuration":153846,"Delta":140202231},{"NoteNumber":39,"Velocity":70,"Duration":153846,"SoundDuration":153846,"Delta":140202231},{"NoteNumber":51,"Velocity":70,"Duration":153846,"SoundDuration":153846,"Delta":140202231},{"NoteNumber":65,"Velocity":70,"Duration":153846,"SoundDuration":153846,"Delta":140356078},{"NoteNumber":77,"Velocity":78,"Duration":153846,"SoundDuration":153846,"Delta":140356078},{"NoteNumber":41,"Velocity":70,"Duration":153846,"SoundDuration":153846,"Delta":140356078},{"NoteNumber":53,"Velocity":70,"Duration":153846,"SoundDuration":153846,"Delta":140356078},{"NoteNumber":74,"Velocity":54,"Duration":235260,"SoundDuration":235260,"Delta":140509924},{"NoteNumber":72,"Velocity":54,"Duration":235260,"SoundDuration":235260,"Delta":140509924},{"NoteNumber":67,"Velocity":72,"Duration":119047,"SoundDuration":119047,"Delta":140509924},{"NoteNumber":79,"Velocity":81,"Duration":119047,"SoundDuration":119047,"Delta":140509924},{"NoteNumber":50,"Velocity":54,"Duration":235260,"SoundDuration":235260,"Delta":140509924},{"NoteNumber":48,"Velocity":54,"Duration":235260,"SoundDuration":235260,"Delta":140509924},{"NoteNumber":43,"Velocity":72,"Duration":119047,"SoundDuration":119047,"Delta":140509924},{"NoteNumber":55,"Velocity":72,"Duration":119047,"SoundDuration":119047,"Delta":140509924},{"NoteNumber":66,"Velocity":70,"Duration":127551,"SoundDuration":127551,"Delta":140668654},{"NoteNumber":78,"Velocity":78,"Duration":127551,"SoundDuration":127551,"Delta":140668654},{"NoteNumber":42,"Velocity":70,"Duration":127551,"SoundDuration":127551,"Delta":140668654},{"NoteNumber":54,"Velocity":70,"Duration":127551,"SoundDuration":127551,"Delta":140668654},{"NoteNumber":71,"Velocity":54,"Duration":223880,"SoundDuration":223880,"Delta":140821715},{"NoteNumber":74,"Velocity":54,"Duration":223880,"SoundDuration":223880,"Delta":140821715},{"NoteNumber":67,"Velocity":70,"Duration":149253,"SoundDuration":149253,"Delta":140821715},{"NoteNumber":79,"Velocity":78,"Duration":149253,"SoundDuration":149253,"Delta":140821715},{"NoteNumber":47,"Velocity":54,"Duration":223880,"SoundDuration":223880,"Delta":140821715},{"NoteNumber":50,"Velocity":54,"Duration":223880,"SoundDuration":223880,"Delta":140821715},{"NoteNumber":43,"Velocity":70,"Duration":149253,"SoundDuration":149253,"Delta":140821715},{"NoteNumber":55,"Velocity":70,"Duration":149253,"SoundDuration":149253,"Delta":140821715},{"NoteNumber":81,"Velocity":78,"Duration":149253,"SoundDuration":149253,"Delta":140970969},{"NoteNumber":69,"Velocity":70,"Duration":149253,"SoundDuration":149253,"Delta":140970969},{"NoteNumber":57,"Velocity":70,"Duration":149253,"SoundDuration":149253,"Delta":140970969},{"NoteNumber":45,"Velocity":70,"Duration":149253,"SoundDuration":149253,"Delta":140970969},{"NoteNumber":71,"Velocity":74,"Duration":115384,"SoundDuration":115384,"Delta":141120223},{"NoteNumber":83,"Velocity":84,"Duration":115384,"SoundDuration":115384,"Delta":141120223},{"NoteNumber":47,"Velocity":74,"Duration":115384,"SoundDuration":115384,"Delta":141120223},{"NoteNumber":59,"Velocity":74,"Duration":115384,"SoundDuration":115384,"Delta":141120223},{"NoteNumber":69,"Velocity":70,"Duration":135467,"SoundDuration":135467,"Delta":141274069},{"NoteNumber":81,"Velocity":78,"Duration":135467,"SoundDuration":135467,"Delta":141274069},{"NoteNumber":45,"Velocity":70,"Duration":135467,"SoundDuration":135467,"Delta":141274069},{"NoteNumber":57,"Velocity":70,"Duration":135467,"SoundDuration":135467,"Delta":141274069},{"NoteNumber":74,"Velocity":54,"Duration":221674,"SoundDuration":221674,"Delta":141421852},{"NoteNumber":77,"Velocity":54,"Duration":221674,"SoundDuration":221674,"Delta":141421852},{"NoteNumber":71,"Velocity":70,"Duration":147783,"SoundDuration":147783,"Delta":141421852},{"NoteNumber":83,"Velocity":78,"Duration":147783,"SoundDuration":147783,"Delta":141421852},{"NoteNumber":50,"Velocity":54,"Duration":221674,"SoundDuration":221674,"Delta":141421852},{"NoteNumber":53,"Velocity":54,"Duration":221674,"SoundDuration":221674,"Delta":141421852},{"NoteNumber":47,"Velocity":70,"Duration":147783,"SoundDuration":147783,"Delta":141421852},{"NoteNumber":59,"Velocity":70,"Duration":147783,"SoundDuration":147783,"Delta":141421852},{"NoteNumber":67,"Velocity":70,"Duration":147783,"SoundDuration":147783,"Delta":141569636},{"NoteNumber":79,"Velocity":78,"Duration":147783,"SoundDuration":147783,"Delta":141569636},{"NoteNumber":43,"Velocity":70,"Duration":147783,"SoundDuration":147783,"Delta":141569636},{"NoteNumber":55,"Velocity":70,"Duration":147783,"SoundDuration":147783,"Delta":141569636},{"NoteNumber":75,"Velocity":60,"Duration":222815,"SoundDuration":222815,"Delta":141717419},{"NoteNumber":72,"Velocity":79,"Duration":125000,"SoundDuration":125000,"Delta":141717419},{"NoteNumber":84,"Velocity":88,"Duration":125000,"SoundDuration":125000,"Delta":141717419},{"NoteNumber":51,"Velocity":60,"Duration":222815,"SoundDuration":222815,"Delta":141717419},{"NoteNumber":48,"Velocity":79,"Duration":125000,"SoundDuration":125000,"Delta":141717419},{"NoteNumber":60,"Velocity":79,"Duration":125000,"SoundDuration":125000,"Delta":141717419},{"NoteNumber":71,"Velocity":69,"Duration":145631,"SoundDuration":145631,"Delta":141867419},{"NoteNumber":83,"Velocity":77,"Duration":145631,"SoundDuration":145631,"Delta":141867419},{"NoteNumber":47,"Velocity":69,"Duration":145631,"SoundDuration":145631,"Delta":141867419},{"NoteNumber":59,"Velocity":69,"Duration":145631,"SoundDuration":145631,"Delta":141867419},{"NoteNumber":79,"Velocity":60,"Duration":218446,"SoundDuration":218446,"Delta":142013050},{"NoteNumber":75,"Velocity":60,"Duration":218446,"SoundDuration":218446,"Delta":142013050},{"NoteNumber":72,"Velocity":70,"Duration":145630,"SoundDuration":145630,"Delta":142013050},{"NoteNumber":84,"Velocity":78,"Duration":145630,"SoundDuration":145630,"Delta":142013050},{"NoteNumber":55,"Velocity":60,"Duration":218446,"SoundDuration":218446,"Delta":142013050},{"NoteNumber":51,"Velocity":60,"Duration":218446,"SoundDuration":218446,"Delta":142013050},{"NoteNumber":48,"Velocity":70,"Duration":145630,"SoundDuration":145630,"Delta":142013050},{"NoteNumber":60,"Velocity":70,"Duration":145630,"SoundDuration":145630,"Delta":142013050},{"NoteNumber":74,"Velocity":72,"Duration":145631,"SoundDuration":145631,"Delta":142158681},{"NoteNumber":86,"Velocity":80,"Duration":145631,"SoundDuration":145631,"Delta":142158681},{"NoteNumber":50,"Velocity":72,"Duration":145631,"SoundDuration":145631,"Delta":142158681},{"NoteNumber":62,"Velocity":72,"Duration":145631,"SoundDuration":145631,"Delta":142158681},{"NoteNumber":84,"Velocity":63,"Duration":220754,"SoundDuration":220754,"Delta":142304312},{"NoteNumber":79,"Velocity":63,"Duration":220754,"SoundDuration":220754,"Delta":142304312},{"NoteNumber":75,"Velocity":81,"Duration":125000,"SoundDuration":125000,"Delta":142304312},{"NoteNumber":87,"Velocity":90,"Duration":125000,"SoundDuration":125000,"Delta":142304312},{"NoteNumber":60,"Velocity":63,"Duration":220754,"SoundDuration":220754,"Delta":142304312},{"NoteNumber":55,"Velocity":63,"Duration":220754,"SoundDuration":220754,"Delta":142304312},{"NoteNumber":51,"Velocity":81,"Duration":125000,"SoundDuration":125000,"Delta":142304312},{"NoteNumber":63,"Velocity":81,"Duration":125000,"SoundDuration":125000,"Delta":142304312},{"NoteNumber":74,"Velocity":70,"Duration":141509,"SoundDuration":141509,"Delta":142454312},{"NoteNumber":86,"Velocity":78,"Duration":141509,"SoundDuration":141509,"Delta":142454312},{"NoteNumber":50,"Velocity":70,"Duration":141509,"SoundDuration":141509,"Delta":142454312},{"NoteNumber":62,"Velocity":70,"Duration":141509,"SoundDuration":141509,"Delta":142454312},{"NoteNumber":80,"Velocity":63,"Duration":212264,"SoundDuration":212264,"Delta":142595821},{"NoteNumber":84,"Velocity":63,"Duration":212264,"SoundDuration":212264,"Delta":142595821},{"NoteNumber":75,"Velocity":72,"Duration":141509,"SoundDuration":141509,"Delta":142595821},{"NoteNumber":87,"Velocity":81,"Duration":141509,"SoundDuration":141509,"Delta":142595821},{"NoteNumber":56,"Velocity":63,"Duration":212264,"SoundDuration":212264,"Delta":142595821},{"NoteNumber":60,"Velocity":63,"Duration":212264,"SoundDuration":212264,"Delta":142595821},{"NoteNumber":51,"Velocity":72,"Duration":141509,"SoundDuration":141509,"Delta":142595821},{"NoteNumber":63,"Velocity":72,"Duration":141509,"SoundDuration":141509,"Delta":142595821},{"NoteNumber":77,"Velocity":73,"Duration":141509,"SoundDuration":141509,"Delta":142737331},{"NoteNumber":89,"Velocity":83,"Duration":141509,"SoundDuration":141509,"Delta":142737331},{"NoteNumber":53,"Velocity":73,"Duration":141509,"SoundDuration":141509,"Delta":142737331},{"NoteNumber":65,"Velocity":73,"Duration":141509,"SoundDuration":141509,"Delta":142737331},{"NoteNumber":83,"Velocity":81,"Duration":169491,"SoundDuration":169491,"Delta":142878840},{"NoteNumber":79,"Velocity":81,"Duration":169491,"SoundDuration":169491,"Delta":142878840},{"NoteNumber":91,"Velocity":89,"Duration":169491,"SoundDuration":169491,"Delta":142878840},{"NoteNumber":59,"Velocity":81,"Duration":169491,"SoundDuration":169491,"Delta":142878840},{"NoteNumber":55,"Velocity":81,"Duration":169491,"SoundDuration":169491,"Delta":142878840},{"NoteNumber":67,"Velocity":81,"Duration":169491,"SoundDuration":169491,"Delta":142878840},{"NoteNumber":59,"Velocity":69,"Duration":276073,"SoundDuration":276073,"Delta":143217823},{"NoteNumber":62,"Velocity":69,"Duration":276073,"SoundDuration":276073,"Delta":143217823},{"NoteNumber":67,"Velocity":77,"Duration":276073,"SoundDuration":276073,"Delta":143217823},{"NoteNumber":43,"Velocity":69,"Duration":276073,"SoundDuration":276073,"Delta":143217823},{"NoteNumber":50,"Velocity":69,"Duration":276073,"SoundDuration":276073,"Delta":143217823},{"NoteNumber":55,"Velocity":69,"Duration":276073,"SoundDuration":276073,"Delta":143217823},{"NoteNumber":91,"Velocity":85,"Duration":532581,"SoundDuration":532581,"Delta":143585921},{"NoteNumber":83,"Velocity":76,"Duration":532581,"SoundDuration":532581,"Delta":143585921},{"NoteNumber":86,"Velocity":76,"Duration":532581,"SoundDuration":532581,"Delta":143585921},{"NoteNumber":79,"Velocity":76,"Duration":532581,"SoundDuration":532581,"Delta":143585921},{"NoteNumber":67,"Velocity":80,"Duration":532581,"SoundDuration":532581,"Delta":143585921},{"NoteNumber":62,"Velocity":72,"Duration":532581,"SoundDuration":532581,"Delta":143585921},{"NoteNumber":59,"Velocity":72,"Duration":532581,"SoundDuration":532581,"Delta":143585921},{"NoteNumber":55,"Velocity":72,"Duration":532581,"SoundDuration":532581,"Delta":143585921},{"NoteNumber":79,"Velocity":73,"Duration":177514,"SoundDuration":177514,"Delta":144118503},{"NoteNumber":91,"Velocity":83,"Duration":177514,"SoundDuration":177514,"Delta":144118503},{"NoteNumber":43,"Velocity":64,"Duration":177514,"SoundDuration":177514,"Delta":144118503},{"NoteNumber":55,"Velocity":72,"Duration":177514,"SoundDuration":177514,"Delta":144118503},{"NoteNumber":86,"Velocity":77,"Duration":170454,"SoundDuration":170454,"Delta":144296018},{"NoteNumber":80,"Velocity":77,"Duration":170454,"SoundDuration":170454,"Delta":144296018},{"NoteNumber":92,"Velocity":86,"Duration":170454,"SoundDuration":170454,"Delta":144296018},{"NoteNumber":41,"Velocity":66,"Duration":170454,"SoundDuration":170454,"Delta":144296018},{"NoteNumber":47,"Velocity":66,"Duration":170454,"SoundDuration":170454,"Delta":144296018},{"NoteNumber":53,"Velocity":74,"Duration":170454,"SoundDuration":170454,"Delta":144296018},{"NoteNumber":91,"Velocity":83,"Duration":166666,"SoundDuration":166666,"Delta":144466472},{"NoteNumber":79,"Velocity":73,"Duration":166666,"SoundDuration":166666,"Delta":144466472},{"NoteNumber":40,"Velocity":64,"Duration":166666,"SoundDuration":166666,"Delta":144466472},{"NoteNumber":52,"Velocity":72,"Duration":166666,"SoundDuration":166666,"Delta":144466472},{"NoteNumber":86,"Velocity":77,"Duration":164835,"SoundDuration":164835,"Delta":144633139},{"NoteNumber":92,"Velocity":83,"Duration":164835,"SoundDuration":164835,"Delta":144633139},{"NoteNumber":80,"Velocity":73,"Duration":164835,"SoundDuration":164835,"Delta":144633139},{"NoteNumber":41,"Velocity":64,"Duration":164835,"SoundDuration":164835,"Delta":144633139},{"NoteNumber":47,"Velocity":64,"Duration":164835,"SoundDuration":164835,"Delta":144633139},{"NoteNumber":53,"Velocity":72,"Duration":164835,"SoundDuration":164835,"Delta":144633139},{"NoteNumber":86,"Velocity":83,"Duration":161290,"SoundDuration":161290,"Delta":144797974},{"NoteNumber":74,"Velocity":73,"Duration":161290,"SoundDuration":161290,"Delta":144797974},{"NoteNumber":47,"Velocity":64,"Duration":161290,"SoundDuration":161290,"Delta":144797974},{"NoteNumber":59,"Velocity":72,"Duration":161290,"SoundDuration":161290,"Delta":144797974},{"NoteNumber":79,"Velocity":77,"Duration":158730,"SoundDuration":158730,"Delta":144959264},{"NoteNumber":91,"Velocity":86,"Duration":158730,"SoundDuration":158730,"Delta":144959264},{"NoteNumber":39,"Velocity":66,"Duration":158730,"SoundDuration":158730,"Delta":144959264},{"NoteNumber":51,"Velocity":74,"Duration":158730,"SoundDuration":158730,"Delta":144959264},{"NoteNumber":78,"Velocity":73,"Duration":157068,"SoundDuration":157068,"Delta":145117995},{"NoteNumber":90,"Velocity":83,"Duration":157068,"SoundDuration":157068,"Delta":145117995},{"NoteNumber":38,"Velocity":64,"Duration":157068,"SoundDuration":157068,"Delta":145117995},{"NoteNumber":50,"Velocity":72,"Duration":157068,"SoundDuration":157068,"Delta":145117995},{"NoteNumber":84,"Velocity":73,"Duration":157067,"SoundDuration":157067,"Delta":145275063},{"NoteNumber":79,"Velocity":73,"Duration":157067,"SoundDuration":157067,"Delta":145275063},{"NoteNumber":91,"Velocity":83,"Duration":157067,"SoundDuration":157067,"Delta":145275063},{"NoteNumber":39,"Velocity":64,"Duration":157067,"SoundDuration":157067,"Delta":145275063},{"NoteNumber":48,"Velocity":72,"Duration":157067,"SoundDuration":157067,"Delta":145275063},{"NoteNumber":51,"Velocity":72,"Duration":157067,"SoundDuration":157067,"Delta":145275063},{"NoteNumber":84,"Velocity":83,"Duration":160427,"SoundDuration":160427,"Delta":145432131},{"NoteNumber":72,"Velocity":73,"Duration":160427,"SoundDuration":160427,"Delta":145432131},{"NoteNumber":44,"Velocity":64,"Duration":160427,"SoundDuration":160427,"Delta":145432131},{"NoteNumber":56,"Velocity":72,"Duration":160427,"SoundDuration":160427,"Delta":145432131},{"NoteNumber":84,"Velocity":77,"Duration":154639,"SoundDuration":154639,"Delta":145592558},{"NoteNumber":89,"Velocity":86,"Duration":154639,"SoundDuration":154639,"Delta":145592558},{"NoteNumber":77,"Velocity":77,"Duration":154639,"SoundDuration":154639,"Delta":145592558},{"NoteNumber":38,"Velocity":66,"Duration":154639,"SoundDuration":154639,"Delta":145592558},{"NoteNumber":44,"Velocity":66,"Duration":154639,"SoundDuration":154639,"Delta":145592558},{"NoteNumber":50,"Velocity":74,"Duration":154639,"SoundDuration":154639,"Delta":145592558},{"NoteNumber":76,"Velocity":74,"Duration":150753,"SoundDuration":150753,"Delta":145747198},{"NoteNumber":88,"Velocity":84,"Duration":150753,"SoundDuration":150753,"Delta":145747198},{"NoteNumber":37,"Velocity":64,"Duration":150753,"SoundDuration":150753,"Delta":145747198},{"NoteNumber":49,"Velocity":72,"Duration":150753,"SoundDuration":150753,"Delta":145747198},{"NoteNumber":83,"Velocity":74,"Duration":113065,"SoundDuration":113065,"Delta":145897951},{"NoteNumber":89,"Velocity":84,"Duration":113065,"SoundDuration":113065,"Delta":145897951},{"NoteNumber":77,"Velocity":74,"Duration":113065,"SoundDuration":113065,"Delta":145897951},{"NoteNumber":38,"Velocity":64,"Duration":113065,"SoundDuration":113065,"Delta":145897951},{"NoteNumber":43,"Velocity":64,"Duration":113065,"SoundDuration":113065,"Delta":145897951},{"NoteNumber":50,"Velocity":72,"Duration":113065,"SoundDuration":113065,"Delta":145897951},{"NoteNumber":71,"Velocity":74,"Duration":154639,"SoundDuration":154639,"Delta":146048705},{"NoteNumber":83,"Velocity":84,"Duration":154639,"SoundDuration":154639,"Delta":146048705},{"NoteNumber":43,"Velocity":64,"Duration":154639,"SoundDuration":154639,"Delta":146048705},{"NoteNumber":55,"Velocity":72,"Duration":154639,"SoundDuration":154639,"Delta":146048705},{"NoteNumber":87,"Velocity":86,"Duration":147783,"SoundDuration":147783,"Delta":146203344},{"NoteNumber":75,"Velocity":77,"Duration":147783,"SoundDuration":147783,"Delta":146203344},{"NoteNumber":36,"Velocity":66,"Duration":147783,"SoundDuration":147783,"Delta":146203344},{"NoteNumber":48,"Velocity":74,"Duration":147783,"SoundDuration":147783,"Delta":146203344},{"NoteNumber":86,"Velocity":83,"Duration":145396,"SoundDuration":145396,"Delta":146351128},{"NoteNumber":74,"Velocity":73,"Duration":145396,"SoundDuration":145396,"Delta":146351128},{"NoteNumber":35,"Velocity":64,"Duration":145396,"SoundDuration":145396,"Delta":146351128},{"NoteNumber":47,"Velocity":72,"Duration":145396,"SoundDuration":145396,"Delta":146351128},{"NoteNumber":79,"Velocity":73,"Duration":108405,"SoundDuration":108405,"Delta":146496524},{"NoteNumber":87,"Velocity":83,"Duration":108405,"SoundDuration":108405,"Delta":146496524},{"NoteNumber":75,"Velocity":73,"Duration":108405,"SoundDuration":108405,"Delta":146496524},{"NoteNumber":36,"Velocity":64,"Duration":108405,"SoundDuration":108405,"Delta":146496524},{"NoteNumber":43,"Velocity":64,"Duration":108405,"SoundDuration":108405,"Delta":146496524},{"NoteNumber":48,"Velocity":72,"Duration":108405,"SoundDuration":108405,"Delta":146496524},{"NoteNumber":84,"Velocity":83,"Duration":143312,"SoundDuration":143312,"Delta":146640987},{"NoteNumber":72,"Velocity":73,"Duration":143312,"SoundDuration":143312,"Delta":146640987},{"NoteNumber":39,"Velocity":64,"Duration":143312,"SoundDuration":143312,"Delta":146640987},{"NoteNumber":51,"Velocity":72,"Duration":143312,"SoundDuration":143312,"Delta":146640987},{"NoteNumber":74,"Velocity":77,"Duration":106860,"SoundDuration":106860,"Delta":146784300},{"NoteNumber":70,"Velocity":77,"Duration":106860,"SoundDuration":106860,"Delta":146784300},{"NoteNumber":82,"Velocity":86,"Duration":106860,"SoundDuration":106860,"Delta":146784300},{"NoteNumber":41,"Velocity":66,"Duration":283583,"SoundDuration":283583,"Delta":146784300},{"NoteNumber":53,"Velocity":74,"Duration":283583,"SoundDuration":283583,"Delta":146784300},{"NoteNumber":72,"Velocity":73,"Duration":105965,"SoundDuration":105965,"Delta":146926706},{"NoteNumber":68,"Velocity":73,"Duration":105965,"SoundDuration":105965,"Delta":146926706},{"NoteNumber":80,"Velocity":83,"Duration":105965,"SoundDuration":105965,"Delta":146926706},{"NoteNumber":67,"Velocity":73,"Duration":108538,"SoundDuration":108538,"Delta":147067883},{"NoteNumber":79,"Velocity":83,"Duration":108538,"SoundDuration":108538,"Delta":147067883},{"NoteNumber":51,"Velocity":64,"Duration":108538,"SoundDuration":108538,"Delta":147067883},{"NoteNumber":63,"Velocity":72,"Duration":108538,"SoundDuration":108538,"Delta":147067883},{"NoteNumber":65,"Velocity":73,"Duration":108538,"SoundDuration":108538,"Delta":147212601},{"NoteNumber":77,"Velocity":83,"Duration":108538,"SoundDuration":108538,"Delta":147212601},{"NoteNumber":50,"Velocity":64,"Duration":108538,"SoundDuration":108538,"Delta":147212601},{"NoteNumber":62,"Velocity":72,"Duration":108538,"SoundDuration":108538,"Delta":147212601},{"NoteNumber":63,"Velocity":78,"Duration":110089,"SoundDuration":110089,"Delta":147357319},{"NoteNumber":75,"Velocity":87,"Duration":110089,"SoundDuration":110089,"Delta":147357319},{"NoteNumber":48,"Velocity":67,"Duration":110089,"SoundDuration":110089,"Delta":147357319},{"NoteNumber":60,"Velocity":76,"Duration":110089,"SoundDuration":110089,"Delta":147357319},{"NoteNumber":79,"Velocity":83,"Duration":110089,"SoundDuration":110089,"Delta":147504104},{"NoteNumber":67,"Velocity":73,"Duration":110089,"SoundDuration":110089,"Delta":147504104},{"NoteNumber":43,"Velocity":64,"Duration":110089,"SoundDuration":110089,"Delta":147504104},{"NoteNumber":55,"Velocity":72,"Duration":110089,"SoundDuration":110089,"Delta":147504104},{"NoteNumber":71,"Velocity":83,"Duration":112176,"SoundDuration":112176,"Delta":147650890},{"NoteNumber":65,"Velocity":73,"Duration":112176,"SoundDuration":112176,"Delta":147650890},{"NoteNumber":77,"Velocity":83,"Duration":112176,"SoundDuration":112176,"Delta":147650890},{"NoteNumber":44,"Velocity":64,"Duration":112176,"SoundDuration":112176,"Delta":147650890},{"NoteNumber":56,"Velocity":72,"Duration":112176,"SoundDuration":112176,"Delta":147650890},{"NoteNumber":74,"Velocity":83,"Duration":127426,"SoundDuration":127426,"Delta":147800782},{"NoteNumber":62,"Velocity":73,"Duration":114582,"SoundDuration":114582,"Delta":147800782},{"NoteNumber":43,"Velocity":64,"Duration":127426,"SoundDuration":127426,"Delta":147800782},{"NoteNumber":55,"Velocity":72,"Duration":127426,"SoundDuration":127426,"Delta":147800782},{"NoteNumber":71,"Velocity":83,"Duration":155440,"SoundDuration":155440,"Delta":147953368},{"NoteNumber":59,"Velocity":73,"Duration":155440,"SoundDuration":155440,"Delta":147953368},{"NoteNumber":35,"Velocity":64,"Duration":155440,"SoundDuration":155440,"Delta":147953368},{"NoteNumber":47,"Velocity":72,"Duration":155440,"SoundDuration":155440,"Delta":147953368},{"NoteNumber":72,"Velocity":82,"Duration":120967,"SoundDuration":120967,"Delta":148108809},{"NoteNumber":60,"Velocity":73,"Duration":120967,"SoundDuration":120967,"Delta":148108809},{"NoteNumber":36,"Velocity":63,"Duration":120967,"SoundDuration":120967,"Delta":148108809},{"NoteNumber":48,"Velocity":71,"Duration":120967,"SoundDuration":120967,"Delta":148108809},{"NoteNumber":72,"Velocity":81,"Duration":237894,"SoundDuration":237894,"Delta":148270099},{"NoteNumber":79,"Velocity":81,"Duration":237894,"SoundDuration":237894,"Delta":148270099},{"NoteNumber":75,"Velocity":81,"Duration":237894,"SoundDuration":237894,"Delta":148270099},{"NoteNumber":84,"Velocity":90,"Duration":237894,"SoundDuration":237894,"Delta":148270099},{"NoteNumber":48,"Velocity":70,"Duration":237894,"SoundDuration":237894,"Delta":148270099},{"NoteNumber":51,"Velocity":70,"Duration":237894,"SoundDuration":237894,"Delta":148270099},{"NoteNumber":55,"Velocity":70,"Duration":237894,"SoundDuration":237894,"Delta":148270099},{"NoteNumber":60,"Velocity":78,"Duration":237894,"SoundDuration":237894,"Delta":148270099},{"NoteNumber":63,"Velocity":78,"Duration":74999,"SoundDuration":74999,"Delta":149112291},{"NoteNumber":63,"Velocity":82,"Duration":1100918,"SoundDuration":1100918,"Delta":149187291},{"NoteNumber":71,"Velocity":78,"Duration":270270,"SoundDuration":270270,"Delta":150288209},{"NoteNumber":59,"Velocity":70,"Duration":270270,"SoundDuration":270270,"Delta":150288209},{"NoteNumber":35,"Velocity":69,"Duration":270270,"SoundDuration":270270,"Delta":150288209},{"NoteNumber":47,"Velocity":77,"Duration":270270,"SoundDuration":270270,"Delta":150288209},{"NoteNumber":72,"Velocity":72,"Duration":208333,"SoundDuration":208333,"Delta":150558479},{"NoteNumber":60,"Velocity":64,"Duration":208333,"SoundDuration":208333,"Delta":150558479},{"NoteNumber":36,"Velocity":63,"Duration":208333,"SoundDuration":208333,"Delta":150558479},{"NoteNumber":48,"Velocity":71,"Duration":208333,"SoundDuration":208333,"Delta":150558479},{"NoteNumber":80,"Velocity":55,"Duration":237894,"SoundDuration":237894,"Delta":150836257},{"NoteNumber":78,"Velocity":55,"Duration":237894,"SoundDuration":237894,"Delta":150836257},{"NoteNumber":75,"Velocity":55,"Duration":237894,"SoundDuration":237894,"Delta":150836257},{"NoteNumber":87,"Velocity":62,"Duration":237894,"SoundDuration":237894,"Delta":150836257},{"NoteNumber":56,"Velocity":55,"Duration":237894,"SoundDuration":237894,"Delta":150836257},{"NoteNumber":48,"Velocity":55,"Duration":237894,"SoundDuration":237894,"Delta":150836257},{"NoteNumber":54,"Velocity":55,"Duration":237894,"SoundDuration":237894,"Delta":150836257},{"NoteNumber":63,"Velocity":63,"Duration":237894,"SoundDuration":237894,"Delta":150836257},{"NoteNumber":68,"Velocity":60,"Duration":74999,"SoundDuration":74999,"Delta":151708535},{"NoteNumber":66,"Velocity":54,"Duration":74999,"SoundDuration":74999,"Delta":151708535},{"NoteNumber":60,"Velocity":54,"Duration":74999,"SoundDuration":74999,"Delta":151708535},{"NoteNumber":63,"Velocity":56,"Duration":74999,"SoundDuration":74999,"Delta":151708535},{"NoteNumber":68,"Velocity":67,"Duration":1061946,"SoundDuration":1061946,"Delta":151783535},{"NoteNumber":60,"Velocity":60,"Duration":1061946,"SoundDuration":1061946,"Delta":151783535},{"NoteNumber":66,"Velocity":60,"Duration":1061946,"SoundDuration":1061946,"Delta":151783535},{"NoteNumber":63,"Velocity":62,"Duration":1061946,"SoundDuration":1061946,"Delta":151783535},{"NoteNumber":63,"Velocity":45,"Duration":690590,"SoundDuration":690590,"Delta":152845481},{"NoteNumber":66,"Velocity":45,"Duration":690590,"SoundDuration":690590,"Delta":152845481},{"NoteNumber":69,"Velocity":50,"Duration":690590,"SoundDuration":690590,"Delta":152845481},{"NoteNumber":35,"Velocity":54,"Duration":87719,"SoundDuration":87719,"Delta":152845481},{"NoteNumber":47,"Velocity":60,"Duration":87719,"SoundDuration":87719,"Delta":152845481},{"NoteNumber":36,"Velocity":51,"Duration":90909,"SoundDuration":90909,"Delta":153020920},{"NoteNumber":48,"Velocity":57,"Duration":90909,"SoundDuration":90909,"Delta":153020920},{"NoteNumber":42,"Velocity":46,"Duration":250000,"SoundDuration":250000,"Delta":153202738},{"NoteNumber":54,"Velocity":53,"Duration":250000,"SoundDuration":250000,"Delta":153202738},{"NoteNumber":71,"Velocity":51,"Duration":94339,"SoundDuration":94339,"Delta":153536071},{"NoteNumber":83,"Velocity":57,"Duration":94339,"SoundDuration":94339,"Delta":153536071},{"NoteNumber":69,"Velocity":51,"Duration":716249,"SoundDuration":716249,"Delta":153536071},{"NoteNumber":66,"Velocity":45,"Duration":716249,"SoundDuration":716249,"Delta":153536071},{"NoteNumber":63,"Velocity":45,"Duration":716249,"SoundDuration":716249,"Delta":153536071},{"NoteNumber":72,"Velocity":48,"Duration":98039,"SoundDuration":98039,"Delta":153724751},{"NoteNumber":84,"Velocity":54,"Duration":98039,"SoundDuration":98039,"Delta":153724751},{"NoteNumber":78,"Velocity":46,"Duration":248618,"SoundDuration":248618,"Delta":153920829},{"NoteNumber":90,"Velocity":53,"Duration":248618,"SoundDuration":248618,"Delta":153920829},{"NoteNumber":76,"Velocity":48,"Duration":97402,"SoundDuration":97402,"Delta":154252321},{"NoteNumber":88,"Velocity":54,"Duration":97402,"SoundDuration":97402,"Delta":154252321},{"NoteNumber":62,"Velocity":44,"Duration":784506,"SoundDuration":784506,"Delta":154252321},{"NoteNumber":65,"Velocity":44,"Duration":784506,"SoundDuration":784506,"Delta":154252321},{"NoteNumber":69,"Velocity":49,"Duration":784506,"SoundDuration":784506,"Delta":154252321},{"NoteNumber":77,"Velocity":45,"Duration":116279,"SoundDuration":116279,"Delta":154447126},{"NoteNumber":89,"Velocity":50,"Duration":116279,"SoundDuration":116279,"Delta":154447126},{"NoteNumber":101,"Velocity":49,"Duration":267857,"SoundDuration":267857,"Delta":154679684},{"NoteNumber":89,"Velocity":44,"Duration":267857,"SoundDuration":267857,"Delta":154679684},{"NoteNumber":60,"Velocity":41,"Duration":1332879,"SoundDuration":1332879,"Delta":155036827},{"NoteNumber":63,"Velocity":41,"Duration":1332879,"SoundDuration":1332879,"Delta":155036827},{"NoteNumber":69,"Velocity":52,"Duration":1332879,"SoundDuration":1332879,"Delta":155036827},{"NoteNumber":40,"Velocity":45,"Duration":127118,"SoundDuration":127118,"Delta":155036827},{"NoteNumber":52,"Velocity":58,"Duration":127118,"SoundDuration":127118,"Delta":155036827},{"NoteNumber":41,"Velocity":45,"Duration":239361,"SoundDuration":239361,"Delta":155291064},{"NoteNumber":53,"Velocity":57,"Duration":239361,"SoundDuration":239361,"Delta":155291064},{"NoteNumber":65,"Velocity":53,"Duration":759493,"SoundDuration":759493,"Delta":155610213},{"NoteNumber":53,"Velocity":42,"Duration":759493,"SoundDuration":759493,"Delta":155610213},{"NoteNumber":58,"Velocity":42,"Duration":1780412,"SoundDuration":1780412,"Delta":156369707},{"NoteNumber":62,"Velocity":42,"Duration":1780412,"SoundDuration":1780412,"Delta":156369707},{"NoteNumber":70,"Velocity":53,"Duration":1780412,"SoundDuration":1780412,"Delta":156369707},{"NoteNumber":34,"Velocity":48,"Duration":441305,"SoundDuration":441305,"Delta":157567517},{"NoteNumber":46,"Velocity":54,"Duration":441305,"SoundDuration":441305,"Delta":157567517},{"NoteNumber":41,"Velocity":46,"Duration":288398,"SoundDuration":288398,"Delta":157861721},{"NoteNumber":44,"Velocity":46,"Duration":288398,"SoundDuration":288398,"Delta":157861721},{"NoteNumber":34,"Velocity":48,"Duration":105972,"SoundDuration":105972,"Delta":158008823},{"NoteNumber":46,"Velocity":48,"Duration":105972,"SoundDuration":105972,"Delta":158008823},{"NoteNumber":34,"Velocity":45,"Duration":70648,"SoundDuration":70648,"Delta":158150119},{"NoteNumber":46,"Velocity":50,"Duration":70648,"SoundDuration":70648,"Delta":158150119},{"NoteNumber":33,"Velocity":45,"Duration":68618,"SoundDuration":68618,"Delta":158291416},{"NoteNumber":45,"Velocity":52,"Duration":68618,"SoundDuration":68618,"Delta":158291416},{"NoteNumber":34,"Velocity":45,"Duration":68618,"SoundDuration":68618,"Delta":158428653},{"NoteNumber":46,"Velocity":52,"Duration":68618,"SoundDuration":68618,"Delta":158428653},{"NoteNumber":38,"Velocity":46,"Duration":68618,"SoundDuration":68618,"Delta":158565890},{"NoteNumber":50,"Velocity":53,"Duration":68618,"SoundDuration":68618,"Delta":158565890},{"NoteNumber":41,"Velocity":49,"Duration":70303,"SoundDuration":70303,"Delta":158703127},{"NoteNumber":53,"Velocity":55,"Duration":70303,"SoundDuration":70303,"Delta":158703127},{"NoteNumber":46,"Velocity":51,"Duration":71002,"SoundDuration":71002,"Delta":158843734},{"NoteNumber":58,"Velocity":57,"Duration":71002,"SoundDuration":71002,"Delta":158843734},{"NoteNumber":50,"Velocity":51,"Duration":72066,"SoundDuration":72066,"Delta":158985739},{"NoteNumber":62,"Velocity":57,"Duration":72066,"SoundDuration":72066,"Delta":158985739},{"NoteNumber":53,"Velocity":52,"Duration":72801,"SoundDuration":72801,"Delta":159130242},{"NoteNumber":65,"Velocity":58,"Duration":72801,"SoundDuration":72801,"Delta":159130242},{"NoteNumber":68,"Velocity":60,"Duration":71089,"SoundDuration":71089,"Delta":159274779},{"NoteNumber":56,"Velocity":54,"Duration":71089,"SoundDuration":71089,"Delta":159274779},{"NoteNumber":53,"Velocity":51,"Duration":73891,"SoundDuration":73891,"Delta":159416959},{"NoteNumber":65,"Velocity":57,"Duration":73891,"SoundDuration":73891,"Delta":159416959},{"NoteNumber":50,"Velocity":44,"Duration":161290,"SoundDuration":161290,"Delta":159564742},{"NoteNumber":62,"Velocity":49,"Duration":161290,"SoundDuration":161290,"Delta":159564742},{"NoteNumber":58,"Velocity":45,"Duration":441305,"SoundDuration":441305,"Delta":159887323},{"NoteNumber":70,"Velocity":52,"Duration":441305,"SoundDuration":441305,"Delta":159887323},{"NoteNumber":62,"Velocity":45,"Duration":288398,"SoundDuration":288398,"Delta":160181527},{"NoteNumber":65,"Velocity":45,"Duration":288398,"SoundDuration":288398,"Delta":160181527},{"NoteNumber":68,"Velocity":45,"Duration":288398,"SoundDuration":288398,"Delta":160181527},{"NoteNumber":58,"Velocity":41,"Duration":105972,"SoundDuration":105972,"Delta":160328629},{"NoteNumber":70,"Velocity":45,"Duration":105972,"SoundDuration":105972,"Delta":160328629},{"NoteNumber":58,"Velocity":43,"Duration":70648,"SoundDuration":70648,"Delta":160469925},{"NoteNumber":70,"Velocity":48,"Duration":70648,"SoundDuration":70648,"Delta":160469925},{"NoteNumber":57,"Velocity":45,"Duration":68618,"SoundDuration":68618,"Delta":160611221},{"NoteNumber":69,"Velocity":50,"Duration":68618,"SoundDuration":68618,"Delta":160611221},{"NoteNumber":58,"Velocity":45,"Duration":68618,"SoundDuration":68618,"Delta":160748458},{"NoteNumber":70,"Velocity":51,"Duration":68618,"SoundDuration":68618,"Delta":160748458},{"NoteNumber":62,"Velocity":45,"Duration":68618,"SoundDuration":68618,"Delta":160885695},{"NoteNumber":74,"Velocity":51,"Duration":68618,"SoundDuration":68618,"Delta":160885695},{"NoteNumber":65,"Velocity":46,"Duration":70303,"SoundDuration":70303,"Delta":161022932},{"NoteNumber":77,"Velocity":53,"Duration":70303,"SoundDuration":70303,"Delta":161022932},{"NoteNumber":70,"Velocity":49,"Duration":71002,"SoundDuration":71002,"Delta":161163540},{"NoteNumber":82,"Velocity":55,"Duration":71002,"SoundDuration":71002,"Delta":161163540},{"NoteNumber":74,"Velocity":49,"Duration":72066,"SoundDuration":72066,"Delta":161305545},{"NoteNumber":86,"Velocity":55,"Duration":72066,"SoundDuration":72066,"Delta":161305545},{"NoteNumber":77,"Velocity":50,"Duration":72801,"SoundDuration":72801,"Delta":161450047},{"NoteNumber":89,"Velocity":56,"Duration":72801,"SoundDuration":72801,"Delta":161450047},{"NoteNumber":92,"Velocity":58,"Duration":69444,"SoundDuration":69444,"Delta":161594584},{"NoteNumber":80,"Velocity":52,"Duration":69444,"SoundDuration":69444,"Delta":161594584},{"NoteNumber":77,"Velocity":49,"Duration":73891,"SoundDuration":73891,"Delta":161733473},{"NoteNumber":89,"Velocity":55,"Duration":73891,"SoundDuration":73891,"Delta":161733473},{"NoteNumber":74,"Velocity":42,"Duration":158730,"SoundDuration":158730,"Delta":161881256},{"NoteNumber":86,"Velocity":46,"Duration":158730,"SoundDuration":158730,"Delta":161881256},{"NoteNumber":68,"Velocity":38,"Duration":79365,"SoundDuration":79365,"Delta":161960621},{"NoteNumber":62,"Velocity":39,"Duration":79365,"SoundDuration":79365,"Delta":162039987},{"NoteNumber":53,"Velocity":42,"Duration":79365,"SoundDuration":79365,"Delta":162119352},{"NoteNumber":46,"Velocity":44,"Duration":294117,"SoundDuration":294117,"Delta":162198717},{"NoteNumber":92,"Velocity":48,"Duration":69444,"SoundDuration":69444,"Delta":162786952},{"NoteNumber":80,"Velocity":43,"Duration":69444,"SoundDuration":69444,"Delta":162786952},{"NoteNumber":77,"Velocity":38,"Duration":73891,"SoundDuration":73891,"Delta":162925841},{"NoteNumber":89,"Velocity":44,"Duration":73891,"SoundDuration":73891,"Delta":162925841},{"NoteNumber":71,"Velocity":35,"Duration":158730,"SoundDuration":158730,"Delta":163073624},{"NoteNumber":83,"Velocity":38,"Duration":158730,"SoundDuration":158730,"Delta":163073624},{"NoteNumber":56,"Velocity":35,"Duration":79365,"SoundDuration":79365,"Delta":163152989},{"NoteNumber":53,"Velocity":36,"Duration":79365,"SoundDuration":79365,"Delta":163232354},{"NoteNumber":47,"Velocity":38,"Duration":79365,"SoundDuration":79365,"Delta":163311719},{"NoteNumber":39,"Velocity":39,"Duration":294117,"SoundDuration":294117,"Delta":163391085},{"NoteNumber":92,"Velocity":36,"Duration":69124,"SoundDuration":69124,"Delta":163979320},{"NoteNumber":89,"Velocity":36,"Duration":69124,"SoundDuration":69124,"Delta":164048444},{"NoteNumber":83,"Velocity":36,"Duration":69124,"SoundDuration":69124,"Delta":164117568},{"NoteNumber":82,"Velocity":36,"Duration":69124,"SoundDuration":69124,"Delta":164186693},{"NoteNumber":80,"Velocity":36,"Duration":69124,"SoundDuration":69124,"Delta":164255817},{"NoteNumber":77,"Velocity":36,"Duration":69124,"SoundDuration":69124,"Delta":164324941},{"NoteNumber":71,"Velocity":36,"Duration":69124,"SoundDuration":69124,"Delta":164394066},{"NoteNumber":70,"Velocity":36,"Duration":69124,"SoundDuration":69124,"Delta":164463190},{"NoteNumber":68,"Velocity":36,"Duration":69124,"SoundDuration":69124,"Delta":164532315},{"NoteNumber":65,"Velocity":36,"Duration":69124,"SoundDuration":69124,"Delta":164601439},{"NoteNumber":59,"Velocity":36,"Duration":69124,"SoundDuration":69124,"Delta":164670563},{"NoteNumber":58,"Velocity":36,"Duration":69124,"SoundDuration":69124,"Delta":164739688},{"NoteNumber":56,"Velocity":36,"Duration":69124,"SoundDuration":69124,"Delta":164808812},{"NoteNumber":53,"Velocity":36,"Duration":69552,"SoundDuration":69552,"Delta":164877936},{"NoteNumber":47,"Velocity":36,"Duration":69876,"SoundDuration":69876,"Delta":164947489},{"NoteNumber":46,"Velocity":36,"Duration":70312,"SoundDuration":70312,"Delta":165017365},{"NoteNumber":38,"Velocity":36,"Duration":157068,"SoundDuration":157068,"Delta":165087678},{"NoteNumber":62,"Velocity":31,"Duration":513096,"SoundDuration":513096,"Delta":165679074},{"NoteNumber":69,"Velocity":32,"Duration":489058,"SoundDuration":489058,"Delta":165703112},{"NoteNumber":72,"Velocity":33,"Duration":465019,"SoundDuration":465019,"Delta":165727151},{"NoteNumber":78,"Velocity":35,"Duration":440981,"SoundDuration":440981,"Delta":165751189},{"NoteNumber":81,"Velocity":36,"Duration":416942,"SoundDuration":416942,"Delta":165775228},{"NoteNumber":84,"Velocity":36,"Duration":392904,"SoundDuration":392904,"Delta":165799266},{"NoteNumber":90,"Velocity":37,"Duration":368865,"SoundDuration":368865,"Delta":165823305},{"NoteNumber":93,"Velocity":38,"Duration":344827,"SoundDuration":344827,"Delta":165847343},{"NoteNumber":58,"Velocity":32,"Duration":525068,"SoundDuration":525068,"Delta":166554458},{"NoteNumber":65,"Velocity":33,"Duration":493423,"SoundDuration":493423,"Delta":166586103},{"NoteNumber":68,"Velocity":35,"Duration":461777,"SoundDuration":461777,"Delta":166617749},{"NoteNumber":74,"Velocity":36,"Duration":430132,"SoundDuration":430132,"Delta":166649394},{"NoteNumber":80,"Velocity":36,"Duration":398486,"SoundDuration":398486,"Delta":166681040},{"NoteNumber":86,"Velocity":37,"Duration":366841,"SoundDuration":366841,"Delta":166712686},{"NoteNumber":94,"Velocity":38,"Duration":335195,"SoundDuration":335195,"Delta":166744331},{"NoteNumber":58,"Velocity":30,"Duration":90058,"SoundDuration":90058,"Delta":167330923},{"NoteNumber":58,"Velocity":32,"Duration":104147,"SoundDuration":104147,"Delta":167420982},{"NoteNumber":59,"Velocity":31,"Duration":102026,"SoundDuration":102026,"Delta":167490603},{"NoteNumber":58,"Velocity":33,"Duration":100575,"SoundDuration":100575,"Delta":167559094},{"NoteNumber":59,"Velocity":31,"Duration":105056,"SoundDuration":105056,"Delta":167625635},{"NoteNumber":58,"Velocity":33,"Duration":101186,"SoundDuration":101186,"Delta":167695636},{"NoteNumber":59,"Velocity":32,"Duration":98244,"SoundDuration":98244,"Delta":167764074},{"NoteNumber":58,"Velocity":35,"Duration":100176,"SoundDuration":100176,"Delta":167829570},{"NoteNumber":59,"Velocity":32,"Duration":102249,"SoundDuration":102249,"Delta":167895664},{"NoteNumber":58,"Velocity":35,"Duration":102249,"SoundDuration":102249,"Delta":167963830},{"NoteNumber":59,"Velocity":32,"Duration":101743,"SoundDuration":101743,"Delta":168031996},{"NoteNumber":58,"Velocity":36,"Duration":99401,"SoundDuration":99401,"Delta":168100163},{"NoteNumber":59,"Velocity":33,"Duration":97776,"SoundDuration":97776,"Delta":168166707},{"NoteNumber":58,"Velocity":36,"Duration":95970,"SoundDuration":95970,"Delta":168232166},{"NoteNumber":59,"Velocity":33,"Duration":93890,"SoundDuration":93890,"Delta":168296413},{"NoteNumber":58,"Velocity":36,"Duration":92228,"SoundDuration":92228,"Delta":168359518},{"NoteNumber":59,"Velocity":33,"Duration":93596,"SoundDuration":93596,"Delta":168420993},{"NoteNumber":58,"Velocity":36,"Duration":95577,"SoundDuration":95577,"Delta":168482730},{"NoteNumber":59,"Velocity":32,"Duration":95036,"SoundDuration":95036,"Delta":168546449},{"NoteNumber":58,"Velocity":36,"Duration":69705,"SoundDuration":69705,"Delta":168610167},{"NoteNumber":59,"Velocity":32,"Duration":68323,"SoundDuration":68323,"Delta":168656895},{"NoteNumber":58,"Velocity":35,"Duration":89573,"SoundDuration":89573,"Delta":168702644},{"NoteNumber":57,"Velocity":32,"Duration":128457,"SoundDuration":128457,"Delta":168792217},{"NoteNumber":58,"Velocity":32,"Duration":98788,"SoundDuration":98788,"Delta":168887745},{"NoteNumber":59,"Velocity":36,"Duration":95514,"SoundDuration":95514,"Delta":168986534},{"NoteNumber":60,"Velocity":35,"Duration":93774,"SoundDuration":93774,"Delta":169050490},{"NoteNumber":59,"Velocity":36,"Duration":94518,"SoundDuration":94518,"Delta":169113216},{"NoteNumber":60,"Velocity":35,"Duration":94600,"SoundDuration":94600,"Delta":169175770},{"NoteNumber":59,"Velocity":36,"Duration":91455,"SoundDuration":91455,"Delta":169239321},{"NoteNumber":60,"Velocity":35,"Duration":89180,"SoundDuration":89180,"Delta":169300839},{"NoteNumber":59,"Velocity":36,"Duration":66615,"SoundDuration":66615,"Delta":169360413},{"NoteNumber":60,"Velocity":35,"Duration":67036,"SoundDuration":67036,"Delta":169404823},{"NoteNumber":59,"Velocity":37,"Duration":92387,"SoundDuration":92387,"Delta":169449233},{"NoteNumber":58,"Velocity":36,"Duration":133258,"SoundDuration":133258,"Delta":169541621},{"NoteNumber":59,"Velocity":36,"Duration":101424,"SoundDuration":101424,"Delta":169640796},{"NoteNumber":60,"Velocity":39,"Duration":95377,"SoundDuration":95377,"Delta":169742221},{"NoteNumber":61,"Velocity":36,"Duration":91890,"SoundDuration":91890,"Delta":169806149},{"NoteNumber":60,"Velocity":39,"Duration":89390,"SoundDuration":89390,"Delta":169868041},{"NoteNumber":61,"Velocity":36,"Duration":88940,"SoundDuration":88940,"Delta":169927825},{"NoteNumber":60,"Velocity":39,"Duration":90898,"SoundDuration":90898,"Delta":169987038},{"NoteNumber":61,"Velocity":36,"Duration":93052,"SoundDuration":93052,"Delta":170046919},{"NoteNumber":60,"Velocity":39,"Duration":69746,"SoundDuration":69746,"Delta":170108954},{"NoteNumber":61,"Velocity":36,"Duration":68867,"SoundDuration":68867,"Delta":170155480},{"NoteNumber":60,"Velocity":41,"Duration":89016,"SoundDuration":89016,"Delta":170201710},{"NoteNumber":59,"Velocity":37,"Duration":119445,"SoundDuration":119445,"Delta":170290726},{"NoteNumber":60,"Velocity":37,"Duration":97166,"SoundDuration":97166,"Delta":170377606},{"NoteNumber":61,"Velocity":41,"Duration":94118,"SoundDuration":94118,"Delta":170474773},{"NoteNumber":62,"Velocity":37,"Duration":89739,"SoundDuration":89739,"Delta":170538218},{"NoteNumber":61,"Velocity":42,"Duration":90211,"SoundDuration":90211,"Delta":170598559},{"NoteNumber":62,"Velocity":37,"Duration":94755,"SoundDuration":94755,"Delta":170657386},{"NoteNumber":61,"Velocity":43,"Duration":94184,"SoundDuration":94184,"Delta":170720456},{"NoteNumber":62,"Velocity":38,"Duration":89905,"SoundDuration":89905,"Delta":170783827},{"NoteNumber":61,"Velocity":44,"Duration":66352,"SoundDuration":66352,"Delta":170844276},{"NoteNumber":62,"Velocity":39,"Duration":67804,"SoundDuration":67804,"Delta":170888461},{"NoteNumber":61,"Velocity":44,"Duration":70084,"SoundDuration":70084,"Delta":170933066},{"NoteNumber":62,"Velocity":39,"Duration":70617,"SoundDuration":70617,"Delta":170979703},{"NoteNumber":61,"Velocity":44,"Duration":70963,"SoundDuration":70963,"Delta":171026735},{"NoteNumber":62,"Velocity":41,"Duration":71313,"SoundDuration":71313,"Delta":171073965},{"NoteNumber":61,"Velocity":45,"Duration":71886,"SoundDuration":71886,"Delta":171121433},{"NoteNumber":62,"Velocity":41,"Duration":72066,"SoundDuration":72066,"Delta":171169164},{"NoteNumber":61,"Velocity":45,"Duration":92944,"SoundDuration":92944,"Delta":171217792},{"NoteNumber":62,"Velocity":41,"Duration":90555,"SoundDuration":90555,"Delta":171280137},{"NoteNumber":61,"Velocity":45,"Duration":89609,"SoundDuration":89609,"Delta":171340931},{"NoteNumber":62,"Velocity":39,"Duration":91819,"SoundDuration":91819,"Delta":171400455},{"NoteNumber":61,"Velocity":45,"Duration":93016,"SoundDuration":93016,"Delta":171461141},{"NoteNumber":62,"Velocity":39,"Duration":91543,"SoundDuration":91543,"Delta":171523369},{"NoteNumber":61,"Velocity":44,"Duration":67691,"SoundDuration":67691,"Delta":171584682},{"NoteNumber":62,"Velocity":38,"Duration":67063,"SoundDuration":67063,"Delta":171629919},{"NoteNumber":61,"Velocity":43,"Duration":66603,"SoundDuration":66603,"Delta":171674758},{"NoteNumber":62,"Velocity":37,"Duration":66568,"SoundDuration":66568,"Delta":171719171},{"NoteNumber":61,"Velocity":41,"Duration":66568,"SoundDuration":66568,"Delta":171763550},{"NoteNumber":62,"Velocity":37,"Duration":67271,"SoundDuration":67271,"Delta":171807929},{"NoteNumber":61,"Velocity":41,"Duration":69818,"SoundDuration":69818,"Delta":171852307},{"NoteNumber":62,"Velocity":36,"Duration":71635,"SoundDuration":71635,"Delta":171898541},{"NoteNumber":61,"Velocity":41,"Duration":98570,"SoundDuration":98570,"Delta":171946012},{"NoteNumber":62,"Velocity":36,"Duration":99337,"SoundDuration":99337,"Delta":172011469},{"NoteNumber":61,"Velocity":38,"Duration":99337,"SoundDuration":99337,"Delta":172077695},{"NoteNumber":62,"Velocity":35,"Duration":99119,"SoundDuration":99119,"Delta":172143920},{"NoteNumber":61,"Velocity":36,"Duration":98001,"SoundDuration":98001,"Delta":172210145},{"NoteNumber":62,"Velocity":33,"Duration":108889,"SoundDuration":108889,"Delta":172275762},{"NoteNumber":61,"Velocity":36,"Duration":99557,"SoundDuration":99557,"Delta":172340404},{"NoteNumber":62,"Velocity":32,"Duration":99557,"SoundDuration":99557,"Delta":172406776},{"NoteNumber":61,"Velocity":33,"Duration":129603,"SoundDuration":129603,"Delta":172473148},{"NoteNumber":60,"Velocity":29,"Duration":268101,"SoundDuration":268101,"Delta":172602751},{"NoteNumber":61,"Velocity":26,"Duration":312500,"SoundDuration":312500,"Delta":172870852},{"NoteNumber":62,"Velocity":24,"Duration":625000,"SoundDuration":625000,"Delta":173183352},{"NoteNumber":81,"Velocity":41,"Duration":60937,"SoundDuration":60937,"Delta":175719066},{"NoteNumber":82,"Velocity":36,"Duration":60937,"SoundDuration":60937,"Delta":175787816},{"NoteNumber":87,"Velocity":38,"Duration":60355,"SoundDuration":60355,"Delta":175856566},{"NoteNumber":84,"Velocity":36,"Duration":57692,"SoundDuration":57692,"Delta":175924318},{"NoteNumber":82,"Velocity":36,"Duration":57692,"SoundDuration":57692,"Delta":175989407},{"NoteNumber":80,"Velocity":36,"Duration":57692,"SoundDuration":57692,"Delta":176054495},{"NoteNumber":79,"Velocity":33,"Duration":57692,"SoundDuration":57692,"Delta":176119584},{"NoteNumber":77,"Velocity":37,"Duration":57692,"SoundDuration":57692,"Delta":176184673},{"NoteNumber":75,"Velocity":37,"Duration":57692,"SoundDuration":57692,"Delta":176249762},{"NoteNumber":74,"Velocity":36,"Duration":57692,"SoundDuration":57692,"Delta":176314850},{"NoteNumber":72,"Velocity":36,"Duration":51775,"SoundDuration":51775,"Delta":176379939},{"NoteNumber":70,"Velocity":41,"Duration":197368,"SoundDuration":197368,"Delta":176439111},{"NoteNumber":55,"Velocity":27,"Duration":208333,"SoundDuration":208333,"Delta":176965427},{"NoteNumber":58,"Velocity":27,"Duration":208333,"SoundDuration":208333,"Delta":176965427},{"NoteNumber":63,"Velocity":30,"Duration":208333,"SoundDuration":208333,"Delta":176965427},{"NoteNumber":39,"Velocity":27,"Duration":208333,"SoundDuration":208333,"Delta":176965427},{"NoteNumber":46,"Velocity":27,"Duration":208333,"SoundDuration":208333,"Delta":176965427},{"NoteNumber":56,"Velocity":28,"Duration":214285,"SoundDuration":214285,"Delta":177520982},{"NoteNumber":58,"Velocity":28,"Duration":214285,"SoundDuration":214285,"Delta":177520982},{"NoteNumber":65,"Velocity":32,"Duration":214285,"SoundDuration":214285,"Delta":177520982},{"NoteNumber":39,"Velocity":27,"Duration":214285,"SoundDuration":214285,"Delta":177520982},{"NoteNumber":46,"Velocity":27,"Duration":214285,"SoundDuration":214285,"Delta":177520982},{"NoteNumber":57,"Velocity":27,"Duration":224999,"SoundDuration":224999,"Delta":178092411},{"NoteNumber":58,"Velocity":27,"Duration":224999,"SoundDuration":224999,"Delta":178092411},{"NoteNumber":66,"Velocity":31,"Duration":224999,"SoundDuration":224999,"Delta":178092411},{"NoteNumber":39,"Velocity":27,"Duration":224999,"SoundDuration":224999,"Delta":178092411},{"NoteNumber":46,"Velocity":27,"Duration":224999,"SoundDuration":224999,"Delta":178092411},{"NoteNumber":58,"Velocity":29,"Duration":652230,"SoundDuration":652230,"Delta":178692411},{"NoteNumber":67,"Velocity":33,"Duration":652230,"SoundDuration":652230,"Delta":178692411},{"NoteNumber":39,"Velocity":29,"Duration":1304404,"SoundDuration":1304404,"Delta":178692411},{"NoteNumber":46,"Velocity":29,"Duration":1304404,"SoundDuration":1304404,"Delta":178692411},{"NoteNumber":55,"Velocity":27,"Duration":326087,"SoundDuration":326087,"Delta":179344641},{"NoteNumber":63,"Velocity":30,"Duration":326087,"SoundDuration":326087,"Delta":179344641},{"NoteNumber":81,"Velocity":41,"Duration":51418,"SoundDuration":51418,"Delta":179996815},{"NoteNumber":82,"Velocity":36,"Duration":51418,"SoundDuration":51418,"Delta":180057098},{"NoteNumber":91,"Velocity":36,"Duration":51418,"SoundDuration":51418,"Delta":180117382},{"NoteNumber":89,"Velocity":36,"Duration":49657,"SoundDuration":49657,"Delta":180177544},{"NoteNumber":87,"Velocity":36,"Duration":49657,"SoundDuration":49657,"Delta":180235764},{"NoteNumber":86,"Velocity":36,"Duration":49657,"SoundDuration":49657,"Delta":180293983},{"NoteNumber":84,"Velocity":36,"Duration":49657,"SoundDuration":49657,"Delta":180352202},{"NoteNumber":82,"Velocity":36,"Duration":49657,"SoundDuration":49657,"Delta":180410421},{"NoteNumber":80,"Velocity":36,"Duration":49657,"SoundDuration":49657,"Delta":180468640},{"NoteNumber":79,"Velocity":33,"Duration":49657,"SoundDuration":49657,"Delta":180526859},{"NoteNumber":77,"Velocity":37,"Duration":49657,"SoundDuration":49657,"Delta":180585079},{"NoteNumber":75,"Velocity":37,"Duration":49657,"SoundDuration":49657,"Delta":180643298},{"NoteNumber":74,"Velocity":36,"Duration":49657,"SoundDuration":49657,"Delta":180701517},{"NoteNumber":72,"Velocity":36,"Duration":56506,"SoundDuration":56506,"Delta":180759736},{"NoteNumber":70,"Velocity":41,"Duration":202702,"SoundDuration":202702,"Delta":180824805},{"NoteNumber":55,"Velocity":26,"Duration":212264,"SoundDuration":212264,"Delta":181365345},{"NoteNumber":58,"Velocity":26,"Duration":212264,"SoundDuration":212264,"Delta":181365345},{"NoteNumber":63,"Velocity":29,"Duration":212264,"SoundDuration":212264,"Delta":181365345},{"NoteNumber":39,"Velocity":27,"Duration":212264,"SoundDuration":212264,"Delta":181365345},{"NoteNumber":46,"Velocity":27,"Duration":212264,"SoundDuration":212264,"Delta":181365345},{"NoteNumber":56,"Velocity":28,"Duration":234375,"SoundDuration":234375,"Delta":181931383},{"NoteNumber":62,"Velocity":28,"Duration":234375,"SoundDuration":234375,"Delta":181931383},{"NoteNumber":65,"Velocity":32,"Duration":234375,"SoundDuration":234375,"Delta":181931383},{"NoteNumber":39,"Velocity":29,"Duration":234375,"SoundDuration":234375,"Delta":181931383},{"NoteNumber":46,"Velocity":29,"Duration":234375,"SoundDuration":234375,"Delta":181931383},{"NoteNumber":58,"Velocity":27,"Duration":264705,"SoundDuration":264705,"Delta":182556383},{"NoteNumber":67,"Velocity":30,"Duration":264705,"SoundDuration":264705,"Delta":182556383},{"NoteNumber":39,"Velocity":27,"Duration":264705,"SoundDuration":264705,"Delta":182556383},{"NoteNumber":46,"Velocity":27,"Duration":264705,"SoundDuration":264705,"Delta":182556383},{"NoteNumber":55,"Velocity":27,"Duration":1619718,"SoundDuration":1619718,"Delta":183262265},{"NoteNumber":63,"Velocity":30,"Duration":1619718,"SoundDuration":1619718,"Delta":183262265},{"NoteNumber":39,"Velocity":27,"Duration":1619718,"SoundDuration":1619718,"Delta":183262265},{"NoteNumber":46,"Velocity":27,"Duration":1619718,"SoundDuration":1619718,"Delta":183262265},{"NoteNumber":93,"Velocity":41,"Duration":60000,"SoundDuration":60000,"Delta":184952406},{"NoteNumber":94,"Velocity":36,"Duration":60000,"SoundDuration":60000,"Delta":185016406},{"NoteNumber":99,"Velocity":38,"Duration":48000,"SoundDuration":48000,"Delta":185080406},{"NoteNumber":96,"Velocity":36,"Duration":48000,"SoundDuration":48000,"Delta":185132406},{"NoteNumber":94,"Velocity":36,"Duration":48000,"SoundDuration":48000,"Delta":185184406},{"NoteNumber":92,"Velocity":36,"Duration":48000,"SoundDuration":48000,"Delta":185236406},{"NoteNumber":91,"Velocity":33,"Duration":47999,"SoundDuration":47999,"Delta":185288406},{"NoteNumber":89,"Velocity":37,"Duration":48000,"SoundDuration":48000,"Delta":185340406},{"NoteNumber":87,"Velocity":37,"Duration":48000,"SoundDuration":48000,"Delta":185392406},{"NoteNumber":86,"Velocity":36,"Duration":48000,"SoundDuration":48000,"Delta":185444406},{"NoteNumber":84,"Velocity":36,"Duration":48000,"SoundDuration":48000,"Delta":185496406},{"NoteNumber":82,"Velocity":36,"Duration":48000,"SoundDuration":48000,"Delta":185548406},{"NoteNumber":80,"Velocity":36,"Duration":48000,"SoundDuration":48000,"Delta":185600406},{"NoteNumber":79,"Velocity":36,"Duration":48000,"SoundDuration":48000,"Delta":185652406},{"NoteNumber":77,"Velocity":36,"Duration":48000,"SoundDuration":48000,"Delta":185704406},{"NoteNumber":75,"Velocity":36,"Duration":48000,"SoundDuration":48000,"Delta":185756406},{"NoteNumber":74,"Velocity":36,"Duration":48000,"SoundDuration":48000,"Delta":185808406},{"NoteNumber":72,"Velocity":36,"Duration":48000,"SoundDuration":48000,"Delta":185864406},{"NoteNumber":70,"Velocity":41,"Duration":199115,"SoundDuration":199115,"Delta":185912406},{"NoteNumber":55,"Velocity":29,"Duration":208333,"SoundDuration":208333,"Delta":186447209},{"NoteNumber":58,"Velocity":29,"Duration":208333,"SoundDuration":208333,"Delta":186447209},{"NoteNumber":63,"Velocity":33,"Duration":208333,"SoundDuration":208333,"Delta":186447209},{"NoteNumber":39,"Velocity":29,"Duration":208333,"SoundDuration":208333,"Delta":186447209},{"NoteNumber":46,"Velocity":29,"Duration":208333,"SoundDuration":208333,"Delta":186447209},{"NoteNumber":56,"Velocity":31,"Duration":216346,"SoundDuration":216346,"Delta":187002764},{"NoteNumber":58,"Velocity":31,"Duration":216346,"SoundDuration":216346,"Delta":187002764},{"NoteNumber":65,"Velocity":36,"Duration":216346,"SoundDuration":216346,"Delta":187002764},{"NoteNumber":39,"Velocity":32,"Duration":216346,"SoundDuration":216346,"Delta":187002764},{"NoteNumber":46,"Velocity":32,"Duration":216346,"SoundDuration":216346,"Delta":187002764},{"NoteNumber":57,"Velocity":30,"Duration":236842,"SoundDuration":236842,"Delta":187579687},{"NoteNumber":58,"Velocity":30,"Duration":236842,"SoundDuration":236842,"Delta":187579687},{"NoteNumber":66,"Velocity":35,"Duration":236842,"SoundDuration":236842,"Delta":187579687},{"NoteNumber":39,"Velocity":30,"Duration":236842,"SoundDuration":236842,"Delta":187579687},{"NoteNumber":46,"Velocity":30,"Duration":236842,"SoundDuration":236842,"Delta":187579687},{"NoteNumber":58,"Velocity":32,"Duration":697674,"SoundDuration":697674,"Delta":188211266},{"NoteNumber":67,"Velocity":36,"Duration":697674,"SoundDuration":697674,"Delta":188211266},{"NoteNumber":39,"Velocity":32,"Duration":1542744,"SoundDuration":1542744,"Delta":188211266},{"NoteNumber":46,"Velocity":32,"Duration":1542744,"SoundDuration":1542744,"Delta":188211266},{"NoteNumber":55,"Velocity":29,"Duration":422535,"SoundDuration":422535,"Delta":188908941},{"NoteNumber":63,"Velocity":33,"Duration":422535,"SoundDuration":422535,"Delta":188908941},{"NoteNumber":93,"Velocity":41,"Duration":70388,"SoundDuration":70388,"Delta":189754011},{"NoteNumber":94,"Velocity":36,"Duration":70388,"SoundDuration":70388,"Delta":189829254},{"NoteNumber":103,"Velocity":36,"Duration":48497,"SoundDuration":48497,"Delta":189904497},{"NoteNumber":101,"Velocity":36,"Duration":48076,"SoundDuration":48076,"Delta":189957802},{"NoteNumber":99,"Velocity":36,"Duration":48076,"SoundDuration":48076,"Delta":190010686},{"NoteNumber":98,"Velocity":36,"Duration":48076,"SoundDuration":48076,"Delta":190063571},{"NoteNumber":96,"Velocity":36,"Duration":47847,"SoundDuration":47847,"Delta":190116455},{"NoteNumber":94,"Velocity":36,"Duration":47619,"SoundDuration":47619,"Delta":190169065},{"NoteNumber":92,"Velocity":36,"Duration":47619,"SoundDuration":47619,"Delta":190221446},{"NoteNumber":91,"Velocity":33,"Duration":47619,"SoundDuration":47619,"Delta":190273827},{"NoteNumber":89,"Velocity":37,"Duration":47214,"SoundDuration":47214,"Delta":190326208},{"NoteNumber":87,"Velocity":37,"Duration":47169,"SoundDuration":47169,"Delta":190378140},{"NoteNumber":86,"Velocity":36,"Duration":46728,"SoundDuration":46728,"Delta":190429983},{"NoteNumber":84,"Velocity":36,"Duration":46728,"SoundDuration":46728,"Delta":190481384},{"NoteNumber":82,"Velocity":36,"Duration":46861,"SoundDuration":46861,"Delta":190532786},{"NoteNumber":80,"Velocity":36,"Duration":47169,"SoundDuration":47169,"Delta":190584364},{"NoteNumber":79,"Velocity":36,"Duration":47394,"SoundDuration":47394,"Delta":190636251},{"NoteNumber":77,"Velocity":36,"Duration":47619,"SoundDuration":47619,"Delta":190688408},{"NoteNumber":75,"Velocity":36,"Duration":47939,"SoundDuration":47939,"Delta":190740788},{"NoteNumber":74,"Velocity":36,"Duration":48076,"SoundDuration":48076,"Delta":190793536},{"NoteNumber":72,"Velocity":36,"Duration":48497,"SoundDuration":48497,"Delta":190846420},{"NoteNumber":70,"Velocity":41,"Duration":202702,"SoundDuration":202702,"Delta":190899772},{"NoteNumber":55,"Velocity":32,"Duration":213391,"SoundDuration":213391,"Delta":191440312},{"NoteNumber":58,"Velocity":32,"Duration":213391,"SoundDuration":213391,"Delta":191440312},{"NoteNumber":63,"Velocity":36,"Duration":213391,"SoundDuration":213391,"Delta":191440312},{"NoteNumber":39,"Velocity":31,"Duration":213391,"SoundDuration":213391,"Delta":191440312},{"NoteNumber":46,"Velocity":31,"Duration":213391,"SoundDuration":213391,"Delta":191440312},{"NoteNumber":56,"Velocity":33,"Duration":244565,"SoundDuration":244565,"Delta":192009356},{"NoteNumber":62,"Velocity":33,"Duration":244565,"SoundDuration":244565,"Delta":192009356},{"NoteNumber":65,"Velocity":37,"Duration":244565,"SoundDuration":244565,"Delta":192009356},{"NoteNumber":39,"Velocity":32,"Duration":244565,"SoundDuration":244565,"Delta":192009356},{"NoteNumber":47,"Velocity":32,"Duration":244565,"SoundDuration":244565,"Delta":192009356},{"NoteNumber":62,"Velocity":32,"Duration":288461,"SoundDuration":288461,"Delta":192661530},{"NoteNumber":56,"Velocity":32,"Duration":288461,"SoundDuration":288461,"Delta":192661530},{"NoteNumber":67,"Velocity":36,"Duration":288461,"SoundDuration":288461,"Delta":192661530},{"NoteNumber":39,"Velocity":31,"Duration":288461,"SoundDuration":288461,"Delta":192661530},{"NoteNumber":46,"Velocity":31,"Duration":288461,"SoundDuration":288461,"Delta":192661530},{"NoteNumber":55,"Velocity":30,"Duration":1597222,"SoundDuration":1597222,"Delta":193430761},{"NoteNumber":63,"Velocity":35,"Duration":1597222,"SoundDuration":1597222,"Delta":193430761},{"NoteNumber":51,"Velocity":29,"Duration":1597222,"SoundDuration":1597222,"Delta":193430761},{"NoteNumber":39,"Velocity":29,"Duration":1597222,"SoundDuration":1597222,"Delta":193430761},{"NoteNumber":46,"Velocity":29,"Duration":1597222,"SoundDuration":1597222,"Delta":193430761},{"NoteNumber":46,"Velocity":53,"Duration":62903,"SoundDuration":62903,"Delta":195097428},{"NoteNumber":45,"Velocity":53,"Duration":62903,"SoundDuration":62903,"Delta":195161944},{"NoteNumber":44,"Velocity":53,"Duration":62500,"SoundDuration":62500,"Delta":195226461},{"NoteNumber":43,"Velocity":53,"Duration":62500,"SoundDuration":62500,"Delta":195290563},{"NoteNumber":42,"Velocity":53,"Duration":62101,"SoundDuration":62101,"Delta":195354666},{"NoteNumber":41,"Velocity":53,"Duration":62101,"SoundDuration":62101,"Delta":195418360},{"NoteNumber":40,"Velocity":56,"Duration":61708,"SoundDuration":61708,"Delta":195482054},{"NoteNumber":39,"Velocity":58,"Duration":61708,"SoundDuration":61708,"Delta":195545345},{"NoteNumber":38,"Velocity":60,"Duration":61320,"SoundDuration":61320,"Delta":195608637},{"NoteNumber":37,"Velocity":63,"Duration":61320,"SoundDuration":61320,"Delta":195671530},{"NoteNumber":36,"Velocity":64,"Duration":60937,"SoundDuration":60937,"Delta":195734423},{"NoteNumber":35,"Velocity":66,"Duration":60753,"SoundDuration":60753,"Delta":195796923},{"NoteNumber":34,"Velocity":83,"Duration":141509,"SoundDuration":141509,"Delta":195859229},{"NoteNumber":62,"Velocity":50,"Duration":204545,"SoundDuration":204545,"Delta":196425266},{"NoteNumber":58,"Velocity":45,"Duration":204545,"SoundDuration":204545,"Delta":196425266},{"NoteNumber":53,"Velocity":41,"Duration":204545,"SoundDuration":204545,"Delta":196425266},{"NoteNumber":46,"Velocity":41,"Duration":204545,"SoundDuration":204545,"Delta":196425266},{"NoteNumber":58,"Velocity":50,"Duration":212264,"SoundDuration":212264,"Delta":196970721},{"NoteNumber":60,"Velocity":50,"Duration":212264,"SoundDuration":212264,"Delta":196970721},{"NoteNumber":63,"Velocity":56,"Duration":212264,"SoundDuration":212264,"Delta":196970721},{"NoteNumber":46,"Velocity":45,"Duration":212264,"SoundDuration":212264,"Delta":196970721},{"NoteNumber":54,"Velocity":45,"Duration":212264,"SoundDuration":212264,"Delta":196970721},{"NoteNumber":58,"Velocity":45,"Duration":224999,"SoundDuration":224999,"Delta":197536758},{"NoteNumber":61,"Velocity":45,"Duration":224999,"SoundDuration":224999,"Delta":197536758},{"NoteNumber":64,"Velocity":51,"Duration":224999,"SoundDuration":224999,"Delta":197536758},{"NoteNumber":55,"Velocity":43,"Duration":224999,"SoundDuration":224999,"Delta":197536758},{"NoteNumber":46,"Velocity":43,"Duration":224999,"SoundDuration":224999,"Delta":197536758},{"NoteNumber":62,"Velocity":45,"Duration":652174,"SoundDuration":652174,"Delta":198136758},{"NoteNumber":65,"Velocity":52,"Duration":652174,"SoundDuration":652174,"Delta":198136758},{"NoteNumber":58,"Velocity":45,"Duration":646739,"SoundDuration":646739,"Delta":198136758},{"NoteNumber":46,"Velocity":45,"Duration":1375065,"SoundDuration":1375065,"Delta":198136758},{"NoteNumber":58,"Velocity":44,"Duration":361445,"SoundDuration":361445,"Delta":198788932},{"NoteNumber":62,"Velocity":49,"Duration":361445,"SoundDuration":361445,"Delta":198788932},{"NoteNumber":53,"Velocity":44,"Duration":361445,"SoundDuration":361445,"Delta":198788932},{"NoteNumber":34,"Velocity":55,"Duration":62937,"SoundDuration":62937,"Delta":199511824},{"NoteNumber":36,"Velocity":56,"Duration":62937,"SoundDuration":62937,"Delta":199576509},{"NoteNumber":38,"Velocity":57,"Duration":62937,"SoundDuration":62937,"Delta":199641194},{"NoteNumber":39,"Velocity":59,"Duration":62937,"SoundDuration":62937,"Delta":199705880},{"NoteNumber":41,"Velocity":60,"Duration":62937,"SoundDuration":62937,"Delta":199770565},{"NoteNumber":43,"Velocity":62,"Duration":62937,"SoundDuration":62937,"Delta":199835250},{"NoteNumber":45,"Velocity":63,"Duration":62937,"SoundDuration":62937,"Delta":199899936},{"NoteNumber":46,"Velocity":63,"Duration":62937,"SoundDuration":62937,"Delta":199964621},{"NoteNumber":48,"Velocity":64,"Duration":62937,"SoundDuration":62937,"Delta":200029306},{"NoteNumber":50,"Velocity":65,"Duration":62937,"SoundDuration":62937,"Delta":200093992},{"NoteNumber":51,"Velocity":67,"Duration":62937,"SoundDuration":62937,"Delta":200158677},{"NoteNumber":52,"Velocity":69,"Duration":62937,"SoundDuration":62937,"Delta":200223362},{"NoteNumber":55,"Velocity":70,"Duration":61188,"SoundDuration":61188,"Delta":200288048},{"NoteNumber":53,"Velocity":63,"Duration":3142849,"SoundDuration":3142849,"Delta":200350985},{"NoteNumber":62,"Velocity":49,"Duration":212264,"SoundDuration":212264,"Delta":200933509},{"NoteNumber":58,"Velocity":44,"Duration":212264,"SoundDuration":212264,"Delta":200933509},{"NoteNumber":46,"Velocity":41,"Duration":212264,"SoundDuration":212264,"Delta":200933509},{"NoteNumber":41,"Velocity":41,"Duration":212264,"SoundDuration":212264,"Delta":200933509},{"NoteNumber":57,"Velocity":46,"Duration":222772,"SoundDuration":222772,"Delta":201499547},{"NoteNumber":63,"Velocity":53,"Duration":222772,"SoundDuration":222772,"Delta":201499547},{"NoteNumber":41,"Velocity":44,"Duration":222772,"SoundDuration":222772,"Delta":201499547},{"NoteNumber":48,"Velocity":44,"Duration":222772,"SoundDuration":222772,"Delta":201499547},{"NoteNumber":57,"Velocity":45,"Duration":244565,"SoundDuration":244565,"Delta":202100919},{"NoteNumber":65,"Velocity":50,"Duration":244565,"SoundDuration":244565,"Delta":202100919},{"NoteNumber":50,"Velocity":43,"Duration":244565,"SoundDuration":244565,"Delta":202100919},{"NoteNumber":41,"Velocity":43,"Duration":244565,"SoundDuration":244565,"Delta":202100919},{"NoteNumber":62,"Velocity":51,"Duration":1419752,"SoundDuration":1419752,"Delta":202753093},{"NoteNumber":58,"Velocity":45,"Duration":1419752,"SoundDuration":1419752,"Delta":202753093},{"NoteNumber":46,"Velocity":44,"Duration":1481481,"SoundDuration":1481481,"Delta":202753093},{"NoteNumber":34,"Velocity":48,"Duration":370370,"SoundDuration":370370,"Delta":203493834},{"NoteNumber":70,"Velocity":58,"Duration":56358,"SoundDuration":56358,"Delta":204234574},{"NoteNumber":69,"Velocity":58,"Duration":56358,"SoundDuration":56358,"Delta":204292378},{"NoteNumber":68,"Velocity":58,"Duration":56034,"SoundDuration":56034,"Delta":204350181},{"NoteNumber":67,"Velocity":58,"Duration":56034,"SoundDuration":56034,"Delta":204407653},{"NoteNumber":66,"Velocity":58,"Duration":55714,"SoundDuration":55714,"Delta":204465124},{"NoteNumber":65,"Velocity":58,"Duration":55714,"SoundDuration":55714,"Delta":204522267},{"NoteNumber":64,"Velocity":60,"Duration":55397,"SoundDuration":55397,"Delta":204579409},{"NoteNumber":63,"Velocity":63,"Duration":55397,"SoundDuration":55397,"Delta":204636228},{"NoteNumber":62,"Velocity":65,"Duration":55084,"SoundDuration":55084,"Delta":204693046},{"NoteNumber":61,"Velocity":69,"Duration":55084,"SoundDuration":55084,"Delta":204749543},{"NoteNumber":60,"Velocity":72,"Duration":54775,"SoundDuration":54775,"Delta":204806040},{"NoteNumber":59,"Velocity":73,"Duration":54626,"SoundDuration":54626,"Delta":204862220},{"NoteNumber":58,"Velocity":87,"Duration":125000,"SoundDuration":125000,"Delta":204918243},{"NoteNumber":74,"Velocity":53,"Duration":204545,"SoundDuration":204545,"Delta":205418243},{"NoteNumber":62,"Velocity":42,"Duration":204545,"SoundDuration":204545,"Delta":205418243},{"NoteNumber":70,"Velocity":42,"Duration":204545,"SoundDuration":204545,"Delta":205418243},{"NoteNumber":58,"Velocity":38,"Duration":204545,"SoundDuration":204545,"Delta":205418243},{"NoteNumber":53,"Velocity":38,"Duration":204545,"SoundDuration":204545,"Delta":205418243},{"NoteNumber":46,"Velocity":38,"Duration":204545,"SoundDuration":204545,"Delta":205418243},{"NoteNumber":70,"Velocity":45,"Duration":208333,"SoundDuration":208333,"Delta":205963697},{"NoteNumber":75,"Velocity":57,"Duration":208333,"SoundDuration":208333,"Delta":205963697},{"NoteNumber":63,"Velocity":45,"Duration":208333,"SoundDuration":208333,"Delta":205963697},{"NoteNumber":60,"Velocity":43,"Duration":208333,"SoundDuration":208333,"Delta":205963697},{"NoteNumber":46,"Velocity":43,"Duration":208333,"SoundDuration":208333,"Delta":205963697},{"NoteNumber":54,"Velocity":43,"Duration":208333,"SoundDuration":208333,"Delta":205963697},{"NoteNumber":64,"Velocity":43,"Duration":222772,"SoundDuration":222772,"Delta":206519253},{"NoteNumber":70,"Velocity":43,"Duration":222772,"SoundDuration":222772,"Delta":206519253},{"NoteNumber":76,"Velocity":54,"Duration":222772,"SoundDuration":222772,"Delta":206519253},{"NoteNumber":61,"Velocity":43,"Duration":222772,"SoundDuration":222772,"Delta":206519253},{"NoteNumber":55,"Velocity":41,"Duration":222772,"SoundDuration":222772,"Delta":206519253},{"NoteNumber":46,"Velocity":41,"Duration":222772,"SoundDuration":222772,"Delta":206519253},{"NoteNumber":65,"Velocity":41,"Duration":1306935,"SoundDuration":1306935,"Delta":207113312},{"NoteNumber":70,"Velocity":41,"Duration":1306935,"SoundDuration":1306935,"Delta":207113312},{"NoteNumber":77,"Velocity":55,"Duration":652174,"SoundDuration":652174,"Delta":207113312},{"NoteNumber":53,"Velocity":42,"Duration":1366459,"SoundDuration":1366459,"Delta":207113312},{"NoteNumber":62,"Velocity":42,"Duration":652174,"SoundDuration":652174,"Delta":207113312},{"NoteNumber":46,"Velocity":42,"Duration":1366459,"SoundDuration":1366459,"Delta":207113312},{"NoteNumber":74,"Velocity":52,"Duration":357142,"SoundDuration":357142,"Delta":207765486},{"NoteNumber":58,"Velocity":41,"Duration":357142,"SoundDuration":357142,"Delta":207765486},{"NoteNumber":46,"Velocity":49,"Duration":68181,"SoundDuration":68181,"Delta":208479772},{"NoteNumber":48,"Velocity":50,"Duration":68181,"SoundDuration":68181,"Delta":208549848},{"NoteNumber":50,"Velocity":51,"Duration":68181,"SoundDuration":68181,"Delta":208619923},{"NoteNumber":51,"Velocity":53,"Duration":68181,"SoundDuration":68181,"Delta":208689999},{"NoteNumber":53,"Velocity":54,"Duration":68181,"SoundDuration":68181,"Delta":208760075},{"NoteNumber":55,"Velocity":55,"Duration":68181,"SoundDuration":68181,"Delta":208830151},{"NoteNumber":57,"Velocity":55,"Duration":68181,"SoundDuration":68181,"Delta":208900226},{"NoteNumber":58,"Velocity":56,"Duration":68181,"SoundDuration":68181,"Delta":208970302},{"NoteNumber":60,"Velocity":57,"Duration":68181,"SoundDuration":68181,"Delta":209040378},{"NoteNumber":62,"Velocity":58,"Duration":68181,"SoundDuration":68181,"Delta":209110454},{"NoteNumber":63,"Velocity":60,"Duration":68181,"SoundDuration":68181,"Delta":209180529},{"NoteNumber":64,"Velocity":62,"Duration":68181,"SoundDuration":68181,"Delta":209250605},{"NoteNumber":67,"Velocity":63,"Duration":66287,"SoundDuration":66287,"Delta":209320681},{"NoteNumber":65,"Velocity":55,"Duration":1661332,"SoundDuration":1661332,"Delta":209388863},{"NoteNumber":74,"Velocity":42,"Duration":705882,"SoundDuration":705882,"Delta":210111754},{"NoteNumber":68,"Velocity":36,"Duration":705882,"SoundDuration":705882,"Delta":210111754},{"NoteNumber":53,"Velocity":35,"Duration":705882,"SoundDuration":705882,"Delta":210111754},{"NoteNumber":59,"Velocity":35,"Duration":705882,"SoundDuration":705882,"Delta":210111754},{"NoteNumber":69,"Velocity":41,"Duration":712029,"SoundDuration":712029,"Delta":210817637},{"NoteNumber":75,"Velocity":45,"Duration":712029,"SoundDuration":712029,"Delta":210817637},{"NoteNumber":60,"Velocity":36,"Duration":712029,"SoundDuration":712029,"Delta":210817637},{"NoteNumber":53,"Velocity":36,"Duration":712029,"SoundDuration":712029,"Delta":210817637},{"NoteNumber":65,"Velocity":43,"Duration":232558,"SoundDuration":232558,"Delta":211050195},{"NoteNumber":67,"Velocity":33,"Duration":246913,"SoundDuration":246913,"Delta":211282753},{"NoteNumber":63,"Velocity":43,"Duration":266666,"SoundDuration":266666,"Delta":211529667},{"NoteNumber":77,"Velocity":41,"Duration":975422,"SoundDuration":975422,"Delta":211529667},{"NoteNumber":72,"Velocity":41,"Duration":975422,"SoundDuration":975422,"Delta":211529667},{"NoteNumber":65,"Velocity":36,"Duration":975422,"SoundDuration":975422,"Delta":211529667},{"NoteNumber":53,"Velocity":32,"Duration":975422,"SoundDuration":975422,"Delta":211529667},{"NoteNumber":57,"Velocity":32,"Duration":975422,"SoundDuration":975422,"Delta":211529667},{"NoteNumber":60,"Velocity":39,"Duration":273972,"SoundDuration":273972,"Delta":211796333},{"NoteNumber":62,"Velocity":38,"Duration":108695,"SoundDuration":108695,"Delta":212070306},{"NoteNumber":46,"Velocity":32,"Duration":1880141,"SoundDuration":1880141,"Delta":212179002},{"NoteNumber":53,"Velocity":32,"Duration":1825793,"SoundDuration":1825793,"Delta":212233349},{"NoteNumber":62,"Velocity":36,"Duration":1771445,"SoundDuration":1771445,"Delta":212287697},{"NoteNumber":58,"Velocity":32,"Duration":1717097,"SoundDuration":1717097,"Delta":212342045},{"NoteNumber":65,"Velocity":32,"Duration":1662750,"SoundDuration":1662750,"Delta":212396393},{"NoteNumber":70,"Velocity":32,"Duration":1608402,"SoundDuration":1608402,"Delta":212450741},{"NoteNumber":74,"Velocity":38,"Duration":1554054,"SoundDuration":1554054,"Delta":212505089},{"NoteNumber":77,"Velocity":46,"Duration":199115,"SoundDuration":199115,"Delta":214105872},{"NoteNumber":73,"Velocity":46,"Duration":199115,"SoundDuration":199115,"Delta":214105872},{"NoteNumber":82,"Velocity":46,"Duration":199115,"SoundDuration":199115,"Delta":214105872},{"NoteNumber":81,"Velocity":38,"Duration":66371,"SoundDuration":66371,"Delta":214304987},{"NoteNumber":80,"Velocity":38,"Duration":87134,"SoundDuration":87134,"Delta":214371359},{"NoteNumber":72,"Velocity":38,"Duration":87134,"SoundDuration":87134,"Delta":214371359},{"NoteNumber":79,"Velocity":39,"Duration":86391,"SoundDuration":86391,"Delta":214458494},{"NoteNumber":74,"Velocity":39,"Duration":86391,"SoundDuration":86391,"Delta":214458494},{"NoteNumber":71,"Velocity":39,"Duration":86391,"SoundDuration":86391,"Delta":214458494},{"NoteNumber":78,"Velocity":41,"Duration":85661,"SoundDuration":85661,"Delta":214544885},{"NoteNumber":70,"Velocity":41,"Duration":85661,"SoundDuration":85661,"Delta":214544885},{"NoteNumber":77,"Velocity":42,"Duration":84942,"SoundDuration":84942,"Delta":214630546},{"NoteNumber":72,"Velocity":42,"Duration":84942,"SoundDuration":84942,"Delta":214630546},{"NoteNumber":69,"Velocity":42,"Duration":84942,"SoundDuration":84942,"Delta":214630546},{"NoteNumber":76,"Velocity":43,"Duration":84235,"SoundDuration":84235,"Delta":214715489},{"NoteNumber":68,"Velocity":43,"Duration":84235,"SoundDuration":84235,"Delta":214715489},{"NoteNumber":75,"Velocity":44,"Duration":83540,"SoundDuration":83540,"Delta":214799724},{"NoteNumber":70,"Velocity":44,"Duration":83540,"SoundDuration":83540,"Delta":214799724},{"NoteNumber":67,"Velocity":44,"Duration":83540,"SoundDuration":83540,"Delta":214799724},{"NoteNumber":74,"Velocity":45,"Duration":82856,"SoundDuration":82856,"Delta":214883265},{"NoteNumber":66,"Velocity":45,"Duration":82856,"SoundDuration":82856,"Delta":214883265},{"NoteNumber":73,"Velocity":46,"Duration":81919,"SoundDuration":81919,"Delta":214966122},{"NoteNumber":68,"Velocity":46,"Duration":81919,"SoundDuration":81919,"Delta":214966122},{"NoteNumber":65,"Velocity":46,"Duration":81919,"SoundDuration":81919,"Delta":214966122},{"NoteNumber":64,"Velocity":48,"Duration":122950,"SoundDuration":122950,"Delta":215048041},{"NoteNumber":67,"Velocity":48,"Duration":122950,"SoundDuration":122950,"Delta":215048041},{"NoteNumber":72,"Velocity":48,"Duration":122950,"SoundDuration":122950,"Delta":215048041},{"NoteNumber":55,"Velocity":37,"Duration":173971,"SoundDuration":173971,"Delta":215539845},{"NoteNumber":64,"Velocity":43,"Duration":173971,"SoundDuration":173971,"Delta":215539845},{"NoteNumber":58,"Velocity":37,"Duration":173971,"SoundDuration":173971,"Delta":215539845},{"NoteNumber":48,"Velocity":51,"Duration":77519,"SoundDuration":77519,"Delta":215539845},{"NoteNumber":49,"Velocity":53,"Duration":77221,"SoundDuration":77221,"Delta":215617364},{"NoteNumber":48,"Velocity":54,"Duration":76923,"SoundDuration":76923,"Delta":215694585},{"NoteNumber":47,"Velocity":56,"Duration":76335,"SoundDuration":76335,"Delta":215771508},{"NoteNumber":46,"Velocity":57,"Duration":76046,"SoundDuration":76046,"Delta":215847844},{"NoteNumber":45,"Velocity":58,"Duration":75472,"SoundDuration":75472,"Delta":215923891},{"NoteNumber":61,"Velocity":41,"Duration":195652,"SoundDuration":195652,"Delta":215999364},{"NoteNumber":65,"Velocity":45,"Duration":195652,"SoundDuration":195652,"Delta":215999364},{"NoteNumber":56,"Velocity":41,"Duration":195652,"SoundDuration":195652,"Delta":215999364},{"NoteNumber":44,"Velocity":60,"Duration":195652,"SoundDuration":195652,"Delta":215999364},{"NoteNumber":59,"Velocity":37,"Duration":185809,"SoundDuration":185809,"Delta":216521103},{"NoteNumber":62,"Velocity":37,"Duration":185809,"SoundDuration":185809,"Delta":216521103},{"NoteNumber":68,"Velocity":43,"Duration":185809,"SoundDuration":185809,"Delta":216521103},{"NoteNumber":41,"Velocity":52,"Duration":69338,"SoundDuration":69338,"Delta":216521103},{"NoteNumber":43,"Velocity":51,"Duration":70284,"SoundDuration":70284,"Delta":216590442},{"NoteNumber":41,"Velocity":50,"Duration":71646,"SoundDuration":71646,"Delta":216660726},{"NoteNumber":40,"Velocity":50,"Duration":72944,"SoundDuration":72944,"Delta":216732372},{"NoteNumber":39,"Velocity":49,"Duration":74222,"SoundDuration":74222,"Delta":216805317},{"NoteNumber":38,"Velocity":48,"Duration":79812,"SoundDuration":79812,"Delta":216879540},{"NoteNumber":37,"Velocity":46,"Duration":94086,"SoundDuration":94086,"Delta":216959352},{"NoteNumber":67,"Velocity":43,"Duration":582524,"SoundDuration":582524,"Delta":217053438},{"NoteNumber":64,"Velocity":37,"Duration":582524,"SoundDuration":582524,"Delta":217053438},{"NoteNumber":36,"Velocity":45,"Duration":582524,"SoundDuration":582524,"Delta":217053438},{"NoteNumber":55,"Velocity":32,"Duration":231958,"SoundDuration":231958,"Delta":217635963},{"NoteNumber":60,"Velocity":36,"Duration":231958,"SoundDuration":231958,"Delta":217635963},{"NoteNumber":52,"Velocity":39,"Duration":231958,"SoundDuration":231958,"Delta":217635963},{"NoteNumber":89,"Velocity":50,"Duration":199115,"SoundDuration":199115,"Delta":218254519},{"NoteNumber":85,"Velocity":50,"Duration":199115,"SoundDuration":199115,"Delta":218254519},{"NoteNumber":94,"Velocity":50,"Duration":199115,"SoundDuration":199115,"Delta":218254519},{"NoteNumber":93,"Velocity":41,"Duration":66371,"SoundDuration":66371,"Delta":218453634},{"NoteNumber":92,"Velocity":42,"Duration":83955,"SoundDuration":83955,"Delta":218520006},{"NoteNumber":84,"Velocity":42,"Duration":83955,"SoundDuration":83955,"Delta":218520006},{"NoteNumber":91,"Velocity":43,"Duration":83540,"SoundDuration":83540,"Delta":218603961},{"NoteNumber":86,"Velocity":43,"Duration":83540,"SoundDuration":83540,"Delta":218603961},{"NoteNumber":83,"Velocity":43,"Duration":83540,"SoundDuration":83540,"Delta":218603961},{"NoteNumber":90,"Velocity":44,"Duration":83129,"SoundDuration":83129,"Delta":218687502},{"NoteNumber":82,"Velocity":44,"Duration":83129,"SoundDuration":83129,"Delta":218687502},{"NoteNumber":89,"Velocity":45,"Duration":82720,"SoundDuration":82720,"Delta":218770631},{"NoteNumber":84,"Velocity":45,"Duration":82720,"SoundDuration":82720,"Delta":218770631},{"NoteNumber":81,"Velocity":45,"Duration":82720,"SoundDuration":82720,"Delta":218770631},{"NoteNumber":88,"Velocity":45,"Duration":82116,"SoundDuration":82116,"Delta":218853351},{"NoteNumber":80,"Velocity":45,"Duration":82116,"SoundDuration":82116,"Delta":218853351},{"NoteNumber":87,"Velocity":46,"Duration":81720,"SoundDuration":81720,"Delta":218935468},{"NoteNumber":82,"Velocity":46,"Duration":81720,"SoundDuration":81720,"Delta":218935468},{"NoteNumber":79,"Velocity":46,"Duration":81720,"SoundDuration":81720,"Delta":218935468},{"NoteNumber":86,"Velocity":49,"Duration":81326,"SoundDuration":81326,"Delta":219017188},{"NoteNumber":78,"Velocity":49,"Duration":81326,"SoundDuration":81326,"Delta":219017188},{"NoteNumber":85,"Velocity":50,"Duration":80678,"SoundDuration":80678,"Delta":219098514},{"NoteNumber":80,"Velocity":50,"Duration":80678,"SoundDuration":80678,"Delta":219098514},{"NoteNumber":77,"Velocity":50,"Duration":80678,"SoundDuration":80678,"Delta":219098514},{"NoteNumber":76,"Velocity":51,"Duration":121951,"SoundDuration":121951,"Delta":219179193},{"NoteNumber":79,"Velocity":51,"Duration":121951,"SoundDuration":121951,"Delta":219179193},{"NoteNumber":84,"Velocity":51,"Duration":121951,"SoundDuration":121951,"Delta":219179193},{"NoteNumber":64,"Velocity":37,"Duration":173971,"SoundDuration":173971,"Delta":219666998},{"NoteNumber":67,"Velocity":37,"Duration":173971,"SoundDuration":173971,"Delta":219666998},{"NoteNumber":76,"Velocity":43,"Duration":173971,"SoundDuration":173971,"Delta":219666998},{"NoteNumber":70,"Velocity":37,"Duration":173971,"SoundDuration":173971,"Delta":219666998},{"NoteNumber":48,"Velocity":51,"Duration":459519,"SoundDuration":459519,"Delta":219666998},{"NoteNumber":60,"Velocity":51,"Duration":77519,"SoundDuration":77519,"Delta":219666998},{"NoteNumber":61,"Velocity":53,"Duration":77221,"SoundDuration":77221,"Delta":219744517},{"NoteNumber":60,"Velocity":54,"Duration":76923,"SoundDuration":76923,"Delta":219821738},{"NoteNumber":59,"Velocity":56,"Duration":76335,"SoundDuration":76335,"Delta":219898661},{"NoteNumber":58,"Velocity":57,"Duration":76046,"SoundDuration":76046,"Delta":219974997},{"NoteNumber":57,"Velocity":58,"Duration":75472,"SoundDuration":75472,"Delta":220051044},{"NoteNumber":65,"Velocity":42,"Duration":189075,"SoundDuration":189075,"Delta":220126517},{"NoteNumber":73,"Velocity":42,"Duration":189075,"SoundDuration":189075,"Delta":220126517},{"NoteNumber":77,"Velocity":46,"Duration":189075,"SoundDuration":189075,"Delta":220126517},{"NoteNumber":68,"Velocity":42,"Duration":189075,"SoundDuration":189075,"Delta":220126517},{"NoteNumber":44,"Velocity":54,"Duration":189075,"SoundDuration":189075,"Delta":220126517},{"NoteNumber":56,"Velocity":60,"Duration":189075,"SoundDuration":189075,"Delta":220126517},{"NoteNumber":68,"Velocity":37,"Duration":197187,"SoundDuration":197187,"Delta":220630718},{"NoteNumber":71,"Velocity":37,"Duration":197187,"SoundDuration":197187,"Delta":220630718},{"NoteNumber":74,"Velocity":37,"Duration":197187,"SoundDuration":197187,"Delta":220630718},{"NoteNumber":80,"Velocity":43,"Duration":197187,"SoundDuration":197187,"Delta":220630718},{"NoteNumber":41,"Velocity":52,"Duration":548463,"SoundDuration":548463,"Delta":220630718},{"NoteNumber":53,"Velocity":52,"Duration":73913,"SoundDuration":73913,"Delta":220630718},{"NoteNumber":55,"Velocity":51,"Duration":74602,"SoundDuration":74602,"Delta":220704631},{"NoteNumber":53,"Velocity":50,"Duration":75260,"SoundDuration":75260,"Delta":220779234},{"NoteNumber":52,"Velocity":50,"Duration":76214,"SoundDuration":76214,"Delta":220854494},{"NoteNumber":51,"Velocity":49,"Duration":76781,"SoundDuration":76781,"Delta":220930709},{"NoteNumber":50,"Velocity":48,"Duration":81485,"SoundDuration":81485,"Delta":221007490},{"NoteNumber":49,"Velocity":46,"Duration":90206,"SoundDuration":90206,"Delta":221088976},{"NoteNumber":67,"Velocity":37,"Duration":582524,"SoundDuration":582524,"Delta":221179182},{"NoteNumber":79,"Velocity":43,"Duration":582524,"SoundDuration":582524,"Delta":221179182},{"NoteNumber":76,"Velocity":37,"Duration":582524,"SoundDuration":582524,"Delta":221179182},{"NoteNumber":36,"Velocity":41,"Duration":582524,"SoundDuration":582524,"Delta":221179182},{"NoteNumber":48,"Velocity":45,"Duration":582524,"SoundDuration":582524,"Delta":221179182},{"NoteNumber":72,"Velocity":36,"Duration":239361,"SoundDuration":239361,"Delta":221761706},{"NoteNumber":55,"Velocity":36,"Duration":239361,"SoundDuration":239361,"Delta":221761706},{"NoteNumber":64,"Velocity":39,"Duration":239361,"SoundDuration":239361,"Delta":221761706},{"NoteNumber":68,"Velocity":50,"Duration":885190,"SoundDuration":885190,"Delta":222400004},{"NoteNumber":65,"Velocity":50,"Duration":94488,"SoundDuration":94488,"Delta":222400004},{"NoteNumber":72,"Velocity":50,"Duration":801419,"SoundDuration":801419,"Delta":222400004},{"NoteNumber":80,"Velocity":50,"Duration":94488,"SoundDuration":94488,"Delta":222400004},{"NoteNumber":64,"Velocity":45,"Duration":94488,"SoundDuration":94488,"Delta":222494493},{"NoteNumber":79,"Velocity":48,"Duration":94488,"SoundDuration":94488,"Delta":222494493},{"NoteNumber":63,"Velocity":45,"Duration":91111,"SoundDuration":91111,"Delta":222588981},{"NoteNumber":78,"Velocity":49,"Duration":91111,"SoundDuration":91111,"Delta":222588981},{"NoteNumber":62,"Velocity":46,"Duration":89110,"SoundDuration":89110,"Delta":222680093},{"NoteNumber":77,"Velocity":50,"Duration":89110,"SoundDuration":89110,"Delta":222680093},{"NoteNumber":61,"Velocity":49,"Duration":88344,"SoundDuration":88344,"Delta":222769203},{"NoteNumber":76,"Velocity":52,"Duration":88344,"SoundDuration":88344,"Delta":222769203},{"NoteNumber":60,"Velocity":50,"Duration":87220,"SoundDuration":87220,"Delta":222857547},{"NoteNumber":75,"Velocity":54,"Duration":87220,"SoundDuration":87220,"Delta":222857547},{"NoteNumber":59,"Velocity":51,"Duration":86487,"SoundDuration":86487,"Delta":222944768},{"NoteNumber":74,"Velocity":55,"Duration":86487,"SoundDuration":86487,"Delta":222944768},{"NoteNumber":58,"Velocity":53,"Duration":85461,"SoundDuration":85461,"Delta":223031255},{"NoteNumber":73,"Velocity":56,"Duration":85461,"SoundDuration":85461,"Delta":223031255},{"NoteNumber":57,"Velocity":54,"Duration":84706,"SoundDuration":84706,"Delta":223116717},{"NoteNumber":72,"Velocity":58,"Duration":168478,"SoundDuration":168478,"Delta":223116717},{"NoteNumber":56,"Velocity":55,"Duration":83771,"SoundDuration":83771,"Delta":223201424},{"NoteNumber":71,"Velocity":59,"Duration":83771,"SoundDuration":83771,"Delta":223201424},{"NoteNumber":62,"Velocity":57,"Duration":122950,"SoundDuration":122950,"Delta":223285195},{"NoteNumber":65,"Velocity":57,"Duration":122950,"SoundDuration":122950,"Delta":223285195},{"NoteNumber":70,"Velocity":62,"Duration":122950,"SoundDuration":122950,"Delta":223285195},{"NoteNumber":68,"Velocity":62,"Duration":122950,"SoundDuration":122950,"Delta":223285195},{"NoteNumber":53,"Velocity":41,"Duration":173971,"SoundDuration":173971,"Delta":223776999},{"NoteNumber":62,"Velocity":45,"Duration":173971,"SoundDuration":173971,"Delta":223776999},{"NoteNumber":56,"Velocity":41,"Duration":173971,"SoundDuration":173971,"Delta":223776999},{"NoteNumber":46,"Velocity":51,"Duration":77519,"SoundDuration":77519,"Delta":223776999},{"NoteNumber":47,"Velocity":53,"Duration":77221,"SoundDuration":77221,"Delta":223854518},{"NoteNumber":46,"Velocity":54,"Duration":76923,"SoundDuration":76923,"Delta":223931739},{"NoteNumber":45,"Velocity":56,"Duration":76335,"SoundDuration":76335,"Delta":224008663},{"NoteNumber":44,"Velocity":57,"Duration":76046,"SoundDuration":76046,"Delta":224084998},{"NoteNumber":43,"Velocity":58,"Duration":75472,"SoundDuration":75472,"Delta":224161045},{"NoteNumber":59,"Velocity":45,"Duration":178571,"SoundDuration":178571,"Delta":224236518},{"NoteNumber":63,"Velocity":51,"Duration":178571,"SoundDuration":178571,"Delta":224236518},{"NoteNumber":54,"Velocity":45,"Duration":178571,"SoundDuration":178571,"Delta":224236518},{"NoteNumber":42,"Velocity":60,"Duration":178571,"SoundDuration":178571,"Delta":224236518},{"NoteNumber":57,"Velocity":42,"Duration":190146,"SoundDuration":190146,"Delta":224712708},{"NoteNumber":60,"Velocity":42,"Duration":190146,"SoundDuration":190146,"Delta":224712708},{"NoteNumber":66,"Velocity":46,"Duration":190146,"SoundDuration":190146,"Delta":224712708},{"NoteNumber":39,"Velocity":57,"Duration":71428,"SoundDuration":71428,"Delta":224712708},{"NoteNumber":41,"Velocity":57,"Duration":71927,"SoundDuration":71927,"Delta":224784137},{"NoteNumber":39,"Velocity":56,"Duration":72469,"SoundDuration":72469,"Delta":224856064},{"NoteNumber":38,"Velocity":55,"Duration":73275,"SoundDuration":73275,"Delta":224928533},{"NoteNumber":37,"Velocity":55,"Duration":73838,"SoundDuration":73838,"Delta":225001809},{"NoteNumber":36,"Velocity":54,"Duration":78896,"SoundDuration":78896,"Delta":225075647},{"NoteNumber":35,"Velocity":54,"Duration":82997,"SoundDuration":82997,"Delta":225154544},{"NoteNumber":65,"Velocity":51,"Duration":588235,"SoundDuration":588235,"Delta":225237541},{"NoteNumber":62,"Velocity":45,"Duration":588235,"SoundDuration":588235,"Delta":225237541},{"NoteNumber":34,"Velocity":53,"Duration":588235,"SoundDuration":588235,"Delta":225237541},{"NoteNumber":53,"Velocity":38,"Duration":249999,"SoundDuration":249999,"Delta":225825776},{"NoteNumber":58,"Velocity":44,"Duration":249999,"SoundDuration":249999,"Delta":225825776},{"NoteNumber":50,"Velocity":49,"Duration":249999,"SoundDuration":249999,"Delta":225825776},{"NoteNumber":68,"Velocity":50,"Duration":895357,"SoundDuration":895357,"Delta":226492443},{"NoteNumber":64,"Velocity":50,"Duration":90909,"SoundDuration":90909,"Delta":226492443},{"NoteNumber":71,"Velocity":50,"Duration":895357,"SoundDuration":895357,"Delta":226492443},{"NoteNumber":80,"Velocity":50,"Duration":90909,"SoundDuration":90909,"Delta":226492443},{"NoteNumber":63,"Velocity":45,"Duration":90909,"SoundDuration":90909,"Delta":226583352},{"NoteNumber":79,"Velocity":48,"Duration":90909,"SoundDuration":90909,"Delta":226583352},{"NoteNumber":62,"Velocity":45,"Duration":90282,"SoundDuration":90282,"Delta":226674261},{"NoteNumber":78,"Velocity":49,"Duration":90282,"SoundDuration":90282,"Delta":226674261},{"NoteNumber":61,"Velocity":46,"Duration":90225,"SoundDuration":90225,"Delta":226764544},{"NoteNumber":77,"Velocity":50,"Duration":90225,"SoundDuration":90225,"Delta":226764544},{"NoteNumber":60,"Velocity":49,"Duration":89664,"SoundDuration":89664,"Delta":226854769},{"NoteNumber":76,"Velocity":52,"Duration":89664,"SoundDuration":89664,"Delta":226854769},{"NoteNumber":59,"Velocity":50,"Duration":89441,"SoundDuration":89441,"Delta":226944434},{"NoteNumber":75,"Velocity":54,"Duration":89441,"SoundDuration":89441,"Delta":226944434},{"NoteNumber":58,"Velocity":51,"Duration":88888,"SoundDuration":88888,"Delta":227033875},{"NoteNumber":74,"Velocity":55,"Duration":88888,"SoundDuration":88888,"Delta":227033875},{"NoteNumber":57,"Velocity":53,"Duration":88834,"SoundDuration":88834,"Delta":227122764},{"NoteNumber":73,"Velocity":56,"Duration":88834,"SoundDuration":88834,"Delta":227122764},{"NoteNumber":56,"Velocity":54,"Duration":88235,"SoundDuration":88235,"Delta":227211599},{"NoteNumber":72,"Velocity":58,"Duration":88235,"SoundDuration":88235,"Delta":227211599},{"NoteNumber":59,"Velocity":55,"Duration":87966,"SoundDuration":87966,"Delta":227299834},{"NoteNumber":71,"Velocity":59,"Duration":87966,"SoundDuration":87966,"Delta":227299834},{"NoteNumber":62,"Velocity":57,"Duration":122950,"SoundDuration":122950,"Delta":227387801},{"NoteNumber":65,"Velocity":57,"Duration":122950,"SoundDuration":122950,"Delta":227387801},{"NoteNumber":70,"Velocity":62,"Duration":122950,"SoundDuration":122950,"Delta":227387801},{"NoteNumber":68,"Velocity":62,"Duration":122950,"SoundDuration":122950,"Delta":227387801},{"NoteNumber":46,"Velocity":53,"Duration":574295,"SoundDuration":574295,"Delta":227818129},{"NoteNumber":62,"Velocity":45,"Duration":192307,"SoundDuration":192307,"Delta":227879604},{"NoteNumber":65,"Velocity":45,"Duration":192307,"SoundDuration":192307,"Delta":227879604},{"NoteNumber":74,"Velocity":52,"Duration":192307,"SoundDuration":192307,"Delta":227879604},{"NoteNumber":68,"Velocity":45,"Duration":192307,"SoundDuration":192307,"Delta":227879604},{"NoteNumber":58,"Velocity":59,"Duration":85470,"SoundDuration":85470,"Delta":227879604},{"NoteNumber":59,"Velocity":60,"Duration":85470,"SoundDuration":85470,"Delta":227965074},{"NoteNumber":58,"Velocity":62,"Duration":85470,"SoundDuration":85470,"Delta":228050545},{"NoteNumber":57,"Velocity":62,"Duration":85470,"SoundDuration":85470,"Delta":228136015},{"NoteNumber":56,"Velocity":63,"Duration":85470,"SoundDuration":85470,"Delta":228221485},{"NoteNumber":55,"Velocity":63,"Duration":85470,"SoundDuration":85470,"Delta":228306955},{"NoteNumber":63,"Velocity":60,"Duration":185950,"SoundDuration":185950,"Delta":228392425},{"NoteNumber":71,"Velocity":60,"Duration":185950,"SoundDuration":185950,"Delta":228392425},{"NoteNumber":75,"Velocity":67,"Duration":185950,"SoundDuration":185950,"Delta":228392425},{"NoteNumber":66,"Velocity":60,"Duration":185950,"SoundDuration":185950,"Delta":228392425},{"NoteNumber":42,"Velocity":56,"Duration":185950,"SoundDuration":185950,"Delta":228392425},{"NoteNumber":54,"Velocity":63,"Duration":185950,"SoundDuration":185950,"Delta":228392425},{"NoteNumber":39,"Velocity":57,"Duration":619848,"SoundDuration":619848,"Delta":228826309},{"NoteNumber":66,"Velocity":60,"Duration":197010,"SoundDuration":197010,"Delta":228888293},{"NoteNumber":69,"Velocity":60,"Duration":197010,"SoundDuration":197010,"Delta":228888293},{"NoteNumber":72,"Velocity":60,"Duration":197010,"SoundDuration":197010,"Delta":228888293},{"NoteNumber":78,"Velocity":67,"Duration":197010,"SoundDuration":197010,"Delta":228888293},{"NoteNumber":51,"Velocity":64,"Duration":73538,"SoundDuration":73538,"Delta":228888293},{"NoteNumber":53,"Velocity":64,"Duration":74602,"SoundDuration":74602,"Delta":228961831},{"NoteNumber":51,"Velocity":64,"Duration":75696,"SoundDuration":75696,"Delta":229036433},{"NoteNumber":50,"Velocity":64,"Duration":76904,"SoundDuration":76904,"Delta":229112129},{"NoteNumber":49,"Velocity":64,"Duration":78110,"SoundDuration":78110,"Delta":229189034},{"NoteNumber":48,"Velocity":64,"Duration":83904,"SoundDuration":83904,"Delta":229267144},{"NoteNumber":47,"Velocity":64,"Duration":95108,"SoundDuration":95108,"Delta":229351049},{"NoteNumber":34,"Velocity":69,"Duration":734601,"SoundDuration":734601,"Delta":229378223},{"NoteNumber":46,"Velocity":77,"Duration":1332125,"SoundDuration":1332125,"Delta":229391810},{"NoteNumber":65,"Velocity":63,"Duration":707427,"SoundDuration":707427,"Delta":229405397},{"NoteNumber":70,"Velocity":63,"Duration":693840,"SoundDuration":693840,"Delta":229418984},{"NoteNumber":74,"Velocity":63,"Duration":680253,"SoundDuration":680253,"Delta":229432571},{"NoteNumber":82,"Velocity":79,"Duration":666666,"SoundDuration":666666,"Delta":229446158},{"NoteNumber":58,"Velocity":65,"Duration":249999,"SoundDuration":249999,"Delta":230112824},{"NoteNumber":53,"Velocity":65,"Duration":249999,"SoundDuration":249999,"Delta":230112824},{"NoteNumber":50,"Velocity":58,"Duration":249999,"SoundDuration":249999,"Delta":230112824},{"NoteNumber":70,"Velocity":72,"Duration":116279,"SoundDuration":116279,"Delta":230779491},{"NoteNumber":82,"Velocity":80,"Duration":174418,"SoundDuration":174418,"Delta":230779491},{"NoteNumber":81,"Velocity":63,"Duration":58139,"SoundDuration":58139,"Delta":230953909},{"NoteNumber":93,"Velocity":70,"Duration":58139,"SoundDuration":58139,"Delta":230953909},{"NoteNumber":68,"Velocity":69,"Duration":98673,"SoundDuration":98673,"Delta":231012049},{"NoteNumber":80,"Velocity":69,"Duration":98673,"SoundDuration":98673,"Delta":231012049},{"NoteNumber":91,"Velocity":71,"Duration":99823,"SoundDuration":99823,"Delta":231089568},{"NoteNumber":79,"Velocity":63,"Duration":99823,"SoundDuration":99823,"Delta":231089568},{"NoteNumber":66,"Velocity":63,"Duration":100957,"SoundDuration":100957,"Delta":231166491},{"NoteNumber":78,"Velocity":71,"Duration":100957,"SoundDuration":100957,"Delta":231166491},{"NoteNumber":89,"Velocity":73,"Duration":102073,"SoundDuration":102073,"Delta":231242827},{"NoteNumber":77,"Velocity":65,"Duration":102073,"SoundDuration":102073,"Delta":231242827},{"NoteNumber":64,"Velocity":65,"Duration":103173,"SoundDuration":103173,"Delta":231318585},{"NoteNumber":76,"Velocity":73,"Duration":103173,"SoundDuration":103173,"Delta":231318585},{"NoteNumber":87,"Velocity":76,"Duration":104256,"SoundDuration":104256,"Delta":231393773},{"NoteNumber":75,"Velocity":67,"Duration":104256,"SoundDuration":104256,"Delta":231393773},{"NoteNumber":62,"Velocity":67,"Duration":105324,"SoundDuration":105324,"Delta":231468400},{"NoteNumber":74,"Velocity":76,"Duration":105324,"SoundDuration":105324,"Delta":231468400},{"NoteNumber":85,"Velocity":79,"Duration":106376,"SoundDuration":106376,"Delta":231542474},{"NoteNumber":73,"Velocity":71,"Duration":106376,"SoundDuration":106376,"Delta":231542474},{"NoteNumber":60,"Velocity":71,"Duration":107412,"SoundDuration":107412,"Delta":231616003},{"NoteNumber":72,"Velocity":79,"Duration":107412,"SoundDuration":107412,"Delta":231616003},{"NoteNumber":83,"Velocity":82,"Duration":117508,"SoundDuration":117508,"Delta":231688996},{"NoteNumber":71,"Velocity":73,"Duration":117508,"SoundDuration":117508,"Delta":231688996},{"NoteNumber":58,"Velocity":81,"Duration":270270,"SoundDuration":270270,"Delta":231761460},{"NoteNumber":70,"Velocity":90,"Duration":270270,"SoundDuration":270270,"Delta":231761460},{"NoteNumber":50,"Velocity":64,"Duration":606060,"SoundDuration":606060,"Delta":232302000},{"NoteNumber":53,"Velocity":64,"Duration":606060,"SoundDuration":606060,"Delta":232302000},{"NoteNumber":58,"Velocity":64,"Duration":606060,"SoundDuration":606060,"Delta":232302000},{"NoteNumber":62,"Velocity":72,"Duration":606060,"SoundDuration":606060,"Delta":232302000},{"NoteNumber":34,"Velocity":64,"Duration":606060,"SoundDuration":606060,"Delta":232302000},{"NoteNumber":41,"Velocity":64,"Duration":606060,"SoundDuration":606060,"Delta":232302000},{"NoteNumber":46,"Velocity":64,"Duration":606060,"SoundDuration":606060,"Delta":232302000},{"NoteNumber":74,"Velocity":72,"Duration":174418,"SoundDuration":174418,"Delta":232908061},{"NoteNumber":86,"Velocity":80,"Duration":174418,"SoundDuration":174418,"Delta":232908061},{"NoteNumber":85,"Velocity":63,"Duration":58139,"SoundDuration":58139,"Delta":233082479},{"NoteNumber":97,"Velocity":70,"Duration":58139,"SoundDuration":58139,"Delta":233082479},{"NoteNumber":72,"Velocity":62,"Duration":98673,"SoundDuration":98673,"Delta":233140619},{"NoteNumber":84,"Velocity":69,"Duration":98673,"SoundDuration":98673,"Delta":233140619},{"NoteNumber":95,"Velocity":71,"Duration":99823,"SoundDuration":99823,"Delta":233218138},{"NoteNumber":83,"Velocity":63,"Duration":99823,"SoundDuration":99823,"Delta":233218138},{"NoteNumber":70,"Velocity":63,"Duration":100957,"SoundDuration":100957,"Delta":233295061},{"NoteNumber":82,"Velocity":71,"Duration":100957,"SoundDuration":100957,"Delta":233295061},{"NoteNumber":93,"Velocity":73,"Duration":102073,"SoundDuration":102073,"Delta":233371397},{"NoteNumber":81,"Velocity":65,"Duration":102073,"SoundDuration":102073,"Delta":233371397},{"NoteNumber":68,"Velocity":65,"Duration":103173,"SoundDuration":103173,"Delta":233447155},{"NoteNumber":80,"Velocity":73,"Duration":103173,"SoundDuration":103173,"Delta":233447155},{"NoteNumber":91,"Velocity":76,"Duration":104256,"SoundDuration":104256,"Delta":233522343},{"NoteNumber":79,"Velocity":67,"Duration":104256,"SoundDuration":104256,"Delta":233522343},{"NoteNumber":66,"Velocity":67,"Duration":105324,"SoundDuration":105324,"Delta":233596970},{"NoteNumber":78,"Velocity":76,"Duration":105324,"SoundDuration":105324,"Delta":233596970},{"NoteNumber":89,"Velocity":79,"Duration":106376,"SoundDuration":106376,"Delta":233671044},{"NoteNumber":77,"Velocity":71,"Duration":106376,"SoundDuration":106376,"Delta":233671044},{"NoteNumber":64,"Velocity":71,"Duration":107412,"SoundDuration":107412,"Delta":233744573},{"NoteNumber":76,"Velocity":79,"Duration":107412,"SoundDuration":107412,"Delta":233744573},{"NoteNumber":87,"Velocity":82,"Duration":117508,"SoundDuration":117508,"Delta":233817566},{"NoteNumber":75,"Velocity":73,"Duration":117508,"SoundDuration":117508,"Delta":233817566},{"NoteNumber":62,"Velocity":81,"Duration":270270,"SoundDuration":270270,"Delta":233890030},{"NoteNumber":74,"Velocity":90,"Duration":270270,"SoundDuration":270270,"Delta":233890030},{"NoteNumber":65,"Velocity":72,"Duration":540540,"SoundDuration":540540,"Delta":234430570},{"NoteNumber":53,"Velocity":64,"Duration":540540,"SoundDuration":540540,"Delta":234430570},{"NoteNumber":58,"Velocity":64,"Duration":540540,"SoundDuration":540540,"Delta":234430570},{"NoteNumber":62,"Velocity":64,"Duration":540540,"SoundDuration":540540,"Delta":234430570},{"NoteNumber":34,"Velocity":64,"Duration":540540,"SoundDuration":540540,"Delta":234430570},{"NoteNumber":41,"Velocity":64,"Duration":540540,"SoundDuration":540540,"Delta":234430570},{"NoteNumber":50,"Velocity":64,"Duration":540540,"SoundDuration":540540,"Delta":234430570},{"NoteNumber":77,"Velocity":66,"Duration":121951,"SoundDuration":121951,"Delta":234971111},{"NoteNumber":89,"Velocity":74,"Duration":121951,"SoundDuration":121951,"Delta":234971111},{"NoteNumber":88,"Velocity":59,"Duration":121951,"SoundDuration":121951,"Delta":235093062},{"NoteNumber":100,"Velocity":66,"Duration":121951,"SoundDuration":121951,"Delta":235093062},{"NoteNumber":75,"Velocity":66,"Duration":76335,"SoundDuration":76335,"Delta":235215013},{"NoteNumber":87,"Velocity":74,"Duration":76335,"SoundDuration":76335,"Delta":235215013},{"NoteNumber":98,"Velocity":66,"Duration":75472,"SoundDuration":75472,"Delta":235291349},{"NoteNumber":86,"Velocity":59,"Duration":75472,"SoundDuration":75472,"Delta":235291349},{"NoteNumber":73,"Velocity":67,"Duration":74350,"SoundDuration":74350,"Delta":235366822},{"NoteNumber":85,"Velocity":76,"Duration":74350,"SoundDuration":74350,"Delta":235366822},{"NoteNumber":96,"Velocity":67,"Duration":73529,"SoundDuration":73529,"Delta":235441172},{"NoteNumber":84,"Velocity":60,"Duration":73529,"SoundDuration":73529,"Delta":235441172},{"NoteNumber":71,"Velocity":69,"Duration":72728,"SoundDuration":72728,"Delta":235514702},{"NoteNumber":83,"Velocity":77,"Duration":72728,"SoundDuration":72728,"Delta":235514702},{"NoteNumber":94,"Velocity":67,"Duration":72463,"SoundDuration":72463,"Delta":235587430},{"NoteNumber":82,"Velocity":60,"Duration":72463,"SoundDuration":72463,"Delta":235587430},{"NoteNumber":69,"Velocity":70,"Duration":72463,"SoundDuration":72463,"Delta":235659894},{"NoteNumber":81,"Velocity":78,"Duration":72463,"SoundDuration":72463,"Delta":235659894},{"NoteNumber":92,"Velocity":69,"Duration":72463,"SoundDuration":72463,"Delta":235732357},{"NoteNumber":80,"Velocity":62,"Duration":72463,"SoundDuration":72463,"Delta":235732357},{"NoteNumber":67,"Velocity":71,"Duration":72463,"SoundDuration":72463,"Delta":235804821},{"NoteNumber":79,"Velocity":79,"Duration":72463,"SoundDuration":72463,"Delta":235804821},{"NoteNumber":90,"Velocity":69,"Duration":72463,"SoundDuration":72463,"Delta":235877285},{"NoteNumber":78,"Velocity":62,"Duration":72463,"SoundDuration":72463,"Delta":235877285},{"NoteNumber":65,"Velocity":71,"Duration":72463,"SoundDuration":72463,"Delta":235949749},{"NoteNumber":77,"Velocity":79,"Duration":72463,"SoundDuration":72463,"Delta":235949749},{"NoteNumber":76,"Velocity":63,"Duration":72463,"SoundDuration":72463,"Delta":236022212},{"NoteNumber":88,"Velocity":70,"Duration":72463,"SoundDuration":72463,"Delta":236022212},{"NoteNumber":63,"Velocity":72,"Duration":72463,"SoundDuration":72463,"Delta":236094676},{"NoteNumber":75,"Velocity":80,"Duration":72463,"SoundDuration":72463,"Delta":236094676},{"NoteNumber":86,"Velocity":70,"Duration":72463,"SoundDuration":72463,"Delta":236167140},{"NoteNumber":74,"Velocity":63,"Duration":72463,"SoundDuration":72463,"Delta":236167140},{"NoteNumber":61,"Velocity":72,"Duration":72463,"SoundDuration":72463,"Delta":236239604},{"NoteNumber":73,"Velocity":81,"Duration":81521,"SoundDuration":81521,"Delta":236239604},{"NoteNumber":84,"Velocity":71,"Duration":81521,"SoundDuration":81521,"Delta":236312067},{"NoteNumber":72,"Velocity":63,"Duration":81521,"SoundDuration":81521,"Delta":236312067},{"NoteNumber":59,"Velocity":73,"Duration":81521,"SoundDuration":81521,"Delta":236384531},{"NoteNumber":71,"Velocity":82,"Duration":90579,"SoundDuration":90579,"Delta":236384531},{"NoteNumber":82,"Velocity":71,"Duration":90579,"SoundDuration":90579,"Delta":236456995},{"NoteNumber":70,"Velocity":63,"Duration":90579,"SoundDuration":90579,"Delta":236456995},{"NoteNumber":57,"Velocity":73,"Duration":90579,"SoundDuration":90579,"Delta":236529459},{"NoteNumber":69,"Velocity":82,"Duration":90579,"SoundDuration":90579,"Delta":236529459},{"NoteNumber":80,"Velocity":72,"Duration":90579,"SoundDuration":90579,"Delta":236601922},{"NoteNumber":68,"Velocity":64,"Duration":90579,"SoundDuration":90579,"Delta":236601922},{"NoteNumber":55,"Velocity":73,"Duration":90579,"SoundDuration":90579,"Delta":236674386},{"NoteNumber":67,"Velocity":83,"Duration":90579,"SoundDuration":90579,"Delta":236674386},{"NoteNumber":78,"Velocity":72,"Duration":90579,"SoundDuration":90579,"Delta":236746850},{"NoteNumber":66,"Velocity":64,"Duration":90579,"SoundDuration":90579,"Delta":236746850},{"NoteNumber":53,"Velocity":74,"Duration":90579,"SoundDuration":90579,"Delta":236819314},{"NoteNumber":65,"Velocity":84,"Duration":90579,"SoundDuration":90579,"Delta":236819314},{"NoteNumber":64,"Velocity":64,"Duration":90711,"SoundDuration":90711,"Delta":236891777},{"NoteNumber":76,"Velocity":72,"Duration":90711,"SoundDuration":90711,"Delta":236891777},{"NoteNumber":51,"Velocity":76,"Duration":93065,"SoundDuration":93065,"Delta":236964241},{"NoteNumber":63,"Velocity":85,"Duration":93065,"SoundDuration":93065,"Delta":236964241},{"NoteNumber":74,"Velocity":72,"Duration":95051,"SoundDuration":95051,"Delta":237037234},{"NoteNumber":62,"Velocity":64,"Duration":95051,"SoundDuration":95051,"Delta":237037234},{"NoteNumber":49,"Velocity":77,"Duration":97426,"SoundDuration":97426,"Delta":237110227},{"NoteNumber":61,"Velocity":86,"Duration":97426,"SoundDuration":97426,"Delta":237110227},{"NoteNumber":72,"Velocity":73,"Duration":99455,"SoundDuration":99455,"Delta":237183756},{"NoteNumber":60,"Velocity":65,"Duration":99455,"SoundDuration":99455,"Delta":237183756},{"NoteNumber":47,"Velocity":77,"Duration":101851,"SoundDuration":101851,"Delta":237257285},{"NoteNumber":59,"Velocity":86,"Duration":101851,"SoundDuration":101851,"Delta":237257285},{"NoteNumber":70,"Velocity":73,"Duration":103924,"SoundDuration":103924,"Delta":237331359},{"NoteNumber":58,"Velocity":65,"Duration":103924,"SoundDuration":103924,"Delta":237331359},{"NoteNumber":45,"Velocity":78,"Duration":106343,"SoundDuration":106343,"Delta":237405434},{"NoteNumber":57,"Velocity":87,"Duration":106343,"SoundDuration":106343,"Delta":237405434},{"NoteNumber":68,"Velocity":73,"Duration":108461,"SoundDuration":108461,"Delta":237480060},{"NoteNumber":56,"Velocity":65,"Duration":108461,"SoundDuration":108461,"Delta":237480060},{"NoteNumber":41,"Velocity":79,"Duration":110902,"SoundDuration":110902,"Delta":237554687},{"NoteNumber":53,"Velocity":88,"Duration":110902,"SoundDuration":110902,"Delta":237554687},{"NoteNumber":62,"Velocity":73,"Duration":113066,"SoundDuration":113066,"Delta":237629875},{"NoteNumber":50,"Velocity":65,"Duration":113066,"SoundDuration":113066,"Delta":237629875},{"NoteNumber":34,"Velocity":84,"Duration":453980,"SoundDuration":453980,"Delta":237705063},{"NoteNumber":46,"Velocity":94,"Duration":453980,"SoundDuration":453980,"Delta":237705063},{"NoteNumber":45,"Velocity":74,"Duration":74078,"SoundDuration":74078,"Delta":238159043},{"NoteNumber":33,"Velocity":74,"Duration":74078,"SoundDuration":74078,"Delta":238159043},{"NoteNumber":46,"Velocity":72,"Duration":73261,"SoundDuration":73261,"Delta":238233121},{"NoteNumber":34,"Velocity":72,"Duration":73261,"SoundDuration":73261,"Delta":238233121},{"NoteNumber":50,"Velocity":72,"Duration":81456,"SoundDuration":81456,"Delta":238306382},{"NoteNumber":38,"Velocity":72,"Duration":81456,"SoundDuration":81456,"Delta":238306382},{"NoteNumber":53,"Velocity":73,"Duration":82656,"SoundDuration":82656,"Delta":238378846},{"NoteNumber":41,"Velocity":73,"Duration":82656,"SoundDuration":82656,"Delta":238378846},{"NoteNumber":56,"Velocity":73,"Duration":83249,"SoundDuration":83249,"Delta":238450789},{"NoteNumber":44,"Velocity":73,"Duration":83249,"SoundDuration":83249,"Delta":238450789},{"NoteNumber":58,"Velocity":74,"Duration":84311,"SoundDuration":84311,"Delta":238521714},{"NoteNumber":46,"Velocity":74,"Duration":84311,"SoundDuration":84311,"Delta":238521714},{"NoteNumber":62,"Velocity":74,"Duration":85069,"SoundDuration":85069,"Delta":238592137},{"NoteNumber":50,"Velocity":74,"Duration":85069,"SoundDuration":85069,"Delta":238592137},{"NoteNumber":65,"Velocity":76,"Duration":86805,"SoundDuration":86805,"Delta":238661581},{"NoteNumber":53,"Velocity":76,"Duration":86805,"SoundDuration":86805,"Delta":238661581},{"NoteNumber":68,"Velocity":76,"Duration":69444,"SoundDuration":69444,"Delta":238731026},{"NoteNumber":56,"Velocity":76,"Duration":69444,"SoundDuration":69444,"Delta":238731026},{"NoteNumber":70,"Velocity":77,"Duration":69444,"SoundDuration":69444,"Delta":238800470},{"NoteNumber":58,"Velocity":77,"Duration":69444,"SoundDuration":69444,"Delta":238800470},{"NoteNumber":74,"Velocity":77,"Duration":69444,"SoundDuration":69444,"Delta":238869914},{"NoteNumber":62,"Velocity":77,"Duration":69444,"SoundDuration":69444,"Delta":238869914},{"NoteNumber":77,"Velocity":77,"Duration":69444,"SoundDuration":69444,"Delta":238939359},{"NoteNumber":65,"Velocity":77,"Duration":69444,"SoundDuration":69444,"Delta":238939359},{"NoteNumber":80,"Velocity":78,"Duration":83430,"SoundDuration":83430,"Delta":239008803},{"NoteNumber":68,"Velocity":78,"Duration":83430,"SoundDuration":83430,"Delta":239008803},{"NoteNumber":82,"Velocity":78,"Duration":83916,"SoundDuration":83916,"Delta":239092234},{"NoteNumber":70,"Velocity":78,"Duration":83916,"SoundDuration":83916,"Delta":239092234},{"NoteNumber":86,"Velocity":79,"Duration":84457,"SoundDuration":84457,"Delta":239176150},{"NoteNumber":74,"Velocity":79,"Duration":84457,"SoundDuration":84457,"Delta":239176150},{"NoteNumber":89,"Velocity":80,"Duration":84507,"SoundDuration":84507,"Delta":239260607},{"NoteNumber":77,"Velocity":80,"Duration":84507,"SoundDuration":84507,"Delta":239260607},{"NoteNumber":92,"Velocity":80,"Duration":84507,"SoundDuration":84507,"Delta":239345114},{"NoteNumber":80,"Velocity":80,"Duration":84507,"SoundDuration":84507,"Delta":239345114},{"NoteNumber":93,"Velocity":81,"Duration":52083,"SoundDuration":52083,"Delta":239429621},{"NoteNumber":81,"Velocity":81,"Duration":52083,"SoundDuration":52083,"Delta":239429621},{"NoteNumber":96,"Velocity":78,"Duration":62431,"SoundDuration":62431,"Delta":239500455},{"NoteNumber":84,"Velocity":78,"Duration":62431,"SoundDuration":62431,"Delta":239500455},{"NoteNumber":94,"Velocity":77,"Duration":61983,"SoundDuration":61983,"Delta":239571150},{"NoteNumber":82,"Velocity":77,"Duration":61983,"SoundDuration":61983,"Delta":239571150},{"NoteNumber":92,"Velocity":77,"Duration":61780,"SoundDuration":61780,"Delta":239641398},{"NoteNumber":80,"Velocity":77,"Duration":61780,"SoundDuration":61780,"Delta":239641398},{"NoteNumber":89,"Velocity":77,"Duration":60943,"SoundDuration":60943,"Delta":239711375},{"NoteNumber":77,"Velocity":77,"Duration":60943,"SoundDuration":60943,"Delta":239711375},{"NoteNumber":86,"Velocity":77,"Duration":60161,"SoundDuration":60161,"Delta":239780384},{"NoteNumber":74,"Velocity":77,"Duration":60161,"SoundDuration":60161,"Delta":239780384},{"NoteNumber":82,"Velocity":77,"Duration":60000,"SoundDuration":60000,"Delta":239848545},{"NoteNumber":70,"Velocity":77,"Duration":60000,"SoundDuration":60000,"Delta":239848545},{"NoteNumber":81,"Velocity":81,"Duration":59523,"SoundDuration":59523,"Delta":239920545},{"NoteNumber":69,"Velocity":81,"Duration":59523,"SoundDuration":59523,"Delta":239920545},{"NoteNumber":84,"Velocity":78,"Duration":67022,"SoundDuration":67022,"Delta":239988005},{"NoteNumber":72,"Velocity":78,"Duration":67022,"SoundDuration":67022,"Delta":239988005},{"NoteNumber":82,"Velocity":77,"Duration":66929,"SoundDuration":66929,"Delta":240055028},{"NoteNumber":70,"Velocity":77,"Duration":66929,"SoundDuration":66929,"Delta":240055028},{"NoteNumber":80,"Velocity":77,"Duration":66929,"SoundDuration":66929,"Delta":240121957},{"NoteNumber":68,"Velocity":77,"Duration":66929,"SoundDuration":66929,"Delta":240121957},{"NoteNumber":77,"Velocity":77,"Duration":66929,"SoundDuration":66929,"Delta":240188887},{"NoteNumber":65,"Velocity":77,"Duration":66929,"SoundDuration":66929,"Delta":240188887},{"NoteNumber":74,"Velocity":77,"Duration":66929,"SoundDuration":66929,"Delta":240255816},{"NoteNumber":62,"Velocity":77,"Duration":66929,"SoundDuration":66929,"Delta":240255816},{"NoteNumber":70,"Velocity":77,"Duration":66929,"SoundDuration":66929,"Delta":240322745},{"NoteNumber":58,"Velocity":77,"Duration":66929,"SoundDuration":66929,"Delta":240322745},{"NoteNumber":69,"Velocity":81,"Duration":59055,"SoundDuration":59055,"Delta":240393611},{"NoteNumber":57,"Velocity":81,"Duration":59055,"SoundDuration":59055,"Delta":240393611},{"NoteNumber":72,"Velocity":78,"Duration":66929,"SoundDuration":66929,"Delta":240460540},{"NoteNumber":60,"Velocity":78,"Duration":66929,"SoundDuration":66929,"Delta":240460540},{"NoteNumber":70,"Velocity":77,"Duration":66929,"SoundDuration":66929,"Delta":240527469},{"NoteNumber":58,"Velocity":77,"Duration":66929,"SoundDuration":66929,"Delta":240527469},{"NoteNumber":68,"Velocity":77,"Duration":66929,"SoundDuration":66929,"Delta":240594398},{"NoteNumber":56,"Velocity":77,"Duration":66929,"SoundDuration":66929,"Delta":240594398},{"NoteNumber":65,"Velocity":77,"Duration":66929,"SoundDuration":66929,"Delta":240661328},{"NoteNumber":53,"Velocity":77,"Duration":66929,"SoundDuration":66929,"Delta":240661328},{"NoteNumber":62,"Velocity":77,"Duration":66929,"SoundDuration":66929,"Delta":240728257},{"NoteNumber":50,"Velocity":77,"Duration":66929,"SoundDuration":66929,"Delta":240728257},{"NoteNumber":58,"Velocity":76,"Duration":66929,"SoundDuration":66929,"Delta":240795186},{"NoteNumber":46,"Velocity":76,"Duration":66929,"SoundDuration":66929,"Delta":240795186},{"NoteNumber":57,"Velocity":78,"Duration":89414,"SoundDuration":89414,"Delta":240866052},{"NoteNumber":45,"Velocity":78,"Duration":89414,"SoundDuration":89414,"Delta":240866052},{"NoteNumber":58,"Velocity":80,"Duration":90162,"SoundDuration":90162,"Delta":240951869},{"NoteNumber":46,"Velocity":80,"Duration":90162,"SoundDuration":90162,"Delta":240951869},{"NoteNumber":62,"Velocity":83,"Duration":91268,"SoundDuration":91268,"Delta":241038409},{"NoteNumber":50,"Velocity":83,"Duration":91268,"SoundDuration":91268,"Delta":241038409},{"NoteNumber":65,"Velocity":85,"Duration":101633,"SoundDuration":101633,"Delta":241126001},{"NoteNumber":53,"Velocity":85,"Duration":101633,"SoundDuration":101633,"Delta":241126001},{"NoteNumber":68,"Velocity":88,"Duration":89722,"SoundDuration":89722,"Delta":241214672},{"NoteNumber":56,"Velocity":88,"Duration":89722,"SoundDuration":89722,"Delta":241214672},{"NoteNumber":45,"Velocity":73,"Duration":441176,"SoundDuration":441176,"Delta":241304394},{"NoteNumber":57,"Velocity":92,"Duration":441176,"SoundDuration":441176,"Delta":241304394},{"NoteNumber":58,"Velocity":77,"Duration":79831,"SoundDuration":79831,"Delta":241848511},{"NoteNumber":70,"Velocity":91,"Duration":79831,"SoundDuration":79831,"Delta":241848511},{"NoteNumber":51,"Velocity":59,"Duration":130109,"SoundDuration":130109,"Delta":241928343},{"NoteNumber":63,"Velocity":75,"Duration":130109,"SoundDuration":130109,"Delta":241928343},{"NoteNumber":74,"Velocity":74,"Duration":126098,"SoundDuration":126098,"Delta":242016875},{"NoteNumber":62,"Velocity":74,"Duration":126098,"SoundDuration":126098,"Delta":242016875},{"NoteNumber":49,"Velocity":60,"Duration":121861,"SoundDuration":121861,"Delta":242102973},{"NoteNumber":61,"Velocity":76,"Duration":121861,"SoundDuration":121861,"Delta":242102973},{"NoteNumber":72,"Velocity":77,"Duration":118242,"SoundDuration":118242,"Delta":242185874},{"NoteNumber":60,"Velocity":64,"Duration":118242,"SoundDuration":118242,"Delta":242185874},{"NoteNumber":47,"Velocity":63,"Duration":115487,"SoundDuration":115487,"Delta":242266221},{"NoteNumber":59,"Velocity":78,"Duration":115487,"SoundDuration":115487,"Delta":242266221},{"NoteNumber":70,"Velocity":78,"Duration":112314,"SoundDuration":112314,"Delta":242344741},{"NoteNumber":58,"Velocity":65,"Duration":112314,"SoundDuration":112314,"Delta":242344741},{"NoteNumber":45,"Velocity":64,"Duration":108942,"SoundDuration":108942,"Delta":242421342},{"NoteNumber":57,"Velocity":81,"Duration":108942,"SoundDuration":108942,"Delta":242421342},{"NoteNumber":68,"Velocity":81,"Duration":105978,"SoundDuration":105978,"Delta":242495401},{"NoteNumber":56,"Velocity":68,"Duration":105978,"SoundDuration":105978,"Delta":242495401},{"NoteNumber":43,"Velocity":65,"Duration":103195,"SoundDuration":103195,"Delta":242567414},{"NoteNumber":55,"Velocity":81,"Duration":103195,"SoundDuration":103195,"Delta":242567414},{"NoteNumber":66,"Velocity":81,"Duration":101092,"SoundDuration":101092,"Delta":242637490},{"NoteNumber":54,"Velocity":69,"Duration":101092,"SoundDuration":101092,"Delta":242637490},{"NoteNumber":41,"Velocity":66,"Duration":98500,"SoundDuration":98500,"Delta":242706324},{"NoteNumber":53,"Velocity":84,"Duration":98500,"SoundDuration":98500,"Delta":242706324},{"NoteNumber":64,"Velocity":84,"Duration":96070,"SoundDuration":96070,"Delta":242773245},{"NoteNumber":52,"Velocity":72,"Duration":96070,"SoundDuration":96070,"Delta":242773245},{"NoteNumber":39,"Velocity":69,"Duration":93778,"SoundDuration":93778,"Delta":242838492},{"NoteNumber":51,"Velocity":87,"Duration":93778,"SoundDuration":93778,"Delta":242838492},{"NoteNumber":62,"Velocity":86,"Duration":92038,"SoundDuration":92038,"Delta":242902144},{"NoteNumber":50,"Velocity":72,"Duration":92038,"SoundDuration":92038,"Delta":242902144},{"NoteNumber":49,"Velocity":89,"Duration":89885,"SoundDuration":89885,"Delta":242964770},{"NoteNumber":37,"Velocity":89,"Duration":89885,"SoundDuration":89885,"Delta":242964770},{"NoteNumber":48,"Velocity":73,"Duration":87857,"SoundDuration":87857,"Delta":243025809},{"NoteNumber":60,"Velocity":88,"Duration":87857,"SoundDuration":87857,"Delta":243025809},{"NoteNumber":35,"Velocity":72,"Duration":101131,"SoundDuration":101131,"Delta":243085452},{"NoteNumber":47,"Velocity":90,"Duration":101131,"SoundDuration":101131,"Delta":243085452},{"NoteNumber":34,"Velocity":69,"Duration":187500,"SoundDuration":187500,"Delta":243155333},{"NoteNumber":46,"Velocity":87,"Duration":187500,"SoundDuration":187500,"Delta":243155333},{"NoteNumber":63,"Velocity":72,"Duration":227272,"SoundDuration":227272,"Delta":243655333},{"NoteNumber":67,"Velocity":72,"Duration":227272,"SoundDuration":227272,"Delta":243655333},{"NoteNumber":75,"Velocity":81,"Duration":227272,"SoundDuration":227272,"Delta":243655333},{"NoteNumber":51,"Velocity":71,"Duration":227272,"SoundDuration":227272,"Delta":243655333},{"NoteNumber":39,"Velocity":71,"Duration":227272,"SoundDuration":227272,"Delta":243655333},{"NoteNumber":46,"Velocity":71,"Duration":227272,"SoundDuration":227272,"Delta":243655333},{"NoteNumber":65,"Velocity":78,"Duration":233644,"SoundDuration":233644,"Delta":244200788},{"NoteNumber":68,"Velocity":78,"Duration":233644,"SoundDuration":233644,"Delta":244200788},{"NoteNumber":77,"Velocity":87,"Duration":233644,"SoundDuration":233644,"Delta":244200788},{"NoteNumber":53,"Velocity":73,"Duration":233644,"SoundDuration":233644,"Delta":244200788},{"NoteNumber":39,"Velocity":73,"Duration":233644,"SoundDuration":233644,"Delta":244200788},{"NoteNumber":46,"Velocity":73,"Duration":233644,"SoundDuration":233644,"Delta":244200788},{"NoteNumber":66,"Velocity":72,"Duration":247524,"SoundDuration":247524,"Delta":244761535},{"NoteNumber":69,"Velocity":72,"Duration":247524,"SoundDuration":247524,"Delta":244761535},{"NoteNumber":78,"Velocity":81,"Duration":247524,"SoundDuration":247524,"Delta":244761535},{"NoteNumber":54,"Velocity":71,"Duration":247524,"SoundDuration":247524,"Delta":244761535},{"NoteNumber":39,"Velocity":71,"Duration":247524,"SoundDuration":247524,"Delta":244761535},{"NoteNumber":46,"Velocity":71,"Duration":247524,"SoundDuration":247524,"Delta":244761535},{"NoteNumber":70,"Velocity":78,"Duration":645161,"SoundDuration":645161,"Delta":245355595},{"NoteNumber":67,"Velocity":78,"Duration":645161,"SoundDuration":645161,"Delta":245355595},{"NoteNumber":79,"Velocity":87,"Duration":645161,"SoundDuration":645161,"Delta":245355595},{"NoteNumber":55,"Velocity":73,"Duration":645161,"SoundDuration":645161,"Delta":245355595},{"NoteNumber":39,"Velocity":73,"Duration":1227686,"SoundDuration":1227686,"Delta":245355595},{"NoteNumber":46,"Velocity":73,"Duration":1227686,"SoundDuration":1227686,"Delta":245355595},{"NoteNumber":63,"Velocity":72,"Duration":291262,"SoundDuration":291262,"Delta":246000756},{"NoteNumber":75,"Velocity":80,"Duration":291262,"SoundDuration":291262,"Delta":246000756},{"NoteNumber":51,"Velocity":71,"Duration":291262,"SoundDuration":291262,"Delta":246000756},{"NoteNumber":45,"Velocity":71,"Duration":160714,"SoundDuration":160714,"Delta":246583281},{"NoteNumber":57,"Velocity":80,"Duration":160714,"SoundDuration":160714,"Delta":246583281},{"NoteNumber":58,"Velocity":72,"Duration":53195,"SoundDuration":53195,"Delta":246765423},{"NoteNumber":70,"Velocity":81,"Duration":53195,"SoundDuration":53195,"Delta":246765423},{"NoteNumber":55,"Velocity":67,"Duration":132131,"SoundDuration":132131,"Delta":246818619},{"NoteNumber":67,"Velocity":76,"Duration":132131,"SoundDuration":132131,"Delta":246818619},{"NoteNumber":65,"Velocity":65,"Duration":127781,"SoundDuration":127781,"Delta":246907383},{"NoteNumber":77,"Velocity":72,"Duration":127781,"SoundDuration":127781,"Delta":246907383},{"NoteNumber":51,"Velocity":68,"Duration":123763,"SoundDuration":123763,"Delta":246993302},{"NoteNumber":63,"Velocity":78,"Duration":123763,"SoundDuration":123763,"Delta":246993302},{"NoteNumber":62,"Velocity":67,"Duration":120680,"SoundDuration":120680,"Delta":247076360},{"NoteNumber":74,"Velocity":75,"Duration":120680,"SoundDuration":120680,"Delta":247076360},{"NoteNumber":48,"Velocity":72,"Duration":117038,"SoundDuration":117038,"Delta":247157363},{"NoteNumber":60,"Velocity":81,"Duration":117038,"SoundDuration":117038,"Delta":247157363},{"NoteNumber":58,"Velocity":70,"Duration":113616,"SoundDuration":113616,"Delta":247236031},{"NoteNumber":70,"Velocity":80,"Duration":113616,"SoundDuration":113616,"Delta":247236031},{"NoteNumber":44,"Velocity":75,"Duration":111018,"SoundDuration":111018,"Delta":247312211},{"NoteNumber":56,"Velocity":84,"Duration":111018,"SoundDuration":111018,"Delta":247312211},{"NoteNumber":55,"Velocity":72,"Duration":107961,"SoundDuration":107961,"Delta":247386701},{"NoteNumber":67,"Velocity":81,"Duration":107961,"SoundDuration":107961,"Delta":247386701},{"NoteNumber":41,"Velocity":78,"Duration":105008,"SoundDuration":105008,"Delta":247459247},{"NoteNumber":53,"Velocity":86,"Duration":105008,"SoundDuration":105008,"Delta":247459247},{"NoteNumber":51,"Velocity":77,"Duration":102788,"SoundDuration":102788,"Delta":247529602},{"NoteNumber":63,"Velocity":86,"Duration":102788,"SoundDuration":102788,"Delta":247529602},{"NoteNumber":38,"Velocity":80,"Duration":100191,"SoundDuration":100191,"Delta":247598547},{"NoteNumber":50,"Velocity":89,"Duration":100191,"SoundDuration":100191,"Delta":247598547},{"NoteNumber":48,"Velocity":78,"Duration":112307,"SoundDuration":112307,"Delta":247665793},{"NoteNumber":60,"Velocity":88,"Duration":112307,"SoundDuration":112307,"Delta":247665793},{"NoteNumber":34,"Velocity":81,"Duration":185950,"SoundDuration":185950,"Delta":247738845},{"NoteNumber":46,"Velocity":90,"Duration":185950,"SoundDuration":185950,"Delta":247738845},{"NoteNumber":63,"Velocity":71,"Duration":240384,"SoundDuration":240384,"Delta":248234713},{"NoteNumber":67,"Velocity":71,"Duration":240384,"SoundDuration":240384,"Delta":248234713},{"NoteNumber":75,"Velocity":79,"Duration":240384,"SoundDuration":240384,"Delta":248234713},{"NoteNumber":51,"Velocity":74,"Duration":240384,"SoundDuration":240384,"Delta":248234713},{"NoteNumber":39,"Velocity":66,"Duration":240384,"SoundDuration":240384,"Delta":248234713},{"NoteNumber":46,"Velocity":66,"Duration":240384,"SoundDuration":240384,"Delta":248234713},{"NoteNumber":65,"Velocity":76,"Duration":250000,"SoundDuration":250000,"Delta":248811636},{"NoteNumber":68,"Velocity":76,"Duration":250000,"SoundDuration":250000,"Delta":248811636},{"NoteNumber":77,"Velocity":85,"Duration":250000,"SoundDuration":250000,"Delta":248811636},{"NoteNumber":50,"Velocity":79,"Duration":250000,"SoundDuration":250000,"Delta":248811636},{"NoteNumber":53,"Velocity":79,"Duration":250000,"SoundDuration":250000,"Delta":248811636},{"NoteNumber":39,"Velocity":71,"Duration":250000,"SoundDuration":250000,"Delta":248811636},{"NoteNumber":47,"Velocity":71,"Duration":250000,"SoundDuration":250000,"Delta":248811636},{"NoteNumber":67,"Velocity":71,"Duration":287356,"SoundDuration":287356,"Delta":249411636},{"NoteNumber":70,"Velocity":71,"Duration":287356,"SoundDuration":287356,"Delta":249411636},{"NoteNumber":79,"Velocity":79,"Duration":287356,"SoundDuration":287356,"Delta":249411636},{"NoteNumber":55,"Velocity":74,"Duration":287356,"SoundDuration":287356,"Delta":249411636},{"NoteNumber":39,"Velocity":66,"Duration":287356,"SoundDuration":287356,"Delta":249411636},{"NoteNumber":46,"Velocity":66,"Duration":287356,"SoundDuration":287356,"Delta":249411636},{"NoteNumber":67,"Velocity":66,"Duration":1173469,"SoundDuration":1173469,"Delta":250101291},{"NoteNumber":63,"Velocity":66,"Duration":1173469,"SoundDuration":1173469,"Delta":250101291},{"NoteNumber":75,"Velocity":74,"Duration":1173469,"SoundDuration":1173469,"Delta":250101291},{"NoteNumber":51,"Velocity":72,"Duration":1173469,"SoundDuration":1173469,"Delta":250101291},{"NoteNumber":39,"Velocity":64,"Duration":1173469,"SoundDuration":1173469,"Delta":250101291},{"NoteNumber":46,"Velocity":64,"Duration":1173469,"SoundDuration":1173469,"Delta":250101291},{"NoteNumber":93,"Velocity":41,"Duration":65217,"SoundDuration":65217,"Delta":251325781},{"NoteNumber":94,"Velocity":36,"Duration":64628,"SoundDuration":64628,"Delta":251395346},{"NoteNumber":99,"Velocity":38,"Duration":45112,"SoundDuration":45112,"Delta":251463735},{"NoteNumber":96,"Velocity":36,"Duration":45112,"SoundDuration":45112,"Delta":251512607},{"NoteNumber":94,"Velocity":36,"Duration":45112,"SoundDuration":45112,"Delta":251561479},{"NoteNumber":92,"Velocity":36,"Duration":44776,"SoundDuration":44776,"Delta":251610323},{"NoteNumber":91,"Velocity":33,"Duration":44776,"SoundDuration":44776,"Delta":251658831},{"NoteNumber":89,"Velocity":37,"Duration":44527,"SoundDuration":44527,"Delta":251707338},{"NoteNumber":87,"Velocity":37,"Duration":44444,"SoundDuration":44444,"Delta":251755569},{"NoteNumber":86,"Velocity":36,"Duration":44308,"SoundDuration":44308,"Delta":251803717},{"NoteNumber":84,"Velocity":36,"Duration":44117,"SoundDuration":44117,"Delta":251851702},{"NoteNumber":82,"Velocity":36,"Duration":44117,"SoundDuration":44117,"Delta":251899496},{"NoteNumber":80,"Velocity":36,"Duration":44010,"SoundDuration":44010,"Delta":251947290},{"NoteNumber":79,"Velocity":36,"Duration":43795,"SoundDuration":43795,"Delta":251994950},{"NoteNumber":77,"Velocity":36,"Duration":43795,"SoundDuration":43795,"Delta":252042395},{"NoteNumber":75,"Velocity":36,"Duration":43478,"SoundDuration":43478,"Delta":252089814},{"NoteNumber":74,"Velocity":36,"Duration":43478,"SoundDuration":43478,"Delta":252136916},{"NoteNumber":72,"Velocity":36,"Duration":43217,"SoundDuration":43217,"Delta":252187640},{"NoteNumber":70,"Velocity":41,"Duration":206421,"SoundDuration":206421,"Delta":252230858},{"NoteNumber":55,"Velocity":29,"Duration":216346,"SoundDuration":216346,"Delta":252783522},{"NoteNumber":58,"Velocity":29,"Duration":216346,"SoundDuration":216346,"Delta":252783522},{"NoteNumber":63,"Velocity":33,"Duration":216346,"SoundDuration":216346,"Delta":252783522},{"NoteNumber":51,"Velocity":29,"Duration":216346,"SoundDuration":216346,"Delta":252783522},{"NoteNumber":56,"Velocity":31,"Duration":229591,"SoundDuration":229591,"Delta":253360445},{"NoteNumber":59,"Velocity":31,"Duration":229591,"SoundDuration":229591,"Delta":253360445},{"NoteNumber":65,"Velocity":36,"Duration":229591,"SoundDuration":229591,"Delta":253360445},{"NoteNumber":50,"Velocity":32,"Duration":229591,"SoundDuration":229591,"Delta":253360445},{"NoteNumber":57,"Velocity":30,"Duration":249999,"SoundDuration":249999,"Delta":253972690},{"NoteNumber":60,"Velocity":30,"Duration":249999,"SoundDuration":249999,"Delta":253972690},{"NoteNumber":66,"Velocity":35,"Duration":249999,"SoundDuration":249999,"Delta":253972690},{"NoteNumber":38,"Velocity":30,"Duration":249999,"SoundDuration":249999,"Delta":253972690},{"NoteNumber":59,"Velocity":30,"Duration":697674,"SoundDuration":697674,"Delta":254639356},{"NoteNumber":67,"Velocity":35,"Duration":697674,"SoundDuration":697674,"Delta":254639356},{"NoteNumber":43,"Velocity":29,"Duration":1542745,"SoundDuration":1542745,"Delta":254639356},{"NoteNumber":50,"Velocity":29,"Duration":697674,"SoundDuration":697674,"Delta":254639356},{"NoteNumber":55,"Velocity":28,"Duration":422535,"SoundDuration":422535,"Delta":255337031},{"NoteNumber":62,"Velocity":32,"Duration":422535,"SoundDuration":422535,"Delta":255337031},{"NoteNumber":47,"Velocity":27,"Duration":422535,"SoundDuration":422535,"Delta":255337031},{"NoteNumber":94,"Velocity":27,"Duration":66964,"SoundDuration":66964,"Delta":256182101},{"NoteNumber":90,"Velocity":27,"Duration":66964,"SoundDuration":66964,"Delta":256182101},{"NoteNumber":95,"Velocity":27,"Duration":66964,"SoundDuration":66964,"Delta":256249066},{"NoteNumber":91,"Velocity":27,"Duration":66964,"SoundDuration":66964,"Delta":256249066},{"NoteNumber":103,"Velocity":29,"Duration":66964,"SoundDuration":66964,"Delta":256316030},{"NoteNumber":95,"Velocity":29,"Duration":66964,"SoundDuration":66964,"Delta":256316030},{"NoteNumber":102,"Velocity":29,"Duration":66964,"SoundDuration":66964,"Delta":256382994},{"NoteNumber":93,"Velocity":29,"Duration":66964,"SoundDuration":66964,"Delta":256382994},{"NoteNumber":100,"Velocity":29,"Duration":61983,"SoundDuration":61983,"Delta":256449958},{"NoteNumber":91,"Velocity":29,"Duration":61983,"SoundDuration":61983,"Delta":256449958},{"NoteNumber":98,"Velocity":29,"Duration":61983,"SoundDuration":61983,"Delta":256511942},{"NoteNumber":90,"Velocity":29,"Duration":61983,"SoundDuration":61983,"Delta":256511942},{"NoteNumber":96,"Velocity":29,"Duration":61475,"SoundDuration":61475,"Delta":256573925},{"NoteNumber":88,"Velocity":29,"Duration":61475,"SoundDuration":61475,"Delta":256573925},{"NoteNumber":95,"Velocity":28,"Duration":61475,"SoundDuration":61475,"Delta":256635401},{"NoteNumber":86,"Velocity":28,"Duration":61475,"SoundDuration":61475,"Delta":256635401},{"NoteNumber":93,"Velocity":28,"Duration":60975,"SoundDuration":60975,"Delta":256696876},{"NoteNumber":84,"Velocity":28,"Duration":60975,"SoundDuration":60975,"Delta":256696876},{"NoteNumber":91,"Velocity":28,"Duration":60975,"SoundDuration":60975,"Delta":256757852},{"NoteNumber":83,"Velocity":28,"Duration":60975,"SoundDuration":60975,"Delta":256757852},{"NoteNumber":90,"Velocity":28,"Duration":60483,"SoundDuration":60483,"Delta":256818828},{"NoteNumber":81,"Velocity":28,"Duration":60483,"SoundDuration":60483,"Delta":256818828},{"NoteNumber":88,"Velocity":28,"Duration":60483,"SoundDuration":60483,"Delta":256879311},{"NoteNumber":79,"Velocity":28,"Duration":60483,"SoundDuration":60483,"Delta":256879311},{"NoteNumber":86,"Velocity":27,"Duration":60000,"SoundDuration":60000,"Delta":256939795},{"NoteNumber":78,"Velocity":27,"Duration":60000,"SoundDuration":60000,"Delta":256939795},{"NoteNumber":84,"Velocity":27,"Duration":60000,"SoundDuration":60000,"Delta":256999795},{"NoteNumber":76,"Velocity":27,"Duration":60000,"SoundDuration":60000,"Delta":256999795},{"NoteNumber":83,"Velocity":27,"Duration":59523,"SoundDuration":59523,"Delta":257059795},{"NoteNumber":74,"Velocity":27,"Duration":59523,"SoundDuration":59523,"Delta":257059795},{"NoteNumber":81,"Velocity":27,"Duration":59211,"SoundDuration":59211,"Delta":257119319},{"NoteNumber":72,"Velocity":27,"Duration":59211,"SoundDuration":59211,"Delta":257119319},{"NoteNumber":79,"Velocity":27,"Duration":225000,"SoundDuration":225000,"Delta":257178530},{"NoteNumber":71,"Velocity":27,"Duration":225000,"SoundDuration":225000,"Delta":257178530},{"NoteNumber":60,"Velocity":32,"Duration":624999,"SoundDuration":624999,"Delta":257778530},{"NoteNumber":64,"Velocity":32,"Duration":624999,"SoundDuration":624999,"Delta":257778530},{"NoteNumber":67,"Velocity":36,"Duration":624999,"SoundDuration":624999,"Delta":257778530},{"NoteNumber":48,"Velocity":32,"Duration":624999,"SoundDuration":624999,"Delta":257778530},{"NoteNumber":60,"Velocity":32,"Duration":617283,"SoundDuration":617283,"Delta":258460348},{"NoteNumber":68,"Velocity":36,"Duration":617283,"SoundDuration":617283,"Delta":258460348},{"NoteNumber":65,"Velocity":32,"Duration":617283,"SoundDuration":617283,"Delta":258460348},{"NoteNumber":41,"Velocity":36,"Duration":617283,"SoundDuration":617283,"Delta":258460348},{"NoteNumber":56,"Velocity":30,"Duration":887096,"SoundDuration":887096,"Delta":259201089},{"NoteNumber":62,"Velocity":30,"Duration":887096,"SoundDuration":887096,"Delta":259201089},{"NoteNumber":70,"Velocity":35,"Duration":887096,"SoundDuration":887096,"Delta":259201089},{"NoteNumber":34,"Velocity":35,"Duration":887096,"SoundDuration":887096,"Delta":259201089},{"NoteNumber":46,"Velocity":35,"Duration":887096,"SoundDuration":887096,"Delta":259201089},{"NoteNumber":55,"Velocity":29,"Duration":1844262,"SoundDuration":1844262,"Delta":260168831},{"NoteNumber":63,"Velocity":29,"Duration":1844262,"SoundDuration":1844262,"Delta":260168831},{"NoteNumber":70,"Velocity":33,"Duration":1844262,"SoundDuration":1844262,"Delta":260168831},{"NoteNumber":39,"Velocity":35,"Duration":1844262,"SoundDuration":1844262,"Delta":260168831},{"NoteNumber":46,"Velocity":35,"Duration":1844262,"SoundDuration":1844262,"Delta":260168831},{"NoteNumber":57,"Velocity":39,"Duration":81250,"SoundDuration":81250,"Delta":262136044},{"NoteNumber":58,"Velocity":43,"Duration":81250,"SoundDuration":81250,"Delta":262219377},{"NoteNumber":63,"Velocity":44,"Duration":78629,"SoundDuration":78629,"Delta":262302711},{"NoteNumber":62,"Velocity":43,"Duration":79268,"SoundDuration":79268,"Delta":262383356},{"NoteNumber":60,"Velocity":43,"Duration":80239,"SoundDuration":80239,"Delta":262464657},{"NoteNumber":58,"Velocity":42,"Duration":80905,"SoundDuration":80905,"Delta":262546963},{"NoteNumber":56,"Velocity":41,"Duration":81932,"SoundDuration":81932,"Delta":262629952},{"NoteNumber":55,"Velocity":41,"Duration":82627,"SoundDuration":82627,"Delta":262713985},{"NoteNumber":53,"Velocity":39,"Duration":83683,"SoundDuration":83683,"Delta":262798731},{"NoteNumber":51,"Velocity":39,"Duration":84407,"SoundDuration":84407,"Delta":262884569},{"NoteNumber":50,"Velocity":39,"Duration":85526,"SoundDuration":85526,"Delta":262971151},{"NoteNumber":48,"Velocity":39,"Duration":86658,"SoundDuration":86658,"Delta":263058870},{"NoteNumber":47,"Velocity":42,"Duration":2822599,"SoundDuration":2822599,"Delta":263147761},{"NoteNumber":87,"Velocity":38,"Duration":515463,"SoundDuration":515463,"Delta":263981095},{"NoteNumber":83,"Velocity":35,"Duration":515463,"SoundDuration":515463,"Delta":263981095},{"NoteNumber":75,"Velocity":35,"Duration":515463,"SoundDuration":515463,"Delta":263981095},{"NoteNumber":39,"Velocity":25,"Duration":515463,"SoundDuration":515463,"Delta":263981095},{"NoteNumber":45,"Velocity":25,"Duration":515463,"SoundDuration":515463,"Delta":263981095},{"NoteNumber":54,"Velocity":28,"Duration":515463,"SoundDuration":515463,"Delta":263981095},{"NoteNumber":89,"Velocity":41,"Duration":526315,"SoundDuration":526315,"Delta":264599651},{"NoteNumber":83,"Velocity":36,"Duration":526315,"SoundDuration":526315,"Delta":264599651},{"NoteNumber":75,"Velocity":36,"Duration":526315,"SoundDuration":526315,"Delta":264599651},{"NoteNumber":39,"Velocity":27,"Duration":526315,"SoundDuration":526315,"Delta":264599651},{"NoteNumber":45,"Velocity":27,"Duration":526315,"SoundDuration":526315,"Delta":264599651},{"NoteNumber":54,"Velocity":31,"Duration":526315,"SoundDuration":526315,"Delta":264599651},{"NoteNumber":90,"Velocity":43,"Duration":489130,"SoundDuration":489130,"Delta":265231230},{"NoteNumber":83,"Velocity":37,"Duration":489130,"SoundDuration":489130,"Delta":265231230},{"NoteNumber":75,"Velocity":37,"Duration":489130,"SoundDuration":489130,"Delta":265231230},{"NoteNumber":39,"Velocity":27,"Duration":489130,"SoundDuration":489130,"Delta":265231230},{"NoteNumber":45,"Velocity":27,"Duration":489130,"SoundDuration":489130,"Delta":265231230},{"NoteNumber":54,"Velocity":31,"Duration":489130,"SoundDuration":489130,"Delta":265231230},{"NoteNumber":39,"Velocity":29,"Duration":890151,"SoundDuration":890151,"Delta":265762027},{"NoteNumber":46,"Velocity":33,"Duration":848484,"SoundDuration":848484,"Delta":265803694},{"NoteNumber":55,"Velocity":33,"Duration":806818,"SoundDuration":806818,"Delta":265845361},{"NoteNumber":75,"Velocity":35,"Duration":1527326,"SoundDuration":1527326,"Delta":265924527},{"NoteNumber":82,"Velocity":35,"Duration":1502705,"SoundDuration":1502705,"Delta":265928694},{"NoteNumber":91,"Velocity":38,"Duration":681818,"SoundDuration":681818,"Delta":265970361},{"NoteNumber":87,"Velocity":36,"Duration":389610,"SoundDuration":389610,"Delta":266652179},{"NoteNumber":57,"Velocity":37,"Duration":65909,"SoundDuration":65909,"Delta":267431400},{"NoteNumber":58,"Velocity":41,"Duration":65446,"SoundDuration":65446,"Delta":267508672},{"NoteNumber":67,"Velocity":42,"Duration":61440,"SoundDuration":61440,"Delta":267584712},{"NoteNumber":65,"Velocity":42,"Duration":61639,"SoundDuration":61639,"Delta":267656746},{"NoteNumber":63,"Velocity":42,"Duration":62057,"SoundDuration":62057,"Delta":267729070},{"NoteNumber":62,"Velocity":42,"Duration":62500,"SoundDuration":62500,"Delta":267801904},{"NoteNumber":60,"Velocity":41,"Duration":63043,"SoundDuration":63043,"Delta":267875255},{"NoteNumber":58,"Velocity":41,"Duration":63558,"SoundDuration":63558,"Delta":267949168},{"NoteNumber":56,"Velocity":41,"Duration":64004,"SoundDuration":64004,"Delta":268023691},{"NoteNumber":55,"Velocity":41,"Duration":64455,"SoundDuration":64455,"Delta":268098757},{"NoteNumber":53,"Velocity":39,"Duration":64913,"SoundDuration":64913,"Delta":268174373},{"NoteNumber":51,"Velocity":39,"Duration":65376,"SoundDuration":65376,"Delta":268250548},{"NoteNumber":50,"Velocity":39,"Duration":65909,"SoundDuration":65909,"Delta":268327288},{"NoteNumber":48,"Velocity":37,"Duration":75688,"SoundDuration":75688,"Delta":268404602},{"NoteNumber":46,"Velocity":41,"Duration":4864394,"SoundDuration":4864394,"Delta":268491758},{"NoteNumber":58,"Velocity":33,"Duration":740740,"SoundDuration":740740,"Delta":269336829},{"NoteNumber":61,"Velocity":33,"Duration":740740,"SoundDuration":740740,"Delta":269336829},{"NoteNumber":67,"Velocity":37,"Duration":740740,"SoundDuration":740740,"Delta":269336829},{"NoteNumber":40,"Velocity":35,"Duration":740740,"SoundDuration":740740,"Delta":269336829},{"NoteNumber":58,"Velocity":36,"Duration":733333,"SoundDuration":733333,"Delta":270077569},{"NoteNumber":60,"Velocity":36,"Duration":733333,"SoundDuration":733333,"Delta":270077569},{"NoteNumber":68,"Velocity":39,"Duration":733333,"SoundDuration":733333,"Delta":270077569},{"NoteNumber":41,"Velocity":37,"Duration":733333,"SoundDuration":733333,"Delta":270077569},{"NoteNumber":68,"Velocity":35,"Duration":681818,"SoundDuration":681818,"Delta":270877569},{"NoteNumber":72,"Velocity":39,"Duration":681818,"SoundDuration":681818,"Delta":270877569},{"NoteNumber":58,"Velocity":29,"Duration":959595,"SoundDuration":959595,"Delta":270877569},{"NoteNumber":62,"Velocity":29,"Duration":959595,"SoundDuration":959595,"Delta":270877569},{"NoteNumber":34,"Velocity":33,"Duration":959595,"SoundDuration":959595,"Delta":270877569},{"NoteNumber":67,"Velocity":30,"Duration":277777,"SoundDuration":277777,"Delta":271559388},{"NoteNumber":70,"Velocity":35,"Duration":277777,"SoundDuration":277777,"Delta":271559388},{"NoteNumber":63,"Velocity":29,"Duration":1518986,"SoundDuration":1518986,"Delta":271837165},{"NoteNumber":67,"Velocity":33,"Duration":1518986,"SoundDuration":1518986,"Delta":271837165},{"NoteNumber":39,"Velocity":32,"Duration":1518986,"SoundDuration":1518986,"Delta":271837165},{"NoteNumber":93,"Velocity":36,"Duration":62500,"SoundDuration":62500,"Delta":273356152},{"NoteNumber":94,"Velocity":32,"Duration":62500,"SoundDuration":62500,"Delta":273422819},{"NoteNumber":99,"Velocity":35,"Duration":49462,"SoundDuration":49462,"Delta":273489486},{"NoteNumber":96,"Velocity":32,"Duration":48387,"SoundDuration":48387,"Delta":273542980},{"NoteNumber":94,"Velocity":32,"Duration":48714,"SoundDuration":48714,"Delta":273595400},{"NoteNumber":92,"Velocity":31,"Duration":48880,"SoundDuration":48880,"Delta":273648180},{"NoteNumber":91,"Velocity":29,"Duration":49383,"SoundDuration":49383,"Delta":273701158},{"NoteNumber":89,"Velocity":33,"Duration":49586,"SoundDuration":49586,"Delta":273754674},{"NoteNumber":87,"Velocity":33,"Duration":50070,"SoundDuration":50070,"Delta":273808393},{"NoteNumber":86,"Velocity":32,"Duration":50420,"SoundDuration":50420,"Delta":273862665},{"NoteNumber":84,"Velocity":32,"Duration":50705,"SoundDuration":50705,"Delta":273917287},{"NoteNumber":82,"Velocity":32,"Duration":50883,"SoundDuration":50883,"Delta":273972229},{"NoteNumber":80,"Velocity":32,"Duration":51429,"SoundDuration":51429,"Delta":274027386},{"NoteNumber":79,"Velocity":32,"Duration":51724,"SoundDuration":51724,"Delta":274083126},{"NoteNumber":77,"Velocity":32,"Duration":52098,"SoundDuration":52098,"Delta":274139161},{"NoteNumber":75,"Velocity":32,"Duration":52631,"SoundDuration":52631,"Delta":274195645},{"NoteNumber":74,"Velocity":32,"Duration":52864,"SoundDuration":52864,"Delta":274252663},{"NoteNumber":72,"Velocity":32,"Duration":53492,"SoundDuration":53492,"Delta":274314377},{"NoteNumber":71,"Velocity":36,"Duration":2587768,"SoundDuration":2587768,"Delta":274367869},{"NoteNumber":69,"Velocity":35,"Duration":520833,"SoundDuration":520833,"Delta":275099577},{"NoteNumber":75,"Velocity":35,"Duration":520833,"SoundDuration":520833,"Delta":275099577},{"NoteNumber":83,"Velocity":38,"Duration":520833,"SoundDuration":520833,"Delta":275099577},{"NoteNumber":59,"Velocity":31,"Duration":520833,"SoundDuration":520833,"Delta":275099577},{"NoteNumber":66,"Velocity":36,"Duration":520833,"SoundDuration":520833,"Delta":275099577},{"NoteNumber":69,"Velocity":35,"Duration":505050,"SoundDuration":505050,"Delta":275724577},{"NoteNumber":83,"Velocity":41,"Duration":505050,"SoundDuration":505050,"Delta":275724577},{"NoteNumber":76,"Velocity":36,"Duration":505050,"SoundDuration":505050,"Delta":275724577},{"NoteNumber":59,"Velocity":31,"Duration":505050,"SoundDuration":505050,"Delta":275724577},{"NoteNumber":64,"Velocity":36,"Duration":505050,"SoundDuration":505050,"Delta":275724577},{"NoteNumber":69,"Velocity":37,"Duration":468750,"SoundDuration":468750,"Delta":276330637},{"NoteNumber":78,"Velocity":37,"Duration":468750,"SoundDuration":468750,"Delta":276330637},{"NoteNumber":83,"Velocity":43,"Duration":468750,"SoundDuration":468750,"Delta":276330637},{"NoteNumber":59,"Velocity":31,"Duration":520833,"SoundDuration":520833,"Delta":276330637},{"NoteNumber":63,"Velocity":36,"Duration":468750,"SoundDuration":468750,"Delta":276330637},{"NoteNumber":80,"Velocity":39,"Duration":659340,"SoundDuration":659340,"Delta":276955637},{"NoteNumber":83,"Velocity":45,"Duration":659340,"SoundDuration":659340,"Delta":276955637},{"NoteNumber":64,"Velocity":36,"Duration":659340,"SoundDuration":659340,"Delta":276955637},{"NoteNumber":68,"Velocity":39,"Duration":659340,"SoundDuration":659340,"Delta":276955637},{"NoteNumber":92,"Velocity":44,"Duration":389610,"SoundDuration":389610,"Delta":277614978},{"NoteNumber":88,"Velocity":38,"Duration":389610,"SoundDuration":389610,"Delta":277614978},{"NoteNumber":71,"Velocity":29,"Duration":389610,"SoundDuration":389610,"Delta":277614978},{"NoteNumber":76,"Velocity":33,"Duration":389610,"SoundDuration":389610,"Delta":277614978},{"NoteNumber":70,"Velocity":36,"Duration":66666,"SoundDuration":66666,"Delta":278394199},{"NoteNumber":71,"Velocity":32,"Duration":66666,"SoundDuration":66666,"Delta":278460866},{"NoteNumber":80,"Velocity":36,"Duration":65591,"SoundDuration":65591,"Delta":278527532},{"NoteNumber":78,"Velocity":35,"Duration":64647,"SoundDuration":64647,"Delta":278593124},{"NoteNumber":76,"Velocity":33,"Duration":65040,"SoundDuration":65040,"Delta":278657771},{"NoteNumber":75,"Velocity":33,"Duration":65777,"SoundDuration":65777,"Delta":278722812},{"NoteNumber":73,"Velocity":32,"Duration":66184,"SoundDuration":66184,"Delta":278788589},{"NoteNumber":71,"Velocity":32,"Duration":66946,"SoundDuration":66946,"Delta":278854773},{"NoteNumber":69,"Velocity":32,"Duration":67369,"SoundDuration":67369,"Delta":278921720},{"NoteNumber":68,"Velocity":32,"Duration":67796,"SoundDuration":67796,"Delta":278989089},{"NoteNumber":66,"Velocity":32,"Duration":68597,"SoundDuration":68597,"Delta":279056886},{"NoteNumber":64,"Velocity":32,"Duration":69040,"SoundDuration":69040,"Delta":279125483},{"NoteNumber":63,"Velocity":32,"Duration":69870,"SoundDuration":69870,"Delta":279194524},{"NoteNumber":61,"Velocity":32,"Duration":70330,"SoundDuration":70330,"Delta":279264394},{"NoteNumber":59,"Velocity":32,"Duration":71191,"SoundDuration":71191,"Delta":279334725},{"NoteNumber":58,"Velocity":35,"Duration":3569054,"SoundDuration":3569054,"Delta":279405916},{"NoteNumber":61,"Velocity":31,"Duration":789473,"SoundDuration":789473,"Delta":280250987},{"NoteNumber":67,"Velocity":31,"Duration":789473,"SoundDuration":789473,"Delta":280250987},{"NoteNumber":70,"Velocity":36,"Duration":789473,"SoundDuration":789473,"Delta":280250987},{"NoteNumber":52,"Velocity":32,"Duration":789473,"SoundDuration":789473,"Delta":280250987},{"NoteNumber":62,"Velocity":33,"Duration":754123,"SoundDuration":754123,"Delta":281040460},{"NoteNumber":68,"Velocity":33,"Duration":754123,"SoundDuration":754123,"Delta":281040460},{"NoteNumber":70,"Velocity":37,"Duration":754123,"SoundDuration":754123,"Delta":281040460},{"NoteNumber":53,"Velocity":36,"Duration":754123,"SoundDuration":754123,"Delta":281040460},{"NoteNumber":62,"Velocity":30,"Duration":1407254,"SoundDuration":1407254,"Delta":281567716},{"NoteNumber":68,"Velocity":27,"Duration":1309424,"SoundDuration":1309424,"Delta":281665546},{"NoteNumber":74,"Velocity":31,"Duration":95666,"SoundDuration":95666,"Delta":281762532},{"NoteNumber":72,"Velocity":36,"Duration":775862,"SoundDuration":775862,"Delta":281858199},{"NoteNumber":46,"Velocity":31,"Duration":1116771,"SoundDuration":1116771,"Delta":281858199},{"NoteNumber":70,"Velocity":32,"Duration":340909,"SoundDuration":340909,"Delta":282634061},{"NoteNumber":70,"Velocity":31,"Duration":1455695,"SoundDuration":1455695,"Delta":282974970},{"NoteNumber":63,"Velocity":27,"Duration":1455695,"SoundDuration":1455695,"Delta":282974970},{"NoteNumber":67,"Velocity":27,"Duration":1455695,"SoundDuration":1455695,"Delta":282974970},{"NoteNumber":51,"Velocity":27,"Duration":1455695,"SoundDuration":1455695,"Delta":282974970},{"NoteNumber":57,"Velocity":36,"Duration":65909,"SoundDuration":65909,"Delta":284493957},{"NoteNumber":58,"Velocity":38,"Duration":65446,"SoundDuration":65446,"Delta":284571230},{"NoteNumber":67,"Velocity":38,"Duration":61440,"SoundDuration":61440,"Delta":284647270},{"NoteNumber":65,"Velocity":38,"Duration":61639,"SoundDuration":61639,"Delta":284719304},{"NoteNumber":63,"Velocity":38,"Duration":62057,"SoundDuration":62057,"Delta":284791628},{"NoteNumber":62,"Velocity":38,"Duration":62500,"SoundDuration":62500,"Delta":284864461},{"NoteNumber":60,"Velocity":38,"Duration":63043,"SoundDuration":63043,"Delta":284937812},{"NoteNumber":58,"Velocity":38,"Duration":63558,"SoundDuration":63558,"Delta":285011725},{"NoteNumber":56,"Velocity":38,"Duration":64004,"SoundDuration":64004,"Delta":285086249},{"NoteNumber":55,"Velocity":38,"Duration":64455,"SoundDuration":64455,"Delta":285161315},{"NoteNumber":53,"Velocity":37,"Duration":64913,"SoundDuration":64913,"Delta":285236931},{"NoteNumber":51,"Velocity":37,"Duration":65376,"SoundDuration":65376,"Delta":285313105},{"NoteNumber":50,"Velocity":37,"Duration":65909,"SoundDuration":65909,"Delta":285389846},{"NoteNumber":48,"Velocity":36,"Duration":75688,"SoundDuration":75688,"Delta":285467160},{"NoteNumber":46,"Velocity":38,"Duration":5284812,"SoundDuration":5284812,"Delta":285554316},{"NoteNumber":55,"Velocity":32,"Duration":789473,"SoundDuration":789473,"Delta":286399387},{"NoteNumber":58,"Velocity":32,"Duration":789473,"SoundDuration":789473,"Delta":286399387},{"NoteNumber":61,"Velocity":36,"Duration":789473,"SoundDuration":789473,"Delta":286399387},{"NoteNumber":40,"Velocity":33,"Duration":789473,"SoundDuration":789473,"Delta":286399387},{"NoteNumber":56,"Velocity":33,"Duration":797101,"SoundDuration":797101,"Delta":287188860},{"NoteNumber":58,"Velocity":33,"Duration":797101,"SoundDuration":797101,"Delta":287188860},{"NoteNumber":62,"Velocity":37,"Duration":797101,"SoundDuration":797101,"Delta":287188860},{"NoteNumber":41,"Velocity":36,"Duration":797101,"SoundDuration":797101,"Delta":287188860},{"NoteNumber":56,"Velocity":31,"Duration":849056,"SoundDuration":849056,"Delta":288058425},{"NoteNumber":60,"Velocity":36,"Duration":849056,"SoundDuration":849056,"Delta":288058425},{"NoteNumber":62,"Velocity":31,"Duration":1265723,"SoundDuration":1265723,"Delta":288058425},{"NoteNumber":34,"Velocity":31,"Duration":1265723,"SoundDuration":1265723,"Delta":288058425},{"NoteNumber":55,"Velocity":27,"Duration":416666,"SoundDuration":416666,"Delta":288907482},{"NoteNumber":58,"Velocity":31,"Duration":416666,"SoundDuration":416666,"Delta":288907482},{"NoteNumber":55,"Velocity":27,"Duration":1514979,"SoundDuration":1514979,"Delta":289324148},{"NoteNumber":51,"Velocity":27,"Duration":1514979,"SoundDuration":1514979,"Delta":289324148},{"NoteNumber":63,"Velocity":30,"Duration":1514979,"SoundDuration":1514979,"Delta":289324148},{"NoteNumber":39,"Velocity":26,"Duration":1514979,"SoundDuration":1514979,"Delta":289324148},{"NoteNumber":93,"Velocity":36,"Duration":96534,"SoundDuration":96534,"Delta":290839128},{"NoteNumber":94,"Velocity":31,"Duration":90979,"SoundDuration":90979,"Delta":290948039},{"NoteNumber":99,"Velocity":36,"Duration":86971,"SoundDuration":86971,"Delta":291050188},{"NoteNumber":96,"Velocity":36,"Duration":86313,"SoundDuration":86313,"Delta":291148225},{"NoteNumber":94,"Velocity":35,"Duration":85607,"SoundDuration":85607,"Delta":291245605},{"NoteNumber":92,"Velocity":33,"Duration":85149,"SoundDuration":85149,"Delta":291342177},{"NoteNumber":91,"Velocity":32,"Duration":84694,"SoundDuration":84694,"Delta":291438192},{"NoteNumber":89,"Velocity":33,"Duration":83993,"SoundDuration":83993,"Delta":291533656},{"NoteNumber":87,"Velocity":33,"Duration":83400,"SoundDuration":83400,"Delta":291628418},{"NoteNumber":86,"Velocity":32,"Duration":82971,"SoundDuration":82971,"Delta":291722492},{"NoteNumber":84,"Velocity":32,"Duration":73787,"SoundDuration":73787,"Delta":291816044},{"NoteNumber":81,"Velocity":33,"Duration":63774,"SoundDuration":63774,"Delta":291900320},{"NoteNumber":82,"Velocity":35,"Duration":65573,"SoundDuration":65573,"Delta":291974341},{"NoteNumber":91,"Velocity":36,"Duration":65140,"SoundDuration":65140,"Delta":292050160},{"NoteNumber":87,"Velocity":36,"Duration":64991,"SoundDuration":64991,"Delta":292125463},{"NoteNumber":86,"Velocity":37,"Duration":64516,"SoundDuration":64516,"Delta":292200536},{"NoteNumber":84,"Velocity":38,"Duration":64241,"SoundDuration":64241,"Delta":292275132},{"NoteNumber":82,"Velocity":39,"Duration":64000,"SoundDuration":64000,"Delta":292349374},{"NoteNumber":80,"Velocity":38,"Duration":63507,"SoundDuration":63507,"Delta":292423374},{"NoteNumber":79,"Velocity":39,"Duration":63492,"SoundDuration":63492,"Delta":292496803},{"NoteNumber":77,"Velocity":41,"Duration":63101,"SoundDuration":63101,"Delta":292570216},{"NoteNumber":75,"Velocity":42,"Duration":62961,"SoundDuration":62961,"Delta":292643160},{"NoteNumber":74,"Velocity":43,"Duration":62500,"SoundDuration":62500,"Delta":292715887},{"NoteNumber":72,"Velocity":45,"Duration":62257,"SoundDuration":62257,"Delta":292788152},{"NoteNumber":69,"Velocity":44,"Duration":70143,"SoundDuration":70143,"Delta":292858162},{"NoteNumber":70,"Velocity":45,"Duration":70143,"SoundDuration":70143,"Delta":292937299},{"NoteNumber":75,"Velocity":46,"Duration":70053,"SoundDuration":70053,"Delta":293016435},{"NoteNumber":72,"Velocity":49,"Duration":69250,"SoundDuration":69250,"Delta":293095418},{"NoteNumber":70,"Velocity":51,"Duration":68961,"SoundDuration":68961,"Delta":293173533},{"NoteNumber":68,"Velocity":53,"Duration":68661,"SoundDuration":68661,"Delta":293251298},{"NoteNumber":67,"Velocity":55,"Duration":68181,"SoundDuration":68181,"Delta":293328713},{"NoteNumber":65,"Velocity":55,"Duration":68096,"SoundDuration":68096,"Delta":293405636},{"NoteNumber":63,"Velocity":57,"Duration":67708,"SoundDuration":67708,"Delta":293482414},{"NoteNumber":62,"Velocity":59,"Duration":67289,"SoundDuration":67289,"Delta":293558803},{"NoteNumber":60,"Velocity":62,"Duration":60763,"SoundDuration":60763,"Delta":293634713},{"NoteNumber":57,"Velocity":53,"Duration":55555,"SoundDuration":55555,"Delta":293704157},{"NoteNumber":58,"Velocity":54,"Duration":55555,"SoundDuration":55555,"Delta":293768393},{"NoteNumber":67,"Velocity":56,"Duration":55483,"SoundDuration":55483,"Delta":293832629},{"NoteNumber":63,"Velocity":57,"Duration":55172,"SoundDuration":55172,"Delta":293896733},{"NoteNumber":62,"Velocity":59,"Duration":55172,"SoundDuration":55172,"Delta":293960527},{"NoteNumber":60,"Velocity":60,"Duration":55172,"SoundDuration":55172,"Delta":294024320},{"NoteNumber":58,"Velocity":63,"Duration":54794,"SoundDuration":54794,"Delta":294088089},{"NoteNumber":56,"Velocity":62,"Duration":54794,"SoundDuration":54794,"Delta":294151445},{"NoteNumber":55,"Velocity":63,"Duration":54794,"SoundDuration":54794,"Delta":294214801},{"NoteNumber":53,"Velocity":65,"Duration":54736,"SoundDuration":54736,"Delta":294278158},{"NoteNumber":51,"Velocity":67,"Duration":54421,"SoundDuration":54421,"Delta":294341397},{"NoteNumber":50,"Velocity":69,"Duration":54421,"SoundDuration":54421,"Delta":294404323},{"NoteNumber":48,"Velocity":71,"Duration":54421,"SoundDuration":54421,"Delta":294467248},{"NoteNumber":46,"Velocity":86,"Duration":1333332,"SoundDuration":1333332,"Delta":294528472},{"NoteNumber":63,"Velocity":69,"Duration":666666,"SoundDuration":666666,"Delta":295195139},{"NoteNumber":58,"Velocity":62,"Duration":666666,"SoundDuration":666666,"Delta":295195139},{"NoteNumber":55,"Velocity":62,"Duration":666666,"SoundDuration":666666,"Delta":295195139},{"NoteNumber":51,"Velocity":62,"Duration":666666,"SoundDuration":666666,"Delta":295195139},{"NoteNumber":37,"Velocity":62,"Duration":666666,"SoundDuration":666666,"Delta":295195139},{"NoteNumber":39,"Velocity":62,"Duration":666666,"SoundDuration":666666,"Delta":295195139},{"NoteNumber":47,"Velocity":81,"Duration":1380952,"SoundDuration":1380952,"Delta":295861805},{"NoteNumber":63,"Velocity":67,"Duration":714285,"SoundDuration":714285,"Delta":296528472},{"NoteNumber":59,"Velocity":60,"Duration":714285,"SoundDuration":714285,"Delta":296528472},{"NoteNumber":54,"Velocity":60,"Duration":714285,"SoundDuration":714285,"Delta":296528472},{"NoteNumber":51,"Velocity":60,"Duration":714285,"SoundDuration":714285,"Delta":296528472},{"NoteNumber":35,"Velocity":60,"Duration":714285,"SoundDuration":714285,"Delta":296528472},{"NoteNumber":39,"Velocity":60,"Duration":714285,"SoundDuration":714285,"Delta":296528472},{"NoteNumber":63,"Velocity":67,"Duration":789473,"SoundDuration":789473,"Delta":297242757},{"NoteNumber":59,"Velocity":61,"Duration":789473,"SoundDuration":789473,"Delta":297242757},{"NoteNumber":56,"Velocity":61,"Duration":789473,"SoundDuration":789473,"Delta":297242757},{"NoteNumber":51,"Velocity":61,"Duration":789473,"SoundDuration":789473,"Delta":297242757},{"NoteNumber":32,"Velocity":61,"Duration":789473,"SoundDuration":789473,"Delta":297242757},{"NoteNumber":39,"Velocity":61,"Duration":789473,"SoundDuration":789473,"Delta":297242757},{"NoteNumber":47,"Velocity":72,"Duration":789473,"SoundDuration":789473,"Delta":297242757},{"NoteNumber":65,"Velocity":67,"Duration":923076,"SoundDuration":923076,"Delta":298032231},{"NoteNumber":59,"Velocity":61,"Duration":923076,"SoundDuration":923076,"Delta":298032231},{"NoteNumber":56,"Velocity":61,"Duration":923076,"SoundDuration":923076,"Delta":298032231},{"NoteNumber":53,"Velocity":61,"Duration":923076,"SoundDuration":923076,"Delta":298032231},{"NoteNumber":32,"Velocity":61,"Duration":923076,"SoundDuration":923076,"Delta":298032231},{"NoteNumber":39,"Velocity":61,"Duration":923076,"SoundDuration":923076,"Delta":298032231},{"NoteNumber":44,"Velocity":72,"Duration":923076,"SoundDuration":923076,"Delta":298032231},{"NoteNumber":55,"Velocity":67,"Duration":3199999,"SoundDuration":3199999,"Delta":298955308},{"NoteNumber":58,"Velocity":67,"Duration":3199999,"SoundDuration":3199999,"Delta":298955308},{"NoteNumber":63,"Velocity":67,"Duration":3199999,"SoundDuration":3199999,"Delta":298955308},{"NoteNumber":67,"Velocity":75,"Duration":3199999,"SoundDuration":3199999,"Delta":298955308},{"NoteNumber":27,"Velocity":61,"Duration":3199999,"SoundDuration":3199999,"Delta":298955308},{"NoteNumber":34,"Velocity":61,"Duration":3199999,"SoundDuration":3199999,"Delta":298955308},{"NoteNumber":39,"Velocity":69,"Duration":3199999,"SoundDuration":3199999,"Delta":298955308},{"NoteNumber":55,"Velocity":65,"Duration":2000000,"SoundDuration":2000000,"Delta":302155308},{"NoteNumber":58,"Velocity":65,"Duration":2000000,"SoundDuration":2000000,"Delta":302155308},{"NoteNumber":63,"Velocity":65,"Duration":2000000,"SoundDuration":2000000,"Delta":302155308},{"NoteNumber":67,"Velocity":73,"Duration":2000000,"SoundDuration":2000000,"Delta":302155308},{"NoteNumber":27,"Velocity":61,"Duration":2000000,"SoundDuration":2000000,"Delta":302155308},{"NoteNumber":34,"Velocity":61,"Duration":2000000,"SoundDuration":2000000,"Delta":302155308},{"NoteNumber":39,"Velocity":69,"Duration":2000000,"SoundDuration":2000000,"Delta":302155308},{"NoteNumber":55,"Velocity":65,"Duration":2352940,"SoundDuration":2352940,"Delta":304155308},{"NoteNumber":58,"Velocity":65,"Duration":2352940,"SoundDuration":2352940,"Delta":304155308},{"NoteNumber":63,"Velocity":65,"Duration":2352940,"SoundDuration":2352940,"Delta":304155308},{"NoteNumber":67,"Velocity":73,"Duration":2352940,"SoundDuration":2352940,"Delta":304155308},{"NoteNumber":27,"Velocity":61,"Duration":2352940,"SoundDuration":2352940,"Delta":304155308},{"NoteNumber":34,"Velocity":61,"Duration":2352940,"SoundDuration":2352940,"Delta":304155308},{"NoteNumber":39,"Velocity":69,"Duration":2352940,"SoundDuration":2352940,"Delta":304155308},{"NoteNumber":55,"Velocity":65,"Duration":9411764,"SoundDuration":9411764,"Delta":306508249},{"NoteNumber":58,"Velocity":65,"Duration":9411764,"SoundDuration":9411764,"Delta":306508249},{"NoteNumber":63,"Velocity":65,"Duration":9411764,"SoundDuration":9411764,"Delta":306508249},{"NoteNumber":67,"Velocity":73,"Duration":9411764,"SoundDuration":9411764,"Delta":306508249},{"NoteNumber":27,"Velocity":61,"Duration":9411764,"SoundDuration":9411764,"Delta":306508249},{"NoteNumber":34,"Velocity":61,"Duration":9411764,"SoundDuration":9411764,"Delta":306508249},{"NoteNumber":39,"Velocity":69,"Duration":9411764,"SoundDuration":9411764,"Delta":306508249}]}