{"title":"Fantasien","artist":"Piano","durationMs":157969,"midiSha256":"2c9fd61752e9df0634e47567b9c9dba3627e3d7665f9dc1ebdda873416d103f5","midiObject":[{"NoteNumber":57,"Velocity":47,"Duration":178997,"SoundDuration":178997,"Delta":0},{"NoteNumber":58,"Velocity":63,"Duration":111197,"SoundDuration":111197,"Delta":178998},{"NoteNumber":52,"Velocity":46,"Duration":106929,"SoundDuration":106929,"Delta":290195},{"NoteNumber":61,"Velocity":46,"Duration":106929,"SoundDuration":106929,"Delta":397124},{"NoteNumber":64,"Velocity":63,"Duration":106928,"SoundDuration":106928,"Delta":504053},{"NoteNumber":33,"Velocity":50,"Duration":120295,"SoundDuration":120295,"Delta":504053},{"NoteNumber":45,"Velocity":60,"Duration":120295,"SoundDuration":120295,"Delta":504053},{"NoteNumber":55,"Velocity":47,"Duration":106929,"SoundDuration":106929,"Delta":610982},{"NoteNumber":57,"Velocity":47,"Duration":106929,"SoundDuration":106929,"Delta":717911},{"NoteNumber":58,"Velocity":63,"Duration":111197,"SoundDuration":111197,"Delta":824840},{"NoteNumber":53,"Velocity":48,"Duration":105218,"SoundDuration":105218,"Delta":936038},{"NoteNumber":62,"Velocity":48,"Duration":105218,"SoundDuration":105218,"Delta":1041257},{"NoteNumber":65,"Velocity":62,"Duration":105218,"SoundDuration":105218,"Delta":1146476},{"NoteNumber":38,"Velocity":50,"Duration":118371,"SoundDuration":118371,"Delta":1146476},{"NoteNumber":50,"Velocity":60,"Duration":118371,"SoundDuration":118371,"Delta":1146476},{"NoteNumber":57,"Velocity":47,"Duration":105218,"SoundDuration":105218,"Delta":1251694},{"NoteNumber":60,"Velocity":47,"Duration":105218,"SoundDuration":105218,"Delta":1356913},{"NoteNumber":61,"Velocity":62,"Duration":111819,"SoundDuration":111819,"Delta":1462132},{"NoteNumber":55,"Velocity":47,"Duration":101926,"SoundDuration":101926,"Delta":1573951},{"NoteNumber":64,"Velocity":47,"Duration":101926,"SoundDuration":101926,"Delta":1675878},{"NoteNumber":67,"Velocity":62,"Duration":101926,"SoundDuration":101926,"Delta":1777804},{"NoteNumber":52,"Velocity":60,"Duration":114667,"SoundDuration":114667,"Delta":1777804},{"NoteNumber":40,"Velocity":50,"Duration":114667,"SoundDuration":114667,"Delta":1777804},{"NoteNumber":58,"Velocity":47,"Duration":101926,"SoundDuration":101926,"Delta":1879730},{"NoteNumber":62,"Velocity":47,"Duration":101926,"SoundDuration":101926,"Delta":1981657},{"NoteNumber":63,"Velocity":62,"Duration":106360,"SoundDuration":106360,"Delta":2083583},{"NoteNumber":57,"Velocity":46,"Duration":98833,"SoundDuration":98833,"Delta":2189943},{"NoteNumber":69,"Velocity":47,"Duration":98833,"SoundDuration":98833,"Delta":2288777},{"NoteNumber":72,"Velocity":62,"Duration":98833,"SoundDuration":98833,"Delta":2387611},{"NoteNumber":42,"Velocity":51,"Duration":111188,"SoundDuration":111188,"Delta":2387611},{"NoteNumber":54,"Velocity":61,"Duration":111188,"SoundDuration":111188,"Delta":2387611},{"NoteNumber":60,"Velocity":48,"Duration":98833,"SoundDuration":98833,"Delta":2486445},{"NoteNumber":62,"Velocity":49,"Duration":98833,"SoundDuration":98833,"Delta":2585279},{"NoteNumber":63,"Velocity":65,"Duration":103551,"SoundDuration":103551,"Delta":2684113},{"NoteNumber":58,"Velocity":49,"Duration":96880,"SoundDuration":96880,"Delta":2787664},{"NoteNumber":67,"Velocity":49,"Duration":96880,"SoundDuration":96880,"Delta":2884545},{"NoteNumber":70,"Velocity":65,"Duration":96880,"SoundDuration":96880,"Delta":2981425},{"NoteNumber":43,"Velocity":53,"Duration":108990,"SoundDuration":108990,"Delta":2981425},{"NoteNumber":55,"Velocity":63,"Duration":108990,"SoundDuration":108990,"Delta":2981425},{"NoteNumber":62,"Velocity":50,"Duration":96880,"SoundDuration":96880,"Delta":3078306},{"NoteNumber":64,"Velocity":50,"Duration":96880,"SoundDuration":96880,"Delta":3175186},{"NoteNumber":65,"Velocity":67,"Duration":101399,"SoundDuration":101399,"Delta":3272067},{"NoteNumber":59,"Velocity":51,"Duration":96880,"SoundDuration":96880,"Delta":3373466},{"NoteNumber":71,"Velocity":51,"Duration":96880,"SoundDuration":96880,"Delta":3470347},{"NoteNumber":74,"Velocity":67,"Duration":96880,"SoundDuration":96880,"Delta":3567227},{"NoteNumber":56,"Velocity":65,"Duration":108990,"SoundDuration":108990,"Delta":3567227},{"NoteNumber":44,"Velocity":54,"Duration":108990,"SoundDuration":108990,"Delta":3567227},{"NoteNumber":65,"Velocity":52,"Duration":96880,"SoundDuration":96880,"Delta":3664108},{"NoteNumber":67,"Velocity":52,"Duration":96880,"SoundDuration":96880,"Delta":3760988},{"NoteNumber":68,"Velocity":69,"Duration":105218,"SoundDuration":105218,"Delta":3857869},{"NoteNumber":62,"Velocity":52,"Duration":107297,"SoundDuration":107297,"Delta":3963087},{"NoteNumber":74,"Velocity":56,"Duration":109938,"SoundDuration":109938,"Delta":4070385},{"NoteNumber":77,"Velocity":71,"Duration":101926,"SoundDuration":101926,"Delta":4180324},{"NoteNumber":45,"Velocity":60,"Duration":879571,"SoundDuration":879571,"Delta":4180324},{"NoteNumber":57,"Velocity":72,"Duration":879571,"SoundDuration":879571,"Delta":4180324},{"NoteNumber":65,"Velocity":57,"Duration":98833,"SoundDuration":98833,"Delta":4282250},{"NoteNumber":68,"Velocity":59,"Duration":98833,"SoundDuration":98833,"Delta":4381084},{"NoteNumber":69,"Velocity":76,"Duration":95923,"SoundDuration":95923,"Delta":4479918},{"NoteNumber":64,"Velocity":63,"Duration":95923,"SoundDuration":95923,"Delta":4575841},{"NoteNumber":73,"Velocity":63,"Duration":95923,"SoundDuration":95923,"Delta":4671765},{"NoteNumber":76,"Velocity":77,"Duration":95923,"SoundDuration":95923,"Delta":4767688},{"NoteNumber":67,"Velocity":66,"Duration":95923,"SoundDuration":95923,"Delta":4863611},{"NoteNumber":69,"Velocity":67,"Duration":100361,"SoundDuration":100361,"Delta":4959535},{"NoteNumber":70,"Velocity":81,"Duration":106360,"SoundDuration":106360,"Delta":5059896},{"NoteNumber":64,"Velocity":63,"Duration":99840,"SoundDuration":99840,"Delta":5166256},{"NoteNumber":73,"Velocity":59,"Duration":99840,"SoundDuration":99840,"Delta":5266096},{"NoteNumber":76,"Velocity":63,"Duration":99840,"SoundDuration":99840,"Delta":5365937},{"NoteNumber":45,"Velocity":50,"Duration":112320,"SoundDuration":112320,"Delta":5365937},{"NoteNumber":57,"Velocity":60,"Duration":112320,"SoundDuration":112320,"Delta":5365937},{"NoteNumber":49,"Velocity":50,"Duration":112320,"SoundDuration":112320,"Delta":5365937},{"NoteNumber":67,"Velocity":47,"Duration":99840,"SoundDuration":99840,"Delta":5465777},{"NoteNumber":69,"Velocity":47,"Duration":99840,"SoundDuration":99840,"Delta":5565617},{"NoteNumber":70,"Velocity":63,"Duration":105218,"SoundDuration":105218,"Delta":5665458},{"NoteNumber":65,"Velocity":48,"Duration":99344,"SoundDuration":99344,"Delta":5770677},{"NoteNumber":74,"Velocity":48,"Duration":99344,"SoundDuration":99344,"Delta":5870021},{"NoteNumber":77,"Velocity":62,"Duration":96404,"SoundDuration":96404,"Delta":5969365},{"NoteNumber":50,"Velocity":50,"Duration":108454,"SoundDuration":108454,"Delta":5969365},{"NoteNumber":53,"Velocity":50,"Duration":108454,"SoundDuration":108454,"Delta":5969365},{"NoteNumber":62,"Velocity":60,"Duration":108454,"SoundDuration":108454,"Delta":5969365},{"NoteNumber":69,"Velocity":47,"Duration":96404,"SoundDuration":96404,"Delta":6065770},{"NoteNumber":72,"Velocity":47,"Duration":96404,"SoundDuration":96404,"Delta":6162174},{"NoteNumber":73,"Velocity":62,"Duration":106929,"SoundDuration":106929,"Delta":6258578},{"NoteNumber":67,"Velocity":47,"Duration":98833,"SoundDuration":98833,"Delta":6365507},{"NoteNumber":76,"Velocity":47,"Duration":98833,"SoundDuration":98833,"Delta":6464341},{"NoteNumber":79,"Velocity":62,"Duration":96880,"SoundDuration":96880,"Delta":6563174},{"NoteNumber":61,"Velocity":60,"Duration":108990,"SoundDuration":108990,"Delta":6563174},{"NoteNumber":52,"Velocity":50,"Duration":108990,"SoundDuration":108990,"Delta":6563174},{"NoteNumber":55,"Velocity":50,"Duration":108990,"SoundDuration":108990,"Delta":6563174},{"NoteNumber":70,"Velocity":47,"Duration":96880,"SoundDuration":96880,"Delta":6660055},{"NoteNumber":74,"Velocity":47,"Duration":96880,"SoundDuration":96880,"Delta":6756936},{"NoteNumber":75,"Velocity":62,"Duration":107526,"SoundDuration":107526,"Delta":6853816},{"NoteNumber":69,"Velocity":46,"Duration":98347,"SoundDuration":98347,"Delta":6961343},{"NoteNumber":81,"Velocity":47,"Duration":98347,"SoundDuration":98347,"Delta":7059691},{"NoteNumber":84,"Velocity":62,"Duration":97361,"SoundDuration":97361,"Delta":7158039},{"NoteNumber":60,"Velocity":51,"Duration":109531,"SoundDuration":109531,"Delta":7158039},{"NoteNumber":57,"Velocity":51,"Duration":109531,"SoundDuration":109531,"Delta":7158039},{"NoteNumber":62,"Velocity":61,"Duration":109531,"SoundDuration":109531,"Delta":7158039},{"NoteNumber":54,"Velocity":51,"Duration":109531,"SoundDuration":109531,"Delta":7158039},{"NoteNumber":72,"Velocity":48,"Duration":97361,"SoundDuration":97361,"Delta":7255400},{"NoteNumber":74,"Velocity":49,"Duration":97361,"SoundDuration":97361,"Delta":7352762},{"NoteNumber":75,"Velocity":65,"Duration":106928,"SoundDuration":106928,"Delta":7450123},{"NoteNumber":70,"Velocity":49,"Duration":99840,"SoundDuration":99840,"Delta":7557052},{"NoteNumber":79,"Velocity":49,"Duration":99840,"SoundDuration":99840,"Delta":7656892},{"NoteNumber":82,"Velocity":72,"Duration":99840,"SoundDuration":99840,"Delta":7756733},{"NoteNumber":67,"Velocity":63,"Duration":112320,"SoundDuration":112320,"Delta":7756733},{"NoteNumber":63,"Velocity":53,"Duration":112320,"SoundDuration":112320,"Delta":7756733},{"NoteNumber":58,"Velocity":53,"Duration":112320,"SoundDuration":112320,"Delta":7756733},{"NoteNumber":55,"Velocity":53,"Duration":112320,"SoundDuration":112320,"Delta":7756733},{"NoteNumber":74,"Velocity":57,"Duration":99840,"SoundDuration":99840,"Delta":7856573},{"NoteNumber":76,"Velocity":57,"Duration":99840,"SoundDuration":99840,"Delta":7956413},{"NoteNumber":77,"Velocity":74,"Duration":105775,"SoundDuration":105775,"Delta":8056254},{"NoteNumber":71,"Velocity":57,"Duration":102461,"SoundDuration":102461,"Delta":8162029},{"NoteNumber":86,"Velocity":57,"Duration":102997,"SoundDuration":102997,"Delta":8264491},{"NoteNumber":89,"Velocity":76,"Duration":102997,"SoundDuration":102997,"Delta":8367488},{"NoteNumber":56,"Velocity":54,"Duration":115871,"SoundDuration":115871,"Delta":8367488},{"NoteNumber":62,"Velocity":54,"Duration":115871,"SoundDuration":115871,"Delta":8367488},{"NoteNumber":65,"Velocity":65,"Duration":115871,"SoundDuration":115871,"Delta":8367488},{"NoteNumber":59,"Velocity":54,"Duration":115871,"SoundDuration":115871,"Delta":8367488},{"NoteNumber":77,"Velocity":61,"Duration":102997,"SoundDuration":102997,"Delta":8470485},{"NoteNumber":83,"Velocity":61,"Duration":102997,"SoundDuration":102997,"Delta":8573482},{"NoteNumber":85,"Velocity":82,"Duration":106929,"SoundDuration":106929,"Delta":8676479},{"NoteNumber":76,"Velocity":62,"Duration":101926,"SoundDuration":101926,"Delta":8783408},{"NoteNumber":88,"Velocity":65,"Duration":101926,"SoundDuration":101926,"Delta":8885335},{"NoteNumber":93,"Velocity":82,"Duration":107526,"SoundDuration":107526,"Delta":8987261},{"NoteNumber":61,"Velocity":56,"Duration":322580,"SoundDuration":322580,"Delta":8987261},{"NoteNumber":57,"Velocity":56,"Duration":322580,"SoundDuration":322580,"Delta":8987261},{"NoteNumber":69,"Velocity":68,"Duration":322580,"SoundDuration":322580,"Delta":8987261},{"NoteNumber":81,"Velocity":67,"Duration":107526,"SoundDuration":107526,"Delta":9094788},{"NoteNumber":86,"Velocity":80,"Duration":107526,"SoundDuration":107526,"Delta":9202315},{"NoteNumber":98,"Velocity":95,"Duration":322580,"SoundDuration":322580,"Delta":9309842},{"NoteNumber":65,"Velocity":56,"Duration":322580,"SoundDuration":322580,"Delta":9309842},{"NoteNumber":62,"Velocity":56,"Duration":322580,"SoundDuration":322580,"Delta":9309842},{"NoteNumber":74,"Velocity":68,"Duration":322580,"SoundDuration":322580,"Delta":9309842},{"NoteNumber":69,"Velocity":56,"Duration":322580,"SoundDuration":322580,"Delta":9309842},{"NoteNumber":57,"Velocity":47,"Duration":178997,"SoundDuration":178997,"Delta":9793712},{"NoteNumber":58,"Velocity":63,"Duration":111197,"SoundDuration":111197,"Delta":9972710},{"NoteNumber":52,"Velocity":46,"Duration":106928,"SoundDuration":106928,"Delta":10083908},{"NoteNumber":61,"Velocity":46,"Duration":106929,"SoundDuration":106929,"Delta":10190837},{"NoteNumber":64,"Velocity":63,"Duration":106928,"SoundDuration":106928,"Delta":10297766},{"NoteNumber":45,"Velocity":60,"Duration":120295,"SoundDuration":120295,"Delta":10297766},{"NoteNumber":33,"Velocity":50,"Duration":120295,"SoundDuration":120295,"Delta":10297766},{"NoteNumber":55,"Velocity":47,"Duration":106929,"SoundDuration":106929,"Delta":10404695},{"NoteNumber":57,"Velocity":47,"Duration":106928,"SoundDuration":106928,"Delta":10511624},{"NoteNumber":58,"Velocity":63,"Duration":111197,"SoundDuration":111197,"Delta":10618553},{"NoteNumber":53,"Velocity":48,"Duration":102458,"SoundDuration":102458,"Delta":10729750},{"NoteNumber":62,"Velocity":48,"Duration":102458,"SoundDuration":102458,"Delta":10832209},{"NoteNumber":65,"Velocity":62,"Duration":102459,"SoundDuration":102459,"Delta":10934668},{"NoteNumber":38,"Velocity":50,"Duration":115266,"SoundDuration":115266,"Delta":10934668},{"NoteNumber":50,"Velocity":60,"Duration":115266,"SoundDuration":115266,"Delta":10934668},{"NoteNumber":57,"Velocity":47,"Duration":102458,"SoundDuration":102458,"Delta":11037127},{"NoteNumber":60,"Velocity":47,"Duration":102458,"SoundDuration":102458,"Delta":11139586},{"NoteNumber":61,"Velocity":62,"Duration":111819,"SoundDuration":111819,"Delta":11242045},{"NoteNumber":55,"Velocity":47,"Duration":101926,"SoundDuration":101926,"Delta":11353865},{"NoteNumber":64,"Velocity":47,"Duration":101926,"SoundDuration":101926,"Delta":11455791},{"NoteNumber":67,"Velocity":62,"Duration":101926,"SoundDuration":101926,"Delta":11557717},{"NoteNumber":52,"Velocity":60,"Duration":114667,"SoundDuration":114667,"Delta":11557717},{"NoteNumber":40,"Velocity":50,"Duration":114667,"SoundDuration":114667,"Delta":11557717},{"NoteNumber":58,"Velocity":47,"Duration":101926,"SoundDuration":101926,"Delta":11659644},{"NoteNumber":62,"Velocity":47,"Duration":101926,"SoundDuration":101926,"Delta":11761570},{"NoteNumber":63,"Velocity":62,"Duration":106360,"SoundDuration":106360,"Delta":11863496},{"NoteNumber":57,"Velocity":46,"Duration":98833,"SoundDuration":98833,"Delta":11969857},{"NoteNumber":69,"Velocity":47,"Duration":98833,"SoundDuration":98833,"Delta":12068690},{"NoteNumber":72,"Velocity":62,"Duration":98833,"SoundDuration":98833,"Delta":12167524},{"NoteNumber":42,"Velocity":51,"Duration":111188,"SoundDuration":111188,"Delta":12167524},{"NoteNumber":54,"Velocity":61,"Duration":111188,"SoundDuration":111188,"Delta":12167524},{"NoteNumber":60,"Velocity":48,"Duration":98833,"SoundDuration":98833,"Delta":12266358},{"NoteNumber":62,"Velocity":49,"Duration":98833,"SoundDuration":98833,"Delta":12365192},{"NoteNumber":63,"Velocity":65,"Duration":103551,"SoundDuration":103551,"Delta":12464026},{"NoteNumber":58,"Velocity":49,"Duration":95574,"SoundDuration":95574,"Delta":12567578},{"NoteNumber":67,"Velocity":49,"Duration":95574,"SoundDuration":95574,"Delta":12663152},{"NoteNumber":70,"Velocity":65,"Duration":95574,"SoundDuration":95574,"Delta":12758727},{"NoteNumber":43,"Velocity":53,"Duration":107521,"SoundDuration":107521,"Delta":12758727},{"NoteNumber":55,"Velocity":63,"Duration":107521,"SoundDuration":107521,"Delta":12758727},{"NoteNumber":62,"Velocity":50,"Duration":95574,"SoundDuration":95574,"Delta":12854302},{"NoteNumber":64,"Velocity":50,"Duration":95574,"SoundDuration":95574,"Delta":12949877},{"NoteNumber":65,"Velocity":67,"Duration":101399,"SoundDuration":101399,"Delta":13045452},{"NoteNumber":59,"Velocity":51,"Duration":96880,"SoundDuration":96880,"Delta":13146851},{"NoteNumber":71,"Velocity":51,"Duration":96880,"SoundDuration":96880,"Delta":13243732},{"NoteNumber":74,"Velocity":67,"Duration":96880,"SoundDuration":96880,"Delta":13340612},{"NoteNumber":56,"Velocity":65,"Duration":108990,"SoundDuration":108990,"Delta":13340612},{"NoteNumber":44,"Velocity":54,"Duration":108990,"SoundDuration":108990,"Delta":13340612},{"NoteNumber":65,"Velocity":52,"Duration":96880,"SoundDuration":96880,"Delta":13437493},{"NoteNumber":67,"Velocity":52,"Duration":96880,"SoundDuration":96880,"Delta":13534373},{"NoteNumber":68,"Velocity":69,"Duration":105218,"SoundDuration":105218,"Delta":13631254},{"NoteNumber":62,"Velocity":52,"Duration":107297,"SoundDuration":107297,"Delta":13736472},{"NoteNumber":74,"Velocity":56,"Duration":109938,"SoundDuration":109938,"Delta":13843770},{"NoteNumber":77,"Velocity":71,"Duration":101926,"SoundDuration":101926,"Delta":13953709},{"NoteNumber":57,"Velocity":72,"Duration":879572,"SoundDuration":879572,"Delta":13953709},{"NoteNumber":45,"Velocity":60,"Duration":879572,"SoundDuration":879572,"Delta":13953709},{"NoteNumber":65,"Velocity":57,"Duration":98833,"SoundDuration":98833,"Delta":14055635},{"NoteNumber":68,"Velocity":59,"Duration":98833,"SoundDuration":98833,"Delta":14154469},{"NoteNumber":69,"Velocity":76,"Duration":95923,"SoundDuration":95923,"Delta":14253303},{"NoteNumber":64,"Velocity":63,"Duration":95923,"SoundDuration":95923,"Delta":14349226},{"NoteNumber":73,"Velocity":63,"Duration":95923,"SoundDuration":95923,"Delta":14445149},{"NoteNumber":76,"Velocity":77,"Duration":95923,"SoundDuration":95923,"Delta":14541073},{"NoteNumber":67,"Velocity":66,"Duration":95923,"SoundDuration":95923,"Delta":14636996},{"NoteNumber":69,"Velocity":67,"Duration":100361,"SoundDuration":100361,"Delta":14732919},{"NoteNumber":70,"Velocity":81,"Duration":106360,"SoundDuration":106360,"Delta":14833281},{"NoteNumber":64,"Velocity":63,"Duration":97323,"SoundDuration":97323,"Delta":14939641},{"NoteNumber":73,"Velocity":59,"Duration":97323,"SoundDuration":97323,"Delta":15036965},{"NoteNumber":76,"Velocity":63,"Duration":97323,"SoundDuration":97323,"Delta":15134288},{"NoteNumber":57,"Velocity":60,"Duration":109489,"SoundDuration":109489,"Delta":15134288},{"NoteNumber":49,"Velocity":50,"Duration":109489,"SoundDuration":109489,"Delta":15134288},{"NoteNumber":45,"Velocity":50,"Duration":109489,"SoundDuration":109489,"Delta":15134288},{"NoteNumber":67,"Velocity":47,"Duration":97323,"SoundDuration":97323,"Delta":15231612},{"NoteNumber":69,"Velocity":47,"Duration":97323,"SoundDuration":97323,"Delta":15328936},{"NoteNumber":70,"Velocity":63,"Duration":105218,"SoundDuration":105218,"Delta":15426259},{"NoteNumber":65,"Velocity":48,"Duration":99344,"SoundDuration":99344,"Delta":15531478},{"NoteNumber":74,"Velocity":48,"Duration":99344,"SoundDuration":99344,"Delta":15630823},{"NoteNumber":77,"Velocity":62,"Duration":95147,"SoundDuration":95147,"Delta":15730167},{"NoteNumber":62,"Velocity":60,"Duration":107040,"SoundDuration":107040,"Delta":15730167},{"NoteNumber":53,"Velocity":50,"Duration":107040,"SoundDuration":107040,"Delta":15730167},{"NoteNumber":50,"Velocity":50,"Duration":107040,"SoundDuration":107040,"Delta":15730167},{"NoteNumber":69,"Velocity":47,"Duration":95147,"SoundDuration":95147,"Delta":15825314},{"NoteNumber":72,"Velocity":47,"Duration":95147,"SoundDuration":95147,"Delta":15920462},{"NoteNumber":73,"Velocity":62,"Duration":106929,"SoundDuration":106929,"Delta":16015609},{"NoteNumber":67,"Velocity":47,"Duration":98833,"SoundDuration":98833,"Delta":16122538},{"NoteNumber":76,"Velocity":47,"Duration":98833,"SoundDuration":98833,"Delta":16221372},{"NoteNumber":79,"Velocity":62,"Duration":95574,"SoundDuration":95574,"Delta":16320206},{"NoteNumber":55,"Velocity":50,"Duration":107521,"SoundDuration":107521,"Delta":16320206},{"NoteNumber":52,"Velocity":50,"Duration":107521,"SoundDuration":107521,"Delta":16320206},{"NoteNumber":61,"Velocity":60,"Duration":107521,"SoundDuration":107521,"Delta":16320206},{"NoteNumber":70,"Velocity":47,"Duration":95574,"SoundDuration":95574,"Delta":16415781},{"NoteNumber":74,"Velocity":47,"Duration":95574,"SoundDuration":95574,"Delta":16511356},{"NoteNumber":75,"Velocity":62,"Duration":107526,"SoundDuration":107526,"Delta":16606931},{"NoteNumber":69,"Velocity":46,"Duration":98347,"SoundDuration":98347,"Delta":16714457},{"NoteNumber":81,"Velocity":47,"Duration":98347,"SoundDuration":98347,"Delta":16812805},{"NoteNumber":84,"Velocity":62,"Duration":97361,"SoundDuration":97361,"Delta":16911153},{"NoteNumber":60,"Velocity":51,"Duration":109531,"SoundDuration":109531,"Delta":16911153},{"NoteNumber":57,"Velocity":51,"Duration":109531,"SoundDuration":109531,"Delta":16911153},{"NoteNumber":54,"Velocity":51,"Duration":109531,"SoundDuration":109531,"Delta":16911153},{"NoteNumber":62,"Velocity":61,"Duration":109531,"SoundDuration":109531,"Delta":16911153},{"NoteNumber":72,"Velocity":48,"Duration":97361,"SoundDuration":97361,"Delta":17008515},{"NoteNumber":74,"Velocity":49,"Duration":97361,"SoundDuration":97361,"Delta":17105876},{"NoteNumber":75,"Velocity":65,"Duration":106929,"SoundDuration":106929,"Delta":17203238},{"NoteNumber":70,"Velocity":49,"Duration":99840,"SoundDuration":99840,"Delta":17310167},{"NoteNumber":79,"Velocity":49,"Duration":99840,"SoundDuration":99840,"Delta":17410007},{"NoteNumber":82,"Velocity":72,"Duration":99840,"SoundDuration":99840,"Delta":17509847},{"NoteNumber":67,"Velocity":63,"Duration":112320,"SoundDuration":112320,"Delta":17509847},{"NoteNumber":58,"Velocity":53,"Duration":112320,"SoundDuration":112320,"Delta":17509847},{"NoteNumber":55,"Velocity":53,"Duration":112320,"SoundDuration":112320,"Delta":17509847},{"NoteNumber":63,"Velocity":53,"Duration":112320,"SoundDuration":112320,"Delta":17509847},{"NoteNumber":74,"Velocity":57,"Duration":99840,"SoundDuration":99840,"Delta":17609688},{"NoteNumber":76,"Velocity":57,"Duration":99840,"SoundDuration":99840,"Delta":17709528},{"NoteNumber":77,"Velocity":74,"Duration":105775,"SoundDuration":105775,"Delta":17809368},{"NoteNumber":71,"Velocity":57,"Duration":102461,"SoundDuration":102461,"Delta":17915144},{"NoteNumber":86,"Velocity":57,"Duration":102997,"SoundDuration":102997,"Delta":18017605},{"NoteNumber":89,"Velocity":76,"Duration":102997,"SoundDuration":102997,"Delta":18120602},{"NoteNumber":59,"Velocity":54,"Duration":115871,"SoundDuration":115871,"Delta":18120602},{"NoteNumber":62,"Velocity":54,"Duration":115871,"SoundDuration":115871,"Delta":18120602},{"NoteNumber":56,"Velocity":54,"Duration":115871,"SoundDuration":115871,"Delta":18120602},{"NoteNumber":65,"Velocity":65,"Duration":115871,"SoundDuration":115871,"Delta":18120602},{"NoteNumber":77,"Velocity":61,"Duration":102997,"SoundDuration":102997,"Delta":18223600},{"NoteNumber":83,"Velocity":61,"Duration":102997,"SoundDuration":102997,"Delta":18326597},{"NoteNumber":85,"Velocity":82,"Duration":106928,"SoundDuration":106928,"Delta":18429594},{"NoteNumber":76,"Velocity":62,"Duration":101926,"SoundDuration":101926,"Delta":18536523},{"NoteNumber":88,"Velocity":65,"Duration":101926,"SoundDuration":101926,"Delta":18638449},{"NoteNumber":93,"Velocity":82,"Duration":107526,"SoundDuration":107526,"Delta":18740376},{"NoteNumber":61,"Velocity":56,"Duration":322580,"SoundDuration":322580,"Delta":18740376},{"NoteNumber":57,"Velocity":56,"Duration":322580,"SoundDuration":322580,"Delta":18740376},{"NoteNumber":69,"Velocity":68,"Duration":322580,"SoundDuration":322580,"Delta":18740376},{"NoteNumber":81,"Velocity":67,"Duration":107526,"SoundDuration":107526,"Delta":18847902},{"NoteNumber":86,"Velocity":80,"Duration":107526,"SoundDuration":107526,"Delta":18955429},{"NoteNumber":98,"Velocity":95,"Duration":322580,"SoundDuration":322580,"Delta":19062956},{"NoteNumber":74,"Velocity":68,"Duration":322580,"SoundDuration":322580,"Delta":19062956},{"NoteNumber":62,"Velocity":56,"Duration":322580,"SoundDuration":322580,"Delta":19062956},{"NoteNumber":65,"Velocity":56,"Duration":322580,"SoundDuration":322580,"Delta":19062956},{"NoteNumber":69,"Velocity":56,"Duration":322580,"SoundDuration":322580,"Delta":19062956},{"NoteNumber":77,"Velocity":74,"Duration":99840,"SoundDuration":99840,"Delta":19493063},{"NoteNumber":81,"Velocity":74,"Duration":99840,"SoundDuration":99840,"Delta":19592904},{"NoteNumber":82,"Velocity":82,"Duration":101926,"SoundDuration":101926,"Delta":19692744},{"NoteNumber":77,"Velocity":76,"Duration":101926,"SoundDuration":101926,"Delta":19794670},{"NoteNumber":86,"Velocity":72,"Duration":122309,"SoundDuration":122309,"Delta":19896597},{"NoteNumber":89,"Velocity":87,"Duration":106010,"SoundDuration":106010,"Delta":20018906},{"NoteNumber":62,"Velocity":54,"Duration":627024,"SoundDuration":627024,"Delta":20018906},{"NoteNumber":69,"Velocity":73,"Duration":318032,"SoundDuration":318032,"Delta":20018906},{"NoteNumber":77,"Velocity":81,"Duration":106010,"SoundDuration":106010,"Delta":20124917},{"NoteNumber":81,"Velocity":84,"Duration":106010,"SoundDuration":106010,"Delta":20230928},{"NoteNumber":82,"Velocity":93,"Duration":102997,"SoundDuration":102997,"Delta":20336938},{"NoteNumber":70,"Velocity":80,"Duration":308991,"SoundDuration":308991,"Delta":20336938},{"NoteNumber":76,"Velocity":81,"Duration":102997,"SoundDuration":102997,"Delta":20439936},{"NoteNumber":80,"Velocity":74,"Duration":102997,"SoundDuration":102997,"Delta":20542933},{"NoteNumber":81,"Velocity":82,"Duration":102933,"SoundDuration":102933,"Delta":20645930},{"NoteNumber":60,"Velocity":56,"Duration":308800,"SoundDuration":308800,"Delta":20645930},{"NoteNumber":69,"Velocity":73,"Duration":308800,"SoundDuration":308800,"Delta":20645930},{"NoteNumber":77,"Velocity":71,"Duration":102933,"SoundDuration":102933,"Delta":20748864},{"NoteNumber":81,"Velocity":66,"Duration":102933,"SoundDuration":102933,"Delta":20851797},{"NoteNumber":82,"Velocity":82,"Duration":101926,"SoundDuration":101926,"Delta":20954731},{"NoteNumber":77,"Velocity":76,"Duration":101926,"SoundDuration":101926,"Delta":21056657},{"NoteNumber":86,"Velocity":72,"Duration":122309,"SoundDuration":122309,"Delta":21158584},{"NoteNumber":89,"Velocity":87,"Duration":106010,"SoundDuration":106010,"Delta":21280893},{"NoteNumber":62,"Velocity":49,"Duration":610671,"SoundDuration":610671,"Delta":21280893},{"NoteNumber":69,"Velocity":73,"Duration":309073,"SoundDuration":309073,"Delta":21280893},{"NoteNumber":77,"Velocity":81,"Duration":100128,"SoundDuration":100128,"Delta":21386904},{"NoteNumber":81,"Velocity":84,"Duration":102933,"SoundDuration":102933,"Delta":21487032},{"NoteNumber":82,"Velocity":93,"Duration":100532,"SoundDuration":100532,"Delta":21589966},{"NoteNumber":70,"Velocity":80,"Duration":301598,"SoundDuration":301598,"Delta":21589966},{"NoteNumber":76,"Velocity":81,"Duration":100532,"SoundDuration":100532,"Delta":21690499},{"NoteNumber":80,"Velocity":69,"Duration":100532,"SoundDuration":100532,"Delta":21791032},{"NoteNumber":81,"Velocity":82,"Duration":101978,"SoundDuration":101978,"Delta":21891564},{"NoteNumber":60,"Velocity":51,"Duration":305935,"SoundDuration":305935,"Delta":21891564},{"NoteNumber":69,"Velocity":73,"Duration":632096,"SoundDuration":632096,"Delta":21891564},{"NoteNumber":76,"Velocity":71,"Duration":101978,"SoundDuration":101978,"Delta":21993543},{"NoteNumber":81,"Velocity":62,"Duration":101978,"SoundDuration":101978,"Delta":22095521},{"NoteNumber":86,"Velocity":82,"Duration":101926,"SoundDuration":101926,"Delta":22197499},{"NoteNumber":58,"Velocity":59,"Duration":626281,"SoundDuration":626281,"Delta":22197499},{"NoteNumber":74,"Velocity":71,"Duration":101926,"SoundDuration":101926,"Delta":22299426},{"NoteNumber":79,"Velocity":61,"Duration":122309,"SoundDuration":122309,"Delta":22401352},{"NoteNumber":81,"Velocity":80,"Duration":100039,"SoundDuration":100039,"Delta":22523661},{"NoteNumber":67,"Velocity":76,"Duration":611937,"SoundDuration":611937,"Delta":22523661},{"NoteNumber":74,"Velocity":72,"Duration":100039,"SoundDuration":100039,"Delta":22623701},{"NoteNumber":79,"Velocity":65,"Duration":100039,"SoundDuration":100039,"Delta":22723741},{"NoteNumber":84,"Velocity":77,"Duration":103939,"SoundDuration":103939,"Delta":22823781},{"NoteNumber":57,"Velocity":60,"Duration":623636,"SoundDuration":623636,"Delta":22823781},{"NoteNumber":72,"Velocity":67,"Duration":103939,"SoundDuration":103939,"Delta":22927721},{"NoteNumber":77,"Velocity":63,"Duration":103939,"SoundDuration":103939,"Delta":23031660},{"NoteNumber":79,"Velocity":67,"Duration":103939,"SoundDuration":103939,"Delta":23135599},{"NoteNumber":65,"Velocity":76,"Duration":637979,"SoundDuration":637979,"Delta":23135599},{"NoteNumber":72,"Velocity":59,"Duration":103939,"SoundDuration":103939,"Delta":23239539},{"NoteNumber":77,"Velocity":52,"Duration":103939,"SoundDuration":103939,"Delta":23343478},{"NoteNumber":82,"Velocity":72,"Duration":101926,"SoundDuration":101926,"Delta":23447417},{"NoteNumber":55,"Velocity":59,"Duration":627699,"SoundDuration":627699,"Delta":23447417},{"NoteNumber":70,"Velocity":66,"Duration":101926,"SoundDuration":101926,"Delta":23549344},{"NoteNumber":76,"Velocity":59,"Duration":122309,"SoundDuration":122309,"Delta":23651270},{"NoteNumber":77,"Velocity":69,"Duration":100512,"SoundDuration":100512,"Delta":23773579},{"NoteNumber":64,"Velocity":71,"Duration":614886,"SoundDuration":614886,"Delta":23773579},{"NoteNumber":70,"Velocity":60,"Duration":100512,"SoundDuration":100512,"Delta":23874092},{"NoteNumber":76,"Velocity":52,"Duration":100512,"SoundDuration":100512,"Delta":23974604},{"NoteNumber":81,"Velocity":68,"Duration":104449,"SoundDuration":104449,"Delta":24075117},{"NoteNumber":53,"Velocity":54,"Duration":626697,"SoundDuration":626697,"Delta":24075117},{"NoteNumber":69,"Velocity":59,"Duration":104449,"SoundDuration":104449,"Delta":24179567},{"NoteNumber":74,"Velocity":52,"Duration":104449,"SoundDuration":104449,"Delta":24284016},{"NoteNumber":76,"Velocity":65,"Duration":104449,"SoundDuration":104449,"Delta":24388466},{"NoteNumber":62,"Velocity":68,"Duration":313348,"SoundDuration":313348,"Delta":24388466},{"NoteNumber":69,"Velocity":54,"Duration":104449,"SoundDuration":104449,"Delta":24492915},{"NoteNumber":74,"Velocity":48,"Duration":104449,"SoundDuration":104449,"Delta":24597365},{"NoteNumber":75,"Velocity":73,"Duration":101926,"SoundDuration":101926,"Delta":24701814},{"NoteNumber":70,"Velocity":68,"Duration":101926,"SoundDuration":101926,"Delta":24803740},{"NoteNumber":79,"Velocity":65,"Duration":122309,"SoundDuration":122309,"Delta":24905667},{"NoteNumber":82,"Velocity":77,"Duration":105485,"SoundDuration":105485,"Delta":25027976},{"NoteNumber":55,"Velocity":55,"Duration":316455,"SoundDuration":316455,"Delta":25027976},{"NoteNumber":58,"Velocity":55,"Duration":316455,"SoundDuration":316455,"Delta":25027976},{"NoteNumber":63,"Velocity":66,"Duration":316455,"SoundDuration":316455,"Delta":25027976},{"NoteNumber":70,"Velocity":72,"Duration":105485,"SoundDuration":105485,"Delta":25133461},{"NoteNumber":74,"Velocity":76,"Duration":105485,"SoundDuration":105485,"Delta":25238946},{"NoteNumber":79,"Velocity":83,"Duration":102997,"SoundDuration":102997,"Delta":25344431},{"NoteNumber":56,"Velocity":49,"Duration":308991,"SoundDuration":308991,"Delta":25344431},{"NoteNumber":67,"Velocity":71,"Duration":308991,"SoundDuration":308991,"Delta":25344431},{"NoteNumber":58,"Velocity":49,"Duration":308991,"SoundDuration":308991,"Delta":25344431},{"NoteNumber":62,"Velocity":59,"Duration":308991,"SoundDuration":308991,"Delta":25344431},{"NoteNumber":70,"Velocity":72,"Duration":102997,"SoundDuration":102997,"Delta":25447429},{"NoteNumber":74,"Velocity":67,"Duration":102997,"SoundDuration":102997,"Delta":25550426},{"NoteNumber":75,"Velocity":73,"Duration":102997,"SoundDuration":102997,"Delta":25653423},{"NoteNumber":63,"Velocity":66,"Duration":308991,"SoundDuration":308991,"Delta":25653423},{"NoteNumber":55,"Velocity":55,"Duration":308991,"SoundDuration":308991,"Delta":25653423},{"NoteNumber":58,"Velocity":55,"Duration":308991,"SoundDuration":308991,"Delta":25653423},{"NoteNumber":70,"Velocity":63,"Duration":102997,"SoundDuration":102997,"Delta":25756420},{"NoteNumber":74,"Velocity":57,"Duration":102997,"SoundDuration":102997,"Delta":25859417},{"NoteNumber":75,"Velocity":73,"Duration":101926,"SoundDuration":101926,"Delta":25962414},{"NoteNumber":70,"Velocity":68,"Duration":101926,"SoundDuration":101926,"Delta":26064341},{"NoteNumber":79,"Velocity":65,"Duration":122309,"SoundDuration":122309,"Delta":26166267},{"NoteNumber":82,"Velocity":77,"Duration":104449,"SoundDuration":104449,"Delta":26288576},{"NoteNumber":58,"Velocity":55,"Duration":313348,"SoundDuration":313348,"Delta":26288576},{"NoteNumber":63,"Velocity":66,"Duration":313348,"SoundDuration":313348,"Delta":26288576},{"NoteNumber":55,"Velocity":55,"Duration":313348,"SoundDuration":313348,"Delta":26288576},{"NoteNumber":70,"Velocity":72,"Duration":104449,"SoundDuration":104449,"Delta":26393026},{"NoteNumber":74,"Velocity":76,"Duration":104449,"SoundDuration":104449,"Delta":26497475},{"NoteNumber":79,"Velocity":83,"Duration":102997,"SoundDuration":102997,"Delta":26601925},{"NoteNumber":58,"Velocity":49,"Duration":308991,"SoundDuration":308991,"Delta":26601925},{"NoteNumber":56,"Velocity":49,"Duration":308991,"SoundDuration":308991,"Delta":26601925},{"NoteNumber":67,"Velocity":71,"Duration":308991,"SoundDuration":308991,"Delta":26601925},{"NoteNumber":62,"Velocity":59,"Duration":308991,"SoundDuration":308991,"Delta":26601925},{"NoteNumber":70,"Velocity":72,"Duration":102997,"SoundDuration":102997,"Delta":26704922},{"NoteNumber":74,"Velocity":67,"Duration":102997,"SoundDuration":102997,"Delta":26807919},{"NoteNumber":75,"Velocity":73,"Duration":102997,"SoundDuration":102997,"Delta":26910916},{"NoteNumber":58,"Velocity":55,"Duration":308991,"SoundDuration":308991,"Delta":26910916},{"NoteNumber":55,"Velocity":55,"Duration":308991,"SoundDuration":308991,"Delta":26910916},{"NoteNumber":63,"Velocity":66,"Duration":308991,"SoundDuration":308991,"Delta":26910916},{"NoteNumber":71,"Velocity":63,"Duration":102997,"SoundDuration":102997,"Delta":27013913},{"NoteNumber":75,"Velocity":57,"Duration":102997,"SoundDuration":102997,"Delta":27116911},{"NoteNumber":78,"Velocity":76,"Duration":97722,"SoundDuration":97722,"Delta":27219908},{"NoteNumber":54,"Velocity":57,"Duration":146584,"SoundDuration":146584,"Delta":27219908},{"NoteNumber":66,"Velocity":71,"Duration":146584,"SoundDuration":146584,"Delta":27219908},{"NoteNumber":66,"Velocity":63,"Duration":97723,"SoundDuration":97723,"Delta":27317631},{"NoteNumber":71,"Velocity":69,"Duration":97722,"SoundDuration":97722,"Delta":27415354},{"NoteNumber":75,"Velocity":76,"Duration":103551,"SoundDuration":103551,"Delta":27513077},{"NoteNumber":51,"Velocity":66,"Duration":623123,"SoundDuration":623123,"Delta":27513077},{"NoteNumber":63,"Velocity":66,"Duration":103551,"SoundDuration":103551,"Delta":27616629},{"NoteNumber":66,"Velocity":59,"Duration":103747,"SoundDuration":103747,"Delta":27720180},{"NoteNumber":71,"Velocity":73,"Duration":104090,"SoundDuration":104090,"Delta":27823928},{"NoteNumber":61,"Velocity":65,"Duration":104090,"SoundDuration":104090,"Delta":27928018},{"NoteNumber":67,"Velocity":57,"Duration":104090,"SoundDuration":104090,"Delta":28032109},{"NoteNumber":70,"Velocity":69,"Duration":104090,"SoundDuration":104090,"Delta":28136200},{"NoteNumber":52,"Velocity":59,"Duration":311637,"SoundDuration":311637,"Delta":28136200},{"NoteNumber":60,"Velocity":59,"Duration":104090,"SoundDuration":104090,"Delta":28240291},{"NoteNumber":63,"Velocity":51,"Duration":103455,"SoundDuration":103455,"Delta":28344382},{"NoteNumber":69,"Velocity":67,"Duration":96888,"SoundDuration":96888,"Delta":28447838},{"NoteNumber":54,"Velocity":59,"Duration":292158,"SoundDuration":292158,"Delta":28447838},{"NoteNumber":58,"Velocity":57,"Duration":97348,"SoundDuration":97348,"Delta":28544726},{"NoteNumber":62,"Velocity":52,"Duration":97920,"SoundDuration":97920,"Delta":28642075},{"NoteNumber":67,"Velocity":74,"Duration":98395,"SoundDuration":98395,"Delta":28739996},{"NoteNumber":55,"Velocity":65,"Duration":296857,"SoundDuration":296857,"Delta":28739996},{"NoteNumber":59,"Velocity":57,"Duration":98971,"SoundDuration":98971,"Delta":28838392},{"NoteNumber":62,"Velocity":52,"Duration":99490,"SoundDuration":99490,"Delta":28937363},{"NoteNumber":65,"Velocity":76,"Duration":100269,"SoundDuration":100269,"Delta":29036854},{"NoteNumber":56,"Velocity":70,"Duration":301271,"SoundDuration":301271,"Delta":29036854},{"NoteNumber":57,"Velocity":62,"Duration":100311,"SoundDuration":100311,"Delta":29137123},{"NoteNumber":61,"Velocity":55,"Duration":100690,"SoundDuration":100690,"Delta":29237434},{"NoteNumber":64,"Velocity":76,"Duration":101193,"SoundDuration":101193,"Delta":29338125},{"NoteNumber":57,"Velocity":74,"Duration":191432,"SoundDuration":191432,"Delta":29338125},{"NoteNumber":55,"Velocity":61,"Duration":103904,"SoundDuration":103904,"Delta":29439319},{"NoteNumber":57,"Velocity":56,"Duration":109547,"SoundDuration":109547,"Delta":29543224},{"NoteNumber":58,"Velocity":77,"Duration":111197,"SoundDuration":111197,"Delta":29652771},{"NoteNumber":52,"Velocity":57,"Duration":106929,"SoundDuration":106929,"Delta":29763969},{"NoteNumber":61,"Velocity":51,"Duration":106928,"SoundDuration":106928,"Delta":29870898},{"NoteNumber":64,"Velocity":63,"Duration":106929,"SoundDuration":106929,"Delta":29977827},{"NoteNumber":33,"Velocity":50,"Duration":120295,"SoundDuration":120295,"Delta":29977827},{"NoteNumber":45,"Velocity":60,"Duration":120295,"SoundDuration":120295,"Delta":29977827},{"NoteNumber":55,"Velocity":47,"Duration":106929,"SoundDuration":106929,"Delta":30084756},{"NoteNumber":57,"Velocity":47,"Duration":106929,"SoundDuration":106929,"Delta":30191685},{"NoteNumber":58,"Velocity":63,"Duration":111197,"SoundDuration":111197,"Delta":30298614},{"NoteNumber":53,"Velocity":48,"Duration":105218,"SoundDuration":105218,"Delta":30409812},{"NoteNumber":62,"Velocity":42,"Duration":105218,"SoundDuration":105218,"Delta":30515030},{"NoteNumber":65,"Velocity":62,"Duration":105218,"SoundDuration":105218,"Delta":30620249},{"NoteNumber":38,"Velocity":50,"Duration":118371,"SoundDuration":118371,"Delta":30620249},{"NoteNumber":50,"Velocity":60,"Duration":118371,"SoundDuration":118371,"Delta":30620249},{"NoteNumber":57,"Velocity":47,"Duration":105218,"SoundDuration":105218,"Delta":30725468},{"NoteNumber":60,"Velocity":42,"Duration":105218,"SoundDuration":105218,"Delta":30830687},{"NoteNumber":61,"Velocity":62,"Duration":111819,"SoundDuration":111819,"Delta":30935906},{"NoteNumber":55,"Velocity":47,"Duration":97323,"SoundDuration":97323,"Delta":31047725},{"NoteNumber":64,"Velocity":47,"Duration":97323,"SoundDuration":97323,"Delta":31145049},{"NoteNumber":67,"Velocity":62,"Duration":97323,"SoundDuration":97323,"Delta":31242372},{"NoteNumber":40,"Velocity":50,"Duration":109489,"SoundDuration":109489,"Delta":31242372},{"NoteNumber":52,"Velocity":60,"Duration":109489,"SoundDuration":109489,"Delta":31242372},{"NoteNumber":58,"Velocity":47,"Duration":97323,"SoundDuration":97323,"Delta":31339696},{"NoteNumber":62,"Velocity":42,"Duration":97323,"SoundDuration":97323,"Delta":31437020},{"NoteNumber":63,"Velocity":62,"Duration":106360,"SoundDuration":106360,"Delta":31534343},{"NoteNumber":57,"Velocity":46,"Duration":97323,"SoundDuration":97323,"Delta":31640704},{"NoteNumber":69,"Velocity":47,"Duration":97323,"SoundDuration":97323,"Delta":31738027},{"NoteNumber":72,"Velocity":62,"Duration":97323,"SoundDuration":97323,"Delta":31835351},{"NoteNumber":42,"Velocity":51,"Duration":109489,"SoundDuration":109489,"Delta":31835351},{"NoteNumber":54,"Velocity":61,"Duration":109489,"SoundDuration":109489,"Delta":31835351},{"NoteNumber":60,"Velocity":48,"Duration":97323,"SoundDuration":97323,"Delta":31932675},{"NoteNumber":62,"Velocity":49,"Duration":97323,"SoundDuration":97323,"Delta":32029998},{"NoteNumber":63,"Velocity":65,"Duration":103551,"SoundDuration":103551,"Delta":32127322},{"NoteNumber":58,"Velocity":49,"Duration":96880,"SoundDuration":96880,"Delta":32230874},{"NoteNumber":67,"Velocity":44,"Duration":96880,"SoundDuration":96880,"Delta":32327754},{"NoteNumber":70,"Velocity":65,"Duration":96880,"SoundDuration":96880,"Delta":32424635},{"NoteNumber":55,"Velocity":63,"Duration":108990,"SoundDuration":108990,"Delta":32424635},{"NoteNumber":43,"Velocity":53,"Duration":108990,"SoundDuration":108990,"Delta":32424635},{"NoteNumber":62,"Velocity":50,"Duration":96880,"SoundDuration":96880,"Delta":32521515},{"NoteNumber":64,"Velocity":45,"Duration":96880,"SoundDuration":96880,"Delta":32618396},{"NoteNumber":65,"Velocity":67,"Duration":101399,"SoundDuration":101399,"Delta":32715276},{"NoteNumber":59,"Velocity":51,"Duration":95147,"SoundDuration":95147,"Delta":32816676},{"NoteNumber":71,"Velocity":48,"Duration":95147,"SoundDuration":95147,"Delta":32911823},{"NoteNumber":74,"Velocity":67,"Duration":95147,"SoundDuration":95147,"Delta":33006971},{"NoteNumber":56,"Velocity":65,"Duration":107040,"SoundDuration":107040,"Delta":33006971},{"NoteNumber":44,"Velocity":54,"Duration":107040,"SoundDuration":107040,"Delta":33006971},{"NoteNumber":65,"Velocity":52,"Duration":95147,"SoundDuration":95147,"Delta":33102118},{"NoteNumber":67,"Velocity":47,"Duration":95147,"SoundDuration":95147,"Delta":33197266},{"NoteNumber":68,"Velocity":69,"Duration":105218,"SoundDuration":105218,"Delta":33292413},{"NoteNumber":62,"Velocity":52,"Duration":107297,"SoundDuration":107297,"Delta":33397632},{"NoteNumber":74,"Velocity":54,"Duration":109938,"SoundDuration":109938,"Delta":33504930},{"NoteNumber":77,"Velocity":71,"Duration":101926,"SoundDuration":101926,"Delta":33614868},{"NoteNumber":57,"Velocity":72,"Duration":879571,"SoundDuration":879571,"Delta":33614868},{"NoteNumber":45,"Velocity":60,"Duration":879571,"SoundDuration":879571,"Delta":33614868},{"NoteNumber":65,"Velocity":57,"Duration":98833,"SoundDuration":98833,"Delta":33716795},{"NoteNumber":68,"Velocity":59,"Duration":98833,"SoundDuration":98833,"Delta":33815629},{"NoteNumber":69,"Velocity":76,"Duration":95923,"SoundDuration":95923,"Delta":33914462},{"NoteNumber":64,"Velocity":63,"Duration":95923,"SoundDuration":95923,"Delta":34010386},{"NoteNumber":73,"Velocity":63,"Duration":95923,"SoundDuration":95923,"Delta":34106309},{"NoteNumber":76,"Velocity":77,"Duration":95923,"SoundDuration":95923,"Delta":34202232},{"NoteNumber":61,"Velocity":73,"Duration":292207,"SoundDuration":292207,"Delta":34202232},{"NoteNumber":67,"Velocity":66,"Duration":95923,"SoundDuration":95923,"Delta":34298156},{"NoteNumber":69,"Velocity":67,"Duration":100361,"SoundDuration":100361,"Delta":34394079},{"NoteNumber":45,"Velocity":49,"Duration":115156,"SoundDuration":115156,"Delta":34419169},{"NoteNumber":70,"Velocity":81,"Duration":106360,"SoundDuration":106360,"Delta":34494440},{"NoteNumber":57,"Velocity":73,"Duration":590762,"SoundDuration":590762,"Delta":34494440},{"NoteNumber":64,"Velocity":63,"Duration":96880,"SoundDuration":96880,"Delta":34600801},{"NoteNumber":73,"Velocity":59,"Duration":96880,"SoundDuration":96880,"Delta":34697681},{"NoteNumber":76,"Velocity":72,"Duration":96880,"SoundDuration":96880,"Delta":34794562},{"NoteNumber":61,"Velocity":62,"Duration":290641,"SoundDuration":290641,"Delta":34794562},{"NoteNumber":67,"Velocity":52,"Duration":96880,"SoundDuration":96880,"Delta":34891442},{"NoteNumber":69,"Velocity":52,"Duration":96880,"SoundDuration":96880,"Delta":34988323},{"NoteNumber":50,"Velocity":51,"Duration":112117,"SoundDuration":112117,"Delta":35012543},{"NoteNumber":70,"Velocity":73,"Duration":105218,"SoundDuration":105218,"Delta":35085203},{"NoteNumber":62,"Velocity":81,"Duration":593119,"SoundDuration":593119,"Delta":35085203},{"NoteNumber":65,"Velocity":55,"Duration":99344,"SoundDuration":99344,"Delta":35190422},{"NoteNumber":74,"Velocity":55,"Duration":99344,"SoundDuration":99344,"Delta":35289766},{"NoteNumber":77,"Velocity":70,"Duration":96404,"SoundDuration":96404,"Delta":35389111},{"NoteNumber":65,"Velocity":62,"Duration":289212,"SoundDuration":289212,"Delta":35389111},{"NoteNumber":69,"Velocity":54,"Duration":96404,"SoundDuration":96404,"Delta":35485515},{"NoteNumber":72,"Velocity":55,"Duration":96404,"SoundDuration":96404,"Delta":35581919},{"NoteNumber":52,"Velocity":49,"Duration":112401,"SoundDuration":112401,"Delta":35606020},{"NoteNumber":73,"Velocity":74,"Duration":106929,"SoundDuration":106929,"Delta":35678323},{"NoteNumber":64,"Velocity":76,"Duration":595238,"SoundDuration":595238,"Delta":35678323},{"NoteNumber":67,"Velocity":54,"Duration":98833,"SoundDuration":98833,"Delta":35785252},{"NoteNumber":76,"Velocity":55,"Duration":98833,"SoundDuration":98833,"Delta":35884086},{"NoteNumber":79,"Velocity":72,"Duration":96880,"SoundDuration":96880,"Delta":35982920},{"NoteNumber":67,"Velocity":67,"Duration":290641,"SoundDuration":290641,"Delta":35982920},{"NoteNumber":70,"Velocity":54,"Duration":96880,"SoundDuration":96880,"Delta":36079800},{"NoteNumber":74,"Velocity":54,"Duration":96880,"SoundDuration":96880,"Delta":36176681},{"NoteNumber":54,"Velocity":52,"Duration":112982,"SoundDuration":112982,"Delta":36200901},{"NoteNumber":75,"Velocity":73,"Duration":107526,"SoundDuration":107526,"Delta":36273561},{"NoteNumber":66,"Velocity":81,"Duration":596307,"SoundDuration":596307,"Delta":36273561},{"NoteNumber":69,"Velocity":52,"Duration":98347,"SoundDuration":98347,"Delta":36381088},{"NoteNumber":81,"Velocity":54,"Duration":98347,"SoundDuration":98347,"Delta":36479436},{"NoteNumber":84,"Velocity":71,"Duration":97361,"SoundDuration":97361,"Delta":36577784},{"NoteNumber":69,"Velocity":67,"Duration":292084,"SoundDuration":292084,"Delta":36577784},{"NoteNumber":72,"Velocity":52,"Duration":97361,"SoundDuration":97361,"Delta":36675145},{"NoteNumber":74,"Velocity":55,"Duration":97361,"SoundDuration":97361,"Delta":36772507},{"NoteNumber":55,"Velocity":55,"Duration":113119,"SoundDuration":113119,"Delta":36796847},{"NoteNumber":75,"Velocity":72,"Duration":106929,"SoundDuration":106929,"Delta":36869868},{"NoteNumber":67,"Velocity":84,"Duration":606130,"SoundDuration":606130,"Delta":36869868},{"NoteNumber":70,"Velocity":57,"Duration":99840,"SoundDuration":99840,"Delta":36976797},{"NoteNumber":79,"Velocity":57,"Duration":99840,"SoundDuration":99840,"Delta":37076638},{"NoteNumber":82,"Velocity":74,"Duration":99840,"SoundDuration":99840,"Delta":37176478},{"NoteNumber":70,"Velocity":68,"Duration":299521,"SoundDuration":299521,"Delta":37176478},{"NoteNumber":74,"Velocity":57,"Duration":99840,"SoundDuration":99840,"Delta":37276318},{"NoteNumber":76,"Velocity":57,"Duration":99840,"SoundDuration":99840,"Delta":37376159},{"NoteNumber":56,"Velocity":57,"Duration":114546,"SoundDuration":114546,"Delta":37401119},{"NoteNumber":77,"Velocity":79,"Duration":105775,"SoundDuration":105775,"Delta":37475999},{"NoteNumber":68,"Velocity":87,"Duration":620225,"SoundDuration":620225,"Delta":37475999},{"NoteNumber":71,"Velocity":57,"Duration":102461,"SoundDuration":102461,"Delta":37581774},{"NoteNumber":86,"Velocity":57,"Duration":102997,"SoundDuration":102997,"Delta":37684236},{"NoteNumber":89,"Velocity":79,"Duration":102997,"SoundDuration":102997,"Delta":37787233},{"NoteNumber":71,"Velocity":68,"Duration":308991,"SoundDuration":308991,"Delta":37787233},{"NoteNumber":77,"Velocity":61,"Duration":102997,"SoundDuration":102997,"Delta":37890230},{"NoteNumber":83,"Velocity":61,"Duration":102997,"SoundDuration":102997,"Delta":37993228},{"NoteNumber":85,"Velocity":82,"Duration":106929,"SoundDuration":106929,"Delta":38096225},{"NoteNumber":57,"Velocity":63,"Duration":310781,"SoundDuration":310781,"Delta":38096225},{"NoteNumber":69,"Velocity":76,"Duration":310781,"SoundDuration":310781,"Delta":38096225},{"NoteNumber":76,"Velocity":62,"Duration":101926,"SoundDuration":101926,"Delta":38203154},{"NoteNumber":88,"Velocity":65,"Duration":101926,"SoundDuration":101926,"Delta":38305080},{"NoteNumber":93,"Velocity":82,"Duration":107526,"SoundDuration":107526,"Delta":38407006},{"NoteNumber":64,"Velocity":63,"Duration":322580,"SoundDuration":322580,"Delta":38407006},{"NoteNumber":73,"Velocity":76,"Duration":322580,"SoundDuration":322580,"Delta":38407006},{"NoteNumber":69,"Velocity":63,"Duration":322580,"SoundDuration":322580,"Delta":38407006},{"NoteNumber":67,"Velocity":63,"Duration":322580,"SoundDuration":322580,"Delta":38407006},{"NoteNumber":81,"Velocity":67,"Duration":107526,"SoundDuration":107526,"Delta":38514533},{"NoteNumber":86,"Velocity":80,"Duration":107526,"SoundDuration":107526,"Delta":38622060},{"NoteNumber":98,"Velocity":95,"Duration":347383,"SoundDuration":347383,"Delta":38729587},{"NoteNumber":69,"Velocity":63,"Duration":347383,"SoundDuration":347383,"Delta":38729587},{"NoteNumber":65,"Velocity":63,"Duration":347383,"SoundDuration":347383,"Delta":38729587},{"NoteNumber":74,"Velocity":76,"Duration":347383,"SoundDuration":347383,"Delta":38729587},{"NoteNumber":62,"Velocity":63,"Duration":347383,"SoundDuration":347383,"Delta":38729587},{"NoteNumber":77,"Velocity":74,"Duration":99840,"SoundDuration":99840,"Delta":39184497},{"NoteNumber":81,"Velocity":74,"Duration":99840,"SoundDuration":99840,"Delta":39284337},{"NoteNumber":82,"Velocity":82,"Duration":101926,"SoundDuration":101926,"Delta":39384177},{"NoteNumber":77,"Velocity":76,"Duration":101926,"SoundDuration":101926,"Delta":39486104},{"NoteNumber":86,"Velocity":68,"Duration":122309,"SoundDuration":122309,"Delta":39588030},{"NoteNumber":89,"Velocity":87,"Duration":101957,"SoundDuration":101957,"Delta":39710339},{"NoteNumber":62,"Velocity":48,"Duration":603256,"SoundDuration":603256,"Delta":39710339},{"NoteNumber":69,"Velocity":73,"Duration":305872,"SoundDuration":305872,"Delta":39710339},{"NoteNumber":77,"Velocity":81,"Duration":101957,"SoundDuration":101957,"Delta":39812297},{"NoteNumber":81,"Velocity":84,"Duration":101957,"SoundDuration":101957,"Delta":39914255},{"NoteNumber":82,"Velocity":93,"Duration":99127,"SoundDuration":99127,"Delta":40016212},{"NoteNumber":70,"Velocity":80,"Duration":297383,"SoundDuration":297383,"Delta":40016212},{"NoteNumber":76,"Velocity":74,"Duration":99127,"SoundDuration":99127,"Delta":40115340},{"NoteNumber":80,"Velocity":70,"Duration":99127,"SoundDuration":99127,"Delta":40214468},{"NoteNumber":81,"Velocity":82,"Duration":102459,"SoundDuration":102459,"Delta":40313595},{"NoteNumber":69,"Velocity":73,"Duration":307377,"SoundDuration":307377,"Delta":40313595},{"NoteNumber":60,"Velocity":55,"Duration":307377,"SoundDuration":307377,"Delta":40313595},{"NoteNumber":77,"Velocity":71,"Duration":102458,"SoundDuration":102458,"Delta":40416054},{"NoteNumber":81,"Velocity":62,"Duration":102459,"SoundDuration":102459,"Delta":40518513},{"NoteNumber":82,"Velocity":82,"Duration":101926,"SoundDuration":101926,"Delta":40620972},{"NoteNumber":77,"Velocity":76,"Duration":101926,"SoundDuration":101926,"Delta":40722899},{"NoteNumber":86,"Velocity":72,"Duration":122309,"SoundDuration":122309,"Delta":40824825},{"NoteNumber":89,"Velocity":87,"Duration":103939,"SoundDuration":103939,"Delta":40947134},{"NoteNumber":69,"Velocity":73,"Duration":311818,"SoundDuration":311818,"Delta":40947134},{"NoteNumber":62,"Velocity":48,"Duration":620809,"SoundDuration":620809,"Delta":40947134},{"NoteNumber":77,"Velocity":81,"Duration":103939,"SoundDuration":103939,"Delta":41051073},{"NoteNumber":81,"Velocity":84,"Duration":103939,"SoundDuration":103939,"Delta":41155013},{"NoteNumber":82,"Velocity":93,"Duration":102997,"SoundDuration":102997,"Delta":41258952},{"NoteNumber":70,"Velocity":80,"Duration":308991,"SoundDuration":308991,"Delta":41258952},{"NoteNumber":76,"Velocity":81,"Duration":102997,"SoundDuration":102997,"Delta":41361949},{"NoteNumber":80,"Velocity":74,"Duration":102997,"SoundDuration":102997,"Delta":41464946},{"NoteNumber":81,"Velocity":82,"Duration":102997,"SoundDuration":102997,"Delta":41567944},{"NoteNumber":60,"Velocity":56,"Duration":308991,"SoundDuration":308991,"Delta":41567944},{"NoteNumber":69,"Velocity":73,"Duration":635153,"SoundDuration":635153,"Delta":41567944},{"NoteNumber":76,"Velocity":71,"Duration":102997,"SoundDuration":102997,"Delta":41670941},{"NoteNumber":81,"Velocity":66,"Duration":102997,"SoundDuration":102997,"Delta":41773938},{"NoteNumber":86,"Velocity":82,"Duration":101926,"SoundDuration":101926,"Delta":41876935},{"NoteNumber":58,"Velocity":59,"Duration":627699,"SoundDuration":627699,"Delta":41876935},{"NoteNumber":74,"Velocity":71,"Duration":101926,"SoundDuration":101926,"Delta":41978861},{"NoteNumber":79,"Velocity":59,"Duration":122309,"SoundDuration":122309,"Delta":42080788},{"NoteNumber":81,"Velocity":80,"Duration":100512,"SoundDuration":100512,"Delta":42203097},{"NoteNumber":67,"Velocity":76,"Duration":616432,"SoundDuration":616432,"Delta":42203097},{"NoteNumber":74,"Velocity":70,"Duration":100512,"SoundDuration":100512,"Delta":42303610},{"NoteNumber":79,"Velocity":62,"Duration":100512,"SoundDuration":100512,"Delta":42404122},{"NoteNumber":84,"Velocity":77,"Duration":104964,"SoundDuration":104964,"Delta":42504635},{"NoteNumber":57,"Velocity":60,"Duration":629789,"SoundDuration":629789,"Delta":42504635},{"NoteNumber":72,"Velocity":67,"Duration":104964,"SoundDuration":104964,"Delta":42609600},{"NoteNumber":77,"Velocity":59,"Duration":104964,"SoundDuration":104964,"Delta":42714565},{"NoteNumber":79,"Velocity":73,"Duration":104964,"SoundDuration":104964,"Delta":42819529},{"NoteNumber":65,"Velocity":76,"Duration":641056,"SoundDuration":641056,"Delta":42819529},{"NoteNumber":72,"Velocity":61,"Duration":104964,"SoundDuration":104964,"Delta":42924494},{"NoteNumber":77,"Velocity":54,"Duration":104964,"SoundDuration":104964,"Delta":43029459},{"NoteNumber":82,"Velocity":72,"Duration":101926,"SoundDuration":101926,"Delta":43134424},{"NoteNumber":55,"Velocity":59,"Duration":630575,"SoundDuration":630575,"Delta":43134424},{"NoteNumber":70,"Velocity":66,"Duration":101926,"SoundDuration":101926,"Delta":43236350},{"NoteNumber":76,"Velocity":53,"Duration":122309,"SoundDuration":122309,"Delta":43338277},{"NoteNumber":77,"Velocity":69,"Duration":101471,"SoundDuration":101471,"Delta":43460586},{"NoteNumber":64,"Velocity":71,"Duration":617762,"SoundDuration":617762,"Delta":43460586},{"NoteNumber":70,"Velocity":60,"Duration":101471,"SoundDuration":101471,"Delta":43562057},{"NoteNumber":76,"Velocity":54,"Duration":101471,"SoundDuration":101471,"Delta":43663528},{"NoteNumber":81,"Velocity":68,"Duration":104449,"SoundDuration":104449,"Delta":43765000},{"NoteNumber":53,"Velocity":54,"Duration":626697,"SoundDuration":626697,"Delta":43765000},{"NoteNumber":69,"Velocity":59,"Duration":104449,"SoundDuration":104449,"Delta":43869449},{"NoteNumber":74,"Velocity":52,"Duration":104449,"SoundDuration":104449,"Delta":43973899},{"NoteNumber":76,"Velocity":65,"Duration":104449,"SoundDuration":104449,"Delta":44078348},{"NoteNumber":62,"Velocity":68,"Duration":313348,"SoundDuration":313348,"Delta":44078348},{"NoteNumber":69,"Velocity":54,"Duration":104449,"SoundDuration":104449,"Delta":44182798},{"NoteNumber":74,"Velocity":48,"Duration":104449,"SoundDuration":104449,"Delta":44287247},{"NoteNumber":75,"Velocity":73,"Duration":101926,"SoundDuration":101926,"Delta":44391697},{"NoteNumber":70,"Velocity":68,"Duration":101926,"SoundDuration":101926,"Delta":44493623},{"NoteNumber":79,"Velocity":65,"Duration":122309,"SoundDuration":122309,"Delta":44595549},{"NoteNumber":82,"Velocity":77,"Duration":104964,"SoundDuration":104964,"Delta":44717859},{"NoteNumber":55,"Velocity":55,"Duration":314894,"SoundDuration":314894,"Delta":44717859},{"NoteNumber":58,"Velocity":55,"Duration":314894,"SoundDuration":314894,"Delta":44717859},{"NoteNumber":63,"Velocity":66,"Duration":314894,"SoundDuration":314894,"Delta":44717859},{"NoteNumber":70,"Velocity":72,"Duration":104964,"SoundDuration":104964,"Delta":44822823},{"NoteNumber":74,"Velocity":76,"Duration":104964,"SoundDuration":104964,"Delta":44927788},{"NoteNumber":79,"Velocity":83,"Duration":102997,"SoundDuration":102997,"Delta":45032753},{"NoteNumber":62,"Velocity":59,"Duration":308991,"SoundDuration":308991,"Delta":45032753},{"NoteNumber":67,"Velocity":71,"Duration":308991,"SoundDuration":308991,"Delta":45032753},{"NoteNumber":58,"Velocity":49,"Duration":308991,"SoundDuration":308991,"Delta":45032753},{"NoteNumber":56,"Velocity":49,"Duration":308991,"SoundDuration":308991,"Delta":45032753},{"NoteNumber":70,"Velocity":72,"Duration":102997,"SoundDuration":102997,"Delta":45135750},{"NoteNumber":74,"Velocity":67,"Duration":102997,"SoundDuration":102997,"Delta":45238747},{"NoteNumber":75,"Velocity":73,"Duration":102997,"SoundDuration":102997,"Delta":45341745},{"NoteNumber":63,"Velocity":66,"Duration":308991,"SoundDuration":308991,"Delta":45341745},{"NoteNumber":55,"Velocity":55,"Duration":308991,"SoundDuration":308991,"Delta":45341745},{"NoteNumber":58,"Velocity":55,"Duration":308991,"SoundDuration":308991,"Delta":45341745},{"NoteNumber":70,"Velocity":66,"Duration":102997,"SoundDuration":102997,"Delta":45444742},{"NoteNumber":74,"Velocity":57,"Duration":102997,"SoundDuration":102997,"Delta":45547739},{"NoteNumber":75,"Velocity":73,"Duration":101926,"SoundDuration":101926,"Delta":45650736},{"NoteNumber":70,"Velocity":68,"Duration":101926,"SoundDuration":101926,"Delta":45752662},{"NoteNumber":79,"Velocity":65,"Duration":122309,"SoundDuration":122309,"Delta":45854589},{"NoteNumber":82,"Velocity":77,"Duration":103434,"SoundDuration":103434,"Delta":45976898},{"NoteNumber":55,"Velocity":55,"Duration":310302,"SoundDuration":310302,"Delta":45976898},{"NoteNumber":58,"Velocity":55,"Duration":310302,"SoundDuration":310302,"Delta":45976898},{"NoteNumber":63,"Velocity":66,"Duration":310302,"SoundDuration":310302,"Delta":45976898},{"NoteNumber":70,"Velocity":72,"Duration":103434,"SoundDuration":103434,"Delta":46080332},{"NoteNumber":74,"Velocity":76,"Duration":103434,"SoundDuration":103434,"Delta":46183766},{"NoteNumber":79,"Velocity":83,"Duration":98668,"SoundDuration":98668,"Delta":46287200},{"NoteNumber":56,"Velocity":49,"Duration":296004,"SoundDuration":296004,"Delta":46287200},{"NoteNumber":58,"Velocity":49,"Duration":296004,"SoundDuration":296004,"Delta":46287200},{"NoteNumber":62,"Velocity":59,"Duration":296004,"SoundDuration":296004,"Delta":46287200},{"NoteNumber":67,"Velocity":71,"Duration":296004,"SoundDuration":296004,"Delta":46287200},{"NoteNumber":70,"Velocity":72,"Duration":98667,"SoundDuration":98667,"Delta":46385868},{"NoteNumber":74,"Velocity":67,"Duration":98668,"SoundDuration":98668,"Delta":46484536},{"NoteNumber":75,"Velocity":73,"Duration":100532,"SoundDuration":100532,"Delta":46583204},{"NoteNumber":55,"Velocity":55,"Duration":301598,"SoundDuration":301598,"Delta":46583204},{"NoteNumber":58,"Velocity":55,"Duration":301598,"SoundDuration":301598,"Delta":46583204},{"NoteNumber":63,"Velocity":66,"Duration":301598,"SoundDuration":301598,"Delta":46583204},{"NoteNumber":71,"Velocity":63,"Duration":100532,"SoundDuration":100532,"Delta":46683737},{"NoteNumber":75,"Velocity":57,"Duration":100532,"SoundDuration":100532,"Delta":46784270},{"NoteNumber":78,"Velocity":76,"Duration":97723,"SoundDuration":97723,"Delta":46884802},{"NoteNumber":54,"Velocity":57,"Duration":146584,"SoundDuration":146584,"Delta":46884802},{"NoteNumber":66,"Velocity":71,"Duration":146584,"SoundDuration":146584,"Delta":46884802},{"NoteNumber":66,"Velocity":63,"Duration":97722,"SoundDuration":97722,"Delta":46982525},{"NoteNumber":71,"Velocity":69,"Duration":97723,"SoundDuration":97723,"Delta":47080248},{"NoteNumber":75,"Velocity":76,"Duration":103551,"SoundDuration":103551,"Delta":47177971},{"NoteNumber":51,"Velocity":66,"Duration":623123,"SoundDuration":623123,"Delta":47177971},{"NoteNumber":63,"Velocity":66,"Duration":103551,"SoundDuration":103551,"Delta":47281523},{"NoteNumber":66,"Velocity":66,"Duration":103747,"SoundDuration":103747,"Delta":47385075},{"NoteNumber":71,"Velocity":73,"Duration":104090,"SoundDuration":104090,"Delta":47488822},{"NoteNumber":61,"Velocity":62,"Duration":104090,"SoundDuration":104090,"Delta":47592913},{"NoteNumber":67,"Velocity":57,"Duration":104090,"SoundDuration":104090,"Delta":47697004},{"NoteNumber":70,"Velocity":69,"Duration":104090,"SoundDuration":104090,"Delta":47801095},{"NoteNumber":52,"Velocity":59,"Duration":311637,"SoundDuration":311637,"Delta":47801095},{"NoteNumber":60,"Velocity":59,"Duration":104090,"SoundDuration":104090,"Delta":47905186},{"NoteNumber":63,"Velocity":55,"Duration":103455,"SoundDuration":103455,"Delta":48009277},{"NoteNumber":69,"Velocity":67,"Duration":96888,"SoundDuration":96888,"Delta":48112732},{"NoteNumber":54,"Velocity":59,"Duration":292158,"SoundDuration":292158,"Delta":48112732},{"NoteNumber":58,"Velocity":57,"Duration":97348,"SoundDuration":97348,"Delta":48209621},{"NoteNumber":62,"Velocity":52,"Duration":97920,"SoundDuration":97920,"Delta":48306970},{"NoteNumber":67,"Velocity":74,"Duration":98395,"SoundDuration":98395,"Delta":48404890},{"NoteNumber":55,"Velocity":65,"Duration":296857,"SoundDuration":296857,"Delta":48404890},{"NoteNumber":59,"Velocity":57,"Duration":98971,"SoundDuration":98971,"Delta":48503286},{"NoteNumber":62,"Velocity":52,"Duration":99490,"SoundDuration":99490,"Delta":48602258},{"NoteNumber":65,"Velocity":76,"Duration":100269,"SoundDuration":100269,"Delta":48701748},{"NoteNumber":56,"Velocity":70,"Duration":301271,"SoundDuration":301271,"Delta":48701748},{"NoteNumber":57,"Velocity":62,"Duration":100311,"SoundDuration":100311,"Delta":48802018},{"NoteNumber":61,"Velocity":57,"Duration":100690,"SoundDuration":100690,"Delta":48902329},{"NoteNumber":64,"Velocity":76,"Duration":101193,"SoundDuration":101193,"Delta":49003020},{"NoteNumber":57,"Velocity":74,"Duration":191432,"SoundDuration":191432,"Delta":49003020},{"NoteNumber":55,"Velocity":61,"Duration":103904,"SoundDuration":103904,"Delta":49104214},{"NoteNumber":57,"Velocity":55,"Duration":109547,"SoundDuration":109547,"Delta":49208118},{"NoteNumber":58,"Velocity":77,"Duration":111197,"SoundDuration":111197,"Delta":49317666},{"NoteNumber":52,"Velocity":57,"Duration":106929,"SoundDuration":106929,"Delta":49428864},{"NoteNumber":61,"Velocity":51,"Duration":106929,"SoundDuration":106929,"Delta":49535793},{"NoteNumber":64,"Velocity":63,"Duration":106929,"SoundDuration":106929,"Delta":49642722},{"NoteNumber":33,"Velocity":50,"Duration":120295,"SoundDuration":120295,"Delta":49642722},{"NoteNumber":45,"Velocity":60,"Duration":120295,"SoundDuration":120295,"Delta":49642722},{"NoteNumber":55,"Velocity":47,"Duration":106928,"SoundDuration":106928,"Delta":49749651},{"NoteNumber":57,"Velocity":47,"Duration":106929,"SoundDuration":106929,"Delta":49856580},{"NoteNumber":58,"Velocity":63,"Duration":111197,"SoundDuration":111197,"Delta":49963509},{"NoteNumber":53,"Velocity":48,"Duration":105218,"SoundDuration":105218,"Delta":50074706},{"NoteNumber":62,"Velocity":48,"Duration":105218,"SoundDuration":105218,"Delta":50179925},{"NoteNumber":65,"Velocity":62,"Duration":105218,"SoundDuration":105218,"Delta":50285144},{"NoteNumber":38,"Velocity":50,"Duration":118371,"SoundDuration":118371,"Delta":50285144},{"NoteNumber":50,"Velocity":60,"Duration":118371,"SoundDuration":118371,"Delta":50285144},{"NoteNumber":57,"Velocity":47,"Duration":105218,"SoundDuration":105218,"Delta":50390363},{"NoteNumber":60,"Velocity":47,"Duration":105218,"SoundDuration":105218,"Delta":50495582},{"NoteNumber":61,"Velocity":62,"Duration":111819,"SoundDuration":111819,"Delta":50600800},{"NoteNumber":55,"Velocity":47,"Duration":101926,"SoundDuration":101926,"Delta":50712620},{"NoteNumber":64,"Velocity":47,"Duration":101926,"SoundDuration":101926,"Delta":50814546},{"NoteNumber":67,"Velocity":62,"Duration":101926,"SoundDuration":101926,"Delta":50916472},{"NoteNumber":40,"Velocity":50,"Duration":114667,"SoundDuration":114667,"Delta":50916472},{"NoteNumber":52,"Velocity":60,"Duration":114667,"SoundDuration":114667,"Delta":50916472},{"NoteNumber":58,"Velocity":68,"Duration":101926,"SoundDuration":101926,"Delta":51018399},{"NoteNumber":62,"Velocity":47,"Duration":101926,"SoundDuration":101926,"Delta":51120325},{"NoteNumber":63,"Velocity":62,"Duration":106360,"SoundDuration":106360,"Delta":51222251},{"NoteNumber":57,"Velocity":46,"Duration":98833,"SoundDuration":98833,"Delta":51328612},{"NoteNumber":69,"Velocity":47,"Duration":98833,"SoundDuration":98833,"Delta":51427446},{"NoteNumber":72,"Velocity":62,"Duration":98833,"SoundDuration":98833,"Delta":51526279},{"NoteNumber":42,"Velocity":51,"Duration":111188,"SoundDuration":111188,"Delta":51526279},{"NoteNumber":54,"Velocity":61,"Duration":111188,"SoundDuration":111188,"Delta":51526279},{"NoteNumber":60,"Velocity":48,"Duration":98833,"SoundDuration":98833,"Delta":51625113},{"NoteNumber":62,"Velocity":49,"Duration":98833,"SoundDuration":98833,"Delta":51723947},{"NoteNumber":63,"Velocity":65,"Duration":103551,"SoundDuration":103551,"Delta":51822781},{"NoteNumber":58,"Velocity":49,"Duration":96880,"SoundDuration":96880,"Delta":51926333},{"NoteNumber":67,"Velocity":49,"Duration":96880,"SoundDuration":96880,"Delta":52023213},{"NoteNumber":70,"Velocity":65,"Duration":96880,"SoundDuration":96880,"Delta":52120094},{"NoteNumber":43,"Velocity":53,"Duration":108990,"SoundDuration":108990,"Delta":52120094},{"NoteNumber":55,"Velocity":63,"Duration":108990,"SoundDuration":108990,"Delta":52120094},{"NoteNumber":62,"Velocity":50,"Duration":96880,"SoundDuration":96880,"Delta":52216974},{"NoteNumber":64,"Velocity":50,"Duration":96880,"SoundDuration":96880,"Delta":52313855},{"NoteNumber":65,"Velocity":67,"Duration":101399,"SoundDuration":101399,"Delta":52410735},{"NoteNumber":59,"Velocity":51,"Duration":96880,"SoundDuration":96880,"Delta":52512135},{"NoteNumber":71,"Velocity":51,"Duration":96880,"SoundDuration":96880,"Delta":52609015},{"NoteNumber":74,"Velocity":67,"Duration":96880,"SoundDuration":96880,"Delta":52705896},{"NoteNumber":44,"Velocity":54,"Duration":108990,"SoundDuration":108990,"Delta":52705896},{"NoteNumber":56,"Velocity":65,"Duration":108990,"SoundDuration":108990,"Delta":52705896},{"NoteNumber":65,"Velocity":52,"Duration":96880,"SoundDuration":96880,"Delta":52802776},{"NoteNumber":67,"Velocity":52,"Duration":96880,"SoundDuration":96880,"Delta":52899657},{"NoteNumber":68,"Velocity":69,"Duration":105218,"SoundDuration":105218,"Delta":52996537},{"NoteNumber":62,"Velocity":52,"Duration":107297,"SoundDuration":107297,"Delta":53101756},{"NoteNumber":74,"Velocity":56,"Duration":109938,"SoundDuration":109938,"Delta":53209054},{"NoteNumber":77,"Velocity":71,"Duration":101926,"SoundDuration":101926,"Delta":53318992},{"NoteNumber":45,"Velocity":60,"Duration":879572,"SoundDuration":879572,"Delta":53318992},{"NoteNumber":57,"Velocity":72,"Duration":879572,"SoundDuration":879572,"Delta":53318992},{"NoteNumber":65,"Velocity":57,"Duration":98833,"SoundDuration":98833,"Delta":53420919},{"NoteNumber":68,"Velocity":59,"Duration":98833,"SoundDuration":98833,"Delta":53519752},{"NoteNumber":69,"Velocity":76,"Duration":95923,"SoundDuration":95923,"Delta":53618586},{"NoteNumber":64,"Velocity":63,"Duration":95923,"SoundDuration":95923,"Delta":53714510},{"NoteNumber":73,"Velocity":63,"Duration":95923,"SoundDuration":95923,"Delta":53810433},{"NoteNumber":76,"Velocity":77,"Duration":95923,"SoundDuration":95923,"Delta":53906356},{"NoteNumber":61,"Velocity":73,"Duration":292208,"SoundDuration":292208,"Delta":53906356},{"NoteNumber":67,"Velocity":66,"Duration":95923,"SoundDuration":95923,"Delta":54002280},{"NoteNumber":69,"Velocity":67,"Duration":100361,"SoundDuration":100361,"Delta":54098203},{"NoteNumber":45,"Velocity":49,"Duration":115156,"SoundDuration":115156,"Delta":54123293},{"NoteNumber":70,"Velocity":81,"Duration":106360,"SoundDuration":106360,"Delta":54198564},{"NoteNumber":57,"Velocity":73,"Duration":592978,"SoundDuration":592978,"Delta":54198564},{"NoteNumber":64,"Velocity":63,"Duration":97323,"SoundDuration":97323,"Delta":54304925},{"NoteNumber":73,"Velocity":59,"Duration":97323,"SoundDuration":97323,"Delta":54402248},{"NoteNumber":76,"Velocity":72,"Duration":97323,"SoundDuration":97323,"Delta":54499572},{"NoteNumber":61,"Velocity":62,"Duration":291970,"SoundDuration":291970,"Delta":54499572},{"NoteNumber":67,"Velocity":52,"Duration":97323,"SoundDuration":97323,"Delta":54596896},{"NoteNumber":69,"Velocity":52,"Duration":97323,"SoundDuration":97323,"Delta":54694219},{"NoteNumber":50,"Velocity":51,"Duration":112449,"SoundDuration":112449,"Delta":54718550},{"NoteNumber":70,"Velocity":73,"Duration":105218,"SoundDuration":105218,"Delta":54791543},{"NoteNumber":62,"Velocity":81,"Duration":588079,"SoundDuration":588079,"Delta":54791543},{"NoteNumber":65,"Velocity":55,"Duration":99344,"SoundDuration":99344,"Delta":54896762},{"NoteNumber":74,"Velocity":55,"Duration":99344,"SoundDuration":99344,"Delta":54996106},{"NoteNumber":77,"Velocity":70,"Duration":94723,"SoundDuration":94723,"Delta":55095450},{"NoteNumber":65,"Velocity":62,"Duration":284171,"SoundDuration":284171,"Delta":55095450},{"NoteNumber":69,"Velocity":54,"Duration":94723,"SoundDuration":94723,"Delta":55190174},{"NoteNumber":72,"Velocity":55,"Duration":94723,"SoundDuration":94723,"Delta":55284898},{"NoteNumber":52,"Velocity":49,"Duration":111141,"SoundDuration":111141,"Delta":55308579},{"NoteNumber":73,"Velocity":74,"Duration":106929,"SoundDuration":106929,"Delta":55379622},{"NoteNumber":64,"Velocity":76,"Duration":591321,"SoundDuration":591321,"Delta":55379622},{"NoteNumber":67,"Velocity":54,"Duration":98833,"SoundDuration":98833,"Delta":55486551},{"NoteNumber":76,"Velocity":55,"Duration":98833,"SoundDuration":98833,"Delta":55585385},{"NoteNumber":79,"Velocity":72,"Duration":95574,"SoundDuration":95574,"Delta":55684219},{"NoteNumber":67,"Velocity":67,"Duration":286724,"SoundDuration":286724,"Delta":55684219},{"NoteNumber":70,"Velocity":54,"Duration":95574,"SoundDuration":95574,"Delta":55779793},{"NoteNumber":74,"Velocity":54,"Duration":95574,"SoundDuration":95574,"Delta":55875368},{"NoteNumber":54,"Velocity":52,"Duration":112003,"SoundDuration":112003,"Delta":55899262},{"NoteNumber":75,"Velocity":73,"Duration":107526,"SoundDuration":107526,"Delta":55970943},{"NoteNumber":66,"Velocity":81,"Duration":594864,"SoundDuration":594864,"Delta":55970943},{"NoteNumber":69,"Velocity":52,"Duration":98347,"SoundDuration":98347,"Delta":56078470},{"NoteNumber":81,"Velocity":54,"Duration":98347,"SoundDuration":98347,"Delta":56176818},{"NoteNumber":84,"Velocity":71,"Duration":96880,"SoundDuration":96880,"Delta":56275166},{"NoteNumber":69,"Velocity":67,"Duration":290641,"SoundDuration":290641,"Delta":56275166},{"NoteNumber":72,"Velocity":52,"Duration":96880,"SoundDuration":96880,"Delta":56372046},{"NoteNumber":74,"Velocity":55,"Duration":96880,"SoundDuration":96880,"Delta":56468927},{"NoteNumber":55,"Velocity":55,"Duration":112758,"SoundDuration":112758,"Delta":56493147},{"NoteNumber":75,"Velocity":72,"Duration":106929,"SoundDuration":106929,"Delta":56565807},{"NoteNumber":67,"Velocity":84,"Duration":606130,"SoundDuration":606130,"Delta":56565807},{"NoteNumber":70,"Velocity":57,"Duration":99840,"SoundDuration":99840,"Delta":56672736},{"NoteNumber":79,"Velocity":57,"Duration":99840,"SoundDuration":99840,"Delta":56772576},{"NoteNumber":82,"Velocity":74,"Duration":99840,"SoundDuration":99840,"Delta":56872417},{"NoteNumber":70,"Velocity":68,"Duration":299520,"SoundDuration":299520,"Delta":56872417},{"NoteNumber":74,"Velocity":57,"Duration":99840,"SoundDuration":99840,"Delta":56972257},{"NoteNumber":76,"Velocity":57,"Duration":99840,"SoundDuration":99840,"Delta":57072097},{"NoteNumber":56,"Velocity":57,"Duration":114545,"SoundDuration":114545,"Delta":57097058},{"NoteNumber":77,"Velocity":79,"Duration":105775,"SoundDuration":105775,"Delta":57171938},{"NoteNumber":68,"Velocity":87,"Duration":620225,"SoundDuration":620225,"Delta":57171938},{"NoteNumber":71,"Velocity":57,"Duration":102461,"SoundDuration":102461,"Delta":57277713},{"NoteNumber":86,"Velocity":57,"Duration":102997,"SoundDuration":102997,"Delta":57380175},{"NoteNumber":89,"Velocity":79,"Duration":102997,"SoundDuration":102997,"Delta":57483172},{"NoteNumber":71,"Velocity":68,"Duration":308991,"SoundDuration":308991,"Delta":57483172},{"NoteNumber":77,"Velocity":61,"Duration":102997,"SoundDuration":102997,"Delta":57586169},{"NoteNumber":83,"Velocity":61,"Duration":102997,"SoundDuration":102997,"Delta":57689166},{"NoteNumber":85,"Velocity":82,"Duration":106929,"SoundDuration":106929,"Delta":57792164},{"NoteNumber":57,"Velocity":63,"Duration":310781,"SoundDuration":310781,"Delta":57792164},{"NoteNumber":69,"Velocity":76,"Duration":310781,"SoundDuration":310781,"Delta":57792164},{"NoteNumber":76,"Velocity":62,"Duration":101926,"SoundDuration":101926,"Delta":57899093},{"NoteNumber":88,"Velocity":65,"Duration":101926,"SoundDuration":101926,"Delta":58001019},{"NoteNumber":93,"Velocity":82,"Duration":108731,"SoundDuration":108731,"Delta":58102945},{"NoteNumber":64,"Velocity":63,"Duration":326193,"SoundDuration":326193,"Delta":58102945},{"NoteNumber":67,"Velocity":63,"Duration":326193,"SoundDuration":326193,"Delta":58102945},{"NoteNumber":73,"Velocity":76,"Duration":326193,"SoundDuration":326193,"Delta":58102945},{"NoteNumber":69,"Velocity":63,"Duration":326193,"SoundDuration":326193,"Delta":58102945},{"NoteNumber":81,"Velocity":67,"Duration":108731,"SoundDuration":108731,"Delta":58211676},{"NoteNumber":86,"Velocity":80,"Duration":108731,"SoundDuration":108731,"Delta":58320408},{"NoteNumber":98,"Velocity":95,"Duration":177556,"SoundDuration":177556,"Delta":58429139},{"NoteNumber":65,"Velocity":63,"Duration":177556,"SoundDuration":177556,"Delta":58429139},{"NoteNumber":62,"Velocity":63,"Duration":177556,"SoundDuration":177556,"Delta":58429139},{"NoteNumber":74,"Velocity":76,"Duration":177556,"SoundDuration":177556,"Delta":58429139},{"NoteNumber":69,"Velocity":63,"Duration":177556,"SoundDuration":177556,"Delta":58429139},{"NoteNumber":79,"Velocity":45,"Duration":121388,"SoundDuration":121388,"Delta":59021613},{"NoteNumber":77,"Velocity":51,"Duration":120177,"SoundDuration":120177,"Delta":59143002},{"NoteNumber":70,"Velocity":35,"Duration":112145,"SoundDuration":112145,"Delta":59263179},{"NoteNumber":74,"Velocity":35,"Duration":112145,"SoundDuration":112145,"Delta":59375325},{"NoteNumber":65,"Velocity":30,"Duration":112145,"SoundDuration":112145,"Delta":59487470},{"NoteNumber":58,"Velocity":24,"Duration":126438,"SoundDuration":126438,"Delta":59599615},{"NoteNumber":75,"Velocity":47,"Duration":120177,"SoundDuration":120177,"Delta":59726054},{"NoteNumber":74,"Velocity":51,"Duration":111557,"SoundDuration":111557,"Delta":59846231},{"NoteNumber":65,"Velocity":36,"Duration":111557,"SoundDuration":111557,"Delta":59957789},{"NoteNumber":70,"Velocity":35,"Duration":111557,"SoundDuration":111557,"Delta":60069346},{"NoteNumber":62,"Velocity":27,"Duration":111557,"SoundDuration":111557,"Delta":60180903},{"NoteNumber":58,"Velocity":23,"Duration":127097,"SoundDuration":127097,"Delta":60292461},{"NoteNumber":74,"Velocity":50,"Duration":119005,"SoundDuration":119005,"Delta":60419558},{"NoteNumber":72,"Velocity":51,"Duration":119588,"SoundDuration":119588,"Delta":60538563},{"NoteNumber":65,"Velocity":35,"Duration":109829,"SoundDuration":109829,"Delta":60658152},{"NoteNumber":66,"Velocity":35,"Duration":109829,"SoundDuration":109829,"Delta":60767982},{"NoteNumber":63,"Velocity":29,"Duration":109829,"SoundDuration":109829,"Delta":60877811},{"NoteNumber":58,"Velocity":23,"Duration":126438,"SoundDuration":126438,"Delta":60987641},{"NoteNumber":74,"Velocity":48,"Duration":119005,"SoundDuration":119005,"Delta":61114079},{"NoteNumber":75,"Velocity":52,"Duration":110399,"SoundDuration":110399,"Delta":61233085},{"NoteNumber":65,"Velocity":38,"Duration":110399,"SoundDuration":110399,"Delta":61343484},{"NoteNumber":66,"Velocity":36,"Duration":110399,"SoundDuration":110399,"Delta":61453884},{"NoteNumber":63,"Velocity":33,"Duration":110399,"SoundDuration":110399,"Delta":61564284},{"NoteNumber":58,"Velocity":31,"Duration":127097,"SoundDuration":127097,"Delta":61674683},{"NoteNumber":74,"Velocity":53,"Duration":120177,"SoundDuration":120177,"Delta":61801780},{"NoteNumber":72,"Velocity":54,"Duration":110975,"SoundDuration":110975,"Delta":61921958},{"NoteNumber":65,"Velocity":38,"Duration":110975,"SoundDuration":110975,"Delta":62032934},{"NoteNumber":66,"Velocity":38,"Duration":110975,"SoundDuration":110975,"Delta":62143909},{"NoteNumber":63,"Velocity":32,"Duration":110975,"SoundDuration":110975,"Delta":62254885},{"NoteNumber":58,"Velocity":28,"Duration":126438,"SoundDuration":126438,"Delta":62365860},{"NoteNumber":74,"Velocity":52,"Duration":119588,"SoundDuration":119588,"Delta":62492298},{"NoteNumber":75,"Velocity":56,"Duration":110975,"SoundDuration":110975,"Delta":62611887},{"NoteNumber":65,"Velocity":42,"Duration":110975,"SoundDuration":110975,"Delta":62722863},{"NoteNumber":63,"Velocity":39,"Duration":110975,"SoundDuration":110975,"Delta":62833838},{"NoteNumber":60,"Velocity":33,"Duration":110975,"SoundDuration":110975,"Delta":62944814},{"NoteNumber":58,"Velocity":29,"Duration":137911,"SoundDuration":137911,"Delta":63055789},{"NoteNumber":69,"Velocity":56,"Duration":120772,"SoundDuration":120772,"Delta":63193701},{"NoteNumber":70,"Velocity":57,"Duration":112726,"SoundDuration":112726,"Delta":63314474},{"NoteNumber":65,"Velocity":40,"Duration":112726,"SoundDuration":112726,"Delta":63427201},{"NoteNumber":62,"Velocity":40,"Duration":112726,"SoundDuration":112726,"Delta":63539928},{"NoteNumber":58,"Velocity":33,"Duration":112726,"SoundDuration":112726,"Delta":63652655},{"NoteNumber":57,"Velocity":27,"Duration":126438,"SoundDuration":126438,"Delta":63765381},{"NoteNumber":72,"Velocity":54,"Duration":119005,"SoundDuration":119005,"Delta":63891820},{"NoteNumber":74,"Velocity":62,"Duration":112145,"SoundDuration":112145,"Delta":64010825},{"NoteNumber":65,"Velocity":47,"Duration":112145,"SoundDuration":112145,"Delta":64122970},{"NoteNumber":62,"Velocity":42,"Duration":112145,"SoundDuration":112145,"Delta":64235115},{"NoteNumber":58,"Velocity":35,"Duration":112145,"SoundDuration":112145,"Delta":64347261},{"NoteNumber":55,"Velocity":30,"Duration":131926,"SoundDuration":131926,"Delta":64459406},{"NoteNumber":72,"Velocity":57,"Duration":119588,"SoundDuration":119588,"Delta":64591332},{"NoteNumber":70,"Velocity":62,"Duration":112726,"SoundDuration":112726,"Delta":64710921},{"NoteNumber":65,"Velocity":44,"Duration":112726,"SoundDuration":112726,"Delta":64823648},{"NoteNumber":62,"Velocity":44,"Duration":112726,"SoundDuration":112726,"Delta":64936375},{"NoteNumber":58,"Velocity":36,"Duration":112726,"SoundDuration":112726,"Delta":65049101},{"NoteNumber":53,"Velocity":33,"Duration":131216,"SoundDuration":131216,"Delta":65161828},{"NoteNumber":72,"Velocity":54,"Duration":119588,"SoundDuration":119588,"Delta":65293045},{"NoteNumber":74,"Velocity":57,"Duration":113934,"SoundDuration":113934,"Delta":65412633},{"NoteNumber":67,"Velocity":47,"Duration":113934,"SoundDuration":113934,"Delta":65526567},{"NoteNumber":60,"Velocity":42,"Duration":113934,"SoundDuration":113934,"Delta":65640502},{"NoteNumber":58,"Velocity":37,"Duration":113934,"SoundDuration":113934,"Delta":65754436},{"NoteNumber":52,"Velocity":29,"Duration":134120,"SoundDuration":134120,"Delta":65868370},{"NoteNumber":70,"Velocity":57,"Duration":121388,"SoundDuration":121388,"Delta":66002490},{"NoteNumber":69,"Velocity":57,"Duration":116427,"SoundDuration":116427,"Delta":66123879},{"NoteNumber":65,"Velocity":40,"Duration":116427,"SoundDuration":116427,"Delta":66240307},{"NoteNumber":60,"Velocity":40,"Duration":116427,"SoundDuration":116427,"Delta":66356735},{"NoteNumber":57,"Velocity":35,"Duration":116427,"SoundDuration":116427,"Delta":66473163},{"NoteNumber":53,"Velocity":28,"Duration":126438,"SoundDuration":126438,"Delta":66589591},{"NoteNumber":70,"Velocity":56,"Duration":120772,"SoundDuration":120772,"Delta":66716029},{"NoteNumber":72,"Velocity":61,"Duration":117855,"SoundDuration":117855,"Delta":66836802},{"NoteNumber":65,"Velocity":44,"Duration":117854,"SoundDuration":117854,"Delta":66954657},{"NoteNumber":60,"Velocity":44,"Duration":117855,"SoundDuration":117855,"Delta":67072512},{"NoteNumber":56,"Velocity":36,"Duration":117855,"SoundDuration":117855,"Delta":67190367},{"NoteNumber":50,"Velocity":31,"Duration":151698,"SoundDuration":151698,"Delta":67308222},{"NoteNumber":71,"Velocity":57,"Duration":127097,"SoundDuration":127097,"Delta":67459921},{"NoteNumber":72,"Velocity":62,"Duration":118427,"SoundDuration":118427,"Delta":67587018},{"NoteNumber":65,"Velocity":44,"Duration":118427,"SoundDuration":118427,"Delta":67705445},{"NoteNumber":60,"Velocity":44,"Duration":118427,"SoundDuration":118427,"Delta":67823873},{"NoteNumber":57,"Velocity":38,"Duration":118427,"SoundDuration":118427,"Delta":67942300},{"NoteNumber":48,"Velocity":33,"Duration":141944,"SoundDuration":141944,"Delta":68060727},{"NoteNumber":73,"Velocity":56,"Duration":124502,"SoundDuration":124502,"Delta":68202672},{"NoteNumber":74,"Velocity":61,"Duration":119688,"SoundDuration":119688,"Delta":68327174},{"NoteNumber":64,"Velocity":43,"Duration":119688,"SoundDuration":119688,"Delta":68446863},{"NoteNumber":58,"Velocity":43,"Duration":119688,"SoundDuration":119688,"Delta":68566552},{"NoteNumber":55,"Velocity":35,"Duration":119688,"SoundDuration":119688,"Delta":68686241},{"NoteNumber":48,"Velocity":29,"Duration":132643,"SoundDuration":132643,"Delta":68805929},{"NoteNumber":69,"Velocity":56,"Duration":123869,"SoundDuration":123869,"Delta":68938573},{"NoteNumber":70,"Velocity":57,"Duration":126438,"SoundDuration":126438,"Delta":69062443},{"NoteNumber":60,"Velocity":41,"Duration":126438,"SoundDuration":126438,"Delta":69188881},{"NoteNumber":58,"Velocity":40,"Duration":126438,"SoundDuration":126438,"Delta":69315319},{"NoteNumber":52,"Velocity":34,"Duration":126438,"SoundDuration":126438,"Delta":69441757},{"NoteNumber":48,"Velocity":28,"Duration":131216,"SoundDuration":131216,"Delta":69568195},{"NoteNumber":64,"Velocity":51,"Duration":129132,"SoundDuration":129132,"Delta":69699412},{"NoteNumber":65,"Velocity":54,"Duration":129718,"SoundDuration":129718,"Delta":69828544},{"NoteNumber":60,"Velocity":37,"Duration":129718,"SoundDuration":129718,"Delta":69958262},{"NoteNumber":57,"Velocity":37,"Duration":129718,"SoundDuration":129718,"Delta":70087981},{"NoteNumber":48,"Velocity":33,"Duration":129718,"SoundDuration":129718,"Delta":70217699},{"NoteNumber":41,"Velocity":29,"Duration":172116,"SoundDuration":172116,"Delta":70347418},{"NoteNumber":79,"Velocity":50,"Duration":115606,"SoundDuration":115606,"Delta":70519535},{"NoteNumber":77,"Velocity":51,"Duration":120177,"SoundDuration":120177,"Delta":70635142},{"NoteNumber":70,"Velocity":35,"Duration":113327,"SoundDuration":113327,"Delta":70755320},{"NoteNumber":74,"Velocity":35,"Duration":113327,"SoundDuration":113327,"Delta":70868647},{"NoteNumber":65,"Velocity":28,"Duration":113327,"SoundDuration":113327,"Delta":70981974},{"NoteNumber":58,"Velocity":25,"Duration":126438,"SoundDuration":126438,"Delta":71095302},{"NoteNumber":75,"Velocity":47,"Duration":120177,"SoundDuration":120177,"Delta":71221740},{"NoteNumber":74,"Velocity":51,"Duration":113327,"SoundDuration":113327,"Delta":71341918},{"NoteNumber":65,"Velocity":36,"Duration":113327,"SoundDuration":113327,"Delta":71455245},{"NoteNumber":70,"Velocity":35,"Duration":113327,"SoundDuration":113327,"Delta":71568572},{"NoteNumber":62,"Velocity":28,"Duration":113327,"SoundDuration":113327,"Delta":71681900},{"NoteNumber":58,"Velocity":23,"Duration":127097,"SoundDuration":127097,"Delta":71795227},{"NoteNumber":74,"Velocity":50,"Duration":119005,"SoundDuration":119005,"Delta":71922324},{"NoteNumber":72,"Velocity":51,"Duration":119588,"SoundDuration":119588,"Delta":72041329},{"NoteNumber":65,"Velocity":35,"Duration":112145,"SoundDuration":112145,"Delta":72160918},{"NoteNumber":66,"Velocity":35,"Duration":112145,"SoundDuration":112145,"Delta":72273063},{"NoteNumber":63,"Velocity":30,"Duration":112145,"SoundDuration":112145,"Delta":72385209},{"NoteNumber":58,"Velocity":24,"Duration":126438,"SoundDuration":126438,"Delta":72497354},{"NoteNumber":74,"Velocity":48,"Duration":119005,"SoundDuration":119005,"Delta":72623792},{"NoteNumber":75,"Velocity":52,"Duration":112145,"SoundDuration":112145,"Delta":72742797},{"NoteNumber":65,"Velocity":38,"Duration":112145,"SoundDuration":112145,"Delta":72854943},{"NoteNumber":66,"Velocity":36,"Duration":112145,"SoundDuration":112145,"Delta":72967088},{"NoteNumber":63,"Velocity":31,"Duration":112145,"SoundDuration":112145,"Delta":73079233},{"NoteNumber":58,"Velocity":25,"Duration":127097,"SoundDuration":127097,"Delta":73191379},{"NoteNumber":74,"Velocity":53,"Duration":120177,"SoundDuration":120177,"Delta":73318476},{"NoteNumber":72,"Velocity":54,"Duration":112145,"SoundDuration":112145,"Delta":73438654},{"NoteNumber":65,"Velocity":38,"Duration":112145,"SoundDuration":112145,"Delta":73550799},{"NoteNumber":66,"Velocity":38,"Duration":112145,"SoundDuration":112145,"Delta":73662944},{"NoteNumber":63,"Velocity":31,"Duration":112145,"SoundDuration":112145,"Delta":73775090},{"NoteNumber":58,"Velocity":27,"Duration":126438,"SoundDuration":126438,"Delta":73887235},{"NoteNumber":74,"Velocity":52,"Duration":119588,"SoundDuration":119588,"Delta":74013673},{"NoteNumber":75,"Velocity":56,"Duration":111557,"SoundDuration":111557,"Delta":74133262},{"NoteNumber":65,"Velocity":42,"Duration":111557,"SoundDuration":111557,"Delta":74244819},{"NoteNumber":63,"Velocity":39,"Duration":111557,"SoundDuration":111557,"Delta":74356377},{"NoteNumber":60,"Velocity":34,"Duration":111557,"SoundDuration":111557,"Delta":74467934},{"NoteNumber":58,"Velocity":29,"Duration":137911,"SoundDuration":137911,"Delta":74579491},{"NoteNumber":69,"Velocity":56,"Duration":120772,"SoundDuration":120772,"Delta":74717403},{"NoteNumber":70,"Velocity":57,"Duration":112726,"SoundDuration":112726,"Delta":74838176},{"NoteNumber":65,"Velocity":40,"Duration":112726,"SoundDuration":112726,"Delta":74950903},{"NoteNumber":62,"Velocity":40,"Duration":112726,"SoundDuration":112726,"Delta":75063630},{"NoteNumber":58,"Velocity":33,"Duration":112726,"SoundDuration":112726,"Delta":75176357},{"NoteNumber":57,"Velocity":27,"Duration":126438,"SoundDuration":126438,"Delta":75289084},{"NoteNumber":72,"Velocity":54,"Duration":119005,"SoundDuration":119005,"Delta":75415522},{"NoteNumber":74,"Velocity":57,"Duration":112145,"SoundDuration":112145,"Delta":75534527},{"NoteNumber":65,"Velocity":47,"Duration":112145,"SoundDuration":112145,"Delta":75646672},{"NoteNumber":62,"Velocity":42,"Duration":112145,"SoundDuration":112145,"Delta":75758818},{"NoteNumber":58,"Velocity":34,"Duration":112145,"SoundDuration":112145,"Delta":75870963},{"NoteNumber":55,"Velocity":31,"Duration":131926,"SoundDuration":131926,"Delta":75983108},{"NoteNumber":72,"Velocity":57,"Duration":119588,"SoundDuration":119588,"Delta":76115034},{"NoteNumber":70,"Velocity":57,"Duration":111557,"SoundDuration":111557,"Delta":76234623},{"NoteNumber":65,"Velocity":44,"Duration":111557,"SoundDuration":111557,"Delta":76346180},{"NoteNumber":62,"Velocity":44,"Duration":111557,"SoundDuration":111557,"Delta":76457738},{"NoteNumber":58,"Velocity":39,"Duration":111557,"SoundDuration":111557,"Delta":76569295},{"NoteNumber":53,"Velocity":33,"Duration":131216,"SoundDuration":131216,"Delta":76680852},{"NoteNumber":72,"Velocity":54,"Duration":119588,"SoundDuration":119588,"Delta":76812069},{"NoteNumber":74,"Velocity":57,"Duration":112726,"SoundDuration":112726,"Delta":76931657},{"NoteNumber":67,"Velocity":47,"Duration":112726,"SoundDuration":112726,"Delta":77044384},{"NoteNumber":60,"Velocity":42,"Duration":112726,"SoundDuration":112726,"Delta":77157111},{"NoteNumber":58,"Velocity":37,"Duration":112726,"SoundDuration":112726,"Delta":77269838},{"NoteNumber":52,"Velocity":32,"Duration":134120,"SoundDuration":134120,"Delta":77382565},{"NoteNumber":70,"Velocity":57,"Duration":121388,"SoundDuration":121388,"Delta":77516685},{"NoteNumber":69,"Velocity":57,"Duration":114547,"SoundDuration":114547,"Delta":77638074},{"NoteNumber":65,"Velocity":40,"Duration":114547,"SoundDuration":114547,"Delta":77752621},{"NoteNumber":60,"Velocity":40,"Duration":114547,"SoundDuration":114547,"Delta":77867169},{"NoteNumber":57,"Velocity":36,"Duration":114547,"SoundDuration":114547,"Delta":77981716},{"NoteNumber":53,"Velocity":31,"Duration":126438,"SoundDuration":126438,"Delta":78096264},{"NoteNumber":70,"Velocity":56,"Duration":120772,"SoundDuration":120772,"Delta":78222702},{"NoteNumber":72,"Velocity":61,"Duration":116427,"SoundDuration":116427,"Delta":78343475},{"NoteNumber":65,"Velocity":44,"Duration":116427,"SoundDuration":116427,"Delta":78459903},{"NoteNumber":60,"Velocity":44,"Duration":116427,"SoundDuration":116427,"Delta":78576331},{"NoteNumber":56,"Velocity":39,"Duration":116427,"SoundDuration":116427,"Delta":78692759},{"NoteNumber":50,"Velocity":34,"Duration":151698,"SoundDuration":151698,"Delta":78809187},{"NoteNumber":71,"Velocity":57,"Duration":127097,"SoundDuration":127097,"Delta":78960886},{"NoteNumber":72,"Velocity":62,"Duration":118427,"SoundDuration":118427,"Delta":79087983},{"NoteNumber":65,"Velocity":44,"Duration":118427,"SoundDuration":118427,"Delta":79206410},{"NoteNumber":60,"Velocity":44,"Duration":118427,"SoundDuration":118427,"Delta":79324838},{"NoteNumber":57,"Velocity":40,"Duration":118427,"SoundDuration":118427,"Delta":79443265},{"NoteNumber":48,"Velocity":35,"Duration":141944,"SoundDuration":141944,"Delta":79561692},{"NoteNumber":73,"Velocity":56,"Duration":124502,"SoundDuration":124502,"Delta":79703637},{"NoteNumber":74,"Velocity":61,"Duration":120351,"SoundDuration":120351,"Delta":79828139},{"NoteNumber":64,"Velocity":43,"Duration":120351,"SoundDuration":120351,"Delta":79948490},{"NoteNumber":58,"Velocity":43,"Duration":120351,"SoundDuration":120351,"Delta":80068842},{"NoteNumber":55,"Velocity":38,"Duration":120351,"SoundDuration":120351,"Delta":80189193},{"NoteNumber":48,"Velocity":32,"Duration":132643,"SoundDuration":132643,"Delta":80309545},{"NoteNumber":69,"Velocity":56,"Duration":123869,"SoundDuration":123869,"Delta":80442189},{"NoteNumber":70,"Velocity":57,"Duration":122563,"SoundDuration":122563,"Delta":80566058},{"NoteNumber":60,"Velocity":41,"Duration":122563,"SoundDuration":122563,"Delta":80688622},{"NoteNumber":58,"Velocity":40,"Duration":122564,"SoundDuration":122564,"Delta":80811186},{"NoteNumber":52,"Velocity":34,"Duration":134970,"SoundDuration":134970,"Delta":80933750},{"NoteNumber":48,"Velocity":29,"Duration":131216,"SoundDuration":131216,"Delta":81068721},{"NoteNumber":64,"Velocity":51,"Duration":129132,"SoundDuration":129132,"Delta":81199938},{"NoteNumber":65,"Velocity":54,"Duration":128057,"SoundDuration":128057,"Delta":81329070},{"NoteNumber":60,"Velocity":37,"Duration":128057,"SoundDuration":128057,"Delta":81457127},{"NoteNumber":57,"Velocity":37,"Duration":128057,"SoundDuration":128057,"Delta":81585184},{"NoteNumber":48,"Velocity":31,"Duration":128057,"SoundDuration":128057,"Delta":81713242},{"NoteNumber":41,"Velocity":25,"Duration":188111,"SoundDuration":188111,"Delta":81841299},{"NoteNumber":79,"Velocity":50,"Duration":115606,"SoundDuration":115606,"Delta":82029410},{"NoteNumber":77,"Velocity":51,"Duration":120177,"SoundDuration":120177,"Delta":82145017},{"NoteNumber":68,"Velocity":35,"Duration":114547,"SoundDuration":114547,"Delta":82265195},{"NoteNumber":72,"Velocity":35,"Duration":114547,"SoundDuration":114547,"Delta":82379743},{"NoteNumber":65,"Velocity":32,"Duration":114547,"SoundDuration":114547,"Delta":82494290},{"NoteNumber":62,"Velocity":28,"Duration":126438,"SoundDuration":126438,"Delta":82608838},{"NoteNumber":75,"Velocity":47,"Duration":120177,"SoundDuration":120177,"Delta":82735276},{"NoteNumber":74,"Velocity":51,"Duration":114547,"SoundDuration":114547,"Delta":82855454},{"NoteNumber":67,"Velocity":36,"Duration":114547,"SoundDuration":114547,"Delta":82970001},{"NoteNumber":62,"Velocity":35,"Duration":114547,"SoundDuration":114547,"Delta":83084549},{"NoteNumber":59,"Velocity":28,"Duration":114547,"SoundDuration":114547,"Delta":83199096},{"NoteNumber":53,"Velocity":23,"Duration":127097,"SoundDuration":127097,"Delta":83313644},{"NoteNumber":71,"Velocity":50,"Duration":119005,"SoundDuration":119005,"Delta":83440741},{"NoteNumber":72,"Velocity":51,"Duration":119588,"SoundDuration":119588,"Delta":83559746},{"NoteNumber":67,"Velocity":35,"Duration":113934,"SoundDuration":113934,"Delta":83679335},{"NoteNumber":68,"Velocity":35,"Duration":113934,"SoundDuration":113934,"Delta":83793269},{"NoteNumber":63,"Velocity":30,"Duration":113934,"SoundDuration":113934,"Delta":83907203},{"NoteNumber":60,"Velocity":27,"Duration":126438,"SoundDuration":126438,"Delta":84021137},{"NoteNumber":74,"Velocity":48,"Duration":119005,"SoundDuration":119005,"Delta":84147575},{"NoteNumber":75,"Velocity":52,"Duration":116713,"SoundDuration":116713,"Delta":84266581},{"NoteNumber":67,"Velocity":38,"Duration":116713,"SoundDuration":116713,"Delta":84383294},{"NoteNumber":60,"Velocity":36,"Duration":119588,"SoundDuration":119588,"Delta":84500007},{"NoteNumber":55,"Velocity":32,"Duration":119588,"SoundDuration":119588,"Delta":84619596},{"NoteNumber":51,"Velocity":28,"Duration":138696,"SoundDuration":138696,"Delta":84739185},{"NoteNumber":72,"Velocity":58,"Duration":120177,"SoundDuration":120177,"Delta":84877881},{"NoteNumber":80,"Velocity":64,"Duration":111557,"SoundDuration":111557,"Delta":84998059},{"NoteNumber":68,"Velocity":43,"Duration":111557,"SoundDuration":111557,"Delta":85109616},{"NoteNumber":60,"Velocity":43,"Duration":111557,"SoundDuration":111557,"Delta":85221173},{"NoteNumber":53,"Velocity":40,"Duration":111557,"SoundDuration":111557,"Delta":85332731},{"NoteNumber":50,"Velocity":31,"Duration":126438,"SoundDuration":126438,"Delta":85444288},{"NoteNumber":80,"Velocity":61,"Duration":119588,"SoundDuration":119588,"Delta":85570726},{"NoteNumber":79,"Velocity":66,"Duration":110975,"SoundDuration":110975,"Delta":85690315},{"NoteNumber":67,"Velocity":45,"Duration":110975,"SoundDuration":110975,"Delta":85801290},{"NoteNumber":59,"Velocity":43,"Duration":110975,"SoundDuration":110975,"Delta":85912266},{"NoteNumber":50,"Velocity":36,"Duration":110975,"SoundDuration":110975,"Delta":86023241},{"NoteNumber":43,"Velocity":31,"Duration":137912,"SoundDuration":137912,"Delta":86134217},{"NoteNumber":79,"Velocity":56,"Duration":120772,"SoundDuration":120772,"Delta":86272129},{"NoteNumber":75,"Velocity":63,"Duration":112145,"SoundDuration":112145,"Delta":86392902},{"NoteNumber":67,"Velocity":40,"Duration":112145,"SoundDuration":112145,"Delta":86505047},{"NoteNumber":60,"Velocity":40,"Duration":112145,"SoundDuration":112145,"Delta":86617193},{"NoteNumber":51,"Velocity":35,"Duration":112145,"SoundDuration":112145,"Delta":86729338},{"NoteNumber":48,"Velocity":30,"Duration":126438,"SoundDuration":126438,"Delta":86841483},{"NoteNumber":75,"Velocity":51,"Duration":119005,"SoundDuration":119005,"Delta":86967921},{"NoteNumber":72,"Velocity":54,"Duration":112726,"SoundDuration":112726,"Delta":87086927},{"NoteNumber":67,"Velocity":42,"Duration":112726,"SoundDuration":112726,"Delta":87199653},{"NoteNumber":60,"Velocity":36,"Duration":112726,"SoundDuration":112726,"Delta":87312380},{"NoteNumber":55,"Velocity":30,"Duration":112726,"SoundDuration":112726,"Delta":87425107},{"NoteNumber":51,"Velocity":25,"Duration":150761,"SoundDuration":150761,"Delta":87537834},{"NoteNumber":77,"Velocity":50,"Duration":119588,"SoundDuration":119588,"Delta":87688595},{"NoteNumber":75,"Velocity":56,"Duration":112726,"SoundDuration":112726,"Delta":87808184},{"NoteNumber":66,"Velocity":41,"Duration":112726,"SoundDuration":112726,"Delta":87920911},{"NoteNumber":70,"Velocity":44,"Duration":112726,"SoundDuration":112726,"Delta":88033638},{"NoteNumber":63,"Velocity":35,"Duration":112726,"SoundDuration":112726,"Delta":88146364},{"NoteNumber":60,"Velocity":33,"Duration":131216,"SoundDuration":131216,"Delta":88259091},{"NoteNumber":73,"Velocity":50,"Duration":119588,"SoundDuration":119588,"Delta":88390308},{"NoteNumber":72,"Velocity":54,"Duration":115794,"SoundDuration":115794,"Delta":88509896},{"NoteNumber":65,"Velocity":44,"Duration":115794,"SoundDuration":115794,"Delta":88625691},{"NoteNumber":60,"Velocity":39,"Duration":115794,"SoundDuration":115794,"Delta":88741485},{"NoteNumber":57,"Velocity":37,"Duration":115794,"SoundDuration":115794,"Delta":88857279},{"NoteNumber":51,"Velocity":32,"Duration":134120,"SoundDuration":134120,"Delta":88973074},{"NoteNumber":69,"Velocity":52,"Duration":121388,"SoundDuration":121388,"Delta":89107194},{"NoteNumber":70,"Velocity":56,"Duration":117855,"SoundDuration":117855,"Delta":89228582},{"NoteNumber":65,"Velocity":40,"Duration":117854,"SoundDuration":117854,"Delta":89346437},{"NoteNumber":66,"Velocity":40,"Duration":117855,"SoundDuration":117855,"Delta":89464292},{"NoteNumber":61,"Velocity":36,"Duration":117854,"SoundDuration":117854,"Delta":89582147},{"NoteNumber":58,"Velocity":31,"Duration":126438,"SoundDuration":126438,"Delta":89700002},{"NoteNumber":72,"Velocity":53,"Duration":120772,"SoundDuration":120772,"Delta":89826441},{"NoteNumber":73,"Velocity":61,"Duration":117855,"SoundDuration":117855,"Delta":89947214},{"NoteNumber":65,"Velocity":43,"Duration":117854,"SoundDuration":117854,"Delta":90065069},{"NoteNumber":58,"Velocity":42,"Duration":117855,"SoundDuration":117855,"Delta":90182924},{"NoteNumber":53,"Velocity":39,"Duration":117854,"SoundDuration":117854,"Delta":90300779},{"NoteNumber":49,"Velocity":34,"Duration":151699,"SoundDuration":151699,"Delta":90418634},{"NoteNumber":70,"Velocity":57,"Duration":127097,"SoundDuration":127097,"Delta":90570333},{"NoteNumber":78,"Velocity":67,"Duration":121817,"SoundDuration":121817,"Delta":90697430},{"NoteNumber":66,"Velocity":49,"Duration":121817,"SoundDuration":121817,"Delta":90819247},{"NoteNumber":63,"Velocity":44,"Duration":121817,"SoundDuration":121817,"Delta":90941065},{"NoteNumber":58,"Velocity":40,"Duration":121817,"SoundDuration":121817,"Delta":91062882},{"NoteNumber":51,"Velocity":35,"Duration":141944,"SoundDuration":141944,"Delta":91184700},{"NoteNumber":78,"Velocity":56,"Duration":124501,"SoundDuration":124501,"Delta":91326644},{"NoteNumber":81,"Velocity":65,"Duration":123319,"SoundDuration":123319,"Delta":91451146},{"NoteNumber":69,"Velocity":48,"Duration":123319,"SoundDuration":123319,"Delta":91574466},{"NoteNumber":66,"Velocity":43,"Duration":119688,"SoundDuration":119688,"Delta":91697786},{"NoteNumber":63,"Velocity":38,"Duration":131926,"SoundDuration":131926,"Delta":91817475},{"NoteNumber":54,"Velocity":32,"Duration":147102,"SoundDuration":147102,"Delta":91949401},{"NoteNumber":81,"Velocity":49,"Duration":147102,"SoundDuration":147102,"Delta":92096503},{"NoteNumber":82,"Velocity":60,"Duration":133066,"SoundDuration":133066,"Delta":92243605},{"NoteNumber":70,"Velocity":38,"Duration":128924,"SoundDuration":128924,"Delta":92376672},{"NoteNumber":67,"Velocity":38,"Duration":130004,"SoundDuration":130004,"Delta":92505597},{"NoteNumber":63,"Velocity":33,"Duration":131090,"SoundDuration":131090,"Delta":92635601},{"NoteNumber":55,"Velocity":29,"Duration":131503,"SoundDuration":131503,"Delta":92766692},{"NoteNumber":79,"Velocity":46,"Duration":134345,"SoundDuration":134345,"Delta":92898195},{"NoteNumber":77,"Velocity":53,"Duration":136794,"SoundDuration":136794,"Delta":93032540},{"NoteNumber":72,"Velocity":32,"Duration":136817,"SoundDuration":136817,"Delta":93169335},{"NoteNumber":65,"Velocity":32,"Duration":136817,"SoundDuration":136817,"Delta":93306152},{"NoteNumber":63,"Velocity":27,"Duration":136817,"SoundDuration":136817,"Delta":93442970},{"NoteNumber":57,"Velocity":23,"Duration":252652,"SoundDuration":252652,"Delta":93579788},{"NoteNumber":79,"Velocity":50,"Duration":115606,"SoundDuration":115606,"Delta":93832441},{"NoteNumber":77,"Velocity":51,"Duration":120177,"SoundDuration":120177,"Delta":93948048},{"NoteNumber":70,"Velocity":35,"Duration":113934,"SoundDuration":113934,"Delta":94068225},{"NoteNumber":74,"Velocity":35,"Duration":113934,"SoundDuration":113934,"Delta":94182160},{"NoteNumber":65,"Velocity":30,"Duration":113934,"SoundDuration":113934,"Delta":94296094},{"NoteNumber":58,"Velocity":25,"Duration":126438,"SoundDuration":126438,"Delta":94410028},{"NoteNumber":75,"Velocity":47,"Duration":120177,"SoundDuration":120177,"Delta":94536466},{"NoteNumber":74,"Velocity":51,"Duration":113934,"SoundDuration":113934,"Delta":94656644},{"NoteNumber":65,"Velocity":36,"Duration":113934,"SoundDuration":113934,"Delta":94770578},{"NoteNumber":70,"Velocity":35,"Duration":113934,"SoundDuration":113934,"Delta":94884512},{"NoteNumber":62,"Velocity":26,"Duration":113934,"SoundDuration":113934,"Delta":94998446},{"NoteNumber":58,"Velocity":23,"Duration":127097,"SoundDuration":127097,"Delta":95112381},{"NoteNumber":74,"Velocity":50,"Duration":119005,"SoundDuration":119005,"Delta":95239478},{"NoteNumber":72,"Velocity":51,"Duration":119588,"SoundDuration":119588,"Delta":95358483},{"NoteNumber":65,"Velocity":35,"Duration":111557,"SoundDuration":111557,"Delta":95478072},{"NoteNumber":66,"Velocity":35,"Duration":111557,"SoundDuration":111557,"Delta":95589629},{"NoteNumber":63,"Velocity":28,"Duration":111557,"SoundDuration":111557,"Delta":95701186},{"NoteNumber":58,"Velocity":23,"Duration":126438,"SoundDuration":126438,"Delta":95812744},{"NoteNumber":74,"Velocity":48,"Duration":119005,"SoundDuration":119005,"Delta":95939182},{"NoteNumber":75,"Velocity":52,"Duration":112145,"SoundDuration":112145,"Delta":96058187},{"NoteNumber":65,"Velocity":38,"Duration":112145,"SoundDuration":112145,"Delta":96170332},{"NoteNumber":66,"Velocity":36,"Duration":112145,"SoundDuration":112145,"Delta":96282478},{"NoteNumber":63,"Velocity":30,"Duration":112145,"SoundDuration":112145,"Delta":96394623},{"NoteNumber":58,"Velocity":27,"Duration":127097,"SoundDuration":127097,"Delta":96506768},{"NoteNumber":74,"Velocity":53,"Duration":120177,"SoundDuration":120177,"Delta":96633865},{"NoteNumber":72,"Velocity":54,"Duration":112726,"SoundDuration":112726,"Delta":96754043},{"NoteNumber":65,"Velocity":38,"Duration":112726,"SoundDuration":112726,"Delta":96866770},{"NoteNumber":66,"Velocity":38,"Duration":112726,"SoundDuration":112726,"Delta":96979497},{"NoteNumber":63,"Velocity":33,"Duration":112726,"SoundDuration":112726,"Delta":97092224},{"NoteNumber":58,"Velocity":29,"Duration":126438,"SoundDuration":126438,"Delta":97204951},{"NoteNumber":74,"Velocity":52,"Duration":119588,"SoundDuration":119588,"Delta":97331389},{"NoteNumber":75,"Velocity":56,"Duration":112145,"SoundDuration":112145,"Delta":97450977},{"NoteNumber":65,"Velocity":42,"Duration":112145,"SoundDuration":112145,"Delta":97563123},{"NoteNumber":63,"Velocity":39,"Duration":112145,"SoundDuration":112145,"Delta":97675268},{"NoteNumber":60,"Velocity":35,"Duration":112145,"SoundDuration":112145,"Delta":97787413},{"NoteNumber":58,"Velocity":29,"Duration":137912,"SoundDuration":137912,"Delta":97899559},{"NoteNumber":69,"Velocity":56,"Duration":120772,"SoundDuration":120772,"Delta":98037471},{"NoteNumber":70,"Velocity":60,"Duration":112726,"SoundDuration":112726,"Delta":98158244},{"NoteNumber":65,"Velocity":40,"Duration":112726,"SoundDuration":112726,"Delta":98270971},{"NoteNumber":62,"Velocity":40,"Duration":112726,"SoundDuration":112726,"Delta":98383697},{"NoteNumber":58,"Velocity":34,"Duration":112726,"SoundDuration":112726,"Delta":98496424},{"NoteNumber":57,"Velocity":30,"Duration":126438,"SoundDuration":126438,"Delta":98609151},{"NoteNumber":72,"Velocity":57,"Duration":119005,"SoundDuration":119005,"Delta":98735589},{"NoteNumber":74,"Velocity":64,"Duration":113327,"SoundDuration":113327,"Delta":98854594},{"NoteNumber":65,"Velocity":47,"Duration":113327,"SoundDuration":113327,"Delta":98967922},{"NoteNumber":62,"Velocity":42,"Duration":113327,"SoundDuration":113327,"Delta":99081249},{"NoteNumber":58,"Velocity":36,"Duration":113327,"SoundDuration":113327,"Delta":99194576},{"NoteNumber":56,"Velocity":31,"Duration":131926,"SoundDuration":131926,"Delta":99307904},{"NoteNumber":70,"Velocity":57,"Duration":119588,"SoundDuration":119588,"Delta":99439830},{"NoteNumber":75,"Velocity":62,"Duration":112145,"SoundDuration":112145,"Delta":99559419},{"NoteNumber":63,"Velocity":44,"Duration":112145,"SoundDuration":112145,"Delta":99671564},{"NoteNumber":67,"Velocity":44,"Duration":112145,"SoundDuration":112145,"Delta":99783709},{"NoteNumber":58,"Velocity":39,"Duration":112145,"SoundDuration":112145,"Delta":99895855},{"NoteNumber":55,"Velocity":33,"Duration":131216,"SoundDuration":131216,"Delta":100008000},{"NoteNumber":75,"Velocity":54,"Duration":119588,"SoundDuration":119588,"Delta":100139216},{"NoteNumber":71,"Velocity":57,"Duration":113327,"SoundDuration":113327,"Delta":100258805},{"NoteNumber":68,"Velocity":47,"Duration":113327,"SoundDuration":113327,"Delta":100372132},{"NoteNumber":62,"Velocity":42,"Duration":113327,"SoundDuration":113327,"Delta":100485460},{"NoteNumber":56,"Velocity":37,"Duration":113327,"SoundDuration":113327,"Delta":100598787},{"NoteNumber":53,"Velocity":32,"Duration":134120,"SoundDuration":134120,"Delta":100712114},{"NoteNumber":71,"Velocity":57,"Duration":121388,"SoundDuration":121388,"Delta":100846234},{"NoteNumber":72,"Velocity":57,"Duration":116427,"SoundDuration":116427,"Delta":100967623},{"NoteNumber":60,"Velocity":40,"Duration":116427,"SoundDuration":116427,"Delta":101084051},{"NoteNumber":63,"Velocity":40,"Duration":116427,"SoundDuration":116427,"Delta":101200479},{"NoteNumber":55,"Velocity":36,"Duration":116427,"SoundDuration":116427,"Delta":101316907},{"NoteNumber":51,"Velocity":31,"Duration":126438,"SoundDuration":126438,"Delta":101433335},{"NoteNumber":72,"Velocity":56,"Duration":120772,"SoundDuration":120772,"Delta":101559773},{"NoteNumber":66,"Velocity":61,"Duration":118427,"SoundDuration":118427,"Delta":101680546},{"NoteNumber":62,"Velocity":44,"Duration":118427,"SoundDuration":118427,"Delta":101798974},{"NoteNumber":57,"Velocity":44,"Duration":118427,"SoundDuration":118427,"Delta":101917401},{"NoteNumber":50,"Velocity":36,"Duration":118427,"SoundDuration":118427,"Delta":102035828},{"NoteNumber":48,"Velocity":34,"Duration":151699,"SoundDuration":151699,"Delta":102154256},{"NoteNumber":66,"Velocity":57,"Duration":127097,"SoundDuration":127097,"Delta":102305955},{"NoteNumber":67,"Velocity":62,"Duration":119005,"SoundDuration":119005,"Delta":102433052},{"NoteNumber":55,"Velocity":44,"Duration":119005,"SoundDuration":119005,"Delta":102552057},{"NoteNumber":58,"Velocity":44,"Duration":119005,"SoundDuration":119005,"Delta":102671062},{"NoteNumber":50,"Velocity":40,"Duration":119005,"SoundDuration":119005,"Delta":102790067},{"NoteNumber":46,"Velocity":35,"Duration":141944,"SoundDuration":141944,"Delta":102909072},{"NoteNumber":67,"Velocity":56,"Duration":124501,"SoundDuration":124501,"Delta":103051017},{"NoteNumber":66,"Velocity":61,"Duration":121080,"SoundDuration":121080,"Delta":103175519},{"NoteNumber":58,"Velocity":43,"Duration":121079,"SoundDuration":121079,"Delta":103296599},{"NoteNumber":54,"Velocity":43,"Duration":121080,"SoundDuration":121080,"Delta":103417679},{"NoteNumber":46,"Velocity":38,"Duration":121079,"SoundDuration":121079,"Delta":103538759},{"NoteNumber":39,"Velocity":32,"Duration":132643,"SoundDuration":132643,"Delta":103659839},{"NoteNumber":66,"Velocity":56,"Duration":123869,"SoundDuration":123869,"Delta":103792483},{"NoteNumber":65,"Velocity":57,"Duration":124084,"SoundDuration":124084,"Delta":103916352},{"NoteNumber":57,"Velocity":41,"Duration":124084,"SoundDuration":124084,"Delta":104040437},{"NoteNumber":53,"Velocity":40,"Duration":124084,"SoundDuration":124084,"Delta":104164522},{"NoteNumber":45,"Velocity":36,"Duration":133173,"SoundDuration":133173,"Delta":104288607},{"NoteNumber":41,"Velocity":29,"Duration":131216,"SoundDuration":131216,"Delta":104421780},{"NoteNumber":65,"Velocity":51,"Duration":129132,"SoundDuration":129132,"Delta":104552997},{"NoteNumber":62,"Velocity":54,"Duration":129718,"SoundDuration":129718,"Delta":104682129},{"NoteNumber":58,"Velocity":37,"Duration":129718,"SoundDuration":129718,"Delta":104811847},{"NoteNumber":50,"Velocity":37,"Duration":129718,"SoundDuration":129718,"Delta":104941566},{"NoteNumber":41,"Velocity":35,"Duration":129718,"SoundDuration":129718,"Delta":105071284},{"NoteNumber":34,"Velocity":32,"Duration":172117,"SoundDuration":172117,"Delta":105201003},{"NoteNumber":79,"Velocity":50,"Duration":115606,"SoundDuration":115606,"Delta":105373120},{"NoteNumber":77,"Velocity":51,"Duration":120177,"SoundDuration":120177,"Delta":105488727},{"NoteNumber":68,"Velocity":35,"Duration":113934,"SoundDuration":113934,"Delta":105608905},{"NoteNumber":72,"Velocity":35,"Duration":113934,"SoundDuration":113934,"Delta":105722839},{"NoteNumber":65,"Velocity":29,"Duration":113934,"SoundDuration":113934,"Delta":105836773},{"NoteNumber":62,"Velocity":26,"Duration":126438,"SoundDuration":126438,"Delta":105950707},{"NoteNumber":75,"Velocity":47,"Duration":120177,"SoundDuration":120177,"Delta":106077145},{"NoteNumber":74,"Velocity":51,"Duration":113934,"SoundDuration":113934,"Delta":106197323},{"NoteNumber":67,"Velocity":36,"Duration":113934,"SoundDuration":113934,"Delta":106311257},{"NoteNumber":62,"Velocity":35,"Duration":113934,"SoundDuration":113934,"Delta":106425192},{"NoteNumber":59,"Velocity":28,"Duration":113934,"SoundDuration":113934,"Delta":106539126},{"NoteNumber":53,"Velocity":23,"Duration":127097,"SoundDuration":127097,"Delta":106653060},{"NoteNumber":71,"Velocity":50,"Duration":119005,"SoundDuration":119005,"Delta":106780157},{"NoteNumber":72,"Velocity":51,"Duration":119588,"SoundDuration":119588,"Delta":106899162},{"NoteNumber":67,"Velocity":35,"Duration":112726,"SoundDuration":112726,"Delta":107018751},{"NoteNumber":68,"Velocity":35,"Duration":112726,"SoundDuration":112726,"Delta":107131478},{"NoteNumber":63,"Velocity":32,"Duration":112726,"SoundDuration":112726,"Delta":107244205},{"NoteNumber":60,"Velocity":27,"Duration":126438,"SoundDuration":126438,"Delta":107356931},{"NoteNumber":74,"Velocity":48,"Duration":119005,"SoundDuration":119005,"Delta":107483370},{"NoteNumber":75,"Velocity":52,"Duration":113934,"SoundDuration":113934,"Delta":107602375},{"NoteNumber":67,"Velocity":38,"Duration":113934,"SoundDuration":113934,"Delta":107716309},{"NoteNumber":60,"Velocity":36,"Duration":119588,"SoundDuration":119588,"Delta":107830243},{"NoteNumber":55,"Velocity":33,"Duration":119588,"SoundDuration":119588,"Delta":107949832},{"NoteNumber":51,"Velocity":31,"Duration":138696,"SoundDuration":138696,"Delta":108069420},{"NoteNumber":72,"Velocity":55,"Duration":120177,"SoundDuration":120177,"Delta":108208117},{"NoteNumber":80,"Velocity":62,"Duration":111557,"SoundDuration":111557,"Delta":108328295},{"NoteNumber":68,"Velocity":43,"Duration":111557,"SoundDuration":111557,"Delta":108439852},{"NoteNumber":60,"Velocity":43,"Duration":111557,"SoundDuration":111557,"Delta":108551409},{"NoteNumber":53,"Velocity":38,"Duration":111557,"SoundDuration":111557,"Delta":108662967},{"NoteNumber":50,"Velocity":31,"Duration":126438,"SoundDuration":126438,"Delta":108774524},{"NoteNumber":80,"Velocity":57,"Duration":119588,"SoundDuration":119588,"Delta":108900962},{"NoteNumber":79,"Velocity":62,"Duration":112145,"SoundDuration":112145,"Delta":109020551},{"NoteNumber":67,"Velocity":45,"Duration":112145,"SoundDuration":112145,"Delta":109132696},{"NoteNumber":59,"Velocity":43,"Duration":112145,"SoundDuration":112145,"Delta":109244841},{"NoteNumber":50,"Velocity":38,"Duration":112145,"SoundDuration":112145,"Delta":109356987},{"NoteNumber":43,"Velocity":31,"Duration":137912,"SoundDuration":137912,"Delta":109469132},{"NoteNumber":79,"Velocity":56,"Duration":120772,"SoundDuration":120772,"Delta":109607044},{"NoteNumber":75,"Velocity":63,"Duration":113327,"SoundDuration":113327,"Delta":109727817},{"NoteNumber":67,"Velocity":40,"Duration":113327,"SoundDuration":113327,"Delta":109841144},{"NoteNumber":60,"Velocity":40,"Duration":113327,"SoundDuration":113327,"Delta":109954472},{"NoteNumber":51,"Velocity":35,"Duration":113327,"SoundDuration":113327,"Delta":110067799},{"NoteNumber":48,"Velocity":30,"Duration":126438,"SoundDuration":126438,"Delta":110181126},{"NoteNumber":75,"Velocity":51,"Duration":119005,"SoundDuration":119005,"Delta":110307565},{"NoteNumber":72,"Velocity":54,"Duration":114547,"SoundDuration":114547,"Delta":110426570},{"NoteNumber":67,"Velocity":42,"Duration":114547,"SoundDuration":114547,"Delta":110541117},{"NoteNumber":60,"Velocity":36,"Duration":114547,"SoundDuration":114547,"Delta":110655665},{"NoteNumber":55,"Velocity":30,"Duration":114547,"SoundDuration":114547,"Delta":110770212},{"NoteNumber":51,"Velocity":27,"Duration":150761,"SoundDuration":150761,"Delta":110884760},{"NoteNumber":77,"Velocity":50,"Duration":119588,"SoundDuration":119588,"Delta":111035521},{"NoteNumber":75,"Velocity":56,"Duration":114547,"SoundDuration":114547,"Delta":111155110},{"NoteNumber":66,"Velocity":41,"Duration":114547,"SoundDuration":114547,"Delta":111269657},{"NoteNumber":70,"Velocity":44,"Duration":114547,"SoundDuration":114547,"Delta":111384205},{"NoteNumber":63,"Velocity":35,"Duration":114547,"SoundDuration":114547,"Delta":111498752},{"NoteNumber":60,"Velocity":33,"Duration":131216,"SoundDuration":131216,"Delta":111613300},{"NoteNumber":73,"Velocity":50,"Duration":119588,"SoundDuration":119588,"Delta":111744516},{"NoteNumber":72,"Velocity":54,"Duration":116427,"SoundDuration":116427,"Delta":111864105},{"NoteNumber":65,"Velocity":44,"Duration":116427,"SoundDuration":116427,"Delta":111980533},{"NoteNumber":60,"Velocity":39,"Duration":116427,"SoundDuration":116427,"Delta":112096961},{"NoteNumber":57,"Velocity":37,"Duration":116427,"SoundDuration":116427,"Delta":112213389},{"NoteNumber":51,"Velocity":32,"Duration":134120,"SoundDuration":134120,"Delta":112329817},{"NoteNumber":69,"Velocity":52,"Duration":121388,"SoundDuration":121388,"Delta":112463937},{"NoteNumber":70,"Velocity":56,"Duration":115794,"SoundDuration":115794,"Delta":112585326},{"NoteNumber":65,"Velocity":40,"Duration":115794,"SoundDuration":115794,"Delta":112701120},{"NoteNumber":66,"Velocity":40,"Duration":115794,"SoundDuration":115794,"Delta":112816914},{"NoteNumber":61,"Velocity":36,"Duration":115794,"SoundDuration":115794,"Delta":112932709},{"NoteNumber":58,"Velocity":31,"Duration":126438,"SoundDuration":126438,"Delta":113048503},{"NoteNumber":72,"Velocity":53,"Duration":120772,"SoundDuration":120772,"Delta":113174941},{"NoteNumber":73,"Velocity":61,"Duration":117855,"SoundDuration":117855,"Delta":113295714},{"NoteNumber":65,"Velocity":43,"Duration":117854,"SoundDuration":117854,"Delta":113413569},{"NoteNumber":58,"Velocity":42,"Duration":117855,"SoundDuration":117855,"Delta":113531424},{"NoteNumber":53,"Velocity":39,"Duration":117854,"SoundDuration":117854,"Delta":113649279},{"NoteNumber":49,"Velocity":34,"Duration":151699,"SoundDuration":151699,"Delta":113767134},{"NoteNumber":70,"Velocity":57,"Duration":127097,"SoundDuration":127097,"Delta":113918833},{"NoteNumber":78,"Velocity":67,"Duration":118427,"SoundDuration":118427,"Delta":114045930},{"NoteNumber":66,"Velocity":49,"Duration":118427,"SoundDuration":118427,"Delta":114164358},{"NoteNumber":63,"Velocity":44,"Duration":118427,"SoundDuration":118427,"Delta":114282785},{"NoteNumber":58,"Velocity":40,"Duration":118427,"SoundDuration":118427,"Delta":114401212},{"NoteNumber":51,"Velocity":35,"Duration":141944,"SoundDuration":141944,"Delta":114519640},{"NoteNumber":78,"Velocity":56,"Duration":124501,"SoundDuration":124501,"Delta":114661584},{"NoteNumber":81,"Velocity":65,"Duration":121817,"SoundDuration":121817,"Delta":114786086},{"NoteNumber":69,"Velocity":48,"Duration":121817,"SoundDuration":121817,"Delta":114907904},{"NoteNumber":66,"Velocity":43,"Duration":117854,"SoundDuration":117854,"Delta":115029721},{"NoteNumber":63,"Velocity":37,"Duration":131926,"SoundDuration":131926,"Delta":115147576},{"NoteNumber":54,"Velocity":32,"Duration":147102,"SoundDuration":147102,"Delta":115279502},{"NoteNumber":81,"Velocity":49,"Duration":147102,"SoundDuration":147102,"Delta":115426605},{"NoteNumber":82,"Velocity":60,"Duration":132292,"SoundDuration":132292,"Delta":115573707},{"NoteNumber":70,"Velocity":38,"Duration":132292,"SoundDuration":132292,"Delta":115705999},{"NoteNumber":67,"Velocity":35,"Duration":132292,"SoundDuration":132292,"Delta":115838292},{"NoteNumber":63,"Velocity":32,"Duration":132140,"SoundDuration":132140,"Delta":115970585},{"NoteNumber":55,"Velocity":26,"Duration":132428,"SoundDuration":132428,"Delta":116102725},{"NoteNumber":79,"Velocity":46,"Duration":134711,"SoundDuration":134711,"Delta":116235154},{"NoteNumber":77,"Velocity":53,"Duration":134970,"SoundDuration":134970,"Delta":116369865},{"NoteNumber":72,"Velocity":32,"Duration":134971,"SoundDuration":134971,"Delta":116504836},{"NoteNumber":65,"Velocity":32,"Duration":134970,"SoundDuration":134970,"Delta":116639807},{"NoteNumber":63,"Velocity":27,"Duration":134971,"SoundDuration":134971,"Delta":116774778},{"NoteNumber":57,"Velocity":23,"Duration":252652,"SoundDuration":252652,"Delta":116909749},{"NoteNumber":79,"Velocity":50,"Duration":115606,"SoundDuration":115606,"Delta":117162402},{"NoteNumber":77,"Velocity":51,"Duration":120177,"SoundDuration":120177,"Delta":117278009},{"NoteNumber":70,"Velocity":35,"Duration":115167,"SoundDuration":115167,"Delta":117398186},{"NoteNumber":74,"Velocity":35,"Duration":115167,"SoundDuration":115167,"Delta":117513354},{"NoteNumber":65,"Velocity":30,"Duration":115167,"SoundDuration":115167,"Delta":117628521},{"NoteNumber":58,"Velocity":24,"Duration":126438,"SoundDuration":126438,"Delta":117743689},{"NoteNumber":75,"Velocity":47,"Duration":120177,"SoundDuration":120177,"Delta":117870127},{"NoteNumber":74,"Velocity":51,"Duration":113934,"SoundDuration":113934,"Delta":117990305},{"NoteNumber":65,"Velocity":36,"Duration":113934,"SoundDuration":113934,"Delta":118104239},{"NoteNumber":70,"Velocity":35,"Duration":113934,"SoundDuration":113934,"Delta":118218173},{"NoteNumber":62,"Velocity":28,"Duration":113934,"SoundDuration":113934,"Delta":118332107},{"NoteNumber":58,"Velocity":23,"Duration":127097,"SoundDuration":127097,"Delta":118446042},{"NoteNumber":74,"Velocity":50,"Duration":119005,"SoundDuration":119005,"Delta":118573139},{"NoteNumber":72,"Velocity":51,"Duration":119588,"SoundDuration":119588,"Delta":118692144},{"NoteNumber":65,"Velocity":35,"Duration":112145,"SoundDuration":112145,"Delta":118811733},{"NoteNumber":66,"Velocity":35,"Duration":112145,"SoundDuration":112145,"Delta":118923878},{"NoteNumber":63,"Velocity":32,"Duration":112145,"SoundDuration":112145,"Delta":119036023},{"NoteNumber":58,"Velocity":27,"Duration":126438,"SoundDuration":126438,"Delta":119148169},{"NoteNumber":74,"Velocity":48,"Duration":119005,"SoundDuration":119005,"Delta":119274607},{"NoteNumber":75,"Velocity":52,"Duration":113934,"SoundDuration":113934,"Delta":119393612},{"NoteNumber":65,"Velocity":38,"Duration":113934,"SoundDuration":113934,"Delta":119507546},{"NoteNumber":66,"Velocity":36,"Duration":113934,"SoundDuration":113934,"Delta":119621480},{"NoteNumber":63,"Velocity":32,"Duration":113934,"SoundDuration":113934,"Delta":119735414},{"NoteNumber":58,"Velocity":29,"Duration":127097,"SoundDuration":127097,"Delta":119849349},{"NoteNumber":74,"Velocity":53,"Duration":120177,"SoundDuration":120177,"Delta":119976446},{"NoteNumber":72,"Velocity":54,"Duration":113934,"SoundDuration":113934,"Delta":120096624},{"NoteNumber":65,"Velocity":38,"Duration":113934,"SoundDuration":113934,"Delta":120210558},{"NoteNumber":66,"Velocity":38,"Duration":113934,"SoundDuration":113934,"Delta":120324492},{"NoteNumber":63,"Velocity":33,"Duration":113934,"SoundDuration":113934,"Delta":120438426},{"NoteNumber":58,"Velocity":27,"Duration":126438,"SoundDuration":126438,"Delta":120552360},{"NoteNumber":74,"Velocity":52,"Duration":119588,"SoundDuration":119588,"Delta":120678798},{"NoteNumber":75,"Velocity":56,"Duration":113327,"SoundDuration":113327,"Delta":120798387},{"NoteNumber":65,"Velocity":42,"Duration":113327,"SoundDuration":113327,"Delta":120911714},{"NoteNumber":63,"Velocity":39,"Duration":113327,"SoundDuration":113327,"Delta":121025042},{"NoteNumber":60,"Velocity":36,"Duration":113327,"SoundDuration":113327,"Delta":121138369},{"NoteNumber":58,"Velocity":31,"Duration":137912,"SoundDuration":137912,"Delta":121251696},{"NoteNumber":69,"Velocity":56,"Duration":120772,"SoundDuration":120772,"Delta":121389608},{"NoteNumber":70,"Velocity":57,"Duration":112726,"SoundDuration":112726,"Delta":121510381},{"NoteNumber":65,"Velocity":40,"Duration":112726,"SoundDuration":112726,"Delta":121623108},{"NoteNumber":62,"Velocity":40,"Duration":112726,"SoundDuration":112726,"Delta":121735835},{"NoteNumber":58,"Velocity":36,"Duration":112726,"SoundDuration":112726,"Delta":121848562},{"NoteNumber":57,"Velocity":30,"Duration":126438,"SoundDuration":126438,"Delta":121961289},{"NoteNumber":72,"Velocity":54,"Duration":119005,"SoundDuration":119005,"Delta":122087727},{"NoteNumber":74,"Velocity":57,"Duration":112726,"SoundDuration":112726,"Delta":122206732},{"NoteNumber":65,"Velocity":47,"Duration":112726,"SoundDuration":112726,"Delta":122319459},{"NoteNumber":62,"Velocity":42,"Duration":112726,"SoundDuration":112726,"Delta":122432186},{"NoteNumber":58,"Velocity":36,"Duration":112726,"SoundDuration":112726,"Delta":122544913},{"NoteNumber":56,"Velocity":30,"Duration":131926,"SoundDuration":131926,"Delta":122657639},{"NoteNumber":70,"Velocity":57,"Duration":119588,"SoundDuration":119588,"Delta":122789566},{"NoteNumber":75,"Velocity":57,"Duration":112726,"SoundDuration":112726,"Delta":122909154},{"NoteNumber":63,"Velocity":44,"Duration":112726,"SoundDuration":112726,"Delta":123021881},{"NoteNumber":67,"Velocity":44,"Duration":112726,"SoundDuration":112726,"Delta":123134608},{"NoteNumber":58,"Velocity":38,"Duration":112726,"SoundDuration":112726,"Delta":123247335},{"NoteNumber":55,"Velocity":33,"Duration":131216,"SoundDuration":131216,"Delta":123360062},{"NoteNumber":75,"Velocity":54,"Duration":119588,"SoundDuration":119588,"Delta":123491278},{"NoteNumber":71,"Velocity":57,"Duration":113327,"SoundDuration":113327,"Delta":123610867},{"NoteNumber":68,"Velocity":47,"Duration":113327,"SoundDuration":113327,"Delta":123724194},{"NoteNumber":62,"Velocity":42,"Duration":113327,"SoundDuration":113327,"Delta":123837521},{"NoteNumber":56,"Velocity":36,"Duration":113327,"SoundDuration":113327,"Delta":123950849},{"NoteNumber":53,"Velocity":31,"Duration":134120,"SoundDuration":134120,"Delta":124064176},{"NoteNumber":71,"Velocity":57,"Duration":121388,"SoundDuration":121388,"Delta":124198296},{"NoteNumber":72,"Velocity":57,"Duration":115167,"SoundDuration":115167,"Delta":124319685},{"NoteNumber":60,"Velocity":40,"Duration":115167,"SoundDuration":115167,"Delta":124434852},{"NoteNumber":63,"Velocity":40,"Duration":115167,"SoundDuration":115167,"Delta":124550020},{"NoteNumber":55,"Velocity":36,"Duration":115167,"SoundDuration":115167,"Delta":124665187},{"NoteNumber":51,"Velocity":31,"Duration":126438,"SoundDuration":126438,"Delta":124780355},{"NoteNumber":72,"Velocity":56,"Duration":120772,"SoundDuration":120772,"Delta":124906793},{"NoteNumber":66,"Velocity":61,"Duration":118427,"SoundDuration":118427,"Delta":125027566},{"NoteNumber":62,"Velocity":44,"Duration":118427,"SoundDuration":118427,"Delta":125145993},{"NoteNumber":57,"Velocity":44,"Duration":118427,"SoundDuration":118427,"Delta":125264421},{"NoteNumber":50,"Velocity":38,"Duration":118427,"SoundDuration":118427,"Delta":125382848},{"NoteNumber":48,"Velocity":32,"Duration":151699,"SoundDuration":151699,"Delta":125501275},{"NoteNumber":66,"Velocity":57,"Duration":127097,"SoundDuration":127097,"Delta":125652974},{"NoteNumber":67,"Velocity":62,"Duration":119005,"SoundDuration":119005,"Delta":125780071},{"NoteNumber":55,"Velocity":44,"Duration":119005,"SoundDuration":119005,"Delta":125899077},{"NoteNumber":58,"Velocity":44,"Duration":119005,"SoundDuration":119005,"Delta":126018082},{"NoteNumber":50,"Velocity":38,"Duration":119005,"SoundDuration":119005,"Delta":126137087},{"NoteNumber":46,"Velocity":32,"Duration":141944,"SoundDuration":141944,"Delta":126256092},{"NoteNumber":67,"Velocity":56,"Duration":124501,"SoundDuration":124501,"Delta":126398037},{"NoteNumber":66,"Velocity":61,"Duration":119588,"SoundDuration":119588,"Delta":126522539},{"NoteNumber":58,"Velocity":43,"Duration":119588,"SoundDuration":119588,"Delta":126642127},{"NoteNumber":54,"Velocity":43,"Duration":119588,"SoundDuration":119588,"Delta":126761716},{"NoteNumber":46,"Velocity":38,"Duration":119588,"SoundDuration":119588,"Delta":126881305},{"NoteNumber":39,"Velocity":32,"Duration":132643,"SoundDuration":132643,"Delta":127000893},{"NoteNumber":66,"Velocity":56,"Duration":123869,"SoundDuration":123869,"Delta":127133537},{"NoteNumber":65,"Velocity":57,"Duration":120177,"SoundDuration":120177,"Delta":127257407},{"NoteNumber":57,"Velocity":41,"Duration":120177,"SoundDuration":120177,"Delta":127377585},{"NoteNumber":53,"Velocity":40,"Duration":120177,"SoundDuration":120177,"Delta":127497762},{"NoteNumber":45,"Velocity":36,"Duration":120177,"SoundDuration":120177,"Delta":127617940},{"NoteNumber":41,"Velocity":29,"Duration":131216,"SoundDuration":131216,"Delta":127738118},{"NoteNumber":65,"Velocity":51,"Duration":129132,"SoundDuration":129132,"Delta":127869334},{"NoteNumber":62,"Velocity":54,"Duration":124502,"SoundDuration":124502,"Delta":127998467},{"NoteNumber":58,"Velocity":37,"Duration":124502,"SoundDuration":124502,"Delta":128122969},{"NoteNumber":50,"Velocity":37,"Duration":124501,"SoundDuration":124501,"Delta":128247471},{"NoteNumber":41,"Velocity":35,"Duration":124502,"SoundDuration":124502,"Delta":128371973},{"NoteNumber":34,"Velocity":32,"Duration":172117,"SoundDuration":172117,"Delta":128496475},{"NoteNumber":57,"Velocity":50,"Duration":115606,"SoundDuration":115606,"Delta":128668592},{"NoteNumber":58,"Velocity":57,"Duration":126694,"SoundDuration":126694,"Delta":128784199},{"NoteNumber":52,"Velocity":42,"Duration":106929,"SoundDuration":106929,"Delta":128910893},{"NoteNumber":61,"Velocity":42,"Duration":106928,"SoundDuration":106928,"Delta":129017822},{"NoteNumber":64,"Velocity":57,"Duration":106929,"SoundDuration":106929,"Delta":129124751},{"NoteNumber":45,"Velocity":54,"Duration":120295,"SoundDuration":120295,"Delta":129124751},{"NoteNumber":33,"Velocity":45,"Duration":120295,"SoundDuration":120295,"Delta":129124751},{"NoteNumber":55,"Velocity":43,"Duration":106929,"SoundDuration":106929,"Delta":129231680},{"NoteNumber":57,"Velocity":43,"Duration":106929,"SoundDuration":106929,"Delta":129338609},{"NoteNumber":58,"Velocity":57,"Duration":111197,"SoundDuration":111197,"Delta":129445538},{"NoteNumber":53,"Velocity":44,"Duration":105218,"SoundDuration":105218,"Delta":129556736},{"NoteNumber":62,"Velocity":44,"Duration":105218,"SoundDuration":105218,"Delta":129661955},{"NoteNumber":65,"Velocity":57,"Duration":105218,"SoundDuration":105218,"Delta":129767173},{"NoteNumber":38,"Velocity":46,"Duration":118371,"SoundDuration":118371,"Delta":129767173},{"NoteNumber":50,"Velocity":55,"Duration":118371,"SoundDuration":118371,"Delta":129767173},{"NoteNumber":57,"Velocity":43,"Duration":105218,"SoundDuration":105218,"Delta":129872392},{"NoteNumber":60,"Velocity":44,"Duration":105218,"SoundDuration":105218,"Delta":129977611},{"NoteNumber":61,"Velocity":57,"Duration":111819,"SoundDuration":111819,"Delta":130082830},{"NoteNumber":55,"Velocity":44,"Duration":101926,"SoundDuration":101926,"Delta":130194649},{"NoteNumber":64,"Velocity":44,"Duration":101926,"SoundDuration":101926,"Delta":130296576},{"NoteNumber":67,"Velocity":59,"Duration":101926,"SoundDuration":101926,"Delta":130398502},{"NoteNumber":52,"Velocity":56,"Duration":114667,"SoundDuration":114667,"Delta":130398502},{"NoteNumber":40,"Velocity":47,"Duration":114667,"SoundDuration":114667,"Delta":130398502},{"NoteNumber":58,"Velocity":44,"Duration":101926,"SoundDuration":101926,"Delta":130500428},{"NoteNumber":62,"Velocity":44,"Duration":101926,"SoundDuration":101926,"Delta":130602355},{"NoteNumber":63,"Velocity":59,"Duration":106360,"SoundDuration":106360,"Delta":130704281},{"NoteNumber":57,"Velocity":44,"Duration":98833,"SoundDuration":98833,"Delta":130810641},{"NoteNumber":69,"Velocity":45,"Duration":98833,"SoundDuration":98833,"Delta":130909475},{"NoteNumber":72,"Velocity":59,"Duration":98833,"SoundDuration":98833,"Delta":131008309},{"NoteNumber":42,"Velocity":48,"Duration":111188,"SoundDuration":111188,"Delta":131008309},{"NoteNumber":54,"Velocity":58,"Duration":111188,"SoundDuration":111188,"Delta":131008309},{"NoteNumber":60,"Velocity":46,"Duration":98833,"SoundDuration":98833,"Delta":131107143},{"NoteNumber":62,"Velocity":47,"Duration":98833,"SoundDuration":98833,"Delta":131205977},{"NoteNumber":63,"Velocity":62,"Duration":103551,"SoundDuration":103551,"Delta":131304810},{"NoteNumber":58,"Velocity":47,"Duration":95574,"SoundDuration":95574,"Delta":131408362},{"NoteNumber":67,"Velocity":48,"Duration":95574,"SoundDuration":95574,"Delta":131503937},{"NoteNumber":70,"Velocity":63,"Duration":95574,"SoundDuration":95574,"Delta":131599512},{"NoteNumber":43,"Velocity":51,"Duration":107521,"SoundDuration":107521,"Delta":131599512},{"NoteNumber":55,"Velocity":62,"Duration":107521,"SoundDuration":107521,"Delta":131599512},{"NoteNumber":62,"Velocity":49,"Duration":95574,"SoundDuration":95574,"Delta":131695087},{"NoteNumber":64,"Velocity":49,"Duration":95574,"SoundDuration":95574,"Delta":131790662},{"NoteNumber":65,"Velocity":65,"Duration":101399,"SoundDuration":101399,"Delta":131886236},{"NoteNumber":59,"Velocity":50,"Duration":95147,"SoundDuration":95147,"Delta":131987636},{"NoteNumber":71,"Velocity":50,"Duration":95147,"SoundDuration":95147,"Delta":132082783},{"NoteNumber":74,"Velocity":66,"Duration":95147,"SoundDuration":95147,"Delta":132177931},{"NoteNumber":56,"Velocity":65,"Duration":107040,"SoundDuration":107040,"Delta":132177931},{"NoteNumber":44,"Velocity":54,"Duration":107040,"SoundDuration":107040,"Delta":132177931},{"NoteNumber":65,"Velocity":52,"Duration":95147,"SoundDuration":95147,"Delta":132273078},{"NoteNumber":67,"Velocity":52,"Duration":95147,"SoundDuration":95147,"Delta":132368226},{"NoteNumber":68,"Velocity":69,"Duration":105218,"SoundDuration":105218,"Delta":132463373},{"NoteNumber":62,"Velocity":52,"Duration":107297,"SoundDuration":107297,"Delta":132568592},{"NoteNumber":74,"Velocity":56,"Duration":109938,"SoundDuration":109938,"Delta":132675890},{"NoteNumber":77,"Velocity":71,"Duration":101926,"SoundDuration":101926,"Delta":132785828},{"NoteNumber":57,"Velocity":72,"Duration":879571,"SoundDuration":879571,"Delta":132785828},{"NoteNumber":45,"Velocity":60,"Duration":879571,"SoundDuration":879571,"Delta":132785828},{"NoteNumber":65,"Velocity":57,"Duration":98833,"SoundDuration":98833,"Delta":132887755},{"NoteNumber":68,"Velocity":59,"Duration":98833,"SoundDuration":98833,"Delta":132986589},{"NoteNumber":69,"Velocity":76,"Duration":95923,"SoundDuration":95923,"Delta":133085422},{"NoteNumber":64,"Velocity":63,"Duration":95923,"SoundDuration":95923,"Delta":133181346},{"NoteNumber":73,"Velocity":63,"Duration":95923,"SoundDuration":95923,"Delta":133277269},{"NoteNumber":76,"Velocity":77,"Duration":95923,"SoundDuration":95923,"Delta":133373192},{"NoteNumber":67,"Velocity":66,"Duration":95923,"SoundDuration":95923,"Delta":133469116},{"NoteNumber":69,"Velocity":67,"Duration":100361,"SoundDuration":100361,"Delta":133565039},{"NoteNumber":70,"Velocity":81,"Duration":106360,"SoundDuration":106360,"Delta":133665400},{"NoteNumber":64,"Velocity":63,"Duration":96006,"SoundDuration":96006,"Delta":133771761},{"NoteNumber":73,"Velocity":59,"Duration":96006,"SoundDuration":96006,"Delta":133867767},{"NoteNumber":76,"Velocity":63,"Duration":96006,"SoundDuration":96006,"Delta":133963773},{"NoteNumber":57,"Velocity":60,"Duration":108006,"SoundDuration":108006,"Delta":133963773},{"NoteNumber":49,"Velocity":50,"Duration":108006,"SoundDuration":108006,"Delta":133963773},{"NoteNumber":45,"Velocity":50,"Duration":108006,"SoundDuration":108006,"Delta":133963773},{"NoteNumber":67,"Velocity":47,"Duration":96006,"SoundDuration":96006,"Delta":134059779},{"NoteNumber":69,"Velocity":47,"Duration":96006,"SoundDuration":96006,"Delta":134155785},{"NoteNumber":70,"Velocity":63,"Duration":105218,"SoundDuration":105218,"Delta":134251792},{"NoteNumber":65,"Velocity":48,"Duration":99344,"SoundDuration":99344,"Delta":134357010},{"NoteNumber":74,"Velocity":48,"Duration":99344,"SoundDuration":99344,"Delta":134456355},{"NoteNumber":77,"Velocity":62,"Duration":96404,"SoundDuration":96404,"Delta":134555699},{"NoteNumber":62,"Velocity":60,"Duration":108454,"SoundDuration":108454,"Delta":134555699},{"NoteNumber":53,"Velocity":50,"Duration":108454,"SoundDuration":108454,"Delta":134555699},{"NoteNumber":50,"Velocity":50,"Duration":108454,"SoundDuration":108454,"Delta":134555699},{"NoteNumber":69,"Velocity":47,"Duration":96404,"SoundDuration":96404,"Delta":134652103},{"NoteNumber":72,"Velocity":47,"Duration":96404,"SoundDuration":96404,"Delta":134748507},{"NoteNumber":73,"Velocity":62,"Duration":106929,"SoundDuration":106929,"Delta":134844912},{"NoteNumber":67,"Velocity":47,"Duration":98833,"SoundDuration":98833,"Delta":134951841},{"NoteNumber":76,"Velocity":47,"Duration":98833,"SoundDuration":98833,"Delta":135050674},{"NoteNumber":79,"Velocity":62,"Duration":96880,"SoundDuration":96880,"Delta":135149508},{"NoteNumber":55,"Velocity":50,"Duration":108990,"SoundDuration":108990,"Delta":135149508},{"NoteNumber":52,"Velocity":50,"Duration":108990,"SoundDuration":108990,"Delta":135149508},{"NoteNumber":61,"Velocity":60,"Duration":108990,"SoundDuration":108990,"Delta":135149508},{"NoteNumber":70,"Velocity":47,"Duration":96880,"SoundDuration":96880,"Delta":135246389},{"NoteNumber":74,"Velocity":47,"Duration":96880,"SoundDuration":96880,"Delta":135343269},{"NoteNumber":75,"Velocity":62,"Duration":107526,"SoundDuration":107526,"Delta":135440150},{"NoteNumber":69,"Velocity":46,"Duration":98347,"SoundDuration":98347,"Delta":135547677},{"NoteNumber":81,"Velocity":47,"Duration":98347,"SoundDuration":98347,"Delta":135646024},{"NoteNumber":84,"Velocity":62,"Duration":97361,"SoundDuration":97361,"Delta":135744372},{"NoteNumber":60,"Velocity":51,"Duration":109531,"SoundDuration":109531,"Delta":135744372},{"NoteNumber":57,"Velocity":51,"Duration":109531,"SoundDuration":109531,"Delta":135744372},{"NoteNumber":54,"Velocity":51,"Duration":109531,"SoundDuration":109531,"Delta":135744372},{"NoteNumber":62,"Velocity":61,"Duration":109531,"SoundDuration":109531,"Delta":135744372},{"NoteNumber":72,"Velocity":48,"Duration":97361,"SoundDuration":97361,"Delta":135841734},{"NoteNumber":74,"Velocity":49,"Duration":97361,"SoundDuration":97361,"Delta":135939095},{"NoteNumber":75,"Velocity":65,"Duration":106929,"SoundDuration":106929,"Delta":136036457},{"NoteNumber":70,"Velocity":49,"Duration":99840,"SoundDuration":99840,"Delta":136143386},{"NoteNumber":79,"Velocity":49,"Duration":99840,"SoundDuration":99840,"Delta":136243226},{"NoteNumber":82,"Velocity":72,"Duration":99840,"SoundDuration":99840,"Delta":136343066},{"NoteNumber":67,"Velocity":63,"Duration":112320,"SoundDuration":112320,"Delta":136343066},{"NoteNumber":58,"Velocity":53,"Duration":112320,"SoundDuration":112320,"Delta":136343066},{"NoteNumber":55,"Velocity":53,"Duration":112320,"SoundDuration":112320,"Delta":136343066},{"NoteNumber":63,"Velocity":53,"Duration":112320,"SoundDuration":112320,"Delta":136343066},{"NoteNumber":74,"Velocity":57,"Duration":99840,"SoundDuration":99840,"Delta":136442907},{"NoteNumber":76,"Velocity":57,"Duration":99840,"SoundDuration":99840,"Delta":136542747},{"NoteNumber":77,"Velocity":74,"Duration":105775,"SoundDuration":105775,"Delta":136642587},{"NoteNumber":71,"Velocity":57,"Duration":102461,"SoundDuration":102461,"Delta":136748363},{"NoteNumber":86,"Velocity":57,"Duration":102997,"SoundDuration":102997,"Delta":136850824},{"NoteNumber":89,"Velocity":76,"Duration":102997,"SoundDuration":102997,"Delta":136953822},{"NoteNumber":59,"Velocity":54,"Duration":115871,"SoundDuration":115871,"Delta":136953822},{"NoteNumber":62,"Velocity":54,"Duration":115871,"SoundDuration":115871,"Delta":136953822},{"NoteNumber":56,"Velocity":54,"Duration":115871,"SoundDuration":115871,"Delta":136953822},{"NoteNumber":65,"Velocity":65,"Duration":115871,"SoundDuration":115871,"Delta":136953822},{"NoteNumber":77,"Velocity":61,"Duration":102997,"SoundDuration":102997,"Delta":137056819},{"NoteNumber":83,"Velocity":61,"Duration":102997,"SoundDuration":102997,"Delta":137159816},{"NoteNumber":85,"Velocity":82,"Duration":106929,"SoundDuration":106929,"Delta":137262813},{"NoteNumber":76,"Velocity":62,"Duration":101926,"SoundDuration":101926,"Delta":137369742},{"NoteNumber":88,"Velocity":65,"Duration":101926,"SoundDuration":101926,"Delta":137471668},{"NoteNumber":93,"Velocity":82,"Duration":107526,"SoundDuration":107526,"Delta":137573595},{"NoteNumber":61,"Velocity":56,"Duration":322580,"SoundDuration":322580,"Delta":137573595},{"NoteNumber":57,"Velocity":56,"Duration":322580,"SoundDuration":322580,"Delta":137573595},{"NoteNumber":69,"Velocity":68,"Duration":322580,"SoundDuration":322580,"Delta":137573595},{"NoteNumber":81,"Velocity":67,"Duration":107526,"SoundDuration":107526,"Delta":137681122},{"NoteNumber":86,"Velocity":80,"Duration":107526,"SoundDuration":107526,"Delta":137788648},{"NoteNumber":98,"Velocity":95,"Duration":322580,"SoundDuration":322580,"Delta":137896175},{"NoteNumber":74,"Velocity":68,"Duration":322580,"SoundDuration":322580,"Delta":137896175},{"NoteNumber":62,"Velocity":56,"Duration":322580,"SoundDuration":322580,"Delta":137896175},{"NoteNumber":65,"Velocity":56,"Duration":322580,"SoundDuration":322580,"Delta":137896175},{"NoteNumber":69,"Velocity":56,"Duration":322580,"SoundDuration":322580,"Delta":137896175},{"NoteNumber":77,"Velocity":74,"Duration":99840,"SoundDuration":99840,"Delta":138326283},{"NoteNumber":81,"Velocity":74,"Duration":99840,"SoundDuration":99840,"Delta":138426123},{"NoteNumber":82,"Velocity":82,"Duration":101926,"SoundDuration":101926,"Delta":138525963},{"NoteNumber":77,"Velocity":76,"Duration":101926,"SoundDuration":101926,"Delta":138627890},{"NoteNumber":86,"Velocity":72,"Duration":122309,"SoundDuration":122309,"Delta":138729816},{"NoteNumber":89,"Velocity":87,"Duration":106010,"SoundDuration":106010,"Delta":138852125},{"NoteNumber":62,"Velocity":51,"Duration":627023,"SoundDuration":627023,"Delta":138852125},{"NoteNumber":69,"Velocity":73,"Duration":318032,"SoundDuration":318032,"Delta":138852125},{"NoteNumber":77,"Velocity":81,"Duration":106010,"SoundDuration":106010,"Delta":138958136},{"NoteNumber":81,"Velocity":84,"Duration":106010,"SoundDuration":106010,"Delta":139064147},{"NoteNumber":82,"Velocity":93,"Duration":102997,"SoundDuration":102997,"Delta":139170158},{"NoteNumber":70,"Velocity":80,"Duration":308991,"SoundDuration":308991,"Delta":139170158},{"NoteNumber":76,"Velocity":81,"Duration":102997,"SoundDuration":102997,"Delta":139273155},{"NoteNumber":80,"Velocity":74,"Duration":102997,"SoundDuration":102997,"Delta":139376152},{"NoteNumber":81,"Velocity":82,"Duration":102997,"SoundDuration":102997,"Delta":139479149},{"NoteNumber":60,"Velocity":56,"Duration":308991,"SoundDuration":308991,"Delta":139479149},{"NoteNumber":69,"Velocity":73,"Duration":308991,"SoundDuration":308991,"Delta":139479149},{"NoteNumber":77,"Velocity":71,"Duration":102997,"SoundDuration":102997,"Delta":139582146},{"NoteNumber":81,"Velocity":66,"Duration":102997,"SoundDuration":102997,"Delta":139685143},{"NoteNumber":82,"Velocity":82,"Duration":101926,"SoundDuration":101926,"Delta":139788141},{"NoteNumber":77,"Velocity":76,"Duration":101926,"SoundDuration":101926,"Delta":139890067},{"NoteNumber":86,"Velocity":72,"Duration":122309,"SoundDuration":122309,"Delta":139991993},{"NoteNumber":89,"Velocity":87,"Duration":106010,"SoundDuration":106010,"Delta":140114302},{"NoteNumber":62,"Velocity":49,"Duration":627023,"SoundDuration":627023,"Delta":140114302},{"NoteNumber":69,"Velocity":73,"Duration":318032,"SoundDuration":318032,"Delta":140114302},{"NoteNumber":77,"Velocity":81,"Duration":106010,"SoundDuration":106010,"Delta":140220313},{"NoteNumber":81,"Velocity":84,"Duration":106010,"SoundDuration":106010,"Delta":140326324},{"NoteNumber":82,"Velocity":93,"Duration":102997,"SoundDuration":102997,"Delta":140432335},{"NoteNumber":70,"Velocity":80,"Duration":308991,"SoundDuration":308991,"Delta":140432335},{"NoteNumber":76,"Velocity":81,"Duration":102997,"SoundDuration":102997,"Delta":140535332},{"NoteNumber":80,"Velocity":74,"Duration":102997,"SoundDuration":102997,"Delta":140638329},{"NoteNumber":81,"Velocity":82,"Duration":102997,"SoundDuration":102997,"Delta":140741326},{"NoteNumber":60,"Velocity":55,"Duration":308991,"SoundDuration":308991,"Delta":140741326},{"NoteNumber":69,"Velocity":73,"Duration":635153,"SoundDuration":635153,"Delta":140741326},{"NoteNumber":76,"Velocity":71,"Duration":102997,"SoundDuration":102997,"Delta":140844324},{"NoteNumber":81,"Velocity":66,"Duration":102997,"SoundDuration":102997,"Delta":140947321},{"NoteNumber":86,"Velocity":82,"Duration":101926,"SoundDuration":101926,"Delta":141050318},{"NoteNumber":58,"Velocity":59,"Duration":626281,"SoundDuration":626281,"Delta":141050318},{"NoteNumber":74,"Velocity":71,"Duration":101926,"SoundDuration":101926,"Delta":141152244},{"NoteNumber":79,"Velocity":66,"Duration":122309,"SoundDuration":122309,"Delta":141254171},{"NoteNumber":81,"Velocity":80,"Duration":100040,"SoundDuration":100040,"Delta":141376480},{"NoteNumber":67,"Velocity":76,"Duration":611937,"SoundDuration":611937,"Delta":141376480},{"NoteNumber":74,"Velocity":72,"Duration":100040,"SoundDuration":100040,"Delta":141476520},{"NoteNumber":79,"Velocity":71,"Duration":100039,"SoundDuration":100039,"Delta":141576560},{"NoteNumber":84,"Velocity":77,"Duration":103939,"SoundDuration":103939,"Delta":141676600},{"NoteNumber":57,"Velocity":60,"Duration":623636,"SoundDuration":623636,"Delta":141676600},{"NoteNumber":72,"Velocity":67,"Duration":103939,"SoundDuration":103939,"Delta":141780539},{"NoteNumber":77,"Velocity":63,"Duration":103939,"SoundDuration":103939,"Delta":141884478},{"NoteNumber":79,"Velocity":73,"Duration":103939,"SoundDuration":103939,"Delta":141988418},{"NoteNumber":65,"Velocity":76,"Duration":637979,"SoundDuration":637979,"Delta":141988418},{"NoteNumber":72,"Velocity":61,"Duration":103939,"SoundDuration":103939,"Delta":142092357},{"NoteNumber":77,"Velocity":61,"Duration":103939,"SoundDuration":103939,"Delta":142196296},{"NoteNumber":82,"Velocity":72,"Duration":101926,"SoundDuration":101926,"Delta":142300236},{"NoteNumber":55,"Velocity":59,"Duration":627699,"SoundDuration":627699,"Delta":142300236},{"NoteNumber":70,"Velocity":66,"Duration":101926,"SoundDuration":101926,"Delta":142402162},{"NoteNumber":76,"Velocity":59,"Duration":122309,"SoundDuration":122309,"Delta":142504088},{"NoteNumber":77,"Velocity":69,"Duration":100512,"SoundDuration":100512,"Delta":142626398},{"NoteNumber":64,"Velocity":71,"Duration":614886,"SoundDuration":614886,"Delta":142626398},{"NoteNumber":70,"Velocity":60,"Duration":100512,"SoundDuration":100512,"Delta":142726910},{"NoteNumber":76,"Velocity":60,"Duration":100512,"SoundDuration":100512,"Delta":142827423},{"NoteNumber":81,"Velocity":68,"Duration":104449,"SoundDuration":104449,"Delta":142927936},{"NoteNumber":53,"Velocity":54,"Duration":626697,"SoundDuration":626697,"Delta":142927936},{"NoteNumber":69,"Velocity":59,"Duration":104449,"SoundDuration":104449,"Delta":143032385},{"NoteNumber":74,"Velocity":52,"Duration":104449,"SoundDuration":104449,"Delta":143136835},{"NoteNumber":76,"Velocity":65,"Duration":104449,"SoundDuration":104449,"Delta":143241284},{"NoteNumber":62,"Velocity":68,"Duration":313348,"SoundDuration":313348,"Delta":143241284},{"NoteNumber":69,"Velocity":54,"Duration":104449,"SoundDuration":104449,"Delta":143345734},{"NoteNumber":74,"Velocity":48,"Duration":104449,"SoundDuration":104449,"Delta":143450183},{"NoteNumber":75,"Velocity":73,"Duration":101926,"SoundDuration":101926,"Delta":143554633},{"NoteNumber":70,"Velocity":68,"Duration":101926,"SoundDuration":101926,"Delta":143656559},{"NoteNumber":79,"Velocity":65,"Duration":122309,"SoundDuration":122309,"Delta":143758485},{"NoteNumber":82,"Velocity":77,"Duration":102933,"SoundDuration":102933,"Delta":143880794},{"NoteNumber":55,"Velocity":55,"Duration":308800,"SoundDuration":308800,"Delta":143880794},{"NoteNumber":58,"Velocity":55,"Duration":308800,"SoundDuration":308800,"Delta":143880794},{"NoteNumber":63,"Velocity":66,"Duration":308800,"SoundDuration":308800,"Delta":143880794},{"NoteNumber":70,"Velocity":72,"Duration":102933,"SoundDuration":102933,"Delta":143983728},{"NoteNumber":74,"Velocity":76,"Duration":102933,"SoundDuration":102933,"Delta":144086662},{"NoteNumber":79,"Velocity":83,"Duration":97323,"SoundDuration":97323,"Delta":144189595},{"NoteNumber":56,"Velocity":49,"Duration":291970,"SoundDuration":291970,"Delta":144189595},{"NoteNumber":67,"Velocity":71,"Duration":291970,"SoundDuration":291970,"Delta":144189595},{"NoteNumber":58,"Velocity":49,"Duration":291970,"SoundDuration":291970,"Delta":144189595},{"NoteNumber":62,"Velocity":59,"Duration":291970,"SoundDuration":291970,"Delta":144189595},{"NoteNumber":70,"Velocity":72,"Duration":97323,"SoundDuration":97323,"Delta":144286919},{"NoteNumber":74,"Velocity":67,"Duration":97323,"SoundDuration":97323,"Delta":144384243},{"NoteNumber":75,"Velocity":73,"Duration":101978,"SoundDuration":101978,"Delta":144481566},{"NoteNumber":63,"Velocity":66,"Duration":305935,"SoundDuration":305935,"Delta":144481566},{"NoteNumber":55,"Velocity":55,"Duration":305935,"SoundDuration":305935,"Delta":144481566},{"NoteNumber":58,"Velocity":55,"Duration":305935,"SoundDuration":305935,"Delta":144481566},{"NoteNumber":70,"Velocity":63,"Duration":101978,"SoundDuration":101978,"Delta":144583545},{"NoteNumber":74,"Velocity":57,"Duration":101978,"SoundDuration":101978,"Delta":144685523},{"NoteNumber":75,"Velocity":73,"Duration":101926,"SoundDuration":101926,"Delta":144787501},{"NoteNumber":70,"Velocity":68,"Duration":101926,"SoundDuration":101926,"Delta":144889428},{"NoteNumber":79,"Velocity":65,"Duration":122309,"SoundDuration":122309,"Delta":144991354},{"NoteNumber":82,"Velocity":77,"Duration":102933,"SoundDuration":102933,"Delta":145113663},{"NoteNumber":58,"Velocity":55,"Duration":304026,"SoundDuration":304026,"Delta":145113663},{"NoteNumber":63,"Velocity":66,"Duration":304026,"SoundDuration":304026,"Delta":145113663},{"NoteNumber":55,"Velocity":55,"Duration":304026,"SoundDuration":304026,"Delta":145113663},{"NoteNumber":70,"Velocity":72,"Duration":99621,"SoundDuration":99621,"Delta":145216597},{"NoteNumber":74,"Velocity":69,"Duration":101471,"SoundDuration":101471,"Delta":145316218},{"NoteNumber":79,"Velocity":83,"Duration":103455,"SoundDuration":103455,"Delta":145417689},{"NoteNumber":58,"Velocity":49,"Duration":308402,"SoundDuration":308402,"Delta":145417689},{"NoteNumber":56,"Velocity":49,"Duration":308402,"SoundDuration":308402,"Delta":145417689},{"NoteNumber":67,"Velocity":71,"Duration":308402,"SoundDuration":308402,"Delta":145417689},{"NoteNumber":62,"Velocity":59,"Duration":308402,"SoundDuration":308402,"Delta":145417689},{"NoteNumber":70,"Velocity":72,"Duration":103455,"SoundDuration":103455,"Delta":145521145},{"NoteNumber":74,"Velocity":67,"Duration":101492,"SoundDuration":101492,"Delta":145624600},{"NoteNumber":75,"Velocity":73,"Duration":101491,"SoundDuration":101491,"Delta":145726092},{"NoteNumber":58,"Velocity":55,"Duration":304475,"SoundDuration":304475,"Delta":145726092},{"NoteNumber":55,"Velocity":55,"Duration":304475,"SoundDuration":304475,"Delta":145726092},{"NoteNumber":63,"Velocity":66,"Duration":304475,"SoundDuration":304475,"Delta":145726092},{"NoteNumber":71,"Velocity":63,"Duration":101492,"SoundDuration":101492,"Delta":145827584},{"NoteNumber":75,"Velocity":57,"Duration":101492,"SoundDuration":101492,"Delta":145929076},{"NoteNumber":78,"Velocity":76,"Duration":97723,"SoundDuration":97723,"Delta":146030568},{"NoteNumber":54,"Velocity":57,"Duration":146584,"SoundDuration":146584,"Delta":146030568},{"NoteNumber":66,"Velocity":71,"Duration":146584,"SoundDuration":146584,"Delta":146030568},{"NoteNumber":66,"Velocity":63,"Duration":97723,"SoundDuration":97723,"Delta":146128291},{"NoteNumber":71,"Velocity":69,"Duration":97723,"SoundDuration":97723,"Delta":146226014},{"NoteNumber":75,"Velocity":76,"Duration":103551,"SoundDuration":103551,"Delta":146323737},{"NoteNumber":51,"Velocity":66,"Duration":623123,"SoundDuration":623123,"Delta":146323737},{"NoteNumber":63,"Velocity":66,"Duration":103551,"SoundDuration":103551,"Delta":146427289},{"NoteNumber":66,"Velocity":66,"Duration":103747,"SoundDuration":103747,"Delta":146530841},{"NoteNumber":71,"Velocity":73,"Duration":104090,"SoundDuration":104090,"Delta":146634588},{"NoteNumber":61,"Velocity":65,"Duration":104090,"SoundDuration":104090,"Delta":146738679},{"NoteNumber":67,"Velocity":61,"Duration":104090,"SoundDuration":104090,"Delta":146842770},{"NoteNumber":70,"Velocity":69,"Duration":104090,"SoundDuration":104090,"Delta":146946860},{"NoteNumber":52,"Velocity":59,"Duration":311637,"SoundDuration":311637,"Delta":146946860},{"NoteNumber":60,"Velocity":59,"Duration":104090,"SoundDuration":104090,"Delta":147050951},{"NoteNumber":63,"Velocity":54,"Duration":103455,"SoundDuration":103455,"Delta":147155042},{"NoteNumber":69,"Velocity":67,"Duration":96888,"SoundDuration":96888,"Delta":147258498},{"NoteNumber":54,"Velocity":59,"Duration":292158,"SoundDuration":292158,"Delta":147258498},{"NoteNumber":58,"Velocity":57,"Duration":97348,"SoundDuration":97348,"Delta":147355387},{"NoteNumber":62,"Velocity":54,"Duration":97920,"SoundDuration":97920,"Delta":147452736},{"NoteNumber":67,"Velocity":74,"Duration":98395,"SoundDuration":98395,"Delta":147550656},{"NoteNumber":55,"Velocity":65,"Duration":296857,"SoundDuration":296857,"Delta":147550656},{"NoteNumber":59,"Velocity":57,"Duration":98971,"SoundDuration":98971,"Delta":147649052},{"NoteNumber":62,"Velocity":53,"Duration":99490,"SoundDuration":99490,"Delta":147748024},{"NoteNumber":65,"Velocity":76,"Duration":100269,"SoundDuration":100269,"Delta":147847514},{"NoteNumber":56,"Velocity":70,"Duration":301271,"SoundDuration":301271,"Delta":147847514},{"NoteNumber":57,"Velocity":62,"Duration":100311,"SoundDuration":100311,"Delta":147947783},{"NoteNumber":61,"Velocity":57,"Duration":100690,"SoundDuration":100690,"Delta":148048095},{"NoteNumber":64,"Velocity":76,"Duration":101193,"SoundDuration":101193,"Delta":148148785},{"NoteNumber":57,"Velocity":74,"Duration":191432,"SoundDuration":191432,"Delta":148148785},{"NoteNumber":55,"Velocity":61,"Duration":103904,"SoundDuration":103904,"Delta":148249979},{"NoteNumber":57,"Velocity":61,"Duration":109547,"SoundDuration":109547,"Delta":148353884},{"NoteNumber":58,"Velocity":77,"Duration":111197,"SoundDuration":111197,"Delta":148463432},{"NoteNumber":52,"Velocity":57,"Duration":106929,"SoundDuration":106929,"Delta":148574629},{"NoteNumber":61,"Velocity":57,"Duration":106928,"SoundDuration":106928,"Delta":148681558},{"NoteNumber":64,"Velocity":63,"Duration":106929,"SoundDuration":106929,"Delta":148788487},{"NoteNumber":33,"Velocity":50,"Duration":120295,"SoundDuration":120295,"Delta":148788487},{"NoteNumber":45,"Velocity":60,"Duration":120295,"SoundDuration":120295,"Delta":148788487},{"NoteNumber":55,"Velocity":47,"Duration":106929,"SoundDuration":106929,"Delta":148895416},{"NoteNumber":57,"Velocity":47,"Duration":106929,"SoundDuration":106929,"Delta":149002345},{"NoteNumber":58,"Velocity":63,"Duration":111197,"SoundDuration":111197,"Delta":149109274},{"NoteNumber":53,"Velocity":48,"Duration":105218,"SoundDuration":105218,"Delta":149220472},{"NoteNumber":62,"Velocity":48,"Duration":105218,"SoundDuration":105218,"Delta":149325691},{"NoteNumber":65,"Velocity":62,"Duration":105218,"SoundDuration":105218,"Delta":149430910},{"NoteNumber":38,"Velocity":50,"Duration":118371,"SoundDuration":118371,"Delta":149430910},{"NoteNumber":50,"Velocity":60,"Duration":118371,"SoundDuration":118371,"Delta":149430910},{"NoteNumber":57,"Velocity":47,"Duration":105218,"SoundDuration":105218,"Delta":149536128},{"NoteNumber":60,"Velocity":47,"Duration":105218,"SoundDuration":105218,"Delta":149641347},{"NoteNumber":61,"Velocity":62,"Duration":111819,"SoundDuration":111819,"Delta":149746566},{"NoteNumber":55,"Velocity":47,"Duration":100532,"SoundDuration":100532,"Delta":149858385},{"NoteNumber":64,"Velocity":47,"Duration":100532,"SoundDuration":100532,"Delta":149958918},{"NoteNumber":67,"Velocity":62,"Duration":100532,"SoundDuration":100532,"Delta":150059451},{"NoteNumber":40,"Velocity":50,"Duration":113099,"SoundDuration":113099,"Delta":150059451},{"NoteNumber":52,"Velocity":60,"Duration":113099,"SoundDuration":113099,"Delta":150059451},{"NoteNumber":58,"Velocity":47,"Duration":100532,"SoundDuration":100532,"Delta":150159984},{"NoteNumber":62,"Velocity":47,"Duration":100532,"SoundDuration":100532,"Delta":150260517},{"NoteNumber":63,"Velocity":62,"Duration":106360,"SoundDuration":106360,"Delta":150361050},{"NoteNumber":57,"Velocity":46,"Duration":96441,"SoundDuration":96441,"Delta":150467410},{"NoteNumber":69,"Velocity":47,"Duration":96441,"SoundDuration":96441,"Delta":150563851},{"NoteNumber":72,"Velocity":62,"Duration":96441,"SoundDuration":96441,"Delta":150660293},{"NoteNumber":42,"Velocity":51,"Duration":108496,"SoundDuration":108496,"Delta":150660293},{"NoteNumber":54,"Velocity":61,"Duration":108496,"SoundDuration":108496,"Delta":150660293},{"NoteNumber":60,"Velocity":48,"Duration":96441,"SoundDuration":96441,"Delta":150756734},{"NoteNumber":62,"Velocity":49,"Duration":96441,"SoundDuration":96441,"Delta":150853175},{"NoteNumber":63,"Velocity":65,"Duration":103551,"SoundDuration":103551,"Delta":150949617},{"NoteNumber":58,"Velocity":49,"Duration":94723,"SoundDuration":94723,"Delta":151053168},{"NoteNumber":67,"Velocity":49,"Duration":94723,"SoundDuration":94723,"Delta":151147892},{"NoteNumber":70,"Velocity":65,"Duration":94723,"SoundDuration":94723,"Delta":151242616},{"NoteNumber":55,"Velocity":63,"Duration":106564,"SoundDuration":106564,"Delta":151242616},{"NoteNumber":43,"Velocity":53,"Duration":106564,"SoundDuration":106564,"Delta":151242616},{"NoteNumber":62,"Velocity":50,"Duration":94723,"SoundDuration":94723,"Delta":151337340},{"NoteNumber":64,"Velocity":50,"Duration":94723,"SoundDuration":94723,"Delta":151432064},{"NoteNumber":65,"Velocity":67,"Duration":101399,"SoundDuration":101399,"Delta":151526788},{"NoteNumber":59,"Velocity":51,"Duration":95147,"SoundDuration":95147,"Delta":151628187},{"NoteNumber":71,"Velocity":51,"Duration":95147,"SoundDuration":95147,"Delta":151723334},{"NoteNumber":74,"Velocity":67,"Duration":95147,"SoundDuration":95147,"Delta":151818482},{"NoteNumber":56,"Velocity":65,"Duration":107040,"SoundDuration":107040,"Delta":151818482},{"NoteNumber":44,"Velocity":54,"Duration":107040,"SoundDuration":107040,"Delta":151818482},{"NoteNumber":65,"Velocity":52,"Duration":95147,"SoundDuration":95147,"Delta":151913629},{"NoteNumber":67,"Velocity":52,"Duration":95147,"SoundDuration":95147,"Delta":152008777},{"NoteNumber":68,"Velocity":69,"Duration":105218,"SoundDuration":105218,"Delta":152103924},{"NoteNumber":62,"Velocity":52,"Duration":107297,"SoundDuration":107297,"Delta":152209143},{"NoteNumber":74,"Velocity":56,"Duration":109938,"SoundDuration":109938,"Delta":152316441},{"NoteNumber":77,"Velocity":71,"Duration":101926,"SoundDuration":101926,"Delta":152426380},{"NoteNumber":57,"Velocity":72,"Duration":873574,"SoundDuration":873574,"Delta":152426380},{"NoteNumber":45,"Velocity":60,"Duration":873574,"SoundDuration":873574,"Delta":152426380},{"NoteNumber":65,"Velocity":57,"Duration":98833,"SoundDuration":98833,"Delta":152528306},{"NoteNumber":68,"Velocity":59,"Duration":98833,"SoundDuration":98833,"Delta":152627140},{"NoteNumber":69,"Velocity":76,"Duration":94723,"SoundDuration":94723,"Delta":152725974},{"NoteNumber":64,"Velocity":63,"Duration":94723,"SoundDuration":94723,"Delta":152820697},{"NoteNumber":73,"Velocity":63,"Duration":94723,"SoundDuration":94723,"Delta":152915421},{"NoteNumber":76,"Velocity":77,"Duration":94723,"SoundDuration":94723,"Delta":153010145},{"NoteNumber":61,"Velocity":82,"Duration":289808,"SoundDuration":289808,"Delta":153010145},{"NoteNumber":67,"Velocity":66,"Duration":94723,"SoundDuration":94723,"Delta":153104869},{"NoteNumber":69,"Velocity":67,"Duration":100361,"SoundDuration":100361,"Delta":153199593},{"NoteNumber":45,"Velocity":49,"Duration":115156,"SoundDuration":115156,"Delta":153224683},{"NoteNumber":70,"Velocity":81,"Duration":106360,"SoundDuration":106360,"Delta":153299954},{"NoteNumber":57,"Velocity":73,"Duration":597422,"SoundDuration":597422,"Delta":153299954},{"NoteNumber":64,"Velocity":63,"Duration":98212,"SoundDuration":98212,"Delta":153406314},{"NoteNumber":73,"Velocity":59,"Duration":98212,"SoundDuration":98212,"Delta":153504527},{"NoteNumber":76,"Velocity":72,"Duration":98212,"SoundDuration":98212,"Delta":153602739},{"NoteNumber":61,"Velocity":62,"Duration":294637,"SoundDuration":294637,"Delta":153602739},{"NoteNumber":67,"Velocity":52,"Duration":98212,"SoundDuration":98212,"Delta":153700952},{"NoteNumber":69,"Velocity":52,"Duration":98212,"SoundDuration":98212,"Delta":153799164},{"NoteNumber":50,"Velocity":51,"Duration":113116,"SoundDuration":113116,"Delta":153823718},{"NoteNumber":70,"Velocity":73,"Duration":105218,"SoundDuration":105218,"Delta":153897377},{"NoteNumber":62,"Velocity":81,"Duration":589349,"SoundDuration":589349,"Delta":153897377},{"NoteNumber":65,"Velocity":55,"Duration":99344,"SoundDuration":99344,"Delta":154002596},{"NoteNumber":74,"Velocity":55,"Duration":99344,"SoundDuration":99344,"Delta":154101940},{"NoteNumber":77,"Velocity":70,"Duration":95147,"SoundDuration":95147,"Delta":154201284},{"NoteNumber":65,"Velocity":62,"Duration":285442,"SoundDuration":285442,"Delta":154201284},{"NoteNumber":69,"Velocity":54,"Duration":95147,"SoundDuration":95147,"Delta":154296432},{"NoteNumber":72,"Velocity":55,"Duration":95147,"SoundDuration":95147,"Delta":154391579},{"NoteNumber":52,"Velocity":49,"Duration":111458,"SoundDuration":111458,"Delta":154415366},{"NoteNumber":73,"Velocity":74,"Duration":106929,"SoundDuration":106929,"Delta":154486727},{"NoteNumber":64,"Velocity":76,"Duration":593920,"SoundDuration":593920,"Delta":154486727},{"NoteNumber":67,"Velocity":54,"Duration":98833,"SoundDuration":98833,"Delta":154593656},{"NoteNumber":76,"Velocity":55,"Duration":98833,"SoundDuration":98833,"Delta":154692490},{"NoteNumber":79,"Velocity":72,"Duration":96441,"SoundDuration":96441,"Delta":154791324},{"NoteNumber":67,"Velocity":67,"Duration":289323,"SoundDuration":289323,"Delta":154791324},{"NoteNumber":70,"Velocity":54,"Duration":96441,"SoundDuration":96441,"Delta":154887765},{"NoteNumber":74,"Velocity":54,"Duration":96441,"SoundDuration":96441,"Delta":154984206},{"NoteNumber":54,"Velocity":52,"Duration":112653,"SoundDuration":112653,"Delta":155008317},{"NoteNumber":75,"Velocity":73,"Duration":107526,"SoundDuration":107526,"Delta":155080648},{"NoteNumber":66,"Velocity":81,"Duration":596306,"SoundDuration":596306,"Delta":155080648},{"NoteNumber":69,"Velocity":52,"Duration":98347,"SoundDuration":98347,"Delta":155188174},{"NoteNumber":81,"Velocity":54,"Duration":98347,"SoundDuration":98347,"Delta":155286522},{"NoteNumber":84,"Velocity":71,"Duration":97361,"SoundDuration":97361,"Delta":155384870},{"NoteNumber":69,"Velocity":67,"Duration":292084,"SoundDuration":292084,"Delta":155384870},{"NoteNumber":72,"Velocity":52,"Duration":97361,"SoundDuration":97361,"Delta":155482232},{"NoteNumber":74,"Velocity":55,"Duration":97361,"SoundDuration":97361,"Delta":155579593},{"NoteNumber":55,"Velocity":55,"Duration":113119,"SoundDuration":113119,"Delta":155603933},{"NoteNumber":75,"Velocity":72,"Duration":106929,"SoundDuration":106929,"Delta":155676955},{"NoteNumber":67,"Velocity":84,"Duration":606130,"SoundDuration":606130,"Delta":155676955},{"NoteNumber":70,"Velocity":57,"Duration":99840,"SoundDuration":99840,"Delta":155783884},{"NoteNumber":79,"Velocity":57,"Duration":99840,"SoundDuration":99840,"Delta":155883724},{"NoteNumber":82,"Velocity":74,"Duration":99840,"SoundDuration":99840,"Delta":155983564},{"NoteNumber":70,"Velocity":68,"Duration":299520,"SoundDuration":299520,"Delta":155983564},{"NoteNumber":74,"Velocity":57,"Duration":99840,"SoundDuration":99840,"Delta":156083405},{"NoteNumber":76,"Velocity":57,"Duration":99840,"SoundDuration":99840,"Delta":156183245},{"NoteNumber":56,"Velocity":57,"Duration":114546,"SoundDuration":114546,"Delta":156208205},{"NoteNumber":77,"Velocity":79,"Duration":105775,"SoundDuration":105775,"Delta":156283085},{"NoteNumber":68,"Velocity":87,"Duration":620225,"SoundDuration":620225,"Delta":156283085},{"NoteNumber":71,"Velocity":57,"Duration":102461,"SoundDuration":102461,"Delta":156388861},{"NoteNumber":86,"Velocity":57,"Duration":102997,"SoundDuration":102997,"Delta":156491322},{"NoteNumber":89,"Velocity":79,"Duration":102997,"SoundDuration":102997,"Delta":156594319},{"NoteNumber":71,"Velocity":68,"Duration":308991,"SoundDuration":308991,"Delta":156594319},{"NoteNumber":77,"Velocity":61,"Duration":102997,"SoundDuration":102997,"Delta":156697317},{"NoteNumber":83,"Velocity":61,"Duration":102997,"SoundDuration":102997,"Delta":156800314},{"NoteNumber":85,"Velocity":82,"Duration":106929,"SoundDuration":106929,"Delta":156903311},{"NoteNumber":57,"Velocity":63,"Duration":337317,"SoundDuration":337317,"Delta":156903311},{"NoteNumber":69,"Velocity":76,"Duration":337317,"SoundDuration":337317,"Delta":156903311},{"NoteNumber":76,"Velocity":62,"Duration":115194,"SoundDuration":115194,"Delta":157010240},{"NoteNumber":88,"Velocity":65,"Duration":115194,"SoundDuration":115194,"Delta":157125434},{"NoteNumber":93,"Velocity":82,"Duration":123900,"SoundDuration":123900,"Delta":157240628},{"NoteNumber":67,"Velocity":63,"Duration":371701,"SoundDuration":371701,"Delta":157240628},{"NoteNumber":73,"Velocity":76,"Duration":371701,"SoundDuration":371701,"Delta":157240628},{"NoteNumber":69,"Velocity":63,"Duration":371701,"SoundDuration":371701,"Delta":157240628},{"NoteNumber":64,"Velocity":63,"Duration":371701,"SoundDuration":371701,"Delta":157240628},{"NoteNumber":81,"Velocity":67,"Duration":123900,"SoundDuration":123900,"Delta":157364529},{"NoteNumber":86,"Velocity":80,"Duration":123900,"SoundDuration":123900,"Delta":157488429},{"NoteNumber":98,"Velocity":95,"Duration":357057,"SoundDuration":357057,"Delta":157612329},{"NoteNumber":69,"Velocity":63,"Duration":357057,"SoundDuration":357057,"Delta":157612329},{"NoteNumber":65,"Velocity":63,"Duration":357057,"SoundDuration":357057,"Delta":157612329},{"NoteNumber":74,"Velocity":76,"Duration":357057,"SoundDuration":357057,"Delta":157612329},{"NoteNumber":62,"Velocity":63,"Duration":357057,"SoundDuration":357057,"Delta":157612329}]}