{"title":"Grand Valse Brillante in Es-Dur Opus 18","artist":"Piano","durationMs":309132,"midiSha256":"38807a7b08a0823d127bb99c10ae591b567989c27cdd6807813c50f9e1a0a8d9","midiObject":[{"NoteNumber":70,"Velocity":80,"Duration":576727,"SoundDuration":576727,"Delta":0},{"NoteNumber":70,"Velocity":74,"Duration":71076,"SoundDuration":71076,"Delta":576727},{"NoteNumber":70,"Velocity":70,"Duration":71076,"SoundDuration":71076,"Delta":718880},{"NoteNumber":70,"Velocity":79,"Duration":568612,"SoundDuration":568612,"Delta":861033},{"NoteNumber":70,"Velocity":75,"Duration":67134,"SoundDuration":67134,"Delta":1429646},{"NoteNumber":70,"Velocity":69,"Duration":67135,"SoundDuration":67135,"Delta":1563915},{"NoteNumber":70,"Velocity":78,"Duration":268540,"SoundDuration":268540,"Delta":1698186},{"NoteNumber":70,"Velocity":72,"Duration":67134,"SoundDuration":67134,"Delta":1966726},{"NoteNumber":70,"Velocity":67,"Duration":67134,"SoundDuration":67134,"Delta":2100996},{"NoteNumber":70,"Velocity":74,"Duration":268539,"SoundDuration":268539,"Delta":2235266},{"NoteNumber":70,"Velocity":69,"Duration":69767,"SoundDuration":69767,"Delta":2503806},{"NoteNumber":70,"Velocity":66,"Duration":69767,"SoundDuration":69767,"Delta":2643341},{"NoteNumber":70,"Velocity":73,"Duration":279069,"SoundDuration":279069,"Delta":2782876},{"NoteNumber":70,"Velocity":59,"Duration":69767,"SoundDuration":69767,"Delta":3061946},{"NoteNumber":70,"Velocity":59,"Duration":73138,"SoundDuration":73138,"Delta":3201481},{"NoteNumber":70,"Velocity":72,"Duration":272158,"SoundDuration":272158,"Delta":3347758},{"NoteNumber":46,"Velocity":40,"Duration":136079,"SoundDuration":136079,"Delta":3347758},{"NoteNumber":74,"Velocity":60,"Duration":138011,"SoundDuration":138011,"Delta":3619916},{"NoteNumber":68,"Velocity":47,"Duration":189771,"SoundDuration":189771,"Delta":3619916},{"NoteNumber":65,"Velocity":47,"Duration":189771,"SoundDuration":189771,"Delta":3619916},{"NoteNumber":58,"Velocity":47,"Duration":189771,"SoundDuration":189771,"Delta":3619916},{"NoteNumber":75,"Velocity":49,"Duration":135285,"SoundDuration":135285,"Delta":3747575},{"NoteNumber":74,"Velocity":57,"Duration":200632,"SoundDuration":200632,"Delta":3871799},{"NoteNumber":77,"Velocity":57,"Duration":200632,"SoundDuration":200632,"Delta":3871799},{"NoteNumber":68,"Velocity":51,"Duration":200632,"SoundDuration":200632,"Delta":3871799},{"NoteNumber":65,"Velocity":51,"Duration":200632,"SoundDuration":200632,"Delta":3871799},{"NoteNumber":58,"Velocity":51,"Duration":200632,"SoundDuration":200632,"Delta":3871799},{"NoteNumber":70,"Velocity":67,"Duration":132743,"SoundDuration":132743,"Delta":4140319},{"NoteNumber":51,"Velocity":40,"Duration":132743,"SoundDuration":132743,"Delta":4140319},{"NoteNumber":75,"Velocity":64,"Duration":137571,"SoundDuration":137571,"Delta":4405806},{"NoteNumber":67,"Velocity":46,"Duration":188488,"SoundDuration":188488,"Delta":4405806},{"NoteNumber":63,"Velocity":46,"Duration":188488,"SoundDuration":188488,"Delta":4405806},{"NoteNumber":58,"Velocity":46,"Duration":188488,"SoundDuration":188488,"Delta":4405806},{"NoteNumber":77,"Velocity":48,"Duration":133092,"SoundDuration":133092,"Delta":4533195},{"NoteNumber":75,"Velocity":56,"Duration":196078,"SoundDuration":196078,"Delta":4655394},{"NoteNumber":79,"Velocity":56,"Duration":196078,"SoundDuration":196078,"Delta":4655394},{"NoteNumber":67,"Velocity":50,"Duration":196078,"SoundDuration":196078,"Delta":4655394},{"NoteNumber":63,"Velocity":50,"Duration":196078,"SoundDuration":196078,"Delta":4655394},{"NoteNumber":58,"Velocity":50,"Duration":196078,"SoundDuration":196078,"Delta":4655394},{"NoteNumber":70,"Velocity":72,"Duration":129032,"SoundDuration":129032,"Delta":4916833},{"NoteNumber":50,"Velocity":44,"Duration":129032,"SoundDuration":129032,"Delta":4916833},{"NoteNumber":77,"Velocity":67,"Duration":137131,"SoundDuration":137131,"Delta":5174898},{"NoteNumber":68,"Velocity":54,"Duration":189873,"SoundDuration":189873,"Delta":5174898},{"NoteNumber":65,"Velocity":54,"Duration":189873,"SoundDuration":189873,"Delta":5174898},{"NoteNumber":58,"Velocity":54,"Duration":189873,"SoundDuration":189873,"Delta":5174898},{"NoteNumber":79,"Velocity":52,"Duration":137434,"SoundDuration":137434,"Delta":5301480},{"NoteNumber":77,"Velocity":75,"Duration":195338,"SoundDuration":195338,"Delta":5428063},{"NoteNumber":80,"Velocity":75,"Duration":195338,"SoundDuration":195338,"Delta":5428063},{"NoteNumber":68,"Velocity":59,"Duration":195338,"SoundDuration":195338,"Delta":5428063},{"NoteNumber":65,"Velocity":59,"Duration":195338,"SoundDuration":195338,"Delta":5428063},{"NoteNumber":58,"Velocity":59,"Duration":195338,"SoundDuration":195338,"Delta":5428063},{"NoteNumber":82,"Velocity":82,"Duration":508473,"SoundDuration":508473,"Delta":5688514},{"NoteNumber":79,"Velocity":82,"Duration":508473,"SoundDuration":508473,"Delta":5688514},{"NoteNumber":73,"Velocity":69,"Duration":508473,"SoundDuration":508473,"Delta":5688514},{"NoteNumber":51,"Velocity":69,"Duration":127118,"SoundDuration":127118,"Delta":5688514},{"NoteNumber":67,"Velocity":62,"Duration":127118,"SoundDuration":127118,"Delta":5942750},{"NoteNumber":61,"Velocity":62,"Duration":127118,"SoundDuration":127118,"Delta":5942750},{"NoteNumber":58,"Velocity":62,"Duration":127118,"SoundDuration":127118,"Delta":5942750},{"NoteNumber":82,"Velocity":68,"Duration":134873,"SoundDuration":134873,"Delta":6196987},{"NoteNumber":79,"Velocity":68,"Duration":134873,"SoundDuration":134873,"Delta":6196987},{"NoteNumber":73,"Velocity":57,"Duration":134873,"SoundDuration":134873,"Delta":6196987},{"NoteNumber":52,"Velocity":70,"Duration":269747,"SoundDuration":269747,"Delta":6196987},{"NoteNumber":82,"Velocity":58,"Duration":134873,"SoundDuration":134873,"Delta":6331861},{"NoteNumber":79,"Velocity":58,"Duration":134873,"SoundDuration":134873,"Delta":6331861},{"NoteNumber":73,"Velocity":49,"Duration":134873,"SoundDuration":134873,"Delta":6331861},{"NoteNumber":82,"Velocity":63,"Duration":263157,"SoundDuration":263157,"Delta":6466735},{"NoteNumber":73,"Velocity":63,"Duration":511465,"SoundDuration":511465,"Delta":6466735},{"NoteNumber":79,"Velocity":63,"Duration":522478,"SoundDuration":522478,"Delta":6466735},{"NoteNumber":53,"Velocity":36,"Duration":131579,"SoundDuration":131579,"Delta":6466735},{"NoteNumber":84,"Velocity":52,"Duration":136971,"SoundDuration":136971,"Delta":6729893},{"NoteNumber":65,"Velocity":33,"Duration":126850,"SoundDuration":126850,"Delta":6729893},{"NoteNumber":56,"Velocity":33,"Duration":126850,"SoundDuration":126850,"Delta":6729893},{"NoteNumber":82,"Velocity":48,"Duration":132470,"SoundDuration":132470,"Delta":6856743},{"NoteNumber":72,"Velocity":54,"Duration":132158,"SoundDuration":132158,"Delta":6978201},{"NoteNumber":80,"Velocity":54,"Duration":132158,"SoundDuration":132158,"Delta":6978201},{"NoteNumber":44,"Velocity":37,"Duration":132158,"SoundDuration":132158,"Delta":6978201},{"NoteNumber":80,"Velocity":67,"Duration":269683,"SoundDuration":269683,"Delta":7242518},{"NoteNumber":71,"Velocity":67,"Duration":507428,"SoundDuration":507428,"Delta":7242518},{"NoteNumber":46,"Velocity":58,"Duration":129589,"SoundDuration":129589,"Delta":7242518},{"NoteNumber":82,"Velocity":47,"Duration":136233,"SoundDuration":136233,"Delta":7501697},{"NoteNumber":63,"Velocity":31,"Duration":187150,"SoundDuration":187150,"Delta":7501697},{"NoteNumber":55,"Velocity":31,"Duration":187150,"SoundDuration":187150,"Delta":7501697},{"NoteNumber":80,"Velocity":44,"Duration":133169,"SoundDuration":133169,"Delta":7627747},{"NoteNumber":70,"Velocity":54,"Duration":131642,"SoundDuration":131642,"Delta":7749947},{"NoteNumber":79,"Velocity":54,"Duration":131642,"SoundDuration":131642,"Delta":7749947},{"NoteNumber":63,"Velocity":44,"Duration":131642,"SoundDuration":131642,"Delta":7749947},{"NoteNumber":55,"Velocity":44,"Duration":131642,"SoundDuration":131642,"Delta":7749947},{"NoteNumber":79,"Velocity":66,"Duration":266540,"SoundDuration":266540,"Delta":8013232},{"NoteNumber":70,"Velocity":66,"Duration":505149,"SoundDuration":505149,"Delta":8013232},{"NoteNumber":46,"Velocity":37,"Duration":128024,"SoundDuration":128024,"Delta":8013232},{"NoteNumber":80,"Velocity":59,"Duration":136163,"SoundDuration":136163,"Delta":8269281},{"NoteNumber":62,"Velocity":38,"Duration":187498,"SoundDuration":187498,"Delta":8269281},{"NoteNumber":53,"Velocity":38,"Duration":187498,"SoundDuration":187498,"Delta":8269281},{"NoteNumber":79,"Velocity":53,"Duration":134518,"SoundDuration":134518,"Delta":8395178},{"NoteNumber":68,"Velocity":59,"Duration":135777,"SoundDuration":135777,"Delta":8518382},{"NoteNumber":77,"Velocity":59,"Duration":135777,"SoundDuration":135777,"Delta":8518382},{"NoteNumber":62,"Velocity":45,"Duration":135777,"SoundDuration":135777,"Delta":8518382},{"NoteNumber":58,"Velocity":45,"Duration":135777,"SoundDuration":135777,"Delta":8518382},{"NoteNumber":77,"Velocity":64,"Duration":271188,"SoundDuration":271188,"Delta":8789937},{"NoteNumber":68,"Velocity":64,"Duration":518150,"SoundDuration":518150,"Delta":8789937},{"NoteNumber":51,"Velocity":28,"Duration":786690,"SoundDuration":786690,"Delta":8789937},{"NoteNumber":79,"Velocity":60,"Duration":139586,"SoundDuration":139586,"Delta":9050388},{"NoteNumber":63,"Velocity":35,"Duration":193274,"SoundDuration":193274,"Delta":9050388},{"NoteNumber":58,"Velocity":35,"Duration":193274,"SoundDuration":193274,"Delta":9050388},{"NoteNumber":77,"Velocity":49,"Duration":140038,"SoundDuration":140038,"Delta":9179237},{"NoteNumber":75,"Velocity":53,"Duration":134270,"SoundDuration":134270,"Delta":9308087},{"NoteNumber":67,"Velocity":53,"Duration":134270,"SoundDuration":134270,"Delta":9308087},{"NoteNumber":63,"Velocity":57,"Duration":134270,"SoundDuration":134270,"Delta":9308087},{"NoteNumber":58,"Velocity":57,"Duration":134270,"SoundDuration":134270,"Delta":9308087},{"NoteNumber":70,"Velocity":65,"Duration":136079,"SoundDuration":136079,"Delta":9576627},{"NoteNumber":46,"Velocity":61,"Duration":136079,"SoundDuration":136079,"Delta":9576627},{"NoteNumber":74,"Velocity":49,"Duration":138687,"SoundDuration":138687,"Delta":9848785},{"NoteNumber":68,"Velocity":32,"Duration":191098,"SoundDuration":191098,"Delta":9848785},{"NoteNumber":65,"Velocity":32,"Duration":191098,"SoundDuration":191098,"Delta":9848785},{"NoteNumber":58,"Velocity":32,"Duration":191098,"SoundDuration":191098,"Delta":9848785},{"NoteNumber":75,"Velocity":60,"Duration":136585,"SoundDuration":136585,"Delta":9976989},{"NoteNumber":74,"Velocity":63,"Duration":197478,"SoundDuration":197478,"Delta":10102775},{"NoteNumber":77,"Velocity":63,"Duration":197478,"SoundDuration":197478,"Delta":10102775},{"NoteNumber":68,"Velocity":32,"Duration":197478,"SoundDuration":197478,"Delta":10102775},{"NoteNumber":65,"Velocity":32,"Duration":197478,"SoundDuration":197478,"Delta":10102775},{"NoteNumber":58,"Velocity":32,"Duration":197478,"SoundDuration":197478,"Delta":10102775},{"NoteNumber":70,"Velocity":69,"Duration":131932,"SoundDuration":131932,"Delta":10368142},{"NoteNumber":51,"Velocity":43,"Duration":131932,"SoundDuration":131932,"Delta":10368142},{"NoteNumber":75,"Velocity":68,"Duration":136095,"SoundDuration":136095,"Delta":10631401},{"NoteNumber":67,"Velocity":37,"Duration":187641,"SoundDuration":187641,"Delta":10631401},{"NoteNumber":63,"Velocity":37,"Duration":187641,"SoundDuration":187641,"Delta":10631401},{"NoteNumber":58,"Velocity":37,"Duration":187641,"SoundDuration":187641,"Delta":10631401},{"NoteNumber":77,"Velocity":64,"Duration":134260,"SoundDuration":134260,"Delta":10757187},{"NoteNumber":75,"Velocity":73,"Duration":189873,"SoundDuration":189873,"Delta":10880898},{"NoteNumber":79,"Velocity":73,"Duration":189873,"SoundDuration":189873,"Delta":10880898},{"NoteNumber":67,"Velocity":48,"Duration":189873,"SoundDuration":189873,"Delta":10880898},{"NoteNumber":63,"Velocity":48,"Duration":189873,"SoundDuration":189873,"Delta":10880898},{"NoteNumber":58,"Velocity":48,"Duration":189873,"SoundDuration":189873,"Delta":10880898},{"NoteNumber":70,"Velocity":76,"Duration":127751,"SoundDuration":127751,"Delta":11134063},{"NoteNumber":50,"Velocity":60,"Duration":127751,"SoundDuration":127751,"Delta":11134063},{"NoteNumber":77,"Velocity":72,"Duration":135259,"SoundDuration":135259,"Delta":11389567},{"NoteNumber":68,"Velocity":62,"Duration":187281,"SoundDuration":187281,"Delta":11389567},{"NoteNumber":65,"Velocity":62,"Duration":187281,"SoundDuration":187281,"Delta":11389567},{"NoteNumber":58,"Velocity":62,"Duration":187281,"SoundDuration":187281,"Delta":11389567},{"NoteNumber":79,"Velocity":62,"Duration":135848,"SoundDuration":135848,"Delta":11514422},{"NoteNumber":77,"Velocity":75,"Duration":197898,"SoundDuration":197898,"Delta":11639276},{"NoteNumber":80,"Velocity":75,"Duration":197898,"SoundDuration":197898,"Delta":11639276},{"NoteNumber":68,"Velocity":66,"Duration":197898,"SoundDuration":197898,"Delta":11639276},{"NoteNumber":65,"Velocity":66,"Duration":197898,"SoundDuration":197898,"Delta":11639276},{"NoteNumber":58,"Velocity":66,"Duration":197898,"SoundDuration":197898,"Delta":11639276},{"NoteNumber":82,"Velocity":89,"Duration":380051,"SoundDuration":380051,"Delta":11903140},{"NoteNumber":79,"Velocity":89,"Duration":380051,"SoundDuration":380051,"Delta":11903140},{"NoteNumber":73,"Velocity":75,"Duration":380051,"SoundDuration":380051,"Delta":11903140},{"NoteNumber":51,"Velocity":61,"Duration":126683,"SoundDuration":126683,"Delta":11903140},{"NoteNumber":67,"Velocity":42,"Duration":126683,"SoundDuration":126683,"Delta":12156508},{"NoteNumber":61,"Velocity":42,"Duration":126683,"SoundDuration":126683,"Delta":12156508},{"NoteNumber":58,"Velocity":42,"Duration":126683,"SoundDuration":126683,"Delta":12156508},{"NoteNumber":79,"Velocity":74,"Duration":126684,"SoundDuration":126684,"Delta":12283192},{"NoteNumber":82,"Velocity":74,"Duration":126684,"SoundDuration":126684,"Delta":12283192},{"NoteNumber":73,"Velocity":80,"Duration":269747,"SoundDuration":269747,"Delta":12409876},{"NoteNumber":52,"Velocity":32,"Duration":269747,"SoundDuration":269747,"Delta":12409876},{"NoteNumber":82,"Velocity":73,"Duration":134873,"SoundDuration":134873,"Delta":12544750},{"NoteNumber":79,"Velocity":73,"Duration":134873,"SoundDuration":134873,"Delta":12544750},{"NoteNumber":73,"Velocity":64,"Duration":511063,"SoundDuration":511063,"Delta":12679624},{"NoteNumber":53,"Velocity":43,"Duration":129948,"SoundDuration":129948,"Delta":12679624},{"NoteNumber":82,"Velocity":72,"Duration":140506,"SoundDuration":140506,"Delta":12809573},{"NoteNumber":84,"Velocity":64,"Duration":137057,"SoundDuration":137057,"Delta":12939522},{"NoteNumber":65,"Velocity":49,"Duration":126683,"SoundDuration":126683,"Delta":12939522},{"NoteNumber":56,"Velocity":49,"Duration":126683,"SoundDuration":126683,"Delta":12939522},{"NoteNumber":82,"Velocity":58,"Duration":135381,"SoundDuration":135381,"Delta":13066206},{"NoteNumber":72,"Velocity":54,"Duration":130798,"SoundDuration":130798,"Delta":13190688},{"NoteNumber":80,"Velocity":54,"Duration":130798,"SoundDuration":130798,"Delta":13190688},{"NoteNumber":44,"Velocity":37,"Duration":130798,"SoundDuration":130798,"Delta":13190688},{"NoteNumber":71,"Velocity":65,"Duration":510985,"SoundDuration":510985,"Delta":13452285},{"NoteNumber":46,"Velocity":43,"Duration":129120,"SoundDuration":129120,"Delta":13452285},{"NoteNumber":80,"Velocity":69,"Duration":139722,"SoundDuration":139722,"Delta":13581406},{"NoteNumber":82,"Velocity":65,"Duration":137681,"SoundDuration":137681,"Delta":13710527},{"NoteNumber":63,"Velocity":31,"Duration":252743,"SoundDuration":252743,"Delta":13710527},{"NoteNumber":55,"Velocity":31,"Duration":252743,"SoundDuration":252743,"Delta":13710527},{"NoteNumber":80,"Velocity":63,"Duration":136565,"SoundDuration":136565,"Delta":13837748},{"NoteNumber":70,"Velocity":51,"Duration":132509,"SoundDuration":132509,"Delta":13963271},{"NoteNumber":79,"Velocity":51,"Duration":132509,"SoundDuration":132509,"Delta":13963271},{"NoteNumber":63,"Velocity":41,"Duration":132509,"SoundDuration":132509,"Delta":13963271},{"NoteNumber":55,"Velocity":41,"Duration":132509,"SoundDuration":132509,"Delta":13963271},{"NoteNumber":70,"Velocity":63,"Duration":555628,"SoundDuration":555628,"Delta":14228289},{"NoteNumber":46,"Velocity":33,"Duration":137318,"SoundDuration":137318,"Delta":14228289},{"NoteNumber":79,"Velocity":46,"Duration":149026,"SoundDuration":149026,"Delta":14365607},{"NoteNumber":80,"Velocity":58,"Duration":152203,"SoundDuration":152203,"Delta":14502926},{"NoteNumber":62,"Velocity":40,"Duration":280991,"SoundDuration":280991,"Delta":14502926},{"NoteNumber":53,"Velocity":40,"Duration":280991,"SoundDuration":280991,"Delta":14502926},{"NoteNumber":79,"Velocity":45,"Duration":152510,"SoundDuration":152510,"Delta":14643421},{"NoteNumber":68,"Velocity":50,"Duration":288363,"SoundDuration":288363,"Delta":14783917},{"NoteNumber":77,"Velocity":50,"Duration":288363,"SoundDuration":288363,"Delta":14783917},{"NoteNumber":62,"Velocity":27,"Duration":288363,"SoundDuration":288363,"Delta":14783917},{"NoteNumber":58,"Velocity":27,"Duration":567434,"SoundDuration":567434,"Delta":14783917},{"NoteNumber":67,"Velocity":59,"Duration":139535,"SoundDuration":139535,"Delta":15072281},{"NoteNumber":75,"Velocity":59,"Duration":139535,"SoundDuration":139535,"Delta":15072281},{"NoteNumber":51,"Velocity":44,"Duration":279070,"SoundDuration":279070,"Delta":15072281},{"NoteNumber":63,"Velocity":44,"Duration":279070,"SoundDuration":279070,"Delta":15072281},{"NoteNumber":70,"Velocity":57,"Duration":69767,"SoundDuration":69767,"Delta":15351351},{"NoteNumber":70,"Velocity":50,"Duration":69767,"SoundDuration":69767,"Delta":15490886},{"NoteNumber":70,"Velocity":56,"Duration":69767,"SoundDuration":69767,"Delta":15630421},{"NoteNumber":70,"Velocity":58,"Duration":73138,"SoundDuration":73138,"Delta":15769956},{"NoteNumber":70,"Velocity":78,"Duration":272158,"SoundDuration":272158,"Delta":15916233},{"NoteNumber":46,"Velocity":26,"Duration":136078,"SoundDuration":136078,"Delta":15916233},{"NoteNumber":74,"Velocity":65,"Duration":141312,"SoundDuration":141312,"Delta":16188391},{"NoteNumber":68,"Velocity":38,"Duration":194278,"SoundDuration":194278,"Delta":16188391},{"NoteNumber":65,"Velocity":38,"Duration":194278,"SoundDuration":194278,"Delta":16188391},{"NoteNumber":58,"Velocity":38,"Duration":194278,"SoundDuration":194278,"Delta":16188391},{"NoteNumber":75,"Velocity":57,"Duration":138180,"SoundDuration":138180,"Delta":16319110},{"NoteNumber":74,"Velocity":66,"Duration":200632,"SoundDuration":200632,"Delta":16446228},{"NoteNumber":77,"Velocity":66,"Duration":200632,"SoundDuration":200632,"Delta":16446228},{"NoteNumber":68,"Velocity":34,"Duration":200632,"SoundDuration":200632,"Delta":16446228},{"NoteNumber":65,"Velocity":34,"Duration":200632,"SoundDuration":200632,"Delta":16446228},{"NoteNumber":58,"Velocity":34,"Duration":200632,"SoundDuration":200632,"Delta":16446228},{"NoteNumber":70,"Velocity":69,"Duration":132743,"SoundDuration":132743,"Delta":16714749},{"NoteNumber":51,"Velocity":34,"Duration":132743,"SoundDuration":132743,"Delta":16714749},{"NoteNumber":75,"Velocity":66,"Duration":139281,"SoundDuration":139281,"Delta":16980236},{"NoteNumber":67,"Velocity":46,"Duration":191913,"SoundDuration":191913,"Delta":16980236},{"NoteNumber":63,"Velocity":46,"Duration":191913,"SoundDuration":191913,"Delta":16980236},{"NoteNumber":58,"Velocity":46,"Duration":191913,"SoundDuration":191913,"Delta":16980236},{"NoteNumber":77,"Velocity":56,"Duration":137209,"SoundDuration":137209,"Delta":17108992},{"NoteNumber":75,"Velocity":73,"Duration":196078,"SoundDuration":196078,"Delta":17235308},{"NoteNumber":79,"Velocity":73,"Duration":196078,"SoundDuration":196078,"Delta":17235308},{"NoteNumber":67,"Velocity":57,"Duration":196078,"SoundDuration":196078,"Delta":17235308},{"NoteNumber":63,"Velocity":57,"Duration":196078,"SoundDuration":196078,"Delta":17235308},{"NoteNumber":58,"Velocity":57,"Duration":196078,"SoundDuration":196078,"Delta":17235308},{"NoteNumber":70,"Velocity":77,"Duration":129032,"SoundDuration":129032,"Delta":17496746},{"NoteNumber":50,"Velocity":71,"Duration":129032,"SoundDuration":129032,"Delta":17496746},{"NoteNumber":77,"Velocity":75,"Duration":136849,"SoundDuration":136849,"Delta":17754811},{"NoteNumber":68,"Velocity":52,"Duration":188184,"SoundDuration":188184,"Delta":17754811},{"NoteNumber":65,"Velocity":52,"Duration":188184,"SoundDuration":188184,"Delta":17754811},{"NoteNumber":58,"Velocity":52,"Duration":188184,"SoundDuration":188184,"Delta":17754811},{"NoteNumber":79,"Velocity":58,"Duration":134055,"SoundDuration":134055,"Delta":17881393},{"NoteNumber":77,"Velocity":75,"Duration":195338,"SoundDuration":195338,"Delta":18004597},{"NoteNumber":80,"Velocity":75,"Duration":195338,"SoundDuration":195338,"Delta":18004597},{"NoteNumber":68,"Velocity":56,"Duration":195338,"SoundDuration":195338,"Delta":18004597},{"NoteNumber":65,"Velocity":56,"Duration":195338,"SoundDuration":195338,"Delta":18004597},{"NoteNumber":58,"Velocity":56,"Duration":195338,"SoundDuration":195338,"Delta":18004597},{"NoteNumber":82,"Velocity":85,"Duration":506736,"SoundDuration":506736,"Delta":18265048},{"NoteNumber":79,"Velocity":85,"Duration":506736,"SoundDuration":506736,"Delta":18265048},{"NoteNumber":73,"Velocity":72,"Duration":506736,"SoundDuration":506736,"Delta":18265048},{"NoteNumber":51,"Velocity":62,"Duration":126684,"SoundDuration":126684,"Delta":18265048},{"NoteNumber":67,"Velocity":56,"Duration":126684,"SoundDuration":126684,"Delta":18518416},{"NoteNumber":61,"Velocity":56,"Duration":126684,"SoundDuration":126684,"Delta":18518416},{"NoteNumber":58,"Velocity":56,"Duration":126684,"SoundDuration":126684,"Delta":18518416},{"NoteNumber":82,"Velocity":69,"Duration":134873,"SoundDuration":134873,"Delta":18771784},{"NoteNumber":79,"Velocity":69,"Duration":134873,"SoundDuration":134873,"Delta":18771784},{"NoteNumber":73,"Velocity":58,"Duration":134873,"SoundDuration":134873,"Delta":18771784},{"NoteNumber":52,"Velocity":37,"Duration":269747,"SoundDuration":269747,"Delta":18771784},{"NoteNumber":82,"Velocity":47,"Duration":134873,"SoundDuration":134873,"Delta":18906658},{"NoteNumber":79,"Velocity":47,"Duration":134873,"SoundDuration":134873,"Delta":18906658},{"NoteNumber":73,"Velocity":39,"Duration":134873,"SoundDuration":134873,"Delta":18906658},{"NoteNumber":82,"Velocity":65,"Duration":274306,"SoundDuration":274306,"Delta":19041532},{"NoteNumber":73,"Velocity":65,"Duration":514809,"SoundDuration":514809,"Delta":19041532},{"NoteNumber":79,"Velocity":65,"Duration":514809,"SoundDuration":514809,"Delta":19041532},{"NoteNumber":53,"Velocity":40,"Duration":131868,"SoundDuration":131868,"Delta":19041532},{"NoteNumber":84,"Velocity":53,"Duration":137201,"SoundDuration":137201,"Delta":19305268},{"NoteNumber":65,"Velocity":34,"Duration":126850,"SoundDuration":126850,"Delta":19305268},{"NoteNumber":56,"Velocity":34,"Duration":126850,"SoundDuration":126850,"Delta":19305268},{"NoteNumber":82,"Velocity":49,"Duration":135261,"SoundDuration":135261,"Delta":19432118},{"NoteNumber":72,"Velocity":51,"Duration":132450,"SoundDuration":132450,"Delta":19556341},{"NoteNumber":80,"Velocity":51,"Duration":132450,"SoundDuration":132450,"Delta":19556341},{"NoteNumber":44,"Velocity":38,"Duration":132450,"SoundDuration":132450,"Delta":19556341},{"NoteNumber":80,"Velocity":68,"Duration":269103,"SoundDuration":269103,"Delta":19821242},{"NoteNumber":71,"Velocity":68,"Duration":508118,"SoundDuration":508118,"Delta":19821242},{"NoteNumber":46,"Velocity":31,"Duration":129310,"SoundDuration":129310,"Delta":19821242},{"NoteNumber":82,"Velocity":47,"Duration":136095,"SoundDuration":136095,"Delta":20079863},{"NoteNumber":63,"Velocity":33,"Duration":249497,"SoundDuration":249497,"Delta":20079863},{"NoteNumber":55,"Velocity":33,"Duration":249497,"SoundDuration":249497,"Delta":20079863},{"NoteNumber":80,"Velocity":46,"Duration":134681,"SoundDuration":134681,"Delta":20205649},{"NoteNumber":70,"Velocity":53,"Duration":131642,"SoundDuration":131642,"Delta":20329361},{"NoteNumber":79,"Velocity":53,"Duration":131642,"SoundDuration":131642,"Delta":20329361},{"NoteNumber":63,"Velocity":43,"Duration":131642,"SoundDuration":131642,"Delta":20329361},{"NoteNumber":55,"Velocity":43,"Duration":131642,"SoundDuration":131642,"Delta":20329361},{"NoteNumber":79,"Velocity":68,"Duration":266540,"SoundDuration":266540,"Delta":20592646},{"NoteNumber":70,"Velocity":68,"Duration":505657,"SoundDuration":505657,"Delta":20592646},{"NoteNumber":46,"Velocity":50,"Duration":128024,"SoundDuration":128024,"Delta":20592646},{"NoteNumber":80,"Velocity":51,"Duration":136206,"SoundDuration":136206,"Delta":20848695},{"NoteNumber":62,"Velocity":37,"Duration":249608,"SoundDuration":249608,"Delta":20848695},{"NoteNumber":53,"Velocity":37,"Duration":249608,"SoundDuration":249608,"Delta":20848695},{"NoteNumber":79,"Velocity":49,"Duration":135026,"SoundDuration":135026,"Delta":20974592},{"NoteNumber":68,"Velocity":61,"Duration":135777,"SoundDuration":135777,"Delta":21098303},{"NoteNumber":77,"Velocity":61,"Duration":135777,"SoundDuration":135777,"Delta":21098303},{"NoteNumber":62,"Velocity":27,"Duration":135777,"SoundDuration":135777,"Delta":21098303},{"NoteNumber":58,"Velocity":27,"Duration":135777,"SoundDuration":135777,"Delta":21098303},{"NoteNumber":77,"Velocity":74,"Duration":271188,"SoundDuration":271188,"Delta":21369858},{"NoteNumber":68,"Velocity":74,"Duration":518149,"SoundDuration":518149,"Delta":21369858},{"NoteNumber":51,"Velocity":33,"Duration":786690,"SoundDuration":786690,"Delta":21369858},{"NoteNumber":79,"Velocity":69,"Duration":139586,"SoundDuration":139586,"Delta":21630309},{"NoteNumber":63,"Velocity":36,"Duration":257698,"SoundDuration":257698,"Delta":21630309},{"NoteNumber":58,"Velocity":36,"Duration":257698,"SoundDuration":257698,"Delta":21630309},{"NoteNumber":77,"Velocity":53,"Duration":140038,"SoundDuration":140038,"Delta":21759159},{"NoteNumber":75,"Velocity":68,"Duration":134270,"SoundDuration":134270,"Delta":21888008},{"NoteNumber":67,"Velocity":68,"Duration":134270,"SoundDuration":134270,"Delta":21888008},{"NoteNumber":63,"Velocity":42,"Duration":134270,"SoundDuration":134270,"Delta":21888008},{"NoteNumber":58,"Velocity":42,"Duration":134270,"SoundDuration":134270,"Delta":21888008},{"NoteNumber":70,"Velocity":70,"Duration":136078,"SoundDuration":136078,"Delta":22156548},{"NoteNumber":46,"Velocity":58,"Duration":136078,"SoundDuration":136078,"Delta":22156548},{"NoteNumber":74,"Velocity":68,"Duration":138076,"SoundDuration":138076,"Delta":22428706},{"NoteNumber":68,"Velocity":47,"Duration":190159,"SoundDuration":190159,"Delta":22428706},{"NoteNumber":65,"Velocity":47,"Duration":190159,"SoundDuration":190159,"Delta":22428706},{"NoteNumber":58,"Velocity":47,"Duration":190159,"SoundDuration":190159,"Delta":22428706},{"NoteNumber":75,"Velocity":60,"Duration":135775,"SoundDuration":135775,"Delta":22556366},{"NoteNumber":74,"Velocity":63,"Duration":197199,"SoundDuration":197199,"Delta":22681366},{"NoteNumber":77,"Velocity":63,"Duration":197199,"SoundDuration":197199,"Delta":22681366},{"NoteNumber":68,"Velocity":44,"Duration":197199,"SoundDuration":197199,"Delta":22681366},{"NoteNumber":65,"Velocity":44,"Duration":197199,"SoundDuration":197199,"Delta":22681366},{"NoteNumber":58,"Velocity":44,"Duration":197199,"SoundDuration":197199,"Delta":22681366},{"NoteNumber":70,"Velocity":72,"Duration":131931,"SoundDuration":131931,"Delta":22946454},{"NoteNumber":51,"Velocity":49,"Duration":131931,"SoundDuration":131931,"Delta":22946454},{"NoteNumber":75,"Velocity":65,"Duration":135465,"SoundDuration":135465,"Delta":23209712},{"NoteNumber":67,"Velocity":43,"Duration":186485,"SoundDuration":186485,"Delta":23209712},{"NoteNumber":63,"Velocity":43,"Duration":186485,"SoundDuration":186485,"Delta":23209712},{"NoteNumber":58,"Velocity":43,"Duration":186485,"SoundDuration":186485,"Delta":23209712},{"NoteNumber":77,"Velocity":60,"Duration":133019,"SoundDuration":133019,"Delta":23334973},{"NoteNumber":75,"Velocity":68,"Duration":190274,"SoundDuration":190274,"Delta":23457422},{"NoteNumber":79,"Velocity":68,"Duration":190274,"SoundDuration":190274,"Delta":23457422},{"NoteNumber":67,"Velocity":64,"Duration":190274,"SoundDuration":190274,"Delta":23457422},{"NoteNumber":63,"Velocity":64,"Duration":190274,"SoundDuration":190274,"Delta":23457422},{"NoteNumber":58,"Velocity":64,"Duration":190274,"SoundDuration":190274,"Delta":23457422},{"NoteNumber":70,"Velocity":76,"Duration":127752,"SoundDuration":127752,"Delta":23711122},{"NoteNumber":50,"Velocity":67,"Duration":127752,"SoundDuration":127752,"Delta":23711122},{"NoteNumber":77,"Velocity":77,"Duration":135058,"SoundDuration":135058,"Delta":23966626},{"NoteNumber":68,"Velocity":49,"Duration":186079,"SoundDuration":186079,"Delta":23966626},{"NoteNumber":65,"Velocity":49,"Duration":186079,"SoundDuration":186079,"Delta":23966626},{"NoteNumber":58,"Velocity":49,"Duration":186079,"SoundDuration":186079,"Delta":23966626},{"NoteNumber":79,"Velocity":70,"Duration":133443,"SoundDuration":133443,"Delta":24091481},{"NoteNumber":77,"Velocity":77,"Duration":197897,"SoundDuration":197897,"Delta":24213930},{"NoteNumber":80,"Velocity":77,"Duration":197897,"SoundDuration":197897,"Delta":24213930},{"NoteNumber":68,"Velocity":61,"Duration":197897,"SoundDuration":197897,"Delta":24213930},{"NoteNumber":65,"Velocity":61,"Duration":197897,"SoundDuration":197897,"Delta":24213930},{"NoteNumber":58,"Velocity":61,"Duration":197897,"SoundDuration":197897,"Delta":24213930},{"NoteNumber":82,"Velocity":84,"Duration":380051,"SoundDuration":380051,"Delta":24477794},{"NoteNumber":79,"Velocity":84,"Duration":380051,"SoundDuration":380051,"Delta":24477794},{"NoteNumber":73,"Velocity":71,"Duration":380051,"SoundDuration":380051,"Delta":24477794},{"NoteNumber":51,"Velocity":65,"Duration":126684,"SoundDuration":126684,"Delta":24477794},{"NoteNumber":67,"Velocity":48,"Duration":126684,"SoundDuration":126684,"Delta":24731162},{"NoteNumber":61,"Velocity":48,"Duration":126684,"SoundDuration":126684,"Delta":24731162},{"NoteNumber":58,"Velocity":48,"Duration":126684,"SoundDuration":126684,"Delta":24731162},{"NoteNumber":79,"Velocity":72,"Duration":126684,"SoundDuration":126684,"Delta":24857846},{"NoteNumber":82,"Velocity":72,"Duration":126684,"SoundDuration":126684,"Delta":24857846},{"NoteNumber":73,"Velocity":80,"Duration":269747,"SoundDuration":269747,"Delta":24984530},{"NoteNumber":52,"Velocity":49,"Duration":269747,"SoundDuration":269747,"Delta":24984530},{"NoteNumber":82,"Velocity":65,"Duration":134873,"SoundDuration":134873,"Delta":25119404},{"NoteNumber":79,"Velocity":65,"Duration":134873,"SoundDuration":134873,"Delta":25119404},{"NoteNumber":73,"Velocity":67,"Duration":513265,"SoundDuration":513265,"Delta":25254278},{"NoteNumber":53,"Velocity":44,"Duration":129948,"SoundDuration":129948,"Delta":25254278},{"NoteNumber":82,"Velocity":58,"Duration":140505,"SoundDuration":140505,"Delta":25384227},{"NoteNumber":84,"Velocity":48,"Duration":137240,"SoundDuration":137240,"Delta":25514176},{"NoteNumber":65,"Velocity":33,"Duration":126684,"SoundDuration":126684,"Delta":25514176},{"NoteNumber":56,"Velocity":33,"Duration":126684,"SoundDuration":126684,"Delta":25514176},{"NoteNumber":82,"Velocity":60,"Duration":137583,"SoundDuration":137583,"Delta":25640860},{"NoteNumber":72,"Velocity":54,"Duration":130798,"SoundDuration":130798,"Delta":25767544},{"NoteNumber":80,"Velocity":54,"Duration":130798,"SoundDuration":130798,"Delta":25767544},{"NoteNumber":44,"Velocity":28,"Duration":130798,"SoundDuration":130798,"Delta":25767544},{"NoteNumber":71,"Velocity":70,"Duration":512684,"SoundDuration":512684,"Delta":26029141},{"NoteNumber":46,"Velocity":26,"Duration":129121,"SoundDuration":129121,"Delta":26029141},{"NoteNumber":80,"Velocity":69,"Duration":139722,"SoundDuration":139722,"Delta":26158262},{"NoteNumber":82,"Velocity":45,"Duration":137822,"SoundDuration":137822,"Delta":26287383},{"NoteNumber":63,"Velocity":34,"Duration":190831,"SoundDuration":190831,"Delta":26287383},{"NoteNumber":55,"Velocity":34,"Duration":190831,"SoundDuration":190831,"Delta":26287383},{"NoteNumber":80,"Velocity":65,"Duration":138263,"SoundDuration":138263,"Delta":26414604},{"NoteNumber":70,"Velocity":55,"Duration":132508,"SoundDuration":132508,"Delta":26541825},{"NoteNumber":79,"Velocity":55,"Duration":132508,"SoundDuration":132508,"Delta":26541825},{"NoteNumber":63,"Velocity":38,"Duration":132508,"SoundDuration":132508,"Delta":26541825},{"NoteNumber":55,"Velocity":38,"Duration":132508,"SoundDuration":132508,"Delta":26541825},{"NoteNumber":70,"Velocity":65,"Duration":555627,"SoundDuration":555627,"Delta":26806843},{"NoteNumber":46,"Velocity":30,"Duration":137318,"SoundDuration":137318,"Delta":26806843},{"NoteNumber":79,"Velocity":50,"Duration":149026,"SoundDuration":149026,"Delta":26944161},{"NoteNumber":80,"Velocity":44,"Duration":152203,"SoundDuration":152203,"Delta":27081480},{"NoteNumber":62,"Velocity":36,"Duration":280991,"SoundDuration":280991,"Delta":27081480},{"NoteNumber":53,"Velocity":36,"Duration":280991,"SoundDuration":280991,"Delta":27081480},{"NoteNumber":79,"Velocity":62,"Duration":152510,"SoundDuration":152510,"Delta":27221975},{"NoteNumber":68,"Velocity":57,"Duration":288364,"SoundDuration":288364,"Delta":27362471},{"NoteNumber":77,"Velocity":57,"Duration":288364,"SoundDuration":288364,"Delta":27362471},{"NoteNumber":62,"Velocity":24,"Duration":288364,"SoundDuration":288364,"Delta":27362471},{"NoteNumber":58,"Velocity":24,"Duration":288364,"SoundDuration":288364,"Delta":27362471},{"NoteNumber":67,"Velocity":48,"Duration":139534,"SoundDuration":139534,"Delta":27650835},{"NoteNumber":75,"Velocity":48,"Duration":139534,"SoundDuration":139534,"Delta":27650835},{"NoteNumber":51,"Velocity":30,"Duration":544674,"SoundDuration":544674,"Delta":27650835},{"NoteNumber":75,"Velocity":53,"Duration":66400,"SoundDuration":66400,"Delta":27929905},{"NoteNumber":63,"Velocity":45,"Duration":265603,"SoundDuration":265603,"Delta":27929905},{"NoteNumber":55,"Velocity":45,"Duration":265603,"SoundDuration":265603,"Delta":27929905},{"NoteNumber":75,"Velocity":64,"Duration":66400,"SoundDuration":66400,"Delta":28062707},{"NoteNumber":75,"Velocity":67,"Duration":66400,"SoundDuration":66400,"Delta":28195509},{"NoteNumber":51,"Velocity":52,"Duration":265603,"SoundDuration":265603,"Delta":28195509},{"NoteNumber":61,"Velocity":52,"Duration":265603,"SoundDuration":265603,"Delta":28195509},{"NoteNumber":55,"Velocity":52,"Duration":265603,"SoundDuration":265603,"Delta":28195509},{"NoteNumber":75,"Velocity":69,"Duration":66400,"SoundDuration":66400,"Delta":28328311},{"NoteNumber":75,"Velocity":75,"Duration":65821,"SoundDuration":65821,"Delta":28461113},{"NoteNumber":44,"Velocity":25,"Duration":263284,"SoundDuration":263284,"Delta":28461113},{"NoteNumber":75,"Velocity":64,"Duration":65821,"SoundDuration":65821,"Delta":28592755},{"NoteNumber":75,"Velocity":75,"Duration":65821,"SoundDuration":65821,"Delta":28724398},{"NoteNumber":60,"Velocity":33,"Duration":197463,"SoundDuration":197463,"Delta":28724398},{"NoteNumber":56,"Velocity":33,"Duration":197463,"SoundDuration":197463,"Delta":28724398},{"NoteNumber":51,"Velocity":33,"Duration":197463,"SoundDuration":197463,"Delta":28724398},{"NoteNumber":75,"Velocity":74,"Duration":65821,"SoundDuration":65821,"Delta":28856040},{"NoteNumber":75,"Velocity":69,"Duration":65821,"SoundDuration":65821,"Delta":28987683},{"NoteNumber":60,"Velocity":41,"Duration":200767,"SoundDuration":200767,"Delta":28987683},{"NoteNumber":56,"Velocity":41,"Duration":200767,"SoundDuration":200767,"Delta":28987683},{"NoteNumber":51,"Velocity":41,"Duration":200767,"SoundDuration":200767,"Delta":28987683},{"NoteNumber":75,"Velocity":69,"Duration":69124,"SoundDuration":69124,"Delta":29119325},{"NoteNumber":77,"Velocity":65,"Duration":133888,"SoundDuration":133888,"Delta":29257574},{"NoteNumber":44,"Velocity":33,"Duration":247178,"SoundDuration":247178,"Delta":29257574},{"NoteNumber":75,"Velocity":58,"Duration":133888,"SoundDuration":133888,"Delta":29381163},{"NoteNumber":72,"Velocity":56,"Duration":133888,"SoundDuration":133888,"Delta":29504752},{"NoteNumber":60,"Velocity":33,"Duration":185383,"SoundDuration":185383,"Delta":29504752},{"NoteNumber":56,"Velocity":33,"Duration":185383,"SoundDuration":185383,"Delta":29504752},{"NoteNumber":51,"Velocity":33,"Duration":185383,"SoundDuration":185383,"Delta":29504752},{"NoteNumber":68,"Velocity":49,"Duration":133888,"SoundDuration":133888,"Delta":29628341},{"NoteNumber":63,"Velocity":49,"Duration":123588,"SoundDuration":123588,"Delta":29751930},{"NoteNumber":51,"Velocity":37,"Duration":185383,"SoundDuration":185383,"Delta":29751930},{"NoteNumber":56,"Velocity":37,"Duration":185383,"SoundDuration":185383,"Delta":29751930},{"NoteNumber":60,"Velocity":37,"Duration":185383,"SoundDuration":185383,"Delta":29751930},{"NoteNumber":64,"Velocity":51,"Duration":123589,"SoundDuration":123589,"Delta":29875519},{"NoteNumber":65,"Velocity":58,"Duration":61667,"SoundDuration":61667,"Delta":29999108},{"NoteNumber":44,"Velocity":37,"Duration":247175,"SoundDuration":247175,"Delta":29999108},{"NoteNumber":65,"Velocity":51,"Duration":61836,"SoundDuration":61836,"Delta":30122528},{"NoteNumber":65,"Velocity":55,"Duration":62047,"SoundDuration":62047,"Delta":30246284},{"NoteNumber":59,"Velocity":26,"Duration":186391,"SoundDuration":186391,"Delta":30246284},{"NoteNumber":56,"Velocity":26,"Duration":186391,"SoundDuration":186391,"Delta":30246284},{"NoteNumber":50,"Velocity":26,"Duration":186391,"SoundDuration":186391,"Delta":30246284},{"NoteNumber":65,"Velocity":51,"Duration":62214,"SoundDuration":62214,"Delta":30370461},{"NoteNumber":65,"Velocity":54,"Duration":62427,"SoundDuration":62427,"Delta":30494975},{"NoteNumber":50,"Velocity":32,"Duration":187545,"SoundDuration":187545,"Delta":30494975},{"NoteNumber":56,"Velocity":32,"Duration":187545,"SoundDuration":187545,"Delta":30494975},{"NoteNumber":59,"Velocity":32,"Duration":187545,"SoundDuration":187545,"Delta":30494975},{"NoteNumber":65,"Velocity":58,"Duration":62602,"SoundDuration":62602,"Delta":30619918},{"NoteNumber":63,"Velocity":61,"Duration":136020,"SoundDuration":136020,"Delta":30745209},{"NoteNumber":44,"Velocity":38,"Duration":250820,"SoundDuration":250820,"Delta":30745209},{"NoteNumber":68,"Velocity":53,"Duration":135674,"SoundDuration":135674,"Delta":30870782},{"NoteNumber":72,"Velocity":48,"Duration":135304,"SoundDuration":135304,"Delta":30996030},{"NoteNumber":60,"Velocity":29,"Duration":187220,"SoundDuration":187220,"Delta":30996030},{"NoteNumber":56,"Velocity":29,"Duration":187220,"SoundDuration":187220,"Delta":30996030},{"NoteNumber":51,"Velocity":29,"Duration":187220,"SoundDuration":187220,"Delta":30996030},{"NoteNumber":75,"Velocity":64,"Duration":134897,"SoundDuration":134897,"Delta":31120950},{"NoteNumber":80,"Velocity":61,"Duration":134559,"SoundDuration":134559,"Delta":31245486},{"NoteNumber":60,"Velocity":48,"Duration":186202,"SoundDuration":186202,"Delta":31245486},{"NoteNumber":56,"Velocity":48,"Duration":186202,"SoundDuration":186202,"Delta":31245486},{"NoteNumber":51,"Velocity":48,"Duration":186202,"SoundDuration":186202,"Delta":31245486},{"NoteNumber":76,"Velocity":52,"Duration":123882,"SoundDuration":123882,"Delta":31369704},{"NoteNumber":77,"Velocity":52,"Duration":63341,"SoundDuration":63341,"Delta":31493587},{"NoteNumber":50,"Velocity":55,"Duration":253367,"SoundDuration":253367,"Delta":31493587},{"NoteNumber":77,"Velocity":44,"Duration":63341,"SoundDuration":63341,"Delta":31620271},{"NoteNumber":77,"Velocity":68,"Duration":63342,"SoundDuration":63342,"Delta":31746955},{"NoteNumber":65,"Velocity":24,"Duration":190026,"SoundDuration":190026,"Delta":31746955},{"NoteNumber":59,"Velocity":24,"Duration":190026,"SoundDuration":190026,"Delta":31746955},{"NoteNumber":56,"Velocity":24,"Duration":190026,"SoundDuration":190026,"Delta":31746955},{"NoteNumber":77,"Velocity":60,"Duration":63342,"SoundDuration":63342,"Delta":31873639},{"NoteNumber":77,"Velocity":53,"Duration":63342,"SoundDuration":63342,"Delta":32000323},{"NoteNumber":65,"Velocity":36,"Duration":190026,"SoundDuration":190026,"Delta":32000323},{"NoteNumber":59,"Velocity":36,"Duration":190026,"SoundDuration":190026,"Delta":32000323},{"NoteNumber":56,"Velocity":36,"Duration":190026,"SoundDuration":190026,"Delta":32000323},{"NoteNumber":77,"Velocity":73,"Duration":63341,"SoundDuration":63341,"Delta":32127007},{"NoteNumber":77,"Velocity":77,"Duration":99158,"SoundDuration":99158,"Delta":32253691},{"NoteNumber":51,"Velocity":44,"Duration":264422,"SoundDuration":264422,"Delta":32253691},{"NoteNumber":79,"Velocity":55,"Duration":99158,"SoundDuration":99158,"Delta":32341831},{"NoteNumber":77,"Velocity":55,"Duration":99087,"SoundDuration":99087,"Delta":32429972},{"NoteNumber":75,"Velocity":65,"Duration":142567,"SoundDuration":142567,"Delta":32518113},{"NoteNumber":60,"Velocity":32,"Duration":197608,"SoundDuration":197608,"Delta":32518113},{"NoteNumber":63,"Velocity":32,"Duration":197608,"SoundDuration":197608,"Delta":32518113},{"NoteNumber":68,"Velocity":32,"Duration":197608,"SoundDuration":197608,"Delta":32518113},{"NoteNumber":80,"Velocity":57,"Duration":143307,"SoundDuration":143307,"Delta":32649686},{"NoteNumber":84,"Velocity":51,"Duration":132970,"SoundDuration":132970,"Delta":32781926},{"NoteNumber":60,"Velocity":42,"Duration":132970,"SoundDuration":132970,"Delta":32781926},{"NoteNumber":63,"Velocity":42,"Duration":132970,"SoundDuration":132970,"Delta":32781926},{"NoteNumber":68,"Velocity":42,"Duration":132970,"SoundDuration":132970,"Delta":32781926},{"NoteNumber":89,"Velocity":66,"Duration":268888,"SoundDuration":268888,"Delta":33056406},{"NoteNumber":51,"Velocity":20,"Duration":258242,"SoundDuration":258242,"Delta":33056406},{"NoteNumber":87,"Velocity":51,"Duration":138398,"SoundDuration":138398,"Delta":33314648},{"NoteNumber":61,"Velocity":20,"Duration":191628,"SoundDuration":191628,"Delta":33314648},{"NoteNumber":63,"Velocity":20,"Duration":191628,"SoundDuration":191628,"Delta":33314648},{"NoteNumber":67,"Velocity":20,"Duration":191628,"SoundDuration":191628,"Delta":33314648},{"NoteNumber":85,"Velocity":45,"Duration":138722,"SoundDuration":138722,"Delta":33442400},{"NoteNumber":79,"Velocity":50,"Duration":131642,"SoundDuration":131642,"Delta":33570152},{"NoteNumber":61,"Velocity":30,"Duration":131642,"SoundDuration":131642,"Delta":33570152},{"NoteNumber":63,"Velocity":30,"Duration":131642,"SoundDuration":131642,"Delta":33570152},{"NoteNumber":67,"Velocity":30,"Duration":131642,"SoundDuration":131642,"Delta":33570152},{"NoteNumber":82,"Velocity":58,"Duration":268910,"SoundDuration":268910,"Delta":33833437},{"NoteNumber":56,"Velocity":34,"Duration":258242,"SoundDuration":258242,"Delta":33833437},{"NoteNumber":80,"Velocity":43,"Duration":138693,"SoundDuration":138693,"Delta":34091679},{"NoteNumber":68,"Velocity":23,"Duration":256048,"SoundDuration":256048,"Delta":34091679},{"NoteNumber":63,"Velocity":23,"Duration":256048,"SoundDuration":256048,"Delta":34091679},{"NoteNumber":60,"Velocity":23,"Duration":256048,"SoundDuration":256048,"Delta":34091679},{"NoteNumber":75,"Velocity":44,"Duration":138947,"SoundDuration":138947,"Delta":34219704},{"NoteNumber":72,"Velocity":38,"Duration":131078,"SoundDuration":131078,"Delta":34347728},{"NoteNumber":60,"Velocity":38,"Duration":131078,"SoundDuration":131078,"Delta":34347728},{"NoteNumber":63,"Velocity":38,"Duration":131078,"SoundDuration":131078,"Delta":34347728},{"NoteNumber":68,"Velocity":38,"Duration":131078,"SoundDuration":131078,"Delta":34347728},{"NoteNumber":75,"Velocity":48,"Duration":65821,"SoundDuration":65821,"Delta":34609886},{"NoteNumber":44,"Velocity":34,"Duration":263285,"SoundDuration":263285,"Delta":34609886},{"NoteNumber":75,"Velocity":44,"Duration":65821,"SoundDuration":65821,"Delta":34741529},{"NoteNumber":75,"Velocity":65,"Duration":65821,"SoundDuration":65821,"Delta":34873171},{"NoteNumber":60,"Velocity":31,"Duration":197463,"SoundDuration":197463,"Delta":34873171},{"NoteNumber":56,"Velocity":31,"Duration":197463,"SoundDuration":197463,"Delta":34873171},{"NoteNumber":51,"Velocity":31,"Duration":197463,"SoundDuration":197463,"Delta":34873171},{"NoteNumber":75,"Velocity":69,"Duration":65821,"SoundDuration":65821,"Delta":35004814},{"NoteNumber":75,"Velocity":63,"Duration":65821,"SoundDuration":65821,"Delta":35136456},{"NoteNumber":60,"Velocity":49,"Duration":200766,"SoundDuration":200766,"Delta":35136456},{"NoteNumber":56,"Velocity":49,"Duration":200766,"SoundDuration":200766,"Delta":35136456},{"NoteNumber":51,"Velocity":49,"Duration":200766,"SoundDuration":200766,"Delta":35136456},{"NoteNumber":75,"Velocity":71,"Duration":69124,"SoundDuration":69124,"Delta":35268099},{"NoteNumber":77,"Velocity":61,"Duration":133888,"SoundDuration":133888,"Delta":35406348},{"NoteNumber":44,"Velocity":47,"Duration":247177,"SoundDuration":247177,"Delta":35406348},{"NoteNumber":75,"Velocity":59,"Duration":133888,"SoundDuration":133888,"Delta":35529937},{"NoteNumber":72,"Velocity":52,"Duration":133888,"SoundDuration":133888,"Delta":35653526},{"NoteNumber":60,"Velocity":35,"Duration":185383,"SoundDuration":185383,"Delta":35653526},{"NoteNumber":56,"Velocity":35,"Duration":185383,"SoundDuration":185383,"Delta":35653526},{"NoteNumber":51,"Velocity":35,"Duration":185383,"SoundDuration":185383,"Delta":35653526},{"NoteNumber":68,"Velocity":52,"Duration":133888,"SoundDuration":133888,"Delta":35777115},{"NoteNumber":63,"Velocity":47,"Duration":123588,"SoundDuration":123588,"Delta":35900704},{"NoteNumber":51,"Velocity":52,"Duration":185383,"SoundDuration":185383,"Delta":35900704},{"NoteNumber":56,"Velocity":52,"Duration":185383,"SoundDuration":185383,"Delta":35900704},{"NoteNumber":60,"Velocity":52,"Duration":185383,"SoundDuration":185383,"Delta":35900704},{"NoteNumber":64,"Velocity":55,"Duration":123589,"SoundDuration":123589,"Delta":36024293},{"NoteNumber":65,"Velocity":57,"Duration":61667,"SoundDuration":61667,"Delta":36147882},{"NoteNumber":44,"Velocity":40,"Duration":246670,"SoundDuration":246670,"Delta":36147882},{"NoteNumber":65,"Velocity":47,"Duration":61667,"SoundDuration":61667,"Delta":36271217},{"NoteNumber":65,"Velocity":59,"Duration":61667,"SoundDuration":61667,"Delta":36394552},{"NoteNumber":59,"Velocity":35,"Duration":185002,"SoundDuration":185002,"Delta":36394552},{"NoteNumber":56,"Velocity":35,"Duration":185002,"SoundDuration":185002,"Delta":36394552},{"NoteNumber":50,"Velocity":35,"Duration":185002,"SoundDuration":185002,"Delta":36394552},{"NoteNumber":65,"Velocity":55,"Duration":61667,"SoundDuration":61667,"Delta":36517887},{"NoteNumber":65,"Velocity":61,"Duration":61667,"SoundDuration":61667,"Delta":36641222},{"NoteNumber":50,"Velocity":31,"Duration":185002,"SoundDuration":185002,"Delta":36641222},{"NoteNumber":56,"Velocity":31,"Duration":185002,"SoundDuration":185002,"Delta":36641222},{"NoteNumber":59,"Velocity":31,"Duration":185002,"SoundDuration":185002,"Delta":36641222},{"NoteNumber":65,"Velocity":63,"Duration":61667,"SoundDuration":61667,"Delta":36764557},{"NoteNumber":63,"Velocity":58,"Duration":133612,"SoundDuration":133612,"Delta":36887892},{"NoteNumber":44,"Velocity":38,"Duration":246670,"SoundDuration":246670,"Delta":36887892},{"NoteNumber":68,"Velocity":54,"Duration":133612,"SoundDuration":133612,"Delta":37011227},{"NoteNumber":72,"Velocity":50,"Duration":133612,"SoundDuration":133612,"Delta":37134562},{"NoteNumber":60,"Velocity":30,"Duration":185002,"SoundDuration":185002,"Delta":37134562},{"NoteNumber":56,"Velocity":30,"Duration":185002,"SoundDuration":185002,"Delta":37134562},{"NoteNumber":51,"Velocity":30,"Duration":185002,"SoundDuration":185002,"Delta":37134562},{"NoteNumber":75,"Velocity":43,"Duration":133612,"SoundDuration":133612,"Delta":37257897},{"NoteNumber":80,"Velocity":52,"Duration":133612,"SoundDuration":133612,"Delta":37381232},{"NoteNumber":60,"Velocity":36,"Duration":246691,"SoundDuration":246691,"Delta":37381232},{"NoteNumber":56,"Velocity":36,"Duration":246691,"SoundDuration":246691,"Delta":37381232},{"NoteNumber":51,"Velocity":36,"Duration":246691,"SoundDuration":246691,"Delta":37381232},{"NoteNumber":76,"Velocity":47,"Duration":123356,"SoundDuration":123356,"Delta":37504567},{"NoteNumber":77,"Velocity":58,"Duration":63341,"SoundDuration":63341,"Delta":37627923},{"NoteNumber":50,"Velocity":38,"Duration":253368,"SoundDuration":253368,"Delta":37627923},{"NoteNumber":77,"Velocity":50,"Duration":63342,"SoundDuration":63342,"Delta":37754607},{"NoteNumber":77,"Velocity":61,"Duration":63341,"SoundDuration":63341,"Delta":37881291},{"NoteNumber":65,"Velocity":33,"Duration":190025,"SoundDuration":190025,"Delta":37881291},{"NoteNumber":59,"Velocity":33,"Duration":190025,"SoundDuration":190025,"Delta":37881291},{"NoteNumber":56,"Velocity":33,"Duration":190025,"SoundDuration":190025,"Delta":37881291},{"NoteNumber":77,"Velocity":57,"Duration":63341,"SoundDuration":63341,"Delta":38007975},{"NoteNumber":77,"Velocity":65,"Duration":63342,"SoundDuration":63342,"Delta":38134659},{"NoteNumber":65,"Velocity":36,"Duration":190026,"SoundDuration":190026,"Delta":38134659},{"NoteNumber":59,"Velocity":36,"Duration":190026,"SoundDuration":190026,"Delta":38134659},{"NoteNumber":56,"Velocity":36,"Duration":190026,"SoundDuration":190026,"Delta":38134659},{"NoteNumber":77,"Velocity":65,"Duration":63341,"SoundDuration":63341,"Delta":38261343},{"NoteNumber":77,"Velocity":75,"Duration":99158,"SoundDuration":99158,"Delta":38388027},{"NoteNumber":51,"Velocity":44,"Duration":264422,"SoundDuration":264422,"Delta":38388027},{"NoteNumber":79,"Velocity":55,"Duration":99158,"SoundDuration":99158,"Delta":38476168},{"NoteNumber":77,"Velocity":55,"Duration":99087,"SoundDuration":99087,"Delta":38564308},{"NoteNumber":75,"Velocity":66,"Duration":142567,"SoundDuration":142567,"Delta":38652449},{"NoteNumber":60,"Velocity":29,"Duration":197608,"SoundDuration":197608,"Delta":38652449},{"NoteNumber":63,"Velocity":29,"Duration":197608,"SoundDuration":197608,"Delta":38652449},{"NoteNumber":68,"Velocity":29,"Duration":197608,"SoundDuration":197608,"Delta":38652449},{"NoteNumber":80,"Velocity":64,"Duration":143307,"SoundDuration":143307,"Delta":38784022},{"NoteNumber":84,"Velocity":60,"Duration":133019,"SoundDuration":133019,"Delta":38916263},{"NoteNumber":60,"Velocity":44,"Duration":133019,"SoundDuration":133019,"Delta":38916263},{"NoteNumber":63,"Velocity":44,"Duration":133019,"SoundDuration":133019,"Delta":38916263},{"NoteNumber":68,"Velocity":44,"Duration":133019,"SoundDuration":133019,"Delta":38916263},{"NoteNumber":89,"Velocity":67,"Duration":268888,"SoundDuration":268888,"Delta":39186534},{"NoteNumber":51,"Velocity":27,"Duration":258242,"SoundDuration":258242,"Delta":39186534},{"NoteNumber":87,"Velocity":52,"Duration":138398,"SoundDuration":138398,"Delta":39444776},{"NoteNumber":61,"Velocity":32,"Duration":191628,"SoundDuration":191628,"Delta":39444776},{"NoteNumber":63,"Velocity":32,"Duration":191628,"SoundDuration":191628,"Delta":39444776},{"NoteNumber":67,"Velocity":32,"Duration":191628,"SoundDuration":191628,"Delta":39444776},{"NoteNumber":85,"Velocity":48,"Duration":138722,"SoundDuration":138722,"Delta":39572528},{"NoteNumber":79,"Velocity":52,"Duration":131642,"SoundDuration":131642,"Delta":39700280},{"NoteNumber":61,"Velocity":37,"Duration":131642,"SoundDuration":131642,"Delta":39700280},{"NoteNumber":63,"Velocity":37,"Duration":131642,"SoundDuration":131642,"Delta":39700280},{"NoteNumber":67,"Velocity":37,"Duration":131642,"SoundDuration":131642,"Delta":39700280},{"NoteNumber":80,"Velocity":65,"Duration":526569,"SoundDuration":526569,"Delta":39963565},{"NoteNumber":56,"Velocity":44,"Duration":800579,"SoundDuration":800579,"Delta":39963565},{"NoteNumber":60,"Velocity":35,"Duration":263285,"SoundDuration":263285,"Delta":40226850},{"NoteNumber":68,"Velocity":35,"Duration":263285,"SoundDuration":263285,"Delta":40226850},{"NoteNumber":72,"Velocity":55,"Duration":45668,"SoundDuration":45668,"Delta":40490135},{"NoteNumber":65,"Velocity":47,"Duration":274009,"SoundDuration":274009,"Delta":40490135},{"NoteNumber":68,"Velocity":47,"Duration":274009,"SoundDuration":274009,"Delta":40490135},{"NoteNumber":74,"Velocity":49,"Duration":45668,"SoundDuration":45668,"Delta":40535803},{"NoteNumber":72,"Velocity":65,"Duration":45668,"SoundDuration":45668,"Delta":40581472},{"NoteNumber":74,"Velocity":53,"Duration":45668,"SoundDuration":45668,"Delta":40627140},{"NoteNumber":72,"Velocity":67,"Duration":45668,"SoundDuration":45668,"Delta":40672808},{"NoteNumber":71,"Velocity":56,"Duration":45668,"SoundDuration":45668,"Delta":40718477},{"NoteNumber":70,"Velocity":87,"Duration":282933,"SoundDuration":282933,"Delta":40764145},{"NoteNumber":58,"Velocity":86,"Duration":272157,"SoundDuration":272157,"Delta":40764145},{"NoteNumber":46,"Velocity":86,"Duration":272157,"SoundDuration":272157,"Delta":40764145},{"NoteNumber":74,"Velocity":62,"Duration":139792,"SoundDuration":139792,"Delta":41036303},{"NoteNumber":68,"Velocity":55,"Duration":192203,"SoundDuration":192203,"Delta":41036303},{"NoteNumber":65,"Velocity":55,"Duration":192203,"SoundDuration":192203,"Delta":41036303},{"NoteNumber":58,"Velocity":55,"Duration":192203,"SoundDuration":192203,"Delta":41036303},{"NoteNumber":75,"Velocity":62,"Duration":136750,"SoundDuration":136750,"Delta":41165613},{"NoteNumber":74,"Velocity":67,"Duration":199467,"SoundDuration":199467,"Delta":41291399},{"NoteNumber":77,"Velocity":67,"Duration":199467,"SoundDuration":199467,"Delta":41291399},{"NoteNumber":68,"Velocity":65,"Duration":199467,"SoundDuration":199467,"Delta":41291399},{"NoteNumber":65,"Velocity":65,"Duration":199467,"SoundDuration":199467,"Delta":41291399},{"NoteNumber":58,"Velocity":65,"Duration":199467,"SoundDuration":199467,"Delta":41291399},{"NoteNumber":70,"Velocity":85,"Duration":131931,"SoundDuration":131931,"Delta":41558756},{"NoteNumber":51,"Velocity":74,"Duration":263863,"SoundDuration":263863,"Delta":41558756},{"NoteNumber":75,"Velocity":73,"Duration":138097,"SoundDuration":138097,"Delta":41822620},{"NoteNumber":67,"Velocity":57,"Duration":190289,"SoundDuration":190289,"Delta":41822620},{"NoteNumber":63,"Velocity":57,"Duration":190289,"SoundDuration":190289,"Delta":41822620},{"NoteNumber":58,"Velocity":57,"Duration":190289,"SoundDuration":190289,"Delta":41822620},{"NoteNumber":77,"Velocity":69,"Duration":136036,"SoundDuration":136036,"Delta":41950279},{"NoteNumber":75,"Velocity":76,"Duration":193965,"SoundDuration":193965,"Delta":42075540},{"NoteNumber":79,"Velocity":76,"Duration":193965,"SoundDuration":193965,"Delta":42075540},{"NoteNumber":67,"Velocity":62,"Duration":193965,"SoundDuration":193965,"Delta":42075540},{"NoteNumber":63,"Velocity":62,"Duration":193965,"SoundDuration":193965,"Delta":42075540},{"NoteNumber":58,"Velocity":62,"Duration":193965,"SoundDuration":193965,"Delta":42075540},{"NoteNumber":70,"Velocity":87,"Duration":127752,"SoundDuration":127752,"Delta":42334161},{"NoteNumber":50,"Velocity":65,"Duration":255504,"SoundDuration":255504,"Delta":42334161},{"NoteNumber":77,"Velocity":73,"Duration":135642,"SoundDuration":135642,"Delta":42589665},{"NoteNumber":68,"Velocity":56,"Duration":186977,"SoundDuration":186977,"Delta":42589665},{"NoteNumber":65,"Velocity":56,"Duration":186977,"SoundDuration":186977,"Delta":42589665},{"NoteNumber":58,"Velocity":56,"Duration":186977,"SoundDuration":186977,"Delta":42589665},{"NoteNumber":79,"Velocity":68,"Duration":134055,"SoundDuration":134055,"Delta":42715041},{"NoteNumber":77,"Velocity":83,"Duration":195338,"SoundDuration":195338,"Delta":42838245},{"NoteNumber":80,"Velocity":83,"Duration":195338,"SoundDuration":195338,"Delta":42838245},{"NoteNumber":68,"Velocity":69,"Duration":195338,"SoundDuration":195338,"Delta":42838245},{"NoteNumber":65,"Velocity":69,"Duration":195338,"SoundDuration":195338,"Delta":42838245},{"NoteNumber":58,"Velocity":69,"Duration":195338,"SoundDuration":195338,"Delta":42838245},{"NoteNumber":82,"Velocity":77,"Duration":506735,"SoundDuration":506735,"Delta":43098696},{"NoteNumber":79,"Velocity":77,"Duration":506735,"SoundDuration":506735,"Delta":43098696},{"NoteNumber":73,"Velocity":65,"Duration":506735,"SoundDuration":506735,"Delta":43098696},{"NoteNumber":51,"Velocity":61,"Duration":126683,"SoundDuration":126683,"Delta":43098696},{"NoteNumber":67,"Velocity":61,"Duration":126683,"SoundDuration":126683,"Delta":43352064},{"NoteNumber":61,"Velocity":61,"Duration":126683,"SoundDuration":126683,"Delta":43352064},{"NoteNumber":58,"Velocity":61,"Duration":126683,"SoundDuration":126683,"Delta":43352064},{"NoteNumber":82,"Velocity":75,"Duration":134874,"SoundDuration":134874,"Delta":43605432},{"NoteNumber":79,"Velocity":75,"Duration":134874,"SoundDuration":134874,"Delta":43605432},{"NoteNumber":73,"Velocity":63,"Duration":134874,"SoundDuration":134874,"Delta":43605432},{"NoteNumber":52,"Velocity":38,"Duration":134874,"SoundDuration":134874,"Delta":43605432},{"NoteNumber":82,"Velocity":69,"Duration":134873,"SoundDuration":134873,"Delta":43740306},{"NoteNumber":79,"Velocity":69,"Duration":134873,"SoundDuration":134873,"Delta":43740306},{"NoteNumber":73,"Velocity":58,"Duration":134873,"SoundDuration":134873,"Delta":43740306},{"NoteNumber":82,"Velocity":70,"Duration":270889,"SoundDuration":270889,"Delta":43875180},{"NoteNumber":73,"Velocity":59,"Duration":509935,"SoundDuration":509935,"Delta":43875180},{"NoteNumber":79,"Velocity":70,"Duration":509935,"SoundDuration":509935,"Delta":43875180},{"NoteNumber":53,"Velocity":38,"Duration":130225,"SoundDuration":130225,"Delta":43875180},{"NoteNumber":84,"Velocity":59,"Duration":135612,"SoundDuration":135612,"Delta":44135631},{"NoteNumber":65,"Velocity":41,"Duration":125261,"SoundDuration":125261,"Delta":44135631},{"NoteNumber":56,"Velocity":41,"Duration":125261,"SoundDuration":125261,"Delta":44135631},{"NoteNumber":82,"Velocity":50,"Duration":135217,"SoundDuration":135217,"Delta":44260892},{"NoteNumber":72,"Velocity":53,"Duration":131931,"SoundDuration":131931,"Delta":44385115},{"NoteNumber":80,"Velocity":53,"Duration":131931,"SoundDuration":131931,"Delta":44385115},{"NoteNumber":44,"Velocity":36,"Duration":131931,"SoundDuration":131931,"Delta":44385115},{"NoteNumber":80,"Velocity":69,"Duration":267013,"SoundDuration":267013,"Delta":44648979},{"NoteNumber":71,"Velocity":69,"Duration":505563,"SoundDuration":505563,"Delta":44648979},{"NoteNumber":46,"Velocity":31,"Duration":128298,"SoundDuration":128298,"Delta":44648979},{"NoteNumber":82,"Velocity":47,"Duration":135330,"SoundDuration":135330,"Delta":44905576},{"NoteNumber":63,"Velocity":27,"Duration":248967,"SoundDuration":248967,"Delta":44905576},{"NoteNumber":55,"Velocity":27,"Duration":248967,"SoundDuration":248967,"Delta":44905576},{"NoteNumber":80,"Velocity":46,"Duration":134937,"SoundDuration":134937,"Delta":45030576},{"NoteNumber":70,"Velocity":52,"Duration":131642,"SoundDuration":131642,"Delta":45154543},{"NoteNumber":79,"Velocity":52,"Duration":131642,"SoundDuration":131642,"Delta":45154543},{"NoteNumber":63,"Velocity":41,"Duration":131642,"SoundDuration":131642,"Delta":45154543},{"NoteNumber":55,"Velocity":41,"Duration":131642,"SoundDuration":131642,"Delta":45154543},{"NoteNumber":79,"Velocity":66,"Duration":266465,"SoundDuration":266465,"Delta":45417828},{"NoteNumber":70,"Velocity":66,"Duration":504760,"SoundDuration":504760,"Delta":45417828},{"NoteNumber":46,"Velocity":39,"Duration":128024,"SoundDuration":128024,"Delta":45417828},{"NoteNumber":80,"Velocity":53,"Duration":135309,"SoundDuration":135309,"Delta":45673877},{"NoteNumber":62,"Velocity":26,"Duration":248711,"SoundDuration":248711,"Delta":45673877},{"NoteNumber":53,"Velocity":26,"Duration":248711,"SoundDuration":248711,"Delta":45673877},{"NoteNumber":79,"Velocity":47,"Duration":135026,"SoundDuration":135026,"Delta":45798877},{"NoteNumber":68,"Velocity":56,"Duration":135777,"SoundDuration":135777,"Delta":45922589},{"NoteNumber":77,"Velocity":56,"Duration":135777,"SoundDuration":135777,"Delta":45922589},{"NoteNumber":62,"Velocity":34,"Duration":135777,"SoundDuration":135777,"Delta":45922589},{"NoteNumber":58,"Velocity":34,"Duration":135777,"SoundDuration":135777,"Delta":45922589},{"NoteNumber":77,"Velocity":64,"Duration":271188,"SoundDuration":271188,"Delta":46194144},{"NoteNumber":68,"Velocity":64,"Duration":518150,"SoundDuration":518150,"Delta":46194144},{"NoteNumber":51,"Velocity":23,"Duration":786690,"SoundDuration":786690,"Delta":46194144},{"NoteNumber":79,"Velocity":52,"Duration":139586,"SoundDuration":139586,"Delta":46454595},{"NoteNumber":63,"Velocity":33,"Duration":193274,"SoundDuration":193274,"Delta":46454595},{"NoteNumber":58,"Velocity":33,"Duration":193274,"SoundDuration":193274,"Delta":46454595},{"NoteNumber":77,"Velocity":48,"Duration":140038,"SoundDuration":140038,"Delta":46583444},{"NoteNumber":75,"Velocity":53,"Duration":134270,"SoundDuration":134270,"Delta":46712294},{"NoteNumber":67,"Velocity":53,"Duration":134270,"SoundDuration":134270,"Delta":46712294},{"NoteNumber":63,"Velocity":53,"Duration":134270,"SoundDuration":134270,"Delta":46712294},{"NoteNumber":58,"Velocity":53,"Duration":134270,"SoundDuration":134270,"Delta":46712294},{"NoteNumber":70,"Velocity":44,"Duration":135777,"SoundDuration":135777,"Delta":46980834},{"NoteNumber":46,"Velocity":37,"Duration":135777,"SoundDuration":135777,"Delta":46980834},{"NoteNumber":74,"Velocity":46,"Duration":135602,"SoundDuration":135602,"Delta":47116611},{"NoteNumber":75,"Velocity":57,"Duration":130938,"SoundDuration":130938,"Delta":47252214},{"NoteNumber":68,"Velocity":32,"Duration":196193,"SoundDuration":196193,"Delta":47252214},{"NoteNumber":65,"Velocity":32,"Duration":196193,"SoundDuration":196193,"Delta":47252214},{"NoteNumber":58,"Velocity":32,"Duration":196193,"SoundDuration":196193,"Delta":47252214},{"NoteNumber":76,"Velocity":44,"Duration":130366,"SoundDuration":130366,"Delta":47383153},{"NoteNumber":74,"Velocity":56,"Duration":197674,"SoundDuration":197674,"Delta":47513520},{"NoteNumber":77,"Velocity":56,"Duration":197674,"SoundDuration":197674,"Delta":47513520},{"NoteNumber":68,"Velocity":35,"Duration":197674,"SoundDuration":197674,"Delta":47513520},{"NoteNumber":65,"Velocity":35,"Duration":197674,"SoundDuration":197674,"Delta":47513520},{"NoteNumber":58,"Velocity":35,"Duration":197674,"SoundDuration":197674,"Delta":47513520},{"NoteNumber":70,"Velocity":65,"Duration":131642,"SoundDuration":131642,"Delta":47779083},{"NoteNumber":51,"Velocity":41,"Duration":131642,"SoundDuration":131642,"Delta":47779083},{"NoteNumber":74,"Velocity":63,"Duration":131313,"SoundDuration":131313,"Delta":47910725},{"NoteNumber":75,"Velocity":57,"Duration":127446,"SoundDuration":127446,"Delta":48042039},{"NoteNumber":67,"Velocity":45,"Duration":191147,"SoundDuration":191147,"Delta":48042039},{"NoteNumber":63,"Velocity":45,"Duration":191147,"SoundDuration":191147,"Delta":48042039},{"NoteNumber":58,"Velocity":45,"Duration":191147,"SoundDuration":191147,"Delta":48042039},{"NoteNumber":77,"Velocity":51,"Duration":127311,"SoundDuration":127311,"Delta":48169486},{"NoteNumber":75,"Velocity":64,"Duration":190589,"SoundDuration":190589,"Delta":48296797},{"NoteNumber":79,"Velocity":64,"Duration":190589,"SoundDuration":190589,"Delta":48296797},{"NoteNumber":67,"Velocity":41,"Duration":190589,"SoundDuration":190589,"Delta":48296797},{"NoteNumber":63,"Velocity":41,"Duration":190589,"SoundDuration":190589,"Delta":48296797},{"NoteNumber":58,"Velocity":41,"Duration":190589,"SoundDuration":190589,"Delta":48296797},{"NoteNumber":70,"Velocity":68,"Duration":127223,"SoundDuration":127223,"Delta":48550820},{"NoteNumber":50,"Velocity":52,"Duration":127223,"SoundDuration":127223,"Delta":48550820},{"NoteNumber":76,"Velocity":73,"Duration":126399,"SoundDuration":126399,"Delta":48678043},{"NoteNumber":77,"Velocity":70,"Duration":124854,"SoundDuration":124854,"Delta":48804443},{"NoteNumber":68,"Velocity":67,"Duration":187281,"SoundDuration":187281,"Delta":48804443},{"NoteNumber":65,"Velocity":67,"Duration":187281,"SoundDuration":187281,"Delta":48804443},{"NoteNumber":58,"Velocity":67,"Duration":187281,"SoundDuration":187281,"Delta":48804443},{"NoteNumber":79,"Velocity":64,"Duration":124854,"SoundDuration":124854,"Delta":48929297},{"NoteNumber":77,"Velocity":80,"Duration":197898,"SoundDuration":197898,"Delta":49054152},{"NoteNumber":80,"Velocity":80,"Duration":197898,"SoundDuration":197898,"Delta":49054152},{"NoteNumber":68,"Velocity":56,"Duration":197898,"SoundDuration":197898,"Delta":49054152},{"NoteNumber":65,"Velocity":56,"Duration":197898,"SoundDuration":197898,"Delta":49054152},{"NoteNumber":58,"Velocity":56,"Duration":197898,"SoundDuration":197898,"Delta":49054152},{"NoteNumber":82,"Velocity":74,"Duration":380051,"SoundDuration":380051,"Delta":49318016},{"NoteNumber":79,"Velocity":74,"Duration":380051,"SoundDuration":380051,"Delta":49318016},{"NoteNumber":73,"Velocity":62,"Duration":380051,"SoundDuration":380051,"Delta":49318016},{"NoteNumber":51,"Velocity":66,"Duration":126683,"SoundDuration":126683,"Delta":49318016},{"NoteNumber":67,"Velocity":54,"Duration":126683,"SoundDuration":126683,"Delta":49571384},{"NoteNumber":61,"Velocity":54,"Duration":126683,"SoundDuration":126683,"Delta":49571384},{"NoteNumber":58,"Velocity":54,"Duration":126683,"SoundDuration":126683,"Delta":49571384},{"NoteNumber":79,"Velocity":44,"Duration":145985,"SoundDuration":145985,"Delta":49698068},{"NoteNumber":82,"Velocity":44,"Duration":145985,"SoundDuration":145985,"Delta":49698068},{"NoteNumber":73,"Velocity":62,"Duration":284359,"SoundDuration":284359,"Delta":49844053},{"NoteNumber":52,"Velocity":42,"Duration":284359,"SoundDuration":284359,"Delta":49844053},{"NoteNumber":82,"Velocity":52,"Duration":142179,"SoundDuration":142179,"Delta":49986233},{"NoteNumber":79,"Velocity":52,"Duration":142179,"SoundDuration":142179,"Delta":49986233},{"NoteNumber":73,"Velocity":48,"Duration":510038,"SoundDuration":510038,"Delta":50128413},{"NoteNumber":53,"Velocity":20,"Duration":129949,"SoundDuration":129949,"Delta":50128413},{"NoteNumber":82,"Velocity":56,"Duration":140505,"SoundDuration":140505,"Delta":50258362},{"NoteNumber":84,"Velocity":54,"Duration":136972,"SoundDuration":136972,"Delta":50388311},{"NoteNumber":65,"Velocity":32,"Duration":126683,"SoundDuration":126683,"Delta":50388311},{"NoteNumber":56,"Velocity":32,"Duration":126683,"SoundDuration":126683,"Delta":50388311},{"NoteNumber":82,"Velocity":51,"Duration":134356,"SoundDuration":134356,"Delta":50514995},{"NoteNumber":72,"Velocity":56,"Duration":130798,"SoundDuration":130798,"Delta":50638452},{"NoteNumber":80,"Velocity":56,"Duration":130798,"SoundDuration":130798,"Delta":50638452},{"NoteNumber":44,"Velocity":30,"Duration":130798,"SoundDuration":130798,"Delta":50638452},{"NoteNumber":71,"Velocity":47,"Duration":509686,"SoundDuration":509686,"Delta":50900049},{"NoteNumber":46,"Velocity":37,"Duration":129120,"SoundDuration":129120,"Delta":50900049},{"NoteNumber":80,"Velocity":51,"Duration":139722,"SoundDuration":139722,"Delta":51029170},{"NoteNumber":82,"Velocity":54,"Duration":137572,"SoundDuration":137572,"Delta":51158291},{"NoteNumber":63,"Velocity":29,"Duration":189332,"SoundDuration":189332,"Delta":51158291},{"NoteNumber":55,"Velocity":29,"Duration":189332,"SoundDuration":189332,"Delta":51158291},{"NoteNumber":80,"Velocity":50,"Duration":135265,"SoundDuration":135265,"Delta":51285512},{"NoteNumber":70,"Velocity":50,"Duration":132508,"SoundDuration":132508,"Delta":51409736},{"NoteNumber":79,"Velocity":50,"Duration":132508,"SoundDuration":132508,"Delta":51409736},{"NoteNumber":63,"Velocity":34,"Duration":132508,"SoundDuration":132508,"Delta":51409736},{"NoteNumber":55,"Velocity":34,"Duration":132508,"SoundDuration":132508,"Delta":51409736},{"NoteNumber":70,"Velocity":63,"Duration":555627,"SoundDuration":555627,"Delta":51674754},{"NoteNumber":46,"Velocity":33,"Duration":137318,"SoundDuration":137318,"Delta":51674754},{"NoteNumber":79,"Velocity":46,"Duration":149026,"SoundDuration":149026,"Delta":51812072},{"NoteNumber":80,"Velocity":59,"Duration":152203,"SoundDuration":152203,"Delta":51949391},{"NoteNumber":62,"Velocity":33,"Duration":280991,"SoundDuration":280991,"Delta":51949391},{"NoteNumber":53,"Velocity":33,"Duration":280991,"SoundDuration":280991,"Delta":51949391},{"NoteNumber":79,"Velocity":54,"Duration":152510,"SoundDuration":152510,"Delta":52089886},{"NoteNumber":68,"Velocity":50,"Duration":288364,"SoundDuration":288364,"Delta":52230382},{"NoteNumber":77,"Velocity":50,"Duration":288364,"SoundDuration":288364,"Delta":52230382},{"NoteNumber":62,"Velocity":41,"Duration":288364,"SoundDuration":288364,"Delta":52230382},{"NoteNumber":58,"Velocity":41,"Duration":567433,"SoundDuration":567433,"Delta":52230382},{"NoteNumber":67,"Velocity":45,"Duration":139535,"SoundDuration":139535,"Delta":52518746},{"NoteNumber":75,"Velocity":45,"Duration":139535,"SoundDuration":139535,"Delta":52518746},{"NoteNumber":63,"Velocity":36,"Duration":279069,"SoundDuration":279069,"Delta":52518746},{"NoteNumber":51,"Velocity":36,"Duration":279069,"SoundDuration":279069,"Delta":52518746},{"NoteNumber":75,"Velocity":59,"Duration":66400,"SoundDuration":66400,"Delta":52797816},{"NoteNumber":75,"Velocity":52,"Duration":66400,"SoundDuration":66400,"Delta":52930618},{"NoteNumber":75,"Velocity":61,"Duration":66400,"SoundDuration":66400,"Delta":53063420},{"NoteNumber":51,"Velocity":32,"Duration":265603,"SoundDuration":265603,"Delta":53063420},{"NoteNumber":61,"Velocity":32,"Duration":265603,"SoundDuration":265603,"Delta":53063420},{"NoteNumber":55,"Velocity":32,"Duration":265603,"SoundDuration":265603,"Delta":53063420},{"NoteNumber":75,"Velocity":57,"Duration":66400,"SoundDuration":66400,"Delta":53196222},{"NoteNumber":75,"Velocity":64,"Duration":65821,"SoundDuration":65821,"Delta":53329024},{"NoteNumber":44,"Velocity":27,"Duration":263285,"SoundDuration":263285,"Delta":53329024},{"NoteNumber":75,"Velocity":67,"Duration":65821,"SoundDuration":65821,"Delta":53460666},{"NoteNumber":75,"Velocity":70,"Duration":65821,"SoundDuration":65821,"Delta":53592309},{"NoteNumber":60,"Velocity":27,"Duration":197463,"SoundDuration":197463,"Delta":53592309},{"NoteNumber":56,"Velocity":27,"Duration":197463,"SoundDuration":197463,"Delta":53592309},{"NoteNumber":51,"Velocity":27,"Duration":197463,"SoundDuration":197463,"Delta":53592309},{"NoteNumber":75,"Velocity":64,"Duration":65821,"SoundDuration":65821,"Delta":53723951},{"NoteNumber":75,"Velocity":71,"Duration":65821,"SoundDuration":65821,"Delta":53855594},{"NoteNumber":60,"Velocity":44,"Duration":200766,"SoundDuration":200766,"Delta":53855594},{"NoteNumber":56,"Velocity":44,"Duration":200766,"SoundDuration":200766,"Delta":53855594},{"NoteNumber":51,"Velocity":44,"Duration":200766,"SoundDuration":200766,"Delta":53855594},{"NoteNumber":75,"Velocity":67,"Duration":69124,"SoundDuration":69124,"Delta":53987236},{"NoteNumber":77,"Velocity":61,"Duration":123589,"SoundDuration":123589,"Delta":54125485},{"NoteNumber":44,"Velocity":39,"Duration":247177,"SoundDuration":247177,"Delta":54125485},{"NoteNumber":75,"Velocity":57,"Duration":123588,"SoundDuration":123588,"Delta":54249074},{"NoteNumber":72,"Velocity":50,"Duration":123589,"SoundDuration":123589,"Delta":54372663},{"NoteNumber":60,"Velocity":35,"Duration":185383,"SoundDuration":185383,"Delta":54372663},{"NoteNumber":56,"Velocity":35,"Duration":185383,"SoundDuration":185383,"Delta":54372663},{"NoteNumber":51,"Velocity":35,"Duration":185383,"SoundDuration":185383,"Delta":54372663},{"NoteNumber":68,"Velocity":56,"Duration":123589,"SoundDuration":123589,"Delta":54496252},{"NoteNumber":63,"Velocity":51,"Duration":123588,"SoundDuration":123588,"Delta":54619841},{"NoteNumber":51,"Velocity":33,"Duration":185383,"SoundDuration":185383,"Delta":54619841},{"NoteNumber":56,"Velocity":33,"Duration":185383,"SoundDuration":185383,"Delta":54619841},{"NoteNumber":60,"Velocity":33,"Duration":185383,"SoundDuration":185383,"Delta":54619841},{"NoteNumber":64,"Velocity":55,"Duration":123589,"SoundDuration":123589,"Delta":54743430},{"NoteNumber":65,"Velocity":68,"Duration":61667,"SoundDuration":61667,"Delta":54867019},{"NoteNumber":44,"Velocity":47,"Duration":247175,"SoundDuration":247175,"Delta":54867019},{"NoteNumber":65,"Velocity":62,"Duration":61836,"SoundDuration":61836,"Delta":54990439},{"NoteNumber":65,"Velocity":62,"Duration":62047,"SoundDuration":62047,"Delta":55114195},{"NoteNumber":59,"Velocity":29,"Duration":186391,"SoundDuration":186391,"Delta":55114195},{"NoteNumber":56,"Velocity":29,"Duration":186391,"SoundDuration":186391,"Delta":55114195},{"NoteNumber":50,"Velocity":29,"Duration":186391,"SoundDuration":186391,"Delta":55114195},{"NoteNumber":65,"Velocity":53,"Duration":62213,"SoundDuration":62213,"Delta":55238372},{"NoteNumber":65,"Velocity":55,"Duration":62427,"SoundDuration":62427,"Delta":55362886},{"NoteNumber":50,"Velocity":29,"Duration":187545,"SoundDuration":187545,"Delta":55362886},{"NoteNumber":56,"Velocity":29,"Duration":187545,"SoundDuration":187545,"Delta":55362886},{"NoteNumber":59,"Velocity":29,"Duration":187545,"SoundDuration":187545,"Delta":55362886},{"NoteNumber":65,"Velocity":62,"Duration":62602,"SoundDuration":62602,"Delta":55487829},{"NoteNumber":63,"Velocity":68,"Duration":125572,"SoundDuration":125572,"Delta":55613120},{"NoteNumber":44,"Velocity":43,"Duration":250820,"SoundDuration":250820,"Delta":55613120},{"NoteNumber":68,"Velocity":55,"Duration":125247,"SoundDuration":125247,"Delta":55738693},{"NoteNumber":72,"Velocity":50,"Duration":124920,"SoundDuration":124920,"Delta":55863941},{"NoteNumber":60,"Velocity":31,"Duration":187220,"SoundDuration":187220,"Delta":55863941},{"NoteNumber":56,"Velocity":31,"Duration":187220,"SoundDuration":187220,"Delta":55863941},{"NoteNumber":51,"Velocity":31,"Duration":187220,"SoundDuration":187220,"Delta":55863941},{"NoteNumber":75,"Velocity":58,"Duration":124535,"SoundDuration":124535,"Delta":55988861},{"NoteNumber":80,"Velocity":59,"Duration":124218,"SoundDuration":124218,"Delta":56113397},{"NoteNumber":60,"Velocity":38,"Duration":186202,"SoundDuration":186202,"Delta":56113397},{"NoteNumber":56,"Velocity":38,"Duration":186202,"SoundDuration":186202,"Delta":56113397},{"NoteNumber":51,"Velocity":38,"Duration":186202,"SoundDuration":186202,"Delta":56113397},{"NoteNumber":76,"Velocity":56,"Duration":123882,"SoundDuration":123882,"Delta":56237615},{"NoteNumber":77,"Velocity":41,"Duration":63341,"SoundDuration":63341,"Delta":56361498},{"NoteNumber":50,"Velocity":44,"Duration":253368,"SoundDuration":253368,"Delta":56361498},{"NoteNumber":77,"Velocity":63,"Duration":63342,"SoundDuration":63342,"Delta":56488182},{"NoteNumber":77,"Velocity":61,"Duration":63341,"SoundDuration":63341,"Delta":56614866},{"NoteNumber":65,"Velocity":29,"Duration":190025,"SoundDuration":190025,"Delta":56614866},{"NoteNumber":59,"Velocity":29,"Duration":190025,"SoundDuration":190025,"Delta":56614866},{"NoteNumber":56,"Velocity":29,"Duration":190025,"SoundDuration":190025,"Delta":56614866},{"NoteNumber":77,"Velocity":63,"Duration":63341,"SoundDuration":63341,"Delta":56741550},{"NoteNumber":77,"Velocity":58,"Duration":63342,"SoundDuration":63342,"Delta":56868234},{"NoteNumber":65,"Velocity":40,"Duration":190026,"SoundDuration":190026,"Delta":56868234},{"NoteNumber":59,"Velocity":40,"Duration":190026,"SoundDuration":190026,"Delta":56868234},{"NoteNumber":56,"Velocity":40,"Duration":190026,"SoundDuration":190026,"Delta":56868234},{"NoteNumber":77,"Velocity":54,"Duration":63341,"SoundDuration":63341,"Delta":56994918},{"NoteNumber":77,"Velocity":58,"Duration":88140,"SoundDuration":88140,"Delta":57121602},{"NoteNumber":51,"Velocity":45,"Duration":264422,"SoundDuration":264422,"Delta":57121602},{"NoteNumber":79,"Velocity":52,"Duration":88140,"SoundDuration":88140,"Delta":57209742},{"NoteNumber":77,"Velocity":52,"Duration":88140,"SoundDuration":88140,"Delta":57297883},{"NoteNumber":75,"Velocity":55,"Duration":131573,"SoundDuration":131573,"Delta":57386024},{"NoteNumber":60,"Velocity":31,"Duration":263813,"SoundDuration":263813,"Delta":57386024},{"NoteNumber":63,"Velocity":31,"Duration":263813,"SoundDuration":263813,"Delta":57386024},{"NoteNumber":68,"Velocity":31,"Duration":263813,"SoundDuration":263813,"Delta":57386024},{"NoteNumber":80,"Velocity":68,"Duration":132240,"SoundDuration":132240,"Delta":57517597},{"NoteNumber":84,"Velocity":49,"Duration":133019,"SoundDuration":133019,"Delta":57649837},{"NoteNumber":60,"Velocity":50,"Duration":133019,"SoundDuration":133019,"Delta":57649837},{"NoteNumber":63,"Velocity":50,"Duration":133019,"SoundDuration":133019,"Delta":57649837},{"NoteNumber":68,"Velocity":50,"Duration":133019,"SoundDuration":133019,"Delta":57649837},{"NoteNumber":89,"Velocity":55,"Duration":258242,"SoundDuration":258242,"Delta":57916562},{"NoteNumber":51,"Velocity":40,"Duration":258242,"SoundDuration":258242,"Delta":57916562},{"NoteNumber":87,"Velocity":55,"Duration":127752,"SoundDuration":127752,"Delta":58174804},{"NoteNumber":61,"Velocity":35,"Duration":191628,"SoundDuration":191628,"Delta":58174804},{"NoteNumber":63,"Velocity":35,"Duration":191628,"SoundDuration":191628,"Delta":58174804},{"NoteNumber":67,"Velocity":35,"Duration":191628,"SoundDuration":191628,"Delta":58174804},{"NoteNumber":85,"Velocity":51,"Duration":127752,"SoundDuration":127752,"Delta":58302556},{"NoteNumber":79,"Velocity":55,"Duration":131642,"SoundDuration":131642,"Delta":58430308},{"NoteNumber":61,"Velocity":37,"Duration":131642,"SoundDuration":131642,"Delta":58430308},{"NoteNumber":63,"Velocity":37,"Duration":131642,"SoundDuration":131642,"Delta":58430308},{"NoteNumber":67,"Velocity":37,"Duration":131642,"SoundDuration":131642,"Delta":58430308},{"NoteNumber":82,"Velocity":60,"Duration":258242,"SoundDuration":258242,"Delta":58693593},{"NoteNumber":56,"Velocity":45,"Duration":776448,"SoundDuration":776448,"Delta":58693593},{"NoteNumber":80,"Velocity":58,"Duration":128024,"SoundDuration":128024,"Delta":58951835},{"NoteNumber":68,"Velocity":37,"Duration":192036,"SoundDuration":192036,"Delta":58951835},{"NoteNumber":63,"Velocity":37,"Duration":192036,"SoundDuration":192036,"Delta":58951835},{"NoteNumber":60,"Velocity":37,"Duration":192036,"SoundDuration":192036,"Delta":58951835},{"NoteNumber":75,"Velocity":50,"Duration":128024,"SoundDuration":128024,"Delta":59079859},{"NoteNumber":72,"Velocity":38,"Duration":131078,"SoundDuration":131078,"Delta":59207884},{"NoteNumber":60,"Velocity":45,"Duration":131078,"SoundDuration":131078,"Delta":59207884},{"NoteNumber":63,"Velocity":45,"Duration":131078,"SoundDuration":131078,"Delta":59207884},{"NoteNumber":68,"Velocity":45,"Duration":131078,"SoundDuration":131078,"Delta":59207884},{"NoteNumber":75,"Velocity":48,"Duration":65821,"SoundDuration":65821,"Delta":59470042},{"NoteNumber":44,"Velocity":27,"Duration":263285,"SoundDuration":263285,"Delta":59470042},{"NoteNumber":75,"Velocity":55,"Duration":65821,"SoundDuration":65821,"Delta":59601684},{"NoteNumber":75,"Velocity":66,"Duration":65821,"SoundDuration":65821,"Delta":59733327},{"NoteNumber":60,"Velocity":34,"Duration":197463,"SoundDuration":197463,"Delta":59733327},{"NoteNumber":56,"Velocity":34,"Duration":197463,"SoundDuration":197463,"Delta":59733327},{"NoteNumber":51,"Velocity":34,"Duration":197463,"SoundDuration":197463,"Delta":59733327},{"NoteNumber":75,"Velocity":73,"Duration":65821,"SoundDuration":65821,"Delta":59864969},{"NoteNumber":75,"Velocity":69,"Duration":65821,"SoundDuration":65821,"Delta":59996612},{"NoteNumber":60,"Velocity":41,"Duration":200766,"SoundDuration":200766,"Delta":59996612},{"NoteNumber":56,"Velocity":41,"Duration":200766,"SoundDuration":200766,"Delta":59996612},{"NoteNumber":51,"Velocity":41,"Duration":200766,"SoundDuration":200766,"Delta":59996612},{"NoteNumber":75,"Velocity":64,"Duration":69124,"SoundDuration":69124,"Delta":60128254},{"NoteNumber":77,"Velocity":53,"Duration":123589,"SoundDuration":123589,"Delta":60266503},{"NoteNumber":44,"Velocity":33,"Duration":247177,"SoundDuration":247177,"Delta":60266503},{"NoteNumber":75,"Velocity":61,"Duration":123588,"SoundDuration":123588,"Delta":60390092},{"NoteNumber":72,"Velocity":50,"Duration":123589,"SoundDuration":123589,"Delta":60513681},{"NoteNumber":60,"Velocity":37,"Duration":185383,"SoundDuration":185383,"Delta":60513681},{"NoteNumber":56,"Velocity":37,"Duration":185383,"SoundDuration":185383,"Delta":60513681},{"NoteNumber":51,"Velocity":37,"Duration":185383,"SoundDuration":185383,"Delta":60513681},{"NoteNumber":68,"Velocity":40,"Duration":123589,"SoundDuration":123589,"Delta":60637270},{"NoteNumber":63,"Velocity":48,"Duration":123588,"SoundDuration":123588,"Delta":60760859},{"NoteNumber":51,"Velocity":37,"Duration":185383,"SoundDuration":185383,"Delta":60760859},{"NoteNumber":56,"Velocity":37,"Duration":185383,"SoundDuration":185383,"Delta":60760859},{"NoteNumber":60,"Velocity":37,"Duration":185383,"SoundDuration":185383,"Delta":60760859},{"NoteNumber":64,"Velocity":43,"Duration":123589,"SoundDuration":123589,"Delta":60884448},{"NoteNumber":65,"Velocity":43,"Duration":61667,"SoundDuration":61667,"Delta":61008037},{"NoteNumber":44,"Velocity":35,"Duration":246670,"SoundDuration":246670,"Delta":61008037},{"NoteNumber":65,"Velocity":50,"Duration":61667,"SoundDuration":61667,"Delta":61131372},{"NoteNumber":65,"Velocity":53,"Duration":61667,"SoundDuration":61667,"Delta":61254707},{"NoteNumber":59,"Velocity":35,"Duration":185002,"SoundDuration":185002,"Delta":61254707},{"NoteNumber":56,"Velocity":35,"Duration":185002,"SoundDuration":185002,"Delta":61254707},{"NoteNumber":50,"Velocity":35,"Duration":185002,"SoundDuration":185002,"Delta":61254707},{"NoteNumber":65,"Velocity":56,"Duration":61667,"SoundDuration":61667,"Delta":61378042},{"NoteNumber":65,"Velocity":46,"Duration":61667,"SoundDuration":61667,"Delta":61501377},{"NoteNumber":50,"Velocity":35,"Duration":185002,"SoundDuration":185002,"Delta":61501377},{"NoteNumber":56,"Velocity":35,"Duration":185002,"SoundDuration":185002,"Delta":61501377},{"NoteNumber":59,"Velocity":35,"Duration":185002,"SoundDuration":185002,"Delta":61501377},{"NoteNumber":65,"Velocity":43,"Duration":61667,"SoundDuration":61667,"Delta":61624712},{"NoteNumber":63,"Velocity":48,"Duration":123335,"SoundDuration":123335,"Delta":61748047},{"NoteNumber":44,"Velocity":38,"Duration":246670,"SoundDuration":246670,"Delta":61748047},{"NoteNumber":68,"Velocity":48,"Duration":123334,"SoundDuration":123334,"Delta":61871382},{"NoteNumber":72,"Velocity":45,"Duration":123334,"SoundDuration":123334,"Delta":61994717},{"NoteNumber":60,"Velocity":28,"Duration":185002,"SoundDuration":185002,"Delta":61994717},{"NoteNumber":56,"Velocity":28,"Duration":185002,"SoundDuration":185002,"Delta":61994717},{"NoteNumber":51,"Velocity":28,"Duration":185002,"SoundDuration":185002,"Delta":61994717},{"NoteNumber":75,"Velocity":61,"Duration":123335,"SoundDuration":123335,"Delta":62118052},{"NoteNumber":80,"Velocity":52,"Duration":123334,"SoundDuration":123334,"Delta":62241387},{"NoteNumber":60,"Velocity":41,"Duration":185002,"SoundDuration":185002,"Delta":62241387},{"NoteNumber":56,"Velocity":41,"Duration":185002,"SoundDuration":185002,"Delta":62241387},{"NoteNumber":51,"Velocity":41,"Duration":185002,"SoundDuration":185002,"Delta":62241387},{"NoteNumber":76,"Velocity":45,"Duration":123356,"SoundDuration":123356,"Delta":62364722},{"NoteNumber":77,"Velocity":50,"Duration":63341,"SoundDuration":63341,"Delta":62488078},{"NoteNumber":50,"Velocity":32,"Duration":253368,"SoundDuration":253368,"Delta":62488078},{"NoteNumber":77,"Velocity":45,"Duration":63342,"SoundDuration":63342,"Delta":62614762},{"NoteNumber":77,"Velocity":60,"Duration":63341,"SoundDuration":63341,"Delta":62741446},{"NoteNumber":65,"Velocity":25,"Duration":190025,"SoundDuration":190025,"Delta":62741446},{"NoteNumber":59,"Velocity":25,"Duration":190025,"SoundDuration":190025,"Delta":62741446},{"NoteNumber":56,"Velocity":25,"Duration":190025,"SoundDuration":190025,"Delta":62741446},{"NoteNumber":77,"Velocity":65,"Duration":63341,"SoundDuration":63341,"Delta":62868130},{"NoteNumber":77,"Velocity":66,"Duration":63342,"SoundDuration":63342,"Delta":62994814},{"NoteNumber":65,"Velocity":31,"Duration":190026,"SoundDuration":190026,"Delta":62994814},{"NoteNumber":59,"Velocity":31,"Duration":190026,"SoundDuration":190026,"Delta":62994814},{"NoteNumber":56,"Velocity":31,"Duration":190026,"SoundDuration":190026,"Delta":62994814},{"NoteNumber":77,"Velocity":51,"Duration":63341,"SoundDuration":63341,"Delta":63121498},{"NoteNumber":77,"Velocity":70,"Duration":88140,"SoundDuration":88140,"Delta":63248182},{"NoteNumber":51,"Velocity":33,"Duration":794960,"SoundDuration":794960,"Delta":63248182},{"NoteNumber":79,"Velocity":55,"Duration":88140,"SoundDuration":88140,"Delta":63336323},{"NoteNumber":77,"Velocity":48,"Duration":88140,"SoundDuration":88140,"Delta":63424464},{"NoteNumber":75,"Velocity":55,"Duration":131573,"SoundDuration":131573,"Delta":63512604},{"NoteNumber":60,"Velocity":25,"Duration":197608,"SoundDuration":197608,"Delta":63512604},{"NoteNumber":63,"Velocity":25,"Duration":197608,"SoundDuration":197608,"Delta":63512604},{"NoteNumber":56,"Velocity":25,"Duration":197608,"SoundDuration":197608,"Delta":63512604},{"NoteNumber":80,"Velocity":51,"Duration":132240,"SoundDuration":132240,"Delta":63644177},{"NoteNumber":84,"Velocity":46,"Duration":133019,"SoundDuration":133019,"Delta":63776418},{"NoteNumber":60,"Velocity":33,"Duration":133019,"SoundDuration":133019,"Delta":63776418},{"NoteNumber":63,"Velocity":33,"Duration":133019,"SoundDuration":133019,"Delta":63776418},{"NoteNumber":56,"Velocity":33,"Duration":133019,"SoundDuration":133019,"Delta":63776418},{"NoteNumber":89,"Velocity":55,"Duration":258241,"SoundDuration":258241,"Delta":64043142},{"NoteNumber":51,"Velocity":44,"Duration":777030,"SoundDuration":777030,"Delta":64043142},{"NoteNumber":87,"Velocity":42,"Duration":127752,"SoundDuration":127752,"Delta":64301384},{"NoteNumber":61,"Velocity":25,"Duration":191627,"SoundDuration":191627,"Delta":64301384},{"NoteNumber":63,"Velocity":25,"Duration":191627,"SoundDuration":191627,"Delta":64301384},{"NoteNumber":67,"Velocity":25,"Duration":191627,"SoundDuration":191627,"Delta":64301384},{"NoteNumber":85,"Velocity":39,"Duration":127752,"SoundDuration":127752,"Delta":64429136},{"NoteNumber":79,"Velocity":47,"Duration":131642,"SoundDuration":131642,"Delta":64556888},{"NoteNumber":61,"Velocity":25,"Duration":131642,"SoundDuration":131642,"Delta":64556888},{"NoteNumber":63,"Velocity":25,"Duration":131642,"SoundDuration":131642,"Delta":64556888},{"NoteNumber":67,"Velocity":25,"Duration":131642,"SoundDuration":131642,"Delta":64556888},{"NoteNumber":80,"Velocity":57,"Duration":526570,"SoundDuration":526570,"Delta":64820173},{"NoteNumber":44,"Velocity":17,"Duration":263285,"SoundDuration":263285,"Delta":64820173},{"NoteNumber":51,"Velocity":24,"Duration":263284,"SoundDuration":263284,"Delta":65083458},{"NoteNumber":60,"Velocity":24,"Duration":263284,"SoundDuration":263284,"Delta":65083458},{"NoteNumber":68,"Velocity":55,"Duration":300752,"SoundDuration":300752,"Delta":65346743},{"NoteNumber":75,"Velocity":62,"Duration":541732,"SoundDuration":541732,"Delta":65647495},{"NoteNumber":78,"Velocity":62,"Duration":541732,"SoundDuration":541732,"Delta":65647495},{"NoteNumber":44,"Velocity":34,"Duration":132743,"SoundDuration":132743,"Delta":65647495},{"NoteNumber":60,"Velocity":44,"Duration":276245,"SoundDuration":276245,"Delta":65912982},{"NoteNumber":51,"Velocity":44,"Duration":276245,"SoundDuration":276245,"Delta":65912982},{"NoteNumber":71,"Velocity":48,"Duration":269378,"SoundDuration":269378,"Delta":66178469},{"NoteNumber":74,"Velocity":48,"Duration":269378,"SoundDuration":269378,"Delta":66178469},{"NoteNumber":66,"Velocity":37,"Duration":258208,"SoundDuration":258208,"Delta":66178469},{"NoteNumber":56,"Velocity":37,"Duration":258208,"SoundDuration":258208,"Delta":66178469},{"NoteNumber":72,"Velocity":48,"Duration":134030,"SoundDuration":134030,"Delta":66436678},{"NoteNumber":75,"Velocity":48,"Duration":134030,"SoundDuration":134030,"Delta":66436678},{"NoteNumber":44,"Velocity":37,"Duration":134030,"SoundDuration":134030,"Delta":66436678},{"NoteNumber":68,"Velocity":50,"Duration":64691,"SoundDuration":64691,"Delta":66704739},{"NoteNumber":60,"Velocity":29,"Duration":266405,"SoundDuration":266405,"Delta":66704739},{"NoteNumber":51,"Velocity":29,"Duration":266405,"SoundDuration":266405,"Delta":66704739},{"NoteNumber":68,"Velocity":42,"Duration":63025,"SoundDuration":63025,"Delta":66834122},{"NoteNumber":68,"Velocity":56,"Duration":270554,"SoundDuration":270554,"Delta":66960173},{"NoteNumber":66,"Velocity":29,"Duration":270554,"SoundDuration":270554,"Delta":66960173},{"NoteNumber":56,"Velocity":29,"Duration":270554,"SoundDuration":270554,"Delta":66960173},{"NoteNumber":78,"Velocity":60,"Duration":549311,"SoundDuration":549311,"Delta":67230727},{"NoteNumber":82,"Velocity":60,"Duration":549311,"SoundDuration":549311,"Delta":67230727},{"NoteNumber":49,"Velocity":37,"Duration":134643,"SoundDuration":134643,"Delta":67230727},{"NoteNumber":53,"Velocity":34,"Duration":280023,"SoundDuration":280023,"Delta":67500015},{"NoteNumber":61,"Velocity":34,"Duration":280023,"SoundDuration":280023,"Delta":67500015},{"NoteNumber":76,"Velocity":48,"Duration":268975,"SoundDuration":268975,"Delta":67769303},{"NoteNumber":79,"Velocity":48,"Duration":268975,"SoundDuration":268975,"Delta":67769303},{"NoteNumber":65,"Velocity":41,"Duration":257654,"SoundDuration":257654,"Delta":67769303},{"NoteNumber":56,"Velocity":41,"Duration":257654,"SoundDuration":257654,"Delta":67769303},{"NoteNumber":77,"Velocity":49,"Duration":135863,"SoundDuration":135863,"Delta":68026957},{"NoteNumber":80,"Velocity":49,"Duration":135863,"SoundDuration":135863,"Delta":68026957},{"NoteNumber":49,"Velocity":31,"Duration":135863,"SoundDuration":135863,"Delta":68026957},{"NoteNumber":68,"Velocity":49,"Duration":64413,"SoundDuration":64413,"Delta":68298684},{"NoteNumber":61,"Velocity":26,"Duration":265469,"SoundDuration":265469,"Delta":68298684},{"NoteNumber":53,"Velocity":26,"Duration":265469,"SoundDuration":265469,"Delta":68298684},{"NoteNumber":68,"Velocity":42,"Duration":62761,"SoundDuration":62761,"Delta":68427511},{"NoteNumber":68,"Velocity":55,"Duration":266868,"SoundDuration":266868,"Delta":68553034},{"NoteNumber":65,"Velocity":32,"Duration":266868,"SoundDuration":266868,"Delta":68553034},{"NoteNumber":56,"Velocity":32,"Duration":266868,"SoundDuration":266868,"Delta":68553034},{"NoteNumber":75,"Velocity":58,"Duration":550521,"SoundDuration":550521,"Delta":68819902},{"NoteNumber":78,"Velocity":58,"Duration":550521,"SoundDuration":550521,"Delta":68819902},{"NoteNumber":44,"Velocity":40,"Duration":134946,"SoundDuration":134946,"Delta":68819902},{"NoteNumber":60,"Velocity":35,"Duration":280628,"SoundDuration":280628,"Delta":69089795},{"NoteNumber":51,"Velocity":35,"Duration":280628,"SoundDuration":280628,"Delta":69089795},{"NoteNumber":71,"Velocity":44,"Duration":268823,"SoundDuration":268823,"Delta":69359688},{"NoteNumber":74,"Velocity":44,"Duration":268823,"SoundDuration":268823,"Delta":69359688},{"NoteNumber":66,"Velocity":41,"Duration":257654,"SoundDuration":257654,"Delta":69359688},{"NoteNumber":56,"Velocity":41,"Duration":257654,"SoundDuration":257654,"Delta":69359688},{"NoteNumber":72,"Velocity":48,"Duration":134030,"SoundDuration":134030,"Delta":69617342},{"NoteNumber":75,"Velocity":48,"Duration":134030,"SoundDuration":134030,"Delta":69617342},{"NoteNumber":44,"Velocity":37,"Duration":134030,"SoundDuration":134030,"Delta":69617342},{"NoteNumber":68,"Velocity":51,"Duration":66569,"SoundDuration":66569,"Delta":69885403},{"NoteNumber":60,"Velocity":25,"Duration":277649,"SoundDuration":277649,"Delta":69885403},{"NoteNumber":51,"Velocity":25,"Duration":277649,"SoundDuration":277649,"Delta":69885403},{"NoteNumber":68,"Velocity":43,"Duration":66569,"SoundDuration":66569,"Delta":70018541},{"NoteNumber":68,"Velocity":52,"Duration":272975,"SoundDuration":272975,"Delta":70151679},{"NoteNumber":56,"Velocity":37,"Duration":272975,"SoundDuration":272975,"Delta":70151679},{"NoteNumber":66,"Velocity":37,"Duration":272975,"SoundDuration":272975,"Delta":70151679},{"NoteNumber":70,"Velocity":53,"Duration":295567,"SoundDuration":295567,"Delta":70424654},{"NoteNumber":78,"Velocity":53,"Duration":295567,"SoundDuration":295567,"Delta":70424654},{"NoteNumber":49,"Velocity":35,"Duration":857309,"SoundDuration":857309,"Delta":70424654},{"NoteNumber":68,"Velocity":45,"Duration":287769,"SoundDuration":287769,"Delta":70720221},{"NoteNumber":77,"Velocity":45,"Duration":287769,"SoundDuration":287769,"Delta":70720221},{"NoteNumber":56,"Velocity":37,"Duration":287769,"SoundDuration":287769,"Delta":70720221},{"NoteNumber":66,"Velocity":49,"Duration":273972,"SoundDuration":273972,"Delta":71007991},{"NoteNumber":75,"Velocity":49,"Duration":273972,"SoundDuration":273972,"Delta":71007991},{"NoteNumber":60,"Velocity":18,"Duration":273972,"SoundDuration":273972,"Delta":71007991},{"NoteNumber":65,"Velocity":47,"Duration":142857,"SoundDuration":142857,"Delta":71281964},{"NoteNumber":73,"Velocity":47,"Duration":142857,"SoundDuration":142857,"Delta":71281964},{"NoteNumber":61,"Velocity":29,"Duration":142857,"SoundDuration":142857,"Delta":71281964},{"NoteNumber":49,"Velocity":29,"Duration":142857,"SoundDuration":142857,"Delta":71281964},{"NoteNumber":68,"Velocity":40,"Duration":69518,"SoundDuration":69518,"Delta":71567678},{"NoteNumber":53,"Velocity":36,"Duration":289552,"SoundDuration":289552,"Delta":71567678},{"NoteNumber":61,"Velocity":36,"Duration":289552,"SoundDuration":289552,"Delta":71567678},{"NoteNumber":68,"Velocity":36,"Duration":69518,"SoundDuration":69518,"Delta":71706715},{"NoteNumber":68,"Velocity":40,"Duration":287001,"SoundDuration":287001,"Delta":71845752},{"NoteNumber":65,"Velocity":36,"Duration":287001,"SoundDuration":287001,"Delta":71845752},{"NoteNumber":56,"Velocity":36,"Duration":287001,"SoundDuration":287001,"Delta":71845752},{"NoteNumber":75,"Velocity":47,"Duration":544494,"SoundDuration":544494,"Delta":72132753},{"NoteNumber":78,"Velocity":47,"Duration":544494,"SoundDuration":544494,"Delta":72132753},{"NoteNumber":44,"Velocity":36,"Duration":133433,"SoundDuration":133433,"Delta":72132753},{"NoteNumber":60,"Velocity":31,"Duration":277626,"SoundDuration":277626,"Delta":72399621},{"NoteNumber":51,"Velocity":31,"Duration":277626,"SoundDuration":277626,"Delta":72399621},{"NoteNumber":71,"Velocity":42,"Duration":269378,"SoundDuration":269378,"Delta":72666489},{"NoteNumber":74,"Velocity":42,"Duration":269378,"SoundDuration":269378,"Delta":72666489},{"NoteNumber":66,"Velocity":39,"Duration":258208,"SoundDuration":258208,"Delta":72666489},{"NoteNumber":56,"Velocity":39,"Duration":258208,"SoundDuration":258208,"Delta":72666489},{"NoteNumber":72,"Velocity":42,"Duration":134030,"SoundDuration":134030,"Delta":72924698},{"NoteNumber":75,"Velocity":42,"Duration":134030,"SoundDuration":134030,"Delta":72924698},{"NoteNumber":44,"Velocity":40,"Duration":134030,"SoundDuration":134030,"Delta":72924698},{"NoteNumber":68,"Velocity":44,"Duration":64691,"SoundDuration":64691,"Delta":73192759},{"NoteNumber":60,"Velocity":36,"Duration":265379,"SoundDuration":265379,"Delta":73192759},{"NoteNumber":51,"Velocity":36,"Duration":265379,"SoundDuration":265379,"Delta":73192759},{"NoteNumber":68,"Velocity":39,"Duration":62500,"SoundDuration":62500,"Delta":73322142},{"NoteNumber":68,"Velocity":53,"Duration":275153,"SoundDuration":275153,"Delta":73447142},{"NoteNumber":66,"Velocity":32,"Duration":275153,"SoundDuration":275153,"Delta":73447142},{"NoteNumber":56,"Velocity":32,"Duration":275153,"SoundDuration":275153,"Delta":73447142},{"NoteNumber":78,"Velocity":64,"Duration":542132,"SoundDuration":542132,"Delta":73722295},{"NoteNumber":82,"Velocity":64,"Duration":542132,"SoundDuration":542132,"Delta":73722295},{"NoteNumber":37,"Velocity":45,"Duration":132843,"SoundDuration":132843,"Delta":73722295},{"NoteNumber":53,"Velocity":30,"Duration":276445,"SoundDuration":276445,"Delta":73987982},{"NoteNumber":61,"Velocity":30,"Duration":276445,"SoundDuration":276445,"Delta":73987982},{"NoteNumber":76,"Velocity":52,"Duration":269530,"SoundDuration":269530,"Delta":74253669},{"NoteNumber":79,"Velocity":52,"Duration":269530,"SoundDuration":269530,"Delta":74253669},{"NoteNumber":65,"Velocity":53,"Duration":258208,"SoundDuration":258208,"Delta":74253669},{"NoteNumber":56,"Velocity":53,"Duration":258208,"SoundDuration":258208,"Delta":74253669},{"NoteNumber":77,"Velocity":52,"Duration":135863,"SoundDuration":135863,"Delta":74511878},{"NoteNumber":80,"Velocity":52,"Duration":135863,"SoundDuration":135863,"Delta":74511878},{"NoteNumber":49,"Velocity":32,"Duration":135863,"SoundDuration":135863,"Delta":74511878},{"NoteNumber":68,"Velocity":45,"Duration":64413,"SoundDuration":64413,"Delta":74783605},{"NoteNumber":61,"Velocity":44,"Duration":265671,"SoundDuration":265671,"Delta":74783605},{"NoteNumber":53,"Velocity":44,"Duration":265671,"SoundDuration":265671,"Delta":74783605},{"NoteNumber":68,"Velocity":36,"Duration":62761,"SoundDuration":62761,"Delta":74912432},{"NoteNumber":68,"Velocity":55,"Duration":271726,"SoundDuration":271726,"Delta":75037955},{"NoteNumber":65,"Velocity":39,"Duration":271726,"SoundDuration":271726,"Delta":75037955},{"NoteNumber":56,"Velocity":39,"Duration":271726,"SoundDuration":271726,"Delta":75037955},{"NoteNumber":80,"Velocity":63,"Duration":132245,"SoundDuration":132245,"Delta":75309682},{"NoteNumber":42,"Velocity":38,"Duration":132245,"SoundDuration":132245,"Delta":75309682},{"NoteNumber":70,"Velocity":63,"Duration":258765,"SoundDuration":258765,"Delta":75574174},{"NoteNumber":62,"Velocity":43,"Duration":270011,"SoundDuration":270011,"Delta":75574174},{"NoteNumber":54,"Velocity":43,"Duration":270011,"SoundDuration":270011,"Delta":75574174},{"NoteNumber":80,"Velocity":49,"Duration":129382,"SoundDuration":129382,"Delta":75703557},{"NoteNumber":78,"Velocity":56,"Duration":666370,"SoundDuration":666370,"Delta":75832940},{"NoteNumber":75,"Velocity":56,"Duration":534993,"SoundDuration":534993,"Delta":75832940},{"NoteNumber":63,"Velocity":37,"Duration":269892,"SoundDuration":269892,"Delta":75832940},{"NoteNumber":58,"Velocity":37,"Duration":269892,"SoundDuration":269892,"Delta":75832940},{"NoteNumber":44,"Velocity":37,"Duration":132549,"SoundDuration":132549,"Delta":76102833},{"NoteNumber":68,"Velocity":53,"Duration":262754,"SoundDuration":262754,"Delta":76367933},{"NoteNumber":60,"Velocity":30,"Duration":274207,"SoundDuration":274207,"Delta":76367933},{"NoteNumber":53,"Velocity":30,"Duration":274207,"SoundDuration":274207,"Delta":76367933},{"NoteNumber":78,"Velocity":46,"Duration":131377,"SoundDuration":131377,"Delta":76499311},{"NoteNumber":73,"Velocity":50,"Duration":544151,"SoundDuration":544151,"Delta":76630688},{"NoteNumber":77,"Velocity":50,"Duration":685162,"SoundDuration":685162,"Delta":76630688},{"NoteNumber":61,"Velocity":46,"Duration":274863,"SoundDuration":274863,"Delta":76630688},{"NoteNumber":56,"Velocity":46,"Duration":274863,"SoundDuration":274863,"Delta":76630688},{"NoteNumber":44,"Velocity":33,"Duration":134643,"SoundDuration":134643,"Delta":76905552},{"NoteNumber":66,"Velocity":40,"Duration":282021,"SoundDuration":282021,"Delta":77174840},{"NoteNumber":60,"Velocity":30,"Duration":282021,"SoundDuration":282021,"Delta":77174840},{"NoteNumber":56,"Velocity":30,"Duration":282021,"SoundDuration":282021,"Delta":77174840},{"NoteNumber":51,"Velocity":30,"Duration":282021,"SoundDuration":282021,"Delta":77174840},{"NoteNumber":77,"Velocity":40,"Duration":141010,"SoundDuration":141010,"Delta":77315851},{"NoteNumber":66,"Velocity":38,"Duration":302769,"SoundDuration":302769,"Delta":77456861},{"NoteNumber":75,"Velocity":38,"Duration":302769,"SoundDuration":302769,"Delta":77456861},{"NoteNumber":60,"Velocity":36,"Duration":302769,"SoundDuration":302769,"Delta":77456861},{"NoteNumber":56,"Velocity":36,"Duration":302769,"SoundDuration":302769,"Delta":77456861},{"NoteNumber":51,"Velocity":36,"Duration":302769,"SoundDuration":302769,"Delta":77456861},{"NoteNumber":65,"Velocity":36,"Duration":302770,"SoundDuration":302770,"Delta":77759631},{"NoteNumber":73,"Velocity":36,"Duration":302770,"SoundDuration":302770,"Delta":77759631},{"NoteNumber":61,"Velocity":45,"Duration":302770,"SoundDuration":302770,"Delta":77759631},{"NoteNumber":56,"Velocity":45,"Duration":302770,"SoundDuration":302770,"Delta":77759631},{"NoteNumber":49,"Velocity":45,"Duration":302770,"SoundDuration":302770,"Delta":77759631},{"NoteNumber":68,"Velocity":43,"Duration":65933,"SoundDuration":65933,"Delta":78062401},{"NoteNumber":68,"Velocity":35,"Duration":65933,"SoundDuration":65933,"Delta":78194269},{"NoteNumber":68,"Velocity":43,"Duration":276591,"SoundDuration":276591,"Delta":78326137},{"NoteNumber":75,"Velocity":48,"Duration":547012,"SoundDuration":547012,"Delta":78602729},{"NoteNumber":78,"Velocity":48,"Duration":547012,"SoundDuration":547012,"Delta":78602729},{"NoteNumber":44,"Velocity":47,"Duration":136172,"SoundDuration":136172,"Delta":78602729},{"NoteNumber":60,"Velocity":44,"Duration":274668,"SoundDuration":274668,"Delta":78875073},{"NoteNumber":51,"Velocity":44,"Duration":274668,"SoundDuration":274668,"Delta":78875073},{"NoteNumber":71,"Velocity":45,"Duration":269378,"SoundDuration":269378,"Delta":79138983},{"NoteNumber":74,"Velocity":45,"Duration":269378,"SoundDuration":269378,"Delta":79138983},{"NoteNumber":66,"Velocity":49,"Duration":258208,"SoundDuration":258208,"Delta":79138983},{"NoteNumber":56,"Velocity":49,"Duration":258208,"SoundDuration":258208,"Delta":79138983},{"NoteNumber":72,"Velocity":45,"Duration":134030,"SoundDuration":134030,"Delta":79397192},{"NoteNumber":75,"Velocity":45,"Duration":134030,"SoundDuration":134030,"Delta":79397192},{"NoteNumber":44,"Velocity":42,"Duration":134030,"SoundDuration":134030,"Delta":79397192},{"NoteNumber":68,"Velocity":47,"Duration":64691,"SoundDuration":64691,"Delta":79665253},{"NoteNumber":60,"Velocity":39,"Duration":266671,"SoundDuration":266671,"Delta":79665253},{"NoteNumber":51,"Velocity":39,"Duration":266671,"SoundDuration":266671,"Delta":79665253},{"NoteNumber":68,"Velocity":42,"Duration":63158,"SoundDuration":63158,"Delta":79794636},{"NoteNumber":68,"Velocity":56,"Duration":272510,"SoundDuration":272510,"Delta":79920952},{"NoteNumber":66,"Velocity":39,"Duration":272510,"SoundDuration":272510,"Delta":79920952},{"NoteNumber":56,"Velocity":39,"Duration":272510,"SoundDuration":272510,"Delta":79920952},{"NoteNumber":78,"Velocity":60,"Duration":549311,"SoundDuration":549311,"Delta":80193462},{"NoteNumber":82,"Velocity":60,"Duration":549311,"SoundDuration":549311,"Delta":80193462},{"NoteNumber":49,"Velocity":51,"Duration":134643,"SoundDuration":134643,"Delta":80193462},{"NoteNumber":53,"Velocity":45,"Duration":280023,"SoundDuration":280023,"Delta":80462750},{"NoteNumber":61,"Velocity":45,"Duration":280023,"SoundDuration":280023,"Delta":80462750},{"NoteNumber":76,"Velocity":48,"Duration":268975,"SoundDuration":268975,"Delta":80732038},{"NoteNumber":79,"Velocity":48,"Duration":268975,"SoundDuration":268975,"Delta":80732038},{"NoteNumber":65,"Velocity":50,"Duration":257654,"SoundDuration":257654,"Delta":80732038},{"NoteNumber":56,"Velocity":50,"Duration":257654,"SoundDuration":257654,"Delta":80732038},{"NoteNumber":77,"Velocity":49,"Duration":135863,"SoundDuration":135863,"Delta":80989692},{"NoteNumber":80,"Velocity":49,"Duration":135863,"SoundDuration":135863,"Delta":80989692},{"NoteNumber":49,"Velocity":52,"Duration":135863,"SoundDuration":135863,"Delta":80989692},{"NoteNumber":68,"Velocity":47,"Duration":64413,"SoundDuration":64413,"Delta":81261419},{"NoteNumber":61,"Velocity":37,"Duration":265997,"SoundDuration":265997,"Delta":81261419},{"NoteNumber":53,"Velocity":37,"Duration":265997,"SoundDuration":265997,"Delta":81261419},{"NoteNumber":68,"Velocity":40,"Duration":63025,"SoundDuration":63025,"Delta":81390246},{"NoteNumber":68,"Velocity":55,"Duration":266868,"SoundDuration":266868,"Delta":81516297},{"NoteNumber":65,"Velocity":34,"Duration":266868,"SoundDuration":266868,"Delta":81516297},{"NoteNumber":56,"Velocity":34,"Duration":266868,"SoundDuration":266868,"Delta":81516297},{"NoteNumber":75,"Velocity":58,"Duration":550521,"SoundDuration":550521,"Delta":81783165},{"NoteNumber":78,"Velocity":58,"Duration":550521,"SoundDuration":550521,"Delta":81783165},{"NoteNumber":44,"Velocity":45,"Duration":134946,"SoundDuration":134946,"Delta":81783165},{"NoteNumber":60,"Velocity":34,"Duration":280628,"SoundDuration":280628,"Delta":82053058},{"NoteNumber":51,"Velocity":34,"Duration":280628,"SoundDuration":280628,"Delta":82053058},{"NoteNumber":71,"Velocity":44,"Duration":268823,"SoundDuration":268823,"Delta":82322951},{"NoteNumber":74,"Velocity":44,"Duration":268823,"SoundDuration":268823,"Delta":82322951},{"NoteNumber":66,"Velocity":41,"Duration":257654,"SoundDuration":257654,"Delta":82322951},{"NoteNumber":56,"Velocity":41,"Duration":257654,"SoundDuration":257654,"Delta":82322951},{"NoteNumber":72,"Velocity":48,"Duration":134030,"SoundDuration":134030,"Delta":82580605},{"NoteNumber":75,"Velocity":48,"Duration":134030,"SoundDuration":134030,"Delta":82580605},{"NoteNumber":44,"Velocity":43,"Duration":134030,"SoundDuration":134030,"Delta":82580605},{"NoteNumber":68,"Velocity":44,"Duration":66569,"SoundDuration":66569,"Delta":82848666},{"NoteNumber":60,"Velocity":28,"Duration":277835,"SoundDuration":277835,"Delta":82848666},{"NoteNumber":51,"Velocity":28,"Duration":277835,"SoundDuration":277835,"Delta":82848666},{"NoteNumber":68,"Velocity":39,"Duration":66569,"SoundDuration":66569,"Delta":82981804},{"NoteNumber":68,"Velocity":52,"Duration":277417,"SoundDuration":277417,"Delta":83114942},{"NoteNumber":56,"Velocity":43,"Duration":277417,"SoundDuration":277417,"Delta":83114942},{"NoteNumber":66,"Velocity":43,"Duration":277417,"SoundDuration":277417,"Delta":83114942},{"NoteNumber":70,"Velocity":53,"Duration":297486,"SoundDuration":297486,"Delta":83392360},{"NoteNumber":78,"Velocity":53,"Duration":297486,"SoundDuration":297486,"Delta":83392360},{"NoteNumber":49,"Velocity":44,"Duration":861118,"SoundDuration":861118,"Delta":83392360},{"NoteNumber":68,"Velocity":46,"Duration":287769,"SoundDuration":287769,"Delta":83689846},{"NoteNumber":77,"Velocity":46,"Duration":287769,"SoundDuration":287769,"Delta":83689846},{"NoteNumber":56,"Velocity":40,"Duration":287769,"SoundDuration":287769,"Delta":83689846},{"NoteNumber":66,"Velocity":49,"Duration":275862,"SoundDuration":275862,"Delta":83977616},{"NoteNumber":75,"Velocity":49,"Duration":275862,"SoundDuration":275862,"Delta":83977616},{"NoteNumber":60,"Velocity":28,"Duration":275862,"SoundDuration":275862,"Delta":83977616},{"NoteNumber":65,"Velocity":47,"Duration":141010,"SoundDuration":141010,"Delta":84253478},{"NoteNumber":73,"Velocity":47,"Duration":141010,"SoundDuration":141010,"Delta":84253478},{"NoteNumber":61,"Velocity":29,"Duration":141010,"SoundDuration":141010,"Delta":84253478},{"NoteNumber":49,"Velocity":29,"Duration":141010,"SoundDuration":141010,"Delta":84253478},{"NoteNumber":68,"Velocity":40,"Duration":69518,"SoundDuration":69518,"Delta":84535499},{"NoteNumber":53,"Velocity":35,"Duration":278074,"SoundDuration":278074,"Delta":84535499},{"NoteNumber":61,"Velocity":35,"Duration":278074,"SoundDuration":278074,"Delta":84535499},{"NoteNumber":68,"Velocity":33,"Duration":69518,"SoundDuration":69518,"Delta":84674536},{"NoteNumber":68,"Velocity":40,"Duration":279005,"SoundDuration":279005,"Delta":84813573},{"NoteNumber":65,"Velocity":35,"Duration":279005,"SoundDuration":279005,"Delta":84813573},{"NoteNumber":56,"Velocity":35,"Duration":279005,"SoundDuration":279005,"Delta":84813573},{"NoteNumber":75,"Velocity":47,"Duration":544494,"SoundDuration":544494,"Delta":85092578},{"NoteNumber":78,"Velocity":47,"Duration":544494,"SoundDuration":544494,"Delta":85092578},{"NoteNumber":44,"Velocity":35,"Duration":133433,"SoundDuration":133433,"Delta":85092578},{"NoteNumber":60,"Velocity":38,"Duration":277626,"SoundDuration":277626,"Delta":85359446},{"NoteNumber":51,"Velocity":38,"Duration":277626,"SoundDuration":277626,"Delta":85359446},{"NoteNumber":71,"Velocity":42,"Duration":269378,"SoundDuration":269378,"Delta":85626314},{"NoteNumber":74,"Velocity":42,"Duration":269378,"SoundDuration":269378,"Delta":85626314},{"NoteNumber":66,"Velocity":40,"Duration":258208,"SoundDuration":258208,"Delta":85626314},{"NoteNumber":56,"Velocity":40,"Duration":258208,"SoundDuration":258208,"Delta":85626314},{"NoteNumber":72,"Velocity":42,"Duration":134030,"SoundDuration":134030,"Delta":85884523},{"NoteNumber":75,"Velocity":42,"Duration":134030,"SoundDuration":134030,"Delta":85884523},{"NoteNumber":44,"Velocity":61,"Duration":134030,"SoundDuration":134030,"Delta":85884523},{"NoteNumber":68,"Velocity":37,"Duration":64691,"SoundDuration":64691,"Delta":86152584},{"NoteNumber":60,"Velocity":49,"Duration":266719,"SoundDuration":266719,"Delta":86152584},{"NoteNumber":51,"Velocity":49,"Duration":266719,"SoundDuration":266719,"Delta":86152584},{"NoteNumber":68,"Velocity":29,"Duration":63158,"SoundDuration":63158,"Delta":86281967},{"NoteNumber":68,"Velocity":53,"Duration":264492,"SoundDuration":264492,"Delta":86408283},{"NoteNumber":66,"Velocity":57,"Duration":264492,"SoundDuration":264492,"Delta":86408283},{"NoteNumber":56,"Velocity":57,"Duration":264492,"SoundDuration":264492,"Delta":86408283},{"NoteNumber":78,"Velocity":64,"Duration":542132,"SoundDuration":542132,"Delta":86672775},{"NoteNumber":82,"Velocity":64,"Duration":542132,"SoundDuration":542132,"Delta":86672775},{"NoteNumber":37,"Velocity":61,"Duration":132843,"SoundDuration":132843,"Delta":86672775},{"NoteNumber":53,"Velocity":47,"Duration":276445,"SoundDuration":276445,"Delta":86938462},{"NoteNumber":61,"Velocity":47,"Duration":276445,"SoundDuration":276445,"Delta":86938462},{"NoteNumber":76,"Velocity":52,"Duration":269530,"SoundDuration":269530,"Delta":87204149},{"NoteNumber":79,"Velocity":52,"Duration":269530,"SoundDuration":269530,"Delta":87204149},{"NoteNumber":65,"Velocity":57,"Duration":258208,"SoundDuration":258208,"Delta":87204149},{"NoteNumber":56,"Velocity":57,"Duration":258208,"SoundDuration":258208,"Delta":87204149},{"NoteNumber":77,"Velocity":52,"Duration":135863,"SoundDuration":135863,"Delta":87462358},{"NoteNumber":80,"Velocity":52,"Duration":135863,"SoundDuration":135863,"Delta":87462358},{"NoteNumber":49,"Velocity":53,"Duration":135863,"SoundDuration":135863,"Delta":87462358},{"NoteNumber":68,"Velocity":45,"Duration":64413,"SoundDuration":64413,"Delta":87734085},{"NoteNumber":61,"Velocity":40,"Duration":255143,"SoundDuration":255143,"Delta":87734085},{"NoteNumber":53,"Velocity":40,"Duration":255143,"SoundDuration":255143,"Delta":87734085},{"NoteNumber":68,"Velocity":41,"Duration":63158,"SoundDuration":63158,"Delta":87862912},{"NoteNumber":68,"Velocity":55,"Duration":271726,"SoundDuration":271726,"Delta":87989228},{"NoteNumber":65,"Velocity":48,"Duration":271726,"SoundDuration":271726,"Delta":87989228},{"NoteNumber":56,"Velocity":48,"Duration":271726,"SoundDuration":271726,"Delta":87989228},{"NoteNumber":80,"Velocity":63,"Duration":132245,"SoundDuration":132245,"Delta":88260955},{"NoteNumber":42,"Velocity":49,"Duration":132245,"SoundDuration":132245,"Delta":88260955},{"NoteNumber":70,"Velocity":63,"Duration":258765,"SoundDuration":258765,"Delta":88525447},{"NoteNumber":62,"Velocity":43,"Duration":270011,"SoundDuration":270011,"Delta":88525447},{"NoteNumber":54,"Velocity":43,"Duration":270011,"SoundDuration":270011,"Delta":88525447},{"NoteNumber":80,"Velocity":49,"Duration":129382,"SoundDuration":129382,"Delta":88654830},{"NoteNumber":78,"Velocity":56,"Duration":666370,"SoundDuration":666370,"Delta":88784213},{"NoteNumber":75,"Velocity":56,"Duration":534993,"SoundDuration":534993,"Delta":88784213},{"NoteNumber":63,"Velocity":48,"Duration":269892,"SoundDuration":269892,"Delta":88784213},{"NoteNumber":58,"Velocity":48,"Duration":269892,"SoundDuration":269892,"Delta":88784213},{"NoteNumber":44,"Velocity":42,"Duration":132549,"SoundDuration":132549,"Delta":89054106},{"NoteNumber":68,"Velocity":53,"Duration":262754,"SoundDuration":262754,"Delta":89319206},{"NoteNumber":60,"Velocity":28,"Duration":274207,"SoundDuration":274207,"Delta":89319206},{"NoteNumber":53,"Velocity":28,"Duration":274207,"SoundDuration":274207,"Delta":89319206},{"NoteNumber":78,"Velocity":46,"Duration":131377,"SoundDuration":131377,"Delta":89450584},{"NoteNumber":73,"Velocity":50,"Duration":544151,"SoundDuration":544151,"Delta":89581961},{"NoteNumber":77,"Velocity":50,"Duration":685162,"SoundDuration":685162,"Delta":89581961},{"NoteNumber":61,"Velocity":41,"Duration":274863,"SoundDuration":274863,"Delta":89581961},{"NoteNumber":56,"Velocity":41,"Duration":274863,"SoundDuration":274863,"Delta":89581961},{"NoteNumber":44,"Velocity":43,"Duration":134643,"SoundDuration":134643,"Delta":89856825},{"NoteNumber":66,"Velocity":40,"Duration":282021,"SoundDuration":282021,"Delta":90126113},{"NoteNumber":60,"Velocity":29,"Duration":282021,"SoundDuration":282021,"Delta":90126113},{"NoteNumber":56,"Velocity":29,"Duration":282021,"SoundDuration":282021,"Delta":90126113},{"NoteNumber":51,"Velocity":29,"Duration":282021,"SoundDuration":282021,"Delta":90126113},{"NoteNumber":77,"Velocity":40,"Duration":141010,"SoundDuration":141010,"Delta":90267124},{"NoteNumber":66,"Velocity":38,"Duration":302769,"SoundDuration":302769,"Delta":90408134},{"NoteNumber":75,"Velocity":38,"Duration":302769,"SoundDuration":302769,"Delta":90408134},{"NoteNumber":60,"Velocity":46,"Duration":302769,"SoundDuration":302769,"Delta":90408134},{"NoteNumber":56,"Velocity":46,"Duration":302769,"SoundDuration":302769,"Delta":90408134},{"NoteNumber":51,"Velocity":46,"Duration":302769,"SoundDuration":302769,"Delta":90408134},{"NoteNumber":65,"Velocity":36,"Duration":302770,"SoundDuration":302770,"Delta":90710904},{"NoteNumber":73,"Velocity":36,"Duration":302770,"SoundDuration":302770,"Delta":90710904},{"NoteNumber":61,"Velocity":46,"Duration":302770,"SoundDuration":302770,"Delta":90710904},{"NoteNumber":56,"Velocity":46,"Duration":302770,"SoundDuration":302770,"Delta":90710904},{"NoteNumber":49,"Velocity":46,"Duration":302770,"SoundDuration":302770,"Delta":90710904},{"NoteNumber":65,"Velocity":77,"Duration":131955,"SoundDuration":131955,"Delta":91316444},{"NoteNumber":77,"Velocity":77,"Duration":131955,"SoundDuration":131955,"Delta":91316444},{"NoteNumber":49,"Velocity":67,"Duration":131955,"SoundDuration":131955,"Delta":91316444},{"NoteNumber":56,"Velocity":67,"Duration":131955,"SoundDuration":131955,"Delta":91316444},{"NoteNumber":61,"Velocity":67,"Duration":131955,"SoundDuration":131955,"Delta":91316444},{"NoteNumber":77,"Velocity":69,"Duration":32988,"SoundDuration":32988,"Delta":91547366},{"NoteNumber":67,"Velocity":82,"Duration":131955,"SoundDuration":131955,"Delta":91580354},{"NoteNumber":75,"Velocity":82,"Duration":131955,"SoundDuration":131955,"Delta":91580354},{"NoteNumber":61,"Velocity":73,"Duration":131955,"SoundDuration":131955,"Delta":91580354},{"NoteNumber":58,"Velocity":62,"Duration":131955,"SoundDuration":131955,"Delta":91580354},{"NoteNumber":51,"Velocity":62,"Duration":131955,"SoundDuration":131955,"Delta":91580354},{"NoteNumber":67,"Velocity":68,"Duration":131954,"SoundDuration":131954,"Delta":91844264},{"NoteNumber":77,"Velocity":55,"Duration":32988,"SoundDuration":32988,"Delta":92075186},{"NoteNumber":67,"Velocity":67,"Duration":131955,"SoundDuration":131955,"Delta":92108174},{"NoteNumber":75,"Velocity":67,"Duration":131955,"SoundDuration":131955,"Delta":92108174},{"NoteNumber":61,"Velocity":67,"Duration":131955,"SoundDuration":131955,"Delta":92108174},{"NoteNumber":58,"Velocity":67,"Duration":131955,"SoundDuration":131955,"Delta":92108174},{"NoteNumber":51,"Velocity":67,"Duration":131955,"SoundDuration":131955,"Delta":92108174},{"NoteNumber":67,"Velocity":81,"Duration":131955,"SoundDuration":131955,"Delta":92372084},{"NoteNumber":61,"Velocity":73,"Duration":131955,"SoundDuration":131955,"Delta":92372084},{"NoteNumber":58,"Velocity":62,"Duration":131955,"SoundDuration":131955,"Delta":92372084},{"NoteNumber":51,"Velocity":62,"Duration":131955,"SoundDuration":131955,"Delta":92372084},{"NoteNumber":77,"Velocity":59,"Duration":32988,"SoundDuration":32988,"Delta":92603006},{"NoteNumber":67,"Velocity":69,"Duration":131954,"SoundDuration":131954,"Delta":92635994},{"NoteNumber":75,"Velocity":69,"Duration":131954,"SoundDuration":131954,"Delta":92635994},{"NoteNumber":67,"Velocity":66,"Duration":131954,"SoundDuration":131954,"Delta":92899904},{"NoteNumber":61,"Velocity":52,"Duration":131954,"SoundDuration":131954,"Delta":92899904},{"NoteNumber":58,"Velocity":52,"Duration":131954,"SoundDuration":131954,"Delta":92899904},{"NoteNumber":51,"Velocity":52,"Duration":131954,"SoundDuration":131954,"Delta":92899904},{"NoteNumber":68,"Velocity":59,"Duration":127787,"SoundDuration":127787,"Delta":93163484},{"NoteNumber":44,"Velocity":36,"Duration":254966,"SoundDuration":254966,"Delta":93163484},{"NoteNumber":72,"Velocity":47,"Duration":127178,"SoundDuration":127178,"Delta":93291272},{"NoteNumber":75,"Velocity":53,"Duration":126565,"SoundDuration":126565,"Delta":93418450},{"NoteNumber":60,"Velocity":32,"Duration":252531,"SoundDuration":252531,"Delta":93418450},{"NoteNumber":56,"Velocity":32,"Duration":252531,"SoundDuration":252531,"Delta":93418450},{"NoteNumber":51,"Velocity":32,"Duration":252531,"SoundDuration":252531,"Delta":93418450},{"NoteNumber":80,"Velocity":53,"Duration":125965,"SoundDuration":125965,"Delta":93545016},{"NoteNumber":84,"Velocity":59,"Duration":131090,"SoundDuration":131090,"Delta":93670982},{"NoteNumber":60,"Velocity":37,"Duration":131090,"SoundDuration":131090,"Delta":93670982},{"NoteNumber":56,"Velocity":37,"Duration":131090,"SoundDuration":131090,"Delta":93670982},{"NoteNumber":51,"Velocity":37,"Duration":131090,"SoundDuration":131090,"Delta":93670982},{"NoteNumber":80,"Velocity":63,"Duration":83713,"SoundDuration":83713,"Delta":93933162},{"NoteNumber":44,"Velocity":38,"Duration":251141,"SoundDuration":251141,"Delta":93933162},{"NoteNumber":82,"Velocity":44,"Duration":83713,"SoundDuration":83713,"Delta":94016875},{"NoteNumber":80,"Velocity":51,"Duration":83713,"SoundDuration":83713,"Delta":94100589},{"NoteNumber":77,"Velocity":36,"Duration":125570,"SoundDuration":125570,"Delta":94184303},{"NoteNumber":59,"Velocity":39,"Duration":251140,"SoundDuration":251140,"Delta":94184303},{"NoteNumber":56,"Velocity":39,"Duration":251140,"SoundDuration":251140,"Delta":94184303},{"NoteNumber":50,"Velocity":39,"Duration":125570,"SoundDuration":125570,"Delta":94184303},{"NoteNumber":74,"Velocity":58,"Duration":125570,"SoundDuration":125570,"Delta":94309873},{"NoteNumber":53,"Velocity":29,"Duration":125570,"SoundDuration":125570,"Delta":94309873},{"NoteNumber":75,"Velocity":63,"Duration":131955,"SoundDuration":131955,"Delta":94435444},{"NoteNumber":51,"Velocity":50,"Duration":131955,"SoundDuration":131955,"Delta":94435444},{"NoteNumber":56,"Velocity":50,"Duration":131955,"SoundDuration":131955,"Delta":94435444},{"NoteNumber":60,"Velocity":50,"Duration":131955,"SoundDuration":131955,"Delta":94435444},{"NoteNumber":77,"Velocity":64,"Duration":32988,"SoundDuration":32988,"Delta":94666365},{"NoteNumber":67,"Velocity":78,"Duration":133731,"SoundDuration":133731,"Delta":94699354},{"NoteNumber":75,"Velocity":78,"Duration":133731,"SoundDuration":133731,"Delta":94699354},{"NoteNumber":61,"Velocity":76,"Duration":133731,"SoundDuration":133731,"Delta":94699354},{"NoteNumber":58,"Velocity":64,"Duration":133731,"SoundDuration":133731,"Delta":94699354},{"NoteNumber":51,"Velocity":64,"Duration":133731,"SoundDuration":133731,"Delta":94699354},{"NoteNumber":67,"Velocity":60,"Duration":133731,"SoundDuration":133731,"Delta":94966817},{"NoteNumber":77,"Velocity":53,"Duration":33432,"SoundDuration":33432,"Delta":95200847},{"NoteNumber":67,"Velocity":71,"Duration":133731,"SoundDuration":133731,"Delta":95234280},{"NoteNumber":75,"Velocity":71,"Duration":133731,"SoundDuration":133731,"Delta":95234280},{"NoteNumber":61,"Velocity":63,"Duration":133731,"SoundDuration":133731,"Delta":95234280},{"NoteNumber":58,"Velocity":63,"Duration":133731,"SoundDuration":133731,"Delta":95234280},{"NoteNumber":51,"Velocity":63,"Duration":133731,"SoundDuration":133731,"Delta":95234280},{"NoteNumber":67,"Velocity":81,"Duration":133731,"SoundDuration":133731,"Delta":95501743},{"NoteNumber":61,"Velocity":68,"Duration":133731,"SoundDuration":133731,"Delta":95501743},{"NoteNumber":58,"Velocity":57,"Duration":133731,"SoundDuration":133731,"Delta":95501743},{"NoteNumber":51,"Velocity":57,"Duration":133731,"SoundDuration":133731,"Delta":95501743},{"NoteNumber":77,"Velocity":51,"Duration":33432,"SoundDuration":33432,"Delta":95735773},{"NoteNumber":67,"Velocity":72,"Duration":133731,"SoundDuration":133731,"Delta":95769206},{"NoteNumber":75,"Velocity":72,"Duration":133731,"SoundDuration":133731,"Delta":95769206},{"NoteNumber":67,"Velocity":72,"Duration":133731,"SoundDuration":133731,"Delta":96036669},{"NoteNumber":61,"Velocity":45,"Duration":133731,"SoundDuration":133731,"Delta":96036669},{"NoteNumber":58,"Velocity":45,"Duration":133731,"SoundDuration":133731,"Delta":96036669},{"NoteNumber":51,"Velocity":45,"Duration":133731,"SoundDuration":133731,"Delta":96036669},{"NoteNumber":63,"Velocity":64,"Duration":85328,"SoundDuration":85328,"Delta":96303654},{"NoteNumber":39,"Velocity":40,"Duration":255983,"SoundDuration":255983,"Delta":96303654},{"NoteNumber":65,"Velocity":52,"Duration":85327,"SoundDuration":85327,"Delta":96388982},{"NoteNumber":63,"Velocity":60,"Duration":85328,"SoundDuration":85328,"Delta":96474310},{"NoteNumber":62,"Velocity":44,"Duration":130419,"SoundDuration":130419,"Delta":96559638},{"NoteNumber":61,"Velocity":39,"Duration":262208,"SoundDuration":262208,"Delta":96559638},{"NoteNumber":55,"Velocity":39,"Duration":262208,"SoundDuration":262208,"Delta":96559638},{"NoteNumber":63,"Velocity":54,"Duration":131788,"SoundDuration":131788,"Delta":96690057},{"NoteNumber":72,"Velocity":58,"Duration":136487,"SoundDuration":136487,"Delta":96821846},{"NoteNumber":51,"Velocity":37,"Duration":272975,"SoundDuration":272975,"Delta":96821846},{"NoteNumber":61,"Velocity":37,"Duration":272975,"SoundDuration":272975,"Delta":96821846},{"NoteNumber":70,"Velocity":53,"Duration":136487,"SoundDuration":136487,"Delta":96958333},{"NoteNumber":68,"Velocity":48,"Duration":35714,"SoundDuration":35714,"Delta":97094821},{"NoteNumber":44,"Velocity":48,"Duration":271874,"SoundDuration":271874,"Delta":97094821},{"NoteNumber":70,"Velocity":41,"Duration":35714,"SoundDuration":35714,"Delta":97130535},{"NoteNumber":68,"Velocity":64,"Duration":66815,"SoundDuration":66815,"Delta":97166249},{"NoteNumber":67,"Velocity":49,"Duration":133630,"SoundDuration":133630,"Delta":97233065},{"NoteNumber":68,"Velocity":71,"Duration":133089,"SoundDuration":133089,"Delta":97366695},{"NoteNumber":56,"Velocity":36,"Duration":265144,"SoundDuration":265144,"Delta":97366695},{"NoteNumber":60,"Velocity":36,"Duration":265144,"SoundDuration":265144,"Delta":97366695},{"NoteNumber":70,"Velocity":66,"Duration":132054,"SoundDuration":132054,"Delta":97499785},{"NoteNumber":72,"Velocity":77,"Duration":130994,"SoundDuration":130994,"Delta":97631839},{"NoteNumber":51,"Velocity":45,"Duration":273210,"SoundDuration":273210,"Delta":97631839},{"NoteNumber":60,"Velocity":45,"Duration":273210,"SoundDuration":273210,"Delta":97631839},{"NoteNumber":73,"Velocity":56,"Duration":107537,"SoundDuration":107537,"Delta":97762834},{"NoteNumber":77,"Velocity":69,"Duration":34679,"SoundDuration":34679,"Delta":97870371},{"NoteNumber":67,"Velocity":85,"Duration":131955,"SoundDuration":131955,"Delta":97905050},{"NoteNumber":75,"Velocity":85,"Duration":131955,"SoundDuration":131955,"Delta":97905050},{"NoteNumber":61,"Velocity":72,"Duration":131955,"SoundDuration":131955,"Delta":97905050},{"NoteNumber":58,"Velocity":61,"Duration":131955,"SoundDuration":131955,"Delta":97905050},{"NoteNumber":51,"Velocity":61,"Duration":131955,"SoundDuration":131955,"Delta":97905050},{"NoteNumber":67,"Velocity":63,"Duration":131955,"SoundDuration":131955,"Delta":98168960},{"NoteNumber":77,"Velocity":57,"Duration":32988,"SoundDuration":32988,"Delta":98399881},{"NoteNumber":67,"Velocity":70,"Duration":131954,"SoundDuration":131954,"Delta":98432870},{"NoteNumber":75,"Velocity":70,"Duration":131954,"SoundDuration":131954,"Delta":98432870},{"NoteNumber":61,"Velocity":64,"Duration":131954,"SoundDuration":131954,"Delta":98432870},{"NoteNumber":58,"Velocity":64,"Duration":131954,"SoundDuration":131954,"Delta":98432870},{"NoteNumber":51,"Velocity":64,"Duration":131954,"SoundDuration":131954,"Delta":98432870},{"NoteNumber":67,"Velocity":86,"Duration":131955,"SoundDuration":131955,"Delta":98696780},{"NoteNumber":61,"Velocity":73,"Duration":131955,"SoundDuration":131955,"Delta":98696780},{"NoteNumber":58,"Velocity":62,"Duration":131955,"SoundDuration":131955,"Delta":98696780},{"NoteNumber":51,"Velocity":62,"Duration":131955,"SoundDuration":131955,"Delta":98696780},{"NoteNumber":77,"Velocity":67,"Duration":32988,"SoundDuration":32988,"Delta":98927701},{"NoteNumber":67,"Velocity":74,"Duration":131955,"SoundDuration":131955,"Delta":98960690},{"NoteNumber":75,"Velocity":74,"Duration":131955,"SoundDuration":131955,"Delta":98960690},{"NoteNumber":67,"Velocity":65,"Duration":131954,"SoundDuration":131954,"Delta":99224600},{"NoteNumber":61,"Velocity":51,"Duration":131954,"SoundDuration":131954,"Delta":99224600},{"NoteNumber":58,"Velocity":51,"Duration":131954,"SoundDuration":131954,"Delta":99224600},{"NoteNumber":51,"Velocity":51,"Duration":131954,"SoundDuration":131954,"Delta":99224600},{"NoteNumber":68,"Velocity":57,"Duration":127787,"SoundDuration":127787,"Delta":99488180},{"NoteNumber":44,"Velocity":46,"Duration":254966,"SoundDuration":254966,"Delta":99488180},{"NoteNumber":72,"Velocity":38,"Duration":127178,"SoundDuration":127178,"Delta":99615967},{"NoteNumber":75,"Velocity":43,"Duration":126565,"SoundDuration":126565,"Delta":99743146},{"NoteNumber":60,"Velocity":35,"Duration":252531,"SoundDuration":252531,"Delta":99743146},{"NoteNumber":56,"Velocity":35,"Duration":252531,"SoundDuration":252531,"Delta":99743146},{"NoteNumber":51,"Velocity":35,"Duration":252531,"SoundDuration":252531,"Delta":99743146},{"NoteNumber":80,"Velocity":53,"Duration":125965,"SoundDuration":125965,"Delta":99869711},{"NoteNumber":84,"Velocity":57,"Duration":131090,"SoundDuration":131090,"Delta":99995677},{"NoteNumber":60,"Velocity":42,"Duration":131090,"SoundDuration":131090,"Delta":99995677},{"NoteNumber":56,"Velocity":42,"Duration":131090,"SoundDuration":131090,"Delta":99995677},{"NoteNumber":51,"Velocity":42,"Duration":131090,"SoundDuration":131090,"Delta":99995677},{"NoteNumber":80,"Velocity":67,"Duration":83713,"SoundDuration":83713,"Delta":100257857},{"NoteNumber":44,"Velocity":49,"Duration":251141,"SoundDuration":251141,"Delta":100257857},{"NoteNumber":82,"Velocity":52,"Duration":83713,"SoundDuration":83713,"Delta":100341571},{"NoteNumber":80,"Velocity":58,"Duration":83713,"SoundDuration":83713,"Delta":100425285},{"NoteNumber":77,"Velocity":64,"Duration":125570,"SoundDuration":125570,"Delta":100508998},{"NoteNumber":59,"Velocity":44,"Duration":251140,"SoundDuration":251140,"Delta":100508998},{"NoteNumber":56,"Velocity":44,"Duration":251140,"SoundDuration":251140,"Delta":100508998},{"NoteNumber":50,"Velocity":44,"Duration":125570,"SoundDuration":125570,"Delta":100508998},{"NoteNumber":74,"Velocity":50,"Duration":125570,"SoundDuration":125570,"Delta":100634569},{"NoteNumber":53,"Velocity":29,"Duration":125570,"SoundDuration":125570,"Delta":100634569},{"NoteNumber":75,"Velocity":68,"Duration":131955,"SoundDuration":131955,"Delta":100760139},{"NoteNumber":51,"Velocity":51,"Duration":131955,"SoundDuration":131955,"Delta":100760139},{"NoteNumber":56,"Velocity":51,"Duration":131955,"SoundDuration":131955,"Delta":100760139},{"NoteNumber":60,"Velocity":51,"Duration":131955,"SoundDuration":131955,"Delta":100760139},{"NoteNumber":77,"Velocity":67,"Duration":32988,"SoundDuration":32988,"Delta":100991061},{"NoteNumber":67,"Velocity":81,"Duration":133731,"SoundDuration":133731,"Delta":101024049},{"NoteNumber":75,"Velocity":81,"Duration":133731,"SoundDuration":133731,"Delta":101024049},{"NoteNumber":61,"Velocity":68,"Duration":133731,"SoundDuration":133731,"Delta":101024049},{"NoteNumber":58,"Velocity":57,"Duration":133731,"SoundDuration":133731,"Delta":101024049},{"NoteNumber":51,"Velocity":57,"Duration":133731,"SoundDuration":133731,"Delta":101024049},{"NoteNumber":67,"Velocity":72,"Duration":133731,"SoundDuration":133731,"Delta":101291512},{"NoteNumber":77,"Velocity":67,"Duration":33432,"SoundDuration":33432,"Delta":101525542},{"NoteNumber":67,"Velocity":72,"Duration":133731,"SoundDuration":133731,"Delta":101558975},{"NoteNumber":75,"Velocity":72,"Duration":133731,"SoundDuration":133731,"Delta":101558975},{"NoteNumber":61,"Velocity":63,"Duration":133731,"SoundDuration":133731,"Delta":101558975},{"NoteNumber":58,"Velocity":63,"Duration":133731,"SoundDuration":133731,"Delta":101558975},{"NoteNumber":51,"Velocity":63,"Duration":133731,"SoundDuration":133731,"Delta":101558975},{"NoteNumber":67,"Velocity":86,"Duration":133731,"SoundDuration":133731,"Delta":101826438},{"NoteNumber":61,"Velocity":71,"Duration":133731,"SoundDuration":133731,"Delta":101826438},{"NoteNumber":58,"Velocity":71,"Duration":133731,"SoundDuration":133731,"Delta":101826438},{"NoteNumber":51,"Velocity":60,"Duration":133731,"SoundDuration":133731,"Delta":101826438},{"NoteNumber":77,"Velocity":64,"Duration":33432,"SoundDuration":33432,"Delta":102060468},{"NoteNumber":67,"Velocity":72,"Duration":133731,"SoundDuration":133731,"Delta":102093901},{"NoteNumber":75,"Velocity":72,"Duration":133731,"SoundDuration":133731,"Delta":102093901},{"NoteNumber":67,"Velocity":63,"Duration":133731,"SoundDuration":133731,"Delta":102361364},{"NoteNumber":61,"Velocity":36,"Duration":133731,"SoundDuration":133731,"Delta":102361364},{"NoteNumber":58,"Velocity":36,"Duration":133731,"SoundDuration":133731,"Delta":102361364},{"NoteNumber":51,"Velocity":36,"Duration":133731,"SoundDuration":133731,"Delta":102361364},{"NoteNumber":68,"Velocity":45,"Duration":35294,"SoundDuration":35294,"Delta":102628349},{"NoteNumber":60,"Velocity":45,"Duration":276549,"SoundDuration":276549,"Delta":102628349},{"NoteNumber":56,"Velocity":45,"Duration":276549,"SoundDuration":276549,"Delta":102628349},{"NoteNumber":70,"Velocity":37,"Duration":35294,"SoundDuration":35294,"Delta":102663643},{"NoteNumber":68,"Velocity":46,"Duration":68650,"SoundDuration":68650,"Delta":102698937},{"NoteNumber":67,"Velocity":39,"Duration":137310,"SoundDuration":137310,"Delta":102767587},{"NoteNumber":68,"Velocity":58,"Duration":132350,"SoundDuration":132350,"Delta":102904898},{"NoteNumber":70,"Velocity":53,"Duration":131042,"SoundDuration":131042,"Delta":103037248},{"NoteNumber":72,"Velocity":58,"Duration":129710,"SoundDuration":129710,"Delta":103168291},{"NoteNumber":73,"Velocity":54,"Duration":128431,"SoundDuration":128431,"Delta":103298001},{"NoteNumber":75,"Velocity":60,"Duration":132276,"SoundDuration":132276,"Delta":103426433},{"NoteNumber":77,"Velocity":57,"Duration":133885,"SoundDuration":133885,"Delta":103558710},{"NoteNumber":78,"Velocity":67,"Duration":135532,"SoundDuration":135532,"Delta":103692595},{"NoteNumber":79,"Velocity":59,"Duration":137275,"SoundDuration":137275,"Delta":103828128},{"NoteNumber":82,"Velocity":68,"Duration":483870,"SoundDuration":483870,"Delta":103965404},{"NoteNumber":80,"Velocity":47,"Duration":192406,"SoundDuration":192406,"Delta":104449275},{"NoteNumber":75,"Velocity":55,"Duration":549572,"SoundDuration":549572,"Delta":104641681},{"NoteNumber":78,"Velocity":55,"Duration":549572,"SoundDuration":549572,"Delta":104641681},{"NoteNumber":44,"Velocity":38,"Duration":134643,"SoundDuration":134643,"Delta":104641681},{"NoteNumber":60,"Velocity":44,"Duration":280284,"SoundDuration":280284,"Delta":104910969},{"NoteNumber":51,"Velocity":44,"Duration":280284,"SoundDuration":280284,"Delta":104910969},{"NoteNumber":71,"Velocity":48,"Duration":275079,"SoundDuration":275079,"Delta":105180257},{"NoteNumber":74,"Velocity":48,"Duration":275079,"SoundDuration":275079,"Delta":105180257},{"NoteNumber":66,"Velocity":36,"Duration":263909,"SoundDuration":263909,"Delta":105180257},{"NoteNumber":56,"Velocity":36,"Duration":263909,"SoundDuration":263909,"Delta":105180257},{"NoteNumber":72,"Velocity":48,"Duration":134030,"SoundDuration":134030,"Delta":105444167},{"NoteNumber":75,"Velocity":48,"Duration":134030,"SoundDuration":134030,"Delta":105444167},{"NoteNumber":44,"Velocity":43,"Duration":134030,"SoundDuration":134030,"Delta":105444167},{"NoteNumber":68,"Velocity":43,"Duration":65257,"SoundDuration":65257,"Delta":105712228},{"NoteNumber":60,"Velocity":35,"Duration":272098,"SoundDuration":272098,"Delta":105712228},{"NoteNumber":51,"Velocity":35,"Duration":272098,"SoundDuration":272098,"Delta":105712228},{"NoteNumber":68,"Velocity":37,"Duration":65256,"SoundDuration":65256,"Delta":105842742},{"NoteNumber":68,"Velocity":56,"Duration":273358,"SoundDuration":273358,"Delta":105973256},{"NoteNumber":66,"Velocity":39,"Duration":273358,"SoundDuration":273358,"Delta":105973256},{"NoteNumber":56,"Velocity":39,"Duration":273358,"SoundDuration":273358,"Delta":105973256},{"NoteNumber":78,"Velocity":60,"Duration":549311,"SoundDuration":549311,"Delta":106246615},{"NoteNumber":82,"Velocity":60,"Duration":549311,"SoundDuration":549311,"Delta":106246615},{"NoteNumber":37,"Velocity":51,"Duration":134643,"SoundDuration":134643,"Delta":106246615},{"NoteNumber":53,"Velocity":37,"Duration":280023,"SoundDuration":280023,"Delta":106515903},{"NoteNumber":61,"Velocity":37,"Duration":280023,"SoundDuration":280023,"Delta":106515903},{"NoteNumber":76,"Velocity":48,"Duration":268975,"SoundDuration":268975,"Delta":106785191},{"NoteNumber":79,"Velocity":48,"Duration":268975,"SoundDuration":268975,"Delta":106785191},{"NoteNumber":65,"Velocity":45,"Duration":257654,"SoundDuration":257654,"Delta":106785191},{"NoteNumber":56,"Velocity":45,"Duration":257654,"SoundDuration":257654,"Delta":106785191},{"NoteNumber":77,"Velocity":49,"Duration":135863,"SoundDuration":135863,"Delta":107042845},{"NoteNumber":80,"Velocity":49,"Duration":135863,"SoundDuration":135863,"Delta":107042845},{"NoteNumber":49,"Velocity":37,"Duration":135863,"SoundDuration":135863,"Delta":107042845},{"NoteNumber":68,"Velocity":42,"Duration":64413,"SoundDuration":64413,"Delta":107314572},{"NoteNumber":61,"Velocity":40,"Duration":268773,"SoundDuration":268773,"Delta":107314572},{"NoteNumber":53,"Velocity":40,"Duration":268773,"SoundDuration":268773,"Delta":107314572},{"NoteNumber":68,"Velocity":35,"Duration":64413,"SoundDuration":64413,"Delta":107443399},{"NoteNumber":68,"Velocity":55,"Duration":266868,"SoundDuration":266868,"Delta":107572226},{"NoteNumber":65,"Velocity":39,"Duration":266868,"SoundDuration":266868,"Delta":107572226},{"NoteNumber":56,"Velocity":39,"Duration":266868,"SoundDuration":266868,"Delta":107572226},{"NoteNumber":75,"Velocity":58,"Duration":550521,"SoundDuration":550521,"Delta":107839094},{"NoteNumber":78,"Velocity":58,"Duration":550521,"SoundDuration":550521,"Delta":107839094},{"NoteNumber":44,"Velocity":38,"Duration":134946,"SoundDuration":134946,"Delta":107839094},{"NoteNumber":60,"Velocity":45,"Duration":280628,"SoundDuration":280628,"Delta":108108987},{"NoteNumber":51,"Velocity":45,"Duration":280628,"SoundDuration":280628,"Delta":108108987},{"NoteNumber":71,"Velocity":44,"Duration":268823,"SoundDuration":268823,"Delta":108378880},{"NoteNumber":74,"Velocity":44,"Duration":268823,"SoundDuration":268823,"Delta":108378880},{"NoteNumber":66,"Velocity":45,"Duration":257654,"SoundDuration":257654,"Delta":108378880},{"NoteNumber":56,"Velocity":45,"Duration":257654,"SoundDuration":257654,"Delta":108378880},{"NoteNumber":72,"Velocity":48,"Duration":134030,"SoundDuration":134030,"Delta":108636534},{"NoteNumber":75,"Velocity":48,"Duration":134030,"SoundDuration":134030,"Delta":108636534},{"NoteNumber":44,"Velocity":44,"Duration":134030,"SoundDuration":134030,"Delta":108636534},{"NoteNumber":68,"Velocity":44,"Duration":66569,"SoundDuration":66569,"Delta":108904595},{"NoteNumber":60,"Velocity":42,"Duration":277702,"SoundDuration":277702,"Delta":108904595},{"NoteNumber":51,"Velocity":42,"Duration":277702,"SoundDuration":277702,"Delta":108904595},{"NoteNumber":68,"Velocity":44,"Duration":66569,"SoundDuration":66569,"Delta":109037733},{"NoteNumber":68,"Velocity":52,"Duration":274236,"SoundDuration":274236,"Delta":109170871},{"NoteNumber":56,"Velocity":34,"Duration":274236,"SoundDuration":274236,"Delta":109170871},{"NoteNumber":66,"Velocity":34,"Duration":274236,"SoundDuration":274236,"Delta":109170871},{"NoteNumber":70,"Velocity":53,"Duration":299251,"SoundDuration":299251,"Delta":109445107},{"NoteNumber":78,"Velocity":53,"Duration":299251,"SoundDuration":299251,"Delta":109445107},{"NoteNumber":49,"Velocity":38,"Duration":861686,"SoundDuration":861686,"Delta":109445107},{"NoteNumber":68,"Velocity":51,"Duration":288461,"SoundDuration":288461,"Delta":109744359},{"NoteNumber":77,"Velocity":51,"Duration":288461,"SoundDuration":288461,"Delta":109744359},{"NoteNumber":56,"Velocity":46,"Duration":288461,"SoundDuration":288461,"Delta":109744359},{"NoteNumber":66,"Velocity":49,"Duration":273972,"SoundDuration":273972,"Delta":110032821},{"NoteNumber":75,"Velocity":49,"Duration":273972,"SoundDuration":273972,"Delta":110032821},{"NoteNumber":60,"Velocity":45,"Duration":273972,"SoundDuration":273972,"Delta":110032821},{"NoteNumber":65,"Velocity":47,"Duration":141010,"SoundDuration":141010,"Delta":110306794},{"NoteNumber":73,"Velocity":47,"Duration":141010,"SoundDuration":141010,"Delta":110306794},{"NoteNumber":61,"Velocity":43,"Duration":141010,"SoundDuration":141010,"Delta":110306794},{"NoteNumber":49,"Velocity":43,"Duration":141010,"SoundDuration":141010,"Delta":110306794},{"NoteNumber":68,"Velocity":40,"Duration":69518,"SoundDuration":69518,"Delta":110588815},{"NoteNumber":53,"Velocity":36,"Duration":272965,"SoundDuration":272965,"Delta":110588815},{"NoteNumber":61,"Velocity":36,"Duration":272965,"SoundDuration":272965,"Delta":110588815},{"NoteNumber":68,"Velocity":37,"Duration":66964,"SoundDuration":66964,"Delta":110727852},{"NoteNumber":68,"Velocity":40,"Duration":275495,"SoundDuration":275495,"Delta":110861780},{"NoteNumber":65,"Velocity":36,"Duration":275495,"SoundDuration":275495,"Delta":110861780},{"NoteNumber":56,"Velocity":36,"Duration":275495,"SoundDuration":275495,"Delta":110861780},{"NoteNumber":75,"Velocity":47,"Duration":544494,"SoundDuration":544494,"Delta":111137275},{"NoteNumber":78,"Velocity":47,"Duration":544494,"SoundDuration":544494,"Delta":111137275},{"NoteNumber":44,"Velocity":33,"Duration":133433,"SoundDuration":133433,"Delta":111137275},{"NoteNumber":60,"Velocity":38,"Duration":277626,"SoundDuration":277626,"Delta":111404143},{"NoteNumber":51,"Velocity":38,"Duration":277626,"SoundDuration":277626,"Delta":111404143},{"NoteNumber":71,"Velocity":42,"Duration":269378,"SoundDuration":269378,"Delta":111671011},{"NoteNumber":74,"Velocity":42,"Duration":269378,"SoundDuration":269378,"Delta":111671011},{"NoteNumber":66,"Velocity":35,"Duration":258208,"SoundDuration":258208,"Delta":111671011},{"NoteNumber":56,"Velocity":35,"Duration":258208,"SoundDuration":258208,"Delta":111671011},{"NoteNumber":72,"Velocity":42,"Duration":134030,"SoundDuration":134030,"Delta":111929220},{"NoteNumber":75,"Velocity":42,"Duration":134030,"SoundDuration":134030,"Delta":111929220},{"NoteNumber":44,"Velocity":43,"Duration":134030,"SoundDuration":134030,"Delta":111929220},{"NoteNumber":68,"Velocity":37,"Duration":64691,"SoundDuration":64691,"Delta":112197281},{"NoteNumber":60,"Velocity":35,"Duration":266695,"SoundDuration":266695,"Delta":112197281},{"NoteNumber":51,"Velocity":35,"Duration":266695,"SoundDuration":266695,"Delta":112197281},{"NoteNumber":68,"Velocity":35,"Duration":63158,"SoundDuration":63158,"Delta":112326664},{"NoteNumber":68,"Velocity":53,"Duration":263909,"SoundDuration":263909,"Delta":112452980},{"NoteNumber":66,"Velocity":39,"Duration":263909,"SoundDuration":263909,"Delta":112452980},{"NoteNumber":56,"Velocity":39,"Duration":263909,"SoundDuration":263909,"Delta":112452980},{"NoteNumber":78,"Velocity":64,"Duration":542132,"SoundDuration":542132,"Delta":112716890},{"NoteNumber":82,"Velocity":64,"Duration":542132,"SoundDuration":542132,"Delta":112716890},{"NoteNumber":37,"Velocity":48,"Duration":132843,"SoundDuration":132843,"Delta":112716890},{"NoteNumber":53,"Velocity":38,"Duration":276445,"SoundDuration":276445,"Delta":112982577},{"NoteNumber":61,"Velocity":38,"Duration":276445,"SoundDuration":276445,"Delta":112982577},{"NoteNumber":76,"Velocity":52,"Duration":269530,"SoundDuration":269530,"Delta":113248264},{"NoteNumber":79,"Velocity":52,"Duration":269530,"SoundDuration":269530,"Delta":113248264},{"NoteNumber":65,"Velocity":47,"Duration":258208,"SoundDuration":258208,"Delta":113248264},{"NoteNumber":56,"Velocity":47,"Duration":258208,"SoundDuration":258208,"Delta":113248264},{"NoteNumber":77,"Velocity":52,"Duration":135863,"SoundDuration":135863,"Delta":113506473},{"NoteNumber":80,"Velocity":52,"Duration":135863,"SoundDuration":135863,"Delta":113506473},{"NoteNumber":49,"Velocity":52,"Duration":135863,"SoundDuration":135863,"Delta":113506473},{"NoteNumber":68,"Velocity":45,"Duration":64413,"SoundDuration":64413,"Delta":113778200},{"NoteNumber":61,"Velocity":40,"Duration":266731,"SoundDuration":266731,"Delta":113778200},{"NoteNumber":53,"Velocity":40,"Duration":266731,"SoundDuration":266731,"Delta":113778200},{"NoteNumber":68,"Velocity":36,"Duration":63291,"SoundDuration":63291,"Delta":113907027},{"NoteNumber":68,"Velocity":55,"Duration":271726,"SoundDuration":271726,"Delta":114033610},{"NoteNumber":65,"Velocity":39,"Duration":271726,"SoundDuration":271726,"Delta":114033610},{"NoteNumber":56,"Velocity":39,"Duration":271726,"SoundDuration":271726,"Delta":114033610},{"NoteNumber":80,"Velocity":63,"Duration":132245,"SoundDuration":132245,"Delta":114305337},{"NoteNumber":42,"Velocity":46,"Duration":132245,"SoundDuration":132245,"Delta":114305337},{"NoteNumber":70,"Velocity":63,"Duration":258765,"SoundDuration":258765,"Delta":114569829},{"NoteNumber":62,"Velocity":37,"Duration":270011,"SoundDuration":270011,"Delta":114569829},{"NoteNumber":54,"Velocity":37,"Duration":270011,"SoundDuration":270011,"Delta":114569829},{"NoteNumber":80,"Velocity":49,"Duration":129382,"SoundDuration":129382,"Delta":114699212},{"NoteNumber":78,"Velocity":56,"Duration":666370,"SoundDuration":666370,"Delta":114828595},{"NoteNumber":75,"Velocity":56,"Duration":534993,"SoundDuration":534993,"Delta":114828595},{"NoteNumber":63,"Velocity":43,"Duration":269892,"SoundDuration":269892,"Delta":114828595},{"NoteNumber":58,"Velocity":43,"Duration":269892,"SoundDuration":269892,"Delta":114828595},{"NoteNumber":44,"Velocity":35,"Duration":132549,"SoundDuration":132549,"Delta":115098488},{"NoteNumber":68,"Velocity":53,"Duration":262754,"SoundDuration":262754,"Delta":115363588},{"NoteNumber":60,"Velocity":40,"Duration":274207,"SoundDuration":274207,"Delta":115363588},{"NoteNumber":53,"Velocity":40,"Duration":274207,"SoundDuration":274207,"Delta":115363588},{"NoteNumber":78,"Velocity":46,"Duration":131377,"SoundDuration":131377,"Delta":115494965},{"NoteNumber":73,"Velocity":50,"Duration":544151,"SoundDuration":544151,"Delta":115626343},{"NoteNumber":77,"Velocity":50,"Duration":685162,"SoundDuration":685162,"Delta":115626343},{"NoteNumber":61,"Velocity":41,"Duration":274863,"SoundDuration":274863,"Delta":115626343},{"NoteNumber":56,"Velocity":41,"Duration":274863,"SoundDuration":274863,"Delta":115626343},{"NoteNumber":44,"Velocity":33,"Duration":134643,"SoundDuration":134643,"Delta":115901207},{"NoteNumber":66,"Velocity":40,"Duration":282021,"SoundDuration":282021,"Delta":116170495},{"NoteNumber":60,"Velocity":36,"Duration":282021,"SoundDuration":282021,"Delta":116170495},{"NoteNumber":56,"Velocity":36,"Duration":282021,"SoundDuration":282021,"Delta":116170495},{"NoteNumber":51,"Velocity":36,"Duration":282021,"SoundDuration":282021,"Delta":116170495},{"NoteNumber":77,"Velocity":40,"Duration":141010,"SoundDuration":141010,"Delta":116311505},{"NoteNumber":66,"Velocity":38,"Duration":302769,"SoundDuration":302769,"Delta":116452516},{"NoteNumber":75,"Velocity":38,"Duration":302769,"SoundDuration":302769,"Delta":116452516},{"NoteNumber":60,"Velocity":30,"Duration":302769,"SoundDuration":302769,"Delta":116452516},{"NoteNumber":56,"Velocity":30,"Duration":302769,"SoundDuration":302769,"Delta":116452516},{"NoteNumber":51,"Velocity":30,"Duration":302769,"SoundDuration":302769,"Delta":116452516},{"NoteNumber":65,"Velocity":36,"Duration":151385,"SoundDuration":151385,"Delta":116755286},{"NoteNumber":73,"Velocity":36,"Duration":151385,"SoundDuration":151385,"Delta":116755286},{"NoteNumber":61,"Velocity":42,"Duration":151385,"SoundDuration":151385,"Delta":116755286},{"NoteNumber":56,"Velocity":42,"Duration":151385,"SoundDuration":151385,"Delta":116755286},{"NoteNumber":49,"Velocity":42,"Duration":151385,"SoundDuration":151385,"Delta":116755286},{"NoteNumber":61,"Velocity":52,"Duration":65933,"SoundDuration":65933,"Delta":117058056},{"NoteNumber":61,"Velocity":52,"Duration":65933,"SoundDuration":65933,"Delta":117189924},{"NoteNumber":61,"Velocity":52,"Duration":271493,"SoundDuration":271493,"Delta":117321792},{"NoteNumber":65,"Velocity":72,"Duration":150240,"SoundDuration":150240,"Delta":117593285},{"NoteNumber":68,"Velocity":72,"Duration":150240,"SoundDuration":150240,"Delta":117593285},{"NoteNumber":37,"Velocity":61,"Duration":150240,"SoundDuration":150240,"Delta":117593285},{"NoteNumber":59,"Velocity":43,"Duration":300480,"SoundDuration":300480,"Delta":117893766},{"NoteNumber":56,"Velocity":43,"Duration":300480,"SoundDuration":300480,"Delta":117893766},{"NoteNumber":49,"Velocity":43,"Duration":300480,"SoundDuration":300480,"Delta":117893766},{"NoteNumber":65,"Velocity":69,"Duration":150240,"SoundDuration":150240,"Delta":118194247},{"NoteNumber":68,"Velocity":69,"Duration":150240,"SoundDuration":150240,"Delta":118194247},{"NoteNumber":49,"Velocity":51,"Duration":300481,"SoundDuration":300481,"Delta":118194247},{"NoteNumber":56,"Velocity":51,"Duration":300481,"SoundDuration":300481,"Delta":118194247},{"NoteNumber":59,"Velocity":51,"Duration":300481,"SoundDuration":300481,"Delta":118194247},{"NoteNumber":68,"Velocity":66,"Duration":37560,"SoundDuration":37560,"Delta":118494728},{"NoteNumber":37,"Velocity":65,"Duration":150240,"SoundDuration":150240,"Delta":118494728},{"NoteNumber":70,"Velocity":66,"Duration":37560,"SoundDuration":37560,"Delta":118532288},{"NoteNumber":65,"Velocity":72,"Duration":75120,"SoundDuration":75120,"Delta":118569848},{"NoteNumber":68,"Velocity":72,"Duration":75120,"SoundDuration":75120,"Delta":118569848},{"NoteNumber":59,"Velocity":56,"Duration":293814,"SoundDuration":293814,"Delta":118795209},{"NoteNumber":56,"Velocity":56,"Duration":293814,"SoundDuration":293814,"Delta":118795209},{"NoteNumber":49,"Velocity":56,"Duration":293814,"SoundDuration":293814,"Delta":118795209},{"NoteNumber":63,"Velocity":60,"Duration":146907,"SoundDuration":146907,"Delta":118942116},{"NoteNumber":66,"Velocity":60,"Duration":146907,"SoundDuration":146907,"Delta":118942116},{"NoteNumber":65,"Velocity":72,"Duration":293815,"SoundDuration":293815,"Delta":119089024},{"NoteNumber":68,"Velocity":72,"Duration":293815,"SoundDuration":293815,"Delta":119089024},{"NoteNumber":49,"Velocity":57,"Duration":293815,"SoundDuration":293815,"Delta":119089024},{"NoteNumber":56,"Velocity":57,"Duration":293815,"SoundDuration":293815,"Delta":119089024},{"NoteNumber":59,"Velocity":57,"Duration":293815,"SoundDuration":293815,"Delta":119089024},{"NoteNumber":66,"Velocity":76,"Duration":136172,"SoundDuration":136172,"Delta":119382839},{"NoteNumber":70,"Velocity":76,"Duration":136172,"SoundDuration":136172,"Delta":119382839},{"NoteNumber":42,"Velocity":63,"Duration":136172,"SoundDuration":136172,"Delta":119382839},{"NoteNumber":58,"Velocity":45,"Duration":280021,"SoundDuration":280021,"Delta":119655183},{"NoteNumber":54,"Velocity":45,"Duration":280021,"SoundDuration":280021,"Delta":119655183},{"NoteNumber":49,"Velocity":45,"Duration":280021,"SoundDuration":280021,"Delta":119655183},{"NoteNumber":70,"Velocity":81,"Duration":141343,"SoundDuration":141343,"Delta":119935204},{"NoteNumber":73,"Velocity":81,"Duration":141343,"SoundDuration":141343,"Delta":119935204},{"NoteNumber":49,"Velocity":45,"Duration":141343,"SoundDuration":141343,"Delta":119935204},{"NoteNumber":54,"Velocity":45,"Duration":141343,"SoundDuration":141343,"Delta":119935204},{"NoteNumber":58,"Velocity":45,"Duration":141343,"SoundDuration":141343,"Delta":119935204},{"NoteNumber":70,"Velocity":87,"Duration":842025,"SoundDuration":842025,"Delta":120217890},{"NoteNumber":78,"Velocity":87,"Duration":842025,"SoundDuration":842025,"Delta":120217890},{"NoteNumber":42,"Velocity":55,"Duration":140337,"SoundDuration":140337,"Delta":120217890},{"NoteNumber":50,"Velocity":41,"Duration":280675,"SoundDuration":280675,"Delta":120498565},{"NoteNumber":58,"Velocity":41,"Duration":280675,"SoundDuration":280675,"Delta":120498565},{"NoteNumber":51,"Velocity":46,"Duration":280675,"SoundDuration":280675,"Delta":120779240},{"NoteNumber":58,"Velocity":46,"Duration":280675,"SoundDuration":280675,"Delta":120779240},{"NoteNumber":68,"Velocity":58,"Duration":138389,"SoundDuration":138389,"Delta":121059915},{"NoteNumber":77,"Velocity":58,"Duration":138389,"SoundDuration":138389,"Delta":121059915},{"NoteNumber":44,"Velocity":35,"Duration":138389,"SoundDuration":138389,"Delta":121059915},{"NoteNumber":60,"Velocity":32,"Duration":271112,"SoundDuration":271112,"Delta":121336693},{"NoteNumber":56,"Velocity":32,"Duration":271112,"SoundDuration":271112,"Delta":121336693},{"NoteNumber":51,"Velocity":32,"Duration":271112,"SoundDuration":271112,"Delta":121336693},{"NoteNumber":75,"Velocity":54,"Duration":67778,"SoundDuration":67778,"Delta":121472249},{"NoteNumber":66,"Velocity":58,"Duration":271112,"SoundDuration":271112,"Delta":121607806},{"NoteNumber":75,"Velocity":58,"Duration":271112,"SoundDuration":271112,"Delta":121607806},{"NoteNumber":60,"Velocity":37,"Duration":271112,"SoundDuration":271112,"Delta":121607806},{"NoteNumber":56,"Velocity":37,"Duration":271112,"SoundDuration":271112,"Delta":121607806},{"NoteNumber":51,"Velocity":37,"Duration":271112,"SoundDuration":271112,"Delta":121607806},{"NoteNumber":68,"Velocity":60,"Duration":138709,"SoundDuration":138709,"Delta":121878919},{"NoteNumber":77,"Velocity":60,"Duration":138709,"SoundDuration":138709,"Delta":121878919},{"NoteNumber":44,"Velocity":45,"Duration":138709,"SoundDuration":138709,"Delta":121878919},{"NoteNumber":60,"Velocity":38,"Duration":272975,"SoundDuration":272975,"Delta":122156337},{"NoteNumber":56,"Velocity":38,"Duration":272975,"SoundDuration":272975,"Delta":122156337},{"NoteNumber":51,"Velocity":38,"Duration":272975,"SoundDuration":272975,"Delta":122156337},{"NoteNumber":75,"Velocity":50,"Duration":68243,"SoundDuration":68243,"Delta":122292824},{"NoteNumber":66,"Velocity":56,"Duration":272975,"SoundDuration":272975,"Delta":122429312},{"NoteNumber":75,"Velocity":56,"Duration":272975,"SoundDuration":272975,"Delta":122429312},{"NoteNumber":51,"Velocity":38,"Duration":272975,"SoundDuration":272975,"Delta":122429312},{"NoteNumber":56,"Velocity":38,"Duration":272975,"SoundDuration":272975,"Delta":122429312},{"NoteNumber":60,"Velocity":38,"Duration":272975,"SoundDuration":272975,"Delta":122429312},{"NoteNumber":68,"Velocity":60,"Duration":138389,"SoundDuration":138389,"Delta":122702287},{"NoteNumber":77,"Velocity":60,"Duration":138389,"SoundDuration":138389,"Delta":122702287},{"NoteNumber":44,"Velocity":49,"Duration":138389,"SoundDuration":138389,"Delta":122702287},{"NoteNumber":60,"Velocity":35,"Duration":280675,"SoundDuration":280675,"Delta":122979065},{"NoteNumber":56,"Velocity":35,"Duration":280675,"SoundDuration":280675,"Delta":122979065},{"NoteNumber":51,"Velocity":35,"Duration":280675,"SoundDuration":280675,"Delta":122979065},{"NoteNumber":75,"Velocity":51,"Duration":70168,"SoundDuration":70168,"Delta":123119402},{"NoteNumber":66,"Velocity":57,"Duration":280675,"SoundDuration":280675,"Delta":123259740},{"NoteNumber":75,"Velocity":57,"Duration":280675,"SoundDuration":280675,"Delta":123259740},{"NoteNumber":51,"Velocity":40,"Duration":280675,"SoundDuration":280675,"Delta":123259740},{"NoteNumber":56,"Velocity":40,"Duration":280675,"SoundDuration":280675,"Delta":123259740},{"NoteNumber":60,"Velocity":40,"Duration":280675,"SoundDuration":280675,"Delta":123259740},{"NoteNumber":64,"Velocity":68,"Duration":140337,"SoundDuration":140337,"Delta":123540415},{"NoteNumber":72,"Velocity":68,"Duration":140337,"SoundDuration":140337,"Delta":123540415},{"NoteNumber":49,"Velocity":34,"Duration":842024,"SoundDuration":842024,"Delta":123540415},{"NoteNumber":61,"Velocity":38,"Duration":280674,"SoundDuration":280674,"Delta":123821090},{"NoteNumber":56,"Velocity":38,"Duration":280674,"SoundDuration":280674,"Delta":123821090},{"NoteNumber":73,"Velocity":56,"Duration":70168,"SoundDuration":70168,"Delta":123961427},{"NoteNumber":65,"Velocity":62,"Duration":280675,"SoundDuration":280675,"Delta":124101765},{"NoteNumber":73,"Velocity":62,"Duration":280675,"SoundDuration":280675,"Delta":124101765},{"NoteNumber":61,"Velocity":35,"Duration":280675,"SoundDuration":280675,"Delta":124101765},{"NoteNumber":56,"Velocity":35,"Duration":280675,"SoundDuration":280675,"Delta":124101765},{"NoteNumber":77,"Velocity":86,"Duration":138709,"SoundDuration":138709,"Delta":124382440},{"NoteNumber":80,"Velocity":86,"Duration":138709,"SoundDuration":138709,"Delta":124382440},{"NoteNumber":49,"Velocity":60,"Duration":138709,"SoundDuration":138709,"Delta":124382440},{"NoteNumber":71,"Velocity":45,"Duration":273610,"SoundDuration":273610,"Delta":124659858},{"NoteNumber":68,"Velocity":45,"Duration":273610,"SoundDuration":273610,"Delta":124659858},{"NoteNumber":61,"Velocity":45,"Duration":273610,"SoundDuration":273610,"Delta":124659858},{"NoteNumber":80,"Velocity":72,"Duration":68402,"SoundDuration":68402,"Delta":124796663},{"NoteNumber":77,"Velocity":72,"Duration":68402,"SoundDuration":68402,"Delta":124796663},{"NoteNumber":77,"Velocity":80,"Duration":273609,"SoundDuration":273609,"Delta":124933468},{"NoteNumber":80,"Velocity":80,"Duration":273609,"SoundDuration":273609,"Delta":124933468},{"NoteNumber":61,"Velocity":54,"Duration":273609,"SoundDuration":273609,"Delta":124933468},{"NoteNumber":68,"Velocity":54,"Duration":273609,"SoundDuration":273609,"Delta":124933468},{"NoteNumber":71,"Velocity":54,"Duration":273609,"SoundDuration":273609,"Delta":124933468},{"NoteNumber":80,"Velocity":77,"Duration":35084,"SoundDuration":35084,"Delta":125207078},{"NoteNumber":49,"Velocity":63,"Duration":140337,"SoundDuration":140337,"Delta":125207078},{"NoteNumber":82,"Velocity":78,"Duration":35084,"SoundDuration":35084,"Delta":125242162},{"NoteNumber":77,"Velocity":86,"Duration":70168,"SoundDuration":70168,"Delta":125277246},{"NoteNumber":80,"Velocity":86,"Duration":70168,"SoundDuration":70168,"Delta":125277246},{"NoteNumber":61,"Velocity":45,"Duration":270501,"SoundDuration":270501,"Delta":125485804},{"NoteNumber":68,"Velocity":45,"Duration":270501,"SoundDuration":270501,"Delta":125485804},{"NoteNumber":71,"Velocity":45,"Duration":270501,"SoundDuration":270501,"Delta":125485804},{"NoteNumber":75,"Velocity":80,"Duration":135250,"SoundDuration":135250,"Delta":125621055},{"NoteNumber":78,"Velocity":80,"Duration":135250,"SoundDuration":135250,"Delta":125621055},{"NoteNumber":77,"Velocity":80,"Duration":270502,"SoundDuration":270502,"Delta":125756306},{"NoteNumber":80,"Velocity":80,"Duration":270502,"SoundDuration":270502,"Delta":125756306},{"NoteNumber":71,"Velocity":48,"Duration":270502,"SoundDuration":270502,"Delta":125756306},{"NoteNumber":68,"Velocity":48,"Duration":270502,"SoundDuration":270502,"Delta":125756306},{"NoteNumber":61,"Velocity":48,"Duration":270502,"SoundDuration":270502,"Delta":125756306},{"NoteNumber":82,"Velocity":88,"Duration":133433,"SoundDuration":133433,"Delta":126026808},{"NoteNumber":78,"Velocity":88,"Duration":133433,"SoundDuration":133433,"Delta":126026808},{"NoteNumber":54,"Velocity":50,"Duration":133433,"SoundDuration":133433,"Delta":126026808},{"NoteNumber":70,"Velocity":49,"Duration":268673,"SoundDuration":268673,"Delta":126293676},{"NoteNumber":66,"Velocity":49,"Duration":268673,"SoundDuration":268673,"Delta":126293676},{"NoteNumber":61,"Velocity":49,"Duration":268673,"SoundDuration":268673,"Delta":126293676},{"NoteNumber":85,"Velocity":88,"Duration":136172,"SoundDuration":136172,"Delta":126562349},{"NoteNumber":82,"Velocity":88,"Duration":136172,"SoundDuration":136172,"Delta":126562349},{"NoteNumber":61,"Velocity":55,"Duration":136172,"SoundDuration":136172,"Delta":126562349},{"NoteNumber":66,"Velocity":55,"Duration":136172,"SoundDuration":136172,"Delta":126562349},{"NoteNumber":70,"Velocity":55,"Duration":136172,"SoundDuration":136172,"Delta":126562349},{"NoteNumber":90,"Velocity":94,"Duration":812308,"SoundDuration":812308,"Delta":126834693},{"NoteNumber":82,"Velocity":94,"Duration":812308,"SoundDuration":812308,"Delta":126834693},{"NoteNumber":54,"Velocity":46,"Duration":132549,"SoundDuration":132549,"Delta":126834693},{"NoteNumber":62,"Velocity":43,"Duration":274863,"SoundDuration":274863,"Delta":127099793},{"NoteNumber":70,"Velocity":43,"Duration":274863,"SoundDuration":274863,"Delta":127099793},{"NoteNumber":63,"Velocity":43,"Duration":272344,"SoundDuration":272344,"Delta":127374657},{"NoteNumber":70,"Velocity":43,"Duration":272344,"SoundDuration":272344,"Delta":127374657},{"NoteNumber":89,"Velocity":58,"Duration":132549,"SoundDuration":132549,"Delta":127647001},{"NoteNumber":80,"Velocity":58,"Duration":132549,"SoundDuration":132549,"Delta":127647001},{"NoteNumber":56,"Velocity":49,"Duration":132549,"SoundDuration":132549,"Delta":127647001},{"NoteNumber":63,"Velocity":42,"Duration":260450,"SoundDuration":260450,"Delta":127912101},{"NoteNumber":68,"Velocity":42,"Duration":260450,"SoundDuration":260450,"Delta":127912101},{"NoteNumber":72,"Velocity":42,"Duration":260450,"SoundDuration":260450,"Delta":127912101},{"NoteNumber":87,"Velocity":48,"Duration":65112,"SoundDuration":65112,"Delta":128042327},{"NoteNumber":78,"Velocity":56,"Duration":260451,"SoundDuration":260451,"Delta":128172552},{"NoteNumber":87,"Velocity":56,"Duration":260451,"SoundDuration":260451,"Delta":128172552},{"NoteNumber":72,"Velocity":36,"Duration":260451,"SoundDuration":260451,"Delta":128172552},{"NoteNumber":68,"Velocity":36,"Duration":260451,"SoundDuration":260451,"Delta":128172552},{"NoteNumber":63,"Velocity":36,"Duration":260451,"SoundDuration":260451,"Delta":128172552},{"NoteNumber":89,"Velocity":59,"Duration":132843,"SoundDuration":132843,"Delta":128433003},{"NoteNumber":80,"Velocity":59,"Duration":132843,"SoundDuration":132843,"Delta":128433003},{"NoteNumber":56,"Velocity":44,"Duration":132843,"SoundDuration":132843,"Delta":128433003},{"NoteNumber":72,"Velocity":36,"Duration":259886,"SoundDuration":259886,"Delta":128698690},{"NoteNumber":68,"Velocity":36,"Duration":259886,"SoundDuration":259886,"Delta":128698690},{"NoteNumber":63,"Velocity":36,"Duration":259886,"SoundDuration":259886,"Delta":128698690},{"NoteNumber":87,"Velocity":55,"Duration":64971,"SoundDuration":64971,"Delta":128828634},{"NoteNumber":78,"Velocity":55,"Duration":259887,"SoundDuration":259887,"Delta":128958577},{"NoteNumber":87,"Velocity":55,"Duration":259887,"SoundDuration":259887,"Delta":128958577},{"NoteNumber":63,"Velocity":36,"Duration":259887,"SoundDuration":259887,"Delta":128958577},{"NoteNumber":68,"Velocity":36,"Duration":259887,"SoundDuration":259887,"Delta":128958577},{"NoteNumber":72,"Velocity":36,"Duration":259887,"SoundDuration":259887,"Delta":128958577},{"NoteNumber":80,"Velocity":59,"Duration":133731,"SoundDuration":133731,"Delta":129218464},{"NoteNumber":89,"Velocity":59,"Duration":133731,"SoundDuration":133731,"Delta":129218464},{"NoteNumber":56,"Velocity":43,"Duration":133731,"SoundDuration":133731,"Delta":129218464},{"NoteNumber":72,"Velocity":32,"Duration":282020,"SoundDuration":282020,"Delta":129485927},{"NoteNumber":68,"Velocity":32,"Duration":282020,"SoundDuration":282020,"Delta":129485927},{"NoteNumber":63,"Velocity":32,"Duration":282020,"SoundDuration":282020,"Delta":129485927},{"NoteNumber":87,"Velocity":50,"Duration":70505,"SoundDuration":70505,"Delta":129626938},{"NoteNumber":78,"Velocity":55,"Duration":296019,"SoundDuration":296019,"Delta":129767948},{"NoteNumber":87,"Velocity":55,"Duration":296019,"SoundDuration":296019,"Delta":129767948},{"NoteNumber":63,"Velocity":38,"Duration":296019,"SoundDuration":296019,"Delta":129767948},{"NoteNumber":68,"Velocity":38,"Duration":296019,"SoundDuration":296019,"Delta":129767948},{"NoteNumber":72,"Velocity":38,"Duration":296019,"SoundDuration":296019,"Delta":129767948},{"NoteNumber":85,"Velocity":59,"Duration":296019,"SoundDuration":296019,"Delta":130063967},{"NoteNumber":77,"Velocity":59,"Duration":296019,"SoundDuration":296019,"Delta":130063967},{"NoteNumber":61,"Velocity":38,"Duration":296019,"SoundDuration":296019,"Delta":130063967},{"NoteNumber":68,"Velocity":38,"Duration":296019,"SoundDuration":296019,"Delta":130063967},{"NoteNumber":73,"Velocity":38,"Duration":296019,"SoundDuration":296019,"Delta":130063967},{"NoteNumber":61,"Velocity":67,"Duration":296019,"SoundDuration":296019,"Delta":130656005},{"NoteNumber":65,"Velocity":72,"Duration":142687,"SoundDuration":142687,"Delta":130952024},{"NoteNumber":68,"Velocity":72,"Duration":142687,"SoundDuration":142687,"Delta":130952024},{"NoteNumber":37,"Velocity":59,"Duration":142687,"SoundDuration":142687,"Delta":130952024},{"NoteNumber":59,"Velocity":49,"Duration":285375,"SoundDuration":285375,"Delta":131237399},{"NoteNumber":56,"Velocity":49,"Duration":285375,"SoundDuration":285375,"Delta":131237399},{"NoteNumber":49,"Velocity":49,"Duration":285375,"SoundDuration":285375,"Delta":131237399},{"NoteNumber":65,"Velocity":69,"Duration":142687,"SoundDuration":142687,"Delta":131522774},{"NoteNumber":68,"Velocity":69,"Duration":142687,"SoundDuration":142687,"Delta":131522774},{"NoteNumber":49,"Velocity":55,"Duration":142687,"SoundDuration":142687,"Delta":131522774},{"NoteNumber":56,"Velocity":55,"Duration":142687,"SoundDuration":142687,"Delta":131522774},{"NoteNumber":59,"Velocity":55,"Duration":142687,"SoundDuration":142687,"Delta":131522774},{"NoteNumber":68,"Velocity":66,"Duration":35671,"SoundDuration":35671,"Delta":131808149},{"NoteNumber":37,"Velocity":58,"Duration":142687,"SoundDuration":142687,"Delta":131808149},{"NoteNumber":70,"Velocity":66,"Duration":35671,"SoundDuration":35671,"Delta":131843821},{"NoteNumber":65,"Velocity":72,"Duration":71343,"SoundDuration":71343,"Delta":131879493},{"NoteNumber":68,"Velocity":72,"Duration":71343,"SoundDuration":71343,"Delta":131879493},{"NoteNumber":59,"Velocity":50,"Duration":278074,"SoundDuration":278074,"Delta":132093524},{"NoteNumber":56,"Velocity":50,"Duration":278074,"SoundDuration":278074,"Delta":132093524},{"NoteNumber":49,"Velocity":50,"Duration":278074,"SoundDuration":278074,"Delta":132093524},{"NoteNumber":63,"Velocity":68,"Duration":139037,"SoundDuration":139037,"Delta":132232561},{"NoteNumber":66,"Velocity":68,"Duration":139037,"SoundDuration":139037,"Delta":132232561},{"NoteNumber":65,"Velocity":72,"Duration":278074,"SoundDuration":278074,"Delta":132371598},{"NoteNumber":68,"Velocity":72,"Duration":278074,"SoundDuration":278074,"Delta":132371598},{"NoteNumber":49,"Velocity":54,"Duration":278074,"SoundDuration":278074,"Delta":132371598},{"NoteNumber":56,"Velocity":54,"Duration":278074,"SoundDuration":278074,"Delta":132371598},{"NoteNumber":59,"Velocity":54,"Duration":278074,"SoundDuration":278074,"Delta":132371598},{"NoteNumber":66,"Velocity":76,"Duration":136171,"SoundDuration":136171,"Delta":132649672},{"NoteNumber":70,"Velocity":76,"Duration":136171,"SoundDuration":136171,"Delta":132649672},{"NoteNumber":42,"Velocity":54,"Duration":136171,"SoundDuration":136171,"Delta":132649672},{"NoteNumber":58,"Velocity":51,"Duration":278074,"SoundDuration":278074,"Delta":132922016},{"NoteNumber":54,"Velocity":51,"Duration":278074,"SoundDuration":278074,"Delta":132922016},{"NoteNumber":49,"Velocity":51,"Duration":278074,"SoundDuration":278074,"Delta":132922016},{"NoteNumber":70,"Velocity":81,"Duration":137431,"SoundDuration":137431,"Delta":133200090},{"NoteNumber":73,"Velocity":81,"Duration":137431,"SoundDuration":137431,"Delta":133200090},{"NoteNumber":49,"Velocity":54,"Duration":137431,"SoundDuration":137431,"Delta":133200090},{"NoteNumber":54,"Velocity":54,"Duration":137431,"SoundDuration":137431,"Delta":133200090},{"NoteNumber":58,"Velocity":54,"Duration":137431,"SoundDuration":137431,"Delta":133200090},{"NoteNumber":70,"Velocity":87,"Duration":842025,"SoundDuration":842025,"Delta":133474954},{"NoteNumber":78,"Velocity":87,"Duration":842025,"SoundDuration":842025,"Delta":133474954},{"NoteNumber":42,"Velocity":63,"Duration":140337,"SoundDuration":140337,"Delta":133474954},{"NoteNumber":50,"Velocity":51,"Duration":280675,"SoundDuration":280675,"Delta":133755629},{"NoteNumber":58,"Velocity":51,"Duration":280675,"SoundDuration":280675,"Delta":133755629},{"NoteNumber":51,"Velocity":54,"Duration":280675,"SoundDuration":280675,"Delta":134036304},{"NoteNumber":58,"Velocity":54,"Duration":280675,"SoundDuration":280675,"Delta":134036304},{"NoteNumber":68,"Velocity":61,"Duration":138388,"SoundDuration":138388,"Delta":134316979},{"NoteNumber":77,"Velocity":61,"Duration":138388,"SoundDuration":138388,"Delta":134316979},{"NoteNumber":44,"Velocity":45,"Duration":138388,"SoundDuration":138388,"Delta":134316979},{"NoteNumber":60,"Velocity":34,"Duration":271113,"SoundDuration":271113,"Delta":134593757},{"NoteNumber":56,"Velocity":34,"Duration":271113,"SoundDuration":271113,"Delta":134593757},{"NoteNumber":51,"Velocity":34,"Duration":271113,"SoundDuration":271113,"Delta":134593757},{"NoteNumber":75,"Velocity":52,"Duration":67778,"SoundDuration":67778,"Delta":134729314},{"NoteNumber":66,"Velocity":56,"Duration":271112,"SoundDuration":271112,"Delta":134864870},{"NoteNumber":75,"Velocity":56,"Duration":271112,"SoundDuration":271112,"Delta":134864870},{"NoteNumber":60,"Velocity":37,"Duration":271112,"SoundDuration":271112,"Delta":134864870},{"NoteNumber":56,"Velocity":37,"Duration":271112,"SoundDuration":271112,"Delta":134864870},{"NoteNumber":51,"Velocity":37,"Duration":271112,"SoundDuration":271112,"Delta":134864870},{"NoteNumber":68,"Velocity":60,"Duration":138709,"SoundDuration":138709,"Delta":135135983},{"NoteNumber":77,"Velocity":60,"Duration":138709,"SoundDuration":138709,"Delta":135135983},{"NoteNumber":44,"Velocity":45,"Duration":138709,"SoundDuration":138709,"Delta":135135983},{"NoteNumber":60,"Velocity":34,"Duration":272975,"SoundDuration":272975,"Delta":135413401},{"NoteNumber":56,"Velocity":34,"Duration":272975,"SoundDuration":272975,"Delta":135413401},{"NoteNumber":51,"Velocity":34,"Duration":272975,"SoundDuration":272975,"Delta":135413401},{"NoteNumber":75,"Velocity":52,"Duration":68243,"SoundDuration":68243,"Delta":135549889},{"NoteNumber":66,"Velocity":56,"Duration":272975,"SoundDuration":272975,"Delta":135686376},{"NoteNumber":75,"Velocity":56,"Duration":272975,"SoundDuration":272975,"Delta":135686376},{"NoteNumber":51,"Velocity":38,"Duration":272975,"SoundDuration":272975,"Delta":135686376},{"NoteNumber":56,"Velocity":38,"Duration":272975,"SoundDuration":272975,"Delta":135686376},{"NoteNumber":60,"Velocity":38,"Duration":272975,"SoundDuration":272975,"Delta":135686376},{"NoteNumber":68,"Velocity":60,"Duration":138388,"SoundDuration":138388,"Delta":135959351},{"NoteNumber":77,"Velocity":60,"Duration":138388,"SoundDuration":138388,"Delta":135959351},{"NoteNumber":44,"Velocity":49,"Duration":138388,"SoundDuration":138388,"Delta":135959351},{"NoteNumber":60,"Velocity":36,"Duration":280675,"SoundDuration":280675,"Delta":136236129},{"NoteNumber":56,"Velocity":36,"Duration":280675,"SoundDuration":280675,"Delta":136236129},{"NoteNumber":51,"Velocity":36,"Duration":280675,"SoundDuration":280675,"Delta":136236129},{"NoteNumber":75,"Velocity":55,"Duration":70168,"SoundDuration":70168,"Delta":136376467},{"NoteNumber":66,"Velocity":57,"Duration":280675,"SoundDuration":280675,"Delta":136516804},{"NoteNumber":75,"Velocity":57,"Duration":280675,"SoundDuration":280675,"Delta":136516804},{"NoteNumber":51,"Velocity":40,"Duration":280675,"SoundDuration":280675,"Delta":136516804},{"NoteNumber":56,"Velocity":40,"Duration":280675,"SoundDuration":280675,"Delta":136516804},{"NoteNumber":60,"Velocity":40,"Duration":280675,"SoundDuration":280675,"Delta":136516804},{"NoteNumber":64,"Velocity":68,"Duration":140337,"SoundDuration":140337,"Delta":136797479},{"NoteNumber":72,"Velocity":68,"Duration":140337,"SoundDuration":140337,"Delta":136797479},{"NoteNumber":49,"Velocity":52,"Duration":842025,"SoundDuration":842025,"Delta":136797479},{"NoteNumber":61,"Velocity":45,"Duration":280675,"SoundDuration":280675,"Delta":137078154},{"NoteNumber":56,"Velocity":45,"Duration":280675,"SoundDuration":280675,"Delta":137078154},{"NoteNumber":73,"Velocity":58,"Duration":70168,"SoundDuration":70168,"Delta":137218492},{"NoteNumber":65,"Velocity":62,"Duration":280675,"SoundDuration":280675,"Delta":137358829},{"NoteNumber":73,"Velocity":62,"Duration":280675,"SoundDuration":280675,"Delta":137358829},{"NoteNumber":61,"Velocity":45,"Duration":280675,"SoundDuration":280675,"Delta":137358829},{"NoteNumber":56,"Velocity":45,"Duration":280675,"SoundDuration":280675,"Delta":137358829},{"NoteNumber":77,"Velocity":86,"Duration":138709,"SoundDuration":138709,"Delta":137639504},{"NoteNumber":80,"Velocity":86,"Duration":138709,"SoundDuration":138709,"Delta":137639504},{"NoteNumber":49,"Velocity":60,"Duration":138709,"SoundDuration":138709,"Delta":137639504},{"NoteNumber":71,"Velocity":50,"Duration":273609,"SoundDuration":273609,"Delta":137916922},{"NoteNumber":68,"Velocity":50,"Duration":273609,"SoundDuration":273609,"Delta":137916922},{"NoteNumber":61,"Velocity":50,"Duration":273609,"SoundDuration":273609,"Delta":137916922},{"NoteNumber":80,"Velocity":80,"Duration":68402,"SoundDuration":68402,"Delta":138053727},{"NoteNumber":77,"Velocity":80,"Duration":68402,"SoundDuration":68402,"Delta":138053727},{"NoteNumber":77,"Velocity":80,"Duration":273610,"SoundDuration":273610,"Delta":138190532},{"NoteNumber":80,"Velocity":80,"Duration":273610,"SoundDuration":273610,"Delta":138190532},{"NoteNumber":61,"Velocity":56,"Duration":273610,"SoundDuration":273610,"Delta":138190532},{"NoteNumber":68,"Velocity":56,"Duration":273610,"SoundDuration":273610,"Delta":138190532},{"NoteNumber":71,"Velocity":56,"Duration":273610,"SoundDuration":273610,"Delta":138190532},{"NoteNumber":80,"Velocity":77,"Duration":35084,"SoundDuration":35084,"Delta":138464142},{"NoteNumber":49,"Velocity":60,"Duration":140337,"SoundDuration":140337,"Delta":138464142},{"NoteNumber":82,"Velocity":78,"Duration":35084,"SoundDuration":35084,"Delta":138499226},{"NoteNumber":77,"Velocity":86,"Duration":70168,"SoundDuration":70168,"Delta":138534311},{"NoteNumber":80,"Velocity":86,"Duration":70168,"SoundDuration":70168,"Delta":138534311},{"NoteNumber":61,"Velocity":47,"Duration":270501,"SoundDuration":270501,"Delta":138742869},{"NoteNumber":68,"Velocity":47,"Duration":270501,"SoundDuration":270501,"Delta":138742869},{"NoteNumber":71,"Velocity":47,"Duration":270501,"SoundDuration":270501,"Delta":138742869},{"NoteNumber":75,"Velocity":75,"Duration":135250,"SoundDuration":135250,"Delta":138878120},{"NoteNumber":78,"Velocity":75,"Duration":135250,"SoundDuration":135250,"Delta":138878120},{"NoteNumber":77,"Velocity":80,"Duration":270501,"SoundDuration":270501,"Delta":139013371},{"NoteNumber":80,"Velocity":80,"Duration":270501,"SoundDuration":270501,"Delta":139013371},{"NoteNumber":71,"Velocity":53,"Duration":270501,"SoundDuration":270501,"Delta":139013371},{"NoteNumber":68,"Velocity":53,"Duration":270501,"SoundDuration":270501,"Delta":139013371},{"NoteNumber":61,"Velocity":53,"Duration":270501,"SoundDuration":270501,"Delta":139013371},{"NoteNumber":82,"Velocity":88,"Duration":133433,"SoundDuration":133433,"Delta":139283873},{"NoteNumber":78,"Velocity":88,"Duration":133433,"SoundDuration":133433,"Delta":139283873},{"NoteNumber":54,"Velocity":60,"Duration":133433,"SoundDuration":133433,"Delta":139283873},{"NoteNumber":70,"Velocity":56,"Duration":268673,"SoundDuration":268673,"Delta":139550741},{"NoteNumber":66,"Velocity":56,"Duration":268673,"SoundDuration":268673,"Delta":139550741},{"NoteNumber":61,"Velocity":56,"Duration":268673,"SoundDuration":268673,"Delta":139550741},{"NoteNumber":85,"Velocity":92,"Duration":136171,"SoundDuration":136171,"Delta":139819414},{"NoteNumber":82,"Velocity":92,"Duration":136171,"SoundDuration":136171,"Delta":139819414},{"NoteNumber":61,"Velocity":60,"Duration":136171,"SoundDuration":136171,"Delta":139819414},{"NoteNumber":66,"Velocity":60,"Duration":136171,"SoundDuration":136171,"Delta":139819414},{"NoteNumber":70,"Velocity":60,"Duration":136171,"SoundDuration":136171,"Delta":139819414},{"NoteNumber":90,"Velocity":101,"Duration":812308,"SoundDuration":812308,"Delta":140091758},{"NoteNumber":82,"Velocity":101,"Duration":812308,"SoundDuration":812308,"Delta":140091758},{"NoteNumber":54,"Velocity":67,"Duration":132550,"SoundDuration":132550,"Delta":140091758},{"NoteNumber":62,"Velocity":61,"Duration":274864,"SoundDuration":274864,"Delta":140356858},{"NoteNumber":70,"Velocity":61,"Duration":274864,"SoundDuration":274864,"Delta":140356858},{"NoteNumber":63,"Velocity":62,"Duration":272344,"SoundDuration":272344,"Delta":140631722},{"NoteNumber":70,"Velocity":62,"Duration":272344,"SoundDuration":272344,"Delta":140631722},{"NoteNumber":89,"Velocity":59,"Duration":132550,"SoundDuration":132550,"Delta":140904066},{"NoteNumber":80,"Velocity":59,"Duration":132550,"SoundDuration":132550,"Delta":140904066},{"NoteNumber":56,"Velocity":45,"Duration":132550,"SoundDuration":132550,"Delta":140904066},{"NoteNumber":63,"Velocity":35,"Duration":260450,"SoundDuration":260450,"Delta":141169166},{"NoteNumber":68,"Velocity":35,"Duration":260450,"SoundDuration":260450,"Delta":141169166},{"NoteNumber":72,"Velocity":35,"Duration":260450,"SoundDuration":260450,"Delta":141169166},{"NoteNumber":87,"Velocity":56,"Duration":65112,"SoundDuration":65112,"Delta":141299391},{"NoteNumber":78,"Velocity":56,"Duration":260451,"SoundDuration":260451,"Delta":141429617},{"NoteNumber":87,"Velocity":56,"Duration":260451,"SoundDuration":260451,"Delta":141429617},{"NoteNumber":72,"Velocity":38,"Duration":260451,"SoundDuration":260451,"Delta":141429617},{"NoteNumber":68,"Velocity":38,"Duration":260451,"SoundDuration":260451,"Delta":141429617},{"NoteNumber":63,"Velocity":38,"Duration":260451,"SoundDuration":260451,"Delta":141429617},{"NoteNumber":89,"Velocity":59,"Duration":132843,"SoundDuration":132843,"Delta":141690068},{"NoteNumber":80,"Velocity":59,"Duration":132843,"SoundDuration":132843,"Delta":141690068},{"NoteNumber":56,"Velocity":44,"Duration":132843,"SoundDuration":132843,"Delta":141690068},{"NoteNumber":72,"Velocity":35,"Duration":259886,"SoundDuration":259886,"Delta":141955755},{"NoteNumber":68,"Velocity":35,"Duration":259886,"SoundDuration":259886,"Delta":141955755},{"NoteNumber":63,"Velocity":35,"Duration":259886,"SoundDuration":259886,"Delta":141955755},{"NoteNumber":87,"Velocity":51,"Duration":64971,"SoundDuration":64971,"Delta":142085698},{"NoteNumber":78,"Velocity":55,"Duration":259887,"SoundDuration":259887,"Delta":142215642},{"NoteNumber":87,"Velocity":55,"Duration":259887,"SoundDuration":259887,"Delta":142215642},{"NoteNumber":63,"Velocity":36,"Duration":259887,"SoundDuration":259887,"Delta":142215642},{"NoteNumber":68,"Velocity":36,"Duration":259887,"SoundDuration":259887,"Delta":142215642},{"NoteNumber":72,"Velocity":36,"Duration":259887,"SoundDuration":259887,"Delta":142215642},{"NoteNumber":80,"Velocity":59,"Duration":133731,"SoundDuration":133731,"Delta":142475529},{"NoteNumber":89,"Velocity":59,"Duration":133731,"SoundDuration":133731,"Delta":142475529},{"NoteNumber":56,"Velocity":46,"Duration":133731,"SoundDuration":133731,"Delta":142475529},{"NoteNumber":72,"Velocity":36,"Duration":282020,"SoundDuration":282020,"Delta":142742992},{"NoteNumber":68,"Velocity":36,"Duration":282020,"SoundDuration":282020,"Delta":142742992},{"NoteNumber":63,"Velocity":36,"Duration":282020,"SoundDuration":282020,"Delta":142742992},{"NoteNumber":87,"Velocity":52,"Duration":70505,"SoundDuration":70505,"Delta":142884002},{"NoteNumber":78,"Velocity":55,"Duration":296019,"SoundDuration":296019,"Delta":143025013},{"NoteNumber":87,"Velocity":55,"Duration":296019,"SoundDuration":296019,"Delta":143025013},{"NoteNumber":63,"Velocity":38,"Duration":296019,"SoundDuration":296019,"Delta":143025013},{"NoteNumber":68,"Velocity":38,"Duration":296019,"SoundDuration":296019,"Delta":143025013},{"NoteNumber":72,"Velocity":38,"Duration":296019,"SoundDuration":296019,"Delta":143025013},{"NoteNumber":85,"Velocity":59,"Duration":296019,"SoundDuration":296019,"Delta":143321032},{"NoteNumber":77,"Velocity":59,"Duration":296019,"SoundDuration":296019,"Delta":143321032},{"NoteNumber":61,"Velocity":45,"Duration":296019,"SoundDuration":296019,"Delta":143321032},{"NoteNumber":68,"Velocity":45,"Duration":296019,"SoundDuration":296019,"Delta":143321032},{"NoteNumber":73,"Velocity":45,"Duration":296019,"SoundDuration":296019,"Delta":143321032},{"NoteNumber":77,"Velocity":50,"Duration":221506,"SoundDuration":221506,"Delta":143913070},{"NoteNumber":77,"Velocity":45,"Duration":32415,"SoundDuration":32415,"Delta":144139979},{"NoteNumber":78,"Velocity":52,"Duration":129662,"SoundDuration":129662,"Delta":144172395},{"NoteNumber":46,"Velocity":50,"Duration":129662,"SoundDuration":129662,"Delta":144172395},{"NoteNumber":78,"Velocity":41,"Duration":32415,"SoundDuration":32415,"Delta":144399304},{"NoteNumber":76,"Velocity":46,"Duration":129662,"SoundDuration":129662,"Delta":144431720},{"NoteNumber":61,"Velocity":42,"Duration":129662,"SoundDuration":129662,"Delta":144431720},{"NoteNumber":53,"Velocity":42,"Duration":129662,"SoundDuration":129662,"Delta":144431720},{"NoteNumber":76,"Velocity":43,"Duration":32415,"SoundDuration":32415,"Delta":144658629},{"NoteNumber":77,"Velocity":50,"Duration":129662,"SoundDuration":129662,"Delta":144691045},{"NoteNumber":61,"Velocity":46,"Duration":129662,"SoundDuration":129662,"Delta":144691045},{"NoteNumber":53,"Velocity":46,"Duration":129662,"SoundDuration":129662,"Delta":144691045},{"NoteNumber":77,"Velocity":46,"Duration":32415,"SoundDuration":32415,"Delta":144917954},{"NoteNumber":78,"Velocity":53,"Duration":128545,"SoundDuration":128545,"Delta":144950370},{"NoteNumber":45,"Velocity":50,"Duration":128545,"SoundDuration":128545,"Delta":144950370},{"NoteNumber":78,"Velocity":44,"Duration":32136,"SoundDuration":32136,"Delta":145175324},{"NoteNumber":76,"Velocity":50,"Duration":128545,"SoundDuration":128545,"Delta":145207461},{"NoteNumber":53,"Velocity":45,"Duration":128545,"SoundDuration":128545,"Delta":145207461},{"NoteNumber":63,"Velocity":45,"Duration":128545,"SoundDuration":128545,"Delta":145207461},{"NoteNumber":60,"Velocity":45,"Duration":128545,"SoundDuration":128545,"Delta":145207461},{"NoteNumber":76,"Velocity":45,"Duration":32136,"SoundDuration":32136,"Delta":145432415},{"NoteNumber":77,"Velocity":50,"Duration":128545,"SoundDuration":128545,"Delta":145464552},{"NoteNumber":63,"Velocity":39,"Duration":128545,"SoundDuration":128545,"Delta":145464552},{"NoteNumber":60,"Velocity":39,"Duration":128545,"SoundDuration":128545,"Delta":145464552},{"NoteNumber":53,"Velocity":39,"Duration":128545,"SoundDuration":128545,"Delta":145464552},{"NoteNumber":77,"Velocity":50,"Duration":32136,"SoundDuration":32136,"Delta":145689506},{"NoteNumber":85,"Velocity":57,"Duration":122199,"SoundDuration":122199,"Delta":145721643},{"NoteNumber":46,"Velocity":50,"Duration":122199,"SoundDuration":122199,"Delta":145721643},{"NoteNumber":85,"Velocity":50,"Duration":30549,"SoundDuration":30549,"Delta":145935492},{"NoteNumber":84,"Velocity":59,"Duration":122199,"SoundDuration":122199,"Delta":145966042},{"NoteNumber":61,"Velocity":47,"Duration":122199,"SoundDuration":122199,"Delta":145966042},{"NoteNumber":58,"Velocity":47,"Duration":122199,"SoundDuration":122199,"Delta":145966042},{"NoteNumber":53,"Velocity":47,"Duration":122199,"SoundDuration":122199,"Delta":145966042},{"NoteNumber":84,"Velocity":56,"Duration":30549,"SoundDuration":30549,"Delta":146179891},{"NoteNumber":83,"Velocity":66,"Duration":122199,"SoundDuration":122199,"Delta":146210441},{"NoteNumber":61,"Velocity":53,"Duration":122199,"SoundDuration":122199,"Delta":146210441},{"NoteNumber":58,"Velocity":53,"Duration":122199,"SoundDuration":122199,"Delta":146210441},{"NoteNumber":53,"Velocity":53,"Duration":122199,"SoundDuration":122199,"Delta":146210441},{"NoteNumber":83,"Velocity":64,"Duration":30549,"SoundDuration":30549,"Delta":146424290},{"NoteNumber":82,"Velocity":75,"Duration":120967,"SoundDuration":120967,"Delta":146454840},{"NoteNumber":51,"Velocity":56,"Duration":60483,"SoundDuration":60483,"Delta":146454840},{"NoteNumber":82,"Velocity":63,"Duration":30241,"SoundDuration":30241,"Delta":146666533},{"NoteNumber":81,"Velocity":73,"Duration":120967,"SoundDuration":120967,"Delta":146696775},{"NoteNumber":66,"Velocity":49,"Duration":120967,"SoundDuration":120967,"Delta":146696775},{"NoteNumber":60,"Velocity":49,"Duration":120967,"SoundDuration":120967,"Delta":146696775},{"NoteNumber":58,"Velocity":49,"Duration":120967,"SoundDuration":120967,"Delta":146696775},{"NoteNumber":81,"Velocity":63,"Duration":30241,"SoundDuration":30241,"Delta":146908468},{"NoteNumber":80,"Velocity":70,"Duration":120967,"SoundDuration":120967,"Delta":146938710},{"NoteNumber":66,"Velocity":50,"Duration":120967,"SoundDuration":120967,"Delta":146938710},{"NoteNumber":58,"Velocity":50,"Duration":120967,"SoundDuration":120967,"Delta":146938710},{"NoteNumber":60,"Velocity":50,"Duration":120967,"SoundDuration":120967,"Delta":146938710},{"NoteNumber":80,"Velocity":58,"Duration":30241,"SoundDuration":30241,"Delta":147150403},{"NoteNumber":79,"Velocity":67,"Duration":120967,"SoundDuration":120967,"Delta":147180645},{"NoteNumber":53,"Velocity":56,"Duration":120967,"SoundDuration":120967,"Delta":147180645},{"NoteNumber":79,"Velocity":54,"Duration":30241,"SoundDuration":30241,"Delta":147392338},{"NoteNumber":78,"Velocity":65,"Duration":120967,"SoundDuration":120967,"Delta":147422580},{"NoteNumber":65,"Velocity":46,"Duration":120967,"SoundDuration":120967,"Delta":147422580},{"NoteNumber":61,"Velocity":46,"Duration":120967,"SoundDuration":120967,"Delta":147422580},{"NoteNumber":58,"Velocity":46,"Duration":120967,"SoundDuration":120967,"Delta":147422580},{"NoteNumber":78,"Velocity":51,"Duration":30241,"SoundDuration":30241,"Delta":147634273},{"NoteNumber":77,"Velocity":63,"Duration":120967,"SoundDuration":120967,"Delta":147664515},{"NoteNumber":65,"Velocity":50,"Duration":120967,"SoundDuration":120967,"Delta":147664515},{"NoteNumber":61,"Velocity":50,"Duration":120967,"SoundDuration":120967,"Delta":147664515},{"NoteNumber":58,"Velocity":50,"Duration":120967,"SoundDuration":120967,"Delta":147664515},{"NoteNumber":77,"Velocity":49,"Duration":30241,"SoundDuration":30241,"Delta":147876208},{"NoteNumber":76,"Velocity":60,"Duration":120820,"SoundDuration":120820,"Delta":147906450},{"NoteNumber":53,"Velocity":50,"Duration":120820,"SoundDuration":120820,"Delta":147906450},{"NoteNumber":76,"Velocity":46,"Duration":30306,"SoundDuration":30306,"Delta":148118108},{"NoteNumber":75,"Velocity":58,"Duration":121557,"SoundDuration":121557,"Delta":148148415},{"NoteNumber":63,"Velocity":46,"Duration":121557,"SoundDuration":121557,"Delta":148148415},{"NoteNumber":65,"Velocity":46,"Duration":121557,"SoundDuration":121557,"Delta":148148415},{"NoteNumber":57,"Velocity":46,"Duration":121557,"SoundDuration":121557,"Delta":148148415},{"NoteNumber":75,"Velocity":44,"Duration":30514,"SoundDuration":30514,"Delta":148361393},{"NoteNumber":72,"Velocity":54,"Duration":122328,"SoundDuration":122328,"Delta":148391908},{"NoteNumber":65,"Velocity":48,"Duration":122328,"SoundDuration":122328,"Delta":148391908},{"NoteNumber":63,"Velocity":48,"Duration":122328,"SoundDuration":122328,"Delta":148391908},{"NoteNumber":57,"Velocity":48,"Duration":122328,"SoundDuration":122328,"Delta":148391908},{"NoteNumber":72,"Velocity":44,"Duration":30723,"SoundDuration":30723,"Delta":148606217},{"NoteNumber":73,"Velocity":52,"Duration":122975,"SoundDuration":122975,"Delta":148636940},{"NoteNumber":46,"Velocity":50,"Duration":61487,"SoundDuration":61487,"Delta":148636940},{"NoteNumber":73,"Velocity":38,"Duration":30743,"SoundDuration":30743,"Delta":148852148},{"NoteNumber":69,"Velocity":48,"Duration":122976,"SoundDuration":122976,"Delta":148882892},{"NoteNumber":61,"Velocity":47,"Duration":122976,"SoundDuration":122976,"Delta":148882892},{"NoteNumber":53,"Velocity":47,"Duration":122976,"SoundDuration":122976,"Delta":148882892},{"NoteNumber":69,"Velocity":39,"Duration":30743,"SoundDuration":30743,"Delta":149098100},{"NoteNumber":70,"Velocity":50,"Duration":122975,"SoundDuration":122975,"Delta":149128844},{"NoteNumber":61,"Velocity":47,"Duration":122975,"SoundDuration":122975,"Delta":149128844},{"NoteNumber":53,"Velocity":47,"Duration":122975,"SoundDuration":122975,"Delta":149128844},{"NoteNumber":70,"Velocity":39,"Duration":30743,"SoundDuration":30743,"Delta":149344052},{"NoteNumber":73,"Velocity":50,"Duration":124776,"SoundDuration":124776,"Delta":149374796},{"NoteNumber":46,"Velocity":50,"Duration":124776,"SoundDuration":124776,"Delta":149374796},{"NoteNumber":73,"Velocity":39,"Duration":31194,"SoundDuration":31194,"Delta":149593155},{"NoteNumber":75,"Velocity":50,"Duration":124776,"SoundDuration":124776,"Delta":149624349},{"NoteNumber":61,"Velocity":47,"Duration":124776,"SoundDuration":124776,"Delta":149624349},{"NoteNumber":53,"Velocity":47,"Duration":124776,"SoundDuration":124776,"Delta":149624349},{"NoteNumber":75,"Velocity":37,"Duration":31194,"SoundDuration":31194,"Delta":149842708},{"NoteNumber":76,"Velocity":51,"Duration":127118,"SoundDuration":127118,"Delta":149873902},{"NoteNumber":61,"Velocity":47,"Duration":127118,"SoundDuration":127118,"Delta":149873902},{"NoteNumber":53,"Velocity":47,"Duration":127118,"SoundDuration":127118,"Delta":149873902},{"NoteNumber":76,"Velocity":40,"Duration":31779,"SoundDuration":31779,"Delta":150096359},{"NoteNumber":78,"Velocity":54,"Duration":125021,"SoundDuration":125021,"Delta":150128139},{"NoteNumber":46,"Velocity":53,"Duration":125021,"SoundDuration":125021,"Delta":150128139},{"NoteNumber":78,"Velocity":44,"Duration":31380,"SoundDuration":31380,"Delta":150347150},{"NoteNumber":76,"Velocity":55,"Duration":125698,"SoundDuration":125698,"Delta":150378531},{"NoteNumber":61,"Velocity":49,"Duration":125698,"SoundDuration":125698,"Delta":150378531},{"NoteNumber":53,"Velocity":49,"Duration":125698,"SoundDuration":125698,"Delta":150378531},{"NoteNumber":76,"Velocity":44,"Duration":31578,"SoundDuration":31578,"Delta":150598767},{"NoteNumber":77,"Velocity":58,"Duration":126449,"SoundDuration":126449,"Delta":150630346},{"NoteNumber":61,"Velocity":52,"Duration":126449,"SoundDuration":126449,"Delta":150630346},{"NoteNumber":53,"Velocity":52,"Duration":126449,"SoundDuration":126449,"Delta":150630346},{"NoteNumber":77,"Velocity":49,"Duration":31734,"SoundDuration":31734,"Delta":150851866},{"NoteNumber":78,"Velocity":62,"Duration":124740,"SoundDuration":124740,"Delta":150883601},{"NoteNumber":45,"Velocity":55,"Duration":124740,"SoundDuration":124740,"Delta":150883601},{"NoteNumber":78,"Velocity":51,"Duration":31184,"SoundDuration":31184,"Delta":151101896},{"NoteNumber":76,"Velocity":68,"Duration":124740,"SoundDuration":124740,"Delta":151133081},{"NoteNumber":63,"Velocity":54,"Duration":124740,"SoundDuration":124740,"Delta":151133081},{"NoteNumber":60,"Velocity":54,"Duration":124740,"SoundDuration":124740,"Delta":151133081},{"NoteNumber":53,"Velocity":54,"Duration":124740,"SoundDuration":124740,"Delta":151133081},{"NoteNumber":76,"Velocity":54,"Duration":31185,"SoundDuration":31185,"Delta":151351376},{"NoteNumber":77,"Velocity":73,"Duration":124740,"SoundDuration":124740,"Delta":151382561},{"NoteNumber":63,"Velocity":60,"Duration":124740,"SoundDuration":124740,"Delta":151382561},{"NoteNumber":60,"Velocity":60,"Duration":124740,"SoundDuration":124740,"Delta":151382561},{"NoteNumber":53,"Velocity":60,"Duration":124740,"SoundDuration":124740,"Delta":151382561},{"NoteNumber":77,"Velocity":71,"Duration":31184,"SoundDuration":31184,"Delta":151600856},{"NoteNumber":89,"Velocity":83,"Duration":121703,"SoundDuration":121703,"Delta":151632041},{"NoteNumber":46,"Velocity":68,"Duration":121703,"SoundDuration":121703,"Delta":151632041},{"NoteNumber":89,"Velocity":68,"Duration":30425,"SoundDuration":30425,"Delta":151845023},{"NoteNumber":85,"Velocity":80,"Duration":121704,"SoundDuration":121704,"Delta":151875449},{"NoteNumber":61,"Velocity":62,"Duration":121704,"SoundDuration":121704,"Delta":151875449},{"NoteNumber":58,"Velocity":62,"Duration":121704,"SoundDuration":121704,"Delta":151875449},{"NoteNumber":53,"Velocity":62,"Duration":121704,"SoundDuration":121704,"Delta":151875449},{"NoteNumber":85,"Velocity":63,"Duration":30426,"SoundDuration":30426,"Delta":152088431},{"NoteNumber":82,"Velocity":76,"Duration":121703,"SoundDuration":121703,"Delta":152118857},{"NoteNumber":61,"Velocity":56,"Duration":121703,"SoundDuration":121703,"Delta":152118857},{"NoteNumber":58,"Velocity":56,"Duration":121703,"SoundDuration":121703,"Delta":152118857},{"NoteNumber":53,"Velocity":56,"Duration":121703,"SoundDuration":121703,"Delta":152118857},{"NoteNumber":82,"Velocity":57,"Duration":30426,"SoundDuration":30426,"Delta":152331839},{"NoteNumber":78,"Velocity":71,"Duration":122058,"SoundDuration":122058,"Delta":152362265},{"NoteNumber":51,"Velocity":60,"Duration":122058,"SoundDuration":122058,"Delta":152362265},{"NoteNumber":78,"Velocity":52,"Duration":30618,"SoundDuration":30618,"Delta":152576096},{"NoteNumber":75,"Velocity":66,"Duration":122808,"SoundDuration":122808,"Delta":152606714},{"NoteNumber":66,"Velocity":56,"Duration":122808,"SoundDuration":122808,"Delta":152606714},{"NoteNumber":60,"Velocity":56,"Duration":122808,"SoundDuration":122808,"Delta":152606714},{"NoteNumber":58,"Velocity":56,"Duration":122808,"SoundDuration":122808,"Delta":152606714},{"NoteNumber":75,"Velocity":44,"Duration":30808,"SoundDuration":30808,"Delta":152821862},{"NoteNumber":72,"Velocity":57,"Duration":123577,"SoundDuration":123577,"Delta":152852670},{"NoteNumber":66,"Velocity":57,"Duration":123577,"SoundDuration":123577,"Delta":152852670},{"NoteNumber":60,"Velocity":57,"Duration":123577,"SoundDuration":123577,"Delta":152852670},{"NoteNumber":58,"Velocity":57,"Duration":123577,"SoundDuration":123577,"Delta":152852670},{"NoteNumber":78,"Velocity":41,"Duration":31022,"SoundDuration":31022,"Delta":153069165},{"NoteNumber":77,"Velocity":55,"Duration":120982,"SoundDuration":120982,"Delta":153100187},{"NoteNumber":53,"Velocity":56,"Duration":120982,"SoundDuration":120982,"Delta":153100187},{"NoteNumber":77,"Velocity":42,"Duration":30245,"SoundDuration":30245,"Delta":153311906},{"NoteNumber":76,"Velocity":53,"Duration":120982,"SoundDuration":120982,"Delta":153342152},{"NoteNumber":65,"Velocity":52,"Duration":120982,"SoundDuration":120982,"Delta":153342152},{"NoteNumber":61,"Velocity":52,"Duration":120982,"SoundDuration":120982,"Delta":153342152},{"NoteNumber":58,"Velocity":52,"Duration":120982,"SoundDuration":120982,"Delta":153342152},{"NoteNumber":76,"Velocity":42,"Duration":30245,"SoundDuration":30245,"Delta":153553871},{"NoteNumber":75,"Velocity":55,"Duration":120982,"SoundDuration":120982,"Delta":153584117},{"NoteNumber":65,"Velocity":52,"Duration":120982,"SoundDuration":120982,"Delta":153584117},{"NoteNumber":61,"Velocity":52,"Duration":120982,"SoundDuration":120982,"Delta":153584117},{"NoteNumber":58,"Velocity":52,"Duration":120982,"SoundDuration":120982,"Delta":153584117},{"NoteNumber":75,"Velocity":43,"Duration":30245,"SoundDuration":30245,"Delta":153795836},{"NoteNumber":74,"Velocity":56,"Duration":120982,"SoundDuration":120982,"Delta":153826082},{"NoteNumber":53,"Velocity":53,"Duration":120982,"SoundDuration":120982,"Delta":153826082},{"NoteNumber":74,"Velocity":44,"Duration":30245,"SoundDuration":30245,"Delta":154037801},{"NoteNumber":73,"Velocity":58,"Duration":120982,"SoundDuration":120982,"Delta":154068047},{"NoteNumber":65,"Velocity":49,"Duration":120982,"SoundDuration":120982,"Delta":154068047},{"NoteNumber":63,"Velocity":49,"Duration":120982,"SoundDuration":120982,"Delta":154068047},{"NoteNumber":57,"Velocity":49,"Duration":120982,"SoundDuration":120982,"Delta":154068047},{"NoteNumber":73,"Velocity":46,"Duration":30245,"SoundDuration":30245,"Delta":154279766},{"NoteNumber":72,"Velocity":60,"Duration":120982,"SoundDuration":120982,"Delta":154310012},{"NoteNumber":63,"Velocity":53,"Duration":120982,"SoundDuration":120982,"Delta":154310012},{"NoteNumber":65,"Velocity":53,"Duration":120982,"SoundDuration":120982,"Delta":154310012},{"NoteNumber":57,"Velocity":53,"Duration":120982,"SoundDuration":120982,"Delta":154310012},{"NoteNumber":72,"Velocity":46,"Duration":30245,"SoundDuration":30245,"Delta":154521731},{"NoteNumber":71,"Velocity":62,"Duration":122914,"SoundDuration":122914,"Delta":154551977},{"NoteNumber":65,"Velocity":58,"Duration":246426,"SoundDuration":246426,"Delta":154551977},{"NoteNumber":61,"Velocity":58,"Duration":246426,"SoundDuration":246426,"Delta":154551977},{"NoteNumber":58,"Velocity":58,"Duration":246426,"SoundDuration":246426,"Delta":154551977},{"NoteNumber":71,"Velocity":49,"Duration":30936,"SoundDuration":30936,"Delta":154767467},{"NoteNumber":70,"Velocity":64,"Duration":124174,"SoundDuration":124174,"Delta":154798403},{"NoteNumber":70,"Velocity":48,"Duration":31260,"SoundDuration":31260,"Delta":155016117},{"NoteNumber":69,"Velocity":66,"Duration":125460,"SoundDuration":125460,"Delta":155047378},{"NoteNumber":69,"Velocity":47,"Duration":31590,"SoundDuration":31590,"Delta":155267368},{"NoteNumber":68,"Velocity":67,"Duration":126769,"SoundDuration":126769,"Delta":155298959},{"NoteNumber":68,"Velocity":51,"Duration":31929,"SoundDuration":31929,"Delta":155521270},{"NoteNumber":67,"Velocity":69,"Duration":128129,"SoundDuration":128129,"Delta":155553200},{"NoteNumber":67,"Velocity":55,"Duration":32276,"SoundDuration":32276,"Delta":155777879},{"NoteNumber":66,"Velocity":71,"Duration":141010,"SoundDuration":141010,"Delta":155810155},{"NoteNumber":65,"Velocity":72,"Duration":142687,"SoundDuration":142687,"Delta":156092176},{"NoteNumber":68,"Velocity":72,"Duration":142687,"SoundDuration":142687,"Delta":156092176},{"NoteNumber":37,"Velocity":54,"Duration":142687,"SoundDuration":142687,"Delta":156092176},{"NoteNumber":59,"Velocity":49,"Duration":285375,"SoundDuration":285375,"Delta":156377551},{"NoteNumber":56,"Velocity":49,"Duration":285375,"SoundDuration":285375,"Delta":156377551},{"NoteNumber":49,"Velocity":49,"Duration":285375,"SoundDuration":285375,"Delta":156377551},{"NoteNumber":65,"Velocity":69,"Duration":285374,"SoundDuration":285374,"Delta":156662926},{"NoteNumber":68,"Velocity":69,"Duration":285374,"SoundDuration":285374,"Delta":156662926},{"NoteNumber":49,"Velocity":49,"Duration":285374,"SoundDuration":285374,"Delta":156662926},{"NoteNumber":56,"Velocity":49,"Duration":285374,"SoundDuration":285374,"Delta":156662926},{"NoteNumber":59,"Velocity":49,"Duration":285374,"SoundDuration":285374,"Delta":156662926},{"NoteNumber":68,"Velocity":66,"Duration":35671,"SoundDuration":35671,"Delta":156948301},{"NoteNumber":37,"Velocity":54,"Duration":142687,"SoundDuration":142687,"Delta":156948301},{"NoteNumber":70,"Velocity":66,"Duration":35671,"SoundDuration":35671,"Delta":156983973},{"NoteNumber":65,"Velocity":72,"Duration":71343,"SoundDuration":71343,"Delta":157019645},{"NoteNumber":68,"Velocity":72,"Duration":71343,"SoundDuration":71343,"Delta":157019645},{"NoteNumber":59,"Velocity":50,"Duration":278074,"SoundDuration":278074,"Delta":157233676},{"NoteNumber":56,"Velocity":50,"Duration":278074,"SoundDuration":278074,"Delta":157233676},{"NoteNumber":49,"Velocity":50,"Duration":278074,"SoundDuration":278074,"Delta":157233676},{"NoteNumber":63,"Velocity":68,"Duration":139037,"SoundDuration":139037,"Delta":157372713},{"NoteNumber":66,"Velocity":68,"Duration":139037,"SoundDuration":139037,"Delta":157372713},{"NoteNumber":65,"Velocity":72,"Duration":278074,"SoundDuration":278074,"Delta":157511750},{"NoteNumber":68,"Velocity":72,"Duration":278074,"SoundDuration":278074,"Delta":157511750},{"NoteNumber":49,"Velocity":50,"Duration":278074,"SoundDuration":278074,"Delta":157511750},{"NoteNumber":56,"Velocity":50,"Duration":278074,"SoundDuration":278074,"Delta":157511750},{"NoteNumber":59,"Velocity":50,"Duration":278074,"SoundDuration":278074,"Delta":157511750},{"NoteNumber":66,"Velocity":76,"Duration":136171,"SoundDuration":136171,"Delta":157789824},{"NoteNumber":70,"Velocity":76,"Duration":136171,"SoundDuration":136171,"Delta":157789824},{"NoteNumber":42,"Velocity":54,"Duration":136171,"SoundDuration":136171,"Delta":157789824},{"NoteNumber":58,"Velocity":51,"Duration":278074,"SoundDuration":278074,"Delta":158062168},{"NoteNumber":54,"Velocity":51,"Duration":278074,"SoundDuration":278074,"Delta":158062168},{"NoteNumber":49,"Velocity":51,"Duration":278074,"SoundDuration":278074,"Delta":158062168},{"NoteNumber":70,"Velocity":81,"Duration":139684,"SoundDuration":139684,"Delta":158340242},{"NoteNumber":73,"Velocity":81,"Duration":139684,"SoundDuration":139684,"Delta":158340242},{"NoteNumber":49,"Velocity":54,"Duration":139684,"SoundDuration":139684,"Delta":158340242},{"NoteNumber":54,"Velocity":54,"Duration":139684,"SoundDuration":139684,"Delta":158340242},{"NoteNumber":58,"Velocity":54,"Duration":139684,"SoundDuration":139684,"Delta":158340242},{"NoteNumber":70,"Velocity":87,"Duration":842025,"SoundDuration":842025,"Delta":158619611},{"NoteNumber":78,"Velocity":87,"Duration":842025,"SoundDuration":842025,"Delta":158619611},{"NoteNumber":42,"Velocity":63,"Duration":140337,"SoundDuration":140337,"Delta":158619611},{"NoteNumber":50,"Velocity":54,"Duration":280675,"SoundDuration":280675,"Delta":158900286},{"NoteNumber":58,"Velocity":54,"Duration":280675,"SoundDuration":280675,"Delta":158900286},{"NoteNumber":51,"Velocity":54,"Duration":280675,"SoundDuration":280675,"Delta":159180961},{"NoteNumber":58,"Velocity":54,"Duration":280675,"SoundDuration":280675,"Delta":159180961},{"NoteNumber":68,"Velocity":61,"Duration":138388,"SoundDuration":138388,"Delta":159461636},{"NoteNumber":77,"Velocity":61,"Duration":138388,"SoundDuration":138388,"Delta":159461636},{"NoteNumber":44,"Velocity":45,"Duration":138388,"SoundDuration":138388,"Delta":159461636},{"NoteNumber":60,"Velocity":36,"Duration":271113,"SoundDuration":271113,"Delta":159738414},{"NoteNumber":56,"Velocity":36,"Duration":271113,"SoundDuration":271113,"Delta":159738414},{"NoteNumber":51,"Velocity":36,"Duration":271113,"SoundDuration":271113,"Delta":159738414},{"NoteNumber":75,"Velocity":52,"Duration":67778,"SoundDuration":67778,"Delta":159873971},{"NoteNumber":66,"Velocity":56,"Duration":271112,"SoundDuration":271112,"Delta":160009527},{"NoteNumber":75,"Velocity":56,"Duration":271112,"SoundDuration":271112,"Delta":160009527},{"NoteNumber":60,"Velocity":37,"Duration":271112,"SoundDuration":271112,"Delta":160009527},{"NoteNumber":56,"Velocity":37,"Duration":271112,"SoundDuration":271112,"Delta":160009527},{"NoteNumber":51,"Velocity":37,"Duration":271112,"SoundDuration":271112,"Delta":160009527},{"NoteNumber":68,"Velocity":60,"Duration":138709,"SoundDuration":138709,"Delta":160280640},{"NoteNumber":77,"Velocity":60,"Duration":138709,"SoundDuration":138709,"Delta":160280640},{"NoteNumber":44,"Velocity":45,"Duration":138709,"SoundDuration":138709,"Delta":160280640},{"NoteNumber":60,"Velocity":37,"Duration":272975,"SoundDuration":272975,"Delta":160558058},{"NoteNumber":56,"Velocity":37,"Duration":272975,"SoundDuration":272975,"Delta":160558058},{"NoteNumber":51,"Velocity":37,"Duration":272975,"SoundDuration":272975,"Delta":160558058},{"NoteNumber":75,"Velocity":53,"Duration":68243,"SoundDuration":68243,"Delta":160694546},{"NoteNumber":66,"Velocity":56,"Duration":272975,"SoundDuration":272975,"Delta":160831033},{"NoteNumber":75,"Velocity":56,"Duration":272975,"SoundDuration":272975,"Delta":160831033},{"NoteNumber":51,"Velocity":38,"Duration":272975,"SoundDuration":272975,"Delta":160831033},{"NoteNumber":56,"Velocity":38,"Duration":272975,"SoundDuration":272975,"Delta":160831033},{"NoteNumber":60,"Velocity":38,"Duration":272975,"SoundDuration":272975,"Delta":160831033},{"NoteNumber":68,"Velocity":60,"Duration":138388,"SoundDuration":138388,"Delta":161104008},{"NoteNumber":77,"Velocity":60,"Duration":138388,"SoundDuration":138388,"Delta":161104008},{"NoteNumber":44,"Velocity":49,"Duration":138388,"SoundDuration":138388,"Delta":161104008},{"NoteNumber":60,"Velocity":39,"Duration":280675,"SoundDuration":280675,"Delta":161380786},{"NoteNumber":56,"Velocity":39,"Duration":280675,"SoundDuration":280675,"Delta":161380786},{"NoteNumber":51,"Velocity":39,"Duration":280675,"SoundDuration":280675,"Delta":161380786},{"NoteNumber":75,"Velocity":53,"Duration":70168,"SoundDuration":70168,"Delta":161521124},{"NoteNumber":66,"Velocity":57,"Duration":280675,"SoundDuration":280675,"Delta":161661461},{"NoteNumber":75,"Velocity":57,"Duration":280675,"SoundDuration":280675,"Delta":161661461},{"NoteNumber":51,"Velocity":40,"Duration":280675,"SoundDuration":280675,"Delta":161661461},{"NoteNumber":56,"Velocity":40,"Duration":280675,"SoundDuration":280675,"Delta":161661461},{"NoteNumber":60,"Velocity":40,"Duration":280675,"SoundDuration":280675,"Delta":161661461},{"NoteNumber":64,"Velocity":68,"Duration":140337,"SoundDuration":140337,"Delta":161942136},{"NoteNumber":72,"Velocity":68,"Duration":140337,"SoundDuration":140337,"Delta":161942136},{"NoteNumber":49,"Velocity":52,"Duration":842025,"SoundDuration":842025,"Delta":161942136},{"NoteNumber":61,"Velocity":43,"Duration":280675,"SoundDuration":280675,"Delta":162222811},{"NoteNumber":56,"Velocity":43,"Duration":280675,"SoundDuration":280675,"Delta":162222811},{"NoteNumber":73,"Velocity":57,"Duration":70168,"SoundDuration":70168,"Delta":162363149},{"NoteNumber":65,"Velocity":62,"Duration":280675,"SoundDuration":280675,"Delta":162503486},{"NoteNumber":73,"Velocity":62,"Duration":280675,"SoundDuration":280675,"Delta":162503486},{"NoteNumber":61,"Velocity":45,"Duration":280675,"SoundDuration":280675,"Delta":162503486},{"NoteNumber":56,"Velocity":45,"Duration":280675,"SoundDuration":280675,"Delta":162503486},{"NoteNumber":77,"Velocity":86,"Duration":138709,"SoundDuration":138709,"Delta":162784161},{"NoteNumber":80,"Velocity":86,"Duration":138709,"SoundDuration":138709,"Delta":162784161},{"NoteNumber":49,"Velocity":60,"Duration":138709,"SoundDuration":138709,"Delta":162784161},{"NoteNumber":71,"Velocity":54,"Duration":273609,"SoundDuration":273609,"Delta":163061579},{"NoteNumber":68,"Velocity":54,"Duration":273609,"SoundDuration":273609,"Delta":163061579},{"NoteNumber":61,"Velocity":54,"Duration":273609,"SoundDuration":273609,"Delta":163061579},{"NoteNumber":80,"Velocity":76,"Duration":68402,"SoundDuration":68402,"Delta":163198384},{"NoteNumber":77,"Velocity":76,"Duration":68402,"SoundDuration":68402,"Delta":163198384},{"NoteNumber":77,"Velocity":80,"Duration":273610,"SoundDuration":273610,"Delta":163335189},{"NoteNumber":80,"Velocity":80,"Duration":273610,"SoundDuration":273610,"Delta":163335189},{"NoteNumber":61,"Velocity":56,"Duration":273610,"SoundDuration":273610,"Delta":163335189},{"NoteNumber":68,"Velocity":56,"Duration":273610,"SoundDuration":273610,"Delta":163335189},{"NoteNumber":71,"Velocity":56,"Duration":273610,"SoundDuration":273610,"Delta":163335189},{"NoteNumber":80,"Velocity":77,"Duration":35084,"SoundDuration":35084,"Delta":163608799},{"NoteNumber":49,"Velocity":60,"Duration":140337,"SoundDuration":140337,"Delta":163608799},{"NoteNumber":82,"Velocity":78,"Duration":35084,"SoundDuration":35084,"Delta":163643883},{"NoteNumber":77,"Velocity":86,"Duration":70168,"SoundDuration":70168,"Delta":163678968},{"NoteNumber":80,"Velocity":86,"Duration":70168,"SoundDuration":70168,"Delta":163678968},{"NoteNumber":61,"Velocity":53,"Duration":270501,"SoundDuration":270501,"Delta":163887526},{"NoteNumber":68,"Velocity":53,"Duration":270501,"SoundDuration":270501,"Delta":163887526},{"NoteNumber":71,"Velocity":53,"Duration":270501,"SoundDuration":270501,"Delta":163887526},{"NoteNumber":75,"Velocity":76,"Duration":135250,"SoundDuration":135250,"Delta":164022777},{"NoteNumber":78,"Velocity":76,"Duration":135250,"SoundDuration":135250,"Delta":164022777},{"NoteNumber":77,"Velocity":80,"Duration":270501,"SoundDuration":270501,"Delta":164158028},{"NoteNumber":80,"Velocity":80,"Duration":270501,"SoundDuration":270501,"Delta":164158028},{"NoteNumber":71,"Velocity":54,"Duration":270501,"SoundDuration":270501,"Delta":164158028},{"NoteNumber":68,"Velocity":54,"Duration":270501,"SoundDuration":270501,"Delta":164158028},{"NoteNumber":61,"Velocity":54,"Duration":270501,"SoundDuration":270501,"Delta":164158028},{"NoteNumber":82,"Velocity":88,"Duration":133433,"SoundDuration":133433,"Delta":164428530},{"NoteNumber":78,"Velocity":88,"Duration":133433,"SoundDuration":133433,"Delta":164428530},{"NoteNumber":54,"Velocity":60,"Duration":133433,"SoundDuration":133433,"Delta":164428530},{"NoteNumber":70,"Velocity":56,"Duration":268673,"SoundDuration":268673,"Delta":164695398},{"NoteNumber":66,"Velocity":56,"Duration":268673,"SoundDuration":268673,"Delta":164695398},{"NoteNumber":61,"Velocity":56,"Duration":268673,"SoundDuration":268673,"Delta":164695398},{"NoteNumber":85,"Velocity":92,"Duration":137747,"SoundDuration":137747,"Delta":164964071},{"NoteNumber":82,"Velocity":92,"Duration":137747,"SoundDuration":137747,"Delta":164964071},{"NoteNumber":61,"Velocity":60,"Duration":137747,"SoundDuration":137747,"Delta":164964071},{"NoteNumber":66,"Velocity":60,"Duration":137747,"SoundDuration":137747,"Delta":164964071},{"NoteNumber":70,"Velocity":60,"Duration":137747,"SoundDuration":137747,"Delta":164964071},{"NoteNumber":90,"Velocity":96,"Duration":812308,"SoundDuration":812308,"Delta":165239566},{"NoteNumber":82,"Velocity":96,"Duration":812308,"SoundDuration":812308,"Delta":165239566},{"NoteNumber":54,"Velocity":65,"Duration":132550,"SoundDuration":132550,"Delta":165239566},{"NoteNumber":62,"Velocity":58,"Duration":274864,"SoundDuration":274864,"Delta":165504666},{"NoteNumber":70,"Velocity":58,"Duration":274864,"SoundDuration":274864,"Delta":165504666},{"NoteNumber":63,"Velocity":62,"Duration":272344,"SoundDuration":272344,"Delta":165779530},{"NoteNumber":70,"Velocity":62,"Duration":272344,"SoundDuration":272344,"Delta":165779530},{"NoteNumber":89,"Velocity":59,"Duration":132550,"SoundDuration":132550,"Delta":166051874},{"NoteNumber":80,"Velocity":59,"Duration":132550,"SoundDuration":132550,"Delta":166051874},{"NoteNumber":56,"Velocity":45,"Duration":132550,"SoundDuration":132550,"Delta":166051874},{"NoteNumber":63,"Velocity":36,"Duration":260450,"SoundDuration":260450,"Delta":166316974},{"NoteNumber":68,"Velocity":36,"Duration":260450,"SoundDuration":260450,"Delta":166316974},{"NoteNumber":72,"Velocity":36,"Duration":260450,"SoundDuration":260450,"Delta":166316974},{"NoteNumber":87,"Velocity":52,"Duration":65112,"SoundDuration":65112,"Delta":166447199},{"NoteNumber":78,"Velocity":56,"Duration":260451,"SoundDuration":260451,"Delta":166577425},{"NoteNumber":87,"Velocity":56,"Duration":260451,"SoundDuration":260451,"Delta":166577425},{"NoteNumber":72,"Velocity":38,"Duration":260451,"SoundDuration":260451,"Delta":166577425},{"NoteNumber":68,"Velocity":38,"Duration":260451,"SoundDuration":260451,"Delta":166577425},{"NoteNumber":63,"Velocity":38,"Duration":260451,"SoundDuration":260451,"Delta":166577425},{"NoteNumber":89,"Velocity":59,"Duration":132843,"SoundDuration":132843,"Delta":166837876},{"NoteNumber":80,"Velocity":59,"Duration":132843,"SoundDuration":132843,"Delta":166837876},{"NoteNumber":56,"Velocity":44,"Duration":132843,"SoundDuration":132843,"Delta":166837876},{"NoteNumber":72,"Velocity":34,"Duration":259886,"SoundDuration":259886,"Delta":167103563},{"NoteNumber":68,"Velocity":34,"Duration":259886,"SoundDuration":259886,"Delta":167103563},{"NoteNumber":63,"Velocity":34,"Duration":259886,"SoundDuration":259886,"Delta":167103563},{"NoteNumber":87,"Velocity":52,"Duration":64971,"SoundDuration":64971,"Delta":167233506},{"NoteNumber":78,"Velocity":55,"Duration":259887,"SoundDuration":259887,"Delta":167363450},{"NoteNumber":87,"Velocity":55,"Duration":259887,"SoundDuration":259887,"Delta":167363450},{"NoteNumber":63,"Velocity":36,"Duration":259887,"SoundDuration":259887,"Delta":167363450},{"NoteNumber":68,"Velocity":36,"Duration":259887,"SoundDuration":259887,"Delta":167363450},{"NoteNumber":72,"Velocity":36,"Duration":259887,"SoundDuration":259887,"Delta":167363450},{"NoteNumber":80,"Velocity":59,"Duration":133731,"SoundDuration":133731,"Delta":167623337},{"NoteNumber":89,"Velocity":59,"Duration":133731,"SoundDuration":133731,"Delta":167623337},{"NoteNumber":56,"Velocity":46,"Duration":133731,"SoundDuration":133731,"Delta":167623337},{"NoteNumber":72,"Velocity":37,"Duration":282020,"SoundDuration":282020,"Delta":167890800},{"NoteNumber":68,"Velocity":37,"Duration":282020,"SoundDuration":282020,"Delta":167890800},{"NoteNumber":63,"Velocity":37,"Duration":282020,"SoundDuration":282020,"Delta":167890800},{"NoteNumber":87,"Velocity":53,"Duration":70505,"SoundDuration":70505,"Delta":168031810},{"NoteNumber":78,"Velocity":55,"Duration":296019,"SoundDuration":296019,"Delta":168172821},{"NoteNumber":87,"Velocity":55,"Duration":296019,"SoundDuration":296019,"Delta":168172821},{"NoteNumber":63,"Velocity":38,"Duration":296019,"SoundDuration":296019,"Delta":168172821},{"NoteNumber":68,"Velocity":38,"Duration":296019,"SoundDuration":296019,"Delta":168172821},{"NoteNumber":72,"Velocity":38,"Duration":296019,"SoundDuration":296019,"Delta":168172821},{"NoteNumber":85,"Velocity":59,"Duration":296019,"SoundDuration":296019,"Delta":168468840},{"NoteNumber":77,"Velocity":59,"Duration":296019,"SoundDuration":296019,"Delta":168468840},{"NoteNumber":61,"Velocity":45,"Duration":296019,"SoundDuration":296019,"Delta":168468840},{"NoteNumber":68,"Velocity":45,"Duration":296019,"SoundDuration":296019,"Delta":168468840},{"NoteNumber":73,"Velocity":45,"Duration":296019,"SoundDuration":296019,"Delta":168468840},{"NoteNumber":77,"Velocity":50,"Duration":221506,"SoundDuration":221506,"Delta":169060878},{"NoteNumber":77,"Velocity":45,"Duration":32415,"SoundDuration":32415,"Delta":169287787},{"NoteNumber":78,"Velocity":52,"Duration":129662,"SoundDuration":129662,"Delta":169320203},{"NoteNumber":46,"Velocity":50,"Duration":129662,"SoundDuration":129662,"Delta":169320203},{"NoteNumber":78,"Velocity":44,"Duration":32415,"SoundDuration":32415,"Delta":169547112},{"NoteNumber":76,"Velocity":50,"Duration":129662,"SoundDuration":129662,"Delta":169579528},{"NoteNumber":61,"Velocity":45,"Duration":129662,"SoundDuration":129662,"Delta":169579528},{"NoteNumber":53,"Velocity":45,"Duration":129662,"SoundDuration":129662,"Delta":169579528},{"NoteNumber":76,"Velocity":43,"Duration":32415,"SoundDuration":32415,"Delta":169806437},{"NoteNumber":77,"Velocity":50,"Duration":129662,"SoundDuration":129662,"Delta":169838853},{"NoteNumber":61,"Velocity":46,"Duration":129662,"SoundDuration":129662,"Delta":169838853},{"NoteNumber":53,"Velocity":46,"Duration":129662,"SoundDuration":129662,"Delta":169838853},{"NoteNumber":77,"Velocity":46,"Duration":32415,"SoundDuration":32415,"Delta":170065762},{"NoteNumber":78,"Velocity":53,"Duration":128545,"SoundDuration":128545,"Delta":170098178},{"NoteNumber":45,"Velocity":50,"Duration":128545,"SoundDuration":128545,"Delta":170098178},{"NoteNumber":78,"Velocity":44,"Duration":32136,"SoundDuration":32136,"Delta":170323132},{"NoteNumber":76,"Velocity":50,"Duration":128545,"SoundDuration":128545,"Delta":170355269},{"NoteNumber":53,"Velocity":44,"Duration":128545,"SoundDuration":128545,"Delta":170355269},{"NoteNumber":63,"Velocity":44,"Duration":128545,"SoundDuration":128545,"Delta":170355269},{"NoteNumber":60,"Velocity":44,"Duration":128545,"SoundDuration":128545,"Delta":170355269},{"NoteNumber":76,"Velocity":45,"Duration":32136,"SoundDuration":32136,"Delta":170580223},{"NoteNumber":77,"Velocity":50,"Duration":128545,"SoundDuration":128545,"Delta":170612360},{"NoteNumber":63,"Velocity":45,"Duration":128545,"SoundDuration":128545,"Delta":170612360},{"NoteNumber":60,"Velocity":45,"Duration":128545,"SoundDuration":128545,"Delta":170612360},{"NoteNumber":53,"Velocity":45,"Duration":128545,"SoundDuration":128545,"Delta":170612360},{"NoteNumber":77,"Velocity":50,"Duration":32136,"SoundDuration":32136,"Delta":170837314},{"NoteNumber":85,"Velocity":57,"Duration":122699,"SoundDuration":122699,"Delta":170869451},{"NoteNumber":46,"Velocity":50,"Duration":122699,"SoundDuration":122699,"Delta":170869451},{"NoteNumber":85,"Velocity":50,"Duration":30674,"SoundDuration":30674,"Delta":171084175},{"NoteNumber":84,"Velocity":59,"Duration":122699,"SoundDuration":122699,"Delta":171114850},{"NoteNumber":61,"Velocity":50,"Duration":122699,"SoundDuration":122699,"Delta":171114850},{"NoteNumber":58,"Velocity":50,"Duration":122699,"SoundDuration":122699,"Delta":171114850},{"NoteNumber":53,"Velocity":50,"Duration":122699,"SoundDuration":122699,"Delta":171114850},{"NoteNumber":84,"Velocity":56,"Duration":30674,"SoundDuration":30674,"Delta":171329574},{"NoteNumber":83,"Velocity":66,"Duration":122407,"SoundDuration":122407,"Delta":171360249},{"NoteNumber":61,"Velocity":53,"Duration":122407,"SoundDuration":122407,"Delta":171360249},{"NoteNumber":58,"Velocity":53,"Duration":122407,"SoundDuration":122407,"Delta":171360249},{"NoteNumber":53,"Velocity":53,"Duration":122407,"SoundDuration":122407,"Delta":171360249},{"NoteNumber":83,"Velocity":64,"Duration":30303,"SoundDuration":30303,"Delta":171573914},{"NoteNumber":82,"Velocity":75,"Duration":120967,"SoundDuration":120967,"Delta":171604217},{"NoteNumber":51,"Velocity":56,"Duration":120967,"SoundDuration":120967,"Delta":171604217},{"NoteNumber":82,"Velocity":63,"Duration":30241,"SoundDuration":30241,"Delta":171815910},{"NoteNumber":81,"Velocity":73,"Duration":120967,"SoundDuration":120967,"Delta":171846152},{"NoteNumber":66,"Velocity":53,"Duration":120967,"SoundDuration":120967,"Delta":171846152},{"NoteNumber":60,"Velocity":53,"Duration":120967,"SoundDuration":120967,"Delta":171846152},{"NoteNumber":58,"Velocity":53,"Duration":120967,"SoundDuration":120967,"Delta":171846152},{"NoteNumber":81,"Velocity":63,"Duration":30241,"SoundDuration":30241,"Delta":172057845},{"NoteNumber":80,"Velocity":70,"Duration":120967,"SoundDuration":120967,"Delta":172088087},{"NoteNumber":66,"Velocity":50,"Duration":120967,"SoundDuration":120967,"Delta":172088087},{"NoteNumber":58,"Velocity":50,"Duration":120967,"SoundDuration":120967,"Delta":172088087},{"NoteNumber":60,"Velocity":50,"Duration":120967,"SoundDuration":120967,"Delta":172088087},{"NoteNumber":80,"Velocity":58,"Duration":30241,"SoundDuration":30241,"Delta":172299780},{"NoteNumber":79,"Velocity":67,"Duration":120967,"SoundDuration":120967,"Delta":172330022},{"NoteNumber":53,"Velocity":56,"Duration":120967,"SoundDuration":120967,"Delta":172330022},{"NoteNumber":79,"Velocity":54,"Duration":30241,"SoundDuration":30241,"Delta":172541715},{"NoteNumber":78,"Velocity":65,"Duration":120967,"SoundDuration":120967,"Delta":172571957},{"NoteNumber":65,"Velocity":49,"Duration":120967,"SoundDuration":120967,"Delta":172571957},{"NoteNumber":61,"Velocity":49,"Duration":120967,"SoundDuration":120967,"Delta":172571957},{"NoteNumber":58,"Velocity":49,"Duration":120967,"SoundDuration":120967,"Delta":172571957},{"NoteNumber":78,"Velocity":51,"Duration":30241,"SoundDuration":30241,"Delta":172783650},{"NoteNumber":77,"Velocity":63,"Duration":120967,"SoundDuration":120967,"Delta":172813892},{"NoteNumber":65,"Velocity":50,"Duration":120967,"SoundDuration":120967,"Delta":172813892},{"NoteNumber":61,"Velocity":50,"Duration":120967,"SoundDuration":120967,"Delta":172813892},{"NoteNumber":58,"Velocity":50,"Duration":120967,"SoundDuration":120967,"Delta":172813892},{"NoteNumber":77,"Velocity":49,"Duration":30241,"SoundDuration":30241,"Delta":173025585},{"NoteNumber":76,"Velocity":60,"Duration":120820,"SoundDuration":120820,"Delta":173055827},{"NoteNumber":53,"Velocity":50,"Duration":120820,"SoundDuration":120820,"Delta":173055827},{"NoteNumber":76,"Velocity":46,"Duration":30306,"SoundDuration":30306,"Delta":173267486},{"NoteNumber":75,"Velocity":58,"Duration":121557,"SoundDuration":121557,"Delta":173297793},{"NoteNumber":63,"Velocity":48,"Duration":121557,"SoundDuration":121557,"Delta":173297793},{"NoteNumber":65,"Velocity":48,"Duration":121557,"SoundDuration":121557,"Delta":173297793},{"NoteNumber":57,"Velocity":48,"Duration":121557,"SoundDuration":121557,"Delta":173297793},{"NoteNumber":75,"Velocity":44,"Duration":30514,"SoundDuration":30514,"Delta":173510770},{"NoteNumber":72,"Velocity":54,"Duration":122328,"SoundDuration":122328,"Delta":173541285},{"NoteNumber":65,"Velocity":48,"Duration":122328,"SoundDuration":122328,"Delta":173541285},{"NoteNumber":63,"Velocity":48,"Duration":122328,"SoundDuration":122328,"Delta":173541285},{"NoteNumber":57,"Velocity":48,"Duration":122328,"SoundDuration":122328,"Delta":173541285},{"NoteNumber":72,"Velocity":44,"Duration":30723,"SoundDuration":30723,"Delta":173755594},{"NoteNumber":73,"Velocity":52,"Duration":122975,"SoundDuration":122975,"Delta":173786317},{"NoteNumber":46,"Velocity":50,"Duration":122975,"SoundDuration":122975,"Delta":173786317},{"NoteNumber":73,"Velocity":38,"Duration":30743,"SoundDuration":30743,"Delta":174001525},{"NoteNumber":69,"Velocity":50,"Duration":122976,"SoundDuration":122976,"Delta":174032269},{"NoteNumber":61,"Velocity":47,"Duration":122976,"SoundDuration":122976,"Delta":174032269},{"NoteNumber":53,"Velocity":47,"Duration":122976,"SoundDuration":122976,"Delta":174032269},{"NoteNumber":69,"Velocity":39,"Duration":30743,"SoundDuration":30743,"Delta":174247477},{"NoteNumber":70,"Velocity":50,"Duration":122975,"SoundDuration":122975,"Delta":174278221},{"NoteNumber":61,"Velocity":47,"Duration":122975,"SoundDuration":122975,"Delta":174278221},{"NoteNumber":53,"Velocity":47,"Duration":122975,"SoundDuration":122975,"Delta":174278221},{"NoteNumber":70,"Velocity":39,"Duration":30743,"SoundDuration":30743,"Delta":174493429},{"NoteNumber":73,"Velocity":50,"Duration":124776,"SoundDuration":124776,"Delta":174524173},{"NoteNumber":46,"Velocity":50,"Duration":124776,"SoundDuration":124776,"Delta":174524173},{"NoteNumber":73,"Velocity":39,"Duration":31194,"SoundDuration":31194,"Delta":174742532},{"NoteNumber":75,"Velocity":50,"Duration":124776,"SoundDuration":124776,"Delta":174773726},{"NoteNumber":61,"Velocity":46,"Duration":124776,"SoundDuration":124776,"Delta":174773726},{"NoteNumber":53,"Velocity":46,"Duration":124776,"SoundDuration":124776,"Delta":174773726},{"NoteNumber":75,"Velocity":37,"Duration":31194,"SoundDuration":31194,"Delta":174992085},{"NoteNumber":76,"Velocity":51,"Duration":126849,"SoundDuration":126849,"Delta":175023279},{"NoteNumber":61,"Velocity":47,"Duration":126849,"SoundDuration":126849,"Delta":175023279},{"NoteNumber":53,"Velocity":47,"Duration":126849,"SoundDuration":126849,"Delta":175023279},{"NoteNumber":76,"Velocity":40,"Duration":31712,"SoundDuration":31712,"Delta":175245267},{"NoteNumber":78,"Velocity":54,"Duration":125000,"SoundDuration":125000,"Delta":175276979},{"NoteNumber":46,"Velocity":53,"Duration":125000,"SoundDuration":125000,"Delta":175276979},{"NoteNumber":78,"Velocity":44,"Duration":31250,"SoundDuration":31250,"Delta":175495729},{"NoteNumber":76,"Velocity":55,"Duration":125000,"SoundDuration":125000,"Delta":175526979},{"NoteNumber":61,"Velocity":49,"Duration":125000,"SoundDuration":125000,"Delta":175526979},{"NoteNumber":53,"Velocity":49,"Duration":125000,"SoundDuration":125000,"Delta":175526979},{"NoteNumber":76,"Velocity":44,"Duration":31250,"SoundDuration":31250,"Delta":175745729},{"NoteNumber":77,"Velocity":58,"Duration":125000,"SoundDuration":125000,"Delta":175776979},{"NoteNumber":61,"Velocity":52,"Duration":125000,"SoundDuration":125000,"Delta":175776979},{"NoteNumber":53,"Velocity":52,"Duration":125000,"SoundDuration":125000,"Delta":175776979},{"NoteNumber":77,"Velocity":49,"Duration":31250,"SoundDuration":31250,"Delta":175995729},{"NoteNumber":78,"Velocity":62,"Duration":124783,"SoundDuration":124783,"Delta":176026979},{"NoteNumber":45,"Velocity":55,"Duration":124783,"SoundDuration":124783,"Delta":176026979},{"NoteNumber":78,"Velocity":51,"Duration":31315,"SoundDuration":31315,"Delta":176245534},{"NoteNumber":76,"Velocity":68,"Duration":125391,"SoundDuration":125391,"Delta":176276850},{"NoteNumber":63,"Velocity":56,"Duration":125391,"SoundDuration":125391,"Delta":176276850},{"NoteNumber":60,"Velocity":56,"Duration":125391,"SoundDuration":125391,"Delta":176276850},{"NoteNumber":53,"Velocity":56,"Duration":125391,"SoundDuration":125391,"Delta":176276850},{"NoteNumber":76,"Velocity":54,"Duration":31446,"SoundDuration":31446,"Delta":176496493},{"NoteNumber":77,"Velocity":73,"Duration":126006,"SoundDuration":126006,"Delta":176527940},{"NoteNumber":63,"Velocity":60,"Duration":126006,"SoundDuration":126006,"Delta":176527940},{"NoteNumber":60,"Velocity":60,"Duration":126006,"SoundDuration":126006,"Delta":176527940},{"NoteNumber":53,"Velocity":60,"Duration":126006,"SoundDuration":126006,"Delta":176527940},{"NoteNumber":77,"Velocity":71,"Duration":31623,"SoundDuration":31623,"Delta":176748683},{"NoteNumber":89,"Velocity":83,"Duration":121703,"SoundDuration":121703,"Delta":176780307},{"NoteNumber":46,"Velocity":64,"Duration":121703,"SoundDuration":121703,"Delta":176780307},{"NoteNumber":89,"Velocity":68,"Duration":30425,"SoundDuration":30425,"Delta":176993289},{"NoteNumber":85,"Velocity":80,"Duration":121704,"SoundDuration":121704,"Delta":177023715},{"NoteNumber":61,"Velocity":62,"Duration":121704,"SoundDuration":121704,"Delta":177023715},{"NoteNumber":58,"Velocity":62,"Duration":121704,"SoundDuration":121704,"Delta":177023715},{"NoteNumber":53,"Velocity":62,"Duration":121704,"SoundDuration":121704,"Delta":177023715},{"NoteNumber":85,"Velocity":63,"Duration":30426,"SoundDuration":30426,"Delta":177236697},{"NoteNumber":82,"Velocity":76,"Duration":121703,"SoundDuration":121703,"Delta":177267123},{"NoteNumber":61,"Velocity":56,"Duration":121703,"SoundDuration":121703,"Delta":177267123},{"NoteNumber":58,"Velocity":56,"Duration":121703,"SoundDuration":121703,"Delta":177267123},{"NoteNumber":53,"Velocity":56,"Duration":121703,"SoundDuration":121703,"Delta":177267123},{"NoteNumber":82,"Velocity":57,"Duration":30426,"SoundDuration":30426,"Delta":177480105},{"NoteNumber":78,"Velocity":71,"Duration":122058,"SoundDuration":122058,"Delta":177510531},{"NoteNumber":51,"Velocity":60,"Duration":122058,"SoundDuration":122058,"Delta":177510531},{"NoteNumber":78,"Velocity":52,"Duration":30618,"SoundDuration":30618,"Delta":177724362},{"NoteNumber":75,"Velocity":66,"Duration":122808,"SoundDuration":122808,"Delta":177754980},{"NoteNumber":66,"Velocity":55,"Duration":122808,"SoundDuration":122808,"Delta":177754980},{"NoteNumber":60,"Velocity":55,"Duration":122808,"SoundDuration":122808,"Delta":177754980},{"NoteNumber":58,"Velocity":55,"Duration":122808,"SoundDuration":122808,"Delta":177754980},{"NoteNumber":75,"Velocity":44,"Duration":30808,"SoundDuration":30808,"Delta":177970128},{"NoteNumber":72,"Velocity":57,"Duration":123577,"SoundDuration":123577,"Delta":178000936},{"NoteNumber":66,"Velocity":57,"Duration":123577,"SoundDuration":123577,"Delta":178000936},{"NoteNumber":60,"Velocity":57,"Duration":123577,"SoundDuration":123577,"Delta":178000936},{"NoteNumber":58,"Velocity":57,"Duration":123577,"SoundDuration":123577,"Delta":178000936},{"NoteNumber":78,"Velocity":41,"Duration":31022,"SoundDuration":31022,"Delta":178217431},{"NoteNumber":77,"Velocity":55,"Duration":120982,"SoundDuration":120982,"Delta":178248453},{"NoteNumber":53,"Velocity":56,"Duration":120982,"SoundDuration":120982,"Delta":178248453},{"NoteNumber":77,"Velocity":42,"Duration":30245,"SoundDuration":30245,"Delta":178460172},{"NoteNumber":76,"Velocity":53,"Duration":120982,"SoundDuration":120982,"Delta":178490418},{"NoteNumber":65,"Velocity":52,"Duration":120982,"SoundDuration":120982,"Delta":178490418},{"NoteNumber":61,"Velocity":52,"Duration":120982,"SoundDuration":120982,"Delta":178490418},{"NoteNumber":58,"Velocity":52,"Duration":120982,"SoundDuration":120982,"Delta":178490418},{"NoteNumber":76,"Velocity":42,"Duration":30245,"SoundDuration":30245,"Delta":178702137},{"NoteNumber":75,"Velocity":55,"Duration":120982,"SoundDuration":120982,"Delta":178732383},{"NoteNumber":65,"Velocity":52,"Duration":120982,"SoundDuration":120982,"Delta":178732383},{"NoteNumber":61,"Velocity":52,"Duration":120982,"SoundDuration":120982,"Delta":178732383},{"NoteNumber":58,"Velocity":52,"Duration":120982,"SoundDuration":120982,"Delta":178732383},{"NoteNumber":75,"Velocity":43,"Duration":30245,"SoundDuration":30245,"Delta":178944102},{"NoteNumber":74,"Velocity":56,"Duration":120982,"SoundDuration":120982,"Delta":178974348},{"NoteNumber":53,"Velocity":53,"Duration":120982,"SoundDuration":120982,"Delta":178974348},{"NoteNumber":74,"Velocity":44,"Duration":30245,"SoundDuration":30245,"Delta":179186067},{"NoteNumber":73,"Velocity":58,"Duration":120982,"SoundDuration":120982,"Delta":179216313},{"NoteNumber":65,"Velocity":49,"Duration":120982,"SoundDuration":120982,"Delta":179216313},{"NoteNumber":63,"Velocity":49,"Duration":120982,"SoundDuration":120982,"Delta":179216313},{"NoteNumber":57,"Velocity":49,"Duration":120982,"SoundDuration":120982,"Delta":179216313},{"NoteNumber":73,"Velocity":46,"Duration":30245,"SoundDuration":30245,"Delta":179428032},{"NoteNumber":72,"Velocity":60,"Duration":120982,"SoundDuration":120982,"Delta":179458278},{"NoteNumber":63,"Velocity":53,"Duration":120982,"SoundDuration":120982,"Delta":179458278},{"NoteNumber":65,"Velocity":53,"Duration":120982,"SoundDuration":120982,"Delta":179458278},{"NoteNumber":57,"Velocity":53,"Duration":120982,"SoundDuration":120982,"Delta":179458278},{"NoteNumber":72,"Velocity":46,"Duration":30245,"SoundDuration":30245,"Delta":179669997},{"NoteNumber":71,"Velocity":62,"Duration":122914,"SoundDuration":122914,"Delta":179700243},{"NoteNumber":65,"Velocity":58,"Duration":246426,"SoundDuration":246426,"Delta":179700243},{"NoteNumber":61,"Velocity":58,"Duration":246426,"SoundDuration":246426,"Delta":179700243},{"NoteNumber":58,"Velocity":58,"Duration":246426,"SoundDuration":246426,"Delta":179700243},{"NoteNumber":71,"Velocity":49,"Duration":30936,"SoundDuration":30936,"Delta":179915733},{"NoteNumber":70,"Velocity":64,"Duration":124174,"SoundDuration":124174,"Delta":179946669},{"NoteNumber":70,"Velocity":48,"Duration":31260,"SoundDuration":31260,"Delta":180164383},{"NoteNumber":69,"Velocity":66,"Duration":125460,"SoundDuration":125460,"Delta":180195644},{"NoteNumber":69,"Velocity":47,"Duration":31590,"SoundDuration":31590,"Delta":180415634},{"NoteNumber":68,"Velocity":67,"Duration":126769,"SoundDuration":126769,"Delta":180447225},{"NoteNumber":68,"Velocity":51,"Duration":31929,"SoundDuration":31929,"Delta":180669536},{"NoteNumber":67,"Velocity":69,"Duration":128129,"SoundDuration":128129,"Delta":180701466},{"NoteNumber":67,"Velocity":55,"Duration":32276,"SoundDuration":32276,"Delta":180926145},{"NoteNumber":66,"Velocity":71,"Duration":141010,"SoundDuration":141010,"Delta":180958421},{"NoteNumber":65,"Velocity":72,"Duration":142687,"SoundDuration":142687,"Delta":181240442},{"NoteNumber":68,"Velocity":72,"Duration":142687,"SoundDuration":142687,"Delta":181240442},{"NoteNumber":37,"Velocity":54,"Duration":142687,"SoundDuration":142687,"Delta":181240442},{"NoteNumber":59,"Velocity":49,"Duration":285375,"SoundDuration":285375,"Delta":181525817},{"NoteNumber":56,"Velocity":49,"Duration":285375,"SoundDuration":285375,"Delta":181525817},{"NoteNumber":49,"Velocity":49,"Duration":285375,"SoundDuration":285375,"Delta":181525817},{"NoteNumber":65,"Velocity":69,"Duration":285374,"SoundDuration":285374,"Delta":181811192},{"NoteNumber":68,"Velocity":69,"Duration":285374,"SoundDuration":285374,"Delta":181811192},{"NoteNumber":49,"Velocity":49,"Duration":285374,"SoundDuration":285374,"Delta":181811192},{"NoteNumber":56,"Velocity":49,"Duration":285374,"SoundDuration":285374,"Delta":181811192},{"NoteNumber":59,"Velocity":49,"Duration":285374,"SoundDuration":285374,"Delta":181811192},{"NoteNumber":68,"Velocity":66,"Duration":35671,"SoundDuration":35671,"Delta":182096567},{"NoteNumber":37,"Velocity":54,"Duration":142687,"SoundDuration":142687,"Delta":182096567},{"NoteNumber":70,"Velocity":66,"Duration":35671,"SoundDuration":35671,"Delta":182132239},{"NoteNumber":65,"Velocity":72,"Duration":71343,"SoundDuration":71343,"Delta":182167911},{"NoteNumber":68,"Velocity":72,"Duration":71343,"SoundDuration":71343,"Delta":182167911},{"NoteNumber":59,"Velocity":48,"Duration":278074,"SoundDuration":278074,"Delta":182381942},{"NoteNumber":56,"Velocity":48,"Duration":278074,"SoundDuration":278074,"Delta":182381942},{"NoteNumber":49,"Velocity":48,"Duration":278074,"SoundDuration":278074,"Delta":182381942},{"NoteNumber":63,"Velocity":68,"Duration":139037,"SoundDuration":139037,"Delta":182520979},{"NoteNumber":66,"Velocity":68,"Duration":139037,"SoundDuration":139037,"Delta":182520979},{"NoteNumber":65,"Velocity":72,"Duration":278074,"SoundDuration":278074,"Delta":182660016},{"NoteNumber":68,"Velocity":72,"Duration":278074,"SoundDuration":278074,"Delta":182660016},{"NoteNumber":49,"Velocity":50,"Duration":278074,"SoundDuration":278074,"Delta":182660016},{"NoteNumber":56,"Velocity":50,"Duration":278074,"SoundDuration":278074,"Delta":182660016},{"NoteNumber":59,"Velocity":50,"Duration":278074,"SoundDuration":278074,"Delta":182660016},{"NoteNumber":66,"Velocity":76,"Duration":136171,"SoundDuration":136171,"Delta":182938090},{"NoteNumber":70,"Velocity":76,"Duration":136171,"SoundDuration":136171,"Delta":182938090},{"NoteNumber":42,"Velocity":54,"Duration":136171,"SoundDuration":136171,"Delta":182938090},{"NoteNumber":58,"Velocity":51,"Duration":278074,"SoundDuration":278074,"Delta":183210434},{"NoteNumber":54,"Velocity":51,"Duration":278074,"SoundDuration":278074,"Delta":183210434},{"NoteNumber":49,"Velocity":51,"Duration":278074,"SoundDuration":278074,"Delta":183210434},{"NoteNumber":70,"Velocity":81,"Duration":139684,"SoundDuration":139684,"Delta":183488508},{"NoteNumber":73,"Velocity":81,"Duration":139684,"SoundDuration":139684,"Delta":183488508},{"NoteNumber":49,"Velocity":54,"Duration":139684,"SoundDuration":139684,"Delta":183488508},{"NoteNumber":54,"Velocity":54,"Duration":139684,"SoundDuration":139684,"Delta":183488508},{"NoteNumber":58,"Velocity":54,"Duration":139684,"SoundDuration":139684,"Delta":183488508},{"NoteNumber":70,"Velocity":87,"Duration":842025,"SoundDuration":842025,"Delta":183767877},{"NoteNumber":78,"Velocity":87,"Duration":842025,"SoundDuration":842025,"Delta":183767877},{"NoteNumber":42,"Velocity":63,"Duration":140337,"SoundDuration":140337,"Delta":183767877},{"NoteNumber":50,"Velocity":54,"Duration":280675,"SoundDuration":280675,"Delta":184048552},{"NoteNumber":58,"Velocity":54,"Duration":280675,"SoundDuration":280675,"Delta":184048552},{"NoteNumber":51,"Velocity":54,"Duration":280675,"SoundDuration":280675,"Delta":184329227},{"NoteNumber":58,"Velocity":54,"Duration":280675,"SoundDuration":280675,"Delta":184329227},{"NoteNumber":68,"Velocity":61,"Duration":138388,"SoundDuration":138388,"Delta":184609902},{"NoteNumber":77,"Velocity":61,"Duration":138388,"SoundDuration":138388,"Delta":184609902},{"NoteNumber":44,"Velocity":45,"Duration":138388,"SoundDuration":138388,"Delta":184609902},{"NoteNumber":60,"Velocity":36,"Duration":271113,"SoundDuration":271113,"Delta":184886680},{"NoteNumber":56,"Velocity":36,"Duration":271113,"SoundDuration":271113,"Delta":184886680},{"NoteNumber":51,"Velocity":36,"Duration":271113,"SoundDuration":271113,"Delta":184886680},{"NoteNumber":75,"Velocity":54,"Duration":67778,"SoundDuration":67778,"Delta":185022237},{"NoteNumber":66,"Velocity":56,"Duration":271112,"SoundDuration":271112,"Delta":185157793},{"NoteNumber":75,"Velocity":56,"Duration":271112,"SoundDuration":271112,"Delta":185157793},{"NoteNumber":60,"Velocity":37,"Duration":271112,"SoundDuration":271112,"Delta":185157793},{"NoteNumber":56,"Velocity":37,"Duration":271112,"SoundDuration":271112,"Delta":185157793},{"NoteNumber":51,"Velocity":37,"Duration":271112,"SoundDuration":271112,"Delta":185157793},{"NoteNumber":68,"Velocity":60,"Duration":138709,"SoundDuration":138709,"Delta":185428906},{"NoteNumber":77,"Velocity":60,"Duration":138709,"SoundDuration":138709,"Delta":185428906},{"NoteNumber":44,"Velocity":45,"Duration":138709,"SoundDuration":138709,"Delta":185428906},{"NoteNumber":60,"Velocity":37,"Duration":272975,"SoundDuration":272975,"Delta":185706324},{"NoteNumber":56,"Velocity":37,"Duration":272975,"SoundDuration":272975,"Delta":185706324},{"NoteNumber":51,"Velocity":37,"Duration":272975,"SoundDuration":272975,"Delta":185706324},{"NoteNumber":75,"Velocity":54,"Duration":68243,"SoundDuration":68243,"Delta":185842812},{"NoteNumber":66,"Velocity":56,"Duration":272975,"SoundDuration":272975,"Delta":185979299},{"NoteNumber":75,"Velocity":56,"Duration":272975,"SoundDuration":272975,"Delta":185979299},{"NoteNumber":51,"Velocity":38,"Duration":272975,"SoundDuration":272975,"Delta":185979299},{"NoteNumber":56,"Velocity":38,"Duration":272975,"SoundDuration":272975,"Delta":185979299},{"NoteNumber":60,"Velocity":38,"Duration":272975,"SoundDuration":272975,"Delta":185979299},{"NoteNumber":68,"Velocity":60,"Duration":138388,"SoundDuration":138388,"Delta":186252274},{"NoteNumber":77,"Velocity":60,"Duration":138388,"SoundDuration":138388,"Delta":186252274},{"NoteNumber":44,"Velocity":49,"Duration":138388,"SoundDuration":138388,"Delta":186252274},{"NoteNumber":60,"Velocity":39,"Duration":280675,"SoundDuration":280675,"Delta":186529052},{"NoteNumber":56,"Velocity":39,"Duration":280675,"SoundDuration":280675,"Delta":186529052},{"NoteNumber":51,"Velocity":39,"Duration":280675,"SoundDuration":280675,"Delta":186529052},{"NoteNumber":75,"Velocity":55,"Duration":70168,"SoundDuration":70168,"Delta":186669390},{"NoteNumber":66,"Velocity":57,"Duration":291261,"SoundDuration":291261,"Delta":186809727},{"NoteNumber":75,"Velocity":57,"Duration":291261,"SoundDuration":291261,"Delta":186809727},{"NoteNumber":51,"Velocity":40,"Duration":291261,"SoundDuration":291261,"Delta":186809727},{"NoteNumber":56,"Velocity":40,"Duration":291261,"SoundDuration":291261,"Delta":186809727},{"NoteNumber":60,"Velocity":40,"Duration":291261,"SoundDuration":291261,"Delta":186809727},{"NoteNumber":64,"Velocity":68,"Duration":139859,"SoundDuration":139859,"Delta":187100989},{"NoteNumber":72,"Velocity":68,"Duration":139859,"SoundDuration":139859,"Delta":187100989},{"NoteNumber":49,"Velocity":52,"Duration":839159,"SoundDuration":839159,"Delta":187100989},{"NoteNumber":61,"Velocity":42,"Duration":279719,"SoundDuration":279719,"Delta":187380709},{"NoteNumber":56,"Velocity":42,"Duration":279719,"SoundDuration":279719,"Delta":187380709},{"NoteNumber":73,"Velocity":57,"Duration":69929,"SoundDuration":69929,"Delta":187520569},{"NoteNumber":65,"Velocity":62,"Duration":279719,"SoundDuration":279719,"Delta":187660429},{"NoteNumber":73,"Velocity":62,"Duration":279719,"SoundDuration":279719,"Delta":187660429},{"NoteNumber":61,"Velocity":45,"Duration":279719,"SoundDuration":279719,"Delta":187660429},{"NoteNumber":56,"Velocity":45,"Duration":279719,"SoundDuration":279719,"Delta":187660429},{"NoteNumber":77,"Velocity":86,"Duration":138709,"SoundDuration":138709,"Delta":187940149},{"NoteNumber":80,"Velocity":86,"Duration":138709,"SoundDuration":138709,"Delta":187940149},{"NoteNumber":49,"Velocity":60,"Duration":138709,"SoundDuration":138709,"Delta":187940149},{"NoteNumber":71,"Velocity":53,"Duration":273609,"SoundDuration":273609,"Delta":188217567},{"NoteNumber":68,"Velocity":53,"Duration":273609,"SoundDuration":273609,"Delta":188217567},{"NoteNumber":61,"Velocity":53,"Duration":273609,"SoundDuration":273609,"Delta":188217567},{"NoteNumber":80,"Velocity":77,"Duration":68402,"SoundDuration":68402,"Delta":188354372},{"NoteNumber":77,"Velocity":77,"Duration":68402,"SoundDuration":68402,"Delta":188354372},{"NoteNumber":77,"Velocity":80,"Duration":273610,"SoundDuration":273610,"Delta":188491177},{"NoteNumber":80,"Velocity":80,"Duration":273610,"SoundDuration":273610,"Delta":188491177},{"NoteNumber":61,"Velocity":56,"Duration":273610,"SoundDuration":273610,"Delta":188491177},{"NoteNumber":68,"Velocity":56,"Duration":273610,"SoundDuration":273610,"Delta":188491177},{"NoteNumber":71,"Velocity":56,"Duration":273610,"SoundDuration":273610,"Delta":188491177},{"NoteNumber":80,"Velocity":77,"Duration":35084,"SoundDuration":35084,"Delta":188764787},{"NoteNumber":49,"Velocity":60,"Duration":140337,"SoundDuration":140337,"Delta":188764787},{"NoteNumber":82,"Velocity":78,"Duration":35084,"SoundDuration":35084,"Delta":188799871},{"NoteNumber":77,"Velocity":86,"Duration":70168,"SoundDuration":70168,"Delta":188834956},{"NoteNumber":80,"Velocity":86,"Duration":70168,"SoundDuration":70168,"Delta":188834956},{"NoteNumber":61,"Velocity":53,"Duration":270501,"SoundDuration":270501,"Delta":189043514},{"NoteNumber":68,"Velocity":53,"Duration":270501,"SoundDuration":270501,"Delta":189043514},{"NoteNumber":71,"Velocity":53,"Duration":270501,"SoundDuration":270501,"Delta":189043514},{"NoteNumber":75,"Velocity":77,"Duration":135250,"SoundDuration":135250,"Delta":189178765},{"NoteNumber":78,"Velocity":77,"Duration":135250,"SoundDuration":135250,"Delta":189178765},{"NoteNumber":77,"Velocity":80,"Duration":270501,"SoundDuration":270501,"Delta":189314016},{"NoteNumber":80,"Velocity":80,"Duration":270501,"SoundDuration":270501,"Delta":189314016},{"NoteNumber":71,"Velocity":54,"Duration":270501,"SoundDuration":270501,"Delta":189314016},{"NoteNumber":68,"Velocity":54,"Duration":270501,"SoundDuration":270501,"Delta":189314016},{"NoteNumber":61,"Velocity":54,"Duration":270501,"SoundDuration":270501,"Delta":189314016},{"NoteNumber":82,"Velocity":88,"Duration":133433,"SoundDuration":133433,"Delta":189584518},{"NoteNumber":78,"Velocity":88,"Duration":133433,"SoundDuration":133433,"Delta":189584518},{"NoteNumber":54,"Velocity":60,"Duration":133433,"SoundDuration":133433,"Delta":189584518},{"NoteNumber":70,"Velocity":56,"Duration":268673,"SoundDuration":268673,"Delta":189851386},{"NoteNumber":66,"Velocity":56,"Duration":268673,"SoundDuration":268673,"Delta":189851386},{"NoteNumber":61,"Velocity":56,"Duration":268673,"SoundDuration":268673,"Delta":189851386},{"NoteNumber":85,"Velocity":92,"Duration":137747,"SoundDuration":137747,"Delta":190120059},{"NoteNumber":82,"Velocity":92,"Duration":137747,"SoundDuration":137747,"Delta":190120059},{"NoteNumber":61,"Velocity":60,"Duration":137747,"SoundDuration":137747,"Delta":190120059},{"NoteNumber":66,"Velocity":60,"Duration":137747,"SoundDuration":137747,"Delta":190120059},{"NoteNumber":70,"Velocity":60,"Duration":137747,"SoundDuration":137747,"Delta":190120059},{"NoteNumber":90,"Velocity":95,"Duration":812308,"SoundDuration":812308,"Delta":190395554},{"NoteNumber":82,"Velocity":95,"Duration":812308,"SoundDuration":812308,"Delta":190395554},{"NoteNumber":54,"Velocity":67,"Duration":132550,"SoundDuration":132550,"Delta":190395554},{"NoteNumber":62,"Velocity":61,"Duration":274864,"SoundDuration":274864,"Delta":190660654},{"NoteNumber":70,"Velocity":61,"Duration":274864,"SoundDuration":274864,"Delta":190660654},{"NoteNumber":63,"Velocity":62,"Duration":272344,"SoundDuration":272344,"Delta":190935518},{"NoteNumber":70,"Velocity":62,"Duration":272344,"SoundDuration":272344,"Delta":190935518},{"NoteNumber":89,"Velocity":59,"Duration":132550,"SoundDuration":132550,"Delta":191207862},{"NoteNumber":80,"Velocity":59,"Duration":132550,"SoundDuration":132550,"Delta":191207862},{"NoteNumber":56,"Velocity":45,"Duration":132550,"SoundDuration":132550,"Delta":191207862},{"NoteNumber":63,"Velocity":36,"Duration":260450,"SoundDuration":260450,"Delta":191472962},{"NoteNumber":68,"Velocity":36,"Duration":260450,"SoundDuration":260450,"Delta":191472962},{"NoteNumber":72,"Velocity":36,"Duration":260450,"SoundDuration":260450,"Delta":191472962},{"NoteNumber":87,"Velocity":53,"Duration":65112,"SoundDuration":65112,"Delta":191603187},{"NoteNumber":78,"Velocity":56,"Duration":260451,"SoundDuration":260451,"Delta":191733413},{"NoteNumber":87,"Velocity":56,"Duration":260451,"SoundDuration":260451,"Delta":191733413},{"NoteNumber":72,"Velocity":38,"Duration":260451,"SoundDuration":260451,"Delta":191733413},{"NoteNumber":68,"Velocity":38,"Duration":260451,"SoundDuration":260451,"Delta":191733413},{"NoteNumber":63,"Velocity":38,"Duration":260451,"SoundDuration":260451,"Delta":191733413},{"NoteNumber":89,"Velocity":59,"Duration":132843,"SoundDuration":132843,"Delta":191993864},{"NoteNumber":80,"Velocity":59,"Duration":132843,"SoundDuration":132843,"Delta":191993864},{"NoteNumber":56,"Velocity":44,"Duration":132843,"SoundDuration":132843,"Delta":191993864},{"NoteNumber":72,"Velocity":36,"Duration":259886,"SoundDuration":259886,"Delta":192259551},{"NoteNumber":68,"Velocity":36,"Duration":259886,"SoundDuration":259886,"Delta":192259551},{"NoteNumber":63,"Velocity":36,"Duration":259886,"SoundDuration":259886,"Delta":192259551},{"NoteNumber":87,"Velocity":52,"Duration":64971,"SoundDuration":64971,"Delta":192389494},{"NoteNumber":78,"Velocity":55,"Duration":259887,"SoundDuration":259887,"Delta":192519438},{"NoteNumber":87,"Velocity":55,"Duration":259887,"SoundDuration":259887,"Delta":192519438},{"NoteNumber":63,"Velocity":36,"Duration":259887,"SoundDuration":259887,"Delta":192519438},{"NoteNumber":68,"Velocity":36,"Duration":259887,"SoundDuration":259887,"Delta":192519438},{"NoteNumber":72,"Velocity":36,"Duration":259887,"SoundDuration":259887,"Delta":192519438},{"NoteNumber":80,"Velocity":59,"Duration":133731,"SoundDuration":133731,"Delta":192779325},{"NoteNumber":89,"Velocity":59,"Duration":133731,"SoundDuration":133731,"Delta":192779325},{"NoteNumber":56,"Velocity":46,"Duration":133731,"SoundDuration":133731,"Delta":192779325},{"NoteNumber":72,"Velocity":38,"Duration":282020,"SoundDuration":282020,"Delta":193046788},{"NoteNumber":68,"Velocity":38,"Duration":282020,"SoundDuration":282020,"Delta":193046788},{"NoteNumber":63,"Velocity":38,"Duration":282020,"SoundDuration":282020,"Delta":193046788},{"NoteNumber":87,"Velocity":52,"Duration":70505,"SoundDuration":70505,"Delta":193187798},{"NoteNumber":78,"Velocity":55,"Duration":296019,"SoundDuration":296019,"Delta":193328809},{"NoteNumber":87,"Velocity":55,"Duration":296019,"SoundDuration":296019,"Delta":193328809},{"NoteNumber":63,"Velocity":38,"Duration":296019,"SoundDuration":296019,"Delta":193328809},{"NoteNumber":68,"Velocity":38,"Duration":296019,"SoundDuration":296019,"Delta":193328809},{"NoteNumber":72,"Velocity":38,"Duration":296019,"SoundDuration":296019,"Delta":193328809},{"NoteNumber":85,"Velocity":59,"Duration":296019,"SoundDuration":296019,"Delta":193624828},{"NoteNumber":77,"Velocity":59,"Duration":296019,"SoundDuration":296019,"Delta":193624828},{"NoteNumber":61,"Velocity":45,"Duration":296019,"SoundDuration":296019,"Delta":193624828},{"NoteNumber":68,"Velocity":45,"Duration":296019,"SoundDuration":296019,"Delta":193624828},{"NoteNumber":73,"Velocity":45,"Duration":296019,"SoundDuration":296019,"Delta":193624828},{"NoteNumber":73,"Velocity":51,"Duration":240172,"SoundDuration":240172,"Delta":194216866},{"NoteNumber":73,"Velocity":51,"Duration":240172,"SoundDuration":240172,"Delta":194457039},{"NoteNumber":73,"Velocity":54,"Duration":184615,"SoundDuration":184615,"Delta":194697212},{"NoteNumber":46,"Velocity":32,"Duration":1086628,"SoundDuration":1086628,"Delta":194697212},{"NoteNumber":75,"Velocity":55,"Duration":184615,"SoundDuration":184615,"Delta":194881827},{"NoteNumber":73,"Velocity":54,"Duration":183641,"SoundDuration":183641,"Delta":195066443},{"NoteNumber":61,"Velocity":36,"Duration":363397,"SoundDuration":363397,"Delta":195066443},{"NoteNumber":54,"Velocity":36,"Duration":363397,"SoundDuration":363397,"Delta":195066443},{"NoteNumber":72,"Velocity":48,"Duration":179756,"SoundDuration":179756,"Delta":195250084},{"NoteNumber":73,"Velocity":49,"Duration":177946,"SoundDuration":177946,"Delta":195429840},{"NoteNumber":61,"Velocity":36,"Duration":354000,"SoundDuration":354000,"Delta":195429840},{"NoteNumber":54,"Velocity":36,"Duration":354000,"SoundDuration":354000,"Delta":195429840},{"NoteNumber":74,"Velocity":51,"Duration":176053,"SoundDuration":176053,"Delta":195607787},{"NoteNumber":77,"Velocity":53,"Duration":668710,"SoundDuration":668710,"Delta":195783840},{"NoteNumber":47,"Velocity":38,"Duration":339943,"SoundDuration":339943,"Delta":195783840},{"NoteNumber":63,"Velocity":35,"Duration":328766,"SoundDuration":328766,"Delta":196123783},{"NoteNumber":56,"Velocity":35,"Duration":328766,"SoundDuration":328766,"Delta":196123783},{"NoteNumber":54,"Velocity":35,"Duration":328766,"SoundDuration":328766,"Delta":196123783},{"NoteNumber":75,"Velocity":50,"Duration":323903,"SoundDuration":323903,"Delta":196452550},{"NoteNumber":63,"Velocity":35,"Duration":323903,"SoundDuration":323903,"Delta":196452550},{"NoteNumber":56,"Velocity":35,"Duration":323903,"SoundDuration":323903,"Delta":196452550},{"NoteNumber":54,"Velocity":35,"Duration":323903,"SoundDuration":323903,"Delta":196452550},{"NoteNumber":68,"Velocity":50,"Duration":168757,"SoundDuration":168757,"Delta":196776454},{"NoteNumber":46,"Velocity":30,"Duration":1012544,"SoundDuration":1012544,"Delta":196776454},{"NoteNumber":70,"Velocity":50,"Duration":168757,"SoundDuration":168757,"Delta":196945212},{"NoteNumber":68,"Velocity":50,"Duration":168757,"SoundDuration":168757,"Delta":197113969},{"NoteNumber":59,"Velocity":24,"Duration":337514,"SoundDuration":337514,"Delta":197113969},{"NoteNumber":53,"Velocity":24,"Duration":337514,"SoundDuration":337514,"Delta":197113969},{"NoteNumber":67,"Velocity":50,"Duration":168757,"SoundDuration":168757,"Delta":197282727},{"NoteNumber":68,"Velocity":50,"Duration":168757,"SoundDuration":168757,"Delta":197451484},{"NoteNumber":59,"Velocity":30,"Duration":337514,"SoundDuration":337514,"Delta":197451484},{"NoteNumber":53,"Velocity":30,"Duration":337514,"SoundDuration":337514,"Delta":197451484},{"NoteNumber":69,"Velocity":50,"Duration":168757,"SoundDuration":168757,"Delta":197620242},{"NoteNumber":70,"Velocity":61,"Duration":343720,"SoundDuration":343720,"Delta":197788999},{"NoteNumber":42,"Velocity":30,"Duration":343720,"SoundDuration":343720,"Delta":197788999},{"NoteNumber":66,"Velocity":50,"Duration":84378,"SoundDuration":84378,"Delta":198132720},{"NoteNumber":58,"Velocity":29,"Duration":337514,"SoundDuration":337514,"Delta":198132720},{"NoteNumber":49,"Velocity":29,"Duration":337514,"SoundDuration":337514,"Delta":198132720},{"NoteNumber":70,"Velocity":51,"Duration":168757,"SoundDuration":168757,"Delta":198301478},{"NoteNumber":71,"Velocity":54,"Duration":168757,"SoundDuration":168757,"Delta":198470235},{"NoteNumber":49,"Velocity":34,"Duration":337514,"SoundDuration":337514,"Delta":198470235},{"NoteNumber":58,"Velocity":34,"Duration":337514,"SoundDuration":337514,"Delta":198470235},{"NoteNumber":72,"Velocity":56,"Duration":168757,"SoundDuration":168757,"Delta":198638993},{"NoteNumber":73,"Velocity":50,"Duration":45322,"SoundDuration":45322,"Delta":198807750},{"NoteNumber":46,"Velocity":37,"Duration":1033091,"SoundDuration":1033091,"Delta":198807750},{"NoteNumber":75,"Velocity":50,"Duration":45322,"SoundDuration":45322,"Delta":198853073},{"NoteNumber":73,"Velocity":50,"Duration":90645,"SoundDuration":90645,"Delta":198898396},{"NoteNumber":72,"Velocity":55,"Duration":168757,"SoundDuration":168757,"Delta":198989041},{"NoteNumber":73,"Velocity":57,"Duration":168757,"SoundDuration":168757,"Delta":199157799},{"NoteNumber":61,"Velocity":29,"Duration":340185,"SoundDuration":340185,"Delta":199157799},{"NoteNumber":54,"Velocity":29,"Duration":340185,"SoundDuration":340185,"Delta":199157799},{"NoteNumber":82,"Velocity":58,"Duration":171428,"SoundDuration":171428,"Delta":199326556},{"NoteNumber":80,"Velocity":60,"Duration":171428,"SoundDuration":171428,"Delta":199497985},{"NoteNumber":61,"Velocity":35,"Duration":342857,"SoundDuration":342857,"Delta":199497985},{"NoteNumber":54,"Velocity":35,"Duration":342857,"SoundDuration":342857,"Delta":199497985},{"NoteNumber":78,"Velocity":62,"Duration":171428,"SoundDuration":171428,"Delta":199669413},{"NoteNumber":77,"Velocity":64,"Duration":657282,"SoundDuration":657282,"Delta":199840842},{"NoteNumber":47,"Velocity":29,"Duration":328641,"SoundDuration":328641,"Delta":199840842},{"NoteNumber":63,"Velocity":29,"Duration":328641,"SoundDuration":328641,"Delta":200169483},{"NoteNumber":56,"Velocity":29,"Duration":328641,"SoundDuration":328641,"Delta":200169483},{"NoteNumber":54,"Velocity":29,"Duration":328641,"SoundDuration":328641,"Delta":200169483},{"NoteNumber":75,"Velocity":56,"Duration":351225,"SoundDuration":351225,"Delta":200498124},{"NoteNumber":54,"Velocity":36,"Duration":351225,"SoundDuration":351225,"Delta":200498124},{"NoteNumber":56,"Velocity":36,"Duration":351225,"SoundDuration":351225,"Delta":200498124},{"NoteNumber":63,"Velocity":36,"Duration":351225,"SoundDuration":351225,"Delta":200498124},{"NoteNumber":68,"Velocity":52,"Duration":124463,"SoundDuration":124463,"Delta":200849350},{"NoteNumber":49,"Velocity":36,"Duration":1095289,"SoundDuration":1095289,"Delta":200849350},{"NoteNumber":70,"Velocity":50,"Duration":124463,"SoundDuration":124463,"Delta":200973813},{"NoteNumber":68,"Velocity":50,"Duration":124463,"SoundDuration":124463,"Delta":201098276},{"NoteNumber":67,"Velocity":52,"Duration":186694,"SoundDuration":186694,"Delta":201222740},{"NoteNumber":59,"Velocity":19,"Duration":365096,"SoundDuration":365096,"Delta":201222740},{"NoteNumber":53,"Velocity":19,"Duration":365096,"SoundDuration":365096,"Delta":201222740},{"NoteNumber":68,"Velocity":50,"Duration":178401,"SoundDuration":178401,"Delta":201409435},{"NoteNumber":71,"Velocity":56,"Duration":178401,"SoundDuration":178401,"Delta":201587836},{"NoteNumber":53,"Velocity":26,"Duration":356802,"SoundDuration":356802,"Delta":201587836},{"NoteNumber":59,"Velocity":26,"Duration":356802,"SoundDuration":356802,"Delta":201587836},{"NoteNumber":70,"Velocity":50,"Duration":178401,"SoundDuration":178401,"Delta":201766238},{"NoteNumber":66,"Velocity":50,"Duration":91524,"SoundDuration":91524,"Delta":201944639},{"NoteNumber":42,"Velocity":27,"Duration":360138,"SoundDuration":360138,"Delta":201944639},{"NoteNumber":60,"Velocity":42,"Duration":177089,"SoundDuration":177089,"Delta":202127689},{"NoteNumber":61,"Velocity":43,"Duration":176254,"SoundDuration":176254,"Delta":202304778},{"NoteNumber":58,"Velocity":32,"Duration":351595,"SoundDuration":351595,"Delta":202304778},{"NoteNumber":49,"Velocity":32,"Duration":351595,"SoundDuration":351595,"Delta":202304778},{"NoteNumber":65,"Velocity":45,"Duration":175341,"SoundDuration":175341,"Delta":202481032},{"NoteNumber":66,"Velocity":47,"Duration":174483,"SoundDuration":174483,"Delta":202656373},{"NoteNumber":49,"Velocity":34,"Duration":348155,"SoundDuration":348155,"Delta":202656373},{"NoteNumber":58,"Velocity":34,"Duration":348155,"SoundDuration":348155,"Delta":202656373},{"NoteNumber":70,"Velocity":48,"Duration":173672,"SoundDuration":173672,"Delta":202830857},{"NoteNumber":73,"Velocity":50,"Duration":173135,"SoundDuration":173135,"Delta":203004529},{"NoteNumber":46,"Velocity":28,"Duration":1055286,"SoundDuration":1055286,"Delta":203004529},{"NoteNumber":75,"Velocity":51,"Duration":174166,"SoundDuration":174166,"Delta":203177665},{"NoteNumber":73,"Velocity":53,"Duration":175251,"SoundDuration":175251,"Delta":203351832},{"NoteNumber":61,"Velocity":28,"Duration":351690,"SoundDuration":351690,"Delta":203351832},{"NoteNumber":54,"Velocity":28,"Duration":351690,"SoundDuration":351690,"Delta":203351832},{"NoteNumber":72,"Velocity":55,"Duration":176439,"SoundDuration":176439,"Delta":203527083},{"NoteNumber":73,"Velocity":56,"Duration":177557,"SoundDuration":177557,"Delta":203703523},{"NoteNumber":61,"Velocity":37,"Duration":356293,"SoundDuration":356293,"Delta":203703523},{"NoteNumber":54,"Velocity":37,"Duration":356293,"SoundDuration":356293,"Delta":203703523},{"NoteNumber":74,"Velocity":58,"Duration":133944,"SoundDuration":133944,"Delta":203881080},{"NoteNumber":74,"Velocity":54,"Duration":44791,"SoundDuration":44791,"Delta":204015025},{"NoteNumber":77,"Velocity":67,"Duration":709312,"SoundDuration":709312,"Delta":204059816},{"NoteNumber":47,"Velocity":33,"Duration":360252,"SoundDuration":360252,"Delta":204059816},{"NoteNumber":55,"Velocity":30,"Duration":349060,"SoundDuration":349060,"Delta":204420068},{"NoteNumber":63,"Velocity":30,"Duration":349060,"SoundDuration":349060,"Delta":204420068},{"NoteNumber":75,"Velocity":59,"Duration":349059,"SoundDuration":349059,"Delta":204769128},{"NoteNumber":56,"Velocity":33,"Duration":349059,"SoundDuration":349059,"Delta":204769128},{"NoteNumber":63,"Velocity":33,"Duration":349059,"SoundDuration":349059,"Delta":204769128},{"NoteNumber":68,"Velocity":50,"Duration":174530,"SoundDuration":174530,"Delta":205118188},{"NoteNumber":49,"Velocity":25,"Duration":1055219,"SoundDuration":1055219,"Delta":205118188},{"NoteNumber":70,"Velocity":50,"Duration":174530,"SoundDuration":174530,"Delta":205292718},{"NoteNumber":68,"Velocity":41,"Duration":43632,"SoundDuration":43632,"Delta":205467248},{"NoteNumber":59,"Velocity":20,"Duration":349329,"SoundDuration":349329,"Delta":205467248},{"NoteNumber":53,"Velocity":20,"Duration":349329,"SoundDuration":349329,"Delta":205467248},{"NoteNumber":70,"Velocity":41,"Duration":43632,"SoundDuration":43632,"Delta":205510881},{"NoteNumber":68,"Velocity":49,"Duration":87265,"SoundDuration":87265,"Delta":205554513},{"NoteNumber":67,"Velocity":50,"Duration":174799,"SoundDuration":174799,"Delta":205641778},{"NoteNumber":68,"Velocity":52,"Duration":177185,"SoundDuration":177185,"Delta":205816577},{"NoteNumber":53,"Velocity":29,"Duration":356830,"SoundDuration":356830,"Delta":205816577},{"NoteNumber":59,"Velocity":29,"Duration":356830,"SoundDuration":356830,"Delta":205816577},{"NoteNumber":69,"Velocity":55,"Duration":179645,"SoundDuration":179645,"Delta":205993763},{"NoteNumber":70,"Velocity":64,"Duration":362582,"SoundDuration":362582,"Delta":206173408},{"NoteNumber":42,"Velocity":34,"Duration":362582,"SoundDuration":362582,"Delta":206173408},{"NoteNumber":66,"Velocity":54,"Duration":90645,"SoundDuration":90645,"Delta":206535990},{"NoteNumber":49,"Velocity":28,"Duration":362582,"SoundDuration":362582,"Delta":206535990},{"NoteNumber":58,"Velocity":28,"Duration":362582,"SoundDuration":362582,"Delta":206535990},{"NoteNumber":70,"Velocity":53,"Duration":181291,"SoundDuration":181291,"Delta":206717281},{"NoteNumber":71,"Velocity":55,"Duration":181290,"SoundDuration":181290,"Delta":206898572},{"NoteNumber":58,"Velocity":33,"Duration":362582,"SoundDuration":362582,"Delta":206898572},{"NoteNumber":49,"Velocity":33,"Duration":362582,"SoundDuration":362582,"Delta":206898572},{"NoteNumber":72,"Velocity":57,"Duration":181291,"SoundDuration":181291,"Delta":207079863},{"NoteNumber":73,"Velocity":50,"Duration":49645,"SoundDuration":49645,"Delta":207261154},{"NoteNumber":46,"Velocity":38,"Duration":1225121,"SoundDuration":1225121,"Delta":207261154},{"NoteNumber":75,"Velocity":50,"Duration":49645,"SoundDuration":49645,"Delta":207310800},{"NoteNumber":73,"Velocity":59,"Duration":99291,"SoundDuration":99291,"Delta":207360446},{"NoteNumber":72,"Velocity":57,"Duration":198583,"SoundDuration":198583,"Delta":207459737},{"NoteNumber":73,"Velocity":58,"Duration":164325,"SoundDuration":164325,"Delta":207658321},{"NoteNumber":61,"Velocity":28,"Duration":442103,"SoundDuration":442103,"Delta":207658321},{"NoteNumber":54,"Velocity":28,"Duration":442103,"SoundDuration":442103,"Delta":207658321},{"NoteNumber":83,"Velocity":67,"Duration":138889,"SoundDuration":138889,"Delta":207822646},{"NoteNumber":82,"Velocity":65,"Duration":138888,"SoundDuration":138888,"Delta":207961535},{"NoteNumber":82,"Velocity":63,"Duration":128617,"SoundDuration":128617,"Delta":208100424},{"NoteNumber":54,"Velocity":28,"Duration":385851,"SoundDuration":385851,"Delta":208100424},{"NoteNumber":61,"Velocity":28,"Duration":385851,"SoundDuration":385851,"Delta":208100424},{"NoteNumber":80,"Velocity":61,"Duration":128617,"SoundDuration":128617,"Delta":208229041},{"NoteNumber":78,"Velocity":59,"Duration":128617,"SoundDuration":128617,"Delta":208357659},{"NoteNumber":77,"Velocity":57,"Duration":722892,"SoundDuration":722892,"Delta":208486276},{"NoteNumber":47,"Velocity":35,"Duration":361446,"SoundDuration":361446,"Delta":208486276},{"NoteNumber":63,"Velocity":30,"Duration":361446,"SoundDuration":361446,"Delta":208847722},{"NoteNumber":56,"Velocity":30,"Duration":361446,"SoundDuration":361446,"Delta":208847722},{"NoteNumber":54,"Velocity":30,"Duration":361446,"SoundDuration":361446,"Delta":208847722},{"NoteNumber":75,"Velocity":55,"Duration":361446,"SoundDuration":361446,"Delta":209209168},{"NoteNumber":63,"Velocity":28,"Duration":361446,"SoundDuration":361446,"Delta":209209168},{"NoteNumber":56,"Velocity":28,"Duration":361446,"SoundDuration":361446,"Delta":209209168},{"NoteNumber":54,"Velocity":28,"Duration":361446,"SoundDuration":361446,"Delta":209209168},{"NoteNumber":68,"Velocity":46,"Duration":118934,"SoundDuration":118934,"Delta":209570614},{"NoteNumber":49,"Velocity":26,"Duration":1148378,"SoundDuration":1148378,"Delta":209570614},{"NoteNumber":70,"Velocity":46,"Duration":118934,"SoundDuration":118934,"Delta":209689548},{"NoteNumber":68,"Velocity":46,"Duration":118934,"SoundDuration":118934,"Delta":209808483},{"NoteNumber":67,"Velocity":46,"Duration":180700,"SoundDuration":180700,"Delta":209927417},{"NoteNumber":59,"Velocity":26,"Duration":368659,"SoundDuration":368659,"Delta":209927417},{"NoteNumber":53,"Velocity":26,"Duration":368659,"SoundDuration":368659,"Delta":209927417},{"NoteNumber":68,"Velocity":47,"Duration":187958,"SoundDuration":187958,"Delta":210108118},{"NoteNumber":71,"Velocity":49,"Duration":209893,"SoundDuration":209893,"Delta":210296076},{"NoteNumber":53,"Velocity":25,"Duration":422916,"SoundDuration":422916,"Delta":210296076},{"NoteNumber":59,"Velocity":25,"Duration":422916,"SoundDuration":422916,"Delta":210296076},{"NoteNumber":70,"Velocity":45,"Duration":213022,"SoundDuration":213022,"Delta":210505969},{"NoteNumber":66,"Velocity":39,"Duration":213022,"SoundDuration":213022,"Delta":210718992},{"NoteNumber":42,"Velocity":30,"Duration":426046,"SoundDuration":426046,"Delta":210718992},{"NoteNumber":58,"Velocity":27,"Duration":426046,"SoundDuration":426046,"Delta":211145038},{"NoteNumber":49,"Velocity":27,"Duration":426046,"SoundDuration":426046,"Delta":211145038},{"NoteNumber":70,"Velocity":39,"Duration":70754,"SoundDuration":70754,"Delta":211571084},{"NoteNumber":70,"Velocity":39,"Duration":70754,"SoundDuration":70754,"Delta":211712594},{"NoteNumber":70,"Velocity":39,"Duration":141509,"SoundDuration":141509,"Delta":211854103},{"NoteNumber":34,"Velocity":35,"Duration":141509,"SoundDuration":141509,"Delta":211854103},{"NoteNumber":46,"Velocity":35,"Duration":141509,"SoundDuration":141509,"Delta":211854103},{"NoteNumber":70,"Velocity":39,"Duration":70754,"SoundDuration":70754,"Delta":212420141},{"NoteNumber":56,"Velocity":37,"Duration":283019,"SoundDuration":283019,"Delta":212420141},{"NoteNumber":58,"Velocity":37,"Duration":283019,"SoundDuration":283019,"Delta":212420141},{"NoteNumber":65,"Velocity":37,"Duration":283019,"SoundDuration":283019,"Delta":212420141},{"NoteNumber":70,"Velocity":39,"Duration":70754,"SoundDuration":70754,"Delta":212561651},{"NoteNumber":70,"Velocity":39,"Duration":141509,"SoundDuration":141509,"Delta":212703160},{"NoteNumber":55,"Velocity":32,"Duration":141509,"SoundDuration":141509,"Delta":212703160},{"NoteNumber":58,"Velocity":32,"Duration":141509,"SoundDuration":141509,"Delta":212703160},{"NoteNumber":64,"Velocity":32,"Duration":141509,"SoundDuration":141509,"Delta":212703160},{"NoteNumber":70,"Velocity":39,"Duration":70754,"SoundDuration":70754,"Delta":213269198},{"NoteNumber":54,"Velocity":36,"Duration":283018,"SoundDuration":283018,"Delta":213269198},{"NoteNumber":58,"Velocity":36,"Duration":283018,"SoundDuration":283018,"Delta":213269198},{"NoteNumber":63,"Velocity":36,"Duration":283018,"SoundDuration":283018,"Delta":213269198},{"NoteNumber":70,"Velocity":39,"Duration":70754,"SoundDuration":70754,"Delta":213410708},{"NoteNumber":70,"Velocity":39,"Duration":141509,"SoundDuration":141509,"Delta":213552217},{"NoteNumber":53,"Velocity":32,"Duration":141509,"SoundDuration":141509,"Delta":213552217},{"NoteNumber":58,"Velocity":32,"Duration":141509,"SoundDuration":141509,"Delta":213552217},{"NoteNumber":62,"Velocity":32,"Duration":141509,"SoundDuration":141509,"Delta":213552217},{"NoteNumber":70,"Velocity":94,"Duration":70754,"SoundDuration":70754,"Delta":213835236},{"NoteNumber":82,"Velocity":94,"Duration":70754,"SoundDuration":70754,"Delta":213835236},{"NoteNumber":34,"Velocity":82,"Duration":70754,"SoundDuration":70754,"Delta":213835236},{"NoteNumber":46,"Velocity":82,"Duration":70754,"SoundDuration":70754,"Delta":213835236},{"NoteNumber":70,"Velocity":91,"Duration":70754,"SoundDuration":70754,"Delta":213976746},{"NoteNumber":82,"Velocity":91,"Duration":70754,"SoundDuration":70754,"Delta":213976746},{"NoteNumber":34,"Velocity":78,"Duration":70754,"SoundDuration":70754,"Delta":213976746},{"NoteNumber":46,"Velocity":78,"Duration":70754,"SoundDuration":70754,"Delta":213976746},{"NoteNumber":70,"Velocity":95,"Duration":141509,"SoundDuration":141509,"Delta":214118255},{"NoteNumber":82,"Velocity":95,"Duration":141509,"SoundDuration":141509,"Delta":214118255},{"NoteNumber":34,"Velocity":82,"Duration":141509,"SoundDuration":141509,"Delta":214118255},{"NoteNumber":46,"Velocity":82,"Duration":141509,"SoundDuration":141509,"Delta":214118255},{"NoteNumber":70,"Velocity":95,"Duration":70754,"SoundDuration":70754,"Delta":214401274},{"NoteNumber":82,"Velocity":95,"Duration":70754,"SoundDuration":70754,"Delta":214401274},{"NoteNumber":34,"Velocity":82,"Duration":70754,"SoundDuration":70754,"Delta":214401274},{"NoteNumber":46,"Velocity":82,"Duration":70754,"SoundDuration":70754,"Delta":214401274},{"NoteNumber":70,"Velocity":91,"Duration":70754,"SoundDuration":70754,"Delta":214542784},{"NoteNumber":82,"Velocity":91,"Duration":70754,"SoundDuration":70754,"Delta":214542784},{"NoteNumber":34,"Velocity":78,"Duration":70754,"SoundDuration":70754,"Delta":214542784},{"NoteNumber":46,"Velocity":78,"Duration":70754,"SoundDuration":70754,"Delta":214542784},{"NoteNumber":70,"Velocity":95,"Duration":141509,"SoundDuration":141509,"Delta":214684293},{"NoteNumber":82,"Velocity":95,"Duration":141509,"SoundDuration":141509,"Delta":214684293},{"NoteNumber":34,"Velocity":82,"Duration":141509,"SoundDuration":141509,"Delta":214684293},{"NoteNumber":46,"Velocity":82,"Duration":141509,"SoundDuration":141509,"Delta":214684293},{"NoteNumber":70,"Velocity":95,"Duration":70754,"SoundDuration":70754,"Delta":214967312},{"NoteNumber":82,"Velocity":95,"Duration":70754,"SoundDuration":70754,"Delta":214967312},{"NoteNumber":34,"Velocity":82,"Duration":70754,"SoundDuration":70754,"Delta":214967312},{"NoteNumber":46,"Velocity":82,"Duration":70754,"SoundDuration":70754,"Delta":214967312},{"NoteNumber":70,"Velocity":91,"Duration":70754,"SoundDuration":70754,"Delta":215108822},{"NoteNumber":82,"Velocity":91,"Duration":70754,"SoundDuration":70754,"Delta":215108822},{"NoteNumber":34,"Velocity":78,"Duration":70754,"SoundDuration":70754,"Delta":215108822},{"NoteNumber":46,"Velocity":78,"Duration":70754,"SoundDuration":70754,"Delta":215108822},{"NoteNumber":70,"Velocity":95,"Duration":141509,"SoundDuration":141509,"Delta":215250331},{"NoteNumber":82,"Velocity":95,"Duration":141509,"SoundDuration":141509,"Delta":215250331},{"NoteNumber":34,"Velocity":82,"Duration":141509,"SoundDuration":141509,"Delta":215250331},{"NoteNumber":46,"Velocity":82,"Duration":141509,"SoundDuration":141509,"Delta":215250331},{"NoteNumber":58,"Velocity":39,"Duration":72289,"SoundDuration":72289,"Delta":215816369},{"NoteNumber":65,"Velocity":39,"Duration":72289,"SoundDuration":72289,"Delta":215816369},{"NoteNumber":70,"Velocity":39,"Duration":72289,"SoundDuration":72289,"Delta":215816369},{"NoteNumber":46,"Velocity":39,"Duration":289156,"SoundDuration":289156,"Delta":215816369},{"NoteNumber":56,"Velocity":39,"Duration":289156,"SoundDuration":289156,"Delta":215816369},{"NoteNumber":58,"Velocity":39,"Duration":72289,"SoundDuration":72289,"Delta":215960948},{"NoteNumber":70,"Velocity":39,"Duration":72289,"SoundDuration":72289,"Delta":215960948},{"NoteNumber":58,"Velocity":39,"Duration":144578,"SoundDuration":144578,"Delta":216105526},{"NoteNumber":64,"Velocity":39,"Duration":144578,"SoundDuration":144578,"Delta":216105526},{"NoteNumber":70,"Velocity":39,"Duration":144578,"SoundDuration":144578,"Delta":216105526},{"NoteNumber":46,"Velocity":36,"Duration":144578,"SoundDuration":144578,"Delta":216105526},{"NoteNumber":55,"Velocity":36,"Duration":144578,"SoundDuration":144578,"Delta":216105526},{"NoteNumber":58,"Velocity":39,"Duration":78328,"SoundDuration":78328,"Delta":216683840},{"NoteNumber":63,"Velocity":39,"Duration":78328,"SoundDuration":78328,"Delta":216683840},{"NoteNumber":70,"Velocity":39,"Duration":78328,"SoundDuration":78328,"Delta":216683840},{"NoteNumber":54,"Velocity":39,"Duration":321041,"SoundDuration":321041,"Delta":216683840},{"NoteNumber":46,"Velocity":39,"Duration":321041,"SoundDuration":321041,"Delta":216683840},{"NoteNumber":58,"Velocity":39,"Duration":82191,"SoundDuration":82191,"Delta":216840498},{"NoteNumber":70,"Velocity":39,"Duration":82191,"SoundDuration":82191,"Delta":216840498},{"NoteNumber":58,"Velocity":39,"Duration":152284,"SoundDuration":152284,"Delta":217004882},{"NoteNumber":62,"Velocity":39,"Duration":152284,"SoundDuration":152284,"Delta":217004882},{"NoteNumber":70,"Velocity":39,"Duration":152284,"SoundDuration":152284,"Delta":217004882},{"NoteNumber":46,"Velocity":36,"Duration":152284,"SoundDuration":152284,"Delta":217004882},{"NoteNumber":53,"Velocity":36,"Duration":152284,"SoundDuration":152284,"Delta":217004882},{"NoteNumber":58,"Velocity":43,"Duration":68807,"SoundDuration":68807,"Delta":217309451},{"NoteNumber":70,"Velocity":43,"Duration":68807,"SoundDuration":68807,"Delta":217309451},{"NoteNumber":58,"Velocity":47,"Duration":68807,"SoundDuration":68807,"Delta":217447065},{"NoteNumber":70,"Velocity":47,"Duration":68807,"SoundDuration":68807,"Delta":217447065},{"NoteNumber":58,"Velocity":52,"Duration":275228,"SoundDuration":275228,"Delta":217584680},{"NoteNumber":70,"Velocity":52,"Duration":275228,"SoundDuration":275228,"Delta":217584680},{"NoteNumber":58,"Velocity":55,"Duration":70257,"SoundDuration":70257,"Delta":217859909},{"NoteNumber":70,"Velocity":55,"Duration":70257,"SoundDuration":70257,"Delta":217859909},{"NoteNumber":58,"Velocity":57,"Duration":70257,"SoundDuration":70257,"Delta":218000424},{"NoteNumber":70,"Velocity":57,"Duration":70257,"SoundDuration":70257,"Delta":218000424},{"NoteNumber":58,"Velocity":66,"Duration":281030,"SoundDuration":281030,"Delta":218140939},{"NoteNumber":70,"Velocity":66,"Duration":281030,"SoundDuration":281030,"Delta":218140939},{"NoteNumber":58,"Velocity":72,"Duration":82644,"SoundDuration":82644,"Delta":218421969},{"NoteNumber":70,"Velocity":72,"Duration":82644,"SoundDuration":82644,"Delta":218421969},{"NoteNumber":58,"Velocity":67,"Duration":82644,"SoundDuration":82644,"Delta":218587258},{"NoteNumber":70,"Velocity":67,"Duration":82644,"SoundDuration":82644,"Delta":218587258},{"NoteNumber":58,"Velocity":97,"Duration":138889,"SoundDuration":138889,"Delta":218748923},{"NoteNumber":70,"Velocity":97,"Duration":138889,"SoundDuration":138889,"Delta":218748923},{"NoteNumber":34,"Velocity":95,"Duration":138889,"SoundDuration":138889,"Delta":218748923},{"NoteNumber":46,"Velocity":95,"Duration":138889,"SoundDuration":138889,"Delta":218748923},{"NoteNumber":74,"Velocity":56,"Duration":141906,"SoundDuration":141906,"Delta":219026701},{"NoteNumber":68,"Velocity":54,"Duration":194985,"SoundDuration":194985,"Delta":219026701},{"NoteNumber":65,"Velocity":54,"Duration":194985,"SoundDuration":194985,"Delta":219026701},{"NoteNumber":58,"Velocity":54,"Duration":194985,"SoundDuration":194985,"Delta":219026701},{"NoteNumber":75,"Velocity":51,"Duration":138329,"SoundDuration":138329,"Delta":219157992},{"NoteNumber":74,"Velocity":64,"Duration":199179,"SoundDuration":199179,"Delta":219285380},{"NoteNumber":77,"Velocity":64,"Duration":199179,"SoundDuration":199179,"Delta":219285380},{"NoteNumber":68,"Velocity":62,"Duration":199179,"SoundDuration":199179,"Delta":219285380},{"NoteNumber":65,"Velocity":62,"Duration":199179,"SoundDuration":199179,"Delta":219285380},{"NoteNumber":58,"Velocity":62,"Duration":199179,"SoundDuration":199179,"Delta":219285380},{"NoteNumber":70,"Velocity":96,"Duration":132743,"SoundDuration":132743,"Delta":219552449},{"NoteNumber":39,"Velocity":95,"Duration":132743,"SoundDuration":132743,"Delta":219552449},{"NoteNumber":51,"Velocity":95,"Duration":132743,"SoundDuration":132743,"Delta":219552449},{"NoteNumber":75,"Velocity":59,"Duration":141334,"SoundDuration":141334,"Delta":219817936},{"NoteNumber":67,"Velocity":57,"Duration":194413,"SoundDuration":194413,"Delta":219817936},{"NoteNumber":63,"Velocity":57,"Duration":194413,"SoundDuration":194413,"Delta":219817936},{"NoteNumber":58,"Velocity":57,"Duration":194413,"SoundDuration":194413,"Delta":219817936},{"NoteNumber":77,"Velocity":55,"Duration":138281,"SoundDuration":138281,"Delta":219948655},{"NoteNumber":75,"Velocity":67,"Duration":196078,"SoundDuration":196078,"Delta":220076043},{"NoteNumber":79,"Velocity":67,"Duration":196078,"SoundDuration":196078,"Delta":220076043},{"NoteNumber":67,"Velocity":61,"Duration":196078,"SoundDuration":196078,"Delta":220076043},{"NoteNumber":63,"Velocity":61,"Duration":196078,"SoundDuration":196078,"Delta":220076043},{"NoteNumber":58,"Velocity":61,"Duration":196078,"SoundDuration":196078,"Delta":220076043},{"NoteNumber":70,"Velocity":97,"Duration":129032,"SoundDuration":129032,"Delta":220337481},{"NoteNumber":46,"Velocity":96,"Duration":129032,"SoundDuration":129032,"Delta":220337481},{"NoteNumber":58,"Velocity":96,"Duration":129032,"SoundDuration":129032,"Delta":220337481},{"NoteNumber":77,"Velocity":67,"Duration":136934,"SoundDuration":136934,"Delta":220595546},{"NoteNumber":68,"Velocity":60,"Duration":188694,"SoundDuration":188694,"Delta":220595546},{"NoteNumber":65,"Velocity":60,"Duration":188694,"SoundDuration":188694,"Delta":220595546},{"NoteNumber":58,"Velocity":60,"Duration":188694,"SoundDuration":188694,"Delta":220595546},{"NoteNumber":79,"Velocity":65,"Duration":135075,"SoundDuration":135075,"Delta":220722129},{"NoteNumber":77,"Velocity":75,"Duration":195338,"SoundDuration":195338,"Delta":220846352},{"NoteNumber":80,"Velocity":75,"Duration":195338,"SoundDuration":195338,"Delta":220846352},{"NoteNumber":68,"Velocity":67,"Duration":195338,"SoundDuration":195338,"Delta":220846352},{"NoteNumber":65,"Velocity":67,"Duration":195338,"SoundDuration":195338,"Delta":220846352},{"NoteNumber":58,"Velocity":67,"Duration":195338,"SoundDuration":195338,"Delta":220846352},{"NoteNumber":82,"Velocity":82,"Duration":506735,"SoundDuration":506735,"Delta":221106803},{"NoteNumber":79,"Velocity":82,"Duration":506735,"SoundDuration":506735,"Delta":221106803},{"NoteNumber":73,"Velocity":82,"Duration":506735,"SoundDuration":506735,"Delta":221106803},{"NoteNumber":51,"Velocity":97,"Duration":126684,"SoundDuration":126684,"Delta":221106803},{"NoteNumber":67,"Velocity":71,"Duration":126684,"SoundDuration":126684,"Delta":221360171},{"NoteNumber":61,"Velocity":71,"Duration":126684,"SoundDuration":126684,"Delta":221360171},{"NoteNumber":58,"Velocity":71,"Duration":126684,"SoundDuration":126684,"Delta":221360171},{"NoteNumber":82,"Velocity":69,"Duration":134873,"SoundDuration":134873,"Delta":221613539},{"NoteNumber":79,"Velocity":69,"Duration":134873,"SoundDuration":134873,"Delta":221613539},{"NoteNumber":73,"Velocity":69,"Duration":134873,"SoundDuration":134873,"Delta":221613539},{"NoteNumber":52,"Velocity":92,"Duration":134873,"SoundDuration":134873,"Delta":221613539},{"NoteNumber":82,"Velocity":69,"Duration":134873,"SoundDuration":134873,"Delta":221748413},{"NoteNumber":79,"Velocity":69,"Duration":134873,"SoundDuration":134873,"Delta":221748413},{"NoteNumber":73,"Velocity":69,"Duration":134873,"SoundDuration":134873,"Delta":221748413},{"NoteNumber":82,"Velocity":77,"Duration":274306,"SoundDuration":274306,"Delta":221883287},{"NoteNumber":73,"Velocity":77,"Duration":515067,"SoundDuration":515067,"Delta":221883287},{"NoteNumber":79,"Velocity":77,"Duration":515067,"SoundDuration":515067,"Delta":221883287},{"NoteNumber":53,"Velocity":60,"Duration":131867,"SoundDuration":131867,"Delta":221883287},{"NoteNumber":84,"Velocity":60,"Duration":137223,"SoundDuration":137223,"Delta":222147023},{"NoteNumber":65,"Velocity":47,"Duration":126849,"SoundDuration":126849,"Delta":222147023},{"NoteNumber":56,"Velocity":47,"Duration":126849,"SoundDuration":126849,"Delta":222147023},{"NoteNumber":82,"Velocity":54,"Duration":135519,"SoundDuration":135519,"Delta":222273873},{"NoteNumber":72,"Velocity":58,"Duration":132450,"SoundDuration":132450,"Delta":222398355},{"NoteNumber":80,"Velocity":58,"Duration":132450,"SoundDuration":132450,"Delta":222398355},{"NoteNumber":44,"Velocity":53,"Duration":132450,"SoundDuration":132450,"Delta":222398355},{"NoteNumber":80,"Velocity":76,"Duration":269103,"SoundDuration":269103,"Delta":222663256},{"NoteNumber":71,"Velocity":76,"Duration":507864,"SoundDuration":507864,"Delta":222663256},{"NoteNumber":46,"Velocity":55,"Duration":129310,"SoundDuration":129310,"Delta":222663256},{"NoteNumber":82,"Velocity":57,"Duration":136074,"SoundDuration":136074,"Delta":222921877},{"NoteNumber":63,"Velocity":44,"Duration":187514,"SoundDuration":187514,"Delta":222921877},{"NoteNumber":55,"Velocity":44,"Duration":187514,"SoundDuration":187514,"Delta":222921877},{"NoteNumber":80,"Velocity":53,"Duration":134427,"SoundDuration":134427,"Delta":223047663},{"NoteNumber":70,"Velocity":56,"Duration":131642,"SoundDuration":131642,"Delta":223171120},{"NoteNumber":79,"Velocity":56,"Duration":131642,"SoundDuration":131642,"Delta":223171120},{"NoteNumber":63,"Velocity":51,"Duration":131642,"SoundDuration":131642,"Delta":223171120},{"NoteNumber":55,"Velocity":51,"Duration":131642,"SoundDuration":131642,"Delta":223171120},{"NoteNumber":79,"Velocity":71,"Duration":266540,"SoundDuration":266540,"Delta":223434405},{"NoteNumber":70,"Velocity":71,"Duration":505403,"SoundDuration":505403,"Delta":223434405},{"NoteNumber":46,"Velocity":54,"Duration":128024,"SoundDuration":128024,"Delta":223434405},{"NoteNumber":80,"Velocity":55,"Duration":136185,"SoundDuration":136185,"Delta":223690454},{"NoteNumber":62,"Velocity":41,"Duration":249354,"SoundDuration":249354,"Delta":223690454},{"NoteNumber":53,"Velocity":41,"Duration":249354,"SoundDuration":249354,"Delta":223690454},{"NoteNumber":79,"Velocity":51,"Duration":134771,"SoundDuration":134771,"Delta":223816351},{"NoteNumber":68,"Velocity":54,"Duration":135777,"SoundDuration":135777,"Delta":223939808},{"NoteNumber":77,"Velocity":54,"Duration":135777,"SoundDuration":135777,"Delta":223939808},{"NoteNumber":62,"Velocity":49,"Duration":135777,"SoundDuration":135777,"Delta":223939808},{"NoteNumber":58,"Velocity":49,"Duration":135777,"SoundDuration":135777,"Delta":223939808},{"NoteNumber":77,"Velocity":64,"Duration":271188,"SoundDuration":271188,"Delta":224211363},{"NoteNumber":68,"Velocity":64,"Duration":518149,"SoundDuration":518149,"Delta":224211363},{"NoteNumber":51,"Velocity":51,"Duration":790258,"SoundDuration":790258,"Delta":224211363},{"NoteNumber":79,"Velocity":48,"Duration":139586,"SoundDuration":139586,"Delta":224471814},{"NoteNumber":63,"Velocity":38,"Duration":193274,"SoundDuration":193274,"Delta":224471814},{"NoteNumber":58,"Velocity":38,"Duration":193274,"SoundDuration":193274,"Delta":224471814},{"NoteNumber":77,"Velocity":45,"Duration":140187,"SoundDuration":140187,"Delta":224600663},{"NoteNumber":75,"Velocity":48,"Duration":136054,"SoundDuration":136054,"Delta":224729513},{"NoteNumber":67,"Velocity":48,"Duration":136054,"SoundDuration":136054,"Delta":224729513},{"NoteNumber":63,"Velocity":47,"Duration":136054,"SoundDuration":136054,"Delta":224729513},{"NoteNumber":58,"Velocity":47,"Duration":136054,"SoundDuration":136054,"Delta":224729513},{"NoteNumber":82,"Velocity":96,"Duration":272157,"SoundDuration":272157,"Delta":225001622},{"NoteNumber":70,"Velocity":96,"Duration":272157,"SoundDuration":272157,"Delta":225001622},{"NoteNumber":58,"Velocity":95,"Duration":401825,"SoundDuration":401825,"Delta":225001622},{"NoteNumber":46,"Velocity":95,"Duration":401825,"SoundDuration":401825,"Delta":225001622},{"NoteNumber":74,"Velocity":57,"Duration":140261,"SoundDuration":140261,"Delta":225273780},{"NoteNumber":68,"Velocity":54,"Duration":193227,"SoundDuration":193227,"Delta":225273780},{"NoteNumber":65,"Velocity":54,"Duration":193227,"SoundDuration":193227,"Delta":225273780},{"NoteNumber":58,"Velocity":54,"Duration":193227,"SoundDuration":193227,"Delta":225273780},{"NoteNumber":75,"Velocity":52,"Duration":137917,"SoundDuration":137917,"Delta":225403448},{"NoteNumber":74,"Velocity":63,"Duration":197478,"SoundDuration":197478,"Delta":225530566},{"NoteNumber":77,"Velocity":63,"Duration":197478,"SoundDuration":197478,"Delta":225530566},{"NoteNumber":68,"Velocity":58,"Duration":197478,"SoundDuration":197478,"Delta":225530566},{"NoteNumber":65,"Velocity":58,"Duration":197478,"SoundDuration":197478,"Delta":225530566},{"NoteNumber":58,"Velocity":58,"Duration":197478,"SoundDuration":197478,"Delta":225530566},{"NoteNumber":82,"Velocity":95,"Duration":263258,"SoundDuration":263258,"Delta":225795933},{"NoteNumber":70,"Velocity":95,"Duration":263258,"SoundDuration":263258,"Delta":225795933},{"NoteNumber":39,"Velocity":94,"Duration":390215,"SoundDuration":390215,"Delta":225795933},{"NoteNumber":51,"Velocity":94,"Duration":390215,"SoundDuration":390215,"Delta":225795933},{"NoteNumber":75,"Velocity":60,"Duration":137309,"SoundDuration":137309,"Delta":226059192},{"NoteNumber":67,"Velocity":64,"Duration":189069,"SoundDuration":189069,"Delta":226059192},{"NoteNumber":63,"Velocity":64,"Duration":189069,"SoundDuration":189069,"Delta":226059192},{"NoteNumber":58,"Velocity":64,"Duration":189069,"SoundDuration":189069,"Delta":226059192},{"NoteNumber":77,"Velocity":57,"Duration":134794,"SoundDuration":134794,"Delta":226186149},{"NoteNumber":75,"Velocity":68,"Duration":190275,"SoundDuration":190275,"Delta":226310373},{"NoteNumber":79,"Velocity":68,"Duration":190275,"SoundDuration":190275,"Delta":226310373},{"NoteNumber":67,"Velocity":69,"Duration":190275,"SoundDuration":190275,"Delta":226310373},{"NoteNumber":63,"Velocity":69,"Duration":190275,"SoundDuration":190275,"Delta":226310373},{"NoteNumber":58,"Velocity":69,"Duration":190275,"SoundDuration":190275,"Delta":226310373},{"NoteNumber":82,"Velocity":93,"Duration":255504,"SoundDuration":255504,"Delta":226564073},{"NoteNumber":70,"Velocity":93,"Duration":255504,"SoundDuration":255504,"Delta":226564073},{"NoteNumber":58,"Velocity":95,"Duration":380358,"SoundDuration":380358,"Delta":226564073},{"NoteNumber":46,"Velocity":95,"Duration":380358,"SoundDuration":380358,"Delta":226564073},{"NoteNumber":77,"Velocity":72,"Duration":135100,"SoundDuration":135100,"Delta":226819577},{"NoteNumber":68,"Velocity":66,"Duration":186329,"SoundDuration":186329,"Delta":226819577},{"NoteNumber":65,"Velocity":66,"Duration":186329,"SoundDuration":186329,"Delta":226819577},{"NoteNumber":58,"Velocity":66,"Duration":186329,"SoundDuration":186329,"Delta":226819577},{"NoteNumber":79,"Velocity":68,"Duration":133945,"SoundDuration":133945,"Delta":226944431},{"NoteNumber":77,"Velocity":80,"Duration":197898,"SoundDuration":197898,"Delta":227067382},{"NoteNumber":80,"Velocity":80,"Duration":197898,"SoundDuration":197898,"Delta":227067382},{"NoteNumber":68,"Velocity":70,"Duration":197898,"SoundDuration":197898,"Delta":227067382},{"NoteNumber":65,"Velocity":70,"Duration":197898,"SoundDuration":197898,"Delta":227067382},{"NoteNumber":58,"Velocity":70,"Duration":197898,"SoundDuration":197898,"Delta":227067382},{"NoteNumber":82,"Velocity":101,"Duration":380052,"SoundDuration":380052,"Delta":227331246},{"NoteNumber":79,"Velocity":101,"Duration":380052,"SoundDuration":380052,"Delta":227331246},{"NoteNumber":73,"Velocity":101,"Duration":380052,"SoundDuration":380052,"Delta":227331246},{"NoteNumber":51,"Velocity":78,"Duration":126684,"SoundDuration":126684,"Delta":227331246},{"NoteNumber":67,"Velocity":48,"Duration":126684,"SoundDuration":126684,"Delta":227584614},{"NoteNumber":61,"Velocity":48,"Duration":126684,"SoundDuration":126684,"Delta":227584614},{"NoteNumber":58,"Velocity":48,"Duration":126684,"SoundDuration":126684,"Delta":227584614},{"NoteNumber":79,"Velocity":76,"Duration":134831,"SoundDuration":134831,"Delta":227711298},{"NoteNumber":82,"Velocity":76,"Duration":134831,"SoundDuration":134831,"Delta":227711298},{"NoteNumber":73,"Velocity":68,"Duration":288463,"SoundDuration":288463,"Delta":227846130},{"NoteNumber":52,"Velocity":49,"Duration":288463,"SoundDuration":288463,"Delta":227846130},{"NoteNumber":82,"Velocity":74,"Duration":144578,"SoundDuration":144578,"Delta":227990015},{"NoteNumber":79,"Velocity":74,"Duration":144578,"SoundDuration":144578,"Delta":227990015},{"NoteNumber":73,"Velocity":64,"Duration":510293,"SoundDuration":510293,"Delta":228134593},{"NoteNumber":53,"Velocity":43,"Duration":129949,"SoundDuration":129949,"Delta":228134593},{"NoteNumber":82,"Velocity":72,"Duration":140505,"SoundDuration":140505,"Delta":228264542},{"NoteNumber":84,"Velocity":64,"Duration":136993,"SoundDuration":136993,"Delta":228394491},{"NoteNumber":56,"Velocity":49,"Duration":126684,"SoundDuration":126684,"Delta":228394491},{"NoteNumber":65,"Velocity":49,"Duration":126684,"SoundDuration":126684,"Delta":228394491},{"NoteNumber":82,"Velocity":57,"Duration":134611,"SoundDuration":134611,"Delta":228521175},{"NoteNumber":80,"Velocity":54,"Duration":130798,"SoundDuration":130798,"Delta":228644887},{"NoteNumber":72,"Velocity":54,"Duration":130798,"SoundDuration":130798,"Delta":228644887},{"NoteNumber":44,"Velocity":37,"Duration":130798,"SoundDuration":130798,"Delta":228644887},{"NoteNumber":71,"Velocity":65,"Duration":510462,"SoundDuration":510462,"Delta":228906484},{"NoteNumber":46,"Velocity":43,"Duration":129120,"SoundDuration":129120,"Delta":228906484},{"NoteNumber":80,"Velocity":69,"Duration":139722,"SoundDuration":139722,"Delta":229035605},{"NoteNumber":82,"Velocity":65,"Duration":137637,"SoundDuration":137637,"Delta":229164726},{"NoteNumber":55,"Velocity":31,"Duration":189720,"SoundDuration":189720,"Delta":229164726},{"NoteNumber":63,"Velocity":31,"Duration":189720,"SoundDuration":189720,"Delta":229164726},{"NoteNumber":80,"Velocity":55,"Duration":136042,"SoundDuration":136042,"Delta":229291947},{"NoteNumber":79,"Velocity":51,"Duration":132508,"SoundDuration":132508,"Delta":229416947},{"NoteNumber":70,"Velocity":51,"Duration":132508,"SoundDuration":132508,"Delta":229416947},{"NoteNumber":63,"Velocity":41,"Duration":132508,"SoundDuration":132508,"Delta":229416947},{"NoteNumber":55,"Velocity":41,"Duration":132508,"SoundDuration":132508,"Delta":229416947},{"NoteNumber":70,"Velocity":63,"Duration":555628,"SoundDuration":555628,"Delta":229681965},{"NoteNumber":46,"Velocity":33,"Duration":137318,"SoundDuration":137318,"Delta":229681965},{"NoteNumber":79,"Velocity":46,"Duration":149026,"SoundDuration":149026,"Delta":229819283},{"NoteNumber":80,"Velocity":58,"Duration":152203,"SoundDuration":152203,"Delta":229956602},{"NoteNumber":53,"Velocity":40,"Duration":280991,"SoundDuration":280991,"Delta":229956602},{"NoteNumber":62,"Velocity":40,"Duration":280991,"SoundDuration":280991,"Delta":229956602},{"NoteNumber":79,"Velocity":45,"Duration":152510,"SoundDuration":152510,"Delta":230097097},{"NoteNumber":68,"Velocity":50,"Duration":288364,"SoundDuration":288364,"Delta":230237593},{"NoteNumber":77,"Velocity":50,"Duration":288364,"SoundDuration":288364,"Delta":230237593},{"NoteNumber":62,"Velocity":27,"Duration":288364,"SoundDuration":288364,"Delta":230237593},{"NoteNumber":58,"Velocity":27,"Duration":567433,"SoundDuration":567433,"Delta":230237593},{"NoteNumber":75,"Velocity":59,"Duration":139534,"SoundDuration":139534,"Delta":230525957},{"NoteNumber":67,"Velocity":59,"Duration":139534,"SoundDuration":139534,"Delta":230525957},{"NoteNumber":63,"Velocity":44,"Duration":279069,"SoundDuration":279069,"Delta":230525957},{"NoteNumber":51,"Velocity":44,"Duration":279069,"SoundDuration":279069,"Delta":230525957},{"NoteNumber":75,"Velocity":53,"Duration":66401,"SoundDuration":66401,"Delta":230805027},{"NoteNumber":75,"Velocity":64,"Duration":66401,"SoundDuration":66401,"Delta":230937829},{"NoteNumber":75,"Velocity":67,"Duration":66401,"SoundDuration":66401,"Delta":231070631},{"NoteNumber":51,"Velocity":52,"Duration":265603,"SoundDuration":265603,"Delta":231070631},{"NoteNumber":55,"Velocity":52,"Duration":265603,"SoundDuration":265603,"Delta":231070631},{"NoteNumber":61,"Velocity":52,"Duration":265603,"SoundDuration":265603,"Delta":231070631},{"NoteNumber":75,"Velocity":69,"Duration":66401,"SoundDuration":66401,"Delta":231203433},{"NoteNumber":75,"Velocity":78,"Duration":65821,"SoundDuration":65821,"Delta":231336235},{"NoteNumber":44,"Velocity":25,"Duration":394927,"SoundDuration":394927,"Delta":231336235},{"NoteNumber":75,"Velocity":64,"Duration":65821,"SoundDuration":65821,"Delta":231467877},{"NoteNumber":75,"Velocity":78,"Duration":65821,"SoundDuration":65821,"Delta":231599520},{"NoteNumber":56,"Velocity":33,"Duration":197463,"SoundDuration":197463,"Delta":231599520},{"NoteNumber":60,"Velocity":33,"Duration":197463,"SoundDuration":197463,"Delta":231599520},{"NoteNumber":51,"Velocity":33,"Duration":197463,"SoundDuration":197463,"Delta":231599520},{"NoteNumber":75,"Velocity":74,"Duration":65821,"SoundDuration":65821,"Delta":231731162},{"NoteNumber":75,"Velocity":69,"Duration":65821,"SoundDuration":65821,"Delta":231862805},{"NoteNumber":60,"Velocity":41,"Duration":200766,"SoundDuration":200766,"Delta":231862805},{"NoteNumber":51,"Velocity":41,"Duration":200766,"SoundDuration":200766,"Delta":231862805},{"NoteNumber":56,"Velocity":41,"Duration":200766,"SoundDuration":200766,"Delta":231862805},{"NoteNumber":75,"Velocity":69,"Duration":69124,"SoundDuration":69124,"Delta":231994447},{"NoteNumber":77,"Velocity":65,"Duration":133888,"SoundDuration":133888,"Delta":232132696},{"NoteNumber":44,"Velocity":33,"Duration":247177,"SoundDuration":247177,"Delta":232132696},{"NoteNumber":75,"Velocity":58,"Duration":133888,"SoundDuration":133888,"Delta":232256285},{"NoteNumber":72,"Velocity":56,"Duration":133888,"SoundDuration":133888,"Delta":232379874},{"NoteNumber":56,"Velocity":33,"Duration":185383,"SoundDuration":185383,"Delta":232379874},{"NoteNumber":60,"Velocity":33,"Duration":185383,"SoundDuration":185383,"Delta":232379874},{"NoteNumber":51,"Velocity":33,"Duration":185383,"SoundDuration":185383,"Delta":232379874},{"NoteNumber":68,"Velocity":48,"Duration":133888,"SoundDuration":133888,"Delta":232503463},{"NoteNumber":63,"Velocity":52,"Duration":123588,"SoundDuration":123588,"Delta":232627052},{"NoteNumber":56,"Velocity":37,"Duration":185383,"SoundDuration":185383,"Delta":232627052},{"NoteNumber":51,"Velocity":37,"Duration":185383,"SoundDuration":185383,"Delta":232627052},{"NoteNumber":60,"Velocity":37,"Duration":185383,"SoundDuration":185383,"Delta":232627052},{"NoteNumber":64,"Velocity":44,"Duration":123589,"SoundDuration":123589,"Delta":232750641},{"NoteNumber":65,"Velocity":58,"Duration":61667,"SoundDuration":61667,"Delta":232874230},{"NoteNumber":44,"Velocity":37,"Duration":247175,"SoundDuration":247175,"Delta":232874230},{"NoteNumber":65,"Velocity":51,"Duration":61836,"SoundDuration":61836,"Delta":232997650},{"NoteNumber":65,"Velocity":55,"Duration":62047,"SoundDuration":62047,"Delta":233121405},{"NoteNumber":56,"Velocity":26,"Duration":186391,"SoundDuration":186391,"Delta":233121405},{"NoteNumber":50,"Velocity":26,"Duration":186391,"SoundDuration":186391,"Delta":233121405},{"NoteNumber":59,"Velocity":26,"Duration":186391,"SoundDuration":186391,"Delta":233121405},{"NoteNumber":65,"Velocity":46,"Duration":62213,"SoundDuration":62213,"Delta":233245583},{"NoteNumber":65,"Velocity":54,"Duration":62427,"SoundDuration":62427,"Delta":233370097},{"NoteNumber":56,"Velocity":32,"Duration":187545,"SoundDuration":187545,"Delta":233370097},{"NoteNumber":50,"Velocity":32,"Duration":187545,"SoundDuration":187545,"Delta":233370097},{"NoteNumber":59,"Velocity":32,"Duration":187545,"SoundDuration":187545,"Delta":233370097},{"NoteNumber":65,"Velocity":64,"Duration":62602,"SoundDuration":62602,"Delta":233495040},{"NoteNumber":63,"Velocity":61,"Duration":136020,"SoundDuration":136020,"Delta":233620330},{"NoteNumber":44,"Velocity":38,"Duration":250820,"SoundDuration":250820,"Delta":233620330},{"NoteNumber":68,"Velocity":53,"Duration":135674,"SoundDuration":135674,"Delta":233745903},{"NoteNumber":72,"Velocity":46,"Duration":135304,"SoundDuration":135304,"Delta":233871151},{"NoteNumber":60,"Velocity":29,"Duration":187220,"SoundDuration":187220,"Delta":233871151},{"NoteNumber":51,"Velocity":29,"Duration":187220,"SoundDuration":187220,"Delta":233871151},{"NoteNumber":56,"Velocity":29,"Duration":187220,"SoundDuration":187220,"Delta":233871151},{"NoteNumber":75,"Velocity":64,"Duration":134897,"SoundDuration":134897,"Delta":233996072},{"NoteNumber":80,"Velocity":59,"Duration":134559,"SoundDuration":134559,"Delta":234120608},{"NoteNumber":56,"Velocity":48,"Duration":186202,"SoundDuration":186202,"Delta":234120608},{"NoteNumber":51,"Velocity":48,"Duration":186202,"SoundDuration":186202,"Delta":234120608},{"NoteNumber":60,"Velocity":48,"Duration":186202,"SoundDuration":186202,"Delta":234120608},{"NoteNumber":76,"Velocity":52,"Duration":123882,"SoundDuration":123882,"Delta":234244826},{"NoteNumber":77,"Velocity":52,"Duration":63342,"SoundDuration":63342,"Delta":234368708},{"NoteNumber":50,"Velocity":55,"Duration":253367,"SoundDuration":253367,"Delta":234368708},{"NoteNumber":77,"Velocity":48,"Duration":63341,"SoundDuration":63341,"Delta":234495392},{"NoteNumber":77,"Velocity":64,"Duration":63342,"SoundDuration":63342,"Delta":234622076},{"NoteNumber":65,"Velocity":24,"Duration":190026,"SoundDuration":190026,"Delta":234622076},{"NoteNumber":56,"Velocity":24,"Duration":190026,"SoundDuration":190026,"Delta":234622076},{"NoteNumber":59,"Velocity":24,"Duration":190026,"SoundDuration":190026,"Delta":234622076},{"NoteNumber":77,"Velocity":60,"Duration":63342,"SoundDuration":63342,"Delta":234748760},{"NoteNumber":77,"Velocity":53,"Duration":63342,"SoundDuration":63342,"Delta":234875444},{"NoteNumber":65,"Velocity":36,"Duration":190026,"SoundDuration":190026,"Delta":234875444},{"NoteNumber":56,"Velocity":36,"Duration":190026,"SoundDuration":190026,"Delta":234875444},{"NoteNumber":59,"Velocity":36,"Duration":190026,"SoundDuration":190026,"Delta":234875444},{"NoteNumber":77,"Velocity":73,"Duration":63342,"SoundDuration":63342,"Delta":235002128},{"NoteNumber":77,"Velocity":77,"Duration":99158,"SoundDuration":99158,"Delta":235128812},{"NoteNumber":51,"Velocity":44,"Duration":264421,"SoundDuration":264421,"Delta":235128812},{"NoteNumber":79,"Velocity":55,"Duration":99158,"SoundDuration":99158,"Delta":235216953},{"NoteNumber":77,"Velocity":55,"Duration":99087,"SoundDuration":99087,"Delta":235305094},{"NoteNumber":75,"Velocity":65,"Duration":142567,"SoundDuration":142567,"Delta":235393234},{"NoteNumber":63,"Velocity":32,"Duration":197608,"SoundDuration":197608,"Delta":235393234},{"NoteNumber":60,"Velocity":32,"Duration":197608,"SoundDuration":197608,"Delta":235393234},{"NoteNumber":68,"Velocity":32,"Duration":197608,"SoundDuration":197608,"Delta":235393234},{"NoteNumber":80,"Velocity":57,"Duration":143307,"SoundDuration":143307,"Delta":235524807},{"NoteNumber":84,"Velocity":51,"Duration":133019,"SoundDuration":133019,"Delta":235657048},{"NoteNumber":60,"Velocity":42,"Duration":133019,"SoundDuration":133019,"Delta":235657048},{"NoteNumber":68,"Velocity":42,"Duration":133019,"SoundDuration":133019,"Delta":235657048},{"NoteNumber":63,"Velocity":42,"Duration":133019,"SoundDuration":133019,"Delta":235657048},{"NoteNumber":89,"Velocity":66,"Duration":268888,"SoundDuration":268888,"Delta":235923772},{"NoteNumber":51,"Velocity":20,"Duration":258241,"SoundDuration":258241,"Delta":235923772},{"NoteNumber":87,"Velocity":50,"Duration":138397,"SoundDuration":138397,"Delta":236182014},{"NoteNumber":63,"Velocity":20,"Duration":191628,"SoundDuration":191628,"Delta":236182014},{"NoteNumber":61,"Velocity":20,"Duration":191628,"SoundDuration":191628,"Delta":236182014},{"NoteNumber":67,"Velocity":20,"Duration":191628,"SoundDuration":191628,"Delta":236182014},{"NoteNumber":85,"Velocity":45,"Duration":138722,"SoundDuration":138722,"Delta":236309766},{"NoteNumber":79,"Velocity":52,"Duration":131642,"SoundDuration":131642,"Delta":236437518},{"NoteNumber":63,"Velocity":30,"Duration":131642,"SoundDuration":131642,"Delta":236437518},{"NoteNumber":61,"Velocity":30,"Duration":131642,"SoundDuration":131642,"Delta":236437518},{"NoteNumber":67,"Velocity":30,"Duration":131642,"SoundDuration":131642,"Delta":236437518},{"NoteNumber":82,"Velocity":58,"Duration":268910,"SoundDuration":268910,"Delta":236700803},{"NoteNumber":56,"Velocity":34,"Duration":645369,"SoundDuration":645369,"Delta":236700803},{"NoteNumber":80,"Velocity":43,"Duration":138693,"SoundDuration":138693,"Delta":236959045},{"NoteNumber":63,"Velocity":23,"Duration":192036,"SoundDuration":192036,"Delta":236959045},{"NoteNumber":60,"Velocity":23,"Duration":192036,"SoundDuration":192036,"Delta":236959045},{"NoteNumber":68,"Velocity":23,"Duration":192036,"SoundDuration":192036,"Delta":236959045},{"NoteNumber":75,"Velocity":44,"Duration":138947,"SoundDuration":138947,"Delta":237087070},{"NoteNumber":72,"Velocity":38,"Duration":131078,"SoundDuration":131078,"Delta":237215094},{"NoteNumber":63,"Velocity":38,"Duration":131078,"SoundDuration":131078,"Delta":237215094},{"NoteNumber":60,"Velocity":38,"Duration":131078,"SoundDuration":131078,"Delta":237215094},{"NoteNumber":68,"Velocity":38,"Duration":131078,"SoundDuration":131078,"Delta":237215094},{"NoteNumber":75,"Velocity":48,"Duration":65821,"SoundDuration":65821,"Delta":237477252},{"NoteNumber":44,"Velocity":34,"Duration":263284,"SoundDuration":263284,"Delta":237477252},{"NoteNumber":75,"Velocity":44,"Duration":65821,"SoundDuration":65821,"Delta":237608895},{"NoteNumber":75,"Velocity":65,"Duration":65821,"SoundDuration":65821,"Delta":237740537},{"NoteNumber":60,"Velocity":31,"Duration":197463,"SoundDuration":197463,"Delta":237740537},{"NoteNumber":51,"Velocity":31,"Duration":197463,"SoundDuration":197463,"Delta":237740537},{"NoteNumber":56,"Velocity":31,"Duration":197463,"SoundDuration":197463,"Delta":237740537},{"NoteNumber":75,"Velocity":69,"Duration":65821,"SoundDuration":65821,"Delta":237872180},{"NoteNumber":75,"Velocity":63,"Duration":65821,"SoundDuration":65821,"Delta":238003822},{"NoteNumber":56,"Velocity":49,"Duration":200766,"SoundDuration":200766,"Delta":238003822},{"NoteNumber":51,"Velocity":49,"Duration":200766,"SoundDuration":200766,"Delta":238003822},{"NoteNumber":60,"Velocity":49,"Duration":200766,"SoundDuration":200766,"Delta":238003822},{"NoteNumber":75,"Velocity":71,"Duration":69124,"SoundDuration":69124,"Delta":238135465},{"NoteNumber":77,"Velocity":61,"Duration":133888,"SoundDuration":133888,"Delta":238273714},{"NoteNumber":44,"Velocity":47,"Duration":247177,"SoundDuration":247177,"Delta":238273714},{"NoteNumber":75,"Velocity":56,"Duration":133888,"SoundDuration":133888,"Delta":238397303},{"NoteNumber":72,"Velocity":50,"Duration":133888,"SoundDuration":133888,"Delta":238520892},{"NoteNumber":60,"Velocity":35,"Duration":185383,"SoundDuration":185383,"Delta":238520892},{"NoteNumber":51,"Velocity":35,"Duration":185383,"SoundDuration":185383,"Delta":238520892},{"NoteNumber":56,"Velocity":35,"Duration":185383,"SoundDuration":185383,"Delta":238520892},{"NoteNumber":68,"Velocity":50,"Duration":133888,"SoundDuration":133888,"Delta":238644481},{"NoteNumber":63,"Velocity":48,"Duration":123588,"SoundDuration":123588,"Delta":238768070},{"NoteNumber":51,"Velocity":52,"Duration":185383,"SoundDuration":185383,"Delta":238768070},{"NoteNumber":60,"Velocity":52,"Duration":185383,"SoundDuration":185383,"Delta":238768070},{"NoteNumber":56,"Velocity":52,"Duration":185383,"SoundDuration":185383,"Delta":238768070},{"NoteNumber":64,"Velocity":53,"Duration":123589,"SoundDuration":123589,"Delta":238891659},{"NoteNumber":65,"Velocity":57,"Duration":61667,"SoundDuration":61667,"Delta":239015248},{"NoteNumber":44,"Velocity":40,"Duration":246669,"SoundDuration":246669,"Delta":239015248},{"NoteNumber":65,"Velocity":51,"Duration":61667,"SoundDuration":61667,"Delta":239138583},{"NoteNumber":65,"Velocity":55,"Duration":61667,"SoundDuration":61667,"Delta":239261918},{"NoteNumber":56,"Velocity":35,"Duration":185002,"SoundDuration":185002,"Delta":239261918},{"NoteNumber":59,"Velocity":35,"Duration":185002,"SoundDuration":185002,"Delta":239261918},{"NoteNumber":50,"Velocity":35,"Duration":185002,"SoundDuration":185002,"Delta":239261918},{"NoteNumber":65,"Velocity":55,"Duration":61667,"SoundDuration":61667,"Delta":239385253},{"NoteNumber":65,"Velocity":61,"Duration":61667,"SoundDuration":61667,"Delta":239508588},{"NoteNumber":50,"Velocity":31,"Duration":185002,"SoundDuration":185002,"Delta":239508588},{"NoteNumber":59,"Velocity":31,"Duration":185002,"SoundDuration":185002,"Delta":239508588},{"NoteNumber":56,"Velocity":31,"Duration":185002,"SoundDuration":185002,"Delta":239508588},{"NoteNumber":65,"Velocity":65,"Duration":61667,"SoundDuration":61667,"Delta":239631923},{"NoteNumber":63,"Velocity":58,"Duration":133612,"SoundDuration":133612,"Delta":239755258},{"NoteNumber":44,"Velocity":38,"Duration":246669,"SoundDuration":246669,"Delta":239755258},{"NoteNumber":68,"Velocity":52,"Duration":133612,"SoundDuration":133612,"Delta":239878593},{"NoteNumber":72,"Velocity":49,"Duration":133612,"SoundDuration":133612,"Delta":240001928},{"NoteNumber":56,"Velocity":30,"Duration":185002,"SoundDuration":185002,"Delta":240001928},{"NoteNumber":60,"Velocity":30,"Duration":185002,"SoundDuration":185002,"Delta":240001928},{"NoteNumber":51,"Velocity":30,"Duration":185002,"SoundDuration":185002,"Delta":240001928},{"NoteNumber":75,"Velocity":45,"Duration":133612,"SoundDuration":133612,"Delta":240125263},{"NoteNumber":80,"Velocity":52,"Duration":133612,"SoundDuration":133612,"Delta":240248598},{"NoteNumber":56,"Velocity":36,"Duration":185002,"SoundDuration":185002,"Delta":240248598},{"NoteNumber":60,"Velocity":36,"Duration":185002,"SoundDuration":185002,"Delta":240248598},{"NoteNumber":51,"Velocity":36,"Duration":185002,"SoundDuration":185002,"Delta":240248598},{"NoteNumber":76,"Velocity":48,"Duration":123356,"SoundDuration":123356,"Delta":240371933},{"NoteNumber":77,"Velocity":58,"Duration":63342,"SoundDuration":63342,"Delta":240495289},{"NoteNumber":50,"Velocity":38,"Duration":253367,"SoundDuration":253367,"Delta":240495289},{"NoteNumber":77,"Velocity":49,"Duration":63341,"SoundDuration":63341,"Delta":240621973},{"NoteNumber":77,"Velocity":61,"Duration":63342,"SoundDuration":63342,"Delta":240748657},{"NoteNumber":59,"Velocity":33,"Duration":190026,"SoundDuration":190026,"Delta":240748657},{"NoteNumber":56,"Velocity":33,"Duration":190026,"SoundDuration":190026,"Delta":240748657},{"NoteNumber":65,"Velocity":33,"Duration":190026,"SoundDuration":190026,"Delta":240748657},{"NoteNumber":77,"Velocity":57,"Duration":63342,"SoundDuration":63342,"Delta":240875341},{"NoteNumber":77,"Velocity":65,"Duration":63342,"SoundDuration":63342,"Delta":241002025},{"NoteNumber":59,"Velocity":36,"Duration":190026,"SoundDuration":190026,"Delta":241002025},{"NoteNumber":65,"Velocity":36,"Duration":190026,"SoundDuration":190026,"Delta":241002025},{"NoteNumber":56,"Velocity":36,"Duration":190026,"SoundDuration":190026,"Delta":241002025},{"NoteNumber":77,"Velocity":65,"Duration":63342,"SoundDuration":63342,"Delta":241128709},{"NoteNumber":77,"Velocity":75,"Duration":99158,"SoundDuration":99158,"Delta":241255393},{"NoteNumber":51,"Velocity":44,"Duration":264421,"SoundDuration":264421,"Delta":241255393},{"NoteNumber":79,"Velocity":55,"Duration":99158,"SoundDuration":99158,"Delta":241343534},{"NoteNumber":77,"Velocity":55,"Duration":99087,"SoundDuration":99087,"Delta":241431674},{"NoteNumber":75,"Velocity":66,"Duration":142567,"SoundDuration":142567,"Delta":241519815},{"NoteNumber":60,"Velocity":29,"Duration":197608,"SoundDuration":197608,"Delta":241519815},{"NoteNumber":68,"Velocity":29,"Duration":197608,"SoundDuration":197608,"Delta":241519815},{"NoteNumber":63,"Velocity":29,"Duration":197608,"SoundDuration":197608,"Delta":241519815},{"NoteNumber":80,"Velocity":64,"Duration":143307,"SoundDuration":143307,"Delta":241651388},{"NoteNumber":84,"Velocity":60,"Duration":133019,"SoundDuration":133019,"Delta":241783629},{"NoteNumber":63,"Velocity":44,"Duration":133019,"SoundDuration":133019,"Delta":241783629},{"NoteNumber":68,"Velocity":44,"Duration":133019,"SoundDuration":133019,"Delta":241783629},{"NoteNumber":60,"Velocity":44,"Duration":133019,"SoundDuration":133019,"Delta":241783629},{"NoteNumber":89,"Velocity":67,"Duration":268888,"SoundDuration":268888,"Delta":242050353},{"NoteNumber":51,"Velocity":27,"Duration":258241,"SoundDuration":258241,"Delta":242050353},{"NoteNumber":87,"Velocity":52,"Duration":138397,"SoundDuration":138397,"Delta":242308595},{"NoteNumber":61,"Velocity":32,"Duration":255504,"SoundDuration":255504,"Delta":242308595},{"NoteNumber":67,"Velocity":32,"Duration":255504,"SoundDuration":255504,"Delta":242308595},{"NoteNumber":63,"Velocity":32,"Duration":255504,"SoundDuration":255504,"Delta":242308595},{"NoteNumber":85,"Velocity":50,"Duration":138722,"SoundDuration":138722,"Delta":242436347},{"NoteNumber":79,"Velocity":52,"Duration":131642,"SoundDuration":131642,"Delta":242564099},{"NoteNumber":61,"Velocity":37,"Duration":131642,"SoundDuration":131642,"Delta":242564099},{"NoteNumber":67,"Velocity":37,"Duration":131642,"SoundDuration":131642,"Delta":242564099},{"NoteNumber":63,"Velocity":37,"Duration":131642,"SoundDuration":131642,"Delta":242564099},{"NoteNumber":80,"Velocity":65,"Duration":526569,"SoundDuration":526569,"Delta":242827384},{"NoteNumber":56,"Velocity":44,"Duration":800579,"SoundDuration":800579,"Delta":242827384},{"NoteNumber":68,"Velocity":35,"Duration":263284,"SoundDuration":263284,"Delta":243090669},{"NoteNumber":60,"Velocity":35,"Duration":263284,"SoundDuration":263284,"Delta":243090669},{"NoteNumber":72,"Velocity":55,"Duration":45668,"SoundDuration":45668,"Delta":243353954},{"NoteNumber":68,"Velocity":47,"Duration":274010,"SoundDuration":274010,"Delta":243353954},{"NoteNumber":65,"Velocity":47,"Duration":274010,"SoundDuration":274010,"Delta":243353954},{"NoteNumber":74,"Velocity":49,"Duration":45668,"SoundDuration":45668,"Delta":243399623},{"NoteNumber":72,"Velocity":65,"Duration":45668,"SoundDuration":45668,"Delta":243445291},{"NoteNumber":74,"Velocity":53,"Duration":45668,"SoundDuration":45668,"Delta":243490959},{"NoteNumber":72,"Velocity":67,"Duration":45668,"SoundDuration":45668,"Delta":243536628},{"NoteNumber":71,"Velocity":56,"Duration":45668,"SoundDuration":45668,"Delta":243582296},{"NoteNumber":70,"Velocity":87,"Duration":141748,"SoundDuration":141748,"Delta":243627964},{"NoteNumber":58,"Velocity":86,"Duration":272157,"SoundDuration":272157,"Delta":243627964},{"NoteNumber":46,"Velocity":86,"Duration":272157,"SoundDuration":272157,"Delta":243627964},{"NoteNumber":74,"Velocity":62,"Duration":142612,"SoundDuration":142612,"Delta":243900122},{"NoteNumber":65,"Velocity":55,"Duration":197463,"SoundDuration":197463,"Delta":243900122},{"NoteNumber":68,"Velocity":55,"Duration":197463,"SoundDuration":197463,"Delta":243900122},{"NoteNumber":58,"Velocity":55,"Duration":197463,"SoundDuration":197463,"Delta":243900122},{"NoteNumber":75,"Velocity":62,"Duration":142612,"SoundDuration":142612,"Delta":244031765},{"NoteNumber":77,"Velocity":67,"Duration":199531,"SoundDuration":199531,"Delta":244163407},{"NoteNumber":74,"Velocity":67,"Duration":199531,"SoundDuration":199531,"Delta":244163407},{"NoteNumber":68,"Velocity":65,"Duration":199531,"SoundDuration":199531,"Delta":244163407},{"NoteNumber":58,"Velocity":65,"Duration":199531,"SoundDuration":199531,"Delta":244163407},{"NoteNumber":65,"Velocity":65,"Duration":199531,"SoundDuration":199531,"Delta":244163407},{"NoteNumber":70,"Velocity":85,"Duration":131932,"SoundDuration":131932,"Delta":244430827},{"NoteNumber":51,"Velocity":74,"Duration":263864,"SoundDuration":263864,"Delta":244430827},{"NoteNumber":75,"Velocity":73,"Duration":140473,"SoundDuration":140473,"Delta":244694691},{"NoteNumber":63,"Velocity":57,"Duration":194501,"SoundDuration":194501,"Delta":244694691},{"NoteNumber":67,"Velocity":57,"Duration":194501,"SoundDuration":194501,"Delta":244694691},{"NoteNumber":58,"Velocity":57,"Duration":194501,"SoundDuration":194501,"Delta":244694691},{"NoteNumber":77,"Velocity":69,"Duration":140473,"SoundDuration":140473,"Delta":244824359},{"NoteNumber":75,"Velocity":76,"Duration":194501,"SoundDuration":194501,"Delta":244954027},{"NoteNumber":79,"Velocity":76,"Duration":194501,"SoundDuration":194501,"Delta":244954027},{"NoteNumber":63,"Velocity":62,"Duration":194501,"SoundDuration":194501,"Delta":244954027},{"NoteNumber":67,"Velocity":62,"Duration":194501,"SoundDuration":194501,"Delta":244954027},{"NoteNumber":58,"Velocity":62,"Duration":194501,"SoundDuration":194501,"Delta":244954027},{"NoteNumber":70,"Velocity":87,"Duration":127751,"SoundDuration":127751,"Delta":245213363},{"NoteNumber":50,"Velocity":65,"Duration":255504,"SoundDuration":255504,"Delta":245213363},{"NoteNumber":77,"Velocity":73,"Duration":135824,"SoundDuration":135824,"Delta":245468867},{"NoteNumber":65,"Velocity":56,"Duration":188063,"SoundDuration":188063,"Delta":245468867},{"NoteNumber":58,"Velocity":56,"Duration":188063,"SoundDuration":188063,"Delta":245468867},{"NoteNumber":68,"Velocity":56,"Duration":188063,"SoundDuration":188063,"Delta":245468867},{"NoteNumber":79,"Velocity":68,"Duration":136228,"SoundDuration":136228,"Delta":245594243},{"NoteNumber":77,"Velocity":83,"Duration":195338,"SoundDuration":195338,"Delta":245719619},{"NoteNumber":80,"Velocity":83,"Duration":195338,"SoundDuration":195338,"Delta":245719619},{"NoteNumber":65,"Velocity":69,"Duration":195338,"SoundDuration":195338,"Delta":245719619},{"NoteNumber":68,"Velocity":69,"Duration":195338,"SoundDuration":195338,"Delta":245719619},{"NoteNumber":58,"Velocity":69,"Duration":195338,"SoundDuration":195338,"Delta":245719619},{"NoteNumber":73,"Velocity":77,"Duration":506735,"SoundDuration":506735,"Delta":245980070},{"NoteNumber":79,"Velocity":77,"Duration":506735,"SoundDuration":506735,"Delta":245980070},{"NoteNumber":82,"Velocity":77,"Duration":506735,"SoundDuration":506735,"Delta":245980070},{"NoteNumber":51,"Velocity":61,"Duration":126684,"SoundDuration":126684,"Delta":245980070},{"NoteNumber":67,"Velocity":61,"Duration":126684,"SoundDuration":126684,"Delta":246233438},{"NoteNumber":58,"Velocity":61,"Duration":126684,"SoundDuration":126684,"Delta":246233438},{"NoteNumber":61,"Velocity":61,"Duration":126684,"SoundDuration":126684,"Delta":246233438},{"NoteNumber":79,"Velocity":75,"Duration":134873,"SoundDuration":134873,"Delta":246486806},{"NoteNumber":73,"Velocity":75,"Duration":134873,"SoundDuration":134873,"Delta":246486806},{"NoteNumber":82,"Velocity":75,"Duration":134873,"SoundDuration":134873,"Delta":246486806},{"NoteNumber":52,"Velocity":38,"Duration":269747,"SoundDuration":269747,"Delta":246486806},{"NoteNumber":79,"Velocity":69,"Duration":134873,"SoundDuration":134873,"Delta":246621680},{"NoteNumber":73,"Velocity":69,"Duration":134873,"SoundDuration":134873,"Delta":246621680},{"NoteNumber":82,"Velocity":69,"Duration":134873,"SoundDuration":134873,"Delta":246621680},{"NoteNumber":73,"Velocity":70,"Duration":511895,"SoundDuration":511895,"Delta":246756554},{"NoteNumber":82,"Velocity":70,"Duration":271052,"SoundDuration":271052,"Delta":246756554},{"NoteNumber":79,"Velocity":70,"Duration":511895,"SoundDuration":511895,"Delta":246756554},{"NoteNumber":53,"Velocity":38,"Duration":130225,"SoundDuration":130225,"Delta":246756554},{"NoteNumber":84,"Velocity":59,"Duration":137572,"SoundDuration":137572,"Delta":247017005},{"NoteNumber":65,"Velocity":41,"Duration":127220,"SoundDuration":127220,"Delta":247017005},{"NoteNumber":56,"Velocity":41,"Duration":127220,"SoundDuration":127220,"Delta":247017005},{"NoteNumber":82,"Velocity":56,"Duration":135217,"SoundDuration":135217,"Delta":247144226},{"NoteNumber":72,"Velocity":53,"Duration":131932,"SoundDuration":131932,"Delta":247268450},{"NoteNumber":80,"Velocity":53,"Duration":131932,"SoundDuration":131932,"Delta":247268450},{"NoteNumber":44,"Velocity":36,"Duration":131932,"SoundDuration":131932,"Delta":247268450},{"NoteNumber":71,"Velocity":69,"Duration":506986,"SoundDuration":506986,"Delta":247532314},{"NoteNumber":80,"Velocity":69,"Duration":267132,"SoundDuration":267132,"Delta":247532314},{"NoteNumber":46,"Velocity":31,"Duration":128298,"SoundDuration":128298,"Delta":247532314},{"NoteNumber":82,"Velocity":47,"Duration":136753,"SoundDuration":136753,"Delta":247788911},{"NoteNumber":55,"Velocity":27,"Duration":188405,"SoundDuration":188405,"Delta":247788911},{"NoteNumber":63,"Velocity":27,"Duration":188405,"SoundDuration":188405,"Delta":247788911},{"NoteNumber":80,"Velocity":45,"Duration":134937,"SoundDuration":134937,"Delta":247915333},{"NoteNumber":79,"Velocity":52,"Duration":131642,"SoundDuration":131642,"Delta":248039300},{"NoteNumber":70,"Velocity":52,"Duration":131642,"SoundDuration":131642,"Delta":248039300},{"NoteNumber":55,"Velocity":41,"Duration":131642,"SoundDuration":131642,"Delta":248039300},{"NoteNumber":63,"Velocity":41,"Duration":131642,"SoundDuration":131642,"Delta":248039300},{"NoteNumber":79,"Velocity":66,"Duration":266540,"SoundDuration":266540,"Delta":248302585},{"NoteNumber":70,"Velocity":66,"Duration":505657,"SoundDuration":505657,"Delta":248302585},{"NoteNumber":46,"Velocity":39,"Duration":128024,"SoundDuration":128024,"Delta":248302585},{"NoteNumber":80,"Velocity":53,"Duration":136206,"SoundDuration":136206,"Delta":248558634},{"NoteNumber":53,"Velocity":26,"Duration":249608,"SoundDuration":249608,"Delta":248558634},{"NoteNumber":62,"Velocity":26,"Duration":249608,"SoundDuration":249608,"Delta":248558634},{"NoteNumber":79,"Velocity":47,"Duration":135026,"SoundDuration":135026,"Delta":248684531},{"NoteNumber":77,"Velocity":67,"Duration":135777,"SoundDuration":135777,"Delta":248808243},{"NoteNumber":68,"Velocity":67,"Duration":135777,"SoundDuration":135777,"Delta":248808243},{"NoteNumber":58,"Velocity":34,"Duration":135777,"SoundDuration":135777,"Delta":248808243},{"NoteNumber":62,"Velocity":34,"Duration":135777,"SoundDuration":135777,"Delta":248808243},{"NoteNumber":77,"Velocity":64,"Duration":271188,"SoundDuration":271188,"Delta":249079798},{"NoteNumber":68,"Velocity":64,"Duration":518149,"SoundDuration":518149,"Delta":249079798},{"NoteNumber":51,"Velocity":23,"Duration":786689,"SoundDuration":786689,"Delta":249079798},{"NoteNumber":79,"Velocity":52,"Duration":139586,"SoundDuration":139586,"Delta":249340249},{"NoteNumber":58,"Velocity":33,"Duration":257699,"SoundDuration":257699,"Delta":249340249},{"NoteNumber":63,"Velocity":33,"Duration":257699,"SoundDuration":257699,"Delta":249340249},{"NoteNumber":77,"Velocity":48,"Duration":140038,"SoundDuration":140038,"Delta":249469098},{"NoteNumber":75,"Velocity":53,"Duration":134269,"SoundDuration":134269,"Delta":249597948},{"NoteNumber":67,"Velocity":53,"Duration":134269,"SoundDuration":134269,"Delta":249597948},{"NoteNumber":58,"Velocity":53,"Duration":134269,"SoundDuration":134269,"Delta":249597948},{"NoteNumber":63,"Velocity":53,"Duration":134269,"SoundDuration":134269,"Delta":249597948},{"NoteNumber":70,"Velocity":97,"Duration":136078,"SoundDuration":136078,"Delta":249866488},{"NoteNumber":82,"Velocity":97,"Duration":136078,"SoundDuration":136078,"Delta":249866488},{"NoteNumber":34,"Velocity":91,"Duration":272157,"SoundDuration":272157,"Delta":249866488},{"NoteNumber":46,"Velocity":91,"Duration":272157,"SoundDuration":272157,"Delta":249866488},{"NoteNumber":74,"Velocity":57,"Duration":140194,"SoundDuration":140194,"Delta":250138646},{"NoteNumber":65,"Velocity":54,"Duration":192825,"SoundDuration":192825,"Delta":250138646},{"NoteNumber":68,"Velocity":54,"Duration":192825,"SoundDuration":192825,"Delta":250138646},{"NoteNumber":58,"Velocity":54,"Duration":192825,"SoundDuration":192825,"Delta":250138646},{"NoteNumber":75,"Velocity":53,"Duration":137115,"SoundDuration":137115,"Delta":250268314},{"NoteNumber":74,"Velocity":63,"Duration":197478,"SoundDuration":197478,"Delta":250394630},{"NoteNumber":77,"Velocity":63,"Duration":197478,"SoundDuration":197478,"Delta":250394630},{"NoteNumber":68,"Velocity":58,"Duration":197478,"SoundDuration":197478,"Delta":250394630},{"NoteNumber":58,"Velocity":58,"Duration":197478,"SoundDuration":197478,"Delta":250394630},{"NoteNumber":65,"Velocity":58,"Duration":197478,"SoundDuration":197478,"Delta":250394630},{"NoteNumber":82,"Velocity":97,"Duration":131932,"SoundDuration":131932,"Delta":250659997},{"NoteNumber":70,"Velocity":97,"Duration":131932,"SoundDuration":131932,"Delta":250659997},{"NoteNumber":51,"Velocity":92,"Duration":263258,"SoundDuration":263258,"Delta":250659997},{"NoteNumber":39,"Velocity":92,"Duration":263258,"SoundDuration":263258,"Delta":250659997},{"NoteNumber":75,"Velocity":60,"Duration":137266,"SoundDuration":137266,"Delta":250923255},{"NoteNumber":63,"Velocity":58,"Duration":188813,"SoundDuration":188813,"Delta":250923255},{"NoteNumber":67,"Velocity":58,"Duration":188813,"SoundDuration":188813,"Delta":250923255},{"NoteNumber":58,"Velocity":58,"Duration":188813,"SoundDuration":188813,"Delta":250923255},{"NoteNumber":77,"Velocity":57,"Duration":134282,"SoundDuration":134282,"Delta":251050213},{"NoteNumber":79,"Velocity":68,"Duration":190275,"SoundDuration":190275,"Delta":251173924},{"NoteNumber":75,"Velocity":68,"Duration":190275,"SoundDuration":190275,"Delta":251173924},{"NoteNumber":67,"Velocity":64,"Duration":190275,"SoundDuration":190275,"Delta":251173924},{"NoteNumber":63,"Velocity":64,"Duration":190275,"SoundDuration":190275,"Delta":251173924},{"NoteNumber":58,"Velocity":64,"Duration":190275,"SoundDuration":190275,"Delta":251173924},{"NoteNumber":70,"Velocity":96,"Duration":135134,"SoundDuration":135134,"Delta":251427624},{"NoteNumber":82,"Velocity":96,"Duration":135134,"SoundDuration":135134,"Delta":251427624},{"NoteNumber":58,"Velocity":91,"Duration":270270,"SoundDuration":270270,"Delta":251427624},{"NoteNumber":46,"Velocity":91,"Duration":270270,"SoundDuration":270270,"Delta":251427624},{"NoteNumber":77,"Velocity":72,"Duration":154772,"SoundDuration":154772,"Delta":251697894},{"NoteNumber":68,"Velocity":66,"Duration":216047,"SoundDuration":216047,"Delta":251697894},{"NoteNumber":58,"Velocity":66,"Duration":216047,"SoundDuration":216047,"Delta":251697894},{"NoteNumber":65,"Velocity":66,"Duration":216047,"SoundDuration":216047,"Delta":251697894},{"NoteNumber":79,"Velocity":70,"Duration":160572,"SoundDuration":160572,"Delta":251840412},{"NoteNumber":80,"Velocity":80,"Duration":243243,"SoundDuration":243243,"Delta":251987471},{"NoteNumber":77,"Velocity":80,"Duration":243243,"SoundDuration":243243,"Delta":251987471},{"NoteNumber":68,"Velocity":72,"Duration":243243,"SoundDuration":243243,"Delta":251987471},{"NoteNumber":65,"Velocity":72,"Duration":243243,"SoundDuration":243243,"Delta":251987471},{"NoteNumber":58,"Velocity":72,"Duration":243243,"SoundDuration":243243,"Delta":251987471},{"NoteNumber":73,"Velocity":99,"Duration":253367,"SoundDuration":253367,"Delta":252311795},{"NoteNumber":79,"Velocity":99,"Duration":253367,"SoundDuration":253367,"Delta":252311795},{"NoteNumber":82,"Velocity":99,"Duration":253367,"SoundDuration":253367,"Delta":252311795},{"NoteNumber":67,"Velocity":90,"Duration":253367,"SoundDuration":253367,"Delta":252311795},{"NoteNumber":51,"Velocity":90,"Duration":253367,"SoundDuration":253367,"Delta":252311795},{"NoteNumber":61,"Velocity":90,"Duration":253367,"SoundDuration":253367,"Delta":252311795},{"NoteNumber":58,"Velocity":90,"Duration":253367,"SoundDuration":253367,"Delta":252311795},{"NoteNumber":73,"Velocity":49,"Duration":159999,"SoundDuration":159999,"Delta":254395469},{"NoteNumber":79,"Velocity":49,"Duration":159999,"SoundDuration":159999,"Delta":254395469},{"NoteNumber":82,"Velocity":49,"Duration":159999,"SoundDuration":159999,"Delta":254395469},{"NoteNumber":52,"Velocity":40,"Duration":319999,"SoundDuration":319999,"Delta":254395469},{"NoteNumber":82,"Velocity":49,"Duration":159999,"SoundDuration":159999,"Delta":254555469},{"NoteNumber":73,"Velocity":49,"Duration":159999,"SoundDuration":159999,"Delta":254555469},{"NoteNumber":79,"Velocity":49,"Duration":159999,"SoundDuration":159999,"Delta":254555469},{"NoteNumber":79,"Velocity":55,"Duration":599520,"SoundDuration":599520,"Delta":254715469},{"NoteNumber":73,"Velocity":55,"Duration":599520,"SoundDuration":599520,"Delta":254715469},{"NoteNumber":82,"Velocity":55,"Duration":318346,"SoundDuration":318346,"Delta":254715469},{"NoteNumber":53,"Velocity":48,"Duration":153061,"SoundDuration":153061,"Delta":254715469},{"NoteNumber":84,"Velocity":53,"Duration":158924,"SoundDuration":158924,"Delta":255021591},{"NoteNumber":65,"Velocity":44,"Duration":146699,"SoundDuration":146699,"Delta":255021591},{"NoteNumber":56,"Velocity":44,"Duration":146699,"SoundDuration":146699,"Delta":255021591},{"NoteNumber":82,"Velocity":52,"Duration":159357,"SoundDuration":159357,"Delta":255168291},{"NoteNumber":80,"Velocity":48,"Duration":151898,"SoundDuration":151898,"Delta":255314990},{"NoteNumber":72,"Velocity":48,"Duration":151898,"SoundDuration":151898,"Delta":255314990},{"NoteNumber":44,"Velocity":44,"Duration":151898,"SoundDuration":151898,"Delta":255314990},{"NoteNumber":71,"Velocity":54,"Duration":584800,"SoundDuration":584800,"Delta":255618787},{"NoteNumber":80,"Velocity":54,"Duration":309020,"SoundDuration":309020,"Delta":255618787},{"NoteNumber":46,"Velocity":39,"Duration":148515,"SoundDuration":148515,"Delta":255618787},{"NoteNumber":82,"Velocity":51,"Duration":155875,"SoundDuration":155875,"Delta":255915817},{"NoteNumber":63,"Velocity":36,"Duration":287769,"SoundDuration":287769,"Delta":255915817},{"NoteNumber":55,"Velocity":36,"Duration":287769,"SoundDuration":287769,"Delta":255915817},{"NoteNumber":80,"Velocity":48,"Duration":156511,"SoundDuration":156511,"Delta":256059702},{"NoteNumber":79,"Velocity":45,"Duration":151515,"SoundDuration":151515,"Delta":256203587},{"NoteNumber":70,"Velocity":45,"Duration":151515,"SoundDuration":151515,"Delta":256203587},{"NoteNumber":63,"Velocity":36,"Duration":303029,"SoundDuration":303029,"Delta":256203587},{"NoteNumber":55,"Velocity":36,"Duration":303029,"SoundDuration":303029,"Delta":256203587},{"NoteNumber":70,"Velocity":44,"Duration":663130,"SoundDuration":663130,"Delta":256506617},{"NoteNumber":79,"Velocity":44,"Duration":332669,"SoundDuration":332669,"Delta":256506617},{"NoteNumber":46,"Velocity":35,"Duration":159151,"SoundDuration":159151,"Delta":256506617},{"NoteNumber":80,"Velocity":41,"Duration":186781,"SoundDuration":186781,"Delta":256824919},{"NoteNumber":62,"Velocity":32,"Duration":344828,"SoundDuration":344828,"Delta":256824919},{"NoteNumber":58,"Velocity":32,"Duration":344828,"SoundDuration":344828,"Delta":256824919},{"NoteNumber":53,"Velocity":32,"Duration":344828,"SoundDuration":344828,"Delta":256824919},{"NoteNumber":79,"Velocity":38,"Duration":183728,"SoundDuration":183728,"Delta":256997333},{"NoteNumber":68,"Velocity":35,"Duration":135777,"SoundDuration":135777,"Delta":257169747},{"NoteNumber":77,"Velocity":35,"Duration":135777,"SoundDuration":135777,"Delta":257169747},{"NoteNumber":53,"Velocity":32,"Duration":271554,"SoundDuration":271554,"Delta":257169747},{"NoteNumber":62,"Velocity":30,"Duration":271554,"SoundDuration":271554,"Delta":257169747},{"NoteNumber":58,"Velocity":30,"Duration":271554,"SoundDuration":271554,"Delta":257169747},{"NoteNumber":39,"Velocity":33,"Duration":271554,"SoundDuration":271554,"Delta":258255967},{"NoteNumber":46,"Velocity":29,"Duration":271554,"SoundDuration":271554,"Delta":258527522},{"NoteNumber":55,"Velocity":29,"Duration":271554,"SoundDuration":271554,"Delta":258527522},{"NoteNumber":46,"Velocity":31,"Duration":271555,"SoundDuration":271555,"Delta":258799077},{"NoteNumber":55,"Velocity":31,"Duration":271555,"SoundDuration":271555,"Delta":258799077},{"NoteNumber":39,"Velocity":32,"Duration":271554,"SoundDuration":271554,"Delta":259070632},{"NoteNumber":55,"Velocity":29,"Duration":271554,"SoundDuration":271554,"Delta":259342187},{"NoteNumber":46,"Velocity":29,"Duration":271554,"SoundDuration":271554,"Delta":259342187},{"NoteNumber":46,"Velocity":31,"Duration":271555,"SoundDuration":271555,"Delta":259613742},{"NoteNumber":55,"Velocity":31,"Duration":271555,"SoundDuration":271555,"Delta":259613742},{"NoteNumber":39,"Velocity":34,"Duration":271554,"SoundDuration":271554,"Delta":259885297},{"NoteNumber":46,"Velocity":29,"Duration":271555,"SoundDuration":271555,"Delta":260156852},{"NoteNumber":55,"Velocity":29,"Duration":271555,"SoundDuration":271555,"Delta":260156852},{"NoteNumber":55,"Velocity":32,"Duration":271554,"SoundDuration":271554,"Delta":260428407},{"NoteNumber":46,"Velocity":32,"Duration":271554,"SoundDuration":271554,"Delta":260428407},{"NoteNumber":39,"Velocity":33,"Duration":271554,"SoundDuration":271554,"Delta":260699962},{"NoteNumber":55,"Velocity":30,"Duration":271555,"SoundDuration":271555,"Delta":260971517},{"NoteNumber":46,"Velocity":30,"Duration":271555,"SoundDuration":271555,"Delta":260971517},{"NoteNumber":46,"Velocity":32,"Duration":271554,"SoundDuration":271554,"Delta":261243072},{"NoteNumber":55,"Velocity":32,"Duration":271554,"SoundDuration":271554,"Delta":261243072},{"NoteNumber":63,"Velocity":40,"Duration":67888,"SoundDuration":67888,"Delta":261514627},{"NoteNumber":39,"Velocity":33,"Duration":271555,"SoundDuration":271555,"Delta":261514627},{"NoteNumber":63,"Velocity":38,"Duration":67888,"SoundDuration":67888,"Delta":261650405},{"NoteNumber":63,"Velocity":40,"Duration":67888,"SoundDuration":67888,"Delta":261786182},{"NoteNumber":55,"Velocity":29,"Duration":271554,"SoundDuration":271554,"Delta":261786182},{"NoteNumber":46,"Velocity":29,"Duration":271554,"SoundDuration":271554,"Delta":261786182},{"NoteNumber":63,"Velocity":37,"Duration":67888,"SoundDuration":67888,"Delta":261921960},{"NoteNumber":63,"Velocity":49,"Duration":271554,"SoundDuration":271554,"Delta":262057737},{"NoteNumber":46,"Velocity":31,"Duration":271554,"SoundDuration":271554,"Delta":262057737},{"NoteNumber":55,"Velocity":31,"Duration":271554,"SoundDuration":271554,"Delta":262057737},{"NoteNumber":55,"Velocity":39,"Duration":126315,"SoundDuration":126315,"Delta":262329292},{"NoteNumber":39,"Velocity":33,"Duration":252632,"SoundDuration":252632,"Delta":262329292},{"NoteNumber":58,"Velocity":39,"Duration":126316,"SoundDuration":126316,"Delta":262455608},{"NoteNumber":63,"Velocity":46,"Duration":126315,"SoundDuration":126315,"Delta":262581924},{"NoteNumber":46,"Velocity":30,"Duration":189474,"SoundDuration":189474,"Delta":262581924},{"NoteNumber":55,"Velocity":30,"Duration":189474,"SoundDuration":189474,"Delta":262581924},{"NoteNumber":67,"Velocity":45,"Duration":126316,"SoundDuration":126316,"Delta":262708240},{"NoteNumber":72,"Velocity":55,"Duration":221052,"SoundDuration":221052,"Delta":262834556},{"NoteNumber":55,"Velocity":30,"Duration":189473,"SoundDuration":189473,"Delta":262834556},{"NoteNumber":46,"Velocity":30,"Duration":189473,"SoundDuration":189473,"Delta":262834556},{"NoteNumber":72,"Velocity":44,"Duration":31579,"SoundDuration":31579,"Delta":263055609},{"NoteNumber":71,"Velocity":51,"Duration":121951,"SoundDuration":121951,"Delta":263087188},{"NoteNumber":39,"Velocity":36,"Duration":244088,"SoundDuration":244088,"Delta":263087188},{"NoteNumber":71,"Velocity":39,"Duration":30549,"SoundDuration":30549,"Delta":263300727},{"NoteNumber":70,"Velocity":48,"Duration":122345,"SoundDuration":122345,"Delta":263331277},{"NoteNumber":61,"Velocity":33,"Duration":183569,"SoundDuration":183569,"Delta":263331277},{"NoteNumber":55,"Velocity":33,"Duration":183569,"SoundDuration":183569,"Delta":263331277},{"NoteNumber":51,"Velocity":33,"Duration":183569,"SoundDuration":183569,"Delta":263331277},{"NoteNumber":70,"Velocity":39,"Duration":30674,"SoundDuration":30674,"Delta":263545479},{"NoteNumber":69,"Velocity":46,"Duration":122741,"SoundDuration":122741,"Delta":263576154},{"NoteNumber":61,"Velocity":30,"Duration":184216,"SoundDuration":184216,"Delta":263576154},{"NoteNumber":55,"Velocity":30,"Duration":184216,"SoundDuration":184216,"Delta":263576154},{"NoteNumber":51,"Velocity":30,"Duration":184216,"SoundDuration":184216,"Delta":263576154},{"NoteNumber":69,"Velocity":35,"Duration":30737,"SoundDuration":30737,"Delta":263791109},{"NoteNumber":68,"Velocity":44,"Duration":123203,"SoundDuration":123203,"Delta":263821846},{"NoteNumber":51,"Velocity":33,"Duration":184868,"SoundDuration":184868,"Delta":263821846},{"NoteNumber":55,"Velocity":33,"Duration":184868,"SoundDuration":184868,"Delta":263821846},{"NoteNumber":61,"Velocity":33,"Duration":184868,"SoundDuration":184868,"Delta":263821846},{"NoteNumber":68,"Velocity":33,"Duration":30864,"SoundDuration":30864,"Delta":264037579},{"NoteNumber":67,"Velocity":41,"Duration":123605,"SoundDuration":123605,"Delta":264068444},{"NoteNumber":61,"Velocity":29,"Duration":185461,"SoundDuration":185461,"Delta":264068444},{"NoteNumber":55,"Velocity":29,"Duration":185461,"SoundDuration":185461,"Delta":264068444},{"NoteNumber":51,"Velocity":29,"Duration":185461,"SoundDuration":185461,"Delta":264068444},{"NoteNumber":67,"Velocity":32,"Duration":30991,"SoundDuration":30991,"Delta":264284854},{"NoteNumber":65,"Velocity":39,"Duration":124009,"SoundDuration":124009,"Delta":264315846},{"NoteNumber":51,"Velocity":29,"Duration":186121,"SoundDuration":186121,"Delta":264315846},{"NoteNumber":55,"Velocity":29,"Duration":186121,"SoundDuration":186121,"Delta":264315846},{"NoteNumber":61,"Velocity":29,"Duration":186121,"SoundDuration":186121,"Delta":264315846},{"NoteNumber":63,"Velocity":44,"Duration":62240,"SoundDuration":62240,"Delta":264564079},{"NoteNumber":39,"Velocity":36,"Duration":248963,"SoundDuration":248963,"Delta":264564079},{"NoteNumber":63,"Velocity":41,"Duration":62240,"SoundDuration":62240,"Delta":264688560},{"NoteNumber":63,"Velocity":44,"Duration":62240,"SoundDuration":62240,"Delta":264813042},{"NoteNumber":56,"Velocity":31,"Duration":186722,"SoundDuration":186722,"Delta":264813042},{"NoteNumber":60,"Velocity":31,"Duration":186722,"SoundDuration":186722,"Delta":264813042},{"NoteNumber":51,"Velocity":31,"Duration":186722,"SoundDuration":186722,"Delta":264813042},{"NoteNumber":63,"Velocity":41,"Duration":62240,"SoundDuration":62240,"Delta":264937523},{"NoteNumber":63,"Velocity":53,"Duration":248963,"SoundDuration":248963,"Delta":265062005},{"NoteNumber":60,"Velocity":31,"Duration":186722,"SoundDuration":186722,"Delta":265062005},{"NoteNumber":51,"Velocity":31,"Duration":186722,"SoundDuration":186722,"Delta":265062005},{"NoteNumber":56,"Velocity":31,"Duration":186722,"SoundDuration":186722,"Delta":265062005},{"NoteNumber":60,"Velocity":42,"Duration":123456,"SoundDuration":123456,"Delta":265310968},{"NoteNumber":39,"Velocity":36,"Duration":246914,"SoundDuration":246914,"Delta":265310968},{"NoteNumber":63,"Velocity":42,"Duration":123457,"SoundDuration":123457,"Delta":265434425},{"NoteNumber":68,"Velocity":50,"Duration":123456,"SoundDuration":123456,"Delta":265557882},{"NoteNumber":60,"Velocity":33,"Duration":185185,"SoundDuration":185185,"Delta":265557882},{"NoteNumber":51,"Velocity":33,"Duration":185185,"SoundDuration":185185,"Delta":265557882},{"NoteNumber":56,"Velocity":33,"Duration":185185,"SoundDuration":185185,"Delta":265557882},{"NoteNumber":72,"Velocity":49,"Duration":123457,"SoundDuration":123457,"Delta":265681339},{"NoteNumber":77,"Velocity":59,"Duration":216049,"SoundDuration":216049,"Delta":265804796},{"NoteNumber":60,"Velocity":33,"Duration":185185,"SoundDuration":185185,"Delta":265804796},{"NoteNumber":56,"Velocity":33,"Duration":185185,"SoundDuration":185185,"Delta":265804796},{"NoteNumber":51,"Velocity":33,"Duration":185185,"SoundDuration":185185,"Delta":265804796},{"NoteNumber":79,"Velocity":48,"Duration":30864,"SoundDuration":30864,"Delta":266020846},{"NoteNumber":77,"Velocity":56,"Duration":120240,"SoundDuration":120240,"Delta":266051710},{"NoteNumber":39,"Velocity":39,"Duration":240642,"SoundDuration":240642,"Delta":266051710},{"NoteNumber":77,"Velocity":42,"Duration":30120,"SoundDuration":30120,"Delta":266262231},{"NoteNumber":76,"Velocity":52,"Duration":120562,"SoundDuration":120562,"Delta":266292352},{"NoteNumber":60,"Velocity":36,"Duration":180925,"SoundDuration":180925,"Delta":266292352},{"NoteNumber":56,"Velocity":36,"Duration":180925,"SoundDuration":180925,"Delta":266292352},{"NoteNumber":51,"Velocity":36,"Duration":180925,"SoundDuration":180925,"Delta":266292352},{"NoteNumber":76,"Velocity":42,"Duration":30181,"SoundDuration":30181,"Delta":266503458},{"NoteNumber":75,"Velocity":50,"Duration":120967,"SoundDuration":120967,"Delta":266533639},{"NoteNumber":60,"Velocity":33,"Duration":181491,"SoundDuration":181491,"Delta":266533639},{"NoteNumber":56,"Velocity":33,"Duration":181491,"SoundDuration":181491,"Delta":266533639},{"NoteNumber":51,"Velocity":33,"Duration":181491,"SoundDuration":181491,"Delta":266533639},{"NoteNumber":75,"Velocity":38,"Duration":30303,"SoundDuration":30303,"Delta":266745434},{"NoteNumber":74,"Velocity":48,"Duration":121314,"SoundDuration":121314,"Delta":266775737},{"NoteNumber":51,"Velocity":36,"Duration":182043,"SoundDuration":182043,"Delta":266775737},{"NoteNumber":56,"Velocity":36,"Duration":182043,"SoundDuration":182043,"Delta":266775737},{"NoteNumber":60,"Velocity":36,"Duration":182043,"SoundDuration":182043,"Delta":266775737},{"NoteNumber":74,"Velocity":36,"Duration":30384,"SoundDuration":30384,"Delta":266988145},{"NoteNumber":73,"Velocity":45,"Duration":121704,"SoundDuration":121704,"Delta":267018530},{"NoteNumber":60,"Velocity":31,"Duration":182617,"SoundDuration":182617,"Delta":267018530},{"NoteNumber":56,"Velocity":31,"Duration":182617,"SoundDuration":182617,"Delta":267018530},{"NoteNumber":51,"Velocity":31,"Duration":182617,"SoundDuration":182617,"Delta":267018530},{"NoteNumber":73,"Velocity":35,"Duration":30487,"SoundDuration":30487,"Delta":267231635},{"NoteNumber":72,"Velocity":42,"Duration":122054,"SoundDuration":122054,"Delta":267262123},{"NoteNumber":51,"Velocity":31,"Duration":183154,"SoundDuration":183154,"Delta":267262123},{"NoteNumber":56,"Velocity":31,"Duration":183154,"SoundDuration":183154,"Delta":267262123},{"NoteNumber":60,"Velocity":31,"Duration":183154,"SoundDuration":183154,"Delta":267262123},{"NoteNumber":71,"Velocity":48,"Duration":61728,"SoundDuration":61728,"Delta":267506419},{"NoteNumber":51,"Velocity":39,"Duration":246913,"SoundDuration":246913,"Delta":267506419},{"NoteNumber":39,"Velocity":39,"Duration":246913,"SoundDuration":246913,"Delta":267506419},{"NoteNumber":71,"Velocity":45,"Duration":61728,"SoundDuration":61728,"Delta":267629875},{"NoteNumber":71,"Velocity":48,"Duration":61728,"SoundDuration":61728,"Delta":267753332},{"NoteNumber":51,"Velocity":32,"Duration":185185,"SoundDuration":185185,"Delta":267753332},{"NoteNumber":56,"Velocity":32,"Duration":185185,"SoundDuration":185185,"Delta":267753332},{"NoteNumber":62,"Velocity":32,"Duration":185185,"SoundDuration":185185,"Delta":267753332},{"NoteNumber":71,"Velocity":37,"Duration":61728,"SoundDuration":61728,"Delta":267876789},{"NoteNumber":71,"Velocity":48,"Duration":61728,"SoundDuration":61728,"Delta":268000246},{"NoteNumber":51,"Velocity":34,"Duration":185185,"SoundDuration":185185,"Delta":268000246},{"NoteNumber":56,"Velocity":34,"Duration":185185,"SoundDuration":185185,"Delta":268000246},{"NoteNumber":62,"Velocity":34,"Duration":185185,"SoundDuration":185185,"Delta":268000246},{"NoteNumber":71,"Velocity":42,"Duration":61728,"SoundDuration":61728,"Delta":268123702},{"NoteNumber":68,"Velocity":46,"Duration":120000,"SoundDuration":120000,"Delta":268247159},{"NoteNumber":39,"Velocity":39,"Duration":240000,"SoundDuration":240000,"Delta":268247159},{"NoteNumber":51,"Velocity":39,"Duration":240000,"SoundDuration":240000,"Delta":268247159},{"NoteNumber":71,"Velocity":45,"Duration":120000,"SoundDuration":120000,"Delta":268367159},{"NoteNumber":74,"Velocity":55,"Duration":120000,"SoundDuration":120000,"Delta":268487159},{"NoteNumber":51,"Velocity":35,"Duration":180000,"SoundDuration":180000,"Delta":268487159},{"NoteNumber":56,"Velocity":35,"Duration":180000,"SoundDuration":180000,"Delta":268487159},{"NoteNumber":62,"Velocity":35,"Duration":180000,"SoundDuration":180000,"Delta":268487159},{"NoteNumber":77,"Velocity":53,"Duration":120000,"SoundDuration":120000,"Delta":268607159},{"NoteNumber":83,"Velocity":70,"Duration":157999,"SoundDuration":157999,"Delta":268727159},{"NoteNumber":62,"Velocity":36,"Duration":180000,"SoundDuration":180000,"Delta":268727159},{"NoteNumber":56,"Velocity":36,"Duration":180000,"SoundDuration":180000,"Delta":268727159},{"NoteNumber":51,"Velocity":36,"Duration":180000,"SoundDuration":180000,"Delta":268727159},{"NoteNumber":83,"Velocity":52,"Duration":30000,"SoundDuration":30000,"Delta":268937159},{"NoteNumber":82,"Velocity":62,"Duration":117880,"SoundDuration":117880,"Delta":268967159},{"NoteNumber":39,"Velocity":40,"Duration":236224,"SoundDuration":236224,"Delta":268967159},{"NoteNumber":51,"Velocity":40,"Duration":236224,"SoundDuration":236224,"Delta":268967159},{"NoteNumber":82,"Velocity":53,"Duration":29644,"SoundDuration":29644,"Delta":269173739},{"NoteNumber":81,"Velocity":65,"Duration":118655,"SoundDuration":118655,"Delta":269203383},{"NoteNumber":62,"Velocity":39,"Duration":178179,"SoundDuration":178179,"Delta":269203383},{"NoteNumber":59,"Velocity":39,"Duration":178179,"SoundDuration":178179,"Delta":269203383},{"NoteNumber":56,"Velocity":39,"Duration":178179,"SoundDuration":178179,"Delta":269203383},{"NoteNumber":51,"Velocity":39,"Duration":178179,"SoundDuration":178179,"Delta":269203383},{"NoteNumber":81,"Velocity":54,"Duration":29761,"SoundDuration":29761,"Delta":269411324},{"NoteNumber":80,"Velocity":68,"Duration":119442,"SoundDuration":119442,"Delta":269441086},{"NoteNumber":62,"Velocity":44,"Duration":179203,"SoundDuration":179203,"Delta":269441086},{"NoteNumber":59,"Velocity":44,"Duration":179203,"SoundDuration":179203,"Delta":269441086},{"NoteNumber":56,"Velocity":44,"Duration":179203,"SoundDuration":179203,"Delta":269441086},{"NoteNumber":51,"Velocity":44,"Duration":179203,"SoundDuration":179203,"Delta":269441086},{"NoteNumber":80,"Velocity":59,"Duration":30000,"SoundDuration":30000,"Delta":269650290},{"NoteNumber":79,"Velocity":70,"Duration":120080,"SoundDuration":120080,"Delta":269680290},{"NoteNumber":62,"Velocity":46,"Duration":180321,"SoundDuration":180321,"Delta":269680290},{"NoteNumber":59,"Velocity":46,"Duration":180321,"SoundDuration":180321,"Delta":269680290},{"NoteNumber":56,"Velocity":46,"Duration":180321,"SoundDuration":180321,"Delta":269680290},{"NoteNumber":51,"Velocity":46,"Duration":180321,"SoundDuration":180321,"Delta":269680290},{"NoteNumber":79,"Velocity":60,"Duration":30120,"SoundDuration":30120,"Delta":269890732},{"NoteNumber":78,"Velocity":73,"Duration":120886,"SoundDuration":120886,"Delta":269920852},{"NoteNumber":62,"Velocity":46,"Duration":181370,"SoundDuration":181370,"Delta":269920852},{"NoteNumber":59,"Velocity":46,"Duration":181370,"SoundDuration":181370,"Delta":269920852},{"NoteNumber":56,"Velocity":46,"Duration":181370,"SoundDuration":181370,"Delta":269920852},{"NoteNumber":51,"Velocity":46,"Duration":181370,"SoundDuration":181370,"Delta":269920852},{"NoteNumber":78,"Velocity":65,"Duration":30364,"SoundDuration":30364,"Delta":270132587},{"NoteNumber":77,"Velocity":76,"Duration":60728,"SoundDuration":60728,"Delta":270162952},{"NoteNumber":62,"Velocity":50,"Duration":190032,"SoundDuration":190032,"Delta":270162952},{"NoteNumber":59,"Velocity":50,"Duration":190032,"SoundDuration":190032,"Delta":270162952},{"NoteNumber":56,"Velocity":50,"Duration":190032,"SoundDuration":190032,"Delta":270162952},{"NoteNumber":51,"Velocity":50,"Duration":190032,"SoundDuration":190032,"Delta":270162952},{"NoteNumber":77,"Velocity":70,"Duration":34246,"SoundDuration":34246,"Delta":270387231},{"NoteNumber":91,"Velocity":88,"Duration":120000,"SoundDuration":120000,"Delta":270421478},{"NoteNumber":62,"Velocity":47,"Duration":180000,"SoundDuration":180000,"Delta":270421478},{"NoteNumber":59,"Velocity":47,"Duration":180000,"SoundDuration":180000,"Delta":270421478},{"NoteNumber":56,"Velocity":47,"Duration":180000,"SoundDuration":180000,"Delta":270421478},{"NoteNumber":51,"Velocity":47,"Duration":180000,"SoundDuration":180000,"Delta":270421478},{"NoteNumber":91,"Velocity":71,"Duration":30000,"SoundDuration":30000,"Delta":270631478},{"NoteNumber":89,"Velocity":80,"Duration":120000,"SoundDuration":120000,"Delta":270661478},{"NoteNumber":62,"Velocity":38,"Duration":180000,"SoundDuration":180000,"Delta":270661478},{"NoteNumber":59,"Velocity":38,"Duration":180000,"SoundDuration":180000,"Delta":270661478},{"NoteNumber":56,"Velocity":38,"Duration":180000,"SoundDuration":180000,"Delta":270661478},{"NoteNumber":51,"Velocity":38,"Duration":180000,"SoundDuration":180000,"Delta":270661478},{"NoteNumber":89,"Velocity":70,"Duration":30000,"SoundDuration":30000,"Delta":270871478},{"NoteNumber":88,"Velocity":80,"Duration":120000,"SoundDuration":120000,"Delta":270901478},{"NoteNumber":62,"Velocity":45,"Duration":180000,"SoundDuration":180000,"Delta":270901478},{"NoteNumber":59,"Velocity":45,"Duration":180000,"SoundDuration":180000,"Delta":270901478},{"NoteNumber":56,"Velocity":45,"Duration":180000,"SoundDuration":180000,"Delta":270901478},{"NoteNumber":51,"Velocity":45,"Duration":180000,"SoundDuration":180000,"Delta":270901478},{"NoteNumber":88,"Velocity":69,"Duration":30000,"SoundDuration":30000,"Delta":271111478},{"NoteNumber":87,"Velocity":80,"Duration":117035,"SoundDuration":117035,"Delta":271141478},{"NoteNumber":62,"Velocity":47,"Duration":175325,"SoundDuration":175325,"Delta":271141478},{"NoteNumber":59,"Velocity":47,"Duration":175325,"SoundDuration":175325,"Delta":271141478},{"NoteNumber":56,"Velocity":47,"Duration":175325,"SoundDuration":175325,"Delta":271141478},{"NoteNumber":51,"Velocity":47,"Duration":175325,"SoundDuration":175325,"Delta":271141478},{"NoteNumber":87,"Velocity":72,"Duration":28994,"SoundDuration":28994,"Delta":271345873},{"NoteNumber":86,"Velocity":80,"Duration":115607,"SoundDuration":115607,"Delta":271374868},{"NoteNumber":62,"Velocity":38,"Duration":173078,"SoundDuration":173078,"Delta":271374868},{"NoteNumber":59,"Velocity":38,"Duration":173078,"SoundDuration":173078,"Delta":271374868},{"NoteNumber":56,"Velocity":38,"Duration":173078,"SoundDuration":173078,"Delta":271374868},{"NoteNumber":51,"Velocity":38,"Duration":173078,"SoundDuration":173078,"Delta":271374868},{"NoteNumber":86,"Velocity":70,"Duration":28625,"SoundDuration":28625,"Delta":271576646},{"NoteNumber":85,"Velocity":80,"Duration":114141,"SoundDuration":114141,"Delta":271605272},{"NoteNumber":62,"Velocity":45,"Duration":170959,"SoundDuration":170959,"Delta":271605272},{"NoteNumber":59,"Velocity":45,"Duration":170959,"SoundDuration":170959,"Delta":271605272},{"NoteNumber":56,"Velocity":45,"Duration":170959,"SoundDuration":170959,"Delta":271605272},{"NoteNumber":51,"Velocity":45,"Duration":170959,"SoundDuration":170959,"Delta":271605272},{"NoteNumber":85,"Velocity":70,"Duration":28301,"SoundDuration":28301,"Delta":271804533},{"NoteNumber":84,"Velocity":80,"Duration":112852,"SoundDuration":112852,"Delta":271832835},{"NoteNumber":62,"Velocity":45,"Duration":169456,"SoundDuration":169456,"Delta":271832835},{"NoteNumber":58,"Velocity":45,"Duration":169456,"SoundDuration":169456,"Delta":271832835},{"NoteNumber":56,"Velocity":45,"Duration":169456,"SoundDuration":169456,"Delta":271832835},{"NoteNumber":51,"Velocity":45,"Duration":169456,"SoundDuration":169456,"Delta":271832835},{"NoteNumber":84,"Velocity":70,"Duration":28409,"SoundDuration":28409,"Delta":272030701},{"NoteNumber":83,"Velocity":83,"Duration":113924,"SoundDuration":113924,"Delta":272059110},{"NoteNumber":62,"Velocity":43,"Duration":171176,"SoundDuration":171176,"Delta":272059110},{"NoteNumber":58,"Velocity":43,"Duration":171176,"SoundDuration":171176,"Delta":272059110},{"NoteNumber":56,"Velocity":43,"Duration":171176,"SoundDuration":171176,"Delta":272059110},{"NoteNumber":51,"Velocity":43,"Duration":171176,"SoundDuration":171176,"Delta":272059110},{"NoteNumber":83,"Velocity":71,"Duration":28735,"SoundDuration":28735,"Delta":272258949},{"NoteNumber":82,"Velocity":86,"Duration":115163,"SoundDuration":115163,"Delta":272287684},{"NoteNumber":62,"Velocity":48,"Duration":173004,"SoundDuration":173004,"Delta":272287684},{"NoteNumber":58,"Velocity":48,"Duration":173004,"SoundDuration":173004,"Delta":272287684},{"NoteNumber":56,"Velocity":48,"Duration":173004,"SoundDuration":173004,"Delta":272287684},{"NoteNumber":51,"Velocity":48,"Duration":173004,"SoundDuration":173004,"Delta":272287684},{"NoteNumber":82,"Velocity":73,"Duration":28957,"SoundDuration":28957,"Delta":272489646},{"NoteNumber":81,"Velocity":89,"Duration":116429,"SoundDuration":116429,"Delta":272518604},{"NoteNumber":62,"Velocity":49,"Duration":174871,"SoundDuration":174871,"Delta":272518604},{"NoteNumber":58,"Velocity":49,"Duration":174871,"SoundDuration":174871,"Delta":272518604},{"NoteNumber":56,"Velocity":49,"Duration":174871,"SoundDuration":174871,"Delta":272518604},{"NoteNumber":51,"Velocity":49,"Duration":174871,"SoundDuration":174871,"Delta":272518604},{"NoteNumber":81,"Velocity":77,"Duration":29296,"SoundDuration":29296,"Delta":272722772},{"NoteNumber":80,"Velocity":92,"Duration":117647,"SoundDuration":117647,"Delta":272752069},{"NoteNumber":62,"Velocity":46,"Duration":176702,"SoundDuration":176702,"Delta":272752069},{"NoteNumber":58,"Velocity":46,"Duration":176702,"SoundDuration":176702,"Delta":272752069},{"NoteNumber":56,"Velocity":46,"Duration":176702,"SoundDuration":176702,"Delta":272752069},{"NoteNumber":51,"Velocity":46,"Duration":176702,"SoundDuration":176702,"Delta":272752069},{"NoteNumber":80,"Velocity":79,"Duration":29722,"SoundDuration":29722,"Delta":272958416},{"NoteNumber":77,"Velocity":95,"Duration":128205,"SoundDuration":128205,"Delta":272988139},{"NoteNumber":62,"Velocity":52,"Duration":192307,"SoundDuration":192307,"Delta":272988139},{"NoteNumber":58,"Velocity":52,"Duration":192307,"SoundDuration":192307,"Delta":272988139},{"NoteNumber":56,"Velocity":52,"Duration":192307,"SoundDuration":192307,"Delta":272988139},{"NoteNumber":51,"Velocity":52,"Duration":192307,"SoundDuration":192307,"Delta":272988139},{"NoteNumber":87,"Velocity":100,"Duration":125000,"SoundDuration":125000,"Delta":273244549},{"NoteNumber":75,"Velocity":100,"Duration":125000,"SoundDuration":125000,"Delta":273244549},{"NoteNumber":39,"Velocity":96,"Duration":125000,"SoundDuration":125000,"Delta":273244549},{"NoteNumber":51,"Velocity":96,"Duration":125000,"SoundDuration":125000,"Delta":273244549},{"NoteNumber":79,"Velocity":75,"Duration":120481,"SoundDuration":120481,"Delta":273494549},{"NoteNumber":61,"Velocity":74,"Duration":180723,"SoundDuration":180723,"Delta":273494549},{"NoteNumber":63,"Velocity":74,"Duration":180723,"SoundDuration":180723,"Delta":273494549},{"NoteNumber":67,"Velocity":74,"Duration":180723,"SoundDuration":180723,"Delta":273494549},{"NoteNumber":70,"Velocity":74,"Duration":180723,"SoundDuration":180723,"Delta":273494549},{"NoteNumber":80,"Velocity":84,"Duration":120482,"SoundDuration":120482,"Delta":273615031},{"NoteNumber":79,"Velocity":87,"Duration":189873,"SoundDuration":189873,"Delta":273735513},{"NoteNumber":82,"Velocity":87,"Duration":189873,"SoundDuration":189873,"Delta":273735513},{"NoteNumber":63,"Velocity":80,"Duration":189873,"SoundDuration":189873,"Delta":273735513},{"NoteNumber":61,"Velocity":80,"Duration":189873,"SoundDuration":189873,"Delta":273735513},{"NoteNumber":67,"Velocity":80,"Duration":189873,"SoundDuration":189873,"Delta":273735513},{"NoteNumber":70,"Velocity":80,"Duration":189873,"SoundDuration":189873,"Delta":273735513},{"NoteNumber":87,"Velocity":100,"Duration":125000,"SoundDuration":125000,"Delta":273988678},{"NoteNumber":75,"Velocity":100,"Duration":125000,"SoundDuration":125000,"Delta":273988678},{"NoteNumber":39,"Velocity":96,"Duration":125000,"SoundDuration":125000,"Delta":273988678},{"NoteNumber":51,"Velocity":96,"Duration":125000,"SoundDuration":125000,"Delta":273988678},{"NoteNumber":78,"Velocity":78,"Duration":120967,"SoundDuration":120967,"Delta":274238678},{"NoteNumber":69,"Velocity":76,"Duration":181451,"SoundDuration":181451,"Delta":274238678},{"NoteNumber":66,"Velocity":76,"Duration":181451,"SoundDuration":181451,"Delta":274238678},{"NoteNumber":63,"Velocity":76,"Duration":181451,"SoundDuration":181451,"Delta":274238678},{"NoteNumber":60,"Velocity":76,"Duration":181451,"SoundDuration":181451,"Delta":274238678},{"NoteNumber":80,"Velocity":83,"Duration":120967,"SoundDuration":120967,"Delta":274359645},{"NoteNumber":78,"Velocity":86,"Duration":189075,"SoundDuration":189075,"Delta":274480613},{"NoteNumber":81,"Velocity":86,"Duration":189075,"SoundDuration":189075,"Delta":274480613},{"NoteNumber":69,"Velocity":81,"Duration":189075,"SoundDuration":189075,"Delta":274480613},{"NoteNumber":66,"Velocity":81,"Duration":189075,"SoundDuration":189075,"Delta":274480613},{"NoteNumber":63,"Velocity":81,"Duration":189075,"SoundDuration":189075,"Delta":274480613},{"NoteNumber":60,"Velocity":81,"Duration":189075,"SoundDuration":189075,"Delta":274480613},{"NoteNumber":87,"Velocity":100,"Duration":126050,"SoundDuration":126050,"Delta":274732714},{"NoteNumber":75,"Velocity":100,"Duration":126050,"SoundDuration":126050,"Delta":274732714},{"NoteNumber":39,"Velocity":96,"Duration":126050,"SoundDuration":126050,"Delta":274732714},{"NoteNumber":51,"Velocity":96,"Duration":126050,"SoundDuration":126050,"Delta":274732714},{"NoteNumber":77,"Velocity":86,"Duration":126852,"SoundDuration":126852,"Delta":274984815},{"NoteNumber":59,"Velocity":78,"Duration":190863,"SoundDuration":190863,"Delta":274984815},{"NoteNumber":63,"Velocity":78,"Duration":190863,"SoundDuration":190863,"Delta":274984815},{"NoteNumber":65,"Velocity":78,"Duration":190863,"SoundDuration":190863,"Delta":274984815},{"NoteNumber":68,"Velocity":78,"Duration":190863,"SoundDuration":190863,"Delta":274984815},{"NoteNumber":79,"Velocity":82,"Duration":128481,"SoundDuration":128481,"Delta":275111667},{"NoteNumber":77,"Velocity":89,"Duration":195847,"SoundDuration":195847,"Delta":275240149},{"NoteNumber":80,"Velocity":89,"Duration":195847,"SoundDuration":195847,"Delta":275240149},{"NoteNumber":59,"Velocity":83,"Duration":195847,"SoundDuration":195847,"Delta":275240149},{"NoteNumber":63,"Velocity":83,"Duration":195847,"SoundDuration":195847,"Delta":275240149},{"NoteNumber":65,"Velocity":83,"Duration":195847,"SoundDuration":195847,"Delta":275240149},{"NoteNumber":68,"Velocity":83,"Duration":195847,"SoundDuration":195847,"Delta":275240149},{"NoteNumber":70,"Velocity":100,"Duration":555556,"SoundDuration":555556,"Delta":275502173},{"NoteNumber":82,"Velocity":100,"Duration":555556,"SoundDuration":555556,"Delta":275502173},{"NoteNumber":79,"Velocity":100,"Duration":555556,"SoundDuration":555556,"Delta":275502173},{"NoteNumber":39,"Velocity":98,"Duration":277778,"SoundDuration":277778,"Delta":275502173},{"NoteNumber":51,"Velocity":98,"Duration":277778,"SoundDuration":277778,"Delta":275502173},{"NoteNumber":67,"Velocity":78,"Duration":277778,"SoundDuration":277778,"Delta":275779951},{"NoteNumber":63,"Velocity":78,"Duration":277778,"SoundDuration":277778,"Delta":275779951},{"NoteNumber":58,"Velocity":78,"Duration":277778,"SoundDuration":277778,"Delta":275779951},{"NoteNumber":55,"Velocity":78,"Duration":277778,"SoundDuration":277778,"Delta":275779951},{"NoteNumber":82,"Velocity":95,"Duration":153061,"SoundDuration":153061,"Delta":276057729},{"NoteNumber":79,"Velocity":95,"Duration":153061,"SoundDuration":153061,"Delta":276057729},{"NoteNumber":70,"Velocity":95,"Duration":153061,"SoundDuration":153061,"Delta":276057729},{"NoteNumber":67,"Velocity":84,"Duration":306122,"SoundDuration":306122,"Delta":276057729},{"NoteNumber":63,"Velocity":84,"Duration":306122,"SoundDuration":306122,"Delta":276057729},{"NoteNumber":58,"Velocity":84,"Duration":306122,"SoundDuration":306122,"Delta":276057729},{"NoteNumber":55,"Velocity":84,"Duration":306122,"SoundDuration":306122,"Delta":276057729},{"NoteNumber":82,"Velocity":92,"Duration":153061,"SoundDuration":153061,"Delta":276210791},{"NoteNumber":79,"Velocity":92,"Duration":153061,"SoundDuration":153061,"Delta":276210791},{"NoteNumber":70,"Velocity":92,"Duration":153061,"SoundDuration":153061,"Delta":276210791},{"NoteNumber":79,"Velocity":100,"Duration":263157,"SoundDuration":263157,"Delta":276363852},{"NoteNumber":70,"Velocity":100,"Duration":784297,"SoundDuration":784297,"Delta":276363852},{"NoteNumber":82,"Velocity":100,"Duration":784297,"SoundDuration":784297,"Delta":276363852},{"NoteNumber":34,"Velocity":97,"Duration":263157,"SoundDuration":263157,"Delta":276363852},{"NoteNumber":46,"Velocity":97,"Duration":263157,"SoundDuration":263157,"Delta":276363852},{"NoteNumber":80,"Velocity":96,"Duration":128755,"SoundDuration":128755,"Delta":276627010},{"NoteNumber":65,"Velocity":78,"Duration":193132,"SoundDuration":193132,"Delta":276627010},{"NoteNumber":62,"Velocity":78,"Duration":193132,"SoundDuration":193132,"Delta":276627010},{"NoteNumber":58,"Velocity":78,"Duration":193132,"SoundDuration":193132,"Delta":276627010},{"NoteNumber":56,"Velocity":78,"Duration":193132,"SoundDuration":193132,"Delta":276627010},{"NoteNumber":79,"Velocity":91,"Duration":129225,"SoundDuration":129225,"Delta":276755765},{"NoteNumber":77,"Velocity":96,"Duration":131578,"SoundDuration":131578,"Delta":276884991},{"NoteNumber":65,"Velocity":84,"Duration":131578,"SoundDuration":131578,"Delta":276884991},{"NoteNumber":62,"Velocity":84,"Duration":131578,"SoundDuration":131578,"Delta":276884991},{"NoteNumber":58,"Velocity":84,"Duration":131578,"SoundDuration":131578,"Delta":276884991},{"NoteNumber":56,"Velocity":84,"Duration":131578,"SoundDuration":131578,"Delta":276884991},{"NoteNumber":77,"Velocity":94,"Duration":259740,"SoundDuration":259740,"Delta":277148149},{"NoteNumber":70,"Velocity":94,"Duration":778217,"SoundDuration":778217,"Delta":277148149},{"NoteNumber":82,"Velocity":94,"Duration":778217,"SoundDuration":778217,"Delta":277148149},{"NoteNumber":39,"Velocity":85,"Duration":259740,"SoundDuration":259740,"Delta":277148149},{"NoteNumber":51,"Velocity":85,"Duration":259740,"SoundDuration":259740,"Delta":277148149},{"NoteNumber":79,"Velocity":84,"Duration":127659,"SoundDuration":127659,"Delta":277407890},{"NoteNumber":63,"Velocity":71,"Duration":191489,"SoundDuration":191489,"Delta":277407890},{"NoteNumber":58,"Velocity":71,"Duration":191489,"SoundDuration":191489,"Delta":277407890},{"NoteNumber":55,"Velocity":71,"Duration":191489,"SoundDuration":191489,"Delta":277407890},{"NoteNumber":77,"Velocity":78,"Duration":127659,"SoundDuration":127659,"Delta":277535549},{"NoteNumber":75,"Velocity":75,"Duration":131578,"SoundDuration":131578,"Delta":277663209},{"NoteNumber":63,"Velocity":66,"Duration":131578,"SoundDuration":131578,"Delta":277663209},{"NoteNumber":58,"Velocity":66,"Duration":131578,"SoundDuration":131578,"Delta":277663209},{"NoteNumber":55,"Velocity":66,"Duration":131578,"SoundDuration":131578,"Delta":277663209},{"NoteNumber":79,"Velocity":77,"Duration":543531,"SoundDuration":543531,"Delta":277926367},{"NoteNumber":70,"Velocity":77,"Duration":280373,"SoundDuration":280373,"Delta":277926367},{"NoteNumber":46,"Velocity":67,"Duration":280373,"SoundDuration":280373,"Delta":277926367},{"NoteNumber":58,"Velocity":67,"Duration":280373,"SoundDuration":280373,"Delta":277926367},{"NoteNumber":72,"Velocity":69,"Duration":131578,"SoundDuration":131578,"Delta":278206741},{"NoteNumber":62,"Velocity":53,"Duration":197368,"SoundDuration":197368,"Delta":278206741},{"NoteNumber":56,"Velocity":53,"Duration":197368,"SoundDuration":197368,"Delta":278206741},{"NoteNumber":58,"Velocity":53,"Duration":197368,"SoundDuration":197368,"Delta":278206741},{"NoteNumber":53,"Velocity":53,"Duration":197368,"SoundDuration":197368,"Delta":278206741},{"NoteNumber":70,"Velocity":58,"Duration":131578,"SoundDuration":131578,"Delta":278338320},{"NoteNumber":77,"Velocity":62,"Duration":135135,"SoundDuration":135135,"Delta":278469899},{"NoteNumber":68,"Velocity":62,"Duration":135135,"SoundDuration":135135,"Delta":278469899},{"NoteNumber":62,"Velocity":56,"Duration":135135,"SoundDuration":135135,"Delta":278469899},{"NoteNumber":58,"Velocity":56,"Duration":135135,"SoundDuration":135135,"Delta":278469899},{"NoteNumber":56,"Velocity":56,"Duration":135135,"SoundDuration":135135,"Delta":278469899},{"NoteNumber":53,"Velocity":56,"Duration":135135,"SoundDuration":135135,"Delta":278469899},{"NoteNumber":77,"Velocity":71,"Duration":550748,"SoundDuration":550748,"Delta":278740169},{"NoteNumber":68,"Velocity":71,"Duration":281690,"SoundDuration":281690,"Delta":278740169},{"NoteNumber":39,"Velocity":63,"Duration":281690,"SoundDuration":281690,"Delta":278740169},{"NoteNumber":51,"Velocity":63,"Duration":281690,"SoundDuration":281690,"Delta":278740169},{"NoteNumber":70,"Velocity":62,"Duration":134529,"SoundDuration":134529,"Delta":279021859},{"NoteNumber":61,"Velocity":42,"Duration":201793,"SoundDuration":201793,"Delta":279021859},{"NoteNumber":58,"Velocity":42,"Duration":201793,"SoundDuration":201793,"Delta":279021859},{"NoteNumber":51,"Velocity":42,"Duration":201793,"SoundDuration":201793,"Delta":279021859},{"NoteNumber":68,"Velocity":52,"Duration":134529,"SoundDuration":134529,"Delta":279156388},{"NoteNumber":75,"Velocity":56,"Duration":139535,"SoundDuration":139535,"Delta":279290918},{"NoteNumber":67,"Velocity":56,"Duration":139535,"SoundDuration":139535,"Delta":279290918},{"NoteNumber":61,"Velocity":49,"Duration":139535,"SoundDuration":139535,"Delta":279290918},{"NoteNumber":58,"Velocity":49,"Duration":139535,"SoundDuration":139535,"Delta":279290918},{"NoteNumber":51,"Velocity":49,"Duration":139535,"SoundDuration":139535,"Delta":279290918},{"NoteNumber":63,"Velocity":68,"Duration":799069,"SoundDuration":799069,"Delta":279569988},{"NoteNumber":75,"Velocity":68,"Duration":799069,"SoundDuration":799069,"Delta":279569988},{"NoteNumber":44,"Velocity":62,"Duration":270270,"SoundDuration":270270,"Delta":279569988},{"NoteNumber":56,"Velocity":62,"Duration":270270,"SoundDuration":270270,"Delta":279569988},{"NoteNumber":68,"Velocity":55,"Duration":129870,"SoundDuration":129870,"Delta":279840258},{"NoteNumber":60,"Velocity":47,"Duration":194805,"SoundDuration":194805,"Delta":279840258},{"NoteNumber":56,"Velocity":47,"Duration":194805,"SoundDuration":194805,"Delta":279840258},{"NoteNumber":51,"Velocity":47,"Duration":194805,"SoundDuration":194805,"Delta":279840258},{"NoteNumber":70,"Velocity":57,"Duration":129870,"SoundDuration":129870,"Delta":279970128},{"NoteNumber":68,"Velocity":59,"Duration":134529,"SoundDuration":134529,"Delta":280099999},{"NoteNumber":72,"Velocity":59,"Duration":134529,"SoundDuration":134529,"Delta":280099999},{"NoteNumber":60,"Velocity":51,"Duration":134529,"SoundDuration":134529,"Delta":280099999},{"NoteNumber":56,"Velocity":51,"Duration":134529,"SoundDuration":134529,"Delta":280099999},{"NoteNumber":51,"Velocity":51,"Duration":134529,"SoundDuration":134529,"Delta":280099999},{"NoteNumber":63,"Velocity":65,"Duration":792055,"SoundDuration":792055,"Delta":280369057},{"NoteNumber":75,"Velocity":65,"Duration":792055,"SoundDuration":792055,"Delta":280369057},{"NoteNumber":44,"Velocity":59,"Duration":269058,"SoundDuration":269058,"Delta":280369057},{"NoteNumber":56,"Velocity":59,"Duration":269058,"SoundDuration":269058,"Delta":280369057},{"NoteNumber":68,"Velocity":51,"Duration":128755,"SoundDuration":128755,"Delta":280638116},{"NoteNumber":59,"Velocity":45,"Duration":193132,"SoundDuration":193132,"Delta":280638116},{"NoteNumber":56,"Velocity":45,"Duration":193132,"SoundDuration":193132,"Delta":280638116},{"NoteNumber":51,"Velocity":45,"Duration":193132,"SoundDuration":193132,"Delta":280638116},{"NoteNumber":70,"Velocity":54,"Duration":128755,"SoundDuration":128755,"Delta":280766871},{"NoteNumber":68,"Velocity":56,"Duration":132743,"SoundDuration":132743,"Delta":280895626},{"NoteNumber":71,"Velocity":56,"Duration":132743,"SoundDuration":132743,"Delta":280895626},{"NoteNumber":59,"Velocity":48,"Duration":132743,"SoundDuration":132743,"Delta":280895626},{"NoteNumber":56,"Velocity":48,"Duration":132743,"SoundDuration":132743,"Delta":280895626},{"NoteNumber":51,"Velocity":48,"Duration":132743,"SoundDuration":132743,"Delta":280895626},{"NoteNumber":63,"Velocity":62,"Duration":821042,"SoundDuration":821042,"Delta":281161113},{"NoteNumber":75,"Velocity":62,"Duration":821042,"SoundDuration":821042,"Delta":281161113},{"NoteNumber":39,"Velocity":56,"Duration":277778,"SoundDuration":277778,"Delta":281161113},{"NoteNumber":67,"Velocity":46,"Duration":132743,"SoundDuration":132743,"Delta":281438891},{"NoteNumber":46,"Velocity":45,"Duration":199114,"SoundDuration":199114,"Delta":281438891},{"NoteNumber":51,"Velocity":45,"Duration":199114,"SoundDuration":199114,"Delta":281438891},{"NoteNumber":55,"Velocity":45,"Duration":199114,"SoundDuration":199114,"Delta":281438891},{"NoteNumber":68,"Velocity":49,"Duration":132743,"SoundDuration":132743,"Delta":281571634},{"NoteNumber":67,"Velocity":51,"Duration":138889,"SoundDuration":138889,"Delta":281704377},{"NoteNumber":70,"Velocity":51,"Duration":138889,"SoundDuration":138889,"Delta":281704377},{"NoteNumber":46,"Velocity":48,"Duration":138889,"SoundDuration":138889,"Delta":281704377},{"NoteNumber":51,"Velocity":48,"Duration":138889,"SoundDuration":138889,"Delta":281704377},{"NoteNumber":55,"Velocity":48,"Duration":138889,"SoundDuration":138889,"Delta":281704377},{"NoteNumber":58,"Velocity":59,"Duration":555555,"SoundDuration":555555,"Delta":281982155},{"NoteNumber":67,"Velocity":59,"Duration":555555,"SoundDuration":555555,"Delta":281982155},{"NoteNumber":70,"Velocity":59,"Duration":555555,"SoundDuration":555555,"Delta":281982155},{"NoteNumber":39,"Velocity":52,"Duration":277778,"SoundDuration":277778,"Delta":281982155},{"NoteNumber":46,"Velocity":41,"Duration":208333,"SoundDuration":208333,"Delta":282259933},{"NoteNumber":51,"Velocity":41,"Duration":208333,"SoundDuration":208333,"Delta":282259933},{"NoteNumber":55,"Velocity":41,"Duration":208333,"SoundDuration":208333,"Delta":282259933},{"NoteNumber":58,"Velocity":49,"Duration":145630,"SoundDuration":145630,"Delta":282537711},{"NoteNumber":67,"Velocity":49,"Duration":145630,"SoundDuration":145630,"Delta":282537711},{"NoteNumber":70,"Velocity":49,"Duration":145630,"SoundDuration":145630,"Delta":282537711},{"NoteNumber":46,"Velocity":45,"Duration":218446,"SoundDuration":218446,"Delta":282537711},{"NoteNumber":51,"Velocity":45,"Duration":218446,"SoundDuration":218446,"Delta":282537711},{"NoteNumber":55,"Velocity":45,"Duration":218446,"SoundDuration":218446,"Delta":282537711},{"NoteNumber":58,"Velocity":45,"Duration":145631,"SoundDuration":145631,"Delta":282683342},{"NoteNumber":67,"Velocity":45,"Duration":145631,"SoundDuration":145631,"Delta":282683342},{"NoteNumber":70,"Velocity":45,"Duration":145631,"SoundDuration":145631,"Delta":282683342},{"NoteNumber":67,"Velocity":55,"Duration":281690,"SoundDuration":281690,"Delta":282828973},{"NoteNumber":58,"Velocity":55,"Duration":836107,"SoundDuration":836107,"Delta":282828973},{"NoteNumber":70,"Velocity":55,"Duration":836107,"SoundDuration":836107,"Delta":282828973},{"NoteNumber":39,"Velocity":48,"Duration":281690,"SoundDuration":281690,"Delta":282828973},{"NoteNumber":68,"Velocity":48,"Duration":136363,"SoundDuration":136363,"Delta":283110663},{"NoteNumber":56,"Velocity":38,"Duration":204545,"SoundDuration":204545,"Delta":283110663},{"NoteNumber":50,"Velocity":38,"Duration":204545,"SoundDuration":204545,"Delta":283110663},{"NoteNumber":46,"Velocity":38,"Duration":204545,"SoundDuration":204545,"Delta":283110663},{"NoteNumber":67,"Velocity":43,"Duration":136363,"SoundDuration":136363,"Delta":283247027},{"NoteNumber":65,"Velocity":48,"Duration":140845,"SoundDuration":140845,"Delta":283383391},{"NoteNumber":46,"Velocity":44,"Duration":140845,"SoundDuration":140845,"Delta":283383391},{"NoteNumber":50,"Velocity":44,"Duration":140845,"SoundDuration":140845,"Delta":283383391},{"NoteNumber":56,"Velocity":44,"Duration":140845,"SoundDuration":140845,"Delta":283383391},{"NoteNumber":65,"Velocity":55,"Duration":288461,"SoundDuration":288461,"Delta":283665081},{"NoteNumber":58,"Velocity":52,"Duration":876696,"SoundDuration":876696,"Delta":283665081},{"NoteNumber":70,"Velocity":52,"Duration":876696,"SoundDuration":876696,"Delta":283665081},{"NoteNumber":39,"Velocity":46,"Duration":288461,"SoundDuration":288461,"Delta":283665081},{"NoteNumber":67,"Velocity":46,"Duration":147058,"SoundDuration":147058,"Delta":283953542},{"NoteNumber":46,"Velocity":38,"Duration":220588,"SoundDuration":220588,"Delta":283953542},{"NoteNumber":51,"Velocity":38,"Duration":220588,"SoundDuration":220588,"Delta":283953542},{"NoteNumber":55,"Velocity":38,"Duration":220588,"SoundDuration":220588,"Delta":283953542},{"NoteNumber":65,"Velocity":44,"Duration":147058,"SoundDuration":147058,"Delta":284100601},{"NoteNumber":63,"Velocity":47,"Duration":147058,"SoundDuration":147058,"Delta":284247660},{"NoteNumber":55,"Velocity":41,"Duration":147058,"SoundDuration":147058,"Delta":284247660},{"NoteNumber":51,"Velocity":41,"Duration":147058,"SoundDuration":147058,"Delta":284247660},{"NoteNumber":46,"Velocity":41,"Duration":147058,"SoundDuration":147058,"Delta":284247660},{"NoteNumber":62,"Velocity":46,"Duration":262679,"SoundDuration":262679,"Delta":284541777},{"NoteNumber":71,"Velocity":50,"Duration":65789,"SoundDuration":65789,"Delta":284541777},{"NoteNumber":39,"Velocity":46,"Duration":262679,"SoundDuration":262679,"Delta":284541777},{"NoteNumber":71,"Velocity":46,"Duration":65597,"SoundDuration":65597,"Delta":284673356},{"NoteNumber":71,"Velocity":50,"Duration":65407,"SoundDuration":65407,"Delta":284804456},{"NoteNumber":56,"Velocity":31,"Duration":195841,"SoundDuration":195841,"Delta":284804456},{"NoteNumber":53,"Velocity":31,"Duration":195841,"SoundDuration":195841,"Delta":284804456},{"NoteNumber":46,"Velocity":31,"Duration":195841,"SoundDuration":195841,"Delta":284804456},{"NoteNumber":71,"Velocity":45,"Duration":65217,"SoundDuration":65217,"Delta":284935081},{"NoteNumber":71,"Velocity":39,"Duration":64935,"SoundDuration":64935,"Delta":285065233},{"NoteNumber":46,"Velocity":39,"Duration":194338,"SoundDuration":194338,"Delta":285065233},{"NoteNumber":53,"Velocity":39,"Duration":194338,"SoundDuration":194338,"Delta":285065233},{"NoteNumber":56,"Velocity":39,"Duration":194338,"SoundDuration":194338,"Delta":285065233},{"NoteNumber":71,"Velocity":46,"Duration":64655,"SoundDuration":64655,"Delta":285194917},{"NoteNumber":71,"Velocity":48,"Duration":123456,"SoundDuration":123456,"Delta":285324134},{"NoteNumber":39,"Velocity":43,"Duration":246913,"SoundDuration":246913,"Delta":285324134},{"NoteNumber":70,"Velocity":43,"Duration":123456,"SoundDuration":123456,"Delta":285447591},{"NoteNumber":67,"Velocity":47,"Duration":123456,"SoundDuration":123456,"Delta":285571048},{"NoteNumber":46,"Velocity":29,"Duration":185185,"SoundDuration":185185,"Delta":285571048},{"NoteNumber":51,"Velocity":29,"Duration":185185,"SoundDuration":185185,"Delta":285571048},{"NoteNumber":55,"Velocity":29,"Duration":185185,"SoundDuration":185185,"Delta":285571048},{"NoteNumber":63,"Velocity":41,"Duration":123456,"SoundDuration":123456,"Delta":285694505},{"NoteNumber":58,"Velocity":46,"Duration":123456,"SoundDuration":123456,"Delta":285817961},{"NoteNumber":55,"Velocity":34,"Duration":123456,"SoundDuration":123456,"Delta":285817961},{"NoteNumber":51,"Velocity":34,"Duration":123456,"SoundDuration":123456,"Delta":285817961},{"NoteNumber":46,"Velocity":34,"Duration":123456,"SoundDuration":123456,"Delta":285817961},{"NoteNumber":67,"Velocity":55,"Duration":258620,"SoundDuration":258620,"Delta":286064875},{"NoteNumber":58,"Velocity":55,"Duration":767241,"SoundDuration":767241,"Delta":286064875},{"NoteNumber":70,"Velocity":55,"Duration":767241,"SoundDuration":767241,"Delta":286064875},{"NoteNumber":39,"Velocity":48,"Duration":258620,"SoundDuration":258620,"Delta":286064875},{"NoteNumber":68,"Velocity":42,"Duration":125000,"SoundDuration":125000,"Delta":286323495},{"NoteNumber":56,"Velocity":38,"Duration":187500,"SoundDuration":187500,"Delta":286323495},{"NoteNumber":50,"Velocity":38,"Duration":187500,"SoundDuration":187500,"Delta":286323495},{"NoteNumber":46,"Velocity":38,"Duration":187500,"SoundDuration":187500,"Delta":286323495},{"NoteNumber":67,"Velocity":45,"Duration":125000,"SoundDuration":125000,"Delta":286448495},{"NoteNumber":65,"Velocity":48,"Duration":129310,"SoundDuration":129310,"Delta":286573495},{"NoteNumber":46,"Velocity":44,"Duration":129310,"SoundDuration":129310,"Delta":286573495},{"NoteNumber":50,"Velocity":44,"Duration":129310,"SoundDuration":129310,"Delta":286573495},{"NoteNumber":56,"Velocity":44,"Duration":129310,"SoundDuration":129310,"Delta":286573495},{"NoteNumber":65,"Velocity":55,"Duration":255318,"SoundDuration":255318,"Delta":286832116},{"NoteNumber":58,"Velocity":52,"Duration":757490,"SoundDuration":757490,"Delta":286832116},{"NoteNumber":70,"Velocity":52,"Duration":757490,"SoundDuration":757490,"Delta":286832116},{"NoteNumber":39,"Velocity":46,"Duration":255318,"SoundDuration":255318,"Delta":286832116},{"NoteNumber":67,"Velocity":46,"Duration":123966,"SoundDuration":123966,"Delta":287087435},{"NoteNumber":46,"Velocity":37,"Duration":185950,"SoundDuration":185950,"Delta":287087435},{"NoteNumber":51,"Velocity":37,"Duration":185950,"SoundDuration":185950,"Delta":287087435},{"NoteNumber":55,"Velocity":37,"Duration":185950,"SoundDuration":185950,"Delta":287087435},{"NoteNumber":65,"Velocity":44,"Duration":123966,"SoundDuration":123966,"Delta":287211402},{"NoteNumber":63,"Velocity":40,"Duration":127118,"SoundDuration":127118,"Delta":287335369},{"NoteNumber":55,"Velocity":41,"Duration":127118,"SoundDuration":127118,"Delta":287335369},{"NoteNumber":51,"Velocity":41,"Duration":127118,"SoundDuration":127118,"Delta":287335369},{"NoteNumber":46,"Velocity":41,"Duration":127118,"SoundDuration":127118,"Delta":287335369},{"NoteNumber":62,"Velocity":50,"Duration":121457,"SoundDuration":121457,"Delta":287589606},{"NoteNumber":72,"Velocity":50,"Duration":60728,"SoundDuration":60728,"Delta":287589606},{"NoteNumber":39,"Velocity":46,"Duration":242914,"SoundDuration":242914,"Delta":287589606},{"NoteNumber":72,"Velocity":48,"Duration":60728,"SoundDuration":60728,"Delta":287711064},{"NoteNumber":72,"Velocity":50,"Duration":60728,"SoundDuration":60728,"Delta":287832521},{"NoteNumber":56,"Velocity":36,"Duration":182186,"SoundDuration":182186,"Delta":287832521},{"NoteNumber":53,"Velocity":36,"Duration":182186,"SoundDuration":182186,"Delta":287832521},{"NoteNumber":46,"Velocity":36,"Duration":182186,"SoundDuration":182186,"Delta":287832521},{"NoteNumber":72,"Velocity":47,"Duration":60728,"SoundDuration":60728,"Delta":287953979},{"NoteNumber":72,"Velocity":44,"Duration":60728,"SoundDuration":60728,"Delta":288075436},{"NoteNumber":46,"Velocity":39,"Duration":182186,"SoundDuration":182186,"Delta":288075436},{"NoteNumber":53,"Velocity":39,"Duration":182186,"SoundDuration":182186,"Delta":288075436},{"NoteNumber":56,"Velocity":39,"Duration":182186,"SoundDuration":182186,"Delta":288075436},{"NoteNumber":72,"Velocity":47,"Duration":60728,"SoundDuration":60728,"Delta":288196894},{"NoteNumber":72,"Velocity":48,"Duration":119047,"SoundDuration":119047,"Delta":288318351},{"NoteNumber":39,"Velocity":43,"Duration":238094,"SoundDuration":238094,"Delta":288318351},{"NoteNumber":70,"Velocity":45,"Duration":119047,"SoundDuration":119047,"Delta":288437399},{"NoteNumber":67,"Velocity":47,"Duration":119047,"SoundDuration":119047,"Delta":288556446},{"NoteNumber":46,"Velocity":33,"Duration":178571,"SoundDuration":178571,"Delta":288556446},{"NoteNumber":51,"Velocity":33,"Duration":178571,"SoundDuration":178571,"Delta":288556446},{"NoteNumber":55,"Velocity":33,"Duration":178571,"SoundDuration":178571,"Delta":288556446},{"NoteNumber":63,"Velocity":42,"Duration":119047,"SoundDuration":119047,"Delta":288675494},{"NoteNumber":58,"Velocity":46,"Duration":119047,"SoundDuration":119047,"Delta":288794541},{"NoteNumber":55,"Velocity":36,"Duration":119047,"SoundDuration":119047,"Delta":288794541},{"NoteNumber":51,"Velocity":36,"Duration":119047,"SoundDuration":119047,"Delta":288794541},{"NoteNumber":46,"Velocity":36,"Duration":119047,"SoundDuration":119047,"Delta":288794541},{"NoteNumber":62,"Velocity":52,"Duration":121951,"SoundDuration":121951,"Delta":289032636},{"NoteNumber":71,"Velocity":52,"Duration":60975,"SoundDuration":60975,"Delta":289032636},{"NoteNumber":39,"Velocity":46,"Duration":243902,"SoundDuration":243902,"Delta":289032636},{"NoteNumber":71,"Velocity":50,"Duration":60975,"SoundDuration":60975,"Delta":289154588},{"NoteNumber":71,"Velocity":53,"Duration":60975,"SoundDuration":60975,"Delta":289276539},{"NoteNumber":56,"Velocity":40,"Duration":182926,"SoundDuration":182926,"Delta":289276539},{"NoteNumber":53,"Velocity":40,"Duration":182926,"SoundDuration":182926,"Delta":289276539},{"NoteNumber":46,"Velocity":40,"Duration":182926,"SoundDuration":182926,"Delta":289276539},{"NoteNumber":71,"Velocity":51,"Duration":60975,"SoundDuration":60975,"Delta":289398490},{"NoteNumber":71,"Velocity":48,"Duration":60975,"SoundDuration":60975,"Delta":289520441},{"NoteNumber":46,"Velocity":43,"Duration":182926,"SoundDuration":182926,"Delta":289520441},{"NoteNumber":53,"Velocity":43,"Duration":182926,"SoundDuration":182926,"Delta":289520441},{"NoteNumber":56,"Velocity":43,"Duration":182926,"SoundDuration":182926,"Delta":289520441},{"NoteNumber":71,"Velocity":53,"Duration":60975,"SoundDuration":60975,"Delta":289642393},{"NoteNumber":71,"Velocity":56,"Duration":119522,"SoundDuration":119522,"Delta":289764344},{"NoteNumber":39,"Velocity":48,"Duration":239043,"SoundDuration":239043,"Delta":289764344},{"NoteNumber":70,"Velocity":53,"Duration":119521,"SoundDuration":119521,"Delta":289883866},{"NoteNumber":68,"Velocity":57,"Duration":119522,"SoundDuration":119522,"Delta":290003388},{"NoteNumber":46,"Velocity":42,"Duration":179282,"SoundDuration":179282,"Delta":290003388},{"NoteNumber":53,"Velocity":42,"Duration":179282,"SoundDuration":179282,"Delta":290003388},{"NoteNumber":56,"Velocity":42,"Duration":179282,"SoundDuration":179282,"Delta":290003388},{"NoteNumber":65,"Velocity":56,"Duration":119522,"SoundDuration":119522,"Delta":290122910},{"NoteNumber":62,"Velocity":55,"Duration":119521,"SoundDuration":119521,"Delta":290242432},{"NoteNumber":56,"Velocity":44,"Duration":119521,"SoundDuration":119521,"Delta":290242432},{"NoteNumber":53,"Velocity":44,"Duration":119521,"SoundDuration":119521,"Delta":290242432},{"NoteNumber":46,"Velocity":44,"Duration":119521,"SoundDuration":119521,"Delta":290242432},{"NoteNumber":79,"Velocity":73,"Duration":116074,"SoundDuration":116074,"Delta":290481476},{"NoteNumber":39,"Velocity":56,"Duration":231829,"SoundDuration":231829,"Delta":290481476},{"NoteNumber":77,"Velocity":59,"Duration":115755,"SoundDuration":115755,"Delta":290597550},{"NoteNumber":74,"Velocity":64,"Duration":116204,"SoundDuration":116204,"Delta":290713306},{"NoteNumber":46,"Velocity":49,"Duration":174569,"SoundDuration":174569,"Delta":290713306},{"NoteNumber":53,"Velocity":49,"Duration":174569,"SoundDuration":174569,"Delta":290713306},{"NoteNumber":56,"Velocity":49,"Duration":174569,"SoundDuration":174569,"Delta":290713306},{"NoteNumber":71,"Velocity":59,"Duration":116731,"SoundDuration":116731,"Delta":290829510},{"NoteNumber":68,"Velocity":58,"Duration":117187,"SoundDuration":117187,"Delta":290946241},{"NoteNumber":56,"Velocity":51,"Duration":117187,"SoundDuration":117187,"Delta":290946241},{"NoteNumber":53,"Velocity":51,"Duration":117187,"SoundDuration":117187,"Delta":290946241},{"NoteNumber":46,"Velocity":51,"Duration":117187,"SoundDuration":117187,"Delta":290946241},{"NoteNumber":83,"Velocity":80,"Duration":116354,"SoundDuration":116354,"Delta":291180848},{"NoteNumber":39,"Velocity":67,"Duration":233161,"SoundDuration":233161,"Delta":291180848},{"NoteNumber":80,"Velocity":67,"Duration":116807,"SoundDuration":116807,"Delta":291297202},{"NoteNumber":77,"Velocity":71,"Duration":117264,"SoundDuration":117264,"Delta":291414010},{"NoteNumber":46,"Velocity":56,"Duration":176087,"SoundDuration":176087,"Delta":291414010},{"NoteNumber":53,"Velocity":56,"Duration":176087,"SoundDuration":176087,"Delta":291414010},{"NoteNumber":56,"Velocity":56,"Duration":176087,"SoundDuration":176087,"Delta":291414010},{"NoteNumber":74,"Velocity":67,"Duration":117724,"SoundDuration":117724,"Delta":291531274},{"NoteNumber":71,"Velocity":68,"Duration":118188,"SoundDuration":118188,"Delta":291648998},{"NoteNumber":56,"Velocity":60,"Duration":118188,"SoundDuration":118188,"Delta":291648998},{"NoteNumber":53,"Velocity":60,"Duration":118188,"SoundDuration":118188,"Delta":291648998},{"NoteNumber":46,"Velocity":60,"Duration":118188,"SoundDuration":118188,"Delta":291648998},{"NoteNumber":95,"Velocity":90,"Duration":186335,"SoundDuration":186335,"Delta":291885842},{"NoteNumber":39,"Velocity":67,"Duration":342585,"SoundDuration":342585,"Delta":291885842},{"NoteNumber":51,"Velocity":67,"Duration":342585,"SoundDuration":342585,"Delta":291885842},{"NoteNumber":91,"Velocity":74,"Duration":156250,"SoundDuration":156250,"Delta":292072177},{"NoteNumber":95,"Velocity":77,"Duration":141509,"SoundDuration":141509,"Delta":292228427},{"NoteNumber":62,"Velocity":61,"Duration":258240,"SoundDuration":258240,"Delta":292228427},{"NoteNumber":59,"Velocity":61,"Duration":258240,"SoundDuration":258240,"Delta":292228427},{"NoteNumber":56,"Velocity":61,"Duration":258240,"SoundDuration":258240,"Delta":292228427},{"NoteNumber":51,"Velocity":61,"Duration":258240,"SoundDuration":258240,"Delta":292228427},{"NoteNumber":92,"Velocity":76,"Duration":116731,"SoundDuration":116731,"Delta":292369937},{"NoteNumber":89,"Velocity":74,"Duration":116731,"SoundDuration":116731,"Delta":292486668},{"NoteNumber":86,"Velocity":72,"Duration":116731,"SoundDuration":116731,"Delta":292603400},{"NoteNumber":83,"Velocity":80,"Duration":115384,"SoundDuration":115384,"Delta":292720131},{"NoteNumber":62,"Velocity":63,"Duration":173076,"SoundDuration":173076,"Delta":292720131},{"NoteNumber":59,"Velocity":63,"Duration":173076,"SoundDuration":173076,"Delta":292720131},{"NoteNumber":56,"Velocity":63,"Duration":173076,"SoundDuration":173076,"Delta":292720131},{"NoteNumber":51,"Velocity":63,"Duration":173076,"SoundDuration":173076,"Delta":292720131},{"NoteNumber":79,"Velocity":73,"Duration":115384,"SoundDuration":115384,"Delta":292835516},{"NoteNumber":83,"Velocity":77,"Duration":114942,"SoundDuration":114942,"Delta":292950900},{"NoteNumber":62,"Velocity":58,"Duration":172413,"SoundDuration":172413,"Delta":292950900},{"NoteNumber":59,"Velocity":58,"Duration":172413,"SoundDuration":172413,"Delta":292950900},{"NoteNumber":56,"Velocity":58,"Duration":172413,"SoundDuration":172413,"Delta":292950900},{"NoteNumber":51,"Velocity":58,"Duration":172413,"SoundDuration":172413,"Delta":292950900},{"NoteNumber":80,"Velocity":76,"Duration":114942,"SoundDuration":114942,"Delta":293065843},{"NoteNumber":77,"Velocity":76,"Duration":114503,"SoundDuration":114503,"Delta":293180785},{"NoteNumber":74,"Velocity":75,"Duration":114503,"SoundDuration":114503,"Delta":293295289},{"NoteNumber":71,"Velocity":80,"Duration":112781,"SoundDuration":112781,"Delta":293409793},{"NoteNumber":62,"Velocity":63,"Duration":169173,"SoundDuration":169173,"Delta":293409793},{"NoteNumber":59,"Velocity":63,"Duration":169173,"SoundDuration":169173,"Delta":293409793},{"NoteNumber":56,"Velocity":63,"Duration":169173,"SoundDuration":169173,"Delta":293409793},{"NoteNumber":51,"Velocity":63,"Duration":169173,"SoundDuration":169173,"Delta":293409793},{"NoteNumber":67,"Velocity":73,"Duration":112782,"SoundDuration":112782,"Delta":293522575},{"NoteNumber":70,"Velocity":75,"Duration":112781,"SoundDuration":112781,"Delta":293635357},{"NoteNumber":62,"Velocity":60,"Duration":169173,"SoundDuration":169173,"Delta":293635357},{"NoteNumber":59,"Velocity":60,"Duration":169173,"SoundDuration":169173,"Delta":293635357},{"NoteNumber":56,"Velocity":60,"Duration":169173,"SoundDuration":169173,"Delta":293635357},{"NoteNumber":51,"Velocity":60,"Duration":169173,"SoundDuration":169173,"Delta":293635357},{"NoteNumber":68,"Velocity":74,"Duration":112781,"SoundDuration":112781,"Delta":293748139},{"NoteNumber":65,"Velocity":73,"Duration":112782,"SoundDuration":112782,"Delta":293860921},{"NoteNumber":62,"Velocity":72,"Duration":112781,"SoundDuration":112781,"Delta":293973703},{"NoteNumber":59,"Velocity":80,"Duration":112781,"SoundDuration":112781,"Delta":294086485},{"NoteNumber":55,"Velocity":73,"Duration":112782,"SoundDuration":112782,"Delta":294199267},{"NoteNumber":59,"Velocity":76,"Duration":112854,"SoundDuration":112854,"Delta":294312049},{"NoteNumber":56,"Velocity":75,"Duration":114360,"SoundDuration":114360,"Delta":294424903},{"NoteNumber":53,"Velocity":75,"Duration":115981,"SoundDuration":115981,"Delta":294539263},{"NoteNumber":50,"Velocity":74,"Duration":117650,"SoundDuration":117650,"Delta":294655245},{"NoteNumber":51,"Velocity":89,"Duration":118577,"SoundDuration":118577,"Delta":294772895},{"NoteNumber":27,"Velocity":67,"Duration":118577,"SoundDuration":118577,"Delta":294772895},{"NoteNumber":39,"Velocity":67,"Duration":118577,"SoundDuration":118577,"Delta":294772895},{"NoteNumber":55,"Velocity":50,"Duration":104773,"SoundDuration":104773,"Delta":295010049},{"NoteNumber":56,"Velocity":50,"Duration":104287,"SoundDuration":104287,"Delta":295114822},{"NoteNumber":58,"Velocity":50,"Duration":103627,"SoundDuration":103627,"Delta":295219110},{"NoteNumber":60,"Velocity":50,"Duration":103093,"SoundDuration":103093,"Delta":295322737},{"NoteNumber":62,"Velocity":50,"Duration":102505,"SoundDuration":102505,"Delta":295425830},{"NoteNumber":63,"Velocity":50,"Duration":101925,"SoundDuration":101925,"Delta":295528336},{"NoteNumber":65,"Velocity":50,"Duration":101351,"SoundDuration":101351,"Delta":295630262},{"NoteNumber":67,"Velocity":50,"Duration":100840,"SoundDuration":100840,"Delta":295731613},{"NoteNumber":68,"Velocity":50,"Duration":100223,"SoundDuration":100223,"Delta":295832454},{"NoteNumber":69,"Velocity":50,"Duration":99723,"SoundDuration":99723,"Delta":295932677},{"NoteNumber":72,"Velocity":53,"Duration":103746,"SoundDuration":103746,"Delta":296032400},{"NoteNumber":70,"Velocity":50,"Duration":103329,"SoundDuration":103329,"Delta":296136147},{"NoteNumber":67,"Velocity":45,"Duration":102916,"SoundDuration":102916,"Delta":296239477},{"NoteNumber":63,"Velocity":33,"Duration":154227,"SoundDuration":154227,"Delta":296239477},{"NoteNumber":58,"Velocity":33,"Duration":154227,"SoundDuration":154227,"Delta":296239477},{"NoteNumber":55,"Velocity":33,"Duration":154227,"SoundDuration":154227,"Delta":296239477},{"NoteNumber":68,"Velocity":45,"Duration":102505,"SoundDuration":102505,"Delta":296342393},{"NoteNumber":70,"Velocity":46,"Duration":102098,"SoundDuration":102098,"Delta":296444899},{"NoteNumber":67,"Velocity":33,"Duration":152946,"SoundDuration":152946,"Delta":296444899},{"NoteNumber":63,"Velocity":33,"Duration":152946,"SoundDuration":152946,"Delta":296444899},{"NoteNumber":58,"Velocity":33,"Duration":152946,"SoundDuration":152946,"Delta":296444899},{"NoteNumber":55,"Velocity":33,"Duration":152946,"SoundDuration":152946,"Delta":296444899},{"NoteNumber":72,"Velocity":47,"Duration":101637,"SoundDuration":101637,"Delta":296546998},{"NoteNumber":74,"Velocity":50,"Duration":101237,"SoundDuration":101237,"Delta":296648635},{"NoteNumber":67,"Velocity":36,"Duration":151742,"SoundDuration":151742,"Delta":296648635},{"NoteNumber":63,"Velocity":36,"Duration":151742,"SoundDuration":151742,"Delta":296648635},{"NoteNumber":58,"Velocity":36,"Duration":151742,"SoundDuration":151742,"Delta":296648635},{"NoteNumber":55,"Velocity":36,"Duration":151742,"SoundDuration":151742,"Delta":296648635},{"NoteNumber":75,"Velocity":50,"Duration":100840,"SoundDuration":100840,"Delta":296749873},{"NoteNumber":77,"Velocity":50,"Duration":100446,"SoundDuration":100446,"Delta":296850713},{"NoteNumber":67,"Velocity":33,"Duration":150446,"SoundDuration":150446,"Delta":296850713},{"NoteNumber":63,"Velocity":33,"Duration":150446,"SoundDuration":150446,"Delta":296850713},{"NoteNumber":58,"Velocity":33,"Duration":150446,"SoundDuration":150446,"Delta":296850713},{"NoteNumber":55,"Velocity":33,"Duration":150446,"SoundDuration":150446,"Delta":296850713},{"NoteNumber":79,"Velocity":49,"Duration":99944,"SoundDuration":99944,"Delta":296951160},{"NoteNumber":80,"Velocity":51,"Duration":99557,"SoundDuration":99557,"Delta":297051105},{"NoteNumber":67,"Velocity":33,"Duration":149226,"SoundDuration":149226,"Delta":297051105},{"NoteNumber":63,"Velocity":33,"Duration":149226,"SoundDuration":149226,"Delta":297051105},{"NoteNumber":58,"Velocity":33,"Duration":149226,"SoundDuration":149226,"Delta":297051105},{"NoteNumber":55,"Velocity":33,"Duration":149226,"SoundDuration":149226,"Delta":297051105},{"NoteNumber":81,"Velocity":53,"Duration":99173,"SoundDuration":99173,"Delta":297150663},{"NoteNumber":84,"Velocity":59,"Duration":98792,"SoundDuration":98792,"Delta":297249836},{"NoteNumber":67,"Velocity":33,"Duration":148027,"SoundDuration":148027,"Delta":297249836},{"NoteNumber":63,"Velocity":33,"Duration":148027,"SoundDuration":148027,"Delta":297249836},{"NoteNumber":58,"Velocity":33,"Duration":148027,"SoundDuration":148027,"Delta":297249836},{"NoteNumber":55,"Velocity":33,"Duration":148027,"SoundDuration":148027,"Delta":297249836},{"NoteNumber":82,"Velocity":55,"Duration":98414,"SoundDuration":98414,"Delta":297348629},{"NoteNumber":79,"Velocity":51,"Duration":97985,"SoundDuration":97985,"Delta":297447044},{"NoteNumber":67,"Velocity":30,"Duration":146845,"SoundDuration":146845,"Delta":297447044},{"NoteNumber":63,"Velocity":30,"Duration":146845,"SoundDuration":146845,"Delta":297447044},{"NoteNumber":58,"Velocity":30,"Duration":146845,"SoundDuration":146845,"Delta":297447044},{"NoteNumber":55,"Velocity":30,"Duration":146845,"SoundDuration":146845,"Delta":297447044},{"NoteNumber":80,"Velocity":50,"Duration":97614,"SoundDuration":97614,"Delta":297545030},{"NoteNumber":82,"Velocity":50,"Duration":97244,"SoundDuration":97244,"Delta":297642644},{"NoteNumber":67,"Velocity":30,"Duration":145736,"SoundDuration":145736,"Delta":297642644},{"NoteNumber":63,"Velocity":30,"Duration":145736,"SoundDuration":145736,"Delta":297642644},{"NoteNumber":58,"Velocity":30,"Duration":145736,"SoundDuration":145736,"Delta":297642644},{"NoteNumber":55,"Velocity":30,"Duration":145736,"SoundDuration":145736,"Delta":297642644},{"NoteNumber":84,"Velocity":51,"Duration":96878,"SoundDuration":96878,"Delta":297739889},{"NoteNumber":86,"Velocity":52,"Duration":96463,"SoundDuration":96463,"Delta":297836768},{"NoteNumber":67,"Velocity":33,"Duration":144694,"SoundDuration":144694,"Delta":297836768},{"NoteNumber":63,"Velocity":33,"Duration":144694,"SoundDuration":144694,"Delta":297836768},{"NoteNumber":58,"Velocity":33,"Duration":144694,"SoundDuration":144694,"Delta":297836768},{"NoteNumber":55,"Velocity":33,"Duration":144694,"SoundDuration":144694,"Delta":297836768},{"NoteNumber":87,"Velocity":53,"Duration":96462,"SoundDuration":96462,"Delta":297933231},{"NoteNumber":89,"Velocity":54,"Duration":96463,"SoundDuration":96463,"Delta":298029694},{"NoteNumber":67,"Velocity":29,"Duration":144694,"SoundDuration":144694,"Delta":298029694},{"NoteNumber":63,"Velocity":29,"Duration":144694,"SoundDuration":144694,"Delta":298029694},{"NoteNumber":58,"Velocity":29,"Duration":144694,"SoundDuration":144694,"Delta":298029694},{"NoteNumber":55,"Velocity":29,"Duration":144694,"SoundDuration":144694,"Delta":298029694},{"NoteNumber":91,"Velocity":55,"Duration":96462,"SoundDuration":96462,"Delta":298126157},{"NoteNumber":92,"Velocity":55,"Duration":96463,"SoundDuration":96463,"Delta":298222620},{"NoteNumber":67,"Velocity":29,"Duration":144694,"SoundDuration":144694,"Delta":298222620},{"NoteNumber":63,"Velocity":29,"Duration":144694,"SoundDuration":144694,"Delta":298222620},{"NoteNumber":58,"Velocity":29,"Duration":144694,"SoundDuration":144694,"Delta":298222620},{"NoteNumber":55,"Velocity":29,"Duration":144694,"SoundDuration":144694,"Delta":298222620},{"NoteNumber":93,"Velocity":56,"Duration":96462,"SoundDuration":96462,"Delta":298319083},{"NoteNumber":96,"Velocity":65,"Duration":96463,"SoundDuration":96463,"Delta":298415546},{"NoteNumber":67,"Velocity":33,"Duration":144694,"SoundDuration":144694,"Delta":298415546},{"NoteNumber":63,"Velocity":33,"Duration":144694,"SoundDuration":144694,"Delta":298415546},{"NoteNumber":58,"Velocity":33,"Duration":144694,"SoundDuration":144694,"Delta":298415546},{"NoteNumber":55,"Velocity":33,"Duration":144694,"SoundDuration":144694,"Delta":298415546},{"NoteNumber":94,"Velocity":58,"Duration":96462,"SoundDuration":96462,"Delta":298512009},{"NoteNumber":91,"Velocity":55,"Duration":96463,"SoundDuration":96463,"Delta":298608472},{"NoteNumber":67,"Velocity":31,"Duration":144694,"SoundDuration":144694,"Delta":298608472},{"NoteNumber":63,"Velocity":31,"Duration":144694,"SoundDuration":144694,"Delta":298608472},{"NoteNumber":58,"Velocity":31,"Duration":144694,"SoundDuration":144694,"Delta":298608472},{"NoteNumber":55,"Velocity":31,"Duration":144694,"SoundDuration":144694,"Delta":298608472},{"NoteNumber":92,"Velocity":51,"Duration":96462,"SoundDuration":96462,"Delta":298704935},{"NoteNumber":93,"Velocity":53,"Duration":96463,"SoundDuration":96463,"Delta":298801398},{"NoteNumber":67,"Velocity":31,"Duration":144694,"SoundDuration":144694,"Delta":298801398},{"NoteNumber":63,"Velocity":31,"Duration":144694,"SoundDuration":144694,"Delta":298801398},{"NoteNumber":58,"Velocity":31,"Duration":144694,"SoundDuration":144694,"Delta":298801398},{"NoteNumber":55,"Velocity":31,"Duration":144694,"SoundDuration":144694,"Delta":298801398},{"NoteNumber":94,"Velocity":55,"Duration":96462,"SoundDuration":96462,"Delta":298897861},{"NoteNumber":96,"Velocity":64,"Duration":96463,"SoundDuration":96463,"Delta":298994324},{"NoteNumber":67,"Velocity":33,"Duration":144694,"SoundDuration":144694,"Delta":298994324},{"NoteNumber":63,"Velocity":33,"Duration":144694,"SoundDuration":144694,"Delta":298994324},{"NoteNumber":58,"Velocity":33,"Duration":144694,"SoundDuration":144694,"Delta":298994324},{"NoteNumber":55,"Velocity":33,"Duration":144694,"SoundDuration":144694,"Delta":298994324},{"NoteNumber":94,"Velocity":59,"Duration":96462,"SoundDuration":96462,"Delta":299090787},{"NoteNumber":91,"Velocity":51,"Duration":96463,"SoundDuration":96463,"Delta":299187250},{"NoteNumber":67,"Velocity":30,"Duration":144694,"SoundDuration":144694,"Delta":299187250},{"NoteNumber":63,"Velocity":30,"Duration":144694,"SoundDuration":144694,"Delta":299187250},{"NoteNumber":58,"Velocity":30,"Duration":144694,"SoundDuration":144694,"Delta":299187250},{"NoteNumber":55,"Velocity":30,"Duration":144694,"SoundDuration":144694,"Delta":299187250},{"NoteNumber":92,"Velocity":52,"Duration":96462,"SoundDuration":96462,"Delta":299283713},{"NoteNumber":93,"Velocity":54,"Duration":96463,"SoundDuration":96463,"Delta":299380176},{"NoteNumber":67,"Velocity":30,"Duration":144694,"SoundDuration":144694,"Delta":299380176},{"NoteNumber":63,"Velocity":30,"Duration":144694,"SoundDuration":144694,"Delta":299380176},{"NoteNumber":58,"Velocity":30,"Duration":144694,"SoundDuration":144694,"Delta":299380176},{"NoteNumber":55,"Velocity":30,"Duration":144694,"SoundDuration":144694,"Delta":299380176},{"NoteNumber":94,"Velocity":55,"Duration":96462,"SoundDuration":96462,"Delta":299476639},{"NoteNumber":99,"Velocity":57,"Duration":93750,"SoundDuration":93750,"Delta":299573102},{"NoteNumber":67,"Velocity":33,"Duration":187500,"SoundDuration":187500,"Delta":299573102},{"NoteNumber":63,"Velocity":33,"Duration":187500,"SoundDuration":187500,"Delta":299573102},{"NoteNumber":58,"Velocity":33,"Duration":187500,"SoundDuration":187500,"Delta":299573102},{"NoteNumber":55,"Velocity":33,"Duration":187500,"SoundDuration":187500,"Delta":299573102},{"NoteNumber":91,"Velocity":50,"Duration":93750,"SoundDuration":93750,"Delta":299760602},{"NoteNumber":92,"Velocity":51,"Duration":93750,"SoundDuration":93750,"Delta":299854352},{"NoteNumber":93,"Velocity":53,"Duration":93750,"SoundDuration":93750,"Delta":299948102},{"NoteNumber":94,"Velocity":55,"Duration":93701,"SoundDuration":93701,"Delta":300041852},{"NoteNumber":99,"Velocity":57,"Duration":91185,"SoundDuration":91185,"Delta":300135553},{"NoteNumber":63,"Velocity":29,"Duration":182324,"SoundDuration":182324,"Delta":300135553},{"NoteNumber":51,"Velocity":29,"Duration":182324,"SoundDuration":182324,"Delta":300135553},{"NoteNumber":55,"Velocity":29,"Duration":182324,"SoundDuration":182324,"Delta":300135553},{"NoteNumber":91,"Velocity":46,"Duration":90909,"SoundDuration":90909,"Delta":300317878},{"NoteNumber":92,"Velocity":48,"Duration":90817,"SoundDuration":90817,"Delta":300408787},{"NoteNumber":93,"Velocity":50,"Duration":90634,"SoundDuration":90634,"Delta":300499604},{"NoteNumber":94,"Velocity":52,"Duration":90497,"SoundDuration":90497,"Delta":300590239},{"NoteNumber":99,"Velocity":54,"Duration":90361,"SoundDuration":90361,"Delta":300680737},{"NoteNumber":67,"Velocity":31,"Duration":180542,"SoundDuration":180542,"Delta":300680737},{"NoteNumber":63,"Velocity":31,"Duration":180542,"SoundDuration":180542,"Delta":300680737},{"NoteNumber":58,"Velocity":31,"Duration":180542,"SoundDuration":180542,"Delta":300680737},{"NoteNumber":55,"Velocity":31,"Duration":180542,"SoundDuration":180542,"Delta":300680737},{"NoteNumber":91,"Velocity":49,"Duration":90090,"SoundDuration":90090,"Delta":300861279},{"NoteNumber":92,"Velocity":50,"Duration":89820,"SoundDuration":89820,"Delta":300951369},{"NoteNumber":93,"Velocity":52,"Duration":89775,"SoundDuration":89775,"Delta":301041189},{"NoteNumber":94,"Velocity":53,"Duration":89552,"SoundDuration":89552,"Delta":301130965},{"NoteNumber":99,"Velocity":55,"Duration":89463,"SoundDuration":89463,"Delta":301220517},{"NoteNumber":58,"Velocity":33,"Duration":178749,"SoundDuration":178749,"Delta":301220517},{"NoteNumber":67,"Velocity":33,"Duration":178749,"SoundDuration":178749,"Delta":301220517},{"NoteNumber":70,"Velocity":33,"Duration":178749,"SoundDuration":178749,"Delta":301220517},{"NoteNumber":91,"Velocity":50,"Duration":89153,"SoundDuration":89153,"Delta":301399266},{"NoteNumber":92,"Velocity":52,"Duration":89020,"SoundDuration":89020,"Delta":301488419},{"NoteNumber":93,"Velocity":55,"Duration":88845,"SoundDuration":88845,"Delta":301577440},{"NoteNumber":94,"Velocity":57,"Duration":88757,"SoundDuration":88757,"Delta":301666285},{"NoteNumber":99,"Velocity":59,"Duration":88495,"SoundDuration":88495,"Delta":301755043},{"NoteNumber":63,"Velocity":36,"Duration":176990,"SoundDuration":176990,"Delta":301755043},{"NoteNumber":67,"Velocity":36,"Duration":176990,"SoundDuration":176990,"Delta":301755043},{"NoteNumber":75,"Velocity":36,"Duration":176990,"SoundDuration":176990,"Delta":301755043},{"NoteNumber":91,"Velocity":50,"Duration":88495,"SoundDuration":88495,"Delta":301932034},{"NoteNumber":92,"Velocity":51,"Duration":88495,"SoundDuration":88495,"Delta":302020529},{"NoteNumber":93,"Velocity":53,"Duration":88495,"SoundDuration":88495,"Delta":302109025},{"NoteNumber":94,"Velocity":55,"Duration":88366,"SoundDuration":88366,"Delta":302197520},{"NoteNumber":99,"Velocity":57,"Duration":91047,"SoundDuration":91047,"Delta":302285887},{"NoteNumber":58,"Velocity":35,"Duration":182744,"SoundDuration":182744,"Delta":302285887},{"NoteNumber":67,"Velocity":35,"Duration":182744,"SoundDuration":182744,"Delta":302285887},{"NoteNumber":70,"Velocity":35,"Duration":182744,"SoundDuration":182744,"Delta":302285887},{"NoteNumber":91,"Velocity":44,"Duration":92355,"SoundDuration":92355,"Delta":302468631},{"NoteNumber":92,"Velocity":46,"Duration":93071,"SoundDuration":93071,"Delta":302560986},{"NoteNumber":93,"Velocity":48,"Duration":93750,"SoundDuration":93750,"Delta":302654058},{"NoteNumber":94,"Velocity":50,"Duration":94439,"SoundDuration":94439,"Delta":302747809},{"NoteNumber":99,"Velocity":53,"Duration":95188,"SoundDuration":95188,"Delta":302842248},{"NoteNumber":79,"Velocity":33,"Duration":191086,"SoundDuration":191086,"Delta":302842248},{"NoteNumber":75,"Velocity":33,"Duration":191086,"SoundDuration":191086,"Delta":302842248},{"NoteNumber":67,"Velocity":33,"Duration":191086,"SoundDuration":191086,"Delta":302842248},{"NoteNumber":91,"Velocity":33,"Duration":96670,"SoundDuration":96670,"Delta":303033334},{"NoteNumber":92,"Velocity":35,"Duration":97403,"SoundDuration":97403,"Delta":303130005},{"NoteNumber":93,"Velocity":37,"Duration":98146,"SoundDuration":98146,"Delta":303227408},{"NoteNumber":94,"Velocity":39,"Duration":98956,"SoundDuration":98956,"Delta":303325555},{"NoteNumber":99,"Velocity":42,"Duration":106326,"SoundDuration":106326,"Delta":303424511},{"NoteNumber":82,"Velocity":28,"Duration":215489,"SoundDuration":215489,"Delta":303424511},{"NoteNumber":79,"Velocity":28,"Duration":215489,"SoundDuration":215489,"Delta":303424511},{"NoteNumber":70,"Velocity":28,"Duration":215489,"SoundDuration":215489,"Delta":303424511},{"NoteNumber":91,"Velocity":30,"Duration":112296,"SoundDuration":112296,"Delta":303640001},{"NoteNumber":92,"Velocity":31,"Duration":115466,"SoundDuration":115466,"Delta":303752297},{"NoteNumber":93,"Velocity":32,"Duration":118977,"SoundDuration":118977,"Delta":303867763},{"NoteNumber":94,"Velocity":33,"Duration":140187,"SoundDuration":140187,"Delta":303986740},{"NoteNumber":99,"Velocity":34,"Duration":125000,"SoundDuration":125000,"Delta":304126927},{"NoteNumber":91,"Velocity":34,"Duration":125000,"SoundDuration":125000,"Delta":304126927},{"NoteNumber":87,"Velocity":24,"Duration":250000,"SoundDuration":250000,"Delta":304126927},{"NoteNumber":79,"Velocity":24,"Duration":250000,"SoundDuration":250000,"Delta":304126927},{"NoteNumber":91,"Velocity":92,"Duration":140187,"SoundDuration":140187,"Delta":305626927},{"NoteNumber":87,"Velocity":92,"Duration":140187,"SoundDuration":140187,"Delta":305626927},{"NoteNumber":82,"Velocity":78,"Duration":140187,"SoundDuration":140187,"Delta":305626927},{"NoteNumber":79,"Velocity":78,"Duration":140187,"SoundDuration":140187,"Delta":305626927},{"NoteNumber":63,"Velocity":76,"Duration":140187,"SoundDuration":140187,"Delta":305626927},{"NoteNumber":70,"Velocity":76,"Duration":140187,"SoundDuration":140187,"Delta":305626927},{"NoteNumber":75,"Velocity":90,"Duration":140187,"SoundDuration":140187,"Delta":305626927},{"NoteNumber":79,"Velocity":92,"Duration":157894,"SoundDuration":157894,"Delta":306468049},{"NoteNumber":75,"Velocity":92,"Duration":157894,"SoundDuration":157894,"Delta":306468049},{"NoteNumber":70,"Velocity":78,"Duration":157894,"SoundDuration":157894,"Delta":306468049},{"NoteNumber":67,"Velocity":78,"Duration":157894,"SoundDuration":157894,"Delta":306468049},{"NoteNumber":63,"Velocity":90,"Duration":157894,"SoundDuration":157894,"Delta":306468049},{"NoteNumber":58,"Velocity":76,"Duration":157894,"SoundDuration":157894,"Delta":306468049},{"NoteNumber":51,"Velocity":76,"Duration":157894,"SoundDuration":157894,"Delta":306468049},{"NoteNumber":79,"Velocity":92,"Duration":157894,"SoundDuration":157894,"Delta":306783839},{"NoteNumber":75,"Velocity":92,"Duration":157894,"SoundDuration":157894,"Delta":306783839},{"NoteNumber":70,"Velocity":78,"Duration":157894,"SoundDuration":157894,"Delta":306783839},{"NoteNumber":67,"Velocity":78,"Duration":157894,"SoundDuration":157894,"Delta":306783839},{"NoteNumber":51,"Velocity":76,"Duration":157894,"SoundDuration":157894,"Delta":306783839},{"NoteNumber":58,"Velocity":76,"Duration":157894,"SoundDuration":157894,"Delta":306783839},{"NoteNumber":63,"Velocity":90,"Duration":157894,"SoundDuration":157894,"Delta":306783839},{"NoteNumber":79,"Velocity":92,"Duration":212765,"SoundDuration":212765,"Delta":307099628},{"NoteNumber":75,"Velocity":92,"Duration":212765,"SoundDuration":212765,"Delta":307099628},{"NoteNumber":70,"Velocity":78,"Duration":212765,"SoundDuration":212765,"Delta":307099628},{"NoteNumber":67,"Velocity":78,"Duration":212765,"SoundDuration":212765,"Delta":307099628},{"NoteNumber":63,"Velocity":90,"Duration":212765,"SoundDuration":212765,"Delta":307099628},{"NoteNumber":58,"Velocity":76,"Duration":212765,"SoundDuration":212765,"Delta":307099628},{"NoteNumber":51,"Velocity":76,"Duration":212765,"SoundDuration":212765,"Delta":307099628},{"NoteNumber":51,"Velocity":113,"Duration":1607143,"SoundDuration":1607143,"Delta":307525160},{"NoteNumber":27,"Velocity":91,"Duration":1607143,"SoundDuration":1607143,"Delta":307525160},{"NoteNumber":39,"Velocity":101,"Duration":1607143,"SoundDuration":1607143,"Delta":307525160}],"license":{"name":"Creative Commons Attribution-ShareAlike 3.0 Germany","url":"http://creativecommons.org/licenses/by-sa/3.0/de/deed.en","text":"The MIDI, audio (MP3, OGG) and video files of Bernd Krueger are licensed under the cc-by-sa Germany License. This means that you can use and adapt the files, as long as you attribute the copyright holder.\n\nName: Bernd Krueger\nSource: http://www.piano-midi.de\n\nThe distribution or public playback of the files is only allowed under identical license conditions.\n\nThe scores are open source.","attribution":"MIDI files by Bernd Krueger (piano-midi.de)"}}