{"title":"Grieg: Lyrische Stücke Op. 43 Nr. 2 - Einsamer Wanderer","artist":"Piano","durationMs":99883,"midiSha256":"30cecf87880a7b6f9010d3075f4b1e8a09eb318526e5e5f2504d8994d31c16ff","midiObject":[{"NoteNumber":62,"Velocity":60,"Duration":3209554,"SoundDuration":3209554,"Delta":0},{"NoteNumber":71,"Velocity":60,"Duration":550458,"SoundDuration":550458,"Delta":0},{"NoteNumber":59,"Velocity":42,"Duration":3209554,"SoundDuration":3209554,"Delta":0},{"NoteNumber":69,"Velocity":64,"Duration":789951,"SoundDuration":789951,"Delta":550458},{"NoteNumber":57,"Velocity":47,"Duration":789951,"SoundDuration":789951,"Delta":550458},{"NoteNumber":67,"Velocity":51,"Duration":254237,"SoundDuration":254237,"Delta":1340410},{"NoteNumber":55,"Velocity":36,"Duration":254237,"SoundDuration":254237,"Delta":1340410},{"NoteNumber":66,"Velocity":49,"Duration":571428,"SoundDuration":571428,"Delta":1594647},{"NoteNumber":54,"Velocity":43,"Duration":571428,"SoundDuration":571428,"Delta":1594647},{"NoteNumber":66,"Velocity":53,"Duration":1043477,"SoundDuration":1043477,"Delta":2166076},{"NoteNumber":54,"Velocity":42,"Duration":1043477,"SoundDuration":1043477,"Delta":2166076},{"NoteNumber":62,"Velocity":60,"Duration":3200890,"SoundDuration":3200890,"Delta":3209554},{"NoteNumber":71,"Velocity":60,"Duration":337078,"SoundDuration":337078,"Delta":3209554},{"NoteNumber":59,"Velocity":42,"Duration":3200890,"SoundDuration":3200890,"Delta":3209554},{"NoteNumber":69,"Velocity":52,"Duration":112782,"SoundDuration":112782,"Delta":3546632},{"NoteNumber":71,"Velocity":52,"Duration":112782,"SoundDuration":112782,"Delta":3659414},{"NoteNumber":69,"Velocity":62,"Duration":778907,"SoundDuration":778907,"Delta":3772196},{"NoteNumber":57,"Velocity":47,"Duration":778907,"SoundDuration":778907,"Delta":3772196},{"NoteNumber":67,"Velocity":51,"Duration":247933,"SoundDuration":247933,"Delta":4551104},{"NoteNumber":55,"Velocity":36,"Duration":247933,"SoundDuration":247933,"Delta":4551104},{"NoteNumber":66,"Velocity":55,"Duration":576922,"SoundDuration":576922,"Delta":4799038},{"NoteNumber":54,"Velocity":43,"Duration":576922,"SoundDuration":576922,"Delta":4799038},{"NoteNumber":66,"Velocity":53,"Duration":1034482,"SoundDuration":1034482,"Delta":5375961},{"NoteNumber":54,"Velocity":42,"Duration":1034482,"SoundDuration":1034482,"Delta":5375961},{"NoteNumber":62,"Velocity":49,"Duration":265486,"SoundDuration":265486,"Delta":6410444},{"NoteNumber":47,"Velocity":40,"Duration":265486,"SoundDuration":265486,"Delta":6410444},{"NoteNumber":64,"Velocity":52,"Duration":300000,"SoundDuration":300000,"Delta":6675930},{"NoteNumber":49,"Velocity":44,"Duration":300000,"SoundDuration":300000,"Delta":6675930},{"NoteNumber":59,"Velocity":55,"Duration":1603414,"SoundDuration":1603414,"Delta":6975931},{"NoteNumber":66,"Velocity":55,"Duration":1603414,"SoundDuration":1603414,"Delta":6975931},{"NoteNumber":50,"Velocity":47,"Duration":1603414,"SoundDuration":1603414,"Delta":6975931},{"NoteNumber":42,"Velocity":61,"Duration":2164235,"SoundDuration":2164235,"Delta":8028887},{"NoteNumber":58,"Velocity":53,"Duration":782608,"SoundDuration":782608,"Delta":8579345},{"NoteNumber":66,"Velocity":53,"Duration":782608,"SoundDuration":782608,"Delta":8579345},{"NoteNumber":52,"Velocity":43,"Duration":782608,"SoundDuration":782608,"Delta":8579345},{"NoteNumber":61,"Velocity":51,"Duration":272727,"SoundDuration":272727,"Delta":9361953},{"NoteNumber":70,"Velocity":51,"Duration":272727,"SoundDuration":272727,"Delta":9361953},{"NoteNumber":54,"Velocity":41,"Duration":272727,"SoundDuration":272727,"Delta":9361953},{"NoteNumber":64,"Velocity":54,"Duration":272727,"SoundDuration":272727,"Delta":9634681},{"NoteNumber":73,"Velocity":54,"Duration":272727,"SoundDuration":272727,"Delta":9634681},{"NoteNumber":55,"Velocity":43,"Duration":558441,"SoundDuration":558441,"Delta":9634681},{"NoteNumber":66,"Velocity":56,"Duration":285714,"SoundDuration":285714,"Delta":9907408},{"NoteNumber":74,"Velocity":56,"Duration":285714,"SoundDuration":285714,"Delta":9907408},{"NoteNumber":64,"Velocity":52,"Duration":540540,"SoundDuration":540540,"Delta":10193122},{"NoteNumber":73,"Velocity":52,"Duration":540540,"SoundDuration":540540,"Delta":10193122},{"NoteNumber":47,"Velocity":42,"Duration":1116933,"SoundDuration":1116933,"Delta":10193122},{"NoteNumber":55,"Velocity":42,"Duration":540540,"SoundDuration":540540,"Delta":10193122},{"NoteNumber":62,"Velocity":45,"Duration":1924707,"SoundDuration":1924707,"Delta":10733663},{"NoteNumber":71,"Velocity":45,"Duration":1924707,"SoundDuration":1924707,"Delta":10733663},{"NoteNumber":54,"Velocity":39,"Duration":1924707,"SoundDuration":1924707,"Delta":10733663},{"NoteNumber":42,"Velocity":36,"Duration":674157,"SoundDuration":674157,"Delta":11310056},{"NoteNumber":35,"Velocity":33,"Duration":674157,"SoundDuration":674157,"Delta":11984213},{"NoteNumber":66,"Velocity":60,"Duration":3176337,"SoundDuration":3176337,"Delta":13332528},{"NoteNumber":74,"Velocity":60,"Duration":517241,"SoundDuration":517241,"Delta":13332528},{"NoteNumber":62,"Velocity":42,"Duration":3176337,"SoundDuration":3176337,"Delta":13332528},{"NoteNumber":73,"Velocity":71,"Duration":789951,"SoundDuration":789951,"Delta":13849770},{"NoteNumber":61,"Velocity":53,"Duration":789951,"SoundDuration":789951,"Delta":13849770},{"NoteNumber":71,"Velocity":55,"Duration":254237,"SoundDuration":254237,"Delta":14639721},{"NoteNumber":59,"Velocity":36,"Duration":254237,"SoundDuration":254237,"Delta":14639721},{"NoteNumber":69,"Velocity":57,"Duration":571428,"SoundDuration":571428,"Delta":14893958},{"NoteNumber":57,"Velocity":43,"Duration":571428,"SoundDuration":571428,"Delta":14893958},{"NoteNumber":69,"Velocity":59,"Duration":1043478,"SoundDuration":1043478,"Delta":15465387},{"NoteNumber":57,"Velocity":42,"Duration":1043478,"SoundDuration":1043478,"Delta":15465387},{"NoteNumber":66,"Velocity":60,"Duration":3200890,"SoundDuration":3200890,"Delta":16508865},{"NoteNumber":74,"Velocity":60,"Duration":337078,"SoundDuration":337078,"Delta":16508865},{"NoteNumber":62,"Velocity":42,"Duration":3200890,"SoundDuration":3200890,"Delta":16508865},{"NoteNumber":73,"Velocity":59,"Duration":112781,"SoundDuration":112781,"Delta":16845944},{"NoteNumber":74,"Velocity":62,"Duration":112781,"SoundDuration":112781,"Delta":16958726},{"NoteNumber":73,"Velocity":67,"Duration":778907,"SoundDuration":778907,"Delta":17071508},{"NoteNumber":61,"Velocity":47,"Duration":778907,"SoundDuration":778907,"Delta":17071508},{"NoteNumber":71,"Velocity":56,"Duration":247934,"SoundDuration":247934,"Delta":17850415},{"NoteNumber":59,"Velocity":36,"Duration":247934,"SoundDuration":247934,"Delta":17850415},{"NoteNumber":69,"Velocity":61,"Duration":576923,"SoundDuration":576923,"Delta":18098349},{"NoteNumber":57,"Velocity":43,"Duration":576923,"SoundDuration":576923,"Delta":18098349},{"NoteNumber":69,"Velocity":58,"Duration":1034483,"SoundDuration":1034483,"Delta":18675272},{"NoteNumber":57,"Velocity":42,"Duration":1034483,"SoundDuration":1034483,"Delta":18675272},{"NoteNumber":66,"Velocity":49,"Duration":265486,"SoundDuration":265486,"Delta":19709755},{"NoteNumber":50,"Velocity":40,"Duration":265486,"SoundDuration":265486,"Delta":19709755},{"NoteNumber":67,"Velocity":55,"Duration":300000,"SoundDuration":300000,"Delta":19975242},{"NoteNumber":52,"Velocity":44,"Duration":300000,"SoundDuration":300000,"Delta":19975242},{"NoteNumber":62,"Velocity":60,"Duration":1603414,"SoundDuration":1603414,"Delta":20275242},{"NoteNumber":69,"Velocity":60,"Duration":1603414,"SoundDuration":1603414,"Delta":20275242},{"NoteNumber":54,"Velocity":47,"Duration":1603414,"SoundDuration":1603414,"Delta":20275242},{"NoteNumber":45,"Velocity":61,"Duration":2164235,"SoundDuration":2164235,"Delta":21328198},{"NoteNumber":61,"Velocity":59,"Duration":782608,"SoundDuration":782608,"Delta":21878657},{"NoteNumber":69,"Velocity":59,"Duration":782608,"SoundDuration":782608,"Delta":21878657},{"NoteNumber":55,"Velocity":51,"Duration":782608,"SoundDuration":782608,"Delta":21878657},{"NoteNumber":64,"Velocity":54,"Duration":272727,"SoundDuration":272727,"Delta":22661265},{"NoteNumber":73,"Velocity":54,"Duration":272727,"SoundDuration":272727,"Delta":22661265},{"NoteNumber":57,"Velocity":41,"Duration":272727,"SoundDuration":272727,"Delta":22661265},{"NoteNumber":67,"Velocity":57,"Duration":272727,"SoundDuration":272727,"Delta":22933992},{"NoteNumber":76,"Velocity":57,"Duration":272727,"SoundDuration":272727,"Delta":22933992},{"NoteNumber":59,"Velocity":43,"Duration":558441,"SoundDuration":558441,"Delta":22933992},{"NoteNumber":69,"Velocity":60,"Duration":285714,"SoundDuration":285714,"Delta":23206720},{"NoteNumber":78,"Velocity":60,"Duration":285714,"SoundDuration":285714,"Delta":23206720},{"NoteNumber":67,"Velocity":56,"Duration":540540,"SoundDuration":540540,"Delta":23492434},{"NoteNumber":76,"Velocity":56,"Duration":540540,"SoundDuration":540540,"Delta":23492434},{"NoteNumber":50,"Velocity":42,"Duration":1116933,"SoundDuration":1116933,"Delta":23492434},{"NoteNumber":59,"Velocity":42,"Duration":540540,"SoundDuration":540540,"Delta":23492434},{"NoteNumber":66,"Velocity":48,"Duration":1882129,"SoundDuration":1882129,"Delta":24032974},{"NoteNumber":74,"Velocity":48,"Duration":1882129,"SoundDuration":1882129,"Delta":24032974},{"NoteNumber":57,"Velocity":39,"Duration":1882129,"SoundDuration":1882129,"Delta":24032974},{"NoteNumber":45,"Velocity":35,"Duration":674157,"SoundDuration":674157,"Delta":24609367},{"NoteNumber":38,"Velocity":31,"Duration":631578,"SoundDuration":631578,"Delta":25283525},{"NoteNumber":78,"Velocity":63,"Duration":530973,"SoundDuration":530973,"Delta":26546683},{"NoteNumber":66,"Velocity":49,"Duration":530973,"SoundDuration":530973,"Delta":26546683},{"NoteNumber":67,"Velocity":40,"Duration":1596720,"SoundDuration":1596720,"Delta":27077656},{"NoteNumber":70,"Velocity":46,"Duration":1596720,"SoundDuration":1596720,"Delta":27077656},{"NoteNumber":76,"Velocity":66,"Duration":796460,"SoundDuration":796460,"Delta":27077656},{"NoteNumber":64,"Velocity":49,"Duration":796460,"SoundDuration":796460,"Delta":27077656},{"NoteNumber":74,"Velocity":58,"Duration":258620,"SoundDuration":258620,"Delta":27874116},{"NoteNumber":62,"Velocity":45,"Duration":258620,"SoundDuration":258620,"Delta":27874116},{"NoteNumber":73,"Velocity":63,"Duration":541639,"SoundDuration":541639,"Delta":28132737},{"NoteNumber":61,"Velocity":49,"Duration":541639,"SoundDuration":541639,"Delta":28132737},{"NoteNumber":65,"Velocity":40,"Duration":1616894,"SoundDuration":1616894,"Delta":28674377},{"NoteNumber":68,"Velocity":45,"Duration":1616894,"SoundDuration":1616894,"Delta":28674377},{"NoteNumber":74,"Velocity":67,"Duration":796460,"SoundDuration":796460,"Delta":28674377},{"NoteNumber":62,"Velocity":57,"Duration":796460,"SoundDuration":796460,"Delta":28674377},{"NoteNumber":71,"Velocity":58,"Duration":263158,"SoundDuration":263158,"Delta":29470837},{"NoteNumber":59,"Velocity":46,"Duration":263158,"SoundDuration":263158,"Delta":29470837},{"NoteNumber":74,"Velocity":60,"Duration":557275,"SoundDuration":557275,"Delta":29733995},{"NoteNumber":62,"Velocity":49,"Duration":557275,"SoundDuration":557275,"Delta":29733995},{"NoteNumber":66,"Velocity":56,"Duration":2966780,"SoundDuration":2966780,"Delta":30291271},{"NoteNumber":70,"Velocity":56,"Duration":2966780,"SoundDuration":2966780,"Delta":30291271},{"NoteNumber":73,"Velocity":58,"Duration":2966780,"SoundDuration":2966780,"Delta":30291271},{"NoteNumber":61,"Velocity":44,"Duration":1111111,"SoundDuration":1111111,"Delta":30291271},{"NoteNumber":49,"Velocity":42,"Duration":618556,"SoundDuration":618556,"Delta":31402382},{"NoteNumber":42,"Velocity":42,"Duration":1237113,"SoundDuration":1237113,"Delta":32020938},{"NoteNumber":78,"Velocity":63,"Duration":530973,"SoundDuration":530973,"Delta":33258051},{"NoteNumber":66,"Velocity":49,"Duration":530973,"SoundDuration":530973,"Delta":33258051},{"NoteNumber":67,"Velocity":40,"Duration":1596720,"SoundDuration":1596720,"Delta":33789025},{"NoteNumber":70,"Velocity":45,"Duration":1596720,"SoundDuration":1596720,"Delta":33789025},{"NoteNumber":77,"Velocity":67,"Duration":796460,"SoundDuration":796460,"Delta":33789025},{"NoteNumber":65,"Velocity":49,"Duration":796460,"SoundDuration":796460,"Delta":33789025},{"NoteNumber":76,"Velocity":58,"Duration":258620,"SoundDuration":258620,"Delta":34585485},{"NoteNumber":64,"Velocity":45,"Duration":258620,"SoundDuration":258620,"Delta":34585485},{"NoteNumber":74,"Velocity":63,"Duration":258620,"SoundDuration":258620,"Delta":34844106},{"NoteNumber":62,"Velocity":49,"Duration":258620,"SoundDuration":258620,"Delta":34844106},{"NoteNumber":73,"Velocity":63,"Duration":283018,"SoundDuration":283018,"Delta":35102726},{"NoteNumber":61,"Velocity":49,"Duration":283018,"SoundDuration":283018,"Delta":35102726},{"NoteNumber":65,"Velocity":40,"Duration":1616894,"SoundDuration":1616894,"Delta":35385745},{"NoteNumber":68,"Velocity":40,"Duration":1616894,"SoundDuration":1616894,"Delta":35385745},{"NoteNumber":76,"Velocity":67,"Duration":796460,"SoundDuration":796460,"Delta":35385745},{"NoteNumber":64,"Velocity":57,"Duration":796460,"SoundDuration":796460,"Delta":35385745},{"NoteNumber":74,"Velocity":58,"Duration":263157,"SoundDuration":263157,"Delta":36182205},{"NoteNumber":62,"Velocity":46,"Duration":263157,"SoundDuration":263157,"Delta":36182205},{"NoteNumber":71,"Velocity":60,"Duration":263158,"SoundDuration":263158,"Delta":36445363},{"NoteNumber":59,"Velocity":49,"Duration":263158,"SoundDuration":263158,"Delta":36445363},{"NoteNumber":74,"Velocity":60,"Duration":294117,"SoundDuration":294117,"Delta":36708521},{"NoteNumber":62,"Velocity":49,"Duration":294117,"SoundDuration":294117,"Delta":36708521},{"NoteNumber":66,"Velocity":56,"Duration":2861742,"SoundDuration":2861742,"Delta":37002639},{"NoteNumber":70,"Velocity":56,"Duration":2861742,"SoundDuration":2861742,"Delta":37002639},{"NoteNumber":73,"Velocity":56,"Duration":2861742,"SoundDuration":2861742,"Delta":37002639},{"NoteNumber":61,"Velocity":44,"Duration":1111111,"SoundDuration":1111111,"Delta":37002639},{"NoteNumber":49,"Velocity":42,"Duration":618556,"SoundDuration":618556,"Delta":38113750},{"NoteNumber":42,"Velocity":42,"Duration":1132075,"SoundDuration":1132075,"Delta":38732307},{"NoteNumber":66,"Velocity":45,"Duration":555555,"SoundDuration":555555,"Delta":39864382},{"NoteNumber":71,"Velocity":45,"Duration":555555,"SoundDuration":555555,"Delta":39864382},{"NoteNumber":75,"Velocity":53,"Duration":277777,"SoundDuration":277777,"Delta":39864382},{"NoteNumber":61,"Velocity":44,"Duration":1666666,"SoundDuration":1666666,"Delta":39864382},{"NoteNumber":77,"Velocity":53,"Duration":277777,"SoundDuration":277777,"Delta":40142159},{"NoteNumber":66,"Velocity":47,"Duration":2894716,"SoundDuration":2894716,"Delta":40419937},{"NoteNumber":70,"Velocity":47,"Duration":2894716,"SoundDuration":2894716,"Delta":40419937},{"NoteNumber":73,"Velocity":56,"Duration":2894716,"SoundDuration":2894716,"Delta":40419937},{"NoteNumber":54,"Velocity":44,"Duration":1111111,"SoundDuration":1111111,"Delta":40419937},{"NoteNumber":49,"Velocity":42,"Duration":618556,"SoundDuration":618556,"Delta":41531048},{"NoteNumber":42,"Velocity":42,"Duration":1165049,"SoundDuration":1165049,"Delta":42149604},{"NoteNumber":66,"Velocity":45,"Duration":545454,"SoundDuration":545454,"Delta":43314654},{"NoteNumber":71,"Velocity":45,"Duration":545454,"SoundDuration":545454,"Delta":43314654},{"NoteNumber":75,"Velocity":53,"Duration":272727,"SoundDuration":272727,"Delta":43314654},{"NoteNumber":61,"Velocity":44,"Duration":1593669,"SoundDuration":1593669,"Delta":43314654},{"NoteNumber":77,"Velocity":53,"Duration":272727,"SoundDuration":272727,"Delta":43587381},{"NoteNumber":66,"Velocity":47,"Duration":1048214,"SoundDuration":1048214,"Delta":43860108},{"NoteNumber":70,"Velocity":47,"Duration":1048214,"SoundDuration":1048214,"Delta":43860108},{"NoteNumber":73,"Velocity":56,"Duration":530973,"SoundDuration":530973,"Delta":43860108},{"NoteNumber":54,"Velocity":44,"Duration":1048214,"SoundDuration":1048214,"Delta":43860108},{"NoteNumber":78,"Velocity":56,"Duration":517241,"SoundDuration":517241,"Delta":44391082},{"NoteNumber":66,"Velocity":45,"Duration":555555,"SoundDuration":555555,"Delta":44908323},{"NoteNumber":71,"Velocity":45,"Duration":555555,"SoundDuration":555555,"Delta":44908323},{"NoteNumber":75,"Velocity":53,"Duration":277777,"SoundDuration":277777,"Delta":44908323},{"NoteNumber":61,"Velocity":44,"Duration":1608267,"SoundDuration":1608267,"Delta":44908323},{"NoteNumber":77,"Velocity":53,"Duration":277777,"SoundDuration":277777,"Delta":45186101},{"NoteNumber":66,"Velocity":47,"Duration":1052712,"SoundDuration":1052712,"Delta":45463878},{"NoteNumber":70,"Velocity":47,"Duration":1052712,"SoundDuration":1052712,"Delta":45463878},{"NoteNumber":73,"Velocity":56,"Duration":530973,"SoundDuration":530973,"Delta":45463878},{"NoteNumber":54,"Velocity":44,"Duration":1052712,"SoundDuration":1052712,"Delta":45463878},{"NoteNumber":78,"Velocity":56,"Duration":521738,"SoundDuration":521738,"Delta":45994852},{"NoteNumber":66,"Velocity":45,"Duration":555555,"SoundDuration":555555,"Delta":46516591},{"NoteNumber":71,"Velocity":45,"Duration":555555,"SoundDuration":555555,"Delta":46516591},{"NoteNumber":75,"Velocity":53,"Duration":277777,"SoundDuration":277777,"Delta":46516591},{"NoteNumber":61,"Velocity":44,"Duration":1652017,"SoundDuration":1652017,"Delta":46516591},{"NoteNumber":77,"Velocity":53,"Duration":277777,"SoundDuration":277777,"Delta":46794369},{"NoteNumber":66,"Velocity":49,"Duration":1096461,"SoundDuration":1096461,"Delta":47072146},{"NoteNumber":70,"Velocity":49,"Duration":1096461,"SoundDuration":1096461,"Delta":47072146},{"NoteNumber":73,"Velocity":58,"Duration":535714,"SoundDuration":535714,"Delta":47072146},{"NoteNumber":54,"Velocity":46,"Duration":1096461,"SoundDuration":1096461,"Delta":47072146},{"NoteNumber":78,"Velocity":60,"Duration":560747,"SoundDuration":560747,"Delta":47607861},{"NoteNumber":66,"Velocity":60,"Duration":1091720,"SoundDuration":1091720,"Delta":48168608},{"NoteNumber":70,"Velocity":60,"Duration":1091720,"SoundDuration":1091720,"Delta":48168608},{"NoteNumber":73,"Velocity":71,"Duration":530973,"SoundDuration":530973,"Delta":48168608},{"NoteNumber":47,"Velocity":56,"Duration":1091720,"SoundDuration":1091720,"Delta":48168608},{"NoteNumber":54,"Velocity":56,"Duration":1091720,"SoundDuration":1091720,"Delta":48168608},{"NoteNumber":78,"Velocity":73,"Duration":560747,"SoundDuration":560747,"Delta":48699582},{"NoteNumber":71,"Velocity":64,"Duration":1077294,"SoundDuration":1077294,"Delta":49260329},{"NoteNumber":75,"Velocity":64,"Duration":1077294,"SoundDuration":1077294,"Delta":49260329},{"NoteNumber":78,"Velocity":81,"Duration":521738,"SoundDuration":521738,"Delta":49260329},{"NoteNumber":40,"Velocity":59,"Duration":1077294,"SoundDuration":1077294,"Delta":49260329},{"NoteNumber":47,"Velocity":59,"Duration":1077294,"SoundDuration":1077294,"Delta":49260329},{"NoteNumber":83,"Velocity":82,"Duration":555555,"SoundDuration":555555,"Delta":49782068},{"NoteNumber":72,"Velocity":55,"Duration":2658667,"SoundDuration":2658667,"Delta":50337624},{"NoteNumber":75,"Velocity":55,"Duration":2658667,"SoundDuration":2658667,"Delta":50337624},{"NoteNumber":81,"Velocity":86,"Duration":796460,"SoundDuration":796460,"Delta":50337624},{"NoteNumber":69,"Velocity":62,"Duration":796460,"SoundDuration":796460,"Delta":50337624},{"NoteNumber":79,"Velocity":72,"Duration":258620,"SoundDuration":258620,"Delta":51134084},{"NoteNumber":67,"Velocity":56,"Duration":258620,"SoundDuration":258620,"Delta":51134084},{"NoteNumber":78,"Velocity":77,"Duration":541639,"SoundDuration":541639,"Delta":51392705},{"NoteNumber":66,"Velocity":65,"Duration":541639,"SoundDuration":541639,"Delta":51392705},{"NoteNumber":78,"Velocity":79,"Duration":1061946,"SoundDuration":1061946,"Delta":51934344},{"NoteNumber":66,"Velocity":66,"Duration":1061946,"SoundDuration":1061946,"Delta":51934344},{"NoteNumber":71,"Velocity":63,"Duration":2152275,"SoundDuration":2152275,"Delta":52996291},{"NoteNumber":67,"Velocity":63,"Duration":555555,"SoundDuration":555555,"Delta":52996291},{"NoteNumber":79,"Velocity":63,"Duration":555555,"SoundDuration":555555,"Delta":52996291},{"NoteNumber":67,"Velocity":44,"Duration":2152275,"SoundDuration":2152275,"Delta":52996291},{"NoteNumber":78,"Velocity":70,"Duration":796460,"SoundDuration":796460,"Delta":53551847},{"NoteNumber":66,"Velocity":51,"Duration":796460,"SoundDuration":796460,"Delta":53551847},{"NoteNumber":76,"Velocity":48,"Duration":86206,"SoundDuration":86206,"Delta":54348307},{"NoteNumber":64,"Velocity":32,"Duration":258620,"SoundDuration":258620,"Delta":54348307},{"NoteNumber":78,"Velocity":48,"Duration":86206,"SoundDuration":86206,"Delta":54434514},{"NoteNumber":76,"Velocity":48,"Duration":86206,"SoundDuration":86206,"Delta":54520721},{"NoteNumber":74,"Velocity":59,"Duration":541639,"SoundDuration":541639,"Delta":54606928},{"NoteNumber":62,"Velocity":40,"Duration":541639,"SoundDuration":541639,"Delta":54606928},{"NoteNumber":67,"Velocity":42,"Duration":1224490,"SoundDuration":1224490,"Delta":55148567},{"NoteNumber":71,"Velocity":42,"Duration":1224490,"SoundDuration":1224490,"Delta":55148567},{"NoteNumber":74,"Velocity":50,"Duration":1224490,"SoundDuration":1224490,"Delta":55148567},{"NoteNumber":55,"Velocity":34,"Duration":1224490,"SoundDuration":1224490,"Delta":55148567},{"NoteNumber":62,"Velocity":40,"Duration":1219387,"SoundDuration":1219387,"Delta":55148567},{"NoteNumber":62,"Velocity":44,"Duration":265486,"SoundDuration":265486,"Delta":56373057},{"NoteNumber":47,"Velocity":39,"Duration":265486,"SoundDuration":265486,"Delta":56373057},{"NoteNumber":64,"Velocity":47,"Duration":299999,"SoundDuration":299999,"Delta":56638544},{"NoteNumber":49,"Velocity":42,"Duration":299999,"SoundDuration":299999,"Delta":56638544},{"NoteNumber":59,"Velocity":51,"Duration":1603414,"SoundDuration":1603414,"Delta":56938544},{"NoteNumber":66,"Velocity":51,"Duration":1603414,"SoundDuration":1603414,"Delta":56938544},{"NoteNumber":50,"Velocity":45,"Duration":1603414,"SoundDuration":1603414,"Delta":56938544},{"NoteNumber":42,"Velocity":54,"Duration":2164235,"SoundDuration":2164235,"Delta":57991500},{"NoteNumber":58,"Velocity":53,"Duration":782608,"SoundDuration":782608,"Delta":58541959},{"NoteNumber":66,"Velocity":53,"Duration":782608,"SoundDuration":782608,"Delta":58541959},{"NoteNumber":52,"Velocity":45,"Duration":782608,"SoundDuration":782608,"Delta":58541959},{"NoteNumber":61,"Velocity":48,"Duration":272727,"SoundDuration":272727,"Delta":59324567},{"NoteNumber":70,"Velocity":48,"Duration":272727,"SoundDuration":272727,"Delta":59324567},{"NoteNumber":54,"Velocity":36,"Duration":272727,"SoundDuration":272727,"Delta":59324567},{"NoteNumber":64,"Velocity":51,"Duration":272727,"SoundDuration":272727,"Delta":59597294},{"NoteNumber":73,"Velocity":51,"Duration":272727,"SoundDuration":272727,"Delta":59597294},{"NoteNumber":55,"Velocity":38,"Duration":558441,"SoundDuration":558441,"Delta":59597294},{"NoteNumber":66,"Velocity":54,"Duration":285714,"SoundDuration":285714,"Delta":59870022},{"NoteNumber":74,"Velocity":54,"Duration":285714,"SoundDuration":285714,"Delta":59870022},{"NoteNumber":64,"Velocity":50,"Duration":540540,"SoundDuration":540540,"Delta":60155736},{"NoteNumber":73,"Velocity":50,"Duration":540540,"SoundDuration":540540,"Delta":60155736},{"NoteNumber":47,"Velocity":37,"Duration":1116933,"SoundDuration":1116933,"Delta":60155736},{"NoteNumber":55,"Velocity":37,"Duration":540540,"SoundDuration":540540,"Delta":60155736},{"NoteNumber":62,"Velocity":43,"Duration":1856610,"SoundDuration":1856610,"Delta":60696276},{"NoteNumber":71,"Velocity":43,"Duration":1856610,"SoundDuration":1856610,"Delta":60696276},{"NoteNumber":54,"Velocity":35,"Duration":1856610,"SoundDuration":1856610,"Delta":60696276},{"NoteNumber":42,"Velocity":31,"Duration":674157,"SoundDuration":674157,"Delta":61272669},{"NoteNumber":35,"Velocity":28,"Duration":606060,"SoundDuration":606060,"Delta":61946827},{"NoteNumber":78,"Velocity":63,"Duration":530973,"SoundDuration":530973,"Delta":63158948},{"NoteNumber":66,"Velocity":49,"Duration":530973,"SoundDuration":530973,"Delta":63158948},{"NoteNumber":67,"Velocity":40,"Duration":1596720,"SoundDuration":1596720,"Delta":63689921},{"NoteNumber":70,"Velocity":46,"Duration":1596720,"SoundDuration":1596720,"Delta":63689921},{"NoteNumber":76,"Velocity":66,"Duration":796460,"SoundDuration":796460,"Delta":63689921},{"NoteNumber":64,"Velocity":49,"Duration":796460,"SoundDuration":796460,"Delta":63689921},{"NoteNumber":74,"Velocity":58,"Duration":258620,"SoundDuration":258620,"Delta":64486381},{"NoteNumber":62,"Velocity":45,"Duration":258620,"SoundDuration":258620,"Delta":64486381},{"NoteNumber":73,"Velocity":63,"Duration":541639,"SoundDuration":541639,"Delta":64745002},{"NoteNumber":61,"Velocity":49,"Duration":541639,"SoundDuration":541639,"Delta":64745002},{"NoteNumber":65,"Velocity":40,"Duration":1616893,"SoundDuration":1616893,"Delta":65286642},{"NoteNumber":68,"Velocity":45,"Duration":1616893,"SoundDuration":1616893,"Delta":65286642},{"NoteNumber":74,"Velocity":67,"Duration":796460,"SoundDuration":796460,"Delta":65286642},{"NoteNumber":62,"Velocity":57,"Duration":796460,"SoundDuration":796460,"Delta":65286642},{"NoteNumber":71,"Velocity":58,"Duration":263158,"SoundDuration":263158,"Delta":66083102},{"NoteNumber":59,"Velocity":46,"Duration":263158,"SoundDuration":263158,"Delta":66083102},{"NoteNumber":74,"Velocity":60,"Duration":557275,"SoundDuration":557275,"Delta":66346260},{"NoteNumber":62,"Velocity":49,"Duration":557275,"SoundDuration":557275,"Delta":66346260},{"NoteNumber":66,"Velocity":56,"Duration":2911110,"SoundDuration":2911110,"Delta":66903536},{"NoteNumber":70,"Velocity":56,"Duration":2911110,"SoundDuration":2911110,"Delta":66903536},{"NoteNumber":73,"Velocity":58,"Duration":2911110,"SoundDuration":2911110,"Delta":66903536},{"NoteNumber":61,"Velocity":44,"Duration":1111110,"SoundDuration":1111110,"Delta":66903536},{"NoteNumber":49,"Velocity":42,"Duration":599999,"SoundDuration":599999,"Delta":68014647},{"NoteNumber":42,"Velocity":42,"Duration":1200000,"SoundDuration":1200000,"Delta":68614647},{"NoteNumber":78,"Velocity":63,"Duration":530973,"SoundDuration":530973,"Delta":69814647},{"NoteNumber":66,"Velocity":49,"Duration":530973,"SoundDuration":530973,"Delta":69814647},{"NoteNumber":67,"Velocity":40,"Duration":1596720,"SoundDuration":1596720,"Delta":70345620},{"NoteNumber":70,"Velocity":45,"Duration":1596720,"SoundDuration":1596720,"Delta":70345620},{"NoteNumber":77,"Velocity":67,"Duration":796460,"SoundDuration":796460,"Delta":70345620},{"NoteNumber":65,"Velocity":49,"Duration":796460,"SoundDuration":796460,"Delta":70345620},{"NoteNumber":76,"Velocity":58,"Duration":258620,"SoundDuration":258620,"Delta":71142080},{"NoteNumber":64,"Velocity":45,"Duration":258620,"SoundDuration":258620,"Delta":71142080},{"NoteNumber":74,"Velocity":63,"Duration":258620,"SoundDuration":258620,"Delta":71400701},{"NoteNumber":62,"Velocity":49,"Duration":258620,"SoundDuration":258620,"Delta":71400701},{"NoteNumber":73,"Velocity":63,"Duration":283018,"SoundDuration":283018,"Delta":71659322},{"NoteNumber":61,"Velocity":49,"Duration":283018,"SoundDuration":283018,"Delta":71659322},{"NoteNumber":65,"Velocity":40,"Duration":1616893,"SoundDuration":1616893,"Delta":71942341},{"NoteNumber":68,"Velocity":40,"Duration":1616893,"SoundDuration":1616893,"Delta":71942341},{"NoteNumber":76,"Velocity":67,"Duration":796460,"SoundDuration":796460,"Delta":71942341},{"NoteNumber":64,"Velocity":57,"Duration":796460,"SoundDuration":796460,"Delta":71942341},{"NoteNumber":74,"Velocity":58,"Duration":263158,"SoundDuration":263158,"Delta":72738801},{"NoteNumber":62,"Velocity":46,"Duration":263158,"SoundDuration":263158,"Delta":72738801},{"NoteNumber":71,"Velocity":60,"Duration":263157,"SoundDuration":263157,"Delta":73001959},{"NoteNumber":59,"Velocity":49,"Duration":263157,"SoundDuration":263157,"Delta":73001959},{"NoteNumber":74,"Velocity":60,"Duration":294117,"SoundDuration":294117,"Delta":73265117},{"NoteNumber":62,"Velocity":49,"Duration":294117,"SoundDuration":294117,"Delta":73265117},{"NoteNumber":66,"Velocity":56,"Duration":2906138,"SoundDuration":2906138,"Delta":73559235},{"NoteNumber":70,"Velocity":56,"Duration":2906138,"SoundDuration":2906138,"Delta":73559235},{"NoteNumber":73,"Velocity":56,"Duration":2906138,"SoundDuration":2906138,"Delta":73559235},{"NoteNumber":61,"Velocity":44,"Duration":1111110,"SoundDuration":1111110,"Delta":73559235},{"NoteNumber":49,"Velocity":42,"Duration":618556,"SoundDuration":618556,"Delta":74670346},{"NoteNumber":42,"Velocity":42,"Duration":1176471,"SoundDuration":1176471,"Delta":75288902},{"NoteNumber":66,"Velocity":45,"Duration":555555,"SoundDuration":555555,"Delta":76465373},{"NoteNumber":71,"Velocity":45,"Duration":555555,"SoundDuration":555555,"Delta":76465373},{"NoteNumber":75,"Velocity":53,"Duration":277777,"SoundDuration":277777,"Delta":76465373},{"NoteNumber":61,"Velocity":44,"Duration":1666666,"SoundDuration":1666666,"Delta":76465373},{"NoteNumber":77,"Velocity":53,"Duration":277777,"SoundDuration":277777,"Delta":76743151},{"NoteNumber":66,"Velocity":47,"Duration":2872524,"SoundDuration":2872524,"Delta":77020929},{"NoteNumber":70,"Velocity":47,"Duration":2872524,"SoundDuration":2872524,"Delta":77020929},{"NoteNumber":73,"Velocity":56,"Duration":2872524,"SoundDuration":2872524,"Delta":77020929},{"NoteNumber":54,"Velocity":44,"Duration":1111110,"SoundDuration":1111110,"Delta":77020929},{"NoteNumber":49,"Velocity":42,"Duration":618556,"SoundDuration":618556,"Delta":78132040},{"NoteNumber":42,"Velocity":42,"Duration":1142857,"SoundDuration":1142857,"Delta":78750596},{"NoteNumber":66,"Velocity":45,"Duration":545454,"SoundDuration":545454,"Delta":79893453},{"NoteNumber":71,"Velocity":45,"Duration":545454,"SoundDuration":545454,"Delta":79893453},{"NoteNumber":75,"Velocity":53,"Duration":272727,"SoundDuration":272727,"Delta":79893453},{"NoteNumber":61,"Velocity":44,"Duration":1589248,"SoundDuration":1589248,"Delta":79893453},{"NoteNumber":77,"Velocity":53,"Duration":272727,"SoundDuration":272727,"Delta":80166180},{"NoteNumber":66,"Velocity":47,"Duration":1043794,"SoundDuration":1043794,"Delta":80438908},{"NoteNumber":70,"Velocity":47,"Duration":1043794,"SoundDuration":1043794,"Delta":80438908},{"NoteNumber":73,"Velocity":56,"Duration":530973,"SoundDuration":530973,"Delta":80438908},{"NoteNumber":54,"Velocity":44,"Duration":1043794,"SoundDuration":1043794,"Delta":80438908},{"NoteNumber":78,"Velocity":56,"Duration":512820,"SoundDuration":512820,"Delta":80969881},{"NoteNumber":66,"Velocity":45,"Duration":540540,"SoundDuration":540540,"Delta":81482702},{"NoteNumber":71,"Velocity":45,"Duration":540540,"SoundDuration":540540,"Delta":81482702},{"NoteNumber":75,"Velocity":53,"Duration":270270,"SoundDuration":270270,"Delta":81482702},{"NoteNumber":61,"Velocity":44,"Duration":1584334,"SoundDuration":1584334,"Delta":81482702},{"NoteNumber":77,"Velocity":53,"Duration":270270,"SoundDuration":270270,"Delta":81752972},{"NoteNumber":66,"Velocity":47,"Duration":1043794,"SoundDuration":1043794,"Delta":82023242},{"NoteNumber":70,"Velocity":47,"Duration":1043794,"SoundDuration":1043794,"Delta":82023242},{"NoteNumber":73,"Velocity":56,"Duration":530973,"SoundDuration":530973,"Delta":82023242},{"NoteNumber":54,"Velocity":44,"Duration":1043794,"SoundDuration":1043794,"Delta":82023242},{"NoteNumber":78,"Velocity":56,"Duration":512820,"SoundDuration":512820,"Delta":82554216},{"NoteNumber":66,"Velocity":45,"Duration":545454,"SoundDuration":545454,"Delta":83067036},{"NoteNumber":71,"Velocity":45,"Duration":545454,"SoundDuration":545454,"Delta":83067036},{"NoteNumber":75,"Velocity":53,"Duration":272727,"SoundDuration":272727,"Delta":83067036},{"NoteNumber":61,"Velocity":44,"Duration":1641916,"SoundDuration":1641916,"Delta":83067036},{"NoteNumber":77,"Velocity":53,"Duration":272727,"SoundDuration":272727,"Delta":83339763},{"NoteNumber":66,"Velocity":49,"Duration":1096462,"SoundDuration":1096462,"Delta":83612491},{"NoteNumber":70,"Velocity":49,"Duration":1096462,"SoundDuration":1096462,"Delta":83612491},{"NoteNumber":73,"Velocity":58,"Duration":535714,"SoundDuration":535714,"Delta":83612491},{"NoteNumber":54,"Velocity":46,"Duration":1096462,"SoundDuration":1096462,"Delta":83612491},{"NoteNumber":78,"Velocity":60,"Duration":560747,"SoundDuration":560747,"Delta":84148205},{"NoteNumber":66,"Velocity":60,"Duration":1091721,"SoundDuration":1091721,"Delta":84708953},{"NoteNumber":70,"Velocity":60,"Duration":1091721,"SoundDuration":1091721,"Delta":84708953},{"NoteNumber":73,"Velocity":71,"Duration":530973,"SoundDuration":530973,"Delta":84708953},{"NoteNumber":47,"Velocity":56,"Duration":1091721,"SoundDuration":1091721,"Delta":84708953},{"NoteNumber":54,"Velocity":56,"Duration":1091721,"SoundDuration":1091721,"Delta":84708953},{"NoteNumber":78,"Velocity":73,"Duration":560747,"SoundDuration":560747,"Delta":85239926},{"NoteNumber":71,"Velocity":64,"Duration":1077294,"SoundDuration":1077294,"Delta":85800674},{"NoteNumber":75,"Velocity":64,"Duration":1077294,"SoundDuration":1077294,"Delta":85800674},{"NoteNumber":78,"Velocity":80,"Duration":521738,"SoundDuration":521738,"Delta":85800674},{"NoteNumber":40,"Velocity":59,"Duration":1077294,"SoundDuration":1077294,"Delta":85800674},{"NoteNumber":47,"Velocity":59,"Duration":1077294,"SoundDuration":1077294,"Delta":85800674},{"NoteNumber":83,"Velocity":82,"Duration":555555,"SoundDuration":555555,"Delta":86322413},{"NoteNumber":72,"Velocity":55,"Duration":2658667,"SoundDuration":2658667,"Delta":86877968},{"NoteNumber":75,"Velocity":55,"Duration":2658667,"SoundDuration":2658667,"Delta":86877968},{"NoteNumber":81,"Velocity":86,"Duration":796460,"SoundDuration":796460,"Delta":86877968},{"NoteNumber":69,"Velocity":62,"Duration":796059,"SoundDuration":796059,"Delta":86893455},{"NoteNumber":79,"Velocity":72,"Duration":258620,"SoundDuration":258620,"Delta":87674428},{"NoteNumber":67,"Velocity":56,"Duration":258620,"SoundDuration":258620,"Delta":87674428},{"NoteNumber":78,"Velocity":77,"Duration":541639,"SoundDuration":541639,"Delta":87933049},{"NoteNumber":66,"Velocity":65,"Duration":541639,"SoundDuration":541639,"Delta":87933049},{"NoteNumber":78,"Velocity":79,"Duration":1061947,"SoundDuration":1061947,"Delta":88474689},{"NoteNumber":66,"Velocity":66,"Duration":1061947,"SoundDuration":1061947,"Delta":88474689},{"NoteNumber":71,"Velocity":63,"Duration":2152275,"SoundDuration":2152275,"Delta":89536636},{"NoteNumber":67,"Velocity":63,"Duration":555555,"SoundDuration":555555,"Delta":89536636},{"NoteNumber":79,"Velocity":63,"Duration":555555,"SoundDuration":555555,"Delta":89536636},{"NoteNumber":67,"Velocity":44,"Duration":2152275,"SoundDuration":2152275,"Delta":89536636},{"NoteNumber":78,"Velocity":70,"Duration":796460,"SoundDuration":796460,"Delta":90092191},{"NoteNumber":66,"Velocity":51,"Duration":796460,"SoundDuration":796460,"Delta":90092191},{"NoteNumber":76,"Velocity":41,"Duration":86206,"SoundDuration":86206,"Delta":90888651},{"NoteNumber":64,"Velocity":27,"Duration":258620,"SoundDuration":258620,"Delta":90888651},{"NoteNumber":78,"Velocity":41,"Duration":86206,"SoundDuration":86206,"Delta":90974858},{"NoteNumber":76,"Velocity":40,"Duration":86206,"SoundDuration":86206,"Delta":91061065},{"NoteNumber":74,"Velocity":48,"Duration":541639,"SoundDuration":541639,"Delta":91147272},{"NoteNumber":62,"Velocity":33,"Duration":541639,"SoundDuration":541639,"Delta":91147272},{"NoteNumber":67,"Velocity":31,"Duration":1224490,"SoundDuration":1224490,"Delta":91688912},{"NoteNumber":71,"Velocity":31,"Duration":1224490,"SoundDuration":1224490,"Delta":91688912},{"NoteNumber":74,"Velocity":37,"Duration":1224490,"SoundDuration":1224490,"Delta":91688912},{"NoteNumber":55,"Velocity":25,"Duration":1224490,"SoundDuration":1224490,"Delta":91688912},{"NoteNumber":62,"Velocity":29,"Duration":1219387,"SoundDuration":1219387,"Delta":91688912},{"NoteNumber":62,"Velocity":39,"Duration":265486,"SoundDuration":265486,"Delta":92913402},{"NoteNumber":47,"Velocity":35,"Duration":265486,"SoundDuration":265486,"Delta":92913402},{"NoteNumber":64,"Velocity":42,"Duration":299999,"SoundDuration":299999,"Delta":93178888},{"NoteNumber":49,"Velocity":37,"Duration":299999,"SoundDuration":299999,"Delta":93178888},{"NoteNumber":59,"Velocity":45,"Duration":1679505,"SoundDuration":1679505,"Delta":93478888},{"NoteNumber":66,"Velocity":45,"Duration":1679505,"SoundDuration":1679505,"Delta":93478888},{"NoteNumber":50,"Velocity":40,"Duration":1679505,"SoundDuration":1679505,"Delta":93478888},{"NoteNumber":42,"Velocity":48,"Duration":2384991,"SoundDuration":2384991,"Delta":94570158},{"NoteNumber":58,"Velocity":47,"Duration":841121,"SoundDuration":841121,"Delta":95158394},{"NoteNumber":66,"Velocity":47,"Duration":841121,"SoundDuration":841121,"Delta":95158394},{"NoteNumber":52,"Velocity":40,"Duration":841121,"SoundDuration":841121,"Delta":95158394},{"NoteNumber":61,"Velocity":43,"Duration":309278,"SoundDuration":309278,"Delta":95999515},{"NoteNumber":70,"Velocity":43,"Duration":309278,"SoundDuration":309278,"Delta":95999515},{"NoteNumber":54,"Velocity":32,"Duration":309278,"SoundDuration":309278,"Delta":95999515},{"NoteNumber":64,"Velocity":45,"Duration":309278,"SoundDuration":309278,"Delta":96308793},{"NoteNumber":73,"Velocity":45,"Duration":309278,"SoundDuration":309278,"Delta":96308793},{"NoteNumber":55,"Velocity":34,"Duration":646356,"SoundDuration":646356,"Delta":96308793},{"NoteNumber":66,"Velocity":48,"Duration":337078,"SoundDuration":337078,"Delta":96618072},{"NoteNumber":74,"Velocity":48,"Duration":337078,"SoundDuration":337078,"Delta":96618072},{"NoteNumber":64,"Velocity":50,"Duration":606060,"SoundDuration":606060,"Delta":96955150},{"NoteNumber":73,"Velocity":50,"Duration":606060,"SoundDuration":606060,"Delta":96955150},{"NoteNumber":47,"Velocity":37,"Duration":1262032,"SoundDuration":1262032,"Delta":96955150},{"NoteNumber":55,"Velocity":37,"Duration":606060,"SoundDuration":606060,"Delta":96955150},{"NoteNumber":62,"Velocity":43,"Duration":2322638,"SoundDuration":2322638,"Delta":97561211},{"NoteNumber":71,"Velocity":43,"Duration":2322638,"SoundDuration":2322638,"Delta":97561211},{"NoteNumber":54,"Velocity":34,"Duration":2322638,"SoundDuration":2322638,"Delta":97561211},{"NoteNumber":42,"Velocity":30,"Duration":833333,"SoundDuration":833333,"Delta":98217182},{"NoteNumber":35,"Velocity":27,"Duration":833333,"SoundDuration":833333,"Delta":99050516}],"license":{"name":"Creative Commons Attribution-ShareAlike 3.0 Germany","url":"http://creativecommons.org/licenses/by-sa/3.0/de/deed.en","text":"The MIDI, audio (MP3, OGG) and video files of Bernd Krueger are licensed under the cc-by-sa Germany License. This means that you can use and adapt the files, as long as you attribute the copyright holder.\n\nName: Bernd Krueger\nSource: http://www.piano-midi.de\n\nThe distribution or public playback of the files is only allowed under identical license conditions.\n\nThe scores are open source.","attribution":"MIDI files by Bernd Krueger (piano-midi.de)"}}