{"title":"Impromptu D 935 Nr. 4","artist":"Piano","durationMs":336405,"midiSha256":"f1404fd9c1167f099d373990eb075a90f333e27b0dd0fcd85ac64422e2269f44","midiObject":[{"NoteNumber":73,"Velocity":40,"Duration":56518,"SoundDuration":56518,"Delta":0},{"NoteNumber":53,"Velocity":35,"Duration":56518,"SoundDuration":56518,"Delta":0},{"NoteNumber":72,"Velocity":51,"Duration":56518,"SoundDuration":56518,"Delta":56518},{"NoteNumber":72,"Velocity":45,"Duration":110286,"SoundDuration":110286,"Delta":233201},{"NoteNumber":56,"Velocity":25,"Duration":55143,"SoundDuration":55143,"Delta":233201},{"NoteNumber":60,"Velocity":25,"Duration":55143,"SoundDuration":55143,"Delta":233201},{"NoteNumber":65,"Velocity":30,"Duration":55143,"SoundDuration":55143,"Delta":233201},{"NoteNumber":73,"Velocity":39,"Duration":110286,"SoundDuration":110286,"Delta":343487},{"NoteNumber":72,"Velocity":46,"Duration":56285,"SoundDuration":56285,"Delta":453773},{"NoteNumber":53,"Velocity":30,"Duration":56285,"SoundDuration":56285,"Delta":453773},{"NoteNumber":73,"Velocity":40,"Duration":56285,"SoundDuration":56285,"Delta":681595},{"NoteNumber":60,"Velocity":29,"Duration":56285,"SoundDuration":56285,"Delta":681595},{"NoteNumber":56,"Velocity":29,"Duration":56285,"SoundDuration":56285,"Delta":681595},{"NoteNumber":65,"Velocity":35,"Duration":56285,"SoundDuration":56285,"Delta":681595},{"NoteNumber":72,"Velocity":49,"Duration":56285,"SoundDuration":56285,"Delta":737880},{"NoteNumber":72,"Velocity":44,"Duration":110286,"SoundDuration":110286,"Delta":906735},{"NoteNumber":53,"Velocity":31,"Duration":55142,"SoundDuration":55142,"Delta":906735},{"NoteNumber":73,"Velocity":36,"Duration":110285,"SoundDuration":110285,"Delta":1017021},{"NoteNumber":72,"Velocity":42,"Duration":55142,"SoundDuration":55142,"Delta":1127307},{"NoteNumber":56,"Velocity":26,"Duration":55142,"SoundDuration":55142,"Delta":1127307},{"NoteNumber":65,"Velocity":31,"Duration":55142,"SoundDuration":55142,"Delta":1127307},{"NoteNumber":60,"Velocity":26,"Duration":55142,"SoundDuration":55142,"Delta":1127307},{"NoteNumber":72,"Velocity":40,"Duration":53112,"SoundDuration":53112,"Delta":1357291},{"NoteNumber":53,"Velocity":35,"Duration":53112,"SoundDuration":53112,"Delta":1357291},{"NoteNumber":71,"Velocity":52,"Duration":53112,"SoundDuration":53112,"Delta":1410404},{"NoteNumber":71,"Velocity":47,"Duration":111185,"SoundDuration":111185,"Delta":1569741},{"NoteNumber":62,"Velocity":31,"Duration":55592,"SoundDuration":55592,"Delta":1569741},{"NoteNumber":59,"Velocity":26,"Duration":55592,"SoundDuration":55592,"Delta":1569741},{"NoteNumber":56,"Velocity":26,"Duration":55592,"SoundDuration":55592,"Delta":1569741},{"NoteNumber":74,"Velocity":40,"Duration":111185,"SoundDuration":111185,"Delta":1680926},{"NoteNumber":72,"Velocity":45,"Duration":112570,"SoundDuration":112570,"Delta":1792111},{"NoteNumber":53,"Velocity":31,"Duration":56285,"SoundDuration":56285,"Delta":1792111},{"NoteNumber":71,"Velocity":36,"Duration":117087,"SoundDuration":117087,"Delta":1904682},{"NoteNumber":72,"Velocity":46,"Duration":63944,"SoundDuration":63944,"Delta":2021769},{"NoteNumber":48,"Velocity":35,"Duration":63944,"SoundDuration":63944,"Delta":2021769},{"NoteNumber":67,"Velocity":39,"Duration":456378,"SoundDuration":456378,"Delta":2277546},{"NoteNumber":60,"Velocity":32,"Duration":55820,"SoundDuration":55820,"Delta":2277546},{"NoteNumber":55,"Velocity":27,"Duration":55820,"SoundDuration":55820,"Delta":2277546},{"NoteNumber":52,"Velocity":27,"Duration":55820,"SoundDuration":55820,"Delta":2277546},{"NoteNumber":48,"Velocity":32,"Duration":55820,"SoundDuration":55820,"Delta":2500826},{"NoteNumber":72,"Velocity":46,"Duration":55371,"SoundDuration":55371,"Delta":2733924},{"NoteNumber":60,"Velocity":35,"Duration":55371,"SoundDuration":55371,"Delta":2733924},{"NoteNumber":52,"Velocity":29,"Duration":55371,"SoundDuration":55371,"Delta":2733924},{"NoteNumber":55,"Velocity":29,"Duration":55371,"SoundDuration":55371,"Delta":2733924},{"NoteNumber":67,"Velocity":39,"Duration":55371,"SoundDuration":55371,"Delta":2955408},{"NoteNumber":48,"Velocity":31,"Duration":55371,"SoundDuration":55371,"Delta":2955408},{"NoteNumber":72,"Velocity":46,"Duration":55371,"SoundDuration":55371,"Delta":3176892},{"NoteNumber":52,"Velocity":26,"Duration":55371,"SoundDuration":55371,"Delta":3176892},{"NoteNumber":60,"Velocity":31,"Duration":55371,"SoundDuration":55371,"Delta":3176892},{"NoteNumber":55,"Velocity":26,"Duration":55371,"SoundDuration":55371,"Delta":3176892},{"NoteNumber":70,"Velocity":46,"Duration":221484,"SoundDuration":221484,"Delta":3398376},{"NoteNumber":49,"Velocity":35,"Duration":55371,"SoundDuration":55371,"Delta":3398376},{"NoteNumber":68,"Velocity":39,"Duration":108530,"SoundDuration":108530,"Delta":3619860},{"NoteNumber":61,"Velocity":31,"Duration":54265,"SoundDuration":54265,"Delta":3619860},{"NoteNumber":53,"Velocity":26,"Duration":54265,"SoundDuration":54265,"Delta":3619860},{"NoteNumber":67,"Velocity":39,"Duration":108530,"SoundDuration":108530,"Delta":3728391},{"NoteNumber":65,"Velocity":43,"Duration":224944,"SoundDuration":224944,"Delta":3836921},{"NoteNumber":49,"Velocity":31,"Duration":54265,"SoundDuration":54265,"Delta":3836921},{"NoteNumber":67,"Velocity":46,"Duration":110742,"SoundDuration":110742,"Delta":4061866},{"NoteNumber":46,"Velocity":35,"Duration":221484,"SoundDuration":221484,"Delta":4061866},{"NoteNumber":70,"Velocity":38,"Duration":110742,"SoundDuration":110742,"Delta":4172608},{"NoteNumber":67,"Velocity":46,"Duration":110742,"SoundDuration":110742,"Delta":4283350},{"NoteNumber":58,"Velocity":33,"Duration":221483,"SoundDuration":221483,"Delta":4283350},{"NoteNumber":55,"Velocity":28,"Duration":221483,"SoundDuration":221483,"Delta":4283350},{"NoteNumber":70,"Velocity":40,"Duration":110741,"SoundDuration":110741,"Delta":4394092},{"NoteNumber":64,"Velocity":46,"Duration":108100,"SoundDuration":108100,"Delta":4504834},{"NoteNumber":48,"Velocity":28,"Duration":108100,"SoundDuration":108100,"Delta":4504834},{"NoteNumber":58,"Velocity":33,"Duration":108100,"SoundDuration":108100,"Delta":4504834},{"NoteNumber":55,"Velocity":28,"Duration":108100,"SoundDuration":108100,"Delta":4504834},{"NoteNumber":67,"Velocity":40,"Duration":113037,"SoundDuration":113037,"Delta":4612934},{"NoteNumber":65,"Velocity":46,"Duration":108530,"SoundDuration":108530,"Delta":4725971},{"NoteNumber":53,"Velocity":34,"Duration":430407,"SoundDuration":430407,"Delta":4725971},{"NoteNumber":56,"Velocity":40,"Duration":430407,"SoundDuration":430407,"Delta":4725971},{"NoteNumber":68,"Velocity":37,"Duration":108119,"SoundDuration":108119,"Delta":4834502},{"NoteNumber":72,"Velocity":42,"Duration":107298,"SoundDuration":107298,"Delta":4942621},{"NoteNumber":77,"Velocity":47,"Duration":106459,"SoundDuration":106459,"Delta":5049920},{"NoteNumber":80,"Velocity":52,"Duration":105636,"SoundDuration":105636,"Delta":5156379},{"NoteNumber":82,"Velocity":57,"Duration":109689,"SoundDuration":109689,"Delta":5262015},{"NoteNumber":84,"Velocity":65,"Duration":56518,"SoundDuration":56518,"Delta":5371705},{"NoteNumber":53,"Velocity":35,"Duration":56518,"SoundDuration":56518,"Delta":5371705},{"NoteNumber":84,"Velocity":54,"Duration":110286,"SoundDuration":110286,"Delta":5604027},{"NoteNumber":60,"Velocity":25,"Duration":55143,"SoundDuration":55143,"Delta":5604027},{"NoteNumber":65,"Velocity":30,"Duration":55143,"SoundDuration":55143,"Delta":5604027},{"NoteNumber":56,"Velocity":25,"Duration":55143,"SoundDuration":55143,"Delta":5604027},{"NoteNumber":85,"Velocity":46,"Duration":110285,"SoundDuration":110285,"Delta":5714313},{"NoteNumber":84,"Velocity":55,"Duration":56049,"SoundDuration":56049,"Delta":5824599},{"NoteNumber":53,"Velocity":30,"Duration":56049,"SoundDuration":56049,"Delta":5824599},{"NoteNumber":85,"Velocity":48,"Duration":54265,"SoundDuration":54265,"Delta":6054194},{"NoteNumber":60,"Velocity":29,"Duration":54265,"SoundDuration":54265,"Delta":6054194},{"NoteNumber":65,"Velocity":35,"Duration":54265,"SoundDuration":54265,"Delta":6054194},{"NoteNumber":56,"Velocity":29,"Duration":54265,"SoundDuration":54265,"Delta":6054194},{"NoteNumber":84,"Velocity":64,"Duration":54265,"SoundDuration":54265,"Delta":6108459},{"NoteNumber":84,"Velocity":52,"Duration":110742,"SoundDuration":110742,"Delta":6271255},{"NoteNumber":53,"Velocity":31,"Duration":55371,"SoundDuration":55371,"Delta":6271255},{"NoteNumber":85,"Velocity":43,"Duration":110742,"SoundDuration":110742,"Delta":6381997},{"NoteNumber":84,"Velocity":50,"Duration":55371,"SoundDuration":55371,"Delta":6492739},{"NoteNumber":56,"Velocity":26,"Duration":55371,"SoundDuration":55371,"Delta":6492739},{"NoteNumber":65,"Velocity":31,"Duration":55371,"SoundDuration":55371,"Delta":6492739},{"NoteNumber":60,"Velocity":26,"Duration":55371,"SoundDuration":55371,"Delta":6492739},{"NoteNumber":84,"Velocity":61,"Duration":112570,"SoundDuration":112570,"Delta":6721877},{"NoteNumber":53,"Velocity":35,"Duration":56285,"SoundDuration":56285,"Delta":6721877},{"NoteNumber":83,"Velocity":48,"Duration":111185,"SoundDuration":111185,"Delta":6834447},{"NoteNumber":89,"Velocity":56,"Duration":109401,"SoundDuration":109401,"Delta":6945633},{"NoteNumber":56,"Velocity":26,"Duration":54700,"SoundDuration":54700,"Delta":6945633},{"NoteNumber":59,"Velocity":26,"Duration":54700,"SoundDuration":54700,"Delta":6945633},{"NoteNumber":62,"Velocity":31,"Duration":54700,"SoundDuration":54700,"Delta":6945633},{"NoteNumber":83,"Velocity":48,"Duration":109401,"SoundDuration":109401,"Delta":7055034},{"NoteNumber":89,"Velocity":54,"Duration":109401,"SoundDuration":109401,"Delta":7164435},{"NoteNumber":53,"Velocity":31,"Duration":54700,"SoundDuration":54700,"Delta":7164435},{"NoteNumber":83,"Velocity":43,"Duration":115503,"SoundDuration":115503,"Delta":7273836},{"NoteNumber":84,"Velocity":55,"Duration":63944,"SoundDuration":63944,"Delta":7389340},{"NoteNumber":48,"Velocity":35,"Duration":63944,"SoundDuration":63944,"Delta":7389340},{"NoteNumber":79,"Velocity":46,"Duration":458184,"SoundDuration":458184,"Delta":7645116},{"NoteNumber":52,"Velocity":27,"Duration":55820,"SoundDuration":55820,"Delta":7645116},{"NoteNumber":55,"Velocity":27,"Duration":55820,"SoundDuration":55820,"Delta":7645116},{"NoteNumber":60,"Velocity":32,"Duration":55820,"SoundDuration":55820,"Delta":7645116},{"NoteNumber":48,"Velocity":32,"Duration":55820,"SoundDuration":55820,"Delta":7868397},{"NoteNumber":84,"Velocity":57,"Duration":55370,"SoundDuration":55370,"Delta":8103301},{"NoteNumber":60,"Velocity":35,"Duration":55370,"SoundDuration":55370,"Delta":8103301},{"NoteNumber":55,"Velocity":29,"Duration":55370,"SoundDuration":55370,"Delta":8103301},{"NoteNumber":52,"Velocity":29,"Duration":55370,"SoundDuration":55370,"Delta":8103301},{"NoteNumber":79,"Velocity":46,"Duration":55370,"SoundDuration":55370,"Delta":8324785},{"NoteNumber":48,"Velocity":31,"Duration":55370,"SoundDuration":55370,"Delta":8324785},{"NoteNumber":84,"Velocity":55,"Duration":55370,"SoundDuration":55370,"Delta":8546269},{"NoteNumber":52,"Velocity":26,"Duration":55370,"SoundDuration":55370,"Delta":8546269},{"NoteNumber":60,"Velocity":31,"Duration":55370,"SoundDuration":55370,"Delta":8546269},{"NoteNumber":55,"Velocity":26,"Duration":55370,"SoundDuration":55370,"Delta":8546269},{"NoteNumber":82,"Velocity":55,"Duration":221483,"SoundDuration":221483,"Delta":8767753},{"NoteNumber":49,"Velocity":35,"Duration":55370,"SoundDuration":55370,"Delta":8767753},{"NoteNumber":80,"Velocity":46,"Duration":108530,"SoundDuration":108530,"Delta":8989237},{"NoteNumber":61,"Velocity":31,"Duration":54265,"SoundDuration":54265,"Delta":8989237},{"NoteNumber":53,"Velocity":26,"Duration":54265,"SoundDuration":54265,"Delta":8989237},{"NoteNumber":79,"Velocity":46,"Duration":108530,"SoundDuration":108530,"Delta":9097767},{"NoteNumber":77,"Velocity":51,"Duration":222029,"SoundDuration":222029,"Delta":9206298},{"NoteNumber":49,"Velocity":31,"Duration":54265,"SoundDuration":54265,"Delta":9206298},{"NoteNumber":79,"Velocity":55,"Duration":110742,"SoundDuration":110742,"Delta":9428327},{"NoteNumber":46,"Velocity":35,"Duration":221484,"SoundDuration":221484,"Delta":9428327},{"NoteNumber":82,"Velocity":45,"Duration":110742,"SoundDuration":110742,"Delta":9539069},{"NoteNumber":79,"Velocity":55,"Duration":109401,"SoundDuration":109401,"Delta":9649811},{"NoteNumber":55,"Velocity":28,"Duration":218802,"SoundDuration":218802,"Delta":9649811},{"NoteNumber":58,"Velocity":33,"Duration":218802,"SoundDuration":218802,"Delta":9649811},{"NoteNumber":82,"Velocity":48,"Duration":109401,"SoundDuration":109401,"Delta":9759212},{"NoteNumber":76,"Velocity":55,"Duration":108100,"SoundDuration":108100,"Delta":9868614},{"NoteNumber":58,"Velocity":33,"Duration":221137,"SoundDuration":221137,"Delta":9868614},{"NoteNumber":48,"Velocity":28,"Duration":221137,"SoundDuration":221137,"Delta":9868614},{"NoteNumber":55,"Velocity":28,"Duration":221137,"SoundDuration":221137,"Delta":9868614},{"NoteNumber":79,"Velocity":48,"Duration":113037,"SoundDuration":113037,"Delta":9976714},{"NoteNumber":77,"Velocity":55,"Duration":217060,"SoundDuration":217060,"Delta":10089751},{"NoteNumber":56,"Velocity":40,"Duration":217060,"SoundDuration":217060,"Delta":10089751},{"NoteNumber":53,"Velocity":34,"Duration":217060,"SoundDuration":217060,"Delta":10089751},{"NoteNumber":65,"Velocity":68,"Duration":108530,"SoundDuration":108530,"Delta":10306812},{"NoteNumber":67,"Velocity":69,"Duration":108530,"SoundDuration":108530,"Delta":10415342},{"NoteNumber":68,"Velocity":71,"Duration":108530,"SoundDuration":108530,"Delta":10523873},{"NoteNumber":70,"Velocity":73,"Duration":113207,"SoundDuration":113207,"Delta":10632403},{"NoteNumber":72,"Velocity":74,"Duration":51296,"SoundDuration":51296,"Delta":10745611},{"NoteNumber":36,"Velocity":60,"Duration":51296,"SoundDuration":51296,"Delta":10745611},{"NoteNumber":60,"Velocity":68,"Duration":52925,"SoundDuration":52925,"Delta":10954053},{"NoteNumber":48,"Velocity":55,"Duration":52925,"SoundDuration":52925,"Delta":10954053},{"NoteNumber":72,"Velocity":75,"Duration":51472,"SoundDuration":51472,"Delta":11170189},{"NoteNumber":36,"Velocity":60,"Duration":51472,"SoundDuration":51472,"Delta":11170189},{"NoteNumber":60,"Velocity":60,"Duration":52738,"SoundDuration":52738,"Delta":11378611},{"NoteNumber":48,"Velocity":53,"Duration":52738,"SoundDuration":52738,"Delta":11378611},{"NoteNumber":72,"Velocity":74,"Duration":52999,"SoundDuration":52999,"Delta":11593490},{"NoteNumber":36,"Velocity":60,"Duration":52999,"SoundDuration":52999,"Delta":11593490},{"NoteNumber":60,"Velocity":60,"Duration":52999,"SoundDuration":52999,"Delta":11805489},{"NoteNumber":48,"Velocity":52,"Duration":52999,"SoundDuration":52999,"Delta":11805489},{"NoteNumber":70,"Velocity":59,"Duration":54265,"SoundDuration":54265,"Delta":12021775},{"NoteNumber":67,"Velocity":59,"Duration":54265,"SoundDuration":54265,"Delta":12021775},{"NoteNumber":36,"Velocity":49,"Duration":54265,"SoundDuration":54265,"Delta":12021775},{"NoteNumber":65,"Velocity":46,"Duration":105999,"SoundDuration":105999,"Delta":12238836},{"NoteNumber":68,"Velocity":46,"Duration":105999,"SoundDuration":105999,"Delta":12238836},{"NoteNumber":48,"Velocity":43,"Duration":52999,"SoundDuration":52999,"Delta":12238836},{"NoteNumber":64,"Velocity":46,"Duration":105999,"SoundDuration":105999,"Delta":12344835},{"NoteNumber":67,"Velocity":46,"Duration":105999,"SoundDuration":105999,"Delta":12344835},{"NoteNumber":68,"Velocity":46,"Duration":105999,"SoundDuration":105999,"Delta":12450835},{"NoteNumber":65,"Velocity":46,"Duration":105999,"SoundDuration":105999,"Delta":12450835},{"NoteNumber":36,"Velocity":43,"Duration":52999,"SoundDuration":52999,"Delta":12450835},{"NoteNumber":70,"Velocity":46,"Duration":105999,"SoundDuration":105999,"Delta":12556834},{"NoteNumber":67,"Velocity":46,"Duration":105999,"SoundDuration":105999,"Delta":12556834},{"NoteNumber":67,"Velocity":52,"Duration":651249,"SoundDuration":651249,"Delta":12662834},{"NoteNumber":64,"Velocity":52,"Duration":651249,"SoundDuration":651249,"Delta":12662834},{"NoteNumber":48,"Velocity":43,"Duration":53411,"SoundDuration":53411,"Delta":12662834},{"NoteNumber":36,"Velocity":41,"Duration":54700,"SoundDuration":54700,"Delta":12876479},{"NoteNumber":48,"Velocity":43,"Duration":54700,"SoundDuration":54700,"Delta":13095281},{"NoteNumber":72,"Velocity":74,"Duration":50947,"SoundDuration":50947,"Delta":13314084},{"NoteNumber":36,"Velocity":60,"Duration":50947,"SoundDuration":50947,"Delta":13314084},{"NoteNumber":60,"Velocity":68,"Duration":52738,"SoundDuration":52738,"Delta":13521272},{"NoteNumber":48,"Velocity":55,"Duration":52738,"SoundDuration":52738,"Delta":13521272},{"NoteNumber":72,"Velocity":75,"Duration":211999,"SoundDuration":211999,"Delta":13743029},{"NoteNumber":36,"Velocity":60,"Duration":211999,"SoundDuration":211999,"Delta":13743029},{"NoteNumber":73,"Velocity":77,"Duration":215400,"SoundDuration":215400,"Delta":13955028},{"NoteNumber":37,"Velocity":60,"Duration":215400,"SoundDuration":215400,"Delta":13955028},{"NoteNumber":61,"Velocity":62,"Duration":52999,"SoundDuration":52999,"Delta":14170428},{"NoteNumber":49,"Velocity":49,"Duration":52999,"SoundDuration":52999,"Delta":14170428},{"NoteNumber":73,"Velocity":74,"Duration":52999,"SoundDuration":52999,"Delta":14382427},{"NoteNumber":37,"Velocity":57,"Duration":52999,"SoundDuration":52999,"Delta":14382427},{"NoteNumber":68,"Velocity":52,"Duration":108530,"SoundDuration":108530,"Delta":14598713},{"NoteNumber":72,"Velocity":52,"Duration":108530,"SoundDuration":108530,"Delta":14598713},{"NoteNumber":36,"Velocity":49,"Duration":54265,"SoundDuration":54265,"Delta":14598713},{"NoteNumber":70,"Velocity":46,"Duration":108530,"SoundDuration":108530,"Delta":14707243},{"NoteNumber":67,"Velocity":46,"Duration":108530,"SoundDuration":108530,"Delta":14707243},{"NoteNumber":68,"Velocity":44,"Duration":105999,"SoundDuration":105999,"Delta":14815774},{"NoteNumber":65,"Velocity":44,"Duration":105999,"SoundDuration":105999,"Delta":14815774},{"NoteNumber":48,"Velocity":43,"Duration":52999,"SoundDuration":52999,"Delta":14815774},{"NoteNumber":67,"Velocity":42,"Duration":105999,"SoundDuration":105999,"Delta":14921773},{"NoteNumber":70,"Velocity":42,"Duration":105999,"SoundDuration":105999,"Delta":14921773},{"NoteNumber":68,"Velocity":40,"Duration":105999,"SoundDuration":105999,"Delta":15027773},{"NoteNumber":65,"Velocity":40,"Duration":105999,"SoundDuration":105999,"Delta":15027773},{"NoteNumber":36,"Velocity":43,"Duration":52999,"SoundDuration":52999,"Delta":15027773},{"NoteNumber":64,"Velocity":38,"Duration":105999,"SoundDuration":105999,"Delta":15133772},{"NoteNumber":67,"Velocity":38,"Duration":105999,"SoundDuration":105999,"Delta":15133772},{"NoteNumber":65,"Velocity":49,"Duration":213644,"SoundDuration":213644,"Delta":15239772},{"NoteNumber":41,"Velocity":43,"Duration":213644,"SoundDuration":213644,"Delta":15239772},{"NoteNumber":77,"Velocity":74,"Duration":108530,"SoundDuration":108530,"Delta":15453417},{"NoteNumber":79,"Velocity":75,"Duration":108530,"SoundDuration":108530,"Delta":15561947},{"NoteNumber":80,"Velocity":78,"Duration":108530,"SoundDuration":108530,"Delta":15670478},{"NoteNumber":82,"Velocity":80,"Duration":108530,"SoundDuration":108530,"Delta":15779008},{"NoteNumber":84,"Velocity":81,"Duration":51121,"SoundDuration":51121,"Delta":15887539},{"NoteNumber":48,"Velocity":60,"Duration":51121,"SoundDuration":51121,"Delta":15887539},{"NoteNumber":72,"Velocity":74,"Duration":52925,"SoundDuration":52925,"Delta":16095631},{"NoteNumber":60,"Velocity":55,"Duration":52925,"SoundDuration":52925,"Delta":16095631},{"NoteNumber":84,"Velocity":82,"Duration":51827,"SoundDuration":51827,"Delta":16311767},{"NoteNumber":48,"Velocity":60,"Duration":51827,"SoundDuration":51827,"Delta":16311767},{"NoteNumber":72,"Velocity":66,"Duration":52925,"SoundDuration":52925,"Delta":16520902},{"NoteNumber":60,"Velocity":53,"Duration":52925,"SoundDuration":52925,"Delta":16520902},{"NoteNumber":84,"Velocity":81,"Duration":52999,"SoundDuration":52999,"Delta":16736153},{"NoteNumber":48,"Velocity":60,"Duration":52999,"SoundDuration":52999,"Delta":16736153},{"NoteNumber":72,"Velocity":66,"Duration":52999,"SoundDuration":52999,"Delta":16948152},{"NoteNumber":60,"Velocity":52,"Duration":52999,"SoundDuration":52999,"Delta":16948152},{"NoteNumber":82,"Velocity":64,"Duration":54265,"SoundDuration":54265,"Delta":17164438},{"NoteNumber":79,"Velocity":64,"Duration":54265,"SoundDuration":54265,"Delta":17164438},{"NoteNumber":47,"Velocity":49,"Duration":54265,"SoundDuration":54265,"Delta":17164438},{"NoteNumber":80,"Velocity":50,"Duration":105999,"SoundDuration":105999,"Delta":17381499},{"NoteNumber":77,"Velocity":50,"Duration":105999,"SoundDuration":105999,"Delta":17381499},{"NoteNumber":59,"Velocity":43,"Duration":52999,"SoundDuration":52999,"Delta":17381499},{"NoteNumber":79,"Velocity":50,"Duration":105999,"SoundDuration":105999,"Delta":17487498},{"NoteNumber":76,"Velocity":50,"Duration":105999,"SoundDuration":105999,"Delta":17487498},{"NoteNumber":80,"Velocity":50,"Duration":105999,"SoundDuration":105999,"Delta":17593498},{"NoteNumber":77,"Velocity":50,"Duration":105999,"SoundDuration":105999,"Delta":17593498},{"NoteNumber":47,"Velocity":43,"Duration":52999,"SoundDuration":52999,"Delta":17593498},{"NoteNumber":82,"Velocity":50,"Duration":105999,"SoundDuration":105999,"Delta":17699497},{"NoteNumber":79,"Velocity":50,"Duration":105999,"SoundDuration":105999,"Delta":17699497},{"NoteNumber":79,"Velocity":57,"Duration":651250,"SoundDuration":651250,"Delta":17805497},{"NoteNumber":76,"Velocity":57,"Duration":651250,"SoundDuration":651250,"Delta":17805497},{"NoteNumber":60,"Velocity":43,"Duration":53411,"SoundDuration":53411,"Delta":17805497},{"NoteNumber":48,"Velocity":41,"Duration":54700,"SoundDuration":54700,"Delta":18019142},{"NoteNumber":60,"Velocity":43,"Duration":54700,"SoundDuration":54700,"Delta":18237944},{"NoteNumber":84,"Velocity":81,"Duration":51649,"SoundDuration":51649,"Delta":18456747},{"NoteNumber":48,"Velocity":60,"Duration":51649,"SoundDuration":51649,"Delta":18456747},{"NoteNumber":72,"Velocity":74,"Duration":52924,"SoundDuration":52924,"Delta":18665896},{"NoteNumber":60,"Velocity":55,"Duration":52924,"SoundDuration":52924,"Delta":18665896},{"NoteNumber":84,"Velocity":82,"Duration":211998,"SoundDuration":211998,"Delta":18882032},{"NoteNumber":48,"Velocity":60,"Duration":211998,"SoundDuration":211998,"Delta":18882032},{"NoteNumber":85,"Velocity":84,"Duration":212700,"SoundDuration":212700,"Delta":19094031},{"NoteNumber":49,"Velocity":60,"Duration":212700,"SoundDuration":212700,"Delta":19094031},{"NoteNumber":73,"Velocity":68,"Duration":52999,"SoundDuration":52999,"Delta":19306731},{"NoteNumber":61,"Velocity":49,"Duration":52999,"SoundDuration":52999,"Delta":19306731},{"NoteNumber":85,"Velocity":81,"Duration":52999,"SoundDuration":52999,"Delta":19518730},{"NoteNumber":49,"Velocity":57,"Duration":52999,"SoundDuration":52999,"Delta":19518730},{"NoteNumber":73,"Velocity":52,"Duration":108530,"SoundDuration":108530,"Delta":19735015},{"NoteNumber":70,"Velocity":52,"Duration":108530,"SoundDuration":108530,"Delta":19735015},{"NoteNumber":49,"Velocity":49,"Duration":54265,"SoundDuration":54265,"Delta":19735015},{"NoteNumber":71,"Velocity":46,"Duration":108530,"SoundDuration":108530,"Delta":19843546},{"NoteNumber":68,"Velocity":46,"Duration":108530,"SoundDuration":108530,"Delta":19843546},{"NoteNumber":70,"Velocity":44,"Duration":105999,"SoundDuration":105999,"Delta":19952076},{"NoteNumber":66,"Velocity":44,"Duration":105999,"SoundDuration":105999,"Delta":19952076},{"NoteNumber":61,"Velocity":43,"Duration":52999,"SoundDuration":52999,"Delta":19952076},{"NoteNumber":68,"Velocity":42,"Duration":105999,"SoundDuration":105999,"Delta":20058076},{"NoteNumber":71,"Velocity":42,"Duration":105999,"SoundDuration":105999,"Delta":20058076},{"NoteNumber":70,"Velocity":40,"Duration":105999,"SoundDuration":105999,"Delta":20164075},{"NoteNumber":66,"Velocity":40,"Duration":105999,"SoundDuration":105999,"Delta":20164075},{"NoteNumber":49,"Velocity":43,"Duration":52999,"SoundDuration":52999,"Delta":20164075},{"NoteNumber":65,"Velocity":38,"Duration":105999,"SoundDuration":105999,"Delta":20270075},{"NoteNumber":68,"Velocity":38,"Duration":105999,"SoundDuration":105999,"Delta":20270075},{"NoteNumber":66,"Velocity":46,"Duration":106822,"SoundDuration":106822,"Delta":20376074},{"NoteNumber":70,"Velocity":46,"Duration":106822,"SoundDuration":106822,"Delta":20376074},{"NoteNumber":61,"Velocity":43,"Duration":106822,"SoundDuration":106822,"Delta":20376074},{"NoteNumber":70,"Velocity":38,"Duration":109401,"SoundDuration":109401,"Delta":20589719},{"NoteNumber":66,"Velocity":38,"Duration":109401,"SoundDuration":109401,"Delta":20589719},{"NoteNumber":49,"Velocity":43,"Duration":109401,"SoundDuration":109401,"Delta":20589719},{"NoteNumber":70,"Velocity":38,"Duration":109401,"SoundDuration":109401,"Delta":20808522},{"NoteNumber":66,"Velocity":38,"Duration":109401,"SoundDuration":109401,"Delta":20808522},{"NoteNumber":61,"Velocity":43,"Duration":109401,"SoundDuration":109401,"Delta":20808522},{"NoteNumber":71,"Velocity":50,"Duration":108530,"SoundDuration":108530,"Delta":21027324},{"NoteNumber":65,"Velocity":42,"Duration":108530,"SoundDuration":108530,"Delta":21027324},{"NoteNumber":68,"Velocity":50,"Duration":108530,"SoundDuration":108530,"Delta":21027324},{"NoteNumber":49,"Velocity":43,"Duration":108530,"SoundDuration":108530,"Delta":21027324},{"NoteNumber":68,"Velocity":51,"Duration":108530,"SoundDuration":108530,"Delta":21244385},{"NoteNumber":65,"Velocity":43,"Duration":108530,"SoundDuration":108530,"Delta":21244385},{"NoteNumber":71,"Velocity":51,"Duration":108530,"SoundDuration":108530,"Delta":21244385},{"NoteNumber":61,"Velocity":43,"Duration":108530,"SoundDuration":108530,"Delta":21244385},{"NoteNumber":68,"Velocity":56,"Duration":108530,"SoundDuration":108530,"Delta":21461446},{"NoteNumber":71,"Velocity":56,"Duration":108530,"SoundDuration":108530,"Delta":21461446},{"NoteNumber":65,"Velocity":47,"Duration":108530,"SoundDuration":108530,"Delta":21461446},{"NoteNumber":49,"Velocity":44,"Duration":108530,"SoundDuration":108530,"Delta":21461446},{"NoteNumber":80,"Velocity":59,"Duration":107250,"SoundDuration":107250,"Delta":21678507},{"NoteNumber":83,"Velocity":59,"Duration":107250,"SoundDuration":107250,"Delta":21678507},{"NoteNumber":77,"Velocity":50,"Duration":107250,"SoundDuration":107250,"Delta":21678507},{"NoteNumber":61,"Velocity":45,"Duration":107250,"SoundDuration":107250,"Delta":21678507},{"NoteNumber":77,"Velocity":54,"Duration":107250,"SoundDuration":107250,"Delta":21893007},{"NoteNumber":80,"Velocity":64,"Duration":107250,"SoundDuration":107250,"Delta":21893007},{"NoteNumber":83,"Velocity":64,"Duration":107250,"SoundDuration":107250,"Delta":21893007},{"NoteNumber":49,"Velocity":50,"Duration":107250,"SoundDuration":107250,"Delta":21893007},{"NoteNumber":83,"Velocity":70,"Duration":107250,"SoundDuration":107250,"Delta":22107507},{"NoteNumber":80,"Velocity":70,"Duration":107250,"SoundDuration":107250,"Delta":22107507},{"NoteNumber":77,"Velocity":59,"Duration":107250,"SoundDuration":107250,"Delta":22107507},{"NoteNumber":61,"Velocity":51,"Duration":107250,"SoundDuration":107250,"Delta":22107507},{"NoteNumber":92,"Velocity":62,"Duration":107250,"SoundDuration":107250,"Delta":22326856},{"NoteNumber":96,"Velocity":74,"Duration":107250,"SoundDuration":107250,"Delta":22326856},{"NoteNumber":48,"Velocity":51,"Duration":107250,"SoundDuration":107250,"Delta":22326856},{"NoteNumber":94,"Velocity":66,"Duration":107250,"SoundDuration":107250,"Delta":22434106},{"NoteNumber":91,"Velocity":56,"Duration":107250,"SoundDuration":107250,"Delta":22434106},{"NoteNumber":92,"Velocity":73,"Duration":107250,"SoundDuration":107250,"Delta":22541356},{"NoteNumber":89,"Velocity":61,"Duration":107250,"SoundDuration":107250,"Delta":22541356},{"NoteNumber":60,"Velocity":53,"Duration":107250,"SoundDuration":107250,"Delta":22541356},{"NoteNumber":91,"Velocity":55,"Duration":107249,"SoundDuration":107249,"Delta":22648606},{"NoteNumber":94,"Velocity":64,"Duration":107249,"SoundDuration":107249,"Delta":22648606},{"NoteNumber":92,"Velocity":73,"Duration":107250,"SoundDuration":107250,"Delta":22755856},{"NoteNumber":89,"Velocity":61,"Duration":107250,"SoundDuration":107250,"Delta":22755856},{"NoteNumber":48,"Velocity":57,"Duration":107250,"SoundDuration":107250,"Delta":22755856},{"NoteNumber":91,"Velocity":64,"Duration":114460,"SoundDuration":114460,"Delta":22863106},{"NoteNumber":88,"Velocity":55,"Duration":114460,"SoundDuration":114460,"Delta":22863106},{"NoteNumber":89,"Velocity":73,"Duration":126050,"SoundDuration":126050,"Delta":22977567},{"NoteNumber":53,"Velocity":60,"Duration":126050,"SoundDuration":126050,"Delta":22977567},{"NoteNumber":65,"Velocity":68,"Duration":108530,"SoundDuration":108530,"Delta":23229668},{"NoteNumber":67,"Velocity":69,"Duration":108530,"SoundDuration":108530,"Delta":23338198},{"NoteNumber":68,"Velocity":71,"Duration":108530,"SoundDuration":108530,"Delta":23446729},{"NoteNumber":70,"Velocity":73,"Duration":108530,"SoundDuration":108530,"Delta":23555259},{"NoteNumber":72,"Velocity":74,"Duration":51121,"SoundDuration":51121,"Delta":23663790},{"NoteNumber":36,"Velocity":60,"Duration":51121,"SoundDuration":51121,"Delta":23663790},{"NoteNumber":60,"Velocity":68,"Duration":52554,"SoundDuration":52554,"Delta":23871140},{"NoteNumber":48,"Velocity":55,"Duration":52554,"SoundDuration":52554,"Delta":23871140},{"NoteNumber":72,"Velocity":75,"Duration":51649,"SoundDuration":51649,"Delta":24086535},{"NoteNumber":36,"Velocity":60,"Duration":51649,"SoundDuration":51649,"Delta":24086535},{"NoteNumber":60,"Velocity":60,"Duration":52738,"SoundDuration":52738,"Delta":24295311},{"NoteNumber":48,"Velocity":53,"Duration":52738,"SoundDuration":52738,"Delta":24295311},{"NoteNumber":72,"Velocity":74,"Duration":52999,"SoundDuration":52999,"Delta":24510190},{"NoteNumber":36,"Velocity":60,"Duration":52999,"SoundDuration":52999,"Delta":24510190},{"NoteNumber":60,"Velocity":60,"Duration":52999,"SoundDuration":52999,"Delta":24722189},{"NoteNumber":48,"Velocity":52,"Duration":52999,"SoundDuration":52999,"Delta":24722189},{"NoteNumber":67,"Velocity":59,"Duration":54265,"SoundDuration":54265,"Delta":24941396},{"NoteNumber":70,"Velocity":59,"Duration":54265,"SoundDuration":54265,"Delta":24941396},{"NoteNumber":36,"Velocity":49,"Duration":54265,"SoundDuration":54265,"Delta":24941396},{"NoteNumber":65,"Velocity":46,"Duration":105999,"SoundDuration":105999,"Delta":25158457},{"NoteNumber":68,"Velocity":46,"Duration":105999,"SoundDuration":105999,"Delta":25158457},{"NoteNumber":48,"Velocity":43,"Duration":52999,"SoundDuration":52999,"Delta":25158457},{"NoteNumber":67,"Velocity":46,"Duration":105999,"SoundDuration":105999,"Delta":25264457},{"NoteNumber":64,"Velocity":46,"Duration":105999,"SoundDuration":105999,"Delta":25264457},{"NoteNumber":68,"Velocity":46,"Duration":105999,"SoundDuration":105999,"Delta":25370456},{"NoteNumber":65,"Velocity":46,"Duration":105999,"SoundDuration":105999,"Delta":25370456},{"NoteNumber":36,"Velocity":43,"Duration":52999,"SoundDuration":52999,"Delta":25370456},{"NoteNumber":67,"Velocity":46,"Duration":105999,"SoundDuration":105999,"Delta":25476456},{"NoteNumber":70,"Velocity":46,"Duration":105999,"SoundDuration":105999,"Delta":25476456},{"NoteNumber":64,"Velocity":52,"Duration":651250,"SoundDuration":651250,"Delta":25582455},{"NoteNumber":67,"Velocity":52,"Duration":651250,"SoundDuration":651250,"Delta":25582455},{"NoteNumber":48,"Velocity":43,"Duration":53411,"SoundDuration":53411,"Delta":25582455},{"NoteNumber":36,"Velocity":41,"Duration":54700,"SoundDuration":54700,"Delta":25796100},{"NoteNumber":48,"Velocity":43,"Duration":54700,"SoundDuration":54700,"Delta":26014903},{"NoteNumber":72,"Velocity":74,"Duration":51649,"SoundDuration":51649,"Delta":26233705},{"NoteNumber":36,"Velocity":60,"Duration":51649,"SoundDuration":51649,"Delta":26233705},{"NoteNumber":60,"Velocity":68,"Duration":52924,"SoundDuration":52924,"Delta":26442854},{"NoteNumber":48,"Velocity":55,"Duration":52924,"SoundDuration":52924,"Delta":26442854},{"NoteNumber":72,"Velocity":75,"Duration":211998,"SoundDuration":211998,"Delta":26661063},{"NoteNumber":36,"Velocity":60,"Duration":211998,"SoundDuration":211998,"Delta":26661063},{"NoteNumber":73,"Velocity":77,"Duration":215400,"SoundDuration":215400,"Delta":26873062},{"NoteNumber":37,"Velocity":60,"Duration":215400,"SoundDuration":215400,"Delta":26873062},{"NoteNumber":61,"Velocity":62,"Duration":52999,"SoundDuration":52999,"Delta":27088463},{"NoteNumber":49,"Velocity":49,"Duration":52999,"SoundDuration":52999,"Delta":27088463},{"NoteNumber":73,"Velocity":74,"Duration":52999,"SoundDuration":52999,"Delta":27300462},{"NoteNumber":37,"Velocity":57,"Duration":52999,"SoundDuration":52999,"Delta":27300462},{"NoteNumber":68,"Velocity":52,"Duration":108530,"SoundDuration":108530,"Delta":27516748},{"NoteNumber":72,"Velocity":52,"Duration":108530,"SoundDuration":108530,"Delta":27516748},{"NoteNumber":36,"Velocity":49,"Duration":54265,"SoundDuration":54265,"Delta":27516748},{"NoteNumber":70,"Velocity":46,"Duration":108530,"SoundDuration":108530,"Delta":27625278},{"NoteNumber":67,"Velocity":46,"Duration":108530,"SoundDuration":108530,"Delta":27625278},{"NoteNumber":68,"Velocity":44,"Duration":105999,"SoundDuration":105999,"Delta":27733809},{"NoteNumber":65,"Velocity":44,"Duration":105999,"SoundDuration":105999,"Delta":27733809},{"NoteNumber":48,"Velocity":43,"Duration":52999,"SoundDuration":52999,"Delta":27733809},{"NoteNumber":67,"Velocity":42,"Duration":105999,"SoundDuration":105999,"Delta":27839808},{"NoteNumber":70,"Velocity":42,"Duration":105999,"SoundDuration":105999,"Delta":27839808},{"NoteNumber":65,"Velocity":40,"Duration":105999,"SoundDuration":105999,"Delta":27945808},{"NoteNumber":68,"Velocity":40,"Duration":105999,"SoundDuration":105999,"Delta":27945808},{"NoteNumber":36,"Velocity":43,"Duration":52999,"SoundDuration":52999,"Delta":27945808},{"NoteNumber":67,"Velocity":38,"Duration":105999,"SoundDuration":105999,"Delta":28051807},{"NoteNumber":64,"Velocity":38,"Duration":105999,"SoundDuration":105999,"Delta":28051807},{"NoteNumber":65,"Velocity":49,"Duration":220890,"SoundDuration":220890,"Delta":28157807},{"NoteNumber":41,"Velocity":43,"Duration":220890,"SoundDuration":220890,"Delta":28157807},{"NoteNumber":77,"Velocity":74,"Duration":108530,"SoundDuration":108530,"Delta":28378698},{"NoteNumber":79,"Velocity":75,"Duration":108530,"SoundDuration":108530,"Delta":28487228},{"NoteNumber":80,"Velocity":78,"Duration":108530,"SoundDuration":108530,"Delta":28595759},{"NoteNumber":82,"Velocity":80,"Duration":108530,"SoundDuration":108530,"Delta":28704289},{"NoteNumber":84,"Velocity":81,"Duration":51649,"SoundDuration":51649,"Delta":28812820},{"NoteNumber":48,"Velocity":60,"Duration":51649,"SoundDuration":51649,"Delta":28812820},{"NoteNumber":72,"Velocity":74,"Duration":52924,"SoundDuration":52924,"Delta":29021968},{"NoteNumber":60,"Velocity":55,"Duration":52924,"SoundDuration":52924,"Delta":29021968},{"NoteNumber":84,"Velocity":82,"Duration":52007,"SoundDuration":52007,"Delta":29238104},{"NoteNumber":48,"Velocity":60,"Duration":52007,"SoundDuration":52007,"Delta":29238104},{"NoteNumber":72,"Velocity":66,"Duration":52924,"SoundDuration":52924,"Delta":29447969},{"NoteNumber":60,"Velocity":53,"Duration":52924,"SoundDuration":52924,"Delta":29447969},{"NoteNumber":84,"Velocity":81,"Duration":52999,"SoundDuration":52999,"Delta":29663221},{"NoteNumber":48,"Velocity":60,"Duration":52999,"SoundDuration":52999,"Delta":29663221},{"NoteNumber":72,"Velocity":66,"Duration":52999,"SoundDuration":52999,"Delta":29875220},{"NoteNumber":60,"Velocity":52,"Duration":52999,"SoundDuration":52999,"Delta":29875220},{"NoteNumber":82,"Velocity":64,"Duration":54265,"SoundDuration":54265,"Delta":30091505},{"NoteNumber":79,"Velocity":64,"Duration":54265,"SoundDuration":54265,"Delta":30091505},{"NoteNumber":47,"Velocity":49,"Duration":54265,"SoundDuration":54265,"Delta":30091505},{"NoteNumber":77,"Velocity":50,"Duration":105999,"SoundDuration":105999,"Delta":30308566},{"NoteNumber":80,"Velocity":50,"Duration":105999,"SoundDuration":105999,"Delta":30308566},{"NoteNumber":59,"Velocity":43,"Duration":52999,"SoundDuration":52999,"Delta":30308566},{"NoteNumber":79,"Velocity":50,"Duration":105999,"SoundDuration":105999,"Delta":30414566},{"NoteNumber":76,"Velocity":50,"Duration":105999,"SoundDuration":105999,"Delta":30414566},{"NoteNumber":77,"Velocity":50,"Duration":105999,"SoundDuration":105999,"Delta":30520565},{"NoteNumber":80,"Velocity":50,"Duration":105999,"SoundDuration":105999,"Delta":30520565},{"NoteNumber":47,"Velocity":43,"Duration":52999,"SoundDuration":52999,"Delta":30520565},{"NoteNumber":79,"Velocity":50,"Duration":105999,"SoundDuration":105999,"Delta":30626565},{"NoteNumber":82,"Velocity":50,"Duration":105999,"SoundDuration":105999,"Delta":30626565},{"NoteNumber":79,"Velocity":57,"Duration":654208,"SoundDuration":654208,"Delta":30732564},{"NoteNumber":76,"Velocity":57,"Duration":654208,"SoundDuration":654208,"Delta":30732564},{"NoteNumber":60,"Velocity":43,"Duration":53411,"SoundDuration":53411,"Delta":30732564},{"NoteNumber":48,"Velocity":41,"Duration":54700,"SoundDuration":54700,"Delta":30946209},{"NoteNumber":60,"Velocity":43,"Duration":54700,"SoundDuration":54700,"Delta":31165012},{"NoteNumber":84,"Velocity":81,"Duration":51649,"SoundDuration":51649,"Delta":31386772},{"NoteNumber":48,"Velocity":60,"Duration":51649,"SoundDuration":51649,"Delta":31386772},{"NoteNumber":72,"Velocity":74,"Duration":53112,"SoundDuration":53112,"Delta":31596296},{"NoteNumber":60,"Velocity":55,"Duration":53112,"SoundDuration":53112,"Delta":31596296},{"NoteNumber":84,"Velocity":82,"Duration":211999,"SoundDuration":211999,"Delta":31812807},{"NoteNumber":48,"Velocity":60,"Duration":211999,"SoundDuration":211999,"Delta":31812807},{"NoteNumber":85,"Velocity":84,"Duration":215400,"SoundDuration":215400,"Delta":32024806},{"NoteNumber":49,"Velocity":60,"Duration":215400,"SoundDuration":215400,"Delta":32024806},{"NoteNumber":73,"Velocity":68,"Duration":52999,"SoundDuration":52999,"Delta":32240206},{"NoteNumber":61,"Velocity":49,"Duration":52999,"SoundDuration":52999,"Delta":32240206},{"NoteNumber":85,"Velocity":81,"Duration":52999,"SoundDuration":52999,"Delta":32452205},{"NoteNumber":49,"Velocity":57,"Duration":52999,"SoundDuration":52999,"Delta":32452205},{"NoteNumber":73,"Velocity":52,"Duration":108530,"SoundDuration":108530,"Delta":32668491},{"NoteNumber":70,"Velocity":52,"Duration":108530,"SoundDuration":108530,"Delta":32668491},{"NoteNumber":49,"Velocity":49,"Duration":54265,"SoundDuration":54265,"Delta":32668491},{"NoteNumber":68,"Velocity":46,"Duration":108530,"SoundDuration":108530,"Delta":32777021},{"NoteNumber":71,"Velocity":46,"Duration":108530,"SoundDuration":108530,"Delta":32777021},{"NoteNumber":66,"Velocity":44,"Duration":105999,"SoundDuration":105999,"Delta":32885552},{"NoteNumber":70,"Velocity":44,"Duration":105999,"SoundDuration":105999,"Delta":32885552},{"NoteNumber":61,"Velocity":43,"Duration":52999,"SoundDuration":52999,"Delta":32885552},{"NoteNumber":68,"Velocity":42,"Duration":105999,"SoundDuration":105999,"Delta":32991551},{"NoteNumber":71,"Velocity":42,"Duration":105999,"SoundDuration":105999,"Delta":32991551},{"NoteNumber":66,"Velocity":40,"Duration":105999,"SoundDuration":105999,"Delta":33097551},{"NoteNumber":70,"Velocity":40,"Duration":105999,"SoundDuration":105999,"Delta":33097551},{"NoteNumber":49,"Velocity":43,"Duration":52999,"SoundDuration":52999,"Delta":33097551},{"NoteNumber":68,"Velocity":38,"Duration":105999,"SoundDuration":105999,"Delta":33203550},{"NoteNumber":65,"Velocity":38,"Duration":105999,"SoundDuration":105999,"Delta":33203550},{"NoteNumber":66,"Velocity":46,"Duration":106822,"SoundDuration":106822,"Delta":33309550},{"NoteNumber":70,"Velocity":46,"Duration":106822,"SoundDuration":106822,"Delta":33309550},{"NoteNumber":61,"Velocity":43,"Duration":106822,"SoundDuration":106822,"Delta":33309550},{"NoteNumber":66,"Velocity":38,"Duration":109401,"SoundDuration":109401,"Delta":33523195},{"NoteNumber":70,"Velocity":38,"Duration":109401,"SoundDuration":109401,"Delta":33523195},{"NoteNumber":49,"Velocity":43,"Duration":109401,"SoundDuration":109401,"Delta":33523195},{"NoteNumber":70,"Velocity":38,"Duration":109401,"SoundDuration":109401,"Delta":33741997},{"NoteNumber":66,"Velocity":38,"Duration":109401,"SoundDuration":109401,"Delta":33741997},{"NoteNumber":61,"Velocity":43,"Duration":109401,"SoundDuration":109401,"Delta":33741997},{"NoteNumber":71,"Velocity":50,"Duration":108530,"SoundDuration":108530,"Delta":33960800},{"NoteNumber":68,"Velocity":50,"Duration":108530,"SoundDuration":108530,"Delta":33960800},{"NoteNumber":65,"Velocity":42,"Duration":108530,"SoundDuration":108530,"Delta":33960800},{"NoteNumber":49,"Velocity":43,"Duration":108530,"SoundDuration":108530,"Delta":33960800},{"NoteNumber":68,"Velocity":51,"Duration":108530,"SoundDuration":108530,"Delta":34177861},{"NoteNumber":71,"Velocity":51,"Duration":108530,"SoundDuration":108530,"Delta":34177861},{"NoteNumber":65,"Velocity":43,"Duration":108530,"SoundDuration":108530,"Delta":34177861},{"NoteNumber":61,"Velocity":43,"Duration":108530,"SoundDuration":108530,"Delta":34177861},{"NoteNumber":68,"Velocity":56,"Duration":108530,"SoundDuration":108530,"Delta":34394922},{"NoteNumber":71,"Velocity":56,"Duration":108530,"SoundDuration":108530,"Delta":34394922},{"NoteNumber":65,"Velocity":47,"Duration":108530,"SoundDuration":108530,"Delta":34394922},{"NoteNumber":49,"Velocity":44,"Duration":108530,"SoundDuration":108530,"Delta":34394922},{"NoteNumber":83,"Velocity":59,"Duration":107250,"SoundDuration":107250,"Delta":34611983},{"NoteNumber":80,"Velocity":59,"Duration":107250,"SoundDuration":107250,"Delta":34611983},{"NoteNumber":77,"Velocity":50,"Duration":107250,"SoundDuration":107250,"Delta":34611983},{"NoteNumber":61,"Velocity":45,"Duration":107250,"SoundDuration":107250,"Delta":34611983},{"NoteNumber":83,"Velocity":64,"Duration":107250,"SoundDuration":107250,"Delta":34826483},{"NoteNumber":80,"Velocity":64,"Duration":107250,"SoundDuration":107250,"Delta":34826483},{"NoteNumber":77,"Velocity":54,"Duration":107250,"SoundDuration":107250,"Delta":34826483},{"NoteNumber":49,"Velocity":50,"Duration":107250,"SoundDuration":107250,"Delta":34826483},{"NoteNumber":77,"Velocity":59,"Duration":107250,"SoundDuration":107250,"Delta":35040983},{"NoteNumber":80,"Velocity":70,"Duration":107250,"SoundDuration":107250,"Delta":35040983},{"NoteNumber":83,"Velocity":70,"Duration":107250,"SoundDuration":107250,"Delta":35040983},{"NoteNumber":61,"Velocity":51,"Duration":107250,"SoundDuration":107250,"Delta":35040983},{"NoteNumber":96,"Velocity":74,"Duration":105108,"SoundDuration":105108,"Delta":35260332},{"NoteNumber":92,"Velocity":62,"Duration":105108,"SoundDuration":105108,"Delta":35260332},{"NoteNumber":48,"Velocity":51,"Duration":105108,"SoundDuration":105108,"Delta":35260332},{"NoteNumber":94,"Velocity":66,"Duration":105108,"SoundDuration":105108,"Delta":35365440},{"NoteNumber":91,"Velocity":56,"Duration":105108,"SoundDuration":105108,"Delta":35365440},{"NoteNumber":92,"Velocity":73,"Duration":106602,"SoundDuration":106602,"Delta":35470549},{"NoteNumber":89,"Velocity":61,"Duration":106602,"SoundDuration":106602,"Delta":35470549},{"NoteNumber":60,"Velocity":53,"Duration":106602,"SoundDuration":106602,"Delta":35470549},{"NoteNumber":91,"Velocity":55,"Duration":106602,"SoundDuration":106602,"Delta":35577151},{"NoteNumber":94,"Velocity":64,"Duration":106602,"SoundDuration":106602,"Delta":35577151},{"NoteNumber":89,"Velocity":61,"Duration":106602,"SoundDuration":106602,"Delta":35683753},{"NoteNumber":92,"Velocity":73,"Duration":106602,"SoundDuration":106602,"Delta":35683753},{"NoteNumber":48,"Velocity":57,"Duration":106602,"SoundDuration":106602,"Delta":35683753},{"NoteNumber":91,"Velocity":64,"Duration":114460,"SoundDuration":114460,"Delta":35790355},{"NoteNumber":88,"Velocity":55,"Duration":114460,"SoundDuration":114460,"Delta":35790355},{"NoteNumber":89,"Velocity":73,"Duration":108530,"SoundDuration":108530,"Delta":35904816},{"NoteNumber":53,"Velocity":60,"Duration":108530,"SoundDuration":108530,"Delta":35904816},{"NoteNumber":91,"Velocity":73,"Duration":53689,"SoundDuration":53689,"Delta":36121877},{"NoteNumber":61,"Velocity":51,"Duration":1073732,"SoundDuration":1073732,"Delta":36121877},{"NoteNumber":53,"Velocity":51,"Duration":1073732,"SoundDuration":1073732,"Delta":36121877},{"NoteNumber":58,"Velocity":51,"Duration":1073732,"SoundDuration":1073732,"Delta":36121877},{"NoteNumber":64,"Velocity":61,"Duration":1073732,"SoundDuration":1073732,"Delta":36121877},{"NoteNumber":92,"Velocity":67,"Duration":54136,"SoundDuration":54136,"Delta":36175566},{"NoteNumber":91,"Velocity":58,"Duration":53745,"SoundDuration":53745,"Delta":36229702},{"NoteNumber":92,"Velocity":54,"Duration":53774,"SoundDuration":53774,"Delta":36283448},{"NoteNumber":91,"Velocity":58,"Duration":53840,"SoundDuration":53840,"Delta":36337222},{"NoteNumber":92,"Velocity":52,"Duration":54186,"SoundDuration":54186,"Delta":36391063},{"NoteNumber":91,"Velocity":58,"Duration":53876,"SoundDuration":53876,"Delta":36445249},{"NoteNumber":92,"Velocity":52,"Duration":53528,"SoundDuration":53528,"Delta":36499125},{"NoteNumber":91,"Velocity":58,"Duration":53362,"SoundDuration":53362,"Delta":36552654},{"NoteNumber":92,"Velocity":52,"Duration":53138,"SoundDuration":53138,"Delta":36606016},{"NoteNumber":91,"Velocity":58,"Duration":70512,"SoundDuration":70512,"Delta":36659155},{"NoteNumber":92,"Velocity":54,"Duration":70675,"SoundDuration":70675,"Delta":36729667},{"NoteNumber":91,"Velocity":58,"Duration":71223,"SoundDuration":71223,"Delta":36800343},{"NoteNumber":90,"Velocity":54,"Duration":53744,"SoundDuration":53744,"Delta":36871567},{"NoteNumber":91,"Velocity":56,"Duration":54096,"SoundDuration":54096,"Delta":36925312},{"NoteNumber":92,"Velocity":69,"Duration":108100,"SoundDuration":108100,"Delta":36979409},{"NoteNumber":91,"Velocity":61,"Duration":108100,"SoundDuration":108100,"Delta":37087509},{"NoteNumber":89,"Velocity":81,"Duration":108100,"SoundDuration":108100,"Delta":37195609},{"NoteNumber":60,"Velocity":52,"Duration":108100,"SoundDuration":108100,"Delta":37195609},{"NoteNumber":53,"Velocity":52,"Duration":108100,"SoundDuration":108100,"Delta":37195609},{"NoteNumber":65,"Velocity":62,"Duration":108100,"SoundDuration":108100,"Delta":37195609},{"NoteNumber":56,"Velocity":52,"Duration":108100,"SoundDuration":108100,"Delta":37195609},{"NoteNumber":79,"Velocity":73,"Duration":54775,"SoundDuration":54775,"Delta":37411810},{"NoteNumber":53,"Velocity":51,"Duration":1084911,"SoundDuration":1084911,"Delta":37411810},{"NoteNumber":64,"Velocity":61,"Duration":1084911,"SoundDuration":1084911,"Delta":37411810},{"NoteNumber":61,"Velocity":51,"Duration":1084911,"SoundDuration":1084911,"Delta":37411810},{"NoteNumber":58,"Velocity":51,"Duration":1084911,"SoundDuration":1084911,"Delta":37411810},{"NoteNumber":80,"Velocity":67,"Duration":55056,"SoundDuration":55056,"Delta":37466586},{"NoteNumber":79,"Velocity":58,"Duration":54846,"SoundDuration":54846,"Delta":37521642},{"NoteNumber":80,"Velocity":54,"Duration":54347,"SoundDuration":54347,"Delta":37576488},{"NoteNumber":79,"Velocity":58,"Duration":54654,"SoundDuration":54654,"Delta":37630836},{"NoteNumber":80,"Velocity":52,"Duration":55056,"SoundDuration":55056,"Delta":37685491},{"NoteNumber":79,"Velocity":58,"Duration":54691,"SoundDuration":54691,"Delta":37740547},{"NoteNumber":80,"Velocity":52,"Duration":54328,"SoundDuration":54328,"Delta":37795239},{"NoteNumber":79,"Velocity":58,"Duration":53992,"SoundDuration":53992,"Delta":37849567},{"NoteNumber":80,"Velocity":52,"Duration":53635,"SoundDuration":53635,"Delta":37903560},{"NoteNumber":79,"Velocity":58,"Duration":70932,"SoundDuration":70932,"Delta":37957195},{"NoteNumber":80,"Velocity":54,"Duration":71159,"SoundDuration":71159,"Delta":38028127},{"NoteNumber":79,"Velocity":58,"Duration":71972,"SoundDuration":71972,"Delta":38099287},{"NoteNumber":78,"Velocity":54,"Duration":54522,"SoundDuration":54522,"Delta":38171259},{"NoteNumber":79,"Velocity":56,"Duration":54739,"SoundDuration":54739,"Delta":38225782},{"NoteNumber":80,"Velocity":69,"Duration":108100,"SoundDuration":108100,"Delta":38280521},{"NoteNumber":79,"Velocity":63,"Duration":108100,"SoundDuration":108100,"Delta":38388621},{"NoteNumber":77,"Velocity":81,"Duration":108100,"SoundDuration":108100,"Delta":38496721},{"NoteNumber":53,"Velocity":52,"Duration":108100,"SoundDuration":108100,"Delta":38496721},{"NoteNumber":60,"Velocity":52,"Duration":108100,"SoundDuration":108100,"Delta":38496721},{"NoteNumber":65,"Velocity":62,"Duration":108100,"SoundDuration":108100,"Delta":38496721},{"NoteNumber":56,"Velocity":52,"Duration":108100,"SoundDuration":108100,"Delta":38496721},{"NoteNumber":91,"Velocity":73,"Duration":53689,"SoundDuration":53689,"Delta":38712922},{"NoteNumber":61,"Velocity":51,"Duration":1100467,"SoundDuration":1100467,"Delta":38712922},{"NoteNumber":58,"Velocity":51,"Duration":1100467,"SoundDuration":1100467,"Delta":38712922},{"NoteNumber":64,"Velocity":61,"Duration":1100467,"SoundDuration":1100467,"Delta":38712922},{"NoteNumber":53,"Velocity":51,"Duration":1100467,"SoundDuration":1100467,"Delta":38712922},{"NoteNumber":92,"Velocity":67,"Duration":54136,"SoundDuration":54136,"Delta":38766611},{"NoteNumber":91,"Velocity":58,"Duration":53745,"SoundDuration":53745,"Delta":38820748},{"NoteNumber":92,"Velocity":54,"Duration":53774,"SoundDuration":53774,"Delta":38874493},{"NoteNumber":91,"Velocity":58,"Duration":53840,"SoundDuration":53840,"Delta":38928267},{"NoteNumber":92,"Velocity":52,"Duration":54186,"SoundDuration":54186,"Delta":38982108},{"NoteNumber":91,"Velocity":58,"Duration":53876,"SoundDuration":53876,"Delta":39036294},{"NoteNumber":92,"Velocity":52,"Duration":54413,"SoundDuration":54413,"Delta":39090170},{"NoteNumber":90,"Velocity":58,"Duration":56271,"SoundDuration":56271,"Delta":39144584},{"NoteNumber":91,"Velocity":53,"Duration":55807,"SoundDuration":55807,"Delta":39200855},{"NoteNumber":92,"Velocity":54,"Duration":55350,"SoundDuration":55350,"Delta":39256663},{"NoteNumber":94,"Velocity":56,"Duration":54858,"SoundDuration":54858,"Delta":39312014},{"NoteNumber":96,"Velocity":57,"Duration":54440,"SoundDuration":54440,"Delta":39366872},{"NoteNumber":97,"Velocity":58,"Duration":54828,"SoundDuration":54828,"Delta":39421312},{"NoteNumber":100,"Velocity":60,"Duration":55225,"SoundDuration":55225,"Delta":39476141},{"NoteNumber":101,"Velocity":62,"Duration":55627,"SoundDuration":55627,"Delta":39531366},{"NoteNumber":100,"Velocity":63,"Duration":37268,"SoundDuration":37268,"Delta":39586994},{"NoteNumber":97,"Velocity":62,"Duration":37463,"SoundDuration":37463,"Delta":39624262},{"NoteNumber":96,"Velocity":61,"Duration":37654,"SoundDuration":37654,"Delta":39662666},{"NoteNumber":94,"Velocity":61,"Duration":37828,"SoundDuration":37828,"Delta":39700320},{"NoteNumber":92,"Velocity":60,"Duration":38019,"SoundDuration":38019,"Delta":39737202},{"NoteNumber":91,"Velocity":59,"Duration":38167,"SoundDuration":38167,"Delta":39775221},{"NoteNumber":89,"Velocity":81,"Duration":114503,"SoundDuration":114503,"Delta":39813389},{"NoteNumber":56,"Velocity":52,"Duration":114503,"SoundDuration":114503,"Delta":39813389},{"NoteNumber":53,"Velocity":52,"Duration":114503,"SoundDuration":114503,"Delta":39813389},{"NoteNumber":60,"Velocity":52,"Duration":114503,"SoundDuration":114503,"Delta":39813389},{"NoteNumber":65,"Velocity":62,"Duration":114503,"SoundDuration":114503,"Delta":39813389},{"NoteNumber":79,"Velocity":73,"Duration":53689,"SoundDuration":53689,"Delta":40042396},{"NoteNumber":53,"Velocity":51,"Duration":1787447,"SoundDuration":1787447,"Delta":40042396},{"NoteNumber":58,"Velocity":51,"Duration":1787447,"SoundDuration":1787447,"Delta":40042396},{"NoteNumber":61,"Velocity":51,"Duration":1787447,"SoundDuration":1787447,"Delta":40042396},{"NoteNumber":64,"Velocity":61,"Duration":1787447,"SoundDuration":1787447,"Delta":40042396},{"NoteNumber":80,"Velocity":53,"Duration":54136,"SoundDuration":54136,"Delta":40096086},{"NoteNumber":79,"Velocity":58,"Duration":53745,"SoundDuration":53745,"Delta":40150222},{"NoteNumber":80,"Velocity":54,"Duration":53774,"SoundDuration":53774,"Delta":40203968},{"NoteNumber":79,"Velocity":58,"Duration":53840,"SoundDuration":53840,"Delta":40257742},{"NoteNumber":80,"Velocity":52,"Duration":54571,"SoundDuration":54571,"Delta":40311582},{"NoteNumber":79,"Velocity":58,"Duration":54774,"SoundDuration":54774,"Delta":40366154},{"NoteNumber":80,"Velocity":52,"Duration":54998,"SoundDuration":54998,"Delta":40420928},{"NoteNumber":78,"Velocity":58,"Duration":46094,"SoundDuration":46094,"Delta":40475926},{"NoteNumber":79,"Velocity":53,"Duration":45973,"SoundDuration":45973,"Delta":40522020},{"NoteNumber":80,"Velocity":54,"Duration":45530,"SoundDuration":45530,"Delta":40567994},{"NoteNumber":82,"Velocity":56,"Duration":45109,"SoundDuration":45109,"Delta":40613524},{"NoteNumber":84,"Velocity":57,"Duration":44501,"SoundDuration":44501,"Delta":40658634},{"NoteNumber":85,"Velocity":58,"Duration":44266,"SoundDuration":44266,"Delta":40703135},{"NoteNumber":88,"Velocity":60,"Duration":44280,"SoundDuration":44280,"Delta":40747402},{"NoteNumber":89,"Velocity":62,"Duration":44280,"SoundDuration":44280,"Delta":40791682},{"NoteNumber":91,"Velocity":62,"Duration":44280,"SoundDuration":44280,"Delta":40835963},{"NoteNumber":89,"Velocity":62,"Duration":44280,"SoundDuration":44280,"Delta":40880243},{"NoteNumber":88,"Velocity":63,"Duration":30442,"SoundDuration":30442,"Delta":40924523},{"NoteNumber":85,"Velocity":63,"Duration":30442,"SoundDuration":30442,"Delta":40954966},{"NoteNumber":84,"Velocity":62,"Duration":30442,"SoundDuration":30442,"Delta":40985409},{"NoteNumber":82,"Velocity":61,"Duration":30442,"SoundDuration":30442,"Delta":41015852},{"NoteNumber":80,"Velocity":61,"Duration":30442,"SoundDuration":30442,"Delta":41046295},{"NoteNumber":79,"Velocity":60,"Duration":30442,"SoundDuration":30442,"Delta":41076737},{"NoteNumber":77,"Velocity":59,"Duration":38659,"SoundDuration":38659,"Delta":41107180},{"NoteNumber":76,"Velocity":58,"Duration":55192,"SoundDuration":55192,"Delta":41145840},{"NoteNumber":73,"Velocity":55,"Duration":55487,"SoundDuration":55487,"Delta":41201032},{"NoteNumber":72,"Velocity":53,"Duration":55838,"SoundDuration":55838,"Delta":41256520},{"NoteNumber":70,"Velocity":51,"Duration":56144,"SoundDuration":56144,"Delta":41312358},{"NoteNumber":68,"Velocity":49,"Duration":56522,"SoundDuration":56522,"Delta":41368503},{"NoteNumber":67,"Velocity":47,"Duration":56883,"SoundDuration":56883,"Delta":41425025},{"NoteNumber":66,"Velocity":45,"Duration":57197,"SoundDuration":57197,"Delta":41481908},{"NoteNumber":67,"Velocity":42,"Duration":57563,"SoundDuration":57563,"Delta":41539106},{"NoteNumber":68,"Velocity":40,"Duration":38595,"SoundDuration":38595,"Delta":41596669},{"NoteNumber":69,"Velocity":40,"Duration":38639,"SoundDuration":38639,"Delta":41635264},{"NoteNumber":70,"Velocity":39,"Duration":38771,"SoundDuration":38771,"Delta":41673904},{"NoteNumber":71,"Velocity":39,"Duration":38904,"SoundDuration":38904,"Delta":41712676},{"NoteNumber":72,"Velocity":37,"Duration":39038,"SoundDuration":39038,"Delta":41751581},{"NoteNumber":73,"Velocity":37,"Duration":39225,"SoundDuration":39225,"Delta":41790619},{"NoteNumber":72,"Velocity":56,"Duration":56518,"SoundDuration":56518,"Delta":41829844},{"NoteNumber":53,"Velocity":35,"Duration":56518,"SoundDuration":56518,"Delta":41829844},{"NoteNumber":72,"Velocity":45,"Duration":110286,"SoundDuration":110286,"Delta":42063045},{"NoteNumber":56,"Velocity":25,"Duration":55143,"SoundDuration":55143,"Delta":42063045},{"NoteNumber":65,"Velocity":30,"Duration":55143,"SoundDuration":55143,"Delta":42063045},{"NoteNumber":60,"Velocity":25,"Duration":55143,"SoundDuration":55143,"Delta":42063045},{"NoteNumber":73,"Velocity":39,"Duration":110285,"SoundDuration":110285,"Delta":42173331},{"NoteNumber":72,"Velocity":46,"Duration":56285,"SoundDuration":56285,"Delta":42283617},{"NoteNumber":53,"Velocity":30,"Duration":56285,"SoundDuration":56285,"Delta":42283617},{"NoteNumber":73,"Velocity":40,"Duration":56285,"SoundDuration":56285,"Delta":42511439},{"NoteNumber":56,"Velocity":29,"Duration":56285,"SoundDuration":56285,"Delta":42511439},{"NoteNumber":60,"Velocity":29,"Duration":56285,"SoundDuration":56285,"Delta":42511439},{"NoteNumber":65,"Velocity":35,"Duration":56285,"SoundDuration":56285,"Delta":42511439},{"NoteNumber":72,"Velocity":49,"Duration":56285,"SoundDuration":56285,"Delta":42567725},{"NoteNumber":72,"Velocity":44,"Duration":110286,"SoundDuration":110286,"Delta":42736580},{"NoteNumber":53,"Velocity":31,"Duration":55143,"SoundDuration":55143,"Delta":42736580},{"NoteNumber":73,"Velocity":36,"Duration":110285,"SoundDuration":110285,"Delta":42846866},{"NoteNumber":72,"Velocity":42,"Duration":55143,"SoundDuration":55143,"Delta":42957152},{"NoteNumber":56,"Velocity":26,"Duration":55143,"SoundDuration":55143,"Delta":42957152},{"NoteNumber":65,"Velocity":31,"Duration":55143,"SoundDuration":55143,"Delta":42957152},{"NoteNumber":60,"Velocity":26,"Duration":55143,"SoundDuration":55143,"Delta":42957152},{"NoteNumber":72,"Velocity":40,"Duration":112570,"SoundDuration":112570,"Delta":43187136},{"NoteNumber":53,"Velocity":35,"Duration":56285,"SoundDuration":56285,"Delta":43187136},{"NoteNumber":71,"Velocity":52,"Duration":55469,"SoundDuration":55469,"Delta":43299706},{"NoteNumber":71,"Velocity":47,"Duration":108530,"SoundDuration":108530,"Delta":43410645},{"NoteNumber":62,"Velocity":31,"Duration":54265,"SoundDuration":54265,"Delta":43410645},{"NoteNumber":56,"Velocity":26,"Duration":54265,"SoundDuration":54265,"Delta":43410645},{"NoteNumber":59,"Velocity":26,"Duration":54265,"SoundDuration":54265,"Delta":43410645},{"NoteNumber":74,"Velocity":40,"Duration":108530,"SoundDuration":108530,"Delta":43519175},{"NoteNumber":72,"Velocity":45,"Duration":112570,"SoundDuration":112570,"Delta":43627706},{"NoteNumber":53,"Velocity":31,"Duration":56285,"SoundDuration":56285,"Delta":43627706},{"NoteNumber":71,"Velocity":36,"Duration":117087,"SoundDuration":117087,"Delta":43740276},{"NoteNumber":72,"Velocity":46,"Duration":63944,"SoundDuration":63944,"Delta":43857364},{"NoteNumber":48,"Velocity":35,"Duration":63944,"SoundDuration":63944,"Delta":43857364},{"NoteNumber":67,"Velocity":39,"Duration":455888,"SoundDuration":455888,"Delta":44113140},{"NoteNumber":52,"Velocity":27,"Duration":55820,"SoundDuration":55820,"Delta":44113140},{"NoteNumber":60,"Velocity":32,"Duration":55820,"SoundDuration":55820,"Delta":44113140},{"NoteNumber":55,"Velocity":27,"Duration":55820,"SoundDuration":55820,"Delta":44113140},{"NoteNumber":48,"Velocity":32,"Duration":55820,"SoundDuration":55820,"Delta":44336421},{"NoteNumber":72,"Velocity":46,"Duration":55371,"SoundDuration":55371,"Delta":44569029},{"NoteNumber":52,"Velocity":29,"Duration":55371,"SoundDuration":55371,"Delta":44569029},{"NoteNumber":60,"Velocity":35,"Duration":55371,"SoundDuration":55371,"Delta":44569029},{"NoteNumber":55,"Velocity":29,"Duration":55371,"SoundDuration":55371,"Delta":44569029},{"NoteNumber":67,"Velocity":39,"Duration":55371,"SoundDuration":55371,"Delta":44790513},{"NoteNumber":48,"Velocity":31,"Duration":55371,"SoundDuration":55371,"Delta":44790513},{"NoteNumber":72,"Velocity":46,"Duration":55371,"SoundDuration":55371,"Delta":45011997},{"NoteNumber":52,"Velocity":26,"Duration":55371,"SoundDuration":55371,"Delta":45011997},{"NoteNumber":55,"Velocity":26,"Duration":55371,"SoundDuration":55371,"Delta":45011997},{"NoteNumber":60,"Velocity":31,"Duration":55371,"SoundDuration":55371,"Delta":45011997},{"NoteNumber":70,"Velocity":46,"Duration":221484,"SoundDuration":221484,"Delta":45233481},{"NoteNumber":49,"Velocity":35,"Duration":55371,"SoundDuration":55371,"Delta":45233481},{"NoteNumber":68,"Velocity":39,"Duration":108530,"SoundDuration":108530,"Delta":45454965},{"NoteNumber":53,"Velocity":26,"Duration":54265,"SoundDuration":54265,"Delta":45454965},{"NoteNumber":61,"Velocity":31,"Duration":54265,"SoundDuration":54265,"Delta":45454965},{"NoteNumber":67,"Velocity":39,"Duration":108530,"SoundDuration":108530,"Delta":45563495},{"NoteNumber":65,"Velocity":43,"Duration":226640,"SoundDuration":226640,"Delta":45672026},{"NoteNumber":49,"Velocity":31,"Duration":54265,"SoundDuration":54265,"Delta":45672026},{"NoteNumber":67,"Velocity":46,"Duration":110742,"SoundDuration":110742,"Delta":45898666},{"NoteNumber":46,"Velocity":35,"Duration":221483,"SoundDuration":221483,"Delta":45898666},{"NoteNumber":70,"Velocity":38,"Duration":110741,"SoundDuration":110741,"Delta":46009408},{"NoteNumber":67,"Velocity":46,"Duration":110742,"SoundDuration":110742,"Delta":46120150},{"NoteNumber":58,"Velocity":33,"Duration":221484,"SoundDuration":221484,"Delta":46120150},{"NoteNumber":55,"Velocity":28,"Duration":221484,"SoundDuration":221484,"Delta":46120150},{"NoteNumber":70,"Velocity":40,"Duration":110742,"SoundDuration":110742,"Delta":46230892},{"NoteNumber":64,"Velocity":46,"Duration":108100,"SoundDuration":108100,"Delta":46341634},{"NoteNumber":48,"Velocity":28,"Duration":108100,"SoundDuration":108100,"Delta":46341634},{"NoteNumber":55,"Velocity":28,"Duration":108100,"SoundDuration":108100,"Delta":46341634},{"NoteNumber":58,"Velocity":33,"Duration":108100,"SoundDuration":108100,"Delta":46341634},{"NoteNumber":67,"Velocity":40,"Duration":113036,"SoundDuration":113036,"Delta":46449735},{"NoteNumber":65,"Velocity":46,"Duration":108530,"SoundDuration":108530,"Delta":46562772},{"NoteNumber":53,"Velocity":34,"Duration":430407,"SoundDuration":430407,"Delta":46562772},{"NoteNumber":56,"Velocity":40,"Duration":430407,"SoundDuration":430407,"Delta":46562772},{"NoteNumber":68,"Velocity":37,"Duration":108119,"SoundDuration":108119,"Delta":46671302},{"NoteNumber":72,"Velocity":42,"Duration":107298,"SoundDuration":107298,"Delta":46779421},{"NoteNumber":77,"Velocity":47,"Duration":106459,"SoundDuration":106459,"Delta":46886720},{"NoteNumber":80,"Velocity":52,"Duration":105636,"SoundDuration":105636,"Delta":46993179},{"NoteNumber":82,"Velocity":57,"Duration":109689,"SoundDuration":109689,"Delta":47098815},{"NoteNumber":84,"Velocity":65,"Duration":56518,"SoundDuration":56518,"Delta":47208505},{"NoteNumber":53,"Velocity":35,"Duration":56518,"SoundDuration":56518,"Delta":47208505},{"NoteNumber":84,"Velocity":54,"Duration":110286,"SoundDuration":110286,"Delta":47440827},{"NoteNumber":60,"Velocity":25,"Duration":55143,"SoundDuration":55143,"Delta":47440827},{"NoteNumber":65,"Velocity":30,"Duration":55143,"SoundDuration":55143,"Delta":47440827},{"NoteNumber":56,"Velocity":25,"Duration":55143,"SoundDuration":55143,"Delta":47440827},{"NoteNumber":85,"Velocity":46,"Duration":110285,"SoundDuration":110285,"Delta":47551113},{"NoteNumber":84,"Velocity":55,"Duration":56049,"SoundDuration":56049,"Delta":47661399},{"NoteNumber":53,"Velocity":30,"Duration":56049,"SoundDuration":56049,"Delta":47661399},{"NoteNumber":85,"Velocity":48,"Duration":56285,"SoundDuration":56285,"Delta":47890032},{"NoteNumber":60,"Velocity":29,"Duration":56285,"SoundDuration":56285,"Delta":47890032},{"NoteNumber":65,"Velocity":35,"Duration":56285,"SoundDuration":56285,"Delta":47890032},{"NoteNumber":56,"Velocity":29,"Duration":56285,"SoundDuration":56285,"Delta":47890032},{"NoteNumber":84,"Velocity":64,"Duration":56285,"SoundDuration":56285,"Delta":47946317},{"NoteNumber":84,"Velocity":52,"Duration":110742,"SoundDuration":110742,"Delta":48115173},{"NoteNumber":53,"Velocity":31,"Duration":55371,"SoundDuration":55371,"Delta":48115173},{"NoteNumber":85,"Velocity":43,"Duration":110741,"SoundDuration":110741,"Delta":48225915},{"NoteNumber":84,"Velocity":50,"Duration":55371,"SoundDuration":55371,"Delta":48336657},{"NoteNumber":60,"Velocity":26,"Duration":55371,"SoundDuration":55371,"Delta":48336657},{"NoteNumber":65,"Velocity":31,"Duration":55371,"SoundDuration":55371,"Delta":48336657},{"NoteNumber":56,"Velocity":26,"Duration":55371,"SoundDuration":55371,"Delta":48336657},{"NoteNumber":84,"Velocity":61,"Duration":112570,"SoundDuration":112570,"Delta":48563040},{"NoteNumber":53,"Velocity":35,"Duration":56285,"SoundDuration":56285,"Delta":48563040},{"NoteNumber":83,"Velocity":48,"Duration":111185,"SoundDuration":111185,"Delta":48675610},{"NoteNumber":89,"Velocity":56,"Duration":109401,"SoundDuration":109401,"Delta":48786795},{"NoteNumber":56,"Velocity":26,"Duration":54700,"SoundDuration":54700,"Delta":48786795},{"NoteNumber":59,"Velocity":26,"Duration":54700,"SoundDuration":54700,"Delta":48786795},{"NoteNumber":62,"Velocity":31,"Duration":54700,"SoundDuration":54700,"Delta":48786795},{"NoteNumber":83,"Velocity":48,"Duration":109401,"SoundDuration":109401,"Delta":48896196},{"NoteNumber":89,"Velocity":54,"Duration":109401,"SoundDuration":109401,"Delta":49005598},{"NoteNumber":53,"Velocity":31,"Duration":54700,"SoundDuration":54700,"Delta":49005598},{"NoteNumber":83,"Velocity":43,"Duration":115503,"SoundDuration":115503,"Delta":49114999},{"NoteNumber":84,"Velocity":55,"Duration":63944,"SoundDuration":63944,"Delta":49230502},{"NoteNumber":48,"Velocity":35,"Duration":63944,"SoundDuration":63944,"Delta":49230502},{"NoteNumber":79,"Velocity":46,"Duration":458184,"SoundDuration":458184,"Delta":49486279},{"NoteNumber":60,"Velocity":32,"Duration":55820,"SoundDuration":55820,"Delta":49486279},{"NoteNumber":52,"Velocity":27,"Duration":55820,"SoundDuration":55820,"Delta":49486279},{"NoteNumber":55,"Velocity":27,"Duration":55820,"SoundDuration":55820,"Delta":49486279},{"NoteNumber":48,"Velocity":32,"Duration":55820,"SoundDuration":55820,"Delta":49709559},{"NoteNumber":84,"Velocity":57,"Duration":55371,"SoundDuration":55371,"Delta":49944463},{"NoteNumber":55,"Velocity":29,"Duration":55371,"SoundDuration":55371,"Delta":49944463},{"NoteNumber":60,"Velocity":35,"Duration":55371,"SoundDuration":55371,"Delta":49944463},{"NoteNumber":52,"Velocity":29,"Duration":55371,"SoundDuration":55371,"Delta":49944463},{"NoteNumber":79,"Velocity":46,"Duration":55371,"SoundDuration":55371,"Delta":50165947},{"NoteNumber":48,"Velocity":31,"Duration":55371,"SoundDuration":55371,"Delta":50165947},{"NoteNumber":84,"Velocity":55,"Duration":55371,"SoundDuration":55371,"Delta":50387431},{"NoteNumber":60,"Velocity":31,"Duration":55371,"SoundDuration":55371,"Delta":50387431},{"NoteNumber":52,"Velocity":26,"Duration":55371,"SoundDuration":55371,"Delta":50387431},{"NoteNumber":55,"Velocity":26,"Duration":55371,"SoundDuration":55371,"Delta":50387431},{"NoteNumber":82,"Velocity":62,"Duration":221484,"SoundDuration":221484,"Delta":50608915},{"NoteNumber":49,"Velocity":35,"Duration":55371,"SoundDuration":55371,"Delta":50608915},{"NoteNumber":80,"Velocity":49,"Duration":108530,"SoundDuration":108530,"Delta":50830399},{"NoteNumber":61,"Velocity":31,"Duration":54265,"SoundDuration":54265,"Delta":50830399},{"NoteNumber":53,"Velocity":26,"Duration":54265,"SoundDuration":54265,"Delta":50830399},{"NoteNumber":79,"Velocity":49,"Duration":108530,"SoundDuration":108530,"Delta":50938930},{"NoteNumber":77,"Velocity":57,"Duration":222029,"SoundDuration":222029,"Delta":51047460},{"NoteNumber":49,"Velocity":31,"Duration":54265,"SoundDuration":54265,"Delta":51047460},{"NoteNumber":82,"Velocity":61,"Duration":55371,"SoundDuration":55371,"Delta":51269490},{"NoteNumber":50,"Velocity":35,"Duration":55371,"SoundDuration":55371,"Delta":51269490},{"NoteNumber":77,"Velocity":48,"Duration":55371,"SoundDuration":55371,"Delta":51490974},{"NoteNumber":62,"Velocity":31,"Duration":55371,"SoundDuration":55371,"Delta":51490974},{"NoteNumber":58,"Velocity":31,"Duration":55371,"SoundDuration":55371,"Delta":51490974},{"NoteNumber":82,"Velocity":57,"Duration":55371,"SoundDuration":55371,"Delta":51712458},{"NoteNumber":50,"Velocity":31,"Duration":55371,"SoundDuration":55371,"Delta":51712458},{"NoteNumber":80,"Velocity":63,"Duration":221484,"SoundDuration":221484,"Delta":51933942},{"NoteNumber":51,"Velocity":39,"Duration":55371,"SoundDuration":55371,"Delta":51933942},{"NoteNumber":79,"Velocity":50,"Duration":108530,"SoundDuration":108530,"Delta":52155426},{"NoteNumber":63,"Velocity":33,"Duration":54265,"SoundDuration":54265,"Delta":52155426},{"NoteNumber":58,"Velocity":33,"Duration":54265,"SoundDuration":54265,"Delta":52155426},{"NoteNumber":77,"Velocity":50,"Duration":108530,"SoundDuration":108530,"Delta":52263956},{"NoteNumber":75,"Velocity":55,"Duration":222029,"SoundDuration":222029,"Delta":52372487},{"NoteNumber":51,"Velocity":33,"Duration":54265,"SoundDuration":54265,"Delta":52372487},{"NoteNumber":80,"Velocity":64,"Duration":52631,"SoundDuration":52631,"Delta":52594516},{"NoteNumber":48,"Velocity":41,"Duration":52631,"SoundDuration":52631,"Delta":52594516},{"NoteNumber":75,"Velocity":49,"Duration":53763,"SoundDuration":53763,"Delta":52807306},{"NoteNumber":60,"Velocity":32,"Duration":53763,"SoundDuration":53763,"Delta":52807306},{"NoteNumber":80,"Velocity":58,"Duration":54050,"SoundDuration":54050,"Delta":53025119},{"NoteNumber":48,"Velocity":31,"Duration":54050,"SoundDuration":54050,"Delta":53025119},{"NoteNumber":81,"Velocity":63,"Duration":52816,"SoundDuration":52816,"Delta":53241320},{"NoteNumber":47,"Velocity":40,"Duration":52816,"SoundDuration":52816,"Delta":53241320},{"NoteNumber":75,"Velocity":53,"Duration":53763,"SoundDuration":53763,"Delta":53454480},{"NoteNumber":59,"Velocity":36,"Duration":53763,"SoundDuration":53763,"Delta":53454480},{"NoteNumber":81,"Velocity":61,"Duration":53836,"SoundDuration":53836,"Delta":53673193},{"NoteNumber":47,"Velocity":36,"Duration":53836,"SoundDuration":53836,"Delta":53673193},{"NoteNumber":82,"Velocity":75,"Duration":53624,"SoundDuration":53624,"Delta":53888540},{"NoteNumber":46,"Velocity":51,"Duration":53624,"SoundDuration":53624,"Delta":53888540},{"NoteNumber":74,"Velocity":69,"Duration":53836,"SoundDuration":53836,"Delta":54106532},{"NoteNumber":77,"Velocity":69,"Duration":53836,"SoundDuration":53836,"Delta":54106532},{"NoteNumber":58,"Velocity":36,"Duration":53836,"SoundDuration":53836,"Delta":54106532},{"NoteNumber":53,"Velocity":36,"Duration":53836,"SoundDuration":53836,"Delta":54106532},{"NoteNumber":62,"Velocity":43,"Duration":53836,"SoundDuration":53836,"Delta":54106532},{"NoteNumber":86,"Velocity":80,"Duration":52554,"SoundDuration":52554,"Delta":54325390},{"NoteNumber":46,"Velocity":57,"Duration":52554,"SoundDuration":52554,"Delta":54325390},{"NoteNumber":82,"Velocity":71,"Duration":52188,"SoundDuration":52188,"Delta":54540785},{"NoteNumber":77,"Velocity":71,"Duration":52188,"SoundDuration":52188,"Delta":54540785},{"NoteNumber":58,"Velocity":39,"Duration":52188,"SoundDuration":52188,"Delta":54540785},{"NoteNumber":53,"Velocity":39,"Duration":52188,"SoundDuration":52188,"Delta":54540785},{"NoteNumber":62,"Velocity":46,"Duration":52188,"SoundDuration":52188,"Delta":54540785},{"NoteNumber":89,"Velocity":83,"Duration":51827,"SoundDuration":51827,"Delta":54754563},{"NoteNumber":46,"Velocity":55,"Duration":51827,"SoundDuration":51827,"Delta":54754563},{"NoteNumber":82,"Velocity":73,"Duration":51296,"SoundDuration":51296,"Delta":54966318},{"NoteNumber":86,"Velocity":73,"Duration":51296,"SoundDuration":51296,"Delta":54966318},{"NoteNumber":53,"Velocity":40,"Duration":51296,"SoundDuration":51296,"Delta":54966318},{"NoteNumber":62,"Velocity":48,"Duration":51296,"SoundDuration":51296,"Delta":54966318},{"NoteNumber":58,"Velocity":40,"Duration":51296,"SoundDuration":51296,"Delta":54966318},{"NoteNumber":92,"Velocity":78,"Duration":104770,"SoundDuration":104770,"Delta":55178752},{"NoteNumber":46,"Velocity":61,"Duration":52385,"SoundDuration":52385,"Delta":55178752},{"NoteNumber":90,"Velocity":66,"Duration":104770,"SoundDuration":104770,"Delta":55283523},{"NoteNumber":89,"Velocity":77,"Duration":104770,"SoundDuration":104770,"Delta":55388293},{"NoteNumber":57,"Velocity":39,"Duration":52385,"SoundDuration":52385,"Delta":55388293},{"NoteNumber":63,"Velocity":47,"Duration":52385,"SoundDuration":52385,"Delta":55388293},{"NoteNumber":54,"Velocity":39,"Duration":52385,"SoundDuration":52385,"Delta":55388293},{"NoteNumber":90,"Velocity":62,"Duration":104770,"SoundDuration":104770,"Delta":55493064},{"NoteNumber":87,"Velocity":71,"Duration":104770,"SoundDuration":104770,"Delta":55597834},{"NoteNumber":46,"Velocity":60,"Duration":52385,"SoundDuration":52385,"Delta":55597834},{"NoteNumber":84,"Velocity":66,"Duration":104770,"SoundDuration":104770,"Delta":55807375},{"NoteNumber":63,"Velocity":57,"Duration":52385,"SoundDuration":52385,"Delta":55807375},{"NoteNumber":54,"Velocity":48,"Duration":52385,"SoundDuration":52385,"Delta":55807375},{"NoteNumber":57,"Velocity":48,"Duration":52385,"SoundDuration":52385,"Delta":55807375},{"NoteNumber":81,"Velocity":61,"Duration":105477,"SoundDuration":105477,"Delta":56016916},{"NoteNumber":46,"Velocity":46,"Duration":52738,"SoundDuration":52738,"Delta":56016916},{"NoteNumber":78,"Velocity":52,"Duration":105477,"SoundDuration":105477,"Delta":56227872},{"NoteNumber":57,"Velocity":38,"Duration":52738,"SoundDuration":52738,"Delta":56227872},{"NoteNumber":63,"Velocity":45,"Duration":52738,"SoundDuration":52738,"Delta":56227872},{"NoteNumber":54,"Velocity":38,"Duration":52738,"SoundDuration":52738,"Delta":56227872},{"NoteNumber":82,"Velocity":75,"Duration":53624,"SoundDuration":53624,"Delta":56438827},{"NoteNumber":46,"Velocity":51,"Duration":53624,"SoundDuration":53624,"Delta":56438827},{"NoteNumber":77,"Velocity":69,"Duration":53836,"SoundDuration":53836,"Delta":56656819},{"NoteNumber":74,"Velocity":69,"Duration":53836,"SoundDuration":53836,"Delta":56656819},{"NoteNumber":58,"Velocity":36,"Duration":53836,"SoundDuration":53836,"Delta":56656819},{"NoteNumber":62,"Velocity":43,"Duration":53836,"SoundDuration":53836,"Delta":56656819},{"NoteNumber":53,"Velocity":36,"Duration":53836,"SoundDuration":53836,"Delta":56656819},{"NoteNumber":86,"Velocity":80,"Duration":53112,"SoundDuration":53112,"Delta":56875678},{"NoteNumber":46,"Velocity":57,"Duration":53112,"SoundDuration":53112,"Delta":56875678},{"NoteNumber":77,"Velocity":71,"Duration":52188,"SoundDuration":52188,"Delta":57092189},{"NoteNumber":82,"Velocity":71,"Duration":52188,"SoundDuration":52188,"Delta":57092189},{"NoteNumber":53,"Velocity":39,"Duration":52188,"SoundDuration":52188,"Delta":57092189},{"NoteNumber":62,"Velocity":46,"Duration":52188,"SoundDuration":52188,"Delta":57092189},{"NoteNumber":58,"Velocity":39,"Duration":52188,"SoundDuration":52188,"Delta":57092189},{"NoteNumber":89,"Velocity":83,"Duration":51649,"SoundDuration":51649,"Delta":57305967},{"NoteNumber":46,"Velocity":55,"Duration":51649,"SoundDuration":51649,"Delta":57305967},{"NoteNumber":86,"Velocity":73,"Duration":50947,"SoundDuration":50947,"Delta":57517366},{"NoteNumber":82,"Velocity":73,"Duration":50947,"SoundDuration":50947,"Delta":57517366},{"NoteNumber":62,"Velocity":48,"Duration":50947,"SoundDuration":50947,"Delta":57517366},{"NoteNumber":53,"Velocity":40,"Duration":50947,"SoundDuration":50947,"Delta":57517366},{"NoteNumber":58,"Velocity":40,"Duration":50947,"SoundDuration":50947,"Delta":57517366},{"NoteNumber":92,"Velocity":78,"Duration":103806,"SoundDuration":103806,"Delta":57729103},{"NoteNumber":46,"Velocity":61,"Duration":51903,"SoundDuration":51903,"Delta":57729103},{"NoteNumber":90,"Velocity":66,"Duration":103806,"SoundDuration":103806,"Delta":57832909},{"NoteNumber":89,"Velocity":77,"Duration":103806,"SoundDuration":103806,"Delta":57936715},{"NoteNumber":63,"Velocity":47,"Duration":51903,"SoundDuration":51903,"Delta":57936715},{"NoteNumber":54,"Velocity":39,"Duration":51903,"SoundDuration":51903,"Delta":57936715},{"NoteNumber":57,"Velocity":39,"Duration":51903,"SoundDuration":51903,"Delta":57936715},{"NoteNumber":90,"Velocity":62,"Duration":103806,"SoundDuration":103806,"Delta":58040522},{"NoteNumber":87,"Velocity":69,"Duration":105263,"SoundDuration":105263,"Delta":58144328},{"NoteNumber":46,"Velocity":60,"Duration":52631,"SoundDuration":52631,"Delta":58144328},{"NoteNumber":84,"Velocity":66,"Duration":104166,"SoundDuration":104166,"Delta":58354854},{"NoteNumber":57,"Velocity":48,"Duration":52083,"SoundDuration":52083,"Delta":58354854},{"NoteNumber":54,"Velocity":48,"Duration":52083,"SoundDuration":52083,"Delta":58354854},{"NoteNumber":63,"Velocity":57,"Duration":52083,"SoundDuration":52083,"Delta":58354854},{"NoteNumber":81,"Velocity":61,"Duration":104166,"SoundDuration":104166,"Delta":58563188},{"NoteNumber":46,"Velocity":46,"Duration":52083,"SoundDuration":52083,"Delta":58563188},{"NoteNumber":78,"Velocity":52,"Duration":105263,"SoundDuration":105263,"Delta":58771521},{"NoteNumber":54,"Velocity":38,"Duration":52631,"SoundDuration":52631,"Delta":58771521},{"NoteNumber":63,"Velocity":45,"Duration":52631,"SoundDuration":52631,"Delta":58771521},{"NoteNumber":57,"Velocity":38,"Duration":52631,"SoundDuration":52631,"Delta":58771521},{"NoteNumber":82,"Velocity":75,"Duration":53624,"SoundDuration":53624,"Delta":58982048},{"NoteNumber":46,"Velocity":51,"Duration":53624,"SoundDuration":53624,"Delta":58982048},{"NoteNumber":77,"Velocity":69,"Duration":53836,"SoundDuration":53836,"Delta":59200040},{"NoteNumber":74,"Velocity":69,"Duration":53836,"SoundDuration":53836,"Delta":59200040},{"NoteNumber":58,"Velocity":36,"Duration":53836,"SoundDuration":53836,"Delta":59200040},{"NoteNumber":62,"Velocity":43,"Duration":53836,"SoundDuration":53836,"Delta":59200040},{"NoteNumber":53,"Velocity":36,"Duration":53836,"SoundDuration":53836,"Delta":59200040},{"NoteNumber":83,"Velocity":77,"Duration":53836,"SoundDuration":53836,"Delta":59418899},{"NoteNumber":44,"Velocity":57,"Duration":53836,"SoundDuration":53836,"Delta":59418899},{"NoteNumber":74,"Velocity":71,"Duration":52999,"SoundDuration":52999,"Delta":59636858},{"NoteNumber":77,"Velocity":71,"Duration":52999,"SoundDuration":52999,"Delta":59636858},{"NoteNumber":56,"Velocity":46,"Duration":52999,"SoundDuration":52999,"Delta":59636858},{"NoteNumber":86,"Velocity":83,"Duration":52794,"SoundDuration":52794,"Delta":59852259},{"NoteNumber":43,"Velocity":55,"Duration":52794,"SoundDuration":52794,"Delta":59852259},{"NoteNumber":83,"Velocity":73,"Duration":51985,"SoundDuration":51985,"Delta":60065948},{"NoteNumber":77,"Velocity":73,"Duration":51985,"SoundDuration":51985,"Delta":60065948},{"NoteNumber":55,"Velocity":48,"Duration":51985,"SoundDuration":51985,"Delta":60065948},{"NoteNumber":84,"Velocity":75,"Duration":53624,"SoundDuration":53624,"Delta":60279762},{"NoteNumber":48,"Velocity":51,"Duration":53624,"SoundDuration":53624,"Delta":60279762},{"NoteNumber":76,"Velocity":69,"Duration":53836,"SoundDuration":53836,"Delta":60497754},{"NoteNumber":79,"Velocity":69,"Duration":53836,"SoundDuration":53836,"Delta":60497754},{"NoteNumber":60,"Velocity":43,"Duration":53836,"SoundDuration":53836,"Delta":60497754},{"NoteNumber":88,"Velocity":77,"Duration":53836,"SoundDuration":53836,"Delta":60716613},{"NoteNumber":46,"Velocity":57,"Duration":53836,"SoundDuration":53836,"Delta":60716613},{"NoteNumber":79,"Velocity":71,"Duration":52999,"SoundDuration":52999,"Delta":60934572},{"NoteNumber":85,"Velocity":71,"Duration":52999,"SoundDuration":52999,"Delta":60934572},{"NoteNumber":58,"Velocity":46,"Duration":52999,"SoundDuration":52999,"Delta":60934572},{"NoteNumber":91,"Velocity":83,"Duration":52794,"SoundDuration":52794,"Delta":61149973},{"NoteNumber":43,"Velocity":55,"Duration":52794,"SoundDuration":52794,"Delta":61149973},{"NoteNumber":85,"Velocity":73,"Duration":51985,"SoundDuration":51985,"Delta":61363662},{"NoteNumber":82,"Velocity":73,"Duration":51985,"SoundDuration":51985,"Delta":61363662},{"NoteNumber":88,"Velocity":73,"Duration":51985,"SoundDuration":51985,"Delta":61363662},{"NoteNumber":55,"Velocity":48,"Duration":51985,"SoundDuration":51985,"Delta":61363662},{"NoteNumber":89,"Velocity":75,"Duration":53624,"SoundDuration":53624,"Delta":61577476},{"NoteNumber":44,"Velocity":57,"Duration":53624,"SoundDuration":53624,"Delta":61577476},{"NoteNumber":77,"Velocity":69,"Duration":53836,"SoundDuration":53836,"Delta":61795468},{"NoteNumber":84,"Velocity":69,"Duration":53836,"SoundDuration":53836,"Delta":61795468},{"NoteNumber":56,"Velocity":49,"Duration":53836,"SoundDuration":53836,"Delta":61795468},{"NoteNumber":94,"Velocity":77,"Duration":53836,"SoundDuration":53836,"Delta":62014327},{"NoteNumber":34,"Velocity":57,"Duration":53836,"SoundDuration":53836,"Delta":62014327},{"NoteNumber":82,"Velocity":71,"Duration":52999,"SoundDuration":52999,"Delta":62232286},{"NoteNumber":46,"Velocity":46,"Duration":52999,"SoundDuration":52999,"Delta":62232286},{"NoteNumber":96,"Velocity":83,"Duration":52794,"SoundDuration":52794,"Delta":62447687},{"NoteNumber":36,"Velocity":64,"Duration":52794,"SoundDuration":52794,"Delta":62447687},{"NoteNumber":84,"Velocity":73,"Duration":51985,"SoundDuration":51985,"Delta":62661376},{"NoteNumber":48,"Velocity":58,"Duration":51985,"SoundDuration":51985,"Delta":62661376},{"NoteNumber":101,"Velocity":87,"Duration":109072,"SoundDuration":109072,"Delta":62875175},{"NoteNumber":89,"Velocity":73,"Duration":109072,"SoundDuration":109072,"Delta":62875175},{"NoteNumber":29,"Velocity":60,"Duration":109072,"SoundDuration":109072,"Delta":62875175},{"NoteNumber":41,"Velocity":65,"Duration":109072,"SoundDuration":109072,"Delta":62875175},{"NoteNumber":91,"Velocity":73,"Duration":54259,"SoundDuration":54259,"Delta":63093338},{"NoteNumber":61,"Velocity":51,"Duration":1078814,"SoundDuration":1078814,"Delta":63093338},{"NoteNumber":58,"Velocity":51,"Duration":1078814,"SoundDuration":1078814,"Delta":63093338},{"NoteNumber":53,"Velocity":51,"Duration":1078814,"SoundDuration":1078814,"Delta":63093338},{"NoteNumber":64,"Velocity":61,"Duration":1078814,"SoundDuration":1078814,"Delta":63093338},{"NoteNumber":92,"Velocity":67,"Duration":54126,"SoundDuration":54126,"Delta":63147598},{"NoteNumber":91,"Velocity":58,"Duration":54115,"SoundDuration":54115,"Delta":63201725},{"NoteNumber":92,"Velocity":54,"Duration":54178,"SoundDuration":54178,"Delta":63255841},{"NoteNumber":91,"Velocity":58,"Duration":54654,"SoundDuration":54654,"Delta":63310019},{"NoteNumber":92,"Velocity":52,"Duration":54417,"SoundDuration":54417,"Delta":63364674},{"NoteNumber":91,"Velocity":58,"Duration":54171,"SoundDuration":54171,"Delta":63419091},{"NoteNumber":92,"Velocity":52,"Duration":53908,"SoundDuration":53908,"Delta":63473263},{"NoteNumber":91,"Velocity":58,"Duration":53677,"SoundDuration":53677,"Delta":63527171},{"NoteNumber":92,"Velocity":52,"Duration":53447,"SoundDuration":53447,"Delta":63580848},{"NoteNumber":91,"Velocity":58,"Duration":70750,"SoundDuration":70750,"Delta":63634296},{"NoteNumber":92,"Velocity":54,"Duration":70844,"SoundDuration":70844,"Delta":63705046},{"NoteNumber":91,"Velocity":58,"Duration":71515,"SoundDuration":71515,"Delta":63775890},{"NoteNumber":90,"Velocity":54,"Duration":54070,"SoundDuration":54070,"Delta":63847406},{"NoteNumber":91,"Velocity":56,"Duration":54476,"SoundDuration":54476,"Delta":63901476},{"NoteNumber":92,"Velocity":64,"Duration":108100,"SoundDuration":108100,"Delta":63955953},{"NoteNumber":91,"Velocity":58,"Duration":108100,"SoundDuration":108100,"Delta":64064053},{"NoteNumber":89,"Velocity":81,"Duration":108100,"SoundDuration":108100,"Delta":64172153},{"NoteNumber":53,"Velocity":52,"Duration":108100,"SoundDuration":108100,"Delta":64172153},{"NoteNumber":60,"Velocity":52,"Duration":108100,"SoundDuration":108100,"Delta":64172153},{"NoteNumber":65,"Velocity":62,"Duration":108100,"SoundDuration":108100,"Delta":64172153},{"NoteNumber":56,"Velocity":52,"Duration":108100,"SoundDuration":108100,"Delta":64172153},{"NoteNumber":79,"Velocity":73,"Duration":54445,"SoundDuration":54445,"Delta":64388445},{"NoteNumber":61,"Velocity":51,"Duration":1078647,"SoundDuration":1078647,"Delta":64388445},{"NoteNumber":64,"Velocity":61,"Duration":1078647,"SoundDuration":1078647,"Delta":64388445},{"NoteNumber":58,"Velocity":51,"Duration":1078647,"SoundDuration":1078647,"Delta":64388445},{"NoteNumber":53,"Velocity":51,"Duration":1078647,"SoundDuration":1078647,"Delta":64388445},{"NoteNumber":80,"Velocity":67,"Duration":54590,"SoundDuration":54590,"Delta":64442890},{"NoteNumber":79,"Velocity":58,"Duration":54377,"SoundDuration":54377,"Delta":64497481},{"NoteNumber":80,"Velocity":54,"Duration":54613,"SoundDuration":54613,"Delta":64551859},{"NoteNumber":79,"Velocity":58,"Duration":54569,"SoundDuration":54569,"Delta":64606472},{"NoteNumber":80,"Velocity":52,"Duration":54903,"SoundDuration":54903,"Delta":64661041},{"NoteNumber":79,"Velocity":58,"Duration":54658,"SoundDuration":54658,"Delta":64715945},{"NoteNumber":80,"Velocity":52,"Duration":54155,"SoundDuration":54155,"Delta":64770603},{"NoteNumber":79,"Velocity":58,"Duration":53689,"SoundDuration":53689,"Delta":64824759},{"NoteNumber":80,"Velocity":52,"Duration":53232,"SoundDuration":53232,"Delta":64878449},{"NoteNumber":79,"Velocity":58,"Duration":70180,"SoundDuration":70180,"Delta":64931681},{"NoteNumber":80,"Velocity":54,"Duration":70130,"SoundDuration":70130,"Delta":65001862},{"NoteNumber":79,"Velocity":58,"Duration":70935,"SoundDuration":70935,"Delta":65071992},{"NoteNumber":78,"Velocity":54,"Duration":53741,"SoundDuration":53741,"Delta":65142927},{"NoteNumber":79,"Velocity":56,"Duration":54223,"SoundDuration":54223,"Delta":65196668},{"NoteNumber":80,"Velocity":64,"Duration":108100,"SoundDuration":108100,"Delta":65250892},{"NoteNumber":79,"Velocity":58,"Duration":108100,"SoundDuration":108100,"Delta":65358992},{"NoteNumber":77,"Velocity":81,"Duration":108100,"SoundDuration":108100,"Delta":65467093},{"NoteNumber":56,"Velocity":52,"Duration":108100,"SoundDuration":108100,"Delta":65467093},{"NoteNumber":60,"Velocity":52,"Duration":108100,"SoundDuration":108100,"Delta":65467093},{"NoteNumber":53,"Velocity":52,"Duration":108100,"SoundDuration":108100,"Delta":65467093},{"NoteNumber":65,"Velocity":62,"Duration":108100,"SoundDuration":108100,"Delta":65467093},{"NoteNumber":91,"Velocity":73,"Duration":54249,"SoundDuration":54249,"Delta":65683293},{"NoteNumber":58,"Velocity":51,"Duration":1104576,"SoundDuration":1104576,"Delta":65683293},{"NoteNumber":61,"Velocity":51,"Duration":1104576,"SoundDuration":1104576,"Delta":65683293},{"NoteNumber":64,"Velocity":61,"Duration":1104576,"SoundDuration":1104576,"Delta":65683293},{"NoteNumber":53,"Velocity":51,"Duration":1104576,"SoundDuration":1104576,"Delta":65683293},{"NoteNumber":92,"Velocity":67,"Duration":54243,"SoundDuration":54243,"Delta":65737543},{"NoteNumber":91,"Velocity":58,"Duration":54260,"SoundDuration":54260,"Delta":65791787},{"NoteNumber":92,"Velocity":54,"Duration":53905,"SoundDuration":53905,"Delta":65846047},{"NoteNumber":91,"Velocity":58,"Duration":54424,"SoundDuration":54424,"Delta":65899953},{"NoteNumber":92,"Velocity":52,"Duration":54107,"SoundDuration":54107,"Delta":65954377},{"NoteNumber":91,"Velocity":58,"Duration":53876,"SoundDuration":53876,"Delta":66008485},{"NoteNumber":92,"Velocity":52,"Duration":54126,"SoundDuration":54126,"Delta":66062361},{"NoteNumber":90,"Velocity":58,"Duration":57278,"SoundDuration":57278,"Delta":66116488},{"NoteNumber":91,"Velocity":53,"Duration":56705,"SoundDuration":56705,"Delta":66173767},{"NoteNumber":92,"Velocity":54,"Duration":56004,"SoundDuration":56004,"Delta":66230472},{"NoteNumber":94,"Velocity":56,"Duration":55414,"SoundDuration":55414,"Delta":66286477},{"NoteNumber":96,"Velocity":57,"Duration":54920,"SoundDuration":54920,"Delta":66341891},{"NoteNumber":97,"Velocity":58,"Duration":55143,"SoundDuration":55143,"Delta":66396812},{"NoteNumber":100,"Velocity":60,"Duration":55370,"SoundDuration":55370,"Delta":66451955},{"NoteNumber":101,"Velocity":62,"Duration":55638,"SoundDuration":55638,"Delta":66507326},{"NoteNumber":100,"Velocity":63,"Duration":37213,"SoundDuration":37213,"Delta":66562964},{"NoteNumber":97,"Velocity":62,"Duration":37335,"SoundDuration":37335,"Delta":66600177},{"NoteNumber":96,"Velocity":61,"Duration":37417,"SoundDuration":37417,"Delta":66638447},{"NoteNumber":94,"Velocity":61,"Duration":37523,"SoundDuration":37523,"Delta":66675865},{"NoteNumber":92,"Velocity":60,"Duration":37647,"SoundDuration":37647,"Delta":66712450},{"NoteNumber":91,"Velocity":59,"Duration":37771,"SoundDuration":37771,"Delta":66750098},{"NoteNumber":89,"Velocity":81,"Duration":113932,"SoundDuration":113932,"Delta":66787869},{"NoteNumber":56,"Velocity":52,"Duration":113932,"SoundDuration":113932,"Delta":66787869},{"NoteNumber":60,"Velocity":52,"Duration":113932,"SoundDuration":113932,"Delta":66787869},{"NoteNumber":65,"Velocity":62,"Duration":113932,"SoundDuration":113932,"Delta":66787869},{"NoteNumber":53,"Velocity":52,"Duration":113932,"SoundDuration":113932,"Delta":66787869},{"NoteNumber":79,"Velocity":73,"Duration":53689,"SoundDuration":53689,"Delta":67016746},{"NoteNumber":64,"Velocity":61,"Duration":1202189,"SoundDuration":1202189,"Delta":67016746},{"NoteNumber":53,"Velocity":51,"Duration":1202189,"SoundDuration":1202189,"Delta":67016746},{"NoteNumber":61,"Velocity":51,"Duration":1202189,"SoundDuration":1202189,"Delta":67016746},{"NoteNumber":58,"Velocity":51,"Duration":1202189,"SoundDuration":1202189,"Delta":67016746},{"NoteNumber":80,"Velocity":67,"Duration":54136,"SoundDuration":54136,"Delta":67070435},{"NoteNumber":79,"Velocity":58,"Duration":53745,"SoundDuration":53745,"Delta":67124572},{"NoteNumber":80,"Velocity":54,"Duration":53774,"SoundDuration":53774,"Delta":67178317},{"NoteNumber":79,"Velocity":58,"Duration":53840,"SoundDuration":53840,"Delta":67232091},{"NoteNumber":80,"Velocity":52,"Duration":54571,"SoundDuration":54571,"Delta":67285932},{"NoteNumber":79,"Velocity":58,"Duration":54774,"SoundDuration":54774,"Delta":67340503},{"NoteNumber":80,"Velocity":52,"Duration":55241,"SoundDuration":55241,"Delta":67395277},{"NoteNumber":78,"Velocity":58,"Duration":47539,"SoundDuration":47539,"Delta":67450519},{"NoteNumber":79,"Velocity":53,"Duration":47147,"SoundDuration":47147,"Delta":67498059},{"NoteNumber":80,"Velocity":54,"Duration":46689,"SoundDuration":46689,"Delta":67545206},{"NoteNumber":82,"Velocity":56,"Duration":46239,"SoundDuration":46239,"Delta":67591896},{"NoteNumber":84,"Velocity":57,"Duration":45798,"SoundDuration":45798,"Delta":67638135},{"NoteNumber":86,"Velocity":58,"Duration":45714,"SoundDuration":45714,"Delta":67683933},{"NoteNumber":88,"Velocity":60,"Duration":45801,"SoundDuration":45801,"Delta":67729648},{"NoteNumber":89,"Velocity":62,"Duration":45801,"SoundDuration":45801,"Delta":67775450},{"NoteNumber":91,"Velocity":62,"Duration":45801,"SoundDuration":45801,"Delta":67821251},{"NoteNumber":89,"Velocity":62,"Duration":49011,"SoundDuration":49011,"Delta":67867053},{"NoteNumber":88,"Velocity":60,"Duration":20457,"SoundDuration":20457,"Delta":67916064},{"NoteNumber":86,"Velocity":59,"Duration":20527,"SoundDuration":20527,"Delta":67936521},{"NoteNumber":84,"Velocity":57,"Duration":20630,"SoundDuration":20630,"Delta":67957049},{"NoteNumber":82,"Velocity":56,"Duration":20695,"SoundDuration":20695,"Delta":67977679},{"NoteNumber":80,"Velocity":55,"Duration":20754,"SoundDuration":20754,"Delta":67997155},{"NoteNumber":79,"Velocity":53,"Duration":20583,"SoundDuration":20583,"Delta":68017909},{"NoteNumber":77,"Velocity":51,"Duration":20665,"SoundDuration":20665,"Delta":68038492},{"NoteNumber":76,"Velocity":50,"Duration":21253,"SoundDuration":21253,"Delta":68059158},{"NoteNumber":73,"Velocity":48,"Duration":21568,"SoundDuration":21568,"Delta":68080412},{"NoteNumber":72,"Velocity":47,"Duration":28407,"SoundDuration":28407,"Delta":68100704},{"NoteNumber":70,"Velocity":46,"Duration":28884,"SoundDuration":28884,"Delta":68129112},{"NoteNumber":68,"Velocity":44,"Duration":29459,"SoundDuration":29459,"Delta":68157997},{"NoteNumber":67,"Velocity":42,"Duration":31479,"SoundDuration":31479,"Delta":68187456},{"NoteNumber":65,"Velocity":70,"Duration":255776,"SoundDuration":255776,"Delta":68218935},{"NoteNumber":53,"Velocity":67,"Duration":255776,"SoundDuration":255776,"Delta":68218935},{"NoteNumber":56,"Velocity":67,"Duration":255776,"SoundDuration":255776,"Delta":68218935},{"NoteNumber":60,"Velocity":79,"Duration":255776,"SoundDuration":255776,"Delta":68218935},{"NoteNumber":73,"Velocity":67,"Duration":427289,"SoundDuration":427289,"Delta":68986265},{"NoteNumber":70,"Velocity":67,"Duration":427289,"SoundDuration":427289,"Delta":68986265},{"NoteNumber":75,"Velocity":67,"Duration":427289,"SoundDuration":427289,"Delta":68986265},{"NoteNumber":67,"Velocity":67,"Duration":427289,"SoundDuration":427289,"Delta":68986265},{"NoteNumber":79,"Velocity":79,"Duration":427289,"SoundDuration":427289,"Delta":68986265},{"NoteNumber":51,"Velocity":67,"Duration":427289,"SoundDuration":427289,"Delta":68986265},{"NoteNumber":63,"Velocity":79,"Duration":427289,"SoundDuration":427289,"Delta":68986265},{"NoteNumber":58,"Velocity":67,"Duration":427289,"SoundDuration":427289,"Delta":68986265},{"NoteNumber":61,"Velocity":67,"Duration":427289,"SoundDuration":427289,"Delta":68986265},{"NoteNumber":80,"Velocity":40,"Duration":105614,"SoundDuration":105614,"Delta":70258271},{"NoteNumber":60,"Velocity":32,"Duration":189566,"SoundDuration":189566,"Delta":70258271},{"NoteNumber":56,"Velocity":27,"Duration":189566,"SoundDuration":189566,"Delta":70258271},{"NoteNumber":63,"Velocity":32,"Duration":189566,"SoundDuration":189566,"Delta":70258271},{"NoteNumber":82,"Velocity":39,"Duration":104875,"SoundDuration":104875,"Delta":70363885},{"NoteNumber":84,"Velocity":41,"Duration":104147,"SoundDuration":104147,"Delta":70468761},{"NoteNumber":63,"Velocity":29,"Duration":186941,"SoundDuration":186941,"Delta":70468761},{"NoteNumber":56,"Velocity":24,"Duration":186941,"SoundDuration":186941,"Delta":70468761},{"NoteNumber":60,"Velocity":29,"Duration":186941,"SoundDuration":186941,"Delta":70468761},{"NoteNumber":85,"Velocity":43,"Duration":103429,"SoundDuration":103429,"Delta":70572909},{"NoteNumber":87,"Velocity":46,"Duration":102721,"SoundDuration":102721,"Delta":70676339},{"NoteNumber":63,"Velocity":29,"Duration":828174,"SoundDuration":828174,"Delta":70676339},{"NoteNumber":56,"Velocity":24,"Duration":2106350,"SoundDuration":2106350,"Delta":70676339},{"NoteNumber":60,"Velocity":29,"Duration":828174,"SoundDuration":828174,"Delta":70676339},{"NoteNumber":85,"Velocity":46,"Duration":101999,"SoundDuration":101999,"Delta":70779060},{"NoteNumber":84,"Velocity":46,"Duration":102440,"SoundDuration":102440,"Delta":70881060},{"NoteNumber":82,"Velocity":45,"Duration":103062,"SoundDuration":103062,"Delta":70983501},{"NoteNumber":80,"Velocity":44,"Duration":103596,"SoundDuration":103596,"Delta":71086563},{"NoteNumber":79,"Velocity":43,"Duration":104183,"SoundDuration":104183,"Delta":71190159},{"NoteNumber":77,"Velocity":42,"Duration":104790,"SoundDuration":104790,"Delta":71294343},{"NoteNumber":75,"Velocity":41,"Duration":105379,"SoundDuration":105379,"Delta":71399134},{"NoteNumber":73,"Velocity":41,"Duration":105987,"SoundDuration":105987,"Delta":71504513},{"NoteNumber":65,"Velocity":31,"Duration":1278176,"SoundDuration":1278176,"Delta":71504513},{"NoteNumber":61,"Velocity":26,"Duration":1278176,"SoundDuration":1278176,"Delta":71504513},{"NoteNumber":72,"Velocity":39,"Duration":106577,"SoundDuration":106577,"Delta":71610500},{"NoteNumber":70,"Velocity":38,"Duration":107199,"SoundDuration":107199,"Delta":71717078},{"NoteNumber":68,"Velocity":38,"Duration":107780,"SoundDuration":107780,"Delta":71824277},{"NoteNumber":67,"Velocity":36,"Duration":107365,"SoundDuration":107365,"Delta":71932058},{"NoteNumber":68,"Velocity":35,"Duration":107365,"SoundDuration":107365,"Delta":72039423},{"NoteNumber":70,"Velocity":33,"Duration":107224,"SoundDuration":107224,"Delta":72146788},{"NoteNumber":72,"Velocity":33,"Duration":106729,"SoundDuration":106729,"Delta":72254013},{"NoteNumber":73,"Velocity":34,"Duration":106212,"SoundDuration":106212,"Delta":72360742},{"NoteNumber":75,"Velocity":36,"Duration":105713,"SoundDuration":105713,"Delta":72466955},{"NoteNumber":77,"Velocity":37,"Duration":105231,"SoundDuration":105231,"Delta":72572668},{"NoteNumber":79,"Velocity":39,"Duration":104790,"SoundDuration":104790,"Delta":72677900},{"NoteNumber":80,"Velocity":40,"Duration":104534,"SoundDuration":104534,"Delta":72782690},{"NoteNumber":56,"Velocity":27,"Duration":187831,"SoundDuration":187831,"Delta":72782690},{"NoteNumber":63,"Velocity":32,"Duration":187831,"SoundDuration":187831,"Delta":72782690},{"NoteNumber":60,"Velocity":27,"Duration":187831,"SoundDuration":187831,"Delta":72782690},{"NoteNumber":82,"Velocity":39,"Duration":104075,"SoundDuration":104075,"Delta":72887225},{"NoteNumber":84,"Velocity":41,"Duration":103524,"SoundDuration":103524,"Delta":72991300},{"NoteNumber":60,"Velocity":24,"Duration":185998,"SoundDuration":185998,"Delta":72991300},{"NoteNumber":56,"Velocity":24,"Duration":185998,"SoundDuration":185998,"Delta":72991300},{"NoteNumber":63,"Velocity":29,"Duration":185998,"SoundDuration":185998,"Delta":72991300},{"NoteNumber":85,"Velocity":43,"Duration":103062,"SoundDuration":103062,"Delta":73094825},{"NoteNumber":89,"Velocity":46,"Duration":102551,"SoundDuration":102551,"Delta":73191882},{"NoteNumber":63,"Velocity":29,"Duration":2078332,"SoundDuration":2078332,"Delta":73197887},{"NoteNumber":60,"Velocity":24,"Duration":830319,"SoundDuration":830319,"Delta":73197887},{"NoteNumber":56,"Velocity":24,"Duration":2078332,"SoundDuration":2078332,"Delta":73197887},{"NoteNumber":87,"Velocity":46,"Duration":102045,"SoundDuration":102045,"Delta":73300398},{"NoteNumber":85,"Velocity":46,"Duration":101425,"SoundDuration":101425,"Delta":73402444},{"NoteNumber":84,"Velocity":45,"Duration":101976,"SoundDuration":101976,"Delta":73503869},{"NoteNumber":82,"Velocity":44,"Duration":102744,"SoundDuration":102744,"Delta":73605845},{"NoteNumber":80,"Velocity":43,"Duration":103513,"SoundDuration":103513,"Delta":73708590},{"NoteNumber":79,"Velocity":42,"Duration":104280,"SoundDuration":104280,"Delta":73812103},{"NoteNumber":77,"Velocity":41,"Duration":111822,"SoundDuration":111822,"Delta":73916384},{"NoteNumber":75,"Velocity":41,"Duration":103655,"SoundDuration":103655,"Delta":74028206},{"NoteNumber":61,"Velocity":31,"Duration":207311,"SoundDuration":207311,"Delta":74028206},{"NoteNumber":77,"Velocity":33,"Duration":103655,"SoundDuration":103655,"Delta":74131862},{"NoteNumber":73,"Velocity":38,"Duration":103655,"SoundDuration":103655,"Delta":74235517},{"NoteNumber":58,"Velocity":30,"Duration":207311,"SoundDuration":207311,"Delta":74235517},{"NoteNumber":75,"Velocity":32,"Duration":103655,"SoundDuration":103655,"Delta":74339173},{"NoteNumber":72,"Velocity":36,"Duration":103655,"SoundDuration":103655,"Delta":74442828},{"NoteNumber":60,"Velocity":30,"Duration":207310,"SoundDuration":207310,"Delta":74442828},{"NoteNumber":75,"Velocity":29,"Duration":103655,"SoundDuration":103655,"Delta":74546484},{"NoteNumber":70,"Velocity":33,"Duration":103631,"SoundDuration":103631,"Delta":74650139},{"NoteNumber":61,"Velocity":31,"Duration":207239,"SoundDuration":207239,"Delta":74650139},{"NoteNumber":75,"Velocity":30,"Duration":103607,"SoundDuration":103607,"Delta":74753771},{"NoteNumber":68,"Velocity":38,"Duration":103859,"SoundDuration":103859,"Delta":74857379},{"NoteNumber":60,"Velocity":28,"Duration":208321,"SoundDuration":208321,"Delta":74857379},{"NoteNumber":75,"Velocity":31,"Duration":104461,"SoundDuration":104461,"Delta":74961238},{"NoteNumber":67,"Velocity":40,"Duration":104985,"SoundDuration":104985,"Delta":75065700},{"NoteNumber":58,"Velocity":31,"Duration":210519,"SoundDuration":210519,"Delta":75065700},{"NoteNumber":75,"Velocity":33,"Duration":105533,"SoundDuration":105533,"Delta":75170686},{"NoteNumber":80,"Velocity":40,"Duration":105614,"SoundDuration":105614,"Delta":75276220},{"NoteNumber":59,"Velocity":27,"Duration":189566,"SoundDuration":189566,"Delta":75276220},{"NoteNumber":56,"Velocity":27,"Duration":189566,"SoundDuration":189566,"Delta":75276220},{"NoteNumber":63,"Velocity":32,"Duration":189566,"SoundDuration":189566,"Delta":75276220},{"NoteNumber":82,"Velocity":39,"Duration":104875,"SoundDuration":104875,"Delta":75381834},{"NoteNumber":83,"Velocity":41,"Duration":104147,"SoundDuration":104147,"Delta":75486710},{"NoteNumber":63,"Velocity":29,"Duration":186941,"SoundDuration":186941,"Delta":75486710},{"NoteNumber":59,"Velocity":24,"Duration":186941,"SoundDuration":186941,"Delta":75486710},{"NoteNumber":56,"Velocity":24,"Duration":186941,"SoundDuration":186941,"Delta":75486710},{"NoteNumber":85,"Velocity":43,"Duration":103429,"SoundDuration":103429,"Delta":75590858},{"NoteNumber":87,"Velocity":46,"Duration":102721,"SoundDuration":102721,"Delta":75694288},{"NoteNumber":59,"Velocity":24,"Duration":828174,"SoundDuration":828174,"Delta":75694288},{"NoteNumber":56,"Velocity":24,"Duration":2106350,"SoundDuration":2106350,"Delta":75694288},{"NoteNumber":63,"Velocity":29,"Duration":828174,"SoundDuration":828174,"Delta":75694288},{"NoteNumber":85,"Velocity":46,"Duration":101999,"SoundDuration":101999,"Delta":75797009},{"NoteNumber":83,"Velocity":46,"Duration":102440,"SoundDuration":102440,"Delta":75899009},{"NoteNumber":82,"Velocity":45,"Duration":103062,"SoundDuration":103062,"Delta":76001449},{"NoteNumber":80,"Velocity":44,"Duration":103596,"SoundDuration":103596,"Delta":76104512},{"NoteNumber":78,"Velocity":43,"Duration":104183,"SoundDuration":104183,"Delta":76208108},{"NoteNumber":76,"Velocity":42,"Duration":104790,"SoundDuration":104790,"Delta":76312292},{"NoteNumber":75,"Velocity":41,"Duration":105379,"SoundDuration":105379,"Delta":76417082},{"NoteNumber":73,"Velocity":41,"Duration":105987,"SoundDuration":105987,"Delta":76522462},{"NoteNumber":61,"Velocity":26,"Duration":1278176,"SoundDuration":1278176,"Delta":76522462},{"NoteNumber":64,"Velocity":31,"Duration":1278176,"SoundDuration":1278176,"Delta":76522462},{"NoteNumber":71,"Velocity":39,"Duration":106577,"SoundDuration":106577,"Delta":76628449},{"NoteNumber":70,"Velocity":38,"Duration":107199,"SoundDuration":107199,"Delta":76735027},{"NoteNumber":68,"Velocity":38,"Duration":107780,"SoundDuration":107780,"Delta":76842226},{"NoteNumber":67,"Velocity":36,"Duration":107365,"SoundDuration":107365,"Delta":76950006},{"NoteNumber":68,"Velocity":35,"Duration":107365,"SoundDuration":107365,"Delta":77057372},{"NoteNumber":70,"Velocity":33,"Duration":107224,"SoundDuration":107224,"Delta":77164737},{"NoteNumber":71,"Velocity":33,"Duration":106729,"SoundDuration":106729,"Delta":77271962},{"NoteNumber":73,"Velocity":34,"Duration":106212,"SoundDuration":106212,"Delta":77378691},{"NoteNumber":75,"Velocity":36,"Duration":105713,"SoundDuration":105713,"Delta":77484903},{"NoteNumber":76,"Velocity":37,"Duration":105231,"SoundDuration":105231,"Delta":77590617},{"NoteNumber":79,"Velocity":39,"Duration":104790,"SoundDuration":104790,"Delta":77695848},{"NoteNumber":80,"Velocity":40,"Duration":104534,"SoundDuration":104534,"Delta":77800639},{"NoteNumber":59,"Velocity":27,"Duration":187831,"SoundDuration":187831,"Delta":77800639},{"NoteNumber":63,"Velocity":32,"Duration":187831,"SoundDuration":187831,"Delta":77800639},{"NoteNumber":56,"Velocity":27,"Duration":187831,"SoundDuration":187831,"Delta":77800639},{"NoteNumber":82,"Velocity":39,"Duration":104075,"SoundDuration":104075,"Delta":77905173},{"NoteNumber":83,"Velocity":41,"Duration":103524,"SoundDuration":103524,"Delta":78009249},{"NoteNumber":59,"Velocity":24,"Duration":185998,"SoundDuration":185998,"Delta":78009249},{"NoteNumber":63,"Velocity":29,"Duration":185998,"SoundDuration":185998,"Delta":78009249},{"NoteNumber":56,"Velocity":24,"Duration":185998,"SoundDuration":185998,"Delta":78009249},{"NoteNumber":85,"Velocity":43,"Duration":103062,"SoundDuration":103062,"Delta":78112773},{"NoteNumber":88,"Velocity":46,"Duration":102510,"SoundDuration":102510,"Delta":78215836},{"NoteNumber":59,"Velocity":24,"Duration":830319,"SoundDuration":830319,"Delta":78215836},{"NoteNumber":56,"Velocity":24,"Duration":2078332,"SoundDuration":2078332,"Delta":78215836},{"NoteNumber":63,"Velocity":29,"Duration":2078332,"SoundDuration":2078332,"Delta":78215836},{"NoteNumber":87,"Velocity":46,"Duration":102045,"SoundDuration":102045,"Delta":78318346},{"NoteNumber":85,"Velocity":46,"Duration":101425,"SoundDuration":101425,"Delta":78420392},{"NoteNumber":83,"Velocity":45,"Duration":101976,"SoundDuration":101976,"Delta":78521817},{"NoteNumber":82,"Velocity":44,"Duration":102744,"SoundDuration":102744,"Delta":78623794},{"NoteNumber":80,"Velocity":43,"Duration":103513,"SoundDuration":103513,"Delta":78726539},{"NoteNumber":78,"Velocity":42,"Duration":104280,"SoundDuration":104280,"Delta":78830052},{"NoteNumber":76,"Velocity":41,"Duration":111822,"SoundDuration":111822,"Delta":78934332},{"NoteNumber":75,"Velocity":46,"Duration":207311,"SoundDuration":207311,"Delta":79046155},{"NoteNumber":61,"Velocity":31,"Duration":207311,"SoundDuration":207311,"Delta":79046155},{"NoteNumber":73,"Velocity":38,"Duration":103655,"SoundDuration":103655,"Delta":79253466},{"NoteNumber":58,"Velocity":30,"Duration":207311,"SoundDuration":207311,"Delta":79253466},{"NoteNumber":75,"Velocity":32,"Duration":103655,"SoundDuration":103655,"Delta":79357121},{"NoteNumber":71,"Velocity":36,"Duration":103655,"SoundDuration":103655,"Delta":79460777},{"NoteNumber":59,"Velocity":30,"Duration":207310,"SoundDuration":207310,"Delta":79460777},{"NoteNumber":75,"Velocity":29,"Duration":103655,"SoundDuration":103655,"Delta":79564432},{"NoteNumber":70,"Velocity":33,"Duration":103631,"SoundDuration":103631,"Delta":79668088},{"NoteNumber":61,"Velocity":31,"Duration":207239,"SoundDuration":207239,"Delta":79668088},{"NoteNumber":75,"Velocity":30,"Duration":103607,"SoundDuration":103607,"Delta":79771720},{"NoteNumber":68,"Velocity":38,"Duration":103859,"SoundDuration":103859,"Delta":79875327},{"NoteNumber":59,"Velocity":28,"Duration":208321,"SoundDuration":208321,"Delta":79875327},{"NoteNumber":75,"Velocity":31,"Duration":104461,"SoundDuration":104461,"Delta":79979187},{"NoteNumber":67,"Velocity":40,"Duration":104985,"SoundDuration":104985,"Delta":80083649},{"NoteNumber":58,"Velocity":31,"Duration":104985,"SoundDuration":104985,"Delta":80083649},{"NoteNumber":80,"Velocity":46,"Duration":105614,"SoundDuration":105614,"Delta":80294168},{"NoteNumber":60,"Velocity":27,"Duration":189566,"SoundDuration":189566,"Delta":80294168},{"NoteNumber":56,"Velocity":27,"Duration":189566,"SoundDuration":189566,"Delta":80294168},{"NoteNumber":63,"Velocity":32,"Duration":189566,"SoundDuration":189566,"Delta":80294168},{"NoteNumber":82,"Velocity":44,"Duration":104875,"SoundDuration":104875,"Delta":80399783},{"NoteNumber":84,"Velocity":47,"Duration":104147,"SoundDuration":104147,"Delta":80504659},{"NoteNumber":56,"Velocity":24,"Duration":186941,"SoundDuration":186941,"Delta":80504659},{"NoteNumber":60,"Velocity":24,"Duration":186941,"SoundDuration":186941,"Delta":80504659},{"NoteNumber":63,"Velocity":29,"Duration":186941,"SoundDuration":186941,"Delta":80504659},{"NoteNumber":85,"Velocity":49,"Duration":103429,"SoundDuration":103429,"Delta":80608807},{"NoteNumber":87,"Velocity":52,"Duration":102721,"SoundDuration":102721,"Delta":80712236},{"NoteNumber":60,"Velocity":24,"Duration":828174,"SoundDuration":828174,"Delta":80712236},{"NoteNumber":56,"Velocity":24,"Duration":2106350,"SoundDuration":2106350,"Delta":80712236},{"NoteNumber":63,"Velocity":29,"Duration":828174,"SoundDuration":828174,"Delta":80712236},{"NoteNumber":85,"Velocity":52,"Duration":101999,"SoundDuration":101999,"Delta":80814958},{"NoteNumber":84,"Velocity":52,"Duration":102440,"SoundDuration":102440,"Delta":80916957},{"NoteNumber":82,"Velocity":51,"Duration":103062,"SoundDuration":103062,"Delta":81019398},{"NoteNumber":80,"Velocity":50,"Duration":103596,"SoundDuration":103596,"Delta":81122460},{"NoteNumber":79,"Velocity":49,"Duration":104183,"SoundDuration":104183,"Delta":81226057},{"NoteNumber":77,"Velocity":48,"Duration":104790,"SoundDuration":104790,"Delta":81330240},{"NoteNumber":75,"Velocity":47,"Duration":105379,"SoundDuration":105379,"Delta":81435031},{"NoteNumber":73,"Velocity":47,"Duration":105987,"SoundDuration":105987,"Delta":81540410},{"NoteNumber":65,"Velocity":31,"Duration":1278176,"SoundDuration":1278176,"Delta":81540410},{"NoteNumber":61,"Velocity":26,"Duration":1278176,"SoundDuration":1278176,"Delta":81540410},{"NoteNumber":72,"Velocity":44,"Duration":106577,"SoundDuration":106577,"Delta":81646398},{"NoteNumber":70,"Velocity":43,"Duration":107199,"SoundDuration":107199,"Delta":81752975},{"NoteNumber":68,"Velocity":43,"Duration":107780,"SoundDuration":107780,"Delta":81860175},{"NoteNumber":67,"Velocity":41,"Duration":107365,"SoundDuration":107365,"Delta":81967955},{"NoteNumber":68,"Velocity":40,"Duration":107365,"SoundDuration":107365,"Delta":82075320},{"NoteNumber":70,"Velocity":37,"Duration":107224,"SoundDuration":107224,"Delta":82182686},{"NoteNumber":72,"Velocity":37,"Duration":106729,"SoundDuration":106729,"Delta":82289911},{"NoteNumber":73,"Velocity":39,"Duration":106212,"SoundDuration":106212,"Delta":82396640},{"NoteNumber":75,"Velocity":41,"Duration":105713,"SoundDuration":105713,"Delta":82502852},{"NoteNumber":77,"Velocity":42,"Duration":105231,"SoundDuration":105231,"Delta":82608566},{"NoteNumber":79,"Velocity":44,"Duration":104790,"SoundDuration":104790,"Delta":82713797},{"NoteNumber":80,"Velocity":46,"Duration":104534,"SoundDuration":104534,"Delta":82818587},{"NoteNumber":56,"Velocity":32,"Duration":187831,"SoundDuration":187831,"Delta":82818587},{"NoteNumber":60,"Velocity":32,"Duration":187831,"SoundDuration":187831,"Delta":82818587},{"NoteNumber":63,"Velocity":38,"Duration":187831,"SoundDuration":187831,"Delta":82818587},{"NoteNumber":82,"Velocity":47,"Duration":104075,"SoundDuration":104075,"Delta":82923122},{"NoteNumber":84,"Velocity":49,"Duration":103524,"SoundDuration":103524,"Delta":83027197},{"NoteNumber":63,"Velocity":35,"Duration":185998,"SoundDuration":185998,"Delta":83027197},{"NoteNumber":56,"Velocity":29,"Duration":185998,"SoundDuration":185998,"Delta":83027197},{"NoteNumber":60,"Velocity":29,"Duration":185998,"SoundDuration":185998,"Delta":83027197},{"NoteNumber":85,"Velocity":52,"Duration":103062,"SoundDuration":103062,"Delta":83130722},{"NoteNumber":87,"Velocity":54,"Duration":102510,"SoundDuration":102510,"Delta":83233784},{"NoteNumber":60,"Velocity":30,"Duration":799669,"SoundDuration":799669,"Delta":83233784},{"NoteNumber":56,"Velocity":30,"Duration":799669,"SoundDuration":799669,"Delta":83233784},{"NoteNumber":63,"Velocity":36,"Duration":1992790,"SoundDuration":1992790,"Delta":83233784},{"NoteNumber":89,"Velocity":56,"Duration":101775,"SoundDuration":101775,"Delta":83336295},{"NoteNumber":91,"Velocity":59,"Duration":100958,"SoundDuration":100958,"Delta":83438071},{"NoteNumber":92,"Velocity":61,"Duration":100250,"SoundDuration":100250,"Delta":83539029},{"NoteNumber":94,"Velocity":63,"Duration":99551,"SoundDuration":99551,"Delta":83639280},{"NoteNumber":96,"Velocity":66,"Duration":98895,"SoundDuration":98895,"Delta":83738831},{"NoteNumber":97,"Velocity":68,"Duration":98183,"SoundDuration":98183,"Delta":83837726},{"NoteNumber":99,"Velocity":70,"Duration":97544,"SoundDuration":97544,"Delta":83935909},{"NoteNumber":101,"Velocity":73,"Duration":96981,"SoundDuration":96981,"Delta":84033454},{"NoteNumber":58,"Velocity":33,"Duration":1193121,"SoundDuration":1193121,"Delta":84033454},{"NoteNumber":55,"Velocity":33,"Duration":1193121,"SoundDuration":1193121,"Delta":84033454},{"NoteNumber":61,"Velocity":33,"Duration":1193121,"SoundDuration":1193121,"Delta":84033454},{"NoteNumber":99,"Velocity":73,"Duration":97149,"SoundDuration":97149,"Delta":84130435},{"NoteNumber":97,"Velocity":72,"Duration":97401,"SoundDuration":97401,"Delta":84227585},{"NoteNumber":96,"Velocity":71,"Duration":97655,"SoundDuration":97655,"Delta":84324987},{"NoteNumber":94,"Velocity":70,"Duration":97910,"SoundDuration":97910,"Delta":84422642},{"NoteNumber":92,"Velocity":69,"Duration":98225,"SoundDuration":98225,"Delta":84520552},{"NoteNumber":91,"Velocity":68,"Duration":98502,"SoundDuration":98502,"Delta":84618777},{"NoteNumber":89,"Velocity":67,"Duration":99519,"SoundDuration":99519,"Delta":84717280},{"NoteNumber":87,"Velocity":66,"Duration":100640,"SoundDuration":100640,"Delta":84816799},{"NoteNumber":85,"Velocity":66,"Duration":101884,"SoundDuration":101884,"Delta":84917440},{"NoteNumber":84,"Velocity":65,"Duration":103060,"SoundDuration":103060,"Delta":85019324},{"NoteNumber":82,"Velocity":64,"Duration":104190,"SoundDuration":104190,"Delta":85122385},{"NoteNumber":80,"Velocity":67,"Duration":103899,"SoundDuration":103899,"Delta":85226575},{"NoteNumber":59,"Velocity":40,"Duration":186225,"SoundDuration":186225,"Delta":85226575},{"NoteNumber":56,"Velocity":40,"Duration":186225,"SoundDuration":186225,"Delta":85226575},{"NoteNumber":63,"Velocity":48,"Duration":186225,"SoundDuration":186225,"Delta":85226575},{"NoteNumber":82,"Velocity":68,"Duration":102795,"SoundDuration":102795,"Delta":85330474},{"NoteNumber":83,"Velocity":69,"Duration":101714,"SoundDuration":101714,"Delta":85433270},{"NoteNumber":59,"Velocity":36,"Duration":182333,"SoundDuration":182333,"Delta":85433270},{"NoteNumber":63,"Velocity":43,"Duration":182333,"SoundDuration":182333,"Delta":85433270},{"NoteNumber":56,"Velocity":36,"Duration":182333,"SoundDuration":182333,"Delta":85433270},{"NoteNumber":85,"Velocity":71,"Duration":100657,"SoundDuration":100657,"Delta":85534985},{"NoteNumber":87,"Velocity":72,"Duration":99654,"SoundDuration":99654,"Delta":85635642},{"NoteNumber":63,"Velocity":43,"Duration":801815,"SoundDuration":801815,"Delta":85635642},{"NoteNumber":59,"Velocity":36,"Duration":801815,"SoundDuration":801815,"Delta":85635642},{"NoteNumber":56,"Velocity":36,"Duration":2047385,"SoundDuration":2047385,"Delta":85635642},{"NoteNumber":85,"Velocity":73,"Duration":98696,"SoundDuration":98696,"Delta":85735296},{"NoteNumber":83,"Velocity":74,"Duration":99063,"SoundDuration":99063,"Delta":85833993},{"NoteNumber":82,"Velocity":73,"Duration":99675,"SoundDuration":99675,"Delta":85933056},{"NoteNumber":80,"Velocity":71,"Duration":100289,"SoundDuration":100289,"Delta":86032732},{"NoteNumber":78,"Velocity":70,"Duration":100862,"SoundDuration":100862,"Delta":86133021},{"NoteNumber":76,"Velocity":68,"Duration":101476,"SoundDuration":101476,"Delta":86233883},{"NoteNumber":75,"Velocity":67,"Duration":102097,"SoundDuration":102097,"Delta":86335360},{"NoteNumber":73,"Velocity":65,"Duration":102747,"SoundDuration":102747,"Delta":86437457},{"NoteNumber":61,"Velocity":39,"Duration":1245569,"SoundDuration":1245569,"Delta":86437457},{"NoteNumber":64,"Velocity":46,"Duration":1245569,"SoundDuration":1245569,"Delta":86437457},{"NoteNumber":71,"Velocity":64,"Duration":103364,"SoundDuration":103364,"Delta":86540205},{"NoteNumber":70,"Velocity":62,"Duration":104009,"SoundDuration":104009,"Delta":86643570},{"NoteNumber":68,"Velocity":61,"Duration":104714,"SoundDuration":104714,"Delta":86747579},{"NoteNumber":67,"Velocity":59,"Duration":105388,"SoundDuration":105388,"Delta":86852294},{"NoteNumber":68,"Velocity":58,"Duration":104946,"SoundDuration":104946,"Delta":86957683},{"NoteNumber":70,"Velocity":56,"Duration":104507,"SoundDuration":104507,"Delta":87062629},{"NoteNumber":71,"Velocity":55,"Duration":104057,"SoundDuration":104057,"Delta":87167136},{"NoteNumber":73,"Velocity":56,"Duration":103569,"SoundDuration":103569,"Delta":87271193},{"NoteNumber":75,"Velocity":58,"Duration":103177,"SoundDuration":103177,"Delta":87374763},{"NoteNumber":76,"Velocity":60,"Duration":102753,"SoundDuration":102753,"Delta":87477940},{"NoteNumber":79,"Velocity":62,"Duration":102332,"SoundDuration":102332,"Delta":87580694},{"NoteNumber":80,"Velocity":65,"Duration":101866,"SoundDuration":101866,"Delta":87683027},{"NoteNumber":59,"Velocity":40,"Duration":183058,"SoundDuration":183058,"Delta":87683027},{"NoteNumber":56,"Velocity":40,"Duration":183058,"SoundDuration":183058,"Delta":87683027},{"NoteNumber":63,"Velocity":48,"Duration":183058,"SoundDuration":183058,"Delta":87683027},{"NoteNumber":82,"Velocity":63,"Duration":101433,"SoundDuration":101433,"Delta":87784893},{"NoteNumber":83,"Velocity":65,"Duration":101057,"SoundDuration":101057,"Delta":87886327},{"NoteNumber":56,"Velocity":36,"Duration":181602,"SoundDuration":181602,"Delta":87886327},{"NoteNumber":63,"Velocity":43,"Duration":181602,"SoundDuration":181602,"Delta":87886327},{"NoteNumber":59,"Velocity":36,"Duration":181602,"SoundDuration":181602,"Delta":87886327},{"NoteNumber":85,"Velocity":66,"Duration":100650,"SoundDuration":100650,"Delta":87987384},{"NoteNumber":87,"Velocity":67,"Duration":100233,"SoundDuration":100233,"Delta":88088035},{"NoteNumber":63,"Velocity":43,"Duration":790461,"SoundDuration":790461,"Delta":88088035},{"NoteNumber":59,"Velocity":36,"Duration":790461,"SoundDuration":790461,"Delta":88088035},{"NoteNumber":56,"Velocity":36,"Duration":790461,"SoundDuration":790461,"Delta":88088035},{"NoteNumber":89,"Velocity":68,"Duration":99780,"SoundDuration":99780,"Delta":88188268},{"NoteNumber":91,"Velocity":69,"Duration":99383,"SoundDuration":99383,"Delta":88288048},{"NoteNumber":92,"Velocity":70,"Duration":99022,"SoundDuration":99022,"Delta":88387432},{"NoteNumber":94,"Velocity":72,"Duration":98631,"SoundDuration":98631,"Delta":88486454},{"NoteNumber":95,"Velocity":73,"Duration":98198,"SoundDuration":98198,"Delta":88585086},{"NoteNumber":97,"Velocity":74,"Duration":97795,"SoundDuration":97795,"Delta":88683285},{"NoteNumber":99,"Velocity":75,"Duration":97414,"SoundDuration":97414,"Delta":88781081},{"NoteNumber":100,"Velocity":76,"Duration":97036,"SoundDuration":97036,"Delta":88878496},{"NoteNumber":58,"Velocity":36,"Duration":1196341,"SoundDuration":1196341,"Delta":88878496},{"NoteNumber":61,"Velocity":36,"Duration":1196341,"SoundDuration":1196341,"Delta":88878496},{"NoteNumber":55,"Velocity":36,"Duration":1196341,"SoundDuration":1196341,"Delta":88878496},{"NoteNumber":64,"Velocity":43,"Duration":585378,"SoundDuration":585378,"Delta":88878496},{"NoteNumber":99,"Velocity":77,"Duration":97149,"SoundDuration":97149,"Delta":88975533},{"NoteNumber":97,"Velocity":72,"Duration":97401,"SoundDuration":97401,"Delta":89072682},{"NoteNumber":95,"Velocity":71,"Duration":97655,"SoundDuration":97655,"Delta":89170084},{"NoteNumber":94,"Velocity":70,"Duration":97910,"SoundDuration":97910,"Delta":89267739},{"NoteNumber":92,"Velocity":69,"Duration":98225,"SoundDuration":98225,"Delta":89365649},{"NoteNumber":91,"Velocity":71,"Duration":98521,"SoundDuration":98521,"Delta":89463875},{"NoteNumber":63,"Velocity":43,"Duration":610962,"SoundDuration":610962,"Delta":89463875},{"NoteNumber":88,"Velocity":68,"Duration":98780,"SoundDuration":98780,"Delta":89562396},{"NoteNumber":87,"Velocity":65,"Duration":99041,"SoundDuration":99041,"Delta":89661177},{"NoteNumber":85,"Velocity":62,"Duration":99304,"SoundDuration":99304,"Delta":89760218},{"NoteNumber":83,"Velocity":60,"Duration":99567,"SoundDuration":99567,"Delta":89859522},{"NoteNumber":82,"Velocity":57,"Duration":115747,"SoundDuration":115747,"Delta":89959090},{"NoteNumber":87,"Velocity":63,"Duration":97939,"SoundDuration":97939,"Delta":90074837},{"NoteNumber":63,"Velocity":41,"Duration":592819,"SoundDuration":592819,"Delta":90074837},{"NoteNumber":59,"Velocity":34,"Duration":592819,"SoundDuration":592819,"Delta":90074837},{"NoteNumber":56,"Velocity":34,"Duration":592819,"SoundDuration":592819,"Delta":90074837},{"NoteNumber":85,"Velocity":62,"Duration":98292,"SoundDuration":98292,"Delta":90172777},{"NoteNumber":83,"Velocity":60,"Duration":98615,"SoundDuration":98615,"Delta":90271070},{"NoteNumber":82,"Velocity":58,"Duration":98973,"SoundDuration":98973,"Delta":90369685},{"NoteNumber":80,"Velocity":57,"Duration":99334,"SoundDuration":99334,"Delta":90468659},{"NoteNumber":78,"Velocity":55,"Duration":99664,"SoundDuration":99664,"Delta":90567993},{"NoteNumber":76,"Velocity":53,"Duration":100029,"SoundDuration":100029,"Delta":90667657},{"NoteNumber":56,"Velocity":35,"Duration":605517,"SoundDuration":605517,"Delta":90667657},{"NoteNumber":51,"Velocity":29,"Duration":605517,"SoundDuration":605517,"Delta":90667657},{"NoteNumber":47,"Velocity":29,"Duration":605517,"SoundDuration":605517,"Delta":90667657},{"NoteNumber":75,"Velocity":52,"Duration":100364,"SoundDuration":100364,"Delta":90767687},{"NoteNumber":73,"Velocity":50,"Duration":100735,"SoundDuration":100735,"Delta":90868051},{"NoteNumber":71,"Velocity":48,"Duration":101108,"SoundDuration":101108,"Delta":90968787},{"NoteNumber":70,"Velocity":46,"Duration":101450,"SoundDuration":101450,"Delta":91069895},{"NoteNumber":68,"Velocity":45,"Duration":101829,"SoundDuration":101829,"Delta":91171345},{"NoteNumber":69,"Velocity":46,"Duration":96661,"SoundDuration":96661,"Delta":91273175},{"NoteNumber":49,"Velocity":36,"Duration":665311,"SoundDuration":665311,"Delta":91273175},{"NoteNumber":73,"Velocity":43,"Duration":96662,"SoundDuration":96662,"Delta":91369837},{"NoteNumber":69,"Velocity":48,"Duration":96661,"SoundDuration":96661,"Delta":91466499},{"NoteNumber":73,"Velocity":42,"Duration":100549,"SoundDuration":100549,"Delta":91563161},{"NoteNumber":76,"Velocity":53,"Duration":137387,"SoundDuration":137387,"Delta":91663710},{"NoteNumber":61,"Velocity":29,"Duration":137387,"SoundDuration":137387,"Delta":91663710},{"NoteNumber":57,"Velocity":29,"Duration":137387,"SoundDuration":137387,"Delta":91663710},{"NoteNumber":67,"Velocity":46,"Duration":96661,"SoundDuration":96661,"Delta":91938486},{"NoteNumber":51,"Velocity":36,"Duration":662817,"SoundDuration":662817,"Delta":91938486},{"NoteNumber":70,"Velocity":43,"Duration":96662,"SoundDuration":96662,"Delta":92035148},{"NoteNumber":67,"Velocity":48,"Duration":96661,"SoundDuration":96661,"Delta":92131810},{"NoteNumber":70,"Velocity":42,"Duration":100549,"SoundDuration":100549,"Delta":92228472},{"NoteNumber":75,"Velocity":53,"Duration":136140,"SoundDuration":136140,"Delta":92329022},{"NoteNumber":61,"Velocity":29,"Duration":136140,"SoundDuration":136140,"Delta":92329022},{"NoteNumber":58,"Velocity":29,"Duration":136140,"SoundDuration":136140,"Delta":92329022},{"NoteNumber":99,"Velocity":70,"Duration":97939,"SoundDuration":97939,"Delta":92601303},{"NoteNumber":47,"Velocity":41,"Duration":1198337,"SoundDuration":1198337,"Delta":92601303},{"NoteNumber":97,"Velocity":69,"Duration":98292,"SoundDuration":98292,"Delta":92699243},{"NoteNumber":95,"Velocity":67,"Duration":98615,"SoundDuration":98615,"Delta":92797535},{"NoteNumber":94,"Velocity":65,"Duration":98973,"SoundDuration":98973,"Delta":92896151},{"NoteNumber":92,"Velocity":63,"Duration":99334,"SoundDuration":99334,"Delta":92995124},{"NoteNumber":51,"Velocity":29,"Duration":804515,"SoundDuration":804515,"Delta":92995124},{"NoteNumber":59,"Velocity":35,"Duration":804515,"SoundDuration":804515,"Delta":92995124},{"NoteNumber":56,"Velocity":29,"Duration":804515,"SoundDuration":804515,"Delta":92995124},{"NoteNumber":90,"Velocity":62,"Duration":99664,"SoundDuration":99664,"Delta":93094459},{"NoteNumber":88,"Velocity":60,"Duration":100029,"SoundDuration":100029,"Delta":93194123},{"NoteNumber":87,"Velocity":58,"Duration":100364,"SoundDuration":100364,"Delta":93294153},{"NoteNumber":85,"Velocity":57,"Duration":100735,"SoundDuration":100735,"Delta":93394517},{"NoteNumber":83,"Velocity":55,"Duration":101108,"SoundDuration":101108,"Delta":93495252},{"NoteNumber":82,"Velocity":53,"Duration":101450,"SoundDuration":101450,"Delta":93596361},{"NoteNumber":80,"Velocity":52,"Duration":101829,"SoundDuration":101829,"Delta":93697811},{"NoteNumber":81,"Velocity":50,"Duration":96661,"SoundDuration":96661,"Delta":93799640},{"NoteNumber":49,"Velocity":36,"Duration":666575,"SoundDuration":666575,"Delta":93799640},{"NoteNumber":85,"Velocity":45,"Duration":96662,"SoundDuration":96662,"Delta":93896302},{"NoteNumber":81,"Velocity":52,"Duration":96661,"SoundDuration":96661,"Delta":93992964},{"NoteNumber":85,"Velocity":46,"Duration":100549,"SoundDuration":100549,"Delta":94089626},{"NoteNumber":88,"Velocity":54,"Duration":138019,"SoundDuration":138019,"Delta":94190176},{"NoteNumber":57,"Velocity":24,"Duration":138019,"SoundDuration":138019,"Delta":94190176},{"NoteNumber":61,"Velocity":29,"Duration":138019,"SoundDuration":138019,"Delta":94190176},{"NoteNumber":79,"Velocity":51,"Duration":96661,"SoundDuration":96661,"Delta":94466215},{"NoteNumber":51,"Velocity":36,"Duration":662817,"SoundDuration":662817,"Delta":94466215},{"NoteNumber":82,"Velocity":44,"Duration":96662,"SoundDuration":96662,"Delta":94562877},{"NoteNumber":79,"Velocity":51,"Duration":96661,"SoundDuration":96661,"Delta":94659539},{"NoteNumber":82,"Velocity":45,"Duration":100549,"SoundDuration":100549,"Delta":94756201},{"NoteNumber":87,"Velocity":53,"Duration":136140,"SoundDuration":136140,"Delta":94856751},{"NoteNumber":58,"Velocity":24,"Duration":136140,"SoundDuration":136140,"Delta":94856751},{"NoteNumber":61,"Velocity":29,"Duration":136140,"SoundDuration":136140,"Delta":94856751},{"NoteNumber":92,"Velocity":70,"Duration":97939,"SoundDuration":97939,"Delta":95129033},{"NoteNumber":47,"Velocity":41,"Duration":1198337,"SoundDuration":1198337,"Delta":95129033},{"NoteNumber":87,"Velocity":68,"Duration":98292,"SoundDuration":98292,"Delta":95226972},{"NoteNumber":85,"Velocity":66,"Duration":98615,"SoundDuration":98615,"Delta":95325265},{"NoteNumber":83,"Velocity":64,"Duration":98973,"SoundDuration":98973,"Delta":95423881},{"NoteNumber":82,"Velocity":62,"Duration":66157,"SoundDuration":66157,"Delta":95522854},{"NoteNumber":51,"Velocity":29,"Duration":804515,"SoundDuration":804515,"Delta":95522854},{"NoteNumber":59,"Velocity":35,"Duration":804515,"SoundDuration":804515,"Delta":95522854},{"NoteNumber":56,"Velocity":29,"Duration":804515,"SoundDuration":804515,"Delta":95522854},{"NoteNumber":80,"Velocity":60,"Duration":66352,"SoundDuration":66352,"Delta":95589012},{"NoteNumber":78,"Velocity":59,"Duration":66487,"SoundDuration":66487,"Delta":95655365},{"NoteNumber":76,"Velocity":57,"Duration":100029,"SoundDuration":100029,"Delta":95721853},{"NoteNumber":75,"Velocity":55,"Duration":100364,"SoundDuration":100364,"Delta":95821882},{"NoteNumber":73,"Velocity":53,"Duration":100735,"SoundDuration":100735,"Delta":95922247},{"NoteNumber":71,"Velocity":51,"Duration":101108,"SoundDuration":101108,"Delta":96022982},{"NoteNumber":70,"Velocity":49,"Duration":101450,"SoundDuration":101450,"Delta":96124090},{"NoteNumber":68,"Velocity":47,"Duration":101829,"SoundDuration":101829,"Delta":96225541},{"NoteNumber":69,"Velocity":51,"Duration":96661,"SoundDuration":96661,"Delta":96327370},{"NoteNumber":49,"Velocity":36,"Duration":624581,"SoundDuration":624581,"Delta":96327370},{"NoteNumber":73,"Velocity":45,"Duration":96662,"SoundDuration":96662,"Delta":96424032},{"NoteNumber":69,"Velocity":50,"Duration":96661,"SoundDuration":96661,"Delta":96520694},{"NoteNumber":73,"Velocity":45,"Duration":100549,"SoundDuration":100549,"Delta":96617356},{"NoteNumber":76,"Velocity":50,"Duration":483671,"SoundDuration":483671,"Delta":96717906},{"NoteNumber":61,"Velocity":29,"Duration":234046,"SoundDuration":234046,"Delta":96717906},{"NoteNumber":57,"Velocity":24,"Duration":234046,"SoundDuration":234046,"Delta":96717906},{"NoteNumber":51,"Velocity":35,"Duration":1170713,"SoundDuration":1170713,"Delta":96951952},{"NoteNumber":75,"Velocity":39,"Duration":285225,"SoundDuration":285225,"Delta":97201577},{"NoteNumber":67,"Velocity":34,"Duration":635862,"SoundDuration":635862,"Delta":97486803},{"NoteNumber":58,"Velocity":25,"Duration":635862,"SoundDuration":635862,"Delta":97486803},{"NoteNumber":61,"Velocity":30,"Duration":635862,"SoundDuration":635862,"Delta":97486803},{"NoteNumber":68,"Velocity":42,"Duration":96661,"SoundDuration":96661,"Delta":98122665},{"NoteNumber":44,"Velocity":44,"Duration":193324,"SoundDuration":193324,"Delta":98122665},{"NoteNumber":71,"Velocity":35,"Duration":96662,"SoundDuration":96662,"Delta":98219327},{"NoteNumber":68,"Velocity":42,"Duration":96661,"SoundDuration":96661,"Delta":98315989},{"NoteNumber":71,"Velocity":35,"Duration":100549,"SoundDuration":100549,"Delta":98412651},{"NoteNumber":80,"Velocity":53,"Duration":153562,"SoundDuration":153562,"Delta":98513201},{"NoteNumber":56,"Velocity":24,"Duration":153562,"SoundDuration":153562,"Delta":98513201},{"NoteNumber":59,"Velocity":29,"Duration":153562,"SoundDuration":153562,"Delta":98513201},{"NoteNumber":70,"Velocity":42,"Duration":96661,"SoundDuration":96661,"Delta":98820326},{"NoteNumber":44,"Velocity":44,"Duration":193324,"SoundDuration":193324,"Delta":98820326},{"NoteNumber":73,"Velocity":35,"Duration":96662,"SoundDuration":96662,"Delta":98916988},{"NoteNumber":70,"Velocity":42,"Duration":96661,"SoundDuration":96661,"Delta":99013650},{"NoteNumber":73,"Velocity":35,"Duration":100549,"SoundDuration":100549,"Delta":99110312},{"NoteNumber":82,"Velocity":53,"Duration":150481,"SoundDuration":150481,"Delta":99210862},{"NoteNumber":58,"Velocity":24,"Duration":150481,"SoundDuration":150481,"Delta":99210862},{"NoteNumber":61,"Velocity":29,"Duration":150481,"SoundDuration":150481,"Delta":99210862},{"NoteNumber":71,"Velocity":42,"Duration":96661,"SoundDuration":96661,"Delta":99511825},{"NoteNumber":44,"Velocity":44,"Duration":193324,"SoundDuration":193324,"Delta":99511825},{"NoteNumber":75,"Velocity":35,"Duration":96662,"SoundDuration":96662,"Delta":99608487},{"NoteNumber":71,"Velocity":42,"Duration":96661,"SoundDuration":96661,"Delta":99705149},{"NoteNumber":75,"Velocity":35,"Duration":100549,"SoundDuration":100549,"Delta":99801811},{"NoteNumber":83,"Velocity":53,"Duration":150481,"SoundDuration":150481,"Delta":99902361},{"NoteNumber":63,"Velocity":29,"Duration":150481,"SoundDuration":150481,"Delta":99902361},{"NoteNumber":59,"Velocity":24,"Duration":150481,"SoundDuration":150481,"Delta":99902361},{"NoteNumber":70,"Velocity":39,"Duration":53571,"SoundDuration":53571,"Delta":100203324},{"NoteNumber":73,"Velocity":39,"Duration":53571,"SoundDuration":53571,"Delta":100203324},{"NoteNumber":82,"Velocity":46,"Duration":53571,"SoundDuration":53571,"Delta":100203324},{"NoteNumber":63,"Velocity":31,"Duration":53571,"SoundDuration":53571,"Delta":100203324},{"NoteNumber":58,"Velocity":26,"Duration":53571,"SoundDuration":53571,"Delta":100203324},{"NoteNumber":61,"Velocity":26,"Duration":53571,"SoundDuration":53571,"Delta":100203324},{"NoteNumber":73,"Velocity":36,"Duration":54545,"SoundDuration":54545,"Delta":100417609},{"NoteNumber":70,"Velocity":36,"Duration":54545,"SoundDuration":54545,"Delta":100417609},{"NoteNumber":82,"Velocity":43,"Duration":54545,"SoundDuration":54545,"Delta":100417609},{"NoteNumber":58,"Velocity":24,"Duration":54545,"SoundDuration":54545,"Delta":100417609},{"NoteNumber":63,"Velocity":29,"Duration":54545,"SoundDuration":54545,"Delta":100417609},{"NoteNumber":61,"Velocity":24,"Duration":54545,"SoundDuration":54545,"Delta":100417609},{"NoteNumber":68,"Velocity":36,"Duration":59438,"SoundDuration":59438,"Delta":100635791},{"NoteNumber":71,"Velocity":36,"Duration":59438,"SoundDuration":59438,"Delta":100635791},{"NoteNumber":80,"Velocity":43,"Duration":59438,"SoundDuration":59438,"Delta":100635791},{"NoteNumber":59,"Velocity":24,"Duration":59438,"SoundDuration":59438,"Delta":100635791},{"NoteNumber":56,"Velocity":24,"Duration":59438,"SoundDuration":59438,"Delta":100635791},{"NoteNumber":63,"Velocity":29,"Duration":59438,"SoundDuration":59438,"Delta":100635791},{"NoteNumber":67,"Velocity":42,"Duration":96661,"SoundDuration":96661,"Delta":100873547},{"NoteNumber":51,"Velocity":44,"Duration":390535,"SoundDuration":390535,"Delta":100873547},{"NoteNumber":70,"Velocity":35,"Duration":96662,"SoundDuration":96662,"Delta":100970209},{"NoteNumber":67,"Velocity":42,"Duration":96661,"SoundDuration":96661,"Delta":101066871},{"NoteNumber":70,"Velocity":35,"Duration":100549,"SoundDuration":100549,"Delta":101163533},{"NoteNumber":79,"Velocity":53,"Duration":153562,"SoundDuration":153562,"Delta":101264083},{"NoteNumber":55,"Velocity":24,"Duration":153562,"SoundDuration":153562,"Delta":101264083},{"NoteNumber":58,"Velocity":29,"Duration":153562,"SoundDuration":153562,"Delta":101264083},{"NoteNumber":68,"Velocity":42,"Duration":96661,"SoundDuration":96661,"Delta":101571208},{"NoteNumber":51,"Velocity":44,"Duration":390535,"SoundDuration":390535,"Delta":101571208},{"NoteNumber":71,"Velocity":35,"Duration":96662,"SoundDuration":96662,"Delta":101667870},{"NoteNumber":68,"Velocity":42,"Duration":96661,"SoundDuration":96661,"Delta":101764532},{"NoteNumber":71,"Velocity":35,"Duration":100549,"SoundDuration":100549,"Delta":101861194},{"NoteNumber":80,"Velocity":53,"Duration":142572,"SoundDuration":142572,"Delta":101961744},{"NoteNumber":56,"Velocity":24,"Duration":142572,"SoundDuration":142572,"Delta":101961744},{"NoteNumber":59,"Velocity":29,"Duration":142572,"SoundDuration":142572,"Delta":101961744},{"NoteNumber":70,"Velocity":42,"Duration":96661,"SoundDuration":96661,"Delta":102246888},{"NoteNumber":51,"Velocity":44,"Duration":390535,"SoundDuration":390535,"Delta":102246888},{"NoteNumber":73,"Velocity":35,"Duration":96662,"SoundDuration":96662,"Delta":102343550},{"NoteNumber":70,"Velocity":42,"Duration":96661,"SoundDuration":96661,"Delta":102440212},{"NoteNumber":73,"Velocity":35,"Duration":100549,"SoundDuration":100549,"Delta":102536874},{"NoteNumber":82,"Velocity":53,"Duration":150481,"SoundDuration":150481,"Delta":102637424},{"NoteNumber":58,"Velocity":24,"Duration":150481,"SoundDuration":150481,"Delta":102637424},{"NoteNumber":61,"Velocity":29,"Duration":150481,"SoundDuration":150481,"Delta":102637424},{"NoteNumber":71,"Velocity":39,"Duration":53380,"SoundDuration":53380,"Delta":102938387},{"NoteNumber":68,"Velocity":39,"Duration":53380,"SoundDuration":53380,"Delta":102938387},{"NoteNumber":80,"Velocity":46,"Duration":53380,"SoundDuration":53380,"Delta":102938387},{"NoteNumber":56,"Velocity":26,"Duration":53380,"SoundDuration":53380,"Delta":102938387},{"NoteNumber":51,"Velocity":26,"Duration":53380,"SoundDuration":53380,"Delta":102938387},{"NoteNumber":59,"Velocity":31,"Duration":53380,"SoundDuration":53380,"Delta":102938387},{"NoteNumber":68,"Velocity":36,"Duration":54545,"SoundDuration":54545,"Delta":103151910},{"NoteNumber":80,"Velocity":43,"Duration":54545,"SoundDuration":54545,"Delta":103151910},{"NoteNumber":71,"Velocity":36,"Duration":54545,"SoundDuration":54545,"Delta":103151910},{"NoteNumber":59,"Velocity":29,"Duration":54545,"SoundDuration":54545,"Delta":103151910},{"NoteNumber":51,"Velocity":24,"Duration":54545,"SoundDuration":54545,"Delta":103151910},{"NoteNumber":56,"Velocity":24,"Duration":54545,"SoundDuration":54545,"Delta":103151910},{"NoteNumber":70,"Velocity":36,"Duration":59438,"SoundDuration":59438,"Delta":103370092},{"NoteNumber":79,"Velocity":43,"Duration":59438,"SoundDuration":59438,"Delta":103370092},{"NoteNumber":67,"Velocity":36,"Duration":59438,"SoundDuration":59438,"Delta":103370092},{"NoteNumber":51,"Velocity":24,"Duration":59438,"SoundDuration":59438,"Delta":103370092},{"NoteNumber":58,"Velocity":29,"Duration":59438,"SoundDuration":59438,"Delta":103370092},{"NoteNumber":55,"Velocity":24,"Duration":59438,"SoundDuration":59438,"Delta":103370092},{"NoteNumber":68,"Velocity":46,"Duration":96661,"SoundDuration":96661,"Delta":103607847},{"NoteNumber":44,"Velocity":48,"Duration":390535,"SoundDuration":390535,"Delta":103607847},{"NoteNumber":71,"Velocity":38,"Duration":96662,"SoundDuration":96662,"Delta":103704509},{"NoteNumber":68,"Velocity":46,"Duration":96661,"SoundDuration":96661,"Delta":103801171},{"NoteNumber":71,"Velocity":38,"Duration":100549,"SoundDuration":100549,"Delta":103897833},{"NoteNumber":80,"Velocity":58,"Duration":153562,"SoundDuration":153562,"Delta":103998383},{"NoteNumber":56,"Velocity":26,"Duration":153562,"SoundDuration":153562,"Delta":103998383},{"NoteNumber":59,"Velocity":31,"Duration":153562,"SoundDuration":153562,"Delta":103998383},{"NoteNumber":70,"Velocity":46,"Duration":96661,"SoundDuration":96661,"Delta":104305508},{"NoteNumber":44,"Velocity":48,"Duration":390535,"SoundDuration":390535,"Delta":104305508},{"NoteNumber":73,"Velocity":38,"Duration":96662,"SoundDuration":96662,"Delta":104402170},{"NoteNumber":70,"Velocity":46,"Duration":96661,"SoundDuration":96661,"Delta":104498832},{"NoteNumber":73,"Velocity":38,"Duration":100549,"SoundDuration":100549,"Delta":104595494},{"NoteNumber":82,"Velocity":58,"Duration":150481,"SoundDuration":150481,"Delta":104696044},{"NoteNumber":58,"Velocity":26,"Duration":150481,"SoundDuration":150481,"Delta":104696044},{"NoteNumber":61,"Velocity":31,"Duration":150481,"SoundDuration":150481,"Delta":104696044},{"NoteNumber":71,"Velocity":46,"Duration":96661,"SoundDuration":96661,"Delta":104997007},{"NoteNumber":44,"Velocity":48,"Duration":390535,"SoundDuration":390535,"Delta":104997007},{"NoteNumber":75,"Velocity":38,"Duration":96662,"SoundDuration":96662,"Delta":105093669},{"NoteNumber":71,"Velocity":46,"Duration":96661,"SoundDuration":96661,"Delta":105190331},{"NoteNumber":75,"Velocity":38,"Duration":100549,"SoundDuration":100549,"Delta":105286993},{"NoteNumber":83,"Velocity":58,"Duration":139912,"SoundDuration":139912,"Delta":105387543},{"NoteNumber":59,"Velocity":26,"Duration":139912,"SoundDuration":139912,"Delta":105387543},{"NoteNumber":63,"Velocity":31,"Duration":139912,"SoundDuration":139912,"Delta":105387543},{"NoteNumber":76,"Velocity":50,"Duration":53956,"SoundDuration":53956,"Delta":105667367},{"NoteNumber":85,"Velocity":59,"Duration":53956,"SoundDuration":53956,"Delta":105667367},{"NoteNumber":73,"Velocity":50,"Duration":53956,"SoundDuration":53956,"Delta":105667367},{"NoteNumber":64,"Velocity":40,"Duration":53956,"SoundDuration":53956,"Delta":105667367},{"NoteNumber":54,"Velocity":33,"Duration":53956,"SoundDuration":53956,"Delta":105667367},{"NoteNumber":61,"Velocity":33,"Duration":53956,"SoundDuration":53956,"Delta":105667367},{"NoteNumber":76,"Velocity":46,"Duration":54744,"SoundDuration":54744,"Delta":105883195},{"NoteNumber":73,"Velocity":46,"Duration":54744,"SoundDuration":54744,"Delta":105883195},{"NoteNumber":85,"Velocity":55,"Duration":54744,"SoundDuration":54744,"Delta":105883195},{"NoteNumber":64,"Velocity":37,"Duration":54744,"SoundDuration":54744,"Delta":105883195},{"NoteNumber":61,"Velocity":31,"Duration":54744,"SoundDuration":54744,"Delta":105883195},{"NoteNumber":54,"Velocity":31,"Duration":54744,"SoundDuration":54744,"Delta":105883195},{"NoteNumber":78,"Velocity":46,"Duration":66839,"SoundDuration":66839,"Delta":106102173},{"NoteNumber":75,"Velocity":46,"Duration":66839,"SoundDuration":66839,"Delta":106102173},{"NoteNumber":87,"Velocity":55,"Duration":66839,"SoundDuration":66839,"Delta":106102173},{"NoteNumber":54,"Velocity":31,"Duration":66839,"SoundDuration":66839,"Delta":106102173},{"NoteNumber":58,"Velocity":31,"Duration":66839,"SoundDuration":66839,"Delta":106102173},{"NoteNumber":66,"Velocity":37,"Duration":66839,"SoundDuration":66839,"Delta":106102173},{"NoteNumber":71,"Velocity":46,"Duration":96661,"SoundDuration":96661,"Delta":106369529},{"NoteNumber":54,"Velocity":48,"Duration":691498,"SoundDuration":691498,"Delta":106369529},{"NoteNumber":75,"Velocity":38,"Duration":96662,"SoundDuration":96662,"Delta":106466191},{"NoteNumber":71,"Velocity":46,"Duration":96661,"SoundDuration":96661,"Delta":106562853},{"NoteNumber":75,"Velocity":38,"Duration":100549,"SoundDuration":100549,"Delta":106659515},{"NoteNumber":83,"Velocity":58,"Duration":150481,"SoundDuration":150481,"Delta":106760065},{"NoteNumber":59,"Velocity":26,"Duration":150481,"SoundDuration":150481,"Delta":106760065},{"NoteNumber":63,"Velocity":31,"Duration":150481,"SoundDuration":150481,"Delta":106760065},{"NoteNumber":85,"Velocity":59,"Duration":53763,"SoundDuration":53763,"Delta":107061028},{"NoteNumber":73,"Velocity":50,"Duration":53763,"SoundDuration":53763,"Delta":107061028},{"NoteNumber":76,"Velocity":50,"Duration":53763,"SoundDuration":53763,"Delta":107061028},{"NoteNumber":64,"Velocity":40,"Duration":53763,"SoundDuration":53763,"Delta":107061028},{"NoteNumber":61,"Velocity":33,"Duration":53763,"SoundDuration":53763,"Delta":107061028},{"NoteNumber":54,"Velocity":33,"Duration":53763,"SoundDuration":53763,"Delta":107061028},{"NoteNumber":76,"Velocity":46,"Duration":54744,"SoundDuration":54744,"Delta":107276082},{"NoteNumber":73,"Velocity":46,"Duration":54744,"SoundDuration":54744,"Delta":107276082},{"NoteNumber":85,"Velocity":55,"Duration":54744,"SoundDuration":54744,"Delta":107276082},{"NoteNumber":64,"Velocity":37,"Duration":54744,"SoundDuration":54744,"Delta":107276082},{"NoteNumber":61,"Velocity":31,"Duration":54744,"SoundDuration":54744,"Delta":107276082},{"NoteNumber":54,"Velocity":31,"Duration":54744,"SoundDuration":54744,"Delta":107276082},{"NoteNumber":75,"Velocity":46,"Duration":59438,"SoundDuration":59438,"Delta":107495060},{"NoteNumber":78,"Velocity":46,"Duration":59438,"SoundDuration":59438,"Delta":107495060},{"NoteNumber":87,"Velocity":55,"Duration":59438,"SoundDuration":59438,"Delta":107495060},{"NoteNumber":58,"Velocity":31,"Duration":59438,"SoundDuration":59438,"Delta":107495060},{"NoteNumber":54,"Velocity":31,"Duration":59438,"SoundDuration":59438,"Delta":107495060},{"NoteNumber":66,"Velocity":37,"Duration":59438,"SoundDuration":59438,"Delta":107495060},{"NoteNumber":70,"Velocity":52,"Duration":96661,"SoundDuration":96661,"Delta":107732815},{"NoteNumber":55,"Velocity":69,"Duration":697661,"SoundDuration":697661,"Delta":107732815},{"NoteNumber":75,"Velocity":43,"Duration":96662,"SoundDuration":96662,"Delta":107829477},{"NoteNumber":70,"Velocity":52,"Duration":96661,"SoundDuration":96661,"Delta":107926139},{"NoteNumber":75,"Velocity":43,"Duration":100549,"SoundDuration":100549,"Delta":108022801},{"NoteNumber":82,"Velocity":66,"Duration":230344,"SoundDuration":230344,"Delta":108123351},{"NoteNumber":63,"Velocity":35,"Duration":230344,"SoundDuration":230344,"Delta":108123351},{"NoteNumber":58,"Velocity":29,"Duration":230344,"SoundDuration":230344,"Delta":108123351},{"NoteNumber":71,"Velocity":52,"Duration":96661,"SoundDuration":96661,"Delta":108430476},{"NoteNumber":56,"Velocity":68,"Duration":691498,"SoundDuration":691498,"Delta":108430476},{"NoteNumber":75,"Velocity":43,"Duration":96662,"SoundDuration":96662,"Delta":108527138},{"NoteNumber":71,"Velocity":52,"Duration":96661,"SoundDuration":96661,"Delta":108623800},{"NoteNumber":75,"Velocity":43,"Duration":100549,"SoundDuration":100549,"Delta":108720462},{"NoteNumber":83,"Velocity":66,"Duration":225722,"SoundDuration":225722,"Delta":108821012},{"NoteNumber":59,"Velocity":29,"Duration":225722,"SoundDuration":225722,"Delta":108821012},{"NoteNumber":63,"Velocity":35,"Duration":225722,"SoundDuration":225722,"Delta":108821012},{"NoteNumber":73,"Velocity":52,"Duration":96661,"SoundDuration":96661,"Delta":109121975},{"NoteNumber":49,"Velocity":65,"Duration":390535,"SoundDuration":390535,"Delta":109121975},{"NoteNumber":76,"Velocity":43,"Duration":96662,"SoundDuration":96662,"Delta":109218637},{"NoteNumber":73,"Velocity":52,"Duration":96661,"SoundDuration":96661,"Delta":109315299},{"NoteNumber":76,"Velocity":43,"Duration":100549,"SoundDuration":100549,"Delta":109411961},{"NoteNumber":85,"Velocity":66,"Duration":225722,"SoundDuration":225722,"Delta":109512511},{"NoteNumber":61,"Velocity":29,"Duration":225722,"SoundDuration":225722,"Delta":109512511},{"NoteNumber":64,"Velocity":35,"Duration":225722,"SoundDuration":225722,"Delta":109512511},{"NoteNumber":75,"Velocity":57,"Duration":53956,"SoundDuration":53956,"Delta":109813474},{"NoteNumber":83,"Velocity":67,"Duration":53956,"SoundDuration":53956,"Delta":109813474},{"NoteNumber":80,"Velocity":57,"Duration":53956,"SoundDuration":53956,"Delta":109813474},{"NoteNumber":71,"Velocity":57,"Duration":53956,"SoundDuration":53956,"Delta":109813474},{"NoteNumber":63,"Velocity":46,"Duration":53956,"SoundDuration":53956,"Delta":109813474},{"NoteNumber":59,"Velocity":37,"Duration":53956,"SoundDuration":53956,"Delta":109813474},{"NoteNumber":51,"Velocity":37,"Duration":53956,"SoundDuration":53956,"Delta":109813474},{"NoteNumber":75,"Velocity":52,"Duration":54744,"SoundDuration":54744,"Delta":110029301},{"NoteNumber":83,"Velocity":63,"Duration":54744,"SoundDuration":54744,"Delta":110029301},{"NoteNumber":71,"Velocity":52,"Duration":54744,"SoundDuration":54744,"Delta":110029301},{"NoteNumber":80,"Velocity":52,"Duration":54744,"SoundDuration":54744,"Delta":110029301},{"NoteNumber":63,"Velocity":42,"Duration":54744,"SoundDuration":54744,"Delta":110029301},{"NoteNumber":51,"Velocity":35,"Duration":54744,"SoundDuration":54744,"Delta":110029301},{"NoteNumber":59,"Velocity":35,"Duration":54744,"SoundDuration":54744,"Delta":110029301},{"NoteNumber":70,"Velocity":52,"Duration":59438,"SoundDuration":59438,"Delta":110248279},{"NoteNumber":82,"Velocity":63,"Duration":59438,"SoundDuration":59438,"Delta":110248279},{"NoteNumber":75,"Velocity":52,"Duration":59438,"SoundDuration":59438,"Delta":110248279},{"NoteNumber":79,"Velocity":52,"Duration":59438,"SoundDuration":59438,"Delta":110248279},{"NoteNumber":51,"Velocity":35,"Duration":59438,"SoundDuration":59438,"Delta":110248279},{"NoteNumber":58,"Velocity":35,"Duration":59438,"SoundDuration":59438,"Delta":110248279},{"NoteNumber":63,"Velocity":42,"Duration":59438,"SoundDuration":59438,"Delta":110248279},{"NoteNumber":70,"Velocity":57,"Duration":96661,"SoundDuration":96661,"Delta":110486035},{"NoteNumber":55,"Velocity":69,"Duration":670360,"SoundDuration":670360,"Delta":110486035},{"NoteNumber":75,"Velocity":47,"Duration":96662,"SoundDuration":96662,"Delta":110582697},{"NoteNumber":70,"Velocity":57,"Duration":96661,"SoundDuration":96661,"Delta":110679359},{"NoteNumber":75,"Velocity":47,"Duration":100549,"SoundDuration":100549,"Delta":110776021},{"NoteNumber":82,"Velocity":72,"Duration":209868,"SoundDuration":209868,"Delta":110876571},{"NoteNumber":58,"Velocity":29,"Duration":209868,"SoundDuration":209868,"Delta":110876571},{"NoteNumber":63,"Velocity":35,"Duration":209868,"SoundDuration":209868,"Delta":110876571},{"NoteNumber":71,"Velocity":57,"Duration":96661,"SoundDuration":96661,"Delta":111156395},{"NoteNumber":56,"Velocity":68,"Duration":674331,"SoundDuration":674331,"Delta":111156395},{"NoteNumber":75,"Velocity":47,"Duration":96662,"SoundDuration":96662,"Delta":111253057},{"NoteNumber":71,"Velocity":57,"Duration":96661,"SoundDuration":96661,"Delta":111349719},{"NoteNumber":75,"Velocity":47,"Duration":100549,"SoundDuration":100549,"Delta":111446381},{"NoteNumber":83,"Velocity":72,"Duration":212846,"SoundDuration":212846,"Delta":111546931},{"NoteNumber":59,"Velocity":29,"Duration":212846,"SoundDuration":212846,"Delta":111546931},{"NoteNumber":63,"Velocity":35,"Duration":212846,"SoundDuration":212846,"Delta":111546931},{"NoteNumber":73,"Velocity":57,"Duration":96661,"SoundDuration":96661,"Delta":111830726},{"NoteNumber":49,"Velocity":65,"Duration":390535,"SoundDuration":390535,"Delta":111830726},{"NoteNumber":76,"Velocity":47,"Duration":96662,"SoundDuration":96662,"Delta":111927388},{"NoteNumber":73,"Velocity":57,"Duration":96661,"SoundDuration":96661,"Delta":112024050},{"NoteNumber":76,"Velocity":47,"Duration":100549,"SoundDuration":100549,"Delta":112120712},{"NoteNumber":85,"Velocity":72,"Duration":225722,"SoundDuration":225722,"Delta":112221262},{"NoteNumber":64,"Velocity":35,"Duration":225722,"SoundDuration":225722,"Delta":112221262},{"NoteNumber":61,"Velocity":29,"Duration":225722,"SoundDuration":225722,"Delta":112221262},{"NoteNumber":83,"Velocity":67,"Duration":53763,"SoundDuration":53763,"Delta":112522225},{"NoteNumber":80,"Velocity":57,"Duration":53763,"SoundDuration":53763,"Delta":112522225},{"NoteNumber":71,"Velocity":57,"Duration":53763,"SoundDuration":53763,"Delta":112522225},{"NoteNumber":75,"Velocity":57,"Duration":53763,"SoundDuration":53763,"Delta":112522225},{"NoteNumber":51,"Velocity":37,"Duration":53763,"SoundDuration":53763,"Delta":112522225},{"NoteNumber":63,"Velocity":46,"Duration":53763,"SoundDuration":53763,"Delta":112522225},{"NoteNumber":59,"Velocity":37,"Duration":53763,"SoundDuration":53763,"Delta":112522225},{"NoteNumber":83,"Velocity":63,"Duration":54945,"SoundDuration":54945,"Delta":112737279},{"NoteNumber":71,"Velocity":52,"Duration":54945,"SoundDuration":54945,"Delta":112737279},{"NoteNumber":80,"Velocity":52,"Duration":54945,"SoundDuration":54945,"Delta":112737279},{"NoteNumber":75,"Velocity":52,"Duration":54945,"SoundDuration":54945,"Delta":112737279},{"NoteNumber":63,"Velocity":42,"Duration":54945,"SoundDuration":54945,"Delta":112737279},{"NoteNumber":51,"Velocity":35,"Duration":54945,"SoundDuration":54945,"Delta":112737279},{"NoteNumber":59,"Velocity":35,"Duration":54945,"SoundDuration":54945,"Delta":112737279},{"NoteNumber":79,"Velocity":52,"Duration":59438,"SoundDuration":59438,"Delta":112957059},{"NoteNumber":70,"Velocity":52,"Duration":59438,"SoundDuration":59438,"Delta":112957059},{"NoteNumber":82,"Velocity":63,"Duration":59438,"SoundDuration":59438,"Delta":112957059},{"NoteNumber":75,"Velocity":52,"Duration":59438,"SoundDuration":59438,"Delta":112957059},{"NoteNumber":51,"Velocity":35,"Duration":59438,"SoundDuration":59438,"Delta":112957059},{"NoteNumber":63,"Velocity":42,"Duration":59438,"SoundDuration":59438,"Delta":112957059},{"NoteNumber":58,"Velocity":35,"Duration":59438,"SoundDuration":59438,"Delta":112957059},{"NoteNumber":73,"Velocity":62,"Duration":96661,"SoundDuration":96661,"Delta":113194815},{"NoteNumber":51,"Velocity":75,"Duration":390535,"SoundDuration":390535,"Delta":113194815},{"NoteNumber":82,"Velocity":51,"Duration":96662,"SoundDuration":96662,"Delta":113291477},{"NoteNumber":73,"Velocity":62,"Duration":96661,"SoundDuration":96661,"Delta":113388139},{"NoteNumber":82,"Velocity":51,"Duration":100549,"SoundDuration":100549,"Delta":113484801},{"NoteNumber":85,"Velocity":79,"Duration":230344,"SoundDuration":230344,"Delta":113585350},{"NoteNumber":58,"Velocity":31,"Duration":230344,"SoundDuration":230344,"Delta":113585350},{"NoteNumber":61,"Velocity":38,"Duration":230344,"SoundDuration":230344,"Delta":113585350},{"NoteNumber":75,"Velocity":62,"Duration":96661,"SoundDuration":96661,"Delta":113892476},{"NoteNumber":51,"Velocity":74,"Duration":390535,"SoundDuration":390535,"Delta":113892476},{"NoteNumber":83,"Velocity":51,"Duration":96662,"SoundDuration":96662,"Delta":113989138},{"NoteNumber":75,"Velocity":62,"Duration":96661,"SoundDuration":96661,"Delta":114085800},{"NoteNumber":83,"Velocity":51,"Duration":100549,"SoundDuration":100549,"Delta":114182462},{"NoteNumber":87,"Velocity":79,"Duration":225722,"SoundDuration":225722,"Delta":114283012},{"NoteNumber":63,"Velocity":38,"Duration":225722,"SoundDuration":225722,"Delta":114283012},{"NoteNumber":59,"Velocity":31,"Duration":225722,"SoundDuration":225722,"Delta":114283012},{"NoteNumber":76,"Velocity":62,"Duration":96661,"SoundDuration":96661,"Delta":114583975},{"NoteNumber":51,"Velocity":71,"Duration":390535,"SoundDuration":390535,"Delta":114583975},{"NoteNumber":85,"Velocity":51,"Duration":96662,"SoundDuration":96662,"Delta":114680637},{"NoteNumber":76,"Velocity":62,"Duration":96661,"SoundDuration":96661,"Delta":114777299},{"NoteNumber":85,"Velocity":51,"Duration":100549,"SoundDuration":100549,"Delta":114873961},{"NoteNumber":88,"Velocity":79,"Duration":225722,"SoundDuration":225722,"Delta":114974510},{"NoteNumber":64,"Velocity":38,"Duration":225722,"SoundDuration":225722,"Delta":114974510},{"NoteNumber":61,"Velocity":31,"Duration":225722,"SoundDuration":225722,"Delta":114974510},{"NoteNumber":85,"Velocity":73,"Duration":54151,"SoundDuration":54151,"Delta":115275473},{"NoteNumber":82,"Velocity":62,"Duration":54151,"SoundDuration":54151,"Delta":115275473},{"NoteNumber":73,"Velocity":62,"Duration":54151,"SoundDuration":54151,"Delta":115275473},{"NoteNumber":51,"Velocity":40,"Duration":54151,"SoundDuration":54151,"Delta":115275473},{"NoteNumber":58,"Velocity":40,"Duration":54151,"SoundDuration":54151,"Delta":115275473},{"NoteNumber":61,"Velocity":50,"Duration":54151,"SoundDuration":54151,"Delta":115275473},{"NoteNumber":82,"Velocity":57,"Duration":55147,"SoundDuration":55147,"Delta":115492080},{"NoteNumber":73,"Velocity":57,"Duration":55147,"SoundDuration":55147,"Delta":115492080},{"NoteNumber":85,"Velocity":69,"Duration":55147,"SoundDuration":55147,"Delta":115492080},{"NoteNumber":58,"Velocity":38,"Duration":55147,"SoundDuration":55147,"Delta":115492080},{"NoteNumber":51,"Velocity":38,"Duration":55147,"SoundDuration":55147,"Delta":115492080},{"NoteNumber":61,"Velocity":46,"Duration":55147,"SoundDuration":55147,"Delta":115492080},{"NoteNumber":70,"Velocity":57,"Duration":59438,"SoundDuration":59438,"Delta":115712668},{"NoteNumber":82,"Velocity":69,"Duration":59438,"SoundDuration":59438,"Delta":115712668},{"NoteNumber":79,"Velocity":57,"Duration":59438,"SoundDuration":59438,"Delta":115712668},{"NoteNumber":58,"Velocity":46,"Duration":59438,"SoundDuration":59438,"Delta":115712668},{"NoteNumber":55,"Velocity":38,"Duration":59438,"SoundDuration":59438,"Delta":115712668},{"NoteNumber":51,"Velocity":38,"Duration":59438,"SoundDuration":59438,"Delta":115712668},{"NoteNumber":76,"Velocity":62,"Duration":96661,"SoundDuration":96661,"Delta":115950423},{"NoteNumber":51,"Velocity":71,"Duration":390535,"SoundDuration":390535,"Delta":115950423},{"NoteNumber":85,"Velocity":51,"Duration":96662,"SoundDuration":96662,"Delta":116047085},{"NoteNumber":76,"Velocity":62,"Duration":96661,"SoundDuration":96661,"Delta":116143747},{"NoteNumber":85,"Velocity":51,"Duration":100549,"SoundDuration":100549,"Delta":116240409},{"NoteNumber":88,"Velocity":79,"Duration":202320,"SoundDuration":202320,"Delta":116340959},{"NoteNumber":61,"Velocity":31,"Duration":202320,"SoundDuration":202320,"Delta":116340959},{"NoteNumber":64,"Velocity":38,"Duration":202320,"SoundDuration":202320,"Delta":116340959},{"NoteNumber":73,"Velocity":62,"Duration":54151,"SoundDuration":54151,"Delta":116610719},{"NoteNumber":82,"Velocity":62,"Duration":54151,"SoundDuration":54151,"Delta":116610719},{"NoteNumber":85,"Velocity":73,"Duration":54151,"SoundDuration":54151,"Delta":116610719},{"NoteNumber":58,"Velocity":40,"Duration":54151,"SoundDuration":54151,"Delta":116610719},{"NoteNumber":51,"Velocity":40,"Duration":54151,"SoundDuration":54151,"Delta":116610719},{"NoteNumber":61,"Velocity":50,"Duration":54151,"SoundDuration":54151,"Delta":116610719},{"NoteNumber":85,"Velocity":69,"Duration":54744,"SoundDuration":54744,"Delta":116827326},{"NoteNumber":73,"Velocity":57,"Duration":54744,"SoundDuration":54744,"Delta":116827326},{"NoteNumber":82,"Velocity":57,"Duration":54744,"SoundDuration":54744,"Delta":116827326},{"NoteNumber":51,"Velocity":38,"Duration":54744,"SoundDuration":54744,"Delta":116827326},{"NoteNumber":61,"Velocity":46,"Duration":54744,"SoundDuration":54744,"Delta":116827326},{"NoteNumber":58,"Velocity":38,"Duration":54744,"SoundDuration":54744,"Delta":116827326},{"NoteNumber":70,"Velocity":57,"Duration":62132,"SoundDuration":62132,"Delta":117046304},{"NoteNumber":79,"Velocity":57,"Duration":62132,"SoundDuration":62132,"Delta":117046304},{"NoteNumber":82,"Velocity":69,"Duration":62132,"SoundDuration":62132,"Delta":117046304},{"NoteNumber":51,"Velocity":38,"Duration":62132,"SoundDuration":62132,"Delta":117046304},{"NoteNumber":55,"Velocity":38,"Duration":62132,"SoundDuration":62132,"Delta":117046304},{"NoteNumber":58,"Velocity":46,"Duration":62132,"SoundDuration":62132,"Delta":117046304},{"NoteNumber":76,"Velocity":62,"Duration":95736,"SoundDuration":95736,"Delta":117294833},{"NoteNumber":51,"Velocity":71,"Duration":387759,"SoundDuration":387759,"Delta":117294833},{"NoteNumber":85,"Velocity":51,"Duration":95736,"SoundDuration":95736,"Delta":117390570},{"NoteNumber":76,"Velocity":62,"Duration":95736,"SoundDuration":95736,"Delta":117486306},{"NoteNumber":85,"Velocity":51,"Duration":100549,"SoundDuration":100549,"Delta":117582043},{"NoteNumber":88,"Velocity":79,"Duration":196198,"SoundDuration":196198,"Delta":117682592},{"NoteNumber":64,"Velocity":38,"Duration":196198,"SoundDuration":196198,"Delta":117682592},{"NoteNumber":61,"Velocity":31,"Duration":196198,"SoundDuration":196198,"Delta":117682592},{"NoteNumber":79,"Velocity":68,"Duration":95129,"SoundDuration":95129,"Delta":117944190},{"NoteNumber":51,"Velocity":68,"Duration":385938,"SoundDuration":385938,"Delta":117944190},{"NoteNumber":88,"Velocity":56,"Duration":95129,"SoundDuration":95129,"Delta":118039319},{"NoteNumber":79,"Velocity":68,"Duration":95129,"SoundDuration":95129,"Delta":118134449},{"NoteNumber":88,"Velocity":57,"Duration":100549,"SoundDuration":100549,"Delta":118229578},{"NoteNumber":91,"Velocity":89,"Duration":191196,"SoundDuration":191196,"Delta":118330128},{"NoteNumber":61,"Velocity":35,"Duration":191196,"SoundDuration":191196,"Delta":118330128},{"NoteNumber":64,"Velocity":42,"Duration":191196,"SoundDuration":191196,"Delta":118330128},{"NoteNumber":82,"Velocity":71,"Duration":94233,"SoundDuration":94233,"Delta":118585057},{"NoteNumber":51,"Velocity":72,"Duration":383248,"SoundDuration":383248,"Delta":118585057},{"NoteNumber":91,"Velocity":58,"Duration":94233,"SoundDuration":94233,"Delta":118679290},{"NoteNumber":82,"Velocity":71,"Duration":94232,"SoundDuration":94232,"Delta":118773523},{"NoteNumber":91,"Velocity":59,"Duration":100549,"SoundDuration":100549,"Delta":118867756},{"NoteNumber":94,"Velocity":93,"Duration":186443,"SoundDuration":186443,"Delta":118968305},{"NoteNumber":61,"Velocity":36,"Duration":186443,"SoundDuration":186443,"Delta":118968305},{"NoteNumber":64,"Velocity":44,"Duration":186443,"SoundDuration":186443,"Delta":118968305},{"NoteNumber":85,"Velocity":74,"Duration":93937,"SoundDuration":93937,"Delta":119216897},{"NoteNumber":51,"Velocity":75,"Duration":382363,"SoundDuration":382363,"Delta":119216897},{"NoteNumber":94,"Velocity":61,"Duration":93938,"SoundDuration":93938,"Delta":119310835},{"NoteNumber":85,"Velocity":75,"Duration":93937,"SoundDuration":93937,"Delta":119404773},{"NoteNumber":94,"Velocity":62,"Duration":100549,"SoundDuration":100549,"Delta":119498711},{"NoteNumber":97,"Velocity":97,"Duration":201468,"SoundDuration":201468,"Delta":119599261},{"NoteNumber":64,"Velocity":46,"Duration":201468,"SoundDuration":201468,"Delta":119599261},{"NoteNumber":61,"Velocity":38,"Duration":201468,"SoundDuration":201468,"Delta":119599261},{"NoteNumber":88,"Velocity":77,"Duration":94936,"SoundDuration":94936,"Delta":119867885},{"NoteNumber":51,"Velocity":76,"Duration":390444,"SoundDuration":390444,"Delta":119867885},{"NoteNumber":97,"Velocity":63,"Duration":94936,"SoundDuration":94936,"Delta":119962822},{"NoteNumber":88,"Velocity":78,"Duration":94936,"SoundDuration":94936,"Delta":120057759},{"NoteNumber":97,"Velocity":64,"Duration":105633,"SoundDuration":105633,"Delta":120152695},{"NoteNumber":100,"Velocity":101,"Duration":225722,"SoundDuration":225722,"Delta":120258329},{"NoteNumber":61,"Velocity":39,"Duration":225722,"SoundDuration":225722,"Delta":120258329},{"NoteNumber":64,"Velocity":48,"Duration":225722,"SoundDuration":225722,"Delta":120258329},{"NoteNumber":76,"Velocity":42,"Duration":96661,"SoundDuration":96661,"Delta":121767346},{"NoteNumber":52,"Velocity":44,"Duration":390535,"SoundDuration":390535,"Delta":121767346},{"NoteNumber":85,"Velocity":35,"Duration":96662,"SoundDuration":96662,"Delta":121864008},{"NoteNumber":76,"Velocity":42,"Duration":96661,"SoundDuration":96661,"Delta":121960670},{"NoteNumber":85,"Velocity":35,"Duration":100549,"SoundDuration":100549,"Delta":122057332},{"NoteNumber":88,"Velocity":53,"Duration":153562,"SoundDuration":153562,"Delta":122157881},{"NoteNumber":61,"Velocity":24,"Duration":153562,"SoundDuration":153562,"Delta":122157881},{"NoteNumber":64,"Velocity":29,"Duration":153562,"SoundDuration":153562,"Delta":122157881},{"NoteNumber":76,"Velocity":42,"Duration":96661,"SoundDuration":96661,"Delta":122465007},{"NoteNumber":52,"Velocity":44,"Duration":390535,"SoundDuration":390535,"Delta":122465007},{"NoteNumber":85,"Velocity":35,"Duration":96662,"SoundDuration":96662,"Delta":122561669},{"NoteNumber":76,"Velocity":42,"Duration":96661,"SoundDuration":96661,"Delta":122658331},{"NoteNumber":85,"Velocity":35,"Duration":100549,"SoundDuration":100549,"Delta":122754993},{"NoteNumber":88,"Velocity":53,"Duration":150481,"SoundDuration":150481,"Delta":122855543},{"NoteNumber":64,"Velocity":29,"Duration":150481,"SoundDuration":150481,"Delta":122855543},{"NoteNumber":61,"Velocity":24,"Duration":150481,"SoundDuration":150481,"Delta":122855543},{"NoteNumber":76,"Velocity":42,"Duration":96661,"SoundDuration":96661,"Delta":123156506},{"NoteNumber":52,"Velocity":44,"Duration":390535,"SoundDuration":390535,"Delta":123156506},{"NoteNumber":85,"Velocity":35,"Duration":96662,"SoundDuration":96662,"Delta":123253168},{"NoteNumber":76,"Velocity":42,"Duration":96661,"SoundDuration":96661,"Delta":123349830},{"NoteNumber":85,"Velocity":35,"Duration":100549,"SoundDuration":100549,"Delta":123446492},{"NoteNumber":88,"Velocity":53,"Duration":150481,"SoundDuration":150481,"Delta":123547041},{"NoteNumber":64,"Velocity":29,"Duration":150481,"SoundDuration":150481,"Delta":123547041},{"NoteNumber":61,"Velocity":24,"Duration":150481,"SoundDuration":150481,"Delta":123547041},{"NoteNumber":83,"Velocity":39,"Duration":53571,"SoundDuration":53571,"Delta":123848004},{"NoteNumber":74,"Velocity":39,"Duration":53571,"SoundDuration":53571,"Delta":123848004},{"NoteNumber":86,"Velocity":46,"Duration":53571,"SoundDuration":53571,"Delta":123848004},{"NoteNumber":52,"Velocity":26,"Duration":53571,"SoundDuration":53571,"Delta":123848004},{"NoteNumber":59,"Velocity":26,"Duration":53571,"SoundDuration":53571,"Delta":123848004},{"NoteNumber":62,"Velocity":31,"Duration":53571,"SoundDuration":53571,"Delta":123848004},{"NoteNumber":83,"Velocity":36,"Duration":54545,"SoundDuration":54545,"Delta":124062290},{"NoteNumber":86,"Velocity":43,"Duration":54545,"SoundDuration":54545,"Delta":124062290},{"NoteNumber":74,"Velocity":36,"Duration":54545,"SoundDuration":54545,"Delta":124062290},{"NoteNumber":62,"Velocity":29,"Duration":54545,"SoundDuration":54545,"Delta":124062290},{"NoteNumber":52,"Velocity":24,"Duration":54545,"SoundDuration":54545,"Delta":124062290},{"NoteNumber":59,"Velocity":24,"Duration":54545,"SoundDuration":54545,"Delta":124062290},{"NoteNumber":85,"Velocity":43,"Duration":59438,"SoundDuration":59438,"Delta":124280472},{"NoteNumber":73,"Velocity":36,"Duration":59438,"SoundDuration":59438,"Delta":124280472},{"NoteNumber":81,"Velocity":36,"Duration":59438,"SoundDuration":59438,"Delta":124280472},{"NoteNumber":57,"Velocity":24,"Duration":59438,"SoundDuration":59438,"Delta":124280472},{"NoteNumber":61,"Velocity":29,"Duration":59438,"SoundDuration":59438,"Delta":124280472},{"NoteNumber":52,"Velocity":24,"Duration":59438,"SoundDuration":59438,"Delta":124280472},{"NoteNumber":74,"Velocity":42,"Duration":96661,"SoundDuration":96661,"Delta":124518227},{"NoteNumber":52,"Velocity":44,"Duration":390535,"SoundDuration":390535,"Delta":124518227},{"NoteNumber":83,"Velocity":35,"Duration":96662,"SoundDuration":96662,"Delta":124614889},{"NoteNumber":74,"Velocity":42,"Duration":96661,"SoundDuration":96661,"Delta":124711551},{"NoteNumber":83,"Velocity":35,"Duration":100549,"SoundDuration":100549,"Delta":124808213},{"NoteNumber":86,"Velocity":53,"Duration":153562,"SoundDuration":153562,"Delta":124908763},{"NoteNumber":62,"Velocity":29,"Duration":153562,"SoundDuration":153562,"Delta":124908763},{"NoteNumber":59,"Velocity":24,"Duration":153562,"SoundDuration":153562,"Delta":124908763},{"NoteNumber":74,"Velocity":42,"Duration":96661,"SoundDuration":96661,"Delta":125215889},{"NoteNumber":52,"Velocity":44,"Duration":390535,"SoundDuration":390535,"Delta":125215889},{"NoteNumber":83,"Velocity":35,"Duration":96662,"SoundDuration":96662,"Delta":125312551},{"NoteNumber":74,"Velocity":42,"Duration":96661,"SoundDuration":96661,"Delta":125409213},{"NoteNumber":83,"Velocity":35,"Duration":100549,"SoundDuration":100549,"Delta":125505875},{"NoteNumber":86,"Velocity":53,"Duration":139262,"SoundDuration":139262,"Delta":125606424},{"NoteNumber":59,"Velocity":24,"Duration":139262,"SoundDuration":139262,"Delta":125606424},{"NoteNumber":62,"Velocity":29,"Duration":139262,"SoundDuration":139262,"Delta":125606424},{"NoteNumber":74,"Velocity":42,"Duration":96661,"SoundDuration":96661,"Delta":125884950},{"NoteNumber":52,"Velocity":44,"Duration":390535,"SoundDuration":390535,"Delta":125884950},{"NoteNumber":83,"Velocity":35,"Duration":96662,"SoundDuration":96662,"Delta":125981612},{"NoteNumber":74,"Velocity":42,"Duration":96661,"SoundDuration":96661,"Delta":126078274},{"NoteNumber":83,"Velocity":35,"Duration":100549,"SoundDuration":100549,"Delta":126174936},{"NoteNumber":86,"Velocity":53,"Duration":151194,"SoundDuration":151194,"Delta":126275486},{"NoteNumber":62,"Velocity":29,"Duration":151194,"SoundDuration":151194,"Delta":126275486},{"NoteNumber":59,"Velocity":24,"Duration":151194,"SoundDuration":151194,"Delta":126275486},{"NoteNumber":81,"Velocity":39,"Duration":53571,"SoundDuration":53571,"Delta":126577875},{"NoteNumber":85,"Velocity":46,"Duration":53571,"SoundDuration":53571,"Delta":126577875},{"NoteNumber":73,"Velocity":39,"Duration":53571,"SoundDuration":53571,"Delta":126577875},{"NoteNumber":52,"Velocity":26,"Duration":53571,"SoundDuration":53571,"Delta":126577875},{"NoteNumber":57,"Velocity":26,"Duration":53571,"SoundDuration":53571,"Delta":126577875},{"NoteNumber":61,"Velocity":31,"Duration":53571,"SoundDuration":53571,"Delta":126577875},{"NoteNumber":73,"Velocity":36,"Duration":54545,"SoundDuration":54545,"Delta":126792160},{"NoteNumber":85,"Velocity":43,"Duration":54545,"SoundDuration":54545,"Delta":126792160},{"NoteNumber":81,"Velocity":36,"Duration":54545,"SoundDuration":54545,"Delta":126792160},{"NoteNumber":52,"Velocity":24,"Duration":54545,"SoundDuration":54545,"Delta":126792160},{"NoteNumber":57,"Velocity":24,"Duration":54545,"SoundDuration":54545,"Delta":126792160},{"NoteNumber":61,"Velocity":29,"Duration":54545,"SoundDuration":54545,"Delta":126792160},{"NoteNumber":80,"Velocity":36,"Duration":59438,"SoundDuration":59438,"Delta":127010342},{"NoteNumber":83,"Velocity":43,"Duration":59438,"SoundDuration":59438,"Delta":127010342},{"NoteNumber":71,"Velocity":36,"Duration":59438,"SoundDuration":59438,"Delta":127010342},{"NoteNumber":52,"Velocity":24,"Duration":59438,"SoundDuration":59438,"Delta":127010342},{"NoteNumber":59,"Velocity":29,"Duration":59438,"SoundDuration":59438,"Delta":127010342},{"NoteNumber":56,"Velocity":24,"Duration":59438,"SoundDuration":59438,"Delta":127010342},{"NoteNumber":76,"Velocity":42,"Duration":96661,"SoundDuration":96661,"Delta":127248098},{"NoteNumber":52,"Velocity":44,"Duration":390535,"SoundDuration":390535,"Delta":127248098},{"NoteNumber":85,"Velocity":35,"Duration":96662,"SoundDuration":96662,"Delta":127344760},{"NoteNumber":76,"Velocity":42,"Duration":96661,"SoundDuration":96661,"Delta":127441422},{"NoteNumber":85,"Velocity":35,"Duration":100549,"SoundDuration":100549,"Delta":127538084},{"NoteNumber":88,"Velocity":53,"Duration":153562,"SoundDuration":153562,"Delta":127638633},{"NoteNumber":61,"Velocity":24,"Duration":153562,"SoundDuration":153562,"Delta":127638633},{"NoteNumber":64,"Velocity":29,"Duration":153562,"SoundDuration":153562,"Delta":127638633},{"NoteNumber":76,"Velocity":42,"Duration":96662,"SoundDuration":96662,"Delta":127945759},{"NoteNumber":52,"Velocity":44,"Duration":390535,"SoundDuration":390535,"Delta":127945759},{"NoteNumber":85,"Velocity":35,"Duration":96661,"SoundDuration":96661,"Delta":128042421},{"NoteNumber":76,"Velocity":42,"Duration":96662,"SoundDuration":96662,"Delta":128139083},{"NoteNumber":85,"Velocity":35,"Duration":100549,"SoundDuration":100549,"Delta":128235745},{"NoteNumber":88,"Velocity":53,"Duration":150481,"SoundDuration":150481,"Delta":128336295},{"NoteNumber":61,"Velocity":24,"Duration":150481,"SoundDuration":150481,"Delta":128336295},{"NoteNumber":64,"Velocity":29,"Duration":150481,"SoundDuration":150481,"Delta":128336295},{"NoteNumber":76,"Velocity":42,"Duration":96662,"SoundDuration":96662,"Delta":128637258},{"NoteNumber":52,"Velocity":44,"Duration":390535,"SoundDuration":390535,"Delta":128637258},{"NoteNumber":85,"Velocity":35,"Duration":96661,"SoundDuration":96661,"Delta":128733920},{"NoteNumber":76,"Velocity":42,"Duration":96662,"SoundDuration":96662,"Delta":128830582},{"NoteNumber":85,"Velocity":35,"Duration":100549,"SoundDuration":100549,"Delta":128927244},{"NoteNumber":88,"Velocity":53,"Duration":150481,"SoundDuration":150481,"Delta":129027793},{"NoteNumber":64,"Velocity":29,"Duration":150481,"SoundDuration":150481,"Delta":129027793},{"NoteNumber":61,"Velocity":24,"Duration":150481,"SoundDuration":150481,"Delta":129027793},{"NoteNumber":92,"Velocity":60,"Duration":53571,"SoundDuration":53571,"Delta":129328756},{"NoteNumber":80,"Velocity":50,"Duration":53571,"SoundDuration":53571,"Delta":129328756},{"NoteNumber":88,"Velocity":50,"Duration":53571,"SoundDuration":53571,"Delta":129328756},{"NoteNumber":62,"Velocity":37,"Duration":53571,"SoundDuration":53571,"Delta":129328756},{"NoteNumber":59,"Velocity":30,"Duration":53571,"SoundDuration":53571,"Delta":129328756},{"NoteNumber":52,"Velocity":30,"Duration":53571,"SoundDuration":53571,"Delta":129328756},{"NoteNumber":80,"Velocity":46,"Duration":54545,"SoundDuration":54545,"Delta":129543042},{"NoteNumber":92,"Velocity":56,"Duration":54545,"SoundDuration":54545,"Delta":129543042},{"NoteNumber":88,"Velocity":46,"Duration":54545,"SoundDuration":54545,"Delta":129543042},{"NoteNumber":52,"Velocity":28,"Duration":54545,"SoundDuration":54545,"Delta":129543042},{"NoteNumber":62,"Velocity":34,"Duration":54545,"SoundDuration":54545,"Delta":129543042},{"NoteNumber":59,"Velocity":28,"Duration":54545,"SoundDuration":54545,"Delta":129543042},{"NoteNumber":81,"Velocity":46,"Duration":59438,"SoundDuration":59438,"Delta":129761224},{"NoteNumber":88,"Velocity":46,"Duration":59438,"SoundDuration":59438,"Delta":129761224},{"NoteNumber":93,"Velocity":56,"Duration":59438,"SoundDuration":59438,"Delta":129761224},{"NoteNumber":57,"Velocity":28,"Duration":59438,"SoundDuration":59438,"Delta":129761224},{"NoteNumber":52,"Velocity":28,"Duration":59438,"SoundDuration":59438,"Delta":129761224},{"NoteNumber":61,"Velocity":34,"Duration":59438,"SoundDuration":59438,"Delta":129761224},{"NoteNumber":74,"Velocity":42,"Duration":96662,"SoundDuration":96662,"Delta":129998979},{"NoteNumber":52,"Velocity":44,"Duration":390535,"SoundDuration":390535,"Delta":129998979},{"NoteNumber":83,"Velocity":35,"Duration":96661,"SoundDuration":96661,"Delta":130095641},{"NoteNumber":74,"Velocity":42,"Duration":96662,"SoundDuration":96662,"Delta":130192303},{"NoteNumber":83,"Velocity":35,"Duration":100549,"SoundDuration":100549,"Delta":130288965},{"NoteNumber":86,"Velocity":53,"Duration":153562,"SoundDuration":153562,"Delta":130389515},{"NoteNumber":62,"Velocity":29,"Duration":153562,"SoundDuration":153562,"Delta":130389515},{"NoteNumber":59,"Velocity":24,"Duration":153562,"SoundDuration":153562,"Delta":130389515},{"NoteNumber":74,"Velocity":42,"Duration":96662,"SoundDuration":96662,"Delta":130696641},{"NoteNumber":52,"Velocity":44,"Duration":390535,"SoundDuration":390535,"Delta":130696641},{"NoteNumber":83,"Velocity":35,"Duration":96661,"SoundDuration":96661,"Delta":130793303},{"NoteNumber":74,"Velocity":42,"Duration":96662,"SoundDuration":96662,"Delta":130889965},{"NoteNumber":83,"Velocity":35,"Duration":100549,"SoundDuration":100549,"Delta":130986627},{"NoteNumber":86,"Velocity":53,"Duration":150481,"SoundDuration":150481,"Delta":131087176},{"NoteNumber":62,"Velocity":29,"Duration":150481,"SoundDuration":150481,"Delta":131087176},{"NoteNumber":59,"Velocity":24,"Duration":150481,"SoundDuration":150481,"Delta":131087176},{"NoteNumber":74,"Velocity":42,"Duration":96662,"SoundDuration":96662,"Delta":131388139},{"NoteNumber":52,"Velocity":44,"Duration":390535,"SoundDuration":390535,"Delta":131388139},{"NoteNumber":83,"Velocity":35,"Duration":96661,"SoundDuration":96661,"Delta":131484801},{"NoteNumber":74,"Velocity":42,"Duration":96662,"SoundDuration":96662,"Delta":131581463},{"NoteNumber":83,"Velocity":35,"Duration":100549,"SoundDuration":100549,"Delta":131678125},{"NoteNumber":86,"Velocity":53,"Duration":150481,"SoundDuration":150481,"Delta":131778675},{"NoteNumber":59,"Velocity":24,"Duration":150481,"SoundDuration":150481,"Delta":131778675},{"NoteNumber":62,"Velocity":29,"Duration":150481,"SoundDuration":150481,"Delta":131778675},{"NoteNumber":81,"Velocity":50,"Duration":53571,"SoundDuration":53571,"Delta":132079638},{"NoteNumber":85,"Velocity":50,"Duration":53571,"SoundDuration":53571,"Delta":132079638},{"NoteNumber":93,"Velocity":60,"Duration":53571,"SoundDuration":53571,"Delta":132079638},{"NoteNumber":61,"Velocity":37,"Duration":53571,"SoundDuration":53571,"Delta":132079638},{"NoteNumber":52,"Velocity":30,"Duration":53571,"SoundDuration":53571,"Delta":132079638},{"NoteNumber":57,"Velocity":30,"Duration":53571,"SoundDuration":53571,"Delta":132079638},{"NoteNumber":81,"Velocity":46,"Duration":54545,"SoundDuration":54545,"Delta":132293924},{"NoteNumber":93,"Velocity":56,"Duration":54545,"SoundDuration":54545,"Delta":132293924},{"NoteNumber":85,"Velocity":46,"Duration":54545,"SoundDuration":54545,"Delta":132293924},{"NoteNumber":57,"Velocity":28,"Duration":54545,"SoundDuration":54545,"Delta":132293924},{"NoteNumber":61,"Velocity":34,"Duration":54545,"SoundDuration":54545,"Delta":132293924},{"NoteNumber":52,"Velocity":28,"Duration":54545,"SoundDuration":54545,"Delta":132293924},{"NoteNumber":83,"Velocity":46,"Duration":59438,"SoundDuration":59438,"Delta":132512106},{"NoteNumber":86,"Velocity":46,"Duration":59438,"SoundDuration":59438,"Delta":132512106},{"NoteNumber":95,"Velocity":56,"Duration":59438,"SoundDuration":59438,"Delta":132512106},{"NoteNumber":52,"Velocity":28,"Duration":59438,"SoundDuration":59438,"Delta":132512106},{"NoteNumber":59,"Velocity":34,"Duration":59438,"SoundDuration":59438,"Delta":132512106},{"NoteNumber":56,"Velocity":28,"Duration":59438,"SoundDuration":59438,"Delta":132512106},{"NoteNumber":73,"Velocity":46,"Duration":96662,"SoundDuration":96662,"Delta":132749861},{"NoteNumber":52,"Velocity":48,"Duration":390535,"SoundDuration":390535,"Delta":132749861},{"NoteNumber":81,"Velocity":38,"Duration":96661,"SoundDuration":96661,"Delta":132846523},{"NoteNumber":73,"Velocity":47,"Duration":96662,"SoundDuration":96662,"Delta":132943185},{"NoteNumber":81,"Velocity":39,"Duration":100549,"SoundDuration":100549,"Delta":133039847},{"NoteNumber":85,"Velocity":60,"Duration":128755,"SoundDuration":128755,"Delta":133140397},{"NoteNumber":61,"Velocity":33,"Duration":128755,"SoundDuration":128755,"Delta":133140397},{"NoteNumber":57,"Velocity":27,"Duration":128755,"SoundDuration":128755,"Delta":133140397},{"NoteNumber":71,"Velocity":49,"Duration":96662,"SoundDuration":96662,"Delta":133397907},{"NoteNumber":52,"Velocity":51,"Duration":390535,"SoundDuration":390535,"Delta":133397907},{"NoteNumber":80,"Velocity":41,"Duration":96661,"SoundDuration":96661,"Delta":133494569},{"NoteNumber":71,"Velocity":50,"Duration":96662,"SoundDuration":96662,"Delta":133591231},{"NoteNumber":80,"Velocity":42,"Duration":100549,"SoundDuration":100549,"Delta":133687893},{"NoteNumber":83,"Velocity":64,"Duration":128205,"SoundDuration":128205,"Delta":133788443},{"NoteNumber":59,"Velocity":35,"Duration":128205,"SoundDuration":128205,"Delta":133788443},{"NoteNumber":56,"Velocity":29,"Duration":128205,"SoundDuration":128205,"Delta":133788443},{"NoteNumber":73,"Velocity":52,"Duration":96662,"SoundDuration":96662,"Delta":134044854},{"NoteNumber":52,"Velocity":55,"Duration":390535,"SoundDuration":390535,"Delta":134044854},{"NoteNumber":81,"Velocity":44,"Duration":96661,"SoundDuration":96661,"Delta":134141516},{"NoteNumber":73,"Velocity":53,"Duration":96662,"SoundDuration":96662,"Delta":134238178},{"NoteNumber":81,"Velocity":44,"Duration":100549,"SoundDuration":100549,"Delta":134334840},{"NoteNumber":85,"Velocity":68,"Duration":125522,"SoundDuration":125522,"Delta":134435389},{"NoteNumber":61,"Velocity":37,"Duration":125522,"SoundDuration":125522,"Delta":134435389},{"NoteNumber":57,"Velocity":31,"Duration":125522,"SoundDuration":125522,"Delta":134435389},{"NoteNumber":74,"Velocity":55,"Duration":96662,"SoundDuration":96662,"Delta":134686435},{"NoteNumber":52,"Velocity":58,"Duration":390535,"SoundDuration":390535,"Delta":134686435},{"NoteNumber":83,"Velocity":46,"Duration":96661,"SoundDuration":96661,"Delta":134783097},{"NoteNumber":74,"Velocity":56,"Duration":96662,"SoundDuration":96662,"Delta":134879759},{"NoteNumber":83,"Velocity":47,"Duration":100549,"SoundDuration":100549,"Delta":134976421},{"NoteNumber":86,"Velocity":72,"Duration":150481,"SoundDuration":150481,"Delta":135076971},{"NoteNumber":62,"Velocity":39,"Duration":150481,"SoundDuration":150481,"Delta":135076971},{"NoteNumber":59,"Velocity":32,"Duration":150481,"SoundDuration":150481,"Delta":135076971},{"NoteNumber":84,"Velocity":74,"Duration":97911,"SoundDuration":97911,"Delta":135377934},{"NoteNumber":63,"Velocity":67,"Duration":176240,"SoundDuration":176240,"Delta":135377934},{"NoteNumber":60,"Velocity":56,"Duration":176240,"SoundDuration":176240,"Delta":135377934},{"NoteNumber":51,"Velocity":56,"Duration":176240,"SoundDuration":176240,"Delta":135377934},{"NoteNumber":56,"Velocity":56,"Duration":176240,"SoundDuration":176240,"Delta":135377934},{"NoteNumber":87,"Velocity":66,"Duration":97911,"SoundDuration":97911,"Delta":135475845},{"NoteNumber":84,"Velocity":71,"Duration":97911,"SoundDuration":97911,"Delta":135573757},{"NoteNumber":60,"Velocity":34,"Duration":176240,"SoundDuration":176240,"Delta":135573757},{"NoteNumber":63,"Velocity":41,"Duration":176240,"SoundDuration":176240,"Delta":135573757},{"NoteNumber":51,"Velocity":34,"Duration":176240,"SoundDuration":176240,"Delta":135573757},{"NoteNumber":56,"Velocity":34,"Duration":176240,"SoundDuration":176240,"Delta":135573757},{"NoteNumber":87,"Velocity":62,"Duration":97727,"SoundDuration":97727,"Delta":135671668},{"NoteNumber":92,"Velocity":74,"Duration":96385,"SoundDuration":96385,"Delta":135769396},{"NoteNumber":63,"Velocity":41,"Duration":2009737,"SoundDuration":2009737,"Delta":135769396},{"NoteNumber":51,"Velocity":34,"Duration":2009737,"SoundDuration":2009737,"Delta":135769396},{"NoteNumber":60,"Velocity":34,"Duration":781938,"SoundDuration":781938,"Delta":135769396},{"NoteNumber":56,"Velocity":34,"Duration":781938,"SoundDuration":781938,"Delta":135769396},{"NoteNumber":91,"Velocity":65,"Duration":96758,"SoundDuration":96758,"Delta":135865781},{"NoteNumber":89,"Velocity":73,"Duration":97134,"SoundDuration":97134,"Delta":135962540},{"NoteNumber":87,"Velocity":60,"Duration":97513,"SoundDuration":97513,"Delta":136059675},{"NoteNumber":85,"Velocity":66,"Duration":97943,"SoundDuration":97943,"Delta":136157188},{"NoteNumber":84,"Velocity":64,"Duration":98344,"SoundDuration":98344,"Delta":136255132},{"NoteNumber":82,"Velocity":62,"Duration":98733,"SoundDuration":98733,"Delta":136353477},{"NoteNumber":80,"Velocity":60,"Duration":99124,"SoundDuration":99124,"Delta":136452210},{"NoteNumber":79,"Velocity":58,"Duration":99568,"SoundDuration":99568,"Delta":136551334},{"NoteNumber":61,"Velocity":41,"Duration":1227798,"SoundDuration":1227798,"Delta":136551334},{"NoteNumber":58,"Velocity":34,"Duration":1227798,"SoundDuration":1227798,"Delta":136551334},{"NoteNumber":77,"Velocity":56,"Duration":99983,"SoundDuration":99983,"Delta":136650903},{"NoteNumber":75,"Velocity":54,"Duration":100385,"SoundDuration":100385,"Delta":136750886},{"NoteNumber":73,"Velocity":52,"Duration":100789,"SoundDuration":100789,"Delta":136851272},{"NoteNumber":72,"Velocity":50,"Duration":101197,"SoundDuration":101197,"Delta":136952061},{"NoteNumber":70,"Velocity":48,"Duration":101214,"SoundDuration":101214,"Delta":137053259},{"NoteNumber":68,"Velocity":45,"Duration":101214,"SoundDuration":101214,"Delta":137154473},{"NoteNumber":67,"Velocity":44,"Duration":101528,"SoundDuration":101528,"Delta":137255688},{"NoteNumber":65,"Velocity":41,"Duration":101830,"SoundDuration":101830,"Delta":137357216},{"NoteNumber":64,"Velocity":39,"Duration":102191,"SoundDuration":102191,"Delta":137459047},{"NoteNumber":63,"Velocity":37,"Duration":217894,"SoundDuration":217894,"Delta":137561238},{"NoteNumber":87,"Velocity":74,"Duration":97911,"SoundDuration":97911,"Delta":137779133},{"NoteNumber":60,"Velocity":56,"Duration":176240,"SoundDuration":176240,"Delta":137779133},{"NoteNumber":63,"Velocity":67,"Duration":176240,"SoundDuration":176240,"Delta":137779133},{"NoteNumber":51,"Velocity":56,"Duration":176240,"SoundDuration":176240,"Delta":137779133},{"NoteNumber":56,"Velocity":56,"Duration":176240,"SoundDuration":176240,"Delta":137779133},{"NoteNumber":92,"Velocity":66,"Duration":97911,"SoundDuration":97911,"Delta":137877044},{"NoteNumber":87,"Velocity":71,"Duration":97911,"SoundDuration":97911,"Delta":137974955},{"NoteNumber":60,"Velocity":34,"Duration":176240,"SoundDuration":176240,"Delta":137974955},{"NoteNumber":63,"Velocity":41,"Duration":176240,"SoundDuration":176240,"Delta":137974955},{"NoteNumber":51,"Velocity":34,"Duration":176240,"SoundDuration":176240,"Delta":137974955},{"NoteNumber":56,"Velocity":34,"Duration":176240,"SoundDuration":176240,"Delta":137974955},{"NoteNumber":92,"Velocity":62,"Duration":97727,"SoundDuration":97727,"Delta":138072867},{"NoteNumber":96,"Velocity":74,"Duration":96385,"SoundDuration":96385,"Delta":138170594},{"NoteNumber":56,"Velocity":34,"Duration":781938,"SoundDuration":781938,"Delta":138170594},{"NoteNumber":63,"Velocity":41,"Duration":2041835,"SoundDuration":2041835,"Delta":138170594},{"NoteNumber":51,"Velocity":34,"Duration":2041835,"SoundDuration":2041835,"Delta":138170594},{"NoteNumber":60,"Velocity":34,"Duration":781938,"SoundDuration":781938,"Delta":138170594},{"NoteNumber":94,"Velocity":65,"Duration":96758,"SoundDuration":96758,"Delta":138266980},{"NoteNumber":92,"Velocity":73,"Duration":97134,"SoundDuration":97134,"Delta":138363739},{"NoteNumber":91,"Velocity":60,"Duration":97513,"SoundDuration":97513,"Delta":138460873},{"NoteNumber":89,"Velocity":66,"Duration":97943,"SoundDuration":97943,"Delta":138558387},{"NoteNumber":87,"Velocity":64,"Duration":98344,"SoundDuration":98344,"Delta":138656330},{"NoteNumber":85,"Velocity":62,"Duration":98733,"SoundDuration":98733,"Delta":138754675},{"NoteNumber":84,"Velocity":60,"Duration":99124,"SoundDuration":99124,"Delta":138853408},{"NoteNumber":82,"Velocity":58,"Duration":99568,"SoundDuration":99568,"Delta":138952533},{"NoteNumber":55,"Velocity":34,"Duration":1259897,"SoundDuration":1259897,"Delta":138952533},{"NoteNumber":61,"Velocity":41,"Duration":1259897,"SoundDuration":1259897,"Delta":138952533},{"NoteNumber":80,"Velocity":56,"Duration":99983,"SoundDuration":99983,"Delta":139052102},{"NoteNumber":79,"Velocity":54,"Duration":100385,"SoundDuration":100385,"Delta":139152085},{"NoteNumber":77,"Velocity":52,"Duration":100789,"SoundDuration":100789,"Delta":139252470},{"NoteNumber":75,"Velocity":50,"Duration":101197,"SoundDuration":101197,"Delta":139353260},{"NoteNumber":73,"Velocity":48,"Duration":101214,"SoundDuration":101214,"Delta":139454457},{"NoteNumber":72,"Velocity":45,"Duration":101214,"SoundDuration":101214,"Delta":139555672},{"NoteNumber":70,"Velocity":44,"Duration":101528,"SoundDuration":101528,"Delta":139656886},{"NoteNumber":68,"Velocity":41,"Duration":101830,"SoundDuration":101830,"Delta":139758415},{"NoteNumber":67,"Velocity":39,"Duration":102191,"SoundDuration":102191,"Delta":139860246},{"NoteNumber":65,"Velocity":37,"Duration":102500,"SoundDuration":102500,"Delta":139962437},{"NoteNumber":63,"Velocity":37,"Duration":147492,"SoundDuration":147492,"Delta":140064937},{"NoteNumber":92,"Velocity":76,"Duration":97911,"SoundDuration":97911,"Delta":140212430},{"NoteNumber":51,"Velocity":56,"Duration":176240,"SoundDuration":176240,"Delta":140212430},{"NoteNumber":60,"Velocity":56,"Duration":176240,"SoundDuration":176240,"Delta":140212430},{"NoteNumber":63,"Velocity":67,"Duration":176240,"SoundDuration":176240,"Delta":140212430},{"NoteNumber":56,"Velocity":56,"Duration":176240,"SoundDuration":176240,"Delta":140212430},{"NoteNumber":96,"Velocity":66,"Duration":97911,"SoundDuration":97911,"Delta":140310341},{"NoteNumber":92,"Velocity":71,"Duration":97911,"SoundDuration":97911,"Delta":140408253},{"NoteNumber":60,"Velocity":34,"Duration":176240,"SoundDuration":176240,"Delta":140408253},{"NoteNumber":51,"Velocity":34,"Duration":176240,"SoundDuration":176240,"Delta":140408253},{"NoteNumber":63,"Velocity":41,"Duration":176240,"SoundDuration":176240,"Delta":140408253},{"NoteNumber":56,"Velocity":34,"Duration":176240,"SoundDuration":176240,"Delta":140408253},{"NoteNumber":96,"Velocity":62,"Duration":97727,"SoundDuration":97727,"Delta":140506164},{"NoteNumber":99,"Velocity":77,"Duration":96385,"SoundDuration":96385,"Delta":140603892},{"NoteNumber":51,"Velocity":34,"Duration":1587820,"SoundDuration":1587820,"Delta":140603892},{"NoteNumber":63,"Velocity":41,"Duration":1587820,"SoundDuration":1587820,"Delta":140603892},{"NoteNumber":56,"Velocity":34,"Duration":781938,"SoundDuration":781938,"Delta":140603892},{"NoteNumber":60,"Velocity":34,"Duration":781938,"SoundDuration":781938,"Delta":140603892},{"NoteNumber":97,"Velocity":69,"Duration":96758,"SoundDuration":96758,"Delta":140700277},{"NoteNumber":96,"Velocity":79,"Duration":97134,"SoundDuration":97134,"Delta":140797036},{"NoteNumber":94,"Velocity":71,"Duration":97513,"SoundDuration":97513,"Delta":140894171},{"NoteNumber":92,"Velocity":74,"Duration":97943,"SoundDuration":97943,"Delta":140991684},{"NoteNumber":91,"Velocity":72,"Duration":98344,"SoundDuration":98344,"Delta":141089628},{"NoteNumber":89,"Velocity":70,"Duration":98733,"SoundDuration":98733,"Delta":141187972},{"NoteNumber":87,"Velocity":68,"Duration":99124,"SoundDuration":99124,"Delta":141286706},{"NoteNumber":85,"Velocity":65,"Duration":99568,"SoundDuration":99568,"Delta":141385830},{"NoteNumber":55,"Velocity":34,"Duration":805882,"SoundDuration":805882,"Delta":141385830},{"NoteNumber":61,"Velocity":41,"Duration":805882,"SoundDuration":805882,"Delta":141385830},{"NoteNumber":84,"Velocity":63,"Duration":99983,"SoundDuration":99983,"Delta":141485399},{"NoteNumber":82,"Velocity":61,"Duration":100385,"SoundDuration":100385,"Delta":141585382},{"NoteNumber":80,"Velocity":59,"Duration":100789,"SoundDuration":100789,"Delta":141685768},{"NoteNumber":79,"Velocity":57,"Duration":101197,"SoundDuration":101197,"Delta":141786557},{"NoteNumber":77,"Velocity":54,"Duration":101214,"SoundDuration":101214,"Delta":141887755},{"NoteNumber":75,"Velocity":52,"Duration":67476,"SoundDuration":67476,"Delta":141988969},{"NoteNumber":73,"Velocity":52,"Duration":67562,"SoundDuration":67562,"Delta":142056446},{"NoteNumber":72,"Velocity":53,"Duration":67704,"SoundDuration":67704,"Delta":142124008},{"NoteNumber":70,"Velocity":53,"Duration":50879,"SoundDuration":50879,"Delta":142191712},{"NoteNumber":68,"Velocity":54,"Duration":50951,"SoundDuration":50951,"Delta":142242592},{"NoteNumber":67,"Velocity":55,"Duration":51066,"SoundDuration":51066,"Delta":142293543},{"NoteNumber":65,"Velocity":56,"Duration":51124,"SoundDuration":51124,"Delta":142344610},{"NoteNumber":63,"Velocity":57,"Duration":51200,"SoundDuration":51200,"Delta":142395734},{"NoteNumber":61,"Velocity":58,"Duration":51299,"SoundDuration":51299,"Delta":142446935},{"NoteNumber":60,"Velocity":60,"Duration":51387,"SoundDuration":51387,"Delta":142498235},{"NoteNumber":58,"Velocity":61,"Duration":51773,"SoundDuration":51773,"Delta":142549622},{"NoteNumber":56,"Velocity":70,"Duration":209482,"SoundDuration":209482,"Delta":142601396},{"NoteNumber":56,"Velocity":70,"Duration":115215,"SoundDuration":115215,"Delta":142810879},{"NoteNumber":44,"Velocity":56,"Duration":115215,"SoundDuration":115215,"Delta":142810879},{"NoteNumber":60,"Velocity":62,"Duration":115215,"SoundDuration":115215,"Delta":142915620},{"NoteNumber":48,"Velocity":49,"Duration":115215,"SoundDuration":115215,"Delta":142915620},{"NoteNumber":63,"Velocity":70,"Duration":113518,"SoundDuration":113518,"Delta":143020361},{"NoteNumber":51,"Velocity":56,"Duration":113518,"SoundDuration":113518,"Delta":143020361},{"NoteNumber":61,"Velocity":68,"Duration":111231,"SoundDuration":111231,"Delta":143123655},{"NoteNumber":49,"Velocity":54,"Duration":111231,"SoundDuration":111231,"Delta":143123655},{"NoteNumber":60,"Velocity":68,"Duration":109489,"SoundDuration":109489,"Delta":143224932},{"NoteNumber":48,"Velocity":54,"Duration":109489,"SoundDuration":109489,"Delta":143224932},{"NoteNumber":58,"Velocity":67,"Duration":109613,"SoundDuration":109613,"Delta":143324468},{"NoteNumber":46,"Velocity":53,"Duration":109613,"SoundDuration":109613,"Delta":143324468},{"NoteNumber":56,"Velocity":66,"Duration":109853,"SoundDuration":109853,"Delta":143424094},{"NoteNumber":44,"Velocity":52,"Duration":109853,"SoundDuration":109853,"Delta":143424094},{"NoteNumber":55,"Velocity":65,"Duration":110103,"SoundDuration":110103,"Delta":143523961},{"NoteNumber":43,"Velocity":52,"Duration":110103,"SoundDuration":110103,"Delta":143523961},{"NoteNumber":53,"Velocity":64,"Duration":110220,"SoundDuration":110220,"Delta":143624045},{"NoteNumber":41,"Velocity":51,"Duration":110220,"SoundDuration":110220,"Delta":143624045},{"NoteNumber":51,"Velocity":63,"Duration":110556,"SoundDuration":110556,"Delta":143724245},{"NoteNumber":39,"Velocity":50,"Duration":110556,"SoundDuration":110556,"Delta":143724245},{"NoteNumber":49,"Velocity":62,"Duration":110716,"SoundDuration":110716,"Delta":143824748},{"NoteNumber":37,"Velocity":49,"Duration":110716,"SoundDuration":110716,"Delta":143824748},{"NoteNumber":48,"Velocity":61,"Duration":110961,"SoundDuration":110961,"Delta":143925377},{"NoteNumber":36,"Velocity":48,"Duration":110961,"SoundDuration":110961,"Delta":143925377},{"NoteNumber":46,"Velocity":60,"Duration":111174,"SoundDuration":111174,"Delta":144026252},{"NoteNumber":34,"Velocity":48,"Duration":111174,"SoundDuration":111174,"Delta":144026252},{"NoteNumber":44,"Velocity":59,"Duration":111335,"SoundDuration":111335,"Delta":144127304},{"NoteNumber":32,"Velocity":47,"Duration":111335,"SoundDuration":111335,"Delta":144127304},{"NoteNumber":43,"Velocity":58,"Duration":111980,"SoundDuration":111980,"Delta":144228519},{"NoteNumber":31,"Velocity":46,"Duration":111980,"SoundDuration":111980,"Delta":144228519},{"NoteNumber":44,"Velocity":57,"Duration":112006,"SoundDuration":112006,"Delta":144330309},{"NoteNumber":32,"Velocity":45,"Duration":112006,"SoundDuration":112006,"Delta":144330309},{"NoteNumber":46,"Velocity":56,"Duration":111712,"SoundDuration":111712,"Delta":144432160},{"NoteNumber":34,"Velocity":44,"Duration":111712,"SoundDuration":111712,"Delta":144432160},{"NoteNumber":48,"Velocity":58,"Duration":111498,"SoundDuration":111498,"Delta":144533717},{"NoteNumber":36,"Velocity":46,"Duration":111498,"SoundDuration":111498,"Delta":144533717},{"NoteNumber":49,"Velocity":59,"Duration":111335,"SoundDuration":111335,"Delta":144635094},{"NoteNumber":37,"Velocity":47,"Duration":111335,"SoundDuration":111335,"Delta":144635094},{"NoteNumber":51,"Velocity":60,"Duration":110995,"SoundDuration":110995,"Delta":144736309},{"NoteNumber":39,"Velocity":48,"Duration":110995,"SoundDuration":110995,"Delta":144736309},{"NoteNumber":53,"Velocity":61,"Duration":110834,"SoundDuration":110834,"Delta":144837217},{"NoteNumber":41,"Velocity":48,"Duration":110834,"SoundDuration":110834,"Delta":144837217},{"NoteNumber":55,"Velocity":62,"Duration":110589,"SoundDuration":110589,"Delta":144937998},{"NoteNumber":43,"Velocity":49,"Duration":110589,"SoundDuration":110589,"Delta":144937998},{"NoteNumber":56,"Velocity":63,"Duration":110338,"SoundDuration":110338,"Delta":145038535},{"NoteNumber":44,"Velocity":50,"Duration":110338,"SoundDuration":110338,"Delta":145038535},{"NoteNumber":58,"Velocity":64,"Duration":110178,"SoundDuration":110178,"Delta":145138853},{"NoteNumber":46,"Velocity":51,"Duration":110178,"SoundDuration":110178,"Delta":145138853},{"NoteNumber":60,"Velocity":65,"Duration":109853,"SoundDuration":109853,"Delta":145239045},{"NoteNumber":48,"Velocity":52,"Duration":109853,"SoundDuration":109853,"Delta":145239045},{"NoteNumber":61,"Velocity":66,"Duration":109687,"SoundDuration":109687,"Delta":145338912},{"NoteNumber":49,"Velocity":52,"Duration":109687,"SoundDuration":109687,"Delta":145338912},{"NoteNumber":63,"Velocity":67,"Duration":109489,"SoundDuration":109489,"Delta":145438646},{"NoteNumber":51,"Velocity":53,"Duration":109489,"SoundDuration":109489,"Delta":145438646},{"NoteNumber":65,"Velocity":68,"Duration":109200,"SoundDuration":109200,"Delta":145538181},{"NoteNumber":53,"Velocity":54,"Duration":109200,"SoundDuration":109200,"Delta":145538181},{"NoteNumber":67,"Velocity":70,"Duration":109045,"SoundDuration":109045,"Delta":145637462},{"NoteNumber":55,"Velocity":56,"Duration":109045,"SoundDuration":109045,"Delta":145637462},{"NoteNumber":68,"Velocity":71,"Duration":108767,"SoundDuration":108767,"Delta":145736619},{"NoteNumber":56,"Velocity":56,"Duration":108767,"SoundDuration":108767,"Delta":145736619},{"NoteNumber":70,"Velocity":73,"Duration":108564,"SoundDuration":108564,"Delta":145835498},{"NoteNumber":58,"Velocity":58,"Duration":108564,"SoundDuration":108564,"Delta":145835498},{"NoteNumber":72,"Velocity":74,"Duration":108409,"SoundDuration":108409,"Delta":145934207},{"NoteNumber":60,"Velocity":59,"Duration":108409,"SoundDuration":108409,"Delta":145934207},{"NoteNumber":73,"Velocity":76,"Duration":108087,"SoundDuration":108087,"Delta":146032761},{"NoteNumber":61,"Velocity":60,"Duration":108087,"SoundDuration":108087,"Delta":146032761},{"NoteNumber":75,"Velocity":78,"Duration":107815,"SoundDuration":107815,"Delta":146131025},{"NoteNumber":63,"Velocity":62,"Duration":107815,"SoundDuration":107815,"Delta":146131025},{"NoteNumber":77,"Velocity":79,"Duration":107043,"SoundDuration":107043,"Delta":146229113},{"NoteNumber":65,"Velocity":63,"Duration":107043,"SoundDuration":107043,"Delta":146229113},{"NoteNumber":75,"Velocity":79,"Duration":107391,"SoundDuration":107391,"Delta":146326397},{"NoteNumber":63,"Velocity":63,"Duration":107391,"SoundDuration":107391,"Delta":146326397},{"NoteNumber":73,"Velocity":77,"Duration":107742,"SoundDuration":107742,"Delta":146423998},{"NoteNumber":61,"Velocity":61,"Duration":107742,"SoundDuration":107742,"Delta":146423998},{"NoteNumber":72,"Velocity":75,"Duration":108095,"SoundDuration":108095,"Delta":146521917},{"NoteNumber":60,"Velocity":60,"Duration":108095,"SoundDuration":108095,"Delta":146521917},{"NoteNumber":70,"Velocity":73,"Duration":108450,"SoundDuration":108450,"Delta":146620157},{"NoteNumber":58,"Velocity":58,"Duration":108450,"SoundDuration":108450,"Delta":146620157},{"NoteNumber":68,"Velocity":71,"Duration":108808,"SoundDuration":108808,"Delta":146718720},{"NoteNumber":56,"Velocity":56,"Duration":108808,"SoundDuration":108808,"Delta":146718720},{"NoteNumber":67,"Velocity":69,"Duration":109168,"SoundDuration":109168,"Delta":146817607},{"NoteNumber":55,"Velocity":55,"Duration":109168,"SoundDuration":109168,"Delta":146817607},{"NoteNumber":65,"Velocity":67,"Duration":109530,"SoundDuration":109530,"Delta":146916822},{"NoteNumber":53,"Velocity":53,"Duration":109530,"SoundDuration":109530,"Delta":146916822},{"NoteNumber":63,"Velocity":65,"Duration":110021,"SoundDuration":110021,"Delta":147016365},{"NoteNumber":51,"Velocity":52,"Duration":110021,"SoundDuration":110021,"Delta":147016365},{"NoteNumber":61,"Velocity":63,"Duration":111440,"SoundDuration":111440,"Delta":147116333},{"NoteNumber":49,"Velocity":50,"Duration":111440,"SoundDuration":111440,"Delta":147116333},{"NoteNumber":60,"Velocity":61,"Duration":112966,"SoundDuration":112966,"Delta":147217584},{"NoteNumber":48,"Velocity":48,"Duration":112966,"SoundDuration":112966,"Delta":147217584},{"NoteNumber":58,"Velocity":59,"Duration":114535,"SoundDuration":114535,"Delta":147320220},{"NoteNumber":46,"Velocity":47,"Duration":114535,"SoundDuration":114535,"Delta":147320220},{"NoteNumber":56,"Velocity":62,"Duration":209496,"SoundDuration":209496,"Delta":147424280},{"NoteNumber":44,"Velocity":49,"Duration":209496,"SoundDuration":209496,"Delta":147424280},{"NoteNumber":68,"Velocity":49,"Duration":115215,"SoundDuration":115215,"Delta":147633777},{"NoteNumber":56,"Velocity":39,"Duration":115215,"SoundDuration":115215,"Delta":147633777},{"NoteNumber":72,"Velocity":43,"Duration":115215,"SoundDuration":115215,"Delta":147738518},{"NoteNumber":60,"Velocity":34,"Duration":115215,"SoundDuration":115215,"Delta":147738518},{"NoteNumber":75,"Velocity":49,"Duration":113518,"SoundDuration":113518,"Delta":147843259},{"NoteNumber":63,"Velocity":39,"Duration":113518,"SoundDuration":113518,"Delta":147843259},{"NoteNumber":73,"Velocity":47,"Duration":111231,"SoundDuration":111231,"Delta":147946553},{"NoteNumber":61,"Velocity":37,"Duration":111231,"SoundDuration":111231,"Delta":147946553},{"NoteNumber":72,"Velocity":47,"Duration":109489,"SoundDuration":109489,"Delta":148047831},{"NoteNumber":60,"Velocity":37,"Duration":109489,"SoundDuration":109489,"Delta":148047831},{"NoteNumber":70,"Velocity":46,"Duration":109613,"SoundDuration":109613,"Delta":148147366},{"NoteNumber":58,"Velocity":37,"Duration":109613,"SoundDuration":109613,"Delta":148147366},{"NoteNumber":68,"Velocity":46,"Duration":109853,"SoundDuration":109853,"Delta":148246993},{"NoteNumber":56,"Velocity":36,"Duration":109853,"SoundDuration":109853,"Delta":148246993},{"NoteNumber":67,"Velocity":45,"Duration":110103,"SoundDuration":110103,"Delta":148346859},{"NoteNumber":55,"Velocity":36,"Duration":110103,"SoundDuration":110103,"Delta":148346859},{"NoteNumber":65,"Velocity":44,"Duration":110220,"SoundDuration":110220,"Delta":148446943},{"NoteNumber":53,"Velocity":35,"Duration":110220,"SoundDuration":110220,"Delta":148446943},{"NoteNumber":63,"Velocity":44,"Duration":110556,"SoundDuration":110556,"Delta":148547144},{"NoteNumber":51,"Velocity":35,"Duration":110556,"SoundDuration":110556,"Delta":148547144},{"NoteNumber":61,"Velocity":43,"Duration":110716,"SoundDuration":110716,"Delta":148647646},{"NoteNumber":49,"Velocity":34,"Duration":110716,"SoundDuration":110716,"Delta":148647646},{"NoteNumber":60,"Velocity":42,"Duration":110961,"SoundDuration":110961,"Delta":148748275},{"NoteNumber":48,"Velocity":33,"Duration":110961,"SoundDuration":110961,"Delta":148748275},{"NoteNumber":58,"Velocity":42,"Duration":111174,"SoundDuration":111174,"Delta":148849150},{"NoteNumber":46,"Velocity":33,"Duration":111174,"SoundDuration":111174,"Delta":148849150},{"NoteNumber":56,"Velocity":41,"Duration":111335,"SoundDuration":111335,"Delta":148950203},{"NoteNumber":44,"Velocity":32,"Duration":111335,"SoundDuration":111335,"Delta":148950203},{"NoteNumber":55,"Velocity":40,"Duration":111980,"SoundDuration":111980,"Delta":149051417},{"NoteNumber":43,"Velocity":32,"Duration":111980,"SoundDuration":111980,"Delta":149051417},{"NoteNumber":56,"Velocity":39,"Duration":112006,"SoundDuration":112006,"Delta":149153207},{"NoteNumber":44,"Velocity":31,"Duration":112006,"SoundDuration":112006,"Delta":149153207},{"NoteNumber":58,"Velocity":39,"Duration":111712,"SoundDuration":111712,"Delta":149255058},{"NoteNumber":46,"Velocity":30,"Duration":111712,"SoundDuration":111712,"Delta":149255058},{"NoteNumber":60,"Velocity":40,"Duration":111498,"SoundDuration":111498,"Delta":149356615},{"NoteNumber":48,"Velocity":32,"Duration":111498,"SoundDuration":111498,"Delta":149356615},{"NoteNumber":61,"Velocity":41,"Duration":111335,"SoundDuration":111335,"Delta":149457992},{"NoteNumber":49,"Velocity":32,"Duration":111335,"SoundDuration":111335,"Delta":149457992},{"NoteNumber":63,"Velocity":42,"Duration":110995,"SoundDuration":110995,"Delta":149559207},{"NoteNumber":51,"Velocity":33,"Duration":110995,"SoundDuration":110995,"Delta":149559207},{"NoteNumber":65,"Velocity":42,"Duration":110834,"SoundDuration":110834,"Delta":149660115},{"NoteNumber":53,"Velocity":33,"Duration":110834,"SoundDuration":110834,"Delta":149660115},{"NoteNumber":67,"Velocity":43,"Duration":110589,"SoundDuration":110589,"Delta":149760897},{"NoteNumber":55,"Velocity":34,"Duration":110589,"SoundDuration":110589,"Delta":149760897},{"NoteNumber":68,"Velocity":44,"Duration":110338,"SoundDuration":110338,"Delta":149861433},{"NoteNumber":56,"Velocity":35,"Duration":110338,"SoundDuration":110338,"Delta":149861433},{"NoteNumber":70,"Velocity":44,"Duration":110178,"SoundDuration":110178,"Delta":149961751},{"NoteNumber":58,"Velocity":35,"Duration":110178,"SoundDuration":110178,"Delta":149961751},{"NoteNumber":72,"Velocity":45,"Duration":109853,"SoundDuration":109853,"Delta":150061943},{"NoteNumber":60,"Velocity":36,"Duration":109853,"SoundDuration":109853,"Delta":150061943},{"NoteNumber":73,"Velocity":46,"Duration":109687,"SoundDuration":109687,"Delta":150161810},{"NoteNumber":61,"Velocity":36,"Duration":109687,"SoundDuration":109687,"Delta":150161810},{"NoteNumber":75,"Velocity":46,"Duration":109489,"SoundDuration":109489,"Delta":150261544},{"NoteNumber":63,"Velocity":37,"Duration":109489,"SoundDuration":109489,"Delta":150261544},{"NoteNumber":77,"Velocity":47,"Duration":109200,"SoundDuration":109200,"Delta":150361079},{"NoteNumber":65,"Velocity":37,"Duration":109200,"SoundDuration":109200,"Delta":150361079},{"NoteNumber":79,"Velocity":49,"Duration":109045,"SoundDuration":109045,"Delta":150460360},{"NoteNumber":67,"Velocity":39,"Duration":109045,"SoundDuration":109045,"Delta":150460360},{"NoteNumber":80,"Velocity":49,"Duration":108767,"SoundDuration":108767,"Delta":150559517},{"NoteNumber":68,"Velocity":39,"Duration":108767,"SoundDuration":108767,"Delta":150559517},{"NoteNumber":82,"Velocity":51,"Duration":108564,"SoundDuration":108564,"Delta":150658396},{"NoteNumber":70,"Velocity":40,"Duration":108564,"SoundDuration":108564,"Delta":150658396},{"NoteNumber":84,"Velocity":51,"Duration":108409,"SoundDuration":108409,"Delta":150757105},{"NoteNumber":72,"Velocity":41,"Duration":108409,"SoundDuration":108409,"Delta":150757105},{"NoteNumber":85,"Velocity":53,"Duration":108087,"SoundDuration":108087,"Delta":150855660},{"NoteNumber":73,"Velocity":42,"Duration":108087,"SoundDuration":108087,"Delta":150855660},{"NoteNumber":87,"Velocity":54,"Duration":107815,"SoundDuration":107815,"Delta":150953924},{"NoteNumber":75,"Velocity":43,"Duration":107815,"SoundDuration":107815,"Delta":150953924},{"NoteNumber":89,"Velocity":55,"Duration":107043,"SoundDuration":107043,"Delta":151052011},{"NoteNumber":77,"Velocity":44,"Duration":107043,"SoundDuration":107043,"Delta":151052011},{"NoteNumber":87,"Velocity":55,"Duration":107391,"SoundDuration":107391,"Delta":151149295},{"NoteNumber":75,"Velocity":44,"Duration":107391,"SoundDuration":107391,"Delta":151149295},{"NoteNumber":85,"Velocity":53,"Duration":107742,"SoundDuration":107742,"Delta":151246896},{"NoteNumber":73,"Velocity":42,"Duration":107742,"SoundDuration":107742,"Delta":151246896},{"NoteNumber":84,"Velocity":52,"Duration":108095,"SoundDuration":108095,"Delta":151344815},{"NoteNumber":72,"Velocity":42,"Duration":108095,"SoundDuration":108095,"Delta":151344815},{"NoteNumber":82,"Velocity":51,"Duration":108450,"SoundDuration":108450,"Delta":151443055},{"NoteNumber":70,"Velocity":40,"Duration":108450,"SoundDuration":108450,"Delta":151443055},{"NoteNumber":80,"Velocity":49,"Duration":108808,"SoundDuration":108808,"Delta":151541618},{"NoteNumber":68,"Velocity":39,"Duration":108808,"SoundDuration":108808,"Delta":151541618},{"NoteNumber":79,"Velocity":48,"Duration":109168,"SoundDuration":109168,"Delta":151640505},{"NoteNumber":67,"Velocity":38,"Duration":109168,"SoundDuration":109168,"Delta":151640505},{"NoteNumber":77,"Velocity":46,"Duration":109530,"SoundDuration":109530,"Delta":151739720},{"NoteNumber":65,"Velocity":37,"Duration":109530,"SoundDuration":109530,"Delta":151739720},{"NoteNumber":75,"Velocity":45,"Duration":110021,"SoundDuration":110021,"Delta":151839263},{"NoteNumber":63,"Velocity":36,"Duration":110021,"SoundDuration":110021,"Delta":151839263},{"NoteNumber":73,"Velocity":44,"Duration":111440,"SoundDuration":111440,"Delta":151939231},{"NoteNumber":61,"Velocity":35,"Duration":111440,"SoundDuration":111440,"Delta":151939231},{"NoteNumber":72,"Velocity":42,"Duration":112966,"SoundDuration":112966,"Delta":152040482},{"NoteNumber":60,"Velocity":33,"Duration":112966,"SoundDuration":112966,"Delta":152040482},{"NoteNumber":70,"Velocity":41,"Duration":114535,"SoundDuration":114535,"Delta":152143118},{"NoteNumber":58,"Velocity":32,"Duration":114535,"SoundDuration":114535,"Delta":152143118},{"NoteNumber":68,"Velocity":43,"Duration":209496,"SoundDuration":209496,"Delta":152247178},{"NoteNumber":56,"Velocity":34,"Duration":209496,"SoundDuration":209496,"Delta":152247178},{"NoteNumber":68,"Velocity":70,"Duration":115215,"SoundDuration":115215,"Delta":152456675},{"NoteNumber":56,"Velocity":56,"Duration":115215,"SoundDuration":115215,"Delta":152456675},{"NoteNumber":71,"Velocity":62,"Duration":115215,"SoundDuration":115215,"Delta":152561416},{"NoteNumber":59,"Velocity":49,"Duration":115215,"SoundDuration":115215,"Delta":152561416},{"NoteNumber":75,"Velocity":70,"Duration":113518,"SoundDuration":113518,"Delta":152666158},{"NoteNumber":63,"Velocity":56,"Duration":113518,"SoundDuration":113518,"Delta":152666158},{"NoteNumber":73,"Velocity":68,"Duration":111231,"SoundDuration":111231,"Delta":152769451},{"NoteNumber":61,"Velocity":54,"Duration":111231,"SoundDuration":111231,"Delta":152769451},{"NoteNumber":71,"Velocity":68,"Duration":109489,"SoundDuration":109489,"Delta":152870729},{"NoteNumber":59,"Velocity":54,"Duration":109489,"SoundDuration":109489,"Delta":152870729},{"NoteNumber":70,"Velocity":67,"Duration":109613,"SoundDuration":109613,"Delta":152970264},{"NoteNumber":58,"Velocity":53,"Duration":109613,"SoundDuration":109613,"Delta":152970264},{"NoteNumber":68,"Velocity":66,"Duration":109853,"SoundDuration":109853,"Delta":153069891},{"NoteNumber":56,"Velocity":52,"Duration":109853,"SoundDuration":109853,"Delta":153069891},{"NoteNumber":66,"Velocity":65,"Duration":110103,"SoundDuration":110103,"Delta":153169758},{"NoteNumber":54,"Velocity":52,"Duration":110103,"SoundDuration":110103,"Delta":153169758},{"NoteNumber":64,"Velocity":64,"Duration":110220,"SoundDuration":110220,"Delta":153269841},{"NoteNumber":52,"Velocity":51,"Duration":110220,"SoundDuration":110220,"Delta":153269841},{"NoteNumber":63,"Velocity":63,"Duration":110556,"SoundDuration":110556,"Delta":153370042},{"NoteNumber":51,"Velocity":50,"Duration":110556,"SoundDuration":110556,"Delta":153370042},{"NoteNumber":61,"Velocity":62,"Duration":110716,"SoundDuration":110716,"Delta":153470544},{"NoteNumber":49,"Velocity":49,"Duration":110716,"SoundDuration":110716,"Delta":153470544},{"NoteNumber":59,"Velocity":61,"Duration":110961,"SoundDuration":110961,"Delta":153571174},{"NoteNumber":47,"Velocity":48,"Duration":110961,"SoundDuration":110961,"Delta":153571174},{"NoteNumber":58,"Velocity":60,"Duration":111174,"SoundDuration":111174,"Delta":153672048},{"NoteNumber":46,"Velocity":48,"Duration":111174,"SoundDuration":111174,"Delta":153672048},{"NoteNumber":56,"Velocity":59,"Duration":111335,"SoundDuration":111335,"Delta":153773101},{"NoteNumber":44,"Velocity":47,"Duration":111335,"SoundDuration":111335,"Delta":153773101},{"NoteNumber":55,"Velocity":58,"Duration":111980,"SoundDuration":111980,"Delta":153874315},{"NoteNumber":43,"Velocity":46,"Duration":111980,"SoundDuration":111980,"Delta":153874315},{"NoteNumber":56,"Velocity":57,"Duration":112006,"SoundDuration":112006,"Delta":153976106},{"NoteNumber":44,"Velocity":45,"Duration":112006,"SoundDuration":112006,"Delta":153976106},{"NoteNumber":58,"Velocity":56,"Duration":111712,"SoundDuration":111712,"Delta":154077956},{"NoteNumber":46,"Velocity":44,"Duration":111712,"SoundDuration":111712,"Delta":154077956},{"NoteNumber":59,"Velocity":58,"Duration":111498,"SoundDuration":111498,"Delta":154179513},{"NoteNumber":47,"Velocity":46,"Duration":111498,"SoundDuration":111498,"Delta":154179513},{"NoteNumber":61,"Velocity":59,"Duration":111335,"SoundDuration":111335,"Delta":154280891},{"NoteNumber":49,"Velocity":47,"Duration":111335,"SoundDuration":111335,"Delta":154280891},{"NoteNumber":63,"Velocity":60,"Duration":110995,"SoundDuration":110995,"Delta":154382105},{"NoteNumber":51,"Velocity":48,"Duration":110995,"SoundDuration":110995,"Delta":154382105},{"NoteNumber":65,"Velocity":61,"Duration":110834,"SoundDuration":110834,"Delta":154483013},{"NoteNumber":53,"Velocity":48,"Duration":110834,"SoundDuration":110834,"Delta":154483013},{"NoteNumber":67,"Velocity":62,"Duration":110589,"SoundDuration":110589,"Delta":154583795},{"NoteNumber":55,"Velocity":49,"Duration":110589,"SoundDuration":110589,"Delta":154583795},{"NoteNumber":68,"Velocity":63,"Duration":110338,"SoundDuration":110338,"Delta":154684331},{"NoteNumber":56,"Velocity":50,"Duration":110338,"SoundDuration":110338,"Delta":154684331},{"NoteNumber":70,"Velocity":65,"Duration":110178,"SoundDuration":110178,"Delta":154784649},{"NoteNumber":58,"Velocity":55,"Duration":110178,"SoundDuration":110178,"Delta":154784649},{"NoteNumber":71,"Velocity":67,"Duration":109853,"SoundDuration":109853,"Delta":154884841},{"NoteNumber":59,"Velocity":56,"Duration":109853,"SoundDuration":109853,"Delta":154884841},{"NoteNumber":73,"Velocity":68,"Duration":109687,"SoundDuration":109687,"Delta":154984708},{"NoteNumber":61,"Velocity":57,"Duration":109687,"SoundDuration":109687,"Delta":154984708},{"NoteNumber":75,"Velocity":70,"Duration":109489,"SoundDuration":109489,"Delta":155084442},{"NoteNumber":63,"Velocity":59,"Duration":109489,"SoundDuration":109489,"Delta":155084442},{"NoteNumber":77,"Velocity":72,"Duration":109200,"SoundDuration":109200,"Delta":155183978},{"NoteNumber":65,"Velocity":60,"Duration":109200,"SoundDuration":109200,"Delta":155183978},{"NoteNumber":79,"Velocity":74,"Duration":109045,"SoundDuration":109045,"Delta":155283258},{"NoteNumber":67,"Velocity":62,"Duration":109045,"SoundDuration":109045,"Delta":155283258},{"NoteNumber":80,"Velocity":76,"Duration":108767,"SoundDuration":108767,"Delta":155382415},{"NoteNumber":68,"Velocity":60,"Duration":108767,"SoundDuration":108767,"Delta":155382415},{"NoteNumber":82,"Velocity":78,"Duration":108564,"SoundDuration":108564,"Delta":155481294},{"NoteNumber":70,"Velocity":63,"Duration":108564,"SoundDuration":108564,"Delta":155481294},{"NoteNumber":83,"Velocity":80,"Duration":108409,"SoundDuration":108409,"Delta":155580003},{"NoteNumber":71,"Velocity":65,"Duration":108409,"SoundDuration":108409,"Delta":155580003},{"NoteNumber":85,"Velocity":83,"Duration":108087,"SoundDuration":108087,"Delta":155678558},{"NoteNumber":73,"Velocity":68,"Duration":108087,"SoundDuration":108087,"Delta":155678558},{"NoteNumber":87,"Velocity":85,"Duration":107815,"SoundDuration":107815,"Delta":155776822},{"NoteNumber":75,"Velocity":71,"Duration":107815,"SoundDuration":107815,"Delta":155776822},{"NoteNumber":88,"Velocity":90,"Duration":107043,"SoundDuration":107043,"Delta":155874909},{"NoteNumber":76,"Velocity":73,"Duration":107043,"SoundDuration":107043,"Delta":155874909},{"NoteNumber":86,"Velocity":89,"Duration":107391,"SoundDuration":107391,"Delta":155972194},{"NoteNumber":74,"Velocity":74,"Duration":107391,"SoundDuration":107391,"Delta":155972194},{"NoteNumber":85,"Velocity":88,"Duration":107742,"SoundDuration":107742,"Delta":156069794},{"NoteNumber":73,"Velocity":73,"Duration":107742,"SoundDuration":107742,"Delta":156069794},{"NoteNumber":83,"Velocity":86,"Duration":108095,"SoundDuration":108095,"Delta":156167714},{"NoteNumber":71,"Velocity":72,"Duration":108095,"SoundDuration":108095,"Delta":156167714},{"NoteNumber":81,"Velocity":85,"Duration":108450,"SoundDuration":108450,"Delta":156265953},{"NoteNumber":69,"Velocity":70,"Duration":108450,"SoundDuration":108450,"Delta":156265953},{"NoteNumber":80,"Velocity":83,"Duration":108808,"SoundDuration":108808,"Delta":156364516},{"NoteNumber":68,"Velocity":69,"Duration":108808,"SoundDuration":108808,"Delta":156364516},{"NoteNumber":78,"Velocity":82,"Duration":109168,"SoundDuration":109168,"Delta":156463403},{"NoteNumber":66,"Velocity":68,"Duration":109168,"SoundDuration":109168,"Delta":156463403},{"NoteNumber":76,"Velocity":81,"Duration":109530,"SoundDuration":109530,"Delta":156562618},{"NoteNumber":64,"Velocity":66,"Duration":109530,"SoundDuration":109530,"Delta":156562618},{"NoteNumber":74,"Velocity":79,"Duration":110021,"SoundDuration":110021,"Delta":156662162},{"NoteNumber":62,"Velocity":65,"Duration":110021,"SoundDuration":110021,"Delta":156662162},{"NoteNumber":73,"Velocity":78,"Duration":111440,"SoundDuration":111440,"Delta":156762129},{"NoteNumber":61,"Velocity":64,"Duration":111440,"SoundDuration":111440,"Delta":156762129},{"NoteNumber":71,"Velocity":76,"Duration":112966,"SoundDuration":112966,"Delta":156863380},{"NoteNumber":59,"Velocity":62,"Duration":112966,"SoundDuration":112966,"Delta":156863380},{"NoteNumber":69,"Velocity":75,"Duration":113980,"SoundDuration":113980,"Delta":156966016},{"NoteNumber":57,"Velocity":61,"Duration":113980,"SoundDuration":113980,"Delta":156966016},{"NoteNumber":68,"Velocity":74,"Duration":109168,"SoundDuration":109168,"Delta":157070076},{"NoteNumber":56,"Velocity":60,"Duration":109168,"SoundDuration":109168,"Delta":157070076},{"NoteNumber":66,"Velocity":72,"Duration":109530,"SoundDuration":109530,"Delta":157169291},{"NoteNumber":54,"Velocity":58,"Duration":109530,"SoundDuration":109530,"Delta":157169291},{"NoteNumber":64,"Velocity":71,"Duration":110021,"SoundDuration":110021,"Delta":157268834},{"NoteNumber":52,"Velocity":57,"Duration":110021,"SoundDuration":110021,"Delta":157268834},{"NoteNumber":62,"Velocity":69,"Duration":111440,"SoundDuration":111440,"Delta":157368802},{"NoteNumber":50,"Velocity":56,"Duration":111440,"SoundDuration":111440,"Delta":157368802},{"NoteNumber":61,"Velocity":68,"Duration":112966,"SoundDuration":112966,"Delta":157470053},{"NoteNumber":49,"Velocity":54,"Duration":112966,"SoundDuration":112966,"Delta":157470053},{"NoteNumber":59,"Velocity":67,"Duration":113980,"SoundDuration":113980,"Delta":157572689},{"NoteNumber":47,"Velocity":53,"Duration":113980,"SoundDuration":113980,"Delta":157572689},{"NoteNumber":57,"Velocity":69,"Duration":109168,"SoundDuration":109168,"Delta":157676749},{"NoteNumber":45,"Velocity":58,"Duration":109168,"SoundDuration":109168,"Delta":157676749},{"NoteNumber":56,"Velocity":71,"Duration":109530,"SoundDuration":109530,"Delta":157775963},{"NoteNumber":44,"Velocity":60,"Duration":109530,"SoundDuration":109530,"Delta":157775963},{"NoteNumber":54,"Velocity":73,"Duration":110021,"SoundDuration":110021,"Delta":157875507},{"NoteNumber":42,"Velocity":62,"Duration":110021,"SoundDuration":110021,"Delta":157875507},{"NoteNumber":52,"Velocity":75,"Duration":111440,"SoundDuration":111440,"Delta":157975475},{"NoteNumber":40,"Velocity":64,"Duration":111440,"SoundDuration":111440,"Delta":157975475},{"NoteNumber":50,"Velocity":77,"Duration":75987,"SoundDuration":75987,"Delta":158076725},{"NoteNumber":38,"Velocity":66,"Duration":75987,"SoundDuration":75987,"Delta":158076725},{"NoteNumber":49,"Velocity":78,"Duration":75826,"SoundDuration":75826,"Delta":158145849},{"NoteNumber":37,"Velocity":67,"Duration":75826,"SoundDuration":75826,"Delta":158145849},{"NoteNumber":47,"Velocity":79,"Duration":69541,"SoundDuration":69541,"Delta":158213880},{"NoteNumber":35,"Velocity":68,"Duration":69541,"SoundDuration":69541,"Delta":158213880},{"NoteNumber":45,"Velocity":78,"Duration":96662,"SoundDuration":96662,"Delta":158283422},{"NoteNumber":33,"Velocity":66,"Duration":600032,"SoundDuration":600032,"Delta":158283422},{"NoteNumber":49,"Velocity":67,"Duration":96661,"SoundDuration":96661,"Delta":158380084},{"NoteNumber":45,"Velocity":78,"Duration":96662,"SoundDuration":96662,"Delta":158476746},{"NoteNumber":49,"Velocity":65,"Duration":100549,"SoundDuration":100549,"Delta":158573408},{"NoteNumber":52,"Velocity":73,"Duration":209496,"SoundDuration":209496,"Delta":158673957},{"NoteNumber":49,"Velocity":62,"Duration":96662,"SoundDuration":96662,"Delta":158883454},{"NoteNumber":33,"Velocity":56,"Duration":599304,"SoundDuration":599304,"Delta":158883454},{"NoteNumber":45,"Velocity":66,"Duration":599304,"SoundDuration":599304,"Delta":158883454},{"NoteNumber":52,"Velocity":53,"Duration":96661,"SoundDuration":96661,"Delta":158980116},{"NoteNumber":49,"Velocity":62,"Duration":96662,"SoundDuration":96662,"Delta":159076778},{"NoteNumber":52,"Velocity":52,"Duration":100549,"SoundDuration":100549,"Delta":159173440},{"NoteNumber":57,"Velocity":58,"Duration":208768,"SoundDuration":208768,"Delta":159273990},{"NoteNumber":52,"Velocity":62,"Duration":96662,"SoundDuration":96662,"Delta":159482759},{"NoteNumber":45,"Velocity":62,"Duration":597147,"SoundDuration":597147,"Delta":159482759},{"NoteNumber":33,"Velocity":52,"Duration":597147,"SoundDuration":597147,"Delta":159482759},{"NoteNumber":57,"Velocity":53,"Duration":96661,"SoundDuration":96661,"Delta":159579421},{"NoteNumber":52,"Velocity":62,"Duration":96662,"SoundDuration":96662,"Delta":159676083},{"NoteNumber":57,"Velocity":52,"Duration":100549,"SoundDuration":100549,"Delta":159772745},{"NoteNumber":61,"Velocity":58,"Duration":206611,"SoundDuration":206611,"Delta":159873294},{"NoteNumber":57,"Velocity":62,"Duration":96662,"SoundDuration":96662,"Delta":160079906},{"NoteNumber":45,"Velocity":62,"Duration":595209,"SoundDuration":595209,"Delta":160079906},{"NoteNumber":33,"Velocity":52,"Duration":595209,"SoundDuration":595209,"Delta":160079906},{"NoteNumber":61,"Velocity":53,"Duration":96661,"SoundDuration":96661,"Delta":160176568},{"NoteNumber":57,"Velocity":62,"Duration":96662,"SoundDuration":96662,"Delta":160273230},{"NoteNumber":61,"Velocity":52,"Duration":100549,"SoundDuration":100549,"Delta":160369892},{"NoteNumber":64,"Velocity":58,"Duration":204673,"SoundDuration":204673,"Delta":160470442},{"NoteNumber":61,"Velocity":62,"Duration":96662,"SoundDuration":96662,"Delta":160675116},{"NoteNumber":33,"Velocity":54,"Duration":595734,"SoundDuration":595734,"Delta":160675116},{"NoteNumber":45,"Velocity":64,"Duration":595734,"SoundDuration":595734,"Delta":160675116},{"NoteNumber":64,"Velocity":53,"Duration":96661,"SoundDuration":96661,"Delta":160771778},{"NoteNumber":61,"Velocity":62,"Duration":96662,"SoundDuration":96662,"Delta":160868440},{"NoteNumber":64,"Velocity":52,"Duration":100549,"SoundDuration":100549,"Delta":160965102},{"NoteNumber":69,"Velocity":58,"Duration":205198,"SoundDuration":205198,"Delta":161065651},{"NoteNumber":64,"Velocity":62,"Duration":96662,"SoundDuration":96662,"Delta":161270850},{"NoteNumber":49,"Velocity":54,"Duration":597861,"SoundDuration":597861,"Delta":161270850},{"NoteNumber":52,"Velocity":64,"Duration":597861,"SoundDuration":597861,"Delta":161270850},{"NoteNumber":45,"Velocity":54,"Duration":597861,"SoundDuration":597861,"Delta":161270850},{"NoteNumber":69,"Velocity":53,"Duration":96661,"SoundDuration":96661,"Delta":161367512},{"NoteNumber":64,"Velocity":62,"Duration":96662,"SoundDuration":96662,"Delta":161464174},{"NoteNumber":69,"Velocity":52,"Duration":100549,"SoundDuration":100549,"Delta":161560836},{"NoteNumber":73,"Velocity":58,"Duration":207325,"SoundDuration":207325,"Delta":161661386},{"NoteNumber":69,"Velocity":58,"Duration":96662,"SoundDuration":96662,"Delta":161868711},{"NoteNumber":57,"Velocity":64,"Duration":601956,"SoundDuration":601956,"Delta":161868711},{"NoteNumber":52,"Velocity":54,"Duration":601956,"SoundDuration":601956,"Delta":161868711},{"NoteNumber":49,"Velocity":54,"Duration":601956,"SoundDuration":601956,"Delta":161868711},{"NoteNumber":45,"Velocity":54,"Duration":601956,"SoundDuration":601956,"Delta":161868711},{"NoteNumber":73,"Velocity":46,"Duration":96661,"SoundDuration":96661,"Delta":161965373},{"NoteNumber":69,"Velocity":56,"Duration":96662,"SoundDuration":96662,"Delta":162062035},{"NoteNumber":73,"Velocity":45,"Duration":100549,"SoundDuration":100549,"Delta":162158697},{"NoteNumber":76,"Velocity":58,"Duration":211421,"SoundDuration":211421,"Delta":162259247},{"NoteNumber":71,"Velocity":49,"Duration":96662,"SoundDuration":96662,"Delta":162470668},{"NoteNumber":52,"Velocity":43,"Duration":596190,"SoundDuration":596190,"Delta":162470668},{"NoteNumber":56,"Velocity":43,"Duration":596190,"SoundDuration":596190,"Delta":162470668},{"NoteNumber":59,"Velocity":51,"Duration":596190,"SoundDuration":596190,"Delta":162470668},{"NoteNumber":74,"Velocity":42,"Duration":96661,"SoundDuration":96661,"Delta":162567330},{"NoteNumber":71,"Velocity":49,"Duration":96662,"SoundDuration":96662,"Delta":162663992},{"NoteNumber":74,"Velocity":41,"Duration":98879,"SoundDuration":98879,"Delta":162760654},{"NoteNumber":83,"Velocity":54,"Duration":207325,"SoundDuration":207325,"Delta":162859533},{"NoteNumber":72,"Velocity":49,"Duration":96662,"SoundDuration":96662,"Delta":163066859},{"NoteNumber":51,"Velocity":43,"Duration":596190,"SoundDuration":596190,"Delta":163066859},{"NoteNumber":75,"Velocity":42,"Duration":96661,"SoundDuration":96661,"Delta":163163521},{"NoteNumber":72,"Velocity":49,"Duration":96662,"SoundDuration":96662,"Delta":163260183},{"NoteNumber":75,"Velocity":41,"Duration":98879,"SoundDuration":98879,"Delta":163356845},{"NoteNumber":84,"Velocity":54,"Duration":103662,"SoundDuration":103662,"Delta":163455724},{"NoteNumber":56,"Velocity":28,"Duration":103662,"SoundDuration":103662,"Delta":163455724},{"NoteNumber":60,"Velocity":34,"Duration":103662,"SoundDuration":103662,"Delta":163455724},{"NoteNumber":75,"Velocity":49,"Duration":94816,"SoundDuration":94816,"Delta":163663050},{"NoteNumber":51,"Velocity":43,"Duration":588527,"SoundDuration":588527,"Delta":163663050},{"NoteNumber":84,"Velocity":42,"Duration":94816,"SoundDuration":94816,"Delta":163757866},{"NoteNumber":75,"Velocity":49,"Duration":94816,"SoundDuration":94816,"Delta":163852683},{"NoteNumber":84,"Velocity":41,"Duration":98879,"SoundDuration":98879,"Delta":163947500},{"NoteNumber":87,"Velocity":56,"Duration":102599,"SoundDuration":102599,"Delta":164046379},{"NoteNumber":63,"Velocity":34,"Duration":102599,"SoundDuration":102599,"Delta":164046379},{"NoteNumber":60,"Velocity":28,"Duration":102599,"SoundDuration":102599,"Delta":164046379},{"NoteNumber":73,"Velocity":49,"Duration":95419,"SoundDuration":95419,"Delta":164251578},{"NoteNumber":51,"Velocity":43,"Duration":591368,"SoundDuration":591368,"Delta":164251578},{"NoteNumber":82,"Velocity":42,"Duration":95419,"SoundDuration":95419,"Delta":164346997},{"NoteNumber":73,"Velocity":49,"Duration":95419,"SoundDuration":95419,"Delta":164442417},{"NoteNumber":82,"Velocity":41,"Duration":99206,"SoundDuration":99206,"Delta":164537837},{"NoteNumber":85,"Velocity":55,"Duration":102951,"SoundDuration":102951,"Delta":164637043},{"NoteNumber":58,"Velocity":28,"Duration":102951,"SoundDuration":102951,"Delta":164637043},{"NoteNumber":61,"Velocity":34,"Duration":102951,"SoundDuration":102951,"Delta":164637043},{"NoteNumber":70,"Velocity":49,"Duration":96662,"SoundDuration":96662,"Delta":164842946},{"NoteNumber":51,"Velocity":43,"Duration":594063,"SoundDuration":594063,"Delta":164842946},{"NoteNumber":79,"Velocity":42,"Duration":96661,"SoundDuration":96661,"Delta":164939608},{"NoteNumber":70,"Velocity":49,"Duration":96662,"SoundDuration":96662,"Delta":165036270},{"NoteNumber":79,"Velocity":41,"Duration":98879,"SoundDuration":98879,"Delta":165132932},{"NoteNumber":82,"Velocity":55,"Duration":102599,"SoundDuration":102599,"Delta":165231811},{"NoteNumber":55,"Velocity":28,"Duration":102599,"SoundDuration":102599,"Delta":165231811},{"NoteNumber":58,"Velocity":34,"Duration":102599,"SoundDuration":102599,"Delta":165231811},{"NoteNumber":72,"Velocity":49,"Duration":96662,"SoundDuration":96662,"Delta":165437009},{"NoteNumber":51,"Velocity":43,"Duration":597861,"SoundDuration":597861,"Delta":165437009},{"NoteNumber":75,"Velocity":42,"Duration":96661,"SoundDuration":96661,"Delta":165533671},{"NoteNumber":72,"Velocity":49,"Duration":96662,"SoundDuration":96662,"Delta":165630333},{"NoteNumber":75,"Velocity":41,"Duration":100549,"SoundDuration":100549,"Delta":165726995},{"NoteNumber":84,"Velocity":56,"Duration":103662,"SoundDuration":103662,"Delta":165827545},{"NoteNumber":56,"Velocity":28,"Duration":103662,"SoundDuration":103662,"Delta":165827545},{"NoteNumber":60,"Velocity":34,"Duration":103662,"SoundDuration":103662,"Delta":165827545},{"NoteNumber":80,"Velocity":57,"Duration":94517,"SoundDuration":94517,"Delta":166034871},{"NoteNumber":51,"Velocity":43,"Duration":587049,"SoundDuration":587049,"Delta":166034871},{"NoteNumber":87,"Velocity":47,"Duration":94517,"SoundDuration":94517,"Delta":166129389},{"NoteNumber":80,"Velocity":56,"Duration":94518,"SoundDuration":94518,"Delta":166223907},{"NoteNumber":87,"Velocity":49,"Duration":97592,"SoundDuration":97592,"Delta":166318425},{"NoteNumber":92,"Velocity":59,"Duration":102951,"SoundDuration":102951,"Delta":166416017},{"NoteNumber":60,"Velocity":28,"Duration":102951,"SoundDuration":102951,"Delta":166416017},{"NoteNumber":63,"Velocity":34,"Duration":102951,"SoundDuration":102951,"Delta":166416017},{"NoteNumber":79,"Velocity":58,"Duration":94221,"SoundDuration":94221,"Delta":166621920},{"NoteNumber":51,"Velocity":56,"Duration":585073,"SoundDuration":585073,"Delta":166621920},{"NoteNumber":85,"Velocity":50,"Duration":94221,"SoundDuration":94221,"Delta":166716141},{"NoteNumber":79,"Velocity":58,"Duration":94221,"SoundDuration":94221,"Delta":166810362},{"NoteNumber":85,"Velocity":49,"Duration":97911,"SoundDuration":97911,"Delta":166904583},{"NoteNumber":91,"Velocity":65,"Duration":102249,"SoundDuration":102249,"Delta":167002494},{"NoteNumber":61,"Velocity":44,"Duration":102249,"SoundDuration":102249,"Delta":167002494},{"NoteNumber":58,"Velocity":37,"Duration":102249,"SoundDuration":102249,"Delta":167002494},{"NoteNumber":73,"Velocity":58,"Duration":95419,"SoundDuration":95419,"Delta":167206993},{"NoteNumber":51,"Velocity":56,"Duration":591425,"SoundDuration":591425,"Delta":167206993},{"NoteNumber":79,"Velocity":50,"Duration":95419,"SoundDuration":95419,"Delta":167302413},{"NoteNumber":73,"Velocity":58,"Duration":95419,"SoundDuration":95419,"Delta":167397833},{"NoteNumber":79,"Velocity":49,"Duration":98554,"SoundDuration":98554,"Delta":167493252},{"NoteNumber":85,"Velocity":66,"Duration":103305,"SoundDuration":103305,"Delta":167591807},{"NoteNumber":55,"Velocity":37,"Duration":103305,"SoundDuration":103305,"Delta":167591807},{"NoteNumber":58,"Velocity":44,"Duration":103305,"SoundDuration":103305,"Delta":167591807},{"NoteNumber":72,"Velocity":58,"Duration":96662,"SoundDuration":96662,"Delta":167798418},{"NoteNumber":51,"Velocity":56,"Duration":606390,"SoundDuration":606390,"Delta":167798418},{"NoteNumber":80,"Velocity":50,"Duration":96661,"SoundDuration":96661,"Delta":167895080},{"NoteNumber":72,"Velocity":58,"Duration":96662,"SoundDuration":96662,"Delta":167991742},{"NoteNumber":80,"Velocity":49,"Duration":100549,"SoundDuration":100549,"Delta":168088404},{"NoteNumber":84,"Velocity":66,"Duration":103662,"SoundDuration":103662,"Delta":168188954},{"NoteNumber":60,"Velocity":44,"Duration":103662,"SoundDuration":103662,"Delta":168188954},{"NoteNumber":56,"Velocity":37,"Duration":103662,"SoundDuration":103662,"Delta":168188954},{"NoteNumber":87,"Velocity":72,"Duration":96662,"SoundDuration":96662,"Delta":168404808},{"NoteNumber":48,"Velocity":56,"Duration":595866,"SoundDuration":595866,"Delta":168404808},{"NoteNumber":96,"Velocity":64,"Duration":96661,"SoundDuration":96661,"Delta":168501470},{"NoteNumber":87,"Velocity":73,"Duration":96662,"SoundDuration":96662,"Delta":168598132},{"NoteNumber":96,"Velocity":64,"Duration":98554,"SoundDuration":98554,"Delta":168694794},{"NoteNumber":99,"Velocity":78,"Duration":103662,"SoundDuration":103662,"Delta":168793349},{"NoteNumber":51,"Velocity":37,"Duration":103662,"SoundDuration":103662,"Delta":168793349},{"NoteNumber":57,"Velocity":37,"Duration":103662,"SoundDuration":103662,"Delta":168793349},{"NoteNumber":54,"Velocity":37,"Duration":103662,"SoundDuration":103662,"Delta":168793349},{"NoteNumber":60,"Velocity":44,"Duration":103662,"SoundDuration":103662,"Delta":168793349},{"NoteNumber":85,"Velocity":70,"Duration":95419,"SoundDuration":95419,"Delta":169000674},{"NoteNumber":49,"Velocity":56,"Duration":585919,"SoundDuration":585919,"Delta":169000674},{"NoteNumber":94,"Velocity":61,"Duration":95419,"SoundDuration":95419,"Delta":169096094},{"NoteNumber":85,"Velocity":71,"Duration":95419,"SoundDuration":95419,"Delta":169191514},{"NoteNumber":94,"Velocity":61,"Duration":97911,"SoundDuration":97911,"Delta":169286934},{"NoteNumber":97,"Velocity":78,"Duration":100874,"SoundDuration":100874,"Delta":169384845},{"NoteNumber":53,"Velocity":37,"Duration":100874,"SoundDuration":100874,"Delta":169384845},{"NoteNumber":58,"Velocity":37,"Duration":100874,"SoundDuration":100874,"Delta":169384845},{"NoteNumber":61,"Velocity":44,"Duration":100874,"SoundDuration":100874,"Delta":169384845},{"NoteNumber":82,"Velocity":69,"Duration":96662,"SoundDuration":96662,"Delta":169586593},{"NoteNumber":51,"Velocity":56,"Duration":630314,"SoundDuration":630314,"Delta":169586593},{"NoteNumber":91,"Velocity":60,"Duration":96661,"SoundDuration":96661,"Delta":169683255},{"NoteNumber":82,"Velocity":67,"Duration":96662,"SoundDuration":96662,"Delta":169779917},{"NoteNumber":91,"Velocity":61,"Duration":100549,"SoundDuration":100549,"Delta":169876579},{"NoteNumber":94,"Velocity":75,"Duration":103662,"SoundDuration":103662,"Delta":169977129},{"NoteNumber":55,"Velocity":37,"Duration":103662,"SoundDuration":103662,"Delta":169977129},{"NoteNumber":58,"Velocity":44,"Duration":103662,"SoundDuration":103662,"Delta":169977129},{"NoteNumber":72,"Velocity":49,"Duration":96662,"SoundDuration":96662,"Delta":170216908},{"NoteNumber":40,"Velocity":40,"Duration":390535,"SoundDuration":390535,"Delta":170216908},{"NoteNumber":79,"Velocity":42,"Duration":96661,"SoundDuration":96661,"Delta":170313570},{"NoteNumber":72,"Velocity":49,"Duration":96662,"SoundDuration":96662,"Delta":170410232},{"NoteNumber":79,"Velocity":41,"Duration":100549,"SoundDuration":100549,"Delta":170506894},{"NoteNumber":84,"Velocity":46,"Duration":103662,"SoundDuration":103662,"Delta":170607444},{"NoteNumber":52,"Velocity":27,"Duration":103662,"SoundDuration":103662,"Delta":170607444},{"NoteNumber":60,"Velocity":32,"Duration":103662,"SoundDuration":103662,"Delta":170607444},{"NoteNumber":55,"Velocity":27,"Duration":103662,"SoundDuration":103662,"Delta":170607444},{"NoteNumber":72,"Velocity":49,"Duration":96662,"SoundDuration":96662,"Delta":170814769},{"NoteNumber":40,"Velocity":40,"Duration":390535,"SoundDuration":390535,"Delta":170814769},{"NoteNumber":79,"Velocity":42,"Duration":96661,"SoundDuration":96661,"Delta":170911431},{"NoteNumber":72,"Velocity":49,"Duration":96662,"SoundDuration":96662,"Delta":171008093},{"NoteNumber":79,"Velocity":41,"Duration":100549,"SoundDuration":100549,"Delta":171104755},{"NoteNumber":84,"Velocity":46,"Duration":102249,"SoundDuration":102249,"Delta":171205305},{"NoteNumber":60,"Velocity":32,"Duration":102249,"SoundDuration":102249,"Delta":171205305},{"NoteNumber":55,"Velocity":27,"Duration":102249,"SoundDuration":102249,"Delta":171205305},{"NoteNumber":52,"Velocity":27,"Duration":102249,"SoundDuration":102249,"Delta":171205305},{"NoteNumber":79,"Velocity":49,"Duration":95724,"SoundDuration":95724,"Delta":171409804},{"NoteNumber":40,"Velocity":40,"Duration":385727,"SoundDuration":385727,"Delta":171409804},{"NoteNumber":84,"Velocity":42,"Duration":95724,"SoundDuration":95724,"Delta":171505528},{"NoteNumber":79,"Velocity":49,"Duration":95724,"SoundDuration":95724,"Delta":171601253},{"NoteNumber":84,"Velocity":41,"Duration":98554,"SoundDuration":98554,"Delta":171696977},{"NoteNumber":91,"Velocity":46,"Duration":103662,"SoundDuration":103662,"Delta":171795531},{"NoteNumber":60,"Velocity":32,"Duration":103662,"SoundDuration":103662,"Delta":171795531},{"NoteNumber":52,"Velocity":27,"Duration":103662,"SoundDuration":103662,"Delta":171795531},{"NoteNumber":55,"Velocity":27,"Duration":103662,"SoundDuration":103662,"Delta":171795531},{"NoteNumber":84,"Velocity":49,"Duration":96662,"SoundDuration":96662,"Delta":172002857},{"NoteNumber":40,"Velocity":40,"Duration":390535,"SoundDuration":390535,"Delta":172002857},{"NoteNumber":91,"Velocity":42,"Duration":96661,"SoundDuration":96661,"Delta":172099519},{"NoteNumber":84,"Velocity":49,"Duration":96662,"SoundDuration":96662,"Delta":172196181},{"NoteNumber":91,"Velocity":41,"Duration":100549,"SoundDuration":100549,"Delta":172292843},{"NoteNumber":96,"Velocity":46,"Duration":103662,"SoundDuration":103662,"Delta":172393393},{"NoteNumber":55,"Velocity":27,"Duration":103662,"SoundDuration":103662,"Delta":172393393},{"NoteNumber":52,"Velocity":27,"Duration":103662,"SoundDuration":103662,"Delta":172393393},{"NoteNumber":60,"Velocity":32,"Duration":103662,"SoundDuration":103662,"Delta":172393393},{"NoteNumber":84,"Velocity":53,"Duration":97911,"SoundDuration":97911,"Delta":172600718},{"NoteNumber":39,"Velocity":43,"Duration":391461,"SoundDuration":391461,"Delta":172600718},{"NoteNumber":87,"Velocity":46,"Duration":97911,"SoundDuration":97911,"Delta":172698629},{"NoteNumber":84,"Velocity":58,"Duration":97911,"SoundDuration":97911,"Delta":172796541},{"NoteNumber":87,"Velocity":50,"Duration":97727,"SoundDuration":97727,"Delta":172894452},{"NoteNumber":92,"Velocity":61,"Duration":96385,"SoundDuration":96385,"Delta":172992180},{"NoteNumber":51,"Velocity":27,"Duration":2009737,"SoundDuration":2009737,"Delta":172992180},{"NoteNumber":60,"Velocity":27,"Duration":781938,"SoundDuration":781938,"Delta":172992180},{"NoteNumber":56,"Velocity":27,"Duration":781938,"SoundDuration":781938,"Delta":172992180},{"NoteNumber":91,"Velocity":49,"Duration":96758,"SoundDuration":96758,"Delta":173088565},{"NoteNumber":89,"Velocity":64,"Duration":97134,"SoundDuration":97134,"Delta":173185324},{"NoteNumber":87,"Velocity":51,"Duration":97513,"SoundDuration":97513,"Delta":173282459},{"NoteNumber":85,"Velocity":52,"Duration":97943,"SoundDuration":97943,"Delta":173379972},{"NoteNumber":84,"Velocity":51,"Duration":98344,"SoundDuration":98344,"Delta":173477916},{"NoteNumber":82,"Velocity":50,"Duration":98733,"SoundDuration":98733,"Delta":173576260},{"NoteNumber":80,"Velocity":49,"Duration":99124,"SoundDuration":99124,"Delta":173674994},{"NoteNumber":79,"Velocity":47,"Duration":99568,"SoundDuration":99568,"Delta":173774118},{"NoteNumber":61,"Velocity":32,"Duration":1227798,"SoundDuration":1227798,"Delta":173774118},{"NoteNumber":58,"Velocity":27,"Duration":1227798,"SoundDuration":1227798,"Delta":173774118},{"NoteNumber":77,"Velocity":46,"Duration":99983,"SoundDuration":99983,"Delta":173873687},{"NoteNumber":75,"Velocity":45,"Duration":100385,"SoundDuration":100385,"Delta":173973670},{"NoteNumber":73,"Velocity":44,"Duration":100789,"SoundDuration":100789,"Delta":174074056},{"NoteNumber":72,"Velocity":42,"Duration":101197,"SoundDuration":101197,"Delta":174174845},{"NoteNumber":70,"Velocity":41,"Duration":101214,"SoundDuration":101214,"Delta":174276043},{"NoteNumber":68,"Velocity":40,"Duration":101214,"SoundDuration":101214,"Delta":174377257},{"NoteNumber":67,"Velocity":38,"Duration":101528,"SoundDuration":101528,"Delta":174478472},{"NoteNumber":65,"Velocity":37,"Duration":101830,"SoundDuration":101830,"Delta":174580000},{"NoteNumber":64,"Velocity":36,"Duration":102191,"SoundDuration":102191,"Delta":174681831},{"NoteNumber":63,"Velocity":34,"Duration":217894,"SoundDuration":217894,"Delta":174784022},{"NoteNumber":72,"Velocity":58,"Duration":96662,"SoundDuration":96662,"Delta":175001917},{"NoteNumber":40,"Velocity":48,"Duration":193323,"SoundDuration":193323,"Delta":175001917},{"NoteNumber":79,"Velocity":50,"Duration":96661,"SoundDuration":96661,"Delta":175098579},{"NoteNumber":72,"Velocity":58,"Duration":96662,"SoundDuration":96662,"Delta":175195241},{"NoteNumber":79,"Velocity":49,"Duration":100549,"SoundDuration":100549,"Delta":175291903},{"NoteNumber":84,"Velocity":55,"Duration":103662,"SoundDuration":103662,"Delta":175392453},{"NoteNumber":60,"Velocity":38,"Duration":103662,"SoundDuration":103662,"Delta":175392453},{"NoteNumber":52,"Velocity":32,"Duration":103662,"SoundDuration":103662,"Delta":175392453},{"NoteNumber":55,"Velocity":32,"Duration":103662,"SoundDuration":103662,"Delta":175392453},{"NoteNumber":72,"Velocity":58,"Duration":96662,"SoundDuration":96662,"Delta":175599778},{"NoteNumber":40,"Velocity":48,"Duration":193323,"SoundDuration":193323,"Delta":175599778},{"NoteNumber":79,"Velocity":50,"Duration":96661,"SoundDuration":96661,"Delta":175696440},{"NoteNumber":72,"Velocity":58,"Duration":96662,"SoundDuration":96662,"Delta":175793102},{"NoteNumber":79,"Velocity":49,"Duration":100549,"SoundDuration":100549,"Delta":175889764},{"NoteNumber":84,"Velocity":55,"Duration":102249,"SoundDuration":102249,"Delta":175990314},{"NoteNumber":55,"Velocity":32,"Duration":102249,"SoundDuration":102249,"Delta":175990314},{"NoteNumber":52,"Velocity":32,"Duration":102249,"SoundDuration":102249,"Delta":175990314},{"NoteNumber":60,"Velocity":38,"Duration":102249,"SoundDuration":102249,"Delta":175990314},{"NoteNumber":79,"Velocity":58,"Duration":95724,"SoundDuration":95724,"Delta":176194813},{"NoteNumber":40,"Velocity":48,"Duration":191448,"SoundDuration":191448,"Delta":176194813},{"NoteNumber":84,"Velocity":50,"Duration":95724,"SoundDuration":95724,"Delta":176290537},{"NoteNumber":79,"Velocity":58,"Duration":95724,"SoundDuration":95724,"Delta":176386261},{"NoteNumber":84,"Velocity":49,"Duration":98554,"SoundDuration":98554,"Delta":176481986},{"NoteNumber":91,"Velocity":55,"Duration":103662,"SoundDuration":103662,"Delta":176580540},{"NoteNumber":60,"Velocity":38,"Duration":103662,"SoundDuration":103662,"Delta":176580540},{"NoteNumber":52,"Velocity":32,"Duration":103662,"SoundDuration":103662,"Delta":176580540},{"NoteNumber":55,"Velocity":32,"Duration":103662,"SoundDuration":103662,"Delta":176580540},{"NoteNumber":84,"Velocity":58,"Duration":96662,"SoundDuration":96662,"Delta":176787866},{"NoteNumber":40,"Velocity":48,"Duration":193323,"SoundDuration":193323,"Delta":176787866},{"NoteNumber":91,"Velocity":50,"Duration":96661,"SoundDuration":96661,"Delta":176884528},{"NoteNumber":84,"Velocity":58,"Duration":96662,"SoundDuration":96662,"Delta":176981190},{"NoteNumber":91,"Velocity":49,"Duration":100549,"SoundDuration":100549,"Delta":177077852},{"NoteNumber":96,"Velocity":55,"Duration":103662,"SoundDuration":103662,"Delta":177178401},{"NoteNumber":60,"Velocity":38,"Duration":103662,"SoundDuration":103662,"Delta":177178401},{"NoteNumber":52,"Velocity":32,"Duration":103662,"SoundDuration":103662,"Delta":177178401},{"NoteNumber":55,"Velocity":32,"Duration":103662,"SoundDuration":103662,"Delta":177178401},{"NoteNumber":87,"Velocity":63,"Duration":97911,"SoundDuration":97911,"Delta":177385727},{"NoteNumber":39,"Velocity":51,"Duration":195822,"SoundDuration":195822,"Delta":177385727},{"NoteNumber":92,"Velocity":55,"Duration":97911,"SoundDuration":97911,"Delta":177483638},{"NoteNumber":87,"Velocity":69,"Duration":97911,"SoundDuration":97911,"Delta":177581549},{"NoteNumber":92,"Velocity":60,"Duration":97727,"SoundDuration":97727,"Delta":177679461},{"NoteNumber":96,"Velocity":73,"Duration":96385,"SoundDuration":96385,"Delta":177777188},{"NoteNumber":56,"Velocity":32,"Duration":781938,"SoundDuration":781938,"Delta":177777188},{"NoteNumber":51,"Velocity":32,"Duration":2009737,"SoundDuration":2009737,"Delta":177777188},{"NoteNumber":60,"Velocity":32,"Duration":781938,"SoundDuration":781938,"Delta":177777188},{"NoteNumber":94,"Velocity":58,"Duration":96758,"SoundDuration":96758,"Delta":177873574},{"NoteNumber":92,"Velocity":76,"Duration":97134,"SoundDuration":97134,"Delta":177970333},{"NoteNumber":91,"Velocity":61,"Duration":97513,"SoundDuration":97513,"Delta":178067467},{"NoteNumber":89,"Velocity":62,"Duration":97943,"SoundDuration":97943,"Delta":178164981},{"NoteNumber":87,"Velocity":61,"Duration":98344,"SoundDuration":98344,"Delta":178262924},{"NoteNumber":85,"Velocity":60,"Duration":98733,"SoundDuration":98733,"Delta":178361269},{"NoteNumber":84,"Velocity":58,"Duration":99124,"SoundDuration":99124,"Delta":178460002},{"NoteNumber":82,"Velocity":56,"Duration":99568,"SoundDuration":99568,"Delta":178559127},{"NoteNumber":55,"Velocity":32,"Duration":1227798,"SoundDuration":1227798,"Delta":178559127},{"NoteNumber":61,"Velocity":38,"Duration":1227798,"SoundDuration":1227798,"Delta":178559127},{"NoteNumber":80,"Velocity":55,"Duration":99983,"SoundDuration":99983,"Delta":178658695},{"NoteNumber":79,"Velocity":54,"Duration":100385,"SoundDuration":100385,"Delta":178758679},{"NoteNumber":77,"Velocity":52,"Duration":100789,"SoundDuration":100789,"Delta":178859064},{"NoteNumber":75,"Velocity":50,"Duration":101197,"SoundDuration":101197,"Delta":178959854},{"NoteNumber":73,"Velocity":49,"Duration":101214,"SoundDuration":101214,"Delta":179061051},{"NoteNumber":72,"Velocity":48,"Duration":101214,"SoundDuration":101214,"Delta":179162266},{"NoteNumber":70,"Velocity":45,"Duration":101528,"SoundDuration":101528,"Delta":179263480},{"NoteNumber":68,"Velocity":44,"Duration":67862,"SoundDuration":67862,"Delta":179365009},{"NoteNumber":67,"Velocity":43,"Duration":67992,"SoundDuration":67992,"Delta":179432872},{"NoteNumber":65,"Velocity":42,"Duration":68166,"SoundDuration":68166,"Delta":179500865},{"NoteNumber":63,"Velocity":40,"Duration":217894,"SoundDuration":217894,"Delta":179569031},{"NoteNumber":72,"Velocity":69,"Duration":96662,"SoundDuration":96662,"Delta":179786925},{"NoteNumber":40,"Velocity":57,"Duration":390535,"SoundDuration":390535,"Delta":179786925},{"NoteNumber":79,"Velocity":60,"Duration":96661,"SoundDuration":96661,"Delta":179883587},{"NoteNumber":72,"Velocity":69,"Duration":96662,"SoundDuration":96662,"Delta":179980249},{"NoteNumber":79,"Velocity":58,"Duration":100549,"SoundDuration":100549,"Delta":180076911},{"NoteNumber":84,"Velocity":66,"Duration":103662,"SoundDuration":103662,"Delta":180177461},{"NoteNumber":52,"Velocity":38,"Duration":103662,"SoundDuration":103662,"Delta":180177461},{"NoteNumber":60,"Velocity":45,"Duration":103662,"SoundDuration":103662,"Delta":180177461},{"NoteNumber":55,"Velocity":38,"Duration":103662,"SoundDuration":103662,"Delta":180177461},{"NoteNumber":72,"Velocity":69,"Duration":96662,"SoundDuration":96662,"Delta":180384787},{"NoteNumber":40,"Velocity":57,"Duration":390535,"SoundDuration":390535,"Delta":180384787},{"NoteNumber":79,"Velocity":60,"Duration":96661,"SoundDuration":96661,"Delta":180481449},{"NoteNumber":72,"Velocity":69,"Duration":96662,"SoundDuration":96662,"Delta":180578111},{"NoteNumber":79,"Velocity":58,"Duration":100549,"SoundDuration":100549,"Delta":180674773},{"NoteNumber":84,"Velocity":66,"Duration":102249,"SoundDuration":102249,"Delta":180775322},{"NoteNumber":55,"Velocity":38,"Duration":102249,"SoundDuration":102249,"Delta":180775322},{"NoteNumber":60,"Velocity":45,"Duration":102249,"SoundDuration":102249,"Delta":180775322},{"NoteNumber":52,"Velocity":38,"Duration":102249,"SoundDuration":102249,"Delta":180775322},{"NoteNumber":79,"Velocity":69,"Duration":95724,"SoundDuration":95724,"Delta":180979821},{"NoteNumber":40,"Velocity":57,"Duration":385727,"SoundDuration":385727,"Delta":180979821},{"NoteNumber":84,"Velocity":60,"Duration":95724,"SoundDuration":95724,"Delta":181075546},{"NoteNumber":79,"Velocity":69,"Duration":95724,"SoundDuration":95724,"Delta":181171270},{"NoteNumber":84,"Velocity":58,"Duration":98554,"SoundDuration":98554,"Delta":181266994},{"NoteNumber":91,"Velocity":66,"Duration":103662,"SoundDuration":103662,"Delta":181365549},{"NoteNumber":60,"Velocity":45,"Duration":103662,"SoundDuration":103662,"Delta":181365549},{"NoteNumber":52,"Velocity":38,"Duration":103662,"SoundDuration":103662,"Delta":181365549},{"NoteNumber":55,"Velocity":38,"Duration":103662,"SoundDuration":103662,"Delta":181365549},{"NoteNumber":84,"Velocity":69,"Duration":96662,"SoundDuration":96662,"Delta":181572874},{"NoteNumber":40,"Velocity":57,"Duration":390535,"SoundDuration":390535,"Delta":181572874},{"NoteNumber":91,"Velocity":60,"Duration":96661,"SoundDuration":96661,"Delta":181669536},{"NoteNumber":84,"Velocity":69,"Duration":96662,"SoundDuration":96662,"Delta":181766198},{"NoteNumber":91,"Velocity":58,"Duration":100549,"SoundDuration":100549,"Delta":181862860},{"NoteNumber":96,"Velocity":66,"Duration":103662,"SoundDuration":103662,"Delta":181963410},{"NoteNumber":60,"Velocity":45,"Duration":103662,"SoundDuration":103662,"Delta":181963410},{"NoteNumber":52,"Velocity":38,"Duration":103662,"SoundDuration":103662,"Delta":181963410},{"NoteNumber":55,"Velocity":38,"Duration":103662,"SoundDuration":103662,"Delta":181963410},{"NoteNumber":91,"Velocity":75,"Duration":97911,"SoundDuration":97911,"Delta":182170735},{"NoteNumber":43,"Velocity":61,"Duration":391461,"SoundDuration":391461,"Delta":182170735},{"NoteNumber":96,"Velocity":66,"Duration":97911,"SoundDuration":97911,"Delta":182268647},{"NoteNumber":91,"Velocity":82,"Duration":97911,"SoundDuration":97911,"Delta":182366558},{"NoteNumber":96,"Velocity":72,"Duration":97727,"SoundDuration":97727,"Delta":182464469},{"NoteNumber":100,"Velocity":87,"Duration":96385,"SoundDuration":96385,"Delta":182562197},{"NoteNumber":60,"Velocity":38,"Duration":781938,"SoundDuration":781938,"Delta":182562197},{"NoteNumber":52,"Velocity":38,"Duration":781938,"SoundDuration":781938,"Delta":182562197},{"NoteNumber":55,"Velocity":38,"Duration":781938,"SoundDuration":781938,"Delta":182562197},{"NoteNumber":98,"Velocity":69,"Duration":96758,"SoundDuration":96758,"Delta":182658583},{"NoteNumber":96,"Velocity":87,"Duration":97134,"SoundDuration":97134,"Delta":182755341},{"NoteNumber":95,"Velocity":73,"Duration":97513,"SoundDuration":97513,"Delta":182852476},{"NoteNumber":93,"Velocity":74,"Duration":97943,"SoundDuration":97943,"Delta":182949990},{"NoteNumber":91,"Velocity":73,"Duration":98344,"SoundDuration":98344,"Delta":183047933},{"NoteNumber":89,"Velocity":72,"Duration":98733,"SoundDuration":98733,"Delta":183146278},{"NoteNumber":88,"Velocity":69,"Duration":99124,"SoundDuration":99124,"Delta":183245011},{"NoteNumber":86,"Velocity":67,"Duration":99568,"SoundDuration":99568,"Delta":183344135},{"NoteNumber":53,"Velocity":38,"Duration":1227798,"SoundDuration":1227798,"Delta":183344135},{"NoteNumber":59,"Velocity":45,"Duration":1227798,"SoundDuration":1227798,"Delta":183344135},{"NoteNumber":55,"Velocity":38,"Duration":1227798,"SoundDuration":1227798,"Delta":183344135},{"NoteNumber":84,"Velocity":66,"Duration":99983,"SoundDuration":99983,"Delta":183443704},{"NoteNumber":83,"Velocity":64,"Duration":100385,"SoundDuration":100385,"Delta":183543688},{"NoteNumber":81,"Velocity":62,"Duration":100789,"SoundDuration":100789,"Delta":183644073},{"NoteNumber":79,"Velocity":60,"Duration":68302,"SoundDuration":68302,"Delta":183744863},{"NoteNumber":77,"Velocity":58,"Duration":67476,"SoundDuration":67476,"Delta":183813165},{"NoteNumber":76,"Velocity":57,"Duration":67476,"SoundDuration":67476,"Delta":183879798},{"NoteNumber":74,"Velocity":54,"Duration":101214,"SoundDuration":101214,"Delta":183947275},{"NoteNumber":72,"Velocity":52,"Duration":101528,"SoundDuration":101528,"Delta":184048489},{"NoteNumber":71,"Velocity":51,"Duration":101830,"SoundDuration":101830,"Delta":184150018},{"NoteNumber":69,"Velocity":51,"Duration":102191,"SoundDuration":102191,"Delta":184251848},{"NoteNumber":67,"Velocity":48,"Duration":217894,"SoundDuration":217894,"Delta":184354040},{"NoteNumber":92,"Velocity":76,"Duration":97911,"SoundDuration":97911,"Delta":184571934},{"NoteNumber":39,"Velocity":67,"Duration":195822,"SoundDuration":195822,"Delta":184571934},{"NoteNumber":96,"Velocity":66,"Duration":97911,"SoundDuration":97911,"Delta":184669845},{"NoteNumber":92,"Velocity":71,"Duration":97911,"SoundDuration":97911,"Delta":184767757},{"NoteNumber":96,"Velocity":68,"Duration":97727,"SoundDuration":97727,"Delta":184865668},{"NoteNumber":99,"Velocity":77,"Duration":96385,"SoundDuration":96385,"Delta":184963396},{"NoteNumber":60,"Velocity":61,"Duration":781938,"SoundDuration":781938,"Delta":184963396},{"NoteNumber":51,"Velocity":51,"Duration":1791842,"SoundDuration":1791842,"Delta":184963396},{"NoteNumber":56,"Velocity":51,"Duration":781938,"SoundDuration":781938,"Delta":184963396},{"NoteNumber":97,"Velocity":69,"Duration":96758,"SoundDuration":96758,"Delta":185059781},{"NoteNumber":96,"Velocity":82,"Duration":97134,"SoundDuration":97134,"Delta":185156540},{"NoteNumber":94,"Velocity":71,"Duration":97513,"SoundDuration":97513,"Delta":185253675},{"NoteNumber":92,"Velocity":80,"Duration":97943,"SoundDuration":97943,"Delta":185351188},{"NoteNumber":91,"Velocity":78,"Duration":98344,"SoundDuration":98344,"Delta":185449132},{"NoteNumber":89,"Velocity":77,"Duration":98733,"SoundDuration":98733,"Delta":185547476},{"NoteNumber":87,"Velocity":75,"Duration":99124,"SoundDuration":99124,"Delta":185646210},{"NoteNumber":85,"Velocity":74,"Duration":99568,"SoundDuration":99568,"Delta":185745334},{"NoteNumber":55,"Velocity":51,"Duration":1215566,"SoundDuration":1215566,"Delta":185745334},{"NoteNumber":61,"Velocity":61,"Duration":1009904,"SoundDuration":1009904,"Delta":185745334},{"NoteNumber":58,"Velocity":51,"Duration":1009904,"SoundDuration":1009904,"Delta":185745334},{"NoteNumber":84,"Velocity":72,"Duration":99983,"SoundDuration":99983,"Delta":185844903},{"NoteNumber":82,"Velocity":70,"Duration":100385,"SoundDuration":100385,"Delta":185944886},{"NoteNumber":80,"Velocity":69,"Duration":100789,"SoundDuration":100789,"Delta":186045272},{"NoteNumber":79,"Velocity":67,"Duration":101197,"SoundDuration":101197,"Delta":186146061},{"NoteNumber":77,"Velocity":66,"Duration":101214,"SoundDuration":101214,"Delta":186247259},{"NoteNumber":75,"Velocity":64,"Duration":67476,"SoundDuration":67476,"Delta":186348473},{"NoteNumber":73,"Velocity":61,"Duration":67562,"SoundDuration":67562,"Delta":186415950},{"NoteNumber":72,"Velocity":63,"Duration":67704,"SoundDuration":67704,"Delta":186483512},{"NoteNumber":70,"Velocity":65,"Duration":68712,"SoundDuration":68712,"Delta":186551216},{"NoteNumber":68,"Velocity":66,"Duration":67995,"SoundDuration":67995,"Delta":186619929},{"NoteNumber":67,"Velocity":68,"Duration":68166,"SoundDuration":68166,"Delta":186687072},{"NoteNumber":65,"Velocity":69,"Duration":40940,"SoundDuration":40940,"Delta":186755238},{"NoteNumber":63,"Velocity":70,"Duration":41039,"SoundDuration":41039,"Delta":186796179},{"NoteNumber":61,"Velocity":71,"Duration":41039,"SoundDuration":41039,"Delta":186837219},{"NoteNumber":60,"Velocity":72,"Duration":41162,"SoundDuration":41162,"Delta":186878258},{"NoteNumber":58,"Velocity":73,"Duration":41478,"SoundDuration":41478,"Delta":186919421},{"NoteNumber":56,"Velocity":90,"Duration":209482,"SoundDuration":209482,"Delta":186960900},{"NoteNumber":44,"Velocity":83,"Duration":209482,"SoundDuration":209482,"Delta":186960900},{"NoteNumber":68,"Velocity":77,"Duration":115215,"SoundDuration":115215,"Delta":187170383},{"NoteNumber":56,"Velocity":61,"Duration":115215,"SoundDuration":115215,"Delta":187170383},{"NoteNumber":72,"Velocity":68,"Duration":115215,"SoundDuration":115215,"Delta":187275124},{"NoteNumber":60,"Velocity":53,"Duration":115215,"SoundDuration":115215,"Delta":187275124},{"NoteNumber":75,"Velocity":77,"Duration":113518,"SoundDuration":113518,"Delta":187379865},{"NoteNumber":63,"Velocity":61,"Duration":113518,"SoundDuration":113518,"Delta":187379865},{"NoteNumber":73,"Velocity":74,"Duration":111231,"SoundDuration":111231,"Delta":187483159},{"NoteNumber":61,"Velocity":59,"Duration":111231,"SoundDuration":111231,"Delta":187483159},{"NoteNumber":72,"Velocity":74,"Duration":109489,"SoundDuration":109489,"Delta":187584436},{"NoteNumber":60,"Velocity":59,"Duration":109489,"SoundDuration":109489,"Delta":187584436},{"NoteNumber":70,"Velocity":73,"Duration":109613,"SoundDuration":109613,"Delta":187683972},{"NoteNumber":58,"Velocity":58,"Duration":109613,"SoundDuration":109613,"Delta":187683972},{"NoteNumber":68,"Velocity":72,"Duration":109853,"SoundDuration":109853,"Delta":187783599},{"NoteNumber":56,"Velocity":57,"Duration":109853,"SoundDuration":109853,"Delta":187783599},{"NoteNumber":67,"Velocity":71,"Duration":110103,"SoundDuration":110103,"Delta":187883465},{"NoteNumber":55,"Velocity":57,"Duration":110103,"SoundDuration":110103,"Delta":187883465},{"NoteNumber":65,"Velocity":70,"Duration":110220,"SoundDuration":110220,"Delta":187983549},{"NoteNumber":53,"Velocity":56,"Duration":110220,"SoundDuration":110220,"Delta":187983549},{"NoteNumber":63,"Velocity":69,"Duration":110556,"SoundDuration":110556,"Delta":188083749},{"NoteNumber":51,"Velocity":55,"Duration":110556,"SoundDuration":110556,"Delta":188083749},{"NoteNumber":61,"Velocity":68,"Duration":110716,"SoundDuration":110716,"Delta":188184252},{"NoteNumber":49,"Velocity":53,"Duration":110716,"SoundDuration":110716,"Delta":188184252},{"NoteNumber":60,"Velocity":67,"Duration":110961,"SoundDuration":110961,"Delta":188284881},{"NoteNumber":48,"Velocity":52,"Duration":110961,"SoundDuration":110961,"Delta":188284881},{"NoteNumber":58,"Velocity":66,"Duration":111174,"SoundDuration":111174,"Delta":188385756},{"NoteNumber":46,"Velocity":52,"Duration":111174,"SoundDuration":111174,"Delta":188385756},{"NoteNumber":56,"Velocity":64,"Duration":111335,"SoundDuration":111335,"Delta":188486808},{"NoteNumber":44,"Velocity":51,"Duration":111335,"SoundDuration":111335,"Delta":188486808},{"NoteNumber":55,"Velocity":63,"Duration":111980,"SoundDuration":111980,"Delta":188588023},{"NoteNumber":43,"Velocity":50,"Duration":111980,"SoundDuration":111980,"Delta":188588023},{"NoteNumber":53,"Velocity":62,"Duration":112006,"SoundDuration":112006,"Delta":188689813},{"NoteNumber":41,"Velocity":49,"Duration":112006,"SoundDuration":112006,"Delta":188689813},{"NoteNumber":51,"Velocity":61,"Duration":111712,"SoundDuration":111712,"Delta":188791664},{"NoteNumber":39,"Velocity":48,"Duration":111712,"SoundDuration":111712,"Delta":188791664},{"NoteNumber":53,"Velocity":65,"Duration":111498,"SoundDuration":111498,"Delta":188893221},{"NoteNumber":41,"Velocity":50,"Duration":111498,"SoundDuration":111498,"Delta":188893221},{"NoteNumber":51,"Velocity":67,"Duration":111335,"SoundDuration":111335,"Delta":188994598},{"NoteNumber":39,"Velocity":53,"Duration":111335,"SoundDuration":111335,"Delta":188994598},{"NoteNumber":49,"Velocity":69,"Duration":110995,"SoundDuration":110995,"Delta":189095813},{"NoteNumber":37,"Velocity":55,"Duration":110995,"SoundDuration":110995,"Delta":189095813},{"NoteNumber":48,"Velocity":71,"Duration":110834,"SoundDuration":110834,"Delta":189196721},{"NoteNumber":36,"Velocity":57,"Duration":110834,"SoundDuration":110834,"Delta":189196721},{"NoteNumber":46,"Velocity":73,"Duration":109999,"SoundDuration":109999,"Delta":189297502},{"NoteNumber":34,"Velocity":59,"Duration":109999,"SoundDuration":109999,"Delta":189297502},{"NoteNumber":44,"Velocity":78,"Duration":94631,"SoundDuration":94631,"Delta":189398039},{"NoteNumber":32,"Velocity":62,"Duration":94631,"SoundDuration":94631,"Delta":189398039},{"NoteNumber":48,"Velocity":67,"Duration":94631,"SoundDuration":94631,"Delta":189492670},{"NoteNumber":36,"Velocity":53,"Duration":94631,"SoundDuration":94631,"Delta":189492670},{"NoteNumber":44,"Velocity":78,"Duration":94631,"SoundDuration":94631,"Delta":189587301},{"NoteNumber":32,"Velocity":62,"Duration":94631,"SoundDuration":94631,"Delta":189587301},{"NoteNumber":48,"Velocity":65,"Duration":98032,"SoundDuration":98032,"Delta":189681932},{"NoteNumber":36,"Velocity":52,"Duration":98032,"SoundDuration":98032,"Delta":189681932},{"NoteNumber":51,"Velocity":73,"Duration":104748,"SoundDuration":104748,"Delta":189779965},{"NoteNumber":39,"Velocity":58,"Duration":104748,"SoundDuration":104748,"Delta":189779965},{"NoteNumber":44,"Velocity":78,"Duration":94038,"SoundDuration":94038,"Delta":189989462},{"NoteNumber":32,"Velocity":62,"Duration":94038,"SoundDuration":94038,"Delta":189989462},{"NoteNumber":48,"Velocity":67,"Duration":94037,"SoundDuration":94037,"Delta":190083500},{"NoteNumber":36,"Velocity":53,"Duration":94037,"SoundDuration":94037,"Delta":190083500},{"NoteNumber":44,"Velocity":78,"Duration":94038,"SoundDuration":94038,"Delta":190177538},{"NoteNumber":32,"Velocity":62,"Duration":94038,"SoundDuration":94038,"Delta":190177538},{"NoteNumber":48,"Velocity":65,"Duration":98032,"SoundDuration":98032,"Delta":190271576},{"NoteNumber":36,"Velocity":52,"Duration":98032,"SoundDuration":98032,"Delta":190271576},{"NoteNumber":51,"Velocity":73,"Duration":104748,"SoundDuration":104748,"Delta":190369609},{"NoteNumber":39,"Velocity":58,"Duration":104748,"SoundDuration":104748,"Delta":190369609},{"NoteNumber":44,"Velocity":78,"Duration":94333,"SoundDuration":94333,"Delta":190579106},{"NoteNumber":32,"Velocity":62,"Duration":94333,"SoundDuration":94333,"Delta":190579106},{"NoteNumber":48,"Velocity":67,"Duration":94333,"SoundDuration":94333,"Delta":190673440},{"NoteNumber":36,"Velocity":53,"Duration":94333,"SoundDuration":94333,"Delta":190673440},{"NoteNumber":44,"Velocity":78,"Duration":94333,"SoundDuration":94333,"Delta":190767773},{"NoteNumber":32,"Velocity":62,"Duration":94333,"SoundDuration":94333,"Delta":190767773},{"NoteNumber":48,"Velocity":65,"Duration":97713,"SoundDuration":97713,"Delta":190862107},{"NoteNumber":36,"Velocity":52,"Duration":97713,"SoundDuration":97713,"Delta":190862107},{"NoteNumber":51,"Velocity":73,"Duration":104748,"SoundDuration":104748,"Delta":190959821},{"NoteNumber":39,"Velocity":58,"Duration":104748,"SoundDuration":104748,"Delta":190959821},{"NoteNumber":44,"Velocity":78,"Duration":94333,"SoundDuration":94333,"Delta":191169318},{"NoteNumber":32,"Velocity":62,"Duration":94333,"SoundDuration":94333,"Delta":191169318},{"NoteNumber":48,"Velocity":67,"Duration":94333,"SoundDuration":94333,"Delta":191263651},{"NoteNumber":36,"Velocity":53,"Duration":94333,"SoundDuration":94333,"Delta":191263651},{"NoteNumber":44,"Velocity":78,"Duration":94333,"SoundDuration":94333,"Delta":191357985},{"NoteNumber":32,"Velocity":62,"Duration":94333,"SoundDuration":94333,"Delta":191357985},{"NoteNumber":48,"Velocity":65,"Duration":97713,"SoundDuration":97713,"Delta":191452319},{"NoteNumber":36,"Velocity":52,"Duration":97713,"SoundDuration":97713,"Delta":191452319},{"NoteNumber":51,"Velocity":73,"Duration":104748,"SoundDuration":104748,"Delta":191550032},{"NoteNumber":39,"Velocity":58,"Duration":104748,"SoundDuration":104748,"Delta":191550032},{"NoteNumber":44,"Velocity":70,"Duration":94930,"SoundDuration":94930,"Delta":191759529},{"NoteNumber":32,"Velocity":55,"Duration":189861,"SoundDuration":189861,"Delta":191759529},{"NoteNumber":48,"Velocity":59,"Duration":94930,"SoundDuration":94930,"Delta":191854460},{"NoteNumber":44,"Velocity":67,"Duration":94930,"SoundDuration":94930,"Delta":191949391},{"NoteNumber":48,"Velocity":55,"Duration":98032,"SoundDuration":98032,"Delta":192044322},{"NoteNumber":51,"Velocity":61,"Duration":103655,"SoundDuration":103655,"Delta":192142354},{"NoteNumber":48,"Velocity":62,"Duration":94930,"SoundDuration":94930,"Delta":192349665},{"NoteNumber":51,"Velocity":52,"Duration":94930,"SoundDuration":94930,"Delta":192444596},{"NoteNumber":48,"Velocity":60,"Duration":94930,"SoundDuration":94930,"Delta":192539527},{"NoteNumber":51,"Velocity":48,"Duration":97713,"SoundDuration":97713,"Delta":192634458},{"NoteNumber":56,"Velocity":54,"Duration":103298,"SoundDuration":103298,"Delta":192732171},{"NoteNumber":51,"Velocity":54,"Duration":94631,"SoundDuration":94631,"Delta":192938769},{"NoteNumber":56,"Velocity":46,"Duration":94631,"SoundDuration":94631,"Delta":193033400},{"NoteNumber":51,"Velocity":52,"Duration":94631,"SoundDuration":94631,"Delta":193128031},{"NoteNumber":56,"Velocity":42,"Duration":98032,"SoundDuration":98032,"Delta":193222662},{"NoteNumber":60,"Velocity":46,"Duration":101550,"SoundDuration":101550,"Delta":193320695},{"NoteNumber":56,"Velocity":46,"Duration":95232,"SoundDuration":95232,"Delta":193523796},{"NoteNumber":60,"Velocity":39,"Duration":95231,"SoundDuration":95231,"Delta":193619028},{"NoteNumber":56,"Velocity":44,"Duration":95232,"SoundDuration":95232,"Delta":193714260},{"NoteNumber":60,"Velocity":35,"Duration":100549,"SoundDuration":100549,"Delta":193809492},{"NoteNumber":63,"Velocity":39,"Duration":106982,"SoundDuration":106982,"Delta":193910041},{"NoteNumber":56,"Velocity":46,"Duration":101199,"SoundDuration":101199,"Delta":194124006},{"NoteNumber":60,"Velocity":39,"Duration":100718,"SoundDuration":100718,"Delta":194225206},{"NoteNumber":56,"Velocity":46,"Duration":100166,"SoundDuration":100166,"Delta":194325924},{"NoteNumber":60,"Velocity":39,"Duration":99548,"SoundDuration":99548,"Delta":194426091},{"NoteNumber":63,"Velocity":46,"Duration":99055,"SoundDuration":99055,"Delta":194525639},{"NoteNumber":61,"Velocity":46,"Duration":98521,"SoundDuration":98521,"Delta":194624695},{"NoteNumber":60,"Velocity":42,"Duration":107310,"SoundDuration":107310,"Delta":194723216},{"NoteNumber":58,"Velocity":45,"Duration":107201,"SoundDuration":107201,"Delta":194820787},{"NoteNumber":56,"Velocity":45,"Duration":107484,"SoundDuration":107484,"Delta":194918218},{"NoteNumber":55,"Velocity":44,"Duration":107710,"SoundDuration":107710,"Delta":195015931},{"NoteNumber":53,"Velocity":44,"Duration":107903,"SoundDuration":107903,"Delta":195113839},{"NoteNumber":51,"Velocity":43,"Duration":108189,"SoundDuration":108189,"Delta":195211907},{"NoteNumber":49,"Velocity":43,"Duration":108378,"SoundDuration":108378,"Delta":195310261},{"NoteNumber":48,"Velocity":42,"Duration":108572,"SoundDuration":108572,"Delta":195408772},{"NoteNumber":46,"Velocity":41,"Duration":108898,"SoundDuration":108898,"Delta":195507449},{"NoteNumber":44,"Velocity":41,"Duration":109094,"SoundDuration":109094,"Delta":195606447},{"NoteNumber":43,"Velocity":40,"Duration":109291,"SoundDuration":109291,"Delta":195705609},{"NoteNumber":44,"Velocity":40,"Duration":110177,"SoundDuration":110177,"Delta":195804940},{"NoteNumber":46,"Velocity":40,"Duration":110081,"SoundDuration":110081,"Delta":195905085},{"NoteNumber":48,"Velocity":41,"Duration":109646,"SoundDuration":109646,"Delta":196005167},{"NoteNumber":49,"Velocity":41,"Duration":109242,"SoundDuration":109242,"Delta":196104875},{"NoteNumber":51,"Velocity":42,"Duration":108841,"SoundDuration":108841,"Delta":196204212},{"NoteNumber":53,"Velocity":43,"Duration":108437,"SoundDuration":108437,"Delta":196303186},{"NoteNumber":55,"Velocity":44,"Duration":108042,"SoundDuration":108042,"Delta":196401788},{"NoteNumber":56,"Velocity":45,"Duration":107689,"SoundDuration":107689,"Delta":196500027},{"NoteNumber":58,"Velocity":46,"Duration":97560,"SoundDuration":97560,"Delta":196597945},{"NoteNumber":60,"Velocity":47,"Duration":106912,"SoundDuration":106912,"Delta":196695505},{"NoteNumber":61,"Velocity":50,"Duration":106870,"SoundDuration":106870,"Delta":196792710},{"NoteNumber":63,"Velocity":52,"Duration":109037,"SoundDuration":109037,"Delta":196889783},{"NoteNumber":64,"Velocity":55,"Duration":92631,"SoundDuration":92631,"Delta":196988793},{"NoteNumber":58,"Velocity":58,"Duration":2293244,"SoundDuration":2293244,"Delta":197089898},{"NoteNumber":61,"Velocity":58,"Duration":2293244,"SoundDuration":2293244,"Delta":197089898},{"NoteNumber":64,"Velocity":58,"Duration":2293244,"SoundDuration":2293244,"Delta":197089898},{"NoteNumber":43,"Velocity":70,"Duration":93744,"SoundDuration":93744,"Delta":197672384},{"NoteNumber":46,"Velocity":55,"Duration":93744,"SoundDuration":93744,"Delta":197766128},{"NoteNumber":43,"Velocity":65,"Duration":93744,"SoundDuration":93744,"Delta":197859873},{"NoteNumber":46,"Velocity":56,"Duration":93744,"SoundDuration":93744,"Delta":197953617},{"NoteNumber":49,"Velocity":65,"Duration":97396,"SoundDuration":97396,"Delta":198047361},{"NoteNumber":43,"Velocity":71,"Duration":94038,"SoundDuration":94038,"Delta":198242154},{"NoteNumber":46,"Velocity":54,"Duration":94037,"SoundDuration":94037,"Delta":198336192},{"NoteNumber":43,"Velocity":63,"Duration":94038,"SoundDuration":94038,"Delta":198430230},{"NoteNumber":46,"Velocity":54,"Duration":94037,"SoundDuration":94037,"Delta":198524268},{"NoteNumber":49,"Velocity":66,"Duration":95718,"SoundDuration":95718,"Delta":198618306},{"NoteNumber":43,"Velocity":71,"Duration":94333,"SoundDuration":94333,"Delta":198809742},{"NoteNumber":46,"Velocity":62,"Duration":94333,"SoundDuration":94333,"Delta":198904076},{"NoteNumber":43,"Velocity":66,"Duration":94333,"SoundDuration":94333,"Delta":198998410},{"NoteNumber":46,"Velocity":54,"Duration":94333,"SoundDuration":94333,"Delta":199092743},{"NoteNumber":49,"Velocity":65,"Duration":98032,"SoundDuration":98032,"Delta":199187077},{"NoteNumber":68,"Velocity":46,"Duration":101199,"SoundDuration":101199,"Delta":199971339},{"NoteNumber":72,"Velocity":39,"Duration":100718,"SoundDuration":100718,"Delta":200072539},{"NoteNumber":68,"Velocity":46,"Duration":100166,"SoundDuration":100166,"Delta":200173257},{"NoteNumber":72,"Velocity":39,"Duration":99548,"SoundDuration":99548,"Delta":200273423},{"NoteNumber":75,"Velocity":46,"Duration":99055,"SoundDuration":99055,"Delta":200372972},{"NoteNumber":73,"Velocity":43,"Duration":98521,"SoundDuration":98521,"Delta":200472027},{"NoteNumber":72,"Velocity":45,"Duration":107310,"SoundDuration":107310,"Delta":200570549},{"NoteNumber":70,"Velocity":45,"Duration":97430,"SoundDuration":97430,"Delta":200668120},{"NoteNumber":68,"Velocity":44,"Duration":97713,"SoundDuration":97713,"Delta":200765551},{"NoteNumber":67,"Velocity":44,"Duration":97907,"SoundDuration":97907,"Delta":200863264},{"NoteNumber":65,"Velocity":43,"Duration":98067,"SoundDuration":98067,"Delta":200961172},{"NoteNumber":63,"Velocity":42,"Duration":98354,"SoundDuration":98354,"Delta":201059239},{"NoteNumber":61,"Velocity":42,"Duration":98510,"SoundDuration":98510,"Delta":201157594},{"NoteNumber":60,"Velocity":41,"Duration":98677,"SoundDuration":98677,"Delta":201256104},{"NoteNumber":58,"Velocity":41,"Duration":98997,"SoundDuration":98997,"Delta":201354782},{"NoteNumber":56,"Velocity":40,"Duration":99161,"SoundDuration":99161,"Delta":201453780},{"NoteNumber":55,"Velocity":40,"Duration":99331,"SoundDuration":99331,"Delta":201552942},{"NoteNumber":56,"Velocity":40,"Duration":100144,"SoundDuration":100144,"Delta":201652273},{"NoteNumber":58,"Velocity":41,"Duration":100082,"SoundDuration":100082,"Delta":201752417},{"NoteNumber":60,"Velocity":41,"Duration":99708,"SoundDuration":99708,"Delta":201852500},{"NoteNumber":61,"Velocity":42,"Duration":99336,"SoundDuration":99336,"Delta":201952208},{"NoteNumber":63,"Velocity":42,"Duration":98973,"SoundDuration":98973,"Delta":202051545},{"NoteNumber":65,"Velocity":43,"Duration":98602,"SoundDuration":98602,"Delta":202150518},{"NoteNumber":67,"Velocity":44,"Duration":98239,"SoundDuration":98239,"Delta":202249121},{"NoteNumber":68,"Velocity":44,"Duration":97918,"SoundDuration":97918,"Delta":202347360},{"NoteNumber":70,"Velocity":47,"Duration":97560,"SoundDuration":97560,"Delta":202445278},{"NoteNumber":72,"Velocity":47,"Duration":106912,"SoundDuration":106912,"Delta":202542838},{"NoteNumber":73,"Velocity":50,"Duration":106870,"SoundDuration":106870,"Delta":202640043},{"NoteNumber":75,"Velocity":52,"Duration":109037,"SoundDuration":109037,"Delta":202737115},{"NoteNumber":76,"Velocity":55,"Duration":101105,"SoundDuration":101105,"Delta":202836126},{"NoteNumber":76,"Velocity":58,"Duration":2299577,"SoundDuration":2299577,"Delta":202937231},{"NoteNumber":70,"Velocity":58,"Duration":2299577,"SoundDuration":2299577,"Delta":202937231},{"NoteNumber":73,"Velocity":58,"Duration":2299577,"SoundDuration":2299577,"Delta":202937231},{"NoteNumber":55,"Velocity":70,"Duration":93744,"SoundDuration":93744,"Delta":203519717},{"NoteNumber":58,"Velocity":55,"Duration":93744,"SoundDuration":93744,"Delta":203613461},{"NoteNumber":55,"Velocity":65,"Duration":93744,"SoundDuration":93744,"Delta":203707205},{"NoteNumber":58,"Velocity":56,"Duration":93744,"SoundDuration":93744,"Delta":203800950},{"NoteNumber":61,"Velocity":65,"Duration":95413,"SoundDuration":95413,"Delta":203894694},{"NoteNumber":55,"Velocity":71,"Duration":94038,"SoundDuration":94038,"Delta":204085521},{"NoteNumber":58,"Velocity":54,"Duration":94037,"SoundDuration":94037,"Delta":204179559},{"NoteNumber":55,"Velocity":63,"Duration":94038,"SoundDuration":94038,"Delta":204273597},{"NoteNumber":58,"Velocity":54,"Duration":94037,"SoundDuration":94037,"Delta":204367635},{"NoteNumber":61,"Velocity":66,"Duration":100867,"SoundDuration":100867,"Delta":204461673},{"NoteNumber":55,"Velocity":71,"Duration":94333,"SoundDuration":94333,"Delta":204663408},{"NoteNumber":58,"Velocity":62,"Duration":94333,"SoundDuration":94333,"Delta":204757742},{"NoteNumber":55,"Velocity":66,"Duration":94333,"SoundDuration":94333,"Delta":204852076},{"NoteNumber":58,"Velocity":54,"Duration":94333,"SoundDuration":94333,"Delta":204946410},{"NoteNumber":61,"Velocity":65,"Duration":98032,"SoundDuration":98032,"Delta":205040743},{"NoteNumber":79,"Velocity":42,"Duration":97947,"SoundDuration":97947,"Delta":205825005},{"NoteNumber":82,"Velocity":43,"Duration":97425,"SoundDuration":97425,"Delta":205922953},{"NoteNumber":85,"Velocity":45,"Duration":96874,"SoundDuration":96874,"Delta":206020379},{"NoteNumber":84,"Velocity":46,"Duration":96286,"SoundDuration":96286,"Delta":206117254},{"NoteNumber":82,"Velocity":47,"Duration":95540,"SoundDuration":95540,"Delta":206213540},{"NoteNumber":80,"Velocity":46,"Duration":95884,"SoundDuration":95884,"Delta":206309081},{"NoteNumber":79,"Velocity":45,"Duration":96230,"SoundDuration":96230,"Delta":206404965},{"NoteNumber":77,"Velocity":45,"Duration":96578,"SoundDuration":96578,"Delta":206501195},{"NoteNumber":76,"Velocity":44,"Duration":96929,"SoundDuration":96929,"Delta":206597774},{"NoteNumber":73,"Velocity":43,"Duration":97283,"SoundDuration":97283,"Delta":206694703},{"NoteNumber":72,"Velocity":42,"Duration":97639,"SoundDuration":97639,"Delta":206791987},{"NoteNumber":73,"Velocity":41,"Duration":98003,"SoundDuration":98003,"Delta":206889626},{"NoteNumber":76,"Velocity":43,"Duration":98062,"SoundDuration":98062,"Delta":206987630},{"NoteNumber":77,"Velocity":45,"Duration":97544,"SoundDuration":97544,"Delta":207085692},{"NoteNumber":79,"Velocity":47,"Duration":96958,"SoundDuration":96958,"Delta":207183237},{"NoteNumber":80,"Velocity":48,"Duration":96408,"SoundDuration":96408,"Delta":207280195},{"NoteNumber":82,"Velocity":49,"Duration":95922,"SoundDuration":95922,"Delta":207376603},{"NoteNumber":84,"Velocity":49,"Duration":97108,"SoundDuration":97108,"Delta":207472526},{"NoteNumber":85,"Velocity":53,"Duration":1722569,"SoundDuration":1722569,"Delta":207569635},{"NoteNumber":82,"Velocity":53,"Duration":1722569,"SoundDuration":1722569,"Delta":207569635},{"NoteNumber":79,"Velocity":53,"Duration":1722569,"SoundDuration":1722569,"Delta":207569635},{"NoteNumber":64,"Velocity":42,"Duration":93744,"SoundDuration":93744,"Delta":208152121},{"NoteNumber":67,"Velocity":33,"Duration":93744,"SoundDuration":93744,"Delta":208245865},{"NoteNumber":64,"Velocity":39,"Duration":93744,"SoundDuration":93744,"Delta":208339609},{"NoteNumber":67,"Velocity":33,"Duration":93744,"SoundDuration":93744,"Delta":208433354},{"NoteNumber":70,"Velocity":39,"Duration":97396,"SoundDuration":97396,"Delta":208527098},{"NoteNumber":64,"Velocity":42,"Duration":94038,"SoundDuration":94038,"Delta":208721890},{"NoteNumber":67,"Velocity":32,"Duration":94037,"SoundDuration":94037,"Delta":208815928},{"NoteNumber":64,"Velocity":37,"Duration":94038,"SoundDuration":94038,"Delta":208909966},{"NoteNumber":67,"Velocity":32,"Duration":94037,"SoundDuration":94037,"Delta":209004004},{"NoteNumber":70,"Velocity":39,"Duration":97081,"SoundDuration":97081,"Delta":209098042},{"NoteNumber":88,"Velocity":42,"Duration":97947,"SoundDuration":97947,"Delta":209874690},{"NoteNumber":91,"Velocity":43,"Duration":97425,"SoundDuration":97425,"Delta":209972638},{"NoteNumber":94,"Velocity":45,"Duration":96874,"SoundDuration":96874,"Delta":210070064},{"NoteNumber":92,"Velocity":46,"Duration":96286,"SoundDuration":96286,"Delta":210166939},{"NoteNumber":91,"Velocity":47,"Duration":95540,"SoundDuration":95540,"Delta":210263225},{"NoteNumber":89,"Velocity":46,"Duration":95884,"SoundDuration":95884,"Delta":210358766},{"NoteNumber":88,"Velocity":45,"Duration":96230,"SoundDuration":96230,"Delta":210454650},{"NoteNumber":85,"Velocity":45,"Duration":96578,"SoundDuration":96578,"Delta":210550880},{"NoteNumber":84,"Velocity":44,"Duration":96929,"SoundDuration":96929,"Delta":210647459},{"NoteNumber":82,"Velocity":43,"Duration":97283,"SoundDuration":97283,"Delta":210744388},{"NoteNumber":81,"Velocity":42,"Duration":97639,"SoundDuration":97639,"Delta":210841672},{"NoteNumber":82,"Velocity":41,"Duration":98003,"SoundDuration":98003,"Delta":210939311},{"NoteNumber":84,"Velocity":43,"Duration":98062,"SoundDuration":98062,"Delta":211037315},{"NoteNumber":85,"Velocity":45,"Duration":97544,"SoundDuration":97544,"Delta":211135377},{"NoteNumber":88,"Velocity":47,"Duration":96958,"SoundDuration":96958,"Delta":211232921},{"NoteNumber":89,"Velocity":48,"Duration":96408,"SoundDuration":96408,"Delta":211329880},{"NoteNumber":91,"Velocity":49,"Duration":95922,"SoundDuration":95922,"Delta":211426288},{"NoteNumber":92,"Velocity":49,"Duration":97108,"SoundDuration":97108,"Delta":211522211},{"NoteNumber":88,"Velocity":53,"Duration":1717452,"SoundDuration":1717452,"Delta":211619320},{"NoteNumber":91,"Velocity":53,"Duration":1717452,"SoundDuration":1717452,"Delta":211619320},{"NoteNumber":94,"Velocity":53,"Duration":1717452,"SoundDuration":1717452,"Delta":211619320},{"NoteNumber":72,"Velocity":42,"Duration":93744,"SoundDuration":93744,"Delta":212201806},{"NoteNumber":79,"Velocity":33,"Duration":93744,"SoundDuration":93744,"Delta":212295550},{"NoteNumber":72,"Velocity":39,"Duration":93744,"SoundDuration":93744,"Delta":212389294},{"NoteNumber":79,"Velocity":33,"Duration":93744,"SoundDuration":93744,"Delta":212483039},{"NoteNumber":82,"Velocity":39,"Duration":97396,"SoundDuration":97396,"Delta":212576783},{"NoteNumber":72,"Velocity":42,"Duration":92758,"SoundDuration":92758,"Delta":212771575},{"NoteNumber":79,"Velocity":32,"Duration":92758,"SoundDuration":92758,"Delta":212864334},{"NoteNumber":72,"Velocity":37,"Duration":92758,"SoundDuration":92758,"Delta":212957093},{"NoteNumber":79,"Velocity":32,"Duration":92758,"SoundDuration":92758,"Delta":213049852},{"NoteNumber":82,"Velocity":39,"Duration":97081,"SoundDuration":97081,"Delta":213142610},{"NoteNumber":77,"Velocity":48,"Duration":1747064,"SoundDuration":1747064,"Delta":213919258},{"NoteNumber":80,"Velocity":48,"Duration":1747064,"SoundDuration":1747064,"Delta":213919258},{"NoteNumber":83,"Velocity":48,"Duration":1747064,"SoundDuration":1747064,"Delta":213919258},{"NoteNumber":60,"Velocity":35,"Duration":95535,"SoundDuration":95535,"Delta":214501744},{"NoteNumber":68,"Velocity":28,"Duration":95535,"SoundDuration":95535,"Delta":214597280},{"NoteNumber":60,"Velocity":33,"Duration":95535,"SoundDuration":95535,"Delta":214692815},{"NoteNumber":68,"Velocity":28,"Duration":95535,"SoundDuration":95535,"Delta":214788350},{"NoteNumber":71,"Velocity":33,"Duration":102034,"SoundDuration":102034,"Delta":214883885},{"NoteNumber":60,"Velocity":35,"Duration":93920,"SoundDuration":93920,"Delta":215087953},{"NoteNumber":68,"Velocity":27,"Duration":93920,"SoundDuration":93920,"Delta":215181874},{"NoteNumber":60,"Velocity":31,"Duration":93920,"SoundDuration":93920,"Delta":215275794},{"NoteNumber":68,"Velocity":27,"Duration":93920,"SoundDuration":93920,"Delta":215369714},{"NoteNumber":71,"Velocity":33,"Duration":101344,"SoundDuration":101344,"Delta":215463634},{"NoteNumber":72,"Velocity":38,"Duration":3293267,"SoundDuration":3293267,"Delta":216274390},{"NoteNumber":67,"Velocity":38,"Duration":3293267,"SoundDuration":3293267,"Delta":216274390},{"NoteNumber":64,"Velocity":38,"Duration":3293267,"SoundDuration":3293267,"Delta":216274390},{"NoteNumber":48,"Velocity":28,"Duration":104887,"SoundDuration":104887,"Delta":216895038},{"NoteNumber":55,"Velocity":22,"Duration":104887,"SoundDuration":104887,"Delta":216999926},{"NoteNumber":48,"Velocity":26,"Duration":104887,"SoundDuration":104887,"Delta":217104813},{"NoteNumber":55,"Velocity":22,"Duration":104887,"SoundDuration":104887,"Delta":217209701},{"NoteNumber":60,"Velocity":26,"Duration":223055,"SoundDuration":223055,"Delta":217314589},{"NoteNumber":48,"Velocity":28,"Duration":113304,"SoundDuration":113304,"Delta":217537645},{"NoteNumber":55,"Velocity":21,"Duration":117172,"SoundDuration":117172,"Delta":217650949},{"NoteNumber":48,"Velocity":24,"Duration":120952,"SoundDuration":120952,"Delta":217768122},{"NoteNumber":55,"Velocity":21,"Duration":124984,"SoundDuration":124984,"Delta":217889074},{"NoteNumber":60,"Velocity":26,"Duration":1553598,"SoundDuration":1553598,"Delta":218014059},{"NoteNumber":72,"Velocity":51,"Duration":52554,"SoundDuration":52554,"Delta":219567658},{"NoteNumber":60,"Velocity":43,"Duration":53491,"SoundDuration":53491,"Delta":219782487},{"NoteNumber":72,"Velocity":51,"Duration":55264,"SoundDuration":55264,"Delta":219999999},{"NoteNumber":60,"Velocity":44,"Duration":53682,"SoundDuration":53682,"Delta":220221059},{"NoteNumber":72,"Velocity":51,"Duration":55469,"SoundDuration":55469,"Delta":220439363},{"NoteNumber":60,"Velocity":42,"Duration":57034,"SoundDuration":57034,"Delta":220661240},{"NoteNumber":48,"Velocity":47,"Duration":53112,"SoundDuration":53112,"Delta":220889377},{"NoteNumber":60,"Velocity":39,"Duration":53875,"SoundDuration":53875,"Delta":221106540},{"NoteNumber":48,"Velocity":47,"Duration":55675,"SoundDuration":55675,"Delta":221325641},{"NoteNumber":60,"Velocity":39,"Duration":54069,"SoundDuration":54069,"Delta":221548342},{"NoteNumber":48,"Velocity":47,"Duration":56091,"SoundDuration":56091,"Delta":221768664},{"NoteNumber":60,"Velocity":43,"Duration":56818,"SoundDuration":56818,"Delta":221993030},{"NoteNumber":73,"Velocity":40,"Duration":53301,"SoundDuration":53301,"Delta":222220302},{"NoteNumber":52,"Velocity":35,"Duration":53301,"SoundDuration":53301,"Delta":222220302},{"NoteNumber":48,"Velocity":29,"Duration":53301,"SoundDuration":53301,"Delta":222220302},{"NoteNumber":72,"Velocity":51,"Duration":53301,"SoundDuration":53301,"Delta":222273604},{"NoteNumber":72,"Velocity":45,"Duration":110286,"SoundDuration":110286,"Delta":222443851},{"NoteNumber":60,"Velocity":30,"Duration":55142,"SoundDuration":55142,"Delta":222443851},{"NoteNumber":73,"Velocity":39,"Duration":110286,"SoundDuration":110286,"Delta":222554137},{"NoteNumber":72,"Velocity":46,"Duration":56285,"SoundDuration":56285,"Delta":222664423},{"NoteNumber":52,"Velocity":30,"Duration":56285,"SoundDuration":56285,"Delta":222664423},{"NoteNumber":48,"Velocity":25,"Duration":56285,"SoundDuration":56285,"Delta":222664423},{"NoteNumber":72,"Velocity":49,"Duration":56285,"SoundDuration":56285,"Delta":222892246},{"NoteNumber":60,"Velocity":35,"Duration":56285,"SoundDuration":56285,"Delta":222892246},{"NoteNumber":72,"Velocity":44,"Duration":55142,"SoundDuration":55142,"Delta":223117386},{"NoteNumber":52,"Velocity":31,"Duration":55142,"SoundDuration":55142,"Delta":223117386},{"NoteNumber":48,"Velocity":26,"Duration":55142,"SoundDuration":55142,"Delta":223117386},{"NoteNumber":72,"Velocity":42,"Duration":55142,"SoundDuration":55142,"Delta":223337958},{"NoteNumber":60,"Velocity":31,"Duration":55142,"SoundDuration":55142,"Delta":223337958},{"NoteNumber":73,"Velocity":40,"Duration":53112,"SoundDuration":53112,"Delta":223560858},{"NoteNumber":49,"Velocity":29,"Duration":53112,"SoundDuration":53112,"Delta":223560858},{"NoteNumber":53,"Velocity":35,"Duration":53112,"SoundDuration":53112,"Delta":223560858},{"NoteNumber":72,"Velocity":51,"Duration":53112,"SoundDuration":53112,"Delta":223613971},{"NoteNumber":72,"Velocity":45,"Duration":110286,"SoundDuration":110286,"Delta":223783841},{"NoteNumber":60,"Velocity":30,"Duration":55142,"SoundDuration":55142,"Delta":223783841},{"NoteNumber":73,"Velocity":39,"Duration":110286,"SoundDuration":110286,"Delta":223894127},{"NoteNumber":72,"Velocity":46,"Duration":56285,"SoundDuration":56285,"Delta":224004413},{"NoteNumber":53,"Velocity":30,"Duration":56285,"SoundDuration":56285,"Delta":224004413},{"NoteNumber":49,"Velocity":25,"Duration":56285,"SoundDuration":56285,"Delta":224004413},{"NoteNumber":72,"Velocity":49,"Duration":56285,"SoundDuration":56285,"Delta":224232235},{"NoteNumber":60,"Velocity":35,"Duration":56285,"SoundDuration":56285,"Delta":224232235},{"NoteNumber":72,"Velocity":44,"Duration":55142,"SoundDuration":55142,"Delta":224457376},{"NoteNumber":49,"Velocity":26,"Duration":55142,"SoundDuration":55142,"Delta":224457376},{"NoteNumber":53,"Velocity":31,"Duration":55142,"SoundDuration":55142,"Delta":224457376},{"NoteNumber":72,"Velocity":42,"Duration":55142,"SoundDuration":55142,"Delta":224677948},{"NoteNumber":60,"Velocity":31,"Duration":55142,"SoundDuration":55142,"Delta":224677948},{"NoteNumber":73,"Velocity":40,"Duration":51903,"SoundDuration":51903,"Delta":224903377},{"NoteNumber":55,"Velocity":35,"Duration":51903,"SoundDuration":51903,"Delta":224903377},{"NoteNumber":52,"Velocity":29,"Duration":51903,"SoundDuration":51903,"Delta":224903377},{"NoteNumber":72,"Velocity":51,"Duration":51903,"SoundDuration":51903,"Delta":224955280},{"NoteNumber":72,"Velocity":45,"Duration":110286,"SoundDuration":110286,"Delta":225122732},{"NoteNumber":60,"Velocity":30,"Duration":55142,"SoundDuration":55142,"Delta":225122732},{"NoteNumber":73,"Velocity":39,"Duration":110286,"SoundDuration":110286,"Delta":225233018},{"NoteNumber":72,"Velocity":46,"Duration":56285,"SoundDuration":56285,"Delta":225343304},{"NoteNumber":52,"Velocity":25,"Duration":56285,"SoundDuration":56285,"Delta":225343304},{"NoteNumber":55,"Velocity":30,"Duration":56285,"SoundDuration":56285,"Delta":225343304},{"NoteNumber":73,"Velocity":40,"Duration":56518,"SoundDuration":56518,"Delta":225571126},{"NoteNumber":56,"Velocity":35,"Duration":56518,"SoundDuration":56518,"Delta":225571126},{"NoteNumber":53,"Velocity":29,"Duration":56518,"SoundDuration":56518,"Delta":225571126},{"NoteNumber":72,"Velocity":51,"Duration":56518,"SoundDuration":56518,"Delta":225627645},{"NoteNumber":72,"Velocity":45,"Duration":110286,"SoundDuration":110286,"Delta":225804327},{"NoteNumber":60,"Velocity":30,"Duration":55142,"SoundDuration":55142,"Delta":225804327},{"NoteNumber":73,"Velocity":39,"Duration":110286,"SoundDuration":110286,"Delta":225914613},{"NoteNumber":72,"Velocity":46,"Duration":56285,"SoundDuration":56285,"Delta":226024899},{"NoteNumber":53,"Velocity":25,"Duration":56285,"SoundDuration":56285,"Delta":226024899},{"NoteNumber":56,"Velocity":30,"Duration":56285,"SoundDuration":56285,"Delta":226024899},{"NoteNumber":72,"Velocity":51,"Duration":56818,"SoundDuration":56818,"Delta":226250040},{"NoteNumber":58,"Velocity":33,"Duration":56818,"SoundDuration":56818,"Delta":226250040},{"NoteNumber":55,"Velocity":28,"Duration":56818,"SoundDuration":56818,"Delta":226250040},{"NoteNumber":72,"Velocity":52,"Duration":57262,"SoundDuration":57262,"Delta":226477875},{"NoteNumber":55,"Velocity":30,"Duration":57262,"SoundDuration":57262,"Delta":226477875},{"NoteNumber":58,"Velocity":30,"Duration":57262,"SoundDuration":57262,"Delta":226477875},{"NoteNumber":60,"Velocity":36,"Duration":57262,"SoundDuration":57262,"Delta":226477875},{"NoteNumber":72,"Velocity":54,"Duration":57915,"SoundDuration":57915,"Delta":226707905},{"NoteNumber":55,"Velocity":34,"Duration":57915,"SoundDuration":57915,"Delta":226707905},{"NoteNumber":61,"Velocity":40,"Duration":57915,"SoundDuration":57915,"Delta":226707905},{"NoteNumber":58,"Velocity":34,"Duration":57915,"SoundDuration":57915,"Delta":226707905},{"NoteNumber":72,"Velocity":56,"Duration":58491,"SoundDuration":58491,"Delta":226940375},{"NoteNumber":55,"Velocity":36,"Duration":58491,"SoundDuration":58491,"Delta":226940375},{"NoteNumber":58,"Velocity":36,"Duration":58491,"SoundDuration":58491,"Delta":226940375},{"NoteNumber":62,"Velocity":43,"Duration":58491,"SoundDuration":58491,"Delta":226940375},{"NoteNumber":72,"Velocity":56,"Duration":60024,"SoundDuration":60024,"Delta":227176156},{"NoteNumber":63,"Velocity":40,"Duration":60024,"SoundDuration":60024,"Delta":227176156},{"NoteNumber":55,"Velocity":34,"Duration":60024,"SoundDuration":60024,"Delta":227176156},{"NoteNumber":58,"Velocity":34,"Duration":60024,"SoundDuration":60024,"Delta":227176156},{"NoteNumber":72,"Velocity":53,"Duration":69864,"SoundDuration":69864,"Delta":227419003},{"NoteNumber":55,"Velocity":32,"Duration":69864,"SoundDuration":69864,"Delta":227419003},{"NoteNumber":64,"Velocity":38,"Duration":69864,"SoundDuration":69864,"Delta":227419003},{"NoteNumber":58,"Velocity":32,"Duration":69864,"SoundDuration":69864,"Delta":227419003},{"NoteNumber":73,"Velocity":40,"Duration":54628,"SoundDuration":54628,"Delta":227698161},{"NoteNumber":53,"Velocity":35,"Duration":54628,"SoundDuration":54628,"Delta":227698161},{"NoteNumber":72,"Velocity":51,"Duration":54628,"SoundDuration":54628,"Delta":227752790},{"NoteNumber":72,"Velocity":45,"Duration":106594,"SoundDuration":106594,"Delta":227923563},{"NoteNumber":60,"Velocity":25,"Duration":53297,"SoundDuration":53297,"Delta":227923563},{"NoteNumber":65,"Velocity":30,"Duration":53297,"SoundDuration":53297,"Delta":227923563},{"NoteNumber":56,"Velocity":25,"Duration":53297,"SoundDuration":53297,"Delta":227923563},{"NoteNumber":73,"Velocity":39,"Duration":106594,"SoundDuration":106594,"Delta":228030158},{"NoteNumber":72,"Velocity":46,"Duration":54403,"SoundDuration":54403,"Delta":228136753},{"NoteNumber":53,"Velocity":30,"Duration":54403,"SoundDuration":54403,"Delta":228136753},{"NoteNumber":73,"Velocity":40,"Duration":54403,"SoundDuration":54403,"Delta":228356957},{"NoteNumber":60,"Velocity":29,"Duration":54403,"SoundDuration":54403,"Delta":228356957},{"NoteNumber":65,"Velocity":35,"Duration":54403,"SoundDuration":54403,"Delta":228356957},{"NoteNumber":56,"Velocity":29,"Duration":54403,"SoundDuration":54403,"Delta":228356957},{"NoteNumber":72,"Velocity":49,"Duration":54402,"SoundDuration":54402,"Delta":228411360},{"NoteNumber":72,"Velocity":44,"Duration":106594,"SoundDuration":106594,"Delta":228574569},{"NoteNumber":53,"Velocity":31,"Duration":53297,"SoundDuration":53297,"Delta":228574569},{"NoteNumber":73,"Velocity":36,"Duration":106594,"SoundDuration":106594,"Delta":228681164},{"NoteNumber":72,"Velocity":42,"Duration":53297,"SoundDuration":53297,"Delta":228787758},{"NoteNumber":65,"Velocity":31,"Duration":53297,"SoundDuration":53297,"Delta":228787758},{"NoteNumber":60,"Velocity":26,"Duration":53297,"SoundDuration":53297,"Delta":228787758},{"NoteNumber":56,"Velocity":26,"Duration":53297,"SoundDuration":53297,"Delta":228787758},{"NoteNumber":72,"Velocity":40,"Duration":107527,"SoundDuration":107527,"Delta":229028296},{"NoteNumber":53,"Velocity":35,"Duration":53763,"SoundDuration":53763,"Delta":229028296},{"NoteNumber":71,"Velocity":52,"Duration":98566,"SoundDuration":98566,"Delta":229135823},{"NoteNumber":71,"Velocity":47,"Duration":105263,"SoundDuration":105263,"Delta":229243350},{"NoteNumber":62,"Velocity":31,"Duration":52631,"SoundDuration":52631,"Delta":229243350},{"NoteNumber":59,"Velocity":26,"Duration":52631,"SoundDuration":52631,"Delta":229243350},{"NoteNumber":56,"Velocity":26,"Duration":52631,"SoundDuration":52631,"Delta":229243350},{"NoteNumber":74,"Velocity":40,"Duration":105263,"SoundDuration":105263,"Delta":229348613},{"NoteNumber":72,"Velocity":45,"Duration":108805,"SoundDuration":108805,"Delta":229453876},{"NoteNumber":53,"Velocity":31,"Duration":54403,"SoundDuration":54403,"Delta":229453876},{"NoteNumber":71,"Velocity":36,"Duration":113171,"SoundDuration":113171,"Delta":229562682},{"NoteNumber":72,"Velocity":46,"Duration":61804,"SoundDuration":61804,"Delta":229675853},{"NoteNumber":48,"Velocity":35,"Duration":61804,"SoundDuration":61804,"Delta":229675853},{"NoteNumber":67,"Velocity":39,"Duration":441116,"SoundDuration":441116,"Delta":229923072},{"NoteNumber":60,"Velocity":32,"Duration":53953,"SoundDuration":53953,"Delta":229923072},{"NoteNumber":52,"Velocity":27,"Duration":53953,"SoundDuration":53953,"Delta":229923072},{"NoteNumber":55,"Velocity":27,"Duration":53953,"SoundDuration":53953,"Delta":229923072},{"NoteNumber":48,"Velocity":32,"Duration":53953,"SoundDuration":53953,"Delta":230138884},{"NoteNumber":72,"Velocity":46,"Duration":53517,"SoundDuration":53517,"Delta":230364189},{"NoteNumber":60,"Velocity":35,"Duration":53517,"SoundDuration":53517,"Delta":230364189},{"NoteNumber":55,"Velocity":29,"Duration":53517,"SoundDuration":53517,"Delta":230364189},{"NoteNumber":52,"Velocity":29,"Duration":53517,"SoundDuration":53517,"Delta":230364189},{"NoteNumber":67,"Velocity":39,"Duration":53517,"SoundDuration":53517,"Delta":230578260},{"NoteNumber":48,"Velocity":31,"Duration":53517,"SoundDuration":53517,"Delta":230578260},{"NoteNumber":72,"Velocity":46,"Duration":53517,"SoundDuration":53517,"Delta":230792332},{"NoteNumber":55,"Velocity":26,"Duration":53517,"SoundDuration":53517,"Delta":230792332},{"NoteNumber":52,"Velocity":26,"Duration":53517,"SoundDuration":53517,"Delta":230792332},{"NoteNumber":60,"Velocity":31,"Duration":53517,"SoundDuration":53517,"Delta":230792332},{"NoteNumber":70,"Velocity":46,"Duration":214071,"SoundDuration":214071,"Delta":231006403},{"NoteNumber":49,"Velocity":35,"Duration":53517,"SoundDuration":53517,"Delta":231006403},{"NoteNumber":68,"Velocity":39,"Duration":104902,"SoundDuration":104902,"Delta":231220475},{"NoteNumber":53,"Velocity":26,"Duration":52451,"SoundDuration":52451,"Delta":231220475},{"NoteNumber":61,"Velocity":31,"Duration":52451,"SoundDuration":52451,"Delta":231220475},{"NoteNumber":67,"Velocity":39,"Duration":104902,"SoundDuration":104902,"Delta":231325377},{"NoteNumber":65,"Velocity":43,"Duration":217422,"SoundDuration":217422,"Delta":231430280},{"NoteNumber":49,"Velocity":31,"Duration":52451,"SoundDuration":52451,"Delta":231430280},{"NoteNumber":67,"Velocity":46,"Duration":107035,"SoundDuration":107035,"Delta":231647702},{"NoteNumber":46,"Velocity":35,"Duration":214071,"SoundDuration":214071,"Delta":231647702},{"NoteNumber":70,"Velocity":38,"Duration":107035,"SoundDuration":107035,"Delta":231754738},{"NoteNumber":67,"Velocity":46,"Duration":107035,"SoundDuration":107035,"Delta":231861774},{"NoteNumber":55,"Velocity":28,"Duration":214071,"SoundDuration":214071,"Delta":231861774},{"NoteNumber":58,"Velocity":33,"Duration":214071,"SoundDuration":214071,"Delta":231861774},{"NoteNumber":70,"Velocity":40,"Duration":107035,"SoundDuration":107035,"Delta":231968809},{"NoteNumber":64,"Velocity":46,"Duration":104486,"SoundDuration":104486,"Delta":232075845},{"NoteNumber":48,"Velocity":28,"Duration":104486,"SoundDuration":104486,"Delta":232075845},{"NoteNumber":58,"Velocity":33,"Duration":104486,"SoundDuration":104486,"Delta":232075845},{"NoteNumber":55,"Velocity":28,"Duration":104486,"SoundDuration":104486,"Delta":232075845},{"NoteNumber":67,"Velocity":40,"Duration":109257,"SoundDuration":109257,"Delta":232180331},{"NoteNumber":65,"Velocity":46,"Duration":104902,"SoundDuration":104902,"Delta":232289589},{"NoteNumber":53,"Velocity":34,"Duration":416013,"SoundDuration":416013,"Delta":232289589},{"NoteNumber":56,"Velocity":40,"Duration":416013,"SoundDuration":416013,"Delta":232289589},{"NoteNumber":68,"Velocity":37,"Duration":104504,"SoundDuration":104504,"Delta":232394491},{"NoteNumber":72,"Velocity":42,"Duration":103709,"SoundDuration":103709,"Delta":232498995},{"NoteNumber":77,"Velocity":47,"Duration":102897,"SoundDuration":102897,"Delta":232602705},{"NoteNumber":80,"Velocity":52,"Duration":102100,"SoundDuration":102100,"Delta":232705603},{"NoteNumber":82,"Velocity":57,"Duration":106018,"SoundDuration":106018,"Delta":232807703},{"NoteNumber":84,"Velocity":65,"Duration":54628,"SoundDuration":54628,"Delta":232913721},{"NoteNumber":53,"Velocity":35,"Duration":54628,"SoundDuration":54628,"Delta":232913721},{"NoteNumber":84,"Velocity":54,"Duration":106594,"SoundDuration":106594,"Delta":233138278},{"NoteNumber":60,"Velocity":25,"Duration":53297,"SoundDuration":53297,"Delta":233138278},{"NoteNumber":56,"Velocity":25,"Duration":53297,"SoundDuration":53297,"Delta":233138278},{"NoteNumber":65,"Velocity":30,"Duration":53297,"SoundDuration":53297,"Delta":233138278},{"NoteNumber":85,"Velocity":46,"Duration":106594,"SoundDuration":106594,"Delta":233244872},{"NoteNumber":84,"Velocity":55,"Duration":54175,"SoundDuration":54175,"Delta":233351467},{"NoteNumber":53,"Velocity":30,"Duration":54175,"SoundDuration":54175,"Delta":233351467},{"NoteNumber":85,"Velocity":48,"Duration":52007,"SoundDuration":52007,"Delta":233573382},{"NoteNumber":65,"Velocity":35,"Duration":52007,"SoundDuration":52007,"Delta":233573382},{"NoteNumber":56,"Velocity":29,"Duration":52007,"SoundDuration":52007,"Delta":233573382},{"NoteNumber":60,"Velocity":29,"Duration":52007,"SoundDuration":52007,"Delta":233573382},{"NoteNumber":84,"Velocity":64,"Duration":52007,"SoundDuration":52007,"Delta":233625389},{"NoteNumber":84,"Velocity":52,"Duration":107035,"SoundDuration":107035,"Delta":233787926},{"NoteNumber":53,"Velocity":31,"Duration":53517,"SoundDuration":53517,"Delta":233787926},{"NoteNumber":85,"Velocity":43,"Duration":107035,"SoundDuration":107035,"Delta":233894962},{"NoteNumber":84,"Velocity":50,"Duration":53517,"SoundDuration":53517,"Delta":234001998},{"NoteNumber":56,"Velocity":26,"Duration":53517,"SoundDuration":53517,"Delta":234001998},{"NoteNumber":60,"Velocity":26,"Duration":53517,"SoundDuration":53517,"Delta":234001998},{"NoteNumber":65,"Velocity":31,"Duration":53517,"SoundDuration":53517,"Delta":234001998},{"NoteNumber":84,"Velocity":61,"Duration":108805,"SoundDuration":108805,"Delta":234223468},{"NoteNumber":53,"Velocity":35,"Duration":54403,"SoundDuration":54403,"Delta":234223468},{"NoteNumber":83,"Velocity":48,"Duration":107465,"SoundDuration":107465,"Delta":234332274},{"NoteNumber":89,"Velocity":56,"Duration":105745,"SoundDuration":105745,"Delta":234439739},{"NoteNumber":59,"Velocity":26,"Duration":52872,"SoundDuration":52872,"Delta":234439739},{"NoteNumber":62,"Velocity":31,"Duration":52872,"SoundDuration":52872,"Delta":234439739},{"NoteNumber":56,"Velocity":26,"Duration":52872,"SoundDuration":52872,"Delta":234439739},{"NoteNumber":83,"Velocity":48,"Duration":105745,"SoundDuration":105745,"Delta":234545484},{"NoteNumber":89,"Velocity":54,"Duration":105745,"SoundDuration":105745,"Delta":234651230},{"NoteNumber":53,"Velocity":31,"Duration":52872,"SoundDuration":52872,"Delta":234651230},{"NoteNumber":83,"Velocity":43,"Duration":111641,"SoundDuration":111641,"Delta":234756975},{"NoteNumber":84,"Velocity":55,"Duration":61804,"SoundDuration":61804,"Delta":234868616},{"NoteNumber":48,"Velocity":35,"Duration":61804,"SoundDuration":61804,"Delta":234868616},{"NoteNumber":79,"Velocity":46,"Duration":215811,"SoundDuration":215811,"Delta":235115835},{"NoteNumber":52,"Velocity":27,"Duration":53953,"SoundDuration":53953,"Delta":235115835},{"NoteNumber":60,"Velocity":32,"Duration":53953,"SoundDuration":53953,"Delta":235115835},{"NoteNumber":55,"Velocity":27,"Duration":53953,"SoundDuration":53953,"Delta":235115835},{"NoteNumber":48,"Velocity":32,"Duration":53953,"SoundDuration":53953,"Delta":235331647},{"NoteNumber":84,"Velocity":57,"Duration":51827,"SoundDuration":51827,"Delta":235558696},{"NoteNumber":52,"Velocity":29,"Duration":51827,"SoundDuration":51827,"Delta":235558696},{"NoteNumber":60,"Velocity":35,"Duration":51827,"SoundDuration":51827,"Delta":235558696},{"NoteNumber":55,"Velocity":29,"Duration":51827,"SoundDuration":51827,"Delta":235558696},{"NoteNumber":79,"Velocity":46,"Duration":53491,"SoundDuration":53491,"Delta":235769334},{"NoteNumber":48,"Velocity":31,"Duration":53491,"SoundDuration":53491,"Delta":235769334},{"NoteNumber":84,"Velocity":55,"Duration":53491,"SoundDuration":53491,"Delta":235983299},{"NoteNumber":60,"Velocity":31,"Duration":53491,"SoundDuration":53491,"Delta":235983299},{"NoteNumber":52,"Velocity":26,"Duration":53491,"SoundDuration":53491,"Delta":235983299},{"NoteNumber":55,"Velocity":26,"Duration":53491,"SoundDuration":53491,"Delta":235983299},{"NoteNumber":82,"Velocity":55,"Duration":213965,"SoundDuration":213965,"Delta":236197264},{"NoteNumber":49,"Velocity":35,"Duration":53491,"SoundDuration":53491,"Delta":236197264},{"NoteNumber":80,"Velocity":46,"Duration":104902,"SoundDuration":104902,"Delta":236411229},{"NoteNumber":61,"Velocity":31,"Duration":52451,"SoundDuration":52451,"Delta":236411229},{"NoteNumber":53,"Velocity":26,"Duration":52451,"SoundDuration":52451,"Delta":236411229},{"NoteNumber":79,"Velocity":46,"Duration":104902,"SoundDuration":104902,"Delta":236516131},{"NoteNumber":77,"Velocity":51,"Duration":214607,"SoundDuration":214607,"Delta":236621034},{"NoteNumber":49,"Velocity":31,"Duration":52451,"SoundDuration":52451,"Delta":236621034},{"NoteNumber":79,"Velocity":55,"Duration":107035,"SoundDuration":107035,"Delta":236835641},{"NoteNumber":46,"Velocity":35,"Duration":214071,"SoundDuration":214071,"Delta":236835641},{"NoteNumber":82,"Velocity":45,"Duration":107035,"SoundDuration":107035,"Delta":236942677},{"NoteNumber":79,"Velocity":55,"Duration":105745,"SoundDuration":105745,"Delta":237049713},{"NoteNumber":58,"Velocity":33,"Duration":211490,"SoundDuration":211490,"Delta":237049713},{"NoteNumber":55,"Velocity":28,"Duration":211490,"SoundDuration":211490,"Delta":237049713},{"NoteNumber":82,"Velocity":48,"Duration":105745,"SoundDuration":105745,"Delta":237155458},{"NoteNumber":76,"Velocity":55,"Duration":104486,"SoundDuration":104486,"Delta":237261204},{"NoteNumber":55,"Velocity":28,"Duration":213743,"SoundDuration":213743,"Delta":237261204},{"NoteNumber":48,"Velocity":28,"Duration":213743,"SoundDuration":213743,"Delta":237261204},{"NoteNumber":58,"Velocity":33,"Duration":213743,"SoundDuration":213743,"Delta":237261204},{"NoteNumber":79,"Velocity":48,"Duration":109257,"SoundDuration":109257,"Delta":237365690},{"NoteNumber":77,"Velocity":55,"Duration":209804,"SoundDuration":209804,"Delta":237474948},{"NoteNumber":56,"Velocity":40,"Duration":419610,"SoundDuration":419610,"Delta":237474948},{"NoteNumber":53,"Velocity":34,"Duration":419610,"SoundDuration":419610,"Delta":237474948},{"NoteNumber":65,"Velocity":68,"Duration":104902,"SoundDuration":104902,"Delta":237684753},{"NoteNumber":67,"Velocity":69,"Duration":104902,"SoundDuration":104902,"Delta":237789655},{"NoteNumber":68,"Velocity":71,"Duration":104902,"SoundDuration":104902,"Delta":237894558},{"NoteNumber":70,"Velocity":73,"Duration":109425,"SoundDuration":109425,"Delta":237999460},{"NoteNumber":72,"Velocity":74,"Duration":49930,"SoundDuration":49930,"Delta":238108885},{"NoteNumber":36,"Velocity":60,"Duration":49930,"SoundDuration":49930,"Delta":238108885},{"NoteNumber":60,"Velocity":68,"Duration":51121,"SoundDuration":51121,"Delta":238310988},{"NoteNumber":48,"Velocity":55,"Duration":51121,"SoundDuration":51121,"Delta":238310988},{"NoteNumber":72,"Velocity":75,"Duration":49599,"SoundDuration":49599,"Delta":238519825},{"NoteNumber":36,"Velocity":60,"Duration":49599,"SoundDuration":49599,"Delta":238519825},{"NoteNumber":60,"Velocity":60,"Duration":51121,"SoundDuration":51121,"Delta":238721268},{"NoteNumber":48,"Velocity":53,"Duration":51121,"SoundDuration":51121,"Delta":238721268},{"NoteNumber":72,"Velocity":74,"Duration":51226,"SoundDuration":51226,"Delta":238929256},{"NoteNumber":36,"Velocity":60,"Duration":51226,"SoundDuration":51226,"Delta":238929256},{"NoteNumber":60,"Velocity":60,"Duration":51226,"SoundDuration":51226,"Delta":239134160},{"NoteNumber":48,"Velocity":52,"Duration":51226,"SoundDuration":51226,"Delta":239134160},{"NoteNumber":67,"Velocity":59,"Duration":52451,"SoundDuration":52451,"Delta":239343206},{"NoteNumber":70,"Velocity":59,"Duration":52451,"SoundDuration":52451,"Delta":239343206},{"NoteNumber":36,"Velocity":49,"Duration":52451,"SoundDuration":52451,"Delta":239343206},{"NoteNumber":68,"Velocity":46,"Duration":102451,"SoundDuration":102451,"Delta":239553011},{"NoteNumber":65,"Velocity":46,"Duration":102451,"SoundDuration":102451,"Delta":239553011},{"NoteNumber":48,"Velocity":43,"Duration":51226,"SoundDuration":51226,"Delta":239553011},{"NoteNumber":67,"Velocity":46,"Duration":102451,"SoundDuration":102451,"Delta":239655463},{"NoteNumber":64,"Velocity":46,"Duration":102451,"SoundDuration":102451,"Delta":239655463},{"NoteNumber":68,"Velocity":46,"Duration":102451,"SoundDuration":102451,"Delta":239757915},{"NoteNumber":65,"Velocity":46,"Duration":102451,"SoundDuration":102451,"Delta":239757915},{"NoteNumber":36,"Velocity":43,"Duration":51226,"SoundDuration":51226,"Delta":239757915},{"NoteNumber":67,"Velocity":46,"Duration":102451,"SoundDuration":102451,"Delta":239860367},{"NoteNumber":70,"Velocity":46,"Duration":102451,"SoundDuration":102451,"Delta":239860367},{"NoteNumber":67,"Velocity":52,"Duration":629480,"SoundDuration":629480,"Delta":239962819},{"NoteNumber":64,"Velocity":52,"Duration":629480,"SoundDuration":629480,"Delta":239962819},{"NoteNumber":48,"Velocity":43,"Duration":51624,"SoundDuration":51624,"Delta":239962819},{"NoteNumber":36,"Velocity":41,"Duration":52872,"SoundDuration":52872,"Delta":240169317},{"NoteNumber":48,"Velocity":43,"Duration":52872,"SoundDuration":52872,"Delta":240380808},{"NoteNumber":72,"Velocity":74,"Duration":49930,"SoundDuration":49930,"Delta":240592299},{"NoteNumber":36,"Velocity":60,"Duration":49930,"SoundDuration":49930,"Delta":240592299},{"NoteNumber":60,"Velocity":68,"Duration":51472,"SoundDuration":51472,"Delta":240795104},{"NoteNumber":48,"Velocity":55,"Duration":51472,"SoundDuration":51472,"Delta":240795104},{"NoteNumber":72,"Velocity":75,"Duration":204903,"SoundDuration":204903,"Delta":241010441},{"NoteNumber":36,"Velocity":60,"Duration":204903,"SoundDuration":204903,"Delta":241010441},{"NoteNumber":73,"Velocity":77,"Duration":208197,"SoundDuration":208197,"Delta":241215345},{"NoteNumber":37,"Velocity":60,"Duration":208197,"SoundDuration":208197,"Delta":241215345},{"NoteNumber":61,"Velocity":62,"Duration":51226,"SoundDuration":51226,"Delta":241423543},{"NoteNumber":49,"Velocity":49,"Duration":51226,"SoundDuration":51226,"Delta":241423543},{"NoteNumber":73,"Velocity":74,"Duration":51226,"SoundDuration":51226,"Delta":241628447},{"NoteNumber":37,"Velocity":57,"Duration":51226,"SoundDuration":51226,"Delta":241628447},{"NoteNumber":68,"Velocity":52,"Duration":104902,"SoundDuration":104902,"Delta":241837494},{"NoteNumber":72,"Velocity":52,"Duration":104902,"SoundDuration":104902,"Delta":241837494},{"NoteNumber":36,"Velocity":49,"Duration":52451,"SoundDuration":52451,"Delta":241837494},{"NoteNumber":70,"Velocity":46,"Duration":104902,"SoundDuration":104902,"Delta":241942396},{"NoteNumber":67,"Velocity":46,"Duration":104902,"SoundDuration":104902,"Delta":241942396},{"NoteNumber":68,"Velocity":44,"Duration":102451,"SoundDuration":102451,"Delta":242047299},{"NoteNumber":65,"Velocity":44,"Duration":102451,"SoundDuration":102451,"Delta":242047299},{"NoteNumber":48,"Velocity":43,"Duration":51226,"SoundDuration":51226,"Delta":242047299},{"NoteNumber":70,"Velocity":42,"Duration":102451,"SoundDuration":102451,"Delta":242149751},{"NoteNumber":67,"Velocity":42,"Duration":102451,"SoundDuration":102451,"Delta":242149751},{"NoteNumber":65,"Velocity":40,"Duration":102451,"SoundDuration":102451,"Delta":242252203},{"NoteNumber":68,"Velocity":40,"Duration":102451,"SoundDuration":102451,"Delta":242252203},{"NoteNumber":36,"Velocity":43,"Duration":51226,"SoundDuration":51226,"Delta":242252203},{"NoteNumber":64,"Velocity":38,"Duration":102451,"SoundDuration":102451,"Delta":242354655},{"NoteNumber":67,"Velocity":38,"Duration":102451,"SoundDuration":102451,"Delta":242354655},{"NoteNumber":65,"Velocity":49,"Duration":206498,"SoundDuration":206498,"Delta":242457107},{"NoteNumber":41,"Velocity":43,"Duration":206498,"SoundDuration":206498,"Delta":242457107},{"NoteNumber":77,"Velocity":74,"Duration":104902,"SoundDuration":104902,"Delta":242663605},{"NoteNumber":79,"Velocity":75,"Duration":104902,"SoundDuration":104902,"Delta":242768507},{"NoteNumber":80,"Velocity":78,"Duration":104902,"SoundDuration":104902,"Delta":242873410},{"NoteNumber":82,"Velocity":80,"Duration":104902,"SoundDuration":104902,"Delta":242978312},{"NoteNumber":84,"Velocity":81,"Duration":49930,"SoundDuration":49930,"Delta":243083215},{"NoteNumber":48,"Velocity":60,"Duration":49930,"SoundDuration":49930,"Delta":243083215},{"NoteNumber":72,"Velocity":74,"Duration":51121,"SoundDuration":51121,"Delta":243285317},{"NoteNumber":60,"Velocity":55,"Duration":51121,"SoundDuration":51121,"Delta":243285317},{"NoteNumber":84,"Velocity":82,"Duration":49436,"SoundDuration":49436,"Delta":243494155},{"NoteNumber":48,"Velocity":60,"Duration":49436,"SoundDuration":49436,"Delta":243494155},{"NoteNumber":72,"Velocity":66,"Duration":51121,"SoundDuration":51121,"Delta":243695270},{"NoteNumber":60,"Velocity":53,"Duration":51121,"SoundDuration":51121,"Delta":243695270},{"NoteNumber":84,"Velocity":81,"Duration":51226,"SoundDuration":51226,"Delta":243903258},{"NoteNumber":48,"Velocity":60,"Duration":51226,"SoundDuration":51226,"Delta":243903258},{"NoteNumber":72,"Velocity":66,"Duration":51226,"SoundDuration":51226,"Delta":244108162},{"NoteNumber":60,"Velocity":52,"Duration":51226,"SoundDuration":51226,"Delta":244108162},{"NoteNumber":82,"Velocity":64,"Duration":52451,"SoundDuration":52451,"Delta":244317209},{"NoteNumber":79,"Velocity":64,"Duration":52451,"SoundDuration":52451,"Delta":244317209},{"NoteNumber":59,"Velocity":49,"Duration":52451,"SoundDuration":52451,"Delta":244317209},{"NoteNumber":77,"Velocity":50,"Duration":102451,"SoundDuration":102451,"Delta":244527014},{"NoteNumber":80,"Velocity":50,"Duration":102451,"SoundDuration":102451,"Delta":244527014},{"NoteNumber":47,"Velocity":43,"Duration":51226,"SoundDuration":51226,"Delta":244527014},{"NoteNumber":76,"Velocity":50,"Duration":102451,"SoundDuration":102451,"Delta":244629466},{"NoteNumber":79,"Velocity":50,"Duration":102451,"SoundDuration":102451,"Delta":244629466},{"NoteNumber":77,"Velocity":50,"Duration":102451,"SoundDuration":102451,"Delta":244731918},{"NoteNumber":80,"Velocity":50,"Duration":102451,"SoundDuration":102451,"Delta":244731918},{"NoteNumber":59,"Velocity":43,"Duration":51226,"SoundDuration":51226,"Delta":244731918},{"NoteNumber":79,"Velocity":50,"Duration":102451,"SoundDuration":102451,"Delta":244834370},{"NoteNumber":82,"Velocity":50,"Duration":102451,"SoundDuration":102451,"Delta":244834370},{"NoteNumber":79,"Velocity":57,"Duration":629480,"SoundDuration":629480,"Delta":244936822},{"NoteNumber":76,"Velocity":57,"Duration":629480,"SoundDuration":629480,"Delta":244936822},{"NoteNumber":60,"Velocity":43,"Duration":51624,"SoundDuration":51624,"Delta":244936822},{"NoteNumber":48,"Velocity":41,"Duration":52872,"SoundDuration":52872,"Delta":245143320},{"NoteNumber":60,"Velocity":43,"Duration":52872,"SoundDuration":52872,"Delta":245354811},{"NoteNumber":84,"Velocity":81,"Duration":49599,"SoundDuration":49599,"Delta":245566302},{"NoteNumber":48,"Velocity":60,"Duration":49599,"SoundDuration":49599,"Delta":245566302},{"NoteNumber":72,"Velocity":74,"Duration":51121,"SoundDuration":51121,"Delta":245767744},{"NoteNumber":60,"Velocity":55,"Duration":51121,"SoundDuration":51121,"Delta":245767744},{"NoteNumber":84,"Velocity":82,"Duration":204903,"SoundDuration":204903,"Delta":245976581},{"NoteNumber":48,"Velocity":60,"Duration":204903,"SoundDuration":204903,"Delta":245976581},{"NoteNumber":85,"Velocity":84,"Duration":208197,"SoundDuration":208197,"Delta":246181485},{"NoteNumber":49,"Velocity":60,"Duration":208197,"SoundDuration":208197,"Delta":246181485},{"NoteNumber":73,"Velocity":68,"Duration":51226,"SoundDuration":51226,"Delta":246389683},{"NoteNumber":61,"Velocity":49,"Duration":51226,"SoundDuration":51226,"Delta":246389683},{"NoteNumber":85,"Velocity":81,"Duration":51226,"SoundDuration":51226,"Delta":246594587},{"NoteNumber":49,"Velocity":57,"Duration":51226,"SoundDuration":51226,"Delta":246594587},{"NoteNumber":73,"Velocity":52,"Duration":104902,"SoundDuration":104902,"Delta":246803633},{"NoteNumber":70,"Velocity":52,"Duration":104902,"SoundDuration":104902,"Delta":246803633},{"NoteNumber":61,"Velocity":49,"Duration":52451,"SoundDuration":52451,"Delta":246803633},{"NoteNumber":68,"Velocity":46,"Duration":104902,"SoundDuration":104902,"Delta":246908536},{"NoteNumber":71,"Velocity":46,"Duration":104902,"SoundDuration":104902,"Delta":246908536},{"NoteNumber":66,"Velocity":44,"Duration":102451,"SoundDuration":102451,"Delta":247013438},{"NoteNumber":70,"Velocity":44,"Duration":102451,"SoundDuration":102451,"Delta":247013438},{"NoteNumber":49,"Velocity":43,"Duration":51226,"SoundDuration":51226,"Delta":247013438},{"NoteNumber":68,"Velocity":42,"Duration":102451,"SoundDuration":102451,"Delta":247115890},{"NoteNumber":71,"Velocity":42,"Duration":102451,"SoundDuration":102451,"Delta":247115890},{"NoteNumber":66,"Velocity":40,"Duration":102451,"SoundDuration":102451,"Delta":247218342},{"NoteNumber":70,"Velocity":40,"Duration":102451,"SoundDuration":102451,"Delta":247218342},{"NoteNumber":61,"Velocity":43,"Duration":51226,"SoundDuration":51226,"Delta":247218342},{"NoteNumber":65,"Velocity":38,"Duration":102451,"SoundDuration":102451,"Delta":247320794},{"NoteNumber":68,"Velocity":38,"Duration":102451,"SoundDuration":102451,"Delta":247320794},{"NoteNumber":66,"Velocity":46,"Duration":103249,"SoundDuration":103249,"Delta":247423246},{"NoteNumber":70,"Velocity":46,"Duration":103249,"SoundDuration":103249,"Delta":247423246},{"NoteNumber":49,"Velocity":43,"Duration":103249,"SoundDuration":103249,"Delta":247423246},{"NoteNumber":70,"Velocity":38,"Duration":105745,"SoundDuration":105745,"Delta":247629744},{"NoteNumber":66,"Velocity":38,"Duration":105745,"SoundDuration":105745,"Delta":247629744},{"NoteNumber":61,"Velocity":43,"Duration":105745,"SoundDuration":105745,"Delta":247629744},{"NoteNumber":70,"Velocity":38,"Duration":105745,"SoundDuration":105745,"Delta":247841235},{"NoteNumber":66,"Velocity":38,"Duration":105745,"SoundDuration":105745,"Delta":247841235},{"NoteNumber":49,"Velocity":43,"Duration":105745,"SoundDuration":105745,"Delta":247841235},{"NoteNumber":65,"Velocity":42,"Duration":104902,"SoundDuration":104902,"Delta":248052726},{"NoteNumber":68,"Velocity":50,"Duration":104902,"SoundDuration":104902,"Delta":248052726},{"NoteNumber":71,"Velocity":50,"Duration":104902,"SoundDuration":104902,"Delta":248052726},{"NoteNumber":61,"Velocity":43,"Duration":104902,"SoundDuration":104902,"Delta":248052726},{"NoteNumber":71,"Velocity":51,"Duration":104902,"SoundDuration":104902,"Delta":248262531},{"NoteNumber":68,"Velocity":51,"Duration":104902,"SoundDuration":104902,"Delta":248262531},{"NoteNumber":65,"Velocity":43,"Duration":104902,"SoundDuration":104902,"Delta":248262531},{"NoteNumber":49,"Velocity":43,"Duration":104902,"SoundDuration":104902,"Delta":248262531},{"NoteNumber":68,"Velocity":56,"Duration":104902,"SoundDuration":104902,"Delta":248472336},{"NoteNumber":65,"Velocity":47,"Duration":104902,"SoundDuration":104902,"Delta":248472336},{"NoteNumber":71,"Velocity":56,"Duration":104902,"SoundDuration":104902,"Delta":248472336},{"NoteNumber":61,"Velocity":44,"Duration":104902,"SoundDuration":104902,"Delta":248472336},{"NoteNumber":77,"Velocity":50,"Duration":103662,"SoundDuration":103662,"Delta":248682141},{"NoteNumber":83,"Velocity":59,"Duration":103662,"SoundDuration":103662,"Delta":248682141},{"NoteNumber":80,"Velocity":59,"Duration":103662,"SoundDuration":103662,"Delta":248682141},{"NoteNumber":49,"Velocity":45,"Duration":103662,"SoundDuration":103662,"Delta":248682141},{"NoteNumber":80,"Velocity":64,"Duration":103662,"SoundDuration":103662,"Delta":248889467},{"NoteNumber":77,"Velocity":54,"Duration":103662,"SoundDuration":103662,"Delta":248889467},{"NoteNumber":83,"Velocity":64,"Duration":103662,"SoundDuration":103662,"Delta":248889467},{"NoteNumber":61,"Velocity":50,"Duration":103662,"SoundDuration":103662,"Delta":248889467},{"NoteNumber":83,"Velocity":70,"Duration":103662,"SoundDuration":103662,"Delta":249096792},{"NoteNumber":77,"Velocity":59,"Duration":103662,"SoundDuration":103662,"Delta":249096792},{"NoteNumber":80,"Velocity":70,"Duration":103662,"SoundDuration":103662,"Delta":249096792},{"NoteNumber":49,"Velocity":51,"Duration":103662,"SoundDuration":103662,"Delta":249096792},{"NoteNumber":96,"Velocity":74,"Duration":103662,"SoundDuration":103662,"Delta":249308805},{"NoteNumber":92,"Velocity":62,"Duration":103662,"SoundDuration":103662,"Delta":249308805},{"NoteNumber":48,"Velocity":51,"Duration":103662,"SoundDuration":103662,"Delta":249308805},{"NoteNumber":94,"Velocity":66,"Duration":103662,"SoundDuration":103662,"Delta":249412468},{"NoteNumber":91,"Velocity":56,"Duration":103662,"SoundDuration":103662,"Delta":249412468},{"NoteNumber":89,"Velocity":61,"Duration":103662,"SoundDuration":103662,"Delta":249516131},{"NoteNumber":92,"Velocity":73,"Duration":103662,"SoundDuration":103662,"Delta":249516131},{"NoteNumber":60,"Velocity":53,"Duration":103662,"SoundDuration":103662,"Delta":249516131},{"NoteNumber":91,"Velocity":55,"Duration":103662,"SoundDuration":103662,"Delta":249619794},{"NoteNumber":94,"Velocity":64,"Duration":103662,"SoundDuration":103662,"Delta":249619794},{"NoteNumber":92,"Velocity":73,"Duration":103662,"SoundDuration":103662,"Delta":249723456},{"NoteNumber":89,"Velocity":61,"Duration":103662,"SoundDuration":103662,"Delta":249723456},{"NoteNumber":48,"Velocity":57,"Duration":103662,"SoundDuration":103662,"Delta":249723456},{"NoteNumber":91,"Velocity":64,"Duration":110635,"SoundDuration":110635,"Delta":249827119},{"NoteNumber":88,"Velocity":55,"Duration":110635,"SoundDuration":110635,"Delta":249827119},{"NoteNumber":89,"Velocity":73,"Duration":121832,"SoundDuration":121832,"Delta":249937755},{"NoteNumber":53,"Velocity":60,"Duration":121832,"SoundDuration":121832,"Delta":249937755},{"NoteNumber":91,"Velocity":73,"Duration":51893,"SoundDuration":51893,"Delta":250181419},{"NoteNumber":53,"Velocity":51,"Duration":1037820,"SoundDuration":1037820,"Delta":250181419},{"NoteNumber":64,"Velocity":61,"Duration":1037820,"SoundDuration":1037820,"Delta":250181419},{"NoteNumber":61,"Velocity":51,"Duration":1037820,"SoundDuration":1037820,"Delta":250181419},{"NoteNumber":58,"Velocity":51,"Duration":1037820,"SoundDuration":1037820,"Delta":250181419},{"NoteNumber":92,"Velocity":67,"Duration":52324,"SoundDuration":52324,"Delta":250233313},{"NoteNumber":91,"Velocity":58,"Duration":51948,"SoundDuration":51948,"Delta":250285638},{"NoteNumber":92,"Velocity":54,"Duration":51975,"SoundDuration":51975,"Delta":250337586},{"NoteNumber":91,"Velocity":58,"Duration":52039,"SoundDuration":52039,"Delta":250389562},{"NoteNumber":92,"Velocity":52,"Duration":52374,"SoundDuration":52374,"Delta":250441602},{"NoteNumber":91,"Velocity":58,"Duration":52074,"SoundDuration":52074,"Delta":250493977},{"NoteNumber":92,"Velocity":52,"Duration":51738,"SoundDuration":51738,"Delta":250546052},{"NoteNumber":91,"Velocity":58,"Duration":51577,"SoundDuration":51577,"Delta":250597790},{"NoteNumber":92,"Velocity":52,"Duration":51360,"SoundDuration":51360,"Delta":250649367},{"NoteNumber":91,"Velocity":58,"Duration":68152,"SoundDuration":68152,"Delta":250700728},{"NoteNumber":92,"Velocity":54,"Duration":68310,"SoundDuration":68310,"Delta":250768880},{"NoteNumber":91,"Velocity":58,"Duration":68841,"SoundDuration":68841,"Delta":250837191},{"NoteNumber":90,"Velocity":54,"Duration":51947,"SoundDuration":51947,"Delta":250906032},{"NoteNumber":91,"Velocity":56,"Duration":52288,"SoundDuration":52288,"Delta":250957979},{"NoteNumber":92,"Velocity":64,"Duration":104486,"SoundDuration":104486,"Delta":251010268},{"NoteNumber":91,"Velocity":58,"Duration":104485,"SoundDuration":104485,"Delta":251114754},{"NoteNumber":89,"Velocity":81,"Duration":104486,"SoundDuration":104486,"Delta":251219240},{"NoteNumber":60,"Velocity":52,"Duration":104486,"SoundDuration":104486,"Delta":251219240},{"NoteNumber":53,"Velocity":52,"Duration":104486,"SoundDuration":104486,"Delta":251219240},{"NoteNumber":65,"Velocity":62,"Duration":104486,"SoundDuration":104486,"Delta":251219240},{"NoteNumber":56,"Velocity":52,"Duration":104486,"SoundDuration":104486,"Delta":251219240},{"NoteNumber":79,"Velocity":73,"Duration":52944,"SoundDuration":52944,"Delta":251428212},{"NoteNumber":61,"Velocity":51,"Duration":1048624,"SoundDuration":1048624,"Delta":251428212},{"NoteNumber":53,"Velocity":51,"Duration":1048624,"SoundDuration":1048624,"Delta":251428212},{"NoteNumber":58,"Velocity":51,"Duration":1048624,"SoundDuration":1048624,"Delta":251428212},{"NoteNumber":64,"Velocity":61,"Duration":1048624,"SoundDuration":1048624,"Delta":251428212},{"NoteNumber":80,"Velocity":67,"Duration":53214,"SoundDuration":53214,"Delta":251481156},{"NoteNumber":79,"Velocity":58,"Duration":53012,"SoundDuration":53012,"Delta":251534371},{"NoteNumber":80,"Velocity":54,"Duration":52528,"SoundDuration":52528,"Delta":251587383},{"NoteNumber":79,"Velocity":58,"Duration":52825,"SoundDuration":52825,"Delta":251639911},{"NoteNumber":80,"Velocity":52,"Duration":53214,"SoundDuration":53214,"Delta":251692736},{"NoteNumber":79,"Velocity":58,"Duration":52862,"SoundDuration":52862,"Delta":251745951},{"NoteNumber":80,"Velocity":52,"Duration":52510,"SoundDuration":52510,"Delta":251798813},{"NoteNumber":79,"Velocity":58,"Duration":52187,"SoundDuration":52187,"Delta":251851324},{"NoteNumber":80,"Velocity":52,"Duration":51842,"SoundDuration":51842,"Delta":251903511},{"NoteNumber":79,"Velocity":58,"Duration":68559,"SoundDuration":68559,"Delta":251955353},{"NoteNumber":80,"Velocity":54,"Duration":68779,"SoundDuration":68779,"Delta":252023912},{"NoteNumber":79,"Velocity":58,"Duration":69564,"SoundDuration":69564,"Delta":252092692},{"NoteNumber":78,"Velocity":54,"Duration":52698,"SoundDuration":52698,"Delta":252162257},{"NoteNumber":79,"Velocity":56,"Duration":52909,"SoundDuration":52909,"Delta":252214955},{"NoteNumber":80,"Velocity":64,"Duration":104486,"SoundDuration":104486,"Delta":252267864},{"NoteNumber":79,"Velocity":58,"Duration":104485,"SoundDuration":104485,"Delta":252372350},{"NoteNumber":77,"Velocity":81,"Duration":104486,"SoundDuration":104486,"Delta":252476836},{"NoteNumber":56,"Velocity":52,"Duration":104486,"SoundDuration":104486,"Delta":252476836},{"NoteNumber":53,"Velocity":52,"Duration":104486,"SoundDuration":104486,"Delta":252476836},{"NoteNumber":65,"Velocity":62,"Duration":104486,"SoundDuration":104486,"Delta":252476836},{"NoteNumber":60,"Velocity":52,"Duration":104486,"SoundDuration":104486,"Delta":252476836},{"NoteNumber":91,"Velocity":73,"Duration":51893,"SoundDuration":51893,"Delta":252685808},{"NoteNumber":64,"Velocity":61,"Duration":1063664,"SoundDuration":1063664,"Delta":252685808},{"NoteNumber":58,"Velocity":51,"Duration":1063664,"SoundDuration":1063664,"Delta":252685808},{"NoteNumber":53,"Velocity":51,"Duration":1063664,"SoundDuration":1063664,"Delta":252685808},{"NoteNumber":61,"Velocity":51,"Duration":1063664,"SoundDuration":1063664,"Delta":252685808},{"NoteNumber":92,"Velocity":67,"Duration":52324,"SoundDuration":52324,"Delta":252737702},{"NoteNumber":91,"Velocity":58,"Duration":51948,"SoundDuration":51948,"Delta":252790027},{"NoteNumber":92,"Velocity":54,"Duration":51975,"SoundDuration":51975,"Delta":252841975},{"NoteNumber":91,"Velocity":58,"Duration":52039,"SoundDuration":52039,"Delta":252893951},{"NoteNumber":92,"Velocity":52,"Duration":52374,"SoundDuration":52374,"Delta":252945991},{"NoteNumber":91,"Velocity":58,"Duration":52074,"SoundDuration":52074,"Delta":252998366},{"NoteNumber":92,"Velocity":52,"Duration":52594,"SoundDuration":52594,"Delta":253050440},{"NoteNumber":90,"Velocity":58,"Duration":54389,"SoundDuration":54389,"Delta":253103035},{"NoteNumber":91,"Velocity":53,"Duration":53941,"SoundDuration":53941,"Delta":253157424},{"NoteNumber":92,"Velocity":54,"Duration":53499,"SoundDuration":53499,"Delta":253211366},{"NoteNumber":94,"Velocity":56,"Duration":53024,"SoundDuration":53024,"Delta":253264865},{"NoteNumber":96,"Velocity":57,"Duration":52617,"SoundDuration":52617,"Delta":253317889},{"NoteNumber":97,"Velocity":58,"Duration":52994,"SoundDuration":52994,"Delta":253370507},{"NoteNumber":100,"Velocity":60,"Duration":53377,"SoundDuration":53377,"Delta":253423502},{"NoteNumber":101,"Velocity":62,"Duration":53768,"SoundDuration":53768,"Delta":253476879},{"NoteNumber":100,"Velocity":63,"Duration":36021,"SoundDuration":36021,"Delta":253530648},{"NoteNumber":97,"Velocity":62,"Duration":36210,"SoundDuration":36210,"Delta":253566669},{"NoteNumber":96,"Velocity":61,"Duration":36395,"SoundDuration":36395,"Delta":253603788},{"NoteNumber":94,"Velocity":61,"Duration":36563,"SoundDuration":36563,"Delta":253640184},{"NoteNumber":92,"Velocity":60,"Duration":36747,"SoundDuration":36747,"Delta":253675833},{"NoteNumber":91,"Velocity":59,"Duration":36892,"SoundDuration":36892,"Delta":253712580},{"NoteNumber":89,"Velocity":81,"Duration":110676,"SoundDuration":110676,"Delta":253749473},{"NoteNumber":60,"Velocity":52,"Duration":110676,"SoundDuration":110676,"Delta":253749473},{"NoteNumber":53,"Velocity":52,"Duration":110676,"SoundDuration":110676,"Delta":253749473},{"NoteNumber":65,"Velocity":62,"Duration":110676,"SoundDuration":110676,"Delta":253749473},{"NoteNumber":56,"Velocity":52,"Duration":110676,"SoundDuration":110676,"Delta":253749473},{"NoteNumber":79,"Velocity":73,"Duration":51893,"SoundDuration":51893,"Delta":253970826},{"NoteNumber":61,"Velocity":51,"Duration":1727662,"SoundDuration":1727662,"Delta":253970826},{"NoteNumber":64,"Velocity":61,"Duration":1727662,"SoundDuration":1727662,"Delta":253970826},{"NoteNumber":53,"Velocity":51,"Duration":1727662,"SoundDuration":1727662,"Delta":253970826},{"NoteNumber":58,"Velocity":51,"Duration":1727662,"SoundDuration":1727662,"Delta":253970826},{"NoteNumber":80,"Velocity":67,"Duration":52324,"SoundDuration":52324,"Delta":254022719},{"NoteNumber":79,"Velocity":58,"Duration":51948,"SoundDuration":51948,"Delta":254075044},{"NoteNumber":80,"Velocity":54,"Duration":51975,"SoundDuration":51975,"Delta":254126993},{"NoteNumber":79,"Velocity":58,"Duration":52039,"SoundDuration":52039,"Delta":254178969},{"NoteNumber":80,"Velocity":52,"Duration":52745,"SoundDuration":52745,"Delta":254231008},{"NoteNumber":79,"Velocity":58,"Duration":52942,"SoundDuration":52942,"Delta":254283754},{"NoteNumber":80,"Velocity":52,"Duration":53160,"SoundDuration":53160,"Delta":254336697},{"NoteNumber":78,"Velocity":58,"Duration":44552,"SoundDuration":44552,"Delta":254389857},{"NoteNumber":79,"Velocity":53,"Duration":44435,"SoundDuration":44435,"Delta":254434410},{"NoteNumber":80,"Velocity":54,"Duration":44007,"SoundDuration":44007,"Delta":254478846},{"NoteNumber":82,"Velocity":56,"Duration":43601,"SoundDuration":43601,"Delta":254522853},{"NoteNumber":84,"Velocity":57,"Duration":43012,"SoundDuration":43012,"Delta":254566455},{"NoteNumber":86,"Velocity":58,"Duration":42785,"SoundDuration":42785,"Delta":254609467},{"NoteNumber":88,"Velocity":60,"Duration":42799,"SoundDuration":42799,"Delta":254652253},{"NoteNumber":89,"Velocity":62,"Duration":42799,"SoundDuration":42799,"Delta":254695052},{"NoteNumber":91,"Velocity":62,"Duration":42799,"SoundDuration":42799,"Delta":254737851},{"NoteNumber":89,"Velocity":62,"Duration":42799,"SoundDuration":42799,"Delta":254780650},{"NoteNumber":88,"Velocity":63,"Duration":29424,"SoundDuration":29424,"Delta":254823449},{"NoteNumber":86,"Velocity":63,"Duration":29424,"SoundDuration":29424,"Delta":254852874},{"NoteNumber":84,"Velocity":62,"Duration":29424,"SoundDuration":29424,"Delta":254882298},{"NoteNumber":82,"Velocity":61,"Duration":29424,"SoundDuration":29424,"Delta":254911722},{"NoteNumber":80,"Velocity":61,"Duration":29424,"SoundDuration":29424,"Delta":254941147},{"NoteNumber":79,"Velocity":60,"Duration":29424,"SoundDuration":29424,"Delta":254970571},{"NoteNumber":77,"Velocity":59,"Duration":37365,"SoundDuration":37365,"Delta":254999996},{"NoteNumber":76,"Velocity":58,"Duration":53345,"SoundDuration":53345,"Delta":255037361},{"NoteNumber":73,"Velocity":56,"Duration":53631,"SoundDuration":53631,"Delta":255090707},{"NoteNumber":72,"Velocity":54,"Duration":53971,"SoundDuration":53971,"Delta":255144339},{"NoteNumber":70,"Velocity":52,"Duration":54266,"SoundDuration":54266,"Delta":255198310},{"NoteNumber":68,"Velocity":49,"Duration":54633,"SoundDuration":54633,"Delta":255252577},{"NoteNumber":67,"Velocity":48,"Duration":54980,"SoundDuration":54980,"Delta":255307211},{"NoteNumber":66,"Velocity":45,"Duration":55285,"SoundDuration":55285,"Delta":255362191},{"NoteNumber":67,"Velocity":42,"Duration":55636,"SoundDuration":55636,"Delta":255417476},{"NoteNumber":68,"Velocity":39,"Duration":37304,"SoundDuration":37304,"Delta":255473113},{"NoteNumber":69,"Velocity":40,"Duration":37346,"SoundDuration":37346,"Delta":255510417},{"NoteNumber":70,"Velocity":38,"Duration":37474,"SoundDuration":37474,"Delta":255547764},{"NoteNumber":71,"Velocity":36,"Duration":37603,"SoundDuration":37603,"Delta":255585239},{"NoteNumber":72,"Velocity":34,"Duration":37732,"SoundDuration":37732,"Delta":255622842},{"NoteNumber":73,"Velocity":33,"Duration":37913,"SoundDuration":37913,"Delta":255660575},{"NoteNumber":72,"Velocity":56,"Duration":54628,"SoundDuration":54628,"Delta":255698488},{"NoteNumber":53,"Velocity":35,"Duration":54628,"SoundDuration":54628,"Delta":255698488},{"NoteNumber":72,"Velocity":45,"Duration":106594,"SoundDuration":106594,"Delta":255923890},{"NoteNumber":56,"Velocity":25,"Duration":53297,"SoundDuration":53297,"Delta":255923890},{"NoteNumber":60,"Velocity":25,"Duration":53297,"SoundDuration":53297,"Delta":255923890},{"NoteNumber":65,"Velocity":30,"Duration":53297,"SoundDuration":53297,"Delta":255923890},{"NoteNumber":73,"Velocity":39,"Duration":106594,"SoundDuration":106594,"Delta":256030485},{"NoteNumber":72,"Velocity":46,"Duration":54402,"SoundDuration":54402,"Delta":256137080},{"NoteNumber":53,"Velocity":30,"Duration":54402,"SoundDuration":54402,"Delta":256137080},{"NoteNumber":73,"Velocity":40,"Duration":54402,"SoundDuration":54402,"Delta":256357284},{"NoteNumber":65,"Velocity":35,"Duration":54402,"SoundDuration":54402,"Delta":256357284},{"NoteNumber":60,"Velocity":29,"Duration":54402,"SoundDuration":54402,"Delta":256357284},{"NoteNumber":56,"Velocity":29,"Duration":54402,"SoundDuration":54402,"Delta":256357284},{"NoteNumber":72,"Velocity":49,"Duration":54403,"SoundDuration":54403,"Delta":256411687},{"NoteNumber":72,"Velocity":44,"Duration":106594,"SoundDuration":106594,"Delta":256574896},{"NoteNumber":53,"Velocity":31,"Duration":53297,"SoundDuration":53297,"Delta":256574896},{"NoteNumber":73,"Velocity":36,"Duration":106594,"SoundDuration":106594,"Delta":256681491},{"NoteNumber":72,"Velocity":42,"Duration":53297,"SoundDuration":53297,"Delta":256788086},{"NoteNumber":65,"Velocity":31,"Duration":53297,"SoundDuration":53297,"Delta":256788086},{"NoteNumber":56,"Velocity":26,"Duration":53297,"SoundDuration":53297,"Delta":256788086},{"NoteNumber":60,"Velocity":26,"Duration":53297,"SoundDuration":53297,"Delta":256788086},{"NoteNumber":72,"Velocity":40,"Duration":108806,"SoundDuration":108806,"Delta":257010374},{"NoteNumber":53,"Velocity":35,"Duration":54402,"SoundDuration":54402,"Delta":257010374},{"NoteNumber":71,"Velocity":52,"Duration":99738,"SoundDuration":99738,"Delta":257119180},{"NoteNumber":71,"Velocity":47,"Duration":107465,"SoundDuration":107465,"Delta":257227986},{"NoteNumber":62,"Velocity":31,"Duration":53732,"SoundDuration":53732,"Delta":257227986},{"NoteNumber":59,"Velocity":26,"Duration":53732,"SoundDuration":53732,"Delta":257227986},{"NoteNumber":56,"Velocity":26,"Duration":53732,"SoundDuration":53732,"Delta":257227986},{"NoteNumber":74,"Velocity":40,"Duration":107465,"SoundDuration":107465,"Delta":257335451},{"NoteNumber":72,"Velocity":45,"Duration":108806,"SoundDuration":108806,"Delta":257442916},{"NoteNumber":53,"Velocity":31,"Duration":54402,"SoundDuration":54402,"Delta":257442916},{"NoteNumber":71,"Velocity":36,"Duration":113171,"SoundDuration":113171,"Delta":257551722},{"NoteNumber":72,"Velocity":46,"Duration":61804,"SoundDuration":61804,"Delta":257664894},{"NoteNumber":48,"Velocity":35,"Duration":61804,"SoundDuration":61804,"Delta":257664894},{"NoteNumber":67,"Velocity":39,"Duration":215812,"SoundDuration":215812,"Delta":257912113},{"NoteNumber":52,"Velocity":27,"Duration":53952,"SoundDuration":53952,"Delta":257912113},{"NoteNumber":60,"Velocity":32,"Duration":53952,"SoundDuration":53952,"Delta":257912113},{"NoteNumber":55,"Velocity":27,"Duration":53952,"SoundDuration":53952,"Delta":257912113},{"NoteNumber":48,"Velocity":32,"Duration":53952,"SoundDuration":53952,"Delta":258127925},{"NoteNumber":72,"Velocity":46,"Duration":51827,"SoundDuration":51827,"Delta":258352753},{"NoteNumber":60,"Velocity":35,"Duration":51827,"SoundDuration":51827,"Delta":258352753},{"NoteNumber":52,"Velocity":29,"Duration":51827,"SoundDuration":51827,"Delta":258352753},{"NoteNumber":55,"Velocity":29,"Duration":51827,"SoundDuration":51827,"Delta":258352753},{"NoteNumber":67,"Velocity":39,"Duration":53875,"SoundDuration":53875,"Delta":258564160},{"NoteNumber":48,"Velocity":31,"Duration":53875,"SoundDuration":53875,"Delta":258564160},{"NoteNumber":72,"Velocity":46,"Duration":53875,"SoundDuration":53875,"Delta":258779662},{"NoteNumber":60,"Velocity":31,"Duration":53875,"SoundDuration":53875,"Delta":258779662},{"NoteNumber":52,"Velocity":26,"Duration":53875,"SoundDuration":53875,"Delta":258779662},{"NoteNumber":55,"Velocity":26,"Duration":53875,"SoundDuration":53875,"Delta":258779662},{"NoteNumber":70,"Velocity":46,"Duration":215502,"SoundDuration":215502,"Delta":258995164},{"NoteNumber":49,"Velocity":35,"Duration":53875,"SoundDuration":53875,"Delta":258995164},{"NoteNumber":68,"Velocity":39,"Duration":104902,"SoundDuration":104902,"Delta":259210666},{"NoteNumber":61,"Velocity":31,"Duration":52451,"SoundDuration":52451,"Delta":259210666},{"NoteNumber":53,"Velocity":26,"Duration":52451,"SoundDuration":52451,"Delta":259210666},{"NoteNumber":67,"Velocity":39,"Duration":104902,"SoundDuration":104902,"Delta":259315568},{"NoteNumber":65,"Velocity":43,"Duration":219066,"SoundDuration":219066,"Delta":259420471},{"NoteNumber":49,"Velocity":31,"Duration":52451,"SoundDuration":52451,"Delta":259420471},{"NoteNumber":67,"Velocity":46,"Duration":107035,"SoundDuration":107035,"Delta":259639537},{"NoteNumber":46,"Velocity":35,"Duration":214071,"SoundDuration":214071,"Delta":259639537},{"NoteNumber":70,"Velocity":38,"Duration":107035,"SoundDuration":107035,"Delta":259746573},{"NoteNumber":67,"Velocity":46,"Duration":107035,"SoundDuration":107035,"Delta":259853609},{"NoteNumber":58,"Velocity":33,"Duration":214071,"SoundDuration":214071,"Delta":259853609},{"NoteNumber":55,"Velocity":28,"Duration":214071,"SoundDuration":214071,"Delta":259853609},{"NoteNumber":70,"Velocity":40,"Duration":107035,"SoundDuration":107035,"Delta":259960644},{"NoteNumber":64,"Velocity":46,"Duration":104486,"SoundDuration":104486,"Delta":260067680},{"NoteNumber":48,"Velocity":28,"Duration":104486,"SoundDuration":104486,"Delta":260067680},{"NoteNumber":58,"Velocity":33,"Duration":104486,"SoundDuration":104486,"Delta":260067680},{"NoteNumber":55,"Velocity":28,"Duration":104486,"SoundDuration":104486,"Delta":260067680},{"NoteNumber":67,"Velocity":40,"Duration":109257,"SoundDuration":109257,"Delta":260172166},{"NoteNumber":65,"Velocity":46,"Duration":104902,"SoundDuration":104902,"Delta":260281424},{"NoteNumber":56,"Velocity":40,"Duration":416013,"SoundDuration":416013,"Delta":260281424},{"NoteNumber":53,"Velocity":34,"Duration":416013,"SoundDuration":416013,"Delta":260281424},{"NoteNumber":68,"Velocity":37,"Duration":104504,"SoundDuration":104504,"Delta":260386326},{"NoteNumber":72,"Velocity":42,"Duration":103709,"SoundDuration":103709,"Delta":260490830},{"NoteNumber":77,"Velocity":47,"Duration":102897,"SoundDuration":102897,"Delta":260594540},{"NoteNumber":80,"Velocity":52,"Duration":102100,"SoundDuration":102100,"Delta":260697438},{"NoteNumber":82,"Velocity":57,"Duration":106018,"SoundDuration":106018,"Delta":260799538},{"NoteNumber":84,"Velocity":65,"Duration":54628,"SoundDuration":54628,"Delta":260905556},{"NoteNumber":53,"Velocity":35,"Duration":54628,"SoundDuration":54628,"Delta":260905556},{"NoteNumber":84,"Velocity":54,"Duration":106594,"SoundDuration":106594,"Delta":261130113},{"NoteNumber":65,"Velocity":30,"Duration":53297,"SoundDuration":53297,"Delta":261130113},{"NoteNumber":56,"Velocity":25,"Duration":53297,"SoundDuration":53297,"Delta":261130113},{"NoteNumber":60,"Velocity":25,"Duration":53297,"SoundDuration":53297,"Delta":261130113},{"NoteNumber":85,"Velocity":46,"Duration":106594,"SoundDuration":106594,"Delta":261236707},{"NoteNumber":84,"Velocity":55,"Duration":54175,"SoundDuration":54175,"Delta":261343302},{"NoteNumber":53,"Velocity":30,"Duration":54175,"SoundDuration":54175,"Delta":261343302},{"NoteNumber":85,"Velocity":48,"Duration":54402,"SoundDuration":54402,"Delta":261564289},{"NoteNumber":65,"Velocity":35,"Duration":54402,"SoundDuration":54402,"Delta":261564289},{"NoteNumber":56,"Velocity":29,"Duration":54402,"SoundDuration":54402,"Delta":261564289},{"NoteNumber":60,"Velocity":29,"Duration":54402,"SoundDuration":54402,"Delta":261564289},{"NoteNumber":84,"Velocity":64,"Duration":54403,"SoundDuration":54403,"Delta":261618692},{"NoteNumber":84,"Velocity":52,"Duration":107035,"SoundDuration":107035,"Delta":261781901},{"NoteNumber":53,"Velocity":31,"Duration":53517,"SoundDuration":53517,"Delta":261781901},{"NoteNumber":85,"Velocity":43,"Duration":107035,"SoundDuration":107035,"Delta":261888937},{"NoteNumber":84,"Velocity":50,"Duration":53517,"SoundDuration":53517,"Delta":261995972},{"NoteNumber":65,"Velocity":31,"Duration":53517,"SoundDuration":53517,"Delta":261995972},{"NoteNumber":60,"Velocity":26,"Duration":53517,"SoundDuration":53517,"Delta":261995972},{"NoteNumber":56,"Velocity":26,"Duration":53517,"SoundDuration":53517,"Delta":261995972},{"NoteNumber":84,"Velocity":61,"Duration":108806,"SoundDuration":108806,"Delta":262214778},{"NoteNumber":53,"Velocity":35,"Duration":54402,"SoundDuration":54402,"Delta":262214778},{"NoteNumber":83,"Velocity":48,"Duration":107465,"SoundDuration":107465,"Delta":262323584},{"NoteNumber":89,"Velocity":56,"Duration":105745,"SoundDuration":105745,"Delta":262431050},{"NoteNumber":62,"Velocity":31,"Duration":52872,"SoundDuration":52872,"Delta":262431050},{"NoteNumber":56,"Velocity":26,"Duration":52872,"SoundDuration":52872,"Delta":262431050},{"NoteNumber":59,"Velocity":26,"Duration":52872,"SoundDuration":52872,"Delta":262431050},{"NoteNumber":83,"Velocity":48,"Duration":105745,"SoundDuration":105745,"Delta":262536795},{"NoteNumber":89,"Velocity":54,"Duration":105745,"SoundDuration":105745,"Delta":262642541},{"NoteNumber":53,"Velocity":31,"Duration":52872,"SoundDuration":52872,"Delta":262642541},{"NoteNumber":83,"Velocity":43,"Duration":111641,"SoundDuration":111641,"Delta":262748286},{"NoteNumber":84,"Velocity":55,"Duration":61804,"SoundDuration":61804,"Delta":262859927},{"NoteNumber":48,"Velocity":35,"Duration":61804,"SoundDuration":61804,"Delta":262859927},{"NoteNumber":79,"Velocity":46,"Duration":442860,"SoundDuration":442860,"Delta":263107146},{"NoteNumber":55,"Velocity":27,"Duration":53952,"SoundDuration":53952,"Delta":263107146},{"NoteNumber":52,"Velocity":27,"Duration":53952,"SoundDuration":53952,"Delta":263107146},{"NoteNumber":60,"Velocity":32,"Duration":53952,"SoundDuration":53952,"Delta":263107146},{"NoteNumber":48,"Velocity":32,"Duration":53952,"SoundDuration":53952,"Delta":263322958},{"NoteNumber":84,"Velocity":57,"Duration":50947,"SoundDuration":50947,"Delta":263550006},{"NoteNumber":52,"Velocity":29,"Duration":50947,"SoundDuration":50947,"Delta":263550006},{"NoteNumber":55,"Velocity":29,"Duration":50947,"SoundDuration":50947,"Delta":263550006},{"NoteNumber":60,"Velocity":35,"Duration":50947,"SoundDuration":50947,"Delta":263550006},{"NoteNumber":79,"Velocity":46,"Duration":53301,"SoundDuration":53301,"Delta":263756150},{"NoteNumber":48,"Velocity":31,"Duration":53301,"SoundDuration":53301,"Delta":263756150},{"NoteNumber":84,"Velocity":55,"Duration":53301,"SoundDuration":53301,"Delta":263969355},{"NoteNumber":52,"Velocity":26,"Duration":53301,"SoundDuration":53301,"Delta":263969355},{"NoteNumber":55,"Velocity":26,"Duration":53301,"SoundDuration":53301,"Delta":263969355},{"NoteNumber":60,"Velocity":31,"Duration":53301,"SoundDuration":53301,"Delta":263969355},{"NoteNumber":82,"Velocity":62,"Duration":213204,"SoundDuration":213204,"Delta":264182559},{"NoteNumber":49,"Velocity":35,"Duration":53301,"SoundDuration":53301,"Delta":264182559},{"NoteNumber":80,"Velocity":49,"Duration":104902,"SoundDuration":104902,"Delta":264395764},{"NoteNumber":53,"Velocity":26,"Duration":52451,"SoundDuration":52451,"Delta":264395764},{"NoteNumber":61,"Velocity":31,"Duration":52451,"SoundDuration":52451,"Delta":264395764},{"NoteNumber":79,"Velocity":49,"Duration":104902,"SoundDuration":104902,"Delta":264500666},{"NoteNumber":77,"Velocity":57,"Duration":214607,"SoundDuration":214607,"Delta":264605569},{"NoteNumber":49,"Velocity":31,"Duration":52451,"SoundDuration":52451,"Delta":264605569},{"NoteNumber":82,"Velocity":61,"Duration":51296,"SoundDuration":51296,"Delta":264820177},{"NoteNumber":50,"Velocity":35,"Duration":51296,"SoundDuration":51296,"Delta":264820177},{"NoteNumber":77,"Velocity":48,"Duration":53301,"SoundDuration":53301,"Delta":265029371},{"NoteNumber":62,"Velocity":31,"Duration":53301,"SoundDuration":53301,"Delta":265029371},{"NoteNumber":58,"Velocity":31,"Duration":53301,"SoundDuration":53301,"Delta":265029371},{"NoteNumber":82,"Velocity":57,"Duration":53301,"SoundDuration":53301,"Delta":265242576},{"NoteNumber":50,"Velocity":31,"Duration":53301,"SoundDuration":53301,"Delta":265242576},{"NoteNumber":80,"Velocity":63,"Duration":213204,"SoundDuration":213204,"Delta":265455780},{"NoteNumber":51,"Velocity":39,"Duration":53301,"SoundDuration":53301,"Delta":265455780},{"NoteNumber":79,"Velocity":50,"Duration":104902,"SoundDuration":104902,"Delta":265668985},{"NoteNumber":58,"Velocity":33,"Duration":52451,"SoundDuration":52451,"Delta":265668985},{"NoteNumber":63,"Velocity":33,"Duration":52451,"SoundDuration":52451,"Delta":265668985},{"NoteNumber":77,"Velocity":50,"Duration":104902,"SoundDuration":104902,"Delta":265773887},{"NoteNumber":75,"Velocity":55,"Duration":214607,"SoundDuration":214607,"Delta":265878790},{"NoteNumber":51,"Velocity":33,"Duration":52451,"SoundDuration":52451,"Delta":265878790},{"NoteNumber":80,"Velocity":64,"Duration":50603,"SoundDuration":50603,"Delta":266093397},{"NoteNumber":48,"Velocity":41,"Duration":50603,"SoundDuration":50603,"Delta":266093397},{"NoteNumber":75,"Velocity":49,"Duration":52188,"SoundDuration":52188,"Delta":266298982},{"NoteNumber":60,"Velocity":32,"Duration":52188,"SoundDuration":52188,"Delta":266298982},{"NoteNumber":80,"Velocity":58,"Duration":52242,"SoundDuration":52242,"Delta":266509953},{"NoteNumber":48,"Velocity":31,"Duration":52242,"SoundDuration":52242,"Delta":266509953},{"NoteNumber":81,"Velocity":63,"Duration":50775,"SoundDuration":50775,"Delta":266718925},{"NoteNumber":47,"Velocity":40,"Duration":50775,"SoundDuration":50775,"Delta":266718925},{"NoteNumber":75,"Velocity":53,"Duration":52188,"SoundDuration":52188,"Delta":266924852},{"NoteNumber":59,"Velocity":36,"Duration":52188,"SoundDuration":52188,"Delta":266924852},{"NoteNumber":81,"Velocity":61,"Duration":52036,"SoundDuration":52036,"Delta":267136694},{"NoteNumber":47,"Velocity":36,"Duration":52036,"SoundDuration":52036,"Delta":267136694},{"NoteNumber":82,"Velocity":75,"Duration":51831,"SoundDuration":51831,"Delta":267344840},{"NoteNumber":46,"Velocity":51,"Duration":51831,"SoundDuration":51831,"Delta":267344840},{"NoteNumber":74,"Velocity":69,"Duration":52036,"SoundDuration":52036,"Delta":267555538},{"NoteNumber":77,"Velocity":69,"Duration":52036,"SoundDuration":52036,"Delta":267555538},{"NoteNumber":53,"Velocity":36,"Duration":52036,"SoundDuration":52036,"Delta":267555538},{"NoteNumber":58,"Velocity":36,"Duration":52036,"SoundDuration":52036,"Delta":267555538},{"NoteNumber":62,"Velocity":43,"Duration":52036,"SoundDuration":52036,"Delta":267555538},{"NoteNumber":86,"Velocity":77,"Duration":52036,"SoundDuration":52036,"Delta":267767076},{"NoteNumber":46,"Velocity":57,"Duration":52036,"SoundDuration":52036,"Delta":267767076},{"NoteNumber":77,"Velocity":71,"Duration":51225,"SoundDuration":51225,"Delta":267977744},{"NoteNumber":82,"Velocity":71,"Duration":51225,"SoundDuration":51225,"Delta":267977744},{"NoteNumber":53,"Velocity":39,"Duration":51225,"SoundDuration":51225,"Delta":267977744},{"NoteNumber":62,"Velocity":46,"Duration":51225,"SoundDuration":51225,"Delta":267977744},{"NoteNumber":58,"Velocity":39,"Duration":51225,"SoundDuration":51225,"Delta":267977744},{"NoteNumber":89,"Velocity":83,"Duration":51027,"SoundDuration":51027,"Delta":268185941},{"NoteNumber":46,"Velocity":55,"Duration":51027,"SoundDuration":51027,"Delta":268185941},{"NoteNumber":86,"Velocity":73,"Duration":50247,"SoundDuration":50247,"Delta":268392482},{"NoteNumber":82,"Velocity":73,"Duration":50247,"SoundDuration":50247,"Delta":268392482},{"NoteNumber":53,"Velocity":40,"Duration":50247,"SoundDuration":50247,"Delta":268392482},{"NoteNumber":58,"Velocity":40,"Duration":50247,"SoundDuration":50247,"Delta":268392482},{"NoteNumber":62,"Velocity":48,"Duration":50247,"SoundDuration":50247,"Delta":268392482},{"NoteNumber":92,"Velocity":78,"Duration":101269,"SoundDuration":101269,"Delta":268599143},{"NoteNumber":46,"Velocity":61,"Duration":50634,"SoundDuration":50634,"Delta":268599143},{"NoteNumber":90,"Velocity":66,"Duration":101269,"SoundDuration":101269,"Delta":268700412},{"NoteNumber":89,"Velocity":77,"Duration":101269,"SoundDuration":101269,"Delta":268801681},{"NoteNumber":54,"Velocity":39,"Duration":50634,"SoundDuration":50634,"Delta":268801681},{"NoteNumber":57,"Velocity":39,"Duration":50634,"SoundDuration":50634,"Delta":268801681},{"NoteNumber":63,"Velocity":47,"Duration":50634,"SoundDuration":50634,"Delta":268801681},{"NoteNumber":90,"Velocity":62,"Duration":101269,"SoundDuration":101269,"Delta":268902950},{"NoteNumber":87,"Velocity":69,"Duration":101269,"SoundDuration":101269,"Delta":269004220},{"NoteNumber":46,"Velocity":60,"Duration":50634,"SoundDuration":50634,"Delta":269004220},{"NoteNumber":84,"Velocity":66,"Duration":101269,"SoundDuration":101269,"Delta":269206758},{"NoteNumber":57,"Velocity":48,"Duration":50634,"SoundDuration":50634,"Delta":269206758},{"NoteNumber":63,"Velocity":57,"Duration":50634,"SoundDuration":50634,"Delta":269206758},{"NoteNumber":54,"Velocity":48,"Duration":50634,"SoundDuration":50634,"Delta":269206758},{"NoteNumber":81,"Velocity":61,"Duration":101269,"SoundDuration":101269,"Delta":269409297},{"NoteNumber":46,"Velocity":46,"Duration":50634,"SoundDuration":50634,"Delta":269409297},{"NoteNumber":78,"Velocity":52,"Duration":101269,"SoundDuration":101269,"Delta":269611835},{"NoteNumber":63,"Velocity":45,"Duration":50634,"SoundDuration":50634,"Delta":269611835},{"NoteNumber":57,"Velocity":38,"Duration":50634,"SoundDuration":50634,"Delta":269611835},{"NoteNumber":54,"Velocity":38,"Duration":50634,"SoundDuration":50634,"Delta":269611835},{"NoteNumber":82,"Velocity":75,"Duration":51831,"SoundDuration":51831,"Delta":269814374},{"NoteNumber":46,"Velocity":51,"Duration":51831,"SoundDuration":51831,"Delta":269814374},{"NoteNumber":77,"Velocity":69,"Duration":52036,"SoundDuration":52036,"Delta":270025072},{"NoteNumber":74,"Velocity":69,"Duration":52036,"SoundDuration":52036,"Delta":270025072},{"NoteNumber":58,"Velocity":36,"Duration":52036,"SoundDuration":52036,"Delta":270025072},{"NoteNumber":53,"Velocity":36,"Duration":52036,"SoundDuration":52036,"Delta":270025072},{"NoteNumber":62,"Velocity":43,"Duration":52036,"SoundDuration":52036,"Delta":270025072},{"NoteNumber":86,"Velocity":77,"Duration":52036,"SoundDuration":52036,"Delta":270236610},{"NoteNumber":46,"Velocity":57,"Duration":52036,"SoundDuration":52036,"Delta":270236610},{"NoteNumber":82,"Velocity":71,"Duration":51225,"SoundDuration":51225,"Delta":270447278},{"NoteNumber":77,"Velocity":71,"Duration":51225,"SoundDuration":51225,"Delta":270447278},{"NoteNumber":62,"Velocity":46,"Duration":51225,"SoundDuration":51225,"Delta":270447278},{"NoteNumber":58,"Velocity":39,"Duration":51225,"SoundDuration":51225,"Delta":270447278},{"NoteNumber":53,"Velocity":39,"Duration":51225,"SoundDuration":51225,"Delta":270447278},{"NoteNumber":89,"Velocity":83,"Duration":51027,"SoundDuration":51027,"Delta":270655475},{"NoteNumber":46,"Velocity":55,"Duration":51027,"SoundDuration":51027,"Delta":270655475},{"NoteNumber":86,"Velocity":73,"Duration":50247,"SoundDuration":50247,"Delta":270862016},{"NoteNumber":82,"Velocity":73,"Duration":50247,"SoundDuration":50247,"Delta":270862016},{"NoteNumber":58,"Velocity":40,"Duration":50247,"SoundDuration":50247,"Delta":270862016},{"NoteNumber":53,"Velocity":40,"Duration":50247,"SoundDuration":50247,"Delta":270862016},{"NoteNumber":62,"Velocity":48,"Duration":50247,"SoundDuration":50247,"Delta":270862016},{"NoteNumber":92,"Velocity":78,"Duration":98872,"SoundDuration":98872,"Delta":271068676},{"NoteNumber":46,"Velocity":61,"Duration":49436,"SoundDuration":49436,"Delta":271068676},{"NoteNumber":90,"Velocity":66,"Duration":98872,"SoundDuration":98872,"Delta":271167549},{"NoteNumber":89,"Velocity":77,"Duration":101207,"SoundDuration":101207,"Delta":271266422},{"NoteNumber":57,"Velocity":39,"Duration":50603,"SoundDuration":50603,"Delta":271266422},{"NoteNumber":54,"Velocity":39,"Duration":50603,"SoundDuration":50603,"Delta":271266422},{"NoteNumber":63,"Velocity":47,"Duration":50603,"SoundDuration":50603,"Delta":271266422},{"NoteNumber":90,"Velocity":62,"Duration":101207,"SoundDuration":101207,"Delta":271367630},{"NoteNumber":87,"Velocity":69,"Duration":101207,"SoundDuration":101207,"Delta":271468837},{"NoteNumber":46,"Velocity":60,"Duration":50603,"SoundDuration":50603,"Delta":271468837},{"NoteNumber":84,"Velocity":66,"Duration":101269,"SoundDuration":101269,"Delta":271671253},{"NoteNumber":54,"Velocity":48,"Duration":50634,"SoundDuration":50634,"Delta":271671253},{"NoteNumber":57,"Velocity":48,"Duration":50634,"SoundDuration":50634,"Delta":271671253},{"NoteNumber":63,"Velocity":57,"Duration":50634,"SoundDuration":50634,"Delta":271671253},{"NoteNumber":81,"Velocity":61,"Duration":101895,"SoundDuration":101895,"Delta":271873791},{"NoteNumber":46,"Velocity":46,"Duration":50947,"SoundDuration":50947,"Delta":271873791},{"NoteNumber":78,"Velocity":52,"Duration":101895,"SoundDuration":101895,"Delta":272077582},{"NoteNumber":57,"Velocity":38,"Duration":50947,"SoundDuration":50947,"Delta":272077582},{"NoteNumber":54,"Velocity":38,"Duration":50947,"SoundDuration":50947,"Delta":272077582},{"NoteNumber":63,"Velocity":45,"Duration":50947,"SoundDuration":50947,"Delta":272077582},{"NoteNumber":82,"Velocity":75,"Duration":51831,"SoundDuration":51831,"Delta":272281372},{"NoteNumber":46,"Velocity":51,"Duration":51831,"SoundDuration":51831,"Delta":272281372},{"NoteNumber":77,"Velocity":69,"Duration":52036,"SoundDuration":52036,"Delta":272492071},{"NoteNumber":74,"Velocity":69,"Duration":52036,"SoundDuration":52036,"Delta":272492071},{"NoteNumber":53,"Velocity":36,"Duration":52036,"SoundDuration":52036,"Delta":272492071},{"NoteNumber":58,"Velocity":36,"Duration":52036,"SoundDuration":52036,"Delta":272492071},{"NoteNumber":62,"Velocity":43,"Duration":52036,"SoundDuration":52036,"Delta":272492071},{"NoteNumber":83,"Velocity":77,"Duration":52036,"SoundDuration":52036,"Delta":272703609},{"NoteNumber":44,"Velocity":57,"Duration":52036,"SoundDuration":52036,"Delta":272703609},{"NoteNumber":77,"Velocity":71,"Duration":51225,"SoundDuration":51225,"Delta":272914276},{"NoteNumber":74,"Velocity":71,"Duration":51225,"SoundDuration":51225,"Delta":272914276},{"NoteNumber":56,"Velocity":46,"Duration":51225,"SoundDuration":51225,"Delta":272914276},{"NoteNumber":86,"Velocity":85,"Duration":51027,"SoundDuration":51027,"Delta":273122474},{"NoteNumber":43,"Velocity":55,"Duration":51027,"SoundDuration":51027,"Delta":273122474},{"NoteNumber":83,"Velocity":73,"Duration":50247,"SoundDuration":50247,"Delta":273329015},{"NoteNumber":77,"Velocity":73,"Duration":50247,"SoundDuration":50247,"Delta":273329015},{"NoteNumber":55,"Velocity":48,"Duration":50247,"SoundDuration":50247,"Delta":273329015},{"NoteNumber":84,"Velocity":75,"Duration":51831,"SoundDuration":51831,"Delta":273535675},{"NoteNumber":48,"Velocity":51,"Duration":51831,"SoundDuration":51831,"Delta":273535675},{"NoteNumber":76,"Velocity":69,"Duration":52036,"SoundDuration":52036,"Delta":273746374},{"NoteNumber":79,"Velocity":69,"Duration":52036,"SoundDuration":52036,"Delta":273746374},{"NoteNumber":60,"Velocity":43,"Duration":52036,"SoundDuration":52036,"Delta":273746374},{"NoteNumber":88,"Velocity":77,"Duration":52036,"SoundDuration":52036,"Delta":273957912},{"NoteNumber":46,"Velocity":57,"Duration":52036,"SoundDuration":52036,"Delta":273957912},{"NoteNumber":85,"Velocity":71,"Duration":51225,"SoundDuration":51225,"Delta":274168579},{"NoteNumber":79,"Velocity":71,"Duration":51225,"SoundDuration":51225,"Delta":274168579},{"NoteNumber":58,"Velocity":46,"Duration":51225,"SoundDuration":51225,"Delta":274168579},{"NoteNumber":91,"Velocity":83,"Duration":51027,"SoundDuration":51027,"Delta":274376777},{"NoteNumber":43,"Velocity":55,"Duration":51027,"SoundDuration":51027,"Delta":274376777},{"NoteNumber":82,"Velocity":73,"Duration":50247,"SoundDuration":50247,"Delta":274583317},{"NoteNumber":85,"Velocity":73,"Duration":50247,"SoundDuration":50247,"Delta":274583317},{"NoteNumber":88,"Velocity":73,"Duration":50247,"SoundDuration":50247,"Delta":274583317},{"NoteNumber":55,"Velocity":48,"Duration":50247,"SoundDuration":50247,"Delta":274583317},{"NoteNumber":89,"Velocity":75,"Duration":51831,"SoundDuration":51831,"Delta":274789978},{"NoteNumber":44,"Velocity":57,"Duration":51831,"SoundDuration":51831,"Delta":274789978},{"NoteNumber":77,"Velocity":69,"Duration":52036,"SoundDuration":52036,"Delta":275000676},{"NoteNumber":84,"Velocity":69,"Duration":52036,"SoundDuration":52036,"Delta":275000676},{"NoteNumber":56,"Velocity":49,"Duration":52036,"SoundDuration":52036,"Delta":275000676},{"NoteNumber":94,"Velocity":77,"Duration":52036,"SoundDuration":52036,"Delta":275212214},{"NoteNumber":34,"Velocity":57,"Duration":52036,"SoundDuration":52036,"Delta":275212214},{"NoteNumber":82,"Velocity":71,"Duration":51225,"SoundDuration":51225,"Delta":275422882},{"NoteNumber":46,"Velocity":46,"Duration":51225,"SoundDuration":51225,"Delta":275422882},{"NoteNumber":96,"Velocity":83,"Duration":51027,"SoundDuration":51027,"Delta":275631079},{"NoteNumber":36,"Velocity":64,"Duration":51027,"SoundDuration":51027,"Delta":275631079},{"NoteNumber":84,"Velocity":73,"Duration":50247,"SoundDuration":50247,"Delta":275837620},{"NoteNumber":48,"Velocity":58,"Duration":50247,"SoundDuration":50247,"Delta":275837620},{"NoteNumber":89,"Velocity":73,"Duration":105422,"SoundDuration":105422,"Delta":276044267},{"NoteNumber":101,"Velocity":87,"Duration":105422,"SoundDuration":105422,"Delta":276044267},{"NoteNumber":29,"Velocity":58,"Duration":105422,"SoundDuration":105422,"Delta":276044267},{"NoteNumber":41,"Velocity":65,"Duration":105422,"SoundDuration":105422,"Delta":276044267},{"NoteNumber":91,"Velocity":73,"Duration":52444,"SoundDuration":52444,"Delta":276255130},{"NoteNumber":61,"Velocity":51,"Duration":1042732,"SoundDuration":1042732,"Delta":276255130},{"NoteNumber":53,"Velocity":51,"Duration":1042732,"SoundDuration":1042732,"Delta":276255130},{"NoteNumber":64,"Velocity":61,"Duration":1042732,"SoundDuration":1042732,"Delta":276255130},{"NoteNumber":58,"Velocity":51,"Duration":1042732,"SoundDuration":1042732,"Delta":276255130},{"NoteNumber":92,"Velocity":53,"Duration":52315,"SoundDuration":52315,"Delta":276307574},{"NoteNumber":91,"Velocity":58,"Duration":52305,"SoundDuration":52305,"Delta":276359890},{"NoteNumber":92,"Velocity":54,"Duration":52366,"SoundDuration":52366,"Delta":276412196},{"NoteNumber":91,"Velocity":58,"Duration":52826,"SoundDuration":52826,"Delta":276464562},{"NoteNumber":92,"Velocity":52,"Duration":52595,"SoundDuration":52595,"Delta":276517389},{"NoteNumber":91,"Velocity":58,"Duration":52359,"SoundDuration":52359,"Delta":276569985},{"NoteNumber":92,"Velocity":52,"Duration":52105,"SoundDuration":52105,"Delta":276622345},{"NoteNumber":91,"Velocity":58,"Duration":51881,"SoundDuration":51881,"Delta":276674450},{"NoteNumber":92,"Velocity":52,"Duration":51660,"SoundDuration":51660,"Delta":276726332},{"NoteNumber":91,"Velocity":58,"Duration":68384,"SoundDuration":68384,"Delta":276777993},{"NoteNumber":92,"Velocity":54,"Duration":68474,"SoundDuration":68474,"Delta":276846377},{"NoteNumber":91,"Velocity":58,"Duration":69123,"SoundDuration":69123,"Delta":276914852},{"NoteNumber":90,"Velocity":54,"Duration":52262,"SoundDuration":52262,"Delta":276983975},{"NoteNumber":91,"Velocity":56,"Duration":52653,"SoundDuration":52653,"Delta":277036238},{"NoteNumber":92,"Velocity":64,"Duration":104486,"SoundDuration":104486,"Delta":277088891},{"NoteNumber":91,"Velocity":58,"Duration":104486,"SoundDuration":104486,"Delta":277193377},{"NoteNumber":89,"Velocity":81,"Duration":104486,"SoundDuration":104486,"Delta":277297863},{"NoteNumber":56,"Velocity":52,"Duration":104486,"SoundDuration":104486,"Delta":277297863},{"NoteNumber":60,"Velocity":52,"Duration":104486,"SoundDuration":104486,"Delta":277297863},{"NoteNumber":53,"Velocity":52,"Duration":104486,"SoundDuration":104486,"Delta":277297863},{"NoteNumber":65,"Velocity":62,"Duration":104486,"SoundDuration":104486,"Delta":277297863},{"NoteNumber":79,"Velocity":73,"Duration":52624,"SoundDuration":52624,"Delta":277506923},{"NoteNumber":58,"Velocity":51,"Duration":1042569,"SoundDuration":1042569,"Delta":277506923},{"NoteNumber":53,"Velocity":51,"Duration":1042569,"SoundDuration":1042569,"Delta":277506923},{"NoteNumber":64,"Velocity":61,"Duration":1042569,"SoundDuration":1042569,"Delta":277506923},{"NoteNumber":61,"Velocity":51,"Duration":1042569,"SoundDuration":1042569,"Delta":277506923},{"NoteNumber":80,"Velocity":67,"Duration":52764,"SoundDuration":52764,"Delta":277559547},{"NoteNumber":79,"Velocity":58,"Duration":52557,"SoundDuration":52557,"Delta":277612312},{"NoteNumber":80,"Velocity":54,"Duration":52786,"SoundDuration":52786,"Delta":277664869},{"NoteNumber":79,"Velocity":58,"Duration":52743,"SoundDuration":52743,"Delta":277717655},{"NoteNumber":80,"Velocity":52,"Duration":53066,"SoundDuration":53066,"Delta":277770399},{"NoteNumber":79,"Velocity":58,"Duration":52830,"SoundDuration":52830,"Delta":277823466},{"NoteNumber":80,"Velocity":52,"Duration":52343,"SoundDuration":52343,"Delta":277876296},{"NoteNumber":79,"Velocity":58,"Duration":51894,"SoundDuration":51894,"Delta":277928640},{"NoteNumber":80,"Velocity":52,"Duration":51452,"SoundDuration":51452,"Delta":277980534},{"NoteNumber":79,"Velocity":58,"Duration":67832,"SoundDuration":67832,"Delta":278031986},{"NoteNumber":80,"Velocity":54,"Duration":67784,"SoundDuration":67784,"Delta":278099819},{"NoteNumber":79,"Velocity":58,"Duration":68562,"SoundDuration":68562,"Delta":278167604},{"NoteNumber":78,"Velocity":54,"Duration":51943,"SoundDuration":51943,"Delta":278236167},{"NoteNumber":79,"Velocity":56,"Duration":52410,"SoundDuration":52410,"Delta":278288110},{"NoteNumber":80,"Velocity":64,"Duration":104486,"SoundDuration":104486,"Delta":278340521},{"NoteNumber":79,"Velocity":58,"Duration":104486,"SoundDuration":104486,"Delta":278445007},{"NoteNumber":77,"Velocity":81,"Duration":104486,"SoundDuration":104486,"Delta":278549493},{"NoteNumber":60,"Velocity":52,"Duration":104486,"SoundDuration":104486,"Delta":278549493},{"NoteNumber":56,"Velocity":52,"Duration":104486,"SoundDuration":104486,"Delta":278549493},{"NoteNumber":65,"Velocity":62,"Duration":104486,"SoundDuration":104486,"Delta":278549493},{"NoteNumber":53,"Velocity":52,"Duration":104486,"SoundDuration":104486,"Delta":278549493},{"NoteNumber":91,"Velocity":73,"Duration":52435,"SoundDuration":52435,"Delta":278758465},{"NoteNumber":64,"Velocity":61,"Duration":1067630,"SoundDuration":1067630,"Delta":278758465},{"NoteNumber":58,"Velocity":51,"Duration":1067630,"SoundDuration":1067630,"Delta":278758465},{"NoteNumber":53,"Velocity":51,"Duration":1067630,"SoundDuration":1067630,"Delta":278758465},{"NoteNumber":61,"Velocity":51,"Duration":1067630,"SoundDuration":1067630,"Delta":278758465},{"NoteNumber":92,"Velocity":67,"Duration":52429,"SoundDuration":52429,"Delta":278810900},{"NoteNumber":91,"Velocity":58,"Duration":52445,"SoundDuration":52445,"Delta":278863330},{"NoteNumber":92,"Velocity":54,"Duration":52102,"SoundDuration":52102,"Delta":278915776},{"NoteNumber":91,"Velocity":58,"Duration":52603,"SoundDuration":52603,"Delta":278967878},{"NoteNumber":92,"Velocity":52,"Duration":52298,"SoundDuration":52298,"Delta":279020481},{"NoteNumber":91,"Velocity":58,"Duration":52074,"SoundDuration":52074,"Delta":279072780},{"NoteNumber":92,"Velocity":52,"Duration":52317,"SoundDuration":52317,"Delta":279124854},{"NoteNumber":90,"Velocity":58,"Duration":55363,"SoundDuration":55363,"Delta":279177172},{"NoteNumber":91,"Velocity":53,"Duration":54809,"SoundDuration":54809,"Delta":279232535},{"NoteNumber":92,"Velocity":54,"Duration":54131,"SoundDuration":54131,"Delta":279287345},{"NoteNumber":94,"Velocity":56,"Duration":53559,"SoundDuration":53559,"Delta":279341477},{"NoteNumber":96,"Velocity":57,"Duration":53082,"SoundDuration":53082,"Delta":279395036},{"NoteNumber":97,"Velocity":58,"Duration":53297,"SoundDuration":53297,"Delta":279448119},{"NoteNumber":100,"Velocity":60,"Duration":53517,"SoundDuration":53517,"Delta":279501416},{"NoteNumber":101,"Velocity":62,"Duration":53776,"SoundDuration":53776,"Delta":279554934},{"NoteNumber":100,"Velocity":63,"Duration":35968,"SoundDuration":35968,"Delta":279608711},{"NoteNumber":97,"Velocity":62,"Duration":36087,"SoundDuration":36087,"Delta":279644679},{"NoteNumber":96,"Velocity":61,"Duration":36166,"SoundDuration":36166,"Delta":279681669},{"NoteNumber":94,"Velocity":61,"Duration":36268,"SoundDuration":36268,"Delta":279717836},{"NoteNumber":92,"Velocity":60,"Duration":36389,"SoundDuration":36389,"Delta":279753197},{"NoteNumber":91,"Velocity":59,"Duration":36508,"SoundDuration":36508,"Delta":279789587},{"NoteNumber":89,"Velocity":81,"Duration":110124,"SoundDuration":110124,"Delta":279826095},{"NoteNumber":56,"Velocity":52,"Duration":110124,"SoundDuration":110124,"Delta":279826095},{"NoteNumber":65,"Velocity":62,"Duration":110124,"SoundDuration":110124,"Delta":279826095},{"NoteNumber":53,"Velocity":52,"Duration":110124,"SoundDuration":110124,"Delta":279826095},{"NoteNumber":60,"Velocity":52,"Duration":110124,"SoundDuration":110124,"Delta":279826095},{"NoteNumber":79,"Velocity":73,"Duration":51893,"SoundDuration":51893,"Delta":280047319},{"NoteNumber":58,"Velocity":51,"Duration":1223203,"SoundDuration":1223203,"Delta":280047319},{"NoteNumber":64,"Velocity":61,"Duration":1223203,"SoundDuration":1223203,"Delta":280047319},{"NoteNumber":53,"Velocity":51,"Duration":1223203,"SoundDuration":1223203,"Delta":280047319},{"NoteNumber":61,"Velocity":51,"Duration":1223203,"SoundDuration":1223203,"Delta":280047319},{"NoteNumber":80,"Velocity":67,"Duration":52324,"SoundDuration":52324,"Delta":280099213},{"NoteNumber":79,"Velocity":58,"Duration":51948,"SoundDuration":51948,"Delta":280151537},{"NoteNumber":80,"Velocity":54,"Duration":51975,"SoundDuration":51975,"Delta":280203486},{"NoteNumber":79,"Velocity":58,"Duration":52039,"SoundDuration":52039,"Delta":280255462},{"NoteNumber":80,"Velocity":52,"Duration":52745,"SoundDuration":52745,"Delta":280307501},{"NoteNumber":79,"Velocity":58,"Duration":52942,"SoundDuration":52942,"Delta":280360247},{"NoteNumber":80,"Velocity":52,"Duration":56197,"SoundDuration":56197,"Delta":280413190},{"NoteNumber":78,"Velocity":55,"Duration":35716,"SoundDuration":35716,"Delta":280469387},{"NoteNumber":79,"Velocity":55,"Duration":34433,"SoundDuration":34433,"Delta":280505103},{"NoteNumber":80,"Velocity":57,"Duration":34265,"SoundDuration":34265,"Delta":280540645},{"NoteNumber":82,"Velocity":57,"Duration":35201,"SoundDuration":35201,"Delta":280574911},{"NoteNumber":84,"Velocity":60,"Duration":33940,"SoundDuration":33940,"Delta":280610112},{"NoteNumber":85,"Velocity":62,"Duration":33782,"SoundDuration":33782,"Delta":280644053},{"NoteNumber":88,"Velocity":64,"Duration":34703,"SoundDuration":34703,"Delta":280678923},{"NoteNumber":89,"Velocity":67,"Duration":34540,"SoundDuration":34540,"Delta":280713627},{"NoteNumber":91,"Velocity":68,"Duration":33302,"SoundDuration":33302,"Delta":280748167},{"NoteNumber":89,"Velocity":68,"Duration":34214,"SoundDuration":34214,"Delta":280781470},{"NoteNumber":88,"Velocity":65,"Duration":32989,"SoundDuration":32989,"Delta":280815685},{"NoteNumber":85,"Velocity":63,"Duration":32855,"SoundDuration":32855,"Delta":280847614},{"NoteNumber":84,"Velocity":61,"Duration":32962,"SoundDuration":32962,"Delta":280881529},{"NoteNumber":82,"Velocity":59,"Duration":33288,"SoundDuration":33288,"Delta":280914491},{"NoteNumber":80,"Velocity":57,"Duration":33713,"SoundDuration":33713,"Delta":280946697},{"NoteNumber":79,"Velocity":57,"Duration":34059,"SoundDuration":34059,"Delta":280980410},{"NoteNumber":77,"Velocity":54,"Duration":34510,"SoundDuration":34510,"Delta":281014470},{"NoteNumber":76,"Velocity":50,"Duration":34883,"SoundDuration":34883,"Delta":281048980},{"NoteNumber":73,"Velocity":49,"Duration":35345,"SoundDuration":35345,"Delta":281083864},{"NoteNumber":72,"Velocity":47,"Duration":35732,"SoundDuration":35732,"Delta":281118064},{"NoteNumber":70,"Velocity":46,"Duration":36211,"SoundDuration":36211,"Delta":281153796},{"NoteNumber":68,"Velocity":44,"Duration":37071,"SoundDuration":37071,"Delta":281190007},{"NoteNumber":67,"Velocity":42,"Duration":44741,"SoundDuration":44741,"Delta":281225781},{"NoteNumber":65,"Velocity":64,"Duration":44347,"SoundDuration":44347,"Delta":281270522},{"NoteNumber":60,"Velocity":72,"Duration":44347,"SoundDuration":44347,"Delta":281270522},{"NoteNumber":53,"Velocity":61,"Duration":44347,"SoundDuration":44347,"Delta":281270522},{"NoteNumber":56,"Velocity":61,"Duration":44347,"SoundDuration":44347,"Delta":281270522},{"NoteNumber":60,"Velocity":43,"Duration":45148,"SoundDuration":45148,"Delta":281447911},{"NoteNumber":65,"Velocity":51,"Duration":44086,"SoundDuration":44086,"Delta":281628504},{"NoteNumber":60,"Velocity":44,"Duration":44744,"SoundDuration":44744,"Delta":281804850},{"NoteNumber":65,"Velocity":51,"Duration":43828,"SoundDuration":43828,"Delta":281983826},{"NoteNumber":60,"Velocity":42,"Duration":45012,"SoundDuration":45012,"Delta":282159142},{"NoteNumber":65,"Velocity":52,"Duration":43701,"SoundDuration":43701,"Delta":282339192},{"NoteNumber":60,"Velocity":43,"Duration":44877,"SoundDuration":44877,"Delta":282513997},{"NoteNumber":65,"Velocity":51,"Duration":43701,"SoundDuration":43701,"Delta":282693509},{"NoteNumber":60,"Velocity":44,"Duration":44478,"SoundDuration":44478,"Delta":282868314},{"NoteNumber":65,"Velocity":51,"Duration":43701,"SoundDuration":43701,"Delta":283046229},{"NoteNumber":60,"Velocity":42,"Duration":45330,"SoundDuration":45330,"Delta":283221034},{"NoteNumber":68,"Velocity":52,"Duration":43828,"SoundDuration":43828,"Delta":283402357},{"NoteNumber":65,"Velocity":52,"Duration":43828,"SoundDuration":43828,"Delta":283402357},{"NoteNumber":60,"Velocity":42,"Duration":44399,"SoundDuration":44399,"Delta":283577673},{"NoteNumber":65,"Velocity":42,"Duration":44399,"SoundDuration":44399,"Delta":283577673},{"NoteNumber":68,"Velocity":49,"Duration":43828,"SoundDuration":43828,"Delta":283755272},{"NoteNumber":65,"Velocity":49,"Duration":43828,"SoundDuration":43828,"Delta":283755272},{"NoteNumber":60,"Velocity":41,"Duration":44096,"SoundDuration":44096,"Delta":283930587},{"NoteNumber":65,"Velocity":41,"Duration":44096,"SoundDuration":44096,"Delta":283930587},{"NoteNumber":65,"Velocity":47,"Duration":43701,"SoundDuration":43701,"Delta":284106975},{"NoteNumber":68,"Velocity":40,"Duration":43701,"SoundDuration":43701,"Delta":284106975},{"NoteNumber":60,"Velocity":38,"Duration":44552,"SoundDuration":44552,"Delta":284281780},{"NoteNumber":65,"Velocity":40,"Duration":44552,"SoundDuration":44552,"Delta":284281780},{"NoteNumber":68,"Velocity":46,"Duration":43957,"SoundDuration":43957,"Delta":284459991},{"NoteNumber":65,"Velocity":46,"Duration":43957,"SoundDuration":43957,"Delta":284459991},{"NoteNumber":65,"Velocity":38,"Duration":44610,"SoundDuration":44610,"Delta":284635820},{"NoteNumber":60,"Velocity":38,"Duration":44610,"SoundDuration":44610,"Delta":284635820},{"NoteNumber":65,"Velocity":44,"Duration":43650,"SoundDuration":43650,"Delta":284814264},{"NoteNumber":68,"Velocity":44,"Duration":43650,"SoundDuration":43650,"Delta":284814264},{"NoteNumber":65,"Velocity":37,"Duration":44096,"SoundDuration":44096,"Delta":284988866},{"NoteNumber":60,"Velocity":37,"Duration":44096,"SoundDuration":44096,"Delta":284988866},{"NoteNumber":65,"Velocity":42,"Duration":43701,"SoundDuration":43701,"Delta":285165253},{"NoteNumber":68,"Velocity":36,"Duration":43701,"SoundDuration":43701,"Delta":285165253},{"NoteNumber":65,"Velocity":36,"Duration":45330,"SoundDuration":45330,"Delta":285340058},{"NoteNumber":60,"Velocity":34,"Duration":45330,"SoundDuration":45330,"Delta":285340058},{"NoteNumber":68,"Velocity":41,"Duration":43828,"SoundDuration":43828,"Delta":285521382},{"NoteNumber":65,"Velocity":41,"Duration":43828,"SoundDuration":43828,"Delta":285521382},{"NoteNumber":44,"Velocity":35,"Duration":2132308,"SoundDuration":2132308,"Delta":285521382},{"NoteNumber":49,"Velocity":35,"Duration":2132308,"SoundDuration":2132308,"Delta":285521382},{"NoteNumber":37,"Velocity":35,"Duration":2132308,"SoundDuration":2132308,"Delta":285521382},{"NoteNumber":65,"Velocity":34,"Duration":44877,"SoundDuration":44877,"Delta":285696697},{"NoteNumber":61,"Velocity":34,"Duration":44877,"SoundDuration":44877,"Delta":285696697},{"NoteNumber":68,"Velocity":40,"Duration":43957,"SoundDuration":43957,"Delta":285876209},{"NoteNumber":65,"Velocity":40,"Duration":43957,"SoundDuration":43957,"Delta":285876209},{"NoteNumber":61,"Velocity":35,"Duration":44744,"SoundDuration":44744,"Delta":286052038},{"NoteNumber":65,"Velocity":35,"Duration":44744,"SoundDuration":44744,"Delta":286052038},{"NoteNumber":65,"Velocity":40,"Duration":44086,"SoundDuration":44086,"Delta":286231015},{"NoteNumber":68,"Velocity":35,"Duration":44086,"SoundDuration":44086,"Delta":286231015},{"NoteNumber":65,"Velocity":35,"Duration":45148,"SoundDuration":45148,"Delta":286407361},{"NoteNumber":61,"Velocity":33,"Duration":45148,"SoundDuration":45148,"Delta":286407361},{"NoteNumber":65,"Velocity":41,"Duration":43957,"SoundDuration":43957,"Delta":286587953},{"NoteNumber":68,"Velocity":41,"Duration":43957,"SoundDuration":43957,"Delta":286587953},{"NoteNumber":61,"Velocity":34,"Duration":44744,"SoundDuration":44744,"Delta":286763783},{"NoteNumber":65,"Velocity":34,"Duration":44744,"SoundDuration":44744,"Delta":286763783},{"NoteNumber":68,"Velocity":40,"Duration":43828,"SoundDuration":43828,"Delta":286942759},{"NoteNumber":65,"Velocity":40,"Duration":43828,"SoundDuration":43828,"Delta":286942759},{"NoteNumber":65,"Velocity":35,"Duration":44744,"SoundDuration":44744,"Delta":287118075},{"NoteNumber":61,"Velocity":35,"Duration":44744,"SoundDuration":44744,"Delta":287118075},{"NoteNumber":68,"Velocity":35,"Duration":43828,"SoundDuration":43828,"Delta":287297051},{"NoteNumber":65,"Velocity":40,"Duration":43828,"SoundDuration":43828,"Delta":287297051},{"NoteNumber":61,"Velocity":33,"Duration":45330,"SoundDuration":45330,"Delta":287472367},{"NoteNumber":65,"Velocity":35,"Duration":45330,"SoundDuration":45330,"Delta":287472367},{"NoteNumber":68,"Velocity":41,"Duration":43828,"SoundDuration":43828,"Delta":287653690},{"NoteNumber":66,"Velocity":41,"Duration":43828,"SoundDuration":43828,"Delta":287653690},{"NoteNumber":36,"Velocity":35,"Duration":2120233,"SoundDuration":2120233,"Delta":287653690},{"NoteNumber":44,"Velocity":35,"Duration":2120233,"SoundDuration":2120233,"Delta":287653690},{"NoteNumber":48,"Velocity":35,"Duration":2120233,"SoundDuration":2120233,"Delta":287653690},{"NoteNumber":66,"Velocity":34,"Duration":44877,"SoundDuration":44877,"Delta":287829006},{"NoteNumber":63,"Velocity":34,"Duration":44877,"SoundDuration":44877,"Delta":287829006},{"NoteNumber":68,"Velocity":40,"Duration":43701,"SoundDuration":43701,"Delta":288008517},{"NoteNumber":66,"Velocity":40,"Duration":43701,"SoundDuration":43701,"Delta":288008517},{"NoteNumber":66,"Velocity":35,"Duration":44610,"SoundDuration":44610,"Delta":288183322},{"NoteNumber":63,"Velocity":35,"Duration":44610,"SoundDuration":44610,"Delta":288183322},{"NoteNumber":68,"Velocity":35,"Duration":43701,"SoundDuration":43701,"Delta":288361766},{"NoteNumber":66,"Velocity":40,"Duration":43701,"SoundDuration":43701,"Delta":288361766},{"NoteNumber":66,"Velocity":35,"Duration":44704,"SoundDuration":44704,"Delta":288536571},{"NoteNumber":63,"Velocity":33,"Duration":44704,"SoundDuration":44704,"Delta":288536571},{"NoteNumber":68,"Velocity":41,"Duration":43650,"SoundDuration":43650,"Delta":288715387},{"NoteNumber":66,"Velocity":41,"Duration":43650,"SoundDuration":43650,"Delta":288715387},{"NoteNumber":68,"Velocity":43,"Duration":44399,"SoundDuration":44399,"Delta":288889989},{"NoteNumber":75,"Velocity":43,"Duration":44399,"SoundDuration":44399,"Delta":288889989},{"NoteNumber":78,"Velocity":45,"Duration":43650,"SoundDuration":43650,"Delta":289067588},{"NoteNumber":75,"Velocity":45,"Duration":43650,"SoundDuration":43650,"Delta":289067588},{"NoteNumber":78,"Velocity":48,"Duration":44096,"SoundDuration":44096,"Delta":289242189},{"NoteNumber":80,"Velocity":48,"Duration":44096,"SoundDuration":44096,"Delta":289242189},{"NoteNumber":80,"Velocity":50,"Duration":43505,"SoundDuration":43505,"Delta":289418577},{"NoteNumber":87,"Velocity":50,"Duration":43505,"SoundDuration":43505,"Delta":289418577},{"NoteNumber":90,"Velocity":53,"Duration":45330,"SoundDuration":45330,"Delta":289592601},{"NoteNumber":87,"Velocity":53,"Duration":45330,"SoundDuration":45330,"Delta":289592601},{"NoteNumber":85,"Velocity":55,"Duration":42805,"SoundDuration":42805,"Delta":289773924},{"NoteNumber":89,"Velocity":55,"Duration":42805,"SoundDuration":42805,"Delta":289773924},{"NoteNumber":44,"Velocity":35,"Duration":2108792,"SoundDuration":2108792,"Delta":289773924},{"NoteNumber":37,"Velocity":35,"Duration":2108792,"SoundDuration":2108792,"Delta":289773924},{"NoteNumber":49,"Velocity":35,"Duration":2108792,"SoundDuration":2108792,"Delta":289773924},{"NoteNumber":80,"Velocity":53,"Duration":44399,"SoundDuration":44399,"Delta":289945147},{"NoteNumber":77,"Velocity":53,"Duration":44399,"SoundDuration":44399,"Delta":289945147},{"NoteNumber":89,"Velocity":57,"Duration":43650,"SoundDuration":43650,"Delta":290122746},{"NoteNumber":85,"Velocity":57,"Duration":43650,"SoundDuration":43650,"Delta":290122746},{"NoteNumber":77,"Velocity":49,"Duration":44096,"SoundDuration":44096,"Delta":290297348},{"NoteNumber":80,"Velocity":49,"Duration":44096,"SoundDuration":44096,"Delta":290297348},{"NoteNumber":89,"Velocity":56,"Duration":43505,"SoundDuration":43505,"Delta":290473735},{"NoteNumber":85,"Velocity":56,"Duration":43505,"SoundDuration":43505,"Delta":290473735},{"NoteNumber":77,"Velocity":50,"Duration":44704,"SoundDuration":44704,"Delta":290647759},{"NoteNumber":80,"Velocity":50,"Duration":44704,"SoundDuration":44704,"Delta":290647759},{"NoteNumber":89,"Velocity":56,"Duration":43051,"SoundDuration":43051,"Delta":290826575},{"NoteNumber":85,"Velocity":56,"Duration":43051,"SoundDuration":43051,"Delta":290826575},{"NoteNumber":80,"Velocity":54,"Duration":44399,"SoundDuration":44399,"Delta":290998781},{"NoteNumber":85,"Velocity":54,"Duration":44399,"SoundDuration":44399,"Delta":290998781},{"NoteNumber":77,"Velocity":51,"Duration":43650,"SoundDuration":43650,"Delta":291176380},{"NoteNumber":80,"Velocity":51,"Duration":43650,"SoundDuration":43650,"Delta":291176380},{"NoteNumber":77,"Velocity":47,"Duration":44096,"SoundDuration":44096,"Delta":291350982},{"NoteNumber":73,"Velocity":47,"Duration":44096,"SoundDuration":44096,"Delta":291350982},{"NoteNumber":73,"Velocity":44,"Duration":43505,"SoundDuration":43505,"Delta":291527369},{"NoteNumber":68,"Velocity":44,"Duration":43505,"SoundDuration":43505,"Delta":291527369},{"NoteNumber":68,"Velocity":41,"Duration":45330,"SoundDuration":45330,"Delta":291701393},{"NoteNumber":65,"Velocity":41,"Duration":45330,"SoundDuration":45330,"Delta":291701393},{"NoteNumber":68,"Velocity":41,"Duration":42928,"SoundDuration":42928,"Delta":291882717},{"NoteNumber":66,"Velocity":41,"Duration":42928,"SoundDuration":42928,"Delta":291882717},{"NoteNumber":48,"Velocity":35,"Duration":2108789,"SoundDuration":2108789,"Delta":291882717},{"NoteNumber":44,"Velocity":35,"Duration":521025,"SoundDuration":521025,"Delta":291882717},{"NoteNumber":36,"Velocity":35,"Duration":2108789,"SoundDuration":2108789,"Delta":291882717},{"NoteNumber":63,"Velocity":34,"Duration":44399,"SoundDuration":44399,"Delta":292054430},{"NoteNumber":66,"Velocity":34,"Duration":44399,"SoundDuration":44399,"Delta":292054430},{"NoteNumber":68,"Velocity":40,"Duration":42928,"SoundDuration":42928,"Delta":292232029},{"NoteNumber":66,"Velocity":40,"Duration":42928,"SoundDuration":42928,"Delta":292232029},{"NoteNumber":66,"Velocity":44,"Duration":44096,"SoundDuration":44096,"Delta":292403742},{"NoteNumber":69,"Velocity":44,"Duration":44096,"SoundDuration":44096,"Delta":292403742},{"NoteNumber":45,"Velocity":41,"Duration":529227,"SoundDuration":529227,"Delta":292403742},{"NoteNumber":66,"Velocity":35,"Duration":43505,"SoundDuration":43505,"Delta":292580129},{"NoteNumber":63,"Velocity":40,"Duration":43505,"SoundDuration":43505,"Delta":292580129},{"NoteNumber":69,"Velocity":35,"Duration":44704,"SoundDuration":44704,"Delta":292754153},{"NoteNumber":66,"Velocity":33,"Duration":44704,"SoundDuration":44704,"Delta":292754153},{"NoteNumber":66,"Velocity":41,"Duration":43650,"SoundDuration":43650,"Delta":292932969},{"NoteNumber":68,"Velocity":41,"Duration":43650,"SoundDuration":43650,"Delta":292932969},{"NoteNumber":44,"Velocity":35,"Duration":1058536,"SoundDuration":1058536,"Delta":292932969},{"NoteNumber":68,"Velocity":43,"Duration":44399,"SoundDuration":44399,"Delta":293107571},{"NoteNumber":75,"Velocity":43,"Duration":44399,"SoundDuration":44399,"Delta":293107571},{"NoteNumber":78,"Velocity":45,"Duration":43650,"SoundDuration":43650,"Delta":293285170},{"NoteNumber":75,"Velocity":45,"Duration":43650,"SoundDuration":43650,"Delta":293285170},{"NoteNumber":80,"Velocity":48,"Duration":44096,"SoundDuration":44096,"Delta":293459771},{"NoteNumber":78,"Velocity":48,"Duration":44096,"SoundDuration":44096,"Delta":293459771},{"NoteNumber":80,"Velocity":50,"Duration":43505,"SoundDuration":43505,"Delta":293636159},{"NoteNumber":87,"Velocity":50,"Duration":43505,"SoundDuration":43505,"Delta":293636159},{"NoteNumber":90,"Velocity":53,"Duration":45330,"SoundDuration":45330,"Delta":293810183},{"NoteNumber":87,"Velocity":53,"Duration":45330,"SoundDuration":45330,"Delta":293810183},{"NoteNumber":85,"Velocity":55,"Duration":43505,"SoundDuration":43505,"Delta":293991506},{"NoteNumber":89,"Velocity":55,"Duration":43505,"SoundDuration":43505,"Delta":293991506},{"NoteNumber":37,"Velocity":35,"Duration":2112088,"SoundDuration":2112088,"Delta":293991506},{"NoteNumber":49,"Velocity":35,"Duration":2112088,"SoundDuration":2112088,"Delta":293991506},{"NoteNumber":44,"Velocity":35,"Duration":524324,"SoundDuration":524324,"Delta":293991506},{"NoteNumber":77,"Velocity":53,"Duration":44399,"SoundDuration":44399,"Delta":294165530},{"NoteNumber":80,"Velocity":53,"Duration":44399,"SoundDuration":44399,"Delta":294165530},{"NoteNumber":89,"Velocity":57,"Duration":43175,"SoundDuration":43175,"Delta":294343129},{"NoteNumber":85,"Velocity":57,"Duration":43175,"SoundDuration":43175,"Delta":294343129},{"NoteNumber":82,"Velocity":49,"Duration":44096,"SoundDuration":44096,"Delta":294515831},{"NoteNumber":77,"Velocity":49,"Duration":44096,"SoundDuration":44096,"Delta":294515831},{"NoteNumber":46,"Velocity":43,"Duration":529227,"SoundDuration":529227,"Delta":294515831},{"NoteNumber":85,"Velocity":56,"Duration":43505,"SoundDuration":43505,"Delta":294692218},{"NoteNumber":89,"Velocity":56,"Duration":43505,"SoundDuration":43505,"Delta":294692218},{"NoteNumber":77,"Velocity":50,"Duration":44704,"SoundDuration":44704,"Delta":294866242},{"NoteNumber":82,"Velocity":50,"Duration":44704,"SoundDuration":44704,"Delta":294866242},{"NoteNumber":85,"Velocity":56,"Duration":43650,"SoundDuration":43650,"Delta":295045058},{"NoteNumber":89,"Velocity":56,"Duration":43650,"SoundDuration":43650,"Delta":295045058},{"NoteNumber":44,"Velocity":35,"Duration":1058536,"SoundDuration":1058536,"Delta":295045058},{"NoteNumber":80,"Velocity":54,"Duration":44399,"SoundDuration":44399,"Delta":295219660},{"NoteNumber":85,"Velocity":54,"Duration":44399,"SoundDuration":44399,"Delta":295219660},{"NoteNumber":77,"Velocity":51,"Duration":43650,"SoundDuration":43650,"Delta":295397259},{"NoteNumber":80,"Velocity":51,"Duration":43650,"SoundDuration":43650,"Delta":295397259},{"NoteNumber":73,"Velocity":47,"Duration":44096,"SoundDuration":44096,"Delta":295571860},{"NoteNumber":77,"Velocity":47,"Duration":44096,"SoundDuration":44096,"Delta":295571860},{"NoteNumber":73,"Velocity":44,"Duration":43505,"SoundDuration":43505,"Delta":295748248},{"NoteNumber":68,"Velocity":44,"Duration":43505,"SoundDuration":43505,"Delta":295748248},{"NoteNumber":68,"Velocity":41,"Duration":45330,"SoundDuration":45330,"Delta":295922272},{"NoteNumber":65,"Velocity":41,"Duration":45330,"SoundDuration":45330,"Delta":295922272},{"NoteNumber":75,"Velocity":41,"Duration":42805,"SoundDuration":42805,"Delta":296103595},{"NoteNumber":77,"Velocity":41,"Duration":42805,"SoundDuration":42805,"Delta":296103595},{"NoteNumber":36,"Velocity":35,"Duration":2108299,"SoundDuration":2108299,"Delta":296103595},{"NoteNumber":41,"Velocity":35,"Duration":520534,"SoundDuration":520534,"Delta":296103595},{"NoteNumber":48,"Velocity":35,"Duration":2108299,"SoundDuration":2108299,"Delta":296103595},{"NoteNumber":69,"Velocity":34,"Duration":44399,"SoundDuration":44399,"Delta":296274818},{"NoteNumber":65,"Velocity":34,"Duration":44399,"SoundDuration":44399,"Delta":296274818},{"NoteNumber":75,"Velocity":40,"Duration":42928,"SoundDuration":42928,"Delta":296452417},{"NoteNumber":77,"Velocity":40,"Duration":42928,"SoundDuration":42928,"Delta":296452417},{"NoteNumber":69,"Velocity":35,"Duration":44096,"SoundDuration":44096,"Delta":296624130},{"NoteNumber":66,"Velocity":35,"Duration":44096,"SoundDuration":44096,"Delta":296624130},{"NoteNumber":42,"Velocity":41,"Duration":529227,"SoundDuration":529227,"Delta":296624130},{"NoteNumber":78,"Velocity":35,"Duration":43505,"SoundDuration":43505,"Delta":296800518},{"NoteNumber":75,"Velocity":40,"Duration":43505,"SoundDuration":43505,"Delta":296800518},{"NoteNumber":66,"Velocity":33,"Duration":44704,"SoundDuration":44704,"Delta":296974542},{"NoteNumber":69,"Velocity":35,"Duration":44704,"SoundDuration":44704,"Delta":296974542},{"NoteNumber":75,"Velocity":41,"Duration":43650,"SoundDuration":43650,"Delta":297153358},{"NoteNumber":77,"Velocity":41,"Duration":43650,"SoundDuration":43650,"Delta":297153358},{"NoteNumber":41,"Velocity":35,"Duration":1058536,"SoundDuration":1058536,"Delta":297153358},{"NoteNumber":65,"Velocity":43,"Duration":44399,"SoundDuration":44399,"Delta":297327959},{"NoteNumber":69,"Velocity":43,"Duration":44399,"SoundDuration":44399,"Delta":297327959},{"NoteNumber":75,"Velocity":45,"Duration":43650,"SoundDuration":43650,"Delta":297505558},{"NoteNumber":77,"Velocity":45,"Duration":43650,"SoundDuration":43650,"Delta":297505558},{"NoteNumber":77,"Velocity":48,"Duration":44096,"SoundDuration":44096,"Delta":297680160},{"NoteNumber":81,"Velocity":48,"Duration":44096,"SoundDuration":44096,"Delta":297680160},{"NoteNumber":87,"Velocity":50,"Duration":43505,"SoundDuration":43505,"Delta":297856547},{"NoteNumber":81,"Velocity":50,"Duration":43505,"SoundDuration":43505,"Delta":297856547},{"NoteNumber":87,"Velocity":53,"Duration":45330,"SoundDuration":45330,"Delta":298030571},{"NoteNumber":89,"Velocity":53,"Duration":45330,"SoundDuration":45330,"Delta":298030571},{"NoteNumber":85,"Velocity":55,"Duration":42928,"SoundDuration":42928,"Delta":298211895},{"NoteNumber":89,"Velocity":55,"Duration":42928,"SoundDuration":42928,"Delta":298211895},{"NoteNumber":41,"Velocity":35,"Duration":523913,"SoundDuration":523913,"Delta":298211895},{"NoteNumber":46,"Velocity":35,"Duration":2111677,"SoundDuration":2111677,"Delta":298211895},{"NoteNumber":34,"Velocity":35,"Duration":2111677,"SoundDuration":2111677,"Delta":298211895},{"NoteNumber":82,"Velocity":53,"Duration":44399,"SoundDuration":44399,"Delta":298383608},{"NoteNumber":77,"Velocity":53,"Duration":44399,"SoundDuration":44399,"Delta":298383608},{"NoteNumber":89,"Velocity":57,"Duration":43650,"SoundDuration":43650,"Delta":298561207},{"NoteNumber":85,"Velocity":57,"Duration":43650,"SoundDuration":43650,"Delta":298561207},{"NoteNumber":82,"Velocity":49,"Duration":44096,"SoundDuration":44096,"Delta":298735808},{"NoteNumber":78,"Velocity":49,"Duration":44096,"SoundDuration":44096,"Delta":298735808},{"NoteNumber":42,"Velocity":42,"Duration":529227,"SoundDuration":529227,"Delta":298735808},{"NoteNumber":85,"Velocity":56,"Duration":43505,"SoundDuration":43505,"Delta":298912196},{"NoteNumber":90,"Velocity":56,"Duration":43505,"SoundDuration":43505,"Delta":298912196},{"NoteNumber":82,"Velocity":50,"Duration":44704,"SoundDuration":44704,"Delta":299086220},{"NoteNumber":78,"Velocity":50,"Duration":44704,"SoundDuration":44704,"Delta":299086220},{"NoteNumber":89,"Velocity":56,"Duration":43650,"SoundDuration":43650,"Delta":299265036},{"NoteNumber":85,"Velocity":56,"Duration":43650,"SoundDuration":43650,"Delta":299265036},{"NoteNumber":41,"Velocity":35,"Duration":1058536,"SoundDuration":1058536,"Delta":299265036},{"NoteNumber":85,"Velocity":54,"Duration":44399,"SoundDuration":44399,"Delta":299439637},{"NoteNumber":82,"Velocity":54,"Duration":44399,"SoundDuration":44399,"Delta":299439637},{"NoteNumber":77,"Velocity":51,"Duration":43650,"SoundDuration":43650,"Delta":299617236},{"NoteNumber":82,"Velocity":51,"Duration":43650,"SoundDuration":43650,"Delta":299617236},{"NoteNumber":77,"Velocity":47,"Duration":44096,"SoundDuration":44096,"Delta":299791838},{"NoteNumber":73,"Velocity":47,"Duration":44096,"SoundDuration":44096,"Delta":299791838},{"NoteNumber":70,"Velocity":44,"Duration":43505,"SoundDuration":43505,"Delta":299968225},{"NoteNumber":73,"Velocity":44,"Duration":43505,"SoundDuration":43505,"Delta":299968225},{"NoteNumber":70,"Velocity":41,"Duration":45330,"SoundDuration":45330,"Delta":300142249},{"NoteNumber":65,"Velocity":41,"Duration":45330,"SoundDuration":45330,"Delta":300142249},{"NoteNumber":65,"Velocity":41,"Duration":42928,"SoundDuration":42928,"Delta":300323573},{"NoteNumber":73,"Velocity":41,"Duration":42928,"SoundDuration":42928,"Delta":300323573},{"NoteNumber":46,"Velocity":35,"Duration":1051240,"SoundDuration":1051240,"Delta":300323573},{"NoteNumber":58,"Velocity":35,"Duration":1051240,"SoundDuration":1051240,"Delta":300323573},{"NoteNumber":65,"Velocity":34,"Duration":44399,"SoundDuration":44399,"Delta":300495286},{"NoteNumber":61,"Velocity":34,"Duration":44399,"SoundDuration":44399,"Delta":300495286},{"NoteNumber":73,"Velocity":40,"Duration":43175,"SoundDuration":43175,"Delta":300672885},{"NoteNumber":65,"Velocity":40,"Duration":43175,"SoundDuration":43175,"Delta":300672885},{"NoteNumber":65,"Velocity":35,"Duration":44096,"SoundDuration":44096,"Delta":300845586},{"NoteNumber":61,"Velocity":35,"Duration":44096,"SoundDuration":44096,"Delta":300845586},{"NoteNumber":65,"Velocity":40,"Duration":43505,"SoundDuration":43505,"Delta":301021974},{"NoteNumber":73,"Velocity":35,"Duration":43505,"SoundDuration":43505,"Delta":301021974},{"NoteNumber":65,"Velocity":35,"Duration":44704,"SoundDuration":44704,"Delta":301195998},{"NoteNumber":61,"Velocity":33,"Duration":44704,"SoundDuration":44704,"Delta":301195998},{"NoteNumber":72,"Velocity":45,"Duration":43051,"SoundDuration":43051,"Delta":301374814},{"NoteNumber":65,"Velocity":45,"Duration":43051,"SoundDuration":43051,"Delta":301374814},{"NoteNumber":44,"Velocity":35,"Duration":1053633,"SoundDuration":1053633,"Delta":301374814},{"NoteNumber":56,"Velocity":35,"Duration":1053633,"SoundDuration":1053633,"Delta":301374814},{"NoteNumber":65,"Velocity":40,"Duration":44399,"SoundDuration":44399,"Delta":301547020},{"NoteNumber":60,"Velocity":40,"Duration":44399,"SoundDuration":44399,"Delta":301547020},{"NoteNumber":65,"Velocity":45,"Duration":43650,"SoundDuration":43650,"Delta":301724619},{"NoteNumber":72,"Velocity":45,"Duration":43650,"SoundDuration":43650,"Delta":301724619},{"NoteNumber":65,"Velocity":43,"Duration":44096,"SoundDuration":44096,"Delta":301899220},{"NoteNumber":60,"Velocity":43,"Duration":44096,"SoundDuration":44096,"Delta":301899220},{"NoteNumber":72,"Velocity":43,"Duration":43505,"SoundDuration":43505,"Delta":302075608},{"NoteNumber":65,"Velocity":43,"Duration":43505,"SoundDuration":43505,"Delta":302075608},{"NoteNumber":65,"Velocity":35,"Duration":44704,"SoundDuration":44704,"Delta":302249632},{"NoteNumber":60,"Velocity":33,"Duration":44704,"SoundDuration":44704,"Delta":302249632},{"NoteNumber":71,"Velocity":55,"Duration":43051,"SoundDuration":43051,"Delta":302428448},{"NoteNumber":68,"Velocity":55,"Duration":43051,"SoundDuration":43051,"Delta":302428448},{"NoteNumber":50,"Velocity":44,"Duration":2112778,"SoundDuration":2112778,"Delta":302428448},{"NoteNumber":38,"Velocity":44,"Duration":2112778,"SoundDuration":2112778,"Delta":302428448},{"NoteNumber":68,"Velocity":43,"Duration":44399,"SoundDuration":44399,"Delta":302600654},{"NoteNumber":65,"Velocity":43,"Duration":44399,"SoundDuration":44399,"Delta":302600654},{"NoteNumber":68,"Velocity":45,"Duration":43650,"SoundDuration":43650,"Delta":302778253},{"NoteNumber":71,"Velocity":45,"Duration":43650,"SoundDuration":43650,"Delta":302778253},{"NoteNumber":68,"Velocity":48,"Duration":44096,"SoundDuration":44096,"Delta":302952854},{"NoteNumber":65,"Velocity":48,"Duration":44096,"SoundDuration":44096,"Delta":302952854},{"NoteNumber":68,"Velocity":50,"Duration":43505,"SoundDuration":43505,"Delta":303129242},{"NoteNumber":71,"Velocity":50,"Duration":43505,"SoundDuration":43505,"Delta":303129242},{"NoteNumber":77,"Velocity":53,"Duration":45330,"SoundDuration":45330,"Delta":303303266},{"NoteNumber":71,"Velocity":53,"Duration":45330,"SoundDuration":45330,"Delta":303303266},{"NoteNumber":80,"Velocity":56,"Duration":43175,"SoundDuration":43175,"Delta":303484589},{"NoteNumber":77,"Velocity":56,"Duration":43175,"SoundDuration":43175,"Delta":303484589},{"NoteNumber":80,"Velocity":54,"Duration":44399,"SoundDuration":44399,"Delta":303657291},{"NoteNumber":83,"Velocity":54,"Duration":44399,"SoundDuration":44399,"Delta":303657291},{"NoteNumber":77,"Velocity":51,"Duration":43650,"SoundDuration":43650,"Delta":303834890},{"NoteNumber":80,"Velocity":51,"Duration":43650,"SoundDuration":43650,"Delta":303834890},{"NoteNumber":71,"Velocity":47,"Duration":44096,"SoundDuration":44096,"Delta":304009491},{"NoteNumber":77,"Velocity":47,"Duration":44096,"SoundDuration":44096,"Delta":304009491},{"NoteNumber":68,"Velocity":44,"Duration":43505,"SoundDuration":43505,"Delta":304185879},{"NoteNumber":71,"Velocity":44,"Duration":43505,"SoundDuration":43505,"Delta":304185879},{"NoteNumber":68,"Velocity":41,"Duration":45330,"SoundDuration":45330,"Delta":304359903},{"NoteNumber":65,"Velocity":41,"Duration":45330,"SoundDuration":45330,"Delta":304359903},{"NoteNumber":70,"Velocity":41,"Duration":42928,"SoundDuration":42928,"Delta":304541226},{"NoteNumber":67,"Velocity":41,"Duration":42928,"SoundDuration":42928,"Delta":304541226},{"NoteNumber":52,"Velocity":35,"Duration":1053140,"SoundDuration":1053140,"Delta":304541226},{"NoteNumber":40,"Velocity":35,"Duration":1053140,"SoundDuration":1053140,"Delta":304541226},{"NoteNumber":67,"Velocity":34,"Duration":44399,"SoundDuration":44399,"Delta":304712939},{"NoteNumber":61,"Velocity":34,"Duration":44399,"SoundDuration":44399,"Delta":304712939},{"NoteNumber":67,"Velocity":40,"Duration":43650,"SoundDuration":43650,"Delta":304890538},{"NoteNumber":70,"Velocity":40,"Duration":43650,"SoundDuration":43650,"Delta":304890538},{"NoteNumber":67,"Velocity":35,"Duration":44096,"SoundDuration":44096,"Delta":305065140},{"NoteNumber":61,"Velocity":35,"Duration":44096,"SoundDuration":44096,"Delta":305065140},{"NoteNumber":70,"Velocity":35,"Duration":43505,"SoundDuration":43505,"Delta":305241527},{"NoteNumber":67,"Velocity":40,"Duration":43505,"SoundDuration":43505,"Delta":305241527},{"NoteNumber":67,"Velocity":35,"Duration":44704,"SoundDuration":44704,"Delta":305415551},{"NoteNumber":61,"Velocity":33,"Duration":44704,"SoundDuration":44704,"Delta":305415551},{"NoteNumber":65,"Velocity":45,"Duration":43051,"SoundDuration":43051,"Delta":305594367},{"NoteNumber":69,"Velocity":45,"Duration":43051,"SoundDuration":43051,"Delta":305594367},{"NoteNumber":53,"Velocity":35,"Duration":1053633,"SoundDuration":1053633,"Delta":305594367},{"NoteNumber":41,"Velocity":35,"Duration":1053633,"SoundDuration":1053633,"Delta":305594367},{"NoteNumber":65,"Velocity":40,"Duration":44399,"SoundDuration":44399,"Delta":305766573},{"NoteNumber":60,"Velocity":40,"Duration":44399,"SoundDuration":44399,"Delta":305766573},{"NoteNumber":65,"Velocity":45,"Duration":43650,"SoundDuration":43650,"Delta":305944172},{"NoteNumber":69,"Velocity":45,"Duration":43650,"SoundDuration":43650,"Delta":305944172},{"NoteNumber":65,"Velocity":43,"Duration":44096,"SoundDuration":44096,"Delta":306118774},{"NoteNumber":60,"Velocity":43,"Duration":44096,"SoundDuration":44096,"Delta":306118774},{"NoteNumber":65,"Velocity":43,"Duration":43505,"SoundDuration":43505,"Delta":306295161},{"NoteNumber":69,"Velocity":43,"Duration":43505,"SoundDuration":43505,"Delta":306295161},{"NoteNumber":65,"Velocity":35,"Duration":44704,"SoundDuration":44704,"Delta":306469185},{"NoteNumber":60,"Velocity":33,"Duration":44704,"SoundDuration":44704,"Delta":306469185},{"NoteNumber":65,"Velocity":55,"Duration":43650,"SoundDuration":43650,"Delta":306648001},{"NoteNumber":68,"Velocity":55,"Duration":43650,"SoundDuration":43650,"Delta":306648001},{"NoteNumber":47,"Velocity":44,"Duration":2117073,"SoundDuration":2117073,"Delta":306648001},{"NoteNumber":35,"Velocity":44,"Duration":2117073,"SoundDuration":2117073,"Delta":306648001},{"NoteNumber":65,"Velocity":43,"Duration":44399,"SoundDuration":44399,"Delta":306822603},{"NoteNumber":62,"Velocity":43,"Duration":44399,"SoundDuration":44399,"Delta":306822603},{"NoteNumber":65,"Velocity":45,"Duration":43650,"SoundDuration":43650,"Delta":307000202},{"NoteNumber":68,"Velocity":45,"Duration":43650,"SoundDuration":43650,"Delta":307000202},{"NoteNumber":62,"Velocity":48,"Duration":44096,"SoundDuration":44096,"Delta":307174803},{"NoteNumber":65,"Velocity":48,"Duration":44096,"SoundDuration":44096,"Delta":307174803},{"NoteNumber":68,"Velocity":46,"Duration":43505,"SoundDuration":43505,"Delta":307351191},{"NoteNumber":65,"Velocity":46,"Duration":43505,"SoundDuration":43505,"Delta":307351191},{"NoteNumber":65,"Velocity":44,"Duration":45330,"SoundDuration":45330,"Delta":307525215},{"NoteNumber":62,"Velocity":44,"Duration":45330,"SoundDuration":45330,"Delta":307525215},{"NoteNumber":67,"Velocity":45,"Duration":43650,"SoundDuration":43650,"Delta":307706538},{"NoteNumber":62,"Velocity":45,"Duration":43650,"SoundDuration":43650,"Delta":307706538},{"NoteNumber":55,"Velocity":38,"Duration":44399,"SoundDuration":44399,"Delta":307881140},{"NoteNumber":62,"Velocity":38,"Duration":44399,"SoundDuration":44399,"Delta":307881140},{"NoteNumber":62,"Velocity":45,"Duration":43650,"SoundDuration":43650,"Delta":308058739},{"NoteNumber":67,"Velocity":45,"Duration":43650,"SoundDuration":43650,"Delta":308058739},{"NoteNumber":65,"Velocity":38,"Duration":44096,"SoundDuration":44096,"Delta":308233340},{"NoteNumber":62,"Velocity":38,"Duration":44096,"SoundDuration":44096,"Delta":308233340},{"NoteNumber":62,"Velocity":44,"Duration":43505,"SoundDuration":43505,"Delta":308409728},{"NoteNumber":56,"Velocity":44,"Duration":43505,"SoundDuration":43505,"Delta":308409728},{"NoteNumber":62,"Velocity":40,"Duration":45330,"SoundDuration":45330,"Delta":308583752},{"NoteNumber":65,"Velocity":40,"Duration":45330,"SoundDuration":45330,"Delta":308583752},{"NoteNumber":60,"Velocity":39,"Duration":43650,"SoundDuration":43650,"Delta":308765075},{"NoteNumber":65,"Velocity":39,"Duration":43650,"SoundDuration":43650,"Delta":308765075},{"NoteNumber":36,"Velocity":36,"Duration":2112282,"SoundDuration":2112282,"Delta":308765075},{"NoteNumber":48,"Velocity":36,"Duration":2112282,"SoundDuration":2112282,"Delta":308765075},{"NoteNumber":56,"Velocity":35,"Duration":44399,"SoundDuration":44399,"Delta":308939677},{"NoteNumber":60,"Velocity":35,"Duration":44399,"SoundDuration":44399,"Delta":308939677},{"NoteNumber":60,"Velocity":41,"Duration":43051,"SoundDuration":43051,"Delta":309117276},{"NoteNumber":65,"Velocity":41,"Duration":43051,"SoundDuration":43051,"Delta":309117276},{"NoteNumber":60,"Velocity":35,"Duration":44096,"SoundDuration":44096,"Delta":309289482},{"NoteNumber":56,"Velocity":35,"Duration":44096,"SoundDuration":44096,"Delta":309289482},{"NoteNumber":60,"Velocity":41,"Duration":43505,"SoundDuration":43505,"Delta":309465869},{"NoteNumber":65,"Velocity":41,"Duration":43505,"SoundDuration":43505,"Delta":309465869},{"NoteNumber":56,"Velocity":35,"Duration":45330,"SoundDuration":45330,"Delta":309639893},{"NoteNumber":60,"Velocity":35,"Duration":45330,"SoundDuration":45330,"Delta":309639893},{"NoteNumber":60,"Velocity":40,"Duration":43051,"SoundDuration":43051,"Delta":309821217},{"NoteNumber":65,"Velocity":40,"Duration":43051,"SoundDuration":43051,"Delta":309821217},{"NoteNumber":55,"Velocity":31,"Duration":44399,"SoundDuration":44399,"Delta":309993423},{"NoteNumber":60,"Velocity":31,"Duration":44399,"SoundDuration":44399,"Delta":309993423},{"NoteNumber":65,"Velocity":45,"Duration":43650,"SoundDuration":43650,"Delta":310171022},{"NoteNumber":60,"Velocity":45,"Duration":43650,"SoundDuration":43650,"Delta":310171022},{"NoteNumber":60,"Velocity":40,"Duration":44096,"SoundDuration":44096,"Delta":310345623},{"NoteNumber":55,"Velocity":40,"Duration":44096,"SoundDuration":44096,"Delta":310345623},{"NoteNumber":60,"Velocity":48,"Duration":43505,"SoundDuration":43505,"Delta":310522011},{"NoteNumber":64,"Velocity":48,"Duration":43505,"SoundDuration":43505,"Delta":310522011},{"NoteNumber":64,"Velocity":42,"Duration":45330,"SoundDuration":45330,"Delta":310696035},{"NoteNumber":68,"Velocity":42,"Duration":45330,"SoundDuration":45330,"Delta":310696035},{"NoteNumber":68,"Velocity":56,"Duration":43175,"SoundDuration":43175,"Delta":310877358},{"NoteNumber":65,"Velocity":56,"Duration":43175,"SoundDuration":43175,"Delta":310877358},{"NoteNumber":46,"Velocity":36,"Duration":1581043,"SoundDuration":1581043,"Delta":310877358},{"NoteNumber":34,"Velocity":36,"Duration":1581043,"SoundDuration":1581043,"Delta":310877358},{"NoteNumber":65,"Velocity":44,"Duration":44399,"SoundDuration":44399,"Delta":311050060},{"NoteNumber":61,"Velocity":44,"Duration":44399,"SoundDuration":44399,"Delta":311050060},{"NoteNumber":68,"Velocity":51,"Duration":43650,"SoundDuration":43650,"Delta":311227659},{"NoteNumber":65,"Velocity":51,"Duration":43650,"SoundDuration":43650,"Delta":311227659},{"NoteNumber":61,"Velocity":35,"Duration":44096,"SoundDuration":44096,"Delta":311402260},{"NoteNumber":65,"Velocity":35,"Duration":44096,"SoundDuration":44096,"Delta":311402260},{"NoteNumber":65,"Velocity":44,"Duration":43505,"SoundDuration":43505,"Delta":311578648},{"NoteNumber":68,"Velocity":44,"Duration":43505,"SoundDuration":43505,"Delta":311578648},{"NoteNumber":61,"Velocity":35,"Duration":45330,"SoundDuration":45330,"Delta":311752672},{"NoteNumber":65,"Velocity":35,"Duration":45330,"SoundDuration":45330,"Delta":311752672},{"NoteNumber":65,"Velocity":43,"Duration":43051,"SoundDuration":43051,"Delta":311933995},{"NoteNumber":67,"Velocity":43,"Duration":43051,"SoundDuration":43051,"Delta":311933995},{"NoteNumber":61,"Velocity":34,"Duration":44399,"SoundDuration":44399,"Delta":312106201},{"NoteNumber":65,"Velocity":34,"Duration":44399,"SoundDuration":44399,"Delta":312106201},{"NoteNumber":65,"Velocity":43,"Duration":43650,"SoundDuration":43650,"Delta":312283800},{"NoteNumber":67,"Velocity":43,"Duration":43650,"SoundDuration":43650,"Delta":312283800},{"NoteNumber":62,"Velocity":34,"Duration":44096,"SoundDuration":44096,"Delta":312458402},{"NoteNumber":65,"Velocity":34,"Duration":44096,"SoundDuration":44096,"Delta":312458402},{"NoteNumber":47,"Velocity":31,"Duration":531734,"SoundDuration":531734,"Delta":312458402},{"NoteNumber":35,"Velocity":31,"Duration":531734,"SoundDuration":531734,"Delta":312458402},{"NoteNumber":62,"Velocity":41,"Duration":43505,"SoundDuration":43505,"Delta":312634789},{"NoteNumber":55,"Velocity":41,"Duration":43505,"SoundDuration":43505,"Delta":312634789},{"NoteNumber":65,"Velocity":36,"Duration":45330,"SoundDuration":45330,"Delta":312808813},{"NoteNumber":62,"Velocity":36,"Duration":45330,"SoundDuration":45330,"Delta":312808813},{"NoteNumber":65,"Velocity":39,"Duration":43051,"SoundDuration":43051,"Delta":312990137},{"NoteNumber":60,"Velocity":39,"Duration":43051,"SoundDuration":43051,"Delta":312990137},{"NoteNumber":36,"Velocity":36,"Duration":2112778,"SoundDuration":2112778,"Delta":312990137},{"NoteNumber":48,"Velocity":36,"Duration":2112778,"SoundDuration":2112778,"Delta":312990137},{"NoteNumber":56,"Velocity":35,"Duration":44399,"SoundDuration":44399,"Delta":313162343},{"NoteNumber":60,"Velocity":35,"Duration":44399,"SoundDuration":44399,"Delta":313162343},{"NoteNumber":60,"Velocity":41,"Duration":43650,"SoundDuration":43650,"Delta":313339942},{"NoteNumber":65,"Velocity":41,"Duration":43650,"SoundDuration":43650,"Delta":313339942},{"NoteNumber":56,"Velocity":35,"Duration":44096,"SoundDuration":44096,"Delta":313514543},{"NoteNumber":60,"Velocity":35,"Duration":44096,"SoundDuration":44096,"Delta":313514543},{"NoteNumber":65,"Velocity":41,"Duration":43505,"SoundDuration":43505,"Delta":313690931},{"NoteNumber":60,"Velocity":41,"Duration":43505,"SoundDuration":43505,"Delta":313690931},{"NoteNumber":56,"Velocity":35,"Duration":45330,"SoundDuration":45330,"Delta":313864955},{"NoteNumber":60,"Velocity":35,"Duration":45330,"SoundDuration":45330,"Delta":313864955},{"NoteNumber":65,"Velocity":40,"Duration":43175,"SoundDuration":43175,"Delta":314046278},{"NoteNumber":60,"Velocity":40,"Duration":43175,"SoundDuration":43175,"Delta":314046278},{"NoteNumber":56,"Velocity":31,"Duration":44399,"SoundDuration":44399,"Delta":314218980},{"NoteNumber":60,"Velocity":31,"Duration":44399,"SoundDuration":44399,"Delta":314218980},{"NoteNumber":60,"Velocity":38,"Duration":43650,"SoundDuration":43650,"Delta":314396579},{"NoteNumber":65,"Velocity":38,"Duration":43650,"SoundDuration":43650,"Delta":314396579},{"NoteNumber":60,"Velocity":30,"Duration":44096,"SoundDuration":44096,"Delta":314571180},{"NoteNumber":56,"Velocity":30,"Duration":44096,"SoundDuration":44096,"Delta":314571180},{"NoteNumber":60,"Velocity":39,"Duration":43505,"SoundDuration":43505,"Delta":314747568},{"NoteNumber":65,"Velocity":39,"Duration":43505,"SoundDuration":43505,"Delta":314747568},{"NoteNumber":56,"Velocity":32,"Duration":45330,"SoundDuration":45330,"Delta":314921592},{"NoteNumber":60,"Velocity":32,"Duration":45330,"SoundDuration":45330,"Delta":314921592},{"NoteNumber":65,"Velocity":39,"Duration":42928,"SoundDuration":42928,"Delta":315102915},{"NoteNumber":60,"Velocity":39,"Duration":42928,"SoundDuration":42928,"Delta":315102915},{"NoteNumber":36,"Velocity":36,"Duration":2155072,"SoundDuration":2155072,"Delta":315102915},{"NoteNumber":48,"Velocity":36,"Duration":2155072,"SoundDuration":2155072,"Delta":315102915},{"NoteNumber":60,"Velocity":34,"Duration":44399,"SoundDuration":44399,"Delta":315274628},{"NoteNumber":55,"Velocity":34,"Duration":44399,"SoundDuration":44399,"Delta":315274628},{"NoteNumber":65,"Velocity":38,"Duration":43650,"SoundDuration":43650,"Delta":315452227},{"NoteNumber":60,"Velocity":38,"Duration":43650,"SoundDuration":43650,"Delta":315452227},{"NoteNumber":55,"Velocity":32,"Duration":44096,"SoundDuration":44096,"Delta":315626829},{"NoteNumber":60,"Velocity":32,"Duration":44096,"SoundDuration":44096,"Delta":315626829},{"NoteNumber":65,"Velocity":36,"Duration":43505,"SoundDuration":43505,"Delta":315803216},{"NoteNumber":60,"Velocity":36,"Duration":43505,"SoundDuration":43505,"Delta":315803216},{"NoteNumber":55,"Velocity":30,"Duration":45330,"SoundDuration":45330,"Delta":315977240},{"NoteNumber":60,"Velocity":30,"Duration":45330,"SoundDuration":45330,"Delta":315977240},{"NoteNumber":64,"Velocity":34,"Duration":44096,"SoundDuration":44096,"Delta":316158564},{"NoteNumber":60,"Velocity":34,"Duration":44096,"SoundDuration":44096,"Delta":316158564},{"NoteNumber":60,"Velocity":25,"Duration":45490,"SoundDuration":45490,"Delta":316334951},{"NoteNumber":55,"Velocity":25,"Duration":45490,"SoundDuration":45490,"Delta":316334951},{"NoteNumber":64,"Velocity":30,"Duration":44552,"SoundDuration":44552,"Delta":316516913},{"NoteNumber":60,"Velocity":30,"Duration":44552,"SoundDuration":44552,"Delta":316516913},{"NoteNumber":60,"Velocity":23,"Duration":46302,"SoundDuration":46302,"Delta":316695124},{"NoteNumber":55,"Velocity":23,"Duration":46302,"SoundDuration":46302,"Delta":316695124},{"NoteNumber":60,"Velocity":29,"Duration":45490,"SoundDuration":45490,"Delta":316880332},{"NoteNumber":64,"Velocity":29,"Duration":45490,"SoundDuration":45490,"Delta":316880332},{"NoteNumber":55,"Velocity":23,"Duration":48923,"SoundDuration":48923,"Delta":317062293},{"NoteNumber":60,"Velocity":23,"Duration":48923,"SoundDuration":48923,"Delta":317062293},{"NoteNumber":77,"Velocity":88,"Duration":167194,"SoundDuration":167194,"Delta":318432155},{"NoteNumber":41,"Velocity":80,"Duration":167194,"SoundDuration":167194,"Delta":318432155},{"NoteNumber":65,"Velocity":80,"Duration":169290,"SoundDuration":169290,"Delta":318599349},{"NoteNumber":53,"Velocity":71,"Duration":169290,"SoundDuration":169290,"Delta":318599349},{"NoteNumber":77,"Velocity":80,"Duration":42827,"SoundDuration":42827,"Delta":318768639},{"NoteNumber":41,"Velocity":71,"Duration":42827,"SoundDuration":42827,"Delta":318768639},{"NoteNumber":80,"Velocity":88,"Duration":166719,"SoundDuration":166719,"Delta":318939950},{"NoteNumber":44,"Velocity":80,"Duration":166719,"SoundDuration":166719,"Delta":318939950},{"NoteNumber":68,"Velocity":80,"Duration":168340,"SoundDuration":168340,"Delta":319106670},{"NoteNumber":56,"Velocity":75,"Duration":168340,"SoundDuration":168340,"Delta":319106670},{"NoteNumber":80,"Velocity":80,"Duration":42827,"SoundDuration":42827,"Delta":319275010},{"NoteNumber":44,"Velocity":80,"Duration":42827,"SoundDuration":42827,"Delta":319275010},{"NoteNumber":84,"Velocity":88,"Duration":166956,"SoundDuration":166956,"Delta":319446321},{"NoteNumber":48,"Velocity":80,"Duration":166956,"SoundDuration":166956,"Delta":319446321},{"NoteNumber":72,"Velocity":80,"Duration":168814,"SoundDuration":168814,"Delta":319613277},{"NoteNumber":60,"Velocity":74,"Duration":168814,"SoundDuration":168814,"Delta":319613277},{"NoteNumber":84,"Velocity":80,"Duration":42950,"SoundDuration":42950,"Delta":319782092},{"NoteNumber":48,"Velocity":74,"Duration":42950,"SoundDuration":42950,"Delta":319782092},{"NoteNumber":79,"Velocity":88,"Duration":163995,"SoundDuration":163995,"Delta":319953893},{"NoteNumber":43,"Velocity":80,"Duration":163995,"SoundDuration":163995,"Delta":319953893},{"NoteNumber":67,"Velocity":80,"Duration":166011,"SoundDuration":166011,"Delta":320117889},{"NoteNumber":55,"Velocity":71,"Duration":166011,"SoundDuration":166011,"Delta":320117889},{"NoteNumber":79,"Velocity":80,"Duration":42463,"SoundDuration":42463,"Delta":320283901},{"NoteNumber":43,"Velocity":71,"Duration":42463,"SoundDuration":42463,"Delta":320283901},{"NoteNumber":82,"Velocity":88,"Duration":164209,"SoundDuration":164209,"Delta":320453757},{"NoteNumber":46,"Velocity":80,"Duration":164209,"SoundDuration":164209,"Delta":320453757},{"NoteNumber":70,"Velocity":80,"Duration":166935,"SoundDuration":166935,"Delta":320617966},{"NoteNumber":58,"Velocity":75,"Duration":166935,"SoundDuration":166935,"Delta":320617966},{"NoteNumber":82,"Velocity":80,"Duration":42584,"SoundDuration":42584,"Delta":320784902},{"NoteNumber":46,"Velocity":80,"Duration":42584,"SoundDuration":42584,"Delta":320784902},{"NoteNumber":77,"Velocity":88,"Duration":164665,"SoundDuration":164665,"Delta":320955240},{"NoteNumber":41,"Velocity":80,"Duration":164665,"SoundDuration":164665,"Delta":320955240},{"NoteNumber":65,"Velocity":80,"Duration":166472,"SoundDuration":166472,"Delta":321119905},{"NoteNumber":53,"Velocity":74,"Duration":166472,"SoundDuration":166472,"Delta":321119905},{"NoteNumber":77,"Velocity":80,"Duration":43322,"SoundDuration":43322,"Delta":321286378},{"NoteNumber":41,"Velocity":74,"Duration":43322,"SoundDuration":43322,"Delta":321286378},{"NoteNumber":80,"Velocity":88,"Duration":167184,"SoundDuration":167184,"Delta":321459668},{"NoteNumber":77,"Velocity":74,"Duration":167184,"SoundDuration":167184,"Delta":321459668},{"NoteNumber":36,"Velocity":80,"Duration":167184,"SoundDuration":167184,"Delta":321459668},{"NoteNumber":68,"Velocity":80,"Duration":168814,"SoundDuration":168814,"Delta":321626852},{"NoteNumber":48,"Velocity":71,"Duration":168814,"SoundDuration":168814,"Delta":321626852},{"NoteNumber":77,"Velocity":68,"Duration":42827,"SoundDuration":42827,"Delta":321795666},{"NoteNumber":80,"Velocity":80,"Duration":42827,"SoundDuration":42827,"Delta":321795666},{"NoteNumber":36,"Velocity":71,"Duration":42827,"SoundDuration":42827,"Delta":321795666},{"NoteNumber":79,"Velocity":88,"Duration":166369,"SoundDuration":166369,"Delta":321966977},{"NoteNumber":76,"Velocity":60,"Duration":166369,"SoundDuration":166369,"Delta":321966977},{"NoteNumber":36,"Velocity":80,"Duration":166369,"SoundDuration":166369,"Delta":321966977},{"NoteNumber":67,"Velocity":80,"Duration":168814,"SoundDuration":168814,"Delta":322133347},{"NoteNumber":48,"Velocity":75,"Duration":168814,"SoundDuration":168814,"Delta":322133347},{"NoteNumber":79,"Velocity":80,"Duration":43322,"SoundDuration":43322,"Delta":322302161},{"NoteNumber":76,"Velocity":68,"Duration":43322,"SoundDuration":43322,"Delta":322302161},{"NoteNumber":36,"Velocity":80,"Duration":43322,"SoundDuration":43322,"Delta":322302161},{"NoteNumber":77,"Velocity":88,"Duration":166023,"SoundDuration":166023,"Delta":322475451},{"NoteNumber":41,"Velocity":80,"Duration":166023,"SoundDuration":166023,"Delta":322475451},{"NoteNumber":65,"Velocity":80,"Duration":167401,"SoundDuration":167401,"Delta":322641474},{"NoteNumber":53,"Velocity":74,"Duration":167401,"SoundDuration":167401,"Delta":322641474},{"NoteNumber":77,"Velocity":80,"Duration":42950,"SoundDuration":42950,"Delta":322808876},{"NoteNumber":41,"Velocity":74,"Duration":42950,"SoundDuration":42950,"Delta":322808876},{"NoteNumber":80,"Velocity":88,"Duration":165908,"SoundDuration":165908,"Delta":322980677},{"NoteNumber":77,"Velocity":74,"Duration":165908,"SoundDuration":165908,"Delta":322980677},{"NoteNumber":37,"Velocity":80,"Duration":165908,"SoundDuration":165908,"Delta":322980677},{"NoteNumber":68,"Velocity":80,"Duration":168340,"SoundDuration":168340,"Delta":323146586},{"NoteNumber":49,"Velocity":71,"Duration":168340,"SoundDuration":168340,"Delta":323146586},{"NoteNumber":77,"Velocity":68,"Duration":43073,"SoundDuration":43073,"Delta":323314926},{"NoteNumber":80,"Velocity":80,"Duration":43073,"SoundDuration":43073,"Delta":323314926},{"NoteNumber":37,"Velocity":71,"Duration":43073,"SoundDuration":43073,"Delta":323314926},{"NoteNumber":75,"Velocity":60,"Duration":165573,"SoundDuration":165573,"Delta":323487221},{"NoteNumber":84,"Velocity":88,"Duration":165573,"SoundDuration":165573,"Delta":323487221},{"NoteNumber":32,"Velocity":80,"Duration":165573,"SoundDuration":165573,"Delta":323487221},{"NoteNumber":72,"Velocity":80,"Duration":167401,"SoundDuration":167401,"Delta":323652795},{"NoteNumber":44,"Velocity":75,"Duration":167401,"SoundDuration":167401,"Delta":323652795},{"NoteNumber":75,"Velocity":68,"Duration":42950,"SoundDuration":42950,"Delta":323820197},{"NoteNumber":84,"Velocity":80,"Duration":42950,"SoundDuration":42950,"Delta":323820197},{"NoteNumber":32,"Velocity":80,"Duration":42950,"SoundDuration":42950,"Delta":323820197},{"NoteNumber":75,"Velocity":74,"Duration":166837,"SoundDuration":166837,"Delta":323991998},{"NoteNumber":79,"Velocity":88,"Duration":166837,"SoundDuration":166837,"Delta":323991998},{"NoteNumber":39,"Velocity":80,"Duration":166837,"SoundDuration":166837,"Delta":323991998},{"NoteNumber":70,"Velocity":80,"Duration":168814,"SoundDuration":168814,"Delta":324158836},{"NoteNumber":51,"Velocity":74,"Duration":168814,"SoundDuration":168814,"Delta":324158836},{"NoteNumber":79,"Velocity":80,"Duration":43322,"SoundDuration":43322,"Delta":324327651},{"NoteNumber":75,"Velocity":68,"Duration":43322,"SoundDuration":43322,"Delta":324327651},{"NoteNumber":39,"Velocity":74,"Duration":43322,"SoundDuration":43322,"Delta":324327651},{"NoteNumber":77,"Velocity":74,"Duration":168113,"SoundDuration":168113,"Delta":324500941},{"NoteNumber":82,"Velocity":88,"Duration":168113,"SoundDuration":168113,"Delta":324500941},{"NoteNumber":73,"Velocity":74,"Duration":168113,"SoundDuration":168113,"Delta":324500941},{"NoteNumber":34,"Velocity":80,"Duration":168113,"SoundDuration":168113,"Delta":324500941},{"NoteNumber":70,"Velocity":80,"Duration":169290,"SoundDuration":169290,"Delta":324669054},{"NoteNumber":46,"Velocity":71,"Duration":169290,"SoundDuration":169290,"Delta":324669054},{"NoteNumber":77,"Velocity":68,"Duration":43322,"SoundDuration":43322,"Delta":324838344},{"NoteNumber":73,"Velocity":68,"Duration":43322,"SoundDuration":43322,"Delta":324838344},{"NoteNumber":82,"Velocity":80,"Duration":43322,"SoundDuration":43322,"Delta":324838344},{"NoteNumber":34,"Velocity":71,"Duration":43322,"SoundDuration":43322,"Delta":324838344},{"NoteNumber":68,"Velocity":60,"Duration":168426,"SoundDuration":168426,"Delta":325011634},{"NoteNumber":77,"Velocity":88,"Duration":168426,"SoundDuration":168426,"Delta":325011634},{"NoteNumber":37,"Velocity":80,"Duration":168426,"SoundDuration":168426,"Delta":325011634},{"NoteNumber":65,"Velocity":80,"Duration":168426,"SoundDuration":168426,"Delta":325180060},{"NoteNumber":49,"Velocity":75,"Duration":168426,"SoundDuration":168426,"Delta":325180060},{"NoteNumber":68,"Velocity":68,"Duration":43322,"SoundDuration":43322,"Delta":325348486},{"NoteNumber":77,"Velocity":80,"Duration":43322,"SoundDuration":43322,"Delta":325348486},{"NoteNumber":37,"Velocity":80,"Duration":43322,"SoundDuration":43322,"Delta":325348486},{"NoteNumber":77,"Velocity":74,"Duration":167954,"SoundDuration":167954,"Delta":325521776},{"NoteNumber":80,"Velocity":88,"Duration":167954,"SoundDuration":167954,"Delta":325521776},{"NoteNumber":36,"Velocity":80,"Duration":167954,"SoundDuration":167954,"Delta":325521776},{"NoteNumber":68,"Velocity":80,"Duration":167954,"SoundDuration":167954,"Delta":325689731},{"NoteNumber":48,"Velocity":74,"Duration":167954,"SoundDuration":167954,"Delta":325689731},{"NoteNumber":77,"Velocity":68,"Duration":43073,"SoundDuration":43073,"Delta":325857685},{"NoteNumber":80,"Velocity":80,"Duration":43073,"SoundDuration":43073,"Delta":325857685},{"NoteNumber":36,"Velocity":74,"Duration":43073,"SoundDuration":43073,"Delta":325857685},{"NoteNumber":76,"Velocity":74,"Duration":167485,"SoundDuration":167485,"Delta":326029980},{"NoteNumber":79,"Velocity":88,"Duration":167485,"SoundDuration":167485,"Delta":326029980},{"NoteNumber":36,"Velocity":80,"Duration":167485,"SoundDuration":167485,"Delta":326029980},{"NoteNumber":67,"Velocity":80,"Duration":167485,"SoundDuration":167485,"Delta":326197466},{"NoteNumber":48,"Velocity":74,"Duration":167485,"SoundDuration":167485,"Delta":326197466},{"NoteNumber":79,"Velocity":80,"Duration":45148,"SoundDuration":45148,"Delta":326364951},{"NoteNumber":76,"Velocity":68,"Duration":45148,"SoundDuration":45148,"Delta":326364951},{"NoteNumber":36,"Velocity":74,"Duration":45148,"SoundDuration":45148,"Delta":326364951},{"NoteNumber":89,"Velocity":88,"Duration":172295,"SoundDuration":172295,"Delta":326545544},{"NoteNumber":53,"Velocity":80,"Duration":172295,"SoundDuration":172295,"Delta":326545544},{"NoteNumber":77,"Velocity":72,"Duration":83047,"SoundDuration":83047,"Delta":326717839},{"NoteNumber":65,"Velocity":63,"Duration":83047,"SoundDuration":83047,"Delta":326717839},{"NoteNumber":89,"Velocity":72,"Duration":83047,"SoundDuration":83047,"Delta":326800886},{"NoteNumber":53,"Velocity":54,"Duration":83047,"SoundDuration":83047,"Delta":326800886},{"NoteNumber":77,"Velocity":80,"Duration":44610,"SoundDuration":44610,"Delta":326883933},{"NoteNumber":65,"Velocity":71,"Duration":44610,"SoundDuration":44610,"Delta":326883933},{"NoteNumber":92,"Velocity":88,"Duration":171311,"SoundDuration":171311,"Delta":327062377},{"NoteNumber":89,"Velocity":74,"Duration":171311,"SoundDuration":171311,"Delta":327062377},{"NoteNumber":49,"Velocity":80,"Duration":171311,"SoundDuration":171311,"Delta":327062377},{"NoteNumber":80,"Velocity":72,"Duration":82363,"SoundDuration":82363,"Delta":327233688},{"NoteNumber":61,"Velocity":67,"Duration":82363,"SoundDuration":82363,"Delta":327233688},{"NoteNumber":92,"Velocity":59,"Duration":82363,"SoundDuration":82363,"Delta":327316051},{"NoteNumber":89,"Velocity":50,"Duration":82363,"SoundDuration":82363,"Delta":327316051},{"NoteNumber":49,"Velocity":57,"Duration":82363,"SoundDuration":82363,"Delta":327316051},{"NoteNumber":80,"Velocity":80,"Duration":43701,"SoundDuration":43701,"Delta":327398415},{"NoteNumber":61,"Velocity":80,"Duration":43701,"SoundDuration":43701,"Delta":327398415},{"NoteNumber":96,"Velocity":88,"Duration":168900,"SoundDuration":168900,"Delta":327573220},{"NoteNumber":87,"Velocity":74,"Duration":168900,"SoundDuration":168900,"Delta":327573220},{"NoteNumber":44,"Velocity":80,"Duration":168900,"SoundDuration":168900,"Delta":327573220},{"NoteNumber":84,"Velocity":72,"Duration":81690,"SoundDuration":81690,"Delta":327742120},{"NoteNumber":56,"Velocity":66,"Duration":81690,"SoundDuration":81690,"Delta":327742120},{"NoteNumber":87,"Velocity":52,"Duration":81690,"SoundDuration":81690,"Delta":327823810},{"NoteNumber":96,"Velocity":62,"Duration":81690,"SoundDuration":81690,"Delta":327823810},{"NoteNumber":44,"Velocity":56,"Duration":81690,"SoundDuration":81690,"Delta":327823810},{"NoteNumber":84,"Velocity":80,"Duration":43073,"SoundDuration":43073,"Delta":327905501},{"NoteNumber":56,"Velocity":74,"Duration":43073,"SoundDuration":43073,"Delta":327905501},{"NoteNumber":87,"Velocity":74,"Duration":168900,"SoundDuration":168900,"Delta":328077796},{"NoteNumber":91,"Velocity":88,"Duration":168900,"SoundDuration":168900,"Delta":328077796},{"NoteNumber":51,"Velocity":80,"Duration":168900,"SoundDuration":168900,"Delta":328077796},{"NoteNumber":82,"Velocity":72,"Duration":82137,"SoundDuration":82137,"Delta":328246696},{"NoteNumber":63,"Velocity":63,"Duration":82137,"SoundDuration":82137,"Delta":328246696},{"NoteNumber":91,"Velocity":64,"Duration":82137,"SoundDuration":82137,"Delta":328328833},{"NoteNumber":87,"Velocity":54,"Duration":82137,"SoundDuration":82137,"Delta":328328833},{"NoteNumber":51,"Velocity":56,"Duration":82137,"SoundDuration":82137,"Delta":328328833},{"NoteNumber":82,"Velocity":80,"Duration":43448,"SoundDuration":43448,"Delta":328410971},{"NoteNumber":63,"Velocity":71,"Duration":43448,"SoundDuration":43448,"Delta":328410971},{"NoteNumber":89,"Velocity":74,"Duration":169855,"SoundDuration":169855,"Delta":328584763},{"NoteNumber":85,"Velocity":74,"Duration":169855,"SoundDuration":169855,"Delta":328584763},{"NoteNumber":94,"Velocity":88,"Duration":169855,"SoundDuration":169855,"Delta":328584763},{"NoteNumber":46,"Velocity":80,"Duration":169855,"SoundDuration":169855,"Delta":328584763},{"NoteNumber":82,"Velocity":72,"Duration":82363,"SoundDuration":82363,"Delta":328754619},{"NoteNumber":58,"Velocity":67,"Duration":82363,"SoundDuration":82363,"Delta":328754619},{"NoteNumber":94,"Velocity":64,"Duration":82363,"SoundDuration":82363,"Delta":328836982},{"NoteNumber":85,"Velocity":54,"Duration":82363,"SoundDuration":82363,"Delta":328836982},{"NoteNumber":89,"Velocity":54,"Duration":82363,"SoundDuration":82363,"Delta":328836982},{"NoteNumber":46,"Velocity":59,"Duration":82363,"SoundDuration":82363,"Delta":328836982},{"NoteNumber":82,"Velocity":80,"Duration":43828,"SoundDuration":43828,"Delta":328919346},{"NoteNumber":58,"Velocity":80,"Duration":43828,"SoundDuration":43828,"Delta":328919346},{"NoteNumber":80,"Velocity":74,"Duration":169855,"SoundDuration":169855,"Delta":329094661},{"NoteNumber":89,"Velocity":88,"Duration":169855,"SoundDuration":169855,"Delta":329094661},{"NoteNumber":49,"Velocity":80,"Duration":169855,"SoundDuration":169855,"Delta":329094661},{"NoteNumber":77,"Velocity":72,"Duration":83047,"SoundDuration":83047,"Delta":329264517},{"NoteNumber":61,"Velocity":66,"Duration":83047,"SoundDuration":83047,"Delta":329264517},{"NoteNumber":80,"Velocity":53,"Duration":83047,"SoundDuration":83047,"Delta":329347564},{"NoteNumber":89,"Velocity":63,"Duration":83047,"SoundDuration":83047,"Delta":329347564},{"NoteNumber":49,"Velocity":59,"Duration":83047,"SoundDuration":83047,"Delta":329347564},{"NoteNumber":77,"Velocity":80,"Duration":43448,"SoundDuration":43448,"Delta":329430612},{"NoteNumber":61,"Velocity":74,"Duration":43448,"SoundDuration":43448,"Delta":329430612},{"NoteNumber":89,"Velocity":74,"Duration":169376,"SoundDuration":169376,"Delta":329604404},{"NoteNumber":92,"Velocity":88,"Duration":169376,"SoundDuration":169376,"Delta":329604404},{"NoteNumber":48,"Velocity":80,"Duration":169376,"SoundDuration":169376,"Delta":329604404},{"NoteNumber":80,"Velocity":72,"Duration":81208,"SoundDuration":81208,"Delta":329773780},{"NoteNumber":60,"Velocity":63,"Duration":81208,"SoundDuration":81208,"Delta":329773780},{"NoteNumber":89,"Velocity":53,"Duration":81208,"SoundDuration":81208,"Delta":329854989},{"NoteNumber":92,"Velocity":63,"Duration":81208,"SoundDuration":81208,"Delta":329854989},{"NoteNumber":48,"Velocity":54,"Duration":81208,"SoundDuration":81208,"Delta":329854989},{"NoteNumber":80,"Velocity":80,"Duration":43073,"SoundDuration":43073,"Delta":329936197},{"NoteNumber":60,"Velocity":71,"Duration":43073,"SoundDuration":43073,"Delta":329936197},{"NoteNumber":88,"Velocity":60,"Duration":168426,"SoundDuration":168426,"Delta":330108492},{"NoteNumber":91,"Velocity":88,"Duration":168426,"SoundDuration":168426,"Delta":330108492},{"NoteNumber":48,"Velocity":80,"Duration":168426,"SoundDuration":168426,"Delta":330108492},{"NoteNumber":79,"Velocity":72,"Duration":82589,"SoundDuration":82589,"Delta":330276918},{"NoteNumber":60,"Velocity":67,"Duration":82589,"SoundDuration":82589,"Delta":330276918},{"NoteNumber":88,"Velocity":52,"Duration":82590,"SoundDuration":82590,"Delta":330359508},{"NoteNumber":91,"Velocity":62,"Duration":82590,"SoundDuration":82590,"Delta":330359508},{"NoteNumber":48,"Velocity":59,"Duration":82590,"SoundDuration":82590,"Delta":330359508},{"NoteNumber":79,"Velocity":80,"Duration":43073,"SoundDuration":43073,"Delta":330442098},{"NoteNumber":60,"Velocity":80,"Duration":43073,"SoundDuration":43073,"Delta":330442098},{"NoteNumber":92,"Velocity":88,"Duration":168426,"SoundDuration":168426,"Delta":330614393},{"NoteNumber":89,"Velocity":74,"Duration":168426,"SoundDuration":168426,"Delta":330614393},{"NoteNumber":48,"Velocity":80,"Duration":168426,"SoundDuration":168426,"Delta":330614393},{"NoteNumber":80,"Velocity":72,"Duration":81428,"SoundDuration":81428,"Delta":330782819},{"NoteNumber":60,"Velocity":66,"Duration":81428,"SoundDuration":81428,"Delta":330782819},{"NoteNumber":92,"Velocity":64,"Duration":81428,"SoundDuration":81428,"Delta":330864248},{"NoteNumber":89,"Velocity":54,"Duration":81428,"SoundDuration":81428,"Delta":330864248},{"NoteNumber":48,"Velocity":58,"Duration":81428,"SoundDuration":81428,"Delta":330864248},{"NoteNumber":80,"Velocity":81,"Duration":43073,"SoundDuration":43073,"Delta":330945677},{"NoteNumber":60,"Velocity":75,"Duration":43073,"SoundDuration":43073,"Delta":330945677},{"NoteNumber":88,"Velocity":77,"Duration":168426,"SoundDuration":168426,"Delta":331117972},{"NoteNumber":96,"Velocity":91,"Duration":168426,"SoundDuration":168426,"Delta":331117972},{"NoteNumber":91,"Velocity":77,"Duration":168426,"SoundDuration":168426,"Delta":331117972},{"NoteNumber":48,"Velocity":83,"Duration":168426,"SoundDuration":168426,"Delta":331117972},{"NoteNumber":84,"Velocity":75,"Duration":81873,"SoundDuration":81873,"Delta":331286398},{"NoteNumber":60,"Velocity":66,"Duration":81873,"SoundDuration":81873,"Delta":331286398},{"NoteNumber":96,"Velocity":66,"Duration":81873,"SoundDuration":81873,"Delta":331368271},{"NoteNumber":88,"Velocity":56,"Duration":81873,"SoundDuration":81873,"Delta":331368271},{"NoteNumber":91,"Velocity":66,"Duration":81873,"SoundDuration":81873,"Delta":331368271},{"NoteNumber":48,"Velocity":58,"Duration":81873,"SoundDuration":81873,"Delta":331368271},{"NoteNumber":84,"Velocity":84,"Duration":43574,"SoundDuration":43574,"Delta":331450144},{"NoteNumber":60,"Velocity":75,"Duration":43574,"SoundDuration":43574,"Delta":331450144},{"NoteNumber":96,"Velocity":95,"Duration":170338,"SoundDuration":170338,"Delta":331624441},{"NoteNumber":92,"Velocity":64,"Duration":170338,"SoundDuration":170338,"Delta":331624441},{"NoteNumber":89,"Velocity":64,"Duration":170338,"SoundDuration":170338,"Delta":331624441},{"NoteNumber":48,"Velocity":86,"Duration":170338,"SoundDuration":170338,"Delta":331624441},{"NoteNumber":84,"Velocity":78,"Duration":82589,"SoundDuration":82589,"Delta":331794780},{"NoteNumber":60,"Velocity":73,"Duration":82589,"SoundDuration":82589,"Delta":331794780},{"NoteNumber":96,"Velocity":69,"Duration":82590,"SoundDuration":82590,"Delta":331877370},{"NoteNumber":89,"Velocity":58,"Duration":82590,"SoundDuration":82590,"Delta":331877370},{"NoteNumber":92,"Velocity":58,"Duration":82590,"SoundDuration":82590,"Delta":331877370},{"NoteNumber":48,"Velocity":64,"Duration":82590,"SoundDuration":82590,"Delta":331877370},{"NoteNumber":84,"Velocity":88,"Duration":44744,"SoundDuration":44744,"Delta":331959960},{"NoteNumber":60,"Velocity":88,"Duration":44744,"SoundDuration":44744,"Delta":331959960},{"NoteNumber":91,"Velocity":83,"Duration":172295,"SoundDuration":172295,"Delta":332138936},{"NoteNumber":96,"Velocity":83,"Duration":172295,"SoundDuration":172295,"Delta":332138936},{"NoteNumber":100,"Velocity":98,"Duration":172295,"SoundDuration":172295,"Delta":332138936},{"NoteNumber":48,"Velocity":89,"Duration":172295,"SoundDuration":172295,"Delta":332138936},{"NoteNumber":88,"Velocity":81,"Duration":83509,"SoundDuration":83509,"Delta":332311231},{"NoteNumber":60,"Velocity":74,"Duration":83509,"SoundDuration":83509,"Delta":332311231},{"NoteNumber":96,"Velocity":61,"Duration":83509,"SoundDuration":83509,"Delta":332394741},{"NoteNumber":91,"Velocity":61,"Duration":83509,"SoundDuration":83509,"Delta":332394741},{"NoteNumber":100,"Velocity":72,"Duration":83509,"SoundDuration":83509,"Delta":332394741},{"NoteNumber":48,"Velocity":64,"Duration":83509,"SoundDuration":83509,"Delta":332394741},{"NoteNumber":88,"Velocity":91,"Duration":44478,"SoundDuration":44478,"Delta":332478251},{"NoteNumber":60,"Velocity":84,"Duration":44478,"SoundDuration":44478,"Delta":332478251},{"NoteNumber":89,"Velocity":85,"Duration":29652,"SoundDuration":29652,"Delta":332567208},{"NoteNumber":92,"Velocity":90,"Duration":29652,"SoundDuration":29652,"Delta":332596861},{"NoteNumber":96,"Velocity":96,"Duration":29652,"SoundDuration":29652,"Delta":332626513},{"NoteNumber":101,"Velocity":105,"Duration":83740,"SoundDuration":83740,"Delta":332656166},{"NoteNumber":65,"Velocity":67,"Duration":150877,"SoundDuration":150877,"Delta":332656166},{"NoteNumber":60,"Velocity":56,"Duration":150877,"SoundDuration":150877,"Delta":332656166},{"NoteNumber":56,"Velocity":56,"Duration":150877,"SoundDuration":150877,"Delta":332656166},{"NoteNumber":53,"Velocity":56,"Duration":150877,"SoundDuration":150877,"Delta":332656166},{"NoteNumber":99,"Velocity":103,"Duration":83975,"SoundDuration":83975,"Delta":332739907},{"NoteNumber":97,"Velocity":101,"Duration":84388,"SoundDuration":84388,"Delta":332823882},{"NoteNumber":65,"Velocity":57,"Duration":152225,"SoundDuration":152225,"Delta":332823882},{"NoteNumber":60,"Velocity":48,"Duration":152225,"SoundDuration":152225,"Delta":332823882},{"NoteNumber":56,"Velocity":48,"Duration":152225,"SoundDuration":152225,"Delta":332823882},{"NoteNumber":53,"Velocity":48,"Duration":152225,"SoundDuration":152225,"Delta":332823882},{"NoteNumber":96,"Velocity":98,"Duration":84822,"SoundDuration":84822,"Delta":332908271},{"NoteNumber":94,"Velocity":96,"Duration":85258,"SoundDuration":85258,"Delta":332993093},{"NoteNumber":65,"Velocity":57,"Duration":1370562,"SoundDuration":1370562,"Delta":332993093},{"NoteNumber":60,"Velocity":48,"Duration":1370562,"SoundDuration":1370562,"Delta":332993093},{"NoteNumber":56,"Velocity":48,"Duration":1370562,"SoundDuration":1370562,"Delta":332993093},{"NoteNumber":53,"Velocity":48,"Duration":1370562,"SoundDuration":1370562,"Delta":332993093},{"NoteNumber":92,"Velocity":94,"Duration":85684,"SoundDuration":85684,"Delta":333078351},{"NoteNumber":91,"Velocity":92,"Duration":85671,"SoundDuration":85671,"Delta":333164036},{"NoteNumber":89,"Velocity":89,"Duration":85655,"SoundDuration":85655,"Delta":333249708},{"NoteNumber":87,"Velocity":87,"Duration":85884,"SoundDuration":85884,"Delta":333335363},{"NoteNumber":85,"Velocity":85,"Duration":85915,"SoundDuration":85915,"Delta":333421248},{"NoteNumber":84,"Velocity":82,"Duration":86147,"SoundDuration":86147,"Delta":333507163},{"NoteNumber":82,"Velocity":80,"Duration":86102,"SoundDuration":86102,"Delta":333593310},{"NoteNumber":80,"Velocity":80,"Duration":85900,"SoundDuration":85900,"Delta":333679412},{"NoteNumber":79,"Velocity":79,"Duration":85900,"SoundDuration":85900,"Delta":333765313},{"NoteNumber":77,"Velocity":78,"Duration":85886,"SoundDuration":85886,"Delta":333851214},{"NoteNumber":75,"Velocity":78,"Duration":85655,"SoundDuration":85655,"Delta":333937100},{"NoteNumber":73,"Velocity":77,"Duration":85655,"SoundDuration":85655,"Delta":334022756},{"NoteNumber":72,"Velocity":76,"Duration":85522,"SoundDuration":85522,"Delta":334108411},{"NoteNumber":70,"Velocity":75,"Duration":84928,"SoundDuration":84928,"Delta":334193933},{"NoteNumber":68,"Velocity":74,"Duration":84794,"SoundDuration":84794,"Delta":334278861},{"NoteNumber":67,"Velocity":73,"Duration":84688,"SoundDuration":84688,"Delta":334363656},{"NoteNumber":65,"Velocity":72,"Duration":84465,"SoundDuration":84465,"Delta":334448344},{"NoteNumber":63,"Velocity":71,"Duration":84376,"SoundDuration":84376,"Delta":334532810},{"NoteNumber":61,"Velocity":70,"Duration":84212,"SoundDuration":84212,"Delta":334617187},{"NoteNumber":60,"Velocity":68,"Duration":84022,"SoundDuration":84022,"Delta":334701400},{"NoteNumber":58,"Velocity":67,"Duration":83977,"SoundDuration":83977,"Delta":334785422},{"NoteNumber":56,"Velocity":67,"Duration":83977,"SoundDuration":83977,"Delta":334869399},{"NoteNumber":55,"Velocity":66,"Duration":83977,"SoundDuration":83977,"Delta":334953377},{"NoteNumber":53,"Velocity":65,"Duration":83977,"SoundDuration":83977,"Delta":335037354},{"NoteNumber":51,"Velocity":64,"Duration":83991,"SoundDuration":83991,"Delta":335121331},{"NoteNumber":49,"Velocity":63,"Duration":84213,"SoundDuration":84213,"Delta":335205322},{"NoteNumber":48,"Velocity":63,"Duration":84212,"SoundDuration":84212,"Delta":335289535},{"NoteNumber":46,"Velocity":64,"Duration":84226,"SoundDuration":84226,"Delta":335373748},{"NoteNumber":44,"Velocity":65,"Duration":84450,"SoundDuration":84450,"Delta":335457975},{"NoteNumber":43,"Velocity":66,"Duration":84450,"SoundDuration":84450,"Delta":335542425},{"NoteNumber":41,"Velocity":67,"Duration":84376,"SoundDuration":84376,"Delta":335626875},{"NoteNumber":39,"Velocity":68,"Duration":84611,"SoundDuration":84611,"Delta":335711252},{"NoteNumber":37,"Velocity":69,"Duration":85242,"SoundDuration":85242,"Delta":335795863},{"NoteNumber":36,"Velocity":70,"Duration":85899,"SoundDuration":85899,"Delta":335881105},{"NoteNumber":34,"Velocity":74,"Duration":86564,"SoundDuration":86564,"Delta":335967005},{"NoteNumber":32,"Velocity":79,"Duration":87225,"SoundDuration":87225,"Delta":336053569},{"NoteNumber":31,"Velocity":83,"Duration":87928,"SoundDuration":87928,"Delta":336140794},{"NoteNumber":29,"Velocity":102,"Duration":176866,"SoundDuration":176866,"Delta":336228722}]}