{"title":"Intermezzo","artist":"Piano","durationMs":138733,"midiSha256":"0d3346998686fec578c12993d3bfc4f303e262d2bafff04848efaad4e72425f4","midiObject":[{"NoteNumber":71,"Velocity":53,"Duration":669343,"SoundDuration":669343,"Delta":0},{"NoteNumber":59,"Velocity":44,"Duration":669343,"SoundDuration":669343,"Delta":0},{"NoteNumber":68,"Velocity":44,"Duration":669343,"SoundDuration":669343,"Delta":0},{"NoteNumber":28,"Velocity":31,"Duration":669343,"SoundDuration":669343,"Delta":0},{"NoteNumber":40,"Velocity":44,"Duration":669343,"SoundDuration":669343,"Delta":0},{"NoteNumber":60,"Velocity":41,"Duration":657823,"SoundDuration":657823,"Delta":669344},{"NoteNumber":68,"Velocity":41,"Duration":657823,"SoundDuration":657823,"Delta":669344},{"NoteNumber":71,"Velocity":49,"Duration":657823,"SoundDuration":657823,"Delta":669344},{"NoteNumber":33,"Velocity":28,"Duration":657823,"SoundDuration":657823,"Delta":669344},{"NoteNumber":45,"Velocity":41,"Duration":657823,"SoundDuration":657823,"Delta":669344},{"NoteNumber":61,"Velocity":36,"Duration":637213,"SoundDuration":637213,"Delta":1327167},{"NoteNumber":66,"Velocity":36,"Duration":637213,"SoundDuration":637213,"Delta":1327167},{"NoteNumber":69,"Velocity":44,"Duration":637213,"SoundDuration":637213,"Delta":1327167},{"NoteNumber":30,"Velocity":26,"Duration":637213,"SoundDuration":637213,"Delta":1327167},{"NoteNumber":42,"Velocity":46,"Duration":637213,"SoundDuration":637213,"Delta":1327167},{"NoteNumber":66,"Velocity":36,"Duration":645160,"SoundDuration":645160,"Delta":1964380},{"NoteNumber":62,"Velocity":43,"Duration":322580,"SoundDuration":322580,"Delta":1964380},{"NoteNumber":69,"Velocity":36,"Duration":645160,"SoundDuration":645160,"Delta":1964380},{"NoteNumber":35,"Velocity":28,"Duration":645160,"SoundDuration":645160,"Delta":1964380},{"NoteNumber":47,"Velocity":39,"Duration":645160,"SoundDuration":645160,"Delta":1964380},{"NoteNumber":63,"Velocity":46,"Duration":322580,"SoundDuration":322580,"Delta":2286961},{"NoteNumber":69,"Velocity":29,"Duration":635205,"SoundDuration":635205,"Delta":2609541},{"NoteNumber":66,"Velocity":49,"Duration":324324,"SoundDuration":324324,"Delta":2609541},{"NoteNumber":28,"Velocity":26,"Duration":635205,"SoundDuration":635205,"Delta":2609541},{"NoteNumber":40,"Velocity":37,"Duration":635205,"SoundDuration":635205,"Delta":2609541},{"NoteNumber":64,"Velocity":36,"Duration":310881,"SoundDuration":310881,"Delta":2933866},{"NoteNumber":68,"Velocity":38,"Duration":611946,"SoundDuration":611946,"Delta":3244747},{"NoteNumber":59,"Velocity":42,"Duration":315513,"SoundDuration":315513,"Delta":3244747},{"NoteNumber":40,"Velocity":23,"Duration":611946,"SoundDuration":611946,"Delta":3244747},{"NoteNumber":52,"Velocity":34,"Duration":611946,"SoundDuration":611946,"Delta":3244747},{"NoteNumber":56,"Velocity":36,"Duration":296432,"SoundDuration":296432,"Delta":3560261},{"NoteNumber":56,"Velocity":39,"Duration":635930,"SoundDuration":635930,"Delta":3883641},{"NoteNumber":64,"Velocity":39,"Duration":635930,"SoundDuration":635930,"Delta":3883641},{"NoteNumber":68,"Velocity":48,"Duration":635930,"SoundDuration":635930,"Delta":3883641},{"NoteNumber":35,"Velocity":27,"Duration":635930,"SoundDuration":635930,"Delta":3883641},{"NoteNumber":47,"Velocity":39,"Duration":635930,"SoundDuration":635930,"Delta":3883641},{"NoteNumber":68,"Velocity":46,"Duration":632443,"SoundDuration":632443,"Delta":4519571},{"NoteNumber":57,"Velocity":39,"Duration":632443,"SoundDuration":632443,"Delta":4519571},{"NoteNumber":64,"Velocity":39,"Duration":632443,"SoundDuration":632443,"Delta":4519571},{"NoteNumber":36,"Velocity":27,"Duration":632443,"SoundDuration":632443,"Delta":4519571},{"NoteNumber":48,"Velocity":39,"Duration":632443,"SoundDuration":632443,"Delta":4519571},{"NoteNumber":58,"Velocity":39,"Duration":618748,"SoundDuration":618748,"Delta":5152015},{"NoteNumber":64,"Velocity":39,"Duration":618748,"SoundDuration":618748,"Delta":5152015},{"NoteNumber":66,"Velocity":46,"Duration":618748,"SoundDuration":618748,"Delta":5152015},{"NoteNumber":37,"Velocity":27,"Duration":618748,"SoundDuration":618748,"Delta":5152015},{"NoteNumber":49,"Velocity":39,"Duration":618748,"SoundDuration":618748,"Delta":5152015},{"NoteNumber":64,"Velocity":37,"Duration":628271,"SoundDuration":628271,"Delta":5770763},{"NoteNumber":65,"Velocity":45,"Duration":314135,"SoundDuration":314135,"Delta":5770763},{"NoteNumber":58,"Velocity":30,"Duration":628271,"SoundDuration":628271,"Delta":5770763},{"NoteNumber":30,"Velocity":25,"Duration":628271,"SoundDuration":628271,"Delta":5770763},{"NoteNumber":42,"Velocity":36,"Duration":628271,"SoundDuration":628271,"Delta":5770763},{"NoteNumber":66,"Velocity":47,"Duration":314136,"SoundDuration":314136,"Delta":6084899},{"NoteNumber":69,"Velocity":48,"Duration":310880,"SoundDuration":310880,"Delta":6399035},{"NoteNumber":63,"Velocity":36,"Duration":618573,"SoundDuration":618573,"Delta":6399035},{"NoteNumber":57,"Velocity":26,"Duration":618573,"SoundDuration":618573,"Delta":6399035},{"NoteNumber":35,"Velocity":29,"Duration":618573,"SoundDuration":618573,"Delta":6399035},{"NoteNumber":66,"Velocity":44,"Duration":307692,"SoundDuration":307692,"Delta":6709916},{"NoteNumber":57,"Velocity":45,"Duration":614291,"SoundDuration":614291,"Delta":7017609},{"NoteNumber":64,"Velocity":45,"Duration":309278,"SoundDuration":309278,"Delta":7017609},{"NoteNumber":54,"Velocity":23,"Duration":614291,"SoundDuration":614291,"Delta":7017609},{"NoteNumber":47,"Velocity":21,"Duration":614291,"SoundDuration":614291,"Delta":7017609},{"NoteNumber":63,"Velocity":38,"Duration":305013,"SoundDuration":305013,"Delta":7326887},{"NoteNumber":73,"Velocity":57,"Duration":634921,"SoundDuration":634921,"Delta":7659629},{"NoteNumber":61,"Velocity":48,"Duration":634921,"SoundDuration":634921,"Delta":7659629},{"NoteNumber":69,"Velocity":48,"Duration":634921,"SoundDuration":634921,"Delta":7659629},{"NoteNumber":30,"Velocity":34,"Duration":634921,"SoundDuration":634921,"Delta":7659629},{"NoteNumber":42,"Velocity":41,"Duration":634921,"SoundDuration":634921,"Delta":7659629},{"NoteNumber":62,"Velocity":48,"Duration":628930,"SoundDuration":628930,"Delta":8294550},{"NoteNumber":69,"Velocity":48,"Duration":628930,"SoundDuration":628930,"Delta":8294550},{"NoteNumber":73,"Velocity":57,"Duration":628930,"SoundDuration":628930,"Delta":8294550},{"NoteNumber":35,"Velocity":34,"Duration":628930,"SoundDuration":628930,"Delta":8294550},{"NoteNumber":47,"Velocity":40,"Duration":628930,"SoundDuration":628930,"Delta":8294550},{"NoteNumber":69,"Velocity":47,"Duration":622083,"SoundDuration":622083,"Delta":8923481},{"NoteNumber":63,"Velocity":47,"Duration":622083,"SoundDuration":622083,"Delta":8923481},{"NoteNumber":71,"Velocity":56,"Duration":622083,"SoundDuration":622083,"Delta":8923481},{"NoteNumber":32,"Velocity":34,"Duration":622083,"SoundDuration":622083,"Delta":8923481},{"NoteNumber":44,"Velocity":40,"Duration":622083,"SoundDuration":622083,"Delta":8923481},{"NoteNumber":68,"Velocity":44,"Duration":623381,"SoundDuration":623381,"Delta":9545565},{"NoteNumber":64,"Velocity":53,"Duration":364313,"SoundDuration":364313,"Delta":9545565},{"NoteNumber":71,"Velocity":44,"Duration":623381,"SoundDuration":623381,"Delta":9545565},{"NoteNumber":37,"Velocity":34,"Duration":623381,"SoundDuration":623381,"Delta":9545565},{"NoteNumber":49,"Velocity":41,"Duration":623381,"SoundDuration":623381,"Delta":9545565},{"NoteNumber":65,"Velocity":53,"Duration":310881,"SoundDuration":310881,"Delta":9858065},{"NoteNumber":68,"Velocity":55,"Duration":310881,"SoundDuration":310881,"Delta":10168946},{"NoteNumber":71,"Velocity":50,"Duration":617003,"SoundDuration":617003,"Delta":10168946},{"NoteNumber":30,"Velocity":29,"Duration":617003,"SoundDuration":617003,"Delta":10168946},{"NoteNumber":42,"Velocity":35,"Duration":617003,"SoundDuration":617003,"Delta":10168946},{"NoteNumber":66,"Velocity":45,"Duration":306122,"SoundDuration":306122,"Delta":10479827},{"NoteNumber":69,"Velocity":46,"Duration":604006,"SoundDuration":604006,"Delta":10785950},{"NoteNumber":61,"Velocity":49,"Duration":314135,"SoundDuration":314135,"Delta":10785950},{"NoteNumber":42,"Velocity":22,"Duration":604006,"SoundDuration":604006,"Delta":10785950},{"NoteNumber":54,"Velocity":29,"Duration":604006,"SoundDuration":604006,"Delta":10785950},{"NoteNumber":57,"Velocity":44,"Duration":289870,"SoundDuration":289870,"Delta":11100086},{"NoteNumber":66,"Velocity":41,"Duration":661594,"SoundDuration":661594,"Delta":11416308},{"NoteNumber":60,"Velocity":41,"Duration":661594,"SoundDuration":661594,"Delta":11416308},{"NoteNumber":69,"Velocity":49,"Duration":661594,"SoundDuration":661594,"Delta":11416308},{"NoteNumber":38,"Velocity":30,"Duration":661594,"SoundDuration":661594,"Delta":11416308},{"NoteNumber":50,"Velocity":36,"Duration":661594,"SoundDuration":661594,"Delta":11416308},{"NoteNumber":66,"Velocity":36,"Duration":733765,"SoundDuration":733765,"Delta":12077902},{"NoteNumber":59,"Velocity":36,"Duration":733765,"SoundDuration":733765,"Delta":12077902},{"NoteNumber":69,"Velocity":44,"Duration":733765,"SoundDuration":733765,"Delta":12077902},{"NoteNumber":39,"Velocity":30,"Duration":733765,"SoundDuration":733765,"Delta":12077902},{"NoteNumber":51,"Velocity":36,"Duration":733765,"SoundDuration":733765,"Delta":12077902},{"NoteNumber":66,"Velocity":37,"Duration":817660,"SoundDuration":817660,"Delta":12811667},{"NoteNumber":68,"Velocity":46,"Duration":817660,"SoundDuration":817660,"Delta":12811667},{"NoteNumber":60,"Velocity":37,"Duration":817660,"SoundDuration":817660,"Delta":12811667},{"NoteNumber":40,"Velocity":31,"Duration":817660,"SoundDuration":817660,"Delta":12811667},{"NoteNumber":52,"Velocity":37,"Duration":817660,"SoundDuration":817660,"Delta":12811667},{"NoteNumber":61,"Velocity":39,"Duration":946073,"SoundDuration":946073,"Delta":13629328},{"NoteNumber":64,"Velocity":39,"Duration":946073,"SoundDuration":946073,"Delta":13629328},{"NoteNumber":68,"Velocity":47,"Duration":2068199,"SoundDuration":2068199,"Delta":13629328},{"NoteNumber":37,"Velocity":34,"Duration":946073,"SoundDuration":946073,"Delta":13629328},{"NoteNumber":49,"Velocity":41,"Duration":946073,"SoundDuration":946073,"Delta":13629328},{"NoteNumber":63,"Velocity":36,"Duration":1122125,"SoundDuration":1122125,"Delta":14575402},{"NoteNumber":56,"Velocity":36,"Duration":1122125,"SoundDuration":1122125,"Delta":14575402},{"NoteNumber":60,"Velocity":36,"Duration":1122125,"SoundDuration":1122125,"Delta":14575402},{"NoteNumber":32,"Velocity":30,"Duration":1122125,"SoundDuration":1122125,"Delta":14575402},{"NoteNumber":44,"Velocity":36,"Duration":1122125,"SoundDuration":1122125,"Delta":14575402},{"NoteNumber":56,"Velocity":34,"Duration":2446715,"SoundDuration":2446715,"Delta":15697527},{"NoteNumber":61,"Velocity":34,"Duration":2446715,"SoundDuration":2446715,"Delta":15697527},{"NoteNumber":65,"Velocity":40,"Duration":2446715,"SoundDuration":2446715,"Delta":15697527},{"NoteNumber":68,"Velocity":40,"Duration":2446715,"SoundDuration":2446715,"Delta":15697527},{"NoteNumber":25,"Velocity":30,"Duration":2446715,"SoundDuration":2446715,"Delta":15697527},{"NoteNumber":37,"Velocity":36,"Duration":2446715,"SoundDuration":2446715,"Delta":15697527},{"NoteNumber":80,"Velocity":44,"Duration":1290738,"SoundDuration":1290738,"Delta":18307357},{"NoteNumber":68,"Velocity":36,"Duration":645368,"SoundDuration":645368,"Delta":18307357},{"NoteNumber":73,"Velocity":36,"Duration":645368,"SoundDuration":645368,"Delta":18307357},{"NoteNumber":65,"Velocity":34,"Duration":645368,"SoundDuration":645368,"Delta":18307357},{"NoteNumber":61,"Velocity":34,"Duration":645368,"SoundDuration":645368,"Delta":18307357},{"NoteNumber":72,"Velocity":39,"Duration":645369,"SoundDuration":645369,"Delta":18952726},{"NoteNumber":68,"Velocity":39,"Duration":645369,"SoundDuration":645369,"Delta":18952726},{"NoteNumber":75,"Velocity":39,"Duration":645369,"SoundDuration":645369,"Delta":18952726},{"NoteNumber":56,"Velocity":42,"Duration":645369,"SoundDuration":645369,"Delta":18952726},{"NoteNumber":63,"Velocity":36,"Duration":645369,"SoundDuration":645369,"Delta":18952726},{"NoteNumber":68,"Velocity":37,"Duration":660865,"SoundDuration":660865,"Delta":19598095},{"NoteNumber":73,"Velocity":37,"Duration":660865,"SoundDuration":660865,"Delta":19598095},{"NoteNumber":77,"Velocity":46,"Duration":660865,"SoundDuration":660865,"Delta":19598095},{"NoteNumber":80,"Velocity":46,"Duration":660865,"SoundDuration":660865,"Delta":19598095},{"NoteNumber":49,"Velocity":35,"Duration":660865,"SoundDuration":660865,"Delta":19598095},{"NoteNumber":61,"Velocity":35,"Duration":660865,"SoundDuration":660865,"Delta":19598095},{"NoteNumber":70,"Velocity":39,"Duration":645329,"SoundDuration":645329,"Delta":20258961},{"NoteNumber":78,"Velocity":53,"Duration":344782,"SoundDuration":344782,"Delta":20258961},{"NoteNumber":82,"Velocity":39,"Duration":645329,"SoundDuration":645329,"Delta":20258961},{"NoteNumber":42,"Velocity":38,"Duration":238095,"SoundDuration":238095,"Delta":20258961},{"NoteNumber":54,"Velocity":31,"Duration":242432,"SoundDuration":242432,"Delta":20470601},{"NoteNumber":73,"Velocity":49,"Duration":327868,"SoundDuration":327868,"Delta":20576421},{"NoteNumber":58,"Velocity":29,"Duration":218579,"SoundDuration":218579,"Delta":20685711},{"NoteNumber":68,"Velocity":36,"Duration":648819,"SoundDuration":648819,"Delta":20904290},{"NoteNumber":77,"Velocity":53,"Duration":346621,"SoundDuration":346621,"Delta":20904290},{"NoteNumber":80,"Velocity":42,"Duration":648819,"SoundDuration":648819,"Delta":20904290},{"NoteNumber":44,"Velocity":38,"Duration":239361,"SoundDuration":239361,"Delta":20904290},{"NoteNumber":56,"Velocity":33,"Duration":243745,"SoundDuration":243745,"Delta":21117056},{"NoteNumber":73,"Velocity":49,"Duration":356992,"SoundDuration":356992,"Delta":21223439},{"NoteNumber":65,"Velocity":30,"Duration":219780,"SoundDuration":219780,"Delta":21333329},{"NoteNumber":72,"Velocity":52,"Duration":355739,"SoundDuration":355739,"Delta":21553110},{"NoteNumber":80,"Velocity":40,"Duration":662316,"SoundDuration":662316,"Delta":21553110},{"NoteNumber":68,"Velocity":34,"Duration":662316,"SoundDuration":662316,"Delta":21553110},{"NoteNumber":56,"Velocity":42,"Duration":245901,"SoundDuration":245901,"Delta":21553110},{"NoteNumber":66,"Velocity":42,"Duration":245901,"SoundDuration":245901,"Delta":21553110},{"NoteNumber":63,"Velocity":33,"Duration":248642,"SoundDuration":248642,"Delta":21771689},{"NoteNumber":75,"Velocity":48,"Duration":334447,"SoundDuration":334447,"Delta":21880979},{"NoteNumber":56,"Velocity":40,"Duration":222965,"SoundDuration":222965,"Delta":21992461},{"NoteNumber":68,"Velocity":39,"Duration":1290738,"SoundDuration":1290738,"Delta":22215427},{"NoteNumber":73,"Velocity":39,"Duration":645368,"SoundDuration":645368,"Delta":22215427},{"NoteNumber":80,"Velocity":47,"Duration":645368,"SoundDuration":645368,"Delta":22215427},{"NoteNumber":65,"Velocity":30,"Duration":645368,"SoundDuration":645368,"Delta":22215427},{"NoteNumber":61,"Velocity":30,"Duration":645368,"SoundDuration":645368,"Delta":22215427},{"NoteNumber":80,"Velocity":57,"Duration":645369,"SoundDuration":645369,"Delta":22860796},{"NoteNumber":72,"Velocity":48,"Duration":645369,"SoundDuration":645369,"Delta":22860796},{"NoteNumber":75,"Velocity":48,"Duration":645369,"SoundDuration":645369,"Delta":22860796},{"NoteNumber":56,"Velocity":46,"Duration":645369,"SoundDuration":645369,"Delta":22860796},{"NoteNumber":63,"Velocity":46,"Duration":645369,"SoundDuration":645369,"Delta":22860796},{"NoteNumber":68,"Velocity":44,"Duration":645368,"SoundDuration":645368,"Delta":23506165},{"NoteNumber":71,"Velocity":44,"Duration":645368,"SoundDuration":645368,"Delta":23506165},{"NoteNumber":77,"Velocity":44,"Duration":645368,"SoundDuration":645368,"Delta":23506165},{"NoteNumber":80,"Velocity":52,"Duration":645368,"SoundDuration":645368,"Delta":23506165},{"NoteNumber":49,"Velocity":41,"Duration":645368,"SoundDuration":645368,"Delta":23506165},{"NoteNumber":61,"Velocity":41,"Duration":645368,"SoundDuration":645368,"Delta":23506165},{"NoteNumber":81,"Velocity":66,"Duration":348328,"SoundDuration":348328,"Delta":24151534},{"NoteNumber":78,"Velocity":55,"Duration":348328,"SoundDuration":348328,"Delta":24151534},{"NoteNumber":69,"Velocity":55,"Duration":348328,"SoundDuration":348328,"Delta":24151534},{"NoteNumber":42,"Velocity":42,"Duration":240641,"SoundDuration":240641,"Delta":24151534},{"NoteNumber":54,"Velocity":37,"Duration":244314,"SoundDuration":244314,"Delta":24365437},{"NoteNumber":71,"Velocity":50,"Duration":356266,"SoundDuration":356266,"Delta":24472389},{"NoteNumber":75,"Velocity":50,"Duration":329670,"SoundDuration":329670,"Delta":24472389},{"NoteNumber":83,"Velocity":60,"Duration":356266,"SoundDuration":356266,"Delta":24472389},{"NoteNumber":57,"Velocity":39,"Duration":219780,"SoundDuration":219780,"Delta":24582279},{"NoteNumber":76,"Velocity":59,"Duration":648819,"SoundDuration":648819,"Delta":24802060},{"NoteNumber":73,"Velocity":58,"Duration":346621,"SoundDuration":346621,"Delta":24802060},{"NoteNumber":85,"Velocity":69,"Duration":346621,"SoundDuration":346621,"Delta":24802060},{"NoteNumber":40,"Velocity":47,"Duration":239361,"SoundDuration":239361,"Delta":24802060},{"NoteNumber":52,"Velocity":39,"Duration":243745,"SoundDuration":243745,"Delta":25014826},{"NoteNumber":81,"Velocity":66,"Duration":356882,"SoundDuration":356882,"Delta":25121209},{"NoteNumber":69,"Velocity":56,"Duration":356882,"SoundDuration":356882,"Delta":25121209},{"NoteNumber":61,"Velocity":39,"Duration":219780,"SoundDuration":219780,"Delta":25231099},{"NoteNumber":74,"Velocity":68,"Duration":653096,"SoundDuration":653096,"Delta":25450879},{"NoteNumber":68,"Velocity":63,"Duration":353760,"SoundDuration":353760,"Delta":25450879},{"NoteNumber":80,"Velocity":75,"Duration":353760,"SoundDuration":353760,"Delta":25450879},{"NoteNumber":52,"Velocity":49,"Duration":653096,"SoundDuration":653096,"Delta":25450879},{"NoteNumber":59,"Velocity":42,"Duration":217698,"SoundDuration":217698,"Delta":25668578},{"NoteNumber":83,"Velocity":70,"Duration":326548,"SoundDuration":326548,"Delta":25777428},{"NoteNumber":71,"Velocity":59,"Duration":326548,"SoundDuration":326548,"Delta":25777428},{"NoteNumber":62,"Velocity":42,"Duration":217698,"SoundDuration":217698,"Delta":25886277},{"NoteNumber":82,"Velocity":79,"Duration":672948,"SoundDuration":672948,"Delta":26103976},{"NoteNumber":70,"Velocity":67,"Duration":672948,"SoundDuration":672948,"Delta":26103976},{"NoteNumber":79,"Velocity":67,"Duration":672948,"SoundDuration":672948,"Delta":26103976},{"NoteNumber":73,"Velocity":67,"Duration":672948,"SoundDuration":672948,"Delta":26103976},{"NoteNumber":52,"Velocity":52,"Duration":672948,"SoundDuration":672948,"Delta":26103976},{"NoteNumber":55,"Velocity":52,"Duration":672948,"SoundDuration":672948,"Delta":26103976},{"NoteNumber":61,"Velocity":52,"Duration":672948,"SoundDuration":672948,"Delta":26103976},{"NoteNumber":72,"Velocity":70,"Duration":672947,"SoundDuration":672947,"Delta":26776924},{"NoteNumber":79,"Velocity":70,"Duration":672947,"SoundDuration":672947,"Delta":26776924},{"NoteNumber":84,"Velocity":83,"Duration":672947,"SoundDuration":672947,"Delta":26776924},{"NoteNumber":52,"Velocity":59,"Duration":672947,"SoundDuration":672947,"Delta":26776924},{"NoteNumber":55,"Velocity":59,"Duration":672947,"SoundDuration":672947,"Delta":26776924},{"NoteNumber":60,"Velocity":59,"Duration":672947,"SoundDuration":672947,"Delta":26776924},{"NoteNumber":73,"Velocity":68,"Duration":725218,"SoundDuration":725218,"Delta":27449872},{"NoteNumber":79,"Velocity":68,"Duration":725218,"SoundDuration":725218,"Delta":27449872},{"NoteNumber":85,"Velocity":81,"Duration":725218,"SoundDuration":725218,"Delta":27449872},{"NoteNumber":52,"Velocity":59,"Duration":725218,"SoundDuration":725218,"Delta":27449872},{"NoteNumber":55,"Velocity":59,"Duration":725218,"SoundDuration":725218,"Delta":27449872},{"NoteNumber":58,"Velocity":59,"Duration":725218,"SoundDuration":725218,"Delta":27449872},{"NoteNumber":67,"Velocity":34,"Duration":857265,"SoundDuration":857265,"Delta":28190521},{"NoteNumber":64,"Velocity":34,"Duration":857265,"SoundDuration":857265,"Delta":28190521},{"NoteNumber":70,"Velocity":40,"Duration":857265,"SoundDuration":857265,"Delta":28190521},{"NoteNumber":49,"Velocity":34,"Duration":857265,"SoundDuration":857265,"Delta":28190521},{"NoteNumber":52,"Velocity":34,"Duration":857265,"SoundDuration":857265,"Delta":28190521},{"NoteNumber":55,"Velocity":34,"Duration":857265,"SoundDuration":857265,"Delta":28190521},{"NoteNumber":64,"Velocity":36,"Duration":1052816,"SoundDuration":1052816,"Delta":29047786},{"NoteNumber":67,"Velocity":36,"Duration":1052816,"SoundDuration":1052816,"Delta":29047786},{"NoteNumber":72,"Velocity":44,"Duration":1052816,"SoundDuration":1052816,"Delta":29047786},{"NoteNumber":48,"Velocity":37,"Duration":1052816,"SoundDuration":1052816,"Delta":29047786},{"NoteNumber":52,"Velocity":37,"Duration":1052816,"SoundDuration":1052816,"Delta":29047786},{"NoteNumber":55,"Velocity":37,"Duration":1052816,"SoundDuration":1052816,"Delta":29047786},{"NoteNumber":73,"Velocity":40,"Duration":1924456,"SoundDuration":1924456,"Delta":30100602},{"NoteNumber":67,"Velocity":34,"Duration":1924456,"SoundDuration":1924456,"Delta":30100602},{"NoteNumber":64,"Velocity":34,"Duration":1924456,"SoundDuration":1924456,"Delta":30100602},{"NoteNumber":46,"Velocity":34,"Duration":1924456,"SoundDuration":1924456,"Delta":30100602},{"NoteNumber":55,"Velocity":34,"Duration":1924456,"SoundDuration":1924456,"Delta":30100602},{"NoteNumber":52,"Velocity":34,"Duration":1924456,"SoundDuration":1924456,"Delta":30100602},{"NoteNumber":64,"Velocity":39,"Duration":635930,"SoundDuration":635930,"Delta":32106812},{"NoteNumber":68,"Velocity":48,"Duration":635930,"SoundDuration":635930,"Delta":32106812},{"NoteNumber":56,"Velocity":39,"Duration":635930,"SoundDuration":635930,"Delta":32106812},{"NoteNumber":47,"Velocity":39,"Duration":635930,"SoundDuration":635930,"Delta":32106812},{"NoteNumber":35,"Velocity":27,"Duration":635930,"SoundDuration":635930,"Delta":32106812},{"NoteNumber":57,"Velocity":39,"Duration":632443,"SoundDuration":632443,"Delta":32742742},{"NoteNumber":68,"Velocity":46,"Duration":632443,"SoundDuration":632443,"Delta":32742742},{"NoteNumber":64,"Velocity":39,"Duration":632443,"SoundDuration":632443,"Delta":32742742},{"NoteNumber":48,"Velocity":39,"Duration":632443,"SoundDuration":632443,"Delta":32742742},{"NoteNumber":36,"Velocity":27,"Duration":632443,"SoundDuration":632443,"Delta":32742742},{"NoteNumber":66,"Velocity":46,"Duration":618747,"SoundDuration":618747,"Delta":33375186},{"NoteNumber":58,"Velocity":39,"Duration":618747,"SoundDuration":618747,"Delta":33375186},{"NoteNumber":64,"Velocity":39,"Duration":618747,"SoundDuration":618747,"Delta":33375186},{"NoteNumber":37,"Velocity":27,"Duration":618747,"SoundDuration":618747,"Delta":33375186},{"NoteNumber":49,"Velocity":39,"Duration":618747,"SoundDuration":618747,"Delta":33375186},{"NoteNumber":58,"Velocity":30,"Duration":628272,"SoundDuration":628272,"Delta":33993934},{"NoteNumber":65,"Velocity":45,"Duration":314135,"SoundDuration":314135,"Delta":33993934},{"NoteNumber":64,"Velocity":37,"Duration":628272,"SoundDuration":628272,"Delta":33993934},{"NoteNumber":42,"Velocity":36,"Duration":628272,"SoundDuration":628272,"Delta":33993934},{"NoteNumber":30,"Velocity":25,"Duration":628272,"SoundDuration":628272,"Delta":33993934},{"NoteNumber":66,"Velocity":47,"Duration":314136,"SoundDuration":314136,"Delta":34308070},{"NoteNumber":69,"Velocity":48,"Duration":319149,"SoundDuration":319149,"Delta":34622206},{"NoteNumber":63,"Velocity":36,"Duration":631649,"SoundDuration":631649,"Delta":34622206},{"NoteNumber":57,"Velocity":26,"Duration":631649,"SoundDuration":631649,"Delta":34622206},{"NoteNumber":35,"Velocity":29,"Duration":631649,"SoundDuration":631649,"Delta":34622206},{"NoteNumber":66,"Velocity":44,"Duration":312500,"SoundDuration":312500,"Delta":34941355},{"NoteNumber":57,"Velocity":45,"Duration":620803,"SoundDuration":620803,"Delta":35253855},{"NoteNumber":64,"Velocity":45,"Duration":315789,"SoundDuration":315789,"Delta":35253855},{"NoteNumber":47,"Velocity":21,"Duration":620803,"SoundDuration":620803,"Delta":35253855},{"NoteNumber":54,"Velocity":23,"Duration":620803,"SoundDuration":620803,"Delta":35253855},{"NoteNumber":63,"Velocity":38,"Duration":305013,"SoundDuration":305013,"Delta":35569644},{"NoteNumber":73,"Velocity":57,"Duration":634920,"SoundDuration":634920,"Delta":35902386},{"NoteNumber":61,"Velocity":48,"Duration":634920,"SoundDuration":634920,"Delta":35902386},{"NoteNumber":69,"Velocity":48,"Duration":634920,"SoundDuration":634920,"Delta":35902386},{"NoteNumber":30,"Velocity":34,"Duration":634920,"SoundDuration":634920,"Delta":35902386},{"NoteNumber":42,"Velocity":41,"Duration":634920,"SoundDuration":634920,"Delta":35902386},{"NoteNumber":69,"Velocity":48,"Duration":628931,"SoundDuration":628931,"Delta":36537307},{"NoteNumber":73,"Velocity":57,"Duration":628931,"SoundDuration":628931,"Delta":36537307},{"NoteNumber":62,"Velocity":48,"Duration":628931,"SoundDuration":628931,"Delta":36537307},{"NoteNumber":35,"Velocity":34,"Duration":628931,"SoundDuration":628931,"Delta":36537307},{"NoteNumber":47,"Velocity":40,"Duration":628931,"SoundDuration":628931,"Delta":36537307},{"NoteNumber":71,"Velocity":56,"Duration":622084,"SoundDuration":622084,"Delta":37166238},{"NoteNumber":69,"Velocity":47,"Duration":622084,"SoundDuration":622084,"Delta":37166238},{"NoteNumber":63,"Velocity":47,"Duration":622084,"SoundDuration":622084,"Delta":37166238},{"NoteNumber":44,"Velocity":40,"Duration":622084,"SoundDuration":622084,"Delta":37166238},{"NoteNumber":32,"Velocity":34,"Duration":622084,"SoundDuration":622084,"Delta":37166238},{"NoteNumber":71,"Velocity":44,"Duration":623381,"SoundDuration":623381,"Delta":37788322},{"NoteNumber":68,"Velocity":44,"Duration":623381,"SoundDuration":623381,"Delta":37788322},{"NoteNumber":64,"Velocity":53,"Duration":364313,"SoundDuration":364313,"Delta":37788322},{"NoteNumber":37,"Velocity":34,"Duration":623381,"SoundDuration":623381,"Delta":37788322},{"NoteNumber":49,"Velocity":41,"Duration":623381,"SoundDuration":623381,"Delta":37788322},{"NoteNumber":65,"Velocity":53,"Duration":310881,"SoundDuration":310881,"Delta":38100822},{"NoteNumber":68,"Velocity":55,"Duration":312500,"SoundDuration":312500,"Delta":38411703},{"NoteNumber":71,"Velocity":50,"Duration":625000,"SoundDuration":625000,"Delta":38411703},{"NoteNumber":30,"Velocity":29,"Duration":625000,"SoundDuration":625000,"Delta":38411703},{"NoteNumber":42,"Velocity":35,"Duration":625000,"SoundDuration":625000,"Delta":38411703},{"NoteNumber":66,"Velocity":49,"Duration":312500,"SoundDuration":312500,"Delta":38724203},{"NoteNumber":69,"Velocity":46,"Duration":604006,"SoundDuration":604006,"Delta":39036703},{"NoteNumber":61,"Velocity":49,"Duration":314135,"SoundDuration":314135,"Delta":39036703},{"NoteNumber":54,"Velocity":29,"Duration":604006,"SoundDuration":604006,"Delta":39036703},{"NoteNumber":42,"Velocity":22,"Duration":604006,"SoundDuration":604006,"Delta":39036703},{"NoteNumber":57,"Velocity":44,"Duration":289870,"SoundDuration":289870,"Delta":39350839},{"NoteNumber":68,"Velocity":59,"Duration":606092,"SoundDuration":606092,"Delta":39667061},{"NoteNumber":74,"Velocity":69,"Duration":606092,"SoundDuration":606092,"Delta":39667061},{"NoteNumber":62,"Velocity":59,"Duration":606092,"SoundDuration":606092,"Delta":39667061},{"NoteNumber":28,"Velocity":50,"Duration":606092,"SoundDuration":606092,"Delta":39667061},{"NoteNumber":40,"Velocity":59,"Duration":606092,"SoundDuration":606092,"Delta":39667061},{"NoteNumber":63,"Velocity":60,"Duration":632443,"SoundDuration":632443,"Delta":40299505},{"NoteNumber":74,"Velocity":72,"Duration":632443,"SoundDuration":632443,"Delta":40299505},{"NoteNumber":69,"Velocity":60,"Duration":632443,"SoundDuration":632443,"Delta":40299505},{"NoteNumber":29,"Velocity":51,"Duration":632443,"SoundDuration":632443,"Delta":40299505},{"NoteNumber":41,"Velocity":60,"Duration":632443,"SoundDuration":632443,"Delta":40299505},{"NoteNumber":69,"Velocity":57,"Duration":592709,"SoundDuration":592709,"Delta":40931949},{"NoteNumber":72,"Velocity":57,"Duration":592709,"SoundDuration":592709,"Delta":40931949},{"NoteNumber":63,"Velocity":57,"Duration":592709,"SoundDuration":592709,"Delta":40931949},{"NoteNumber":53,"Velocity":57,"Duration":592709,"SoundDuration":592709,"Delta":40931949},{"NoteNumber":41,"Velocity":48,"Duration":592709,"SoundDuration":592709,"Delta":40931949},{"NoteNumber":75,"Velocity":77,"Duration":625261,"SoundDuration":625261,"Delta":41524659},{"NoteNumber":60,"Velocity":66,"Duration":625261,"SoundDuration":625261,"Delta":41524659},{"NoteNumber":69,"Velocity":66,"Duration":625261,"SoundDuration":625261,"Delta":41524659},{"NoteNumber":42,"Velocity":61,"Duration":625261,"SoundDuration":625261,"Delta":41524659},{"NoteNumber":30,"Velocity":51,"Duration":625261,"SoundDuration":625261,"Delta":41524659},{"NoteNumber":74,"Velocity":74,"Duration":625260,"SoundDuration":625260,"Delta":42149920},{"NoteNumber":62,"Velocity":62,"Duration":625260,"SoundDuration":625260,"Delta":42149920},{"NoteNumber":69,"Velocity":62,"Duration":625260,"SoundDuration":625260,"Delta":42149920},{"NoteNumber":42,"Velocity":50,"Duration":625260,"SoundDuration":625260,"Delta":42149920},{"NoteNumber":54,"Velocity":59,"Duration":625260,"SoundDuration":625260,"Delta":42149920},{"NoteNumber":72,"Velocity":70,"Duration":669344,"SoundDuration":669344,"Delta":42775181},{"NoteNumber":69,"Velocity":59,"Duration":669344,"SoundDuration":669344,"Delta":42775181},{"NoteNumber":63,"Velocity":59,"Duration":669344,"SoundDuration":669344,"Delta":42775181},{"NoteNumber":29,"Velocity":46,"Duration":669344,"SoundDuration":669344,"Delta":42775181},{"NoteNumber":41,"Velocity":55,"Duration":669344,"SoundDuration":669344,"Delta":42775181},{"NoteNumber":51,"Velocity":50,"Duration":715648,"SoundDuration":715648,"Delta":43444525},{"NoteNumber":63,"Velocity":61,"Duration":715648,"SoundDuration":715648,"Delta":43444525},{"NoteNumber":57,"Velocity":50,"Duration":1445132,"SoundDuration":1445132,"Delta":43444525},{"NoteNumber":41,"Velocity":39,"Duration":715648,"SoundDuration":715648,"Delta":43444525},{"NoteNumber":48,"Velocity":47,"Duration":1445132,"SoundDuration":1445132,"Delta":43444525},{"NoteNumber":50,"Velocity":48,"Duration":729483,"SoundDuration":729483,"Delta":44160174},{"NoteNumber":62,"Velocity":57,"Duration":729483,"SoundDuration":729483,"Delta":44160174},{"NoteNumber":42,"Velocity":35,"Duration":729483,"SoundDuration":729483,"Delta":44160174},{"NoteNumber":57,"Velocity":44,"Duration":743771,"SoundDuration":743771,"Delta":44889657},{"NoteNumber":51,"Velocity":44,"Duration":743771,"SoundDuration":743771,"Delta":44889657},{"NoteNumber":63,"Velocity":52,"Duration":743771,"SoundDuration":743771,"Delta":44889657},{"NoteNumber":43,"Velocity":41,"Duration":743771,"SoundDuration":743771,"Delta":44889657},{"NoteNumber":47,"Velocity":41,"Duration":1568400,"SoundDuration":1568400,"Delta":44889657},{"NoteNumber":52,"Velocity":44,"Duration":824629,"SoundDuration":824629,"Delta":45633428},{"NoteNumber":55,"Velocity":44,"Duration":824629,"SoundDuration":824629,"Delta":45633428},{"NoteNumber":64,"Velocity":53,"Duration":824629,"SoundDuration":824629,"Delta":45633428},{"NoteNumber":40,"Velocity":42,"Duration":824629,"SoundDuration":824629,"Delta":45633428},{"NoteNumber":54,"Velocity":41,"Duration":742206,"SoundDuration":742206,"Delta":46458057},{"NoteNumber":63,"Velocity":41,"Duration":742206,"SoundDuration":742206,"Delta":46458057},{"NoteNumber":66,"Velocity":49,"Duration":742206,"SoundDuration":742206,"Delta":46458057},{"NoteNumber":47,"Velocity":39,"Duration":742206,"SoundDuration":742206,"Delta":46458057},{"NoteNumber":35,"Velocity":33,"Duration":742206,"SoundDuration":742206,"Delta":46458057},{"NoteNumber":28,"Velocity":36,"Duration":2062831,"SoundDuration":2062831,"Delta":47200264},{"NoteNumber":40,"Velocity":41,"Duration":2710441,"SoundDuration":2710441,"Delta":47380583},{"NoteNumber":56,"Velocity":37,"Duration":2483786,"SoundDuration":2483786,"Delta":47607238},{"NoteNumber":59,"Velocity":37,"Duration":2483786,"SoundDuration":2483786,"Delta":47607238},{"NoteNumber":68,"Velocity":46,"Duration":2483786,"SoundDuration":2483786,"Delta":47607238},{"NoteNumber":64,"Velocity":37,"Duration":2483786,"SoundDuration":2483786,"Delta":47607238},{"NoteNumber":47,"Velocity":36,"Duration":2483786,"SoundDuration":2483786,"Delta":47607238},{"NoteNumber":59,"Velocity":28,"Duration":2880808,"SoundDuration":2880808,"Delta":50091025},{"NoteNumber":68,"Velocity":35,"Duration":2880808,"SoundDuration":2880808,"Delta":50091025},{"NoteNumber":56,"Velocity":28,"Duration":2880808,"SoundDuration":2880808,"Delta":50091025},{"NoteNumber":51,"Velocity":26,"Duration":2880808,"SoundDuration":2880808,"Delta":50091025},{"NoteNumber":39,"Velocity":26,"Duration":2880808,"SoundDuration":2880808,"Delta":50091025},{"NoteNumber":47,"Velocity":26,"Duration":2880808,"SoundDuration":2880808,"Delta":50091025},{"NoteNumber":75,"Velocity":52,"Duration":620737,"SoundDuration":620737,"Delta":52971833},{"NoteNumber":71,"Velocity":42,"Duration":206185,"SoundDuration":206185,"Delta":53181257},{"NoteNumber":68,"Velocity":41,"Duration":205128,"SoundDuration":205128,"Delta":53387442},{"NoteNumber":73,"Velocity":49,"Duration":610146,"SoundDuration":610146,"Delta":53592571},{"NoteNumber":63,"Velocity":41,"Duration":204959,"SoundDuration":204959,"Delta":53592571},{"NoteNumber":59,"Velocity":27,"Duration":202593,"SoundDuration":202593,"Delta":53797531},{"NoteNumber":56,"Velocity":33,"Duration":202593,"SoundDuration":202593,"Delta":54000124},{"NoteNumber":71,"Velocity":55,"Duration":602149,"SoundDuration":602149,"Delta":54202717},{"NoteNumber":68,"Velocity":46,"Duration":200280,"SoundDuration":200280,"Delta":54407677},{"NoteNumber":64,"Velocity":40,"Duration":196908,"SoundDuration":196908,"Delta":54607958},{"NoteNumber":70,"Velocity":49,"Duration":607820,"SoundDuration":607820,"Delta":54804866},{"NoteNumber":59,"Velocity":40,"Duration":204959,"SoundDuration":204959,"Delta":54804866},{"NoteNumber":56,"Velocity":28,"Duration":201430,"SoundDuration":201430,"Delta":55009826},{"NoteNumber":52,"Velocity":34,"Duration":201430,"SoundDuration":201430,"Delta":55211256},{"NoteNumber":68,"Velocity":55,"Duration":616253,"SoundDuration":616253,"Delta":55412686},{"NoteNumber":64,"Velocity":46,"Duration":201430,"SoundDuration":201430,"Delta":55617646},{"NoteNumber":61,"Velocity":46,"Duration":209863,"SoundDuration":209863,"Delta":55819076},{"NoteNumber":71,"Velocity":66,"Duration":300546,"SoundDuration":300546,"Delta":56028940},{"NoteNumber":56,"Velocity":44,"Duration":218579,"SoundDuration":218579,"Delta":56028940},{"NoteNumber":52,"Velocity":30,"Duration":214001,"SoundDuration":214001,"Delta":56247519},{"NoteNumber":70,"Velocity":60,"Duration":287958,"SoundDuration":287958,"Delta":56356809},{"NoteNumber":49,"Velocity":35,"Duration":209423,"SoundDuration":209423,"Delta":56461521},{"NoteNumber":68,"Velocity":57,"Duration":612765,"SoundDuration":612765,"Delta":56670945},{"NoteNumber":64,"Velocity":47,"Duration":201430,"SoundDuration":201430,"Delta":56875027},{"NoteNumber":61,"Velocity":49,"Duration":207253,"SoundDuration":207253,"Delta":57076457},{"NoteNumber":71,"Velocity":66,"Duration":298913,"SoundDuration":298913,"Delta":57283711},{"NoteNumber":56,"Velocity":44,"Duration":217391,"SoundDuration":217391,"Delta":57283711},{"NoteNumber":52,"Velocity":33,"Duration":212862,"SoundDuration":212862,"Delta":57501102},{"NoteNumber":70,"Velocity":60,"Duration":286458,"SoundDuration":286458,"Delta":57609798},{"NoteNumber":49,"Velocity":35,"Duration":208333,"SoundDuration":208333,"Delta":57713964},{"NoteNumber":68,"Velocity":57,"Duration":635490,"SoundDuration":635490,"Delta":57947808},{"NoteNumber":64,"Velocity":46,"Duration":206044,"SoundDuration":206044,"Delta":58151890},{"NoteNumber":61,"Velocity":50,"Duration":225364,"SoundDuration":225364,"Delta":58357934},{"NoteNumber":73,"Velocity":68,"Duration":316091,"SoundDuration":316091,"Delta":58554563},{"NoteNumber":58,"Velocity":48,"Duration":229885,"SoundDuration":229885,"Delta":58554563},{"NoteNumber":55,"Velocity":40,"Duration":227301,"SoundDuration":227301,"Delta":58784448},{"NoteNumber":71,"Velocity":58,"Duration":308988,"SoundDuration":308988,"Delta":58899390},{"NoteNumber":51,"Velocity":36,"Duration":224719,"SoundDuration":224719,"Delta":59011750},{"NoteNumber":70,"Velocity":62,"Duration":662255,"SoundDuration":662255,"Delta":59236469},{"NoteNumber":67,"Velocity":51,"Duration":219780,"SoundDuration":219780,"Delta":59450372},{"NoteNumber":63,"Velocity":48,"Duration":228571,"SoundDuration":228571,"Delta":59670153},{"NoteNumber":76,"Velocity":59,"Duration":679364,"SoundDuration":679364,"Delta":59898724},{"NoteNumber":61,"Velocity":40,"Duration":228571,"SoundDuration":228571,"Delta":59898724},{"NoteNumber":58,"Velocity":27,"Duration":222222,"SoundDuration":222222,"Delta":60127295},{"NoteNumber":55,"Velocity":33,"Duration":228571,"SoundDuration":228571,"Delta":60349518},{"NoteNumber":75,"Velocity":56,"Duration":647561,"SoundDuration":647561,"Delta":60578089},{"NoteNumber":51,"Velocity":38,"Duration":324962,"SoundDuration":324962,"Delta":60578089},{"NoteNumber":70,"Velocity":39,"Duration":212766,"SoundDuration":212766,"Delta":60796668},{"NoteNumber":67,"Velocity":47,"Duration":216216,"SoundDuration":216216,"Delta":61009434},{"NoteNumber":73,"Velocity":49,"Duration":610146,"SoundDuration":610146,"Delta":61225651},{"NoteNumber":63,"Velocity":41,"Duration":204959,"SoundDuration":204959,"Delta":61225651},{"NoteNumber":59,"Velocity":28,"Duration":202593,"SoundDuration":202593,"Delta":61430611},{"NoteNumber":56,"Velocity":33,"Duration":202593,"SoundDuration":202593,"Delta":61633204},{"NoteNumber":71,"Velocity":55,"Duration":602149,"SoundDuration":602149,"Delta":61835797},{"NoteNumber":68,"Velocity":40,"Duration":200280,"SoundDuration":200280,"Delta":62040757},{"NoteNumber":64,"Velocity":46,"Duration":196908,"SoundDuration":196908,"Delta":62241038},{"NoteNumber":70,"Velocity":49,"Duration":607819,"SoundDuration":607819,"Delta":62437946},{"NoteNumber":59,"Velocity":40,"Duration":204959,"SoundDuration":204959,"Delta":62437946},{"NoteNumber":56,"Velocity":29,"Duration":201430,"SoundDuration":201430,"Delta":62642906},{"NoteNumber":52,"Velocity":30,"Duration":201430,"SoundDuration":201430,"Delta":62844336},{"NoteNumber":68,"Velocity":55,"Duration":616253,"SoundDuration":616253,"Delta":63045766},{"NoteNumber":64,"Velocity":46,"Duration":201430,"SoundDuration":201430,"Delta":63250726},{"NoteNumber":61,"Velocity":46,"Duration":209863,"SoundDuration":209863,"Delta":63452156},{"NoteNumber":71,"Velocity":66,"Duration":302197,"SoundDuration":302197,"Delta":63662020},{"NoteNumber":56,"Velocity":44,"Duration":219780,"SoundDuration":219780,"Delta":63662020},{"NoteNumber":52,"Velocity":33,"Duration":215396,"SoundDuration":215396,"Delta":63881800},{"NoteNumber":70,"Velocity":60,"Duration":292553,"SoundDuration":292553,"Delta":63990814},{"NoteNumber":49,"Velocity":35,"Duration":212766,"SoundDuration":212766,"Delta":64097197},{"NoteNumber":64,"Velocity":69,"Duration":627365,"SoundDuration":627365,"Delta":64309963},{"NoteNumber":61,"Velocity":60,"Duration":231866,"SoundDuration":231866,"Delta":64518296},{"NoteNumber":58,"Velocity":57,"Duration":213903,"SoundDuration":213903,"Delta":64723424},{"NoteNumber":68,"Velocity":70,"Duration":314285,"SoundDuration":314285,"Delta":64937328},{"NoteNumber":52,"Velocity":48,"Duration":228571,"SoundDuration":228571,"Delta":64937328},{"NoteNumber":49,"Velocity":34,"Duration":222981,"SoundDuration":222981,"Delta":65165899},{"NoteNumber":66,"Velocity":67,"Duration":298913,"SoundDuration":298913,"Delta":65280185},{"NoteNumber":46,"Velocity":40,"Duration":217391,"SoundDuration":217391,"Delta":65388881},{"NoteNumber":61,"Velocity":73,"Duration":647754,"SoundDuration":647754,"Delta":65606272},{"NoteNumber":58,"Velocity":67,"Duration":212766,"SoundDuration":212766,"Delta":65819038},{"NoteNumber":54,"Velocity":60,"Duration":222222,"SoundDuration":222222,"Delta":66031804},{"NoteNumber":63,"Velocity":69,"Duration":662055,"SoundDuration":662055,"Delta":66254026},{"NoteNumber":49,"Velocity":61,"Duration":217391,"SoundDuration":217391,"Delta":66254026},{"NoteNumber":46,"Velocity":59,"Duration":217391,"SoundDuration":217391,"Delta":66471418},{"NoteNumber":42,"Velocity":54,"Duration":227272,"SoundDuration":227272,"Delta":66688809},{"NoteNumber":64,"Velocity":77,"Duration":1514787,"SoundDuration":1514787,"Delta":66916082},{"NoteNumber":61,"Velocity":69,"Duration":227272,"SoundDuration":227272,"Delta":67143354},{"NoteNumber":58,"Velocity":59,"Duration":229884,"SoundDuration":229884,"Delta":67370627},{"NoteNumber":49,"Velocity":62,"Duration":259740,"SoundDuration":259740,"Delta":67600512},{"NoteNumber":46,"Velocity":56,"Duration":272109,"SoundDuration":272109,"Delta":67860252},{"NoteNumber":43,"Velocity":51,"Duration":298507,"SoundDuration":298507,"Delta":68132361},{"NoteNumber":63,"Velocity":50,"Duration":685000,"SoundDuration":685000,"Delta":68430869},{"NoteNumber":39,"Velocity":41,"Duration":340988,"SoundDuration":340988,"Delta":68430869},{"NoteNumber":67,"Velocity":41,"Duration":224416,"SoundDuration":224416,"Delta":68659649},{"NoteNumber":70,"Velocity":46,"Duration":231803,"SoundDuration":231803,"Delta":68884066},{"NoteNumber":61,"Velocity":50,"Duration":676435,"SoundDuration":676435,"Delta":69115869},{"NoteNumber":44,"Velocity":37,"Duration":224416,"SoundDuration":224416,"Delta":69115869},{"NoteNumber":51,"Velocity":29,"Duration":220215,"SoundDuration":220215,"Delta":69340286},{"NoteNumber":56,"Velocity":35,"Duration":231803,"SoundDuration":231803,"Delta":69560502},{"NoteNumber":59,"Velocity":50,"Duration":636106,"SoundDuration":636106,"Delta":69792305},{"NoteNumber":63,"Velocity":42,"Duration":210526,"SoundDuration":210526,"Delta":70007359},{"NoteNumber":68,"Velocity":46,"Duration":210526,"SoundDuration":210526,"Delta":70217885},{"NoteNumber":58,"Velocity":49,"Duration":634956,"SoundDuration":634956,"Delta":70428411},{"NoteNumber":40,"Velocity":41,"Duration":213903,"SoundDuration":213903,"Delta":70428411},{"NoteNumber":47,"Velocity":36,"Duration":210526,"SoundDuration":210526,"Delta":70642315},{"NoteNumber":52,"Velocity":39,"Duration":210526,"SoundDuration":210526,"Delta":70852841},{"NoteNumber":56,"Velocity":50,"Duration":639426,"SoundDuration":639426,"Delta":71063368},{"NoteNumber":59,"Velocity":40,"Duration":238156,"SoundDuration":238156,"Delta":71274338},{"NoteNumber":64,"Velocity":46,"Duration":217485,"SoundDuration":217485,"Delta":71485308},{"NoteNumber":59,"Velocity":59,"Duration":289017,"SoundDuration":289017,"Delta":71702794},{"NoteNumber":37,"Velocity":46,"Duration":231213,"SoundDuration":231213,"Delta":71702794},{"NoteNumber":44,"Velocity":40,"Duration":227338,"SoundDuration":227338,"Delta":71934008},{"NoteNumber":58,"Velocity":55,"Duration":293296,"SoundDuration":293296,"Delta":72049615},{"NoteNumber":52,"Velocity":34,"Duration":223463,"SoundDuration":223463,"Delta":72161347},{"NoteNumber":56,"Velocity":52,"Duration":639426,"SoundDuration":639426,"Delta":72384811},{"NoteNumber":61,"Velocity":41,"Duration":238156,"SoundDuration":238156,"Delta":72595781},{"NoteNumber":64,"Velocity":46,"Duration":217485,"SoundDuration":217485,"Delta":72806752},{"NoteNumber":59,"Velocity":58,"Duration":292397,"SoundDuration":292397,"Delta":73024238},{"NoteNumber":37,"Velocity":46,"Duration":233918,"SoundDuration":233918,"Delta":73024238},{"NoteNumber":44,"Velocity":40,"Duration":230595,"SoundDuration":230595,"Delta":73258156},{"NoteNumber":58,"Velocity":54,"Duration":298295,"SoundDuration":298295,"Delta":73375115},{"NoteNumber":52,"Velocity":34,"Duration":227272,"SoundDuration":227272,"Delta":73488751},{"NoteNumber":56,"Velocity":50,"Duration":640614,"SoundDuration":640614,"Delta":73716024},{"NoteNumber":59,"Velocity":42,"Duration":213538,"SoundDuration":213538,"Delta":73929562},{"NoteNumber":64,"Velocity":46,"Duration":213538,"SoundDuration":213538,"Delta":74143100},{"NoteNumber":61,"Velocity":56,"Duration":288406,"SoundDuration":288406,"Delta":74356639},{"NoteNumber":39,"Velocity":44,"Duration":227800,"SoundDuration":227800,"Delta":74356639},{"NoteNumber":46,"Velocity":40,"Duration":242424,"SoundDuration":242424,"Delta":74584439},{"NoteNumber":59,"Velocity":51,"Duration":318181,"SoundDuration":318181,"Delta":74705652},{"NoteNumber":55,"Velocity":34,"Duration":242424,"SoundDuration":242424,"Delta":74826864},{"NoteNumber":58,"Velocity":49,"Duration":720074,"SoundDuration":720074,"Delta":75069288},{"NoteNumber":63,"Velocity":46,"Duration":236686,"SoundDuration":236686,"Delta":75311712},{"NoteNumber":67,"Velocity":44,"Duration":240963,"SoundDuration":240963,"Delta":75548399},{"NoteNumber":76,"Velocity":59,"Duration":679365,"SoundDuration":679365,"Delta":75789363},{"NoteNumber":61,"Velocity":40,"Duration":228571,"SoundDuration":228571,"Delta":75789363},{"NoteNumber":58,"Velocity":28,"Duration":222222,"SoundDuration":222222,"Delta":76017934},{"NoteNumber":55,"Velocity":33,"Duration":228571,"SoundDuration":228571,"Delta":76240156},{"NoteNumber":75,"Velocity":55,"Duration":663077,"SoundDuration":663077,"Delta":76468728},{"NoteNumber":51,"Velocity":33,"Duration":330917,"SoundDuration":330917,"Delta":76468728},{"NoteNumber":70,"Velocity":40,"Duration":217391,"SoundDuration":217391,"Delta":76690950},{"NoteNumber":67,"Velocity":39,"Duration":223463,"SoundDuration":223463,"Delta":76908341},{"NoteNumber":73,"Velocity":49,"Duration":623524,"SoundDuration":623524,"Delta":77131805},{"NoteNumber":63,"Velocity":41,"Duration":209445,"SoundDuration":209445,"Delta":77131805},{"NoteNumber":59,"Velocity":29,"Duration":207039,"SoundDuration":207039,"Delta":77341251},{"NoteNumber":56,"Velocity":33,"Duration":207039,"SoundDuration":207039,"Delta":77548290},{"NoteNumber":71,"Velocity":55,"Duration":615339,"SoundDuration":615339,"Delta":77755330},{"NoteNumber":68,"Velocity":40,"Duration":204666,"SoundDuration":204666,"Delta":77964776},{"NoteNumber":64,"Velocity":46,"Duration":201227,"SoundDuration":201227,"Delta":78169442},{"NoteNumber":70,"Velocity":49,"Duration":621138,"SoundDuration":621138,"Delta":78370669},{"NoteNumber":59,"Velocity":40,"Duration":209445,"SoundDuration":209445,"Delta":78370669},{"NoteNumber":56,"Velocity":29,"Duration":205845,"SoundDuration":205845,"Delta":78580115},{"NoteNumber":52,"Velocity":34,"Duration":205846,"SoundDuration":205846,"Delta":78785961},{"NoteNumber":68,"Velocity":55,"Duration":629769,"SoundDuration":629769,"Delta":78991807},{"NoteNumber":64,"Velocity":46,"Duration":205846,"SoundDuration":205846,"Delta":79201253},{"NoteNumber":61,"Velocity":46,"Duration":214477,"SoundDuration":214477,"Delta":79407099},{"NoteNumber":58,"Velocity":66,"Duration":274755,"SoundDuration":274755,"Delta":79621577},{"NoteNumber":37,"Velocity":46,"Duration":219810,"SoundDuration":219810,"Delta":79621577},{"NoteNumber":44,"Velocity":30,"Duration":216841,"SoundDuration":216841,"Delta":79841387},{"NoteNumber":59,"Velocity":59,"Duration":280748,"SoundDuration":280748,"Delta":79951277},{"NoteNumber":52,"Velocity":36,"Duration":213903,"SoundDuration":213903,"Delta":80058229},{"NoteNumber":61,"Velocity":57,"Duration":625000,"SoundDuration":625000,"Delta":80272133},{"NoteNumber":64,"Velocity":60,"Duration":208333,"SoundDuration":208333,"Delta":80480466},{"NoteNumber":68,"Velocity":64,"Duration":208333,"SoundDuration":208333,"Delta":80688799},{"NoteNumber":71,"Velocity":68,"Duration":270270,"SoundDuration":270270,"Delta":80897133},{"NoteNumber":56,"Velocity":51,"Duration":216216,"SoundDuration":216216,"Delta":80897133},{"NoteNumber":52,"Velocity":42,"Duration":215059,"SoundDuration":215059,"Delta":81113349},{"NoteNumber":70,"Velocity":64,"Duration":280748,"SoundDuration":280748,"Delta":81221457},{"NoteNumber":49,"Velocity":48,"Duration":213903,"SoundDuration":213903,"Delta":81328409},{"NoteNumber":68,"Velocity":72,"Duration":645161,"SoundDuration":645161,"Delta":81542313},{"NoteNumber":64,"Velocity":64,"Duration":215053,"SoundDuration":215053,"Delta":81757366},{"NoteNumber":61,"Velocity":68,"Duration":215053,"SoundDuration":215053,"Delta":81972420},{"NoteNumber":56,"Velocity":79,"Duration":289017,"SoundDuration":289017,"Delta":82187474},{"NoteNumber":38,"Velocity":52,"Duration":231213,"SoundDuration":231213,"Delta":82187474},{"NoteNumber":44,"Velocity":39,"Duration":227338,"SoundDuration":227338,"Delta":82418688},{"NoteNumber":58,"Velocity":73,"Duration":293296,"SoundDuration":293296,"Delta":82534295},{"NoteNumber":53,"Velocity":45,"Duration":223463,"SoundDuration":223463,"Delta":82646027},{"NoteNumber":59,"Velocity":79,"Duration":701044,"SoundDuration":701044,"Delta":82869490},{"NoteNumber":65,"Velocity":73,"Duration":228571,"SoundDuration":228571,"Delta":83098062},{"NoteNumber":68,"Velocity":75,"Duration":243902,"SoundDuration":243902,"Delta":83326633},{"NoteNumber":71,"Velocity":85,"Duration":295857,"SoundDuration":295857,"Delta":83570535},{"NoteNumber":56,"Velocity":66,"Duration":236686,"SoundDuration":236686,"Delta":83570535},{"NoteNumber":53,"Velocity":48,"Duration":236686,"SoundDuration":236686,"Delta":83807222},{"NoteNumber":70,"Velocity":77,"Duration":310650,"SoundDuration":310650,"Delta":83925565},{"NoteNumber":50,"Velocity":55,"Duration":236686,"SoundDuration":236686,"Delta":84043908},{"NoteNumber":68,"Velocity":71,"Duration":6322584,"SoundDuration":6322584,"Delta":84280594},{"NoteNumber":65,"Velocity":62,"Duration":236686,"SoundDuration":236686,"Delta":84517281},{"NoteNumber":59,"Velocity":55,"Duration":242424,"SoundDuration":242424,"Delta":84753967},{"NoteNumber":39,"Velocity":52,"Duration":242424,"SoundDuration":242424,"Delta":84996391},{"NoteNumber":47,"Velocity":37,"Duration":242424,"SoundDuration":242424,"Delta":85238816},{"NoteNumber":51,"Velocity":42,"Duration":242424,"SoundDuration":242424,"Delta":85481240},{"NoteNumber":63,"Velocity":47,"Duration":246913,"SoundDuration":246913,"Delta":85723664},{"NoteNumber":59,"Velocity":36,"Duration":239520,"SoundDuration":239520,"Delta":85970578},{"NoteNumber":56,"Velocity":40,"Duration":239521,"SoundDuration":239521,"Delta":86210099},{"NoteNumber":39,"Velocity":40,"Duration":246913,"SoundDuration":246913,"Delta":86449620},{"NoteNumber":49,"Velocity":28,"Duration":246913,"SoundDuration":246913,"Delta":86696534},{"NoteNumber":51,"Velocity":34,"Duration":246913,"SoundDuration":246913,"Delta":86943447},{"NoteNumber":61,"Velocity":40,"Duration":272109,"SoundDuration":272109,"Delta":87190361},{"NoteNumber":58,"Velocity":34,"Duration":289855,"SoundDuration":289855,"Delta":87462470},{"NoteNumber":56,"Velocity":36,"Duration":2750813,"SoundDuration":2750813,"Delta":87752325},{"NoteNumber":32,"Velocity":34,"Duration":2498288,"SoundDuration":2498288,"Delta":88004850},{"NoteNumber":44,"Velocity":34,"Duration":2300920,"SoundDuration":2300920,"Delta":88202219},{"NoteNumber":68,"Velocity":36,"Duration":669343,"SoundDuration":669343,"Delta":90603179},{"NoteNumber":71,"Velocity":45,"Duration":669343,"SoundDuration":669343,"Delta":90603179},{"NoteNumber":59,"Velocity":36,"Duration":669343,"SoundDuration":669343,"Delta":90603179},{"NoteNumber":40,"Velocity":41,"Duration":669343,"SoundDuration":669343,"Delta":90603179},{"NoteNumber":28,"Velocity":29,"Duration":669343,"SoundDuration":669343,"Delta":90603179},{"NoteNumber":71,"Velocity":46,"Duration":657822,"SoundDuration":657822,"Delta":91272523},{"NoteNumber":60,"Velocity":38,"Duration":657822,"SoundDuration":657822,"Delta":91272523},{"NoteNumber":68,"Velocity":38,"Duration":657822,"SoundDuration":657822,"Delta":91272523},{"NoteNumber":33,"Velocity":26,"Duration":657822,"SoundDuration":657822,"Delta":91272523},{"NoteNumber":45,"Velocity":38,"Duration":657822,"SoundDuration":657822,"Delta":91272523},{"NoteNumber":61,"Velocity":34,"Duration":637213,"SoundDuration":637213,"Delta":91930346},{"NoteNumber":69,"Velocity":41,"Duration":637213,"SoundDuration":637213,"Delta":91930346},{"NoteNumber":66,"Velocity":34,"Duration":637213,"SoundDuration":637213,"Delta":91930346},{"NoteNumber":30,"Velocity":24,"Duration":637213,"SoundDuration":637213,"Delta":91930346},{"NoteNumber":42,"Velocity":43,"Duration":637213,"SoundDuration":637213,"Delta":91930346},{"NoteNumber":69,"Velocity":34,"Duration":645161,"SoundDuration":645161,"Delta":92567559},{"NoteNumber":62,"Velocity":40,"Duration":322580,"SoundDuration":322580,"Delta":92567559},{"NoteNumber":66,"Velocity":34,"Duration":645161,"SoundDuration":645161,"Delta":92567559},{"NoteNumber":47,"Velocity":37,"Duration":645161,"SoundDuration":645161,"Delta":92567559},{"NoteNumber":35,"Velocity":26,"Duration":645161,"SoundDuration":645161,"Delta":92567559},{"NoteNumber":63,"Velocity":43,"Duration":322580,"SoundDuration":322580,"Delta":92890139},{"NoteNumber":66,"Velocity":46,"Duration":327869,"SoundDuration":327869,"Delta":93212720},{"NoteNumber":69,"Velocity":27,"Duration":640369,"SoundDuration":640369,"Delta":93212720},{"NoteNumber":28,"Velocity":24,"Duration":640369,"SoundDuration":640369,"Delta":93212720},{"NoteNumber":40,"Velocity":35,"Duration":640369,"SoundDuration":640369,"Delta":93212720},{"NoteNumber":64,"Velocity":34,"Duration":312500,"SoundDuration":312500,"Delta":93540589},{"NoteNumber":68,"Velocity":36,"Duration":608932,"SoundDuration":608932,"Delta":93853089},{"NoteNumber":59,"Velocity":39,"Duration":312500,"SoundDuration":312500,"Delta":93853089},{"NoteNumber":52,"Velocity":32,"Duration":608932,"SoundDuration":608932,"Delta":93853089},{"NoteNumber":40,"Velocity":21,"Duration":608932,"SoundDuration":608932,"Delta":93853089},{"NoteNumber":56,"Velocity":34,"Duration":296432,"SoundDuration":296432,"Delta":94165589},{"NoteNumber":56,"Velocity":37,"Duration":635930,"SoundDuration":635930,"Delta":94488969},{"NoteNumber":64,"Velocity":37,"Duration":635930,"SoundDuration":635930,"Delta":94488969},{"NoteNumber":68,"Velocity":45,"Duration":635930,"SoundDuration":635930,"Delta":94488969},{"NoteNumber":47,"Velocity":37,"Duration":635930,"SoundDuration":635930,"Delta":94488969},{"NoteNumber":35,"Velocity":25,"Duration":635930,"SoundDuration":635930,"Delta":94488969},{"NoteNumber":57,"Velocity":37,"Duration":632444,"SoundDuration":632444,"Delta":95124899},{"NoteNumber":68,"Velocity":43,"Duration":632444,"SoundDuration":632444,"Delta":95124899},{"NoteNumber":64,"Velocity":37,"Duration":632444,"SoundDuration":632444,"Delta":95124899},{"NoteNumber":48,"Velocity":37,"Duration":632444,"SoundDuration":632444,"Delta":95124899},{"NoteNumber":36,"Velocity":25,"Duration":632444,"SoundDuration":632444,"Delta":95124899},{"NoteNumber":66,"Velocity":43,"Duration":618747,"SoundDuration":618747,"Delta":95757343},{"NoteNumber":64,"Velocity":37,"Duration":618747,"SoundDuration":618747,"Delta":95757343},{"NoteNumber":58,"Velocity":37,"Duration":618747,"SoundDuration":618747,"Delta":95757343},{"NoteNumber":37,"Velocity":25,"Duration":618747,"SoundDuration":618747,"Delta":95757343},{"NoteNumber":49,"Velocity":37,"Duration":618747,"SoundDuration":618747,"Delta":95757343},{"NoteNumber":64,"Velocity":35,"Duration":628271,"SoundDuration":628271,"Delta":96376091},{"NoteNumber":58,"Velocity":28,"Duration":628271,"SoundDuration":628271,"Delta":96376091},{"NoteNumber":65,"Velocity":42,"Duration":314136,"SoundDuration":314136,"Delta":96376091},{"NoteNumber":30,"Velocity":23,"Duration":628271,"SoundDuration":628271,"Delta":96376091},{"NoteNumber":42,"Velocity":34,"Duration":628271,"SoundDuration":628271,"Delta":96376091},{"NoteNumber":66,"Velocity":44,"Duration":314135,"SoundDuration":314135,"Delta":96690227},{"NoteNumber":69,"Velocity":45,"Duration":310880,"SoundDuration":310880,"Delta":97004363},{"NoteNumber":57,"Velocity":24,"Duration":621762,"SoundDuration":621762,"Delta":97004363},{"NoteNumber":63,"Velocity":34,"Duration":621762,"SoundDuration":621762,"Delta":97004363},{"NoteNumber":35,"Velocity":27,"Duration":621762,"SoundDuration":621762,"Delta":97004363},{"NoteNumber":66,"Velocity":41,"Duration":310881,"SoundDuration":310881,"Delta":97315244},{"NoteNumber":57,"Velocity":42,"Duration":620802,"SoundDuration":620802,"Delta":97626125},{"NoteNumber":64,"Velocity":42,"Duration":315789,"SoundDuration":315789,"Delta":97626125},{"NoteNumber":47,"Velocity":19,"Duration":620802,"SoundDuration":620802,"Delta":97626125},{"NoteNumber":54,"Velocity":21,"Duration":620802,"SoundDuration":620802,"Delta":97626125},{"NoteNumber":63,"Velocity":36,"Duration":305013,"SoundDuration":305013,"Delta":97941915},{"NoteNumber":69,"Velocity":49,"Duration":634921,"SoundDuration":634921,"Delta":98274657},{"NoteNumber":73,"Velocity":59,"Duration":634921,"SoundDuration":634921,"Delta":98274657},{"NoteNumber":61,"Velocity":49,"Duration":634921,"SoundDuration":634921,"Delta":98274657},{"NoteNumber":42,"Velocity":41,"Duration":634921,"SoundDuration":634921,"Delta":98274657},{"NoteNumber":30,"Velocity":35,"Duration":634921,"SoundDuration":634921,"Delta":98274657},{"NoteNumber":73,"Velocity":59,"Duration":628930,"SoundDuration":628930,"Delta":98909578},{"NoteNumber":62,"Velocity":49,"Duration":628930,"SoundDuration":628930,"Delta":98909578},{"NoteNumber":69,"Velocity":49,"Duration":628930,"SoundDuration":628930,"Delta":98909578},{"NoteNumber":35,"Velocity":35,"Duration":628930,"SoundDuration":628930,"Delta":98909578},{"NoteNumber":47,"Velocity":41,"Duration":628930,"SoundDuration":628930,"Delta":98909578},{"NoteNumber":71,"Velocity":58,"Duration":622084,"SoundDuration":622084,"Delta":99538509},{"NoteNumber":63,"Velocity":48,"Duration":622084,"SoundDuration":622084,"Delta":99538509},{"NoteNumber":69,"Velocity":48,"Duration":622084,"SoundDuration":622084,"Delta":99538509},{"NoteNumber":32,"Velocity":35,"Duration":622084,"SoundDuration":622084,"Delta":99538509},{"NoteNumber":44,"Velocity":41,"Duration":622084,"SoundDuration":622084,"Delta":99538509},{"NoteNumber":64,"Velocity":55,"Duration":364313,"SoundDuration":364313,"Delta":100160593},{"NoteNumber":68,"Velocity":45,"Duration":623380,"SoundDuration":623380,"Delta":100160593},{"NoteNumber":71,"Velocity":45,"Duration":623380,"SoundDuration":623380,"Delta":100160593},{"NoteNumber":37,"Velocity":35,"Duration":623380,"SoundDuration":623380,"Delta":100160593},{"NoteNumber":49,"Velocity":41,"Duration":623380,"SoundDuration":623380,"Delta":100160593},{"NoteNumber":65,"Velocity":55,"Duration":310880,"SoundDuration":310880,"Delta":100473093},{"NoteNumber":71,"Velocity":51,"Duration":625000,"SoundDuration":625000,"Delta":100783974},{"NoteNumber":68,"Velocity":57,"Duration":312500,"SoundDuration":312500,"Delta":100783974},{"NoteNumber":42,"Velocity":36,"Duration":625000,"SoundDuration":625000,"Delta":100783974},{"NoteNumber":30,"Velocity":29,"Duration":625000,"SoundDuration":625000,"Delta":100783974},{"NoteNumber":66,"Velocity":50,"Duration":312500,"SoundDuration":312500,"Delta":101096474},{"NoteNumber":69,"Velocity":47,"Duration":604006,"SoundDuration":604006,"Delta":101408974},{"NoteNumber":61,"Velocity":50,"Duration":314136,"SoundDuration":314136,"Delta":101408974},{"NoteNumber":42,"Velocity":22,"Duration":604006,"SoundDuration":604006,"Delta":101408974},{"NoteNumber":54,"Velocity":29,"Duration":604006,"SoundDuration":604006,"Delta":101408974},{"NoteNumber":57,"Velocity":45,"Duration":289870,"SoundDuration":289870,"Delta":101723110},{"NoteNumber":62,"Velocity":50,"Duration":632444,"SoundDuration":632444,"Delta":102039332},{"NoteNumber":68,"Velocity":50,"Duration":632444,"SoundDuration":632444,"Delta":102039332},{"NoteNumber":74,"Velocity":60,"Duration":632444,"SoundDuration":632444,"Delta":102039332},{"NoteNumber":28,"Velocity":55,"Duration":632444,"SoundDuration":632444,"Delta":102039332},{"NoteNumber":40,"Velocity":55,"Duration":632444,"SoundDuration":632444,"Delta":102039332},{"NoteNumber":63,"Velocity":56,"Duration":621762,"SoundDuration":621762,"Delta":102671776},{"NoteNumber":74,"Velocity":67,"Duration":621762,"SoundDuration":621762,"Delta":102671776},{"NoteNumber":69,"Velocity":56,"Duration":621762,"SoundDuration":621762,"Delta":102671776},{"NoteNumber":29,"Velocity":52,"Duration":621762,"SoundDuration":621762,"Delta":102671776},{"NoteNumber":41,"Velocity":52,"Duration":621762,"SoundDuration":621762,"Delta":102671776},{"NoteNumber":69,"Velocity":53,"Duration":621761,"SoundDuration":621761,"Delta":103293538},{"NoteNumber":63,"Velocity":53,"Duration":621761,"SoundDuration":621761,"Delta":103293538},{"NoteNumber":72,"Velocity":63,"Duration":621761,"SoundDuration":621761,"Delta":103293538},{"NoteNumber":41,"Velocity":53,"Duration":621761,"SoundDuration":621761,"Delta":103293538},{"NoteNumber":53,"Velocity":53,"Duration":621761,"SoundDuration":621761,"Delta":103293538},{"NoteNumber":71,"Velocity":68,"Duration":306122,"SoundDuration":306122,"Delta":103915300},{"NoteNumber":62,"Velocity":57,"Duration":621911,"SoundDuration":621911,"Delta":103915300},{"NoteNumber":68,"Velocity":57,"Duration":621911,"SoundDuration":621911,"Delta":103915300},{"NoteNumber":29,"Velocity":56,"Duration":621911,"SoundDuration":621911,"Delta":103915300},{"NoteNumber":41,"Velocity":47,"Duration":621911,"SoundDuration":621911,"Delta":103915300},{"NoteNumber":72,"Velocity":57,"Duration":315789,"SoundDuration":315789,"Delta":104221422},{"NoteNumber":69,"Velocity":66,"Duration":309278,"SoundDuration":309278,"Delta":104537212},{"NoteNumber":53,"Velocity":59,"Duration":1213918,"SoundDuration":1213918,"Delta":104537212},{"NoteNumber":60,"Velocity":59,"Duration":309278,"SoundDuration":309278,"Delta":104537212},{"NoteNumber":75,"Velocity":66,"Duration":309278,"SoundDuration":309278,"Delta":104538500},{"NoteNumber":72,"Velocity":56,"Duration":309278,"SoundDuration":309278,"Delta":104845201},{"NoteNumber":57,"Velocity":53,"Duration":309278,"SoundDuration":309278,"Delta":104846490},{"NoteNumber":70,"Velocity":70,"Duration":309278,"SoundDuration":309278,"Delta":105158346},{"NoteNumber":55,"Velocity":57,"Duration":309278,"SoundDuration":309278,"Delta":105159635},{"NoteNumber":69,"Velocity":63,"Duration":283505,"SoundDuration":283505,"Delta":105466336},{"NoteNumber":53,"Velocity":49,"Duration":306701,"SoundDuration":306701,"Delta":105467624},{"NoteNumber":69,"Velocity":62,"Duration":631579,"SoundDuration":631579,"Delta":105774326},{"NoteNumber":75,"Velocity":75,"Duration":631579,"SoundDuration":631579,"Delta":105774326},{"NoteNumber":60,"Velocity":62,"Duration":631579,"SoundDuration":631579,"Delta":105774326},{"NoteNumber":41,"Velocity":64,"Duration":631579,"SoundDuration":631579,"Delta":105774326},{"NoteNumber":29,"Velocity":64,"Duration":631579,"SoundDuration":631579,"Delta":105774326},{"NoteNumber":62,"Velocity":68,"Duration":621762,"SoundDuration":621762,"Delta":106405905},{"NoteNumber":74,"Velocity":80,"Duration":621762,"SoundDuration":621762,"Delta":106405905},{"NoteNumber":69,"Velocity":68,"Duration":621762,"SoundDuration":621762,"Delta":106405905},{"NoteNumber":30,"Velocity":69,"Duration":621762,"SoundDuration":621762,"Delta":106405905},{"NoteNumber":42,"Velocity":69,"Duration":621762,"SoundDuration":621762,"Delta":106405905},{"NoteNumber":72,"Velocity":75,"Duration":634921,"SoundDuration":634921,"Delta":107027667},{"NoteNumber":69,"Velocity":62,"Duration":634921,"SoundDuration":634921,"Delta":107027667},{"NoteNumber":63,"Velocity":62,"Duration":634921,"SoundDuration":634921,"Delta":107027667},{"NoteNumber":42,"Velocity":58,"Duration":634921,"SoundDuration":634921,"Delta":107027667},{"NoteNumber":54,"Velocity":69,"Duration":634921,"SoundDuration":634921,"Delta":107027667},{"NoteNumber":62,"Velocity":68,"Duration":626670,"SoundDuration":626670,"Delta":107662588},{"NoteNumber":68,"Velocity":68,"Duration":626670,"SoundDuration":626670,"Delta":107662588},{"NoteNumber":71,"Velocity":81,"Duration":315789,"SoundDuration":315789,"Delta":107662588},{"NoteNumber":41,"Velocity":69,"Duration":626670,"SoundDuration":626670,"Delta":107662588},{"NoteNumber":29,"Velocity":69,"Duration":626670,"SoundDuration":626670,"Delta":107662588},{"NoteNumber":72,"Velocity":78,"Duration":310880,"SoundDuration":310880,"Delta":107978377},{"NoteNumber":69,"Velocity":82,"Duration":309278,"SoundDuration":309278,"Delta":108289258},{"NoteNumber":79,"Velocity":82,"Duration":1862181,"SoundDuration":1862181,"Delta":108289258},{"NoteNumber":63,"Velocity":70,"Duration":309278,"SoundDuration":309278,"Delta":108289258},{"NoteNumber":53,"Velocity":70,"Duration":2480738,"SoundDuration":2480738,"Delta":108289258},{"NoteNumber":75,"Velocity":69,"Duration":309278,"SoundDuration":309278,"Delta":108598537},{"NoteNumber":60,"Velocity":59,"Duration":335051,"SoundDuration":335051,"Delta":108598537},{"NoteNumber":74,"Velocity":72,"Duration":335051,"SoundDuration":335051,"Delta":108907815},{"NoteNumber":58,"Velocity":63,"Duration":335051,"SoundDuration":335051,"Delta":108907815},{"NoteNumber":72,"Velocity":67,"Duration":335051,"SoundDuration":335051,"Delta":109217094},{"NoteNumber":57,"Velocity":59,"Duration":335051,"SoundDuration":335051,"Delta":109217094},{"NoteNumber":71,"Velocity":69,"Duration":335594,"SoundDuration":335594,"Delta":109526372},{"NoteNumber":56,"Velocity":55,"Duration":335594,"SoundDuration":335594,"Delta":109526372},{"NoteNumber":72,"Velocity":62,"Duration":315789,"SoundDuration":315789,"Delta":109835651},{"NoteNumber":57,"Velocity":49,"Duration":315789,"SoundDuration":315789,"Delta":109835651},{"NoteNumber":77,"Velocity":67,"Duration":618556,"SoundDuration":618556,"Delta":110151440},{"NoteNumber":75,"Velocity":67,"Duration":309278,"SoundDuration":309278,"Delta":110151440},{"NoteNumber":60,"Velocity":53,"Duration":309278,"SoundDuration":309278,"Delta":110151440},{"NoteNumber":72,"Velocity":59,"Duration":335051,"SoundDuration":335051,"Delta":110460719},{"NoteNumber":57,"Velocity":47,"Duration":335051,"SoundDuration":335051,"Delta":110460719},{"NoteNumber":70,"Velocity":62,"Duration":335051,"SoundDuration":335051,"Delta":110769997},{"NoteNumber":55,"Velocity":52,"Duration":335051,"SoundDuration":335051,"Delta":110769997},{"NoteNumber":69,"Velocity":46,"Duration":336455,"SoundDuration":336455,"Delta":111079276},{"NoteNumber":53,"Velocity":37,"Duration":336455,"SoundDuration":336455,"Delta":111079276},{"NoteNumber":67,"Velocity":55,"Duration":355887,"SoundDuration":355887,"Delta":111388554},{"NoteNumber":51,"Velocity":44,"Duration":355887,"SoundDuration":355887,"Delta":111388554},{"NoteNumber":65,"Velocity":47,"Duration":387677,"SoundDuration":387677,"Delta":111714677},{"NoteNumber":50,"Velocity":37,"Duration":387677,"SoundDuration":387677,"Delta":111714677},{"NoteNumber":63,"Velocity":46,"Duration":398370,"SoundDuration":398370,"Delta":112071862},{"NoteNumber":48,"Velocity":36,"Duration":398370,"SoundDuration":398370,"Delta":112071862},{"NoteNumber":60,"Velocity":36,"Duration":423449,"SoundDuration":423449,"Delta":112437761},{"NoteNumber":45,"Velocity":30,"Duration":423449,"SoundDuration":423449,"Delta":112437761},{"NoteNumber":58,"Velocity":36,"Duration":751451,"SoundDuration":751451,"Delta":112827422},{"NoteNumber":43,"Velocity":30,"Duration":751451,"SoundDuration":751451,"Delta":112827422},{"NoteNumber":57,"Velocity":41,"Duration":1435448,"SoundDuration":1435448,"Delta":113628880},{"NoteNumber":63,"Velocity":49,"Duration":705965,"SoundDuration":705965,"Delta":113628880},{"NoteNumber":48,"Velocity":47,"Duration":1435448,"SoundDuration":1435448,"Delta":113628880},{"NoteNumber":41,"Velocity":39,"Duration":705965,"SoundDuration":705965,"Delta":113628880},{"NoteNumber":62,"Velocity":53,"Duration":729483,"SoundDuration":729483,"Delta":114334845},{"NoteNumber":42,"Velocity":42,"Duration":729483,"SoundDuration":729483,"Delta":114334845},{"NoteNumber":63,"Velocity":52,"Duration":743770,"SoundDuration":743770,"Delta":115064328},{"NoteNumber":57,"Velocity":44,"Duration":743770,"SoundDuration":743770,"Delta":115064328},{"NoteNumber":47,"Velocity":49,"Duration":1568399,"SoundDuration":1568399,"Delta":115064328},{"NoteNumber":43,"Velocity":41,"Duration":743770,"SoundDuration":743770,"Delta":115064328},{"NoteNumber":64,"Velocity":53,"Duration":824629,"SoundDuration":824629,"Delta":115808099},{"NoteNumber":55,"Velocity":44,"Duration":824629,"SoundDuration":824629,"Delta":115808099},{"NoteNumber":40,"Velocity":42,"Duration":824629,"SoundDuration":824629,"Delta":115808099},{"NoteNumber":66,"Velocity":49,"Duration":989609,"SoundDuration":989609,"Delta":116632728},{"NoteNumber":63,"Velocity":41,"Duration":989609,"SoundDuration":989609,"Delta":116632728},{"NoteNumber":54,"Velocity":41,"Duration":989609,"SoundDuration":989609,"Delta":116632728},{"NoteNumber":47,"Velocity":47,"Duration":989609,"SoundDuration":989609,"Delta":116632728},{"NoteNumber":35,"Velocity":39,"Duration":989609,"SoundDuration":989609,"Delta":116632728},{"NoteNumber":64,"Velocity":37,"Duration":1777777,"SoundDuration":1777777,"Delta":117622337},{"NoteNumber":68,"Velocity":46,"Duration":1777777,"SoundDuration":1777777,"Delta":117622337},{"NoteNumber":59,"Velocity":37,"Duration":1777777,"SoundDuration":1777777,"Delta":117622337},{"NoteNumber":56,"Velocity":37,"Duration":1777777,"SoundDuration":1777777,"Delta":117622337},{"NoteNumber":40,"Velocity":36,"Duration":1777777,"SoundDuration":1777777,"Delta":117622337},{"NoteNumber":47,"Velocity":44,"Duration":1777777,"SoundDuration":1777777,"Delta":117622337},{"NoteNumber":68,"Velocity":28,"Duration":1609091,"SoundDuration":1609091,"Delta":119400115},{"NoteNumber":71,"Velocity":35,"Duration":1609091,"SoundDuration":1609091,"Delta":119400115},{"NoteNumber":59,"Velocity":28,"Duration":1609091,"SoundDuration":1609091,"Delta":119400115},{"NoteNumber":51,"Velocity":30,"Duration":1609091,"SoundDuration":1609091,"Delta":119400115},{"NoteNumber":39,"Velocity":26,"Duration":1609091,"SoundDuration":1609091,"Delta":119400115},{"NoteNumber":76,"Velocity":62,"Duration":660622,"SoundDuration":660622,"Delta":121009206},{"NoteNumber":37,"Velocity":46,"Duration":218579,"SoundDuration":218579,"Delta":121009206},{"NoteNumber":69,"Velocity":40,"Duration":218579,"SoundDuration":218579,"Delta":121227786},{"NoteNumber":52,"Velocity":35,"Duration":218579,"SoundDuration":218579,"Delta":121227786},{"NoteNumber":64,"Velocity":40,"Duration":223463,"SoundDuration":223463,"Delta":121446365},{"NoteNumber":57,"Velocity":39,"Duration":886611,"SoundDuration":886611,"Delta":121446365},{"NoteNumber":75,"Velocity":59,"Duration":663147,"SoundDuration":663147,"Delta":121669829},{"NoteNumber":49,"Velocity":39,"Duration":663147,"SoundDuration":663147,"Delta":121669829},{"NoteNumber":53,"Velocity":39,"Duration":663147,"SoundDuration":663147,"Delta":121669829},{"NoteNumber":69,"Velocity":40,"Duration":218579,"SoundDuration":218579,"Delta":121888408},{"NoteNumber":65,"Velocity":40,"Duration":225988,"SoundDuration":225988,"Delta":122106987},{"NoteNumber":73,"Velocity":57,"Duration":659501,"SoundDuration":659501,"Delta":122332976},{"NoteNumber":33,"Velocity":47,"Duration":217391,"SoundDuration":217391,"Delta":122332976},{"NoteNumber":69,"Velocity":40,"Duration":217391,"SoundDuration":217391,"Delta":122550367},{"NoteNumber":49,"Velocity":35,"Duration":217391,"SoundDuration":217391,"Delta":122550367},{"NoteNumber":66,"Velocity":40,"Duration":224719,"SoundDuration":224719,"Delta":122767759},{"NoteNumber":54,"Velocity":40,"Duration":224719,"SoundDuration":224719,"Delta":122767759},{"NoteNumber":71,"Velocity":54,"Duration":658246,"SoundDuration":658246,"Delta":122992478},{"NoteNumber":50,"Velocity":46,"Duration":658246,"SoundDuration":658246,"Delta":122992478},{"NoteNumber":45,"Velocity":39,"Duration":658246,"SoundDuration":658246,"Delta":122992478},{"NoteNumber":68,"Velocity":40,"Duration":217391,"SoundDuration":217391,"Delta":123209869},{"NoteNumber":65,"Velocity":40,"Duration":223463,"SoundDuration":223463,"Delta":123427260},{"NoteNumber":69,"Velocity":57,"Duration":710954,"SoundDuration":710954,"Delta":123650724},{"NoteNumber":66,"Velocity":63,"Duration":314285,"SoundDuration":314285,"Delta":123650724},{"NoteNumber":35,"Velocity":49,"Duration":228571,"SoundDuration":228571,"Delta":123650724},{"NoteNumber":51,"Velocity":38,"Duration":236984,"SoundDuration":236984,"Delta":123879295},{"NoteNumber":64,"Velocity":57,"Duration":337423,"SoundDuration":337423,"Delta":123993581},{"NoteNumber":54,"Velocity":42,"Duration":245398,"SoundDuration":245398,"Delta":124116280},{"NoteNumber":73,"Velocity":70,"Duration":327381,"SoundDuration":327381,"Delta":124361679},{"NoteNumber":63,"Velocity":53,"Duration":714286,"SoundDuration":714286,"Delta":124361679},{"NoteNumber":47,"Velocity":39,"Duration":714286,"SoundDuration":714286,"Delta":124361679},{"NoteNumber":57,"Velocity":48,"Duration":714286,"SoundDuration":714286,"Delta":124361679},{"NoteNumber":71,"Velocity":60,"Duration":327381,"SoundDuration":327381,"Delta":124718822},{"NoteNumber":61,"Velocity":68,"Duration":333333,"SoundDuration":333333,"Delta":125075965},{"NoteNumber":64,"Velocity":62,"Duration":756776,"SoundDuration":756776,"Delta":125075965},{"NoteNumber":35,"Velocity":50,"Duration":242424,"SoundDuration":242424,"Delta":125075965},{"NoteNumber":49,"Velocity":40,"Duration":245435,"SoundDuration":245435,"Delta":125318389},{"NoteNumber":59,"Velocity":62,"Duration":355260,"SoundDuration":355260,"Delta":125439601},{"NoteNumber":52,"Velocity":42,"Duration":155279,"SoundDuration":155279,"Delta":125563825},{"NoteNumber":47,"Velocity":50,"Duration":854377,"SoundDuration":854377,"Delta":125719105},{"NoteNumber":57,"Velocity":53,"Duration":740741,"SoundDuration":740741,"Delta":125832741},{"NoteNumber":69,"Velocity":68,"Duration":339506,"SoundDuration":339506,"Delta":125832741},{"NoteNumber":61,"Velocity":50,"Duration":740741,"SoundDuration":740741,"Delta":125832741},{"NoteNumber":68,"Velocity":58,"Duration":339506,"SoundDuration":339506,"Delta":126203111},{"NoteNumber":61,"Velocity":52,"Duration":799327,"SoundDuration":799327,"Delta":126573482},{"NoteNumber":35,"Velocity":55,"Duration":253164,"SoundDuration":253164,"Delta":126573482},{"NoteNumber":56,"Velocity":60,"Duration":348101,"SoundDuration":348101,"Delta":126573482},{"NoteNumber":45,"Velocity":46,"Duration":266442,"SoundDuration":266442,"Delta":126826647},{"NoteNumber":54,"Velocity":50,"Duration":384615,"SoundDuration":384615,"Delta":126953229},{"NoteNumber":49,"Velocity":46,"Duration":279720,"SoundDuration":279720,"Delta":127093089},{"NoteNumber":68,"Velocity":62,"Duration":2424137,"SoundDuration":2424137,"Delta":127372809},{"NoteNumber":52,"Velocity":55,"Duration":1578947,"SoundDuration":1578947,"Delta":127372809},{"NoteNumber":47,"Velocity":50,"Duration":3333366,"SoundDuration":3333366,"Delta":127372809},{"NoteNumber":57,"Velocity":49,"Duration":2919686,"SoundDuration":2919686,"Delta":127767546},{"NoteNumber":61,"Velocity":55,"Duration":789473,"SoundDuration":789473,"Delta":128162283},{"NoteNumber":59,"Velocity":46,"Duration":4107191,"SoundDuration":4107191,"Delta":128951757},{"NoteNumber":51,"Velocity":48,"Duration":1754418,"SoundDuration":1754418,"Delta":128951757},{"NoteNumber":66,"Velocity":57,"Duration":3262002,"SoundDuration":3262002,"Delta":129796946},{"NoteNumber":57,"Velocity":41,"Duration":1588442,"SoundDuration":1588442,"Delta":130706175},{"NoteNumber":28,"Velocity":37,"Duration":381944,"SoundDuration":381944,"Delta":130706175},{"NoteNumber":40,"Velocity":29,"Duration":366666,"SoundDuration":366666,"Delta":131122842},{"NoteNumber":47,"Velocity":34,"Duration":357142,"SoundDuration":357142,"Delta":131522842},{"NoteNumber":52,"Velocity":30,"Duration":350318,"SoundDuration":350318,"Delta":131912452},{"NoteNumber":56,"Velocity":36,"Duration":2340665,"SoundDuration":2340665,"Delta":132294618},{"NoteNumber":59,"Velocity":33,"Duration":1958499,"SoundDuration":1958499,"Delta":132676783},{"NoteNumber":64,"Velocity":42,"Duration":1576334,"SoundDuration":1576334,"Delta":133058949},{"NoteNumber":52,"Velocity":30,"Duration":1576334,"SoundDuration":1576334,"Delta":133058949},{"NoteNumber":68,"Velocity":39,"Duration":358418,"SoundDuration":358418,"Delta":133444805},{"NoteNumber":71,"Velocity":40,"Duration":363587,"SoundDuration":363587,"Delta":133836119},{"NoteNumber":76,"Velocity":36,"Duration":368686,"SoundDuration":368686,"Delta":134233040},{"NoteNumber":80,"Velocity":37,"Duration":390071,"SoundDuration":390071,"Delta":134635283},{"NoteNumber":28,"Velocity":27,"Duration":890648,"SoundDuration":890648,"Delta":134635283},{"NoteNumber":83,"Velocity":36,"Duration":426356,"SoundDuration":426356,"Delta":135060815},{"NoteNumber":40,"Velocity":29,"Duration":3207794,"SoundDuration":3207794,"Delta":135525932},{"NoteNumber":47,"Velocity":29,"Duration":3084493,"SoundDuration":3084493,"Delta":135649233},{"NoteNumber":56,"Velocity":29,"Duration":2955157,"SoundDuration":2955157,"Delta":135778569},{"NoteNumber":71,"Velocity":29,"Duration":2818763,"SoundDuration":2818763,"Delta":135914962},{"NoteNumber":76,"Velocity":30,"Duration":2675192,"SoundDuration":2675192,"Delta":136058533},{"NoteNumber":80,"Velocity":33,"Duration":2514074,"SoundDuration":2514074,"Delta":136219651},{"NoteNumber":83,"Velocity":36,"Duration":2316639,"SoundDuration":2316639,"Delta":136417086},{"NoteNumber":88,"Velocity":40,"Duration":2090507,"SoundDuration":2090507,"Delta":136643219}],"license":{"name":"Creative Commons Attribution-ShareAlike 3.0 Germany","url":"http://creativecommons.org/licenses/by-sa/3.0/de/deed.en","text":"The MIDI, audio (MP3, OGG) and video files of Bernd Krueger are licensed under the cc-by-sa Germany License. This means that you can use and adapt the files, as long as you attribute the copyright holder.\n\nName: Bernd Krueger\nSource: http://www.piano-midi.de\n\nThe distribution or public playback of the files is only allowed under identical license conditions.\n\nThe scores are open source.","attribution":"MIDI files by Bernd Krueger (piano-midi.de)"}}