{"title":"Jeux d'eau","artist":"Piano","durationMs":301383,"midiSha256":"c6c96e8b381ef289c1486ae5d459fd63db8c64e86874fb7ba847658afb1b4067","midiObject":[{"NoteNumber":75,"Velocity":43,"Duration":217391,"SoundDuration":217391,"Delta":0},{"NoteNumber":71,"Velocity":34,"Duration":434783,"SoundDuration":434783,"Delta":0},{"NoteNumber":64,"Velocity":28,"Duration":434783,"SoundDuration":434783,"Delta":0},{"NoteNumber":80,"Velocity":37,"Duration":217391,"SoundDuration":217391,"Delta":217391},{"NoteNumber":87,"Velocity":37,"Duration":217391,"SoundDuration":217391,"Delta":434783},{"NoteNumber":68,"Velocity":26,"Duration":434783,"SoundDuration":434783,"Delta":434783},{"NoteNumber":76,"Velocity":30,"Duration":434783,"SoundDuration":434783,"Delta":434783},{"NoteNumber":90,"Velocity":37,"Duration":217391,"SoundDuration":217391,"Delta":652174},{"NoteNumber":87,"Velocity":40,"Duration":217391,"SoundDuration":217391,"Delta":869566},{"NoteNumber":83,"Velocity":30,"Duration":434783,"SoundDuration":434783,"Delta":869566},{"NoteNumber":76,"Velocity":26,"Duration":434783,"SoundDuration":434783,"Delta":869566},{"NoteNumber":80,"Velocity":34,"Duration":217391,"SoundDuration":217391,"Delta":1086957},{"NoteNumber":73,"Velocity":42,"Duration":102040,"SoundDuration":102040,"Delta":1304349},{"NoteNumber":69,"Velocity":26,"Duration":408163,"SoundDuration":408163,"Delta":1304349},{"NoteNumber":76,"Velocity":30,"Duration":408163,"SoundDuration":408163,"Delta":1304349},{"NoteNumber":80,"Velocity":37,"Duration":102040,"SoundDuration":102040,"Delta":1406389},{"NoteNumber":85,"Velocity":37,"Duration":102040,"SoundDuration":102040,"Delta":1508430},{"NoteNumber":88,"Velocity":37,"Duration":102040,"SoundDuration":102040,"Delta":1610471},{"NoteNumber":75,"Velocity":42,"Duration":217391,"SoundDuration":217391,"Delta":1712512},{"NoteNumber":71,"Velocity":34,"Duration":434782,"SoundDuration":434782,"Delta":1712512},{"NoteNumber":64,"Velocity":28,"Duration":434782,"SoundDuration":434782,"Delta":1712512},{"NoteNumber":80,"Velocity":37,"Duration":217391,"SoundDuration":217391,"Delta":1929903},{"NoteNumber":87,"Velocity":37,"Duration":217391,"SoundDuration":217391,"Delta":2147295},{"NoteNumber":68,"Velocity":26,"Duration":434782,"SoundDuration":434782,"Delta":2147295},{"NoteNumber":76,"Velocity":31,"Duration":434782,"SoundDuration":434782,"Delta":2147295},{"NoteNumber":90,"Velocity":37,"Duration":217391,"SoundDuration":217391,"Delta":2364686},{"NoteNumber":87,"Velocity":40,"Duration":217391,"SoundDuration":217391,"Delta":2582078},{"NoteNumber":83,"Velocity":31,"Duration":434783,"SoundDuration":434783,"Delta":2582078},{"NoteNumber":76,"Velocity":26,"Duration":434783,"SoundDuration":434783,"Delta":2582078},{"NoteNumber":80,"Velocity":34,"Duration":217391,"SoundDuration":217391,"Delta":2799469},{"NoteNumber":73,"Velocity":40,"Duration":103092,"SoundDuration":103092,"Delta":3016861},{"NoteNumber":69,"Velocity":26,"Duration":412370,"SoundDuration":412370,"Delta":3016861},{"NoteNumber":76,"Velocity":31,"Duration":412370,"SoundDuration":412370,"Delta":3016861},{"NoteNumber":80,"Velocity":37,"Duration":103092,"SoundDuration":103092,"Delta":3119953},{"NoteNumber":85,"Velocity":37,"Duration":103092,"SoundDuration":103092,"Delta":3223046},{"NoteNumber":88,"Velocity":37,"Duration":103092,"SoundDuration":103092,"Delta":3326139},{"NoteNumber":75,"Velocity":43,"Duration":218182,"SoundDuration":218182,"Delta":3429232},{"NoteNumber":71,"Velocity":34,"Duration":436364,"SoundDuration":436364,"Delta":3429232},{"NoteNumber":64,"Velocity":28,"Duration":436364,"SoundDuration":436364,"Delta":3429232},{"NoteNumber":80,"Velocity":36,"Duration":218182,"SoundDuration":218182,"Delta":3647414},{"NoteNumber":87,"Velocity":37,"Duration":218182,"SoundDuration":218182,"Delta":3865596},{"NoteNumber":68,"Velocity":26,"Duration":436363,"SoundDuration":436363,"Delta":3865596},{"NoteNumber":76,"Velocity":30,"Duration":436363,"SoundDuration":436363,"Delta":3865596},{"NoteNumber":90,"Velocity":39,"Duration":218181,"SoundDuration":218181,"Delta":4083778},{"NoteNumber":80,"Velocity":47,"Duration":218181,"SoundDuration":218181,"Delta":4301960},{"NoteNumber":71,"Velocity":28,"Duration":436364,"SoundDuration":436364,"Delta":4301960},{"NoteNumber":76,"Velocity":34,"Duration":436364,"SoundDuration":436364,"Delta":4301960},{"NoteNumber":87,"Velocity":39,"Duration":218182,"SoundDuration":218182,"Delta":4520142},{"NoteNumber":92,"Velocity":39,"Duration":218181,"SoundDuration":218181,"Delta":4738324},{"NoteNumber":76,"Velocity":26,"Duration":468181,"SoundDuration":468181,"Delta":4738324},{"NoteNumber":83,"Velocity":30,"Duration":468181,"SoundDuration":468181,"Delta":4738324},{"NoteNumber":95,"Velocity":39,"Duration":250000,"SoundDuration":250000,"Delta":4956506},{"NoteNumber":80,"Velocity":47,"Duration":218181,"SoundDuration":218181,"Delta":5206506},{"NoteNumber":76,"Velocity":39,"Duration":436364,"SoundDuration":436364,"Delta":5206506},{"NoteNumber":69,"Velocity":33,"Duration":436364,"SoundDuration":436364,"Delta":5206506},{"NoteNumber":85,"Velocity":40,"Duration":218182,"SoundDuration":218182,"Delta":5424688},{"NoteNumber":92,"Velocity":40,"Duration":218181,"SoundDuration":218181,"Delta":5642870},{"NoteNumber":73,"Velocity":27,"Duration":436364,"SoundDuration":436364,"Delta":5642870},{"NoteNumber":81,"Velocity":32,"Duration":436364,"SoundDuration":436364,"Delta":5642870},{"NoteNumber":97,"Velocity":40,"Duration":218182,"SoundDuration":218182,"Delta":5861052},{"NoteNumber":92,"Velocity":45,"Duration":218181,"SoundDuration":218181,"Delta":6079234},{"NoteNumber":88,"Velocity":32,"Duration":327272,"SoundDuration":327272,"Delta":6079234},{"NoteNumber":81,"Velocity":27,"Duration":327272,"SoundDuration":327272,"Delta":6079234},{"NoteNumber":85,"Velocity":40,"Duration":218182,"SoundDuration":218182,"Delta":6297416},{"NoteNumber":62,"Velocity":26,"Duration":522884,"SoundDuration":522884,"Delta":6406507},{"NoteNumber":66,"Velocity":26,"Duration":468338,"SoundDuration":468338,"Delta":6461052},{"NoteNumber":78,"Velocity":46,"Duration":103448,"SoundDuration":103448,"Delta":6515598},{"NoteNumber":72,"Velocity":30,"Duration":413793,"SoundDuration":413793,"Delta":6515598},{"NoteNumber":84,"Velocity":40,"Duration":103448,"SoundDuration":103448,"Delta":6619046},{"NoteNumber":88,"Velocity":40,"Duration":103448,"SoundDuration":103448,"Delta":6722494},{"NoteNumber":92,"Velocity":40,"Duration":103448,"SoundDuration":103448,"Delta":6825942},{"NoteNumber":80,"Velocity":46,"Duration":218181,"SoundDuration":218181,"Delta":6929391},{"NoteNumber":76,"Velocity":38,"Duration":436364,"SoundDuration":436364,"Delta":6929391},{"NoteNumber":69,"Velocity":32,"Duration":436364,"SoundDuration":436364,"Delta":6929391},{"NoteNumber":85,"Velocity":40,"Duration":218182,"SoundDuration":218182,"Delta":7147573},{"NoteNumber":92,"Velocity":40,"Duration":218181,"SoundDuration":218181,"Delta":7365755},{"NoteNumber":73,"Velocity":28,"Duration":436364,"SoundDuration":436364,"Delta":7365755},{"NoteNumber":81,"Velocity":33,"Duration":436364,"SoundDuration":436364,"Delta":7365755},{"NoteNumber":97,"Velocity":40,"Duration":218182,"SoundDuration":218182,"Delta":7583937},{"NoteNumber":92,"Velocity":45,"Duration":218181,"SoundDuration":218181,"Delta":7802119},{"NoteNumber":88,"Velocity":32,"Duration":327272,"SoundDuration":327272,"Delta":7802119},{"NoteNumber":81,"Velocity":27,"Duration":327272,"SoundDuration":327272,"Delta":7802119},{"NoteNumber":85,"Velocity":40,"Duration":218182,"SoundDuration":218182,"Delta":8020301},{"NoteNumber":62,"Velocity":27,"Duration":525757,"SoundDuration":525757,"Delta":8129392},{"NoteNumber":66,"Velocity":27,"Duration":471212,"SoundDuration":471212,"Delta":8183937},{"NoteNumber":78,"Velocity":45,"Duration":104166,"SoundDuration":104166,"Delta":8238483},{"NoteNumber":72,"Velocity":32,"Duration":416667,"SoundDuration":416667,"Delta":8238483},{"NoteNumber":84,"Velocity":40,"Duration":104166,"SoundDuration":104166,"Delta":8342649},{"NoteNumber":88,"Velocity":40,"Duration":104166,"SoundDuration":104166,"Delta":8446816},{"NoteNumber":92,"Velocity":40,"Duration":104166,"SoundDuration":104166,"Delta":8550983},{"NoteNumber":80,"Velocity":48,"Duration":218182,"SoundDuration":218182,"Delta":8655150},{"NoteNumber":76,"Velocity":37,"Duration":436363,"SoundDuration":436363,"Delta":8655150},{"NoteNumber":69,"Velocity":31,"Duration":436363,"SoundDuration":436363,"Delta":8655150},{"NoteNumber":85,"Velocity":42,"Duration":218181,"SoundDuration":218181,"Delta":8873332},{"NoteNumber":92,"Velocity":43,"Duration":218182,"SoundDuration":218182,"Delta":9091514},{"NoteNumber":73,"Velocity":26,"Duration":436364,"SoundDuration":436364,"Delta":9091514},{"NoteNumber":81,"Velocity":30,"Duration":436364,"SoundDuration":436364,"Delta":9091514},{"NoteNumber":97,"Velocity":43,"Duration":218182,"SoundDuration":218182,"Delta":9309696},{"NoteNumber":78,"Velocity":48,"Duration":218181,"SoundDuration":218181,"Delta":9527878},{"NoteNumber":66,"Velocity":31,"Duration":436363,"SoundDuration":436363,"Delta":9527878},{"NoteNumber":72,"Velocity":37,"Duration":436363,"SoundDuration":436363,"Delta":9527878},{"NoteNumber":84,"Velocity":42,"Duration":218182,"SoundDuration":218182,"Delta":9746060},{"NoteNumber":88,"Velocity":42,"Duration":218182,"SoundDuration":218182,"Delta":9964242},{"NoteNumber":62,"Velocity":26,"Duration":434965,"SoundDuration":434965,"Delta":9964242},{"NoteNumber":69,"Velocity":30,"Duration":434965,"SoundDuration":434965,"Delta":9964242},{"NoteNumber":92,"Velocity":40,"Duration":216783,"SoundDuration":216783,"Delta":10182424},{"NoteNumber":74,"Velocity":46,"Duration":104773,"SoundDuration":104773,"Delta":10399207},{"NoteNumber":68,"Velocity":32,"Duration":416316,"SoundDuration":416316,"Delta":10399207},{"NoteNumber":58,"Velocity":27,"Duration":416316,"SoundDuration":416316,"Delta":10399207},{"NoteNumber":80,"Velocity":45,"Duration":104287,"SoundDuration":104287,"Delta":10503980},{"NoteNumber":84,"Velocity":45,"Duration":103926,"SoundDuration":103926,"Delta":10608268},{"NoteNumber":88,"Velocity":45,"Duration":103329,"SoundDuration":103329,"Delta":10712194},{"NoteNumber":85,"Velocity":47,"Duration":103092,"SoundDuration":103092,"Delta":10815524},{"NoteNumber":55,"Velocity":26,"Duration":411078,"SoundDuration":411078,"Delta":10815524},{"NoteNumber":65,"Velocity":30,"Duration":411078,"SoundDuration":411078,"Delta":10815524},{"NoteNumber":81,"Velocity":46,"Duration":102857,"SoundDuration":102857,"Delta":10918617},{"NoteNumber":77,"Velocity":45,"Duration":102739,"SoundDuration":102739,"Delta":11021474},{"NoteNumber":71,"Velocity":43,"Duration":102389,"SoundDuration":102389,"Delta":11124214},{"NoteNumber":68,"Velocity":45,"Duration":102156,"SoundDuration":102156,"Delta":11226603},{"NoteNumber":52,"Velocity":27,"Duration":408743,"SoundDuration":408743,"Delta":11226603},{"NoteNumber":62,"Velocity":32,"Duration":408743,"SoundDuration":408743,"Delta":11226603},{"NoteNumber":74,"Velocity":42,"Duration":102040,"SoundDuration":102040,"Delta":11328760},{"NoteNumber":78,"Velocity":42,"Duration":102156,"SoundDuration":102156,"Delta":11430800},{"NoteNumber":82,"Velocity":43,"Duration":102389,"SoundDuration":102389,"Delta":11532957},{"NoteNumber":79,"Velocity":46,"Duration":102388,"SoundDuration":102388,"Delta":11635346},{"NoteNumber":49,"Velocity":26,"Duration":410961,"SoundDuration":410961,"Delta":11635346},{"NoteNumber":59,"Velocity":30,"Duration":410961,"SoundDuration":410961,"Delta":11635346},{"NoteNumber":75,"Velocity":45,"Duration":102739,"SoundDuration":102739,"Delta":11737735},{"NoteNumber":71,"Velocity":43,"Duration":102739,"SoundDuration":102739,"Delta":11840475},{"NoteNumber":65,"Velocity":40,"Duration":103092,"SoundDuration":103092,"Delta":11943215},{"NoteNumber":62,"Velocity":50,"Duration":218182,"SoundDuration":218182,"Delta":12046307},{"NoteNumber":46,"Velocity":29,"Duration":1309091,"SoundDuration":1309091,"Delta":12046307},{"NoteNumber":56,"Velocity":35,"Duration":1309091,"SoundDuration":1309091,"Delta":12046307},{"NoteNumber":68,"Velocity":43,"Duration":218181,"SoundDuration":218181,"Delta":12264489},{"NoteNumber":72,"Velocity":44,"Duration":218182,"SoundDuration":218182,"Delta":12482671},{"NoteNumber":58,"Velocity":36,"Duration":654546,"SoundDuration":654546,"Delta":12482671},{"NoteNumber":68,"Velocity":44,"Duration":654546,"SoundDuration":654546,"Delta":12482671},{"NoteNumber":76,"Velocity":44,"Duration":218182,"SoundDuration":218182,"Delta":12700853},{"NoteNumber":72,"Velocity":47,"Duration":218182,"SoundDuration":218182,"Delta":12919035},{"NoteNumber":68,"Velocity":40,"Duration":218181,"SoundDuration":218181,"Delta":13137217},{"NoteNumber":65,"Velocity":46,"Duration":103806,"SoundDuration":103806,"Delta":13355399},{"NoteNumber":67,"Velocity":46,"Duration":103806,"SoundDuration":103806,"Delta":13355399},{"NoteNumber":49,"Velocity":27,"Duration":415224,"SoundDuration":415224,"Delta":13355399},{"NoteNumber":59,"Velocity":32,"Duration":415224,"SoundDuration":415224,"Delta":13355399},{"NoteNumber":71,"Velocity":40,"Duration":103806,"SoundDuration":103806,"Delta":13459206},{"NoteNumber":74,"Velocity":40,"Duration":103806,"SoundDuration":103806,"Delta":13563012},{"NoteNumber":79,"Velocity":40,"Duration":103806,"SoundDuration":103806,"Delta":13666818},{"NoteNumber":62,"Velocity":49,"Duration":218182,"SoundDuration":218182,"Delta":13770624},{"NoteNumber":46,"Velocity":28,"Duration":1309091,"SoundDuration":1309091,"Delta":13770624},{"NoteNumber":56,"Velocity":34,"Duration":1309091,"SoundDuration":1309091,"Delta":13770624},{"NoteNumber":68,"Velocity":40,"Duration":218181,"SoundDuration":218181,"Delta":13988806},{"NoteNumber":72,"Velocity":40,"Duration":218182,"SoundDuration":218182,"Delta":14206988},{"NoteNumber":58,"Velocity":34,"Duration":654546,"SoundDuration":654546,"Delta":14206988},{"NoteNumber":68,"Velocity":40,"Duration":654546,"SoundDuration":654546,"Delta":14206988},{"NoteNumber":76,"Velocity":40,"Duration":218182,"SoundDuration":218182,"Delta":14425170},{"NoteNumber":72,"Velocity":45,"Duration":218182,"SoundDuration":218182,"Delta":14643352},{"NoteNumber":68,"Velocity":40,"Duration":218181,"SoundDuration":218181,"Delta":14861534},{"NoteNumber":65,"Velocity":45,"Duration":104529,"SoundDuration":104529,"Delta":15079716},{"NoteNumber":67,"Velocity":45,"Duration":104529,"SoundDuration":104529,"Delta":15079716},{"NoteNumber":49,"Velocity":27,"Duration":418117,"SoundDuration":418117,"Delta":15079716},{"NoteNumber":59,"Velocity":32,"Duration":418117,"SoundDuration":418117,"Delta":15079716},{"NoteNumber":71,"Velocity":40,"Duration":104529,"SoundDuration":104529,"Delta":15184246},{"NoteNumber":74,"Velocity":40,"Duration":104529,"SoundDuration":104529,"Delta":15288775},{"NoteNumber":79,"Velocity":40,"Duration":104529,"SoundDuration":104529,"Delta":15393305},{"NoteNumber":62,"Velocity":47,"Duration":217391,"SoundDuration":217391,"Delta":15497834},{"NoteNumber":46,"Velocity":28,"Duration":1745620,"SoundDuration":1745620,"Delta":15497834},{"NoteNumber":56,"Velocity":33,"Duration":1745620,"SoundDuration":1745620,"Delta":15497834},{"NoteNumber":68,"Velocity":40,"Duration":217391,"SoundDuration":217391,"Delta":15715226},{"NoteNumber":72,"Velocity":40,"Duration":217391,"SoundDuration":217391,"Delta":15932617},{"NoteNumber":58,"Velocity":37,"Duration":869565,"SoundDuration":869565,"Delta":15932617},{"NoteNumber":68,"Velocity":46,"Duration":869565,"SoundDuration":869565,"Delta":15932617},{"NoteNumber":76,"Velocity":40,"Duration":217391,"SoundDuration":217391,"Delta":16150009},{"NoteNumber":72,"Velocity":47,"Duration":217391,"SoundDuration":217391,"Delta":16367400},{"NoteNumber":68,"Velocity":40,"Duration":217391,"SoundDuration":217391,"Delta":16584792},{"NoteNumber":62,"Velocity":40,"Duration":217391,"SoundDuration":217391,"Delta":16802183},{"NoteNumber":58,"Velocity":36,"Duration":872927,"SoundDuration":872927,"Delta":16802183},{"NoteNumber":68,"Velocity":44,"Duration":872927,"SoundDuration":872927,"Delta":16802183},{"NoteNumber":64,"Velocity":40,"Duration":223880,"SoundDuration":223880,"Delta":17019575},{"NoteNumber":62,"Velocity":45,"Duration":107913,"SoundDuration":107913,"Delta":17243455},{"NoteNumber":60,"Velocity":37,"Duration":107913,"SoundDuration":107913,"Delta":17351369},{"NoteNumber":62,"Velocity":37,"Duration":107913,"SoundDuration":107913,"Delta":17459283},{"NoteNumber":64,"Velocity":37,"Duration":107913,"SoundDuration":107913,"Delta":17567197},{"NoteNumber":56,"Velocity":37,"Duration":431654,"SoundDuration":431654,"Delta":17675110},{"NoteNumber":60,"Velocity":37,"Duration":431654,"SoundDuration":431654,"Delta":17675110},{"NoteNumber":66,"Velocity":46,"Duration":431654,"SoundDuration":431654,"Delta":17675110},{"NoteNumber":68,"Velocity":37,"Duration":107913,"SoundDuration":107913,"Delta":17783024},{"NoteNumber":70,"Velocity":38,"Duration":107913,"SoundDuration":107913,"Delta":17890938},{"NoteNumber":72,"Velocity":39,"Duration":107913,"SoundDuration":107913,"Delta":17998852},{"NoteNumber":74,"Velocity":40,"Duration":107913,"SoundDuration":107913,"Delta":18106765},{"NoteNumber":64,"Velocity":44,"Duration":431655,"SoundDuration":431655,"Delta":18106765},{"NoteNumber":54,"Velocity":36,"Duration":431655,"SoundDuration":431655,"Delta":18106765},{"NoteNumber":58,"Velocity":36,"Duration":431655,"SoundDuration":431655,"Delta":18106765},{"NoteNumber":76,"Velocity":42,"Duration":107913,"SoundDuration":107913,"Delta":18214679},{"NoteNumber":78,"Velocity":44,"Duration":107913,"SoundDuration":107913,"Delta":18322593},{"NoteNumber":80,"Velocity":45,"Duration":53956,"SoundDuration":53956,"Delta":18430507},{"NoteNumber":83,"Velocity":39,"Duration":53956,"SoundDuration":53956,"Delta":18484464},{"NoteNumber":79,"Velocity":33,"Duration":53956,"SoundDuration":53956,"Delta":18484464},{"NoteNumber":71,"Velocity":44,"Duration":53956,"SoundDuration":53956,"Delta":18538420},{"NoteNumber":53,"Velocity":34,"Duration":431654,"SoundDuration":431654,"Delta":18538420},{"NoteNumber":57,"Velocity":34,"Duration":431654,"SoundDuration":431654,"Delta":18538420},{"NoteNumber":63,"Velocity":40,"Duration":431654,"SoundDuration":431654,"Delta":18538420},{"NoteNumber":73,"Velocity":43,"Duration":53956,"SoundDuration":53956,"Delta":18592377},{"NoteNumber":75,"Velocity":43,"Duration":53956,"SoundDuration":53956,"Delta":18646334},{"NoteNumber":77,"Velocity":42,"Duration":53956,"SoundDuration":53956,"Delta":18700291},{"NoteNumber":79,"Velocity":40,"Duration":53956,"SoundDuration":53956,"Delta":18754248},{"NoteNumber":81,"Velocity":40,"Duration":53956,"SoundDuration":53956,"Delta":18808205},{"NoteNumber":83,"Velocity":39,"Duration":53956,"SoundDuration":53956,"Delta":18862162},{"NoteNumber":85,"Velocity":38,"Duration":26978,"SoundDuration":26978,"Delta":18916119},{"NoteNumber":87,"Velocity":37,"Duration":26978,"SoundDuration":26978,"Delta":18943097},{"NoteNumber":80,"Velocity":35,"Duration":26978,"SoundDuration":26978,"Delta":18943097},{"NoteNumber":75,"Velocity":43,"Duration":217391,"SoundDuration":217391,"Delta":18970075},{"NoteNumber":40,"Velocity":28,"Duration":434782,"SoundDuration":434782,"Delta":18970075},{"NoteNumber":56,"Velocity":34,"Duration":434782,"SoundDuration":434782,"Delta":18970075},{"NoteNumber":47,"Velocity":28,"Duration":434782,"SoundDuration":434782,"Delta":18970075},{"NoteNumber":80,"Velocity":37,"Duration":217391,"SoundDuration":217391,"Delta":19187467},{"NoteNumber":87,"Velocity":37,"Duration":217391,"SoundDuration":217391,"Delta":19404858},{"NoteNumber":64,"Velocity":26,"Duration":434782,"SoundDuration":434782,"Delta":19404858},{"NoteNumber":71,"Velocity":30,"Duration":434782,"SoundDuration":434782,"Delta":19404858},{"NoteNumber":90,"Velocity":37,"Duration":217391,"SoundDuration":217391,"Delta":19622250},{"NoteNumber":87,"Velocity":40,"Duration":217391,"SoundDuration":217391,"Delta":19839641},{"NoteNumber":68,"Velocity":26,"Duration":434783,"SoundDuration":434783,"Delta":19839641},{"NoteNumber":75,"Velocity":30,"Duration":434783,"SoundDuration":434783,"Delta":19839641},{"NoteNumber":63,"Velocity":26,"Duration":434783,"SoundDuration":434783,"Delta":19839641},{"NoteNumber":80,"Velocity":34,"Duration":217391,"SoundDuration":217391,"Delta":20057033},{"NoteNumber":73,"Velocity":42,"Duration":102040,"SoundDuration":102040,"Delta":20274424},{"NoteNumber":57,"Velocity":26,"Duration":408162,"SoundDuration":408162,"Delta":20274424},{"NoteNumber":64,"Velocity":30,"Duration":408162,"SoundDuration":408162,"Delta":20274424},{"NoteNumber":80,"Velocity":37,"Duration":102040,"SoundDuration":102040,"Delta":20376465},{"NoteNumber":85,"Velocity":37,"Duration":102040,"SoundDuration":102040,"Delta":20478506},{"NoteNumber":88,"Velocity":37,"Duration":102040,"SoundDuration":102040,"Delta":20580547},{"NoteNumber":75,"Velocity":42,"Duration":217391,"SoundDuration":217391,"Delta":20682587},{"NoteNumber":59,"Velocity":28,"Duration":434782,"SoundDuration":434782,"Delta":20682587},{"NoteNumber":68,"Velocity":34,"Duration":434782,"SoundDuration":434782,"Delta":20682587},{"NoteNumber":52,"Velocity":28,"Duration":434782,"SoundDuration":434782,"Delta":20682587},{"NoteNumber":80,"Velocity":37,"Duration":217391,"SoundDuration":217391,"Delta":20899979},{"NoteNumber":87,"Velocity":37,"Duration":217391,"SoundDuration":217391,"Delta":21117370},{"NoteNumber":64,"Velocity":26,"Duration":434782,"SoundDuration":434782,"Delta":21117370},{"NoteNumber":71,"Velocity":31,"Duration":434782,"SoundDuration":434782,"Delta":21117370},{"NoteNumber":90,"Velocity":37,"Duration":217391,"SoundDuration":217391,"Delta":21334762},{"NoteNumber":87,"Velocity":40,"Duration":217391,"SoundDuration":217391,"Delta":21552153},{"NoteNumber":68,"Velocity":26,"Duration":434782,"SoundDuration":434782,"Delta":21552153},{"NoteNumber":75,"Velocity":31,"Duration":434782,"SoundDuration":434782,"Delta":21552153},{"NoteNumber":63,"Velocity":26,"Duration":434782,"SoundDuration":434782,"Delta":21552153},{"NoteNumber":80,"Velocity":34,"Duration":217391,"SoundDuration":217391,"Delta":21769545},{"NoteNumber":73,"Velocity":40,"Duration":103092,"SoundDuration":103092,"Delta":21986936},{"NoteNumber":57,"Velocity":26,"Duration":412371,"SoundDuration":412371,"Delta":21986936},{"NoteNumber":64,"Velocity":31,"Duration":412371,"SoundDuration":412371,"Delta":21986936},{"NoteNumber":80,"Velocity":37,"Duration":103092,"SoundDuration":103092,"Delta":22090029},{"NoteNumber":85,"Velocity":37,"Duration":103092,"SoundDuration":103092,"Delta":22193122},{"NoteNumber":88,"Velocity":37,"Duration":103092,"SoundDuration":103092,"Delta":22296215},{"NoteNumber":75,"Velocity":43,"Duration":218181,"SoundDuration":218181,"Delta":22399307},{"NoteNumber":59,"Velocity":28,"Duration":436364,"SoundDuration":436364,"Delta":22399307},{"NoteNumber":68,"Velocity":34,"Duration":436364,"SoundDuration":436364,"Delta":22399307},{"NoteNumber":52,"Velocity":28,"Duration":436364,"SoundDuration":436364,"Delta":22399307},{"NoteNumber":80,"Velocity":36,"Duration":218182,"SoundDuration":218182,"Delta":22617489},{"NoteNumber":87,"Velocity":37,"Duration":218181,"SoundDuration":218181,"Delta":22835671},{"NoteNumber":64,"Velocity":26,"Duration":436363,"SoundDuration":436363,"Delta":22835671},{"NoteNumber":71,"Velocity":30,"Duration":436363,"SoundDuration":436363,"Delta":22835671},{"NoteNumber":90,"Velocity":39,"Duration":218181,"SoundDuration":218181,"Delta":23053853},{"NoteNumber":80,"Velocity":47,"Duration":218182,"SoundDuration":218182,"Delta":23272035},{"NoteNumber":68,"Velocity":28,"Duration":436364,"SoundDuration":436364,"Delta":23272035},{"NoteNumber":63,"Velocity":28,"Duration":436364,"SoundDuration":436364,"Delta":23272035},{"NoteNumber":75,"Velocity":34,"Duration":436364,"SoundDuration":436364,"Delta":23272035},{"NoteNumber":87,"Velocity":39,"Duration":218181,"SoundDuration":218181,"Delta":23490217},{"NoteNumber":92,"Velocity":39,"Duration":218181,"SoundDuration":218181,"Delta":23708399},{"NoteNumber":76,"Velocity":26,"Duration":429449,"SoundDuration":429449,"Delta":23708399},{"NoteNumber":71,"Velocity":26,"Duration":429449,"SoundDuration":429449,"Delta":23708399},{"NoteNumber":83,"Velocity":30,"Duration":429449,"SoundDuration":429449,"Delta":23708399},{"NoteNumber":95,"Velocity":39,"Duration":211267,"SoundDuration":211267,"Delta":23926581},{"NoteNumber":88,"Velocity":53,"Duration":209058,"SoundDuration":209058,"Delta":24137849},{"NoteNumber":80,"Velocity":43,"Duration":418117,"SoundDuration":418117,"Delta":24137849},{"NoteNumber":73,"Velocity":35,"Duration":418117,"SoundDuration":418117,"Delta":24137849},{"NoteNumber":83,"Velocity":47,"Duration":209058,"SoundDuration":209058,"Delta":24346908},{"NoteNumber":76,"Velocity":47,"Duration":209058,"SoundDuration":209058,"Delta":24555967},{"NoteNumber":80,"Velocity":32,"Duration":418117,"SoundDuration":418117,"Delta":24555967},{"NoteNumber":85,"Velocity":37,"Duration":418117,"SoundDuration":418117,"Delta":24555967},{"NoteNumber":71,"Velocity":47,"Duration":209058,"SoundDuration":209058,"Delta":24765026},{"NoteNumber":81,"Velocity":51,"Duration":209058,"SoundDuration":209058,"Delta":24974085},{"NoteNumber":73,"Velocity":37,"Duration":418117,"SoundDuration":418117,"Delta":24974085},{"NoteNumber":66,"Velocity":32,"Duration":418117,"SoundDuration":418117,"Delta":24974085},{"NoteNumber":76,"Velocity":43,"Duration":209058,"SoundDuration":209058,"Delta":25183144},{"NoteNumber":69,"Velocity":52,"Duration":100671,"SoundDuration":100671,"Delta":25392203},{"NoteNumber":73,"Velocity":32,"Duration":402685,"SoundDuration":402685,"Delta":25392203},{"NoteNumber":78,"Velocity":37,"Duration":402685,"SoundDuration":402685,"Delta":25392203},{"NoteNumber":64,"Velocity":47,"Duration":100671,"SoundDuration":100671,"Delta":25492874},{"NoteNumber":69,"Velocity":47,"Duration":100671,"SoundDuration":100671,"Delta":25593545},{"NoteNumber":76,"Velocity":47,"Duration":100671,"SoundDuration":100671,"Delta":25694217},{"NoteNumber":88,"Velocity":52,"Duration":209058,"SoundDuration":209058,"Delta":25794888},{"NoteNumber":80,"Velocity":43,"Duration":418117,"SoundDuration":418117,"Delta":25794888},{"NoteNumber":73,"Velocity":35,"Duration":418117,"SoundDuration":418117,"Delta":25794888},{"NoteNumber":83,"Velocity":47,"Duration":209058,"SoundDuration":209058,"Delta":26003947},{"NoteNumber":76,"Velocity":47,"Duration":209058,"SoundDuration":209058,"Delta":26213006},{"NoteNumber":80,"Velocity":32,"Duration":418117,"SoundDuration":418117,"Delta":26213006},{"NoteNumber":85,"Velocity":38,"Duration":418117,"SoundDuration":418117,"Delta":26213006},{"NoteNumber":71,"Velocity":47,"Duration":209058,"SoundDuration":209058,"Delta":26422065},{"NoteNumber":81,"Velocity":51,"Duration":209058,"SoundDuration":209058,"Delta":26631124},{"NoteNumber":73,"Velocity":38,"Duration":418117,"SoundDuration":418117,"Delta":26631124},{"NoteNumber":66,"Velocity":32,"Duration":418117,"SoundDuration":418117,"Delta":26631124},{"NoteNumber":76,"Velocity":43,"Duration":209058,"SoundDuration":209058,"Delta":26840183},{"NoteNumber":69,"Velocity":51,"Duration":101009,"SoundDuration":101009,"Delta":27049242},{"NoteNumber":73,"Velocity":32,"Duration":404039,"SoundDuration":404039,"Delta":27049242},{"NoteNumber":78,"Velocity":38,"Duration":404039,"SoundDuration":404039,"Delta":27049242},{"NoteNumber":64,"Velocity":47,"Duration":101010,"SoundDuration":101010,"Delta":27150252},{"NoteNumber":69,"Velocity":47,"Duration":101009,"SoundDuration":101009,"Delta":27251262},{"NoteNumber":76,"Velocity":47,"Duration":101009,"SoundDuration":101009,"Delta":27352272},{"NoteNumber":88,"Velocity":53,"Duration":209058,"SoundDuration":209058,"Delta":27453282},{"NoteNumber":80,"Velocity":43,"Duration":418117,"SoundDuration":418117,"Delta":27453282},{"NoteNumber":73,"Velocity":35,"Duration":418117,"SoundDuration":418117,"Delta":27453282},{"NoteNumber":83,"Velocity":47,"Duration":209058,"SoundDuration":209058,"Delta":27662341},{"NoteNumber":76,"Velocity":47,"Duration":209058,"SoundDuration":209058,"Delta":27871400},{"NoteNumber":80,"Velocity":32,"Duration":418117,"SoundDuration":418117,"Delta":27871400},{"NoteNumber":85,"Velocity":37,"Duration":418117,"SoundDuration":418117,"Delta":27871400},{"NoteNumber":71,"Velocity":47,"Duration":209058,"SoundDuration":209058,"Delta":28080459},{"NoteNumber":81,"Velocity":51,"Duration":209058,"SoundDuration":209058,"Delta":28289518},{"NoteNumber":73,"Velocity":42,"Duration":418117,"SoundDuration":418117,"Delta":28289518},{"NoteNumber":66,"Velocity":35,"Duration":418117,"SoundDuration":418117,"Delta":28289518},{"NoteNumber":76,"Velocity":43,"Duration":209058,"SoundDuration":209058,"Delta":28498577},{"NoteNumber":69,"Velocity":52,"Duration":201342,"SoundDuration":201342,"Delta":28707636},{"NoteNumber":73,"Velocity":32,"Duration":402685,"SoundDuration":402685,"Delta":28707636},{"NoteNumber":78,"Velocity":37,"Duration":402685,"SoundDuration":402685,"Delta":28707636},{"NoteNumber":64,"Velocity":48,"Duration":201342,"SoundDuration":201342,"Delta":28908978},{"NoteNumber":66,"Velocity":56,"Duration":201342,"SoundDuration":201342,"Delta":29110321},{"NoteNumber":57,"Velocity":34,"Duration":201342,"SoundDuration":201342,"Delta":29110321},{"NoteNumber":63,"Velocity":40,"Duration":201342,"SoundDuration":201342,"Delta":29110321},{"NoteNumber":68,"Velocity":49,"Duration":201342,"SoundDuration":201342,"Delta":29311663},{"NoteNumber":73,"Velocity":50,"Duration":201342,"SoundDuration":201342,"Delta":29513006},{"NoteNumber":63,"Velocity":40,"Duration":805369,"SoundDuration":805369,"Delta":29513006},{"NoteNumber":69,"Velocity":48,"Duration":805369,"SoundDuration":805369,"Delta":29513006},{"NoteNumber":78,"Velocity":50,"Duration":201342,"SoundDuration":201342,"Delta":29714348},{"NoteNumber":68,"Velocity":57,"Duration":201342,"SoundDuration":201342,"Delta":29915691},{"NoteNumber":73,"Velocity":50,"Duration":201342,"SoundDuration":201342,"Delta":30117033},{"NoteNumber":78,"Velocity":50,"Duration":201342,"SoundDuration":201342,"Delta":30318376},{"NoteNumber":63,"Velocity":37,"Duration":402685,"SoundDuration":402685,"Delta":30318376},{"NoteNumber":66,"Velocity":37,"Duration":402685,"SoundDuration":402685,"Delta":30318376},{"NoteNumber":75,"Velocity":45,"Duration":402685,"SoundDuration":402685,"Delta":30318376},{"NoteNumber":85,"Velocity":50,"Duration":201342,"SoundDuration":201342,"Delta":30519718},{"NoteNumber":56,"Velocity":51,"Duration":418117,"SoundDuration":418117,"Delta":30721061},{"NoteNumber":49,"Velocity":51,"Duration":418117,"SoundDuration":418117,"Delta":30721061},{"NoteNumber":73,"Velocity":52,"Duration":209058,"SoundDuration":209058,"Delta":30930120},{"NoteNumber":80,"Velocity":52,"Duration":209058,"SoundDuration":209058,"Delta":30930120},{"NoteNumber":85,"Velocity":52,"Duration":209058,"SoundDuration":209058,"Delta":31139179},{"NoteNumber":92,"Velocity":52,"Duration":209058,"SoundDuration":209058,"Delta":31139179},{"NoteNumber":61,"Velocity":36,"Duration":418117,"SoundDuration":418117,"Delta":31139179},{"NoteNumber":68,"Velocity":43,"Duration":418117,"SoundDuration":418117,"Delta":31139179},{"NoteNumber":73,"Velocity":52,"Duration":209058,"SoundDuration":209058,"Delta":31348238},{"NoteNumber":80,"Velocity":52,"Duration":209058,"SoundDuration":209058,"Delta":31348238},{"NoteNumber":68,"Velocity":50,"Duration":394736,"SoundDuration":394736,"Delta":31557297},{"NoteNumber":61,"Velocity":50,"Duration":394736,"SoundDuration":394736,"Delta":31557297},{"NoteNumber":85,"Velocity":65,"Duration":98684,"SoundDuration":98684,"Delta":31655981},{"NoteNumber":92,"Velocity":69,"Duration":98684,"SoundDuration":98684,"Delta":31754665},{"NoteNumber":97,"Velocity":69,"Duration":98684,"SoundDuration":98684,"Delta":31853350},{"NoteNumber":104,"Velocity":75,"Duration":98684,"SoundDuration":98684,"Delta":31952034},{"NoteNumber":73,"Velocity":36,"Duration":394736,"SoundDuration":394736,"Delta":31952034},{"NoteNumber":80,"Velocity":43,"Duration":394736,"SoundDuration":394736,"Delta":31952034},{"NoteNumber":97,"Velocity":69,"Duration":98684,"SoundDuration":98684,"Delta":32050718},{"NoteNumber":92,"Velocity":69,"Duration":98684,"SoundDuration":98684,"Delta":32149402},{"NoteNumber":85,"Velocity":66,"Duration":98684,"SoundDuration":98684,"Delta":32248087},{"NoteNumber":74,"Velocity":51,"Duration":418117,"SoundDuration":418117,"Delta":32346771},{"NoteNumber":69,"Velocity":51,"Duration":418117,"SoundDuration":418117,"Delta":32346771},{"NoteNumber":78,"Velocity":52,"Duration":139372,"SoundDuration":139372,"Delta":32486144},{"NoteNumber":80,"Velocity":55,"Duration":139372,"SoundDuration":139372,"Delta":32625516},{"NoteNumber":85,"Velocity":60,"Duration":139372,"SoundDuration":139372,"Delta":32764889},{"NoteNumber":74,"Velocity":36,"Duration":418117,"SoundDuration":418117,"Delta":32764889},{"NoteNumber":81,"Velocity":43,"Duration":418117,"SoundDuration":418117,"Delta":32764889},{"NoteNumber":90,"Velocity":55,"Duration":139372,"SoundDuration":139372,"Delta":32904262},{"NoteNumber":85,"Velocity":55,"Duration":139372,"SoundDuration":139372,"Delta":33043634},{"NoteNumber":80,"Velocity":63,"Duration":101010,"SoundDuration":101010,"Delta":33183007},{"NoteNumber":81,"Velocity":50,"Duration":404040,"SoundDuration":404040,"Delta":33183007},{"NoteNumber":74,"Velocity":50,"Duration":404040,"SoundDuration":404040,"Delta":33183007},{"NoteNumber":85,"Velocity":57,"Duration":101009,"SoundDuration":101009,"Delta":33284017},{"NoteNumber":80,"Velocity":59,"Duration":101010,"SoundDuration":101010,"Delta":33385027},{"NoteNumber":85,"Velocity":58,"Duration":101010,"SoundDuration":101010,"Delta":33486037},{"NoteNumber":90,"Velocity":70,"Duration":98684,"SoundDuration":98684,"Delta":33587047},{"NoteNumber":78,"Velocity":36,"Duration":394736,"SoundDuration":394736,"Delta":33587047},{"NoteNumber":86,"Velocity":43,"Duration":394736,"SoundDuration":394736,"Delta":33587047},{"NoteNumber":97,"Velocity":65,"Duration":98684,"SoundDuration":98684,"Delta":33685731},{"NoteNumber":90,"Velocity":70,"Duration":98684,"SoundDuration":98684,"Delta":33784415},{"NoteNumber":97,"Velocity":63,"Duration":98684,"SoundDuration":98684,"Delta":33883100},{"NoteNumber":68,"Velocity":51,"Duration":418117,"SoundDuration":418117,"Delta":33981784},{"NoteNumber":61,"Velocity":51,"Duration":418117,"SoundDuration":418117,"Delta":33981784},{"NoteNumber":73,"Velocity":52,"Duration":209058,"SoundDuration":209058,"Delta":34190843},{"NoteNumber":80,"Velocity":52,"Duration":209058,"SoundDuration":209058,"Delta":34190843},{"NoteNumber":85,"Velocity":52,"Duration":209059,"SoundDuration":209059,"Delta":34399902},{"NoteNumber":92,"Velocity":52,"Duration":209059,"SoundDuration":209059,"Delta":34399902},{"NoteNumber":68,"Velocity":36,"Duration":418117,"SoundDuration":418117,"Delta":34399902},{"NoteNumber":73,"Velocity":43,"Duration":418117,"SoundDuration":418117,"Delta":34399902},{"NoteNumber":73,"Velocity":52,"Duration":209058,"SoundDuration":209058,"Delta":34608961},{"NoteNumber":80,"Velocity":52,"Duration":209058,"SoundDuration":209058,"Delta":34608961},{"NoteNumber":73,"Velocity":49,"Duration":392156,"SoundDuration":392156,"Delta":34818020},{"NoteNumber":80,"Velocity":58,"Duration":392156,"SoundDuration":392156,"Delta":34818020},{"NoteNumber":74,"Velocity":61,"Duration":98039,"SoundDuration":98039,"Delta":34916059},{"NoteNumber":81,"Velocity":61,"Duration":98039,"SoundDuration":98039,"Delta":35014098},{"NoteNumber":86,"Velocity":63,"Duration":98039,"SoundDuration":98039,"Delta":35112138},{"NoteNumber":93,"Velocity":72,"Duration":98039,"SoundDuration":98039,"Delta":35210177},{"NoteNumber":71,"Velocity":36,"Duration":392157,"SoundDuration":392157,"Delta":35210177},{"NoteNumber":78,"Velocity":44,"Duration":392157,"SoundDuration":392157,"Delta":35210177},{"NoteNumber":86,"Velocity":65,"Duration":98039,"SoundDuration":98039,"Delta":35308216},{"NoteNumber":81,"Velocity":66,"Duration":98039,"SoundDuration":98039,"Delta":35406255},{"NoteNumber":74,"Velocity":64,"Duration":98039,"SoundDuration":98039,"Delta":35504295},{"NoteNumber":61,"Velocity":44,"Duration":408163,"SoundDuration":408163,"Delta":35602334},{"NoteNumber":68,"Velocity":52,"Duration":408163,"SoundDuration":408163,"Delta":35602334},{"NoteNumber":80,"Velocity":73,"Duration":204081,"SoundDuration":204081,"Delta":35806415},{"NoteNumber":85,"Velocity":73,"Duration":204081,"SoundDuration":204081,"Delta":35806415},{"NoteNumber":97,"Velocity":79,"Duration":204081,"SoundDuration":204081,"Delta":36010497},{"NoteNumber":92,"Velocity":79,"Duration":204081,"SoundDuration":204081,"Delta":36010497},{"NoteNumber":68,"Velocity":47,"Duration":408162,"SoundDuration":408162,"Delta":36010497},{"NoteNumber":73,"Velocity":56,"Duration":408162,"SoundDuration":408162,"Delta":36010497},{"NoteNumber":80,"Velocity":76,"Duration":204081,"SoundDuration":204081,"Delta":36214578},{"NoteNumber":85,"Velocity":76,"Duration":204081,"SoundDuration":204081,"Delta":36214578},{"NoteNumber":80,"Velocity":57,"Duration":393442,"SoundDuration":393442,"Delta":36418660},{"NoteNumber":85,"Velocity":67,"Duration":393442,"SoundDuration":393442,"Delta":36418660},{"NoteNumber":81,"Velocity":69,"Duration":98360,"SoundDuration":98360,"Delta":36517021},{"NoteNumber":86,"Velocity":72,"Duration":98360,"SoundDuration":98360,"Delta":36615381},{"NoteNumber":93,"Velocity":74,"Duration":98360,"SoundDuration":98360,"Delta":36713742},{"NoteNumber":98,"Velocity":82,"Duration":98360,"SoundDuration":98360,"Delta":36812103},{"NoteNumber":78,"Velocity":44,"Duration":393443,"SoundDuration":393443,"Delta":36812103},{"NoteNumber":83,"Velocity":53,"Duration":393443,"SoundDuration":393443,"Delta":36812103},{"NoteNumber":93,"Velocity":74,"Duration":98360,"SoundDuration":98360,"Delta":36910464},{"NoteNumber":86,"Velocity":75,"Duration":98360,"SoundDuration":98360,"Delta":37008824},{"NoteNumber":81,"Velocity":73,"Duration":98360,"SoundDuration":98360,"Delta":37107185},{"NoteNumber":73,"Velocity":55,"Duration":405405,"SoundDuration":405405,"Delta":37205546},{"NoteNumber":80,"Velocity":66,"Duration":405405,"SoundDuration":405405,"Delta":37205546},{"NoteNumber":85,"Velocity":81,"Duration":202702,"SoundDuration":202702,"Delta":37408248},{"NoteNumber":92,"Velocity":81,"Duration":202702,"SoundDuration":202702,"Delta":37408248},{"NoteNumber":104,"Velocity":88,"Duration":202702,"SoundDuration":202702,"Delta":37610951},{"NoteNumber":97,"Velocity":88,"Duration":202702,"SoundDuration":202702,"Delta":37610951},{"NoteNumber":80,"Velocity":57,"Duration":405405,"SoundDuration":405405,"Delta":37610951},{"NoteNumber":85,"Velocity":69,"Duration":405405,"SoundDuration":405405,"Delta":37610951},{"NoteNumber":85,"Velocity":82,"Duration":202702,"SoundDuration":202702,"Delta":37813653},{"NoteNumber":92,"Velocity":82,"Duration":202702,"SoundDuration":202702,"Delta":37813653},{"NoteNumber":85,"Velocity":73,"Duration":370370,"SoundDuration":370370,"Delta":38016356},{"NoteNumber":92,"Velocity":88,"Duration":370370,"SoundDuration":370370,"Delta":38016356},{"NoteNumber":86,"Velocity":73,"Duration":92592,"SoundDuration":92592,"Delta":38108948},{"NoteNumber":93,"Velocity":76,"Duration":92592,"SoundDuration":92592,"Delta":38201541},{"NoteNumber":98,"Velocity":75,"Duration":92592,"SoundDuration":92592,"Delta":38294133},{"NoteNumber":105,"Velocity":85,"Duration":92592,"SoundDuration":92592,"Delta":38386726},{"NoteNumber":83,"Velocity":60,"Duration":377115,"SoundDuration":377115,"Delta":38386726},{"NoteNumber":90,"Velocity":72,"Duration":377115,"SoundDuration":377115,"Delta":38386726},{"NoteNumber":98,"Velocity":77,"Duration":92592,"SoundDuration":92592,"Delta":38479318},{"NoteNumber":93,"Velocity":76,"Duration":92592,"SoundDuration":92592,"Delta":38571911},{"NoteNumber":86,"Velocity":76,"Duration":99337,"SoundDuration":99337,"Delta":38664503},{"NoteNumber":80,"Velocity":67,"Duration":370370,"SoundDuration":370370,"Delta":38763841},{"NoteNumber":85,"Velocity":78,"Duration":370370,"SoundDuration":370370,"Delta":38763841},{"NoteNumber":81,"Velocity":72,"Duration":92592,"SoundDuration":92592,"Delta":38856434},{"NoteNumber":86,"Velocity":72,"Duration":92592,"SoundDuration":92592,"Delta":38949026},{"NoteNumber":93,"Velocity":72,"Duration":92592,"SoundDuration":92592,"Delta":39041619},{"NoteNumber":98,"Velocity":80,"Duration":92592,"SoundDuration":92592,"Delta":39134211},{"NoteNumber":78,"Velocity":53,"Duration":376138,"SoundDuration":376138,"Delta":39134211},{"NoteNumber":83,"Velocity":64,"Duration":376138,"SoundDuration":376138,"Delta":39134211},{"NoteNumber":93,"Velocity":73,"Duration":92592,"SoundDuration":92592,"Delta":39226804},{"NoteNumber":86,"Velocity":73,"Duration":92592,"SoundDuration":92592,"Delta":39319396},{"NoteNumber":81,"Velocity":72,"Duration":98360,"SoundDuration":98360,"Delta":39411989},{"NoteNumber":73,"Velocity":61,"Duration":373832,"SoundDuration":373832,"Delta":39510349},{"NoteNumber":80,"Velocity":73,"Duration":373832,"SoundDuration":373832,"Delta":39510349},{"NoteNumber":74,"Velocity":66,"Duration":93457,"SoundDuration":93457,"Delta":39603807},{"NoteNumber":81,"Velocity":68,"Duration":93458,"SoundDuration":93458,"Delta":39697265},{"NoteNumber":86,"Velocity":68,"Duration":93457,"SoundDuration":93457,"Delta":39790723},{"NoteNumber":93,"Velocity":76,"Duration":93457,"SoundDuration":93457,"Delta":39884181},{"NoteNumber":71,"Velocity":50,"Duration":373832,"SoundDuration":373832,"Delta":39884181},{"NoteNumber":78,"Velocity":58,"Duration":373832,"SoundDuration":373832,"Delta":39884181},{"NoteNumber":86,"Velocity":69,"Duration":93457,"SoundDuration":93457,"Delta":39977639},{"NoteNumber":81,"Velocity":68,"Duration":93458,"SoundDuration":93458,"Delta":40071097},{"NoteNumber":74,"Velocity":68,"Duration":93457,"SoundDuration":93457,"Delta":40164555},{"NoteNumber":68,"Velocity":54,"Duration":385237,"SoundDuration":385237,"Delta":40258013},{"NoteNumber":73,"Velocity":64,"Duration":385237,"SoundDuration":385237,"Delta":40258013},{"NoteNumber":69,"Velocity":61,"Duration":96153,"SoundDuration":96153,"Delta":40353860},{"NoteNumber":74,"Velocity":64,"Duration":96462,"SoundDuration":96462,"Delta":40450014},{"NoteNumber":81,"Velocity":64,"Duration":96774,"SoundDuration":96774,"Delta":40546477},{"NoteNumber":86,"Velocity":72,"Duration":97087,"SoundDuration":97087,"Delta":40643251},{"NoteNumber":66,"Velocity":42,"Duration":390249,"SoundDuration":390249,"Delta":40643251},{"NoteNumber":71,"Velocity":50,"Duration":390249,"SoundDuration":390249,"Delta":40643251},{"NoteNumber":81,"Velocity":65,"Duration":97402,"SoundDuration":97402,"Delta":40740339},{"NoteNumber":74,"Velocity":65,"Duration":97719,"SoundDuration":97719,"Delta":40837741},{"NoteNumber":69,"Velocity":64,"Duration":98039,"SoundDuration":98039,"Delta":40935461},{"NoteNumber":37,"Velocity":68,"Duration":1561596,"SoundDuration":1561596,"Delta":41033500},{"NoteNumber":44,"Velocity":68,"Duration":1561596,"SoundDuration":1561596,"Delta":41033500},{"NoteNumber":68,"Velocity":58,"Duration":134679,"SoundDuration":134679,"Delta":41168180},{"NoteNumber":73,"Velocity":58,"Duration":134679,"SoundDuration":134679,"Delta":41168180},{"NoteNumber":80,"Velocity":64,"Duration":134680,"SoundDuration":134680,"Delta":41302860},{"NoteNumber":71,"Velocity":57,"Duration":96462,"SoundDuration":96462,"Delta":41437540},{"NoteNumber":68,"Velocity":57,"Duration":128617,"SoundDuration":128617,"Delta":41566158},{"NoteNumber":73,"Velocity":57,"Duration":128617,"SoundDuration":128617,"Delta":41566158},{"NoteNumber":80,"Velocity":64,"Duration":128617,"SoundDuration":128617,"Delta":41694775},{"NoteNumber":68,"Velocity":57,"Duration":96462,"SoundDuration":96462,"Delta":41823392},{"NoteNumber":68,"Velocity":58,"Duration":128617,"SoundDuration":128617,"Delta":41952010},{"NoteNumber":73,"Velocity":58,"Duration":128617,"SoundDuration":128617,"Delta":41952010},{"NoteNumber":80,"Velocity":64,"Duration":128617,"SoundDuration":128617,"Delta":42080627},{"NoteNumber":66,"Velocity":57,"Duration":96462,"SoundDuration":96462,"Delta":42209244},{"NoteNumber":68,"Velocity":58,"Duration":128617,"SoundDuration":128617,"Delta":42337862},{"NoteNumber":73,"Velocity":58,"Duration":128617,"SoundDuration":128617,"Delta":42337862},{"NoteNumber":80,"Velocity":64,"Duration":128617,"SoundDuration":128617,"Delta":42466479},{"NoteNumber":68,"Velocity":64,"Duration":98684,"SoundDuration":98684,"Delta":42595096},{"NoteNumber":68,"Velocity":58,"Duration":131578,"SoundDuration":131578,"Delta":42726675},{"NoteNumber":73,"Velocity":58,"Duration":131578,"SoundDuration":131578,"Delta":42726675},{"NoteNumber":80,"Velocity":64,"Duration":131579,"SoundDuration":131579,"Delta":42858254},{"NoteNumber":71,"Velocity":55,"Duration":96462,"SoundDuration":96462,"Delta":42989833},{"NoteNumber":68,"Velocity":58,"Duration":128617,"SoundDuration":128617,"Delta":43118451},{"NoteNumber":73,"Velocity":58,"Duration":128617,"SoundDuration":128617,"Delta":43118451},{"NoteNumber":80,"Velocity":64,"Duration":128617,"SoundDuration":128617,"Delta":43247068},{"NoteNumber":68,"Velocity":56,"Duration":96462,"SoundDuration":96462,"Delta":43375685},{"NoteNumber":68,"Velocity":58,"Duration":128617,"SoundDuration":128617,"Delta":43504303},{"NoteNumber":73,"Velocity":58,"Duration":128617,"SoundDuration":128617,"Delta":43504303},{"NoteNumber":80,"Velocity":64,"Duration":128617,"SoundDuration":128617,"Delta":43632920},{"NoteNumber":66,"Velocity":56,"Duration":96462,"SoundDuration":96462,"Delta":43761537},{"NoteNumber":68,"Velocity":57,"Duration":128617,"SoundDuration":128617,"Delta":43890155},{"NoteNumber":73,"Velocity":57,"Duration":128617,"SoundDuration":128617,"Delta":43890155},{"NoteNumber":80,"Velocity":64,"Duration":128617,"SoundDuration":128617,"Delta":44018772},{"NoteNumber":61,"Velocity":63,"Duration":100682,"SoundDuration":100682,"Delta":44147389},{"NoteNumber":61,"Velocity":56,"Duration":307166,"SoundDuration":307166,"Delta":44249778},{"NoteNumber":68,"Velocity":58,"Duration":102389,"SoundDuration":102389,"Delta":44352167},{"NoteNumber":73,"Velocity":60,"Duration":102389,"SoundDuration":102389,"Delta":44454556},{"NoteNumber":80,"Velocity":61,"Duration":96774,"SoundDuration":96774,"Delta":44556945},{"NoteNumber":59,"Velocity":54,"Duration":96774,"SoundDuration":96774,"Delta":44556945},{"NoteNumber":64,"Velocity":54,"Duration":96774,"SoundDuration":96774,"Delta":44556945},{"NoteNumber":73,"Velocity":58,"Duration":96774,"SoundDuration":96774,"Delta":44653719},{"NoteNumber":68,"Velocity":57,"Duration":96774,"SoundDuration":96774,"Delta":44750494},{"NoteNumber":61,"Velocity":55,"Duration":96774,"SoundDuration":96774,"Delta":44847268},{"NoteNumber":56,"Velocity":54,"Duration":96774,"SoundDuration":96774,"Delta":44944042},{"NoteNumber":64,"Velocity":54,"Duration":96774,"SoundDuration":96774,"Delta":44944042},{"NoteNumber":61,"Velocity":53,"Duration":96774,"SoundDuration":96774,"Delta":45040816},{"NoteNumber":68,"Velocity":55,"Duration":96774,"SoundDuration":96774,"Delta":45137591},{"NoteNumber":73,"Velocity":57,"Duration":96774,"SoundDuration":96774,"Delta":45234365},{"NoteNumber":80,"Velocity":58,"Duration":96774,"SoundDuration":96774,"Delta":45331139},{"NoteNumber":54,"Velocity":53,"Duration":96774,"SoundDuration":96774,"Delta":45331139},{"NoteNumber":64,"Velocity":53,"Duration":96774,"SoundDuration":96774,"Delta":45331139},{"NoteNumber":73,"Velocity":55,"Duration":96774,"SoundDuration":96774,"Delta":45427913},{"NoteNumber":68,"Velocity":54,"Duration":96774,"SoundDuration":96774,"Delta":45524688},{"NoteNumber":61,"Velocity":52,"Duration":96774,"SoundDuration":96774,"Delta":45621462},{"NoteNumber":56,"Velocity":58,"Duration":98684,"SoundDuration":98684,"Delta":45718236},{"NoteNumber":64,"Velocity":58,"Duration":98684,"SoundDuration":98684,"Delta":45718236},{"NoteNumber":61,"Velocity":53,"Duration":98684,"SoundDuration":98684,"Delta":45816920},{"NoteNumber":68,"Velocity":54,"Duration":98684,"SoundDuration":98684,"Delta":45915605},{"NoteNumber":73,"Velocity":56,"Duration":98684,"SoundDuration":98684,"Delta":46014289},{"NoteNumber":80,"Velocity":57,"Duration":96774,"SoundDuration":96774,"Delta":46112973},{"NoteNumber":59,"Velocity":45,"Duration":96774,"SoundDuration":96774,"Delta":46112973},{"NoteNumber":64,"Velocity":45,"Duration":96774,"SoundDuration":96774,"Delta":46112973},{"NoteNumber":73,"Velocity":55,"Duration":96774,"SoundDuration":96774,"Delta":46209747},{"NoteNumber":68,"Velocity":54,"Duration":96774,"SoundDuration":96774,"Delta":46306522},{"NoteNumber":61,"Velocity":52,"Duration":96774,"SoundDuration":96774,"Delta":46403296},{"NoteNumber":56,"Velocity":51,"Duration":96774,"SoundDuration":96774,"Delta":46500070},{"NoteNumber":64,"Velocity":51,"Duration":96774,"SoundDuration":96774,"Delta":46500070},{"NoteNumber":61,"Velocity":51,"Duration":96774,"SoundDuration":96774,"Delta":46596844},{"NoteNumber":68,"Velocity":53,"Duration":96774,"SoundDuration":96774,"Delta":46693619},{"NoteNumber":73,"Velocity":53,"Duration":96774,"SoundDuration":96774,"Delta":46790393},{"NoteNumber":80,"Velocity":52,"Duration":96774,"SoundDuration":96774,"Delta":46887167},{"NoteNumber":54,"Velocity":50,"Duration":96774,"SoundDuration":96774,"Delta":46887167},{"NoteNumber":64,"Velocity":50,"Duration":96774,"SoundDuration":96774,"Delta":46887167},{"NoteNumber":73,"Velocity":50,"Duration":96774,"SoundDuration":96774,"Delta":46983941},{"NoteNumber":68,"Velocity":49,"Duration":102389,"SoundDuration":102389,"Delta":47080716},{"NoteNumber":61,"Velocity":47,"Duration":102388,"SoundDuration":102388,"Delta":47183105},{"NoteNumber":49,"Velocity":50,"Duration":97039,"SoundDuration":97039,"Delta":47285494},{"NoteNumber":49,"Velocity":50,"Duration":98684,"SoundDuration":98684,"Delta":47384178},{"NoteNumber":56,"Velocity":50,"Duration":98684,"SoundDuration":98684,"Delta":47482862},{"NoteNumber":61,"Velocity":50,"Duration":98684,"SoundDuration":98684,"Delta":47581546},{"NoteNumber":56,"Velocity":49,"Duration":97039,"SoundDuration":97039,"Delta":47680231},{"NoteNumber":56,"Velocity":52,"Duration":98684,"SoundDuration":98684,"Delta":47778915},{"NoteNumber":61,"Velocity":52,"Duration":98684,"SoundDuration":98684,"Delta":47877599},{"NoteNumber":68,"Velocity":52,"Duration":98684,"SoundDuration":98684,"Delta":47976283},{"NoteNumber":61,"Velocity":51,"Duration":97039,"SoundDuration":97039,"Delta":48074968},{"NoteNumber":61,"Velocity":54,"Duration":98684,"SoundDuration":98684,"Delta":48173652},{"NoteNumber":68,"Velocity":54,"Duration":98684,"SoundDuration":98684,"Delta":48272336},{"NoteNumber":73,"Velocity":55,"Duration":98684,"SoundDuration":98684,"Delta":48371020},{"NoteNumber":68,"Velocity":53,"Duration":97039,"SoundDuration":97039,"Delta":48469705},{"NoteNumber":68,"Velocity":56,"Duration":98684,"SoundDuration":98684,"Delta":48568389},{"NoteNumber":73,"Velocity":56,"Duration":105263,"SoundDuration":105263,"Delta":48667073},{"NoteNumber":80,"Velocity":57,"Duration":105263,"SoundDuration":105263,"Delta":48772336},{"NoteNumber":73,"Velocity":55,"Duration":98006,"SoundDuration":98006,"Delta":48877600},{"NoteNumber":73,"Velocity":53,"Duration":299667,"SoundDuration":299667,"Delta":48977267},{"NoteNumber":80,"Velocity":52,"Duration":100000,"SoundDuration":100000,"Delta":49076935},{"NoteNumber":85,"Velocity":52,"Duration":100000,"SoundDuration":100000,"Delta":49176935},{"NoteNumber":73,"Velocity":54,"Duration":98662,"SoundDuration":98662,"Delta":49276935},{"NoteNumber":73,"Velocity":52,"Duration":301676,"SoundDuration":301676,"Delta":49377270},{"NoteNumber":80,"Velocity":51,"Duration":100671,"SoundDuration":100671,"Delta":49477604},{"NoteNumber":85,"Velocity":51,"Duration":100671,"SoundDuration":100671,"Delta":49578275},{"NoteNumber":73,"Velocity":52,"Duration":99326,"SoundDuration":99326,"Delta":49678947},{"NoteNumber":73,"Velocity":50,"Duration":303712,"SoundDuration":303712,"Delta":49779957},{"NoteNumber":80,"Velocity":50,"Duration":101351,"SoundDuration":101351,"Delta":49880967},{"NoteNumber":85,"Velocity":50,"Duration":101351,"SoundDuration":101351,"Delta":49982318},{"NoteNumber":73,"Velocity":49,"Duration":100000,"SoundDuration":100000,"Delta":50083669},{"NoteNumber":73,"Velocity":49,"Duration":305776,"SoundDuration":305776,"Delta":50185364},{"NoteNumber":80,"Velocity":48,"Duration":102040,"SoundDuration":102040,"Delta":50287059},{"NoteNumber":85,"Velocity":48,"Duration":102040,"SoundDuration":102040,"Delta":50389100},{"NoteNumber":73,"Velocity":47,"Duration":100910,"SoundDuration":100910,"Delta":50491141},{"NoteNumber":73,"Velocity":47,"Duration":312393,"SoundDuration":312393,"Delta":50593764},{"NoteNumber":80,"Velocity":47,"Duration":104167,"SoundDuration":104167,"Delta":50697093},{"NoteNumber":85,"Velocity":47,"Duration":104895,"SoundDuration":104895,"Delta":50801261},{"NoteNumber":73,"Velocity":44,"Duration":103991,"SoundDuration":103991,"Delta":50906157},{"NoteNumber":73,"Velocity":46,"Duration":322467,"SoundDuration":322467,"Delta":51011915},{"NoteNumber":80,"Velocity":46,"Duration":107527,"SoundDuration":107527,"Delta":51118550},{"NoteNumber":85,"Velocity":45,"Duration":108304,"SoundDuration":108304,"Delta":51226078},{"NoteNumber":73,"Velocity":42,"Duration":107267,"SoundDuration":107267,"Delta":51334382},{"NoteNumber":73,"Velocity":45,"Duration":338135,"SoundDuration":338135,"Delta":51443474},{"NoteNumber":80,"Velocity":45,"Duration":112643,"SoundDuration":112643,"Delta":51554314},{"NoteNumber":85,"Velocity":44,"Duration":114652,"SoundDuration":114652,"Delta":51666957},{"NoteNumber":73,"Velocity":38,"Duration":114629,"SoundDuration":114629,"Delta":51781609},{"NoteNumber":73,"Velocity":44,"Duration":365164,"SoundDuration":365164,"Delta":51898192},{"NoteNumber":80,"Velocity":43,"Duration":121624,"SoundDuration":121624,"Delta":52017245},{"NoteNumber":85,"Velocity":43,"Duration":124487,"SoundDuration":124487,"Delta":52138870},{"NoteNumber":59,"Velocity":30,"Duration":82135,"SoundDuration":82135,"Delta":52263357},{"NoteNumber":61,"Velocity":31,"Duration":81466,"SoundDuration":81466,"Delta":52345493},{"NoteNumber":64,"Velocity":31,"Duration":80646,"SoundDuration":80646,"Delta":52426959},{"NoteNumber":66,"Velocity":32,"Duration":79840,"SoundDuration":79840,"Delta":52507606},{"NoteNumber":71,"Velocity":33,"Duration":79208,"SoundDuration":79208,"Delta":52587447},{"NoteNumber":69,"Velocity":33,"Duration":79208,"SoundDuration":79208,"Delta":52587447},{"NoteNumber":78,"Velocity":34,"Duration":78431,"SoundDuration":78431,"Delta":52666655},{"NoteNumber":76,"Velocity":34,"Duration":78431,"SoundDuration":78431,"Delta":52666655},{"NoteNumber":83,"Velocity":34,"Duration":156862,"SoundDuration":156862,"Delta":52745086},{"NoteNumber":81,"Velocity":25,"Duration":156862,"SoundDuration":156862,"Delta":52745086},{"NoteNumber":85,"Velocity":45,"Duration":352941,"SoundDuration":352941,"Delta":52745086},{"NoteNumber":73,"Velocity":32,"Duration":352941,"SoundDuration":352941,"Delta":52745086},{"NoteNumber":78,"Velocity":31,"Duration":156862,"SoundDuration":156862,"Delta":52901949},{"NoteNumber":76,"Velocity":25,"Duration":156862,"SoundDuration":156862,"Delta":52901949},{"NoteNumber":71,"Velocity":31,"Duration":156862,"SoundDuration":156862,"Delta":53058811},{"NoteNumber":69,"Velocity":25,"Duration":156862,"SoundDuration":156862,"Delta":53058811},{"NoteNumber":69,"Velocity":26,"Duration":156862,"SoundDuration":156862,"Delta":53215674},{"NoteNumber":71,"Velocity":33,"Duration":156862,"SoundDuration":156862,"Delta":53215674},{"NoteNumber":87,"Velocity":40,"Duration":352941,"SoundDuration":352941,"Delta":53215674},{"NoteNumber":75,"Velocity":31,"Duration":352941,"SoundDuration":352941,"Delta":53215674},{"NoteNumber":76,"Velocity":26,"Duration":156862,"SoundDuration":156862,"Delta":53372537},{"NoteNumber":78,"Velocity":33,"Duration":156862,"SoundDuration":156862,"Delta":53372537},{"NoteNumber":81,"Velocity":26,"Duration":156862,"SoundDuration":156862,"Delta":53529399},{"NoteNumber":83,"Velocity":33,"Duration":156862,"SoundDuration":156862,"Delta":53529399},{"NoteNumber":83,"Velocity":36,"Duration":156862,"SoundDuration":156862,"Delta":53686262},{"NoteNumber":81,"Velocity":28,"Duration":156862,"SoundDuration":156862,"Delta":53686262},{"NoteNumber":85,"Velocity":40,"Duration":352941,"SoundDuration":352941,"Delta":53686262},{"NoteNumber":73,"Velocity":31,"Duration":352941,"SoundDuration":352941,"Delta":53686262},{"NoteNumber":78,"Velocity":31,"Duration":156862,"SoundDuration":156862,"Delta":53843125},{"NoteNumber":76,"Velocity":25,"Duration":156862,"SoundDuration":156862,"Delta":53843125},{"NoteNumber":71,"Velocity":31,"Duration":156862,"SoundDuration":156862,"Delta":53999987},{"NoteNumber":69,"Velocity":25,"Duration":156862,"SoundDuration":156862,"Delta":53999987},{"NoteNumber":69,"Velocity":26,"Duration":152671,"SoundDuration":152671,"Delta":54156850},{"NoteNumber":71,"Velocity":33,"Duration":152671,"SoundDuration":152671,"Delta":54156850},{"NoteNumber":78,"Velocity":35,"Duration":171755,"SoundDuration":171755,"Delta":54156850},{"NoteNumber":90,"Velocity":46,"Duration":171755,"SoundDuration":171755,"Delta":54156850},{"NoteNumber":76,"Velocity":26,"Duration":152671,"SoundDuration":152671,"Delta":54309522},{"NoteNumber":78,"Velocity":33,"Duration":152671,"SoundDuration":152671,"Delta":54309522},{"NoteNumber":75,"Velocity":31,"Duration":171755,"SoundDuration":171755,"Delta":54385857},{"NoteNumber":87,"Velocity":40,"Duration":171755,"SoundDuration":171755,"Delta":54385857},{"NoteNumber":81,"Velocity":26,"Duration":152671,"SoundDuration":152671,"Delta":54462193},{"NoteNumber":83,"Velocity":33,"Duration":152671,"SoundDuration":152671,"Delta":54462193},{"NoteNumber":83,"Velocity":36,"Duration":155038,"SoundDuration":155038,"Delta":54614865},{"NoteNumber":81,"Velocity":28,"Duration":155038,"SoundDuration":155038,"Delta":54614865},{"NoteNumber":73,"Velocity":31,"Duration":348837,"SoundDuration":348837,"Delta":54614865},{"NoteNumber":85,"Velocity":40,"Duration":348837,"SoundDuration":348837,"Delta":54614865},{"NoteNumber":78,"Velocity":30,"Duration":155038,"SoundDuration":155038,"Delta":54769904},{"NoteNumber":76,"Velocity":24,"Duration":155038,"SoundDuration":155038,"Delta":54769904},{"NoteNumber":71,"Velocity":29,"Duration":155038,"SoundDuration":155038,"Delta":54924942},{"NoteNumber":69,"Velocity":24,"Duration":155038,"SoundDuration":155038,"Delta":54924942},{"NoteNumber":69,"Velocity":24,"Duration":155642,"SoundDuration":155642,"Delta":55079981},{"NoteNumber":71,"Velocity":31,"Duration":155642,"SoundDuration":155642,"Delta":55079981},{"NoteNumber":68,"Velocity":28,"Duration":350194,"SoundDuration":350194,"Delta":55079981},{"NoteNumber":80,"Velocity":36,"Duration":350194,"SoundDuration":350194,"Delta":55079981},{"NoteNumber":76,"Velocity":24,"Duration":155642,"SoundDuration":155642,"Delta":55235623},{"NoteNumber":78,"Velocity":30,"Duration":155642,"SoundDuration":155642,"Delta":55235623},{"NoteNumber":81,"Velocity":23,"Duration":155642,"SoundDuration":155642,"Delta":55391265},{"NoteNumber":83,"Velocity":30,"Duration":155642,"SoundDuration":155642,"Delta":55391265},{"NoteNumber":83,"Velocity":32,"Duration":155642,"SoundDuration":155642,"Delta":55546907},{"NoteNumber":81,"Velocity":26,"Duration":155642,"SoundDuration":155642,"Delta":55546907},{"NoteNumber":68,"Velocity":28,"Duration":466926,"SoundDuration":466926,"Delta":55546907},{"NoteNumber":80,"Velocity":37,"Duration":466926,"SoundDuration":466926,"Delta":55546907},{"NoteNumber":78,"Velocity":28,"Duration":155642,"SoundDuration":155642,"Delta":55702549},{"NoteNumber":76,"Velocity":22,"Duration":155642,"SoundDuration":155642,"Delta":55702549},{"NoteNumber":71,"Velocity":27,"Duration":155642,"SoundDuration":155642,"Delta":55858191},{"NoteNumber":69,"Velocity":21,"Duration":155642,"SoundDuration":155642,"Delta":55858191},{"NoteNumber":69,"Velocity":22,"Duration":159362,"SoundDuration":159362,"Delta":56013833},{"NoteNumber":71,"Velocity":28,"Duration":159362,"SoundDuration":159362,"Delta":56013833},{"NoteNumber":78,"Velocity":34,"Duration":418326,"SoundDuration":418326,"Delta":56013833},{"NoteNumber":66,"Velocity":26,"Duration":418326,"SoundDuration":418326,"Delta":56013833},{"NoteNumber":76,"Velocity":21,"Duration":159362,"SoundDuration":159362,"Delta":56173196},{"NoteNumber":78,"Velocity":28,"Duration":159362,"SoundDuration":159362,"Delta":56173196},{"NoteNumber":81,"Velocity":21,"Duration":159362,"SoundDuration":159362,"Delta":56332558},{"NoteNumber":83,"Velocity":27,"Duration":159362,"SoundDuration":159362,"Delta":56332558},{"NoteNumber":59,"Velocity":29,"Duration":59761,"SoundDuration":59761,"Delta":56432160},{"NoteNumber":83,"Velocity":36,"Duration":156250,"SoundDuration":156250,"Delta":56491921},{"NoteNumber":81,"Velocity":28,"Duration":156250,"SoundDuration":156250,"Delta":56491921},{"NoteNumber":61,"Velocity":35,"Duration":351562,"SoundDuration":351562,"Delta":56491921},{"NoteNumber":73,"Velocity":46,"Duration":351562,"SoundDuration":351562,"Delta":56491921},{"NoteNumber":78,"Velocity":31,"Duration":156250,"SoundDuration":156250,"Delta":56648171},{"NoteNumber":76,"Velocity":25,"Duration":156250,"SoundDuration":156250,"Delta":56648171},{"NoteNumber":71,"Velocity":31,"Duration":156250,"SoundDuration":156250,"Delta":56804421},{"NoteNumber":69,"Velocity":25,"Duration":156250,"SoundDuration":156250,"Delta":56804421},{"NoteNumber":69,"Velocity":26,"Duration":156250,"SoundDuration":156250,"Delta":56960671},{"NoteNumber":71,"Velocity":33,"Duration":156250,"SoundDuration":156250,"Delta":56960671},{"NoteNumber":63,"Velocity":31,"Duration":351562,"SoundDuration":351562,"Delta":56960671},{"NoteNumber":75,"Velocity":40,"Duration":351562,"SoundDuration":351562,"Delta":56960671},{"NoteNumber":76,"Velocity":26,"Duration":156250,"SoundDuration":156250,"Delta":57116921},{"NoteNumber":78,"Velocity":33,"Duration":156250,"SoundDuration":156250,"Delta":57116921},{"NoteNumber":81,"Velocity":26,"Duration":156250,"SoundDuration":156250,"Delta":57273171},{"NoteNumber":83,"Velocity":33,"Duration":156250,"SoundDuration":156250,"Delta":57273171},{"NoteNumber":83,"Velocity":36,"Duration":156250,"SoundDuration":156250,"Delta":57429421},{"NoteNumber":81,"Velocity":28,"Duration":156250,"SoundDuration":156250,"Delta":57429421},{"NoteNumber":61,"Velocity":31,"Duration":351562,"SoundDuration":351562,"Delta":57429421},{"NoteNumber":73,"Velocity":40,"Duration":351562,"SoundDuration":351562,"Delta":57429421},{"NoteNumber":78,"Velocity":31,"Duration":156250,"SoundDuration":156250,"Delta":57585671},{"NoteNumber":76,"Velocity":25,"Duration":156250,"SoundDuration":156250,"Delta":57585671},{"NoteNumber":71,"Velocity":31,"Duration":156250,"SoundDuration":156250,"Delta":57741921},{"NoteNumber":69,"Velocity":25,"Duration":156250,"SoundDuration":156250,"Delta":57741921},{"NoteNumber":69,"Velocity":26,"Duration":153256,"SoundDuration":153256,"Delta":57898171},{"NoteNumber":71,"Velocity":33,"Duration":153256,"SoundDuration":153256,"Delta":57898171},{"NoteNumber":66,"Velocity":34,"Duration":172413,"SoundDuration":172413,"Delta":57898171},{"NoteNumber":78,"Velocity":45,"Duration":172413,"SoundDuration":172413,"Delta":57898171},{"NoteNumber":76,"Velocity":26,"Duration":153256,"SoundDuration":153256,"Delta":58051428},{"NoteNumber":78,"Velocity":33,"Duration":153256,"SoundDuration":153256,"Delta":58051428},{"NoteNumber":63,"Velocity":31,"Duration":172413,"SoundDuration":172413,"Delta":58128056},{"NoteNumber":75,"Velocity":40,"Duration":172413,"SoundDuration":172413,"Delta":58128056},{"NoteNumber":81,"Velocity":26,"Duration":153256,"SoundDuration":153256,"Delta":58204684},{"NoteNumber":83,"Velocity":33,"Duration":153256,"SoundDuration":153256,"Delta":58204684},{"NoteNumber":83,"Velocity":36,"Duration":157480,"SoundDuration":157480,"Delta":58357941},{"NoteNumber":81,"Velocity":28,"Duration":157480,"SoundDuration":157480,"Delta":58357941},{"NoteNumber":61,"Velocity":31,"Duration":354330,"SoundDuration":354330,"Delta":58357941},{"NoteNumber":73,"Velocity":40,"Duration":354330,"SoundDuration":354330,"Delta":58357941},{"NoteNumber":78,"Velocity":30,"Duration":157480,"SoundDuration":157480,"Delta":58515421},{"NoteNumber":76,"Velocity":24,"Duration":157480,"SoundDuration":157480,"Delta":58515421},{"NoteNumber":71,"Velocity":29,"Duration":157480,"SoundDuration":157480,"Delta":58672902},{"NoteNumber":69,"Velocity":24,"Duration":157480,"SoundDuration":157480,"Delta":58672902},{"NoteNumber":69,"Velocity":24,"Duration":159362,"SoundDuration":159362,"Delta":58830382},{"NoteNumber":71,"Velocity":31,"Duration":159362,"SoundDuration":159362,"Delta":58830382},{"NoteNumber":56,"Velocity":28,"Duration":358566,"SoundDuration":358566,"Delta":58830382},{"NoteNumber":68,"Velocity":37,"Duration":358566,"SoundDuration":358566,"Delta":58830382},{"NoteNumber":76,"Velocity":24,"Duration":159362,"SoundDuration":159362,"Delta":58989745},{"NoteNumber":78,"Velocity":30,"Duration":159362,"SoundDuration":159362,"Delta":58989745},{"NoteNumber":81,"Velocity":23,"Duration":159362,"SoundDuration":159362,"Delta":59149107},{"NoteNumber":83,"Velocity":30,"Duration":159362,"SoundDuration":159362,"Delta":59149107},{"NoteNumber":83,"Velocity":32,"Duration":159362,"SoundDuration":159362,"Delta":59308470},{"NoteNumber":81,"Velocity":26,"Duration":159362,"SoundDuration":159362,"Delta":59308470},{"NoteNumber":56,"Velocity":27,"Duration":478087,"SoundDuration":478087,"Delta":59308470},{"NoteNumber":68,"Velocity":35,"Duration":478087,"SoundDuration":478087,"Delta":59308470},{"NoteNumber":78,"Velocity":28,"Duration":159362,"SoundDuration":159362,"Delta":59467833},{"NoteNumber":76,"Velocity":22,"Duration":159362,"SoundDuration":159362,"Delta":59467833},{"NoteNumber":71,"Velocity":27,"Duration":159362,"SoundDuration":159362,"Delta":59627195},{"NoteNumber":69,"Velocity":21,"Duration":159362,"SoundDuration":159362,"Delta":59627195},{"NoteNumber":69,"Velocity":22,"Duration":159362,"SoundDuration":159362,"Delta":59786558},{"NoteNumber":71,"Velocity":28,"Duration":159362,"SoundDuration":159362,"Delta":59786558},{"NoteNumber":54,"Velocity":26,"Duration":478087,"SoundDuration":478087,"Delta":59786558},{"NoteNumber":66,"Velocity":33,"Duration":478087,"SoundDuration":478087,"Delta":59786558},{"NoteNumber":76,"Velocity":21,"Duration":159362,"SoundDuration":159362,"Delta":59945921},{"NoteNumber":78,"Velocity":28,"Duration":159362,"SoundDuration":159362,"Delta":59945921},{"NoteNumber":81,"Velocity":21,"Duration":159362,"SoundDuration":159362,"Delta":60105283},{"NoteNumber":83,"Velocity":27,"Duration":159362,"SoundDuration":159362,"Delta":60105283},{"NoteNumber":78,"Velocity":37,"Duration":466926,"SoundDuration":466926,"Delta":60264646},{"NoteNumber":85,"Velocity":49,"Duration":466926,"SoundDuration":466926,"Delta":60264646},{"NoteNumber":73,"Velocity":37,"Duration":466926,"SoundDuration":466926,"Delta":60264646},{"NoteNumber":47,"Velocity":33,"Duration":116731,"SoundDuration":116731,"Delta":60264646},{"NoteNumber":49,"Velocity":28,"Duration":116731,"SoundDuration":116731,"Delta":60381378},{"NoteNumber":52,"Velocity":28,"Duration":116731,"SoundDuration":116731,"Delta":60498109},{"NoteNumber":57,"Velocity":28,"Duration":116731,"SoundDuration":116731,"Delta":60614841},{"NoteNumber":80,"Velocity":34,"Duration":466926,"SoundDuration":466926,"Delta":60731572},{"NoteNumber":87,"Velocity":45,"Duration":466926,"SoundDuration":466926,"Delta":60731572},{"NoteNumber":75,"Velocity":34,"Duration":466926,"SoundDuration":466926,"Delta":60731572},{"NoteNumber":59,"Velocity":33,"Duration":116731,"SoundDuration":116731,"Delta":60731572},{"NoteNumber":61,"Velocity":28,"Duration":116731,"SoundDuration":116731,"Delta":60848304},{"NoteNumber":64,"Velocity":28,"Duration":116731,"SoundDuration":116731,"Delta":60965035},{"NoteNumber":69,"Velocity":28,"Duration":116731,"SoundDuration":116731,"Delta":61081767},{"NoteNumber":78,"Velocity":34,"Duration":470587,"SoundDuration":470587,"Delta":61198498},{"NoteNumber":85,"Velocity":45,"Duration":470587,"SoundDuration":470587,"Delta":61198498},{"NoteNumber":73,"Velocity":34,"Duration":470587,"SoundDuration":470587,"Delta":61198498},{"NoteNumber":59,"Velocity":33,"Duration":117646,"SoundDuration":117646,"Delta":61198498},{"NoteNumber":61,"Velocity":28,"Duration":117647,"SoundDuration":117647,"Delta":61316145},{"NoteNumber":64,"Velocity":28,"Duration":117646,"SoundDuration":117646,"Delta":61433792},{"NoteNumber":69,"Velocity":28,"Duration":117646,"SoundDuration":117646,"Delta":61551439},{"NoteNumber":83,"Velocity":37,"Duration":224719,"SoundDuration":224719,"Delta":61669086},{"NoteNumber":78,"Velocity":37,"Duration":224719,"SoundDuration":224719,"Delta":61669086},{"NoteNumber":90,"Velocity":49,"Duration":224719,"SoundDuration":224719,"Delta":61669086},{"NoteNumber":76,"Velocity":35,"Duration":112359,"SoundDuration":112359,"Delta":61669086},{"NoteNumber":69,"Velocity":28,"Duration":112359,"SoundDuration":112359,"Delta":61781445},{"NoteNumber":80,"Velocity":34,"Duration":224719,"SoundDuration":224719,"Delta":61893805},{"NoteNumber":75,"Velocity":34,"Duration":224719,"SoundDuration":224719,"Delta":61893805},{"NoteNumber":87,"Velocity":45,"Duration":224719,"SoundDuration":224719,"Delta":61893805},{"NoteNumber":64,"Velocity":28,"Duration":112359,"SoundDuration":112359,"Delta":61893805},{"NoteNumber":61,"Velocity":28,"Duration":112359,"SoundDuration":112359,"Delta":62006164},{"NoteNumber":78,"Velocity":34,"Duration":457300,"SoundDuration":457300,"Delta":62118524},{"NoteNumber":73,"Velocity":34,"Duration":457300,"SoundDuration":457300,"Delta":62118524},{"NoteNumber":85,"Velocity":45,"Duration":457300,"SoundDuration":457300,"Delta":62118524},{"NoteNumber":59,"Velocity":37,"Duration":113789,"SoundDuration":113789,"Delta":62118524},{"NoteNumber":61,"Velocity":32,"Duration":114503,"SoundDuration":114503,"Delta":62232313},{"NoteNumber":64,"Velocity":32,"Duration":114503,"SoundDuration":114503,"Delta":62346817},{"NoteNumber":69,"Velocity":32,"Duration":114503,"SoundDuration":114503,"Delta":62461321},{"NoteNumber":73,"Velocity":30,"Duration":466926,"SoundDuration":466926,"Delta":62575824},{"NoteNumber":68,"Velocity":30,"Duration":466926,"SoundDuration":466926,"Delta":62575824},{"NoteNumber":80,"Velocity":38,"Duration":466926,"SoundDuration":466926,"Delta":62575824},{"NoteNumber":59,"Velocity":37,"Duration":116731,"SoundDuration":116731,"Delta":62575824},{"NoteNumber":61,"Velocity":31,"Duration":116731,"SoundDuration":116731,"Delta":62692556},{"NoteNumber":64,"Velocity":31,"Duration":116731,"SoundDuration":116731,"Delta":62809287},{"NoteNumber":69,"Velocity":31,"Duration":116731,"SoundDuration":116731,"Delta":62926019},{"NoteNumber":73,"Velocity":31,"Duration":466926,"SoundDuration":466926,"Delta":63042750},{"NoteNumber":68,"Velocity":31,"Duration":466926,"SoundDuration":466926,"Delta":63042750},{"NoteNumber":80,"Velocity":40,"Duration":466926,"SoundDuration":466926,"Delta":63042750},{"NoteNumber":59,"Velocity":35,"Duration":116731,"SoundDuration":116731,"Delta":63042750},{"NoteNumber":61,"Velocity":30,"Duration":116731,"SoundDuration":116731,"Delta":63159482},{"NoteNumber":64,"Velocity":30,"Duration":116731,"SoundDuration":116731,"Delta":63276213},{"NoteNumber":69,"Velocity":30,"Duration":116731,"SoundDuration":116731,"Delta":63392945},{"NoteNumber":71,"Velocity":28,"Duration":478087,"SoundDuration":478087,"Delta":63509676},{"NoteNumber":78,"Velocity":37,"Duration":478087,"SoundDuration":478087,"Delta":63509676},{"NoteNumber":66,"Velocity":28,"Duration":478087,"SoundDuration":478087,"Delta":63509676},{"NoteNumber":59,"Velocity":34,"Duration":119522,"SoundDuration":119522,"Delta":63509676},{"NoteNumber":61,"Velocity":30,"Duration":119521,"SoundDuration":119521,"Delta":63629198},{"NoteNumber":64,"Velocity":30,"Duration":119522,"SoundDuration":119522,"Delta":63748720},{"NoteNumber":69,"Velocity":30,"Duration":119521,"SoundDuration":119521,"Delta":63868242},{"NoteNumber":69,"Velocity":39,"Duration":468749,"SoundDuration":468749,"Delta":63987764},{"NoteNumber":64,"Velocity":39,"Duration":350585,"SoundDuration":350585,"Delta":63987764},{"NoteNumber":76,"Velocity":51,"Duration":468749,"SoundDuration":468749,"Delta":63987764},{"NoteNumber":56,"Velocity":40,"Duration":468749,"SoundDuration":468749,"Delta":63987764},{"NoteNumber":57,"Velocity":34,"Duration":117187,"SoundDuration":117187,"Delta":64104952},{"NoteNumber":61,"Velocity":34,"Duration":117187,"SoundDuration":117187,"Delta":64222139},{"NoteNumber":64,"Velocity":34,"Duration":117187,"SoundDuration":117187,"Delta":64339327},{"NoteNumber":73,"Velocity":35,"Duration":234375,"SoundDuration":234375,"Delta":64456514},{"NoteNumber":66,"Velocity":35,"Duration":234375,"SoundDuration":234375,"Delta":64456514},{"NoteNumber":78,"Velocity":47,"Duration":234375,"SoundDuration":234375,"Delta":64456514},{"NoteNumber":54,"Velocity":44,"Duration":468750,"SoundDuration":468750,"Delta":64456514},{"NoteNumber":57,"Velocity":34,"Duration":117187,"SoundDuration":117187,"Delta":64573702},{"NoteNumber":64,"Velocity":35,"Duration":116210,"SoundDuration":116210,"Delta":64690889},{"NoteNumber":69,"Velocity":35,"Duration":234375,"SoundDuration":234375,"Delta":64690889},{"NoteNumber":76,"Velocity":47,"Duration":234375,"SoundDuration":234375,"Delta":64690889},{"NoteNumber":61,"Velocity":34,"Duration":117187,"SoundDuration":117187,"Delta":64690889},{"NoteNumber":64,"Velocity":34,"Duration":117187,"SoundDuration":117187,"Delta":64808077},{"NoteNumber":66,"Velocity":35,"Duration":928520,"SoundDuration":928520,"Delta":64925264},{"NoteNumber":61,"Velocity":35,"Duration":116210,"SoundDuration":116210,"Delta":64925264},{"NoteNumber":73,"Velocity":47,"Duration":928520,"SoundDuration":928520,"Delta":64925264},{"NoteNumber":52,"Velocity":44,"Duration":928520,"SoundDuration":928520,"Delta":64925264},{"NoteNumber":54,"Velocity":34,"Duration":117187,"SoundDuration":117187,"Delta":65042452},{"NoteNumber":57,"Velocity":34,"Duration":117187,"SoundDuration":117187,"Delta":65159639},{"NoteNumber":61,"Velocity":34,"Duration":117187,"SoundDuration":117187,"Delta":65276827},{"NoteNumber":64,"Velocity":34,"Duration":114942,"SoundDuration":114942,"Delta":65394014},{"NoteNumber":61,"Velocity":34,"Duration":114942,"SoundDuration":114942,"Delta":65508957},{"NoteNumber":57,"Velocity":34,"Duration":114942,"SoundDuration":114942,"Delta":65623899},{"NoteNumber":54,"Velocity":34,"Duration":114942,"SoundDuration":114942,"Delta":65738842},{"NoteNumber":69,"Velocity":39,"Duration":472441,"SoundDuration":472441,"Delta":65853784},{"NoteNumber":64,"Velocity":39,"Duration":472441,"SoundDuration":472441,"Delta":65853784},{"NoteNumber":76,"Velocity":51,"Duration":472441,"SoundDuration":472441,"Delta":65853784},{"NoteNumber":49,"Velocity":43,"Duration":950529,"SoundDuration":950529,"Delta":65853784},{"NoteNumber":52,"Velocity":34,"Duration":118110,"SoundDuration":118110,"Delta":65971895},{"NoteNumber":54,"Velocity":34,"Duration":118110,"SoundDuration":118110,"Delta":66090005},{"NoteNumber":57,"Velocity":34,"Duration":118110,"SoundDuration":118110,"Delta":66208115},{"NoteNumber":73,"Velocity":35,"Duration":239044,"SoundDuration":239044,"Delta":66326225},{"NoteNumber":66,"Velocity":35,"Duration":239044,"SoundDuration":239044,"Delta":66326225},{"NoteNumber":78,"Velocity":47,"Duration":239044,"SoundDuration":239044,"Delta":66326225},{"NoteNumber":61,"Velocity":44,"Duration":119522,"SoundDuration":119522,"Delta":66326225},{"NoteNumber":57,"Velocity":34,"Duration":119522,"SoundDuration":119522,"Delta":66445747},{"NoteNumber":64,"Velocity":35,"Duration":239043,"SoundDuration":239043,"Delta":66565269},{"NoteNumber":69,"Velocity":35,"Duration":239043,"SoundDuration":239043,"Delta":66565269},{"NoteNumber":76,"Velocity":47,"Duration":239043,"SoundDuration":239043,"Delta":66565269},{"NoteNumber":54,"Velocity":34,"Duration":119521,"SoundDuration":119521,"Delta":66565269},{"NoteNumber":52,"Velocity":34,"Duration":119522,"SoundDuration":119522,"Delta":66684791},{"NoteNumber":61,"Velocity":35,"Duration":239044,"SoundDuration":239044,"Delta":66804313},{"NoteNumber":66,"Velocity":35,"Duration":239044,"SoundDuration":239044,"Delta":66804313},{"NoteNumber":73,"Velocity":47,"Duration":239044,"SoundDuration":239044,"Delta":66804313},{"NoteNumber":47,"Velocity":43,"Duration":956175,"SoundDuration":956175,"Delta":66804313},{"NoteNumber":49,"Velocity":34,"Duration":119522,"SoundDuration":119522,"Delta":66923835},{"NoteNumber":66,"Velocity":35,"Duration":239043,"SoundDuration":239043,"Delta":67043357},{"NoteNumber":59,"Velocity":35,"Duration":239043,"SoundDuration":239043,"Delta":67043357},{"NoteNumber":71,"Velocity":47,"Duration":239043,"SoundDuration":239043,"Delta":67043357},{"NoteNumber":52,"Velocity":34,"Duration":119521,"SoundDuration":119521,"Delta":67043357},{"NoteNumber":54,"Velocity":34,"Duration":119522,"SoundDuration":119522,"Delta":67162879},{"NoteNumber":66,"Velocity":39,"Duration":478087,"SoundDuration":478087,"Delta":67282401},{"NoteNumber":61,"Velocity":39,"Duration":478087,"SoundDuration":478087,"Delta":67282401},{"NoteNumber":73,"Velocity":51,"Duration":478087,"SoundDuration":478087,"Delta":67282401},{"NoteNumber":57,"Velocity":34,"Duration":119522,"SoundDuration":119522,"Delta":67282401},{"NoteNumber":54,"Velocity":34,"Duration":119522,"SoundDuration":119522,"Delta":67401923},{"NoteNumber":52,"Velocity":34,"Duration":119521,"SoundDuration":119521,"Delta":67521445},{"NoteNumber":49,"Velocity":34,"Duration":119522,"SoundDuration":119522,"Delta":67640967},{"NoteNumber":69,"Velocity":44,"Duration":476190,"SoundDuration":476190,"Delta":67760489},{"NoteNumber":64,"Velocity":44,"Duration":476190,"SoundDuration":476190,"Delta":67760489},{"NoteNumber":76,"Velocity":56,"Duration":476190,"SoundDuration":476190,"Delta":67760489},{"NoteNumber":45,"Velocity":45,"Duration":939509,"SoundDuration":939509,"Delta":67760489},{"NoteNumber":49,"Velocity":37,"Duration":119047,"SoundDuration":119047,"Delta":67879537},{"NoteNumber":52,"Velocity":37,"Duration":119047,"SoundDuration":119047,"Delta":67998584},{"NoteNumber":54,"Velocity":37,"Duration":119047,"SoundDuration":119047,"Delta":68117632},{"NoteNumber":73,"Velocity":39,"Duration":463319,"SoundDuration":463319,"Delta":68236679},{"NoteNumber":66,"Velocity":39,"Duration":463319,"SoundDuration":463319,"Delta":68236679},{"NoteNumber":78,"Velocity":52,"Duration":463319,"SoundDuration":463319,"Delta":68236679},{"NoteNumber":57,"Velocity":44,"Duration":115830,"SoundDuration":115830,"Delta":68236679},{"NoteNumber":54,"Velocity":38,"Duration":115830,"SoundDuration":115830,"Delta":68352509},{"NoteNumber":52,"Velocity":38,"Duration":115829,"SoundDuration":115829,"Delta":68468339},{"NoteNumber":49,"Velocity":38,"Duration":115830,"SoundDuration":115830,"Delta":68584169},{"NoteNumber":69,"Velocity":39,"Duration":472441,"SoundDuration":472441,"Delta":68699999},{"NoteNumber":64,"Velocity":39,"Duration":472441,"SoundDuration":472441,"Delta":68699999},{"NoteNumber":76,"Velocity":53,"Duration":472441,"SoundDuration":472441,"Delta":68699999},{"NoteNumber":44,"Velocity":50,"Duration":950529,"SoundDuration":950529,"Delta":68699999},{"NoteNumber":49,"Velocity":39,"Duration":118110,"SoundDuration":118110,"Delta":68818110},{"NoteNumber":52,"Velocity":40,"Duration":118110,"SoundDuration":118110,"Delta":68936220},{"NoteNumber":54,"Velocity":40,"Duration":118110,"SoundDuration":118110,"Delta":69054330},{"NoteNumber":61,"Velocity":40,"Duration":478087,"SoundDuration":478087,"Delta":69172440},{"NoteNumber":66,"Velocity":40,"Duration":478087,"SoundDuration":478087,"Delta":69172440},{"NoteNumber":73,"Velocity":55,"Duration":478087,"SoundDuration":478087,"Delta":69172440},{"NoteNumber":57,"Velocity":40,"Duration":119522,"SoundDuration":119522,"Delta":69172440},{"NoteNumber":54,"Velocity":40,"Duration":119522,"SoundDuration":119522,"Delta":69291962},{"NoteNumber":52,"Velocity":40,"Duration":119521,"SoundDuration":119521,"Delta":69411484},{"NoteNumber":49,"Velocity":42,"Duration":119522,"SoundDuration":119522,"Delta":69531006},{"NoteNumber":64,"Velocity":49,"Duration":950529,"SoundDuration":950529,"Delta":69650528},{"NoteNumber":59,"Velocity":49,"Duration":950529,"SoundDuration":950529,"Delta":69650528},{"NoteNumber":71,"Velocity":63,"Duration":950529,"SoundDuration":950529,"Delta":69650528},{"NoteNumber":42,"Velocity":52,"Duration":950529,"SoundDuration":950529,"Delta":69650528},{"NoteNumber":45,"Velocity":42,"Duration":118110,"SoundDuration":118110,"Delta":69768639},{"NoteNumber":49,"Velocity":42,"Duration":118110,"SoundDuration":118110,"Delta":69886749},{"NoteNumber":52,"Velocity":42,"Duration":118110,"SoundDuration":118110,"Delta":70004859},{"NoteNumber":54,"Velocity":48,"Duration":119522,"SoundDuration":119522,"Delta":70122969},{"NoteNumber":52,"Velocity":44,"Duration":119522,"SoundDuration":119522,"Delta":70242491},{"NoteNumber":49,"Velocity":44,"Duration":119521,"SoundDuration":119521,"Delta":70362013},{"NoteNumber":45,"Velocity":44,"Duration":119522,"SoundDuration":119522,"Delta":70481535},{"NoteNumber":61,"Velocity":52,"Duration":956175,"SoundDuration":956175,"Delta":70601057},{"NoteNumber":66,"Velocity":52,"Duration":956175,"SoundDuration":956175,"Delta":70601057},{"NoteNumber":73,"Velocity":67,"Duration":956175,"SoundDuration":956175,"Delta":70601057},{"NoteNumber":40,"Velocity":55,"Duration":956175,"SoundDuration":956175,"Delta":70601057},{"NoteNumber":45,"Velocity":44,"Duration":119522,"SoundDuration":119522,"Delta":70720579},{"NoteNumber":49,"Velocity":46,"Duration":119521,"SoundDuration":119521,"Delta":70840101},{"NoteNumber":52,"Velocity":46,"Duration":119522,"SoundDuration":119522,"Delta":70959623},{"NoteNumber":54,"Velocity":46,"Duration":119522,"SoundDuration":119522,"Delta":71079145},{"NoteNumber":52,"Velocity":46,"Duration":119522,"SoundDuration":119522,"Delta":71198667},{"NoteNumber":49,"Velocity":46,"Duration":119521,"SoundDuration":119521,"Delta":71318189},{"NoteNumber":45,"Velocity":46,"Duration":119522,"SoundDuration":119522,"Delta":71437711},{"NoteNumber":61,"Velocity":37,"Duration":446096,"SoundDuration":446096,"Delta":71557233},{"NoteNumber":67,"Velocity":37,"Duration":446096,"SoundDuration":446096,"Delta":71557233},{"NoteNumber":73,"Velocity":46,"Duration":446096,"SoundDuration":446096,"Delta":71557233},{"NoteNumber":39,"Velocity":34,"Duration":111524,"SoundDuration":111524,"Delta":71557233},{"NoteNumber":46,"Velocity":40,"Duration":111524,"SoundDuration":111524,"Delta":71557233},{"NoteNumber":51,"Velocity":34,"Duration":111524,"SoundDuration":111524,"Delta":71668758},{"NoteNumber":53,"Velocity":34,"Duration":111524,"SoundDuration":111524,"Delta":71780282},{"NoteNumber":55,"Velocity":34,"Duration":111524,"SoundDuration":111524,"Delta":71891806},{"NoteNumber":63,"Velocity":34,"Duration":433212,"SoundDuration":433212,"Delta":72003330},{"NoteNumber":70,"Velocity":34,"Duration":433212,"SoundDuration":433212,"Delta":72003330},{"NoteNumber":75,"Velocity":40,"Duration":433212,"SoundDuration":433212,"Delta":72003330},{"NoteNumber":61,"Velocity":40,"Duration":108303,"SoundDuration":108303,"Delta":72003330},{"NoteNumber":55,"Velocity":32,"Duration":108303,"SoundDuration":108303,"Delta":72111634},{"NoteNumber":53,"Velocity":32,"Duration":108303,"SoundDuration":108303,"Delta":72219937},{"NoteNumber":51,"Velocity":33,"Duration":108303,"SoundDuration":108303,"Delta":72328240},{"NoteNumber":64,"Velocity":38,"Duration":444444,"SoundDuration":444444,"Delta":72436543},{"NoteNumber":71,"Velocity":38,"Duration":444444,"SoundDuration":444444,"Delta":72436543},{"NoteNumber":76,"Velocity":47,"Duration":444444,"SoundDuration":444444,"Delta":72436543},{"NoteNumber":43,"Velocity":34,"Duration":111110,"SoundDuration":111110,"Delta":72436543},{"NoteNumber":50,"Velocity":40,"Duration":111110,"SoundDuration":111110,"Delta":72436543},{"NoteNumber":53,"Velocity":34,"Duration":111111,"SoundDuration":111111,"Delta":72547654},{"NoteNumber":57,"Velocity":35,"Duration":111110,"SoundDuration":111110,"Delta":72658765},{"NoteNumber":59,"Velocity":35,"Duration":111111,"SoundDuration":111111,"Delta":72769876},{"NoteNumber":69,"Velocity":34,"Duration":444443,"SoundDuration":444443,"Delta":72880987},{"NoteNumber":74,"Velocity":34,"Duration":444443,"SoundDuration":444443,"Delta":72880987},{"NoteNumber":81,"Velocity":40,"Duration":444443,"SoundDuration":444443,"Delta":72880987},{"NoteNumber":65,"Velocity":40,"Duration":111110,"SoundDuration":111110,"Delta":72880987},{"NoteNumber":59,"Velocity":35,"Duration":111111,"SoundDuration":111111,"Delta":72992098},{"NoteNumber":57,"Velocity":35,"Duration":111110,"SoundDuration":111110,"Delta":73103209},{"NoteNumber":53,"Velocity":35,"Duration":111110,"SoundDuration":111110,"Delta":73214320},{"NoteNumber":61,"Velocity":44,"Duration":205479,"SoundDuration":205479,"Delta":73325431},{"NoteNumber":67,"Velocity":44,"Duration":205479,"SoundDuration":205479,"Delta":73325431},{"NoteNumber":73,"Velocity":52,"Duration":205479,"SoundDuration":205479,"Delta":73325431},{"NoteNumber":39,"Velocity":34,"Duration":102739,"SoundDuration":102739,"Delta":73325431},{"NoteNumber":46,"Velocity":40,"Duration":102739,"SoundDuration":102739,"Delta":73325431},{"NoteNumber":51,"Velocity":34,"Duration":102739,"SoundDuration":102739,"Delta":73428171},{"NoteNumber":63,"Velocity":42,"Duration":205479,"SoundDuration":205479,"Delta":73530911},{"NoteNumber":70,"Velocity":49,"Duration":205479,"SoundDuration":205479,"Delta":73530911},{"NoteNumber":75,"Velocity":49,"Duration":205479,"SoundDuration":205479,"Delta":73530911},{"NoteNumber":53,"Velocity":34,"Duration":102739,"SoundDuration":102739,"Delta":73530911},{"NoteNumber":55,"Velocity":34,"Duration":102739,"SoundDuration":102739,"Delta":73633650},{"NoteNumber":67,"Velocity":47,"Duration":205479,"SoundDuration":205479,"Delta":73736390},{"NoteNumber":73,"Velocity":55,"Duration":205479,"SoundDuration":205479,"Delta":73736390},{"NoteNumber":61,"Velocity":45,"Duration":102739,"SoundDuration":102739,"Delta":73736390},{"NoteNumber":55,"Velocity":37,"Duration":102739,"SoundDuration":102739,"Delta":73839130},{"NoteNumber":63,"Velocity":42,"Duration":205479,"SoundDuration":205479,"Delta":73941870},{"NoteNumber":70,"Velocity":42,"Duration":205479,"SoundDuration":205479,"Delta":73941870},{"NoteNumber":75,"Velocity":50,"Duration":205479,"SoundDuration":205479,"Delta":73941870},{"NoteNumber":53,"Velocity":37,"Duration":102739,"SoundDuration":102739,"Delta":73941870},{"NoteNumber":51,"Velocity":37,"Duration":102739,"SoundDuration":102739,"Delta":74044609},{"NoteNumber":64,"Velocity":49,"Duration":422534,"SoundDuration":422534,"Delta":74147349},{"NoteNumber":71,"Velocity":49,"Duration":422534,"SoundDuration":422534,"Delta":74147349},{"NoteNumber":76,"Velocity":58,"Duration":422534,"SoundDuration":422534,"Delta":74147349},{"NoteNumber":43,"Velocity":40,"Duration":105633,"SoundDuration":105633,"Delta":74147349},{"NoteNumber":50,"Velocity":48,"Duration":105633,"SoundDuration":105633,"Delta":74147349},{"NoteNumber":53,"Velocity":39,"Duration":105633,"SoundDuration":105633,"Delta":74252983},{"NoteNumber":57,"Velocity":39,"Duration":105633,"SoundDuration":105633,"Delta":74358617},{"NoteNumber":59,"Velocity":39,"Duration":105633,"SoundDuration":105633,"Delta":74464250},{"NoteNumber":69,"Velocity":46,"Duration":422535,"SoundDuration":422535,"Delta":74569884},{"NoteNumber":74,"Velocity":46,"Duration":422535,"SoundDuration":422535,"Delta":74569884},{"NoteNumber":81,"Velocity":54,"Duration":422535,"SoundDuration":422535,"Delta":74569884},{"NoteNumber":65,"Velocity":49,"Duration":105633,"SoundDuration":105633,"Delta":74569884},{"NoteNumber":59,"Velocity":43,"Duration":105633,"SoundDuration":105633,"Delta":74675518},{"NoteNumber":57,"Velocity":43,"Duration":105633,"SoundDuration":105633,"Delta":74781152},{"NoteNumber":53,"Velocity":43,"Duration":105633,"SoundDuration":105633,"Delta":74886785},{"NoteNumber":73,"Velocity":60,"Duration":408163,"SoundDuration":408163,"Delta":74992419},{"NoteNumber":79,"Velocity":60,"Duration":408163,"SoundDuration":408163,"Delta":74992419},{"NoteNumber":85,"Velocity":73,"Duration":408163,"SoundDuration":408163,"Delta":74992419},{"NoteNumber":58,"Velocity":56,"Duration":102040,"SoundDuration":102040,"Delta":74992419},{"NoteNumber":51,"Velocity":47,"Duration":102040,"SoundDuration":102040,"Delta":74992419},{"NoteNumber":63,"Velocity":47,"Duration":102040,"SoundDuration":102040,"Delta":75094460},{"NoteNumber":65,"Velocity":47,"Duration":102040,"SoundDuration":102040,"Delta":75196501},{"NoteNumber":67,"Velocity":47,"Duration":102040,"SoundDuration":102040,"Delta":75298542},{"NoteNumber":75,"Velocity":60,"Duration":392156,"SoundDuration":392156,"Delta":75400582},{"NoteNumber":82,"Velocity":60,"Duration":392156,"SoundDuration":392156,"Delta":75400582},{"NoteNumber":87,"Velocity":72,"Duration":392156,"SoundDuration":392156,"Delta":75400582},{"NoteNumber":73,"Velocity":58,"Duration":98039,"SoundDuration":98039,"Delta":75400582},{"NoteNumber":67,"Velocity":49,"Duration":98039,"SoundDuration":98039,"Delta":75498622},{"NoteNumber":65,"Velocity":50,"Duration":98039,"SoundDuration":98039,"Delta":75596661},{"NoteNumber":63,"Velocity":51,"Duration":98039,"SoundDuration":98039,"Delta":75694700},{"NoteNumber":76,"Velocity":64,"Duration":410959,"SoundDuration":410959,"Delta":75792739},{"NoteNumber":83,"Velocity":64,"Duration":410959,"SoundDuration":410959,"Delta":75792739},{"NoteNumber":88,"Velocity":75,"Duration":410959,"SoundDuration":410959,"Delta":75792739},{"NoteNumber":55,"Velocity":51,"Duration":102739,"SoundDuration":102739,"Delta":75792739},{"NoteNumber":62,"Velocity":61,"Duration":102739,"SoundDuration":102739,"Delta":75792739},{"NoteNumber":65,"Velocity":53,"Duration":102739,"SoundDuration":102739,"Delta":75895479},{"NoteNumber":69,"Velocity":53,"Duration":102739,"SoundDuration":102739,"Delta":75998219},{"NoteNumber":71,"Velocity":53,"Duration":102739,"SoundDuration":102739,"Delta":76100958},{"NoteNumber":81,"Velocity":60,"Duration":410958,"SoundDuration":410958,"Delta":76203698},{"NoteNumber":86,"Velocity":60,"Duration":410958,"SoundDuration":410958,"Delta":76203698},{"NoteNumber":93,"Velocity":72,"Duration":410958,"SoundDuration":410958,"Delta":76203698},{"NoteNumber":77,"Velocity":65,"Duration":102739,"SoundDuration":102739,"Delta":76203698},{"NoteNumber":71,"Velocity":53,"Duration":102739,"SoundDuration":102739,"Delta":76306438},{"NoteNumber":69,"Velocity":53,"Duration":102739,"SoundDuration":102739,"Delta":76409178},{"NoteNumber":65,"Velocity":53,"Duration":102739,"SoundDuration":102739,"Delta":76511918},{"NoteNumber":85,"Velocity":73,"Duration":192925,"SoundDuration":192925,"Delta":76614657},{"NoteNumber":91,"Velocity":73,"Duration":192925,"SoundDuration":192925,"Delta":76614657},{"NoteNumber":97,"Velocity":87,"Duration":192925,"SoundDuration":192925,"Delta":76614657},{"NoteNumber":63,"Velocity":58,"Duration":96462,"SoundDuration":96462,"Delta":76614657},{"NoteNumber":70,"Velocity":69,"Duration":96462,"SoundDuration":96462,"Delta":76614657},{"NoteNumber":75,"Velocity":58,"Duration":96462,"SoundDuration":96462,"Delta":76711120},{"NoteNumber":87,"Velocity":67,"Duration":192925,"SoundDuration":192925,"Delta":76807583},{"NoteNumber":94,"Velocity":67,"Duration":192925,"SoundDuration":192925,"Delta":76807583},{"NoteNumber":99,"Velocity":79,"Duration":192925,"SoundDuration":192925,"Delta":76807583},{"NoteNumber":77,"Velocity":58,"Duration":96462,"SoundDuration":96462,"Delta":76807583},{"NoteNumber":79,"Velocity":58,"Duration":96462,"SoundDuration":96462,"Delta":76904046},{"NoteNumber":91,"Velocity":72,"Duration":192925,"SoundDuration":192925,"Delta":77000509},{"NoteNumber":97,"Velocity":86,"Duration":192925,"SoundDuration":192925,"Delta":77000509},{"NoteNumber":85,"Velocity":70,"Duration":96462,"SoundDuration":96462,"Delta":77000509},{"NoteNumber":79,"Velocity":59,"Duration":96462,"SoundDuration":96462,"Delta":77096972},{"NoteNumber":87,"Velocity":68,"Duration":192925,"SoundDuration":192925,"Delta":77193435},{"NoteNumber":94,"Velocity":68,"Duration":192925,"SoundDuration":192925,"Delta":77193435},{"NoteNumber":99,"Velocity":80,"Duration":192925,"SoundDuration":192925,"Delta":77193435},{"NoteNumber":77,"Velocity":59,"Duration":96462,"SoundDuration":96462,"Delta":77193435},{"NoteNumber":75,"Velocity":59,"Duration":96462,"SoundDuration":96462,"Delta":77289898},{"NoteNumber":88,"Velocity":76,"Duration":401337,"SoundDuration":401337,"Delta":77386361},{"NoteNumber":95,"Velocity":76,"Duration":401337,"SoundDuration":401337,"Delta":77386361},{"NoteNumber":100,"Velocity":90,"Duration":401337,"SoundDuration":401337,"Delta":77386361},{"NoteNumber":67,"Velocity":61,"Duration":100334,"SoundDuration":100334,"Delta":77386361},{"NoteNumber":74,"Velocity":73,"Duration":100334,"SoundDuration":100334,"Delta":77386361},{"NoteNumber":77,"Velocity":59,"Duration":100334,"SoundDuration":100334,"Delta":77486696},{"NoteNumber":81,"Velocity":59,"Duration":100334,"SoundDuration":100334,"Delta":77587030},{"NoteNumber":83,"Velocity":59,"Duration":100334,"SoundDuration":100334,"Delta":77687365},{"NoteNumber":93,"Velocity":70,"Duration":401338,"SoundDuration":401338,"Delta":77787699},{"NoteNumber":98,"Velocity":82,"Duration":401338,"SoundDuration":401338,"Delta":77787699},{"NoteNumber":105,"Velocity":82,"Duration":401338,"SoundDuration":401338,"Delta":77787699},{"NoteNumber":89,"Velocity":74,"Duration":100334,"SoundDuration":100334,"Delta":77787699},{"NoteNumber":83,"Velocity":63,"Duration":100334,"SoundDuration":100334,"Delta":77888034},{"NoteNumber":81,"Velocity":63,"Duration":100334,"SoundDuration":100334,"Delta":77988368},{"NoteNumber":77,"Velocity":63,"Duration":100334,"SoundDuration":100334,"Delta":78088703},{"NoteNumber":86,"Velocity":71,"Duration":95846,"SoundDuration":95846,"Delta":78189037},{"NoteNumber":79,"Velocity":60,"Duration":95846,"SoundDuration":95846,"Delta":78189037},{"NoteNumber":63,"Velocity":77,"Duration":383386,"SoundDuration":383386,"Delta":78189037},{"NoteNumber":70,"Velocity":77,"Duration":383386,"SoundDuration":383386,"Delta":78189037},{"NoteNumber":75,"Velocity":92,"Duration":383386,"SoundDuration":383386,"Delta":78189037},{"NoteNumber":91,"Velocity":65,"Duration":95846,"SoundDuration":95846,"Delta":78284884},{"NoteNumber":87,"Velocity":55,"Duration":95846,"SoundDuration":95846,"Delta":78284884},{"NoteNumber":86,"Velocity":71,"Duration":95846,"SoundDuration":95846,"Delta":78380731},{"NoteNumber":79,"Velocity":60,"Duration":95846,"SoundDuration":95846,"Delta":78380731},{"NoteNumber":91,"Velocity":66,"Duration":95846,"SoundDuration":95846,"Delta":78476578},{"NoteNumber":87,"Velocity":55,"Duration":95846,"SoundDuration":95846,"Delta":78476578},{"NoteNumber":86,"Velocity":71,"Duration":94637,"SoundDuration":94637,"Delta":78572424},{"NoteNumber":79,"Velocity":60,"Duration":94637,"SoundDuration":94637,"Delta":78572424},{"NoteNumber":94,"Velocity":96,"Duration":376301,"SoundDuration":376301,"Delta":78572424},{"NoteNumber":91,"Velocity":65,"Duration":93555,"SoundDuration":93555,"Delta":78667062},{"NoteNumber":87,"Velocity":55,"Duration":93555,"SoundDuration":93555,"Delta":78667062},{"NoteNumber":86,"Velocity":71,"Duration":93168,"SoundDuration":93168,"Delta":78760618},{"NoteNumber":79,"Velocity":60,"Duration":93168,"SoundDuration":93168,"Delta":78760618},{"NoteNumber":91,"Velocity":66,"Duration":94939,"SoundDuration":94939,"Delta":78853786},{"NoteNumber":87,"Velocity":55,"Duration":94939,"SoundDuration":94939,"Delta":78853786},{"NoteNumber":86,"Velocity":72,"Duration":94641,"SoundDuration":94641,"Delta":78948726},{"NoteNumber":79,"Velocity":61,"Duration":94641,"SoundDuration":94641,"Delta":78948726},{"NoteNumber":91,"Velocity":66,"Duration":95352,"SoundDuration":95352,"Delta":79043367},{"NoteNumber":87,"Velocity":55,"Duration":95352,"SoundDuration":95352,"Delta":79043367},{"NoteNumber":86,"Velocity":72,"Duration":95744,"SoundDuration":95744,"Delta":79138720},{"NoteNumber":79,"Velocity":61,"Duration":95744,"SoundDuration":95744,"Delta":79138720},{"NoteNumber":91,"Velocity":67,"Duration":94340,"SoundDuration":94340,"Delta":79234465},{"NoteNumber":87,"Velocity":56,"Duration":94340,"SoundDuration":94340,"Delta":79234465},{"NoteNumber":86,"Velocity":72,"Duration":93168,"SoundDuration":93168,"Delta":79328805},{"NoteNumber":79,"Velocity":61,"Duration":93168,"SoundDuration":93168,"Delta":79328805},{"NoteNumber":91,"Velocity":66,"Duration":94248,"SoundDuration":94248,"Delta":79421973},{"NoteNumber":87,"Velocity":55,"Duration":94248,"SoundDuration":94248,"Delta":79421973},{"NoteNumber":86,"Velocity":72,"Duration":95138,"SoundDuration":95138,"Delta":79516222},{"NoteNumber":79,"Velocity":61,"Duration":95138,"SoundDuration":95138,"Delta":79516222},{"NoteNumber":91,"Velocity":66,"Duration":93556,"SoundDuration":93556,"Delta":79611361},{"NoteNumber":87,"Velocity":55,"Duration":93556,"SoundDuration":93556,"Delta":79611361},{"NoteNumber":86,"Velocity":72,"Duration":94147,"SoundDuration":94147,"Delta":79704917},{"NoteNumber":79,"Velocity":61,"Duration":94147,"SoundDuration":94147,"Delta":79704917},{"NoteNumber":82,"Velocity":90,"Duration":381807,"SoundDuration":381807,"Delta":79704917},{"NoteNumber":75,"Velocity":76,"Duration":381807,"SoundDuration":381807,"Delta":79704917},{"NoteNumber":91,"Velocity":66,"Duration":95138,"SoundDuration":95138,"Delta":79799065},{"NoteNumber":87,"Velocity":55,"Duration":95138,"SoundDuration":95138,"Delta":79799065},{"NoteNumber":86,"Velocity":72,"Duration":95745,"SoundDuration":95745,"Delta":79894204},{"NoteNumber":79,"Velocity":61,"Duration":95745,"SoundDuration":95745,"Delta":79894204},{"NoteNumber":91,"Velocity":65,"Duration":96776,"SoundDuration":96776,"Delta":79989949},{"NoteNumber":87,"Velocity":55,"Duration":96776,"SoundDuration":96776,"Delta":79989949},{"NoteNumber":86,"Velocity":72,"Duration":94639,"SoundDuration":94639,"Delta":80086725},{"NoteNumber":79,"Velocity":61,"Duration":94639,"SoundDuration":94639,"Delta":80086725},{"NoteNumber":94,"Velocity":99,"Duration":376003,"SoundDuration":376003,"Delta":80086725},{"NoteNumber":91,"Velocity":67,"Duration":93265,"SoundDuration":93265,"Delta":80181364},{"NoteNumber":87,"Velocity":56,"Duration":93265,"SoundDuration":93265,"Delta":80181364},{"NoteNumber":86,"Velocity":72,"Duration":93460,"SoundDuration":93460,"Delta":80274630},{"NoteNumber":79,"Velocity":61,"Duration":93460,"SoundDuration":93460,"Delta":80274630},{"NoteNumber":91,"Velocity":66,"Duration":94637,"SoundDuration":94637,"Delta":80368091},{"NoteNumber":87,"Velocity":55,"Duration":94637,"SoundDuration":94637,"Delta":80368091},{"NoteNumber":86,"Velocity":72,"Duration":94438,"SoundDuration":94438,"Delta":80462728},{"NoteNumber":79,"Velocity":61,"Duration":94438,"SoundDuration":94438,"Delta":80462728},{"NoteNumber":91,"Velocity":67,"Duration":94937,"SoundDuration":94937,"Delta":80557167},{"NoteNumber":87,"Velocity":56,"Duration":94937,"SoundDuration":94937,"Delta":80557167},{"NoteNumber":86,"Velocity":72,"Duration":95744,"SoundDuration":95744,"Delta":80652104},{"NoteNumber":79,"Velocity":61,"Duration":95744,"SoundDuration":95744,"Delta":80652104},{"NoteNumber":91,"Velocity":66,"Duration":95138,"SoundDuration":95138,"Delta":80747849},{"NoteNumber":87,"Velocity":55,"Duration":95138,"SoundDuration":95138,"Delta":80747849},{"NoteNumber":86,"Velocity":72,"Duration":93366,"SoundDuration":93366,"Delta":80842987},{"NoteNumber":79,"Velocity":61,"Duration":93366,"SoundDuration":93366,"Delta":80842987},{"NoteNumber":91,"Velocity":68,"Duration":94539,"SoundDuration":94539,"Delta":80936354},{"NoteNumber":87,"Velocity":57,"Duration":94539,"SoundDuration":94539,"Delta":80936354},{"NoteNumber":86,"Velocity":72,"Duration":95440,"SoundDuration":95440,"Delta":81030893},{"NoteNumber":79,"Velocity":61,"Duration":95440,"SoundDuration":95440,"Delta":81030893},{"NoteNumber":91,"Velocity":66,"Duration":95037,"SoundDuration":95037,"Delta":81126333},{"NoteNumber":87,"Velocity":55,"Duration":95037,"SoundDuration":95037,"Delta":81126333},{"NoteNumber":82,"Velocity":78,"Duration":92592,"SoundDuration":92592,"Delta":81221371},{"NoteNumber":75,"Velocity":67,"Duration":92592,"SoundDuration":92592,"Delta":81221371},{"NoteNumber":79,"Velocity":66,"Duration":92592,"SoundDuration":92592,"Delta":81313963},{"NoteNumber":86,"Velocity":73,"Duration":92592,"SoundDuration":92592,"Delta":81406556},{"NoteNumber":91,"Velocity":67,"Duration":92592,"SoundDuration":92592,"Delta":81499148},{"NoteNumber":94,"Velocity":75,"Duration":91742,"SoundDuration":91742,"Delta":81591741},{"NoteNumber":87,"Velocity":63,"Duration":91742,"SoundDuration":91742,"Delta":81591741},{"NoteNumber":91,"Velocity":67,"Duration":91743,"SoundDuration":91743,"Delta":81683484},{"NoteNumber":86,"Velocity":72,"Duration":91742,"SoundDuration":91742,"Delta":81775227},{"NoteNumber":79,"Velocity":66,"Duration":91743,"SoundDuration":91743,"Delta":81866970},{"NoteNumber":82,"Velocity":78,"Duration":91742,"SoundDuration":91742,"Delta":81958713},{"NoteNumber":75,"Velocity":67,"Duration":91742,"SoundDuration":91742,"Delta":81958713},{"NoteNumber":79,"Velocity":66,"Duration":91743,"SoundDuration":91743,"Delta":82050456},{"NoteNumber":74,"Velocity":64,"Duration":91742,"SoundDuration":91742,"Delta":82142199},{"NoteNumber":67,"Velocity":58,"Duration":91742,"SoundDuration":91742,"Delta":82233942},{"NoteNumber":63,"Velocity":60,"Duration":92592,"SoundDuration":92592,"Delta":82325685},{"NoteNumber":70,"Velocity":73,"Duration":92592,"SoundDuration":92592,"Delta":82325685},{"NoteNumber":67,"Velocity":57,"Duration":92592,"SoundDuration":92592,"Delta":82418277},{"NoteNumber":62,"Velocity":61,"Duration":92592,"SoundDuration":92592,"Delta":82510870},{"NoteNumber":55,"Velocity":55,"Duration":92592,"SoundDuration":92592,"Delta":82603462},{"NoteNumber":51,"Velocity":60,"Duration":91742,"SoundDuration":91742,"Delta":82696055},{"NoteNumber":58,"Velocity":72,"Duration":91742,"SoundDuration":91742,"Delta":82696055},{"NoteNumber":55,"Velocity":57,"Duration":91743,"SoundDuration":91743,"Delta":82787798},{"NoteNumber":62,"Velocity":61,"Duration":91742,"SoundDuration":91742,"Delta":82879541},{"NoteNumber":67,"Velocity":56,"Duration":91743,"SoundDuration":91743,"Delta":82971284},{"NoteNumber":63,"Velocity":61,"Duration":91742,"SoundDuration":91742,"Delta":83063027},{"NoteNumber":70,"Velocity":73,"Duration":91742,"SoundDuration":91742,"Delta":83063027},{"NoteNumber":67,"Velocity":58,"Duration":91743,"SoundDuration":91743,"Delta":83154770},{"NoteNumber":74,"Velocity":63,"Duration":91742,"SoundDuration":91742,"Delta":83246513},{"NoteNumber":79,"Velocity":58,"Duration":91742,"SoundDuration":91742,"Delta":83338256},{"NoteNumber":82,"Velocity":76,"Duration":91743,"SoundDuration":91743,"Delta":83429999},{"NoteNumber":75,"Velocity":65,"Duration":91743,"SoundDuration":91743,"Delta":83429999},{"NoteNumber":79,"Velocity":60,"Duration":91742,"SoundDuration":91742,"Delta":83521742},{"NoteNumber":86,"Velocity":64,"Duration":91743,"SoundDuration":91743,"Delta":83613485},{"NoteNumber":91,"Velocity":59,"Duration":91742,"SoundDuration":91742,"Delta":83705228},{"NoteNumber":94,"Velocity":73,"Duration":91743,"SoundDuration":91743,"Delta":83796971},{"NoteNumber":87,"Velocity":61,"Duration":91743,"SoundDuration":91743,"Delta":83796971},{"NoteNumber":91,"Velocity":64,"Duration":91742,"SoundDuration":91742,"Delta":83888714},{"NoteNumber":86,"Velocity":68,"Duration":91742,"SoundDuration":91742,"Delta":83980457},{"NoteNumber":79,"Velocity":63,"Duration":91743,"SoundDuration":91743,"Delta":84072200},{"NoteNumber":82,"Velocity":71,"Duration":92592,"SoundDuration":92592,"Delta":84163943},{"NoteNumber":75,"Velocity":59,"Duration":92592,"SoundDuration":92592,"Delta":84163943},{"NoteNumber":79,"Velocity":59,"Duration":92592,"SoundDuration":92592,"Delta":84256535},{"NoteNumber":86,"Velocity":64,"Duration":92592,"SoundDuration":92592,"Delta":84349128},{"NoteNumber":91,"Velocity":57,"Duration":92592,"SoundDuration":92592,"Delta":84441720},{"NoteNumber":94,"Velocity":64,"Duration":91742,"SoundDuration":91742,"Delta":84534313},{"NoteNumber":87,"Velocity":53,"Duration":91742,"SoundDuration":91742,"Delta":84534313},{"NoteNumber":91,"Velocity":56,"Duration":91743,"SoundDuration":91743,"Delta":84626056},{"NoteNumber":86,"Velocity":59,"Duration":91742,"SoundDuration":91742,"Delta":84717799},{"NoteNumber":79,"Velocity":54,"Duration":91743,"SoundDuration":91743,"Delta":84809542},{"NoteNumber":82,"Velocity":63,"Duration":94637,"SoundDuration":94637,"Delta":84901285},{"NoteNumber":75,"Velocity":52,"Duration":94637,"SoundDuration":94637,"Delta":84901285},{"NoteNumber":79,"Velocity":50,"Duration":94637,"SoundDuration":94637,"Delta":84995922},{"NoteNumber":86,"Velocity":55,"Duration":94637,"SoundDuration":94637,"Delta":85090559},{"NoteNumber":91,"Velocity":50,"Duration":94637,"SoundDuration":94637,"Delta":85185196},{"NoteNumber":94,"Velocity":61,"Duration":92879,"SoundDuration":92879,"Delta":85279834},{"NoteNumber":87,"Velocity":52,"Duration":92879,"SoundDuration":92879,"Delta":85279834},{"NoteNumber":91,"Velocity":53,"Duration":92879,"SoundDuration":92879,"Delta":85372713},{"NoteNumber":86,"Velocity":56,"Duration":92879,"SoundDuration":92879,"Delta":85465592},{"NoteNumber":79,"Velocity":52,"Duration":92879,"SoundDuration":92879,"Delta":85558471},{"NoteNumber":82,"Velocity":58,"Duration":99337,"SoundDuration":99337,"Delta":85651351},{"NoteNumber":75,"Velocity":49,"Duration":99337,"SoundDuration":99337,"Delta":85651351},{"NoteNumber":79,"Velocity":48,"Duration":99337,"SoundDuration":99337,"Delta":85750688},{"NoteNumber":86,"Velocity":52,"Duration":99337,"SoundDuration":99337,"Delta":85850026},{"NoteNumber":91,"Velocity":48,"Duration":99337,"SoundDuration":99337,"Delta":85949364},{"NoteNumber":94,"Velocity":52,"Duration":107527,"SoundDuration":107527,"Delta":86048702},{"NoteNumber":87,"Velocity":44,"Duration":107527,"SoundDuration":107527,"Delta":86048702},{"NoteNumber":86,"Velocity":48,"Duration":215054,"SoundDuration":215054,"Delta":86263756},{"NoteNumber":82,"Velocity":50,"Duration":119522,"SoundDuration":119522,"Delta":86478810},{"NoteNumber":74,"Velocity":42,"Duration":119522,"SoundDuration":119522,"Delta":86478810},{"NoteNumber":79,"Velocity":44,"Duration":179282,"SoundDuration":179282,"Delta":86717854},{"NoteNumber":86,"Velocity":44,"Duration":179282,"SoundDuration":179282,"Delta":86717854},{"NoteNumber":91,"Velocity":39,"Duration":189075,"SoundDuration":189075,"Delta":86956898},{"NoteNumber":94,"Velocity":44,"Duration":126050,"SoundDuration":126050,"Delta":86956898},{"NoteNumber":87,"Velocity":37,"Duration":126050,"SoundDuration":126050,"Delta":86956898},{"NoteNumber":79,"Velocity":41,"Duration":205479,"SoundDuration":205479,"Delta":87208999},{"NoteNumber":86,"Velocity":41,"Duration":205479,"SoundDuration":205479,"Delta":87208999},{"NoteNumber":73,"Velocity":24,"Duration":252185,"SoundDuration":252185,"Delta":87482971},{"NoteNumber":80,"Velocity":28,"Duration":252185,"SoundDuration":252185,"Delta":87482971},{"NoteNumber":87,"Velocity":46,"Duration":378278,"SoundDuration":378278,"Delta":87482971},{"NoteNumber":83,"Velocity":29,"Duration":378278,"SoundDuration":378278,"Delta":87482971},{"NoteNumber":77,"Velocity":24,"Duration":252185,"SoundDuration":252185,"Delta":87735157},{"NoteNumber":82,"Velocity":28,"Duration":252185,"SoundDuration":252185,"Delta":87735157},{"NoteNumber":77,"Velocity":24,"Duration":252185,"SoundDuration":252185,"Delta":87987342},{"NoteNumber":82,"Velocity":28,"Duration":252185,"SoundDuration":252185,"Delta":87987342},{"NoteNumber":89,"Velocity":40,"Duration":378278,"SoundDuration":378278,"Delta":87987342},{"NoteNumber":85,"Velocity":26,"Duration":378278,"SoundDuration":378278,"Delta":87987342},{"NoteNumber":80,"Velocity":28,"Duration":252185,"SoundDuration":252185,"Delta":88239528},{"NoteNumber":73,"Velocity":24,"Duration":252185,"SoundDuration":252185,"Delta":88239528},{"NoteNumber":71,"Velocity":24,"Duration":252185,"SoundDuration":252185,"Delta":88491713},{"NoteNumber":78,"Velocity":28,"Duration":252185,"SoundDuration":252185,"Delta":88491713},{"NoteNumber":85,"Velocity":40,"Duration":378278,"SoundDuration":378278,"Delta":88491713},{"NoteNumber":81,"Velocity":26,"Duration":378278,"SoundDuration":378278,"Delta":88491713},{"NoteNumber":75,"Velocity":24,"Duration":252185,"SoundDuration":252185,"Delta":88743899},{"NoteNumber":80,"Velocity":28,"Duration":252185,"SoundDuration":252185,"Delta":88743899},{"NoteNumber":75,"Velocity":24,"Duration":246183,"SoundDuration":246183,"Delta":88996084},{"NoteNumber":80,"Velocity":28,"Duration":246183,"SoundDuration":246183,"Delta":88996084},{"NoteNumber":87,"Velocity":29,"Duration":184638,"SoundDuration":184638,"Delta":88996084},{"NoteNumber":92,"Velocity":46,"Duration":184638,"SoundDuration":184638,"Delta":88996084},{"NoteNumber":71,"Velocity":24,"Duration":246183,"SoundDuration":246183,"Delta":89242268},{"NoteNumber":78,"Velocity":28,"Duration":246183,"SoundDuration":246183,"Delta":89242268},{"NoteNumber":81,"Velocity":26,"Duration":184638,"SoundDuration":184638,"Delta":89242268},{"NoteNumber":85,"Velocity":40,"Duration":184638,"SoundDuration":184638,"Delta":89242268},{"NoteNumber":73,"Velocity":24,"Duration":252185,"SoundDuration":252185,"Delta":89488452},{"NoteNumber":80,"Velocity":28,"Duration":252185,"SoundDuration":252185,"Delta":89488452},{"NoteNumber":87,"Velocity":46,"Duration":378278,"SoundDuration":378278,"Delta":89488452},{"NoteNumber":83,"Velocity":29,"Duration":378278,"SoundDuration":378278,"Delta":89488452},{"NoteNumber":77,"Velocity":24,"Duration":252185,"SoundDuration":252185,"Delta":89740638},{"NoteNumber":82,"Velocity":28,"Duration":252185,"SoundDuration":252185,"Delta":89740638},{"NoteNumber":77,"Velocity":28,"Duration":252185,"SoundDuration":252185,"Delta":89992823},{"NoteNumber":82,"Velocity":28,"Duration":252185,"SoundDuration":252185,"Delta":89992823},{"NoteNumber":89,"Velocity":40,"Duration":378278,"SoundDuration":378278,"Delta":89992823},{"NoteNumber":85,"Velocity":26,"Duration":378278,"SoundDuration":378278,"Delta":89992823},{"NoteNumber":80,"Velocity":28,"Duration":252185,"SoundDuration":252185,"Delta":90245009},{"NoteNumber":73,"Velocity":24,"Duration":252185,"SoundDuration":252185,"Delta":90245009},{"NoteNumber":71,"Velocity":24,"Duration":252185,"SoundDuration":252185,"Delta":90497194},{"NoteNumber":78,"Velocity":28,"Duration":252185,"SoundDuration":252185,"Delta":90497194},{"NoteNumber":85,"Velocity":40,"Duration":378278,"SoundDuration":378278,"Delta":90497194},{"NoteNumber":81,"Velocity":26,"Duration":378278,"SoundDuration":378278,"Delta":90497194},{"NoteNumber":75,"Velocity":24,"Duration":252185,"SoundDuration":252185,"Delta":90749380},{"NoteNumber":80,"Velocity":28,"Duration":252185,"SoundDuration":252185,"Delta":90749380},{"NoteNumber":75,"Velocity":24,"Duration":236798,"SoundDuration":236798,"Delta":91001565},{"NoteNumber":80,"Velocity":28,"Duration":236798,"SoundDuration":236798,"Delta":91001565},{"NoteNumber":87,"Velocity":29,"Duration":177598,"SoundDuration":177598,"Delta":91001565},{"NoteNumber":92,"Velocity":46,"Duration":177598,"SoundDuration":177598,"Delta":91001565},{"NoteNumber":71,"Velocity":24,"Duration":236798,"SoundDuration":236798,"Delta":91238364},{"NoteNumber":78,"Velocity":28,"Duration":236798,"SoundDuration":236798,"Delta":91238364},{"NoteNumber":81,"Velocity":26,"Duration":177598,"SoundDuration":177598,"Delta":91238364},{"NoteNumber":85,"Velocity":40,"Duration":177598,"SoundDuration":177598,"Delta":91238364},{"NoteNumber":73,"Velocity":24,"Duration":252185,"SoundDuration":252185,"Delta":91475162},{"NoteNumber":80,"Velocity":28,"Duration":252185,"SoundDuration":252185,"Delta":91475162},{"NoteNumber":87,"Velocity":46,"Duration":378278,"SoundDuration":378278,"Delta":91475162},{"NoteNumber":83,"Velocity":29,"Duration":378278,"SoundDuration":378278,"Delta":91475162},{"NoteNumber":77,"Velocity":28,"Duration":252185,"SoundDuration":252185,"Delta":91727348},{"NoteNumber":82,"Velocity":28,"Duration":252185,"SoundDuration":252185,"Delta":91727348},{"NoteNumber":77,"Velocity":28,"Duration":252185,"SoundDuration":252185,"Delta":91979533},{"NoteNumber":82,"Velocity":28,"Duration":252185,"SoundDuration":252185,"Delta":91979533},{"NoteNumber":89,"Velocity":40,"Duration":378278,"SoundDuration":378278,"Delta":91979533},{"NoteNumber":85,"Velocity":26,"Duration":378278,"SoundDuration":378278,"Delta":91979533},{"NoteNumber":80,"Velocity":28,"Duration":252185,"SoundDuration":252185,"Delta":92231719},{"NoteNumber":73,"Velocity":28,"Duration":252185,"SoundDuration":252185,"Delta":92231719},{"NoteNumber":71,"Velocity":24,"Duration":252185,"SoundDuration":252185,"Delta":92483904},{"NoteNumber":78,"Velocity":28,"Duration":252185,"SoundDuration":252185,"Delta":92483904},{"NoteNumber":85,"Velocity":40,"Duration":378278,"SoundDuration":378278,"Delta":92483904},{"NoteNumber":81,"Velocity":26,"Duration":378278,"SoundDuration":378278,"Delta":92483904},{"NoteNumber":75,"Velocity":24,"Duration":252185,"SoundDuration":252185,"Delta":92736090},{"NoteNumber":80,"Velocity":28,"Duration":252185,"SoundDuration":252185,"Delta":92736090},{"NoteNumber":75,"Velocity":24,"Duration":246183,"SoundDuration":246183,"Delta":92988275},{"NoteNumber":80,"Velocity":28,"Duration":246183,"SoundDuration":246183,"Delta":92988275},{"NoteNumber":83,"Velocity":29,"Duration":377073,"SoundDuration":377073,"Delta":92988275},{"NoteNumber":87,"Velocity":46,"Duration":377073,"SoundDuration":377073,"Delta":92988275},{"NoteNumber":71,"Velocity":24,"Duration":261780,"SoundDuration":261780,"Delta":93234459},{"NoteNumber":78,"Velocity":28,"Duration":261780,"SoundDuration":261780,"Delta":93234459},{"NoteNumber":69,"Velocity":24,"Duration":259583,"SoundDuration":259583,"Delta":93496239},{"NoteNumber":76,"Velocity":28,"Duration":259583,"SoundDuration":259583,"Delta":93496239},{"NoteNumber":83,"Velocity":46,"Duration":389374,"SoundDuration":389374,"Delta":93496239},{"NoteNumber":79,"Velocity":29,"Duration":389374,"SoundDuration":389374,"Delta":93496239},{"NoteNumber":73,"Velocity":23,"Duration":259582,"SoundDuration":259582,"Delta":93755822},{"NoteNumber":78,"Velocity":28,"Duration":259582,"SoundDuration":259582,"Delta":93755822},{"NoteNumber":73,"Velocity":22,"Duration":259583,"SoundDuration":259583,"Delta":94015405},{"NoteNumber":78,"Velocity":27,"Duration":259583,"SoundDuration":259583,"Delta":94015405},{"NoteNumber":85,"Velocity":38,"Duration":389374,"SoundDuration":389374,"Delta":94015405},{"NoteNumber":81,"Velocity":25,"Duration":389374,"SoundDuration":389374,"Delta":94015405},{"NoteNumber":76,"Velocity":27,"Duration":259582,"SoundDuration":259582,"Delta":94274988},{"NoteNumber":69,"Velocity":22,"Duration":259582,"SoundDuration":259582,"Delta":94274988},{"NoteNumber":68,"Velocity":21,"Duration":265135,"SoundDuration":265135,"Delta":94534571},{"NoteNumber":75,"Velocity":26,"Duration":265135,"SoundDuration":265135,"Delta":94534571},{"NoteNumber":82,"Velocity":37,"Duration":397702,"SoundDuration":397702,"Delta":94534571},{"NoteNumber":78,"Velocity":24,"Duration":397702,"SoundDuration":397702,"Delta":94534571},{"NoteNumber":72,"Velocity":21,"Duration":265135,"SoundDuration":265135,"Delta":94799706},{"NoteNumber":77,"Velocity":26,"Duration":265135,"SoundDuration":265135,"Delta":94799706},{"NoteNumber":72,"Velocity":19,"Duration":265135,"SoundDuration":265135,"Delta":95064841},{"NoteNumber":77,"Velocity":25,"Duration":265135,"SoundDuration":265135,"Delta":95064841},{"NoteNumber":80,"Velocity":26,"Duration":397702,"SoundDuration":397702,"Delta":95064841},{"NoteNumber":84,"Velocity":39,"Duration":397702,"SoundDuration":397702,"Delta":95064841},{"NoteNumber":68,"Velocity":19,"Duration":265135,"SoundDuration":265135,"Delta":95329976},{"NoteNumber":75,"Velocity":24,"Duration":265135,"SoundDuration":265135,"Delta":95329976},{"NoteNumber":82,"Velocity":28,"Duration":257422,"SoundDuration":257422,"Delta":95595111},{"NoteNumber":72,"Velocity":24,"Duration":257422,"SoundDuration":257422,"Delta":95595111},{"NoteNumber":78,"Velocity":24,"Duration":257422,"SoundDuration":257422,"Delta":95595111},{"NoteNumber":66,"Velocity":35,"Duration":514844,"SoundDuration":514844,"Delta":95595111},{"NoteNumber":63,"Velocity":29,"Duration":514844,"SoundDuration":514844,"Delta":95595111},{"NoteNumber":56,"Velocity":23,"Duration":514844,"SoundDuration":514844,"Delta":95595111},{"NoteNumber":70,"Velocity":28,"Duration":257422,"SoundDuration":257422,"Delta":95852534},{"NoteNumber":72,"Velocity":24,"Duration":257422,"SoundDuration":257422,"Delta":96109956},{"NoteNumber":70,"Velocity":24,"Duration":257422,"SoundDuration":257422,"Delta":96109956},{"NoteNumber":78,"Velocity":28,"Duration":257422,"SoundDuration":257422,"Delta":96109956},{"NoteNumber":84,"Velocity":40,"Duration":514845,"SoundDuration":514845,"Delta":96109956},{"NoteNumber":80,"Velocity":26,"Duration":514845,"SoundDuration":514845,"Delta":96109956},{"NoteNumber":68,"Velocity":28,"Duration":257422,"SoundDuration":257422,"Delta":96367379},{"NoteNumber":76,"Velocity":24,"Duration":257422,"SoundDuration":257422,"Delta":96624801},{"NoteNumber":70,"Velocity":24,"Duration":257422,"SoundDuration":257422,"Delta":96624801},{"NoteNumber":80,"Velocity":28,"Duration":257422,"SoundDuration":257422,"Delta":96624801},{"NoteNumber":64,"Velocity":33,"Duration":514844,"SoundDuration":514844,"Delta":96624801},{"NoteNumber":61,"Velocity":26,"Duration":514844,"SoundDuration":514844,"Delta":96624801},{"NoteNumber":54,"Velocity":26,"Duration":514844,"SoundDuration":514844,"Delta":96624801},{"NoteNumber":68,"Velocity":28,"Duration":257422,"SoundDuration":257422,"Delta":96882224},{"NoteNumber":76,"Velocity":24,"Duration":250167,"SoundDuration":250167,"Delta":97139646},{"NoteNumber":70,"Velocity":24,"Duration":250167,"SoundDuration":250167,"Delta":97139646},{"NoteNumber":68,"Velocity":24,"Duration":250167,"SoundDuration":250167,"Delta":97139646},{"NoteNumber":80,"Velocity":28,"Duration":250167,"SoundDuration":250167,"Delta":97139646},{"NoteNumber":82,"Velocity":36,"Duration":500333,"SoundDuration":500333,"Delta":97139646},{"NoteNumber":87,"Velocity":43,"Duration":500333,"SoundDuration":500333,"Delta":97139646},{"NoteNumber":66,"Velocity":24,"Duration":250166,"SoundDuration":250166,"Delta":97389813},{"NoteNumber":78,"Velocity":28,"Duration":250166,"SoundDuration":250166,"Delta":97389813},{"NoteNumber":82,"Velocity":28,"Duration":257422,"SoundDuration":257422,"Delta":97639980},{"NoteNumber":72,"Velocity":24,"Duration":257422,"SoundDuration":257422,"Delta":97639980},{"NoteNumber":78,"Velocity":24,"Duration":257422,"SoundDuration":257422,"Delta":97639980},{"NoteNumber":66,"Velocity":35,"Duration":514844,"SoundDuration":514844,"Delta":97639980},{"NoteNumber":63,"Velocity":29,"Duration":514844,"SoundDuration":514844,"Delta":97639980},{"NoteNumber":56,"Velocity":23,"Duration":514844,"SoundDuration":514844,"Delta":97639980},{"NoteNumber":70,"Velocity":28,"Duration":257422,"SoundDuration":257422,"Delta":97897403},{"NoteNumber":72,"Velocity":24,"Duration":257422,"SoundDuration":257422,"Delta":98154825},{"NoteNumber":70,"Velocity":24,"Duration":257422,"SoundDuration":257422,"Delta":98154825},{"NoteNumber":78,"Velocity":28,"Duration":257422,"SoundDuration":257422,"Delta":98154825},{"NoteNumber":84,"Velocity":40,"Duration":514845,"SoundDuration":514845,"Delta":98154825},{"NoteNumber":80,"Velocity":26,"Duration":514845,"SoundDuration":514845,"Delta":98154825},{"NoteNumber":68,"Velocity":28,"Duration":257422,"SoundDuration":257422,"Delta":98412248},{"NoteNumber":76,"Velocity":24,"Duration":257422,"SoundDuration":257422,"Delta":98669670},{"NoteNumber":70,"Velocity":24,"Duration":257422,"SoundDuration":257422,"Delta":98669670},{"NoteNumber":80,"Velocity":28,"Duration":257422,"SoundDuration":257422,"Delta":98669670},{"NoteNumber":64,"Velocity":33,"Duration":514844,"SoundDuration":514844,"Delta":98669670},{"NoteNumber":61,"Velocity":26,"Duration":514844,"SoundDuration":514844,"Delta":98669670},{"NoteNumber":54,"Velocity":26,"Duration":514844,"SoundDuration":514844,"Delta":98669670},{"NoteNumber":68,"Velocity":28,"Duration":257422,"SoundDuration":257422,"Delta":98927093},{"NoteNumber":76,"Velocity":24,"Duration":250167,"SoundDuration":250167,"Delta":99184515},{"NoteNumber":70,"Velocity":24,"Duration":250167,"SoundDuration":250167,"Delta":99184515},{"NoteNumber":68,"Velocity":24,"Duration":250167,"SoundDuration":250167,"Delta":99184515},{"NoteNumber":80,"Velocity":28,"Duration":250167,"SoundDuration":250167,"Delta":99184515},{"NoteNumber":82,"Velocity":36,"Duration":500333,"SoundDuration":500333,"Delta":99184515},{"NoteNumber":87,"Velocity":43,"Duration":500333,"SoundDuration":500333,"Delta":99184515},{"NoteNumber":66,"Velocity":24,"Duration":250166,"SoundDuration":250166,"Delta":99434682},{"NoteNumber":78,"Velocity":28,"Duration":250166,"SoundDuration":250166,"Delta":99434682},{"NoteNumber":82,"Velocity":28,"Duration":257422,"SoundDuration":257422,"Delta":99684849},{"NoteNumber":72,"Velocity":24,"Duration":257422,"SoundDuration":257422,"Delta":99684849},{"NoteNumber":78,"Velocity":24,"Duration":257422,"SoundDuration":257422,"Delta":99684849},{"NoteNumber":66,"Velocity":35,"Duration":514844,"SoundDuration":514844,"Delta":99684849},{"NoteNumber":63,"Velocity":29,"Duration":514844,"SoundDuration":514844,"Delta":99684849},{"NoteNumber":56,"Velocity":23,"Duration":514844,"SoundDuration":514844,"Delta":99684849},{"NoteNumber":70,"Velocity":28,"Duration":257422,"SoundDuration":257422,"Delta":99942272},{"NoteNumber":72,"Velocity":24,"Duration":257422,"SoundDuration":257422,"Delta":100199694},{"NoteNumber":70,"Velocity":24,"Duration":257422,"SoundDuration":257422,"Delta":100199694},{"NoteNumber":78,"Velocity":28,"Duration":257422,"SoundDuration":257422,"Delta":100199694},{"NoteNumber":84,"Velocity":40,"Duration":514845,"SoundDuration":514845,"Delta":100199694},{"NoteNumber":80,"Velocity":26,"Duration":514845,"SoundDuration":514845,"Delta":100199694},{"NoteNumber":68,"Velocity":28,"Duration":257422,"SoundDuration":257422,"Delta":100457117},{"NoteNumber":76,"Velocity":24,"Duration":257422,"SoundDuration":257422,"Delta":100714539},{"NoteNumber":70,"Velocity":24,"Duration":257422,"SoundDuration":257422,"Delta":100714539},{"NoteNumber":80,"Velocity":28,"Duration":257422,"SoundDuration":257422,"Delta":100714539},{"NoteNumber":64,"Velocity":33,"Duration":514844,"SoundDuration":514844,"Delta":100714539},{"NoteNumber":61,"Velocity":26,"Duration":514844,"SoundDuration":514844,"Delta":100714539},{"NoteNumber":54,"Velocity":26,"Duration":514844,"SoundDuration":514844,"Delta":100714539},{"NoteNumber":68,"Velocity":28,"Duration":257422,"SoundDuration":257422,"Delta":100971962},{"NoteNumber":70,"Velocity":24,"Duration":250167,"SoundDuration":250167,"Delta":101229384},{"NoteNumber":68,"Velocity":24,"Duration":250167,"SoundDuration":250167,"Delta":101229384},{"NoteNumber":76,"Velocity":28,"Duration":250167,"SoundDuration":250167,"Delta":101229384},{"NoteNumber":78,"Velocity":36,"Duration":500333,"SoundDuration":500333,"Delta":101229384},{"NoteNumber":82,"Velocity":43,"Duration":500333,"SoundDuration":500333,"Delta":101229384},{"NoteNumber":66,"Velocity":28,"Duration":250166,"SoundDuration":250166,"Delta":101479551},{"NoteNumber":78,"Velocity":28,"Duration":257422,"SoundDuration":257422,"Delta":101729718},{"NoteNumber":68,"Velocity":24,"Duration":257422,"SoundDuration":257422,"Delta":101729718},{"NoteNumber":74,"Velocity":24,"Duration":257422,"SoundDuration":257422,"Delta":101729718},{"NoteNumber":62,"Velocity":35,"Duration":514844,"SoundDuration":514844,"Delta":101729718},{"NoteNumber":59,"Velocity":29,"Duration":514844,"SoundDuration":514844,"Delta":101729718},{"NoteNumber":52,"Velocity":23,"Duration":514844,"SoundDuration":514844,"Delta":101729718},{"NoteNumber":66,"Velocity":28,"Duration":257422,"SoundDuration":257422,"Delta":101987141},{"NoteNumber":68,"Velocity":24,"Duration":257422,"SoundDuration":257422,"Delta":102244563},{"NoteNumber":66,"Velocity":24,"Duration":257422,"SoundDuration":257422,"Delta":102244563},{"NoteNumber":74,"Velocity":28,"Duration":257422,"SoundDuration":257422,"Delta":102244563},{"NoteNumber":80,"Velocity":40,"Duration":514845,"SoundDuration":514845,"Delta":102244563},{"NoteNumber":76,"Velocity":26,"Duration":514845,"SoundDuration":514845,"Delta":102244563},{"NoteNumber":64,"Velocity":28,"Duration":257422,"SoundDuration":257422,"Delta":102501986},{"NoteNumber":74,"Velocity":21,"Duration":257422,"SoundDuration":257422,"Delta":102759408},{"NoteNumber":70,"Velocity":21,"Duration":257422,"SoundDuration":257422,"Delta":102759408},{"NoteNumber":77,"Velocity":25,"Duration":257422,"SoundDuration":257422,"Delta":102759408},{"NoteNumber":58,"Velocity":29,"Duration":514844,"SoundDuration":514844,"Delta":102759408},{"NoteNumber":53,"Velocity":24,"Duration":514844,"SoundDuration":514844,"Delta":102759408},{"NoteNumber":46,"Velocity":24,"Duration":514844,"SoundDuration":514844,"Delta":102759408},{"NoteNumber":65,"Velocity":25,"Duration":257422,"SoundDuration":257422,"Delta":103016831},{"NoteNumber":62,"Velocity":25,"Duration":263991,"SoundDuration":263991,"Delta":103274253},{"NoteNumber":70,"Velocity":37,"Duration":527983,"SoundDuration":527983,"Delta":103274253},{"NoteNumber":65,"Velocity":25,"Duration":263991,"SoundDuration":263991,"Delta":103538245},{"NoteNumber":78,"Velocity":28,"Duration":262880,"SoundDuration":262880,"Delta":103802236},{"NoteNumber":68,"Velocity":24,"Duration":262880,"SoundDuration":262880,"Delta":103802236},{"NoteNumber":74,"Velocity":24,"Duration":262880,"SoundDuration":262880,"Delta":103802236},{"NoteNumber":62,"Velocity":35,"Duration":525762,"SoundDuration":525762,"Delta":103802236},{"NoteNumber":59,"Velocity":29,"Duration":525762,"SoundDuration":525762,"Delta":103802236},{"NoteNumber":52,"Velocity":23,"Duration":525762,"SoundDuration":525762,"Delta":103802236},{"NoteNumber":66,"Velocity":28,"Duration":262881,"SoundDuration":262881,"Delta":104065117},{"NoteNumber":68,"Velocity":22,"Duration":262880,"SoundDuration":262880,"Delta":104327998},{"NoteNumber":66,"Velocity":22,"Duration":262880,"SoundDuration":262880,"Delta":104327998},{"NoteNumber":74,"Velocity":27,"Duration":262880,"SoundDuration":262880,"Delta":104327998},{"NoteNumber":80,"Velocity":37,"Duration":525762,"SoundDuration":525762,"Delta":104327998},{"NoteNumber":76,"Velocity":24,"Duration":525762,"SoundDuration":525762,"Delta":104327998},{"NoteNumber":64,"Velocity":24,"Duration":262881,"SoundDuration":262881,"Delta":104590879},{"NoteNumber":74,"Velocity":21,"Duration":262880,"SoundDuration":262880,"Delta":104853760},{"NoteNumber":70,"Velocity":21,"Duration":262880,"SoundDuration":262880,"Delta":104853760},{"NoteNumber":77,"Velocity":25,"Duration":262880,"SoundDuration":262880,"Delta":104853760},{"NoteNumber":58,"Velocity":29,"Duration":525762,"SoundDuration":525762,"Delta":104853760},{"NoteNumber":53,"Velocity":24,"Duration":525762,"SoundDuration":525762,"Delta":104853760},{"NoteNumber":46,"Velocity":24,"Duration":525762,"SoundDuration":525762,"Delta":104853760},{"NoteNumber":65,"Velocity":25,"Duration":262881,"SoundDuration":262881,"Delta":105116641},{"NoteNumber":62,"Velocity":25,"Duration":257422,"SoundDuration":257422,"Delta":105379522},{"NoteNumber":70,"Velocity":37,"Duration":514844,"SoundDuration":514844,"Delta":105379522},{"NoteNumber":65,"Velocity":23,"Duration":257422,"SoundDuration":257422,"Delta":105636945},{"NoteNumber":78,"Velocity":28,"Duration":267403,"SoundDuration":267403,"Delta":105894367},{"NoteNumber":68,"Velocity":24,"Duration":267403,"SoundDuration":267403,"Delta":105894367},{"NoteNumber":74,"Velocity":24,"Duration":267403,"SoundDuration":267403,"Delta":105894367},{"NoteNumber":62,"Velocity":35,"Duration":534807,"SoundDuration":534807,"Delta":105894367},{"NoteNumber":59,"Velocity":29,"Duration":534807,"SoundDuration":534807,"Delta":105894367},{"NoteNumber":53,"Velocity":23,"Duration":534807,"SoundDuration":534807,"Delta":105894367},{"NoteNumber":66,"Velocity":28,"Duration":267403,"SoundDuration":267403,"Delta":106161771},{"NoteNumber":68,"Velocity":22,"Duration":267403,"SoundDuration":267403,"Delta":106429174},{"NoteNumber":66,"Velocity":22,"Duration":267403,"SoundDuration":267403,"Delta":106429174},{"NoteNumber":74,"Velocity":27,"Duration":267403,"SoundDuration":267403,"Delta":106429174},{"NoteNumber":80,"Velocity":37,"Duration":534807,"SoundDuration":534807,"Delta":106429174},{"NoteNumber":76,"Velocity":24,"Duration":534807,"SoundDuration":534807,"Delta":106429174},{"NoteNumber":65,"Velocity":24,"Duration":267403,"SoundDuration":267403,"Delta":106696578},{"NoteNumber":74,"Velocity":21,"Duration":267403,"SoundDuration":267403,"Delta":106963981},{"NoteNumber":70,"Velocity":21,"Duration":267403,"SoundDuration":267403,"Delta":106963981},{"NoteNumber":77,"Velocity":25,"Duration":267403,"SoundDuration":267403,"Delta":106963981},{"NoteNumber":58,"Velocity":29,"Duration":534807,"SoundDuration":534807,"Delta":106963981},{"NoteNumber":53,"Velocity":24,"Duration":534807,"SoundDuration":534807,"Delta":106963981},{"NoteNumber":46,"Velocity":24,"Duration":534807,"SoundDuration":534807,"Delta":106963981},{"NoteNumber":65,"Velocity":25,"Duration":267403,"SoundDuration":267403,"Delta":107231385},{"NoteNumber":62,"Velocity":25,"Duration":250167,"SoundDuration":250167,"Delta":107498788},{"NoteNumber":70,"Velocity":37,"Duration":498165,"SoundDuration":498165,"Delta":107498788},{"NoteNumber":65,"Velocity":23,"Duration":247998,"SoundDuration":247998,"Delta":107748955},{"NoteNumber":56,"Velocity":34,"Duration":232582,"SoundDuration":232582,"Delta":107996953},{"NoteNumber":62,"Velocity":34,"Duration":232582,"SoundDuration":232582,"Delta":107996953},{"NoteNumber":66,"Velocity":40,"Duration":232582,"SoundDuration":232582,"Delta":107996953},{"NoteNumber":47,"Velocity":20,"Duration":457323,"SoundDuration":457323,"Delta":107996953},{"NoteNumber":52,"Velocity":20,"Duration":457323,"SoundDuration":457323,"Delta":107996953},{"NoteNumber":59,"Velocity":24,"Duration":457323,"SoundDuration":457323,"Delta":107996953},{"NoteNumber":64,"Velocity":34,"Duration":224741,"SoundDuration":224741,"Delta":108229536},{"NoteNumber":68,"Velocity":40,"Duration":224741,"SoundDuration":224741,"Delta":108229536},{"NoteNumber":66,"Velocity":34,"Duration":110565,"SoundDuration":110565,"Delta":108454277},{"NoteNumber":71,"Velocity":40,"Duration":110565,"SoundDuration":110565,"Delta":108454277},{"NoteNumber":61,"Velocity":36,"Duration":438773,"SoundDuration":438773,"Delta":108454277},{"NoteNumber":62,"Velocity":36,"Duration":110024,"SoundDuration":110024,"Delta":108564842},{"NoteNumber":74,"Velocity":40,"Duration":218183,"SoundDuration":218183,"Delta":108674867},{"NoteNumber":68,"Velocity":34,"Duration":218183,"SoundDuration":218183,"Delta":108674867},{"NoteNumber":68,"Velocity":39,"Duration":216606,"SoundDuration":216606,"Delta":108893051},{"NoteNumber":74,"Velocity":39,"Duration":216606,"SoundDuration":216606,"Delta":108893051},{"NoteNumber":78,"Velocity":47,"Duration":216606,"SoundDuration":216606,"Delta":108893051},{"NoteNumber":59,"Velocity":23,"Duration":433212,"SoundDuration":433212,"Delta":108893051},{"NoteNumber":64,"Velocity":23,"Duration":433212,"SoundDuration":433212,"Delta":108893051},{"NoteNumber":71,"Velocity":28,"Duration":433212,"SoundDuration":433212,"Delta":108893051},{"NoteNumber":76,"Velocity":39,"Duration":216606,"SoundDuration":216606,"Delta":109109657},{"NoteNumber":80,"Velocity":47,"Duration":216606,"SoundDuration":216606,"Delta":109109657},{"NoteNumber":78,"Velocity":39,"Duration":108303,"SoundDuration":108303,"Delta":109326264},{"NoteNumber":83,"Velocity":47,"Duration":108303,"SoundDuration":108303,"Delta":109326264},{"NoteNumber":73,"Velocity":36,"Duration":432436,"SoundDuration":432436,"Delta":109326264},{"NoteNumber":74,"Velocity":40,"Duration":108303,"SoundDuration":108303,"Delta":109434567},{"NoteNumber":86,"Velocity":47,"Duration":215830,"SoundDuration":215830,"Delta":109542870},{"NoteNumber":80,"Velocity":39,"Duration":215830,"SoundDuration":215830,"Delta":109542870},{"NoteNumber":80,"Velocity":45,"Duration":214669,"SoundDuration":214669,"Delta":109758700},{"NoteNumber":86,"Velocity":45,"Duration":214669,"SoundDuration":214669,"Delta":109758700},{"NoteNumber":90,"Velocity":53,"Duration":214669,"SoundDuration":214669,"Delta":109758700},{"NoteNumber":71,"Velocity":27,"Duration":428573,"SoundDuration":428573,"Delta":109758700},{"NoteNumber":76,"Velocity":27,"Duration":428573,"SoundDuration":428573,"Delta":109758700},{"NoteNumber":83,"Velocity":32,"Duration":428573,"SoundDuration":428573,"Delta":109758700},{"NoteNumber":88,"Velocity":45,"Duration":213904,"SoundDuration":213904,"Delta":109973370},{"NoteNumber":92,"Velocity":53,"Duration":213904,"SoundDuration":213904,"Delta":109973370},{"NoteNumber":90,"Velocity":45,"Duration":106761,"SoundDuration":106761,"Delta":110187274},{"NoteNumber":95,"Velocity":53,"Duration":106761,"SoundDuration":106761,"Delta":110187274},{"NoteNumber":85,"Velocity":42,"Duration":213522,"SoundDuration":213522,"Delta":110187274},{"NoteNumber":86,"Velocity":46,"Duration":106761,"SoundDuration":106761,"Delta":110294036},{"NoteNumber":98,"Velocity":53,"Duration":213396,"SoundDuration":213396,"Delta":110400797},{"NoteNumber":92,"Velocity":45,"Duration":213396,"SoundDuration":213396,"Delta":110400797},{"NoteNumber":83,"Velocity":42,"Duration":213396,"SoundDuration":213396,"Delta":110400797},{"NoteNumber":101,"Velocity":64,"Duration":70921,"SoundDuration":70921,"Delta":110614194},{"NoteNumber":70,"Velocity":48,"Duration":866401,"SoundDuration":866401,"Delta":110614194},{"NoteNumber":98,"Velocity":58,"Duration":71174,"SoundDuration":71174,"Delta":110685116},{"NoteNumber":94,"Velocity":57,"Duration":71428,"SoundDuration":71428,"Delta":110756291},{"NoteNumber":89,"Velocity":55,"Duration":71684,"SoundDuration":71684,"Delta":110827719},{"NoteNumber":86,"Velocity":42,"Duration":70788,"SoundDuration":70788,"Delta":110827719},{"NoteNumber":82,"Velocity":35,"Duration":70788,"SoundDuration":70788,"Delta":110827719},{"NoteNumber":77,"Velocity":35,"Duration":215570,"SoundDuration":215570,"Delta":110827719},{"NoteNumber":86,"Velocity":54,"Duration":71813,"SoundDuration":71813,"Delta":110899404},{"NoteNumber":82,"Velocity":53,"Duration":72072,"SoundDuration":72072,"Delta":110971217},{"NoteNumber":77,"Velocity":52,"Duration":72333,"SoundDuration":72333,"Delta":111043290},{"NoteNumber":82,"Velocity":52,"Duration":72463,"SoundDuration":72463,"Delta":111115623},{"NoteNumber":86,"Velocity":53,"Duration":72727,"SoundDuration":72727,"Delta":111188087},{"NoteNumber":89,"Velocity":55,"Duration":72992,"SoundDuration":72992,"Delta":111260814},{"NoteNumber":86,"Velocity":42,"Duration":219781,"SoundDuration":219781,"Delta":111260814},{"NoteNumber":82,"Velocity":35,"Duration":219781,"SoundDuration":219781,"Delta":111260814},{"NoteNumber":77,"Velocity":35,"Duration":219781,"SoundDuration":219781,"Delta":111260814},{"NoteNumber":94,"Velocity":56,"Duration":73260,"SoundDuration":73260,"Delta":111333807},{"NoteNumber":98,"Velocity":58,"Duration":73529,"SoundDuration":73529,"Delta":111407067},{"NoteNumber":102,"Velocity":66,"Duration":110293,"SoundDuration":110293,"Delta":111480596},{"NoteNumber":68,"Velocity":48,"Duration":896040,"SoundDuration":896040,"Delta":111480596},{"NoteNumber":98,"Velocity":55,"Duration":110294,"SoundDuration":110294,"Delta":111590890},{"NoteNumber":95,"Velocity":56,"Duration":110293,"SoundDuration":110293,"Delta":111701184},{"NoteNumber":83,"Velocity":42,"Duration":441989,"SoundDuration":441989,"Delta":111701184},{"NoteNumber":78,"Velocity":35,"Duration":441989,"SoundDuration":441989,"Delta":111701184},{"NoteNumber":74,"Velocity":35,"Duration":441989,"SoundDuration":441989,"Delta":111701184},{"NoteNumber":90,"Velocity":56,"Duration":110293,"SoundDuration":110293,"Delta":111811478},{"NoteNumber":104,"Velocity":67,"Duration":110701,"SoundDuration":110701,"Delta":111921772},{"NoteNumber":98,"Velocity":56,"Duration":110700,"SoundDuration":110700,"Delta":112032473},{"NoteNumber":95,"Velocity":56,"Duration":116731,"SoundDuration":116731,"Delta":112143174},{"NoteNumber":83,"Velocity":42,"Duration":233463,"SoundDuration":233463,"Delta":112143174},{"NoteNumber":78,"Velocity":35,"Duration":233463,"SoundDuration":233463,"Delta":112143174},{"NoteNumber":74,"Velocity":35,"Duration":233463,"SoundDuration":233463,"Delta":112143174},{"NoteNumber":92,"Velocity":56,"Duration":116731,"SoundDuration":116731,"Delta":112259905},{"NoteNumber":101,"Velocity":66,"Duration":73529,"SoundDuration":73529,"Delta":112376637},{"NoteNumber":58,"Velocity":52,"Duration":661764,"SoundDuration":661764,"Delta":112376637},{"NoteNumber":98,"Velocity":58,"Duration":73529,"SoundDuration":73529,"Delta":112450166},{"NoteNumber":94,"Velocity":57,"Duration":73529,"SoundDuration":73529,"Delta":112523696},{"NoteNumber":89,"Velocity":57,"Duration":73529,"SoundDuration":73529,"Delta":112597225},{"NoteNumber":74,"Velocity":42,"Duration":220587,"SoundDuration":220587,"Delta":112597225},{"NoteNumber":70,"Velocity":35,"Duration":220587,"SoundDuration":220587,"Delta":112597225},{"NoteNumber":65,"Velocity":35,"Duration":220587,"SoundDuration":220587,"Delta":112597225},{"NoteNumber":86,"Velocity":56,"Duration":73529,"SoundDuration":73529,"Delta":112670754},{"NoteNumber":82,"Velocity":55,"Duration":73529,"SoundDuration":73529,"Delta":112744284},{"NoteNumber":77,"Velocity":53,"Duration":73529,"SoundDuration":73529,"Delta":112817813},{"NoteNumber":74,"Velocity":53,"Duration":73529,"SoundDuration":73529,"Delta":112891342},{"NoteNumber":70,"Velocity":53,"Duration":73529,"SoundDuration":73529,"Delta":112964872},{"NoteNumber":65,"Velocity":52,"Duration":73529,"SoundDuration":73529,"Delta":113038401},{"NoteNumber":58,"Velocity":42,"Duration":220587,"SoundDuration":220587,"Delta":113038401},{"NoteNumber":70,"Velocity":53,"Duration":73529,"SoundDuration":73529,"Delta":113111930},{"NoteNumber":74,"Velocity":55,"Duration":73529,"SoundDuration":73529,"Delta":113185460},{"NoteNumber":78,"Velocity":63,"Duration":110293,"SoundDuration":110293,"Delta":113258989},{"NoteNumber":56,"Velocity":50,"Duration":220588,"SoundDuration":220588,"Delta":113258989},{"NoteNumber":74,"Velocity":58,"Duration":110294,"SoundDuration":110294,"Delta":113369283},{"NoteNumber":71,"Velocity":57,"Duration":110293,"SoundDuration":110293,"Delta":113479577},{"NoteNumber":62,"Velocity":47,"Duration":677099,"SoundDuration":677099,"Delta":113479577},{"NoteNumber":61,"Velocity":35,"Duration":443636,"SoundDuration":443636,"Delta":113479577},{"NoteNumber":66,"Velocity":55,"Duration":110293,"SoundDuration":110293,"Delta":113589871},{"NoteNumber":80,"Velocity":64,"Duration":111524,"SoundDuration":111524,"Delta":113700165},{"NoteNumber":74,"Velocity":57,"Duration":111524,"SoundDuration":111524,"Delta":113811689},{"NoteNumber":71,"Velocity":56,"Duration":116731,"SoundDuration":116731,"Delta":113923213},{"NoteNumber":59,"Velocity":42,"Duration":233463,"SoundDuration":233463,"Delta":113923213},{"NoteNumber":68,"Velocity":55,"Duration":116731,"SoundDuration":116731,"Delta":114039945},{"NoteNumber":77,"Velocity":57,"Duration":110293,"SoundDuration":110293,"Delta":114156676},{"NoteNumber":46,"Velocity":54,"Duration":901166,"SoundDuration":901166,"Delta":114156676},{"NoteNumber":74,"Velocity":56,"Duration":110294,"SoundDuration":110294,"Delta":114266970},{"NoteNumber":70,"Velocity":55,"Duration":110293,"SoundDuration":110293,"Delta":114377264},{"NoteNumber":62,"Velocity":42,"Duration":220587,"SoundDuration":220587,"Delta":114377264},{"NoteNumber":58,"Velocity":35,"Duration":220587,"SoundDuration":220587,"Delta":114377264},{"NoteNumber":53,"Velocity":35,"Duration":220587,"SoundDuration":220587,"Delta":114377264},{"NoteNumber":65,"Velocity":54,"Duration":110293,"SoundDuration":110293,"Delta":114487558},{"NoteNumber":62,"Velocity":53,"Duration":111112,"SoundDuration":111112,"Delta":114597852},{"NoteNumber":58,"Velocity":52,"Duration":112360,"SoundDuration":112360,"Delta":114708964},{"NoteNumber":53,"Velocity":51,"Duration":114518,"SoundDuration":114518,"Delta":114821325},{"NoteNumber":46,"Velocity":50,"Duration":121999,"SoundDuration":121999,"Delta":114935843},{"NoteNumber":54,"Velocity":34,"Duration":232017,"SoundDuration":232017,"Delta":115057843},{"NoteNumber":50,"Velocity":34,"Duration":232017,"SoundDuration":232017,"Delta":115057843},{"NoteNumber":59,"Velocity":40,"Duration":232017,"SoundDuration":232017,"Delta":115057843},{"NoteNumber":44,"Velocity":50,"Duration":451849,"SoundDuration":451849,"Delta":115057843},{"NoteNumber":61,"Velocity":40,"Duration":219832,"SoundDuration":219832,"Delta":115289860},{"NoteNumber":59,"Velocity":34,"Duration":106382,"SoundDuration":106382,"Delta":115509692},{"NoteNumber":62,"Velocity":40,"Duration":106382,"SoundDuration":106382,"Delta":115509692},{"NoteNumber":58,"Velocity":51,"Duration":425532,"SoundDuration":425532,"Delta":115509692},{"NoteNumber":54,"Velocity":36,"Duration":106383,"SoundDuration":106383,"Delta":115616075},{"NoteNumber":66,"Velocity":40,"Duration":212766,"SoundDuration":212766,"Delta":115722458},{"NoteNumber":62,"Velocity":39,"Duration":212766,"SoundDuration":212766,"Delta":115935224},{"NoteNumber":66,"Velocity":39,"Duration":212766,"SoundDuration":212766,"Delta":115935224},{"NoteNumber":71,"Velocity":47,"Duration":212766,"SoundDuration":212766,"Delta":115935224},{"NoteNumber":56,"Velocity":46,"Duration":425531,"SoundDuration":425531,"Delta":115935224},{"NoteNumber":73,"Velocity":47,"Duration":212765,"SoundDuration":212765,"Delta":116147990},{"NoteNumber":71,"Velocity":39,"Duration":106383,"SoundDuration":106383,"Delta":116360756},{"NoteNumber":74,"Velocity":47,"Duration":106383,"SoundDuration":106383,"Delta":116360756},{"NoteNumber":70,"Velocity":52,"Duration":425532,"SoundDuration":425532,"Delta":116360756},{"NoteNumber":66,"Velocity":40,"Duration":106382,"SoundDuration":106382,"Delta":116467139},{"NoteNumber":78,"Velocity":47,"Duration":212766,"SoundDuration":212766,"Delta":116573522},{"NoteNumber":74,"Velocity":45,"Duration":212766,"SoundDuration":212766,"Delta":116786288},{"NoteNumber":78,"Velocity":45,"Duration":212766,"SoundDuration":212766,"Delta":116786288},{"NoteNumber":83,"Velocity":53,"Duration":212766,"SoundDuration":212766,"Delta":116786288},{"NoteNumber":68,"Velocity":47,"Duration":425532,"SoundDuration":425532,"Delta":116786288},{"NoteNumber":85,"Velocity":53,"Duration":212766,"SoundDuration":212766,"Delta":116999054},{"NoteNumber":83,"Velocity":45,"Duration":106382,"SoundDuration":106382,"Delta":117211820},{"NoteNumber":86,"Velocity":53,"Duration":106382,"SoundDuration":106382,"Delta":117211820},{"NoteNumber":70,"Velocity":35,"Duration":212766,"SoundDuration":212766,"Delta":117211820},{"NoteNumber":82,"Velocity":42,"Duration":212766,"SoundDuration":212766,"Delta":117211820},{"NoteNumber":78,"Velocity":46,"Duration":106383,"SoundDuration":106383,"Delta":117318203},{"NoteNumber":90,"Velocity":53,"Duration":212766,"SoundDuration":212766,"Delta":117424586},{"NoteNumber":68,"Velocity":35,"Duration":212766,"SoundDuration":212766,"Delta":117424586},{"NoteNumber":80,"Velocity":42,"Duration":212766,"SoundDuration":212766,"Delta":117424586},{"NoteNumber":98,"Velocity":66,"Duration":70921,"SoundDuration":70921,"Delta":117637352},{"NoteNumber":67,"Velocity":48,"Duration":866401,"SoundDuration":866401,"Delta":117637352},{"NoteNumber":95,"Velocity":58,"Duration":71174,"SoundDuration":71174,"Delta":117708274},{"NoteNumber":91,"Velocity":57,"Duration":71428,"SoundDuration":71428,"Delta":117779449},{"NoteNumber":86,"Velocity":55,"Duration":71684,"SoundDuration":71684,"Delta":117850877},{"NoteNumber":83,"Velocity":42,"Duration":215570,"SoundDuration":215570,"Delta":117850877},{"NoteNumber":79,"Velocity":35,"Duration":215570,"SoundDuration":215570,"Delta":117850877},{"NoteNumber":74,"Velocity":35,"Duration":215570,"SoundDuration":215570,"Delta":117850877},{"NoteNumber":83,"Velocity":54,"Duration":71813,"SoundDuration":71813,"Delta":117922562},{"NoteNumber":79,"Velocity":53,"Duration":72072,"SoundDuration":72072,"Delta":117994375},{"NoteNumber":74,"Velocity":52,"Duration":72332,"SoundDuration":72332,"Delta":118066448},{"NoteNumber":79,"Velocity":52,"Duration":72463,"SoundDuration":72463,"Delta":118138781},{"NoteNumber":83,"Velocity":53,"Duration":72727,"SoundDuration":72727,"Delta":118211245},{"NoteNumber":86,"Velocity":55,"Duration":72992,"SoundDuration":72992,"Delta":118283972},{"NoteNumber":83,"Velocity":42,"Duration":219781,"SoundDuration":219781,"Delta":118283972},{"NoteNumber":79,"Velocity":35,"Duration":219781,"SoundDuration":219781,"Delta":118283972},{"NoteNumber":74,"Velocity":35,"Duration":219781,"SoundDuration":219781,"Delta":118283972},{"NoteNumber":91,"Velocity":56,"Duration":73259,"SoundDuration":73259,"Delta":118356965},{"NoteNumber":95,"Velocity":58,"Duration":73529,"SoundDuration":73529,"Delta":118430225},{"NoteNumber":99,"Velocity":67,"Duration":110293,"SoundDuration":110293,"Delta":118503754},{"NoteNumber":60,"Velocity":48,"Duration":896040,"SoundDuration":896040,"Delta":118503754},{"NoteNumber":94,"Velocity":55,"Duration":110294,"SoundDuration":110294,"Delta":118614048},{"NoteNumber":90,"Velocity":56,"Duration":110293,"SoundDuration":110293,"Delta":118724342},{"NoteNumber":75,"Velocity":42,"Duration":441989,"SoundDuration":441989,"Delta":118724342},{"NoteNumber":70,"Velocity":35,"Duration":441989,"SoundDuration":441989,"Delta":118724342},{"NoteNumber":66,"Velocity":35,"Duration":441989,"SoundDuration":441989,"Delta":118724342},{"NoteNumber":87,"Velocity":56,"Duration":110293,"SoundDuration":110293,"Delta":118834636},{"NoteNumber":101,"Velocity":66,"Duration":110701,"SoundDuration":110701,"Delta":118944930},{"NoteNumber":94,"Velocity":56,"Duration":110700,"SoundDuration":110700,"Delta":119055631},{"NoteNumber":90,"Velocity":56,"Duration":116731,"SoundDuration":116731,"Delta":119166332},{"NoteNumber":75,"Velocity":42,"Duration":233463,"SoundDuration":233463,"Delta":119166332},{"NoteNumber":70,"Velocity":35,"Duration":233463,"SoundDuration":233463,"Delta":119166332},{"NoteNumber":66,"Velocity":35,"Duration":233463,"SoundDuration":233463,"Delta":119166332},{"NoteNumber":89,"Velocity":56,"Duration":116731,"SoundDuration":116731,"Delta":119283063},{"NoteNumber":98,"Velocity":69,"Duration":73529,"SoundDuration":73529,"Delta":119399795},{"NoteNumber":55,"Velocity":52,"Duration":220588,"SoundDuration":220588,"Delta":119399795},{"NoteNumber":95,"Velocity":58,"Duration":73529,"SoundDuration":73529,"Delta":119473324},{"NoteNumber":91,"Velocity":57,"Duration":73529,"SoundDuration":73529,"Delta":119546854},{"NoteNumber":86,"Velocity":57,"Duration":73529,"SoundDuration":73529,"Delta":119620383},{"NoteNumber":71,"Velocity":42,"Duration":220587,"SoundDuration":220587,"Delta":119620383},{"NoteNumber":67,"Velocity":35,"Duration":220587,"SoundDuration":220587,"Delta":119620383},{"NoteNumber":62,"Velocity":35,"Duration":220587,"SoundDuration":220587,"Delta":119620383},{"NoteNumber":83,"Velocity":56,"Duration":73529,"SoundDuration":73529,"Delta":119693912},{"NoteNumber":79,"Velocity":55,"Duration":73529,"SoundDuration":73529,"Delta":119767442},{"NoteNumber":74,"Velocity":53,"Duration":73529,"SoundDuration":73529,"Delta":119840971},{"NoteNumber":71,"Velocity":53,"Duration":73529,"SoundDuration":73529,"Delta":119914500},{"NoteNumber":67,"Velocity":53,"Duration":73529,"SoundDuration":73529,"Delta":119988030},{"NoteNumber":62,"Velocity":52,"Duration":73529,"SoundDuration":73529,"Delta":120061559},{"NoteNumber":67,"Velocity":53,"Duration":73529,"SoundDuration":73529,"Delta":120135088},{"NoteNumber":71,"Velocity":55,"Duration":73529,"SoundDuration":73529,"Delta":120208618},{"NoteNumber":75,"Velocity":64,"Duration":110293,"SoundDuration":110293,"Delta":120282147},{"NoteNumber":48,"Velocity":50,"Duration":220588,"SoundDuration":220588,"Delta":120282147},{"NoteNumber":70,"Velocity":58,"Duration":110294,"SoundDuration":110294,"Delta":120392441},{"NoteNumber":66,"Velocity":57,"Duration":110293,"SoundDuration":110293,"Delta":120502735},{"NoteNumber":54,"Velocity":38,"Duration":675363,"SoundDuration":675363,"Delta":120502735},{"NoteNumber":58,"Velocity":48,"Duration":675363,"SoundDuration":675363,"Delta":120502735},{"NoteNumber":53,"Velocity":35,"Duration":443636,"SoundDuration":443636,"Delta":120502735},{"NoteNumber":63,"Velocity":55,"Duration":110293,"SoundDuration":110293,"Delta":120613029},{"NoteNumber":77,"Velocity":63,"Duration":111524,"SoundDuration":111524,"Delta":120723323},{"NoteNumber":70,"Velocity":57,"Duration":111524,"SoundDuration":111524,"Delta":120834847},{"NoteNumber":66,"Velocity":56,"Duration":116731,"SoundDuration":116731,"Delta":120946371},{"NoteNumber":51,"Velocity":42,"Duration":231727,"SoundDuration":231727,"Delta":120946371},{"NoteNumber":65,"Velocity":55,"Duration":114995,"SoundDuration":114995,"Delta":121063103},{"NoteNumber":74,"Velocity":57,"Duration":74349,"SoundDuration":74349,"Delta":121178099},{"NoteNumber":43,"Velocity":51,"Duration":223464,"SoundDuration":223464,"Delta":121178099},{"NoteNumber":71,"Velocity":57,"Duration":74488,"SoundDuration":74488,"Delta":121252448},{"NoteNumber":67,"Velocity":57,"Duration":74626,"SoundDuration":74626,"Delta":121326936},{"NoteNumber":62,"Velocity":51,"Duration":74906,"SoundDuration":74906,"Delta":121401563},{"NoteNumber":59,"Velocity":42,"Duration":73970,"SoundDuration":73970,"Delta":121401563},{"NoteNumber":55,"Velocity":35,"Duration":73970,"SoundDuration":73970,"Delta":121401563},{"NoteNumber":50,"Velocity":35,"Duration":225141,"SoundDuration":225141,"Delta":121401563},{"NoteNumber":59,"Velocity":52,"Duration":75047,"SoundDuration":75047,"Delta":121476470},{"NoteNumber":55,"Velocity":52,"Duration":75187,"SoundDuration":75187,"Delta":121551517},{"NoteNumber":50,"Velocity":55,"Duration":113782,"SoundDuration":113782,"Delta":121626705},{"NoteNumber":55,"Velocity":52,"Duration":115834,"SoundDuration":115834,"Delta":121740487},{"NoteNumber":59,"Velocity":52,"Duration":123062,"SoundDuration":123062,"Delta":121856322},{"NoteNumber":62,"Velocity":49,"Duration":138639,"SoundDuration":138639,"Delta":121979384},{"NoteNumber":58,"Velocity":36,"Duration":60975,"SoundDuration":60975,"Delta":122118024},{"NoteNumber":59,"Velocity":36,"Duration":60975,"SoundDuration":60975,"Delta":122179000},{"NoteNumber":61,"Velocity":37,"Duration":60975,"SoundDuration":60975,"Delta":122239975},{"NoteNumber":62,"Velocity":37,"Duration":60975,"SoundDuration":60975,"Delta":122300951},{"NoteNumber":66,"Velocity":38,"Duration":60975,"SoundDuration":60975,"Delta":122361927},{"NoteNumber":67,"Velocity":38,"Duration":60975,"SoundDuration":60975,"Delta":122422902},{"NoteNumber":70,"Velocity":39,"Duration":60975,"SoundDuration":60975,"Delta":122483878},{"NoteNumber":71,"Velocity":39,"Duration":60975,"SoundDuration":60975,"Delta":122544854},{"NoteNumber":73,"Velocity":40,"Duration":61477,"SoundDuration":61477,"Delta":122605829},{"NoteNumber":74,"Velocity":40,"Duration":62502,"SoundDuration":62502,"Delta":122667307},{"NoteNumber":78,"Velocity":42,"Duration":63832,"SoundDuration":63832,"Delta":122729809},{"NoteNumber":79,"Velocity":42,"Duration":64937,"SoundDuration":64937,"Delta":122793641},{"NoteNumber":82,"Velocity":43,"Duration":66079,"SoundDuration":66079,"Delta":122858578},{"NoteNumber":83,"Velocity":43,"Duration":66079,"SoundDuration":66079,"Delta":122924658},{"NoteNumber":85,"Velocity":44,"Duration":86705,"SoundDuration":86705,"Delta":122990737},{"NoteNumber":86,"Velocity":44,"Duration":86705,"SoundDuration":86705,"Delta":123077442},{"NoteNumber":86,"Velocity":60,"Duration":456273,"SoundDuration":456273,"Delta":123164147},{"NoteNumber":61,"Velocity":44,"Duration":304182,"SoundDuration":304182,"Delta":123164147},{"NoteNumber":79,"Velocity":38,"Duration":114068,"SoundDuration":114068,"Delta":123278216},{"NoteNumber":77,"Velocity":38,"Duration":114068,"SoundDuration":114068,"Delta":123392284},{"NoteNumber":65,"Velocity":35,"Duration":297018,"SoundDuration":297018,"Delta":123468330},{"NoteNumber":74,"Velocity":38,"Duration":114068,"SoundDuration":114068,"Delta":123506353},{"NoteNumber":85,"Velocity":57,"Duration":434782,"SoundDuration":434782,"Delta":123620421},{"NoteNumber":79,"Velocity":38,"Duration":108695,"SoundDuration":108695,"Delta":123729117},{"NoteNumber":71,"Velocity":35,"Duration":289855,"SoundDuration":289855,"Delta":123765349},{"NoteNumber":77,"Velocity":38,"Duration":108695,"SoundDuration":108695,"Delta":123837813},{"NoteNumber":73,"Velocity":37,"Duration":108695,"SoundDuration":108695,"Delta":123946509},{"NoteNumber":79,"Velocity":57,"Duration":441175,"SoundDuration":441175,"Delta":124055204},{"NoteNumber":73,"Velocity":42,"Duration":441175,"SoundDuration":441175,"Delta":124055204},{"NoteNumber":77,"Velocity":37,"Duration":110294,"SoundDuration":110294,"Delta":124165498},{"NoteNumber":71,"Velocity":37,"Duration":110293,"SoundDuration":110293,"Delta":124275792},{"NoteNumber":67,"Velocity":37,"Duration":110293,"SoundDuration":110293,"Delta":124386086},{"NoteNumber":80,"Velocity":55,"Duration":442803,"SoundDuration":442803,"Delta":124496380},{"NoteNumber":65,"Velocity":34,"Duration":442803,"SoundDuration":442803,"Delta":124496380},{"NoteNumber":77,"Velocity":38,"Duration":110700,"SoundDuration":110700,"Delta":124607081},{"NoteNumber":71,"Velocity":38,"Duration":110701,"SoundDuration":110701,"Delta":124717782},{"NoteNumber":68,"Velocity":38,"Duration":110700,"SoundDuration":110700,"Delta":124828483},{"NoteNumber":83,"Velocity":59,"Duration":819112,"SoundDuration":819112,"Delta":124939184},{"NoteNumber":61,"Velocity":46,"Duration":204778,"SoundDuration":204778,"Delta":124939184},{"NoteNumber":79,"Velocity":49,"Duration":102389,"SoundDuration":102389,"Delta":125041573},{"NoteNumber":76,"Velocity":49,"Duration":102389,"SoundDuration":102389,"Delta":125143962},{"NoteNumber":64,"Velocity":36,"Duration":204777,"SoundDuration":204777,"Delta":125143962},{"NoteNumber":71,"Velocity":46,"Duration":102388,"SoundDuration":102388,"Delta":125246351},{"NoteNumber":75,"Velocity":45,"Duration":102389,"SoundDuration":102389,"Delta":125348740},{"NoteNumber":67,"Velocity":36,"Duration":204778,"SoundDuration":204778,"Delta":125348740},{"NoteNumber":76,"Velocity":46,"Duration":102389,"SoundDuration":102389,"Delta":125451129},{"NoteNumber":77,"Velocity":47,"Duration":102389,"SoundDuration":102389,"Delta":125553518},{"NoteNumber":71,"Velocity":36,"Duration":204778,"SoundDuration":204778,"Delta":125553518},{"NoteNumber":78,"Velocity":48,"Duration":102389,"SoundDuration":102389,"Delta":125655907},{"NoteNumber":79,"Velocity":49,"Duration":102389,"SoundDuration":102389,"Delta":125758296},{"NoteNumber":76,"Velocity":44,"Duration":409555,"SoundDuration":409555,"Delta":125758296},{"NoteNumber":80,"Velocity":50,"Duration":102388,"SoundDuration":102388,"Delta":125860685},{"NoteNumber":81,"Velocity":52,"Duration":102389,"SoundDuration":102389,"Delta":125963074},{"NoteNumber":82,"Velocity":53,"Duration":102389,"SoundDuration":102389,"Delta":126065463},{"NoteNumber":83,"Velocity":54,"Duration":105633,"SoundDuration":105633,"Delta":126167852},{"NoteNumber":71,"Velocity":38,"Duration":461132,"SoundDuration":461132,"Delta":126167852},{"NoteNumber":88,"Velocity":55,"Duration":105633,"SoundDuration":105633,"Delta":126273486},{"NoteNumber":87,"Velocity":56,"Duration":105633,"SoundDuration":105633,"Delta":126379120},{"NoteNumber":86,"Velocity":57,"Duration":144230,"SoundDuration":144230,"Delta":126484754},{"NoteNumber":86,"Velocity":66,"Duration":430108,"SoundDuration":430108,"Delta":126628984},{"NoteNumber":61,"Velocity":48,"Duration":286738,"SoundDuration":286738,"Delta":126628984},{"NoteNumber":79,"Velocity":42,"Duration":107526,"SoundDuration":107526,"Delta":126736511},{"NoteNumber":77,"Velocity":42,"Duration":107527,"SoundDuration":107527,"Delta":126844038},{"NoteNumber":65,"Velocity":38,"Duration":281300,"SoundDuration":281300,"Delta":126915723},{"NoteNumber":74,"Velocity":42,"Duration":107527,"SoundDuration":107527,"Delta":126951565},{"NoteNumber":85,"Velocity":63,"Duration":413792,"SoundDuration":413792,"Delta":127059092},{"NoteNumber":79,"Velocity":42,"Duration":103448,"SoundDuration":103448,"Delta":127162541},{"NoteNumber":71,"Velocity":38,"Duration":275862,"SoundDuration":275862,"Delta":127197023},{"NoteNumber":77,"Velocity":42,"Duration":103448,"SoundDuration":103448,"Delta":127265989},{"NoteNumber":73,"Velocity":40,"Duration":103448,"SoundDuration":103448,"Delta":127369437},{"NoteNumber":79,"Velocity":63,"Duration":422534,"SoundDuration":422534,"Delta":127472885},{"NoteNumber":73,"Velocity":46,"Duration":422534,"SoundDuration":422534,"Delta":127472885},{"NoteNumber":77,"Velocity":40,"Duration":105633,"SoundDuration":105633,"Delta":127578519},{"NoteNumber":71,"Velocity":40,"Duration":105633,"SoundDuration":105633,"Delta":127684153},{"NoteNumber":67,"Velocity":40,"Duration":105633,"SoundDuration":105633,"Delta":127789787},{"NoteNumber":80,"Velocity":60,"Duration":434783,"SoundDuration":434783,"Delta":127895420},{"NoteNumber":65,"Velocity":37,"Duration":434783,"SoundDuration":434783,"Delta":127895420},{"NoteNumber":77,"Velocity":42,"Duration":108695,"SoundDuration":108695,"Delta":128004116},{"NoteNumber":71,"Velocity":42,"Duration":108695,"SoundDuration":108695,"Delta":128112812},{"NoteNumber":68,"Velocity":42,"Duration":108695,"SoundDuration":108695,"Delta":128221508},{"NoteNumber":83,"Velocity":65,"Duration":819111,"SoundDuration":819111,"Delta":128330203},{"NoteNumber":61,"Velocity":50,"Duration":204778,"SoundDuration":204778,"Delta":128330203},{"NoteNumber":79,"Velocity":52,"Duration":102389,"SoundDuration":102389,"Delta":128432592},{"NoteNumber":76,"Velocity":52,"Duration":102388,"SoundDuration":102388,"Delta":128534981},{"NoteNumber":64,"Velocity":39,"Duration":204778,"SoundDuration":204778,"Delta":128534981},{"NoteNumber":71,"Velocity":48,"Duration":102389,"SoundDuration":102389,"Delta":128637370},{"NoteNumber":75,"Velocity":49,"Duration":102388,"SoundDuration":102388,"Delta":128739759},{"NoteNumber":67,"Velocity":39,"Duration":204778,"SoundDuration":204778,"Delta":128739759},{"NoteNumber":76,"Velocity":50,"Duration":102389,"SoundDuration":102389,"Delta":128842148},{"NoteNumber":77,"Velocity":52,"Duration":102388,"SoundDuration":102388,"Delta":128944537},{"NoteNumber":71,"Velocity":39,"Duration":204777,"SoundDuration":204777,"Delta":128944537},{"NoteNumber":78,"Velocity":54,"Duration":102388,"SoundDuration":102388,"Delta":129046926},{"NoteNumber":79,"Velocity":55,"Duration":102389,"SoundDuration":102389,"Delta":129149315},{"NoteNumber":76,"Velocity":48,"Duration":409909,"SoundDuration":409909,"Delta":129149315},{"NoteNumber":80,"Velocity":57,"Duration":102388,"SoundDuration":102388,"Delta":129251704},{"NoteNumber":81,"Velocity":59,"Duration":102389,"SoundDuration":102389,"Delta":129354093},{"NoteNumber":82,"Velocity":60,"Duration":102742,"SoundDuration":102742,"Delta":129456482},{"NoteNumber":83,"Velocity":63,"Duration":104167,"SoundDuration":104167,"Delta":129559224},{"NoteNumber":71,"Velocity":42,"Duration":432515,"SoundDuration":432515,"Delta":129559224},{"NoteNumber":88,"Velocity":65,"Duration":105511,"SoundDuration":105511,"Delta":129663392},{"NoteNumber":87,"Velocity":66,"Duration":106890,"SoundDuration":106890,"Delta":129768904},{"NoteNumber":86,"Velocity":68,"Duration":115945,"SoundDuration":115945,"Delta":129875794},{"NoteNumber":86,"Velocity":78,"Duration":361446,"SoundDuration":361446,"Delta":129991740},{"NoteNumber":49,"Velocity":57,"Duration":1461593,"SoundDuration":1461593,"Delta":129991740},{"NoteNumber":83,"Velocity":50,"Duration":90361,"SoundDuration":90361,"Delta":130082101},{"NoteNumber":77,"Velocity":50,"Duration":90361,"SoundDuration":90361,"Delta":130172463},{"NoteNumber":74,"Velocity":50,"Duration":90361,"SoundDuration":90361,"Delta":130262824},{"NoteNumber":85,"Velocity":75,"Duration":358208,"SoundDuration":358208,"Delta":130353186},{"NoteNumber":83,"Velocity":50,"Duration":89552,"SoundDuration":89552,"Delta":130442738},{"NoteNumber":77,"Velocity":50,"Duration":89552,"SoundDuration":89552,"Delta":130532290},{"NoteNumber":61,"Velocity":37,"Duration":179104,"SoundDuration":179104,"Delta":130532290},{"NoteNumber":65,"Velocity":37,"Duration":179104,"SoundDuration":179104,"Delta":130532290},{"NoteNumber":71,"Velocity":45,"Duration":179104,"SoundDuration":179104,"Delta":130532290},{"NoteNumber":73,"Velocity":48,"Duration":89552,"SoundDuration":89552,"Delta":130621843},{"NoteNumber":88,"Velocity":75,"Duration":361446,"SoundDuration":361446,"Delta":130711395},{"NoteNumber":65,"Velocity":46,"Duration":361446,"SoundDuration":361446,"Delta":130711395},{"NoteNumber":64,"Velocity":46,"Duration":361446,"SoundDuration":361446,"Delta":130711395},{"NoteNumber":71,"Velocity":54,"Duration":361446,"SoundDuration":361446,"Delta":130711395},{"NoteNumber":83,"Velocity":48,"Duration":90361,"SoundDuration":90361,"Delta":130801756},{"NoteNumber":77,"Velocity":48,"Duration":90361,"SoundDuration":90361,"Delta":130892118},{"NoteNumber":76,"Velocity":48,"Duration":90361,"SoundDuration":90361,"Delta":130982479},{"NoteNumber":86,"Velocity":72,"Duration":380493,"SoundDuration":380493,"Delta":131072841},{"NoteNumber":62,"Velocity":46,"Duration":380493,"SoundDuration":380493,"Delta":131072841},{"NoteNumber":65,"Velocity":46,"Duration":380493,"SoundDuration":380493,"Delta":131072841},{"NoteNumber":71,"Velocity":45,"Duration":380493,"SoundDuration":380493,"Delta":131072841},{"NoteNumber":83,"Velocity":50,"Duration":95123,"SoundDuration":95123,"Delta":131167964},{"NoteNumber":77,"Velocity":50,"Duration":95123,"SoundDuration":95123,"Delta":131263087},{"NoteNumber":74,"Velocity":50,"Duration":95123,"SoundDuration":95123,"Delta":131358211},{"NoteNumber":86,"Velocity":78,"Duration":362538,"SoundDuration":362538,"Delta":131453334},{"NoteNumber":49,"Velocity":57,"Duration":1506454,"SoundDuration":1506454,"Delta":131453334},{"NoteNumber":83,"Velocity":50,"Duration":90634,"SoundDuration":90634,"Delta":131543968},{"NoteNumber":77,"Velocity":49,"Duration":90634,"SoundDuration":90634,"Delta":131634603},{"NoteNumber":74,"Velocity":49,"Duration":90634,"SoundDuration":90634,"Delta":131725237},{"NoteNumber":85,"Velocity":73,"Duration":360360,"SoundDuration":360360,"Delta":131815872},{"NoteNumber":61,"Velocity":36,"Duration":360360,"SoundDuration":360360,"Delta":131815872},{"NoteNumber":65,"Velocity":36,"Duration":360360,"SoundDuration":360360,"Delta":131815872},{"NoteNumber":71,"Velocity":44,"Duration":360360,"SoundDuration":360360,"Delta":131815872},{"NoteNumber":83,"Velocity":48,"Duration":90090,"SoundDuration":90090,"Delta":131905962},{"NoteNumber":77,"Velocity":48,"Duration":90090,"SoundDuration":90090,"Delta":131996052},{"NoteNumber":73,"Velocity":46,"Duration":90090,"SoundDuration":90090,"Delta":132086142},{"NoteNumber":86,"Velocity":71,"Duration":373807,"SoundDuration":373807,"Delta":132176232},{"NoteNumber":65,"Velocity":43,"Duration":373807,"SoundDuration":373807,"Delta":132176232},{"NoteNumber":62,"Velocity":43,"Duration":373807,"SoundDuration":373807,"Delta":132176232},{"NoteNumber":71,"Velocity":51,"Duration":373807,"SoundDuration":373807,"Delta":132176232},{"NoteNumber":83,"Velocity":45,"Duration":93451,"SoundDuration":93451,"Delta":132269684},{"NoteNumber":77,"Velocity":45,"Duration":93452,"SoundDuration":93452,"Delta":132363136},{"NoteNumber":74,"Velocity":45,"Duration":93451,"SoundDuration":93451,"Delta":132456588},{"NoteNumber":88,"Velocity":67,"Duration":409748,"SoundDuration":409748,"Delta":132550040},{"NoteNumber":64,"Velocity":42,"Duration":409748,"SoundDuration":409748,"Delta":132550040},{"NoteNumber":65,"Velocity":42,"Duration":409748,"SoundDuration":409748,"Delta":132550040},{"NoteNumber":71,"Velocity":40,"Duration":409748,"SoundDuration":409748,"Delta":132550040},{"NoteNumber":83,"Velocity":46,"Duration":96972,"SoundDuration":96972,"Delta":132645505},{"NoteNumber":77,"Velocity":46,"Duration":98404,"SoundDuration":98404,"Delta":132742477},{"NoteNumber":76,"Velocity":45,"Duration":118906,"SoundDuration":118906,"Delta":132840882},{"NoteNumber":91,"Velocity":66,"Duration":377357,"SoundDuration":377357,"Delta":132959788},{"NoteNumber":54,"Velocity":48,"Duration":188679,"SoundDuration":188679,"Delta":132959788},{"NoteNumber":84,"Velocity":42,"Duration":94339,"SoundDuration":94339,"Delta":133054128},{"NoteNumber":82,"Velocity":42,"Duration":94339,"SoundDuration":94339,"Delta":133148467},{"NoteNumber":61,"Velocity":42,"Duration":188678,"SoundDuration":188678,"Delta":133148467},{"NoteNumber":79,"Velocity":42,"Duration":94339,"SoundDuration":94339,"Delta":133242807},{"NoteNumber":90,"Velocity":63,"Duration":364742,"SoundDuration":364742,"Delta":133337146},{"NoteNumber":64,"Velocity":40,"Duration":182370,"SoundDuration":182370,"Delta":133337146},{"NoteNumber":84,"Velocity":42,"Duration":91185,"SoundDuration":91185,"Delta":133428332},{"NoteNumber":82,"Velocity":42,"Duration":91185,"SoundDuration":91185,"Delta":133519517},{"NoteNumber":70,"Velocity":39,"Duration":182371,"SoundDuration":182371,"Delta":133519517},{"NoteNumber":78,"Velocity":40,"Duration":91185,"SoundDuration":91185,"Delta":133610703},{"NoteNumber":84,"Velocity":63,"Duration":369231,"SoundDuration":369231,"Delta":133701888},{"NoteNumber":76,"Velocity":46,"Duration":184615,"SoundDuration":184615,"Delta":133701888},{"NoteNumber":82,"Velocity":40,"Duration":92307,"SoundDuration":92307,"Delta":133794196},{"NoteNumber":76,"Velocity":40,"Duration":92307,"SoundDuration":92307,"Delta":133886504},{"NoteNumber":72,"Velocity":40,"Duration":92307,"SoundDuration":92307,"Delta":133978811},{"NoteNumber":85,"Velocity":60,"Duration":386000,"SoundDuration":386000,"Delta":134071119},{"NoteNumber":70,"Velocity":37,"Duration":193000,"SoundDuration":193000,"Delta":134071119},{"NoteNumber":82,"Velocity":42,"Duration":96500,"SoundDuration":96500,"Delta":134167619},{"NoteNumber":76,"Velocity":42,"Duration":96500,"SoundDuration":96500,"Delta":134264120},{"NoteNumber":73,"Velocity":42,"Duration":96500,"SoundDuration":96500,"Delta":134360620},{"NoteNumber":88,"Velocity":65,"Duration":714285,"SoundDuration":714285,"Delta":134457120},{"NoteNumber":54,"Velocity":50,"Duration":119047,"SoundDuration":119047,"Delta":134457120},{"NoteNumber":84,"Velocity":52,"Duration":89285,"SoundDuration":89285,"Delta":134546406},{"NoteNumber":60,"Velocity":42,"Duration":119047,"SoundDuration":119047,"Delta":134576168},{"NoteNumber":81,"Velocity":52,"Duration":89285,"SoundDuration":89285,"Delta":134635692},{"NoteNumber":64,"Velocity":42,"Duration":119047,"SoundDuration":119047,"Delta":134695215},{"NoteNumber":76,"Velocity":48,"Duration":89285,"SoundDuration":89285,"Delta":134724977},{"NoteNumber":80,"Velocity":52,"Duration":89285,"SoundDuration":89285,"Delta":134814263},{"NoteNumber":69,"Velocity":42,"Duration":119047,"SoundDuration":119047,"Delta":134814263},{"NoteNumber":81,"Velocity":54,"Duration":89285,"SoundDuration":89285,"Delta":134903549},{"NoteNumber":72,"Velocity":42,"Duration":119047,"SoundDuration":119047,"Delta":134933311},{"NoteNumber":82,"Velocity":55,"Duration":89285,"SoundDuration":89285,"Delta":134992835},{"NoteNumber":76,"Velocity":42,"Duration":119047,"SoundDuration":119047,"Delta":135052358},{"NoteNumber":83,"Velocity":57,"Duration":89285,"SoundDuration":89285,"Delta":135082120},{"NoteNumber":84,"Velocity":59,"Duration":89285,"SoundDuration":89285,"Delta":135171406},{"NoteNumber":81,"Velocity":48,"Duration":119047,"SoundDuration":119047,"Delta":135171406},{"NoteNumber":85,"Velocity":61,"Duration":89285,"SoundDuration":89285,"Delta":135260692},{"NoteNumber":76,"Velocity":40,"Duration":119047,"SoundDuration":119047,"Delta":135290454},{"NoteNumber":86,"Velocity":64,"Duration":89285,"SoundDuration":89285,"Delta":135349978},{"NoteNumber":73,"Velocity":40,"Duration":119900,"SoundDuration":119900,"Delta":135409501},{"NoteNumber":87,"Velocity":65,"Duration":90138,"SoundDuration":90138,"Delta":135439263},{"NoteNumber":88,"Velocity":67,"Duration":92481,"SoundDuration":92481,"Delta":135529402},{"NoteNumber":69,"Velocity":40,"Duration":123523,"SoundDuration":123523,"Delta":135529402},{"NoteNumber":93,"Velocity":69,"Duration":93675,"SoundDuration":93675,"Delta":135621883},{"NoteNumber":64,"Velocity":40,"Duration":125711,"SoundDuration":125711,"Delta":135652925},{"NoteNumber":92,"Velocity":71,"Duration":94898,"SoundDuration":94898,"Delta":135715559},{"NoteNumber":60,"Velocity":40,"Duration":134761,"SoundDuration":134761,"Delta":135778636},{"NoteNumber":91,"Velocity":73,"Duration":102940,"SoundDuration":102940,"Delta":135810457},{"NoteNumber":91,"Velocity":78,"Duration":325150,"SoundDuration":325150,"Delta":135913398},{"NoteNumber":54,"Velocity":57,"Duration":1317953,"SoundDuration":1317953,"Delta":135913398},{"NoteNumber":88,"Velocity":50,"Duration":81287,"SoundDuration":81287,"Delta":135994685},{"NoteNumber":82,"Velocity":50,"Duration":81287,"SoundDuration":81287,"Delta":136075973},{"NoteNumber":79,"Velocity":50,"Duration":81287,"SoundDuration":81287,"Delta":136157260},{"NoteNumber":90,"Velocity":75,"Duration":326300,"SoundDuration":326300,"Delta":136238548},{"NoteNumber":88,"Velocity":50,"Duration":81575,"SoundDuration":81575,"Delta":136320123},{"NoteNumber":82,"Velocity":50,"Duration":81574,"SoundDuration":81574,"Delta":136401698},{"NoteNumber":66,"Velocity":37,"Duration":163150,"SoundDuration":163150,"Delta":136401698},{"NoteNumber":70,"Velocity":37,"Duration":163150,"SoundDuration":163150,"Delta":136401698},{"NoteNumber":76,"Velocity":45,"Duration":163150,"SoundDuration":163150,"Delta":136401698},{"NoteNumber":78,"Velocity":48,"Duration":81575,"SoundDuration":81575,"Delta":136483273},{"NoteNumber":93,"Velocity":75,"Duration":328551,"SoundDuration":328551,"Delta":136564848},{"NoteNumber":70,"Velocity":46,"Duration":328551,"SoundDuration":328551,"Delta":136564848},{"NoteNumber":69,"Velocity":46,"Duration":328551,"SoundDuration":328551,"Delta":136564848},{"NoteNumber":76,"Velocity":54,"Duration":328551,"SoundDuration":328551,"Delta":136564848},{"NoteNumber":88,"Velocity":51,"Duration":82137,"SoundDuration":82137,"Delta":136646986},{"NoteNumber":82,"Velocity":51,"Duration":82137,"SoundDuration":82137,"Delta":136729123},{"NoteNumber":81,"Velocity":51,"Duration":82137,"SoundDuration":82137,"Delta":136811261},{"NoteNumber":91,"Velocity":72,"Duration":337952,"SoundDuration":337952,"Delta":136893399},{"NoteNumber":67,"Velocity":46,"Duration":337952,"SoundDuration":337952,"Delta":136893399},{"NoteNumber":70,"Velocity":46,"Duration":337952,"SoundDuration":337952,"Delta":136893399},{"NoteNumber":76,"Velocity":45,"Duration":337952,"SoundDuration":337952,"Delta":136893399},{"NoteNumber":88,"Velocity":53,"Duration":84487,"SoundDuration":84487,"Delta":136977887},{"NoteNumber":82,"Velocity":54,"Duration":84488,"SoundDuration":84488,"Delta":137062375},{"NoteNumber":79,"Velocity":54,"Duration":84487,"SoundDuration":84487,"Delta":137146863},{"NoteNumber":91,"Velocity":81,"Duration":325150,"SoundDuration":325150,"Delta":137231351},{"NoteNumber":54,"Velocity":59,"Duration":1319043,"SoundDuration":1319043,"Delta":137231351},{"NoteNumber":88,"Velocity":55,"Duration":81287,"SoundDuration":81287,"Delta":137312638},{"NoteNumber":82,"Velocity":55,"Duration":81287,"SoundDuration":81287,"Delta":137393926},{"NoteNumber":79,"Velocity":55,"Duration":81287,"SoundDuration":81287,"Delta":137475213},{"NoteNumber":90,"Velocity":82,"Duration":325150,"SoundDuration":325150,"Delta":137556501},{"NoteNumber":66,"Velocity":38,"Duration":325150,"SoundDuration":325150,"Delta":137556501},{"NoteNumber":70,"Velocity":38,"Duration":325150,"SoundDuration":325150,"Delta":137556501},{"NoteNumber":76,"Velocity":46,"Duration":325150,"SoundDuration":325150,"Delta":137556501},{"NoteNumber":88,"Velocity":58,"Duration":81287,"SoundDuration":81287,"Delta":137637788},{"NoteNumber":82,"Velocity":58,"Duration":81287,"SoundDuration":81287,"Delta":137719076},{"NoteNumber":78,"Velocity":58,"Duration":81287,"SoundDuration":81287,"Delta":137800363},{"NoteNumber":91,"Velocity":87,"Duration":332005,"SoundDuration":332005,"Delta":137881651},{"NoteNumber":70,"Velocity":45,"Duration":332005,"SoundDuration":332005,"Delta":137881651},{"NoteNumber":67,"Velocity":45,"Duration":332005,"SoundDuration":332005,"Delta":137881651},{"NoteNumber":76,"Velocity":54,"Duration":332005,"SoundDuration":332005,"Delta":137881651},{"NoteNumber":88,"Velocity":59,"Duration":83001,"SoundDuration":83001,"Delta":137964652},{"NoteNumber":82,"Velocity":59,"Duration":83001,"SoundDuration":83001,"Delta":138047653},{"NoteNumber":79,"Velocity":59,"Duration":83001,"SoundDuration":83001,"Delta":138130655},{"NoteNumber":93,"Velocity":90,"Duration":336737,"SoundDuration":336737,"Delta":138213656},{"NoteNumber":69,"Velocity":45,"Duration":336737,"SoundDuration":336737,"Delta":138213656},{"NoteNumber":70,"Velocity":45,"Duration":336737,"SoundDuration":336737,"Delta":138213656},{"NoteNumber":76,"Velocity":44,"Duration":336737,"SoundDuration":336737,"Delta":138213656},{"NoteNumber":88,"Velocity":60,"Duration":84184,"SoundDuration":84184,"Delta":138297840},{"NoteNumber":82,"Velocity":61,"Duration":84184,"SoundDuration":84184,"Delta":138382025},{"NoteNumber":81,"Velocity":63,"Duration":84184,"SoundDuration":84184,"Delta":138466209},{"NoteNumber":96,"Velocity":91,"Duration":327868,"SoundDuration":327868,"Delta":138550394},{"NoteNumber":55,"Velocity":70,"Duration":651319,"SoundDuration":651319,"Delta":138550394},{"NoteNumber":89,"Velocity":61,"Duration":81967,"SoundDuration":81967,"Delta":138632361},{"NoteNumber":85,"Velocity":61,"Duration":81967,"SoundDuration":81967,"Delta":138714328},{"NoteNumber":61,"Velocity":58,"Duration":163934,"SoundDuration":163934,"Delta":138714328},{"NoteNumber":84,"Velocity":61,"Duration":81967,"SoundDuration":81967,"Delta":138796296},{"NoteNumber":94,"Velocity":88,"Duration":323450,"SoundDuration":323450,"Delta":138878263},{"NoteNumber":65,"Velocity":58,"Duration":161724,"SoundDuration":161724,"Delta":138878263},{"NoteNumber":89,"Velocity":63,"Duration":80862,"SoundDuration":80862,"Delta":138959125},{"NoteNumber":85,"Velocity":63,"Duration":80862,"SoundDuration":80862,"Delta":139039988},{"NoteNumber":70,"Velocity":58,"Duration":161725,"SoundDuration":161725,"Delta":139039988},{"NoteNumber":82,"Velocity":61,"Duration":80862,"SoundDuration":80862,"Delta":139120850},{"NoteNumber":87,"Velocity":87,"Duration":328766,"SoundDuration":328766,"Delta":139201713},{"NoteNumber":58,"Velocity":68,"Duration":662100,"SoundDuration":662100,"Delta":139201713},{"NoteNumber":85,"Velocity":60,"Duration":82191,"SoundDuration":82191,"Delta":139283905},{"NoteNumber":84,"Velocity":60,"Duration":82191,"SoundDuration":82191,"Delta":139366096},{"NoteNumber":75,"Velocity":60,"Duration":82191,"SoundDuration":82191,"Delta":139448288},{"NoteNumber":88,"Velocity":88,"Duration":333333,"SoundDuration":333333,"Delta":139530480},{"NoteNumber":64,"Velocity":60,"Duration":333333,"SoundDuration":333333,"Delta":139530480},{"NoteNumber":68,"Velocity":60,"Duration":333333,"SoundDuration":333333,"Delta":139530480},{"NoteNumber":73,"Velocity":60,"Duration":333333,"SoundDuration":333333,"Delta":139530480},{"NoteNumber":85,"Velocity":61,"Duration":83333,"SoundDuration":83333,"Delta":139613813},{"NoteNumber":80,"Velocity":61,"Duration":83333,"SoundDuration":83333,"Delta":139697146},{"NoteNumber":76,"Velocity":61,"Duration":83333,"SoundDuration":83333,"Delta":139780480},{"NoteNumber":91,"Velocity":90,"Duration":654843,"SoundDuration":654843,"Delta":139863813},{"NoteNumber":61,"Velocity":75,"Duration":654843,"SoundDuration":654843,"Delta":139863813},{"NoteNumber":89,"Velocity":68,"Duration":81855,"SoundDuration":81855,"Delta":139945668},{"NoteNumber":83,"Velocity":68,"Duration":81855,"SoundDuration":81855,"Delta":140027524},{"NoteNumber":67,"Velocity":61,"Duration":163711,"SoundDuration":163711,"Delta":140027524},{"NoteNumber":79,"Velocity":61,"Duration":81855,"SoundDuration":81855,"Delta":140109379},{"NoteNumber":80,"Velocity":64,"Duration":81855,"SoundDuration":81855,"Delta":140191235},{"NoteNumber":71,"Velocity":61,"Duration":163710,"SoundDuration":163710,"Delta":140191235},{"NoteNumber":81,"Velocity":65,"Duration":81855,"SoundDuration":81855,"Delta":140273090},{"NoteNumber":82,"Velocity":67,"Duration":81855,"SoundDuration":81855,"Delta":140354946},{"NoteNumber":76,"Velocity":61,"Duration":163711,"SoundDuration":163711,"Delta":140354946},{"NoteNumber":83,"Velocity":69,"Duration":81855,"SoundDuration":81855,"Delta":140436801},{"NoteNumber":84,"Velocity":71,"Duration":81855,"SoundDuration":81855,"Delta":140518657},{"NoteNumber":61,"Velocity":71,"Duration":327328,"SoundDuration":327328,"Delta":140518657},{"NoteNumber":67,"Velocity":71,"Duration":327328,"SoundDuration":327328,"Delta":140518657},{"NoteNumber":71,"Velocity":71,"Duration":327328,"SoundDuration":327328,"Delta":140518657},{"NoteNumber":85,"Velocity":73,"Duration":81855,"SoundDuration":81855,"Delta":140600512},{"NoteNumber":86,"Velocity":75,"Duration":81855,"SoundDuration":81855,"Delta":140682368},{"NoteNumber":87,"Velocity":77,"Duration":81761,"SoundDuration":81761,"Delta":140764223},{"NoteNumber":88,"Velocity":79,"Duration":82140,"SoundDuration":82140,"Delta":140845985},{"NoteNumber":58,"Velocity":59,"Duration":341054,"SoundDuration":341054,"Delta":140845985},{"NoteNumber":64,"Velocity":59,"Duration":341054,"SoundDuration":341054,"Delta":140845985},{"NoteNumber":68,"Velocity":59,"Duration":341054,"SoundDuration":341054,"Delta":140845985},{"NoteNumber":89,"Velocity":81,"Duration":83199,"SoundDuration":83199,"Delta":140928125},{"NoteNumber":90,"Velocity":84,"Duration":84285,"SoundDuration":84285,"Delta":141011325},{"NoteNumber":91,"Velocity":86,"Duration":91429,"SoundDuration":91429,"Delta":141095610},{"NoteNumber":96,"Velocity":90,"Duration":289854,"SoundDuration":289854,"Delta":141187040},{"NoteNumber":55,"Velocity":72,"Duration":581825,"SoundDuration":581825,"Delta":141187040},{"NoteNumber":89,"Velocity":64,"Duration":72463,"SoundDuration":72463,"Delta":141259504},{"NoteNumber":61,"Velocity":52,"Duration":96618,"SoundDuration":96618,"Delta":141283658},{"NoteNumber":85,"Velocity":65,"Duration":72463,"SoundDuration":72463,"Delta":141331968},{"NoteNumber":65,"Velocity":60,"Duration":96618,"SoundDuration":96618,"Delta":141380277},{"NoteNumber":84,"Velocity":65,"Duration":72463,"SoundDuration":72463,"Delta":141404431},{"NoteNumber":94,"Velocity":86,"Duration":291970,"SoundDuration":291970,"Delta":141476895},{"NoteNumber":67,"Velocity":61,"Duration":97323,"SoundDuration":97323,"Delta":141476895},{"NoteNumber":89,"Velocity":65,"Duration":72992,"SoundDuration":72992,"Delta":141549888},{"NoteNumber":73,"Velocity":61,"Duration":97323,"SoundDuration":97323,"Delta":141574219},{"NoteNumber":85,"Velocity":65,"Duration":72992,"SoundDuration":72992,"Delta":141622881},{"NoteNumber":77,"Velocity":61,"Duration":97323,"SoundDuration":97323,"Delta":141671542},{"NoteNumber":82,"Velocity":65,"Duration":72992,"SoundDuration":72992,"Delta":141695873},{"NoteNumber":97,"Velocity":91,"Duration":294117,"SoundDuration":294117,"Delta":141768866},{"NoteNumber":70,"Velocity":70,"Duration":594462,"SoundDuration":594462,"Delta":141768866},{"NoteNumber":92,"Velocity":59,"Duration":73529,"SoundDuration":73529,"Delta":141842396},{"NoteNumber":88,"Velocity":60,"Duration":73529,"SoundDuration":73529,"Delta":141915925},{"NoteNumber":76,"Velocity":58,"Duration":147058,"SoundDuration":147058,"Delta":141915925},{"NoteNumber":85,"Velocity":60,"Duration":73529,"SoundDuration":73529,"Delta":141989455},{"NoteNumber":96,"Velocity":88,"Duration":300344,"SoundDuration":300344,"Delta":142062984},{"NoteNumber":80,"Velocity":58,"Duration":150172,"SoundDuration":150172,"Delta":142062984},{"NoteNumber":92,"Velocity":64,"Duration":75086,"SoundDuration":75086,"Delta":142138070},{"NoteNumber":88,"Velocity":64,"Duration":75086,"SoundDuration":75086,"Delta":142213157},{"NoteNumber":85,"Velocity":58,"Duration":150172,"SoundDuration":150172,"Delta":142213157},{"NoteNumber":84,"Velocity":64,"Duration":75086,"SoundDuration":75086,"Delta":142288243},{"NoteNumber":96,"Velocity":91,"Duration":288961,"SoundDuration":288961,"Delta":142363329},{"NoteNumber":67,"Velocity":68,"Duration":577923,"SoundDuration":577923,"Delta":142363329},{"NoteNumber":89,"Velocity":67,"Duration":72240,"SoundDuration":72240,"Delta":142435570},{"NoteNumber":85,"Velocity":67,"Duration":72240,"SoundDuration":72240,"Delta":142507810},{"NoteNumber":73,"Velocity":60,"Duration":192641,"SoundDuration":192641,"Delta":142555970},{"NoteNumber":84,"Velocity":67,"Duration":72240,"SoundDuration":72240,"Delta":142580051},{"NoteNumber":94,"Velocity":90,"Duration":288961,"SoundDuration":288961,"Delta":142652291},{"NoteNumber":89,"Velocity":67,"Duration":72240,"SoundDuration":72240,"Delta":142724532},{"NoteNumber":77,"Velocity":60,"Duration":192641,"SoundDuration":192641,"Delta":142748612},{"NoteNumber":85,"Velocity":67,"Duration":72240,"SoundDuration":72240,"Delta":142796772},{"NoteNumber":82,"Velocity":67,"Duration":72240,"SoundDuration":72240,"Delta":142869013},{"NoteNumber":96,"Velocity":95,"Duration":295042,"SoundDuration":295042,"Delta":142941253},{"NoteNumber":70,"Velocity":70,"Duration":594294,"SoundDuration":594294,"Delta":142941253},{"NoteNumber":92,"Velocity":68,"Duration":73760,"SoundDuration":73760,"Delta":143015014},{"NoteNumber":88,"Velocity":68,"Duration":73760,"SoundDuration":73760,"Delta":143088775},{"NoteNumber":76,"Velocity":59,"Duration":147521,"SoundDuration":147521,"Delta":143088775},{"NoteNumber":84,"Velocity":68,"Duration":73760,"SoundDuration":73760,"Delta":143162535},{"NoteNumber":97,"Velocity":93,"Duration":299251,"SoundDuration":299251,"Delta":143236296},{"NoteNumber":80,"Velocity":59,"Duration":149626,"SoundDuration":149626,"Delta":143236296},{"NoteNumber":92,"Velocity":69,"Duration":74813,"SoundDuration":74813,"Delta":143311109},{"NoteNumber":88,"Velocity":69,"Duration":74812,"SoundDuration":74812,"Delta":143385922},{"NoteNumber":82,"Velocity":59,"Duration":149625,"SoundDuration":149625,"Delta":143385922},{"NoteNumber":85,"Velocity":69,"Duration":74813,"SoundDuration":74813,"Delta":143460735},{"NoteNumber":98,"Velocity":97,"Duration":279719,"SoundDuration":279719,"Delta":143535548},{"NoteNumber":69,"Velocity":74,"Duration":562072,"SoundDuration":562072,"Delta":143535548},{"NoteNumber":91,"Velocity":66,"Duration":69929,"SoundDuration":69929,"Delta":143605478},{"NoteNumber":87,"Velocity":67,"Duration":69929,"SoundDuration":69929,"Delta":143675408},{"NoteNumber":75,"Velocity":65,"Duration":187357,"SoundDuration":187357,"Delta":143722028},{"NoteNumber":86,"Velocity":67,"Duration":69929,"SoundDuration":69929,"Delta":143745338},{"NoteNumber":96,"Velocity":93,"Duration":282353,"SoundDuration":282353,"Delta":143815268},{"NoteNumber":91,"Velocity":67,"Duration":70588,"SoundDuration":70588,"Delta":143885856},{"NoteNumber":79,"Velocity":65,"Duration":188235,"SoundDuration":188235,"Delta":143909386},{"NoteNumber":87,"Velocity":67,"Duration":70588,"SoundDuration":70588,"Delta":143956445},{"NoteNumber":84,"Velocity":67,"Duration":70588,"SoundDuration":70588,"Delta":144027033},{"NoteNumber":99,"Velocity":94,"Duration":284359,"SoundDuration":284359,"Delta":144097621},{"NoteNumber":69,"Velocity":72,"Duration":573516,"SoundDuration":573516,"Delta":144097621},{"NoteNumber":94,"Velocity":60,"Duration":71089,"SoundDuration":71089,"Delta":144168711},{"NoteNumber":90,"Velocity":61,"Duration":71089,"SoundDuration":71089,"Delta":144239801},{"NoteNumber":78,"Velocity":59,"Duration":142179,"SoundDuration":142179,"Delta":144239801},{"NoteNumber":87,"Velocity":61,"Duration":71089,"SoundDuration":71089,"Delta":144310891},{"NoteNumber":98,"Velocity":91,"Duration":289156,"SoundDuration":289156,"Delta":144381981},{"NoteNumber":82,"Velocity":59,"Duration":144578,"SoundDuration":144578,"Delta":144381981},{"NoteNumber":94,"Velocity":66,"Duration":72289,"SoundDuration":72289,"Delta":144454270},{"NoteNumber":90,"Velocity":66,"Duration":72289,"SoundDuration":72289,"Delta":144526560},{"NoteNumber":87,"Velocity":59,"Duration":144578,"SoundDuration":144578,"Delta":144526560},{"NoteNumber":86,"Velocity":66,"Duration":72289,"SoundDuration":72289,"Delta":144598849},{"NoteNumber":98,"Velocity":94,"Duration":277778,"SoundDuration":277778,"Delta":144671138},{"NoteNumber":69,"Velocity":70,"Duration":558807,"SoundDuration":558807,"Delta":144671138},{"NoteNumber":91,"Velocity":69,"Duration":69444,"SoundDuration":69444,"Delta":144740583},{"NoteNumber":87,"Velocity":69,"Duration":69444,"SoundDuration":69444,"Delta":144810027},{"NoteNumber":75,"Velocity":61,"Duration":186269,"SoundDuration":186269,"Delta":144856323},{"NoteNumber":86,"Velocity":69,"Duration":69444,"SoundDuration":69444,"Delta":144879472},{"NoteNumber":96,"Velocity":93,"Duration":281029,"SoundDuration":281029,"Delta":144948916},{"NoteNumber":91,"Velocity":69,"Duration":70257,"SoundDuration":70257,"Delta":145019174},{"NoteNumber":79,"Velocity":61,"Duration":187353,"SoundDuration":187353,"Delta":145042593},{"NoteNumber":87,"Velocity":69,"Duration":70257,"SoundDuration":70257,"Delta":145089431},{"NoteNumber":84,"Velocity":69,"Duration":70257,"SoundDuration":70257,"Delta":145159689},{"NoteNumber":98,"Velocity":99,"Duration":285035,"SoundDuration":285035,"Delta":145229946},{"NoteNumber":72,"Velocity":72,"Duration":574192,"SoundDuration":574192,"Delta":145229946},{"NoteNumber":94,"Velocity":70,"Duration":71258,"SoundDuration":71258,"Delta":145301205},{"NoteNumber":90,"Velocity":70,"Duration":71258,"SoundDuration":71258,"Delta":145372464},{"NoteNumber":78,"Velocity":60,"Duration":142517,"SoundDuration":142517,"Delta":145372464},{"NoteNumber":86,"Velocity":70,"Duration":71258,"SoundDuration":71258,"Delta":145443723},{"NoteNumber":99,"Velocity":96,"Duration":289156,"SoundDuration":289156,"Delta":145514982},{"NoteNumber":82,"Velocity":60,"Duration":144578,"SoundDuration":144578,"Delta":145514982},{"NoteNumber":94,"Velocity":71,"Duration":72289,"SoundDuration":72289,"Delta":145587271},{"NoteNumber":90,"Velocity":71,"Duration":72289,"SoundDuration":72289,"Delta":145659561},{"NoteNumber":84,"Velocity":60,"Duration":144578,"SoundDuration":144578,"Delta":145659561},{"NoteNumber":87,"Velocity":71,"Duration":72289,"SoundDuration":72289,"Delta":145731850},{"NoteNumber":101,"Velocity":101,"Duration":265487,"SoundDuration":265487,"Delta":145804139},{"NoteNumber":72,"Velocity":76,"Duration":265487,"SoundDuration":265487,"Delta":145804139},{"NoteNumber":94,"Velocity":72,"Duration":66371,"SoundDuration":66371,"Delta":145870511},{"NoteNumber":78,"Velocity":57,"Duration":88495,"SoundDuration":88495,"Delta":145892635},{"NoteNumber":90,"Velocity":73,"Duration":66371,"SoundDuration":66371,"Delta":145936883},{"NoteNumber":82,"Velocity":58,"Duration":88495,"SoundDuration":88495,"Delta":145981130},{"NoteNumber":89,"Velocity":73,"Duration":66371,"SoundDuration":66371,"Delta":146003254},{"NoteNumber":99,"Velocity":98,"Duration":267260,"SoundDuration":267260,"Delta":146069626},{"NoteNumber":73,"Velocity":75,"Duration":267260,"SoundDuration":267260,"Delta":146069626},{"NoteNumber":95,"Velocity":73,"Duration":66815,"SoundDuration":66815,"Delta":146136441},{"NoteNumber":79,"Velocity":57,"Duration":89087,"SoundDuration":89087,"Delta":146158713},{"NoteNumber":91,"Velocity":73,"Duration":66815,"SoundDuration":66815,"Delta":146203257},{"NoteNumber":83,"Velocity":58,"Duration":89086,"SoundDuration":89086,"Delta":146247800},{"NoteNumber":87,"Velocity":73,"Duration":66815,"SoundDuration":66815,"Delta":146270072},{"NoteNumber":102,"Velocity":102,"Duration":267856,"SoundDuration":267856,"Delta":146336887},{"NoteNumber":74,"Velocity":78,"Duration":267856,"SoundDuration":267856,"Delta":146336887},{"NoteNumber":96,"Velocity":67,"Duration":66964,"SoundDuration":66964,"Delta":146403851},{"NoteNumber":80,"Velocity":57,"Duration":89285,"SoundDuration":89285,"Delta":146426173},{"NoteNumber":92,"Velocity":68,"Duration":66964,"SoundDuration":66964,"Delta":146470816},{"NoteNumber":84,"Velocity":58,"Duration":89285,"SoundDuration":89285,"Delta":146515458},{"NoteNumber":90,"Velocity":68,"Duration":66964,"SoundDuration":66964,"Delta":146537780},{"NoteNumber":101,"Velocity":99,"Duration":270270,"SoundDuration":270270,"Delta":146604744},{"NoteNumber":75,"Velocity":76,"Duration":270270,"SoundDuration":270270,"Delta":146604744},{"NoteNumber":97,"Velocity":72,"Duration":67567,"SoundDuration":67567,"Delta":146672312},{"NoteNumber":81,"Velocity":57,"Duration":90090,"SoundDuration":90090,"Delta":146694834},{"NoteNumber":93,"Velocity":72,"Duration":67567,"SoundDuration":67567,"Delta":146739879},{"NoteNumber":85,"Velocity":57,"Duration":90090,"SoundDuration":90090,"Delta":146784924},{"NoteNumber":89,"Velocity":72,"Duration":67567,"SoundDuration":67567,"Delta":146807447},{"NoteNumber":101,"Velocity":101,"Duration":266075,"SoundDuration":266075,"Delta":146875014},{"NoteNumber":72,"Velocity":76,"Duration":266075,"SoundDuration":266075,"Delta":146875014},{"NoteNumber":94,"Velocity":72,"Duration":66518,"SoundDuration":66518,"Delta":146941533},{"NoteNumber":78,"Velocity":56,"Duration":88691,"SoundDuration":88691,"Delta":146963706},{"NoteNumber":90,"Velocity":73,"Duration":66518,"SoundDuration":66518,"Delta":147008052},{"NoteNumber":82,"Velocity":56,"Duration":88691,"SoundDuration":88691,"Delta":147052397},{"NoteNumber":89,"Velocity":73,"Duration":66518,"SoundDuration":66518,"Delta":147074570},{"NoteNumber":99,"Velocity":98,"Duration":266667,"SoundDuration":266667,"Delta":147141089},{"NoteNumber":73,"Velocity":75,"Duration":266667,"SoundDuration":266667,"Delta":147141089},{"NoteNumber":95,"Velocity":73,"Duration":66666,"SoundDuration":66666,"Delta":147207756},{"NoteNumber":79,"Velocity":58,"Duration":88888,"SoundDuration":88888,"Delta":147229978},{"NoteNumber":91,"Velocity":73,"Duration":66666,"SoundDuration":66666,"Delta":147274423},{"NoteNumber":83,"Velocity":58,"Duration":88889,"SoundDuration":88889,"Delta":147318867},{"NoteNumber":87,"Velocity":73,"Duration":66666,"SoundDuration":66666,"Delta":147341089},{"NoteNumber":102,"Velocity":102,"Duration":269058,"SoundDuration":269058,"Delta":147407756},{"NoteNumber":74,"Velocity":78,"Duration":269058,"SoundDuration":269058,"Delta":147407756},{"NoteNumber":96,"Velocity":67,"Duration":67264,"SoundDuration":67264,"Delta":147475021},{"NoteNumber":80,"Velocity":58,"Duration":89686,"SoundDuration":89686,"Delta":147497442},{"NoteNumber":92,"Velocity":68,"Duration":67264,"SoundDuration":67264,"Delta":147542285},{"NoteNumber":84,"Velocity":58,"Duration":89686,"SoundDuration":89686,"Delta":147587128},{"NoteNumber":90,"Velocity":68,"Duration":67264,"SoundDuration":67264,"Delta":147609550},{"NoteNumber":101,"Velocity":99,"Duration":272727,"SoundDuration":272727,"Delta":147676814},{"NoteNumber":75,"Velocity":76,"Duration":272727,"SoundDuration":272727,"Delta":147676814},{"NoteNumber":97,"Velocity":72,"Duration":68181,"SoundDuration":68181,"Delta":147744996},{"NoteNumber":81,"Velocity":58,"Duration":90908,"SoundDuration":90908,"Delta":147767723},{"NoteNumber":93,"Velocity":72,"Duration":68181,"SoundDuration":68181,"Delta":147813178},{"NoteNumber":85,"Velocity":58,"Duration":90909,"SoundDuration":90909,"Delta":147858632},{"NoteNumber":89,"Velocity":72,"Duration":68181,"SoundDuration":68181,"Delta":147881359},{"NoteNumber":101,"Velocity":101,"Duration":266075,"SoundDuration":266075,"Delta":147949541},{"NoteNumber":72,"Velocity":76,"Duration":266075,"SoundDuration":266075,"Delta":147949541},{"NoteNumber":94,"Velocity":72,"Duration":66518,"SoundDuration":66518,"Delta":148016060},{"NoteNumber":78,"Velocity":56,"Duration":88691,"SoundDuration":88691,"Delta":148038233},{"NoteNumber":90,"Velocity":73,"Duration":66518,"SoundDuration":66518,"Delta":148082579},{"NoteNumber":82,"Velocity":56,"Duration":88691,"SoundDuration":88691,"Delta":148126924},{"NoteNumber":89,"Velocity":73,"Duration":66518,"SoundDuration":66518,"Delta":148149097},{"NoteNumber":99,"Velocity":98,"Duration":267260,"SoundDuration":267260,"Delta":148215616},{"NoteNumber":73,"Velocity":75,"Duration":267260,"SoundDuration":267260,"Delta":148215616},{"NoteNumber":95,"Velocity":73,"Duration":66815,"SoundDuration":66815,"Delta":148282431},{"NoteNumber":79,"Velocity":57,"Duration":89087,"SoundDuration":89087,"Delta":148304703},{"NoteNumber":91,"Velocity":73,"Duration":66815,"SoundDuration":66815,"Delta":148349247},{"NoteNumber":83,"Velocity":58,"Duration":89086,"SoundDuration":89086,"Delta":148393790},{"NoteNumber":87,"Velocity":73,"Duration":66815,"SoundDuration":66815,"Delta":148416062},{"NoteNumber":102,"Velocity":102,"Duration":268455,"SoundDuration":268455,"Delta":148482877},{"NoteNumber":74,"Velocity":78,"Duration":268455,"SoundDuration":268455,"Delta":148482877},{"NoteNumber":96,"Velocity":67,"Duration":67114,"SoundDuration":67114,"Delta":148549991},{"NoteNumber":80,"Velocity":57,"Duration":89485,"SoundDuration":89485,"Delta":148572362},{"NoteNumber":92,"Velocity":68,"Duration":67114,"SoundDuration":67114,"Delta":148617105},{"NoteNumber":84,"Velocity":57,"Duration":89485,"SoundDuration":89485,"Delta":148661848},{"NoteNumber":90,"Velocity":68,"Duration":67113,"SoundDuration":67113,"Delta":148684219},{"NoteNumber":101,"Velocity":99,"Duration":272109,"SoundDuration":272109,"Delta":148751333},{"NoteNumber":75,"Velocity":76,"Duration":272109,"SoundDuration":272109,"Delta":148751333},{"NoteNumber":97,"Velocity":72,"Duration":68027,"SoundDuration":68027,"Delta":148819360},{"NoteNumber":81,"Velocity":58,"Duration":90703,"SoundDuration":90703,"Delta":148842036},{"NoteNumber":93,"Velocity":72,"Duration":68027,"SoundDuration":68027,"Delta":148887388},{"NoteNumber":85,"Velocity":58,"Duration":90702,"SoundDuration":90702,"Delta":148932739},{"NoteNumber":89,"Velocity":72,"Duration":68027,"SoundDuration":68027,"Delta":148955415},{"NoteNumber":101,"Velocity":101,"Duration":266075,"SoundDuration":266075,"Delta":149023442},{"NoteNumber":72,"Velocity":76,"Duration":266075,"SoundDuration":266075,"Delta":149023442},{"NoteNumber":94,"Velocity":72,"Duration":66518,"SoundDuration":66518,"Delta":149089961},{"NoteNumber":78,"Velocity":58,"Duration":88691,"SoundDuration":88691,"Delta":149112134},{"NoteNumber":90,"Velocity":73,"Duration":66518,"SoundDuration":66518,"Delta":149156480},{"NoteNumber":82,"Velocity":58,"Duration":88691,"SoundDuration":88691,"Delta":149200825},{"NoteNumber":89,"Velocity":73,"Duration":66518,"SoundDuration":66518,"Delta":149222998},{"NoteNumber":99,"Velocity":98,"Duration":267260,"SoundDuration":267260,"Delta":149289517},{"NoteNumber":73,"Velocity":75,"Duration":267260,"SoundDuration":267260,"Delta":149289517},{"NoteNumber":95,"Velocity":73,"Duration":66815,"SoundDuration":66815,"Delta":149356332},{"NoteNumber":79,"Velocity":59,"Duration":89087,"SoundDuration":89087,"Delta":149378604},{"NoteNumber":91,"Velocity":73,"Duration":66815,"SoundDuration":66815,"Delta":149423148},{"NoteNumber":83,"Velocity":59,"Duration":89086,"SoundDuration":89086,"Delta":149467691},{"NoteNumber":87,"Velocity":73,"Duration":66815,"SoundDuration":66815,"Delta":149489963},{"NoteNumber":101,"Velocity":102,"Duration":282696,"SoundDuration":282696,"Delta":149556778},{"NoteNumber":74,"Velocity":78,"Duration":282696,"SoundDuration":282696,"Delta":149556778},{"NoteNumber":96,"Velocity":67,"Duration":69448,"SoundDuration":69448,"Delta":149624646},{"NoteNumber":80,"Velocity":58,"Duration":94019,"SoundDuration":94019,"Delta":149647582},{"NoteNumber":92,"Velocity":68,"Duration":71603,"SoundDuration":71603,"Delta":149694095},{"NoteNumber":84,"Velocity":58,"Duration":97872,"SoundDuration":97872,"Delta":149741602},{"NoteNumber":89,"Velocity":68,"Duration":73776,"SoundDuration":73776,"Delta":149765698},{"NoteNumber":102,"Velocity":99,"Duration":330336,"SoundDuration":330336,"Delta":149839474},{"NoteNumber":75,"Velocity":76,"Duration":330336,"SoundDuration":330336,"Delta":149839474},{"NoteNumber":97,"Velocity":72,"Duration":78400,"SoundDuration":78400,"Delta":149915622},{"NoteNumber":81,"Velocity":58,"Duration":104986,"SoundDuration":104986,"Delta":149941529},{"NoteNumber":93,"Velocity":72,"Duration":78740,"SoundDuration":78740,"Delta":149994022},{"NoteNumber":85,"Velocity":57,"Duration":123295,"SoundDuration":123295,"Delta":150046516},{"NoteNumber":90,"Velocity":72,"Duration":97048,"SoundDuration":97048,"Delta":150072762},{"NoteNumber":99,"Velocity":92,"Duration":761005,"SoundDuration":761005,"Delta":150169811},{"NoteNumber":94,"Velocity":88,"Duration":761005,"SoundDuration":761005,"Delta":150169811},{"NoteNumber":106,"Velocity":105,"Duration":761005,"SoundDuration":761005,"Delta":150169811},{"NoteNumber":56,"Velocity":68,"Duration":81714,"SoundDuration":81714,"Delta":150169811},{"NoteNumber":58,"Velocity":69,"Duration":78593,"SoundDuration":78593,"Delta":150251526},{"NoteNumber":61,"Velocity":70,"Duration":75697,"SoundDuration":75697,"Delta":150330119},{"NoteNumber":63,"Velocity":72,"Duration":75000,"SoundDuration":75000,"Delta":150405817},{"NoteNumber":66,"Velocity":73,"Duration":74999,"SoundDuration":74999,"Delta":150480817},{"NoteNumber":68,"Velocity":74,"Duration":74999,"SoundDuration":74999,"Delta":150555817},{"NoteNumber":70,"Velocity":75,"Duration":75000,"SoundDuration":75000,"Delta":150630817},{"NoteNumber":73,"Velocity":77,"Duration":74999,"SoundDuration":74999,"Delta":150705817},{"NoteNumber":75,"Velocity":78,"Duration":75000,"SoundDuration":75000,"Delta":150780817},{"NoteNumber":78,"Velocity":79,"Duration":74999,"SoundDuration":74999,"Delta":150855817},{"NoteNumber":68,"Velocity":76,"Duration":74999,"SoundDuration":74999,"Delta":150930817},{"NoteNumber":70,"Velocity":77,"Duration":75000,"SoundDuration":75000,"Delta":151005817},{"NoteNumber":73,"Velocity":79,"Duration":74999,"SoundDuration":74999,"Delta":151080817},{"NoteNumber":75,"Velocity":80,"Duration":75000,"SoundDuration":75000,"Delta":151155817},{"NoteNumber":78,"Velocity":82,"Duration":74999,"SoundDuration":74999,"Delta":151230817},{"NoteNumber":80,"Velocity":84,"Duration":75039,"SoundDuration":75039,"Delta":151305817},{"NoteNumber":82,"Velocity":86,"Duration":75491,"SoundDuration":75491,"Delta":151380856},{"NoteNumber":85,"Velocity":87,"Duration":76070,"SoundDuration":76070,"Delta":151456348},{"NoteNumber":87,"Velocity":89,"Duration":76759,"SoundDuration":76759,"Delta":151532418},{"NoteNumber":90,"Velocity":90,"Duration":79279,"SoundDuration":79279,"Delta":151609178},{"NoteNumber":85,"Velocity":69,"Duration":55693,"SoundDuration":55693,"Delta":151688457},{"NoteNumber":82,"Velocity":57,"Duration":55693,"SoundDuration":55693,"Delta":151688457},{"NoteNumber":80,"Velocity":57,"Duration":55693,"SoundDuration":55693,"Delta":151688457},{"NoteNumber":94,"Velocity":64,"Duration":55418,"SoundDuration":55418,"Delta":151744151},{"NoteNumber":92,"Velocity":54,"Duration":55418,"SoundDuration":55418,"Delta":151744151},{"NoteNumber":90,"Velocity":54,"Duration":55418,"SoundDuration":55418,"Delta":151744151},{"NoteNumber":87,"Velocity":54,"Duration":55418,"SoundDuration":55418,"Delta":151744151},{"NoteNumber":85,"Velocity":70,"Duration":55079,"SoundDuration":55079,"Delta":151799569},{"NoteNumber":82,"Velocity":59,"Duration":55079,"SoundDuration":55079,"Delta":151799569},{"NoteNumber":80,"Velocity":59,"Duration":55079,"SoundDuration":55079,"Delta":151799569},{"NoteNumber":94,"Velocity":65,"Duration":54811,"SoundDuration":54811,"Delta":151854649},{"NoteNumber":92,"Velocity":55,"Duration":54811,"SoundDuration":54811,"Delta":151854649},{"NoteNumber":90,"Velocity":55,"Duration":54811,"SoundDuration":54811,"Delta":151854649},{"NoteNumber":87,"Velocity":55,"Duration":54811,"SoundDuration":54811,"Delta":151854649},{"NoteNumber":85,"Velocity":72,"Duration":54479,"SoundDuration":54479,"Delta":151909460},{"NoteNumber":82,"Velocity":60,"Duration":54479,"SoundDuration":54479,"Delta":151909460},{"NoteNumber":80,"Velocity":60,"Duration":54479,"SoundDuration":54479,"Delta":151909460},{"NoteNumber":94,"Velocity":68,"Duration":54217,"SoundDuration":54217,"Delta":151963940},{"NoteNumber":92,"Velocity":57,"Duration":54217,"SoundDuration":54217,"Delta":151963940},{"NoteNumber":90,"Velocity":57,"Duration":54217,"SoundDuration":54217,"Delta":151963940},{"NoteNumber":87,"Velocity":57,"Duration":54217,"SoundDuration":54217,"Delta":151963940},{"NoteNumber":85,"Velocity":74,"Duration":53892,"SoundDuration":53892,"Delta":152018157},{"NoteNumber":82,"Velocity":63,"Duration":53892,"SoundDuration":53892,"Delta":152018157},{"NoteNumber":80,"Velocity":63,"Duration":53892,"SoundDuration":53892,"Delta":152018157},{"NoteNumber":94,"Velocity":68,"Duration":53066,"SoundDuration":53066,"Delta":152072049},{"NoteNumber":92,"Velocity":57,"Duration":53066,"SoundDuration":53066,"Delta":152072049},{"NoteNumber":90,"Velocity":57,"Duration":53066,"SoundDuration":53066,"Delta":152072049},{"NoteNumber":87,"Velocity":57,"Duration":53066,"SoundDuration":53066,"Delta":152072049},{"NoteNumber":85,"Velocity":75,"Duration":52570,"SoundDuration":52570,"Delta":152125116},{"NoteNumber":82,"Velocity":63,"Duration":52570,"SoundDuration":52570,"Delta":152125116},{"NoteNumber":80,"Velocity":63,"Duration":52570,"SoundDuration":52570,"Delta":152125116},{"NoteNumber":94,"Velocity":69,"Duration":51904,"SoundDuration":51904,"Delta":152177687},{"NoteNumber":92,"Velocity":58,"Duration":51904,"SoundDuration":51904,"Delta":152177687},{"NoteNumber":90,"Velocity":58,"Duration":51904,"SoundDuration":51904,"Delta":152177687},{"NoteNumber":87,"Velocity":58,"Duration":51904,"SoundDuration":51904,"Delta":152177687},{"NoteNumber":85,"Velocity":76,"Duration":50733,"SoundDuration":50733,"Delta":152229591},{"NoteNumber":82,"Velocity":64,"Duration":50733,"SoundDuration":50733,"Delta":152229591},{"NoteNumber":80,"Velocity":64,"Duration":50733,"SoundDuration":50733,"Delta":152229591},{"NoteNumber":94,"Velocity":71,"Duration":50335,"SoundDuration":50335,"Delta":152280325},{"NoteNumber":92,"Velocity":60,"Duration":50335,"SoundDuration":50335,"Delta":152280325},{"NoteNumber":90,"Velocity":60,"Duration":50335,"SoundDuration":50335,"Delta":152280325},{"NoteNumber":87,"Velocity":60,"Duration":50335,"SoundDuration":50335,"Delta":152280325},{"NoteNumber":85,"Velocity":79,"Duration":50335,"SoundDuration":50335,"Delta":152330660},{"NoteNumber":82,"Velocity":67,"Duration":50335,"SoundDuration":50335,"Delta":152330660},{"NoteNumber":80,"Velocity":67,"Duration":50335,"SoundDuration":50335,"Delta":152330660},{"NoteNumber":94,"Velocity":72,"Duration":50167,"SoundDuration":50167,"Delta":152380996},{"NoteNumber":92,"Velocity":63,"Duration":50167,"SoundDuration":50167,"Delta":152380996},{"NoteNumber":90,"Velocity":63,"Duration":50167,"SoundDuration":50167,"Delta":152380996},{"NoteNumber":87,"Velocity":63,"Duration":50167,"SoundDuration":50167,"Delta":152380996},{"NoteNumber":85,"Velocity":80,"Duration":50736,"SoundDuration":50736,"Delta":152431163},{"NoteNumber":82,"Velocity":68,"Duration":50736,"SoundDuration":50736,"Delta":152431163},{"NoteNumber":80,"Velocity":68,"Duration":50736,"SoundDuration":50736,"Delta":152431163},{"NoteNumber":94,"Velocity":74,"Duration":50112,"SoundDuration":50112,"Delta":152481900},{"NoteNumber":92,"Velocity":64,"Duration":50112,"SoundDuration":50112,"Delta":152481900},{"NoteNumber":90,"Velocity":64,"Duration":50112,"SoundDuration":50112,"Delta":152481900},{"NoteNumber":87,"Velocity":64,"Duration":50112,"SoundDuration":50112,"Delta":152481900},{"NoteNumber":85,"Velocity":81,"Duration":49288,"SoundDuration":49288,"Delta":152532012},{"NoteNumber":82,"Velocity":69,"Duration":49288,"SoundDuration":49288,"Delta":152532012},{"NoteNumber":80,"Velocity":69,"Duration":49288,"SoundDuration":49288,"Delta":152532012},{"NoteNumber":94,"Velocity":74,"Duration":50338,"SoundDuration":50338,"Delta":152581300},{"NoteNumber":92,"Velocity":64,"Duration":50338,"SoundDuration":50338,"Delta":152581300},{"NoteNumber":90,"Velocity":64,"Duration":50338,"SoundDuration":50338,"Delta":152581300},{"NoteNumber":87,"Velocity":64,"Duration":50338,"SoundDuration":50338,"Delta":152581300},{"NoteNumber":85,"Velocity":81,"Duration":50279,"SoundDuration":50279,"Delta":152631639},{"NoteNumber":82,"Velocity":69,"Duration":50279,"SoundDuration":50279,"Delta":152631639},{"NoteNumber":80,"Velocity":69,"Duration":50279,"SoundDuration":50279,"Delta":152631639},{"NoteNumber":94,"Velocity":73,"Duration":49779,"SoundDuration":49779,"Delta":152681918},{"NoteNumber":92,"Velocity":63,"Duration":49779,"SoundDuration":49779,"Delta":152681918},{"NoteNumber":90,"Velocity":63,"Duration":49779,"SoundDuration":49779,"Delta":152681918},{"NoteNumber":87,"Velocity":63,"Duration":49779,"SoundDuration":49779,"Delta":152681918},{"NoteNumber":85,"Velocity":80,"Duration":50168,"SoundDuration":50168,"Delta":152731698},{"NoteNumber":82,"Velocity":68,"Duration":50168,"SoundDuration":50168,"Delta":152731698},{"NoteNumber":80,"Velocity":68,"Duration":50168,"SoundDuration":50168,"Delta":152731698},{"NoteNumber":94,"Velocity":72,"Duration":50676,"SoundDuration":50676,"Delta":152781867},{"NoteNumber":92,"Velocity":61,"Duration":50676,"SoundDuration":50676,"Delta":152781867},{"NoteNumber":90,"Velocity":61,"Duration":50676,"SoundDuration":50676,"Delta":152781867},{"NoteNumber":87,"Velocity":61,"Duration":50676,"SoundDuration":50676,"Delta":152781867},{"NoteNumber":85,"Velocity":80,"Duration":50507,"SoundDuration":50507,"Delta":152832543},{"NoteNumber":82,"Velocity":67,"Duration":50507,"SoundDuration":50507,"Delta":152832543},{"NoteNumber":80,"Velocity":67,"Duration":50507,"SoundDuration":50507,"Delta":152832543},{"NoteNumber":94,"Velocity":70,"Duration":52272,"SoundDuration":52272,"Delta":152883051},{"NoteNumber":92,"Velocity":59,"Duration":52272,"SoundDuration":52272,"Delta":152883051},{"NoteNumber":90,"Velocity":59,"Duration":52272,"SoundDuration":52272,"Delta":152883051},{"NoteNumber":87,"Velocity":59,"Duration":52272,"SoundDuration":52272,"Delta":152883051},{"NoteNumber":85,"Velocity":76,"Duration":53128,"SoundDuration":53128,"Delta":152935323},{"NoteNumber":82,"Velocity":64,"Duration":53128,"SoundDuration":53128,"Delta":152935323},{"NoteNumber":80,"Velocity":64,"Duration":53128,"SoundDuration":53128,"Delta":152935323},{"NoteNumber":94,"Velocity":70,"Duration":53687,"SoundDuration":53687,"Delta":152988452},{"NoteNumber":92,"Velocity":59,"Duration":53687,"SoundDuration":53687,"Delta":152988452},{"NoteNumber":90,"Velocity":59,"Duration":53687,"SoundDuration":53687,"Delta":152988452},{"NoteNumber":87,"Velocity":59,"Duration":53687,"SoundDuration":53687,"Delta":152988452},{"NoteNumber":85,"Velocity":76,"Duration":54401,"SoundDuration":54401,"Delta":153042140},{"NoteNumber":82,"Velocity":65,"Duration":54401,"SoundDuration":54401,"Delta":153042140},{"NoteNumber":80,"Velocity":65,"Duration":54401,"SoundDuration":54401,"Delta":153042140},{"NoteNumber":94,"Velocity":69,"Duration":55080,"SoundDuration":55080,"Delta":153096541},{"NoteNumber":92,"Velocity":58,"Duration":55080,"SoundDuration":55080,"Delta":153096541},{"NoteNumber":90,"Velocity":58,"Duration":55080,"SoundDuration":55080,"Delta":153096541},{"NoteNumber":87,"Velocity":58,"Duration":55080,"SoundDuration":55080,"Delta":153096541},{"NoteNumber":85,"Velocity":75,"Duration":55776,"SoundDuration":55776,"Delta":153151621},{"NoteNumber":82,"Velocity":64,"Duration":55776,"SoundDuration":55776,"Delta":153151621},{"NoteNumber":80,"Velocity":64,"Duration":55776,"SoundDuration":55776,"Delta":153151621},{"NoteNumber":94,"Velocity":69,"Duration":56477,"SoundDuration":56477,"Delta":153207398},{"NoteNumber":92,"Velocity":58,"Duration":56477,"SoundDuration":56477,"Delta":153207398},{"NoteNumber":90,"Velocity":58,"Duration":56477,"SoundDuration":56477,"Delta":153207398},{"NoteNumber":87,"Velocity":58,"Duration":56477,"SoundDuration":56477,"Delta":153207398},{"NoteNumber":85,"Velocity":75,"Duration":61289,"SoundDuration":61289,"Delta":153263875},{"NoteNumber":82,"Velocity":63,"Duration":61289,"SoundDuration":61289,"Delta":153263875},{"NoteNumber":80,"Velocity":63,"Duration":61289,"SoundDuration":61289,"Delta":153263875},{"NoteNumber":94,"Velocity":67,"Duration":69344,"SoundDuration":69344,"Delta":153325165},{"NoteNumber":92,"Velocity":56,"Duration":69344,"SoundDuration":69344,"Delta":153325165},{"NoteNumber":90,"Velocity":56,"Duration":69344,"SoundDuration":69344,"Delta":153325165},{"NoteNumber":87,"Velocity":56,"Duration":69344,"SoundDuration":69344,"Delta":153325165},{"NoteNumber":106,"Velocity":98,"Duration":60240,"SoundDuration":60240,"Delta":153394509},{"NoteNumber":104,"Velocity":86,"Duration":49019,"SoundDuration":49019,"Delta":153454750},{"NoteNumber":102,"Velocity":85,"Duration":49019,"SoundDuration":49019,"Delta":153503769},{"NoteNumber":99,"Velocity":85,"Duration":49019,"SoundDuration":49019,"Delta":153552789},{"NoteNumber":97,"Velocity":84,"Duration":49019,"SoundDuration":49019,"Delta":153601809},{"NoteNumber":94,"Velocity":84,"Duration":49019,"SoundDuration":49019,"Delta":153650828},{"NoteNumber":92,"Velocity":82,"Duration":49019,"SoundDuration":49019,"Delta":153699848},{"NoteNumber":90,"Velocity":81,"Duration":49019,"SoundDuration":49019,"Delta":153748868},{"NoteNumber":87,"Velocity":81,"Duration":49019,"SoundDuration":49019,"Delta":153797887},{"NoteNumber":85,"Velocity":80,"Duration":49019,"SoundDuration":49019,"Delta":153846907},{"NoteNumber":82,"Velocity":80,"Duration":49019,"SoundDuration":49019,"Delta":153895926},{"NoteNumber":80,"Velocity":79,"Duration":49019,"SoundDuration":49019,"Delta":153944946},{"NoteNumber":78,"Velocity":78,"Duration":49019,"SoundDuration":49019,"Delta":153993966},{"NoteNumber":75,"Velocity":78,"Duration":49019,"SoundDuration":49019,"Delta":154042985},{"NoteNumber":73,"Velocity":77,"Duration":49019,"SoundDuration":49019,"Delta":154092005},{"NoteNumber":69,"Velocity":77,"Duration":49019,"SoundDuration":49019,"Delta":154141025},{"NoteNumber":68,"Velocity":76,"Duration":49342,"SoundDuration":49342,"Delta":154190044},{"NoteNumber":66,"Velocity":75,"Duration":49834,"SoundDuration":49834,"Delta":154239387},{"NoteNumber":63,"Velocity":75,"Duration":50392,"SoundDuration":50392,"Delta":154289221},{"NoteNumber":61,"Velocity":74,"Duration":51020,"SoundDuration":51020,"Delta":154339614},{"NoteNumber":58,"Velocity":74,"Duration":41201,"SoundDuration":41201,"Delta":154390635},{"NoteNumber":56,"Velocity":73,"Duration":41583,"SoundDuration":41583,"Delta":154431837},{"NoteNumber":54,"Velocity":73,"Duration":42031,"SoundDuration":42031,"Delta":154473420},{"NoteNumber":51,"Velocity":72,"Duration":42390,"SoundDuration":42390,"Delta":154515452},{"NoteNumber":49,"Velocity":72,"Duration":42806,"SoundDuration":42806,"Delta":154557842},{"NoteNumber":44,"Velocity":97,"Duration":215054,"SoundDuration":215054,"Delta":154600649},{"NoteNumber":49,"Velocity":73,"Duration":107527,"SoundDuration":107527,"Delta":154708176},{"NoteNumber":51,"Velocity":66,"Duration":107526,"SoundDuration":107526,"Delta":154815703},{"NoteNumber":54,"Velocity":66,"Duration":107527,"SoundDuration":107527,"Delta":154923230},{"NoteNumber":58,"Velocity":73,"Duration":107527,"SoundDuration":107527,"Delta":155030757},{"NoteNumber":32,"Velocity":85,"Duration":215054,"SoundDuration":215054,"Delta":155030757},{"NoteNumber":54,"Velocity":67,"Duration":107527,"SoundDuration":107527,"Delta":155138284},{"NoteNumber":51,"Velocity":67,"Duration":107527,"SoundDuration":107527,"Delta":155245811},{"NoteNumber":49,"Velocity":68,"Duration":107527,"SoundDuration":107527,"Delta":155353338},{"NoteNumber":21,"Velocity":101,"Duration":4557884,"SoundDuration":4557884,"Delta":155460865},{"NoteNumber":49,"Velocity":68,"Duration":107526,"SoundDuration":107526,"Delta":155568392},{"NoteNumber":51,"Velocity":68,"Duration":107527,"SoundDuration":107527,"Delta":155675919},{"NoteNumber":54,"Velocity":68,"Duration":107527,"SoundDuration":107527,"Delta":155783446},{"NoteNumber":58,"Velocity":73,"Duration":107527,"SoundDuration":107527,"Delta":155890973},{"NoteNumber":54,"Velocity":68,"Duration":107527,"SoundDuration":107527,"Delta":155998500},{"NoteNumber":51,"Velocity":68,"Duration":107527,"SoundDuration":107527,"Delta":156106027},{"NoteNumber":49,"Velocity":68,"Duration":107527,"SoundDuration":107527,"Delta":156213554},{"NoteNumber":32,"Velocity":73,"Duration":107142,"SoundDuration":107142,"Delta":156321081},{"NoteNumber":49,"Velocity":63,"Duration":107398,"SoundDuration":107398,"Delta":156428224},{"NoteNumber":51,"Velocity":61,"Duration":107784,"SoundDuration":107784,"Delta":156535623},{"NoteNumber":54,"Velocity":60,"Duration":108173,"SoundDuration":108173,"Delta":156643408},{"NoteNumber":58,"Velocity":68,"Duration":108564,"SoundDuration":108564,"Delta":156751581},{"NoteNumber":54,"Velocity":56,"Duration":108959,"SoundDuration":108959,"Delta":156860146},{"NoteNumber":51,"Velocity":57,"Duration":109356,"SoundDuration":109356,"Delta":156969105},{"NoteNumber":49,"Velocity":55,"Duration":109756,"SoundDuration":109756,"Delta":157078462},{"NoteNumber":44,"Velocity":65,"Duration":110159,"SoundDuration":110159,"Delta":157188218},{"NoteNumber":49,"Velocity":55,"Duration":110565,"SoundDuration":110565,"Delta":157298377},{"NoteNumber":51,"Velocity":53,"Duration":110974,"SoundDuration":110974,"Delta":157408943},{"NoteNumber":54,"Velocity":52,"Duration":111386,"SoundDuration":111386,"Delta":157519917},{"NoteNumber":58,"Velocity":60,"Duration":111801,"SoundDuration":111801,"Delta":157631303},{"NoteNumber":54,"Velocity":51,"Duration":112219,"SoundDuration":112219,"Delta":157743105},{"NoteNumber":51,"Velocity":50,"Duration":112641,"SoundDuration":112641,"Delta":157855325},{"NoteNumber":49,"Velocity":50,"Duration":113065,"SoundDuration":113065,"Delta":157967966},{"NoteNumber":44,"Velocity":56,"Duration":113493,"SoundDuration":113493,"Delta":158081032},{"NoteNumber":49,"Velocity":47,"Duration":113924,"SoundDuration":113924,"Delta":158194525},{"NoteNumber":51,"Velocity":47,"Duration":114358,"SoundDuration":114358,"Delta":158308449},{"NoteNumber":54,"Velocity":45,"Duration":115092,"SoundDuration":115092,"Delta":158422808},{"NoteNumber":58,"Velocity":52,"Duration":115829,"SoundDuration":115829,"Delta":158537900},{"NoteNumber":54,"Velocity":45,"Duration":116129,"SoundDuration":116129,"Delta":158653730},{"NoteNumber":51,"Velocity":43,"Duration":116429,"SoundDuration":116429,"Delta":158769859},{"NoteNumber":49,"Velocity":43,"Duration":116731,"SoundDuration":116731,"Delta":158886289},{"NoteNumber":44,"Velocity":49,"Duration":117187,"SoundDuration":117187,"Delta":159003021},{"NoteNumber":49,"Velocity":42,"Duration":117493,"SoundDuration":117493,"Delta":159120208},{"NoteNumber":51,"Velocity":40,"Duration":117801,"SoundDuration":117801,"Delta":159237702},{"NoteNumber":54,"Velocity":39,"Duration":118110,"SoundDuration":118110,"Delta":159355503},{"NoteNumber":58,"Velocity":45,"Duration":123919,"SoundDuration":123919,"Delta":159473614},{"NoteNumber":54,"Velocity":38,"Duration":132185,"SoundDuration":132185,"Delta":159597534},{"NoteNumber":51,"Velocity":38,"Duration":140219,"SoundDuration":140219,"Delta":159729720},{"NoteNumber":49,"Velocity":37,"Duration":148809,"SoundDuration":148809,"Delta":159869939},{"NoteNumber":63,"Velocity":53,"Duration":481928,"SoundDuration":481928,"Delta":160018749},{"NoteNumber":58,"Velocity":33,"Duration":360441,"SoundDuration":360441,"Delta":160018749},{"NoteNumber":44,"Velocity":37,"Duration":120482,"SoundDuration":120482,"Delta":160018749},{"NoteNumber":49,"Velocity":31,"Duration":120481,"SoundDuration":120481,"Delta":160139231},{"NoteNumber":54,"Velocity":31,"Duration":120482,"SoundDuration":120482,"Delta":160259713},{"NoteNumber":58,"Velocity":31,"Duration":120482,"SoundDuration":120482,"Delta":160380195},{"NoteNumber":65,"Velocity":48,"Duration":488548,"SoundDuration":488548,"Delta":160500677},{"NoteNumber":60,"Velocity":29,"Duration":488548,"SoundDuration":488548,"Delta":160500677},{"NoteNumber":57,"Velocity":30,"Duration":117187,"SoundDuration":117187,"Delta":160617865},{"NoteNumber":54,"Velocity":30,"Duration":117187,"SoundDuration":117187,"Delta":160735052},{"NoteNumber":50,"Velocity":30,"Duration":136986,"SoundDuration":136986,"Delta":160852240},{"NoteNumber":62,"Velocity":48,"Duration":478088,"SoundDuration":478088,"Delta":160989226},{"NoteNumber":57,"Velocity":29,"Duration":357569,"SoundDuration":357569,"Delta":160989226},{"NoteNumber":44,"Velocity":37,"Duration":119521,"SoundDuration":119521,"Delta":160989226},{"NoteNumber":50,"Velocity":31,"Duration":119522,"SoundDuration":119522,"Delta":161108748},{"NoteNumber":54,"Velocity":31,"Duration":119521,"SoundDuration":119521,"Delta":161228270},{"NoteNumber":57,"Velocity":32,"Duration":119522,"SoundDuration":119522,"Delta":161347792},{"NoteNumber":66,"Velocity":33,"Duration":238094,"SoundDuration":238094,"Delta":161467314},{"NoteNumber":69,"Velocity":53,"Duration":238094,"SoundDuration":238094,"Delta":161467314},{"NoteNumber":60,"Velocity":37,"Duration":119047,"SoundDuration":119047,"Delta":161467314},{"NoteNumber":57,"Velocity":31,"Duration":119047,"SoundDuration":119047,"Delta":161586361},{"NoteNumber":57,"Velocity":29,"Duration":247252,"SoundDuration":247252,"Delta":161705409},{"NoteNumber":62,"Velocity":48,"Duration":247252,"SoundDuration":247252,"Delta":161705409},{"NoteNumber":54,"Velocity":31,"Duration":119047,"SoundDuration":119047,"Delta":161705409},{"NoteNumber":50,"Velocity":31,"Duration":128205,"SoundDuration":128205,"Delta":161824456},{"NoteNumber":63,"Velocity":53,"Duration":487805,"SoundDuration":487805,"Delta":161952662},{"NoteNumber":58,"Velocity":33,"Duration":364837,"SoundDuration":364837,"Delta":161952662},{"NoteNumber":44,"Velocity":37,"Duration":121951,"SoundDuration":121951,"Delta":161952662},{"NoteNumber":49,"Velocity":31,"Duration":121951,"SoundDuration":121951,"Delta":162074613},{"NoteNumber":54,"Velocity":31,"Duration":121951,"SoundDuration":121951,"Delta":162196564},{"NoteNumber":58,"Velocity":31,"Duration":121951,"SoundDuration":121951,"Delta":162318515},{"NoteNumber":65,"Velocity":48,"Duration":520367,"SoundDuration":520367,"Delta":162440467},{"NoteNumber":60,"Velocity":29,"Duration":520367,"SoundDuration":520367,"Delta":162440467},{"NoteNumber":57,"Velocity":30,"Duration":122950,"SoundDuration":122950,"Delta":162563417},{"NoteNumber":54,"Velocity":30,"Duration":122950,"SoundDuration":122950,"Delta":162686368},{"NoteNumber":50,"Velocity":30,"Duration":151515,"SoundDuration":151515,"Delta":162809319},{"NoteNumber":62,"Velocity":48,"Duration":491803,"SoundDuration":491803,"Delta":162960834},{"NoteNumber":57,"Velocity":29,"Duration":367827,"SoundDuration":367827,"Delta":162960834},{"NoteNumber":44,"Velocity":37,"Duration":122950,"SoundDuration":122950,"Delta":162960834},{"NoteNumber":50,"Velocity":31,"Duration":122950,"SoundDuration":122950,"Delta":163083785},{"NoteNumber":54,"Velocity":31,"Duration":122950,"SoundDuration":122950,"Delta":163206736},{"NoteNumber":57,"Velocity":32,"Duration":122950,"SoundDuration":122950,"Delta":163329686},{"NoteNumber":60,"Velocity":37,"Duration":119521,"SoundDuration":119521,"Delta":163452637},{"NoteNumber":57,"Velocity":31,"Duration":119522,"SoundDuration":119522,"Delta":163572159},{"NoteNumber":54,"Velocity":31,"Duration":119521,"SoundDuration":119521,"Delta":163691681},{"NoteNumber":50,"Velocity":31,"Duration":119522,"SoundDuration":119522,"Delta":163811203},{"NoteNumber":63,"Velocity":33,"Duration":468750,"SoundDuration":468750,"Delta":163930725},{"NoteNumber":75,"Velocity":55,"Duration":468750,"SoundDuration":468750,"Delta":163930725},{"NoteNumber":70,"Velocity":33,"Duration":468750,"SoundDuration":468750,"Delta":163930725},{"NoteNumber":44,"Velocity":37,"Duration":117187,"SoundDuration":117187,"Delta":163930725},{"NoteNumber":49,"Velocity":31,"Duration":117187,"SoundDuration":117187,"Delta":164047913},{"NoteNumber":54,"Velocity":31,"Duration":117187,"SoundDuration":117187,"Delta":164165100},{"NoteNumber":58,"Velocity":31,"Duration":117187,"SoundDuration":117187,"Delta":164282288},{"NoteNumber":65,"Velocity":29,"Duration":477895,"SoundDuration":477895,"Delta":164399475},{"NoteNumber":77,"Velocity":50,"Duration":477895,"SoundDuration":477895,"Delta":164399475},{"NoteNumber":72,"Velocity":29,"Duration":477895,"SoundDuration":477895,"Delta":164399475},{"NoteNumber":60,"Velocity":37,"Duration":113636,"SoundDuration":113636,"Delta":164399475},{"NoteNumber":57,"Velocity":30,"Duration":113636,"SoundDuration":113636,"Delta":164513111},{"NoteNumber":54,"Velocity":30,"Duration":113636,"SoundDuration":113636,"Delta":164626748},{"NoteNumber":50,"Velocity":30,"Duration":136986,"SoundDuration":136986,"Delta":164740384},{"NoteNumber":62,"Velocity":29,"Duration":478088,"SoundDuration":478088,"Delta":164877370},{"NoteNumber":74,"Velocity":50,"Duration":478088,"SoundDuration":478088,"Delta":164877370},{"NoteNumber":69,"Velocity":29,"Duration":478088,"SoundDuration":478088,"Delta":164877370},{"NoteNumber":44,"Velocity":37,"Duration":119521,"SoundDuration":119521,"Delta":164877370},{"NoteNumber":50,"Velocity":31,"Duration":119522,"SoundDuration":119522,"Delta":164996892},{"NoteNumber":54,"Velocity":31,"Duration":119521,"SoundDuration":119521,"Delta":165116414},{"NoteNumber":57,"Velocity":32,"Duration":119522,"SoundDuration":119522,"Delta":165235936},{"NoteNumber":78,"Velocity":38,"Duration":232558,"SoundDuration":232558,"Delta":165355458},{"NoteNumber":81,"Velocity":60,"Duration":232558,"SoundDuration":232558,"Delta":165355458},{"NoteNumber":60,"Velocity":37,"Duration":116278,"SoundDuration":116278,"Delta":165355458},{"NoteNumber":57,"Velocity":31,"Duration":116279,"SoundDuration":116279,"Delta":165471737},{"NoteNumber":69,"Velocity":35,"Duration":244484,"SoundDuration":244484,"Delta":165588016},{"NoteNumber":74,"Velocity":54,"Duration":244484,"SoundDuration":244484,"Delta":165588016},{"NoteNumber":54,"Velocity":31,"Duration":116278,"SoundDuration":116278,"Delta":165588016},{"NoteNumber":50,"Velocity":31,"Duration":128205,"SoundDuration":128205,"Delta":165704295},{"NoteNumber":63,"Velocity":33,"Duration":487805,"SoundDuration":487805,"Delta":165832500},{"NoteNumber":75,"Velocity":55,"Duration":487805,"SoundDuration":487805,"Delta":165832500},{"NoteNumber":70,"Velocity":33,"Duration":487805,"SoundDuration":487805,"Delta":165832500},{"NoteNumber":44,"Velocity":37,"Duration":121951,"SoundDuration":121951,"Delta":165832500},{"NoteNumber":49,"Velocity":31,"Duration":121951,"SoundDuration":121951,"Delta":165954452},{"NoteNumber":54,"Velocity":31,"Duration":121951,"SoundDuration":121951,"Delta":166076403},{"NoteNumber":58,"Velocity":31,"Duration":121951,"SoundDuration":121951,"Delta":166198354},{"NoteNumber":65,"Velocity":29,"Duration":520367,"SoundDuration":520367,"Delta":166320305},{"NoteNumber":77,"Velocity":50,"Duration":520367,"SoundDuration":520367,"Delta":166320305},{"NoteNumber":72,"Velocity":29,"Duration":520367,"SoundDuration":520367,"Delta":166320305},{"NoteNumber":60,"Velocity":37,"Duration":122950,"SoundDuration":122950,"Delta":166320305},{"NoteNumber":57,"Velocity":30,"Duration":122950,"SoundDuration":122950,"Delta":166443256},{"NoteNumber":54,"Velocity":30,"Duration":122950,"SoundDuration":122950,"Delta":166566207},{"NoteNumber":50,"Velocity":30,"Duration":151515,"SoundDuration":151515,"Delta":166689158},{"NoteNumber":62,"Velocity":29,"Duration":491803,"SoundDuration":491803,"Delta":166840673},{"NoteNumber":74,"Velocity":50,"Duration":491803,"SoundDuration":491803,"Delta":166840673},{"NoteNumber":69,"Velocity":29,"Duration":491803,"SoundDuration":491803,"Delta":166840673},{"NoteNumber":44,"Velocity":37,"Duration":122950,"SoundDuration":122950,"Delta":166840673},{"NoteNumber":50,"Velocity":31,"Duration":122950,"SoundDuration":122950,"Delta":166963624},{"NoteNumber":54,"Velocity":31,"Duration":122950,"SoundDuration":122950,"Delta":167086574},{"NoteNumber":57,"Velocity":32,"Duration":122950,"SoundDuration":122950,"Delta":167209525},{"NoteNumber":62,"Velocity":26,"Duration":229007,"SoundDuration":229007,"Delta":167332476},{"NoteNumber":69,"Velocity":44,"Duration":229007,"SoundDuration":229007,"Delta":167332476},{"NoteNumber":60,"Velocity":37,"Duration":114503,"SoundDuration":114503,"Delta":167332476},{"NoteNumber":57,"Velocity":31,"Duration":114503,"SoundDuration":114503,"Delta":167446980},{"NoteNumber":54,"Velocity":31,"Duration":114503,"SoundDuration":114503,"Delta":167561483},{"NoteNumber":50,"Velocity":31,"Duration":114503,"SoundDuration":114503,"Delta":167675987},{"NoteNumber":44,"Velocity":37,"Duration":117187,"SoundDuration":117187,"Delta":167790491},{"NoteNumber":50,"Velocity":33,"Duration":117187,"SoundDuration":117187,"Delta":167907678},{"NoteNumber":54,"Velocity":33,"Duration":117187,"SoundDuration":117187,"Delta":168024866},{"NoteNumber":57,"Velocity":33,"Duration":117187,"SoundDuration":117187,"Delta":168142053},{"NoteNumber":60,"Velocity":39,"Duration":113636,"SoundDuration":113636,"Delta":168259241},{"NoteNumber":57,"Velocity":32,"Duration":113636,"SoundDuration":113636,"Delta":168372877},{"NoteNumber":54,"Velocity":32,"Duration":113636,"SoundDuration":113636,"Delta":168486513},{"NoteNumber":50,"Velocity":32,"Duration":136986,"SoundDuration":136986,"Delta":168600150},{"NoteNumber":48,"Velocity":49,"Duration":478088,"SoundDuration":478088,"Delta":168737136},{"NoteNumber":44,"Velocity":39,"Duration":119521,"SoundDuration":119521,"Delta":168737136},{"NoteNumber":50,"Velocity":33,"Duration":119522,"SoundDuration":119522,"Delta":168856658},{"NoteNumber":54,"Velocity":33,"Duration":119521,"SoundDuration":119521,"Delta":168976180},{"NoteNumber":57,"Velocity":34,"Duration":119522,"SoundDuration":119522,"Delta":169095702},{"NoteNumber":45,"Velocity":40,"Duration":232558,"SoundDuration":232558,"Delta":169215224},{"NoteNumber":60,"Velocity":39,"Duration":116278,"SoundDuration":116278,"Delta":169215224},{"NoteNumber":57,"Velocity":33,"Duration":116279,"SoundDuration":116279,"Delta":169331503},{"NoteNumber":54,"Velocity":33,"Duration":116278,"SoundDuration":116278,"Delta":169447782},{"NoteNumber":50,"Velocity":33,"Duration":128205,"SoundDuration":128205,"Delta":169564061},{"NoteNumber":44,"Velocity":39,"Duration":121951,"SoundDuration":121951,"Delta":169692266},{"NoteNumber":50,"Velocity":33,"Duration":121951,"SoundDuration":121951,"Delta":169814217},{"NoteNumber":54,"Velocity":33,"Duration":121951,"SoundDuration":121951,"Delta":169936169},{"NoteNumber":57,"Velocity":33,"Duration":121951,"SoundDuration":121951,"Delta":170058120},{"NoteNumber":60,"Velocity":39,"Duration":122950,"SoundDuration":122950,"Delta":170180071},{"NoteNumber":57,"Velocity":32,"Duration":122950,"SoundDuration":122950,"Delta":170303022},{"NoteNumber":54,"Velocity":32,"Duration":122950,"SoundDuration":122950,"Delta":170425973},{"NoteNumber":50,"Velocity":32,"Duration":151515,"SoundDuration":151515,"Delta":170548923},{"NoteNumber":60,"Velocity":52,"Duration":368852,"SoundDuration":368852,"Delta":170700439},{"NoteNumber":44,"Velocity":39,"Duration":122950,"SoundDuration":122950,"Delta":170700439},{"NoteNumber":50,"Velocity":33,"Duration":122950,"SoundDuration":122950,"Delta":170823389},{"NoteNumber":54,"Velocity":33,"Duration":122950,"SoundDuration":122950,"Delta":170946340},{"NoteNumber":57,"Velocity":34,"Duration":122950,"SoundDuration":122950,"Delta":171069291},{"NoteNumber":60,"Velocity":34,"Duration":117647,"SoundDuration":117647,"Delta":171192242},{"NoteNumber":62,"Velocity":42,"Duration":117647,"SoundDuration":117647,"Delta":171192242},{"NoteNumber":66,"Velocity":44,"Duration":117647,"SoundDuration":117647,"Delta":171309889},{"NoteNumber":69,"Velocity":45,"Duration":117646,"SoundDuration":117646,"Delta":171427536},{"NoteNumber":74,"Velocity":47,"Duration":117647,"SoundDuration":117647,"Delta":171545183},{"NoteNumber":68,"Velocity":51,"Duration":115384,"SoundDuration":115384,"Delta":171662830},{"NoteNumber":60,"Velocity":45,"Duration":461537,"SoundDuration":461537,"Delta":171662830},{"NoteNumber":72,"Velocity":55,"Duration":461537,"SoundDuration":461537,"Delta":171662830},{"NoteNumber":75,"Velocity":52,"Duration":115384,"SoundDuration":115384,"Delta":171778214},{"NoteNumber":78,"Velocity":53,"Duration":115384,"SoundDuration":115384,"Delta":171893599},{"NoteNumber":80,"Velocity":54,"Duration":115384,"SoundDuration":115384,"Delta":172008983},{"NoteNumber":72,"Velocity":47,"Duration":118576,"SoundDuration":118576,"Delta":172124368},{"NoteNumber":74,"Velocity":55,"Duration":118576,"SoundDuration":118576,"Delta":172124368},{"NoteNumber":57,"Velocity":40,"Duration":237154,"SoundDuration":237154,"Delta":172124368},{"NoteNumber":69,"Velocity":49,"Duration":237154,"SoundDuration":237154,"Delta":172124368},{"NoteNumber":78,"Velocity":55,"Duration":118577,"SoundDuration":118577,"Delta":172242945},{"NoteNumber":81,"Velocity":56,"Duration":118576,"SoundDuration":118576,"Delta":172361522},{"NoteNumber":86,"Velocity":57,"Duration":118577,"SoundDuration":118577,"Delta":172480099},{"NoteNumber":80,"Velocity":58,"Duration":116731,"SoundDuration":116731,"Delta":172598676},{"NoteNumber":72,"Velocity":49,"Duration":466926,"SoundDuration":466926,"Delta":172598676},{"NoteNumber":84,"Velocity":60,"Duration":466926,"SoundDuration":466926,"Delta":172598676},{"NoteNumber":87,"Velocity":59,"Duration":116731,"SoundDuration":116731,"Delta":172715407},{"NoteNumber":90,"Velocity":60,"Duration":116731,"SoundDuration":116731,"Delta":172832139},{"NoteNumber":92,"Velocity":61,"Duration":116731,"SoundDuration":116731,"Delta":172948870},{"NoteNumber":84,"Velocity":53,"Duration":119047,"SoundDuration":119047,"Delta":173065602},{"NoteNumber":86,"Velocity":63,"Duration":119047,"SoundDuration":119047,"Delta":173065602},{"NoteNumber":69,"Velocity":44,"Duration":238094,"SoundDuration":238094,"Delta":173065602},{"NoteNumber":81,"Velocity":52,"Duration":238094,"SoundDuration":238094,"Delta":173065602},{"NoteNumber":90,"Velocity":64,"Duration":119047,"SoundDuration":119047,"Delta":173184649},{"NoteNumber":93,"Velocity":65,"Duration":119047,"SoundDuration":119047,"Delta":173303697},{"NoteNumber":98,"Velocity":66,"Duration":119047,"SoundDuration":119047,"Delta":173422744},{"NoteNumber":85,"Velocity":81,"Duration":106007,"SoundDuration":106007,"Delta":173541792},{"NoteNumber":78,"Velocity":81,"Duration":106007,"SoundDuration":106007,"Delta":173541792},{"NoteNumber":93,"Velocity":59,"Duration":106007,"SoundDuration":106007,"Delta":173647799},{"NoteNumber":86,"Velocity":50,"Duration":106007,"SoundDuration":106007,"Delta":173647799},{"NoteNumber":84,"Velocity":50,"Duration":106007,"SoundDuration":106007,"Delta":173647799},{"NoteNumber":81,"Velocity":71,"Duration":95541,"SoundDuration":95541,"Delta":173753806},{"NoteNumber":93,"Velocity":59,"Duration":95541,"SoundDuration":95541,"Delta":173849347},{"NoteNumber":86,"Velocity":50,"Duration":95541,"SoundDuration":95541,"Delta":173849347},{"NoteNumber":84,"Velocity":50,"Duration":95541,"SoundDuration":95541,"Delta":173849347},{"NoteNumber":73,"Velocity":77,"Duration":95541,"SoundDuration":95541,"Delta":173944889},{"NoteNumber":66,"Velocity":77,"Duration":95541,"SoundDuration":95541,"Delta":173944889},{"NoteNumber":81,"Velocity":60,"Duration":95541,"SoundDuration":95541,"Delta":174040430},{"NoteNumber":74,"Velocity":51,"Duration":95541,"SoundDuration":95541,"Delta":174040430},{"NoteNumber":72,"Velocity":51,"Duration":95541,"SoundDuration":95541,"Delta":174040430},{"NoteNumber":69,"Velocity":72,"Duration":95541,"SoundDuration":95541,"Delta":174135972},{"NoteNumber":81,"Velocity":60,"Duration":95541,"SoundDuration":95541,"Delta":174231513},{"NoteNumber":74,"Velocity":51,"Duration":95541,"SoundDuration":95541,"Delta":174231513},{"NoteNumber":72,"Velocity":51,"Duration":95541,"SoundDuration":95541,"Delta":174231513},{"NoteNumber":56,"Velocity":67,"Duration":214285,"SoundDuration":214285,"Delta":174327055},{"NoteNumber":62,"Velocity":44,"Duration":107142,"SoundDuration":107142,"Delta":174434197},{"NoteNumber":66,"Velocity":44,"Duration":107142,"SoundDuration":107142,"Delta":174434197},{"NoteNumber":69,"Velocity":52,"Duration":107142,"SoundDuration":107142,"Delta":174434197},{"NoteNumber":61,"Velocity":60,"Duration":101010,"SoundDuration":101010,"Delta":174541340},{"NoteNumber":60,"Velocity":60,"Duration":101010,"SoundDuration":101010,"Delta":174642350},{"NoteNumber":59,"Velocity":64,"Duration":101010,"SoundDuration":101010,"Delta":174743360},{"NoteNumber":44,"Velocity":42,"Duration":202020,"SoundDuration":202020,"Delta":174743360},{"NoteNumber":58,"Velocity":57,"Duration":101010,"SoundDuration":101010,"Delta":174844370},{"NoteNumber":57,"Velocity":57,"Duration":101010,"SoundDuration":101010,"Delta":174945380},{"NoteNumber":56,"Velocity":56,"Duration":101010,"SoundDuration":101010,"Delta":175046390},{"NoteNumber":32,"Velocity":63,"Duration":220587,"SoundDuration":220587,"Delta":175147400},{"NoteNumber":50,"Velocity":42,"Duration":110293,"SoundDuration":110293,"Delta":175257694},{"NoteNumber":54,"Velocity":42,"Duration":110293,"SoundDuration":110293,"Delta":175257694},{"NoteNumber":57,"Velocity":49,"Duration":110293,"SoundDuration":110293,"Delta":175257694},{"NoteNumber":49,"Velocity":48,"Duration":106007,"SoundDuration":106007,"Delta":175367988},{"NoteNumber":48,"Velocity":48,"Duration":106007,"SoundDuration":106007,"Delta":175473995},{"NoteNumber":47,"Velocity":52,"Duration":106383,"SoundDuration":106383,"Delta":175580002},{"NoteNumber":21,"Velocity":32,"Duration":213911,"SoundDuration":213911,"Delta":175580002},{"NoteNumber":46,"Velocity":45,"Duration":107527,"SoundDuration":107527,"Delta":175686386},{"NoteNumber":45,"Velocity":45,"Duration":108696,"SoundDuration":108696,"Delta":175793914},{"NoteNumber":44,"Velocity":44,"Duration":110026,"SoundDuration":110026,"Delta":175902611},{"NoteNumber":60,"Velocity":33,"Duration":468750,"SoundDuration":468750,"Delta":176012637},{"NoteNumber":65,"Velocity":53,"Duration":468750,"SoundDuration":468750,"Delta":176012637},{"NoteNumber":44,"Velocity":37,"Duration":117187,"SoundDuration":117187,"Delta":176012637},{"NoteNumber":53,"Velocity":31,"Duration":117187,"SoundDuration":117187,"Delta":176129825},{"NoteNumber":56,"Velocity":31,"Duration":117187,"SoundDuration":117187,"Delta":176247012},{"NoteNumber":60,"Velocity":31,"Duration":117187,"SoundDuration":117187,"Delta":176364200},{"NoteNumber":62,"Velocity":29,"Duration":477895,"SoundDuration":477895,"Delta":176481387},{"NoteNumber":67,"Velocity":48,"Duration":477895,"SoundDuration":477895,"Delta":176481387},{"NoteNumber":59,"Velocity":30,"Duration":113636,"SoundDuration":113636,"Delta":176595023},{"NoteNumber":56,"Velocity":30,"Duration":113636,"SoundDuration":113636,"Delta":176708660},{"NoteNumber":52,"Velocity":30,"Duration":136986,"SoundDuration":136986,"Delta":176822296},{"NoteNumber":59,"Velocity":29,"Duration":478088,"SoundDuration":478088,"Delta":176959282},{"NoteNumber":64,"Velocity":48,"Duration":478088,"SoundDuration":478088,"Delta":176959282},{"NoteNumber":44,"Velocity":37,"Duration":119521,"SoundDuration":119521,"Delta":176959282},{"NoteNumber":52,"Velocity":31,"Duration":119522,"SoundDuration":119522,"Delta":177078804},{"NoteNumber":56,"Velocity":31,"Duration":119521,"SoundDuration":119521,"Delta":177198326},{"NoteNumber":59,"Velocity":32,"Duration":119522,"SoundDuration":119522,"Delta":177317848},{"NoteNumber":68,"Velocity":38,"Duration":232558,"SoundDuration":232558,"Delta":177437370},{"NoteNumber":71,"Velocity":57,"Duration":232558,"SoundDuration":232558,"Delta":177437370},{"NoteNumber":62,"Velocity":37,"Duration":116278,"SoundDuration":116278,"Delta":177437370},{"NoteNumber":59,"Velocity":31,"Duration":116279,"SoundDuration":116279,"Delta":177553649},{"NoteNumber":59,"Velocity":35,"Duration":244484,"SoundDuration":244484,"Delta":177669928},{"NoteNumber":64,"Velocity":52,"Duration":244484,"SoundDuration":244484,"Delta":177669928},{"NoteNumber":56,"Velocity":31,"Duration":116278,"SoundDuration":116278,"Delta":177669928},{"NoteNumber":52,"Velocity":31,"Duration":128205,"SoundDuration":128205,"Delta":177786207},{"NoteNumber":65,"Velocity":33,"Duration":487805,"SoundDuration":487805,"Delta":177914412},{"NoteNumber":77,"Velocity":53,"Duration":487805,"SoundDuration":487805,"Delta":177914412},{"NoteNumber":72,"Velocity":33,"Duration":487805,"SoundDuration":487805,"Delta":177914412},{"NoteNumber":44,"Velocity":37,"Duration":121951,"SoundDuration":121951,"Delta":177914412},{"NoteNumber":53,"Velocity":31,"Duration":121951,"SoundDuration":121951,"Delta":178036364},{"NoteNumber":56,"Velocity":31,"Duration":121951,"SoundDuration":121951,"Delta":178158315},{"NoteNumber":60,"Velocity":31,"Duration":121951,"SoundDuration":121951,"Delta":178280266},{"NoteNumber":67,"Velocity":29,"Duration":520367,"SoundDuration":520367,"Delta":178402217},{"NoteNumber":79,"Velocity":48,"Duration":520367,"SoundDuration":520367,"Delta":178402217},{"NoteNumber":74,"Velocity":29,"Duration":520367,"SoundDuration":520367,"Delta":178402217},{"NoteNumber":62,"Velocity":37,"Duration":122950,"SoundDuration":122950,"Delta":178402217},{"NoteNumber":59,"Velocity":30,"Duration":122950,"SoundDuration":122950,"Delta":178525168},{"NoteNumber":56,"Velocity":30,"Duration":122950,"SoundDuration":122950,"Delta":178648119},{"NoteNumber":52,"Velocity":30,"Duration":151515,"SoundDuration":151515,"Delta":178771070},{"NoteNumber":64,"Velocity":29,"Duration":491803,"SoundDuration":491803,"Delta":178922585},{"NoteNumber":76,"Velocity":48,"Duration":491803,"SoundDuration":491803,"Delta":178922585},{"NoteNumber":71,"Velocity":29,"Duration":491803,"SoundDuration":491803,"Delta":178922585},{"NoteNumber":44,"Velocity":37,"Duration":122950,"SoundDuration":122950,"Delta":178922585},{"NoteNumber":52,"Velocity":31,"Duration":122950,"SoundDuration":122950,"Delta":179045536},{"NoteNumber":56,"Velocity":31,"Duration":122950,"SoundDuration":122950,"Delta":179168486},{"NoteNumber":59,"Velocity":32,"Duration":122950,"SoundDuration":122950,"Delta":179291437},{"NoteNumber":64,"Velocity":26,"Duration":229007,"SoundDuration":229007,"Delta":179414388},{"NoteNumber":71,"Velocity":42,"Duration":229007,"SoundDuration":229007,"Delta":179414388},{"NoteNumber":62,"Velocity":37,"Duration":114503,"SoundDuration":114503,"Delta":179414388},{"NoteNumber":59,"Velocity":31,"Duration":114503,"SoundDuration":114503,"Delta":179528892},{"NoteNumber":56,"Velocity":31,"Duration":114503,"SoundDuration":114503,"Delta":179643395},{"NoteNumber":52,"Velocity":31,"Duration":114503,"SoundDuration":114503,"Delta":179757899},{"NoteNumber":44,"Velocity":39,"Duration":121889,"SoundDuration":121889,"Delta":179872403},{"NoteNumber":52,"Velocity":33,"Duration":121951,"SoundDuration":121951,"Delta":179994292},{"NoteNumber":56,"Velocity":33,"Duration":121951,"SoundDuration":121951,"Delta":180116243},{"NoteNumber":59,"Velocity":33,"Duration":121951,"SoundDuration":121951,"Delta":180238195},{"NoteNumber":62,"Velocity":39,"Duration":122942,"SoundDuration":122942,"Delta":180360146},{"NoteNumber":59,"Velocity":32,"Duration":122950,"SoundDuration":122950,"Delta":180483088},{"NoteNumber":56,"Velocity":32,"Duration":122950,"SoundDuration":122950,"Delta":180606039},{"NoteNumber":52,"Velocity":32,"Duration":151277,"SoundDuration":151277,"Delta":180728990},{"NoteNumber":50,"Velocity":52,"Duration":369090,"SoundDuration":369090,"Delta":180880267},{"NoteNumber":44,"Velocity":39,"Duration":123188,"SoundDuration":123188,"Delta":180880267},{"NoteNumber":52,"Velocity":33,"Duration":122950,"SoundDuration":122950,"Delta":181003456},{"NoteNumber":56,"Velocity":33,"Duration":122950,"SoundDuration":122950,"Delta":181126407},{"NoteNumber":59,"Velocity":36,"Duration":122950,"SoundDuration":122950,"Delta":181249357},{"NoteNumber":64,"Velocity":42,"Duration":117691,"SoundDuration":117691,"Delta":181372308},{"NoteNumber":62,"Velocity":42,"Duration":117691,"SoundDuration":117691,"Delta":181372308},{"NoteNumber":47,"Velocity":42,"Duration":235338,"SoundDuration":235338,"Delta":181372308},{"NoteNumber":68,"Velocity":44,"Duration":117647,"SoundDuration":117647,"Delta":181489999},{"NoteNumber":71,"Velocity":45,"Duration":117647,"SoundDuration":117647,"Delta":181607646},{"NoteNumber":76,"Velocity":47,"Duration":117646,"SoundDuration":117646,"Delta":181725293},{"NoteNumber":68,"Velocity":51,"Duration":115403,"SoundDuration":115403,"Delta":181842940},{"NoteNumber":62,"Velocity":45,"Duration":461556,"SoundDuration":461556,"Delta":181842940},{"NoteNumber":74,"Velocity":55,"Duration":461556,"SoundDuration":461556,"Delta":181842940},{"NoteNumber":75,"Velocity":52,"Duration":115384,"SoundDuration":115384,"Delta":181958344},{"NoteNumber":80,"Velocity":53,"Duration":115384,"SoundDuration":115384,"Delta":182073728},{"NoteNumber":83,"Velocity":54,"Duration":115384,"SoundDuration":115384,"Delta":182189113},{"NoteNumber":74,"Velocity":47,"Duration":118550,"SoundDuration":118550,"Delta":182304497},{"NoteNumber":76,"Velocity":55,"Duration":118550,"SoundDuration":118550,"Delta":182304497},{"NoteNumber":59,"Velocity":40,"Duration":237127,"SoundDuration":237127,"Delta":182304497},{"NoteNumber":71,"Velocity":49,"Duration":237127,"SoundDuration":237127,"Delta":182304497},{"NoteNumber":80,"Velocity":55,"Duration":118576,"SoundDuration":118576,"Delta":182423048},{"NoteNumber":83,"Velocity":56,"Duration":118577,"SoundDuration":118577,"Delta":182541625},{"NoteNumber":88,"Velocity":57,"Duration":118576,"SoundDuration":118576,"Delta":182660202},{"NoteNumber":80,"Velocity":58,"Duration":116746,"SoundDuration":116746,"Delta":182778779},{"NoteNumber":74,"Velocity":49,"Duration":466941,"SoundDuration":466941,"Delta":182778779},{"NoteNumber":86,"Velocity":60,"Duration":466941,"SoundDuration":466941,"Delta":182778779},{"NoteNumber":87,"Velocity":59,"Duration":116731,"SoundDuration":116731,"Delta":182895525},{"NoteNumber":92,"Velocity":60,"Duration":116731,"SoundDuration":116731,"Delta":183012257},{"NoteNumber":95,"Velocity":61,"Duration":116731,"SoundDuration":116731,"Delta":183128988},{"NoteNumber":86,"Velocity":53,"Duration":119028,"SoundDuration":119028,"Delta":183245720},{"NoteNumber":88,"Velocity":63,"Duration":119028,"SoundDuration":119028,"Delta":183245720},{"NoteNumber":71,"Velocity":44,"Duration":238075,"SoundDuration":238075,"Delta":183245720},{"NoteNumber":83,"Velocity":52,"Duration":238075,"SoundDuration":238075,"Delta":183245720},{"NoteNumber":92,"Velocity":64,"Duration":119047,"SoundDuration":119047,"Delta":183364748},{"NoteNumber":95,"Velocity":65,"Duration":119047,"SoundDuration":119047,"Delta":183483796},{"NoteNumber":100,"Velocity":66,"Duration":119047,"SoundDuration":119047,"Delta":183602843},{"NoteNumber":87,"Velocity":81,"Duration":106115,"SoundDuration":106115,"Delta":183721891},{"NoteNumber":80,"Velocity":81,"Duration":106115,"SoundDuration":106115,"Delta":183721891},{"NoteNumber":95,"Velocity":59,"Duration":106006,"SoundDuration":106006,"Delta":183828006},{"NoteNumber":88,"Velocity":50,"Duration":106006,"SoundDuration":106006,"Delta":183828006},{"NoteNumber":86,"Velocity":50,"Duration":106006,"SoundDuration":106006,"Delta":183828006},{"NoteNumber":83,"Velocity":71,"Duration":95628,"SoundDuration":95628,"Delta":183934013},{"NoteNumber":95,"Velocity":59,"Duration":95541,"SoundDuration":95541,"Delta":184029642},{"NoteNumber":88,"Velocity":50,"Duration":95541,"SoundDuration":95541,"Delta":184029642},{"NoteNumber":86,"Velocity":50,"Duration":95541,"SoundDuration":95541,"Delta":184029642},{"NoteNumber":75,"Velocity":77,"Duration":95541,"SoundDuration":95541,"Delta":184125183},{"NoteNumber":68,"Velocity":77,"Duration":95541,"SoundDuration":95541,"Delta":184125183},{"NoteNumber":83,"Velocity":60,"Duration":95541,"SoundDuration":95541,"Delta":184220725},{"NoteNumber":76,"Velocity":51,"Duration":95541,"SoundDuration":95541,"Delta":184220725},{"NoteNumber":74,"Velocity":51,"Duration":95541,"SoundDuration":95541,"Delta":184220725},{"NoteNumber":71,"Velocity":72,"Duration":95541,"SoundDuration":95541,"Delta":184316266},{"NoteNumber":83,"Velocity":60,"Duration":95541,"SoundDuration":95541,"Delta":184411808},{"NoteNumber":76,"Velocity":51,"Duration":95541,"SoundDuration":95541,"Delta":184411808},{"NoteNumber":74,"Velocity":51,"Duration":95541,"SoundDuration":95541,"Delta":184411808},{"NoteNumber":56,"Velocity":67,"Duration":214188,"SoundDuration":214188,"Delta":184507349},{"NoteNumber":64,"Velocity":44,"Duration":107142,"SoundDuration":107142,"Delta":184614396},{"NoteNumber":68,"Velocity":44,"Duration":107142,"SoundDuration":107142,"Delta":184614396},{"NoteNumber":71,"Velocity":52,"Duration":107142,"SoundDuration":107142,"Delta":184614396},{"NoteNumber":63,"Velocity":60,"Duration":101061,"SoundDuration":101061,"Delta":184721538},{"NoteNumber":62,"Velocity":60,"Duration":101010,"SoundDuration":101010,"Delta":184822599},{"NoteNumber":61,"Velocity":64,"Duration":101010,"SoundDuration":101010,"Delta":184923609},{"NoteNumber":44,"Velocity":42,"Duration":202020,"SoundDuration":202020,"Delta":184923609},{"NoteNumber":60,"Velocity":57,"Duration":101010,"SoundDuration":101010,"Delta":185024619},{"NoteNumber":59,"Velocity":57,"Duration":101010,"SoundDuration":101010,"Delta":185125629},{"NoteNumber":58,"Velocity":56,"Duration":101010,"SoundDuration":101010,"Delta":185226639},{"NoteNumber":32,"Velocity":63,"Duration":220510,"SoundDuration":220510,"Delta":185327649},{"NoteNumber":52,"Velocity":42,"Duration":110293,"SoundDuration":110293,"Delta":185437866},{"NoteNumber":56,"Velocity":42,"Duration":110293,"SoundDuration":110293,"Delta":185437866},{"NoteNumber":59,"Velocity":49,"Duration":110293,"SoundDuration":110293,"Delta":185437866},{"NoteNumber":51,"Velocity":48,"Duration":106042,"SoundDuration":106042,"Delta":185548160},{"NoteNumber":50,"Velocity":48,"Duration":106006,"SoundDuration":106006,"Delta":185654203},{"NoteNumber":49,"Velocity":52,"Duration":106377,"SoundDuration":106377,"Delta":185760210},{"NoteNumber":21,"Velocity":32,"Duration":213895,"SoundDuration":213895,"Delta":185760210},{"NoteNumber":48,"Velocity":45,"Duration":107518,"SoundDuration":107518,"Delta":185866587},{"NoteNumber":47,"Velocity":45,"Duration":108686,"SoundDuration":108686,"Delta":185974106},{"NoteNumber":46,"Velocity":44,"Duration":110013,"SoundDuration":110013,"Delta":186082792},{"NoteNumber":61,"Velocity":45,"Duration":468750,"SoundDuration":468750,"Delta":186192806},{"NoteNumber":66,"Velocity":55,"Duration":468750,"SoundDuration":468750,"Delta":186192806},{"NoteNumber":44,"Velocity":50,"Duration":117187,"SoundDuration":117187,"Delta":186192806},{"NoteNumber":49,"Velocity":43,"Duration":117187,"SoundDuration":117187,"Delta":186309993},{"NoteNumber":54,"Velocity":42,"Duration":117187,"SoundDuration":117187,"Delta":186427181},{"NoteNumber":58,"Velocity":42,"Duration":117187,"SoundDuration":117187,"Delta":186544368},{"NoteNumber":63,"Velocity":45,"Duration":477895,"SoundDuration":477895,"Delta":186661556},{"NoteNumber":68,"Velocity":55,"Duration":477895,"SoundDuration":477895,"Delta":186661556},{"NoteNumber":60,"Velocity":42,"Duration":113636,"SoundDuration":113636,"Delta":186775192},{"NoteNumber":56,"Velocity":42,"Duration":113636,"SoundDuration":113636,"Delta":186888828},{"NoteNumber":51,"Velocity":42,"Duration":136986,"SoundDuration":136986,"Delta":187002464},{"NoteNumber":60,"Velocity":44,"Duration":478088,"SoundDuration":478088,"Delta":187139451},{"NoteNumber":65,"Velocity":54,"Duration":478088,"SoundDuration":478088,"Delta":187139451},{"NoteNumber":44,"Velocity":52,"Duration":119521,"SoundDuration":119521,"Delta":187139451},{"NoteNumber":53,"Velocity":40,"Duration":119522,"SoundDuration":119522,"Delta":187258973},{"NoteNumber":58,"Velocity":40,"Duration":119521,"SoundDuration":119521,"Delta":187378495},{"NoteNumber":62,"Velocity":40,"Duration":119522,"SoundDuration":119522,"Delta":187498017},{"NoteNumber":65,"Velocity":32,"Duration":232558,"SoundDuration":232558,"Delta":187617539},{"NoteNumber":72,"Velocity":57,"Duration":232558,"SoundDuration":232558,"Delta":187617539},{"NoteNumber":51,"Velocity":44,"Duration":116278,"SoundDuration":116278,"Delta":187617539},{"NoteNumber":56,"Velocity":52,"Duration":116278,"SoundDuration":116278,"Delta":187617539},{"NoteNumber":60,"Velocity":40,"Duration":116279,"SoundDuration":116279,"Delta":187733818},{"NoteNumber":60,"Velocity":53,"Duration":262796,"SoundDuration":262796,"Delta":187850097},{"NoteNumber":65,"Velocity":47,"Duration":262796,"SoundDuration":262796,"Delta":187850097},{"NoteNumber":53,"Velocity":34,"Duration":121951,"SoundDuration":121951,"Delta":187850097},{"NoteNumber":58,"Velocity":40,"Duration":121951,"SoundDuration":121951,"Delta":187850097},{"NoteNumber":62,"Velocity":40,"Duration":140845,"SoundDuration":140845,"Delta":187972048},{"NoteNumber":84,"Velocity":65,"Duration":489195,"SoundDuration":489195,"Delta":188112893},{"NoteNumber":55,"Velocity":39,"Duration":724489,"SoundDuration":724489,"Delta":188112893},{"NoteNumber":60,"Velocity":39,"Duration":724489,"SoundDuration":724489,"Delta":188112893},{"NoteNumber":64,"Velocity":47,"Duration":724489,"SoundDuration":724489,"Delta":188112893},{"NoteNumber":79,"Velocity":50,"Duration":131578,"SoundDuration":131578,"Delta":188232415},{"NoteNumber":76,"Velocity":50,"Duration":119047,"SoundDuration":119047,"Delta":188363994},{"NoteNumber":32,"Velocity":45,"Duration":1710293,"SoundDuration":1710293,"Delta":188363994},{"NoteNumber":44,"Velocity":60,"Duration":1710293,"SoundDuration":1710293,"Delta":188363994},{"NoteNumber":72,"Velocity":50,"Duration":119047,"SoundDuration":119047,"Delta":188483041},{"NoteNumber":86,"Velocity":68,"Duration":504456,"SoundDuration":504456,"Delta":188602089},{"NoteNumber":81,"Velocity":53,"Duration":117647,"SoundDuration":117647,"Delta":188719736},{"NoteNumber":78,"Velocity":51,"Duration":117646,"SoundDuration":117646,"Delta":188837383},{"NoteNumber":57,"Velocity":38,"Duration":511097,"SoundDuration":511097,"Delta":188837383},{"NoteNumber":62,"Velocity":38,"Duration":511097,"SoundDuration":511097,"Delta":188837383},{"NoteNumber":66,"Velocity":46,"Duration":511097,"SoundDuration":511097,"Delta":188837383},{"NoteNumber":74,"Velocity":51,"Duration":151515,"SoundDuration":151515,"Delta":188955030},{"NoteNumber":83,"Velocity":61,"Duration":483870,"SoundDuration":483870,"Delta":189106545},{"NoteNumber":78,"Velocity":48,"Duration":120967,"SoundDuration":120967,"Delta":189227513},{"NoteNumber":74,"Velocity":48,"Duration":120967,"SoundDuration":120967,"Delta":189348481},{"NoteNumber":68,"Velocity":34,"Duration":241935,"SoundDuration":241935,"Delta":189348481},{"NoteNumber":64,"Velocity":34,"Duration":241935,"SoundDuration":241935,"Delta":189348481},{"NoteNumber":59,"Velocity":28,"Duration":241935,"SoundDuration":241935,"Delta":189348481},{"NoteNumber":71,"Velocity":48,"Duration":120967,"SoundDuration":120967,"Delta":189469448},{"NoteNumber":78,"Velocity":57,"Duration":483870,"SoundDuration":483870,"Delta":189590416},{"NoteNumber":66,"Velocity":34,"Duration":241935,"SoundDuration":241935,"Delta":189590416},{"NoteNumber":62,"Velocity":28,"Duration":241935,"SoundDuration":241935,"Delta":189590416},{"NoteNumber":57,"Velocity":28,"Duration":241935,"SoundDuration":241935,"Delta":189590416},{"NoteNumber":74,"Velocity":47,"Duration":120967,"SoundDuration":120967,"Delta":189711384},{"NoteNumber":73,"Velocity":47,"Duration":120967,"SoundDuration":120967,"Delta":189832352},{"NoteNumber":68,"Velocity":34,"Duration":241935,"SoundDuration":241935,"Delta":189832352},{"NoteNumber":64,"Velocity":28,"Duration":241935,"SoundDuration":241935,"Delta":189832352},{"NoteNumber":59,"Velocity":28,"Duration":241935,"SoundDuration":241935,"Delta":189832352},{"NoteNumber":71,"Velocity":47,"Duration":120967,"SoundDuration":120967,"Delta":189953319},{"NoteNumber":78,"Velocity":53,"Duration":500000,"SoundDuration":500000,"Delta":190074287},{"NoteNumber":85,"Velocity":67,"Duration":500000,"SoundDuration":500000,"Delta":190074287},{"NoteNumber":56,"Velocity":59,"Duration":125000,"SoundDuration":125000,"Delta":190074287},{"NoteNumber":61,"Velocity":53,"Duration":125000,"SoundDuration":125000,"Delta":190199287},{"NoteNumber":66,"Velocity":52,"Duration":125000,"SoundDuration":125000,"Delta":190324287},{"NoteNumber":70,"Velocity":52,"Duration":125000,"SoundDuration":125000,"Delta":190449287},{"NoteNumber":80,"Velocity":53,"Duration":514210,"SoundDuration":514210,"Delta":190574287},{"NoteNumber":87,"Velocity":67,"Duration":514210,"SoundDuration":514210,"Delta":190574287},{"NoteNumber":72,"Velocity":52,"Duration":119047,"SoundDuration":119047,"Delta":190693335},{"NoteNumber":68,"Velocity":52,"Duration":119047,"SoundDuration":119047,"Delta":190812382},{"NoteNumber":63,"Velocity":52,"Duration":157068,"SoundDuration":157068,"Delta":190931430},{"NoteNumber":79,"Velocity":42,"Duration":533332,"SoundDuration":533332,"Delta":191088498},{"NoteNumber":80,"Velocity":52,"Duration":1185541,"SoundDuration":1185541,"Delta":191088498},{"NoteNumber":84,"Velocity":66,"Duration":1185541,"SoundDuration":1185541,"Delta":191088498},{"NoteNumber":56,"Velocity":63,"Duration":133333,"SoundDuration":133333,"Delta":191088498},{"NoteNumber":65,"Velocity":51,"Duration":133333,"SoundDuration":133333,"Delta":191221831},{"NoteNumber":70,"Velocity":51,"Duration":133333,"SoundDuration":133333,"Delta":191355164},{"NoteNumber":74,"Velocity":51,"Duration":133333,"SoundDuration":133333,"Delta":191488497},{"NoteNumber":77,"Velocity":60,"Duration":299803,"SoundDuration":299803,"Delta":191621831},{"NoteNumber":63,"Velocity":40,"Duration":144289,"SoundDuration":144289,"Delta":191621831},{"NoteNumber":68,"Velocity":57,"Duration":144289,"SoundDuration":144289,"Delta":191621831},{"NoteNumber":72,"Velocity":48,"Duration":155514,"SoundDuration":155514,"Delta":191766120},{"NoteNumber":72,"Velocity":55,"Duration":352404,"SoundDuration":352404,"Delta":191921635},{"NoteNumber":65,"Velocity":36,"Duration":168633,"SoundDuration":168633,"Delta":191921635},{"NoteNumber":70,"Velocity":46,"Duration":168633,"SoundDuration":168633,"Delta":191921635},{"NoteNumber":74,"Velocity":48,"Duration":183770,"SoundDuration":183770,"Delta":192090268},{"NoteNumber":90,"Velocity":69,"Duration":1008825,"SoundDuration":1008825,"Delta":192274039},{"NoteNumber":61,"Velocity":39,"Duration":1513026,"SoundDuration":1513026,"Delta":192274039},{"NoteNumber":66,"Velocity":39,"Duration":1513026,"SoundDuration":1513026,"Delta":192274039},{"NoteNumber":70,"Velocity":47,"Duration":1513026,"SoundDuration":1513026,"Delta":192274039},{"NoteNumber":85,"Velocity":51,"Duration":241935,"SoundDuration":241935,"Delta":192515974},{"NoteNumber":82,"Velocity":50,"Duration":241935,"SoundDuration":241935,"Delta":192757910},{"NoteNumber":32,"Velocity":39,"Duration":4230889,"SoundDuration":4230889,"Delta":192757910},{"NoteNumber":44,"Velocity":52,"Duration":4230889,"SoundDuration":4230889,"Delta":192757910},{"NoteNumber":78,"Velocity":50,"Duration":283018,"SoundDuration":283018,"Delta":192999845},{"NoteNumber":92,"Velocity":64,"Duration":1042016,"SoundDuration":1042016,"Delta":193282864},{"NoteNumber":87,"Velocity":47,"Duration":252100,"SoundDuration":252100,"Delta":193534965},{"NoteNumber":84,"Velocity":47,"Duration":252100,"SoundDuration":252100,"Delta":193787066},{"NoteNumber":63,"Velocity":33,"Duration":1046289,"SoundDuration":1046289,"Delta":193787066},{"NoteNumber":68,"Velocity":33,"Duration":1046289,"SoundDuration":1046289,"Delta":193787066},{"NoteNumber":72,"Velocity":38,"Duration":1046289,"SoundDuration":1046289,"Delta":193787066},{"NoteNumber":80,"Velocity":47,"Duration":285714,"SoundDuration":285714,"Delta":194039166},{"NoteNumber":93,"Velocity":58,"Duration":1043085,"SoundDuration":1043085,"Delta":194324881},{"NoteNumber":88,"Velocity":43,"Duration":254237,"SoundDuration":254237,"Delta":194579118},{"NoteNumber":85,"Velocity":42,"Duration":254237,"SoundDuration":254237,"Delta":194833355},{"NoteNumber":73,"Velocity":32,"Duration":1159610,"SoundDuration":1159610,"Delta":194833355},{"NoteNumber":69,"Velocity":32,"Duration":1159610,"SoundDuration":1159610,"Delta":194833355},{"NoteNumber":64,"Velocity":26,"Duration":1159610,"SoundDuration":1159610,"Delta":194833355},{"NoteNumber":79,"Velocity":34,"Duration":280373,"SoundDuration":280373,"Delta":195087592},{"NoteNumber":81,"Velocity":42,"Duration":280373,"SoundDuration":280373,"Delta":195087592},{"NoteNumber":90,"Velocity":49,"Duration":625000,"SoundDuration":625000,"Delta":195367966},{"NoteNumber":95,"Velocity":53,"Duration":1625000,"SoundDuration":1625000,"Delta":195367966},{"NoteNumber":81,"Velocity":30,"Duration":1000000,"SoundDuration":1000000,"Delta":195992966},{"NoteNumber":83,"Velocity":37,"Duration":1000000,"SoundDuration":1000000,"Delta":195992966},{"NoteNumber":75,"Velocity":27,"Duration":991666,"SoundDuration":991666,"Delta":195992966},{"NoteNumber":71,"Velocity":23,"Duration":1000000,"SoundDuration":1000000,"Delta":195992966},{"NoteNumber":66,"Velocity":23,"Duration":1000000,"SoundDuration":1000000,"Delta":195992966},{"NoteNumber":75,"Velocity":43,"Duration":279069,"SoundDuration":279069,"Delta":196992966},{"NoteNumber":44,"Velocity":34,"Duration":1900023,"SoundDuration":1900023,"Delta":196992966},{"NoteNumber":80,"Velocity":37,"Duration":236425,"SoundDuration":236425,"Delta":197272036},{"NoteNumber":87,"Velocity":37,"Duration":236425,"SoundDuration":236425,"Delta":197508462},{"NoteNumber":68,"Velocity":26,"Duration":472850,"SoundDuration":472850,"Delta":197508462},{"NoteNumber":76,"Velocity":30,"Duration":472850,"SoundDuration":472850,"Delta":197508462},{"NoteNumber":90,"Velocity":37,"Duration":236425,"SoundDuration":236425,"Delta":197744887},{"NoteNumber":87,"Velocity":40,"Duration":232558,"SoundDuration":232558,"Delta":197981313},{"NoteNumber":83,"Velocity":30,"Duration":465115,"SoundDuration":465115,"Delta":197981313},{"NoteNumber":76,"Velocity":26,"Duration":465115,"SoundDuration":465115,"Delta":197981313},{"NoteNumber":80,"Velocity":34,"Duration":232557,"SoundDuration":232557,"Delta":198213871},{"NoteNumber":73,"Velocity":42,"Duration":111640,"SoundDuration":111640,"Delta":198446429},{"NoteNumber":69,"Velocity":26,"Duration":446561,"SoundDuration":446561,"Delta":198446429},{"NoteNumber":76,"Velocity":30,"Duration":446561,"SoundDuration":446561,"Delta":198446429},{"NoteNumber":80,"Velocity":37,"Duration":111640,"SoundDuration":111640,"Delta":198558069},{"NoteNumber":85,"Velocity":37,"Duration":111640,"SoundDuration":111640,"Delta":198669709},{"NoteNumber":88,"Velocity":37,"Duration":111640,"SoundDuration":111640,"Delta":198781349},{"NoteNumber":75,"Velocity":42,"Duration":237285,"SoundDuration":237285,"Delta":198892990},{"NoteNumber":44,"Velocity":34,"Duration":1854535,"SoundDuration":1854535,"Delta":198892990},{"NoteNumber":80,"Velocity":37,"Duration":237285,"SoundDuration":237285,"Delta":199130275},{"NoteNumber":87,"Velocity":37,"Duration":237285,"SoundDuration":237285,"Delta":199367561},{"NoteNumber":68,"Velocity":26,"Duration":469843,"SoundDuration":469843,"Delta":199367561},{"NoteNumber":76,"Velocity":31,"Duration":469843,"SoundDuration":469843,"Delta":199367561},{"NoteNumber":90,"Velocity":37,"Duration":232558,"SoundDuration":232558,"Delta":199604846},{"NoteNumber":87,"Velocity":40,"Duration":232557,"SoundDuration":232557,"Delta":199837404},{"NoteNumber":83,"Velocity":31,"Duration":465115,"SoundDuration":465115,"Delta":199837404},{"NoteNumber":76,"Velocity":26,"Duration":465115,"SoundDuration":465115,"Delta":199837404},{"NoteNumber":80,"Velocity":34,"Duration":232558,"SoundDuration":232558,"Delta":200069962},{"NoteNumber":73,"Velocity":40,"Duration":111251,"SoundDuration":111251,"Delta":200302520},{"NoteNumber":69,"Velocity":26,"Duration":445005,"SoundDuration":445005,"Delta":200302520},{"NoteNumber":76,"Velocity":31,"Duration":445005,"SoundDuration":445005,"Delta":200302520},{"NoteNumber":80,"Velocity":37,"Duration":111251,"SoundDuration":111251,"Delta":200413771},{"NoteNumber":85,"Velocity":37,"Duration":111251,"SoundDuration":111251,"Delta":200525023},{"NoteNumber":88,"Velocity":37,"Duration":111251,"SoundDuration":111251,"Delta":200636274},{"NoteNumber":75,"Velocity":43,"Duration":236425,"SoundDuration":236425,"Delta":200747525},{"NoteNumber":44,"Velocity":34,"Duration":1908095,"SoundDuration":1908095,"Delta":200747525},{"NoteNumber":80,"Velocity":36,"Duration":236425,"SoundDuration":236425,"Delta":200983951},{"NoteNumber":87,"Velocity":37,"Duration":233463,"SoundDuration":233463,"Delta":201220376},{"NoteNumber":64,"Velocity":26,"Duration":466926,"SoundDuration":466926,"Delta":201220376},{"NoteNumber":71,"Velocity":30,"Duration":466926,"SoundDuration":466926,"Delta":201220376},{"NoteNumber":90,"Velocity":39,"Duration":233463,"SoundDuration":233463,"Delta":201453839},{"NoteNumber":80,"Velocity":47,"Duration":233463,"SoundDuration":233463,"Delta":201687302},{"NoteNumber":71,"Velocity":28,"Duration":466926,"SoundDuration":466926,"Delta":201687302},{"NoteNumber":76,"Velocity":34,"Duration":466926,"SoundDuration":466926,"Delta":201687302},{"NoteNumber":87,"Velocity":39,"Duration":233463,"SoundDuration":233463,"Delta":201920765},{"NoteNumber":92,"Velocity":39,"Duration":233463,"SoundDuration":233463,"Delta":202154228},{"NoteNumber":76,"Velocity":26,"Duration":501392,"SoundDuration":501392,"Delta":202154228},{"NoteNumber":83,"Velocity":30,"Duration":501392,"SoundDuration":501392,"Delta":202154228},{"NoteNumber":95,"Velocity":39,"Duration":267929,"SoundDuration":267929,"Delta":202387691},{"NoteNumber":80,"Velocity":47,"Duration":250000,"SoundDuration":250000,"Delta":202655620},{"NoteNumber":32,"Velocity":39,"Duration":1786295,"SoundDuration":1786295,"Delta":202655620},{"NoteNumber":44,"Velocity":39,"Duration":1786295,"SoundDuration":1786295,"Delta":202655620},{"NoteNumber":85,"Velocity":40,"Duration":223048,"SoundDuration":223048,"Delta":202905620},{"NoteNumber":92,"Velocity":40,"Duration":223048,"SoundDuration":223048,"Delta":203128669},{"NoteNumber":69,"Velocity":27,"Duration":446097,"SoundDuration":446097,"Delta":203128669},{"NoteNumber":76,"Velocity":32,"Duration":446097,"SoundDuration":446097,"Delta":203128669},{"NoteNumber":97,"Velocity":40,"Duration":223048,"SoundDuration":223048,"Delta":203351717},{"NoteNumber":92,"Velocity":45,"Duration":223048,"SoundDuration":223048,"Delta":203574766},{"NoteNumber":88,"Velocity":32,"Duration":446096,"SoundDuration":446096,"Delta":203574766},{"NoteNumber":81,"Velocity":27,"Duration":446096,"SoundDuration":446096,"Delta":203574766},{"NoteNumber":85,"Velocity":40,"Duration":223048,"SoundDuration":223048,"Delta":203797814},{"NoteNumber":78,"Velocity":46,"Duration":105263,"SoundDuration":105263,"Delta":204020863},{"NoteNumber":62,"Velocity":26,"Duration":421053,"SoundDuration":421053,"Delta":204020863},{"NoteNumber":66,"Velocity":26,"Duration":421053,"SoundDuration":421053,"Delta":204020863},{"NoteNumber":72,"Velocity":30,"Duration":421053,"SoundDuration":421053,"Delta":204020863},{"NoteNumber":84,"Velocity":40,"Duration":105263,"SoundDuration":105263,"Delta":204126126},{"NoteNumber":88,"Velocity":40,"Duration":105263,"SoundDuration":105263,"Delta":204231389},{"NoteNumber":92,"Velocity":40,"Duration":105263,"SoundDuration":105263,"Delta":204336652},{"NoteNumber":80,"Velocity":46,"Duration":223048,"SoundDuration":223048,"Delta":204441916},{"NoteNumber":32,"Velocity":39,"Duration":1754957,"SoundDuration":1754957,"Delta":204441916},{"NoteNumber":44,"Velocity":39,"Duration":1754957,"SoundDuration":1754957,"Delta":204441916},{"NoteNumber":85,"Velocity":40,"Duration":223048,"SoundDuration":223048,"Delta":204664964},{"NoteNumber":92,"Velocity":40,"Duration":223048,"SoundDuration":223048,"Delta":204888013},{"NoteNumber":69,"Velocity":28,"Duration":446096,"SoundDuration":446096,"Delta":204888013},{"NoteNumber":76,"Velocity":33,"Duration":446096,"SoundDuration":446096,"Delta":204888013},{"NoteNumber":97,"Velocity":40,"Duration":223048,"SoundDuration":223048,"Delta":205111061},{"NoteNumber":92,"Velocity":45,"Duration":223048,"SoundDuration":223048,"Delta":205334110},{"NoteNumber":88,"Velocity":32,"Duration":446097,"SoundDuration":446097,"Delta":205334110},{"NoteNumber":81,"Velocity":27,"Duration":446097,"SoundDuration":446097,"Delta":205334110},{"NoteNumber":85,"Velocity":40,"Duration":223048,"SoundDuration":223048,"Delta":205557158},{"NoteNumber":78,"Velocity":45,"Duration":104166,"SoundDuration":104166,"Delta":205780207},{"NoteNumber":62,"Velocity":27,"Duration":416666,"SoundDuration":416666,"Delta":205780207},{"NoteNumber":66,"Velocity":27,"Duration":416666,"SoundDuration":416666,"Delta":205780207},{"NoteNumber":72,"Velocity":32,"Duration":416666,"SoundDuration":416666,"Delta":205780207},{"NoteNumber":84,"Velocity":40,"Duration":104166,"SoundDuration":104166,"Delta":205884373},{"NoteNumber":88,"Velocity":40,"Duration":104166,"SoundDuration":104166,"Delta":205988540},{"NoteNumber":92,"Velocity":40,"Duration":104166,"SoundDuration":104166,"Delta":206092707},{"NoteNumber":32,"Velocity":47,"Duration":3153980,"SoundDuration":3153980,"Delta":206196874},{"NoteNumber":44,"Velocity":47,"Duration":3153980,"SoundDuration":3153980,"Delta":206196874},{"NoteNumber":80,"Velocity":52,"Duration":104072,"SoundDuration":104072,"Delta":206303803},{"NoteNumber":85,"Velocity":52,"Duration":98039,"SoundDuration":98039,"Delta":206407876},{"NoteNumber":92,"Velocity":52,"Duration":97088,"SoundDuration":97088,"Delta":206505916},{"NoteNumber":97,"Velocity":54,"Duration":96983,"SoundDuration":96983,"Delta":206603004},{"NoteNumber":81,"Velocity":30,"Duration":395765,"SoundDuration":395765,"Delta":206603004},{"NoteNumber":88,"Velocity":35,"Duration":395765,"SoundDuration":395765,"Delta":206603004},{"NoteNumber":92,"Velocity":51,"Duration":97508,"SoundDuration":97508,"Delta":206699987},{"NoteNumber":85,"Velocity":50,"Duration":97932,"SoundDuration":97932,"Delta":206797495},{"NoteNumber":80,"Velocity":48,"Duration":103341,"SoundDuration":103341,"Delta":206895428},{"NoteNumber":76,"Velocity":38,"Duration":388040,"SoundDuration":388040,"Delta":206998769},{"NoteNumber":69,"Velocity":31,"Duration":388040,"SoundDuration":388040,"Delta":206998769},{"NoteNumber":73,"Velocity":49,"Duration":97192,"SoundDuration":97192,"Delta":207096171},{"NoteNumber":80,"Velocity":49,"Duration":96878,"SoundDuration":96878,"Delta":207193364},{"NoteNumber":85,"Velocity":50,"Duration":96566,"SoundDuration":96566,"Delta":207290243},{"NoteNumber":92,"Velocity":52,"Duration":96878,"SoundDuration":96878,"Delta":207386809},{"NoteNumber":81,"Velocity":35,"Duration":395768,"SoundDuration":395768,"Delta":207386809},{"NoteNumber":76,"Velocity":30,"Duration":395768,"SoundDuration":395768,"Delta":207386809},{"NoteNumber":85,"Velocity":51,"Duration":97508,"SoundDuration":97508,"Delta":207483688},{"NoteNumber":80,"Velocity":49,"Duration":98039,"SoundDuration":98039,"Delta":207581196},{"NoteNumber":73,"Velocity":49,"Duration":103341,"SoundDuration":103341,"Delta":207679236},{"NoteNumber":69,"Velocity":38,"Duration":389299,"SoundDuration":389299,"Delta":207782577},{"NoteNumber":64,"Velocity":32,"Duration":389299,"SoundDuration":389299,"Delta":207782577},{"NoteNumber":68,"Velocity":53,"Duration":97508,"SoundDuration":97508,"Delta":207880297},{"NoteNumber":73,"Velocity":53,"Duration":97192,"SoundDuration":97192,"Delta":207977805},{"NoteNumber":80,"Velocity":53,"Duration":96878,"SoundDuration":96878,"Delta":208074998},{"NoteNumber":85,"Velocity":56,"Duration":96983,"SoundDuration":96983,"Delta":208171877},{"NoteNumber":69,"Velocity":31,"Duration":395001,"SoundDuration":395001,"Delta":208171877},{"NoteNumber":76,"Velocity":36,"Duration":395001,"SoundDuration":395001,"Delta":208171877},{"NoteNumber":80,"Velocity":53,"Duration":97297,"SoundDuration":97297,"Delta":208268860},{"NoteNumber":73,"Velocity":51,"Duration":97719,"SoundDuration":97719,"Delta":208366157},{"NoteNumber":68,"Velocity":51,"Duration":103000,"SoundDuration":103000,"Delta":208463877},{"NoteNumber":57,"Velocity":32,"Duration":389109,"SoundDuration":389109,"Delta":208566878},{"NoteNumber":64,"Velocity":38,"Duration":389109,"SoundDuration":389109,"Delta":208566878},{"NoteNumber":61,"Velocity":50,"Duration":97508,"SoundDuration":97508,"Delta":208664408},{"NoteNumber":68,"Velocity":51,"Duration":97192,"SoundDuration":97192,"Delta":208761916},{"NoteNumber":73,"Velocity":52,"Duration":96878,"SoundDuration":96878,"Delta":208859108},{"NoteNumber":80,"Velocity":54,"Duration":96983,"SoundDuration":96983,"Delta":208955987},{"NoteNumber":64,"Velocity":31,"Duration":394867,"SoundDuration":394867,"Delta":208955987},{"NoteNumber":69,"Velocity":36,"Duration":394867,"SoundDuration":394867,"Delta":208955987},{"NoteNumber":73,"Velocity":52,"Duration":97402,"SoundDuration":97402,"Delta":209052970},{"NoteNumber":68,"Velocity":51,"Duration":97826,"SoundDuration":97826,"Delta":209150373},{"NoteNumber":61,"Velocity":49,"Duration":102655,"SoundDuration":102655,"Delta":209248199},{"NoteNumber":57,"Velocity":36,"Duration":390777,"SoundDuration":390777,"Delta":209350854},{"NoteNumber":52,"Velocity":30,"Duration":390777,"SoundDuration":390777,"Delta":209350854},{"NoteNumber":56,"Velocity":50,"Duration":97826,"SoundDuration":97826,"Delta":209448893},{"NoteNumber":61,"Velocity":49,"Duration":97614,"SoundDuration":97614,"Delta":209546720},{"NoteNumber":68,"Velocity":49,"Duration":97297,"SoundDuration":97297,"Delta":209644334},{"NoteNumber":73,"Velocity":51,"Duration":97087,"SoundDuration":97087,"Delta":209741631},{"NoteNumber":52,"Velocity":28,"Duration":395104,"SoundDuration":395104,"Delta":209741631},{"NoteNumber":57,"Velocity":33,"Duration":395104,"SoundDuration":395104,"Delta":209741631},{"NoteNumber":68,"Velocity":48,"Duration":97402,"SoundDuration":97402,"Delta":209838719},{"NoteNumber":61,"Velocity":46,"Duration":97613,"SoundDuration":97613,"Delta":209936121},{"NoteNumber":56,"Velocity":46,"Duration":103000,"SoundDuration":103000,"Delta":210033735},{"NoteNumber":52,"Velocity":28,"Duration":388880,"SoundDuration":388880,"Delta":210136736},{"NoteNumber":57,"Velocity":34,"Duration":388880,"SoundDuration":388880,"Delta":210136736},{"NoteNumber":56,"Velocity":44,"Duration":97402,"SoundDuration":97402,"Delta":210234456},{"NoteNumber":61,"Velocity":44,"Duration":97087,"SoundDuration":97087,"Delta":210331858},{"NoteNumber":68,"Velocity":45,"Duration":96670,"SoundDuration":96670,"Delta":210428946},{"NoteNumber":73,"Velocity":46,"Duration":96670,"SoundDuration":96670,"Delta":210525616},{"NoteNumber":52,"Velocity":27,"Duration":393017,"SoundDuration":393017,"Delta":210525616},{"NoteNumber":57,"Velocity":31,"Duration":393017,"SoundDuration":393017,"Delta":210525616},{"NoteNumber":68,"Velocity":44,"Duration":97297,"SoundDuration":97297,"Delta":210622287},{"NoteNumber":61,"Velocity":43,"Duration":97932,"SoundDuration":97932,"Delta":210719584},{"NoteNumber":56,"Velocity":42,"Duration":101116,"SoundDuration":101116,"Delta":210817517},{"NoteNumber":44,"Velocity":36,"Duration":1565630,"SoundDuration":1565630,"Delta":210918633},{"NoteNumber":57,"Velocity":32,"Duration":389303,"SoundDuration":389303,"Delta":210918633},{"NoteNumber":52,"Velocity":27,"Duration":389303,"SoundDuration":389303,"Delta":210918633},{"NoteNumber":56,"Velocity":45,"Duration":97508,"SoundDuration":97508,"Delta":211016566},{"NoteNumber":61,"Velocity":44,"Duration":97192,"SoundDuration":97192,"Delta":211114074},{"NoteNumber":68,"Velocity":44,"Duration":96670,"SoundDuration":96670,"Delta":211211267},{"NoteNumber":73,"Velocity":46,"Duration":96670,"SoundDuration":96670,"Delta":211307937},{"NoteNumber":52,"Velocity":25,"Duration":394266,"SoundDuration":394266,"Delta":211307937},{"NoteNumber":57,"Velocity":30,"Duration":394266,"SoundDuration":394266,"Delta":211307937},{"NoteNumber":68,"Velocity":43,"Duration":97192,"SoundDuration":97192,"Delta":211404608},{"NoteNumber":61,"Velocity":42,"Duration":97402,"SoundDuration":97402,"Delta":211501800},{"NoteNumber":56,"Velocity":40,"Duration":103000,"SoundDuration":103000,"Delta":211599203},{"NoteNumber":52,"Velocity":25,"Duration":388350,"SoundDuration":388350,"Delta":211702204},{"NoteNumber":57,"Velocity":30,"Duration":388350,"SoundDuration":388350,"Delta":211702204},{"NoteNumber":56,"Velocity":39,"Duration":97087,"SoundDuration":97087,"Delta":211799291},{"NoteNumber":61,"Velocity":38,"Duration":97087,"SoundDuration":97087,"Delta":211896379},{"NoteNumber":68,"Velocity":39,"Duration":97087,"SoundDuration":97087,"Delta":211993466},{"NoteNumber":73,"Velocity":40,"Duration":96774,"SoundDuration":96774,"Delta":212090554},{"NoteNumber":52,"Velocity":24,"Duration":393710,"SoundDuration":393710,"Delta":212090554},{"NoteNumber":57,"Velocity":28,"Duration":393710,"SoundDuration":393710,"Delta":212090554},{"NoteNumber":68,"Velocity":38,"Duration":96983,"SoundDuration":96983,"Delta":212187328},{"NoteNumber":61,"Velocity":37,"Duration":97297,"SoundDuration":97297,"Delta":212284311},{"NoteNumber":56,"Velocity":36,"Duration":102655,"SoundDuration":102655,"Delta":212381609},{"NoteNumber":42,"Velocity":29,"Duration":390044,"SoundDuration":390044,"Delta":212484264},{"NoteNumber":51,"Velocity":29,"Duration":390044,"SoundDuration":390044,"Delta":212484264},{"NoteNumber":56,"Velocity":29,"Duration":390044,"SoundDuration":390044,"Delta":212484264},{"NoteNumber":52,"Velocity":32,"Duration":78211,"SoundDuration":78211,"Delta":212561670},{"NoteNumber":57,"Velocity":32,"Duration":78211,"SoundDuration":78211,"Delta":212639881},{"NoteNumber":60,"Velocity":33,"Duration":78211,"SoundDuration":78211,"Delta":212718093},{"NoteNumber":64,"Velocity":33,"Duration":78004,"SoundDuration":78004,"Delta":212796304},{"NoteNumber":54,"Velocity":30,"Duration":389207,"SoundDuration":389207,"Delta":212874308},{"NoteNumber":63,"Velocity":30,"Duration":389207,"SoundDuration":389207,"Delta":212874308},{"NoteNumber":68,"Velocity":30,"Duration":389207,"SoundDuration":389207,"Delta":212874308},{"NoteNumber":64,"Velocity":34,"Duration":77962,"SoundDuration":77962,"Delta":212952271},{"NoteNumber":69,"Velocity":35,"Duration":77841,"SoundDuration":77841,"Delta":213030234},{"NoteNumber":72,"Velocity":36,"Duration":77720,"SoundDuration":77720,"Delta":213108075},{"NoteNumber":76,"Velocity":36,"Duration":77720,"SoundDuration":77720,"Delta":213185795},{"NoteNumber":66,"Velocity":32,"Duration":387577,"SoundDuration":387577,"Delta":213263515},{"NoteNumber":75,"Velocity":32,"Duration":387577,"SoundDuration":387577,"Delta":213263515},{"NoteNumber":80,"Velocity":32,"Duration":387577,"SoundDuration":387577,"Delta":213263515},{"NoteNumber":76,"Velocity":37,"Duration":77535,"SoundDuration":77535,"Delta":213341236},{"NoteNumber":81,"Velocity":38,"Duration":77474,"SoundDuration":77474,"Delta":213418771},{"NoteNumber":84,"Velocity":38,"Duration":77474,"SoundDuration":77474,"Delta":213496246},{"NoteNumber":88,"Velocity":39,"Duration":77372,"SoundDuration":77372,"Delta":213573720},{"NoteNumber":78,"Velocity":34,"Duration":386149,"SoundDuration":386149,"Delta":213651093},{"NoteNumber":87,"Velocity":34,"Duration":386149,"SoundDuration":386149,"Delta":213651093},{"NoteNumber":92,"Velocity":34,"Duration":386149,"SoundDuration":386149,"Delta":213651093},{"NoteNumber":88,"Velocity":40,"Duration":77230,"SoundDuration":77230,"Delta":213728323},{"NoteNumber":93,"Velocity":40,"Duration":77229,"SoundDuration":77229,"Delta":213805553},{"NoteNumber":96,"Velocity":42,"Duration":77230,"SoundDuration":77230,"Delta":213882783},{"NoteNumber":100,"Velocity":42,"Duration":77229,"SoundDuration":77229,"Delta":213960013},{"NoteNumber":90,"Velocity":51,"Duration":53797,"SoundDuration":53797,"Delta":214037243},{"NoteNumber":92,"Velocity":37,"Duration":53797,"SoundDuration":53797,"Delta":214091040},{"NoteNumber":99,"Velocity":37,"Duration":53797,"SoundDuration":53797,"Delta":214144838},{"NoteNumber":93,"Velocity":37,"Duration":53797,"SoundDuration":53797,"Delta":214198635},{"NoteNumber":96,"Velocity":37,"Duration":53797,"SoundDuration":53797,"Delta":214252433},{"NoteNumber":100,"Velocity":37,"Duration":53797,"SoundDuration":53797,"Delta":214306230},{"NoteNumber":105,"Velocity":37,"Duration":56962,"SoundDuration":56962,"Delta":214360028},{"NoteNumber":90,"Velocity":51,"Duration":53124,"SoundDuration":53124,"Delta":214416990},{"NoteNumber":94,"Velocity":38,"Duration":53124,"SoundDuration":53124,"Delta":214470115},{"NoteNumber":98,"Velocity":38,"Duration":53125,"SoundDuration":53125,"Delta":214523240},{"NoteNumber":95,"Velocity":39,"Duration":53124,"SoundDuration":53124,"Delta":214576365},{"NoteNumber":99,"Velocity":39,"Duration":53124,"SoundDuration":53124,"Delta":214629490},{"NoteNumber":102,"Velocity":39,"Duration":53124,"SoundDuration":53124,"Delta":214682615},{"NoteNumber":107,"Velocity":39,"Duration":56250,"SoundDuration":56250,"Delta":214735740},{"NoteNumber":88,"Velocity":52,"Duration":53797,"SoundDuration":53797,"Delta":214791990},{"NoteNumber":90,"Velocity":37,"Duration":53797,"SoundDuration":53797,"Delta":214845787},{"NoteNumber":97,"Velocity":37,"Duration":53797,"SoundDuration":53797,"Delta":214899585},{"NoteNumber":91,"Velocity":37,"Duration":53797,"SoundDuration":53797,"Delta":214953382},{"NoteNumber":94,"Velocity":37,"Duration":53797,"SoundDuration":53797,"Delta":215007180},{"NoteNumber":98,"Velocity":37,"Duration":53797,"SoundDuration":53797,"Delta":215060977},{"NoteNumber":103,"Velocity":37,"Duration":56962,"SoundDuration":56962,"Delta":215114775},{"NoteNumber":88,"Velocity":51,"Duration":53797,"SoundDuration":53797,"Delta":215171737},{"NoteNumber":92,"Velocity":36,"Duration":53797,"SoundDuration":53797,"Delta":215225534},{"NoteNumber":96,"Velocity":36,"Duration":53797,"SoundDuration":53797,"Delta":215279332},{"NoteNumber":93,"Velocity":36,"Duration":53797,"SoundDuration":53797,"Delta":215333129},{"NoteNumber":97,"Velocity":36,"Duration":53797,"SoundDuration":53797,"Delta":215386927},{"NoteNumber":100,"Velocity":37,"Duration":59197,"SoundDuration":59197,"Delta":215440724},{"NoteNumber":105,"Velocity":37,"Duration":65061,"SoundDuration":65061,"Delta":215499922},{"NoteNumber":86,"Velocity":51,"Duration":53797,"SoundDuration":53797,"Delta":215564983},{"NoteNumber":88,"Velocity":37,"Duration":53797,"SoundDuration":53797,"Delta":215618781},{"NoteNumber":95,"Velocity":37,"Duration":53797,"SoundDuration":53797,"Delta":215672578},{"NoteNumber":89,"Velocity":37,"Duration":53797,"SoundDuration":53797,"Delta":215726376},{"NoteNumber":92,"Velocity":37,"Duration":53797,"SoundDuration":53797,"Delta":215780173},{"NoteNumber":96,"Velocity":37,"Duration":53797,"SoundDuration":53797,"Delta":215833971},{"NoteNumber":101,"Velocity":37,"Duration":56962,"SoundDuration":56962,"Delta":215887768},{"NoteNumber":86,"Velocity":50,"Duration":53797,"SoundDuration":53797,"Delta":215944730},{"NoteNumber":90,"Velocity":37,"Duration":53797,"SoundDuration":53797,"Delta":215998528},{"NoteNumber":94,"Velocity":37,"Duration":53797,"SoundDuration":53797,"Delta":216052325},{"NoteNumber":91,"Velocity":37,"Duration":53797,"SoundDuration":53797,"Delta":216106123},{"NoteNumber":95,"Velocity":37,"Duration":53797,"SoundDuration":53797,"Delta":216159920},{"NoteNumber":98,"Velocity":37,"Duration":53797,"SoundDuration":53797,"Delta":216213718},{"NoteNumber":103,"Velocity":37,"Duration":56962,"SoundDuration":56962,"Delta":216267515},{"NoteNumber":84,"Velocity":51,"Duration":53124,"SoundDuration":53124,"Delta":216324477},{"NoteNumber":86,"Velocity":37,"Duration":53124,"SoundDuration":53124,"Delta":216377602},{"NoteNumber":93,"Velocity":37,"Duration":53125,"SoundDuration":53125,"Delta":216430727},{"NoteNumber":87,"Velocity":37,"Duration":53124,"SoundDuration":53124,"Delta":216483852},{"NoteNumber":90,"Velocity":37,"Duration":53124,"SoundDuration":53124,"Delta":216536977},{"NoteNumber":94,"Velocity":37,"Duration":53124,"SoundDuration":53124,"Delta":216590102},{"NoteNumber":99,"Velocity":37,"Duration":56250,"SoundDuration":56250,"Delta":216643227},{"NoteNumber":84,"Velocity":52,"Duration":53797,"SoundDuration":53797,"Delta":216699477},{"NoteNumber":88,"Velocity":37,"Duration":53797,"SoundDuration":53797,"Delta":216753275},{"NoteNumber":92,"Velocity":37,"Duration":53797,"SoundDuration":53797,"Delta":216807072},{"NoteNumber":89,"Velocity":37,"Duration":53797,"SoundDuration":53797,"Delta":216860870},{"NoteNumber":93,"Velocity":37,"Duration":53797,"SoundDuration":53797,"Delta":216914667},{"NoteNumber":96,"Velocity":37,"Duration":59351,"SoundDuration":59351,"Delta":216968465},{"NoteNumber":101,"Velocity":37,"Duration":65293,"SoundDuration":65293,"Delta":217027816},{"NoteNumber":81,"Velocity":52,"Duration":52959,"SoundDuration":52959,"Delta":217093109},{"NoteNumber":83,"Velocity":37,"Duration":52959,"SoundDuration":52959,"Delta":217146069},{"NoteNumber":90,"Velocity":37,"Duration":52959,"SoundDuration":52959,"Delta":217199028},{"NoteNumber":84,"Velocity":37,"Duration":52959,"SoundDuration":52959,"Delta":217251988},{"NoteNumber":87,"Velocity":37,"Duration":52959,"SoundDuration":52959,"Delta":217304947},{"NoteNumber":91,"Velocity":37,"Duration":52959,"SoundDuration":52959,"Delta":217357907},{"NoteNumber":96,"Velocity":37,"Duration":56074,"SoundDuration":56074,"Delta":217410867},{"NoteNumber":78,"Velocity":52,"Duration":53797,"SoundDuration":53797,"Delta":217466941},{"NoteNumber":80,"Velocity":37,"Duration":53797,"SoundDuration":53797,"Delta":217520739},{"NoteNumber":87,"Velocity":37,"Duration":53797,"SoundDuration":53797,"Delta":217574536},{"NoteNumber":81,"Velocity":37,"Duration":53797,"SoundDuration":53797,"Delta":217628334},{"NoteNumber":84,"Velocity":37,"Duration":53797,"SoundDuration":53797,"Delta":217682131},{"NoteNumber":88,"Velocity":37,"Duration":53797,"SoundDuration":53797,"Delta":217735929},{"NoteNumber":93,"Velocity":37,"Duration":56962,"SoundDuration":56962,"Delta":217789726},{"NoteNumber":75,"Velocity":52,"Duration":53797,"SoundDuration":53797,"Delta":217846688},{"NoteNumber":77,"Velocity":37,"Duration":53797,"SoundDuration":53797,"Delta":217900486},{"NoteNumber":84,"Velocity":37,"Duration":53797,"SoundDuration":53797,"Delta":217954283},{"NoteNumber":78,"Velocity":37,"Duration":53797,"SoundDuration":53797,"Delta":218008081},{"NoteNumber":81,"Velocity":37,"Duration":53797,"SoundDuration":53797,"Delta":218061878},{"NoteNumber":85,"Velocity":37,"Duration":53797,"SoundDuration":53797,"Delta":218115676},{"NoteNumber":90,"Velocity":37,"Duration":56962,"SoundDuration":56962,"Delta":218169473},{"NoteNumber":72,"Velocity":52,"Duration":53797,"SoundDuration":53797,"Delta":218226435},{"NoteNumber":74,"Velocity":37,"Duration":53797,"SoundDuration":53797,"Delta":218280233},{"NoteNumber":81,"Velocity":37,"Duration":53797,"SoundDuration":53797,"Delta":218334030},{"NoteNumber":75,"Velocity":37,"Duration":53797,"SoundDuration":53797,"Delta":218387828},{"NoteNumber":78,"Velocity":37,"Duration":53797,"SoundDuration":53797,"Delta":218441625},{"NoteNumber":82,"Velocity":37,"Duration":59351,"SoundDuration":59351,"Delta":218495423},{"NoteNumber":87,"Velocity":37,"Duration":65293,"SoundDuration":65293,"Delta":218554774},{"NoteNumber":69,"Velocity":52,"Duration":53797,"SoundDuration":53797,"Delta":218620067},{"NoteNumber":71,"Velocity":37,"Duration":53797,"SoundDuration":53797,"Delta":218673865},{"NoteNumber":78,"Velocity":37,"Duration":53797,"SoundDuration":53797,"Delta":218727662},{"NoteNumber":72,"Velocity":37,"Duration":53797,"SoundDuration":53797,"Delta":218781460},{"NoteNumber":75,"Velocity":37,"Duration":53797,"SoundDuration":53797,"Delta":218835257},{"NoteNumber":79,"Velocity":37,"Duration":53797,"SoundDuration":53797,"Delta":218889055},{"NoteNumber":84,"Velocity":37,"Duration":56962,"SoundDuration":56962,"Delta":218942852},{"NoteNumber":66,"Velocity":52,"Duration":53291,"SoundDuration":53291,"Delta":218999814},{"NoteNumber":68,"Velocity":37,"Duration":53291,"SoundDuration":53291,"Delta":219053106},{"NoteNumber":75,"Velocity":37,"Duration":53291,"SoundDuration":53291,"Delta":219106398},{"NoteNumber":69,"Velocity":37,"Duration":53291,"SoundDuration":53291,"Delta":219159689},{"NoteNumber":72,"Velocity":37,"Duration":53291,"SoundDuration":53291,"Delta":219212981},{"NoteNumber":76,"Velocity":37,"Duration":53291,"SoundDuration":53291,"Delta":219266272},{"NoteNumber":81,"Velocity":37,"Duration":56426,"SoundDuration":56426,"Delta":219319564},{"NoteNumber":63,"Velocity":52,"Duration":53291,"SoundDuration":53291,"Delta":219375990},{"NoteNumber":65,"Velocity":37,"Duration":53291,"SoundDuration":53291,"Delta":219429282},{"NoteNumber":72,"Velocity":37,"Duration":53291,"SoundDuration":53291,"Delta":219482574},{"NoteNumber":66,"Velocity":37,"Duration":53291,"SoundDuration":53291,"Delta":219535865},{"NoteNumber":69,"Velocity":37,"Duration":53291,"SoundDuration":53291,"Delta":219589157},{"NoteNumber":73,"Velocity":37,"Duration":53291,"SoundDuration":53291,"Delta":219642448},{"NoteNumber":78,"Velocity":37,"Duration":56824,"SoundDuration":56824,"Delta":219695740},{"NoteNumber":60,"Velocity":52,"Duration":53968,"SoundDuration":53968,"Delta":219752564},{"NoteNumber":62,"Velocity":37,"Duration":53968,"SoundDuration":53968,"Delta":219806533},{"NoteNumber":69,"Velocity":37,"Duration":53968,"SoundDuration":53968,"Delta":219860501},{"NoteNumber":63,"Velocity":37,"Duration":53968,"SoundDuration":53968,"Delta":219914469},{"NoteNumber":66,"Velocity":37,"Duration":53968,"SoundDuration":53968,"Delta":219968437},{"NoteNumber":70,"Velocity":37,"Duration":59401,"SoundDuration":59401,"Delta":220022405},{"NoteNumber":75,"Velocity":37,"Duration":65293,"SoundDuration":65293,"Delta":220081807},{"NoteNumber":54,"Velocity":52,"Duration":371995,"SoundDuration":371995,"Delta":220147100},{"NoteNumber":64,"Velocity":37,"Duration":250783,"SoundDuration":250783,"Delta":220268312},{"NoteNumber":67,"Velocity":37,"Duration":250783,"SoundDuration":250783,"Delta":220268312},{"NoteNumber":73,"Velocity":47,"Duration":125392,"SoundDuration":125392,"Delta":220268312},{"NoteNumber":70,"Velocity":46,"Duration":125391,"SoundDuration":125391,"Delta":220393704},{"NoteNumber":66,"Velocity":48,"Duration":372364,"SoundDuration":372364,"Delta":220519096},{"NoteNumber":64,"Velocity":33,"Duration":250783,"SoundDuration":250783,"Delta":220640677},{"NoteNumber":67,"Velocity":33,"Duration":250783,"SoundDuration":250783,"Delta":220640677},{"NoteNumber":60,"Velocity":43,"Duration":125392,"SoundDuration":125392,"Delta":220640677},{"NoteNumber":58,"Velocity":43,"Duration":125391,"SoundDuration":125391,"Delta":220766069},{"NoteNumber":54,"Velocity":48,"Duration":371580,"SoundDuration":371580,"Delta":220891461},{"NoteNumber":64,"Velocity":34,"Duration":250000,"SoundDuration":250000,"Delta":221013041},{"NoteNumber":55,"Velocity":34,"Duration":250000,"SoundDuration":250000,"Delta":221013041},{"NoteNumber":61,"Velocity":43,"Duration":125000,"SoundDuration":125000,"Delta":221013041},{"NoteNumber":58,"Velocity":42,"Duration":125000,"SoundDuration":125000,"Delta":221138041},{"NoteNumber":66,"Velocity":44,"Duration":372364,"SoundDuration":372364,"Delta":221263041},{"NoteNumber":52,"Velocity":31,"Duration":250783,"SoundDuration":250783,"Delta":221384622},{"NoteNumber":55,"Velocity":31,"Duration":250783,"SoundDuration":250783,"Delta":221384622},{"NoteNumber":60,"Velocity":39,"Duration":125392,"SoundDuration":125392,"Delta":221384622},{"NoteNumber":58,"Velocity":39,"Duration":125391,"SoundDuration":125391,"Delta":221510014},{"NoteNumber":42,"Velocity":42,"Duration":375864,"SoundDuration":375864,"Delta":221635406},{"NoteNumber":52,"Velocity":30,"Duration":253164,"SoundDuration":253164,"Delta":221758105},{"NoteNumber":55,"Velocity":30,"Duration":253164,"SoundDuration":253164,"Delta":221758105},{"NoteNumber":60,"Velocity":38,"Duration":126582,"SoundDuration":126582,"Delta":221758105},{"NoteNumber":58,"Velocity":38,"Duration":126582,"SoundDuration":126582,"Delta":221884688},{"NoteNumber":54,"Velocity":43,"Duration":379866,"SoundDuration":379866,"Delta":222011270},{"NoteNumber":52,"Velocity":30,"Duration":256409,"SoundDuration":256409,"Delta":222134727},{"NoteNumber":55,"Velocity":30,"Duration":256409,"SoundDuration":256409,"Delta":222134727},{"NoteNumber":48,"Velocity":37,"Duration":128205,"SoundDuration":128205,"Delta":222134727},{"NoteNumber":46,"Velocity":36,"Duration":128204,"SoundDuration":128204,"Delta":222262932},{"NoteNumber":42,"Velocity":38,"Duration":380248,"SoundDuration":380248,"Delta":222391137},{"NoteNumber":48,"Velocity":27,"Duration":256409,"SoundDuration":256409,"Delta":222514976},{"NoteNumber":43,"Velocity":27,"Duration":256409,"SoundDuration":256409,"Delta":222514976},{"NoteNumber":52,"Velocity":35,"Duration":128205,"SoundDuration":128205,"Delta":222514976},{"NoteNumber":46,"Velocity":34,"Duration":128204,"SoundDuration":128204,"Delta":222643181},{"NoteNumber":54,"Velocity":36,"Duration":382675,"SoundDuration":382675,"Delta":222771386},{"NoteNumber":40,"Velocity":26,"Duration":258064,"SoundDuration":258064,"Delta":222895996},{"NoteNumber":43,"Velocity":26,"Duration":258064,"SoundDuration":258064,"Delta":222895996},{"NoteNumber":48,"Velocity":33,"Duration":129032,"SoundDuration":129032,"Delta":222895996},{"NoteNumber":46,"Velocity":32,"Duration":129032,"SoundDuration":129032,"Delta":223025029},{"NoteNumber":30,"Velocity":32,"Duration":392362,"SoundDuration":392362,"Delta":223154061},{"NoteNumber":40,"Velocity":23,"Duration":265780,"SoundDuration":265780,"Delta":223280643},{"NoteNumber":43,"Velocity":23,"Duration":265780,"SoundDuration":265780,"Delta":223280643},{"NoteNumber":48,"Velocity":29,"Duration":132890,"SoundDuration":132890,"Delta":223280643},{"NoteNumber":46,"Velocity":28,"Duration":132890,"SoundDuration":132890,"Delta":223413534},{"NoteNumber":42,"Velocity":28,"Duration":400313,"SoundDuration":400313,"Delta":223546424},{"NoteNumber":40,"Velocity":19,"Duration":272108,"SoundDuration":272108,"Delta":223674629},{"NoteNumber":43,"Velocity":19,"Duration":272108,"SoundDuration":272108,"Delta":223674629},{"NoteNumber":36,"Velocity":26,"Duration":136054,"SoundDuration":136054,"Delta":223674629},{"NoteNumber":34,"Velocity":26,"Duration":136054,"SoundDuration":136054,"Delta":223810683},{"NoteNumber":30,"Velocity":28,"Duration":407535,"SoundDuration":407535,"Delta":223946738},{"NoteNumber":40,"Velocity":19,"Duration":276816,"SoundDuration":276816,"Delta":224077457},{"NoteNumber":43,"Velocity":19,"Duration":276816,"SoundDuration":276816,"Delta":224077457},{"NoteNumber":36,"Velocity":26,"Duration":138408,"SoundDuration":138408,"Delta":224077457},{"NoteNumber":34,"Velocity":26,"Duration":138408,"SoundDuration":138408,"Delta":224215865},{"NoteNumber":42,"Velocity":28,"Duration":411299,"SoundDuration":411299,"Delta":224354273},{"NoteNumber":40,"Velocity":19,"Duration":279719,"SoundDuration":279719,"Delta":224485852},{"NoteNumber":43,"Velocity":19,"Duration":279719,"SoundDuration":279719,"Delta":224485852},{"NoteNumber":36,"Velocity":26,"Duration":139859,"SoundDuration":139859,"Delta":224485852},{"NoteNumber":34,"Velocity":26,"Duration":139859,"SoundDuration":139859,"Delta":224625712},{"NoteNumber":30,"Velocity":28,"Duration":417467,"SoundDuration":417467,"Delta":224765572},{"NoteNumber":40,"Velocity":19,"Duration":283687,"SoundDuration":283687,"Delta":224899352},{"NoteNumber":43,"Velocity":19,"Duration":283687,"SoundDuration":283687,"Delta":224899352},{"NoteNumber":36,"Velocity":26,"Duration":141843,"SoundDuration":141843,"Delta":224899352},{"NoteNumber":34,"Velocity":26,"Duration":141843,"SoundDuration":141843,"Delta":225041196},{"NoteNumber":42,"Velocity":28,"Duration":424990,"SoundDuration":424990,"Delta":225183040},{"NoteNumber":40,"Velocity":19,"Duration":289855,"SoundDuration":289855,"Delta":225318175},{"NoteNumber":43,"Velocity":19,"Duration":289855,"SoundDuration":289855,"Delta":225318175},{"NoteNumber":36,"Velocity":26,"Duration":144927,"SoundDuration":144927,"Delta":225318175},{"NoteNumber":34,"Velocity":26,"Duration":144927,"SoundDuration":144927,"Delta":225463102},{"NoteNumber":30,"Velocity":28,"Duration":434226,"SoundDuration":434226,"Delta":225608030},{"NoteNumber":40,"Velocity":19,"Duration":296295,"SoundDuration":296295,"Delta":225745961},{"NoteNumber":43,"Velocity":19,"Duration":296295,"SoundDuration":296295,"Delta":225745961},{"NoteNumber":36,"Velocity":26,"Duration":148147,"SoundDuration":148147,"Delta":225745961},{"NoteNumber":34,"Velocity":26,"Duration":148147,"SoundDuration":148147,"Delta":225894109},{"NoteNumber":42,"Velocity":28,"Duration":446188,"SoundDuration":446188,"Delta":226042257},{"NoteNumber":40,"Velocity":19,"Duration":305343,"SoundDuration":305343,"Delta":226183102},{"NoteNumber":43,"Velocity":19,"Duration":305343,"SoundDuration":305343,"Delta":226183102},{"NoteNumber":36,"Velocity":26,"Duration":152671,"SoundDuration":152671,"Delta":226183102},{"NoteNumber":34,"Velocity":26,"Duration":152671,"SoundDuration":152671,"Delta":226335774},{"NoteNumber":30,"Velocity":35,"Duration":85000,"SoundDuration":85000,"Delta":226488445},{"NoteNumber":34,"Velocity":27,"Duration":84999,"SoundDuration":84999,"Delta":226573445},{"NoteNumber":37,"Velocity":29,"Duration":85000,"SoundDuration":85000,"Delta":226658445},{"NoteNumber":36,"Velocity":31,"Duration":85000,"SoundDuration":85000,"Delta":226743445},{"NoteNumber":40,"Velocity":33,"Duration":85000,"SoundDuration":85000,"Delta":226828445},{"NoteNumber":43,"Velocity":34,"Duration":68528,"SoundDuration":68528,"Delta":226913445},{"NoteNumber":48,"Velocity":37,"Duration":65272,"SoundDuration":65272,"Delta":226981974},{"NoteNumber":42,"Velocity":53,"Duration":61385,"SoundDuration":61385,"Delta":227047246},{"NoteNumber":46,"Velocity":40,"Duration":60702,"SoundDuration":60702,"Delta":227108632},{"NoteNumber":49,"Velocity":43,"Duration":60146,"SoundDuration":60146,"Delta":227169334},{"NoteNumber":48,"Velocity":44,"Duration":59466,"SoundDuration":59466,"Delta":227229480},{"NoteNumber":52,"Velocity":46,"Duration":58907,"SoundDuration":58907,"Delta":227288947},{"NoteNumber":55,"Velocity":47,"Duration":58255,"SoundDuration":58255,"Delta":227347854},{"NoteNumber":60,"Velocity":49,"Duration":61029,"SoundDuration":61029,"Delta":227406109},{"NoteNumber":54,"Velocity":65,"Duration":57115,"SoundDuration":57115,"Delta":227467138},{"NoteNumber":58,"Velocity":52,"Duration":56566,"SoundDuration":56566,"Delta":227524254},{"NoteNumber":61,"Velocity":53,"Duration":55997,"SoundDuration":55997,"Delta":227580821},{"NoteNumber":60,"Velocity":54,"Duration":55428,"SoundDuration":55428,"Delta":227636819},{"NoteNumber":64,"Velocity":56,"Duration":54985,"SoundDuration":54985,"Delta":227692247},{"NoteNumber":67,"Velocity":57,"Duration":54344,"SoundDuration":54344,"Delta":227747232},{"NoteNumber":72,"Velocity":59,"Duration":57073,"SoundDuration":57073,"Delta":227801577},{"NoteNumber":66,"Velocity":80,"Duration":53370,"SoundDuration":53370,"Delta":227858650},{"NoteNumber":70,"Velocity":63,"Duration":52950,"SoundDuration":52950,"Delta":227912021},{"NoteNumber":73,"Velocity":64,"Duration":52374,"SoundDuration":52374,"Delta":227964971},{"NoteNumber":72,"Velocity":66,"Duration":51969,"SoundDuration":51969,"Delta":228017346},{"NoteNumber":76,"Velocity":67,"Duration":51488,"SoundDuration":51488,"Delta":228069315},{"NoteNumber":79,"Velocity":68,"Duration":50988,"SoundDuration":50988,"Delta":228120803},{"NoteNumber":84,"Velocity":70,"Duration":53536,"SoundDuration":53536,"Delta":228171791},{"NoteNumber":78,"Velocity":94,"Duration":50156,"SoundDuration":50156,"Delta":228225328},{"NoteNumber":82,"Velocity":75,"Duration":49699,"SoundDuration":49699,"Delta":228275485},{"NoteNumber":85,"Velocity":77,"Duration":49241,"SoundDuration":49241,"Delta":228325184},{"NoteNumber":84,"Velocity":81,"Duration":48867,"SoundDuration":48867,"Delta":228374426},{"NoteNumber":88,"Velocity":84,"Duration":48409,"SoundDuration":48409,"Delta":228423294},{"NoteNumber":91,"Velocity":87,"Duration":48046,"SoundDuration":48046,"Delta":228471703},{"NoteNumber":96,"Velocity":90,"Duration":50389,"SoundDuration":50389,"Delta":228519750},{"NoteNumber":97,"Velocity":113,"Duration":60150,"SoundDuration":60150,"Delta":228570139},{"NoteNumber":94,"Velocity":89,"Duration":60150,"SoundDuration":60150,"Delta":228570139},{"NoteNumber":90,"Velocity":89,"Duration":60150,"SoundDuration":60150,"Delta":228570139},{"NoteNumber":96,"Velocity":84,"Duration":60150,"SoundDuration":60150,"Delta":228630290},{"NoteNumber":91,"Velocity":81,"Duration":60150,"SoundDuration":60150,"Delta":228690440},{"NoteNumber":88,"Velocity":80,"Duration":61372,"SoundDuration":61372,"Delta":228750590},{"NoteNumber":84,"Velocity":79,"Duration":65040,"SoundDuration":65040,"Delta":228811963},{"NoteNumber":85,"Velocity":91,"Duration":60150,"SoundDuration":60150,"Delta":228877004},{"NoteNumber":82,"Velocity":77,"Duration":60150,"SoundDuration":60150,"Delta":228877004},{"NoteNumber":78,"Velocity":77,"Duration":60150,"SoundDuration":60150,"Delta":228877004},{"NoteNumber":84,"Velocity":73,"Duration":60150,"SoundDuration":60150,"Delta":228937154},{"NoteNumber":79,"Velocity":74,"Duration":60150,"SoundDuration":60150,"Delta":228997305},{"NoteNumber":76,"Velocity":73,"Duration":61241,"SoundDuration":61241,"Delta":229057455},{"NoteNumber":72,"Velocity":76,"Duration":64516,"SoundDuration":64516,"Delta":229118697},{"NoteNumber":73,"Velocity":81,"Duration":60000,"SoundDuration":60000,"Delta":229183213},{"NoteNumber":70,"Velocity":81,"Duration":60000,"SoundDuration":60000,"Delta":229183213},{"NoteNumber":66,"Velocity":81,"Duration":60000,"SoundDuration":60000,"Delta":229183213},{"NoteNumber":72,"Velocity":71,"Duration":60000,"SoundDuration":60000,"Delta":229243213},{"NoteNumber":76,"Velocity":73,"Duration":60000,"SoundDuration":60000,"Delta":229303213},{"NoteNumber":79,"Velocity":75,"Duration":61085,"SoundDuration":61085,"Delta":229363213},{"NoteNumber":84,"Velocity":78,"Duration":64343,"SoundDuration":64343,"Delta":229424299},{"NoteNumber":85,"Velocity":93,"Duration":61224,"SoundDuration":61224,"Delta":229488642},{"NoteNumber":82,"Velocity":79,"Duration":61224,"SoundDuration":61224,"Delta":229488642},{"NoteNumber":78,"Velocity":79,"Duration":61224,"SoundDuration":61224,"Delta":229488642},{"NoteNumber":84,"Velocity":82,"Duration":61224,"SoundDuration":61224,"Delta":229549867},{"NoteNumber":88,"Velocity":84,"Duration":61224,"SoundDuration":61224,"Delta":229611091},{"NoteNumber":91,"Velocity":86,"Duration":62004,"SoundDuration":62004,"Delta":229672315},{"NoteNumber":96,"Velocity":88,"Duration":64343,"SoundDuration":64343,"Delta":229734320},{"NoteNumber":97,"Velocity":106,"Duration":58967,"SoundDuration":58967,"Delta":229798663},{"NoteNumber":94,"Velocity":89,"Duration":58967,"SoundDuration":58967,"Delta":229798663},{"NoteNumber":90,"Velocity":89,"Duration":58967,"SoundDuration":58967,"Delta":229798663},{"NoteNumber":96,"Velocity":86,"Duration":58967,"SoundDuration":58967,"Delta":229857631},{"NoteNumber":91,"Velocity":86,"Duration":58968,"SoundDuration":58968,"Delta":229916599},{"NoteNumber":88,"Velocity":86,"Duration":60268,"SoundDuration":60268,"Delta":229975567},{"NoteNumber":84,"Velocity":86,"Duration":64171,"SoundDuration":64171,"Delta":230035836},{"NoteNumber":85,"Velocity":91,"Duration":59701,"SoundDuration":59701,"Delta":230100007},{"NoteNumber":82,"Velocity":77,"Duration":59701,"SoundDuration":59701,"Delta":230100007},{"NoteNumber":78,"Velocity":77,"Duration":59701,"SoundDuration":59701,"Delta":230100007},{"NoteNumber":84,"Velocity":64,"Duration":59701,"SoundDuration":59701,"Delta":230159708},{"NoteNumber":79,"Velocity":64,"Duration":59701,"SoundDuration":59701,"Delta":230219410},{"NoteNumber":76,"Velocity":61,"Duration":62217,"SoundDuration":62217,"Delta":230279111},{"NoteNumber":72,"Velocity":61,"Duration":69767,"SoundDuration":69767,"Delta":230341329},{"NoteNumber":73,"Velocity":64,"Duration":58967,"SoundDuration":58967,"Delta":230411096},{"NoteNumber":70,"Velocity":53,"Duration":58967,"SoundDuration":58967,"Delta":230411096},{"NoteNumber":66,"Velocity":53,"Duration":58967,"SoundDuration":58967,"Delta":230411096},{"NoteNumber":72,"Velocity":59,"Duration":58967,"SoundDuration":58967,"Delta":230470064},{"NoteNumber":76,"Velocity":58,"Duration":58968,"SoundDuration":58968,"Delta":230529032},{"NoteNumber":79,"Velocity":58,"Duration":61667,"SoundDuration":61667,"Delta":230588000},{"NoteNumber":84,"Velocity":57,"Duration":69767,"SoundDuration":69767,"Delta":230649668},{"NoteNumber":85,"Velocity":81,"Duration":60301,"SoundDuration":60301,"Delta":230719435},{"NoteNumber":82,"Velocity":69,"Duration":60301,"SoundDuration":60301,"Delta":230719435},{"NoteNumber":78,"Velocity":69,"Duration":60301,"SoundDuration":60301,"Delta":230719435},{"NoteNumber":84,"Velocity":61,"Duration":60301,"SoundDuration":60301,"Delta":230779737},{"NoteNumber":79,"Velocity":59,"Duration":60301,"SoundDuration":60301,"Delta":230840039},{"NoteNumber":76,"Velocity":59,"Duration":62668,"SoundDuration":62668,"Delta":230900340},{"NoteNumber":72,"Velocity":59,"Duration":69767,"SoundDuration":69767,"Delta":230963008},{"NoteNumber":73,"Velocity":71,"Duration":58823,"SoundDuration":58823,"Delta":231032776},{"NoteNumber":70,"Velocity":59,"Duration":58823,"SoundDuration":58823,"Delta":231032776},{"NoteNumber":66,"Velocity":59,"Duration":58823,"SoundDuration":58823,"Delta":231032776},{"NoteNumber":72,"Velocity":58,"Duration":58823,"SoundDuration":58823,"Delta":231091599},{"NoteNumber":76,"Velocity":56,"Duration":58823,"SoundDuration":58823,"Delta":231150423},{"NoteNumber":79,"Velocity":56,"Duration":61559,"SoundDuration":61559,"Delta":231209247},{"NoteNumber":84,"Velocity":56,"Duration":69767,"SoundDuration":69767,"Delta":231270806},{"NoteNumber":85,"Velocity":77,"Duration":60301,"SoundDuration":60301,"Delta":231340573},{"NoteNumber":82,"Velocity":65,"Duration":60301,"SoundDuration":60301,"Delta":231340573},{"NoteNumber":78,"Velocity":65,"Duration":60301,"SoundDuration":60301,"Delta":231340573},{"NoteNumber":84,"Velocity":57,"Duration":60301,"SoundDuration":60301,"Delta":231400875},{"NoteNumber":79,"Velocity":57,"Duration":60301,"SoundDuration":60301,"Delta":231461177},{"NoteNumber":76,"Velocity":57,"Duration":62668,"SoundDuration":62668,"Delta":231521478},{"NoteNumber":72,"Velocity":58,"Duration":69767,"SoundDuration":69767,"Delta":231584146},{"NoteNumber":73,"Velocity":71,"Duration":58823,"SoundDuration":58823,"Delta":231653914},{"NoteNumber":70,"Velocity":50,"Duration":58823,"SoundDuration":58823,"Delta":231653914},{"NoteNumber":66,"Velocity":50,"Duration":58823,"SoundDuration":58823,"Delta":231653914},{"NoteNumber":72,"Velocity":56,"Duration":58823,"SoundDuration":58823,"Delta":231712737},{"NoteNumber":76,"Velocity":55,"Duration":58823,"SoundDuration":58823,"Delta":231771561},{"NoteNumber":79,"Velocity":55,"Duration":61559,"SoundDuration":61559,"Delta":231830385},{"NoteNumber":84,"Velocity":61,"Duration":69767,"SoundDuration":69767,"Delta":231891944},{"NoteNumber":85,"Velocity":76,"Duration":60000,"SoundDuration":60000,"Delta":231961711},{"NoteNumber":82,"Velocity":64,"Duration":60000,"SoundDuration":60000,"Delta":231961711},{"NoteNumber":78,"Velocity":64,"Duration":60000,"SoundDuration":60000,"Delta":231961711},{"NoteNumber":84,"Velocity":56,"Duration":60000,"SoundDuration":60000,"Delta":232021711},{"NoteNumber":79,"Velocity":56,"Duration":60000,"SoundDuration":60000,"Delta":232081711},{"NoteNumber":76,"Velocity":55,"Duration":62441,"SoundDuration":62441,"Delta":232141711},{"NoteNumber":72,"Velocity":55,"Duration":69767,"SoundDuration":69767,"Delta":232204153},{"NoteNumber":73,"Velocity":68,"Duration":58967,"SoundDuration":58967,"Delta":232273921},{"NoteNumber":70,"Velocity":56,"Duration":58967,"SoundDuration":58967,"Delta":232273921},{"NoteNumber":66,"Velocity":56,"Duration":58967,"SoundDuration":58967,"Delta":232273921},{"NoteNumber":72,"Velocity":55,"Duration":58967,"SoundDuration":58967,"Delta":232332889},{"NoteNumber":76,"Velocity":53,"Duration":58968,"SoundDuration":58968,"Delta":232391857},{"NoteNumber":79,"Velocity":53,"Duration":61667,"SoundDuration":61667,"Delta":232450825},{"NoteNumber":84,"Velocity":53,"Duration":69767,"SoundDuration":69767,"Delta":232512493},{"NoteNumber":85,"Velocity":71,"Duration":59850,"SoundDuration":59850,"Delta":232582260},{"NoteNumber":82,"Velocity":59,"Duration":59850,"SoundDuration":59850,"Delta":232582260},{"NoteNumber":78,"Velocity":59,"Duration":59850,"SoundDuration":59850,"Delta":232582260},{"NoteNumber":84,"Velocity":52,"Duration":59850,"SoundDuration":59850,"Delta":232642110},{"NoteNumber":79,"Velocity":53,"Duration":59850,"SoundDuration":59850,"Delta":232701961},{"NoteNumber":76,"Velocity":53,"Duration":62329,"SoundDuration":62329,"Delta":232761811},{"NoteNumber":72,"Velocity":53,"Duration":69767,"SoundDuration":69767,"Delta":232824141},{"NoteNumber":73,"Velocity":65,"Duration":59113,"SoundDuration":59113,"Delta":232893908},{"NoteNumber":70,"Velocity":46,"Duration":59113,"SoundDuration":59113,"Delta":232893908},{"NoteNumber":66,"Velocity":46,"Duration":59113,"SoundDuration":59113,"Delta":232893908},{"NoteNumber":67,"Velocity":52,"Duration":59113,"SoundDuration":59113,"Delta":232953022},{"NoteNumber":72,"Velocity":52,"Duration":59113,"SoundDuration":59113,"Delta":233012135},{"NoteNumber":76,"Velocity":52,"Duration":61776,"SoundDuration":61776,"Delta":233071248},{"NoteNumber":79,"Velocity":52,"Duration":69767,"SoundDuration":69767,"Delta":233133025},{"NoteNumber":82,"Velocity":71,"Duration":59850,"SoundDuration":59850,"Delta":233202793},{"NoteNumber":78,"Velocity":59,"Duration":59850,"SoundDuration":59850,"Delta":233202793},{"NoteNumber":79,"Velocity":52,"Duration":59850,"SoundDuration":59850,"Delta":233262643},{"NoteNumber":76,"Velocity":53,"Duration":59850,"SoundDuration":59850,"Delta":233322494},{"NoteNumber":72,"Velocity":53,"Duration":62329,"SoundDuration":62329,"Delta":233382344},{"NoteNumber":67,"Velocity":53,"Duration":69767,"SoundDuration":69767,"Delta":233444674},{"NoteNumber":73,"Velocity":65,"Duration":59113,"SoundDuration":59113,"Delta":233514441},{"NoteNumber":70,"Velocity":46,"Duration":59113,"SoundDuration":59113,"Delta":233514441},{"NoteNumber":66,"Velocity":46,"Duration":59113,"SoundDuration":59113,"Delta":233514441},{"NoteNumber":67,"Velocity":52,"Duration":59113,"SoundDuration":59113,"Delta":233573554},{"NoteNumber":72,"Velocity":52,"Duration":59113,"SoundDuration":59113,"Delta":233632668},{"NoteNumber":76,"Velocity":52,"Duration":61776,"SoundDuration":61776,"Delta":233691781},{"NoteNumber":79,"Velocity":52,"Duration":69767,"SoundDuration":69767,"Delta":233753558},{"NoteNumber":82,"Velocity":70,"Duration":59850,"SoundDuration":59850,"Delta":233823325},{"NoteNumber":78,"Velocity":58,"Duration":59850,"SoundDuration":59850,"Delta":233823325},{"NoteNumber":79,"Velocity":52,"Duration":59850,"SoundDuration":59850,"Delta":233883176},{"NoteNumber":76,"Velocity":52,"Duration":59850,"SoundDuration":59850,"Delta":233943026},{"NoteNumber":72,"Velocity":52,"Duration":62329,"SoundDuration":62329,"Delta":234002877},{"NoteNumber":67,"Velocity":52,"Duration":69767,"SoundDuration":69767,"Delta":234065206},{"NoteNumber":73,"Velocity":63,"Duration":58967,"SoundDuration":58967,"Delta":234134974},{"NoteNumber":70,"Velocity":45,"Duration":58967,"SoundDuration":58967,"Delta":234134974},{"NoteNumber":66,"Velocity":45,"Duration":58967,"SoundDuration":58967,"Delta":234134974},{"NoteNumber":67,"Velocity":51,"Duration":58967,"SoundDuration":58967,"Delta":234193942},{"NoteNumber":72,"Velocity":50,"Duration":58968,"SoundDuration":58968,"Delta":234252910},{"NoteNumber":76,"Velocity":50,"Duration":61667,"SoundDuration":61667,"Delta":234311878},{"NoteNumber":79,"Velocity":50,"Duration":69767,"SoundDuration":69767,"Delta":234373546},{"NoteNumber":82,"Velocity":68,"Duration":59850,"SoundDuration":59850,"Delta":234443313},{"NoteNumber":78,"Velocity":57,"Duration":59850,"SoundDuration":59850,"Delta":234443313},{"NoteNumber":79,"Velocity":50,"Duration":59850,"SoundDuration":59850,"Delta":234503163},{"NoteNumber":76,"Velocity":51,"Duration":59850,"SoundDuration":59850,"Delta":234563014},{"NoteNumber":72,"Velocity":51,"Duration":62329,"SoundDuration":62329,"Delta":234622864},{"NoteNumber":67,"Velocity":50,"Duration":69767,"SoundDuration":69767,"Delta":234685194},{"NoteNumber":73,"Velocity":60,"Duration":59259,"SoundDuration":59259,"Delta":234754961},{"NoteNumber":70,"Velocity":43,"Duration":59259,"SoundDuration":59259,"Delta":234754961},{"NoteNumber":66,"Velocity":43,"Duration":59259,"SoundDuration":59259,"Delta":234754961},{"NoteNumber":67,"Velocity":49,"Duration":59259,"SoundDuration":59259,"Delta":234814220},{"NoteNumber":72,"Velocity":49,"Duration":59259,"SoundDuration":59259,"Delta":234873480},{"NoteNumber":76,"Velocity":48,"Duration":61886,"SoundDuration":61886,"Delta":234932739},{"NoteNumber":79,"Velocity":48,"Duration":69767,"SoundDuration":69767,"Delta":234994625},{"NoteNumber":82,"Velocity":66,"Duration":59850,"SoundDuration":59850,"Delta":235064392},{"NoteNumber":78,"Velocity":55,"Duration":59850,"SoundDuration":59850,"Delta":235064392},{"NoteNumber":79,"Velocity":48,"Duration":59850,"SoundDuration":59850,"Delta":235124243},{"NoteNumber":76,"Velocity":49,"Duration":59850,"SoundDuration":59850,"Delta":235184093},{"NoteNumber":72,"Velocity":49,"Duration":62329,"SoundDuration":62329,"Delta":235243944},{"NoteNumber":67,"Velocity":49,"Duration":69767,"SoundDuration":69767,"Delta":235306273},{"NoteNumber":70,"Velocity":58,"Duration":59405,"SoundDuration":59405,"Delta":235376041},{"NoteNumber":66,"Velocity":42,"Duration":59405,"SoundDuration":59405,"Delta":235376041},{"NoteNumber":67,"Velocity":47,"Duration":59405,"SoundDuration":59405,"Delta":235435447},{"NoteNumber":72,"Velocity":47,"Duration":59405,"SoundDuration":59405,"Delta":235494853},{"NoteNumber":76,"Velocity":47,"Duration":61996,"SoundDuration":61996,"Delta":235554259},{"NoteNumber":79,"Velocity":47,"Duration":69767,"SoundDuration":69767,"Delta":235616255},{"NoteNumber":78,"Velocity":64,"Duration":59850,"SoundDuration":59850,"Delta":235686022},{"NoteNumber":73,"Velocity":53,"Duration":59850,"SoundDuration":59850,"Delta":235686022},{"NoteNumber":79,"Velocity":47,"Duration":59850,"SoundDuration":59850,"Delta":235745873},{"NoteNumber":76,"Velocity":47,"Duration":59850,"SoundDuration":59850,"Delta":235805723},{"NoteNumber":72,"Velocity":47,"Duration":62329,"SoundDuration":62329,"Delta":235865574},{"NoteNumber":67,"Velocity":47,"Duration":69767,"SoundDuration":69767,"Delta":235927903},{"NoteNumber":70,"Velocity":56,"Duration":59553,"SoundDuration":59553,"Delta":235997671},{"NoteNumber":66,"Velocity":40,"Duration":59553,"SoundDuration":59553,"Delta":235997671},{"NoteNumber":67,"Velocity":46,"Duration":59553,"SoundDuration":59553,"Delta":236057224},{"NoteNumber":72,"Velocity":46,"Duration":59553,"SoundDuration":59553,"Delta":236116778},{"NoteNumber":76,"Velocity":46,"Duration":62106,"SoundDuration":62106,"Delta":236176331},{"NoteNumber":79,"Velocity":46,"Duration":69767,"SoundDuration":69767,"Delta":236238438},{"NoteNumber":78,"Velocity":61,"Duration":61224,"SoundDuration":61224,"Delta":236308205},{"NoteNumber":73,"Velocity":51,"Duration":61224,"SoundDuration":61224,"Delta":236308205},{"NoteNumber":79,"Velocity":46,"Duration":61224,"SoundDuration":61224,"Delta":236369430},{"NoteNumber":76,"Velocity":46,"Duration":61224,"SoundDuration":61224,"Delta":236430654},{"NoteNumber":72,"Velocity":46,"Duration":63360,"SoundDuration":63360,"Delta":236491878},{"NoteNumber":67,"Velocity":46,"Duration":69767,"SoundDuration":69767,"Delta":236555239},{"NoteNumber":70,"Velocity":55,"Duration":60301,"SoundDuration":60301,"Delta":236625006},{"NoteNumber":66,"Velocity":38,"Duration":60301,"SoundDuration":60301,"Delta":236625006},{"NoteNumber":67,"Velocity":45,"Duration":60301,"SoundDuration":60301,"Delta":236685308},{"NoteNumber":72,"Velocity":44,"Duration":60301,"SoundDuration":60301,"Delta":236745609},{"NoteNumber":76,"Velocity":44,"Duration":63136,"SoundDuration":63136,"Delta":236805911},{"NoteNumber":79,"Velocity":44,"Duration":71641,"SoundDuration":71641,"Delta":236869047},{"NoteNumber":78,"Velocity":59,"Duration":61855,"SoundDuration":61855,"Delta":236940689},{"NoteNumber":73,"Velocity":50,"Duration":61855,"SoundDuration":61855,"Delta":236940689},{"NoteNumber":79,"Velocity":44,"Duration":61855,"SoundDuration":61855,"Delta":237002545},{"NoteNumber":76,"Velocity":45,"Duration":61855,"SoundDuration":61855,"Delta":237064400},{"NoteNumber":72,"Velocity":45,"Duration":64355,"SoundDuration":64355,"Delta":237126256},{"NoteNumber":67,"Velocity":45,"Duration":71856,"SoundDuration":71856,"Delta":237190612},{"NoteNumber":70,"Velocity":52,"Duration":61538,"SoundDuration":61538,"Delta":237262468},{"NoteNumber":66,"Velocity":37,"Duration":61538,"SoundDuration":61538,"Delta":237262468},{"NoteNumber":67,"Velocity":42,"Duration":61538,"SoundDuration":61538,"Delta":237324006},{"NoteNumber":72,"Velocity":42,"Duration":61538,"SoundDuration":61538,"Delta":237385545},{"NoteNumber":76,"Velocity":41,"Duration":64171,"SoundDuration":64171,"Delta":237447083},{"NoteNumber":79,"Velocity":41,"Duration":72071,"SoundDuration":72071,"Delta":237511255},{"NoteNumber":78,"Velocity":56,"Duration":64690,"SoundDuration":64690,"Delta":237583327},{"NoteNumber":73,"Velocity":47,"Duration":64690,"SoundDuration":64690,"Delta":237583327},{"NoteNumber":79,"Velocity":41,"Duration":64689,"SoundDuration":64689,"Delta":237648017},{"NoteNumber":76,"Velocity":42,"Duration":64690,"SoundDuration":64690,"Delta":237712707},{"NoteNumber":72,"Velocity":42,"Duration":66644,"SoundDuration":66644,"Delta":237777397},{"NoteNumber":67,"Velocity":42,"Duration":72507,"SoundDuration":72507,"Delta":237844041},{"NoteNumber":70,"Velocity":49,"Duration":79155,"SoundDuration":79155,"Delta":237916549},{"NoteNumber":66,"Velocity":35,"Duration":79155,"SoundDuration":79155,"Delta":237916549},{"NoteNumber":67,"Velocity":39,"Duration":79155,"SoundDuration":79155,"Delta":237995705},{"NoteNumber":72,"Velocity":38,"Duration":79155,"SoundDuration":79155,"Delta":238074860},{"NoteNumber":76,"Velocity":38,"Duration":90909,"SoundDuration":90909,"Delta":238154016},{"NoteNumber":78,"Velocity":52,"Duration":82417,"SoundDuration":82417,"Delta":238244925},{"NoteNumber":73,"Velocity":43,"Duration":82417,"SoundDuration":82417,"Delta":238244925},{"NoteNumber":76,"Velocity":37,"Duration":82417,"SoundDuration":82417,"Delta":238327343},{"NoteNumber":72,"Velocity":37,"Duration":82417,"SoundDuration":82417,"Delta":238409760},{"NoteNumber":67,"Velocity":37,"Duration":90909,"SoundDuration":90909,"Delta":238492178},{"NoteNumber":70,"Velocity":46,"Duration":81521,"SoundDuration":81521,"Delta":238583087},{"NoteNumber":66,"Velocity":31,"Duration":81521,"SoundDuration":81521,"Delta":238583087},{"NoteNumber":67,"Velocity":36,"Duration":81521,"SoundDuration":81521,"Delta":238664608},{"NoteNumber":72,"Velocity":34,"Duration":81521,"SoundDuration":81521,"Delta":238746130},{"NoteNumber":76,"Velocity":34,"Duration":91463,"SoundDuration":91463,"Delta":238827652},{"NoteNumber":78,"Velocity":48,"Duration":84985,"SoundDuration":84985,"Delta":238919115},{"NoteNumber":73,"Velocity":40,"Duration":84985,"SoundDuration":84985,"Delta":238919115},{"NoteNumber":76,"Velocity":34,"Duration":84985,"SoundDuration":84985,"Delta":239004101},{"NoteNumber":72,"Velocity":34,"Duration":84985,"SoundDuration":84985,"Delta":239089087},{"NoteNumber":67,"Velocity":33,"Duration":84985,"SoundDuration":84985,"Delta":239174073},{"NoteNumber":70,"Velocity":41,"Duration":82417,"SoundDuration":82417,"Delta":239259058},{"NoteNumber":66,"Velocity":29,"Duration":82417,"SoundDuration":82417,"Delta":239259058},{"NoteNumber":67,"Velocity":32,"Duration":82417,"SoundDuration":82417,"Delta":239341476},{"NoteNumber":72,"Velocity":32,"Duration":82417,"SoundDuration":82417,"Delta":239423893},{"NoteNumber":76,"Velocity":32,"Duration":99009,"SoundDuration":99009,"Delta":239506311},{"NoteNumber":78,"Velocity":44,"Duration":90909,"SoundDuration":90909,"Delta":239605321},{"NoteNumber":73,"Velocity":36,"Duration":90909,"SoundDuration":90909,"Delta":239605321},{"NoteNumber":76,"Velocity":31,"Duration":90908,"SoundDuration":90908,"Delta":239696230},{"NoteNumber":72,"Velocity":31,"Duration":90909,"SoundDuration":90909,"Delta":239787139},{"NoteNumber":67,"Velocity":31,"Duration":90909,"SoundDuration":90909,"Delta":239878048},{"NoteNumber":70,"Velocity":36,"Duration":89020,"SoundDuration":89020,"Delta":239968957},{"NoteNumber":66,"Velocity":25,"Duration":89020,"SoundDuration":89020,"Delta":239968957},{"NoteNumber":67,"Velocity":30,"Duration":89020,"SoundDuration":89020,"Delta":240057978},{"NoteNumber":72,"Velocity":30,"Duration":95318,"SoundDuration":95318,"Delta":240146998},{"NoteNumber":76,"Velocity":30,"Duration":107913,"SoundDuration":107913,"Delta":240242317},{"NoteNumber":78,"Velocity":40,"Duration":96774,"SoundDuration":96774,"Delta":240350231},{"NoteNumber":73,"Velocity":32,"Duration":96774,"SoundDuration":96774,"Delta":240350231},{"NoteNumber":76,"Velocity":29,"Duration":96774,"SoundDuration":96774,"Delta":240447005},{"NoteNumber":72,"Velocity":29,"Duration":111524,"SoundDuration":111524,"Delta":240543779},{"NoteNumber":67,"Velocity":29,"Duration":154639,"SoundDuration":154639,"Delta":240655303},{"NoteNumber":65,"Velocity":24,"Duration":255318,"SoundDuration":255318,"Delta":240809943},{"NoteNumber":72,"Velocity":28,"Duration":255318,"SoundDuration":255318,"Delta":240809943},{"NoteNumber":79,"Velocity":46,"Duration":382978,"SoundDuration":382978,"Delta":240809943},{"NoteNumber":75,"Velocity":29,"Duration":382978,"SoundDuration":382978,"Delta":240809943},{"NoteNumber":69,"Velocity":24,"Duration":255319,"SoundDuration":255319,"Delta":241065262},{"NoteNumber":74,"Velocity":28,"Duration":255319,"SoundDuration":255319,"Delta":241065262},{"NoteNumber":69,"Velocity":24,"Duration":247933,"SoundDuration":247933,"Delta":241320581},{"NoteNumber":74,"Velocity":28,"Duration":247933,"SoundDuration":247933,"Delta":241320581},{"NoteNumber":81,"Velocity":40,"Duration":371901,"SoundDuration":371901,"Delta":241320581},{"NoteNumber":77,"Velocity":26,"Duration":371901,"SoundDuration":371901,"Delta":241320581},{"NoteNumber":72,"Velocity":28,"Duration":247934,"SoundDuration":247934,"Delta":241568515},{"NoteNumber":65,"Velocity":24,"Duration":247934,"SoundDuration":247934,"Delta":241568515},{"NoteNumber":63,"Velocity":24,"Duration":247933,"SoundDuration":247933,"Delta":241816449},{"NoteNumber":70,"Velocity":28,"Duration":247933,"SoundDuration":247933,"Delta":241816449},{"NoteNumber":77,"Velocity":40,"Duration":371901,"SoundDuration":371901,"Delta":241816449},{"NoteNumber":73,"Velocity":26,"Duration":371901,"SoundDuration":371901,"Delta":241816449},{"NoteNumber":67,"Velocity":24,"Duration":247934,"SoundDuration":247934,"Delta":242064383},{"NoteNumber":72,"Velocity":28,"Duration":247934,"SoundDuration":247934,"Delta":242064383},{"NoteNumber":67,"Velocity":24,"Duration":242482,"SoundDuration":242482,"Delta":242312317},{"NoteNumber":72,"Velocity":28,"Duration":242482,"SoundDuration":242482,"Delta":242312317},{"NoteNumber":79,"Velocity":29,"Duration":181862,"SoundDuration":181862,"Delta":242312317},{"NoteNumber":84,"Velocity":46,"Duration":181862,"SoundDuration":181862,"Delta":242312317},{"NoteNumber":63,"Velocity":24,"Duration":242483,"SoundDuration":242483,"Delta":242554800},{"NoteNumber":70,"Velocity":28,"Duration":242483,"SoundDuration":242483,"Delta":242554800},{"NoteNumber":73,"Velocity":26,"Duration":181862,"SoundDuration":181862,"Delta":242554800},{"NoteNumber":77,"Velocity":40,"Duration":181862,"SoundDuration":181862,"Delta":242554800},{"NoteNumber":65,"Velocity":24,"Duration":252101,"SoundDuration":252101,"Delta":242797283},{"NoteNumber":72,"Velocity":28,"Duration":252101,"SoundDuration":252101,"Delta":242797283},{"NoteNumber":79,"Velocity":46,"Duration":378151,"SoundDuration":378151,"Delta":242797283},{"NoteNumber":75,"Velocity":29,"Duration":378151,"SoundDuration":378151,"Delta":242797283},{"NoteNumber":69,"Velocity":24,"Duration":252100,"SoundDuration":252100,"Delta":243049384},{"NoteNumber":74,"Velocity":28,"Duration":252100,"SoundDuration":252100,"Delta":243049384},{"NoteNumber":69,"Velocity":28,"Duration":247933,"SoundDuration":247933,"Delta":243301485},{"NoteNumber":74,"Velocity":28,"Duration":247933,"SoundDuration":247933,"Delta":243301485},{"NoteNumber":81,"Velocity":40,"Duration":371901,"SoundDuration":371901,"Delta":243301485},{"NoteNumber":77,"Velocity":26,"Duration":371901,"SoundDuration":371901,"Delta":243301485},{"NoteNumber":72,"Velocity":28,"Duration":247934,"SoundDuration":247934,"Delta":243549419},{"NoteNumber":65,"Velocity":24,"Duration":247934,"SoundDuration":247934,"Delta":243549419},{"NoteNumber":63,"Velocity":24,"Duration":247933,"SoundDuration":247933,"Delta":243797353},{"NoteNumber":70,"Velocity":28,"Duration":247933,"SoundDuration":247933,"Delta":243797353},{"NoteNumber":77,"Velocity":40,"Duration":371901,"SoundDuration":371901,"Delta":243797353},{"NoteNumber":73,"Velocity":26,"Duration":371901,"SoundDuration":371901,"Delta":243797353},{"NoteNumber":67,"Velocity":24,"Duration":247934,"SoundDuration":247934,"Delta":244045287},{"NoteNumber":72,"Velocity":28,"Duration":247934,"SoundDuration":247934,"Delta":244045287},{"NoteNumber":67,"Velocity":24,"Duration":245927,"SoundDuration":245927,"Delta":244293221},{"NoteNumber":72,"Velocity":28,"Duration":245927,"SoundDuration":245927,"Delta":244293221},{"NoteNumber":79,"Velocity":29,"Duration":180418,"SoundDuration":180418,"Delta":244293221},{"NoteNumber":84,"Velocity":46,"Duration":180418,"SoundDuration":180418,"Delta":244293221},{"NoteNumber":63,"Velocity":24,"Duration":272777,"SoundDuration":272777,"Delta":244539148},{"NoteNumber":70,"Velocity":28,"Duration":272777,"SoundDuration":272777,"Delta":244539148},{"NoteNumber":73,"Velocity":26,"Duration":204582,"SoundDuration":204582,"Delta":244539148},{"NoteNumber":77,"Velocity":40,"Duration":204582,"SoundDuration":204582,"Delta":244539148},{"NoteNumber":65,"Velocity":24,"Duration":260010,"SoundDuration":260010,"Delta":244811925},{"NoteNumber":72,"Velocity":28,"Duration":260010,"SoundDuration":260010,"Delta":244811925},{"NoteNumber":79,"Velocity":46,"Duration":390015,"SoundDuration":390015,"Delta":244811925},{"NoteNumber":75,"Velocity":29,"Duration":390015,"SoundDuration":390015,"Delta":244811925},{"NoteNumber":69,"Velocity":28,"Duration":260010,"SoundDuration":260010,"Delta":245071936},{"NoteNumber":74,"Velocity":28,"Duration":260010,"SoundDuration":260010,"Delta":245071936},{"NoteNumber":69,"Velocity":28,"Duration":260010,"SoundDuration":260010,"Delta":245331946},{"NoteNumber":74,"Velocity":28,"Duration":260010,"SoundDuration":260010,"Delta":245331946},{"NoteNumber":81,"Velocity":40,"Duration":390015,"SoundDuration":390015,"Delta":245331946},{"NoteNumber":77,"Velocity":26,"Duration":390015,"SoundDuration":390015,"Delta":245331946},{"NoteNumber":72,"Velocity":28,"Duration":260010,"SoundDuration":260010,"Delta":245591957},{"NoteNumber":65,"Velocity":28,"Duration":260010,"SoundDuration":260010,"Delta":245591957},{"NoteNumber":63,"Velocity":24,"Duration":260010,"SoundDuration":260010,"Delta":245851967},{"NoteNumber":70,"Velocity":28,"Duration":260010,"SoundDuration":260010,"Delta":245851967},{"NoteNumber":77,"Velocity":40,"Duration":390015,"SoundDuration":390015,"Delta":245851967},{"NoteNumber":73,"Velocity":26,"Duration":390015,"SoundDuration":390015,"Delta":245851967},{"NoteNumber":67,"Velocity":24,"Duration":260010,"SoundDuration":260010,"Delta":246111978},{"NoteNumber":72,"Velocity":28,"Duration":260010,"SoundDuration":260010,"Delta":246111978},{"NoteNumber":67,"Velocity":24,"Duration":250417,"SoundDuration":250417,"Delta":246371988},{"NoteNumber":72,"Velocity":28,"Duration":250417,"SoundDuration":250417,"Delta":246371988},{"NoteNumber":75,"Velocity":26,"Duration":379327,"SoundDuration":379327,"Delta":246371988},{"NoteNumber":79,"Velocity":32,"Duration":379327,"SoundDuration":379327,"Delta":246371988},{"NoteNumber":63,"Velocity":24,"Duration":257820,"SoundDuration":257820,"Delta":246622406},{"NoteNumber":70,"Velocity":28,"Duration":257820,"SoundDuration":257820,"Delta":246622406},{"NoteNumber":61,"Velocity":24,"Duration":264526,"SoundDuration":264526,"Delta":246880226},{"NoteNumber":68,"Velocity":28,"Duration":264526,"SoundDuration":264526,"Delta":246880226},{"NoteNumber":75,"Velocity":37,"Duration":396790,"SoundDuration":396790,"Delta":246880226},{"NoteNumber":71,"Velocity":29,"Duration":396790,"SoundDuration":396790,"Delta":246880226},{"NoteNumber":65,"Velocity":23,"Duration":264527,"SoundDuration":264527,"Delta":247144753},{"NoteNumber":70,"Velocity":28,"Duration":264527,"SoundDuration":264527,"Delta":247144753},{"NoteNumber":65,"Velocity":22,"Duration":277751,"SoundDuration":277751,"Delta":247409280},{"NoteNumber":70,"Velocity":27,"Duration":277751,"SoundDuration":277751,"Delta":247409280},{"NoteNumber":77,"Velocity":30,"Duration":416628,"SoundDuration":416628,"Delta":247409280},{"NoteNumber":73,"Velocity":24,"Duration":416628,"SoundDuration":416628,"Delta":247409280},{"NoteNumber":68,"Velocity":27,"Duration":277752,"SoundDuration":277752,"Delta":247687032},{"NoteNumber":61,"Velocity":22,"Duration":277752,"SoundDuration":277752,"Delta":247687032},{"NoteNumber":59,"Velocity":21,"Duration":302511,"SoundDuration":302511,"Delta":247964784},{"NoteNumber":66,"Velocity":26,"Duration":302511,"SoundDuration":302511,"Delta":247964784},{"NoteNumber":73,"Velocity":34,"Duration":453766,"SoundDuration":453766,"Delta":247964784},{"NoteNumber":69,"Velocity":27,"Duration":453766,"SoundDuration":453766,"Delta":247964784},{"NoteNumber":63,"Velocity":21,"Duration":302510,"SoundDuration":302510,"Delta":248267295},{"NoteNumber":68,"Velocity":26,"Duration":302510,"SoundDuration":302510,"Delta":248267295},{"NoteNumber":63,"Velocity":19,"Duration":339481,"SoundDuration":339481,"Delta":248569806},{"NoteNumber":68,"Velocity":25,"Duration":339481,"SoundDuration":339481,"Delta":248569806},{"NoteNumber":71,"Velocity":21,"Duration":642022,"SoundDuration":642022,"Delta":248569806},{"NoteNumber":75,"Velocity":27,"Duration":642022,"SoundDuration":642022,"Delta":248569806},{"NoteNumber":59,"Velocity":19,"Duration":302541,"SoundDuration":302541,"Delta":248909288},{"NoteNumber":66,"Velocity":24,"Duration":302541,"SoundDuration":302541,"Delta":248909288},{"NoteNumber":61,"Velocity":25,"Duration":504201,"SoundDuration":504201,"Delta":249514370},{"NoteNumber":66,"Velocity":29,"Duration":504201,"SoundDuration":504201,"Delta":249514370},{"NoteNumber":73,"Velocity":45,"Duration":976642,"SoundDuration":976642,"Delta":249514370},{"NoteNumber":47,"Velocity":25,"Duration":976642,"SoundDuration":976642,"Delta":249514370},{"NoteNumber":54,"Velocity":25,"Duration":976642,"SoundDuration":976642,"Delta":249514370},{"NoteNumber":57,"Velocity":29,"Duration":976642,"SoundDuration":976642,"Delta":249514370},{"NoteNumber":63,"Velocity":21,"Duration":468503,"SoundDuration":468503,"Delta":250018572},{"NoteNumber":68,"Velocity":28,"Duration":472441,"SoundDuration":472441,"Delta":250018572},{"NoteNumber":68,"Velocity":29,"Duration":472441,"SoundDuration":472441,"Delta":250491013},{"NoteNumber":75,"Velocity":40,"Duration":964244,"SoundDuration":964244,"Delta":250491013},{"NoteNumber":52,"Velocity":23,"Duration":964244,"SoundDuration":964244,"Delta":250491013},{"NoteNumber":59,"Velocity":23,"Duration":960146,"SoundDuration":960146,"Delta":250491013},{"NoteNumber":63,"Velocity":27,"Duration":964244,"SoundDuration":964244,"Delta":250491013},{"NoteNumber":61,"Velocity":21,"Duration":491803,"SoundDuration":491803,"Delta":250963454},{"NoteNumber":66,"Velocity":28,"Duration":491803,"SoundDuration":491803,"Delta":250963454},{"NoteNumber":59,"Velocity":23,"Duration":491803,"SoundDuration":491803,"Delta":251455257},{"NoteNumber":64,"Velocity":31,"Duration":491803,"SoundDuration":491803,"Delta":251455257},{"NoteNumber":71,"Velocity":43,"Duration":1013542,"SoundDuration":1013542,"Delta":251455257},{"NoteNumber":45,"Velocity":23,"Duration":1013542,"SoundDuration":1013542,"Delta":251455257},{"NoteNumber":52,"Velocity":23,"Duration":1013542,"SoundDuration":1013542,"Delta":251455257},{"NoteNumber":55,"Velocity":28,"Duration":1013542,"SoundDuration":1013542,"Delta":251455257},{"NoteNumber":61,"Velocity":22,"Duration":517391,"SoundDuration":517391,"Delta":251947061},{"NoteNumber":66,"Velocity":29,"Duration":521738,"SoundDuration":521738,"Delta":251947061},{"NoteNumber":66,"Velocity":33,"Duration":458015,"SoundDuration":458015,"Delta":252468800},{"NoteNumber":73,"Velocity":39,"Duration":458015,"SoundDuration":458015,"Delta":252468800},{"NoteNumber":78,"Velocity":46,"Duration":458015,"SoundDuration":458015,"Delta":252468800},{"NoteNumber":50,"Velocity":22,"Duration":909143,"SoundDuration":909143,"Delta":252468800},{"NoteNumber":57,"Velocity":22,"Duration":909143,"SoundDuration":909143,"Delta":252468800},{"NoteNumber":61,"Velocity":26,"Duration":905384,"SoundDuration":905384,"Delta":252468800},{"NoteNumber":69,"Velocity":29,"Duration":451128,"SoundDuration":451128,"Delta":252926815},{"NoteNumber":74,"Velocity":29,"Duration":451128,"SoundDuration":451128,"Delta":252926815},{"NoteNumber":61,"Velocity":33,"Duration":487805,"SoundDuration":487805,"Delta":253377943},{"NoteNumber":66,"Velocity":39,"Duration":487805,"SoundDuration":487805,"Delta":253377943},{"NoteNumber":73,"Velocity":43,"Duration":938933,"SoundDuration":938933,"Delta":253377943},{"NoteNumber":47,"Velocity":25,"Duration":938933,"SoundDuration":938933,"Delta":253377943},{"NoteNumber":54,"Velocity":25,"Duration":938933,"SoundDuration":938933,"Delta":253377943},{"NoteNumber":57,"Velocity":29,"Duration":938933,"SoundDuration":938933,"Delta":253377943},{"NoteNumber":63,"Velocity":22,"Duration":447368,"SoundDuration":447368,"Delta":253865748},{"NoteNumber":68,"Velocity":30,"Duration":451128,"SoundDuration":451128,"Delta":253865748},{"NoteNumber":68,"Velocity":39,"Duration":458015,"SoundDuration":458015,"Delta":254316876},{"NoteNumber":75,"Velocity":40,"Duration":938015,"SoundDuration":938015,"Delta":254316876},{"NoteNumber":52,"Velocity":22,"Duration":938015,"SoundDuration":938015,"Delta":254316876},{"NoteNumber":59,"Velocity":22,"Duration":934015,"SoundDuration":934015,"Delta":254316876},{"NoteNumber":63,"Velocity":26,"Duration":938015,"SoundDuration":938015,"Delta":254316876},{"NoteNumber":61,"Velocity":22,"Duration":479999,"SoundDuration":479999,"Delta":254774892},{"NoteNumber":66,"Velocity":29,"Duration":479999,"SoundDuration":479999,"Delta":254774892},{"NoteNumber":59,"Velocity":19,"Duration":480000,"SoundDuration":480000,"Delta":255254892},{"NoteNumber":64,"Velocity":33,"Duration":480000,"SoundDuration":480000,"Delta":255254892},{"NoteNumber":71,"Velocity":42,"Duration":1001739,"SoundDuration":1001739,"Delta":255254892},{"NoteNumber":45,"Velocity":24,"Duration":1001739,"SoundDuration":1001739,"Delta":255254892},{"NoteNumber":52,"Velocity":24,"Duration":1001739,"SoundDuration":1001739,"Delta":255254892},{"NoteNumber":55,"Velocity":28,"Duration":1001739,"SoundDuration":1001739,"Delta":255254892},{"NoteNumber":61,"Velocity":22,"Duration":517391,"SoundDuration":517391,"Delta":255734892},{"NoteNumber":66,"Velocity":29,"Duration":521739,"SoundDuration":521739,"Delta":255734892},{"NoteNumber":66,"Velocity":33,"Duration":476190,"SoundDuration":476190,"Delta":256256631},{"NoteNumber":73,"Velocity":39,"Duration":476190,"SoundDuration":476190,"Delta":256256631},{"NoteNumber":78,"Velocity":43,"Duration":476190,"SoundDuration":476190,"Delta":256256631},{"NoteNumber":50,"Velocity":22,"Duration":952381,"SoundDuration":952381,"Delta":256256631},{"NoteNumber":57,"Velocity":22,"Duration":952381,"SoundDuration":952381,"Delta":256256631},{"NoteNumber":61,"Velocity":26,"Duration":948412,"SoundDuration":948412,"Delta":256256631},{"NoteNumber":69,"Velocity":30,"Duration":476190,"SoundDuration":476190,"Delta":256732821},{"NoteNumber":74,"Velocity":30,"Duration":476190,"SoundDuration":476190,"Delta":256732821},{"NoteNumber":61,"Velocity":33,"Duration":495867,"SoundDuration":495867,"Delta":257209012},{"NoteNumber":66,"Velocity":39,"Duration":495867,"SoundDuration":495867,"Delta":257209012},{"NoteNumber":73,"Velocity":43,"Duration":968308,"SoundDuration":968308,"Delta":257209012},{"NoteNumber":47,"Velocity":24,"Duration":968308,"SoundDuration":968308,"Delta":257209012},{"NoteNumber":54,"Velocity":24,"Duration":968308,"SoundDuration":968308,"Delta":257209012},{"NoteNumber":57,"Velocity":28,"Duration":968308,"SoundDuration":968308,"Delta":257209012},{"NoteNumber":63,"Velocity":22,"Duration":468503,"SoundDuration":468503,"Delta":257704880},{"NoteNumber":68,"Velocity":29,"Duration":472441,"SoundDuration":472441,"Delta":257704880},{"NoteNumber":68,"Velocity":38,"Duration":491803,"SoundDuration":491803,"Delta":258177321},{"NoteNumber":75,"Velocity":39,"Duration":983607,"SoundDuration":983607,"Delta":258177321},{"NoteNumber":52,"Velocity":19,"Duration":983607,"SoundDuration":983607,"Delta":258177321},{"NoteNumber":59,"Velocity":19,"Duration":979508,"SoundDuration":979508,"Delta":258177321},{"NoteNumber":63,"Velocity":25,"Duration":983607,"SoundDuration":983607,"Delta":258177321},{"NoteNumber":61,"Velocity":21,"Duration":491803,"SoundDuration":491803,"Delta":258669124},{"NoteNumber":66,"Velocity":28,"Duration":491803,"SoundDuration":491803,"Delta":258669124},{"NoteNumber":59,"Velocity":25,"Duration":517241,"SoundDuration":517241,"Delta":259160928},{"NoteNumber":64,"Velocity":32,"Duration":517241,"SoundDuration":517241,"Delta":259160928},{"NoteNumber":71,"Velocity":40,"Duration":1005046,"SoundDuration":1005046,"Delta":259160928},{"NoteNumber":45,"Velocity":22,"Duration":1005046,"SoundDuration":1005046,"Delta":259160928},{"NoteNumber":52,"Velocity":22,"Duration":1005046,"SoundDuration":1005046,"Delta":259160928},{"NoteNumber":55,"Velocity":26,"Duration":1005046,"SoundDuration":1005046,"Delta":259160928},{"NoteNumber":61,"Velocity":19,"Duration":483739,"SoundDuration":483739,"Delta":259678169},{"NoteNumber":66,"Velocity":27,"Duration":487804,"SoundDuration":487804,"Delta":259678169},{"NoteNumber":66,"Velocity":36,"Duration":517241,"SoundDuration":517241,"Delta":260165974},{"NoteNumber":73,"Velocity":37,"Duration":1034483,"SoundDuration":1034483,"Delta":260165974},{"NoteNumber":50,"Velocity":18,"Duration":1034483,"SoundDuration":1034483,"Delta":260165974},{"NoteNumber":57,"Velocity":18,"Duration":1034483,"SoundDuration":1034483,"Delta":260165974},{"NoteNumber":61,"Velocity":23,"Duration":1030172,"SoundDuration":1030172,"Delta":260165974},{"NoteNumber":59,"Velocity":18,"Duration":517241,"SoundDuration":517241,"Delta":260683216},{"NoteNumber":64,"Velocity":27,"Duration":517241,"SoundDuration":517241,"Delta":260683216},{"NoteNumber":57,"Velocity":27,"Duration":555555,"SoundDuration":555555,"Delta":261200457},{"NoteNumber":62,"Velocity":33,"Duration":555555,"SoundDuration":555555,"Delta":261200457},{"NoteNumber":69,"Velocity":38,"Duration":1086529,"SoundDuration":1086529,"Delta":261200457},{"NoteNumber":43,"Velocity":23,"Duration":1086529,"SoundDuration":1086529,"Delta":261200457},{"NoteNumber":50,"Velocity":23,"Duration":1086529,"SoundDuration":1086529,"Delta":261200457},{"NoteNumber":53,"Velocity":27,"Duration":1086529,"SoundDuration":1086529,"Delta":261200457},{"NoteNumber":59,"Velocity":18,"Duration":526548,"SoundDuration":526548,"Delta":261756013},{"NoteNumber":64,"Velocity":26,"Duration":530973,"SoundDuration":530973,"Delta":261756013},{"NoteNumber":64,"Velocity":34,"Duration":576923,"SoundDuration":576923,"Delta":262286986},{"NoteNumber":71,"Velocity":35,"Duration":1317663,"SoundDuration":1317663,"Delta":262286986},{"NoteNumber":48,"Velocity":18,"Duration":1317663,"SoundDuration":1317663,"Delta":262286986},{"NoteNumber":55,"Velocity":18,"Duration":1317663,"SoundDuration":1317663,"Delta":262286986},{"NoteNumber":59,"Velocity":24,"Duration":1317663,"SoundDuration":1317663,"Delta":262286986},{"NoteNumber":60,"Velocity":27,"Duration":740740,"SoundDuration":740740,"Delta":262863909},{"NoteNumber":60,"Velocity":24,"Duration":7438396,"SoundDuration":7438396,"Delta":263604650},{"NoteNumber":58,"Velocity":24,"Duration":2962962,"SoundDuration":2962962,"Delta":263604650},{"NoteNumber":64,"Velocity":24,"Duration":2962962,"SoundDuration":2962962,"Delta":263604650},{"NoteNumber":68,"Velocity":28,"Duration":2962962,"SoundDuration":2962962,"Delta":263604650},{"NoteNumber":42,"Velocity":18,"Duration":2962962,"SoundDuration":2962962,"Delta":263604650},{"NoteNumber":49,"Velocity":23,"Duration":2962962,"SoundDuration":2962962,"Delta":263604650},{"NoteNumber":35,"Velocity":38,"Duration":346824,"SoundDuration":346824,"Delta":270113069},{"NoteNumber":47,"Velocity":38,"Duration":346824,"SoundDuration":346824,"Delta":270113069},{"NoteNumber":59,"Velocity":35,"Duration":71876,"SoundDuration":71876,"Delta":270187691},{"NoteNumber":57,"Velocity":35,"Duration":71876,"SoundDuration":71876,"Delta":270187691},{"NoteNumber":64,"Velocity":36,"Duration":69178,"SoundDuration":69178,"Delta":270259567},{"NoteNumber":66,"Velocity":37,"Duration":66683,"SoundDuration":66683,"Delta":270328746},{"NoteNumber":69,"Velocity":37,"Duration":64464,"SoundDuration":64464,"Delta":270395429},{"NoteNumber":71,"Velocity":38,"Duration":61914,"SoundDuration":61914,"Delta":270459894},{"NoteNumber":61,"Velocity":47,"Duration":296976,"SoundDuration":296976,"Delta":270459894},{"NoteNumber":71,"Velocity":39,"Duration":60011,"SoundDuration":60011,"Delta":270521809},{"NoteNumber":69,"Velocity":39,"Duration":60011,"SoundDuration":60011,"Delta":270521809},{"NoteNumber":76,"Velocity":40,"Duration":58823,"SoundDuration":58823,"Delta":270581821},{"NoteNumber":78,"Velocity":42,"Duration":58255,"SoundDuration":58255,"Delta":270640644},{"NoteNumber":81,"Velocity":42,"Duration":57970,"SoundDuration":57970,"Delta":270698899},{"NoteNumber":83,"Velocity":43,"Duration":57646,"SoundDuration":57646,"Delta":270756870},{"NoteNumber":73,"Velocity":38,"Duration":286176,"SoundDuration":286176,"Delta":270756870},{"NoteNumber":81,"Velocity":44,"Duration":57416,"SoundDuration":57416,"Delta":270814517},{"NoteNumber":83,"Velocity":44,"Duration":57416,"SoundDuration":57416,"Delta":270814517},{"NoteNumber":88,"Velocity":45,"Duration":57279,"SoundDuration":57279,"Delta":270871933},{"NoteNumber":90,"Velocity":46,"Duration":56962,"SoundDuration":56962,"Delta":270929213},{"NoteNumber":93,"Velocity":46,"Duration":56871,"SoundDuration":56871,"Delta":270986175},{"NoteNumber":95,"Velocity":50,"Duration":94491,"SoundDuration":94491,"Delta":271043047},{"NoteNumber":93,"Velocity":42,"Duration":94491,"SoundDuration":94491,"Delta":271043047},{"NoteNumber":85,"Velocity":53,"Duration":425210,"SoundDuration":425210,"Delta":271043047},{"NoteNumber":73,"Velocity":40,"Duration":425210,"SoundDuration":425210,"Delta":271043047},{"NoteNumber":88,"Velocity":34,"Duration":94491,"SoundDuration":94491,"Delta":271137538},{"NoteNumber":90,"Velocity":40,"Duration":94491,"SoundDuration":94491,"Delta":271137538},{"NoteNumber":81,"Velocity":34,"Duration":82679,"SoundDuration":82679,"Delta":271232029},{"NoteNumber":83,"Velocity":40,"Duration":82679,"SoundDuration":82679,"Delta":271232029},{"NoteNumber":83,"Velocity":44,"Duration":94491,"SoundDuration":94491,"Delta":271326520},{"NoteNumber":81,"Velocity":36,"Duration":94491,"SoundDuration":94491,"Delta":271326520},{"NoteNumber":76,"Velocity":29,"Duration":94491,"SoundDuration":94491,"Delta":271421011},{"NoteNumber":78,"Velocity":35,"Duration":94491,"SoundDuration":94491,"Delta":271421011},{"NoteNumber":69,"Velocity":29,"Duration":82679,"SoundDuration":82679,"Delta":271515503},{"NoteNumber":71,"Velocity":35,"Duration":82679,"SoundDuration":82679,"Delta":271515503},{"NoteNumber":71,"Velocity":43,"Duration":94491,"SoundDuration":94491,"Delta":271609994},{"NoteNumber":69,"Velocity":35,"Duration":94491,"SoundDuration":94491,"Delta":271609994},{"NoteNumber":87,"Velocity":48,"Duration":424822,"SoundDuration":424822,"Delta":271609994},{"NoteNumber":75,"Velocity":36,"Duration":424822,"SoundDuration":424822,"Delta":271609994},{"NoteNumber":76,"Velocity":29,"Duration":94491,"SoundDuration":94491,"Delta":271704485},{"NoteNumber":78,"Velocity":35,"Duration":94491,"SoundDuration":94491,"Delta":271704485},{"NoteNumber":81,"Velocity":30,"Duration":82384,"SoundDuration":82384,"Delta":271798976},{"NoteNumber":83,"Velocity":36,"Duration":82384,"SoundDuration":82384,"Delta":271798976},{"NoteNumber":83,"Velocity":47,"Duration":94295,"SoundDuration":94295,"Delta":271893073},{"NoteNumber":81,"Velocity":39,"Duration":94295,"SoundDuration":94295,"Delta":271893073},{"NoteNumber":88,"Velocity":34,"Duration":95294,"SoundDuration":95294,"Delta":271987369},{"NoteNumber":90,"Velocity":40,"Duration":95294,"SoundDuration":95294,"Delta":271987369},{"NoteNumber":93,"Velocity":34,"Duration":96311,"SoundDuration":96311,"Delta":272082663},{"NoteNumber":95,"Velocity":40,"Duration":96311,"SoundDuration":96311,"Delta":272082663},{"NoteNumber":95,"Velocity":50,"Duration":97352,"SoundDuration":97352,"Delta":272178975},{"NoteNumber":93,"Velocity":42,"Duration":97352,"SoundDuration":97352,"Delta":272178975},{"NoteNumber":85,"Velocity":48,"Duration":429780,"SoundDuration":429780,"Delta":272178975},{"NoteNumber":73,"Velocity":36,"Duration":429780,"SoundDuration":429780,"Delta":272178975},{"NoteNumber":88,"Velocity":34,"Duration":97358,"SoundDuration":97358,"Delta":272276327},{"NoteNumber":90,"Velocity":40,"Duration":97358,"SoundDuration":97358,"Delta":272276327},{"NoteNumber":81,"Velocity":34,"Duration":83281,"SoundDuration":83281,"Delta":272373685},{"NoteNumber":83,"Velocity":40,"Duration":83281,"SoundDuration":83281,"Delta":272373685},{"NoteNumber":83,"Velocity":45,"Duration":93318,"SoundDuration":93318,"Delta":272468778},{"NoteNumber":81,"Velocity":37,"Duration":93318,"SoundDuration":93318,"Delta":272468778},{"NoteNumber":76,"Velocity":29,"Duration":93318,"SoundDuration":93318,"Delta":272562096},{"NoteNumber":78,"Velocity":36,"Duration":93318,"SoundDuration":93318,"Delta":272562096},{"NoteNumber":69,"Velocity":29,"Duration":81653,"SoundDuration":81653,"Delta":272655415},{"NoteNumber":71,"Velocity":36,"Duration":81653,"SoundDuration":81653,"Delta":272655415},{"NoteNumber":71,"Velocity":44,"Duration":90678,"SoundDuration":90678,"Delta":272748733},{"NoteNumber":69,"Velocity":36,"Duration":90678,"SoundDuration":90678,"Delta":272748733},{"NoteNumber":78,"Velocity":42,"Duration":203212,"SoundDuration":203212,"Delta":272748733},{"NoteNumber":90,"Velocity":54,"Duration":203212,"SoundDuration":203212,"Delta":272748733},{"NoteNumber":76,"Velocity":29,"Duration":90135,"SoundDuration":90135,"Delta":272839411},{"NoteNumber":78,"Velocity":36,"Duration":90135,"SoundDuration":90135,"Delta":272839411},{"NoteNumber":81,"Velocity":31,"Duration":78266,"SoundDuration":78266,"Delta":272929546},{"NoteNumber":83,"Velocity":37,"Duration":78266,"SoundDuration":78266,"Delta":272929546},{"NoteNumber":83,"Velocity":48,"Duration":89245,"SoundDuration":89245,"Delta":273018968},{"NoteNumber":81,"Velocity":40,"Duration":89245,"SoundDuration":89245,"Delta":273018968},{"NoteNumber":75,"Velocity":37,"Duration":201067,"SoundDuration":201067,"Delta":273018968},{"NoteNumber":87,"Velocity":49,"Duration":201067,"SoundDuration":201067,"Delta":273018968},{"NoteNumber":88,"Velocity":35,"Duration":89421,"SoundDuration":89421,"Delta":273108214},{"NoteNumber":90,"Velocity":42,"Duration":89421,"SoundDuration":89421,"Delta":273108214},{"NoteNumber":93,"Velocity":35,"Duration":89597,"SoundDuration":89597,"Delta":273197636},{"NoteNumber":95,"Velocity":42,"Duration":89597,"SoundDuration":89597,"Delta":273197636},{"NoteNumber":95,"Velocity":52,"Duration":91635,"SoundDuration":91635,"Delta":273287233},{"NoteNumber":93,"Velocity":44,"Duration":91635,"SoundDuration":91635,"Delta":273287233},{"NoteNumber":73,"Velocity":37,"Duration":415938,"SoundDuration":415938,"Delta":273287233},{"NoteNumber":85,"Velocity":50,"Duration":415938,"SoundDuration":415938,"Delta":273287233},{"NoteNumber":88,"Velocity":35,"Duration":93123,"SoundDuration":93123,"Delta":273378869},{"NoteNumber":90,"Velocity":42,"Duration":93123,"SoundDuration":93123,"Delta":273378869},{"NoteNumber":81,"Velocity":35,"Duration":81170,"SoundDuration":81170,"Delta":273471992},{"NoteNumber":83,"Velocity":42,"Duration":81170,"SoundDuration":81170,"Delta":273471992},{"NoteNumber":83,"Velocity":46,"Duration":92357,"SoundDuration":92357,"Delta":273564731},{"NoteNumber":81,"Velocity":37,"Duration":92357,"SoundDuration":92357,"Delta":273564731},{"NoteNumber":76,"Velocity":30,"Duration":91979,"SoundDuration":91979,"Delta":273657089},{"NoteNumber":78,"Velocity":36,"Duration":91979,"SoundDuration":91979,"Delta":273657089},{"NoteNumber":69,"Velocity":30,"Duration":80177,"SoundDuration":80177,"Delta":273749068},{"NoteNumber":71,"Velocity":37,"Duration":80177,"SoundDuration":80177,"Delta":273749068},{"NoteNumber":71,"Velocity":45,"Duration":91049,"SoundDuration":91049,"Delta":273840673},{"NoteNumber":69,"Velocity":37,"Duration":91049,"SoundDuration":91049,"Delta":273840673},{"NoteNumber":68,"Velocity":33,"Duration":414218,"SoundDuration":414218,"Delta":273840673},{"NoteNumber":80,"Velocity":45,"Duration":414218,"SoundDuration":414218,"Delta":273840673},{"NoteNumber":76,"Velocity":30,"Duration":91604,"SoundDuration":91604,"Delta":273931723},{"NoteNumber":78,"Velocity":37,"Duration":91604,"SoundDuration":91604,"Delta":273931723},{"NoteNumber":81,"Velocity":31,"Duration":80645,"SoundDuration":80645,"Delta":274023328},{"NoteNumber":83,"Velocity":38,"Duration":80645,"SoundDuration":80645,"Delta":274023328},{"NoteNumber":83,"Velocity":49,"Duration":92738,"SoundDuration":92738,"Delta":274115494},{"NoteNumber":81,"Velocity":42,"Duration":92738,"SoundDuration":92738,"Delta":274115494},{"NoteNumber":88,"Velocity":36,"Duration":93318,"SoundDuration":93318,"Delta":274208233},{"NoteNumber":90,"Velocity":43,"Duration":93318,"SoundDuration":93318,"Delta":274208233},{"NoteNumber":93,"Velocity":36,"Duration":93901,"SoundDuration":93901,"Delta":274301551},{"NoteNumber":95,"Velocity":43,"Duration":93901,"SoundDuration":93901,"Delta":274301551},{"NoteNumber":95,"Velocity":53,"Duration":94692,"SoundDuration":94692,"Delta":274395453},{"NoteNumber":93,"Velocity":44,"Duration":94692,"SoundDuration":94692,"Delta":274395453},{"NoteNumber":68,"Velocity":35,"Duration":569166,"SoundDuration":569166,"Delta":274395453},{"NoteNumber":80,"Velocity":46,"Duration":569166,"SoundDuration":569166,"Delta":274395453},{"NoteNumber":88,"Velocity":36,"Duration":94894,"SoundDuration":94894,"Delta":274490146},{"NoteNumber":90,"Velocity":43,"Duration":94894,"SoundDuration":94894,"Delta":274490146},{"NoteNumber":81,"Velocity":36,"Duration":83032,"SoundDuration":83032,"Delta":274585040},{"NoteNumber":83,"Velocity":43,"Duration":83032,"SoundDuration":83032,"Delta":274585040},{"NoteNumber":83,"Velocity":47,"Duration":94894,"SoundDuration":94894,"Delta":274679935},{"NoteNumber":81,"Velocity":38,"Duration":94894,"SoundDuration":94894,"Delta":274679935},{"NoteNumber":76,"Velocity":31,"Duration":94894,"SoundDuration":94894,"Delta":274774830},{"NoteNumber":78,"Velocity":37,"Duration":94894,"SoundDuration":94894,"Delta":274774830},{"NoteNumber":69,"Velocity":31,"Duration":83032,"SoundDuration":83032,"Delta":274869724},{"NoteNumber":71,"Velocity":37,"Duration":83032,"SoundDuration":83032,"Delta":274869724},{"NoteNumber":71,"Velocity":46,"Duration":94894,"SoundDuration":94894,"Delta":274964619},{"NoteNumber":69,"Velocity":37,"Duration":94894,"SoundDuration":94894,"Delta":274964619},{"NoteNumber":78,"Velocity":42,"Duration":569367,"SoundDuration":569367,"Delta":274964619},{"NoteNumber":66,"Velocity":32,"Duration":569367,"SoundDuration":569367,"Delta":274964619},{"NoteNumber":76,"Velocity":31,"Duration":94894,"SoundDuration":94894,"Delta":275059514},{"NoteNumber":78,"Velocity":37,"Duration":94894,"SoundDuration":94894,"Delta":275059514},{"NoteNumber":81,"Velocity":32,"Duration":83032,"SoundDuration":83032,"Delta":275154408},{"NoteNumber":83,"Velocity":39,"Duration":83032,"SoundDuration":83032,"Delta":275154408},{"NoteNumber":83,"Velocity":51,"Duration":94894,"SoundDuration":94894,"Delta":275249303},{"NoteNumber":81,"Velocity":43,"Duration":94894,"SoundDuration":94894,"Delta":275249303},{"NoteNumber":88,"Velocity":36,"Duration":94894,"SoundDuration":94894,"Delta":275344198},{"NoteNumber":90,"Velocity":44,"Duration":94894,"SoundDuration":94894,"Delta":275344198},{"NoteNumber":93,"Velocity":36,"Duration":83032,"SoundDuration":83032,"Delta":275439092},{"NoteNumber":95,"Velocity":44,"Duration":83032,"SoundDuration":83032,"Delta":275439092},{"NoteNumber":95,"Velocity":54,"Duration":94491,"SoundDuration":94491,"Delta":275533987},{"NoteNumber":93,"Velocity":46,"Duration":94491,"SoundDuration":94491,"Delta":275533987},{"NoteNumber":61,"Velocity":43,"Duration":425210,"SoundDuration":425210,"Delta":275533987},{"NoteNumber":73,"Velocity":55,"Duration":425210,"SoundDuration":425210,"Delta":275533987},{"NoteNumber":88,"Velocity":37,"Duration":94491,"SoundDuration":94491,"Delta":275628478},{"NoteNumber":90,"Velocity":44,"Duration":94491,"SoundDuration":94491,"Delta":275628478},{"NoteNumber":81,"Velocity":37,"Duration":82679,"SoundDuration":82679,"Delta":275722969},{"NoteNumber":83,"Velocity":45,"Duration":82679,"SoundDuration":82679,"Delta":275722969},{"NoteNumber":83,"Velocity":48,"Duration":94491,"SoundDuration":94491,"Delta":275817460},{"NoteNumber":81,"Velocity":39,"Duration":94491,"SoundDuration":94491,"Delta":275817460},{"NoteNumber":76,"Velocity":32,"Duration":94491,"SoundDuration":94491,"Delta":275911952},{"NoteNumber":78,"Velocity":39,"Duration":94491,"SoundDuration":94491,"Delta":275911952},{"NoteNumber":69,"Velocity":32,"Duration":82679,"SoundDuration":82679,"Delta":276006443},{"NoteNumber":71,"Velocity":39,"Duration":82679,"SoundDuration":82679,"Delta":276006443},{"NoteNumber":71,"Velocity":48,"Duration":94491,"SoundDuration":94491,"Delta":276100934},{"NoteNumber":69,"Velocity":39,"Duration":94491,"SoundDuration":94491,"Delta":276100934},{"NoteNumber":63,"Velocity":39,"Duration":424822,"SoundDuration":424822,"Delta":276100934},{"NoteNumber":75,"Velocity":51,"Duration":424822,"SoundDuration":424822,"Delta":276100934},{"NoteNumber":76,"Velocity":32,"Duration":94491,"SoundDuration":94491,"Delta":276195425},{"NoteNumber":78,"Velocity":39,"Duration":94491,"SoundDuration":94491,"Delta":276195425},{"NoteNumber":81,"Velocity":34,"Duration":82384,"SoundDuration":82384,"Delta":276289916},{"NoteNumber":83,"Velocity":42,"Duration":82384,"SoundDuration":82384,"Delta":276289916},{"NoteNumber":83,"Velocity":53,"Duration":94295,"SoundDuration":94295,"Delta":276384013},{"NoteNumber":81,"Velocity":45,"Duration":94295,"SoundDuration":94295,"Delta":276384013},{"NoteNumber":88,"Velocity":39,"Duration":95294,"SoundDuration":95294,"Delta":276478309},{"NoteNumber":90,"Velocity":47,"Duration":95294,"SoundDuration":95294,"Delta":276478309},{"NoteNumber":93,"Velocity":39,"Duration":96311,"SoundDuration":96311,"Delta":276573603},{"NoteNumber":95,"Velocity":47,"Duration":96311,"SoundDuration":96311,"Delta":276573603},{"NoteNumber":95,"Velocity":58,"Duration":97352,"SoundDuration":97352,"Delta":276669915},{"NoteNumber":93,"Velocity":48,"Duration":97352,"SoundDuration":97352,"Delta":276669915},{"NoteNumber":61,"Velocity":40,"Duration":429780,"SoundDuration":429780,"Delta":276669915},{"NoteNumber":73,"Velocity":53,"Duration":429780,"SoundDuration":429780,"Delta":276669915},{"NoteNumber":88,"Velocity":39,"Duration":97358,"SoundDuration":97358,"Delta":276767267},{"NoteNumber":90,"Velocity":48,"Duration":97358,"SoundDuration":97358,"Delta":276767267},{"NoteNumber":81,"Velocity":39,"Duration":83281,"SoundDuration":83281,"Delta":276864626},{"NoteNumber":83,"Velocity":48,"Duration":83281,"SoundDuration":83281,"Delta":276864626},{"NoteNumber":83,"Velocity":51,"Duration":93318,"SoundDuration":93318,"Delta":276959718},{"NoteNumber":81,"Velocity":43,"Duration":93318,"SoundDuration":93318,"Delta":276959718},{"NoteNumber":76,"Velocity":34,"Duration":93318,"SoundDuration":93318,"Delta":277053036},{"NoteNumber":78,"Velocity":42,"Duration":93318,"SoundDuration":93318,"Delta":277053036},{"NoteNumber":69,"Velocity":34,"Duration":81653,"SoundDuration":81653,"Delta":277146355},{"NoteNumber":71,"Velocity":42,"Duration":81653,"SoundDuration":81653,"Delta":277146355},{"NoteNumber":71,"Velocity":51,"Duration":90678,"SoundDuration":90678,"Delta":277239673},{"NoteNumber":69,"Velocity":43,"Duration":90678,"SoundDuration":90678,"Delta":277239673},{"NoteNumber":66,"Velocity":46,"Duration":203212,"SoundDuration":203212,"Delta":277239673},{"NoteNumber":78,"Velocity":60,"Duration":203212,"SoundDuration":203212,"Delta":277239673},{"NoteNumber":76,"Velocity":34,"Duration":90135,"SoundDuration":90135,"Delta":277330351},{"NoteNumber":78,"Velocity":43,"Duration":90135,"SoundDuration":90135,"Delta":277330351},{"NoteNumber":81,"Velocity":36,"Duration":78266,"SoundDuration":78266,"Delta":277420487},{"NoteNumber":83,"Velocity":44,"Duration":78266,"SoundDuration":78266,"Delta":277420487},{"NoteNumber":83,"Velocity":57,"Duration":89245,"SoundDuration":89245,"Delta":277509908},{"NoteNumber":81,"Velocity":48,"Duration":89245,"SoundDuration":89245,"Delta":277509908},{"NoteNumber":63,"Velocity":43,"Duration":201067,"SoundDuration":201067,"Delta":277509908},{"NoteNumber":75,"Velocity":56,"Duration":201067,"SoundDuration":201067,"Delta":277509908},{"NoteNumber":88,"Velocity":42,"Duration":89421,"SoundDuration":89421,"Delta":277599154},{"NoteNumber":90,"Velocity":49,"Duration":89421,"SoundDuration":89421,"Delta":277599154},{"NoteNumber":93,"Velocity":42,"Duration":89597,"SoundDuration":89597,"Delta":277688576},{"NoteNumber":95,"Velocity":50,"Duration":89597,"SoundDuration":89597,"Delta":277688576},{"NoteNumber":95,"Velocity":63,"Duration":91635,"SoundDuration":91635,"Delta":277778174},{"NoteNumber":93,"Velocity":52,"Duration":91635,"SoundDuration":91635,"Delta":277778174},{"NoteNumber":61,"Velocity":44,"Duration":415938,"SoundDuration":415938,"Delta":277778174},{"NoteNumber":73,"Velocity":57,"Duration":415938,"SoundDuration":415938,"Delta":277778174},{"NoteNumber":88,"Velocity":43,"Duration":93123,"SoundDuration":93123,"Delta":277869809},{"NoteNumber":90,"Velocity":50,"Duration":93123,"SoundDuration":93123,"Delta":277869809},{"NoteNumber":81,"Velocity":43,"Duration":81170,"SoundDuration":81170,"Delta":277962932},{"NoteNumber":83,"Velocity":50,"Duration":81170,"SoundDuration":81170,"Delta":277962932},{"NoteNumber":83,"Velocity":54,"Duration":92357,"SoundDuration":92357,"Delta":278055671},{"NoteNumber":81,"Velocity":45,"Duration":92357,"SoundDuration":92357,"Delta":278055671},{"NoteNumber":76,"Velocity":36,"Duration":91979,"SoundDuration":91979,"Delta":278148029},{"NoteNumber":78,"Velocity":44,"Duration":91979,"SoundDuration":91979,"Delta":278148029},{"NoteNumber":69,"Velocity":35,"Duration":80177,"SoundDuration":80177,"Delta":278240009},{"NoteNumber":71,"Velocity":44,"Duration":80177,"SoundDuration":80177,"Delta":278240009},{"NoteNumber":71,"Velocity":52,"Duration":91049,"SoundDuration":91049,"Delta":278331613},{"NoteNumber":69,"Velocity":44,"Duration":91049,"SoundDuration":91049,"Delta":278331613},{"NoteNumber":56,"Velocity":39,"Duration":414218,"SoundDuration":414218,"Delta":278331613},{"NoteNumber":68,"Velocity":51,"Duration":414218,"SoundDuration":414218,"Delta":278331613},{"NoteNumber":76,"Velocity":35,"Duration":91604,"SoundDuration":91604,"Delta":278422663},{"NoteNumber":78,"Velocity":44,"Duration":91604,"SoundDuration":91604,"Delta":278422663},{"NoteNumber":81,"Velocity":36,"Duration":80645,"SoundDuration":80645,"Delta":278514268},{"NoteNumber":83,"Velocity":45,"Duration":80645,"SoundDuration":80645,"Delta":278514268},{"NoteNumber":83,"Velocity":57,"Duration":92738,"SoundDuration":92738,"Delta":278606434},{"NoteNumber":81,"Velocity":49,"Duration":92738,"SoundDuration":92738,"Delta":278606434},{"NoteNumber":88,"Velocity":42,"Duration":93318,"SoundDuration":93318,"Delta":278699173},{"NoteNumber":90,"Velocity":49,"Duration":93318,"SoundDuration":93318,"Delta":278699173},{"NoteNumber":93,"Velocity":42,"Duration":93901,"SoundDuration":93901,"Delta":278792491},{"NoteNumber":95,"Velocity":49,"Duration":93901,"SoundDuration":93901,"Delta":278792491},{"NoteNumber":95,"Velocity":61,"Duration":94692,"SoundDuration":94692,"Delta":278886393},{"NoteNumber":93,"Velocity":51,"Duration":94692,"SoundDuration":94692,"Delta":278886393},{"NoteNumber":56,"Velocity":36,"Duration":569166,"SoundDuration":569166,"Delta":278886393},{"NoteNumber":68,"Velocity":48,"Duration":569166,"SoundDuration":569166,"Delta":278886393},{"NoteNumber":88,"Velocity":42,"Duration":94894,"SoundDuration":94894,"Delta":278981086},{"NoteNumber":90,"Velocity":49,"Duration":94894,"SoundDuration":94894,"Delta":278981086},{"NoteNumber":81,"Velocity":42,"Duration":83032,"SoundDuration":83032,"Delta":279075980},{"NoteNumber":83,"Velocity":49,"Duration":83032,"SoundDuration":83032,"Delta":279075980},{"NoteNumber":83,"Velocity":53,"Duration":94894,"SoundDuration":94894,"Delta":279170875},{"NoteNumber":81,"Velocity":44,"Duration":94894,"SoundDuration":94894,"Delta":279170875},{"NoteNumber":76,"Velocity":35,"Duration":94894,"SoundDuration":94894,"Delta":279265770},{"NoteNumber":78,"Velocity":43,"Duration":94894,"SoundDuration":94894,"Delta":279265770},{"NoteNumber":69,"Velocity":35,"Duration":83032,"SoundDuration":83032,"Delta":279360664},{"NoteNumber":71,"Velocity":43,"Duration":83032,"SoundDuration":83032,"Delta":279360664},{"NoteNumber":71,"Velocity":52,"Duration":94894,"SoundDuration":94894,"Delta":279455559},{"NoteNumber":69,"Velocity":43,"Duration":94894,"SoundDuration":94894,"Delta":279455559},{"NoteNumber":54,"Velocity":35,"Duration":569367,"SoundDuration":569367,"Delta":279455559},{"NoteNumber":66,"Velocity":45,"Duration":569367,"SoundDuration":569367,"Delta":279455559},{"NoteNumber":76,"Velocity":35,"Duration":94894,"SoundDuration":94894,"Delta":279550454},{"NoteNumber":78,"Velocity":43,"Duration":94894,"SoundDuration":94894,"Delta":279550454},{"NoteNumber":81,"Velocity":36,"Duration":83032,"SoundDuration":83032,"Delta":279645348},{"NoteNumber":83,"Velocity":44,"Duration":83032,"SoundDuration":83032,"Delta":279645348},{"NoteNumber":83,"Velocity":56,"Duration":94894,"SoundDuration":94894,"Delta":279740243},{"NoteNumber":81,"Velocity":47,"Duration":94894,"SoundDuration":94894,"Delta":279740243},{"NoteNumber":88,"Velocity":40,"Duration":94894,"SoundDuration":94894,"Delta":279835138},{"NoteNumber":90,"Velocity":49,"Duration":94894,"SoundDuration":94894,"Delta":279835138},{"NoteNumber":93,"Velocity":40,"Duration":83032,"SoundDuration":83032,"Delta":279930032},{"NoteNumber":95,"Velocity":49,"Duration":83032,"SoundDuration":83032,"Delta":279930032},{"NoteNumber":93,"Velocity":57,"Duration":70422,"SoundDuration":70422,"Delta":280024927},{"NoteNumber":64,"Velocity":53,"Duration":563379,"SoundDuration":563379,"Delta":280024927},{"NoteNumber":45,"Velocity":29,"Duration":1682831,"SoundDuration":1682831,"Delta":280024927},{"NoteNumber":52,"Velocity":29,"Duration":1682831,"SoundDuration":1682831,"Delta":280024927},{"NoteNumber":56,"Velocity":29,"Duration":1126400,"SoundDuration":1126400,"Delta":280024927},{"NoteNumber":57,"Velocity":29,"Duration":1126400,"SoundDuration":1126400,"Delta":280024927},{"NoteNumber":61,"Velocity":35,"Duration":1126400,"SoundDuration":1126400,"Delta":280024927},{"NoteNumber":90,"Velocity":51,"Duration":70422,"SoundDuration":70422,"Delta":280095349},{"NoteNumber":88,"Velocity":50,"Duration":70422,"SoundDuration":70422,"Delta":280165772},{"NoteNumber":85,"Velocity":49,"Duration":70422,"SoundDuration":70422,"Delta":280236194},{"NoteNumber":81,"Velocity":49,"Duration":70422,"SoundDuration":70422,"Delta":280306617},{"NoteNumber":78,"Velocity":48,"Duration":70422,"SoundDuration":70422,"Delta":280377039},{"NoteNumber":76,"Velocity":47,"Duration":70422,"SoundDuration":70422,"Delta":280447462},{"NoteNumber":73,"Velocity":46,"Duration":70422,"SoundDuration":70422,"Delta":280517884},{"NoteNumber":69,"Velocity":46,"Duration":69124,"SoundDuration":69124,"Delta":280588307},{"NoteNumber":66,"Velocity":47,"Duration":276497,"SoundDuration":276497,"Delta":280588307},{"NoteNumber":73,"Velocity":46,"Duration":69124,"SoundDuration":69124,"Delta":280657431},{"NoteNumber":76,"Velocity":47,"Duration":69124,"SoundDuration":69124,"Delta":280726556},{"NoteNumber":78,"Velocity":49,"Duration":69124,"SoundDuration":69124,"Delta":280795680},{"NoteNumber":81,"Velocity":50,"Duration":71770,"SoundDuration":71770,"Delta":280864804},{"NoteNumber":64,"Velocity":47,"Duration":286522,"SoundDuration":286522,"Delta":280864804},{"NoteNumber":85,"Velocity":51,"Duration":71770,"SoundDuration":71770,"Delta":280936575},{"NoteNumber":88,"Velocity":53,"Duration":71770,"SoundDuration":71770,"Delta":281008345},{"NoteNumber":90,"Velocity":54,"Duration":71211,"SoundDuration":71211,"Delta":281080116},{"NoteNumber":93,"Velocity":57,"Duration":70093,"SoundDuration":70093,"Delta":281151327},{"NoteNumber":61,"Velocity":53,"Duration":1124914,"SoundDuration":1124914,"Delta":281151327},{"NoteNumber":54,"Velocity":28,"Duration":1124914,"SoundDuration":1124914,"Delta":281151327},{"NoteNumber":57,"Velocity":34,"Duration":1124914,"SoundDuration":1124914,"Delta":281151327},{"NoteNumber":90,"Velocity":51,"Duration":69984,"SoundDuration":69984,"Delta":281221421},{"NoteNumber":88,"Velocity":50,"Duration":69767,"SoundDuration":69767,"Delta":281291405},{"NoteNumber":85,"Velocity":49,"Duration":69659,"SoundDuration":69659,"Delta":281361173},{"NoteNumber":81,"Velocity":49,"Duration":69444,"SoundDuration":69444,"Delta":281430833},{"NoteNumber":78,"Velocity":48,"Duration":69337,"SoundDuration":69337,"Delta":281500277},{"NoteNumber":76,"Velocity":47,"Duration":69124,"SoundDuration":69124,"Delta":281569615},{"NoteNumber":73,"Velocity":46,"Duration":69018,"SoundDuration":69018,"Delta":281638739},{"NoteNumber":69,"Velocity":46,"Duration":69018,"SoundDuration":69018,"Delta":281707758},{"NoteNumber":45,"Velocity":37,"Duration":2508595,"SoundDuration":2508595,"Delta":281707758},{"NoteNumber":52,"Velocity":44,"Duration":2508595,"SoundDuration":2508595,"Delta":281707758},{"NoteNumber":73,"Velocity":46,"Duration":69552,"SoundDuration":69552,"Delta":281776777},{"NoteNumber":76,"Velocity":47,"Duration":70203,"SoundDuration":70203,"Delta":281846329},{"NoteNumber":78,"Velocity":49,"Duration":70755,"SoundDuration":70755,"Delta":281916532},{"NoteNumber":81,"Velocity":50,"Duration":71315,"SoundDuration":71315,"Delta":281987288},{"NoteNumber":85,"Velocity":51,"Duration":71885,"SoundDuration":71885,"Delta":282058604},{"NoteNumber":88,"Velocity":53,"Duration":72581,"SoundDuration":72581,"Delta":282130489},{"NoteNumber":90,"Velocity":54,"Duration":73171,"SoundDuration":73171,"Delta":282203070},{"NoteNumber":93,"Velocity":63,"Duration":70203,"SoundDuration":70203,"Delta":282276242},{"NoteNumber":64,"Velocity":59,"Duration":558810,"SoundDuration":558810,"Delta":282276242},{"NoteNumber":56,"Velocity":33,"Duration":1109375,"SoundDuration":1109375,"Delta":282276242},{"NoteNumber":57,"Velocity":33,"Duration":1109375,"SoundDuration":1109375,"Delta":282276242},{"NoteNumber":61,"Velocity":39,"Duration":1109375,"SoundDuration":1109375,"Delta":282276242},{"NoteNumber":90,"Velocity":56,"Duration":70422,"SoundDuration":70422,"Delta":282346445},{"NoteNumber":88,"Velocity":54,"Duration":70203,"SoundDuration":70203,"Delta":282416868},{"NoteNumber":85,"Velocity":53,"Duration":70093,"SoundDuration":70093,"Delta":282487071},{"NoteNumber":81,"Velocity":53,"Duration":69767,"SoundDuration":69767,"Delta":282557164},{"NoteNumber":78,"Velocity":52,"Duration":69552,"SoundDuration":69552,"Delta":282626932},{"NoteNumber":76,"Velocity":51,"Duration":69444,"SoundDuration":69444,"Delta":282696484},{"NoteNumber":73,"Velocity":50,"Duration":69124,"SoundDuration":69124,"Delta":282765928},{"NoteNumber":69,"Velocity":50,"Duration":68913,"SoundDuration":68913,"Delta":282835053},{"NoteNumber":66,"Velocity":51,"Duration":275335,"SoundDuration":275335,"Delta":282835053},{"NoteNumber":73,"Velocity":50,"Duration":68807,"SoundDuration":68807,"Delta":282903966},{"NoteNumber":76,"Velocity":51,"Duration":68807,"SoundDuration":68807,"Delta":282972773},{"NoteNumber":78,"Velocity":53,"Duration":68807,"SoundDuration":68807,"Delta":283041581},{"NoteNumber":81,"Velocity":54,"Duration":68807,"SoundDuration":68807,"Delta":283110388},{"NoteNumber":64,"Velocity":51,"Duration":275229,"SoundDuration":275229,"Delta":283110388},{"NoteNumber":85,"Velocity":56,"Duration":68807,"SoundDuration":68807,"Delta":283179195},{"NoteNumber":88,"Velocity":58,"Duration":68807,"SoundDuration":68807,"Delta":283248003},{"NoteNumber":90,"Velocity":59,"Duration":68807,"SoundDuration":68807,"Delta":283316810},{"NoteNumber":93,"Velocity":63,"Duration":68807,"SoundDuration":68807,"Delta":283385617},{"NoteNumber":61,"Velocity":58,"Duration":275229,"SoundDuration":275229,"Delta":283385617},{"NoteNumber":54,"Velocity":31,"Duration":1117946,"SoundDuration":1117946,"Delta":283385617},{"NoteNumber":57,"Velocity":37,"Duration":1117946,"SoundDuration":1117946,"Delta":283385617},{"NoteNumber":90,"Velocity":56,"Duration":68807,"SoundDuration":68807,"Delta":283454425},{"NoteNumber":88,"Velocity":54,"Duration":68807,"SoundDuration":68807,"Delta":283523232},{"NoteNumber":85,"Velocity":53,"Duration":68807,"SoundDuration":68807,"Delta":283592040},{"NoteNumber":81,"Velocity":53,"Duration":68807,"SoundDuration":68807,"Delta":283660847},{"NoteNumber":59,"Velocity":51,"Duration":275229,"SoundDuration":275229,"Delta":283660847},{"NoteNumber":78,"Velocity":52,"Duration":68807,"SoundDuration":68807,"Delta":283729654},{"NoteNumber":76,"Velocity":51,"Duration":68807,"SoundDuration":68807,"Delta":283798462},{"NoteNumber":73,"Velocity":50,"Duration":68807,"SoundDuration":68807,"Delta":283867269},{"NoteNumber":69,"Velocity":50,"Duration":69444,"SoundDuration":69444,"Delta":283936076},{"NoteNumber":61,"Velocity":51,"Duration":567487,"SoundDuration":567487,"Delta":283936076},{"NoteNumber":73,"Velocity":50,"Duration":69876,"SoundDuration":69876,"Delta":284005521},{"NoteNumber":76,"Velocity":51,"Duration":70312,"SoundDuration":70312,"Delta":284075397},{"NoteNumber":78,"Velocity":53,"Duration":70644,"SoundDuration":70644,"Delta":284145710},{"NoteNumber":81,"Velocity":54,"Duration":71202,"SoundDuration":71202,"Delta":284216354},{"NoteNumber":45,"Velocity":40,"Duration":2536357,"SoundDuration":2536357,"Delta":284216354},{"NoteNumber":52,"Velocity":48,"Duration":2536357,"SoundDuration":2536357,"Delta":284216354},{"NoteNumber":85,"Velocity":56,"Duration":71542,"SoundDuration":71542,"Delta":284287557},{"NoteNumber":88,"Velocity":58,"Duration":72000,"SoundDuration":72000,"Delta":284359099},{"NoteNumber":90,"Velocity":59,"Duration":72463,"SoundDuration":72463,"Delta":284431100},{"NoteNumber":93,"Velocity":65,"Duration":72347,"SoundDuration":72347,"Delta":284503563},{"NoteNumber":64,"Velocity":53,"Duration":567697,"SoundDuration":567697,"Delta":284503563},{"NoteNumber":56,"Velocity":32,"Duration":1118580,"SoundDuration":1118580,"Delta":284503563},{"NoteNumber":57,"Velocity":32,"Duration":1118580,"SoundDuration":1118580,"Delta":284503563},{"NoteNumber":61,"Velocity":39,"Duration":1118580,"SoundDuration":1118580,"Delta":284503563},{"NoteNumber":90,"Velocity":51,"Duration":72000,"SoundDuration":72000,"Delta":284575911},{"NoteNumber":88,"Velocity":50,"Duration":71542,"SoundDuration":71542,"Delta":284647911},{"NoteNumber":85,"Velocity":49,"Duration":71202,"SoundDuration":71202,"Delta":284719454},{"NoteNumber":81,"Velocity":49,"Duration":70754,"SoundDuration":70754,"Delta":284790657},{"NoteNumber":78,"Velocity":48,"Duration":70312,"SoundDuration":70312,"Delta":284861412},{"NoteNumber":76,"Velocity":47,"Duration":69984,"SoundDuration":69984,"Delta":284931724},{"NoteNumber":73,"Velocity":46,"Duration":69552,"SoundDuration":69552,"Delta":285001709},{"NoteNumber":69,"Velocity":46,"Duration":78405,"SoundDuration":78405,"Delta":285071261},{"NoteNumber":66,"Velocity":47,"Duration":550882,"SoundDuration":550882,"Delta":285071261},{"NoteNumber":73,"Velocity":46,"Duration":77981,"SoundDuration":77981,"Delta":285149667},{"NoteNumber":76,"Velocity":47,"Duration":77981,"SoundDuration":77981,"Delta":285227649},{"NoteNumber":78,"Velocity":49,"Duration":77981,"SoundDuration":77981,"Delta":285305630},{"NoteNumber":81,"Velocity":50,"Duration":77981,"SoundDuration":77981,"Delta":285383612},{"NoteNumber":85,"Velocity":51,"Duration":68807,"SoundDuration":68807,"Delta":285461594},{"NoteNumber":88,"Velocity":53,"Duration":82568,"SoundDuration":82568,"Delta":285539575},{"NoteNumber":90,"Velocity":65,"Duration":68807,"SoundDuration":68807,"Delta":285622144},{"NoteNumber":64,"Velocity":51,"Duration":550458,"SoundDuration":550458,"Delta":285622144},{"NoteNumber":54,"Velocity":28,"Duration":1130567,"SoundDuration":1130567,"Delta":285622144},{"NoteNumber":57,"Velocity":34,"Duration":1130567,"SoundDuration":1130567,"Delta":285622144},{"NoteNumber":88,"Velocity":51,"Duration":68807,"SoundDuration":68807,"Delta":285690952},{"NoteNumber":85,"Velocity":50,"Duration":68807,"SoundDuration":68807,"Delta":285759759},{"NoteNumber":81,"Velocity":49,"Duration":68807,"SoundDuration":68807,"Delta":285828566},{"NoteNumber":78,"Velocity":49,"Duration":68807,"SoundDuration":68807,"Delta":285897374},{"NoteNumber":76,"Velocity":48,"Duration":68807,"SoundDuration":68807,"Delta":285966181},{"NoteNumber":73,"Velocity":47,"Duration":68807,"SoundDuration":68807,"Delta":286034988},{"NoteNumber":69,"Velocity":46,"Duration":68807,"SoundDuration":68807,"Delta":286103796},{"NoteNumber":66,"Velocity":46,"Duration":79069,"SoundDuration":79069,"Delta":286172603},{"NoteNumber":61,"Velocity":47,"Duration":580108,"SoundDuration":580108,"Delta":286172603},{"NoteNumber":69,"Velocity":46,"Duration":79265,"SoundDuration":79265,"Delta":286251673},{"NoteNumber":73,"Velocity":47,"Duration":79461,"SoundDuration":79461,"Delta":286330938},{"NoteNumber":76,"Velocity":49,"Duration":79812,"SoundDuration":79812,"Delta":286410400},{"NoteNumber":78,"Velocity":50,"Duration":80603,"SoundDuration":80603,"Delta":286490212},{"NoteNumber":81,"Velocity":51,"Duration":76174,"SoundDuration":76174,"Delta":286570815},{"NoteNumber":85,"Velocity":53,"Duration":95026,"SoundDuration":95026,"Delta":286657685},{"NoteNumber":88,"Velocity":65,"Duration":72115,"SoundDuration":72115,"Delta":286752711},{"NoteNumber":59,"Velocity":46,"Duration":1142125,"SoundDuration":1142125,"Delta":286752711},{"NoteNumber":44,"Velocity":32,"Duration":1142125,"SoundDuration":1142125,"Delta":286752711},{"NoteNumber":52,"Velocity":32,"Duration":1142125,"SoundDuration":1142125,"Delta":286752711},{"NoteNumber":57,"Velocity":39,"Duration":1142125,"SoundDuration":1142125,"Delta":286752711},{"NoteNumber":85,"Velocity":51,"Duration":72115,"SoundDuration":72115,"Delta":286824827},{"NoteNumber":81,"Velocity":50,"Duration":72115,"SoundDuration":72115,"Delta":286896942},{"NoteNumber":78,"Velocity":49,"Duration":71770,"SoundDuration":71770,"Delta":286969058},{"NoteNumber":76,"Velocity":49,"Duration":71770,"SoundDuration":71770,"Delta":287040828},{"NoteNumber":73,"Velocity":48,"Duration":71770,"SoundDuration":71770,"Delta":287112598},{"NoteNumber":69,"Velocity":47,"Duration":71542,"SoundDuration":71542,"Delta":287184369},{"NoteNumber":66,"Velocity":46,"Duration":71428,"SoundDuration":71428,"Delta":287255911},{"NoteNumber":64,"Velocity":46,"Duration":80907,"SoundDuration":80907,"Delta":287327340},{"NoteNumber":66,"Velocity":46,"Duration":80568,"SoundDuration":80568,"Delta":287408247},{"NoteNumber":69,"Velocity":47,"Duration":80568,"SoundDuration":80568,"Delta":287488816},{"NoteNumber":73,"Velocity":49,"Duration":80501,"SoundDuration":80501,"Delta":287569385},{"NoteNumber":76,"Velocity":50,"Duration":80188,"SoundDuration":80188,"Delta":287649886},{"NoteNumber":78,"Velocity":51,"Duration":70754,"SoundDuration":70754,"Delta":287730075},{"NoteNumber":81,"Velocity":53,"Duration":84573,"SoundDuration":84573,"Delta":287810264},{"NoteNumber":85,"Velocity":64,"Duration":70422,"SoundDuration":70422,"Delta":287894837},{"NoteNumber":61,"Velocity":44,"Duration":1145023,"SoundDuration":1145023,"Delta":287894837},{"NoteNumber":42,"Velocity":28,"Duration":1071494,"SoundDuration":1071494,"Delta":287894837},{"NoteNumber":52,"Velocity":28,"Duration":1071494,"SoundDuration":1071494,"Delta":287894837},{"NoteNumber":57,"Velocity":34,"Duration":1071494,"SoundDuration":1071494,"Delta":287894837},{"NoteNumber":81,"Velocity":51,"Duration":70422,"SoundDuration":70422,"Delta":287965260},{"NoteNumber":78,"Velocity":50,"Duration":70643,"SoundDuration":70643,"Delta":288035682},{"NoteNumber":76,"Velocity":49,"Duration":70754,"SoundDuration":70754,"Delta":288106326},{"NoteNumber":73,"Velocity":49,"Duration":70754,"SoundDuration":70754,"Delta":288177081},{"NoteNumber":69,"Velocity":48,"Duration":71090,"SoundDuration":71090,"Delta":288247836},{"NoteNumber":66,"Velocity":47,"Duration":71089,"SoundDuration":71089,"Delta":288318926},{"NoteNumber":64,"Velocity":46,"Duration":71202,"SoundDuration":71202,"Delta":288390016},{"NoteNumber":61,"Velocity":46,"Duration":71428,"SoundDuration":71428,"Delta":288461218},{"NoteNumber":64,"Velocity":46,"Duration":71428,"SoundDuration":71428,"Delta":288532647},{"NoteNumber":66,"Velocity":47,"Duration":71656,"SoundDuration":71656,"Delta":288604076},{"NoteNumber":69,"Velocity":49,"Duration":71770,"SoundDuration":71770,"Delta":288675732},{"NoteNumber":73,"Velocity":50,"Duration":71770,"SoundDuration":71770,"Delta":288747502},{"NoteNumber":76,"Velocity":51,"Duration":73529,"SoundDuration":73529,"Delta":288819273},{"NoteNumber":78,"Velocity":53,"Duration":73529,"SoundDuration":73529,"Delta":288892802},{"NoteNumber":81,"Velocity":54,"Duration":73529,"SoundDuration":73529,"Delta":288966332},{"NoteNumber":40,"Velocity":30,"Duration":11804631,"SoundDuration":11804631,"Delta":288966332},{"NoteNumber":47,"Velocity":34,"Duration":11804631,"SoundDuration":11804631,"Delta":288966332},{"NoteNumber":83,"Velocity":64,"Duration":73290,"SoundDuration":73290,"Delta":289039861},{"NoteNumber":61,"Velocity":47,"Duration":146461,"SoundDuration":146461,"Delta":289039861},{"NoteNumber":73,"Velocity":55,"Duration":146461,"SoundDuration":146461,"Delta":289039861},{"NoteNumber":80,"Velocity":51,"Duration":73170,"SoundDuration":73170,"Delta":289113151},{"NoteNumber":76,"Velocity":50,"Duration":73170,"SoundDuration":73170,"Delta":289186322},{"NoteNumber":73,"Velocity":49,"Duration":72815,"SoundDuration":72815,"Delta":289259493},{"NoteNumber":71,"Velocity":49,"Duration":72815,"SoundDuration":72815,"Delta":289332308},{"NoteNumber":68,"Velocity":48,"Duration":72815,"SoundDuration":72815,"Delta":289405124},{"NoteNumber":64,"Velocity":47,"Duration":72580,"SoundDuration":72580,"Delta":289477939},{"NoteNumber":61,"Velocity":46,"Duration":72463,"SoundDuration":72463,"Delta":289550520},{"NoteNumber":59,"Velocity":46,"Duration":72463,"SoundDuration":72463,"Delta":289622984},{"NoteNumber":63,"Velocity":39,"Duration":144579,"SoundDuration":144579,"Delta":289622984},{"NoteNumber":75,"Velocity":50,"Duration":144579,"SoundDuration":144579,"Delta":289622984},{"NoteNumber":61,"Velocity":46,"Duration":72115,"SoundDuration":72115,"Delta":289695448},{"NoteNumber":64,"Velocity":47,"Duration":72115,"SoundDuration":72115,"Delta":289767563},{"NoteNumber":68,"Velocity":49,"Duration":72115,"SoundDuration":72115,"Delta":289839679},{"NoteNumber":71,"Velocity":50,"Duration":71885,"SoundDuration":71885,"Delta":289911794},{"NoteNumber":73,"Velocity":51,"Duration":71770,"SoundDuration":71770,"Delta":289983679},{"NoteNumber":76,"Velocity":53,"Duration":71770,"SoundDuration":71770,"Delta":290055450},{"NoteNumber":80,"Velocity":54,"Duration":71428,"SoundDuration":71428,"Delta":290127220},{"NoteNumber":83,"Velocity":64,"Duration":71428,"SoundDuration":71428,"Delta":290198649},{"NoteNumber":56,"Velocity":38,"Duration":143199,"SoundDuration":143199,"Delta":290198649},{"NoteNumber":68,"Velocity":53,"Duration":143199,"SoundDuration":143199,"Delta":290198649},{"NoteNumber":80,"Velocity":51,"Duration":71770,"SoundDuration":71770,"Delta":290270077},{"NoteNumber":76,"Velocity":50,"Duration":72000,"SoundDuration":72000,"Delta":290341848},{"NoteNumber":73,"Velocity":49,"Duration":72231,"SoundDuration":72231,"Delta":290413848},{"NoteNumber":71,"Velocity":49,"Duration":72463,"SoundDuration":72463,"Delta":290486080},{"NoteNumber":68,"Velocity":48,"Duration":72581,"SoundDuration":72581,"Delta":290558543},{"NoteNumber":64,"Velocity":47,"Duration":72815,"SoundDuration":72815,"Delta":290631124},{"NoteNumber":61,"Velocity":46,"Duration":73170,"SoundDuration":73170,"Delta":290703940},{"NoteNumber":59,"Velocity":46,"Duration":73409,"SoundDuration":73409,"Delta":290777111},{"NoteNumber":71,"Velocity":50,"Duration":146939,"SoundDuration":146939,"Delta":290777111},{"NoteNumber":61,"Velocity":46,"Duration":73529,"SoundDuration":73529,"Delta":290850520},{"NoteNumber":64,"Velocity":47,"Duration":73770,"SoundDuration":73770,"Delta":290924050},{"NoteNumber":68,"Velocity":49,"Duration":74013,"SoundDuration":74013,"Delta":290997821},{"NoteNumber":71,"Velocity":50,"Duration":74257,"SoundDuration":74257,"Delta":291071834},{"NoteNumber":73,"Velocity":51,"Duration":74626,"SoundDuration":74626,"Delta":291146092},{"NoteNumber":76,"Velocity":53,"Duration":74875,"SoundDuration":74875,"Delta":291220718},{"NoteNumber":80,"Velocity":54,"Duration":75252,"SoundDuration":75252,"Delta":291295594},{"NoteNumber":83,"Velocity":64,"Duration":75757,"SoundDuration":75757,"Delta":291370847},{"NoteNumber":61,"Velocity":34,"Duration":151134,"SoundDuration":151134,"Delta":291370847},{"NoteNumber":73,"Velocity":55,"Duration":151134,"SoundDuration":151134,"Delta":291370847},{"NoteNumber":80,"Velocity":51,"Duration":75376,"SoundDuration":75376,"Delta":291446604},{"NoteNumber":76,"Velocity":50,"Duration":75125,"SoundDuration":75125,"Delta":291521981},{"NoteNumber":73,"Velocity":49,"Duration":74875,"SoundDuration":74875,"Delta":291597107},{"NoteNumber":71,"Velocity":49,"Duration":74626,"SoundDuration":74626,"Delta":291671982},{"NoteNumber":68,"Velocity":48,"Duration":74257,"SoundDuration":74257,"Delta":291746609},{"NoteNumber":64,"Velocity":47,"Duration":74013,"SoundDuration":74013,"Delta":291820867},{"NoteNumber":61,"Velocity":46,"Duration":73770,"SoundDuration":73770,"Delta":291894880},{"NoteNumber":59,"Velocity":46,"Duration":73290,"SoundDuration":73290,"Delta":291968651},{"NoteNumber":63,"Velocity":38,"Duration":146342,"SoundDuration":146342,"Delta":291968651},{"NoteNumber":75,"Velocity":51,"Duration":146342,"SoundDuration":146342,"Delta":291968651},{"NoteNumber":61,"Velocity":46,"Duration":73052,"SoundDuration":73052,"Delta":292041941},{"NoteNumber":64,"Velocity":47,"Duration":72815,"SoundDuration":72815,"Delta":292114994},{"NoteNumber":68,"Velocity":49,"Duration":72463,"SoundDuration":72463,"Delta":292187809},{"NoteNumber":71,"Velocity":50,"Duration":72231,"SoundDuration":72231,"Delta":292260273},{"NoteNumber":73,"Velocity":51,"Duration":72000,"SoundDuration":72000,"Delta":292332504},{"NoteNumber":76,"Velocity":53,"Duration":71770,"SoundDuration":71770,"Delta":292404505},{"NoteNumber":80,"Velocity":54,"Duration":71315,"SoundDuration":71315,"Delta":292476275},{"NoteNumber":83,"Velocity":64,"Duration":71089,"SoundDuration":71089,"Delta":292547591},{"NoteNumber":56,"Velocity":37,"Duration":142292,"SoundDuration":142292,"Delta":292547591},{"NoteNumber":68,"Velocity":53,"Duration":142292,"SoundDuration":142292,"Delta":292547591},{"NoteNumber":80,"Velocity":51,"Duration":71202,"SoundDuration":71202,"Delta":292618681},{"NoteNumber":76,"Velocity":50,"Duration":71428,"SoundDuration":71428,"Delta":292689884},{"NoteNumber":73,"Velocity":49,"Duration":71770,"SoundDuration":71770,"Delta":292761312},{"NoteNumber":71,"Velocity":49,"Duration":72000,"SoundDuration":72000,"Delta":292833083},{"NoteNumber":68,"Velocity":48,"Duration":72115,"SoundDuration":72115,"Delta":292905083},{"NoteNumber":64,"Velocity":47,"Duration":72347,"SoundDuration":72347,"Delta":292977198},{"NoteNumber":61,"Velocity":46,"Duration":72581,"SoundDuration":72581,"Delta":293049546},{"NoteNumber":59,"Velocity":46,"Duration":72815,"SoundDuration":72815,"Delta":293122127},{"NoteNumber":71,"Velocity":51,"Duration":145986,"SoundDuration":145986,"Delta":293122127},{"NoteNumber":61,"Velocity":46,"Duration":73170,"SoundDuration":73170,"Delta":293194943},{"NoteNumber":64,"Velocity":47,"Duration":73170,"SoundDuration":73170,"Delta":293268113},{"NoteNumber":68,"Velocity":49,"Duration":73529,"SoundDuration":73529,"Delta":293341284},{"NoteNumber":71,"Velocity":50,"Duration":73770,"SoundDuration":73770,"Delta":293414813},{"NoteNumber":73,"Velocity":51,"Duration":74013,"SoundDuration":74013,"Delta":293488584},{"NoteNumber":76,"Velocity":53,"Duration":74257,"SoundDuration":74257,"Delta":293562598},{"NoteNumber":80,"Velocity":54,"Duration":75003,"SoundDuration":75003,"Delta":293636855},{"NoteNumber":83,"Velocity":64,"Duration":75757,"SoundDuration":75757,"Delta":293711859},{"NoteNumber":61,"Velocity":40,"Duration":151388,"SoundDuration":151388,"Delta":293711859},{"NoteNumber":73,"Velocity":55,"Duration":151388,"SoundDuration":151388,"Delta":293711859},{"NoteNumber":80,"Velocity":51,"Duration":75630,"SoundDuration":75630,"Delta":293787617},{"NoteNumber":76,"Velocity":50,"Duration":75376,"SoundDuration":75376,"Delta":293863247},{"NoteNumber":73,"Velocity":49,"Duration":74999,"SoundDuration":74999,"Delta":293938624},{"NoteNumber":71,"Velocity":48,"Duration":74751,"SoundDuration":74751,"Delta":294013624},{"NoteNumber":68,"Velocity":47,"Duration":74626,"SoundDuration":74626,"Delta":294088376},{"NoteNumber":64,"Velocity":46,"Duration":74380,"SoundDuration":74380,"Delta":294163002},{"NoteNumber":61,"Velocity":45,"Duration":74135,"SoundDuration":74135,"Delta":294237383},{"NoteNumber":59,"Velocity":45,"Duration":73891,"SoundDuration":73891,"Delta":294311518},{"NoteNumber":63,"Velocity":38,"Duration":147421,"SoundDuration":147421,"Delta":294311518},{"NoteNumber":75,"Velocity":50,"Duration":147421,"SoundDuration":147421,"Delta":294311518},{"NoteNumber":61,"Velocity":45,"Duration":73529,"SoundDuration":73529,"Delta":294385410},{"NoteNumber":64,"Velocity":45,"Duration":73290,"SoundDuration":73290,"Delta":294458939},{"NoteNumber":68,"Velocity":47,"Duration":73170,"SoundDuration":73170,"Delta":294532230},{"NoteNumber":71,"Velocity":48,"Duration":72933,"SoundDuration":72933,"Delta":294605400},{"NoteNumber":73,"Velocity":49,"Duration":72698,"SoundDuration":72698,"Delta":294678334},{"NoteNumber":76,"Velocity":50,"Duration":72463,"SoundDuration":72463,"Delta":294751033},{"NoteNumber":80,"Velocity":51,"Duration":72115,"SoundDuration":72115,"Delta":294823496},{"NoteNumber":83,"Velocity":59,"Duration":71885,"SoundDuration":71885,"Delta":294895612},{"NoteNumber":56,"Velocity":33,"Duration":143655,"SoundDuration":143655,"Delta":294895612},{"NoteNumber":68,"Velocity":50,"Duration":143655,"SoundDuration":143655,"Delta":294895612},{"NoteNumber":80,"Velocity":48,"Duration":71770,"SoundDuration":71770,"Delta":294967497},{"NoteNumber":76,"Velocity":47,"Duration":71770,"SoundDuration":71770,"Delta":295039267},{"NoteNumber":73,"Velocity":46,"Duration":72115,"SoundDuration":72115,"Delta":295111038},{"NoteNumber":71,"Velocity":46,"Duration":72115,"SoundDuration":72115,"Delta":295183153},{"NoteNumber":68,"Velocity":45,"Duration":72463,"SoundDuration":72463,"Delta":295255269},{"NoteNumber":64,"Velocity":44,"Duration":72463,"SoundDuration":72463,"Delta":295327732},{"NoteNumber":61,"Velocity":42,"Duration":72815,"SoundDuration":72815,"Delta":295400196},{"NoteNumber":59,"Velocity":42,"Duration":72815,"SoundDuration":72815,"Delta":295473012},{"NoteNumber":71,"Velocity":47,"Duration":145749,"SoundDuration":145749,"Delta":295473012},{"NoteNumber":61,"Velocity":42,"Duration":72933,"SoundDuration":72933,"Delta":295545827},{"NoteNumber":64,"Velocity":43,"Duration":73170,"SoundDuration":73170,"Delta":295618761},{"NoteNumber":68,"Velocity":45,"Duration":73290,"SoundDuration":73290,"Delta":295691932},{"NoteNumber":71,"Velocity":46,"Duration":73529,"SoundDuration":73529,"Delta":295765222},{"NoteNumber":73,"Velocity":46,"Duration":73650,"SoundDuration":73650,"Delta":295838751},{"NoteNumber":76,"Velocity":48,"Duration":73891,"SoundDuration":73891,"Delta":295912402},{"NoteNumber":80,"Velocity":49,"Duration":74261,"SoundDuration":74261,"Delta":295986293},{"NoteNumber":83,"Velocity":56,"Duration":75000,"SoundDuration":75000,"Delta":296060554},{"NoteNumber":61,"Velocity":34,"Duration":149875,"SoundDuration":149875,"Delta":296060554},{"NoteNumber":73,"Velocity":49,"Duration":149875,"SoundDuration":149875,"Delta":296060554},{"NoteNumber":80,"Velocity":46,"Duration":74875,"SoundDuration":74875,"Delta":296135554},{"NoteNumber":76,"Velocity":45,"Duration":74626,"SoundDuration":74626,"Delta":296210430},{"NoteNumber":73,"Velocity":44,"Duration":74503,"SoundDuration":74503,"Delta":296285057},{"NoteNumber":71,"Velocity":43,"Duration":74257,"SoundDuration":74257,"Delta":296359560},{"NoteNumber":68,"Velocity":42,"Duration":74135,"SoundDuration":74135,"Delta":296433818},{"NoteNumber":64,"Velocity":42,"Duration":73891,"SoundDuration":73891,"Delta":296507953},{"NoteNumber":61,"Velocity":39,"Duration":73529,"SoundDuration":73529,"Delta":296581845},{"NoteNumber":59,"Velocity":39,"Duration":73529,"SoundDuration":73529,"Delta":296655374},{"NoteNumber":63,"Velocity":34,"Duration":146700,"SoundDuration":146700,"Delta":296655374},{"NoteNumber":75,"Velocity":46,"Duration":146700,"SoundDuration":146700,"Delta":296655374},{"NoteNumber":61,"Velocity":39,"Duration":73170,"SoundDuration":73170,"Delta":296728904},{"NoteNumber":64,"Velocity":40,"Duration":73170,"SoundDuration":73170,"Delta":296802074},{"NoteNumber":68,"Velocity":42,"Duration":72815,"SoundDuration":72815,"Delta":296875245},{"NoteNumber":71,"Velocity":43,"Duration":72815,"SoundDuration":72815,"Delta":296948061},{"NoteNumber":73,"Velocity":44,"Duration":72463,"SoundDuration":72463,"Delta":297020876},{"NoteNumber":76,"Velocity":45,"Duration":72231,"SoundDuration":72231,"Delta":297093340},{"NoteNumber":80,"Velocity":46,"Duration":72115,"SoundDuration":72115,"Delta":297165571},{"NoteNumber":83,"Velocity":53,"Duration":72115,"SoundDuration":72115,"Delta":297237687},{"NoteNumber":56,"Velocity":32,"Duration":144579,"SoundDuration":144579,"Delta":297237687},{"NoteNumber":68,"Velocity":47,"Duration":144579,"SoundDuration":144579,"Delta":297237687},{"NoteNumber":80,"Velocity":43,"Duration":72463,"SoundDuration":72463,"Delta":297309802},{"NoteNumber":76,"Velocity":42,"Duration":72463,"SoundDuration":72463,"Delta":297382266},{"NoteNumber":73,"Velocity":40,"Duration":72815,"SoundDuration":72815,"Delta":297454730},{"NoteNumber":71,"Velocity":40,"Duration":72815,"SoundDuration":72815,"Delta":297527545},{"NoteNumber":68,"Velocity":39,"Duration":73170,"SoundDuration":73170,"Delta":297600361},{"NoteNumber":64,"Velocity":38,"Duration":73170,"SoundDuration":73170,"Delta":297673531},{"NoteNumber":61,"Velocity":37,"Duration":73529,"SoundDuration":73529,"Delta":297746702},{"NoteNumber":59,"Velocity":37,"Duration":73529,"SoundDuration":73529,"Delta":297820232},{"NoteNumber":71,"Velocity":43,"Duration":147179,"SoundDuration":147179,"Delta":297820232},{"NoteNumber":61,"Velocity":37,"Duration":73650,"SoundDuration":73650,"Delta":297893761},{"NoteNumber":64,"Velocity":37,"Duration":73891,"SoundDuration":73891,"Delta":297967411},{"NoteNumber":68,"Velocity":39,"Duration":74013,"SoundDuration":74013,"Delta":298041303},{"NoteNumber":71,"Velocity":40,"Duration":74257,"SoundDuration":74257,"Delta":298115316},{"NoteNumber":73,"Velocity":40,"Duration":74380,"SoundDuration":74380,"Delta":298189574},{"NoteNumber":76,"Velocity":43,"Duration":74626,"SoundDuration":74626,"Delta":298263954},{"NoteNumber":80,"Velocity":44,"Duration":74751,"SoundDuration":74751,"Delta":298338581},{"NoteNumber":83,"Velocity":46,"Duration":75000,"SoundDuration":75000,"Delta":298413332},{"NoteNumber":80,"Velocity":46,"Duration":74875,"SoundDuration":74875,"Delta":298488332},{"NoteNumber":76,"Velocity":45,"Duration":74626,"SoundDuration":74626,"Delta":298563208},{"NoteNumber":73,"Velocity":44,"Duration":74257,"SoundDuration":74257,"Delta":298637835},{"NoteNumber":71,"Velocity":43,"Duration":74013,"SoundDuration":74013,"Delta":298712092},{"NoteNumber":68,"Velocity":42,"Duration":73891,"SoundDuration":73891,"Delta":298786106},{"NoteNumber":64,"Velocity":42,"Duration":73650,"SoundDuration":73650,"Delta":298859997},{"NoteNumber":61,"Velocity":40,"Duration":73409,"SoundDuration":73409,"Delta":298933647},{"NoteNumber":47,"Velocity":35,"Duration":73170,"SoundDuration":73170,"Delta":299007057},{"NoteNumber":49,"Velocity":37,"Duration":72815,"SoundDuration":72815,"Delta":299080228},{"NoteNumber":52,"Velocity":39,"Duration":72815,"SoundDuration":72815,"Delta":299153044},{"NoteNumber":56,"Velocity":42,"Duration":72463,"SoundDuration":72463,"Delta":299225859},{"NoteNumber":59,"Velocity":37,"Duration":72231,"SoundDuration":72231,"Delta":299298323},{"NoteNumber":61,"Velocity":38,"Duration":72000,"SoundDuration":72000,"Delta":299370554},{"NoteNumber":64,"Velocity":40,"Duration":71770,"SoundDuration":71770,"Delta":299442555},{"NoteNumber":68,"Velocity":42,"Duration":71428,"SoundDuration":71428,"Delta":299514325},{"NoteNumber":59,"Velocity":34,"Duration":71656,"SoundDuration":71656,"Delta":299585754},{"NoteNumber":61,"Velocity":37,"Duration":71885,"SoundDuration":71885,"Delta":299657410},{"NoteNumber":64,"Velocity":38,"Duration":72347,"SoundDuration":72347,"Delta":299729295},{"NoteNumber":68,"Velocity":42,"Duration":72581,"SoundDuration":72581,"Delta":299801643},{"NoteNumber":71,"Velocity":37,"Duration":72815,"SoundDuration":72815,"Delta":299874224},{"NoteNumber":73,"Velocity":37,"Duration":73290,"SoundDuration":73290,"Delta":299947040},{"NoteNumber":76,"Velocity":40,"Duration":73529,"SoundDuration":73529,"Delta":300020330},{"NoteNumber":80,"Velocity":42,"Duration":73891,"SoundDuration":73891,"Delta":300093859},{"NoteNumber":71,"Velocity":34,"Duration":74135,"SoundDuration":74135,"Delta":300167751},{"NoteNumber":73,"Velocity":36,"Duration":74626,"SoundDuration":74626,"Delta":300241886},{"NoteNumber":76,"Velocity":37,"Duration":74875,"SoundDuration":74875,"Delta":300316513},{"NoteNumber":80,"Velocity":39,"Duration":75125,"SoundDuration":75125,"Delta":300391389},{"NoteNumber":88,"Velocity":37,"Duration":75630,"SoundDuration":75630,"Delta":300466514},{"NoteNumber":92,"Velocity":38,"Duration":75885,"SoundDuration":75885,"Delta":300542145},{"NoteNumber":95,"Velocity":42,"Duration":76401,"SoundDuration":76401,"Delta":300618031},{"NoteNumber":97,"Velocity":43,"Duration":76530,"SoundDuration":76530,"Delta":300694432},{"NoteNumber":87,"Velocity":33,"Duration":612245,"SoundDuration":612245,"Delta":300770963},{"NoteNumber":92,"Velocity":37,"Duration":612245,"SoundDuration":612245,"Delta":300770963},{"NoteNumber":99,"Velocity":45,"Duration":612245,"SoundDuration":612245,"Delta":300770963},{"NoteNumber":40,"Velocity":25,"Duration":612245,"SoundDuration":612245,"Delta":300770963},{"NoteNumber":47,"Velocity":33,"Duration":612245,"SoundDuration":612245,"Delta":300770963}]}