{"title":"Juli","artist":"Piano","durationMs":111742,"midiSha256":"0f07ca3b168a4ea5213a806c6e31a000316c3f41ce171ba1168e0ff8d71274e7","midiObject":[{"NoteNumber":63,"Velocity":72,"Duration":1003849,"SoundDuration":1003849,"Delta":0},{"NoteNumber":67,"Velocity":72,"Duration":756773,"SoundDuration":756773,"Delta":0},{"NoteNumber":75,"Velocity":88,"Duration":756773,"SoundDuration":756773,"Delta":0},{"NoteNumber":51,"Velocity":58,"Duration":1508220,"SoundDuration":1508220,"Delta":0},{"NoteNumber":58,"Velocity":70,"Duration":1508220,"SoundDuration":1508220,"Delta":0},{"NoteNumber":67,"Velocity":73,"Duration":247076,"SoundDuration":247076,"Delta":756773},{"NoteNumber":70,"Velocity":84,"Duration":504371,"SoundDuration":504371,"Delta":1003849},{"NoteNumber":67,"Velocity":70,"Duration":504371,"SoundDuration":504371,"Delta":1003849},{"NoteNumber":63,"Velocity":70,"Duration":504371,"SoundDuration":504371,"Delta":1003849},{"NoteNumber":72,"Velocity":78,"Duration":247076,"SoundDuration":247076,"Delta":1508220},{"NoteNumber":67,"Velocity":64,"Duration":247076,"SoundDuration":247076,"Delta":1508220},{"NoteNumber":63,"Velocity":64,"Duration":504609,"SoundDuration":504609,"Delta":1508220},{"NoteNumber":51,"Velocity":44,"Duration":504609,"SoundDuration":504609,"Delta":1508220},{"NoteNumber":58,"Velocity":52,"Duration":504609,"SoundDuration":504609,"Delta":1508220},{"NoteNumber":46,"Velocity":44,"Duration":504609,"SoundDuration":504609,"Delta":1508220},{"NoteNumber":67,"Velocity":73,"Duration":257533,"SoundDuration":257533,"Delta":1755297},{"NoteNumber":70,"Velocity":80,"Duration":1013941,"SoundDuration":1013941,"Delta":2012830},{"NoteNumber":63,"Velocity":67,"Duration":1013941,"SoundDuration":1013941,"Delta":2012830},{"NoteNumber":67,"Velocity":67,"Duration":1013941,"SoundDuration":1013941,"Delta":2012830},{"NoteNumber":58,"Velocity":64,"Duration":1501637,"SoundDuration":1501637,"Delta":2012830},{"NoteNumber":51,"Velocity":53,"Duration":1501637,"SoundDuration":1501637,"Delta":2012830},{"NoteNumber":63,"Velocity":62,"Duration":487695,"SoundDuration":487695,"Delta":3026772},{"NoteNumber":67,"Velocity":66,"Duration":487695,"SoundDuration":487695,"Delta":3026772},{"NoteNumber":70,"Velocity":81,"Duration":241935,"SoundDuration":241935,"Delta":3026772},{"NoteNumber":72,"Velocity":70,"Duration":245760,"SoundDuration":245760,"Delta":3268707},{"NoteNumber":63,"Velocity":68,"Duration":491519,"SoundDuration":491519,"Delta":3514468},{"NoteNumber":67,"Velocity":81,"Duration":241935,"SoundDuration":241935,"Delta":3514468},{"NoteNumber":51,"Velocity":49,"Duration":491519,"SoundDuration":491519,"Delta":3514468},{"NoteNumber":58,"Velocity":58,"Duration":491519,"SoundDuration":491519,"Delta":3514468},{"NoteNumber":46,"Velocity":49,"Duration":491519,"SoundDuration":491519,"Delta":3514468},{"NoteNumber":72,"Velocity":68,"Duration":249584,"SoundDuration":249584,"Delta":3756403},{"NoteNumber":70,"Velocity":80,"Duration":1008741,"SoundDuration":1008741,"Delta":4005987},{"NoteNumber":67,"Velocity":67,"Duration":1008741,"SoundDuration":1008741,"Delta":4005987},{"NoteNumber":63,"Velocity":67,"Duration":1008741,"SoundDuration":1008741,"Delta":4005987},{"NoteNumber":51,"Velocity":54,"Duration":1513113,"SoundDuration":1513113,"Delta":4005987},{"NoteNumber":58,"Velocity":65,"Duration":1513113,"SoundDuration":1513113,"Delta":4005987},{"NoteNumber":63,"Velocity":68,"Duration":1008741,"SoundDuration":1008741,"Delta":5014729},{"NoteNumber":67,"Velocity":68,"Duration":1008741,"SoundDuration":1008741,"Delta":5014729},{"NoteNumber":70,"Velocity":81,"Duration":1008741,"SoundDuration":1008741,"Delta":5014729},{"NoteNumber":46,"Velocity":50,"Duration":504370,"SoundDuration":504370,"Delta":5519100},{"NoteNumber":58,"Velocity":61,"Duration":504370,"SoundDuration":504370,"Delta":5519100},{"NoteNumber":51,"Velocity":50,"Duration":504370,"SoundDuration":504370,"Delta":5519100},{"NoteNumber":77,"Velocity":84,"Duration":756556,"SoundDuration":756556,"Delta":6023471},{"NoteNumber":65,"Velocity":70,"Duration":756556,"SoundDuration":756556,"Delta":6023471},{"NoteNumber":70,"Velocity":70,"Duration":1509251,"SoundDuration":1509251,"Delta":6023471},{"NoteNumber":62,"Velocity":67,"Duration":1509251,"SoundDuration":1509251,"Delta":6023471},{"NoteNumber":58,"Velocity":56,"Duration":1509251,"SoundDuration":1509251,"Delta":6023471},{"NoteNumber":51,"Velocity":56,"Duration":1509251,"SoundDuration":1509251,"Delta":6023471},{"NoteNumber":79,"Velocity":77,"Duration":248324,"SoundDuration":248324,"Delta":6780028},{"NoteNumber":67,"Velocity":64,"Duration":248324,"SoundDuration":248324,"Delta":6780028},{"NoteNumber":65,"Velocity":70,"Duration":504370,"SoundDuration":504370,"Delta":7028352},{"NoteNumber":77,"Velocity":84,"Duration":504370,"SoundDuration":504370,"Delta":7028352},{"NoteNumber":68,"Velocity":68,"Duration":500621,"SoundDuration":500621,"Delta":7532723},{"NoteNumber":60,"Velocity":68,"Duration":245801,"SoundDuration":245801,"Delta":7532723},{"NoteNumber":72,"Velocity":81,"Duration":245801,"SoundDuration":245801,"Delta":7532723},{"NoteNumber":53,"Velocity":56,"Duration":500621,"SoundDuration":500621,"Delta":7532723},{"NoteNumber":46,"Velocity":46,"Duration":500621,"SoundDuration":500621,"Delta":7532723},{"NoteNumber":62,"Velocity":66,"Duration":254820,"SoundDuration":254820,"Delta":7778524},{"NoteNumber":74,"Velocity":78,"Duration":254820,"SoundDuration":254820,"Delta":7778524},{"NoteNumber":75,"Velocity":84,"Duration":1008741,"SoundDuration":1008741,"Delta":8033344},{"NoteNumber":63,"Velocity":70,"Duration":1008741,"SoundDuration":1008741,"Delta":8033344},{"NoteNumber":67,"Velocity":70,"Duration":1008741,"SoundDuration":1008741,"Delta":8033344},{"NoteNumber":51,"Velocity":56,"Duration":1502603,"SoundDuration":1502603,"Delta":8033344},{"NoteNumber":58,"Velocity":67,"Duration":1502603,"SoundDuration":1502603,"Delta":8033344},{"NoteNumber":63,"Velocity":67,"Duration":243902,"SoundDuration":243902,"Delta":9042086},{"NoteNumber":67,"Velocity":67,"Duration":493861,"SoundDuration":493861,"Delta":9042086},{"NoteNumber":75,"Velocity":80,"Duration":243902,"SoundDuration":243902,"Delta":9042086},{"NoteNumber":62,"Velocity":58,"Duration":249958,"SoundDuration":249958,"Delta":9285989},{"NoteNumber":74,"Velocity":69,"Duration":249958,"SoundDuration":249958,"Delta":9285989},{"NoteNumber":72,"Velocity":75,"Duration":246791,"SoundDuration":246791,"Delta":9535947},{"NoteNumber":60,"Velocity":63,"Duration":246791,"SoundDuration":246791,"Delta":9535947},{"NoteNumber":68,"Velocity":63,"Duration":504324,"SoundDuration":504324,"Delta":9535947},{"NoteNumber":46,"Velocity":46,"Duration":504324,"SoundDuration":504324,"Delta":9535947},{"NoteNumber":53,"Velocity":56,"Duration":504324,"SoundDuration":504324,"Delta":9535947},{"NoteNumber":74,"Velocity":64,"Duration":257533,"SoundDuration":257533,"Delta":9782739},{"NoteNumber":62,"Velocity":53,"Duration":257533,"SoundDuration":257533,"Delta":9782739},{"NoteNumber":67,"Velocity":65,"Duration":1507598,"SoundDuration":1507598,"Delta":10040272},{"NoteNumber":63,"Velocity":65,"Duration":1507598,"SoundDuration":1507598,"Delta":10040272},{"NoteNumber":58,"Velocity":65,"Duration":1008741,"SoundDuration":1008741,"Delta":10040272},{"NoteNumber":70,"Velocity":77,"Duration":1507598,"SoundDuration":1507598,"Delta":10040272},{"NoteNumber":51,"Velocity":65,"Duration":1256573,"SoundDuration":1256573,"Delta":10040272},{"NoteNumber":58,"Velocity":72,"Duration":999837,"SoundDuration":999837,"Delta":11049014},{"NoteNumber":50,"Velocity":63,"Duration":251025,"SoundDuration":251025,"Delta":11296845},{"NoteNumber":70,"Velocity":71,"Duration":500980,"SoundDuration":500980,"Delta":11547870},{"NoteNumber":68,"Velocity":59,"Duration":500980,"SoundDuration":500980,"Delta":11547870},{"NoteNumber":65,"Velocity":59,"Duration":500980,"SoundDuration":500980,"Delta":11547870},{"NoteNumber":48,"Velocity":59,"Duration":248879,"SoundDuration":248879,"Delta":11547870},{"NoteNumber":46,"Velocity":50,"Duration":500980,"SoundDuration":500980,"Delta":11547870},{"NoteNumber":50,"Velocity":56,"Duration":252100,"SoundDuration":252100,"Delta":11796750},{"NoteNumber":67,"Velocity":62,"Duration":1509722,"SoundDuration":1509722,"Delta":12048851},{"NoteNumber":70,"Velocity":73,"Duration":1509722,"SoundDuration":1509722,"Delta":12048851},{"NoteNumber":58,"Velocity":60,"Duration":1008741,"SoundDuration":1008741,"Delta":12048851},{"NoteNumber":63,"Velocity":60,"Duration":1509722,"SoundDuration":1509722,"Delta":12048851},{"NoteNumber":51,"Velocity":60,"Duration":1257621,"SoundDuration":1257621,"Delta":12048851},{"NoteNumber":58,"Velocity":72,"Duration":1010911,"SoundDuration":1010911,"Delta":13057593},{"NoteNumber":50,"Velocity":63,"Duration":252100,"SoundDuration":252100,"Delta":13306473},{"NoteNumber":65,"Velocity":59,"Duration":509930,"SoundDuration":509930,"Delta":13558574},{"NoteNumber":68,"Velocity":59,"Duration":509930,"SoundDuration":509930,"Delta":13558574},{"NoteNumber":70,"Velocity":71,"Duration":509930,"SoundDuration":509930,"Delta":13558574},{"NoteNumber":46,"Velocity":50,"Duration":509930,"SoundDuration":509930,"Delta":13558574},{"NoteNumber":48,"Velocity":59,"Duration":248879,"SoundDuration":248879,"Delta":13558574},{"NoteNumber":50,"Velocity":56,"Duration":261051,"SoundDuration":261051,"Delta":13807454},{"NoteNumber":63,"Velocity":72,"Duration":1003849,"SoundDuration":1003849,"Delta":14068505},{"NoteNumber":67,"Velocity":73,"Duration":756773,"SoundDuration":756773,"Delta":14068505},{"NoteNumber":75,"Velocity":88,"Duration":756773,"SoundDuration":756773,"Delta":14068505},{"NoteNumber":58,"Velocity":70,"Duration":1508220,"SoundDuration":1508220,"Delta":14068505},{"NoteNumber":51,"Velocity":58,"Duration":1508220,"SoundDuration":1508220,"Delta":14068505},{"NoteNumber":67,"Velocity":73,"Duration":247076,"SoundDuration":247076,"Delta":14825278},{"NoteNumber":70,"Velocity":84,"Duration":504371,"SoundDuration":504371,"Delta":15072355},{"NoteNumber":67,"Velocity":70,"Duration":504371,"SoundDuration":504371,"Delta":15072355},{"NoteNumber":63,"Velocity":70,"Duration":504371,"SoundDuration":504371,"Delta":15072355},{"NoteNumber":72,"Velocity":78,"Duration":247076,"SoundDuration":247076,"Delta":15576726},{"NoteNumber":67,"Velocity":64,"Duration":247076,"SoundDuration":247076,"Delta":15576726},{"NoteNumber":63,"Velocity":64,"Duration":504609,"SoundDuration":504609,"Delta":15576726},{"NoteNumber":46,"Velocity":44,"Duration":504609,"SoundDuration":504609,"Delta":15576726},{"NoteNumber":58,"Velocity":52,"Duration":504609,"SoundDuration":504609,"Delta":15576726},{"NoteNumber":51,"Velocity":44,"Duration":504609,"SoundDuration":504609,"Delta":15576726},{"NoteNumber":67,"Velocity":73,"Duration":257532,"SoundDuration":257532,"Delta":15823802},{"NoteNumber":70,"Velocity":80,"Duration":1013942,"SoundDuration":1013942,"Delta":16081335},{"NoteNumber":67,"Velocity":67,"Duration":1013942,"SoundDuration":1013942,"Delta":16081335},{"NoteNumber":63,"Velocity":67,"Duration":1013942,"SoundDuration":1013942,"Delta":16081335},{"NoteNumber":51,"Velocity":53,"Duration":1501637,"SoundDuration":1501637,"Delta":16081335},{"NoteNumber":58,"Velocity":64,"Duration":1501637,"SoundDuration":1501637,"Delta":16081335},{"NoteNumber":67,"Velocity":66,"Duration":487695,"SoundDuration":487695,"Delta":17095277},{"NoteNumber":63,"Velocity":62,"Duration":487695,"SoundDuration":487695,"Delta":17095277},{"NoteNumber":70,"Velocity":81,"Duration":241935,"SoundDuration":241935,"Delta":17095277},{"NoteNumber":72,"Velocity":70,"Duration":245760,"SoundDuration":245760,"Delta":17337213},{"NoteNumber":63,"Velocity":68,"Duration":491519,"SoundDuration":491519,"Delta":17582973},{"NoteNumber":67,"Velocity":81,"Duration":241935,"SoundDuration":241935,"Delta":17582973},{"NoteNumber":51,"Velocity":49,"Duration":491519,"SoundDuration":491519,"Delta":17582973},{"NoteNumber":46,"Velocity":49,"Duration":491519,"SoundDuration":491519,"Delta":17582973},{"NoteNumber":58,"Velocity":58,"Duration":491519,"SoundDuration":491519,"Delta":17582973},{"NoteNumber":72,"Velocity":68,"Duration":249583,"SoundDuration":249583,"Delta":17824909},{"NoteNumber":63,"Velocity":67,"Duration":1008742,"SoundDuration":1008742,"Delta":18074493},{"NoteNumber":70,"Velocity":80,"Duration":1008742,"SoundDuration":1008742,"Delta":18074493},{"NoteNumber":67,"Velocity":67,"Duration":1008742,"SoundDuration":1008742,"Delta":18074493},{"NoteNumber":58,"Velocity":65,"Duration":1513113,"SoundDuration":1513113,"Delta":18074493},{"NoteNumber":51,"Velocity":54,"Duration":1513113,"SoundDuration":1513113,"Delta":18074493},{"NoteNumber":70,"Velocity":81,"Duration":1008741,"SoundDuration":1008741,"Delta":19083235},{"NoteNumber":67,"Velocity":68,"Duration":1008741,"SoundDuration":1008741,"Delta":19083235},{"NoteNumber":63,"Velocity":68,"Duration":1008741,"SoundDuration":1008741,"Delta":19083235},{"NoteNumber":51,"Velocity":50,"Duration":504370,"SoundDuration":504370,"Delta":19587606},{"NoteNumber":46,"Velocity":50,"Duration":504370,"SoundDuration":504370,"Delta":19587606},{"NoteNumber":58,"Velocity":61,"Duration":504370,"SoundDuration":504370,"Delta":19587606},{"NoteNumber":77,"Velocity":84,"Duration":756556,"SoundDuration":756556,"Delta":20091977},{"NoteNumber":65,"Velocity":70,"Duration":756556,"SoundDuration":756556,"Delta":20091977},{"NoteNumber":70,"Velocity":70,"Duration":1509251,"SoundDuration":1509251,"Delta":20091977},{"NoteNumber":51,"Velocity":56,"Duration":1509251,"SoundDuration":1509251,"Delta":20091977},{"NoteNumber":58,"Velocity":56,"Duration":1509251,"SoundDuration":1509251,"Delta":20091977},{"NoteNumber":62,"Velocity":67,"Duration":1509251,"SoundDuration":1509251,"Delta":20091977},{"NoteNumber":67,"Velocity":64,"Duration":248324,"SoundDuration":248324,"Delta":20848533},{"NoteNumber":79,"Velocity":77,"Duration":248324,"SoundDuration":248324,"Delta":20848533},{"NoteNumber":65,"Velocity":70,"Duration":504370,"SoundDuration":504370,"Delta":21096857},{"NoteNumber":77,"Velocity":84,"Duration":504370,"SoundDuration":504370,"Delta":21096857},{"NoteNumber":72,"Velocity":81,"Duration":245801,"SoundDuration":245801,"Delta":21601228},{"NoteNumber":60,"Velocity":68,"Duration":245801,"SoundDuration":245801,"Delta":21601228},{"NoteNumber":68,"Velocity":68,"Duration":500621,"SoundDuration":500621,"Delta":21601228},{"NoteNumber":53,"Velocity":56,"Duration":500621,"SoundDuration":500621,"Delta":21601228},{"NoteNumber":46,"Velocity":46,"Duration":500621,"SoundDuration":500621,"Delta":21601228},{"NoteNumber":62,"Velocity":66,"Duration":254820,"SoundDuration":254820,"Delta":21847029},{"NoteNumber":74,"Velocity":78,"Duration":254820,"SoundDuration":254820,"Delta":21847029},{"NoteNumber":67,"Velocity":70,"Duration":1008742,"SoundDuration":1008742,"Delta":22101850},{"NoteNumber":63,"Velocity":70,"Duration":1008742,"SoundDuration":1008742,"Delta":22101850},{"NoteNumber":75,"Velocity":84,"Duration":1008742,"SoundDuration":1008742,"Delta":22101850},{"NoteNumber":58,"Velocity":67,"Duration":1505492,"SoundDuration":1505492,"Delta":22101850},{"NoteNumber":51,"Velocity":56,"Duration":1505492,"SoundDuration":1505492,"Delta":22101850},{"NoteNumber":63,"Velocity":67,"Duration":246791,"SoundDuration":246791,"Delta":23110592},{"NoteNumber":67,"Velocity":67,"Duration":496750,"SoundDuration":496750,"Delta":23110592},{"NoteNumber":75,"Velocity":80,"Duration":246791,"SoundDuration":246791,"Delta":23110592},{"NoteNumber":62,"Velocity":58,"Duration":249958,"SoundDuration":249958,"Delta":23357383},{"NoteNumber":74,"Velocity":69,"Duration":249958,"SoundDuration":249958,"Delta":23357383},{"NoteNumber":72,"Velocity":75,"Duration":246791,"SoundDuration":246791,"Delta":23607342},{"NoteNumber":60,"Velocity":63,"Duration":246791,"SoundDuration":246791,"Delta":23607342},{"NoteNumber":68,"Velocity":63,"Duration":504324,"SoundDuration":504324,"Delta":23607342},{"NoteNumber":53,"Velocity":56,"Duration":504324,"SoundDuration":504324,"Delta":23607342},{"NoteNumber":46,"Velocity":46,"Duration":504324,"SoundDuration":504324,"Delta":23607342},{"NoteNumber":74,"Velocity":64,"Duration":257532,"SoundDuration":257532,"Delta":23854133},{"NoteNumber":62,"Velocity":53,"Duration":257532,"SoundDuration":257532,"Delta":23854133},{"NoteNumber":70,"Velocity":73,"Duration":1507598,"SoundDuration":1507598,"Delta":24111666},{"NoteNumber":67,"Velocity":62,"Duration":1507598,"SoundDuration":1507598,"Delta":24111666},{"NoteNumber":63,"Velocity":62,"Duration":1008742,"SoundDuration":1008742,"Delta":24111666},{"NoteNumber":51,"Velocity":62,"Duration":1507598,"SoundDuration":1507598,"Delta":24111666},{"NoteNumber":58,"Velocity":62,"Duration":1507598,"SoundDuration":1507598,"Delta":24111666},{"NoteNumber":63,"Velocity":70,"Duration":247831,"SoundDuration":247831,"Delta":25120408},{"NoteNumber":62,"Velocity":66,"Duration":251024,"SoundDuration":251024,"Delta":25368240},{"NoteNumber":66,"Velocity":59,"Duration":500980,"SoundDuration":500980,"Delta":25619265},{"NoteNumber":72,"Velocity":71,"Duration":500980,"SoundDuration":500980,"Delta":25619265},{"NoteNumber":60,"Velocity":61,"Duration":248879,"SoundDuration":248879,"Delta":25619265},{"NoteNumber":44,"Velocity":50,"Duration":500980,"SoundDuration":500980,"Delta":25619265},{"NoteNumber":50,"Velocity":50,"Duration":500980,"SoundDuration":500980,"Delta":25619265},{"NoteNumber":62,"Velocity":58,"Duration":252100,"SoundDuration":252100,"Delta":25868145},{"NoteNumber":67,"Velocity":74,"Duration":1265044,"SoundDuration":1265044,"Delta":26120246},{"NoteNumber":60,"Velocity":62,"Duration":1021537,"SoundDuration":1021537,"Delta":26120246},{"NoteNumber":62,"Velocity":62,"Duration":1265044,"SoundDuration":1265044,"Delta":26120246},{"NoteNumber":43,"Velocity":52,"Duration":1265044,"SoundDuration":1265044,"Delta":26120246},{"NoteNumber":50,"Velocity":62,"Duration":1265044,"SoundDuration":1265044,"Delta":26120246},{"NoteNumber":59,"Velocity":63,"Duration":243506,"SoundDuration":243506,"Delta":27141784},{"NoteNumber":41,"Velocity":63,"Duration":240384,"SoundDuration":240384,"Delta":27385290},{"NoteNumber":55,"Velocity":80,"Duration":470587,"SoundDuration":470587,"Delta":27625675},{"NoteNumber":39,"Velocity":63,"Duration":235293,"SoundDuration":235293,"Delta":27625675},{"NoteNumber":38,"Velocity":63,"Duration":235293,"SoundDuration":235293,"Delta":27860969},{"NoteNumber":60,"Velocity":75,"Duration":117647,"SoundDuration":117647,"Delta":28096263},{"NoteNumber":36,"Velocity":67,"Duration":117647,"SoundDuration":117647,"Delta":28096263},{"NoteNumber":43,"Velocity":61,"Duration":113636,"SoundDuration":113636,"Delta":28331557},{"NoteNumber":63,"Velocity":66,"Duration":460007,"SoundDuration":460007,"Delta":28558829},{"NoteNumber":67,"Velocity":80,"Duration":460007,"SoundDuration":460007,"Delta":28558829},{"NoteNumber":60,"Velocity":61,"Duration":460007,"SoundDuration":460007,"Delta":28558829},{"NoteNumber":48,"Velocity":63,"Duration":114503,"SoundDuration":114503,"Delta":28558829},{"NoteNumber":43,"Velocity":59,"Duration":115500,"SoundDuration":115500,"Delta":28787837},{"NoteNumber":62,"Velocity":67,"Duration":227272,"SoundDuration":227272,"Delta":29018837},{"NoteNumber":36,"Velocity":67,"Duration":113636,"SoundDuration":113636,"Delta":29018837},{"NoteNumber":43,"Velocity":59,"Duration":112359,"SoundDuration":112359,"Delta":29246109},{"NoteNumber":65,"Velocity":67,"Duration":454343,"SoundDuration":454343,"Delta":29470828},{"NoteNumber":67,"Velocity":81,"Duration":454343,"SoundDuration":454343,"Delta":29470828},{"NoteNumber":62,"Velocity":62,"Duration":454343,"SoundDuration":454343,"Delta":29470828},{"NoteNumber":48,"Velocity":62,"Duration":113207,"SoundDuration":113207,"Delta":29470828},{"NoteNumber":43,"Velocity":59,"Duration":113964,"SoundDuration":113964,"Delta":29697243},{"NoteNumber":63,"Velocity":73,"Duration":230043,"SoundDuration":230043,"Delta":29925172},{"NoteNumber":36,"Velocity":68,"Duration":115021,"SoundDuration":115021,"Delta":29925172},{"NoteNumber":43,"Velocity":60,"Duration":113207,"SoundDuration":113207,"Delta":30155216},{"NoteNumber":62,"Velocity":58,"Duration":223880,"SoundDuration":223880,"Delta":30381631},{"NoteNumber":65,"Velocity":58,"Duration":452940,"SoundDuration":452940,"Delta":30381631},{"NoteNumber":67,"Velocity":69,"Duration":452940,"SoundDuration":452940,"Delta":30381631},{"NoteNumber":48,"Velocity":63,"Duration":111940,"SoundDuration":111940,"Delta":30381631},{"NoteNumber":60,"Velocity":71,"Duration":229060,"SoundDuration":229060,"Delta":30605511},{"NoteNumber":43,"Velocity":60,"Duration":114529,"SoundDuration":114529,"Delta":30605511},{"NoteNumber":59,"Velocity":66,"Duration":229060,"SoundDuration":229060,"Delta":30834571},{"NoteNumber":36,"Velocity":67,"Duration":114529,"SoundDuration":114529,"Delta":30834571},{"NoteNumber":43,"Velocity":60,"Duration":114529,"SoundDuration":114529,"Delta":31063631},{"NoteNumber":67,"Velocity":80,"Duration":452249,"SoundDuration":452249,"Delta":31292691},{"NoteNumber":55,"Velocity":60,"Duration":452249,"SoundDuration":452249,"Delta":31292691},{"NoteNumber":65,"Velocity":63,"Duration":452249,"SoundDuration":452249,"Delta":31292691},{"NoteNumber":48,"Velocity":63,"Duration":113062,"SoundDuration":113062,"Delta":31292691},{"NoteNumber":43,"Velocity":59,"Duration":113062,"SoundDuration":113062,"Delta":31518816},{"NoteNumber":60,"Velocity":75,"Duration":229762,"SoundDuration":229762,"Delta":31744941},{"NoteNumber":36,"Velocity":67,"Duration":114881,"SoundDuration":114881,"Delta":31744941},{"NoteNumber":43,"Velocity":61,"Duration":111740,"SoundDuration":111740,"Delta":31974703},{"NoteNumber":60,"Velocity":66,"Duration":457227,"SoundDuration":457227,"Delta":32198184},{"NoteNumber":67,"Velocity":80,"Duration":457227,"SoundDuration":457227,"Delta":32198184},{"NoteNumber":63,"Velocity":66,"Duration":457227,"SoundDuration":457227,"Delta":32198184},{"NoteNumber":48,"Velocity":63,"Duration":113113,"SoundDuration":113113,"Delta":32198184},{"NoteNumber":43,"Velocity":59,"Duration":115499,"SoundDuration":115499,"Delta":32424411},{"NoteNumber":57,"Velocity":67,"Duration":226227,"SoundDuration":226227,"Delta":32655411},{"NoteNumber":36,"Velocity":67,"Duration":113113,"SoundDuration":113113,"Delta":32655411},{"NoteNumber":43,"Velocity":59,"Duration":113113,"SoundDuration":113113,"Delta":32881639},{"NoteNumber":57,"Velocity":66,"Duration":225293,"SoundDuration":225293,"Delta":33107866},{"NoteNumber":65,"Velocity":66,"Duration":453222,"SoundDuration":453222,"Delta":33107866},{"NoteNumber":67,"Velocity":81,"Duration":453222,"SoundDuration":453222,"Delta":33107866},{"NoteNumber":48,"Velocity":62,"Duration":112646,"SoundDuration":112646,"Delta":33107866},{"NoteNumber":59,"Velocity":67,"Duration":227929,"SoundDuration":227929,"Delta":33333159},{"NoteNumber":43,"Velocity":59,"Duration":113964,"SoundDuration":113964,"Delta":33333159},{"NoteNumber":60,"Velocity":75,"Duration":231000,"SoundDuration":231000,"Delta":33561088},{"NoteNumber":36,"Velocity":67,"Duration":115499,"SoundDuration":115499,"Delta":33561088},{"NoteNumber":43,"Velocity":61,"Duration":112174,"SoundDuration":112174,"Delta":33792088},{"NoteNumber":63,"Velocity":66,"Duration":455060,"SoundDuration":455060,"Delta":34016438},{"NoteNumber":67,"Velocity":80,"Duration":455060,"SoundDuration":455060,"Delta":34016438},{"NoteNumber":60,"Velocity":66,"Duration":455060,"SoundDuration":455060,"Delta":34016438},{"NoteNumber":48,"Velocity":63,"Duration":113113,"SoundDuration":113113,"Delta":34016438},{"NoteNumber":43,"Velocity":59,"Duration":114416,"SoundDuration":114416,"Delta":34242665},{"NoteNumber":75,"Velocity":71,"Duration":226227,"SoundDuration":226227,"Delta":34471498},{"NoteNumber":79,"Velocity":85,"Duration":226227,"SoundDuration":226227,"Delta":34471498},{"NoteNumber":67,"Velocity":71,"Duration":226227,"SoundDuration":226227,"Delta":34471498},{"NoteNumber":72,"Velocity":71,"Duration":226227,"SoundDuration":226227,"Delta":34471498},{"NoteNumber":36,"Velocity":67,"Duration":113113,"SoundDuration":113113,"Delta":34471498},{"NoteNumber":43,"Velocity":59,"Duration":113113,"SoundDuration":113113,"Delta":34697726},{"NoteNumber":67,"Velocity":81,"Duration":454300,"SoundDuration":454300,"Delta":34923953},{"NoteNumber":55,"Velocity":67,"Duration":454300,"SoundDuration":454300,"Delta":34923953},{"NoteNumber":48,"Velocity":62,"Duration":112646,"SoundDuration":112646,"Delta":34923953},{"NoteNumber":43,"Velocity":59,"Duration":114503,"SoundDuration":114503,"Delta":35149246},{"NoteNumber":72,"Velocity":75,"Duration":228136,"SoundDuration":228136,"Delta":35378254},{"NoteNumber":67,"Velocity":75,"Duration":228136,"SoundDuration":228136,"Delta":35378254},{"NoteNumber":63,"Velocity":75,"Duration":228136,"SoundDuration":228136,"Delta":35378254},{"NoteNumber":60,"Velocity":75,"Duration":228136,"SoundDuration":228136,"Delta":35378254},{"NoteNumber":36,"Velocity":67,"Duration":114068,"SoundDuration":114068,"Delta":35378254},{"NoteNumber":43,"Velocity":61,"Duration":111940,"SoundDuration":111940,"Delta":35606391},{"NoteNumber":60,"Velocity":66,"Duration":455235,"SoundDuration":455235,"Delta":35830271},{"NoteNumber":72,"Velocity":80,"Duration":455235,"SoundDuration":455235,"Delta":35830271},{"NoteNumber":48,"Velocity":63,"Duration":113113,"SoundDuration":113113,"Delta":35830271},{"NoteNumber":55,"Velocity":59,"Duration":114503,"SoundDuration":114503,"Delta":36056499},{"NoteNumber":62,"Velocity":66,"Duration":223880,"SoundDuration":223880,"Delta":36285506},{"NoteNumber":74,"Velocity":80,"Duration":223880,"SoundDuration":223880,"Delta":36285506},{"NoteNumber":71,"Velocity":66,"Duration":223880,"SoundDuration":223880,"Delta":36285506},{"NoteNumber":67,"Velocity":66,"Duration":223880,"SoundDuration":223880,"Delta":36285506},{"NoteNumber":55,"Velocity":67,"Duration":111940,"SoundDuration":111940,"Delta":36285506},{"NoteNumber":48,"Velocity":59,"Duration":111940,"SoundDuration":111940,"Delta":36509387},{"NoteNumber":62,"Velocity":67,"Duration":453429,"SoundDuration":453429,"Delta":36733267},{"NoteNumber":74,"Velocity":81,"Duration":453429,"SoundDuration":453429,"Delta":36733267},{"NoteNumber":43,"Velocity":62,"Duration":112646,"SoundDuration":112646,"Delta":36733267},{"NoteNumber":36,"Velocity":59,"Duration":114068,"SoundDuration":114068,"Delta":36958560},{"NoteNumber":67,"Velocity":75,"Duration":226415,"SoundDuration":226415,"Delta":37186697},{"NoteNumber":63,"Velocity":75,"Duration":226415,"SoundDuration":226415,"Delta":37186697},{"NoteNumber":75,"Velocity":75,"Duration":226415,"SoundDuration":226415,"Delta":37186697},{"NoteNumber":72,"Velocity":75,"Duration":226415,"SoundDuration":226415,"Delta":37186697},{"NoteNumber":36,"Velocity":67,"Duration":113207,"SoundDuration":113207,"Delta":37186697},{"NoteNumber":43,"Velocity":61,"Duration":112359,"SoundDuration":112359,"Delta":37413112},{"NoteNumber":62,"Velocity":66,"Duration":222222,"SoundDuration":222222,"Delta":37637831},{"NoteNumber":74,"Velocity":80,"Duration":222222,"SoundDuration":222222,"Delta":37637831},{"NoteNumber":48,"Velocity":63,"Duration":111111,"SoundDuration":111111,"Delta":37637831},{"NoteNumber":72,"Velocity":80,"Duration":221401,"SoundDuration":221401,"Delta":37860053},{"NoteNumber":60,"Velocity":66,"Duration":221401,"SoundDuration":221401,"Delta":37860053},{"NoteNumber":55,"Velocity":59,"Duration":110700,"SoundDuration":110700,"Delta":37860053},{"NoteNumber":62,"Velocity":66,"Duration":224719,"SoundDuration":224719,"Delta":38081455},{"NoteNumber":67,"Velocity":66,"Duration":224719,"SoundDuration":224719,"Delta":38081455},{"NoteNumber":71,"Velocity":66,"Duration":224719,"SoundDuration":224719,"Delta":38081455},{"NoteNumber":74,"Velocity":80,"Duration":224719,"SoundDuration":224719,"Delta":38081455},{"NoteNumber":55,"Velocity":67,"Duration":112359,"SoundDuration":112359,"Delta":38081455},{"NoteNumber":48,"Velocity":59,"Duration":111940,"SoundDuration":111940,"Delta":38306174},{"NoteNumber":55,"Velocity":67,"Duration":454300,"SoundDuration":454300,"Delta":38530055},{"NoteNumber":67,"Velocity":81,"Duration":454300,"SoundDuration":454300,"Delta":38530055},{"NoteNumber":43,"Velocity":62,"Duration":112646,"SoundDuration":112646,"Delta":38530055},{"NoteNumber":36,"Velocity":59,"Duration":114503,"SoundDuration":114503,"Delta":38755348},{"NoteNumber":60,"Velocity":79,"Duration":228136,"SoundDuration":228136,"Delta":38984355},{"NoteNumber":72,"Velocity":79,"Duration":228136,"SoundDuration":228136,"Delta":38984355},{"NoteNumber":36,"Velocity":70,"Duration":114068,"SoundDuration":114068,"Delta":38984355},{"NoteNumber":43,"Velocity":63,"Duration":111524,"SoundDuration":111524,"Delta":39212492},{"NoteNumber":75,"Velocity":74,"Duration":446415,"SoundDuration":446415,"Delta":39435541},{"NoteNumber":79,"Velocity":88,"Duration":446415,"SoundDuration":446415,"Delta":39435541},{"NoteNumber":67,"Velocity":74,"Duration":446415,"SoundDuration":446415,"Delta":39435541},{"NoteNumber":72,"Velocity":74,"Duration":446415,"SoundDuration":446415,"Delta":39435541},{"NoteNumber":48,"Velocity":67,"Duration":111940,"SoundDuration":111940,"Delta":39435541},{"NoteNumber":55,"Velocity":62,"Duration":111267,"SoundDuration":111267,"Delta":39659421},{"NoteNumber":63,"Velocity":71,"Duration":226227,"SoundDuration":226227,"Delta":39881957},{"NoteNumber":75,"Velocity":85,"Duration":226227,"SoundDuration":226227,"Delta":39881957},{"NoteNumber":55,"Velocity":72,"Duration":113113,"SoundDuration":113113,"Delta":39881957},{"NoteNumber":48,"Velocity":62,"Duration":113113,"SoundDuration":113113,"Delta":40108184},{"NoteNumber":62,"Velocity":72,"Duration":225293,"SoundDuration":225293,"Delta":40334412},{"NoteNumber":67,"Velocity":72,"Duration":225293,"SoundDuration":225293,"Delta":40334412},{"NoteNumber":71,"Velocity":72,"Duration":225293,"SoundDuration":225293,"Delta":40334412},{"NoteNumber":74,"Velocity":86,"Duration":225293,"SoundDuration":225293,"Delta":40334412},{"NoteNumber":43,"Velocity":65,"Duration":112646,"SoundDuration":112646,"Delta":40334412},{"NoteNumber":75,"Velocity":86,"Duration":242220,"SoundDuration":242220,"Delta":40559705},{"NoteNumber":63,"Velocity":72,"Duration":242220,"SoundDuration":242220,"Delta":40559705},{"NoteNumber":36,"Velocity":62,"Duration":121086,"SoundDuration":121086,"Delta":40559705},{"NoteNumber":60,"Velocity":73,"Duration":236276,"SoundDuration":236276,"Delta":40801925},{"NoteNumber":72,"Velocity":86,"Duration":236276,"SoundDuration":236276,"Delta":40801925},{"NoteNumber":36,"Velocity":64,"Duration":236276,"SoundDuration":236276,"Delta":40801925},{"NoteNumber":75,"Velocity":99,"Duration":242267,"SoundDuration":242267,"Delta":41038202},{"NoteNumber":79,"Velocity":99,"Duration":242267,"SoundDuration":242267,"Delta":41038202},{"NoteNumber":67,"Velocity":83,"Duration":242267,"SoundDuration":242267,"Delta":41038202},{"NoteNumber":72,"Velocity":83,"Duration":242267,"SoundDuration":242267,"Delta":41038202},{"NoteNumber":51,"Velocity":59,"Duration":242267,"SoundDuration":242267,"Delta":41038202},{"NoteNumber":55,"Velocity":70,"Duration":242267,"SoundDuration":242267,"Delta":41038202},{"NoteNumber":60,"Velocity":70,"Duration":242267,"SoundDuration":242267,"Delta":41038202},{"NoteNumber":48,"Velocity":59,"Duration":242267,"SoundDuration":242267,"Delta":41038202},{"NoteNumber":77,"Velocity":100,"Duration":974330,"SoundDuration":974330,"Delta":41280469},{"NoteNumber":80,"Velocity":100,"Duration":974330,"SoundDuration":974330,"Delta":41280469},{"NoteNumber":68,"Velocity":83,"Duration":974330,"SoundDuration":974330,"Delta":41280469},{"NoteNumber":72,"Velocity":83,"Duration":974330,"SoundDuration":974330,"Delta":41280469},{"NoteNumber":56,"Velocity":59,"Duration":882494,"SoundDuration":882494,"Delta":41280469},{"NoteNumber":65,"Velocity":70,"Duration":882494,"SoundDuration":882494,"Delta":41280469},{"NoteNumber":60,"Velocity":70,"Duration":882494,"SoundDuration":882494,"Delta":41280469},{"NoteNumber":53,"Velocity":59,"Duration":882494,"SoundDuration":882494,"Delta":41280469},{"NoteNumber":46,"Velocity":53,"Duration":575707,"SoundDuration":575707,"Delta":42162964},{"NoteNumber":53,"Velocity":53,"Duration":545095,"SoundDuration":545095,"Delta":42193576},{"NoteNumber":58,"Velocity":63,"Duration":514483,"SoundDuration":514483,"Delta":42224188},{"NoteNumber":70,"Velocity":81,"Duration":483871,"SoundDuration":483871,"Delta":42254800},{"NoteNumber":74,"Velocity":81,"Duration":483871,"SoundDuration":483871,"Delta":42254800},{"NoteNumber":77,"Velocity":96,"Duration":483871,"SoundDuration":483871,"Delta":42254800},{"NoteNumber":82,"Velocity":96,"Duration":483871,"SoundDuration":483871,"Delta":42254800},{"NoteNumber":62,"Velocity":63,"Duration":483871,"SoundDuration":483871,"Delta":42254800},{"NoteNumber":67,"Velocity":78,"Duration":237266,"SoundDuration":237266,"Delta":42738671},{"NoteNumber":70,"Velocity":78,"Duration":237266,"SoundDuration":237266,"Delta":42738671},{"NoteNumber":79,"Velocity":92,"Duration":237266,"SoundDuration":237266,"Delta":42738671},{"NoteNumber":75,"Velocity":92,"Duration":237266,"SoundDuration":237266,"Delta":42738671},{"NoteNumber":63,"Velocity":66,"Duration":237266,"SoundDuration":237266,"Delta":42738671},{"NoteNumber":55,"Velocity":56,"Duration":237266,"SoundDuration":237266,"Delta":42738671},{"NoteNumber":58,"Velocity":66,"Duration":237266,"SoundDuration":237266,"Delta":42738671},{"NoteNumber":51,"Velocity":56,"Duration":237266,"SoundDuration":237266,"Delta":42738671},{"NoteNumber":75,"Velocity":92,"Duration":242267,"SoundDuration":242267,"Delta":42975938},{"NoteNumber":72,"Velocity":78,"Duration":242267,"SoundDuration":242267,"Delta":42975938},{"NoteNumber":67,"Velocity":78,"Duration":242267,"SoundDuration":242267,"Delta":42975938},{"NoteNumber":79,"Velocity":92,"Duration":242267,"SoundDuration":242267,"Delta":42975938},{"NoteNumber":63,"Velocity":66,"Duration":242267,"SoundDuration":242267,"Delta":42975938},{"NoteNumber":60,"Velocity":66,"Duration":242267,"SoundDuration":242267,"Delta":42975938},{"NoteNumber":77,"Velocity":99,"Duration":974330,"SoundDuration":974330,"Delta":43218205},{"NoteNumber":72,"Velocity":83,"Duration":974330,"SoundDuration":974330,"Delta":43218205},{"NoteNumber":68,"Velocity":83,"Duration":974330,"SoundDuration":974330,"Delta":43218205},{"NoteNumber":80,"Velocity":99,"Duration":974330,"SoundDuration":974330,"Delta":43218205},{"NoteNumber":56,"Velocity":59,"Duration":882494,"SoundDuration":882494,"Delta":43218205},{"NoteNumber":53,"Velocity":59,"Duration":882494,"SoundDuration":882494,"Delta":43218205},{"NoteNumber":65,"Velocity":70,"Duration":882494,"SoundDuration":882494,"Delta":43218205},{"NoteNumber":60,"Velocity":70,"Duration":882494,"SoundDuration":882494,"Delta":43218205},{"NoteNumber":46,"Velocity":61,"Duration":582674,"SoundDuration":582674,"Delta":44100700},{"NoteNumber":53,"Velocity":61,"Duration":552062,"SoundDuration":552062,"Delta":44131312},{"NoteNumber":58,"Velocity":73,"Duration":521450,"SoundDuration":521450,"Delta":44161924},{"NoteNumber":77,"Velocity":99,"Duration":490837,"SoundDuration":490837,"Delta":44192536},{"NoteNumber":82,"Velocity":99,"Duration":490837,"SoundDuration":490837,"Delta":44192536},{"NoteNumber":74,"Velocity":83,"Duration":490837,"SoundDuration":490837,"Delta":44192536},{"NoteNumber":70,"Velocity":83,"Duration":490837,"SoundDuration":490837,"Delta":44192536},{"NoteNumber":62,"Velocity":73,"Duration":490837,"SoundDuration":490837,"Delta":44192536},{"NoteNumber":67,"Velocity":81,"Duration":245419,"SoundDuration":245419,"Delta":44683374},{"NoteNumber":70,"Velocity":81,"Duration":245419,"SoundDuration":245419,"Delta":44683374},{"NoteNumber":75,"Velocity":96,"Duration":245419,"SoundDuration":245419,"Delta":44683374},{"NoteNumber":79,"Velocity":96,"Duration":245419,"SoundDuration":245419,"Delta":44683374},{"NoteNumber":58,"Velocity":66,"Duration":245419,"SoundDuration":245419,"Delta":44683374},{"NoteNumber":55,"Velocity":56,"Duration":245419,"SoundDuration":245419,"Delta":44683374},{"NoteNumber":51,"Velocity":56,"Duration":245419,"SoundDuration":245419,"Delta":44683374},{"NoteNumber":63,"Velocity":66,"Duration":245419,"SoundDuration":245419,"Delta":44683374},{"NoteNumber":87,"Velocity":79,"Duration":112612,"SoundDuration":112612,"Delta":45179823},{"NoteNumber":79,"Velocity":79,"Duration":112612,"SoundDuration":112612,"Delta":45179823},{"NoteNumber":67,"Velocity":73,"Duration":112612,"SoundDuration":112612,"Delta":45179823},{"NoteNumber":60,"Velocity":73,"Duration":112612,"SoundDuration":112612,"Delta":45179823},{"NoteNumber":75,"Velocity":70,"Duration":112612,"SoundDuration":112612,"Delta":45292435},{"NoteNumber":72,"Velocity":67,"Duration":112612,"SoundDuration":112612,"Delta":45405048},{"NoteNumber":75,"Velocity":70,"Duration":112612,"SoundDuration":112612,"Delta":45517660},{"NoteNumber":86,"Velocity":79,"Duration":112612,"SoundDuration":112612,"Delta":45630273},{"NoteNumber":79,"Velocity":79,"Duration":112612,"SoundDuration":112612,"Delta":45630273},{"NoteNumber":62,"Velocity":74,"Duration":112612,"SoundDuration":112612,"Delta":45630273},{"NoteNumber":59,"Velocity":74,"Duration":112612,"SoundDuration":112612,"Delta":45630273},{"NoteNumber":74,"Velocity":62,"Duration":112612,"SoundDuration":112612,"Delta":45742885},{"NoteNumber":71,"Velocity":67,"Duration":112612,"SoundDuration":112612,"Delta":45855498},{"NoteNumber":74,"Velocity":63,"Duration":112612,"SoundDuration":112612,"Delta":45968110},{"NoteNumber":84,"Velocity":77,"Duration":113515,"SoundDuration":113515,"Delta":46080723},{"NoteNumber":78,"Velocity":77,"Duration":113515,"SoundDuration":113515,"Delta":46080723},{"NoteNumber":62,"Velocity":72,"Duration":113515,"SoundDuration":113515,"Delta":46080723},{"NoteNumber":56,"Velocity":72,"Duration":113515,"SoundDuration":113515,"Delta":46080723},{"NoteNumber":72,"Velocity":63,"Duration":113516,"SoundDuration":113516,"Delta":46194239},{"NoteNumber":68,"Velocity":62,"Duration":113515,"SoundDuration":113515,"Delta":46307755},{"NoteNumber":72,"Velocity":63,"Duration":113516,"SoundDuration":113516,"Delta":46421271},{"NoteNumber":74,"Velocity":75,"Duration":113515,"SoundDuration":113515,"Delta":46534787},{"NoteNumber":79,"Velocity":75,"Duration":113515,"SoundDuration":113515,"Delta":46534787},{"NoteNumber":83,"Velocity":75,"Duration":113515,"SoundDuration":113515,"Delta":46534787},{"NoteNumber":55,"Velocity":71,"Duration":113515,"SoundDuration":113515,"Delta":46534787},{"NoteNumber":62,"Velocity":71,"Duration":113515,"SoundDuration":113515,"Delta":46534787},{"NoteNumber":71,"Velocity":62,"Duration":113515,"SoundDuration":113515,"Delta":46648303},{"NoteNumber":67,"Velocity":59,"Duration":116813,"SoundDuration":116813,"Delta":46761819},{"NoteNumber":71,"Velocity":62,"Duration":116813,"SoundDuration":116813,"Delta":46878632},{"NoteNumber":80,"Velocity":77,"Duration":113515,"SoundDuration":113515,"Delta":46995445},{"NoteNumber":74,"Velocity":77,"Duration":113515,"SoundDuration":113515,"Delta":46995445},{"NoteNumber":71,"Velocity":77,"Duration":113515,"SoundDuration":113515,"Delta":46995445},{"NoteNumber":53,"Velocity":70,"Duration":113515,"SoundDuration":113515,"Delta":46995445},{"NoteNumber":68,"Velocity":60,"Duration":113516,"SoundDuration":113516,"Delta":47108961},{"NoteNumber":65,"Velocity":57,"Duration":113668,"SoundDuration":113668,"Delta":47222477},{"NoteNumber":68,"Velocity":61,"Duration":113973,"SoundDuration":113973,"Delta":47336146},{"NoteNumber":72,"Velocity":75,"Duration":113973,"SoundDuration":113973,"Delta":47450119},{"NoteNumber":79,"Velocity":75,"Duration":113973,"SoundDuration":113973,"Delta":47450119},{"NoteNumber":51,"Velocity":67,"Duration":113973,"SoundDuration":113973,"Delta":47450119},{"NoteNumber":67,"Velocity":58,"Duration":114442,"SoundDuration":114442,"Delta":47564092},{"NoteNumber":63,"Velocity":56,"Duration":114442,"SoundDuration":114442,"Delta":47678534},{"NoteNumber":67,"Velocity":58,"Duration":114597,"SoundDuration":114597,"Delta":47792977},{"NoteNumber":67,"Velocity":73,"Duration":114907,"SoundDuration":114907,"Delta":47907575},{"NoteNumber":71,"Velocity":73,"Duration":114907,"SoundDuration":114907,"Delta":47907575},{"NoteNumber":77,"Velocity":73,"Duration":114907,"SoundDuration":114907,"Delta":47907575},{"NoteNumber":50,"Velocity":63,"Duration":114907,"SoundDuration":114907,"Delta":47907575},{"NoteNumber":65,"Velocity":57,"Duration":114907,"SoundDuration":114907,"Delta":48022482},{"NoteNumber":62,"Velocity":58,"Duration":115384,"SoundDuration":115384,"Delta":48137389},{"NoteNumber":65,"Velocity":57,"Duration":115384,"SoundDuration":115384,"Delta":48252774},{"NoteNumber":63,"Velocity":73,"Duration":236276,"SoundDuration":236276,"Delta":48368158},{"NoteNumber":75,"Velocity":86,"Duration":236276,"SoundDuration":236276,"Delta":48368158},{"NoteNumber":67,"Velocity":73,"Duration":236276,"SoundDuration":236276,"Delta":48368158},{"NoteNumber":72,"Velocity":73,"Duration":236276,"SoundDuration":236276,"Delta":48368158},{"NoteNumber":48,"Velocity":64,"Duration":236276,"SoundDuration":236276,"Delta":48368158},{"NoteNumber":67,"Velocity":83,"Duration":242267,"SoundDuration":242267,"Delta":48604435},{"NoteNumber":72,"Velocity":83,"Duration":242267,"SoundDuration":242267,"Delta":48604435},{"NoteNumber":75,"Velocity":99,"Duration":242267,"SoundDuration":242267,"Delta":48604435},{"NoteNumber":79,"Velocity":99,"Duration":242267,"SoundDuration":242267,"Delta":48604435},{"NoteNumber":63,"Velocity":70,"Duration":242267,"SoundDuration":242267,"Delta":48604435},{"NoteNumber":60,"Velocity":70,"Duration":242267,"SoundDuration":242267,"Delta":48604435},{"NoteNumber":68,"Velocity":83,"Duration":974330,"SoundDuration":974330,"Delta":48846702},{"NoteNumber":72,"Velocity":83,"Duration":974330,"SoundDuration":974330,"Delta":48846702},{"NoteNumber":80,"Velocity":100,"Duration":974330,"SoundDuration":974330,"Delta":48846702},{"NoteNumber":77,"Velocity":100,"Duration":974330,"SoundDuration":974330,"Delta":48846702},{"NoteNumber":56,"Velocity":59,"Duration":882494,"SoundDuration":882494,"Delta":48846702},{"NoteNumber":65,"Velocity":70,"Duration":882494,"SoundDuration":882494,"Delta":48846702},{"NoteNumber":60,"Velocity":70,"Duration":882494,"SoundDuration":882494,"Delta":48846702},{"NoteNumber":53,"Velocity":59,"Duration":882494,"SoundDuration":882494,"Delta":48846702},{"NoteNumber":46,"Velocity":53,"Duration":575707,"SoundDuration":575707,"Delta":49729196},{"NoteNumber":53,"Velocity":53,"Duration":545095,"SoundDuration":545095,"Delta":49759809},{"NoteNumber":58,"Velocity":63,"Duration":514483,"SoundDuration":514483,"Delta":49790421},{"NoteNumber":77,"Velocity":96,"Duration":483871,"SoundDuration":483871,"Delta":49821033},{"NoteNumber":74,"Velocity":81,"Duration":483871,"SoundDuration":483871,"Delta":49821033},{"NoteNumber":70,"Velocity":81,"Duration":483871,"SoundDuration":483871,"Delta":49821033},{"NoteNumber":82,"Velocity":96,"Duration":483871,"SoundDuration":483871,"Delta":49821033},{"NoteNumber":62,"Velocity":63,"Duration":483871,"SoundDuration":483871,"Delta":49821033},{"NoteNumber":75,"Velocity":92,"Duration":237266,"SoundDuration":237266,"Delta":50304904},{"NoteNumber":70,"Velocity":78,"Duration":237266,"SoundDuration":237266,"Delta":50304904},{"NoteNumber":67,"Velocity":78,"Duration":237266,"SoundDuration":237266,"Delta":50304904},{"NoteNumber":79,"Velocity":92,"Duration":237266,"SoundDuration":237266,"Delta":50304904},{"NoteNumber":63,"Velocity":66,"Duration":237266,"SoundDuration":237266,"Delta":50304904},{"NoteNumber":55,"Velocity":56,"Duration":237266,"SoundDuration":237266,"Delta":50304904},{"NoteNumber":58,"Velocity":66,"Duration":237266,"SoundDuration":237266,"Delta":50304904},{"NoteNumber":51,"Velocity":56,"Duration":237266,"SoundDuration":237266,"Delta":50304904},{"NoteNumber":75,"Velocity":92,"Duration":242267,"SoundDuration":242267,"Delta":50542171},{"NoteNumber":79,"Velocity":92,"Duration":242267,"SoundDuration":242267,"Delta":50542171},{"NoteNumber":67,"Velocity":78,"Duration":242267,"SoundDuration":242267,"Delta":50542171},{"NoteNumber":72,"Velocity":78,"Duration":242267,"SoundDuration":242267,"Delta":50542171},{"NoteNumber":60,"Velocity":66,"Duration":242267,"SoundDuration":242267,"Delta":50542171},{"NoteNumber":63,"Velocity":66,"Duration":242267,"SoundDuration":242267,"Delta":50542171},{"NoteNumber":68,"Velocity":83,"Duration":974330,"SoundDuration":974330,"Delta":50784438},{"NoteNumber":80,"Velocity":99,"Duration":974330,"SoundDuration":974330,"Delta":50784438},{"NoteNumber":77,"Velocity":99,"Duration":974330,"SoundDuration":974330,"Delta":50784438},{"NoteNumber":72,"Velocity":83,"Duration":974330,"SoundDuration":974330,"Delta":50784438},{"NoteNumber":56,"Velocity":59,"Duration":882494,"SoundDuration":882494,"Delta":50784438},{"NoteNumber":60,"Velocity":70,"Duration":882494,"SoundDuration":882494,"Delta":50784438},{"NoteNumber":65,"Velocity":70,"Duration":882494,"SoundDuration":882494,"Delta":50784438},{"NoteNumber":53,"Velocity":59,"Duration":882494,"SoundDuration":882494,"Delta":50784438},{"NoteNumber":46,"Velocity":61,"Duration":582674,"SoundDuration":582674,"Delta":51666932},{"NoteNumber":53,"Velocity":61,"Duration":552062,"SoundDuration":552062,"Delta":51697545},{"NoteNumber":58,"Velocity":73,"Duration":521450,"SoundDuration":521450,"Delta":51728157},{"NoteNumber":70,"Velocity":83,"Duration":490837,"SoundDuration":490837,"Delta":51758769},{"NoteNumber":82,"Velocity":99,"Duration":490837,"SoundDuration":490837,"Delta":51758769},{"NoteNumber":74,"Velocity":83,"Duration":490837,"SoundDuration":490837,"Delta":51758769},{"NoteNumber":77,"Velocity":99,"Duration":490837,"SoundDuration":490837,"Delta":51758769},{"NoteNumber":62,"Velocity":73,"Duration":490837,"SoundDuration":490837,"Delta":51758769},{"NoteNumber":67,"Velocity":81,"Duration":245419,"SoundDuration":245419,"Delta":52249607},{"NoteNumber":70,"Velocity":81,"Duration":245419,"SoundDuration":245419,"Delta":52249607},{"NoteNumber":75,"Velocity":96,"Duration":245419,"SoundDuration":245419,"Delta":52249607},{"NoteNumber":79,"Velocity":96,"Duration":245419,"SoundDuration":245419,"Delta":52249607},{"NoteNumber":63,"Velocity":66,"Duration":245419,"SoundDuration":245419,"Delta":52249607},{"NoteNumber":58,"Velocity":66,"Duration":245419,"SoundDuration":245419,"Delta":52249607},{"NoteNumber":55,"Velocity":56,"Duration":245419,"SoundDuration":245419,"Delta":52249607},{"NoteNumber":51,"Velocity":56,"Duration":245419,"SoundDuration":245419,"Delta":52249607},{"NoteNumber":79,"Velocity":79,"Duration":113096,"SoundDuration":113096,"Delta":52744464},{"NoteNumber":75,"Velocity":79,"Duration":113096,"SoundDuration":113096,"Delta":52744464},{"NoteNumber":51,"Velocity":73,"Duration":113096,"SoundDuration":113096,"Delta":52744464},{"NoteNumber":58,"Velocity":73,"Duration":113096,"SoundDuration":113096,"Delta":52744464},{"NoteNumber":67,"Velocity":70,"Duration":113096,"SoundDuration":113096,"Delta":52857560},{"NoteNumber":63,"Velocity":67,"Duration":113096,"SoundDuration":113096,"Delta":52970657},{"NoteNumber":67,"Velocity":70,"Duration":112646,"SoundDuration":112646,"Delta":53083753},{"NoteNumber":80,"Velocity":79,"Duration":112646,"SoundDuration":112646,"Delta":53196400},{"NoteNumber":75,"Velocity":79,"Duration":112646,"SoundDuration":112646,"Delta":53196400},{"NoteNumber":58,"Velocity":74,"Duration":112646,"SoundDuration":112646,"Delta":53196400},{"NoteNumber":53,"Velocity":74,"Duration":112646,"SoundDuration":112646,"Delta":53196400},{"NoteNumber":68,"Velocity":62,"Duration":112646,"SoundDuration":112646,"Delta":53309046},{"NoteNumber":65,"Velocity":67,"Duration":112199,"SoundDuration":112199,"Delta":53421693},{"NoteNumber":68,"Velocity":63,"Duration":112199,"SoundDuration":112199,"Delta":53533893},{"NoteNumber":82,"Velocity":77,"Duration":112199,"SoundDuration":112199,"Delta":53646092},{"NoteNumber":75,"Velocity":77,"Duration":112199,"SoundDuration":112199,"Delta":53646092},{"NoteNumber":58,"Velocity":72,"Duration":112199,"SoundDuration":112199,"Delta":53646092},{"NoteNumber":55,"Velocity":72,"Duration":112199,"SoundDuration":112199,"Delta":53646092},{"NoteNumber":70,"Velocity":63,"Duration":111765,"SoundDuration":111765,"Delta":53758292},{"NoteNumber":67,"Velocity":62,"Duration":111765,"SoundDuration":111765,"Delta":53870057},{"NoteNumber":70,"Velocity":63,"Duration":111618,"SoundDuration":111618,"Delta":53981823},{"NoteNumber":84,"Velocity":75,"Duration":111765,"SoundDuration":111765,"Delta":54093441},{"NoteNumber":75,"Velocity":75,"Duration":111765,"SoundDuration":111765,"Delta":54093441},{"NoteNumber":56,"Velocity":71,"Duration":111765,"SoundDuration":111765,"Delta":54093441},{"NoteNumber":63,"Velocity":71,"Duration":111765,"SoundDuration":111765,"Delta":54093441},{"NoteNumber":72,"Velocity":62,"Duration":111765,"SoundDuration":111765,"Delta":54205207},{"NoteNumber":68,"Velocity":59,"Duration":113550,"SoundDuration":113550,"Delta":54316972},{"NoteNumber":72,"Velocity":62,"Duration":113550,"SoundDuration":113550,"Delta":54430522},{"NoteNumber":79,"Velocity":77,"Duration":112646,"SoundDuration":112646,"Delta":54544072},{"NoteNumber":83,"Velocity":77,"Duration":112646,"SoundDuration":112646,"Delta":54544072},{"NoteNumber":55,"Velocity":70,"Duration":112646,"SoundDuration":112646,"Delta":54544072},{"NoteNumber":62,"Velocity":70,"Duration":112646,"SoundDuration":112646,"Delta":54544072},{"NoteNumber":71,"Velocity":60,"Duration":112646,"SoundDuration":112646,"Delta":54656719},{"NoteNumber":67,"Velocity":57,"Duration":112646,"SoundDuration":112646,"Delta":54769365},{"NoteNumber":71,"Velocity":61,"Duration":112646,"SoundDuration":112646,"Delta":54882012},{"NoteNumber":84,"Velocity":75,"Duration":112646,"SoundDuration":112646,"Delta":54994658},{"NoteNumber":79,"Velocity":75,"Duration":112646,"SoundDuration":112646,"Delta":54994658},{"NoteNumber":62,"Velocity":67,"Duration":112646,"SoundDuration":112646,"Delta":54994658},{"NoteNumber":57,"Velocity":67,"Duration":112646,"SoundDuration":112646,"Delta":54994658},{"NoteNumber":72,"Velocity":58,"Duration":112646,"SoundDuration":112646,"Delta":55107305},{"NoteNumber":69,"Velocity":56,"Duration":112646,"SoundDuration":112646,"Delta":55219951},{"NoteNumber":72,"Velocity":58,"Duration":112646,"SoundDuration":112646,"Delta":55332598},{"NoteNumber":86,"Velocity":73,"Duration":112646,"SoundDuration":112646,"Delta":55445244},{"NoteNumber":79,"Velocity":73,"Duration":112646,"SoundDuration":112646,"Delta":55445244},{"NoteNumber":62,"Velocity":63,"Duration":112646,"SoundDuration":112646,"Delta":55445244},{"NoteNumber":59,"Velocity":63,"Duration":112646,"SoundDuration":112646,"Delta":55445244},{"NoteNumber":74,"Velocity":57,"Duration":112646,"SoundDuration":112646,"Delta":55557891},{"NoteNumber":71,"Velocity":58,"Duration":115883,"SoundDuration":115883,"Delta":55670537},{"NoteNumber":74,"Velocity":57,"Duration":115883,"SoundDuration":115883,"Delta":55786421},{"NoteNumber":79,"Velocity":73,"Duration":236276,"SoundDuration":236276,"Delta":55902305},{"NoteNumber":75,"Velocity":73,"Duration":236276,"SoundDuration":236276,"Delta":55902305},{"NoteNumber":87,"Velocity":86,"Duration":236276,"SoundDuration":236276,"Delta":55902305},{"NoteNumber":60,"Velocity":70,"Duration":236276,"SoundDuration":236276,"Delta":55902305},{"NoteNumber":72,"Velocity":70,"Duration":236276,"SoundDuration":236276,"Delta":55902305},{"NoteNumber":67,"Velocity":70,"Duration":236276,"SoundDuration":236276,"Delta":55902305},{"NoteNumber":75,"Velocity":83,"Duration":242267,"SoundDuration":242267,"Delta":56138581},{"NoteNumber":79,"Velocity":83,"Duration":242267,"SoundDuration":242267,"Delta":56138581},{"NoteNumber":87,"Velocity":99,"Duration":242267,"SoundDuration":242267,"Delta":56138581},{"NoteNumber":84,"Velocity":99,"Duration":242267,"SoundDuration":242267,"Delta":56138581},{"NoteNumber":60,"Velocity":63,"Duration":242267,"SoundDuration":242267,"Delta":56138581},{"NoteNumber":70,"Velocity":63,"Duration":242267,"SoundDuration":242267,"Delta":56138581},{"NoteNumber":58,"Velocity":63,"Duration":242267,"SoundDuration":242267,"Delta":56138581},{"NoteNumber":89,"Velocity":100,"Duration":970695,"SoundDuration":970695,"Delta":56380849},{"NoteNumber":84,"Velocity":100,"Duration":970695,"SoundDuration":970695,"Delta":56380849},{"NoteNumber":77,"Velocity":83,"Duration":970695,"SoundDuration":970695,"Delta":56380849},{"NoteNumber":57,"Velocity":70,"Duration":727780,"SoundDuration":727780,"Delta":56380849},{"NoteNumber":69,"Velocity":70,"Duration":727780,"SoundDuration":727780,"Delta":56380849},{"NoteNumber":60,"Velocity":70,"Duration":727780,"SoundDuration":727780,"Delta":56380849},{"NoteNumber":53,"Velocity":59,"Duration":242915,"SoundDuration":242915,"Delta":57108629},{"NoteNumber":65,"Velocity":59,"Duration":242915,"SoundDuration":242915,"Delta":57108629},{"NoteNumber":85,"Velocity":96,"Duration":483871,"SoundDuration":483871,"Delta":57351544},{"NoteNumber":77,"Velocity":96,"Duration":483871,"SoundDuration":483871,"Delta":57351544},{"NoteNumber":73,"Velocity":81,"Duration":483871,"SoundDuration":483871,"Delta":57351544},{"NoteNumber":67,"Velocity":62,"Duration":241935,"SoundDuration":241935,"Delta":57351544},{"NoteNumber":55,"Velocity":62,"Duration":241935,"SoundDuration":241935,"Delta":57351544},{"NoteNumber":69,"Velocity":66,"Duration":241935,"SoundDuration":241935,"Delta":57593480},{"NoteNumber":57,"Velocity":66,"Duration":241935,"SoundDuration":241935,"Delta":57593480},{"NoteNumber":74,"Velocity":78,"Duration":237266,"SoundDuration":237266,"Delta":57835415},{"NoteNumber":86,"Velocity":92,"Duration":237266,"SoundDuration":237266,"Delta":57835415},{"NoteNumber":77,"Velocity":92,"Duration":237266,"SoundDuration":237266,"Delta":57835415},{"NoteNumber":70,"Velocity":69,"Duration":237266,"SoundDuration":237266,"Delta":57835415},{"NoteNumber":58,"Velocity":69,"Duration":237266,"SoundDuration":237266,"Delta":57835415},{"NoteNumber":84,"Velocity":92,"Duration":242267,"SoundDuration":242267,"Delta":58072682},{"NoteNumber":87,"Velocity":92,"Duration":242267,"SoundDuration":242267,"Delta":58072682},{"NoteNumber":75,"Velocity":78,"Duration":242267,"SoundDuration":242267,"Delta":58072682},{"NoteNumber":79,"Velocity":78,"Duration":242267,"SoundDuration":242267,"Delta":58072682},{"NoteNumber":60,"Velocity":63,"Duration":242267,"SoundDuration":242267,"Delta":58072682},{"NoteNumber":70,"Velocity":63,"Duration":242267,"SoundDuration":242267,"Delta":58072682},{"NoteNumber":58,"Velocity":63,"Duration":242267,"SoundDuration":242267,"Delta":58072682},{"NoteNumber":77,"Velocity":83,"Duration":970365,"SoundDuration":970365,"Delta":58314949},{"NoteNumber":84,"Velocity":99,"Duration":970365,"SoundDuration":970365,"Delta":58314949},{"NoteNumber":89,"Velocity":99,"Duration":970365,"SoundDuration":970365,"Delta":58314949},{"NoteNumber":60,"Velocity":69,"Duration":727450,"SoundDuration":727450,"Delta":58314949},{"NoteNumber":69,"Velocity":69,"Duration":727450,"SoundDuration":727450,"Delta":58314949},{"NoteNumber":57,"Velocity":69,"Duration":727450,"SoundDuration":727450,"Delta":58314949},{"NoteNumber":65,"Velocity":61,"Duration":242914,"SoundDuration":242914,"Delta":59042399},{"NoteNumber":53,"Velocity":61,"Duration":242914,"SoundDuration":242914,"Delta":59042399},{"NoteNumber":73,"Velocity":83,"Duration":490837,"SoundDuration":490837,"Delta":59285314},{"NoteNumber":77,"Velocity":99,"Duration":490837,"SoundDuration":490837,"Delta":59285314},{"NoteNumber":85,"Velocity":99,"Duration":490837,"SoundDuration":490837,"Delta":59285314},{"NoteNumber":67,"Velocity":63,"Duration":245418,"SoundDuration":245418,"Delta":59285314},{"NoteNumber":55,"Velocity":63,"Duration":245418,"SoundDuration":245418,"Delta":59285314},{"NoteNumber":57,"Velocity":64,"Duration":245418,"SoundDuration":245418,"Delta":59530733},{"NoteNumber":69,"Velocity":64,"Duration":245418,"SoundDuration":245418,"Delta":59530733},{"NoteNumber":86,"Velocity":75,"Duration":112191,"SoundDuration":112191,"Delta":59776152},{"NoteNumber":82,"Velocity":75,"Duration":112191,"SoundDuration":112191,"Delta":59776152},{"NoteNumber":77,"Velocity":75,"Duration":112191,"SoundDuration":112191,"Delta":59776152},{"NoteNumber":58,"Velocity":71,"Duration":112191,"SoundDuration":112191,"Delta":59776152},{"NoteNumber":65,"Velocity":71,"Duration":112191,"SoundDuration":112191,"Delta":59776152},{"NoteNumber":74,"Velocity":62,"Duration":112191,"SoundDuration":112191,"Delta":59888344},{"NoteNumber":70,"Velocity":59,"Duration":113533,"SoundDuration":113533,"Delta":60000535},{"NoteNumber":74,"Velocity":62,"Duration":113533,"SoundDuration":113533,"Delta":60114069},{"NoteNumber":78,"Velocity":77,"Duration":113079,"SoundDuration":113079,"Delta":60227602},{"NoteNumber":81,"Velocity":77,"Duration":113079,"SoundDuration":113079,"Delta":60227602},{"NoteNumber":63,"Velocity":70,"Duration":113079,"SoundDuration":113079,"Delta":60227602},{"NoteNumber":58,"Velocity":70,"Duration":113079,"SoundDuration":113079,"Delta":60227602},{"NoteNumber":69,"Velocity":60,"Duration":113079,"SoundDuration":113079,"Delta":60340681},{"NoteNumber":66,"Velocity":57,"Duration":113079,"SoundDuration":113079,"Delta":60453761},{"NoteNumber":69,"Velocity":61,"Duration":113079,"SoundDuration":113079,"Delta":60566840},{"NoteNumber":82,"Velocity":75,"Duration":113079,"SoundDuration":113079,"Delta":60679920},{"NoteNumber":77,"Velocity":75,"Duration":113079,"SoundDuration":113079,"Delta":60679920},{"NoteNumber":62,"Velocity":67,"Duration":113079,"SoundDuration":113079,"Delta":60679920},{"NoteNumber":58,"Velocity":67,"Duration":113079,"SoundDuration":113079,"Delta":60679920},{"NoteNumber":70,"Velocity":58,"Duration":113079,"SoundDuration":113079,"Delta":60792999},{"NoteNumber":65,"Velocity":56,"Duration":113079,"SoundDuration":113079,"Delta":60906079},{"NoteNumber":70,"Velocity":58,"Duration":113079,"SoundDuration":113079,"Delta":61019158},{"NoteNumber":78,"Velocity":73,"Duration":113079,"SoundDuration":113079,"Delta":61132238},{"NoteNumber":69,"Velocity":73,"Duration":113079,"SoundDuration":113079,"Delta":61132238},{"NoteNumber":46,"Velocity":63,"Duration":113079,"SoundDuration":113079,"Delta":61132238},{"NoteNumber":66,"Velocity":57,"Duration":113079,"SoundDuration":113079,"Delta":61245317},{"NoteNumber":63,"Velocity":58,"Duration":116333,"SoundDuration":116333,"Delta":61358397},{"NoteNumber":66,"Velocity":57,"Duration":116333,"SoundDuration":116333,"Delta":61474730},{"NoteNumber":77,"Velocity":72,"Duration":112191,"SoundDuration":112191,"Delta":61591063},{"NoteNumber":70,"Velocity":72,"Duration":112191,"SoundDuration":112191,"Delta":61591063},{"NoteNumber":46,"Velocity":64,"Duration":112191,"SoundDuration":112191,"Delta":61591063},{"NoteNumber":65,"Velocity":56,"Duration":112191,"SoundDuration":112191,"Delta":61703255},{"NoteNumber":62,"Velocity":55,"Duration":113533,"SoundDuration":113533,"Delta":61815446},{"NoteNumber":65,"Velocity":56,"Duration":113533,"SoundDuration":113533,"Delta":61928980},{"NoteNumber":66,"Velocity":69,"Duration":113079,"SoundDuration":113079,"Delta":62042513},{"NoteNumber":69,"Velocity":69,"Duration":113079,"SoundDuration":113079,"Delta":62042513},{"NoteNumber":46,"Velocity":63,"Duration":113079,"SoundDuration":113079,"Delta":62042513},{"NoteNumber":63,"Velocity":57,"Duration":113079,"SoundDuration":113079,"Delta":62155592},{"NoteNumber":60,"Velocity":55,"Duration":113079,"SoundDuration":113079,"Delta":62268672},{"NoteNumber":63,"Velocity":53,"Duration":113079,"SoundDuration":113079,"Delta":62381751},{"NoteNumber":70,"Velocity":68,"Duration":113079,"SoundDuration":113079,"Delta":62494831},{"NoteNumber":65,"Velocity":68,"Duration":113079,"SoundDuration":113079,"Delta":62494831},{"NoteNumber":46,"Velocity":63,"Duration":113079,"SoundDuration":113079,"Delta":62494831},{"NoteNumber":62,"Velocity":56,"Duration":113079,"SoundDuration":113079,"Delta":62607910},{"NoteNumber":58,"Velocity":55,"Duration":113079,"SoundDuration":113079,"Delta":62720990},{"NoteNumber":62,"Velocity":57,"Duration":113079,"SoundDuration":113079,"Delta":62834069},{"NoteNumber":63,"Velocity":64,"Duration":113079,"SoundDuration":113079,"Delta":62947149},{"NoteNumber":57,"Velocity":64,"Duration":113079,"SoundDuration":113079,"Delta":62947149},{"NoteNumber":34,"Velocity":62,"Duration":113079,"SoundDuration":113079,"Delta":62947149},{"NoteNumber":54,"Velocity":56,"Duration":113079,"SoundDuration":113079,"Delta":63060228},{"NoteNumber":51,"Velocity":56,"Duration":116333,"SoundDuration":116333,"Delta":63173308},{"NoteNumber":54,"Velocity":56,"Duration":116333,"SoundDuration":116333,"Delta":63289641},{"NoteNumber":65,"Velocity":67,"Duration":112191,"SoundDuration":112191,"Delta":63405974},{"NoteNumber":58,"Velocity":67,"Duration":112191,"SoundDuration":112191,"Delta":63405974},{"NoteNumber":34,"Velocity":59,"Duration":112191,"SoundDuration":112191,"Delta":63405974},{"NoteNumber":53,"Velocity":51,"Duration":112191,"SoundDuration":112191,"Delta":63518166},{"NoteNumber":50,"Velocity":50,"Duration":113533,"SoundDuration":113533,"Delta":63630357},{"NoteNumber":53,"Velocity":51,"Duration":113533,"SoundDuration":113533,"Delta":63743891},{"NoteNumber":54,"Velocity":63,"Duration":113079,"SoundDuration":113079,"Delta":63857424},{"NoteNumber":57,"Velocity":63,"Duration":113079,"SoundDuration":113079,"Delta":63857424},{"NoteNumber":34,"Velocity":58,"Duration":113079,"SoundDuration":113079,"Delta":63857424},{"NoteNumber":51,"Velocity":52,"Duration":113079,"SoundDuration":113079,"Delta":63970503},{"NoteNumber":48,"Velocity":50,"Duration":113079,"SoundDuration":113079,"Delta":64083583},{"NoteNumber":51,"Velocity":49,"Duration":113079,"SoundDuration":113079,"Delta":64196662},{"NoteNumber":58,"Velocity":62,"Duration":113079,"SoundDuration":113079,"Delta":64309742},{"NoteNumber":53,"Velocity":62,"Duration":113079,"SoundDuration":113079,"Delta":64309742},{"NoteNumber":34,"Velocity":58,"Duration":113079,"SoundDuration":113079,"Delta":64309742},{"NoteNumber":50,"Velocity":51,"Duration":113079,"SoundDuration":113079,"Delta":64422821},{"NoteNumber":46,"Velocity":50,"Duration":113079,"SoundDuration":113079,"Delta":64535901},{"NoteNumber":50,"Velocity":52,"Duration":113079,"SoundDuration":113079,"Delta":64648980},{"NoteNumber":57,"Velocity":59,"Duration":113079,"SoundDuration":113079,"Delta":64762060},{"NoteNumber":51,"Velocity":59,"Duration":113079,"SoundDuration":113079,"Delta":64762060},{"NoteNumber":34,"Velocity":58,"Duration":113079,"SoundDuration":113079,"Delta":64762060},{"NoteNumber":48,"Velocity":51,"Duration":113079,"SoundDuration":113079,"Delta":64875139},{"NoteNumber":42,"Velocity":51,"Duration":116333,"SoundDuration":116333,"Delta":64988219},{"NoteNumber":48,"Velocity":51,"Duration":116333,"SoundDuration":116333,"Delta":65104552},{"NoteNumber":50,"Velocity":59,"Duration":112191,"SoundDuration":112191,"Delta":65220885},{"NoteNumber":58,"Velocity":59,"Duration":112191,"SoundDuration":112191,"Delta":65220885},{"NoteNumber":34,"Velocity":52,"Duration":112191,"SoundDuration":112191,"Delta":65220885},{"NoteNumber":46,"Velocity":46,"Duration":112191,"SoundDuration":112191,"Delta":65333077},{"NoteNumber":41,"Velocity":45,"Duration":113533,"SoundDuration":113533,"Delta":65445268},{"NoteNumber":46,"Velocity":46,"Duration":113533,"SoundDuration":113533,"Delta":65558802},{"NoteNumber":51,"Velocity":57,"Duration":113079,"SoundDuration":113079,"Delta":65672335},{"NoteNumber":57,"Velocity":57,"Duration":113079,"SoundDuration":113079,"Delta":65672335},{"NoteNumber":34,"Velocity":51,"Duration":113079,"SoundDuration":113079,"Delta":65672335},{"NoteNumber":48,"Velocity":47,"Duration":113079,"SoundDuration":113079,"Delta":65785414},{"NoteNumber":42,"Velocity":45,"Duration":113079,"SoundDuration":113079,"Delta":65898494},{"NoteNumber":48,"Velocity":44,"Duration":113079,"SoundDuration":113079,"Delta":66011573},{"NoteNumber":50,"Velocity":56,"Duration":113079,"SoundDuration":113079,"Delta":66124653},{"NoteNumber":58,"Velocity":56,"Duration":113079,"SoundDuration":113079,"Delta":66124653},{"NoteNumber":34,"Velocity":51,"Duration":113079,"SoundDuration":113079,"Delta":66124653},{"NoteNumber":46,"Velocity":46,"Duration":113079,"SoundDuration":113079,"Delta":66237732},{"NoteNumber":41,"Velocity":45,"Duration":113079,"SoundDuration":113079,"Delta":66350812},{"NoteNumber":46,"Velocity":47,"Duration":113079,"SoundDuration":113079,"Delta":66463891},{"NoteNumber":57,"Velocity":52,"Duration":113079,"SoundDuration":113079,"Delta":66576971},{"NoteNumber":51,"Velocity":52,"Duration":113079,"SoundDuration":113079,"Delta":66576971},{"NoteNumber":34,"Velocity":51,"Duration":113079,"SoundDuration":113079,"Delta":66576971},{"NoteNumber":48,"Velocity":46,"Duration":113079,"SoundDuration":113079,"Delta":66690050},{"NoteNumber":42,"Velocity":46,"Duration":116333,"SoundDuration":116333,"Delta":66803130},{"NoteNumber":48,"Velocity":46,"Duration":116333,"SoundDuration":116333,"Delta":66919463},{"NoteNumber":50,"Velocity":59,"Duration":239999,"SoundDuration":239999,"Delta":67035796},{"NoteNumber":58,"Velocity":59,"Duration":239999,"SoundDuration":239999,"Delta":67035796},{"NoteNumber":34,"Velocity":45,"Duration":159999,"SoundDuration":159999,"Delta":67035796},{"NoteNumber":41,"Velocity":43,"Duration":159999,"SoundDuration":159999,"Delta":67195796},{"NoteNumber":46,"Velocity":43,"Duration":160000,"SoundDuration":160000,"Delta":67355796},{"NoteNumber":50,"Velocity":49,"Duration":159999,"SoundDuration":159999,"Delta":67515796},{"NoteNumber":53,"Velocity":51,"Duration":159999,"SoundDuration":159999,"Delta":67675796},{"NoteNumber":58,"Velocity":49,"Duration":159999,"SoundDuration":159999,"Delta":67835796},{"NoteNumber":62,"Velocity":52,"Duration":159522,"SoundDuration":159522,"Delta":67995796},{"NoteNumber":58,"Velocity":54,"Duration":160321,"SoundDuration":160321,"Delta":68155318},{"NoteNumber":62,"Velocity":56,"Duration":161291,"SoundDuration":161291,"Delta":68315640},{"NoteNumber":65,"Velocity":58,"Duration":162272,"SoundDuration":162272,"Delta":68476931},{"NoteNumber":70,"Velocity":60,"Duration":163099,"SoundDuration":163099,"Delta":68639204},{"NoteNumber":74,"Velocity":61,"Duration":164271,"SoundDuration":164271,"Delta":68802303},{"NoteNumber":63,"Velocity":64,"Duration":1003849,"SoundDuration":1003849,"Delta":68966575},{"NoteNumber":75,"Velocity":79,"Duration":756773,"SoundDuration":756773,"Delta":68966575},{"NoteNumber":67,"Velocity":64,"Duration":756773,"SoundDuration":756773,"Delta":68966575},{"NoteNumber":51,"Velocity":45,"Duration":1508220,"SoundDuration":1508220,"Delta":68966575},{"NoteNumber":58,"Velocity":56,"Duration":168340,"SoundDuration":168340,"Delta":68966575},{"NoteNumber":57,"Velocity":45,"Duration":168123,"SoundDuration":168123,"Delta":69134915},{"NoteNumber":58,"Velocity":45,"Duration":168123,"SoundDuration":168123,"Delta":69303039},{"NoteNumber":60,"Velocity":51,"Duration":168123,"SoundDuration":168123,"Delta":69471163},{"NoteNumber":57,"Velocity":46,"Duration":166420,"SoundDuration":166420,"Delta":69639286},{"NoteNumber":67,"Velocity":68,"Duration":247076,"SoundDuration":247076,"Delta":69723348},{"NoteNumber":60,"Velocity":46,"Duration":164717,"SoundDuration":164717,"Delta":69805707},{"NoteNumber":63,"Velocity":56,"Duration":504371,"SoundDuration":504371,"Delta":69970425},{"NoteNumber":67,"Velocity":56,"Duration":504371,"SoundDuration":504371,"Delta":69970425},{"NoteNumber":70,"Velocity":71,"Duration":504371,"SoundDuration":504371,"Delta":69970425},{"NoteNumber":58,"Velocity":55,"Duration":1008980,"SoundDuration":1008980,"Delta":69970425},{"NoteNumber":72,"Velocity":70,"Duration":247076,"SoundDuration":247076,"Delta":70474796},{"NoteNumber":67,"Velocity":57,"Duration":247076,"SoundDuration":247076,"Delta":70474796},{"NoteNumber":63,"Velocity":57,"Duration":504609,"SoundDuration":504609,"Delta":70474796},{"NoteNumber":46,"Velocity":39,"Duration":504609,"SoundDuration":504609,"Delta":70474796},{"NoteNumber":67,"Velocity":65,"Duration":257532,"SoundDuration":257532,"Delta":70721872},{"NoteNumber":70,"Velocity":71,"Duration":1013942,"SoundDuration":1013942,"Delta":70979405},{"NoteNumber":67,"Velocity":60,"Duration":1013942,"SoundDuration":1013942,"Delta":70979405},{"NoteNumber":63,"Velocity":60,"Duration":1013942,"SoundDuration":1013942,"Delta":70979405},{"NoteNumber":58,"Velocity":51,"Duration":168990,"SoundDuration":168990,"Delta":70979405},{"NoteNumber":51,"Velocity":46,"Duration":1501637,"SoundDuration":1501637,"Delta":70979405},{"NoteNumber":57,"Velocity":45,"Duration":168990,"SoundDuration":168990,"Delta":71148395},{"NoteNumber":58,"Velocity":45,"Duration":168990,"SoundDuration":168990,"Delta":71317386},{"NoteNumber":60,"Velocity":49,"Duration":168990,"SoundDuration":168990,"Delta":71486376},{"NoteNumber":57,"Velocity":46,"Duration":168990,"SoundDuration":168990,"Delta":71655366},{"NoteNumber":60,"Velocity":46,"Duration":168990,"SoundDuration":168990,"Delta":71824357},{"NoteNumber":63,"Velocity":53,"Duration":487695,"SoundDuration":487695,"Delta":71993347},{"NoteNumber":67,"Velocity":57,"Duration":487695,"SoundDuration":487695,"Delta":71993347},{"NoteNumber":70,"Velocity":70,"Duration":262415,"SoundDuration":262415,"Delta":71993347},{"NoteNumber":58,"Velocity":56,"Duration":979215,"SoundDuration":979215,"Delta":71993347},{"NoteNumber":72,"Velocity":61,"Duration":245760,"SoundDuration":245760,"Delta":72235283},{"NoteNumber":63,"Velocity":59,"Duration":491519,"SoundDuration":491519,"Delta":72481043},{"NoteNumber":67,"Velocity":70,"Duration":262734,"SoundDuration":262734,"Delta":72481043},{"NoteNumber":46,"Velocity":44,"Duration":491519,"SoundDuration":491519,"Delta":72481043},{"NoteNumber":72,"Velocity":59,"Duration":249583,"SoundDuration":249583,"Delta":72722979},{"NoteNumber":67,"Velocity":60,"Duration":1174031,"SoundDuration":1174031,"Delta":72972563},{"NoteNumber":63,"Velocity":60,"Duration":1174031,"SoundDuration":1174031,"Delta":72972563},{"NoteNumber":70,"Velocity":71,"Duration":1174031,"SoundDuration":1174031,"Delta":72972563},{"NoteNumber":51,"Velocity":41,"Duration":1502574,"SoundDuration":1502574,"Delta":72972563},{"NoteNumber":58,"Velocity":51,"Duration":168123,"SoundDuration":168123,"Delta":72972563},{"NoteNumber":57,"Velocity":45,"Duration":168123,"SoundDuration":168123,"Delta":73140686},{"NoteNumber":58,"Velocity":45,"Duration":168123,"SoundDuration":168123,"Delta":73308810},{"NoteNumber":60,"Velocity":51,"Duration":168123,"SoundDuration":168123,"Delta":73476934},{"NoteNumber":57,"Velocity":47,"Duration":168123,"SoundDuration":168123,"Delta":73645057},{"NoteNumber":60,"Velocity":47,"Duration":168123,"SoundDuration":168123,"Delta":73813181},{"NoteNumber":58,"Velocity":57,"Duration":990333,"SoundDuration":990333,"Delta":73981305},{"NoteNumber":62,"Velocity":57,"Duration":164608,"SoundDuration":164608,"Delta":74146594},{"NoteNumber":63,"Velocity":57,"Duration":163934,"SoundDuration":163934,"Delta":74311203},{"NoteNumber":67,"Velocity":58,"Duration":163099,"SoundDuration":163099,"Delta":74475137},{"NoteNumber":46,"Velocity":45,"Duration":496501,"SoundDuration":496501,"Delta":74475137},{"NoteNumber":70,"Velocity":62,"Duration":165334,"SoundDuration":165334,"Delta":74638237},{"NoteNumber":75,"Velocity":66,"Duration":168067,"SoundDuration":168067,"Delta":74803571},{"NoteNumber":77,"Velocity":75,"Duration":776996,"SoundDuration":776996,"Delta":74971638},{"NoteNumber":65,"Velocity":63,"Duration":776996,"SoundDuration":776996,"Delta":74971638},{"NoteNumber":70,"Velocity":63,"Duration":1508998,"SoundDuration":1508998,"Delta":74971638},{"NoteNumber":62,"Velocity":50,"Duration":168067,"SoundDuration":168067,"Delta":74971638},{"NoteNumber":58,"Velocity":46,"Duration":252100,"SoundDuration":252100,"Delta":74971638},{"NoteNumber":51,"Velocity":46,"Duration":252100,"SoundDuration":252100,"Delta":74971638},{"NoteNumber":61,"Velocity":45,"Duration":168067,"SoundDuration":168067,"Delta":75139706},{"NoteNumber":62,"Velocity":45,"Duration":168067,"SoundDuration":168067,"Delta":75307773},{"NoteNumber":63,"Velocity":49,"Duration":168067,"SoundDuration":168067,"Delta":75475840},{"NoteNumber":61,"Velocity":46,"Duration":166808,"SoundDuration":166808,"Delta":75643908},{"NoteNumber":79,"Velocity":69,"Duration":269339,"SoundDuration":269339,"Delta":75727941},{"NoteNumber":67,"Velocity":57,"Duration":269339,"SoundDuration":269339,"Delta":75727941},{"NoteNumber":63,"Velocity":46,"Duration":165549,"SoundDuration":165549,"Delta":75810716},{"NoteNumber":65,"Velocity":63,"Duration":504371,"SoundDuration":504371,"Delta":75976265},{"NoteNumber":77,"Velocity":75,"Duration":504371,"SoundDuration":504371,"Delta":75976265},{"NoteNumber":62,"Velocity":57,"Duration":252185,"SoundDuration":252185,"Delta":75976265},{"NoteNumber":72,"Velocity":72,"Duration":245801,"SoundDuration":245801,"Delta":76480636},{"NoteNumber":60,"Velocity":61,"Duration":267036,"SoundDuration":267036,"Delta":76480636},{"NoteNumber":68,"Velocity":61,"Duration":521636,"SoundDuration":521636,"Delta":76480636},{"NoteNumber":46,"Velocity":41,"Duration":500621,"SoundDuration":500621,"Delta":76480636},{"NoteNumber":58,"Velocity":50,"Duration":500621,"SoundDuration":500621,"Delta":76480636},{"NoteNumber":62,"Velocity":59,"Duration":254820,"SoundDuration":254820,"Delta":76726437},{"NoteNumber":74,"Velocity":70,"Duration":254820,"SoundDuration":254820,"Delta":76726437},{"NoteNumber":63,"Velocity":63,"Duration":1252644,"SoundDuration":1252644,"Delta":76981258},{"NoteNumber":67,"Velocity":63,"Duration":1502603,"SoundDuration":1502603,"Delta":76981258},{"NoteNumber":75,"Velocity":75,"Duration":1252644,"SoundDuration":1252644,"Delta":76981258},{"NoteNumber":51,"Velocity":45,"Duration":1502603,"SoundDuration":1502603,"Delta":76981258},{"NoteNumber":58,"Velocity":51,"Duration":168123,"SoundDuration":168123,"Delta":76981258},{"NoteNumber":57,"Velocity":45,"Duration":168123,"SoundDuration":168123,"Delta":77149382},{"NoteNumber":58,"Velocity":45,"Duration":168123,"SoundDuration":168123,"Delta":77317505},{"NoteNumber":60,"Velocity":49,"Duration":168123,"SoundDuration":168123,"Delta":77485629},{"NoteNumber":57,"Velocity":45,"Duration":168123,"SoundDuration":168123,"Delta":77653753},{"NoteNumber":60,"Velocity":45,"Duration":168123,"SoundDuration":168123,"Delta":77821876},{"NoteNumber":58,"Velocity":57,"Duration":243902,"SoundDuration":243902,"Delta":77990000},{"NoteNumber":62,"Velocity":52,"Duration":270524,"SoundDuration":270524,"Delta":78233902},{"NoteNumber":74,"Velocity":62,"Duration":270524,"SoundDuration":270524,"Delta":78233902},{"NoteNumber":72,"Velocity":67,"Duration":268252,"SoundDuration":268252,"Delta":78483861},{"NoteNumber":60,"Velocity":56,"Duration":268252,"SoundDuration":268252,"Delta":78483861},{"NoteNumber":68,"Velocity":56,"Duration":504324,"SoundDuration":504324,"Delta":78483861},{"NoteNumber":58,"Velocity":50,"Duration":504324,"SoundDuration":504324,"Delta":78483861},{"NoteNumber":46,"Velocity":41,"Duration":504324,"SoundDuration":504324,"Delta":78483861},{"NoteNumber":62,"Velocity":47,"Duration":257532,"SoundDuration":257532,"Delta":78730652},{"NoteNumber":74,"Velocity":57,"Duration":257532,"SoundDuration":257532,"Delta":78730652},{"NoteNumber":63,"Velocity":55,"Duration":504371,"SoundDuration":504371,"Delta":78988185},{"NoteNumber":67,"Velocity":55,"Duration":504371,"SoundDuration":504371,"Delta":78988185},{"NoteNumber":70,"Velocity":69,"Duration":504371,"SoundDuration":504371,"Delta":78988185},{"NoteNumber":58,"Velocity":49,"Duration":168123,"SoundDuration":168123,"Delta":78988185},{"NoteNumber":51,"Velocity":46,"Duration":1507598,"SoundDuration":1507598,"Delta":78988185},{"NoteNumber":57,"Velocity":45,"Duration":168123,"SoundDuration":168123,"Delta":79156309},{"NoteNumber":58,"Velocity":45,"Duration":168123,"SoundDuration":168123,"Delta":79324433},{"NoteNumber":63,"Velocity":53,"Duration":752202,"SoundDuration":752202,"Delta":79492556},{"NoteNumber":67,"Velocity":53,"Duration":1003227,"SoundDuration":1003227,"Delta":79492556},{"NoteNumber":70,"Velocity":66,"Duration":1003227,"SoundDuration":1003227,"Delta":79492556},{"NoteNumber":60,"Velocity":49,"Duration":168123,"SoundDuration":168123,"Delta":79492556},{"NoteNumber":57,"Velocity":47,"Duration":168123,"SoundDuration":168123,"Delta":79660680},{"NoteNumber":60,"Velocity":47,"Duration":168123,"SoundDuration":168123,"Delta":79828804},{"NoteNumber":58,"Velocity":57,"Duration":999837,"SoundDuration":999837,"Delta":79996927},{"NoteNumber":62,"Velocity":56,"Duration":251024,"SoundDuration":251024,"Delta":80244759},{"NoteNumber":68,"Velocity":50,"Duration":500980,"SoundDuration":500980,"Delta":80495784},{"NoteNumber":70,"Velocity":63,"Duration":500980,"SoundDuration":500980,"Delta":80495784},{"NoteNumber":60,"Velocity":53,"Duration":248879,"SoundDuration":248879,"Delta":80495784},{"NoteNumber":46,"Velocity":45,"Duration":500980,"SoundDuration":500980,"Delta":80495784},{"NoteNumber":62,"Velocity":50,"Duration":252100,"SoundDuration":252100,"Delta":80744664},{"NoteNumber":63,"Velocity":53,"Duration":510638,"SoundDuration":510638,"Delta":80996765},{"NoteNumber":67,"Velocity":55,"Duration":510638,"SoundDuration":510638,"Delta":80996765},{"NoteNumber":70,"Velocity":65,"Duration":510638,"SoundDuration":510638,"Delta":80996765},{"NoteNumber":58,"Velocity":48,"Duration":170212,"SoundDuration":170212,"Delta":80996765},{"NoteNumber":51,"Velocity":49,"Duration":1260493,"SoundDuration":1260493,"Delta":80996765},{"NoteNumber":57,"Velocity":44,"Duration":170212,"SoundDuration":170212,"Delta":81166978},{"NoteNumber":58,"Velocity":44,"Duration":170212,"SoundDuration":170212,"Delta":81337190},{"NoteNumber":70,"Velocity":63,"Duration":667381,"SoundDuration":667381,"Delta":81507403},{"NoteNumber":63,"Velocity":51,"Duration":996263,"SoundDuration":996263,"Delta":81507403},{"NoteNumber":67,"Velocity":53,"Duration":996263,"SoundDuration":996263,"Delta":81507403},{"NoteNumber":60,"Velocity":47,"Duration":167364,"SoundDuration":167364,"Delta":81507403},{"NoteNumber":57,"Velocity":43,"Duration":167363,"SoundDuration":167363,"Delta":81674767},{"NoteNumber":60,"Velocity":42,"Duration":167364,"SoundDuration":167364,"Delta":81842131},{"NoteNumber":58,"Velocity":55,"Duration":494171,"SoundDuration":494171,"Delta":82009495},{"NoteNumber":72,"Velocity":59,"Duration":164779,"SoundDuration":164779,"Delta":82174784},{"NoteNumber":69,"Velocity":58,"Duration":164102,"SoundDuration":164102,"Delta":82339563},{"NoteNumber":68,"Velocity":53,"Duration":502409,"SoundDuration":502409,"Delta":82503666},{"NoteNumber":70,"Velocity":63,"Duration":163432,"SoundDuration":163432,"Delta":82503666},{"NoteNumber":62,"Velocity":53,"Duration":502409,"SoundDuration":502409,"Delta":82503666},{"NoteNumber":58,"Velocity":52,"Duration":502409,"SoundDuration":502409,"Delta":82503666},{"NoteNumber":46,"Velocity":45,"Duration":502409,"SoundDuration":502409,"Delta":82503666},{"NoteNumber":72,"Velocity":63,"Duration":167303,"SoundDuration":167303,"Delta":82667099},{"NoteNumber":74,"Velocity":66,"Duration":171673,"SoundDuration":171673,"Delta":82834403},{"NoteNumber":75,"Velocity":79,"Duration":756773,"SoundDuration":756773,"Delta":83006076},{"NoteNumber":67,"Velocity":64,"Duration":756773,"SoundDuration":756773,"Delta":83006076},{"NoteNumber":58,"Velocity":56,"Duration":168340,"SoundDuration":168340,"Delta":83006076},{"NoteNumber":51,"Velocity":45,"Duration":1508220,"SoundDuration":1508220,"Delta":83006076},{"NoteNumber":57,"Velocity":45,"Duration":168123,"SoundDuration":168123,"Delta":83174417},{"NoteNumber":58,"Velocity":45,"Duration":168123,"SoundDuration":168123,"Delta":83342540},{"NoteNumber":60,"Velocity":51,"Duration":168123,"SoundDuration":168123,"Delta":83510664},{"NoteNumber":57,"Velocity":46,"Duration":166420,"SoundDuration":166420,"Delta":83678788},{"NoteNumber":67,"Velocity":68,"Duration":247076,"SoundDuration":247076,"Delta":83762849},{"NoteNumber":60,"Velocity":46,"Duration":164717,"SoundDuration":164717,"Delta":83845208},{"NoteNumber":63,"Velocity":56,"Duration":504371,"SoundDuration":504371,"Delta":84009926},{"NoteNumber":67,"Velocity":56,"Duration":504371,"SoundDuration":504371,"Delta":84009926},{"NoteNumber":70,"Velocity":71,"Duration":504371,"SoundDuration":504371,"Delta":84009926},{"NoteNumber":58,"Velocity":55,"Duration":1008980,"SoundDuration":1008980,"Delta":84009926},{"NoteNumber":72,"Velocity":70,"Duration":268537,"SoundDuration":268537,"Delta":84514297},{"NoteNumber":67,"Velocity":57,"Duration":247076,"SoundDuration":247076,"Delta":84514297},{"NoteNumber":63,"Velocity":57,"Duration":504609,"SoundDuration":504609,"Delta":84514297},{"NoteNumber":46,"Velocity":39,"Duration":504609,"SoundDuration":504609,"Delta":84514297},{"NoteNumber":67,"Velocity":65,"Duration":257532,"SoundDuration":257532,"Delta":84761373},{"NoteNumber":70,"Velocity":71,"Duration":1013942,"SoundDuration":1013942,"Delta":85018906},{"NoteNumber":67,"Velocity":60,"Duration":1013942,"SoundDuration":1013942,"Delta":85018906},{"NoteNumber":63,"Velocity":60,"Duration":1013942,"SoundDuration":1013942,"Delta":85018906},{"NoteNumber":58,"Velocity":51,"Duration":168990,"SoundDuration":168990,"Delta":85018906},{"NoteNumber":51,"Velocity":46,"Duration":1501637,"SoundDuration":1501637,"Delta":85018906},{"NoteNumber":57,"Velocity":45,"Duration":168990,"SoundDuration":168990,"Delta":85187897},{"NoteNumber":58,"Velocity":45,"Duration":168990,"SoundDuration":168990,"Delta":85356887},{"NoteNumber":60,"Velocity":49,"Duration":168990,"SoundDuration":168990,"Delta":85525877},{"NoteNumber":57,"Velocity":46,"Duration":168990,"SoundDuration":168990,"Delta":85694868},{"NoteNumber":60,"Velocity":46,"Duration":168990,"SoundDuration":168990,"Delta":85863858},{"NoteNumber":63,"Velocity":53,"Duration":487695,"SoundDuration":487695,"Delta":86032848},{"NoteNumber":67,"Velocity":57,"Duration":487695,"SoundDuration":487695,"Delta":86032848},{"NoteNumber":70,"Velocity":70,"Duration":262415,"SoundDuration":262415,"Delta":86032848},{"NoteNumber":58,"Velocity":56,"Duration":979215,"SoundDuration":979215,"Delta":86032848},{"NoteNumber":72,"Velocity":61,"Duration":245760,"SoundDuration":245760,"Delta":86274784},{"NoteNumber":63,"Velocity":59,"Duration":491519,"SoundDuration":491519,"Delta":86520544},{"NoteNumber":67,"Velocity":70,"Duration":262734,"SoundDuration":262734,"Delta":86520544},{"NoteNumber":46,"Velocity":44,"Duration":491519,"SoundDuration":491519,"Delta":86520544},{"NoteNumber":72,"Velocity":59,"Duration":249583,"SoundDuration":249583,"Delta":86762480},{"NoteNumber":67,"Velocity":57,"Duration":1174031,"SoundDuration":1174031,"Delta":87012064},{"NoteNumber":63,"Velocity":56,"Duration":1174031,"SoundDuration":1174031,"Delta":87012064},{"NoteNumber":70,"Velocity":71,"Duration":1174031,"SoundDuration":1174031,"Delta":87012064},{"NoteNumber":58,"Velocity":51,"Duration":168123,"SoundDuration":168123,"Delta":87012064},{"NoteNumber":51,"Velocity":41,"Duration":1502574,"SoundDuration":1502574,"Delta":87012064},{"NoteNumber":57,"Velocity":45,"Duration":168123,"SoundDuration":168123,"Delta":87180188},{"NoteNumber":58,"Velocity":45,"Duration":168123,"SoundDuration":168123,"Delta":87348311},{"NoteNumber":60,"Velocity":51,"Duration":168123,"SoundDuration":168123,"Delta":87516435},{"NoteNumber":57,"Velocity":47,"Duration":168123,"SoundDuration":168123,"Delta":87684559},{"NoteNumber":60,"Velocity":47,"Duration":168123,"SoundDuration":168123,"Delta":87852682},{"NoteNumber":58,"Velocity":57,"Duration":990333,"SoundDuration":990333,"Delta":88020806},{"NoteNumber":62,"Velocity":57,"Duration":164608,"SoundDuration":164608,"Delta":88186095},{"NoteNumber":63,"Velocity":57,"Duration":163934,"SoundDuration":163934,"Delta":88350704},{"NoteNumber":67,"Velocity":58,"Duration":163099,"SoundDuration":163099,"Delta":88514639},{"NoteNumber":46,"Velocity":45,"Duration":496501,"SoundDuration":496501,"Delta":88514639},{"NoteNumber":70,"Velocity":62,"Duration":165334,"SoundDuration":165334,"Delta":88677738},{"NoteNumber":75,"Velocity":66,"Duration":168067,"SoundDuration":168067,"Delta":88843072},{"NoteNumber":77,"Velocity":75,"Duration":770719,"SoundDuration":770719,"Delta":89011140},{"NoteNumber":65,"Velocity":63,"Duration":770719,"SoundDuration":770719,"Delta":89011140},{"NoteNumber":70,"Velocity":63,"Duration":1502721,"SoundDuration":1502721,"Delta":89011140},{"NoteNumber":51,"Velocity":46,"Duration":247934,"SoundDuration":247934,"Delta":89011140},{"NoteNumber":62,"Velocity":50,"Duration":165289,"SoundDuration":165289,"Delta":89011140},{"NoteNumber":58,"Velocity":46,"Duration":247934,"SoundDuration":247934,"Delta":89011140},{"NoteNumber":61,"Velocity":45,"Duration":166326,"SoundDuration":166326,"Delta":89176429},{"NoteNumber":62,"Velocity":45,"Duration":167364,"SoundDuration":167364,"Delta":89342756},{"NoteNumber":63,"Velocity":49,"Duration":167363,"SoundDuration":167363,"Delta":89510120},{"NoteNumber":61,"Velocity":46,"Duration":166456,"SoundDuration":166456,"Delta":89677484},{"NoteNumber":79,"Velocity":69,"Duration":269339,"SoundDuration":269339,"Delta":89761166},{"NoteNumber":67,"Velocity":57,"Duration":269339,"SoundDuration":269339,"Delta":89761166},{"NoteNumber":63,"Velocity":46,"Duration":165549,"SoundDuration":165549,"Delta":89843940},{"NoteNumber":65,"Velocity":63,"Duration":504371,"SoundDuration":504371,"Delta":90009490},{"NoteNumber":77,"Velocity":75,"Duration":504371,"SoundDuration":504371,"Delta":90009490},{"NoteNumber":62,"Velocity":57,"Duration":252185,"SoundDuration":252185,"Delta":90009490},{"NoteNumber":72,"Velocity":72,"Duration":267036,"SoundDuration":267036,"Delta":90513861},{"NoteNumber":60,"Velocity":59,"Duration":267036,"SoundDuration":267036,"Delta":90513861},{"NoteNumber":68,"Velocity":57,"Duration":500621,"SoundDuration":500621,"Delta":90513861},{"NoteNumber":46,"Velocity":41,"Duration":500621,"SoundDuration":500621,"Delta":90513861},{"NoteNumber":58,"Velocity":50,"Duration":500621,"SoundDuration":500621,"Delta":90513861},{"NoteNumber":62,"Velocity":59,"Duration":254820,"SoundDuration":254820,"Delta":90759662},{"NoteNumber":74,"Velocity":70,"Duration":254820,"SoundDuration":254820,"Delta":90759662},{"NoteNumber":63,"Velocity":63,"Duration":1244974,"SoundDuration":1244974,"Delta":91014482},{"NoteNumber":67,"Velocity":63,"Duration":1494933,"SoundDuration":1494933,"Delta":91014482},{"NoteNumber":75,"Velocity":75,"Duration":1244974,"SoundDuration":1244974,"Delta":91014482},{"NoteNumber":51,"Velocity":45,"Duration":1494933,"SoundDuration":1494933,"Delta":91014482},{"NoteNumber":58,"Velocity":51,"Duration":165289,"SoundDuration":165289,"Delta":91014482},{"NoteNumber":57,"Velocity":45,"Duration":166326,"SoundDuration":166326,"Delta":91179772},{"NoteNumber":58,"Velocity":45,"Duration":167363,"SoundDuration":167363,"Delta":91346098},{"NoteNumber":60,"Velocity":49,"Duration":167364,"SoundDuration":167364,"Delta":91513462},{"NoteNumber":57,"Velocity":45,"Duration":167363,"SoundDuration":167363,"Delta":91680826},{"NoteNumber":60,"Velocity":45,"Duration":167364,"SoundDuration":167364,"Delta":91848190},{"NoteNumber":58,"Velocity":57,"Duration":243902,"SoundDuration":243902,"Delta":92015554},{"NoteNumber":62,"Velocity":52,"Duration":270524,"SoundDuration":270524,"Delta":92259457},{"NoteNumber":74,"Velocity":62,"Duration":270524,"SoundDuration":270524,"Delta":92259457},{"NoteNumber":72,"Velocity":67,"Duration":268252,"SoundDuration":268252,"Delta":92509415},{"NoteNumber":60,"Velocity":56,"Duration":268252,"SoundDuration":268252,"Delta":92509415},{"NoteNumber":68,"Velocity":56,"Duration":504324,"SoundDuration":504324,"Delta":92509415},{"NoteNumber":58,"Velocity":50,"Duration":504324,"SoundDuration":504324,"Delta":92509415},{"NoteNumber":46,"Velocity":41,"Duration":504324,"SoundDuration":504324,"Delta":92509415},{"NoteNumber":62,"Velocity":47,"Duration":257532,"SoundDuration":257532,"Delta":92756207},{"NoteNumber":74,"Velocity":57,"Duration":257532,"SoundDuration":257532,"Delta":92756207},{"NoteNumber":63,"Velocity":55,"Duration":500008,"SoundDuration":500008,"Delta":93013740},{"NoteNumber":67,"Velocity":55,"Duration":500008,"SoundDuration":500008,"Delta":93013740},{"NoteNumber":70,"Velocity":69,"Duration":500008,"SoundDuration":500008,"Delta":93013740},{"NoteNumber":51,"Velocity":46,"Duration":1500957,"SoundDuration":1500957,"Delta":93013740},{"NoteNumber":58,"Velocity":49,"Duration":165975,"SoundDuration":165975,"Delta":93013740},{"NoteNumber":57,"Velocity":45,"Duration":166669,"SoundDuration":166669,"Delta":93179715},{"NoteNumber":58,"Velocity":45,"Duration":167364,"SoundDuration":167364,"Delta":93346384},{"NoteNumber":63,"Velocity":53,"Duration":749923,"SoundDuration":749923,"Delta":93513748},{"NoteNumber":67,"Velocity":53,"Duration":1000948,"SoundDuration":1000948,"Delta":93513748},{"NoteNumber":70,"Velocity":66,"Duration":1000948,"SoundDuration":1000948,"Delta":93513748},{"NoteNumber":60,"Velocity":49,"Duration":167363,"SoundDuration":167363,"Delta":93513748},{"NoteNumber":57,"Velocity":47,"Duration":167364,"SoundDuration":167364,"Delta":93681112},{"NoteNumber":60,"Velocity":47,"Duration":167364,"SoundDuration":167364,"Delta":93848476},{"NoteNumber":58,"Velocity":57,"Duration":999837,"SoundDuration":999837,"Delta":94015840},{"NoteNumber":62,"Velocity":56,"Duration":251024,"SoundDuration":251024,"Delta":94263672},{"NoteNumber":68,"Velocity":53,"Duration":500980,"SoundDuration":500980,"Delta":94514697},{"NoteNumber":70,"Velocity":63,"Duration":500980,"SoundDuration":500980,"Delta":94514697},{"NoteNumber":60,"Velocity":53,"Duration":248879,"SoundDuration":248879,"Delta":94514697},{"NoteNumber":46,"Velocity":45,"Duration":500980,"SoundDuration":500980,"Delta":94514697},{"NoteNumber":62,"Velocity":50,"Duration":252100,"SoundDuration":252100,"Delta":94763577},{"NoteNumber":70,"Velocity":66,"Duration":498980,"SoundDuration":498980,"Delta":95015678},{"NoteNumber":67,"Velocity":58,"Duration":498980,"SoundDuration":498980,"Delta":95015678},{"NoteNumber":63,"Velocity":55,"Duration":498980,"SoundDuration":498980,"Delta":95015678},{"NoteNumber":51,"Velocity":46,"Duration":1499928,"SoundDuration":1499928,"Delta":95015678},{"NoteNumber":58,"Velocity":49,"Duration":165289,"SoundDuration":165289,"Delta":95015678},{"NoteNumber":57,"Velocity":45,"Duration":166326,"SoundDuration":166326,"Delta":95180967},{"NoteNumber":58,"Velocity":44,"Duration":167364,"SoundDuration":167364,"Delta":95347294},{"NoteNumber":70,"Velocity":64,"Duration":1000948,"SoundDuration":1000948,"Delta":95514658},{"NoteNumber":67,"Velocity":52,"Duration":1000948,"SoundDuration":1000948,"Delta":95514658},{"NoteNumber":63,"Velocity":52,"Duration":749923,"SoundDuration":749923,"Delta":95514658},{"NoteNumber":60,"Velocity":48,"Duration":167363,"SoundDuration":167363,"Delta":95514658},{"NoteNumber":57,"Velocity":46,"Duration":167364,"SoundDuration":167364,"Delta":95682022},{"NoteNumber":60,"Velocity":45,"Duration":167364,"SoundDuration":167364,"Delta":95849386},{"NoteNumber":58,"Velocity":54,"Duration":1164446,"SoundDuration":1164446,"Delta":96016750},{"NoteNumber":62,"Velocity":53,"Duration":251024,"SoundDuration":251024,"Delta":96264581},{"NoteNumber":68,"Velocity":49,"Duration":500980,"SoundDuration":500980,"Delta":96515606},{"NoteNumber":70,"Velocity":59,"Duration":500980,"SoundDuration":500980,"Delta":96515606},{"NoteNumber":60,"Velocity":49,"Duration":248879,"SoundDuration":248879,"Delta":96515606},{"NoteNumber":46,"Velocity":42,"Duration":500980,"SoundDuration":500980,"Delta":96515606},{"NoteNumber":62,"Velocity":46,"Duration":252100,"SoundDuration":252100,"Delta":96764486},{"NoteNumber":70,"Velocity":63,"Duration":246913,"SoundDuration":246913,"Delta":97016587},{"NoteNumber":67,"Velocity":53,"Duration":246913,"SoundDuration":246913,"Delta":97016587},{"NoteNumber":63,"Velocity":53,"Duration":246913,"SoundDuration":246913,"Delta":97016587},{"NoteNumber":51,"Velocity":42,"Duration":1500129,"SoundDuration":1500129,"Delta":97016587},{"NoteNumber":57,"Velocity":40,"Duration":164608,"SoundDuration":164608,"Delta":97181196},{"NoteNumber":58,"Velocity":40,"Duration":164608,"SoundDuration":164608,"Delta":97345805},{"NoteNumber":70,"Velocity":59,"Duration":1758438,"SoundDuration":1758438,"Delta":97510414},{"NoteNumber":63,"Velocity":50,"Duration":1758438,"SoundDuration":1758438,"Delta":97510414},{"NoteNumber":67,"Velocity":50,"Duration":1758438,"SoundDuration":1758438,"Delta":97510414},{"NoteNumber":60,"Velocity":44,"Duration":166666,"SoundDuration":166666,"Delta":97510414},{"NoteNumber":57,"Velocity":41,"Duration":167366,"SoundDuration":167366,"Delta":97677081},{"NoteNumber":60,"Velocity":41,"Duration":168067,"SoundDuration":168067,"Delta":97844448},{"NoteNumber":58,"Velocity":50,"Duration":1173693,"SoundDuration":1173693,"Delta":98012515},{"NoteNumber":46,"Velocity":47,"Duration":504201,"SoundDuration":504201,"Delta":98516717},{"NoteNumber":51,"Velocity":38,"Duration":1503217,"SoundDuration":1503217,"Delta":99020919},{"NoteNumber":57,"Velocity":37,"Duration":165289,"SoundDuration":165289,"Delta":99186209},{"NoteNumber":58,"Velocity":36,"Duration":165289,"SoundDuration":165289,"Delta":99351498},{"NoteNumber":63,"Velocity":43,"Duration":1759484,"SoundDuration":1759484,"Delta":99516787},{"NoteNumber":67,"Velocity":43,"Duration":1759484,"SoundDuration":1759484,"Delta":99516787},{"NoteNumber":70,"Velocity":54,"Duration":1759484,"SoundDuration":1759484,"Delta":99516787},{"NoteNumber":60,"Velocity":40,"Duration":167364,"SoundDuration":167364,"Delta":99516787},{"NoteNumber":57,"Velocity":38,"Duration":167715,"SoundDuration":167715,"Delta":99684151},{"NoteNumber":60,"Velocity":37,"Duration":168067,"SoundDuration":168067,"Delta":99851867},{"NoteNumber":58,"Velocity":45,"Duration":1173693,"SoundDuration":1173693,"Delta":100019934},{"NoteNumber":46,"Velocity":40,"Duration":504201,"SoundDuration":504201,"Delta":100524136},{"NoteNumber":51,"Velocity":34,"Duration":247934,"SoundDuration":247934,"Delta":101028338},{"NoteNumber":57,"Velocity":33,"Duration":166326,"SoundDuration":166326,"Delta":101193628},{"NoteNumber":58,"Velocity":33,"Duration":167364,"SoundDuration":167364,"Delta":101359954},{"NoteNumber":60,"Velocity":35,"Duration":165289,"SoundDuration":165289,"Delta":101527318},{"NoteNumber":57,"Velocity":34,"Duration":166326,"SoundDuration":166326,"Delta":101692608},{"NoteNumber":60,"Velocity":33,"Duration":167364,"SoundDuration":167364,"Delta":101858934},{"NoteNumber":58,"Velocity":40,"Duration":247831,"SoundDuration":247831,"Delta":102026298},{"NoteNumber":62,"Velocity":37,"Duration":166285,"SoundDuration":166285,"Delta":102191519},{"NoteNumber":63,"Velocity":36,"Duration":167349,"SoundDuration":167349,"Delta":102357805},{"NoteNumber":65,"Velocity":40,"Duration":165919,"SoundDuration":165919,"Delta":102525155},{"NoteNumber":62,"Velocity":36,"Duration":166993,"SoundDuration":166993,"Delta":102691075},{"NoteNumber":65,"Velocity":36,"Duration":168067,"SoundDuration":168067,"Delta":102858068},{"NoteNumber":63,"Velocity":40,"Duration":247934,"SoundDuration":247934,"Delta":103026136},{"NoteNumber":66,"Velocity":33,"Duration":166678,"SoundDuration":166678,"Delta":103191425},{"NoteNumber":67,"Velocity":33,"Duration":168067,"SoundDuration":168067,"Delta":103358103},{"NoteNumber":68,"Velocity":35,"Duration":165289,"SoundDuration":165289,"Delta":103526171},{"NoteNumber":66,"Velocity":34,"Duration":166678,"SoundDuration":166678,"Delta":103691460},{"NoteNumber":68,"Velocity":33,"Duration":168067,"SoundDuration":168067,"Delta":103858138},{"NoteNumber":67,"Velocity":40,"Duration":247831,"SoundDuration":247831,"Delta":104026206},{"NoteNumber":69,"Velocity":37,"Duration":166285,"SoundDuration":166285,"Delta":104191427},{"NoteNumber":70,"Velocity":36,"Duration":167349,"SoundDuration":167349,"Delta":104336794},{"NoteNumber":72,"Velocity":40,"Duration":165919,"SoundDuration":165919,"Delta":104525062},{"NoteNumber":69,"Velocity":36,"Duration":166993,"SoundDuration":166993,"Delta":104690982},{"NoteNumber":72,"Velocity":36,"Duration":168067,"SoundDuration":168067,"Delta":104857976},{"NoteNumber":70,"Velocity":40,"Duration":252185,"SoundDuration":252185,"Delta":105026043},{"NoteNumber":74,"Velocity":33,"Duration":169168,"SoundDuration":169168,"Delta":105194167},{"NoteNumber":75,"Velocity":33,"Duration":170212,"SoundDuration":170212,"Delta":105363335},{"NoteNumber":77,"Velocity":35,"Duration":167364,"SoundDuration":167364,"Delta":105533548},{"NoteNumber":74,"Velocity":34,"Duration":168788,"SoundDuration":168788,"Delta":105700912},{"NoteNumber":77,"Velocity":33,"Duration":170212,"SoundDuration":170212,"Delta":105869700},{"NoteNumber":75,"Velocity":40,"Duration":255319,"SoundDuration":255319,"Delta":106039913},{"NoteNumber":78,"Velocity":37,"Duration":172062,"SoundDuration":172062,"Delta":106210125},{"NoteNumber":79,"Velocity":36,"Duration":173912,"SoundDuration":173912,"Delta":106360449},{"NoteNumber":81,"Velocity":40,"Duration":170212,"SoundDuration":170212,"Delta":106556101},{"NoteNumber":82,"Velocity":36,"Duration":171686,"SoundDuration":171686,"Delta":106726314},{"NoteNumber":86,"Velocity":36,"Duration":173160,"SoundDuration":173160,"Delta":106898000},{"NoteNumber":87,"Velocity":40,"Duration":4671428,"SoundDuration":4671428,"Delta":107071161},{"NoteNumber":75,"Velocity":30,"Duration":1200000,"SoundDuration":1200000,"Delta":108142590},{"NoteNumber":79,"Velocity":30,"Duration":1200000,"SoundDuration":1200000,"Delta":108142590},{"NoteNumber":70,"Velocity":26,"Duration":1200000,"SoundDuration":1200000,"Delta":108142590},{"NoteNumber":63,"Velocity":26,"Duration":1200000,"SoundDuration":1200000,"Delta":108142590},{"NoteNumber":75,"Velocity":30,"Duration":2399999,"SoundDuration":2399999,"Delta":109342590},{"NoteNumber":79,"Velocity":30,"Duration":2399999,"SoundDuration":2399999,"Delta":109342590},{"NoteNumber":63,"Velocity":26,"Duration":2399999,"SoundDuration":2399999,"Delta":109342590},{"NoteNumber":70,"Velocity":26,"Duration":2399999,"SoundDuration":2399999,"Delta":109342590}]}