{"title":"Juni","artist":"Piano","durationMs":231541,"midiSha256":"77dc5d00e24245e0b62bf735e9076e4e47892a272a773ae716a671245b502dbc","midiObject":[{"NoteNumber":43,"Velocity":40,"Duration":626566,"SoundDuration":626566,"Delta":0},{"NoteNumber":50,"Velocity":38,"Duration":626566,"SoundDuration":626566,"Delta":626566},{"NoteNumber":58,"Velocity":28,"Duration":1253132,"SoundDuration":1253132,"Delta":1253132},{"NoteNumber":55,"Velocity":28,"Duration":1253132,"SoundDuration":1253132,"Delta":1253132},{"NoteNumber":62,"Velocity":34,"Duration":1253132,"SoundDuration":1253132,"Delta":1253132},{"NoteNumber":43,"Velocity":40,"Duration":626566,"SoundDuration":626566,"Delta":2506264},{"NoteNumber":50,"Velocity":38,"Duration":626566,"SoundDuration":626566,"Delta":3132830},{"NoteNumber":62,"Velocity":35,"Duration":1219509,"SoundDuration":1219509,"Delta":3759396},{"NoteNumber":55,"Velocity":35,"Duration":1219509,"SoundDuration":1219509,"Delta":3759396},{"NoteNumber":58,"Velocity":35,"Duration":1219509,"SoundDuration":1219509,"Delta":3759396},{"NoteNumber":62,"Velocity":53,"Duration":306091,"SoundDuration":306091,"Delta":4072679},{"NoteNumber":64,"Velocity":54,"Duration":295566,"SoundDuration":295566,"Delta":4378770},{"NoteNumber":66,"Velocity":56,"Duration":304568,"SoundDuration":304568,"Delta":4674336},{"NoteNumber":67,"Velocity":57,"Duration":310881,"SoundDuration":310881,"Delta":4978905},{"NoteNumber":43,"Velocity":40,"Duration":609388,"SoundDuration":609388,"Delta":4978905},{"NoteNumber":69,"Velocity":59,"Duration":298507,"SoundDuration":298507,"Delta":5289786},{"NoteNumber":70,"Velocity":61,"Duration":298507,"SoundDuration":298507,"Delta":5588293},{"NoteNumber":50,"Velocity":37,"Duration":597014,"SoundDuration":597014,"Delta":5588293},{"NoteNumber":72,"Velocity":63,"Duration":298507,"SoundDuration":298507,"Delta":5886801},{"NoteNumber":74,"Velocity":65,"Duration":320855,"SoundDuration":320855,"Delta":6185308},{"NoteNumber":58,"Velocity":34,"Duration":610710,"SoundDuration":610710,"Delta":6185308},{"NoteNumber":62,"Velocity":40,"Duration":610710,"SoundDuration":610710,"Delta":6185308},{"NoteNumber":55,"Velocity":34,"Duration":610710,"SoundDuration":610710,"Delta":6185308},{"NoteNumber":79,"Velocity":68,"Duration":289855,"SoundDuration":289855,"Delta":6506164},{"NoteNumber":78,"Velocity":66,"Duration":298507,"SoundDuration":298507,"Delta":6796019},{"NoteNumber":45,"Velocity":45,"Duration":626376,"SoundDuration":626376,"Delta":6796019},{"NoteNumber":79,"Velocity":58,"Duration":327868,"SoundDuration":327868,"Delta":7094526},{"NoteNumber":74,"Velocity":53,"Duration":1203196,"SoundDuration":1203196,"Delta":7422395},{"NoteNumber":46,"Velocity":44,"Duration":594058,"SoundDuration":594058,"Delta":7422395},{"NoteNumber":55,"Velocity":38,"Duration":609137,"SoundDuration":609137,"Delta":8016454},{"NoteNumber":62,"Velocity":29,"Duration":613414,"SoundDuration":613414,"Delta":8625591},{"NoteNumber":67,"Velocity":35,"Duration":610788,"SoundDuration":610788,"Delta":8625591},{"NoteNumber":74,"Velocity":56,"Duration":309062,"SoundDuration":309062,"Delta":8929943},{"NoteNumber":63,"Velocity":31,"Duration":635981,"SoundDuration":635981,"Delta":9239006},{"NoteNumber":69,"Velocity":59,"Duration":315125,"SoundDuration":315125,"Delta":9239006},{"NoteNumber":67,"Velocity":31,"Duration":635981,"SoundDuration":635981,"Delta":9239006},{"NoteNumber":48,"Velocity":35,"Duration":635981,"SoundDuration":635981,"Delta":9239006},{"NoteNumber":72,"Velocity":51,"Duration":320855,"SoundDuration":320855,"Delta":9554132},{"NoteNumber":62,"Velocity":45,"Duration":302602,"SoundDuration":302602,"Delta":9874987},{"NoteNumber":67,"Velocity":45,"Duration":302602,"SoundDuration":302602,"Delta":9874987},{"NoteNumber":70,"Velocity":53,"Duration":302602,"SoundDuration":302602,"Delta":9874987},{"NoteNumber":50,"Velocity":42,"Duration":302602,"SoundDuration":302602,"Delta":9874987},{"NoteNumber":63,"Velocity":50,"Duration":308135,"SoundDuration":308135,"Delta":10177590},{"NoteNumber":55,"Velocity":29,"Duration":312825,"SoundDuration":312825,"Delta":10485725},{"NoteNumber":58,"Velocity":29,"Duration":312825,"SoundDuration":312825,"Delta":10485725},{"NoteNumber":61,"Velocity":47,"Duration":312825,"SoundDuration":312825,"Delta":10485725},{"NoteNumber":63,"Velocity":39,"Duration":312826,"SoundDuration":312826,"Delta":10798551},{"NoteNumber":55,"Velocity":34,"Duration":309661,"SoundDuration":309661,"Delta":11111377},{"NoteNumber":58,"Velocity":34,"Duration":309661,"SoundDuration":309661,"Delta":11111377},{"NoteNumber":62,"Velocity":40,"Duration":309661,"SoundDuration":309661,"Delta":11111377},{"NoteNumber":70,"Velocity":53,"Duration":313283,"SoundDuration":313283,"Delta":11421038},{"NoteNumber":60,"Velocity":46,"Duration":630252,"SoundDuration":630252,"Delta":11734321},{"NoteNumber":66,"Velocity":57,"Duration":315125,"SoundDuration":315125,"Delta":11734321},{"NoteNumber":50,"Velocity":42,"Duration":630252,"SoundDuration":630252,"Delta":11734321},{"NoteNumber":69,"Velocity":49,"Duration":315126,"SoundDuration":315126,"Delta":12049447},{"NoteNumber":58,"Velocity":47,"Duration":1243921,"SoundDuration":1243921,"Delta":12364573},{"NoteNumber":67,"Velocity":53,"Duration":1243921,"SoundDuration":1243921,"Delta":12364573},{"NoteNumber":43,"Velocity":46,"Duration":2469143,"SoundDuration":2469143,"Delta":12364573},{"NoteNumber":51,"Velocity":42,"Duration":309725,"SoundDuration":309725,"Delta":12666658},{"NoteNumber":49,"Velocity":37,"Duration":316055,"SoundDuration":316055,"Delta":12976383},{"NoteNumber":51,"Velocity":32,"Duration":316055,"SoundDuration":316055,"Delta":13292439},{"NoteNumber":50,"Velocity":35,"Duration":1225222,"SoundDuration":1225222,"Delta":13608494},{"NoteNumber":62,"Velocity":52,"Duration":306091,"SoundDuration":306091,"Delta":13924550},{"NoteNumber":64,"Velocity":54,"Duration":298507,"SoundDuration":298507,"Delta":14230641},{"NoteNumber":60,"Velocity":48,"Duration":603075,"SoundDuration":603075,"Delta":14230641},{"NoteNumber":66,"Velocity":55,"Duration":304568,"SoundDuration":304568,"Delta":14529148},{"NoteNumber":67,"Velocity":57,"Duration":309278,"SoundDuration":309278,"Delta":14833717},{"NoteNumber":58,"Velocity":51,"Duration":309278,"SoundDuration":309278,"Delta":14833717},{"NoteNumber":43,"Velocity":40,"Duration":610785,"SoundDuration":610785,"Delta":14833717},{"NoteNumber":69,"Velocity":59,"Duration":301507,"SoundDuration":301507,"Delta":15142995},{"NoteNumber":70,"Velocity":61,"Duration":301507,"SoundDuration":301507,"Delta":15444503},{"NoteNumber":50,"Velocity":37,"Duration":603015,"SoundDuration":603015,"Delta":15444503},{"NoteNumber":72,"Velocity":63,"Duration":301507,"SoundDuration":301507,"Delta":15746010},{"NoteNumber":74,"Velocity":68,"Duration":314136,"SoundDuration":314136,"Delta":16047518},{"NoteNumber":58,"Velocity":34,"Duration":606819,"SoundDuration":606819,"Delta":16047518},{"NoteNumber":62,"Velocity":40,"Duration":606819,"SoundDuration":606819,"Delta":16047518},{"NoteNumber":55,"Velocity":34,"Duration":606819,"SoundDuration":606819,"Delta":16047518},{"NoteNumber":79,"Velocity":63,"Duration":292683,"SoundDuration":292683,"Delta":16361654},{"NoteNumber":75,"Velocity":40,"Duration":611790,"SoundDuration":611790,"Delta":16654337},{"NoteNumber":77,"Velocity":61,"Duration":298507,"SoundDuration":298507,"Delta":16654337},{"NoteNumber":72,"Velocity":36,"Duration":611790,"SoundDuration":611790,"Delta":16654337},{"NoteNumber":65,"Velocity":33,"Duration":611790,"SoundDuration":611790,"Delta":16654337},{"NoteNumber":45,"Velocity":42,"Duration":611790,"SoundDuration":611790,"Delta":16654337},{"NoteNumber":79,"Velocity":59,"Duration":313282,"SoundDuration":313282,"Delta":16952844},{"NoteNumber":70,"Velocity":46,"Duration":1212390,"SoundDuration":1212390,"Delta":17266127},{"NoteNumber":74,"Velocity":55,"Duration":1212390,"SoundDuration":1212390,"Delta":17266127},{"NoteNumber":65,"Velocity":46,"Duration":1209839,"SoundDuration":1209839,"Delta":17266127},{"NoteNumber":46,"Velocity":44,"Duration":600208,"SoundDuration":600208,"Delta":17266127},{"NoteNumber":53,"Velocity":38,"Duration":612182,"SoundDuration":612182,"Delta":17866336},{"NoteNumber":58,"Velocity":28,"Duration":613414,"SoundDuration":613414,"Delta":18478518},{"NoteNumber":62,"Velocity":28,"Duration":613414,"SoundDuration":613414,"Delta":18478518},{"NoteNumber":65,"Velocity":39,"Duration":613414,"SoundDuration":613414,"Delta":18478518},{"NoteNumber":77,"Velocity":60,"Duration":309062,"SoundDuration":309062,"Delta":18782870},{"NoteNumber":70,"Velocity":50,"Duration":635981,"SoundDuration":635981,"Delta":19091932},{"NoteNumber":63,"Velocity":50,"Duration":635981,"SoundDuration":635981,"Delta":19091932},{"NoteNumber":74,"Velocity":50,"Duration":635981,"SoundDuration":635981,"Delta":19091932},{"NoteNumber":75,"Velocity":63,"Duration":315125,"SoundDuration":315125,"Delta":19091932},{"NoteNumber":43,"Velocity":41,"Duration":635981,"SoundDuration":635981,"Delta":19091932},{"NoteNumber":77,"Velocity":58,"Duration":320855,"SoundDuration":320855,"Delta":19407058},{"NoteNumber":72,"Velocity":60,"Duration":1224364,"SoundDuration":1224364,"Delta":19727914},{"NoteNumber":63,"Velocity":50,"Duration":1221813,"SoundDuration":1221813,"Delta":19727914},{"NoteNumber":69,"Velocity":50,"Duration":1224364,"SoundDuration":1224364,"Delta":19727914},{"NoteNumber":45,"Velocity":44,"Duration":612182,"SoundDuration":612182,"Delta":19727914},{"NoteNumber":57,"Velocity":36,"Duration":612182,"SoundDuration":612182,"Delta":20340096},{"NoteNumber":60,"Velocity":30,"Duration":613414,"SoundDuration":613414,"Delta":20952278},{"NoteNumber":63,"Velocity":30,"Duration":613414,"SoundDuration":613414,"Delta":20952278},{"NoteNumber":67,"Velocity":36,"Duration":613414,"SoundDuration":613414,"Delta":20952278},{"NoteNumber":75,"Velocity":55,"Duration":309062,"SoundDuration":309062,"Delta":21256630},{"NoteNumber":72,"Velocity":38,"Duration":635981,"SoundDuration":635981,"Delta":21565693},{"NoteNumber":74,"Velocity":56,"Duration":315126,"SoundDuration":315126,"Delta":21565693},{"NoteNumber":69,"Velocity":37,"Duration":635981,"SoundDuration":635981,"Delta":21565693},{"NoteNumber":62,"Velocity":37,"Duration":635981,"SoundDuration":635981,"Delta":21565693},{"NoteNumber":42,"Velocity":36,"Duration":635981,"SoundDuration":635981,"Delta":21565693},{"NoteNumber":75,"Velocity":50,"Duration":320855,"SoundDuration":320855,"Delta":21880819},{"NoteNumber":67,"Velocity":44,"Duration":626566,"SoundDuration":626566,"Delta":22201674},{"NoteNumber":62,"Velocity":44,"Duration":626566,"SoundDuration":626566,"Delta":22201674},{"NoteNumber":70,"Velocity":53,"Duration":626566,"SoundDuration":626566,"Delta":22201674},{"NoteNumber":43,"Velocity":39,"Duration":626566,"SoundDuration":626566,"Delta":22201674},{"NoteNumber":50,"Velocity":36,"Duration":626566,"SoundDuration":626566,"Delta":22828240},{"NoteNumber":58,"Velocity":23,"Duration":622975,"SoundDuration":622975,"Delta":23454806},{"NoteNumber":55,"Velocity":23,"Duration":622975,"SoundDuration":622975,"Delta":23454806},{"NoteNumber":62,"Velocity":34,"Duration":622975,"SoundDuration":622975,"Delta":23454806},{"NoteNumber":74,"Velocity":54,"Duration":315125,"SoundDuration":315125,"Delta":23762656},{"NoteNumber":63,"Velocity":35,"Duration":630251,"SoundDuration":630251,"Delta":24077782},{"NoteNumber":69,"Velocity":35,"Duration":630251,"SoundDuration":630251,"Delta":24077782},{"NoteNumber":72,"Velocity":56,"Duration":315125,"SoundDuration":315125,"Delta":24077782},{"NoteNumber":48,"Velocity":34,"Duration":630251,"SoundDuration":630251,"Delta":24077782},{"NoteNumber":74,"Velocity":52,"Duration":315125,"SoundDuration":315125,"Delta":24392908},{"NoteNumber":72,"Velocity":55,"Duration":320855,"SoundDuration":320855,"Delta":24708034},{"NoteNumber":62,"Velocity":35,"Duration":639037,"SoundDuration":639037,"Delta":24708034},{"NoteNumber":67,"Velocity":35,"Duration":641711,"SoundDuration":641711,"Delta":24708034},{"NoteNumber":50,"Velocity":39,"Duration":2631451,"SoundDuration":2631451,"Delta":24708034},{"NoteNumber":70,"Velocity":47,"Duration":320855,"SoundDuration":320855,"Delta":25028890},{"NoteNumber":58,"Velocity":32,"Duration":652346,"SoundDuration":652346,"Delta":25349745},{"NoteNumber":69,"Velocity":50,"Duration":320855,"SoundDuration":320855,"Delta":25349745},{"NoteNumber":62,"Velocity":32,"Duration":652346,"SoundDuration":652346,"Delta":25349745},{"NoteNumber":67,"Velocity":49,"Duration":331491,"SoundDuration":331491,"Delta":25670601},{"NoteNumber":64,"Velocity":35,"Duration":659341,"SoundDuration":659341,"Delta":26002092},{"NoteNumber":70,"Velocity":52,"Duration":994536,"SoundDuration":994536,"Delta":26002092},{"NoteNumber":61,"Velocity":31,"Duration":659341,"SoundDuration":659341,"Delta":26002092},{"NoteNumber":63,"Velocity":29,"Duration":678052,"SoundDuration":678052,"Delta":26661433},{"NoteNumber":66,"Velocity":32,"Duration":678052,"SoundDuration":678052,"Delta":26661433},{"NoteNumber":60,"Velocity":30,"Duration":1004139,"SoundDuration":1004139,"Delta":26661433},{"NoteNumber":69,"Velocity":39,"Duration":342856,"SoundDuration":342856,"Delta":26996629},{"NoteNumber":62,"Velocity":40,"Duration":652173,"SoundDuration":652173,"Delta":27339486},{"NoteNumber":67,"Velocity":48,"Duration":652173,"SoundDuration":652173,"Delta":27339486},{"NoteNumber":55,"Velocity":28,"Duration":652173,"SoundDuration":652173,"Delta":27339486},{"NoteNumber":58,"Velocity":32,"Duration":326086,"SoundDuration":326086,"Delta":27665573},{"NoteNumber":55,"Velocity":30,"Duration":331491,"SoundDuration":331491,"Delta":27991660},{"NoteNumber":50,"Velocity":30,"Duration":338982,"SoundDuration":338982,"Delta":28323151},{"NoteNumber":43,"Velocity":30,"Duration":631859,"SoundDuration":631859,"Delta":28662134},{"NoteNumber":67,"Velocity":67,"Duration":309278,"SoundDuration":309278,"Delta":28984715},{"NoteNumber":69,"Velocity":69,"Duration":302802,"SoundDuration":302802,"Delta":29293993},{"NoteNumber":70,"Velocity":66,"Duration":309278,"SoundDuration":309278,"Delta":29596796},{"NoteNumber":72,"Velocity":69,"Duration":297029,"SoundDuration":297029,"Delta":29906074},{"NoteNumber":51,"Velocity":52,"Duration":601597,"SoundDuration":601597,"Delta":29906074},{"NoteNumber":74,"Velocity":70,"Duration":304568,"SoundDuration":304568,"Delta":30203104},{"NoteNumber":75,"Velocity":72,"Duration":297029,"SoundDuration":297029,"Delta":30507672},{"NoteNumber":65,"Velocity":49,"Duration":601597,"SoundDuration":601597,"Delta":30507672},{"NoteNumber":77,"Velocity":74,"Duration":304568,"SoundDuration":304568,"Delta":30804702},{"NoteNumber":79,"Velocity":75,"Duration":297530,"SoundDuration":297530,"Delta":31109270},{"NoteNumber":57,"Velocity":44,"Duration":1202846,"SoundDuration":1202846,"Delta":31109270},{"NoteNumber":53,"Velocity":44,"Duration":1202846,"SoundDuration":1202846,"Delta":31109270},{"NoteNumber":60,"Velocity":52,"Duration":1202846,"SoundDuration":1202846,"Delta":31109270},{"NoteNumber":81,"Velocity":72,"Duration":291261,"SoundDuration":291261,"Delta":31406801},{"NoteNumber":82,"Velocity":79,"Duration":297029,"SoundDuration":297029,"Delta":31698063},{"NoteNumber":84,"Velocity":77,"Duration":317024,"SoundDuration":317024,"Delta":31995092},{"NoteNumber":77,"Velocity":75,"Duration":1203209,"SoundDuration":1203209,"Delta":32312116},{"NoteNumber":50,"Velocity":67,"Duration":597147,"SoundDuration":597147,"Delta":32312116},{"NoteNumber":65,"Velocity":58,"Duration":606061,"SoundDuration":606061,"Delta":32909264},{"NoteNumber":53,"Velocity":49,"Duration":1211597,"SoundDuration":1211597,"Delta":33515325},{"NoteNumber":62,"Velocity":58,"Duration":1211597,"SoundDuration":1211597,"Delta":33515325},{"NoteNumber":58,"Velocity":49,"Duration":1211597,"SoundDuration":1211597,"Delta":33515325},{"NoteNumber":77,"Velocity":73,"Duration":307692,"SoundDuration":307692,"Delta":33818356},{"NoteNumber":79,"Velocity":75,"Duration":291262,"SoundDuration":291262,"Delta":34126048},{"NoteNumber":82,"Velocity":73,"Duration":309612,"SoundDuration":309612,"Delta":34417310},{"NoteNumber":75,"Velocity":70,"Duration":1209136,"SoundDuration":1209136,"Delta":34726923},{"NoteNumber":48,"Velocity":57,"Duration":600000,"SoundDuration":600000,"Delta":34726923},{"NoteNumber":65,"Velocity":53,"Duration":609136,"SoundDuration":609136,"Delta":35326923},{"NoteNumber":57,"Velocity":44,"Duration":1217835,"SoundDuration":1217835,"Delta":35936060},{"NoteNumber":53,"Velocity":44,"Duration":1217835,"SoundDuration":1217835,"Delta":35936060},{"NoteNumber":63,"Velocity":52,"Duration":1217835,"SoundDuration":1217835,"Delta":35936060},{"NoteNumber":75,"Velocity":67,"Duration":300902,"SoundDuration":300902,"Delta":36240629},{"NoteNumber":77,"Velocity":71,"Duration":300902,"SoundDuration":300902,"Delta":36541531},{"NoteNumber":81,"Velocity":67,"Duration":311461,"SoundDuration":311461,"Delta":36842434},{"NoteNumber":74,"Velocity":60,"Duration":1245848,"SoundDuration":1245848,"Delta":37153896},{"NoteNumber":46,"Velocity":53,"Duration":622924,"SoundDuration":622924,"Delta":37153896},{"NoteNumber":65,"Velocity":49,"Duration":622923,"SoundDuration":622923,"Delta":37776820},{"NoteNumber":62,"Velocity":44,"Duration":1217688,"SoundDuration":1217688,"Delta":38399744},{"NoteNumber":58,"Velocity":37,"Duration":1217688,"SoundDuration":1217688,"Delta":38399744},{"NoteNumber":53,"Velocity":37,"Duration":1217688,"SoundDuration":1217688,"Delta":38399744},{"NoteNumber":67,"Velocity":68,"Duration":306091,"SoundDuration":306091,"Delta":38711206},{"NoteNumber":69,"Velocity":69,"Duration":295566,"SoundDuration":295566,"Delta":39017297},{"NoteNumber":70,"Velocity":69,"Duration":304568,"SoundDuration":304568,"Delta":39312863},{"NoteNumber":72,"Velocity":69,"Duration":312500,"SoundDuration":312500,"Delta":39617432},{"NoteNumber":51,"Velocity":52,"Duration":606617,"SoundDuration":606617,"Delta":39617432},{"NoteNumber":74,"Velocity":70,"Duration":294117,"SoundDuration":294117,"Delta":39929932},{"NoteNumber":75,"Velocity":72,"Duration":303030,"SoundDuration":303030,"Delta":40224049},{"NoteNumber":65,"Velocity":49,"Duration":606060,"SoundDuration":606060,"Delta":40224049},{"NoteNumber":77,"Velocity":74,"Duration":303030,"SoundDuration":303030,"Delta":40527080},{"NoteNumber":79,"Velocity":75,"Duration":303030,"SoundDuration":303030,"Delta":40830110},{"NoteNumber":60,"Velocity":52,"Duration":1217407,"SoundDuration":1217407,"Delta":40830110},{"NoteNumber":57,"Velocity":44,"Duration":1217407,"SoundDuration":1217407,"Delta":40830110},{"NoteNumber":53,"Velocity":44,"Duration":1217407,"SoundDuration":1217407,"Delta":40830110},{"NoteNumber":81,"Velocity":72,"Duration":291262,"SoundDuration":291262,"Delta":41133141},{"NoteNumber":82,"Velocity":79,"Duration":306091,"SoundDuration":306091,"Delta":41424403},{"NoteNumber":84,"Velocity":77,"Duration":317024,"SoundDuration":317024,"Delta":41730494},{"NoteNumber":74,"Velocity":75,"Duration":1200701,"SoundDuration":1200701,"Delta":42047518},{"NoteNumber":50,"Velocity":67,"Duration":597686,"SoundDuration":597686,"Delta":42047518},{"NoteNumber":66,"Velocity":58,"Duration":603014,"SoundDuration":603014,"Delta":42645204},{"NoteNumber":57,"Velocity":44,"Duration":1201570,"SoundDuration":1201570,"Delta":43248219},{"NoteNumber":62,"Velocity":52,"Duration":1201570,"SoundDuration":1201570,"Delta":43248219},{"NoteNumber":54,"Velocity":44,"Duration":1201570,"SoundDuration":1201570,"Delta":43248219},{"NoteNumber":74,"Velocity":73,"Duration":297530,"SoundDuration":297530,"Delta":43549727},{"NoteNumber":76,"Velocity":75,"Duration":292682,"SoundDuration":292682,"Delta":43847257},{"NoteNumber":78,"Velocity":72,"Duration":309849,"SoundDuration":309849,"Delta":44139940},{"NoteNumber":79,"Velocity":77,"Duration":1209260,"SoundDuration":1209260,"Delta":44449790},{"NoteNumber":50,"Velocity":55,"Duration":597014,"SoundDuration":597014,"Delta":44449790},{"NoteNumber":62,"Velocity":53,"Duration":612245,"SoundDuration":612245,"Delta":45046805},{"NoteNumber":58,"Velocity":52,"Duration":1215516,"SoundDuration":1215516,"Delta":45659050},{"NoteNumber":55,"Velocity":44,"Duration":1215516,"SoundDuration":1215516,"Delta":45659050},{"NoteNumber":74,"Velocity":67,"Duration":300902,"SoundDuration":300902,"Delta":45965172},{"NoteNumber":72,"Velocity":70,"Duration":297029,"SoundDuration":297029,"Delta":46266075},{"NoteNumber":70,"Velocity":67,"Duration":311461,"SoundDuration":311461,"Delta":46563104},{"NoteNumber":78,"Velocity":63,"Duration":1224364,"SoundDuration":1224364,"Delta":46874566},{"NoteNumber":50,"Velocity":53,"Duration":612181,"SoundDuration":612181,"Delta":46874566},{"NoteNumber":62,"Velocity":41,"Duration":612182,"SoundDuration":612182,"Delta":47486748},{"NoteNumber":60,"Velocity":41,"Duration":1221178,"SoundDuration":1221178,"Delta":48098930},{"NoteNumber":57,"Velocity":35,"Duration":1221178,"SoundDuration":1221178,"Delta":48098930},{"NoteNumber":72,"Velocity":61,"Duration":300902,"SoundDuration":300902,"Delta":48405021},{"NoteNumber":70,"Velocity":63,"Duration":300902,"SoundDuration":300902,"Delta":48705924},{"NoteNumber":69,"Velocity":61,"Duration":313282,"SoundDuration":313282,"Delta":49006826},{"NoteNumber":79,"Velocity":68,"Duration":306091,"SoundDuration":306091,"Delta":49320109},{"NoteNumber":50,"Velocity":53,"Duration":612181,"SoundDuration":612181,"Delta":49320109},{"NoteNumber":74,"Velocity":61,"Duration":153045,"SoundDuration":153045,"Delta":49626200},{"NoteNumber":75,"Velocity":45,"Duration":76522,"SoundDuration":76522,"Delta":49779246},{"NoteNumber":74,"Velocity":47,"Duration":76522,"SoundDuration":76522,"Delta":49855769},{"NoteNumber":73,"Velocity":63,"Duration":306091,"SoundDuration":306091,"Delta":49932291},{"NoteNumber":62,"Velocity":44,"Duration":612182,"SoundDuration":612182,"Delta":49932291},{"NoteNumber":74,"Velocity":60,"Duration":306091,"SoundDuration":306091,"Delta":50238382},{"NoteNumber":75,"Velocity":63,"Duration":306091,"SoundDuration":306091,"Delta":50544473},{"NoteNumber":55,"Velocity":37,"Duration":1231893,"SoundDuration":1231893,"Delta":50544473},{"NoteNumber":58,"Velocity":44,"Duration":1231893,"SoundDuration":1231893,"Delta":50544473},{"NoteNumber":74,"Velocity":60,"Duration":306090,"SoundDuration":306090,"Delta":50850564},{"NoteNumber":70,"Velocity":63,"Duration":306091,"SoundDuration":306091,"Delta":51156655},{"NoteNumber":67,"Velocity":60,"Duration":617160,"SoundDuration":617160,"Delta":51462746},{"NoteNumber":74,"Velocity":63,"Duration":306091,"SoundDuration":306091,"Delta":51776367},{"NoteNumber":57,"Velocity":46,"Duration":153045,"SoundDuration":153045,"Delta":51776367},{"NoteNumber":50,"Velocity":46,"Duration":153045,"SoundDuration":153045,"Delta":51776367},{"NoteNumber":67,"Velocity":53,"Duration":300902,"SoundDuration":300902,"Delta":52082458},{"NoteNumber":74,"Velocity":68,"Duration":942382,"SoundDuration":942382,"Delta":52383360},{"NoteNumber":66,"Velocity":52,"Duration":307171,"SoundDuration":307171,"Delta":52383360},{"NoteNumber":63,"Velocity":51,"Duration":310886,"SoundDuration":310886,"Delta":52690532},{"NoteNumber":62,"Velocity":50,"Duration":321621,"SoundDuration":321621,"Delta":53001418},{"NoteNumber":62,"Velocity":53,"Duration":324324,"SoundDuration":324324,"Delta":53325743},{"NoteNumber":60,"Velocity":48,"Duration":324324,"SoundDuration":324324,"Delta":53325743},{"NoteNumber":64,"Velocity":54,"Duration":316364,"SoundDuration":316364,"Delta":53650067},{"NoteNumber":58,"Velocity":47,"Duration":316364,"SoundDuration":316364,"Delta":53650067},{"NoteNumber":66,"Velocity":56,"Duration":308507,"SoundDuration":308507,"Delta":53966431},{"NoteNumber":57,"Velocity":46,"Duration":308507,"SoundDuration":308507,"Delta":53966431},{"NoteNumber":67,"Velocity":57,"Duration":297029,"SoundDuration":297029,"Delta":54274939},{"NoteNumber":43,"Velocity":40,"Duration":601598,"SoundDuration":601598,"Delta":54274939},{"NoteNumber":55,"Velocity":40,"Duration":601598,"SoundDuration":601598,"Delta":54274939},{"NoteNumber":69,"Velocity":59,"Duration":304568,"SoundDuration":304568,"Delta":54571968},{"NoteNumber":70,"Velocity":61,"Duration":298286,"SoundDuration":298286,"Delta":54876537},{"NoteNumber":50,"Velocity":37,"Duration":602854,"SoundDuration":602854,"Delta":54876537},{"NoteNumber":72,"Velocity":63,"Duration":304568,"SoundDuration":304568,"Delta":55174823},{"NoteNumber":74,"Velocity":65,"Duration":324324,"SoundDuration":324324,"Delta":55479391},{"NoteNumber":58,"Velocity":34,"Duration":614179,"SoundDuration":614179,"Delta":55479391},{"NoteNumber":62,"Velocity":40,"Duration":614179,"SoundDuration":614179,"Delta":55479391},{"NoteNumber":55,"Velocity":34,"Duration":614179,"SoundDuration":614179,"Delta":55479391},{"NoteNumber":79,"Velocity":68,"Duration":289855,"SoundDuration":289855,"Delta":55803716},{"NoteNumber":78,"Velocity":66,"Duration":295566,"SoundDuration":295566,"Delta":56093571},{"NoteNumber":45,"Velocity":45,"Duration":621653,"SoundDuration":621653,"Delta":56093571},{"NoteNumber":79,"Velocity":64,"Duration":326087,"SoundDuration":326087,"Delta":56389137},{"NoteNumber":74,"Velocity":53,"Duration":1209196,"SoundDuration":1209196,"Delta":56715224},{"NoteNumber":46,"Velocity":44,"Duration":597014,"SoundDuration":597014,"Delta":56715224},{"NoteNumber":55,"Velocity":38,"Duration":612181,"SoundDuration":612181,"Delta":57312239},{"NoteNumber":62,"Velocity":29,"Duration":613414,"SoundDuration":613414,"Delta":57924421},{"NoteNumber":67,"Velocity":35,"Duration":610788,"SoundDuration":610788,"Delta":57924421},{"NoteNumber":74,"Velocity":56,"Duration":309062,"SoundDuration":309062,"Delta":58228773},{"NoteNumber":69,"Velocity":59,"Duration":315125,"SoundDuration":315125,"Delta":58537836},{"NoteNumber":63,"Velocity":31,"Duration":635981,"SoundDuration":635981,"Delta":58537836},{"NoteNumber":67,"Velocity":31,"Duration":635981,"SoundDuration":635981,"Delta":58537836},{"NoteNumber":48,"Velocity":35,"Duration":635981,"SoundDuration":635981,"Delta":58537836},{"NoteNumber":72,"Velocity":56,"Duration":320855,"SoundDuration":320855,"Delta":58852962},{"NoteNumber":70,"Velocity":53,"Duration":297029,"SoundDuration":297029,"Delta":59173817},{"NoteNumber":62,"Velocity":45,"Duration":297029,"SoundDuration":297029,"Delta":59173817},{"NoteNumber":67,"Velocity":45,"Duration":297029,"SoundDuration":297029,"Delta":59173817},{"NoteNumber":50,"Velocity":42,"Duration":297029,"SoundDuration":297029,"Delta":59173817},{"NoteNumber":63,"Velocity":50,"Duration":308135,"SoundDuration":308135,"Delta":59470847},{"NoteNumber":58,"Velocity":31,"Duration":312826,"SoundDuration":312826,"Delta":59778982},{"NoteNumber":61,"Velocity":50,"Duration":312826,"SoundDuration":312826,"Delta":59778982},{"NoteNumber":55,"Velocity":31,"Duration":312826,"SoundDuration":312826,"Delta":59778982},{"NoteNumber":63,"Velocity":49,"Duration":312826,"SoundDuration":312826,"Delta":60091808},{"NoteNumber":55,"Velocity":33,"Duration":309661,"SoundDuration":309661,"Delta":60404634},{"NoteNumber":58,"Velocity":38,"Duration":309661,"SoundDuration":309661,"Delta":60404634},{"NoteNumber":62,"Velocity":45,"Duration":309661,"SoundDuration":309661,"Delta":60404634},{"NoteNumber":70,"Velocity":53,"Duration":313283,"SoundDuration":313283,"Delta":60714295},{"NoteNumber":66,"Velocity":57,"Duration":315125,"SoundDuration":315125,"Delta":61027578},{"NoteNumber":60,"Velocity":46,"Duration":630251,"SoundDuration":630251,"Delta":61027578},{"NoteNumber":50,"Velocity":42,"Duration":630251,"SoundDuration":630251,"Delta":61027578},{"NoteNumber":69,"Velocity":53,"Duration":315125,"SoundDuration":315125,"Delta":61342704},{"NoteNumber":67,"Velocity":53,"Duration":1240344,"SoundDuration":1240344,"Delta":61657830},{"NoteNumber":58,"Velocity":47,"Duration":1240344,"SoundDuration":1240344,"Delta":61657830},{"NoteNumber":43,"Velocity":46,"Duration":2474672,"SoundDuration":2474672,"Delta":61657830},{"NoteNumber":51,"Velocity":42,"Duration":309725,"SoundDuration":309725,"Delta":61956338},{"NoteNumber":49,"Velocity":44,"Duration":316055,"SoundDuration":316055,"Delta":62266063},{"NoteNumber":51,"Velocity":42,"Duration":316055,"SoundDuration":316055,"Delta":62582119},{"NoteNumber":50,"Velocity":39,"Duration":1234328,"SoundDuration":1234328,"Delta":62898174},{"NoteNumber":62,"Velocity":52,"Duration":306091,"SoundDuration":306091,"Delta":63214230},{"NoteNumber":60,"Velocity":48,"Duration":612181,"SoundDuration":612181,"Delta":63520321},{"NoteNumber":64,"Velocity":54,"Duration":306090,"SoundDuration":306090,"Delta":63520321},{"NoteNumber":66,"Velocity":55,"Duration":306091,"SoundDuration":306091,"Delta":63826412},{"NoteNumber":58,"Velocity":51,"Duration":309278,"SoundDuration":309278,"Delta":64132503},{"NoteNumber":67,"Velocity":57,"Duration":309278,"SoundDuration":309278,"Delta":64132503},{"NoteNumber":43,"Velocity":40,"Duration":609278,"SoundDuration":609278,"Delta":64132503},{"NoteNumber":69,"Velocity":59,"Duration":299999,"SoundDuration":299999,"Delta":64441781},{"NoteNumber":70,"Velocity":61,"Duration":304568,"SoundDuration":304568,"Delta":64741781},{"NoteNumber":50,"Velocity":37,"Duration":609137,"SoundDuration":609137,"Delta":64741781},{"NoteNumber":72,"Velocity":63,"Duration":304568,"SoundDuration":304568,"Delta":65046350},{"NoteNumber":74,"Velocity":68,"Duration":319148,"SoundDuration":319148,"Delta":65350918},{"NoteNumber":58,"Velocity":34,"Duration":609003,"SoundDuration":609003,"Delta":65350918},{"NoteNumber":62,"Velocity":40,"Duration":609003,"SoundDuration":609003,"Delta":65350918},{"NoteNumber":55,"Velocity":34,"Duration":609003,"SoundDuration":609003,"Delta":65350918},{"NoteNumber":79,"Velocity":63,"Duration":289855,"SoundDuration":289855,"Delta":65670067},{"NoteNumber":65,"Velocity":33,"Duration":614972,"SoundDuration":614972,"Delta":65959922},{"NoteNumber":75,"Velocity":40,"Duration":614972,"SoundDuration":614972,"Delta":65959922},{"NoteNumber":72,"Velocity":36,"Duration":614972,"SoundDuration":614972,"Delta":65959922},{"NoteNumber":77,"Velocity":61,"Duration":294117,"SoundDuration":294117,"Delta":65959922},{"NoteNumber":45,"Velocity":42,"Duration":614972,"SoundDuration":614972,"Delta":65959922},{"NoteNumber":79,"Velocity":59,"Duration":320855,"SoundDuration":320855,"Delta":66254040},{"NoteNumber":70,"Velocity":46,"Duration":1212317,"SoundDuration":1212317,"Delta":66574895},{"NoteNumber":65,"Velocity":46,"Duration":1209778,"SoundDuration":1209778,"Delta":66574895},{"NoteNumber":74,"Velocity":55,"Duration":1212317,"SoundDuration":1212317,"Delta":66574895},{"NoteNumber":46,"Velocity":44,"Duration":612182,"SoundDuration":612182,"Delta":66574895},{"NoteNumber":53,"Velocity":41,"Duration":600135,"SoundDuration":600135,"Delta":67187077},{"NoteNumber":65,"Velocity":42,"Duration":613414,"SoundDuration":613414,"Delta":67787212},{"NoteNumber":58,"Velocity":30,"Duration":613414,"SoundDuration":613414,"Delta":67787212},{"NoteNumber":62,"Velocity":30,"Duration":613414,"SoundDuration":613414,"Delta":67787212},{"NoteNumber":77,"Velocity":60,"Duration":309062,"SoundDuration":309062,"Delta":68091564},{"NoteNumber":63,"Velocity":50,"Duration":635981,"SoundDuration":635981,"Delta":68400627},{"NoteNumber":75,"Velocity":63,"Duration":315125,"SoundDuration":315125,"Delta":68400627},{"NoteNumber":70,"Velocity":50,"Duration":635981,"SoundDuration":635981,"Delta":68400627},{"NoteNumber":74,"Velocity":50,"Duration":635981,"SoundDuration":635981,"Delta":68400627},{"NoteNumber":43,"Velocity":41,"Duration":635981,"SoundDuration":635981,"Delta":68400627},{"NoteNumber":77,"Velocity":58,"Duration":320855,"SoundDuration":320855,"Delta":68715753},{"NoteNumber":69,"Velocity":50,"Duration":1224364,"SoundDuration":1224364,"Delta":69036608},{"NoteNumber":63,"Velocity":50,"Duration":1221813,"SoundDuration":1221813,"Delta":69036608},{"NoteNumber":72,"Velocity":60,"Duration":1224364,"SoundDuration":1224364,"Delta":69036608},{"NoteNumber":45,"Velocity":44,"Duration":612182,"SoundDuration":612182,"Delta":69036608},{"NoteNumber":57,"Velocity":39,"Duration":612182,"SoundDuration":612182,"Delta":69648790},{"NoteNumber":60,"Velocity":33,"Duration":613414,"SoundDuration":613414,"Delta":70260972},{"NoteNumber":63,"Velocity":33,"Duration":613414,"SoundDuration":613414,"Delta":70260972},{"NoteNumber":67,"Velocity":39,"Duration":613414,"SoundDuration":613414,"Delta":70260972},{"NoteNumber":75,"Velocity":55,"Duration":309062,"SoundDuration":309062,"Delta":70565324},{"NoteNumber":69,"Velocity":37,"Duration":635981,"SoundDuration":635981,"Delta":70874387},{"NoteNumber":72,"Velocity":38,"Duration":635981,"SoundDuration":635981,"Delta":70874387},{"NoteNumber":62,"Velocity":37,"Duration":635981,"SoundDuration":635981,"Delta":70874387},{"NoteNumber":74,"Velocity":56,"Duration":315125,"SoundDuration":315125,"Delta":70874387},{"NoteNumber":42,"Velocity":36,"Duration":635981,"SoundDuration":635981,"Delta":70874387},{"NoteNumber":75,"Velocity":50,"Duration":320855,"SoundDuration":320855,"Delta":71189513},{"NoteNumber":62,"Velocity":44,"Duration":626565,"SoundDuration":626565,"Delta":71510368},{"NoteNumber":67,"Velocity":44,"Duration":626565,"SoundDuration":626565,"Delta":71510368},{"NoteNumber":70,"Velocity":53,"Duration":626565,"SoundDuration":626565,"Delta":71510368},{"NoteNumber":43,"Velocity":39,"Duration":626565,"SoundDuration":626565,"Delta":71510368},{"NoteNumber":50,"Velocity":36,"Duration":626565,"SoundDuration":626565,"Delta":72136934},{"NoteNumber":58,"Velocity":23,"Duration":628705,"SoundDuration":628705,"Delta":72763500},{"NoteNumber":55,"Velocity":23,"Duration":628705,"SoundDuration":628705,"Delta":72763500},{"NoteNumber":62,"Velocity":34,"Duration":628705,"SoundDuration":628705,"Delta":72763500},{"NoteNumber":74,"Velocity":54,"Duration":320855,"SoundDuration":320855,"Delta":73071350},{"NoteNumber":72,"Velocity":56,"Duration":314136,"SoundDuration":314136,"Delta":73392206},{"NoteNumber":63,"Velocity":35,"Duration":634991,"SoundDuration":634991,"Delta":73392206},{"NoteNumber":69,"Velocity":35,"Duration":634991,"SoundDuration":634991,"Delta":73392206},{"NoteNumber":48,"Velocity":34,"Duration":634991,"SoundDuration":634991,"Delta":73392206},{"NoteNumber":74,"Velocity":52,"Duration":320855,"SoundDuration":320855,"Delta":73706342},{"NoteNumber":67,"Velocity":35,"Duration":645161,"SoundDuration":645161,"Delta":74027197},{"NoteNumber":72,"Velocity":55,"Duration":322580,"SoundDuration":322580,"Delta":74027197},{"NoteNumber":62,"Velocity":35,"Duration":642472,"SoundDuration":642472,"Delta":74027197},{"NoteNumber":50,"Velocity":39,"Duration":2983485,"SoundDuration":2983485,"Delta":74027197},{"NoteNumber":70,"Velocity":51,"Duration":322580,"SoundDuration":322580,"Delta":74349778},{"NoteNumber":69,"Velocity":50,"Duration":322580,"SoundDuration":322580,"Delta":74672358},{"NoteNumber":58,"Velocity":27,"Duration":652251,"SoundDuration":652251,"Delta":74672358},{"NoteNumber":62,"Velocity":32,"Duration":652251,"SoundDuration":652251,"Delta":74672358},{"NoteNumber":67,"Velocity":49,"Duration":329670,"SoundDuration":329670,"Delta":74994939},{"NoteNumber":70,"Velocity":52,"Duration":1000000,"SoundDuration":1000000,"Delta":75324609},{"NoteNumber":64,"Velocity":35,"Duration":666667,"SoundDuration":666667,"Delta":75324609},{"NoteNumber":61,"Velocity":31,"Duration":666667,"SoundDuration":666667,"Delta":75324609},{"NoteNumber":63,"Velocity":29,"Duration":684210,"SoundDuration":684210,"Delta":75991276},{"NoteNumber":66,"Velocity":32,"Duration":684210,"SoundDuration":684210,"Delta":75991276},{"NoteNumber":60,"Velocity":30,"Duration":684210,"SoundDuration":684210,"Delta":75991276},{"NoteNumber":69,"Velocity":39,"Duration":350876,"SoundDuration":350876,"Delta":76324610},{"NoteNumber":62,"Velocity":34,"Duration":335195,"SoundDuration":335195,"Delta":76675487},{"NoteNumber":67,"Velocity":48,"Duration":335195,"SoundDuration":335195,"Delta":76675487},{"NoteNumber":59,"Velocity":34,"Duration":335195,"SoundDuration":335195,"Delta":76675487},{"NoteNumber":43,"Velocity":25,"Duration":580373,"SoundDuration":580373,"Delta":77010682},{"NoteNumber":50,"Velocity":30,"Duration":580373,"SoundDuration":580373,"Delta":77010682},{"NoteNumber":71,"Velocity":42,"Duration":567455,"SoundDuration":567455,"Delta":77310682},{"NoteNumber":74,"Velocity":50,"Duration":567455,"SoundDuration":567455,"Delta":77310682},{"NoteNumber":50,"Velocity":24,"Duration":564859,"SoundDuration":564859,"Delta":77591056},{"NoteNumber":62,"Velocity":29,"Duration":564859,"SoundDuration":564859,"Delta":77591056},{"NoteNumber":55,"Velocity":24,"Duration":564859,"SoundDuration":564859,"Delta":77591056},{"NoteNumber":71,"Velocity":44,"Duration":562138,"SoundDuration":562138,"Delta":77878138},{"NoteNumber":67,"Velocity":37,"Duration":562138,"SoundDuration":562138,"Delta":77878138},{"NoteNumber":43,"Velocity":24,"Duration":557087,"SoundDuration":557087,"Delta":78155916},{"NoteNumber":50,"Velocity":29,"Duration":557087,"SoundDuration":557087,"Delta":78155916},{"NoteNumber":71,"Velocity":41,"Duration":549225,"SoundDuration":549225,"Delta":78440276},{"NoteNumber":74,"Velocity":49,"Duration":549225,"SoundDuration":549225,"Delta":78440276},{"NoteNumber":50,"Velocity":24,"Duration":538505,"SoundDuration":538505,"Delta":78713003},{"NoteNumber":54,"Velocity":24,"Duration":538505,"SoundDuration":538505,"Delta":78713003},{"NoteNumber":62,"Velocity":29,"Duration":538505,"SoundDuration":538505,"Delta":78713003},{"NoteNumber":72,"Velocity":44,"Duration":529865,"SoundDuration":529865,"Delta":78989501},{"NoteNumber":76,"Velocity":52,"Duration":529865,"SoundDuration":529865,"Delta":78989501},{"NoteNumber":43,"Velocity":29,"Duration":522094,"SoundDuration":522094,"Delta":79251509},{"NoteNumber":50,"Velocity":29,"Duration":522094,"SoundDuration":522094,"Delta":79251509},{"NoteNumber":69,"Velocity":47,"Duration":254237,"SoundDuration":254237,"Delta":79519366},{"NoteNumber":66,"Velocity":39,"Duration":254237,"SoundDuration":254237,"Delta":79519366},{"NoteNumber":67,"Velocity":39,"Duration":263742,"SoundDuration":263742,"Delta":79773604},{"NoteNumber":71,"Velocity":47,"Duration":263742,"SoundDuration":263742,"Delta":79773604},{"NoteNumber":50,"Velocity":24,"Duration":517979,"SoundDuration":517979,"Delta":79773604},{"NoteNumber":54,"Velocity":24,"Duration":517979,"SoundDuration":517979,"Delta":79773604},{"NoteNumber":62,"Velocity":29,"Duration":517979,"SoundDuration":517979,"Delta":79773604},{"NoteNumber":69,"Velocity":41,"Duration":513978,"SoundDuration":513978,"Delta":80037346},{"NoteNumber":72,"Velocity":49,"Duration":513978,"SoundDuration":513978,"Delta":80037346},{"NoteNumber":43,"Velocity":25,"Duration":512905,"SoundDuration":512905,"Delta":80291584},{"NoteNumber":50,"Velocity":30,"Duration":512905,"SoundDuration":512905,"Delta":80291584},{"NoteNumber":72,"Velocity":39,"Duration":506328,"SoundDuration":506328,"Delta":80551324},{"NoteNumber":76,"Velocity":47,"Duration":506328,"SoundDuration":506328,"Delta":80551324},{"NoteNumber":50,"Velocity":25,"Duration":517948,"SoundDuration":517948,"Delta":80804489},{"NoteNumber":55,"Velocity":25,"Duration":517948,"SoundDuration":517948,"Delta":80804489},{"NoteNumber":62,"Velocity":30,"Duration":517948,"SoundDuration":517948,"Delta":80804489},{"NoteNumber":71,"Velocity":43,"Duration":516885,"SoundDuration":516885,"Delta":81057653},{"NoteNumber":74,"Velocity":51,"Duration":516885,"SoundDuration":516885,"Delta":81057653},{"NoteNumber":43,"Velocity":25,"Duration":502100,"SoundDuration":502100,"Delta":81322437},{"NoteNumber":50,"Velocity":30,"Duration":502100,"SoundDuration":502100,"Delta":81322437},{"NoteNumber":79,"Velocity":52,"Duration":505319,"SoundDuration":505319,"Delta":81574538},{"NoteNumber":76,"Velocity":44,"Duration":505319,"SoundDuration":505319,"Delta":81574538},{"NoteNumber":50,"Velocity":25,"Duration":506365,"SoundDuration":506365,"Delta":81824538},{"NoteNumber":62,"Velocity":30,"Duration":506365,"SoundDuration":506365,"Delta":81824538},{"NoteNumber":55,"Velocity":25,"Duration":506365,"SoundDuration":506365,"Delta":81824538},{"NoteNumber":74,"Velocity":41,"Duration":507456,"SoundDuration":507456,"Delta":82079857},{"NoteNumber":78,"Velocity":49,"Duration":507456,"SoundDuration":507456,"Delta":82079857},{"NoteNumber":43,"Velocity":25,"Duration":507456,"SoundDuration":507456,"Delta":82330903},{"NoteNumber":50,"Velocity":30,"Duration":507456,"SoundDuration":507456,"Delta":82330903},{"NoteNumber":72,"Velocity":41,"Duration":507456,"SoundDuration":507456,"Delta":82587314},{"NoteNumber":76,"Velocity":49,"Duration":507456,"SoundDuration":507456,"Delta":82587314},{"NoteNumber":50,"Velocity":25,"Duration":507456,"SoundDuration":507456,"Delta":82838360},{"NoteNumber":54,"Velocity":25,"Duration":507456,"SoundDuration":507456,"Delta":82838360},{"NoteNumber":62,"Velocity":30,"Duration":507456,"SoundDuration":507456,"Delta":82838360},{"NoteNumber":71,"Velocity":41,"Duration":508556,"SoundDuration":508556,"Delta":83094770},{"NoteNumber":74,"Velocity":49,"Duration":508556,"SoundDuration":508556,"Delta":83094770},{"NoteNumber":43,"Velocity":25,"Duration":518379,"SoundDuration":518379,"Delta":83345816},{"NoteNumber":50,"Velocity":30,"Duration":518379,"SoundDuration":518379,"Delta":83345816},{"NoteNumber":66,"Velocity":38,"Duration":260869,"SoundDuration":260869,"Delta":83603327},{"NoteNumber":69,"Velocity":46,"Duration":260869,"SoundDuration":260869,"Delta":83603327},{"NoteNumber":71,"Velocity":46,"Duration":260869,"SoundDuration":260869,"Delta":83864196},{"NoteNumber":67,"Velocity":38,"Duration":260869,"SoundDuration":260869,"Delta":83864196},{"NoteNumber":50,"Velocity":25,"Duration":527535,"SoundDuration":527535,"Delta":83864196},{"NoteNumber":54,"Velocity":25,"Duration":527535,"SoundDuration":527535,"Delta":83864196},{"NoteNumber":62,"Velocity":30,"Duration":527535,"SoundDuration":527535,"Delta":83864196},{"NoteNumber":69,"Velocity":39,"Duration":533332,"SoundDuration":533332,"Delta":84125066},{"NoteNumber":72,"Velocity":47,"Duration":533332,"SoundDuration":533332,"Delta":84125066},{"NoteNumber":43,"Velocity":25,"Duration":544856,"SoundDuration":544856,"Delta":84391732},{"NoteNumber":50,"Velocity":30,"Duration":544856,"SoundDuration":544856,"Delta":84391732},{"NoteNumber":70,"Velocity":41,"Duration":556380,"SoundDuration":556380,"Delta":84658399},{"NoteNumber":73,"Velocity":49,"Duration":556380,"SoundDuration":556380,"Delta":84658399},{"NoteNumber":50,"Velocity":24,"Duration":542833,"SoundDuration":542833,"Delta":84936589},{"NoteNumber":55,"Velocity":24,"Duration":542833,"SoundDuration":542833,"Delta":84936589},{"NoteNumber":62,"Velocity":29,"Duration":542833,"SoundDuration":542833,"Delta":84936589},{"NoteNumber":71,"Velocity":42,"Duration":264643,"SoundDuration":264643,"Delta":85214779},{"NoteNumber":74,"Velocity":50,"Duration":264643,"SoundDuration":264643,"Delta":85214779},{"NoteNumber":43,"Velocity":23,"Duration":264643,"SoundDuration":264643,"Delta":85479422},{"NoteNumber":50,"Velocity":28,"Duration":264643,"SoundDuration":264643,"Delta":85479422},{"NoteNumber":62,"Velocity":59,"Duration":509402,"SoundDuration":509402,"Delta":85744066},{"NoteNumber":71,"Velocity":60,"Duration":509402,"SoundDuration":509402,"Delta":85744066},{"NoteNumber":74,"Velocity":71,"Duration":509402,"SoundDuration":509402,"Delta":85744066},{"NoteNumber":52,"Velocity":64,"Duration":502874,"SoundDuration":502874,"Delta":85997102},{"NoteNumber":59,"Velocity":52,"Duration":498376,"SoundDuration":498376,"Delta":86253469},{"NoteNumber":71,"Velocity":62,"Duration":498376,"SoundDuration":498376,"Delta":86253469},{"NoteNumber":67,"Velocity":52,"Duration":498376,"SoundDuration":498376,"Delta":86253469},{"NoteNumber":43,"Velocity":41,"Duration":251868,"SoundDuration":251868,"Delta":86499977},{"NoteNumber":50,"Velocity":50,"Duration":251868,"SoundDuration":251868,"Delta":86499977},{"NoteNumber":62,"Velocity":58,"Duration":499433,"SoundDuration":499433,"Delta":86751845},{"NoteNumber":71,"Velocity":59,"Duration":499433,"SoundDuration":499433,"Delta":86751845},{"NoteNumber":74,"Velocity":70,"Duration":499433,"SoundDuration":499433,"Delta":86751845},{"NoteNumber":55,"Velocity":67,"Duration":496307,"SoundDuration":496307,"Delta":86999410},{"NoteNumber":64,"Velocity":59,"Duration":493112,"SoundDuration":493112,"Delta":87251278},{"NoteNumber":72,"Velocity":60,"Duration":493112,"SoundDuration":493112,"Delta":87251278},{"NoteNumber":76,"Velocity":71,"Duration":493112,"SoundDuration":493112,"Delta":87251278},{"NoteNumber":50,"Velocity":49,"Duration":248673,"SoundDuration":248673,"Delta":87495717},{"NoteNumber":43,"Velocity":40,"Duration":248673,"SoundDuration":248673,"Delta":87495717},{"NoteNumber":54,"Velocity":49,"Duration":248673,"SoundDuration":248673,"Delta":87495717},{"NoteNumber":69,"Velocity":66,"Duration":266288,"SoundDuration":266288,"Delta":87744391},{"NoteNumber":66,"Velocity":56,"Duration":266288,"SoundDuration":266288,"Delta":87744391},{"NoteNumber":67,"Velocity":56,"Duration":270250,"SoundDuration":270250,"Delta":87989870},{"NoteNumber":71,"Velocity":66,"Duration":270250,"SoundDuration":270250,"Delta":87989870},{"NoteNumber":63,"Velocity":61,"Duration":496216,"SoundDuration":496216,"Delta":87989870},{"NoteNumber":69,"Velocity":59,"Duration":496216,"SoundDuration":496216,"Delta":88239578},{"NoteNumber":72,"Velocity":68,"Duration":496216,"SoundDuration":496216,"Delta":88239578},{"NoteNumber":55,"Velocity":44,"Duration":249708,"SoundDuration":249708,"Delta":88486086},{"NoteNumber":57,"Velocity":44,"Duration":249708,"SoundDuration":249708,"Delta":88486086},{"NoteNumber":62,"Velocity":52,"Duration":249708,"SoundDuration":249708,"Delta":88486086},{"NoteNumber":64,"Velocity":57,"Duration":523918,"SoundDuration":523918,"Delta":88735795},{"NoteNumber":72,"Velocity":56,"Duration":523918,"SoundDuration":523918,"Delta":88735795},{"NoteNumber":76,"Velocity":67,"Duration":523918,"SoundDuration":523918,"Delta":88735795},{"NoteNumber":66,"Velocity":66,"Duration":495093,"SoundDuration":495093,"Delta":88985503},{"NoteNumber":62,"Velocity":63,"Duration":489637,"SoundDuration":489637,"Delta":89239633},{"NoteNumber":71,"Velocity":63,"Duration":489637,"SoundDuration":489637,"Delta":89239633},{"NoteNumber":74,"Velocity":75,"Duration":489637,"SoundDuration":489637,"Delta":89239633},{"NoteNumber":67,"Velocity":56,"Duration":246601,"SoundDuration":246601,"Delta":89480597},{"NoteNumber":67,"Velocity":64,"Duration":513075,"SoundDuration":513075,"Delta":89729270},{"NoteNumber":79,"Velocity":78,"Duration":513075,"SoundDuration":513075,"Delta":89729270},{"NoteNumber":76,"Velocity":66,"Duration":513075,"SoundDuration":513075,"Delta":89729270},{"NoteNumber":58,"Velocity":67,"Duration":494717,"SoundDuration":494717,"Delta":89971206},{"NoteNumber":66,"Velocity":61,"Duration":515125,"SoundDuration":515125,"Delta":90222021},{"NoteNumber":74,"Velocity":62,"Duration":515125,"SoundDuration":515125,"Delta":90222021},{"NoteNumber":78,"Velocity":73,"Duration":515125,"SoundDuration":515125,"Delta":90222021},{"NoteNumber":59,"Velocity":55,"Duration":250815,"SoundDuration":250815,"Delta":90465923},{"NoteNumber":64,"Velocity":61,"Duration":518177,"SoundDuration":518177,"Delta":90716738},{"NoteNumber":72,"Velocity":62,"Duration":518177,"SoundDuration":518177,"Delta":90716738},{"NoteNumber":76,"Velocity":74,"Duration":518177,"SoundDuration":518177,"Delta":90716738},{"NoteNumber":56,"Velocity":69,"Duration":495951,"SoundDuration":495951,"Delta":90961636},{"NoteNumber":62,"Velocity":61,"Duration":486820,"SoundDuration":486820,"Delta":91214673},{"NoteNumber":71,"Velocity":62,"Duration":486820,"SoundDuration":486820,"Delta":91214673},{"NoteNumber":74,"Velocity":74,"Duration":486820,"SoundDuration":486820,"Delta":91214673},{"NoteNumber":57,"Velocity":60,"Duration":243905,"SoundDuration":243905,"Delta":91457588},{"NoteNumber":57,"Velocity":60,"Duration":266901,"SoundDuration":266901,"Delta":91701493},{"NoteNumber":66,"Velocity":58,"Duration":266901,"SoundDuration":266901,"Delta":91701493},{"NoteNumber":69,"Velocity":69,"Duration":266901,"SoundDuration":266901,"Delta":91701493},{"NoteNumber":59,"Velocity":60,"Duration":269625,"SoundDuration":269625,"Delta":91947733},{"NoteNumber":71,"Velocity":69,"Duration":269625,"SoundDuration":269625,"Delta":91947733},{"NoteNumber":67,"Velocity":58,"Duration":269625,"SoundDuration":269625,"Delta":91947733},{"NoteNumber":51,"Velocity":71,"Duration":499664,"SoundDuration":499664,"Delta":91947733},{"NoteNumber":60,"Velocity":61,"Duration":502451,"SoundDuration":502451,"Delta":92196526},{"NoteNumber":69,"Velocity":62,"Duration":502451,"SoundDuration":502451,"Delta":92196526},{"NoteNumber":72,"Velocity":74,"Duration":502451,"SoundDuration":502451,"Delta":92196526},{"NoteNumber":50,"Velocity":64,"Duration":251580,"SoundDuration":251580,"Delta":92447398},{"NoteNumber":64,"Velocity":68,"Duration":510638,"SoundDuration":510638,"Delta":92698978},{"NoteNumber":72,"Velocity":69,"Duration":510638,"SoundDuration":510638,"Delta":92698978},{"NoteNumber":76,"Velocity":82,"Duration":510638,"SoundDuration":510638,"Delta":92698978},{"NoteNumber":42,"Velocity":78,"Duration":387280,"SoundDuration":387280,"Delta":92954297},{"NoteNumber":62,"Velocity":78,"Duration":131961,"SoundDuration":131961,"Delta":93209616},{"NoteNumber":71,"Velocity":78,"Duration":131961,"SoundDuration":131961,"Delta":93209616},{"NoteNumber":74,"Velocity":92,"Duration":131961,"SoundDuration":131961,"Delta":93209616},{"NoteNumber":67,"Velocity":71,"Duration":131961,"SoundDuration":131961,"Delta":93473538},{"NoteNumber":71,"Velocity":71,"Duration":131961,"SoundDuration":131961,"Delta":93473538},{"NoteNumber":74,"Velocity":84,"Duration":131961,"SoundDuration":131961,"Delta":93473538},{"NoteNumber":43,"Velocity":74,"Duration":131961,"SoundDuration":131961,"Delta":93473538},{"NoteNumber":67,"Velocity":77,"Duration":1023448,"SoundDuration":1023448,"Delta":93737460},{"NoteNumber":71,"Velocity":77,"Duration":1023448,"SoundDuration":1023448,"Delta":93737460},{"NoteNumber":79,"Velocity":90,"Duration":770944,"SoundDuration":770944,"Delta":93737460},{"NoteNumber":64,"Velocity":78,"Duration":1023448,"SoundDuration":1023448,"Delta":93737460},{"NoteNumber":59,"Velocity":78,"Duration":1023448,"SoundDuration":1023448,"Delta":93737460},{"NoteNumber":52,"Velocity":63,"Duration":513963,"SoundDuration":513963,"Delta":93737460},{"NoteNumber":55,"Velocity":75,"Duration":509485,"SoundDuration":509485,"Delta":94251423},{"NoteNumber":76,"Velocity":83,"Duration":252504,"SoundDuration":252504,"Delta":94508404},{"NoteNumber":66,"Velocity":73,"Duration":129611,"SoundDuration":129611,"Delta":94760908},{"NoteNumber":71,"Velocity":73,"Duration":129611,"SoundDuration":129611,"Delta":94760908},{"NoteNumber":78,"Velocity":86,"Duration":129611,"SoundDuration":129611,"Delta":94760908},{"NoteNumber":62,"Velocity":72,"Duration":129611,"SoundDuration":129611,"Delta":94760908},{"NoteNumber":59,"Velocity":59,"Duration":129611,"SoundDuration":129611,"Delta":94760908},{"NoteNumber":66,"Velocity":67,"Duration":129611,"SoundDuration":129611,"Delta":95020132},{"NoteNumber":71,"Velocity":81,"Duration":129611,"SoundDuration":129611,"Delta":95020132},{"NoteNumber":50,"Velocity":55,"Duration":129611,"SoundDuration":129611,"Delta":95020132},{"NoteNumber":54,"Velocity":55,"Duration":129611,"SoundDuration":129611,"Delta":95020132},{"NoteNumber":59,"Velocity":63,"Duration":129611,"SoundDuration":129611,"Delta":95020132},{"NoteNumber":64,"Velocity":77,"Duration":1024558,"SoundDuration":1024558,"Delta":95279356},{"NoteNumber":67,"Velocity":77,"Duration":1024558,"SoundDuration":1024558,"Delta":95279356},{"NoteNumber":76,"Velocity":90,"Duration":770944,"SoundDuration":770944,"Delta":95279356},{"NoteNumber":60,"Velocity":78,"Duration":1024558,"SoundDuration":1024558,"Delta":95279356},{"NoteNumber":55,"Velocity":78,"Duration":1024558,"SoundDuration":1024558,"Delta":95279356},{"NoteNumber":48,"Velocity":63,"Duration":513963,"SoundDuration":513963,"Delta":95279356},{"NoteNumber":52,"Velocity":75,"Duration":510595,"SoundDuration":510595,"Delta":95793319},{"NoteNumber":72,"Velocity":77,"Duration":253613,"SoundDuration":253613,"Delta":96050301},{"NoteNumber":62,"Velocity":73,"Duration":129611,"SoundDuration":129611,"Delta":96303915},{"NoteNumber":67,"Velocity":73,"Duration":129611,"SoundDuration":129611,"Delta":96303915},{"NoteNumber":74,"Velocity":86,"Duration":129611,"SoundDuration":129611,"Delta":96303915},{"NoteNumber":59,"Velocity":72,"Duration":129611,"SoundDuration":129611,"Delta":96303915},{"NoteNumber":55,"Velocity":59,"Duration":129611,"SoundDuration":129611,"Delta":96303915},{"NoteNumber":67,"Velocity":81,"Duration":129611,"SoundDuration":129611,"Delta":96563139},{"NoteNumber":67,"Velocity":56,"Duration":1011758,"SoundDuration":1011758,"Delta":96822363},{"NoteNumber":62,"Velocity":77,"Duration":760712,"SoundDuration":760712,"Delta":96822363},{"NoteNumber":74,"Velocity":90,"Duration":760712,"SoundDuration":760712,"Delta":96822363},{"NoteNumber":50,"Velocity":56,"Duration":1011758,"SoundDuration":1011758,"Delta":96822363},{"NoteNumber":47,"Velocity":56,"Duration":509666,"SoundDuration":509666,"Delta":96822363},{"NoteNumber":59,"Velocity":64,"Duration":509666,"SoundDuration":509666,"Delta":96822363},{"NoteNumber":46,"Velocity":57,"Duration":502092,"SoundDuration":502092,"Delta":97332029},{"NoteNumber":58,"Velocity":67,"Duration":502092,"SoundDuration":502092,"Delta":97332029},{"NoteNumber":61,"Velocity":71,"Duration":251046,"SoundDuration":251046,"Delta":97583075},{"NoteNumber":73,"Velocity":83,"Duration":251046,"SoundDuration":251046,"Delta":97583075},{"NoteNumber":60,"Velocity":71,"Duration":502091,"SoundDuration":502091,"Delta":97834121},{"NoteNumber":66,"Velocity":71,"Duration":502091,"SoundDuration":502091,"Delta":97834121},{"NoteNumber":72,"Velocity":82,"Duration":502091,"SoundDuration":502091,"Delta":97834121},{"NoteNumber":45,"Velocity":57,"Duration":502091,"SoundDuration":502091,"Delta":97834121},{"NoteNumber":51,"Velocity":57,"Duration":502091,"SoundDuration":502091,"Delta":97834121},{"NoteNumber":57,"Velocity":69,"Duration":502091,"SoundDuration":502091,"Delta":97834121},{"NoteNumber":59,"Velocity":60,"Duration":127907,"SoundDuration":127907,"Delta":98336213},{"NoteNumber":65,"Velocity":71,"Duration":127907,"SoundDuration":127907,"Delta":98336213},{"NoteNumber":71,"Velocity":83,"Duration":127907,"SoundDuration":127907,"Delta":98336213},{"NoteNumber":44,"Velocity":46,"Duration":127907,"SoundDuration":127907,"Delta":98336213},{"NoteNumber":50,"Velocity":55,"Duration":127907,"SoundDuration":127907,"Delta":98336213},{"NoteNumber":56,"Velocity":64,"Duration":127907,"SoundDuration":127907,"Delta":98336213},{"NoteNumber":68,"Velocity":64,"Duration":130219,"SoundDuration":130219,"Delta":98591456},{"NoteNumber":65,"Velocity":55,"Duration":130219,"SoundDuration":130219,"Delta":98591456},{"NoteNumber":71,"Velocity":64,"Duration":130219,"SoundDuration":130219,"Delta":98591456},{"NoteNumber":77,"Velocity":79,"Duration":130219,"SoundDuration":130219,"Delta":98591456},{"NoteNumber":50,"Velocity":44,"Duration":130219,"SoundDuration":130219,"Delta":98591456},{"NoteNumber":59,"Velocity":61,"Duration":130219,"SoundDuration":130219,"Delta":98591456},{"NoteNumber":56,"Velocity":61,"Duration":130219,"SoundDuration":130219,"Delta":98591456},{"NoteNumber":64,"Velocity":72,"Duration":252100,"SoundDuration":252100,"Delta":98851895},{"NoteNumber":69,"Velocity":72,"Duration":252100,"SoundDuration":252100,"Delta":98851895},{"NoteNumber":76,"Velocity":84,"Duration":252100,"SoundDuration":252100,"Delta":98851895},{"NoteNumber":48,"Velocity":55,"Duration":504202,"SoundDuration":504202,"Delta":98851895},{"NoteNumber":60,"Velocity":64,"Duration":504202,"SoundDuration":504202,"Delta":98851895},{"NoteNumber":57,"Velocity":64,"Duration":504202,"SoundDuration":504202,"Delta":98851895},{"NoteNumber":69,"Velocity":79,"Duration":252101,"SoundDuration":252101,"Delta":99103996},{"NoteNumber":62,"Velocity":70,"Duration":123966,"SoundDuration":123966,"Delta":99356097},{"NoteNumber":67,"Velocity":73,"Duration":123966,"SoundDuration":123966,"Delta":99356097},{"NoteNumber":74,"Velocity":85,"Duration":123966,"SoundDuration":123966,"Delta":99356097},{"NoteNumber":50,"Velocity":55,"Duration":123966,"SoundDuration":123966,"Delta":99356097},{"NoteNumber":55,"Velocity":59,"Duration":123966,"SoundDuration":123966,"Delta":99356097},{"NoteNumber":59,"Velocity":71,"Duration":123966,"SoundDuration":123966,"Delta":99356097},{"NoteNumber":55,"Velocity":61,"Duration":253164,"SoundDuration":253164,"Delta":99604031},{"NoteNumber":62,"Velocity":77,"Duration":1157386,"SoundDuration":1157386,"Delta":99857196},{"NoteNumber":71,"Velocity":75,"Duration":251046,"SoundDuration":251046,"Delta":100115816},{"NoteNumber":60,"Velocity":57,"Duration":515758,"SoundDuration":515758,"Delta":100366862},{"NoteNumber":66,"Velocity":61,"Duration":515758,"SoundDuration":515758,"Delta":100366862},{"NoteNumber":69,"Velocity":76,"Duration":255319,"SoundDuration":255319,"Delta":100366862},{"NoteNumber":50,"Velocity":61,"Duration":515758,"SoundDuration":515758,"Delta":100366862},{"NoteNumber":71,"Velocity":75,"Duration":260439,"SoundDuration":260439,"Delta":100622181},{"NoteNumber":59,"Velocity":76,"Duration":131961,"SoundDuration":131961,"Delta":100882621},{"NoteNumber":67,"Velocity":76,"Duration":131961,"SoundDuration":131961,"Delta":100882621},{"NoteNumber":55,"Velocity":66,"Duration":131961,"SoundDuration":131961,"Delta":100882621},{"NoteNumber":67,"Velocity":71,"Duration":131961,"SoundDuration":131961,"Delta":101146543},{"NoteNumber":71,"Velocity":71,"Duration":131961,"SoundDuration":131961,"Delta":101146543},{"NoteNumber":74,"Velocity":84,"Duration":131961,"SoundDuration":131961,"Delta":101146543},{"NoteNumber":55,"Velocity":62,"Duration":131961,"SoundDuration":131961,"Delta":101146543},{"NoteNumber":59,"Velocity":62,"Duration":131961,"SoundDuration":131961,"Delta":101146543},{"NoteNumber":62,"Velocity":74,"Duration":131961,"SoundDuration":131961,"Delta":101146543},{"NoteNumber":67,"Velocity":77,"Duration":1023448,"SoundDuration":1023448,"Delta":101410465},{"NoteNumber":71,"Velocity":77,"Duration":1023448,"SoundDuration":1023448,"Delta":101410465},{"NoteNumber":79,"Velocity":90,"Duration":770944,"SoundDuration":770944,"Delta":101410465},{"NoteNumber":64,"Velocity":78,"Duration":1023448,"SoundDuration":1023448,"Delta":101410465},{"NoteNumber":59,"Velocity":78,"Duration":1023448,"SoundDuration":1023448,"Delta":101410465},{"NoteNumber":52,"Velocity":63,"Duration":513963,"SoundDuration":513963,"Delta":101410465},{"NoteNumber":55,"Velocity":75,"Duration":509485,"SoundDuration":509485,"Delta":101924428},{"NoteNumber":76,"Velocity":83,"Duration":252504,"SoundDuration":252504,"Delta":102181409},{"NoteNumber":66,"Velocity":73,"Duration":129611,"SoundDuration":129611,"Delta":102433913},{"NoteNumber":71,"Velocity":73,"Duration":129611,"SoundDuration":129611,"Delta":102433913},{"NoteNumber":78,"Velocity":86,"Duration":129611,"SoundDuration":129611,"Delta":102433913},{"NoteNumber":62,"Velocity":72,"Duration":129611,"SoundDuration":129611,"Delta":102433913},{"NoteNumber":59,"Velocity":59,"Duration":129611,"SoundDuration":129611,"Delta":102433913},{"NoteNumber":66,"Velocity":67,"Duration":129611,"SoundDuration":129611,"Delta":102693137},{"NoteNumber":71,"Velocity":81,"Duration":129611,"SoundDuration":129611,"Delta":102693137},{"NoteNumber":50,"Velocity":55,"Duration":129611,"SoundDuration":129611,"Delta":102693137},{"NoteNumber":54,"Velocity":55,"Duration":129611,"SoundDuration":129611,"Delta":102693137},{"NoteNumber":59,"Velocity":63,"Duration":129611,"SoundDuration":129611,"Delta":102693137},{"NoteNumber":64,"Velocity":77,"Duration":1024558,"SoundDuration":1024558,"Delta":102952361},{"NoteNumber":67,"Velocity":77,"Duration":1024558,"SoundDuration":1024558,"Delta":102952361},{"NoteNumber":76,"Velocity":90,"Duration":770944,"SoundDuration":770944,"Delta":102952361},{"NoteNumber":60,"Velocity":78,"Duration":1024558,"SoundDuration":1024558,"Delta":102952361},{"NoteNumber":55,"Velocity":78,"Duration":1024558,"SoundDuration":1024558,"Delta":102952361},{"NoteNumber":48,"Velocity":63,"Duration":513963,"SoundDuration":513963,"Delta":102952361},{"NoteNumber":52,"Velocity":75,"Duration":510595,"SoundDuration":510595,"Delta":103466324},{"NoteNumber":72,"Velocity":78,"Duration":253613,"SoundDuration":253613,"Delta":103723306},{"NoteNumber":62,"Velocity":73,"Duration":129611,"SoundDuration":129611,"Delta":103976920},{"NoteNumber":67,"Velocity":73,"Duration":129611,"SoundDuration":129611,"Delta":103976920},{"NoteNumber":74,"Velocity":86,"Duration":129611,"SoundDuration":129611,"Delta":103976920},{"NoteNumber":59,"Velocity":72,"Duration":129611,"SoundDuration":129611,"Delta":103976920},{"NoteNumber":55,"Velocity":59,"Duration":129611,"SoundDuration":129611,"Delta":103976920},{"NoteNumber":67,"Velocity":81,"Duration":129611,"SoundDuration":129611,"Delta":104236144},{"NoteNumber":67,"Velocity":56,"Duration":1023446,"SoundDuration":1023446,"Delta":104495368},{"NoteNumber":62,"Velocity":77,"Duration":769832,"SoundDuration":769832,"Delta":104495368},{"NoteNumber":74,"Velocity":90,"Duration":769832,"SoundDuration":769832,"Delta":104495368},{"NoteNumber":50,"Velocity":56,"Duration":1023446,"SoundDuration":1023446,"Delta":104495368},{"NoteNumber":47,"Velocity":56,"Duration":511723,"SoundDuration":511723,"Delta":104495368},{"NoteNumber":59,"Velocity":64,"Duration":511723,"SoundDuration":511723,"Delta":104495368},{"NoteNumber":46,"Velocity":50,"Duration":511723,"SoundDuration":511723,"Delta":105007091},{"NoteNumber":58,"Velocity":60,"Duration":511723,"SoundDuration":511723,"Delta":105007091},{"NoteNumber":61,"Velocity":71,"Duration":253613,"SoundDuration":253613,"Delta":105265200},{"NoteNumber":73,"Velocity":83,"Duration":253613,"SoundDuration":253613,"Delta":105265200},{"NoteNumber":70,"Velocity":62,"Duration":506254,"SoundDuration":506254,"Delta":105518814},{"NoteNumber":64,"Velocity":80,"Duration":760923,"SoundDuration":760923,"Delta":105518814},{"NoteNumber":76,"Velocity":95,"Duration":760923,"SoundDuration":760923,"Delta":105518814},{"NoteNumber":55,"Velocity":58,"Duration":506254,"SoundDuration":506254,"Delta":105518814},{"NoteNumber":49,"Velocity":58,"Duration":506254,"SoundDuration":506254,"Delta":105518814},{"NoteNumber":61,"Velocity":69,"Duration":506254,"SoundDuration":506254,"Delta":105518814},{"NoteNumber":69,"Velocity":73,"Duration":505003,"SoundDuration":505003,"Delta":106025068},{"NoteNumber":54,"Velocity":48,"Duration":505003,"SoundDuration":505003,"Delta":106025068},{"NoteNumber":48,"Velocity":49,"Duration":505003,"SoundDuration":505003,"Delta":106025068},{"NoteNumber":60,"Velocity":59,"Duration":505003,"SoundDuration":505003,"Delta":106025068},{"NoteNumber":63,"Velocity":70,"Duration":250333,"SoundDuration":250333,"Delta":106279737},{"NoteNumber":75,"Velocity":82,"Duration":250333,"SoundDuration":250333,"Delta":106279737},{"NoteNumber":72,"Velocity":71,"Duration":505003,"SoundDuration":505003,"Delta":106530071},{"NoteNumber":66,"Velocity":84,"Duration":759672,"SoundDuration":759672,"Delta":106530071},{"NoteNumber":78,"Velocity":100,"Duration":759672,"SoundDuration":759672,"Delta":106530071},{"NoteNumber":57,"Velocity":61,"Duration":505003,"SoundDuration":505003,"Delta":106530071},{"NoteNumber":51,"Velocity":61,"Duration":505003,"SoundDuration":505003,"Delta":106530071},{"NoteNumber":63,"Velocity":72,"Duration":505003,"SoundDuration":505003,"Delta":106530071},{"NoteNumber":69,"Velocity":74,"Duration":502869,"SoundDuration":502869,"Delta":107035074},{"NoteNumber":56,"Velocity":50,"Duration":502869,"SoundDuration":502869,"Delta":107035074},{"NoteNumber":50,"Velocity":51,"Duration":502869,"SoundDuration":502869,"Delta":107035074},{"NoteNumber":62,"Velocity":61,"Duration":502869,"SoundDuration":502869,"Delta":107035074},{"NoteNumber":65,"Velocity":73,"Duration":248200,"SoundDuration":248200,"Delta":107289743},{"NoteNumber":77,"Velocity":84,"Duration":248200,"SoundDuration":248200,"Delta":107289743},{"NoteNumber":74,"Velocity":72,"Duration":502887,"SoundDuration":502887,"Delta":107537944},{"NoteNumber":68,"Velocity":86,"Duration":758772,"SoundDuration":758772,"Delta":107537944},{"NoteNumber":80,"Velocity":104,"Duration":758772,"SoundDuration":758772,"Delta":107537944},{"NoteNumber":59,"Velocity":63,"Duration":502887,"SoundDuration":502887,"Delta":107537944},{"NoteNumber":53,"Velocity":63,"Duration":502887,"SoundDuration":502887,"Delta":107537944},{"NoteNumber":65,"Velocity":75,"Duration":502887,"SoundDuration":502887,"Delta":107537944},{"NoteNumber":73,"Velocity":80,"Duration":521428,"SoundDuration":521428,"Delta":108040831},{"NoteNumber":58,"Velocity":56,"Duration":432642,"SoundDuration":432642,"Delta":108040831},{"NoteNumber":52,"Velocity":58,"Duration":432642,"SoundDuration":432642,"Delta":108040831},{"NoteNumber":64,"Velocity":69,"Duration":432642,"SoundDuration":432642,"Delta":108040831},{"NoteNumber":67,"Velocity":81,"Duration":176756,"SoundDuration":176756,"Delta":108296716},{"NoteNumber":79,"Velocity":95,"Duration":176756,"SoundDuration":176756,"Delta":108296716},{"NoteNumber":55,"Velocity":50,"Duration":266358,"SoundDuration":266358,"Delta":108473473},{"NoteNumber":58,"Velocity":53,"Duration":255260,"SoundDuration":255260,"Delta":108484571},{"NoteNumber":61,"Velocity":55,"Duration":244162,"SoundDuration":244162,"Delta":108495669},{"NoteNumber":64,"Velocity":57,"Duration":233064,"SoundDuration":233064,"Delta":108506768},{"NoteNumber":67,"Velocity":59,"Duration":221965,"SoundDuration":221965,"Delta":108517866},{"NoteNumber":70,"Velocity":74,"Duration":210867,"SoundDuration":210867,"Delta":108528964},{"NoteNumber":73,"Velocity":77,"Duration":199769,"SoundDuration":199769,"Delta":108540062},{"NoteNumber":76,"Velocity":79,"Duration":188670,"SoundDuration":188670,"Delta":108551161},{"NoteNumber":82,"Velocity":99,"Duration":177572,"SoundDuration":177572,"Delta":108562259},{"NoteNumber":58,"Velocity":48,"Duration":266359,"SoundDuration":266359,"Delta":108739832},{"NoteNumber":61,"Velocity":51,"Duration":255260,"SoundDuration":255260,"Delta":108750930},{"NoteNumber":64,"Velocity":52,"Duration":244162,"SoundDuration":244162,"Delta":108762028},{"NoteNumber":67,"Velocity":56,"Duration":233064,"SoundDuration":233064,"Delta":108773127},{"NoteNumber":70,"Velocity":58,"Duration":221965,"SoundDuration":221965,"Delta":108784225},{"NoteNumber":73,"Velocity":74,"Duration":210867,"SoundDuration":210867,"Delta":108795323},{"NoteNumber":76,"Velocity":78,"Duration":199769,"SoundDuration":199769,"Delta":108806421},{"NoteNumber":79,"Velocity":80,"Duration":188670,"SoundDuration":188670,"Delta":108817520},{"NoteNumber":85,"Velocity":94,"Duration":177572,"SoundDuration":177572,"Delta":108828618},{"NoteNumber":61,"Velocity":52,"Duration":266358,"SoundDuration":266358,"Delta":109006191},{"NoteNumber":64,"Velocity":56,"Duration":255260,"SoundDuration":255260,"Delta":109017289},{"NoteNumber":67,"Velocity":56,"Duration":244162,"SoundDuration":244162,"Delta":109028387},{"NoteNumber":70,"Velocity":59,"Duration":233064,"SoundDuration":233064,"Delta":109039486},{"NoteNumber":73,"Velocity":60,"Duration":221965,"SoundDuration":221965,"Delta":109050584},{"NoteNumber":76,"Velocity":75,"Duration":210867,"SoundDuration":210867,"Delta":109061682},{"NoteNumber":79,"Velocity":80,"Duration":199769,"SoundDuration":199769,"Delta":109072780},{"NoteNumber":82,"Velocity":82,"Duration":188670,"SoundDuration":188670,"Delta":109083879},{"NoteNumber":88,"Velocity":99,"Duration":177572,"SoundDuration":177572,"Delta":109094977},{"NoteNumber":64,"Velocity":50,"Duration":266359,"SoundDuration":266359,"Delta":109272550},{"NoteNumber":67,"Velocity":52,"Duration":255260,"SoundDuration":255260,"Delta":109283648},{"NoteNumber":70,"Velocity":53,"Duration":244162,"SoundDuration":244162,"Delta":109294746},{"NoteNumber":73,"Velocity":56,"Duration":233064,"SoundDuration":233064,"Delta":109305845},{"NoteNumber":76,"Velocity":58,"Duration":221965,"SoundDuration":221965,"Delta":109316943},{"NoteNumber":79,"Velocity":74,"Duration":210867,"SoundDuration":210867,"Delta":109328041},{"NoteNumber":82,"Velocity":78,"Duration":199769,"SoundDuration":199769,"Delta":109339139},{"NoteNumber":85,"Velocity":80,"Duration":188670,"SoundDuration":188670,"Delta":109350238},{"NoteNumber":91,"Velocity":95,"Duration":177572,"SoundDuration":177572,"Delta":109361336},{"NoteNumber":67,"Velocity":53,"Duration":269163,"SoundDuration":269163,"Delta":109538909},{"NoteNumber":70,"Velocity":55,"Duration":258065,"SoundDuration":258065,"Delta":109550007},{"NoteNumber":73,"Velocity":56,"Duration":246966,"SoundDuration":246966,"Delta":109561105},{"NoteNumber":76,"Velocity":58,"Duration":235868,"SoundDuration":235868,"Delta":109572204},{"NoteNumber":79,"Velocity":59,"Duration":224770,"SoundDuration":224770,"Delta":109583302},{"NoteNumber":82,"Velocity":79,"Duration":213671,"SoundDuration":213671,"Delta":109594400},{"NoteNumber":85,"Velocity":82,"Duration":202573,"SoundDuration":202573,"Delta":109605498},{"NoteNumber":88,"Velocity":84,"Duration":191526,"SoundDuration":191526,"Delta":109616546},{"NoteNumber":94,"Velocity":99,"Duration":180478,"SoundDuration":180478,"Delta":109627593},{"NoteNumber":70,"Velocity":51,"Duration":283935,"SoundDuration":283935,"Delta":109808072},{"NoteNumber":73,"Velocity":53,"Duration":272416,"SoundDuration":272416,"Delta":109819592},{"NoteNumber":76,"Velocity":53,"Duration":260896,"SoundDuration":260896,"Delta":109831111},{"NoteNumber":79,"Velocity":56,"Duration":249322,"SoundDuration":249322,"Delta":109842685},{"NoteNumber":82,"Velocity":57,"Duration":237748,"SoundDuration":237748,"Delta":109854260},{"NoteNumber":85,"Velocity":75,"Duration":226119,"SoundDuration":226119,"Delta":109865888},{"NoteNumber":88,"Velocity":79,"Duration":214490,"SoundDuration":214490,"Delta":109877517},{"NoteNumber":91,"Velocity":81,"Duration":202805,"SoundDuration":202805,"Delta":109889202},{"NoteNumber":97,"Velocity":94,"Duration":191121,"SoundDuration":191121,"Delta":109900886},{"NoteNumber":73,"Velocity":51,"Duration":617411,"SoundDuration":617411,"Delta":110092008},{"NoteNumber":76,"Velocity":53,"Duration":604548,"SoundDuration":604548,"Delta":110104871},{"NoteNumber":79,"Velocity":55,"Duration":591685,"SoundDuration":591685,"Delta":110117733},{"NoteNumber":82,"Velocity":58,"Duration":578822,"SoundDuration":578822,"Delta":110130596},{"NoteNumber":85,"Velocity":59,"Duration":565960,"SoundDuration":565960,"Delta":110143459},{"NoteNumber":88,"Velocity":78,"Duration":553097,"SoundDuration":553097,"Delta":110156321},{"NoteNumber":91,"Velocity":83,"Duration":540234,"SoundDuration":540234,"Delta":110169184},{"NoteNumber":94,"Velocity":86,"Duration":527371,"SoundDuration":527371,"Delta":110182047},{"NoteNumber":100,"Velocity":101,"Duration":514509,"SoundDuration":514509,"Delta":110194910},{"NoteNumber":76,"Velocity":50,"Duration":678273,"SoundDuration":678273,"Delta":110709419},{"NoteNumber":79,"Velocity":53,"Duration":664142,"SoundDuration":664142,"Delta":110723550},{"NoteNumber":82,"Velocity":55,"Duration":650011,"SoundDuration":650011,"Delta":110737680},{"NoteNumber":85,"Velocity":57,"Duration":635880,"SoundDuration":635880,"Delta":110751811},{"NoteNumber":88,"Velocity":59,"Duration":621750,"SoundDuration":621750,"Delta":110765942},{"NoteNumber":91,"Velocity":78,"Duration":607619,"SoundDuration":607619,"Delta":110780072},{"NoteNumber":94,"Velocity":82,"Duration":593488,"SoundDuration":593488,"Delta":110794203},{"NoteNumber":97,"Velocity":85,"Duration":579358,"SoundDuration":579358,"Delta":110808334},{"NoteNumber":103,"Velocity":99,"Duration":565227,"SoundDuration":565227,"Delta":110822464},{"NoteNumber":52,"Velocity":72,"Duration":159185,"SoundDuration":159185,"Delta":112508412},{"NoteNumber":49,"Velocity":71,"Duration":162583,"SoundDuration":162583,"Delta":112826782},{"NoteNumber":46,"Velocity":70,"Duration":162583,"SoundDuration":162583,"Delta":113151950},{"NoteNumber":45,"Velocity":74,"Duration":668226,"SoundDuration":668226,"Delta":113477118},{"NoteNumber":43,"Velocity":72,"Duration":668225,"SoundDuration":668225,"Delta":114145344},{"NoteNumber":42,"Velocity":71,"Duration":2071034,"SoundDuration":2071034,"Delta":114813570},{"NoteNumber":74,"Velocity":62,"Duration":1341639,"SoundDuration":1341639,"Delta":115542965},{"NoteNumber":72,"Velocity":62,"Duration":1341639,"SoundDuration":1341639,"Delta":115542965},{"NoteNumber":69,"Velocity":62,"Duration":1341639,"SoundDuration":1341639,"Delta":115542965},{"NoteNumber":62,"Velocity":62,"Duration":1341639,"SoundDuration":1341639,"Delta":115542965},{"NoteNumber":57,"Velocity":51,"Duration":1341639,"SoundDuration":1341639,"Delta":115542965},{"NoteNumber":50,"Velocity":51,"Duration":1341639,"SoundDuration":1341639,"Delta":115542965},{"NoteNumber":62,"Velocity":53,"Duration":321147,"SoundDuration":321147,"Delta":116884605},{"NoteNumber":64,"Velocity":54,"Duration":316768,"SoundDuration":316768,"Delta":117205753},{"NoteNumber":66,"Velocity":56,"Duration":312369,"SoundDuration":312369,"Delta":117522521},{"NoteNumber":67,"Velocity":57,"Duration":309278,"SoundDuration":309278,"Delta":117834891},{"NoteNumber":43,"Velocity":40,"Duration":610786,"SoundDuration":610786,"Delta":117834891},{"NoteNumber":69,"Velocity":59,"Duration":301507,"SoundDuration":301507,"Delta":118144169},{"NoteNumber":70,"Velocity":61,"Duration":309278,"SoundDuration":309278,"Delta":118445677},{"NoteNumber":50,"Velocity":37,"Duration":618556,"SoundDuration":618556,"Delta":118445677},{"NoteNumber":72,"Velocity":63,"Duration":309278,"SoundDuration":309278,"Delta":118754955},{"NoteNumber":74,"Velocity":65,"Duration":314432,"SoundDuration":314432,"Delta":119064234},{"NoteNumber":62,"Velocity":40,"Duration":314432,"SoundDuration":314432,"Delta":119064234},{"NoteNumber":58,"Velocity":34,"Duration":314432,"SoundDuration":314432,"Delta":119064234},{"NoteNumber":55,"Velocity":34,"Duration":314432,"SoundDuration":314432,"Delta":119064234},{"NoteNumber":79,"Velocity":68,"Duration":305094,"SoundDuration":305094,"Delta":119378666},{"NoteNumber":58,"Velocity":49,"Duration":305094,"SoundDuration":305094,"Delta":119378666},{"NoteNumber":78,"Velocity":66,"Duration":316055,"SoundDuration":316055,"Delta":119683761},{"NoteNumber":57,"Velocity":50,"Duration":316055,"SoundDuration":316055,"Delta":119683761},{"NoteNumber":79,"Velocity":64,"Duration":319318,"SoundDuration":319318,"Delta":119999817},{"NoteNumber":55,"Velocity":48,"Duration":319318,"SoundDuration":319318,"Delta":119999817},{"NoteNumber":74,"Velocity":53,"Duration":1226046,"SoundDuration":1226046,"Delta":120319136},{"NoteNumber":54,"Velocity":43,"Duration":303030,"SoundDuration":303030,"Delta":120319136},{"NoteNumber":50,"Velocity":36,"Duration":611165,"SoundDuration":611165,"Delta":120319136},{"NoteNumber":46,"Velocity":36,"Duration":611165,"SoundDuration":611165,"Delta":120319136},{"NoteNumber":55,"Velocity":48,"Duration":308134,"SoundDuration":308134,"Delta":120622166},{"NoteNumber":58,"Velocity":52,"Duration":303612,"SoundDuration":303612,"Delta":120930301},{"NoteNumber":60,"Velocity":48,"Duration":311267,"SoundDuration":311267,"Delta":121233914},{"NoteNumber":62,"Velocity":52,"Duration":304351,"SoundDuration":304351,"Delta":121545182},{"NoteNumber":74,"Velocity":56,"Duration":309062,"SoundDuration":309062,"Delta":121849534},{"NoteNumber":63,"Velocity":31,"Duration":635981,"SoundDuration":635981,"Delta":122158597},{"NoteNumber":67,"Velocity":31,"Duration":635981,"SoundDuration":635981,"Delta":122158597},{"NoteNumber":69,"Velocity":59,"Duration":315126,"SoundDuration":315126,"Delta":122158597},{"NoteNumber":48,"Velocity":35,"Duration":635981,"SoundDuration":635981,"Delta":122158597},{"NoteNumber":72,"Velocity":51,"Duration":320855,"SoundDuration":320855,"Delta":122473723},{"NoteNumber":62,"Velocity":45,"Duration":302602,"SoundDuration":302602,"Delta":122794578},{"NoteNumber":67,"Velocity":45,"Duration":302602,"SoundDuration":302602,"Delta":122794578},{"NoteNumber":70,"Velocity":53,"Duration":302602,"SoundDuration":302602,"Delta":122794578},{"NoteNumber":50,"Velocity":42,"Duration":302602,"SoundDuration":302602,"Delta":122794578},{"NoteNumber":63,"Velocity":50,"Duration":308134,"SoundDuration":308134,"Delta":123097181},{"NoteNumber":58,"Velocity":31,"Duration":312826,"SoundDuration":312826,"Delta":123405316},{"NoteNumber":55,"Velocity":31,"Duration":312826,"SoundDuration":312826,"Delta":123405316},{"NoteNumber":61,"Velocity":50,"Duration":312826,"SoundDuration":312826,"Delta":123405316},{"NoteNumber":63,"Velocity":39,"Duration":314136,"SoundDuration":314136,"Delta":123718142},{"NoteNumber":55,"Velocity":34,"Duration":309661,"SoundDuration":309661,"Delta":124032278},{"NoteNumber":58,"Velocity":34,"Duration":309661,"SoundDuration":309661,"Delta":124032278},{"NoteNumber":62,"Velocity":40,"Duration":309661,"SoundDuration":309661,"Delta":124032278},{"NoteNumber":70,"Velocity":53,"Duration":313282,"SoundDuration":313282,"Delta":124341939},{"NoteNumber":60,"Velocity":46,"Duration":630251,"SoundDuration":630251,"Delta":124655222},{"NoteNumber":66,"Velocity":57,"Duration":315126,"SoundDuration":315126,"Delta":124655222},{"NoteNumber":50,"Velocity":42,"Duration":630251,"SoundDuration":630251,"Delta":124655222},{"NoteNumber":69,"Velocity":49,"Duration":315125,"SoundDuration":315125,"Delta":124970348},{"NoteNumber":58,"Velocity":47,"Duration":1243921,"SoundDuration":1243921,"Delta":125285474},{"NoteNumber":67,"Velocity":53,"Duration":1243921,"SoundDuration":1243921,"Delta":125285474},{"NoteNumber":43,"Velocity":46,"Duration":2478249,"SoundDuration":2478249,"Delta":125285474},{"NoteNumber":51,"Velocity":42,"Duration":309725,"SoundDuration":309725,"Delta":125587559},{"NoteNumber":49,"Velocity":44,"Duration":316055,"SoundDuration":316055,"Delta":125897284},{"NoteNumber":51,"Velocity":32,"Duration":316055,"SoundDuration":316055,"Delta":126213340},{"NoteNumber":50,"Velocity":35,"Duration":1234328,"SoundDuration":1234328,"Delta":126529395},{"NoteNumber":62,"Velocity":52,"Duration":306090,"SoundDuration":306090,"Delta":126845451},{"NoteNumber":60,"Velocity":48,"Duration":612182,"SoundDuration":612182,"Delta":127151542},{"NoteNumber":64,"Velocity":54,"Duration":306091,"SoundDuration":306091,"Delta":127151542},{"NoteNumber":66,"Velocity":55,"Duration":306090,"SoundDuration":306090,"Delta":127457633},{"NoteNumber":58,"Velocity":51,"Duration":309278,"SoundDuration":309278,"Delta":127763724},{"NoteNumber":67,"Velocity":57,"Duration":309278,"SoundDuration":309278,"Delta":127763724},{"NoteNumber":43,"Velocity":40,"Duration":609278,"SoundDuration":609278,"Delta":127763724},{"NoteNumber":69,"Velocity":59,"Duration":300000,"SoundDuration":300000,"Delta":128073002},{"NoteNumber":70,"Velocity":61,"Duration":304568,"SoundDuration":304568,"Delta":128373002},{"NoteNumber":50,"Velocity":37,"Duration":609137,"SoundDuration":609137,"Delta":128373002},{"NoteNumber":72,"Velocity":63,"Duration":304568,"SoundDuration":304568,"Delta":128677571},{"NoteNumber":74,"Velocity":68,"Duration":322580,"SoundDuration":322580,"Delta":128982139},{"NoteNumber":62,"Velocity":40,"Duration":322580,"SoundDuration":322580,"Delta":128982139},{"NoteNumber":58,"Velocity":34,"Duration":322580,"SoundDuration":322580,"Delta":128982139},{"NoteNumber":55,"Velocity":34,"Duration":322580,"SoundDuration":322580,"Delta":128982139},{"NoteNumber":79,"Velocity":63,"Duration":291261,"SoundDuration":291261,"Delta":129304720},{"NoteNumber":58,"Velocity":50,"Duration":291261,"SoundDuration":291261,"Delta":129304720},{"NoteNumber":75,"Velocity":40,"Duration":620855,"SoundDuration":620855,"Delta":129595982},{"NoteNumber":72,"Velocity":36,"Duration":620855,"SoundDuration":620855,"Delta":129595982},{"NoteNumber":65,"Velocity":33,"Duration":620855,"SoundDuration":620855,"Delta":129595982},{"NoteNumber":77,"Velocity":61,"Duration":300000,"SoundDuration":300000,"Delta":129595982},{"NoteNumber":57,"Velocity":53,"Duration":300000,"SoundDuration":300000,"Delta":129595982},{"NoteNumber":79,"Velocity":59,"Duration":320855,"SoundDuration":320855,"Delta":129895982},{"NoteNumber":55,"Velocity":49,"Duration":320855,"SoundDuration":320855,"Delta":129895982},{"NoteNumber":65,"Velocity":46,"Duration":1202895,"SoundDuration":1202895,"Delta":130216837},{"NoteNumber":70,"Velocity":46,"Duration":1205489,"SoundDuration":1205489,"Delta":130216837},{"NoteNumber":74,"Velocity":55,"Duration":1205489,"SoundDuration":1205489,"Delta":130216837},{"NoteNumber":53,"Velocity":38,"Duration":292683,"SoundDuration":292683,"Delta":130216837},{"NoteNumber":46,"Velocity":44,"Duration":591190,"SoundDuration":591190,"Delta":130216837},{"NoteNumber":55,"Velocity":49,"Duration":298507,"SoundDuration":298507,"Delta":130509520},{"NoteNumber":58,"Velocity":52,"Duration":303030,"SoundDuration":303030,"Delta":130808028},{"NoteNumber":62,"Velocity":49,"Duration":311268,"SoundDuration":311268,"Delta":131111058},{"NoteNumber":65,"Velocity":52,"Duration":304351,"SoundDuration":304351,"Delta":131422326},{"NoteNumber":77,"Velocity":60,"Duration":309062,"SoundDuration":309062,"Delta":131726678},{"NoteNumber":63,"Velocity":50,"Duration":635981,"SoundDuration":635981,"Delta":132035741},{"NoteNumber":70,"Velocity":50,"Duration":635981,"SoundDuration":635981,"Delta":132035741},{"NoteNumber":74,"Velocity":50,"Duration":635981,"SoundDuration":635981,"Delta":132035741},{"NoteNumber":75,"Velocity":63,"Duration":315125,"SoundDuration":315125,"Delta":132035741},{"NoteNumber":43,"Velocity":41,"Duration":635981,"SoundDuration":635981,"Delta":132035741},{"NoteNumber":77,"Velocity":58,"Duration":320855,"SoundDuration":320855,"Delta":132350867},{"NoteNumber":63,"Velocity":50,"Duration":1210988,"SoundDuration":1210988,"Delta":132671722},{"NoteNumber":69,"Velocity":50,"Duration":1213582,"SoundDuration":1213582,"Delta":132671722},{"NoteNumber":72,"Velocity":60,"Duration":1213582,"SoundDuration":1213582,"Delta":132671722},{"NoteNumber":45,"Velocity":44,"Duration":603151,"SoundDuration":603151,"Delta":132671722},{"NoteNumber":55,"Velocity":44,"Duration":306122,"SoundDuration":306122,"Delta":132968752},{"NoteNumber":57,"Velocity":48,"Duration":299162,"SoundDuration":299162,"Delta":133274874},{"NoteNumber":60,"Velocity":45,"Duration":311268,"SoundDuration":311268,"Delta":133574037},{"NoteNumber":63,"Velocity":41,"Duration":304351,"SoundDuration":304351,"Delta":133885305},{"NoteNumber":75,"Velocity":55,"Duration":309062,"SoundDuration":309062,"Delta":134189657},{"NoteNumber":62,"Velocity":37,"Duration":635981,"SoundDuration":635981,"Delta":134498720},{"NoteNumber":69,"Velocity":37,"Duration":635981,"SoundDuration":635981,"Delta":134498720},{"NoteNumber":72,"Velocity":38,"Duration":635981,"SoundDuration":635981,"Delta":134498720},{"NoteNumber":74,"Velocity":56,"Duration":315125,"SoundDuration":315125,"Delta":134498720},{"NoteNumber":42,"Velocity":36,"Duration":635981,"SoundDuration":635981,"Delta":134498720},{"NoteNumber":75,"Velocity":50,"Duration":320855,"SoundDuration":320855,"Delta":134813846},{"NoteNumber":62,"Velocity":47,"Duration":622028,"SoundDuration":622028,"Delta":135134701},{"NoteNumber":67,"Velocity":47,"Duration":622028,"SoundDuration":622028,"Delta":135134701},{"NoteNumber":70,"Velocity":56,"Duration":622028,"SoundDuration":622028,"Delta":135134701},{"NoteNumber":43,"Velocity":42,"Duration":622028,"SoundDuration":622028,"Delta":135134701},{"NoteNumber":50,"Velocity":37,"Duration":304568,"SoundDuration":304568,"Delta":135452162},{"NoteNumber":55,"Velocity":43,"Duration":309725,"SoundDuration":309725,"Delta":135756730},{"NoteNumber":58,"Velocity":39,"Duration":316055,"SoundDuration":316055,"Delta":136066456},{"NoteNumber":62,"Velocity":38,"Duration":307850,"SoundDuration":307850,"Delta":136382511},{"NoteNumber":74,"Velocity":57,"Duration":315125,"SoundDuration":315125,"Delta":136690361},{"NoteNumber":63,"Velocity":37,"Duration":629193,"SoundDuration":629193,"Delta":137005487},{"NoteNumber":69,"Velocity":37,"Duration":629193,"SoundDuration":629193,"Delta":137005487},{"NoteNumber":72,"Velocity":59,"Duration":311448,"SoundDuration":311448,"Delta":137005487},{"NoteNumber":48,"Velocity":36,"Duration":629193,"SoundDuration":629193,"Delta":137005487},{"NoteNumber":74,"Velocity":55,"Duration":317744,"SoundDuration":317744,"Delta":137316936},{"NoteNumber":62,"Velocity":37,"Duration":628950,"SoundDuration":628950,"Delta":137634681},{"NoteNumber":67,"Velocity":37,"Duration":631596,"SoundDuration":631596,"Delta":137634681},{"NoteNumber":72,"Velocity":58,"Duration":314135,"SoundDuration":314135,"Delta":137634681},{"NoteNumber":50,"Velocity":42,"Duration":2610748,"SoundDuration":2610748,"Delta":137634681},{"NoteNumber":70,"Velocity":54,"Duration":317460,"SoundDuration":317460,"Delta":137948817},{"NoteNumber":58,"Velocity":34,"Duration":648724,"SoundDuration":648724,"Delta":138266277},{"NoteNumber":69,"Velocity":53,"Duration":320855,"SoundDuration":320855,"Delta":138266277},{"NoteNumber":62,"Velocity":34,"Duration":648724,"SoundDuration":648724,"Delta":138266277},{"NoteNumber":67,"Velocity":52,"Duration":327868,"SoundDuration":327868,"Delta":138587133},{"NoteNumber":64,"Velocity":37,"Duration":655738,"SoundDuration":655738,"Delta":138915002},{"NoteNumber":70,"Velocity":55,"Duration":983607,"SoundDuration":983607,"Delta":138915002},{"NoteNumber":61,"Velocity":33,"Duration":655738,"SoundDuration":655738,"Delta":138915002},{"NoteNumber":63,"Velocity":31,"Duration":674689,"SoundDuration":674689,"Delta":139570740},{"NoteNumber":66,"Velocity":34,"Duration":674689,"SoundDuration":674689,"Delta":139570740},{"NoteNumber":60,"Velocity":32,"Duration":997270,"SoundDuration":997270,"Delta":139570740},{"NoteNumber":69,"Velocity":42,"Duration":346821,"SoundDuration":346821,"Delta":139898609},{"NoteNumber":62,"Velocity":43,"Duration":652250,"SoundDuration":652250,"Delta":140245430},{"NoteNumber":67,"Velocity":51,"Duration":652250,"SoundDuration":652250,"Delta":140245430},{"NoteNumber":55,"Velocity":30,"Duration":652250,"SoundDuration":652250,"Delta":140245430},{"NoteNumber":58,"Velocity":36,"Duration":329670,"SoundDuration":329670,"Delta":140568010},{"NoteNumber":55,"Velocity":37,"Duration":329670,"SoundDuration":329670,"Delta":140897681},{"NoteNumber":50,"Velocity":36,"Duration":329670,"SoundDuration":329670,"Delta":141227351},{"NoteNumber":43,"Velocity":36,"Duration":635761,"SoundDuration":635761,"Delta":141557022},{"NoteNumber":67,"Velocity":68,"Duration":306091,"SoundDuration":306091,"Delta":141886692},{"NoteNumber":69,"Velocity":69,"Duration":295566,"SoundDuration":295566,"Delta":142192783},{"NoteNumber":70,"Velocity":69,"Duration":303068,"SoundDuration":303068,"Delta":142488350},{"NoteNumber":72,"Velocity":69,"Duration":309278,"SoundDuration":309278,"Delta":142791418},{"NoteNumber":51,"Velocity":52,"Duration":604845,"SoundDuration":604845,"Delta":142791418},{"NoteNumber":74,"Velocity":70,"Duration":295566,"SoundDuration":295566,"Delta":143100696},{"NoteNumber":75,"Velocity":72,"Duration":300000,"SoundDuration":300000,"Delta":143396263},{"NoteNumber":65,"Velocity":49,"Duration":606122,"SoundDuration":606122,"Delta":143396263},{"NoteNumber":77,"Velocity":74,"Duration":306122,"SoundDuration":306122,"Delta":143696263},{"NoteNumber":79,"Velocity":75,"Duration":297530,"SoundDuration":297530,"Delta":144002385},{"NoteNumber":60,"Velocity":52,"Duration":1218175,"SoundDuration":1218175,"Delta":144002385},{"NoteNumber":57,"Velocity":44,"Duration":1218175,"SoundDuration":1218175,"Delta":144002385},{"NoteNumber":53,"Velocity":44,"Duration":1218175,"SoundDuration":1218175,"Delta":144002385},{"NoteNumber":81,"Velocity":72,"Duration":297530,"SoundDuration":297530,"Delta":144299916},{"NoteNumber":82,"Velocity":79,"Duration":306091,"SoundDuration":306091,"Delta":144597446},{"NoteNumber":84,"Velocity":77,"Duration":317024,"SoundDuration":317024,"Delta":144903537},{"NoteNumber":77,"Velocity":75,"Duration":1190597,"SoundDuration":1190597,"Delta":145220561},{"NoteNumber":50,"Velocity":67,"Duration":597251,"SoundDuration":597251,"Delta":145220561},{"NoteNumber":53,"Velocity":60,"Duration":292683,"SoundDuration":292683,"Delta":145525130},{"NoteNumber":58,"Velocity":63,"Duration":291261,"SoundDuration":291261,"Delta":145817813},{"NoteNumber":62,"Velocity":59,"Duration":302084,"SoundDuration":302084,"Delta":146109075},{"NoteNumber":65,"Velocity":66,"Duration":1196359,"SoundDuration":1196359,"Delta":146411159},{"NoteNumber":77,"Velocity":73,"Duration":297530,"SoundDuration":297530,"Delta":146707456},{"NoteNumber":79,"Velocity":75,"Duration":292683,"SoundDuration":292683,"Delta":147004986},{"NoteNumber":53,"Velocity":44,"Duration":602532,"SoundDuration":602532,"Delta":147004986},{"NoteNumber":62,"Velocity":52,"Duration":602532,"SoundDuration":602532,"Delta":147004986},{"NoteNumber":58,"Velocity":44,"Duration":602532,"SoundDuration":602532,"Delta":147004986},{"NoteNumber":82,"Velocity":73,"Duration":309849,"SoundDuration":309849,"Delta":147297669},{"NoteNumber":75,"Velocity":70,"Duration":1171586,"SoundDuration":1171586,"Delta":147607519},{"NoteNumber":48,"Velocity":57,"Duration":584758,"SoundDuration":584758,"Delta":147607519},{"NoteNumber":53,"Velocity":53,"Duration":288461,"SoundDuration":288461,"Delta":147903816},{"NoteNumber":57,"Velocity":58,"Duration":291261,"SoundDuration":291261,"Delta":148192277},{"NoteNumber":63,"Velocity":54,"Duration":295566,"SoundDuration":295566,"Delta":148483539},{"NoteNumber":65,"Velocity":57,"Duration":1213691,"SoundDuration":1213691,"Delta":148779106},{"NoteNumber":75,"Velocity":67,"Duration":304568,"SoundDuration":304568,"Delta":149079737},{"NoteNumber":77,"Velocity":71,"Duration":297029,"SoundDuration":297029,"Delta":149384306},{"NoteNumber":63,"Velocity":47,"Duration":608491,"SoundDuration":608491,"Delta":149384306},{"NoteNumber":53,"Velocity":39,"Duration":608491,"SoundDuration":608491,"Delta":149384306},{"NoteNumber":57,"Velocity":39,"Duration":608491,"SoundDuration":608491,"Delta":149384306},{"NoteNumber":81,"Velocity":67,"Duration":311462,"SoundDuration":311462,"Delta":149681335},{"NoteNumber":74,"Velocity":60,"Duration":1231461,"SoundDuration":1231461,"Delta":149992797},{"NoteNumber":46,"Velocity":53,"Duration":606308,"SoundDuration":606308,"Delta":149992797},{"NoteNumber":53,"Velocity":50,"Duration":297029,"SoundDuration":297029,"Delta":150302076},{"NoteNumber":58,"Velocity":53,"Duration":307692,"SoundDuration":307692,"Delta":150599105},{"NoteNumber":62,"Velocity":48,"Duration":317460,"SoundDuration":317460,"Delta":150906798},{"NoteNumber":65,"Velocity":47,"Duration":1196123,"SoundDuration":1196123,"Delta":151224258},{"NoteNumber":67,"Velocity":68,"Duration":295566,"SoundDuration":295566,"Delta":151527871},{"NoteNumber":69,"Velocity":69,"Duration":294117,"SoundDuration":294117,"Delta":151823438},{"NoteNumber":53,"Velocity":34,"Duration":596944,"SoundDuration":596944,"Delta":151823438},{"NoteNumber":62,"Velocity":41,"Duration":596944,"SoundDuration":596944,"Delta":151823438},{"NoteNumber":58,"Velocity":34,"Duration":596944,"SoundDuration":596944,"Delta":151823438},{"NoteNumber":70,"Velocity":69,"Duration":302826,"SoundDuration":302826,"Delta":152117555},{"NoteNumber":72,"Velocity":69,"Duration":294117,"SoundDuration":294117,"Delta":152420382},{"NoteNumber":51,"Velocity":52,"Duration":596944,"SoundDuration":596944,"Delta":152420382},{"NoteNumber":74,"Velocity":70,"Duration":302826,"SoundDuration":302826,"Delta":152714499},{"NoteNumber":75,"Velocity":72,"Duration":304568,"SoundDuration":304568,"Delta":153017326},{"NoteNumber":65,"Velocity":49,"Duration":609137,"SoundDuration":609137,"Delta":153017326},{"NoteNumber":77,"Velocity":74,"Duration":304568,"SoundDuration":304568,"Delta":153321894},{"NoteNumber":79,"Velocity":75,"Duration":297530,"SoundDuration":297530,"Delta":153626463},{"NoteNumber":60,"Velocity":52,"Duration":1218175,"SoundDuration":1218175,"Delta":153626463},{"NoteNumber":57,"Velocity":44,"Duration":1218175,"SoundDuration":1218175,"Delta":153626463},{"NoteNumber":53,"Velocity":44,"Duration":1218175,"SoundDuration":1218175,"Delta":153626463},{"NoteNumber":81,"Velocity":72,"Duration":297530,"SoundDuration":297530,"Delta":153923993},{"NoteNumber":82,"Velocity":79,"Duration":306091,"SoundDuration":306091,"Delta":154221524},{"NoteNumber":84,"Velocity":77,"Duration":317024,"SoundDuration":317024,"Delta":154527615},{"NoteNumber":74,"Velocity":75,"Duration":1182365,"SoundDuration":1182365,"Delta":154844639},{"NoteNumber":50,"Velocity":67,"Duration":588291,"SoundDuration":588291,"Delta":154844639},{"NoteNumber":54,"Velocity":60,"Duration":297029,"SoundDuration":297029,"Delta":155135901},{"NoteNumber":57,"Velocity":64,"Duration":298507,"SoundDuration":298507,"Delta":155432930},{"NoteNumber":62,"Velocity":62,"Duration":295566,"SoundDuration":295566,"Delta":155731438},{"NoteNumber":66,"Velocity":58,"Duration":593097,"SoundDuration":593097,"Delta":156027004},{"NoteNumber":74,"Velocity":73,"Duration":297530,"SoundDuration":297530,"Delta":156322571},{"NoteNumber":76,"Velocity":75,"Duration":297530,"SoundDuration":297530,"Delta":156620101},{"NoteNumber":57,"Velocity":39,"Duration":608188,"SoundDuration":608188,"Delta":156620101},{"NoteNumber":62,"Velocity":47,"Duration":608188,"SoundDuration":608188,"Delta":156620101},{"NoteNumber":78,"Velocity":72,"Duration":310657,"SoundDuration":310657,"Delta":156917632},{"NoteNumber":79,"Velocity":77,"Duration":1214434,"SoundDuration":1214434,"Delta":157228289},{"NoteNumber":50,"Velocity":55,"Duration":605726,"SoundDuration":605726,"Delta":157228289},{"NoteNumber":55,"Velocity":52,"Duration":305094,"SoundDuration":305094,"Delta":157528921},{"NoteNumber":58,"Velocity":58,"Duration":302084,"SoundDuration":302084,"Delta":157834016},{"NoteNumber":62,"Velocity":53,"Duration":306623,"SoundDuration":306623,"Delta":158136100},{"NoteNumber":67,"Velocity":57,"Duration":607525,"SoundDuration":607525,"Delta":158442723},{"NoteNumber":74,"Velocity":67,"Duration":300902,"SoundDuration":300902,"Delta":158749346},{"NoteNumber":72,"Velocity":69,"Duration":300902,"SoundDuration":300902,"Delta":159050249},{"NoteNumber":62,"Velocity":36,"Duration":612364,"SoundDuration":612364,"Delta":159050249},{"NoteNumber":55,"Velocity":32,"Duration":612364,"SoundDuration":612364,"Delta":159050249},{"NoteNumber":70,"Velocity":67,"Duration":311462,"SoundDuration":311462,"Delta":159351151},{"NoteNumber":78,"Velocity":63,"Duration":1214434,"SoundDuration":1214434,"Delta":159662613},{"NoteNumber":50,"Velocity":53,"Duration":607254,"SoundDuration":607254,"Delta":159662613},{"NoteNumber":54,"Velocity":36,"Duration":306623,"SoundDuration":306623,"Delta":159963245},{"NoteNumber":57,"Velocity":43,"Duration":302084,"SoundDuration":302084,"Delta":160269868},{"NoteNumber":62,"Velocity":38,"Duration":305094,"SoundDuration":305094,"Delta":160571952},{"NoteNumber":66,"Velocity":43,"Duration":602987,"SoundDuration":602987,"Delta":160877047},{"NoteNumber":72,"Velocity":61,"Duration":300902,"SoundDuration":300902,"Delta":161179132},{"NoteNumber":70,"Velocity":63,"Duration":300902,"SoundDuration":300902,"Delta":161480034},{"NoteNumber":57,"Velocity":35,"Duration":614185,"SoundDuration":614185,"Delta":161480034},{"NoteNumber":60,"Velocity":35,"Duration":614185,"SoundDuration":614185,"Delta":161480034},{"NoteNumber":62,"Velocity":35,"Duration":614185,"SoundDuration":614185,"Delta":161480034},{"NoteNumber":69,"Velocity":61,"Duration":313283,"SoundDuration":313283,"Delta":161780937},{"NoteNumber":79,"Velocity":68,"Duration":298507,"SoundDuration":298507,"Delta":162094220},{"NoteNumber":50,"Velocity":53,"Duration":603075,"SoundDuration":603075,"Delta":162094220},{"NoteNumber":74,"Velocity":61,"Duration":152284,"SoundDuration":152284,"Delta":162392727},{"NoteNumber":55,"Velocity":44,"Duration":304568,"SoundDuration":304568,"Delta":162392727},{"NoteNumber":75,"Velocity":45,"Duration":76142,"SoundDuration":76142,"Delta":162545012},{"NoteNumber":74,"Velocity":47,"Duration":76142,"SoundDuration":76142,"Delta":162621154},{"NoteNumber":73,"Velocity":63,"Duration":304568,"SoundDuration":304568,"Delta":162697296},{"NoteNumber":58,"Velocity":46,"Duration":304568,"SoundDuration":304568,"Delta":162697296},{"NoteNumber":74,"Velocity":60,"Duration":304568,"SoundDuration":304568,"Delta":163001864},{"NoteNumber":62,"Velocity":44,"Duration":304568,"SoundDuration":304568,"Delta":163001864},{"NoteNumber":75,"Velocity":63,"Duration":306091,"SoundDuration":306091,"Delta":163306433},{"NoteNumber":67,"Velocity":44,"Duration":612181,"SoundDuration":612181,"Delta":163306433},{"NoteNumber":74,"Velocity":60,"Duration":306090,"SoundDuration":306090,"Delta":163612524},{"NoteNumber":70,"Velocity":63,"Duration":306091,"SoundDuration":306091,"Delta":163918615},{"NoteNumber":62,"Velocity":44,"Duration":619711,"SoundDuration":619711,"Delta":163918615},{"NoteNumber":58,"Velocity":44,"Duration":619711,"SoundDuration":619711,"Delta":163918615},{"NoteNumber":55,"Velocity":44,"Duration":619711,"SoundDuration":619711,"Delta":163918615},{"NoteNumber":67,"Velocity":60,"Duration":617160,"SoundDuration":617160,"Delta":164224706},{"NoteNumber":74,"Velocity":63,"Duration":306091,"SoundDuration":306091,"Delta":164538326},{"NoteNumber":50,"Velocity":46,"Duration":306091,"SoundDuration":306091,"Delta":164538326},{"NoteNumber":57,"Velocity":46,"Duration":306091,"SoundDuration":306091,"Delta":164538326},{"NoteNumber":67,"Velocity":53,"Duration":300902,"SoundDuration":300902,"Delta":164844417},{"NoteNumber":74,"Velocity":68,"Duration":926660,"SoundDuration":926660,"Delta":165145320},{"NoteNumber":66,"Velocity":52,"Duration":302035,"SoundDuration":302035,"Delta":165145320},{"NoteNumber":63,"Velocity":51,"Duration":303768,"SoundDuration":303768,"Delta":165447355},{"NoteNumber":62,"Velocity":50,"Duration":320855,"SoundDuration":320855,"Delta":165751124},{"NoteNumber":62,"Velocity":53,"Duration":320011,"SoundDuration":320011,"Delta":166071980},{"NoteNumber":60,"Velocity":48,"Duration":320011,"SoundDuration":320011,"Delta":166071980},{"NoteNumber":64,"Velocity":54,"Duration":314414,"SoundDuration":314414,"Delta":166391991},{"NoteNumber":58,"Velocity":47,"Duration":314414,"SoundDuration":314414,"Delta":166391991},{"NoteNumber":66,"Velocity":56,"Duration":311153,"SoundDuration":311153,"Delta":166706405},{"NoteNumber":57,"Velocity":46,"Duration":311153,"SoundDuration":311153,"Delta":166706405},{"NoteNumber":67,"Velocity":57,"Duration":314432,"SoundDuration":314432,"Delta":167017559},{"NoteNumber":43,"Velocity":40,"Duration":628864,"SoundDuration":628864,"Delta":167017559},{"NoteNumber":69,"Velocity":59,"Duration":314432,"SoundDuration":314432,"Delta":167331992},{"NoteNumber":70,"Velocity":61,"Duration":306122,"SoundDuration":306122,"Delta":167646424},{"NoteNumber":50,"Velocity":37,"Duration":618922,"SoundDuration":618922,"Delta":167646424},{"NoteNumber":72,"Velocity":63,"Duration":312800,"SoundDuration":312800,"Delta":167952547},{"NoteNumber":74,"Velocity":65,"Duration":314432,"SoundDuration":314432,"Delta":168265347},{"NoteNumber":62,"Velocity":40,"Duration":314432,"SoundDuration":314432,"Delta":168265347},{"NoteNumber":58,"Velocity":34,"Duration":314432,"SoundDuration":314432,"Delta":168265347},{"NoteNumber":55,"Velocity":34,"Duration":314432,"SoundDuration":314432,"Delta":168265347},{"NoteNumber":79,"Velocity":68,"Duration":305094,"SoundDuration":305094,"Delta":168579779},{"NoteNumber":58,"Velocity":49,"Duration":305094,"SoundDuration":305094,"Delta":168579779},{"NoteNumber":78,"Velocity":66,"Duration":316055,"SoundDuration":316055,"Delta":168884874},{"NoteNumber":57,"Velocity":52,"Duration":316055,"SoundDuration":316055,"Delta":168884874},{"NoteNumber":79,"Velocity":64,"Duration":319319,"SoundDuration":319319,"Delta":169200930},{"NoteNumber":55,"Velocity":48,"Duration":319319,"SoundDuration":319319,"Delta":169200930},{"NoteNumber":74,"Velocity":53,"Duration":1218205,"SoundDuration":1218205,"Delta":169520249},{"NoteNumber":54,"Velocity":43,"Duration":298756,"SoundDuration":298756,"Delta":169520249},{"NoteNumber":50,"Velocity":36,"Duration":603324,"SoundDuration":603324,"Delta":169520249},{"NoteNumber":46,"Velocity":36,"Duration":603324,"SoundDuration":603324,"Delta":169520249},{"NoteNumber":55,"Velocity":48,"Duration":304568,"SoundDuration":304568,"Delta":169819005},{"NoteNumber":58,"Velocity":52,"Duration":303613,"SoundDuration":303613,"Delta":170123574},{"NoteNumber":60,"Velocity":50,"Duration":311268,"SoundDuration":311268,"Delta":170427187},{"NoteNumber":62,"Velocity":52,"Duration":304351,"SoundDuration":304351,"Delta":170738455},{"NoteNumber":74,"Velocity":56,"Duration":309062,"SoundDuration":309062,"Delta":171042807},{"NoteNumber":63,"Velocity":31,"Duration":635981,"SoundDuration":635981,"Delta":171351869},{"NoteNumber":67,"Velocity":31,"Duration":635981,"SoundDuration":635981,"Delta":171351869},{"NoteNumber":69,"Velocity":59,"Duration":315125,"SoundDuration":315125,"Delta":171351869},{"NoteNumber":48,"Velocity":35,"Duration":635981,"SoundDuration":635981,"Delta":171351869},{"NoteNumber":72,"Velocity":51,"Duration":320855,"SoundDuration":320855,"Delta":171666995},{"NoteNumber":62,"Velocity":45,"Duration":302602,"SoundDuration":302602,"Delta":171987851},{"NoteNumber":67,"Velocity":45,"Duration":302602,"SoundDuration":302602,"Delta":171987851},{"NoteNumber":70,"Velocity":53,"Duration":302602,"SoundDuration":302602,"Delta":171987851},{"NoteNumber":50,"Velocity":42,"Duration":302602,"SoundDuration":302602,"Delta":171987851},{"NoteNumber":63,"Velocity":50,"Duration":308134,"SoundDuration":308134,"Delta":172290453},{"NoteNumber":58,"Velocity":31,"Duration":312826,"SoundDuration":312826,"Delta":172598588},{"NoteNumber":55,"Velocity":31,"Duration":312826,"SoundDuration":312826,"Delta":172598588},{"NoteNumber":61,"Velocity":50,"Duration":312826,"SoundDuration":312826,"Delta":172598588},{"NoteNumber":63,"Velocity":39,"Duration":312826,"SoundDuration":312826,"Delta":172911414},{"NoteNumber":55,"Velocity":34,"Duration":309661,"SoundDuration":309661,"Delta":173224240},{"NoteNumber":58,"Velocity":34,"Duration":309661,"SoundDuration":309661,"Delta":173224240},{"NoteNumber":62,"Velocity":40,"Duration":309661,"SoundDuration":309661,"Delta":173224240},{"NoteNumber":70,"Velocity":53,"Duration":313283,"SoundDuration":313283,"Delta":173533902},{"NoteNumber":60,"Velocity":46,"Duration":630252,"SoundDuration":630252,"Delta":173847185},{"NoteNumber":66,"Velocity":57,"Duration":315125,"SoundDuration":315125,"Delta":173847185},{"NoteNumber":50,"Velocity":42,"Duration":630252,"SoundDuration":630252,"Delta":173847185},{"NoteNumber":69,"Velocity":49,"Duration":315126,"SoundDuration":315126,"Delta":174162311},{"NoteNumber":58,"Velocity":47,"Duration":1243921,"SoundDuration":1243921,"Delta":174477437},{"NoteNumber":67,"Velocity":53,"Duration":1243921,"SoundDuration":1243921,"Delta":174477437},{"NoteNumber":43,"Velocity":46,"Duration":2466202,"SoundDuration":2466202,"Delta":174477437},{"NoteNumber":51,"Velocity":42,"Duration":309725,"SoundDuration":309725,"Delta":174779521},{"NoteNumber":49,"Velocity":44,"Duration":316055,"SoundDuration":316055,"Delta":175089247},{"NoteNumber":51,"Velocity":32,"Duration":316055,"SoundDuration":316055,"Delta":175405302},{"NoteNumber":50,"Velocity":35,"Duration":1222281,"SoundDuration":1222281,"Delta":175721358},{"NoteNumber":62,"Velocity":52,"Duration":306091,"SoundDuration":306091,"Delta":176037413},{"NoteNumber":60,"Velocity":48,"Duration":600134,"SoundDuration":600134,"Delta":176343504},{"NoteNumber":64,"Velocity":54,"Duration":295566,"SoundDuration":295566,"Delta":176343504},{"NoteNumber":66,"Velocity":55,"Duration":304568,"SoundDuration":304568,"Delta":176639071},{"NoteNumber":58,"Velocity":51,"Duration":298507,"SoundDuration":298507,"Delta":176943639},{"NoteNumber":67,"Velocity":57,"Duration":298507,"SoundDuration":298507,"Delta":176943639},{"NoteNumber":43,"Velocity":40,"Duration":603075,"SoundDuration":603075,"Delta":176943639},{"NoteNumber":69,"Velocity":59,"Duration":304568,"SoundDuration":304568,"Delta":177242147},{"NoteNumber":70,"Velocity":61,"Duration":304568,"SoundDuration":304568,"Delta":177546715},{"NoteNumber":50,"Velocity":37,"Duration":609137,"SoundDuration":609137,"Delta":177546715},{"NoteNumber":72,"Velocity":63,"Duration":304568,"SoundDuration":304568,"Delta":177851284},{"NoteNumber":74,"Velocity":68,"Duration":311462,"SoundDuration":311462,"Delta":178155852},{"NoteNumber":62,"Velocity":40,"Duration":311462,"SoundDuration":311462,"Delta":178155852},{"NoteNumber":58,"Velocity":34,"Duration":311462,"SoundDuration":311462,"Delta":178155852},{"NoteNumber":55,"Velocity":34,"Duration":311462,"SoundDuration":311462,"Delta":178155852},{"NoteNumber":79,"Velocity":63,"Duration":299192,"SoundDuration":299192,"Delta":178467314},{"NoteNumber":58,"Velocity":50,"Duration":299192,"SoundDuration":299192,"Delta":178467314},{"NoteNumber":75,"Velocity":40,"Duration":619374,"SoundDuration":619374,"Delta":178766506},{"NoteNumber":72,"Velocity":36,"Duration":619374,"SoundDuration":619374,"Delta":178766506},{"NoteNumber":65,"Velocity":33,"Duration":619374,"SoundDuration":619374,"Delta":178766506},{"NoteNumber":77,"Velocity":61,"Duration":306091,"SoundDuration":306091,"Delta":178766506},{"NoteNumber":45,"Velocity":40,"Duration":619374,"SoundDuration":619374,"Delta":178766506},{"NoteNumber":57,"Velocity":53,"Duration":306091,"SoundDuration":306091,"Delta":178766506},{"NoteNumber":79,"Velocity":59,"Duration":313283,"SoundDuration":313283,"Delta":179072597},{"NoteNumber":55,"Velocity":49,"Duration":313283,"SoundDuration":313283,"Delta":179072597},{"NoteNumber":65,"Velocity":46,"Duration":1205320,"SoundDuration":1205320,"Delta":179385880},{"NoteNumber":70,"Velocity":46,"Duration":1207846,"SoundDuration":1207846,"Delta":179385880},{"NoteNumber":74,"Velocity":55,"Duration":1207846,"SoundDuration":1207846,"Delta":179385880},{"NoteNumber":53,"Velocity":38,"Duration":309278,"SoundDuration":309278,"Delta":179385880},{"NoteNumber":46,"Velocity":44,"Duration":607786,"SoundDuration":607786,"Delta":179385880},{"NoteNumber":55,"Velocity":49,"Duration":298507,"SoundDuration":298507,"Delta":179695159},{"NoteNumber":58,"Velocity":51,"Duration":297029,"SoundDuration":297029,"Delta":179993666},{"NoteNumber":62,"Velocity":49,"Duration":303030,"SoundDuration":303030,"Delta":180290696},{"NoteNumber":65,"Velocity":52,"Duration":304351,"SoundDuration":304351,"Delta":180593726},{"NoteNumber":77,"Velocity":60,"Duration":309062,"SoundDuration":309062,"Delta":180898078},{"NoteNumber":63,"Velocity":50,"Duration":635981,"SoundDuration":635981,"Delta":181207141},{"NoteNumber":70,"Velocity":50,"Duration":635981,"SoundDuration":635981,"Delta":181207141},{"NoteNumber":74,"Velocity":50,"Duration":635981,"SoundDuration":635981,"Delta":181207141},{"NoteNumber":75,"Velocity":63,"Duration":315125,"SoundDuration":315125,"Delta":181207141},{"NoteNumber":43,"Velocity":41,"Duration":635981,"SoundDuration":635981,"Delta":181207141},{"NoteNumber":77,"Velocity":58,"Duration":320855,"SoundDuration":320855,"Delta":181522267},{"NoteNumber":63,"Velocity":50,"Duration":1210548,"SoundDuration":1210548,"Delta":181843123},{"NoteNumber":69,"Velocity":50,"Duration":1213074,"SoundDuration":1213074,"Delta":181843123},{"NoteNumber":72,"Velocity":60,"Duration":1213074,"SoundDuration":1213074,"Delta":181843123},{"NoteNumber":45,"Velocity":44,"Duration":610881,"SoundDuration":610881,"Delta":181843123},{"NoteNumber":55,"Velocity":44,"Duration":300000,"SoundDuration":300000,"Delta":182154004},{"NoteNumber":57,"Velocity":48,"Duration":299162,"SoundDuration":299162,"Delta":182454004},{"NoteNumber":60,"Velocity":45,"Duration":303030,"SoundDuration":303030,"Delta":182753166},{"NoteNumber":63,"Velocity":41,"Duration":304351,"SoundDuration":304351,"Delta":183056197},{"NoteNumber":75,"Velocity":55,"Duration":309062,"SoundDuration":309062,"Delta":183360549},{"NoteNumber":62,"Velocity":37,"Duration":635981,"SoundDuration":635981,"Delta":183669611},{"NoteNumber":69,"Velocity":37,"Duration":635981,"SoundDuration":635981,"Delta":183669611},{"NoteNumber":72,"Velocity":38,"Duration":635981,"SoundDuration":635981,"Delta":183669611},{"NoteNumber":74,"Velocity":56,"Duration":315125,"SoundDuration":315125,"Delta":183669611},{"NoteNumber":42,"Velocity":36,"Duration":635981,"SoundDuration":635981,"Delta":183669611},{"NoteNumber":75,"Velocity":50,"Duration":320855,"SoundDuration":320855,"Delta":183984737},{"NoteNumber":62,"Velocity":44,"Duration":622567,"SoundDuration":622567,"Delta":184305593},{"NoteNumber":67,"Velocity":44,"Duration":622567,"SoundDuration":622567,"Delta":184305593},{"NoteNumber":70,"Velocity":53,"Duration":622567,"SoundDuration":622567,"Delta":184305593},{"NoteNumber":43,"Velocity":39,"Duration":622567,"SoundDuration":622567,"Delta":184305593},{"NoteNumber":50,"Velocity":35,"Duration":314432,"SoundDuration":314432,"Delta":184613728},{"NoteNumber":55,"Velocity":40,"Duration":309725,"SoundDuration":309725,"Delta":184928160},{"NoteNumber":58,"Velocity":37,"Duration":316055,"SoundDuration":316055,"Delta":185237886},{"NoteNumber":62,"Velocity":36,"Duration":307850,"SoundDuration":307850,"Delta":185553941},{"NoteNumber":74,"Velocity":54,"Duration":315125,"SoundDuration":315125,"Delta":185861791},{"NoteNumber":63,"Velocity":35,"Duration":630252,"SoundDuration":630252,"Delta":186176917},{"NoteNumber":69,"Velocity":35,"Duration":630252,"SoundDuration":630252,"Delta":186176917},{"NoteNumber":72,"Velocity":56,"Duration":315126,"SoundDuration":315126,"Delta":186176917},{"NoteNumber":48,"Velocity":34,"Duration":630252,"SoundDuration":630252,"Delta":186176917},{"NoteNumber":74,"Velocity":52,"Duration":315125,"SoundDuration":315125,"Delta":186492043},{"NoteNumber":62,"Velocity":35,"Duration":631406,"SoundDuration":631406,"Delta":186807169},{"NoteNumber":67,"Velocity":35,"Duration":634048,"SoundDuration":634048,"Delta":186807169},{"NoteNumber":72,"Velocity":55,"Duration":317024,"SoundDuration":317024,"Delta":186807169},{"NoteNumber":50,"Velocity":39,"Duration":2573061,"SoundDuration":2573061,"Delta":186807169},{"NoteNumber":70,"Velocity":51,"Duration":317024,"SoundDuration":317024,"Delta":187124193},{"NoteNumber":58,"Velocity":32,"Duration":639813,"SoundDuration":639813,"Delta":187441217},{"NoteNumber":69,"Velocity":50,"Duration":317024,"SoundDuration":317024,"Delta":187441217},{"NoteNumber":62,"Velocity":32,"Duration":639813,"SoundDuration":639813,"Delta":187441217},{"NoteNumber":67,"Velocity":49,"Duration":322789,"SoundDuration":322789,"Delta":187758241},{"NoteNumber":64,"Velocity":35,"Duration":645578,"SoundDuration":645578,"Delta":188081030},{"NoteNumber":70,"Velocity":52,"Duration":968367,"SoundDuration":968367,"Delta":188081030},{"NoteNumber":61,"Velocity":31,"Duration":645578,"SoundDuration":645578,"Delta":188081030},{"NoteNumber":63,"Velocity":29,"Duration":653622,"SoundDuration":653622,"Delta":188726608},{"NoteNumber":66,"Velocity":32,"Duration":653622,"SoundDuration":653622,"Delta":188726608},{"NoteNumber":60,"Velocity":30,"Duration":969412,"SoundDuration":969412,"Delta":188726608},{"NoteNumber":69,"Velocity":39,"Duration":330833,"SoundDuration":330833,"Delta":189049397},{"NoteNumber":62,"Velocity":40,"Duration":636644,"SoundDuration":636644,"Delta":189380231},{"NoteNumber":67,"Velocity":48,"Duration":636644,"SoundDuration":636644,"Delta":189380231},{"NoteNumber":55,"Velocity":28,"Duration":636644,"SoundDuration":636644,"Delta":189380231},{"NoteNumber":58,"Velocity":34,"Duration":320855,"SoundDuration":320855,"Delta":189696020},{"NoteNumber":55,"Velocity":35,"Duration":320855,"SoundDuration":320855,"Delta":190016876},{"NoteNumber":50,"Velocity":34,"Duration":320855,"SoundDuration":320855,"Delta":190337731},{"NoteNumber":43,"Velocity":34,"Duration":1236083,"SoundDuration":1236083,"Delta":190658587},{"NoteNumber":82,"Velocity":47,"Duration":610659,"SoundDuration":610659,"Delta":190979442},{"NoteNumber":91,"Velocity":51,"Duration":304568,"SoundDuration":304568,"Delta":191285533},{"NoteNumber":86,"Velocity":35,"Duration":304568,"SoundDuration":304568,"Delta":191285533},{"NoteNumber":50,"Velocity":36,"Duration":1212288,"SoundDuration":1212288,"Delta":191285533},{"NoteNumber":81,"Velocity":46,"Duration":601598,"SoundDuration":601598,"Delta":191590102},{"NoteNumber":90,"Velocity":48,"Duration":297029,"SoundDuration":297029,"Delta":191894670},{"NoteNumber":86,"Velocity":35,"Duration":297029,"SoundDuration":297029,"Delta":191894670},{"NoteNumber":84,"Velocity":35,"Duration":297029,"SoundDuration":297029,"Delta":191894670},{"NoteNumber":43,"Velocity":38,"Duration":2421559,"SoundDuration":2421559,"Delta":191894670},{"NoteNumber":79,"Velocity":45,"Duration":604667,"SoundDuration":604667,"Delta":192191700},{"NoteNumber":87,"Velocity":50,"Duration":298544,"SoundDuration":298544,"Delta":192497822},{"NoteNumber":84,"Velocity":35,"Duration":298544,"SoundDuration":298544,"Delta":192497822},{"NoteNumber":81,"Velocity":35,"Duration":298544,"SoundDuration":298544,"Delta":192497822},{"NoteNumber":50,"Velocity":36,"Duration":2426138,"SoundDuration":2426138,"Delta":192497822},{"NoteNumber":78,"Velocity":45,"Duration":604383,"SoundDuration":604383,"Delta":192796367},{"NoteNumber":86,"Velocity":50,"Duration":299776,"SoundDuration":299776,"Delta":193100974},{"NoteNumber":84,"Velocity":35,"Duration":299776,"SoundDuration":299776,"Delta":193100974},{"NoteNumber":81,"Velocity":35,"Duration":299776,"SoundDuration":299776,"Delta":193100974},{"NoteNumber":75,"Velocity":44,"Duration":607786,"SoundDuration":607786,"Delta":193400751},{"NoteNumber":84,"Velocity":50,"Duration":298507,"SoundDuration":298507,"Delta":193710029},{"NoteNumber":81,"Velocity":35,"Duration":298507,"SoundDuration":298507,"Delta":193710029},{"NoteNumber":78,"Velocity":35,"Duration":298507,"SoundDuration":298507,"Delta":193710029},{"NoteNumber":74,"Velocity":46,"Duration":607730,"SoundDuration":607730,"Delta":194008537},{"NoteNumber":82,"Velocity":50,"Duration":300038,"SoundDuration":300038,"Delta":194316229},{"NoteNumber":79,"Velocity":35,"Duration":300038,"SoundDuration":300038,"Delta":194316229},{"NoteNumber":76,"Velocity":35,"Duration":300038,"SoundDuration":300038,"Delta":194316229},{"NoteNumber":43,"Velocity":40,"Duration":1826397,"SoundDuration":1826397,"Delta":194316229},{"NoteNumber":72,"Velocity":47,"Duration":607692,"SoundDuration":607692,"Delta":194616268},{"NoteNumber":81,"Velocity":50,"Duration":300000,"SoundDuration":300000,"Delta":194923960},{"NoteNumber":78,"Velocity":35,"Duration":300000,"SoundDuration":300000,"Delta":194923960},{"NoteNumber":75,"Velocity":35,"Duration":300000,"SoundDuration":300000,"Delta":194923960},{"NoteNumber":50,"Velocity":36,"Duration":1218667,"SoundDuration":1218667,"Delta":194923960},{"NoteNumber":70,"Velocity":44,"Duration":607786,"SoundDuration":607786,"Delta":195223960},{"NoteNumber":79,"Velocity":51,"Duration":298507,"SoundDuration":298507,"Delta":195533239},{"NoteNumber":74,"Velocity":35,"Duration":298507,"SoundDuration":298507,"Delta":195533239},{"NoteNumber":70,"Velocity":54,"Duration":310880,"SoundDuration":310880,"Delta":195831746},{"NoteNumber":74,"Velocity":38,"Duration":924695,"SoundDuration":924695,"Delta":196142627},{"NoteNumber":72,"Velocity":36,"Duration":924695,"SoundDuration":924695,"Delta":196142627},{"NoteNumber":69,"Velocity":54,"Duration":306122,"SoundDuration":306122,"Delta":196142627},{"NoteNumber":55,"Velocity":37,"Duration":924695,"SoundDuration":924695,"Delta":196142627},{"NoteNumber":62,"Velocity":39,"Duration":924695,"SoundDuration":924695,"Delta":196142627},{"NoteNumber":67,"Velocity":54,"Duration":310880,"SoundDuration":310880,"Delta":196448750},{"NoteNumber":66,"Velocity":56,"Duration":307692,"SoundDuration":307692,"Delta":196759631},{"NoteNumber":67,"Velocity":53,"Duration":310880,"SoundDuration":310880,"Delta":197067323},{"NoteNumber":68,"Velocity":54,"Duration":309278,"SoundDuration":309278,"Delta":197378204},{"NoteNumber":62,"Velocity":32,"Duration":610786,"SoundDuration":610786,"Delta":197378204},{"NoteNumber":60,"Velocity":30,"Duration":610786,"SoundDuration":610786,"Delta":197378204},{"NoteNumber":43,"Velocity":33,"Duration":610786,"SoundDuration":610786,"Delta":197378204},{"NoteNumber":50,"Velocity":33,"Duration":610786,"SoundDuration":610786,"Delta":197378204},{"NoteNumber":69,"Velocity":53,"Duration":301507,"SoundDuration":301507,"Delta":197687483},{"NoteNumber":54,"Velocity":38,"Duration":1240385,"SoundDuration":1240385,"Delta":197988990},{"NoteNumber":58,"Velocity":51,"Duration":312500,"SoundDuration":312500,"Delta":198296683},{"NoteNumber":62,"Velocity":38,"Duration":1240385,"SoundDuration":1240385,"Delta":198609183},{"NoteNumber":60,"Velocity":36,"Duration":1240385,"SoundDuration":1240385,"Delta":198609183},{"NoteNumber":57,"Velocity":54,"Duration":307692,"SoundDuration":307692,"Delta":198609183},{"NoteNumber":55,"Velocity":50,"Duration":312500,"SoundDuration":312500,"Delta":198916875},{"NoteNumber":54,"Velocity":54,"Duration":307692,"SoundDuration":307692,"Delta":199229375},{"NoteNumber":52,"Velocity":51,"Duration":312500,"SoundDuration":312500,"Delta":199537068},{"NoteNumber":58,"Velocity":30,"Duration":633669,"SoundDuration":633669,"Delta":199849568},{"NoteNumber":62,"Velocity":35,"Duration":633669,"SoundDuration":633669,"Delta":199849568},{"NoteNumber":54,"Velocity":54,"Duration":310880,"SoundDuration":310880,"Delta":199849568},{"NoteNumber":55,"Velocity":51,"Duration":322789,"SoundDuration":322789,"Delta":200160449},{"NoteNumber":50,"Velocity":36,"Duration":1213877,"SoundDuration":1213877,"Delta":200483238},{"NoteNumber":43,"Velocity":36,"Duration":1213877,"SoundDuration":1213877,"Delta":200483238},{"NoteNumber":70,"Velocity":47,"Duration":604598,"SoundDuration":604598,"Delta":200783238},{"NoteNumber":79,"Velocity":51,"Duration":298507,"SoundDuration":298507,"Delta":201089329},{"NoteNumber":74,"Velocity":35,"Duration":298507,"SoundDuration":298507,"Delta":201089329},{"NoteNumber":69,"Velocity":45,"Duration":609278,"SoundDuration":609278,"Delta":201387836},{"NoteNumber":78,"Velocity":47,"Duration":300000,"SoundDuration":300000,"Delta":201697115},{"NoteNumber":74,"Velocity":34,"Duration":300000,"SoundDuration":300000,"Delta":201697115},{"NoteNumber":72,"Velocity":34,"Duration":300000,"SoundDuration":300000,"Delta":201697115},{"NoteNumber":31,"Velocity":37,"Duration":2443334,"SoundDuration":2443334,"Delta":201697115},{"NoteNumber":67,"Velocity":43,"Duration":610881,"SoundDuration":610881,"Delta":201997115},{"NoteNumber":75,"Velocity":48,"Duration":300000,"SoundDuration":300000,"Delta":202307996},{"NoteNumber":72,"Velocity":33,"Duration":300000,"SoundDuration":300000,"Delta":202307996},{"NoteNumber":69,"Velocity":33,"Duration":300000,"SoundDuration":300000,"Delta":202307996},{"NoteNumber":38,"Velocity":34,"Duration":2444841,"SoundDuration":2444841,"Delta":202307996},{"NoteNumber":66,"Velocity":42,"Duration":610786,"SoundDuration":610786,"Delta":202607996},{"NoteNumber":74,"Velocity":48,"Duration":301507,"SoundDuration":301507,"Delta":202917274},{"NoteNumber":72,"Velocity":33,"Duration":301507,"SoundDuration":301507,"Delta":202917274},{"NoteNumber":69,"Velocity":33,"Duration":301507,"SoundDuration":301507,"Delta":202917274},{"NoteNumber":63,"Velocity":42,"Duration":612388,"SoundDuration":612388,"Delta":203218782},{"NoteNumber":72,"Velocity":47,"Duration":301507,"SoundDuration":301507,"Delta":203529663},{"NoteNumber":69,"Velocity":33,"Duration":301507,"SoundDuration":301507,"Delta":203529663},{"NoteNumber":66,"Velocity":33,"Duration":301507,"SoundDuration":301507,"Delta":203529663},{"NoteNumber":62,"Velocity":42,"Duration":610786,"SoundDuration":610786,"Delta":203831170},{"NoteNumber":70,"Velocity":46,"Duration":301507,"SoundDuration":301507,"Delta":204140449},{"NoteNumber":67,"Velocity":32,"Duration":301507,"SoundDuration":301507,"Delta":204140449},{"NoteNumber":64,"Velocity":32,"Duration":301507,"SoundDuration":301507,"Delta":204140449},{"NoteNumber":31,"Velocity":37,"Duration":1832563,"SoundDuration":1832563,"Delta":204140449},{"NoteNumber":60,"Velocity":40,"Duration":612388,"SoundDuration":612388,"Delta":204441956},{"NoteNumber":69,"Velocity":46,"Duration":301507,"SoundDuration":301507,"Delta":204752837},{"NoteNumber":66,"Velocity":32,"Duration":301507,"SoundDuration":301507,"Delta":204752837},{"NoteNumber":63,"Velocity":32,"Duration":301507,"SoundDuration":301507,"Delta":204752837},{"NoteNumber":38,"Velocity":33,"Duration":1220174,"SoundDuration":1220174,"Delta":204752837},{"NoteNumber":58,"Velocity":41,"Duration":607786,"SoundDuration":607786,"Delta":205054345},{"NoteNumber":67,"Velocity":46,"Duration":298507,"SoundDuration":298507,"Delta":205363623},{"NoteNumber":62,"Velocity":31,"Duration":298507,"SoundDuration":298507,"Delta":205363623},{"NoteNumber":58,"Velocity":48,"Duration":310880,"SoundDuration":310880,"Delta":205662131},{"NoteNumber":62,"Velocity":34,"Duration":924695,"SoundDuration":924695,"Delta":205973012},{"NoteNumber":60,"Velocity":32,"Duration":924695,"SoundDuration":924695,"Delta":205973012},{"NoteNumber":57,"Velocity":48,"Duration":306122,"SoundDuration":306122,"Delta":205973012},{"NoteNumber":43,"Velocity":33,"Duration":924695,"SoundDuration":924695,"Delta":205973012},{"NoteNumber":50,"Velocity":35,"Duration":924695,"SoundDuration":924695,"Delta":205973012},{"NoteNumber":55,"Velocity":48,"Duration":310880,"SoundDuration":310880,"Delta":206279134},{"NoteNumber":54,"Velocity":50,"Duration":307692,"SoundDuration":307692,"Delta":206590015},{"NoteNumber":55,"Velocity":47,"Duration":310880,"SoundDuration":310880,"Delta":206897708},{"NoteNumber":56,"Velocity":48,"Duration":309278,"SoundDuration":309278,"Delta":207208589},{"NoteNumber":50,"Velocity":28,"Duration":610786,"SoundDuration":610786,"Delta":207208589},{"NoteNumber":48,"Velocity":27,"Duration":610786,"SoundDuration":610786,"Delta":207208589},{"NoteNumber":31,"Velocity":29,"Duration":610786,"SoundDuration":610786,"Delta":207208589},{"NoteNumber":38,"Velocity":29,"Duration":610786,"SoundDuration":610786,"Delta":207208589},{"NoteNumber":57,"Velocity":47,"Duration":301507,"SoundDuration":301507,"Delta":207517867},{"NoteNumber":42,"Velocity":34,"Duration":1240385,"SoundDuration":1240385,"Delta":207819375},{"NoteNumber":46,"Velocity":45,"Duration":312500,"SoundDuration":312500,"Delta":208127067},{"NoteNumber":50,"Velocity":33,"Duration":1267056,"SoundDuration":1267056,"Delta":208439567},{"NoteNumber":48,"Velocity":31,"Duration":1267056,"SoundDuration":1267056,"Delta":208439567},{"NoteNumber":45,"Velocity":47,"Duration":307692,"SoundDuration":307692,"Delta":208439567},{"NoteNumber":43,"Velocity":43,"Duration":312500,"SoundDuration":312500,"Delta":208747260},{"NoteNumber":42,"Velocity":46,"Duration":317460,"SoundDuration":317460,"Delta":209059760},{"NoteNumber":40,"Velocity":43,"Duration":329403,"SoundDuration":329403,"Delta":209377220},{"NoteNumber":46,"Velocity":27,"Duration":648819,"SoundDuration":648819,"Delta":209706624},{"NoteNumber":50,"Velocity":33,"Duration":648819,"SoundDuration":648819,"Delta":209706624},{"NoteNumber":42,"Velocity":45,"Duration":319149,"SoundDuration":319149,"Delta":209706624},{"NoteNumber":43,"Velocity":41,"Duration":329670,"SoundDuration":329670,"Delta":210025773},{"NoteNumber":31,"Velocity":31,"Duration":357143,"SoundDuration":357143,"Delta":210355444},{"NoteNumber":38,"Velocity":36,"Duration":604936,"SoundDuration":604936,"Delta":210712587},{"NoteNumber":42,"Velocity":28,"Duration":301004,"SoundDuration":301004,"Delta":211016518},{"NoteNumber":50,"Velocity":34,"Duration":301004,"SoundDuration":301004,"Delta":211016518},{"NoteNumber":48,"Velocity":28,"Duration":301004,"SoundDuration":301004,"Delta":211016518},{"NoteNumber":31,"Velocity":29,"Duration":595303,"SoundDuration":595303,"Delta":211317523},{"NoteNumber":43,"Velocity":29,"Duration":296298,"SoundDuration":296298,"Delta":211616528},{"NoteNumber":46,"Velocity":29,"Duration":296298,"SoundDuration":296298,"Delta":211616528},{"NoteNumber":50,"Velocity":35,"Duration":296298,"SoundDuration":296298,"Delta":211616528},{"NoteNumber":38,"Velocity":32,"Duration":586092,"SoundDuration":586092,"Delta":211912826},{"NoteNumber":45,"Velocity":31,"Duration":291972,"SoundDuration":291972,"Delta":212206946},{"NoteNumber":50,"Velocity":31,"Duration":291972,"SoundDuration":291972,"Delta":212206946},{"NoteNumber":54,"Velocity":37,"Duration":291972,"SoundDuration":291972,"Delta":212206946},{"NoteNumber":31,"Velocity":27,"Duration":576931,"SoundDuration":576931,"Delta":212498919},{"NoteNumber":46,"Velocity":33,"Duration":287541,"SoundDuration":287541,"Delta":212788309},{"NoteNumber":50,"Velocity":33,"Duration":287541,"SoundDuration":287541,"Delta":212788309},{"NoteNumber":55,"Velocity":39,"Duration":287541,"SoundDuration":287541,"Delta":212788309},{"NoteNumber":38,"Velocity":33,"Duration":568058,"SoundDuration":568058,"Delta":213075851},{"NoteNumber":50,"Velocity":34,"Duration":283021,"SoundDuration":283021,"Delta":213360888},{"NoteNumber":54,"Velocity":40,"Duration":283021,"SoundDuration":283021,"Delta":213360888},{"NoteNumber":57,"Velocity":40,"Duration":283021,"SoundDuration":283021,"Delta":213360888},{"NoteNumber":31,"Velocity":29,"Duration":560101,"SoundDuration":560101,"Delta":213643909},{"NoteNumber":50,"Velocity":35,"Duration":279069,"SoundDuration":279069,"Delta":213924941},{"NoteNumber":55,"Velocity":35,"Duration":279069,"SoundDuration":279069,"Delta":213924941},{"NoteNumber":58,"Velocity":42,"Duration":279069,"SoundDuration":279069,"Delta":213924941},{"NoteNumber":38,"Velocity":34,"Duration":558140,"SoundDuration":558140,"Delta":214204011},{"NoteNumber":54,"Velocity":36,"Duration":279069,"SoundDuration":279069,"Delta":214483081},{"NoteNumber":62,"Velocity":43,"Duration":279069,"SoundDuration":279069,"Delta":214483081},{"NoteNumber":60,"Velocity":36,"Duration":279069,"SoundDuration":279069,"Delta":214483081},{"NoteNumber":31,"Velocity":30,"Duration":554299,"SoundDuration":554299,"Delta":214762151},{"NoteNumber":67,"Velocity":45,"Duration":275229,"SoundDuration":275229,"Delta":215041221},{"NoteNumber":62,"Velocity":38,"Duration":275229,"SoundDuration":275229,"Delta":215041221},{"NoteNumber":58,"Velocity":38,"Duration":275229,"SoundDuration":275229,"Delta":215041221},{"NoteNumber":50,"Velocity":36,"Duration":550459,"SoundDuration":550459,"Delta":215316450},{"NoteNumber":54,"Velocity":36,"Duration":275229,"SoundDuration":275229,"Delta":215591680},{"NoteNumber":62,"Velocity":43,"Duration":275229,"SoundDuration":275229,"Delta":215591680},{"NoteNumber":60,"Velocity":36,"Duration":275229,"SoundDuration":275229,"Delta":215591680},{"NoteNumber":43,"Velocity":32,"Duration":554305,"SoundDuration":554305,"Delta":215866909},{"NoteNumber":62,"Velocity":47,"Duration":277778,"SoundDuration":277778,"Delta":216143437},{"NoteNumber":58,"Velocity":39,"Duration":277778,"SoundDuration":277778,"Delta":216143437},{"NoteNumber":55,"Velocity":39,"Duration":277778,"SoundDuration":277778,"Delta":216143437},{"NoteNumber":50,"Velocity":36,"Duration":557944,"SoundDuration":557944,"Delta":216421215},{"NoteNumber":57,"Velocity":40,"Duration":278639,"SoundDuration":278639,"Delta":216700521},{"NoteNumber":62,"Velocity":40,"Duration":278639,"SoundDuration":278639,"Delta":216700521},{"NoteNumber":66,"Velocity":48,"Duration":278639,"SoundDuration":278639,"Delta":216700521},{"NoteNumber":43,"Velocity":31,"Duration":553001,"SoundDuration":553001,"Delta":216979160},{"NoteNumber":58,"Velocity":41,"Duration":275863,"SoundDuration":275863,"Delta":217256298},{"NoteNumber":62,"Velocity":41,"Duration":275863,"SoundDuration":275863,"Delta":217256298},{"NoteNumber":67,"Velocity":49,"Duration":275863,"SoundDuration":275863,"Delta":217256298},{"NoteNumber":50,"Velocity":37,"Duration":547534,"SoundDuration":547534,"Delta":217532161},{"NoteNumber":62,"Velocity":42,"Duration":273142,"SoundDuration":273142,"Delta":217806553},{"NoteNumber":66,"Velocity":42,"Duration":273142,"SoundDuration":273142,"Delta":217806553},{"NoteNumber":69,"Velocity":50,"Duration":273142,"SoundDuration":273142,"Delta":217806553},{"NoteNumber":43,"Velocity":33,"Duration":542172,"SoundDuration":542172,"Delta":218079695},{"NoteNumber":62,"Velocity":44,"Duration":270474,"SoundDuration":270474,"Delta":218351394},{"NoteNumber":67,"Velocity":44,"Duration":270474,"SoundDuration":270474,"Delta":218351394},{"NoteNumber":70,"Velocity":53,"Duration":270474,"SoundDuration":270474,"Delta":218351394},{"NoteNumber":50,"Velocity":38,"Duration":542204,"SoundDuration":542204,"Delta":218621868},{"NoteNumber":66,"Velocity":45,"Duration":272327,"SoundDuration":272327,"Delta":218891746},{"NoteNumber":72,"Velocity":45,"Duration":272327,"SoundDuration":272327,"Delta":218891746},{"NoteNumber":74,"Velocity":54,"Duration":272327,"SoundDuration":272327,"Delta":218891746},{"NoteNumber":43,"Velocity":33,"Duration":545564,"SoundDuration":545564,"Delta":219164073},{"NoteNumber":70,"Velocity":46,"Duration":269058,"SoundDuration":269058,"Delta":219440579},{"NoteNumber":74,"Velocity":46,"Duration":269058,"SoundDuration":269058,"Delta":219440579},{"NoteNumber":79,"Velocity":55,"Duration":269058,"SoundDuration":269058,"Delta":219440579},{"NoteNumber":50,"Velocity":40,"Duration":546836,"SoundDuration":546836,"Delta":219709637},{"NoteNumber":74,"Velocity":55,"Duration":277778,"SoundDuration":277778,"Delta":219978696},{"NoteNumber":72,"Velocity":46,"Duration":277778,"SoundDuration":277778,"Delta":219978696},{"NoteNumber":66,"Velocity":46,"Duration":277778,"SoundDuration":277778,"Delta":219978696},{"NoteNumber":43,"Velocity":35,"Duration":546836,"SoundDuration":546836,"Delta":220256474},{"NoteNumber":67,"Velocity":44,"Duration":373225,"SoundDuration":373225,"Delta":220430085},{"NoteNumber":70,"Velocity":47,"Duration":338503,"SoundDuration":338503,"Delta":220464807},{"NoteNumber":74,"Velocity":52,"Duration":303780,"SoundDuration":303780,"Delta":220499530},{"NoteNumber":79,"Velocity":56,"Duration":269058,"SoundDuration":269058,"Delta":220534252},{"NoteNumber":50,"Velocity":42,"Duration":538116,"SoundDuration":538116,"Delta":220803310},{"NoteNumber":74,"Velocity":55,"Duration":269058,"SoundDuration":269058,"Delta":221072369},{"NoteNumber":72,"Velocity":47,"Duration":269058,"SoundDuration":269058,"Delta":221072369},{"NoteNumber":66,"Velocity":47,"Duration":269058,"SoundDuration":269058,"Delta":221072369},{"NoteNumber":43,"Velocity":38,"Duration":538116,"SoundDuration":538116,"Delta":221341427},{"NoteNumber":67,"Velocity":44,"Duration":369955,"SoundDuration":369955,"Delta":221509589},{"NoteNumber":70,"Velocity":47,"Duration":336323,"SoundDuration":336323,"Delta":221543221},{"NoteNumber":74,"Velocity":51,"Duration":302690,"SoundDuration":302690,"Delta":221576854},{"NoteNumber":79,"Velocity":56,"Duration":269058,"SoundDuration":269058,"Delta":221610486},{"NoteNumber":62,"Velocity":43,"Duration":546836,"SoundDuration":546836,"Delta":221879544},{"NoteNumber":86,"Velocity":59,"Duration":277778,"SoundDuration":277778,"Delta":222148603},{"NoteNumber":84,"Velocity":50,"Duration":277778,"SoundDuration":277778,"Delta":222148603},{"NoteNumber":78,"Velocity":50,"Duration":277778,"SoundDuration":277778,"Delta":222148603},{"NoteNumber":55,"Velocity":39,"Duration":548048,"SoundDuration":548048,"Delta":222426381},{"NoteNumber":79,"Velocity":51,"Duration":374437,"SoundDuration":374437,"Delta":222599992},{"NoteNumber":82,"Velocity":56,"Duration":339715,"SoundDuration":339715,"Delta":222634714},{"NoteNumber":86,"Velocity":60,"Duration":304992,"SoundDuration":304992,"Delta":222669437},{"NoteNumber":91,"Velocity":65,"Duration":270270,"SoundDuration":270270,"Delta":222704159},{"NoteNumber":62,"Velocity":45,"Duration":548048,"SoundDuration":548048,"Delta":222974429},{"NoteNumber":86,"Velocity":59,"Duration":277778,"SoundDuration":277778,"Delta":223244700},{"NoteNumber":84,"Velocity":51,"Duration":277778,"SoundDuration":277778,"Delta":223244700},{"NoteNumber":78,"Velocity":51,"Duration":277778,"SoundDuration":277778,"Delta":223244700},{"NoteNumber":55,"Velocity":41,"Duration":549270,"SoundDuration":549270,"Delta":223522478},{"NoteNumber":79,"Velocity":50,"Duration":375659,"SoundDuration":375659,"Delta":223696089},{"NoteNumber":82,"Velocity":55,"Duration":340937,"SoundDuration":340937,"Delta":223730811},{"NoteNumber":86,"Velocity":58,"Duration":306215,"SoundDuration":306215,"Delta":223765534},{"NoteNumber":91,"Velocity":65,"Duration":271492,"SoundDuration":271492,"Delta":223800256},{"NoteNumber":67,"Velocity":40,"Duration":542986,"SoundDuration":542986,"Delta":224071749},{"NoteNumber":74,"Velocity":40,"Duration":542986,"SoundDuration":542986,"Delta":224071749},{"NoteNumber":79,"Velocity":47,"Duration":373302,"SoundDuration":373302,"Delta":224241432},{"NoteNumber":82,"Velocity":52,"Duration":339366,"SoundDuration":339366,"Delta":224275369},{"NoteNumber":86,"Velocity":57,"Duration":305429,"SoundDuration":305429,"Delta":224309305},{"NoteNumber":91,"Velocity":62,"Duration":271492,"SoundDuration":271492,"Delta":224343242},{"NoteNumber":67,"Velocity":34,"Duration":543397,"SoundDuration":543397,"Delta":224614735},{"NoteNumber":74,"Velocity":34,"Duration":543397,"SoundDuration":543397,"Delta":224614735},{"NoteNumber":79,"Velocity":46,"Duration":373714,"SoundDuration":373714,"Delta":224784418},{"NoteNumber":82,"Velocity":50,"Duration":339777,"SoundDuration":339777,"Delta":224818355},{"NoteNumber":86,"Velocity":54,"Duration":305841,"SoundDuration":305841,"Delta":224852291},{"NoteNumber":91,"Velocity":59,"Duration":271904,"SoundDuration":271904,"Delta":224886228},{"NoteNumber":67,"Velocity":36,"Duration":550896,"SoundDuration":550896,"Delta":225158132},{"NoteNumber":74,"Velocity":36,"Duration":550896,"SoundDuration":550896,"Delta":225158132},{"NoteNumber":79,"Velocity":45,"Duration":379871,"SoundDuration":379871,"Delta":225329158},{"NoteNumber":82,"Velocity":47,"Duration":345520,"SoundDuration":345520,"Delta":225363509},{"NoteNumber":86,"Velocity":51,"Duration":311116,"SoundDuration":311116,"Delta":225397913},{"NoteNumber":91,"Velocity":55,"Duration":276713,"SoundDuration":276713,"Delta":225432316},{"NoteNumber":67,"Velocity":29,"Duration":560321,"SoundDuration":560321,"Delta":225709029},{"NoteNumber":74,"Velocity":29,"Duration":560321,"SoundDuration":560321,"Delta":225709029},{"NoteNumber":79,"Velocity":42,"Duration":386117,"SoundDuration":386117,"Delta":225883233},{"NoteNumber":82,"Velocity":44,"Duration":351125,"SoundDuration":351125,"Delta":225918225},{"NoteNumber":86,"Velocity":46,"Duration":316078,"SoundDuration":316078,"Delta":225953272},{"NoteNumber":91,"Velocity":50,"Duration":281032,"SoundDuration":281032,"Delta":225988319},{"NoteNumber":67,"Velocity":31,"Duration":571224,"SoundDuration":571224,"Delta":226269351},{"NoteNumber":74,"Velocity":31,"Duration":571224,"SoundDuration":571224,"Delta":226269351},{"NoteNumber":79,"Velocity":36,"Duration":393946,"SoundDuration":393946,"Delta":226446629},{"NoteNumber":82,"Velocity":38,"Duration":358401,"SoundDuration":358401,"Delta":226482174},{"NoteNumber":86,"Velocity":40,"Duration":322800,"SoundDuration":322800,"Delta":226517775},{"NoteNumber":91,"Velocity":47,"Duration":287085,"SoundDuration":287085,"Delta":226553489},{"NoteNumber":67,"Velocity":27,"Duration":582774,"SoundDuration":582774,"Delta":226840575},{"NoteNumber":74,"Velocity":27,"Duration":582774,"SoundDuration":582774,"Delta":226840575},{"NoteNumber":79,"Velocity":32,"Duration":401847,"SoundDuration":401847,"Delta":227021502},{"NoteNumber":82,"Velocity":36,"Duration":365498,"SoundDuration":365498,"Delta":227057851},{"NoteNumber":86,"Velocity":40,"Duration":329090,"SoundDuration":329090,"Delta":227094259},{"NoteNumber":91,"Velocity":44,"Duration":292683,"SoundDuration":292683,"Delta":227130667},{"NoteNumber":67,"Velocity":29,"Duration":592682,"SoundDuration":592682,"Delta":227423350},{"NoteNumber":74,"Velocity":29,"Duration":592682,"SoundDuration":592682,"Delta":227423350},{"NoteNumber":79,"Velocity":29,"Duration":409756,"SoundDuration":409756,"Delta":227606277},{"NoteNumber":82,"Velocity":33,"Duration":373170,"SoundDuration":373170,"Delta":227642862},{"NoteNumber":86,"Velocity":34,"Duration":336585,"SoundDuration":336585,"Delta":227679448},{"NoteNumber":91,"Velocity":41,"Duration":300000,"SoundDuration":300000,"Delta":227716033},{"NoteNumber":67,"Velocity":25,"Duration":3524999,"SoundDuration":3524999,"Delta":228016033},{"NoteNumber":74,"Velocity":25,"Duration":3524999,"SoundDuration":3524999,"Delta":228016033},{"NoteNumber":79,"Velocity":26,"Duration":1031250,"SoundDuration":1031250,"Delta":228259783},{"NoteNumber":82,"Velocity":30,"Duration":937500,"SoundDuration":937500,"Delta":228353533},{"NoteNumber":86,"Velocity":34,"Duration":843750,"SoundDuration":843750,"Delta":228447283},{"NoteNumber":91,"Velocity":37,"Duration":750000,"SoundDuration":750000,"Delta":228541033}]}