{"title":"Kind im Einschlummern","artist":"Piano","durationMs":83258,"midiSha256":"e0cc5280db2a88ac0096c6975af47e78689095f677e3c0d2c87010b823ed14fb","midiObject":[{"NoteNumber":52,"Velocity":38,"Duration":1276596,"SoundDuration":1276596,"Delta":0},{"NoteNumber":55,"Velocity":38,"Duration":1276596,"SoundDuration":1276596,"Delta":0},{"NoteNumber":59,"Velocity":55,"Duration":638298,"SoundDuration":638298,"Delta":0},{"NoteNumber":60,"Velocity":50,"Duration":319149,"SoundDuration":319149,"Delta":638298},{"NoteNumber":59,"Velocity":50,"Duration":319149,"SoundDuration":319149,"Delta":957447},{"NoteNumber":71,"Velocity":51,"Duration":930851,"SoundDuration":930851,"Delta":1276596},{"NoteNumber":51,"Velocity":33,"Duration":1276596,"SoundDuration":1276596,"Delta":1276596},{"NoteNumber":59,"Velocity":53,"Duration":319148,"SoundDuration":319148,"Delta":1276596},{"NoteNumber":54,"Velocity":33,"Duration":1276596,"SoundDuration":1276596,"Delta":1276596},{"NoteNumber":66,"Velocity":44,"Duration":957447,"SoundDuration":957447,"Delta":1595745},{"NoteNumber":78,"Velocity":41,"Duration":319149,"SoundDuration":319149,"Delta":1914894},{"NoteNumber":71,"Velocity":36,"Duration":319148,"SoundDuration":319148,"Delta":2234043},{"NoteNumber":71,"Velocity":50,"Duration":1276596,"SoundDuration":1276596,"Delta":2553192},{"NoteNumber":52,"Velocity":36,"Duration":1276596,"SoundDuration":1276596,"Delta":2553192},{"NoteNumber":59,"Velocity":50,"Duration":638297,"SoundDuration":638297,"Delta":2553192},{"NoteNumber":55,"Velocity":36,"Duration":1276596,"SoundDuration":1276596,"Delta":2553192},{"NoteNumber":79,"Velocity":49,"Duration":957447,"SoundDuration":957447,"Delta":2872341},{"NoteNumber":60,"Velocity":50,"Duration":319149,"SoundDuration":319149,"Delta":3191490},{"NoteNumber":59,"Velocity":50,"Duration":319148,"SoundDuration":319148,"Delta":3510639},{"NoteNumber":71,"Velocity":46,"Duration":930851,"SoundDuration":930851,"Delta":3829788},{"NoteNumber":51,"Velocity":29,"Duration":1276596,"SoundDuration":1276596,"Delta":3829788},{"NoteNumber":59,"Velocity":48,"Duration":319148,"SoundDuration":319148,"Delta":3829788},{"NoteNumber":54,"Velocity":29,"Duration":1276596,"SoundDuration":1276596,"Delta":3829788},{"NoteNumber":66,"Velocity":39,"Duration":957447,"SoundDuration":957447,"Delta":4148937},{"NoteNumber":78,"Velocity":37,"Duration":319148,"SoundDuration":319148,"Delta":4468086},{"NoteNumber":71,"Velocity":30,"Duration":319149,"SoundDuration":319149,"Delta":4787235},{"NoteNumber":71,"Velocity":46,"Duration":1276595,"SoundDuration":1276595,"Delta":5106384},{"NoteNumber":52,"Velocity":30,"Duration":1276595,"SoundDuration":1276595,"Delta":5106384},{"NoteNumber":59,"Velocity":41,"Duration":638297,"SoundDuration":638297,"Delta":5106384},{"NoteNumber":55,"Velocity":30,"Duration":1276595,"SoundDuration":1276595,"Delta":5106384},{"NoteNumber":79,"Velocity":41,"Duration":957446,"SoundDuration":957446,"Delta":5425533},{"NoteNumber":60,"Velocity":41,"Duration":319149,"SoundDuration":319149,"Delta":5744682},{"NoteNumber":59,"Velocity":41,"Duration":319148,"SoundDuration":319148,"Delta":6063831},{"NoteNumber":71,"Velocity":40,"Duration":951893,"SoundDuration":951893,"Delta":6382980},{"NoteNumber":50,"Velocity":26,"Duration":1297638,"SoundDuration":1297638,"Delta":6382980},{"NoteNumber":54,"Velocity":26,"Duration":1297638,"SoundDuration":1297638,"Delta":6382980},{"NoteNumber":59,"Velocity":39,"Duration":329670,"SoundDuration":329670,"Delta":6382980},{"NoteNumber":66,"Velocity":35,"Duration":967968,"SoundDuration":967968,"Delta":6712650},{"NoteNumber":78,"Velocity":34,"Duration":319149,"SoundDuration":319149,"Delta":7042320},{"NoteNumber":71,"Velocity":27,"Duration":319148,"SoundDuration":319148,"Delta":7361469},{"NoteNumber":71,"Velocity":39,"Duration":1323088,"SoundDuration":1323088,"Delta":7680618},{"NoteNumber":48,"Velocity":23,"Duration":1323088,"SoundDuration":1323088,"Delta":7680618},{"NoteNumber":52,"Velocity":22,"Duration":1323088,"SoundDuration":1323088,"Delta":7680618},{"NoteNumber":59,"Velocity":37,"Duration":670914,"SoundDuration":670914,"Delta":7680618},{"NoteNumber":76,"Velocity":30,"Duration":978260,"SoundDuration":978260,"Delta":8025445},{"NoteNumber":60,"Velocity":33,"Duration":326086,"SoundDuration":326086,"Delta":8351532},{"NoteNumber":59,"Velocity":34,"Duration":326087,"SoundDuration":326087,"Delta":8677619},{"NoteNumber":71,"Velocity":39,"Duration":975512,"SoundDuration":975512,"Delta":9003706},{"NoteNumber":47,"Velocity":19,"Duration":1349075,"SoundDuration":1349075,"Delta":9003706},{"NoteNumber":51,"Velocity":19,"Duration":1349075,"SoundDuration":1349075,"Delta":9003706},{"NoteNumber":59,"Velocity":36,"Duration":326086,"SoundDuration":326086,"Delta":9003706},{"NoteNumber":66,"Velocity":31,"Duration":1022988,"SoundDuration":1022988,"Delta":9329793},{"NoteNumber":78,"Velocity":30,"Duration":344827,"SoundDuration":344827,"Delta":9663127},{"NoteNumber":71,"Velocity":25,"Duration":344827,"SoundDuration":344827,"Delta":10007954},{"NoteNumber":71,"Velocity":48,"Duration":1276595,"SoundDuration":1276595,"Delta":10352782},{"NoteNumber":52,"Velocity":31,"Duration":1276595,"SoundDuration":1276595,"Delta":10352782},{"NoteNumber":59,"Velocity":47,"Duration":638298,"SoundDuration":638298,"Delta":10352782},{"NoteNumber":55,"Velocity":34,"Duration":1276595,"SoundDuration":1276595,"Delta":10352782},{"NoteNumber":83,"Velocity":49,"Duration":957447,"SoundDuration":957447,"Delta":10671931},{"NoteNumber":60,"Velocity":45,"Duration":319148,"SoundDuration":319148,"Delta":10991080},{"NoteNumber":59,"Velocity":45,"Duration":319148,"SoundDuration":319148,"Delta":11310229},{"NoteNumber":71,"Velocity":46,"Duration":930851,"SoundDuration":930851,"Delta":11629378},{"NoteNumber":51,"Velocity":29,"Duration":1276596,"SoundDuration":1276596,"Delta":11629378},{"NoteNumber":54,"Velocity":29,"Duration":1276596,"SoundDuration":1276596,"Delta":11629378},{"NoteNumber":59,"Velocity":48,"Duration":319148,"SoundDuration":319148,"Delta":11629378},{"NoteNumber":66,"Velocity":39,"Duration":957447,"SoundDuration":957447,"Delta":11948527},{"NoteNumber":78,"Velocity":37,"Duration":319148,"SoundDuration":319148,"Delta":12267676},{"NoteNumber":71,"Velocity":31,"Duration":319149,"SoundDuration":319149,"Delta":12586825},{"NoteNumber":71,"Velocity":50,"Duration":1276595,"SoundDuration":1276595,"Delta":12905974},{"NoteNumber":52,"Velocity":35,"Duration":1276595,"SoundDuration":1276595,"Delta":12905974},{"NoteNumber":55,"Velocity":35,"Duration":1276595,"SoundDuration":1276595,"Delta":12905974},{"NoteNumber":59,"Velocity":48,"Duration":638297,"SoundDuration":638297,"Delta":12905974},{"NoteNumber":79,"Velocity":49,"Duration":957447,"SoundDuration":957447,"Delta":13225123},{"NoteNumber":60,"Velocity":50,"Duration":319148,"SoundDuration":319148,"Delta":13544272},{"NoteNumber":59,"Velocity":50,"Duration":319149,"SoundDuration":319149,"Delta":13863421},{"NoteNumber":71,"Velocity":42,"Duration":930851,"SoundDuration":930851,"Delta":14182570},{"NoteNumber":51,"Velocity":27,"Duration":1276595,"SoundDuration":1276595,"Delta":14182570},{"NoteNumber":54,"Velocity":27,"Duration":1276595,"SoundDuration":1276595,"Delta":14182570},{"NoteNumber":59,"Velocity":45,"Duration":319148,"SoundDuration":319148,"Delta":14182570},{"NoteNumber":66,"Velocity":39,"Duration":957447,"SoundDuration":957447,"Delta":14501719},{"NoteNumber":78,"Velocity":37,"Duration":319148,"SoundDuration":319148,"Delta":14820868},{"NoteNumber":71,"Velocity":30,"Duration":319148,"SoundDuration":319148,"Delta":15140017},{"NoteNumber":71,"Velocity":41,"Duration":1276596,"SoundDuration":1276596,"Delta":15459166},{"NoteNumber":52,"Velocity":29,"Duration":1276596,"SoundDuration":1276596,"Delta":15459166},{"NoteNumber":55,"Velocity":29,"Duration":1276596,"SoundDuration":1276596,"Delta":15459166},{"NoteNumber":59,"Velocity":39,"Duration":638297,"SoundDuration":638297,"Delta":15459166},{"NoteNumber":79,"Velocity":39,"Duration":957447,"SoundDuration":957447,"Delta":15778315},{"NoteNumber":60,"Velocity":37,"Duration":319148,"SoundDuration":319148,"Delta":16097464},{"NoteNumber":59,"Velocity":36,"Duration":319149,"SoundDuration":319149,"Delta":16416613},{"NoteNumber":71,"Velocity":39,"Duration":951893,"SoundDuration":951893,"Delta":16735762},{"NoteNumber":54,"Velocity":25,"Duration":1297638,"SoundDuration":1297638,"Delta":16735762},{"NoteNumber":59,"Velocity":36,"Duration":329670,"SoundDuration":329670,"Delta":16735762},{"NoteNumber":50,"Velocity":25,"Duration":1297638,"SoundDuration":1297638,"Delta":16735762},{"NoteNumber":66,"Velocity":33,"Duration":967968,"SoundDuration":967968,"Delta":17065432},{"NoteNumber":78,"Velocity":31,"Duration":319148,"SoundDuration":319148,"Delta":17395102},{"NoteNumber":71,"Velocity":25,"Duration":319148,"SoundDuration":319148,"Delta":17714251},{"NoteNumber":71,"Velocity":38,"Duration":1352941,"SoundDuration":1352941,"Delta":18033400},{"NoteNumber":52,"Velocity":19,"Duration":1352941,"SoundDuration":1352941,"Delta":18033400},{"NoteNumber":59,"Velocity":34,"Duration":686274,"SoundDuration":686274,"Delta":18033400},{"NoteNumber":48,"Velocity":20,"Duration":1352941,"SoundDuration":1352941,"Delta":18033400},{"NoteNumber":76,"Velocity":28,"Duration":999999,"SoundDuration":999999,"Delta":18386342},{"NoteNumber":60,"Velocity":29,"Duration":333333,"SoundDuration":333333,"Delta":18719675},{"NoteNumber":59,"Velocity":30,"Duration":333333,"SoundDuration":333333,"Delta":19053008},{"NoteNumber":71,"Velocity":34,"Duration":1017536,"SoundDuration":1017536,"Delta":19386341},{"NoteNumber":51,"Velocity":16,"Duration":1432639,"SoundDuration":1432639,"Delta":19386341},{"NoteNumber":59,"Velocity":30,"Duration":333333,"SoundDuration":333333,"Delta":19386341},{"NoteNumber":47,"Velocity":16,"Duration":1432639,"SoundDuration":1432639,"Delta":19386341},{"NoteNumber":66,"Velocity":28,"Duration":1099306,"SoundDuration":1099306,"Delta":19719675},{"NoteNumber":78,"Velocity":26,"Duration":365853,"SoundDuration":365853,"Delta":20068512},{"NoteNumber":71,"Velocity":24,"Duration":384615,"SoundDuration":384615,"Delta":20434365},{"NoteNumber":80,"Velocity":28,"Duration":1320115,"SoundDuration":1320115,"Delta":20818981},{"NoteNumber":71,"Velocity":28,"Duration":1320115,"SoundDuration":1320115,"Delta":20818981},{"NoteNumber":76,"Velocity":28,"Duration":1320115,"SoundDuration":1320115,"Delta":20818981},{"NoteNumber":83,"Velocity":39,"Duration":1320115,"SoundDuration":1320115,"Delta":20818981},{"NoteNumber":40,"Velocity":34,"Duration":1320115,"SoundDuration":1320115,"Delta":20818981},{"NoteNumber":47,"Velocity":34,"Duration":681817,"SoundDuration":681817,"Delta":20818981},{"NoteNumber":49,"Velocity":40,"Duration":319148,"SoundDuration":319148,"Delta":21500799},{"NoteNumber":47,"Velocity":38,"Duration":319148,"SoundDuration":319148,"Delta":21819948},{"NoteNumber":71,"Velocity":40,"Duration":348837,"SoundDuration":348837,"Delta":22139097},{"NoteNumber":83,"Velocity":30,"Duration":1306284,"SoundDuration":1306284,"Delta":22139097},{"NoteNumber":78,"Velocity":30,"Duration":1306284,"SoundDuration":1306284,"Delta":22139097},{"NoteNumber":75,"Velocity":30,"Duration":1306284,"SoundDuration":1306284,"Delta":22139097},{"NoteNumber":69,"Velocity":30,"Duration":1306284,"SoundDuration":1306284,"Delta":22139097},{"NoteNumber":40,"Velocity":33,"Duration":1306284,"SoundDuration":1306284,"Delta":22139097},{"NoteNumber":47,"Velocity":38,"Duration":348837,"SoundDuration":348837,"Delta":22139097},{"NoteNumber":80,"Velocity":42,"Duration":638297,"SoundDuration":638297,"Delta":22487934},{"NoteNumber":56,"Velocity":40,"Duration":638297,"SoundDuration":638297,"Delta":22487934},{"NoteNumber":78,"Velocity":38,"Duration":319148,"SoundDuration":319148,"Delta":23126232},{"NoteNumber":54,"Velocity":36,"Duration":319148,"SoundDuration":319148,"Delta":23126232},{"NoteNumber":68,"Velocity":29,"Duration":1263297,"SoundDuration":1263297,"Delta":23445381},{"NoteNumber":71,"Velocity":29,"Duration":1263297,"SoundDuration":1263297,"Delta":23445381},{"NoteNumber":76,"Velocity":39,"Duration":1263297,"SoundDuration":1263297,"Delta":23445381},{"NoteNumber":40,"Velocity":33,"Duration":1263297,"SoundDuration":1263297,"Delta":23445381},{"NoteNumber":47,"Velocity":38,"Duration":638297,"SoundDuration":638297,"Delta":23445381},{"NoteNumber":49,"Velocity":37,"Duration":312500,"SoundDuration":312500,"Delta":24083679},{"NoteNumber":47,"Velocity":37,"Duration":312500,"SoundDuration":312500,"Delta":24396179},{"NoteNumber":59,"Velocity":40,"Duration":348837,"SoundDuration":348837,"Delta":24708679},{"NoteNumber":57,"Velocity":29,"Duration":1306284,"SoundDuration":1306284,"Delta":24708679},{"NoteNumber":63,"Velocity":29,"Duration":1306284,"SoundDuration":1306284,"Delta":24708679},{"NoteNumber":66,"Velocity":29,"Duration":1306284,"SoundDuration":1306284,"Delta":24708679},{"NoteNumber":71,"Velocity":29,"Duration":1306284,"SoundDuration":1306284,"Delta":24708679},{"NoteNumber":40,"Velocity":33,"Duration":1306284,"SoundDuration":1306284,"Delta":24708679},{"NoteNumber":47,"Velocity":38,"Duration":348837,"SoundDuration":348837,"Delta":24708679},{"NoteNumber":68,"Velocity":40,"Duration":638297,"SoundDuration":638297,"Delta":25057516},{"NoteNumber":56,"Velocity":38,"Duration":638297,"SoundDuration":638297,"Delta":25057516},{"NoteNumber":66,"Velocity":37,"Duration":319148,"SoundDuration":319148,"Delta":25695814},{"NoteNumber":54,"Velocity":35,"Duration":319148,"SoundDuration":319148,"Delta":25695814},{"NoteNumber":56,"Velocity":29,"Duration":1290919,"SoundDuration":1290919,"Delta":26014963},{"NoteNumber":59,"Velocity":29,"Duration":1290919,"SoundDuration":1290919,"Delta":26014963},{"NoteNumber":64,"Velocity":38,"Duration":1290919,"SoundDuration":1290919,"Delta":26014963},{"NoteNumber":40,"Velocity":33,"Duration":1290919,"SoundDuration":1290919,"Delta":26014963},{"NoteNumber":47,"Velocity":38,"Duration":659340,"SoundDuration":659340,"Delta":26014963},{"NoteNumber":49,"Velocity":35,"Duration":315789,"SoundDuration":315789,"Delta":26674304},{"NoteNumber":47,"Velocity":35,"Duration":315789,"SoundDuration":315789,"Delta":26990093},{"NoteNumber":63,"Velocity":29,"Duration":1361445,"SoundDuration":1361445,"Delta":27305883},{"NoteNumber":59,"Velocity":29,"Duration":1361445,"SoundDuration":1361445,"Delta":27305883},{"NoteNumber":54,"Velocity":36,"Duration":361445,"SoundDuration":361445,"Delta":27305883},{"NoteNumber":47,"Velocity":33,"Duration":1361445,"SoundDuration":1361445,"Delta":27305883},{"NoteNumber":42,"Velocity":34,"Duration":361445,"SoundDuration":361445,"Delta":27305883},{"NoteNumber":56,"Velocity":39,"Duration":666666,"SoundDuration":666666,"Delta":27667329},{"NoteNumber":44,"Velocity":36,"Duration":666666,"SoundDuration":666666,"Delta":27667329},{"NoteNumber":54,"Velocity":35,"Duration":333333,"SoundDuration":333333,"Delta":28333995},{"NoteNumber":42,"Velocity":33,"Duration":333333,"SoundDuration":333333,"Delta":28333995},{"NoteNumber":52,"Velocity":36,"Duration":1276740,"SoundDuration":1276740,"Delta":28667328},{"NoteNumber":58,"Velocity":25,"Duration":1276740,"SoundDuration":1276740,"Delta":28667328},{"NoteNumber":61,"Velocity":26,"Duration":645161,"SoundDuration":645161,"Delta":28667328},{"NoteNumber":42,"Velocity":27,"Duration":1276740,"SoundDuration":1276740,"Delta":28667328},{"NoteNumber":63,"Velocity":33,"Duration":315789,"SoundDuration":315789,"Delta":29312490},{"NoteNumber":61,"Velocity":30,"Duration":315789,"SoundDuration":315789,"Delta":29628279},{"NoteNumber":51,"Velocity":27,"Duration":1410603,"SoundDuration":1410603,"Delta":29944069},{"NoteNumber":59,"Velocity":27,"Duration":1410603,"SoundDuration":1410603,"Delta":29944069},{"NoteNumber":30,"Velocity":33,"Duration":361445,"SoundDuration":361445,"Delta":29944069},{"NoteNumber":42,"Velocity":33,"Duration":361445,"SoundDuration":361445,"Delta":29944069},{"NoteNumber":32,"Velocity":33,"Duration":674157,"SoundDuration":674157,"Delta":30305515},{"NoteNumber":44,"Velocity":33,"Duration":674157,"SoundDuration":674157,"Delta":30305515},{"NoteNumber":30,"Velocity":27,"Duration":375000,"SoundDuration":375000,"Delta":30979672},{"NoteNumber":42,"Velocity":27,"Duration":375000,"SoundDuration":375000,"Delta":30979672},{"NoteNumber":71,"Velocity":36,"Duration":1263297,"SoundDuration":1263297,"Delta":31354672},{"NoteNumber":80,"Velocity":36,"Duration":1263297,"SoundDuration":1263297,"Delta":31354672},{"NoteNumber":76,"Velocity":36,"Duration":1263297,"SoundDuration":1263297,"Delta":31354672},{"NoteNumber":83,"Velocity":42,"Duration":1263297,"SoundDuration":1263297,"Delta":31354672},{"NoteNumber":28,"Velocity":36,"Duration":638297,"SoundDuration":638297,"Delta":31354672},{"NoteNumber":40,"Velocity":36,"Duration":638297,"SoundDuration":638297,"Delta":31354672},{"NoteNumber":49,"Velocity":38,"Duration":312499,"SoundDuration":312499,"Delta":31992970},{"NoteNumber":47,"Velocity":36,"Duration":312500,"SoundDuration":312500,"Delta":32305470},{"NoteNumber":71,"Velocity":40,"Duration":348837,"SoundDuration":348837,"Delta":32617970},{"NoteNumber":83,"Velocity":27,"Duration":1306284,"SoundDuration":1306284,"Delta":32617970},{"NoteNumber":78,"Velocity":27,"Duration":1306284,"SoundDuration":1306284,"Delta":32617970},{"NoteNumber":75,"Velocity":27,"Duration":1306284,"SoundDuration":1306284,"Delta":32617970},{"NoteNumber":69,"Velocity":27,"Duration":1306284,"SoundDuration":1306284,"Delta":32617970},{"NoteNumber":40,"Velocity":33,"Duration":1306284,"SoundDuration":1306284,"Delta":32617970},{"NoteNumber":47,"Velocity":34,"Duration":348837,"SoundDuration":348837,"Delta":32617970},{"NoteNumber":80,"Velocity":42,"Duration":638297,"SoundDuration":638297,"Delta":32966807},{"NoteNumber":56,"Velocity":40,"Duration":638297,"SoundDuration":638297,"Delta":32966807},{"NoteNumber":78,"Velocity":38,"Duration":319149,"SoundDuration":319149,"Delta":33605105},{"NoteNumber":54,"Velocity":36,"Duration":319149,"SoundDuration":319149,"Delta":33605105},{"NoteNumber":68,"Velocity":29,"Duration":1263297,"SoundDuration":1263297,"Delta":33924254},{"NoteNumber":71,"Velocity":29,"Duration":1263297,"SoundDuration":1263297,"Delta":33924254},{"NoteNumber":76,"Velocity":39,"Duration":1263297,"SoundDuration":1263297,"Delta":33924254},{"NoteNumber":40,"Velocity":33,"Duration":1263297,"SoundDuration":1263297,"Delta":33924254},{"NoteNumber":47,"Velocity":38,"Duration":638297,"SoundDuration":638297,"Delta":33924254},{"NoteNumber":49,"Velocity":37,"Duration":312500,"SoundDuration":312500,"Delta":34562552},{"NoteNumber":47,"Velocity":36,"Duration":312500,"SoundDuration":312500,"Delta":34875052},{"NoteNumber":59,"Velocity":40,"Duration":348837,"SoundDuration":348837,"Delta":35187552},{"NoteNumber":57,"Velocity":29,"Duration":1306284,"SoundDuration":1306284,"Delta":35187552},{"NoteNumber":63,"Velocity":29,"Duration":1306284,"SoundDuration":1306284,"Delta":35187552},{"NoteNumber":66,"Velocity":29,"Duration":1306284,"SoundDuration":1306284,"Delta":35187552},{"NoteNumber":71,"Velocity":29,"Duration":1306284,"SoundDuration":1306284,"Delta":35187552},{"NoteNumber":40,"Velocity":33,"Duration":1306284,"SoundDuration":1306284,"Delta":35187552},{"NoteNumber":47,"Velocity":38,"Duration":348837,"SoundDuration":348837,"Delta":35187552},{"NoteNumber":68,"Velocity":40,"Duration":638297,"SoundDuration":638297,"Delta":35536390},{"NoteNumber":56,"Velocity":38,"Duration":638297,"SoundDuration":638297,"Delta":35536390},{"NoteNumber":66,"Velocity":37,"Duration":319149,"SoundDuration":319149,"Delta":36174688},{"NoteNumber":54,"Velocity":35,"Duration":319149,"SoundDuration":319149,"Delta":36174688},{"NoteNumber":56,"Velocity":29,"Duration":1290919,"SoundDuration":1290919,"Delta":36493837},{"NoteNumber":59,"Velocity":29,"Duration":1290919,"SoundDuration":1290919,"Delta":36493837},{"NoteNumber":64,"Velocity":38,"Duration":1290919,"SoundDuration":1290919,"Delta":36493837},{"NoteNumber":40,"Velocity":33,"Duration":1290919,"SoundDuration":1290919,"Delta":36493837},{"NoteNumber":47,"Velocity":38,"Duration":659340,"SoundDuration":659340,"Delta":36493837},{"NoteNumber":49,"Velocity":35,"Duration":315789,"SoundDuration":315789,"Delta":37153177},{"NoteNumber":47,"Velocity":35,"Duration":315789,"SoundDuration":315789,"Delta":37468967},{"NoteNumber":63,"Velocity":29,"Duration":1365853,"SoundDuration":1365853,"Delta":37784756},{"NoteNumber":59,"Velocity":29,"Duration":1365853,"SoundDuration":1365853,"Delta":37784756},{"NoteNumber":54,"Velocity":36,"Duration":365853,"SoundDuration":365853,"Delta":37784756},{"NoteNumber":47,"Velocity":33,"Duration":1365853,"SoundDuration":1365853,"Delta":37784756},{"NoteNumber":42,"Velocity":34,"Duration":365853,"SoundDuration":365853,"Delta":37784756},{"NoteNumber":56,"Velocity":39,"Duration":666666,"SoundDuration":666666,"Delta":38150610},{"NoteNumber":44,"Velocity":36,"Duration":666666,"SoundDuration":666666,"Delta":38150610},{"NoteNumber":54,"Velocity":35,"Duration":333333,"SoundDuration":333333,"Delta":38817276},{"NoteNumber":42,"Velocity":33,"Duration":333333,"SoundDuration":333333,"Delta":38817276},{"NoteNumber":52,"Velocity":36,"Duration":1276740,"SoundDuration":1276740,"Delta":39150610},{"NoteNumber":58,"Velocity":25,"Duration":1276740,"SoundDuration":1276740,"Delta":39150610},{"NoteNumber":61,"Velocity":26,"Duration":645161,"SoundDuration":645161,"Delta":39150610},{"NoteNumber":42,"Velocity":27,"Duration":1276740,"SoundDuration":1276740,"Delta":39150610},{"NoteNumber":63,"Velocity":30,"Duration":315789,"SoundDuration":315789,"Delta":39795771},{"NoteNumber":61,"Velocity":28,"Duration":315789,"SoundDuration":315789,"Delta":40111561},{"NoteNumber":51,"Velocity":25,"Duration":1405973,"SoundDuration":1405973,"Delta":40427350},{"NoteNumber":59,"Velocity":25,"Duration":1405973,"SoundDuration":1405973,"Delta":40427350},{"NoteNumber":30,"Velocity":30,"Duration":394736,"SoundDuration":394736,"Delta":40427350},{"NoteNumber":42,"Velocity":30,"Duration":394736,"SoundDuration":394736,"Delta":40427350},{"NoteNumber":32,"Velocity":30,"Duration":674157,"SoundDuration":674157,"Delta":40822087},{"NoteNumber":44,"Velocity":30,"Duration":674157,"SoundDuration":674157,"Delta":40822087},{"NoteNumber":30,"Velocity":23,"Duration":337078,"SoundDuration":337078,"Delta":41496244},{"NoteNumber":42,"Velocity":23,"Duration":337078,"SoundDuration":337078,"Delta":41496244},{"NoteNumber":62,"Velocity":37,"Duration":1253917,"SoundDuration":1253917,"Delta":41833323},{"NoteNumber":59,"Velocity":26,"Duration":3686513,"SoundDuration":3686513,"Delta":41833323},{"NoteNumber":54,"Velocity":26,"Duration":2470215,"SoundDuration":2470215,"Delta":41833323},{"NoteNumber":35,"Velocity":42,"Duration":626958,"SoundDuration":626958,"Delta":41833323},{"NoteNumber":37,"Velocity":35,"Duration":313479,"SoundDuration":313479,"Delta":42460282},{"NoteNumber":35,"Velocity":35,"Duration":313479,"SoundDuration":313479,"Delta":42773762},{"NoteNumber":61,"Velocity":34,"Duration":1216297,"SoundDuration":1216297,"Delta":43087241},{"NoteNumber":30,"Velocity":34,"Duration":304074,"SoundDuration":304074,"Delta":43087241},{"NoteNumber":42,"Velocity":34,"Duration":608148,"SoundDuration":608148,"Delta":43391316},{"NoteNumber":57,"Velocity":32,"Duration":1216298,"SoundDuration":1216298,"Delta":43695390},{"NoteNumber":30,"Velocity":33,"Duration":304074,"SoundDuration":304074,"Delta":43999465},{"NoteNumber":64,"Velocity":37,"Duration":2470216,"SoundDuration":2470216,"Delta":44303539},{"NoteNumber":28,"Velocity":34,"Duration":608149,"SoundDuration":608149,"Delta":44303539},{"NoteNumber":56,"Velocity":32,"Duration":608148,"SoundDuration":608148,"Delta":44911688},{"NoteNumber":30,"Velocity":34,"Duration":304074,"SoundDuration":304074,"Delta":44911688},{"NoteNumber":28,"Velocity":34,"Duration":304074,"SoundDuration":304074,"Delta":45215763},{"NoteNumber":57,"Velocity":31,"Duration":1253917,"SoundDuration":1253917,"Delta":45519837},{"NoteNumber":61,"Velocity":35,"Duration":1253917,"SoundDuration":1253917,"Delta":45519837},{"NoteNumber":33,"Velocity":37,"Duration":313479,"SoundDuration":313479,"Delta":45519837},{"NoteNumber":45,"Velocity":40,"Duration":626958,"SoundDuration":626958,"Delta":45833317},{"NoteNumber":44,"Velocity":37,"Duration":313479,"SoundDuration":313479,"Delta":46460276},{"NoteNumber":61,"Velocity":34,"Duration":3737019,"SoundDuration":3737019,"Delta":46773755},{"NoteNumber":66,"Velocity":38,"Duration":1862066,"SoundDuration":1862066,"Delta":46773755},{"NoteNumber":69,"Velocity":38,"Duration":1253917,"SoundDuration":1253917,"Delta":46773755},{"NoteNumber":42,"Velocity":35,"Duration":626958,"SoundDuration":626958,"Delta":46773755},{"NoteNumber":44,"Velocity":34,"Duration":313479,"SoundDuration":313479,"Delta":47400714},{"NoteNumber":42,"Velocity":34,"Duration":313479,"SoundDuration":313479,"Delta":47714194},{"NoteNumber":68,"Velocity":35,"Duration":1228624,"SoundDuration":1228624,"Delta":48027673},{"NoteNumber":37,"Velocity":30,"Duration":304074,"SoundDuration":304074,"Delta":48027673},{"NoteNumber":49,"Velocity":33,"Duration":614312,"SoundDuration":614312,"Delta":48331748},{"NoteNumber":64,"Velocity":34,"Duration":1874952,"SoundDuration":1874952,"Delta":48635822},{"NoteNumber":37,"Velocity":26,"Duration":310237,"SoundDuration":310237,"Delta":48946060},{"NoteNumber":68,"Velocity":34,"Duration":619014,"SoundDuration":619014,"Delta":49256298},{"NoteNumber":70,"Velocity":44,"Duration":1254476,"SoundDuration":1254476,"Delta":49256298},{"NoteNumber":42,"Velocity":33,"Duration":307696,"SoundDuration":307696,"Delta":49256298},{"NoteNumber":54,"Velocity":37,"Duration":626871,"SoundDuration":626871,"Delta":49563994},{"NoteNumber":66,"Velocity":38,"Duration":1885462,"SoundDuration":1885462,"Delta":49875313},{"NoteNumber":42,"Velocity":34,"Duration":319909,"SoundDuration":319909,"Delta":50190865},{"NoteNumber":63,"Velocity":31,"Duration":1250000,"SoundDuration":1250000,"Delta":50510775},{"NoteNumber":71,"Velocity":38,"Duration":1250000,"SoundDuration":1250000,"Delta":50510775},{"NoteNumber":35,"Velocity":37,"Duration":312500,"SoundDuration":312500,"Delta":50510775},{"NoteNumber":47,"Velocity":41,"Duration":625000,"SoundDuration":625000,"Delta":50823275},{"NoteNumber":47,"Velocity":41,"Duration":312500,"SoundDuration":312500,"Delta":51448275},{"NoteNumber":71,"Velocity":34,"Duration":1250000,"SoundDuration":1250000,"Delta":51760775},{"NoteNumber":64,"Velocity":34,"Duration":1250000,"SoundDuration":1250000,"Delta":51760775},{"NoteNumber":48,"Velocity":31,"Duration":2510080,"SoundDuration":2510080,"Delta":51760775},{"NoteNumber":59,"Velocity":48,"Duration":625000,"SoundDuration":625000,"Delta":51760775},{"NoteNumber":60,"Velocity":46,"Duration":312500,"SoundDuration":312500,"Delta":52385775},{"NoteNumber":59,"Velocity":45,"Duration":312500,"SoundDuration":312500,"Delta":52698275},{"NoteNumber":64,"Velocity":29,"Duration":1260080,"SoundDuration":1260080,"Delta":53010775},{"NoteNumber":69,"Velocity":29,"Duration":1260080,"SoundDuration":1260080,"Delta":53010775},{"NoteNumber":59,"Velocity":48,"Duration":322580,"SoundDuration":322580,"Delta":53010775},{"NoteNumber":62,"Velocity":50,"Duration":625000,"SoundDuration":625000,"Delta":53333355},{"NoteNumber":60,"Velocity":44,"Duration":312500,"SoundDuration":312500,"Delta":53958355},{"NoteNumber":66,"Velocity":29,"Duration":1250000,"SoundDuration":1250000,"Delta":54270855},{"NoteNumber":60,"Velocity":46,"Duration":625000,"SoundDuration":625000,"Delta":54270855},{"NoteNumber":59,"Velocity":34,"Duration":625000,"SoundDuration":625000,"Delta":54270855},{"NoteNumber":50,"Velocity":29,"Duration":1250000,"SoundDuration":1250000,"Delta":54270855},{"NoteNumber":62,"Velocity":45,"Duration":312500,"SoundDuration":312500,"Delta":54895855},{"NoteNumber":57,"Velocity":29,"Duration":625000,"SoundDuration":625000,"Delta":54895855},{"NoteNumber":60,"Velocity":42,"Duration":312500,"SoundDuration":312500,"Delta":55208355},{"NoteNumber":67,"Velocity":29,"Duration":1341829,"SoundDuration":1341829,"Delta":55520855},{"NoteNumber":59,"Velocity":39,"Duration":326087,"SoundDuration":326087,"Delta":55520855},{"NoteNumber":55,"Velocity":33,"Duration":1341829,"SoundDuration":1341829,"Delta":55520855},{"NoteNumber":64,"Velocity":37,"Duration":689655,"SoundDuration":689655,"Delta":55846942},{"NoteNumber":60,"Velocity":37,"Duration":689655,"SoundDuration":689655,"Delta":55846942},{"NoteNumber":62,"Velocity":34,"Duration":312500,"SoundDuration":312500,"Delta":56536597},{"NoteNumber":59,"Velocity":34,"Duration":326087,"SoundDuration":326087,"Delta":56536597},{"NoteNumber":71,"Velocity":28,"Duration":1263157,"SoundDuration":1263157,"Delta":56862684},{"NoteNumber":64,"Velocity":28,"Duration":1263157,"SoundDuration":1263157,"Delta":56862684},{"NoteNumber":48,"Velocity":29,"Duration":2557683,"SoundDuration":2557683,"Delta":56862684},{"NoteNumber":59,"Velocity":39,"Duration":631579,"SoundDuration":631579,"Delta":56862684},{"NoteNumber":60,"Velocity":33,"Duration":315789,"SoundDuration":315789,"Delta":57494263},{"NoteNumber":59,"Velocity":33,"Duration":315789,"SoundDuration":315789,"Delta":57810053},{"NoteNumber":64,"Velocity":26,"Duration":1294525,"SoundDuration":1294525,"Delta":58125842},{"NoteNumber":69,"Velocity":26,"Duration":1294525,"SoundDuration":1294525,"Delta":58125842},{"NoteNumber":59,"Velocity":36,"Duration":337078,"SoundDuration":337078,"Delta":58125842},{"NoteNumber":62,"Velocity":38,"Duration":638297,"SoundDuration":638297,"Delta":58462921},{"NoteNumber":60,"Velocity":33,"Duration":319149,"SoundDuration":319149,"Delta":59101219},{"NoteNumber":66,"Velocity":24,"Duration":1365223,"SoundDuration":1365223,"Delta":59420368},{"NoteNumber":60,"Velocity":36,"Duration":659340,"SoundDuration":659340,"Delta":59420368},{"NoteNumber":59,"Velocity":29,"Duration":659340,"SoundDuration":659340,"Delta":59420368},{"NoteNumber":50,"Velocity":24,"Duration":1365223,"SoundDuration":1365223,"Delta":59420368},{"NoteNumber":62,"Velocity":35,"Duration":352941,"SoundDuration":352941,"Delta":60079709},{"NoteNumber":57,"Velocity":26,"Duration":705882,"SoundDuration":705882,"Delta":60079709},{"NoteNumber":60,"Velocity":34,"Duration":352941,"SoundDuration":352941,"Delta":60432650},{"NoteNumber":71,"Velocity":26,"Duration":1670329,"SoundDuration":1670329,"Delta":60785591},{"NoteNumber":59,"Velocity":30,"Duration":384615,"SoundDuration":384615,"Delta":60785591},{"NoteNumber":55,"Velocity":26,"Duration":384615,"SoundDuration":384615,"Delta":60785591},{"NoteNumber":51,"Velocity":29,"Duration":1670329,"SoundDuration":1670329,"Delta":60785591},{"NoteNumber":67,"Velocity":29,"Duration":857143,"SoundDuration":857143,"Delta":61170207},{"NoteNumber":59,"Velocity":29,"Duration":857143,"SoundDuration":857143,"Delta":61170207},{"NoteNumber":66,"Velocity":26,"Duration":410714,"SoundDuration":410714,"Delta":62027350},{"NoteNumber":57,"Velocity":26,"Duration":428571,"SoundDuration":428571,"Delta":62027350},{"NoteNumber":52,"Velocity":31,"Duration":1304347,"SoundDuration":1304347,"Delta":62455921},{"NoteNumber":55,"Velocity":31,"Duration":652174,"SoundDuration":652174,"Delta":62455921},{"NoteNumber":60,"Velocity":40,"Duration":326086,"SoundDuration":326086,"Delta":63108095},{"NoteNumber":59,"Velocity":40,"Duration":326087,"SoundDuration":326087,"Delta":63434182},{"NoteNumber":71,"Velocity":42,"Duration":930851,"SoundDuration":930851,"Delta":63760269},{"NoteNumber":51,"Velocity":27,"Duration":1276595,"SoundDuration":1276595,"Delta":63760269},{"NoteNumber":54,"Velocity":27,"Duration":1276595,"SoundDuration":1276595,"Delta":63760269},{"NoteNumber":59,"Velocity":42,"Duration":319148,"SoundDuration":319148,"Delta":63760269},{"NoteNumber":66,"Velocity":37,"Duration":957447,"SoundDuration":957447,"Delta":64079418},{"NoteNumber":78,"Velocity":37,"Duration":319148,"SoundDuration":319148,"Delta":64398567},{"NoteNumber":71,"Velocity":33,"Duration":319148,"SoundDuration":319148,"Delta":64717716},{"NoteNumber":71,"Velocity":42,"Duration":1276595,"SoundDuration":1276595,"Delta":65036865},{"NoteNumber":52,"Velocity":30,"Duration":1276595,"SoundDuration":1276595,"Delta":65036865},{"NoteNumber":55,"Velocity":30,"Duration":1276595,"SoundDuration":1276595,"Delta":65036865},{"NoteNumber":59,"Velocity":42,"Duration":638298,"SoundDuration":638298,"Delta":65036865},{"NoteNumber":79,"Velocity":41,"Duration":957447,"SoundDuration":957447,"Delta":65356014},{"NoteNumber":60,"Velocity":42,"Duration":319148,"SoundDuration":319148,"Delta":65675163},{"NoteNumber":59,"Velocity":42,"Duration":319148,"SoundDuration":319148,"Delta":65994312},{"NoteNumber":71,"Velocity":38,"Duration":930851,"SoundDuration":930851,"Delta":66313461},{"NoteNumber":51,"Velocity":24,"Duration":1276595,"SoundDuration":1276595,"Delta":66313461},{"NoteNumber":54,"Velocity":24,"Duration":1276595,"SoundDuration":1276595,"Delta":66313461},{"NoteNumber":59,"Velocity":40,"Duration":319149,"SoundDuration":319149,"Delta":66313461},{"NoteNumber":66,"Velocity":33,"Duration":957446,"SoundDuration":957446,"Delta":66632610},{"NoteNumber":78,"Velocity":33,"Duration":319148,"SoundDuration":319148,"Delta":66951759},{"NoteNumber":71,"Velocity":25,"Duration":319148,"SoundDuration":319148,"Delta":67270908},{"NoteNumber":71,"Velocity":40,"Duration":1318840,"SoundDuration":1318840,"Delta":67590057},{"NoteNumber":52,"Velocity":28,"Duration":1318840,"SoundDuration":1318840,"Delta":67590057},{"NoteNumber":55,"Velocity":28,"Duration":1318840,"SoundDuration":1318840,"Delta":67590057},{"NoteNumber":59,"Velocity":38,"Duration":652174,"SoundDuration":652174,"Delta":67590057},{"NoteNumber":83,"Velocity":41,"Duration":992753,"SoundDuration":992753,"Delta":67916144},{"NoteNumber":60,"Velocity":38,"Duration":333333,"SoundDuration":333333,"Delta":68242231},{"NoteNumber":59,"Velocity":37,"Duration":333333,"SoundDuration":333333,"Delta":68575564},{"NoteNumber":72,"Velocity":37,"Duration":995883,"SoundDuration":995883,"Delta":68908898},{"NoteNumber":57,"Velocity":23,"Duration":1373790,"SoundDuration":1373790,"Delta":68908898},{"NoteNumber":60,"Velocity":37,"Duration":329670,"SoundDuration":329670,"Delta":68908898},{"NoteNumber":71,"Velocity":32,"Duration":1044120,"SoundDuration":1044120,"Delta":69238568},{"NoteNumber":83,"Velocity":29,"Duration":354374,"SoundDuration":354374,"Delta":69579477},{"NoteNumber":72,"Velocity":24,"Duration":348837,"SoundDuration":348837,"Delta":69933851},{"NoteNumber":72,"Velocity":27,"Duration":1357015,"SoundDuration":1357015,"Delta":70282688},{"NoteNumber":50,"Velocity":23,"Duration":1357015,"SoundDuration":1357015,"Delta":70282688},{"NoteNumber":54,"Velocity":23,"Duration":1357015,"SoundDuration":1357015,"Delta":70282688},{"NoteNumber":60,"Velocity":32,"Duration":697674,"SoundDuration":697674,"Delta":70282688},{"NoteNumber":81,"Velocity":28,"Duration":1008177,"SoundDuration":1008177,"Delta":70631526},{"NoteNumber":62,"Velocity":29,"Duration":329670,"SoundDuration":329670,"Delta":70980363},{"NoteNumber":60,"Velocity":29,"Duration":329670,"SoundDuration":329670,"Delta":71310033},{"NoteNumber":71,"Velocity":33,"Duration":1017241,"SoundDuration":1017241,"Delta":71639703},{"NoteNumber":55,"Velocity":22,"Duration":1404504,"SoundDuration":1404504,"Delta":71639703},{"NoteNumber":59,"Velocity":31,"Duration":337078,"SoundDuration":337078,"Delta":71639703},{"NoteNumber":69,"Velocity":31,"Duration":1067425,"SoundDuration":1067425,"Delta":71976782},{"NoteNumber":81,"Velocity":26,"Duration":361445,"SoundDuration":361445,"Delta":72325619},{"NoteNumber":71,"Velocity":22,"Duration":357142,"SoundDuration":357142,"Delta":72687065},{"NoteNumber":71,"Velocity":26,"Duration":1443735,"SoundDuration":1443735,"Delta":73044208},{"NoteNumber":48,"Velocity":22,"Duration":1443735,"SoundDuration":1443735,"Delta":73044208},{"NoteNumber":52,"Velocity":22,"Duration":1443735,"SoundDuration":1443735,"Delta":73044208},{"NoteNumber":59,"Velocity":31,"Duration":697674,"SoundDuration":697674,"Delta":73044208},{"NoteNumber":79,"Velocity":26,"Duration":1094898,"SoundDuration":1094898,"Delta":73393045},{"NoteNumber":60,"Velocity":28,"Duration":361445,"SoundDuration":361445,"Delta":73741882},{"NoteNumber":59,"Velocity":28,"Duration":384615,"SoundDuration":384615,"Delta":74103328},{"NoteNumber":69,"Velocity":32,"Duration":1094607,"SoundDuration":1094607,"Delta":74487944},{"NoteNumber":54,"Velocity":22,"Duration":1517551,"SoundDuration":1517551,"Delta":74487944},{"NoteNumber":57,"Velocity":30,"Duration":352941,"SoundDuration":352941,"Delta":74487944},{"NoteNumber":67,"Velocity":28,"Duration":1164610,"SoundDuration":1164610,"Delta":74840885},{"NoteNumber":79,"Velocity":25,"Duration":400000,"SoundDuration":400000,"Delta":75215885},{"NoteNumber":69,"Velocity":21,"Duration":389610,"SoundDuration":389610,"Delta":75615885},{"NoteNumber":69,"Velocity":25,"Duration":2146149,"SoundDuration":2146149,"Delta":76005495},{"NoteNumber":47,"Velocity":21,"Duration":2146149,"SoundDuration":2146149,"Delta":76005495},{"NoteNumber":51,"Velocity":21,"Duration":2146149,"SoundDuration":2146149,"Delta":76005495},{"NoteNumber":57,"Velocity":27,"Duration":795574,"SoundDuration":795574,"Delta":76005495},{"NoteNumber":78,"Velocity":26,"Duration":1761533,"SoundDuration":1761533,"Delta":76390111},{"NoteNumber":59,"Velocity":25,"Duration":517241,"SoundDuration":517241,"Delta":76801070},{"NoteNumber":57,"Velocity":24,"Duration":5939717,"SoundDuration":5939717,"Delta":77318311},{"NoteNumber":69,"Velocity":20,"Duration":5106384,"SoundDuration":5106384,"Delta":78151645},{"NoteNumber":76,"Velocity":20,"Duration":5106384,"SoundDuration":5106384,"Delta":78151645},{"NoteNumber":60,"Velocity":20,"Duration":5106384,"SoundDuration":5106384,"Delta":78151645},{"NoteNumber":52,"Velocity":20,"Duration":5106384,"SoundDuration":5106384,"Delta":78151645},{"NoteNumber":45,"Velocity":14,"Duration":1276596,"SoundDuration":1276596,"Delta":81981433}]}