{"title":"Klaviersonate KV 545 3. Satz","artist":"Piano","durationMs":103609,"midiSha256":"341329824417591e9330ea39a78d0fc2c17d259267899b953dc634f9bc8f53ba","midiObject":[{"NoteNumber":76,"Velocity":42,"Duration":80984,"SoundDuration":80984,"Delta":0},{"NoteNumber":79,"Velocity":50,"Duration":80984,"SoundDuration":80984,"Delta":0},{"NoteNumber":76,"Velocity":36,"Duration":80984,"SoundDuration":80984,"Delta":323939},{"NoteNumber":79,"Velocity":43,"Duration":80984,"SoundDuration":80984,"Delta":323939},{"NoteNumber":72,"Velocity":40,"Duration":233960,"SoundDuration":233960,"Delta":647878},{"NoteNumber":76,"Velocity":48,"Duration":233960,"SoundDuration":233960,"Delta":647878},{"NoteNumber":60,"Velocity":36,"Duration":77986,"SoundDuration":77986,"Delta":647878},{"NoteNumber":57,"Velocity":30,"Duration":77986,"SoundDuration":77986,"Delta":647878},{"NoteNumber":60,"Velocity":34,"Duration":81433,"SoundDuration":81433,"Delta":959825},{"NoteNumber":57,"Velocity":28,"Duration":81433,"SoundDuration":81433,"Delta":959825},{"NoteNumber":74,"Velocity":42,"Duration":77575,"SoundDuration":77575,"Delta":1285558},{"NoteNumber":77,"Velocity":50,"Duration":77575,"SoundDuration":77575,"Delta":1285558},{"NoteNumber":57,"Velocity":29,"Duration":155151,"SoundDuration":155151,"Delta":1285558},{"NoteNumber":53,"Velocity":24,"Duration":155151,"SoundDuration":155151,"Delta":1285558},{"NoteNumber":74,"Velocity":37,"Duration":78822,"SoundDuration":78822,"Delta":1595860},{"NoteNumber":77,"Velocity":44,"Duration":78822,"SoundDuration":78822,"Delta":1595860},{"NoteNumber":71,"Velocity":41,"Duration":232726,"SoundDuration":232726,"Delta":1911152},{"NoteNumber":74,"Velocity":49,"Duration":232726,"SoundDuration":232726,"Delta":1911152},{"NoteNumber":55,"Velocity":34,"Duration":77575,"SoundDuration":77575,"Delta":1911152},{"NoteNumber":59,"Velocity":40,"Duration":77575,"SoundDuration":77575,"Delta":1911152},{"NoteNumber":55,"Velocity":28,"Duration":80549,"SoundDuration":80549,"Delta":2221454},{"NoteNumber":59,"Velocity":33,"Duration":80549,"SoundDuration":80549,"Delta":2221454},{"NoteNumber":72,"Velocity":54,"Duration":169770,"SoundDuration":169770,"Delta":2543653},{"NoteNumber":52,"Velocity":32,"Duration":154336,"SoundDuration":154336,"Delta":2543653},{"NoteNumber":55,"Velocity":38,"Duration":154336,"SoundDuration":154336,"Delta":2543653},{"NoteNumber":74,"Velocity":49,"Duration":169454,"SoundDuration":169454,"Delta":2697990},{"NoteNumber":76,"Velocity":53,"Duration":166297,"SoundDuration":166297,"Delta":2852327},{"NoteNumber":72,"Velocity":49,"Duration":166454,"SoundDuration":166454,"Delta":3003506},{"NoteNumber":69,"Velocity":55,"Duration":168024,"SoundDuration":168024,"Delta":3154685},{"NoteNumber":53,"Velocity":42,"Duration":911810,"SoundDuration":911810,"Delta":3154685},{"NoteNumber":71,"Velocity":57,"Duration":167790,"SoundDuration":167790,"Delta":3307435},{"NoteNumber":72,"Velocity":60,"Duration":165446,"SoundDuration":165446,"Delta":3460184},{"NoteNumber":73,"Velocity":63,"Duration":165680,"SoundDuration":165680,"Delta":3610590},{"NoteNumber":74,"Velocity":66,"Duration":168024,"SoundDuration":168024,"Delta":3760996},{"NoteNumber":76,"Velocity":59,"Duration":168024,"SoundDuration":168024,"Delta":3913745},{"NoteNumber":77,"Velocity":66,"Duration":168024,"SoundDuration":168024,"Delta":4066495},{"NoteNumber":50,"Velocity":38,"Duration":305499,"SoundDuration":305499,"Delta":4066495},{"NoteNumber":74,"Velocity":60,"Duration":168024,"SoundDuration":168024,"Delta":4219244},{"NoteNumber":72,"Velocity":64,"Duration":168024,"SoundDuration":168024,"Delta":4371994},{"NoteNumber":55,"Velocity":44,"Duration":305499,"SoundDuration":305499,"Delta":4371994},{"NoteNumber":71,"Velocity":59,"Duration":168599,"SoundDuration":168599,"Delta":4524744},{"NoteNumber":69,"Velocity":53,"Duration":174344,"SoundDuration":174344,"Delta":4677493},{"NoteNumber":67,"Velocity":48,"Duration":158495,"SoundDuration":158495,"Delta":4835988},{"NoteNumber":76,"Velocity":59,"Duration":79677,"SoundDuration":79677,"Delta":4994484},{"NoteNumber":79,"Velocity":59,"Duration":79677,"SoundDuration":79677,"Delta":4994484},{"NoteNumber":76,"Velocity":48,"Duration":79677,"SoundDuration":79677,"Delta":5313192},{"NoteNumber":79,"Velocity":48,"Duration":79677,"SoundDuration":79677,"Delta":5313192},{"NoteNumber":72,"Velocity":59,"Duration":232726,"SoundDuration":232726,"Delta":5631900},{"NoteNumber":76,"Velocity":59,"Duration":232726,"SoundDuration":232726,"Delta":5631900},{"NoteNumber":60,"Velocity":36,"Duration":77575,"SoundDuration":77575,"Delta":5631900},{"NoteNumber":57,"Velocity":30,"Duration":77575,"SoundDuration":77575,"Delta":5631900},{"NoteNumber":60,"Velocity":34,"Duration":79677,"SoundDuration":79677,"Delta":5942202},{"NoteNumber":57,"Velocity":28,"Duration":79677,"SoundDuration":79677,"Delta":5942202},{"NoteNumber":77,"Velocity":63,"Duration":78402,"SoundDuration":78402,"Delta":6260910},{"NoteNumber":81,"Velocity":63,"Duration":78402,"SoundDuration":78402,"Delta":6260910},{"NoteNumber":53,"Velocity":29,"Duration":156805,"SoundDuration":156805,"Delta":6260910},{"NoteNumber":50,"Velocity":24,"Duration":156805,"SoundDuration":156805,"Delta":6260910},{"NoteNumber":77,"Velocity":55,"Duration":78402,"SoundDuration":78402,"Delta":6574520},{"NoteNumber":81,"Velocity":55,"Duration":78402,"SoundDuration":78402,"Delta":6574520},{"NoteNumber":71,"Velocity":63,"Duration":235207,"SoundDuration":235207,"Delta":6888131},{"NoteNumber":74,"Velocity":63,"Duration":235207,"SoundDuration":235207,"Delta":6888131},{"NoteNumber":55,"Velocity":39,"Duration":78402,"SoundDuration":78402,"Delta":6888131},{"NoteNumber":59,"Velocity":46,"Duration":78402,"SoundDuration":78402,"Delta":6888131},{"NoteNumber":55,"Velocity":31,"Duration":80984,"SoundDuration":80984,"Delta":7201741},{"NoteNumber":59,"Velocity":37,"Duration":80984,"SoundDuration":80984,"Delta":7201741},{"NoteNumber":81,"Velocity":70,"Duration":171488,"SoundDuration":171488,"Delta":7525680},{"NoteNumber":48,"Velocity":37,"Duration":155973,"SoundDuration":155973,"Delta":7525680},{"NoteNumber":52,"Velocity":44,"Duration":155973,"SoundDuration":155973,"Delta":7525680},{"NoteNumber":79,"Velocity":68,"Duration":170425,"SoundDuration":170425,"Delta":7681654},{"NoteNumber":77,"Velocity":65,"Duration":168024,"SoundDuration":168024,"Delta":7836805},{"NoteNumber":76,"Velocity":63,"Duration":153000,"SoundDuration":153000,"Delta":7989554},{"NoteNumber":73,"Velocity":60,"Duration":169283,"SoundDuration":169283,"Delta":8142555},{"NoteNumber":57,"Velocity":42,"Duration":919049,"SoundDuration":919049,"Delta":8142555},{"NoteNumber":53,"Velocity":35,"Duration":919049,"SoundDuration":919049,"Delta":8142555},{"NoteNumber":74,"Velocity":62,"Duration":167722,"SoundDuration":167722,"Delta":8296484},{"NoteNumber":76,"Velocity":66,"Duration":167156,"SoundDuration":167156,"Delta":8449011},{"NoteNumber":77,"Velocity":58,"Duration":151960,"SoundDuration":151960,"Delta":8600971},{"NoteNumber":69,"Velocity":60,"Duration":154336,"SoundDuration":154336,"Delta":8752931},{"NoteNumber":72,"Velocity":52,"Duration":154336,"SoundDuration":154336,"Delta":8907268},{"NoteNumber":71,"Velocity":58,"Duration":154336,"SoundDuration":154336,"Delta":9061605},{"NoteNumber":65,"Velocity":43,"Duration":313690,"SoundDuration":313690,"Delta":9061605},{"NoteNumber":55,"Velocity":36,"Duration":313690,"SoundDuration":313690,"Delta":9061605},{"NoteNumber":74,"Velocity":50,"Duration":159354,"SoundDuration":159354,"Delta":9215941},{"NoteNumber":72,"Velocity":56,"Duration":325732,"SoundDuration":325732,"Delta":9375295},{"NoteNumber":64,"Velocity":51,"Duration":325732,"SoundDuration":325732,"Delta":9375295},{"NoteNumber":60,"Velocity":43,"Duration":325732,"SoundDuration":325732,"Delta":9375295},{"NoteNumber":48,"Velocity":47,"Duration":175479,"SoundDuration":175479,"Delta":9701028},{"NoteNumber":76,"Velocity":42,"Duration":80984,"SoundDuration":80984,"Delta":10051988},{"NoteNumber":79,"Velocity":50,"Duration":80984,"SoundDuration":80984,"Delta":10051988},{"NoteNumber":76,"Velocity":36,"Duration":80984,"SoundDuration":80984,"Delta":10375927},{"NoteNumber":79,"Velocity":43,"Duration":80984,"SoundDuration":80984,"Delta":10375927},{"NoteNumber":72,"Velocity":40,"Duration":233960,"SoundDuration":233960,"Delta":10699866},{"NoteNumber":76,"Velocity":48,"Duration":233960,"SoundDuration":233960,"Delta":10699866},{"NoteNumber":60,"Velocity":36,"Duration":77986,"SoundDuration":77986,"Delta":10699866},{"NoteNumber":57,"Velocity":30,"Duration":77986,"SoundDuration":77986,"Delta":10699866},{"NoteNumber":60,"Velocity":34,"Duration":81433,"SoundDuration":81433,"Delta":11011813},{"NoteNumber":57,"Velocity":28,"Duration":81433,"SoundDuration":81433,"Delta":11011813},{"NoteNumber":74,"Velocity":42,"Duration":77575,"SoundDuration":77575,"Delta":11337546},{"NoteNumber":77,"Velocity":50,"Duration":77575,"SoundDuration":77575,"Delta":11337546},{"NoteNumber":57,"Velocity":29,"Duration":155151,"SoundDuration":155151,"Delta":11337546},{"NoteNumber":53,"Velocity":24,"Duration":155151,"SoundDuration":155151,"Delta":11337546},{"NoteNumber":74,"Velocity":37,"Duration":78822,"SoundDuration":78822,"Delta":11647848},{"NoteNumber":77,"Velocity":44,"Duration":78822,"SoundDuration":78822,"Delta":11647848},{"NoteNumber":71,"Velocity":41,"Duration":232726,"SoundDuration":232726,"Delta":11963140},{"NoteNumber":74,"Velocity":49,"Duration":232726,"SoundDuration":232726,"Delta":11963140},{"NoteNumber":55,"Velocity":34,"Duration":77575,"SoundDuration":77575,"Delta":11963140},{"NoteNumber":59,"Velocity":40,"Duration":77575,"SoundDuration":77575,"Delta":11963140},{"NoteNumber":55,"Velocity":28,"Duration":80549,"SoundDuration":80549,"Delta":12273442},{"NoteNumber":59,"Velocity":33,"Duration":80549,"SoundDuration":80549,"Delta":12273442},{"NoteNumber":72,"Velocity":55,"Duration":171571,"SoundDuration":171571,"Delta":12595641},{"NoteNumber":52,"Velocity":32,"Duration":155973,"SoundDuration":155973,"Delta":12595641},{"NoteNumber":55,"Velocity":38,"Duration":155973,"SoundDuration":155973,"Delta":12595641},{"NoteNumber":74,"Velocity":49,"Duration":171248,"SoundDuration":171248,"Delta":12751615},{"NoteNumber":76,"Velocity":54,"Duration":168024,"SoundDuration":168024,"Delta":12907589},{"NoteNumber":72,"Velocity":49,"Duration":168024,"SoundDuration":168024,"Delta":13060338},{"NoteNumber":69,"Velocity":51,"Duration":168024,"SoundDuration":168024,"Delta":13213088},{"NoteNumber":53,"Velocity":42,"Duration":915450,"SoundDuration":915450,"Delta":13213088},{"NoteNumber":71,"Velocity":55,"Duration":168024,"SoundDuration":168024,"Delta":13365837},{"NoteNumber":72,"Velocity":59,"Duration":168024,"SoundDuration":168024,"Delta":13518587},{"NoteNumber":73,"Velocity":62,"Duration":168024,"SoundDuration":168024,"Delta":13671336},{"NoteNumber":74,"Velocity":66,"Duration":168024,"SoundDuration":168024,"Delta":13824086},{"NoteNumber":76,"Velocity":60,"Duration":166820,"SoundDuration":166820,"Delta":13976835},{"NoteNumber":77,"Velocity":65,"Duration":166297,"SoundDuration":166297,"Delta":14128538},{"NoteNumber":50,"Velocity":38,"Duration":302358,"SoundDuration":302358,"Delta":14128538},{"NoteNumber":74,"Velocity":63,"Duration":166454,"SoundDuration":166454,"Delta":14279717},{"NoteNumber":72,"Velocity":60,"Duration":168024,"SoundDuration":168024,"Delta":14430897},{"NoteNumber":55,"Velocity":44,"Duration":305498,"SoundDuration":305498,"Delta":14430897},{"NoteNumber":71,"Velocity":57,"Duration":168599,"SoundDuration":168599,"Delta":14583646},{"NoteNumber":69,"Velocity":54,"Duration":174344,"SoundDuration":174344,"Delta":14736396},{"NoteNumber":67,"Velocity":49,"Duration":158495,"SoundDuration":158495,"Delta":14894891},{"NoteNumber":76,"Velocity":56,"Duration":79677,"SoundDuration":79677,"Delta":15053386},{"NoteNumber":79,"Velocity":56,"Duration":79677,"SoundDuration":79677,"Delta":15053386},{"NoteNumber":76,"Velocity":49,"Duration":79677,"SoundDuration":79677,"Delta":15372094},{"NoteNumber":79,"Velocity":49,"Duration":79677,"SoundDuration":79677,"Delta":15372094},{"NoteNumber":72,"Velocity":55,"Duration":232726,"SoundDuration":232726,"Delta":15690802},{"NoteNumber":76,"Velocity":55,"Duration":232726,"SoundDuration":232726,"Delta":15690802},{"NoteNumber":60,"Velocity":36,"Duration":77575,"SoundDuration":77575,"Delta":15690802},{"NoteNumber":57,"Velocity":30,"Duration":77575,"SoundDuration":77575,"Delta":15690802},{"NoteNumber":60,"Velocity":34,"Duration":79677,"SoundDuration":79677,"Delta":16001104},{"NoteNumber":57,"Velocity":28,"Duration":79677,"SoundDuration":79677,"Delta":16001104},{"NoteNumber":77,"Velocity":66,"Duration":78402,"SoundDuration":78402,"Delta":16319812},{"NoteNumber":81,"Velocity":66,"Duration":78402,"SoundDuration":78402,"Delta":16319812},{"NoteNumber":53,"Velocity":29,"Duration":156805,"SoundDuration":156805,"Delta":16319812},{"NoteNumber":50,"Velocity":24,"Duration":156805,"SoundDuration":156805,"Delta":16319812},{"NoteNumber":77,"Velocity":57,"Duration":78402,"SoundDuration":78402,"Delta":16633423},{"NoteNumber":81,"Velocity":57,"Duration":78402,"SoundDuration":78402,"Delta":16633423},{"NoteNumber":71,"Velocity":63,"Duration":235207,"SoundDuration":235207,"Delta":16947033},{"NoteNumber":74,"Velocity":63,"Duration":235207,"SoundDuration":235207,"Delta":16947033},{"NoteNumber":55,"Velocity":39,"Duration":78402,"SoundDuration":78402,"Delta":16947033},{"NoteNumber":59,"Velocity":46,"Duration":78402,"SoundDuration":78402,"Delta":16947033},{"NoteNumber":55,"Velocity":31,"Duration":80984,"SoundDuration":80984,"Delta":17260644},{"NoteNumber":59,"Velocity":37,"Duration":80984,"SoundDuration":80984,"Delta":17260644},{"NoteNumber":81,"Velocity":68,"Duration":171571,"SoundDuration":171571,"Delta":17584583},{"NoteNumber":48,"Velocity":37,"Duration":155973,"SoundDuration":155973,"Delta":17584583},{"NoteNumber":52,"Velocity":44,"Duration":155973,"SoundDuration":155973,"Delta":17584583},{"NoteNumber":79,"Velocity":65,"Duration":171571,"SoundDuration":171571,"Delta":17740556},{"NoteNumber":77,"Velocity":63,"Duration":171571,"SoundDuration":171571,"Delta":17896530},{"NoteNumber":76,"Velocity":61,"Duration":155973,"SoundDuration":155973,"Delta":18052504},{"NoteNumber":73,"Velocity":56,"Duration":169770,"SoundDuration":169770,"Delta":18208478},{"NoteNumber":57,"Velocity":42,"Duration":924541,"SoundDuration":924541,"Delta":18208478},{"NoteNumber":53,"Velocity":35,"Duration":924541,"SoundDuration":924541,"Delta":18208478},{"NoteNumber":74,"Velocity":58,"Duration":169532,"SoundDuration":169532,"Delta":18362814},{"NoteNumber":76,"Velocity":59,"Duration":167156,"SoundDuration":167156,"Delta":18517151},{"NoteNumber":77,"Velocity":56,"Duration":151960,"SoundDuration":151960,"Delta":18669111},{"NoteNumber":69,"Velocity":60,"Duration":155973,"SoundDuration":155973,"Delta":18821072},{"NoteNumber":72,"Velocity":52,"Duration":155973,"SoundDuration":155973,"Delta":18977045},{"NoteNumber":71,"Velocity":58,"Duration":155973,"SoundDuration":155973,"Delta":19133019},{"NoteNumber":65,"Velocity":43,"Duration":311947,"SoundDuration":311947,"Delta":19133019},{"NoteNumber":55,"Velocity":36,"Duration":311947,"SoundDuration":311947,"Delta":19133019},{"NoteNumber":74,"Velocity":50,"Duration":155973,"SoundDuration":155973,"Delta":19288993},{"NoteNumber":72,"Velocity":56,"Duration":325732,"SoundDuration":325732,"Delta":19444967},{"NoteNumber":64,"Velocity":51,"Duration":325732,"SoundDuration":325732,"Delta":19444967},{"NoteNumber":60,"Velocity":43,"Duration":325732,"SoundDuration":325732,"Delta":19444967},{"NoteNumber":48,"Velocity":47,"Duration":162866,"SoundDuration":162866,"Delta":19770700},{"NoteNumber":76,"Velocity":61,"Duration":166987,"SoundDuration":166987,"Delta":20095615},{"NoteNumber":60,"Velocity":40,"Duration":166987,"SoundDuration":166987,"Delta":20095615},{"NoteNumber":78,"Velocity":56,"Duration":166097,"SoundDuration":166097,"Delta":20247484},{"NoteNumber":67,"Velocity":36,"Duration":166097,"SoundDuration":166097,"Delta":20247484},{"NoteNumber":79,"Velocity":53,"Duration":75202,"SoundDuration":75202,"Delta":20398541},{"NoteNumber":64,"Velocity":36,"Duration":167156,"SoundDuration":167156,"Delta":20398541},{"NoteNumber":79,"Velocity":53,"Duration":83752,"SoundDuration":83752,"Delta":20548947},{"NoteNumber":67,"Velocity":36,"Duration":167504,"SoundDuration":167504,"Delta":20548947},{"NoteNumber":81,"Velocity":62,"Duration":166297,"SoundDuration":166297,"Delta":20716451},{"NoteNumber":59,"Velocity":40,"Duration":166297,"SoundDuration":166297,"Delta":20716451},{"NoteNumber":79,"Velocity":58,"Duration":166297,"SoundDuration":166297,"Delta":20867630},{"NoteNumber":67,"Velocity":35,"Duration":166297,"SoundDuration":166297,"Delta":20867630},{"NoteNumber":78,"Velocity":56,"Duration":167834,"SoundDuration":167834,"Delta":21018809},{"NoteNumber":62,"Velocity":35,"Duration":167834,"SoundDuration":167834,"Delta":21018809},{"NoteNumber":76,"Velocity":55,"Duration":166555,"SoundDuration":166555,"Delta":21169989},{"NoteNumber":67,"Velocity":35,"Duration":166555,"SoundDuration":166555,"Delta":21169989},{"NoteNumber":74,"Velocity":61,"Duration":75589,"SoundDuration":75589,"Delta":21336544},{"NoteNumber":54,"Velocity":40,"Duration":166297,"SoundDuration":166297,"Delta":21336544},{"NoteNumber":74,"Velocity":54,"Duration":75589,"SoundDuration":75589,"Delta":21487724},{"NoteNumber":62,"Velocity":36,"Duration":166297,"SoundDuration":166297,"Delta":21487724},{"NoteNumber":74,"Velocity":54,"Duration":75589,"SoundDuration":75589,"Delta":21638903},{"NoteNumber":57,"Velocity":36,"Duration":167289,"SoundDuration":167289,"Delta":21638903},{"NoteNumber":74,"Velocity":54,"Duration":80549,"SoundDuration":80549,"Delta":21790082},{"NoteNumber":62,"Velocity":36,"Duration":161099,"SoundDuration":161099,"Delta":21790082},{"NoteNumber":76,"Velocity":66,"Duration":168024,"SoundDuration":168024,"Delta":21951182},{"NoteNumber":55,"Velocity":40,"Duration":168024,"SoundDuration":168024,"Delta":21951182},{"NoteNumber":74,"Velocity":59,"Duration":168024,"SoundDuration":168024,"Delta":22103931},{"NoteNumber":62,"Velocity":36,"Duration":168024,"SoundDuration":168024,"Delta":22103931},{"NoteNumber":72,"Velocity":58,"Duration":169311,"SoundDuration":169311,"Delta":22256681},{"NoteNumber":59,"Velocity":36,"Duration":169311,"SoundDuration":169311,"Delta":22256681},{"NoteNumber":71,"Velocity":57,"Duration":165617,"SoundDuration":165617,"Delta":22409430},{"NoteNumber":62,"Velocity":36,"Duration":165617,"SoundDuration":165617,"Delta":22409430},{"NoteNumber":88,"Velocity":74,"Duration":167156,"SoundDuration":167156,"Delta":22575048},{"NoteNumber":47,"Velocity":44,"Duration":167156,"SoundDuration":167156,"Delta":22575048},{"NoteNumber":86,"Velocity":66,"Duration":167156,"SoundDuration":167156,"Delta":22727008},{"NoteNumber":55,"Velocity":38,"Duration":167156,"SoundDuration":167156,"Delta":22727008},{"NoteNumber":84,"Velocity":65,"Duration":168070,"SoundDuration":168070,"Delta":22878969},{"NoteNumber":50,"Velocity":38,"Duration":168070,"SoundDuration":168070,"Delta":22878969},{"NoteNumber":83,"Velocity":64,"Duration":161099,"SoundDuration":161099,"Delta":23030929},{"NoteNumber":55,"Velocity":38,"Duration":161099,"SoundDuration":161099,"Delta":23030929},{"NoteNumber":80,"Velocity":75,"Duration":168024,"SoundDuration":168024,"Delta":23192029},{"NoteNumber":48,"Velocity":47,"Duration":168024,"SoundDuration":168024,"Delta":23192029},{"NoteNumber":81,"Velocity":67,"Duration":168024,"SoundDuration":168024,"Delta":23344778},{"NoteNumber":57,"Velocity":40,"Duration":168024,"SoundDuration":168024,"Delta":23344778},{"NoteNumber":83,"Velocity":65,"Duration":169218,"SoundDuration":169218,"Delta":23497528},{"NoteNumber":52,"Velocity":40,"Duration":169218,"SoundDuration":169218,"Delta":23497528},{"NoteNumber":84,"Velocity":65,"Duration":164690,"SoundDuration":164690,"Delta":23650277},{"NoteNumber":57,"Velocity":40,"Duration":164690,"SoundDuration":164690,"Delta":23650277},{"NoteNumber":76,"Velocity":74,"Duration":168024,"SoundDuration":168024,"Delta":23814968},{"NoteNumber":49,"Velocity":48,"Duration":168024,"SoundDuration":168024,"Delta":23814968},{"NoteNumber":78,"Velocity":68,"Duration":168024,"SoundDuration":168024,"Delta":23967717},{"NoteNumber":57,"Velocity":40,"Duration":168024,"SoundDuration":168024,"Delta":23967717},{"NoteNumber":79,"Velocity":62,"Duration":169218,"SoundDuration":169218,"Delta":24120467},{"NoteNumber":52,"Velocity":39,"Duration":169218,"SoundDuration":169218,"Delta":24120467},{"NoteNumber":81,"Velocity":65,"Duration":164690,"SoundDuration":164690,"Delta":24273216},{"NoteNumber":57,"Velocity":39,"Duration":164690,"SoundDuration":164690,"Delta":24273216},{"NoteNumber":79,"Velocity":74,"Duration":171571,"SoundDuration":171571,"Delta":24437907},{"NoteNumber":50,"Velocity":48,"Duration":311947,"SoundDuration":311947,"Delta":24437907},{"NoteNumber":78,"Velocity":70,"Duration":171571,"SoundDuration":171571,"Delta":24593880},{"NoteNumber":76,"Velocity":62,"Duration":172820,"SoundDuration":172820,"Delta":24749854},{"NoteNumber":74,"Velocity":63,"Duration":168463,"SoundDuration":168463,"Delta":24905828},{"NoteNumber":83,"Velocity":63,"Duration":79677,"SoundDuration":79677,"Delta":25074291},{"NoteNumber":86,"Velocity":75,"Duration":79677,"SoundDuration":79677,"Delta":25074291},{"NoteNumber":83,"Velocity":58,"Duration":79677,"SoundDuration":79677,"Delta":25392999},{"NoteNumber":86,"Velocity":69,"Duration":79677,"SoundDuration":79677,"Delta":25392999},{"NoteNumber":79,"Velocity":63,"Duration":232726,"SoundDuration":232726,"Delta":25711707},{"NoteNumber":83,"Velocity":75,"Duration":232726,"SoundDuration":232726,"Delta":25711707},{"NoteNumber":67,"Velocity":53,"Duration":77575,"SoundDuration":77575,"Delta":25711707},{"NoteNumber":64,"Velocity":45,"Duration":77575,"SoundDuration":77575,"Delta":25711707},{"NoteNumber":67,"Velocity":46,"Duration":79677,"SoundDuration":79677,"Delta":26022009},{"NoteNumber":64,"Velocity":39,"Duration":79677,"SoundDuration":79677,"Delta":26022009},{"NoteNumber":81,"Velocity":60,"Duration":78402,"SoundDuration":78402,"Delta":26340717},{"NoteNumber":84,"Velocity":71,"Duration":78402,"SoundDuration":78402,"Delta":26340717},{"NoteNumber":64,"Velocity":36,"Duration":156805,"SoundDuration":156805,"Delta":26340717},{"NoteNumber":60,"Velocity":25,"Duration":156805,"SoundDuration":156805,"Delta":26340717},{"NoteNumber":81,"Velocity":54,"Duration":79677,"SoundDuration":79677,"Delta":26654328},{"NoteNumber":84,"Velocity":64,"Duration":79677,"SoundDuration":79677,"Delta":26654328},{"NoteNumber":78,"Velocity":59,"Duration":235207,"SoundDuration":235207,"Delta":26973036},{"NoteNumber":81,"Velocity":70,"Duration":235207,"SoundDuration":235207,"Delta":26973036},{"NoteNumber":62,"Velocity":42,"Duration":78402,"SoundDuration":78402,"Delta":26973036},{"NoteNumber":66,"Velocity":50,"Duration":78402,"SoundDuration":78402,"Delta":26973036},{"NoteNumber":62,"Velocity":39,"Duration":80984,"SoundDuration":80984,"Delta":27286646},{"NoteNumber":66,"Velocity":47,"Duration":80984,"SoundDuration":80984,"Delta":27286646},{"NoteNumber":79,"Velocity":68,"Duration":171571,"SoundDuration":171571,"Delta":27610585},{"NoteNumber":59,"Velocity":56,"Duration":155973,"SoundDuration":155973,"Delta":27610585},{"NoteNumber":62,"Velocity":67,"Duration":155973,"SoundDuration":155973,"Delta":27610585},{"NoteNumber":81,"Velocity":68,"Duration":171571,"SoundDuration":171571,"Delta":27766559},{"NoteNumber":83,"Velocity":72,"Duration":171571,"SoundDuration":171571,"Delta":27922533},{"NoteNumber":79,"Velocity":67,"Duration":155843,"SoundDuration":155843,"Delta":28078507},{"NoteNumber":75,"Velocity":61,"Duration":170052,"SoundDuration":170052,"Delta":28234350},{"NoteNumber":55,"Velocity":63,"Duration":917251,"SoundDuration":917251,"Delta":28234350},{"NoteNumber":48,"Velocity":53,"Duration":610157,"SoundDuration":610157,"Delta":28234350},{"NoteNumber":76,"Velocity":63,"Duration":168219,"SoundDuration":168219,"Delta":28389047},{"NoteNumber":79,"Velocity":66,"Duration":166297,"SoundDuration":166297,"Delta":28542149},{"NoteNumber":76,"Velocity":59,"Duration":151179,"SoundDuration":151179,"Delta":28693328},{"NoteNumber":74,"Velocity":62,"Duration":153546,"SoundDuration":153546,"Delta":28844508},{"NoteNumber":50,"Velocity":45,"Duration":624167,"SoundDuration":624167,"Delta":28844508},{"NoteNumber":71,"Velocity":56,"Duration":153546,"SoundDuration":153546,"Delta":28998055},{"NoteNumber":72,"Velocity":58,"Duration":155973,"SoundDuration":155973,"Delta":29151602},{"NoteNumber":54,"Velocity":52,"Duration":317073,"SoundDuration":317073,"Delta":29151602},{"NoteNumber":69,"Velocity":50,"Duration":161099,"SoundDuration":161099,"Delta":29307575},{"NoteNumber":67,"Velocity":56,"Duration":162866,"SoundDuration":162866,"Delta":29468675},{"NoteNumber":55,"Velocity":64,"Duration":162866,"SoundDuration":162866,"Delta":29468675},{"NoteNumber":43,"Velocity":54,"Duration":175479,"SoundDuration":175479,"Delta":29794408},{"NoteNumber":67,"Velocity":54,"Duration":156805,"SoundDuration":156805,"Delta":30145368},{"NoteNumber":69,"Velocity":56,"Duration":156805,"SoundDuration":156805,"Delta":30302173},{"NoteNumber":71,"Velocity":58,"Duration":156805,"SoundDuration":156805,"Delta":30458978},{"NoteNumber":72,"Velocity":59,"Duration":166555,"SoundDuration":166555,"Delta":30615783},{"NoteNumber":74,"Velocity":61,"Duration":160222,"SoundDuration":160222,"Delta":30782339},{"NoteNumber":55,"Velocity":54,"Duration":160222,"SoundDuration":160222,"Delta":30782339},{"NoteNumber":59,"Velocity":64,"Duration":160222,"SoundDuration":160222,"Delta":30782339},{"NoteNumber":43,"Velocity":54,"Duration":160222,"SoundDuration":160222,"Delta":31102784},{"NoteNumber":71,"Velocity":62,"Duration":155150,"SoundDuration":155150,"Delta":31423228},{"NoteNumber":72,"Velocity":65,"Duration":155151,"SoundDuration":155151,"Delta":31578379},{"NoteNumber":74,"Velocity":69,"Duration":155150,"SoundDuration":155150,"Delta":31733530},{"NoteNumber":76,"Velocity":72,"Duration":165617,"SoundDuration":165617,"Delta":31888681},{"NoteNumber":77,"Velocity":75,"Duration":159354,"SoundDuration":159354,"Delta":32054299},{"NoteNumber":55,"Velocity":70,"Duration":159354,"SoundDuration":159354,"Delta":32054299},{"NoteNumber":59,"Velocity":70,"Duration":159354,"SoundDuration":159354,"Delta":32054299},{"NoteNumber":43,"Velocity":57,"Duration":159354,"SoundDuration":159354,"Delta":32373007},{"NoteNumber":74,"Velocity":64,"Duration":155150,"SoundDuration":155150,"Delta":32691715},{"NoteNumber":76,"Velocity":67,"Duration":155151,"SoundDuration":155151,"Delta":32846866},{"NoteNumber":77,"Velocity":71,"Duration":155150,"SoundDuration":155150,"Delta":33002017},{"NoteNumber":79,"Velocity":74,"Duration":168463,"SoundDuration":168463,"Delta":33157168},{"NoteNumber":81,"Velocity":77,"Duration":81886,"SoundDuration":81886,"Delta":33325631},{"NoteNumber":80,"Velocity":69,"Duration":86845,"SoundDuration":86845,"Delta":33653178},{"NoteNumber":79,"Velocity":66,"Duration":97580,"SoundDuration":97580,"Delta":34000561},{"NoteNumber":78,"Velocity":60,"Duration":105100,"SoundDuration":105100,"Delta":34390881},{"NoteNumber":77,"Velocity":59,"Duration":445368,"SoundDuration":445368,"Delta":34811284},{"NoteNumber":76,"Velocity":42,"Duration":83277,"SoundDuration":83277,"Delta":35702020},{"NoteNumber":79,"Velocity":50,"Duration":83277,"SoundDuration":83277,"Delta":35702020},{"NoteNumber":76,"Velocity":36,"Duration":83277,"SoundDuration":83277,"Delta":36035132},{"NoteNumber":79,"Velocity":43,"Duration":83277,"SoundDuration":83277,"Delta":36035132},{"NoteNumber":72,"Velocity":40,"Duration":233960,"SoundDuration":233960,"Delta":36368243},{"NoteNumber":76,"Velocity":48,"Duration":233960,"SoundDuration":233960,"Delta":36368243},{"NoteNumber":60,"Velocity":36,"Duration":77986,"SoundDuration":77986,"Delta":36368243},{"NoteNumber":57,"Velocity":30,"Duration":77986,"SoundDuration":77986,"Delta":36368243},{"NoteNumber":60,"Velocity":34,"Duration":81433,"SoundDuration":81433,"Delta":36680191},{"NoteNumber":57,"Velocity":28,"Duration":81433,"SoundDuration":81433,"Delta":36680191},{"NoteNumber":74,"Velocity":42,"Duration":77575,"SoundDuration":77575,"Delta":37005924},{"NoteNumber":77,"Velocity":50,"Duration":77575,"SoundDuration":77575,"Delta":37005924},{"NoteNumber":57,"Velocity":29,"Duration":155150,"SoundDuration":155150,"Delta":37005924},{"NoteNumber":53,"Velocity":24,"Duration":155150,"SoundDuration":155150,"Delta":37005924},{"NoteNumber":74,"Velocity":37,"Duration":78822,"SoundDuration":78822,"Delta":37316226},{"NoteNumber":77,"Velocity":44,"Duration":78822,"SoundDuration":78822,"Delta":37316226},{"NoteNumber":71,"Velocity":41,"Duration":231505,"SoundDuration":231505,"Delta":37631517},{"NoteNumber":74,"Velocity":49,"Duration":231505,"SoundDuration":231505,"Delta":37631517},{"NoteNumber":55,"Velocity":34,"Duration":77168,"SoundDuration":77168,"Delta":37631517},{"NoteNumber":59,"Velocity":40,"Duration":77168,"SoundDuration":77168,"Delta":37631517},{"NoteNumber":55,"Velocity":28,"Duration":80549,"SoundDuration":80549,"Delta":37940191},{"NoteNumber":59,"Velocity":33,"Duration":80549,"SoundDuration":80549,"Delta":37940191},{"NoteNumber":72,"Velocity":55,"Duration":169770,"SoundDuration":169770,"Delta":38262390},{"NoteNumber":52,"Velocity":32,"Duration":154336,"SoundDuration":154336,"Delta":38262390},{"NoteNumber":55,"Velocity":38,"Duration":154336,"SoundDuration":154336,"Delta":38262390},{"NoteNumber":74,"Velocity":47,"Duration":169532,"SoundDuration":169532,"Delta":38416727},{"NoteNumber":76,"Velocity":54,"Duration":167156,"SoundDuration":167156,"Delta":38571064},{"NoteNumber":72,"Velocity":47,"Duration":167235,"SoundDuration":167235,"Delta":38723024},{"NoteNumber":69,"Velocity":50,"Duration":168024,"SoundDuration":168024,"Delta":38874984},{"NoteNumber":53,"Velocity":42,"Duration":913356,"SoundDuration":913356,"Delta":38874984},{"NoteNumber":71,"Velocity":54,"Duration":167867,"SoundDuration":167867,"Delta":39027734},{"NoteNumber":72,"Velocity":58,"Duration":166297,"SoundDuration":166297,"Delta":39180483},{"NoteNumber":73,"Velocity":61,"Duration":166454,"SoundDuration":166454,"Delta":39331663},{"NoteNumber":74,"Velocity":66,"Duration":168024,"SoundDuration":168024,"Delta":39482842},{"NoteNumber":76,"Velocity":58,"Duration":168024,"SoundDuration":168024,"Delta":39635591},{"NoteNumber":77,"Velocity":63,"Duration":168024,"SoundDuration":168024,"Delta":39788341},{"NoteNumber":50,"Velocity":38,"Duration":305499,"SoundDuration":305499,"Delta":39788341},{"NoteNumber":74,"Velocity":56,"Duration":168024,"SoundDuration":168024,"Delta":39941090},{"NoteNumber":72,"Velocity":62,"Duration":168024,"SoundDuration":168024,"Delta":40093840},{"NoteNumber":55,"Velocity":44,"Duration":305498,"SoundDuration":305498,"Delta":40093840},{"NoteNumber":71,"Velocity":59,"Duration":168599,"SoundDuration":168599,"Delta":40246589},{"NoteNumber":69,"Velocity":54,"Duration":174344,"SoundDuration":174344,"Delta":40399339},{"NoteNumber":67,"Velocity":51,"Duration":158495,"SoundDuration":158495,"Delta":40557834},{"NoteNumber":76,"Velocity":54,"Duration":79676,"SoundDuration":79676,"Delta":40716329},{"NoteNumber":79,"Velocity":54,"Duration":79676,"SoundDuration":79676,"Delta":40716329},{"NoteNumber":76,"Velocity":45,"Duration":79676,"SoundDuration":79676,"Delta":41035037},{"NoteNumber":79,"Velocity":45,"Duration":79676,"SoundDuration":79676,"Delta":41035037},{"NoteNumber":72,"Velocity":53,"Duration":232726,"SoundDuration":232726,"Delta":41353745},{"NoteNumber":76,"Velocity":53,"Duration":232726,"SoundDuration":232726,"Delta":41353745},{"NoteNumber":60,"Velocity":36,"Duration":77575,"SoundDuration":77575,"Delta":41353745},{"NoteNumber":57,"Velocity":30,"Duration":77575,"SoundDuration":77575,"Delta":41353745},{"NoteNumber":60,"Velocity":34,"Duration":79676,"SoundDuration":79676,"Delta":41664047},{"NoteNumber":57,"Velocity":28,"Duration":79676,"SoundDuration":79676,"Delta":41664047},{"NoteNumber":77,"Velocity":62,"Duration":78402,"SoundDuration":78402,"Delta":41982755},{"NoteNumber":81,"Velocity":62,"Duration":78402,"SoundDuration":78402,"Delta":41982755},{"NoteNumber":53,"Velocity":29,"Duration":156805,"SoundDuration":156805,"Delta":41982755},{"NoteNumber":50,"Velocity":24,"Duration":156805,"SoundDuration":156805,"Delta":41982755},{"NoteNumber":77,"Velocity":56,"Duration":79247,"SoundDuration":79247,"Delta":42296366},{"NoteNumber":81,"Velocity":56,"Duration":79247,"SoundDuration":79247,"Delta":42296366},{"NoteNumber":71,"Velocity":66,"Duration":235207,"SoundDuration":235207,"Delta":42613356},{"NoteNumber":74,"Velocity":66,"Duration":235207,"SoundDuration":235207,"Delta":42613356},{"NoteNumber":55,"Velocity":39,"Duration":78402,"SoundDuration":78402,"Delta":42613356},{"NoteNumber":59,"Velocity":46,"Duration":78402,"SoundDuration":78402,"Delta":42613356},{"NoteNumber":55,"Velocity":31,"Duration":80984,"SoundDuration":80984,"Delta":42926967},{"NoteNumber":59,"Velocity":37,"Duration":80984,"SoundDuration":80984,"Delta":42926967},{"NoteNumber":81,"Velocity":73,"Duration":171571,"SoundDuration":171571,"Delta":43250906},{"NoteNumber":48,"Velocity":37,"Duration":155973,"SoundDuration":155973,"Delta":43250906},{"NoteNumber":52,"Velocity":44,"Duration":155973,"SoundDuration":155973,"Delta":43250906},{"NoteNumber":79,"Velocity":70,"Duration":171571,"SoundDuration":171571,"Delta":43406880},{"NoteNumber":77,"Velocity":67,"Duration":171571,"SoundDuration":171571,"Delta":43562853},{"NoteNumber":76,"Velocity":64,"Duration":155912,"SoundDuration":155912,"Delta":43718827},{"NoteNumber":73,"Velocity":56,"Duration":169766,"SoundDuration":169766,"Delta":43874739},{"NoteNumber":57,"Velocity":42,"Duration":921413,"SoundDuration":921413,"Delta":43874739},{"NoteNumber":53,"Velocity":35,"Duration":921413,"SoundDuration":921413,"Delta":43874739},{"NoteNumber":74,"Velocity":60,"Duration":168064,"SoundDuration":168064,"Delta":44029191},{"NoteNumber":76,"Velocity":64,"Duration":168024,"SoundDuration":168024,"Delta":44181981},{"NoteNumber":77,"Velocity":56,"Duration":152749,"SoundDuration":152749,"Delta":44334730},{"NoteNumber":69,"Velocity":60,"Duration":154336,"SoundDuration":154336,"Delta":44487480},{"NoteNumber":72,"Velocity":52,"Duration":154336,"SoundDuration":154336,"Delta":44641816},{"NoteNumber":71,"Velocity":58,"Duration":154336,"SoundDuration":154336,"Delta":44796153},{"NoteNumber":65,"Velocity":43,"Duration":313690,"SoundDuration":313690,"Delta":44796153},{"NoteNumber":55,"Velocity":36,"Duration":313690,"SoundDuration":313690,"Delta":44796153},{"NoteNumber":74,"Velocity":50,"Duration":159354,"SoundDuration":159354,"Delta":44950490},{"NoteNumber":72,"Velocity":56,"Duration":325732,"SoundDuration":325732,"Delta":45109844},{"NoteNumber":64,"Velocity":51,"Duration":325732,"SoundDuration":325732,"Delta":45109844},{"NoteNumber":60,"Velocity":43,"Duration":325732,"SoundDuration":325732,"Delta":45109844},{"NoteNumber":48,"Velocity":47,"Duration":175479,"SoundDuration":175479,"Delta":45435577},{"NoteNumber":64,"Velocity":53,"Duration":77986,"SoundDuration":77986,"Delta":45786536},{"NoteNumber":60,"Velocity":45,"Duration":77986,"SoundDuration":77986,"Delta":45786536},{"NoteNumber":64,"Velocity":44,"Duration":81433,"SoundDuration":81433,"Delta":46098484},{"NoteNumber":60,"Velocity":37,"Duration":81433,"SoundDuration":81433,"Delta":46098484},{"NoteNumber":76,"Velocity":57,"Duration":168024,"SoundDuration":168024,"Delta":46424217},{"NoteNumber":60,"Velocity":45,"Duration":152749,"SoundDuration":152749,"Delta":46424217},{"NoteNumber":57,"Velocity":38,"Duration":152749,"SoundDuration":152749,"Delta":46424217},{"NoteNumber":75,"Velocity":52,"Duration":168264,"SoundDuration":168264,"Delta":46576966},{"NoteNumber":77,"Velocity":58,"Duration":170915,"SoundDuration":170915,"Delta":46729716},{"NoteNumber":76,"Velocity":50,"Duration":157645,"SoundDuration":157645,"Delta":46884867},{"NoteNumber":59,"Velocity":40,"Duration":77168,"SoundDuration":77168,"Delta":47042513},{"NoteNumber":62,"Velocity":48,"Duration":77168,"SoundDuration":77168,"Delta":47042513},{"NoteNumber":59,"Velocity":32,"Duration":80549,"SoundDuration":80549,"Delta":47351186},{"NoteNumber":62,"Velocity":38,"Duration":80549,"SoundDuration":80549,"Delta":47351186},{"NoteNumber":76,"Velocity":55,"Duration":166297,"SoundDuration":166297,"Delta":47673386},{"NoteNumber":56,"Velocity":40,"Duration":151179,"SoundDuration":151179,"Delta":47673386},{"NoteNumber":59,"Velocity":48,"Duration":151179,"SoundDuration":151179,"Delta":47673386},{"NoteNumber":75,"Velocity":47,"Duration":166297,"SoundDuration":166297,"Delta":47824565},{"NoteNumber":77,"Velocity":53,"Duration":167929,"SoundDuration":167929,"Delta":47975744},{"NoteNumber":76,"Velocity":47,"Duration":167504,"SoundDuration":167504,"Delta":48126923},{"NoteNumber":84,"Velocity":72,"Duration":77986,"SoundDuration":77986,"Delta":48294428},{"NoteNumber":76,"Velocity":59,"Duration":77986,"SoundDuration":77986,"Delta":48294428},{"NoteNumber":84,"Velocity":68,"Duration":81433,"SoundDuration":81433,"Delta":48606375},{"NoteNumber":76,"Velocity":56,"Duration":81433,"SoundDuration":81433,"Delta":48606375},{"NoteNumber":81,"Velocity":73,"Duration":151960,"SoundDuration":151960,"Delta":48932108},{"NoteNumber":72,"Velocity":64,"Duration":151960,"SoundDuration":151960,"Delta":48932108},{"NoteNumber":64,"Velocity":60,"Duration":167156,"SoundDuration":167156,"Delta":48932108},{"NoteNumber":63,"Velocity":53,"Duration":167475,"SoundDuration":167475,"Delta":49084068},{"NoteNumber":65,"Velocity":58,"Duration":170915,"SoundDuration":170915,"Delta":49236029},{"NoteNumber":64,"Velocity":52,"Duration":157645,"SoundDuration":157645,"Delta":49391180},{"NoteNumber":74,"Velocity":62,"Duration":77168,"SoundDuration":77168,"Delta":49548825},{"NoteNumber":83,"Velocity":73,"Duration":77168,"SoundDuration":77168,"Delta":49548825},{"NoteNumber":74,"Velocity":54,"Duration":80549,"SoundDuration":80549,"Delta":49857499},{"NoteNumber":83,"Velocity":64,"Duration":80549,"SoundDuration":80549,"Delta":49857499},{"NoteNumber":71,"Velocity":62,"Duration":154336,"SoundDuration":154336,"Delta":50179698},{"NoteNumber":80,"Velocity":73,"Duration":154336,"SoundDuration":154336,"Delta":50179698},{"NoteNumber":64,"Velocity":58,"Duration":169770,"SoundDuration":169770,"Delta":50179698},{"NoteNumber":63,"Velocity":50,"Duration":169770,"SoundDuration":169770,"Delta":50334035},{"NoteNumber":65,"Velocity":57,"Duration":170446,"SoundDuration":170446,"Delta":50488372},{"NoteNumber":64,"Velocity":50,"Duration":154387,"SoundDuration":154387,"Delta":50642709},{"NoteNumber":81,"Velocity":68,"Duration":151960,"SoundDuration":151960,"Delta":50803808},{"NoteNumber":60,"Velocity":60,"Duration":619987,"SoundDuration":619987,"Delta":50803808},{"NoteNumber":64,"Velocity":60,"Duration":619987,"SoundDuration":619987,"Delta":50803808},{"NoteNumber":76,"Velocity":54,"Duration":154336,"SoundDuration":154336,"Delta":50955769},{"NoteNumber":72,"Velocity":54,"Duration":154336,"SoundDuration":154336,"Delta":51110105},{"NoteNumber":69,"Velocity":52,"Duration":159354,"SoundDuration":159354,"Delta":51264442},{"NoteNumber":72,"Velocity":64,"Duration":151960,"SoundDuration":151960,"Delta":51423796},{"NoteNumber":62,"Velocity":48,"Duration":617611,"SoundDuration":617611,"Delta":51423796},{"NoteNumber":65,"Velocity":57,"Duration":617611,"SoundDuration":617611,"Delta":51423796},{"NoteNumber":70,"Velocity":56,"Duration":145628,"SoundDuration":145628,"Delta":51575756},{"NoteNumber":70,"Velocity":56,"Duration":77168,"SoundDuration":77168,"Delta":51727717},{"NoteNumber":70,"Velocity":52,"Duration":159354,"SoundDuration":159354,"Delta":51882053},{"NoteNumber":74,"Velocity":68,"Duration":152749,"SoundDuration":152749,"Delta":52041407},{"NoteNumber":64,"Velocity":49,"Duration":622498,"SoundDuration":622498,"Delta":52041407},{"NoteNumber":67,"Velocity":58,"Duration":622498,"SoundDuration":622498,"Delta":52041407},{"NoteNumber":73,"Velocity":56,"Duration":146384,"SoundDuration":146384,"Delta":52194157},{"NoteNumber":73,"Velocity":56,"Duration":78822,"SoundDuration":78822,"Delta":52346906},{"NoteNumber":73,"Velocity":56,"Duration":79676,"SoundDuration":79676,"Delta":52504552},{"NoteNumber":76,"Velocity":71,"Duration":154336,"SoundDuration":154336,"Delta":52663906},{"NoteNumber":65,"Velocity":62,"Duration":311141,"SoundDuration":311141,"Delta":52663906},{"NoteNumber":69,"Velocity":52,"Duration":1243005,"SoundDuration":1243005,"Delta":52663906},{"NoteNumber":74,"Velocity":59,"Duration":78402,"SoundDuration":78402,"Delta":52818243},{"NoteNumber":77,"Velocity":68,"Duration":153547,"SoundDuration":153547,"Delta":52975048},{"NoteNumber":61,"Velocity":58,"Duration":310352,"SoundDuration":310352,"Delta":52975048},{"NoteNumber":76,"Velocity":59,"Duration":78402,"SoundDuration":78402,"Delta":53128595},{"NoteNumber":79,"Velocity":74,"Duration":152749,"SoundDuration":152749,"Delta":53285400},{"NoteNumber":62,"Velocity":64,"Duration":309554,"SoundDuration":309554,"Delta":53285400},{"NoteNumber":77,"Velocity":55,"Duration":78402,"SoundDuration":78402,"Delta":53438150},{"NoteNumber":77,"Velocity":71,"Duration":155150,"SoundDuration":155150,"Delta":53594955},{"NoteNumber":64,"Velocity":60,"Duration":311956,"SoundDuration":311956,"Delta":53594955},{"NoteNumber":76,"Velocity":60,"Duration":78402,"SoundDuration":78402,"Delta":53750106},{"NoteNumber":76,"Velocity":72,"Duration":159354,"SoundDuration":159354,"Delta":53906911},{"NoteNumber":69,"Velocity":67,"Duration":339102,"SoundDuration":339102,"Delta":53906911},{"NoteNumber":65,"Velocity":57,"Duration":339102,"SoundDuration":339102,"Delta":53906911},{"NoteNumber":75,"Velocity":62,"Duration":89874,"SoundDuration":89874,"Delta":54066265},{"NoteNumber":84,"Velocity":78,"Duration":672028,"SoundDuration":672028,"Delta":54246014},{"NoteNumber":65,"Velocity":36,"Duration":331235,"SoundDuration":331235,"Delta":54586807},{"NoteNumber":69,"Velocity":43,"Duration":331235,"SoundDuration":331235,"Delta":54586807},{"NoteNumber":75,"Velocity":56,"Duration":331235,"SoundDuration":331235,"Delta":54918042},{"NoteNumber":76,"Velocity":66,"Duration":331235,"SoundDuration":331235,"Delta":55249278},{"NoteNumber":52,"Velocity":43,"Duration":165617,"SoundDuration":165617,"Delta":55249278},{"NoteNumber":64,"Velocity":39,"Duration":165617,"SoundDuration":165617,"Delta":55414895},{"NoteNumber":56,"Velocity":39,"Duration":165617,"SoundDuration":165617,"Delta":55580513},{"NoteNumber":64,"Velocity":39,"Duration":164730,"SoundDuration":164730,"Delta":55746131},{"NoteNumber":83,"Velocity":66,"Duration":154270,"SoundDuration":154270,"Delta":55910861},{"NoteNumber":59,"Velocity":46,"Duration":154270,"SoundDuration":154270,"Delta":55910861},{"NoteNumber":80,"Velocity":62,"Duration":153321,"SoundDuration":153321,"Delta":56065132},{"NoteNumber":64,"Velocity":39,"Duration":153321,"SoundDuration":153321,"Delta":56065132},{"NoteNumber":76,"Velocity":62,"Duration":152368,"SoundDuration":152368,"Delta":56218453},{"NoteNumber":56,"Velocity":39,"Duration":152368,"SoundDuration":152368,"Delta":56218453},{"NoteNumber":74,"Velocity":58,"Duration":163773,"SoundDuration":163773,"Delta":56370821},{"NoteNumber":64,"Velocity":39,"Duration":163773,"SoundDuration":163773,"Delta":56370821},{"NoteNumber":72,"Velocity":66,"Duration":150405,"SoundDuration":150405,"Delta":56534594},{"NoteNumber":52,"Velocity":47,"Duration":150405,"SoundDuration":150405,"Delta":56534594},{"NoteNumber":76,"Velocity":61,"Duration":150406,"SoundDuration":150406,"Delta":56685000},{"NoteNumber":64,"Velocity":41,"Duration":150406,"SoundDuration":150406,"Delta":56685000},{"NoteNumber":81,"Velocity":61,"Duration":152749,"SoundDuration":152749,"Delta":56835406},{"NoteNumber":57,"Velocity":41,"Duration":152749,"SoundDuration":152749,"Delta":56835406},{"NoteNumber":80,"Velocity":60,"Duration":165617,"SoundDuration":165617,"Delta":56988156},{"NoteNumber":64,"Velocity":41,"Duration":165617,"SoundDuration":165617,"Delta":56988156},{"NoteNumber":81,"Velocity":70,"Duration":151960,"SoundDuration":151960,"Delta":57153773},{"NoteNumber":60,"Velocity":48,"Duration":151960,"SoundDuration":151960,"Delta":57153773},{"NoteNumber":76,"Velocity":63,"Duration":154336,"SoundDuration":154336,"Delta":57305734},{"NoteNumber":64,"Velocity":40,"Duration":154336,"SoundDuration":154336,"Delta":57305734},{"NoteNumber":72,"Velocity":63,"Duration":154336,"SoundDuration":154336,"Delta":57460070},{"NoteNumber":57,"Velocity":40,"Duration":154336,"SoundDuration":154336,"Delta":57460070},{"NoteNumber":69,"Velocity":59,"Duration":164690,"SoundDuration":164690,"Delta":57614407},{"NoteNumber":64,"Velocity":40,"Duration":164690,"SoundDuration":164690,"Delta":57614407},{"NoteNumber":68,"Velocity":70,"Duration":155973,"SoundDuration":155973,"Delta":57779098},{"NoteNumber":52,"Velocity":52,"Duration":155973,"SoundDuration":155973,"Delta":57779098},{"NoteNumber":71,"Velocity":63,"Duration":150405,"SoundDuration":150405,"Delta":57935071},{"NoteNumber":64,"Velocity":42,"Duration":150405,"SoundDuration":150405,"Delta":57935071},{"NoteNumber":76,"Velocity":62,"Duration":150406,"SoundDuration":150406,"Delta":58085477},{"NoteNumber":56,"Velocity":42,"Duration":150406,"SoundDuration":150406,"Delta":58085477},{"NoteNumber":80,"Velocity":59,"Duration":165617,"SoundDuration":165617,"Delta":58235883},{"NoteNumber":64,"Velocity":42,"Duration":165617,"SoundDuration":165617,"Delta":58235883},{"NoteNumber":83,"Velocity":71,"Duration":151960,"SoundDuration":151960,"Delta":58401501},{"NoteNumber":59,"Velocity":52,"Duration":151960,"SoundDuration":151960,"Delta":58401501},{"NoteNumber":80,"Velocity":62,"Duration":151960,"SoundDuration":151960,"Delta":58553461},{"NoteNumber":64,"Velocity":43,"Duration":151960,"SoundDuration":151960,"Delta":58553461},{"NoteNumber":76,"Velocity":62,"Duration":151960,"SoundDuration":151960,"Delta":58705422},{"NoteNumber":56,"Velocity":43,"Duration":151960,"SoundDuration":151960,"Delta":58705422},{"NoteNumber":74,"Velocity":59,"Duration":168463,"SoundDuration":168463,"Delta":58857382},{"NoteNumber":64,"Velocity":43,"Duration":168463,"SoundDuration":168463,"Delta":58857382},{"NoteNumber":72,"Velocity":70,"Duration":156805,"SoundDuration":156805,"Delta":59025845},{"NoteNumber":52,"Velocity":51,"Duration":156805,"SoundDuration":156805,"Delta":59025845},{"NoteNumber":76,"Velocity":63,"Duration":151179,"SoundDuration":151179,"Delta":59182651},{"NoteNumber":64,"Velocity":43,"Duration":151179,"SoundDuration":151179,"Delta":59182651},{"NoteNumber":81,"Velocity":63,"Duration":151179,"SoundDuration":151179,"Delta":59333830},{"NoteNumber":57,"Velocity":43,"Duration":151179,"SoundDuration":151179,"Delta":59333830},{"NoteNumber":80,"Velocity":59,"Duration":169434,"SoundDuration":169434,"Delta":59485009},{"NoteNumber":64,"Velocity":43,"Duration":169434,"SoundDuration":169434,"Delta":59485009},{"NoteNumber":81,"Velocity":66,"Duration":156805,"SoundDuration":156805,"Delta":59654443},{"NoteNumber":60,"Velocity":52,"Duration":156805,"SoundDuration":156805,"Delta":59654443},{"NoteNumber":76,"Velocity":62,"Duration":156805,"SoundDuration":156805,"Delta":59811248},{"NoteNumber":64,"Velocity":43,"Duration":156805,"SoundDuration":156805,"Delta":59811248},{"NoteNumber":72,"Velocity":62,"Duration":156805,"SoundDuration":156805,"Delta":59968054},{"NoteNumber":57,"Velocity":43,"Duration":156805,"SoundDuration":156805,"Delta":59968054},{"NoteNumber":69,"Velocity":59,"Duration":167504,"SoundDuration":167504,"Delta":60124859},{"NoteNumber":64,"Velocity":43,"Duration":164712,"SoundDuration":164712,"Delta":60124859},{"NoteNumber":64,"Velocity":70,"Duration":313610,"SoundDuration":313610,"Delta":60292363},{"NoteNumber":52,"Velocity":51,"Duration":313610,"SoundDuration":313610,"Delta":60292363},{"NoteNumber":72,"Velocity":39,"Duration":79247,"SoundDuration":79247,"Delta":60956933},{"NoteNumber":76,"Velocity":46,"Duration":79247,"SoundDuration":79247,"Delta":60956933},{"NoteNumber":72,"Velocity":34,"Duration":83277,"SoundDuration":83277,"Delta":61273924},{"NoteNumber":76,"Velocity":41,"Duration":83277,"SoundDuration":83277,"Delta":61273924},{"NoteNumber":69,"Velocity":24,"Duration":152749,"SoundDuration":152749,"Delta":61607035},{"NoteNumber":72,"Velocity":50,"Duration":152749,"SoundDuration":152749,"Delta":61607035},{"NoteNumber":64,"Velocity":46,"Duration":168024,"SoundDuration":168024,"Delta":61607035},{"NoteNumber":63,"Velocity":39,"Duration":168264,"SoundDuration":168264,"Delta":61759785},{"NoteNumber":65,"Velocity":46,"Duration":170915,"SoundDuration":170915,"Delta":61912534},{"NoteNumber":64,"Velocity":39,"Duration":157645,"SoundDuration":157645,"Delta":62067685},{"NoteNumber":71,"Velocity":39,"Duration":77168,"SoundDuration":77168,"Delta":62225331},{"NoteNumber":74,"Velocity":47,"Duration":77168,"SoundDuration":77168,"Delta":62225331},{"NoteNumber":71,"Velocity":33,"Duration":80549,"SoundDuration":80549,"Delta":62534004},{"NoteNumber":74,"Velocity":39,"Duration":80549,"SoundDuration":80549,"Delta":62534004},{"NoteNumber":68,"Velocity":40,"Duration":152749,"SoundDuration":152749,"Delta":62856204},{"NoteNumber":71,"Velocity":48,"Duration":152749,"SoundDuration":152749,"Delta":62856204},{"NoteNumber":64,"Velocity":45,"Duration":168024,"SoundDuration":168024,"Delta":62856204},{"NoteNumber":63,"Velocity":39,"Duration":168024,"SoundDuration":168024,"Delta":63008953},{"NoteNumber":65,"Velocity":46,"Duration":169499,"SoundDuration":169499,"Delta":63161703},{"NoteNumber":64,"Velocity":39,"Duration":167504,"SoundDuration":167504,"Delta":63314452},{"NoteNumber":52,"Velocity":50,"Duration":77986,"SoundDuration":77986,"Delta":63481957},{"NoteNumber":60,"Velocity":59,"Duration":77986,"SoundDuration":77986,"Delta":63481957},{"NoteNumber":52,"Velocity":44,"Duration":81433,"SoundDuration":81433,"Delta":63793904},{"NoteNumber":60,"Velocity":54,"Duration":81433,"SoundDuration":81433,"Delta":63793904},{"NoteNumber":64,"Velocity":57,"Duration":168901,"SoundDuration":168901,"Delta":64119637},{"NoteNumber":48,"Velocity":51,"Duration":153547,"SoundDuration":153547,"Delta":64119637},{"NoteNumber":57,"Velocity":60,"Duration":153547,"SoundDuration":153547,"Delta":64119637},{"NoteNumber":63,"Velocity":52,"Duration":169062,"SoundDuration":169062,"Delta":64273184},{"NoteNumber":65,"Velocity":57,"Duration":170915,"SoundDuration":170915,"Delta":64426731},{"NoteNumber":64,"Velocity":52,"Duration":157645,"SoundDuration":157645,"Delta":64581882},{"NoteNumber":50,"Velocity":48,"Duration":77168,"SoundDuration":77168,"Delta":64739528},{"NoteNumber":59,"Velocity":57,"Duration":77168,"SoundDuration":77168,"Delta":64739528},{"NoteNumber":50,"Velocity":41,"Duration":80549,"SoundDuration":80549,"Delta":65048201},{"NoteNumber":59,"Velocity":49,"Duration":80549,"SoundDuration":80549,"Delta":65048201},{"NoteNumber":88,"Velocity":76,"Duration":154336,"SoundDuration":154336,"Delta":65370401},{"NoteNumber":47,"Velocity":51,"Duration":154336,"SoundDuration":154336,"Delta":65370401},{"NoteNumber":56,"Velocity":60,"Duration":154336,"SoundDuration":154336,"Delta":65370401},{"NoteNumber":87,"Velocity":64,"Duration":154336,"SoundDuration":154336,"Delta":65524738},{"NoteNumber":89,"Velocity":68,"Duration":154336,"SoundDuration":154336,"Delta":65679074},{"NoteNumber":88,"Velocity":62,"Duration":161099,"SoundDuration":161099,"Delta":65833411},{"NoteNumber":86,"Velocity":73,"Duration":151960,"SoundDuration":151960,"Delta":65994511},{"NoteNumber":56,"Velocity":39,"Duration":619987,"SoundDuration":619987,"Delta":65994511},{"NoteNumber":59,"Velocity":47,"Duration":619987,"SoundDuration":619987,"Delta":65994511},{"NoteNumber":85,"Velocity":63,"Duration":154336,"SoundDuration":154336,"Delta":66146471},{"NoteNumber":88,"Velocity":71,"Duration":154336,"SoundDuration":154336,"Delta":66300808},{"NoteNumber":86,"Velocity":59,"Duration":152714,"SoundDuration":152714,"Delta":66455145},{"NoteNumber":86,"Velocity":72,"Duration":151179,"SoundDuration":151179,"Delta":66614499},{"NoteNumber":57,"Velocity":42,"Duration":305515,"SoundDuration":305515,"Delta":66614499},{"NoteNumber":60,"Velocity":50,"Duration":305515,"SoundDuration":305515,"Delta":66614499},{"NoteNumber":84,"Velocity":62,"Duration":115752,"SoundDuration":115752,"Delta":66765678},{"NoteNumber":84,"Velocity":67,"Duration":77168,"SoundDuration":77168,"Delta":66920015},{"NoteNumber":59,"Velocity":42,"Duration":313690,"SoundDuration":313690,"Delta":66920015},{"NoteNumber":62,"Velocity":50,"Duration":313690,"SoundDuration":313690,"Delta":66920015},{"NoteNumber":83,"Velocity":61,"Duration":159353,"SoundDuration":159353,"Delta":67074351},{"NoteNumber":83,"Velocity":71,"Duration":113384,"SoundDuration":113384,"Delta":67233705},{"NoteNumber":60,"Velocity":43,"Duration":302879,"SoundDuration":302879,"Delta":67233705},{"NoteNumber":64,"Velocity":51,"Duration":619999,"SoundDuration":619999,"Delta":67233705},{"NoteNumber":81,"Velocity":59,"Duration":151699,"SoundDuration":151699,"Delta":67384885},{"NoteNumber":81,"Velocity":68,"Duration":77575,"SoundDuration":77575,"Delta":67536585},{"NoteNumber":61,"Velocity":43,"Duration":317120,"SoundDuration":317120,"Delta":67536585},{"NoteNumber":79,"Velocity":57,"Duration":80984,"SoundDuration":80984,"Delta":67691736},{"NoteNumber":79,"Velocity":69,"Duration":152749,"SoundDuration":152749,"Delta":67853705},{"NoteNumber":62,"Velocity":55,"Duration":309554,"SoundDuration":309554,"Delta":67853705},{"NoteNumber":69,"Velocity":46,"Duration":1249175,"SoundDuration":1249175,"Delta":67853705},{"NoteNumber":77,"Velocity":57,"Duration":78402,"SoundDuration":78402,"Delta":68006455},{"NoteNumber":77,"Velocity":65,"Duration":152749,"SoundDuration":152749,"Delta":68163260},{"NoteNumber":64,"Velocity":51,"Duration":309554,"SoundDuration":309554,"Delta":68163260},{"NoteNumber":76,"Velocity":57,"Duration":78402,"SoundDuration":78402,"Delta":68316009},{"NoteNumber":76,"Velocity":64,"Duration":154336,"SoundDuration":154336,"Delta":68472815},{"NoteNumber":65,"Velocity":57,"Duration":311142,"SoundDuration":311142,"Delta":68472815},{"NoteNumber":74,"Velocity":56,"Duration":78402,"SoundDuration":78402,"Delta":68627151},{"NoteNumber":74,"Velocity":62,"Duration":155151,"SoundDuration":155151,"Delta":68783957},{"NoteNumber":64,"Velocity":53,"Duration":318924,"SoundDuration":318924,"Delta":68783957},{"NoteNumber":72,"Velocity":55,"Duration":81886,"SoundDuration":81886,"Delta":68939108},{"NoteNumber":70,"Velocity":66,"Duration":159353,"SoundDuration":159353,"Delta":69102881},{"NoteNumber":65,"Velocity":59,"Duration":656410,"SoundDuration":656410,"Delta":69102881},{"NoteNumber":62,"Velocity":50,"Duration":656410,"SoundDuration":656410,"Delta":69102881},{"NoteNumber":77,"Velocity":54,"Duration":161969,"SoundDuration":161969,"Delta":69262235},{"NoteNumber":74,"Velocity":57,"Duration":164690,"SoundDuration":164690,"Delta":69424204},{"NoteNumber":70,"Velocity":53,"Duration":170396,"SoundDuration":170396,"Delta":69588895},{"NoteNumber":69,"Velocity":60,"Duration":331235,"SoundDuration":331235,"Delta":69759291},{"NoteNumber":52,"Velocity":36,"Duration":662470,"SoundDuration":662470,"Delta":69759291},{"NoteNumber":60,"Velocity":43,"Duration":331235,"SoundDuration":331235,"Delta":69759291},{"NoteNumber":68,"Velocity":56,"Duration":331235,"SoundDuration":331235,"Delta":70090527},{"NoteNumber":59,"Velocity":43,"Duration":331235,"SoundDuration":331235,"Delta":70090527},{"NoteNumber":69,"Velocity":66,"Duration":331235,"SoundDuration":331235,"Delta":70421762},{"NoteNumber":57,"Velocity":43,"Duration":165617,"SoundDuration":165617,"Delta":70421762},{"NoteNumber":60,"Velocity":39,"Duration":165617,"SoundDuration":165617,"Delta":70587380},{"NoteNumber":64,"Velocity":39,"Duration":165617,"SoundDuration":165617,"Delta":70752998},{"NoteNumber":60,"Velocity":39,"Duration":165617,"SoundDuration":165617,"Delta":70918616},{"NoteNumber":68,"Velocity":66,"Duration":157645,"SoundDuration":157645,"Delta":71084233},{"NoteNumber":52,"Velocity":46,"Duration":157645,"SoundDuration":157645,"Delta":71084233},{"NoteNumber":74,"Velocity":62,"Duration":155439,"SoundDuration":155439,"Delta":71241879},{"NoteNumber":59,"Velocity":39,"Duration":155439,"SoundDuration":155439,"Delta":71241879},{"NoteNumber":71,"Velocity":62,"Duration":154336,"SoundDuration":154336,"Delta":71397319},{"NoteNumber":62,"Velocity":39,"Duration":154336,"SoundDuration":154336,"Delta":71397319},{"NoteNumber":68,"Velocity":58,"Duration":168463,"SoundDuration":168463,"Delta":71551656},{"NoteNumber":59,"Velocity":39,"Duration":168463,"SoundDuration":168463,"Delta":71551656},{"NoteNumber":69,"Velocity":66,"Duration":315291,"SoundDuration":315291,"Delta":71720119},{"NoteNumber":57,"Velocity":47,"Duration":157645,"SoundDuration":157645,"Delta":71720119},{"NoteNumber":60,"Velocity":41,"Duration":157645,"SoundDuration":157645,"Delta":71877765},{"NoteNumber":64,"Velocity":41,"Duration":157645,"SoundDuration":157645,"Delta":72035411},{"NoteNumber":60,"Velocity":41,"Duration":169433,"SoundDuration":169433,"Delta":72193056},{"NoteNumber":68,"Velocity":70,"Duration":155973,"SoundDuration":155973,"Delta":72362490},{"NoteNumber":52,"Velocity":48,"Duration":155973,"SoundDuration":155973,"Delta":72362490},{"NoteNumber":74,"Velocity":63,"Duration":154355,"SoundDuration":154355,"Delta":72518464},{"NoteNumber":59,"Velocity":40,"Duration":154355,"SoundDuration":154355,"Delta":72518464},{"NoteNumber":71,"Velocity":63,"Duration":153546,"SoundDuration":153546,"Delta":72672820},{"NoteNumber":62,"Velocity":40,"Duration":153546,"SoundDuration":153546,"Delta":72672820},{"NoteNumber":68,"Velocity":59,"Duration":168463,"SoundDuration":168463,"Delta":72826367},{"NoteNumber":59,"Velocity":40,"Duration":168463,"SoundDuration":168463,"Delta":72826367},{"NoteNumber":69,"Velocity":66,"Duration":315291,"SoundDuration":315291,"Delta":72994831},{"NoteNumber":57,"Velocity":47,"Duration":157645,"SoundDuration":157645,"Delta":72994831},{"NoteNumber":60,"Velocity":41,"Duration":157645,"SoundDuration":157645,"Delta":73152476},{"NoteNumber":64,"Velocity":41,"Duration":157645,"SoundDuration":157645,"Delta":73310122},{"NoteNumber":60,"Velocity":41,"Duration":169433,"SoundDuration":169433,"Delta":73467768},{"NoteNumber":68,"Velocity":66,"Duration":155151,"SoundDuration":155151,"Delta":73637202},{"NoteNumber":52,"Velocity":43,"Duration":155151,"SoundDuration":155151,"Delta":73637202},{"NoteNumber":74,"Velocity":60,"Duration":153549,"SoundDuration":153549,"Delta":73792353},{"NoteNumber":59,"Velocity":35,"Duration":153549,"SoundDuration":153549,"Delta":73792353},{"NoteNumber":71,"Velocity":60,"Duration":152749,"SoundDuration":152749,"Delta":73945903},{"NoteNumber":62,"Velocity":37,"Duration":152749,"SoundDuration":152749,"Delta":73945903},{"NoteNumber":68,"Velocity":54,"Duration":168463,"SoundDuration":168463,"Delta":74098652},{"NoteNumber":59,"Velocity":40,"Duration":168463,"SoundDuration":168463,"Delta":74098652},{"NoteNumber":69,"Velocity":69,"Duration":156805,"SoundDuration":156805,"Delta":74267116},{"NoteNumber":57,"Velocity":52,"Duration":156805,"SoundDuration":156805,"Delta":74267116},{"NoteNumber":76,"Velocity":64,"Duration":155159,"SoundDuration":155159,"Delta":74423921},{"NoteNumber":60,"Velocity":43,"Duration":155159,"SoundDuration":155159,"Delta":74423921},{"NoteNumber":72,"Velocity":64,"Duration":154336,"SoundDuration":154336,"Delta":74579081},{"NoteNumber":64,"Velocity":44,"Duration":154336,"SoundDuration":154336,"Delta":74579081},{"NoteNumber":69,"Velocity":58,"Duration":192678,"SoundDuration":192678,"Delta":74733417},{"NoteNumber":60,"Velocity":45,"Duration":192678,"SoundDuration":192678,"Delta":74733417},{"NoteNumber":71,"Velocity":77,"Duration":160222,"SoundDuration":160222,"Delta":74926096},{"NoteNumber":55,"Velocity":57,"Duration":160222,"SoundDuration":160222,"Delta":74926096},{"NoteNumber":77,"Velocity":66,"Duration":160222,"SoundDuration":160222,"Delta":75086318},{"NoteNumber":62,"Velocity":45,"Duration":160222,"SoundDuration":160222,"Delta":75086318},{"NoteNumber":74,"Velocity":66,"Duration":160222,"SoundDuration":160222,"Delta":75246540},{"NoteNumber":65,"Velocity":46,"Duration":160222,"SoundDuration":160222,"Delta":75246540},{"NoteNumber":71,"Velocity":59,"Duration":167504,"SoundDuration":167504,"Delta":75406762},{"NoteNumber":62,"Velocity":46,"Duration":167504,"SoundDuration":167504,"Delta":75406762},{"NoteNumber":76,"Velocity":42,"Duration":83277,"SoundDuration":83277,"Delta":76617927},{"NoteNumber":79,"Velocity":50,"Duration":83277,"SoundDuration":83277,"Delta":76617927},{"NoteNumber":76,"Velocity":36,"Duration":83277,"SoundDuration":83277,"Delta":76951038},{"NoteNumber":79,"Velocity":43,"Duration":83277,"SoundDuration":83277,"Delta":76951038},{"NoteNumber":72,"Velocity":40,"Duration":233960,"SoundDuration":233960,"Delta":77284150},{"NoteNumber":76,"Velocity":48,"Duration":233960,"SoundDuration":233960,"Delta":77284150},{"NoteNumber":60,"Velocity":36,"Duration":77986,"SoundDuration":77986,"Delta":77284150},{"NoteNumber":57,"Velocity":30,"Duration":77986,"SoundDuration":77986,"Delta":77284150},{"NoteNumber":60,"Velocity":34,"Duration":81433,"SoundDuration":81433,"Delta":77596097},{"NoteNumber":57,"Velocity":28,"Duration":81433,"SoundDuration":81433,"Delta":77596097},{"NoteNumber":74,"Velocity":42,"Duration":77575,"SoundDuration":77575,"Delta":77921830},{"NoteNumber":77,"Velocity":50,"Duration":77575,"SoundDuration":77575,"Delta":77921830},{"NoteNumber":57,"Velocity":29,"Duration":155151,"SoundDuration":155151,"Delta":77921830},{"NoteNumber":53,"Velocity":24,"Duration":155151,"SoundDuration":155151,"Delta":77921830},{"NoteNumber":74,"Velocity":37,"Duration":78822,"SoundDuration":78822,"Delta":78232132},{"NoteNumber":77,"Velocity":44,"Duration":78822,"SoundDuration":78822,"Delta":78232132},{"NoteNumber":71,"Velocity":41,"Duration":231505,"SoundDuration":231505,"Delta":78547424},{"NoteNumber":74,"Velocity":49,"Duration":231505,"SoundDuration":231505,"Delta":78547424},{"NoteNumber":55,"Velocity":34,"Duration":77168,"SoundDuration":77168,"Delta":78547424},{"NoteNumber":59,"Velocity":40,"Duration":77168,"SoundDuration":77168,"Delta":78547424},{"NoteNumber":55,"Velocity":28,"Duration":80549,"SoundDuration":80549,"Delta":78856097},{"NoteNumber":59,"Velocity":33,"Duration":80549,"SoundDuration":80549,"Delta":78856097},{"NoteNumber":72,"Velocity":53,"Duration":169770,"SoundDuration":169770,"Delta":79178297},{"NoteNumber":52,"Velocity":32,"Duration":154336,"SoundDuration":154336,"Delta":79178297},{"NoteNumber":55,"Velocity":38,"Duration":154336,"SoundDuration":154336,"Delta":79178297},{"NoteNumber":74,"Velocity":47,"Duration":169532,"SoundDuration":169532,"Delta":79332633},{"NoteNumber":76,"Velocity":53,"Duration":167156,"SoundDuration":167156,"Delta":79486970},{"NoteNumber":72,"Velocity":47,"Duration":167235,"SoundDuration":167235,"Delta":79638930},{"NoteNumber":69,"Velocity":50,"Duration":168024,"SoundDuration":168024,"Delta":79790891},{"NoteNumber":53,"Velocity":42,"Duration":913356,"SoundDuration":913356,"Delta":79790891},{"NoteNumber":71,"Velocity":53,"Duration":167867,"SoundDuration":167867,"Delta":79943640},{"NoteNumber":72,"Velocity":58,"Duration":166297,"SoundDuration":166297,"Delta":80096390},{"NoteNumber":73,"Velocity":62,"Duration":166454,"SoundDuration":166454,"Delta":80247569},{"NoteNumber":74,"Velocity":66,"Duration":168024,"SoundDuration":168024,"Delta":80398748},{"NoteNumber":76,"Velocity":56,"Duration":168024,"SoundDuration":168024,"Delta":80551498},{"NoteNumber":77,"Velocity":62,"Duration":168024,"SoundDuration":168024,"Delta":80704247},{"NoteNumber":50,"Velocity":38,"Duration":305498,"SoundDuration":305498,"Delta":80704247},{"NoteNumber":74,"Velocity":60,"Duration":168024,"SoundDuration":168024,"Delta":80856997},{"NoteNumber":72,"Velocity":67,"Duration":168024,"SoundDuration":168024,"Delta":81009746},{"NoteNumber":55,"Velocity":44,"Duration":305499,"SoundDuration":305499,"Delta":81009746},{"NoteNumber":71,"Velocity":62,"Duration":168599,"SoundDuration":168599,"Delta":81162496},{"NoteNumber":69,"Velocity":58,"Duration":174344,"SoundDuration":174344,"Delta":81315245},{"NoteNumber":67,"Velocity":47,"Duration":158495,"SoundDuration":158495,"Delta":81473740},{"NoteNumber":76,"Velocity":42,"Duration":79677,"SoundDuration":79677,"Delta":81632236},{"NoteNumber":79,"Velocity":50,"Duration":79677,"SoundDuration":79677,"Delta":81632236},{"NoteNumber":76,"Velocity":36,"Duration":79677,"SoundDuration":79677,"Delta":81950944},{"NoteNumber":79,"Velocity":43,"Duration":79677,"SoundDuration":79677,"Delta":81950944},{"NoteNumber":72,"Velocity":40,"Duration":232726,"SoundDuration":232726,"Delta":82269652},{"NoteNumber":76,"Velocity":48,"Duration":232726,"SoundDuration":232726,"Delta":82269652},{"NoteNumber":60,"Velocity":36,"Duration":77575,"SoundDuration":77575,"Delta":82269652},{"NoteNumber":57,"Velocity":30,"Duration":77575,"SoundDuration":77575,"Delta":82269652},{"NoteNumber":60,"Velocity":34,"Duration":79677,"SoundDuration":79677,"Delta":82579954},{"NoteNumber":57,"Velocity":28,"Duration":79677,"SoundDuration":79677,"Delta":82579954},{"NoteNumber":77,"Velocity":62,"Duration":78402,"SoundDuration":78402,"Delta":82898662},{"NoteNumber":81,"Velocity":62,"Duration":78402,"SoundDuration":78402,"Delta":82898662},{"NoteNumber":53,"Velocity":29,"Duration":156805,"SoundDuration":156805,"Delta":82898662},{"NoteNumber":50,"Velocity":24,"Duration":156805,"SoundDuration":156805,"Delta":82898662},{"NoteNumber":77,"Velocity":55,"Duration":79247,"SoundDuration":79247,"Delta":83212272},{"NoteNumber":81,"Velocity":55,"Duration":79247,"SoundDuration":79247,"Delta":83212272},{"NoteNumber":71,"Velocity":60,"Duration":235207,"SoundDuration":235207,"Delta":83529263},{"NoteNumber":74,"Velocity":60,"Duration":235207,"SoundDuration":235207,"Delta":83529263},{"NoteNumber":55,"Velocity":39,"Duration":78402,"SoundDuration":78402,"Delta":83529263},{"NoteNumber":59,"Velocity":46,"Duration":78402,"SoundDuration":78402,"Delta":83529263},{"NoteNumber":55,"Velocity":31,"Duration":80984,"SoundDuration":80984,"Delta":83842873},{"NoteNumber":59,"Velocity":37,"Duration":80984,"SoundDuration":80984,"Delta":83842873},{"NoteNumber":81,"Velocity":70,"Duration":171571,"SoundDuration":171571,"Delta":84166812},{"NoteNumber":48,"Velocity":37,"Duration":155973,"SoundDuration":155973,"Delta":84166812},{"NoteNumber":52,"Velocity":44,"Duration":155973,"SoundDuration":155973,"Delta":84166812},{"NoteNumber":79,"Velocity":67,"Duration":171571,"SoundDuration":171571,"Delta":84322786},{"NoteNumber":77,"Velocity":64,"Duration":171571,"SoundDuration":171571,"Delta":84478760},{"NoteNumber":76,"Velocity":61,"Duration":155973,"SoundDuration":155973,"Delta":84634733},{"NoteNumber":73,"Velocity":57,"Duration":168024,"SoundDuration":168024,"Delta":84790707},{"NoteNumber":57,"Velocity":42,"Duration":919671,"SoundDuration":919671,"Delta":84790707},{"NoteNumber":53,"Velocity":35,"Duration":919671,"SoundDuration":919671,"Delta":84790707},{"NoteNumber":74,"Velocity":58,"Duration":168024,"SoundDuration":168024,"Delta":84943457},{"NoteNumber":76,"Velocity":59,"Duration":168024,"SoundDuration":168024,"Delta":85096206},{"NoteNumber":77,"Velocity":56,"Duration":152749,"SoundDuration":152749,"Delta":85248956},{"NoteNumber":69,"Velocity":60,"Duration":154336,"SoundDuration":154336,"Delta":85401705},{"NoteNumber":72,"Velocity":52,"Duration":154336,"SoundDuration":154336,"Delta":85556042},{"NoteNumber":71,"Velocity":58,"Duration":154336,"SoundDuration":154336,"Delta":85710379},{"NoteNumber":65,"Velocity":43,"Duration":313690,"SoundDuration":313690,"Delta":85710379},{"NoteNumber":55,"Velocity":36,"Duration":313690,"SoundDuration":313690,"Delta":85710379},{"NoteNumber":74,"Velocity":50,"Duration":159353,"SoundDuration":159353,"Delta":85864715},{"NoteNumber":72,"Velocity":56,"Duration":325732,"SoundDuration":325732,"Delta":86024069},{"NoteNumber":64,"Velocity":51,"Duration":325732,"SoundDuration":325732,"Delta":86024069},{"NoteNumber":60,"Velocity":43,"Duration":325732,"SoundDuration":325732,"Delta":86024069},{"NoteNumber":48,"Velocity":47,"Duration":175479,"SoundDuration":175479,"Delta":86349802},{"NoteNumber":71,"Velocity":61,"Duration":154336,"SoundDuration":154336,"Delta":86700762},{"NoteNumber":53,"Velocity":44,"Duration":154336,"SoundDuration":154336,"Delta":86700762},{"NoteNumber":77,"Velocity":56,"Duration":154336,"SoundDuration":154336,"Delta":86855099},{"NoteNumber":59,"Velocity":38,"Duration":154336,"SoundDuration":154336,"Delta":86855099},{"NoteNumber":74,"Velocity":56,"Duration":151960,"SoundDuration":151960,"Delta":87009435},{"NoteNumber":55,"Velocity":38,"Duration":151960,"SoundDuration":151960,"Delta":87009435},{"NoteNumber":71,"Velocity":56,"Duration":163773,"SoundDuration":163773,"Delta":87161396},{"NoteNumber":59,"Velocity":38,"Duration":163773,"SoundDuration":163773,"Delta":87161396},{"NoteNumber":81,"Velocity":61,"Duration":151179,"SoundDuration":151179,"Delta":87325169},{"NoteNumber":52,"Velocity":44,"Duration":151179,"SoundDuration":151179,"Delta":87325169},{"NoteNumber":79,"Velocity":57,"Duration":151179,"SoundDuration":151179,"Delta":87476348},{"NoteNumber":60,"Velocity":39,"Duration":151179,"SoundDuration":151179,"Delta":87476348},{"NoteNumber":77,"Velocity":59,"Duration":151960,"SoundDuration":151960,"Delta":87627527},{"NoteNumber":55,"Velocity":41,"Duration":151960,"SoundDuration":151960,"Delta":87627527},{"NoteNumber":76,"Velocity":61,"Duration":160222,"SoundDuration":160222,"Delta":87779488},{"NoteNumber":60,"Velocity":42,"Duration":160222,"SoundDuration":160222,"Delta":87779488},{"NoteNumber":74,"Velocity":68,"Duration":154336,"SoundDuration":154336,"Delta":87939710},{"NoteNumber":53,"Velocity":48,"Duration":154336,"SoundDuration":154336,"Delta":87939710},{"NoteNumber":77,"Velocity":62,"Duration":154336,"SoundDuration":154336,"Delta":88094047},{"NoteNumber":59,"Velocity":41,"Duration":154336,"SoundDuration":154336,"Delta":88094047},{"NoteNumber":74,"Velocity":61,"Duration":152749,"SoundDuration":152749,"Delta":88248383},{"NoteNumber":55,"Velocity":41,"Duration":152749,"SoundDuration":152749,"Delta":88248383},{"NoteNumber":71,"Velocity":61,"Duration":161099,"SoundDuration":161099,"Delta":88401133},{"NoteNumber":59,"Velocity":42,"Duration":161099,"SoundDuration":161099,"Delta":88401133},{"NoteNumber":81,"Velocity":72,"Duration":151179,"SoundDuration":151179,"Delta":88562233},{"NoteNumber":52,"Velocity":51,"Duration":151179,"SoundDuration":151179,"Delta":88562233},{"NoteNumber":79,"Velocity":61,"Duration":151179,"SoundDuration":151179,"Delta":88713412},{"NoteNumber":60,"Velocity":44,"Duration":151179,"SoundDuration":151179,"Delta":88713412},{"NoteNumber":77,"Velocity":61,"Duration":151179,"SoundDuration":151179,"Delta":88864591},{"NoteNumber":55,"Velocity":44,"Duration":151179,"SoundDuration":151179,"Delta":88864591},{"NoteNumber":76,"Velocity":61,"Duration":167504,"SoundDuration":167504,"Delta":89015770},{"NoteNumber":60,"Velocity":44,"Duration":167504,"SoundDuration":167504,"Delta":89015770},{"NoteNumber":86,"Velocity":74,"Duration":151862,"SoundDuration":151862,"Delta":89183275},{"NoteNumber":53,"Velocity":53,"Duration":151862,"SoundDuration":151862,"Delta":89183275},{"NoteNumber":84,"Velocity":64,"Duration":152844,"SoundDuration":152844,"Delta":89335138},{"NoteNumber":62,"Velocity":44,"Duration":152844,"SoundDuration":152844,"Delta":89335138},{"NoteNumber":83,"Velocity":64,"Duration":154503,"SoundDuration":154503,"Delta":89487982},{"NoteNumber":57,"Velocity":44,"Duration":154503,"SoundDuration":154503,"Delta":89487982},{"NoteNumber":81,"Velocity":64,"Duration":154387,"SoundDuration":154387,"Delta":89642485},{"NoteNumber":62,"Velocity":44,"Duration":161099,"SoundDuration":161099,"Delta":89642485},{"NoteNumber":81,"Velocity":71,"Duration":153306,"SoundDuration":153306,"Delta":89803585},{"NoteNumber":55,"Velocity":51,"Duration":153306,"SoundDuration":153306,"Delta":89803585},{"NoteNumber":79,"Velocity":61,"Duration":154053,"SoundDuration":154053,"Delta":89956892},{"NoteNumber":64,"Velocity":44,"Duration":154053,"SoundDuration":154053,"Delta":89956892},{"NoteNumber":77,"Velocity":61,"Duration":77575,"SoundDuration":77575,"Delta":90110945},{"NoteNumber":60,"Velocity":44,"Duration":155445,"SoundDuration":155445,"Delta":90110945},{"NoteNumber":76,"Velocity":61,"Duration":81433,"SoundDuration":81433,"Delta":90266391},{"NoteNumber":64,"Velocity":44,"Duration":162866,"SoundDuration":162866,"Delta":90266391},{"NoteNumber":76,"Velocity":67,"Duration":156805,"SoundDuration":156805,"Delta":90429258},{"NoteNumber":55,"Velocity":50,"Duration":156805,"SoundDuration":156805,"Delta":90429258},{"NoteNumber":74,"Velocity":57,"Duration":156805,"SoundDuration":156805,"Delta":90586063},{"NoteNumber":65,"Velocity":41,"Duration":156805,"SoundDuration":156805,"Delta":90586063},{"NoteNumber":72,"Velocity":57,"Duration":78402,"SoundDuration":78402,"Delta":90742868},{"NoteNumber":62,"Velocity":41,"Duration":156805,"SoundDuration":156805,"Delta":90742868},{"NoteNumber":71,"Velocity":57,"Duration":90426,"SoundDuration":90426,"Delta":90899674},{"NoteNumber":65,"Velocity":44,"Duration":180853,"SoundDuration":180853,"Delta":90899674},{"NoteNumber":74,"Velocity":61,"Duration":329380,"SoundDuration":329380,"Delta":91080527},{"NoteNumber":60,"Velocity":44,"Duration":164690,"SoundDuration":164690,"Delta":91080527},{"NoteNumber":67,"Velocity":36,"Duration":164690,"SoundDuration":164690,"Delta":91245218},{"NoteNumber":72,"Velocity":57,"Duration":329380,"SoundDuration":329380,"Delta":91409908},{"NoteNumber":64,"Velocity":39,"Duration":164690,"SoundDuration":164690,"Delta":91409908},{"NoteNumber":67,"Velocity":36,"Duration":164690,"SoundDuration":164690,"Delta":91574599},{"NoteNumber":71,"Velocity":61,"Duration":155741,"SoundDuration":155741,"Delta":91739289},{"NoteNumber":53,"Velocity":44,"Duration":155741,"SoundDuration":155741,"Delta":91739289},{"NoteNumber":77,"Velocity":56,"Duration":154893,"SoundDuration":154893,"Delta":91895031},{"NoteNumber":59,"Velocity":38,"Duration":154893,"SoundDuration":154893,"Delta":91895031},{"NoteNumber":74,"Velocity":56,"Duration":153928,"SoundDuration":153928,"Delta":92049924},{"NoteNumber":55,"Velocity":38,"Duration":153928,"SoundDuration":153928,"Delta":92049924},{"NoteNumber":71,"Velocity":56,"Duration":163773,"SoundDuration":163773,"Delta":92203853},{"NoteNumber":59,"Velocity":38,"Duration":163773,"SoundDuration":163773,"Delta":92203853},{"NoteNumber":81,"Velocity":61,"Duration":153547,"SoundDuration":153547,"Delta":92367626},{"NoteNumber":52,"Velocity":44,"Duration":153547,"SoundDuration":153547,"Delta":92367626},{"NoteNumber":79,"Velocity":57,"Duration":153547,"SoundDuration":153547,"Delta":92521173},{"NoteNumber":60,"Velocity":39,"Duration":153547,"SoundDuration":153547,"Delta":92521173},{"NoteNumber":77,"Velocity":59,"Duration":151960,"SoundDuration":151960,"Delta":92674720},{"NoteNumber":55,"Velocity":41,"Duration":151960,"SoundDuration":151960,"Delta":92674720},{"NoteNumber":76,"Velocity":61,"Duration":160222,"SoundDuration":160222,"Delta":92826680},{"NoteNumber":60,"Velocity":42,"Duration":160222,"SoundDuration":160222,"Delta":92826680},{"NoteNumber":74,"Velocity":68,"Duration":154336,"SoundDuration":154336,"Delta":92986902},{"NoteNumber":53,"Velocity":48,"Duration":154336,"SoundDuration":154336,"Delta":92986902},{"NoteNumber":77,"Velocity":62,"Duration":154336,"SoundDuration":154336,"Delta":93141239},{"NoteNumber":59,"Velocity":41,"Duration":154336,"SoundDuration":154336,"Delta":93141239},{"NoteNumber":74,"Velocity":61,"Duration":151960,"SoundDuration":151960,"Delta":93295576},{"NoteNumber":55,"Velocity":41,"Duration":151960,"SoundDuration":151960,"Delta":93295576},{"NoteNumber":71,"Velocity":61,"Duration":161099,"SoundDuration":161099,"Delta":93447536},{"NoteNumber":59,"Velocity":42,"Duration":161099,"SoundDuration":161099,"Delta":93447536},{"NoteNumber":81,"Velocity":72,"Duration":153547,"SoundDuration":153547,"Delta":93608636},{"NoteNumber":52,"Velocity":51,"Duration":153547,"SoundDuration":153547,"Delta":93608636},{"NoteNumber":79,"Velocity":61,"Duration":153547,"SoundDuration":153547,"Delta":93762183},{"NoteNumber":60,"Velocity":44,"Duration":153547,"SoundDuration":153547,"Delta":93762183},{"NoteNumber":77,"Velocity":61,"Duration":153546,"SoundDuration":153546,"Delta":93915730},{"NoteNumber":55,"Velocity":44,"Duration":153546,"SoundDuration":153546,"Delta":93915730},{"NoteNumber":76,"Velocity":61,"Duration":167504,"SoundDuration":167504,"Delta":94069277},{"NoteNumber":60,"Velocity":44,"Duration":167504,"SoundDuration":167504,"Delta":94069277},{"NoteNumber":86,"Velocity":77,"Duration":151862,"SoundDuration":151862,"Delta":94236781},{"NoteNumber":53,"Velocity":53,"Duration":151862,"SoundDuration":151862,"Delta":94236781},{"NoteNumber":84,"Velocity":64,"Duration":152844,"SoundDuration":152844,"Delta":94388644},{"NoteNumber":62,"Velocity":46,"Duration":152844,"SoundDuration":152844,"Delta":94388644},{"NoteNumber":83,"Velocity":64,"Duration":154503,"SoundDuration":154503,"Delta":94541488},{"NoteNumber":57,"Velocity":46,"Duration":154503,"SoundDuration":154503,"Delta":94541488},{"NoteNumber":81,"Velocity":64,"Duration":154387,"SoundDuration":154387,"Delta":94695992},{"NoteNumber":62,"Velocity":46,"Duration":161099,"SoundDuration":161099,"Delta":94695992},{"NoteNumber":81,"Velocity":80,"Duration":153306,"SoundDuration":153306,"Delta":94857091},{"NoteNumber":55,"Velocity":51,"Duration":153306,"SoundDuration":153306,"Delta":94857091},{"NoteNumber":79,"Velocity":69,"Duration":154053,"SoundDuration":154053,"Delta":95010398},{"NoteNumber":64,"Velocity":48,"Duration":154053,"SoundDuration":154053,"Delta":95010398},{"NoteNumber":77,"Velocity":70,"Duration":77575,"SoundDuration":77575,"Delta":95164452},{"NoteNumber":60,"Velocity":49,"Duration":155445,"SoundDuration":155445,"Delta":95164452},{"NoteNumber":76,"Velocity":71,"Duration":81433,"SoundDuration":81433,"Delta":95319898},{"NoteNumber":64,"Velocity":51,"Duration":162866,"SoundDuration":162866,"Delta":95319898},{"NoteNumber":76,"Velocity":83,"Duration":156805,"SoundDuration":156805,"Delta":95482764},{"NoteNumber":55,"Velocity":57,"Duration":156805,"SoundDuration":156805,"Delta":95482764},{"NoteNumber":74,"Velocity":71,"Duration":156805,"SoundDuration":156805,"Delta":95639569},{"NoteNumber":65,"Velocity":51,"Duration":156805,"SoundDuration":156805,"Delta":95639569},{"NoteNumber":72,"Velocity":69,"Duration":78402,"SoundDuration":78402,"Delta":95796375},{"NoteNumber":62,"Velocity":55,"Duration":156805,"SoundDuration":156805,"Delta":95796375},{"NoteNumber":71,"Velocity":75,"Duration":85694,"SoundDuration":85694,"Delta":95953180},{"NoteNumber":65,"Velocity":58,"Duration":168189,"SoundDuration":168189,"Delta":95953180},{"NoteNumber":72,"Velocity":86,"Duration":151179,"SoundDuration":151179,"Delta":96121369},{"NoteNumber":60,"Velocity":67,"Duration":151179,"SoundDuration":151179,"Delta":96121369},{"NoteNumber":76,"Velocity":75,"Duration":150992,"SoundDuration":150992,"Delta":96272549},{"NoteNumber":64,"Velocity":58,"Duration":150992,"SoundDuration":150992,"Delta":96272549},{"NoteNumber":67,"Velocity":80,"Duration":150406,"SoundDuration":150406,"Delta":96423541},{"NoteNumber":55,"Velocity":60,"Duration":150406,"SoundDuration":150406,"Delta":96423541},{"NoteNumber":72,"Velocity":75,"Duration":155151,"SoundDuration":155151,"Delta":96573947},{"NoteNumber":60,"Velocity":56,"Duration":155151,"SoundDuration":155151,"Delta":96573947},{"NoteNumber":64,"Velocity":80,"Duration":151179,"SoundDuration":151179,"Delta":96729098},{"NoteNumber":52,"Velocity":62,"Duration":151179,"SoundDuration":151179,"Delta":96729098},{"NoteNumber":67,"Velocity":75,"Duration":151179,"SoundDuration":151179,"Delta":96880277},{"NoteNumber":55,"Velocity":55,"Duration":151179,"SoundDuration":151179,"Delta":96880277},{"NoteNumber":60,"Velocity":80,"Duration":151179,"SoundDuration":151179,"Delta":97031457},{"NoteNumber":48,"Velocity":58,"Duration":151179,"SoundDuration":151179,"Delta":97031457},{"NoteNumber":64,"Velocity":75,"Duration":165617,"SoundDuration":165617,"Delta":97182636},{"NoteNumber":52,"Velocity":49,"Duration":165617,"SoundDuration":165617,"Delta":97182636},{"NoteNumber":67,"Velocity":71,"Duration":155151,"SoundDuration":155151,"Delta":97348254},{"NoteNumber":55,"Velocity":63,"Duration":307111,"SoundDuration":307111,"Delta":97348254},{"NoteNumber":72,"Velocity":73,"Duration":151960,"SoundDuration":151960,"Delta":97503405},{"NoteNumber":72,"Velocity":62,"Duration":151960,"SoundDuration":151960,"Delta":97655365},{"NoteNumber":76,"Velocity":74,"Duration":151960,"SoundDuration":151960,"Delta":97655365},{"NoteNumber":76,"Velocity":63,"Duration":130057,"SoundDuration":130057,"Delta":97807325},{"NoteNumber":79,"Velocity":77,"Duration":130057,"SoundDuration":130057,"Delta":97807325},{"NoteNumber":76,"Velocity":67,"Duration":159353,"SoundDuration":159353,"Delta":97980736},{"NoteNumber":79,"Velocity":80,"Duration":159353,"SoundDuration":159353,"Delta":97980736},{"NoteNumber":43,"Velocity":63,"Duration":318708,"SoundDuration":318708,"Delta":97980736},{"NoteNumber":74,"Velocity":63,"Duration":159354,"SoundDuration":159354,"Delta":98140090},{"NoteNumber":77,"Velocity":75,"Duration":159354,"SoundDuration":159354,"Delta":98140090},{"NoteNumber":72,"Velocity":62,"Duration":77986,"SoundDuration":77986,"Delta":98299444},{"NoteNumber":76,"Velocity":74,"Duration":77986,"SoundDuration":77986,"Delta":98299444},{"NoteNumber":71,"Velocity":61,"Duration":77986,"SoundDuration":77986,"Delta":98455417},{"NoteNumber":74,"Velocity":73,"Duration":77986,"SoundDuration":77986,"Delta":98455417},{"NoteNumber":72,"Velocity":83,"Duration":154053,"SoundDuration":154053,"Delta":98611132},{"NoteNumber":60,"Velocity":67,"Duration":154053,"SoundDuration":154053,"Delta":98611132},{"NoteNumber":76,"Velocity":73,"Duration":152916,"SoundDuration":152916,"Delta":98765186},{"NoteNumber":64,"Velocity":56,"Duration":152916,"SoundDuration":152916,"Delta":98765186},{"NoteNumber":67,"Velocity":77,"Duration":151960,"SoundDuration":151960,"Delta":98918102},{"NoteNumber":55,"Velocity":60,"Duration":151960,"SoundDuration":151960,"Delta":98918102},{"NoteNumber":72,"Velocity":72,"Duration":151960,"SoundDuration":151960,"Delta":99070062},{"NoteNumber":60,"Velocity":56,"Duration":151960,"SoundDuration":151960,"Delta":99070062},{"NoteNumber":64,"Velocity":83,"Duration":155151,"SoundDuration":155151,"Delta":99222022},{"NoteNumber":52,"Velocity":64,"Duration":155151,"SoundDuration":155151,"Delta":99222022},{"NoteNumber":67,"Velocity":71,"Duration":152749,"SoundDuration":152749,"Delta":99377173},{"NoteNumber":55,"Velocity":56,"Duration":152749,"SoundDuration":152749,"Delta":99377173},{"NoteNumber":60,"Velocity":78,"Duration":152749,"SoundDuration":152749,"Delta":99529923},{"NoteNumber":48,"Velocity":60,"Duration":152749,"SoundDuration":152749,"Delta":99529923},{"NoteNumber":64,"Velocity":74,"Duration":165617,"SoundDuration":165617,"Delta":99682672},{"NoteNumber":52,"Velocity":53,"Duration":165617,"SoundDuration":165617,"Delta":99682672},{"NoteNumber":67,"Velocity":71,"Duration":155151,"SoundDuration":155151,"Delta":99848290},{"NoteNumber":55,"Velocity":67,"Duration":310301,"SoundDuration":310301,"Delta":99848290},{"NoteNumber":72,"Velocity":73,"Duration":155150,"SoundDuration":155150,"Delta":100003441},{"NoteNumber":72,"Velocity":62,"Duration":155151,"SoundDuration":155151,"Delta":100158592},{"NoteNumber":76,"Velocity":74,"Duration":155151,"SoundDuration":155151,"Delta":100158592},{"NoteNumber":76,"Velocity":63,"Duration":130057,"SoundDuration":130057,"Delta":100313743},{"NoteNumber":79,"Velocity":77,"Duration":130057,"SoundDuration":130057,"Delta":100313743},{"NoteNumber":76,"Velocity":67,"Duration":159353,"SoundDuration":159353,"Delta":100487154},{"NoteNumber":79,"Velocity":80,"Duration":159353,"SoundDuration":159353,"Delta":100487154},{"NoteNumber":43,"Velocity":63,"Duration":318708,"SoundDuration":318708,"Delta":100487154},{"NoteNumber":74,"Velocity":63,"Duration":159354,"SoundDuration":159354,"Delta":100646508},{"NoteNumber":77,"Velocity":75,"Duration":159354,"SoundDuration":159354,"Delta":100646508},{"NoteNumber":72,"Velocity":62,"Duration":79677,"SoundDuration":79677,"Delta":100805862},{"NoteNumber":76,"Velocity":74,"Duration":79677,"SoundDuration":79677,"Delta":100805862},{"NoteNumber":71,"Velocity":61,"Duration":89874,"SoundDuration":89874,"Delta":100965216},{"NoteNumber":74,"Velocity":73,"Duration":89874,"SoundDuration":89874,"Delta":100965216},{"NoteNumber":72,"Velocity":88,"Duration":332005,"SoundDuration":332005,"Delta":101144964},{"NoteNumber":36,"Velocity":59,"Duration":332005,"SoundDuration":332005,"Delta":101144964},{"NoteNumber":48,"Velocity":71,"Duration":332005,"SoundDuration":332005,"Delta":101144964},{"NoteNumber":84,"Velocity":80,"Duration":269913,"SoundDuration":269913,"Delta":101476969},{"NoteNumber":79,"Velocity":67,"Duration":269913,"SoundDuration":269913,"Delta":101476969},{"NoteNumber":76,"Velocity":67,"Duration":269913,"SoundDuration":269913,"Delta":101476969},{"NoteNumber":40,"Velocity":53,"Duration":269913,"SoundDuration":269913,"Delta":101476969},{"NoteNumber":52,"Velocity":63,"Duration":269913,"SoundDuration":269913,"Delta":101476969},{"NoteNumber":64,"Velocity":72,"Duration":296599,"SoundDuration":296599,"Delta":101836854},{"NoteNumber":72,"Velocity":85,"Duration":296599,"SoundDuration":296599,"Delta":101836854},{"NoteNumber":43,"Velocity":59,"Duration":296599,"SoundDuration":296599,"Delta":101836854},{"NoteNumber":55,"Velocity":71,"Duration":296599,"SoundDuration":296599,"Delta":101836854},{"NoteNumber":64,"Velocity":67,"Duration":344247,"SoundDuration":344247,"Delta":102232320},{"NoteNumber":72,"Velocity":83,"Duration":344247,"SoundDuration":344247,"Delta":102232320},{"NoteNumber":40,"Velocity":53,"Duration":344247,"SoundDuration":344247,"Delta":102232320},{"NoteNumber":52,"Velocity":63,"Duration":344247,"SoundDuration":344247,"Delta":102232320},{"NoteNumber":64,"Velocity":73,"Duration":917992,"SoundDuration":917992,"Delta":102691316},{"NoteNumber":72,"Velocity":86,"Duration":917992,"SoundDuration":917992,"Delta":102691316},{"NoteNumber":36,"Velocity":61,"Duration":917992,"SoundDuration":917992,"Delta":102691316},{"NoteNumber":48,"Velocity":73,"Duration":917992,"SoundDuration":917992,"Delta":102691316}]}