{"title":"Klaviersonate Nr. 12 KV 332 1. Satz","artist":"Piano","durationMs":570728,"midiSha256":"fabbc041d07f9382d3f9e8e103169ac37a08bcb6f5ee2e6a9b4bddde99e9c71e","midiObject":[{"NoteNumber":65,"Velocity":50,"Duration":821856,"SoundDuration":821856,"Delta":0},{"NoteNumber":53,"Velocity":40,"Duration":211521,"SoundDuration":211521,"Delta":0},{"NoteNumber":57,"Velocity":30,"Duration":203445,"SoundDuration":203445,"Delta":211521},{"NoteNumber":60,"Velocity":33,"Duration":203445,"SoundDuration":203445,"Delta":414966},{"NoteNumber":57,"Velocity":30,"Duration":203445,"SoundDuration":203445,"Delta":618411},{"NoteNumber":69,"Velocity":47,"Duration":416664,"SoundDuration":416664,"Delta":821856},{"NoteNumber":60,"Velocity":34,"Duration":203444,"SoundDuration":203444,"Delta":821856},{"NoteNumber":57,"Velocity":30,"Duration":213219,"SoundDuration":213219,"Delta":1025301},{"NoteNumber":72,"Velocity":52,"Duration":816946,"SoundDuration":816946,"Delta":1238520},{"NoteNumber":53,"Velocity":40,"Duration":206611,"SoundDuration":206611,"Delta":1238520},{"NoteNumber":60,"Velocity":29,"Duration":203445,"SoundDuration":203445,"Delta":1445131},{"NoteNumber":63,"Velocity":31,"Duration":203444,"SoundDuration":203444,"Delta":1648577},{"NoteNumber":60,"Velocity":27,"Duration":203445,"SoundDuration":203445,"Delta":1852021},{"NoteNumber":69,"Velocity":46,"Duration":414965,"SoundDuration":414965,"Delta":2055467},{"NoteNumber":63,"Velocity":31,"Duration":203444,"SoundDuration":203444,"Delta":2055467},{"NoteNumber":60,"Velocity":28,"Duration":211520,"SoundDuration":211520,"Delta":2258912},{"NoteNumber":70,"Velocity":50,"Duration":826445,"SoundDuration":826445,"Delta":2470433},{"NoteNumber":53,"Velocity":40,"Duration":206611,"SoundDuration":206611,"Delta":2470433},{"NoteNumber":58,"Velocity":30,"Duration":206611,"SoundDuration":206611,"Delta":2677044},{"NoteNumber":62,"Velocity":33,"Duration":206611,"SoundDuration":206611,"Delta":2883656},{"NoteNumber":58,"Velocity":30,"Duration":206611,"SoundDuration":206611,"Delta":3090267},{"NoteNumber":79,"Velocity":47,"Duration":419726,"SoundDuration":419726,"Delta":3296878},{"NoteNumber":62,"Velocity":33,"Duration":209863,"SoundDuration":209863,"Delta":3296878},{"NoteNumber":58,"Velocity":30,"Duration":209863,"SoundDuration":209863,"Delta":3506742},{"NoteNumber":77,"Velocity":47,"Duration":203444,"SoundDuration":203444,"Delta":3716605},{"NoteNumber":53,"Velocity":40,"Duration":203444,"SoundDuration":203444,"Delta":3716605},{"NoteNumber":76,"Velocity":44,"Duration":209863,"SoundDuration":209863,"Delta":3920050},{"NoteNumber":55,"Velocity":23,"Duration":209863,"SoundDuration":209863,"Delta":3920050},{"NoteNumber":76,"Velocity":44,"Duration":419726,"SoundDuration":419726,"Delta":4129914},{"NoteNumber":58,"Velocity":28,"Duration":209863,"SoundDuration":209863,"Delta":4129914},{"NoteNumber":55,"Velocity":24,"Duration":209863,"SoundDuration":209863,"Delta":4339778},{"NoteNumber":58,"Velocity":29,"Duration":208231,"SoundDuration":208231,"Delta":4549641},{"NoteNumber":55,"Velocity":24,"Duration":214946,"SoundDuration":214946,"Delta":4757873},{"NoteNumber":77,"Velocity":50,"Duration":419753,"SoundDuration":419753,"Delta":4972819},{"NoteNumber":53,"Velocity":30,"Duration":419753,"SoundDuration":419753,"Delta":4972819},{"NoteNumber":57,"Velocity":30,"Duration":419753,"SoundDuration":419753,"Delta":4972819},{"NoteNumber":69,"Velocity":46,"Duration":416464,"SoundDuration":416464,"Delta":5392572},{"NoteNumber":74,"Velocity":46,"Duration":419753,"SoundDuration":419753,"Delta":5809036},{"NoteNumber":67,"Velocity":50,"Duration":423041,"SoundDuration":423041,"Delta":6228789},{"NoteNumber":72,"Velocity":54,"Duration":629683,"SoundDuration":629683,"Delta":6651831},{"NoteNumber":69,"Velocity":45,"Duration":213219,"SoundDuration":213219,"Delta":7281515},{"NoteNumber":65,"Velocity":50,"Duration":1665855,"SoundDuration":1665855,"Delta":7494734},{"NoteNumber":53,"Velocity":47,"Duration":416463,"SoundDuration":416463,"Delta":7494734},{"NoteNumber":45,"Velocity":44,"Duration":416463,"SoundDuration":416463,"Delta":7911198},{"NoteNumber":50,"Velocity":48,"Duration":416464,"SoundDuration":416464,"Delta":8327662},{"NoteNumber":67,"Velocity":50,"Duration":1255969,"SoundDuration":1255969,"Delta":8744126},{"NoteNumber":43,"Velocity":48,"Duration":416463,"SoundDuration":416463,"Delta":8744126},{"NoteNumber":64,"Velocity":42,"Duration":52058,"SoundDuration":52058,"Delta":9160590},{"NoteNumber":48,"Velocity":49,"Duration":627984,"SoundDuration":627984,"Delta":9160590},{"NoteNumber":65,"Velocity":37,"Duration":52057,"SoundDuration":52057,"Delta":9212648},{"NoteNumber":64,"Velocity":48,"Duration":104116,"SoundDuration":104116,"Delta":9264706},{"NoteNumber":62,"Velocity":48,"Duration":208231,"SoundDuration":208231,"Delta":9368822},{"NoteNumber":64,"Velocity":50,"Duration":423042,"SoundDuration":423042,"Delta":9577054},{"NoteNumber":45,"Velocity":47,"Duration":211521,"SoundDuration":211521,"Delta":9788575},{"NoteNumber":69,"Velocity":48,"Duration":419726,"SoundDuration":419726,"Delta":10000096},{"NoteNumber":65,"Velocity":48,"Duration":1654726,"SoundDuration":1654726,"Delta":10000096},{"NoteNumber":41,"Velocity":52,"Duration":419726,"SoundDuration":419726,"Delta":10000096},{"NoteNumber":70,"Velocity":52,"Duration":410059,"SoundDuration":410059,"Delta":10419823},{"NoteNumber":50,"Velocity":40,"Duration":410059,"SoundDuration":410059,"Delta":10419823},{"NoteNumber":74,"Velocity":55,"Duration":416463,"SoundDuration":416463,"Delta":10829883},{"NoteNumber":46,"Velocity":44,"Duration":416463,"SoundDuration":416463,"Delta":10829883},{"NoteNumber":74,"Velocity":58,"Duration":205030,"SoundDuration":205030,"Delta":11246347},{"NoteNumber":45,"Velocity":47,"Duration":408475,"SoundDuration":408475,"Delta":11246347},{"NoteNumber":72,"Velocity":57,"Duration":203445,"SoundDuration":203445,"Delta":11451377},{"NoteNumber":70,"Velocity":56,"Duration":203445,"SoundDuration":203445,"Delta":11654822},{"NoteNumber":69,"Velocity":54,"Duration":203444,"SoundDuration":203444,"Delta":11858267},{"NoteNumber":67,"Velocity":53,"Duration":203445,"SoundDuration":203445,"Delta":12061712},{"NoteNumber":50,"Velocity":40,"Duration":410056,"SoundDuration":410056,"Delta":12061712},{"NoteNumber":65,"Velocity":51,"Duration":206611,"SoundDuration":206611,"Delta":12265157},{"NoteNumber":67,"Velocity":54,"Duration":403822,"SoundDuration":403822,"Delta":12471768},{"NoteNumber":46,"Velocity":40,"Duration":403822,"SoundDuration":403822,"Delta":12471768},{"NoteNumber":70,"Velocity":50,"Duration":104931,"SoundDuration":104931,"Delta":12875591},{"NoteNumber":58,"Velocity":54,"Duration":426439,"SoundDuration":426439,"Delta":13295318},{"NoteNumber":64,"Velocity":54,"Duration":426439,"SoundDuration":426439,"Delta":13295318},{"NoteNumber":48,"Velocity":41,"Duration":426439,"SoundDuration":426439,"Delta":13295318},{"NoteNumber":65,"Velocity":56,"Duration":416463,"SoundDuration":416463,"Delta":13721757},{"NoteNumber":57,"Velocity":56,"Duration":416463,"SoundDuration":416463,"Delta":13721757},{"NoteNumber":41,"Velocity":43,"Duration":416463,"SoundDuration":416463,"Delta":13721757},{"NoteNumber":84,"Velocity":50,"Duration":312348,"SoundDuration":312348,"Delta":14554685},{"NoteNumber":72,"Velocity":40,"Duration":312348,"SoundDuration":312348,"Delta":14554685},{"NoteNumber":69,"Velocity":32,"Duration":312348,"SoundDuration":312348,"Delta":14554685},{"NoteNumber":82,"Velocity":44,"Duration":108350,"SoundDuration":108350,"Delta":14867033},{"NoteNumber":67,"Velocity":28,"Duration":108350,"SoundDuration":108350,"Delta":14867033},{"NoteNumber":70,"Velocity":35,"Duration":108350,"SoundDuration":108350,"Delta":14867033},{"NoteNumber":81,"Velocity":50,"Duration":104115,"SoundDuration":104115,"Delta":14975384},{"NoteNumber":69,"Velocity":40,"Duration":104115,"SoundDuration":104115,"Delta":14975384},{"NoteNumber":65,"Velocity":32,"Duration":104115,"SoundDuration":104115,"Delta":14975384},{"NoteNumber":81,"Velocity":50,"Duration":104116,"SoundDuration":104116,"Delta":15391848},{"NoteNumber":65,"Velocity":32,"Duration":104116,"SoundDuration":104116,"Delta":15391848},{"NoteNumber":69,"Velocity":40,"Duration":104116,"SoundDuration":104116,"Delta":15391848},{"NoteNumber":81,"Velocity":47,"Duration":312347,"SoundDuration":312347,"Delta":15812546},{"NoteNumber":65,"Velocity":29,"Duration":312347,"SoundDuration":312347,"Delta":15812546},{"NoteNumber":69,"Velocity":37,"Duration":312347,"SoundDuration":312347,"Delta":15812546},{"NoteNumber":79,"Velocity":42,"Duration":104116,"SoundDuration":104116,"Delta":16124894},{"NoteNumber":67,"Velocity":33,"Duration":104116,"SoundDuration":104116,"Delta":16124894},{"NoteNumber":60,"Velocity":26,"Duration":104116,"SoundDuration":104116,"Delta":16124894},{"NoteNumber":77,"Velocity":48,"Duration":104116,"SoundDuration":104116,"Delta":16229010},{"NoteNumber":65,"Velocity":38,"Duration":104116,"SoundDuration":104116,"Delta":16229010},{"NoteNumber":57,"Velocity":30,"Duration":104116,"SoundDuration":104116,"Delta":16229010},{"NoteNumber":77,"Velocity":44,"Duration":104115,"SoundDuration":104115,"Delta":16645474},{"NoteNumber":65,"Velocity":35,"Duration":104115,"SoundDuration":104115,"Delta":16645474},{"NoteNumber":57,"Velocity":28,"Duration":104115,"SoundDuration":104115,"Delta":16645474},{"NoteNumber":77,"Velocity":44,"Duration":416464,"SoundDuration":416464,"Delta":17065227},{"NoteNumber":65,"Velocity":35,"Duration":416464,"SoundDuration":416464,"Delta":17065227},{"NoteNumber":57,"Velocity":28,"Duration":416464,"SoundDuration":416464,"Delta":17065227},{"NoteNumber":76,"Velocity":46,"Duration":104115,"SoundDuration":104115,"Delta":17481691},{"NoteNumber":79,"Velocity":46,"Duration":104115,"SoundDuration":104115,"Delta":17481691},{"NoteNumber":60,"Velocity":28,"Duration":104115,"SoundDuration":104115,"Delta":17481691},{"NoteNumber":67,"Velocity":36,"Duration":104115,"SoundDuration":104115,"Delta":17481691},{"NoteNumber":76,"Velocity":44,"Duration":104116,"SoundDuration":104116,"Delta":17898155},{"NoteNumber":79,"Velocity":44,"Duration":104116,"SoundDuration":104116,"Delta":17898155},{"NoteNumber":67,"Velocity":35,"Duration":104116,"SoundDuration":104116,"Delta":17898155},{"NoteNumber":60,"Velocity":28,"Duration":104116,"SoundDuration":104116,"Delta":17898155},{"NoteNumber":79,"Velocity":44,"Duration":105760,"SoundDuration":105760,"Delta":18314619},{"NoteNumber":76,"Velocity":44,"Duration":105760,"SoundDuration":105760,"Delta":18314619},{"NoteNumber":60,"Velocity":28,"Duration":105760,"SoundDuration":105760,"Delta":18314619},{"NoteNumber":67,"Velocity":35,"Duration":105760,"SoundDuration":105760,"Delta":18314619},{"NoteNumber":76,"Velocity":50,"Duration":416464,"SoundDuration":416464,"Delta":18737661},{"NoteNumber":79,"Velocity":50,"Duration":416464,"SoundDuration":416464,"Delta":18737661},{"NoteNumber":67,"Velocity":40,"Duration":416464,"SoundDuration":416464,"Delta":18737661},{"NoteNumber":60,"Velocity":32,"Duration":416464,"SoundDuration":416464,"Delta":18737661},{"NoteNumber":81,"Velocity":44,"Duration":422564,"SoundDuration":422564,"Delta":19154125},{"NoteNumber":77,"Velocity":44,"Duration":422564,"SoundDuration":422564,"Delta":19154125},{"NoteNumber":69,"Velocity":35,"Duration":422564,"SoundDuration":422564,"Delta":19154125},{"NoteNumber":65,"Velocity":28,"Duration":422564,"SoundDuration":422564,"Delta":19154125},{"NoteNumber":84,"Velocity":50,"Duration":97770,"SoundDuration":97770,"Delta":19576690},{"NoteNumber":72,"Velocity":40,"Duration":293312,"SoundDuration":293312,"Delta":19576690},{"NoteNumber":69,"Velocity":32,"Duration":293312,"SoundDuration":293312,"Delta":19576690},{"NoteNumber":86,"Velocity":44,"Duration":97770,"SoundDuration":97770,"Delta":19674461},{"NoteNumber":84,"Velocity":44,"Duration":97770,"SoundDuration":97770,"Delta":19772232},{"NoteNumber":82,"Velocity":44,"Duration":97770,"SoundDuration":97770,"Delta":19870002},{"NoteNumber":70,"Velocity":35,"Duration":97770,"SoundDuration":97770,"Delta":19870002},{"NoteNumber":67,"Velocity":28,"Duration":97770,"SoundDuration":97770,"Delta":19870002},{"NoteNumber":81,"Velocity":50,"Duration":104116,"SoundDuration":104116,"Delta":19967773},{"NoteNumber":65,"Velocity":32,"Duration":104116,"SoundDuration":104116,"Delta":19967773},{"NoteNumber":69,"Velocity":40,"Duration":104116,"SoundDuration":104116,"Delta":19967773},{"NoteNumber":81,"Velocity":50,"Duration":104115,"SoundDuration":104115,"Delta":20384237},{"NoteNumber":65,"Velocity":32,"Duration":104115,"SoundDuration":104115,"Delta":20384237},{"NoteNumber":69,"Velocity":40,"Duration":104115,"SoundDuration":104115,"Delta":20384237},{"NoteNumber":81,"Velocity":47,"Duration":95828,"SoundDuration":95828,"Delta":20800701},{"NoteNumber":69,"Velocity":37,"Duration":287484,"SoundDuration":287484,"Delta":20800701},{"NoteNumber":65,"Velocity":29,"Duration":287484,"SoundDuration":287484,"Delta":20800701},{"NoteNumber":82,"Velocity":42,"Duration":95828,"SoundDuration":95828,"Delta":20896529},{"NoteNumber":81,"Velocity":42,"Duration":95828,"SoundDuration":95828,"Delta":20992357},{"NoteNumber":79,"Velocity":42,"Duration":95828,"SoundDuration":95828,"Delta":21088186},{"NoteNumber":67,"Velocity":33,"Duration":95828,"SoundDuration":95828,"Delta":21088186},{"NoteNumber":60,"Velocity":26,"Duration":95828,"SoundDuration":95828,"Delta":21088186},{"NoteNumber":77,"Velocity":48,"Duration":104116,"SoundDuration":104116,"Delta":21184014},{"NoteNumber":65,"Velocity":38,"Duration":104116,"SoundDuration":104116,"Delta":21184014},{"NoteNumber":57,"Velocity":30,"Duration":104116,"SoundDuration":104116,"Delta":21184014},{"NoteNumber":77,"Velocity":44,"Duration":104115,"SoundDuration":104115,"Delta":21600478},{"NoteNumber":57,"Velocity":28,"Duration":104115,"SoundDuration":104115,"Delta":21600478},{"NoteNumber":65,"Velocity":35,"Duration":104115,"SoundDuration":104115,"Delta":21600478},{"NoteNumber":77,"Velocity":44,"Duration":104116,"SoundDuration":104116,"Delta":22016942},{"NoteNumber":57,"Velocity":28,"Duration":104116,"SoundDuration":104116,"Delta":22016942},{"NoteNumber":65,"Velocity":35,"Duration":104116,"SoundDuration":104116,"Delta":22016942},{"NoteNumber":79,"Velocity":49,"Duration":410060,"SoundDuration":410060,"Delta":22433406},{"NoteNumber":67,"Velocity":37,"Duration":410060,"SoundDuration":410060,"Delta":22433406},{"NoteNumber":60,"Velocity":29,"Duration":410060,"SoundDuration":410060,"Delta":22433406},{"NoteNumber":82,"Velocity":44,"Duration":109234,"SoundDuration":109234,"Delta":22843466},{"NoteNumber":76,"Velocity":44,"Duration":423041,"SoundDuration":423041,"Delta":23280402},{"NoteNumber":70,"Velocity":35,"Duration":423041,"SoundDuration":423041,"Delta":23280402},{"NoteNumber":60,"Velocity":28,"Duration":423041,"SoundDuration":423041,"Delta":23280402},{"NoteNumber":67,"Velocity":35,"Duration":423041,"SoundDuration":423041,"Delta":23280402},{"NoteNumber":69,"Velocity":38,"Duration":423042,"SoundDuration":423042,"Delta":23703444},{"NoteNumber":77,"Velocity":48,"Duration":423042,"SoundDuration":423042,"Delta":23703444},{"NoteNumber":65,"Velocity":39,"Duration":423042,"SoundDuration":423042,"Delta":23703444},{"NoteNumber":84,"Velocity":44,"Duration":423041,"SoundDuration":423041,"Delta":24549528},{"NoteNumber":70,"Velocity":35,"Duration":423041,"SoundDuration":423041,"Delta":24549528},{"NoteNumber":60,"Velocity":28,"Duration":423041,"SoundDuration":423041,"Delta":24549528},{"NoteNumber":64,"Velocity":28,"Duration":423041,"SoundDuration":423041,"Delta":24549528},{"NoteNumber":77,"Velocity":48,"Duration":423041,"SoundDuration":423041,"Delta":24972570},{"NoteNumber":69,"Velocity":39,"Duration":423041,"SoundDuration":423041,"Delta":24972570},{"NoteNumber":65,"Velocity":31,"Duration":423041,"SoundDuration":423041,"Delta":24972570},{"NoteNumber":72,"Velocity":39,"Duration":423041,"SoundDuration":423041,"Delta":25818654},{"NoteNumber":58,"Velocity":31,"Duration":423041,"SoundDuration":423041,"Delta":25818654},{"NoteNumber":52,"Velocity":25,"Duration":423041,"SoundDuration":423041,"Delta":25818654},{"NoteNumber":48,"Velocity":25,"Duration":423041,"SoundDuration":423041,"Delta":25818654},{"NoteNumber":65,"Velocity":43,"Duration":423041,"SoundDuration":423041,"Delta":26241696},{"NoteNumber":53,"Velocity":27,"Duration":423041,"SoundDuration":423041,"Delta":26241696},{"NoteNumber":57,"Velocity":35,"Duration":423041,"SoundDuration":423041,"Delta":26241696},{"NoteNumber":61,"Velocity":80,"Duration":427959,"SoundDuration":427959,"Delta":27087780},{"NoteNumber":37,"Velocity":51,"Duration":427959,"SoundDuration":427959,"Delta":27087780},{"NoteNumber":49,"Velocity":60,"Duration":427959,"SoundDuration":427959,"Delta":27087780},{"NoteNumber":62,"Velocity":85,"Duration":623484,"SoundDuration":623484,"Delta":27515740},{"NoteNumber":50,"Velocity":66,"Duration":207827,"SoundDuration":207827,"Delta":27515740},{"NoteNumber":38,"Velocity":56,"Duration":207827,"SoundDuration":207827,"Delta":27515740},{"NoteNumber":53,"Velocity":60,"Duration":207827,"SoundDuration":207827,"Delta":27723568},{"NoteNumber":57,"Velocity":60,"Duration":207828,"SoundDuration":207828,"Delta":27931396},{"NoteNumber":65,"Velocity":78,"Duration":101715,"SoundDuration":101715,"Delta":28139224},{"NoteNumber":53,"Velocity":60,"Duration":203430,"SoundDuration":203430,"Delta":28139224},{"NoteNumber":69,"Velocity":81,"Duration":101715,"SoundDuration":101715,"Delta":28240940},{"NoteNumber":74,"Velocity":84,"Duration":101715,"SoundDuration":101715,"Delta":28342655},{"NoteNumber":57,"Velocity":63,"Duration":203431,"SoundDuration":203431,"Delta":28342655},{"NoteNumber":69,"Velocity":79,"Duration":101715,"SoundDuration":101715,"Delta":28546086},{"NoteNumber":53,"Velocity":60,"Duration":203430,"SoundDuration":203430,"Delta":28546086},{"NoteNumber":74,"Velocity":82,"Duration":101715,"SoundDuration":101715,"Delta":28647802},{"NoteNumber":77,"Velocity":86,"Duration":101715,"SoundDuration":101715,"Delta":28749517},{"NoteNumber":50,"Velocity":65,"Duration":203431,"SoundDuration":203431,"Delta":28749517},{"NoteNumber":74,"Velocity":79,"Duration":101715,"SoundDuration":101715,"Delta":28952948},{"NoteNumber":53,"Velocity":60,"Duration":203430,"SoundDuration":203430,"Delta":28952948},{"NoteNumber":77,"Velocity":82,"Duration":101715,"SoundDuration":101715,"Delta":29054664},{"NoteNumber":81,"Velocity":87,"Duration":103170,"SoundDuration":103170,"Delta":29156379},{"NoteNumber":57,"Velocity":63,"Duration":206341,"SoundDuration":206341,"Delta":29156379},{"NoteNumber":81,"Velocity":80,"Duration":206341,"SoundDuration":206341,"Delta":29362720},{"NoteNumber":53,"Velocity":60,"Duration":206341,"SoundDuration":206341,"Delta":29362720},{"NoteNumber":77,"Velocity":80,"Duration":209336,"SoundDuration":209336,"Delta":29569062},{"NoteNumber":57,"Velocity":60,"Duration":209336,"SoundDuration":209336,"Delta":29569062},{"NoteNumber":74,"Velocity":80,"Duration":109425,"SoundDuration":109425,"Delta":29778398},{"NoteNumber":53,"Velocity":62,"Duration":218850,"SoundDuration":218850,"Delta":29778398},{"NoteNumber":73,"Velocity":70,"Duration":36475,"SoundDuration":36475,"Delta":29887824},{"NoteNumber":76,"Velocity":70,"Duration":36475,"SoundDuration":36475,"Delta":29924299},{"NoteNumber":79,"Velocity":70,"Duration":36475,"SoundDuration":36475,"Delta":29960774},{"NoteNumber":82,"Velocity":90,"Duration":631150,"SoundDuration":631150,"Delta":29997249},{"NoteNumber":40,"Velocity":60,"Duration":106202,"SoundDuration":106202,"Delta":29997249},{"NoteNumber":52,"Velocity":71,"Duration":106202,"SoundDuration":106202,"Delta":29997249},{"NoteNumber":55,"Velocity":60,"Duration":103170,"SoundDuration":103170,"Delta":30422058},{"NoteNumber":52,"Velocity":60,"Duration":103170,"SoundDuration":103170,"Delta":30422058},{"NoteNumber":58,"Velocity":60,"Duration":103170,"SoundDuration":103170,"Delta":30422058},{"NoteNumber":61,"Velocity":71,"Duration":103170,"SoundDuration":103170,"Delta":30422058},{"NoteNumber":81,"Velocity":71,"Duration":113487,"SoundDuration":113487,"Delta":30628399},{"NoteNumber":79,"Velocity":68,"Duration":113220,"SoundDuration":113220,"Delta":30731570},{"NoteNumber":77,"Velocity":68,"Duration":110545,"SoundDuration":110545,"Delta":30834741},{"NoteNumber":76,"Velocity":68,"Duration":110545,"SoundDuration":110545,"Delta":30935237},{"NoteNumber":74,"Velocity":69,"Duration":111779,"SoundDuration":111779,"Delta":31035732},{"NoteNumber":73,"Velocity":72,"Duration":123461,"SoundDuration":123461,"Delta":31136228},{"NoteNumber":82,"Velocity":90,"Duration":632636,"SoundDuration":632636,"Delta":31249069},{"NoteNumber":52,"Velocity":71,"Duration":106202,"SoundDuration":106202,"Delta":31249069},{"NoteNumber":40,"Velocity":60,"Duration":106202,"SoundDuration":106202,"Delta":31249069},{"NoteNumber":61,"Velocity":71,"Duration":103913,"SoundDuration":103913,"Delta":31673878},{"NoteNumber":52,"Velocity":60,"Duration":103913,"SoundDuration":103913,"Delta":31673878},{"NoteNumber":55,"Velocity":60,"Duration":103913,"SoundDuration":103913,"Delta":31673878},{"NoteNumber":58,"Velocity":60,"Duration":103913,"SoundDuration":103913,"Delta":31673878},{"NoteNumber":81,"Velocity":71,"Duration":114305,"SoundDuration":114305,"Delta":31881706},{"NoteNumber":79,"Velocity":68,"Duration":114034,"SoundDuration":114034,"Delta":31985620},{"NoteNumber":77,"Velocity":68,"Duration":111321,"SoundDuration":111321,"Delta":32089534},{"NoteNumber":76,"Velocity":68,"Duration":111321,"SoundDuration":111321,"Delta":32190736},{"NoteNumber":74,"Velocity":69,"Duration":111321,"SoundDuration":111321,"Delta":32291936},{"NoteNumber":73,"Velocity":72,"Duration":111537,"SoundDuration":111537,"Delta":32393138},{"NoteNumber":74,"Velocity":88,"Duration":620218,"SoundDuration":620218,"Delta":32494338},{"NoteNumber":53,"Velocity":66,"Duration":206739,"SoundDuration":206739,"Delta":32494338},{"NoteNumber":57,"Velocity":60,"Duration":206739,"SoundDuration":206739,"Delta":32701078},{"NoteNumber":62,"Velocity":60,"Duration":206739,"SoundDuration":206739,"Delta":32907818},{"NoteNumber":65,"Velocity":70,"Duration":101715,"SoundDuration":101715,"Delta":33114557},{"NoteNumber":57,"Velocity":60,"Duration":203431,"SoundDuration":203431,"Delta":33114557},{"NoteNumber":69,"Velocity":72,"Duration":101715,"SoundDuration":101715,"Delta":33216272},{"NoteNumber":74,"Velocity":84,"Duration":101715,"SoundDuration":101715,"Delta":33317988},{"NoteNumber":62,"Velocity":63,"Duration":203430,"SoundDuration":203430,"Delta":33317988},{"NoteNumber":69,"Velocity":71,"Duration":101715,"SoundDuration":101715,"Delta":33521419},{"NoteNumber":57,"Velocity":60,"Duration":203431,"SoundDuration":203431,"Delta":33521419},{"NoteNumber":74,"Velocity":73,"Duration":101715,"SoundDuration":101715,"Delta":33623135},{"NoteNumber":77,"Velocity":86,"Duration":101715,"SoundDuration":101715,"Delta":33724850},{"NoteNumber":53,"Velocity":65,"Duration":203431,"SoundDuration":203431,"Delta":33724850},{"NoteNumber":74,"Velocity":71,"Duration":101715,"SoundDuration":101715,"Delta":33928281},{"NoteNumber":57,"Velocity":60,"Duration":203431,"SoundDuration":203431,"Delta":33928281},{"NoteNumber":77,"Velocity":73,"Duration":101715,"SoundDuration":101715,"Delta":34029996},{"NoteNumber":81,"Velocity":87,"Duration":103170,"SoundDuration":103170,"Delta":34131712},{"NoteNumber":62,"Velocity":63,"Duration":206341,"SoundDuration":206341,"Delta":34131712},{"NoteNumber":81,"Velocity":80,"Duration":206341,"SoundDuration":206341,"Delta":34338054},{"NoteNumber":57,"Velocity":60,"Duration":206341,"SoundDuration":206341,"Delta":34338054},{"NoteNumber":77,"Velocity":80,"Duration":209336,"SoundDuration":209336,"Delta":34544395},{"NoteNumber":62,"Velocity":60,"Duration":209336,"SoundDuration":209336,"Delta":34544395},{"NoteNumber":74,"Velocity":80,"Duration":218850,"SoundDuration":218850,"Delta":34753732},{"NoteNumber":57,"Velocity":62,"Duration":218850,"SoundDuration":218850,"Delta":34753732},{"NoteNumber":74,"Velocity":75,"Duration":631150,"SoundDuration":631150,"Delta":34972582},{"NoteNumber":80,"Velocity":90,"Duration":631150,"SoundDuration":631150,"Delta":34972582},{"NoteNumber":77,"Velocity":75,"Duration":631150,"SoundDuration":631150,"Delta":34972582},{"NoteNumber":71,"Velocity":75,"Duration":631150,"SoundDuration":631150,"Delta":34972582},{"NoteNumber":38,"Velocity":60,"Duration":106202,"SoundDuration":106202,"Delta":34972582},{"NoteNumber":50,"Velocity":71,"Duration":106202,"SoundDuration":106202,"Delta":34972582},{"NoteNumber":56,"Velocity":60,"Duration":103170,"SoundDuration":103170,"Delta":35397391},{"NoteNumber":50,"Velocity":60,"Duration":103170,"SoundDuration":103170,"Delta":35397391},{"NoteNumber":59,"Velocity":71,"Duration":103170,"SoundDuration":103170,"Delta":35397391},{"NoteNumber":53,"Velocity":60,"Duration":103170,"SoundDuration":103170,"Delta":35397391},{"NoteNumber":79,"Velocity":71,"Duration":113487,"SoundDuration":113487,"Delta":35603733},{"NoteNumber":77,"Velocity":68,"Duration":113290,"SoundDuration":113290,"Delta":35706903},{"NoteNumber":75,"Velocity":68,"Duration":111321,"SoundDuration":111321,"Delta":35810074},{"NoteNumber":74,"Velocity":68,"Duration":111321,"SoundDuration":111321,"Delta":35911275},{"NoteNumber":72,"Velocity":69,"Duration":112849,"SoundDuration":112849,"Delta":36012476},{"NoteNumber":71,"Velocity":72,"Duration":127106,"SoundDuration":127106,"Delta":36113677},{"NoteNumber":80,"Velocity":90,"Duration":632637,"SoundDuration":632637,"Delta":36230164},{"NoteNumber":38,"Velocity":60,"Duration":106202,"SoundDuration":106202,"Delta":36230164},{"NoteNumber":50,"Velocity":71,"Duration":106202,"SoundDuration":106202,"Delta":36230164},{"NoteNumber":53,"Velocity":60,"Duration":103914,"SoundDuration":103914,"Delta":36654973},{"NoteNumber":59,"Velocity":71,"Duration":103914,"SoundDuration":103914,"Delta":36654973},{"NoteNumber":56,"Velocity":60,"Duration":103914,"SoundDuration":103914,"Delta":36654973},{"NoteNumber":50,"Velocity":60,"Duration":103914,"SoundDuration":103914,"Delta":36654973},{"NoteNumber":79,"Velocity":71,"Duration":114305,"SoundDuration":114305,"Delta":36862801},{"NoteNumber":77,"Velocity":68,"Duration":114104,"SoundDuration":114104,"Delta":36966715},{"NoteNumber":75,"Velocity":68,"Duration":112099,"SoundDuration":112099,"Delta":37070629},{"NoteNumber":74,"Velocity":68,"Duration":112099,"SoundDuration":112099,"Delta":37172538},{"NoteNumber":72,"Velocity":69,"Duration":112099,"SoundDuration":112099,"Delta":37274447},{"NoteNumber":71,"Velocity":72,"Duration":112245,"SoundDuration":112245,"Delta":37376356},{"NoteNumber":72,"Velocity":88,"Duration":516848,"SoundDuration":516848,"Delta":37478265},{"NoteNumber":51,"Velocity":66,"Duration":206739,"SoundDuration":206739,"Delta":37478265},{"NoteNumber":55,"Velocity":60,"Duration":206739,"SoundDuration":206739,"Delta":37685004},{"NoteNumber":60,"Velocity":60,"Duration":206739,"SoundDuration":206739,"Delta":37891744},{"NoteNumber":67,"Velocity":69,"Duration":103369,"SoundDuration":103369,"Delta":37995114},{"NoteNumber":72,"Velocity":74,"Duration":101715,"SoundDuration":101715,"Delta":38098483},{"NoteNumber":55,"Velocity":60,"Duration":203431,"SoundDuration":203431,"Delta":38098483},{"NoteNumber":67,"Velocity":70,"Duration":101715,"SoundDuration":101715,"Delta":38200199},{"NoteNumber":75,"Velocity":74,"Duration":101715,"SoundDuration":101715,"Delta":38301914},{"NoteNumber":60,"Velocity":63,"Duration":203430,"SoundDuration":203430,"Delta":38301914},{"NoteNumber":72,"Velocity":71,"Duration":101715,"SoundDuration":101715,"Delta":38403630},{"NoteNumber":75,"Velocity":75,"Duration":101715,"SoundDuration":101715,"Delta":38505345},{"NoteNumber":55,"Velocity":60,"Duration":203431,"SoundDuration":203431,"Delta":38505345},{"NoteNumber":72,"Velocity":70,"Duration":101715,"SoundDuration":101715,"Delta":38607061},{"NoteNumber":79,"Velocity":74,"Duration":101715,"SoundDuration":101715,"Delta":38708776},{"NoteNumber":51,"Velocity":66,"Duration":203431,"SoundDuration":203431,"Delta":38708776},{"NoteNumber":75,"Velocity":71,"Duration":101715,"SoundDuration":101715,"Delta":38810492},{"NoteNumber":79,"Velocity":74,"Duration":101715,"SoundDuration":101715,"Delta":38912207},{"NoteNumber":55,"Velocity":60,"Duration":219150,"SoundDuration":219150,"Delta":38912207},{"NoteNumber":75,"Velocity":71,"Duration":117435,"SoundDuration":117435,"Delta":39013923},{"NoteNumber":84,"Velocity":91,"Duration":204875,"SoundDuration":204875,"Delta":39131358},{"NoteNumber":60,"Velocity":60,"Duration":204875,"SoundDuration":204875,"Delta":39131358},{"NoteNumber":55,"Velocity":60,"Duration":209336,"SoundDuration":209336,"Delta":39336234},{"NoteNumber":60,"Velocity":63,"Duration":209336,"SoundDuration":209336,"Delta":39545571},{"NoteNumber":55,"Velocity":60,"Duration":209336,"SoundDuration":209336,"Delta":39754907},{"NoteNumber":72,"Velocity":88,"Duration":519570,"SoundDuration":519570,"Delta":39964244},{"NoteNumber":48,"Velocity":66,"Duration":207827,"SoundDuration":207827,"Delta":39964244},{"NoteNumber":51,"Velocity":60,"Duration":207827,"SoundDuration":207827,"Delta":40172072},{"NoteNumber":56,"Velocity":60,"Duration":207827,"SoundDuration":207827,"Delta":40379900},{"NoteNumber":68,"Velocity":69,"Duration":103913,"SoundDuration":103913,"Delta":40483814},{"NoteNumber":72,"Velocity":74,"Duration":101715,"SoundDuration":101715,"Delta":40587728},{"NoteNumber":51,"Velocity":60,"Duration":203431,"SoundDuration":203431,"Delta":40587728},{"NoteNumber":68,"Velocity":70,"Duration":101715,"SoundDuration":101715,"Delta":40689443},{"NoteNumber":75,"Velocity":74,"Duration":101715,"SoundDuration":101715,"Delta":40791159},{"NoteNumber":56,"Velocity":63,"Duration":203430,"SoundDuration":203430,"Delta":40791159},{"NoteNumber":72,"Velocity":71,"Duration":101715,"SoundDuration":101715,"Delta":40892874},{"NoteNumber":75,"Velocity":75,"Duration":101715,"SoundDuration":101715,"Delta":40994589},{"NoteNumber":51,"Velocity":60,"Duration":203431,"SoundDuration":203431,"Delta":40994589},{"NoteNumber":72,"Velocity":70,"Duration":101715,"SoundDuration":101715,"Delta":41096305},{"NoteNumber":80,"Velocity":74,"Duration":101715,"SoundDuration":101715,"Delta":41198021},{"NoteNumber":48,"Velocity":66,"Duration":203431,"SoundDuration":203431,"Delta":41198021},{"NoteNumber":75,"Velocity":71,"Duration":101715,"SoundDuration":101715,"Delta":41299736},{"NoteNumber":80,"Velocity":74,"Duration":101715,"SoundDuration":101715,"Delta":41401452},{"NoteNumber":51,"Velocity":60,"Duration":219150,"SoundDuration":219150,"Delta":41401452},{"NoteNumber":75,"Velocity":71,"Duration":117435,"SoundDuration":117435,"Delta":41503167},{"NoteNumber":84,"Velocity":91,"Duration":204875,"SoundDuration":204875,"Delta":41620602},{"NoteNumber":56,"Velocity":60,"Duration":204875,"SoundDuration":204875,"Delta":41620602},{"NoteNumber":51,"Velocity":60,"Duration":209336,"SoundDuration":209336,"Delta":41825478},{"NoteNumber":56,"Velocity":63,"Duration":209336,"SoundDuration":209336,"Delta":42034815},{"NoteNumber":51,"Velocity":60,"Duration":209336,"SoundDuration":209336,"Delta":42244151},{"NoteNumber":72,"Velocity":88,"Duration":519570,"SoundDuration":519570,"Delta":42453488},{"NoteNumber":44,"Velocity":66,"Duration":207827,"SoundDuration":207827,"Delta":42453488},{"NoteNumber":48,"Velocity":60,"Duration":207827,"SoundDuration":207827,"Delta":42661316},{"NoteNumber":51,"Velocity":60,"Duration":207827,"SoundDuration":207827,"Delta":42869144},{"NoteNumber":66,"Velocity":69,"Duration":103913,"SoundDuration":103913,"Delta":42973058},{"NoteNumber":72,"Velocity":74,"Duration":101715,"SoundDuration":101715,"Delta":43076972},{"NoteNumber":48,"Velocity":60,"Duration":203431,"SoundDuration":203431,"Delta":43076972},{"NoteNumber":66,"Velocity":70,"Duration":101715,"SoundDuration":101715,"Delta":43178687},{"NoteNumber":75,"Velocity":74,"Duration":101715,"SoundDuration":101715,"Delta":43280403},{"NoteNumber":51,"Velocity":63,"Duration":203430,"SoundDuration":203430,"Delta":43280403},{"NoteNumber":72,"Velocity":71,"Duration":101715,"SoundDuration":101715,"Delta":43382118},{"NoteNumber":75,"Velocity":75,"Duration":101715,"SoundDuration":101715,"Delta":43483834},{"NoteNumber":48,"Velocity":60,"Duration":203431,"SoundDuration":203431,"Delta":43483834},{"NoteNumber":72,"Velocity":70,"Duration":101715,"SoundDuration":101715,"Delta":43585549},{"NoteNumber":78,"Velocity":74,"Duration":101715,"SoundDuration":101715,"Delta":43687265},{"NoteNumber":44,"Velocity":66,"Duration":203431,"SoundDuration":203431,"Delta":43687265},{"NoteNumber":75,"Velocity":71,"Duration":101715,"SoundDuration":101715,"Delta":43788980},{"NoteNumber":78,"Velocity":74,"Duration":101715,"SoundDuration":101715,"Delta":43890696},{"NoteNumber":48,"Velocity":60,"Duration":219150,"SoundDuration":219150,"Delta":43890696},{"NoteNumber":75,"Velocity":71,"Duration":117435,"SoundDuration":117435,"Delta":43992411},{"NoteNumber":84,"Velocity":91,"Duration":414212,"SoundDuration":414212,"Delta":44109846},{"NoteNumber":51,"Velocity":60,"Duration":204875,"SoundDuration":204875,"Delta":44109846},{"NoteNumber":48,"Velocity":60,"Duration":209336,"SoundDuration":209336,"Delta":44314722},{"NoteNumber":78,"Velocity":81,"Duration":322003,"SoundDuration":322003,"Delta":44524059},{"NoteNumber":51,"Velocity":63,"Duration":214669,"SoundDuration":214669,"Delta":44524059},{"NoteNumber":48,"Velocity":60,"Duration":107334,"SoundDuration":107334,"Delta":44738728},{"NoteNumber":67,"Velocity":70,"Duration":36475,"SoundDuration":36475,"Delta":44846062},{"NoteNumber":71,"Velocity":70,"Duration":36475,"SoundDuration":36475,"Delta":44882538},{"NoteNumber":74,"Velocity":70,"Duration":36475,"SoundDuration":36475,"Delta":44919013},{"NoteNumber":79,"Velocity":90,"Duration":846084,"SoundDuration":846084,"Delta":44955488},{"NoteNumber":43,"Velocity":66,"Duration":211520,"SoundDuration":211520,"Delta":44955488},{"NoteNumber":47,"Velocity":60,"Duration":211521,"SoundDuration":211521,"Delta":45167009},{"NoteNumber":50,"Velocity":60,"Duration":211520,"SoundDuration":211520,"Delta":45378530},{"NoteNumber":55,"Velocity":60,"Duration":211521,"SoundDuration":211521,"Delta":45590051},{"NoteNumber":77,"Velocity":72,"Duration":110529,"SoundDuration":110529,"Delta":45801572},{"NoteNumber":48,"Velocity":63,"Duration":204053,"SoundDuration":204053,"Delta":45801572},{"NoteNumber":75,"Velocity":72,"Duration":110529,"SoundDuration":110529,"Delta":45903599},{"NoteNumber":74,"Velocity":73,"Duration":111430,"SoundDuration":111430,"Delta":46005626},{"NoteNumber":51,"Velocity":60,"Duration":214868,"SoundDuration":214868,"Delta":46005626},{"NoteNumber":72,"Velocity":76,"Duration":112841,"SoundDuration":112841,"Delta":46107653},{"NoteNumber":79,"Velocity":90,"Duration":832611,"SoundDuration":832611,"Delta":46220494},{"NoteNumber":43,"Velocity":66,"Duration":208477,"SoundDuration":208477,"Delta":46220494},{"NoteNumber":47,"Velocity":60,"Duration":208477,"SoundDuration":208477,"Delta":46428972},{"NoteNumber":50,"Velocity":60,"Duration":207827,"SoundDuration":207827,"Delta":46637450},{"NoteNumber":55,"Velocity":60,"Duration":207827,"SoundDuration":207827,"Delta":46845278},{"NoteNumber":77,"Velocity":72,"Duration":109752,"SoundDuration":109752,"Delta":47053106},{"NoteNumber":48,"Velocity":63,"Duration":202620,"SoundDuration":202620,"Delta":47053106},{"NoteNumber":75,"Velocity":72,"Duration":109752,"SoundDuration":109752,"Delta":47154416},{"NoteNumber":74,"Velocity":73,"Duration":109752,"SoundDuration":109752,"Delta":47255726},{"NoteNumber":51,"Velocity":60,"Duration":202620,"SoundDuration":202620,"Delta":47255726},{"NoteNumber":72,"Velocity":76,"Duration":101310,"SoundDuration":101310,"Delta":47357037},{"NoteNumber":79,"Velocity":90,"Duration":621994,"SoundDuration":621994,"Delta":47458347},{"NoteNumber":43,"Velocity":72,"Duration":621994,"SoundDuration":621994,"Delta":47458347},{"NoteNumber":55,"Velocity":72,"Duration":621698,"SoundDuration":621698,"Delta":47468738},{"NoteNumber":80,"Velocity":79,"Duration":110123,"SoundDuration":110123,"Delta":48080341},{"NoteNumber":56,"Velocity":63,"Duration":110123,"SoundDuration":110123,"Delta":48080341},{"NoteNumber":79,"Velocity":78,"Duration":111698,"SoundDuration":111698,"Delta":48181939},{"NoteNumber":55,"Velocity":62,"Duration":111698,"SoundDuration":111698,"Delta":48181939},{"NoteNumber":77,"Velocity":76,"Duration":113314,"SoundDuration":113314,"Delta":48284988},{"NoteNumber":53,"Velocity":60,"Duration":113314,"SoundDuration":113314,"Delta":48284988},{"NoteNumber":75,"Velocity":75,"Duration":114978,"SoundDuration":114978,"Delta":48389528},{"NoteNumber":51,"Velocity":60,"Duration":114978,"SoundDuration":114978,"Delta":48389528},{"NoteNumber":74,"Velocity":74,"Duration":117759,"SoundDuration":117759,"Delta":48495601},{"NoteNumber":50,"Velocity":59,"Duration":117759,"SoundDuration":117759,"Delta":48495601},{"NoteNumber":72,"Velocity":72,"Duration":127823,"SoundDuration":127823,"Delta":48603459},{"NoteNumber":48,"Velocity":57,"Duration":127823,"SoundDuration":127823,"Delta":48603459},{"NoteNumber":79,"Velocity":79,"Duration":108139,"SoundDuration":108139,"Delta":48722271},{"NoteNumber":55,"Velocity":63,"Duration":108139,"SoundDuration":108139,"Delta":48722271},{"NoteNumber":67,"Velocity":72,"Duration":108139,"SoundDuration":108139,"Delta":49154828},{"NoteNumber":43,"Velocity":57,"Duration":108139,"SoundDuration":108139,"Delta":49154828},{"NoteNumber":48,"Velocity":35,"Duration":54069,"SoundDuration":54069,"Delta":49857734},{"NoteNumber":55,"Velocity":35,"Duration":54069,"SoundDuration":54069,"Delta":49911803},{"NoteNumber":67,"Velocity":41,"Duration":54069,"SoundDuration":54069,"Delta":49965873},{"NoteNumber":76,"Velocity":45,"Duration":105760,"SoundDuration":105760,"Delta":50019942},{"NoteNumber":60,"Velocity":35,"Duration":423042,"SoundDuration":423042,"Delta":50019942},{"NoteNumber":76,"Velocity":43,"Duration":105760,"SoundDuration":105760,"Delta":50442984},{"NoteNumber":76,"Velocity":43,"Duration":121822,"SoundDuration":121822,"Delta":50866026},{"NoteNumber":55,"Velocity":34,"Duration":53270,"SoundDuration":53270,"Delta":51162942},{"NoteNumber":62,"Velocity":34,"Duration":53270,"SoundDuration":53270,"Delta":51216213},{"NoteNumber":71,"Velocity":42,"Duration":53270,"SoundDuration":53270,"Delta":51269484},{"NoteNumber":79,"Velocity":45,"Duration":639250,"SoundDuration":639250,"Delta":51322755},{"NoteNumber":65,"Velocity":35,"Duration":426166,"SoundDuration":426166,"Delta":51322755},{"NoteNumber":77,"Velocity":41,"Duration":213083,"SoundDuration":213083,"Delta":51962005},{"NoteNumber":74,"Velocity":41,"Duration":442478,"SoundDuration":442478,"Delta":52175089},{"NoteNumber":64,"Velocity":45,"Duration":426166,"SoundDuration":426166,"Delta":52617567},{"NoteNumber":74,"Velocity":45,"Duration":213083,"SoundDuration":213083,"Delta":52617567},{"NoteNumber":48,"Velocity":35,"Duration":426166,"SoundDuration":426166,"Delta":52617567},{"NoteNumber":72,"Velocity":41,"Duration":213083,"SoundDuration":213083,"Delta":52830650},{"NoteNumber":72,"Velocity":45,"Duration":620945,"SoundDuration":620945,"Delta":53043734},{"NoteNumber":67,"Velocity":45,"Duration":620945,"SoundDuration":620945,"Delta":53043734},{"NoteNumber":52,"Velocity":31,"Duration":413964,"SoundDuration":413964,"Delta":53043734},{"NoteNumber":55,"Velocity":31,"Duration":424894,"SoundDuration":424894,"Delta":53457698},{"NoteNumber":71,"Velocity":45,"Duration":217912,"SoundDuration":217912,"Delta":53664680},{"NoteNumber":74,"Velocity":45,"Duration":217912,"SoundDuration":217912,"Delta":53664680},{"NoteNumber":74,"Velocity":49,"Duration":852475,"SoundDuration":852475,"Delta":53882592},{"NoteNumber":71,"Velocity":49,"Duration":852475,"SoundDuration":852475,"Delta":53882592},{"NoteNumber":60,"Velocity":35,"Duration":429433,"SoundDuration":429433,"Delta":53882592},{"NoteNumber":48,"Velocity":31,"Duration":423042,"SoundDuration":423042,"Delta":54312026},{"NoteNumber":72,"Velocity":45,"Duration":435825,"SoundDuration":435825,"Delta":54735068},{"NoteNumber":76,"Velocity":45,"Duration":435825,"SoundDuration":435825,"Delta":54735068},{"NoteNumber":77,"Velocity":45,"Duration":633770,"SoundDuration":633770,"Delta":55170893},{"NoteNumber":57,"Velocity":35,"Duration":843751,"SoundDuration":843751,"Delta":55170893},{"NoteNumber":60,"Velocity":33,"Duration":414034,"SoundDuration":414034,"Delta":55600610},{"NoteNumber":65,"Velocity":33,"Duration":414034,"SoundDuration":414034,"Delta":55600610},{"NoteNumber":79,"Velocity":46,"Duration":52495,"SoundDuration":52495,"Delta":55804664},{"NoteNumber":77,"Velocity":42,"Duration":52495,"SoundDuration":52495,"Delta":55857159},{"NoteNumber":76,"Velocity":42,"Duration":52495,"SoundDuration":52495,"Delta":55909654},{"NoteNumber":77,"Velocity":45,"Duration":34996,"SoundDuration":34996,"Delta":55962150},{"NoteNumber":79,"Velocity":49,"Duration":209980,"SoundDuration":209980,"Delta":56014645},{"NoteNumber":81,"Velocity":47,"Duration":214280,"SoundDuration":214280,"Delta":56224626},{"NoteNumber":81,"Velocity":55,"Duration":206981,"SoundDuration":206981,"Delta":56442538},{"NoteNumber":59,"Velocity":38,"Duration":827928,"SoundDuration":827928,"Delta":56442538},{"NoteNumber":79,"Velocity":49,"Duration":206982,"SoundDuration":206982,"Delta":56649520},{"NoteNumber":78,"Velocity":52,"Duration":206981,"SoundDuration":206981,"Delta":56856502},{"NoteNumber":67,"Velocity":35,"Duration":413964,"SoundDuration":413964,"Delta":56856502},{"NoteNumber":62,"Velocity":35,"Duration":413964,"SoundDuration":413964,"Delta":56856502},{"NoteNumber":79,"Velocity":45,"Duration":206982,"SoundDuration":206982,"Delta":57063484},{"NoteNumber":77,"Velocity":50,"Duration":206981,"SoundDuration":206981,"Delta":57270466},{"NoteNumber":74,"Velocity":45,"Duration":219571,"SoundDuration":219571,"Delta":57477448},{"NoteNumber":75,"Velocity":49,"Duration":213083,"SoundDuration":213083,"Delta":57697019},{"NoteNumber":60,"Velocity":41,"Duration":426166,"SoundDuration":426166,"Delta":57697019},{"NoteNumber":76,"Velocity":45,"Duration":213083,"SoundDuration":213083,"Delta":57910103},{"NoteNumber":77,"Velocity":50,"Duration":205507,"SoundDuration":205507,"Delta":58123186},{"NoteNumber":57,"Velocity":37,"Duration":411014,"SoundDuration":411014,"Delta":58123186},{"NoteNumber":60,"Velocity":37,"Duration":411014,"SoundDuration":411014,"Delta":58123186},{"NoteNumber":76,"Velocity":45,"Duration":205507,"SoundDuration":205507,"Delta":58328694},{"NoteNumber":79,"Velocity":49,"Duration":205507,"SoundDuration":205507,"Delta":58534201},{"NoteNumber":53,"Velocity":35,"Duration":428456,"SoundDuration":428456,"Delta":58534201},{"NoteNumber":62,"Velocity":35,"Duration":428456,"SoundDuration":428456,"Delta":58534201},{"NoteNumber":77,"Velocity":45,"Duration":222948,"SoundDuration":222948,"Delta":58739709},{"NoteNumber":76,"Velocity":52,"Duration":213083,"SoundDuration":213083,"Delta":58962658},{"NoteNumber":55,"Velocity":41,"Duration":420065,"SoundDuration":420065,"Delta":58962658},{"NoteNumber":59,"Velocity":41,"Duration":420065,"SoundDuration":420065,"Delta":58962658},{"NoteNumber":74,"Velocity":45,"Duration":206981,"SoundDuration":206981,"Delta":59175741},{"NoteNumber":72,"Velocity":48,"Duration":206982,"SoundDuration":206982,"Delta":59382723},{"NoteNumber":71,"Velocity":45,"Duration":206981,"SoundDuration":206981,"Delta":59589705},{"NoteNumber":69,"Velocity":46,"Duration":213083,"SoundDuration":213083,"Delta":59796687},{"NoteNumber":67,"Velocity":45,"Duration":213083,"SoundDuration":213083,"Delta":60009771},{"NoteNumber":75,"Velocity":49,"Duration":213083,"SoundDuration":213083,"Delta":60222854},{"NoteNumber":60,"Velocity":39,"Duration":142055,"SoundDuration":142055,"Delta":60222854},{"NoteNumber":64,"Velocity":31,"Duration":142055,"SoundDuration":142055,"Delta":60364910},{"NoteNumber":76,"Velocity":42,"Duration":213083,"SoundDuration":213083,"Delta":60435938},{"NoteNumber":67,"Velocity":31,"Duration":142055,"SoundDuration":142055,"Delta":60506966},{"NoteNumber":75,"Velocity":49,"Duration":213083,"SoundDuration":213083,"Delta":60649021},{"NoteNumber":60,"Velocity":39,"Duration":142055,"SoundDuration":142055,"Delta":60649021},{"NoteNumber":64,"Velocity":32,"Duration":142055,"SoundDuration":142055,"Delta":60791077},{"NoteNumber":76,"Velocity":41,"Duration":213083,"SoundDuration":213083,"Delta":60862105},{"NoteNumber":67,"Velocity":32,"Duration":142055,"SoundDuration":142055,"Delta":60933133},{"NoteNumber":75,"Velocity":52,"Duration":206739,"SoundDuration":206739,"Delta":61075188},{"NoteNumber":60,"Velocity":40,"Duration":137826,"SoundDuration":137826,"Delta":61075188},{"NoteNumber":64,"Velocity":32,"Duration":142572,"SoundDuration":142572,"Delta":61213015},{"NoteNumber":76,"Velocity":48,"Duration":220978,"SoundDuration":220978,"Delta":61281928},{"NoteNumber":67,"Velocity":32,"Duration":147318,"SoundDuration":147318,"Delta":61355587},{"NoteNumber":78,"Velocity":58,"Duration":212841,"SoundDuration":212841,"Delta":61502906},{"NoteNumber":59,"Velocity":43,"Duration":141894,"SoundDuration":141894,"Delta":61502906},{"NoteNumber":62,"Velocity":36,"Duration":141894,"SoundDuration":141894,"Delta":61644800},{"NoteNumber":79,"Velocity":53,"Duration":212841,"SoundDuration":212841,"Delta":61715747},{"NoteNumber":67,"Velocity":35,"Duration":141894,"SoundDuration":141894,"Delta":61786695},{"NoteNumber":78,"Velocity":58,"Duration":212841,"SoundDuration":212841,"Delta":61928589},{"NoteNumber":59,"Velocity":40,"Duration":141894,"SoundDuration":141894,"Delta":61928589},{"NoteNumber":62,"Velocity":33,"Duration":141894,"SoundDuration":141894,"Delta":62070483},{"NoteNumber":79,"Velocity":46,"Duration":212841,"SoundDuration":212841,"Delta":62141430},{"NoteNumber":67,"Velocity":29,"Duration":141894,"SoundDuration":141894,"Delta":62212378},{"NoteNumber":77,"Velocity":46,"Duration":212841,"SoundDuration":212841,"Delta":62354272},{"NoteNumber":59,"Velocity":37,"Duration":141894,"SoundDuration":141894,"Delta":62354272},{"NoteNumber":65,"Velocity":29,"Duration":144606,"SoundDuration":144606,"Delta":62496166},{"NoteNumber":74,"Velocity":37,"Duration":220978,"SoundDuration":220978,"Delta":62567113},{"NoteNumber":67,"Velocity":29,"Duration":147318,"SoundDuration":147318,"Delta":62640773},{"NoteNumber":74,"Velocity":45,"Duration":212841,"SoundDuration":212841,"Delta":62788091},{"NoteNumber":60,"Velocity":29,"Duration":425682,"SoundDuration":425682,"Delta":62788091},{"NoteNumber":64,"Velocity":35,"Duration":425682,"SoundDuration":425682,"Delta":62788091},{"NoteNumber":72,"Velocity":41,"Duration":212841,"SoundDuration":212841,"Delta":63000933},{"NoteNumber":74,"Velocity":45,"Duration":206981,"SoundDuration":206981,"Delta":63213774},{"NoteNumber":67,"Velocity":41,"Duration":413964,"SoundDuration":413964,"Delta":63213774},{"NoteNumber":52,"Velocity":31,"Duration":413964,"SoundDuration":413964,"Delta":63213774},{"NoteNumber":72,"Velocity":41,"Duration":206982,"SoundDuration":206982,"Delta":63420756},{"NoteNumber":71,"Velocity":41,"Duration":424894,"SoundDuration":424894,"Delta":63627738},{"NoteNumber":76,"Velocity":45,"Duration":206981,"SoundDuration":206981,"Delta":63627738},{"NoteNumber":55,"Velocity":31,"Duration":424894,"SoundDuration":424894,"Delta":63627738},{"NoteNumber":74,"Velocity":45,"Duration":217912,"SoundDuration":217912,"Delta":63834720},{"NoteNumber":71,"Velocity":49,"Duration":852475,"SoundDuration":852475,"Delta":64052633},{"NoteNumber":74,"Velocity":49,"Duration":640954,"SoundDuration":640954,"Delta":64052633},{"NoteNumber":60,"Velocity":35,"Duration":429433,"SoundDuration":429433,"Delta":64052633},{"NoteNumber":55,"Velocity":31,"Duration":423041,"SoundDuration":423041,"Delta":64482066},{"NoteNumber":75,"Velocity":49,"Duration":211521,"SoundDuration":211521,"Delta":64693587},{"NoteNumber":76,"Velocity":45,"Duration":435824,"SoundDuration":435824,"Delta":64905108},{"NoteNumber":72,"Velocity":45,"Duration":435824,"SoundDuration":435824,"Delta":64905108},{"NoteNumber":48,"Velocity":31,"Duration":435824,"SoundDuration":435824,"Delta":64905108},{"NoteNumber":77,"Velocity":45,"Duration":633770,"SoundDuration":633770,"Delta":65340933},{"NoteNumber":57,"Velocity":35,"Duration":221238,"SoundDuration":221238,"Delta":65340933},{"NoteNumber":60,"Velocity":31,"Duration":208477,"SoundDuration":208477,"Delta":65562172},{"NoteNumber":65,"Velocity":32,"Duration":204053,"SoundDuration":204053,"Delta":65770650},{"NoteNumber":79,"Velocity":46,"Duration":52495,"SoundDuration":52495,"Delta":65974704},{"NoteNumber":60,"Velocity":33,"Duration":209980,"SoundDuration":209980,"Delta":65974704},{"NoteNumber":77,"Velocity":42,"Duration":52495,"SoundDuration":52495,"Delta":66027200},{"NoteNumber":76,"Velocity":42,"Duration":52495,"SoundDuration":52495,"Delta":66079695},{"NoteNumber":77,"Velocity":45,"Duration":34996,"SoundDuration":34996,"Delta":66132190},{"NoteNumber":79,"Velocity":49,"Duration":209980,"SoundDuration":209980,"Delta":66184685},{"NoteNumber":57,"Velocity":35,"Duration":209980,"SoundDuration":209980,"Delta":66184685},{"NoteNumber":81,"Velocity":47,"Duration":217912,"SoundDuration":217912,"Delta":66394666},{"NoteNumber":60,"Velocity":38,"Duration":217912,"SoundDuration":217912,"Delta":66394666},{"NoteNumber":81,"Velocity":55,"Duration":206981,"SoundDuration":206981,"Delta":66612579},{"NoteNumber":59,"Velocity":40,"Duration":206981,"SoundDuration":206981,"Delta":66612579},{"NoteNumber":79,"Velocity":49,"Duration":206981,"SoundDuration":206981,"Delta":66819561},{"NoteNumber":62,"Velocity":35,"Duration":206981,"SoundDuration":206981,"Delta":66819561},{"NoteNumber":78,"Velocity":52,"Duration":206982,"SoundDuration":206982,"Delta":67026543},{"NoteNumber":67,"Velocity":42,"Duration":206982,"SoundDuration":206982,"Delta":67026543},{"NoteNumber":79,"Velocity":45,"Duration":206981,"SoundDuration":206981,"Delta":67233525},{"NoteNumber":62,"Velocity":35,"Duration":206981,"SoundDuration":206981,"Delta":67233525},{"NoteNumber":77,"Velocity":50,"Duration":206981,"SoundDuration":206981,"Delta":67440507},{"NoteNumber":59,"Velocity":35,"Duration":206981,"SoundDuration":206981,"Delta":67440507},{"NoteNumber":74,"Velocity":45,"Duration":219571,"SoundDuration":219571,"Delta":67647489},{"NoteNumber":62,"Velocity":34,"Duration":219571,"SoundDuration":219571,"Delta":67647489},{"NoteNumber":75,"Velocity":49,"Duration":213083,"SoundDuration":213083,"Delta":67867060},{"NoteNumber":60,"Velocity":41,"Duration":426167,"SoundDuration":426167,"Delta":67867060},{"NoteNumber":76,"Velocity":45,"Duration":213083,"SoundDuration":213083,"Delta":68080143},{"NoteNumber":79,"Velocity":50,"Duration":205507,"SoundDuration":205507,"Delta":68293227},{"NoteNumber":53,"Velocity":37,"Duration":411015,"SoundDuration":411015,"Delta":68293227},{"NoteNumber":62,"Velocity":37,"Duration":411015,"SoundDuration":411015,"Delta":68293227},{"NoteNumber":77,"Velocity":45,"Duration":205507,"SoundDuration":205507,"Delta":68498734},{"NoteNumber":74,"Velocity":49,"Duration":205507,"SoundDuration":205507,"Delta":68704242},{"NoteNumber":55,"Velocity":35,"Duration":428456,"SoundDuration":428456,"Delta":68704242},{"NoteNumber":65,"Velocity":35,"Duration":428456,"SoundDuration":428456,"Delta":68704242},{"NoteNumber":71,"Velocity":45,"Duration":222948,"SoundDuration":222948,"Delta":68909749},{"NoteNumber":72,"Velocity":52,"Duration":213083,"SoundDuration":213083,"Delta":69132698},{"NoteNumber":64,"Velocity":37,"Duration":417137,"SoundDuration":417137,"Delta":69132698},{"NoteNumber":60,"Velocity":32,"Duration":417137,"SoundDuration":417137,"Delta":69132698},{"NoteNumber":67,"Velocity":34,"Duration":204053,"SoundDuration":204053,"Delta":69345782},{"NoteNumber":64,"Velocity":40,"Duration":408107,"SoundDuration":408107,"Delta":69549836},{"NoteNumber":67,"Velocity":34,"Duration":102027,"SoundDuration":102027,"Delta":69753890},{"NoteNumber":60,"Velocity":37,"Duration":415575,"SoundDuration":415575,"Delta":69957944},{"NoteNumber":67,"Velocity":34,"Duration":105760,"SoundDuration":105760,"Delta":70161998},{"NoteNumber":65,"Velocity":34,"Duration":102753,"SoundDuration":102753,"Delta":70373519},{"NoteNumber":67,"Velocity":40,"Duration":102753,"SoundDuration":102753,"Delta":70373519},{"NoteNumber":62,"Velocity":40,"Duration":411015,"SoundDuration":411015,"Delta":70373519},{"NoteNumber":67,"Velocity":33,"Duration":102753,"SoundDuration":102753,"Delta":70579026},{"NoteNumber":65,"Velocity":28,"Duration":102753,"SoundDuration":102753,"Delta":70579026},{"NoteNumber":59,"Velocity":38,"Duration":408107,"SoundDuration":408107,"Delta":70784534},{"NoteNumber":65,"Velocity":28,"Duration":102027,"SoundDuration":102027,"Delta":70988588},{"NoteNumber":67,"Velocity":33,"Duration":102027,"SoundDuration":102027,"Delta":70988588},{"NoteNumber":55,"Velocity":38,"Duration":418590,"SoundDuration":418590,"Delta":71192642},{"NoteNumber":67,"Velocity":33,"Duration":106541,"SoundDuration":106541,"Delta":71398149},{"NoteNumber":65,"Velocity":28,"Duration":106541,"SoundDuration":106541,"Delta":71398149},{"NoteNumber":63,"Velocity":34,"Duration":102027,"SoundDuration":102027,"Delta":71611233},{"NoteNumber":67,"Velocity":40,"Duration":102027,"SoundDuration":102027,"Delta":71611233},{"NoteNumber":48,"Velocity":40,"Duration":408107,"SoundDuration":408107,"Delta":71611233},{"NoteNumber":63,"Velocity":28,"Duration":102027,"SoundDuration":102027,"Delta":71815287},{"NoteNumber":67,"Velocity":34,"Duration":102027,"SoundDuration":102027,"Delta":71815287},{"NoteNumber":51,"Velocity":40,"Duration":408107,"SoundDuration":408107,"Delta":72019341},{"NoteNumber":63,"Velocity":28,"Duration":102027,"SoundDuration":102027,"Delta":72223395},{"NoteNumber":67,"Velocity":34,"Duration":102027,"SoundDuration":102027,"Delta":72223395},{"NoteNumber":48,"Velocity":37,"Duration":415575,"SoundDuration":415575,"Delta":72427449},{"NoteNumber":67,"Velocity":34,"Duration":105760,"SoundDuration":105760,"Delta":72631503},{"NoteNumber":63,"Velocity":28,"Duration":105760,"SoundDuration":105760,"Delta":72631503},{"NoteNumber":67,"Velocity":40,"Duration":102027,"SoundDuration":102027,"Delta":72843024},{"NoteNumber":65,"Velocity":34,"Duration":102027,"SoundDuration":102027,"Delta":72843024},{"NoteNumber":50,"Velocity":40,"Duration":408107,"SoundDuration":408107,"Delta":72843024},{"NoteNumber":67,"Velocity":33,"Duration":102027,"SoundDuration":102027,"Delta":73047078},{"NoteNumber":65,"Velocity":28,"Duration":102027,"SoundDuration":102027,"Delta":73047078},{"NoteNumber":47,"Velocity":38,"Duration":408107,"SoundDuration":408107,"Delta":73251132},{"NoteNumber":67,"Velocity":33,"Duration":102027,"SoundDuration":102027,"Delta":73455186},{"NoteNumber":65,"Velocity":28,"Duration":102027,"SoundDuration":102027,"Delta":73455186},{"NoteNumber":43,"Velocity":38,"Duration":417137,"SoundDuration":417137,"Delta":73659240},{"NoteNumber":65,"Velocity":28,"Duration":106541,"SoundDuration":106541,"Delta":73863294},{"NoteNumber":67,"Velocity":33,"Duration":106541,"SoundDuration":106541,"Delta":73863294},{"NoteNumber":67,"Velocity":63,"Duration":102027,"SoundDuration":102027,"Delta":74076377},{"NoteNumber":63,"Velocity":63,"Duration":102027,"SoundDuration":102027,"Delta":74076377},{"NoteNumber":36,"Velocity":58,"Duration":408107,"SoundDuration":408107,"Delta":74076377},{"NoteNumber":48,"Velocity":69,"Duration":408107,"SoundDuration":408107,"Delta":74076377},{"NoteNumber":63,"Velocity":50,"Duration":102027,"SoundDuration":102027,"Delta":74280431},{"NoteNumber":67,"Velocity":50,"Duration":102027,"SoundDuration":102027,"Delta":74280431},{"NoteNumber":51,"Velocity":40,"Duration":408107,"SoundDuration":408107,"Delta":74484485},{"NoteNumber":67,"Velocity":33,"Duration":102027,"SoundDuration":102027,"Delta":74688539},{"NoteNumber":63,"Velocity":33,"Duration":102027,"SoundDuration":102027,"Delta":74688539},{"NoteNumber":55,"Velocity":40,"Duration":412531,"SoundDuration":412531,"Delta":74892593},{"NoteNumber":67,"Velocity":33,"Duration":104239,"SoundDuration":104239,"Delta":75096647},{"NoteNumber":63,"Velocity":33,"Duration":104239,"SoundDuration":104239,"Delta":75096647},{"NoteNumber":68,"Velocity":63,"Duration":99906,"SoundDuration":99906,"Delta":75305125},{"NoteNumber":63,"Velocity":63,"Duration":99906,"SoundDuration":99906,"Delta":75305125},{"NoteNumber":53,"Velocity":69,"Duration":403867,"SoundDuration":403867,"Delta":75305125},{"NoteNumber":41,"Velocity":58,"Duration":403867,"SoundDuration":403867,"Delta":75305125},{"NoteNumber":63,"Velocity":50,"Duration":102027,"SoundDuration":102027,"Delta":75504939},{"NoteNumber":68,"Velocity":50,"Duration":102027,"SoundDuration":102027,"Delta":75504939},{"NoteNumber":56,"Velocity":40,"Duration":408107,"SoundDuration":408107,"Delta":75708993},{"NoteNumber":63,"Velocity":33,"Duration":102027,"SoundDuration":102027,"Delta":75913047},{"NoteNumber":68,"Velocity":33,"Duration":102027,"SoundDuration":102027,"Delta":75913047},{"NoteNumber":60,"Velocity":40,"Duration":412531,"SoundDuration":412531,"Delta":76117101},{"NoteNumber":68,"Velocity":33,"Duration":104239,"SoundDuration":104239,"Delta":76321155},{"NoteNumber":63,"Velocity":33,"Duration":104239,"SoundDuration":104239,"Delta":76321155},{"NoteNumber":62,"Velocity":63,"Duration":99226,"SoundDuration":99226,"Delta":76529633},{"NoteNumber":68,"Velocity":63,"Duration":99226,"SoundDuration":99226,"Delta":76529633},{"NoteNumber":46,"Velocity":69,"Duration":402506,"SoundDuration":402506,"Delta":76529633},{"NoteNumber":34,"Velocity":58,"Duration":402506,"SoundDuration":402506,"Delta":76529633},{"NoteNumber":68,"Velocity":50,"Duration":102027,"SoundDuration":102027,"Delta":76728085},{"NoteNumber":62,"Velocity":50,"Duration":102027,"SoundDuration":102027,"Delta":76728085},{"NoteNumber":50,"Velocity":40,"Duration":408107,"SoundDuration":408107,"Delta":76932139},{"NoteNumber":68,"Velocity":33,"Duration":102027,"SoundDuration":102027,"Delta":77136193},{"NoteNumber":62,"Velocity":33,"Duration":102027,"SoundDuration":102027,"Delta":77136193},{"NoteNumber":53,"Velocity":40,"Duration":411035,"SoundDuration":411035,"Delta":77340247},{"NoteNumber":62,"Velocity":33,"Duration":103491,"SoundDuration":103491,"Delta":77544301},{"NoteNumber":68,"Velocity":33,"Duration":103491,"SoundDuration":103491,"Delta":77544301},{"NoteNumber":62,"Velocity":63,"Duration":99226,"SoundDuration":99226,"Delta":77751283},{"NoteNumber":67,"Velocity":63,"Duration":99226,"SoundDuration":99226,"Delta":77751283},{"NoteNumber":39,"Velocity":58,"Duration":402506,"SoundDuration":402506,"Delta":77751283},{"NoteNumber":51,"Velocity":69,"Duration":402506,"SoundDuration":402506,"Delta":77751283},{"NoteNumber":67,"Velocity":50,"Duration":102027,"SoundDuration":102027,"Delta":77949735},{"NoteNumber":62,"Velocity":50,"Duration":102027,"SoundDuration":102027,"Delta":77949735},{"NoteNumber":55,"Velocity":40,"Duration":408107,"SoundDuration":408107,"Delta":78153789},{"NoteNumber":62,"Velocity":33,"Duration":102027,"SoundDuration":102027,"Delta":78357843},{"NoteNumber":67,"Velocity":33,"Duration":102027,"SoundDuration":102027,"Delta":78357843},{"NoteNumber":58,"Velocity":40,"Duration":414034,"SoundDuration":414034,"Delta":78561897},{"NoteNumber":67,"Velocity":33,"Duration":104990,"SoundDuration":104990,"Delta":78765951},{"NoteNumber":62,"Velocity":33,"Duration":104990,"SoundDuration":104990,"Delta":78765951},{"NoteNumber":60,"Velocity":63,"Duration":99906,"SoundDuration":99906,"Delta":78975932},{"NoteNumber":67,"Velocity":63,"Duration":99906,"SoundDuration":99906,"Delta":78975932},{"NoteNumber":32,"Velocity":58,"Duration":399626,"SoundDuration":399626,"Delta":78975932},{"NoteNumber":44,"Velocity":69,"Duration":399626,"SoundDuration":399626,"Delta":78975932},{"NoteNumber":60,"Velocity":50,"Duration":99906,"SoundDuration":99906,"Delta":79175745},{"NoteNumber":67,"Velocity":50,"Duration":99906,"SoundDuration":99906,"Delta":79175745},{"NoteNumber":56,"Velocity":40,"Duration":411015,"SoundDuration":411015,"Delta":79375559},{"NoteNumber":60,"Velocity":33,"Duration":102753,"SoundDuration":102753,"Delta":79581066},{"NoteNumber":67,"Velocity":33,"Duration":102753,"SoundDuration":102753,"Delta":79581066},{"NoteNumber":60,"Velocity":63,"Duration":100603,"SoundDuration":100603,"Delta":79786574},{"NoteNumber":65,"Velocity":63,"Duration":100603,"SoundDuration":100603,"Delta":79786574},{"NoteNumber":50,"Velocity":69,"Duration":402413,"SoundDuration":402413,"Delta":79786574},{"NoteNumber":38,"Velocity":58,"Duration":402413,"SoundDuration":402413,"Delta":79786574},{"NoteNumber":65,"Velocity":50,"Duration":100603,"SoundDuration":100603,"Delta":79987781},{"NoteNumber":60,"Velocity":50,"Duration":100603,"SoundDuration":100603,"Delta":79987781},{"NoteNumber":62,"Velocity":40,"Duration":408107,"SoundDuration":408107,"Delta":80188988},{"NoteNumber":60,"Velocity":33,"Duration":102027,"SoundDuration":102027,"Delta":80393042},{"NoteNumber":65,"Velocity":33,"Duration":102027,"SoundDuration":102027,"Delta":80393042},{"NoteNumber":65,"Velocity":63,"Duration":99226,"SoundDuration":99226,"Delta":80597096},{"NoteNumber":59,"Velocity":63,"Duration":99226,"SoundDuration":99226,"Delta":80597096},{"NoteNumber":31,"Velocity":58,"Duration":396904,"SoundDuration":396904,"Delta":80597096},{"NoteNumber":43,"Velocity":69,"Duration":396904,"SoundDuration":396904,"Delta":80597096},{"NoteNumber":59,"Velocity":50,"Duration":99226,"SoundDuration":99226,"Delta":80795548},{"NoteNumber":65,"Velocity":50,"Duration":99226,"SoundDuration":99226,"Delta":80795548},{"NoteNumber":55,"Velocity":40,"Duration":408107,"SoundDuration":408107,"Delta":80994000},{"NoteNumber":59,"Velocity":33,"Duration":102027,"SoundDuration":102027,"Delta":81198054},{"NoteNumber":65,"Velocity":33,"Duration":102027,"SoundDuration":102027,"Delta":81198054},{"NoteNumber":56,"Velocity":45,"Duration":402413,"SoundDuration":402413,"Delta":81402108},{"NoteNumber":63,"Velocity":33,"Duration":100603,"SoundDuration":100603,"Delta":81603315},{"NoteNumber":60,"Velocity":33,"Duration":100603,"SoundDuration":100603,"Delta":81603315},{"NoteNumber":55,"Velocity":39,"Duration":408107,"SoundDuration":408107,"Delta":81804522},{"NoteNumber":63,"Velocity":33,"Duration":102027,"SoundDuration":102027,"Delta":82008576},{"NoteNumber":60,"Velocity":33,"Duration":102027,"SoundDuration":102027,"Delta":82008576},{"NoteNumber":54,"Velocity":39,"Duration":419492,"SoundDuration":419492,"Delta":82212630},{"NoteNumber":60,"Velocity":33,"Duration":104872,"SoundDuration":104872,"Delta":82422376},{"NoteNumber":63,"Velocity":33,"Duration":104872,"SoundDuration":104872,"Delta":82422376},{"NoteNumber":59,"Velocity":32,"Duration":211521,"SoundDuration":211521,"Delta":82632122},{"NoteNumber":62,"Velocity":38,"Duration":211521,"SoundDuration":211521,"Delta":82632122},{"NoteNumber":55,"Velocity":44,"Duration":415575,"SoundDuration":415575,"Delta":82632122},{"NoteNumber":63,"Velocity":31,"Duration":212556,"SoundDuration":212556,"Delta":82843643},{"NoteNumber":67,"Velocity":37,"Duration":212556,"SoundDuration":212556,"Delta":82843643},{"NoteNumber":65,"Velocity":33,"Duration":212556,"SoundDuration":212556,"Delta":83047697},{"NoteNumber":62,"Velocity":28,"Duration":212556,"SoundDuration":212556,"Delta":83047697},{"NoteNumber":60,"Velocity":26,"Duration":212556,"SoundDuration":212556,"Delta":83251751},{"NoteNumber":63,"Velocity":31,"Duration":212556,"SoundDuration":212556,"Delta":83251751},{"NoteNumber":59,"Velocity":28,"Duration":212932,"SoundDuration":212932,"Delta":83455805},{"NoteNumber":62,"Velocity":33,"Duration":212932,"SoundDuration":212932,"Delta":83455805},{"NoteNumber":63,"Velocity":30,"Duration":221585,"SoundDuration":221585,"Delta":83659859},{"NoteNumber":60,"Velocity":25,"Duration":221585,"SoundDuration":221585,"Delta":83659859},{"NoteNumber":54,"Velocity":41,"Duration":213083,"SoundDuration":213083,"Delta":83659859},{"NoteNumber":59,"Velocity":32,"Duration":204053,"SoundDuration":204053,"Delta":83872942},{"NoteNumber":62,"Velocity":38,"Duration":204053,"SoundDuration":204053,"Delta":83872942},{"NoteNumber":55,"Velocity":44,"Duration":408107,"SoundDuration":408107,"Delta":83872942},{"NoteNumber":67,"Velocity":37,"Duration":212556,"SoundDuration":212556,"Delta":84076996},{"NoteNumber":63,"Velocity":31,"Duration":212556,"SoundDuration":212556,"Delta":84076996},{"NoteNumber":62,"Velocity":28,"Duration":212556,"SoundDuration":212556,"Delta":84281050},{"NoteNumber":65,"Velocity":33,"Duration":212556,"SoundDuration":212556,"Delta":84281050},{"NoteNumber":60,"Velocity":26,"Duration":212556,"SoundDuration":212556,"Delta":84485104},{"NoteNumber":63,"Velocity":31,"Duration":212556,"SoundDuration":212556,"Delta":84485104},{"NoteNumber":62,"Velocity":33,"Duration":212867,"SoundDuration":212867,"Delta":84689158},{"NoteNumber":59,"Velocity":28,"Duration":212867,"SoundDuration":212867,"Delta":84689158},{"NoteNumber":60,"Velocity":25,"Duration":220023,"SoundDuration":220023,"Delta":84893212},{"NoteNumber":63,"Velocity":30,"Duration":220023,"SoundDuration":220023,"Delta":84893212},{"NoteNumber":54,"Velocity":32,"Duration":220023,"SoundDuration":220023,"Delta":84893212},{"NoteNumber":62,"Velocity":37,"Duration":212556,"SoundDuration":212556,"Delta":85104733},{"NoteNumber":59,"Velocity":31,"Duration":212556,"SoundDuration":212556,"Delta":85104733},{"NoteNumber":55,"Velocity":39,"Duration":212556,"SoundDuration":212556,"Delta":85104733},{"NoteNumber":63,"Velocity":32,"Duration":212556,"SoundDuration":212556,"Delta":85308787},{"NoteNumber":60,"Velocity":27,"Duration":212556,"SoundDuration":212556,"Delta":85308787},{"NoteNumber":54,"Velocity":35,"Duration":212556,"SoundDuration":212556,"Delta":85308787},{"NoteNumber":59,"Velocity":31,"Duration":212556,"SoundDuration":212556,"Delta":85512841},{"NoteNumber":62,"Velocity":37,"Duration":212556,"SoundDuration":212556,"Delta":85512841},{"NoteNumber":55,"Velocity":39,"Duration":212556,"SoundDuration":212556,"Delta":85512841},{"NoteNumber":60,"Velocity":28,"Duration":212556,"SoundDuration":212556,"Delta":85716895},{"NoteNumber":63,"Velocity":34,"Duration":212556,"SoundDuration":212556,"Delta":85716895},{"NoteNumber":54,"Velocity":31,"Duration":212556,"SoundDuration":212556,"Delta":85716895},{"NoteNumber":62,"Velocity":37,"Duration":212556,"SoundDuration":212556,"Delta":85920949},{"NoteNumber":59,"Velocity":31,"Duration":212556,"SoundDuration":212556,"Delta":85920949},{"NoteNumber":55,"Velocity":39,"Duration":212556,"SoundDuration":212556,"Delta":85920949},{"NoteNumber":63,"Velocity":34,"Duration":212556,"SoundDuration":212556,"Delta":86125003},{"NoteNumber":60,"Velocity":28,"Duration":212556,"SoundDuration":212556,"Delta":86125003},{"NoteNumber":54,"Velocity":32,"Duration":212556,"SoundDuration":212556,"Delta":86125003},{"NoteNumber":59,"Velocity":31,"Duration":204053,"SoundDuration":204053,"Delta":86329057},{"NoteNumber":62,"Velocity":37,"Duration":204053,"SoundDuration":204053,"Delta":86329057},{"NoteNumber":55,"Velocity":38,"Duration":408108,"SoundDuration":408108,"Delta":86329057},{"NoteNumber":61,"Velocity":33,"Duration":212556,"SoundDuration":212556,"Delta":86533111},{"NoteNumber":58,"Velocity":33,"Duration":212556,"SoundDuration":212556,"Delta":86533111},{"NoteNumber":59,"Velocity":35,"Duration":213673,"SoundDuration":213673,"Delta":86737165},{"NoteNumber":62,"Velocity":35,"Duration":213673,"SoundDuration":213673,"Delta":86737165},{"NoteNumber":64,"Velocity":36,"Duration":216754,"SoundDuration":216754,"Delta":86942215},{"NoteNumber":61,"Velocity":36,"Duration":216754,"SoundDuration":216754,"Delta":86942215},{"NoteNumber":65,"Velocity":38,"Duration":219913,"SoundDuration":219913,"Delta":87150219},{"NoteNumber":62,"Velocity":38,"Duration":219913,"SoundDuration":219913,"Delta":87150219},{"NoteNumber":67,"Velocity":40,"Duration":221961,"SoundDuration":221961,"Delta":87361255},{"NoteNumber":64,"Velocity":40,"Duration":221961,"SoundDuration":221961,"Delta":87361255},{"NoteNumber":69,"Velocity":42,"Duration":426167,"SoundDuration":426167,"Delta":87574338},{"NoteNumber":65,"Velocity":35,"Duration":426167,"SoundDuration":426167,"Delta":87574338},{"NoteNumber":53,"Velocity":33,"Duration":426167,"SoundDuration":426167,"Delta":87574338},{"NoteNumber":60,"Velocity":34,"Duration":426166,"SoundDuration":426166,"Delta":88000505},{"NoteNumber":65,"Velocity":34,"Duration":426166,"SoundDuration":426166,"Delta":88000505},{"NoteNumber":69,"Velocity":40,"Duration":426166,"SoundDuration":426166,"Delta":88000505},{"NoteNumber":53,"Velocity":31,"Duration":426166,"SoundDuration":426166,"Delta":88000505},{"NoteNumber":65,"Velocity":34,"Duration":432557,"SoundDuration":432557,"Delta":88426672},{"NoteNumber":69,"Velocity":40,"Duration":432557,"SoundDuration":432557,"Delta":88426672},{"NoteNumber":60,"Velocity":34,"Duration":432557,"SoundDuration":432557,"Delta":88426672},{"NoteNumber":53,"Velocity":31,"Duration":432557,"SoundDuration":432557,"Delta":88426672},{"NoteNumber":69,"Velocity":42,"Duration":846084,"SoundDuration":846084,"Delta":88859229},{"NoteNumber":60,"Velocity":35,"Duration":1284680,"SoundDuration":1284680,"Delta":88859229},{"NoteNumber":65,"Velocity":35,"Duration":846084,"SoundDuration":846084,"Delta":88859229},{"NoteNumber":53,"Velocity":33,"Duration":846084,"SoundDuration":846084,"Delta":88859229},{"NoteNumber":64,"Velocity":28,"Duration":438596,"SoundDuration":438596,"Delta":89705313},{"NoteNumber":67,"Velocity":34,"Duration":438596,"SoundDuration":438596,"Delta":89705313},{"NoteNumber":48,"Velocity":31,"Duration":438596,"SoundDuration":438596,"Delta":89705313},{"NoteNumber":59,"Velocity":35,"Duration":421561,"SoundDuration":421561,"Delta":90143909},{"NoteNumber":62,"Velocity":35,"Duration":421561,"SoundDuration":421561,"Delta":90143909},{"NoteNumber":67,"Velocity":42,"Duration":208477,"SoundDuration":208477,"Delta":90143909},{"NoteNumber":43,"Velocity":33,"Duration":421561,"SoundDuration":421561,"Delta":90143909},{"NoteNumber":65,"Velocity":38,"Duration":213083,"SoundDuration":213083,"Delta":90352387},{"NoteNumber":65,"Velocity":42,"Duration":426167,"SoundDuration":426167,"Delta":90565471},{"NoteNumber":59,"Velocity":35,"Duration":426167,"SoundDuration":426167,"Delta":90565471},{"NoteNumber":62,"Velocity":35,"Duration":426167,"SoundDuration":426167,"Delta":90565471},{"NoteNumber":43,"Velocity":30,"Duration":426167,"SoundDuration":426167,"Delta":90565471},{"NoteNumber":65,"Velocity":38,"Duration":439142,"SoundDuration":439142,"Delta":90991638},{"NoteNumber":62,"Velocity":32,"Duration":439142,"SoundDuration":439142,"Delta":90991638},{"NoteNumber":59,"Velocity":32,"Duration":439142,"SoundDuration":439142,"Delta":90991638},{"NoteNumber":43,"Velocity":30,"Duration":439142,"SoundDuration":439142,"Delta":90991638},{"NoteNumber":59,"Velocity":35,"Duration":846084,"SoundDuration":846084,"Delta":91430780},{"NoteNumber":62,"Velocity":35,"Duration":846084,"SoundDuration":846084,"Delta":91430780},{"NoteNumber":65,"Velocity":42,"Duration":846084,"SoundDuration":846084,"Delta":91430780},{"NoteNumber":43,"Velocity":33,"Duration":846084,"SoundDuration":846084,"Delta":91430780},{"NoteNumber":64,"Velocity":39,"Duration":429338,"SoundDuration":429338,"Delta":92276864},{"NoteNumber":60,"Velocity":33,"Duration":429338,"SoundDuration":429338,"Delta":92276864},{"NoteNumber":45,"Velocity":30,"Duration":429338,"SoundDuration":429338,"Delta":92276864},{"NoteNumber":67,"Velocity":42,"Duration":205507,"SoundDuration":205507,"Delta":92706202},{"NoteNumber":64,"Velocity":35,"Duration":205507,"SoundDuration":205507,"Delta":92706202},{"NoteNumber":41,"Velocity":33,"Duration":415488,"SoundDuration":415488,"Delta":92706202},{"NoteNumber":65,"Velocity":37,"Duration":209980,"SoundDuration":209980,"Delta":92911709},{"NoteNumber":62,"Velocity":31,"Duration":209980,"SoundDuration":209980,"Delta":92911709},{"NoteNumber":60,"Velocity":35,"Duration":419961,"SoundDuration":419961,"Delta":93121690},{"NoteNumber":64,"Velocity":42,"Duration":419961,"SoundDuration":419961,"Delta":93121690},{"NoteNumber":43,"Velocity":32,"Duration":419961,"SoundDuration":419961,"Delta":93121690},{"NoteNumber":59,"Velocity":30,"Duration":426167,"SoundDuration":426167,"Delta":93541652},{"NoteNumber":62,"Velocity":36,"Duration":426167,"SoundDuration":426167,"Delta":93541652},{"NoteNumber":43,"Velocity":32,"Duration":426167,"SoundDuration":426167,"Delta":93541652},{"NoteNumber":60,"Velocity":35,"Duration":219571,"SoundDuration":219571,"Delta":93967819},{"NoteNumber":64,"Velocity":42,"Duration":219571,"SoundDuration":219571,"Delta":93967819},{"NoteNumber":48,"Velocity":33,"Duration":430133,"SoundDuration":430133,"Delta":93967819},{"NoteNumber":72,"Velocity":35,"Duration":193064,"SoundDuration":193064,"Delta":94187390},{"NoteNumber":74,"Velocity":37,"Duration":191762,"SoundDuration":191762,"Delta":94397953},{"NoteNumber":76,"Velocity":38,"Duration":190575,"SoundDuration":190575,"Delta":94607089},{"NoteNumber":77,"Velocity":40,"Duration":189395,"SoundDuration":189395,"Delta":94814912},{"NoteNumber":79,"Velocity":41,"Duration":188230,"SoundDuration":188230,"Delta":95021433},{"NoteNumber":81,"Velocity":46,"Duration":426167,"SoundDuration":426167,"Delta":95226668},{"NoteNumber":60,"Velocity":28,"Duration":426167,"SoundDuration":426167,"Delta":95226668},{"NoteNumber":65,"Velocity":33,"Duration":426167,"SoundDuration":426167,"Delta":95226668},{"NoteNumber":81,"Velocity":44,"Duration":426166,"SoundDuration":426166,"Delta":95652835},{"NoteNumber":60,"Velocity":26,"Duration":426166,"SoundDuration":426166,"Delta":95652835},{"NoteNumber":65,"Velocity":31,"Duration":426166,"SoundDuration":426166,"Delta":95652835},{"NoteNumber":81,"Velocity":44,"Duration":432557,"SoundDuration":432557,"Delta":96079002},{"NoteNumber":65,"Velocity":31,"Duration":432557,"SoundDuration":432557,"Delta":96079002},{"NoteNumber":60,"Velocity":26,"Duration":432557,"SoundDuration":432557,"Delta":96079002},{"NoteNumber":81,"Velocity":46,"Duration":634563,"SoundDuration":634563,"Delta":96511559},{"NoteNumber":65,"Velocity":33,"Duration":846084,"SoundDuration":846084,"Delta":96511559},{"NoteNumber":60,"Velocity":28,"Duration":1278641,"SoundDuration":1278641,"Delta":96511559},{"NoteNumber":83,"Velocity":39,"Duration":105760,"SoundDuration":105760,"Delta":97146122},{"NoteNumber":81,"Velocity":39,"Duration":105760,"SoundDuration":105760,"Delta":97251883},{"NoteNumber":79,"Velocity":46,"Duration":432557,"SoundDuration":432557,"Delta":97357643},{"NoteNumber":64,"Velocity":31,"Duration":432557,"SoundDuration":432557,"Delta":97357643},{"NoteNumber":79,"Velocity":46,"Duration":208477,"SoundDuration":208477,"Delta":97790200},{"NoteNumber":71,"Velocity":35,"Duration":421561,"SoundDuration":421561,"Delta":97790200},{"NoteNumber":55,"Velocity":28,"Duration":421561,"SoundDuration":421561,"Delta":97790200},{"NoteNumber":62,"Velocity":33,"Duration":421561,"SoundDuration":421561,"Delta":97790200},{"NoteNumber":77,"Velocity":41,"Duration":213083,"SoundDuration":213083,"Delta":97998678},{"NoteNumber":71,"Velocity":35,"Duration":426167,"SoundDuration":426167,"Delta":98211762},{"NoteNumber":77,"Velocity":46,"Duration":426167,"SoundDuration":426167,"Delta":98211762},{"NoteNumber":62,"Velocity":30,"Duration":426167,"SoundDuration":426167,"Delta":98211762},{"NoteNumber":55,"Velocity":25,"Duration":426167,"SoundDuration":426167,"Delta":98211762},{"NoteNumber":77,"Velocity":41,"Duration":439142,"SoundDuration":439142,"Delta":98637929},{"NoteNumber":71,"Velocity":32,"Duration":439142,"SoundDuration":439142,"Delta":98637929},{"NoteNumber":62,"Velocity":30,"Duration":439142,"SoundDuration":439142,"Delta":98637929},{"NoteNumber":55,"Velocity":25,"Duration":439142,"SoundDuration":439142,"Delta":98637929},{"NoteNumber":71,"Velocity":35,"Duration":846084,"SoundDuration":846084,"Delta":99077071},{"NoteNumber":77,"Velocity":46,"Duration":846084,"SoundDuration":846084,"Delta":99077071},{"NoteNumber":55,"Velocity":28,"Duration":846084,"SoundDuration":846084,"Delta":99077071},{"NoteNumber":62,"Velocity":33,"Duration":846084,"SoundDuration":846084,"Delta":99077071},{"NoteNumber":76,"Velocity":42,"Duration":429338,"SoundDuration":429338,"Delta":99923155},{"NoteNumber":72,"Velocity":33,"Duration":429338,"SoundDuration":429338,"Delta":99923155},{"NoteNumber":60,"Velocity":30,"Duration":429338,"SoundDuration":429338,"Delta":99923155},{"NoteNumber":57,"Velocity":25,"Duration":429338,"SoundDuration":429338,"Delta":99923155},{"NoteNumber":79,"Velocity":46,"Duration":205507,"SoundDuration":205507,"Delta":100352493},{"NoteNumber":76,"Velocity":35,"Duration":205507,"SoundDuration":205507,"Delta":100352493},{"NoteNumber":53,"Velocity":33,"Duration":415488,"SoundDuration":415488,"Delta":100352493},{"NoteNumber":77,"Velocity":40,"Duration":209980,"SoundDuration":209980,"Delta":100558000},{"NoteNumber":74,"Velocity":31,"Duration":209980,"SoundDuration":209980,"Delta":100558000},{"NoteNumber":76,"Velocity":46,"Duration":419961,"SoundDuration":419961,"Delta":100767981},{"NoteNumber":72,"Velocity":35,"Duration":419961,"SoundDuration":419961,"Delta":100767981},{"NoteNumber":55,"Velocity":32,"Duration":419961,"SoundDuration":419961,"Delta":100767981},{"NoteNumber":71,"Velocity":30,"Duration":426167,"SoundDuration":426167,"Delta":101187943},{"NoteNumber":74,"Velocity":39,"Duration":426167,"SoundDuration":426167,"Delta":101187943},{"NoteNumber":53,"Velocity":32,"Duration":426167,"SoundDuration":426167,"Delta":101187943},{"NoteNumber":79,"Velocity":63,"Duration":99906,"SoundDuration":99906,"Delta":101614110},{"NoteNumber":76,"Velocity":63,"Duration":99906,"SoundDuration":99906,"Delta":101614110},{"NoteNumber":40,"Velocity":58,"Duration":199813,"SoundDuration":199813,"Delta":101614110},{"NoteNumber":52,"Velocity":69,"Duration":199813,"SoundDuration":199813,"Delta":101614110},{"NoteNumber":79,"Velocity":50,"Duration":99906,"SoundDuration":99906,"Delta":101813924},{"NoteNumber":76,"Velocity":50,"Duration":99906,"SoundDuration":99906,"Delta":101813924},{"NoteNumber":56,"Velocity":40,"Duration":100603,"SoundDuration":100603,"Delta":102013737},{"NoteNumber":74,"Velocity":33,"Duration":100603,"SoundDuration":100603,"Delta":102214944},{"NoteNumber":77,"Velocity":33,"Duration":100603,"SoundDuration":100603,"Delta":102214944},{"NoteNumber":57,"Velocity":40,"Duration":102027,"SoundDuration":102027,"Delta":102416151},{"NoteNumber":72,"Velocity":33,"Duration":102027,"SoundDuration":102027,"Delta":102620205},{"NoteNumber":76,"Velocity":33,"Duration":102027,"SoundDuration":102027,"Delta":102620205},{"NoteNumber":53,"Velocity":40,"Duration":102027,"SoundDuration":102027,"Delta":102824259},{"NoteNumber":74,"Velocity":33,"Duration":102027,"SoundDuration":102027,"Delta":103028313},{"NoteNumber":65,"Velocity":33,"Duration":102027,"SoundDuration":102027,"Delta":103028313},{"NoteNumber":55,"Velocity":40,"Duration":99906,"SoundDuration":99906,"Delta":103232367},{"NoteNumber":72,"Velocity":33,"Duration":99906,"SoundDuration":99906,"Delta":103432181},{"NoteNumber":64,"Velocity":33,"Duration":99906,"SoundDuration":99906,"Delta":103432181},{"NoteNumber":53,"Velocity":40,"Duration":102753,"SoundDuration":102753,"Delta":103631994},{"NoteNumber":62,"Velocity":33,"Duration":102753,"SoundDuration":102753,"Delta":103837502},{"NoteNumber":71,"Velocity":33,"Duration":102753,"SoundDuration":102753,"Delta":103837502},{"NoteNumber":40,"Velocity":75,"Duration":102753,"SoundDuration":102753,"Delta":104043009},{"NoteNumber":52,"Velocity":75,"Duration":102753,"SoundDuration":102753,"Delta":104043009},{"NoteNumber":76,"Velocity":72,"Duration":102753,"SoundDuration":102753,"Delta":104145763},{"NoteNumber":79,"Velocity":75,"Duration":102753,"SoundDuration":102753,"Delta":104248517},{"NoteNumber":76,"Velocity":72,"Duration":102753,"SoundDuration":102753,"Delta":104351271},{"NoteNumber":44,"Velocity":73,"Duration":99906,"SoundDuration":99906,"Delta":104454024},{"NoteNumber":56,"Velocity":73,"Duration":99906,"SoundDuration":99906,"Delta":104454024},{"NoteNumber":74,"Velocity":70,"Duration":99906,"SoundDuration":99906,"Delta":104553931},{"NoteNumber":77,"Velocity":75,"Duration":99906,"SoundDuration":99906,"Delta":104653838},{"NoteNumber":74,"Velocity":70,"Duration":99906,"SoundDuration":99906,"Delta":104753745},{"NoteNumber":57,"Velocity":73,"Duration":102753,"SoundDuration":102753,"Delta":104853651},{"NoteNumber":45,"Velocity":73,"Duration":102753,"SoundDuration":102753,"Delta":104853651},{"NoteNumber":72,"Velocity":72,"Duration":102753,"SoundDuration":102753,"Delta":104956405},{"NoteNumber":76,"Velocity":75,"Duration":102753,"SoundDuration":102753,"Delta":105059159},{"NoteNumber":72,"Velocity":71,"Duration":102753,"SoundDuration":102753,"Delta":105161913},{"NoteNumber":41,"Velocity":75,"Duration":101310,"SoundDuration":101310,"Delta":105264666},{"NoteNumber":53,"Velocity":75,"Duration":101310,"SoundDuration":101310,"Delta":105264666},{"NoteNumber":65,"Velocity":71,"Duration":101310,"SoundDuration":101310,"Delta":105365977},{"NoteNumber":74,"Velocity":75,"Duration":101310,"SoundDuration":101310,"Delta":105467287},{"NoteNumber":65,"Velocity":71,"Duration":101310,"SoundDuration":101310,"Delta":105568597},{"NoteNumber":55,"Velocity":73,"Duration":100603,"SoundDuration":100603,"Delta":105669907},{"NoteNumber":43,"Velocity":73,"Duration":100603,"SoundDuration":100603,"Delta":105669907},{"NoteNumber":64,"Velocity":71,"Duration":100603,"SoundDuration":100603,"Delta":105770511},{"NoteNumber":72,"Velocity":75,"Duration":100603,"SoundDuration":100603,"Delta":105871114},{"NoteNumber":64,"Velocity":71,"Duration":100603,"SoundDuration":100603,"Delta":105971718},{"NoteNumber":55,"Velocity":73,"Duration":103491,"SoundDuration":103491,"Delta":106072321},{"NoteNumber":43,"Velocity":73,"Duration":103491,"SoundDuration":103491,"Delta":106072321},{"NoteNumber":62,"Velocity":71,"Duration":103490,"SoundDuration":103490,"Delta":106175812},{"NoteNumber":71,"Velocity":75,"Duration":103491,"SoundDuration":103491,"Delta":106279303},{"NoteNumber":62,"Velocity":71,"Duration":103587,"SoundDuration":103587,"Delta":106382794},{"NoteNumber":64,"Velocity":75,"Duration":412675,"SoundDuration":412675,"Delta":106486381},{"NoteNumber":67,"Velocity":75,"Duration":412675,"SoundDuration":412675,"Delta":106486381},{"NoteNumber":72,"Velocity":75,"Duration":412675,"SoundDuration":412675,"Delta":106486381},{"NoteNumber":48,"Velocity":64,"Duration":101850,"SoundDuration":101850,"Delta":106486381},{"NoteNumber":52,"Velocity":59,"Duration":104928,"SoundDuration":104928,"Delta":106588232},{"NoteNumber":55,"Velocity":59,"Duration":102871,"SoundDuration":102871,"Delta":106693160},{"NoteNumber":60,"Velocity":59,"Duration":103025,"SoundDuration":103025,"Delta":106796032},{"NoteNumber":48,"Velocity":63,"Duration":101501,"SoundDuration":101501,"Delta":106899057},{"NoteNumber":52,"Velocity":58,"Duration":101158,"SoundDuration":101158,"Delta":107000558},{"NoteNumber":55,"Velocity":58,"Duration":103559,"SoundDuration":103559,"Delta":107101717},{"NoteNumber":60,"Velocity":58,"Duration":102193,"SoundDuration":102193,"Delta":107205276},{"NoteNumber":76,"Velocity":70,"Duration":51317,"SoundDuration":51317,"Delta":107307469},{"NoteNumber":48,"Velocity":63,"Duration":103003,"SoundDuration":103003,"Delta":107307469},{"NoteNumber":77,"Velocity":65,"Duration":51686,"SoundDuration":51686,"Delta":107358786},{"NoteNumber":76,"Velocity":70,"Duration":52152,"SoundDuration":52152,"Delta":107410473},{"NoteNumber":52,"Velocity":57,"Duration":104877,"SoundDuration":104877,"Delta":107410473},{"NoteNumber":77,"Velocity":66,"Duration":52724,"SoundDuration":52724,"Delta":107462625},{"NoteNumber":76,"Velocity":70,"Duration":35376,"SoundDuration":35376,"Delta":107515350},{"NoteNumber":55,"Velocity":58,"Duration":106913,"SoundDuration":106913,"Delta":107515350},{"NoteNumber":77,"Velocity":66,"Duration":35702,"SoundDuration":35702,"Delta":107550726},{"NoteNumber":76,"Velocity":66,"Duration":35835,"SoundDuration":35835,"Delta":107586428},{"NoteNumber":74,"Velocity":70,"Duration":54309,"SoundDuration":54309,"Delta":107622263},{"NoteNumber":60,"Velocity":58,"Duration":108719,"SoundDuration":108719,"Delta":107622263},{"NoteNumber":72,"Velocity":66,"Duration":54410,"SoundDuration":54410,"Delta":107676572},{"NoteNumber":79,"Velocity":75,"Duration":810178,"SoundDuration":810178,"Delta":107730983},{"NoteNumber":48,"Velocity":63,"Duration":100860,"SoundDuration":100860,"Delta":107730983},{"NoteNumber":52,"Velocity":58,"Duration":102209,"SoundDuration":102209,"Delta":107831843},{"NoteNumber":55,"Velocity":59,"Duration":100179,"SoundDuration":100179,"Delta":107934053},{"NoteNumber":60,"Velocity":59,"Duration":100323,"SoundDuration":100323,"Delta":108034232},{"NoteNumber":48,"Velocity":63,"Duration":103818,"SoundDuration":103818,"Delta":108134556},{"NoteNumber":52,"Velocity":57,"Duration":99944,"SoundDuration":99944,"Delta":108238374},{"NoteNumber":55,"Velocity":57,"Duration":101891,"SoundDuration":101891,"Delta":108338319},{"NoteNumber":60,"Velocity":57,"Duration":100951,"SoundDuration":100951,"Delta":108440210},{"NoteNumber":83,"Velocity":70,"Duration":51409,"SoundDuration":51409,"Delta":108541162},{"NoteNumber":48,"Velocity":63,"Duration":103187,"SoundDuration":103187,"Delta":108541162},{"NoteNumber":84,"Velocity":66,"Duration":51778,"SoundDuration":51778,"Delta":108592571},{"NoteNumber":83,"Velocity":70,"Duration":52152,"SoundDuration":52152,"Delta":108644349},{"NoteNumber":53,"Velocity":57,"Duration":104877,"SoundDuration":104877,"Delta":108644349},{"NoteNumber":84,"Velocity":66,"Duration":52724,"SoundDuration":52724,"Delta":108696502},{"NoteNumber":83,"Velocity":70,"Duration":35376,"SoundDuration":35376,"Delta":108749226},{"NoteNumber":55,"Velocity":57,"Duration":106617,"SoundDuration":106617,"Delta":108749226},{"NoteNumber":84,"Velocity":65,"Duration":35506,"SoundDuration":35506,"Delta":108784602},{"NoteNumber":83,"Velocity":66,"Duration":35734,"SoundDuration":35734,"Delta":108820108},{"NoteNumber":81,"Velocity":70,"Duration":54004,"SoundDuration":54004,"Delta":108855843},{"NoteNumber":62,"Velocity":57,"Duration":107642,"SoundDuration":107642,"Delta":108855843},{"NoteNumber":79,"Velocity":65,"Duration":53637,"SoundDuration":53637,"Delta":108909848},{"NoteNumber":84,"Velocity":75,"Duration":821073,"SoundDuration":821073,"Delta":108963486},{"NoteNumber":48,"Velocity":63,"Duration":102634,"SoundDuration":102634,"Delta":108963486},{"NoteNumber":52,"Velocity":57,"Duration":102634,"SoundDuration":102634,"Delta":109066120},{"NoteNumber":55,"Velocity":57,"Duration":102634,"SoundDuration":102634,"Delta":109168754},{"NoteNumber":60,"Velocity":57,"Duration":102634,"SoundDuration":102634,"Delta":109271388},{"NoteNumber":48,"Velocity":63,"Duration":102634,"SoundDuration":102634,"Delta":109374023},{"NoteNumber":52,"Velocity":57,"Duration":102634,"SoundDuration":102634,"Delta":109476657},{"NoteNumber":55,"Velocity":57,"Duration":102634,"SoundDuration":102634,"Delta":109579291},{"NoteNumber":60,"Velocity":57,"Duration":102634,"SoundDuration":102634,"Delta":109681925},{"NoteNumber":76,"Velocity":70,"Duration":51317,"SoundDuration":51317,"Delta":109784560},{"NoteNumber":48,"Velocity":63,"Duration":102879,"SoundDuration":102879,"Delta":109784560},{"NoteNumber":77,"Velocity":65,"Duration":51562,"SoundDuration":51562,"Delta":109835877},{"NoteNumber":76,"Velocity":70,"Duration":52089,"SoundDuration":52089,"Delta":109887439},{"NoteNumber":52,"Velocity":57,"Duration":104750,"SoundDuration":104750,"Delta":109887439},{"NoteNumber":77,"Velocity":66,"Duration":52660,"SoundDuration":52660,"Delta":109939529},{"NoteNumber":76,"Velocity":70,"Duration":35311,"SoundDuration":35311,"Delta":109992190},{"NoteNumber":55,"Velocity":58,"Duration":106716,"SoundDuration":106716,"Delta":109992190},{"NoteNumber":77,"Velocity":66,"Duration":35636,"SoundDuration":35636,"Delta":110027501},{"NoteNumber":76,"Velocity":66,"Duration":35768,"SoundDuration":35768,"Delta":110063137},{"NoteNumber":74,"Velocity":70,"Duration":54241,"SoundDuration":54241,"Delta":110098906},{"NoteNumber":60,"Velocity":58,"Duration":108652,"SoundDuration":108652,"Delta":110098906},{"NoteNumber":72,"Velocity":66,"Duration":54410,"SoundDuration":54410,"Delta":110153147},{"NoteNumber":79,"Velocity":75,"Duration":203850,"SoundDuration":203850,"Delta":110207558},{"NoteNumber":48,"Velocity":63,"Duration":101405,"SoundDuration":101405,"Delta":110207558},{"NoteNumber":52,"Velocity":58,"Duration":102445,"SoundDuration":102445,"Delta":110308963},{"NoteNumber":55,"Velocity":59,"Duration":100086,"SoundDuration":100086,"Delta":110411408},{"NoteNumber":60,"Velocity":59,"Duration":100457,"SoundDuration":100457,"Delta":110511494},{"NoteNumber":48,"Velocity":63,"Duration":103408,"SoundDuration":103408,"Delta":110611952},{"NoteNumber":79,"Velocity":75,"Duration":203775,"SoundDuration":203775,"Delta":110611952},{"NoteNumber":52,"Velocity":57,"Duration":100367,"SoundDuration":100367,"Delta":110715360},{"NoteNumber":55,"Velocity":57,"Duration":101715,"SoundDuration":101715,"Delta":110815727},{"NoteNumber":60,"Velocity":57,"Duration":100879,"SoundDuration":100879,"Delta":110917442},{"NoteNumber":83,"Velocity":70,"Duration":51347,"SoundDuration":51347,"Delta":111018322},{"NoteNumber":48,"Velocity":63,"Duration":103063,"SoundDuration":103063,"Delta":111018322},{"NoteNumber":84,"Velocity":66,"Duration":51715,"SoundDuration":51715,"Delta":111069669},{"NoteNumber":83,"Velocity":70,"Duration":52089,"SoundDuration":52089,"Delta":111121385},{"NoteNumber":53,"Velocity":57,"Duration":104750,"SoundDuration":104750,"Delta":111121385},{"NoteNumber":84,"Velocity":66,"Duration":52660,"SoundDuration":52660,"Delta":111173475},{"NoteNumber":83,"Velocity":70,"Duration":35311,"SoundDuration":35311,"Delta":111226136},{"NoteNumber":55,"Velocity":57,"Duration":106486,"SoundDuration":106486,"Delta":111226136},{"NoteNumber":84,"Velocity":65,"Duration":35473,"SoundDuration":35473,"Delta":111261447},{"NoteNumber":83,"Velocity":66,"Duration":35702,"SoundDuration":35702,"Delta":111296920},{"NoteNumber":81,"Velocity":70,"Duration":53870,"SoundDuration":53870,"Delta":111332622},{"NoteNumber":62,"Velocity":57,"Duration":107996,"SoundDuration":107996,"Delta":111332622},{"NoteNumber":79,"Velocity":65,"Duration":54125,"SoundDuration":54125,"Delta":111386492},{"NoteNumber":84,"Velocity":75,"Duration":107559,"SoundDuration":107559,"Delta":111440618},{"NoteNumber":60,"Velocity":63,"Duration":107559,"SoundDuration":107559,"Delta":111440618},{"NoteNumber":48,"Velocity":63,"Duration":107559,"SoundDuration":107559,"Delta":111440618},{"NoteNumber":52,"Velocity":63,"Duration":107559,"SoundDuration":107559,"Delta":111440618},{"NoteNumber":55,"Velocity":63,"Duration":107559,"SoundDuration":107559,"Delta":111440618},{"NoteNumber":88,"Velocity":88,"Duration":611453,"SoundDuration":611453,"Delta":111871741},{"NoteNumber":64,"Velocity":69,"Duration":611453,"SoundDuration":611453,"Delta":111871741},{"NoteNumber":52,"Velocity":58,"Duration":611453,"SoundDuration":611453,"Delta":111871741},{"NoteNumber":80,"Velocity":75,"Duration":204215,"SoundDuration":204215,"Delta":112483195},{"NoteNumber":56,"Velocity":63,"Duration":204215,"SoundDuration":204215,"Delta":112483195},{"NoteNumber":44,"Velocity":63,"Duration":204215,"SoundDuration":204215,"Delta":112483195},{"NoteNumber":81,"Velocity":75,"Duration":107203,"SoundDuration":107203,"Delta":112687410},{"NoteNumber":57,"Velocity":63,"Duration":107203,"SoundDuration":107203,"Delta":112687410},{"NoteNumber":45,"Velocity":63,"Duration":107203,"SoundDuration":107203,"Delta":112687410},{"NoteNumber":84,"Velocity":89,"Duration":611453,"SoundDuration":611453,"Delta":113115829},{"NoteNumber":60,"Velocity":71,"Duration":611453,"SoundDuration":611453,"Delta":113115829},{"NoteNumber":48,"Velocity":60,"Duration":611453,"SoundDuration":611453,"Delta":113115829},{"NoteNumber":76,"Velocity":75,"Duration":203927,"SoundDuration":203927,"Delta":113727283},{"NoteNumber":52,"Velocity":63,"Duration":203927,"SoundDuration":203927,"Delta":113727283},{"NoteNumber":77,"Velocity":70,"Duration":51684,"SoundDuration":51684,"Delta":113931211},{"NoteNumber":53,"Velocity":56,"Duration":51684,"SoundDuration":51684,"Delta":113931211},{"NoteNumber":79,"Velocity":65,"Duration":51684,"SoundDuration":51684,"Delta":113982896},{"NoteNumber":55,"Velocity":52,"Duration":51684,"SoundDuration":51684,"Delta":113982896},{"NoteNumber":77,"Velocity":70,"Duration":51684,"SoundDuration":51684,"Delta":114034581},{"NoteNumber":53,"Velocity":56,"Duration":51684,"SoundDuration":51684,"Delta":114034581},{"NoteNumber":79,"Velocity":66,"Duration":51684,"SoundDuration":51684,"Delta":114086265},{"NoteNumber":55,"Velocity":52,"Duration":51684,"SoundDuration":51684,"Delta":114086265},{"NoteNumber":77,"Velocity":70,"Duration":34456,"SoundDuration":34456,"Delta":114137950},{"NoteNumber":53,"Velocity":56,"Duration":34456,"SoundDuration":34456,"Delta":114137950},{"NoteNumber":79,"Velocity":66,"Duration":34456,"SoundDuration":34456,"Delta":114172407},{"NoteNumber":55,"Velocity":52,"Duration":34456,"SoundDuration":34456,"Delta":114172407},{"NoteNumber":77,"Velocity":66,"Duration":34456,"SoundDuration":34456,"Delta":114206864},{"NoteNumber":53,"Velocity":52,"Duration":34456,"SoundDuration":34456,"Delta":114206864},{"NoteNumber":76,"Velocity":70,"Duration":51684,"SoundDuration":51684,"Delta":114241320},{"NoteNumber":52,"Velocity":56,"Duration":51684,"SoundDuration":51684,"Delta":114241320},{"NoteNumber":74,"Velocity":66,"Duration":51684,"SoundDuration":51684,"Delta":114293005},{"NoteNumber":50,"Velocity":52,"Duration":51684,"SoundDuration":51684,"Delta":114293005},{"NoteNumber":79,"Velocity":84,"Duration":103369,"SoundDuration":103369,"Delta":114344690},{"NoteNumber":55,"Velocity":63,"Duration":103369,"SoundDuration":103369,"Delta":114344690},{"NoteNumber":79,"Velocity":72,"Duration":106420,"SoundDuration":106420,"Delta":114758398},{"NoteNumber":74,"Velocity":72,"Duration":106420,"SoundDuration":106420,"Delta":114758398},{"NoteNumber":83,"Velocity":86,"Duration":106420,"SoundDuration":106420,"Delta":114758398},{"NoteNumber":55,"Velocity":67,"Duration":106420,"SoundDuration":106420,"Delta":114758398},{"NoteNumber":43,"Velocity":56,"Duration":106420,"SoundDuration":106420,"Delta":114758398},{"NoteNumber":84,"Velocity":86,"Duration":106420,"SoundDuration":106420,"Delta":115184081},{"NoteNumber":76,"Velocity":72,"Duration":106420,"SoundDuration":106420,"Delta":115184081},{"NoteNumber":79,"Velocity":72,"Duration":106420,"SoundDuration":106420,"Delta":115184081},{"NoteNumber":48,"Velocity":60,"Duration":106420,"SoundDuration":106420,"Delta":115184081},{"NoteNumber":60,"Velocity":72,"Duration":106420,"SoundDuration":106420,"Delta":115184081},{"NoteNumber":60,"Velocity":79,"Duration":106420,"SoundDuration":106420,"Delta":115609764},{"NoteNumber":48,"Velocity":69,"Duration":106420,"SoundDuration":106420,"Delta":115609764},{"NoteNumber":36,"Velocity":58,"Duration":106420,"SoundDuration":106420,"Delta":115609764},{"NoteNumber":65,"Velocity":50,"Duration":821856,"SoundDuration":821856,"Delta":116461130},{"NoteNumber":53,"Velocity":40,"Duration":211521,"SoundDuration":211521,"Delta":116461130},{"NoteNumber":57,"Velocity":30,"Duration":203445,"SoundDuration":203445,"Delta":116672651},{"NoteNumber":60,"Velocity":33,"Duration":203445,"SoundDuration":203445,"Delta":116876096},{"NoteNumber":57,"Velocity":30,"Duration":203445,"SoundDuration":203445,"Delta":117079541},{"NoteNumber":69,"Velocity":47,"Duration":416664,"SoundDuration":416664,"Delta":117282986},{"NoteNumber":60,"Velocity":34,"Duration":203444,"SoundDuration":203444,"Delta":117282986},{"NoteNumber":57,"Velocity":30,"Duration":213219,"SoundDuration":213219,"Delta":117486431},{"NoteNumber":72,"Velocity":52,"Duration":816946,"SoundDuration":816946,"Delta":117699650},{"NoteNumber":53,"Velocity":40,"Duration":206611,"SoundDuration":206611,"Delta":117699650},{"NoteNumber":60,"Velocity":29,"Duration":203445,"SoundDuration":203445,"Delta":117906262},{"NoteNumber":63,"Velocity":31,"Duration":203445,"SoundDuration":203445,"Delta":118109707},{"NoteNumber":60,"Velocity":27,"Duration":203445,"SoundDuration":203445,"Delta":118313152},{"NoteNumber":69,"Velocity":46,"Duration":414965,"SoundDuration":414965,"Delta":118516597},{"NoteNumber":63,"Velocity":31,"Duration":203444,"SoundDuration":203444,"Delta":118516597},{"NoteNumber":60,"Velocity":28,"Duration":211521,"SoundDuration":211521,"Delta":118720042},{"NoteNumber":70,"Velocity":50,"Duration":826446,"SoundDuration":826446,"Delta":118931563},{"NoteNumber":53,"Velocity":40,"Duration":206611,"SoundDuration":206611,"Delta":118931563},{"NoteNumber":58,"Velocity":30,"Duration":206611,"SoundDuration":206611,"Delta":119138174},{"NoteNumber":62,"Velocity":33,"Duration":206611,"SoundDuration":206611,"Delta":119344786},{"NoteNumber":58,"Velocity":30,"Duration":206611,"SoundDuration":206611,"Delta":119551397},{"NoteNumber":79,"Velocity":47,"Duration":419726,"SoundDuration":419726,"Delta":119758009},{"NoteNumber":62,"Velocity":33,"Duration":209863,"SoundDuration":209863,"Delta":119758009},{"NoteNumber":58,"Velocity":30,"Duration":209863,"SoundDuration":209863,"Delta":119967872},{"NoteNumber":77,"Velocity":47,"Duration":203445,"SoundDuration":203445,"Delta":120177736},{"NoteNumber":53,"Velocity":40,"Duration":203445,"SoundDuration":203445,"Delta":120177736},{"NoteNumber":76,"Velocity":44,"Duration":207240,"SoundDuration":207240,"Delta":120381181},{"NoteNumber":55,"Velocity":23,"Duration":209863,"SoundDuration":209863,"Delta":120381181},{"NoteNumber":76,"Velocity":44,"Duration":419727,"SoundDuration":419727,"Delta":120591044},{"NoteNumber":58,"Velocity":28,"Duration":209863,"SoundDuration":209863,"Delta":120591044},{"NoteNumber":55,"Velocity":24,"Duration":209863,"SoundDuration":209863,"Delta":120800908},{"NoteNumber":58,"Velocity":29,"Duration":208231,"SoundDuration":208231,"Delta":121010771},{"NoteNumber":55,"Velocity":24,"Duration":219297,"SoundDuration":219297,"Delta":121219003},{"NoteNumber":77,"Velocity":50,"Duration":419753,"SoundDuration":419753,"Delta":121438301},{"NoteNumber":57,"Velocity":30,"Duration":419753,"SoundDuration":419753,"Delta":121438301},{"NoteNumber":53,"Velocity":30,"Duration":419753,"SoundDuration":419753,"Delta":121438301},{"NoteNumber":69,"Velocity":46,"Duration":416464,"SoundDuration":416464,"Delta":121858054},{"NoteNumber":74,"Velocity":46,"Duration":419753,"SoundDuration":419753,"Delta":122274518},{"NoteNumber":67,"Velocity":50,"Duration":423041,"SoundDuration":423041,"Delta":122694271},{"NoteNumber":72,"Velocity":54,"Duration":629683,"SoundDuration":629683,"Delta":123117313},{"NoteNumber":69,"Velocity":45,"Duration":213219,"SoundDuration":213219,"Delta":123746997},{"NoteNumber":65,"Velocity":50,"Duration":1665856,"SoundDuration":1665856,"Delta":123960216},{"NoteNumber":53,"Velocity":47,"Duration":416464,"SoundDuration":416464,"Delta":123960216},{"NoteNumber":45,"Velocity":44,"Duration":416463,"SoundDuration":416463,"Delta":124376680},{"NoteNumber":50,"Velocity":48,"Duration":416464,"SoundDuration":416464,"Delta":124793144},{"NoteNumber":67,"Velocity":50,"Duration":1255969,"SoundDuration":1255969,"Delta":125209608},{"NoteNumber":43,"Velocity":48,"Duration":416464,"SoundDuration":416464,"Delta":125209608},{"NoteNumber":64,"Velocity":42,"Duration":52057,"SoundDuration":52057,"Delta":125626072},{"NoteNumber":48,"Velocity":49,"Duration":627984,"SoundDuration":627984,"Delta":125626072},{"NoteNumber":65,"Velocity":37,"Duration":52058,"SoundDuration":52058,"Delta":125678130},{"NoteNumber":64,"Velocity":48,"Duration":104116,"SoundDuration":104116,"Delta":125730188},{"NoteNumber":62,"Velocity":48,"Duration":208231,"SoundDuration":208231,"Delta":125834304},{"NoteNumber":64,"Velocity":50,"Duration":423041,"SoundDuration":423041,"Delta":126042536},{"NoteNumber":45,"Velocity":47,"Duration":211520,"SoundDuration":211520,"Delta":126254057},{"NoteNumber":69,"Velocity":48,"Duration":419726,"SoundDuration":419726,"Delta":126465578},{"NoteNumber":65,"Velocity":48,"Duration":1654725,"SoundDuration":1654725,"Delta":126465578},{"NoteNumber":41,"Velocity":52,"Duration":419726,"SoundDuration":419726,"Delta":126465578},{"NoteNumber":70,"Velocity":52,"Duration":410060,"SoundDuration":410060,"Delta":126885305},{"NoteNumber":50,"Velocity":40,"Duration":410060,"SoundDuration":410060,"Delta":126885305},{"NoteNumber":74,"Velocity":55,"Duration":413861,"SoundDuration":413861,"Delta":127295365},{"NoteNumber":46,"Velocity":44,"Duration":416464,"SoundDuration":416464,"Delta":127295365},{"NoteNumber":74,"Velocity":58,"Duration":205029,"SoundDuration":205029,"Delta":127711829},{"NoteNumber":45,"Velocity":47,"Duration":408474,"SoundDuration":408474,"Delta":127711829},{"NoteNumber":72,"Velocity":57,"Duration":203445,"SoundDuration":203445,"Delta":127916859},{"NoteNumber":70,"Velocity":56,"Duration":203444,"SoundDuration":203444,"Delta":128120304},{"NoteNumber":69,"Velocity":54,"Duration":203445,"SoundDuration":203445,"Delta":128323749},{"NoteNumber":67,"Velocity":53,"Duration":203444,"SoundDuration":203444,"Delta":128527194},{"NoteNumber":50,"Velocity":40,"Duration":410056,"SoundDuration":410056,"Delta":128527194},{"NoteNumber":65,"Velocity":51,"Duration":206611,"SoundDuration":206611,"Delta":128730639},{"NoteNumber":67,"Velocity":54,"Duration":403822,"SoundDuration":403822,"Delta":128937251},{"NoteNumber":46,"Velocity":40,"Duration":403822,"SoundDuration":403822,"Delta":128937251},{"NoteNumber":70,"Velocity":50,"Duration":104931,"SoundDuration":104931,"Delta":129341074},{"NoteNumber":64,"Velocity":54,"Duration":426438,"SoundDuration":426438,"Delta":129760801},{"NoteNumber":58,"Velocity":54,"Duration":426438,"SoundDuration":426438,"Delta":129760801},{"NoteNumber":48,"Velocity":41,"Duration":426438,"SoundDuration":426438,"Delta":129760801},{"NoteNumber":65,"Velocity":56,"Duration":416463,"SoundDuration":416463,"Delta":130187240},{"NoteNumber":57,"Velocity":56,"Duration":416463,"SoundDuration":416463,"Delta":130187240},{"NoteNumber":41,"Velocity":43,"Duration":416463,"SoundDuration":416463,"Delta":130187240},{"NoteNumber":84,"Velocity":50,"Duration":312347,"SoundDuration":312347,"Delta":131020168},{"NoteNumber":69,"Velocity":32,"Duration":312347,"SoundDuration":312347,"Delta":131020168},{"NoteNumber":72,"Velocity":40,"Duration":312347,"SoundDuration":312347,"Delta":131020168},{"NoteNumber":82,"Velocity":44,"Duration":108350,"SoundDuration":108350,"Delta":131332516},{"NoteNumber":67,"Velocity":28,"Duration":108350,"SoundDuration":108350,"Delta":131332516},{"NoteNumber":70,"Velocity":35,"Duration":108350,"SoundDuration":108350,"Delta":131332516},{"NoteNumber":81,"Velocity":50,"Duration":104116,"SoundDuration":104116,"Delta":131440866},{"NoteNumber":69,"Velocity":40,"Duration":104116,"SoundDuration":104116,"Delta":131440866},{"NoteNumber":65,"Velocity":32,"Duration":104116,"SoundDuration":104116,"Delta":131440866},{"NoteNumber":81,"Velocity":50,"Duration":104116,"SoundDuration":104116,"Delta":131857330},{"NoteNumber":69,"Velocity":40,"Duration":104116,"SoundDuration":104116,"Delta":131857330},{"NoteNumber":65,"Velocity":32,"Duration":104116,"SoundDuration":104116,"Delta":131857330},{"NoteNumber":81,"Velocity":47,"Duration":312347,"SoundDuration":312347,"Delta":132278028},{"NoteNumber":65,"Velocity":29,"Duration":312347,"SoundDuration":312347,"Delta":132278028},{"NoteNumber":69,"Velocity":37,"Duration":312347,"SoundDuration":312347,"Delta":132278028},{"NoteNumber":79,"Velocity":42,"Duration":104116,"SoundDuration":104116,"Delta":132590376},{"NoteNumber":60,"Velocity":26,"Duration":104116,"SoundDuration":104116,"Delta":132590376},{"NoteNumber":67,"Velocity":33,"Duration":104116,"SoundDuration":104116,"Delta":132590376},{"NoteNumber":77,"Velocity":48,"Duration":104116,"SoundDuration":104116,"Delta":132694492},{"NoteNumber":65,"Velocity":38,"Duration":104116,"SoundDuration":104116,"Delta":132694492},{"NoteNumber":57,"Velocity":30,"Duration":104116,"SoundDuration":104116,"Delta":132694492},{"NoteNumber":77,"Velocity":44,"Duration":104115,"SoundDuration":104115,"Delta":133110956},{"NoteNumber":57,"Velocity":28,"Duration":104115,"SoundDuration":104115,"Delta":133110956},{"NoteNumber":65,"Velocity":35,"Duration":104115,"SoundDuration":104115,"Delta":133110956},{"NoteNumber":77,"Velocity":44,"Duration":416463,"SoundDuration":416463,"Delta":133530709},{"NoteNumber":57,"Velocity":28,"Duration":416463,"SoundDuration":416463,"Delta":133530709},{"NoteNumber":65,"Velocity":35,"Duration":416463,"SoundDuration":416463,"Delta":133530709},{"NoteNumber":76,"Velocity":46,"Duration":104116,"SoundDuration":104116,"Delta":133947173},{"NoteNumber":79,"Velocity":46,"Duration":104116,"SoundDuration":104116,"Delta":133947173},{"NoteNumber":67,"Velocity":36,"Duration":104116,"SoundDuration":104116,"Delta":133947173},{"NoteNumber":60,"Velocity":28,"Duration":104116,"SoundDuration":104116,"Delta":133947173},{"NoteNumber":79,"Velocity":44,"Duration":104115,"SoundDuration":104115,"Delta":134363637},{"NoteNumber":76,"Velocity":44,"Duration":104115,"SoundDuration":104115,"Delta":134363637},{"NoteNumber":67,"Velocity":35,"Duration":104115,"SoundDuration":104115,"Delta":134363637},{"NoteNumber":60,"Velocity":28,"Duration":104115,"SoundDuration":104115,"Delta":134363637},{"NoteNumber":79,"Velocity":44,"Duration":105760,"SoundDuration":105760,"Delta":134780101},{"NoteNumber":76,"Velocity":44,"Duration":105760,"SoundDuration":105760,"Delta":134780101},{"NoteNumber":60,"Velocity":28,"Duration":105760,"SoundDuration":105760,"Delta":134780101},{"NoteNumber":67,"Velocity":35,"Duration":105760,"SoundDuration":105760,"Delta":134780101},{"NoteNumber":79,"Velocity":50,"Duration":416463,"SoundDuration":416463,"Delta":135203143},{"NoteNumber":76,"Velocity":50,"Duration":416463,"SoundDuration":416463,"Delta":135203143},{"NoteNumber":60,"Velocity":32,"Duration":416463,"SoundDuration":416463,"Delta":135203143},{"NoteNumber":67,"Velocity":40,"Duration":416463,"SoundDuration":416463,"Delta":135203143},{"NoteNumber":81,"Velocity":44,"Duration":425682,"SoundDuration":425682,"Delta":135619607},{"NoteNumber":77,"Velocity":44,"Duration":425682,"SoundDuration":425682,"Delta":135619607},{"NoteNumber":69,"Velocity":35,"Duration":425682,"SoundDuration":425682,"Delta":135619607},{"NoteNumber":65,"Velocity":28,"Duration":425682,"SoundDuration":425682,"Delta":135619607},{"NoteNumber":84,"Velocity":50,"Duration":97112,"SoundDuration":97112,"Delta":136045290},{"NoteNumber":69,"Velocity":32,"Duration":291337,"SoundDuration":291337,"Delta":136045290},{"NoteNumber":72,"Velocity":40,"Duration":291337,"SoundDuration":291337,"Delta":136045290},{"NoteNumber":86,"Velocity":44,"Duration":97112,"SoundDuration":97112,"Delta":136142403},{"NoteNumber":84,"Velocity":44,"Duration":97112,"SoundDuration":97112,"Delta":136239515},{"NoteNumber":82,"Velocity":44,"Duration":97112,"SoundDuration":97112,"Delta":136336628},{"NoteNumber":67,"Velocity":28,"Duration":97112,"SoundDuration":97112,"Delta":136336628},{"NoteNumber":70,"Velocity":35,"Duration":97112,"SoundDuration":97112,"Delta":136336628},{"NoteNumber":81,"Velocity":50,"Duration":104116,"SoundDuration":104116,"Delta":136433740},{"NoteNumber":65,"Velocity":32,"Duration":104116,"SoundDuration":104116,"Delta":136433740},{"NoteNumber":69,"Velocity":40,"Duration":104116,"SoundDuration":104116,"Delta":136433740},{"NoteNumber":81,"Velocity":50,"Duration":104116,"SoundDuration":104116,"Delta":136850204},{"NoteNumber":65,"Velocity":32,"Duration":104116,"SoundDuration":104116,"Delta":136850204},{"NoteNumber":69,"Velocity":40,"Duration":104116,"SoundDuration":104116,"Delta":136850204},{"NoteNumber":81,"Velocity":47,"Duration":97112,"SoundDuration":97112,"Delta":137266668},{"NoteNumber":65,"Velocity":29,"Duration":291337,"SoundDuration":291337,"Delta":137266668},{"NoteNumber":69,"Velocity":37,"Duration":291337,"SoundDuration":291337,"Delta":137266668},{"NoteNumber":82,"Velocity":42,"Duration":97112,"SoundDuration":97112,"Delta":137363781},{"NoteNumber":81,"Velocity":42,"Duration":97112,"SoundDuration":97112,"Delta":137460893},{"NoteNumber":79,"Velocity":42,"Duration":112199,"SoundDuration":112199,"Delta":137558006},{"NoteNumber":60,"Velocity":26,"Duration":112199,"SoundDuration":112199,"Delta":137558006},{"NoteNumber":67,"Velocity":33,"Duration":112199,"SoundDuration":112199,"Delta":137558006},{"NoteNumber":77,"Velocity":48,"Duration":104116,"SoundDuration":104116,"Delta":137670205},{"NoteNumber":57,"Velocity":30,"Duration":104116,"SoundDuration":104116,"Delta":137670205},{"NoteNumber":65,"Velocity":38,"Duration":104116,"SoundDuration":104116,"Delta":137670205},{"NoteNumber":77,"Velocity":44,"Duration":104116,"SoundDuration":104116,"Delta":138086669},{"NoteNumber":65,"Velocity":35,"Duration":104116,"SoundDuration":104116,"Delta":138086669},{"NoteNumber":57,"Velocity":28,"Duration":104116,"SoundDuration":104116,"Delta":138086669},{"NoteNumber":77,"Velocity":44,"Duration":104115,"SoundDuration":104115,"Delta":138503133},{"NoteNumber":57,"Velocity":28,"Duration":104115,"SoundDuration":104115,"Delta":138503133},{"NoteNumber":65,"Velocity":35,"Duration":104115,"SoundDuration":104115,"Delta":138503133},{"NoteNumber":79,"Velocity":49,"Duration":410059,"SoundDuration":410059,"Delta":138919597},{"NoteNumber":67,"Velocity":37,"Duration":410059,"SoundDuration":410059,"Delta":138919597},{"NoteNumber":60,"Velocity":29,"Duration":410059,"SoundDuration":410059,"Delta":138919597},{"NoteNumber":82,"Velocity":44,"Duration":109233,"SoundDuration":109233,"Delta":139329657},{"NoteNumber":70,"Velocity":35,"Duration":423042,"SoundDuration":423042,"Delta":139766593},{"NoteNumber":76,"Velocity":44,"Duration":423042,"SoundDuration":423042,"Delta":139766593},{"NoteNumber":60,"Velocity":28,"Duration":423042,"SoundDuration":423042,"Delta":139766593},{"NoteNumber":67,"Velocity":35,"Duration":423042,"SoundDuration":423042,"Delta":139766593},{"NoteNumber":77,"Velocity":48,"Duration":423041,"SoundDuration":423041,"Delta":140189635},{"NoteNumber":69,"Velocity":38,"Duration":423041,"SoundDuration":423041,"Delta":140189635},{"NoteNumber":65,"Velocity":39,"Duration":423041,"SoundDuration":423041,"Delta":140189635},{"NoteNumber":84,"Velocity":44,"Duration":423042,"SoundDuration":423042,"Delta":141035719},{"NoteNumber":64,"Velocity":28,"Duration":423042,"SoundDuration":423042,"Delta":141035719},{"NoteNumber":60,"Velocity":28,"Duration":423042,"SoundDuration":423042,"Delta":141035719},{"NoteNumber":70,"Velocity":35,"Duration":423042,"SoundDuration":423042,"Delta":141035719},{"NoteNumber":77,"Velocity":48,"Duration":423041,"SoundDuration":423041,"Delta":141458761},{"NoteNumber":69,"Velocity":39,"Duration":423041,"SoundDuration":423041,"Delta":141458761},{"NoteNumber":65,"Velocity":31,"Duration":423041,"SoundDuration":423041,"Delta":141458761},{"NoteNumber":72,"Velocity":39,"Duration":423042,"SoundDuration":423042,"Delta":142304845},{"NoteNumber":58,"Velocity":31,"Duration":423042,"SoundDuration":423042,"Delta":142304845},{"NoteNumber":52,"Velocity":25,"Duration":423042,"SoundDuration":423042,"Delta":142304845},{"NoteNumber":48,"Velocity":25,"Duration":423042,"SoundDuration":423042,"Delta":142304845},{"NoteNumber":65,"Velocity":43,"Duration":423041,"SoundDuration":423041,"Delta":142727887},{"NoteNumber":53,"Velocity":27,"Duration":423041,"SoundDuration":423041,"Delta":142727887},{"NoteNumber":57,"Velocity":35,"Duration":423041,"SoundDuration":423041,"Delta":142727887},{"NoteNumber":61,"Velocity":80,"Duration":427960,"SoundDuration":427960,"Delta":143573971},{"NoteNumber":37,"Velocity":51,"Duration":427960,"SoundDuration":427960,"Delta":143573971},{"NoteNumber":49,"Velocity":60,"Duration":427960,"SoundDuration":427960,"Delta":143573971},{"NoteNumber":62,"Velocity":85,"Duration":623483,"SoundDuration":623483,"Delta":144001931},{"NoteNumber":50,"Velocity":66,"Duration":207828,"SoundDuration":207828,"Delta":144001931},{"NoteNumber":38,"Velocity":56,"Duration":207828,"SoundDuration":207828,"Delta":144001931},{"NoteNumber":53,"Velocity":60,"Duration":207828,"SoundDuration":207828,"Delta":144209759},{"NoteNumber":57,"Velocity":60,"Duration":207827,"SoundDuration":207827,"Delta":144417587},{"NoteNumber":65,"Velocity":70,"Duration":101715,"SoundDuration":101715,"Delta":144625415},{"NoteNumber":53,"Velocity":60,"Duration":203430,"SoundDuration":203430,"Delta":144625415},{"NoteNumber":69,"Velocity":72,"Duration":101715,"SoundDuration":101715,"Delta":144727131},{"NoteNumber":74,"Velocity":84,"Duration":101715,"SoundDuration":101715,"Delta":144828846},{"NoteNumber":57,"Velocity":63,"Duration":203430,"SoundDuration":203430,"Delta":144828846},{"NoteNumber":69,"Velocity":71,"Duration":101715,"SoundDuration":101715,"Delta":145032277},{"NoteNumber":53,"Velocity":60,"Duration":203431,"SoundDuration":203431,"Delta":145032277},{"NoteNumber":74,"Velocity":73,"Duration":101715,"SoundDuration":101715,"Delta":145133993},{"NoteNumber":77,"Velocity":86,"Duration":101715,"SoundDuration":101715,"Delta":145235708},{"NoteNumber":50,"Velocity":65,"Duration":203430,"SoundDuration":203430,"Delta":145235708},{"NoteNumber":74,"Velocity":71,"Duration":101715,"SoundDuration":101715,"Delta":145439139},{"NoteNumber":53,"Velocity":60,"Duration":203430,"SoundDuration":203430,"Delta":145439139},{"NoteNumber":77,"Velocity":73,"Duration":101715,"SoundDuration":101715,"Delta":145540855},{"NoteNumber":81,"Velocity":87,"Duration":103170,"SoundDuration":103170,"Delta":145642570},{"NoteNumber":57,"Velocity":63,"Duration":206341,"SoundDuration":206341,"Delta":145642570},{"NoteNumber":81,"Velocity":80,"Duration":206341,"SoundDuration":206341,"Delta":145848912},{"NoteNumber":53,"Velocity":60,"Duration":206341,"SoundDuration":206341,"Delta":145848912},{"NoteNumber":77,"Velocity":80,"Duration":209336,"SoundDuration":209336,"Delta":146055253},{"NoteNumber":57,"Velocity":60,"Duration":209336,"SoundDuration":209336,"Delta":146055253},{"NoteNumber":74,"Velocity":80,"Duration":109425,"SoundDuration":109425,"Delta":146264590},{"NoteNumber":53,"Velocity":62,"Duration":218850,"SoundDuration":218850,"Delta":146264590},{"NoteNumber":73,"Velocity":70,"Duration":36475,"SoundDuration":36475,"Delta":146374015},{"NoteNumber":76,"Velocity":70,"Duration":36475,"SoundDuration":36475,"Delta":146410490},{"NoteNumber":79,"Velocity":70,"Duration":36475,"SoundDuration":36475,"Delta":146446965},{"NoteNumber":82,"Velocity":90,"Duration":631150,"SoundDuration":631150,"Delta":146483440},{"NoteNumber":52,"Velocity":71,"Duration":106202,"SoundDuration":106202,"Delta":146483440},{"NoteNumber":40,"Velocity":60,"Duration":106202,"SoundDuration":106202,"Delta":146483440},{"NoteNumber":55,"Velocity":60,"Duration":103170,"SoundDuration":103170,"Delta":146908249},{"NoteNumber":52,"Velocity":60,"Duration":103170,"SoundDuration":103170,"Delta":146908249},{"NoteNumber":58,"Velocity":60,"Duration":103170,"SoundDuration":103170,"Delta":146908249},{"NoteNumber":61,"Velocity":71,"Duration":103170,"SoundDuration":103170,"Delta":146908249},{"NoteNumber":81,"Velocity":71,"Duration":113487,"SoundDuration":113487,"Delta":147114591},{"NoteNumber":79,"Velocity":68,"Duration":113220,"SoundDuration":113220,"Delta":147217762},{"NoteNumber":77,"Velocity":68,"Duration":110545,"SoundDuration":110545,"Delta":147320932},{"NoteNumber":76,"Velocity":68,"Duration":110545,"SoundDuration":110545,"Delta":147421428},{"NoteNumber":74,"Velocity":69,"Duration":111779,"SoundDuration":111779,"Delta":147521924},{"NoteNumber":73,"Velocity":72,"Duration":123461,"SoundDuration":123461,"Delta":147622420},{"NoteNumber":82,"Velocity":90,"Duration":632637,"SoundDuration":632637,"Delta":147735261},{"NoteNumber":52,"Velocity":71,"Duration":106202,"SoundDuration":106202,"Delta":147735261},{"NoteNumber":40,"Velocity":60,"Duration":106202,"SoundDuration":106202,"Delta":147735261},{"NoteNumber":58,"Velocity":60,"Duration":103914,"SoundDuration":103914,"Delta":148160070},{"NoteNumber":61,"Velocity":71,"Duration":103914,"SoundDuration":103914,"Delta":148160070},{"NoteNumber":52,"Velocity":60,"Duration":103914,"SoundDuration":103914,"Delta":148160070},{"NoteNumber":55,"Velocity":60,"Duration":103914,"SoundDuration":103914,"Delta":148160070},{"NoteNumber":81,"Velocity":71,"Duration":109780,"SoundDuration":109780,"Delta":148367898},{"NoteNumber":79,"Velocity":68,"Duration":109991,"SoundDuration":109991,"Delta":148467698},{"NoteNumber":77,"Velocity":68,"Duration":112099,"SoundDuration":112099,"Delta":148567499},{"NoteNumber":76,"Velocity":68,"Duration":112099,"SoundDuration":112099,"Delta":148669408},{"NoteNumber":74,"Velocity":69,"Duration":112099,"SoundDuration":112099,"Delta":148771317},{"NoteNumber":73,"Velocity":72,"Duration":112300,"SoundDuration":112300,"Delta":148873226},{"NoteNumber":74,"Velocity":88,"Duration":623483,"SoundDuration":623483,"Delta":148975135},{"NoteNumber":53,"Velocity":66,"Duration":207828,"SoundDuration":207828,"Delta":148975135},{"NoteNumber":57,"Velocity":60,"Duration":207828,"SoundDuration":207828,"Delta":149182963},{"NoteNumber":62,"Velocity":60,"Duration":207827,"SoundDuration":207827,"Delta":149390791},{"NoteNumber":65,"Velocity":70,"Duration":101715,"SoundDuration":101715,"Delta":149598619},{"NoteNumber":57,"Velocity":60,"Duration":203430,"SoundDuration":203430,"Delta":149598619},{"NoteNumber":69,"Velocity":72,"Duration":101715,"SoundDuration":101715,"Delta":149700334},{"NoteNumber":74,"Velocity":84,"Duration":101715,"SoundDuration":101715,"Delta":149802050},{"NoteNumber":62,"Velocity":63,"Duration":203430,"SoundDuration":203430,"Delta":149802050},{"NoteNumber":69,"Velocity":71,"Duration":101715,"SoundDuration":101715,"Delta":150005481},{"NoteNumber":57,"Velocity":60,"Duration":203431,"SoundDuration":203431,"Delta":150005481},{"NoteNumber":74,"Velocity":73,"Duration":101715,"SoundDuration":101715,"Delta":150107196},{"NoteNumber":77,"Velocity":86,"Duration":101715,"SoundDuration":101715,"Delta":150208912},{"NoteNumber":53,"Velocity":65,"Duration":203430,"SoundDuration":203430,"Delta":150208912},{"NoteNumber":74,"Velocity":71,"Duration":101715,"SoundDuration":101715,"Delta":150412343},{"NoteNumber":57,"Velocity":60,"Duration":203430,"SoundDuration":203430,"Delta":150412343},{"NoteNumber":77,"Velocity":73,"Duration":101715,"SoundDuration":101715,"Delta":150514058},{"NoteNumber":81,"Velocity":87,"Duration":103170,"SoundDuration":103170,"Delta":150615774},{"NoteNumber":62,"Velocity":63,"Duration":206341,"SoundDuration":206341,"Delta":150615774},{"NoteNumber":81,"Velocity":80,"Duration":206341,"SoundDuration":206341,"Delta":150822115},{"NoteNumber":57,"Velocity":60,"Duration":206341,"SoundDuration":206341,"Delta":150822115},{"NoteNumber":77,"Velocity":80,"Duration":209336,"SoundDuration":209336,"Delta":151028457},{"NoteNumber":62,"Velocity":60,"Duration":209336,"SoundDuration":209336,"Delta":151028457},{"NoteNumber":74,"Velocity":80,"Duration":218850,"SoundDuration":218850,"Delta":151237793},{"NoteNumber":57,"Velocity":62,"Duration":218850,"SoundDuration":218850,"Delta":151237793},{"NoteNumber":71,"Velocity":75,"Duration":627211,"SoundDuration":627211,"Delta":151456644},{"NoteNumber":80,"Velocity":90,"Duration":627211,"SoundDuration":627211,"Delta":151456644},{"NoteNumber":74,"Velocity":75,"Duration":627211,"SoundDuration":627211,"Delta":151456644},{"NoteNumber":77,"Velocity":75,"Duration":627211,"SoundDuration":627211,"Delta":151456644},{"NoteNumber":38,"Velocity":60,"Duration":106202,"SoundDuration":106202,"Delta":151456644},{"NoteNumber":50,"Velocity":71,"Duration":106202,"SoundDuration":106202,"Delta":151456644},{"NoteNumber":59,"Velocity":71,"Duration":101201,"SoundDuration":101201,"Delta":151881453},{"NoteNumber":56,"Velocity":60,"Duration":101201,"SoundDuration":101201,"Delta":151881453},{"NoteNumber":50,"Velocity":60,"Duration":101201,"SoundDuration":101201,"Delta":151881453},{"NoteNumber":53,"Velocity":60,"Duration":101201,"SoundDuration":101201,"Delta":151881453},{"NoteNumber":79,"Velocity":71,"Duration":111321,"SoundDuration":111321,"Delta":152083855},{"NoteNumber":77,"Velocity":68,"Duration":111321,"SoundDuration":111321,"Delta":152185056},{"NoteNumber":75,"Velocity":68,"Duration":111321,"SoundDuration":111321,"Delta":152286257},{"NoteNumber":74,"Velocity":68,"Duration":111321,"SoundDuration":111321,"Delta":152387458},{"NoteNumber":72,"Velocity":69,"Duration":112849,"SoundDuration":112849,"Delta":152488659},{"NoteNumber":71,"Velocity":72,"Duration":127106,"SoundDuration":127106,"Delta":152589860},{"NoteNumber":80,"Velocity":90,"Duration":632637,"SoundDuration":632637,"Delta":152706347},{"NoteNumber":38,"Velocity":60,"Duration":106202,"SoundDuration":106202,"Delta":152706347},{"NoteNumber":50,"Velocity":71,"Duration":106202,"SoundDuration":106202,"Delta":152706347},{"NoteNumber":53,"Velocity":60,"Duration":103914,"SoundDuration":103914,"Delta":153131156},{"NoteNumber":50,"Velocity":60,"Duration":103914,"SoundDuration":103914,"Delta":153131156},{"NoteNumber":59,"Velocity":71,"Duration":103914,"SoundDuration":103914,"Delta":153131156},{"NoteNumber":56,"Velocity":60,"Duration":103914,"SoundDuration":103914,"Delta":153131156},{"NoteNumber":79,"Velocity":71,"Duration":114305,"SoundDuration":114305,"Delta":153338984},{"NoteNumber":77,"Velocity":68,"Duration":114177,"SoundDuration":114177,"Delta":153442898},{"NoteNumber":75,"Velocity":68,"Duration":112897,"SoundDuration":112897,"Delta":153546812},{"NoteNumber":74,"Velocity":68,"Duration":112897,"SoundDuration":112897,"Delta":153649446},{"NoteNumber":72,"Velocity":69,"Duration":112897,"SoundDuration":112897,"Delta":153752080},{"NoteNumber":71,"Velocity":72,"Duration":113025,"SoundDuration":113025,"Delta":153854714},{"NoteNumber":72,"Velocity":88,"Duration":519569,"SoundDuration":519569,"Delta":153957349},{"NoteNumber":51,"Velocity":66,"Duration":207828,"SoundDuration":207828,"Delta":153957349},{"NoteNumber":55,"Velocity":60,"Duration":207828,"SoundDuration":207828,"Delta":154165177},{"NoteNumber":60,"Velocity":60,"Duration":207827,"SoundDuration":207827,"Delta":154373005},{"NoteNumber":67,"Velocity":69,"Duration":103914,"SoundDuration":103914,"Delta":154476919},{"NoteNumber":72,"Velocity":74,"Duration":101715,"SoundDuration":101715,"Delta":154580833},{"NoteNumber":55,"Velocity":60,"Duration":203430,"SoundDuration":203430,"Delta":154580833},{"NoteNumber":67,"Velocity":70,"Duration":101715,"SoundDuration":101715,"Delta":154682548},{"NoteNumber":75,"Velocity":74,"Duration":101715,"SoundDuration":101715,"Delta":154784264},{"NoteNumber":60,"Velocity":63,"Duration":203430,"SoundDuration":203430,"Delta":154784264},{"NoteNumber":72,"Velocity":71,"Duration":101715,"SoundDuration":101715,"Delta":154885979},{"NoteNumber":75,"Velocity":75,"Duration":101715,"SoundDuration":101715,"Delta":154987695},{"NoteNumber":55,"Velocity":60,"Duration":203431,"SoundDuration":203431,"Delta":154987695},{"NoteNumber":72,"Velocity":70,"Duration":101715,"SoundDuration":101715,"Delta":155089410},{"NoteNumber":79,"Velocity":74,"Duration":101715,"SoundDuration":101715,"Delta":155191126},{"NoteNumber":51,"Velocity":66,"Duration":203430,"SoundDuration":203430,"Delta":155191126},{"NoteNumber":75,"Velocity":71,"Duration":101715,"SoundDuration":101715,"Delta":155292841},{"NoteNumber":79,"Velocity":74,"Duration":101715,"SoundDuration":101715,"Delta":155394557},{"NoteNumber":55,"Velocity":60,"Duration":219150,"SoundDuration":219150,"Delta":155394557},{"NoteNumber":75,"Velocity":71,"Duration":117435,"SoundDuration":117435,"Delta":155496272},{"NoteNumber":84,"Velocity":91,"Duration":204876,"SoundDuration":204876,"Delta":155613707},{"NoteNumber":60,"Velocity":60,"Duration":204876,"SoundDuration":204876,"Delta":155613707},{"NoteNumber":55,"Velocity":60,"Duration":209336,"SoundDuration":209336,"Delta":155818583},{"NoteNumber":60,"Velocity":63,"Duration":209336,"SoundDuration":209336,"Delta":156027920},{"NoteNumber":55,"Velocity":60,"Duration":209336,"SoundDuration":209336,"Delta":156237256},{"NoteNumber":72,"Velocity":88,"Duration":519569,"SoundDuration":519569,"Delta":156446593},{"NoteNumber":48,"Velocity":66,"Duration":207828,"SoundDuration":207828,"Delta":156446593},{"NoteNumber":51,"Velocity":60,"Duration":207828,"SoundDuration":207828,"Delta":156654421},{"NoteNumber":56,"Velocity":60,"Duration":207827,"SoundDuration":207827,"Delta":156862249},{"NoteNumber":68,"Velocity":69,"Duration":103914,"SoundDuration":103914,"Delta":156966163},{"NoteNumber":72,"Velocity":74,"Duration":101715,"SoundDuration":101715,"Delta":157070077},{"NoteNumber":51,"Velocity":60,"Duration":203430,"SoundDuration":203430,"Delta":157070077},{"NoteNumber":68,"Velocity":70,"Duration":101715,"SoundDuration":101715,"Delta":157171792},{"NoteNumber":75,"Velocity":74,"Duration":101715,"SoundDuration":101715,"Delta":157273508},{"NoteNumber":56,"Velocity":63,"Duration":203430,"SoundDuration":203430,"Delta":157273508},{"NoteNumber":72,"Velocity":71,"Duration":101715,"SoundDuration":101715,"Delta":157375223},{"NoteNumber":75,"Velocity":75,"Duration":101715,"SoundDuration":101715,"Delta":157476939},{"NoteNumber":51,"Velocity":60,"Duration":203431,"SoundDuration":203431,"Delta":157476939},{"NoteNumber":72,"Velocity":70,"Duration":101715,"SoundDuration":101715,"Delta":157578654},{"NoteNumber":80,"Velocity":74,"Duration":101715,"SoundDuration":101715,"Delta":157680370},{"NoteNumber":48,"Velocity":66,"Duration":203430,"SoundDuration":203430,"Delta":157680370},{"NoteNumber":75,"Velocity":71,"Duration":101715,"SoundDuration":101715,"Delta":157782085},{"NoteNumber":80,"Velocity":74,"Duration":101715,"SoundDuration":101715,"Delta":157883801},{"NoteNumber":51,"Velocity":60,"Duration":219150,"SoundDuration":219150,"Delta":157883801},{"NoteNumber":75,"Velocity":71,"Duration":117435,"SoundDuration":117435,"Delta":157985516},{"NoteNumber":84,"Velocity":91,"Duration":204876,"SoundDuration":204876,"Delta":158102952},{"NoteNumber":56,"Velocity":60,"Duration":204876,"SoundDuration":204876,"Delta":158102952},{"NoteNumber":51,"Velocity":60,"Duration":209336,"SoundDuration":209336,"Delta":158307828},{"NoteNumber":56,"Velocity":63,"Duration":209336,"SoundDuration":209336,"Delta":158517164},{"NoteNumber":51,"Velocity":60,"Duration":209336,"SoundDuration":209336,"Delta":158726501},{"NoteNumber":72,"Velocity":88,"Duration":519569,"SoundDuration":519569,"Delta":158935837},{"NoteNumber":44,"Velocity":66,"Duration":207828,"SoundDuration":207828,"Delta":158935837},{"NoteNumber":48,"Velocity":60,"Duration":207828,"SoundDuration":207828,"Delta":159143665},{"NoteNumber":51,"Velocity":60,"Duration":207827,"SoundDuration":207827,"Delta":159351493},{"NoteNumber":66,"Velocity":69,"Duration":103914,"SoundDuration":103914,"Delta":159455407},{"NoteNumber":72,"Velocity":74,"Duration":101715,"SoundDuration":101715,"Delta":159559321},{"NoteNumber":48,"Velocity":60,"Duration":203430,"SoundDuration":203430,"Delta":159559321},{"NoteNumber":66,"Velocity":70,"Duration":101715,"SoundDuration":101715,"Delta":159661037},{"NoteNumber":75,"Velocity":74,"Duration":101715,"SoundDuration":101715,"Delta":159762752},{"NoteNumber":51,"Velocity":63,"Duration":203430,"SoundDuration":203430,"Delta":159762752},{"NoteNumber":72,"Velocity":71,"Duration":101715,"SoundDuration":101715,"Delta":159864468},{"NoteNumber":75,"Velocity":75,"Duration":101715,"SoundDuration":101715,"Delta":159966183},{"NoteNumber":48,"Velocity":60,"Duration":203431,"SoundDuration":203431,"Delta":159966183},{"NoteNumber":72,"Velocity":70,"Duration":101715,"SoundDuration":101715,"Delta":160067899},{"NoteNumber":78,"Velocity":74,"Duration":101715,"SoundDuration":101715,"Delta":160169614},{"NoteNumber":44,"Velocity":66,"Duration":203430,"SoundDuration":203430,"Delta":160169614},{"NoteNumber":75,"Velocity":71,"Duration":101715,"SoundDuration":101715,"Delta":160271330},{"NoteNumber":78,"Velocity":74,"Duration":101715,"SoundDuration":101715,"Delta":160373045},{"NoteNumber":48,"Velocity":60,"Duration":219150,"SoundDuration":219150,"Delta":160373045},{"NoteNumber":75,"Velocity":71,"Duration":117435,"SoundDuration":117435,"Delta":160474761},{"NoteNumber":84,"Velocity":91,"Duration":414212,"SoundDuration":414212,"Delta":160592196},{"NoteNumber":51,"Velocity":60,"Duration":204876,"SoundDuration":204876,"Delta":160592196},{"NoteNumber":48,"Velocity":60,"Duration":209336,"SoundDuration":209336,"Delta":160797072},{"NoteNumber":78,"Velocity":81,"Duration":322003,"SoundDuration":322003,"Delta":161006408},{"NoteNumber":51,"Velocity":63,"Duration":214668,"SoundDuration":214668,"Delta":161006408},{"NoteNumber":48,"Velocity":60,"Duration":107334,"SoundDuration":107334,"Delta":161221077},{"NoteNumber":67,"Velocity":70,"Duration":36475,"SoundDuration":36475,"Delta":161328412},{"NoteNumber":71,"Velocity":70,"Duration":36475,"SoundDuration":36475,"Delta":161364887},{"NoteNumber":74,"Velocity":70,"Duration":36475,"SoundDuration":36475,"Delta":161401362},{"NoteNumber":79,"Velocity":90,"Duration":846084,"SoundDuration":846084,"Delta":161437837},{"NoteNumber":43,"Velocity":66,"Duration":211521,"SoundDuration":211521,"Delta":161437837},{"NoteNumber":47,"Velocity":60,"Duration":211521,"SoundDuration":211521,"Delta":161649358},{"NoteNumber":50,"Velocity":60,"Duration":211521,"SoundDuration":211521,"Delta":161860879},{"NoteNumber":55,"Velocity":60,"Duration":211521,"SoundDuration":211521,"Delta":162072400},{"NoteNumber":77,"Velocity":72,"Duration":108870,"SoundDuration":108870,"Delta":162283921},{"NoteNumber":48,"Velocity":63,"Duration":200991,"SoundDuration":200991,"Delta":162283921},{"NoteNumber":75,"Velocity":72,"Duration":108870,"SoundDuration":108870,"Delta":162384417},{"NoteNumber":74,"Velocity":73,"Duration":109899,"SoundDuration":109899,"Delta":162484913},{"NoteNumber":51,"Velocity":60,"Duration":213337,"SoundDuration":213337,"Delta":162484913},{"NoteNumber":72,"Velocity":76,"Duration":112841,"SoundDuration":112841,"Delta":162585408},{"NoteNumber":79,"Velocity":90,"Duration":832612,"SoundDuration":832612,"Delta":162698250},{"NoteNumber":43,"Velocity":66,"Duration":208478,"SoundDuration":208478,"Delta":162698250},{"NoteNumber":47,"Velocity":60,"Duration":208477,"SoundDuration":208477,"Delta":162906728},{"NoteNumber":50,"Velocity":60,"Duration":207828,"SoundDuration":207828,"Delta":163115206},{"NoteNumber":55,"Velocity":60,"Duration":207828,"SoundDuration":207828,"Delta":163323034},{"NoteNumber":77,"Velocity":72,"Duration":107374,"SoundDuration":107374,"Delta":163530862},{"NoteNumber":48,"Velocity":63,"Duration":198228,"SoundDuration":198228,"Delta":163530862},{"NoteNumber":75,"Velocity":72,"Duration":107374,"SoundDuration":107374,"Delta":163629976},{"NoteNumber":74,"Velocity":73,"Duration":107374,"SoundDuration":107374,"Delta":163729091},{"NoteNumber":51,"Velocity":60,"Duration":198228,"SoundDuration":198228,"Delta":163729091},{"NoteNumber":72,"Velocity":76,"Duration":99114,"SoundDuration":99114,"Delta":163828205},{"NoteNumber":79,"Velocity":90,"Duration":621994,"SoundDuration":621994,"Delta":163927320},{"NoteNumber":43,"Velocity":72,"Duration":621994,"SoundDuration":621994,"Delta":163927320},{"NoteNumber":55,"Velocity":72,"Duration":621698,"SoundDuration":621698,"Delta":163937711},{"NoteNumber":80,"Velocity":79,"Duration":110123,"SoundDuration":110123,"Delta":164549314},{"NoteNumber":56,"Velocity":63,"Duration":110123,"SoundDuration":110123,"Delta":164549314},{"NoteNumber":79,"Velocity":78,"Duration":111698,"SoundDuration":111698,"Delta":164650911},{"NoteNumber":55,"Velocity":62,"Duration":111698,"SoundDuration":111698,"Delta":164650911},{"NoteNumber":77,"Velocity":76,"Duration":113314,"SoundDuration":113314,"Delta":164753961},{"NoteNumber":53,"Velocity":60,"Duration":113314,"SoundDuration":113314,"Delta":164753961},{"NoteNumber":75,"Velocity":75,"Duration":114978,"SoundDuration":114978,"Delta":164858500},{"NoteNumber":51,"Velocity":60,"Duration":114978,"SoundDuration":114978,"Delta":164858500},{"NoteNumber":74,"Velocity":74,"Duration":117759,"SoundDuration":117759,"Delta":164964574},{"NoteNumber":50,"Velocity":59,"Duration":117759,"SoundDuration":117759,"Delta":164964574},{"NoteNumber":72,"Velocity":72,"Duration":127823,"SoundDuration":127823,"Delta":165072432},{"NoteNumber":48,"Velocity":57,"Duration":127823,"SoundDuration":127823,"Delta":165072432},{"NoteNumber":79,"Velocity":79,"Duration":108139,"SoundDuration":108139,"Delta":165191244},{"NoteNumber":55,"Velocity":63,"Duration":108139,"SoundDuration":108139,"Delta":165191244},{"NoteNumber":67,"Velocity":72,"Duration":108139,"SoundDuration":108139,"Delta":165623801},{"NoteNumber":43,"Velocity":57,"Duration":108139,"SoundDuration":108139,"Delta":165623801},{"NoteNumber":48,"Velocity":35,"Duration":54069,"SoundDuration":54069,"Delta":166326706},{"NoteNumber":55,"Velocity":35,"Duration":54069,"SoundDuration":54069,"Delta":166380776},{"NoteNumber":67,"Velocity":41,"Duration":54069,"SoundDuration":54069,"Delta":166434845},{"NoteNumber":76,"Velocity":45,"Duration":105760,"SoundDuration":105760,"Delta":166488915},{"NoteNumber":60,"Velocity":35,"Duration":423042,"SoundDuration":423042,"Delta":166488915},{"NoteNumber":76,"Velocity":43,"Duration":105760,"SoundDuration":105760,"Delta":166911957},{"NoteNumber":76,"Velocity":43,"Duration":121822,"SoundDuration":121822,"Delta":167334999},{"NoteNumber":55,"Velocity":34,"Duration":53270,"SoundDuration":53270,"Delta":167631915},{"NoteNumber":62,"Velocity":34,"Duration":53270,"SoundDuration":53270,"Delta":167685186},{"NoteNumber":71,"Velocity":42,"Duration":53270,"SoundDuration":53270,"Delta":167738457},{"NoteNumber":79,"Velocity":45,"Duration":639250,"SoundDuration":639250,"Delta":167791728},{"NoteNumber":65,"Velocity":35,"Duration":426166,"SoundDuration":426166,"Delta":167791728},{"NoteNumber":77,"Velocity":41,"Duration":213083,"SoundDuration":213083,"Delta":168430978},{"NoteNumber":74,"Velocity":41,"Duration":442477,"SoundDuration":442477,"Delta":168644062},{"NoteNumber":64,"Velocity":45,"Duration":426166,"SoundDuration":426166,"Delta":169086540},{"NoteNumber":74,"Velocity":45,"Duration":213083,"SoundDuration":213083,"Delta":169086540},{"NoteNumber":48,"Velocity":35,"Duration":426166,"SoundDuration":426166,"Delta":169086540},{"NoteNumber":72,"Velocity":41,"Duration":211307,"SoundDuration":211307,"Delta":169299623},{"NoteNumber":72,"Velocity":45,"Duration":620946,"SoundDuration":620946,"Delta":169512707},{"NoteNumber":67,"Velocity":45,"Duration":620946,"SoundDuration":620946,"Delta":169512707},{"NoteNumber":52,"Velocity":31,"Duration":413963,"SoundDuration":413963,"Delta":169512707},{"NoteNumber":55,"Velocity":31,"Duration":424894,"SoundDuration":424894,"Delta":169926671},{"NoteNumber":71,"Velocity":45,"Duration":217912,"SoundDuration":217912,"Delta":170133653},{"NoteNumber":74,"Velocity":45,"Duration":217912,"SoundDuration":217912,"Delta":170133653},{"NoteNumber":71,"Velocity":49,"Duration":852475,"SoundDuration":852475,"Delta":170351565},{"NoteNumber":74,"Velocity":49,"Duration":852475,"SoundDuration":852475,"Delta":170351565},{"NoteNumber":60,"Velocity":35,"Duration":429433,"SoundDuration":429433,"Delta":170351565},{"NoteNumber":48,"Velocity":31,"Duration":423041,"SoundDuration":423041,"Delta":170780999},{"NoteNumber":72,"Velocity":45,"Duration":435824,"SoundDuration":435824,"Delta":171204041},{"NoteNumber":76,"Velocity":45,"Duration":435824,"SoundDuration":435824,"Delta":171204041},{"NoteNumber":77,"Velocity":45,"Duration":633771,"SoundDuration":633771,"Delta":171639866},{"NoteNumber":57,"Velocity":35,"Duration":843752,"SoundDuration":843752,"Delta":171639866},{"NoteNumber":65,"Velocity":33,"Duration":414035,"SoundDuration":414035,"Delta":172069583},{"NoteNumber":60,"Velocity":33,"Duration":414035,"SoundDuration":414035,"Delta":172069583},{"NoteNumber":79,"Velocity":46,"Duration":52495,"SoundDuration":52495,"Delta":172273637},{"NoteNumber":77,"Velocity":42,"Duration":52495,"SoundDuration":52495,"Delta":172326132},{"NoteNumber":76,"Velocity":42,"Duration":52495,"SoundDuration":52495,"Delta":172378627},{"NoteNumber":77,"Velocity":45,"Duration":34996,"SoundDuration":34996,"Delta":172431122},{"NoteNumber":79,"Velocity":49,"Duration":209980,"SoundDuration":209980,"Delta":172483618},{"NoteNumber":81,"Velocity":47,"Duration":217912,"SoundDuration":217912,"Delta":172693599},{"NoteNumber":81,"Velocity":55,"Duration":206982,"SoundDuration":206982,"Delta":172911511},{"NoteNumber":59,"Velocity":38,"Duration":827927,"SoundDuration":827927,"Delta":172911511},{"NoteNumber":79,"Velocity":49,"Duration":206981,"SoundDuration":206981,"Delta":173118493},{"NoteNumber":78,"Velocity":52,"Duration":206982,"SoundDuration":206982,"Delta":173325475},{"NoteNumber":62,"Velocity":35,"Duration":413963,"SoundDuration":413963,"Delta":173325475},{"NoteNumber":67,"Velocity":35,"Duration":413963,"SoundDuration":413963,"Delta":173325475},{"NoteNumber":79,"Velocity":45,"Duration":206981,"SoundDuration":206981,"Delta":173532457},{"NoteNumber":77,"Velocity":50,"Duration":206982,"SoundDuration":206982,"Delta":173739439},{"NoteNumber":74,"Velocity":45,"Duration":219571,"SoundDuration":219571,"Delta":173946421},{"NoteNumber":75,"Velocity":49,"Duration":213083,"SoundDuration":213083,"Delta":174165992},{"NoteNumber":60,"Velocity":41,"Duration":426166,"SoundDuration":426166,"Delta":174165992},{"NoteNumber":76,"Velocity":45,"Duration":213083,"SoundDuration":213083,"Delta":174379076},{"NoteNumber":77,"Velocity":50,"Duration":205507,"SoundDuration":205507,"Delta":174592159},{"NoteNumber":57,"Velocity":37,"Duration":411014,"SoundDuration":411014,"Delta":174592159},{"NoteNumber":60,"Velocity":37,"Duration":411014,"SoundDuration":411014,"Delta":174592159},{"NoteNumber":76,"Velocity":45,"Duration":205507,"SoundDuration":205507,"Delta":174797667},{"NoteNumber":79,"Velocity":49,"Duration":205507,"SoundDuration":205507,"Delta":175003174},{"NoteNumber":62,"Velocity":35,"Duration":428456,"SoundDuration":428456,"Delta":175003174},{"NoteNumber":53,"Velocity":35,"Duration":428456,"SoundDuration":428456,"Delta":175003174},{"NoteNumber":77,"Velocity":45,"Duration":222948,"SoundDuration":222948,"Delta":175208682},{"NoteNumber":76,"Velocity":52,"Duration":213083,"SoundDuration":213083,"Delta":175431631},{"NoteNumber":55,"Velocity":41,"Duration":420065,"SoundDuration":420065,"Delta":175431631},{"NoteNumber":59,"Velocity":41,"Duration":420065,"SoundDuration":420065,"Delta":175431631},{"NoteNumber":74,"Velocity":45,"Duration":206982,"SoundDuration":206982,"Delta":175644714},{"NoteNumber":72,"Velocity":48,"Duration":206981,"SoundDuration":206981,"Delta":175851696},{"NoteNumber":71,"Velocity":45,"Duration":206982,"SoundDuration":206982,"Delta":176058678},{"NoteNumber":69,"Velocity":46,"Duration":213083,"SoundDuration":213083,"Delta":176265660},{"NoteNumber":67,"Velocity":45,"Duration":213083,"SoundDuration":213083,"Delta":176478744},{"NoteNumber":75,"Velocity":49,"Duration":213083,"SoundDuration":213083,"Delta":176691827},{"NoteNumber":60,"Velocity":39,"Duration":142055,"SoundDuration":142055,"Delta":176691827},{"NoteNumber":64,"Velocity":31,"Duration":142055,"SoundDuration":142055,"Delta":176833883},{"NoteNumber":76,"Velocity":42,"Duration":213083,"SoundDuration":213083,"Delta":176904911},{"NoteNumber":67,"Velocity":31,"Duration":142055,"SoundDuration":142055,"Delta":176975938},{"NoteNumber":75,"Velocity":49,"Duration":213083,"SoundDuration":213083,"Delta":177117994},{"NoteNumber":60,"Velocity":39,"Duration":142055,"SoundDuration":142055,"Delta":177117994},{"NoteNumber":64,"Velocity":32,"Duration":142055,"SoundDuration":142055,"Delta":177260050},{"NoteNumber":76,"Velocity":41,"Duration":213083,"SoundDuration":213083,"Delta":177331078},{"NoteNumber":67,"Velocity":32,"Duration":142055,"SoundDuration":142055,"Delta":177402105},{"NoteNumber":75,"Velocity":52,"Duration":208232,"SoundDuration":208232,"Delta":177544161},{"NoteNumber":60,"Velocity":40,"Duration":138821,"SoundDuration":138821,"Delta":177544161},{"NoteNumber":64,"Velocity":32,"Duration":138821,"SoundDuration":138821,"Delta":177682982},{"NoteNumber":76,"Velocity":48,"Duration":208231,"SoundDuration":208231,"Delta":177752393},{"NoteNumber":67,"Velocity":32,"Duration":138821,"SoundDuration":138821,"Delta":177821804},{"NoteNumber":78,"Velocity":58,"Duration":212841,"SoundDuration":212841,"Delta":177960625},{"NoteNumber":59,"Velocity":43,"Duration":141894,"SoundDuration":141894,"Delta":177960625},{"NoteNumber":62,"Velocity":36,"Duration":141894,"SoundDuration":141894,"Delta":178102519},{"NoteNumber":79,"Velocity":53,"Duration":212841,"SoundDuration":212841,"Delta":178173467},{"NoteNumber":67,"Velocity":35,"Duration":141894,"SoundDuration":141894,"Delta":178244414},{"NoteNumber":78,"Velocity":58,"Duration":209745,"SoundDuration":209745,"Delta":178386308},{"NoteNumber":59,"Velocity":40,"Duration":139830,"SoundDuration":139830,"Delta":178386308},{"NoteNumber":62,"Velocity":33,"Duration":139830,"SoundDuration":139830,"Delta":178526139},{"NoteNumber":79,"Velocity":46,"Duration":209745,"SoundDuration":209745,"Delta":178596054},{"NoteNumber":67,"Velocity":29,"Duration":139830,"SoundDuration":139830,"Delta":178665969},{"NoteNumber":77,"Velocity":46,"Duration":212841,"SoundDuration":212841,"Delta":178805800},{"NoteNumber":59,"Velocity":37,"Duration":141894,"SoundDuration":141894,"Delta":178805800},{"NoteNumber":65,"Velocity":29,"Duration":141894,"SoundDuration":141894,"Delta":178947694},{"NoteNumber":74,"Velocity":37,"Duration":212841,"SoundDuration":212841,"Delta":179018642},{"NoteNumber":67,"Velocity":29,"Duration":141894,"SoundDuration":141894,"Delta":179089589},{"NoteNumber":74,"Velocity":45,"Duration":211282,"SoundDuration":211282,"Delta":179231483},{"NoteNumber":64,"Velocity":35,"Duration":422564,"SoundDuration":422564,"Delta":179231483},{"NoteNumber":60,"Velocity":29,"Duration":422564,"SoundDuration":422564,"Delta":179231483},{"NoteNumber":72,"Velocity":41,"Duration":211282,"SoundDuration":211282,"Delta":179442766},{"NoteNumber":67,"Velocity":41,"Duration":413963,"SoundDuration":413963,"Delta":179654048},{"NoteNumber":74,"Velocity":45,"Duration":206982,"SoundDuration":206982,"Delta":179654048},{"NoteNumber":52,"Velocity":31,"Duration":413963,"SoundDuration":413963,"Delta":179654048},{"NoteNumber":72,"Velocity":41,"Duration":206981,"SoundDuration":206981,"Delta":179861030},{"NoteNumber":76,"Velocity":45,"Duration":206982,"SoundDuration":206982,"Delta":180068012},{"NoteNumber":71,"Velocity":41,"Duration":424894,"SoundDuration":424894,"Delta":180068012},{"NoteNumber":55,"Velocity":31,"Duration":424894,"SoundDuration":424894,"Delta":180068012},{"NoteNumber":74,"Velocity":45,"Duration":217912,"SoundDuration":217912,"Delta":180274994},{"NoteNumber":71,"Velocity":49,"Duration":852475,"SoundDuration":852475,"Delta":180492907},{"NoteNumber":74,"Velocity":49,"Duration":640954,"SoundDuration":640954,"Delta":180492907},{"NoteNumber":60,"Velocity":35,"Duration":429433,"SoundDuration":429433,"Delta":180492907},{"NoteNumber":55,"Velocity":31,"Duration":423042,"SoundDuration":423042,"Delta":180922340},{"NoteNumber":75,"Velocity":49,"Duration":211521,"SoundDuration":211521,"Delta":181133861},{"NoteNumber":72,"Velocity":45,"Duration":435824,"SoundDuration":435824,"Delta":181345382},{"NoteNumber":76,"Velocity":45,"Duration":435824,"SoundDuration":435824,"Delta":181345382},{"NoteNumber":48,"Velocity":31,"Duration":435824,"SoundDuration":435824,"Delta":181345382},{"NoteNumber":77,"Velocity":45,"Duration":633771,"SoundDuration":633771,"Delta":181781207},{"NoteNumber":57,"Velocity":35,"Duration":221238,"SoundDuration":221238,"Delta":181781207},{"NoteNumber":60,"Velocity":31,"Duration":208478,"SoundDuration":208478,"Delta":182002446},{"NoteNumber":65,"Velocity":32,"Duration":204054,"SoundDuration":204054,"Delta":182210924},{"NoteNumber":79,"Velocity":46,"Duration":52495,"SoundDuration":52495,"Delta":182414978},{"NoteNumber":60,"Velocity":33,"Duration":209980,"SoundDuration":209980,"Delta":182414978},{"NoteNumber":77,"Velocity":42,"Duration":52495,"SoundDuration":52495,"Delta":182467473},{"NoteNumber":76,"Velocity":42,"Duration":52495,"SoundDuration":52495,"Delta":182519969},{"NoteNumber":77,"Velocity":45,"Duration":34996,"SoundDuration":34996,"Delta":182572464},{"NoteNumber":79,"Velocity":49,"Duration":209980,"SoundDuration":209980,"Delta":182624959},{"NoteNumber":57,"Velocity":35,"Duration":209980,"SoundDuration":209980,"Delta":182624959},{"NoteNumber":81,"Velocity":47,"Duration":217912,"SoundDuration":217912,"Delta":182834940},{"NoteNumber":60,"Velocity":38,"Duration":217912,"SoundDuration":217912,"Delta":182834940},{"NoteNumber":81,"Velocity":55,"Duration":206982,"SoundDuration":206982,"Delta":183052853},{"NoteNumber":59,"Velocity":40,"Duration":206982,"SoundDuration":206982,"Delta":183052853},{"NoteNumber":79,"Velocity":49,"Duration":206981,"SoundDuration":206981,"Delta":183259835},{"NoteNumber":62,"Velocity":35,"Duration":206981,"SoundDuration":206981,"Delta":183259835},{"NoteNumber":78,"Velocity":52,"Duration":206982,"SoundDuration":206982,"Delta":183466817},{"NoteNumber":67,"Velocity":42,"Duration":206982,"SoundDuration":206982,"Delta":183466817},{"NoteNumber":79,"Velocity":45,"Duration":206981,"SoundDuration":206981,"Delta":183673799},{"NoteNumber":62,"Velocity":35,"Duration":206981,"SoundDuration":206981,"Delta":183673799},{"NoteNumber":77,"Velocity":50,"Duration":206982,"SoundDuration":206982,"Delta":183880781},{"NoteNumber":59,"Velocity":35,"Duration":206982,"SoundDuration":206982,"Delta":183880781},{"NoteNumber":74,"Velocity":45,"Duration":219571,"SoundDuration":219571,"Delta":184087763},{"NoteNumber":62,"Velocity":34,"Duration":219571,"SoundDuration":219571,"Delta":184087763},{"NoteNumber":75,"Velocity":49,"Duration":213083,"SoundDuration":213083,"Delta":184307334},{"NoteNumber":60,"Velocity":41,"Duration":426166,"SoundDuration":426166,"Delta":184307334},{"NoteNumber":76,"Velocity":45,"Duration":213083,"SoundDuration":213083,"Delta":184520417},{"NoteNumber":79,"Velocity":50,"Duration":205507,"SoundDuration":205507,"Delta":184733501},{"NoteNumber":62,"Velocity":37,"Duration":411014,"SoundDuration":411014,"Delta":184733501},{"NoteNumber":53,"Velocity":37,"Duration":411014,"SoundDuration":411014,"Delta":184733501},{"NoteNumber":77,"Velocity":45,"Duration":205507,"SoundDuration":205507,"Delta":184939008},{"NoteNumber":74,"Velocity":49,"Duration":205507,"SoundDuration":205507,"Delta":185144516},{"NoteNumber":55,"Velocity":35,"Duration":428456,"SoundDuration":428456,"Delta":185144516},{"NoteNumber":65,"Velocity":35,"Duration":428456,"SoundDuration":428456,"Delta":185144516},{"NoteNumber":71,"Velocity":45,"Duration":222948,"SoundDuration":222948,"Delta":185350023},{"NoteNumber":72,"Velocity":52,"Duration":213083,"SoundDuration":213083,"Delta":185572972},{"NoteNumber":64,"Velocity":37,"Duration":417137,"SoundDuration":417137,"Delta":185572972},{"NoteNumber":60,"Velocity":32,"Duration":417137,"SoundDuration":417137,"Delta":185572972},{"NoteNumber":67,"Velocity":34,"Duration":204054,"SoundDuration":204054,"Delta":185786056},{"NoteNumber":64,"Velocity":40,"Duration":408107,"SoundDuration":408107,"Delta":185990110},{"NoteNumber":67,"Velocity":34,"Duration":102026,"SoundDuration":102026,"Delta":186194164},{"NoteNumber":60,"Velocity":37,"Duration":415574,"SoundDuration":415574,"Delta":186398218},{"NoteNumber":67,"Velocity":34,"Duration":105760,"SoundDuration":105760,"Delta":186602272},{"NoteNumber":67,"Velocity":40,"Duration":102753,"SoundDuration":102753,"Delta":186813793},{"NoteNumber":65,"Velocity":34,"Duration":102753,"SoundDuration":102753,"Delta":186813793},{"NoteNumber":62,"Velocity":40,"Duration":411014,"SoundDuration":411014,"Delta":186813793},{"NoteNumber":67,"Velocity":33,"Duration":102753,"SoundDuration":102753,"Delta":187019300},{"NoteNumber":65,"Velocity":28,"Duration":102753,"SoundDuration":102753,"Delta":187019300},{"NoteNumber":59,"Velocity":38,"Duration":408107,"SoundDuration":408107,"Delta":187224808},{"NoteNumber":65,"Velocity":28,"Duration":102026,"SoundDuration":102026,"Delta":187428862},{"NoteNumber":67,"Velocity":33,"Duration":102026,"SoundDuration":102026,"Delta":187428862},{"NoteNumber":55,"Velocity":38,"Duration":418591,"SoundDuration":418591,"Delta":187632916},{"NoteNumber":67,"Velocity":33,"Duration":106541,"SoundDuration":106541,"Delta":187838423},{"NoteNumber":65,"Velocity":28,"Duration":106541,"SoundDuration":106541,"Delta":187838423},{"NoteNumber":67,"Velocity":40,"Duration":102026,"SoundDuration":102026,"Delta":188051507},{"NoteNumber":63,"Velocity":34,"Duration":102026,"SoundDuration":102026,"Delta":188051507},{"NoteNumber":48,"Velocity":40,"Duration":408107,"SoundDuration":408107,"Delta":188051507},{"NoteNumber":67,"Velocity":34,"Duration":102026,"SoundDuration":102026,"Delta":188255561},{"NoteNumber":63,"Velocity":28,"Duration":102026,"SoundDuration":102026,"Delta":188255561},{"NoteNumber":51,"Velocity":40,"Duration":408107,"SoundDuration":408107,"Delta":188459615},{"NoteNumber":63,"Velocity":28,"Duration":102026,"SoundDuration":102026,"Delta":188663669},{"NoteNumber":67,"Velocity":34,"Duration":102026,"SoundDuration":102026,"Delta":188663669},{"NoteNumber":48,"Velocity":37,"Duration":415575,"SoundDuration":415575,"Delta":188867723},{"NoteNumber":63,"Velocity":28,"Duration":105760,"SoundDuration":105760,"Delta":189071777},{"NoteNumber":67,"Velocity":34,"Duration":105760,"SoundDuration":105760,"Delta":189071777},{"NoteNumber":67,"Velocity":40,"Duration":102026,"SoundDuration":102026,"Delta":189283298},{"NoteNumber":65,"Velocity":34,"Duration":102026,"SoundDuration":102026,"Delta":189283298},{"NoteNumber":50,"Velocity":40,"Duration":408107,"SoundDuration":408107,"Delta":189283298},{"NoteNumber":65,"Velocity":28,"Duration":102026,"SoundDuration":102026,"Delta":189487352},{"NoteNumber":67,"Velocity":33,"Duration":102026,"SoundDuration":102026,"Delta":189487352},{"NoteNumber":47,"Velocity":38,"Duration":408107,"SoundDuration":408107,"Delta":189691406},{"NoteNumber":67,"Velocity":33,"Duration":102026,"SoundDuration":102026,"Delta":189895460},{"NoteNumber":65,"Velocity":28,"Duration":102026,"SoundDuration":102026,"Delta":189895460},{"NoteNumber":43,"Velocity":38,"Duration":417137,"SoundDuration":417137,"Delta":190099514},{"NoteNumber":67,"Velocity":33,"Duration":106541,"SoundDuration":106541,"Delta":190303568},{"NoteNumber":65,"Velocity":28,"Duration":106541,"SoundDuration":106541,"Delta":190303568},{"NoteNumber":67,"Velocity":63,"Duration":102026,"SoundDuration":102026,"Delta":190516651},{"NoteNumber":63,"Velocity":63,"Duration":102026,"SoundDuration":102026,"Delta":190516651},{"NoteNumber":48,"Velocity":69,"Duration":408108,"SoundDuration":408108,"Delta":190516651},{"NoteNumber":36,"Velocity":58,"Duration":408108,"SoundDuration":408108,"Delta":190516651},{"NoteNumber":67,"Velocity":50,"Duration":102026,"SoundDuration":102026,"Delta":190720705},{"NoteNumber":63,"Velocity":50,"Duration":102026,"SoundDuration":102026,"Delta":190720705},{"NoteNumber":51,"Velocity":40,"Duration":408107,"SoundDuration":408107,"Delta":190924759},{"NoteNumber":67,"Velocity":33,"Duration":102026,"SoundDuration":102026,"Delta":191128813},{"NoteNumber":63,"Velocity":33,"Duration":102026,"SoundDuration":102026,"Delta":191128813},{"NoteNumber":55,"Velocity":40,"Duration":412531,"SoundDuration":412531,"Delta":191332867},{"NoteNumber":63,"Velocity":33,"Duration":104239,"SoundDuration":104239,"Delta":191536921},{"NoteNumber":67,"Velocity":33,"Duration":104239,"SoundDuration":104239,"Delta":191536921},{"NoteNumber":68,"Velocity":63,"Duration":99906,"SoundDuration":99906,"Delta":191745399},{"NoteNumber":63,"Velocity":63,"Duration":99906,"SoundDuration":99906,"Delta":191745399},{"NoteNumber":41,"Velocity":58,"Duration":403867,"SoundDuration":403867,"Delta":191745399},{"NoteNumber":53,"Velocity":69,"Duration":403867,"SoundDuration":403867,"Delta":191745399},{"NoteNumber":63,"Velocity":50,"Duration":102026,"SoundDuration":102026,"Delta":191945213},{"NoteNumber":68,"Velocity":50,"Duration":102026,"SoundDuration":102026,"Delta":191945213},{"NoteNumber":56,"Velocity":40,"Duration":408107,"SoundDuration":408107,"Delta":192149267},{"NoteNumber":68,"Velocity":33,"Duration":102026,"SoundDuration":102026,"Delta":192353321},{"NoteNumber":63,"Velocity":33,"Duration":102026,"SoundDuration":102026,"Delta":192353321},{"NoteNumber":60,"Velocity":40,"Duration":412532,"SoundDuration":412532,"Delta":192557375},{"NoteNumber":63,"Velocity":33,"Duration":104239,"SoundDuration":104239,"Delta":192761429},{"NoteNumber":68,"Velocity":33,"Duration":104239,"SoundDuration":104239,"Delta":192761429},{"NoteNumber":62,"Velocity":63,"Duration":99225,"SoundDuration":99225,"Delta":192969907},{"NoteNumber":68,"Velocity":63,"Duration":99225,"SoundDuration":99225,"Delta":192969907},{"NoteNumber":34,"Velocity":58,"Duration":402506,"SoundDuration":402506,"Delta":192969907},{"NoteNumber":46,"Velocity":69,"Duration":402506,"SoundDuration":402506,"Delta":192969907},{"NoteNumber":62,"Velocity":50,"Duration":102026,"SoundDuration":102026,"Delta":193168359},{"NoteNumber":68,"Velocity":50,"Duration":102026,"SoundDuration":102026,"Delta":193168359},{"NoteNumber":50,"Velocity":40,"Duration":408107,"SoundDuration":408107,"Delta":193372413},{"NoteNumber":68,"Velocity":33,"Duration":102026,"SoundDuration":102026,"Delta":193576467},{"NoteNumber":62,"Velocity":33,"Duration":102026,"SoundDuration":102026,"Delta":193576467},{"NoteNumber":53,"Velocity":40,"Duration":411035,"SoundDuration":411035,"Delta":193780521},{"NoteNumber":68,"Velocity":33,"Duration":103490,"SoundDuration":103490,"Delta":193984575},{"NoteNumber":62,"Velocity":33,"Duration":103490,"SoundDuration":103490,"Delta":193984575},{"NoteNumber":62,"Velocity":63,"Duration":99225,"SoundDuration":99225,"Delta":194191557},{"NoteNumber":67,"Velocity":63,"Duration":99225,"SoundDuration":99225,"Delta":194191557},{"NoteNumber":51,"Velocity":69,"Duration":402506,"SoundDuration":402506,"Delta":194191557},{"NoteNumber":39,"Velocity":58,"Duration":402506,"SoundDuration":402506,"Delta":194191557},{"NoteNumber":62,"Velocity":50,"Duration":102026,"SoundDuration":102026,"Delta":194390009},{"NoteNumber":67,"Velocity":50,"Duration":102026,"SoundDuration":102026,"Delta":194390009},{"NoteNumber":55,"Velocity":40,"Duration":408107,"SoundDuration":408107,"Delta":194594063},{"NoteNumber":67,"Velocity":33,"Duration":102026,"SoundDuration":102026,"Delta":194798117},{"NoteNumber":62,"Velocity":33,"Duration":102026,"SoundDuration":102026,"Delta":194798117},{"NoteNumber":58,"Velocity":40,"Duration":414034,"SoundDuration":414034,"Delta":195002171},{"NoteNumber":62,"Velocity":33,"Duration":104990,"SoundDuration":104990,"Delta":195206225},{"NoteNumber":67,"Velocity":33,"Duration":104990,"SoundDuration":104990,"Delta":195206225},{"NoteNumber":67,"Velocity":63,"Duration":99906,"SoundDuration":99906,"Delta":195416206},{"NoteNumber":60,"Velocity":63,"Duration":99906,"SoundDuration":99906,"Delta":195416206},{"NoteNumber":44,"Velocity":69,"Duration":399627,"SoundDuration":399627,"Delta":195416206},{"NoteNumber":32,"Velocity":58,"Duration":399627,"SoundDuration":399627,"Delta":195416206},{"NoteNumber":67,"Velocity":50,"Duration":99906,"SoundDuration":99906,"Delta":195616019},{"NoteNumber":60,"Velocity":50,"Duration":99906,"SoundDuration":99906,"Delta":195616019},{"NoteNumber":56,"Velocity":40,"Duration":411014,"SoundDuration":411014,"Delta":195815833},{"NoteNumber":67,"Velocity":33,"Duration":102753,"SoundDuration":102753,"Delta":196021340},{"NoteNumber":60,"Velocity":33,"Duration":102753,"SoundDuration":102753,"Delta":196021340},{"NoteNumber":65,"Velocity":63,"Duration":100603,"SoundDuration":100603,"Delta":196226848},{"NoteNumber":60,"Velocity":63,"Duration":100603,"SoundDuration":100603,"Delta":196226848},{"NoteNumber":38,"Velocity":58,"Duration":402413,"SoundDuration":402413,"Delta":196226848},{"NoteNumber":50,"Velocity":69,"Duration":402413,"SoundDuration":402413,"Delta":196226848},{"NoteNumber":60,"Velocity":50,"Duration":100603,"SoundDuration":100603,"Delta":196428055},{"NoteNumber":65,"Velocity":50,"Duration":100603,"SoundDuration":100603,"Delta":196428055},{"NoteNumber":62,"Velocity":40,"Duration":408107,"SoundDuration":408107,"Delta":196629262},{"NoteNumber":60,"Velocity":33,"Duration":102026,"SoundDuration":102026,"Delta":196833316},{"NoteNumber":65,"Velocity":33,"Duration":102026,"SoundDuration":102026,"Delta":196833316},{"NoteNumber":59,"Velocity":63,"Duration":99225,"SoundDuration":99225,"Delta":197037370},{"NoteNumber":65,"Velocity":63,"Duration":99225,"SoundDuration":99225,"Delta":197037370},{"NoteNumber":43,"Velocity":69,"Duration":396904,"SoundDuration":396904,"Delta":197037370},{"NoteNumber":31,"Velocity":58,"Duration":396904,"SoundDuration":396904,"Delta":197037370},{"NoteNumber":65,"Velocity":50,"Duration":99225,"SoundDuration":99225,"Delta":197235822},{"NoteNumber":59,"Velocity":50,"Duration":99225,"SoundDuration":99225,"Delta":197235822},{"NoteNumber":55,"Velocity":40,"Duration":408107,"SoundDuration":408107,"Delta":197434274},{"NoteNumber":65,"Velocity":33,"Duration":102026,"SoundDuration":102026,"Delta":197638328},{"NoteNumber":59,"Velocity":33,"Duration":102026,"SoundDuration":102026,"Delta":197638328},{"NoteNumber":56,"Velocity":45,"Duration":402413,"SoundDuration":402413,"Delta":197842382},{"NoteNumber":60,"Velocity":33,"Duration":100603,"SoundDuration":100603,"Delta":198043589},{"NoteNumber":63,"Velocity":33,"Duration":100603,"SoundDuration":100603,"Delta":198043589},{"NoteNumber":55,"Velocity":39,"Duration":413478,"SoundDuration":413478,"Delta":198244796},{"NoteNumber":60,"Velocity":33,"Duration":103369,"SoundDuration":103369,"Delta":198451535},{"NoteNumber":63,"Velocity":33,"Duration":103369,"SoundDuration":103369,"Delta":198451535},{"NoteNumber":54,"Velocity":39,"Duration":422564,"SoundDuration":422564,"Delta":198658275},{"NoteNumber":63,"Velocity":33,"Duration":105641,"SoundDuration":105641,"Delta":198869557},{"NoteNumber":60,"Velocity":33,"Duration":105641,"SoundDuration":105641,"Delta":198869557},{"NoteNumber":59,"Velocity":32,"Duration":216014,"SoundDuration":216014,"Delta":199080840},{"NoteNumber":62,"Velocity":38,"Duration":216014,"SoundDuration":216014,"Delta":199080840},{"NoteNumber":55,"Velocity":44,"Duration":420068,"SoundDuration":420068,"Delta":199080840},{"NoteNumber":67,"Velocity":37,"Duration":212556,"SoundDuration":212556,"Delta":199296854},{"NoteNumber":63,"Velocity":31,"Duration":212556,"SoundDuration":212556,"Delta":199296854},{"NoteNumber":65,"Velocity":33,"Duration":212556,"SoundDuration":212556,"Delta":199500908},{"NoteNumber":62,"Velocity":28,"Duration":212556,"SoundDuration":212556,"Delta":199500908},{"NoteNumber":63,"Velocity":31,"Duration":212556,"SoundDuration":212556,"Delta":199704962},{"NoteNumber":60,"Velocity":26,"Duration":212556,"SoundDuration":212556,"Delta":199704962},{"NoteNumber":62,"Velocity":33,"Duration":212932,"SoundDuration":212932,"Delta":199909016},{"NoteNumber":59,"Velocity":28,"Duration":212932,"SoundDuration":212932,"Delta":199909016},{"NoteNumber":60,"Velocity":25,"Duration":221585,"SoundDuration":221585,"Delta":200113070},{"NoteNumber":63,"Velocity":30,"Duration":221585,"SoundDuration":221585,"Delta":200113070},{"NoteNumber":54,"Velocity":41,"Duration":213083,"SoundDuration":213083,"Delta":200113070},{"NoteNumber":59,"Velocity":32,"Duration":204054,"SoundDuration":204054,"Delta":200326153},{"NoteNumber":62,"Velocity":38,"Duration":204054,"SoundDuration":204054,"Delta":200326153},{"NoteNumber":55,"Velocity":44,"Duration":408107,"SoundDuration":408107,"Delta":200326153},{"NoteNumber":67,"Velocity":37,"Duration":212556,"SoundDuration":212556,"Delta":200530207},{"NoteNumber":63,"Velocity":31,"Duration":212556,"SoundDuration":212556,"Delta":200530207},{"NoteNumber":62,"Velocity":28,"Duration":212556,"SoundDuration":212556,"Delta":200734261},{"NoteNumber":65,"Velocity":33,"Duration":212556,"SoundDuration":212556,"Delta":200734261},{"NoteNumber":63,"Velocity":31,"Duration":212556,"SoundDuration":212556,"Delta":200938315},{"NoteNumber":60,"Velocity":26,"Duration":212556,"SoundDuration":212556,"Delta":200938315},{"NoteNumber":59,"Velocity":28,"Duration":212867,"SoundDuration":212867,"Delta":201142369},{"NoteNumber":62,"Velocity":33,"Duration":212867,"SoundDuration":212867,"Delta":201142369},{"NoteNumber":60,"Velocity":25,"Duration":220023,"SoundDuration":220023,"Delta":201346423},{"NoteNumber":63,"Velocity":30,"Duration":220023,"SoundDuration":220023,"Delta":201346423},{"NoteNumber":54,"Velocity":32,"Duration":220023,"SoundDuration":220023,"Delta":201346423},{"NoteNumber":59,"Velocity":31,"Duration":212556,"SoundDuration":212556,"Delta":201557944},{"NoteNumber":62,"Velocity":37,"Duration":212556,"SoundDuration":212556,"Delta":201557944},{"NoteNumber":55,"Velocity":39,"Duration":212556,"SoundDuration":212556,"Delta":201557944},{"NoteNumber":60,"Velocity":27,"Duration":212556,"SoundDuration":212556,"Delta":201761998},{"NoteNumber":63,"Velocity":32,"Duration":212556,"SoundDuration":212556,"Delta":201761998},{"NoteNumber":54,"Velocity":35,"Duration":212556,"SoundDuration":212556,"Delta":201761998},{"NoteNumber":59,"Velocity":31,"Duration":212556,"SoundDuration":212556,"Delta":201966052},{"NoteNumber":62,"Velocity":37,"Duration":212556,"SoundDuration":212556,"Delta":201966052},{"NoteNumber":55,"Velocity":39,"Duration":212556,"SoundDuration":212556,"Delta":201966052},{"NoteNumber":60,"Velocity":28,"Duration":212556,"SoundDuration":212556,"Delta":202170106},{"NoteNumber":63,"Velocity":34,"Duration":212556,"SoundDuration":212556,"Delta":202170106},{"NoteNumber":54,"Velocity":31,"Duration":212556,"SoundDuration":212556,"Delta":202170106},{"NoteNumber":59,"Velocity":31,"Duration":212556,"SoundDuration":212556,"Delta":202374160},{"NoteNumber":62,"Velocity":37,"Duration":212556,"SoundDuration":212556,"Delta":202374160},{"NoteNumber":55,"Velocity":39,"Duration":212556,"SoundDuration":212556,"Delta":202374160},{"NoteNumber":63,"Velocity":34,"Duration":212556,"SoundDuration":212556,"Delta":202578214},{"NoteNumber":60,"Velocity":28,"Duration":212556,"SoundDuration":212556,"Delta":202578214},{"NoteNumber":54,"Velocity":32,"Duration":212556,"SoundDuration":212556,"Delta":202578214},{"NoteNumber":62,"Velocity":37,"Duration":204054,"SoundDuration":204054,"Delta":202782268},{"NoteNumber":59,"Velocity":31,"Duration":204054,"SoundDuration":204054,"Delta":202782268},{"NoteNumber":55,"Velocity":38,"Duration":408107,"SoundDuration":408107,"Delta":202782268},{"NoteNumber":58,"Velocity":33,"Duration":212556,"SoundDuration":212556,"Delta":202986322},{"NoteNumber":61,"Velocity":33,"Duration":212556,"SoundDuration":212556,"Delta":202986322},{"NoteNumber":59,"Velocity":35,"Duration":213673,"SoundDuration":213673,"Delta":203190376},{"NoteNumber":62,"Velocity":35,"Duration":213673,"SoundDuration":213673,"Delta":203190376},{"NoteNumber":64,"Velocity":36,"Duration":216754,"SoundDuration":216754,"Delta":203395425},{"NoteNumber":61,"Velocity":36,"Duration":216754,"SoundDuration":216754,"Delta":203395425},{"NoteNumber":62,"Velocity":38,"Duration":220458,"SoundDuration":220458,"Delta":203603430},{"NoteNumber":65,"Velocity":38,"Duration":220458,"SoundDuration":220458,"Delta":203603430},{"NoteNumber":67,"Velocity":40,"Duration":235027,"SoundDuration":235027,"Delta":203814466},{"NoteNumber":64,"Velocity":40,"Duration":235027,"SoundDuration":235027,"Delta":203814466},{"NoteNumber":69,"Velocity":42,"Duration":425682,"SoundDuration":425682,"Delta":204040625},{"NoteNumber":65,"Velocity":35,"Duration":425682,"SoundDuration":425682,"Delta":204040625},{"NoteNumber":53,"Velocity":33,"Duration":425682,"SoundDuration":425682,"Delta":204040625},{"NoteNumber":60,"Velocity":34,"Duration":425683,"SoundDuration":425683,"Delta":204466308},{"NoteNumber":65,"Velocity":34,"Duration":425683,"SoundDuration":425683,"Delta":204466308},{"NoteNumber":69,"Velocity":40,"Duration":425683,"SoundDuration":425683,"Delta":204466308},{"NoteNumber":53,"Velocity":31,"Duration":425683,"SoundDuration":425683,"Delta":204466308},{"NoteNumber":65,"Velocity":34,"Duration":432557,"SoundDuration":432557,"Delta":204891991},{"NoteNumber":69,"Velocity":40,"Duration":432557,"SoundDuration":432557,"Delta":204891991},{"NoteNumber":60,"Velocity":34,"Duration":432557,"SoundDuration":432557,"Delta":204891991},{"NoteNumber":53,"Velocity":31,"Duration":432557,"SoundDuration":432557,"Delta":204891991},{"NoteNumber":65,"Velocity":35,"Duration":846083,"SoundDuration":846083,"Delta":205324548},{"NoteNumber":69,"Velocity":42,"Duration":846083,"SoundDuration":846083,"Delta":205324548},{"NoteNumber":60,"Velocity":35,"Duration":1278640,"SoundDuration":1278640,"Delta":205324548},{"NoteNumber":53,"Velocity":33,"Duration":846083,"SoundDuration":846083,"Delta":205324548},{"NoteNumber":67,"Velocity":34,"Duration":432557,"SoundDuration":432557,"Delta":206170632},{"NoteNumber":64,"Velocity":28,"Duration":432557,"SoundDuration":432557,"Delta":206170632},{"NoteNumber":48,"Velocity":31,"Duration":432557,"SoundDuration":432557,"Delta":206170632},{"NoteNumber":62,"Velocity":35,"Duration":421561,"SoundDuration":421561,"Delta":206603189},{"NoteNumber":59,"Velocity":35,"Duration":421561,"SoundDuration":421561,"Delta":206603189},{"NoteNumber":67,"Velocity":42,"Duration":208478,"SoundDuration":208478,"Delta":206603189},{"NoteNumber":43,"Velocity":33,"Duration":421561,"SoundDuration":421561,"Delta":206603189},{"NoteNumber":65,"Velocity":38,"Duration":213083,"SoundDuration":213083,"Delta":206811667},{"NoteNumber":62,"Velocity":35,"Duration":426166,"SoundDuration":426166,"Delta":207024750},{"NoteNumber":59,"Velocity":35,"Duration":426166,"SoundDuration":426166,"Delta":207024750},{"NoteNumber":65,"Velocity":42,"Duration":426166,"SoundDuration":426166,"Delta":207024750},{"NoteNumber":43,"Velocity":30,"Duration":426166,"SoundDuration":426166,"Delta":207024750},{"NoteNumber":62,"Velocity":32,"Duration":439142,"SoundDuration":439142,"Delta":207450917},{"NoteNumber":59,"Velocity":32,"Duration":439142,"SoundDuration":439142,"Delta":207450917},{"NoteNumber":65,"Velocity":38,"Duration":439142,"SoundDuration":439142,"Delta":207450917},{"NoteNumber":43,"Velocity":30,"Duration":439142,"SoundDuration":439142,"Delta":207450917},{"NoteNumber":65,"Velocity":42,"Duration":846083,"SoundDuration":846083,"Delta":207890059},{"NoteNumber":62,"Velocity":35,"Duration":846083,"SoundDuration":846083,"Delta":207890059},{"NoteNumber":59,"Velocity":35,"Duration":846083,"SoundDuration":846083,"Delta":207890059},{"NoteNumber":43,"Velocity":33,"Duration":846083,"SoundDuration":846083,"Delta":207890059},{"NoteNumber":64,"Velocity":39,"Duration":429338,"SoundDuration":429338,"Delta":208736143},{"NoteNumber":60,"Velocity":33,"Duration":429338,"SoundDuration":429338,"Delta":208736143},{"NoteNumber":45,"Velocity":30,"Duration":429338,"SoundDuration":429338,"Delta":208736143},{"NoteNumber":64,"Velocity":35,"Duration":205507,"SoundDuration":205507,"Delta":209165481},{"NoteNumber":67,"Velocity":42,"Duration":205507,"SoundDuration":205507,"Delta":209165481},{"NoteNumber":41,"Velocity":33,"Duration":415488,"SoundDuration":415488,"Delta":209165481},{"NoteNumber":65,"Velocity":37,"Duration":209980,"SoundDuration":209980,"Delta":209370989},{"NoteNumber":62,"Velocity":31,"Duration":209980,"SoundDuration":209980,"Delta":209370989},{"NoteNumber":60,"Velocity":35,"Duration":419961,"SoundDuration":419961,"Delta":209580970},{"NoteNumber":64,"Velocity":42,"Duration":419961,"SoundDuration":419961,"Delta":209580970},{"NoteNumber":43,"Velocity":32,"Duration":419961,"SoundDuration":419961,"Delta":209580970},{"NoteNumber":59,"Velocity":30,"Duration":426166,"SoundDuration":426166,"Delta":210000932},{"NoteNumber":62,"Velocity":36,"Duration":426166,"SoundDuration":426166,"Delta":210000932},{"NoteNumber":43,"Velocity":32,"Duration":426166,"SoundDuration":426166,"Delta":210000932},{"NoteNumber":60,"Velocity":35,"Duration":219571,"SoundDuration":219571,"Delta":210427099},{"NoteNumber":64,"Velocity":42,"Duration":219571,"SoundDuration":219571,"Delta":210427099},{"NoteNumber":48,"Velocity":33,"Duration":430133,"SoundDuration":430133,"Delta":210427099},{"NoteNumber":72,"Velocity":35,"Duration":193064,"SoundDuration":193064,"Delta":210646670},{"NoteNumber":74,"Velocity":37,"Duration":191762,"SoundDuration":191762,"Delta":210857232},{"NoteNumber":76,"Velocity":38,"Duration":190574,"SoundDuration":190574,"Delta":211066368},{"NoteNumber":77,"Velocity":40,"Duration":189395,"SoundDuration":189395,"Delta":211274191},{"NoteNumber":79,"Velocity":41,"Duration":188230,"SoundDuration":188230,"Delta":211480713},{"NoteNumber":81,"Velocity":46,"Duration":426166,"SoundDuration":426166,"Delta":211685948},{"NoteNumber":60,"Velocity":28,"Duration":426166,"SoundDuration":426166,"Delta":211685948},{"NoteNumber":65,"Velocity":33,"Duration":426166,"SoundDuration":426166,"Delta":211685948},{"NoteNumber":81,"Velocity":44,"Duration":426167,"SoundDuration":426167,"Delta":212112115},{"NoteNumber":60,"Velocity":26,"Duration":426167,"SoundDuration":426167,"Delta":212112115},{"NoteNumber":65,"Velocity":31,"Duration":426167,"SoundDuration":426167,"Delta":212112115},{"NoteNumber":81,"Velocity":44,"Duration":432557,"SoundDuration":432557,"Delta":212538282},{"NoteNumber":65,"Velocity":31,"Duration":432557,"SoundDuration":432557,"Delta":212538282},{"NoteNumber":60,"Velocity":26,"Duration":432557,"SoundDuration":432557,"Delta":212538282},{"NoteNumber":81,"Velocity":46,"Duration":634563,"SoundDuration":634563,"Delta":212970839},{"NoteNumber":60,"Velocity":28,"Duration":1278640,"SoundDuration":1278640,"Delta":212970839},{"NoteNumber":65,"Velocity":33,"Duration":846083,"SoundDuration":846083,"Delta":212970839},{"NoteNumber":83,"Velocity":39,"Duration":105760,"SoundDuration":105760,"Delta":213605402},{"NoteNumber":81,"Velocity":39,"Duration":105760,"SoundDuration":105760,"Delta":213711162},{"NoteNumber":79,"Velocity":46,"Duration":432557,"SoundDuration":432557,"Delta":213816923},{"NoteNumber":64,"Velocity":31,"Duration":432557,"SoundDuration":432557,"Delta":213816923},{"NoteNumber":79,"Velocity":46,"Duration":208478,"SoundDuration":208478,"Delta":214249480},{"NoteNumber":71,"Velocity":35,"Duration":421561,"SoundDuration":421561,"Delta":214249480},{"NoteNumber":55,"Velocity":28,"Duration":421561,"SoundDuration":421561,"Delta":214249480},{"NoteNumber":62,"Velocity":33,"Duration":421561,"SoundDuration":421561,"Delta":214249480},{"NoteNumber":77,"Velocity":41,"Duration":213083,"SoundDuration":213083,"Delta":214457958},{"NoteNumber":77,"Velocity":46,"Duration":426166,"SoundDuration":426166,"Delta":214671041},{"NoteNumber":71,"Velocity":35,"Duration":426166,"SoundDuration":426166,"Delta":214671041},{"NoteNumber":55,"Velocity":25,"Duration":426166,"SoundDuration":426166,"Delta":214671041},{"NoteNumber":62,"Velocity":30,"Duration":426166,"SoundDuration":426166,"Delta":214671041},{"NoteNumber":77,"Velocity":41,"Duration":439142,"SoundDuration":439142,"Delta":215097208},{"NoteNumber":71,"Velocity":32,"Duration":439142,"SoundDuration":439142,"Delta":215097208},{"NoteNumber":55,"Velocity":25,"Duration":439142,"SoundDuration":439142,"Delta":215097208},{"NoteNumber":62,"Velocity":30,"Duration":439142,"SoundDuration":439142,"Delta":215097208},{"NoteNumber":77,"Velocity":46,"Duration":846083,"SoundDuration":846083,"Delta":215536350},{"NoteNumber":71,"Velocity":35,"Duration":846083,"SoundDuration":846083,"Delta":215536350},{"NoteNumber":55,"Velocity":28,"Duration":846083,"SoundDuration":846083,"Delta":215536350},{"NoteNumber":62,"Velocity":33,"Duration":846083,"SoundDuration":846083,"Delta":215536350},{"NoteNumber":72,"Velocity":33,"Duration":429338,"SoundDuration":429338,"Delta":216382434},{"NoteNumber":76,"Velocity":42,"Duration":429338,"SoundDuration":429338,"Delta":216382434},{"NoteNumber":60,"Velocity":30,"Duration":429338,"SoundDuration":429338,"Delta":216382434},{"NoteNumber":57,"Velocity":25,"Duration":429338,"SoundDuration":429338,"Delta":216382434},{"NoteNumber":76,"Velocity":35,"Duration":205507,"SoundDuration":205507,"Delta":216811772},{"NoteNumber":79,"Velocity":46,"Duration":205507,"SoundDuration":205507,"Delta":216811772},{"NoteNumber":53,"Velocity":33,"Duration":415488,"SoundDuration":415488,"Delta":216811772},{"NoteNumber":77,"Velocity":40,"Duration":209980,"SoundDuration":209980,"Delta":217017280},{"NoteNumber":74,"Velocity":31,"Duration":209980,"SoundDuration":209980,"Delta":217017280},{"NoteNumber":76,"Velocity":46,"Duration":419961,"SoundDuration":419961,"Delta":217227261},{"NoteNumber":72,"Velocity":35,"Duration":419961,"SoundDuration":419961,"Delta":217227261},{"NoteNumber":55,"Velocity":32,"Duration":419961,"SoundDuration":419961,"Delta":217227261},{"NoteNumber":74,"Velocity":39,"Duration":426166,"SoundDuration":426166,"Delta":217647223},{"NoteNumber":71,"Velocity":30,"Duration":426166,"SoundDuration":426166,"Delta":217647223},{"NoteNumber":53,"Velocity":32,"Duration":426166,"SoundDuration":426166,"Delta":217647223},{"NoteNumber":76,"Velocity":63,"Duration":99906,"SoundDuration":99906,"Delta":218073390},{"NoteNumber":79,"Velocity":63,"Duration":99906,"SoundDuration":99906,"Delta":218073390},{"NoteNumber":40,"Velocity":58,"Duration":199813,"SoundDuration":199813,"Delta":218073390},{"NoteNumber":52,"Velocity":69,"Duration":199813,"SoundDuration":199813,"Delta":218073390},{"NoteNumber":79,"Velocity":50,"Duration":99906,"SoundDuration":99906,"Delta":218273203},{"NoteNumber":76,"Velocity":50,"Duration":99906,"SoundDuration":99906,"Delta":218273203},{"NoteNumber":56,"Velocity":40,"Duration":100603,"SoundDuration":100603,"Delta":218473017},{"NoteNumber":77,"Velocity":33,"Duration":100603,"SoundDuration":100603,"Delta":218674224},{"NoteNumber":74,"Velocity":33,"Duration":100603,"SoundDuration":100603,"Delta":218674224},{"NoteNumber":57,"Velocity":40,"Duration":102026,"SoundDuration":102026,"Delta":218875431},{"NoteNumber":72,"Velocity":33,"Duration":102026,"SoundDuration":102026,"Delta":219079485},{"NoteNumber":76,"Velocity":33,"Duration":102026,"SoundDuration":102026,"Delta":219079485},{"NoteNumber":53,"Velocity":40,"Duration":102026,"SoundDuration":102026,"Delta":219283539},{"NoteNumber":65,"Velocity":33,"Duration":102026,"SoundDuration":102026,"Delta":219487593},{"NoteNumber":74,"Velocity":33,"Duration":102026,"SoundDuration":102026,"Delta":219487593},{"NoteNumber":55,"Velocity":40,"Duration":99906,"SoundDuration":99906,"Delta":219691647},{"NoteNumber":72,"Velocity":33,"Duration":99906,"SoundDuration":99906,"Delta":219891460},{"NoteNumber":64,"Velocity":33,"Duration":99906,"SoundDuration":99906,"Delta":219891460},{"NoteNumber":53,"Velocity":40,"Duration":102753,"SoundDuration":102753,"Delta":220091274},{"NoteNumber":71,"Velocity":33,"Duration":102753,"SoundDuration":102753,"Delta":220296781},{"NoteNumber":62,"Velocity":33,"Duration":102753,"SoundDuration":102753,"Delta":220296781},{"NoteNumber":40,"Velocity":75,"Duration":102753,"SoundDuration":102753,"Delta":220502289},{"NoteNumber":52,"Velocity":75,"Duration":102753,"SoundDuration":102753,"Delta":220502289},{"NoteNumber":76,"Velocity":72,"Duration":102753,"SoundDuration":102753,"Delta":220605042},{"NoteNumber":79,"Velocity":75,"Duration":102753,"SoundDuration":102753,"Delta":220707796},{"NoteNumber":76,"Velocity":72,"Duration":102753,"SoundDuration":102753,"Delta":220810550},{"NoteNumber":44,"Velocity":73,"Duration":99906,"SoundDuration":99906,"Delta":220913304},{"NoteNumber":56,"Velocity":73,"Duration":99906,"SoundDuration":99906,"Delta":220913304},{"NoteNumber":74,"Velocity":70,"Duration":99906,"SoundDuration":99906,"Delta":221013210},{"NoteNumber":77,"Velocity":75,"Duration":99906,"SoundDuration":99906,"Delta":221113117},{"NoteNumber":74,"Velocity":70,"Duration":99906,"SoundDuration":99906,"Delta":221213024},{"NoteNumber":57,"Velocity":73,"Duration":102753,"SoundDuration":102753,"Delta":221312931},{"NoteNumber":45,"Velocity":73,"Duration":102753,"SoundDuration":102753,"Delta":221312931},{"NoteNumber":72,"Velocity":72,"Duration":102753,"SoundDuration":102753,"Delta":221415684},{"NoteNumber":76,"Velocity":75,"Duration":102753,"SoundDuration":102753,"Delta":221518438},{"NoteNumber":72,"Velocity":71,"Duration":102753,"SoundDuration":102753,"Delta":221621192},{"NoteNumber":41,"Velocity":75,"Duration":101310,"SoundDuration":101310,"Delta":221723946},{"NoteNumber":53,"Velocity":75,"Duration":101310,"SoundDuration":101310,"Delta":221723946},{"NoteNumber":65,"Velocity":71,"Duration":101310,"SoundDuration":101310,"Delta":221825256},{"NoteNumber":74,"Velocity":75,"Duration":101310,"SoundDuration":101310,"Delta":221926566},{"NoteNumber":65,"Velocity":71,"Duration":101310,"SoundDuration":101310,"Delta":222027876},{"NoteNumber":55,"Velocity":73,"Duration":100603,"SoundDuration":100603,"Delta":222129187},{"NoteNumber":43,"Velocity":73,"Duration":100603,"SoundDuration":100603,"Delta":222129187},{"NoteNumber":64,"Velocity":71,"Duration":100603,"SoundDuration":100603,"Delta":222229790},{"NoteNumber":72,"Velocity":75,"Duration":100603,"SoundDuration":100603,"Delta":222330394},{"NoteNumber":64,"Velocity":71,"Duration":100603,"SoundDuration":100603,"Delta":222430997},{"NoteNumber":55,"Velocity":73,"Duration":103490,"SoundDuration":103490,"Delta":222531601},{"NoteNumber":43,"Velocity":73,"Duration":103490,"SoundDuration":103490,"Delta":222531601},{"NoteNumber":62,"Velocity":71,"Duration":103491,"SoundDuration":103491,"Delta":222635092},{"NoteNumber":71,"Velocity":75,"Duration":103490,"SoundDuration":103490,"Delta":222738583},{"NoteNumber":62,"Velocity":71,"Duration":103587,"SoundDuration":103587,"Delta":222842074},{"NoteNumber":64,"Velocity":75,"Duration":412675,"SoundDuration":412675,"Delta":222945661},{"NoteNumber":67,"Velocity":75,"Duration":412675,"SoundDuration":412675,"Delta":222945661},{"NoteNumber":72,"Velocity":75,"Duration":412675,"SoundDuration":412675,"Delta":222945661},{"NoteNumber":48,"Velocity":64,"Duration":101850,"SoundDuration":101850,"Delta":222945661},{"NoteNumber":52,"Velocity":59,"Duration":104928,"SoundDuration":104928,"Delta":223047512},{"NoteNumber":55,"Velocity":59,"Duration":102871,"SoundDuration":102871,"Delta":223152440},{"NoteNumber":60,"Velocity":59,"Duration":103025,"SoundDuration":103025,"Delta":223255311},{"NoteNumber":48,"Velocity":63,"Duration":101501,"SoundDuration":101501,"Delta":223358336},{"NoteNumber":52,"Velocity":58,"Duration":101158,"SoundDuration":101158,"Delta":223459838},{"NoteNumber":55,"Velocity":58,"Duration":103559,"SoundDuration":103559,"Delta":223560996},{"NoteNumber":60,"Velocity":58,"Duration":102193,"SoundDuration":102193,"Delta":223664555},{"NoteNumber":76,"Velocity":70,"Duration":51317,"SoundDuration":51317,"Delta":223766749},{"NoteNumber":48,"Velocity":63,"Duration":103003,"SoundDuration":103003,"Delta":223766749},{"NoteNumber":77,"Velocity":65,"Duration":51686,"SoundDuration":51686,"Delta":223818066},{"NoteNumber":76,"Velocity":70,"Duration":52152,"SoundDuration":52152,"Delta":223869752},{"NoteNumber":52,"Velocity":57,"Duration":104877,"SoundDuration":104877,"Delta":223869752},{"NoteNumber":77,"Velocity":66,"Duration":52724,"SoundDuration":52724,"Delta":223921904},{"NoteNumber":76,"Velocity":70,"Duration":35376,"SoundDuration":35376,"Delta":223974629},{"NoteNumber":55,"Velocity":58,"Duration":106913,"SoundDuration":106913,"Delta":223974629},{"NoteNumber":77,"Velocity":66,"Duration":35702,"SoundDuration":35702,"Delta":224010005},{"NoteNumber":76,"Velocity":66,"Duration":35835,"SoundDuration":35835,"Delta":224045707},{"NoteNumber":74,"Velocity":70,"Duration":54309,"SoundDuration":54309,"Delta":224081542},{"NoteNumber":60,"Velocity":58,"Duration":108719,"SoundDuration":108719,"Delta":224081542},{"NoteNumber":72,"Velocity":66,"Duration":54410,"SoundDuration":54410,"Delta":224135851},{"NoteNumber":79,"Velocity":75,"Duration":810178,"SoundDuration":810178,"Delta":224190262},{"NoteNumber":48,"Velocity":63,"Duration":100860,"SoundDuration":100860,"Delta":224190262},{"NoteNumber":52,"Velocity":58,"Duration":102209,"SoundDuration":102209,"Delta":224291123},{"NoteNumber":55,"Velocity":59,"Duration":100179,"SoundDuration":100179,"Delta":224393332},{"NoteNumber":60,"Velocity":59,"Duration":100323,"SoundDuration":100323,"Delta":224493511},{"NoteNumber":48,"Velocity":63,"Duration":103818,"SoundDuration":103818,"Delta":224593835},{"NoteNumber":52,"Velocity":57,"Duration":99944,"SoundDuration":99944,"Delta":224697654},{"NoteNumber":55,"Velocity":57,"Duration":101891,"SoundDuration":101891,"Delta":224797598},{"NoteNumber":60,"Velocity":57,"Duration":100951,"SoundDuration":100951,"Delta":224899489},{"NoteNumber":83,"Velocity":70,"Duration":51409,"SoundDuration":51409,"Delta":225000441},{"NoteNumber":48,"Velocity":63,"Duration":103187,"SoundDuration":103187,"Delta":225000441},{"NoteNumber":84,"Velocity":66,"Duration":51778,"SoundDuration":51778,"Delta":225051850},{"NoteNumber":83,"Velocity":70,"Duration":52152,"SoundDuration":52152,"Delta":225103628},{"NoteNumber":53,"Velocity":57,"Duration":104877,"SoundDuration":104877,"Delta":225103628},{"NoteNumber":84,"Velocity":66,"Duration":52724,"SoundDuration":52724,"Delta":225155781},{"NoteNumber":83,"Velocity":70,"Duration":35376,"SoundDuration":35376,"Delta":225208505},{"NoteNumber":55,"Velocity":57,"Duration":106617,"SoundDuration":106617,"Delta":225208505},{"NoteNumber":84,"Velocity":65,"Duration":35506,"SoundDuration":35506,"Delta":225243881},{"NoteNumber":83,"Velocity":66,"Duration":35734,"SoundDuration":35734,"Delta":225279388},{"NoteNumber":81,"Velocity":70,"Duration":54004,"SoundDuration":54004,"Delta":225315122},{"NoteNumber":62,"Velocity":57,"Duration":107642,"SoundDuration":107642,"Delta":225315122},{"NoteNumber":79,"Velocity":65,"Duration":53637,"SoundDuration":53637,"Delta":225369127},{"NoteNumber":84,"Velocity":75,"Duration":821074,"SoundDuration":821074,"Delta":225422765},{"NoteNumber":48,"Velocity":63,"Duration":102634,"SoundDuration":102634,"Delta":225422765},{"NoteNumber":52,"Velocity":57,"Duration":102634,"SoundDuration":102634,"Delta":225525399},{"NoteNumber":55,"Velocity":57,"Duration":102634,"SoundDuration":102634,"Delta":225628033},{"NoteNumber":60,"Velocity":57,"Duration":102634,"SoundDuration":102634,"Delta":225730667},{"NoteNumber":48,"Velocity":63,"Duration":102634,"SoundDuration":102634,"Delta":225833302},{"NoteNumber":52,"Velocity":57,"Duration":102634,"SoundDuration":102634,"Delta":225935936},{"NoteNumber":55,"Velocity":57,"Duration":102634,"SoundDuration":102634,"Delta":226038570},{"NoteNumber":60,"Velocity":57,"Duration":102634,"SoundDuration":102634,"Delta":226141204},{"NoteNumber":48,"Velocity":63,"Duration":102879,"SoundDuration":102879,"Delta":226243839},{"NoteNumber":76,"Velocity":70,"Duration":51317,"SoundDuration":51317,"Delta":226243839},{"NoteNumber":77,"Velocity":65,"Duration":51562,"SoundDuration":51562,"Delta":226295156},{"NoteNumber":76,"Velocity":70,"Duration":52089,"SoundDuration":52089,"Delta":226346719},{"NoteNumber":52,"Velocity":57,"Duration":104750,"SoundDuration":104750,"Delta":226346719},{"NoteNumber":77,"Velocity":66,"Duration":52660,"SoundDuration":52660,"Delta":226398808},{"NoteNumber":76,"Velocity":70,"Duration":35311,"SoundDuration":35311,"Delta":226451469},{"NoteNumber":55,"Velocity":58,"Duration":106716,"SoundDuration":106716,"Delta":226451469},{"NoteNumber":77,"Velocity":66,"Duration":35636,"SoundDuration":35636,"Delta":226486780},{"NoteNumber":76,"Velocity":66,"Duration":35768,"SoundDuration":35768,"Delta":226522417},{"NoteNumber":74,"Velocity":70,"Duration":54241,"SoundDuration":54241,"Delta":226558185},{"NoteNumber":60,"Velocity":58,"Duration":108652,"SoundDuration":108652,"Delta":226558185},{"NoteNumber":72,"Velocity":66,"Duration":54410,"SoundDuration":54410,"Delta":226612426},{"NoteNumber":79,"Velocity":75,"Duration":203850,"SoundDuration":203850,"Delta":226666837},{"NoteNumber":48,"Velocity":63,"Duration":101405,"SoundDuration":101405,"Delta":226666837},{"NoteNumber":52,"Velocity":58,"Duration":102445,"SoundDuration":102445,"Delta":226768242},{"NoteNumber":55,"Velocity":59,"Duration":100086,"SoundDuration":100086,"Delta":226870687},{"NoteNumber":60,"Velocity":59,"Duration":100457,"SoundDuration":100457,"Delta":226970773},{"NoteNumber":48,"Velocity":63,"Duration":103408,"SoundDuration":103408,"Delta":227071231},{"NoteNumber":79,"Velocity":75,"Duration":203775,"SoundDuration":203775,"Delta":227071231},{"NoteNumber":52,"Velocity":57,"Duration":100367,"SoundDuration":100367,"Delta":227174639},{"NoteNumber":55,"Velocity":57,"Duration":101715,"SoundDuration":101715,"Delta":227275006},{"NoteNumber":60,"Velocity":57,"Duration":100879,"SoundDuration":100879,"Delta":227376722},{"NoteNumber":83,"Velocity":70,"Duration":51347,"SoundDuration":51347,"Delta":227477601},{"NoteNumber":48,"Velocity":63,"Duration":103063,"SoundDuration":103063,"Delta":227477601},{"NoteNumber":84,"Velocity":66,"Duration":51715,"SoundDuration":51715,"Delta":227528949},{"NoteNumber":83,"Velocity":70,"Duration":52089,"SoundDuration":52089,"Delta":227580665},{"NoteNumber":53,"Velocity":57,"Duration":104750,"SoundDuration":104750,"Delta":227580665},{"NoteNumber":84,"Velocity":66,"Duration":52660,"SoundDuration":52660,"Delta":227632754},{"NoteNumber":83,"Velocity":70,"Duration":35311,"SoundDuration":35311,"Delta":227685415},{"NoteNumber":55,"Velocity":57,"Duration":106486,"SoundDuration":106486,"Delta":227685415},{"NoteNumber":84,"Velocity":65,"Duration":35473,"SoundDuration":35473,"Delta":227720726},{"NoteNumber":83,"Velocity":66,"Duration":35702,"SoundDuration":35702,"Delta":227756199},{"NoteNumber":81,"Velocity":70,"Duration":53870,"SoundDuration":53870,"Delta":227791902},{"NoteNumber":62,"Velocity":57,"Duration":107996,"SoundDuration":107996,"Delta":227791902},{"NoteNumber":79,"Velocity":65,"Duration":54125,"SoundDuration":54125,"Delta":227845772},{"NoteNumber":84,"Velocity":75,"Duration":107559,"SoundDuration":107559,"Delta":227899898},{"NoteNumber":52,"Velocity":63,"Duration":107559,"SoundDuration":107559,"Delta":227899898},{"NoteNumber":48,"Velocity":63,"Duration":107559,"SoundDuration":107559,"Delta":227899898},{"NoteNumber":55,"Velocity":63,"Duration":107559,"SoundDuration":107559,"Delta":227899898},{"NoteNumber":60,"Velocity":63,"Duration":107559,"SoundDuration":107559,"Delta":227899898},{"NoteNumber":88,"Velocity":88,"Duration":611454,"SoundDuration":611454,"Delta":228331021},{"NoteNumber":52,"Velocity":58,"Duration":611454,"SoundDuration":611454,"Delta":228331021},{"NoteNumber":64,"Velocity":69,"Duration":611454,"SoundDuration":611454,"Delta":228331021},{"NoteNumber":80,"Velocity":75,"Duration":204215,"SoundDuration":204215,"Delta":228942475},{"NoteNumber":56,"Velocity":63,"Duration":204215,"SoundDuration":204215,"Delta":228942475},{"NoteNumber":44,"Velocity":63,"Duration":204215,"SoundDuration":204215,"Delta":228942475},{"NoteNumber":81,"Velocity":75,"Duration":107203,"SoundDuration":107203,"Delta":229146690},{"NoteNumber":45,"Velocity":63,"Duration":107203,"SoundDuration":107203,"Delta":229146690},{"NoteNumber":57,"Velocity":63,"Duration":107203,"SoundDuration":107203,"Delta":229146690},{"NoteNumber":84,"Velocity":89,"Duration":611454,"SoundDuration":611454,"Delta":229575109},{"NoteNumber":60,"Velocity":71,"Duration":611454,"SoundDuration":611454,"Delta":229575109},{"NoteNumber":48,"Velocity":60,"Duration":611454,"SoundDuration":611454,"Delta":229575109},{"NoteNumber":76,"Velocity":75,"Duration":203927,"SoundDuration":203927,"Delta":230186563},{"NoteNumber":52,"Velocity":63,"Duration":203927,"SoundDuration":203927,"Delta":230186563},{"NoteNumber":77,"Velocity":70,"Duration":51684,"SoundDuration":51684,"Delta":230390490},{"NoteNumber":53,"Velocity":56,"Duration":51684,"SoundDuration":51684,"Delta":230390490},{"NoteNumber":79,"Velocity":65,"Duration":51684,"SoundDuration":51684,"Delta":230442175},{"NoteNumber":55,"Velocity":52,"Duration":51684,"SoundDuration":51684,"Delta":230442175},{"NoteNumber":77,"Velocity":70,"Duration":51684,"SoundDuration":51684,"Delta":230493860},{"NoteNumber":53,"Velocity":56,"Duration":51684,"SoundDuration":51684,"Delta":230493860},{"NoteNumber":79,"Velocity":66,"Duration":51684,"SoundDuration":51684,"Delta":230545545},{"NoteNumber":55,"Velocity":52,"Duration":51684,"SoundDuration":51684,"Delta":230545545},{"NoteNumber":77,"Velocity":70,"Duration":34456,"SoundDuration":34456,"Delta":230597230},{"NoteNumber":53,"Velocity":56,"Duration":34456,"SoundDuration":34456,"Delta":230597230},{"NoteNumber":79,"Velocity":66,"Duration":34456,"SoundDuration":34456,"Delta":230631686},{"NoteNumber":55,"Velocity":52,"Duration":34456,"SoundDuration":34456,"Delta":230631686},{"NoteNumber":77,"Velocity":66,"Duration":34456,"SoundDuration":34456,"Delta":230666143},{"NoteNumber":53,"Velocity":52,"Duration":34456,"SoundDuration":34456,"Delta":230666143},{"NoteNumber":76,"Velocity":70,"Duration":51684,"SoundDuration":51684,"Delta":230700599},{"NoteNumber":52,"Velocity":56,"Duration":51684,"SoundDuration":51684,"Delta":230700599},{"NoteNumber":74,"Velocity":66,"Duration":51684,"SoundDuration":51684,"Delta":230752284},{"NoteNumber":50,"Velocity":52,"Duration":51684,"SoundDuration":51684,"Delta":230752284},{"NoteNumber":79,"Velocity":84,"Duration":103369,"SoundDuration":103369,"Delta":230803969},{"NoteNumber":55,"Velocity":63,"Duration":103369,"SoundDuration":103369,"Delta":230803969},{"NoteNumber":83,"Velocity":86,"Duration":106420,"SoundDuration":106420,"Delta":231217677},{"NoteNumber":79,"Velocity":72,"Duration":106420,"SoundDuration":106420,"Delta":231217677},{"NoteNumber":74,"Velocity":72,"Duration":106420,"SoundDuration":106420,"Delta":231217677},{"NoteNumber":43,"Velocity":56,"Duration":106420,"SoundDuration":106420,"Delta":231217677},{"NoteNumber":55,"Velocity":67,"Duration":106420,"SoundDuration":106420,"Delta":231217677},{"NoteNumber":79,"Velocity":72,"Duration":106420,"SoundDuration":106420,"Delta":231643360},{"NoteNumber":76,"Velocity":72,"Duration":106420,"SoundDuration":106420,"Delta":231643360},{"NoteNumber":84,"Velocity":86,"Duration":106420,"SoundDuration":106420,"Delta":231643360},{"NoteNumber":60,"Velocity":72,"Duration":106420,"SoundDuration":106420,"Delta":231643360},{"NoteNumber":48,"Velocity":60,"Duration":106420,"SoundDuration":106420,"Delta":231643360},{"NoteNumber":60,"Velocity":79,"Duration":106420,"SoundDuration":106420,"Delta":232069043},{"NoteNumber":48,"Velocity":69,"Duration":106420,"SoundDuration":106420,"Delta":232069043},{"NoteNumber":36,"Velocity":58,"Duration":106420,"SoundDuration":106420,"Delta":232069043},{"NoteNumber":67,"Velocity":50,"Duration":1260350,"SoundDuration":1260350,"Delta":232920409},{"NoteNumber":72,"Velocity":46,"Duration":408107,"SoundDuration":408107,"Delta":233337365},{"NoteNumber":52,"Velocity":46,"Duration":408107,"SoundDuration":408107,"Delta":233337365},{"NoteNumber":76,"Velocity":46,"Duration":435286,"SoundDuration":435286,"Delta":233745473},{"NoteNumber":48,"Velocity":42,"Duration":435286,"SoundDuration":435286,"Delta":233745473},{"NoteNumber":67,"Velocity":45,"Duration":1233171,"SoundDuration":1233171,"Delta":234180760},{"NoteNumber":76,"Velocity":53,"Duration":816215,"SoundDuration":816215,"Delta":234180760},{"NoteNumber":72,"Velocity":48,"Duration":816215,"SoundDuration":816215,"Delta":234180760},{"NoteNumber":55,"Velocity":46,"Duration":1233171,"SoundDuration":1233171,"Delta":234180760},{"NoteNumber":71,"Velocity":43,"Duration":416955,"SoundDuration":416955,"Delta":234996976},{"NoteNumber":74,"Velocity":43,"Duration":416955,"SoundDuration":416955,"Delta":234996976},{"NoteNumber":79,"Velocity":50,"Duration":405240,"SoundDuration":405240,"Delta":235413932},{"NoteNumber":72,"Velocity":46,"Duration":402413,"SoundDuration":402413,"Delta":235819173},{"NoteNumber":67,"Velocity":40,"Duration":822375,"SoundDuration":822375,"Delta":235819173},{"NoteNumber":52,"Velocity":46,"Duration":402413,"SoundDuration":402413,"Delta":235819173},{"NoteNumber":76,"Velocity":46,"Duration":419961,"SoundDuration":419961,"Delta":236221587},{"NoteNumber":48,"Velocity":42,"Duration":419961,"SoundDuration":419961,"Delta":236221587},{"NoteNumber":67,"Velocity":45,"Duration":1238986,"SoundDuration":1238986,"Delta":236641549},{"NoteNumber":72,"Velocity":48,"Duration":822030,"SoundDuration":822030,"Delta":236641549},{"NoteNumber":76,"Velocity":53,"Duration":822030,"SoundDuration":822030,"Delta":236641549},{"NoteNumber":55,"Velocity":46,"Duration":1238986,"SoundDuration":1238986,"Delta":236641549},{"NoteNumber":74,"Velocity":43,"Duration":416955,"SoundDuration":416955,"Delta":237463579},{"NoteNumber":71,"Velocity":43,"Duration":416955,"SoundDuration":416955,"Delta":237463579},{"NoteNumber":69,"Velocity":50,"Duration":405240,"SoundDuration":405240,"Delta":237880535},{"NoteNumber":62,"Velocity":35,"Duration":405240,"SoundDuration":405240,"Delta":237880535},{"NoteNumber":53,"Velocity":29,"Duration":405240,"SoundDuration":405240,"Delta":237880535},{"NoteNumber":57,"Velocity":29,"Duration":405240,"SoundDuration":405240,"Delta":237880535},{"NoteNumber":74,"Velocity":50,"Duration":405241,"SoundDuration":405241,"Delta":238285776},{"NoteNumber":77,"Velocity":50,"Duration":399202,"SoundDuration":399202,"Delta":238691017},{"NoteNumber":76,"Velocity":50,"Duration":402413,"SoundDuration":402413,"Delta":239090219},{"NoteNumber":62,"Velocity":35,"Duration":402413,"SoundDuration":402413,"Delta":239090219},{"NoteNumber":53,"Velocity":29,"Duration":402413,"SoundDuration":402413,"Delta":239090219},{"NoteNumber":57,"Velocity":29,"Duration":402413,"SoundDuration":402413,"Delta":239090219},{"NoteNumber":74,"Velocity":50,"Duration":422564,"SoundDuration":422564,"Delta":239492633},{"NoteNumber":81,"Velocity":50,"Duration":833911,"SoundDuration":833911,"Delta":239915198},{"NoteNumber":62,"Velocity":27,"Duration":1233171,"SoundDuration":1233171,"Delta":240332154},{"NoteNumber":55,"Velocity":27,"Duration":1233171,"SoundDuration":1233171,"Delta":240332154},{"NoteNumber":65,"Velocity":32,"Duration":1233171,"SoundDuration":1233171,"Delta":240332154},{"NoteNumber":79,"Velocity":50,"Duration":408107,"SoundDuration":408107,"Delta":240749110},{"NoteNumber":71,"Velocity":50,"Duration":408107,"SoundDuration":408107,"Delta":241157218},{"NoteNumber":72,"Velocity":50,"Duration":204054,"SoundDuration":204054,"Delta":241565326},{"NoteNumber":64,"Velocity":42,"Duration":408107,"SoundDuration":408107,"Delta":241565326},{"NoteNumber":60,"Velocity":35,"Duration":408107,"SoundDuration":408107,"Delta":241565326},{"NoteNumber":67,"Velocity":50,"Duration":204053,"SoundDuration":204053,"Delta":241769380},{"NoteNumber":64,"Velocity":50,"Duration":204054,"SoundDuration":204054,"Delta":241973434},{"NoteNumber":67,"Velocity":50,"Duration":204053,"SoundDuration":204053,"Delta":242177488},{"NoteNumber":65,"Velocity":50,"Duration":204054,"SoundDuration":204054,"Delta":242381542},{"NoteNumber":62,"Velocity":50,"Duration":219571,"SoundDuration":219571,"Delta":242585596},{"NoteNumber":60,"Velocity":50,"Duration":312716,"SoundDuration":312716,"Delta":242805167},{"NoteNumber":55,"Velocity":43,"Duration":104239,"SoundDuration":104239,"Delta":243117884},{"NoteNumber":60,"Velocity":46,"Duration":408107,"SoundDuration":408107,"Delta":243222123},{"NoteNumber":52,"Velocity":46,"Duration":408107,"SoundDuration":408107,"Delta":243222123},{"NoteNumber":64,"Velocity":48,"Duration":428816,"SoundDuration":428816,"Delta":243630231},{"NoteNumber":48,"Velocity":44,"Duration":428816,"SoundDuration":428816,"Delta":243630231},{"NoteNumber":60,"Velocity":50,"Duration":816215,"SoundDuration":816215,"Delta":244059047},{"NoteNumber":64,"Velocity":55,"Duration":816215,"SoundDuration":816215,"Delta":244059047},{"NoteNumber":43,"Velocity":48,"Duration":1233171,"SoundDuration":1233171,"Delta":244059047},{"NoteNumber":55,"Velocity":47,"Duration":1233171,"SoundDuration":1233171,"Delta":244059047},{"NoteNumber":62,"Velocity":43,"Duration":416955,"SoundDuration":416955,"Delta":244875263},{"NoteNumber":59,"Velocity":43,"Duration":416955,"SoundDuration":416955,"Delta":244875263},{"NoteNumber":67,"Velocity":50,"Duration":405240,"SoundDuration":405240,"Delta":245292219},{"NoteNumber":55,"Velocity":40,"Duration":831230,"SoundDuration":831230,"Delta":245697460},{"NoteNumber":60,"Velocity":46,"Duration":402413,"SoundDuration":402413,"Delta":245697460},{"NoteNumber":52,"Velocity":46,"Duration":402413,"SoundDuration":402413,"Delta":245697460},{"NoteNumber":64,"Velocity":48,"Duration":428816,"SoundDuration":428816,"Delta":246099874},{"NoteNumber":48,"Velocity":44,"Duration":428816,"SoundDuration":428816,"Delta":246099874},{"NoteNumber":60,"Velocity":50,"Duration":822030,"SoundDuration":822030,"Delta":246528690},{"NoteNumber":64,"Velocity":55,"Duration":822030,"SoundDuration":822030,"Delta":246528690},{"NoteNumber":43,"Velocity":48,"Duration":1238986,"SoundDuration":1238986,"Delta":246528690},{"NoteNumber":55,"Velocity":47,"Duration":1238986,"SoundDuration":1238986,"Delta":246528690},{"NoteNumber":59,"Velocity":43,"Duration":416955,"SoundDuration":416955,"Delta":247350720},{"NoteNumber":62,"Velocity":43,"Duration":416955,"SoundDuration":416955,"Delta":247350720},{"NoteNumber":57,"Velocity":50,"Duration":405240,"SoundDuration":405240,"Delta":247767676},{"NoteNumber":45,"Velocity":29,"Duration":405240,"SoundDuration":405240,"Delta":247767676},{"NoteNumber":41,"Velocity":29,"Duration":405240,"SoundDuration":405240,"Delta":247767676},{"NoteNumber":50,"Velocity":35,"Duration":405240,"SoundDuration":405240,"Delta":247767676},{"NoteNumber":62,"Velocity":50,"Duration":405241,"SoundDuration":405241,"Delta":248172917},{"NoteNumber":65,"Velocity":50,"Duration":411014,"SoundDuration":411014,"Delta":248578158},{"NoteNumber":64,"Velocity":50,"Duration":402413,"SoundDuration":402413,"Delta":248989173},{"NoteNumber":45,"Velocity":29,"Duration":402413,"SoundDuration":402413,"Delta":248989173},{"NoteNumber":41,"Velocity":29,"Duration":402413,"SoundDuration":402413,"Delta":248989173},{"NoteNumber":50,"Velocity":35,"Duration":402413,"SoundDuration":402413,"Delta":248989173},{"NoteNumber":62,"Velocity":50,"Duration":422564,"SoundDuration":422564,"Delta":249391587},{"NoteNumber":69,"Velocity":50,"Duration":833911,"SoundDuration":833911,"Delta":249814152},{"NoteNumber":53,"Velocity":36,"Duration":416955,"SoundDuration":416955,"Delta":250231108},{"NoteNumber":50,"Velocity":30,"Duration":416955,"SoundDuration":416955,"Delta":250231108},{"NoteNumber":43,"Velocity":30,"Duration":416955,"SoundDuration":416955,"Delta":250231108},{"NoteNumber":67,"Velocity":50,"Duration":408107,"SoundDuration":408107,"Delta":250648064},{"NoteNumber":59,"Velocity":50,"Duration":408107,"SoundDuration":408107,"Delta":251056172},{"NoteNumber":60,"Velocity":52,"Duration":213083,"SoundDuration":213083,"Delta":251464280},{"NoteNumber":48,"Velocity":32,"Duration":417137,"SoundDuration":417137,"Delta":251464280},{"NoteNumber":52,"Velocity":37,"Duration":417137,"SoundDuration":417137,"Delta":251464280},{"NoteNumber":67,"Velocity":34,"Duration":204054,"SoundDuration":204054,"Delta":251677363},{"NoteNumber":64,"Velocity":40,"Duration":399627,"SoundDuration":399627,"Delta":251881417},{"NoteNumber":67,"Velocity":34,"Duration":99906,"SoundDuration":99906,"Delta":252081231},{"NoteNumber":60,"Velocity":37,"Duration":414141,"SoundDuration":414141,"Delta":252281044},{"NoteNumber":67,"Velocity":34,"Duration":105760,"SoundDuration":105760,"Delta":252483665},{"NoteNumber":65,"Velocity":34,"Duration":100603,"SoundDuration":100603,"Delta":252695186},{"NoteNumber":67,"Velocity":40,"Duration":100603,"SoundDuration":100603,"Delta":252695186},{"NoteNumber":62,"Velocity":40,"Duration":402413,"SoundDuration":402413,"Delta":252695186},{"NoteNumber":65,"Velocity":28,"Duration":100603,"SoundDuration":100603,"Delta":252896393},{"NoteNumber":67,"Velocity":33,"Duration":100603,"SoundDuration":100603,"Delta":252896393},{"NoteNumber":59,"Velocity":38,"Duration":402413,"SoundDuration":402413,"Delta":253097600},{"NoteNumber":65,"Velocity":28,"Duration":100603,"SoundDuration":100603,"Delta":253298807},{"NoteNumber":67,"Velocity":33,"Duration":100603,"SoundDuration":100603,"Delta":253298807},{"NoteNumber":55,"Velocity":38,"Duration":418591,"SoundDuration":418591,"Delta":253500014},{"NoteNumber":67,"Velocity":33,"Duration":106541,"SoundDuration":106541,"Delta":253705521},{"NoteNumber":65,"Velocity":28,"Duration":106541,"SoundDuration":106541,"Delta":253705521},{"NoteNumber":67,"Velocity":40,"Duration":101310,"SoundDuration":101310,"Delta":253918605},{"NoteNumber":63,"Velocity":34,"Duration":101310,"SoundDuration":101310,"Delta":253918605},{"NoteNumber":48,"Velocity":40,"Duration":405240,"SoundDuration":405240,"Delta":253918605},{"NoteNumber":67,"Velocity":34,"Duration":101310,"SoundDuration":101310,"Delta":254121225},{"NoteNumber":63,"Velocity":28,"Duration":101310,"SoundDuration":101310,"Delta":254121225},{"NoteNumber":51,"Velocity":40,"Duration":408107,"SoundDuration":408107,"Delta":254323846},{"NoteNumber":67,"Velocity":34,"Duration":102026,"SoundDuration":102026,"Delta":254527900},{"NoteNumber":63,"Velocity":28,"Duration":102026,"SoundDuration":102026,"Delta":254527900},{"NoteNumber":48,"Velocity":37,"Duration":415575,"SoundDuration":415575,"Delta":254731954},{"NoteNumber":67,"Velocity":34,"Duration":105760,"SoundDuration":105760,"Delta":254936008},{"NoteNumber":63,"Velocity":28,"Duration":105760,"SoundDuration":105760,"Delta":254936008},{"NoteNumber":65,"Velocity":34,"Duration":100603,"SoundDuration":100603,"Delta":255147529},{"NoteNumber":67,"Velocity":40,"Duration":100603,"SoundDuration":100603,"Delta":255147529},{"NoteNumber":50,"Velocity":40,"Duration":402413,"SoundDuration":402413,"Delta":255147529},{"NoteNumber":65,"Velocity":28,"Duration":100603,"SoundDuration":100603,"Delta":255348736},{"NoteNumber":67,"Velocity":33,"Duration":100603,"SoundDuration":100603,"Delta":255348736},{"NoteNumber":47,"Velocity":38,"Duration":405240,"SoundDuration":405240,"Delta":255549943},{"NoteNumber":65,"Velocity":28,"Duration":101310,"SoundDuration":101310,"Delta":255752563},{"NoteNumber":67,"Velocity":33,"Duration":101310,"SoundDuration":101310,"Delta":255752563},{"NoteNumber":43,"Velocity":38,"Duration":415703,"SoundDuration":415703,"Delta":255955184},{"NoteNumber":65,"Velocity":23,"Duration":106541,"SoundDuration":106541,"Delta":256157804},{"NoteNumber":67,"Velocity":33,"Duration":106541,"SoundDuration":106541,"Delta":256157804},{"NoteNumber":63,"Velocity":53,"Duration":100603,"SoundDuration":100603,"Delta":256370888},{"NoteNumber":67,"Velocity":63,"Duration":100603,"SoundDuration":100603,"Delta":256370888},{"NoteNumber":48,"Velocity":69,"Duration":405260,"SoundDuration":405260,"Delta":256370888},{"NoteNumber":36,"Velocity":58,"Duration":405260,"SoundDuration":405260,"Delta":256370888},{"NoteNumber":67,"Velocity":50,"Duration":102027,"SoundDuration":102027,"Delta":256572095},{"NoteNumber":63,"Velocity":42,"Duration":102027,"SoundDuration":102027,"Delta":256572095},{"NoteNumber":60,"Velocity":40,"Duration":408108,"SoundDuration":408108,"Delta":256776149},{"NoteNumber":67,"Velocity":33,"Duration":102027,"SoundDuration":102027,"Delta":256980203},{"NoteNumber":63,"Velocity":28,"Duration":102027,"SoundDuration":102027,"Delta":256980203},{"NoteNumber":48,"Velocity":40,"Duration":412531,"SoundDuration":412531,"Delta":257184257},{"NoteNumber":63,"Velocity":28,"Duration":104239,"SoundDuration":104239,"Delta":257388311},{"NoteNumber":67,"Velocity":33,"Duration":104239,"SoundDuration":104239,"Delta":257388311},{"NoteNumber":63,"Velocity":53,"Duration":99114,"SoundDuration":99114,"Delta":257596789},{"NoteNumber":60,"Velocity":53,"Duration":99114,"SoundDuration":99114,"Delta":257596789},{"NoteNumber":66,"Velocity":63,"Duration":99114,"SoundDuration":99114,"Delta":257596789},{"NoteNumber":45,"Velocity":69,"Duration":402283,"SoundDuration":402283,"Delta":257596789},{"NoteNumber":33,"Velocity":58,"Duration":402283,"SoundDuration":402283,"Delta":257596789},{"NoteNumber":63,"Velocity":42,"Duration":102027,"SoundDuration":102027,"Delta":257795018},{"NoteNumber":60,"Velocity":42,"Duration":102027,"SoundDuration":102027,"Delta":257795018},{"NoteNumber":66,"Velocity":50,"Duration":102027,"SoundDuration":102027,"Delta":257795018},{"NoteNumber":57,"Velocity":40,"Duration":408108,"SoundDuration":408108,"Delta":257999072},{"NoteNumber":66,"Velocity":33,"Duration":102027,"SoundDuration":102027,"Delta":258203126},{"NoteNumber":63,"Velocity":28,"Duration":102027,"SoundDuration":102027,"Delta":258203126},{"NoteNumber":60,"Velocity":28,"Duration":102027,"SoundDuration":102027,"Delta":258203126},{"NoteNumber":45,"Velocity":40,"Duration":412531,"SoundDuration":412531,"Delta":258407180},{"NoteNumber":60,"Velocity":28,"Duration":104239,"SoundDuration":104239,"Delta":258611234},{"NoteNumber":63,"Velocity":28,"Duration":104239,"SoundDuration":104239,"Delta":258611234},{"NoteNumber":66,"Velocity":33,"Duration":104239,"SoundDuration":104239,"Delta":258611234},{"NoteNumber":62,"Velocity":53,"Duration":99225,"SoundDuration":99225,"Delta":258819712},{"NoteNumber":67,"Velocity":63,"Duration":99225,"SoundDuration":99225,"Delta":258819712},{"NoteNumber":34,"Velocity":58,"Duration":402505,"SoundDuration":402505,"Delta":258819712},{"NoteNumber":46,"Velocity":69,"Duration":402505,"SoundDuration":402505,"Delta":258819712},{"NoteNumber":67,"Velocity":50,"Duration":102027,"SoundDuration":102027,"Delta":259018164},{"NoteNumber":62,"Velocity":42,"Duration":102027,"SoundDuration":102027,"Delta":259018164},{"NoteNumber":58,"Velocity":40,"Duration":404804,"SoundDuration":404804,"Delta":259222218},{"NoteNumber":67,"Velocity":33,"Duration":101201,"SoundDuration":101201,"Delta":259424620},{"NoteNumber":62,"Velocity":28,"Duration":101201,"SoundDuration":101201,"Delta":259424620},{"NoteNumber":46,"Velocity":40,"Duration":410799,"SoundDuration":410799,"Delta":259627022},{"NoteNumber":62,"Velocity":28,"Duration":103491,"SoundDuration":103491,"Delta":259830840},{"NoteNumber":67,"Velocity":33,"Duration":103491,"SoundDuration":103491,"Delta":259830840},{"NoteNumber":69,"Velocity":53,"Duration":99225,"SoundDuration":99225,"Delta":260037822},{"NoteNumber":62,"Velocity":53,"Duration":99225,"SoundDuration":99225,"Delta":260037822},{"NoteNumber":72,"Velocity":63,"Duration":99225,"SoundDuration":99225,"Delta":260037822},{"NoteNumber":30,"Velocity":58,"Duration":398052,"SoundDuration":398052,"Delta":260037822},{"NoteNumber":42,"Velocity":69,"Duration":398052,"SoundDuration":398052,"Delta":260037822},{"NoteNumber":62,"Velocity":42,"Duration":99800,"SoundDuration":99800,"Delta":260236274},{"NoteNumber":72,"Velocity":50,"Duration":99800,"SoundDuration":99800,"Delta":260236274},{"NoteNumber":69,"Velocity":42,"Duration":99800,"SoundDuration":99800,"Delta":260236274},{"NoteNumber":54,"Velocity":40,"Duration":410536,"SoundDuration":410536,"Delta":260435875},{"NoteNumber":69,"Velocity":28,"Duration":102634,"SoundDuration":102634,"Delta":260641143},{"NoteNumber":72,"Velocity":33,"Duration":102634,"SoundDuration":102634,"Delta":260641143},{"NoteNumber":62,"Velocity":28,"Duration":102634,"SoundDuration":102634,"Delta":260641143},{"NoteNumber":42,"Velocity":40,"Duration":415249,"SoundDuration":415249,"Delta":260846412},{"NoteNumber":72,"Velocity":33,"Duration":104990,"SoundDuration":104990,"Delta":261051680},{"NoteNumber":62,"Velocity":28,"Duration":104990,"SoundDuration":104990,"Delta":261051680},{"NoteNumber":69,"Velocity":28,"Duration":104990,"SoundDuration":104990,"Delta":261051680},{"NoteNumber":70,"Velocity":63,"Duration":99225,"SoundDuration":99225,"Delta":261261661},{"NoteNumber":67,"Velocity":53,"Duration":99225,"SoundDuration":99225,"Delta":261261661},{"NoteNumber":62,"Velocity":53,"Duration":99225,"SoundDuration":99225,"Delta":261261661},{"NoteNumber":43,"Velocity":69,"Duration":402505,"SoundDuration":402505,"Delta":261261661},{"NoteNumber":31,"Velocity":58,"Duration":402505,"SoundDuration":402505,"Delta":261261661},{"NoteNumber":62,"Velocity":42,"Duration":102027,"SoundDuration":102027,"Delta":261460113},{"NoteNumber":67,"Velocity":42,"Duration":102027,"SoundDuration":102027,"Delta":261460113},{"NoteNumber":70,"Velocity":50,"Duration":102027,"SoundDuration":102027,"Delta":261460113},{"NoteNumber":55,"Velocity":40,"Duration":401982,"SoundDuration":401982,"Delta":261664167},{"NoteNumber":62,"Velocity":28,"Duration":100495,"SoundDuration":100495,"Delta":261865159},{"NoteNumber":70,"Velocity":33,"Duration":100495,"SoundDuration":100495,"Delta":261865159},{"NoteNumber":67,"Velocity":28,"Duration":100495,"SoundDuration":100495,"Delta":261865159},{"NoteNumber":43,"Velocity":40,"Duration":413799,"SoundDuration":413799,"Delta":262066150},{"NoteNumber":62,"Velocity":28,"Duration":104990,"SoundDuration":104990,"Delta":262269968},{"NoteNumber":70,"Velocity":33,"Duration":104990,"SoundDuration":104990,"Delta":262269968},{"NoteNumber":67,"Velocity":28,"Duration":104990,"SoundDuration":104990,"Delta":262269968},{"NoteNumber":70,"Velocity":53,"Duration":99225,"SoundDuration":99225,"Delta":262479949},{"NoteNumber":67,"Velocity":53,"Duration":99225,"SoundDuration":99225,"Delta":262479949},{"NoteNumber":73,"Velocity":63,"Duration":99225,"SoundDuration":99225,"Delta":262479949},{"NoteNumber":40,"Velocity":58,"Duration":398052,"SoundDuration":398052,"Delta":262479949},{"NoteNumber":52,"Velocity":69,"Duration":398052,"SoundDuration":398052,"Delta":262479949},{"NoteNumber":70,"Velocity":42,"Duration":99800,"SoundDuration":99800,"Delta":262678401},{"NoteNumber":73,"Velocity":50,"Duration":99800,"SoundDuration":99800,"Delta":262678401},{"NoteNumber":67,"Velocity":42,"Duration":99800,"SoundDuration":99800,"Delta":262678401},{"NoteNumber":64,"Velocity":40,"Duration":404804,"SoundDuration":404804,"Delta":262878002},{"NoteNumber":67,"Velocity":28,"Duration":101201,"SoundDuration":101201,"Delta":263080404},{"NoteNumber":70,"Velocity":28,"Duration":101201,"SoundDuration":101201,"Delta":263080404},{"NoteNumber":73,"Velocity":33,"Duration":101201,"SoundDuration":101201,"Delta":263080404},{"NoteNumber":52,"Velocity":40,"Duration":412383,"SoundDuration":412383,"Delta":263282806},{"NoteNumber":73,"Velocity":33,"Duration":104990,"SoundDuration":104990,"Delta":263485208},{"NoteNumber":70,"Velocity":28,"Duration":104990,"SoundDuration":104990,"Delta":263485208},{"NoteNumber":67,"Velocity":28,"Duration":104990,"SoundDuration":104990,"Delta":263485208},{"NoteNumber":74,"Velocity":63,"Duration":99225,"SoundDuration":99225,"Delta":263695189},{"NoteNumber":69,"Velocity":53,"Duration":99225,"SoundDuration":99225,"Delta":263695189},{"NoteNumber":41,"Velocity":58,"Duration":398052,"SoundDuration":398052,"Delta":263695189},{"NoteNumber":53,"Velocity":69,"Duration":398052,"SoundDuration":398052,"Delta":263695189},{"NoteNumber":69,"Velocity":42,"Duration":99800,"SoundDuration":99800,"Delta":263893641},{"NoteNumber":74,"Velocity":50,"Duration":99800,"SoundDuration":99800,"Delta":263893641},{"NoteNumber":65,"Velocity":40,"Duration":404804,"SoundDuration":404804,"Delta":264093242},{"NoteNumber":69,"Velocity":28,"Duration":101201,"SoundDuration":101201,"Delta":264295644},{"NoteNumber":74,"Velocity":33,"Duration":101201,"SoundDuration":101201,"Delta":264295644},{"NoteNumber":53,"Velocity":40,"Duration":412383,"SoundDuration":412383,"Delta":264498046},{"NoteNumber":69,"Velocity":28,"Duration":104990,"SoundDuration":104990,"Delta":264700448},{"NoteNumber":74,"Velocity":33,"Duration":104990,"SoundDuration":104990,"Delta":264700448},{"NoteNumber":76,"Velocity":53,"Duration":99225,"SoundDuration":99225,"Delta":264910429},{"NoteNumber":69,"Velocity":53,"Duration":99225,"SoundDuration":99225,"Delta":264910429},{"NoteNumber":79,"Velocity":63,"Duration":99225,"SoundDuration":99225,"Delta":264910429},{"NoteNumber":37,"Velocity":58,"Duration":402505,"SoundDuration":402505,"Delta":264910429},{"NoteNumber":49,"Velocity":69,"Duration":402505,"SoundDuration":402505,"Delta":264910429},{"NoteNumber":79,"Velocity":50,"Duration":102027,"SoundDuration":102027,"Delta":265108881},{"NoteNumber":69,"Velocity":42,"Duration":102027,"SoundDuration":102027,"Delta":265108881},{"NoteNumber":76,"Velocity":42,"Duration":102027,"SoundDuration":102027,"Delta":265108881},{"NoteNumber":61,"Velocity":40,"Duration":408108,"SoundDuration":408108,"Delta":265312935},{"NoteNumber":79,"Velocity":33,"Duration":102026,"SoundDuration":102026,"Delta":265516989},{"NoteNumber":76,"Velocity":28,"Duration":102026,"SoundDuration":102026,"Delta":265516989},{"NoteNumber":69,"Velocity":28,"Duration":102026,"SoundDuration":102026,"Delta":265516989},{"NoteNumber":49,"Velocity":40,"Duration":414035,"SoundDuration":414035,"Delta":265721043},{"NoteNumber":76,"Velocity":28,"Duration":104990,"SoundDuration":104990,"Delta":265925097},{"NoteNumber":79,"Velocity":33,"Duration":104990,"SoundDuration":104990,"Delta":265925097},{"NoteNumber":69,"Velocity":28,"Duration":104990,"SoundDuration":104990,"Delta":265925097},{"NoteNumber":74,"Velocity":53,"Duration":99225,"SoundDuration":99225,"Delta":266135078},{"NoteNumber":77,"Velocity":63,"Duration":99225,"SoundDuration":99225,"Delta":266135078},{"NoteNumber":69,"Velocity":53,"Duration":99225,"SoundDuration":99225,"Delta":266135078},{"NoteNumber":50,"Velocity":69,"Duration":402505,"SoundDuration":402505,"Delta":266135078},{"NoteNumber":38,"Velocity":58,"Duration":402505,"SoundDuration":402505,"Delta":266135078},{"NoteNumber":69,"Velocity":42,"Duration":102027,"SoundDuration":102027,"Delta":266333530},{"NoteNumber":77,"Velocity":50,"Duration":102027,"SoundDuration":102027,"Delta":266333530},{"NoteNumber":74,"Velocity":42,"Duration":102027,"SoundDuration":102027,"Delta":266333530},{"NoteNumber":62,"Velocity":40,"Duration":408108,"SoundDuration":408108,"Delta":266537584},{"NoteNumber":77,"Velocity":33,"Duration":102026,"SoundDuration":102026,"Delta":266741638},{"NoteNumber":74,"Velocity":28,"Duration":102026,"SoundDuration":102026,"Delta":266741638},{"NoteNumber":69,"Velocity":28,"Duration":102026,"SoundDuration":102026,"Delta":266741638},{"NoteNumber":50,"Velocity":40,"Duration":421697,"SoundDuration":421697,"Delta":266945692},{"NoteNumber":74,"Velocity":28,"Duration":108821,"SoundDuration":108821,"Delta":267149746},{"NoteNumber":77,"Velocity":33,"Duration":108821,"SoundDuration":108821,"Delta":267149746},{"NoteNumber":69,"Velocity":28,"Duration":108821,"SoundDuration":108821,"Delta":267149746},{"NoteNumber":80,"Velocity":65,"Duration":99225,"SoundDuration":99225,"Delta":267367390},{"NoteNumber":74,"Velocity":53,"Duration":99225,"SoundDuration":99225,"Delta":267367390},{"NoteNumber":46,"Velocity":69,"Duration":402505,"SoundDuration":402505,"Delta":267367390},{"NoteNumber":34,"Velocity":58,"Duration":402505,"SoundDuration":402505,"Delta":267367390},{"NoteNumber":80,"Velocity":54,"Duration":102027,"SoundDuration":102027,"Delta":267565842},{"NoteNumber":74,"Velocity":42,"Duration":102027,"SoundDuration":102027,"Delta":267565842},{"NoteNumber":58,"Velocity":40,"Duration":408108,"SoundDuration":408108,"Delta":267769896},{"NoteNumber":80,"Velocity":33,"Duration":102026,"SoundDuration":102026,"Delta":267973950},{"NoteNumber":74,"Velocity":28,"Duration":102026,"SoundDuration":102026,"Delta":267973950},{"NoteNumber":46,"Velocity":40,"Duration":428453,"SoundDuration":428453,"Delta":268178004},{"NoteNumber":74,"Velocity":28,"Duration":112199,"SoundDuration":112199,"Delta":268382058},{"NoteNumber":80,"Velocity":33,"Duration":112199,"SoundDuration":112199,"Delta":268382058},{"NoteNumber":81,"Velocity":38,"Duration":211521,"SoundDuration":211521,"Delta":268606457},{"NoteNumber":73,"Velocity":32,"Duration":211521,"SoundDuration":211521,"Delta":268606457},{"NoteNumber":45,"Velocity":44,"Duration":415574,"SoundDuration":415574,"Delta":268606457},{"NoteNumber":81,"Velocity":37,"Duration":212556,"SoundDuration":212556,"Delta":268817978},{"NoteNumber":77,"Velocity":31,"Duration":212556,"SoundDuration":212556,"Delta":268817978},{"NoteNumber":76,"Velocity":28,"Duration":212556,"SoundDuration":212556,"Delta":269022032},{"NoteNumber":79,"Velocity":33,"Duration":212556,"SoundDuration":212556,"Delta":269022032},{"NoteNumber":77,"Velocity":31,"Duration":212556,"SoundDuration":212556,"Delta":269226086},{"NoteNumber":74,"Velocity":26,"Duration":212556,"SoundDuration":212556,"Delta":269226086},{"NoteNumber":73,"Velocity":28,"Duration":212932,"SoundDuration":212932,"Delta":269430140},{"NoteNumber":76,"Velocity":33,"Duration":212932,"SoundDuration":212932,"Delta":269430140},{"NoteNumber":77,"Velocity":30,"Duration":221585,"SoundDuration":221585,"Delta":269634194},{"NoteNumber":74,"Velocity":25,"Duration":221585,"SoundDuration":221585,"Delta":269634194},{"NoteNumber":68,"Velocity":38,"Duration":213083,"SoundDuration":213083,"Delta":269634194},{"NoteNumber":73,"Velocity":32,"Duration":204053,"SoundDuration":204053,"Delta":269847278},{"NoteNumber":76,"Velocity":38,"Duration":204053,"SoundDuration":204053,"Delta":269847278},{"NoteNumber":69,"Velocity":41,"Duration":407871,"SoundDuration":407871,"Delta":269847278},{"NoteNumber":69,"Velocity":37,"Duration":212310,"SoundDuration":212310,"Delta":270051332},{"NoteNumber":65,"Velocity":31,"Duration":212310,"SoundDuration":212310,"Delta":270051332},{"NoteNumber":67,"Velocity":33,"Duration":212310,"SoundDuration":212310,"Delta":270255150},{"NoteNumber":64,"Velocity":28,"Duration":212310,"SoundDuration":212310,"Delta":270255150},{"NoteNumber":62,"Velocity":26,"Duration":212310,"SoundDuration":212310,"Delta":270458968},{"NoteNumber":65,"Velocity":31,"Duration":212310,"SoundDuration":212310,"Delta":270458968},{"NoteNumber":64,"Velocity":33,"Duration":212631,"SoundDuration":212631,"Delta":270662786},{"NoteNumber":61,"Velocity":28,"Duration":212631,"SoundDuration":212631,"Delta":270662786},{"NoteNumber":65,"Velocity":30,"Duration":219846,"SoundDuration":219846,"Delta":270866604},{"NoteNumber":62,"Velocity":25,"Duration":219846,"SoundDuration":219846,"Delta":270866604},{"NoteNumber":56,"Velocity":32,"Duration":219846,"SoundDuration":219846,"Delta":270866604},{"NoteNumber":61,"Velocity":31,"Duration":208197,"SoundDuration":208197,"Delta":271078125},{"NoteNumber":64,"Velocity":37,"Duration":208197,"SoundDuration":208197,"Delta":271078125},{"NoteNumber":57,"Velocity":39,"Duration":208197,"SoundDuration":208197,"Delta":271078125},{"NoteNumber":65,"Velocity":32,"Duration":209532,"SoundDuration":209532,"Delta":271277938},{"NoteNumber":62,"Velocity":27,"Duration":209532,"SoundDuration":209532,"Delta":271277938},{"NoteNumber":56,"Velocity":35,"Duration":209532,"SoundDuration":209532,"Delta":271277938},{"NoteNumber":61,"Velocity":31,"Duration":208197,"SoundDuration":208197,"Delta":271479145},{"NoteNumber":64,"Velocity":37,"Duration":208197,"SoundDuration":208197,"Delta":271479145},{"NoteNumber":57,"Velocity":39,"Duration":208197,"SoundDuration":208197,"Delta":271479145},{"NoteNumber":65,"Velocity":34,"Duration":209475,"SoundDuration":209475,"Delta":271678959},{"NoteNumber":62,"Velocity":28,"Duration":209475,"SoundDuration":209475,"Delta":271678959},{"NoteNumber":56,"Velocity":31,"Duration":209475,"SoundDuration":209475,"Delta":271678959},{"NoteNumber":61,"Velocity":31,"Duration":206777,"SoundDuration":206777,"Delta":271880166},{"NoteNumber":64,"Velocity":37,"Duration":206777,"SoundDuration":206777,"Delta":271880166},{"NoteNumber":57,"Velocity":39,"Duration":206777,"SoundDuration":206777,"Delta":271880166},{"NoteNumber":62,"Velocity":28,"Duration":199813,"SoundDuration":199813,"Delta":272078618},{"NoteNumber":65,"Velocity":34,"Duration":199813,"SoundDuration":199813,"Delta":272078618},{"NoteNumber":56,"Velocity":32,"Duration":208082,"SoundDuration":208082,"Delta":272078618},{"NoteNumber":64,"Velocity":37,"Duration":396904,"SoundDuration":396904,"Delta":272278431},{"NoteNumber":61,"Velocity":31,"Duration":396904,"SoundDuration":396904,"Delta":272278431},{"NoteNumber":57,"Velocity":39,"Duration":396904,"SoundDuration":396904,"Delta":272278431},{"NoteNumber":60,"Velocity":24,"Duration":205309,"SoundDuration":205309,"Delta":273476945},{"NoteNumber":64,"Velocity":29,"Duration":205309,"SoundDuration":205309,"Delta":273476945},{"NoteNumber":57,"Velocity":31,"Duration":205309,"SoundDuration":205309,"Delta":273476945},{"NoteNumber":65,"Velocity":25,"Duration":210661,"SoundDuration":210661,"Delta":273673821},{"NoteNumber":62,"Velocity":21,"Duration":210661,"SoundDuration":210661,"Delta":273673821},{"NoteNumber":56,"Velocity":28,"Duration":210661,"SoundDuration":210661,"Delta":273673821},{"NoteNumber":64,"Velocity":29,"Duration":206497,"SoundDuration":206497,"Delta":273876223},{"NoteNumber":60,"Velocity":24,"Duration":206497,"SoundDuration":206497,"Delta":273876223},{"NoteNumber":57,"Velocity":31,"Duration":206497,"SoundDuration":206497,"Delta":273876223},{"NoteNumber":62,"Velocity":22,"Duration":206768,"SoundDuration":206768,"Delta":274074452},{"NoteNumber":65,"Velocity":27,"Duration":206768,"SoundDuration":206768,"Delta":274074452},{"NoteNumber":56,"Velocity":24,"Duration":206768,"SoundDuration":206768,"Delta":274074452},{"NoteNumber":64,"Velocity":29,"Duration":208153,"SoundDuration":208153,"Delta":274272904},{"NoteNumber":60,"Velocity":24,"Duration":208153,"SoundDuration":208153,"Delta":274272904},{"NoteNumber":57,"Velocity":31,"Duration":208153,"SoundDuration":208153,"Delta":274272904},{"NoteNumber":65,"Velocity":27,"Duration":213480,"SoundDuration":213480,"Delta":274472505},{"NoteNumber":62,"Velocity":22,"Duration":213480,"SoundDuration":213480,"Delta":274472505},{"NoteNumber":56,"Velocity":25,"Duration":213480,"SoundDuration":213480,"Delta":274472505},{"NoteNumber":60,"Velocity":31,"Duration":394191,"SoundDuration":394191,"Delta":274677774},{"NoteNumber":64,"Velocity":29,"Duration":394191,"SoundDuration":394191,"Delta":274677774},{"NoteNumber":57,"Velocity":31,"Duration":394191,"SoundDuration":394191,"Delta":274677774},{"NoteNumber":58,"Velocity":49,"Duration":1582048,"SoundDuration":1582048,"Delta":275860350},{"NoteNumber":60,"Velocity":49,"Duration":1582048,"SoundDuration":1582048,"Delta":275860350},{"NoteNumber":64,"Velocity":59,"Duration":206612,"SoundDuration":206612,"Delta":275860350},{"NoteNumber":55,"Velocity":63,"Duration":206612,"SoundDuration":206612,"Delta":275860350},{"NoteNumber":65,"Velocity":51,"Duration":209363,"SoundDuration":209363,"Delta":276058579},{"NoteNumber":57,"Velocity":57,"Duration":209363,"SoundDuration":209363,"Delta":276058579},{"NoteNumber":64,"Velocity":59,"Duration":204027,"SoundDuration":204027,"Delta":276259786},{"NoteNumber":55,"Velocity":63,"Duration":204027,"SoundDuration":204027,"Delta":276259786},{"NoteNumber":65,"Velocity":55,"Duration":206608,"SoundDuration":206608,"Delta":276455544},{"NoteNumber":57,"Velocity":49,"Duration":206608,"SoundDuration":206608,"Delta":276455544},{"NoteNumber":64,"Velocity":59,"Duration":204027,"SoundDuration":204027,"Delta":276653996},{"NoteNumber":55,"Velocity":63,"Duration":204027,"SoundDuration":204027,"Delta":276653996},{"NoteNumber":65,"Velocity":55,"Duration":206664,"SoundDuration":206664,"Delta":276849755},{"NoteNumber":57,"Velocity":51,"Duration":206664,"SoundDuration":206664,"Delta":276849755},{"NoteNumber":64,"Velocity":59,"Duration":394191,"SoundDuration":394191,"Delta":277048207},{"NoteNumber":55,"Velocity":63,"Duration":394191,"SoundDuration":394191,"Delta":277048207},{"NoteNumber":76,"Velocity":31,"Duration":1657886,"SoundDuration":1657886,"Delta":278230783},{"NoteNumber":82,"Velocity":37,"Duration":211141,"SoundDuration":211141,"Delta":278230783},{"NoteNumber":60,"Velocity":29,"Duration":1657886,"SoundDuration":1657886,"Delta":278230783},{"NoteNumber":67,"Velocity":39,"Duration":211141,"SoundDuration":211141,"Delta":278230783},{"NoteNumber":81,"Velocity":32,"Duration":218298,"SoundDuration":218298,"Delta":278433185},{"NoteNumber":66,"Velocity":35,"Duration":218298,"SoundDuration":218298,"Delta":278433185},{"NoteNumber":82,"Velocity":37,"Duration":214136,"SoundDuration":214136,"Delta":278642931},{"NoteNumber":67,"Velocity":39,"Duration":214136,"SoundDuration":214136,"Delta":278642931},{"NoteNumber":81,"Velocity":34,"Duration":221580,"SoundDuration":221580,"Delta":278848199},{"NoteNumber":66,"Velocity":31,"Duration":221580,"SoundDuration":221580,"Delta":278848199},{"NoteNumber":82,"Velocity":37,"Duration":218953,"SoundDuration":218953,"Delta":279061041},{"NoteNumber":67,"Velocity":39,"Duration":218953,"SoundDuration":218953,"Delta":279061041},{"NoteNumber":81,"Velocity":34,"Duration":220978,"SoundDuration":220978,"Delta":279270787},{"NoteNumber":66,"Velocity":32,"Duration":229246,"SoundDuration":229246,"Delta":279270787},{"NoteNumber":82,"Velocity":37,"Duration":396904,"SoundDuration":396904,"Delta":279491765},{"NoteNumber":67,"Velocity":39,"Duration":396904,"SoundDuration":396904,"Delta":279491765},{"NoteNumber":65,"Velocity":50,"Duration":821856,"SoundDuration":821856,"Delta":280687923},{"NoteNumber":53,"Velocity":40,"Duration":211521,"SoundDuration":211521,"Delta":280687923},{"NoteNumber":57,"Velocity":30,"Duration":203444,"SoundDuration":203444,"Delta":280899444},{"NoteNumber":60,"Velocity":33,"Duration":203444,"SoundDuration":203444,"Delta":281102889},{"NoteNumber":57,"Velocity":30,"Duration":203445,"SoundDuration":203445,"Delta":281306334},{"NoteNumber":69,"Velocity":47,"Duration":416664,"SoundDuration":416664,"Delta":281509779},{"NoteNumber":60,"Velocity":34,"Duration":203444,"SoundDuration":203444,"Delta":281509779},{"NoteNumber":57,"Velocity":30,"Duration":213219,"SoundDuration":213219,"Delta":281713224},{"NoteNumber":72,"Velocity":52,"Duration":816946,"SoundDuration":816946,"Delta":281926443},{"NoteNumber":53,"Velocity":40,"Duration":206611,"SoundDuration":206611,"Delta":281926443},{"NoteNumber":60,"Velocity":29,"Duration":203444,"SoundDuration":203444,"Delta":282133055},{"NoteNumber":63,"Velocity":31,"Duration":203444,"SoundDuration":203444,"Delta":282336500},{"NoteNumber":60,"Velocity":27,"Duration":203445,"SoundDuration":203445,"Delta":282539945},{"NoteNumber":69,"Velocity":46,"Duration":414965,"SoundDuration":414965,"Delta":282743390},{"NoteNumber":63,"Velocity":31,"Duration":203444,"SoundDuration":203444,"Delta":282743390},{"NoteNumber":60,"Velocity":28,"Duration":211521,"SoundDuration":211521,"Delta":282946835},{"NoteNumber":70,"Velocity":50,"Duration":826445,"SoundDuration":826445,"Delta":283158356},{"NoteNumber":53,"Velocity":40,"Duration":206611,"SoundDuration":206611,"Delta":283158356},{"NoteNumber":58,"Velocity":30,"Duration":206611,"SoundDuration":206611,"Delta":283364967},{"NoteNumber":62,"Velocity":33,"Duration":206611,"SoundDuration":206611,"Delta":283571579},{"NoteNumber":58,"Velocity":30,"Duration":206611,"SoundDuration":206611,"Delta":283778190},{"NoteNumber":79,"Velocity":47,"Duration":419727,"SoundDuration":419727,"Delta":283984802},{"NoteNumber":62,"Velocity":33,"Duration":209863,"SoundDuration":209863,"Delta":283984802},{"NoteNumber":58,"Velocity":30,"Duration":209863,"SoundDuration":209863,"Delta":284194665},{"NoteNumber":77,"Velocity":47,"Duration":203444,"SoundDuration":203444,"Delta":284404529},{"NoteNumber":53,"Velocity":40,"Duration":203444,"SoundDuration":203444,"Delta":284404529},{"NoteNumber":76,"Velocity":44,"Duration":207240,"SoundDuration":207240,"Delta":284607974},{"NoteNumber":55,"Velocity":23,"Duration":209863,"SoundDuration":209863,"Delta":284607974},{"NoteNumber":76,"Velocity":44,"Duration":419727,"SoundDuration":419727,"Delta":284817837},{"NoteNumber":58,"Velocity":28,"Duration":209863,"SoundDuration":209863,"Delta":284817837},{"NoteNumber":55,"Velocity":24,"Duration":209863,"SoundDuration":209863,"Delta":285027701},{"NoteNumber":58,"Velocity":29,"Duration":208232,"SoundDuration":208232,"Delta":285237564},{"NoteNumber":55,"Velocity":24,"Duration":214945,"SoundDuration":214945,"Delta":285445796},{"NoteNumber":77,"Velocity":50,"Duration":419753,"SoundDuration":419753,"Delta":285660742},{"NoteNumber":53,"Velocity":30,"Duration":419753,"SoundDuration":419753,"Delta":285660742},{"NoteNumber":57,"Velocity":30,"Duration":419753,"SoundDuration":419753,"Delta":285660742},{"NoteNumber":69,"Velocity":46,"Duration":416463,"SoundDuration":416463,"Delta":286080495},{"NoteNumber":74,"Velocity":46,"Duration":419753,"SoundDuration":419753,"Delta":286496959},{"NoteNumber":67,"Velocity":50,"Duration":423042,"SoundDuration":423042,"Delta":286916712},{"NoteNumber":72,"Velocity":54,"Duration":629683,"SoundDuration":629683,"Delta":287339754},{"NoteNumber":69,"Velocity":45,"Duration":213219,"SoundDuration":213219,"Delta":287969438},{"NoteNumber":65,"Velocity":50,"Duration":1665856,"SoundDuration":1665856,"Delta":288182657},{"NoteNumber":53,"Velocity":47,"Duration":416464,"SoundDuration":416464,"Delta":288182657},{"NoteNumber":45,"Velocity":44,"Duration":416463,"SoundDuration":416463,"Delta":288599121},{"NoteNumber":50,"Velocity":48,"Duration":416464,"SoundDuration":416464,"Delta":289015585},{"NoteNumber":67,"Velocity":50,"Duration":1255969,"SoundDuration":1255969,"Delta":289432049},{"NoteNumber":43,"Velocity":48,"Duration":416464,"SoundDuration":416464,"Delta":289432049},{"NoteNumber":64,"Velocity":42,"Duration":52057,"SoundDuration":52057,"Delta":289848513},{"NoteNumber":48,"Velocity":49,"Duration":627984,"SoundDuration":627984,"Delta":289848513},{"NoteNumber":65,"Velocity":37,"Duration":52057,"SoundDuration":52057,"Delta":289900571},{"NoteNumber":64,"Velocity":48,"Duration":104115,"SoundDuration":104115,"Delta":289952629},{"NoteNumber":62,"Velocity":48,"Duration":208232,"SoundDuration":208232,"Delta":290056745},{"NoteNumber":64,"Velocity":50,"Duration":423042,"SoundDuration":423042,"Delta":290264977},{"NoteNumber":45,"Velocity":47,"Duration":211521,"SoundDuration":211521,"Delta":290476498},{"NoteNumber":69,"Velocity":48,"Duration":419727,"SoundDuration":419727,"Delta":290688019},{"NoteNumber":65,"Velocity":48,"Duration":1654726,"SoundDuration":1654726,"Delta":290688019},{"NoteNumber":41,"Velocity":52,"Duration":419727,"SoundDuration":419727,"Delta":290688019},{"NoteNumber":70,"Velocity":52,"Duration":410059,"SoundDuration":410059,"Delta":291107746},{"NoteNumber":50,"Velocity":40,"Duration":410059,"SoundDuration":410059,"Delta":291107746},{"NoteNumber":74,"Velocity":55,"Duration":412993,"SoundDuration":412993,"Delta":291517806},{"NoteNumber":46,"Velocity":44,"Duration":416464,"SoundDuration":416464,"Delta":291517806},{"NoteNumber":74,"Velocity":58,"Duration":205030,"SoundDuration":205030,"Delta":291934270},{"NoteNumber":45,"Velocity":47,"Duration":408475,"SoundDuration":408475,"Delta":291934270},{"NoteNumber":72,"Velocity":57,"Duration":203444,"SoundDuration":203444,"Delta":292139300},{"NoteNumber":70,"Velocity":56,"Duration":203444,"SoundDuration":203444,"Delta":292342745},{"NoteNumber":69,"Velocity":54,"Duration":203445,"SoundDuration":203445,"Delta":292546190},{"NoteNumber":67,"Velocity":53,"Duration":203444,"SoundDuration":203444,"Delta":292749635},{"NoteNumber":50,"Velocity":40,"Duration":410056,"SoundDuration":410056,"Delta":292749635},{"NoteNumber":65,"Velocity":51,"Duration":206611,"SoundDuration":206611,"Delta":292953080},{"NoteNumber":67,"Velocity":54,"Duration":403822,"SoundDuration":403822,"Delta":293159692},{"NoteNumber":46,"Velocity":40,"Duration":403822,"SoundDuration":403822,"Delta":293159692},{"NoteNumber":70,"Velocity":50,"Duration":104931,"SoundDuration":104931,"Delta":293563515},{"NoteNumber":58,"Velocity":54,"Duration":426439,"SoundDuration":426439,"Delta":293983242},{"NoteNumber":64,"Velocity":54,"Duration":426439,"SoundDuration":426439,"Delta":293983242},{"NoteNumber":48,"Velocity":41,"Duration":426439,"SoundDuration":426439,"Delta":293983242},{"NoteNumber":65,"Velocity":56,"Duration":416464,"SoundDuration":416464,"Delta":294409681},{"NoteNumber":57,"Velocity":56,"Duration":416464,"SoundDuration":416464,"Delta":294409681},{"NoteNumber":41,"Velocity":43,"Duration":416464,"SoundDuration":416464,"Delta":294409681},{"NoteNumber":84,"Velocity":50,"Duration":312348,"SoundDuration":312348,"Delta":295242609},{"NoteNumber":72,"Velocity":40,"Duration":312348,"SoundDuration":312348,"Delta":295242609},{"NoteNumber":69,"Velocity":32,"Duration":312348,"SoundDuration":312348,"Delta":295242609},{"NoteNumber":82,"Velocity":44,"Duration":108350,"SoundDuration":108350,"Delta":295554957},{"NoteNumber":67,"Velocity":28,"Duration":108350,"SoundDuration":108350,"Delta":295554957},{"NoteNumber":70,"Velocity":35,"Duration":108350,"SoundDuration":108350,"Delta":295554957},{"NoteNumber":81,"Velocity":50,"Duration":104115,"SoundDuration":104115,"Delta":295663307},{"NoteNumber":69,"Velocity":40,"Duration":104115,"SoundDuration":104115,"Delta":295663307},{"NoteNumber":65,"Velocity":32,"Duration":104115,"SoundDuration":104115,"Delta":295663307},{"NoteNumber":81,"Velocity":50,"Duration":104115,"SoundDuration":104115,"Delta":296079771},{"NoteNumber":65,"Velocity":32,"Duration":104115,"SoundDuration":104115,"Delta":296079771},{"NoteNumber":69,"Velocity":40,"Duration":104115,"SoundDuration":104115,"Delta":296079771},{"NoteNumber":81,"Velocity":47,"Duration":312347,"SoundDuration":312347,"Delta":296500469},{"NoteNumber":65,"Velocity":29,"Duration":312347,"SoundDuration":312347,"Delta":296500469},{"NoteNumber":69,"Velocity":37,"Duration":312347,"SoundDuration":312347,"Delta":296500469},{"NoteNumber":79,"Velocity":42,"Duration":104116,"SoundDuration":104116,"Delta":296812817},{"NoteNumber":67,"Velocity":33,"Duration":104116,"SoundDuration":104116,"Delta":296812817},{"NoteNumber":60,"Velocity":26,"Duration":104116,"SoundDuration":104116,"Delta":296812817},{"NoteNumber":77,"Velocity":48,"Duration":104115,"SoundDuration":104115,"Delta":296916933},{"NoteNumber":65,"Velocity":38,"Duration":104115,"SoundDuration":104115,"Delta":296916933},{"NoteNumber":57,"Velocity":30,"Duration":104115,"SoundDuration":104115,"Delta":296916933},{"NoteNumber":77,"Velocity":44,"Duration":104116,"SoundDuration":104116,"Delta":297333397},{"NoteNumber":65,"Velocity":35,"Duration":104116,"SoundDuration":104116,"Delta":297333397},{"NoteNumber":57,"Velocity":28,"Duration":104116,"SoundDuration":104116,"Delta":297333397},{"NoteNumber":77,"Velocity":44,"Duration":416464,"SoundDuration":416464,"Delta":297753150},{"NoteNumber":65,"Velocity":35,"Duration":416464,"SoundDuration":416464,"Delta":297753150},{"NoteNumber":57,"Velocity":28,"Duration":416464,"SoundDuration":416464,"Delta":297753150},{"NoteNumber":76,"Velocity":46,"Duration":104115,"SoundDuration":104115,"Delta":298169614},{"NoteNumber":79,"Velocity":46,"Duration":104115,"SoundDuration":104115,"Delta":298169614},{"NoteNumber":60,"Velocity":28,"Duration":104115,"SoundDuration":104115,"Delta":298169614},{"NoteNumber":67,"Velocity":36,"Duration":104115,"SoundDuration":104115,"Delta":298169614},{"NoteNumber":76,"Velocity":44,"Duration":104116,"SoundDuration":104116,"Delta":298586078},{"NoteNumber":79,"Velocity":44,"Duration":104116,"SoundDuration":104116,"Delta":298586078},{"NoteNumber":67,"Velocity":35,"Duration":104116,"SoundDuration":104116,"Delta":298586078},{"NoteNumber":60,"Velocity":28,"Duration":104116,"SoundDuration":104116,"Delta":298586078},{"NoteNumber":79,"Velocity":44,"Duration":105760,"SoundDuration":105760,"Delta":299002542},{"NoteNumber":76,"Velocity":44,"Duration":105760,"SoundDuration":105760,"Delta":299002542},{"NoteNumber":60,"Velocity":28,"Duration":105760,"SoundDuration":105760,"Delta":299002542},{"NoteNumber":67,"Velocity":35,"Duration":105760,"SoundDuration":105760,"Delta":299002542},{"NoteNumber":76,"Velocity":50,"Duration":416464,"SoundDuration":416464,"Delta":299425584},{"NoteNumber":79,"Velocity":50,"Duration":416464,"SoundDuration":416464,"Delta":299425584},{"NoteNumber":67,"Velocity":40,"Duration":416464,"SoundDuration":416464,"Delta":299425584},{"NoteNumber":60,"Velocity":32,"Duration":416464,"SoundDuration":416464,"Delta":299425584},{"NoteNumber":81,"Velocity":44,"Duration":425682,"SoundDuration":425682,"Delta":299842048},{"NoteNumber":77,"Velocity":44,"Duration":425682,"SoundDuration":425682,"Delta":299842048},{"NoteNumber":69,"Velocity":35,"Duration":425682,"SoundDuration":425682,"Delta":299842048},{"NoteNumber":65,"Velocity":28,"Duration":425682,"SoundDuration":425682,"Delta":299842048},{"NoteNumber":84,"Velocity":50,"Duration":97112,"SoundDuration":97112,"Delta":300267731},{"NoteNumber":72,"Velocity":40,"Duration":291337,"SoundDuration":291337,"Delta":300267731},{"NoteNumber":69,"Velocity":32,"Duration":291337,"SoundDuration":291337,"Delta":300267731},{"NoteNumber":86,"Velocity":44,"Duration":97112,"SoundDuration":97112,"Delta":300364844},{"NoteNumber":84,"Velocity":44,"Duration":97112,"SoundDuration":97112,"Delta":300461956},{"NoteNumber":82,"Velocity":44,"Duration":97112,"SoundDuration":97112,"Delta":300559069},{"NoteNumber":70,"Velocity":35,"Duration":97112,"SoundDuration":97112,"Delta":300559069},{"NoteNumber":67,"Velocity":28,"Duration":97112,"SoundDuration":97112,"Delta":300559069},{"NoteNumber":81,"Velocity":50,"Duration":104115,"SoundDuration":104115,"Delta":300656181},{"NoteNumber":65,"Velocity":32,"Duration":104115,"SoundDuration":104115,"Delta":300656181},{"NoteNumber":69,"Velocity":40,"Duration":104115,"SoundDuration":104115,"Delta":300656181},{"NoteNumber":81,"Velocity":50,"Duration":104115,"SoundDuration":104115,"Delta":301072645},{"NoteNumber":65,"Velocity":32,"Duration":104115,"SoundDuration":104115,"Delta":301072645},{"NoteNumber":69,"Velocity":40,"Duration":104115,"SoundDuration":104115,"Delta":301072645},{"NoteNumber":81,"Velocity":47,"Duration":96469,"SoundDuration":96469,"Delta":301489109},{"NoteNumber":69,"Velocity":37,"Duration":289407,"SoundDuration":289407,"Delta":301489109},{"NoteNumber":65,"Velocity":29,"Duration":289407,"SoundDuration":289407,"Delta":301489109},{"NoteNumber":82,"Velocity":42,"Duration":96469,"SoundDuration":96469,"Delta":301585579},{"NoteNumber":81,"Velocity":42,"Duration":96469,"SoundDuration":96469,"Delta":301682048},{"NoteNumber":79,"Velocity":42,"Duration":96469,"SoundDuration":96469,"Delta":301778517},{"NoteNumber":67,"Velocity":33,"Duration":96469,"SoundDuration":96469,"Delta":301778517},{"NoteNumber":60,"Velocity":26,"Duration":96469,"SoundDuration":96469,"Delta":301778517},{"NoteNumber":77,"Velocity":48,"Duration":104115,"SoundDuration":104115,"Delta":301874986},{"NoteNumber":65,"Velocity":38,"Duration":104115,"SoundDuration":104115,"Delta":301874986},{"NoteNumber":57,"Velocity":30,"Duration":104115,"SoundDuration":104115,"Delta":301874986},{"NoteNumber":77,"Velocity":44,"Duration":104115,"SoundDuration":104115,"Delta":302291450},{"NoteNumber":57,"Velocity":28,"Duration":104115,"SoundDuration":104115,"Delta":302291450},{"NoteNumber":65,"Velocity":35,"Duration":104115,"SoundDuration":104115,"Delta":302291450},{"NoteNumber":77,"Velocity":44,"Duration":104116,"SoundDuration":104116,"Delta":302707914},{"NoteNumber":57,"Velocity":28,"Duration":104116,"SoundDuration":104116,"Delta":302707914},{"NoteNumber":65,"Velocity":35,"Duration":104116,"SoundDuration":104116,"Delta":302707914},{"NoteNumber":79,"Velocity":49,"Duration":410059,"SoundDuration":410059,"Delta":303124378},{"NoteNumber":67,"Velocity":37,"Duration":410059,"SoundDuration":410059,"Delta":303124378},{"NoteNumber":60,"Velocity":29,"Duration":410059,"SoundDuration":410059,"Delta":303124378},{"NoteNumber":82,"Velocity":44,"Duration":109234,"SoundDuration":109234,"Delta":303534438},{"NoteNumber":76,"Velocity":44,"Duration":423042,"SoundDuration":423042,"Delta":303971374},{"NoteNumber":70,"Velocity":35,"Duration":423042,"SoundDuration":423042,"Delta":303971374},{"NoteNumber":60,"Velocity":28,"Duration":423042,"SoundDuration":423042,"Delta":303971374},{"NoteNumber":67,"Velocity":35,"Duration":423042,"SoundDuration":423042,"Delta":303971374},{"NoteNumber":69,"Velocity":38,"Duration":423042,"SoundDuration":423042,"Delta":304394416},{"NoteNumber":77,"Velocity":48,"Duration":423042,"SoundDuration":423042,"Delta":304394416},{"NoteNumber":65,"Velocity":39,"Duration":423042,"SoundDuration":423042,"Delta":304394416},{"NoteNumber":84,"Velocity":44,"Duration":423042,"SoundDuration":423042,"Delta":305240500},{"NoteNumber":70,"Velocity":35,"Duration":423042,"SoundDuration":423042,"Delta":305240500},{"NoteNumber":60,"Velocity":28,"Duration":423042,"SoundDuration":423042,"Delta":305240500},{"NoteNumber":64,"Velocity":28,"Duration":423042,"SoundDuration":423042,"Delta":305240500},{"NoteNumber":77,"Velocity":48,"Duration":423042,"SoundDuration":423042,"Delta":305663542},{"NoteNumber":69,"Velocity":39,"Duration":423042,"SoundDuration":423042,"Delta":305663542},{"NoteNumber":65,"Velocity":31,"Duration":423042,"SoundDuration":423042,"Delta":305663542},{"NoteNumber":72,"Velocity":39,"Duration":423042,"SoundDuration":423042,"Delta":306509626},{"NoteNumber":58,"Velocity":31,"Duration":423042,"SoundDuration":423042,"Delta":306509626},{"NoteNumber":52,"Velocity":25,"Duration":423042,"SoundDuration":423042,"Delta":306509626},{"NoteNumber":48,"Velocity":25,"Duration":423042,"SoundDuration":423042,"Delta":306509626},{"NoteNumber":65,"Velocity":43,"Duration":423042,"SoundDuration":423042,"Delta":306932668},{"NoteNumber":53,"Velocity":27,"Duration":423042,"SoundDuration":423042,"Delta":306932668},{"NoteNumber":57,"Velocity":35,"Duration":423042,"SoundDuration":423042,"Delta":306932668},{"NoteNumber":61,"Velocity":80,"Duration":428815,"SoundDuration":428815,"Delta":307778752},{"NoteNumber":37,"Velocity":51,"Duration":428815,"SoundDuration":428815,"Delta":307778752},{"NoteNumber":49,"Velocity":60,"Duration":428815,"SoundDuration":428815,"Delta":307778752},{"NoteNumber":62,"Velocity":85,"Duration":623484,"SoundDuration":623484,"Delta":308207568},{"NoteNumber":50,"Velocity":66,"Duration":207828,"SoundDuration":207828,"Delta":308207568},{"NoteNumber":38,"Velocity":56,"Duration":207828,"SoundDuration":207828,"Delta":308207568},{"NoteNumber":53,"Velocity":60,"Duration":207828,"SoundDuration":207828,"Delta":308415396},{"NoteNumber":57,"Velocity":60,"Duration":207828,"SoundDuration":207828,"Delta":308623224},{"NoteNumber":65,"Velocity":70,"Duration":101715,"SoundDuration":101715,"Delta":308831052},{"NoteNumber":53,"Velocity":60,"Duration":203431,"SoundDuration":203431,"Delta":308831052},{"NoteNumber":69,"Velocity":72,"Duration":101715,"SoundDuration":101715,"Delta":308932768},{"NoteNumber":74,"Velocity":84,"Duration":101715,"SoundDuration":101715,"Delta":309034483},{"NoteNumber":57,"Velocity":63,"Duration":203430,"SoundDuration":203430,"Delta":309034483},{"NoteNumber":69,"Velocity":71,"Duration":101715,"SoundDuration":101715,"Delta":309237914},{"NoteNumber":53,"Velocity":60,"Duration":203431,"SoundDuration":203431,"Delta":309237914},{"NoteNumber":74,"Velocity":73,"Duration":101715,"SoundDuration":101715,"Delta":309339630},{"NoteNumber":77,"Velocity":86,"Duration":101715,"SoundDuration":101715,"Delta":309441345},{"NoteNumber":50,"Velocity":65,"Duration":203430,"SoundDuration":203430,"Delta":309441345},{"NoteNumber":74,"Velocity":71,"Duration":101715,"SoundDuration":101715,"Delta":309644776},{"NoteNumber":53,"Velocity":60,"Duration":203431,"SoundDuration":203431,"Delta":309644776},{"NoteNumber":77,"Velocity":73,"Duration":101715,"SoundDuration":101715,"Delta":309746492},{"NoteNumber":81,"Velocity":87,"Duration":103170,"SoundDuration":103170,"Delta":309848207},{"NoteNumber":57,"Velocity":63,"Duration":206341,"SoundDuration":206341,"Delta":309848207},{"NoteNumber":81,"Velocity":80,"Duration":206341,"SoundDuration":206341,"Delta":310054549},{"NoteNumber":53,"Velocity":60,"Duration":206341,"SoundDuration":206341,"Delta":310054549},{"NoteNumber":77,"Velocity":80,"Duration":209336,"SoundDuration":209336,"Delta":310260890},{"NoteNumber":57,"Velocity":60,"Duration":209336,"SoundDuration":209336,"Delta":310260890},{"NoteNumber":74,"Velocity":80,"Duration":109425,"SoundDuration":109425,"Delta":310470227},{"NoteNumber":53,"Velocity":62,"Duration":218850,"SoundDuration":218850,"Delta":310470227},{"NoteNumber":73,"Velocity":70,"Duration":36475,"SoundDuration":36475,"Delta":310579652},{"NoteNumber":76,"Velocity":70,"Duration":36475,"SoundDuration":36475,"Delta":310616127},{"NoteNumber":79,"Velocity":70,"Duration":36475,"SoundDuration":36475,"Delta":310652602},{"NoteNumber":82,"Velocity":90,"Duration":625800,"SoundDuration":625800,"Delta":310689077},{"NoteNumber":40,"Velocity":60,"Duration":106202,"SoundDuration":106202,"Delta":310689077},{"NoteNumber":52,"Velocity":71,"Duration":106202,"SoundDuration":106202,"Delta":310689077},{"NoteNumber":55,"Velocity":60,"Duration":100495,"SoundDuration":100495,"Delta":311113886},{"NoteNumber":52,"Velocity":60,"Duration":100495,"SoundDuration":100495,"Delta":311113886},{"NoteNumber":58,"Velocity":60,"Duration":100495,"SoundDuration":100495,"Delta":311113886},{"NoteNumber":61,"Velocity":71,"Duration":100495,"SoundDuration":100495,"Delta":311113886},{"NoteNumber":81,"Velocity":71,"Duration":110545,"SoundDuration":110545,"Delta":311314878},{"NoteNumber":79,"Velocity":68,"Duration":110545,"SoundDuration":110545,"Delta":311415374},{"NoteNumber":77,"Velocity":68,"Duration":110545,"SoundDuration":110545,"Delta":311515869},{"NoteNumber":76,"Velocity":68,"Duration":110545,"SoundDuration":110545,"Delta":311616365},{"NoteNumber":74,"Velocity":69,"Duration":111779,"SoundDuration":111779,"Delta":311716861},{"NoteNumber":73,"Velocity":72,"Duration":123461,"SoundDuration":123461,"Delta":311817357},{"NoteNumber":82,"Velocity":90,"Duration":632636,"SoundDuration":632636,"Delta":311930198},{"NoteNumber":52,"Velocity":71,"Duration":106202,"SoundDuration":106202,"Delta":311930198},{"NoteNumber":40,"Velocity":60,"Duration":106202,"SoundDuration":106202,"Delta":311930198},{"NoteNumber":61,"Velocity":71,"Duration":103913,"SoundDuration":103913,"Delta":312355007},{"NoteNumber":52,"Velocity":60,"Duration":103913,"SoundDuration":103913,"Delta":312355007},{"NoteNumber":55,"Velocity":60,"Duration":103913,"SoundDuration":103913,"Delta":312355007},{"NoteNumber":58,"Velocity":60,"Duration":103913,"SoundDuration":103913,"Delta":312355007},{"NoteNumber":81,"Velocity":71,"Duration":114305,"SoundDuration":114305,"Delta":312562835},{"NoteNumber":79,"Velocity":68,"Duration":114305,"SoundDuration":114305,"Delta":312666749},{"NoteNumber":77,"Velocity":68,"Duration":114305,"SoundDuration":114305,"Delta":312770663},{"NoteNumber":76,"Velocity":68,"Duration":114305,"SoundDuration":114305,"Delta":312874577},{"NoteNumber":74,"Velocity":69,"Duration":114305,"SoundDuration":114305,"Delta":312978491},{"NoteNumber":73,"Velocity":72,"Duration":114305,"SoundDuration":114305,"Delta":313082405},{"NoteNumber":74,"Velocity":88,"Duration":623484,"SoundDuration":623484,"Delta":313186319},{"NoteNumber":53,"Velocity":66,"Duration":207828,"SoundDuration":207828,"Delta":313186319},{"NoteNumber":57,"Velocity":60,"Duration":207828,"SoundDuration":207828,"Delta":313394147},{"NoteNumber":62,"Velocity":60,"Duration":207828,"SoundDuration":207828,"Delta":313601975},{"NoteNumber":65,"Velocity":70,"Duration":101715,"SoundDuration":101715,"Delta":313809803},{"NoteNumber":57,"Velocity":60,"Duration":203431,"SoundDuration":203431,"Delta":313809803},{"NoteNumber":69,"Velocity":72,"Duration":101715,"SoundDuration":101715,"Delta":313911518},{"NoteNumber":74,"Velocity":84,"Duration":101715,"SoundDuration":101715,"Delta":314013234},{"NoteNumber":62,"Velocity":63,"Duration":203430,"SoundDuration":203430,"Delta":314013234},{"NoteNumber":69,"Velocity":71,"Duration":101715,"SoundDuration":101715,"Delta":314216665},{"NoteNumber":57,"Velocity":60,"Duration":203431,"SoundDuration":203431,"Delta":314216665},{"NoteNumber":74,"Velocity":73,"Duration":101715,"SoundDuration":101715,"Delta":314318380},{"NoteNumber":77,"Velocity":86,"Duration":101715,"SoundDuration":101715,"Delta":314420096},{"NoteNumber":53,"Velocity":65,"Duration":203430,"SoundDuration":203430,"Delta":314420096},{"NoteNumber":74,"Velocity":71,"Duration":101715,"SoundDuration":101715,"Delta":314623527},{"NoteNumber":57,"Velocity":60,"Duration":203431,"SoundDuration":203431,"Delta":314623527},{"NoteNumber":77,"Velocity":73,"Duration":101715,"SoundDuration":101715,"Delta":314725242},{"NoteNumber":81,"Velocity":87,"Duration":103170,"SoundDuration":103170,"Delta":314826958},{"NoteNumber":62,"Velocity":63,"Duration":206341,"SoundDuration":206341,"Delta":314826958},{"NoteNumber":81,"Velocity":80,"Duration":206341,"SoundDuration":206341,"Delta":315033299},{"NoteNumber":57,"Velocity":60,"Duration":206341,"SoundDuration":206341,"Delta":315033299},{"NoteNumber":77,"Velocity":80,"Duration":209336,"SoundDuration":209336,"Delta":315239641},{"NoteNumber":62,"Velocity":60,"Duration":209336,"SoundDuration":209336,"Delta":315239641},{"NoteNumber":74,"Velocity":80,"Duration":218850,"SoundDuration":218850,"Delta":315448977},{"NoteNumber":57,"Velocity":62,"Duration":218850,"SoundDuration":218850,"Delta":315448977},{"NoteNumber":74,"Velocity":75,"Duration":628626,"SoundDuration":628626,"Delta":315667828},{"NoteNumber":80,"Velocity":90,"Duration":628626,"SoundDuration":628626,"Delta":315667828},{"NoteNumber":77,"Velocity":75,"Duration":628626,"SoundDuration":628626,"Delta":315667828},{"NoteNumber":71,"Velocity":75,"Duration":628626,"SoundDuration":628626,"Delta":315667828},{"NoteNumber":38,"Velocity":60,"Duration":106202,"SoundDuration":106202,"Delta":315667828},{"NoteNumber":50,"Velocity":71,"Duration":106202,"SoundDuration":106202,"Delta":315667828},{"NoteNumber":56,"Velocity":60,"Duration":101908,"SoundDuration":101908,"Delta":316092637},{"NoteNumber":50,"Velocity":60,"Duration":101908,"SoundDuration":101908,"Delta":316092637},{"NoteNumber":59,"Velocity":71,"Duration":101908,"SoundDuration":101908,"Delta":316092637},{"NoteNumber":53,"Velocity":60,"Duration":101908,"SoundDuration":101908,"Delta":316092637},{"NoteNumber":79,"Velocity":71,"Duration":112099,"SoundDuration":112099,"Delta":316296455},{"NoteNumber":77,"Velocity":68,"Duration":112099,"SoundDuration":112099,"Delta":316398364},{"NoteNumber":75,"Velocity":68,"Duration":112099,"SoundDuration":112099,"Delta":316500273},{"NoteNumber":74,"Velocity":68,"Duration":112099,"SoundDuration":112099,"Delta":316602182},{"NoteNumber":72,"Velocity":69,"Duration":113557,"SoundDuration":113557,"Delta":316704091},{"NoteNumber":71,"Velocity":72,"Duration":127106,"SoundDuration":127106,"Delta":316806000},{"NoteNumber":80,"Velocity":90,"Duration":632636,"SoundDuration":632636,"Delta":316922487},{"NoteNumber":38,"Velocity":60,"Duration":106202,"SoundDuration":106202,"Delta":316922487},{"NoteNumber":50,"Velocity":71,"Duration":106202,"SoundDuration":106202,"Delta":316922487},{"NoteNumber":53,"Velocity":60,"Duration":103913,"SoundDuration":103913,"Delta":317347296},{"NoteNumber":59,"Velocity":71,"Duration":103913,"SoundDuration":103913,"Delta":317347296},{"NoteNumber":56,"Velocity":60,"Duration":103913,"SoundDuration":103913,"Delta":317347296},{"NoteNumber":50,"Velocity":60,"Duration":103913,"SoundDuration":103913,"Delta":317347296},{"NoteNumber":79,"Velocity":71,"Duration":114305,"SoundDuration":114305,"Delta":317555124},{"NoteNumber":77,"Velocity":68,"Duration":114305,"SoundDuration":114305,"Delta":317659038},{"NoteNumber":75,"Velocity":68,"Duration":114305,"SoundDuration":114305,"Delta":317762952},{"NoteNumber":74,"Velocity":68,"Duration":114305,"SoundDuration":114305,"Delta":317866866},{"NoteNumber":72,"Velocity":69,"Duration":114305,"SoundDuration":114305,"Delta":317970780},{"NoteNumber":71,"Velocity":72,"Duration":114305,"SoundDuration":114305,"Delta":318074694},{"NoteNumber":72,"Velocity":88,"Duration":623484,"SoundDuration":623484,"Delta":318178608},{"NoteNumber":51,"Velocity":66,"Duration":207828,"SoundDuration":207828,"Delta":318178608},{"NoteNumber":55,"Velocity":60,"Duration":207828,"SoundDuration":207828,"Delta":318386436},{"NoteNumber":60,"Velocity":60,"Duration":207828,"SoundDuration":207828,"Delta":318594264},{"NoteNumber":63,"Velocity":70,"Duration":101715,"SoundDuration":101715,"Delta":318802092},{"NoteNumber":55,"Velocity":60,"Duration":203431,"SoundDuration":203431,"Delta":318802092},{"NoteNumber":67,"Velocity":72,"Duration":101715,"SoundDuration":101715,"Delta":318903807},{"NoteNumber":72,"Velocity":84,"Duration":101715,"SoundDuration":101715,"Delta":319005523},{"NoteNumber":60,"Velocity":63,"Duration":203430,"SoundDuration":203430,"Delta":319005523},{"NoteNumber":67,"Velocity":71,"Duration":101715,"SoundDuration":101715,"Delta":319208954},{"NoteNumber":55,"Velocity":60,"Duration":203431,"SoundDuration":203431,"Delta":319208954},{"NoteNumber":72,"Velocity":73,"Duration":101715,"SoundDuration":101715,"Delta":319310669},{"NoteNumber":75,"Velocity":86,"Duration":101715,"SoundDuration":101715,"Delta":319412385},{"NoteNumber":51,"Velocity":65,"Duration":203430,"SoundDuration":203430,"Delta":319412385},{"NoteNumber":72,"Velocity":71,"Duration":101715,"SoundDuration":101715,"Delta":319615816},{"NoteNumber":55,"Velocity":60,"Duration":203431,"SoundDuration":203431,"Delta":319615816},{"NoteNumber":75,"Velocity":73,"Duration":101715,"SoundDuration":101715,"Delta":319717531},{"NoteNumber":79,"Velocity":87,"Duration":103170,"SoundDuration":103170,"Delta":319819247},{"NoteNumber":60,"Velocity":63,"Duration":206341,"SoundDuration":206341,"Delta":319819247},{"NoteNumber":79,"Velocity":80,"Duration":206341,"SoundDuration":206341,"Delta":320025588},{"NoteNumber":55,"Velocity":60,"Duration":206341,"SoundDuration":206341,"Delta":320025588},{"NoteNumber":75,"Velocity":80,"Duration":209336,"SoundDuration":209336,"Delta":320231930},{"NoteNumber":60,"Velocity":60,"Duration":209336,"SoundDuration":209336,"Delta":320231930},{"NoteNumber":72,"Velocity":80,"Duration":218850,"SoundDuration":218850,"Delta":320441266},{"NoteNumber":55,"Velocity":62,"Duration":218850,"SoundDuration":218850,"Delta":320441266},{"NoteNumber":72,"Velocity":75,"Duration":631150,"SoundDuration":631150,"Delta":320660117},{"NoteNumber":78,"Velocity":90,"Duration":631150,"SoundDuration":631150,"Delta":320660117},{"NoteNumber":75,"Velocity":75,"Duration":631150,"SoundDuration":631150,"Delta":320660117},{"NoteNumber":69,"Velocity":75,"Duration":631150,"SoundDuration":631150,"Delta":320660117},{"NoteNumber":39,"Velocity":71,"Duration":106202,"SoundDuration":106202,"Delta":320660117},{"NoteNumber":57,"Velocity":60,"Duration":103170,"SoundDuration":103170,"Delta":321084926},{"NoteNumber":54,"Velocity":60,"Duration":103170,"SoundDuration":103170,"Delta":321084926},{"NoteNumber":60,"Velocity":71,"Duration":103170,"SoundDuration":103170,"Delta":321084926},{"NoteNumber":51,"Velocity":60,"Duration":103170,"SoundDuration":103170,"Delta":321084926},{"NoteNumber":77,"Velocity":71,"Duration":110545,"SoundDuration":110545,"Delta":321291267},{"NoteNumber":75,"Velocity":68,"Duration":110545,"SoundDuration":110545,"Delta":321391763},{"NoteNumber":73,"Velocity":68,"Duration":110545,"SoundDuration":110545,"Delta":321492259},{"NoteNumber":72,"Velocity":68,"Duration":110545,"SoundDuration":110545,"Delta":321592754},{"NoteNumber":70,"Velocity":69,"Duration":112144,"SoundDuration":112144,"Delta":321693250},{"NoteNumber":69,"Velocity":72,"Duration":127106,"SoundDuration":127106,"Delta":321793746},{"NoteNumber":78,"Velocity":90,"Duration":632636,"SoundDuration":632636,"Delta":321910233},{"NoteNumber":39,"Velocity":71,"Duration":106202,"SoundDuration":106202,"Delta":321910233},{"NoteNumber":51,"Velocity":60,"Duration":103913,"SoundDuration":103913,"Delta":322335042},{"NoteNumber":60,"Velocity":71,"Duration":103913,"SoundDuration":103913,"Delta":322335042},{"NoteNumber":57,"Velocity":60,"Duration":103913,"SoundDuration":103913,"Delta":322335042},{"NoteNumber":54,"Velocity":60,"Duration":103913,"SoundDuration":103913,"Delta":322335042},{"NoteNumber":77,"Velocity":71,"Duration":109780,"SoundDuration":109780,"Delta":322542870},{"NoteNumber":75,"Velocity":68,"Duration":109780,"SoundDuration":109780,"Delta":322642670},{"NoteNumber":73,"Velocity":68,"Duration":109780,"SoundDuration":109780,"Delta":322742471},{"NoteNumber":72,"Velocity":68,"Duration":109780,"SoundDuration":109780,"Delta":322842271},{"NoteNumber":70,"Velocity":69,"Duration":109780,"SoundDuration":109780,"Delta":322942072},{"NoteNumber":69,"Velocity":72,"Duration":110063,"SoundDuration":110063,"Delta":323041872},{"NoteNumber":70,"Velocity":88,"Duration":513171,"SoundDuration":513171,"Delta":323141673},{"NoteNumber":49,"Velocity":66,"Duration":205268,"SoundDuration":205268,"Delta":323141673},{"NoteNumber":53,"Velocity":60,"Duration":205268,"SoundDuration":205268,"Delta":323346941},{"NoteNumber":58,"Velocity":60,"Duration":205268,"SoundDuration":205268,"Delta":323552210},{"NoteNumber":65,"Velocity":69,"Duration":102634,"SoundDuration":102634,"Delta":323654844},{"NoteNumber":70,"Velocity":74,"Duration":101715,"SoundDuration":101715,"Delta":323757478},{"NoteNumber":53,"Velocity":60,"Duration":203431,"SoundDuration":203431,"Delta":323757478},{"NoteNumber":65,"Velocity":70,"Duration":101715,"SoundDuration":101715,"Delta":323859194},{"NoteNumber":73,"Velocity":74,"Duration":101715,"SoundDuration":101715,"Delta":323960909},{"NoteNumber":58,"Velocity":63,"Duration":203430,"SoundDuration":203430,"Delta":323960909},{"NoteNumber":70,"Velocity":71,"Duration":101715,"SoundDuration":101715,"Delta":324062625},{"NoteNumber":73,"Velocity":75,"Duration":101715,"SoundDuration":101715,"Delta":324164340},{"NoteNumber":53,"Velocity":60,"Duration":203431,"SoundDuration":203431,"Delta":324164340},{"NoteNumber":70,"Velocity":70,"Duration":101715,"SoundDuration":101715,"Delta":324266056},{"NoteNumber":77,"Velocity":74,"Duration":101715,"SoundDuration":101715,"Delta":324367771},{"NoteNumber":49,"Velocity":66,"Duration":203431,"SoundDuration":203431,"Delta":324367771},{"NoteNumber":73,"Velocity":71,"Duration":101715,"SoundDuration":101715,"Delta":324469487},{"NoteNumber":77,"Velocity":74,"Duration":101715,"SoundDuration":101715,"Delta":324571202},{"NoteNumber":53,"Velocity":60,"Duration":219150,"SoundDuration":219150,"Delta":324571202},{"NoteNumber":73,"Velocity":71,"Duration":117435,"SoundDuration":117435,"Delta":324672918},{"NoteNumber":82,"Velocity":91,"Duration":414212,"SoundDuration":414212,"Delta":324790353},{"NoteNumber":58,"Velocity":60,"Duration":204876,"SoundDuration":204876,"Delta":324790353},{"NoteNumber":53,"Velocity":60,"Duration":209336,"SoundDuration":209336,"Delta":324995229},{"NoteNumber":58,"Velocity":63,"Duration":209336,"SoundDuration":209336,"Delta":325204565},{"NoteNumber":53,"Velocity":60,"Duration":209336,"SoundDuration":209336,"Delta":325413902},{"NoteNumber":69,"Velocity":88,"Duration":519569,"SoundDuration":519569,"Delta":325623238},{"NoteNumber":48,"Velocity":66,"Duration":207828,"SoundDuration":207828,"Delta":325623238},{"NoteNumber":53,"Velocity":60,"Duration":207828,"SoundDuration":207828,"Delta":325831066},{"NoteNumber":57,"Velocity":60,"Duration":207828,"SoundDuration":207828,"Delta":326038894},{"NoteNumber":65,"Velocity":69,"Duration":103914,"SoundDuration":103914,"Delta":326142808},{"NoteNumber":69,"Velocity":74,"Duration":101715,"SoundDuration":101715,"Delta":326246722},{"NoteNumber":53,"Velocity":60,"Duration":203431,"SoundDuration":203431,"Delta":326246722},{"NoteNumber":65,"Velocity":70,"Duration":101715,"SoundDuration":101715,"Delta":326348438},{"NoteNumber":72,"Velocity":74,"Duration":101715,"SoundDuration":101715,"Delta":326450153},{"NoteNumber":57,"Velocity":63,"Duration":203430,"SoundDuration":203430,"Delta":326450153},{"NoteNumber":69,"Velocity":71,"Duration":101715,"SoundDuration":101715,"Delta":326551869},{"NoteNumber":72,"Velocity":75,"Duration":101715,"SoundDuration":101715,"Delta":326653584},{"NoteNumber":53,"Velocity":60,"Duration":203431,"SoundDuration":203431,"Delta":326653584},{"NoteNumber":69,"Velocity":70,"Duration":101715,"SoundDuration":101715,"Delta":326755300},{"NoteNumber":77,"Velocity":74,"Duration":101715,"SoundDuration":101715,"Delta":326857015},{"NoteNumber":48,"Velocity":66,"Duration":203431,"SoundDuration":203431,"Delta":326857015},{"NoteNumber":72,"Velocity":71,"Duration":101715,"SoundDuration":101715,"Delta":326958731},{"NoteNumber":77,"Velocity":74,"Duration":101715,"SoundDuration":101715,"Delta":327060446},{"NoteNumber":53,"Velocity":60,"Duration":219150,"SoundDuration":219150,"Delta":327060446},{"NoteNumber":72,"Velocity":71,"Duration":117435,"SoundDuration":117435,"Delta":327162162},{"NoteNumber":81,"Velocity":91,"Duration":414212,"SoundDuration":414212,"Delta":327279597},{"NoteNumber":57,"Velocity":60,"Duration":204876,"SoundDuration":204876,"Delta":327279597},{"NoteNumber":53,"Velocity":60,"Duration":209336,"SoundDuration":209336,"Delta":327484473},{"NoteNumber":57,"Velocity":63,"Duration":209336,"SoundDuration":209336,"Delta":327693810},{"NoteNumber":53,"Velocity":60,"Duration":222684,"SoundDuration":222684,"Delta":327903146},{"NoteNumber":68,"Velocity":88,"Duration":519569,"SoundDuration":519569,"Delta":328125830},{"NoteNumber":47,"Velocity":66,"Duration":207828,"SoundDuration":207828,"Delta":328125830},{"NoteNumber":53,"Velocity":60,"Duration":207828,"SoundDuration":207828,"Delta":328333658},{"NoteNumber":56,"Velocity":60,"Duration":207828,"SoundDuration":207828,"Delta":328541486},{"NoteNumber":65,"Velocity":69,"Duration":103914,"SoundDuration":103914,"Delta":328645400},{"NoteNumber":68,"Velocity":74,"Duration":101715,"SoundDuration":101715,"Delta":328749314},{"NoteNumber":53,"Velocity":60,"Duration":203431,"SoundDuration":203431,"Delta":328749314},{"NoteNumber":65,"Velocity":70,"Duration":101715,"SoundDuration":101715,"Delta":328851030},{"NoteNumber":74,"Velocity":74,"Duration":101715,"SoundDuration":101715,"Delta":328952745},{"NoteNumber":56,"Velocity":63,"Duration":203430,"SoundDuration":203430,"Delta":328952745},{"NoteNumber":68,"Velocity":71,"Duration":101715,"SoundDuration":101715,"Delta":329054461},{"NoteNumber":74,"Velocity":75,"Duration":101715,"SoundDuration":101715,"Delta":329156176},{"NoteNumber":53,"Velocity":60,"Duration":203431,"SoundDuration":203431,"Delta":329156176},{"NoteNumber":68,"Velocity":70,"Duration":101715,"SoundDuration":101715,"Delta":329257892},{"NoteNumber":77,"Velocity":74,"Duration":101715,"SoundDuration":101715,"Delta":329359607},{"NoteNumber":47,"Velocity":66,"Duration":203431,"SoundDuration":203431,"Delta":329359607},{"NoteNumber":74,"Velocity":71,"Duration":101715,"SoundDuration":101715,"Delta":329461323},{"NoteNumber":77,"Velocity":74,"Duration":101715,"SoundDuration":101715,"Delta":329563038},{"NoteNumber":53,"Velocity":60,"Duration":219150,"SoundDuration":219150,"Delta":329563038},{"NoteNumber":74,"Velocity":71,"Duration":117435,"SoundDuration":117435,"Delta":329664754},{"NoteNumber":80,"Velocity":91,"Duration":414212,"SoundDuration":414212,"Delta":329782189},{"NoteNumber":56,"Velocity":60,"Duration":204876,"SoundDuration":204876,"Delta":329782189},{"NoteNumber":53,"Velocity":60,"Duration":209336,"SoundDuration":209336,"Delta":329987065},{"NoteNumber":77,"Velocity":81,"Duration":314004,"SoundDuration":314004,"Delta":330196401},{"NoteNumber":56,"Velocity":63,"Duration":209336,"SoundDuration":209336,"Delta":330196401},{"NoteNumber":53,"Velocity":60,"Duration":214093,"SoundDuration":214093,"Delta":330405738},{"NoteNumber":72,"Velocity":70,"Duration":36475,"SoundDuration":36475,"Delta":330510406},{"NoteNumber":76,"Velocity":70,"Duration":36475,"SoundDuration":36475,"Delta":330546881},{"NoteNumber":79,"Velocity":70,"Duration":36475,"SoundDuration":36475,"Delta":330583356},{"NoteNumber":84,"Velocity":90,"Duration":846084,"SoundDuration":846084,"Delta":330619831},{"NoteNumber":48,"Velocity":66,"Duration":211521,"SoundDuration":211521,"Delta":330619831},{"NoteNumber":52,"Velocity":60,"Duration":211521,"SoundDuration":211521,"Delta":330831352},{"NoteNumber":55,"Velocity":60,"Duration":211521,"SoundDuration":211521,"Delta":331042873},{"NoteNumber":60,"Velocity":60,"Duration":211521,"SoundDuration":211521,"Delta":331254394},{"NoteNumber":82,"Velocity":72,"Duration":110529,"SoundDuration":110529,"Delta":331465915},{"NoteNumber":53,"Velocity":63,"Duration":204053,"SoundDuration":204053,"Delta":331465915},{"NoteNumber":80,"Velocity":72,"Duration":110529,"SoundDuration":110529,"Delta":331567942},{"NoteNumber":79,"Velocity":73,"Duration":111430,"SoundDuration":111430,"Delta":331669969},{"NoteNumber":56,"Velocity":60,"Duration":214868,"SoundDuration":214868,"Delta":331669969},{"NoteNumber":77,"Velocity":76,"Duration":112841,"SoundDuration":112841,"Delta":331771996},{"NoteNumber":84,"Velocity":90,"Duration":832612,"SoundDuration":832612,"Delta":331884838},{"NoteNumber":48,"Velocity":66,"Duration":208478,"SoundDuration":208478,"Delta":331884838},{"NoteNumber":52,"Velocity":60,"Duration":208478,"SoundDuration":208478,"Delta":332093316},{"NoteNumber":55,"Velocity":60,"Duration":207828,"SoundDuration":207828,"Delta":332301794},{"NoteNumber":60,"Velocity":60,"Duration":207828,"SoundDuration":207828,"Delta":332509622},{"NoteNumber":82,"Velocity":72,"Duration":109752,"SoundDuration":109752,"Delta":332717450},{"NoteNumber":53,"Velocity":63,"Duration":202620,"SoundDuration":202620,"Delta":332717450},{"NoteNumber":80,"Velocity":72,"Duration":109752,"SoundDuration":109752,"Delta":332818760},{"NoteNumber":79,"Velocity":73,"Duration":109752,"SoundDuration":109752,"Delta":332920070},{"NoteNumber":56,"Velocity":60,"Duration":202620,"SoundDuration":202620,"Delta":332920070},{"NoteNumber":77,"Velocity":76,"Duration":101310,"SoundDuration":101310,"Delta":333021380},{"NoteNumber":72,"Velocity":90,"Duration":621994,"SoundDuration":621994,"Delta":333122691},{"NoteNumber":60,"Velocity":72,"Duration":621994,"SoundDuration":621994,"Delta":333122691},{"NoteNumber":73,"Velocity":79,"Duration":110123,"SoundDuration":110123,"Delta":333744685},{"NoteNumber":61,"Velocity":63,"Duration":110123,"SoundDuration":110123,"Delta":333744685},{"NoteNumber":72,"Velocity":78,"Duration":111698,"SoundDuration":111698,"Delta":333846282},{"NoteNumber":60,"Velocity":62,"Duration":111698,"SoundDuration":111698,"Delta":333846282},{"NoteNumber":70,"Velocity":76,"Duration":113314,"SoundDuration":113314,"Delta":333949332},{"NoteNumber":58,"Velocity":60,"Duration":113314,"SoundDuration":113314,"Delta":333949332},{"NoteNumber":68,"Velocity":75,"Duration":114978,"SoundDuration":114978,"Delta":334053871},{"NoteNumber":56,"Velocity":60,"Duration":114978,"SoundDuration":114978,"Delta":334053871},{"NoteNumber":67,"Velocity":74,"Duration":117759,"SoundDuration":117759,"Delta":334159945},{"NoteNumber":55,"Velocity":59,"Duration":117759,"SoundDuration":117759,"Delta":334159945},{"NoteNumber":65,"Velocity":72,"Duration":127823,"SoundDuration":127823,"Delta":334267803},{"NoteNumber":53,"Velocity":57,"Duration":127823,"SoundDuration":127823,"Delta":334267803},{"NoteNumber":72,"Velocity":79,"Duration":108139,"SoundDuration":108139,"Delta":334386615},{"NoteNumber":60,"Velocity":63,"Duration":108139,"SoundDuration":108139,"Delta":334386615},{"NoteNumber":60,"Velocity":72,"Duration":108139,"SoundDuration":108139,"Delta":334819172},{"NoteNumber":48,"Velocity":57,"Duration":108139,"SoundDuration":108139,"Delta":334819172},{"NoteNumber":36,"Velocity":48,"Duration":108139,"SoundDuration":108139,"Delta":334819172},{"NoteNumber":41,"Velocity":35,"Duration":54069,"SoundDuration":54069,"Delta":335522077},{"NoteNumber":48,"Velocity":35,"Duration":54069,"SoundDuration":54069,"Delta":335576147},{"NoteNumber":60,"Velocity":41,"Duration":54069,"SoundDuration":54069,"Delta":335630216},{"NoteNumber":69,"Velocity":45,"Duration":105760,"SoundDuration":105760,"Delta":335684286},{"NoteNumber":53,"Velocity":35,"Duration":423042,"SoundDuration":423042,"Delta":335684286},{"NoteNumber":69,"Velocity":43,"Duration":105760,"SoundDuration":105760,"Delta":336107328},{"NoteNumber":69,"Velocity":43,"Duration":121822,"SoundDuration":121822,"Delta":336530370},{"NoteNumber":48,"Velocity":34,"Duration":53270,"SoundDuration":53270,"Delta":336827286},{"NoteNumber":55,"Velocity":34,"Duration":53270,"SoundDuration":53270,"Delta":336880557},{"NoteNumber":64,"Velocity":42,"Duration":53270,"SoundDuration":53270,"Delta":336933828},{"NoteNumber":72,"Velocity":45,"Duration":639250,"SoundDuration":639250,"Delta":336987099},{"NoteNumber":58,"Velocity":35,"Duration":426167,"SoundDuration":426167,"Delta":336987099},{"NoteNumber":70,"Velocity":41,"Duration":213083,"SoundDuration":213083,"Delta":337626349},{"NoteNumber":67,"Velocity":41,"Duration":442477,"SoundDuration":442477,"Delta":337839433},{"NoteNumber":57,"Velocity":45,"Duration":426167,"SoundDuration":426167,"Delta":338281911},{"NoteNumber":67,"Velocity":45,"Duration":213083,"SoundDuration":213083,"Delta":338281911},{"NoteNumber":41,"Velocity":35,"Duration":426167,"SoundDuration":426167,"Delta":338281911},{"NoteNumber":65,"Velocity":41,"Duration":213083,"SoundDuration":213083,"Delta":338494994},{"NoteNumber":65,"Velocity":45,"Duration":620946,"SoundDuration":620946,"Delta":338708078},{"NoteNumber":60,"Velocity":45,"Duration":620946,"SoundDuration":620946,"Delta":338708078},{"NoteNumber":45,"Velocity":31,"Duration":413964,"SoundDuration":413964,"Delta":338708078},{"NoteNumber":48,"Velocity":31,"Duration":424894,"SoundDuration":424894,"Delta":339122042},{"NoteNumber":64,"Velocity":45,"Duration":217912,"SoundDuration":217912,"Delta":339329024},{"NoteNumber":67,"Velocity":45,"Duration":217912,"SoundDuration":217912,"Delta":339329024},{"NoteNumber":67,"Velocity":49,"Duration":852475,"SoundDuration":852475,"Delta":339546936},{"NoteNumber":64,"Velocity":49,"Duration":852475,"SoundDuration":852475,"Delta":339546936},{"NoteNumber":53,"Velocity":35,"Duration":429433,"SoundDuration":429433,"Delta":339546936},{"NoteNumber":41,"Velocity":31,"Duration":423042,"SoundDuration":423042,"Delta":339976370},{"NoteNumber":65,"Velocity":45,"Duration":435825,"SoundDuration":435825,"Delta":340399412},{"NoteNumber":69,"Velocity":45,"Duration":435825,"SoundDuration":435825,"Delta":340399412},{"NoteNumber":70,"Velocity":45,"Duration":633771,"SoundDuration":633771,"Delta":340835237},{"NoteNumber":50,"Velocity":35,"Duration":843752,"SoundDuration":843752,"Delta":340835237},{"NoteNumber":53,"Velocity":33,"Duration":414035,"SoundDuration":414035,"Delta":341264954},{"NoteNumber":58,"Velocity":33,"Duration":414035,"SoundDuration":414035,"Delta":341264954},{"NoteNumber":72,"Velocity":46,"Duration":52495,"SoundDuration":52495,"Delta":341469008},{"NoteNumber":70,"Velocity":42,"Duration":52495,"SoundDuration":52495,"Delta":341521503},{"NoteNumber":69,"Velocity":42,"Duration":52495,"SoundDuration":52495,"Delta":341573998},{"NoteNumber":70,"Velocity":45,"Duration":34996,"SoundDuration":34996,"Delta":341626493},{"NoteNumber":72,"Velocity":49,"Duration":209981,"SoundDuration":209981,"Delta":341678989},{"NoteNumber":74,"Velocity":47,"Duration":217912,"SoundDuration":217912,"Delta":341888970},{"NoteNumber":74,"Velocity":55,"Duration":206981,"SoundDuration":206981,"Delta":342106882},{"NoteNumber":52,"Velocity":38,"Duration":827927,"SoundDuration":827927,"Delta":342106882},{"NoteNumber":72,"Velocity":49,"Duration":206982,"SoundDuration":206982,"Delta":342313864},{"NoteNumber":71,"Velocity":52,"Duration":206981,"SoundDuration":206981,"Delta":342520846},{"NoteNumber":60,"Velocity":35,"Duration":413963,"SoundDuration":413963,"Delta":342520846},{"NoteNumber":55,"Velocity":35,"Duration":413963,"SoundDuration":413963,"Delta":342520846},{"NoteNumber":72,"Velocity":45,"Duration":206981,"SoundDuration":206981,"Delta":342727828},{"NoteNumber":70,"Velocity":50,"Duration":206982,"SoundDuration":206982,"Delta":342934810},{"NoteNumber":67,"Velocity":45,"Duration":219570,"SoundDuration":219570,"Delta":343141792},{"NoteNumber":68,"Velocity":49,"Duration":213083,"SoundDuration":213083,"Delta":343361363},{"NoteNumber":53,"Velocity":41,"Duration":426167,"SoundDuration":426167,"Delta":343361363},{"NoteNumber":69,"Velocity":45,"Duration":213083,"SoundDuration":213083,"Delta":343574447},{"NoteNumber":70,"Velocity":50,"Duration":205507,"SoundDuration":205507,"Delta":343787530},{"NoteNumber":50,"Velocity":31,"Duration":411015,"SoundDuration":411015,"Delta":343787530},{"NoteNumber":53,"Velocity":37,"Duration":411015,"SoundDuration":411015,"Delta":343787530},{"NoteNumber":69,"Velocity":45,"Duration":205507,"SoundDuration":205507,"Delta":343993038},{"NoteNumber":72,"Velocity":49,"Duration":205507,"SoundDuration":205507,"Delta":344198545},{"NoteNumber":46,"Velocity":29,"Duration":428456,"SoundDuration":428456,"Delta":344198545},{"NoteNumber":55,"Velocity":35,"Duration":428456,"SoundDuration":428456,"Delta":344198545},{"NoteNumber":70,"Velocity":45,"Duration":222949,"SoundDuration":222949,"Delta":344404053},{"NoteNumber":69,"Velocity":52,"Duration":213083,"SoundDuration":213083,"Delta":344627002},{"NoteNumber":48,"Velocity":34,"Duration":420065,"SoundDuration":420065,"Delta":344627002},{"NoteNumber":52,"Velocity":41,"Duration":420065,"SoundDuration":420065,"Delta":344627002},{"NoteNumber":67,"Velocity":45,"Duration":206981,"SoundDuration":206981,"Delta":344840085},{"NoteNumber":65,"Velocity":48,"Duration":206982,"SoundDuration":206982,"Delta":345047067},{"NoteNumber":64,"Velocity":45,"Duration":206981,"SoundDuration":206981,"Delta":345254049},{"NoteNumber":62,"Velocity":46,"Duration":213083,"SoundDuration":213083,"Delta":345461031},{"NoteNumber":60,"Velocity":45,"Duration":213083,"SoundDuration":213083,"Delta":345674115},{"NoteNumber":68,"Velocity":39,"Duration":213083,"SoundDuration":213083,"Delta":345887198},{"NoteNumber":80,"Velocity":49,"Duration":213083,"SoundDuration":213083,"Delta":345887198},{"NoteNumber":53,"Velocity":39,"Duration":142055,"SoundDuration":142055,"Delta":345887198},{"NoteNumber":57,"Velocity":31,"Duration":142055,"SoundDuration":142055,"Delta":346029254},{"NoteNumber":69,"Velocity":33,"Duration":213083,"SoundDuration":213083,"Delta":346100282},{"NoteNumber":81,"Velocity":42,"Duration":213083,"SoundDuration":213083,"Delta":346100282},{"NoteNumber":60,"Velocity":31,"Duration":142055,"SoundDuration":142055,"Delta":346171309},{"NoteNumber":68,"Velocity":39,"Duration":209745,"SoundDuration":209745,"Delta":346313365},{"NoteNumber":80,"Velocity":49,"Duration":209745,"SoundDuration":209745,"Delta":346313365},{"NoteNumber":53,"Velocity":39,"Duration":139830,"SoundDuration":139830,"Delta":346313365},{"NoteNumber":57,"Velocity":32,"Duration":139830,"SoundDuration":139830,"Delta":346453196},{"NoteNumber":69,"Velocity":32,"Duration":209745,"SoundDuration":209745,"Delta":346523111},{"NoteNumber":81,"Velocity":41,"Duration":209745,"SoundDuration":209745,"Delta":346523111},{"NoteNumber":60,"Velocity":32,"Duration":139830,"SoundDuration":139830,"Delta":346593026},{"NoteNumber":68,"Velocity":41,"Duration":212841,"SoundDuration":212841,"Delta":346732857},{"NoteNumber":80,"Velocity":52,"Duration":212841,"SoundDuration":212841,"Delta":346732857},{"NoteNumber":53,"Velocity":40,"Duration":141894,"SoundDuration":141894,"Delta":346732857},{"NoteNumber":57,"Velocity":32,"Duration":144046,"SoundDuration":144046,"Delta":346874751},{"NoteNumber":69,"Velocity":38,"Duration":219297,"SoundDuration":219297,"Delta":346945699},{"NoteNumber":81,"Velocity":48,"Duration":219297,"SoundDuration":219297,"Delta":346945699},{"NoteNumber":60,"Velocity":32,"Duration":146198,"SoundDuration":146198,"Delta":347018798},{"NoteNumber":71,"Velocity":46,"Duration":212841,"SoundDuration":212841,"Delta":347164997},{"NoteNumber":83,"Velocity":58,"Duration":212841,"SoundDuration":212841,"Delta":347164997},{"NoteNumber":52,"Velocity":43,"Duration":141894,"SoundDuration":141894,"Delta":347164997},{"NoteNumber":55,"Velocity":36,"Duration":141894,"SoundDuration":141894,"Delta":347306891},{"NoteNumber":72,"Velocity":42,"Duration":212841,"SoundDuration":212841,"Delta":347377838},{"NoteNumber":84,"Velocity":53,"Duration":212841,"SoundDuration":212841,"Delta":347377838},{"NoteNumber":60,"Velocity":35,"Duration":141894,"SoundDuration":141894,"Delta":347448785},{"NoteNumber":71,"Velocity":46,"Duration":209745,"SoundDuration":209745,"Delta":347590680},{"NoteNumber":83,"Velocity":58,"Duration":209745,"SoundDuration":209745,"Delta":347590680},{"NoteNumber":52,"Velocity":40,"Duration":139830,"SoundDuration":139830,"Delta":347590680},{"NoteNumber":55,"Velocity":33,"Duration":139830,"SoundDuration":139830,"Delta":347730510},{"NoteNumber":72,"Velocity":36,"Duration":209745,"SoundDuration":209745,"Delta":347800426},{"NoteNumber":84,"Velocity":46,"Duration":209745,"SoundDuration":209745,"Delta":347800426},{"NoteNumber":60,"Velocity":29,"Duration":139830,"SoundDuration":139830,"Delta":347870341},{"NoteNumber":82,"Velocity":49,"Duration":212841,"SoundDuration":212841,"Delta":348010172},{"NoteNumber":52,"Velocity":37,"Duration":141894,"SoundDuration":141894,"Delta":348010172},{"NoteNumber":58,"Velocity":29,"Duration":141894,"SoundDuration":141894,"Delta":348152066},{"NoteNumber":79,"Velocity":39,"Duration":212841,"SoundDuration":212841,"Delta":348223013},{"NoteNumber":60,"Velocity":29,"Duration":141894,"SoundDuration":141894,"Delta":348293960},{"NoteNumber":79,"Velocity":45,"Duration":213083,"SoundDuration":213083,"Delta":348435855},{"NoteNumber":53,"Velocity":29,"Duration":426167,"SoundDuration":426167,"Delta":348435855},{"NoteNumber":57,"Velocity":35,"Duration":426167,"SoundDuration":426167,"Delta":348435855},{"NoteNumber":77,"Velocity":41,"Duration":213083,"SoundDuration":213083,"Delta":348648938},{"NoteNumber":79,"Velocity":45,"Duration":206981,"SoundDuration":206981,"Delta":348862022},{"NoteNumber":72,"Velocity":41,"Duration":413964,"SoundDuration":413964,"Delta":348862022},{"NoteNumber":57,"Velocity":31,"Duration":413964,"SoundDuration":413964,"Delta":348862022},{"NoteNumber":77,"Velocity":41,"Duration":206982,"SoundDuration":206982,"Delta":349069004},{"NoteNumber":76,"Velocity":41,"Duration":424894,"SoundDuration":424894,"Delta":349275986},{"NoteNumber":81,"Velocity":45,"Duration":206981,"SoundDuration":206981,"Delta":349275986},{"NoteNumber":60,"Velocity":31,"Duration":424894,"SoundDuration":424894,"Delta":349275986},{"NoteNumber":79,"Velocity":45,"Duration":217912,"SoundDuration":217912,"Delta":349482968},{"NoteNumber":76,"Velocity":49,"Duration":852475,"SoundDuration":852475,"Delta":349700880},{"NoteNumber":79,"Velocity":49,"Duration":640954,"SoundDuration":640954,"Delta":349700880},{"NoteNumber":65,"Velocity":35,"Duration":429433,"SoundDuration":429433,"Delta":349700880},{"NoteNumber":60,"Velocity":31,"Duration":423042,"SoundDuration":423042,"Delta":350130314},{"NoteNumber":80,"Velocity":49,"Duration":211521,"SoundDuration":211521,"Delta":350341835},{"NoteNumber":81,"Velocity":45,"Duration":435825,"SoundDuration":435825,"Delta":350553356},{"NoteNumber":77,"Velocity":45,"Duration":435825,"SoundDuration":435825,"Delta":350553356},{"NoteNumber":53,"Velocity":31,"Duration":435825,"SoundDuration":435825,"Delta":350553356},{"NoteNumber":82,"Velocity":49,"Duration":633771,"SoundDuration":633771,"Delta":350989181},{"NoteNumber":62,"Velocity":35,"Duration":221239,"SoundDuration":221239,"Delta":350989181},{"NoteNumber":65,"Velocity":31,"Duration":208478,"SoundDuration":208478,"Delta":351210420},{"NoteNumber":70,"Velocity":32,"Duration":204053,"SoundDuration":204053,"Delta":351418898},{"NoteNumber":84,"Velocity":50,"Duration":52495,"SoundDuration":52495,"Delta":351622952},{"NoteNumber":65,"Velocity":33,"Duration":209981,"SoundDuration":209981,"Delta":351622952},{"NoteNumber":82,"Velocity":46,"Duration":52495,"SoundDuration":52495,"Delta":351675447},{"NoteNumber":81,"Velocity":46,"Duration":52495,"SoundDuration":52495,"Delta":351727942},{"NoteNumber":82,"Velocity":49,"Duration":34996,"SoundDuration":34996,"Delta":351780437},{"NoteNumber":84,"Velocity":53,"Duration":209981,"SoundDuration":209981,"Delta":351832933},{"NoteNumber":62,"Velocity":35,"Duration":209981,"SoundDuration":209981,"Delta":351832933},{"NoteNumber":86,"Velocity":51,"Duration":217912,"SoundDuration":217912,"Delta":352042914},{"NoteNumber":65,"Velocity":38,"Duration":217912,"SoundDuration":217912,"Delta":352042914},{"NoteNumber":86,"Velocity":60,"Duration":206981,"SoundDuration":206981,"Delta":352260826},{"NoteNumber":64,"Velocity":40,"Duration":206981,"SoundDuration":206981,"Delta":352260826},{"NoteNumber":84,"Velocity":53,"Duration":206982,"SoundDuration":206982,"Delta":352467808},{"NoteNumber":67,"Velocity":35,"Duration":206982,"SoundDuration":206982,"Delta":352467808},{"NoteNumber":83,"Velocity":57,"Duration":206981,"SoundDuration":206981,"Delta":352674790},{"NoteNumber":72,"Velocity":42,"Duration":206981,"SoundDuration":206981,"Delta":352674790},{"NoteNumber":84,"Velocity":49,"Duration":206981,"SoundDuration":206981,"Delta":352881772},{"NoteNumber":67,"Velocity":35,"Duration":206981,"SoundDuration":206981,"Delta":352881772},{"NoteNumber":82,"Velocity":55,"Duration":206982,"SoundDuration":206982,"Delta":353088754},{"NoteNumber":64,"Velocity":35,"Duration":206982,"SoundDuration":206982,"Delta":353088754},{"NoteNumber":79,"Velocity":49,"Duration":219570,"SoundDuration":219570,"Delta":353295736},{"NoteNumber":67,"Velocity":34,"Duration":219570,"SoundDuration":219570,"Delta":353295736},{"NoteNumber":80,"Velocity":53,"Duration":213083,"SoundDuration":213083,"Delta":353515307},{"NoteNumber":65,"Velocity":41,"Duration":426167,"SoundDuration":426167,"Delta":353515307},{"NoteNumber":81,"Velocity":49,"Duration":213083,"SoundDuration":213083,"Delta":353728391},{"NoteNumber":84,"Velocity":55,"Duration":205507,"SoundDuration":205507,"Delta":353941474},{"NoteNumber":58,"Velocity":37,"Duration":411015,"SoundDuration":411015,"Delta":353941474},{"NoteNumber":67,"Velocity":37,"Duration":411015,"SoundDuration":411015,"Delta":353941474},{"NoteNumber":82,"Velocity":49,"Duration":205507,"SoundDuration":205507,"Delta":354146982},{"NoteNumber":79,"Velocity":53,"Duration":205507,"SoundDuration":205507,"Delta":354352489},{"NoteNumber":60,"Velocity":35,"Duration":428456,"SoundDuration":428456,"Delta":354352489},{"NoteNumber":70,"Velocity":35,"Duration":428456,"SoundDuration":428456,"Delta":354352489},{"NoteNumber":76,"Velocity":49,"Duration":222949,"SoundDuration":222949,"Delta":354557997},{"NoteNumber":77,"Velocity":54,"Duration":213083,"SoundDuration":213083,"Delta":354780946},{"NoteNumber":69,"Velocity":37,"Duration":417137,"SoundDuration":417137,"Delta":354780946},{"NoteNumber":65,"Velocity":32,"Duration":417137,"SoundDuration":417137,"Delta":354780946},{"NoteNumber":72,"Velocity":35,"Duration":204053,"SoundDuration":204053,"Delta":354994029},{"NoteNumber":69,"Velocity":40,"Duration":408108,"SoundDuration":408108,"Delta":355198083},{"NoteNumber":72,"Velocity":35,"Duration":102026,"SoundDuration":102026,"Delta":355402137},{"NoteNumber":65,"Velocity":37,"Duration":415574,"SoundDuration":415574,"Delta":355606191},{"NoteNumber":72,"Velocity":35,"Duration":105760,"SoundDuration":105760,"Delta":355810245},{"NoteNumber":70,"Velocity":35,"Duration":102753,"SoundDuration":102753,"Delta":356021766},{"NoteNumber":72,"Velocity":42,"Duration":102753,"SoundDuration":102753,"Delta":356021766},{"NoteNumber":67,"Velocity":40,"Duration":411015,"SoundDuration":411015,"Delta":356021766},{"NoteNumber":72,"Velocity":34,"Duration":102753,"SoundDuration":102753,"Delta":356227274},{"NoteNumber":70,"Velocity":29,"Duration":102753,"SoundDuration":102753,"Delta":356227274},{"NoteNumber":64,"Velocity":38,"Duration":408108,"SoundDuration":408108,"Delta":356432781},{"NoteNumber":70,"Velocity":29,"Duration":102027,"SoundDuration":102027,"Delta":356636835},{"NoteNumber":72,"Velocity":34,"Duration":102027,"SoundDuration":102027,"Delta":356636835},{"NoteNumber":60,"Velocity":38,"Duration":418590,"SoundDuration":418590,"Delta":356840889},{"NoteNumber":72,"Velocity":34,"Duration":106541,"SoundDuration":106541,"Delta":357046397},{"NoteNumber":70,"Velocity":29,"Duration":106541,"SoundDuration":106541,"Delta":357046397},{"NoteNumber":68,"Velocity":35,"Duration":100495,"SoundDuration":100495,"Delta":357259480},{"NoteNumber":72,"Velocity":42,"Duration":100495,"SoundDuration":100495,"Delta":357259480},{"NoteNumber":53,"Velocity":40,"Duration":404809,"SoundDuration":404809,"Delta":357259480},{"NoteNumber":68,"Velocity":29,"Duration":101908,"SoundDuration":101908,"Delta":357460472},{"NoteNumber":72,"Velocity":35,"Duration":101908,"SoundDuration":101908,"Delta":357460472},{"NoteNumber":56,"Velocity":40,"Duration":408108,"SoundDuration":408108,"Delta":357664290},{"NoteNumber":68,"Velocity":29,"Duration":102027,"SoundDuration":102027,"Delta":357868344},{"NoteNumber":72,"Velocity":35,"Duration":102027,"SoundDuration":102027,"Delta":357868344},{"NoteNumber":53,"Velocity":37,"Duration":415574,"SoundDuration":415574,"Delta":358072398},{"NoteNumber":72,"Velocity":35,"Duration":105760,"SoundDuration":105760,"Delta":358276452},{"NoteNumber":68,"Velocity":29,"Duration":105760,"SoundDuration":105760,"Delta":358276452},{"NoteNumber":72,"Velocity":42,"Duration":100495,"SoundDuration":100495,"Delta":358487973},{"NoteNumber":70,"Velocity":35,"Duration":100495,"SoundDuration":100495,"Delta":358487973},{"NoteNumber":55,"Velocity":40,"Duration":406259,"SoundDuration":406259,"Delta":358487973},{"NoteNumber":72,"Velocity":34,"Duration":102634,"SoundDuration":102634,"Delta":358688964},{"NoteNumber":70,"Velocity":29,"Duration":102634,"SoundDuration":102634,"Delta":358688964},{"NoteNumber":52,"Velocity":38,"Duration":408108,"SoundDuration":408108,"Delta":358894233},{"NoteNumber":72,"Velocity":34,"Duration":102027,"SoundDuration":102027,"Delta":359098287},{"NoteNumber":70,"Velocity":29,"Duration":102027,"SoundDuration":102027,"Delta":359098287},{"NoteNumber":48,"Velocity":38,"Duration":417137,"SoundDuration":417137,"Delta":359302341},{"NoteNumber":70,"Velocity":29,"Duration":106541,"SoundDuration":106541,"Delta":359506395},{"NoteNumber":72,"Velocity":34,"Duration":106541,"SoundDuration":106541,"Delta":359506395},{"NoteNumber":72,"Velocity":63,"Duration":102027,"SoundDuration":102027,"Delta":359719478},{"NoteNumber":68,"Velocity":63,"Duration":102027,"SoundDuration":102027,"Delta":359719478},{"NoteNumber":41,"Velocity":58,"Duration":408107,"SoundDuration":408107,"Delta":359719478},{"NoteNumber":53,"Velocity":69,"Duration":408107,"SoundDuration":408107,"Delta":359719478},{"NoteNumber":68,"Velocity":50,"Duration":102027,"SoundDuration":102027,"Delta":359923532},{"NoteNumber":72,"Velocity":50,"Duration":102027,"SoundDuration":102027,"Delta":359923532},{"NoteNumber":56,"Velocity":40,"Duration":408108,"SoundDuration":408108,"Delta":360127586},{"NoteNumber":72,"Velocity":33,"Duration":102026,"SoundDuration":102026,"Delta":360331640},{"NoteNumber":68,"Velocity":33,"Duration":102026,"SoundDuration":102026,"Delta":360331640},{"NoteNumber":60,"Velocity":40,"Duration":412531,"SoundDuration":412531,"Delta":360535694},{"NoteNumber":72,"Velocity":33,"Duration":104239,"SoundDuration":104239,"Delta":360739748},{"NoteNumber":68,"Velocity":33,"Duration":104239,"SoundDuration":104239,"Delta":360739748},{"NoteNumber":73,"Velocity":63,"Duration":99906,"SoundDuration":99906,"Delta":360948226},{"NoteNumber":68,"Velocity":63,"Duration":99906,"SoundDuration":99906,"Delta":360948226},{"NoteNumber":58,"Velocity":69,"Duration":403867,"SoundDuration":403867,"Delta":360948226},{"NoteNumber":46,"Velocity":58,"Duration":403867,"SoundDuration":403867,"Delta":360948226},{"NoteNumber":68,"Velocity":50,"Duration":102027,"SoundDuration":102027,"Delta":361148040},{"NoteNumber":73,"Velocity":50,"Duration":102027,"SoundDuration":102027,"Delta":361148040},{"NoteNumber":61,"Velocity":40,"Duration":408108,"SoundDuration":408108,"Delta":361352094},{"NoteNumber":68,"Velocity":33,"Duration":102027,"SoundDuration":102027,"Delta":361556148},{"NoteNumber":73,"Velocity":33,"Duration":102027,"SoundDuration":102027,"Delta":361556148},{"NoteNumber":65,"Velocity":40,"Duration":412531,"SoundDuration":412531,"Delta":361760202},{"NoteNumber":73,"Velocity":33,"Duration":104239,"SoundDuration":104239,"Delta":361964256},{"NoteNumber":68,"Velocity":33,"Duration":104239,"SoundDuration":104239,"Delta":361964256},{"NoteNumber":67,"Velocity":63,"Duration":99225,"SoundDuration":99225,"Delta":362172734},{"NoteNumber":73,"Velocity":63,"Duration":99225,"SoundDuration":99225,"Delta":362172734},{"NoteNumber":51,"Velocity":69,"Duration":402505,"SoundDuration":402505,"Delta":362172734},{"NoteNumber":39,"Velocity":58,"Duration":402505,"SoundDuration":402505,"Delta":362172734},{"NoteNumber":73,"Velocity":50,"Duration":102027,"SoundDuration":102027,"Delta":362371186},{"NoteNumber":67,"Velocity":50,"Duration":102027,"SoundDuration":102027,"Delta":362371186},{"NoteNumber":55,"Velocity":40,"Duration":408108,"SoundDuration":408108,"Delta":362575240},{"NoteNumber":73,"Velocity":33,"Duration":102026,"SoundDuration":102026,"Delta":362779294},{"NoteNumber":67,"Velocity":33,"Duration":102026,"SoundDuration":102026,"Delta":362779294},{"NoteNumber":58,"Velocity":40,"Duration":411035,"SoundDuration":411035,"Delta":362983348},{"NoteNumber":67,"Velocity":33,"Duration":103491,"SoundDuration":103491,"Delta":363187402},{"NoteNumber":73,"Velocity":33,"Duration":103491,"SoundDuration":103491,"Delta":363187402},{"NoteNumber":67,"Velocity":63,"Duration":99225,"SoundDuration":99225,"Delta":363394384},{"NoteNumber":72,"Velocity":63,"Duration":99225,"SoundDuration":99225,"Delta":363394384},{"NoteNumber":44,"Velocity":58,"Duration":402505,"SoundDuration":402505,"Delta":363394384},{"NoteNumber":56,"Velocity":69,"Duration":402505,"SoundDuration":402505,"Delta":363394384},{"NoteNumber":72,"Velocity":50,"Duration":102027,"SoundDuration":102027,"Delta":363592836},{"NoteNumber":67,"Velocity":50,"Duration":102027,"SoundDuration":102027,"Delta":363592836},{"NoteNumber":60,"Velocity":40,"Duration":408108,"SoundDuration":408108,"Delta":363796890},{"NoteNumber":67,"Velocity":33,"Duration":102026,"SoundDuration":102026,"Delta":364000944},{"NoteNumber":72,"Velocity":33,"Duration":102026,"SoundDuration":102026,"Delta":364000944},{"NoteNumber":63,"Velocity":40,"Duration":414035,"SoundDuration":414035,"Delta":364204998},{"NoteNumber":72,"Velocity":33,"Duration":104990,"SoundDuration":104990,"Delta":364409052},{"NoteNumber":67,"Velocity":33,"Duration":104990,"SoundDuration":104990,"Delta":364409052},{"NoteNumber":65,"Velocity":63,"Duration":99906,"SoundDuration":99906,"Delta":364619033},{"NoteNumber":72,"Velocity":63,"Duration":99906,"SoundDuration":99906,"Delta":364619033},{"NoteNumber":37,"Velocity":58,"Duration":399627,"SoundDuration":399627,"Delta":364619033},{"NoteNumber":49,"Velocity":69,"Duration":399627,"SoundDuration":399627,"Delta":364619033},{"NoteNumber":65,"Velocity":50,"Duration":99906,"SoundDuration":99906,"Delta":364818846},{"NoteNumber":72,"Velocity":50,"Duration":99906,"SoundDuration":99906,"Delta":364818846},{"NoteNumber":61,"Velocity":40,"Duration":411015,"SoundDuration":411015,"Delta":365018660},{"NoteNumber":65,"Velocity":33,"Duration":102753,"SoundDuration":102753,"Delta":365224167},{"NoteNumber":72,"Velocity":33,"Duration":102753,"SoundDuration":102753,"Delta":365224167},{"NoteNumber":65,"Velocity":63,"Duration":100603,"SoundDuration":100603,"Delta":365429675},{"NoteNumber":70,"Velocity":63,"Duration":100603,"SoundDuration":100603,"Delta":365429675},{"NoteNumber":55,"Velocity":69,"Duration":402414,"SoundDuration":402414,"Delta":365429675},{"NoteNumber":43,"Velocity":58,"Duration":402414,"SoundDuration":402414,"Delta":365429675},{"NoteNumber":70,"Velocity":50,"Duration":100603,"SoundDuration":100603,"Delta":365630882},{"NoteNumber":65,"Velocity":50,"Duration":100603,"SoundDuration":100603,"Delta":365630882},{"NoteNumber":67,"Velocity":40,"Duration":408108,"SoundDuration":408108,"Delta":365832089},{"NoteNumber":65,"Velocity":33,"Duration":102027,"SoundDuration":102027,"Delta":366036143},{"NoteNumber":70,"Velocity":33,"Duration":102027,"SoundDuration":102027,"Delta":366036143},{"NoteNumber":70,"Velocity":63,"Duration":99225,"SoundDuration":99225,"Delta":366240197},{"NoteNumber":64,"Velocity":63,"Duration":99225,"SoundDuration":99225,"Delta":366240197},{"NoteNumber":36,"Velocity":58,"Duration":396904,"SoundDuration":396904,"Delta":366240197},{"NoteNumber":48,"Velocity":69,"Duration":396904,"SoundDuration":396904,"Delta":366240197},{"NoteNumber":64,"Velocity":50,"Duration":99226,"SoundDuration":99226,"Delta":366438649},{"NoteNumber":70,"Velocity":50,"Duration":99226,"SoundDuration":99226,"Delta":366438649},{"NoteNumber":60,"Velocity":40,"Duration":408108,"SoundDuration":408108,"Delta":366637101},{"NoteNumber":64,"Velocity":33,"Duration":102027,"SoundDuration":102027,"Delta":366841155},{"NoteNumber":70,"Velocity":33,"Duration":102027,"SoundDuration":102027,"Delta":366841155},{"NoteNumber":61,"Velocity":45,"Duration":402414,"SoundDuration":402414,"Delta":367045209},{"NoteNumber":68,"Velocity":33,"Duration":100603,"SoundDuration":100603,"Delta":367246416},{"NoteNumber":65,"Velocity":33,"Duration":100603,"SoundDuration":100603,"Delta":367246416},{"NoteNumber":60,"Velocity":39,"Duration":408108,"SoundDuration":408108,"Delta":367447623},{"NoteNumber":68,"Velocity":33,"Duration":102027,"SoundDuration":102027,"Delta":367651677},{"NoteNumber":65,"Velocity":33,"Duration":102027,"SoundDuration":102027,"Delta":367651677},{"NoteNumber":59,"Velocity":39,"Duration":413964,"SoundDuration":413964,"Delta":367855731},{"NoteNumber":65,"Velocity":33,"Duration":103491,"SoundDuration":103491,"Delta":368062713},{"NoteNumber":68,"Velocity":33,"Duration":103491,"SoundDuration":103491,"Delta":368062713},{"NoteNumber":64,"Velocity":32,"Duration":211521,"SoundDuration":211521,"Delta":368269695},{"NoteNumber":67,"Velocity":38,"Duration":211521,"SoundDuration":211521,"Delta":368269695},{"NoteNumber":60,"Velocity":44,"Duration":415574,"SoundDuration":415574,"Delta":368269695},{"NoteNumber":68,"Velocity":31,"Duration":212556,"SoundDuration":212556,"Delta":368481216},{"NoteNumber":72,"Velocity":37,"Duration":212556,"SoundDuration":212556,"Delta":368481216},{"NoteNumber":70,"Velocity":33,"Duration":212556,"SoundDuration":212556,"Delta":368685270},{"NoteNumber":67,"Velocity":28,"Duration":212556,"SoundDuration":212556,"Delta":368685270},{"NoteNumber":65,"Velocity":26,"Duration":212556,"SoundDuration":212556,"Delta":368889324},{"NoteNumber":68,"Velocity":31,"Duration":212556,"SoundDuration":212556,"Delta":368889324},{"NoteNumber":64,"Velocity":28,"Duration":212932,"SoundDuration":212932,"Delta":369093378},{"NoteNumber":67,"Velocity":33,"Duration":212932,"SoundDuration":212932,"Delta":369093378},{"NoteNumber":68,"Velocity":30,"Duration":221585,"SoundDuration":221585,"Delta":369297432},{"NoteNumber":65,"Velocity":25,"Duration":221585,"SoundDuration":221585,"Delta":369297432},{"NoteNumber":59,"Velocity":41,"Duration":213083,"SoundDuration":213083,"Delta":369297432},{"NoteNumber":64,"Velocity":32,"Duration":204053,"SoundDuration":204053,"Delta":369510515},{"NoteNumber":67,"Velocity":38,"Duration":204053,"SoundDuration":204053,"Delta":369510515},{"NoteNumber":60,"Velocity":44,"Duration":408108,"SoundDuration":408108,"Delta":369510515},{"NoteNumber":72,"Velocity":37,"Duration":212556,"SoundDuration":212556,"Delta":369714569},{"NoteNumber":68,"Velocity":31,"Duration":212556,"SoundDuration":212556,"Delta":369714569},{"NoteNumber":67,"Velocity":28,"Duration":212556,"SoundDuration":212556,"Delta":369918623},{"NoteNumber":70,"Velocity":33,"Duration":212556,"SoundDuration":212556,"Delta":369918623},{"NoteNumber":65,"Velocity":26,"Duration":212556,"SoundDuration":212556,"Delta":370122677},{"NoteNumber":68,"Velocity":31,"Duration":212556,"SoundDuration":212556,"Delta":370122677},{"NoteNumber":67,"Velocity":33,"Duration":212867,"SoundDuration":212867,"Delta":370326731},{"NoteNumber":64,"Velocity":28,"Duration":212867,"SoundDuration":212867,"Delta":370326731},{"NoteNumber":65,"Velocity":25,"Duration":219954,"SoundDuration":219954,"Delta":370530785},{"NoteNumber":68,"Velocity":30,"Duration":219954,"SoundDuration":219954,"Delta":370530785},{"NoteNumber":59,"Velocity":32,"Duration":219954,"SoundDuration":219954,"Delta":370530785},{"NoteNumber":67,"Velocity":37,"Duration":211016,"SoundDuration":211016,"Delta":370742306},{"NoteNumber":64,"Velocity":31,"Duration":211016,"SoundDuration":211016,"Delta":370742306},{"NoteNumber":60,"Velocity":39,"Duration":211016,"SoundDuration":211016,"Delta":370742306},{"NoteNumber":68,"Velocity":32,"Duration":215172,"SoundDuration":215172,"Delta":370944708},{"NoteNumber":65,"Velocity":27,"Duration":215172,"SoundDuration":215172,"Delta":370944708},{"NoteNumber":59,"Velocity":35,"Duration":215172,"SoundDuration":215172,"Delta":370944708},{"NoteNumber":64,"Velocity":31,"Duration":211016,"SoundDuration":211016,"Delta":371151448},{"NoteNumber":67,"Velocity":37,"Duration":211016,"SoundDuration":211016,"Delta":371151448},{"NoteNumber":60,"Velocity":39,"Duration":211016,"SoundDuration":211016,"Delta":371151448},{"NoteNumber":65,"Velocity":28,"Duration":215172,"SoundDuration":215172,"Delta":371353850},{"NoteNumber":68,"Velocity":34,"Duration":215172,"SoundDuration":215172,"Delta":371353850},{"NoteNumber":59,"Velocity":31,"Duration":215172,"SoundDuration":215172,"Delta":371353850},{"NoteNumber":67,"Velocity":37,"Duration":211141,"SoundDuration":211141,"Delta":371560589},{"NoteNumber":64,"Velocity":31,"Duration":211141,"SoundDuration":211141,"Delta":371560589},{"NoteNumber":60,"Velocity":39,"Duration":211141,"SoundDuration":211141,"Delta":371560589},{"NoteNumber":68,"Velocity":34,"Duration":218238,"SoundDuration":218238,"Delta":371762991},{"NoteNumber":65,"Velocity":28,"Duration":218238,"SoundDuration":218238,"Delta":371762991},{"NoteNumber":59,"Velocity":32,"Duration":218238,"SoundDuration":218238,"Delta":371762991},{"NoteNumber":64,"Velocity":31,"Duration":203818,"SoundDuration":203818,"Delta":371972737},{"NoteNumber":67,"Velocity":37,"Duration":203818,"SoundDuration":203818,"Delta":371972737},{"NoteNumber":60,"Velocity":38,"Duration":407657,"SoundDuration":407657,"Delta":371972737},{"NoteNumber":66,"Velocity":33,"Duration":212341,"SoundDuration":212341,"Delta":372176555},{"NoteNumber":63,"Velocity":33,"Duration":212341,"SoundDuration":212341,"Delta":372176555},{"NoteNumber":64,"Velocity":35,"Duration":213673,"SoundDuration":213673,"Delta":372380395},{"NoteNumber":67,"Velocity":35,"Duration":213673,"SoundDuration":213673,"Delta":372380395},{"NoteNumber":69,"Velocity":36,"Duration":216754,"SoundDuration":216754,"Delta":372585444},{"NoteNumber":66,"Velocity":36,"Duration":216754,"SoundDuration":216754,"Delta":372585444},{"NoteNumber":70,"Velocity":38,"Duration":220923,"SoundDuration":220923,"Delta":372793449},{"NoteNumber":67,"Velocity":38,"Duration":220923,"SoundDuration":220923,"Delta":372793449},{"NoteNumber":72,"Velocity":40,"Duration":246172,"SoundDuration":246172,"Delta":373004484},{"NoteNumber":69,"Velocity":40,"Duration":246172,"SoundDuration":246172,"Delta":373004484},{"NoteNumber":74,"Velocity":42,"Duration":425682,"SoundDuration":425682,"Delta":373241788},{"NoteNumber":70,"Velocity":35,"Duration":425682,"SoundDuration":425682,"Delta":373241788},{"NoteNumber":58,"Velocity":33,"Duration":425682,"SoundDuration":425682,"Delta":373241788},{"NoteNumber":65,"Velocity":34,"Duration":425682,"SoundDuration":425682,"Delta":373667471},{"NoteNumber":70,"Velocity":34,"Duration":425682,"SoundDuration":425682,"Delta":373667471},{"NoteNumber":74,"Velocity":40,"Duration":425682,"SoundDuration":425682,"Delta":373667471},{"NoteNumber":58,"Velocity":31,"Duration":425682,"SoundDuration":425682,"Delta":373667471},{"NoteNumber":70,"Velocity":34,"Duration":432556,"SoundDuration":432556,"Delta":374093154},{"NoteNumber":74,"Velocity":40,"Duration":432556,"SoundDuration":432556,"Delta":374093154},{"NoteNumber":65,"Velocity":34,"Duration":432556,"SoundDuration":432556,"Delta":374093154},{"NoteNumber":58,"Velocity":31,"Duration":432556,"SoundDuration":432556,"Delta":374093154},{"NoteNumber":74,"Velocity":42,"Duration":846084,"SoundDuration":846084,"Delta":374525711},{"NoteNumber":65,"Velocity":35,"Duration":1284680,"SoundDuration":1284680,"Delta":374525711},{"NoteNumber":70,"Velocity":35,"Duration":846084,"SoundDuration":846084,"Delta":374525711},{"NoteNumber":58,"Velocity":33,"Duration":846084,"SoundDuration":846084,"Delta":374525711},{"NoteNumber":69,"Velocity":28,"Duration":438596,"SoundDuration":438596,"Delta":375371795},{"NoteNumber":72,"Velocity":34,"Duration":438596,"SoundDuration":438596,"Delta":375371795},{"NoteNumber":53,"Velocity":31,"Duration":438596,"SoundDuration":438596,"Delta":375371795},{"NoteNumber":64,"Velocity":35,"Duration":421561,"SoundDuration":421561,"Delta":375810391},{"NoteNumber":67,"Velocity":35,"Duration":421561,"SoundDuration":421561,"Delta":375810391},{"NoteNumber":72,"Velocity":42,"Duration":208478,"SoundDuration":208478,"Delta":375810391},{"NoteNumber":48,"Velocity":33,"Duration":421561,"SoundDuration":421561,"Delta":375810391},{"NoteNumber":70,"Velocity":38,"Duration":213083,"SoundDuration":213083,"Delta":376018869},{"NoteNumber":70,"Velocity":42,"Duration":426167,"SoundDuration":426167,"Delta":376231953},{"NoteNumber":64,"Velocity":35,"Duration":426167,"SoundDuration":426167,"Delta":376231953},{"NoteNumber":67,"Velocity":35,"Duration":426167,"SoundDuration":426167,"Delta":376231953},{"NoteNumber":48,"Velocity":30,"Duration":426167,"SoundDuration":426167,"Delta":376231953},{"NoteNumber":70,"Velocity":38,"Duration":439142,"SoundDuration":439142,"Delta":376658120},{"NoteNumber":67,"Velocity":32,"Duration":439142,"SoundDuration":439142,"Delta":376658120},{"NoteNumber":64,"Velocity":32,"Duration":439142,"SoundDuration":439142,"Delta":376658120},{"NoteNumber":48,"Velocity":30,"Duration":439142,"SoundDuration":439142,"Delta":376658120},{"NoteNumber":64,"Velocity":35,"Duration":846084,"SoundDuration":846084,"Delta":377097262},{"NoteNumber":67,"Velocity":35,"Duration":846084,"SoundDuration":846084,"Delta":377097262},{"NoteNumber":70,"Velocity":42,"Duration":846084,"SoundDuration":846084,"Delta":377097262},{"NoteNumber":48,"Velocity":33,"Duration":846084,"SoundDuration":846084,"Delta":377097262},{"NoteNumber":69,"Velocity":39,"Duration":429337,"SoundDuration":429337,"Delta":377943346},{"NoteNumber":65,"Velocity":33,"Duration":429337,"SoundDuration":429337,"Delta":377943346},{"NoteNumber":50,"Velocity":30,"Duration":429337,"SoundDuration":429337,"Delta":377943346},{"NoteNumber":72,"Velocity":42,"Duration":205507,"SoundDuration":205507,"Delta":378372684},{"NoteNumber":69,"Velocity":35,"Duration":205507,"SoundDuration":205507,"Delta":378372684},{"NoteNumber":46,"Velocity":33,"Duration":415488,"SoundDuration":415488,"Delta":378372684},{"NoteNumber":70,"Velocity":37,"Duration":209981,"SoundDuration":209981,"Delta":378578191},{"NoteNumber":67,"Velocity":31,"Duration":209981,"SoundDuration":209981,"Delta":378578191},{"NoteNumber":65,"Velocity":35,"Duration":419961,"SoundDuration":419961,"Delta":378788172},{"NoteNumber":69,"Velocity":42,"Duration":419961,"SoundDuration":419961,"Delta":378788172},{"NoteNumber":48,"Velocity":32,"Duration":419961,"SoundDuration":419961,"Delta":378788172},{"NoteNumber":64,"Velocity":30,"Duration":426167,"SoundDuration":426167,"Delta":379208134},{"NoteNumber":67,"Velocity":36,"Duration":426167,"SoundDuration":426167,"Delta":379208134},{"NoteNumber":48,"Velocity":32,"Duration":426167,"SoundDuration":426167,"Delta":379208134},{"NoteNumber":65,"Velocity":35,"Duration":219570,"SoundDuration":219570,"Delta":379634301},{"NoteNumber":69,"Velocity":42,"Duration":219570,"SoundDuration":219570,"Delta":379634301},{"NoteNumber":53,"Velocity":33,"Duration":430133,"SoundDuration":430133,"Delta":379634301},{"NoteNumber":77,"Velocity":35,"Duration":193064,"SoundDuration":193064,"Delta":379853872},{"NoteNumber":79,"Velocity":37,"Duration":191762,"SoundDuration":191762,"Delta":380064435},{"NoteNumber":81,"Velocity":38,"Duration":190575,"SoundDuration":190575,"Delta":380273570},{"NoteNumber":82,"Velocity":40,"Duration":189395,"SoundDuration":189395,"Delta":380481394},{"NoteNumber":84,"Velocity":41,"Duration":188230,"SoundDuration":188230,"Delta":380687915},{"NoteNumber":86,"Velocity":46,"Duration":426167,"SoundDuration":426167,"Delta":380893150},{"NoteNumber":65,"Velocity":28,"Duration":426167,"SoundDuration":426167,"Delta":380893150},{"NoteNumber":70,"Velocity":33,"Duration":426167,"SoundDuration":426167,"Delta":380893150},{"NoteNumber":86,"Velocity":44,"Duration":426166,"SoundDuration":426166,"Delta":381319317},{"NoteNumber":65,"Velocity":26,"Duration":426166,"SoundDuration":426166,"Delta":381319317},{"NoteNumber":70,"Velocity":31,"Duration":426166,"SoundDuration":426166,"Delta":381319317},{"NoteNumber":86,"Velocity":44,"Duration":432556,"SoundDuration":432556,"Delta":381745484},{"NoteNumber":70,"Velocity":31,"Duration":432556,"SoundDuration":432556,"Delta":381745484},{"NoteNumber":65,"Velocity":26,"Duration":432556,"SoundDuration":432556,"Delta":381745484},{"NoteNumber":86,"Velocity":46,"Duration":634563,"SoundDuration":634563,"Delta":382178041},{"NoteNumber":70,"Velocity":33,"Duration":846084,"SoundDuration":846084,"Delta":382178041},{"NoteNumber":65,"Velocity":28,"Duration":1278640,"SoundDuration":1278640,"Delta":382178041},{"NoteNumber":88,"Velocity":39,"Duration":105760,"SoundDuration":105760,"Delta":382812604},{"NoteNumber":86,"Velocity":39,"Duration":105760,"SoundDuration":105760,"Delta":382918365},{"NoteNumber":84,"Velocity":46,"Duration":432556,"SoundDuration":432556,"Delta":383024125},{"NoteNumber":69,"Velocity":31,"Duration":432556,"SoundDuration":432556,"Delta":383024125},{"NoteNumber":84,"Velocity":46,"Duration":208478,"SoundDuration":208478,"Delta":383456682},{"NoteNumber":76,"Velocity":35,"Duration":421561,"SoundDuration":421561,"Delta":383456682},{"NoteNumber":60,"Velocity":28,"Duration":421561,"SoundDuration":421561,"Delta":383456682},{"NoteNumber":67,"Velocity":33,"Duration":421561,"SoundDuration":421561,"Delta":383456682},{"NoteNumber":82,"Velocity":41,"Duration":213083,"SoundDuration":213083,"Delta":383665160},{"NoteNumber":76,"Velocity":35,"Duration":426167,"SoundDuration":426167,"Delta":383878244},{"NoteNumber":82,"Velocity":46,"Duration":426167,"SoundDuration":426167,"Delta":383878244},{"NoteNumber":67,"Velocity":30,"Duration":426167,"SoundDuration":426167,"Delta":383878244},{"NoteNumber":60,"Velocity":25,"Duration":426167,"SoundDuration":426167,"Delta":383878244},{"NoteNumber":82,"Velocity":41,"Duration":439142,"SoundDuration":439142,"Delta":384304411},{"NoteNumber":76,"Velocity":32,"Duration":439142,"SoundDuration":439142,"Delta":384304411},{"NoteNumber":67,"Velocity":30,"Duration":439142,"SoundDuration":439142,"Delta":384304411},{"NoteNumber":60,"Velocity":25,"Duration":439142,"SoundDuration":439142,"Delta":384304411},{"NoteNumber":76,"Velocity":35,"Duration":846084,"SoundDuration":846084,"Delta":384743553},{"NoteNumber":82,"Velocity":46,"Duration":846084,"SoundDuration":846084,"Delta":384743553},{"NoteNumber":60,"Velocity":28,"Duration":846084,"SoundDuration":846084,"Delta":384743553},{"NoteNumber":67,"Velocity":33,"Duration":846084,"SoundDuration":846084,"Delta":384743553},{"NoteNumber":81,"Velocity":42,"Duration":429337,"SoundDuration":429337,"Delta":385589637},{"NoteNumber":77,"Velocity":33,"Duration":429337,"SoundDuration":429337,"Delta":385589637},{"NoteNumber":65,"Velocity":30,"Duration":429337,"SoundDuration":429337,"Delta":385589637},{"NoteNumber":62,"Velocity":25,"Duration":429337,"SoundDuration":429337,"Delta":385589637},{"NoteNumber":84,"Velocity":46,"Duration":205507,"SoundDuration":205507,"Delta":386018975},{"NoteNumber":81,"Velocity":35,"Duration":205507,"SoundDuration":205507,"Delta":386018975},{"NoteNumber":58,"Velocity":33,"Duration":415488,"SoundDuration":415488,"Delta":386018975},{"NoteNumber":82,"Velocity":40,"Duration":209981,"SoundDuration":209981,"Delta":386224482},{"NoteNumber":79,"Velocity":31,"Duration":209981,"SoundDuration":209981,"Delta":386224482},{"NoteNumber":81,"Velocity":46,"Duration":419961,"SoundDuration":419961,"Delta":386434463},{"NoteNumber":77,"Velocity":35,"Duration":419961,"SoundDuration":419961,"Delta":386434463},{"NoteNumber":60,"Velocity":32,"Duration":419961,"SoundDuration":419961,"Delta":386434463},{"NoteNumber":76,"Velocity":30,"Duration":426167,"SoundDuration":426167,"Delta":386854425},{"NoteNumber":79,"Velocity":39,"Duration":426167,"SoundDuration":426167,"Delta":386854425},{"NoteNumber":58,"Velocity":32,"Duration":426167,"SoundDuration":426167,"Delta":386854425},{"NoteNumber":84,"Velocity":63,"Duration":99906,"SoundDuration":99906,"Delta":387280592},{"NoteNumber":81,"Velocity":63,"Duration":99906,"SoundDuration":99906,"Delta":387280592},{"NoteNumber":45,"Velocity":58,"Duration":199813,"SoundDuration":199813,"Delta":387280592},{"NoteNumber":57,"Velocity":69,"Duration":199813,"SoundDuration":199813,"Delta":387280592},{"NoteNumber":84,"Velocity":50,"Duration":99906,"SoundDuration":99906,"Delta":387480406},{"NoteNumber":81,"Velocity":50,"Duration":99906,"SoundDuration":99906,"Delta":387480406},{"NoteNumber":61,"Velocity":40,"Duration":100603,"SoundDuration":100603,"Delta":387680219},{"NoteNumber":79,"Velocity":33,"Duration":100603,"SoundDuration":100603,"Delta":387881426},{"NoteNumber":82,"Velocity":33,"Duration":100603,"SoundDuration":100603,"Delta":387881426},{"NoteNumber":62,"Velocity":40,"Duration":102027,"SoundDuration":102027,"Delta":388082633},{"NoteNumber":77,"Velocity":33,"Duration":102027,"SoundDuration":102027,"Delta":388286687},{"NoteNumber":81,"Velocity":33,"Duration":102027,"SoundDuration":102027,"Delta":388286687},{"NoteNumber":58,"Velocity":40,"Duration":102027,"SoundDuration":102027,"Delta":388490741},{"NoteNumber":79,"Velocity":33,"Duration":102027,"SoundDuration":102027,"Delta":388694795},{"NoteNumber":70,"Velocity":33,"Duration":102027,"SoundDuration":102027,"Delta":388694795},{"NoteNumber":60,"Velocity":40,"Duration":99906,"SoundDuration":99906,"Delta":388898849},{"NoteNumber":77,"Velocity":33,"Duration":99906,"SoundDuration":99906,"Delta":389098663},{"NoteNumber":69,"Velocity":33,"Duration":99906,"SoundDuration":99906,"Delta":389098663},{"NoteNumber":58,"Velocity":40,"Duration":102753,"SoundDuration":102753,"Delta":389298476},{"NoteNumber":67,"Velocity":33,"Duration":102753,"SoundDuration":102753,"Delta":389503984},{"NoteNumber":76,"Velocity":33,"Duration":102753,"SoundDuration":102753,"Delta":389503984},{"NoteNumber":45,"Velocity":75,"Duration":102753,"SoundDuration":102753,"Delta":389709491},{"NoteNumber":57,"Velocity":75,"Duration":102753,"SoundDuration":102753,"Delta":389709491},{"NoteNumber":81,"Velocity":72,"Duration":102753,"SoundDuration":102753,"Delta":389812245},{"NoteNumber":84,"Velocity":75,"Duration":102753,"SoundDuration":102753,"Delta":389914999},{"NoteNumber":81,"Velocity":72,"Duration":102753,"SoundDuration":102753,"Delta":390017752},{"NoteNumber":49,"Velocity":73,"Duration":99906,"SoundDuration":99906,"Delta":390120506},{"NoteNumber":61,"Velocity":73,"Duration":99906,"SoundDuration":99906,"Delta":390120506},{"NoteNumber":79,"Velocity":70,"Duration":99906,"SoundDuration":99906,"Delta":390220413},{"NoteNumber":82,"Velocity":75,"Duration":99906,"SoundDuration":99906,"Delta":390320320},{"NoteNumber":79,"Velocity":70,"Duration":99906,"SoundDuration":99906,"Delta":390420226},{"NoteNumber":62,"Velocity":73,"Duration":102753,"SoundDuration":102753,"Delta":390520133},{"NoteNumber":50,"Velocity":73,"Duration":102753,"SoundDuration":102753,"Delta":390520133},{"NoteNumber":77,"Velocity":72,"Duration":102753,"SoundDuration":102753,"Delta":390622887},{"NoteNumber":81,"Velocity":75,"Duration":102753,"SoundDuration":102753,"Delta":390725641},{"NoteNumber":77,"Velocity":71,"Duration":102753,"SoundDuration":102753,"Delta":390828394},{"NoteNumber":46,"Velocity":75,"Duration":101310,"SoundDuration":101310,"Delta":390931148},{"NoteNumber":58,"Velocity":75,"Duration":101310,"SoundDuration":101310,"Delta":390931148},{"NoteNumber":70,"Velocity":71,"Duration":101310,"SoundDuration":101310,"Delta":391032458},{"NoteNumber":79,"Velocity":75,"Duration":101310,"SoundDuration":101310,"Delta":391133769},{"NoteNumber":70,"Velocity":71,"Duration":101310,"SoundDuration":101310,"Delta":391235079},{"NoteNumber":60,"Velocity":73,"Duration":100603,"SoundDuration":100603,"Delta":391336389},{"NoteNumber":48,"Velocity":73,"Duration":100603,"SoundDuration":100603,"Delta":391336389},{"NoteNumber":69,"Velocity":71,"Duration":100603,"SoundDuration":100603,"Delta":391436993},{"NoteNumber":77,"Velocity":75,"Duration":100603,"SoundDuration":100603,"Delta":391537596},{"NoteNumber":69,"Velocity":71,"Duration":100603,"SoundDuration":100603,"Delta":391638200},{"NoteNumber":48,"Velocity":73,"Duration":103491,"SoundDuration":103491,"Delta":391738803},{"NoteNumber":36,"Velocity":73,"Duration":103491,"SoundDuration":103491,"Delta":391738803},{"NoteNumber":67,"Velocity":71,"Duration":103490,"SoundDuration":103490,"Delta":391842294},{"NoteNumber":76,"Velocity":75,"Duration":103491,"SoundDuration":103491,"Delta":391945785},{"NoteNumber":67,"Velocity":71,"Duration":103587,"SoundDuration":103587,"Delta":392049276},{"NoteNumber":69,"Velocity":75,"Duration":412675,"SoundDuration":412675,"Delta":392152863},{"NoteNumber":72,"Velocity":75,"Duration":412675,"SoundDuration":412675,"Delta":392152863},{"NoteNumber":77,"Velocity":75,"Duration":412675,"SoundDuration":412675,"Delta":392152863},{"NoteNumber":41,"Velocity":64,"Duration":101850,"SoundDuration":101850,"Delta":392152863},{"NoteNumber":45,"Velocity":59,"Duration":104928,"SoundDuration":104928,"Delta":392254714},{"NoteNumber":48,"Velocity":59,"Duration":102871,"SoundDuration":102871,"Delta":392359642},{"NoteNumber":53,"Velocity":59,"Duration":103025,"SoundDuration":103025,"Delta":392462513},{"NoteNumber":41,"Velocity":63,"Duration":101501,"SoundDuration":101501,"Delta":392565539},{"NoteNumber":45,"Velocity":58,"Duration":101158,"SoundDuration":101158,"Delta":392667040},{"NoteNumber":48,"Velocity":58,"Duration":103559,"SoundDuration":103559,"Delta":392768199},{"NoteNumber":53,"Velocity":58,"Duration":102193,"SoundDuration":102193,"Delta":392871758},{"NoteNumber":69,"Velocity":70,"Duration":51317,"SoundDuration":51317,"Delta":392973951},{"NoteNumber":41,"Velocity":63,"Duration":103003,"SoundDuration":103003,"Delta":392973951},{"NoteNumber":70,"Velocity":65,"Duration":51686,"SoundDuration":51686,"Delta":393025268},{"NoteNumber":69,"Velocity":70,"Duration":52152,"SoundDuration":52152,"Delta":393076954},{"NoteNumber":45,"Velocity":57,"Duration":104877,"SoundDuration":104877,"Delta":393076954},{"NoteNumber":70,"Velocity":66,"Duration":52724,"SoundDuration":52724,"Delta":393129107},{"NoteNumber":69,"Velocity":70,"Duration":35376,"SoundDuration":35376,"Delta":393181832},{"NoteNumber":48,"Velocity":58,"Duration":106913,"SoundDuration":106913,"Delta":393181832},{"NoteNumber":70,"Velocity":66,"Duration":35702,"SoundDuration":35702,"Delta":393217208},{"NoteNumber":69,"Velocity":66,"Duration":35835,"SoundDuration":35835,"Delta":393252910},{"NoteNumber":67,"Velocity":70,"Duration":54309,"SoundDuration":54309,"Delta":393288745},{"NoteNumber":53,"Velocity":58,"Duration":108719,"SoundDuration":108719,"Delta":393288745},{"NoteNumber":65,"Velocity":66,"Duration":54410,"SoundDuration":54410,"Delta":393343054},{"NoteNumber":72,"Velocity":75,"Duration":810178,"SoundDuration":810178,"Delta":393397465},{"NoteNumber":41,"Velocity":63,"Duration":100860,"SoundDuration":100860,"Delta":393397465},{"NoteNumber":45,"Velocity":58,"Duration":102209,"SoundDuration":102209,"Delta":393498325},{"NoteNumber":48,"Velocity":59,"Duration":100179,"SoundDuration":100179,"Delta":393600534},{"NoteNumber":53,"Velocity":59,"Duration":100323,"SoundDuration":100323,"Delta":393700714},{"NoteNumber":41,"Velocity":63,"Duration":103818,"SoundDuration":103818,"Delta":393801037},{"NoteNumber":45,"Velocity":57,"Duration":99944,"SoundDuration":99944,"Delta":393904856},{"NoteNumber":48,"Velocity":57,"Duration":101891,"SoundDuration":101891,"Delta":394004801},{"NoteNumber":53,"Velocity":57,"Duration":100951,"SoundDuration":100951,"Delta":394106692},{"NoteNumber":76,"Velocity":70,"Duration":51409,"SoundDuration":51409,"Delta":394207643},{"NoteNumber":41,"Velocity":63,"Duration":103187,"SoundDuration":103187,"Delta":394207643},{"NoteNumber":77,"Velocity":66,"Duration":51778,"SoundDuration":51778,"Delta":394259053},{"NoteNumber":76,"Velocity":70,"Duration":52152,"SoundDuration":52152,"Delta":394310831},{"NoteNumber":46,"Velocity":57,"Duration":104877,"SoundDuration":104877,"Delta":394310831},{"NoteNumber":77,"Velocity":66,"Duration":52724,"SoundDuration":52724,"Delta":394362983},{"NoteNumber":76,"Velocity":70,"Duration":35376,"SoundDuration":35376,"Delta":394415708},{"NoteNumber":48,"Velocity":57,"Duration":106617,"SoundDuration":106617,"Delta":394415708},{"NoteNumber":77,"Velocity":65,"Duration":35506,"SoundDuration":35506,"Delta":394451084},{"NoteNumber":76,"Velocity":66,"Duration":35734,"SoundDuration":35734,"Delta":394486590},{"NoteNumber":74,"Velocity":70,"Duration":54004,"SoundDuration":54004,"Delta":394522325},{"NoteNumber":55,"Velocity":57,"Duration":107642,"SoundDuration":107642,"Delta":394522325},{"NoteNumber":72,"Velocity":65,"Duration":53637,"SoundDuration":53637,"Delta":394576330},{"NoteNumber":77,"Velocity":75,"Duration":821074,"SoundDuration":821074,"Delta":394629967},{"NoteNumber":41,"Velocity":63,"Duration":102634,"SoundDuration":102634,"Delta":394629967},{"NoteNumber":45,"Velocity":57,"Duration":102634,"SoundDuration":102634,"Delta":394732602},{"NoteNumber":48,"Velocity":57,"Duration":102634,"SoundDuration":102634,"Delta":394835236},{"NoteNumber":53,"Velocity":57,"Duration":102634,"SoundDuration":102634,"Delta":394937870},{"NoteNumber":41,"Velocity":63,"Duration":102634,"SoundDuration":102634,"Delta":395040504},{"NoteNumber":45,"Velocity":57,"Duration":102634,"SoundDuration":102634,"Delta":395143139},{"NoteNumber":48,"Velocity":57,"Duration":102634,"SoundDuration":102634,"Delta":395245773},{"NoteNumber":53,"Velocity":57,"Duration":102634,"SoundDuration":102634,"Delta":395348407},{"NoteNumber":81,"Velocity":70,"Duration":51317,"SoundDuration":51317,"Delta":395451041},{"NoteNumber":41,"Velocity":63,"Duration":102879,"SoundDuration":102879,"Delta":395451041},{"NoteNumber":82,"Velocity":65,"Duration":51562,"SoundDuration":51562,"Delta":395502358},{"NoteNumber":81,"Velocity":70,"Duration":52089,"SoundDuration":52089,"Delta":395553921},{"NoteNumber":45,"Velocity":57,"Duration":104750,"SoundDuration":104750,"Delta":395553921},{"NoteNumber":82,"Velocity":66,"Duration":52660,"SoundDuration":52660,"Delta":395606011},{"NoteNumber":81,"Velocity":70,"Duration":35311,"SoundDuration":35311,"Delta":395658671},{"NoteNumber":48,"Velocity":58,"Duration":106716,"SoundDuration":106716,"Delta":395658671},{"NoteNumber":82,"Velocity":66,"Duration":35636,"SoundDuration":35636,"Delta":395693982},{"NoteNumber":81,"Velocity":66,"Duration":35768,"SoundDuration":35768,"Delta":395729619},{"NoteNumber":79,"Velocity":70,"Duration":54241,"SoundDuration":54241,"Delta":395765387},{"NoteNumber":53,"Velocity":58,"Duration":108652,"SoundDuration":108652,"Delta":395765387},{"NoteNumber":77,"Velocity":66,"Duration":54410,"SoundDuration":54410,"Delta":395819629},{"NoteNumber":84,"Velocity":75,"Duration":203850,"SoundDuration":203850,"Delta":395874039},{"NoteNumber":41,"Velocity":63,"Duration":101405,"SoundDuration":101405,"Delta":395874039},{"NoteNumber":45,"Velocity":58,"Duration":102445,"SoundDuration":102445,"Delta":395975445},{"NoteNumber":48,"Velocity":59,"Duration":100086,"SoundDuration":100086,"Delta":396077890},{"NoteNumber":53,"Velocity":59,"Duration":100457,"SoundDuration":100457,"Delta":396177976},{"NoteNumber":41,"Velocity":63,"Duration":103408,"SoundDuration":103408,"Delta":396278433},{"NoteNumber":84,"Velocity":75,"Duration":203775,"SoundDuration":203775,"Delta":396278433},{"NoteNumber":45,"Velocity":57,"Duration":100367,"SoundDuration":100367,"Delta":396381841},{"NoteNumber":48,"Velocity":57,"Duration":101715,"SoundDuration":101715,"Delta":396482208},{"NoteNumber":53,"Velocity":57,"Duration":100879,"SoundDuration":100879,"Delta":396583924},{"NoteNumber":88,"Velocity":70,"Duration":51347,"SoundDuration":51347,"Delta":396684803},{"NoteNumber":41,"Velocity":63,"Duration":103063,"SoundDuration":103063,"Delta":396684803},{"NoteNumber":89,"Velocity":66,"Duration":51715,"SoundDuration":51715,"Delta":396736151},{"NoteNumber":88,"Velocity":70,"Duration":52089,"SoundDuration":52089,"Delta":396787867},{"NoteNumber":46,"Velocity":57,"Duration":104750,"SoundDuration":104750,"Delta":396787867},{"NoteNumber":89,"Velocity":66,"Duration":52660,"SoundDuration":52660,"Delta":396839957},{"NoteNumber":88,"Velocity":70,"Duration":35311,"SoundDuration":35311,"Delta":396892617},{"NoteNumber":48,"Velocity":57,"Duration":106486,"SoundDuration":106486,"Delta":396892617},{"NoteNumber":89,"Velocity":65,"Duration":35473,"SoundDuration":35473,"Delta":396927928},{"NoteNumber":88,"Velocity":66,"Duration":35702,"SoundDuration":35702,"Delta":396963402},{"NoteNumber":86,"Velocity":70,"Duration":53870,"SoundDuration":53870,"Delta":396999104},{"NoteNumber":55,"Velocity":57,"Duration":107996,"SoundDuration":107996,"Delta":396999104},{"NoteNumber":84,"Velocity":65,"Duration":54125,"SoundDuration":54125,"Delta":397052974},{"NoteNumber":89,"Velocity":75,"Duration":107559,"SoundDuration":107559,"Delta":397107100},{"NoteNumber":65,"Velocity":63,"Duration":107559,"SoundDuration":107559,"Delta":397107100},{"NoteNumber":53,"Velocity":63,"Duration":107559,"SoundDuration":107559,"Delta":397107100},{"NoteNumber":57,"Velocity":63,"Duration":107559,"SoundDuration":107559,"Delta":397107100},{"NoteNumber":60,"Velocity":63,"Duration":107559,"SoundDuration":107559,"Delta":397107100},{"NoteNumber":81,"Velocity":88,"Duration":611453,"SoundDuration":611453,"Delta":397538223},{"NoteNumber":57,"Velocity":69,"Duration":611453,"SoundDuration":611453,"Delta":397538223},{"NoteNumber":45,"Velocity":58,"Duration":611453,"SoundDuration":611453,"Delta":397538223},{"NoteNumber":73,"Velocity":75,"Duration":204215,"SoundDuration":204215,"Delta":398149677},{"NoteNumber":61,"Velocity":63,"Duration":204215,"SoundDuration":204215,"Delta":398149677},{"NoteNumber":49,"Velocity":63,"Duration":204215,"SoundDuration":204215,"Delta":398149677},{"NoteNumber":74,"Velocity":75,"Duration":107203,"SoundDuration":107203,"Delta":398353892},{"NoteNumber":62,"Velocity":63,"Duration":107203,"SoundDuration":107203,"Delta":398353892},{"NoteNumber":50,"Velocity":63,"Duration":107203,"SoundDuration":107203,"Delta":398353892},{"NoteNumber":77,"Velocity":89,"Duration":611453,"SoundDuration":611453,"Delta":398782311},{"NoteNumber":65,"Velocity":71,"Duration":611453,"SoundDuration":611453,"Delta":398782311},{"NoteNumber":53,"Velocity":60,"Duration":611453,"SoundDuration":611453,"Delta":398782311},{"NoteNumber":69,"Velocity":75,"Duration":203927,"SoundDuration":203927,"Delta":399393765},{"NoteNumber":57,"Velocity":63,"Duration":203927,"SoundDuration":203927,"Delta":399393765},{"NoteNumber":70,"Velocity":70,"Duration":51684,"SoundDuration":51684,"Delta":399597693},{"NoteNumber":58,"Velocity":56,"Duration":51684,"SoundDuration":51684,"Delta":399597693},{"NoteNumber":72,"Velocity":65,"Duration":51684,"SoundDuration":51684,"Delta":399649378},{"NoteNumber":60,"Velocity":52,"Duration":51684,"SoundDuration":51684,"Delta":399649378},{"NoteNumber":70,"Velocity":70,"Duration":51684,"SoundDuration":51684,"Delta":399701062},{"NoteNumber":58,"Velocity":56,"Duration":51684,"SoundDuration":51684,"Delta":399701062},{"NoteNumber":72,"Velocity":66,"Duration":51684,"SoundDuration":51684,"Delta":399752747},{"NoteNumber":60,"Velocity":52,"Duration":51684,"SoundDuration":51684,"Delta":399752747},{"NoteNumber":70,"Velocity":70,"Duration":34456,"SoundDuration":34456,"Delta":399804432},{"NoteNumber":58,"Velocity":56,"Duration":34456,"SoundDuration":34456,"Delta":399804432},{"NoteNumber":72,"Velocity":66,"Duration":34456,"SoundDuration":34456,"Delta":399838889},{"NoteNumber":60,"Velocity":52,"Duration":34456,"SoundDuration":34456,"Delta":399838889},{"NoteNumber":70,"Velocity":66,"Duration":34456,"SoundDuration":34456,"Delta":399873345},{"NoteNumber":58,"Velocity":52,"Duration":34456,"SoundDuration":34456,"Delta":399873345},{"NoteNumber":69,"Velocity":70,"Duration":51684,"SoundDuration":51684,"Delta":399907802},{"NoteNumber":57,"Velocity":56,"Duration":51684,"SoundDuration":51684,"Delta":399907802},{"NoteNumber":67,"Velocity":66,"Duration":51684,"SoundDuration":51684,"Delta":399959487},{"NoteNumber":55,"Velocity":52,"Duration":51684,"SoundDuration":51684,"Delta":399959487},{"NoteNumber":72,"Velocity":84,"Duration":103369,"SoundDuration":103369,"Delta":400011172},{"NoteNumber":60,"Velocity":63,"Duration":103369,"SoundDuration":103369,"Delta":400011172},{"NoteNumber":72,"Velocity":72,"Duration":106420,"SoundDuration":106420,"Delta":400424879},{"NoteNumber":67,"Velocity":72,"Duration":106420,"SoundDuration":106420,"Delta":400424879},{"NoteNumber":76,"Velocity":86,"Duration":106420,"SoundDuration":106420,"Delta":400424879},{"NoteNumber":60,"Velocity":67,"Duration":106420,"SoundDuration":106420,"Delta":400424879},{"NoteNumber":48,"Velocity":56,"Duration":106420,"SoundDuration":106420,"Delta":400424879},{"NoteNumber":77,"Velocity":86,"Duration":106420,"SoundDuration":106420,"Delta":400850562},{"NoteNumber":69,"Velocity":72,"Duration":106420,"SoundDuration":106420,"Delta":400850562},{"NoteNumber":72,"Velocity":72,"Duration":106420,"SoundDuration":106420,"Delta":400850562},{"NoteNumber":53,"Velocity":60,"Duration":106420,"SoundDuration":106420,"Delta":400850562},{"NoteNumber":65,"Velocity":72,"Duration":106420,"SoundDuration":106420,"Delta":400850562},{"NoteNumber":65,"Velocity":79,"Duration":106420,"SoundDuration":106420,"Delta":401276245},{"NoteNumber":53,"Velocity":69,"Duration":106420,"SoundDuration":106420,"Delta":401276245},{"NoteNumber":41,"Velocity":58,"Duration":106420,"SoundDuration":106420,"Delta":401276245},{"NoteNumber":67,"Velocity":50,"Duration":1260351,"SoundDuration":1260351,"Delta":402127611},{"NoteNumber":72,"Velocity":46,"Duration":408108,"SoundDuration":408108,"Delta":402544567},{"NoteNumber":52,"Velocity":46,"Duration":408108,"SoundDuration":408108,"Delta":402544567},{"NoteNumber":76,"Velocity":46,"Duration":435287,"SoundDuration":435287,"Delta":402952675},{"NoteNumber":48,"Velocity":42,"Duration":435287,"SoundDuration":435287,"Delta":402952675},{"NoteNumber":67,"Velocity":45,"Duration":1233172,"SoundDuration":1233172,"Delta":403387962},{"NoteNumber":76,"Velocity":53,"Duration":816215,"SoundDuration":816215,"Delta":403387962},{"NoteNumber":72,"Velocity":48,"Duration":816215,"SoundDuration":816215,"Delta":403387962},{"NoteNumber":55,"Velocity":46,"Duration":1233172,"SoundDuration":1233172,"Delta":403387962},{"NoteNumber":71,"Velocity":43,"Duration":416956,"SoundDuration":416956,"Delta":404204178},{"NoteNumber":74,"Velocity":43,"Duration":416956,"SoundDuration":416956,"Delta":404204178},{"NoteNumber":79,"Velocity":50,"Duration":405240,"SoundDuration":405240,"Delta":404621134},{"NoteNumber":72,"Velocity":46,"Duration":402414,"SoundDuration":402414,"Delta":405026375},{"NoteNumber":67,"Velocity":40,"Duration":822376,"SoundDuration":822376,"Delta":405026375},{"NoteNumber":52,"Velocity":46,"Duration":402414,"SoundDuration":402414,"Delta":405026375},{"NoteNumber":76,"Velocity":46,"Duration":419961,"SoundDuration":419961,"Delta":405428789},{"NoteNumber":48,"Velocity":42,"Duration":419961,"SoundDuration":419961,"Delta":405428789},{"NoteNumber":67,"Velocity":45,"Duration":1238986,"SoundDuration":1238986,"Delta":405848751},{"NoteNumber":72,"Velocity":48,"Duration":822029,"SoundDuration":822029,"Delta":405848751},{"NoteNumber":76,"Velocity":53,"Duration":822029,"SoundDuration":822029,"Delta":405848751},{"NoteNumber":55,"Velocity":46,"Duration":1238986,"SoundDuration":1238986,"Delta":405848751},{"NoteNumber":74,"Velocity":43,"Duration":416956,"SoundDuration":416956,"Delta":406670781},{"NoteNumber":71,"Velocity":43,"Duration":416956,"SoundDuration":416956,"Delta":406670781},{"NoteNumber":69,"Velocity":50,"Duration":405240,"SoundDuration":405240,"Delta":407087737},{"NoteNumber":62,"Velocity":35,"Duration":405240,"SoundDuration":405240,"Delta":407087737},{"NoteNumber":53,"Velocity":29,"Duration":405240,"SoundDuration":405240,"Delta":407087737},{"NoteNumber":57,"Velocity":29,"Duration":405240,"SoundDuration":405240,"Delta":407087737},{"NoteNumber":74,"Velocity":50,"Duration":405240,"SoundDuration":405240,"Delta":407492978},{"NoteNumber":77,"Velocity":50,"Duration":399202,"SoundDuration":399202,"Delta":407898219},{"NoteNumber":76,"Velocity":50,"Duration":402414,"SoundDuration":402414,"Delta":408297421},{"NoteNumber":62,"Velocity":35,"Duration":402414,"SoundDuration":402414,"Delta":408297421},{"NoteNumber":53,"Velocity":29,"Duration":402414,"SoundDuration":402414,"Delta":408297421},{"NoteNumber":57,"Velocity":29,"Duration":402414,"SoundDuration":402414,"Delta":408297421},{"NoteNumber":74,"Velocity":50,"Duration":411015,"SoundDuration":411015,"Delta":408699835},{"NoteNumber":81,"Velocity":50,"Duration":833911,"SoundDuration":833911,"Delta":409110850},{"NoteNumber":62,"Velocity":27,"Duration":1233171,"SoundDuration":1233171,"Delta":409527806},{"NoteNumber":55,"Velocity":27,"Duration":1233171,"SoundDuration":1233171,"Delta":409527806},{"NoteNumber":65,"Velocity":32,"Duration":1233171,"SoundDuration":1233171,"Delta":409527806},{"NoteNumber":79,"Velocity":50,"Duration":408108,"SoundDuration":408108,"Delta":409944762},{"NoteNumber":71,"Velocity":50,"Duration":408107,"SoundDuration":408107,"Delta":410352870},{"NoteNumber":72,"Velocity":50,"Duration":204053,"SoundDuration":204053,"Delta":410760978},{"NoteNumber":64,"Velocity":42,"Duration":408108,"SoundDuration":408108,"Delta":410760978},{"NoteNumber":60,"Velocity":35,"Duration":408108,"SoundDuration":408108,"Delta":410760978},{"NoteNumber":67,"Velocity":50,"Duration":204054,"SoundDuration":204054,"Delta":410965032},{"NoteNumber":64,"Velocity":50,"Duration":204053,"SoundDuration":204053,"Delta":411169086},{"NoteNumber":67,"Velocity":50,"Duration":204053,"SoundDuration":204053,"Delta":411373140},{"NoteNumber":65,"Velocity":50,"Duration":204053,"SoundDuration":204053,"Delta":411577194},{"NoteNumber":62,"Velocity":50,"Duration":219570,"SoundDuration":219570,"Delta":411781248},{"NoteNumber":60,"Velocity":50,"Duration":312717,"SoundDuration":312717,"Delta":412000819},{"NoteNumber":55,"Velocity":43,"Duration":104239,"SoundDuration":104239,"Delta":412313536},{"NoteNumber":60,"Velocity":46,"Duration":408108,"SoundDuration":408108,"Delta":412417775},{"NoteNumber":52,"Velocity":46,"Duration":408108,"SoundDuration":408108,"Delta":412417775},{"NoteNumber":64,"Velocity":48,"Duration":428815,"SoundDuration":428815,"Delta":412825883},{"NoteNumber":48,"Velocity":44,"Duration":428815,"SoundDuration":428815,"Delta":412825883},{"NoteNumber":60,"Velocity":50,"Duration":816215,"SoundDuration":816215,"Delta":413254699},{"NoteNumber":64,"Velocity":55,"Duration":816215,"SoundDuration":816215,"Delta":413254699},{"NoteNumber":43,"Velocity":48,"Duration":1233172,"SoundDuration":1233172,"Delta":413254699},{"NoteNumber":55,"Velocity":47,"Duration":1233172,"SoundDuration":1233172,"Delta":413254699},{"NoteNumber":62,"Velocity":43,"Duration":416956,"SoundDuration":416956,"Delta":414070915},{"NoteNumber":59,"Velocity":43,"Duration":416956,"SoundDuration":416956,"Delta":414070915},{"NoteNumber":67,"Velocity":50,"Duration":405240,"SoundDuration":405240,"Delta":414487871},{"NoteNumber":55,"Velocity":40,"Duration":831230,"SoundDuration":831230,"Delta":414893112},{"NoteNumber":60,"Velocity":46,"Duration":402414,"SoundDuration":402414,"Delta":414893112},{"NoteNumber":52,"Velocity":46,"Duration":402414,"SoundDuration":402414,"Delta":414893112},{"NoteNumber":64,"Velocity":48,"Duration":428815,"SoundDuration":428815,"Delta":415295526},{"NoteNumber":48,"Velocity":44,"Duration":428815,"SoundDuration":428815,"Delta":415295526},{"NoteNumber":60,"Velocity":50,"Duration":822029,"SoundDuration":822029,"Delta":415724342},{"NoteNumber":64,"Velocity":55,"Duration":822029,"SoundDuration":822029,"Delta":415724342},{"NoteNumber":43,"Velocity":48,"Duration":1238986,"SoundDuration":1238986,"Delta":415724342},{"NoteNumber":55,"Velocity":47,"Duration":1238986,"SoundDuration":1238986,"Delta":415724342},{"NoteNumber":59,"Velocity":43,"Duration":416956,"SoundDuration":416956,"Delta":416546372},{"NoteNumber":62,"Velocity":43,"Duration":416956,"SoundDuration":416956,"Delta":416546372},{"NoteNumber":57,"Velocity":50,"Duration":405240,"SoundDuration":405240,"Delta":416963328},{"NoteNumber":45,"Velocity":29,"Duration":405240,"SoundDuration":405240,"Delta":416963328},{"NoteNumber":41,"Velocity":29,"Duration":405240,"SoundDuration":405240,"Delta":416963328},{"NoteNumber":50,"Velocity":35,"Duration":405240,"SoundDuration":405240,"Delta":416963328},{"NoteNumber":62,"Velocity":50,"Duration":405240,"SoundDuration":405240,"Delta":417368569},{"NoteNumber":65,"Velocity":50,"Duration":411015,"SoundDuration":411015,"Delta":417773810},{"NoteNumber":64,"Velocity":50,"Duration":402414,"SoundDuration":402414,"Delta":418184825},{"NoteNumber":45,"Velocity":29,"Duration":402414,"SoundDuration":402414,"Delta":418184825},{"NoteNumber":41,"Velocity":29,"Duration":402414,"SoundDuration":402414,"Delta":418184825},{"NoteNumber":50,"Velocity":35,"Duration":402414,"SoundDuration":402414,"Delta":418184825},{"NoteNumber":62,"Velocity":50,"Duration":411015,"SoundDuration":411015,"Delta":418587239},{"NoteNumber":69,"Velocity":50,"Duration":833911,"SoundDuration":833911,"Delta":418998254},{"NoteNumber":53,"Velocity":36,"Duration":416955,"SoundDuration":416955,"Delta":419415210},{"NoteNumber":50,"Velocity":30,"Duration":416955,"SoundDuration":416955,"Delta":419415210},{"NoteNumber":43,"Velocity":30,"Duration":416955,"SoundDuration":416955,"Delta":419415210},{"NoteNumber":67,"Velocity":50,"Duration":408108,"SoundDuration":408108,"Delta":419832166},{"NoteNumber":59,"Velocity":50,"Duration":408107,"SoundDuration":408107,"Delta":420240274},{"NoteNumber":60,"Velocity":52,"Duration":213083,"SoundDuration":213083,"Delta":420648382},{"NoteNumber":48,"Velocity":32,"Duration":417137,"SoundDuration":417137,"Delta":420648382},{"NoteNumber":52,"Velocity":37,"Duration":417137,"SoundDuration":417137,"Delta":420648382},{"NoteNumber":67,"Velocity":34,"Duration":204053,"SoundDuration":204053,"Delta":420861466},{"NoteNumber":64,"Velocity":40,"Duration":399627,"SoundDuration":399627,"Delta":421065520},{"NoteNumber":67,"Velocity":34,"Duration":99906,"SoundDuration":99906,"Delta":421265333},{"NoteNumber":60,"Velocity":37,"Duration":414141,"SoundDuration":414141,"Delta":421465147},{"NoteNumber":67,"Velocity":34,"Duration":105760,"SoundDuration":105760,"Delta":421667767},{"NoteNumber":65,"Velocity":34,"Duration":100603,"SoundDuration":100603,"Delta":421879288},{"NoteNumber":67,"Velocity":40,"Duration":100603,"SoundDuration":100603,"Delta":421879288},{"NoteNumber":62,"Velocity":40,"Duration":402414,"SoundDuration":402414,"Delta":421879288},{"NoteNumber":65,"Velocity":28,"Duration":100603,"SoundDuration":100603,"Delta":422080495},{"NoteNumber":67,"Velocity":33,"Duration":100603,"SoundDuration":100603,"Delta":422080495},{"NoteNumber":59,"Velocity":38,"Duration":402414,"SoundDuration":402414,"Delta":422281702},{"NoteNumber":65,"Velocity":28,"Duration":100603,"SoundDuration":100603,"Delta":422482909},{"NoteNumber":67,"Velocity":33,"Duration":100603,"SoundDuration":100603,"Delta":422482909},{"NoteNumber":55,"Velocity":38,"Duration":418590,"SoundDuration":418590,"Delta":422684116},{"NoteNumber":67,"Velocity":33,"Duration":106541,"SoundDuration":106541,"Delta":422889624},{"NoteNumber":65,"Velocity":28,"Duration":106541,"SoundDuration":106541,"Delta":422889624},{"NoteNumber":67,"Velocity":40,"Duration":101310,"SoundDuration":101310,"Delta":423102707},{"NoteNumber":63,"Velocity":34,"Duration":101310,"SoundDuration":101310,"Delta":423102707},{"NoteNumber":48,"Velocity":40,"Duration":405240,"SoundDuration":405240,"Delta":423102707},{"NoteNumber":67,"Velocity":34,"Duration":101310,"SoundDuration":101310,"Delta":423305328},{"NoteNumber":63,"Velocity":28,"Duration":101310,"SoundDuration":101310,"Delta":423305328},{"NoteNumber":51,"Velocity":40,"Duration":408108,"SoundDuration":408108,"Delta":423507948},{"NoteNumber":67,"Velocity":34,"Duration":102027,"SoundDuration":102027,"Delta":423712002},{"NoteNumber":63,"Velocity":28,"Duration":102027,"SoundDuration":102027,"Delta":423712002},{"NoteNumber":48,"Velocity":37,"Duration":415574,"SoundDuration":415574,"Delta":423916056},{"NoteNumber":67,"Velocity":34,"Duration":105760,"SoundDuration":105760,"Delta":424120110},{"NoteNumber":63,"Velocity":28,"Duration":105760,"SoundDuration":105760,"Delta":424120110},{"NoteNumber":65,"Velocity":34,"Duration":100603,"SoundDuration":100603,"Delta":424331631},{"NoteNumber":67,"Velocity":40,"Duration":100603,"SoundDuration":100603,"Delta":424331631},{"NoteNumber":50,"Velocity":40,"Duration":402414,"SoundDuration":402414,"Delta":424331631},{"NoteNumber":65,"Velocity":28,"Duration":100603,"SoundDuration":100603,"Delta":424532838},{"NoteNumber":67,"Velocity":33,"Duration":100603,"SoundDuration":100603,"Delta":424532838},{"NoteNumber":47,"Velocity":38,"Duration":405240,"SoundDuration":405240,"Delta":424734045},{"NoteNumber":65,"Velocity":28,"Duration":101310,"SoundDuration":101310,"Delta":424936666},{"NoteNumber":67,"Velocity":33,"Duration":101310,"SoundDuration":101310,"Delta":424936666},{"NoteNumber":43,"Velocity":38,"Duration":415704,"SoundDuration":415704,"Delta":425139286},{"NoteNumber":65,"Velocity":23,"Duration":106541,"SoundDuration":106541,"Delta":425341907},{"NoteNumber":67,"Velocity":33,"Duration":106541,"SoundDuration":106541,"Delta":425341907},{"NoteNumber":63,"Velocity":53,"Duration":100603,"SoundDuration":100603,"Delta":425554990},{"NoteNumber":67,"Velocity":63,"Duration":100603,"SoundDuration":100603,"Delta":425554990},{"NoteNumber":48,"Velocity":69,"Duration":405260,"SoundDuration":405260,"Delta":425554990},{"NoteNumber":36,"Velocity":58,"Duration":405260,"SoundDuration":405260,"Delta":425554990},{"NoteNumber":67,"Velocity":50,"Duration":102027,"SoundDuration":102027,"Delta":425756197},{"NoteNumber":63,"Velocity":42,"Duration":102027,"SoundDuration":102027,"Delta":425756197},{"NoteNumber":60,"Velocity":40,"Duration":408108,"SoundDuration":408108,"Delta":425960251},{"NoteNumber":67,"Velocity":33,"Duration":102027,"SoundDuration":102027,"Delta":426164305},{"NoteNumber":63,"Velocity":28,"Duration":102027,"SoundDuration":102027,"Delta":426164305},{"NoteNumber":48,"Velocity":40,"Duration":412531,"SoundDuration":412531,"Delta":426368359},{"NoteNumber":63,"Velocity":28,"Duration":104239,"SoundDuration":104239,"Delta":426572413},{"NoteNumber":67,"Velocity":33,"Duration":104239,"SoundDuration":104239,"Delta":426572413},{"NoteNumber":63,"Velocity":53,"Duration":99114,"SoundDuration":99114,"Delta":426780891},{"NoteNumber":60,"Velocity":53,"Duration":99114,"SoundDuration":99114,"Delta":426780891},{"NoteNumber":66,"Velocity":63,"Duration":99114,"SoundDuration":99114,"Delta":426780891},{"NoteNumber":45,"Velocity":69,"Duration":402283,"SoundDuration":402283,"Delta":426780891},{"NoteNumber":33,"Velocity":58,"Duration":402283,"SoundDuration":402283,"Delta":426780891},{"NoteNumber":63,"Velocity":42,"Duration":102027,"SoundDuration":102027,"Delta":426979120},{"NoteNumber":60,"Velocity":42,"Duration":102027,"SoundDuration":102027,"Delta":426979120},{"NoteNumber":66,"Velocity":50,"Duration":102027,"SoundDuration":102027,"Delta":426979120},{"NoteNumber":57,"Velocity":40,"Duration":408108,"SoundDuration":408108,"Delta":427183174},{"NoteNumber":66,"Velocity":33,"Duration":102027,"SoundDuration":102027,"Delta":427387228},{"NoteNumber":63,"Velocity":28,"Duration":102027,"SoundDuration":102027,"Delta":427387228},{"NoteNumber":60,"Velocity":28,"Duration":102027,"SoundDuration":102027,"Delta":427387228},{"NoteNumber":45,"Velocity":40,"Duration":412531,"SoundDuration":412531,"Delta":427591282},{"NoteNumber":60,"Velocity":28,"Duration":104239,"SoundDuration":104239,"Delta":427795336},{"NoteNumber":63,"Velocity":28,"Duration":104239,"SoundDuration":104239,"Delta":427795336},{"NoteNumber":66,"Velocity":33,"Duration":104239,"SoundDuration":104239,"Delta":427795336},{"NoteNumber":62,"Velocity":53,"Duration":99225,"SoundDuration":99225,"Delta":428003814},{"NoteNumber":67,"Velocity":63,"Duration":99225,"SoundDuration":99225,"Delta":428003814},{"NoteNumber":34,"Velocity":58,"Duration":402505,"SoundDuration":402505,"Delta":428003814},{"NoteNumber":46,"Velocity":69,"Duration":402505,"SoundDuration":402505,"Delta":428003814},{"NoteNumber":67,"Velocity":50,"Duration":102027,"SoundDuration":102027,"Delta":428202266},{"NoteNumber":62,"Velocity":42,"Duration":102027,"SoundDuration":102027,"Delta":428202266},{"NoteNumber":58,"Velocity":40,"Duration":404804,"SoundDuration":404804,"Delta":428406320},{"NoteNumber":67,"Velocity":33,"Duration":101201,"SoundDuration":101201,"Delta":428608722},{"NoteNumber":62,"Velocity":28,"Duration":101201,"SoundDuration":101201,"Delta":428608722},{"NoteNumber":46,"Velocity":40,"Duration":410799,"SoundDuration":410799,"Delta":428811124},{"NoteNumber":62,"Velocity":28,"Duration":103491,"SoundDuration":103491,"Delta":429014942},{"NoteNumber":67,"Velocity":33,"Duration":103491,"SoundDuration":103491,"Delta":429014942},{"NoteNumber":69,"Velocity":53,"Duration":99225,"SoundDuration":99225,"Delta":429221924},{"NoteNumber":62,"Velocity":53,"Duration":99225,"SoundDuration":99225,"Delta":429221924},{"NoteNumber":72,"Velocity":63,"Duration":99225,"SoundDuration":99225,"Delta":429221924},{"NoteNumber":30,"Velocity":58,"Duration":398052,"SoundDuration":398052,"Delta":429221924},{"NoteNumber":42,"Velocity":69,"Duration":398052,"SoundDuration":398052,"Delta":429221924},{"NoteNumber":62,"Velocity":42,"Duration":99800,"SoundDuration":99800,"Delta":429420376},{"NoteNumber":72,"Velocity":50,"Duration":99800,"SoundDuration":99800,"Delta":429420376},{"NoteNumber":69,"Velocity":42,"Duration":99800,"SoundDuration":99800,"Delta":429420376},{"NoteNumber":54,"Velocity":40,"Duration":410536,"SoundDuration":410536,"Delta":429619977},{"NoteNumber":69,"Velocity":28,"Duration":102634,"SoundDuration":102634,"Delta":429825246},{"NoteNumber":72,"Velocity":33,"Duration":102634,"SoundDuration":102634,"Delta":429825246},{"NoteNumber":62,"Velocity":28,"Duration":102634,"SoundDuration":102634,"Delta":429825246},{"NoteNumber":42,"Velocity":40,"Duration":415249,"SoundDuration":415249,"Delta":430030514},{"NoteNumber":72,"Velocity":33,"Duration":104990,"SoundDuration":104990,"Delta":430235783},{"NoteNumber":62,"Velocity":28,"Duration":104990,"SoundDuration":104990,"Delta":430235783},{"NoteNumber":69,"Velocity":28,"Duration":104990,"SoundDuration":104990,"Delta":430235783},{"NoteNumber":70,"Velocity":63,"Duration":99225,"SoundDuration":99225,"Delta":430445764},{"NoteNumber":67,"Velocity":53,"Duration":99225,"SoundDuration":99225,"Delta":430445764},{"NoteNumber":62,"Velocity":53,"Duration":99225,"SoundDuration":99225,"Delta":430445764},{"NoteNumber":43,"Velocity":69,"Duration":402505,"SoundDuration":402505,"Delta":430445764},{"NoteNumber":31,"Velocity":58,"Duration":402505,"SoundDuration":402505,"Delta":430445764},{"NoteNumber":62,"Velocity":42,"Duration":102027,"SoundDuration":102027,"Delta":430644216},{"NoteNumber":67,"Velocity":42,"Duration":102027,"SoundDuration":102027,"Delta":430644216},{"NoteNumber":70,"Velocity":50,"Duration":102027,"SoundDuration":102027,"Delta":430644216},{"NoteNumber":55,"Velocity":40,"Duration":401982,"SoundDuration":401982,"Delta":430848270},{"NoteNumber":62,"Velocity":28,"Duration":100495,"SoundDuration":100495,"Delta":431049261},{"NoteNumber":70,"Velocity":33,"Duration":100495,"SoundDuration":100495,"Delta":431049261},{"NoteNumber":67,"Velocity":28,"Duration":100495,"SoundDuration":100495,"Delta":431049261},{"NoteNumber":43,"Velocity":40,"Duration":413799,"SoundDuration":413799,"Delta":431250253},{"NoteNumber":62,"Velocity":28,"Duration":104990,"SoundDuration":104990,"Delta":431454071},{"NoteNumber":70,"Velocity":33,"Duration":104990,"SoundDuration":104990,"Delta":431454071},{"NoteNumber":67,"Velocity":28,"Duration":104990,"SoundDuration":104990,"Delta":431454071},{"NoteNumber":70,"Velocity":53,"Duration":99225,"SoundDuration":99225,"Delta":431664052},{"NoteNumber":67,"Velocity":53,"Duration":99225,"SoundDuration":99225,"Delta":431664052},{"NoteNumber":73,"Velocity":63,"Duration":99225,"SoundDuration":99225,"Delta":431664052},{"NoteNumber":40,"Velocity":58,"Duration":398052,"SoundDuration":398052,"Delta":431664052},{"NoteNumber":52,"Velocity":69,"Duration":398052,"SoundDuration":398052,"Delta":431664052},{"NoteNumber":70,"Velocity":42,"Duration":99800,"SoundDuration":99800,"Delta":431862504},{"NoteNumber":73,"Velocity":50,"Duration":99800,"SoundDuration":99800,"Delta":431862504},{"NoteNumber":67,"Velocity":42,"Duration":99800,"SoundDuration":99800,"Delta":431862504},{"NoteNumber":64,"Velocity":40,"Duration":404804,"SoundDuration":404804,"Delta":432062105},{"NoteNumber":67,"Velocity":28,"Duration":101201,"SoundDuration":101201,"Delta":432264507},{"NoteNumber":70,"Velocity":28,"Duration":101201,"SoundDuration":101201,"Delta":432264507},{"NoteNumber":73,"Velocity":33,"Duration":101201,"SoundDuration":101201,"Delta":432264507},{"NoteNumber":52,"Velocity":40,"Duration":412383,"SoundDuration":412383,"Delta":432466909},{"NoteNumber":73,"Velocity":33,"Duration":104990,"SoundDuration":104990,"Delta":432669311},{"NoteNumber":70,"Velocity":28,"Duration":104990,"SoundDuration":104990,"Delta":432669311},{"NoteNumber":67,"Velocity":28,"Duration":104990,"SoundDuration":104990,"Delta":432669311},{"NoteNumber":74,"Velocity":63,"Duration":99225,"SoundDuration":99225,"Delta":432879292},{"NoteNumber":69,"Velocity":53,"Duration":99225,"SoundDuration":99225,"Delta":432879292},{"NoteNumber":41,"Velocity":58,"Duration":398052,"SoundDuration":398052,"Delta":432879292},{"NoteNumber":53,"Velocity":69,"Duration":398052,"SoundDuration":398052,"Delta":432879292},{"NoteNumber":69,"Velocity":42,"Duration":99800,"SoundDuration":99800,"Delta":433077744},{"NoteNumber":74,"Velocity":50,"Duration":99800,"SoundDuration":99800,"Delta":433077744},{"NoteNumber":65,"Velocity":40,"Duration":404804,"SoundDuration":404804,"Delta":433277345},{"NoteNumber":69,"Velocity":28,"Duration":101201,"SoundDuration":101201,"Delta":433479747},{"NoteNumber":74,"Velocity":33,"Duration":101201,"SoundDuration":101201,"Delta":433479747},{"NoteNumber":53,"Velocity":40,"Duration":412383,"SoundDuration":412383,"Delta":433682149},{"NoteNumber":69,"Velocity":28,"Duration":104990,"SoundDuration":104990,"Delta":433884551},{"NoteNumber":74,"Velocity":33,"Duration":104990,"SoundDuration":104990,"Delta":433884551},{"NoteNumber":76,"Velocity":53,"Duration":99225,"SoundDuration":99225,"Delta":434094532},{"NoteNumber":69,"Velocity":53,"Duration":99225,"SoundDuration":99225,"Delta":434094532},{"NoteNumber":79,"Velocity":63,"Duration":99225,"SoundDuration":99225,"Delta":434094532},{"NoteNumber":37,"Velocity":58,"Duration":402505,"SoundDuration":402505,"Delta":434094532},{"NoteNumber":49,"Velocity":69,"Duration":402505,"SoundDuration":402505,"Delta":434094532},{"NoteNumber":79,"Velocity":50,"Duration":102027,"SoundDuration":102027,"Delta":434292984},{"NoteNumber":69,"Velocity":42,"Duration":102027,"SoundDuration":102027,"Delta":434292984},{"NoteNumber":76,"Velocity":42,"Duration":102027,"SoundDuration":102027,"Delta":434292984},{"NoteNumber":61,"Velocity":40,"Duration":408108,"SoundDuration":408108,"Delta":434497038},{"NoteNumber":79,"Velocity":33,"Duration":102026,"SoundDuration":102026,"Delta":434701092},{"NoteNumber":76,"Velocity":28,"Duration":102026,"SoundDuration":102026,"Delta":434701092},{"NoteNumber":69,"Velocity":28,"Duration":102026,"SoundDuration":102026,"Delta":434701092},{"NoteNumber":49,"Velocity":40,"Duration":414035,"SoundDuration":414035,"Delta":434905146},{"NoteNumber":76,"Velocity":28,"Duration":104990,"SoundDuration":104990,"Delta":435109200},{"NoteNumber":79,"Velocity":33,"Duration":104990,"SoundDuration":104990,"Delta":435109200},{"NoteNumber":69,"Velocity":28,"Duration":104990,"SoundDuration":104990,"Delta":435109200},{"NoteNumber":74,"Velocity":53,"Duration":99225,"SoundDuration":99225,"Delta":435319181},{"NoteNumber":77,"Velocity":63,"Duration":99225,"SoundDuration":99225,"Delta":435319181},{"NoteNumber":69,"Velocity":53,"Duration":99225,"SoundDuration":99225,"Delta":435319181},{"NoteNumber":50,"Velocity":69,"Duration":402505,"SoundDuration":402505,"Delta":435319181},{"NoteNumber":38,"Velocity":58,"Duration":402505,"SoundDuration":402505,"Delta":435319181},{"NoteNumber":69,"Velocity":42,"Duration":102027,"SoundDuration":102027,"Delta":435517633},{"NoteNumber":77,"Velocity":50,"Duration":102027,"SoundDuration":102027,"Delta":435517633},{"NoteNumber":74,"Velocity":42,"Duration":102027,"SoundDuration":102027,"Delta":435517633},{"NoteNumber":62,"Velocity":40,"Duration":408108,"SoundDuration":408108,"Delta":435721687},{"NoteNumber":77,"Velocity":33,"Duration":102026,"SoundDuration":102026,"Delta":435925741},{"NoteNumber":74,"Velocity":28,"Duration":102026,"SoundDuration":102026,"Delta":435925741},{"NoteNumber":69,"Velocity":28,"Duration":102026,"SoundDuration":102026,"Delta":435925741},{"NoteNumber":50,"Velocity":40,"Duration":421697,"SoundDuration":421697,"Delta":436129795},{"NoteNumber":74,"Velocity":28,"Duration":108821,"SoundDuration":108821,"Delta":436333849},{"NoteNumber":77,"Velocity":33,"Duration":108821,"SoundDuration":108821,"Delta":436333849},{"NoteNumber":69,"Velocity":28,"Duration":108821,"SoundDuration":108821,"Delta":436333849},{"NoteNumber":80,"Velocity":65,"Duration":99225,"SoundDuration":99225,"Delta":436551492},{"NoteNumber":74,"Velocity":53,"Duration":99225,"SoundDuration":99225,"Delta":436551492},{"NoteNumber":46,"Velocity":69,"Duration":402505,"SoundDuration":402505,"Delta":436551492},{"NoteNumber":34,"Velocity":58,"Duration":402505,"SoundDuration":402505,"Delta":436551492},{"NoteNumber":80,"Velocity":54,"Duration":102027,"SoundDuration":102027,"Delta":436749944},{"NoteNumber":74,"Velocity":42,"Duration":102027,"SoundDuration":102027,"Delta":436749944},{"NoteNumber":58,"Velocity":40,"Duration":408108,"SoundDuration":408108,"Delta":436953998},{"NoteNumber":80,"Velocity":33,"Duration":102026,"SoundDuration":102026,"Delta":437158052},{"NoteNumber":74,"Velocity":28,"Duration":102026,"SoundDuration":102026,"Delta":437158052},{"NoteNumber":46,"Velocity":40,"Duration":428453,"SoundDuration":428453,"Delta":437362106},{"NoteNumber":74,"Velocity":28,"Duration":112199,"SoundDuration":112199,"Delta":437566160},{"NoteNumber":80,"Velocity":33,"Duration":112199,"SoundDuration":112199,"Delta":437566160},{"NoteNumber":81,"Velocity":38,"Duration":207114,"SoundDuration":207114,"Delta":437790560},{"NoteNumber":73,"Velocity":32,"Duration":207114,"SoundDuration":207114,"Delta":437790560},{"NoteNumber":45,"Velocity":44,"Duration":415574,"SoundDuration":415574,"Delta":437790560},{"NoteNumber":81,"Velocity":37,"Duration":212556,"SoundDuration":212556,"Delta":438002081},{"NoteNumber":77,"Velocity":31,"Duration":212556,"SoundDuration":212556,"Delta":438002081},{"NoteNumber":76,"Velocity":28,"Duration":212556,"SoundDuration":212556,"Delta":438206135},{"NoteNumber":79,"Velocity":33,"Duration":212556,"SoundDuration":212556,"Delta":438206135},{"NoteNumber":77,"Velocity":31,"Duration":212556,"SoundDuration":212556,"Delta":438410189},{"NoteNumber":74,"Velocity":26,"Duration":212556,"SoundDuration":212556,"Delta":438410189},{"NoteNumber":73,"Velocity":28,"Duration":212932,"SoundDuration":212932,"Delta":438614243},{"NoteNumber":76,"Velocity":33,"Duration":212932,"SoundDuration":212932,"Delta":438614243},{"NoteNumber":77,"Velocity":30,"Duration":221585,"SoundDuration":221585,"Delta":438818297},{"NoteNumber":74,"Velocity":25,"Duration":221585,"SoundDuration":221585,"Delta":438818297},{"NoteNumber":68,"Velocity":38,"Duration":213083,"SoundDuration":213083,"Delta":438818297},{"NoteNumber":73,"Velocity":32,"Duration":204053,"SoundDuration":204053,"Delta":439031380},{"NoteNumber":76,"Velocity":38,"Duration":204053,"SoundDuration":204053,"Delta":439031380},{"NoteNumber":69,"Velocity":41,"Duration":407871,"SoundDuration":407871,"Delta":439031380},{"NoteNumber":69,"Velocity":37,"Duration":212310,"SoundDuration":212310,"Delta":439235434},{"NoteNumber":65,"Velocity":31,"Duration":212310,"SoundDuration":212310,"Delta":439235434},{"NoteNumber":67,"Velocity":33,"Duration":212310,"SoundDuration":212310,"Delta":439439252},{"NoteNumber":64,"Velocity":28,"Duration":212310,"SoundDuration":212310,"Delta":439439252},{"NoteNumber":62,"Velocity":26,"Duration":212310,"SoundDuration":212310,"Delta":439643070},{"NoteNumber":65,"Velocity":31,"Duration":212310,"SoundDuration":212310,"Delta":439643070},{"NoteNumber":64,"Velocity":33,"Duration":212631,"SoundDuration":212631,"Delta":439846888},{"NoteNumber":61,"Velocity":28,"Duration":212631,"SoundDuration":212631,"Delta":439846888},{"NoteNumber":65,"Velocity":30,"Duration":219846,"SoundDuration":219846,"Delta":440050706},{"NoteNumber":62,"Velocity":25,"Duration":219846,"SoundDuration":219846,"Delta":440050706},{"NoteNumber":56,"Velocity":32,"Duration":219846,"SoundDuration":219846,"Delta":440050706},{"NoteNumber":61,"Velocity":31,"Duration":208197,"SoundDuration":208197,"Delta":440262227},{"NoteNumber":64,"Velocity":37,"Duration":208197,"SoundDuration":208197,"Delta":440262227},{"NoteNumber":57,"Velocity":39,"Duration":208197,"SoundDuration":208197,"Delta":440262227},{"NoteNumber":65,"Velocity":32,"Duration":209532,"SoundDuration":209532,"Delta":440462041},{"NoteNumber":62,"Velocity":27,"Duration":209532,"SoundDuration":209532,"Delta":440462041},{"NoteNumber":56,"Velocity":35,"Duration":209532,"SoundDuration":209532,"Delta":440462041},{"NoteNumber":61,"Velocity":31,"Duration":208197,"SoundDuration":208197,"Delta":440663248},{"NoteNumber":64,"Velocity":37,"Duration":208197,"SoundDuration":208197,"Delta":440663248},{"NoteNumber":57,"Velocity":39,"Duration":208197,"SoundDuration":208197,"Delta":440663248},{"NoteNumber":65,"Velocity":34,"Duration":209475,"SoundDuration":209475,"Delta":440863061},{"NoteNumber":62,"Velocity":28,"Duration":209475,"SoundDuration":209475,"Delta":440863061},{"NoteNumber":56,"Velocity":31,"Duration":209475,"SoundDuration":209475,"Delta":440863061},{"NoteNumber":61,"Velocity":31,"Duration":206777,"SoundDuration":206777,"Delta":441064268},{"NoteNumber":64,"Velocity":37,"Duration":206777,"SoundDuration":206777,"Delta":441064268},{"NoteNumber":57,"Velocity":39,"Duration":206777,"SoundDuration":206777,"Delta":441064268},{"NoteNumber":62,"Velocity":28,"Duration":199813,"SoundDuration":199813,"Delta":441262720},{"NoteNumber":65,"Velocity":34,"Duration":199813,"SoundDuration":199813,"Delta":441262720},{"NoteNumber":56,"Velocity":32,"Duration":208082,"SoundDuration":208082,"Delta":441262720},{"NoteNumber":64,"Velocity":37,"Duration":396904,"SoundDuration":396904,"Delta":441462534},{"NoteNumber":61,"Velocity":31,"Duration":396904,"SoundDuration":396904,"Delta":441462534},{"NoteNumber":57,"Velocity":39,"Duration":396904,"SoundDuration":396904,"Delta":441462534},{"NoteNumber":60,"Velocity":24,"Duration":205309,"SoundDuration":205309,"Delta":442661048},{"NoteNumber":64,"Velocity":29,"Duration":205309,"SoundDuration":205309,"Delta":442661048},{"NoteNumber":57,"Velocity":31,"Duration":205309,"SoundDuration":205309,"Delta":442661048},{"NoteNumber":65,"Velocity":25,"Duration":210661,"SoundDuration":210661,"Delta":442857924},{"NoteNumber":62,"Velocity":21,"Duration":210661,"SoundDuration":210661,"Delta":442857924},{"NoteNumber":56,"Velocity":28,"Duration":210661,"SoundDuration":210661,"Delta":442857924},{"NoteNumber":64,"Velocity":29,"Duration":206497,"SoundDuration":206497,"Delta":443060326},{"NoteNumber":60,"Velocity":24,"Duration":206497,"SoundDuration":206497,"Delta":443060326},{"NoteNumber":57,"Velocity":31,"Duration":206497,"SoundDuration":206497,"Delta":443060326},{"NoteNumber":62,"Velocity":22,"Duration":206768,"SoundDuration":206768,"Delta":443258555},{"NoteNumber":65,"Velocity":27,"Duration":206768,"SoundDuration":206768,"Delta":443258555},{"NoteNumber":56,"Velocity":24,"Duration":206768,"SoundDuration":206768,"Delta":443258555},{"NoteNumber":64,"Velocity":29,"Duration":208153,"SoundDuration":208153,"Delta":443457007},{"NoteNumber":60,"Velocity":24,"Duration":208153,"SoundDuration":208153,"Delta":443457007},{"NoteNumber":57,"Velocity":31,"Duration":208153,"SoundDuration":208153,"Delta":443457007},{"NoteNumber":65,"Velocity":27,"Duration":213480,"SoundDuration":213480,"Delta":443656608},{"NoteNumber":62,"Velocity":22,"Duration":213480,"SoundDuration":213480,"Delta":443656608},{"NoteNumber":56,"Velocity":25,"Duration":213480,"SoundDuration":213480,"Delta":443656608},{"NoteNumber":60,"Velocity":31,"Duration":394191,"SoundDuration":394191,"Delta":443861876},{"NoteNumber":64,"Velocity":29,"Duration":394191,"SoundDuration":394191,"Delta":443861876},{"NoteNumber":57,"Velocity":31,"Duration":394191,"SoundDuration":394191,"Delta":443861876},{"NoteNumber":58,"Velocity":49,"Duration":1582048,"SoundDuration":1582048,"Delta":445044452},{"NoteNumber":60,"Velocity":49,"Duration":1582048,"SoundDuration":1582048,"Delta":445044452},{"NoteNumber":64,"Velocity":59,"Duration":206612,"SoundDuration":206612,"Delta":445044452},{"NoteNumber":55,"Velocity":63,"Duration":206612,"SoundDuration":206612,"Delta":445044452},{"NoteNumber":65,"Velocity":51,"Duration":209363,"SoundDuration":209363,"Delta":445242681},{"NoteNumber":57,"Velocity":57,"Duration":209363,"SoundDuration":209363,"Delta":445242681},{"NoteNumber":64,"Velocity":59,"Duration":204027,"SoundDuration":204027,"Delta":445443888},{"NoteNumber":55,"Velocity":63,"Duration":204027,"SoundDuration":204027,"Delta":445443888},{"NoteNumber":65,"Velocity":55,"Duration":206608,"SoundDuration":206608,"Delta":445639647},{"NoteNumber":57,"Velocity":49,"Duration":206608,"SoundDuration":206608,"Delta":445639647},{"NoteNumber":64,"Velocity":59,"Duration":204027,"SoundDuration":204027,"Delta":445838099},{"NoteNumber":55,"Velocity":63,"Duration":204027,"SoundDuration":204027,"Delta":445838099},{"NoteNumber":65,"Velocity":55,"Duration":206664,"SoundDuration":206664,"Delta":446033857},{"NoteNumber":57,"Velocity":51,"Duration":206664,"SoundDuration":206664,"Delta":446033857},{"NoteNumber":64,"Velocity":59,"Duration":394191,"SoundDuration":394191,"Delta":446232309},{"NoteNumber":55,"Velocity":63,"Duration":394191,"SoundDuration":394191,"Delta":446232309},{"NoteNumber":76,"Velocity":31,"Duration":1657886,"SoundDuration":1657886,"Delta":447414885},{"NoteNumber":82,"Velocity":37,"Duration":211141,"SoundDuration":211141,"Delta":447414885},{"NoteNumber":60,"Velocity":29,"Duration":1657886,"SoundDuration":1657886,"Delta":447414885},{"NoteNumber":67,"Velocity":39,"Duration":211141,"SoundDuration":211141,"Delta":447414885},{"NoteNumber":81,"Velocity":32,"Duration":218298,"SoundDuration":218298,"Delta":447617287},{"NoteNumber":66,"Velocity":35,"Duration":218298,"SoundDuration":218298,"Delta":447617287},{"NoteNumber":82,"Velocity":37,"Duration":214136,"SoundDuration":214136,"Delta":447827033},{"NoteNumber":67,"Velocity":39,"Duration":214136,"SoundDuration":214136,"Delta":447827033},{"NoteNumber":81,"Velocity":34,"Duration":221580,"SoundDuration":221580,"Delta":448032302},{"NoteNumber":66,"Velocity":31,"Duration":221580,"SoundDuration":221580,"Delta":448032302},{"NoteNumber":82,"Velocity":37,"Duration":218953,"SoundDuration":218953,"Delta":448245143},{"NoteNumber":67,"Velocity":39,"Duration":218953,"SoundDuration":218953,"Delta":448245143},{"NoteNumber":81,"Velocity":34,"Duration":220978,"SoundDuration":220978,"Delta":448454889},{"NoteNumber":66,"Velocity":32,"Duration":229246,"SoundDuration":229246,"Delta":448454889},{"NoteNumber":82,"Velocity":37,"Duration":396904,"SoundDuration":396904,"Delta":448675867},{"NoteNumber":67,"Velocity":39,"Duration":396904,"SoundDuration":396904,"Delta":448675867},{"NoteNumber":65,"Velocity":50,"Duration":821856,"SoundDuration":821856,"Delta":449872025},{"NoteNumber":53,"Velocity":40,"Duration":211521,"SoundDuration":211521,"Delta":449872025},{"NoteNumber":57,"Velocity":30,"Duration":203444,"SoundDuration":203444,"Delta":450083546},{"NoteNumber":60,"Velocity":33,"Duration":203444,"SoundDuration":203444,"Delta":450286991},{"NoteNumber":57,"Velocity":30,"Duration":203445,"SoundDuration":203445,"Delta":450490436},{"NoteNumber":69,"Velocity":47,"Duration":416664,"SoundDuration":416664,"Delta":450693881},{"NoteNumber":60,"Velocity":34,"Duration":203444,"SoundDuration":203444,"Delta":450693881},{"NoteNumber":57,"Velocity":30,"Duration":213219,"SoundDuration":213219,"Delta":450897326},{"NoteNumber":72,"Velocity":52,"Duration":816946,"SoundDuration":816946,"Delta":451110546},{"NoteNumber":53,"Velocity":40,"Duration":206611,"SoundDuration":206611,"Delta":451110546},{"NoteNumber":60,"Velocity":29,"Duration":203444,"SoundDuration":203444,"Delta":451317157},{"NoteNumber":63,"Velocity":31,"Duration":203444,"SoundDuration":203444,"Delta":451520602},{"NoteNumber":60,"Velocity":27,"Duration":203445,"SoundDuration":203445,"Delta":451724047},{"NoteNumber":69,"Velocity":46,"Duration":414965,"SoundDuration":414965,"Delta":451927492},{"NoteNumber":63,"Velocity":31,"Duration":203444,"SoundDuration":203444,"Delta":451927492},{"NoteNumber":60,"Velocity":28,"Duration":211521,"SoundDuration":211521,"Delta":452130937},{"NoteNumber":70,"Velocity":50,"Duration":826445,"SoundDuration":826445,"Delta":452342458},{"NoteNumber":53,"Velocity":40,"Duration":206611,"SoundDuration":206611,"Delta":452342458},{"NoteNumber":58,"Velocity":30,"Duration":206611,"SoundDuration":206611,"Delta":452549070},{"NoteNumber":62,"Velocity":33,"Duration":206611,"SoundDuration":206611,"Delta":452755681},{"NoteNumber":58,"Velocity":30,"Duration":206611,"SoundDuration":206611,"Delta":452962293},{"NoteNumber":79,"Velocity":47,"Duration":419727,"SoundDuration":419727,"Delta":453168904},{"NoteNumber":62,"Velocity":33,"Duration":209863,"SoundDuration":209863,"Delta":453168904},{"NoteNumber":58,"Velocity":30,"Duration":209863,"SoundDuration":209863,"Delta":453378768},{"NoteNumber":77,"Velocity":47,"Duration":203444,"SoundDuration":203444,"Delta":453588631},{"NoteNumber":53,"Velocity":40,"Duration":203444,"SoundDuration":203444,"Delta":453588631},{"NoteNumber":76,"Velocity":44,"Duration":209863,"SoundDuration":209863,"Delta":453792076},{"NoteNumber":55,"Velocity":23,"Duration":209863,"SoundDuration":209863,"Delta":453792076},{"NoteNumber":76,"Velocity":44,"Duration":419727,"SoundDuration":419727,"Delta":454001940},{"NoteNumber":58,"Velocity":28,"Duration":209863,"SoundDuration":209863,"Delta":454001940},{"NoteNumber":55,"Velocity":24,"Duration":209863,"SoundDuration":209863,"Delta":454211803},{"NoteNumber":58,"Velocity":29,"Duration":208232,"SoundDuration":208232,"Delta":454421667},{"NoteNumber":55,"Velocity":24,"Duration":214945,"SoundDuration":214945,"Delta":454629899},{"NoteNumber":77,"Velocity":50,"Duration":419753,"SoundDuration":419753,"Delta":454844845},{"NoteNumber":53,"Velocity":30,"Duration":419753,"SoundDuration":419753,"Delta":454844845},{"NoteNumber":57,"Velocity":30,"Duration":419753,"SoundDuration":419753,"Delta":454844845},{"NoteNumber":69,"Velocity":46,"Duration":416463,"SoundDuration":416463,"Delta":455264598},{"NoteNumber":74,"Velocity":46,"Duration":419753,"SoundDuration":419753,"Delta":455681062},{"NoteNumber":67,"Velocity":50,"Duration":423042,"SoundDuration":423042,"Delta":456100815},{"NoteNumber":72,"Velocity":54,"Duration":629683,"SoundDuration":629683,"Delta":456523857},{"NoteNumber":69,"Velocity":45,"Duration":213219,"SoundDuration":213219,"Delta":457153540},{"NoteNumber":65,"Velocity":50,"Duration":1665856,"SoundDuration":1665856,"Delta":457366760},{"NoteNumber":53,"Velocity":47,"Duration":416464,"SoundDuration":416464,"Delta":457366760},{"NoteNumber":45,"Velocity":44,"Duration":416463,"SoundDuration":416463,"Delta":457783224},{"NoteNumber":50,"Velocity":48,"Duration":416464,"SoundDuration":416464,"Delta":458199688},{"NoteNumber":67,"Velocity":50,"Duration":1255969,"SoundDuration":1255969,"Delta":458616152},{"NoteNumber":43,"Velocity":48,"Duration":416464,"SoundDuration":416464,"Delta":458616152},{"NoteNumber":64,"Velocity":42,"Duration":52057,"SoundDuration":52057,"Delta":459032616},{"NoteNumber":48,"Velocity":49,"Duration":627984,"SoundDuration":627984,"Delta":459032616},{"NoteNumber":65,"Velocity":37,"Duration":52057,"SoundDuration":52057,"Delta":459084674},{"NoteNumber":64,"Velocity":48,"Duration":104115,"SoundDuration":104115,"Delta":459136732},{"NoteNumber":62,"Velocity":48,"Duration":208232,"SoundDuration":208232,"Delta":459240848},{"NoteNumber":64,"Velocity":50,"Duration":423042,"SoundDuration":423042,"Delta":459449080},{"NoteNumber":45,"Velocity":47,"Duration":211521,"SoundDuration":211521,"Delta":459660601},{"NoteNumber":69,"Velocity":48,"Duration":419727,"SoundDuration":419727,"Delta":459872122},{"NoteNumber":65,"Velocity":48,"Duration":1654726,"SoundDuration":1654726,"Delta":459872122},{"NoteNumber":41,"Velocity":52,"Duration":419727,"SoundDuration":419727,"Delta":459872122},{"NoteNumber":70,"Velocity":52,"Duration":410059,"SoundDuration":410059,"Delta":460291849},{"NoteNumber":50,"Velocity":40,"Duration":410059,"SoundDuration":410059,"Delta":460291849},{"NoteNumber":74,"Velocity":55,"Duration":416464,"SoundDuration":416464,"Delta":460701909},{"NoteNumber":46,"Velocity":44,"Duration":416464,"SoundDuration":416464,"Delta":460701909},{"NoteNumber":74,"Velocity":58,"Duration":205030,"SoundDuration":205030,"Delta":461118373},{"NoteNumber":45,"Velocity":47,"Duration":408475,"SoundDuration":408475,"Delta":461118373},{"NoteNumber":72,"Velocity":57,"Duration":203444,"SoundDuration":203444,"Delta":461323403},{"NoteNumber":70,"Velocity":56,"Duration":203444,"SoundDuration":203444,"Delta":461526848},{"NoteNumber":69,"Velocity":54,"Duration":203445,"SoundDuration":203445,"Delta":461730293},{"NoteNumber":67,"Velocity":53,"Duration":203444,"SoundDuration":203444,"Delta":461933738},{"NoteNumber":50,"Velocity":40,"Duration":410056,"SoundDuration":410056,"Delta":461933738},{"NoteNumber":65,"Velocity":51,"Duration":206611,"SoundDuration":206611,"Delta":462137183},{"NoteNumber":67,"Velocity":54,"Duration":403822,"SoundDuration":403822,"Delta":462343794},{"NoteNumber":46,"Velocity":40,"Duration":403822,"SoundDuration":403822,"Delta":462343794},{"NoteNumber":70,"Velocity":50,"Duration":104931,"SoundDuration":104931,"Delta":462747617},{"NoteNumber":58,"Velocity":54,"Duration":426439,"SoundDuration":426439,"Delta":463167344},{"NoteNumber":64,"Velocity":54,"Duration":426439,"SoundDuration":426439,"Delta":463167344},{"NoteNumber":48,"Velocity":41,"Duration":426439,"SoundDuration":426439,"Delta":463167344},{"NoteNumber":65,"Velocity":56,"Duration":416464,"SoundDuration":416464,"Delta":463593783},{"NoteNumber":57,"Velocity":56,"Duration":416464,"SoundDuration":416464,"Delta":463593783},{"NoteNumber":41,"Velocity":43,"Duration":416464,"SoundDuration":416464,"Delta":463593783},{"NoteNumber":84,"Velocity":50,"Duration":312348,"SoundDuration":312348,"Delta":464426711},{"NoteNumber":72,"Velocity":40,"Duration":312348,"SoundDuration":312348,"Delta":464426711},{"NoteNumber":69,"Velocity":32,"Duration":312348,"SoundDuration":312348,"Delta":464426711},{"NoteNumber":82,"Velocity":44,"Duration":108350,"SoundDuration":108350,"Delta":464739059},{"NoteNumber":67,"Velocity":28,"Duration":108350,"SoundDuration":108350,"Delta":464739059},{"NoteNumber":70,"Velocity":35,"Duration":108350,"SoundDuration":108350,"Delta":464739059},{"NoteNumber":81,"Velocity":50,"Duration":104115,"SoundDuration":104115,"Delta":464847410},{"NoteNumber":69,"Velocity":40,"Duration":104115,"SoundDuration":104115,"Delta":464847410},{"NoteNumber":65,"Velocity":32,"Duration":104115,"SoundDuration":104115,"Delta":464847410},{"NoteNumber":81,"Velocity":50,"Duration":104115,"SoundDuration":104115,"Delta":465263874},{"NoteNumber":65,"Velocity":32,"Duration":104115,"SoundDuration":104115,"Delta":465263874},{"NoteNumber":69,"Velocity":40,"Duration":104115,"SoundDuration":104115,"Delta":465263874},{"NoteNumber":81,"Velocity":47,"Duration":312347,"SoundDuration":312347,"Delta":465684572},{"NoteNumber":65,"Velocity":29,"Duration":312347,"SoundDuration":312347,"Delta":465684572},{"NoteNumber":69,"Velocity":37,"Duration":312347,"SoundDuration":312347,"Delta":465684572},{"NoteNumber":79,"Velocity":42,"Duration":104116,"SoundDuration":104116,"Delta":465996920},{"NoteNumber":67,"Velocity":33,"Duration":104116,"SoundDuration":104116,"Delta":465996920},{"NoteNumber":60,"Velocity":26,"Duration":104116,"SoundDuration":104116,"Delta":465996920},{"NoteNumber":77,"Velocity":48,"Duration":104115,"SoundDuration":104115,"Delta":466101036},{"NoteNumber":65,"Velocity":38,"Duration":104115,"SoundDuration":104115,"Delta":466101036},{"NoteNumber":57,"Velocity":30,"Duration":104115,"SoundDuration":104115,"Delta":466101036},{"NoteNumber":77,"Velocity":44,"Duration":104116,"SoundDuration":104116,"Delta":466517500},{"NoteNumber":65,"Velocity":35,"Duration":104116,"SoundDuration":104116,"Delta":466517500},{"NoteNumber":57,"Velocity":28,"Duration":104116,"SoundDuration":104116,"Delta":466517500},{"NoteNumber":77,"Velocity":44,"Duration":416464,"SoundDuration":416464,"Delta":466937253},{"NoteNumber":65,"Velocity":35,"Duration":416464,"SoundDuration":416464,"Delta":466937253},{"NoteNumber":57,"Velocity":28,"Duration":416464,"SoundDuration":416464,"Delta":466937253},{"NoteNumber":76,"Velocity":46,"Duration":104115,"SoundDuration":104115,"Delta":467353717},{"NoteNumber":79,"Velocity":46,"Duration":104115,"SoundDuration":104115,"Delta":467353717},{"NoteNumber":60,"Velocity":28,"Duration":104115,"SoundDuration":104115,"Delta":467353717},{"NoteNumber":67,"Velocity":36,"Duration":104115,"SoundDuration":104115,"Delta":467353717},{"NoteNumber":76,"Velocity":44,"Duration":104116,"SoundDuration":104116,"Delta":467770181},{"NoteNumber":79,"Velocity":44,"Duration":104116,"SoundDuration":104116,"Delta":467770181},{"NoteNumber":67,"Velocity":35,"Duration":104116,"SoundDuration":104116,"Delta":467770181},{"NoteNumber":60,"Velocity":28,"Duration":104116,"SoundDuration":104116,"Delta":467770181},{"NoteNumber":79,"Velocity":44,"Duration":105760,"SoundDuration":105760,"Delta":468186645},{"NoteNumber":76,"Velocity":44,"Duration":105760,"SoundDuration":105760,"Delta":468186645},{"NoteNumber":60,"Velocity":28,"Duration":105760,"SoundDuration":105760,"Delta":468186645},{"NoteNumber":67,"Velocity":35,"Duration":105760,"SoundDuration":105760,"Delta":468186645},{"NoteNumber":76,"Velocity":50,"Duration":416464,"SoundDuration":416464,"Delta":468609687},{"NoteNumber":79,"Velocity":50,"Duration":416464,"SoundDuration":416464,"Delta":468609687},{"NoteNumber":67,"Velocity":40,"Duration":416464,"SoundDuration":416464,"Delta":468609687},{"NoteNumber":60,"Velocity":32,"Duration":416464,"SoundDuration":416464,"Delta":468609687},{"NoteNumber":81,"Velocity":44,"Duration":435287,"SoundDuration":435287,"Delta":469026151},{"NoteNumber":77,"Velocity":44,"Duration":435287,"SoundDuration":435287,"Delta":469026151},{"NoteNumber":69,"Velocity":35,"Duration":435287,"SoundDuration":435287,"Delta":469026151},{"NoteNumber":65,"Velocity":28,"Duration":435287,"SoundDuration":435287,"Delta":469026151},{"NoteNumber":84,"Velocity":50,"Duration":97112,"SoundDuration":97112,"Delta":469461438},{"NoteNumber":72,"Velocity":40,"Duration":291337,"SoundDuration":291337,"Delta":469461438},{"NoteNumber":69,"Velocity":32,"Duration":291337,"SoundDuration":291337,"Delta":469461438},{"NoteNumber":86,"Velocity":44,"Duration":97112,"SoundDuration":97112,"Delta":469558550},{"NoteNumber":84,"Velocity":44,"Duration":97112,"SoundDuration":97112,"Delta":469655663},{"NoteNumber":82,"Velocity":44,"Duration":97112,"SoundDuration":97112,"Delta":469752775},{"NoteNumber":70,"Velocity":35,"Duration":97112,"SoundDuration":97112,"Delta":469752775},{"NoteNumber":67,"Velocity":28,"Duration":97112,"SoundDuration":97112,"Delta":469752775},{"NoteNumber":81,"Velocity":50,"Duration":104115,"SoundDuration":104115,"Delta":469849888},{"NoteNumber":65,"Velocity":32,"Duration":104115,"SoundDuration":104115,"Delta":469849888},{"NoteNumber":69,"Velocity":40,"Duration":104115,"SoundDuration":104115,"Delta":469849888},{"NoteNumber":81,"Velocity":50,"Duration":104115,"SoundDuration":104115,"Delta":470266352},{"NoteNumber":65,"Velocity":32,"Duration":104115,"SoundDuration":104115,"Delta":470266352},{"NoteNumber":69,"Velocity":40,"Duration":104115,"SoundDuration":104115,"Delta":470266352},{"NoteNumber":81,"Velocity":47,"Duration":97112,"SoundDuration":97112,"Delta":470682816},{"NoteNumber":69,"Velocity":37,"Duration":291337,"SoundDuration":291337,"Delta":470682816},{"NoteNumber":65,"Velocity":29,"Duration":291337,"SoundDuration":291337,"Delta":470682816},{"NoteNumber":82,"Velocity":42,"Duration":97112,"SoundDuration":97112,"Delta":470779928},{"NoteNumber":81,"Velocity":42,"Duration":97112,"SoundDuration":97112,"Delta":470877041},{"NoteNumber":79,"Velocity":42,"Duration":111341,"SoundDuration":111341,"Delta":470974153},{"NoteNumber":67,"Velocity":33,"Duration":111341,"SoundDuration":111341,"Delta":470974153},{"NoteNumber":60,"Velocity":26,"Duration":111341,"SoundDuration":111341,"Delta":470974153},{"NoteNumber":77,"Velocity":48,"Duration":104115,"SoundDuration":104115,"Delta":471085495},{"NoteNumber":65,"Velocity":38,"Duration":104115,"SoundDuration":104115,"Delta":471085495},{"NoteNumber":57,"Velocity":30,"Duration":104115,"SoundDuration":104115,"Delta":471085495},{"NoteNumber":77,"Velocity":44,"Duration":104115,"SoundDuration":104115,"Delta":471501959},{"NoteNumber":57,"Velocity":28,"Duration":104115,"SoundDuration":104115,"Delta":471501959},{"NoteNumber":65,"Velocity":35,"Duration":104115,"SoundDuration":104115,"Delta":471501959},{"NoteNumber":77,"Velocity":44,"Duration":104116,"SoundDuration":104116,"Delta":471918423},{"NoteNumber":57,"Velocity":28,"Duration":104116,"SoundDuration":104116,"Delta":471918423},{"NoteNumber":65,"Velocity":35,"Duration":104116,"SoundDuration":104116,"Delta":471918423},{"NoteNumber":79,"Velocity":49,"Duration":410059,"SoundDuration":410059,"Delta":472334887},{"NoteNumber":67,"Velocity":37,"Duration":410059,"SoundDuration":410059,"Delta":472334887},{"NoteNumber":60,"Velocity":29,"Duration":410059,"SoundDuration":410059,"Delta":472334887},{"NoteNumber":82,"Velocity":44,"Duration":109234,"SoundDuration":109234,"Delta":472744947},{"NoteNumber":76,"Velocity":44,"Duration":423042,"SoundDuration":423042,"Delta":473181883},{"NoteNumber":70,"Velocity":35,"Duration":423042,"SoundDuration":423042,"Delta":473181883},{"NoteNumber":60,"Velocity":28,"Duration":423042,"SoundDuration":423042,"Delta":473181883},{"NoteNumber":67,"Velocity":35,"Duration":423042,"SoundDuration":423042,"Delta":473181883},{"NoteNumber":69,"Velocity":38,"Duration":423041,"SoundDuration":423041,"Delta":473604925},{"NoteNumber":77,"Velocity":48,"Duration":423041,"SoundDuration":423041,"Delta":473604925},{"NoteNumber":65,"Velocity":39,"Duration":423041,"SoundDuration":423041,"Delta":473604925},{"NoteNumber":84,"Velocity":44,"Duration":423042,"SoundDuration":423042,"Delta":474451009},{"NoteNumber":70,"Velocity":35,"Duration":423042,"SoundDuration":423042,"Delta":474451009},{"NoteNumber":60,"Velocity":28,"Duration":423042,"SoundDuration":423042,"Delta":474451009},{"NoteNumber":64,"Velocity":28,"Duration":423042,"SoundDuration":423042,"Delta":474451009},{"NoteNumber":77,"Velocity":48,"Duration":423042,"SoundDuration":423042,"Delta":474874051},{"NoteNumber":69,"Velocity":39,"Duration":423042,"SoundDuration":423042,"Delta":474874051},{"NoteNumber":65,"Velocity":31,"Duration":423042,"SoundDuration":423042,"Delta":474874051},{"NoteNumber":72,"Velocity":39,"Duration":423042,"SoundDuration":423042,"Delta":475720135},{"NoteNumber":58,"Velocity":31,"Duration":423042,"SoundDuration":423042,"Delta":475720135},{"NoteNumber":52,"Velocity":25,"Duration":423042,"SoundDuration":423042,"Delta":475720135},{"NoteNumber":48,"Velocity":25,"Duration":423042,"SoundDuration":423042,"Delta":475720135},{"NoteNumber":65,"Velocity":43,"Duration":423042,"SoundDuration":423042,"Delta":476143177},{"NoteNumber":53,"Velocity":27,"Duration":423042,"SoundDuration":423042,"Delta":476143177},{"NoteNumber":57,"Velocity":35,"Duration":423042,"SoundDuration":423042,"Delta":476143177},{"NoteNumber":61,"Velocity":80,"Duration":428815,"SoundDuration":428815,"Delta":476989261},{"NoteNumber":37,"Velocity":51,"Duration":428815,"SoundDuration":428815,"Delta":476989261},{"NoteNumber":49,"Velocity":60,"Duration":428815,"SoundDuration":428815,"Delta":476989261},{"NoteNumber":62,"Velocity":85,"Duration":623484,"SoundDuration":623484,"Delta":477418077},{"NoteNumber":50,"Velocity":66,"Duration":207828,"SoundDuration":207828,"Delta":477418077},{"NoteNumber":38,"Velocity":56,"Duration":207828,"SoundDuration":207828,"Delta":477418077},{"NoteNumber":53,"Velocity":60,"Duration":207828,"SoundDuration":207828,"Delta":477625905},{"NoteNumber":57,"Velocity":60,"Duration":207828,"SoundDuration":207828,"Delta":477833733},{"NoteNumber":65,"Velocity":70,"Duration":101715,"SoundDuration":101715,"Delta":478041561},{"NoteNumber":53,"Velocity":60,"Duration":203431,"SoundDuration":203431,"Delta":478041561},{"NoteNumber":69,"Velocity":72,"Duration":101715,"SoundDuration":101715,"Delta":478143277},{"NoteNumber":74,"Velocity":84,"Duration":101715,"SoundDuration":101715,"Delta":478244992},{"NoteNumber":57,"Velocity":63,"Duration":203430,"SoundDuration":203430,"Delta":478244992},{"NoteNumber":69,"Velocity":71,"Duration":101715,"SoundDuration":101715,"Delta":478448423},{"NoteNumber":53,"Velocity":60,"Duration":203431,"SoundDuration":203431,"Delta":478448423},{"NoteNumber":74,"Velocity":73,"Duration":101715,"SoundDuration":101715,"Delta":478550139},{"NoteNumber":77,"Velocity":86,"Duration":101715,"SoundDuration":101715,"Delta":478651854},{"NoteNumber":50,"Velocity":65,"Duration":203430,"SoundDuration":203430,"Delta":478651854},{"NoteNumber":74,"Velocity":71,"Duration":101715,"SoundDuration":101715,"Delta":478855285},{"NoteNumber":53,"Velocity":60,"Duration":203431,"SoundDuration":203431,"Delta":478855285},{"NoteNumber":77,"Velocity":73,"Duration":101715,"SoundDuration":101715,"Delta":478957001},{"NoteNumber":81,"Velocity":87,"Duration":103170,"SoundDuration":103170,"Delta":479058716},{"NoteNumber":57,"Velocity":63,"Duration":206341,"SoundDuration":206341,"Delta":479058716},{"NoteNumber":81,"Velocity":80,"Duration":206341,"SoundDuration":206341,"Delta":479265058},{"NoteNumber":53,"Velocity":60,"Duration":206341,"SoundDuration":206341,"Delta":479265058},{"NoteNumber":77,"Velocity":80,"Duration":209336,"SoundDuration":209336,"Delta":479471399},{"NoteNumber":57,"Velocity":60,"Duration":209336,"SoundDuration":209336,"Delta":479471399},{"NoteNumber":74,"Velocity":80,"Duration":109425,"SoundDuration":109425,"Delta":479680736},{"NoteNumber":53,"Velocity":62,"Duration":218850,"SoundDuration":218850,"Delta":479680736},{"NoteNumber":73,"Velocity":70,"Duration":36475,"SoundDuration":36475,"Delta":479790161},{"NoteNumber":76,"Velocity":70,"Duration":36475,"SoundDuration":36475,"Delta":479826636},{"NoteNumber":79,"Velocity":70,"Duration":36475,"SoundDuration":36475,"Delta":479863111},{"NoteNumber":82,"Velocity":90,"Duration":631150,"SoundDuration":631150,"Delta":479899586},{"NoteNumber":40,"Velocity":60,"Duration":106202,"SoundDuration":106202,"Delta":479899586},{"NoteNumber":52,"Velocity":71,"Duration":106202,"SoundDuration":106202,"Delta":479899586},{"NoteNumber":55,"Velocity":60,"Duration":103170,"SoundDuration":103170,"Delta":480324395},{"NoteNumber":52,"Velocity":60,"Duration":103170,"SoundDuration":103170,"Delta":480324395},{"NoteNumber":58,"Velocity":60,"Duration":103170,"SoundDuration":103170,"Delta":480324395},{"NoteNumber":61,"Velocity":71,"Duration":103170,"SoundDuration":103170,"Delta":480324395},{"NoteNumber":81,"Velocity":71,"Duration":109780,"SoundDuration":109780,"Delta":480530737},{"NoteNumber":79,"Velocity":68,"Duration":109780,"SoundDuration":109780,"Delta":480630537},{"NoteNumber":77,"Velocity":68,"Duration":109780,"SoundDuration":109780,"Delta":480730338},{"NoteNumber":76,"Velocity":68,"Duration":109780,"SoundDuration":109780,"Delta":480830138},{"NoteNumber":74,"Velocity":69,"Duration":111084,"SoundDuration":111084,"Delta":480929939},{"NoteNumber":73,"Velocity":72,"Duration":123461,"SoundDuration":123461,"Delta":481029739},{"NoteNumber":82,"Velocity":90,"Duration":632636,"SoundDuration":632636,"Delta":481142581},{"NoteNumber":52,"Velocity":71,"Duration":106202,"SoundDuration":106202,"Delta":481142581},{"NoteNumber":40,"Velocity":60,"Duration":106202,"SoundDuration":106202,"Delta":481142581},{"NoteNumber":61,"Velocity":71,"Duration":103913,"SoundDuration":103913,"Delta":481567390},{"NoteNumber":52,"Velocity":60,"Duration":103913,"SoundDuration":103913,"Delta":481567390},{"NoteNumber":55,"Velocity":60,"Duration":103913,"SoundDuration":103913,"Delta":481567390},{"NoteNumber":58,"Velocity":60,"Duration":103913,"SoundDuration":103913,"Delta":481567390},{"NoteNumber":81,"Velocity":71,"Duration":110545,"SoundDuration":110545,"Delta":481775218},{"NoteNumber":79,"Velocity":68,"Duration":110545,"SoundDuration":110545,"Delta":481875713},{"NoteNumber":77,"Velocity":68,"Duration":110545,"SoundDuration":110545,"Delta":481976209},{"NoteNumber":76,"Velocity":68,"Duration":110545,"SoundDuration":110545,"Delta":482076705},{"NoteNumber":74,"Velocity":69,"Duration":110545,"SoundDuration":110545,"Delta":482177201},{"NoteNumber":73,"Velocity":72,"Duration":110832,"SoundDuration":110832,"Delta":482277696},{"NoteNumber":74,"Velocity":88,"Duration":620218,"SoundDuration":620218,"Delta":482378192},{"NoteNumber":53,"Velocity":66,"Duration":206739,"SoundDuration":206739,"Delta":482378192},{"NoteNumber":57,"Velocity":60,"Duration":206739,"SoundDuration":206739,"Delta":482584932},{"NoteNumber":62,"Velocity":60,"Duration":206739,"SoundDuration":206739,"Delta":482791671},{"NoteNumber":65,"Velocity":70,"Duration":101715,"SoundDuration":101715,"Delta":482998411},{"NoteNumber":57,"Velocity":60,"Duration":203431,"SoundDuration":203431,"Delta":482998411},{"NoteNumber":69,"Velocity":72,"Duration":101715,"SoundDuration":101715,"Delta":483100126},{"NoteNumber":74,"Velocity":84,"Duration":101715,"SoundDuration":101715,"Delta":483201842},{"NoteNumber":62,"Velocity":63,"Duration":203430,"SoundDuration":203430,"Delta":483201842},{"NoteNumber":69,"Velocity":71,"Duration":101715,"SoundDuration":101715,"Delta":483405273},{"NoteNumber":57,"Velocity":60,"Duration":203431,"SoundDuration":203431,"Delta":483405273},{"NoteNumber":74,"Velocity":73,"Duration":101715,"SoundDuration":101715,"Delta":483506988},{"NoteNumber":77,"Velocity":86,"Duration":101715,"SoundDuration":101715,"Delta":483608704},{"NoteNumber":53,"Velocity":65,"Duration":203430,"SoundDuration":203430,"Delta":483608704},{"NoteNumber":74,"Velocity":71,"Duration":101715,"SoundDuration":101715,"Delta":483812135},{"NoteNumber":57,"Velocity":60,"Duration":203431,"SoundDuration":203431,"Delta":483812135},{"NoteNumber":77,"Velocity":73,"Duration":101715,"SoundDuration":101715,"Delta":483913850},{"NoteNumber":81,"Velocity":87,"Duration":103170,"SoundDuration":103170,"Delta":484015566},{"NoteNumber":62,"Velocity":63,"Duration":206341,"SoundDuration":206341,"Delta":484015566},{"NoteNumber":81,"Velocity":80,"Duration":206341,"SoundDuration":206341,"Delta":484221907},{"NoteNumber":57,"Velocity":60,"Duration":206341,"SoundDuration":206341,"Delta":484221907},{"NoteNumber":77,"Velocity":80,"Duration":209336,"SoundDuration":209336,"Delta":484428249},{"NoteNumber":62,"Velocity":60,"Duration":209336,"SoundDuration":209336,"Delta":484428249},{"NoteNumber":74,"Velocity":80,"Duration":218850,"SoundDuration":218850,"Delta":484637585},{"NoteNumber":57,"Velocity":62,"Duration":218850,"SoundDuration":218850,"Delta":484637585},{"NoteNumber":74,"Velocity":75,"Duration":631150,"SoundDuration":631150,"Delta":484856436},{"NoteNumber":80,"Velocity":90,"Duration":631150,"SoundDuration":631150,"Delta":484856436},{"NoteNumber":77,"Velocity":75,"Duration":631150,"SoundDuration":631150,"Delta":484856436},{"NoteNumber":71,"Velocity":75,"Duration":631150,"SoundDuration":631150,"Delta":484856436},{"NoteNumber":38,"Velocity":60,"Duration":106202,"SoundDuration":106202,"Delta":484856436},{"NoteNumber":50,"Velocity":71,"Duration":106202,"SoundDuration":106202,"Delta":484856436},{"NoteNumber":56,"Velocity":60,"Duration":103170,"SoundDuration":103170,"Delta":485281245},{"NoteNumber":50,"Velocity":60,"Duration":103170,"SoundDuration":103170,"Delta":485281245},{"NoteNumber":59,"Velocity":71,"Duration":103170,"SoundDuration":103170,"Delta":485281245},{"NoteNumber":53,"Velocity":60,"Duration":103170,"SoundDuration":103170,"Delta":485281245},{"NoteNumber":79,"Velocity":71,"Duration":109780,"SoundDuration":109780,"Delta":485487586},{"NoteNumber":77,"Velocity":68,"Duration":109780,"SoundDuration":109780,"Delta":485587387},{"NoteNumber":75,"Velocity":68,"Duration":109780,"SoundDuration":109780,"Delta":485687187},{"NoteNumber":74,"Velocity":68,"Duration":109780,"SoundDuration":109780,"Delta":485786988},{"NoteNumber":72,"Velocity":69,"Duration":111449,"SoundDuration":111449,"Delta":485886788},{"NoteNumber":71,"Velocity":72,"Duration":127106,"SoundDuration":127106,"Delta":485986589},{"NoteNumber":80,"Velocity":90,"Duration":632636,"SoundDuration":632636,"Delta":486103075},{"NoteNumber":38,"Velocity":60,"Duration":106202,"SoundDuration":106202,"Delta":486103075},{"NoteNumber":50,"Velocity":71,"Duration":106202,"SoundDuration":106202,"Delta":486103075},{"NoteNumber":53,"Velocity":60,"Duration":103913,"SoundDuration":103913,"Delta":486527884},{"NoteNumber":59,"Velocity":71,"Duration":103913,"SoundDuration":103913,"Delta":486527884},{"NoteNumber":56,"Velocity":60,"Duration":103913,"SoundDuration":103913,"Delta":486527884},{"NoteNumber":50,"Velocity":60,"Duration":103913,"SoundDuration":103913,"Delta":486527884},{"NoteNumber":79,"Velocity":71,"Duration":111321,"SoundDuration":111321,"Delta":486735712},{"NoteNumber":77,"Velocity":68,"Duration":111321,"SoundDuration":111321,"Delta":486836913},{"NoteNumber":75,"Velocity":68,"Duration":111321,"SoundDuration":111321,"Delta":486938114},{"NoteNumber":74,"Velocity":68,"Duration":111321,"SoundDuration":111321,"Delta":487039315},{"NoteNumber":72,"Velocity":69,"Duration":111321,"SoundDuration":111321,"Delta":487140516},{"NoteNumber":71,"Velocity":72,"Duration":111464,"SoundDuration":111464,"Delta":487241717},{"NoteNumber":72,"Velocity":88,"Duration":615805,"SoundDuration":615805,"Delta":487342918},{"NoteNumber":51,"Velocity":66,"Duration":205268,"SoundDuration":205268,"Delta":487342918},{"NoteNumber":55,"Velocity":60,"Duration":205268,"SoundDuration":205268,"Delta":487548187},{"NoteNumber":60,"Velocity":60,"Duration":205268,"SoundDuration":205268,"Delta":487753455},{"NoteNumber":63,"Velocity":70,"Duration":101715,"SoundDuration":101715,"Delta":487958724},{"NoteNumber":55,"Velocity":60,"Duration":203431,"SoundDuration":203431,"Delta":487958724},{"NoteNumber":67,"Velocity":72,"Duration":101715,"SoundDuration":101715,"Delta":488060439},{"NoteNumber":72,"Velocity":84,"Duration":101715,"SoundDuration":101715,"Delta":488162155},{"NoteNumber":60,"Velocity":63,"Duration":203430,"SoundDuration":203430,"Delta":488162155},{"NoteNumber":67,"Velocity":71,"Duration":101715,"SoundDuration":101715,"Delta":488365586},{"NoteNumber":55,"Velocity":60,"Duration":203431,"SoundDuration":203431,"Delta":488365586},{"NoteNumber":72,"Velocity":73,"Duration":101715,"SoundDuration":101715,"Delta":488467301},{"NoteNumber":75,"Velocity":86,"Duration":101715,"SoundDuration":101715,"Delta":488569017},{"NoteNumber":51,"Velocity":65,"Duration":203430,"SoundDuration":203430,"Delta":488569017},{"NoteNumber":72,"Velocity":71,"Duration":101715,"SoundDuration":101715,"Delta":488772448},{"NoteNumber":55,"Velocity":60,"Duration":203431,"SoundDuration":203431,"Delta":488772448},{"NoteNumber":75,"Velocity":73,"Duration":101715,"SoundDuration":101715,"Delta":488874163},{"NoteNumber":79,"Velocity":87,"Duration":103170,"SoundDuration":103170,"Delta":488975879},{"NoteNumber":60,"Velocity":63,"Duration":206341,"SoundDuration":206341,"Delta":488975879},{"NoteNumber":79,"Velocity":80,"Duration":206341,"SoundDuration":206341,"Delta":489182220},{"NoteNumber":55,"Velocity":60,"Duration":206341,"SoundDuration":206341,"Delta":489182220},{"NoteNumber":75,"Velocity":80,"Duration":209336,"SoundDuration":209336,"Delta":489388562},{"NoteNumber":60,"Velocity":60,"Duration":209336,"SoundDuration":209336,"Delta":489388562},{"NoteNumber":72,"Velocity":80,"Duration":218850,"SoundDuration":218850,"Delta":489597898},{"NoteNumber":55,"Velocity":62,"Duration":218850,"SoundDuration":218850,"Delta":489597898},{"NoteNumber":72,"Velocity":75,"Duration":631150,"SoundDuration":631150,"Delta":489816749},{"NoteNumber":78,"Velocity":90,"Duration":631150,"SoundDuration":631150,"Delta":489816749},{"NoteNumber":75,"Velocity":75,"Duration":631150,"SoundDuration":631150,"Delta":489816749},{"NoteNumber":69,"Velocity":75,"Duration":631150,"SoundDuration":631150,"Delta":489816749},{"NoteNumber":39,"Velocity":71,"Duration":106202,"SoundDuration":106202,"Delta":489816749},{"NoteNumber":57,"Velocity":60,"Duration":103170,"SoundDuration":103170,"Delta":490241558},{"NoteNumber":54,"Velocity":60,"Duration":103170,"SoundDuration":103170,"Delta":490241558},{"NoteNumber":60,"Velocity":71,"Duration":103170,"SoundDuration":103170,"Delta":490241558},{"NoteNumber":51,"Velocity":60,"Duration":103170,"SoundDuration":103170,"Delta":490241558},{"NoteNumber":77,"Velocity":71,"Duration":109780,"SoundDuration":109780,"Delta":490447899},{"NoteNumber":75,"Velocity":68,"Duration":109780,"SoundDuration":109780,"Delta":490547700},{"NoteNumber":73,"Velocity":68,"Duration":109780,"SoundDuration":109780,"Delta":490647500},{"NoteNumber":72,"Velocity":68,"Duration":109780,"SoundDuration":109780,"Delta":490747301},{"NoteNumber":70,"Velocity":69,"Duration":111449,"SoundDuration":111449,"Delta":490847101},{"NoteNumber":69,"Velocity":72,"Duration":127106,"SoundDuration":127106,"Delta":490946902},{"NoteNumber":78,"Velocity":90,"Duration":632636,"SoundDuration":632636,"Delta":491063389},{"NoteNumber":39,"Velocity":71,"Duration":106202,"SoundDuration":106202,"Delta":491063389},{"NoteNumber":51,"Velocity":60,"Duration":103913,"SoundDuration":103913,"Delta":491488198},{"NoteNumber":60,"Velocity":71,"Duration":103913,"SoundDuration":103913,"Delta":491488198},{"NoteNumber":57,"Velocity":60,"Duration":103913,"SoundDuration":103913,"Delta":491488198},{"NoteNumber":54,"Velocity":60,"Duration":103913,"SoundDuration":103913,"Delta":491488198},{"NoteNumber":77,"Velocity":71,"Duration":114305,"SoundDuration":114305,"Delta":491696026},{"NoteNumber":75,"Velocity":68,"Duration":114305,"SoundDuration":114305,"Delta":491799940},{"NoteNumber":73,"Velocity":68,"Duration":114305,"SoundDuration":114305,"Delta":491903854},{"NoteNumber":72,"Velocity":68,"Duration":114305,"SoundDuration":114305,"Delta":492007768},{"NoteNumber":70,"Velocity":69,"Duration":114305,"SoundDuration":114305,"Delta":492111682},{"NoteNumber":69,"Velocity":72,"Duration":114305,"SoundDuration":114305,"Delta":492215596},{"NoteNumber":70,"Velocity":88,"Duration":519569,"SoundDuration":519569,"Delta":492319510},{"NoteNumber":49,"Velocity":66,"Duration":207828,"SoundDuration":207828,"Delta":492319510},{"NoteNumber":53,"Velocity":60,"Duration":207828,"SoundDuration":207828,"Delta":492527338},{"NoteNumber":58,"Velocity":60,"Duration":207828,"SoundDuration":207828,"Delta":492735166},{"NoteNumber":65,"Velocity":69,"Duration":103914,"SoundDuration":103914,"Delta":492839080},{"NoteNumber":70,"Velocity":74,"Duration":101715,"SoundDuration":101715,"Delta":492942994},{"NoteNumber":53,"Velocity":60,"Duration":203431,"SoundDuration":203431,"Delta":492942994},{"NoteNumber":65,"Velocity":70,"Duration":101715,"SoundDuration":101715,"Delta":493044709},{"NoteNumber":73,"Velocity":74,"Duration":101715,"SoundDuration":101715,"Delta":493146425},{"NoteNumber":58,"Velocity":63,"Duration":203430,"SoundDuration":203430,"Delta":493146425},{"NoteNumber":70,"Velocity":71,"Duration":101715,"SoundDuration":101715,"Delta":493248140},{"NoteNumber":73,"Velocity":75,"Duration":101715,"SoundDuration":101715,"Delta":493349856},{"NoteNumber":53,"Velocity":60,"Duration":203431,"SoundDuration":203431,"Delta":493349856},{"NoteNumber":70,"Velocity":70,"Duration":101715,"SoundDuration":101715,"Delta":493451571},{"NoteNumber":77,"Velocity":74,"Duration":101715,"SoundDuration":101715,"Delta":493553287},{"NoteNumber":49,"Velocity":66,"Duration":203431,"SoundDuration":203431,"Delta":493553287},{"NoteNumber":73,"Velocity":71,"Duration":101715,"SoundDuration":101715,"Delta":493655002},{"NoteNumber":77,"Velocity":74,"Duration":101715,"SoundDuration":101715,"Delta":493756718},{"NoteNumber":53,"Velocity":60,"Duration":219150,"SoundDuration":219150,"Delta":493756718},{"NoteNumber":73,"Velocity":71,"Duration":117435,"SoundDuration":117435,"Delta":493858433},{"NoteNumber":82,"Velocity":91,"Duration":414212,"SoundDuration":414212,"Delta":493975868},{"NoteNumber":58,"Velocity":60,"Duration":204876,"SoundDuration":204876,"Delta":493975868},{"NoteNumber":53,"Velocity":60,"Duration":209336,"SoundDuration":209336,"Delta":494180744},{"NoteNumber":58,"Velocity":63,"Duration":209336,"SoundDuration":209336,"Delta":494390081},{"NoteNumber":53,"Velocity":60,"Duration":209336,"SoundDuration":209336,"Delta":494599417},{"NoteNumber":69,"Velocity":88,"Duration":519569,"SoundDuration":519569,"Delta":494808754},{"NoteNumber":48,"Velocity":66,"Duration":207828,"SoundDuration":207828,"Delta":494808754},{"NoteNumber":53,"Velocity":60,"Duration":207828,"SoundDuration":207828,"Delta":495016582},{"NoteNumber":57,"Velocity":60,"Duration":207828,"SoundDuration":207828,"Delta":495224410},{"NoteNumber":65,"Velocity":69,"Duration":103914,"SoundDuration":103914,"Delta":495328324},{"NoteNumber":69,"Velocity":74,"Duration":101715,"SoundDuration":101715,"Delta":495432238},{"NoteNumber":53,"Velocity":60,"Duration":203431,"SoundDuration":203431,"Delta":495432238},{"NoteNumber":65,"Velocity":70,"Duration":101715,"SoundDuration":101715,"Delta":495533953},{"NoteNumber":72,"Velocity":74,"Duration":101715,"SoundDuration":101715,"Delta":495635669},{"NoteNumber":57,"Velocity":63,"Duration":203430,"SoundDuration":203430,"Delta":495635669},{"NoteNumber":69,"Velocity":71,"Duration":101715,"SoundDuration":101715,"Delta":495737384},{"NoteNumber":72,"Velocity":75,"Duration":101715,"SoundDuration":101715,"Delta":495839100},{"NoteNumber":53,"Velocity":60,"Duration":203431,"SoundDuration":203431,"Delta":495839100},{"NoteNumber":69,"Velocity":70,"Duration":101715,"SoundDuration":101715,"Delta":495940815},{"NoteNumber":77,"Velocity":74,"Duration":101715,"SoundDuration":101715,"Delta":496042531},{"NoteNumber":48,"Velocity":66,"Duration":203431,"SoundDuration":203431,"Delta":496042531},{"NoteNumber":72,"Velocity":71,"Duration":101715,"SoundDuration":101715,"Delta":496144246},{"NoteNumber":77,"Velocity":74,"Duration":101715,"SoundDuration":101715,"Delta":496245962},{"NoteNumber":53,"Velocity":60,"Duration":219150,"SoundDuration":219150,"Delta":496245962},{"NoteNumber":72,"Velocity":71,"Duration":117435,"SoundDuration":117435,"Delta":496347677},{"NoteNumber":81,"Velocity":91,"Duration":414212,"SoundDuration":414212,"Delta":496465113},{"NoteNumber":57,"Velocity":60,"Duration":204876,"SoundDuration":204876,"Delta":496465113},{"NoteNumber":53,"Velocity":60,"Duration":209336,"SoundDuration":209336,"Delta":496669989},{"NoteNumber":57,"Velocity":63,"Duration":209336,"SoundDuration":209336,"Delta":496879325},{"NoteNumber":53,"Velocity":60,"Duration":222684,"SoundDuration":222684,"Delta":497088662},{"NoteNumber":68,"Velocity":88,"Duration":519569,"SoundDuration":519569,"Delta":497311346},{"NoteNumber":47,"Velocity":66,"Duration":207828,"SoundDuration":207828,"Delta":497311346},{"NoteNumber":53,"Velocity":60,"Duration":207828,"SoundDuration":207828,"Delta":497519174},{"NoteNumber":56,"Velocity":60,"Duration":207828,"SoundDuration":207828,"Delta":497727002},{"NoteNumber":65,"Velocity":69,"Duration":103914,"SoundDuration":103914,"Delta":497830916},{"NoteNumber":68,"Velocity":74,"Duration":101715,"SoundDuration":101715,"Delta":497934830},{"NoteNumber":53,"Velocity":60,"Duration":203431,"SoundDuration":203431,"Delta":497934830},{"NoteNumber":65,"Velocity":70,"Duration":101715,"SoundDuration":101715,"Delta":498036545},{"NoteNumber":74,"Velocity":74,"Duration":101715,"SoundDuration":101715,"Delta":498138261},{"NoteNumber":56,"Velocity":63,"Duration":203430,"SoundDuration":203430,"Delta":498138261},{"NoteNumber":68,"Velocity":71,"Duration":101715,"SoundDuration":101715,"Delta":498239976},{"NoteNumber":74,"Velocity":75,"Duration":101715,"SoundDuration":101715,"Delta":498341692},{"NoteNumber":53,"Velocity":60,"Duration":203431,"SoundDuration":203431,"Delta":498341692},{"NoteNumber":68,"Velocity":70,"Duration":101715,"SoundDuration":101715,"Delta":498443407},{"NoteNumber":77,"Velocity":74,"Duration":101715,"SoundDuration":101715,"Delta":498545123},{"NoteNumber":47,"Velocity":66,"Duration":203431,"SoundDuration":203431,"Delta":498545123},{"NoteNumber":74,"Velocity":71,"Duration":101715,"SoundDuration":101715,"Delta":498646838},{"NoteNumber":77,"Velocity":74,"Duration":101715,"SoundDuration":101715,"Delta":498748554},{"NoteNumber":53,"Velocity":60,"Duration":219150,"SoundDuration":219150,"Delta":498748554},{"NoteNumber":74,"Velocity":71,"Duration":117435,"SoundDuration":117435,"Delta":498850269},{"NoteNumber":80,"Velocity":91,"Duration":414212,"SoundDuration":414212,"Delta":498967704},{"NoteNumber":56,"Velocity":60,"Duration":204876,"SoundDuration":204876,"Delta":498967704},{"NoteNumber":53,"Velocity":60,"Duration":209336,"SoundDuration":209336,"Delta":499172580},{"NoteNumber":77,"Velocity":81,"Duration":314004,"SoundDuration":314004,"Delta":499381917},{"NoteNumber":56,"Velocity":63,"Duration":209336,"SoundDuration":209336,"Delta":499381917},{"NoteNumber":53,"Velocity":60,"Duration":214093,"SoundDuration":214093,"Delta":499591253},{"NoteNumber":72,"Velocity":70,"Duration":36475,"SoundDuration":36475,"Delta":499695922},{"NoteNumber":76,"Velocity":70,"Duration":36475,"SoundDuration":36475,"Delta":499732397},{"NoteNumber":79,"Velocity":70,"Duration":36475,"SoundDuration":36475,"Delta":499768872},{"NoteNumber":84,"Velocity":90,"Duration":846084,"SoundDuration":846084,"Delta":499805347},{"NoteNumber":48,"Velocity":66,"Duration":211521,"SoundDuration":211521,"Delta":499805347},{"NoteNumber":52,"Velocity":60,"Duration":211521,"SoundDuration":211521,"Delta":500016868},{"NoteNumber":55,"Velocity":60,"Duration":211521,"SoundDuration":211521,"Delta":500228389},{"NoteNumber":60,"Velocity":60,"Duration":211521,"SoundDuration":211521,"Delta":500439910},{"NoteNumber":82,"Velocity":72,"Duration":110529,"SoundDuration":110529,"Delta":500651431},{"NoteNumber":53,"Velocity":63,"Duration":204053,"SoundDuration":204053,"Delta":500651431},{"NoteNumber":80,"Velocity":72,"Duration":110529,"SoundDuration":110529,"Delta":500753458},{"NoteNumber":79,"Velocity":73,"Duration":111430,"SoundDuration":111430,"Delta":500855485},{"NoteNumber":56,"Velocity":60,"Duration":214868,"SoundDuration":214868,"Delta":500855485},{"NoteNumber":77,"Velocity":76,"Duration":112841,"SoundDuration":112841,"Delta":500957512},{"NoteNumber":84,"Velocity":90,"Duration":832612,"SoundDuration":832612,"Delta":501070353},{"NoteNumber":48,"Velocity":66,"Duration":208478,"SoundDuration":208478,"Delta":501070353},{"NoteNumber":52,"Velocity":60,"Duration":208478,"SoundDuration":208478,"Delta":501278831},{"NoteNumber":55,"Velocity":60,"Duration":207828,"SoundDuration":207828,"Delta":501487309},{"NoteNumber":60,"Velocity":60,"Duration":207828,"SoundDuration":207828,"Delta":501695137},{"NoteNumber":82,"Velocity":72,"Duration":109752,"SoundDuration":109752,"Delta":501902965},{"NoteNumber":53,"Velocity":63,"Duration":202620,"SoundDuration":202620,"Delta":501902965},{"NoteNumber":80,"Velocity":72,"Duration":109752,"SoundDuration":109752,"Delta":502004275},{"NoteNumber":79,"Velocity":73,"Duration":109752,"SoundDuration":109752,"Delta":502105586},{"NoteNumber":56,"Velocity":60,"Duration":202620,"SoundDuration":202620,"Delta":502105586},{"NoteNumber":77,"Velocity":76,"Duration":101310,"SoundDuration":101310,"Delta":502206896},{"NoteNumber":72,"Velocity":90,"Duration":621994,"SoundDuration":621994,"Delta":502308206},{"NoteNumber":60,"Velocity":72,"Duration":621994,"SoundDuration":621994,"Delta":502308206},{"NoteNumber":73,"Velocity":79,"Duration":110123,"SoundDuration":110123,"Delta":502930200},{"NoteNumber":61,"Velocity":63,"Duration":110123,"SoundDuration":110123,"Delta":502930200},{"NoteNumber":72,"Velocity":78,"Duration":111698,"SoundDuration":111698,"Delta":503031798},{"NoteNumber":60,"Velocity":62,"Duration":111698,"SoundDuration":111698,"Delta":503031798},{"NoteNumber":70,"Velocity":76,"Duration":113314,"SoundDuration":113314,"Delta":503134847},{"NoteNumber":58,"Velocity":60,"Duration":113314,"SoundDuration":113314,"Delta":503134847},{"NoteNumber":68,"Velocity":75,"Duration":114978,"SoundDuration":114978,"Delta":503239387},{"NoteNumber":56,"Velocity":60,"Duration":114978,"SoundDuration":114978,"Delta":503239387},{"NoteNumber":67,"Velocity":74,"Duration":117759,"SoundDuration":117759,"Delta":503345460},{"NoteNumber":55,"Velocity":59,"Duration":117759,"SoundDuration":117759,"Delta":503345460},{"NoteNumber":65,"Velocity":72,"Duration":127823,"SoundDuration":127823,"Delta":503453319},{"NoteNumber":53,"Velocity":57,"Duration":127823,"SoundDuration":127823,"Delta":503453319},{"NoteNumber":72,"Velocity":79,"Duration":108139,"SoundDuration":108139,"Delta":503572131},{"NoteNumber":60,"Velocity":63,"Duration":108139,"SoundDuration":108139,"Delta":503572131},{"NoteNumber":60,"Velocity":72,"Duration":108139,"SoundDuration":108139,"Delta":504004688},{"NoteNumber":48,"Velocity":57,"Duration":108139,"SoundDuration":108139,"Delta":504004688},{"NoteNumber":36,"Velocity":48,"Duration":108139,"SoundDuration":108139,"Delta":504004688},{"NoteNumber":41,"Velocity":35,"Duration":54069,"SoundDuration":54069,"Delta":504707593},{"NoteNumber":48,"Velocity":35,"Duration":54069,"SoundDuration":54069,"Delta":504761662},{"NoteNumber":60,"Velocity":41,"Duration":54069,"SoundDuration":54069,"Delta":504815732},{"NoteNumber":69,"Velocity":45,"Duration":105760,"SoundDuration":105760,"Delta":504869802},{"NoteNumber":53,"Velocity":35,"Duration":423042,"SoundDuration":423042,"Delta":504869802},{"NoteNumber":69,"Velocity":43,"Duration":105760,"SoundDuration":105760,"Delta":505292844},{"NoteNumber":69,"Velocity":43,"Duration":121822,"SoundDuration":121822,"Delta":505715886},{"NoteNumber":48,"Velocity":34,"Duration":53270,"SoundDuration":53270,"Delta":506012802},{"NoteNumber":55,"Velocity":34,"Duration":53270,"SoundDuration":53270,"Delta":506066072},{"NoteNumber":64,"Velocity":42,"Duration":53270,"SoundDuration":53270,"Delta":506119343},{"NoteNumber":72,"Velocity":45,"Duration":639250,"SoundDuration":639250,"Delta":506172614},{"NoteNumber":58,"Velocity":35,"Duration":426167,"SoundDuration":426167,"Delta":506172614},{"NoteNumber":70,"Velocity":41,"Duration":213083,"SoundDuration":213083,"Delta":506811865},{"NoteNumber":67,"Velocity":41,"Duration":442477,"SoundDuration":442477,"Delta":507024948},{"NoteNumber":57,"Velocity":45,"Duration":426167,"SoundDuration":426167,"Delta":507467426},{"NoteNumber":67,"Velocity":45,"Duration":213083,"SoundDuration":213083,"Delta":507467426},{"NoteNumber":41,"Velocity":35,"Duration":426167,"SoundDuration":426167,"Delta":507467426},{"NoteNumber":65,"Velocity":41,"Duration":213083,"SoundDuration":213083,"Delta":507680510},{"NoteNumber":65,"Velocity":45,"Duration":620946,"SoundDuration":620946,"Delta":507893593},{"NoteNumber":60,"Velocity":45,"Duration":620946,"SoundDuration":620946,"Delta":507893593},{"NoteNumber":45,"Velocity":31,"Duration":413964,"SoundDuration":413964,"Delta":507893593},{"NoteNumber":48,"Velocity":31,"Duration":424894,"SoundDuration":424894,"Delta":508307557},{"NoteNumber":64,"Velocity":45,"Duration":217912,"SoundDuration":217912,"Delta":508514539},{"NoteNumber":67,"Velocity":45,"Duration":217912,"SoundDuration":217912,"Delta":508514539},{"NoteNumber":67,"Velocity":49,"Duration":852475,"SoundDuration":852475,"Delta":508732452},{"NoteNumber":64,"Velocity":49,"Duration":852475,"SoundDuration":852475,"Delta":508732452},{"NoteNumber":53,"Velocity":35,"Duration":429433,"SoundDuration":429433,"Delta":508732452},{"NoteNumber":41,"Velocity":31,"Duration":423042,"SoundDuration":423042,"Delta":509161885},{"NoteNumber":65,"Velocity":45,"Duration":435825,"SoundDuration":435825,"Delta":509584927},{"NoteNumber":69,"Velocity":45,"Duration":435825,"SoundDuration":435825,"Delta":509584927},{"NoteNumber":70,"Velocity":45,"Duration":633771,"SoundDuration":633771,"Delta":510020752},{"NoteNumber":50,"Velocity":35,"Duration":843752,"SoundDuration":843752,"Delta":510020752},{"NoteNumber":53,"Velocity":33,"Duration":414035,"SoundDuration":414035,"Delta":510450469},{"NoteNumber":58,"Velocity":33,"Duration":414035,"SoundDuration":414035,"Delta":510450469},{"NoteNumber":72,"Velocity":46,"Duration":52495,"SoundDuration":52495,"Delta":510654523},{"NoteNumber":70,"Velocity":42,"Duration":52495,"SoundDuration":52495,"Delta":510707018},{"NoteNumber":69,"Velocity":42,"Duration":52495,"SoundDuration":52495,"Delta":510759514},{"NoteNumber":70,"Velocity":45,"Duration":34996,"SoundDuration":34996,"Delta":510812009},{"NoteNumber":72,"Velocity":49,"Duration":209981,"SoundDuration":209981,"Delta":510864504},{"NoteNumber":74,"Velocity":47,"Duration":217912,"SoundDuration":217912,"Delta":511074485},{"NoteNumber":74,"Velocity":55,"Duration":206981,"SoundDuration":206981,"Delta":511292398},{"NoteNumber":52,"Velocity":38,"Duration":827927,"SoundDuration":827927,"Delta":511292398},{"NoteNumber":72,"Velocity":49,"Duration":206982,"SoundDuration":206982,"Delta":511499380},{"NoteNumber":71,"Velocity":52,"Duration":206981,"SoundDuration":206981,"Delta":511706362},{"NoteNumber":60,"Velocity":35,"Duration":413963,"SoundDuration":413963,"Delta":511706362},{"NoteNumber":55,"Velocity":35,"Duration":413963,"SoundDuration":413963,"Delta":511706362},{"NoteNumber":72,"Velocity":45,"Duration":206981,"SoundDuration":206981,"Delta":511913344},{"NoteNumber":70,"Velocity":50,"Duration":206982,"SoundDuration":206982,"Delta":512120326},{"NoteNumber":67,"Velocity":45,"Duration":219570,"SoundDuration":219570,"Delta":512327308},{"NoteNumber":68,"Velocity":49,"Duration":213083,"SoundDuration":213083,"Delta":512546879},{"NoteNumber":53,"Velocity":41,"Duration":426166,"SoundDuration":426166,"Delta":512546879},{"NoteNumber":69,"Velocity":45,"Duration":213083,"SoundDuration":213083,"Delta":512759962},{"NoteNumber":70,"Velocity":50,"Duration":205507,"SoundDuration":205507,"Delta":512973046},{"NoteNumber":50,"Velocity":31,"Duration":411015,"SoundDuration":411015,"Delta":512973046},{"NoteNumber":53,"Velocity":37,"Duration":411015,"SoundDuration":411015,"Delta":512973046},{"NoteNumber":69,"Velocity":45,"Duration":205507,"SoundDuration":205507,"Delta":513178553},{"NoteNumber":72,"Velocity":49,"Duration":205507,"SoundDuration":205507,"Delta":513384061},{"NoteNumber":46,"Velocity":29,"Duration":428456,"SoundDuration":428456,"Delta":513384061},{"NoteNumber":55,"Velocity":35,"Duration":428456,"SoundDuration":428456,"Delta":513384061},{"NoteNumber":70,"Velocity":45,"Duration":222948,"SoundDuration":222948,"Delta":513589568},{"NoteNumber":69,"Velocity":52,"Duration":213083,"SoundDuration":213083,"Delta":513812517},{"NoteNumber":48,"Velocity":34,"Duration":420065,"SoundDuration":420065,"Delta":513812517},{"NoteNumber":52,"Velocity":41,"Duration":420065,"SoundDuration":420065,"Delta":513812517},{"NoteNumber":67,"Velocity":45,"Duration":206982,"SoundDuration":206982,"Delta":514025601},{"NoteNumber":65,"Velocity":48,"Duration":206981,"SoundDuration":206981,"Delta":514232583},{"NoteNumber":64,"Velocity":45,"Duration":206982,"SoundDuration":206982,"Delta":514439565},{"NoteNumber":62,"Velocity":46,"Duration":213083,"SoundDuration":213083,"Delta":514646547},{"NoteNumber":60,"Velocity":45,"Duration":213083,"SoundDuration":213083,"Delta":514859630},{"NoteNumber":68,"Velocity":39,"Duration":213083,"SoundDuration":213083,"Delta":515072714},{"NoteNumber":80,"Velocity":49,"Duration":213083,"SoundDuration":213083,"Delta":515072714},{"NoteNumber":53,"Velocity":39,"Duration":142055,"SoundDuration":142055,"Delta":515072714},{"NoteNumber":57,"Velocity":31,"Duration":142055,"SoundDuration":142055,"Delta":515214769},{"NoteNumber":69,"Velocity":33,"Duration":213083,"SoundDuration":213083,"Delta":515285797},{"NoteNumber":81,"Velocity":42,"Duration":213083,"SoundDuration":213083,"Delta":515285797},{"NoteNumber":60,"Velocity":31,"Duration":142055,"SoundDuration":142055,"Delta":515356825},{"NoteNumber":68,"Velocity":39,"Duration":209745,"SoundDuration":209745,"Delta":515498881},{"NoteNumber":80,"Velocity":49,"Duration":209745,"SoundDuration":209745,"Delta":515498881},{"NoteNumber":53,"Velocity":39,"Duration":139830,"SoundDuration":139830,"Delta":515498881},{"NoteNumber":57,"Velocity":32,"Duration":139830,"SoundDuration":139830,"Delta":515638711},{"NoteNumber":69,"Velocity":32,"Duration":209745,"SoundDuration":209745,"Delta":515708627},{"NoteNumber":81,"Velocity":41,"Duration":209745,"SoundDuration":209745,"Delta":515708627},{"NoteNumber":60,"Velocity":32,"Duration":139830,"SoundDuration":139830,"Delta":515778542},{"NoteNumber":68,"Velocity":41,"Duration":212841,"SoundDuration":212841,"Delta":515918373},{"NoteNumber":80,"Velocity":52,"Duration":212841,"SoundDuration":212841,"Delta":515918373},{"NoteNumber":53,"Velocity":40,"Duration":141894,"SoundDuration":141894,"Delta":515918373},{"NoteNumber":57,"Velocity":32,"Duration":144046,"SoundDuration":144046,"Delta":516060267},{"NoteNumber":69,"Velocity":38,"Duration":219297,"SoundDuration":219297,"Delta":516131214},{"NoteNumber":81,"Velocity":48,"Duration":219297,"SoundDuration":219297,"Delta":516131214},{"NoteNumber":60,"Velocity":32,"Duration":146198,"SoundDuration":146198,"Delta":516204313},{"NoteNumber":71,"Velocity":46,"Duration":212841,"SoundDuration":212841,"Delta":516350512},{"NoteNumber":83,"Velocity":58,"Duration":212841,"SoundDuration":212841,"Delta":516350512},{"NoteNumber":52,"Velocity":43,"Duration":141894,"SoundDuration":141894,"Delta":516350512},{"NoteNumber":55,"Velocity":36,"Duration":141894,"SoundDuration":141894,"Delta":516492406},{"NoteNumber":72,"Velocity":42,"Duration":212841,"SoundDuration":212841,"Delta":516563354},{"NoteNumber":84,"Velocity":53,"Duration":212841,"SoundDuration":212841,"Delta":516563354},{"NoteNumber":60,"Velocity":35,"Duration":141894,"SoundDuration":141894,"Delta":516634301},{"NoteNumber":71,"Velocity":46,"Duration":209745,"SoundDuration":209745,"Delta":516776195},{"NoteNumber":83,"Velocity":58,"Duration":209745,"SoundDuration":209745,"Delta":516776195},{"NoteNumber":52,"Velocity":40,"Duration":139830,"SoundDuration":139830,"Delta":516776195},{"NoteNumber":55,"Velocity":33,"Duration":139830,"SoundDuration":139830,"Delta":516916026},{"NoteNumber":72,"Velocity":36,"Duration":209745,"SoundDuration":209745,"Delta":516985941},{"NoteNumber":84,"Velocity":46,"Duration":209745,"SoundDuration":209745,"Delta":516985941},{"NoteNumber":60,"Velocity":29,"Duration":139830,"SoundDuration":139830,"Delta":517055856},{"NoteNumber":82,"Velocity":49,"Duration":212841,"SoundDuration":212841,"Delta":517195687},{"NoteNumber":52,"Velocity":37,"Duration":141894,"SoundDuration":141894,"Delta":517195687},{"NoteNumber":58,"Velocity":29,"Duration":141894,"SoundDuration":141894,"Delta":517337581},{"NoteNumber":79,"Velocity":39,"Duration":212841,"SoundDuration":212841,"Delta":517408529},{"NoteNumber":60,"Velocity":29,"Duration":141894,"SoundDuration":141894,"Delta":517479476},{"NoteNumber":79,"Velocity":45,"Duration":213083,"SoundDuration":213083,"Delta":517621370},{"NoteNumber":53,"Velocity":29,"Duration":426166,"SoundDuration":426166,"Delta":517621370},{"NoteNumber":57,"Velocity":35,"Duration":426166,"SoundDuration":426166,"Delta":517621370},{"NoteNumber":77,"Velocity":41,"Duration":213083,"SoundDuration":213083,"Delta":517834454},{"NoteNumber":79,"Velocity":45,"Duration":206982,"SoundDuration":206982,"Delta":518047537},{"NoteNumber":72,"Velocity":41,"Duration":413963,"SoundDuration":413963,"Delta":518047537},{"NoteNumber":57,"Velocity":31,"Duration":413963,"SoundDuration":413963,"Delta":518047537},{"NoteNumber":77,"Velocity":41,"Duration":206981,"SoundDuration":206981,"Delta":518254519},{"NoteNumber":76,"Velocity":41,"Duration":424894,"SoundDuration":424894,"Delta":518461501},{"NoteNumber":81,"Velocity":45,"Duration":206982,"SoundDuration":206982,"Delta":518461501},{"NoteNumber":60,"Velocity":31,"Duration":424894,"SoundDuration":424894,"Delta":518461501},{"NoteNumber":79,"Velocity":45,"Duration":217912,"SoundDuration":217912,"Delta":518668483},{"NoteNumber":76,"Velocity":49,"Duration":852475,"SoundDuration":852475,"Delta":518886396},{"NoteNumber":79,"Velocity":49,"Duration":640954,"SoundDuration":640954,"Delta":518886396},{"NoteNumber":65,"Velocity":35,"Duration":429433,"SoundDuration":429433,"Delta":518886396},{"NoteNumber":60,"Velocity":31,"Duration":423042,"SoundDuration":423042,"Delta":519315829},{"NoteNumber":80,"Velocity":49,"Duration":211520,"SoundDuration":211520,"Delta":519527350},{"NoteNumber":81,"Velocity":45,"Duration":435825,"SoundDuration":435825,"Delta":519738871},{"NoteNumber":77,"Velocity":45,"Duration":435825,"SoundDuration":435825,"Delta":519738871},{"NoteNumber":53,"Velocity":31,"Duration":435825,"SoundDuration":435825,"Delta":519738871},{"NoteNumber":82,"Velocity":49,"Duration":633771,"SoundDuration":633771,"Delta":520174696},{"NoteNumber":62,"Velocity":35,"Duration":221238,"SoundDuration":221238,"Delta":520174696},{"NoteNumber":65,"Velocity":31,"Duration":208478,"SoundDuration":208478,"Delta":520395935},{"NoteNumber":70,"Velocity":32,"Duration":204054,"SoundDuration":204054,"Delta":520604413},{"NoteNumber":84,"Velocity":50,"Duration":52495,"SoundDuration":52495,"Delta":520808467},{"NoteNumber":65,"Velocity":33,"Duration":209980,"SoundDuration":209980,"Delta":520808467},{"NoteNumber":82,"Velocity":46,"Duration":52495,"SoundDuration":52495,"Delta":520860962},{"NoteNumber":81,"Velocity":46,"Duration":52495,"SoundDuration":52495,"Delta":520913458},{"NoteNumber":82,"Velocity":49,"Duration":34996,"SoundDuration":34996,"Delta":520965953},{"NoteNumber":84,"Velocity":53,"Duration":209980,"SoundDuration":209980,"Delta":521018448},{"NoteNumber":62,"Velocity":35,"Duration":209980,"SoundDuration":209980,"Delta":521018448},{"NoteNumber":86,"Velocity":51,"Duration":217912,"SoundDuration":217912,"Delta":521228429},{"NoteNumber":65,"Velocity":38,"Duration":217912,"SoundDuration":217912,"Delta":521228429},{"NoteNumber":86,"Velocity":60,"Duration":206982,"SoundDuration":206982,"Delta":521446342},{"NoteNumber":64,"Velocity":40,"Duration":206982,"SoundDuration":206982,"Delta":521446342},{"NoteNumber":84,"Velocity":53,"Duration":206981,"SoundDuration":206981,"Delta":521653324},{"NoteNumber":67,"Velocity":35,"Duration":206981,"SoundDuration":206981,"Delta":521653324},{"NoteNumber":83,"Velocity":57,"Duration":206982,"SoundDuration":206982,"Delta":521860306},{"NoteNumber":72,"Velocity":42,"Duration":206982,"SoundDuration":206982,"Delta":521860306},{"NoteNumber":84,"Velocity":49,"Duration":206982,"SoundDuration":206982,"Delta":522067288},{"NoteNumber":67,"Velocity":35,"Duration":206982,"SoundDuration":206982,"Delta":522067288},{"NoteNumber":82,"Velocity":55,"Duration":206981,"SoundDuration":206981,"Delta":522274270},{"NoteNumber":64,"Velocity":35,"Duration":206981,"SoundDuration":206981,"Delta":522274270},{"NoteNumber":79,"Velocity":49,"Duration":219570,"SoundDuration":219570,"Delta":522481252},{"NoteNumber":67,"Velocity":34,"Duration":219570,"SoundDuration":219570,"Delta":522481252},{"NoteNumber":80,"Velocity":53,"Duration":213083,"SoundDuration":213083,"Delta":522700823},{"NoteNumber":65,"Velocity":41,"Duration":426166,"SoundDuration":426166,"Delta":522700823},{"NoteNumber":81,"Velocity":49,"Duration":213083,"SoundDuration":213083,"Delta":522913906},{"NoteNumber":84,"Velocity":55,"Duration":205507,"SoundDuration":205507,"Delta":523126990},{"NoteNumber":58,"Velocity":37,"Duration":411015,"SoundDuration":411015,"Delta":523126990},{"NoteNumber":67,"Velocity":37,"Duration":411015,"SoundDuration":411015,"Delta":523126990},{"NoteNumber":82,"Velocity":49,"Duration":205507,"SoundDuration":205507,"Delta":523332497},{"NoteNumber":79,"Velocity":53,"Duration":205507,"SoundDuration":205507,"Delta":523538005},{"NoteNumber":60,"Velocity":35,"Duration":428456,"SoundDuration":428456,"Delta":523538005},{"NoteNumber":70,"Velocity":35,"Duration":428456,"SoundDuration":428456,"Delta":523538005},{"NoteNumber":76,"Velocity":49,"Duration":222948,"SoundDuration":222948,"Delta":523743512},{"NoteNumber":77,"Velocity":54,"Duration":213083,"SoundDuration":213083,"Delta":523966461},{"NoteNumber":69,"Velocity":37,"Duration":417137,"SoundDuration":417137,"Delta":523966461},{"NoteNumber":65,"Velocity":32,"Duration":417137,"SoundDuration":417137,"Delta":523966461},{"NoteNumber":72,"Velocity":35,"Duration":204054,"SoundDuration":204054,"Delta":524179545},{"NoteNumber":69,"Velocity":40,"Duration":408107,"SoundDuration":408107,"Delta":524383599},{"NoteNumber":72,"Velocity":35,"Duration":102027,"SoundDuration":102027,"Delta":524587653},{"NoteNumber":65,"Velocity":37,"Duration":415574,"SoundDuration":415574,"Delta":524791707},{"NoteNumber":72,"Velocity":35,"Duration":105760,"SoundDuration":105760,"Delta":524995761},{"NoteNumber":70,"Velocity":35,"Duration":102753,"SoundDuration":102753,"Delta":525207282},{"NoteNumber":72,"Velocity":42,"Duration":102753,"SoundDuration":102753,"Delta":525207282},{"NoteNumber":67,"Velocity":40,"Duration":411015,"SoundDuration":411015,"Delta":525207282},{"NoteNumber":72,"Velocity":34,"Duration":102753,"SoundDuration":102753,"Delta":525412789},{"NoteNumber":70,"Velocity":29,"Duration":102753,"SoundDuration":102753,"Delta":525412789},{"NoteNumber":64,"Velocity":38,"Duration":408107,"SoundDuration":408107,"Delta":525618297},{"NoteNumber":70,"Velocity":29,"Duration":102026,"SoundDuration":102026,"Delta":525822351},{"NoteNumber":72,"Velocity":34,"Duration":102026,"SoundDuration":102026,"Delta":525822351},{"NoteNumber":60,"Velocity":38,"Duration":418590,"SoundDuration":418590,"Delta":526026405},{"NoteNumber":72,"Velocity":34,"Duration":106541,"SoundDuration":106541,"Delta":526231912},{"NoteNumber":70,"Velocity":29,"Duration":106541,"SoundDuration":106541,"Delta":526231912},{"NoteNumber":68,"Velocity":35,"Duration":100495,"SoundDuration":100495,"Delta":526444996},{"NoteNumber":72,"Velocity":42,"Duration":100495,"SoundDuration":100495,"Delta":526444996},{"NoteNumber":53,"Velocity":40,"Duration":404809,"SoundDuration":404809,"Delta":526444996},{"NoteNumber":68,"Velocity":29,"Duration":101908,"SoundDuration":101908,"Delta":526645987},{"NoteNumber":72,"Velocity":35,"Duration":101908,"SoundDuration":101908,"Delta":526645987},{"NoteNumber":56,"Velocity":40,"Duration":408107,"SoundDuration":408107,"Delta":526849805},{"NoteNumber":68,"Velocity":29,"Duration":102026,"SoundDuration":102026,"Delta":527053859},{"NoteNumber":72,"Velocity":35,"Duration":102026,"SoundDuration":102026,"Delta":527053859},{"NoteNumber":53,"Velocity":37,"Duration":415574,"SoundDuration":415574,"Delta":527257913},{"NoteNumber":72,"Velocity":35,"Duration":105760,"SoundDuration":105760,"Delta":527461967},{"NoteNumber":68,"Velocity":29,"Duration":105760,"SoundDuration":105760,"Delta":527461967},{"NoteNumber":72,"Velocity":42,"Duration":100495,"SoundDuration":100495,"Delta":527673488},{"NoteNumber":70,"Velocity":35,"Duration":100495,"SoundDuration":100495,"Delta":527673488},{"NoteNumber":55,"Velocity":40,"Duration":406259,"SoundDuration":406259,"Delta":527673488},{"NoteNumber":72,"Velocity":34,"Duration":102634,"SoundDuration":102634,"Delta":527874480},{"NoteNumber":70,"Velocity":29,"Duration":102634,"SoundDuration":102634,"Delta":527874480},{"NoteNumber":52,"Velocity":38,"Duration":408107,"SoundDuration":408107,"Delta":528079748},{"NoteNumber":72,"Velocity":34,"Duration":102026,"SoundDuration":102026,"Delta":528283802},{"NoteNumber":70,"Velocity":29,"Duration":102026,"SoundDuration":102026,"Delta":528283802},{"NoteNumber":48,"Velocity":38,"Duration":417137,"SoundDuration":417137,"Delta":528487856},{"NoteNumber":70,"Velocity":29,"Duration":106541,"SoundDuration":106541,"Delta":528691910},{"NoteNumber":72,"Velocity":34,"Duration":106541,"SoundDuration":106541,"Delta":528691910},{"NoteNumber":72,"Velocity":63,"Duration":102027,"SoundDuration":102027,"Delta":528904994},{"NoteNumber":68,"Velocity":63,"Duration":102027,"SoundDuration":102027,"Delta":528904994},{"NoteNumber":41,"Velocity":58,"Duration":408108,"SoundDuration":408108,"Delta":528904994},{"NoteNumber":53,"Velocity":69,"Duration":408108,"SoundDuration":408108,"Delta":528904994},{"NoteNumber":68,"Velocity":50,"Duration":102027,"SoundDuration":102027,"Delta":529109048},{"NoteNumber":72,"Velocity":50,"Duration":102027,"SoundDuration":102027,"Delta":529109048},{"NoteNumber":56,"Velocity":40,"Duration":408107,"SoundDuration":408107,"Delta":529313102},{"NoteNumber":72,"Velocity":33,"Duration":102027,"SoundDuration":102027,"Delta":529517156},{"NoteNumber":68,"Velocity":33,"Duration":102027,"SoundDuration":102027,"Delta":529517156},{"NoteNumber":60,"Velocity":40,"Duration":412532,"SoundDuration":412532,"Delta":529721210},{"NoteNumber":72,"Velocity":33,"Duration":104239,"SoundDuration":104239,"Delta":529925264},{"NoteNumber":68,"Velocity":33,"Duration":104239,"SoundDuration":104239,"Delta":529925264},{"NoteNumber":73,"Velocity":63,"Duration":99906,"SoundDuration":99906,"Delta":530133742},{"NoteNumber":68,"Velocity":63,"Duration":99906,"SoundDuration":99906,"Delta":530133742},{"NoteNumber":58,"Velocity":69,"Duration":403867,"SoundDuration":403867,"Delta":530133742},{"NoteNumber":46,"Velocity":58,"Duration":403867,"SoundDuration":403867,"Delta":530133742},{"NoteNumber":68,"Velocity":50,"Duration":102027,"SoundDuration":102027,"Delta":530333555},{"NoteNumber":73,"Velocity":50,"Duration":102027,"SoundDuration":102027,"Delta":530333555},{"NoteNumber":61,"Velocity":40,"Duration":408107,"SoundDuration":408107,"Delta":530537609},{"NoteNumber":68,"Velocity":33,"Duration":102026,"SoundDuration":102026,"Delta":530741663},{"NoteNumber":73,"Velocity":33,"Duration":102026,"SoundDuration":102026,"Delta":530741663},{"NoteNumber":65,"Velocity":40,"Duration":412532,"SoundDuration":412532,"Delta":530945717},{"NoteNumber":73,"Velocity":33,"Duration":104239,"SoundDuration":104239,"Delta":531149771},{"NoteNumber":68,"Velocity":33,"Duration":104239,"SoundDuration":104239,"Delta":531149771},{"NoteNumber":67,"Velocity":63,"Duration":99226,"SoundDuration":99226,"Delta":531358249},{"NoteNumber":73,"Velocity":63,"Duration":99226,"SoundDuration":99226,"Delta":531358249},{"NoteNumber":51,"Velocity":69,"Duration":402506,"SoundDuration":402506,"Delta":531358249},{"NoteNumber":39,"Velocity":58,"Duration":402506,"SoundDuration":402506,"Delta":531358249},{"NoteNumber":73,"Velocity":50,"Duration":102027,"SoundDuration":102027,"Delta":531556701},{"NoteNumber":67,"Velocity":50,"Duration":102027,"SoundDuration":102027,"Delta":531556701},{"NoteNumber":55,"Velocity":40,"Duration":408107,"SoundDuration":408107,"Delta":531760755},{"NoteNumber":73,"Velocity":33,"Duration":102027,"SoundDuration":102027,"Delta":531964809},{"NoteNumber":67,"Velocity":33,"Duration":102027,"SoundDuration":102027,"Delta":531964809},{"NoteNumber":58,"Velocity":40,"Duration":411036,"SoundDuration":411036,"Delta":532168863},{"NoteNumber":67,"Velocity":33,"Duration":103490,"SoundDuration":103490,"Delta":532372917},{"NoteNumber":73,"Velocity":33,"Duration":103490,"SoundDuration":103490,"Delta":532372917},{"NoteNumber":67,"Velocity":63,"Duration":99226,"SoundDuration":99226,"Delta":532579899},{"NoteNumber":72,"Velocity":63,"Duration":99226,"SoundDuration":99226,"Delta":532579899},{"NoteNumber":44,"Velocity":58,"Duration":402506,"SoundDuration":402506,"Delta":532579899},{"NoteNumber":56,"Velocity":69,"Duration":402506,"SoundDuration":402506,"Delta":532579899},{"NoteNumber":72,"Velocity":50,"Duration":102027,"SoundDuration":102027,"Delta":532778351},{"NoteNumber":67,"Velocity":50,"Duration":102027,"SoundDuration":102027,"Delta":532778351},{"NoteNumber":60,"Velocity":40,"Duration":408107,"SoundDuration":408107,"Delta":532982405},{"NoteNumber":67,"Velocity":33,"Duration":102027,"SoundDuration":102027,"Delta":533186459},{"NoteNumber":72,"Velocity":33,"Duration":102027,"SoundDuration":102027,"Delta":533186459},{"NoteNumber":63,"Velocity":40,"Duration":414035,"SoundDuration":414035,"Delta":533390513},{"NoteNumber":72,"Velocity":33,"Duration":104990,"SoundDuration":104990,"Delta":533594567},{"NoteNumber":67,"Velocity":33,"Duration":104990,"SoundDuration":104990,"Delta":533594567},{"NoteNumber":65,"Velocity":63,"Duration":99906,"SoundDuration":99906,"Delta":533804548},{"NoteNumber":72,"Velocity":63,"Duration":99906,"SoundDuration":99906,"Delta":533804548},{"NoteNumber":37,"Velocity":58,"Duration":399627,"SoundDuration":399627,"Delta":533804548},{"NoteNumber":49,"Velocity":69,"Duration":399627,"SoundDuration":399627,"Delta":533804548},{"NoteNumber":65,"Velocity":50,"Duration":99906,"SoundDuration":99906,"Delta":534004362},{"NoteNumber":72,"Velocity":50,"Duration":99906,"SoundDuration":99906,"Delta":534004362},{"NoteNumber":61,"Velocity":40,"Duration":411015,"SoundDuration":411015,"Delta":534204175},{"NoteNumber":65,"Velocity":33,"Duration":102753,"SoundDuration":102753,"Delta":534409683},{"NoteNumber":72,"Velocity":33,"Duration":102753,"SoundDuration":102753,"Delta":534409683},{"NoteNumber":65,"Velocity":63,"Duration":100603,"SoundDuration":100603,"Delta":534615190},{"NoteNumber":70,"Velocity":63,"Duration":100603,"SoundDuration":100603,"Delta":534615190},{"NoteNumber":55,"Velocity":69,"Duration":402414,"SoundDuration":402414,"Delta":534615190},{"NoteNumber":43,"Velocity":58,"Duration":402414,"SoundDuration":402414,"Delta":534615190},{"NoteNumber":70,"Velocity":50,"Duration":100603,"SoundDuration":100603,"Delta":534816397},{"NoteNumber":65,"Velocity":50,"Duration":100603,"SoundDuration":100603,"Delta":534816397},{"NoteNumber":67,"Velocity":40,"Duration":408107,"SoundDuration":408107,"Delta":535017604},{"NoteNumber":65,"Velocity":33,"Duration":102026,"SoundDuration":102026,"Delta":535221658},{"NoteNumber":70,"Velocity":33,"Duration":102026,"SoundDuration":102026,"Delta":535221658},{"NoteNumber":70,"Velocity":63,"Duration":99226,"SoundDuration":99226,"Delta":535425712},{"NoteNumber":64,"Velocity":63,"Duration":99226,"SoundDuration":99226,"Delta":535425712},{"NoteNumber":36,"Velocity":58,"Duration":396903,"SoundDuration":396903,"Delta":535425712},{"NoteNumber":48,"Velocity":69,"Duration":396903,"SoundDuration":396903,"Delta":535425712},{"NoteNumber":64,"Velocity":50,"Duration":99226,"SoundDuration":99226,"Delta":535624164},{"NoteNumber":70,"Velocity":50,"Duration":99226,"SoundDuration":99226,"Delta":535624164},{"NoteNumber":60,"Velocity":40,"Duration":408107,"SoundDuration":408107,"Delta":535822616},{"NoteNumber":64,"Velocity":33,"Duration":102026,"SoundDuration":102026,"Delta":536026670},{"NoteNumber":70,"Velocity":33,"Duration":102026,"SoundDuration":102026,"Delta":536026670},{"NoteNumber":61,"Velocity":45,"Duration":402414,"SoundDuration":402414,"Delta":536230724},{"NoteNumber":68,"Velocity":33,"Duration":100603,"SoundDuration":100603,"Delta":536431931},{"NoteNumber":65,"Velocity":33,"Duration":100603,"SoundDuration":100603,"Delta":536431931},{"NoteNumber":60,"Velocity":39,"Duration":408107,"SoundDuration":408107,"Delta":536633138},{"NoteNumber":68,"Velocity":33,"Duration":102026,"SoundDuration":102026,"Delta":536837192},{"NoteNumber":65,"Velocity":33,"Duration":102026,"SoundDuration":102026,"Delta":536837192},{"NoteNumber":59,"Velocity":39,"Duration":413963,"SoundDuration":413963,"Delta":537041246},{"NoteNumber":65,"Velocity":33,"Duration":103490,"SoundDuration":103490,"Delta":537248228},{"NoteNumber":68,"Velocity":33,"Duration":103490,"SoundDuration":103490,"Delta":537248228},{"NoteNumber":64,"Velocity":32,"Duration":211520,"SoundDuration":211520,"Delta":537455210},{"NoteNumber":67,"Velocity":38,"Duration":211520,"SoundDuration":211520,"Delta":537455210},{"NoteNumber":60,"Velocity":44,"Duration":415574,"SoundDuration":415574,"Delta":537455210},{"NoteNumber":68,"Velocity":31,"Duration":212556,"SoundDuration":212556,"Delta":537666731},{"NoteNumber":72,"Velocity":37,"Duration":212556,"SoundDuration":212556,"Delta":537666731},{"NoteNumber":70,"Velocity":33,"Duration":212556,"SoundDuration":212556,"Delta":537870785},{"NoteNumber":67,"Velocity":28,"Duration":212556,"SoundDuration":212556,"Delta":537870785},{"NoteNumber":65,"Velocity":26,"Duration":212556,"SoundDuration":212556,"Delta":538074839},{"NoteNumber":68,"Velocity":31,"Duration":212556,"SoundDuration":212556,"Delta":538074839},{"NoteNumber":64,"Velocity":28,"Duration":212932,"SoundDuration":212932,"Delta":538278893},{"NoteNumber":67,"Velocity":33,"Duration":212932,"SoundDuration":212932,"Delta":538278893},{"NoteNumber":68,"Velocity":30,"Duration":221585,"SoundDuration":221585,"Delta":538482947},{"NoteNumber":65,"Velocity":25,"Duration":221585,"SoundDuration":221585,"Delta":538482947},{"NoteNumber":59,"Velocity":41,"Duration":213083,"SoundDuration":213083,"Delta":538482947},{"NoteNumber":64,"Velocity":32,"Duration":204054,"SoundDuration":204054,"Delta":538696031},{"NoteNumber":67,"Velocity":38,"Duration":204054,"SoundDuration":204054,"Delta":538696031},{"NoteNumber":60,"Velocity":44,"Duration":408107,"SoundDuration":408107,"Delta":538696031},{"NoteNumber":72,"Velocity":37,"Duration":212556,"SoundDuration":212556,"Delta":538900085},{"NoteNumber":68,"Velocity":31,"Duration":212556,"SoundDuration":212556,"Delta":538900085},{"NoteNumber":67,"Velocity":28,"Duration":212556,"SoundDuration":212556,"Delta":539104139},{"NoteNumber":70,"Velocity":33,"Duration":212556,"SoundDuration":212556,"Delta":539104139},{"NoteNumber":65,"Velocity":26,"Duration":212556,"SoundDuration":212556,"Delta":539308193},{"NoteNumber":68,"Velocity":31,"Duration":212556,"SoundDuration":212556,"Delta":539308193},{"NoteNumber":67,"Velocity":33,"Duration":212867,"SoundDuration":212867,"Delta":539512247},{"NoteNumber":64,"Velocity":28,"Duration":212867,"SoundDuration":212867,"Delta":539512247},{"NoteNumber":65,"Velocity":25,"Duration":219954,"SoundDuration":219954,"Delta":539716301},{"NoteNumber":68,"Velocity":30,"Duration":219954,"SoundDuration":219954,"Delta":539716301},{"NoteNumber":59,"Velocity":32,"Duration":219954,"SoundDuration":219954,"Delta":539716301},{"NoteNumber":67,"Velocity":37,"Duration":211016,"SoundDuration":211016,"Delta":539927822},{"NoteNumber":64,"Velocity":31,"Duration":211016,"SoundDuration":211016,"Delta":539927822},{"NoteNumber":60,"Velocity":39,"Duration":211016,"SoundDuration":211016,"Delta":539927822},{"NoteNumber":68,"Velocity":32,"Duration":215172,"SoundDuration":215172,"Delta":540130224},{"NoteNumber":65,"Velocity":27,"Duration":215172,"SoundDuration":215172,"Delta":540130224},{"NoteNumber":59,"Velocity":35,"Duration":215172,"SoundDuration":215172,"Delta":540130224},{"NoteNumber":64,"Velocity":31,"Duration":211016,"SoundDuration":211016,"Delta":540336963},{"NoteNumber":67,"Velocity":37,"Duration":211016,"SoundDuration":211016,"Delta":540336963},{"NoteNumber":60,"Velocity":39,"Duration":211016,"SoundDuration":211016,"Delta":540336963},{"NoteNumber":65,"Velocity":28,"Duration":215172,"SoundDuration":215172,"Delta":540539365},{"NoteNumber":68,"Velocity":34,"Duration":215172,"SoundDuration":215172,"Delta":540539365},{"NoteNumber":59,"Velocity":31,"Duration":215172,"SoundDuration":215172,"Delta":540539365},{"NoteNumber":67,"Velocity":37,"Duration":211141,"SoundDuration":211141,"Delta":540746105},{"NoteNumber":64,"Velocity":31,"Duration":211141,"SoundDuration":211141,"Delta":540746105},{"NoteNumber":60,"Velocity":39,"Duration":211141,"SoundDuration":211141,"Delta":540746105},{"NoteNumber":68,"Velocity":34,"Duration":218238,"SoundDuration":218238,"Delta":540948507},{"NoteNumber":65,"Velocity":28,"Duration":218238,"SoundDuration":218238,"Delta":540948507},{"NoteNumber":59,"Velocity":32,"Duration":218238,"SoundDuration":218238,"Delta":540948507},{"NoteNumber":64,"Velocity":31,"Duration":203817,"SoundDuration":203817,"Delta":541158253},{"NoteNumber":67,"Velocity":37,"Duration":203817,"SoundDuration":203817,"Delta":541158253},{"NoteNumber":60,"Velocity":38,"Duration":407657,"SoundDuration":407657,"Delta":541158253},{"NoteNumber":66,"Velocity":33,"Duration":212341,"SoundDuration":212341,"Delta":541362071},{"NoteNumber":63,"Velocity":33,"Duration":212341,"SoundDuration":212341,"Delta":541362071},{"NoteNumber":64,"Velocity":35,"Duration":213673,"SoundDuration":213673,"Delta":541565910},{"NoteNumber":67,"Velocity":35,"Duration":213673,"SoundDuration":213673,"Delta":541565910},{"NoteNumber":69,"Velocity":36,"Duration":216754,"SoundDuration":216754,"Delta":541770959},{"NoteNumber":66,"Velocity":36,"Duration":216754,"SoundDuration":216754,"Delta":541770959},{"NoteNumber":70,"Velocity":38,"Duration":221005,"SoundDuration":221005,"Delta":541978964},{"NoteNumber":67,"Velocity":38,"Duration":221005,"SoundDuration":221005,"Delta":541978964},{"NoteNumber":72,"Velocity":40,"Duration":248140,"SoundDuration":248140,"Delta":542190000},{"NoteNumber":69,"Velocity":40,"Duration":248140,"SoundDuration":248140,"Delta":542190000},{"NoteNumber":74,"Velocity":42,"Duration":425683,"SoundDuration":425683,"Delta":542429272},{"NoteNumber":70,"Velocity":35,"Duration":425683,"SoundDuration":425683,"Delta":542429272},{"NoteNumber":58,"Velocity":33,"Duration":425683,"SoundDuration":425683,"Delta":542429272},{"NoteNumber":65,"Velocity":34,"Duration":425682,"SoundDuration":425682,"Delta":542854955},{"NoteNumber":70,"Velocity":34,"Duration":425682,"SoundDuration":425682,"Delta":542854955},{"NoteNumber":74,"Velocity":40,"Duration":425682,"SoundDuration":425682,"Delta":542854955},{"NoteNumber":58,"Velocity":31,"Duration":425682,"SoundDuration":425682,"Delta":542854955},{"NoteNumber":70,"Velocity":34,"Duration":432556,"SoundDuration":432556,"Delta":543280638},{"NoteNumber":74,"Velocity":40,"Duration":432556,"SoundDuration":432556,"Delta":543280638},{"NoteNumber":65,"Velocity":34,"Duration":432556,"SoundDuration":432556,"Delta":543280638},{"NoteNumber":58,"Velocity":31,"Duration":432556,"SoundDuration":432556,"Delta":543280638},{"NoteNumber":74,"Velocity":42,"Duration":846084,"SoundDuration":846084,"Delta":543713195},{"NoteNumber":65,"Velocity":35,"Duration":1291452,"SoundDuration":1291452,"Delta":543713195},{"NoteNumber":70,"Velocity":35,"Duration":846084,"SoundDuration":846084,"Delta":543713195},{"NoteNumber":58,"Velocity":33,"Duration":846084,"SoundDuration":846084,"Delta":543713195},{"NoteNumber":69,"Velocity":28,"Duration":445368,"SoundDuration":445368,"Delta":544559279},{"NoteNumber":72,"Velocity":34,"Duration":445368,"SoundDuration":445368,"Delta":544559279},{"NoteNumber":53,"Velocity":31,"Duration":445368,"SoundDuration":445368,"Delta":544559279},{"NoteNumber":64,"Velocity":35,"Duration":421561,"SoundDuration":421561,"Delta":545004647},{"NoteNumber":67,"Velocity":35,"Duration":421561,"SoundDuration":421561,"Delta":545004647},{"NoteNumber":72,"Velocity":42,"Duration":208478,"SoundDuration":208478,"Delta":545004647},{"NoteNumber":48,"Velocity":33,"Duration":421561,"SoundDuration":421561,"Delta":545004647},{"NoteNumber":70,"Velocity":38,"Duration":213083,"SoundDuration":213083,"Delta":545213125},{"NoteNumber":70,"Velocity":42,"Duration":426166,"SoundDuration":426166,"Delta":545426209},{"NoteNumber":64,"Velocity":35,"Duration":426166,"SoundDuration":426166,"Delta":545426209},{"NoteNumber":67,"Velocity":35,"Duration":426166,"SoundDuration":426166,"Delta":545426209},{"NoteNumber":48,"Velocity":30,"Duration":426166,"SoundDuration":426166,"Delta":545426209},{"NoteNumber":70,"Velocity":38,"Duration":439141,"SoundDuration":439141,"Delta":545852376},{"NoteNumber":67,"Velocity":32,"Duration":439141,"SoundDuration":439141,"Delta":545852376},{"NoteNumber":64,"Velocity":32,"Duration":439141,"SoundDuration":439141,"Delta":545852376},{"NoteNumber":48,"Velocity":30,"Duration":439141,"SoundDuration":439141,"Delta":545852376},{"NoteNumber":64,"Velocity":35,"Duration":846084,"SoundDuration":846084,"Delta":546291518},{"NoteNumber":67,"Velocity":35,"Duration":846084,"SoundDuration":846084,"Delta":546291518},{"NoteNumber":70,"Velocity":42,"Duration":846084,"SoundDuration":846084,"Delta":546291518},{"NoteNumber":48,"Velocity":33,"Duration":846084,"SoundDuration":846084,"Delta":546291518},{"NoteNumber":69,"Velocity":39,"Duration":429338,"SoundDuration":429338,"Delta":547137602},{"NoteNumber":65,"Velocity":33,"Duration":429338,"SoundDuration":429338,"Delta":547137602},{"NoteNumber":50,"Velocity":30,"Duration":429338,"SoundDuration":429338,"Delta":547137602},{"NoteNumber":72,"Velocity":42,"Duration":205507,"SoundDuration":205507,"Delta":547566940},{"NoteNumber":69,"Velocity":35,"Duration":205507,"SoundDuration":205507,"Delta":547566940},{"NoteNumber":46,"Velocity":33,"Duration":415488,"SoundDuration":415488,"Delta":547566940},{"NoteNumber":70,"Velocity":37,"Duration":209980,"SoundDuration":209980,"Delta":547772447},{"NoteNumber":67,"Velocity":31,"Duration":209980,"SoundDuration":209980,"Delta":547772447},{"NoteNumber":65,"Velocity":35,"Duration":419962,"SoundDuration":419962,"Delta":547982428},{"NoteNumber":69,"Velocity":42,"Duration":419962,"SoundDuration":419962,"Delta":547982428},{"NoteNumber":48,"Velocity":32,"Duration":419962,"SoundDuration":419962,"Delta":547982428},{"NoteNumber":64,"Velocity":30,"Duration":426166,"SoundDuration":426166,"Delta":548402390},{"NoteNumber":67,"Velocity":36,"Duration":426166,"SoundDuration":426166,"Delta":548402390},{"NoteNumber":48,"Velocity":32,"Duration":426166,"SoundDuration":426166,"Delta":548402390},{"NoteNumber":65,"Velocity":35,"Duration":219570,"SoundDuration":219570,"Delta":548828557},{"NoteNumber":69,"Velocity":42,"Duration":219570,"SoundDuration":219570,"Delta":548828557},{"NoteNumber":53,"Velocity":33,"Duration":430133,"SoundDuration":430133,"Delta":548828557},{"NoteNumber":77,"Velocity":35,"Duration":193064,"SoundDuration":193064,"Delta":549048128},{"NoteNumber":79,"Velocity":37,"Duration":191762,"SoundDuration":191762,"Delta":549258691},{"NoteNumber":81,"Velocity":38,"Duration":190574,"SoundDuration":190574,"Delta":549467827},{"NoteNumber":82,"Velocity":40,"Duration":189395,"SoundDuration":189395,"Delta":549675650},{"NoteNumber":84,"Velocity":41,"Duration":188230,"SoundDuration":188230,"Delta":549882171},{"NoteNumber":86,"Velocity":46,"Duration":426166,"SoundDuration":426166,"Delta":550087406},{"NoteNumber":65,"Velocity":28,"Duration":426166,"SoundDuration":426166,"Delta":550087406},{"NoteNumber":70,"Velocity":33,"Duration":426166,"SoundDuration":426166,"Delta":550087406},{"NoteNumber":86,"Velocity":44,"Duration":426167,"SoundDuration":426167,"Delta":550513573},{"NoteNumber":65,"Velocity":26,"Duration":426167,"SoundDuration":426167,"Delta":550513573},{"NoteNumber":70,"Velocity":31,"Duration":426167,"SoundDuration":426167,"Delta":550513573},{"NoteNumber":86,"Velocity":44,"Duration":432556,"SoundDuration":432556,"Delta":550939740},{"NoteNumber":70,"Velocity":31,"Duration":432556,"SoundDuration":432556,"Delta":550939740},{"NoteNumber":65,"Velocity":26,"Duration":432556,"SoundDuration":432556,"Delta":550939740},{"NoteNumber":86,"Velocity":46,"Duration":634562,"SoundDuration":634562,"Delta":551372297},{"NoteNumber":70,"Velocity":33,"Duration":846084,"SoundDuration":846084,"Delta":551372297},{"NoteNumber":65,"Velocity":28,"Duration":1278640,"SoundDuration":1278640,"Delta":551372297},{"NoteNumber":88,"Velocity":39,"Duration":105760,"SoundDuration":105760,"Delta":552006860},{"NoteNumber":86,"Velocity":39,"Duration":105760,"SoundDuration":105760,"Delta":552112621},{"NoteNumber":84,"Velocity":46,"Duration":432556,"SoundDuration":432556,"Delta":552218381},{"NoteNumber":69,"Velocity":31,"Duration":432556,"SoundDuration":432556,"Delta":552218381},{"NoteNumber":84,"Velocity":46,"Duration":208478,"SoundDuration":208478,"Delta":552650938},{"NoteNumber":76,"Velocity":35,"Duration":421561,"SoundDuration":421561,"Delta":552650938},{"NoteNumber":60,"Velocity":28,"Duration":421561,"SoundDuration":421561,"Delta":552650938},{"NoteNumber":67,"Velocity":33,"Duration":421561,"SoundDuration":421561,"Delta":552650938},{"NoteNumber":82,"Velocity":41,"Duration":213083,"SoundDuration":213083,"Delta":552859416},{"NoteNumber":76,"Velocity":35,"Duration":426166,"SoundDuration":426166,"Delta":553072500},{"NoteNumber":82,"Velocity":46,"Duration":426166,"SoundDuration":426166,"Delta":553072500},{"NoteNumber":67,"Velocity":30,"Duration":426166,"SoundDuration":426166,"Delta":553072500},{"NoteNumber":60,"Velocity":25,"Duration":426166,"SoundDuration":426166,"Delta":553072500},{"NoteNumber":82,"Velocity":41,"Duration":439141,"SoundDuration":439141,"Delta":553498667},{"NoteNumber":76,"Velocity":32,"Duration":439141,"SoundDuration":439141,"Delta":553498667},{"NoteNumber":67,"Velocity":30,"Duration":439141,"SoundDuration":439141,"Delta":553498667},{"NoteNumber":60,"Velocity":25,"Duration":439141,"SoundDuration":439141,"Delta":553498667},{"NoteNumber":76,"Velocity":35,"Duration":846084,"SoundDuration":846084,"Delta":553937809},{"NoteNumber":82,"Velocity":46,"Duration":846084,"SoundDuration":846084,"Delta":553937809},{"NoteNumber":60,"Velocity":28,"Duration":846084,"SoundDuration":846084,"Delta":553937809},{"NoteNumber":67,"Velocity":33,"Duration":846084,"SoundDuration":846084,"Delta":553937809},{"NoteNumber":81,"Velocity":42,"Duration":429338,"SoundDuration":429338,"Delta":554783893},{"NoteNumber":77,"Velocity":33,"Duration":429338,"SoundDuration":429338,"Delta":554783893},{"NoteNumber":65,"Velocity":30,"Duration":429338,"SoundDuration":429338,"Delta":554783893},{"NoteNumber":62,"Velocity":25,"Duration":429338,"SoundDuration":429338,"Delta":554783893},{"NoteNumber":84,"Velocity":46,"Duration":205507,"SoundDuration":205507,"Delta":555213231},{"NoteNumber":81,"Velocity":35,"Duration":205507,"SoundDuration":205507,"Delta":555213231},{"NoteNumber":58,"Velocity":33,"Duration":415488,"SoundDuration":415488,"Delta":555213231},{"NoteNumber":82,"Velocity":40,"Duration":209980,"SoundDuration":209980,"Delta":555418738},{"NoteNumber":79,"Velocity":31,"Duration":209980,"SoundDuration":209980,"Delta":555418738},{"NoteNumber":81,"Velocity":46,"Duration":419962,"SoundDuration":419962,"Delta":555628719},{"NoteNumber":77,"Velocity":35,"Duration":419962,"SoundDuration":419962,"Delta":555628719},{"NoteNumber":60,"Velocity":32,"Duration":419962,"SoundDuration":419962,"Delta":555628719},{"NoteNumber":76,"Velocity":30,"Duration":426166,"SoundDuration":426166,"Delta":556048681},{"NoteNumber":79,"Velocity":39,"Duration":426166,"SoundDuration":426166,"Delta":556048681},{"NoteNumber":58,"Velocity":32,"Duration":426166,"SoundDuration":426166,"Delta":556048681},{"NoteNumber":84,"Velocity":63,"Duration":98437,"SoundDuration":98437,"Delta":556474848},{"NoteNumber":81,"Velocity":63,"Duration":98437,"SoundDuration":98437,"Delta":556474848},{"NoteNumber":45,"Velocity":58,"Duration":196875,"SoundDuration":196875,"Delta":556474848},{"NoteNumber":57,"Velocity":69,"Duration":196875,"SoundDuration":196875,"Delta":556474848},{"NoteNumber":84,"Velocity":50,"Duration":98437,"SoundDuration":98437,"Delta":556671724},{"NoteNumber":81,"Velocity":50,"Duration":98437,"SoundDuration":98437,"Delta":556671724},{"NoteNumber":61,"Velocity":40,"Duration":100603,"SoundDuration":100603,"Delta":556868600},{"NoteNumber":79,"Velocity":33,"Duration":100603,"SoundDuration":100603,"Delta":557069807},{"NoteNumber":82,"Velocity":33,"Duration":100603,"SoundDuration":100603,"Delta":557069807},{"NoteNumber":62,"Velocity":40,"Duration":102027,"SoundDuration":102027,"Delta":557271014},{"NoteNumber":77,"Velocity":33,"Duration":102026,"SoundDuration":102026,"Delta":557475068},{"NoteNumber":81,"Velocity":33,"Duration":102026,"SoundDuration":102026,"Delta":557475068},{"NoteNumber":58,"Velocity":40,"Duration":102027,"SoundDuration":102027,"Delta":557679122},{"NoteNumber":79,"Velocity":33,"Duration":102026,"SoundDuration":102026,"Delta":557883176},{"NoteNumber":70,"Velocity":33,"Duration":102026,"SoundDuration":102026,"Delta":557883176},{"NoteNumber":60,"Velocity":40,"Duration":99906,"SoundDuration":99906,"Delta":558087230},{"NoteNumber":77,"Velocity":33,"Duration":99906,"SoundDuration":99906,"Delta":558287044},{"NoteNumber":69,"Velocity":33,"Duration":99906,"SoundDuration":99906,"Delta":558287044},{"NoteNumber":58,"Velocity":40,"Duration":102753,"SoundDuration":102753,"Delta":558486857},{"NoteNumber":67,"Velocity":33,"Duration":102753,"SoundDuration":102753,"Delta":558692365},{"NoteNumber":76,"Velocity":33,"Duration":102753,"SoundDuration":102753,"Delta":558692365},{"NoteNumber":45,"Velocity":75,"Duration":102753,"SoundDuration":102753,"Delta":558897872},{"NoteNumber":57,"Velocity":75,"Duration":102753,"SoundDuration":102753,"Delta":558897872},{"NoteNumber":81,"Velocity":72,"Duration":102753,"SoundDuration":102753,"Delta":559000626},{"NoteNumber":84,"Velocity":75,"Duration":102753,"SoundDuration":102753,"Delta":559103380},{"NoteNumber":81,"Velocity":72,"Duration":102753,"SoundDuration":102753,"Delta":559206133},{"NoteNumber":49,"Velocity":73,"Duration":99906,"SoundDuration":99906,"Delta":559308887},{"NoteNumber":61,"Velocity":73,"Duration":99906,"SoundDuration":99906,"Delta":559308887},{"NoteNumber":79,"Velocity":70,"Duration":99906,"SoundDuration":99906,"Delta":559408794},{"NoteNumber":82,"Velocity":75,"Duration":99906,"SoundDuration":99906,"Delta":559508701},{"NoteNumber":79,"Velocity":70,"Duration":99906,"SoundDuration":99906,"Delta":559608607},{"NoteNumber":62,"Velocity":73,"Duration":102753,"SoundDuration":102753,"Delta":559708514},{"NoteNumber":50,"Velocity":73,"Duration":102753,"SoundDuration":102753,"Delta":559708514},{"NoteNumber":77,"Velocity":72,"Duration":102753,"SoundDuration":102753,"Delta":559811268},{"NoteNumber":81,"Velocity":75,"Duration":102753,"SoundDuration":102753,"Delta":559914022},{"NoteNumber":77,"Velocity":71,"Duration":102753,"SoundDuration":102753,"Delta":560016775},{"NoteNumber":46,"Velocity":75,"Duration":101310,"SoundDuration":101310,"Delta":560119529},{"NoteNumber":58,"Velocity":75,"Duration":101310,"SoundDuration":101310,"Delta":560119529},{"NoteNumber":70,"Velocity":71,"Duration":101310,"SoundDuration":101310,"Delta":560220839},{"NoteNumber":79,"Velocity":75,"Duration":101310,"SoundDuration":101310,"Delta":560322150},{"NoteNumber":70,"Velocity":71,"Duration":101310,"SoundDuration":101310,"Delta":560423460},{"NoteNumber":60,"Velocity":73,"Duration":100603,"SoundDuration":100603,"Delta":560524770},{"NoteNumber":48,"Velocity":73,"Duration":100603,"SoundDuration":100603,"Delta":560524770},{"NoteNumber":69,"Velocity":71,"Duration":100603,"SoundDuration":100603,"Delta":560625374},{"NoteNumber":77,"Velocity":75,"Duration":100603,"SoundDuration":100603,"Delta":560725977},{"NoteNumber":69,"Velocity":71,"Duration":100603,"SoundDuration":100603,"Delta":560826581},{"NoteNumber":48,"Velocity":73,"Duration":103490,"SoundDuration":103490,"Delta":560927184},{"NoteNumber":36,"Velocity":73,"Duration":103490,"SoundDuration":103490,"Delta":560927184},{"NoteNumber":67,"Velocity":71,"Duration":103491,"SoundDuration":103491,"Delta":561030675},{"NoteNumber":76,"Velocity":75,"Duration":103490,"SoundDuration":103490,"Delta":561134166},{"NoteNumber":67,"Velocity":71,"Duration":103587,"SoundDuration":103587,"Delta":561237657},{"NoteNumber":69,"Velocity":75,"Duration":412675,"SoundDuration":412675,"Delta":561341244},{"NoteNumber":72,"Velocity":75,"Duration":412675,"SoundDuration":412675,"Delta":561341244},{"NoteNumber":77,"Velocity":75,"Duration":412675,"SoundDuration":412675,"Delta":561341244},{"NoteNumber":41,"Velocity":64,"Duration":101850,"SoundDuration":101850,"Delta":561341244},{"NoteNumber":45,"Velocity":59,"Duration":104928,"SoundDuration":104928,"Delta":561443095},{"NoteNumber":48,"Velocity":59,"Duration":102871,"SoundDuration":102871,"Delta":561548023},{"NoteNumber":53,"Velocity":59,"Duration":103025,"SoundDuration":103025,"Delta":561650894},{"NoteNumber":41,"Velocity":63,"Duration":101501,"SoundDuration":101501,"Delta":561753920},{"NoteNumber":45,"Velocity":58,"Duration":101158,"SoundDuration":101158,"Delta":561855421},{"NoteNumber":48,"Velocity":58,"Duration":103559,"SoundDuration":103559,"Delta":561956580},{"NoteNumber":53,"Velocity":58,"Duration":102193,"SoundDuration":102193,"Delta":562060139},{"NoteNumber":69,"Velocity":70,"Duration":51317,"SoundDuration":51317,"Delta":562162332},{"NoteNumber":41,"Velocity":63,"Duration":103003,"SoundDuration":103003,"Delta":562162332},{"NoteNumber":70,"Velocity":65,"Duration":51686,"SoundDuration":51686,"Delta":562213649},{"NoteNumber":69,"Velocity":70,"Duration":52152,"SoundDuration":52152,"Delta":562265336},{"NoteNumber":45,"Velocity":57,"Duration":104877,"SoundDuration":104877,"Delta":562265336},{"NoteNumber":70,"Velocity":66,"Duration":52724,"SoundDuration":52724,"Delta":562317488},{"NoteNumber":69,"Velocity":70,"Duration":35376,"SoundDuration":35376,"Delta":562370213},{"NoteNumber":48,"Velocity":58,"Duration":106913,"SoundDuration":106913,"Delta":562370213},{"NoteNumber":70,"Velocity":66,"Duration":35702,"SoundDuration":35702,"Delta":562405589},{"NoteNumber":69,"Velocity":66,"Duration":35835,"SoundDuration":35835,"Delta":562441291},{"NoteNumber":67,"Velocity":70,"Duration":54309,"SoundDuration":54309,"Delta":562477126},{"NoteNumber":53,"Velocity":58,"Duration":108719,"SoundDuration":108719,"Delta":562477126},{"NoteNumber":65,"Velocity":66,"Duration":54410,"SoundDuration":54410,"Delta":562531435},{"NoteNumber":72,"Velocity":75,"Duration":810178,"SoundDuration":810178,"Delta":562585846},{"NoteNumber":41,"Velocity":63,"Duration":100860,"SoundDuration":100860,"Delta":562585846},{"NoteNumber":45,"Velocity":58,"Duration":102209,"SoundDuration":102209,"Delta":562686706},{"NoteNumber":48,"Velocity":59,"Duration":100179,"SoundDuration":100179,"Delta":562788915},{"NoteNumber":53,"Velocity":59,"Duration":100323,"SoundDuration":100323,"Delta":562889095},{"NoteNumber":41,"Velocity":63,"Duration":103818,"SoundDuration":103818,"Delta":562989418},{"NoteNumber":45,"Velocity":57,"Duration":99944,"SoundDuration":99944,"Delta":563093237},{"NoteNumber":48,"Velocity":57,"Duration":101891,"SoundDuration":101891,"Delta":563193182},{"NoteNumber":53,"Velocity":57,"Duration":100951,"SoundDuration":100951,"Delta":563295073},{"NoteNumber":76,"Velocity":70,"Duration":51409,"SoundDuration":51409,"Delta":563396025},{"NoteNumber":41,"Velocity":63,"Duration":103187,"SoundDuration":103187,"Delta":563396025},{"NoteNumber":77,"Velocity":66,"Duration":51778,"SoundDuration":51778,"Delta":563447434},{"NoteNumber":76,"Velocity":70,"Duration":52152,"SoundDuration":52152,"Delta":563499212},{"NoteNumber":46,"Velocity":57,"Duration":104877,"SoundDuration":104877,"Delta":563499212},{"NoteNumber":77,"Velocity":66,"Duration":52724,"SoundDuration":52724,"Delta":563551364},{"NoteNumber":76,"Velocity":70,"Duration":35376,"SoundDuration":35376,"Delta":563604089},{"NoteNumber":48,"Velocity":57,"Duration":106617,"SoundDuration":106617,"Delta":563604089},{"NoteNumber":77,"Velocity":65,"Duration":35506,"SoundDuration":35506,"Delta":563639465},{"NoteNumber":76,"Velocity":66,"Duration":35734,"SoundDuration":35734,"Delta":563674971},{"NoteNumber":74,"Velocity":70,"Duration":54004,"SoundDuration":54004,"Delta":563710706},{"NoteNumber":55,"Velocity":57,"Duration":107642,"SoundDuration":107642,"Delta":563710706},{"NoteNumber":72,"Velocity":65,"Duration":53637,"SoundDuration":53637,"Delta":563764711},{"NoteNumber":77,"Velocity":75,"Duration":821073,"SoundDuration":821073,"Delta":563818348},{"NoteNumber":41,"Velocity":63,"Duration":102634,"SoundDuration":102634,"Delta":563818348},{"NoteNumber":45,"Velocity":57,"Duration":102634,"SoundDuration":102634,"Delta":563920983},{"NoteNumber":48,"Velocity":57,"Duration":102634,"SoundDuration":102634,"Delta":564023617},{"NoteNumber":53,"Velocity":57,"Duration":102634,"SoundDuration":102634,"Delta":564126251},{"NoteNumber":41,"Velocity":63,"Duration":102634,"SoundDuration":102634,"Delta":564228885},{"NoteNumber":45,"Velocity":57,"Duration":102634,"SoundDuration":102634,"Delta":564331520},{"NoteNumber":48,"Velocity":57,"Duration":102634,"SoundDuration":102634,"Delta":564434154},{"NoteNumber":53,"Velocity":57,"Duration":102634,"SoundDuration":102634,"Delta":564536788},{"NoteNumber":81,"Velocity":70,"Duration":51317,"SoundDuration":51317,"Delta":564639422},{"NoteNumber":41,"Velocity":63,"Duration":102879,"SoundDuration":102879,"Delta":564639422},{"NoteNumber":82,"Velocity":65,"Duration":51562,"SoundDuration":51562,"Delta":564690740},{"NoteNumber":81,"Velocity":70,"Duration":52089,"SoundDuration":52089,"Delta":564742302},{"NoteNumber":45,"Velocity":57,"Duration":104750,"SoundDuration":104750,"Delta":564742302},{"NoteNumber":82,"Velocity":66,"Duration":52660,"SoundDuration":52660,"Delta":564794392},{"NoteNumber":81,"Velocity":70,"Duration":35311,"SoundDuration":35311,"Delta":564847052},{"NoteNumber":48,"Velocity":58,"Duration":106716,"SoundDuration":106716,"Delta":564847052},{"NoteNumber":82,"Velocity":66,"Duration":35636,"SoundDuration":35636,"Delta":564882364},{"NoteNumber":81,"Velocity":66,"Duration":35768,"SoundDuration":35768,"Delta":564918000},{"NoteNumber":79,"Velocity":70,"Duration":54241,"SoundDuration":54241,"Delta":564953768},{"NoteNumber":53,"Velocity":58,"Duration":108652,"SoundDuration":108652,"Delta":564953768},{"NoteNumber":77,"Velocity":66,"Duration":54410,"SoundDuration":54410,"Delta":565008010},{"NoteNumber":84,"Velocity":75,"Duration":203850,"SoundDuration":203850,"Delta":565062420},{"NoteNumber":41,"Velocity":63,"Duration":101405,"SoundDuration":101405,"Delta":565062420},{"NoteNumber":45,"Velocity":58,"Duration":102445,"SoundDuration":102445,"Delta":565163826},{"NoteNumber":48,"Velocity":59,"Duration":100086,"SoundDuration":100086,"Delta":565266271},{"NoteNumber":53,"Velocity":59,"Duration":100457,"SoundDuration":100457,"Delta":565366357},{"NoteNumber":41,"Velocity":63,"Duration":103408,"SoundDuration":103408,"Delta":565466814},{"NoteNumber":84,"Velocity":75,"Duration":203775,"SoundDuration":203775,"Delta":565466814},{"NoteNumber":45,"Velocity":57,"Duration":100367,"SoundDuration":100367,"Delta":565570223},{"NoteNumber":48,"Velocity":57,"Duration":101715,"SoundDuration":101715,"Delta":565670590},{"NoteNumber":53,"Velocity":57,"Duration":100879,"SoundDuration":100879,"Delta":565772305},{"NoteNumber":88,"Velocity":70,"Duration":51347,"SoundDuration":51347,"Delta":565873185},{"NoteNumber":41,"Velocity":63,"Duration":103063,"SoundDuration":103063,"Delta":565873185},{"NoteNumber":89,"Velocity":66,"Duration":51715,"SoundDuration":51715,"Delta":565924532},{"NoteNumber":88,"Velocity":70,"Duration":52089,"SoundDuration":52089,"Delta":565976248},{"NoteNumber":46,"Velocity":57,"Duration":104750,"SoundDuration":104750,"Delta":565976248},{"NoteNumber":89,"Velocity":66,"Duration":52660,"SoundDuration":52660,"Delta":566028338},{"NoteNumber":88,"Velocity":70,"Duration":35311,"SoundDuration":35311,"Delta":566080998},{"NoteNumber":48,"Velocity":57,"Duration":106486,"SoundDuration":106486,"Delta":566080998},{"NoteNumber":89,"Velocity":65,"Duration":35473,"SoundDuration":35473,"Delta":566116310},{"NoteNumber":88,"Velocity":66,"Duration":35702,"SoundDuration":35702,"Delta":566151783},{"NoteNumber":86,"Velocity":70,"Duration":53870,"SoundDuration":53870,"Delta":566187485},{"NoteNumber":55,"Velocity":57,"Duration":107996,"SoundDuration":107996,"Delta":566187485},{"NoteNumber":84,"Velocity":65,"Duration":54125,"SoundDuration":54125,"Delta":566241355},{"NoteNumber":89,"Velocity":75,"Duration":107559,"SoundDuration":107559,"Delta":566295481},{"NoteNumber":65,"Velocity":63,"Duration":107559,"SoundDuration":107559,"Delta":566295481},{"NoteNumber":53,"Velocity":63,"Duration":107559,"SoundDuration":107559,"Delta":566295481},{"NoteNumber":57,"Velocity":63,"Duration":107559,"SoundDuration":107559,"Delta":566295481},{"NoteNumber":60,"Velocity":63,"Duration":107559,"SoundDuration":107559,"Delta":566295481},{"NoteNumber":81,"Velocity":88,"Duration":611453,"SoundDuration":611453,"Delta":566726604},{"NoteNumber":57,"Velocity":69,"Duration":611453,"SoundDuration":611453,"Delta":566726604},{"NoteNumber":45,"Velocity":58,"Duration":611453,"SoundDuration":611453,"Delta":566726604},{"NoteNumber":73,"Velocity":75,"Duration":204215,"SoundDuration":204215,"Delta":567338058},{"NoteNumber":61,"Velocity":63,"Duration":204215,"SoundDuration":204215,"Delta":567338058},{"NoteNumber":49,"Velocity":63,"Duration":204215,"SoundDuration":204215,"Delta":567338058},{"NoteNumber":74,"Velocity":75,"Duration":107204,"SoundDuration":107204,"Delta":567542273},{"NoteNumber":62,"Velocity":63,"Duration":107204,"SoundDuration":107204,"Delta":567542273},{"NoteNumber":50,"Velocity":63,"Duration":107204,"SoundDuration":107204,"Delta":567542273},{"NoteNumber":77,"Velocity":89,"Duration":611453,"SoundDuration":611453,"Delta":567970692},{"NoteNumber":65,"Velocity":71,"Duration":611453,"SoundDuration":611453,"Delta":567970692},{"NoteNumber":53,"Velocity":60,"Duration":611453,"SoundDuration":611453,"Delta":567970692},{"NoteNumber":69,"Velocity":75,"Duration":203927,"SoundDuration":203927,"Delta":568582146},{"NoteNumber":57,"Velocity":63,"Duration":203927,"SoundDuration":203927,"Delta":568582146},{"NoteNumber":70,"Velocity":70,"Duration":51684,"SoundDuration":51684,"Delta":568786074},{"NoteNumber":58,"Velocity":56,"Duration":51684,"SoundDuration":51684,"Delta":568786074},{"NoteNumber":72,"Velocity":65,"Duration":51684,"SoundDuration":51684,"Delta":568837759},{"NoteNumber":60,"Velocity":52,"Duration":51684,"SoundDuration":51684,"Delta":568837759},{"NoteNumber":70,"Velocity":70,"Duration":51684,"SoundDuration":51684,"Delta":568889443},{"NoteNumber":58,"Velocity":56,"Duration":51684,"SoundDuration":51684,"Delta":568889443},{"NoteNumber":72,"Velocity":66,"Duration":51684,"SoundDuration":51684,"Delta":568941128},{"NoteNumber":60,"Velocity":52,"Duration":51684,"SoundDuration":51684,"Delta":568941128},{"NoteNumber":70,"Velocity":70,"Duration":34456,"SoundDuration":34456,"Delta":568992813},{"NoteNumber":58,"Velocity":56,"Duration":34456,"SoundDuration":34456,"Delta":568992813},{"NoteNumber":72,"Velocity":66,"Duration":34456,"SoundDuration":34456,"Delta":569027270},{"NoteNumber":60,"Velocity":52,"Duration":34456,"SoundDuration":34456,"Delta":569027270},{"NoteNumber":70,"Velocity":66,"Duration":34456,"SoundDuration":34456,"Delta":569061726},{"NoteNumber":58,"Velocity":52,"Duration":34456,"SoundDuration":34456,"Delta":569061726},{"NoteNumber":69,"Velocity":70,"Duration":51684,"SoundDuration":51684,"Delta":569096183},{"NoteNumber":57,"Velocity":56,"Duration":51684,"SoundDuration":51684,"Delta":569096183},{"NoteNumber":67,"Velocity":66,"Duration":51684,"SoundDuration":51684,"Delta":569147868},{"NoteNumber":55,"Velocity":52,"Duration":51684,"SoundDuration":51684,"Delta":569147868},{"NoteNumber":72,"Velocity":84,"Duration":112528,"SoundDuration":112528,"Delta":569199553},{"NoteNumber":60,"Velocity":63,"Duration":112528,"SoundDuration":112528,"Delta":569199553},{"NoteNumber":72,"Velocity":72,"Duration":117832,"SoundDuration":117832,"Delta":569649208},{"NoteNumber":67,"Velocity":72,"Duration":117832,"SoundDuration":117832,"Delta":569649208},{"NoteNumber":76,"Velocity":86,"Duration":117832,"SoundDuration":117832,"Delta":569649208},{"NoteNumber":60,"Velocity":67,"Duration":117832,"SoundDuration":117832,"Delta":569649208},{"NoteNumber":48,"Velocity":56,"Duration":117832,"SoundDuration":117832,"Delta":569649208},{"NoteNumber":77,"Velocity":86,"Duration":121654,"SoundDuration":121654,"Delta":570120536},{"NoteNumber":69,"Velocity":72,"Duration":121654,"SoundDuration":121654,"Delta":570120536},{"NoteNumber":72,"Velocity":72,"Duration":121654,"SoundDuration":121654,"Delta":570120536},{"NoteNumber":53,"Velocity":60,"Duration":121654,"SoundDuration":121654,"Delta":570120536},{"NoteNumber":65,"Velocity":72,"Duration":121654,"SoundDuration":121654,"Delta":570120536},{"NoteNumber":65,"Velocity":79,"Duration":121654,"SoundDuration":121654,"Delta":570607154},{"NoteNumber":53,"Velocity":69,"Duration":121654,"SoundDuration":121654,"Delta":570607154},{"NoteNumber":41,"Velocity":58,"Duration":121654,"SoundDuration":121654,"Delta":570607154}]}