{"title":"Klaviersonate No. 5 - 1. Satz","artist":"Piano","durationMs":391351,"midiSha256":"80529d46c18e0f20d0270f6577b1594c45a940e4b0e0721a6281fac4a84ac2a3","midiObject":[{"NoteNumber":63,"Velocity":69,"Duration":490945,"SoundDuration":490945,"Delta":0},{"NoteNumber":67,"Velocity":69,"Duration":490945,"SoundDuration":490945,"Delta":0},{"NoteNumber":72,"Velocity":82,"Duration":490945,"SoundDuration":490945,"Delta":0},{"NoteNumber":60,"Velocity":70,"Duration":490945,"SoundDuration":490945,"Delta":0},{"NoteNumber":55,"Velocity":59,"Duration":490945,"SoundDuration":490945,"Delta":0},{"NoteNumber":51,"Velocity":59,"Duration":490945,"SoundDuration":490945,"Delta":0},{"NoteNumber":48,"Velocity":59,"Duration":490945,"SoundDuration":490945,"Delta":0},{"NoteNumber":67,"Velocity":70,"Duration":81824,"SoundDuration":81824,"Delta":572769},{"NoteNumber":75,"Velocity":78,"Duration":238726,"SoundDuration":238726,"Delta":654594},{"NoteNumber":72,"Velocity":70,"Duration":79575,"SoundDuration":79575,"Delta":893320},{"NoteNumber":79,"Velocity":79,"Duration":238726,"SoundDuration":238726,"Delta":972896},{"NoteNumber":75,"Velocity":70,"Duration":79575,"SoundDuration":79575,"Delta":1211622},{"NoteNumber":84,"Velocity":79,"Duration":238726,"SoundDuration":238726,"Delta":1291198},{"NoteNumber":79,"Velocity":70,"Duration":88438,"SoundDuration":88438,"Delta":1529924},{"NoteNumber":87,"Velocity":84,"Duration":81824,"SoundDuration":81824,"Delta":1618362},{"NoteNumber":87,"Velocity":84,"Duration":81824,"SoundDuration":81824,"Delta":1945659},{"NoteNumber":67,"Velocity":39,"Duration":166768,"SoundDuration":166768,"Delta":2624862},{"NoteNumber":72,"Velocity":46,"Duration":166768,"SoundDuration":166768,"Delta":2624862},{"NoteNumber":60,"Velocity":34,"Duration":166768,"SoundDuration":166768,"Delta":2624862},{"NoteNumber":63,"Velocity":41,"Duration":166768,"SoundDuration":166768,"Delta":2624862},{"NoteNumber":67,"Velocity":42,"Duration":676885,"SoundDuration":676885,"Delta":2958399},{"NoteNumber":72,"Velocity":50,"Duration":676885,"SoundDuration":676885,"Delta":2958399},{"NoteNumber":63,"Velocity":41,"Duration":676885,"SoundDuration":676885,"Delta":2958399},{"NoteNumber":60,"Velocity":34,"Duration":676885,"SoundDuration":676885,"Delta":2958399},{"NoteNumber":67,"Velocity":39,"Duration":392661,"SoundDuration":392661,"Delta":3635284},{"NoteNumber":62,"Velocity":32,"Duration":392661,"SoundDuration":392661,"Delta":3635284},{"NoteNumber":65,"Velocity":38,"Duration":392661,"SoundDuration":392661,"Delta":3635284},{"NoteNumber":71,"Velocity":46,"Duration":392661,"SoundDuration":392661,"Delta":3643639},{"NoteNumber":68,"Velocity":69,"Duration":490945,"SoundDuration":490945,"Delta":4036300},{"NoteNumber":65,"Velocity":69,"Duration":490945,"SoundDuration":490945,"Delta":4036300},{"NoteNumber":71,"Velocity":82,"Duration":490945,"SoundDuration":490945,"Delta":4036300},{"NoteNumber":53,"Velocity":59,"Duration":490945,"SoundDuration":490945,"Delta":4036300},{"NoteNumber":59,"Velocity":59,"Duration":490945,"SoundDuration":490945,"Delta":4036300},{"NoteNumber":56,"Velocity":59,"Duration":490945,"SoundDuration":490945,"Delta":4036300},{"NoteNumber":62,"Velocity":70,"Duration":490945,"SoundDuration":490945,"Delta":4036300},{"NoteNumber":50,"Velocity":59,"Duration":490945,"SoundDuration":490945,"Delta":4036300},{"NoteNumber":71,"Velocity":70,"Duration":81824,"SoundDuration":81824,"Delta":4609070},{"NoteNumber":77,"Velocity":78,"Duration":238726,"SoundDuration":238726,"Delta":4690894},{"NoteNumber":74,"Velocity":70,"Duration":79575,"SoundDuration":79575,"Delta":4929621},{"NoteNumber":83,"Velocity":79,"Duration":238726,"SoundDuration":238726,"Delta":5009196},{"NoteNumber":77,"Velocity":70,"Duration":79575,"SoundDuration":79575,"Delta":5247923},{"NoteNumber":86,"Velocity":79,"Duration":238726,"SoundDuration":238726,"Delta":5327498},{"NoteNumber":83,"Velocity":70,"Duration":88438,"SoundDuration":88438,"Delta":5566225},{"NoteNumber":89,"Velocity":84,"Duration":81824,"SoundDuration":81824,"Delta":5654663},{"NoteNumber":89,"Velocity":84,"Duration":81824,"SoundDuration":81824,"Delta":5981960},{"NoteNumber":71,"Velocity":39,"Duration":166768,"SoundDuration":166768,"Delta":6651488},{"NoteNumber":74,"Velocity":46,"Duration":166768,"SoundDuration":166768,"Delta":6651488},{"NoteNumber":62,"Velocity":34,"Duration":166768,"SoundDuration":166768,"Delta":6651488},{"NoteNumber":68,"Velocity":41,"Duration":166768,"SoundDuration":166768,"Delta":6651488},{"NoteNumber":65,"Velocity":34,"Duration":166768,"SoundDuration":166768,"Delta":6651488},{"NoteNumber":71,"Velocity":42,"Duration":676885,"SoundDuration":676885,"Delta":6985025},{"NoteNumber":74,"Velocity":50,"Duration":676885,"SoundDuration":676885,"Delta":6985025},{"NoteNumber":68,"Velocity":41,"Duration":676885,"SoundDuration":676885,"Delta":6985025},{"NoteNumber":65,"Velocity":34,"Duration":676885,"SoundDuration":676885,"Delta":6985025},{"NoteNumber":62,"Velocity":34,"Duration":676885,"SoundDuration":676885,"Delta":6985025},{"NoteNumber":72,"Velocity":46,"Duration":333902,"SoundDuration":333902,"Delta":7661910},{"NoteNumber":67,"Velocity":38,"Duration":430470,"SoundDuration":430470,"Delta":7661910},{"NoteNumber":63,"Velocity":32,"Duration":430470,"SoundDuration":430470,"Delta":7661910},{"NoteNumber":72,"Velocity":45,"Duration":48284,"SoundDuration":48284,"Delta":7995812},{"NoteNumber":75,"Velocity":48,"Duration":48284,"SoundDuration":48284,"Delta":8044097},{"NoteNumber":79,"Velocity":53,"Duration":494017,"SoundDuration":494017,"Delta":8092381},{"NoteNumber":77,"Velocity":41,"Duration":164672,"SoundDuration":164672,"Delta":8586398},{"NoteNumber":75,"Velocity":51,"Duration":351390,"SoundDuration":351390,"Delta":8751071},{"NoteNumber":60,"Velocity":35,"Duration":351390,"SoundDuration":351390,"Delta":8751071},{"NoteNumber":55,"Velocity":29,"Duration":351390,"SoundDuration":351390,"Delta":8751071},{"NoteNumber":51,"Velocity":29,"Duration":351390,"SoundDuration":351390,"Delta":8751071},{"NoteNumber":74,"Velocity":47,"Duration":675637,"SoundDuration":675637,"Delta":9102462},{"NoteNumber":53,"Velocity":33,"Duration":675637,"SoundDuration":675637,"Delta":9102462},{"NoteNumber":56,"Velocity":33,"Duration":675637,"SoundDuration":675637,"Delta":9102462},{"NoteNumber":59,"Velocity":39,"Duration":675637,"SoundDuration":675637,"Delta":9102462},{"NoteNumber":72,"Velocity":39,"Duration":305415,"SoundDuration":305415,"Delta":9778100},{"NoteNumber":60,"Velocity":34,"Duration":401984,"SoundDuration":401984,"Delta":9778100},{"NoteNumber":55,"Velocity":28,"Duration":401984,"SoundDuration":401984,"Delta":9778100},{"NoteNumber":51,"Velocity":28,"Duration":401984,"SoundDuration":401984,"Delta":9778100},{"NoteNumber":67,"Velocity":27,"Duration":32189,"SoundDuration":32189,"Delta":10083516},{"NoteNumber":72,"Velocity":45,"Duration":32189,"SoundDuration":32189,"Delta":10115705},{"NoteNumber":75,"Velocity":48,"Duration":32189,"SoundDuration":32189,"Delta":10147895},{"NoteNumber":79,"Velocity":53,"Duration":494017,"SoundDuration":494017,"Delta":10180084},{"NoteNumber":77,"Velocity":41,"Duration":164672,"SoundDuration":164672,"Delta":10674102},{"NoteNumber":72,"Velocity":43,"Duration":351390,"SoundDuration":351390,"Delta":10838774},{"NoteNumber":75,"Velocity":51,"Duration":351390,"SoundDuration":351390,"Delta":10838774},{"NoteNumber":63,"Velocity":29,"Duration":351390,"SoundDuration":351390,"Delta":10838774},{"NoteNumber":67,"Velocity":35,"Duration":351390,"SoundDuration":351390,"Delta":10838774},{"NoteNumber":71,"Velocity":39,"Duration":675637,"SoundDuration":675637,"Delta":11190165},{"NoteNumber":74,"Velocity":47,"Duration":675637,"SoundDuration":675637,"Delta":11190165},{"NoteNumber":68,"Velocity":39,"Duration":675637,"SoundDuration":675637,"Delta":11190165},{"NoteNumber":65,"Velocity":33,"Duration":675637,"SoundDuration":675637,"Delta":11190165},{"NoteNumber":72,"Velocity":39,"Duration":253364,"SoundDuration":253364,"Delta":11865803},{"NoteNumber":63,"Velocity":28,"Duration":349932,"SoundDuration":349932,"Delta":11865803},{"NoteNumber":67,"Velocity":34,"Duration":285553,"SoundDuration":285553,"Delta":11865803},{"NoteNumber":67,"Velocity":60,"Duration":96568,"SoundDuration":96568,"Delta":12119167},{"NoteNumber":72,"Velocity":63,"Duration":32189,"SoundDuration":32189,"Delta":12151357},{"NoteNumber":75,"Velocity":69,"Duration":32189,"SoundDuration":32189,"Delta":12183546},{"NoteNumber":67,"Velocity":69,"Duration":487804,"SoundDuration":487804,"Delta":12215736},{"NoteNumber":79,"Velocity":81,"Duration":487804,"SoundDuration":487804,"Delta":12215736},{"NoteNumber":77,"Velocity":61,"Duration":162601,"SoundDuration":162601,"Delta":12703540},{"NoteNumber":65,"Velocity":51,"Duration":162601,"SoundDuration":162601,"Delta":12703540},{"NoteNumber":75,"Velocity":73,"Duration":675271,"SoundDuration":675271,"Delta":12866142},{"NoteNumber":63,"Velocity":62,"Duration":675271,"SoundDuration":675271,"Delta":12866142},{"NoteNumber":55,"Velocity":39,"Duration":345601,"SoundDuration":345601,"Delta":12866142},{"NoteNumber":60,"Velocity":47,"Duration":345601,"SoundDuration":345601,"Delta":12866142},{"NoteNumber":51,"Velocity":39,"Duration":345601,"SoundDuration":345601,"Delta":12866142},{"NoteNumber":59,"Velocity":53,"Duration":669690,"SoundDuration":669690,"Delta":13211744},{"NoteNumber":53,"Velocity":45,"Duration":669690,"SoundDuration":669690,"Delta":13211744},{"NoteNumber":56,"Velocity":45,"Duration":669690,"SoundDuration":669690,"Delta":13211744},{"NoteNumber":74,"Velocity":72,"Duration":85005,"SoundDuration":85005,"Delta":13541414},{"NoteNumber":62,"Velocity":61,"Duration":85005,"SoundDuration":85005,"Delta":13541414},{"NoteNumber":72,"Velocity":75,"Duration":671901,"SoundDuration":671901,"Delta":13881434},{"NoteNumber":60,"Velocity":63,"Duration":671901,"SoundDuration":671901,"Delta":13881434},{"NoteNumber":55,"Velocity":46,"Duration":329670,"SoundDuration":329670,"Delta":13881434},{"NoteNumber":51,"Velocity":39,"Duration":329670,"SoundDuration":329670,"Delta":13881434},{"NoteNumber":50,"Velocity":46,"Duration":672810,"SoundDuration":672810,"Delta":14211104},{"NoteNumber":53,"Velocity":56,"Duration":672810,"SoundDuration":672810,"Delta":14211104},{"NoteNumber":59,"Velocity":63,"Duration":82644,"SoundDuration":82644,"Delta":14553335},{"NoteNumber":71,"Velocity":75,"Duration":82644,"SoundDuration":82644,"Delta":14553335},{"NoteNumber":56,"Velocity":62,"Duration":699354,"SoundDuration":699354,"Delta":14883914},{"NoteNumber":68,"Velocity":74,"Duration":699354,"SoundDuration":699354,"Delta":14883914},{"NoteNumber":51,"Velocity":49,"Duration":353752,"SoundDuration":353752,"Delta":14883914},{"NoteNumber":48,"Velocity":41,"Duration":353752,"SoundDuration":353752,"Delta":14883914},{"NoteNumber":50,"Velocity":47,"Duration":345601,"SoundDuration":345601,"Delta":15237667},{"NoteNumber":47,"Velocity":55,"Duration":345601,"SoundDuration":345601,"Delta":15237667},{"NoteNumber":55,"Velocity":57,"Duration":175695,"SoundDuration":175695,"Delta":15583269},{"NoteNumber":67,"Velocity":67,"Duration":175695,"SoundDuration":175695,"Delta":15583269},{"NoteNumber":59,"Velocity":42,"Duration":114077,"SoundDuration":114077,"Delta":16628282},{"NoteNumber":62,"Velocity":35,"Duration":114077,"SoundDuration":114077,"Delta":16742359},{"NoteNumber":65,"Velocity":35,"Duration":114072,"SoundDuration":114072,"Delta":16856436},{"NoteNumber":68,"Velocity":43,"Duration":114900,"SoundDuration":114900,"Delta":16970508},{"NoteNumber":56,"Velocity":34,"Duration":354234,"SoundDuration":354234,"Delta":16970508},{"NoteNumber":53,"Velocity":28,"Duration":354234,"SoundDuration":354234,"Delta":16970508},{"NoteNumber":50,"Velocity":28,"Duration":354234,"SoundDuration":354234,"Delta":16970508},{"NoteNumber":47,"Velocity":28,"Duration":354234,"SoundDuration":354234,"Delta":16970508},{"NoteNumber":67,"Velocity":36,"Duration":118023,"SoundDuration":118023,"Delta":17085409},{"NoteNumber":65,"Velocity":36,"Duration":121309,"SoundDuration":121309,"Delta":17203433},{"NoteNumber":63,"Velocity":43,"Duration":85280,"SoundDuration":85280,"Delta":17324743},{"NoteNumber":55,"Velocity":34,"Duration":85280,"SoundDuration":85280,"Delta":17324743},{"NoteNumber":51,"Velocity":28,"Duration":85280,"SoundDuration":85280,"Delta":17324743},{"NoteNumber":48,"Velocity":28,"Duration":85280,"SoundDuration":85280,"Delta":17324743},{"NoteNumber":53,"Velocity":42,"Duration":114077,"SoundDuration":114077,"Delta":18689231},{"NoteNumber":56,"Velocity":35,"Duration":114076,"SoundDuration":114076,"Delta":18803308},{"NoteNumber":62,"Velocity":35,"Duration":114072,"SoundDuration":114072,"Delta":18917385},{"NoteNumber":65,"Velocity":43,"Duration":114900,"SoundDuration":114900,"Delta":19031457},{"NoteNumber":50,"Velocity":34,"Duration":354234,"SoundDuration":354234,"Delta":19031457},{"NoteNumber":44,"Velocity":28,"Duration":354234,"SoundDuration":354234,"Delta":19031457},{"NoteNumber":41,"Velocity":28,"Duration":354234,"SoundDuration":354234,"Delta":19031457},{"NoteNumber":63,"Velocity":36,"Duration":118023,"SoundDuration":118023,"Delta":19146358},{"NoteNumber":62,"Velocity":36,"Duration":121309,"SoundDuration":121309,"Delta":19264382},{"NoteNumber":60,"Velocity":43,"Duration":85280,"SoundDuration":85280,"Delta":19385691},{"NoteNumber":48,"Velocity":28,"Duration":85280,"SoundDuration":85280,"Delta":19385691},{"NoteNumber":43,"Velocity":28,"Duration":85280,"SoundDuration":85280,"Delta":19385691},{"NoteNumber":51,"Velocity":34,"Duration":85280,"SoundDuration":85280,"Delta":19385691},{"NoteNumber":55,"Velocity":66,"Duration":114077,"SoundDuration":114077,"Delta":20790628},{"NoteNumber":59,"Velocity":69,"Duration":114076,"SoundDuration":114076,"Delta":20904705},{"NoteNumber":62,"Velocity":72,"Duration":114072,"SoundDuration":114072,"Delta":21018782},{"NoteNumber":65,"Velocity":75,"Duration":114900,"SoundDuration":114900,"Delta":21132855},{"NoteNumber":43,"Velocity":73,"Duration":173510,"SoundDuration":173510,"Delta":21132855},{"NoteNumber":31,"Velocity":73,"Duration":173510,"SoundDuration":173510,"Delta":21132855},{"NoteNumber":62,"Velocity":67,"Duration":118023,"SoundDuration":118023,"Delta":21247755},{"NoteNumber":59,"Velocity":67,"Duration":121309,"SoundDuration":121309,"Delta":21365779},{"NoteNumber":55,"Velocity":79,"Duration":490945,"SoundDuration":490945,"Delta":21487089},{"NoteNumber":51,"Velocity":79,"Duration":490945,"SoundDuration":490945,"Delta":21487089},{"NoteNumber":60,"Velocity":94,"Duration":490945,"SoundDuration":490945,"Delta":21487089},{"NoteNumber":43,"Velocity":67,"Duration":490945,"SoundDuration":490945,"Delta":21487089},{"NoteNumber":36,"Velocity":67,"Duration":490945,"SoundDuration":490945,"Delta":21487089},{"NoteNumber":48,"Velocity":80,"Duration":490945,"SoundDuration":490945,"Delta":21487089},{"NoteNumber":39,"Velocity":67,"Duration":490945,"SoundDuration":490945,"Delta":21487089},{"NoteNumber":60,"Velocity":70,"Duration":81824,"SoundDuration":81824,"Delta":22059859},{"NoteNumber":67,"Velocity":78,"Duration":237467,"SoundDuration":237467,"Delta":22141683},{"NoteNumber":63,"Velocity":70,"Duration":79155,"SoundDuration":79155,"Delta":22379150},{"NoteNumber":72,"Velocity":85,"Duration":235602,"SoundDuration":235602,"Delta":22458306},{"NoteNumber":67,"Velocity":72,"Duration":78534,"SoundDuration":78534,"Delta":22693908},{"NoteNumber":75,"Velocity":80,"Duration":235602,"SoundDuration":235602,"Delta":22772442},{"NoteNumber":72,"Velocity":83,"Duration":88438,"SoundDuration":88438,"Delta":23008044},{"NoteNumber":79,"Velocity":96,"Duration":81824,"SoundDuration":81824,"Delta":23096482},{"NoteNumber":67,"Velocity":81,"Duration":81824,"SoundDuration":81824,"Delta":23096482},{"NoteNumber":48,"Velocity":58,"Duration":81824,"SoundDuration":81824,"Delta":23096482},{"NoteNumber":55,"Velocity":69,"Duration":81824,"SoundDuration":81824,"Delta":23096482},{"NoteNumber":51,"Velocity":58,"Duration":81824,"SoundDuration":81824,"Delta":23096482},{"NoteNumber":79,"Velocity":96,"Duration":81824,"SoundDuration":81824,"Delta":23423779},{"NoteNumber":67,"Velocity":81,"Duration":81824,"SoundDuration":81824,"Delta":23423779},{"NoteNumber":47,"Velocity":58,"Duration":81824,"SoundDuration":81824,"Delta":23423779},{"NoteNumber":50,"Velocity":58,"Duration":81824,"SoundDuration":81824,"Delta":23423779},{"NoteNumber":55,"Velocity":69,"Duration":81824,"SoundDuration":81824,"Delta":23423779},{"NoteNumber":59,"Velocity":70,"Duration":81824,"SoundDuration":81824,"Delta":23996549},{"NoteNumber":67,"Velocity":78,"Duration":238095,"SoundDuration":238095,"Delta":24078373},{"NoteNumber":62,"Velocity":70,"Duration":79364,"SoundDuration":79364,"Delta":24316468},{"NoteNumber":71,"Velocity":85,"Duration":236220,"SoundDuration":236220,"Delta":24395833},{"NoteNumber":67,"Velocity":74,"Duration":78740,"SoundDuration":78740,"Delta":24632054},{"NoteNumber":74,"Velocity":86,"Duration":236220,"SoundDuration":236220,"Delta":24710794},{"NoteNumber":71,"Velocity":83,"Duration":88438,"SoundDuration":88438,"Delta":24947015},{"NoteNumber":79,"Velocity":96,"Duration":81824,"SoundDuration":81824,"Delta":25035453},{"NoteNumber":67,"Velocity":81,"Duration":81824,"SoundDuration":81824,"Delta":25035453},{"NoteNumber":55,"Velocity":69,"Duration":81824,"SoundDuration":81824,"Delta":25035453},{"NoteNumber":47,"Velocity":58,"Duration":81824,"SoundDuration":81824,"Delta":25035453},{"NoteNumber":50,"Velocity":58,"Duration":81824,"SoundDuration":81824,"Delta":25035453},{"NoteNumber":79,"Velocity":96,"Duration":81824,"SoundDuration":81824,"Delta":25362750},{"NoteNumber":67,"Velocity":81,"Duration":81824,"SoundDuration":81824,"Delta":25362750},{"NoteNumber":55,"Velocity":69,"Duration":81824,"SoundDuration":81824,"Delta":25362750},{"NoteNumber":48,"Velocity":58,"Duration":81824,"SoundDuration":81824,"Delta":25362750},{"NoteNumber":51,"Velocity":58,"Duration":81824,"SoundDuration":81824,"Delta":25362750},{"NoteNumber":63,"Velocity":70,"Duration":81824,"SoundDuration":81824,"Delta":25935520},{"NoteNumber":67,"Velocity":78,"Duration":238726,"SoundDuration":238726,"Delta":26017344},{"NoteNumber":63,"Velocity":70,"Duration":79575,"SoundDuration":79575,"Delta":26256071},{"NoteNumber":72,"Velocity":85,"Duration":236220,"SoundDuration":236220,"Delta":26335646},{"NoteNumber":67,"Velocity":74,"Duration":78740,"SoundDuration":78740,"Delta":26571867},{"NoteNumber":75,"Velocity":86,"Duration":236220,"SoundDuration":236220,"Delta":26650607},{"NoteNumber":72,"Velocity":83,"Duration":88438,"SoundDuration":88438,"Delta":26886828},{"NoteNumber":79,"Velocity":90,"Duration":245472,"SoundDuration":245472,"Delta":26975266},{"NoteNumber":51,"Velocity":58,"Duration":81824,"SoundDuration":81824,"Delta":26975266},{"NoteNumber":60,"Velocity":69,"Duration":81824,"SoundDuration":81824,"Delta":26975266},{"NoteNumber":55,"Velocity":58,"Duration":81824,"SoundDuration":81824,"Delta":26975266},{"NoteNumber":75,"Velocity":83,"Duration":81824,"SoundDuration":81824,"Delta":27220739},{"NoteNumber":74,"Velocity":96,"Duration":81067,"SoundDuration":81067,"Delta":27302563},{"NoteNumber":56,"Velocity":58,"Duration":81067,"SoundDuration":81067,"Delta":27302563},{"NoteNumber":62,"Velocity":69,"Duration":81067,"SoundDuration":81067,"Delta":27302563},{"NoteNumber":53,"Velocity":58,"Duration":81067,"SoundDuration":81067,"Delta":27302563},{"NoteNumber":89,"Velocity":96,"Duration":83384,"SoundDuration":83384,"Delta":27626835},{"NoteNumber":71,"Velocity":96,"Duration":81318,"SoundDuration":81318,"Delta":28293909},{"NoteNumber":62,"Velocity":69,"Duration":81318,"SoundDuration":81318,"Delta":28293909},{"NoteNumber":59,"Velocity":58,"Duration":81318,"SoundDuration":81318,"Delta":28293909},{"NoteNumber":55,"Velocity":58,"Duration":81318,"SoundDuration":81318,"Delta":28293909},{"NoteNumber":86,"Velocity":96,"Duration":82859,"SoundDuration":82859,"Delta":28619183},{"NoteNumber":72,"Velocity":96,"Duration":86400,"SoundDuration":86400,"Delta":29282057},{"NoteNumber":55,"Velocity":58,"Duration":86400,"SoundDuration":86400,"Delta":29282057},{"NoteNumber":48,"Velocity":58,"Duration":86400,"SoundDuration":86400,"Delta":29282057},{"NoteNumber":60,"Velocity":69,"Duration":86400,"SoundDuration":86400,"Delta":29282057},{"NoteNumber":51,"Velocity":58,"Duration":86400,"SoundDuration":86400,"Delta":29282057},{"NoteNumber":84,"Velocity":96,"Duration":85280,"SoundDuration":85280,"Delta":29627659},{"NoteNumber":63,"Velocity":69,"Duration":2994999,"SoundDuration":2994999,"Delta":31333269},{"NoteNumber":61,"Velocity":50,"Duration":1006176,"SoundDuration":1006176,"Delta":32318220},{"NoteNumber":67,"Velocity":50,"Duration":669438,"SoundDuration":669438,"Delta":32654958},{"NoteNumber":75,"Velocity":45,"Duration":341121,"SoundDuration":341121,"Delta":32983275},{"NoteNumber":68,"Velocity":42,"Duration":1003872,"SoundDuration":1003872,"Delta":33324397},{"NoteNumber":75,"Velocity":50,"Duration":667133,"SoundDuration":667133,"Delta":33324397},{"NoteNumber":60,"Velocity":49,"Duration":1003872,"SoundDuration":1003872,"Delta":33324397},{"NoteNumber":75,"Velocity":45,"Duration":663020,"SoundDuration":663020,"Delta":33991531},{"NoteNumber":67,"Velocity":42,"Duration":999304,"SoundDuration":999304,"Delta":34328269},{"NoteNumber":61,"Velocity":34,"Duration":999304,"SoundDuration":999304,"Delta":34328269},{"NoteNumber":58,"Velocity":28,"Duration":999304,"SoundDuration":999304,"Delta":34328269},{"NoteNumber":77,"Velocity":45,"Duration":326281,"SoundDuration":326281,"Delta":34654551},{"NoteNumber":73,"Velocity":44,"Duration":678178,"SoundDuration":678178,"Delta":34980833},{"NoteNumber":68,"Velocity":42,"Duration":1013680,"SoundDuration":1013680,"Delta":35327574},{"NoteNumber":56,"Velocity":28,"Duration":1013680,"SoundDuration":1013680,"Delta":35327574},{"NoteNumber":63,"Velocity":33,"Duration":1013680,"SoundDuration":1013680,"Delta":35327574},{"NoteNumber":71,"Velocity":45,"Duration":341121,"SoundDuration":341121,"Delta":35659011},{"NoteNumber":72,"Velocity":45,"Duration":341121,"SoundDuration":341121,"Delta":36000133},{"NoteNumber":70,"Velocity":50,"Duration":997934,"SoundDuration":997934,"Delta":36341255},{"NoteNumber":72,"Velocity":60,"Duration":1995682,"SoundDuration":1995682,"Delta":36341255},{"NoteNumber":76,"Velocity":50,"Duration":664397,"SoundDuration":664397,"Delta":36674792},{"NoteNumber":84,"Velocity":45,"Duration":341121,"SoundDuration":341121,"Delta":36998068},{"NoteNumber":77,"Velocity":42,"Duration":997748,"SoundDuration":997748,"Delta":37339190},{"NoteNumber":84,"Velocity":50,"Duration":661009,"SoundDuration":661009,"Delta":37339190},{"NoteNumber":68,"Velocity":49,"Duration":997748,"SoundDuration":997748,"Delta":37339190},{"NoteNumber":84,"Velocity":45,"Duration":663020,"SoundDuration":663020,"Delta":38000200},{"NoteNumber":76,"Velocity":42,"Duration":990383,"SoundDuration":990383,"Delta":38336938},{"NoteNumber":67,"Velocity":28,"Duration":990383,"SoundDuration":990383,"Delta":38336938},{"NoteNumber":70,"Velocity":34,"Duration":990383,"SoundDuration":990383,"Delta":38336938},{"NoteNumber":85,"Velocity":45,"Duration":326281,"SoundDuration":326281,"Delta":38663220},{"NoteNumber":82,"Velocity":44,"Duration":664101,"SoundDuration":664101,"Delta":38989502},{"NoteNumber":72,"Velocity":42,"Duration":995475,"SoundDuration":995475,"Delta":39327321},{"NoteNumber":65,"Velocity":28,"Duration":995475,"SoundDuration":995475,"Delta":39327321},{"NoteNumber":68,"Velocity":33,"Duration":995475,"SoundDuration":995475,"Delta":39327321},{"NoteNumber":79,"Velocity":45,"Duration":334597,"SoundDuration":334597,"Delta":39653603},{"NoteNumber":80,"Velocity":45,"Duration":334596,"SoundDuration":334596,"Delta":39988200},{"NoteNumber":66,"Velocity":50,"Duration":1000145,"SoundDuration":1000145,"Delta":40322797},{"NoteNumber":68,"Velocity":60,"Duration":1999903,"SoundDuration":1999903,"Delta":40322797},{"NoteNumber":72,"Velocity":50,"Duration":663407,"SoundDuration":663407,"Delta":40659535},{"NoteNumber":80,"Velocity":45,"Duration":341121,"SoundDuration":341121,"Delta":40981821},{"NoteNumber":73,"Velocity":42,"Duration":999757,"SoundDuration":999757,"Delta":41322943},{"NoteNumber":80,"Velocity":50,"Duration":663019,"SoundDuration":663019,"Delta":41322943},{"NoteNumber":65,"Velocity":49,"Duration":999757,"SoundDuration":999757,"Delta":41322943},{"NoteNumber":80,"Velocity":45,"Duration":663020,"SoundDuration":663020,"Delta":41985963},{"NoteNumber":72,"Velocity":42,"Duration":990383,"SoundDuration":990383,"Delta":42322701},{"NoteNumber":63,"Velocity":44,"Duration":990383,"SoundDuration":990383,"Delta":42322701},{"NoteNumber":66,"Velocity":44,"Duration":990383,"SoundDuration":990383,"Delta":42322701},{"NoteNumber":82,"Velocity":45,"Duration":326281,"SoundDuration":326281,"Delta":42648983},{"NoteNumber":78,"Velocity":44,"Duration":669256,"SoundDuration":669256,"Delta":42975265},{"NoteNumber":68,"Velocity":49,"Duration":1007075,"SoundDuration":1007075,"Delta":43313084},{"NoteNumber":61,"Velocity":28,"Duration":1007075,"SoundDuration":1007075,"Delta":43313084},{"NoteNumber":65,"Velocity":33,"Duration":1007075,"SoundDuration":1007075,"Delta":43313084},{"NoteNumber":76,"Velocity":52,"Duration":337819,"SoundDuration":337819,"Delta":43644521},{"NoteNumber":77,"Velocity":52,"Duration":664100,"SoundDuration":664100,"Delta":43982340},{"NoteNumber":69,"Velocity":50,"Duration":999304,"SoundDuration":999304,"Delta":44320159},{"NoteNumber":59,"Velocity":42,"Duration":999304,"SoundDuration":999304,"Delta":44320159},{"NoteNumber":63,"Velocity":48,"Duration":999304,"SoundDuration":999304,"Delta":44320159},{"NoteNumber":78,"Velocity":55,"Duration":326281,"SoundDuration":326281,"Delta":44646441},{"NoteNumber":75,"Velocity":50,"Duration":678178,"SoundDuration":678178,"Delta":44972723},{"NoteNumber":65,"Velocity":42,"Duration":1013680,"SoundDuration":1013680,"Delta":45319464},{"NoteNumber":58,"Velocity":33,"Duration":1013680,"SoundDuration":1013680,"Delta":45319464},{"NoteNumber":75,"Velocity":45,"Duration":341121,"SoundDuration":341121,"Delta":45650901},{"NoteNumber":74,"Velocity":45,"Duration":672558,"SoundDuration":672558,"Delta":45992023},{"NoteNumber":66,"Velocity":42,"Duration":672558,"SoundDuration":672558,"Delta":46333145},{"NoteNumber":57,"Velocity":33,"Duration":1013680,"SoundDuration":1013680,"Delta":46333145},{"NoteNumber":75,"Velocity":45,"Duration":341121,"SoundDuration":341121,"Delta":46664582},{"NoteNumber":63,"Velocity":28,"Duration":341121,"SoundDuration":341121,"Delta":47005704},{"NoteNumber":66,"Velocity":33,"Duration":341121,"SoundDuration":341121,"Delta":47005704},{"NoteNumber":62,"Velocity":32,"Duration":341122,"SoundDuration":341122,"Delta":47346826},{"NoteNumber":65,"Velocity":38,"Duration":341122,"SoundDuration":341122,"Delta":47346826},{"NoteNumber":46,"Velocity":33,"Duration":2014119,"SoundDuration":2014119,"Delta":47346826},{"NoteNumber":53,"Velocity":33,"Duration":334597,"SoundDuration":334597,"Delta":47687948},{"NoteNumber":55,"Velocity":37,"Duration":334596,"SoundDuration":334596,"Delta":48022545},{"NoteNumber":56,"Velocity":41,"Duration":334597,"SoundDuration":334597,"Delta":48357142},{"NoteNumber":72,"Velocity":38,"Duration":163487,"SoundDuration":163487,"Delta":48691739},{"NoteNumber":52,"Velocity":33,"Duration":326974,"SoundDuration":326974,"Delta":48691739},{"NoteNumber":72,"Velocity":38,"Duration":171115,"SoundDuration":171115,"Delta":49018714},{"NoteNumber":53,"Velocity":35,"Duration":342230,"SoundDuration":342230,"Delta":49018714},{"NoteNumber":72,"Velocity":46,"Duration":332410,"SoundDuration":332410,"Delta":49360945},{"NoteNumber":46,"Velocity":42,"Duration":1999739,"SoundDuration":1999739,"Delta":49360945},{"NoteNumber":55,"Velocity":42,"Duration":332410,"SoundDuration":332410,"Delta":49360945},{"NoteNumber":70,"Velocity":38,"Duration":332409,"SoundDuration":332409,"Delta":49693355},{"NoteNumber":50,"Velocity":33,"Duration":332409,"SoundDuration":332409,"Delta":49693355},{"NoteNumber":51,"Velocity":33,"Duration":332410,"SoundDuration":332410,"Delta":50025765},{"NoteNumber":53,"Velocity":40,"Duration":332409,"SoundDuration":332409,"Delta":50358175},{"NoteNumber":68,"Velocity":38,"Duration":163934,"SoundDuration":163934,"Delta":50690585},{"NoteNumber":48,"Velocity":33,"Duration":327868,"SoundDuration":327868,"Delta":50690585},{"NoteNumber":68,"Velocity":38,"Duration":171115,"SoundDuration":171115,"Delta":51018454},{"NoteNumber":50,"Velocity":33,"Duration":342230,"SoundDuration":342230,"Delta":51018454},{"NoteNumber":68,"Velocity":43,"Duration":331491,"SoundDuration":331491,"Delta":51360685},{"NoteNumber":46,"Velocity":39,"Duration":1964395,"SoundDuration":1964395,"Delta":51360685},{"NoteNumber":51,"Velocity":39,"Duration":331491,"SoundDuration":331491,"Delta":51360685},{"NoteNumber":67,"Velocity":38,"Duration":331492,"SoundDuration":331492,"Delta":51692177},{"NoteNumber":53,"Velocity":33,"Duration":331492,"SoundDuration":331492,"Delta":51692177},{"NoteNumber":55,"Velocity":36,"Duration":331491,"SoundDuration":331491,"Delta":52023669},{"NoteNumber":56,"Velocity":40,"Duration":321716,"SoundDuration":321716,"Delta":52355161},{"NoteNumber":72,"Velocity":37,"Duration":160858,"SoundDuration":160858,"Delta":52516019},{"NoteNumber":71,"Velocity":38,"Duration":157894,"SoundDuration":157894,"Delta":52676877},{"NoteNumber":52,"Velocity":33,"Duration":315789,"SoundDuration":315789,"Delta":52676877},{"NoteNumber":72,"Velocity":34,"Duration":157894,"SoundDuration":157894,"Delta":52834772},{"NoteNumber":74,"Velocity":43,"Duration":157894,"SoundDuration":157894,"Delta":52992666},{"NoteNumber":53,"Velocity":33,"Duration":332414,"SoundDuration":332414,"Delta":52992666},{"NoteNumber":72,"Velocity":38,"Duration":174520,"SoundDuration":174520,"Delta":53150561},{"NoteNumber":55,"Velocity":42,"Duration":321716,"SoundDuration":321716,"Delta":53325081},{"NoteNumber":46,"Velocity":42,"Duration":1934190,"SoundDuration":1934190,"Delta":53325081},{"NoteNumber":70,"Velocity":36,"Duration":160858,"SoundDuration":160858,"Delta":53485939},{"NoteNumber":69,"Velocity":38,"Duration":157480,"SoundDuration":157480,"Delta":53646797},{"NoteNumber":50,"Velocity":33,"Duration":314960,"SoundDuration":314960,"Delta":53646797},{"NoteNumber":70,"Velocity":36,"Duration":157480,"SoundDuration":157480,"Delta":53804277},{"NoteNumber":72,"Velocity":44,"Duration":157480,"SoundDuration":157480,"Delta":53961758},{"NoteNumber":51,"Velocity":33,"Duration":331424,"SoundDuration":331424,"Delta":53961758},{"NoteNumber":70,"Velocity":38,"Duration":173943,"SoundDuration":173943,"Delta":54119238},{"NoteNumber":53,"Velocity":40,"Duration":325203,"SoundDuration":325203,"Delta":54293182},{"NoteNumber":68,"Velocity":36,"Duration":162601,"SoundDuration":162601,"Delta":54455783},{"NoteNumber":67,"Velocity":38,"Duration":157068,"SoundDuration":157068,"Delta":54618385},{"NoteNumber":48,"Velocity":33,"Duration":314135,"SoundDuration":314135,"Delta":54618385},{"NoteNumber":68,"Velocity":35,"Duration":157067,"SoundDuration":157067,"Delta":54775453},{"NoteNumber":70,"Velocity":44,"Duration":157068,"SoundDuration":157068,"Delta":54932521},{"NoteNumber":50,"Velocity":33,"Duration":326750,"SoundDuration":326750,"Delta":54932521},{"NoteNumber":68,"Velocity":37,"Duration":169682,"SoundDuration":169682,"Delta":55089589},{"NoteNumber":67,"Velocity":46,"Duration":1471951,"SoundDuration":1471951,"Delta":55259271},{"NoteNumber":51,"Velocity":40,"Duration":167075,"SoundDuration":167075,"Delta":55259271},{"NoteNumber":58,"Velocity":28,"Duration":166273,"SoundDuration":166273,"Delta":55426347},{"NoteNumber":55,"Velocity":33,"Duration":165447,"SoundDuration":165447,"Delta":55592620},{"NoteNumber":58,"Velocity":27,"Duration":164653,"SoundDuration":164653,"Delta":55758067},{"NoteNumber":53,"Velocity":33,"Duration":164350,"SoundDuration":164350,"Delta":55932296},{"NoteNumber":58,"Velocity":30,"Duration":162897,"SoundDuration":162897,"Delta":56087091},{"NoteNumber":51,"Velocity":38,"Duration":161234,"SoundDuration":161234,"Delta":56249989},{"NoteNumber":58,"Velocity":28,"Duration":159999,"SoundDuration":159999,"Delta":56411223},{"NoteNumber":53,"Velocity":42,"Duration":160000,"SoundDuration":160000,"Delta":56571223},{"NoteNumber":70,"Velocity":56,"Duration":159999,"SoundDuration":159999,"Delta":56731223},{"NoteNumber":58,"Velocity":35,"Duration":159999,"SoundDuration":159999,"Delta":56731223},{"NoteNumber":75,"Velocity":62,"Duration":325059,"SoundDuration":325059,"Delta":56891223},{"NoteNumber":55,"Velocity":46,"Duration":160000,"SoundDuration":160000,"Delta":56891223},{"NoteNumber":58,"Velocity":40,"Duration":172235,"SoundDuration":172235,"Delta":57051223},{"NoteNumber":75,"Velocity":63,"Duration":986111,"SoundDuration":986111,"Delta":57223458},{"NoteNumber":53,"Velocity":51,"Duration":169206,"SoundDuration":169206,"Delta":57223458},{"NoteNumber":58,"Velocity":44,"Duration":163952,"SoundDuration":163952,"Delta":57392664},{"NoteNumber":55,"Velocity":52,"Duration":162745,"SoundDuration":162745,"Delta":57556617},{"NoteNumber":58,"Velocity":43,"Duration":161743,"SoundDuration":161743,"Delta":57719363},{"NoteNumber":56,"Velocity":55,"Duration":162953,"SoundDuration":162953,"Delta":57881106},{"NoteNumber":58,"Velocity":47,"Duration":165509,"SoundDuration":165509,"Delta":58044060},{"NoteNumber":74,"Velocity":57,"Duration":334597,"SoundDuration":334597,"Delta":58209569},{"NoteNumber":53,"Velocity":60,"Duration":167298,"SoundDuration":167298,"Delta":58209569},{"NoteNumber":58,"Velocity":39,"Duration":167298,"SoundDuration":167298,"Delta":58376868},{"NoteNumber":55,"Velocity":46,"Duration":167298,"SoundDuration":167298,"Delta":58544166},{"NoteNumber":58,"Velocity":33,"Duration":167298,"SoundDuration":167298,"Delta":58711465},{"NoteNumber":56,"Velocity":41,"Duration":167298,"SoundDuration":167298,"Delta":58878763},{"NoteNumber":58,"Velocity":33,"Duration":167298,"SoundDuration":167298,"Delta":59046062},{"NoteNumber":70,"Velocity":51,"Duration":990523,"SoundDuration":990523,"Delta":59213360},{"NoteNumber":50,"Velocity":40,"Duration":167075,"SoundDuration":167075,"Delta":59213360},{"NoteNumber":58,"Velocity":28,"Duration":166273,"SoundDuration":166273,"Delta":59380436},{"NoteNumber":53,"Velocity":33,"Duration":165447,"SoundDuration":165447,"Delta":59546709},{"NoteNumber":58,"Velocity":27,"Duration":164653,"SoundDuration":164653,"Delta":59712156},{"NoteNumber":51,"Velocity":33,"Duration":163892,"SoundDuration":163892,"Delta":59876809},{"NoteNumber":58,"Velocity":30,"Duration":163181,"SoundDuration":163181,"Delta":60040702},{"NoteNumber":70,"Velocity":61,"Duration":163140,"SoundDuration":163140,"Delta":60203883},{"NoteNumber":50,"Velocity":38,"Duration":163140,"SoundDuration":163140,"Delta":60203883},{"NoteNumber":72,"Velocity":57,"Duration":53050,"SoundDuration":53050,"Delta":60367024},{"NoteNumber":58,"Velocity":31,"Duration":159151,"SoundDuration":159151,"Delta":60367024},{"NoteNumber":70,"Velocity":52,"Duration":53050,"SoundDuration":53050,"Delta":60420075},{"NoteNumber":69,"Velocity":52,"Duration":53050,"SoundDuration":53050,"Delta":60473125},{"NoteNumber":70,"Velocity":61,"Duration":159151,"SoundDuration":159151,"Delta":60526175},{"NoteNumber":51,"Velocity":46,"Duration":159151,"SoundDuration":159151,"Delta":60526175},{"NoteNumber":77,"Velocity":65,"Duration":159150,"SoundDuration":159150,"Delta":60685326},{"NoteNumber":58,"Velocity":38,"Duration":159150,"SoundDuration":159150,"Delta":60685326},{"NoteNumber":80,"Velocity":73,"Duration":331386,"SoundDuration":331386,"Delta":60844477},{"NoteNumber":53,"Velocity":50,"Duration":159151,"SoundDuration":159151,"Delta":60844477},{"NoteNumber":58,"Velocity":43,"Duration":172235,"SoundDuration":172235,"Delta":61003628},{"NoteNumber":80,"Velocity":74,"Duration":984940,"SoundDuration":984940,"Delta":61175864},{"NoteNumber":51,"Velocity":56,"Duration":168522,"SoundDuration":168522,"Delta":61175864},{"NoteNumber":58,"Velocity":42,"Duration":163385,"SoundDuration":163385,"Delta":61344386},{"NoteNumber":53,"Velocity":54,"Duration":161470,"SoundDuration":161470,"Delta":61507772},{"NoteNumber":58,"Velocity":44,"Duration":161480,"SoundDuration":161480,"Delta":61669242},{"NoteNumber":55,"Velocity":46,"Duration":163899,"SoundDuration":163899,"Delta":61830722},{"NoteNumber":58,"Velocity":33,"Duration":166182,"SoundDuration":166182,"Delta":61994622},{"NoteNumber":79,"Velocity":69,"Duration":334597,"SoundDuration":334597,"Delta":62160804},{"NoteNumber":51,"Velocity":48,"Duration":167298,"SoundDuration":167298,"Delta":62160804},{"NoteNumber":58,"Velocity":39,"Duration":167298,"SoundDuration":167298,"Delta":62328103},{"NoteNumber":53,"Velocity":41,"Duration":167298,"SoundDuration":167298,"Delta":62495401},{"NoteNumber":58,"Velocity":33,"Duration":167298,"SoundDuration":167298,"Delta":62662700},{"NoteNumber":55,"Velocity":41,"Duration":167298,"SoundDuration":167298,"Delta":62829998},{"NoteNumber":58,"Velocity":33,"Duration":167298,"SoundDuration":167298,"Delta":62997297},{"NoteNumber":67,"Velocity":56,"Duration":83092,"SoundDuration":83092,"Delta":63164595},{"NoteNumber":51,"Velocity":40,"Duration":165802,"SoundDuration":165802,"Delta":63164595},{"NoteNumber":68,"Velocity":58,"Duration":82481,"SoundDuration":82481,"Delta":63330398},{"NoteNumber":58,"Velocity":28,"Duration":164692,"SoundDuration":164692,"Delta":63330398},{"NoteNumber":70,"Velocity":60,"Duration":81959,"SoundDuration":81959,"Delta":63495090},{"NoteNumber":55,"Velocity":33,"Duration":163677,"SoundDuration":163677,"Delta":63495090},{"NoteNumber":72,"Velocity":62,"Duration":81451,"SoundDuration":81451,"Delta":63658768},{"NoteNumber":58,"Velocity":27,"Duration":162682,"SoundDuration":162682,"Delta":63658768},{"NoteNumber":74,"Velocity":64,"Duration":80968,"SoundDuration":80968,"Delta":63821451},{"NoteNumber":51,"Velocity":35,"Duration":161718,"SoundDuration":161718,"Delta":63821451},{"NoteNumber":75,"Velocity":65,"Duration":80490,"SoundDuration":80490,"Delta":63983169},{"NoteNumber":58,"Velocity":32,"Duration":160765,"SoundDuration":160765,"Delta":63983169},{"NoteNumber":77,"Velocity":70,"Duration":80017,"SoundDuration":80017,"Delta":64143934},{"NoteNumber":51,"Velocity":41,"Duration":160017,"SoundDuration":160017,"Delta":64143934},{"NoteNumber":79,"Velocity":73,"Duration":79155,"SoundDuration":79155,"Delta":64303952},{"NoteNumber":58,"Velocity":38,"Duration":158311,"SoundDuration":158311,"Delta":64303952},{"NoteNumber":80,"Velocity":76,"Duration":79155,"SoundDuration":79155,"Delta":64462264},{"NoteNumber":55,"Velocity":48,"Duration":158311,"SoundDuration":158311,"Delta":64462264},{"NoteNumber":82,"Velocity":78,"Duration":79155,"SoundDuration":79155,"Delta":64620575},{"NoteNumber":58,"Velocity":41,"Duration":158311,"SoundDuration":158311,"Delta":64620575},{"NoteNumber":84,"Velocity":81,"Duration":79155,"SoundDuration":79155,"Delta":64778887},{"NoteNumber":51,"Velocity":54,"Duration":158311,"SoundDuration":158311,"Delta":64778887},{"NoteNumber":86,"Velocity":84,"Duration":95237,"SoundDuration":95237,"Delta":64937198},{"NoteNumber":58,"Velocity":51,"Duration":190476,"SoundDuration":190476,"Delta":64937198},{"NoteNumber":87,"Velocity":91,"Duration":983346,"SoundDuration":983346,"Delta":65127674},{"NoteNumber":53,"Velocity":52,"Duration":170799,"SoundDuration":170799,"Delta":65127674},{"NoteNumber":58,"Velocity":48,"Duration":163327,"SoundDuration":163327,"Delta":65298473},{"NoteNumber":56,"Velocity":52,"Duration":162290,"SoundDuration":162290,"Delta":65461800},{"NoteNumber":58,"Velocity":44,"Duration":161267,"SoundDuration":161267,"Delta":65624091},{"NoteNumber":53,"Velocity":46,"Duration":162015,"SoundDuration":162015,"Delta":65785359},{"NoteNumber":58,"Velocity":43,"Duration":163646,"SoundDuration":163646,"Delta":65947374},{"NoteNumber":86,"Velocity":71,"Duration":328900,"SoundDuration":328900,"Delta":66111021},{"NoteNumber":53,"Velocity":43,"Duration":164517,"SoundDuration":164517,"Delta":66111021},{"NoteNumber":58,"Velocity":31,"Duration":164383,"SoundDuration":164383,"Delta":66275538},{"NoteNumber":56,"Velocity":39,"Duration":164383,"SoundDuration":164383,"Delta":66439922},{"NoteNumber":58,"Velocity":31,"Duration":164383,"SoundDuration":164383,"Delta":66604305},{"NoteNumber":53,"Velocity":39,"Duration":164383,"SoundDuration":164383,"Delta":66768689},{"NoteNumber":58,"Velocity":31,"Duration":163013,"SoundDuration":163013,"Delta":66933072},{"NoteNumber":58,"Velocity":56,"Duration":82191,"SoundDuration":82191,"Delta":67097456},{"NoteNumber":50,"Velocity":40,"Duration":164269,"SoundDuration":164269,"Delta":67097456},{"NoteNumber":60,"Velocity":58,"Duration":81943,"SoundDuration":81943,"Delta":67261725},{"NoteNumber":58,"Velocity":32,"Duration":163686,"SoundDuration":163686,"Delta":67261725},{"NoteNumber":62,"Velocity":60,"Duration":81630,"SoundDuration":81630,"Delta":67425412},{"NoteNumber":53,"Velocity":39,"Duration":163128,"SoundDuration":163128,"Delta":67425412},{"NoteNumber":63,"Velocity":62,"Duration":81300,"SoundDuration":81300,"Delta":67588540},{"NoteNumber":58,"Velocity":29,"Duration":162489,"SoundDuration":162489,"Delta":67588540},{"NoteNumber":65,"Velocity":64,"Duration":81057,"SoundDuration":81057,"Delta":67751030},{"NoteNumber":50,"Velocity":46,"Duration":161919,"SoundDuration":161919,"Delta":67751030},{"NoteNumber":67,"Velocity":65,"Duration":80752,"SoundDuration":80752,"Delta":67912950},{"NoteNumber":58,"Velocity":37,"Duration":161373,"SoundDuration":161373,"Delta":67912950},{"NoteNumber":68,"Velocity":67,"Duration":80429,"SoundDuration":80429,"Delta":68074324},{"NoteNumber":50,"Velocity":52,"Duration":160858,"SoundDuration":160858,"Delta":68074324},{"NoteNumber":70,"Velocity":72,"Duration":79575,"SoundDuration":79575,"Delta":68235182},{"NoteNumber":58,"Velocity":43,"Duration":159150,"SoundDuration":159150,"Delta":68235182},{"NoteNumber":72,"Velocity":74,"Duration":79575,"SoundDuration":79575,"Delta":68394333},{"NoteNumber":53,"Velocity":57,"Duration":159151,"SoundDuration":159151,"Delta":68394333},{"NoteNumber":74,"Velocity":76,"Duration":79575,"SoundDuration":79575,"Delta":68553484},{"NoteNumber":58,"Velocity":49,"Duration":159150,"SoundDuration":159150,"Delta":68553484},{"NoteNumber":75,"Velocity":78,"Duration":79575,"SoundDuration":79575,"Delta":68712635},{"NoteNumber":50,"Velocity":62,"Duration":159151,"SoundDuration":159151,"Delta":68712635},{"NoteNumber":77,"Velocity":80,"Duration":86117,"SoundDuration":86117,"Delta":68871786},{"NoteNumber":58,"Velocity":51,"Duration":172235,"SoundDuration":172235,"Delta":68871786},{"NoteNumber":79,"Velocity":94,"Duration":1010495,"SoundDuration":1010495,"Delta":69044021},{"NoteNumber":51,"Velocity":43,"Duration":167298,"SoundDuration":167298,"Delta":69216257},{"NoteNumber":50,"Velocity":50,"Duration":166241,"SoundDuration":166241,"Delta":69383555},{"NoteNumber":51,"Velocity":44,"Duration":166241,"SoundDuration":166241,"Delta":69549797},{"NoteNumber":50,"Velocity":53,"Duration":166242,"SoundDuration":166242,"Delta":69716039},{"NoteNumber":51,"Velocity":44,"Duration":172235,"SoundDuration":172235,"Delta":69882281},{"NoteNumber":87,"Velocity":100,"Duration":662362,"SoundDuration":662362,"Delta":70054517},{"NoteNumber":43,"Velocity":67,"Duration":166768,"SoundDuration":166768,"Delta":70054517},{"NoteNumber":51,"Velocity":45,"Duration":165198,"SoundDuration":165198,"Delta":70221285},{"NoteNumber":44,"Velocity":59,"Duration":165197,"SoundDuration":165197,"Delta":70386483},{"NoteNumber":51,"Velocity":47,"Duration":165198,"SoundDuration":165198,"Delta":70551681},{"NoteNumber":55,"Velocity":77,"Duration":339534,"SoundDuration":339534,"Delta":70716879},{"NoteNumber":46,"Velocity":61,"Duration":167298,"SoundDuration":167298,"Delta":70716879},{"NoteNumber":51,"Velocity":44,"Duration":172235,"SoundDuration":172235,"Delta":70884178},{"NoteNumber":56,"Velocity":82,"Duration":1005558,"SoundDuration":1005558,"Delta":71056413},{"NoteNumber":44,"Velocity":65,"Duration":167298,"SoundDuration":167298,"Delta":71056413},{"NoteNumber":51,"Velocity":45,"Duration":167298,"SoundDuration":167298,"Delta":71223712},{"NoteNumber":46,"Velocity":57,"Duration":166241,"SoundDuration":166241,"Delta":71391010},{"NoteNumber":51,"Velocity":42,"Duration":166241,"SoundDuration":166241,"Delta":71557252},{"NoteNumber":48,"Velocity":55,"Duration":166242,"SoundDuration":166242,"Delta":71723494},{"NoteNumber":51,"Velocity":45,"Duration":172235,"SoundDuration":172235,"Delta":71889736},{"NoteNumber":57,"Velocity":84,"Duration":1002325,"SoundDuration":1002325,"Delta":72061972},{"NoteNumber":45,"Velocity":67,"Duration":166241,"SoundDuration":166241,"Delta":72061972},{"NoteNumber":51,"Velocity":45,"Duration":166241,"SoundDuration":166241,"Delta":72228214},{"NoteNumber":46,"Velocity":56,"Duration":166242,"SoundDuration":166242,"Delta":72394456},{"NoteNumber":51,"Velocity":47,"Duration":166241,"SoundDuration":166241,"Delta":72560698},{"NoteNumber":48,"Velocity":55,"Duration":166241,"SoundDuration":166241,"Delta":72726940},{"NoteNumber":51,"Velocity":44,"Duration":171115,"SoundDuration":171115,"Delta":72893182},{"NoteNumber":58,"Velocity":84,"Duration":998045,"SoundDuration":998045,"Delta":73064297},{"NoteNumber":46,"Velocity":64,"Duration":165718,"SoundDuration":165718,"Delta":73064297},{"NoteNumber":55,"Velocity":46,"Duration":165718,"SoundDuration":165718,"Delta":73230016},{"NoteNumber":51,"Velocity":56,"Duration":165718,"SoundDuration":165718,"Delta":73395734},{"NoteNumber":55,"Velocity":45,"Duration":165718,"SoundDuration":165718,"Delta":73561453},{"NoteNumber":46,"Velocity":57,"Duration":165718,"SoundDuration":165718,"Delta":73727171},{"NoteNumber":55,"Velocity":46,"Duration":169453,"SoundDuration":169453,"Delta":73892890},{"NoteNumber":56,"Velocity":84,"Duration":84266,"SoundDuration":84266,"Delta":74062343},{"NoteNumber":46,"Velocity":64,"Duration":167468,"SoundDuration":167468,"Delta":74062343},{"NoteNumber":58,"Velocity":57,"Duration":83201,"SoundDuration":83201,"Delta":74146610},{"NoteNumber":56,"Velocity":61,"Duration":55066,"SoundDuration":55066,"Delta":74229811},{"NoteNumber":53,"Velocity":46,"Duration":165198,"SoundDuration":165198,"Delta":74229811},{"NoteNumber":58,"Velocity":57,"Duration":55065,"SoundDuration":55065,"Delta":74284877},{"NoteNumber":56,"Velocity":64,"Duration":55065,"SoundDuration":55065,"Delta":74339943},{"NoteNumber":58,"Velocity":56,"Duration":55065,"SoundDuration":55065,"Delta":74395009},{"NoteNumber":50,"Velocity":55,"Duration":165198,"SoundDuration":165198,"Delta":74395009},{"NoteNumber":56,"Velocity":64,"Duration":55066,"SoundDuration":55066,"Delta":74450075},{"NoteNumber":58,"Velocity":56,"Duration":55065,"SoundDuration":55065,"Delta":74505141},{"NoteNumber":56,"Velocity":64,"Duration":55065,"SoundDuration":55065,"Delta":74560207},{"NoteNumber":53,"Velocity":45,"Duration":165198,"SoundDuration":165198,"Delta":74560207},{"NoteNumber":58,"Velocity":55,"Duration":55065,"SoundDuration":55065,"Delta":74615273},{"NoteNumber":56,"Velocity":64,"Duration":55066,"SoundDuration":55066,"Delta":74670339},{"NoteNumber":58,"Velocity":54,"Duration":82493,"SoundDuration":82493,"Delta":74725405},{"NoteNumber":46,"Velocity":55,"Duration":165503,"SoundDuration":165503,"Delta":74725405},{"NoteNumber":56,"Velocity":59,"Duration":83010,"SoundDuration":83010,"Delta":74807899},{"NoteNumber":55,"Velocity":55,"Duration":83663,"SoundDuration":83663,"Delta":74890909},{"NoteNumber":53,"Velocity":46,"Duration":167969,"SoundDuration":167969,"Delta":74890909},{"NoteNumber":56,"Velocity":57,"Duration":84306,"SoundDuration":84306,"Delta":74974572},{"NoteNumber":55,"Velocity":74,"Duration":166241,"SoundDuration":166241,"Delta":75058879},{"NoteNumber":39,"Velocity":64,"Duration":331076,"SoundDuration":331076,"Delta":75058879},{"NoteNumber":51,"Velocity":64,"Duration":331076,"SoundDuration":331076,"Delta":75058879},{"NoteNumber":58,"Velocity":60,"Duration":164834,"SoundDuration":164834,"Delta":75225121},{"NoteNumber":63,"Velocity":68,"Duration":164834,"SoundDuration":164834,"Delta":75389956},{"NoteNumber":58,"Velocity":61,"Duration":164835,"SoundDuration":164835,"Delta":75554791},{"NoteNumber":63,"Velocity":69,"Duration":164834,"SoundDuration":164834,"Delta":75719626},{"NoteNumber":67,"Velocity":63,"Duration":164834,"SoundDuration":164834,"Delta":75884461},{"NoteNumber":70,"Velocity":69,"Duration":163043,"SoundDuration":163043,"Delta":76049296},{"NoteNumber":67,"Velocity":60,"Duration":163043,"SoundDuration":163043,"Delta":76212339},{"NoteNumber":70,"Velocity":69,"Duration":163043,"SoundDuration":163043,"Delta":76375383},{"NoteNumber":75,"Velocity":62,"Duration":163043,"SoundDuration":163043,"Delta":76538426},{"NoteNumber":79,"Velocity":73,"Duration":163043,"SoundDuration":163043,"Delta":76701470},{"NoteNumber":82,"Velocity":65,"Duration":163043,"SoundDuration":163043,"Delta":76864513},{"NoteNumber":87,"Velocity":89,"Duration":166768,"SoundDuration":166768,"Delta":77027557},{"NoteNumber":43,"Velocity":67,"Duration":166768,"SoundDuration":166768,"Delta":77027557},{"NoteNumber":51,"Velocity":45,"Duration":165198,"SoundDuration":165198,"Delta":77194325},{"NoteNumber":44,"Velocity":59,"Duration":165197,"SoundDuration":165197,"Delta":77359523},{"NoteNumber":51,"Velocity":47,"Duration":165198,"SoundDuration":165198,"Delta":77524721},{"NoteNumber":63,"Velocity":84,"Duration":1001896,"SoundDuration":1001896,"Delta":77689919},{"NoteNumber":46,"Velocity":61,"Duration":167298,"SoundDuration":167298,"Delta":77689919},{"NoteNumber":51,"Velocity":44,"Duration":172235,"SoundDuration":172235,"Delta":77857218},{"NoteNumber":43,"Velocity":67,"Duration":166768,"SoundDuration":166768,"Delta":78029453},{"NoteNumber":51,"Velocity":45,"Duration":165198,"SoundDuration":165198,"Delta":78196222},{"NoteNumber":44,"Velocity":57,"Duration":165197,"SoundDuration":165197,"Delta":78361420},{"NoteNumber":51,"Velocity":52,"Duration":165198,"SoundDuration":165198,"Delta":78526618},{"NoteNumber":55,"Velocity":81,"Duration":339534,"SoundDuration":339534,"Delta":78691816},{"NoteNumber":46,"Velocity":61,"Duration":167298,"SoundDuration":167298,"Delta":78691816},{"NoteNumber":51,"Velocity":44,"Duration":172235,"SoundDuration":172235,"Delta":78859114},{"NoteNumber":56,"Velocity":84,"Duration":663364,"SoundDuration":663364,"Delta":79031350},{"NoteNumber":44,"Velocity":65,"Duration":167298,"SoundDuration":167298,"Delta":79031350},{"NoteNumber":51,"Velocity":45,"Duration":167298,"SoundDuration":167298,"Delta":79198648},{"NoteNumber":46,"Velocity":58,"Duration":164383,"SoundDuration":164383,"Delta":79365947},{"NoteNumber":51,"Velocity":42,"Duration":164383,"SoundDuration":164383,"Delta":79530330},{"NoteNumber":63,"Velocity":84,"Duration":336618,"SoundDuration":336618,"Delta":79694714},{"NoteNumber":48,"Velocity":57,"Duration":164383,"SoundDuration":164383,"Delta":79694714},{"NoteNumber":51,"Velocity":45,"Duration":172235,"SoundDuration":172235,"Delta":79859097},{"NoteNumber":57,"Velocity":92,"Duration":661250,"SoundDuration":661250,"Delta":80031333},{"NoteNumber":45,"Velocity":67,"Duration":166241,"SoundDuration":166241,"Delta":80031333},{"NoteNumber":51,"Velocity":45,"Duration":166241,"SoundDuration":166241,"Delta":80197575},{"NoteNumber":46,"Velocity":56,"Duration":164383,"SoundDuration":164383,"Delta":80363817},{"NoteNumber":51,"Velocity":47,"Duration":164383,"SoundDuration":164383,"Delta":80528200},{"NoteNumber":63,"Velocity":84,"Duration":335498,"SoundDuration":335498,"Delta":80692584},{"NoteNumber":48,"Velocity":58,"Duration":164383,"SoundDuration":164383,"Delta":80692584},{"NoteNumber":51,"Velocity":44,"Duration":171115,"SoundDuration":171115,"Delta":80856967},{"NoteNumber":58,"Velocity":77,"Duration":166241,"SoundDuration":166241,"Delta":81028083},{"NoteNumber":46,"Velocity":67,"Duration":166241,"SoundDuration":166241,"Delta":81028083},{"NoteNumber":63,"Velocity":59,"Duration":162601,"SoundDuration":162601,"Delta":81194325},{"NoteNumber":51,"Velocity":52,"Duration":162601,"SoundDuration":162601,"Delta":81194325},{"NoteNumber":62,"Velocity":68,"Duration":162601,"SoundDuration":162601,"Delta":81356926},{"NoteNumber":50,"Velocity":61,"Duration":162601,"SoundDuration":162601,"Delta":81356926},{"NoteNumber":63,"Velocity":55,"Duration":162601,"SoundDuration":162601,"Delta":81519528},{"NoteNumber":51,"Velocity":48,"Duration":162601,"SoundDuration":162601,"Delta":81519528},{"NoteNumber":59,"Velocity":65,"Duration":162601,"SoundDuration":162601,"Delta":81682129},{"NoteNumber":47,"Velocity":62,"Duration":162601,"SoundDuration":162601,"Delta":81682129},{"NoteNumber":63,"Velocity":59,"Duration":171115,"SoundDuration":171115,"Delta":81844731},{"NoteNumber":51,"Velocity":53,"Duration":171115,"SoundDuration":171115,"Delta":81844731},{"NoteNumber":60,"Velocity":82,"Duration":166241,"SoundDuration":166241,"Delta":82015846},{"NoteNumber":48,"Velocity":71,"Duration":166241,"SoundDuration":166241,"Delta":82015846},{"NoteNumber":63,"Velocity":62,"Duration":162161,"SoundDuration":162161,"Delta":82182088},{"NoteNumber":51,"Velocity":54,"Duration":162161,"SoundDuration":162161,"Delta":82182088},{"NoteNumber":62,"Velocity":71,"Duration":162162,"SoundDuration":162162,"Delta":82344250},{"NoteNumber":50,"Velocity":65,"Duration":162162,"SoundDuration":162162,"Delta":82344250},{"NoteNumber":63,"Velocity":59,"Duration":162161,"SoundDuration":162161,"Delta":82506412},{"NoteNumber":51,"Velocity":52,"Duration":162161,"SoundDuration":162161,"Delta":82506412},{"NoteNumber":57,"Velocity":66,"Duration":162161,"SoundDuration":162161,"Delta":82668574},{"NoteNumber":45,"Velocity":64,"Duration":162161,"SoundDuration":162161,"Delta":82668574},{"NoteNumber":63,"Velocity":56,"Duration":171115,"SoundDuration":171115,"Delta":82830736},{"NoteNumber":51,"Velocity":49,"Duration":171115,"SoundDuration":171115,"Delta":82830736},{"NoteNumber":58,"Velocity":88,"Duration":166241,"SoundDuration":166241,"Delta":83001852},{"NoteNumber":46,"Velocity":77,"Duration":166241,"SoundDuration":166241,"Delta":83001852},{"NoteNumber":63,"Velocity":58,"Duration":161725,"SoundDuration":161725,"Delta":83168094},{"NoteNumber":51,"Velocity":58,"Duration":161725,"SoundDuration":161725,"Delta":83168094},{"NoteNumber":61,"Velocity":72,"Duration":161724,"SoundDuration":161724,"Delta":83329819},{"NoteNumber":49,"Velocity":65,"Duration":161724,"SoundDuration":161724,"Delta":83329819},{"NoteNumber":63,"Velocity":62,"Duration":161725,"SoundDuration":161725,"Delta":83491544},{"NoteNumber":51,"Velocity":56,"Duration":161725,"SoundDuration":161725,"Delta":83491544},{"NoteNumber":59,"Velocity":72,"Duration":161725,"SoundDuration":161725,"Delta":83653269},{"NoteNumber":47,"Velocity":70,"Duration":161725,"SoundDuration":161725,"Delta":83653269},{"NoteNumber":63,"Velocity":64,"Duration":171115,"SoundDuration":171115,"Delta":83814994},{"NoteNumber":51,"Velocity":54,"Duration":171115,"SoundDuration":171115,"Delta":83814994},{"NoteNumber":60,"Velocity":88,"Duration":166241,"SoundDuration":166241,"Delta":83986109},{"NoteNumber":48,"Velocity":77,"Duration":166241,"SoundDuration":166241,"Delta":83986109},{"NoteNumber":63,"Velocity":65,"Duration":161725,"SoundDuration":161725,"Delta":84152351},{"NoteNumber":51,"Velocity":57,"Duration":161725,"SoundDuration":161725,"Delta":84152351},{"NoteNumber":62,"Velocity":75,"Duration":161724,"SoundDuration":161724,"Delta":84314076},{"NoteNumber":50,"Velocity":63,"Duration":161724,"SoundDuration":161724,"Delta":84314076},{"NoteNumber":63,"Velocity":65,"Duration":161725,"SoundDuration":161725,"Delta":84475801},{"NoteNumber":51,"Velocity":58,"Duration":161725,"SoundDuration":161725,"Delta":84475801},{"NoteNumber":57,"Velocity":80,"Duration":161725,"SoundDuration":161725,"Delta":84637526},{"NoteNumber":45,"Velocity":71,"Duration":161725,"SoundDuration":161725,"Delta":84637526},{"NoteNumber":63,"Velocity":72,"Duration":171115,"SoundDuration":171115,"Delta":84799251},{"NoteNumber":51,"Velocity":65,"Duration":171115,"SoundDuration":171115,"Delta":84799251},{"NoteNumber":58,"Velocity":93,"Duration":342230,"SoundDuration":342230,"Delta":84970367},{"NoteNumber":46,"Velocity":82,"Duration":342230,"SoundDuration":342230,"Delta":84970367},{"NoteNumber":46,"Velocity":77,"Duration":85557,"SoundDuration":85557,"Delta":85312598},{"NoteNumber":51,"Velocity":77,"Duration":85557,"SoundDuration":85557,"Delta":85312598},{"NoteNumber":55,"Velocity":87,"Duration":85557,"SoundDuration":85557,"Delta":85312598},{"NoteNumber":63,"Velocity":81,"Duration":85557,"SoundDuration":85557,"Delta":85569271},{"NoteNumber":70,"Velocity":87,"Duration":245901,"SoundDuration":245901,"Delta":85654829},{"NoteNumber":67,"Velocity":84,"Duration":88736,"SoundDuration":88736,"Delta":85900730},{"NoteNumber":75,"Velocity":93,"Duration":84726,"SoundDuration":84726,"Delta":85989467},{"NoteNumber":51,"Velocity":77,"Duration":85557,"SoundDuration":85557,"Delta":86328373},{"NoteNumber":48,"Velocity":77,"Duration":85557,"SoundDuration":85557,"Delta":86328373},{"NoteNumber":54,"Velocity":87,"Duration":85557,"SoundDuration":85557,"Delta":86328373},{"NoteNumber":63,"Velocity":81,"Duration":85557,"SoundDuration":85557,"Delta":86585046},{"NoteNumber":69,"Velocity":87,"Duration":246575,"SoundDuration":246575,"Delta":86670604},{"NoteNumber":66,"Velocity":84,"Duration":88736,"SoundDuration":88736,"Delta":86917179},{"NoteNumber":75,"Velocity":93,"Duration":84726,"SoundDuration":84726,"Delta":87005916},{"NoteNumber":55,"Velocity":87,"Duration":85557,"SoundDuration":85557,"Delta":87344822},{"NoteNumber":46,"Velocity":77,"Duration":85557,"SoundDuration":85557,"Delta":87344822},{"NoteNumber":51,"Velocity":77,"Duration":85557,"SoundDuration":85557,"Delta":87344822},{"NoteNumber":63,"Velocity":81,"Duration":85557,"SoundDuration":85557,"Delta":87601495},{"NoteNumber":70,"Velocity":87,"Duration":245901,"SoundDuration":245901,"Delta":87687053},{"NoteNumber":67,"Velocity":84,"Duration":88736,"SoundDuration":88736,"Delta":87932954},{"NoteNumber":75,"Velocity":93,"Duration":84726,"SoundDuration":84726,"Delta":88021691},{"NoteNumber":57,"Velocity":87,"Duration":85557,"SoundDuration":85557,"Delta":88360597},{"NoteNumber":51,"Velocity":77,"Duration":85557,"SoundDuration":85557,"Delta":88360597},{"NoteNumber":54,"Velocity":77,"Duration":85557,"SoundDuration":85557,"Delta":88360597},{"NoteNumber":45,"Velocity":77,"Duration":85557,"SoundDuration":85557,"Delta":88360597},{"NoteNumber":72,"Velocity":81,"Duration":85557,"SoundDuration":85557,"Delta":88617270},{"NoteNumber":78,"Velocity":87,"Duration":247934,"SoundDuration":247934,"Delta":88702828},{"NoteNumber":75,"Velocity":84,"Duration":88736,"SoundDuration":88736,"Delta":88950762},{"NoteNumber":79,"Velocity":95,"Duration":508358,"SoundDuration":508358,"Delta":89039499},{"NoteNumber":46,"Velocity":77,"Duration":84726,"SoundDuration":84726,"Delta":89378405},{"NoteNumber":58,"Velocity":87,"Duration":84726,"SoundDuration":84726,"Delta":89378405},{"NoteNumber":55,"Velocity":77,"Duration":84726,"SoundDuration":84726,"Delta":89378405},{"NoteNumber":51,"Velocity":77,"Duration":84726,"SoundDuration":84726,"Delta":89378405},{"NoteNumber":75,"Velocity":85,"Duration":169453,"SoundDuration":169453,"Delta":89547858},{"NoteNumber":75,"Velocity":93,"Duration":166241,"SoundDuration":166241,"Delta":89717311},{"NoteNumber":70,"Velocity":79,"Duration":124681,"SoundDuration":124681,"Delta":89883553},{"NoteNumber":70,"Velocity":88,"Duration":166241,"SoundDuration":166241,"Delta":90049795},{"NoteNumber":67,"Velocity":78,"Duration":124681,"SoundDuration":124681,"Delta":90216037},{"NoteNumber":67,"Velocity":85,"Duration":163934,"SoundDuration":163934,"Delta":90382279},{"NoteNumber":63,"Velocity":77,"Duration":125873,"SoundDuration":125873,"Delta":90546213},{"NoteNumber":63,"Velocity":81,"Duration":163487,"SoundDuration":163487,"Delta":90714045},{"NoteNumber":58,"Velocity":77,"Duration":126276,"SoundDuration":126276,"Delta":90877533},{"NoteNumber":58,"Velocity":81,"Duration":163934,"SoundDuration":163934,"Delta":91045902},{"NoteNumber":55,"Velocity":77,"Duration":126682,"SoundDuration":126682,"Delta":91209836},{"NoteNumber":55,"Velocity":82,"Duration":165718,"SoundDuration":165718,"Delta":91378746},{"NoteNumber":51,"Velocity":77,"Duration":127920,"SoundDuration":127920,"Delta":91544464},{"NoteNumber":51,"Velocity":83,"Duration":166241,"SoundDuration":166241,"Delta":91715025},{"NoteNumber":46,"Velocity":77,"Duration":148114,"SoundDuration":148114,"Delta":91881267},{"NoteNumber":46,"Velocity":92,"Duration":1064934,"SoundDuration":1064934,"Delta":92078753},{"NoteNumber":34,"Velocity":78,"Duration":1064934,"SoundDuration":1064934,"Delta":92078753},{"NoteNumber":58,"Velocity":66,"Duration":359798,"SoundDuration":359798,"Delta":92783889},{"NoteNumber":62,"Velocity":78,"Duration":359798,"SoundDuration":359798,"Delta":92783889},{"NoteNumber":56,"Velocity":70,"Duration":359798,"SoundDuration":359798,"Delta":92783889},{"NoteNumber":53,"Velocity":59,"Duration":359798,"SoundDuration":359798,"Delta":92783889},{"NoteNumber":58,"Velocity":70,"Duration":359799,"SoundDuration":359799,"Delta":93143688},{"NoteNumber":63,"Velocity":83,"Duration":359799,"SoundDuration":359799,"Delta":93143688},{"NoteNumber":55,"Velocity":79,"Duration":359799,"SoundDuration":359799,"Delta":93143688},{"NoteNumber":39,"Velocity":67,"Duration":359799,"SoundDuration":359799,"Delta":93143688},{"NoteNumber":46,"Velocity":51,"Duration":1748936,"SoundDuration":1748936,"Delta":93503487},{"NoteNumber":45,"Velocity":51,"Duration":346741,"SoundDuration":346741,"Delta":93850228},{"NoteNumber":44,"Velocity":51,"Duration":356145,"SoundDuration":356145,"Delta":94196969},{"NoteNumber":70,"Velocity":53,"Duration":346740,"SoundDuration":346740,"Delta":94553115},{"NoteNumber":65,"Velocity":42,"Duration":346740,"SoundDuration":346740,"Delta":94553115},{"NoteNumber":68,"Velocity":42,"Duration":346740,"SoundDuration":346740,"Delta":94553115},{"NoteNumber":62,"Velocity":42,"Duration":346740,"SoundDuration":346740,"Delta":94553115},{"NoteNumber":43,"Velocity":49,"Duration":346740,"SoundDuration":346740,"Delta":94553115},{"NoteNumber":62,"Velocity":38,"Duration":352568,"SoundDuration":352568,"Delta":94899856},{"NoteNumber":65,"Velocity":38,"Duration":352568,"SoundDuration":352568,"Delta":94899856},{"NoteNumber":68,"Velocity":38,"Duration":352568,"SoundDuration":352568,"Delta":94899856},{"NoteNumber":70,"Velocity":48,"Duration":352568,"SoundDuration":352568,"Delta":94899856},{"NoteNumber":41,"Velocity":49,"Duration":352568,"SoundDuration":352568,"Delta":94899856},{"NoteNumber":63,"Velocity":42,"Duration":695774,"SoundDuration":695774,"Delta":95252424},{"NoteNumber":67,"Velocity":42,"Duration":695774,"SoundDuration":695774,"Delta":95252424},{"NoteNumber":72,"Velocity":53,"Duration":347887,"SoundDuration":347887,"Delta":95252424},{"NoteNumber":39,"Velocity":51,"Duration":347887,"SoundDuration":347887,"Delta":95252424},{"NoteNumber":70,"Velocity":49,"Duration":347887,"SoundDuration":347887,"Delta":95600311},{"NoteNumber":43,"Velocity":47,"Duration":347887,"SoundDuration":347887,"Delta":95600311},{"NoteNumber":46,"Velocity":47,"Duration":347887,"SoundDuration":347887,"Delta":95948198},{"NoteNumber":34,"Velocity":51,"Duration":359798,"SoundDuration":359798,"Delta":96296085},{"NoteNumber":65,"Velocity":42,"Duration":346740,"SoundDuration":346740,"Delta":96655884},{"NoteNumber":68,"Velocity":42,"Duration":346740,"SoundDuration":346740,"Delta":96655884},{"NoteNumber":74,"Velocity":53,"Duration":346740,"SoundDuration":346740,"Delta":96655884},{"NoteNumber":41,"Velocity":48,"Duration":346740,"SoundDuration":346740,"Delta":96655884},{"NoteNumber":65,"Velocity":38,"Duration":352568,"SoundDuration":352568,"Delta":97002625},{"NoteNumber":68,"Velocity":38,"Duration":352568,"SoundDuration":352568,"Delta":97002625},{"NoteNumber":74,"Velocity":48,"Duration":352568,"SoundDuration":352568,"Delta":97002625},{"NoteNumber":46,"Velocity":48,"Duration":352568,"SoundDuration":352568,"Delta":97002625},{"NoteNumber":67,"Velocity":42,"Duration":693481,"SoundDuration":693481,"Delta":97355193},{"NoteNumber":70,"Velocity":42,"Duration":693481,"SoundDuration":693481,"Delta":97355193},{"NoteNumber":77,"Velocity":53,"Duration":346740,"SoundDuration":346740,"Delta":97355193},{"NoteNumber":39,"Velocity":67,"Duration":346740,"SoundDuration":346740,"Delta":97355193},{"NoteNumber":75,"Velocity":49,"Duration":346740,"SoundDuration":346740,"Delta":97701934},{"NoteNumber":46,"Velocity":51,"Duration":1748936,"SoundDuration":1748936,"Delta":97701934},{"NoteNumber":45,"Velocity":51,"Duration":346741,"SoundDuration":346741,"Delta":98048675},{"NoteNumber":44,"Velocity":51,"Duration":356145,"SoundDuration":356145,"Delta":98395416},{"NoteNumber":62,"Velocity":42,"Duration":346740,"SoundDuration":346740,"Delta":98751562},{"NoteNumber":65,"Velocity":42,"Duration":346740,"SoundDuration":346740,"Delta":98751562},{"NoteNumber":68,"Velocity":42,"Duration":346740,"SoundDuration":346740,"Delta":98751562},{"NoteNumber":70,"Velocity":53,"Duration":346740,"SoundDuration":346740,"Delta":98751562},{"NoteNumber":43,"Velocity":49,"Duration":346740,"SoundDuration":346740,"Delta":98751562},{"NoteNumber":70,"Velocity":48,"Duration":352568,"SoundDuration":352568,"Delta":99098303},{"NoteNumber":65,"Velocity":38,"Duration":352568,"SoundDuration":352568,"Delta":99098303},{"NoteNumber":68,"Velocity":38,"Duration":352568,"SoundDuration":352568,"Delta":99098303},{"NoteNumber":62,"Velocity":38,"Duration":352568,"SoundDuration":352568,"Delta":99098303},{"NoteNumber":41,"Velocity":49,"Duration":352568,"SoundDuration":352568,"Delta":99098303},{"NoteNumber":63,"Velocity":42,"Duration":695774,"SoundDuration":695774,"Delta":99450871},{"NoteNumber":67,"Velocity":42,"Duration":695774,"SoundDuration":695774,"Delta":99450871},{"NoteNumber":72,"Velocity":53,"Duration":347887,"SoundDuration":347887,"Delta":99450871},{"NoteNumber":39,"Velocity":51,"Duration":347887,"SoundDuration":347887,"Delta":99450871},{"NoteNumber":70,"Velocity":49,"Duration":347887,"SoundDuration":347887,"Delta":99798758},{"NoteNumber":43,"Velocity":47,"Duration":347887,"SoundDuration":347887,"Delta":99798758},{"NoteNumber":46,"Velocity":47,"Duration":347887,"SoundDuration":347887,"Delta":100146645},{"NoteNumber":34,"Velocity":51,"Duration":359798,"SoundDuration":359798,"Delta":100494532},{"NoteNumber":53,"Velocity":42,"Duration":346740,"SoundDuration":346740,"Delta":100854331},{"NoteNumber":56,"Velocity":42,"Duration":346740,"SoundDuration":346740,"Delta":100854331},{"NoteNumber":62,"Velocity":53,"Duration":346740,"SoundDuration":346740,"Delta":100854331},{"NoteNumber":41,"Velocity":48,"Duration":346740,"SoundDuration":346740,"Delta":100854331},{"NoteNumber":53,"Velocity":38,"Duration":352568,"SoundDuration":352568,"Delta":101201072},{"NoteNumber":56,"Velocity":38,"Duration":352568,"SoundDuration":352568,"Delta":101201072},{"NoteNumber":62,"Velocity":48,"Duration":352568,"SoundDuration":352568,"Delta":101201072},{"NoteNumber":46,"Velocity":48,"Duration":352568,"SoundDuration":352568,"Delta":101201072},{"NoteNumber":55,"Velocity":42,"Duration":693482,"SoundDuration":693482,"Delta":101553640},{"NoteNumber":58,"Velocity":42,"Duration":693482,"SoundDuration":693482,"Delta":101553640},{"NoteNumber":65,"Velocity":53,"Duration":346740,"SoundDuration":346740,"Delta":101553640},{"NoteNumber":39,"Velocity":51,"Duration":346740,"SoundDuration":346740,"Delta":101553640},{"NoteNumber":63,"Velocity":49,"Duration":346741,"SoundDuration":346741,"Delta":101900381},{"NoteNumber":43,"Velocity":47,"Duration":346741,"SoundDuration":346741,"Delta":101900381},{"NoteNumber":46,"Velocity":47,"Duration":346740,"SoundDuration":346740,"Delta":102247122},{"NoteNumber":34,"Velocity":51,"Duration":359798,"SoundDuration":359798,"Delta":102593863},{"NoteNumber":53,"Velocity":42,"Duration":346740,"SoundDuration":346740,"Delta":102953662},{"NoteNumber":56,"Velocity":42,"Duration":346740,"SoundDuration":346740,"Delta":102953662},{"NoteNumber":62,"Velocity":53,"Duration":346740,"SoundDuration":346740,"Delta":102953662},{"NoteNumber":41,"Velocity":48,"Duration":346740,"SoundDuration":346740,"Delta":102953662},{"NoteNumber":53,"Velocity":38,"Duration":375235,"SoundDuration":375235,"Delta":103300403},{"NoteNumber":56,"Velocity":38,"Duration":375235,"SoundDuration":375235,"Delta":103300403},{"NoteNumber":62,"Velocity":48,"Duration":375235,"SoundDuration":375235,"Delta":103300403},{"NoteNumber":46,"Velocity":48,"Duration":375235,"SoundDuration":375235,"Delta":103300403},{"NoteNumber":56,"Velocity":42,"Duration":1210791,"SoundDuration":1210791,"Delta":103675638},{"NoteNumber":62,"Velocity":42,"Duration":1210791,"SoundDuration":1210791,"Delta":103675638},{"NoteNumber":65,"Velocity":53,"Duration":1210791,"SoundDuration":1210791,"Delta":103675638},{"NoteNumber":39,"Velocity":51,"Duration":361053,"SoundDuration":361053,"Delta":103675638},{"NoteNumber":43,"Velocity":47,"Duration":384837,"SoundDuration":384837,"Delta":104036692},{"NoteNumber":46,"Velocity":47,"Duration":464900,"SoundDuration":464900,"Delta":104421529},{"NoteNumber":58,"Velocity":44,"Duration":464900,"SoundDuration":464900,"Delta":104886429},{"NoteNumber":63,"Velocity":49,"Duration":464900,"SoundDuration":464900,"Delta":104886429},{"NoteNumber":51,"Velocity":40,"Duration":464900,"SoundDuration":464900,"Delta":104886429},{"NoteNumber":55,"Velocity":44,"Duration":464900,"SoundDuration":464900,"Delta":104886429},{"NoteNumber":63,"Velocity":69,"Duration":490945,"SoundDuration":490945,"Delta":106281129},{"NoteNumber":67,"Velocity":69,"Duration":490945,"SoundDuration":490945,"Delta":106281129},{"NoteNumber":72,"Velocity":82,"Duration":490945,"SoundDuration":490945,"Delta":106281129},{"NoteNumber":60,"Velocity":70,"Duration":490945,"SoundDuration":490945,"Delta":106281129},{"NoteNumber":55,"Velocity":59,"Duration":490945,"SoundDuration":490945,"Delta":106281129},{"NoteNumber":51,"Velocity":59,"Duration":490945,"SoundDuration":490945,"Delta":106281129},{"NoteNumber":48,"Velocity":59,"Duration":490945,"SoundDuration":490945,"Delta":106281129},{"NoteNumber":67,"Velocity":70,"Duration":81824,"SoundDuration":81824,"Delta":106853898},{"NoteNumber":75,"Velocity":78,"Duration":238726,"SoundDuration":238726,"Delta":106935723},{"NoteNumber":72,"Velocity":70,"Duration":79575,"SoundDuration":79575,"Delta":107174449},{"NoteNumber":79,"Velocity":79,"Duration":238726,"SoundDuration":238726,"Delta":107254025},{"NoteNumber":75,"Velocity":70,"Duration":79575,"SoundDuration":79575,"Delta":107492751},{"NoteNumber":84,"Velocity":79,"Duration":238726,"SoundDuration":238726,"Delta":107572327},{"NoteNumber":79,"Velocity":70,"Duration":88438,"SoundDuration":88438,"Delta":107811053},{"NoteNumber":87,"Velocity":84,"Duration":81824,"SoundDuration":81824,"Delta":107899491},{"NoteNumber":87,"Velocity":84,"Duration":81824,"SoundDuration":81824,"Delta":108226788},{"NoteNumber":67,"Velocity":39,"Duration":166768,"SoundDuration":166768,"Delta":108905991},{"NoteNumber":72,"Velocity":46,"Duration":166768,"SoundDuration":166768,"Delta":108905991},{"NoteNumber":60,"Velocity":34,"Duration":166768,"SoundDuration":166768,"Delta":108905991},{"NoteNumber":63,"Velocity":41,"Duration":166768,"SoundDuration":166768,"Delta":108905991},{"NoteNumber":67,"Velocity":42,"Duration":676884,"SoundDuration":676884,"Delta":109239528},{"NoteNumber":72,"Velocity":50,"Duration":676884,"SoundDuration":676884,"Delta":109239528},{"NoteNumber":63,"Velocity":41,"Duration":676884,"SoundDuration":676884,"Delta":109239528},{"NoteNumber":60,"Velocity":34,"Duration":676884,"SoundDuration":676884,"Delta":109239528},{"NoteNumber":67,"Velocity":39,"Duration":392661,"SoundDuration":392661,"Delta":109916413},{"NoteNumber":62,"Velocity":32,"Duration":392661,"SoundDuration":392661,"Delta":109916413},{"NoteNumber":65,"Velocity":38,"Duration":392661,"SoundDuration":392661,"Delta":109916413},{"NoteNumber":71,"Velocity":46,"Duration":392661,"SoundDuration":392661,"Delta":109924768},{"NoteNumber":68,"Velocity":69,"Duration":490945,"SoundDuration":490945,"Delta":110317429},{"NoteNumber":65,"Velocity":69,"Duration":490945,"SoundDuration":490945,"Delta":110317429},{"NoteNumber":71,"Velocity":82,"Duration":490945,"SoundDuration":490945,"Delta":110317429},{"NoteNumber":53,"Velocity":59,"Duration":490945,"SoundDuration":490945,"Delta":110317429},{"NoteNumber":59,"Velocity":59,"Duration":490945,"SoundDuration":490945,"Delta":110317429},{"NoteNumber":56,"Velocity":59,"Duration":490945,"SoundDuration":490945,"Delta":110317429},{"NoteNumber":62,"Velocity":70,"Duration":490945,"SoundDuration":490945,"Delta":110317429},{"NoteNumber":50,"Velocity":59,"Duration":490945,"SoundDuration":490945,"Delta":110317429},{"NoteNumber":71,"Velocity":70,"Duration":81824,"SoundDuration":81824,"Delta":110890199},{"NoteNumber":77,"Velocity":78,"Duration":238726,"SoundDuration":238726,"Delta":110972023},{"NoteNumber":74,"Velocity":70,"Duration":79575,"SoundDuration":79575,"Delta":111210750},{"NoteNumber":83,"Velocity":79,"Duration":238726,"SoundDuration":238726,"Delta":111290325},{"NoteNumber":77,"Velocity":70,"Duration":79575,"SoundDuration":79575,"Delta":111529052},{"NoteNumber":86,"Velocity":79,"Duration":238726,"SoundDuration":238726,"Delta":111608627},{"NoteNumber":83,"Velocity":70,"Duration":88438,"SoundDuration":88438,"Delta":111847354},{"NoteNumber":89,"Velocity":84,"Duration":81824,"SoundDuration":81824,"Delta":111935792},{"NoteNumber":89,"Velocity":84,"Duration":81824,"SoundDuration":81824,"Delta":112263089},{"NoteNumber":71,"Velocity":39,"Duration":166768,"SoundDuration":166768,"Delta":112932617},{"NoteNumber":74,"Velocity":46,"Duration":166768,"SoundDuration":166768,"Delta":112932617},{"NoteNumber":62,"Velocity":34,"Duration":166768,"SoundDuration":166768,"Delta":112932617},{"NoteNumber":68,"Velocity":41,"Duration":166768,"SoundDuration":166768,"Delta":112932617},{"NoteNumber":65,"Velocity":34,"Duration":166768,"SoundDuration":166768,"Delta":112932617},{"NoteNumber":71,"Velocity":42,"Duration":676884,"SoundDuration":676884,"Delta":113266154},{"NoteNumber":74,"Velocity":50,"Duration":676884,"SoundDuration":676884,"Delta":113266154},{"NoteNumber":68,"Velocity":41,"Duration":676884,"SoundDuration":676884,"Delta":113266154},{"NoteNumber":65,"Velocity":34,"Duration":676884,"SoundDuration":676884,"Delta":113266154},{"NoteNumber":62,"Velocity":34,"Duration":676884,"SoundDuration":676884,"Delta":113266154},{"NoteNumber":72,"Velocity":46,"Duration":333902,"SoundDuration":333902,"Delta":113943039},{"NoteNumber":67,"Velocity":38,"Duration":430470,"SoundDuration":430470,"Delta":113943039},{"NoteNumber":63,"Velocity":32,"Duration":430470,"SoundDuration":430470,"Delta":113943039},{"NoteNumber":72,"Velocity":45,"Duration":48284,"SoundDuration":48284,"Delta":114276941},{"NoteNumber":75,"Velocity":48,"Duration":48284,"SoundDuration":48284,"Delta":114325226},{"NoteNumber":79,"Velocity":53,"Duration":494017,"SoundDuration":494017,"Delta":114373510},{"NoteNumber":77,"Velocity":41,"Duration":164672,"SoundDuration":164672,"Delta":114867527},{"NoteNumber":75,"Velocity":51,"Duration":351391,"SoundDuration":351391,"Delta":115032200},{"NoteNumber":60,"Velocity":35,"Duration":351391,"SoundDuration":351391,"Delta":115032200},{"NoteNumber":55,"Velocity":29,"Duration":351391,"SoundDuration":351391,"Delta":115032200},{"NoteNumber":51,"Velocity":29,"Duration":351391,"SoundDuration":351391,"Delta":115032200},{"NoteNumber":74,"Velocity":47,"Duration":675638,"SoundDuration":675638,"Delta":115383591},{"NoteNumber":53,"Velocity":33,"Duration":675638,"SoundDuration":675638,"Delta":115383591},{"NoteNumber":56,"Velocity":33,"Duration":675638,"SoundDuration":675638,"Delta":115383591},{"NoteNumber":59,"Velocity":39,"Duration":675638,"SoundDuration":675638,"Delta":115383591},{"NoteNumber":72,"Velocity":39,"Duration":305415,"SoundDuration":305415,"Delta":116059229},{"NoteNumber":60,"Velocity":34,"Duration":401984,"SoundDuration":401984,"Delta":116059229},{"NoteNumber":55,"Velocity":28,"Duration":401984,"SoundDuration":401984,"Delta":116059229},{"NoteNumber":51,"Velocity":28,"Duration":401984,"SoundDuration":401984,"Delta":116059229},{"NoteNumber":67,"Velocity":27,"Duration":32189,"SoundDuration":32189,"Delta":116364645},{"NoteNumber":72,"Velocity":45,"Duration":32189,"SoundDuration":32189,"Delta":116396834},{"NoteNumber":75,"Velocity":48,"Duration":32189,"SoundDuration":32189,"Delta":116429024},{"NoteNumber":79,"Velocity":53,"Duration":494017,"SoundDuration":494017,"Delta":116461213},{"NoteNumber":77,"Velocity":41,"Duration":164672,"SoundDuration":164672,"Delta":116955231},{"NoteNumber":72,"Velocity":43,"Duration":351391,"SoundDuration":351391,"Delta":117119903},{"NoteNumber":75,"Velocity":51,"Duration":351391,"SoundDuration":351391,"Delta":117119903},{"NoteNumber":63,"Velocity":29,"Duration":351391,"SoundDuration":351391,"Delta":117119903},{"NoteNumber":67,"Velocity":35,"Duration":351391,"SoundDuration":351391,"Delta":117119903},{"NoteNumber":71,"Velocity":39,"Duration":675638,"SoundDuration":675638,"Delta":117471294},{"NoteNumber":74,"Velocity":47,"Duration":675638,"SoundDuration":675638,"Delta":117471294},{"NoteNumber":68,"Velocity":39,"Duration":675638,"SoundDuration":675638,"Delta":117471294},{"NoteNumber":65,"Velocity":33,"Duration":675638,"SoundDuration":675638,"Delta":117471294},{"NoteNumber":72,"Velocity":39,"Duration":253364,"SoundDuration":253364,"Delta":118146932},{"NoteNumber":63,"Velocity":28,"Duration":349932,"SoundDuration":349932,"Delta":118146932},{"NoteNumber":67,"Velocity":34,"Duration":285553,"SoundDuration":285553,"Delta":118146932},{"NoteNumber":67,"Velocity":60,"Duration":96568,"SoundDuration":96568,"Delta":118400296},{"NoteNumber":72,"Velocity":63,"Duration":32189,"SoundDuration":32189,"Delta":118432486},{"NoteNumber":75,"Velocity":69,"Duration":32189,"SoundDuration":32189,"Delta":118464675},{"NoteNumber":67,"Velocity":69,"Duration":487804,"SoundDuration":487804,"Delta":118496865},{"NoteNumber":79,"Velocity":81,"Duration":487804,"SoundDuration":487804,"Delta":118496865},{"NoteNumber":77,"Velocity":61,"Duration":162601,"SoundDuration":162601,"Delta":118984669},{"NoteNumber":65,"Velocity":51,"Duration":162601,"SoundDuration":162601,"Delta":118984669},{"NoteNumber":75,"Velocity":73,"Duration":675271,"SoundDuration":675271,"Delta":119147271},{"NoteNumber":63,"Velocity":62,"Duration":675271,"SoundDuration":675271,"Delta":119147271},{"NoteNumber":55,"Velocity":39,"Duration":345601,"SoundDuration":345601,"Delta":119147271},{"NoteNumber":60,"Velocity":47,"Duration":345601,"SoundDuration":345601,"Delta":119147271},{"NoteNumber":51,"Velocity":39,"Duration":345601,"SoundDuration":345601,"Delta":119147271},{"NoteNumber":59,"Velocity":53,"Duration":669689,"SoundDuration":669689,"Delta":119492873},{"NoteNumber":53,"Velocity":45,"Duration":669689,"SoundDuration":669689,"Delta":119492873},{"NoteNumber":56,"Velocity":45,"Duration":669689,"SoundDuration":669689,"Delta":119492873},{"NoteNumber":74,"Velocity":72,"Duration":85004,"SoundDuration":85004,"Delta":119822543},{"NoteNumber":62,"Velocity":61,"Duration":85004,"SoundDuration":85004,"Delta":119822543},{"NoteNumber":72,"Velocity":75,"Duration":671900,"SoundDuration":671900,"Delta":120162563},{"NoteNumber":60,"Velocity":63,"Duration":671900,"SoundDuration":671900,"Delta":120162563},{"NoteNumber":55,"Velocity":46,"Duration":329669,"SoundDuration":329669,"Delta":120162563},{"NoteNumber":51,"Velocity":39,"Duration":329669,"SoundDuration":329669,"Delta":120162563},{"NoteNumber":50,"Velocity":46,"Duration":672809,"SoundDuration":672809,"Delta":120492233},{"NoteNumber":53,"Velocity":56,"Duration":672809,"SoundDuration":672809,"Delta":120492233},{"NoteNumber":59,"Velocity":63,"Duration":82644,"SoundDuration":82644,"Delta":120834464},{"NoteNumber":71,"Velocity":75,"Duration":82644,"SoundDuration":82644,"Delta":120834464},{"NoteNumber":56,"Velocity":62,"Duration":699354,"SoundDuration":699354,"Delta":121165043},{"NoteNumber":68,"Velocity":74,"Duration":699354,"SoundDuration":699354,"Delta":121165043},{"NoteNumber":51,"Velocity":49,"Duration":353752,"SoundDuration":353752,"Delta":121165043},{"NoteNumber":48,"Velocity":41,"Duration":353752,"SoundDuration":353752,"Delta":121165043},{"NoteNumber":50,"Velocity":47,"Duration":345601,"SoundDuration":345601,"Delta":121518796},{"NoteNumber":47,"Velocity":56,"Duration":345601,"SoundDuration":345601,"Delta":121518796},{"NoteNumber":55,"Velocity":58,"Duration":175695,"SoundDuration":175695,"Delta":121864398},{"NoteNumber":67,"Velocity":68,"Duration":175695,"SoundDuration":175695,"Delta":121864398},{"NoteNumber":59,"Velocity":42,"Duration":114077,"SoundDuration":114077,"Delta":122909411},{"NoteNumber":62,"Velocity":35,"Duration":114076,"SoundDuration":114076,"Delta":123023488},{"NoteNumber":65,"Velocity":35,"Duration":114072,"SoundDuration":114072,"Delta":123137565},{"NoteNumber":68,"Velocity":43,"Duration":114900,"SoundDuration":114900,"Delta":123251637},{"NoteNumber":56,"Velocity":34,"Duration":354234,"SoundDuration":354234,"Delta":123251637},{"NoteNumber":53,"Velocity":28,"Duration":354234,"SoundDuration":354234,"Delta":123251637},{"NoteNumber":50,"Velocity":28,"Duration":354234,"SoundDuration":354234,"Delta":123251637},{"NoteNumber":47,"Velocity":28,"Duration":354234,"SoundDuration":354234,"Delta":123251637},{"NoteNumber":67,"Velocity":36,"Duration":118023,"SoundDuration":118023,"Delta":123366538},{"NoteNumber":65,"Velocity":36,"Duration":121309,"SoundDuration":121309,"Delta":123484562},{"NoteNumber":63,"Velocity":43,"Duration":85280,"SoundDuration":85280,"Delta":123605872},{"NoteNumber":55,"Velocity":34,"Duration":85280,"SoundDuration":85280,"Delta":123605872},{"NoteNumber":51,"Velocity":28,"Duration":85280,"SoundDuration":85280,"Delta":123605872},{"NoteNumber":48,"Velocity":28,"Duration":85280,"SoundDuration":85280,"Delta":123605872},{"NoteNumber":53,"Velocity":42,"Duration":114076,"SoundDuration":114076,"Delta":124970360},{"NoteNumber":56,"Velocity":35,"Duration":114077,"SoundDuration":114077,"Delta":125084437},{"NoteNumber":62,"Velocity":35,"Duration":114072,"SoundDuration":114072,"Delta":125198514},{"NoteNumber":65,"Velocity":43,"Duration":114900,"SoundDuration":114900,"Delta":125312586},{"NoteNumber":50,"Velocity":34,"Duration":354234,"SoundDuration":354234,"Delta":125312586},{"NoteNumber":44,"Velocity":28,"Duration":354234,"SoundDuration":354234,"Delta":125312586},{"NoteNumber":41,"Velocity":28,"Duration":354234,"SoundDuration":354234,"Delta":125312586},{"NoteNumber":63,"Velocity":36,"Duration":118023,"SoundDuration":118023,"Delta":125427487},{"NoteNumber":62,"Velocity":36,"Duration":121309,"SoundDuration":121309,"Delta":125545511},{"NoteNumber":60,"Velocity":43,"Duration":85280,"SoundDuration":85280,"Delta":125666820},{"NoteNumber":48,"Velocity":28,"Duration":85280,"SoundDuration":85280,"Delta":125666820},{"NoteNumber":43,"Velocity":28,"Duration":85280,"SoundDuration":85280,"Delta":125666820},{"NoteNumber":51,"Velocity":34,"Duration":85280,"SoundDuration":85280,"Delta":125666820},{"NoteNumber":55,"Velocity":66,"Duration":114076,"SoundDuration":114076,"Delta":127071757},{"NoteNumber":59,"Velocity":69,"Duration":114077,"SoundDuration":114077,"Delta":127185834},{"NoteNumber":62,"Velocity":72,"Duration":114072,"SoundDuration":114072,"Delta":127299911},{"NoteNumber":65,"Velocity":75,"Duration":114900,"SoundDuration":114900,"Delta":127413984},{"NoteNumber":43,"Velocity":73,"Duration":173510,"SoundDuration":173510,"Delta":127413984},{"NoteNumber":31,"Velocity":73,"Duration":173510,"SoundDuration":173510,"Delta":127413984},{"NoteNumber":62,"Velocity":67,"Duration":118023,"SoundDuration":118023,"Delta":127528884},{"NoteNumber":59,"Velocity":67,"Duration":121309,"SoundDuration":121309,"Delta":127646908},{"NoteNumber":55,"Velocity":79,"Duration":490945,"SoundDuration":490945,"Delta":127768218},{"NoteNumber":51,"Velocity":79,"Duration":490945,"SoundDuration":490945,"Delta":127768218},{"NoteNumber":60,"Velocity":94,"Duration":490945,"SoundDuration":490945,"Delta":127768218},{"NoteNumber":43,"Velocity":67,"Duration":490945,"SoundDuration":490945,"Delta":127768218},{"NoteNumber":36,"Velocity":67,"Duration":490945,"SoundDuration":490945,"Delta":127768218},{"NoteNumber":48,"Velocity":80,"Duration":490945,"SoundDuration":490945,"Delta":127768218},{"NoteNumber":39,"Velocity":67,"Duration":490945,"SoundDuration":490945,"Delta":127768218},{"NoteNumber":60,"Velocity":70,"Duration":81824,"SoundDuration":81824,"Delta":128340988},{"NoteNumber":67,"Velocity":78,"Duration":237467,"SoundDuration":237467,"Delta":128422812},{"NoteNumber":63,"Velocity":70,"Duration":79155,"SoundDuration":79155,"Delta":128660279},{"NoteNumber":72,"Velocity":85,"Duration":235602,"SoundDuration":235602,"Delta":128739435},{"NoteNumber":67,"Velocity":72,"Duration":78533,"SoundDuration":78533,"Delta":128975037},{"NoteNumber":75,"Velocity":80,"Duration":235602,"SoundDuration":235602,"Delta":129053571},{"NoteNumber":72,"Velocity":83,"Duration":88438,"SoundDuration":88438,"Delta":129289173},{"NoteNumber":79,"Velocity":96,"Duration":81824,"SoundDuration":81824,"Delta":129377611},{"NoteNumber":67,"Velocity":81,"Duration":81824,"SoundDuration":81824,"Delta":129377611},{"NoteNumber":48,"Velocity":58,"Duration":81824,"SoundDuration":81824,"Delta":129377611},{"NoteNumber":55,"Velocity":69,"Duration":81824,"SoundDuration":81824,"Delta":129377611},{"NoteNumber":51,"Velocity":58,"Duration":81824,"SoundDuration":81824,"Delta":129377611},{"NoteNumber":79,"Velocity":96,"Duration":81824,"SoundDuration":81824,"Delta":129704908},{"NoteNumber":67,"Velocity":81,"Duration":81824,"SoundDuration":81824,"Delta":129704908},{"NoteNumber":47,"Velocity":58,"Duration":81824,"SoundDuration":81824,"Delta":129704908},{"NoteNumber":50,"Velocity":58,"Duration":81824,"SoundDuration":81824,"Delta":129704908},{"NoteNumber":55,"Velocity":69,"Duration":81824,"SoundDuration":81824,"Delta":129704908},{"NoteNumber":59,"Velocity":70,"Duration":81824,"SoundDuration":81824,"Delta":130277678},{"NoteNumber":67,"Velocity":78,"Duration":238094,"SoundDuration":238094,"Delta":130359502},{"NoteNumber":62,"Velocity":70,"Duration":79365,"SoundDuration":79365,"Delta":130597597},{"NoteNumber":71,"Velocity":85,"Duration":236220,"SoundDuration":236220,"Delta":130676962},{"NoteNumber":67,"Velocity":74,"Duration":78740,"SoundDuration":78740,"Delta":130913183},{"NoteNumber":74,"Velocity":86,"Duration":236220,"SoundDuration":236220,"Delta":130991923},{"NoteNumber":71,"Velocity":83,"Duration":88438,"SoundDuration":88438,"Delta":131228144},{"NoteNumber":79,"Velocity":96,"Duration":81824,"SoundDuration":81824,"Delta":131316582},{"NoteNumber":67,"Velocity":81,"Duration":81824,"SoundDuration":81824,"Delta":131316582},{"NoteNumber":55,"Velocity":69,"Duration":81824,"SoundDuration":81824,"Delta":131316582},{"NoteNumber":47,"Velocity":58,"Duration":81824,"SoundDuration":81824,"Delta":131316582},{"NoteNumber":50,"Velocity":58,"Duration":81824,"SoundDuration":81824,"Delta":131316582},{"NoteNumber":79,"Velocity":96,"Duration":81824,"SoundDuration":81824,"Delta":131643879},{"NoteNumber":67,"Velocity":81,"Duration":81824,"SoundDuration":81824,"Delta":131643879},{"NoteNumber":55,"Velocity":69,"Duration":81824,"SoundDuration":81824,"Delta":131643879},{"NoteNumber":48,"Velocity":58,"Duration":81824,"SoundDuration":81824,"Delta":131643879},{"NoteNumber":51,"Velocity":58,"Duration":81824,"SoundDuration":81824,"Delta":131643879},{"NoteNumber":63,"Velocity":70,"Duration":81824,"SoundDuration":81824,"Delta":132216649},{"NoteNumber":67,"Velocity":78,"Duration":238726,"SoundDuration":238726,"Delta":132298473},{"NoteNumber":63,"Velocity":70,"Duration":79575,"SoundDuration":79575,"Delta":132537200},{"NoteNumber":72,"Velocity":85,"Duration":236220,"SoundDuration":236220,"Delta":132616775},{"NoteNumber":67,"Velocity":74,"Duration":78740,"SoundDuration":78740,"Delta":132852996},{"NoteNumber":75,"Velocity":86,"Duration":236220,"SoundDuration":236220,"Delta":132931736},{"NoteNumber":72,"Velocity":83,"Duration":88438,"SoundDuration":88438,"Delta":133167957},{"NoteNumber":79,"Velocity":90,"Duration":245472,"SoundDuration":245472,"Delta":133256395},{"NoteNumber":51,"Velocity":58,"Duration":81824,"SoundDuration":81824,"Delta":133256395},{"NoteNumber":60,"Velocity":69,"Duration":81824,"SoundDuration":81824,"Delta":133256395},{"NoteNumber":55,"Velocity":58,"Duration":81824,"SoundDuration":81824,"Delta":133256395},{"NoteNumber":75,"Velocity":83,"Duration":81824,"SoundDuration":81824,"Delta":133501868},{"NoteNumber":74,"Velocity":96,"Duration":81067,"SoundDuration":81067,"Delta":133583692},{"NoteNumber":56,"Velocity":58,"Duration":81067,"SoundDuration":81067,"Delta":133583692},{"NoteNumber":62,"Velocity":69,"Duration":81067,"SoundDuration":81067,"Delta":133583692},{"NoteNumber":53,"Velocity":58,"Duration":81067,"SoundDuration":81067,"Delta":133583692},{"NoteNumber":89,"Velocity":96,"Duration":83384,"SoundDuration":83384,"Delta":133907964},{"NoteNumber":71,"Velocity":96,"Duration":81318,"SoundDuration":81318,"Delta":134575038},{"NoteNumber":62,"Velocity":69,"Duration":81318,"SoundDuration":81318,"Delta":134575038},{"NoteNumber":59,"Velocity":58,"Duration":81318,"SoundDuration":81318,"Delta":134575038},{"NoteNumber":55,"Velocity":58,"Duration":81318,"SoundDuration":81318,"Delta":134575038},{"NoteNumber":86,"Velocity":96,"Duration":82859,"SoundDuration":82859,"Delta":134900312},{"NoteNumber":72,"Velocity":96,"Duration":86400,"SoundDuration":86400,"Delta":135563186},{"NoteNumber":55,"Velocity":58,"Duration":86400,"SoundDuration":86400,"Delta":135563186},{"NoteNumber":48,"Velocity":58,"Duration":86400,"SoundDuration":86400,"Delta":135563186},{"NoteNumber":60,"Velocity":69,"Duration":86400,"SoundDuration":86400,"Delta":135563186},{"NoteNumber":51,"Velocity":58,"Duration":86400,"SoundDuration":86400,"Delta":135563186},{"NoteNumber":84,"Velocity":96,"Duration":85280,"SoundDuration":85280,"Delta":135908788},{"NoteNumber":63,"Velocity":69,"Duration":2995000,"SoundDuration":2995000,"Delta":137614398},{"NoteNumber":61,"Velocity":50,"Duration":1006177,"SoundDuration":1006177,"Delta":138599349},{"NoteNumber":67,"Velocity":50,"Duration":669439,"SoundDuration":669439,"Delta":138936087},{"NoteNumber":75,"Velocity":45,"Duration":341122,"SoundDuration":341122,"Delta":139264404},{"NoteNumber":68,"Velocity":42,"Duration":1003872,"SoundDuration":1003872,"Delta":139605526},{"NoteNumber":75,"Velocity":50,"Duration":667134,"SoundDuration":667134,"Delta":139605526},{"NoteNumber":60,"Velocity":49,"Duration":1003872,"SoundDuration":1003872,"Delta":139605526},{"NoteNumber":75,"Velocity":45,"Duration":663019,"SoundDuration":663019,"Delta":140272660},{"NoteNumber":67,"Velocity":42,"Duration":999305,"SoundDuration":999305,"Delta":140609398},{"NoteNumber":61,"Velocity":34,"Duration":999305,"SoundDuration":999305,"Delta":140609398},{"NoteNumber":58,"Velocity":28,"Duration":999305,"SoundDuration":999305,"Delta":140609398},{"NoteNumber":77,"Velocity":45,"Duration":326282,"SoundDuration":326282,"Delta":140935680},{"NoteNumber":73,"Velocity":44,"Duration":678178,"SoundDuration":678178,"Delta":141261962},{"NoteNumber":68,"Velocity":42,"Duration":1013680,"SoundDuration":1013680,"Delta":141608703},{"NoteNumber":56,"Velocity":28,"Duration":1013680,"SoundDuration":1013680,"Delta":141608703},{"NoteNumber":63,"Velocity":33,"Duration":1013680,"SoundDuration":1013680,"Delta":141608703},{"NoteNumber":71,"Velocity":45,"Duration":341122,"SoundDuration":341122,"Delta":141940140},{"NoteNumber":72,"Velocity":45,"Duration":341121,"SoundDuration":341121,"Delta":142281262},{"NoteNumber":70,"Velocity":50,"Duration":997935,"SoundDuration":997935,"Delta":142622384},{"NoteNumber":72,"Velocity":60,"Duration":1995683,"SoundDuration":1995683,"Delta":142622384},{"NoteNumber":76,"Velocity":50,"Duration":664398,"SoundDuration":664398,"Delta":142955921},{"NoteNumber":84,"Velocity":45,"Duration":341122,"SoundDuration":341122,"Delta":143279197},{"NoteNumber":77,"Velocity":42,"Duration":997748,"SoundDuration":997748,"Delta":143620319},{"NoteNumber":84,"Velocity":50,"Duration":661010,"SoundDuration":661010,"Delta":143620319},{"NoteNumber":68,"Velocity":49,"Duration":997748,"SoundDuration":997748,"Delta":143620319},{"NoteNumber":84,"Velocity":45,"Duration":663019,"SoundDuration":663019,"Delta":144281329},{"NoteNumber":76,"Velocity":42,"Duration":990383,"SoundDuration":990383,"Delta":144618067},{"NoteNumber":67,"Velocity":28,"Duration":990383,"SoundDuration":990383,"Delta":144618067},{"NoteNumber":70,"Velocity":34,"Duration":990383,"SoundDuration":990383,"Delta":144618067},{"NoteNumber":85,"Velocity":45,"Duration":326282,"SoundDuration":326282,"Delta":144944349},{"NoteNumber":82,"Velocity":44,"Duration":664100,"SoundDuration":664100,"Delta":145270631},{"NoteNumber":72,"Velocity":42,"Duration":995475,"SoundDuration":995475,"Delta":145608450},{"NoteNumber":65,"Velocity":28,"Duration":995475,"SoundDuration":995475,"Delta":145608450},{"NoteNumber":68,"Velocity":33,"Duration":995475,"SoundDuration":995475,"Delta":145608450},{"NoteNumber":79,"Velocity":45,"Duration":334597,"SoundDuration":334597,"Delta":145934732},{"NoteNumber":80,"Velocity":45,"Duration":334597,"SoundDuration":334597,"Delta":146269329},{"NoteNumber":66,"Velocity":50,"Duration":1000146,"SoundDuration":1000146,"Delta":146603926},{"NoteNumber":68,"Velocity":60,"Duration":1999903,"SoundDuration":1999903,"Delta":146603926},{"NoteNumber":72,"Velocity":50,"Duration":663408,"SoundDuration":663408,"Delta":146940664},{"NoteNumber":80,"Velocity":45,"Duration":341122,"SoundDuration":341122,"Delta":147262950},{"NoteNumber":73,"Velocity":42,"Duration":999757,"SoundDuration":999757,"Delta":147604072},{"NoteNumber":80,"Velocity":50,"Duration":663019,"SoundDuration":663019,"Delta":147604072},{"NoteNumber":65,"Velocity":49,"Duration":999757,"SoundDuration":999757,"Delta":147604072},{"NoteNumber":80,"Velocity":45,"Duration":663019,"SoundDuration":663019,"Delta":148267092},{"NoteNumber":72,"Velocity":42,"Duration":990383,"SoundDuration":990383,"Delta":148603830},{"NoteNumber":63,"Velocity":44,"Duration":990383,"SoundDuration":990383,"Delta":148603830},{"NoteNumber":66,"Velocity":44,"Duration":990383,"SoundDuration":990383,"Delta":148603830},{"NoteNumber":82,"Velocity":45,"Duration":326282,"SoundDuration":326282,"Delta":148930112},{"NoteNumber":78,"Velocity":44,"Duration":669255,"SoundDuration":669255,"Delta":149256394},{"NoteNumber":68,"Velocity":49,"Duration":1007074,"SoundDuration":1007074,"Delta":149594213},{"NoteNumber":61,"Velocity":28,"Duration":1007074,"SoundDuration":1007074,"Delta":149594213},{"NoteNumber":65,"Velocity":33,"Duration":1007074,"SoundDuration":1007074,"Delta":149594213},{"NoteNumber":76,"Velocity":52,"Duration":337818,"SoundDuration":337818,"Delta":149925650},{"NoteNumber":77,"Velocity":52,"Duration":664100,"SoundDuration":664100,"Delta":150263469},{"NoteNumber":69,"Velocity":50,"Duration":999305,"SoundDuration":999305,"Delta":150601288},{"NoteNumber":59,"Velocity":42,"Duration":999305,"SoundDuration":999305,"Delta":150601288},{"NoteNumber":63,"Velocity":48,"Duration":999305,"SoundDuration":999305,"Delta":150601288},{"NoteNumber":78,"Velocity":55,"Duration":326282,"SoundDuration":326282,"Delta":150927570},{"NoteNumber":75,"Velocity":50,"Duration":678178,"SoundDuration":678178,"Delta":151253852},{"NoteNumber":65,"Velocity":42,"Duration":1013680,"SoundDuration":1013680,"Delta":151600593},{"NoteNumber":58,"Velocity":33,"Duration":1013680,"SoundDuration":1013680,"Delta":151600593},{"NoteNumber":75,"Velocity":45,"Duration":341122,"SoundDuration":341122,"Delta":151932030},{"NoteNumber":74,"Velocity":45,"Duration":672558,"SoundDuration":672558,"Delta":152273152},{"NoteNumber":66,"Velocity":42,"Duration":672559,"SoundDuration":672559,"Delta":152614274},{"NoteNumber":57,"Velocity":33,"Duration":1013680,"SoundDuration":1013680,"Delta":152614274},{"NoteNumber":75,"Velocity":45,"Duration":341122,"SoundDuration":341122,"Delta":152945711},{"NoteNumber":63,"Velocity":28,"Duration":341121,"SoundDuration":341121,"Delta":153286833},{"NoteNumber":66,"Velocity":33,"Duration":341121,"SoundDuration":341121,"Delta":153286833},{"NoteNumber":62,"Velocity":32,"Duration":341122,"SoundDuration":341122,"Delta":153627955},{"NoteNumber":65,"Velocity":38,"Duration":341122,"SoundDuration":341122,"Delta":153627955},{"NoteNumber":46,"Velocity":33,"Duration":2014119,"SoundDuration":2014119,"Delta":153627955},{"NoteNumber":53,"Velocity":33,"Duration":334597,"SoundDuration":334597,"Delta":153969077},{"NoteNumber":55,"Velocity":37,"Duration":334597,"SoundDuration":334597,"Delta":154303674},{"NoteNumber":56,"Velocity":41,"Duration":334597,"SoundDuration":334597,"Delta":154638271},{"NoteNumber":72,"Velocity":38,"Duration":163487,"SoundDuration":163487,"Delta":154972868},{"NoteNumber":52,"Velocity":33,"Duration":326975,"SoundDuration":326975,"Delta":154972868},{"NoteNumber":72,"Velocity":38,"Duration":171115,"SoundDuration":171115,"Delta":155299843},{"NoteNumber":53,"Velocity":35,"Duration":342230,"SoundDuration":342230,"Delta":155299843},{"NoteNumber":72,"Velocity":46,"Duration":332410,"SoundDuration":332410,"Delta":155642074},{"NoteNumber":46,"Velocity":42,"Duration":1999740,"SoundDuration":1999740,"Delta":155642074},{"NoteNumber":55,"Velocity":42,"Duration":332410,"SoundDuration":332410,"Delta":155642074},{"NoteNumber":70,"Velocity":38,"Duration":332409,"SoundDuration":332409,"Delta":155974484},{"NoteNumber":50,"Velocity":33,"Duration":332409,"SoundDuration":332409,"Delta":155974484},{"NoteNumber":51,"Velocity":33,"Duration":332410,"SoundDuration":332410,"Delta":156306894},{"NoteNumber":53,"Velocity":40,"Duration":332410,"SoundDuration":332410,"Delta":156639304},{"NoteNumber":68,"Velocity":38,"Duration":163934,"SoundDuration":163934,"Delta":156971714},{"NoteNumber":48,"Velocity":33,"Duration":327868,"SoundDuration":327868,"Delta":156971714},{"NoteNumber":68,"Velocity":38,"Duration":171115,"SoundDuration":171115,"Delta":157299583},{"NoteNumber":50,"Velocity":33,"Duration":342230,"SoundDuration":342230,"Delta":157299583},{"NoteNumber":68,"Velocity":43,"Duration":331491,"SoundDuration":331491,"Delta":157641814},{"NoteNumber":46,"Velocity":39,"Duration":1964395,"SoundDuration":1964395,"Delta":157641814},{"NoteNumber":51,"Velocity":39,"Duration":331491,"SoundDuration":331491,"Delta":157641814},{"NoteNumber":67,"Velocity":38,"Duration":331491,"SoundDuration":331491,"Delta":157973306},{"NoteNumber":53,"Velocity":33,"Duration":331491,"SoundDuration":331491,"Delta":157973306},{"NoteNumber":55,"Velocity":36,"Duration":331491,"SoundDuration":331491,"Delta":158304798},{"NoteNumber":56,"Velocity":40,"Duration":321716,"SoundDuration":321716,"Delta":158636290},{"NoteNumber":72,"Velocity":37,"Duration":160858,"SoundDuration":160858,"Delta":158797148},{"NoteNumber":71,"Velocity":38,"Duration":157894,"SoundDuration":157894,"Delta":158958006},{"NoteNumber":52,"Velocity":33,"Duration":315788,"SoundDuration":315788,"Delta":158958006},{"NoteNumber":72,"Velocity":34,"Duration":157894,"SoundDuration":157894,"Delta":159115901},{"NoteNumber":74,"Velocity":43,"Duration":157894,"SoundDuration":157894,"Delta":159273795},{"NoteNumber":53,"Velocity":33,"Duration":332414,"SoundDuration":332414,"Delta":159273795},{"NoteNumber":72,"Velocity":38,"Duration":174520,"SoundDuration":174520,"Delta":159431690},{"NoteNumber":55,"Velocity":42,"Duration":321716,"SoundDuration":321716,"Delta":159606210},{"NoteNumber":46,"Velocity":42,"Duration":1934190,"SoundDuration":1934190,"Delta":159606210},{"NoteNumber":70,"Velocity":36,"Duration":160858,"SoundDuration":160858,"Delta":159767068},{"NoteNumber":69,"Velocity":38,"Duration":157480,"SoundDuration":157480,"Delta":159927926},{"NoteNumber":50,"Velocity":33,"Duration":314961,"SoundDuration":314961,"Delta":159927926},{"NoteNumber":70,"Velocity":36,"Duration":157480,"SoundDuration":157480,"Delta":160085406},{"NoteNumber":72,"Velocity":44,"Duration":157480,"SoundDuration":157480,"Delta":160242887},{"NoteNumber":51,"Velocity":33,"Duration":331423,"SoundDuration":331423,"Delta":160242887},{"NoteNumber":70,"Velocity":38,"Duration":173943,"SoundDuration":173943,"Delta":160400367},{"NoteNumber":53,"Velocity":40,"Duration":325202,"SoundDuration":325202,"Delta":160574311},{"NoteNumber":68,"Velocity":36,"Duration":162601,"SoundDuration":162601,"Delta":160736912},{"NoteNumber":67,"Velocity":38,"Duration":157068,"SoundDuration":157068,"Delta":160899514},{"NoteNumber":48,"Velocity":33,"Duration":314135,"SoundDuration":314135,"Delta":160899514},{"NoteNumber":68,"Velocity":35,"Duration":157067,"SoundDuration":157067,"Delta":161056582},{"NoteNumber":70,"Velocity":44,"Duration":157068,"SoundDuration":157068,"Delta":161213650},{"NoteNumber":50,"Velocity":33,"Duration":326750,"SoundDuration":326750,"Delta":161213650},{"NoteNumber":68,"Velocity":37,"Duration":169682,"SoundDuration":169682,"Delta":161370718},{"NoteNumber":67,"Velocity":46,"Duration":1471951,"SoundDuration":1471951,"Delta":161540400},{"NoteNumber":51,"Velocity":40,"Duration":167075,"SoundDuration":167075,"Delta":161540400},{"NoteNumber":58,"Velocity":28,"Duration":166273,"SoundDuration":166273,"Delta":161707476},{"NoteNumber":55,"Velocity":33,"Duration":165447,"SoundDuration":165447,"Delta":161873749},{"NoteNumber":58,"Velocity":27,"Duration":164653,"SoundDuration":164653,"Delta":162039196},{"NoteNumber":53,"Velocity":33,"Duration":164350,"SoundDuration":164350,"Delta":162213425},{"NoteNumber":58,"Velocity":30,"Duration":162897,"SoundDuration":162897,"Delta":162368220},{"NoteNumber":51,"Velocity":38,"Duration":161234,"SoundDuration":161234,"Delta":162531118},{"NoteNumber":58,"Velocity":33,"Duration":159999,"SoundDuration":159999,"Delta":162692352},{"NoteNumber":53,"Velocity":45,"Duration":159999,"SoundDuration":159999,"Delta":162852352},{"NoteNumber":70,"Velocity":56,"Duration":159999,"SoundDuration":159999,"Delta":163012352},{"NoteNumber":58,"Velocity":37,"Duration":159999,"SoundDuration":159999,"Delta":163012352},{"NoteNumber":75,"Velocity":62,"Duration":325059,"SoundDuration":325059,"Delta":163172352},{"NoteNumber":55,"Velocity":48,"Duration":159999,"SoundDuration":159999,"Delta":163172352},{"NoteNumber":58,"Velocity":43,"Duration":172235,"SoundDuration":172235,"Delta":163332352},{"NoteNumber":75,"Velocity":63,"Duration":986111,"SoundDuration":986111,"Delta":163504587},{"NoteNumber":53,"Velocity":55,"Duration":169206,"SoundDuration":169206,"Delta":163504587},{"NoteNumber":58,"Velocity":40,"Duration":163952,"SoundDuration":163952,"Delta":163673793},{"NoteNumber":55,"Velocity":48,"Duration":162745,"SoundDuration":162745,"Delta":163837746},{"NoteNumber":58,"Velocity":30,"Duration":161743,"SoundDuration":161743,"Delta":164000492},{"NoteNumber":56,"Velocity":40,"Duration":162953,"SoundDuration":162953,"Delta":164162235},{"NoteNumber":58,"Velocity":33,"Duration":165509,"SoundDuration":165509,"Delta":164325189},{"NoteNumber":74,"Velocity":57,"Duration":334597,"SoundDuration":334597,"Delta":164490698},{"NoteNumber":53,"Velocity":39,"Duration":167298,"SoundDuration":167298,"Delta":164490698},{"NoteNumber":58,"Velocity":33,"Duration":167298,"SoundDuration":167298,"Delta":164657997},{"NoteNumber":55,"Velocity":41,"Duration":167298,"SoundDuration":167298,"Delta":164825295},{"NoteNumber":58,"Velocity":33,"Duration":167298,"SoundDuration":167298,"Delta":164992594},{"NoteNumber":56,"Velocity":41,"Duration":167298,"SoundDuration":167298,"Delta":165159892},{"NoteNumber":58,"Velocity":33,"Duration":167298,"SoundDuration":167298,"Delta":165327191},{"NoteNumber":70,"Velocity":51,"Duration":990523,"SoundDuration":990523,"Delta":165494489},{"NoteNumber":50,"Velocity":40,"Duration":167075,"SoundDuration":167075,"Delta":165494489},{"NoteNumber":58,"Velocity":28,"Duration":166273,"SoundDuration":166273,"Delta":165661565},{"NoteNumber":53,"Velocity":33,"Duration":165447,"SoundDuration":165447,"Delta":165827838},{"NoteNumber":58,"Velocity":27,"Duration":164653,"SoundDuration":164653,"Delta":165993285},{"NoteNumber":51,"Velocity":38,"Duration":163892,"SoundDuration":163892,"Delta":166157938},{"NoteNumber":58,"Velocity":34,"Duration":163181,"SoundDuration":163181,"Delta":166321831},{"NoteNumber":70,"Velocity":61,"Duration":163141,"SoundDuration":163141,"Delta":166485012},{"NoteNumber":50,"Velocity":38,"Duration":163141,"SoundDuration":163141,"Delta":166485012},{"NoteNumber":72,"Velocity":57,"Duration":53050,"SoundDuration":53050,"Delta":166648153},{"NoteNumber":58,"Velocity":34,"Duration":159151,"SoundDuration":159151,"Delta":166648153},{"NoteNumber":70,"Velocity":52,"Duration":53050,"SoundDuration":53050,"Delta":166701204},{"NoteNumber":69,"Velocity":52,"Duration":53050,"SoundDuration":53050,"Delta":166754254},{"NoteNumber":70,"Velocity":61,"Duration":159150,"SoundDuration":159150,"Delta":166807304},{"NoteNumber":51,"Velocity":46,"Duration":159150,"SoundDuration":159150,"Delta":166807304},{"NoteNumber":77,"Velocity":65,"Duration":159151,"SoundDuration":159151,"Delta":166966455},{"NoteNumber":58,"Velocity":39,"Duration":159151,"SoundDuration":159151,"Delta":166966455},{"NoteNumber":80,"Velocity":75,"Duration":331386,"SoundDuration":331386,"Delta":167125606},{"NoteNumber":53,"Velocity":48,"Duration":159151,"SoundDuration":159151,"Delta":167125606},{"NoteNumber":58,"Velocity":44,"Duration":172235,"SoundDuration":172235,"Delta":167284757},{"NoteNumber":80,"Velocity":78,"Duration":984940,"SoundDuration":984940,"Delta":167456993},{"NoteNumber":51,"Velocity":55,"Duration":168522,"SoundDuration":168522,"Delta":167456993},{"NoteNumber":58,"Velocity":43,"Duration":163385,"SoundDuration":163385,"Delta":167625515},{"NoteNumber":53,"Velocity":52,"Duration":161470,"SoundDuration":161470,"Delta":167788901},{"NoteNumber":58,"Velocity":37,"Duration":161480,"SoundDuration":161480,"Delta":167950371},{"NoteNumber":55,"Velocity":46,"Duration":163899,"SoundDuration":163899,"Delta":168111852},{"NoteNumber":58,"Velocity":33,"Duration":166182,"SoundDuration":166182,"Delta":168275751},{"NoteNumber":79,"Velocity":69,"Duration":334597,"SoundDuration":334597,"Delta":168441933},{"NoteNumber":51,"Velocity":44,"Duration":167298,"SoundDuration":167298,"Delta":168441933},{"NoteNumber":58,"Velocity":39,"Duration":167298,"SoundDuration":167298,"Delta":168609232},{"NoteNumber":53,"Velocity":41,"Duration":167298,"SoundDuration":167298,"Delta":168776530},{"NoteNumber":58,"Velocity":33,"Duration":167298,"SoundDuration":167298,"Delta":168943829},{"NoteNumber":55,"Velocity":41,"Duration":167298,"SoundDuration":167298,"Delta":169111127},{"NoteNumber":58,"Velocity":33,"Duration":167298,"SoundDuration":167298,"Delta":169278426},{"NoteNumber":67,"Velocity":56,"Duration":83092,"SoundDuration":83092,"Delta":169445724},{"NoteNumber":51,"Velocity":40,"Duration":165802,"SoundDuration":165802,"Delta":169445724},{"NoteNumber":68,"Velocity":58,"Duration":82481,"SoundDuration":82481,"Delta":169611527},{"NoteNumber":58,"Velocity":28,"Duration":164692,"SoundDuration":164692,"Delta":169611527},{"NoteNumber":70,"Velocity":60,"Duration":81959,"SoundDuration":81959,"Delta":169776219},{"NoteNumber":55,"Velocity":33,"Duration":163677,"SoundDuration":163677,"Delta":169776219},{"NoteNumber":72,"Velocity":62,"Duration":81451,"SoundDuration":81451,"Delta":169939897},{"NoteNumber":58,"Velocity":27,"Duration":162682,"SoundDuration":162682,"Delta":169939897},{"NoteNumber":74,"Velocity":64,"Duration":80968,"SoundDuration":80968,"Delta":170102580},{"NoteNumber":51,"Velocity":40,"Duration":161718,"SoundDuration":161718,"Delta":170102580},{"NoteNumber":75,"Velocity":65,"Duration":80490,"SoundDuration":80490,"Delta":170264298},{"NoteNumber":58,"Velocity":31,"Duration":160765,"SoundDuration":160765,"Delta":170264298},{"NoteNumber":77,"Velocity":68,"Duration":80017,"SoundDuration":80017,"Delta":170425063},{"NoteNumber":51,"Velocity":43,"Duration":160017,"SoundDuration":160017,"Delta":170425063},{"NoteNumber":79,"Velocity":70,"Duration":79155,"SoundDuration":79155,"Delta":170585081},{"NoteNumber":58,"Velocity":38,"Duration":158311,"SoundDuration":158311,"Delta":170585081},{"NoteNumber":80,"Velocity":73,"Duration":79155,"SoundDuration":79155,"Delta":170743393},{"NoteNumber":55,"Velocity":52,"Duration":158311,"SoundDuration":158311,"Delta":170743393},{"NoteNumber":82,"Velocity":76,"Duration":79155,"SoundDuration":79155,"Delta":170901704},{"NoteNumber":58,"Velocity":45,"Duration":158311,"SoundDuration":158311,"Delta":170901704},{"NoteNumber":84,"Velocity":79,"Duration":79155,"SoundDuration":79155,"Delta":171060016},{"NoteNumber":51,"Velocity":54,"Duration":158311,"SoundDuration":158311,"Delta":171060016},{"NoteNumber":86,"Velocity":81,"Duration":97402,"SoundDuration":97402,"Delta":171218327},{"NoteNumber":58,"Velocity":47,"Duration":194805,"SoundDuration":194805,"Delta":171218327},{"NoteNumber":87,"Velocity":88,"Duration":983346,"SoundDuration":983346,"Delta":171413132},{"NoteNumber":53,"Velocity":52,"Duration":170799,"SoundDuration":170799,"Delta":171413132},{"NoteNumber":58,"Velocity":43,"Duration":163327,"SoundDuration":163327,"Delta":171583931},{"NoteNumber":56,"Velocity":51,"Duration":162290,"SoundDuration":162290,"Delta":171747259},{"NoteNumber":58,"Velocity":40,"Duration":161267,"SoundDuration":161267,"Delta":171909549},{"NoteNumber":53,"Velocity":46,"Duration":162015,"SoundDuration":162015,"Delta":172070817},{"NoteNumber":58,"Velocity":37,"Duration":163646,"SoundDuration":163646,"Delta":172232832},{"NoteNumber":86,"Velocity":81,"Duration":328900,"SoundDuration":328900,"Delta":172396479},{"NoteNumber":53,"Velocity":37,"Duration":164517,"SoundDuration":164517,"Delta":172396479},{"NoteNumber":58,"Velocity":31,"Duration":164383,"SoundDuration":164383,"Delta":172560996},{"NoteNumber":56,"Velocity":39,"Duration":164383,"SoundDuration":164383,"Delta":172725380},{"NoteNumber":58,"Velocity":31,"Duration":164383,"SoundDuration":164383,"Delta":172889763},{"NoteNumber":53,"Velocity":39,"Duration":164383,"SoundDuration":164383,"Delta":173054147},{"NoteNumber":58,"Velocity":31,"Duration":163013,"SoundDuration":163013,"Delta":173218530},{"NoteNumber":58,"Velocity":56,"Duration":82191,"SoundDuration":82191,"Delta":173382914},{"NoteNumber":50,"Velocity":40,"Duration":164269,"SoundDuration":164269,"Delta":173382914},{"NoteNumber":60,"Velocity":58,"Duration":81943,"SoundDuration":81943,"Delta":173547183},{"NoteNumber":58,"Velocity":32,"Duration":163686,"SoundDuration":163686,"Delta":173547183},{"NoteNumber":62,"Velocity":60,"Duration":81630,"SoundDuration":81630,"Delta":173710870},{"NoteNumber":53,"Velocity":39,"Duration":163128,"SoundDuration":163128,"Delta":173710870},{"NoteNumber":63,"Velocity":62,"Duration":81300,"SoundDuration":81300,"Delta":173873999},{"NoteNumber":58,"Velocity":29,"Duration":162489,"SoundDuration":162489,"Delta":173873999},{"NoteNumber":65,"Velocity":64,"Duration":81057,"SoundDuration":81057,"Delta":174036488},{"NoteNumber":50,"Velocity":45,"Duration":161919,"SoundDuration":161919,"Delta":174036488},{"NoteNumber":67,"Velocity":65,"Duration":80752,"SoundDuration":80752,"Delta":174198408},{"NoteNumber":58,"Velocity":36,"Duration":161373,"SoundDuration":161373,"Delta":174198408},{"NoteNumber":68,"Velocity":67,"Duration":80428,"SoundDuration":80428,"Delta":174359782},{"NoteNumber":50,"Velocity":48,"Duration":160857,"SoundDuration":160857,"Delta":174359782},{"NoteNumber":70,"Velocity":70,"Duration":79575,"SoundDuration":79575,"Delta":174520640},{"NoteNumber":58,"Velocity":40,"Duration":159151,"SoundDuration":159151,"Delta":174520640},{"NoteNumber":72,"Velocity":73,"Duration":79575,"SoundDuration":79575,"Delta":174679791},{"NoteNumber":53,"Velocity":53,"Duration":159150,"SoundDuration":159150,"Delta":174679791},{"NoteNumber":74,"Velocity":76,"Duration":79575,"SoundDuration":79575,"Delta":174838942},{"NoteNumber":58,"Velocity":45,"Duration":159151,"SoundDuration":159151,"Delta":174838942},{"NoteNumber":75,"Velocity":79,"Duration":79575,"SoundDuration":79575,"Delta":174998093},{"NoteNumber":50,"Velocity":60,"Duration":159151,"SoundDuration":159151,"Delta":174998093},{"NoteNumber":77,"Velocity":82,"Duration":86117,"SoundDuration":86117,"Delta":175157244},{"NoteNumber":58,"Velocity":50,"Duration":172235,"SoundDuration":172235,"Delta":175157244},{"NoteNumber":79,"Velocity":89,"Duration":1010495,"SoundDuration":1010495,"Delta":175329480},{"NoteNumber":51,"Velocity":43,"Duration":167298,"SoundDuration":167298,"Delta":175501715},{"NoteNumber":50,"Velocity":61,"Duration":166242,"SoundDuration":166242,"Delta":175669014},{"NoteNumber":51,"Velocity":48,"Duration":166241,"SoundDuration":166241,"Delta":175835256},{"NoteNumber":50,"Velocity":60,"Duration":166242,"SoundDuration":166242,"Delta":176001498},{"NoteNumber":51,"Velocity":50,"Duration":172235,"SoundDuration":172235,"Delta":176167740},{"NoteNumber":87,"Velocity":100,"Duration":662362,"SoundDuration":662362,"Delta":176339975},{"NoteNumber":43,"Velocity":67,"Duration":166768,"SoundDuration":166768,"Delta":176339975},{"NoteNumber":51,"Velocity":45,"Duration":165198,"SoundDuration":165198,"Delta":176506744},{"NoteNumber":44,"Velocity":59,"Duration":165198,"SoundDuration":165198,"Delta":176671942},{"NoteNumber":51,"Velocity":51,"Duration":165198,"SoundDuration":165198,"Delta":176837140},{"NoteNumber":55,"Velocity":77,"Duration":339533,"SoundDuration":339533,"Delta":177002338},{"NoteNumber":46,"Velocity":60,"Duration":167298,"SoundDuration":167298,"Delta":177002338},{"NoteNumber":51,"Velocity":44,"Duration":172235,"SoundDuration":172235,"Delta":177169636},{"NoteNumber":56,"Velocity":82,"Duration":1005558,"SoundDuration":1005558,"Delta":177341872},{"NoteNumber":44,"Velocity":65,"Duration":167298,"SoundDuration":167298,"Delta":177341872},{"NoteNumber":51,"Velocity":49,"Duration":167298,"SoundDuration":167298,"Delta":177509170},{"NoteNumber":46,"Velocity":60,"Duration":166242,"SoundDuration":166242,"Delta":177676469},{"NoteNumber":51,"Velocity":47,"Duration":166241,"SoundDuration":166241,"Delta":177842711},{"NoteNumber":48,"Velocity":59,"Duration":166242,"SoundDuration":166242,"Delta":178008953},{"NoteNumber":51,"Velocity":48,"Duration":172235,"SoundDuration":172235,"Delta":178175195},{"NoteNumber":57,"Velocity":84,"Duration":1002325,"SoundDuration":1002325,"Delta":178347430},{"NoteNumber":45,"Velocity":67,"Duration":166242,"SoundDuration":166242,"Delta":178347430},{"NoteNumber":51,"Velocity":49,"Duration":166241,"SoundDuration":166241,"Delta":178513672},{"NoteNumber":46,"Velocity":59,"Duration":166242,"SoundDuration":166242,"Delta":178679914},{"NoteNumber":51,"Velocity":47,"Duration":166241,"SoundDuration":166241,"Delta":178846156},{"NoteNumber":48,"Velocity":57,"Duration":166242,"SoundDuration":166242,"Delta":179012398},{"NoteNumber":51,"Velocity":44,"Duration":171115,"SoundDuration":171115,"Delta":179178640},{"NoteNumber":58,"Velocity":84,"Duration":998045,"SoundDuration":998045,"Delta":179349756},{"NoteNumber":46,"Velocity":64,"Duration":165718,"SoundDuration":165718,"Delta":179349756},{"NoteNumber":55,"Velocity":46,"Duration":165718,"SoundDuration":165718,"Delta":179515474},{"NoteNumber":51,"Velocity":57,"Duration":165718,"SoundDuration":165718,"Delta":179681193},{"NoteNumber":55,"Velocity":45,"Duration":165718,"SoundDuration":165718,"Delta":179846911},{"NoteNumber":46,"Velocity":56,"Duration":165718,"SoundDuration":165718,"Delta":180012630},{"NoteNumber":55,"Velocity":56,"Duration":169453,"SoundDuration":169453,"Delta":180178348},{"NoteNumber":56,"Velocity":84,"Duration":84266,"SoundDuration":84266,"Delta":180347801},{"NoteNumber":46,"Velocity":64,"Duration":167468,"SoundDuration":167468,"Delta":180347801},{"NoteNumber":58,"Velocity":57,"Duration":83201,"SoundDuration":83201,"Delta":180432068},{"NoteNumber":56,"Velocity":61,"Duration":55065,"SoundDuration":55065,"Delta":180515269},{"NoteNumber":53,"Velocity":46,"Duration":165198,"SoundDuration":165198,"Delta":180515269},{"NoteNumber":58,"Velocity":57,"Duration":55066,"SoundDuration":55066,"Delta":180570335},{"NoteNumber":56,"Velocity":64,"Duration":55066,"SoundDuration":55066,"Delta":180625401},{"NoteNumber":58,"Velocity":56,"Duration":55065,"SoundDuration":55065,"Delta":180680467},{"NoteNumber":50,"Velocity":56,"Duration":165197,"SoundDuration":165197,"Delta":180680467},{"NoteNumber":56,"Velocity":64,"Duration":55066,"SoundDuration":55066,"Delta":180735533},{"NoteNumber":58,"Velocity":56,"Duration":55065,"SoundDuration":55065,"Delta":180790599},{"NoteNumber":56,"Velocity":64,"Duration":55066,"SoundDuration":55066,"Delta":180845665},{"NoteNumber":53,"Velocity":45,"Duration":165198,"SoundDuration":165198,"Delta":180845665},{"NoteNumber":58,"Velocity":55,"Duration":55066,"SoundDuration":55066,"Delta":180900731},{"NoteNumber":56,"Velocity":64,"Duration":55065,"SoundDuration":55065,"Delta":180955797},{"NoteNumber":58,"Velocity":54,"Duration":82493,"SoundDuration":82493,"Delta":181010863},{"NoteNumber":46,"Velocity":58,"Duration":165503,"SoundDuration":165503,"Delta":181010863},{"NoteNumber":56,"Velocity":59,"Duration":83010,"SoundDuration":83010,"Delta":181093357},{"NoteNumber":55,"Velocity":55,"Duration":83663,"SoundDuration":83663,"Delta":181176367},{"NoteNumber":53,"Velocity":53,"Duration":167969,"SoundDuration":167969,"Delta":181176367},{"NoteNumber":56,"Velocity":57,"Duration":84306,"SoundDuration":84306,"Delta":181260030},{"NoteNumber":55,"Velocity":74,"Duration":166242,"SoundDuration":166242,"Delta":181344337},{"NoteNumber":39,"Velocity":64,"Duration":331077,"SoundDuration":331077,"Delta":181344337},{"NoteNumber":51,"Velocity":64,"Duration":331077,"SoundDuration":331077,"Delta":181344337},{"NoteNumber":58,"Velocity":60,"Duration":164835,"SoundDuration":164835,"Delta":181510579},{"NoteNumber":63,"Velocity":68,"Duration":164834,"SoundDuration":164834,"Delta":181675414},{"NoteNumber":58,"Velocity":61,"Duration":164835,"SoundDuration":164835,"Delta":181840249},{"NoteNumber":63,"Velocity":69,"Duration":164834,"SoundDuration":164834,"Delta":182005084},{"NoteNumber":67,"Velocity":63,"Duration":164835,"SoundDuration":164835,"Delta":182169919},{"NoteNumber":70,"Velocity":69,"Duration":163043,"SoundDuration":163043,"Delta":182334754},{"NoteNumber":67,"Velocity":60,"Duration":163043,"SoundDuration":163043,"Delta":182497797},{"NoteNumber":70,"Velocity":69,"Duration":163043,"SoundDuration":163043,"Delta":182660841},{"NoteNumber":75,"Velocity":62,"Duration":163043,"SoundDuration":163043,"Delta":182823884},{"NoteNumber":79,"Velocity":78,"Duration":163043,"SoundDuration":163043,"Delta":182986928},{"NoteNumber":82,"Velocity":73,"Duration":163043,"SoundDuration":163043,"Delta":183149971},{"NoteNumber":87,"Velocity":89,"Duration":166768,"SoundDuration":166768,"Delta":183313015},{"NoteNumber":43,"Velocity":67,"Duration":166768,"SoundDuration":166768,"Delta":183313015},{"NoteNumber":51,"Velocity":45,"Duration":165198,"SoundDuration":165198,"Delta":183479783},{"NoteNumber":44,"Velocity":50,"Duration":165198,"SoundDuration":165198,"Delta":183644981},{"NoteNumber":51,"Velocity":47,"Duration":165198,"SoundDuration":165198,"Delta":183810179},{"NoteNumber":63,"Velocity":84,"Duration":1001896,"SoundDuration":1001896,"Delta":183975377},{"NoteNumber":46,"Velocity":54,"Duration":167298,"SoundDuration":167298,"Delta":183975377},{"NoteNumber":51,"Velocity":44,"Duration":172235,"SoundDuration":172235,"Delta":184142676},{"NoteNumber":43,"Velocity":67,"Duration":166768,"SoundDuration":166768,"Delta":184314911},{"NoteNumber":51,"Velocity":45,"Duration":165198,"SoundDuration":165198,"Delta":184481680},{"NoteNumber":44,"Velocity":50,"Duration":165198,"SoundDuration":165198,"Delta":184646878},{"NoteNumber":51,"Velocity":47,"Duration":165198,"SoundDuration":165198,"Delta":184812076},{"NoteNumber":55,"Velocity":81,"Duration":339533,"SoundDuration":339533,"Delta":184977274},{"NoteNumber":46,"Velocity":54,"Duration":167298,"SoundDuration":167298,"Delta":184977274},{"NoteNumber":51,"Velocity":44,"Duration":172235,"SoundDuration":172235,"Delta":185144572},{"NoteNumber":56,"Velocity":84,"Duration":663364,"SoundDuration":663364,"Delta":185316808},{"NoteNumber":44,"Velocity":65,"Duration":167298,"SoundDuration":167298,"Delta":185316808},{"NoteNumber":51,"Velocity":45,"Duration":167298,"SoundDuration":167298,"Delta":185484106},{"NoteNumber":46,"Velocity":59,"Duration":164383,"SoundDuration":164383,"Delta":185651405},{"NoteNumber":51,"Velocity":42,"Duration":164383,"SoundDuration":164383,"Delta":185815788},{"NoteNumber":63,"Velocity":84,"Duration":336619,"SoundDuration":336619,"Delta":185980172},{"NoteNumber":48,"Velocity":58,"Duration":164383,"SoundDuration":164383,"Delta":185980172},{"NoteNumber":51,"Velocity":45,"Duration":172235,"SoundDuration":172235,"Delta":186144555},{"NoteNumber":57,"Velocity":92,"Duration":661250,"SoundDuration":661250,"Delta":186316791},{"NoteNumber":45,"Velocity":67,"Duration":166242,"SoundDuration":166242,"Delta":186316791},{"NoteNumber":51,"Velocity":45,"Duration":166241,"SoundDuration":166241,"Delta":186483033},{"NoteNumber":46,"Velocity":60,"Duration":164383,"SoundDuration":164383,"Delta":186649275},{"NoteNumber":51,"Velocity":47,"Duration":164383,"SoundDuration":164383,"Delta":186813658},{"NoteNumber":63,"Velocity":84,"Duration":335499,"SoundDuration":335499,"Delta":186978042},{"NoteNumber":48,"Velocity":58,"Duration":164383,"SoundDuration":164383,"Delta":186978042},{"NoteNumber":51,"Velocity":44,"Duration":171115,"SoundDuration":171115,"Delta":187142425},{"NoteNumber":58,"Velocity":77,"Duration":166242,"SoundDuration":166242,"Delta":187313541},{"NoteNumber":46,"Velocity":67,"Duration":166242,"SoundDuration":166242,"Delta":187313541},{"NoteNumber":63,"Velocity":60,"Duration":162601,"SoundDuration":162601,"Delta":187479783},{"NoteNumber":51,"Velocity":53,"Duration":162601,"SoundDuration":162601,"Delta":187479783},{"NoteNumber":62,"Velocity":69,"Duration":162601,"SoundDuration":162601,"Delta":187642384},{"NoteNumber":50,"Velocity":61,"Duration":162601,"SoundDuration":162601,"Delta":187642384},{"NoteNumber":63,"Velocity":55,"Duration":162601,"SoundDuration":162601,"Delta":187804986},{"NoteNumber":51,"Velocity":48,"Duration":162601,"SoundDuration":162601,"Delta":187804986},{"NoteNumber":59,"Velocity":68,"Duration":162601,"SoundDuration":162601,"Delta":187967587},{"NoteNumber":47,"Velocity":61,"Duration":162601,"SoundDuration":162601,"Delta":187967587},{"NoteNumber":63,"Velocity":61,"Duration":171115,"SoundDuration":171115,"Delta":188130189},{"NoteNumber":51,"Velocity":49,"Duration":171115,"SoundDuration":171115,"Delta":188130189},{"NoteNumber":60,"Velocity":82,"Duration":166242,"SoundDuration":166242,"Delta":188301304},{"NoteNumber":48,"Velocity":71,"Duration":166242,"SoundDuration":166242,"Delta":188301304},{"NoteNumber":63,"Velocity":63,"Duration":162161,"SoundDuration":162161,"Delta":188467546},{"NoteNumber":51,"Velocity":52,"Duration":162161,"SoundDuration":162161,"Delta":188467546},{"NoteNumber":62,"Velocity":70,"Duration":162161,"SoundDuration":162161,"Delta":188629708},{"NoteNumber":50,"Velocity":63,"Duration":162161,"SoundDuration":162161,"Delta":188629708},{"NoteNumber":63,"Velocity":62,"Duration":162162,"SoundDuration":162162,"Delta":188791870},{"NoteNumber":51,"Velocity":55,"Duration":162162,"SoundDuration":162162,"Delta":188791870},{"NoteNumber":57,"Velocity":70,"Duration":162161,"SoundDuration":162161,"Delta":188954032},{"NoteNumber":45,"Velocity":66,"Duration":162161,"SoundDuration":162161,"Delta":188954032},{"NoteNumber":63,"Velocity":61,"Duration":171115,"SoundDuration":171115,"Delta":189116194},{"NoteNumber":51,"Velocity":49,"Duration":171115,"SoundDuration":171115,"Delta":189116194},{"NoteNumber":58,"Velocity":88,"Duration":166242,"SoundDuration":166242,"Delta":189287310},{"NoteNumber":46,"Velocity":77,"Duration":166242,"SoundDuration":166242,"Delta":189287310},{"NoteNumber":63,"Velocity":66,"Duration":161724,"SoundDuration":161724,"Delta":189453552},{"NoteNumber":51,"Velocity":56,"Duration":161724,"SoundDuration":161724,"Delta":189453552},{"NoteNumber":61,"Velocity":75,"Duration":161725,"SoundDuration":161725,"Delta":189615277},{"NoteNumber":49,"Velocity":66,"Duration":161725,"SoundDuration":161725,"Delta":189615277},{"NoteNumber":63,"Velocity":62,"Duration":161724,"SoundDuration":161724,"Delta":189777002},{"NoteNumber":51,"Velocity":54,"Duration":161724,"SoundDuration":161724,"Delta":189777002},{"NoteNumber":59,"Velocity":74,"Duration":161724,"SoundDuration":161724,"Delta":189938727},{"NoteNumber":47,"Velocity":67,"Duration":161724,"SoundDuration":161724,"Delta":189938727},{"NoteNumber":63,"Velocity":65,"Duration":171115,"SoundDuration":171115,"Delta":190100452},{"NoteNumber":51,"Velocity":56,"Duration":171115,"SoundDuration":171115,"Delta":190100452},{"NoteNumber":60,"Velocity":88,"Duration":166242,"SoundDuration":166242,"Delta":190271567},{"NoteNumber":48,"Velocity":77,"Duration":166242,"SoundDuration":166242,"Delta":190271567},{"NoteNumber":63,"Velocity":65,"Duration":161724,"SoundDuration":161724,"Delta":190437809},{"NoteNumber":51,"Velocity":58,"Duration":161724,"SoundDuration":161724,"Delta":190437809},{"NoteNumber":62,"Velocity":71,"Duration":161725,"SoundDuration":161725,"Delta":190599534},{"NoteNumber":50,"Velocity":63,"Duration":161725,"SoundDuration":161725,"Delta":190599534},{"NoteNumber":63,"Velocity":65,"Duration":161724,"SoundDuration":161724,"Delta":190761259},{"NoteNumber":51,"Velocity":58,"Duration":161724,"SoundDuration":161724,"Delta":190761259},{"NoteNumber":57,"Velocity":80,"Duration":161724,"SoundDuration":161724,"Delta":190922984},{"NoteNumber":45,"Velocity":71,"Duration":161724,"SoundDuration":161724,"Delta":190922984},{"NoteNumber":63,"Velocity":72,"Duration":171115,"SoundDuration":171115,"Delta":191084709},{"NoteNumber":51,"Velocity":65,"Duration":171115,"SoundDuration":171115,"Delta":191084709},{"NoteNumber":58,"Velocity":93,"Duration":342230,"SoundDuration":342230,"Delta":191255825},{"NoteNumber":46,"Velocity":82,"Duration":342230,"SoundDuration":342230,"Delta":191255825},{"NoteNumber":46,"Velocity":77,"Duration":85557,"SoundDuration":85557,"Delta":191598056},{"NoteNumber":51,"Velocity":77,"Duration":85557,"SoundDuration":85557,"Delta":191598056},{"NoteNumber":55,"Velocity":87,"Duration":85557,"SoundDuration":85557,"Delta":191598056},{"NoteNumber":63,"Velocity":81,"Duration":85557,"SoundDuration":85557,"Delta":191854729},{"NoteNumber":70,"Velocity":87,"Duration":245901,"SoundDuration":245901,"Delta":191940287},{"NoteNumber":67,"Velocity":84,"Duration":88736,"SoundDuration":88736,"Delta":192186188},{"NoteNumber":75,"Velocity":93,"Duration":84726,"SoundDuration":84726,"Delta":192274925},{"NoteNumber":51,"Velocity":77,"Duration":85557,"SoundDuration":85557,"Delta":192613831},{"NoteNumber":48,"Velocity":77,"Duration":85557,"SoundDuration":85557,"Delta":192613831},{"NoteNumber":54,"Velocity":87,"Duration":85557,"SoundDuration":85557,"Delta":192613831},{"NoteNumber":63,"Velocity":81,"Duration":85557,"SoundDuration":85557,"Delta":192870504},{"NoteNumber":69,"Velocity":87,"Duration":246575,"SoundDuration":246575,"Delta":192956062},{"NoteNumber":66,"Velocity":84,"Duration":88736,"SoundDuration":88736,"Delta":193202637},{"NoteNumber":75,"Velocity":93,"Duration":84726,"SoundDuration":84726,"Delta":193291374},{"NoteNumber":55,"Velocity":87,"Duration":85557,"SoundDuration":85557,"Delta":193630280},{"NoteNumber":46,"Velocity":77,"Duration":85557,"SoundDuration":85557,"Delta":193630280},{"NoteNumber":51,"Velocity":77,"Duration":85557,"SoundDuration":85557,"Delta":193630280},{"NoteNumber":63,"Velocity":81,"Duration":85557,"SoundDuration":85557,"Delta":193886953},{"NoteNumber":70,"Velocity":87,"Duration":245901,"SoundDuration":245901,"Delta":193972511},{"NoteNumber":67,"Velocity":84,"Duration":88736,"SoundDuration":88736,"Delta":194218412},{"NoteNumber":75,"Velocity":93,"Duration":84726,"SoundDuration":84726,"Delta":194307149},{"NoteNumber":57,"Velocity":87,"Duration":85557,"SoundDuration":85557,"Delta":194646055},{"NoteNumber":51,"Velocity":77,"Duration":85557,"SoundDuration":85557,"Delta":194646055},{"NoteNumber":54,"Velocity":77,"Duration":85557,"SoundDuration":85557,"Delta":194646055},{"NoteNumber":45,"Velocity":77,"Duration":85557,"SoundDuration":85557,"Delta":194646055},{"NoteNumber":72,"Velocity":81,"Duration":85557,"SoundDuration":85557,"Delta":194902728},{"NoteNumber":78,"Velocity":87,"Duration":247934,"SoundDuration":247934,"Delta":194988286},{"NoteNumber":75,"Velocity":84,"Duration":88736,"SoundDuration":88736,"Delta":195236220},{"NoteNumber":79,"Velocity":95,"Duration":508359,"SoundDuration":508359,"Delta":195324957},{"NoteNumber":46,"Velocity":77,"Duration":84726,"SoundDuration":84726,"Delta":195663863},{"NoteNumber":58,"Velocity":87,"Duration":84726,"SoundDuration":84726,"Delta":195663863},{"NoteNumber":55,"Velocity":77,"Duration":84726,"SoundDuration":84726,"Delta":195663863},{"NoteNumber":51,"Velocity":77,"Duration":84726,"SoundDuration":84726,"Delta":195663863},{"NoteNumber":75,"Velocity":85,"Duration":169452,"SoundDuration":169452,"Delta":195833316},{"NoteNumber":75,"Velocity":93,"Duration":166242,"SoundDuration":166242,"Delta":196002769},{"NoteNumber":70,"Velocity":79,"Duration":124681,"SoundDuration":124681,"Delta":196169011},{"NoteNumber":70,"Velocity":88,"Duration":166242,"SoundDuration":166242,"Delta":196335253},{"NoteNumber":67,"Velocity":78,"Duration":124681,"SoundDuration":124681,"Delta":196501495},{"NoteNumber":67,"Velocity":85,"Duration":163934,"SoundDuration":163934,"Delta":196667737},{"NoteNumber":63,"Velocity":77,"Duration":125874,"SoundDuration":125874,"Delta":196831671},{"NoteNumber":63,"Velocity":81,"Duration":163487,"SoundDuration":163487,"Delta":196999503},{"NoteNumber":58,"Velocity":77,"Duration":126276,"SoundDuration":126276,"Delta":197162991},{"NoteNumber":58,"Velocity":81,"Duration":163934,"SoundDuration":163934,"Delta":197331360},{"NoteNumber":55,"Velocity":77,"Duration":126682,"SoundDuration":126682,"Delta":197495294},{"NoteNumber":55,"Velocity":82,"Duration":165718,"SoundDuration":165718,"Delta":197664204},{"NoteNumber":51,"Velocity":77,"Duration":127920,"SoundDuration":127920,"Delta":197829922},{"NoteNumber":51,"Velocity":83,"Duration":166242,"SoundDuration":166242,"Delta":198000483},{"NoteNumber":46,"Velocity":77,"Duration":148114,"SoundDuration":148114,"Delta":198166725},{"NoteNumber":46,"Velocity":92,"Duration":1064935,"SoundDuration":1064935,"Delta":198364211},{"NoteNumber":34,"Velocity":78,"Duration":1064935,"SoundDuration":1064935,"Delta":198364211},{"NoteNumber":58,"Velocity":66,"Duration":359799,"SoundDuration":359799,"Delta":199069347},{"NoteNumber":62,"Velocity":78,"Duration":359799,"SoundDuration":359799,"Delta":199069347},{"NoteNumber":56,"Velocity":70,"Duration":359799,"SoundDuration":359799,"Delta":199069347},{"NoteNumber":53,"Velocity":59,"Duration":359799,"SoundDuration":359799,"Delta":199069347},{"NoteNumber":58,"Velocity":70,"Duration":359798,"SoundDuration":359798,"Delta":199429146},{"NoteNumber":63,"Velocity":83,"Duration":359798,"SoundDuration":359798,"Delta":199429146},{"NoteNumber":55,"Velocity":79,"Duration":359798,"SoundDuration":359798,"Delta":199429146},{"NoteNumber":39,"Velocity":67,"Duration":359798,"SoundDuration":359798,"Delta":199429146},{"NoteNumber":46,"Velocity":51,"Duration":1748936,"SoundDuration":1748936,"Delta":199788945},{"NoteNumber":45,"Velocity":51,"Duration":346740,"SoundDuration":346740,"Delta":200135686},{"NoteNumber":44,"Velocity":51,"Duration":356145,"SoundDuration":356145,"Delta":200482427},{"NoteNumber":70,"Velocity":53,"Duration":346741,"SoundDuration":346741,"Delta":200838573},{"NoteNumber":65,"Velocity":42,"Duration":346741,"SoundDuration":346741,"Delta":200838573},{"NoteNumber":68,"Velocity":42,"Duration":346741,"SoundDuration":346741,"Delta":200838573},{"NoteNumber":62,"Velocity":42,"Duration":346741,"SoundDuration":346741,"Delta":200838573},{"NoteNumber":43,"Velocity":49,"Duration":346741,"SoundDuration":346741,"Delta":200838573},{"NoteNumber":62,"Velocity":38,"Duration":352567,"SoundDuration":352567,"Delta":201185314},{"NoteNumber":65,"Velocity":38,"Duration":352567,"SoundDuration":352567,"Delta":201185314},{"NoteNumber":68,"Velocity":38,"Duration":352567,"SoundDuration":352567,"Delta":201185314},{"NoteNumber":70,"Velocity":48,"Duration":352567,"SoundDuration":352567,"Delta":201185314},{"NoteNumber":41,"Velocity":49,"Duration":352567,"SoundDuration":352567,"Delta":201185314},{"NoteNumber":63,"Velocity":42,"Duration":695774,"SoundDuration":695774,"Delta":201537882},{"NoteNumber":67,"Velocity":42,"Duration":695774,"SoundDuration":695774,"Delta":201537882},{"NoteNumber":72,"Velocity":53,"Duration":347886,"SoundDuration":347886,"Delta":201537882},{"NoteNumber":39,"Velocity":51,"Duration":347886,"SoundDuration":347886,"Delta":201537882},{"NoteNumber":70,"Velocity":49,"Duration":347887,"SoundDuration":347887,"Delta":201885769},{"NoteNumber":43,"Velocity":47,"Duration":347887,"SoundDuration":347887,"Delta":201885769},{"NoteNumber":46,"Velocity":47,"Duration":347886,"SoundDuration":347886,"Delta":202233656},{"NoteNumber":34,"Velocity":51,"Duration":359799,"SoundDuration":359799,"Delta":202581543},{"NoteNumber":65,"Velocity":42,"Duration":346741,"SoundDuration":346741,"Delta":202941342},{"NoteNumber":68,"Velocity":42,"Duration":346741,"SoundDuration":346741,"Delta":202941342},{"NoteNumber":74,"Velocity":53,"Duration":346741,"SoundDuration":346741,"Delta":202941342},{"NoteNumber":41,"Velocity":48,"Duration":346741,"SoundDuration":346741,"Delta":202941342},{"NoteNumber":65,"Velocity":38,"Duration":352567,"SoundDuration":352567,"Delta":203288083},{"NoteNumber":68,"Velocity":38,"Duration":352567,"SoundDuration":352567,"Delta":203288083},{"NoteNumber":74,"Velocity":48,"Duration":352567,"SoundDuration":352567,"Delta":203288083},{"NoteNumber":46,"Velocity":48,"Duration":352567,"SoundDuration":352567,"Delta":203288083},{"NoteNumber":67,"Velocity":42,"Duration":693482,"SoundDuration":693482,"Delta":203640651},{"NoteNumber":70,"Velocity":42,"Duration":693482,"SoundDuration":693482,"Delta":203640651},{"NoteNumber":77,"Velocity":53,"Duration":346741,"SoundDuration":346741,"Delta":203640651},{"NoteNumber":39,"Velocity":67,"Duration":346741,"SoundDuration":346741,"Delta":203640651},{"NoteNumber":75,"Velocity":49,"Duration":346741,"SoundDuration":346741,"Delta":203987392},{"NoteNumber":46,"Velocity":51,"Duration":1748936,"SoundDuration":1748936,"Delta":203987392},{"NoteNumber":45,"Velocity":51,"Duration":346740,"SoundDuration":346740,"Delta":204334133},{"NoteNumber":44,"Velocity":51,"Duration":356145,"SoundDuration":356145,"Delta":204680874},{"NoteNumber":62,"Velocity":42,"Duration":346741,"SoundDuration":346741,"Delta":205037020},{"NoteNumber":65,"Velocity":42,"Duration":346741,"SoundDuration":346741,"Delta":205037020},{"NoteNumber":68,"Velocity":42,"Duration":346741,"SoundDuration":346741,"Delta":205037020},{"NoteNumber":70,"Velocity":53,"Duration":346741,"SoundDuration":346741,"Delta":205037020},{"NoteNumber":43,"Velocity":49,"Duration":346741,"SoundDuration":346741,"Delta":205037020},{"NoteNumber":70,"Velocity":48,"Duration":352567,"SoundDuration":352567,"Delta":205383761},{"NoteNumber":65,"Velocity":38,"Duration":352567,"SoundDuration":352567,"Delta":205383761},{"NoteNumber":68,"Velocity":38,"Duration":352567,"SoundDuration":352567,"Delta":205383761},{"NoteNumber":62,"Velocity":38,"Duration":352567,"SoundDuration":352567,"Delta":205383761},{"NoteNumber":41,"Velocity":49,"Duration":352567,"SoundDuration":352567,"Delta":205383761},{"NoteNumber":63,"Velocity":42,"Duration":695774,"SoundDuration":695774,"Delta":205736329},{"NoteNumber":67,"Velocity":42,"Duration":695774,"SoundDuration":695774,"Delta":205736329},{"NoteNumber":72,"Velocity":53,"Duration":347886,"SoundDuration":347886,"Delta":205736329},{"NoteNumber":39,"Velocity":51,"Duration":347886,"SoundDuration":347886,"Delta":205736329},{"NoteNumber":70,"Velocity":49,"Duration":347887,"SoundDuration":347887,"Delta":206084216},{"NoteNumber":43,"Velocity":47,"Duration":347887,"SoundDuration":347887,"Delta":206084216},{"NoteNumber":46,"Velocity":47,"Duration":347886,"SoundDuration":347886,"Delta":206432103},{"NoteNumber":34,"Velocity":51,"Duration":359799,"SoundDuration":359799,"Delta":206779990},{"NoteNumber":53,"Velocity":42,"Duration":346741,"SoundDuration":346741,"Delta":207139789},{"NoteNumber":56,"Velocity":42,"Duration":346741,"SoundDuration":346741,"Delta":207139789},{"NoteNumber":62,"Velocity":53,"Duration":346741,"SoundDuration":346741,"Delta":207139789},{"NoteNumber":41,"Velocity":48,"Duration":346741,"SoundDuration":346741,"Delta":207139789},{"NoteNumber":53,"Velocity":38,"Duration":352567,"SoundDuration":352567,"Delta":207486530},{"NoteNumber":56,"Velocity":38,"Duration":352567,"SoundDuration":352567,"Delta":207486530},{"NoteNumber":62,"Velocity":48,"Duration":352567,"SoundDuration":352567,"Delta":207486530},{"NoteNumber":46,"Velocity":48,"Duration":352567,"SoundDuration":352567,"Delta":207486530},{"NoteNumber":55,"Velocity":42,"Duration":693481,"SoundDuration":693481,"Delta":207839098},{"NoteNumber":58,"Velocity":42,"Duration":693481,"SoundDuration":693481,"Delta":207839098},{"NoteNumber":65,"Velocity":53,"Duration":346741,"SoundDuration":346741,"Delta":207839098},{"NoteNumber":39,"Velocity":51,"Duration":346741,"SoundDuration":346741,"Delta":207839098},{"NoteNumber":63,"Velocity":49,"Duration":346740,"SoundDuration":346740,"Delta":208185839},{"NoteNumber":43,"Velocity":47,"Duration":346740,"SoundDuration":346740,"Delta":208185839},{"NoteNumber":46,"Velocity":47,"Duration":346741,"SoundDuration":346741,"Delta":208532580},{"NoteNumber":34,"Velocity":51,"Duration":359799,"SoundDuration":359799,"Delta":208879321},{"NoteNumber":53,"Velocity":42,"Duration":346741,"SoundDuration":346741,"Delta":209239120},{"NoteNumber":56,"Velocity":42,"Duration":346741,"SoundDuration":346741,"Delta":209239120},{"NoteNumber":62,"Velocity":53,"Duration":346741,"SoundDuration":346741,"Delta":209239120},{"NoteNumber":41,"Velocity":48,"Duration":346741,"SoundDuration":346741,"Delta":209239120},{"NoteNumber":53,"Velocity":38,"Duration":375235,"SoundDuration":375235,"Delta":209585861},{"NoteNumber":56,"Velocity":38,"Duration":375235,"SoundDuration":375235,"Delta":209585861},{"NoteNumber":62,"Velocity":48,"Duration":375235,"SoundDuration":375235,"Delta":209585861},{"NoteNumber":46,"Velocity":48,"Duration":375235,"SoundDuration":375235,"Delta":209585861},{"NoteNumber":56,"Velocity":42,"Duration":1210791,"SoundDuration":1210791,"Delta":209961096},{"NoteNumber":62,"Velocity":42,"Duration":1210791,"SoundDuration":1210791,"Delta":209961096},{"NoteNumber":65,"Velocity":53,"Duration":1210791,"SoundDuration":1210791,"Delta":209961096},{"NoteNumber":39,"Velocity":51,"Duration":361053,"SoundDuration":361053,"Delta":209961096},{"NoteNumber":43,"Velocity":47,"Duration":384837,"SoundDuration":384837,"Delta":210322150},{"NoteNumber":46,"Velocity":47,"Duration":464900,"SoundDuration":464900,"Delta":210706987},{"NoteNumber":58,"Velocity":44,"Duration":464900,"SoundDuration":464900,"Delta":211171887},{"NoteNumber":63,"Velocity":49,"Duration":464900,"SoundDuration":464900,"Delta":211171887},{"NoteNumber":51,"Velocity":40,"Duration":464900,"SoundDuration":464900,"Delta":211171887},{"NoteNumber":55,"Velocity":44,"Duration":464900,"SoundDuration":464900,"Delta":211171887},{"NoteNumber":64,"Velocity":69,"Duration":490945,"SoundDuration":490945,"Delta":212566587},{"NoteNumber":67,"Velocity":69,"Duration":490945,"SoundDuration":490945,"Delta":212566587},{"NoteNumber":72,"Velocity":82,"Duration":490945,"SoundDuration":490945,"Delta":212566587},{"NoteNumber":60,"Velocity":70,"Duration":490945,"SoundDuration":490945,"Delta":212566587},{"NoteNumber":55,"Velocity":59,"Duration":490945,"SoundDuration":490945,"Delta":212566587},{"NoteNumber":52,"Velocity":59,"Duration":490945,"SoundDuration":490945,"Delta":212566587},{"NoteNumber":48,"Velocity":59,"Duration":490945,"SoundDuration":490945,"Delta":212566587},{"NoteNumber":67,"Velocity":70,"Duration":81824,"SoundDuration":81824,"Delta":213139356},{"NoteNumber":76,"Velocity":78,"Duration":238726,"SoundDuration":238726,"Delta":213221181},{"NoteNumber":72,"Velocity":70,"Duration":79575,"SoundDuration":79575,"Delta":213459907},{"NoteNumber":79,"Velocity":79,"Duration":238726,"SoundDuration":238726,"Delta":213539483},{"NoteNumber":76,"Velocity":70,"Duration":79575,"SoundDuration":79575,"Delta":213778209},{"NoteNumber":84,"Velocity":79,"Duration":238726,"SoundDuration":238726,"Delta":213857785},{"NoteNumber":79,"Velocity":70,"Duration":88438,"SoundDuration":88438,"Delta":214096511},{"NoteNumber":88,"Velocity":84,"Duration":81824,"SoundDuration":81824,"Delta":214184949},{"NoteNumber":88,"Velocity":84,"Duration":81824,"SoundDuration":81824,"Delta":214512246},{"NoteNumber":72,"Velocity":39,"Duration":166768,"SoundDuration":166768,"Delta":215191449},{"NoteNumber":76,"Velocity":46,"Duration":166768,"SoundDuration":166768,"Delta":215191449},{"NoteNumber":64,"Velocity":34,"Duration":166768,"SoundDuration":166768,"Delta":215191449},{"NoteNumber":67,"Velocity":41,"Duration":166768,"SoundDuration":166768,"Delta":215191449},{"NoteNumber":72,"Velocity":42,"Duration":676884,"SoundDuration":676884,"Delta":215524986},{"NoteNumber":76,"Velocity":50,"Duration":676884,"SoundDuration":676884,"Delta":215524986},{"NoteNumber":67,"Velocity":41,"Duration":676884,"SoundDuration":676884,"Delta":215524986},{"NoteNumber":64,"Velocity":34,"Duration":676884,"SoundDuration":676884,"Delta":215524986},{"NoteNumber":74,"Velocity":46,"Duration":392661,"SoundDuration":392661,"Delta":216201871},{"NoteNumber":71,"Velocity":39,"Duration":392661,"SoundDuration":392661,"Delta":216201871},{"NoteNumber":65,"Velocity":32,"Duration":392661,"SoundDuration":392661,"Delta":216201871},{"NoteNumber":68,"Velocity":38,"Duration":392661,"SoundDuration":392661,"Delta":216201871},{"NoteNumber":71,"Velocity":42,"Duration":490945,"SoundDuration":490945,"Delta":216602887},{"NoteNumber":74,"Velocity":50,"Duration":490945,"SoundDuration":490945,"Delta":216602887},{"NoteNumber":65,"Velocity":34,"Duration":490945,"SoundDuration":490945,"Delta":216602887},{"NoteNumber":68,"Velocity":41,"Duration":490945,"SoundDuration":490945,"Delta":216602887},{"NoteNumber":71,"Velocity":70,"Duration":81824,"SoundDuration":81824,"Delta":217175657},{"NoteNumber":77,"Velocity":78,"Duration":238726,"SoundDuration":238726,"Delta":217257481},{"NoteNumber":74,"Velocity":70,"Duration":79575,"SoundDuration":79575,"Delta":217496208},{"NoteNumber":83,"Velocity":79,"Duration":238726,"SoundDuration":238726,"Delta":217575783},{"NoteNumber":77,"Velocity":70,"Duration":79575,"SoundDuration":79575,"Delta":217814510},{"NoteNumber":86,"Velocity":79,"Duration":238726,"SoundDuration":238726,"Delta":217894085},{"NoteNumber":83,"Velocity":70,"Duration":88438,"SoundDuration":88438,"Delta":218132812},{"NoteNumber":89,"Velocity":84,"Duration":81824,"SoundDuration":81824,"Delta":218221250},{"NoteNumber":89,"Velocity":84,"Duration":81824,"SoundDuration":81824,"Delta":218548547},{"NoteNumber":74,"Velocity":39,"Duration":166768,"SoundDuration":166768,"Delta":219218075},{"NoteNumber":77,"Velocity":46,"Duration":166768,"SoundDuration":166768,"Delta":219218075},{"NoteNumber":65,"Velocity":34,"Duration":166768,"SoundDuration":166768,"Delta":219218075},{"NoteNumber":68,"Velocity":41,"Duration":166768,"SoundDuration":166768,"Delta":219218075},{"NoteNumber":74,"Velocity":42,"Duration":676884,"SoundDuration":676884,"Delta":219551612},{"NoteNumber":77,"Velocity":50,"Duration":676884,"SoundDuration":676884,"Delta":219551612},{"NoteNumber":68,"Velocity":41,"Duration":676884,"SoundDuration":676884,"Delta":219551612},{"NoteNumber":65,"Velocity":34,"Duration":676884,"SoundDuration":676884,"Delta":219551612},{"NoteNumber":76,"Velocity":46,"Duration":392661,"SoundDuration":392661,"Delta":220228497},{"NoteNumber":73,"Velocity":39,"Duration":392661,"SoundDuration":392661,"Delta":220228497},{"NoteNumber":67,"Velocity":32,"Duration":392661,"SoundDuration":392661,"Delta":220228497},{"NoteNumber":70,"Velocity":38,"Duration":392661,"SoundDuration":392661,"Delta":220228497},{"NoteNumber":73,"Velocity":42,"Duration":490945,"SoundDuration":490945,"Delta":220629513},{"NoteNumber":76,"Velocity":50,"Duration":490945,"SoundDuration":490945,"Delta":220629513},{"NoteNumber":67,"Velocity":34,"Duration":490945,"SoundDuration":490945,"Delta":220629513},{"NoteNumber":70,"Velocity":41,"Duration":490945,"SoundDuration":490945,"Delta":220629513},{"NoteNumber":70,"Velocity":70,"Duration":81824,"SoundDuration":81824,"Delta":221202283},{"NoteNumber":76,"Velocity":78,"Duration":238726,"SoundDuration":238726,"Delta":221284107},{"NoteNumber":73,"Velocity":70,"Duration":79575,"SoundDuration":79575,"Delta":221522834},{"NoteNumber":79,"Velocity":84,"Duration":238726,"SoundDuration":238726,"Delta":221602409},{"NoteNumber":76,"Velocity":70,"Duration":79575,"SoundDuration":79575,"Delta":221841136},{"NoteNumber":82,"Velocity":85,"Duration":238726,"SoundDuration":238726,"Delta":221920711},{"NoteNumber":79,"Velocity":70,"Duration":88438,"SoundDuration":88438,"Delta":222159438},{"NoteNumber":85,"Velocity":89,"Duration":81824,"SoundDuration":81824,"Delta":222247876},{"NoteNumber":67,"Velocity":87,"Duration":81067,"SoundDuration":81067,"Delta":222575173},{"NoteNumber":82,"Velocity":86,"Duration":83384,"SoundDuration":83384,"Delta":222899445},{"NoteNumber":64,"Velocity":85,"Duration":81318,"SoundDuration":81318,"Delta":223566519},{"NoteNumber":79,"Velocity":79,"Duration":82859,"SoundDuration":82859,"Delta":223891793},{"NoteNumber":65,"Velocity":42,"Duration":1001264,"SoundDuration":1001264,"Delta":224583638},{"NoteNumber":77,"Velocity":50,"Duration":1001264,"SoundDuration":1001264,"Delta":224583638},{"NoteNumber":53,"Velocity":40,"Duration":168067,"SoundDuration":168067,"Delta":224583638},{"NoteNumber":60,"Velocity":32,"Duration":167609,"SoundDuration":167609,"Delta":224751705},{"NoteNumber":56,"Velocity":34,"Duration":167090,"SoundDuration":167090,"Delta":224919315},{"NoteNumber":60,"Velocity":32,"Duration":166656,"SoundDuration":166656,"Delta":225086405},{"NoteNumber":53,"Velocity":34,"Duration":166164,"SoundDuration":166164,"Delta":225253062},{"NoteNumber":60,"Velocity":32,"Duration":165675,"SoundDuration":165675,"Delta":225419227},{"NoteNumber":84,"Velocity":53,"Duration":654270,"SoundDuration":654270,"Delta":225584903},{"NoteNumber":72,"Velocity":45,"Duration":654270,"SoundDuration":654270,"Delta":225584903},{"NoteNumber":53,"Velocity":40,"Duration":165289,"SoundDuration":165289,"Delta":225584903},{"NoteNumber":60,"Velocity":33,"Duration":165289,"SoundDuration":165289,"Delta":225750192},{"NoteNumber":56,"Velocity":34,"Duration":165289,"SoundDuration":165289,"Delta":225915482},{"NoteNumber":60,"Velocity":32,"Duration":165289,"SoundDuration":165289,"Delta":226080771},{"NoteNumber":84,"Velocity":50,"Duration":323691,"SoundDuration":323691,"Delta":226246061},{"NoteNumber":72,"Velocity":42,"Duration":323691,"SoundDuration":323691,"Delta":226246061},{"NoteNumber":53,"Velocity":35,"Duration":165289,"SoundDuration":165289,"Delta":226246061},{"NoteNumber":60,"Velocity":32,"Duration":165289,"SoundDuration":165289,"Delta":226411350},{"NoteNumber":84,"Velocity":54,"Duration":326087,"SoundDuration":326087,"Delta":226576640},{"NoteNumber":72,"Velocity":45,"Duration":326087,"SoundDuration":326087,"Delta":226576640},{"NoteNumber":55,"Velocity":40,"Duration":163043,"SoundDuration":163043,"Delta":226576640},{"NoteNumber":60,"Velocity":32,"Duration":163043,"SoundDuration":163043,"Delta":226739683},{"NoteNumber":83,"Velocity":50,"Duration":326087,"SoundDuration":326087,"Delta":226902727},{"NoteNumber":71,"Velocity":42,"Duration":326087,"SoundDuration":326087,"Delta":226902727},{"NoteNumber":58,"Velocity":34,"Duration":163043,"SoundDuration":163043,"Delta":226902727},{"NoteNumber":60,"Velocity":32,"Duration":163043,"SoundDuration":163043,"Delta":227065770},{"NoteNumber":85,"Velocity":50,"Duration":339943,"SoundDuration":339943,"Delta":227228814},{"NoteNumber":73,"Velocity":42,"Duration":339943,"SoundDuration":339943,"Delta":227228814},{"NoteNumber":55,"Velocity":37,"Duration":169971,"SoundDuration":169971,"Delta":227228814},{"NoteNumber":60,"Velocity":32,"Duration":169971,"SoundDuration":169971,"Delta":227398785},{"NoteNumber":72,"Velocity":42,"Duration":329669,"SoundDuration":329669,"Delta":227568757},{"NoteNumber":84,"Velocity":50,"Duration":329669,"SoundDuration":329669,"Delta":227568757},{"NoteNumber":52,"Velocity":32,"Duration":164835,"SoundDuration":164835,"Delta":227568757},{"NoteNumber":60,"Velocity":32,"Duration":164834,"SoundDuration":164834,"Delta":227733592},{"NoteNumber":82,"Velocity":50,"Duration":329669,"SoundDuration":329669,"Delta":227898427},{"NoteNumber":70,"Velocity":42,"Duration":329669,"SoundDuration":329669,"Delta":227898427},{"NoteNumber":55,"Velocity":35,"Duration":164835,"SoundDuration":164835,"Delta":227898427},{"NoteNumber":60,"Velocity":32,"Duration":164834,"SoundDuration":164834,"Delta":228063262},{"NoteNumber":79,"Velocity":50,"Duration":340909,"SoundDuration":340909,"Delta":228228097},{"NoteNumber":67,"Velocity":42,"Duration":340909,"SoundDuration":340909,"Delta":228228097},{"NoteNumber":52,"Velocity":37,"Duration":170454,"SoundDuration":170454,"Delta":228228097},{"NoteNumber":60,"Velocity":32,"Duration":170454,"SoundDuration":170454,"Delta":228398551},{"NoteNumber":76,"Velocity":56,"Duration":655738,"SoundDuration":655738,"Delta":228569006},{"NoteNumber":64,"Velocity":47,"Duration":655738,"SoundDuration":655738,"Delta":228569006},{"NoteNumber":48,"Velocity":40,"Duration":163934,"SoundDuration":163934,"Delta":228569006},{"NoteNumber":60,"Velocity":31,"Duration":163934,"SoundDuration":163934,"Delta":228732940},{"NoteNumber":52,"Velocity":36,"Duration":163934,"SoundDuration":163934,"Delta":228896875},{"NoteNumber":60,"Velocity":32,"Duration":163934,"SoundDuration":163934,"Delta":229060809},{"NoteNumber":67,"Velocity":50,"Duration":338983,"SoundDuration":338983,"Delta":229224744},{"NoteNumber":79,"Velocity":59,"Duration":338983,"SoundDuration":338983,"Delta":229224744},{"NoteNumber":55,"Velocity":38,"Duration":169491,"SoundDuration":169491,"Delta":229224744},{"NoteNumber":60,"Velocity":33,"Duration":169491,"SoundDuration":169491,"Delta":229394235},{"NoteNumber":84,"Velocity":65,"Duration":655738,"SoundDuration":655738,"Delta":229563727},{"NoteNumber":72,"Velocity":55,"Duration":655738,"SoundDuration":655738,"Delta":229563727},{"NoteNumber":52,"Velocity":45,"Duration":163934,"SoundDuration":163934,"Delta":229563727},{"NoteNumber":60,"Velocity":35,"Duration":163934,"SoundDuration":163934,"Delta":229727661},{"NoteNumber":55,"Velocity":38,"Duration":163934,"SoundDuration":163934,"Delta":229891596},{"NoteNumber":60,"Velocity":31,"Duration":163934,"SoundDuration":163934,"Delta":230055530},{"NoteNumber":79,"Velocity":59,"Duration":353982,"SoundDuration":353982,"Delta":230219465},{"NoteNumber":67,"Velocity":50,"Duration":353982,"SoundDuration":353982,"Delta":230219465},{"NoteNumber":58,"Velocity":37,"Duration":176990,"SoundDuration":176990,"Delta":230219465},{"NoteNumber":60,"Velocity":31,"Duration":176991,"SoundDuration":176991,"Delta":230396456},{"NoteNumber":70,"Velocity":54,"Duration":1013351,"SoundDuration":1013351,"Delta":230573447},{"NoteNumber":82,"Velocity":64,"Duration":1013351,"SoundDuration":1013351,"Delta":230573447},{"NoteNumber":53,"Velocity":45,"Duration":167131,"SoundDuration":167131,"Delta":230573447},{"NoteNumber":60,"Velocity":31,"Duration":167130,"SoundDuration":167130,"Delta":230740578},{"NoteNumber":56,"Velocity":36,"Duration":167131,"SoundDuration":167131,"Delta":230907709},{"NoteNumber":60,"Velocity":31,"Duration":167130,"SoundDuration":167130,"Delta":231074840},{"NoteNumber":53,"Velocity":36,"Duration":172414,"SoundDuration":172414,"Delta":231241971},{"NoteNumber":60,"Velocity":31,"Duration":172414,"SoundDuration":172414,"Delta":231414385},{"NoteNumber":80,"Velocity":58,"Duration":336133,"SoundDuration":336133,"Delta":231586799},{"NoteNumber":68,"Velocity":49,"Duration":336133,"SoundDuration":336133,"Delta":231586799},{"NoteNumber":53,"Velocity":40,"Duration":168067,"SoundDuration":168067,"Delta":231586799},{"NoteNumber":60,"Velocity":30,"Duration":168066,"SoundDuration":168066,"Delta":231754866},{"NoteNumber":52,"Velocity":42,"Duration":168067,"SoundDuration":168067,"Delta":231922933},{"NoteNumber":53,"Velocity":40,"Duration":168067,"SoundDuration":168067,"Delta":232091000},{"NoteNumber":69,"Velocity":48,"Duration":336133,"SoundDuration":336133,"Delta":232259067},{"NoteNumber":81,"Velocity":57,"Duration":336133,"SoundDuration":336133,"Delta":232259067},{"NoteNumber":51,"Velocity":49,"Duration":168067,"SoundDuration":168067,"Delta":232259067},{"NoteNumber":53,"Velocity":43,"Duration":168066,"SoundDuration":168066,"Delta":232427134},{"NoteNumber":70,"Velocity":52,"Duration":1001264,"SoundDuration":1001264,"Delta":232595201},{"NoteNumber":82,"Velocity":62,"Duration":1001264,"SoundDuration":1001264,"Delta":232595201},{"NoteNumber":49,"Velocity":52,"Duration":168067,"SoundDuration":168067,"Delta":232595201},{"NoteNumber":53,"Velocity":38,"Duration":167609,"SoundDuration":167609,"Delta":232763268},{"NoteNumber":48,"Velocity":43,"Duration":167090,"SoundDuration":167090,"Delta":232930878},{"NoteNumber":53,"Velocity":32,"Duration":166656,"SoundDuration":166656,"Delta":233097968},{"NoteNumber":49,"Velocity":38,"Duration":166164,"SoundDuration":166164,"Delta":233264625},{"NoteNumber":53,"Velocity":32,"Duration":165675,"SoundDuration":165675,"Delta":233430790},{"NoteNumber":89,"Velocity":66,"Duration":654270,"SoundDuration":654270,"Delta":233596465},{"NoteNumber":77,"Velocity":56,"Duration":654270,"SoundDuration":654270,"Delta":233596465},{"NoteNumber":46,"Velocity":45,"Duration":165289,"SoundDuration":165289,"Delta":233596465},{"NoteNumber":53,"Velocity":33,"Duration":165289,"SoundDuration":165289,"Delta":233761755},{"NoteNumber":48,"Velocity":34,"Duration":165289,"SoundDuration":165289,"Delta":233927044},{"NoteNumber":53,"Velocity":32,"Duration":165289,"SoundDuration":165289,"Delta":234092334},{"NoteNumber":89,"Velocity":62,"Duration":323691,"SoundDuration":323691,"Delta":234257623},{"NoteNumber":77,"Velocity":52,"Duration":323691,"SoundDuration":323691,"Delta":234257623},{"NoteNumber":49,"Velocity":35,"Duration":165289,"SoundDuration":165289,"Delta":234257623},{"NoteNumber":53,"Velocity":32,"Duration":165289,"SoundDuration":165289,"Delta":234422913},{"NoteNumber":89,"Velocity":68,"Duration":326087,"SoundDuration":326087,"Delta":234588202},{"NoteNumber":77,"Velocity":57,"Duration":326087,"SoundDuration":326087,"Delta":234588202},{"NoteNumber":48,"Velocity":46,"Duration":163043,"SoundDuration":163043,"Delta":234588202},{"NoteNumber":53,"Velocity":32,"Duration":163043,"SoundDuration":163043,"Delta":234751246},{"NoteNumber":88,"Velocity":62,"Duration":326087,"SoundDuration":326087,"Delta":234914289},{"NoteNumber":76,"Velocity":52,"Duration":326087,"SoundDuration":326087,"Delta":234914289},{"NoteNumber":51,"Velocity":34,"Duration":163043,"SoundDuration":163043,"Delta":234914289},{"NoteNumber":53,"Velocity":32,"Duration":163043,"SoundDuration":163043,"Delta":235077333},{"NoteNumber":90,"Velocity":62,"Duration":339943,"SoundDuration":339943,"Delta":235240376},{"NoteNumber":78,"Velocity":52,"Duration":339943,"SoundDuration":339943,"Delta":235240376},{"NoteNumber":48,"Velocity":37,"Duration":169971,"SoundDuration":169971,"Delta":235240376},{"NoteNumber":53,"Velocity":32,"Duration":169971,"SoundDuration":169971,"Delta":235410348},{"NoteNumber":77,"Velocity":52,"Duration":329669,"SoundDuration":329669,"Delta":235580319},{"NoteNumber":89,"Velocity":62,"Duration":329669,"SoundDuration":329669,"Delta":235580319},{"NoteNumber":45,"Velocity":40,"Duration":164835,"SoundDuration":164835,"Delta":235580319},{"NoteNumber":53,"Velocity":32,"Duration":164834,"SoundDuration":164834,"Delta":235745154},{"NoteNumber":87,"Velocity":62,"Duration":329669,"SoundDuration":329669,"Delta":235909989},{"NoteNumber":75,"Velocity":52,"Duration":329669,"SoundDuration":329669,"Delta":235909989},{"NoteNumber":48,"Velocity":35,"Duration":164835,"SoundDuration":164835,"Delta":235909989},{"NoteNumber":53,"Velocity":32,"Duration":164834,"SoundDuration":164834,"Delta":236074824},{"NoteNumber":84,"Velocity":62,"Duration":340909,"SoundDuration":340909,"Delta":236239659},{"NoteNumber":72,"Velocity":52,"Duration":340909,"SoundDuration":340909,"Delta":236239659},{"NoteNumber":45,"Velocity":37,"Duration":170454,"SoundDuration":170454,"Delta":236239659},{"NoteNumber":53,"Velocity":32,"Duration":170454,"SoundDuration":170454,"Delta":236410114},{"NoteNumber":81,"Velocity":70,"Duration":655738,"SoundDuration":655738,"Delta":236580568},{"NoteNumber":69,"Velocity":59,"Duration":655738,"SoundDuration":655738,"Delta":236580568},{"NoteNumber":41,"Velocity":40,"Duration":163934,"SoundDuration":163934,"Delta":236580568},{"NoteNumber":53,"Velocity":31,"Duration":163934,"SoundDuration":163934,"Delta":236744503},{"NoteNumber":45,"Velocity":45,"Duration":163934,"SoundDuration":163934,"Delta":236908437},{"NoteNumber":53,"Velocity":37,"Duration":163934,"SoundDuration":163934,"Delta":237072372},{"NoteNumber":72,"Velocity":61,"Duration":338983,"SoundDuration":338983,"Delta":237236306},{"NoteNumber":84,"Velocity":73,"Duration":338983,"SoundDuration":338983,"Delta":237236306},{"NoteNumber":48,"Velocity":46,"Duration":169491,"SoundDuration":169491,"Delta":237236306},{"NoteNumber":53,"Velocity":39,"Duration":169491,"SoundDuration":169491,"Delta":237405798},{"NoteNumber":89,"Velocity":81,"Duration":655738,"SoundDuration":655738,"Delta":237575289},{"NoteNumber":77,"Velocity":68,"Duration":655738,"SoundDuration":655738,"Delta":237575289},{"NoteNumber":45,"Velocity":51,"Duration":163934,"SoundDuration":163934,"Delta":237575289},{"NoteNumber":53,"Velocity":44,"Duration":163934,"SoundDuration":163934,"Delta":237739224},{"NoteNumber":48,"Velocity":38,"Duration":163934,"SoundDuration":163934,"Delta":237903158},{"NoteNumber":53,"Velocity":31,"Duration":163934,"SoundDuration":163934,"Delta":238067093},{"NoteNumber":84,"Velocity":73,"Duration":353982,"SoundDuration":353982,"Delta":238231027},{"NoteNumber":72,"Velocity":61,"Duration":353982,"SoundDuration":353982,"Delta":238231027},{"NoteNumber":51,"Velocity":37,"Duration":176990,"SoundDuration":176990,"Delta":238231027},{"NoteNumber":53,"Velocity":31,"Duration":176991,"SoundDuration":176991,"Delta":238408018},{"NoteNumber":75,"Velocity":68,"Duration":1013351,"SoundDuration":1013351,"Delta":238585009},{"NoteNumber":87,"Velocity":80,"Duration":1013351,"SoundDuration":1013351,"Delta":238585009},{"NoteNumber":46,"Velocity":45,"Duration":167131,"SoundDuration":167131,"Delta":238585009},{"NoteNumber":53,"Velocity":31,"Duration":167130,"SoundDuration":167130,"Delta":238752140},{"NoteNumber":49,"Velocity":36,"Duration":167131,"SoundDuration":167131,"Delta":238919271},{"NoteNumber":53,"Velocity":31,"Duration":167130,"SoundDuration":167130,"Delta":239086402},{"NoteNumber":46,"Velocity":36,"Duration":172414,"SoundDuration":172414,"Delta":239253533},{"NoteNumber":53,"Velocity":31,"Duration":172414,"SoundDuration":172414,"Delta":239425947},{"NoteNumber":85,"Velocity":72,"Duration":336133,"SoundDuration":336133,"Delta":239598361},{"NoteNumber":73,"Velocity":61,"Duration":336133,"SoundDuration":336133,"Delta":239598361},{"NoteNumber":46,"Velocity":40,"Duration":168067,"SoundDuration":168067,"Delta":239598361},{"NoteNumber":53,"Velocity":30,"Duration":168066,"SoundDuration":168066,"Delta":239766428},{"NoteNumber":49,"Velocity":33,"Duration":168067,"SoundDuration":168067,"Delta":239934495},{"NoteNumber":53,"Velocity":30,"Duration":168067,"SoundDuration":168067,"Delta":240102562},{"NoteNumber":73,"Velocity":61,"Duration":336133,"SoundDuration":336133,"Delta":240270629},{"NoteNumber":46,"Velocity":33,"Duration":168067,"SoundDuration":168067,"Delta":240270629},{"NoteNumber":53,"Velocity":30,"Duration":168066,"SoundDuration":168066,"Delta":240438696},{"NoteNumber":72,"Velocity":67,"Duration":665305,"SoundDuration":665305,"Delta":240606763},{"NoteNumber":44,"Velocity":40,"Duration":168067,"SoundDuration":168067,"Delta":240606763},{"NoteNumber":54,"Velocity":32,"Duration":165746,"SoundDuration":165746,"Delta":240774830},{"NoteNumber":51,"Velocity":48,"Duration":165745,"SoundDuration":165745,"Delta":240940576},{"NoteNumber":54,"Velocity":40,"Duration":165746,"SoundDuration":165746,"Delta":241106322},{"NoteNumber":75,"Velocity":61,"Duration":82872,"SoundDuration":82872,"Delta":241272068},{"NoteNumber":44,"Velocity":51,"Duration":165745,"SoundDuration":165745,"Delta":241272068},{"NoteNumber":77,"Velocity":57,"Duration":55248,"SoundDuration":55248,"Delta":241354941},{"NoteNumber":75,"Velocity":61,"Duration":56360,"SoundDuration":56360,"Delta":241410190},{"NoteNumber":54,"Velocity":46,"Duration":172414,"SoundDuration":172414,"Delta":241437814},{"NoteNumber":74,"Velocity":65,"Duration":57471,"SoundDuration":57471,"Delta":241466550},{"NoteNumber":75,"Velocity":69,"Duration":86207,"SoundDuration":86207,"Delta":241524021},{"NoteNumber":80,"Velocity":74,"Duration":670391,"SoundDuration":670391,"Delta":241610228},{"NoteNumber":44,"Velocity":52,"Duration":167597,"SoundDuration":167597,"Delta":241610228},{"NoteNumber":54,"Velocity":40,"Duration":167597,"SoundDuration":167597,"Delta":241777826},{"NoteNumber":48,"Velocity":40,"Duration":167597,"SoundDuration":167597,"Delta":241945424},{"NoteNumber":54,"Velocity":35,"Duration":167597,"SoundDuration":167597,"Delta":242113022},{"NoteNumber":75,"Velocity":66,"Duration":341510,"SoundDuration":341510,"Delta":242280620},{"NoteNumber":44,"Velocity":40,"Duration":167597,"SoundDuration":167597,"Delta":242280620},{"NoteNumber":54,"Velocity":34,"Duration":173912,"SoundDuration":173912,"Delta":242448218},{"NoteNumber":77,"Velocity":70,"Duration":332410,"SoundDuration":332410,"Delta":242622131},{"NoteNumber":49,"Velocity":40,"Duration":332410,"SoundDuration":332410,"Delta":242622131},{"NoteNumber":53,"Velocity":40,"Duration":332410,"SoundDuration":332410,"Delta":242622131},{"NoteNumber":76,"Velocity":61,"Duration":332409,"SoundDuration":332409,"Delta":242954541},{"NoteNumber":78,"Velocity":61,"Duration":342857,"SoundDuration":342857,"Delta":243286951},{"NoteNumber":77,"Velocity":70,"Duration":330579,"SoundDuration":330579,"Delta":243629808},{"NoteNumber":68,"Velocity":45,"Duration":330579,"SoundDuration":330579,"Delta":243629808},{"NoteNumber":75,"Velocity":61,"Duration":330579,"SoundDuration":330579,"Delta":243960387},{"NoteNumber":66,"Velocity":38,"Duration":330579,"SoundDuration":330579,"Delta":243960387},{"NoteNumber":72,"Velocity":61,"Duration":337078,"SoundDuration":337078,"Delta":244290966},{"NoteNumber":63,"Velocity":38,"Duration":337078,"SoundDuration":337078,"Delta":244290966},{"NoteNumber":80,"Velocity":70,"Duration":330579,"SoundDuration":330579,"Delta":244628045},{"NoteNumber":65,"Velocity":45,"Duration":330579,"SoundDuration":330579,"Delta":244628045},{"NoteNumber":79,"Velocity":61,"Duration":330579,"SoundDuration":330579,"Delta":244958624},{"NoteNumber":64,"Velocity":38,"Duration":330579,"SoundDuration":330579,"Delta":244958624},{"NoteNumber":82,"Velocity":61,"Duration":337078,"SoundDuration":337078,"Delta":245289203},{"NoteNumber":66,"Velocity":38,"Duration":337078,"SoundDuration":337078,"Delta":245289203},{"NoteNumber":80,"Velocity":70,"Duration":330579,"SoundDuration":330579,"Delta":245626282},{"NoteNumber":65,"Velocity":45,"Duration":330579,"SoundDuration":330579,"Delta":245626282},{"NoteNumber":78,"Velocity":61,"Duration":330579,"SoundDuration":330579,"Delta":245956861},{"NoteNumber":63,"Velocity":38,"Duration":330579,"SoundDuration":330579,"Delta":245956861},{"NoteNumber":75,"Velocity":61,"Duration":337078,"SoundDuration":337078,"Delta":246287440},{"NoteNumber":60,"Velocity":38,"Duration":337078,"SoundDuration":337078,"Delta":246287440},{"NoteNumber":77,"Velocity":70,"Duration":330579,"SoundDuration":330579,"Delta":246624519},{"NoteNumber":61,"Velocity":45,"Duration":330579,"SoundDuration":330579,"Delta":246624519},{"NoteNumber":76,"Velocity":61,"Duration":330579,"SoundDuration":330579,"Delta":246955098},{"NoteNumber":60,"Velocity":38,"Duration":330579,"SoundDuration":330579,"Delta":246955098},{"NoteNumber":78,"Velocity":61,"Duration":337078,"SoundDuration":337078,"Delta":247285677},{"NoteNumber":63,"Velocity":38,"Duration":337078,"SoundDuration":337078,"Delta":247285677},{"NoteNumber":77,"Velocity":70,"Duration":330579,"SoundDuration":330579,"Delta":247622756},{"NoteNumber":61,"Velocity":45,"Duration":330579,"SoundDuration":330579,"Delta":247622756},{"NoteNumber":75,"Velocity":61,"Duration":330579,"SoundDuration":330579,"Delta":247953335},{"NoteNumber":60,"Velocity":38,"Duration":330579,"SoundDuration":330579,"Delta":247953335},{"NoteNumber":72,"Velocity":61,"Duration":337078,"SoundDuration":337078,"Delta":248283914},{"NoteNumber":57,"Velocity":38,"Duration":337078,"SoundDuration":337078,"Delta":248283914},{"NoteNumber":73,"Velocity":66,"Duration":1005650,"SoundDuration":1005650,"Delta":248620993},{"NoteNumber":58,"Velocity":45,"Duration":331491,"SoundDuration":331491,"Delta":248620993},{"NoteNumber":61,"Velocity":37,"Duration":337078,"SoundDuration":337078,"Delta":248952485},{"NoteNumber":56,"Velocity":37,"Duration":337079,"SoundDuration":337079,"Delta":249289564},{"NoteNumber":82,"Velocity":71,"Duration":659721,"SoundDuration":659721,"Delta":249626643},{"NoteNumber":73,"Velocity":57,"Duration":659721,"SoundDuration":659721,"Delta":249626643},{"NoteNumber":55,"Velocity":45,"Duration":333333,"SoundDuration":333333,"Delta":249626643},{"NoteNumber":58,"Velocity":43,"Duration":333332,"SoundDuration":333332,"Delta":249959976},{"NoteNumber":82,"Velocity":74,"Duration":337644,"SoundDuration":337644,"Delta":250293309},{"NoteNumber":73,"Velocity":60,"Duration":337644,"SoundDuration":337644,"Delta":250293309},{"NoteNumber":53,"Velocity":48,"Duration":344828,"SoundDuration":344828,"Delta":250293309},{"NoteNumber":82,"Velocity":78,"Duration":1660229,"SoundDuration":1660229,"Delta":250638137},{"NoteNumber":72,"Velocity":63,"Duration":1660229,"SoundDuration":1660229,"Delta":250638137},{"NoteNumber":52,"Velocity":53,"Duration":331491,"SoundDuration":331491,"Delta":250638137},{"NoteNumber":55,"Velocity":44,"Duration":331491,"SoundDuration":331491,"Delta":250969629},{"NoteNumber":50,"Velocity":44,"Duration":334261,"SoundDuration":334261,"Delta":251301121},{"NoteNumber":48,"Velocity":52,"Duration":331491,"SoundDuration":331491,"Delta":251635383},{"NoteNumber":50,"Velocity":44,"Duration":331491,"SoundDuration":331491,"Delta":251966875},{"NoteNumber":67,"Velocity":61,"Duration":338028,"SoundDuration":338028,"Delta":252298367},{"NoteNumber":70,"Velocity":72,"Duration":338028,"SoundDuration":338028,"Delta":252298367},{"NoteNumber":52,"Velocity":44,"Duration":338028,"SoundDuration":338028,"Delta":252298367},{"NoteNumber":65,"Velocity":58,"Duration":997230,"SoundDuration":997230,"Delta":252636395},{"NoteNumber":68,"Velocity":69,"Duration":997230,"SoundDuration":997230,"Delta":252636395},{"NoteNumber":53,"Velocity":53,"Duration":332410,"SoundDuration":332410,"Delta":252636395},{"NoteNumber":56,"Velocity":45,"Duration":332409,"SoundDuration":332409,"Delta":252968805},{"NoteNumber":51,"Velocity":45,"Duration":332410,"SoundDuration":332410,"Delta":253301215},{"NoteNumber":80,"Velocity":78,"Duration":659721,"SoundDuration":659721,"Delta":253633625},{"NoteNumber":77,"Velocity":62,"Duration":659721,"SoundDuration":659721,"Delta":253633625},{"NoteNumber":50,"Velocity":45,"Duration":333333,"SoundDuration":333333,"Delta":253633625},{"NoteNumber":53,"Velocity":43,"Duration":333332,"SoundDuration":333332,"Delta":253966958},{"NoteNumber":77,"Velocity":66,"Duration":344828,"SoundDuration":344828,"Delta":254300291},{"NoteNumber":80,"Velocity":81,"Duration":344828,"SoundDuration":344828,"Delta":254300291},{"NoteNumber":48,"Velocity":48,"Duration":344828,"SoundDuration":344828,"Delta":254300291},{"NoteNumber":79,"Velocity":85,"Duration":1660230,"SoundDuration":1660230,"Delta":254645119},{"NoteNumber":77,"Velocity":69,"Duration":1660230,"SoundDuration":1660230,"Delta":254645119},{"NoteNumber":47,"Velocity":56,"Duration":331491,"SoundDuration":331491,"Delta":254645119},{"NoteNumber":50,"Velocity":46,"Duration":331491,"SoundDuration":331491,"Delta":254976611},{"NoteNumber":45,"Velocity":46,"Duration":334261,"SoundDuration":334261,"Delta":255308103},{"NoteNumber":43,"Velocity":55,"Duration":331491,"SoundDuration":331491,"Delta":255642365},{"NoteNumber":45,"Velocity":48,"Duration":331492,"SoundDuration":331492,"Delta":255973857},{"NoteNumber":62,"Velocity":61,"Duration":338028,"SoundDuration":338028,"Delta":256305349},{"NoteNumber":65,"Velocity":72,"Duration":338028,"SoundDuration":338028,"Delta":256305349},{"NoteNumber":47,"Velocity":48,"Duration":338028,"SoundDuration":338028,"Delta":256305349},{"NoteNumber":60,"Velocity":58,"Duration":332409,"SoundDuration":332409,"Delta":256643377},{"NoteNumber":63,"Velocity":69,"Duration":332409,"SoundDuration":332409,"Delta":256643377},{"NoteNumber":48,"Velocity":62,"Duration":332409,"SoundDuration":332409,"Delta":256643377},{"NoteNumber":51,"Velocity":52,"Duration":332410,"SoundDuration":332410,"Delta":256975787},{"NoteNumber":46,"Velocity":52,"Duration":332409,"SoundDuration":332409,"Delta":257308197},{"NoteNumber":72,"Velocity":72,"Duration":659721,"SoundDuration":659721,"Delta":257640607},{"NoteNumber":84,"Velocity":85,"Duration":659721,"SoundDuration":659721,"Delta":257640607},{"NoteNumber":75,"Velocity":72,"Duration":659721,"SoundDuration":659721,"Delta":257640607},{"NoteNumber":44,"Velocity":61,"Duration":333332,"SoundDuration":333332,"Delta":257640607},{"NoteNumber":48,"Velocity":53,"Duration":333333,"SoundDuration":333333,"Delta":257973940},{"NoteNumber":72,"Velocity":71,"Duration":337644,"SoundDuration":337644,"Delta":258307273},{"NoteNumber":75,"Velocity":71,"Duration":337644,"SoundDuration":337644,"Delta":258307273},{"NoteNumber":84,"Velocity":84,"Duration":337644,"SoundDuration":337644,"Delta":258307273},{"NoteNumber":43,"Velocity":53,"Duration":344828,"SoundDuration":344828,"Delta":258307273},{"NoteNumber":72,"Velocity":76,"Duration":997246,"SoundDuration":997246,"Delta":258652101},{"NoteNumber":84,"Velocity":90,"Duration":997246,"SoundDuration":997246,"Delta":258652101},{"NoteNumber":80,"Velocity":76,"Duration":997246,"SoundDuration":997246,"Delta":258652101},{"NoteNumber":41,"Velocity":61,"Duration":331492,"SoundDuration":331492,"Delta":258652101},{"NoteNumber":44,"Velocity":53,"Duration":331491,"SoundDuration":331491,"Delta":258983593},{"NoteNumber":39,"Velocity":53,"Duration":334262,"SoundDuration":334262,"Delta":259315085},{"NoteNumber":77,"Velocity":82,"Duration":659721,"SoundDuration":659721,"Delta":259649347},{"NoteNumber":89,"Velocity":97,"Duration":659721,"SoundDuration":659721,"Delta":259649347},{"NoteNumber":80,"Velocity":82,"Duration":659721,"SoundDuration":659721,"Delta":259649347},{"NoteNumber":38,"Velocity":70,"Duration":333332,"SoundDuration":333332,"Delta":259649347},{"NoteNumber":41,"Velocity":60,"Duration":333333,"SoundDuration":333333,"Delta":259982680},{"NoteNumber":77,"Velocity":81,"Duration":337644,"SoundDuration":337644,"Delta":260316013},{"NoteNumber":80,"Velocity":81,"Duration":337644,"SoundDuration":337644,"Delta":260316013},{"NoteNumber":89,"Velocity":96,"Duration":337644,"SoundDuration":337644,"Delta":260316013},{"NoteNumber":36,"Velocity":60,"Duration":344828,"SoundDuration":344828,"Delta":260316013},{"NoteNumber":79,"Velocity":87,"Duration":1665770,"SoundDuration":1665770,"Delta":260660841},{"NoteNumber":77,"Velocity":87,"Duration":1665770,"SoundDuration":1665770,"Delta":260660841},{"NoteNumber":89,"Velocity":103,"Duration":1665770,"SoundDuration":1665770,"Delta":260660841},{"NoteNumber":86,"Velocity":87,"Duration":1665770,"SoundDuration":1665770,"Delta":260660841},{"NoteNumber":35,"Velocity":70,"Duration":331492,"SoundDuration":331492,"Delta":260660841},{"NoteNumber":38,"Velocity":60,"Duration":331491,"SoundDuration":331491,"Delta":260992333},{"NoteNumber":33,"Velocity":60,"Duration":334262,"SoundDuration":334262,"Delta":261323825},{"NoteNumber":31,"Velocity":66,"Duration":334261,"SoundDuration":334261,"Delta":261658087},{"NoteNumber":33,"Velocity":57,"Duration":334262,"SoundDuration":334262,"Delta":261992349},{"NoteNumber":74,"Velocity":67,"Duration":331492,"SoundDuration":331492,"Delta":262326611},{"NoteNumber":77,"Velocity":79,"Duration":331492,"SoundDuration":331492,"Delta":262326611},{"NoteNumber":35,"Velocity":57,"Duration":331492,"SoundDuration":331492,"Delta":262326611},{"NoteNumber":72,"Velocity":72,"Duration":670391,"SoundDuration":670391,"Delta":262658103},{"NoteNumber":75,"Velocity":85,"Duration":670391,"SoundDuration":670391,"Delta":262658103},{"NoteNumber":36,"Velocity":62,"Duration":335195,"SoundDuration":335195,"Delta":262658103},{"NoteNumber":38,"Velocity":57,"Duration":335195,"SoundDuration":335195,"Delta":262993299},{"NoteNumber":67,"Velocity":64,"Duration":668571,"SoundDuration":668571,"Delta":263328495},{"NoteNumber":75,"Velocity":76,"Duration":668571,"SoundDuration":668571,"Delta":263328495},{"NoteNumber":39,"Velocity":62,"Duration":331492,"SoundDuration":331492,"Delta":263328495},{"NoteNumber":68,"Velocity":80,"Duration":674157,"SoundDuration":674157,"Delta":263659987},{"NoteNumber":41,"Velocity":57,"Duration":674157,"SoundDuration":674157,"Delta":263659987},{"NoteNumber":65,"Velocity":62,"Duration":337078,"SoundDuration":337078,"Delta":263997066},{"NoteNumber":74,"Velocity":74,"Duration":337078,"SoundDuration":337078,"Delta":263997066},{"NoteNumber":63,"Velocity":60,"Duration":329670,"SoundDuration":329670,"Delta":264334145},{"NoteNumber":69,"Velocity":60,"Duration":329670,"SoundDuration":329670,"Delta":264334145},{"NoteNumber":72,"Velocity":71,"Duration":329670,"SoundDuration":329670,"Delta":264334145},{"NoteNumber":42,"Velocity":50,"Duration":329670,"SoundDuration":329670,"Delta":264334145},{"NoteNumber":62,"Velocity":64,"Duration":337079,"SoundDuration":337079,"Delta":264663815},{"NoteNumber":67,"Velocity":64,"Duration":337079,"SoundDuration":337079,"Delta":264663815},{"NoteNumber":71,"Velocity":76,"Duration":337079,"SoundDuration":337079,"Delta":264663815},{"NoteNumber":43,"Velocity":57,"Duration":168539,"SoundDuration":168539,"Delta":264663815},{"NoteNumber":55,"Velocity":54,"Duration":337078,"SoundDuration":337078,"Delta":265000894},{"NoteNumber":71,"Velocity":48,"Duration":329670,"SoundDuration":329670,"Delta":265337973},{"NoteNumber":74,"Velocity":48,"Duration":329670,"SoundDuration":329670,"Delta":265337973},{"NoteNumber":79,"Velocity":57,"Duration":329670,"SoundDuration":329670,"Delta":265337973},{"NoteNumber":68,"Velocity":51,"Duration":335195,"SoundDuration":335195,"Delta":265667643},{"NoteNumber":72,"Velocity":51,"Duration":335195,"SoundDuration":335195,"Delta":265667643},{"NoteNumber":77,"Velocity":60,"Duration":335195,"SoundDuration":335195,"Delta":265667643},{"NoteNumber":55,"Velocity":45,"Duration":335195,"SoundDuration":335195,"Delta":266002839},{"NoteNumber":67,"Velocity":47,"Duration":330579,"SoundDuration":330579,"Delta":266338035},{"NoteNumber":70,"Velocity":47,"Duration":330579,"SoundDuration":330579,"Delta":266338035},{"NoteNumber":75,"Velocity":56,"Duration":330579,"SoundDuration":330579,"Delta":266338035},{"NoteNumber":65,"Velocity":51,"Duration":336134,"SoundDuration":336134,"Delta":266668614},{"NoteNumber":68,"Velocity":51,"Duration":336134,"SoundDuration":336134,"Delta":266668614},{"NoteNumber":74,"Velocity":60,"Duration":336134,"SoundDuration":336134,"Delta":266668614},{"NoteNumber":55,"Velocity":46,"Duration":336133,"SoundDuration":336133,"Delta":267004748},{"NoteNumber":63,"Velocity":48,"Duration":329670,"SoundDuration":329670,"Delta":267340882},{"NoteNumber":67,"Velocity":48,"Duration":329670,"SoundDuration":329670,"Delta":267340882},{"NoteNumber":72,"Velocity":57,"Duration":329670,"SoundDuration":329670,"Delta":267340882},{"NoteNumber":62,"Velocity":51,"Duration":337079,"SoundDuration":337079,"Delta":267670552},{"NoteNumber":65,"Velocity":51,"Duration":337079,"SoundDuration":337079,"Delta":267670552},{"NoteNumber":71,"Velocity":60,"Duration":337079,"SoundDuration":337079,"Delta":267670552},{"NoteNumber":55,"Velocity":47,"Duration":337078,"SoundDuration":337078,"Delta":268007631},{"NoteNumber":60,"Velocity":45,"Duration":330579,"SoundDuration":330579,"Delta":268344710},{"NoteNumber":63,"Velocity":45,"Duration":330579,"SoundDuration":330579,"Delta":268344710},{"NoteNumber":68,"Velocity":54,"Duration":330579,"SoundDuration":330579,"Delta":268344710},{"NoteNumber":59,"Velocity":51,"Duration":338028,"SoundDuration":338028,"Delta":268675289},{"NoteNumber":62,"Velocity":51,"Duration":338028,"SoundDuration":338028,"Delta":268675289},{"NoteNumber":67,"Velocity":60,"Duration":338028,"SoundDuration":338028,"Delta":268675289},{"NoteNumber":43,"Velocity":47,"Duration":338028,"SoundDuration":338028,"Delta":269013317},{"NoteNumber":71,"Velocity":43,"Duration":329670,"SoundDuration":329670,"Delta":269351345},{"NoteNumber":74,"Velocity":43,"Duration":329670,"SoundDuration":329670,"Delta":269351345},{"NoteNumber":79,"Velocity":51,"Duration":329670,"SoundDuration":329670,"Delta":269351345},{"NoteNumber":68,"Velocity":45,"Duration":335195,"SoundDuration":335195,"Delta":269681015},{"NoteNumber":72,"Velocity":45,"Duration":335195,"SoundDuration":335195,"Delta":269681015},{"NoteNumber":77,"Velocity":53,"Duration":335195,"SoundDuration":335195,"Delta":269681015},{"NoteNumber":43,"Velocity":39,"Duration":335195,"SoundDuration":335195,"Delta":270016211},{"NoteNumber":67,"Velocity":40,"Duration":330579,"SoundDuration":330579,"Delta":270351407},{"NoteNumber":70,"Velocity":40,"Duration":330579,"SoundDuration":330579,"Delta":270351407},{"NoteNumber":75,"Velocity":48,"Duration":330579,"SoundDuration":330579,"Delta":270351407},{"NoteNumber":65,"Velocity":43,"Duration":336134,"SoundDuration":336134,"Delta":270681986},{"NoteNumber":68,"Velocity":43,"Duration":336134,"SoundDuration":336134,"Delta":270681986},{"NoteNumber":74,"Velocity":51,"Duration":336134,"SoundDuration":336134,"Delta":270681986},{"NoteNumber":43,"Velocity":38,"Duration":336133,"SoundDuration":336133,"Delta":271018120},{"NoteNumber":63,"Velocity":39,"Duration":329670,"SoundDuration":329670,"Delta":271354254},{"NoteNumber":67,"Velocity":39,"Duration":329670,"SoundDuration":329670,"Delta":271354254},{"NoteNumber":72,"Velocity":47,"Duration":329670,"SoundDuration":329670,"Delta":271354254},{"NoteNumber":62,"Velocity":41,"Duration":337079,"SoundDuration":337079,"Delta":271683924},{"NoteNumber":65,"Velocity":41,"Duration":337079,"SoundDuration":337079,"Delta":271683924},{"NoteNumber":71,"Velocity":49,"Duration":337079,"SoundDuration":337079,"Delta":271683924},{"NoteNumber":43,"Velocity":37,"Duration":337078,"SoundDuration":337078,"Delta":272021003},{"NoteNumber":60,"Velocity":35,"Duration":330579,"SoundDuration":330579,"Delta":272358082},{"NoteNumber":63,"Velocity":35,"Duration":330579,"SoundDuration":330579,"Delta":272358082},{"NoteNumber":68,"Velocity":42,"Duration":330579,"SoundDuration":330579,"Delta":272358082},{"NoteNumber":59,"Velocity":39,"Duration":338027,"SoundDuration":338027,"Delta":272688661},{"NoteNumber":62,"Velocity":39,"Duration":338027,"SoundDuration":338027,"Delta":272688661},{"NoteNumber":67,"Velocity":46,"Duration":338027,"SoundDuration":338027,"Delta":272688661},{"NoteNumber":31,"Velocity":36,"Duration":340204,"SoundDuration":340204,"Delta":273026689},{"NoteNumber":43,"Velocity":36,"Duration":340204,"SoundDuration":340204,"Delta":273026689},{"NoteNumber":60,"Velocity":34,"Duration":345495,"SoundDuration":345495,"Delta":273366894},{"NoteNumber":56,"Velocity":34,"Duration":345495,"SoundDuration":345495,"Delta":273366894},{"NoteNumber":65,"Velocity":41,"Duration":345495,"SoundDuration":345495,"Delta":273366894},{"NoteNumber":55,"Velocity":36,"Duration":355809,"SoundDuration":355809,"Delta":273712389},{"NoteNumber":60,"Velocity":36,"Duration":355809,"SoundDuration":355809,"Delta":273712389},{"NoteNumber":63,"Velocity":43,"Duration":355809,"SoundDuration":355809,"Delta":273712389},{"NoteNumber":31,"Velocity":28,"Duration":376175,"SoundDuration":376175,"Delta":274068199},{"NoteNumber":43,"Velocity":33,"Duration":376175,"SoundDuration":376175,"Delta":274068199},{"NoteNumber":53,"Velocity":32,"Duration":433213,"SoundDuration":433213,"Delta":274444375},{"NoteNumber":59,"Velocity":32,"Duration":433213,"SoundDuration":433213,"Delta":274444375},{"NoteNumber":62,"Velocity":38,"Duration":433213,"SoundDuration":433213,"Delta":274444375},{"NoteNumber":51,"Velocity":69,"Duration":490945,"SoundDuration":490945,"Delta":274877588},{"NoteNumber":55,"Velocity":69,"Duration":490945,"SoundDuration":490945,"Delta":274877588},{"NoteNumber":60,"Velocity":82,"Duration":490945,"SoundDuration":490945,"Delta":274877588},{"NoteNumber":48,"Velocity":70,"Duration":490945,"SoundDuration":490945,"Delta":274877588},{"NoteNumber":43,"Velocity":59,"Duration":490945,"SoundDuration":490945,"Delta":274877588},{"NoteNumber":39,"Velocity":59,"Duration":490945,"SoundDuration":490945,"Delta":274877588},{"NoteNumber":36,"Velocity":59,"Duration":490945,"SoundDuration":490945,"Delta":274877588},{"NoteNumber":67,"Velocity":70,"Duration":81824,"SoundDuration":81824,"Delta":275450358},{"NoteNumber":75,"Velocity":78,"Duration":238726,"SoundDuration":238726,"Delta":275532182},{"NoteNumber":72,"Velocity":70,"Duration":79575,"SoundDuration":79575,"Delta":275770909},{"NoteNumber":79,"Velocity":79,"Duration":238726,"SoundDuration":238726,"Delta":275850484},{"NoteNumber":75,"Velocity":70,"Duration":79575,"SoundDuration":79575,"Delta":276089211},{"NoteNumber":84,"Velocity":79,"Duration":238726,"SoundDuration":238726,"Delta":276168786},{"NoteNumber":79,"Velocity":70,"Duration":88438,"SoundDuration":88438,"Delta":276407513},{"NoteNumber":87,"Velocity":84,"Duration":81824,"SoundDuration":81824,"Delta":276495951},{"NoteNumber":87,"Velocity":84,"Duration":81824,"SoundDuration":81824,"Delta":276823248},{"NoteNumber":67,"Velocity":39,"Duration":166768,"SoundDuration":166768,"Delta":277502451},{"NoteNumber":72,"Velocity":46,"Duration":166768,"SoundDuration":166768,"Delta":277502451},{"NoteNumber":60,"Velocity":34,"Duration":166768,"SoundDuration":166768,"Delta":277502451},{"NoteNumber":63,"Velocity":41,"Duration":166768,"SoundDuration":166768,"Delta":277502451},{"NoteNumber":67,"Velocity":42,"Duration":676885,"SoundDuration":676885,"Delta":277835988},{"NoteNumber":72,"Velocity":50,"Duration":676885,"SoundDuration":676885,"Delta":277835988},{"NoteNumber":63,"Velocity":41,"Duration":676885,"SoundDuration":676885,"Delta":277835988},{"NoteNumber":60,"Velocity":34,"Duration":676885,"SoundDuration":676885,"Delta":277835988},{"NoteNumber":67,"Velocity":39,"Duration":392661,"SoundDuration":392661,"Delta":278512873},{"NoteNumber":62,"Velocity":32,"Duration":392661,"SoundDuration":392661,"Delta":278512873},{"NoteNumber":65,"Velocity":38,"Duration":392661,"SoundDuration":392661,"Delta":278512873},{"NoteNumber":71,"Velocity":46,"Duration":392661,"SoundDuration":392661,"Delta":278521227},{"NoteNumber":68,"Velocity":69,"Duration":490945,"SoundDuration":490945,"Delta":278913889},{"NoteNumber":65,"Velocity":69,"Duration":490945,"SoundDuration":490945,"Delta":278913889},{"NoteNumber":71,"Velocity":82,"Duration":490945,"SoundDuration":490945,"Delta":278913889},{"NoteNumber":53,"Velocity":59,"Duration":490945,"SoundDuration":490945,"Delta":278913889},{"NoteNumber":59,"Velocity":59,"Duration":490945,"SoundDuration":490945,"Delta":278913889},{"NoteNumber":56,"Velocity":59,"Duration":490945,"SoundDuration":490945,"Delta":278913889},{"NoteNumber":62,"Velocity":70,"Duration":490945,"SoundDuration":490945,"Delta":278913889},{"NoteNumber":50,"Velocity":59,"Duration":490945,"SoundDuration":490945,"Delta":278913889},{"NoteNumber":71,"Velocity":70,"Duration":81824,"SoundDuration":81824,"Delta":279486659},{"NoteNumber":77,"Velocity":78,"Duration":238726,"SoundDuration":238726,"Delta":279568483},{"NoteNumber":74,"Velocity":70,"Duration":79575,"SoundDuration":79575,"Delta":279807209},{"NoteNumber":83,"Velocity":79,"Duration":238726,"SoundDuration":238726,"Delta":279886785},{"NoteNumber":77,"Velocity":70,"Duration":79575,"SoundDuration":79575,"Delta":280125511},{"NoteNumber":86,"Velocity":79,"Duration":238726,"SoundDuration":238726,"Delta":280205087},{"NoteNumber":83,"Velocity":70,"Duration":88438,"SoundDuration":88438,"Delta":280443813},{"NoteNumber":89,"Velocity":84,"Duration":81824,"SoundDuration":81824,"Delta":280532252},{"NoteNumber":89,"Velocity":84,"Duration":81824,"SoundDuration":81824,"Delta":280859549},{"NoteNumber":71,"Velocity":39,"Duration":166768,"SoundDuration":166768,"Delta":281529077},{"NoteNumber":74,"Velocity":46,"Duration":166768,"SoundDuration":166768,"Delta":281529077},{"NoteNumber":62,"Velocity":34,"Duration":166768,"SoundDuration":166768,"Delta":281529077},{"NoteNumber":68,"Velocity":41,"Duration":166768,"SoundDuration":166768,"Delta":281529077},{"NoteNumber":65,"Velocity":34,"Duration":166768,"SoundDuration":166768,"Delta":281529077},{"NoteNumber":71,"Velocity":42,"Duration":676885,"SoundDuration":676885,"Delta":281862614},{"NoteNumber":74,"Velocity":50,"Duration":676885,"SoundDuration":676885,"Delta":281862614},{"NoteNumber":68,"Velocity":41,"Duration":676885,"SoundDuration":676885,"Delta":281862614},{"NoteNumber":65,"Velocity":34,"Duration":676885,"SoundDuration":676885,"Delta":281862614},{"NoteNumber":62,"Velocity":34,"Duration":676885,"SoundDuration":676885,"Delta":281862614},{"NoteNumber":72,"Velocity":46,"Duration":333902,"SoundDuration":333902,"Delta":282539499},{"NoteNumber":67,"Velocity":38,"Duration":430470,"SoundDuration":430470,"Delta":282539499},{"NoteNumber":63,"Velocity":32,"Duration":430470,"SoundDuration":430470,"Delta":282539499},{"NoteNumber":72,"Velocity":45,"Duration":48284,"SoundDuration":48284,"Delta":282873401},{"NoteNumber":75,"Velocity":48,"Duration":48284,"SoundDuration":48284,"Delta":282921685},{"NoteNumber":79,"Velocity":53,"Duration":494017,"SoundDuration":494017,"Delta":282969969},{"NoteNumber":77,"Velocity":41,"Duration":164672,"SoundDuration":164672,"Delta":283463987},{"NoteNumber":75,"Velocity":51,"Duration":351390,"SoundDuration":351390,"Delta":283628659},{"NoteNumber":60,"Velocity":35,"Duration":351390,"SoundDuration":351390,"Delta":283628659},{"NoteNumber":55,"Velocity":29,"Duration":351390,"SoundDuration":351390,"Delta":283628659},{"NoteNumber":51,"Velocity":29,"Duration":351390,"SoundDuration":351390,"Delta":283628659},{"NoteNumber":74,"Velocity":47,"Duration":675637,"SoundDuration":675637,"Delta":283980050},{"NoteNumber":53,"Velocity":33,"Duration":675637,"SoundDuration":675637,"Delta":283980050},{"NoteNumber":56,"Velocity":33,"Duration":675637,"SoundDuration":675637,"Delta":283980050},{"NoteNumber":59,"Velocity":39,"Duration":675637,"SoundDuration":675637,"Delta":283980050},{"NoteNumber":72,"Velocity":39,"Duration":305415,"SoundDuration":305415,"Delta":284655688},{"NoteNumber":60,"Velocity":34,"Duration":401984,"SoundDuration":401984,"Delta":284655688},{"NoteNumber":55,"Velocity":28,"Duration":401984,"SoundDuration":401984,"Delta":284655688},{"NoteNumber":51,"Velocity":28,"Duration":401984,"SoundDuration":401984,"Delta":284655688},{"NoteNumber":67,"Velocity":27,"Duration":32189,"SoundDuration":32189,"Delta":284961104},{"NoteNumber":72,"Velocity":45,"Duration":32189,"SoundDuration":32189,"Delta":284993294},{"NoteNumber":75,"Velocity":48,"Duration":32189,"SoundDuration":32189,"Delta":285025483},{"NoteNumber":79,"Velocity":53,"Duration":494017,"SoundDuration":494017,"Delta":285057673},{"NoteNumber":77,"Velocity":41,"Duration":164672,"SoundDuration":164672,"Delta":285551690},{"NoteNumber":72,"Velocity":43,"Duration":351390,"SoundDuration":351390,"Delta":285716363},{"NoteNumber":75,"Velocity":51,"Duration":351390,"SoundDuration":351390,"Delta":285716363},{"NoteNumber":63,"Velocity":29,"Duration":351390,"SoundDuration":351390,"Delta":285716363},{"NoteNumber":67,"Velocity":35,"Duration":351390,"SoundDuration":351390,"Delta":285716363},{"NoteNumber":71,"Velocity":39,"Duration":675637,"SoundDuration":675637,"Delta":286067754},{"NoteNumber":74,"Velocity":47,"Duration":675637,"SoundDuration":675637,"Delta":286067754},{"NoteNumber":68,"Velocity":39,"Duration":675637,"SoundDuration":675637,"Delta":286067754},{"NoteNumber":65,"Velocity":33,"Duration":675637,"SoundDuration":675637,"Delta":286067754},{"NoteNumber":72,"Velocity":39,"Duration":253364,"SoundDuration":253364,"Delta":286743392},{"NoteNumber":63,"Velocity":28,"Duration":349932,"SoundDuration":349932,"Delta":286743392},{"NoteNumber":67,"Velocity":34,"Duration":285553,"SoundDuration":285553,"Delta":286743392},{"NoteNumber":67,"Velocity":60,"Duration":96568,"SoundDuration":96568,"Delta":286996756},{"NoteNumber":72,"Velocity":63,"Duration":32189,"SoundDuration":32189,"Delta":287028945},{"NoteNumber":75,"Velocity":69,"Duration":32189,"SoundDuration":32189,"Delta":287061135},{"NoteNumber":67,"Velocity":69,"Duration":487804,"SoundDuration":487804,"Delta":287093324},{"NoteNumber":79,"Velocity":81,"Duration":487804,"SoundDuration":487804,"Delta":287093324},{"NoteNumber":77,"Velocity":61,"Duration":162601,"SoundDuration":162601,"Delta":287581129},{"NoteNumber":65,"Velocity":51,"Duration":162601,"SoundDuration":162601,"Delta":287581129},{"NoteNumber":75,"Velocity":73,"Duration":675272,"SoundDuration":675272,"Delta":287743730},{"NoteNumber":63,"Velocity":62,"Duration":675272,"SoundDuration":675272,"Delta":287743730},{"NoteNumber":55,"Velocity":39,"Duration":345601,"SoundDuration":345601,"Delta":287743730},{"NoteNumber":60,"Velocity":47,"Duration":345601,"SoundDuration":345601,"Delta":287743730},{"NoteNumber":51,"Velocity":39,"Duration":345601,"SoundDuration":345601,"Delta":287743730},{"NoteNumber":59,"Velocity":53,"Duration":669690,"SoundDuration":669690,"Delta":288089332},{"NoteNumber":53,"Velocity":45,"Duration":669690,"SoundDuration":669690,"Delta":288089332},{"NoteNumber":56,"Velocity":45,"Duration":669690,"SoundDuration":669690,"Delta":288089332},{"NoteNumber":74,"Velocity":72,"Duration":85005,"SoundDuration":85005,"Delta":288419002},{"NoteNumber":62,"Velocity":61,"Duration":85005,"SoundDuration":85005,"Delta":288419002},{"NoteNumber":72,"Velocity":75,"Duration":671901,"SoundDuration":671901,"Delta":288759022},{"NoteNumber":60,"Velocity":63,"Duration":671901,"SoundDuration":671901,"Delta":288759022},{"NoteNumber":55,"Velocity":46,"Duration":329670,"SoundDuration":329670,"Delta":288759022},{"NoteNumber":51,"Velocity":39,"Duration":329670,"SoundDuration":329670,"Delta":288759022},{"NoteNumber":50,"Velocity":46,"Duration":672810,"SoundDuration":672810,"Delta":289088692},{"NoteNumber":53,"Velocity":56,"Duration":672810,"SoundDuration":672810,"Delta":289088692},{"NoteNumber":59,"Velocity":63,"Duration":82644,"SoundDuration":82644,"Delta":289430923},{"NoteNumber":71,"Velocity":75,"Duration":82644,"SoundDuration":82644,"Delta":289430923},{"NoteNumber":56,"Velocity":62,"Duration":699354,"SoundDuration":699354,"Delta":289761502},{"NoteNumber":68,"Velocity":74,"Duration":699354,"SoundDuration":699354,"Delta":289761502},{"NoteNumber":51,"Velocity":49,"Duration":353752,"SoundDuration":353752,"Delta":289761502},{"NoteNumber":48,"Velocity":41,"Duration":353752,"SoundDuration":353752,"Delta":289761502},{"NoteNumber":50,"Velocity":47,"Duration":345601,"SoundDuration":345601,"Delta":290115255},{"NoteNumber":47,"Velocity":56,"Duration":345601,"SoundDuration":345601,"Delta":290115255},{"NoteNumber":55,"Velocity":57,"Duration":175695,"SoundDuration":175695,"Delta":290460857},{"NoteNumber":67,"Velocity":67,"Duration":175695,"SoundDuration":175695,"Delta":290460857},{"NoteNumber":59,"Velocity":42,"Duration":114076,"SoundDuration":114076,"Delta":291505870},{"NoteNumber":62,"Velocity":35,"Duration":114077,"SoundDuration":114077,"Delta":291619947},{"NoteNumber":65,"Velocity":35,"Duration":114072,"SoundDuration":114072,"Delta":291734024},{"NoteNumber":68,"Velocity":43,"Duration":114900,"SoundDuration":114900,"Delta":291848097},{"NoteNumber":56,"Velocity":34,"Duration":354234,"SoundDuration":354234,"Delta":291848097},{"NoteNumber":53,"Velocity":28,"Duration":354234,"SoundDuration":354234,"Delta":291848097},{"NoteNumber":50,"Velocity":28,"Duration":354234,"SoundDuration":354234,"Delta":291848097},{"NoteNumber":47,"Velocity":28,"Duration":354234,"SoundDuration":354234,"Delta":291848097},{"NoteNumber":67,"Velocity":36,"Duration":118023,"SoundDuration":118023,"Delta":291962997},{"NoteNumber":65,"Velocity":36,"Duration":121309,"SoundDuration":121309,"Delta":292081021},{"NoteNumber":63,"Velocity":43,"Duration":85280,"SoundDuration":85280,"Delta":292202331},{"NoteNumber":55,"Velocity":34,"Duration":85280,"SoundDuration":85280,"Delta":292202331},{"NoteNumber":51,"Velocity":28,"Duration":85280,"SoundDuration":85280,"Delta":292202331},{"NoteNumber":48,"Velocity":28,"Duration":85280,"SoundDuration":85280,"Delta":292202331},{"NoteNumber":53,"Velocity":42,"Duration":114077,"SoundDuration":114077,"Delta":293566819},{"NoteNumber":56,"Velocity":35,"Duration":114077,"SoundDuration":114077,"Delta":293680896},{"NoteNumber":62,"Velocity":35,"Duration":114072,"SoundDuration":114072,"Delta":293794973},{"NoteNumber":65,"Velocity":43,"Duration":114900,"SoundDuration":114900,"Delta":293909046},{"NoteNumber":50,"Velocity":34,"Duration":354234,"SoundDuration":354234,"Delta":293909046},{"NoteNumber":44,"Velocity":28,"Duration":354234,"SoundDuration":354234,"Delta":293909046},{"NoteNumber":41,"Velocity":28,"Duration":354234,"SoundDuration":354234,"Delta":293909046},{"NoteNumber":63,"Velocity":36,"Duration":118023,"SoundDuration":118023,"Delta":294023946},{"NoteNumber":62,"Velocity":36,"Duration":121309,"SoundDuration":121309,"Delta":294141970},{"NoteNumber":60,"Velocity":43,"Duration":85280,"SoundDuration":85280,"Delta":294263280},{"NoteNumber":48,"Velocity":28,"Duration":85280,"SoundDuration":85280,"Delta":294263280},{"NoteNumber":43,"Velocity":28,"Duration":85280,"SoundDuration":85280,"Delta":294263280},{"NoteNumber":51,"Velocity":34,"Duration":85280,"SoundDuration":85280,"Delta":294263280},{"NoteNumber":55,"Velocity":66,"Duration":114077,"SoundDuration":114077,"Delta":295668217},{"NoteNumber":59,"Velocity":69,"Duration":114077,"SoundDuration":114077,"Delta":295782294},{"NoteNumber":62,"Velocity":72,"Duration":114072,"SoundDuration":114072,"Delta":295896371},{"NoteNumber":65,"Velocity":75,"Duration":114900,"SoundDuration":114900,"Delta":296010443},{"NoteNumber":43,"Velocity":73,"Duration":173510,"SoundDuration":173510,"Delta":296010443},{"NoteNumber":31,"Velocity":73,"Duration":173510,"SoundDuration":173510,"Delta":296010443},{"NoteNumber":62,"Velocity":67,"Duration":118023,"SoundDuration":118023,"Delta":296125344},{"NoteNumber":59,"Velocity":71,"Duration":121309,"SoundDuration":121309,"Delta":296243368},{"NoteNumber":60,"Velocity":94,"Duration":163648,"SoundDuration":163648,"Delta":296364678},{"NoteNumber":36,"Velocity":67,"Duration":163648,"SoundDuration":163648,"Delta":296364678},{"NoteNumber":48,"Velocity":80,"Duration":163648,"SoundDuration":163648,"Delta":296364678},{"NoteNumber":61,"Velocity":69,"Duration":2995000,"SoundDuration":2995000,"Delta":298328460},{"NoteNumber":59,"Velocity":50,"Duration":1006177,"SoundDuration":1006177,"Delta":299313411},{"NoteNumber":65,"Velocity":50,"Duration":669439,"SoundDuration":669439,"Delta":299650149},{"NoteNumber":73,"Velocity":45,"Duration":341121,"SoundDuration":341121,"Delta":299978466},{"NoteNumber":66,"Velocity":42,"Duration":1003872,"SoundDuration":1003872,"Delta":300319588},{"NoteNumber":73,"Velocity":50,"Duration":667134,"SoundDuration":667134,"Delta":300319588},{"NoteNumber":58,"Velocity":49,"Duration":1003872,"SoundDuration":1003872,"Delta":300319588},{"NoteNumber":73,"Velocity":45,"Duration":663019,"SoundDuration":663019,"Delta":300986722},{"NoteNumber":65,"Velocity":42,"Duration":999304,"SoundDuration":999304,"Delta":301323460},{"NoteNumber":59,"Velocity":34,"Duration":999304,"SoundDuration":999304,"Delta":301323460},{"NoteNumber":56,"Velocity":28,"Duration":999304,"SoundDuration":999304,"Delta":301323460},{"NoteNumber":75,"Velocity":45,"Duration":326281,"SoundDuration":326281,"Delta":301649742},{"NoteNumber":71,"Velocity":44,"Duration":678178,"SoundDuration":678178,"Delta":301976024},{"NoteNumber":66,"Velocity":42,"Duration":1013681,"SoundDuration":1013681,"Delta":302322765},{"NoteNumber":54,"Velocity":28,"Duration":1013681,"SoundDuration":1013681,"Delta":302322765},{"NoteNumber":61,"Velocity":33,"Duration":1013681,"SoundDuration":1013681,"Delta":302322765},{"NoteNumber":69,"Velocity":45,"Duration":341121,"SoundDuration":341121,"Delta":302654202},{"NoteNumber":70,"Velocity":45,"Duration":341122,"SoundDuration":341122,"Delta":302995324},{"NoteNumber":71,"Velocity":50,"Duration":997934,"SoundDuration":997934,"Delta":303336446},{"NoteNumber":73,"Velocity":60,"Duration":1995682,"SoundDuration":1995682,"Delta":303336446},{"NoteNumber":77,"Velocity":50,"Duration":664398,"SoundDuration":664398,"Delta":303669983},{"NoteNumber":85,"Velocity":45,"Duration":341121,"SoundDuration":341121,"Delta":303993259},{"NoteNumber":78,"Velocity":42,"Duration":997748,"SoundDuration":997748,"Delta":304334381},{"NoteNumber":85,"Velocity":50,"Duration":661010,"SoundDuration":661010,"Delta":304334381},{"NoteNumber":70,"Velocity":49,"Duration":997748,"SoundDuration":997748,"Delta":304334381},{"NoteNumber":85,"Velocity":45,"Duration":663019,"SoundDuration":663019,"Delta":304995391},{"NoteNumber":77,"Velocity":42,"Duration":990383,"SoundDuration":990383,"Delta":305332129},{"NoteNumber":68,"Velocity":28,"Duration":990383,"SoundDuration":990383,"Delta":305332129},{"NoteNumber":71,"Velocity":34,"Duration":990383,"SoundDuration":990383,"Delta":305332129},{"NoteNumber":87,"Velocity":45,"Duration":326281,"SoundDuration":326281,"Delta":305658411},{"NoteNumber":83,"Velocity":44,"Duration":664101,"SoundDuration":664101,"Delta":305984693},{"NoteNumber":78,"Velocity":42,"Duration":995475,"SoundDuration":995475,"Delta":306322512},{"NoteNumber":66,"Velocity":28,"Duration":995475,"SoundDuration":995475,"Delta":306322512},{"NoteNumber":73,"Velocity":33,"Duration":995475,"SoundDuration":995475,"Delta":306322512},{"NoteNumber":81,"Velocity":45,"Duration":334596,"SoundDuration":334596,"Delta":306648794},{"NoteNumber":82,"Velocity":45,"Duration":334597,"SoundDuration":334597,"Delta":306983391},{"NoteNumber":68,"Velocity":50,"Duration":1000146,"SoundDuration":1000146,"Delta":307317988},{"NoteNumber":70,"Velocity":60,"Duration":1999904,"SoundDuration":1999904,"Delta":307317988},{"NoteNumber":74,"Velocity":50,"Duration":663408,"SoundDuration":663408,"Delta":307654726},{"NoteNumber":82,"Velocity":45,"Duration":341121,"SoundDuration":341121,"Delta":307977012},{"NoteNumber":75,"Velocity":42,"Duration":999757,"SoundDuration":999757,"Delta":308318134},{"NoteNumber":82,"Velocity":50,"Duration":663020,"SoundDuration":663020,"Delta":308318134},{"NoteNumber":66,"Velocity":49,"Duration":999757,"SoundDuration":999757,"Delta":308318134},{"NoteNumber":82,"Velocity":45,"Duration":663019,"SoundDuration":663019,"Delta":308981154},{"NoteNumber":74,"Velocity":42,"Duration":990383,"SoundDuration":990383,"Delta":309317892},{"NoteNumber":65,"Velocity":44,"Duration":990383,"SoundDuration":990383,"Delta":309317892},{"NoteNumber":68,"Velocity":44,"Duration":990383,"SoundDuration":990383,"Delta":309317892},{"NoteNumber":83,"Velocity":45,"Duration":326281,"SoundDuration":326281,"Delta":309644174},{"NoteNumber":80,"Velocity":44,"Duration":669256,"SoundDuration":669256,"Delta":309970456},{"NoteNumber":70,"Velocity":49,"Duration":1007074,"SoundDuration":1007074,"Delta":310308275},{"NoteNumber":63,"Velocity":28,"Duration":1007074,"SoundDuration":1007074,"Delta":310308275},{"NoteNumber":66,"Velocity":33,"Duration":1007074,"SoundDuration":1007074,"Delta":310308275},{"NoteNumber":77,"Velocity":52,"Duration":337819,"SoundDuration":337819,"Delta":310639712},{"NoteNumber":78,"Velocity":52,"Duration":664100,"SoundDuration":664100,"Delta":310977531},{"NoteNumber":71,"Velocity":50,"Duration":999304,"SoundDuration":999304,"Delta":311315350},{"NoteNumber":61,"Velocity":42,"Duration":999304,"SoundDuration":999304,"Delta":311315350},{"NoteNumber":65,"Velocity":48,"Duration":999304,"SoundDuration":999304,"Delta":311315350},{"NoteNumber":80,"Velocity":55,"Duration":326281,"SoundDuration":326281,"Delta":311641632},{"NoteNumber":77,"Velocity":50,"Duration":678178,"SoundDuration":678178,"Delta":311967914},{"NoteNumber":72,"Velocity":42,"Duration":1013681,"SoundDuration":1013681,"Delta":312314655},{"NoteNumber":67,"Velocity":33,"Duration":1013681,"SoundDuration":1013681,"Delta":312314655},{"NoteNumber":60,"Velocity":28,"Duration":1013681,"SoundDuration":1013681,"Delta":312314655},{"NoteNumber":77,"Velocity":45,"Duration":341121,"SoundDuration":341121,"Delta":312646092},{"NoteNumber":76,"Velocity":45,"Duration":672559,"SoundDuration":672559,"Delta":312987214},{"NoteNumber":68,"Velocity":42,"Duration":672558,"SoundDuration":672558,"Delta":313328336},{"NoteNumber":59,"Velocity":33,"Duration":1013681,"SoundDuration":1013681,"Delta":313328336},{"NoteNumber":77,"Velocity":45,"Duration":341121,"SoundDuration":341121,"Delta":313659773},{"NoteNumber":65,"Velocity":28,"Duration":341122,"SoundDuration":341122,"Delta":314000895},{"NoteNumber":68,"Velocity":33,"Duration":341122,"SoundDuration":341122,"Delta":314000895},{"NoteNumber":64,"Velocity":32,"Duration":341121,"SoundDuration":341121,"Delta":314342017},{"NoteNumber":67,"Velocity":38,"Duration":341121,"SoundDuration":341121,"Delta":314342017},{"NoteNumber":60,"Velocity":42,"Duration":341121,"SoundDuration":341121,"Delta":314342017},{"NoteNumber":48,"Velocity":33,"Duration":2014118,"SoundDuration":2014118,"Delta":314342017},{"NoteNumber":55,"Velocity":33,"Duration":334596,"SoundDuration":334596,"Delta":314683139},{"NoteNumber":56,"Velocity":37,"Duration":334597,"SoundDuration":334597,"Delta":315017736},{"NoteNumber":58,"Velocity":41,"Duration":334596,"SoundDuration":334596,"Delta":315352333},{"NoteNumber":73,"Velocity":38,"Duration":163487,"SoundDuration":163487,"Delta":315686930},{"NoteNumber":53,"Velocity":33,"Duration":326975,"SoundDuration":326975,"Delta":315686930},{"NoteNumber":73,"Velocity":38,"Duration":171115,"SoundDuration":171115,"Delta":316013905},{"NoteNumber":55,"Velocity":35,"Duration":342231,"SoundDuration":342231,"Delta":316013905},{"NoteNumber":73,"Velocity":46,"Duration":332409,"SoundDuration":332409,"Delta":316356136},{"NoteNumber":48,"Velocity":42,"Duration":1999740,"SoundDuration":1999740,"Delta":316356136},{"NoteNumber":56,"Velocity":42,"Duration":332409,"SoundDuration":332409,"Delta":316356136},{"NoteNumber":72,"Velocity":38,"Duration":332410,"SoundDuration":332410,"Delta":316688546},{"NoteNumber":52,"Velocity":33,"Duration":332410,"SoundDuration":332410,"Delta":316688546},{"NoteNumber":53,"Velocity":33,"Duration":332409,"SoundDuration":332409,"Delta":317020956},{"NoteNumber":55,"Velocity":40,"Duration":332409,"SoundDuration":332409,"Delta":317353366},{"NoteNumber":70,"Velocity":38,"Duration":163934,"SoundDuration":163934,"Delta":317685776},{"NoteNumber":50,"Velocity":33,"Duration":327869,"SoundDuration":327869,"Delta":317685776},{"NoteNumber":70,"Velocity":38,"Duration":171115,"SoundDuration":171115,"Delta":318013645},{"NoteNumber":52,"Velocity":33,"Duration":342231,"SoundDuration":342231,"Delta":318013645},{"NoteNumber":70,"Velocity":43,"Duration":331492,"SoundDuration":331492,"Delta":318355876},{"NoteNumber":48,"Velocity":39,"Duration":1964395,"SoundDuration":1964395,"Delta":318355876},{"NoteNumber":53,"Velocity":39,"Duration":331492,"SoundDuration":331492,"Delta":318355876},{"NoteNumber":69,"Velocity":38,"Duration":331491,"SoundDuration":331491,"Delta":318687368},{"NoteNumber":55,"Velocity":33,"Duration":331491,"SoundDuration":331491,"Delta":318687368},{"NoteNumber":57,"Velocity":36,"Duration":331492,"SoundDuration":331492,"Delta":319018860},{"NoteNumber":58,"Velocity":40,"Duration":321715,"SoundDuration":321715,"Delta":319350352},{"NoteNumber":74,"Velocity":37,"Duration":160857,"SoundDuration":160857,"Delta":319511210},{"NoteNumber":73,"Velocity":38,"Duration":157894,"SoundDuration":157894,"Delta":319672068},{"NoteNumber":54,"Velocity":33,"Duration":315788,"SoundDuration":315788,"Delta":319672068},{"NoteNumber":74,"Velocity":34,"Duration":157894,"SoundDuration":157894,"Delta":319829962},{"NoteNumber":76,"Velocity":43,"Duration":157894,"SoundDuration":157894,"Delta":319987857},{"NoteNumber":55,"Velocity":33,"Duration":332414,"SoundDuration":332414,"Delta":319987857},{"NoteNumber":74,"Velocity":38,"Duration":174519,"SoundDuration":174519,"Delta":320145751},{"NoteNumber":57,"Velocity":42,"Duration":321715,"SoundDuration":321715,"Delta":320320271},{"NoteNumber":48,"Velocity":42,"Duration":1934190,"SoundDuration":1934190,"Delta":320320271},{"NoteNumber":72,"Velocity":36,"Duration":160857,"SoundDuration":160857,"Delta":320481129},{"NoteNumber":71,"Velocity":38,"Duration":157480,"SoundDuration":157480,"Delta":320641987},{"NoteNumber":52,"Velocity":33,"Duration":314960,"SoundDuration":314960,"Delta":320641987},{"NoteNumber":72,"Velocity":36,"Duration":157480,"SoundDuration":157480,"Delta":320799468},{"NoteNumber":74,"Velocity":44,"Duration":157480,"SoundDuration":157480,"Delta":320956948},{"NoteNumber":53,"Velocity":33,"Duration":331424,"SoundDuration":331424,"Delta":320956948},{"NoteNumber":72,"Velocity":38,"Duration":173943,"SoundDuration":173943,"Delta":321114429},{"NoteNumber":55,"Velocity":40,"Duration":325202,"SoundDuration":325202,"Delta":321288372},{"NoteNumber":70,"Velocity":36,"Duration":162601,"SoundDuration":162601,"Delta":321450974},{"NoteNumber":69,"Velocity":38,"Duration":157067,"SoundDuration":157067,"Delta":321613575},{"NoteNumber":50,"Velocity":33,"Duration":314136,"SoundDuration":314136,"Delta":321613575},{"NoteNumber":70,"Velocity":35,"Duration":157068,"SoundDuration":157068,"Delta":321770643},{"NoteNumber":72,"Velocity":44,"Duration":157067,"SoundDuration":157067,"Delta":321927711},{"NoteNumber":52,"Velocity":33,"Duration":326750,"SoundDuration":326750,"Delta":321927711},{"NoteNumber":70,"Velocity":37,"Duration":169682,"SoundDuration":169682,"Delta":322084779},{"NoteNumber":69,"Velocity":46,"Duration":1471951,"SoundDuration":1471951,"Delta":322254462},{"NoteNumber":53,"Velocity":40,"Duration":167075,"SoundDuration":167075,"Delta":322254462},{"NoteNumber":60,"Velocity":28,"Duration":166273,"SoundDuration":166273,"Delta":322421537},{"NoteNumber":57,"Velocity":33,"Duration":165447,"SoundDuration":165447,"Delta":322587810},{"NoteNumber":60,"Velocity":27,"Duration":164653,"SoundDuration":164653,"Delta":322753257},{"NoteNumber":55,"Velocity":33,"Duration":164350,"SoundDuration":164350,"Delta":322927487},{"NoteNumber":60,"Velocity":30,"Duration":162897,"SoundDuration":162897,"Delta":323082282},{"NoteNumber":53,"Velocity":38,"Duration":161234,"SoundDuration":161234,"Delta":323245179},{"NoteNumber":60,"Velocity":28,"Duration":160000,"SoundDuration":160000,"Delta":323406413},{"NoteNumber":55,"Velocity":43,"Duration":159999,"SoundDuration":159999,"Delta":323566413},{"NoteNumber":72,"Velocity":56,"Duration":160000,"SoundDuration":160000,"Delta":323726413},{"NoteNumber":60,"Velocity":38,"Duration":160000,"SoundDuration":160000,"Delta":323726413},{"NoteNumber":77,"Velocity":62,"Duration":332235,"SoundDuration":332235,"Delta":323886413},{"NoteNumber":57,"Velocity":51,"Duration":159999,"SoundDuration":159999,"Delta":323886413},{"NoteNumber":60,"Velocity":41,"Duration":172235,"SoundDuration":172235,"Delta":324046413},{"NoteNumber":77,"Velocity":63,"Duration":986111,"SoundDuration":986111,"Delta":324218649},{"NoteNumber":55,"Velocity":53,"Duration":169206,"SoundDuration":169206,"Delta":324218649},{"NoteNumber":60,"Velocity":40,"Duration":163952,"SoundDuration":163952,"Delta":324387855},{"NoteNumber":57,"Velocity":45,"Duration":162745,"SoundDuration":162745,"Delta":324551807},{"NoteNumber":60,"Velocity":35,"Duration":161743,"SoundDuration":161743,"Delta":324714553},{"NoteNumber":58,"Velocity":40,"Duration":162953,"SoundDuration":162953,"Delta":324876297},{"NoteNumber":60,"Velocity":33,"Duration":165509,"SoundDuration":165509,"Delta":325039250},{"NoteNumber":76,"Velocity":57,"Duration":334597,"SoundDuration":334597,"Delta":325204760},{"NoteNumber":55,"Velocity":39,"Duration":167298,"SoundDuration":167298,"Delta":325204760},{"NoteNumber":60,"Velocity":33,"Duration":167298,"SoundDuration":167298,"Delta":325372058},{"NoteNumber":57,"Velocity":41,"Duration":167298,"SoundDuration":167298,"Delta":325539357},{"NoteNumber":60,"Velocity":33,"Duration":167298,"SoundDuration":167298,"Delta":325706655},{"NoteNumber":58,"Velocity":41,"Duration":167298,"SoundDuration":167298,"Delta":325873954},{"NoteNumber":60,"Velocity":33,"Duration":167298,"SoundDuration":167298,"Delta":326041252},{"NoteNumber":72,"Velocity":51,"Duration":990523,"SoundDuration":990523,"Delta":326208551},{"NoteNumber":52,"Velocity":40,"Duration":167075,"SoundDuration":167075,"Delta":326208551},{"NoteNumber":60,"Velocity":28,"Duration":166273,"SoundDuration":166273,"Delta":326375626},{"NoteNumber":55,"Velocity":33,"Duration":165447,"SoundDuration":165447,"Delta":326541899},{"NoteNumber":60,"Velocity":27,"Duration":164653,"SoundDuration":164653,"Delta":326707347},{"NoteNumber":53,"Velocity":33,"Duration":163892,"SoundDuration":163892,"Delta":326872000},{"NoteNumber":60,"Velocity":30,"Duration":163181,"SoundDuration":163181,"Delta":327035893},{"NoteNumber":72,"Velocity":61,"Duration":163140,"SoundDuration":163140,"Delta":327199074},{"NoteNumber":52,"Velocity":38,"Duration":163140,"SoundDuration":163140,"Delta":327199074},{"NoteNumber":74,"Velocity":57,"Duration":53050,"SoundDuration":53050,"Delta":327362215},{"NoteNumber":60,"Velocity":28,"Duration":159151,"SoundDuration":159151,"Delta":327362215},{"NoteNumber":72,"Velocity":52,"Duration":53050,"SoundDuration":53050,"Delta":327415265},{"NoteNumber":71,"Velocity":52,"Duration":53050,"SoundDuration":53050,"Delta":327468315},{"NoteNumber":72,"Velocity":61,"Duration":159151,"SoundDuration":159151,"Delta":327521366},{"NoteNumber":53,"Velocity":47,"Duration":159151,"SoundDuration":159151,"Delta":327521366},{"NoteNumber":79,"Velocity":71,"Duration":159151,"SoundDuration":159151,"Delta":327680517},{"NoteNumber":60,"Velocity":41,"Duration":159151,"SoundDuration":159151,"Delta":327680517},{"NoteNumber":82,"Velocity":76,"Duration":331386,"SoundDuration":331386,"Delta":327839668},{"NoteNumber":55,"Velocity":49,"Duration":159150,"SoundDuration":159150,"Delta":327839668},{"NoteNumber":60,"Velocity":40,"Duration":172235,"SoundDuration":172235,"Delta":327998819},{"NoteNumber":82,"Velocity":78,"Duration":984940,"SoundDuration":984940,"Delta":328171054},{"NoteNumber":53,"Velocity":54,"Duration":168522,"SoundDuration":168522,"Delta":328171054},{"NoteNumber":60,"Velocity":43,"Duration":163385,"SoundDuration":163385,"Delta":328339577},{"NoteNumber":55,"Velocity":45,"Duration":161470,"SoundDuration":161470,"Delta":328502962},{"NoteNumber":60,"Velocity":37,"Duration":161480,"SoundDuration":161480,"Delta":328664433},{"NoteNumber":57,"Velocity":46,"Duration":163899,"SoundDuration":163899,"Delta":328825913},{"NoteNumber":60,"Velocity":33,"Duration":166182,"SoundDuration":166182,"Delta":328989812},{"NoteNumber":81,"Velocity":69,"Duration":334597,"SoundDuration":334597,"Delta":329155995},{"NoteNumber":53,"Velocity":44,"Duration":167298,"SoundDuration":167298,"Delta":329155995},{"NoteNumber":60,"Velocity":39,"Duration":167298,"SoundDuration":167298,"Delta":329323293},{"NoteNumber":55,"Velocity":41,"Duration":167298,"SoundDuration":167298,"Delta":329500351},{"NoteNumber":60,"Velocity":33,"Duration":167298,"SoundDuration":167298,"Delta":329657890},{"NoteNumber":57,"Velocity":41,"Duration":167298,"SoundDuration":167298,"Delta":329825189},{"NoteNumber":60,"Velocity":33,"Duration":167298,"SoundDuration":167298,"Delta":329992487},{"NoteNumber":69,"Velocity":56,"Duration":83092,"SoundDuration":83092,"Delta":330159786},{"NoteNumber":53,"Velocity":40,"Duration":165802,"SoundDuration":165802,"Delta":330159786},{"NoteNumber":70,"Velocity":58,"Duration":82481,"SoundDuration":82481,"Delta":330325588},{"NoteNumber":60,"Velocity":28,"Duration":164692,"SoundDuration":164692,"Delta":330325588},{"NoteNumber":72,"Velocity":60,"Duration":81959,"SoundDuration":81959,"Delta":330490280},{"NoteNumber":57,"Velocity":33,"Duration":163677,"SoundDuration":163677,"Delta":330490280},{"NoteNumber":74,"Velocity":62,"Duration":81451,"SoundDuration":81451,"Delta":330653958},{"NoteNumber":60,"Velocity":27,"Duration":162682,"SoundDuration":162682,"Delta":330653958},{"NoteNumber":76,"Velocity":64,"Duration":80968,"SoundDuration":80968,"Delta":330816641},{"NoteNumber":53,"Velocity":34,"Duration":161718,"SoundDuration":161718,"Delta":330816641},{"NoteNumber":77,"Velocity":65,"Duration":80490,"SoundDuration":80490,"Delta":330978359},{"NoteNumber":60,"Velocity":31,"Duration":160765,"SoundDuration":160765,"Delta":330978359},{"NoteNumber":79,"Velocity":67,"Duration":80017,"SoundDuration":80017,"Delta":331139125},{"NoteNumber":53,"Velocity":40,"Duration":160017,"SoundDuration":160017,"Delta":331139125},{"NoteNumber":81,"Velocity":71,"Duration":79155,"SoundDuration":79155,"Delta":331299142},{"NoteNumber":60,"Velocity":36,"Duration":158311,"SoundDuration":158311,"Delta":331299142},{"NoteNumber":82,"Velocity":74,"Duration":79155,"SoundDuration":79155,"Delta":331457454},{"NoteNumber":57,"Velocity":48,"Duration":158311,"SoundDuration":158311,"Delta":331457454},{"NoteNumber":84,"Velocity":77,"Duration":79155,"SoundDuration":79155,"Delta":331615765},{"NoteNumber":60,"Velocity":40,"Duration":158311,"SoundDuration":158311,"Delta":331615765},{"NoteNumber":86,"Velocity":80,"Duration":79155,"SoundDuration":79155,"Delta":331774077},{"NoteNumber":53,"Velocity":51,"Duration":158311,"SoundDuration":158311,"Delta":331774077},{"NoteNumber":88,"Velocity":83,"Duration":95237,"SoundDuration":95237,"Delta":331932388},{"NoteNumber":60,"Velocity":42,"Duration":190475,"SoundDuration":190475,"Delta":331932388},{"NoteNumber":89,"Velocity":90,"Duration":983346,"SoundDuration":983346,"Delta":332122864},{"NoteNumber":55,"Velocity":59,"Duration":170799,"SoundDuration":170799,"Delta":332122864},{"NoteNumber":60,"Velocity":47,"Duration":163327,"SoundDuration":163327,"Delta":332293664},{"NoteNumber":58,"Velocity":46,"Duration":162290,"SoundDuration":162290,"Delta":332456991},{"NoteNumber":60,"Velocity":38,"Duration":161267,"SoundDuration":161267,"Delta":332619281},{"NoteNumber":55,"Velocity":46,"Duration":162015,"SoundDuration":162015,"Delta":332780549},{"NoteNumber":60,"Velocity":37,"Duration":163646,"SoundDuration":163646,"Delta":332942564},{"NoteNumber":88,"Velocity":71,"Duration":328900,"SoundDuration":328900,"Delta":333106211},{"NoteNumber":55,"Velocity":44,"Duration":164517,"SoundDuration":164517,"Delta":333106211},{"NoteNumber":60,"Velocity":37,"Duration":164383,"SoundDuration":164383,"Delta":333270728},{"NoteNumber":58,"Velocity":47,"Duration":164383,"SoundDuration":164383,"Delta":333435112},{"NoteNumber":60,"Velocity":37,"Duration":164383,"SoundDuration":164383,"Delta":333599495},{"NoteNumber":55,"Velocity":47,"Duration":164383,"SoundDuration":164383,"Delta":333763879},{"NoteNumber":60,"Velocity":37,"Duration":163013,"SoundDuration":163013,"Delta":333928262},{"NoteNumber":60,"Velocity":56,"Duration":82191,"SoundDuration":82191,"Delta":334092646},{"NoteNumber":52,"Velocity":40,"Duration":164269,"SoundDuration":164269,"Delta":334092646},{"NoteNumber":62,"Velocity":58,"Duration":81943,"SoundDuration":81943,"Delta":334256915},{"NoteNumber":60,"Velocity":32,"Duration":163686,"SoundDuration":163686,"Delta":334256915},{"NoteNumber":64,"Velocity":60,"Duration":81630,"SoundDuration":81630,"Delta":334420602},{"NoteNumber":55,"Velocity":39,"Duration":163128,"SoundDuration":163128,"Delta":334420602},{"NoteNumber":65,"Velocity":62,"Duration":81300,"SoundDuration":81300,"Delta":334583731},{"NoteNumber":60,"Velocity":29,"Duration":162489,"SoundDuration":162489,"Delta":334583731},{"NoteNumber":67,"Velocity":64,"Duration":81057,"SoundDuration":81057,"Delta":334746221},{"NoteNumber":52,"Velocity":40,"Duration":161919,"SoundDuration":161919,"Delta":334746221},{"NoteNumber":69,"Velocity":65,"Duration":80752,"SoundDuration":80752,"Delta":334908140},{"NoteNumber":60,"Velocity":31,"Duration":161373,"SoundDuration":161373,"Delta":334908140},{"NoteNumber":70,"Velocity":71,"Duration":80429,"SoundDuration":80429,"Delta":335069514},{"NoteNumber":52,"Velocity":46,"Duration":160858,"SoundDuration":160858,"Delta":335069514},{"NoteNumber":72,"Velocity":71,"Duration":79575,"SoundDuration":79575,"Delta":335230372},{"NoteNumber":60,"Velocity":41,"Duration":159151,"SoundDuration":159151,"Delta":335230372},{"NoteNumber":74,"Velocity":73,"Duration":79575,"SoundDuration":79575,"Delta":335389523},{"NoteNumber":55,"Velocity":52,"Duration":159151,"SoundDuration":159151,"Delta":335389523},{"NoteNumber":76,"Velocity":75,"Duration":79575,"SoundDuration":79575,"Delta":335548674},{"NoteNumber":60,"Velocity":40,"Duration":159151,"SoundDuration":159151,"Delta":335548674},{"NoteNumber":77,"Velocity":82,"Duration":79575,"SoundDuration":79575,"Delta":335707825},{"NoteNumber":52,"Velocity":57,"Duration":159150,"SoundDuration":159150,"Delta":335707825},{"NoteNumber":79,"Velocity":84,"Duration":86117,"SoundDuration":86117,"Delta":335866976},{"NoteNumber":60,"Velocity":44,"Duration":172235,"SoundDuration":172235,"Delta":335866976},{"NoteNumber":80,"Velocity":92,"Duration":1341137,"SoundDuration":1341137,"Delta":336039212},{"NoteNumber":53,"Velocity":45,"Duration":172235,"SoundDuration":172235,"Delta":336039212},{"NoteNumber":60,"Velocity":36,"Duration":167298,"SoundDuration":167298,"Delta":336211447},{"NoteNumber":55,"Velocity":49,"Duration":166242,"SoundDuration":166242,"Delta":336378746},{"NoteNumber":60,"Velocity":42,"Duration":166242,"SoundDuration":166242,"Delta":336544988},{"NoteNumber":56,"Velocity":51,"Duration":166241,"SoundDuration":166241,"Delta":336711230},{"NoteNumber":60,"Velocity":44,"Duration":172235,"SoundDuration":172235,"Delta":336877472},{"NoteNumber":53,"Velocity":47,"Duration":167597,"SoundDuration":167597,"Delta":337049707},{"NoteNumber":60,"Velocity":37,"Duration":163043,"SoundDuration":163043,"Delta":337217305},{"NoteNumber":79,"Velocity":77,"Duration":326086,"SoundDuration":326086,"Delta":337380349},{"NoteNumber":55,"Velocity":41,"Duration":163043,"SoundDuration":163043,"Delta":337380349},{"NoteNumber":60,"Velocity":37,"Duration":163043,"SoundDuration":163043,"Delta":337543392},{"NoteNumber":77,"Velocity":77,"Duration":337970,"SoundDuration":337970,"Delta":337706436},{"NoteNumber":56,"Velocity":41,"Duration":163043,"SoundDuration":163043,"Delta":337706436},{"NoteNumber":60,"Velocity":37,"Duration":174927,"SoundDuration":174927,"Delta":337869479},{"NoteNumber":75,"Velocity":84,"Duration":743802,"SoundDuration":743802,"Delta":338044406},{"NoteNumber":55,"Velocity":51,"Duration":165289,"SoundDuration":165289,"Delta":338044406},{"NoteNumber":63,"Velocity":36,"Duration":165289,"SoundDuration":165289,"Delta":338209696},{"NoteNumber":60,"Velocity":41,"Duration":165289,"SoundDuration":165289,"Delta":338374985},{"NoteNumber":63,"Velocity":36,"Duration":165289,"SoundDuration":165289,"Delta":338540275},{"NoteNumber":55,"Velocity":41,"Duration":165289,"SoundDuration":165289,"Delta":338705564},{"NoteNumber":77,"Velocity":57,"Duration":55096,"SoundDuration":55096,"Delta":338788209},{"NoteNumber":75,"Velocity":61,"Duration":56449,"SoundDuration":56449,"Delta":338843306},{"NoteNumber":63,"Velocity":36,"Duration":173410,"SoundDuration":173410,"Delta":338870854},{"NoteNumber":74,"Velocity":65,"Duration":57803,"SoundDuration":57803,"Delta":338899756},{"NoteNumber":75,"Velocity":69,"Duration":86705,"SoundDuration":86705,"Delta":338957559},{"NoteNumber":79,"Velocity":84,"Duration":330579,"SoundDuration":330579,"Delta":339044264},{"NoteNumber":55,"Velocity":47,"Duration":165289,"SoundDuration":165289,"Delta":339044264},{"NoteNumber":62,"Velocity":36,"Duration":165289,"SoundDuration":165289,"Delta":339209554},{"NoteNumber":77,"Velocity":78,"Duration":334262,"SoundDuration":334262,"Delta":339374843},{"NoteNumber":59,"Velocity":42,"Duration":167130,"SoundDuration":167130,"Delta":339374843},{"NoteNumber":62,"Velocity":34,"Duration":167131,"SoundDuration":167131,"Delta":339541974},{"NoteNumber":74,"Velocity":78,"Duration":338522,"SoundDuration":338522,"Delta":339709105},{"NoteNumber":55,"Velocity":40,"Duration":168551,"SoundDuration":168551,"Delta":339709105},{"NoteNumber":62,"Velocity":35,"Duration":169971,"SoundDuration":169971,"Delta":339877657},{"NoteNumber":63,"Velocity":66,"Duration":1471951,"SoundDuration":1471951,"Delta":340047628},{"NoteNumber":75,"Velocity":89,"Duration":1471951,"SoundDuration":1471951,"Delta":340047628},{"NoteNumber":48,"Velocity":60,"Duration":167075,"SoundDuration":167075,"Delta":340047628},{"NoteNumber":55,"Velocity":37,"Duration":166273,"SoundDuration":166273,"Delta":340214704},{"NoteNumber":51,"Velocity":52,"Duration":165447,"SoundDuration":165447,"Delta":340380977},{"NoteNumber":55,"Velocity":36,"Duration":164653,"SoundDuration":164653,"Delta":340546424},{"NoteNumber":50,"Velocity":52,"Duration":164350,"SoundDuration":164350,"Delta":340720653},{"NoteNumber":55,"Velocity":46,"Duration":162897,"SoundDuration":162897,"Delta":340875448},{"NoteNumber":48,"Velocity":57,"Duration":161234,"SoundDuration":161234,"Delta":341038345},{"NoteNumber":55,"Velocity":46,"Duration":160000,"SoundDuration":160000,"Delta":341199580},{"NoteNumber":50,"Velocity":57,"Duration":159999,"SoundDuration":159999,"Delta":341359580},{"NoteNumber":67,"Velocity":63,"Duration":160000,"SoundDuration":160000,"Delta":341519580},{"NoteNumber":79,"Velocity":84,"Duration":160000,"SoundDuration":160000,"Delta":341519580},{"NoteNumber":55,"Velocity":50,"Duration":160000,"SoundDuration":160000,"Delta":341519580},{"NoteNumber":72,"Velocity":72,"Duration":332235,"SoundDuration":332235,"Delta":341679580},{"NoteNumber":84,"Velocity":97,"Duration":332235,"SoundDuration":332235,"Delta":341679580},{"NoteNumber":51,"Velocity":61,"Duration":159999,"SoundDuration":159999,"Delta":341679580},{"NoteNumber":55,"Velocity":56,"Duration":172235,"SoundDuration":172235,"Delta":341839580},{"NoteNumber":72,"Velocity":73,"Duration":986111,"SoundDuration":986111,"Delta":342011815},{"NoteNumber":84,"Velocity":98,"Duration":986111,"SoundDuration":986111,"Delta":342011815},{"NoteNumber":50,"Velocity":66,"Duration":169206,"SoundDuration":169206,"Delta":342011815},{"NoteNumber":55,"Velocity":43,"Duration":163952,"SoundDuration":163952,"Delta":342181021},{"NoteNumber":51,"Velocity":59,"Duration":162745,"SoundDuration":162745,"Delta":342344974},{"NoteNumber":55,"Velocity":51,"Duration":161743,"SoundDuration":161743,"Delta":342507719},{"NoteNumber":53,"Velocity":60,"Duration":162953,"SoundDuration":162953,"Delta":342669463},{"NoteNumber":55,"Velocity":53,"Duration":165509,"SoundDuration":165509,"Delta":342832417},{"NoteNumber":71,"Velocity":63,"Duration":334597,"SoundDuration":334597,"Delta":342997926},{"NoteNumber":83,"Velocity":85,"Duration":334597,"SoundDuration":334597,"Delta":342997926},{"NoteNumber":50,"Velocity":63,"Duration":167298,"SoundDuration":167298,"Delta":342997926},{"NoteNumber":55,"Velocity":44,"Duration":167298,"SoundDuration":167298,"Delta":343165225},{"NoteNumber":51,"Velocity":54,"Duration":167298,"SoundDuration":167298,"Delta":343332523},{"NoteNumber":55,"Velocity":44,"Duration":167298,"SoundDuration":167298,"Delta":343499822},{"NoteNumber":53,"Velocity":54,"Duration":167298,"SoundDuration":167298,"Delta":343667120},{"NoteNumber":55,"Velocity":44,"Duration":167298,"SoundDuration":167298,"Delta":343834419},{"NoteNumber":67,"Velocity":66,"Duration":1471951,"SoundDuration":1471951,"Delta":344001717},{"NoteNumber":79,"Velocity":89,"Duration":1471951,"SoundDuration":1471951,"Delta":344001717},{"NoteNumber":47,"Velocity":54,"Duration":167075,"SoundDuration":167075,"Delta":344001717},{"NoteNumber":55,"Velocity":37,"Duration":166273,"SoundDuration":166273,"Delta":344168793},{"NoteNumber":50,"Velocity":44,"Duration":165447,"SoundDuration":165447,"Delta":344335066},{"NoteNumber":55,"Velocity":36,"Duration":164653,"SoundDuration":164653,"Delta":344500513},{"NoteNumber":48,"Velocity":44,"Duration":164371,"SoundDuration":164371,"Delta":344665166},{"NoteNumber":55,"Velocity":40,"Duration":162897,"SoundDuration":162897,"Delta":344829537},{"NoteNumber":47,"Velocity":51,"Duration":161234,"SoundDuration":161234,"Delta":344992435},{"NoteNumber":55,"Velocity":44,"Duration":160000,"SoundDuration":160000,"Delta":345153669},{"NoteNumber":48,"Velocity":57,"Duration":159999,"SoundDuration":159999,"Delta":345313669},{"NoteNumber":74,"Velocity":63,"Duration":160000,"SoundDuration":160000,"Delta":345473669},{"NoteNumber":86,"Velocity":84,"Duration":160000,"SoundDuration":160000,"Delta":345473669},{"NoteNumber":55,"Velocity":52,"Duration":160000,"SoundDuration":160000,"Delta":345473669},{"NoteNumber":77,"Velocity":72,"Duration":325059,"SoundDuration":325059,"Delta":345633669},{"NoteNumber":89,"Velocity":97,"Duration":325059,"SoundDuration":325059,"Delta":345633669},{"NoteNumber":50,"Velocity":61,"Duration":159999,"SoundDuration":159999,"Delta":345633669},{"NoteNumber":55,"Velocity":46,"Duration":172235,"SoundDuration":172235,"Delta":345793669},{"NoteNumber":77,"Velocity":73,"Duration":986111,"SoundDuration":986111,"Delta":345965904},{"NoteNumber":89,"Velocity":98,"Duration":986111,"SoundDuration":986111,"Delta":345965904},{"NoteNumber":48,"Velocity":69,"Duration":169206,"SoundDuration":169206,"Delta":345965904},{"NoteNumber":55,"Velocity":53,"Duration":163952,"SoundDuration":163952,"Delta":346135110},{"NoteNumber":50,"Velocity":60,"Duration":162745,"SoundDuration":162745,"Delta":346299063},{"NoteNumber":55,"Velocity":44,"Duration":161743,"SoundDuration":161743,"Delta":346461809},{"NoteNumber":51,"Velocity":54,"Duration":162953,"SoundDuration":162953,"Delta":346623552},{"NoteNumber":55,"Velocity":44,"Duration":165509,"SoundDuration":165509,"Delta":346786506},{"NoteNumber":75,"Velocity":66,"Duration":334597,"SoundDuration":334597,"Delta":346952015},{"NoteNumber":87,"Velocity":88,"Duration":334597,"SoundDuration":334597,"Delta":346952015},{"NoteNumber":48,"Velocity":52,"Duration":167298,"SoundDuration":167298,"Delta":346952015},{"NoteNumber":55,"Velocity":44,"Duration":167298,"SoundDuration":167298,"Delta":347119314},{"NoteNumber":50,"Velocity":54,"Duration":167298,"SoundDuration":167298,"Delta":347286612},{"NoteNumber":55,"Velocity":44,"Duration":167298,"SoundDuration":167298,"Delta":347453911},{"NoteNumber":51,"Velocity":54,"Duration":167298,"SoundDuration":167298,"Delta":347621209},{"NoteNumber":55,"Velocity":44,"Duration":167298,"SoundDuration":167298,"Delta":347788508},{"NoteNumber":63,"Velocity":89,"Duration":167075,"SoundDuration":167075,"Delta":347955806},{"NoteNumber":48,"Velocity":54,"Duration":167075,"SoundDuration":167075,"Delta":347955806},{"NoteNumber":67,"Velocity":75,"Duration":166273,"SoundDuration":166273,"Delta":348122882},{"NoteNumber":55,"Velocity":37,"Duration":166273,"SoundDuration":166273,"Delta":348122882},{"NoteNumber":72,"Velocity":79,"Duration":165447,"SoundDuration":165447,"Delta":348289155},{"NoteNumber":51,"Velocity":44,"Duration":165447,"SoundDuration":165447,"Delta":348289155},{"NoteNumber":67,"Velocity":79,"Duration":164653,"SoundDuration":164653,"Delta":348454602},{"NoteNumber":55,"Velocity":36,"Duration":164653,"SoundDuration":164653,"Delta":348454602},{"NoteNumber":72,"Velocity":83,"Duration":164371,"SoundDuration":164371,"Delta":348619255},{"NoteNumber":48,"Velocity":44,"Duration":164371,"SoundDuration":164371,"Delta":348619255},{"NoteNumber":75,"Velocity":89,"Duration":162897,"SoundDuration":162897,"Delta":348783626},{"NoteNumber":55,"Velocity":40,"Duration":162897,"SoundDuration":162897,"Delta":348783626},{"NoteNumber":72,"Velocity":89,"Duration":161234,"SoundDuration":161234,"Delta":348946524},{"NoteNumber":48,"Velocity":51,"Duration":161234,"SoundDuration":161234,"Delta":348946524},{"NoteNumber":75,"Velocity":77,"Duration":160000,"SoundDuration":160000,"Delta":349107758},{"NoteNumber":55,"Velocity":42,"Duration":160000,"SoundDuration":160000,"Delta":349107758},{"NoteNumber":79,"Velocity":83,"Duration":159999,"SoundDuration":159999,"Delta":349267758},{"NoteNumber":51,"Velocity":51,"Duration":159999,"SoundDuration":159999,"Delta":349267758},{"NoteNumber":75,"Velocity":89,"Duration":160000,"SoundDuration":160000,"Delta":349427758},{"NoteNumber":55,"Velocity":42,"Duration":160000,"SoundDuration":160000,"Delta":349427758},{"NoteNumber":79,"Velocity":83,"Duration":159999,"SoundDuration":159999,"Delta":349587758},{"NoteNumber":48,"Velocity":60,"Duration":159999,"SoundDuration":159999,"Delta":349587758},{"NoteNumber":84,"Velocity":89,"Duration":165059,"SoundDuration":165059,"Delta":349747758},{"NoteNumber":55,"Velocity":53,"Duration":172235,"SoundDuration":172235,"Delta":349747758},{"NoteNumber":84,"Velocity":98,"Duration":986111,"SoundDuration":986111,"Delta":349919993},{"NoteNumber":50,"Velocity":66,"Duration":169206,"SoundDuration":169206,"Delta":349919993},{"NoteNumber":55,"Velocity":43,"Duration":163952,"SoundDuration":163952,"Delta":350089199},{"NoteNumber":53,"Velocity":54,"Duration":162745,"SoundDuration":162745,"Delta":350253152},{"NoteNumber":55,"Velocity":45,"Duration":161743,"SoundDuration":161743,"Delta":350415898},{"NoteNumber":50,"Velocity":54,"Duration":162953,"SoundDuration":162953,"Delta":350577641},{"NoteNumber":55,"Velocity":44,"Duration":165509,"SoundDuration":165509,"Delta":350740595},{"NoteNumber":83,"Velocity":92,"Duration":334597,"SoundDuration":334597,"Delta":350906104},{"NoteNumber":50,"Velocity":52,"Duration":167298,"SoundDuration":167298,"Delta":350906104},{"NoteNumber":55,"Velocity":44,"Duration":167298,"SoundDuration":167298,"Delta":351073403},{"NoteNumber":53,"Velocity":54,"Duration":167298,"SoundDuration":167298,"Delta":351240701},{"NoteNumber":55,"Velocity":44,"Duration":167298,"SoundDuration":167298,"Delta":351408000},{"NoteNumber":50,"Velocity":54,"Duration":167298,"SoundDuration":167298,"Delta":351575298},{"NoteNumber":55,"Velocity":44,"Duration":165904,"SoundDuration":165904,"Delta":351742597},{"NoteNumber":55,"Velocity":80,"Duration":167075,"SoundDuration":167075,"Delta":351909895},{"NoteNumber":47,"Velocity":54,"Duration":167075,"SoundDuration":167075,"Delta":351909895},{"NoteNumber":59,"Velocity":67,"Duration":166273,"SoundDuration":166273,"Delta":352076971},{"NoteNumber":55,"Velocity":37,"Duration":166273,"SoundDuration":166273,"Delta":352076971},{"NoteNumber":62,"Velocity":71,"Duration":165447,"SoundDuration":165447,"Delta":352243244},{"NoteNumber":50,"Velocity":49,"Duration":165447,"SoundDuration":165447,"Delta":352243244},{"NoteNumber":59,"Velocity":71,"Duration":164653,"SoundDuration":164653,"Delta":352408691},{"NoteNumber":55,"Velocity":36,"Duration":164653,"SoundDuration":164653,"Delta":352408691},{"NoteNumber":62,"Velocity":74,"Duration":164371,"SoundDuration":164371,"Delta":352573344},{"NoteNumber":47,"Velocity":50,"Duration":164371,"SoundDuration":164371,"Delta":352573344},{"NoteNumber":67,"Velocity":80,"Duration":162897,"SoundDuration":162897,"Delta":352737716},{"NoteNumber":55,"Velocity":40,"Duration":162897,"SoundDuration":162897,"Delta":352737716},{"NoteNumber":62,"Velocity":80,"Duration":161234,"SoundDuration":161234,"Delta":352900613},{"NoteNumber":47,"Velocity":58,"Duration":161234,"SoundDuration":161234,"Delta":352900613},{"NoteNumber":67,"Velocity":69,"Duration":160000,"SoundDuration":160000,"Delta":353061847},{"NoteNumber":55,"Velocity":45,"Duration":160000,"SoundDuration":160000,"Delta":353061847},{"NoteNumber":71,"Velocity":74,"Duration":159999,"SoundDuration":159999,"Delta":353221847},{"NoteNumber":50,"Velocity":51,"Duration":159999,"SoundDuration":159999,"Delta":353221847},{"NoteNumber":67,"Velocity":80,"Duration":160000,"SoundDuration":160000,"Delta":353381847},{"NoteNumber":55,"Velocity":45,"Duration":160000,"SoundDuration":160000,"Delta":353381847},{"NoteNumber":71,"Velocity":74,"Duration":159999,"SoundDuration":159999,"Delta":353541847},{"NoteNumber":47,"Velocity":56,"Duration":159999,"SoundDuration":159999,"Delta":353541847},{"NoteNumber":74,"Velocity":80,"Duration":172235,"SoundDuration":172235,"Delta":353701847},{"NoteNumber":55,"Velocity":37,"Duration":172235,"SoundDuration":172235,"Delta":353701847},{"NoteNumber":75,"Velocity":86,"Duration":339534,"SoundDuration":339534,"Delta":353874082},{"NoteNumber":48,"Velocity":43,"Duration":167298,"SoundDuration":167298,"Delta":354046318},{"NoteNumber":47,"Velocity":61,"Duration":166242,"SoundDuration":166242,"Delta":354213616},{"NoteNumber":48,"Velocity":44,"Duration":166242,"SoundDuration":166242,"Delta":354379858},{"NoteNumber":84,"Velocity":100,"Duration":1000839,"SoundDuration":1000839,"Delta":354546100},{"NoteNumber":47,"Velocity":63,"Duration":166241,"SoundDuration":166241,"Delta":354546100},{"NoteNumber":48,"Velocity":50,"Duration":172235,"SoundDuration":172235,"Delta":354712342},{"NoteNumber":40,"Velocity":67,"Duration":166768,"SoundDuration":166768,"Delta":354884578},{"NoteNumber":48,"Velocity":52,"Duration":165197,"SoundDuration":165197,"Delta":355051346},{"NoteNumber":41,"Velocity":57,"Duration":165198,"SoundDuration":165198,"Delta":355216544},{"NoteNumber":48,"Velocity":47,"Duration":165197,"SoundDuration":165197,"Delta":355381742},{"NoteNumber":52,"Velocity":77,"Duration":339534,"SoundDuration":339534,"Delta":355546940},{"NoteNumber":43,"Velocity":61,"Duration":167298,"SoundDuration":167298,"Delta":355546940},{"NoteNumber":48,"Velocity":44,"Duration":172235,"SoundDuration":172235,"Delta":355714239},{"NoteNumber":53,"Velocity":82,"Duration":1005558,"SoundDuration":1005558,"Delta":355886474},{"NoteNumber":41,"Velocity":65,"Duration":167298,"SoundDuration":167298,"Delta":355886474},{"NoteNumber":48,"Velocity":45,"Duration":167298,"SoundDuration":167298,"Delta":356053773},{"NoteNumber":43,"Velocity":57,"Duration":166242,"SoundDuration":166242,"Delta":356221071},{"NoteNumber":48,"Velocity":48,"Duration":166242,"SoundDuration":166242,"Delta":356387313},{"NoteNumber":44,"Velocity":56,"Duration":166241,"SoundDuration":166241,"Delta":356553555},{"NoteNumber":48,"Velocity":50,"Duration":172235,"SoundDuration":172235,"Delta":356719797},{"NoteNumber":54,"Velocity":84,"Duration":1002325,"SoundDuration":1002325,"Delta":356892033},{"NoteNumber":42,"Velocity":67,"Duration":166242,"SoundDuration":166242,"Delta":356892033},{"NoteNumber":48,"Velocity":51,"Duration":166242,"SoundDuration":166242,"Delta":357058275},{"NoteNumber":43,"Velocity":58,"Duration":166241,"SoundDuration":166241,"Delta":357224517},{"NoteNumber":48,"Velocity":49,"Duration":166242,"SoundDuration":166242,"Delta":357390759},{"NoteNumber":45,"Velocity":60,"Duration":166242,"SoundDuration":166242,"Delta":357557001},{"NoteNumber":48,"Velocity":44,"Duration":171115,"SoundDuration":171115,"Delta":357723243},{"NoteNumber":55,"Velocity":84,"Duration":998045,"SoundDuration":998045,"Delta":357894358},{"NoteNumber":43,"Velocity":64,"Duration":165718,"SoundDuration":165718,"Delta":357894358},{"NoteNumber":51,"Velocity":51,"Duration":165718,"SoundDuration":165718,"Delta":358060077},{"NoteNumber":48,"Velocity":59,"Duration":165718,"SoundDuration":165718,"Delta":358225795},{"NoteNumber":51,"Velocity":50,"Duration":165718,"SoundDuration":165718,"Delta":358391514},{"NoteNumber":43,"Velocity":57,"Duration":165718,"SoundDuration":165718,"Delta":358557232},{"NoteNumber":51,"Velocity":46,"Duration":169453,"SoundDuration":169453,"Delta":358722951},{"NoteNumber":53,"Velocity":84,"Duration":84266,"SoundDuration":84266,"Delta":358892404},{"NoteNumber":43,"Velocity":64,"Duration":167468,"SoundDuration":167468,"Delta":358892404},{"NoteNumber":55,"Velocity":57,"Duration":83201,"SoundDuration":83201,"Delta":358976671},{"NoteNumber":53,"Velocity":61,"Duration":55066,"SoundDuration":55066,"Delta":359059872},{"NoteNumber":50,"Velocity":46,"Duration":165198,"SoundDuration":165198,"Delta":359059872},{"NoteNumber":55,"Velocity":57,"Duration":55066,"SoundDuration":55066,"Delta":359114938},{"NoteNumber":53,"Velocity":64,"Duration":55066,"SoundDuration":55066,"Delta":359170004},{"NoteNumber":55,"Velocity":56,"Duration":55066,"SoundDuration":55066,"Delta":359225070},{"NoteNumber":47,"Velocity":58,"Duration":165197,"SoundDuration":165197,"Delta":359225070},{"NoteNumber":53,"Velocity":64,"Duration":55065,"SoundDuration":55065,"Delta":359280136},{"NoteNumber":55,"Velocity":56,"Duration":55066,"SoundDuration":55066,"Delta":359335202},{"NoteNumber":53,"Velocity":64,"Duration":55066,"SoundDuration":55066,"Delta":359390268},{"NoteNumber":50,"Velocity":47,"Duration":165198,"SoundDuration":165198,"Delta":359390268},{"NoteNumber":55,"Velocity":55,"Duration":55066,"SoundDuration":55066,"Delta":359445334},{"NoteNumber":53,"Velocity":64,"Duration":55066,"SoundDuration":55066,"Delta":359500400},{"NoteNumber":55,"Velocity":54,"Duration":82493,"SoundDuration":82493,"Delta":359555466},{"NoteNumber":43,"Velocity":56,"Duration":165503,"SoundDuration":165503,"Delta":359555466},{"NoteNumber":53,"Velocity":59,"Duration":83010,"SoundDuration":83010,"Delta":359637960},{"NoteNumber":52,"Velocity":55,"Duration":83663,"SoundDuration":83663,"Delta":359720970},{"NoteNumber":50,"Velocity":46,"Duration":167969,"SoundDuration":167969,"Delta":359720970},{"NoteNumber":53,"Velocity":57,"Duration":84306,"SoundDuration":84306,"Delta":359804633},{"NoteNumber":51,"Velocity":74,"Duration":166242,"SoundDuration":166242,"Delta":359888939},{"NoteNumber":36,"Velocity":64,"Duration":331076,"SoundDuration":331076,"Delta":359888939},{"NoteNumber":48,"Velocity":64,"Duration":331076,"SoundDuration":331076,"Delta":359888939},{"NoteNumber":55,"Velocity":60,"Duration":164834,"SoundDuration":164834,"Delta":360055181},{"NoteNumber":60,"Velocity":68,"Duration":164835,"SoundDuration":164835,"Delta":360220016},{"NoteNumber":55,"Velocity":61,"Duration":164834,"SoundDuration":164834,"Delta":360384851},{"NoteNumber":60,"Velocity":69,"Duration":164834,"SoundDuration":164834,"Delta":360549686},{"NoteNumber":63,"Velocity":63,"Duration":164835,"SoundDuration":164835,"Delta":360714521},{"NoteNumber":67,"Velocity":69,"Duration":163043,"SoundDuration":163043,"Delta":360879356},{"NoteNumber":63,"Velocity":60,"Duration":163043,"SoundDuration":163043,"Delta":361042400},{"NoteNumber":67,"Velocity":73,"Duration":163043,"SoundDuration":163043,"Delta":361205443},{"NoteNumber":72,"Velocity":68,"Duration":163043,"SoundDuration":163043,"Delta":361368487},{"NoteNumber":75,"Velocity":80,"Duration":163043,"SoundDuration":163043,"Delta":361531530},{"NoteNumber":79,"Velocity":73,"Duration":163043,"SoundDuration":163043,"Delta":361694574},{"NoteNumber":84,"Velocity":89,"Duration":166768,"SoundDuration":166768,"Delta":361857617},{"NoteNumber":39,"Velocity":67,"Duration":166768,"SoundDuration":166768,"Delta":361857617},{"NoteNumber":48,"Velocity":45,"Duration":165197,"SoundDuration":165197,"Delta":362024386},{"NoteNumber":41,"Velocity":50,"Duration":165198,"SoundDuration":165198,"Delta":362189584},{"NoteNumber":48,"Velocity":47,"Duration":165197,"SoundDuration":165197,"Delta":362354782},{"NoteNumber":60,"Velocity":84,"Duration":1001896,"SoundDuration":1001896,"Delta":362519980},{"NoteNumber":43,"Velocity":56,"Duration":167298,"SoundDuration":167298,"Delta":362519980},{"NoteNumber":48,"Velocity":50,"Duration":172235,"SoundDuration":172235,"Delta":362687278},{"NoteNumber":40,"Velocity":67,"Duration":166768,"SoundDuration":166768,"Delta":362859514},{"NoteNumber":48,"Velocity":45,"Duration":165197,"SoundDuration":165197,"Delta":363026282},{"NoteNumber":41,"Velocity":61,"Duration":165198,"SoundDuration":165198,"Delta":363191480},{"NoteNumber":48,"Velocity":47,"Duration":165197,"SoundDuration":165197,"Delta":363356678},{"NoteNumber":52,"Velocity":81,"Duration":339534,"SoundDuration":339534,"Delta":363521876},{"NoteNumber":43,"Velocity":60,"Duration":167298,"SoundDuration":167298,"Delta":363521876},{"NoteNumber":48,"Velocity":44,"Duration":172235,"SoundDuration":172235,"Delta":363689175},{"NoteNumber":53,"Velocity":84,"Duration":663364,"SoundDuration":663364,"Delta":363861410},{"NoteNumber":41,"Velocity":65,"Duration":167298,"SoundDuration":167298,"Delta":363861410},{"NoteNumber":48,"Velocity":45,"Duration":167298,"SoundDuration":167298,"Delta":364028709},{"NoteNumber":43,"Velocity":57,"Duration":164383,"SoundDuration":164383,"Delta":364196007},{"NoteNumber":48,"Velocity":42,"Duration":164383,"SoundDuration":164383,"Delta":364360391},{"NoteNumber":60,"Velocity":84,"Duration":336618,"SoundDuration":336618,"Delta":364524774},{"NoteNumber":44,"Velocity":58,"Duration":164383,"SoundDuration":164383,"Delta":364524774},{"NoteNumber":48,"Velocity":45,"Duration":172235,"SoundDuration":172235,"Delta":364689158},{"NoteNumber":54,"Velocity":92,"Duration":661251,"SoundDuration":661251,"Delta":364861393},{"NoteNumber":42,"Velocity":67,"Duration":166242,"SoundDuration":166242,"Delta":364861393},{"NoteNumber":48,"Velocity":51,"Duration":166242,"SoundDuration":166242,"Delta":365027635},{"NoteNumber":43,"Velocity":58,"Duration":164383,"SoundDuration":164383,"Delta":365193877},{"NoteNumber":48,"Velocity":47,"Duration":164383,"SoundDuration":164383,"Delta":365358261},{"NoteNumber":60,"Velocity":84,"Duration":335498,"SoundDuration":335498,"Delta":365522644},{"NoteNumber":45,"Velocity":58,"Duration":164383,"SoundDuration":164383,"Delta":365522644},{"NoteNumber":48,"Velocity":44,"Duration":171115,"SoundDuration":171115,"Delta":365687028},{"NoteNumber":55,"Velocity":88,"Duration":166242,"SoundDuration":166242,"Delta":365858143},{"NoteNumber":43,"Velocity":67,"Duration":166242,"SoundDuration":166242,"Delta":365858143},{"NoteNumber":60,"Velocity":62,"Duration":162601,"SoundDuration":162601,"Delta":366024385},{"NoteNumber":48,"Velocity":51,"Duration":162601,"SoundDuration":162601,"Delta":366024385},{"NoteNumber":59,"Velocity":74,"Duration":162601,"SoundDuration":162601,"Delta":366186987},{"NoteNumber":47,"Velocity":57,"Duration":162601,"SoundDuration":162601,"Delta":366186987},{"NoteNumber":60,"Velocity":62,"Duration":162601,"SoundDuration":162601,"Delta":366349588},{"NoteNumber":48,"Velocity":48,"Duration":162601,"SoundDuration":162601,"Delta":366349588},{"NoteNumber":55,"Velocity":72,"Duration":162601,"SoundDuration":162601,"Delta":366512190},{"NoteNumber":43,"Velocity":61,"Duration":162601,"SoundDuration":162601,"Delta":366512190},{"NoteNumber":60,"Velocity":62,"Duration":171115,"SoundDuration":171115,"Delta":366674791},{"NoteNumber":48,"Velocity":50,"Duration":171115,"SoundDuration":171115,"Delta":366674791},{"NoteNumber":56,"Velocity":82,"Duration":166242,"SoundDuration":166242,"Delta":366845907},{"NoteNumber":44,"Velocity":71,"Duration":166242,"SoundDuration":166242,"Delta":366845907},{"NoteNumber":60,"Velocity":62,"Duration":162162,"SoundDuration":162162,"Delta":367012149},{"NoteNumber":48,"Velocity":56,"Duration":162162,"SoundDuration":162162,"Delta":367012149},{"NoteNumber":59,"Velocity":73,"Duration":162161,"SoundDuration":162161,"Delta":367174311},{"NoteNumber":47,"Velocity":64,"Duration":162161,"SoundDuration":162161,"Delta":367174311},{"NoteNumber":60,"Velocity":64,"Duration":162162,"SoundDuration":162162,"Delta":367336473},{"NoteNumber":48,"Velocity":55,"Duration":162162,"SoundDuration":162162,"Delta":367336473},{"NoteNumber":54,"Velocity":73,"Duration":162161,"SoundDuration":162161,"Delta":367498635},{"NoteNumber":42,"Velocity":65,"Duration":162161,"SoundDuration":162161,"Delta":367498635},{"NoteNumber":60,"Velocity":62,"Duration":171115,"SoundDuration":171115,"Delta":367660797},{"NoteNumber":48,"Velocity":54,"Duration":171115,"SoundDuration":171115,"Delta":367660797},{"NoteNumber":55,"Velocity":88,"Duration":166242,"SoundDuration":166242,"Delta":367831912},{"NoteNumber":43,"Velocity":77,"Duration":166242,"SoundDuration":166242,"Delta":367831912},{"NoteNumber":60,"Velocity":63,"Duration":161724,"SoundDuration":161724,"Delta":367998154},{"NoteNumber":48,"Velocity":58,"Duration":161724,"SoundDuration":161724,"Delta":367998154},{"NoteNumber":59,"Velocity":73,"Duration":161724,"SoundDuration":161724,"Delta":368159879},{"NoteNumber":47,"Velocity":68,"Duration":161724,"SoundDuration":161724,"Delta":368159879},{"NoteNumber":60,"Velocity":62,"Duration":161725,"SoundDuration":161725,"Delta":368321604},{"NoteNumber":48,"Velocity":54,"Duration":161725,"SoundDuration":161725,"Delta":368321604},{"NoteNumber":52,"Velocity":74,"Duration":161724,"SoundDuration":161724,"Delta":368483329},{"NoteNumber":40,"Velocity":65,"Duration":161724,"SoundDuration":161724,"Delta":368483329},{"NoteNumber":60,"Velocity":65,"Duration":171115,"SoundDuration":171115,"Delta":368645054},{"NoteNumber":48,"Velocity":50,"Duration":171115,"SoundDuration":171115,"Delta":368645054},{"NoteNumber":53,"Velocity":88,"Duration":166242,"SoundDuration":166242,"Delta":368816170},{"NoteNumber":41,"Velocity":77,"Duration":166242,"SoundDuration":166242,"Delta":368816170},{"NoteNumber":60,"Velocity":64,"Duration":161724,"SoundDuration":161724,"Delta":368982412},{"NoteNumber":48,"Velocity":51,"Duration":161724,"SoundDuration":161724,"Delta":368982412},{"NoteNumber":56,"Velocity":71,"Duration":161724,"SoundDuration":161724,"Delta":369144137},{"NoteNumber":44,"Velocity":63,"Duration":161724,"SoundDuration":161724,"Delta":369144137},{"NoteNumber":60,"Velocity":65,"Duration":161725,"SoundDuration":161725,"Delta":369305862},{"NoteNumber":48,"Velocity":58,"Duration":161725,"SoundDuration":161725,"Delta":369305862},{"NoteNumber":54,"Velocity":80,"Duration":161724,"SoundDuration":161724,"Delta":369467587},{"NoteNumber":42,"Velocity":71,"Duration":161724,"SoundDuration":161724,"Delta":369467587},{"NoteNumber":60,"Velocity":72,"Duration":171115,"SoundDuration":171115,"Delta":369629312},{"NoteNumber":48,"Velocity":65,"Duration":171115,"SoundDuration":171115,"Delta":369629312},{"NoteNumber":55,"Velocity":93,"Duration":342231,"SoundDuration":342231,"Delta":369800427},{"NoteNumber":43,"Velocity":82,"Duration":342231,"SoundDuration":342231,"Delta":369800427},{"NoteNumber":55,"Velocity":77,"Duration":85557,"SoundDuration":85557,"Delta":370142658},{"NoteNumber":60,"Velocity":77,"Duration":85557,"SoundDuration":85557,"Delta":370142658},{"NoteNumber":63,"Velocity":87,"Duration":85557,"SoundDuration":85557,"Delta":370142658},{"NoteNumber":67,"Velocity":81,"Duration":85557,"SoundDuration":85557,"Delta":370399332},{"NoteNumber":75,"Velocity":87,"Duration":245901,"SoundDuration":245901,"Delta":370484889},{"NoteNumber":72,"Velocity":84,"Duration":88736,"SoundDuration":88736,"Delta":370730791},{"NoteNumber":78,"Velocity":93,"Duration":84726,"SoundDuration":84726,"Delta":370819528},{"NoteNumber":60,"Velocity":77,"Duration":85557,"SoundDuration":85557,"Delta":371158434},{"NoteNumber":56,"Velocity":77,"Duration":85557,"SoundDuration":85557,"Delta":371158434},{"NoteNumber":63,"Velocity":87,"Duration":85557,"SoundDuration":85557,"Delta":371158434},{"NoteNumber":66,"Velocity":81,"Duration":85557,"SoundDuration":85557,"Delta":371415107},{"NoteNumber":75,"Velocity":87,"Duration":246575,"SoundDuration":246575,"Delta":371500665},{"NoteNumber":72,"Velocity":84,"Duration":88736,"SoundDuration":88736,"Delta":371747240},{"NoteNumber":79,"Velocity":93,"Duration":84726,"SoundDuration":84726,"Delta":371835976},{"NoteNumber":63,"Velocity":87,"Duration":85557,"SoundDuration":85557,"Delta":372174882},{"NoteNumber":55,"Velocity":77,"Duration":85557,"SoundDuration":85557,"Delta":372174882},{"NoteNumber":60,"Velocity":77,"Duration":85557,"SoundDuration":85557,"Delta":372174882},{"NoteNumber":67,"Velocity":81,"Duration":85557,"SoundDuration":85557,"Delta":372431556},{"NoteNumber":75,"Velocity":87,"Duration":245901,"SoundDuration":245901,"Delta":372517113},{"NoteNumber":72,"Velocity":84,"Duration":88736,"SoundDuration":88736,"Delta":372763015},{"NoteNumber":81,"Velocity":93,"Duration":84726,"SoundDuration":84726,"Delta":372851752},{"NoteNumber":63,"Velocity":87,"Duration":85557,"SoundDuration":85557,"Delta":373190658},{"NoteNumber":60,"Velocity":77,"Duration":85557,"SoundDuration":85557,"Delta":373190658},{"NoteNumber":54,"Velocity":77,"Duration":85557,"SoundDuration":85557,"Delta":373190658},{"NoteNumber":69,"Velocity":81,"Duration":85557,"SoundDuration":85557,"Delta":373447331},{"NoteNumber":75,"Velocity":87,"Duration":247934,"SoundDuration":247934,"Delta":373532889},{"NoteNumber":72,"Velocity":84,"Duration":88736,"SoundDuration":88736,"Delta":373780823},{"NoteNumber":79,"Velocity":95,"Duration":508358,"SoundDuration":508358,"Delta":373869559},{"NoteNumber":55,"Velocity":77,"Duration":84726,"SoundDuration":84726,"Delta":374208465},{"NoteNumber":63,"Velocity":87,"Duration":84726,"SoundDuration":84726,"Delta":374208465},{"NoteNumber":60,"Velocity":77,"Duration":84726,"SoundDuration":84726,"Delta":374208465},{"NoteNumber":75,"Velocity":85,"Duration":169453,"SoundDuration":169453,"Delta":374377918},{"NoteNumber":75,"Velocity":93,"Duration":166242,"SoundDuration":166242,"Delta":374547371},{"NoteNumber":72,"Velocity":79,"Duration":124681,"SoundDuration":124681,"Delta":374713613},{"NoteNumber":72,"Velocity":88,"Duration":166242,"SoundDuration":166242,"Delta":374879855},{"NoteNumber":67,"Velocity":78,"Duration":124681,"SoundDuration":124681,"Delta":375046097},{"NoteNumber":67,"Velocity":85,"Duration":163934,"SoundDuration":163934,"Delta":375212339},{"NoteNumber":63,"Velocity":77,"Duration":125874,"SoundDuration":125874,"Delta":375376274},{"NoteNumber":63,"Velocity":81,"Duration":163487,"SoundDuration":163487,"Delta":375544106},{"NoteNumber":60,"Velocity":77,"Duration":126276,"SoundDuration":126276,"Delta":375707593},{"NoteNumber":60,"Velocity":81,"Duration":163934,"SoundDuration":163934,"Delta":375875962},{"NoteNumber":55,"Velocity":77,"Duration":126682,"SoundDuration":126682,"Delta":376039897},{"NoteNumber":55,"Velocity":82,"Duration":165718,"SoundDuration":165718,"Delta":376208806},{"NoteNumber":51,"Velocity":77,"Duration":127920,"SoundDuration":127920,"Delta":376374525},{"NoteNumber":51,"Velocity":83,"Duration":166242,"SoundDuration":166242,"Delta":376545086},{"NoteNumber":48,"Velocity":77,"Duration":148114,"SoundDuration":148114,"Delta":376711328},{"NoteNumber":43,"Velocity":92,"Duration":1064934,"SoundDuration":1064934,"Delta":376908813},{"NoteNumber":31,"Velocity":78,"Duration":1064934,"SoundDuration":1064934,"Delta":376908813},{"NoteNumber":55,"Velocity":66,"Duration":359799,"SoundDuration":359799,"Delta":377613949},{"NoteNumber":59,"Velocity":78,"Duration":359799,"SoundDuration":359799,"Delta":377613949},{"NoteNumber":53,"Velocity":70,"Duration":359799,"SoundDuration":359799,"Delta":377613949},{"NoteNumber":50,"Velocity":59,"Duration":359799,"SoundDuration":359799,"Delta":377613949},{"NoteNumber":55,"Velocity":70,"Duration":359799,"SoundDuration":359799,"Delta":377973748},{"NoteNumber":60,"Velocity":83,"Duration":359799,"SoundDuration":359799,"Delta":377973748},{"NoteNumber":51,"Velocity":79,"Duration":359799,"SoundDuration":359799,"Delta":377973748},{"NoteNumber":36,"Velocity":67,"Duration":359799,"SoundDuration":359799,"Delta":377973748},{"NoteNumber":43,"Velocity":51,"Duration":1748937,"SoundDuration":1748937,"Delta":378333547},{"NoteNumber":42,"Velocity":51,"Duration":346741,"SoundDuration":346741,"Delta":378680288},{"NoteNumber":41,"Velocity":51,"Duration":356146,"SoundDuration":356146,"Delta":379027029},{"NoteNumber":67,"Velocity":53,"Duration":346741,"SoundDuration":346741,"Delta":379383175},{"NoteNumber":62,"Velocity":42,"Duration":346741,"SoundDuration":346741,"Delta":379383175},{"NoteNumber":65,"Velocity":42,"Duration":346741,"SoundDuration":346741,"Delta":379383175},{"NoteNumber":59,"Velocity":42,"Duration":346741,"SoundDuration":346741,"Delta":379383175},{"NoteNumber":39,"Velocity":49,"Duration":346741,"SoundDuration":346741,"Delta":379383175},{"NoteNumber":59,"Velocity":38,"Duration":352568,"SoundDuration":352568,"Delta":379729916},{"NoteNumber":62,"Velocity":38,"Duration":352568,"SoundDuration":352568,"Delta":379729916},{"NoteNumber":65,"Velocity":38,"Duration":352568,"SoundDuration":352568,"Delta":379729916},{"NoteNumber":67,"Velocity":48,"Duration":352568,"SoundDuration":352568,"Delta":379729916},{"NoteNumber":38,"Velocity":49,"Duration":352568,"SoundDuration":352568,"Delta":379729916},{"NoteNumber":60,"Velocity":42,"Duration":695773,"SoundDuration":695773,"Delta":380082484},{"NoteNumber":63,"Velocity":42,"Duration":695773,"SoundDuration":695773,"Delta":380082484},{"NoteNumber":68,"Velocity":53,"Duration":347887,"SoundDuration":347887,"Delta":380082484},{"NoteNumber":36,"Velocity":51,"Duration":347887,"SoundDuration":347887,"Delta":380082484},{"NoteNumber":67,"Velocity":49,"Duration":347886,"SoundDuration":347886,"Delta":380430371},{"NoteNumber":39,"Velocity":47,"Duration":347886,"SoundDuration":347886,"Delta":380430371},{"NoteNumber":43,"Velocity":47,"Duration":347887,"SoundDuration":347887,"Delta":380778258},{"NoteNumber":31,"Velocity":51,"Duration":359799,"SoundDuration":359799,"Delta":381126145},{"NoteNumber":62,"Velocity":42,"Duration":346741,"SoundDuration":346741,"Delta":381485944},{"NoteNumber":65,"Velocity":42,"Duration":346741,"SoundDuration":346741,"Delta":381485944},{"NoteNumber":71,"Velocity":53,"Duration":346741,"SoundDuration":346741,"Delta":381485944},{"NoteNumber":38,"Velocity":48,"Duration":346741,"SoundDuration":346741,"Delta":381485944},{"NoteNumber":62,"Velocity":38,"Duration":352568,"SoundDuration":352568,"Delta":381832685},{"NoteNumber":65,"Velocity":38,"Duration":352568,"SoundDuration":352568,"Delta":381832685},{"NoteNumber":71,"Velocity":48,"Duration":352568,"SoundDuration":352568,"Delta":381832685},{"NoteNumber":43,"Velocity":48,"Duration":352568,"SoundDuration":352568,"Delta":381832685},{"NoteNumber":63,"Velocity":42,"Duration":693482,"SoundDuration":693482,"Delta":382185253},{"NoteNumber":67,"Velocity":42,"Duration":693482,"SoundDuration":693482,"Delta":382185253},{"NoteNumber":74,"Velocity":53,"Duration":346741,"SoundDuration":346741,"Delta":382185253},{"NoteNumber":36,"Velocity":67,"Duration":346741,"SoundDuration":346741,"Delta":382185253},{"NoteNumber":72,"Velocity":49,"Duration":346741,"SoundDuration":346741,"Delta":382531994},{"NoteNumber":43,"Velocity":51,"Duration":1748937,"SoundDuration":1748937,"Delta":382531994},{"NoteNumber":42,"Velocity":51,"Duration":346741,"SoundDuration":346741,"Delta":382878735},{"NoteNumber":41,"Velocity":51,"Duration":356146,"SoundDuration":356146,"Delta":383225476},{"NoteNumber":59,"Velocity":42,"Duration":346741,"SoundDuration":346741,"Delta":383581622},{"NoteNumber":62,"Velocity":42,"Duration":346741,"SoundDuration":346741,"Delta":383581622},{"NoteNumber":65,"Velocity":42,"Duration":346741,"SoundDuration":346741,"Delta":383581622},{"NoteNumber":67,"Velocity":53,"Duration":346741,"SoundDuration":346741,"Delta":383581622},{"NoteNumber":39,"Velocity":49,"Duration":346741,"SoundDuration":346741,"Delta":383581622},{"NoteNumber":67,"Velocity":48,"Duration":352568,"SoundDuration":352568,"Delta":383928363},{"NoteNumber":62,"Velocity":38,"Duration":352568,"SoundDuration":352568,"Delta":383928363},{"NoteNumber":65,"Velocity":38,"Duration":352568,"SoundDuration":352568,"Delta":383928363},{"NoteNumber":59,"Velocity":38,"Duration":352568,"SoundDuration":352568,"Delta":383928363},{"NoteNumber":38,"Velocity":49,"Duration":352568,"SoundDuration":352568,"Delta":383928363},{"NoteNumber":60,"Velocity":42,"Duration":695773,"SoundDuration":695773,"Delta":384280931},{"NoteNumber":63,"Velocity":42,"Duration":695773,"SoundDuration":695773,"Delta":384280931},{"NoteNumber":68,"Velocity":53,"Duration":347887,"SoundDuration":347887,"Delta":384280931},{"NoteNumber":36,"Velocity":51,"Duration":347887,"SoundDuration":347887,"Delta":384280931},{"NoteNumber":67,"Velocity":49,"Duration":347886,"SoundDuration":347886,"Delta":384628818},{"NoteNumber":39,"Velocity":47,"Duration":347886,"SoundDuration":347886,"Delta":384628818},{"NoteNumber":43,"Velocity":47,"Duration":347887,"SoundDuration":347887,"Delta":384976705},{"NoteNumber":31,"Velocity":51,"Duration":359799,"SoundDuration":359799,"Delta":385324592},{"NoteNumber":50,"Velocity":42,"Duration":346741,"SoundDuration":346741,"Delta":385684391},{"NoteNumber":53,"Velocity":42,"Duration":346741,"SoundDuration":346741,"Delta":385684391},{"NoteNumber":59,"Velocity":53,"Duration":346741,"SoundDuration":346741,"Delta":385684391},{"NoteNumber":38,"Velocity":48,"Duration":346741,"SoundDuration":346741,"Delta":385684391},{"NoteNumber":50,"Velocity":38,"Duration":352568,"SoundDuration":352568,"Delta":386031132},{"NoteNumber":53,"Velocity":38,"Duration":352568,"SoundDuration":352568,"Delta":386031132},{"NoteNumber":59,"Velocity":48,"Duration":352568,"SoundDuration":352568,"Delta":386031132},{"NoteNumber":43,"Velocity":48,"Duration":352568,"SoundDuration":352568,"Delta":386031132},{"NoteNumber":51,"Velocity":42,"Duration":693482,"SoundDuration":693482,"Delta":386383700},{"NoteNumber":55,"Velocity":42,"Duration":693482,"SoundDuration":693482,"Delta":386383700},{"NoteNumber":62,"Velocity":53,"Duration":346741,"SoundDuration":346741,"Delta":386383700},{"NoteNumber":36,"Velocity":51,"Duration":346741,"SoundDuration":346741,"Delta":386383700},{"NoteNumber":60,"Velocity":49,"Duration":346741,"SoundDuration":346741,"Delta":386730441},{"NoteNumber":39,"Velocity":47,"Duration":346741,"SoundDuration":346741,"Delta":386730441},{"NoteNumber":43,"Velocity":47,"Duration":346741,"SoundDuration":346741,"Delta":387077182},{"NoteNumber":31,"Velocity":51,"Duration":359799,"SoundDuration":359799,"Delta":387423923},{"NoteNumber":50,"Velocity":42,"Duration":346741,"SoundDuration":346741,"Delta":387783722},{"NoteNumber":53,"Velocity":42,"Duration":346741,"SoundDuration":346741,"Delta":387783722},{"NoteNumber":59,"Velocity":53,"Duration":346741,"SoundDuration":346741,"Delta":387783722},{"NoteNumber":38,"Velocity":48,"Duration":346741,"SoundDuration":346741,"Delta":387783722},{"NoteNumber":50,"Velocity":38,"Duration":375234,"SoundDuration":375234,"Delta":388130463},{"NoteNumber":53,"Velocity":38,"Duration":375234,"SoundDuration":375234,"Delta":388130463},{"NoteNumber":59,"Velocity":48,"Duration":375234,"SoundDuration":375234,"Delta":388130463},{"NoteNumber":43,"Velocity":48,"Duration":375234,"SoundDuration":375234,"Delta":388130463},{"NoteNumber":51,"Velocity":42,"Duration":361054,"SoundDuration":361054,"Delta":388505698},{"NoteNumber":55,"Velocity":42,"Duration":361054,"SoundDuration":361054,"Delta":388505698},{"NoteNumber":60,"Velocity":53,"Duration":361054,"SoundDuration":361054,"Delta":388505698},{"NoteNumber":36,"Velocity":51,"Duration":361054,"SoundDuration":361054,"Delta":388505698},{"NoteNumber":67,"Velocity":82,"Duration":402522,"SoundDuration":402522,"Delta":389654111},{"NoteNumber":71,"Velocity":82,"Duration":402522,"SoundDuration":402522,"Delta":389654111},{"NoteNumber":74,"Velocity":82,"Duration":402522,"SoundDuration":402522,"Delta":389654111},{"NoteNumber":79,"Velocity":97,"Duration":402522,"SoundDuration":402522,"Delta":389654111},{"NoteNumber":31,"Velocity":60,"Duration":402522,"SoundDuration":402522,"Delta":389654111},{"NoteNumber":35,"Velocity":60,"Duration":402522,"SoundDuration":402522,"Delta":389654111},{"NoteNumber":38,"Velocity":60,"Duration":402522,"SoundDuration":402522,"Delta":389654111},{"NoteNumber":43,"Velocity":71,"Duration":402522,"SoundDuration":402522,"Delta":389654111},{"NoteNumber":60,"Velocity":82,"Duration":431467,"SoundDuration":431467,"Delta":390919569},{"NoteNumber":63,"Velocity":82,"Duration":431467,"SoundDuration":431467,"Delta":390919569},{"NoteNumber":67,"Velocity":82,"Duration":431467,"SoundDuration":431467,"Delta":390919569},{"NoteNumber":72,"Velocity":97,"Duration":431467,"SoundDuration":431467,"Delta":390919569},{"NoteNumber":36,"Velocity":60,"Duration":431467,"SoundDuration":431467,"Delta":390919569},{"NoteNumber":39,"Velocity":60,"Duration":431467,"SoundDuration":431467,"Delta":390919569},{"NoteNumber":43,"Velocity":60,"Duration":431467,"SoundDuration":431467,"Delta":390919569},{"NoteNumber":48,"Velocity":71,"Duration":431467,"SoundDuration":431467,"Delta":390919569}],"license":{"name":"Creative Commons Attribution-ShareAlike 3.0 Germany","url":"http://creativecommons.org/licenses/by-sa/3.0/de/deed.en","text":"The MIDI, audio (MP3, OGG) and video files of Bernd Krueger are licensed under the cc-by-sa Germany License. This means that you can use and adapt the files, as long as you attribute the copyright holder.\n\nName: Bernd Krueger\nSource: http://www.piano-midi.de\n\nThe distribution or public playback of the files is only allowed under identical license conditions.\n\nThe scores are open source.","attribution":"MIDI files by Bernd Krueger (piano-midi.de)"}}