{"title":"Klaviersonate Nr. 12 KV 332 2. Satz","artist":"Piano","durationMs":263382,"midiSha256":"b504c6503f2137b16a8c9558c46ab53e3ca3cd88a484fb13558ff655493a6da9","midiObject":[{"NoteNumber":70,"Velocity":50,"Duration":1607286,"SoundDuration":1607286,"Delta":0},{"NoteNumber":58,"Velocity":36,"Duration":401821,"SoundDuration":401821,"Delta":0},{"NoteNumber":65,"Velocity":27,"Duration":401821,"SoundDuration":401821,"Delta":401821},{"NoteNumber":62,"Velocity":27,"Duration":401821,"SoundDuration":401821,"Delta":803643},{"NoteNumber":65,"Velocity":27,"Duration":401821,"SoundDuration":401821,"Delta":1205464},{"NoteNumber":74,"Velocity":50,"Duration":401821,"SoundDuration":401821,"Delta":1607286},{"NoteNumber":58,"Velocity":36,"Duration":401821,"SoundDuration":401821,"Delta":1607286},{"NoteNumber":75,"Velocity":46,"Duration":127632,"SoundDuration":127632,"Delta":2009107},{"NoteNumber":65,"Velocity":28,"Duration":382897,"SoundDuration":382897,"Delta":2009107},{"NoteNumber":74,"Velocity":41,"Duration":127632,"SoundDuration":127632,"Delta":2136739},{"NoteNumber":72,"Velocity":42,"Duration":127632,"SoundDuration":127632,"Delta":2264372},{"NoteNumber":74,"Velocity":50,"Duration":396930,"SoundDuration":396930,"Delta":2392004},{"NoteNumber":62,"Velocity":28,"Duration":396930,"SoundDuration":396930,"Delta":2392004},{"NoteNumber":75,"Velocity":50,"Duration":432025,"SoundDuration":432025,"Delta":2788935},{"NoteNumber":65,"Velocity":28,"Duration":432025,"SoundDuration":432025,"Delta":2788935},{"NoteNumber":76,"Velocity":55,"Duration":1205464,"SoundDuration":1205464,"Delta":3220960},{"NoteNumber":57,"Velocity":36,"Duration":401821,"SoundDuration":401821,"Delta":3220960},{"NoteNumber":65,"Velocity":25,"Duration":401821,"SoundDuration":401821,"Delta":3622782},{"NoteNumber":60,"Velocity":27,"Duration":401821,"SoundDuration":401821,"Delta":4024603},{"NoteNumber":77,"Velocity":49,"Duration":434090,"SoundDuration":434090,"Delta":4426425},{"NoteNumber":65,"Velocity":24,"Duration":434090,"SoundDuration":434090,"Delta":4426425},{"NoteNumber":72,"Velocity":42,"Duration":401821,"SoundDuration":401821,"Delta":4860516},{"NoteNumber":57,"Velocity":30,"Duration":401821,"SoundDuration":401821,"Delta":4860516},{"NoteNumber":65,"Velocity":22,"Duration":401821,"SoundDuration":401821,"Delta":5262337},{"NoteNumber":60,"Velocity":27,"Duration":401821,"SoundDuration":401821,"Delta":5664159},{"NoteNumber":65,"Velocity":23,"Duration":424934,"SoundDuration":424934,"Delta":6065980},{"NoteNumber":75,"Velocity":50,"Duration":406889,"SoundDuration":406889,"Delta":6490914},{"NoteNumber":55,"Velocity":36,"Duration":406889,"SoundDuration":406889,"Delta":6490914},{"NoteNumber":77,"Velocity":46,"Duration":135629,"SoundDuration":135629,"Delta":6897804},{"NoteNumber":63,"Velocity":32,"Duration":390895,"SoundDuration":390895,"Delta":6897804},{"NoteNumber":75,"Velocity":42,"Duration":127632,"SoundDuration":127632,"Delta":7033434},{"NoteNumber":74,"Velocity":44,"Duration":127632,"SoundDuration":127632,"Delta":7161067},{"NoteNumber":75,"Velocity":50,"Duration":406889,"SoundDuration":406889,"Delta":7288699},{"NoteNumber":58,"Velocity":32,"Duration":406889,"SoundDuration":406889,"Delta":7288699},{"NoteNumber":77,"Velocity":50,"Duration":406889,"SoundDuration":406889,"Delta":7695589},{"NoteNumber":63,"Velocity":32,"Duration":406889,"SoundDuration":406889,"Delta":7695589},{"NoteNumber":79,"Velocity":52,"Duration":406890,"SoundDuration":406890,"Delta":8102479},{"NoteNumber":51,"Velocity":36,"Duration":406890,"SoundDuration":406890,"Delta":8102479},{"NoteNumber":81,"Velocity":49,"Duration":126135,"SoundDuration":126135,"Delta":8509369},{"NoteNumber":58,"Velocity":33,"Duration":378405,"SoundDuration":378405,"Delta":8509369},{"NoteNumber":79,"Velocity":49,"Duration":126135,"SoundDuration":126135,"Delta":8635504},{"NoteNumber":77,"Velocity":49,"Duration":126135,"SoundDuration":126135,"Delta":8761640},{"NoteNumber":79,"Velocity":57,"Duration":406890,"SoundDuration":406890,"Delta":8887775},{"NoteNumber":55,"Velocity":35,"Duration":406890,"SoundDuration":406890,"Delta":8887775},{"NoteNumber":81,"Velocity":59,"Duration":410512,"SoundDuration":410512,"Delta":9294665},{"NoteNumber":58,"Velocity":36,"Duration":421222,"SoundDuration":421222,"Delta":9294665},{"NoteNumber":81,"Velocity":68,"Duration":1199177,"SoundDuration":1199177,"Delta":9715887},{"NoteNumber":50,"Velocity":41,"Duration":406890,"SoundDuration":406890,"Delta":9715887},{"NoteNumber":58,"Velocity":30,"Duration":396143,"SoundDuration":396143,"Delta":10122777},{"NoteNumber":53,"Velocity":35,"Duration":396143,"SoundDuration":396143,"Delta":10518921},{"NoteNumber":82,"Velocity":54,"Duration":424148,"SoundDuration":424148,"Delta":10915065},{"NoteNumber":58,"Velocity":28,"Duration":424148,"SoundDuration":424148,"Delta":10915065},{"NoteNumber":77,"Velocity":54,"Duration":406890,"SoundDuration":406890,"Delta":11339213},{"NoteNumber":50,"Velocity":36,"Duration":406890,"SoundDuration":406890,"Delta":11339213},{"NoteNumber":58,"Velocity":26,"Duration":406889,"SoundDuration":406889,"Delta":11746103},{"NoteNumber":53,"Velocity":31,"Duration":406890,"SoundDuration":406890,"Delta":12152993},{"NoteNumber":58,"Velocity":27,"Duration":428388,"SoundDuration":428388,"Delta":12559883},{"NoteNumber":79,"Velocity":59,"Duration":1209780,"SoundDuration":1209780,"Delta":12988271},{"NoteNumber":51,"Velocity":36,"Duration":406890,"SoundDuration":406890,"Delta":12988271},{"NoteNumber":55,"Velocity":27,"Duration":401445,"SoundDuration":401445,"Delta":13395161},{"NoteNumber":51,"Velocity":31,"Duration":401444,"SoundDuration":401444,"Delta":13796606},{"NoteNumber":80,"Velocity":50,"Duration":203445,"SoundDuration":203445,"Delta":14198051},{"NoteNumber":59,"Velocity":27,"Duration":406890,"SoundDuration":406890,"Delta":14198051},{"NoteNumber":79,"Velocity":50,"Duration":203445,"SoundDuration":203445,"Delta":14401496},{"NoteNumber":77,"Velocity":55,"Duration":417362,"SoundDuration":417362,"Delta":14604941},{"NoteNumber":51,"Velocity":34,"Duration":417362,"SoundDuration":417362,"Delta":14604941},{"NoteNumber":75,"Velocity":52,"Duration":406890,"SoundDuration":406890,"Delta":15022303},{"NoteNumber":60,"Velocity":27,"Duration":406890,"SoundDuration":406890,"Delta":15022303},{"NoteNumber":74,"Velocity":48,"Duration":406889,"SoundDuration":406889,"Delta":15429193},{"NoteNumber":51,"Velocity":27,"Duration":406889,"SoundDuration":406889,"Delta":15429193},{"NoteNumber":72,"Velocity":48,"Duration":430230,"SoundDuration":430230,"Delta":15836083},{"NoteNumber":63,"Velocity":27,"Duration":430230,"SoundDuration":430230,"Delta":15836083},{"NoteNumber":76,"Velocity":58,"Duration":412484,"SoundDuration":412484,"Delta":16266314},{"NoteNumber":50,"Velocity":36,"Duration":412484,"SoundDuration":412484,"Delta":16266314},{"NoteNumber":77,"Velocity":51,"Duration":824968,"SoundDuration":824968,"Delta":16678799},{"NoteNumber":53,"Velocity":29,"Duration":412484,"SoundDuration":412484,"Delta":16678799},{"NoteNumber":50,"Velocity":33,"Duration":412484,"SoundDuration":412484,"Delta":17091283},{"NoteNumber":79,"Velocity":55,"Duration":193723,"SoundDuration":193723,"Delta":17503768},{"NoteNumber":57,"Velocity":33,"Duration":387446,"SoundDuration":387446,"Delta":17503768},{"NoteNumber":77,"Velocity":52,"Duration":193723,"SoundDuration":193723,"Delta":17697491},{"NoteNumber":75,"Velocity":54,"Duration":417362,"SoundDuration":417362,"Delta":17891214},{"NoteNumber":50,"Velocity":36,"Duration":417362,"SoundDuration":417362,"Delta":17891214},{"NoteNumber":74,"Velocity":55,"Duration":317544,"SoundDuration":317544,"Delta":18308577},{"NoteNumber":58,"Velocity":30,"Duration":396930,"SoundDuration":396930,"Delta":18308577},{"NoteNumber":72,"Velocity":56,"Duration":329625,"SoundDuration":329625,"Delta":18705507},{"NoteNumber":50,"Velocity":31,"Duration":412031,"SoundDuration":412031,"Delta":18705507},{"NoteNumber":70,"Velocity":59,"Duration":356824,"SoundDuration":356824,"Delta":19117539},{"NoteNumber":62,"Velocity":33,"Duration":446030,"SoundDuration":446030,"Delta":19117539},{"NoteNumber":77,"Velocity":66,"Duration":401444,"SoundDuration":401444,"Delta":19563569},{"NoteNumber":53,"Velocity":36,"Duration":401444,"SoundDuration":401444,"Delta":19563569},{"NoteNumber":75,"Velocity":54,"Duration":818921,"SoundDuration":818921,"Delta":19965014},{"NoteNumber":65,"Velocity":30,"Duration":406890,"SoundDuration":406890,"Delta":19965014},{"NoteNumber":60,"Velocity":30,"Duration":412031,"SoundDuration":412031,"Delta":20371904},{"NoteNumber":72,"Velocity":51,"Duration":434090,"SoundDuration":434090,"Delta":20783936},{"NoteNumber":65,"Velocity":25,"Duration":434090,"SoundDuration":434090,"Delta":20783936},{"NoteNumber":75,"Velocity":65,"Duration":412031,"SoundDuration":412031,"Delta":21218026},{"NoteNumber":58,"Velocity":36,"Duration":412031,"SoundDuration":412031,"Delta":21218026},{"NoteNumber":74,"Velocity":54,"Duration":824062,"SoundDuration":824062,"Delta":21630058},{"NoteNumber":65,"Velocity":28,"Duration":412031,"SoundDuration":412031,"Delta":21630058},{"NoteNumber":62,"Velocity":31,"Duration":412031,"SoundDuration":412031,"Delta":22042089},{"NoteNumber":70,"Velocity":54,"Duration":434090,"SoundDuration":434090,"Delta":22454121},{"NoteNumber":65,"Velocity":30,"Duration":434090,"SoundDuration":434090,"Delta":22454121},{"NoteNumber":74,"Velocity":59,"Duration":1236094,"SoundDuration":1236094,"Delta":22888211},{"NoteNumber":53,"Velocity":36,"Duration":412031,"SoundDuration":412031,"Delta":22888211},{"NoteNumber":62,"Velocity":25,"Duration":412031,"SoundDuration":412031,"Delta":23300243},{"NoteNumber":58,"Velocity":25,"Duration":412031,"SoundDuration":412031,"Delta":23712274},{"NoteNumber":75,"Velocity":43,"Duration":206015,"SoundDuration":206015,"Delta":24124306},{"NoteNumber":62,"Velocity":25,"Duration":412031,"SoundDuration":412031,"Delta":24124306},{"NoteNumber":74,"Velocity":43,"Duration":206015,"SoundDuration":206015,"Delta":24330321},{"NoteNumber":72,"Velocity":50,"Duration":434090,"SoundDuration":434090,"Delta":24536337},{"NoteNumber":53,"Velocity":36,"Duration":846122,"SoundDuration":846122,"Delta":24536337},{"NoteNumber":60,"Velocity":36,"Duration":846122,"SoundDuration":846122,"Delta":24536337},{"NoteNumber":57,"Velocity":36,"Duration":846122,"SoundDuration":846122,"Delta":24536337},{"NoteNumber":77,"Velocity":53,"Duration":412031,"SoundDuration":412031,"Delta":24970428},{"NoteNumber":75,"Velocity":49,"Duration":412031,"SoundDuration":412031,"Delta":25382459},{"NoteNumber":72,"Velocity":47,"Duration":412031,"SoundDuration":412031,"Delta":25794491},{"NoteNumber":70,"Velocity":50,"Duration":412031,"SoundDuration":412031,"Delta":26206522},{"NoteNumber":58,"Velocity":36,"Duration":412031,"SoundDuration":412031,"Delta":26206522},{"NoteNumber":72,"Velocity":43,"Duration":130701,"SoundDuration":130701,"Delta":26618554},{"NoteNumber":65,"Velocity":31,"Duration":392105,"SoundDuration":392105,"Delta":26618554},{"NoteNumber":70,"Velocity":38,"Duration":130701,"SoundDuration":130701,"Delta":26749256},{"NoteNumber":69,"Velocity":38,"Duration":130701,"SoundDuration":130701,"Delta":26879957},{"NoteNumber":70,"Velocity":45,"Duration":406890,"SoundDuration":406890,"Delta":27010659},{"NoteNumber":61,"Velocity":31,"Duration":406890,"SoundDuration":406890,"Delta":27010659},{"NoteNumber":72,"Velocity":50,"Duration":406890,"SoundDuration":406890,"Delta":27417549},{"NoteNumber":65,"Velocity":31,"Duration":406890,"SoundDuration":406890,"Delta":27417549},{"NoteNumber":73,"Velocity":50,"Duration":406889,"SoundDuration":406889,"Delta":27824439},{"NoteNumber":58,"Velocity":36,"Duration":406889,"SoundDuration":406889,"Delta":27824439},{"NoteNumber":75,"Velocity":44,"Duration":129148,"SoundDuration":129148,"Delta":28231329},{"NoteNumber":65,"Velocity":31,"Duration":387446,"SoundDuration":387446,"Delta":28231329},{"NoteNumber":73,"Velocity":40,"Duration":129148,"SoundDuration":129148,"Delta":28360478},{"NoteNumber":72,"Velocity":41,"Duration":129148,"SoundDuration":129148,"Delta":28489627},{"NoteNumber":73,"Velocity":50,"Duration":406890,"SoundDuration":406890,"Delta":28618776},{"NoteNumber":61,"Velocity":31,"Duration":406890,"SoundDuration":406890,"Delta":28618776},{"NoteNumber":75,"Velocity":50,"Duration":446030,"SoundDuration":446030,"Delta":29025666},{"NoteNumber":65,"Velocity":31,"Duration":446030,"SoundDuration":446030,"Delta":29025666},{"NoteNumber":76,"Velocity":55,"Duration":1214921,"SoundDuration":1214921,"Delta":29471696},{"NoteNumber":56,"Velocity":36,"Duration":412031,"SoundDuration":412031,"Delta":29471696},{"NoteNumber":65,"Velocity":27,"Duration":401444,"SoundDuration":401444,"Delta":29883728},{"NoteNumber":60,"Velocity":29,"Duration":401445,"SoundDuration":401445,"Delta":30285173},{"NoteNumber":77,"Velocity":49,"Duration":428387,"SoundDuration":428387,"Delta":30686618},{"NoteNumber":65,"Velocity":27,"Duration":428387,"SoundDuration":428387,"Delta":30686618},{"NoteNumber":72,"Velocity":49,"Duration":412031,"SoundDuration":412031,"Delta":31115006},{"NoteNumber":56,"Velocity":36,"Duration":412031,"SoundDuration":412031,"Delta":31115006},{"NoteNumber":65,"Velocity":27,"Duration":396143,"SoundDuration":396143,"Delta":31527037},{"NoteNumber":60,"Velocity":30,"Duration":396144,"SoundDuration":396144,"Delta":31923181},{"NoteNumber":65,"Velocity":26,"Duration":440011,"SoundDuration":440011,"Delta":32319325},{"NoteNumber":75,"Velocity":55,"Duration":412031,"SoundDuration":412031,"Delta":32759337},{"NoteNumber":54,"Velocity":36,"Duration":412031,"SoundDuration":412031,"Delta":32759337},{"NoteNumber":77,"Velocity":49,"Duration":129148,"SoundDuration":129148,"Delta":33171368},{"NoteNumber":63,"Velocity":32,"Duration":387446,"SoundDuration":387446,"Delta":33171368},{"NoteNumber":75,"Velocity":44,"Duration":129148,"SoundDuration":129148,"Delta":33300517},{"NoteNumber":74,"Velocity":44,"Duration":129148,"SoundDuration":129148,"Delta":33429666},{"NoteNumber":75,"Velocity":59,"Duration":412031,"SoundDuration":412031,"Delta":33558815},{"NoteNumber":58,"Velocity":32,"Duration":412031,"SoundDuration":412031,"Delta":33558815},{"NoteNumber":77,"Velocity":53,"Duration":412031,"SoundDuration":412031,"Delta":33970846},{"NoteNumber":63,"Velocity":32,"Duration":412031,"SoundDuration":412031,"Delta":33970846},{"NoteNumber":78,"Velocity":56,"Duration":412031,"SoundDuration":412031,"Delta":34382878},{"NoteNumber":51,"Velocity":39,"Duration":412031,"SoundDuration":412031,"Delta":34382878},{"NoteNumber":80,"Velocity":55,"Duration":129148,"SoundDuration":129148,"Delta":34794909},{"NoteNumber":58,"Velocity":33,"Duration":387446,"SoundDuration":387446,"Delta":34794909},{"NoteNumber":78,"Velocity":56,"Duration":129148,"SoundDuration":129148,"Delta":34924058},{"NoteNumber":77,"Velocity":56,"Duration":129148,"SoundDuration":129148,"Delta":35053207},{"NoteNumber":78,"Velocity":63,"Duration":406889,"SoundDuration":406889,"Delta":35182356},{"NoteNumber":54,"Velocity":36,"Duration":406889,"SoundDuration":406889,"Delta":35182356},{"NoteNumber":80,"Velocity":61,"Duration":428387,"SoundDuration":428387,"Delta":35589246},{"NoteNumber":58,"Velocity":36,"Duration":428387,"SoundDuration":428387,"Delta":35589246},{"NoteNumber":81,"Velocity":68,"Duration":1229736,"SoundDuration":1229736,"Delta":36017634},{"NoteNumber":50,"Velocity":44,"Duration":406889,"SoundDuration":406889,"Delta":36017634},{"NoteNumber":58,"Velocity":35,"Duration":406890,"SoundDuration":406890,"Delta":36424524},{"NoteNumber":53,"Velocity":42,"Duration":415956,"SoundDuration":415956,"Delta":36831414},{"NoteNumber":82,"Velocity":64,"Duration":434090,"SoundDuration":434090,"Delta":37247371},{"NoteNumber":58,"Velocity":40,"Duration":434090,"SoundDuration":434090,"Delta":37247371},{"NoteNumber":77,"Velocity":59,"Duration":406889,"SoundDuration":406889,"Delta":37681461},{"NoteNumber":49,"Velocity":46,"Duration":406889,"SoundDuration":406889,"Delta":37681461},{"NoteNumber":58,"Velocity":45,"Duration":406890,"SoundDuration":406890,"Delta":38088351},{"NoteNumber":53,"Velocity":50,"Duration":406889,"SoundDuration":406889,"Delta":38495241},{"NoteNumber":58,"Velocity":45,"Duration":428231,"SoundDuration":428231,"Delta":38902131},{"NoteNumber":76,"Velocity":69,"Duration":224786,"SoundDuration":224786,"Delta":39105576},{"NoteNumber":85,"Velocity":94,"Duration":2034449,"SoundDuration":2034449,"Delta":39330363},{"NoteNumber":48,"Velocity":54,"Duration":406889,"SoundDuration":406889,"Delta":39330363},{"NoteNumber":58,"Velocity":36,"Duration":406890,"SoundDuration":406890,"Delta":39737252},{"NoteNumber":55,"Velocity":36,"Duration":406889,"SoundDuration":406889,"Delta":40144143},{"NoteNumber":58,"Velocity":36,"Duration":406890,"SoundDuration":406890,"Delta":40551033},{"NoteNumber":48,"Velocity":37,"Duration":406889,"SoundDuration":406889,"Delta":40957923},{"NoteNumber":84,"Velocity":60,"Duration":200722,"SoundDuration":200722,"Delta":41364813},{"NoteNumber":58,"Velocity":24,"Duration":401445,"SoundDuration":401445,"Delta":41364813},{"NoteNumber":82,"Velocity":55,"Duration":200722,"SoundDuration":200722,"Delta":41565535},{"NoteNumber":80,"Velocity":57,"Duration":200722,"SoundDuration":200722,"Delta":41766258},{"NoteNumber":55,"Velocity":27,"Duration":401444,"SoundDuration":401444,"Delta":41766258},{"NoteNumber":79,"Velocity":51,"Duration":200722,"SoundDuration":200722,"Delta":41966980},{"NoteNumber":77,"Velocity":54,"Duration":200722,"SoundDuration":200722,"Delta":42167702},{"NoteNumber":58,"Velocity":23,"Duration":428928,"SoundDuration":428928,"Delta":42167702},{"NoteNumber":76,"Velocity":50,"Duration":228206,"SoundDuration":228206,"Delta":42368425},{"NoteNumber":79,"Velocity":57,"Duration":813780,"SoundDuration":813780,"Delta":42596631},{"NoteNumber":49,"Velocity":34,"Duration":406889,"SoundDuration":406889,"Delta":42596631},{"NoteNumber":56,"Velocity":22,"Duration":406890,"SoundDuration":406890,"Delta":43003521},{"NoteNumber":77,"Velocity":62,"Duration":1199177,"SoundDuration":1199177,"Delta":43410411},{"NoteNumber":53,"Velocity":27,"Duration":406889,"SoundDuration":406889,"Delta":43410411},{"NoteNumber":56,"Velocity":23,"Duration":396143,"SoundDuration":396143,"Delta":43817301},{"NoteNumber":46,"Velocity":29,"Duration":396143,"SoundDuration":396143,"Delta":44213445},{"NoteNumber":75,"Velocity":55,"Duration":792287,"SoundDuration":792287,"Delta":44609589},{"NoteNumber":55,"Velocity":22,"Duration":396143,"SoundDuration":396143,"Delta":44609589},{"NoteNumber":49,"Velocity":23,"Duration":396143,"SoundDuration":396143,"Delta":45005733},{"NoteNumber":73,"Velocity":56,"Duration":418235,"SoundDuration":418235,"Delta":45401877},{"NoteNumber":55,"Velocity":22,"Duration":418235,"SoundDuration":418235,"Delta":45401877},{"NoteNumber":72,"Velocity":50,"Duration":412031,"SoundDuration":412031,"Delta":45820112},{"NoteNumber":48,"Velocity":30,"Duration":412031,"SoundDuration":412031,"Delta":45820112},{"NoteNumber":73,"Velocity":43,"Duration":130701,"SoundDuration":130701,"Delta":46232144},{"NoteNumber":56,"Velocity":26,"Duration":392105,"SoundDuration":392105,"Delta":46232144},{"NoteNumber":72,"Velocity":44,"Duration":130701,"SoundDuration":130701,"Delta":46362846},{"NoteNumber":70,"Velocity":44,"Duration":130701,"SoundDuration":130701,"Delta":46493547},{"NoteNumber":72,"Velocity":45,"Duration":406889,"SoundDuration":406889,"Delta":46624249},{"NoteNumber":53,"Velocity":26,"Duration":406889,"SoundDuration":406889,"Delta":46624249},{"NoteNumber":73,"Velocity":50,"Duration":406890,"SoundDuration":406890,"Delta":47031139},{"NoteNumber":56,"Velocity":26,"Duration":406890,"SoundDuration":406890,"Delta":47031139},{"NoteNumber":65,"Velocity":50,"Duration":794336,"SoundDuration":794336,"Delta":47438029},{"NoteNumber":48,"Velocity":30,"Duration":406889,"SoundDuration":406889,"Delta":47438029},{"NoteNumber":58,"Velocity":26,"Duration":387446,"SoundDuration":387446,"Delta":47844919},{"NoteNumber":68,"Velocity":50,"Duration":406889,"SoundDuration":406889,"Delta":48232366},{"NoteNumber":64,"Velocity":38,"Duration":852920,"SoundDuration":852920,"Delta":48232366},{"NoteNumber":55,"Velocity":26,"Duration":406889,"SoundDuration":406889,"Delta":48232366},{"NoteNumber":67,"Velocity":46,"Duration":446030,"SoundDuration":446030,"Delta":48639256},{"NoteNumber":58,"Velocity":26,"Duration":446030,"SoundDuration":446030,"Delta":48639256},{"NoteNumber":65,"Velocity":53,"Duration":1643309,"SoundDuration":1643309,"Delta":49085286},{"NoteNumber":53,"Velocity":27,"Duration":813476,"SoundDuration":813476,"Delta":49085286},{"NoteNumber":57,"Velocity":38,"Duration":412031,"SoundDuration":412031,"Delta":49085286},{"NoteNumber":60,"Velocity":30,"Duration":200722,"SoundDuration":200722,"Delta":49497318},{"NoteNumber":60,"Velocity":30,"Duration":200722,"SoundDuration":200722,"Delta":49898763},{"NoteNumber":60,"Velocity":30,"Duration":214193,"SoundDuration":214193,"Delta":50300208},{"NoteNumber":53,"Velocity":32,"Duration":808175,"SoundDuration":808175,"Delta":50728596},{"NoteNumber":57,"Velocity":38,"Duration":412031,"SoundDuration":412031,"Delta":50728596},{"NoteNumber":60,"Velocity":28,"Duration":396143,"SoundDuration":396143,"Delta":51140627},{"NoteNumber":58,"Velocity":28,"Duration":396143,"SoundDuration":396143,"Delta":51536771},{"NoteNumber":55,"Velocity":23,"Duration":836155,"SoundDuration":836155,"Delta":51536771},{"NoteNumber":60,"Velocity":28,"Duration":440011,"SoundDuration":440011,"Delta":51932915},{"NoteNumber":70,"Velocity":45,"Duration":813476,"SoundDuration":813476,"Delta":52372927},{"NoteNumber":52,"Velocity":29,"Duration":813476,"SoundDuration":813476,"Delta":52372927},{"NoteNumber":55,"Velocity":35,"Duration":412031,"SoundDuration":412031,"Delta":52372927},{"NoteNumber":60,"Velocity":30,"Duration":200722,"SoundDuration":200722,"Delta":52784958},{"NoteNumber":60,"Velocity":30,"Duration":200722,"SoundDuration":200722,"Delta":53186403},{"NoteNumber":60,"Velocity":30,"Duration":214193,"SoundDuration":214193,"Delta":53587848},{"NoteNumber":67,"Velocity":45,"Duration":412031,"SoundDuration":412031,"Delta":54016236},{"NoteNumber":48,"Velocity":28,"Duration":808175,"SoundDuration":808175,"Delta":54016236},{"NoteNumber":52,"Velocity":34,"Duration":412031,"SoundDuration":412031,"Delta":54016236},{"NoteNumber":60,"Velocity":31,"Duration":396143,"SoundDuration":396143,"Delta":54428268},{"NoteNumber":64,"Velocity":42,"Duration":396143,"SoundDuration":396143,"Delta":54824412},{"NoteNumber":58,"Velocity":31,"Duration":396143,"SoundDuration":396143,"Delta":54824412},{"NoteNumber":55,"Velocity":26,"Duration":836155,"SoundDuration":836155,"Delta":54824412},{"NoteNumber":60,"Velocity":31,"Duration":440011,"SoundDuration":440011,"Delta":55220556},{"NoteNumber":72,"Velocity":53,"Duration":612753,"SoundDuration":612753,"Delta":55660567},{"NoteNumber":53,"Velocity":32,"Duration":813476,"SoundDuration":813476,"Delta":55660567},{"NoteNumber":57,"Velocity":38,"Duration":412031,"SoundDuration":412031,"Delta":55660567},{"NoteNumber":60,"Velocity":30,"Duration":200722,"SoundDuration":200722,"Delta":56072599},{"NoteNumber":69,"Velocity":49,"Duration":200722,"SoundDuration":200722,"Delta":56273321},{"NoteNumber":72,"Velocity":53,"Duration":401444,"SoundDuration":401444,"Delta":56474044},{"NoteNumber":60,"Velocity":30,"Duration":200722,"SoundDuration":200722,"Delta":56474044},{"NoteNumber":60,"Velocity":30,"Duration":214193,"SoundDuration":214193,"Delta":56875489},{"NoteNumber":57,"Velocity":38,"Duration":412031,"SoundDuration":412031,"Delta":57303877},{"NoteNumber":53,"Velocity":32,"Duration":808175,"SoundDuration":808175,"Delta":57303877},{"NoteNumber":60,"Velocity":28,"Duration":396143,"SoundDuration":396143,"Delta":57715908},{"NoteNumber":55,"Velocity":23,"Duration":836155,"SoundDuration":836155,"Delta":58112052},{"NoteNumber":58,"Velocity":28,"Duration":396143,"SoundDuration":396143,"Delta":58112052},{"NoteNumber":60,"Velocity":28,"Duration":440011,"SoundDuration":440011,"Delta":58508196},{"NoteNumber":70,"Velocity":45,"Duration":813476,"SoundDuration":813476,"Delta":58948208},{"NoteNumber":55,"Velocity":35,"Duration":412031,"SoundDuration":412031,"Delta":58948208},{"NoteNumber":52,"Velocity":29,"Duration":813476,"SoundDuration":813476,"Delta":58948208},{"NoteNumber":60,"Velocity":30,"Duration":200722,"SoundDuration":200722,"Delta":59360239},{"NoteNumber":60,"Velocity":30,"Duration":200722,"SoundDuration":200722,"Delta":59761684},{"NoteNumber":60,"Velocity":30,"Duration":214193,"SoundDuration":214193,"Delta":60163129},{"NoteNumber":67,"Velocity":45,"Duration":412031,"SoundDuration":412031,"Delta":60591517},{"NoteNumber":48,"Velocity":28,"Duration":808175,"SoundDuration":808175,"Delta":60591517},{"NoteNumber":52,"Velocity":34,"Duration":412031,"SoundDuration":412031,"Delta":60591517},{"NoteNumber":60,"Velocity":31,"Duration":396143,"SoundDuration":396143,"Delta":61003549},{"NoteNumber":64,"Velocity":42,"Duration":396143,"SoundDuration":396143,"Delta":61399693},{"NoteNumber":55,"Velocity":26,"Duration":836155,"SoundDuration":836155,"Delta":61399693},{"NoteNumber":58,"Velocity":31,"Duration":396143,"SoundDuration":396143,"Delta":61399693},{"NoteNumber":60,"Velocity":31,"Duration":440011,"SoundDuration":440011,"Delta":61795837},{"NoteNumber":72,"Velocity":53,"Duration":612753,"SoundDuration":612753,"Delta":62235848},{"NoteNumber":57,"Velocity":38,"Duration":813476,"SoundDuration":813476,"Delta":62235848},{"NoteNumber":53,"Velocity":32,"Duration":813476,"SoundDuration":813476,"Delta":62235848},{"NoteNumber":69,"Velocity":50,"Duration":200722,"SoundDuration":200722,"Delta":62848602},{"NoteNumber":72,"Velocity":53,"Duration":401444,"SoundDuration":401444,"Delta":63049325},{"NoteNumber":77,"Velocity":59,"Duration":412031,"SoundDuration":412031,"Delta":63879158},{"NoteNumber":81,"Velocity":70,"Duration":412031,"SoundDuration":412031,"Delta":63879158},{"NoteNumber":79,"Velocity":64,"Duration":396144,"SoundDuration":396144,"Delta":64291189},{"NoteNumber":76,"Velocity":54,"Duration":396144,"SoundDuration":396144,"Delta":64291189},{"NoteNumber":74,"Velocity":48,"Duration":356529,"SoundDuration":356529,"Delta":64687333},{"NoteNumber":77,"Velocity":57,"Duration":356529,"SoundDuration":356529,"Delta":64687333},{"NoteNumber":73,"Velocity":48,"Duration":371236,"SoundDuration":371236,"Delta":65083477},{"NoteNumber":76,"Velocity":57,"Duration":371236,"SoundDuration":371236,"Delta":65083477},{"NoteNumber":77,"Velocity":70,"Duration":418234,"SoundDuration":418234,"Delta":65495962},{"NoteNumber":74,"Velocity":59,"Duration":418234,"SoundDuration":418234,"Delta":65495962},{"NoteNumber":72,"Velocity":54,"Duration":401444,"SoundDuration":401444,"Delta":65914197},{"NoteNumber":76,"Velocity":64,"Duration":401444,"SoundDuration":401444,"Delta":65914197},{"NoteNumber":70,"Velocity":50,"Duration":361300,"SoundDuration":361300,"Delta":66315642},{"NoteNumber":74,"Velocity":59,"Duration":361300,"SoundDuration":361300,"Delta":66315642},{"NoteNumber":73,"Velocity":59,"Duration":376411,"SoundDuration":376411,"Delta":66717087},{"NoteNumber":69,"Velocity":50,"Duration":376411,"SoundDuration":376411,"Delta":66717087},{"NoteNumber":70,"Velocity":59,"Duration":418234,"SoundDuration":418234,"Delta":67135322},{"NoteNumber":74,"Velocity":70,"Duration":418234,"SoundDuration":418234,"Delta":67135322},{"NoteNumber":69,"Velocity":53,"Duration":406890,"SoundDuration":406890,"Delta":67553557},{"NoteNumber":72,"Velocity":63,"Duration":406890,"SoundDuration":406890,"Delta":67553557},{"NoteNumber":67,"Velocity":50,"Duration":366200,"SoundDuration":366200,"Delta":67960447},{"NoteNumber":70,"Velocity":59,"Duration":366200,"SoundDuration":366200,"Delta":67960447},{"NoteNumber":69,"Velocity":58,"Duration":366201,"SoundDuration":366201,"Delta":68367337},{"NoteNumber":66,"Velocity":49,"Duration":366201,"SoundDuration":366201,"Delta":68367337},{"NoteNumber":62,"Velocity":49,"Duration":2034450,"SoundDuration":2034450,"Delta":68774227},{"NoteNumber":66,"Velocity":58,"Duration":1627560,"SoundDuration":1627560,"Delta":68774227},{"NoteNumber":69,"Velocity":58,"Duration":1627560,"SoundDuration":1627560,"Delta":68774227},{"NoteNumber":54,"Velocity":27,"Duration":1627560,"SoundDuration":1627560,"Delta":68774227},{"NoteNumber":50,"Velocity":27,"Duration":1627560,"SoundDuration":1627560,"Delta":68774227},{"NoteNumber":60,"Velocity":32,"Duration":1627560,"SoundDuration":1627560,"Delta":68774227},{"NoteNumber":57,"Velocity":27,"Duration":1627560,"SoundDuration":1627560,"Delta":68774227},{"NoteNumber":70,"Velocity":49,"Duration":610335,"SoundDuration":610335,"Delta":70401787},{"NoteNumber":67,"Velocity":41,"Duration":406890,"SoundDuration":406890,"Delta":70401787},{"NoteNumber":55,"Velocity":35,"Duration":1627560,"SoundDuration":1627560,"Delta":70401787},{"NoteNumber":58,"Velocity":42,"Duration":813779,"SoundDuration":813779,"Delta":70401787},{"NoteNumber":72,"Velocity":45,"Duration":50861,"SoundDuration":50861,"Delta":71012122},{"NoteNumber":70,"Velocity":45,"Duration":50861,"SoundDuration":50861,"Delta":71062983},{"NoteNumber":69,"Velocity":45,"Duration":50861,"SoundDuration":50861,"Delta":71113844},{"NoteNumber":70,"Velocity":45,"Duration":50861,"SoundDuration":50861,"Delta":71164705},{"NoteNumber":72,"Velocity":50,"Duration":406890,"SoundDuration":406890,"Delta":71215567},{"NoteNumber":64,"Velocity":44,"Duration":813780,"SoundDuration":813780,"Delta":71215567},{"NoteNumber":74,"Velocity":48,"Duration":406890,"SoundDuration":406890,"Delta":71622457},{"NoteNumber":72,"Velocity":49,"Duration":259740,"SoundDuration":259740,"Delta":72029347},{"NoteNumber":57,"Velocity":40,"Duration":795016,"SoundDuration":795016,"Delta":72029347},{"NoteNumber":65,"Velocity":48,"Duration":795016,"SoundDuration":795016,"Delta":72029347},{"NoteNumber":70,"Velocity":45,"Duration":265005,"SoundDuration":265005,"Delta":72289087},{"NoteNumber":69,"Velocity":45,"Duration":270270,"SoundDuration":270270,"Delta":72554092},{"NoteNumber":67,"Velocity":48,"Duration":263158,"SoundDuration":263158,"Delta":72824363},{"NoteNumber":58,"Velocity":38,"Duration":805696,"SoundDuration":805696,"Delta":72824363},{"NoteNumber":62,"Velocity":45,"Duration":805696,"SoundDuration":805696,"Delta":72824363},{"NoteNumber":70,"Velocity":45,"Duration":268565,"SoundDuration":268565,"Delta":73087521},{"NoteNumber":74,"Velocity":45,"Duration":273972,"SoundDuration":273972,"Delta":73356086},{"NoteNumber":65,"Velocity":50,"Duration":810811,"SoundDuration":810811,"Delta":73630059},{"NoteNumber":57,"Velocity":44,"Duration":810811,"SoundDuration":810811,"Delta":73630059},{"NoteNumber":48,"Velocity":37,"Duration":1638751,"SoundDuration":1638751,"Delta":73630059},{"NoteNumber":64,"Velocity":38,"Duration":827940,"SoundDuration":827940,"Delta":74440870},{"NoteNumber":67,"Velocity":45,"Duration":827940,"SoundDuration":827940,"Delta":74440870},{"NoteNumber":58,"Velocity":40,"Duration":827940,"SoundDuration":827940,"Delta":74440870},{"NoteNumber":67,"Velocity":48,"Duration":612753,"SoundDuration":612753,"Delta":75268810},{"NoteNumber":64,"Velocity":40,"Duration":813476,"SoundDuration":813476,"Delta":75268810},{"NoteNumber":57,"Velocity":38,"Duration":412031,"SoundDuration":412031,"Delta":75268810},{"NoteNumber":53,"Velocity":32,"Duration":813476,"SoundDuration":813476,"Delta":75268810},{"NoteNumber":60,"Velocity":30,"Duration":200722,"SoundDuration":200722,"Delta":75680842},{"NoteNumber":68,"Velocity":35,"Duration":200722,"SoundDuration":200722,"Delta":75881564},{"NoteNumber":69,"Velocity":44,"Duration":829833,"SoundDuration":829833,"Delta":76082287},{"NoteNumber":65,"Velocity":38,"Duration":829833,"SoundDuration":829833,"Delta":76082287},{"NoteNumber":60,"Velocity":30,"Duration":200722,"SoundDuration":200722,"Delta":76082287},{"NoteNumber":60,"Velocity":30,"Duration":214194,"SoundDuration":214194,"Delta":76483732},{"NoteNumber":53,"Velocity":28,"Duration":808175,"SoundDuration":808175,"Delta":76912120},{"NoteNumber":57,"Velocity":33,"Duration":412031,"SoundDuration":412031,"Delta":76912120},{"NoteNumber":60,"Velocity":27,"Duration":396144,"SoundDuration":396144,"Delta":77324151},{"NoteNumber":58,"Velocity":27,"Duration":396143,"SoundDuration":396143,"Delta":77720295},{"NoteNumber":55,"Velocity":22,"Duration":836155,"SoundDuration":836155,"Delta":77720295},{"NoteNumber":60,"Velocity":27,"Duration":440011,"SoundDuration":440011,"Delta":78116439},{"NoteNumber":70,"Velocity":45,"Duration":813476,"SoundDuration":813476,"Delta":78556451},{"NoteNumber":52,"Velocity":29,"Duration":813476,"SoundDuration":813476,"Delta":78556451},{"NoteNumber":55,"Velocity":35,"Duration":412031,"SoundDuration":412031,"Delta":78556451},{"NoteNumber":60,"Velocity":30,"Duration":200722,"SoundDuration":200722,"Delta":78968482},{"NoteNumber":60,"Velocity":30,"Duration":200722,"SoundDuration":200722,"Delta":79369927},{"NoteNumber":60,"Velocity":30,"Duration":214194,"SoundDuration":214194,"Delta":79771372},{"NoteNumber":67,"Velocity":45,"Duration":412031,"SoundDuration":412031,"Delta":80199760},{"NoteNumber":48,"Velocity":28,"Duration":808175,"SoundDuration":808175,"Delta":80199760},{"NoteNumber":52,"Velocity":34,"Duration":412031,"SoundDuration":412031,"Delta":80199760},{"NoteNumber":60,"Velocity":31,"Duration":396144,"SoundDuration":396144,"Delta":80611792},{"NoteNumber":64,"Velocity":42,"Duration":396143,"SoundDuration":396143,"Delta":81007936},{"NoteNumber":58,"Velocity":31,"Duration":396143,"SoundDuration":396143,"Delta":81007936},{"NoteNumber":55,"Velocity":26,"Duration":836155,"SoundDuration":836155,"Delta":81007936},{"NoteNumber":60,"Velocity":31,"Duration":440011,"SoundDuration":440011,"Delta":81404080},{"NoteNumber":72,"Velocity":53,"Duration":612753,"SoundDuration":612753,"Delta":81844091},{"NoteNumber":53,"Velocity":32,"Duration":813476,"SoundDuration":813476,"Delta":81844091},{"NoteNumber":57,"Velocity":38,"Duration":412031,"SoundDuration":412031,"Delta":81844091},{"NoteNumber":60,"Velocity":30,"Duration":200722,"SoundDuration":200722,"Delta":82256123},{"NoteNumber":69,"Velocity":49,"Duration":200722,"SoundDuration":200722,"Delta":82456845},{"NoteNumber":72,"Velocity":53,"Duration":401445,"SoundDuration":401445,"Delta":82657568},{"NoteNumber":60,"Velocity":30,"Duration":200722,"SoundDuration":200722,"Delta":82657568},{"NoteNumber":60,"Velocity":30,"Duration":214194,"SoundDuration":214194,"Delta":83059013},{"NoteNumber":53,"Velocity":32,"Duration":808175,"SoundDuration":808175,"Delta":83487401},{"NoteNumber":57,"Velocity":38,"Duration":412031,"SoundDuration":412031,"Delta":83487401},{"NoteNumber":60,"Velocity":28,"Duration":396144,"SoundDuration":396144,"Delta":83899432},{"NoteNumber":58,"Velocity":28,"Duration":396143,"SoundDuration":396143,"Delta":84295576},{"NoteNumber":55,"Velocity":23,"Duration":836155,"SoundDuration":836155,"Delta":84295576},{"NoteNumber":60,"Velocity":28,"Duration":440011,"SoundDuration":440011,"Delta":84691720},{"NoteNumber":70,"Velocity":45,"Duration":813476,"SoundDuration":813476,"Delta":85131732},{"NoteNumber":52,"Velocity":29,"Duration":813476,"SoundDuration":813476,"Delta":85131732},{"NoteNumber":55,"Velocity":35,"Duration":412031,"SoundDuration":412031,"Delta":85131732},{"NoteNumber":60,"Velocity":30,"Duration":200722,"SoundDuration":200722,"Delta":85543763},{"NoteNumber":60,"Velocity":30,"Duration":200722,"SoundDuration":200722,"Delta":85945208},{"NoteNumber":60,"Velocity":30,"Duration":214194,"SoundDuration":214194,"Delta":86346653},{"NoteNumber":67,"Velocity":45,"Duration":412031,"SoundDuration":412031,"Delta":86775041},{"NoteNumber":48,"Velocity":28,"Duration":808175,"SoundDuration":808175,"Delta":86775041},{"NoteNumber":52,"Velocity":34,"Duration":412031,"SoundDuration":412031,"Delta":86775041},{"NoteNumber":60,"Velocity":31,"Duration":396144,"SoundDuration":396144,"Delta":87187073},{"NoteNumber":64,"Velocity":42,"Duration":396143,"SoundDuration":396143,"Delta":87583217},{"NoteNumber":55,"Velocity":26,"Duration":836155,"SoundDuration":836155,"Delta":87583217},{"NoteNumber":58,"Velocity":31,"Duration":396143,"SoundDuration":396143,"Delta":87583217},{"NoteNumber":60,"Velocity":31,"Duration":440011,"SoundDuration":440011,"Delta":87979361},{"NoteNumber":72,"Velocity":53,"Duration":612753,"SoundDuration":612753,"Delta":88419372},{"NoteNumber":53,"Velocity":32,"Duration":813476,"SoundDuration":813476,"Delta":88419372},{"NoteNumber":57,"Velocity":38,"Duration":813476,"SoundDuration":813476,"Delta":88419372},{"NoteNumber":77,"Velocity":50,"Duration":200722,"SoundDuration":200722,"Delta":89032126},{"NoteNumber":72,"Velocity":53,"Duration":401445,"SoundDuration":401445,"Delta":89232849},{"NoteNumber":81,"Velocity":70,"Duration":412031,"SoundDuration":412031,"Delta":90062682},{"NoteNumber":77,"Velocity":59,"Duration":412031,"SoundDuration":412031,"Delta":90062682},{"NoteNumber":76,"Velocity":54,"Duration":396144,"SoundDuration":396144,"Delta":90474713},{"NoteNumber":79,"Velocity":64,"Duration":396144,"SoundDuration":396144,"Delta":90474713},{"NoteNumber":74,"Velocity":48,"Duration":356529,"SoundDuration":356529,"Delta":90870857},{"NoteNumber":77,"Velocity":57,"Duration":356529,"SoundDuration":356529,"Delta":90870857},{"NoteNumber":73,"Velocity":48,"Duration":371236,"SoundDuration":371236,"Delta":91267001},{"NoteNumber":76,"Velocity":57,"Duration":371236,"SoundDuration":371236,"Delta":91267001},{"NoteNumber":74,"Velocity":59,"Duration":418234,"SoundDuration":418234,"Delta":91679486},{"NoteNumber":77,"Velocity":70,"Duration":418234,"SoundDuration":418234,"Delta":91679486},{"NoteNumber":72,"Velocity":54,"Duration":401444,"SoundDuration":401444,"Delta":92097721},{"NoteNumber":76,"Velocity":64,"Duration":401444,"SoundDuration":401444,"Delta":92097721},{"NoteNumber":70,"Velocity":50,"Duration":361300,"SoundDuration":361300,"Delta":92499166},{"NoteNumber":74,"Velocity":59,"Duration":361300,"SoundDuration":361300,"Delta":92499166},{"NoteNumber":73,"Velocity":59,"Duration":376411,"SoundDuration":376411,"Delta":92900611},{"NoteNumber":69,"Velocity":50,"Duration":376411,"SoundDuration":376411,"Delta":92900611},{"NoteNumber":70,"Velocity":59,"Duration":418234,"SoundDuration":418234,"Delta":93318846},{"NoteNumber":74,"Velocity":70,"Duration":418234,"SoundDuration":418234,"Delta":93318846},{"NoteNumber":72,"Velocity":63,"Duration":406890,"SoundDuration":406890,"Delta":93737081},{"NoteNumber":69,"Velocity":53,"Duration":406890,"SoundDuration":406890,"Delta":93737081},{"NoteNumber":70,"Velocity":59,"Duration":366200,"SoundDuration":366200,"Delta":94143971},{"NoteNumber":67,"Velocity":50,"Duration":366200,"SoundDuration":366200,"Delta":94143971},{"NoteNumber":66,"Velocity":49,"Duration":407700,"SoundDuration":407700,"Delta":94550861},{"NoteNumber":69,"Velocity":58,"Duration":407700,"SoundDuration":407700,"Delta":94550861},{"NoteNumber":69,"Velocity":58,"Duration":1627560,"SoundDuration":1627560,"Delta":95005635},{"NoteNumber":62,"Velocity":49,"Duration":2034450,"SoundDuration":2034450,"Delta":95005635},{"NoteNumber":66,"Velocity":58,"Duration":1627560,"SoundDuration":1627560,"Delta":95005635},{"NoteNumber":60,"Velocity":34,"Duration":1627560,"SoundDuration":1627560,"Delta":95005635},{"NoteNumber":54,"Velocity":29,"Duration":1627560,"SoundDuration":1627560,"Delta":95005635},{"NoteNumber":57,"Velocity":29,"Duration":1627560,"SoundDuration":1627560,"Delta":95005635},{"NoteNumber":50,"Velocity":29,"Duration":1627560,"SoundDuration":1627560,"Delta":95005635},{"NoteNumber":67,"Velocity":41,"Duration":406890,"SoundDuration":406890,"Delta":96633195},{"NoteNumber":70,"Velocity":49,"Duration":610334,"SoundDuration":610334,"Delta":96633195},{"NoteNumber":55,"Velocity":35,"Duration":1627560,"SoundDuration":1627560,"Delta":96633195},{"NoteNumber":58,"Velocity":42,"Duration":813779,"SoundDuration":813779,"Delta":96633195},{"NoteNumber":72,"Velocity":45,"Duration":50861,"SoundDuration":50861,"Delta":97243530},{"NoteNumber":70,"Velocity":45,"Duration":50861,"SoundDuration":50861,"Delta":97294391},{"NoteNumber":69,"Velocity":45,"Duration":50861,"SoundDuration":50861,"Delta":97345253},{"NoteNumber":70,"Velocity":45,"Duration":50861,"SoundDuration":50861,"Delta":97396114},{"NoteNumber":72,"Velocity":50,"Duration":406890,"SoundDuration":406890,"Delta":97446975},{"NoteNumber":64,"Velocity":44,"Duration":813780,"SoundDuration":813780,"Delta":97446975},{"NoteNumber":74,"Velocity":48,"Duration":406890,"SoundDuration":406890,"Delta":97853865},{"NoteNumber":72,"Velocity":49,"Duration":267629,"SoundDuration":267629,"Delta":98260755},{"NoteNumber":65,"Velocity":48,"Duration":802890,"SoundDuration":802890,"Delta":98260755},{"NoteNumber":57,"Velocity":40,"Duration":802890,"SoundDuration":802890,"Delta":98260755},{"NoteNumber":77,"Velocity":45,"Duration":267629,"SoundDuration":267629,"Delta":98528385},{"NoteNumber":69,"Velocity":42,"Duration":267630,"SoundDuration":267630,"Delta":98796015},{"NoteNumber":67,"Velocity":48,"Duration":271259,"SoundDuration":271259,"Delta":99063645},{"NoteNumber":62,"Velocity":45,"Duration":838541,"SoundDuration":838541,"Delta":99063645},{"NoteNumber":58,"Velocity":38,"Duration":838541,"SoundDuration":838541,"Delta":99063645},{"NoteNumber":70,"Velocity":45,"Duration":271259,"SoundDuration":271259,"Delta":99334905},{"NoteNumber":74,"Velocity":43,"Duration":296021,"SoundDuration":296021,"Delta":99606165},{"NoteNumber":65,"Velocity":50,"Duration":813779,"SoundDuration":813779,"Delta":99902186},{"NoteNumber":57,"Velocity":42,"Duration":813779,"SoundDuration":813779,"Delta":99902186},{"NoteNumber":48,"Velocity":33,"Duration":1627560,"SoundDuration":1627560,"Delta":99902186},{"NoteNumber":64,"Velocity":45,"Duration":762918,"SoundDuration":762918,"Delta":100715966},{"NoteNumber":55,"Velocity":40,"Duration":813780,"SoundDuration":813780,"Delta":100715966},{"NoteNumber":69,"Velocity":56,"Duration":50861,"SoundDuration":50861,"Delta":101478885},{"NoteNumber":81,"Velocity":73,"Duration":1134332,"SoundDuration":1134332,"Delta":101529746},{"NoteNumber":53,"Velocity":50,"Duration":412484,"SoundDuration":412484,"Delta":101942231},{"NoteNumber":57,"Velocity":54,"Duration":412484,"SoundDuration":412484,"Delta":102354715},{"NoteNumber":77,"Velocity":49,"Duration":103121,"SoundDuration":103121,"Delta":102664079},{"NoteNumber":77,"Velocity":53,"Duration":79228,"SoundDuration":79228,"Delta":102767200},{"NoteNumber":62,"Velocity":50,"Duration":396144,"SoundDuration":396144,"Delta":102767200},{"NoteNumber":79,"Velocity":50,"Duration":79228,"SoundDuration":79228,"Delta":102846429},{"NoteNumber":77,"Velocity":54,"Duration":79228,"SoundDuration":79228,"Delta":102925658},{"NoteNumber":76,"Velocity":52,"Duration":79228,"SoundDuration":79228,"Delta":103004886},{"NoteNumber":77,"Velocity":54,"Duration":79228,"SoundDuration":79228,"Delta":103084115},{"NoteNumber":70,"Velocity":60,"Duration":104558,"SoundDuration":104558,"Delta":103163344},{"NoteNumber":82,"Velocity":74,"Duration":1097866,"SoundDuration":1097866,"Delta":103215623},{"NoteNumber":55,"Velocity":50,"Duration":418235,"SoundDuration":418235,"Delta":103581579},{"NoteNumber":58,"Velocity":54,"Duration":418234,"SoundDuration":418234,"Delta":103999814},{"NoteNumber":79,"Velocity":56,"Duration":104558,"SoundDuration":104558,"Delta":104313490},{"NoteNumber":79,"Velocity":56,"Duration":78196,"SoundDuration":78196,"Delta":104418049},{"NoteNumber":64,"Velocity":50,"Duration":390981,"SoundDuration":390981,"Delta":104418049},{"NoteNumber":81,"Velocity":52,"Duration":78196,"SoundDuration":78196,"Delta":104496245},{"NoteNumber":79,"Velocity":56,"Duration":78196,"SoundDuration":78196,"Delta":104574442},{"NoteNumber":78,"Velocity":54,"Duration":78196,"SoundDuration":78196,"Delta":104652638},{"NoteNumber":79,"Velocity":56,"Duration":78196,"SoundDuration":78196,"Delta":104730834},{"NoteNumber":84,"Velocity":74,"Duration":605474,"SoundDuration":605474,"Delta":104809030},{"NoteNumber":57,"Velocity":50,"Duration":418234,"SoundDuration":418234,"Delta":105205388},{"NoteNumber":81,"Velocity":61,"Duration":209117,"SoundDuration":209117,"Delta":105414505},{"NoteNumber":77,"Velocity":69,"Duration":1226863,"SoundDuration":1226863,"Delta":105623623},{"NoteNumber":60,"Velocity":54,"Duration":418235,"SoundDuration":418235,"Delta":105623623},{"NoteNumber":65,"Velocity":45,"Duration":1221113,"SoundDuration":1221113,"Delta":106041858},{"NoteNumber":57,"Velocity":49,"Duration":1649938,"SoundDuration":1649938,"Delta":106438002},{"NoteNumber":75,"Velocity":62,"Duration":412484,"SoundDuration":412484,"Delta":106850486},{"NoteNumber":74,"Velocity":67,"Duration":412484,"SoundDuration":412484,"Delta":107262971},{"NoteNumber":63,"Velocity":47,"Duration":824969,"SoundDuration":824969,"Delta":107262971},{"NoteNumber":73,"Velocity":62,"Duration":412484,"SoundDuration":412484,"Delta":107675455},{"NoteNumber":74,"Velocity":69,"Duration":424148,"SoundDuration":424148,"Delta":108087940},{"NoteNumber":65,"Velocity":48,"Duration":831038,"SoundDuration":831038,"Delta":108087940},{"NoteNumber":62,"Velocity":40,"Duration":831038,"SoundDuration":831038,"Delta":108087940},{"NoteNumber":58,"Velocity":40,"Duration":831038,"SoundDuration":831038,"Delta":108087940},{"NoteNumber":76,"Velocity":62,"Duration":101722,"SoundDuration":101722,"Delta":108512088},{"NoteNumber":78,"Velocity":63,"Duration":101722,"SoundDuration":101722,"Delta":108715533},{"NoteNumber":79,"Velocity":64,"Duration":101722,"SoundDuration":101722,"Delta":108918978},{"NoteNumber":81,"Velocity":65,"Duration":101722,"SoundDuration":101722,"Delta":109122423},{"NoteNumber":82,"Velocity":66,"Duration":99999,"SoundDuration":99999,"Delta":109325868},{"NoteNumber":85,"Velocity":67,"Duration":216953,"SoundDuration":216953,"Delta":109525868},{"NoteNumber":86,"Velocity":68,"Duration":101722,"SoundDuration":101722,"Delta":109725868},{"NoteNumber":62,"Velocity":40,"Duration":813779,"SoundDuration":813779,"Delta":109725868},{"NoteNumber":67,"Velocity":48,"Duration":813779,"SoundDuration":813779,"Delta":109725868},{"NoteNumber":58,"Velocity":40,"Duration":813779,"SoundDuration":813779,"Delta":109725868},{"NoteNumber":84,"Velocity":66,"Duration":220398,"SoundDuration":220398,"Delta":109929313},{"NoteNumber":82,"Velocity":65,"Duration":101722,"SoundDuration":101722,"Delta":110132758},{"NoteNumber":81,"Velocity":64,"Duration":220398,"SoundDuration":220398,"Delta":110336203},{"NoteNumber":79,"Velocity":63,"Duration":101722,"SoundDuration":101722,"Delta":110539648},{"NoteNumber":77,"Velocity":62,"Duration":220398,"SoundDuration":220398,"Delta":110743093},{"NoteNumber":76,"Velocity":61,"Duration":101722,"SoundDuration":101722,"Delta":110946538},{"NoteNumber":74,"Velocity":60,"Duration":214285,"SoundDuration":214285,"Delta":111149983},{"NoteNumber":72,"Velocity":60,"Duration":810811,"SoundDuration":810811,"Delta":111364269},{"NoteNumber":48,"Velocity":50,"Duration":405405,"SoundDuration":405405,"Delta":111364269},{"NoteNumber":57,"Velocity":43,"Duration":405405,"SoundDuration":405405,"Delta":111769674},{"NoteNumber":84,"Velocity":64,"Duration":1081081,"SoundDuration":1081081,"Delta":112175080},{"NoteNumber":53,"Velocity":50,"Duration":405405,"SoundDuration":405405,"Delta":112175080},{"NoteNumber":57,"Velocity":38,"Duration":405405,"SoundDuration":405405,"Delta":112580485},{"NoteNumber":48,"Velocity":43,"Duration":405405,"SoundDuration":405405,"Delta":112985891},{"NoteNumber":81,"Velocity":55,"Duration":270270,"SoundDuration":270270,"Delta":113256161},{"NoteNumber":57,"Velocity":31,"Duration":405405,"SoundDuration":405405,"Delta":113391296},{"NoteNumber":77,"Velocity":51,"Duration":270270,"SoundDuration":270270,"Delta":113526431},{"NoteNumber":72,"Velocity":58,"Duration":202702,"SoundDuration":202702,"Delta":113796702},{"NoteNumber":53,"Velocity":35,"Duration":405405,"SoundDuration":405405,"Delta":113796702},{"NoteNumber":69,"Velocity":51,"Duration":202702,"SoundDuration":202702,"Delta":113999404},{"NoteNumber":77,"Velocity":56,"Duration":202702,"SoundDuration":202702,"Delta":114202107},{"NoteNumber":57,"Velocity":33,"Duration":409092,"SoundDuration":409092,"Delta":114202107},{"NoteNumber":65,"Velocity":44,"Duration":105038,"SoundDuration":105038,"Delta":114506161},{"NoteNumber":67,"Velocity":44,"Duration":90171,"SoundDuration":90171,"Delta":114611200},{"NoteNumber":48,"Velocity":38,"Duration":416470,"SoundDuration":416470,"Delta":114611200},{"NoteNumber":69,"Velocity":41,"Duration":87217,"SoundDuration":87217,"Delta":114701371},{"NoteNumber":67,"Velocity":44,"Duration":88649,"SoundDuration":88649,"Delta":114788589},{"NoteNumber":69,"Velocity":39,"Duration":87667,"SoundDuration":87667,"Delta":114875518},{"NoteNumber":67,"Velocity":44,"Duration":84849,"SoundDuration":84849,"Delta":114963185},{"NoteNumber":58,"Velocity":31,"Duration":399816,"SoundDuration":399816,"Delta":115027671},{"NoteNumber":69,"Velocity":39,"Duration":86228,"SoundDuration":86228,"Delta":115048035},{"NoteNumber":67,"Velocity":44,"Duration":83712,"SoundDuration":83712,"Delta":115134263},{"NoteNumber":69,"Velocity":39,"Duration":84833,"SoundDuration":84833,"Delta":115217976},{"NoteNumber":67,"Velocity":44,"Duration":83935,"SoundDuration":83935,"Delta":115301157},{"NoteNumber":69,"Velocity":39,"Duration":81239,"SoundDuration":81239,"Delta":115385093},{"NoteNumber":52,"Velocity":33,"Duration":379192,"SoundDuration":379192,"Delta":115427488},{"NoteNumber":67,"Velocity":44,"Duration":80696,"SoundDuration":80696,"Delta":115466332},{"NoteNumber":69,"Velocity":38,"Duration":79113,"SoundDuration":79113,"Delta":115547028},{"NoteNumber":67,"Velocity":44,"Duration":80538,"SoundDuration":80538,"Delta":115626142},{"NoteNumber":69,"Velocity":38,"Duration":79687,"SoundDuration":79687,"Delta":115705117},{"NoteNumber":67,"Velocity":44,"Duration":78125,"SoundDuration":78125,"Delta":115784805},{"NoteNumber":58,"Velocity":31,"Duration":371875,"SoundDuration":371875,"Delta":115806680},{"NoteNumber":69,"Velocity":38,"Duration":79513,"SoundDuration":79513,"Delta":115862930},{"NoteNumber":67,"Velocity":43,"Duration":77160,"SoundDuration":77160,"Delta":115942444},{"NoteNumber":69,"Velocity":38,"Duration":78703,"SoundDuration":78703,"Delta":116019604},{"NoteNumber":67,"Velocity":43,"Duration":78703,"SoundDuration":78703,"Delta":116096765},{"NoteNumber":69,"Velocity":36,"Duration":77160,"SoundDuration":77160,"Delta":116175468},{"NoteNumber":48,"Velocity":37,"Duration":370370,"SoundDuration":370370,"Delta":116178555},{"NoteNumber":67,"Velocity":42,"Duration":78703,"SoundDuration":78703,"Delta":116252629},{"NoteNumber":69,"Velocity":36,"Duration":77160,"SoundDuration":77160,"Delta":116331333},{"NoteNumber":67,"Velocity":42,"Duration":78703,"SoundDuration":78703,"Delta":116408493},{"NoteNumber":69,"Velocity":36,"Duration":77639,"SoundDuration":77639,"Delta":116485654},{"NoteNumber":67,"Velocity":42,"Duration":87221,"SoundDuration":87221,"Delta":116548925},{"NoteNumber":58,"Velocity":32,"Duration":351413,"SoundDuration":351413,"Delta":116548925},{"NoteNumber":69,"Velocity":36,"Duration":88235,"SoundDuration":88235,"Delta":116636146},{"NoteNumber":67,"Velocity":42,"Duration":88235,"SoundDuration":88235,"Delta":116724382},{"NoteNumber":69,"Velocity":37,"Duration":87722,"SoundDuration":87722,"Delta":116812617},{"NoteNumber":67,"Velocity":42,"Duration":87209,"SoundDuration":87209,"Delta":116900339},{"NoteNumber":52,"Velocity":32,"Duration":366807,"SoundDuration":366807,"Delta":116900339},{"NoteNumber":69,"Velocity":36,"Duration":88241,"SoundDuration":88241,"Delta":116987548},{"NoteNumber":67,"Velocity":42,"Duration":92351,"SoundDuration":92351,"Delta":117075790},{"NoteNumber":69,"Velocity":37,"Duration":99005,"SoundDuration":99005,"Delta":117168142},{"NoteNumber":67,"Velocity":38,"Duration":138293,"SoundDuration":138293,"Delta":117267147},{"NoteNumber":58,"Velocity":32,"Duration":430990,"SoundDuration":430990,"Delta":117267147},{"NoteNumber":65,"Velocity":48,"Duration":147644,"SoundDuration":147644,"Delta":117405440},{"NoteNumber":67,"Velocity":42,"Duration":145051,"SoundDuration":145051,"Delta":117553085},{"NoteNumber":65,"Velocity":53,"Duration":813779,"SoundDuration":813779,"Delta":117698137},{"NoteNumber":53,"Velocity":37,"Duration":3234326,"SoundDuration":3234326,"Delta":117698137},{"NoteNumber":60,"Velocity":35,"Duration":406889,"SoundDuration":406889,"Delta":118105027},{"NoteNumber":65,"Velocity":39,"Duration":407543,"SoundDuration":407543,"Delta":118511917},{"NoteNumber":77,"Velocity":49,"Duration":102375,"SoundDuration":102375,"Delta":118817085},{"NoteNumber":77,"Velocity":50,"Duration":79869,"SoundDuration":79869,"Delta":118919460},{"NoteNumber":63,"Velocity":35,"Duration":385442,"SoundDuration":385442,"Delta":118919460},{"NoteNumber":79,"Velocity":48,"Duration":78286,"SoundDuration":78286,"Delta":118999330},{"NoteNumber":77,"Velocity":51,"Duration":76679,"SoundDuration":76679,"Delta":119077616},{"NoteNumber":76,"Velocity":50,"Duration":75353,"SoundDuration":75353,"Delta":119154296},{"NoteNumber":77,"Velocity":54,"Duration":75254,"SoundDuration":75254,"Delta":119229649},{"NoteNumber":84,"Velocity":63,"Duration":406890,"SoundDuration":406890,"Delta":119304903},{"NoteNumber":62,"Velocity":37,"Duration":813779,"SoundDuration":813779,"Delta":119304903},{"NoteNumber":82,"Velocity":58,"Duration":406889,"SoundDuration":406889,"Delta":119711793},{"NoteNumber":81,"Velocity":53,"Duration":406890,"SoundDuration":406890,"Delta":120118683},{"NoteNumber":60,"Velocity":34,"Duration":813780,"SoundDuration":813780,"Delta":120118683},{"NoteNumber":79,"Velocity":53,"Duration":406890,"SoundDuration":406890,"Delta":120525573},{"NoteNumber":79,"Velocity":62,"Duration":406890,"SoundDuration":406890,"Delta":120932463},{"NoteNumber":57,"Velocity":35,"Duration":406890,"SoundDuration":406890,"Delta":120932463},{"NoteNumber":53,"Velocity":37,"Duration":3233622,"SoundDuration":3233622,"Delta":120932463},{"NoteNumber":77,"Velocity":51,"Duration":406889,"SoundDuration":406889,"Delta":121339353},{"NoteNumber":60,"Velocity":35,"Duration":406889,"SoundDuration":406889,"Delta":121339353},{"NoteNumber":65,"Velocity":39,"Duration":407543,"SoundDuration":407543,"Delta":121746243},{"NoteNumber":77,"Velocity":49,"Duration":102375,"SoundDuration":102375,"Delta":122051411},{"NoteNumber":77,"Velocity":50,"Duration":79869,"SoundDuration":79869,"Delta":122153787},{"NoteNumber":63,"Velocity":35,"Duration":385442,"SoundDuration":385442,"Delta":122153787},{"NoteNumber":79,"Velocity":48,"Duration":78286,"SoundDuration":78286,"Delta":122233656},{"NoteNumber":77,"Velocity":51,"Duration":76679,"SoundDuration":76679,"Delta":122311942},{"NoteNumber":76,"Velocity":51,"Duration":75353,"SoundDuration":75353,"Delta":122388622},{"NoteNumber":77,"Velocity":54,"Duration":75254,"SoundDuration":75254,"Delta":122463975},{"NoteNumber":84,"Velocity":63,"Duration":406890,"SoundDuration":406890,"Delta":122539229},{"NoteNumber":62,"Velocity":37,"Duration":813779,"SoundDuration":813779,"Delta":122539229},{"NoteNumber":82,"Velocity":58,"Duration":406889,"SoundDuration":406889,"Delta":122946119},{"NoteNumber":81,"Velocity":53,"Duration":406890,"SoundDuration":406890,"Delta":123353009},{"NoteNumber":58,"Velocity":34,"Duration":813076,"SoundDuration":813076,"Delta":123353009},{"NoteNumber":79,"Velocity":53,"Duration":406186,"SoundDuration":406186,"Delta":123759899},{"NoteNumber":79,"Velocity":56,"Duration":402828,"SoundDuration":402828,"Delta":124166086},{"NoteNumber":53,"Velocity":41,"Duration":5552423,"SoundDuration":5552423,"Delta":124166086},{"NoteNumber":57,"Velocity":41,"Duration":402828,"SoundDuration":402828,"Delta":124166086},{"NoteNumber":77,"Velocity":50,"Duration":409011,"SoundDuration":409011,"Delta":124568915},{"NoteNumber":55,"Velocity":37,"Duration":409011,"SoundDuration":409011,"Delta":124568915},{"NoteNumber":58,"Velocity":37,"Duration":409011,"SoundDuration":409011,"Delta":124568915},{"NoteNumber":77,"Velocity":53,"Duration":430231,"SoundDuration":430231,"Delta":124977926},{"NoteNumber":60,"Velocity":40,"Duration":430231,"SoundDuration":430231,"Delta":124977926},{"NoteNumber":57,"Velocity":40,"Duration":430231,"SoundDuration":430231,"Delta":124977926},{"NoteNumber":62,"Velocity":37,"Duration":434686,"SoundDuration":434686,"Delta":125408157},{"NoteNumber":58,"Velocity":37,"Duration":434686,"SoundDuration":434686,"Delta":125408157},{"NoteNumber":77,"Velocity":53,"Duration":428743,"SoundDuration":428743,"Delta":125842843},{"NoteNumber":63,"Velocity":38,"Duration":428743,"SoundDuration":428743,"Delta":125842843},{"NoteNumber":60,"Velocity":38,"Duration":428743,"SoundDuration":428743,"Delta":125842843},{"NoteNumber":62,"Velocity":41,"Duration":444630,"SoundDuration":444630,"Delta":126271587},{"NoteNumber":59,"Velocity":41,"Duration":444630,"SoundDuration":444630,"Delta":126271587},{"NoteNumber":77,"Velocity":62,"Duration":473288,"SoundDuration":473288,"Delta":126716218},{"NoteNumber":60,"Velocity":44,"Duration":473288,"SoundDuration":473288,"Delta":126716218},{"NoteNumber":63,"Velocity":44,"Duration":473288,"SoundDuration":473288,"Delta":126716218},{"NoteNumber":59,"Velocity":47,"Duration":553042,"SoundDuration":553042,"Delta":127189506},{"NoteNumber":62,"Velocity":47,"Duration":553042,"SoundDuration":553042,"Delta":127189506},{"NoteNumber":77,"Velocity":65,"Duration":1975960,"SoundDuration":1975960,"Delta":127742549},{"NoteNumber":60,"Velocity":53,"Duration":1975960,"SoundDuration":1975960,"Delta":127742549},{"NoteNumber":63,"Velocity":53,"Duration":1975960,"SoundDuration":1975960,"Delta":127742549},{"NoteNumber":76,"Velocity":55,"Duration":236432,"SoundDuration":236432,"Delta":129718509},{"NoteNumber":77,"Velocity":53,"Duration":236432,"SoundDuration":236432,"Delta":129936754},{"NoteNumber":79,"Velocity":56,"Duration":236432,"SoundDuration":236432,"Delta":130155000},{"NoteNumber":77,"Velocity":51,"Duration":209151,"SoundDuration":209151,"Delta":130373245},{"NoteNumber":77,"Velocity":55,"Duration":229746,"SoundDuration":229746,"Delta":130591490},{"NoteNumber":75,"Velocity":49,"Duration":229746,"SoundDuration":229746,"Delta":130803564},{"NoteNumber":74,"Velocity":50,"Duration":247783,"SoundDuration":247783,"Delta":131015638},{"NoteNumber":72,"Velocity":47,"Duration":242993,"SoundDuration":242993,"Delta":131243172},{"NoteNumber":70,"Velocity":50,"Duration":401821,"SoundDuration":401821,"Delta":131486166},{"NoteNumber":58,"Velocity":36,"Duration":401821,"SoundDuration":401821,"Delta":131486166},{"NoteNumber":72,"Velocity":46,"Duration":133940,"SoundDuration":133940,"Delta":131887987},{"NoteNumber":65,"Velocity":27,"Duration":401821,"SoundDuration":401821,"Delta":131887987},{"NoteNumber":70,"Velocity":46,"Duration":133940,"SoundDuration":133940,"Delta":132021928},{"NoteNumber":69,"Velocity":46,"Duration":133940,"SoundDuration":133940,"Delta":132155868},{"NoteNumber":70,"Velocity":50,"Duration":401821,"SoundDuration":401821,"Delta":132289809},{"NoteNumber":62,"Velocity":27,"Duration":401821,"SoundDuration":401821,"Delta":132289809},{"NoteNumber":72,"Velocity":50,"Duration":401821,"SoundDuration":401821,"Delta":132691630},{"NoteNumber":65,"Velocity":27,"Duration":401821,"SoundDuration":401821,"Delta":132691630},{"NoteNumber":74,"Velocity":50,"Duration":401821,"SoundDuration":401821,"Delta":133093452},{"NoteNumber":58,"Velocity":36,"Duration":401821,"SoundDuration":401821,"Delta":133093452},{"NoteNumber":75,"Velocity":46,"Duration":127632,"SoundDuration":127632,"Delta":133495273},{"NoteNumber":65,"Velocity":28,"Duration":382897,"SoundDuration":382897,"Delta":133495273},{"NoteNumber":74,"Velocity":46,"Duration":127632,"SoundDuration":127632,"Delta":133622906},{"NoteNumber":72,"Velocity":46,"Duration":127632,"SoundDuration":127632,"Delta":133750538},{"NoteNumber":74,"Velocity":50,"Duration":396930,"SoundDuration":396930,"Delta":133878171},{"NoteNumber":62,"Velocity":28,"Duration":396930,"SoundDuration":396930,"Delta":133878171},{"NoteNumber":75,"Velocity":50,"Duration":432025,"SoundDuration":432025,"Delta":134275101},{"NoteNumber":65,"Velocity":28,"Duration":432025,"SoundDuration":432025,"Delta":134275101},{"NoteNumber":76,"Velocity":55,"Duration":1205464,"SoundDuration":1205464,"Delta":134707127},{"NoteNumber":57,"Velocity":36,"Duration":401821,"SoundDuration":401821,"Delta":134707127},{"NoteNumber":65,"Velocity":25,"Duration":401821,"SoundDuration":401821,"Delta":135108948},{"NoteNumber":60,"Velocity":27,"Duration":401821,"SoundDuration":401821,"Delta":135510770},{"NoteNumber":77,"Velocity":49,"Duration":434090,"SoundDuration":434090,"Delta":135912591},{"NoteNumber":65,"Velocity":24,"Duration":434090,"SoundDuration":434090,"Delta":135912591},{"NoteNumber":72,"Velocity":49,"Duration":401821,"SoundDuration":401821,"Delta":136346682},{"NoteNumber":57,"Velocity":36,"Duration":401821,"SoundDuration":401821,"Delta":136346682},{"NoteNumber":65,"Velocity":23,"Duration":401821,"SoundDuration":401821,"Delta":136748503},{"NoteNumber":60,"Velocity":29,"Duration":401821,"SoundDuration":401821,"Delta":137150325},{"NoteNumber":65,"Velocity":23,"Duration":424934,"SoundDuration":424934,"Delta":137552146},{"NoteNumber":75,"Velocity":50,"Duration":406890,"SoundDuration":406890,"Delta":137977080},{"NoteNumber":55,"Velocity":36,"Duration":406890,"SoundDuration":406890,"Delta":137977080},{"NoteNumber":77,"Velocity":46,"Duration":135629,"SoundDuration":135629,"Delta":138383970},{"NoteNumber":63,"Velocity":32,"Duration":390895,"SoundDuration":390895,"Delta":138383970},{"NoteNumber":75,"Velocity":44,"Duration":127632,"SoundDuration":127632,"Delta":138519600},{"NoteNumber":74,"Velocity":43,"Duration":127632,"SoundDuration":127632,"Delta":138647233},{"NoteNumber":75,"Velocity":50,"Duration":406890,"SoundDuration":406890,"Delta":138774865},{"NoteNumber":58,"Velocity":32,"Duration":406890,"SoundDuration":406890,"Delta":138774865},{"NoteNumber":77,"Velocity":50,"Duration":406890,"SoundDuration":406890,"Delta":139181755},{"NoteNumber":63,"Velocity":32,"Duration":406890,"SoundDuration":406890,"Delta":139181755},{"NoteNumber":79,"Velocity":52,"Duration":406890,"SoundDuration":406890,"Delta":139588645},{"NoteNumber":51,"Velocity":36,"Duration":406890,"SoundDuration":406890,"Delta":139588645},{"NoteNumber":81,"Velocity":49,"Duration":126135,"SoundDuration":126135,"Delta":139995535},{"NoteNumber":58,"Velocity":33,"Duration":378405,"SoundDuration":378405,"Delta":139995535},{"NoteNumber":79,"Velocity":46,"Duration":126135,"SoundDuration":126135,"Delta":140121671},{"NoteNumber":77,"Velocity":44,"Duration":126135,"SoundDuration":126135,"Delta":140247806},{"NoteNumber":79,"Velocity":57,"Duration":406890,"SoundDuration":406890,"Delta":140373941},{"NoteNumber":55,"Velocity":35,"Duration":406890,"SoundDuration":406890,"Delta":140373941},{"NoteNumber":81,"Velocity":59,"Duration":403372,"SoundDuration":403372,"Delta":140780831},{"NoteNumber":58,"Velocity":36,"Duration":421222,"SoundDuration":421222,"Delta":140780831},{"NoteNumber":81,"Velocity":68,"Duration":1199178,"SoundDuration":1199178,"Delta":141202053},{"NoteNumber":50,"Velocity":41,"Duration":406890,"SoundDuration":406890,"Delta":141202053},{"NoteNumber":58,"Velocity":30,"Duration":396143,"SoundDuration":396143,"Delta":141608943},{"NoteNumber":53,"Velocity":35,"Duration":396144,"SoundDuration":396144,"Delta":142005087},{"NoteNumber":82,"Velocity":54,"Duration":424148,"SoundDuration":424148,"Delta":142401231},{"NoteNumber":58,"Velocity":28,"Duration":424148,"SoundDuration":424148,"Delta":142401231},{"NoteNumber":77,"Velocity":52,"Duration":406890,"SoundDuration":406890,"Delta":142825379},{"NoteNumber":50,"Velocity":36,"Duration":406890,"SoundDuration":406890,"Delta":142825379},{"NoteNumber":58,"Velocity":25,"Duration":406890,"SoundDuration":406890,"Delta":143232269},{"NoteNumber":53,"Velocity":29,"Duration":406890,"SoundDuration":406890,"Delta":143639159},{"NoteNumber":58,"Velocity":26,"Duration":428388,"SoundDuration":428388,"Delta":144046049},{"NoteNumber":78,"Velocity":56,"Duration":406890,"SoundDuration":406890,"Delta":144474437},{"NoteNumber":51,"Velocity":36,"Duration":406890,"SoundDuration":406890,"Delta":144474437},{"NoteNumber":79,"Velocity":59,"Duration":802889,"SoundDuration":802889,"Delta":144881327},{"NoteNumber":55,"Velocity":27,"Duration":401444,"SoundDuration":401444,"Delta":144881327},{"NoteNumber":51,"Velocity":31,"Duration":401444,"SoundDuration":401444,"Delta":145282772},{"NoteNumber":80,"Velocity":50,"Duration":203444,"SoundDuration":203444,"Delta":145684217},{"NoteNumber":59,"Velocity":27,"Duration":406890,"SoundDuration":406890,"Delta":145684217},{"NoteNumber":79,"Velocity":50,"Duration":203445,"SoundDuration":203445,"Delta":145887662},{"NoteNumber":77,"Velocity":55,"Duration":417362,"SoundDuration":417362,"Delta":146091107},{"NoteNumber":51,"Velocity":34,"Duration":417362,"SoundDuration":417362,"Delta":146091107},{"NoteNumber":75,"Velocity":52,"Duration":325512,"SoundDuration":325512,"Delta":146508469},{"NoteNumber":60,"Velocity":27,"Duration":406890,"SoundDuration":406890,"Delta":146508469},{"NoteNumber":74,"Velocity":53,"Duration":325512,"SoundDuration":325512,"Delta":146915359},{"NoteNumber":51,"Velocity":27,"Duration":406890,"SoundDuration":406890,"Delta":146915359},{"NoteNumber":72,"Velocity":53,"Duration":344184,"SoundDuration":344184,"Delta":147322249},{"NoteNumber":63,"Velocity":27,"Duration":430230,"SoundDuration":430230,"Delta":147322249},{"NoteNumber":79,"Velocity":59,"Duration":412484,"SoundDuration":412484,"Delta":147752480},{"NoteNumber":50,"Velocity":36,"Duration":412484,"SoundDuration":412484,"Delta":147752480},{"NoteNumber":77,"Velocity":54,"Duration":824969,"SoundDuration":824969,"Delta":148164965},{"NoteNumber":53,"Velocity":31,"Duration":412484,"SoundDuration":412484,"Delta":148164965},{"NoteNumber":50,"Velocity":33,"Duration":412484,"SoundDuration":412484,"Delta":148577449},{"NoteNumber":79,"Velocity":55,"Duration":193723,"SoundDuration":193723,"Delta":148989934},{"NoteNumber":57,"Velocity":33,"Duration":387446,"SoundDuration":387446,"Delta":148989934},{"NoteNumber":77,"Velocity":52,"Duration":177579,"SoundDuration":177579,"Delta":149183657},{"NoteNumber":77,"Velocity":54,"Duration":208681,"SoundDuration":208681,"Delta":149377380},{"NoteNumber":50,"Velocity":36,"Duration":417362,"SoundDuration":417362,"Delta":149377380},{"NoteNumber":75,"Velocity":51,"Duration":191291,"SoundDuration":191291,"Delta":149586062},{"NoteNumber":75,"Velocity":55,"Duration":198465,"SoundDuration":198465,"Delta":149794743},{"NoteNumber":58,"Velocity":30,"Duration":396930,"SoundDuration":396930,"Delta":149794743},{"NoteNumber":74,"Velocity":50,"Duration":181926,"SoundDuration":181926,"Delta":149993208},{"NoteNumber":74,"Velocity":56,"Duration":206015,"SoundDuration":206015,"Delta":150191673},{"NoteNumber":50,"Velocity":31,"Duration":412031,"SoundDuration":412031,"Delta":150191673},{"NoteNumber":72,"Velocity":53,"Duration":188847,"SoundDuration":188847,"Delta":150397689},{"NoteNumber":72,"Velocity":59,"Duration":208333,"SoundDuration":208333,"Delta":150603705},{"NoteNumber":62,"Velocity":33,"Duration":416666,"SoundDuration":416666,"Delta":150603705},{"NoteNumber":70,"Velocity":59,"Duration":190972,"SoundDuration":190972,"Delta":150812038},{"NoteNumber":77,"Velocity":58,"Duration":100361,"SoundDuration":100361,"Delta":151020371},{"NoteNumber":53,"Velocity":36,"Duration":401444,"SoundDuration":401444,"Delta":151020371},{"NoteNumber":76,"Velocity":56,"Duration":100361,"SoundDuration":100361,"Delta":151221094},{"NoteNumber":75,"Velocity":59,"Duration":818921,"SoundDuration":818921,"Delta":151421816},{"NoteNumber":65,"Velocity":30,"Duration":406890,"SoundDuration":406890,"Delta":151421816},{"NoteNumber":60,"Velocity":30,"Duration":412031,"SoundDuration":412031,"Delta":151828706},{"NoteNumber":72,"Velocity":51,"Duration":405405,"SoundDuration":405405,"Delta":152240738},{"NoteNumber":65,"Velocity":30,"Duration":405405,"SoundDuration":405405,"Delta":152240738},{"NoteNumber":75,"Velocity":58,"Duration":103007,"SoundDuration":103007,"Delta":152646143},{"NoteNumber":58,"Velocity":36,"Duration":412031,"SoundDuration":412031,"Delta":152646143},{"NoteNumber":73,"Velocity":55,"Duration":103007,"SoundDuration":103007,"Delta":152852159},{"NoteNumber":74,"Velocity":58,"Duration":824062,"SoundDuration":824062,"Delta":153058175},{"NoteNumber":65,"Velocity":30,"Duration":412031,"SoundDuration":412031,"Delta":153058175},{"NoteNumber":62,"Velocity":31,"Duration":412031,"SoundDuration":412031,"Delta":153470206},{"NoteNumber":70,"Velocity":54,"Duration":434090,"SoundDuration":434090,"Delta":153882238},{"NoteNumber":65,"Velocity":30,"Duration":434090,"SoundDuration":434090,"Delta":153882238},{"NoteNumber":74,"Velocity":59,"Duration":1236094,"SoundDuration":1236094,"Delta":154316328},{"NoteNumber":53,"Velocity":36,"Duration":412031,"SoundDuration":412031,"Delta":154316328},{"NoteNumber":62,"Velocity":25,"Duration":412031,"SoundDuration":412031,"Delta":154728360},{"NoteNumber":58,"Velocity":25,"Duration":412031,"SoundDuration":412031,"Delta":155140391},{"NoteNumber":75,"Velocity":43,"Duration":206015,"SoundDuration":206015,"Delta":155552423},{"NoteNumber":62,"Velocity":25,"Duration":412031,"SoundDuration":412031,"Delta":155552423},{"NoteNumber":74,"Velocity":43,"Duration":206015,"SoundDuration":206015,"Delta":155758439},{"NoteNumber":72,"Velocity":50,"Duration":217045,"SoundDuration":217045,"Delta":155964454},{"NoteNumber":60,"Velocity":36,"Duration":852733,"SoundDuration":852733,"Delta":155964454},{"NoteNumber":57,"Velocity":36,"Duration":852733,"SoundDuration":852733,"Delta":155964454},{"NoteNumber":53,"Velocity":36,"Duration":852733,"SoundDuration":852733,"Delta":155964454},{"NoteNumber":77,"Velocity":45,"Duration":214470,"SoundDuration":214470,"Delta":156253848},{"NoteNumber":75,"Velocity":42,"Duration":209321,"SoundDuration":209321,"Delta":156538093},{"NoteNumber":75,"Velocity":50,"Duration":212284,"SoundDuration":212284,"Delta":156817188},{"NoteNumber":74,"Velocity":43,"Duration":212284,"SoundDuration":212284,"Delta":157029473},{"NoteNumber":75,"Velocity":40,"Duration":212284,"SoundDuration":212284,"Delta":157241757},{"NoteNumber":72,"Velocity":41,"Duration":235626,"SoundDuration":235626,"Delta":157454041},{"NoteNumber":70,"Velocity":50,"Duration":412881,"SoundDuration":412881,"Delta":157689668},{"NoteNumber":58,"Velocity":36,"Duration":412881,"SoundDuration":412881,"Delta":157689668},{"NoteNumber":72,"Velocity":43,"Duration":130701,"SoundDuration":130701,"Delta":158102550},{"NoteNumber":65,"Velocity":31,"Duration":392105,"SoundDuration":392105,"Delta":158102550},{"NoteNumber":70,"Velocity":44,"Duration":130701,"SoundDuration":130701,"Delta":158233252},{"NoteNumber":69,"Velocity":41,"Duration":130701,"SoundDuration":130701,"Delta":158363954},{"NoteNumber":70,"Velocity":45,"Duration":406890,"SoundDuration":406890,"Delta":158494655},{"NoteNumber":61,"Velocity":35,"Duration":406890,"SoundDuration":406890,"Delta":158494655},{"NoteNumber":72,"Velocity":50,"Duration":406890,"SoundDuration":406890,"Delta":158901545},{"NoteNumber":65,"Velocity":31,"Duration":406890,"SoundDuration":406890,"Delta":158901545},{"NoteNumber":73,"Velocity":53,"Duration":406890,"SoundDuration":406890,"Delta":159308435},{"NoteNumber":58,"Velocity":40,"Duration":406890,"SoundDuration":406890,"Delta":159308435},{"NoteNumber":75,"Velocity":44,"Duration":129148,"SoundDuration":129148,"Delta":159715325},{"NoteNumber":65,"Velocity":36,"Duration":387446,"SoundDuration":387446,"Delta":159715325},{"NoteNumber":73,"Velocity":44,"Duration":129148,"SoundDuration":129148,"Delta":159844474},{"NoteNumber":72,"Velocity":41,"Duration":129148,"SoundDuration":129148,"Delta":159973623},{"NoteNumber":73,"Velocity":51,"Duration":406890,"SoundDuration":406890,"Delta":160102772},{"NoteNumber":61,"Velocity":38,"Duration":406890,"SoundDuration":406890,"Delta":160102772},{"NoteNumber":75,"Velocity":52,"Duration":446030,"SoundDuration":446030,"Delta":160509662},{"NoteNumber":65,"Velocity":31,"Duration":446030,"SoundDuration":446030,"Delta":160509662},{"NoteNumber":76,"Velocity":61,"Duration":1214921,"SoundDuration":1214921,"Delta":160955692},{"NoteNumber":56,"Velocity":46,"Duration":412031,"SoundDuration":412031,"Delta":160955692},{"NoteNumber":65,"Velocity":36,"Duration":401444,"SoundDuration":401444,"Delta":161367724},{"NoteNumber":60,"Velocity":41,"Duration":401444,"SoundDuration":401444,"Delta":161769169},{"NoteNumber":77,"Velocity":56,"Duration":428388,"SoundDuration":428388,"Delta":162170614},{"NoteNumber":65,"Velocity":31,"Duration":428388,"SoundDuration":428388,"Delta":162170614},{"NoteNumber":72,"Velocity":56,"Duration":412031,"SoundDuration":412031,"Delta":162599002},{"NoteNumber":56,"Velocity":41,"Duration":412031,"SoundDuration":412031,"Delta":162599002},{"NoteNumber":65,"Velocity":31,"Duration":396143,"SoundDuration":396143,"Delta":163011033},{"NoteNumber":60,"Velocity":40,"Duration":396144,"SoundDuration":396144,"Delta":163407177},{"NoteNumber":65,"Velocity":32,"Duration":440011,"SoundDuration":440011,"Delta":163803321},{"NoteNumber":63,"Velocity":73,"Duration":917243,"SoundDuration":917243,"Delta":164243333},{"NoteNumber":54,"Velocity":36,"Duration":412031,"SoundDuration":412031,"Delta":164243333},{"NoteNumber":58,"Velocity":32,"Duration":387446,"SoundDuration":387446,"Delta":164655364},{"NoteNumber":54,"Velocity":39,"Duration":412125,"SoundDuration":412125,"Delta":165042811},{"NoteNumber":65,"Velocity":45,"Duration":117294,"SoundDuration":117294,"Delta":165162313},{"NoteNumber":63,"Velocity":46,"Duration":117896,"SoundDuration":117896,"Delta":165279607},{"NoteNumber":62,"Velocity":47,"Duration":116554,"SoundDuration":116554,"Delta":165395814},{"NoteNumber":58,"Velocity":38,"Duration":398390,"SoundDuration":398390,"Delta":165454936},{"NoteNumber":63,"Velocity":47,"Duration":113581,"SoundDuration":113581,"Delta":165512368},{"NoteNumber":64,"Velocity":48,"Duration":114210,"SoundDuration":114210,"Delta":165625949},{"NoteNumber":65,"Velocity":49,"Duration":114811,"SoundDuration":114811,"Delta":165738515},{"NoteNumber":66,"Velocity":49,"Duration":97402,"SoundDuration":97402,"Delta":165853326},{"NoteNumber":51,"Velocity":53,"Duration":384655,"SoundDuration":384655,"Delta":165853326},{"NoteNumber":67,"Velocity":51,"Duration":96466,"SoundDuration":96466,"Delta":165950729},{"NoteNumber":68,"Velocity":52,"Duration":95849,"SoundDuration":95849,"Delta":166047195},{"NoteNumber":69,"Velocity":53,"Duration":94936,"SoundDuration":94936,"Delta":166143045},{"NoteNumber":70,"Velocity":55,"Duration":96861,"SoundDuration":96861,"Delta":166237982},{"NoteNumber":58,"Velocity":45,"Duration":387446,"SoundDuration":387446,"Delta":166237982},{"NoteNumber":71,"Velocity":56,"Duration":96861,"SoundDuration":96861,"Delta":166334843},{"NoteNumber":72,"Velocity":57,"Duration":96861,"SoundDuration":96861,"Delta":166431705},{"NoteNumber":73,"Velocity":58,"Duration":96861,"SoundDuration":96861,"Delta":166528566},{"NoteNumber":74,"Velocity":60,"Duration":101722,"SoundDuration":101722,"Delta":166625428},{"NoteNumber":54,"Velocity":57,"Duration":406890,"SoundDuration":406890,"Delta":166625428},{"NoteNumber":75,"Velocity":61,"Duration":101722,"SoundDuration":101722,"Delta":166727151},{"NoteNumber":76,"Velocity":62,"Duration":101722,"SoundDuration":101722,"Delta":166828873},{"NoteNumber":77,"Velocity":64,"Duration":101722,"SoundDuration":101722,"Delta":166930596},{"NoteNumber":78,"Velocity":65,"Duration":107097,"SoundDuration":107097,"Delta":167032318},{"NoteNumber":58,"Velocity":52,"Duration":428388,"SoundDuration":428388,"Delta":167032318},{"NoteNumber":79,"Velocity":66,"Duration":107096,"SoundDuration":107096,"Delta":167139415},{"NoteNumber":80,"Velocity":67,"Duration":107097,"SoundDuration":107097,"Delta":167246512},{"NoteNumber":81,"Velocity":69,"Duration":107097,"SoundDuration":107097,"Delta":167353609},{"NoteNumber":81,"Velocity":73,"Duration":406890,"SoundDuration":406890,"Delta":167460706},{"NoteNumber":50,"Velocity":63,"Duration":406890,"SoundDuration":406890,"Delta":167460706},{"NoteNumber":82,"Velocity":63,"Duration":135629,"SoundDuration":135629,"Delta":167867596},{"NoteNumber":58,"Velocity":54,"Duration":406890,"SoundDuration":406890,"Delta":167867596},{"NoteNumber":81,"Velocity":61,"Duration":135629,"SoundDuration":135629,"Delta":168003226},{"NoteNumber":79,"Velocity":61,"Duration":135630,"SoundDuration":135630,"Delta":168138856},{"NoteNumber":81,"Velocity":60,"Duration":415956,"SoundDuration":415956,"Delta":168274486},{"NoteNumber":53,"Velocity":60,"Duration":415956,"SoundDuration":415956,"Delta":168274486},{"NoteNumber":82,"Velocity":64,"Duration":434090,"SoundDuration":434090,"Delta":168690443},{"NoteNumber":58,"Velocity":51,"Duration":434090,"SoundDuration":434090,"Delta":168690443},{"NoteNumber":77,"Velocity":59,"Duration":406890,"SoundDuration":406890,"Delta":169124533},{"NoteNumber":49,"Velocity":63,"Duration":406890,"SoundDuration":406890,"Delta":169124533},{"NoteNumber":58,"Velocity":55,"Duration":406890,"SoundDuration":406890,"Delta":169531423},{"NoteNumber":53,"Velocity":62,"Duration":406890,"SoundDuration":406890,"Delta":169938313},{"NoteNumber":58,"Velocity":57,"Duration":428231,"SoundDuration":428231,"Delta":170345203},{"NoteNumber":76,"Velocity":69,"Duration":224786,"SoundDuration":224786,"Delta":170548648},{"NoteNumber":85,"Velocity":93,"Duration":2034449,"SoundDuration":2034449,"Delta":170773435},{"NoteNumber":48,"Velocity":69,"Duration":406890,"SoundDuration":406890,"Delta":170773435},{"NoteNumber":58,"Velocity":53,"Duration":406890,"SoundDuration":406890,"Delta":171180325},{"NoteNumber":55,"Velocity":62,"Duration":406890,"SoundDuration":406890,"Delta":171587215},{"NoteNumber":58,"Velocity":48,"Duration":406890,"SoundDuration":406890,"Delta":171994105},{"NoteNumber":48,"Velocity":44,"Duration":406889,"SoundDuration":406889,"Delta":172400995},{"NoteNumber":84,"Velocity":60,"Duration":200722,"SoundDuration":200722,"Delta":172807885},{"NoteNumber":58,"Velocity":29,"Duration":401444,"SoundDuration":401444,"Delta":172807885},{"NoteNumber":82,"Velocity":58,"Duration":200722,"SoundDuration":200722,"Delta":173008607},{"NoteNumber":80,"Velocity":57,"Duration":200722,"SoundDuration":200722,"Delta":173209330},{"NoteNumber":55,"Velocity":32,"Duration":401444,"SoundDuration":401444,"Delta":173209330},{"NoteNumber":79,"Velocity":56,"Duration":200722,"SoundDuration":200722,"Delta":173410052},{"NoteNumber":77,"Velocity":54,"Duration":200722,"SoundDuration":200722,"Delta":173610775},{"NoteNumber":58,"Velocity":28,"Duration":428928,"SoundDuration":428928,"Delta":173610775},{"NoteNumber":76,"Velocity":50,"Duration":228206,"SoundDuration":228206,"Delta":173811497},{"NoteNumber":79,"Velocity":57,"Duration":813780,"SoundDuration":813780,"Delta":174039704},{"NoteNumber":49,"Velocity":41,"Duration":406890,"SoundDuration":406890,"Delta":174039704},{"NoteNumber":56,"Velocity":27,"Duration":406890,"SoundDuration":406890,"Delta":174446594},{"NoteNumber":77,"Velocity":62,"Duration":1199178,"SoundDuration":1199178,"Delta":174853484},{"NoteNumber":53,"Velocity":32,"Duration":406890,"SoundDuration":406890,"Delta":174853484},{"NoteNumber":56,"Velocity":28,"Duration":396143,"SoundDuration":396143,"Delta":175260374},{"NoteNumber":46,"Velocity":36,"Duration":396144,"SoundDuration":396144,"Delta":175656518},{"NoteNumber":76,"Velocity":53,"Duration":396143,"SoundDuration":396143,"Delta":176052662},{"NoteNumber":55,"Velocity":27,"Duration":396143,"SoundDuration":396143,"Delta":176052662},{"NoteNumber":75,"Velocity":55,"Duration":264095,"SoundDuration":264095,"Delta":176448806},{"NoteNumber":49,"Velocity":28,"Duration":396143,"SoundDuration":396143,"Delta":176448806},{"NoteNumber":74,"Velocity":52,"Duration":271459,"SoundDuration":271459,"Delta":176712902},{"NoteNumber":55,"Velocity":27,"Duration":418235,"SoundDuration":418235,"Delta":176844950},{"NoteNumber":73,"Velocity":52,"Duration":278823,"SoundDuration":278823,"Delta":176984361},{"NoteNumber":72,"Velocity":50,"Duration":412031,"SoundDuration":412031,"Delta":177263185},{"NoteNumber":48,"Velocity":36,"Duration":412031,"SoundDuration":412031,"Delta":177263185},{"NoteNumber":73,"Velocity":43,"Duration":130701,"SoundDuration":130701,"Delta":177675216},{"NoteNumber":56,"Velocity":31,"Duration":392105,"SoundDuration":392105,"Delta":177675216},{"NoteNumber":72,"Velocity":44,"Duration":130701,"SoundDuration":130701,"Delta":177805918},{"NoteNumber":70,"Velocity":44,"Duration":130701,"SoundDuration":130701,"Delta":177936620},{"NoteNumber":72,"Velocity":45,"Duration":406890,"SoundDuration":406890,"Delta":178067322},{"NoteNumber":53,"Velocity":31,"Duration":406890,"SoundDuration":406890,"Delta":178067322},{"NoteNumber":73,"Velocity":50,"Duration":406890,"SoundDuration":406890,"Delta":178474212},{"NoteNumber":56,"Velocity":31,"Duration":406890,"SoundDuration":406890,"Delta":178474212},{"NoteNumber":65,"Velocity":50,"Duration":850283,"SoundDuration":850283,"Delta":178881102},{"NoteNumber":48,"Velocity":36,"Duration":406890,"SoundDuration":406890,"Delta":178881102},{"NoteNumber":58,"Velocity":31,"Duration":443393,"SoundDuration":443393,"Delta":179287992},{"NoteNumber":68,"Velocity":50,"Duration":424568,"SoundDuration":424568,"Delta":179731385},{"NoteNumber":64,"Velocity":44,"Duration":919128,"SoundDuration":919128,"Delta":179731385},{"NoteNumber":55,"Velocity":31,"Duration":424568,"SoundDuration":424568,"Delta":179731385},{"NoteNumber":67,"Velocity":50,"Duration":494560,"SoundDuration":494560,"Delta":180155954},{"NoteNumber":58,"Velocity":31,"Duration":494560,"SoundDuration":494560,"Delta":180155954},{"NoteNumber":65,"Velocity":53,"Duration":408597,"SoundDuration":408597,"Delta":180650514},{"NoteNumber":57,"Velocity":38,"Duration":412031,"SoundDuration":412031,"Delta":180650514},{"NoteNumber":53,"Velocity":32,"Duration":813476,"SoundDuration":813476,"Delta":180650514},{"NoteNumber":65,"Velocity":30,"Duration":200722,"SoundDuration":200722,"Delta":181062545},{"NoteNumber":65,"Velocity":30,"Duration":200722,"SoundDuration":200722,"Delta":181463990},{"NoteNumber":65,"Velocity":30,"Duration":214193,"SoundDuration":214193,"Delta":181865435},{"NoteNumber":62,"Velocity":38,"Duration":412031,"SoundDuration":412031,"Delta":182293823},{"NoteNumber":58,"Velocity":32,"Duration":808175,"SoundDuration":808175,"Delta":182293823},{"NoteNumber":65,"Velocity":28,"Duration":396143,"SoundDuration":396143,"Delta":182705855},{"NoteNumber":63,"Velocity":28,"Duration":396144,"SoundDuration":396144,"Delta":183101999},{"NoteNumber":60,"Velocity":23,"Duration":836155,"SoundDuration":836155,"Delta":183101999},{"NoteNumber":65,"Velocity":28,"Duration":440011,"SoundDuration":440011,"Delta":183498143},{"NoteNumber":75,"Velocity":45,"Duration":813476,"SoundDuration":813476,"Delta":183938154},{"NoteNumber":57,"Velocity":29,"Duration":813476,"SoundDuration":813476,"Delta":183938154},{"NoteNumber":60,"Velocity":35,"Duration":412031,"SoundDuration":412031,"Delta":183938154},{"NoteNumber":65,"Velocity":30,"Duration":200722,"SoundDuration":200722,"Delta":184350186},{"NoteNumber":65,"Velocity":28,"Duration":200722,"SoundDuration":200722,"Delta":184751631},{"NoteNumber":65,"Velocity":28,"Duration":214193,"SoundDuration":214193,"Delta":185153076},{"NoteNumber":72,"Velocity":45,"Duration":412031,"SoundDuration":412031,"Delta":185581464},{"NoteNumber":57,"Velocity":34,"Duration":412031,"SoundDuration":412031,"Delta":185581464},{"NoteNumber":53,"Velocity":28,"Duration":808175,"SoundDuration":808175,"Delta":185581464},{"NoteNumber":65,"Velocity":31,"Duration":396143,"SoundDuration":396143,"Delta":185993495},{"NoteNumber":69,"Velocity":42,"Duration":396144,"SoundDuration":396144,"Delta":186389639},{"NoteNumber":60,"Velocity":27,"Duration":853043,"SoundDuration":853043,"Delta":186389639},{"NoteNumber":63,"Velocity":27,"Duration":396144,"SoundDuration":396144,"Delta":186389639},{"NoteNumber":65,"Velocity":27,"Duration":456898,"SoundDuration":456898,"Delta":186785783},{"NoteNumber":77,"Velocity":53,"Duration":612754,"SoundDuration":612754,"Delta":187242682},{"NoteNumber":58,"Velocity":32,"Duration":813476,"SoundDuration":813476,"Delta":187242682},{"NoteNumber":62,"Velocity":38,"Duration":412031,"SoundDuration":412031,"Delta":187242682},{"NoteNumber":65,"Velocity":30,"Duration":200722,"SoundDuration":200722,"Delta":187654714},{"NoteNumber":74,"Velocity":49,"Duration":200722,"SoundDuration":200722,"Delta":187855436},{"NoteNumber":77,"Velocity":53,"Duration":401444,"SoundDuration":401444,"Delta":188056159},{"NoteNumber":65,"Velocity":29,"Duration":200722,"SoundDuration":200722,"Delta":188056159},{"NoteNumber":65,"Velocity":30,"Duration":214193,"SoundDuration":214193,"Delta":188457604},{"NoteNumber":62,"Velocity":38,"Duration":412031,"SoundDuration":412031,"Delta":188885992},{"NoteNumber":58,"Velocity":32,"Duration":808175,"SoundDuration":808175,"Delta":188885992},{"NoteNumber":65,"Velocity":28,"Duration":396143,"SoundDuration":396143,"Delta":189298023},{"NoteNumber":63,"Velocity":28,"Duration":396144,"SoundDuration":396144,"Delta":189694167},{"NoteNumber":60,"Velocity":23,"Duration":836155,"SoundDuration":836155,"Delta":189694167},{"NoteNumber":65,"Velocity":28,"Duration":440011,"SoundDuration":440011,"Delta":190090311},{"NoteNumber":77,"Velocity":49,"Duration":412031,"SoundDuration":412031,"Delta":190530323},{"NoteNumber":60,"Velocity":35,"Duration":412031,"SoundDuration":412031,"Delta":190530323},{"NoteNumber":57,"Velocity":29,"Duration":813476,"SoundDuration":813476,"Delta":190530323},{"NoteNumber":75,"Velocity":45,"Duration":401444,"SoundDuration":401444,"Delta":190942354},{"NoteNumber":65,"Velocity":30,"Duration":200722,"SoundDuration":200722,"Delta":190942354},{"NoteNumber":65,"Velocity":27,"Duration":200722,"SoundDuration":200722,"Delta":191343799},{"NoteNumber":65,"Velocity":27,"Duration":214193,"SoundDuration":214193,"Delta":191745244},{"NoteNumber":74,"Velocity":45,"Duration":412031,"SoundDuration":412031,"Delta":192173632},{"NoteNumber":53,"Velocity":28,"Duration":808175,"SoundDuration":808175,"Delta":192173632},{"NoteNumber":57,"Velocity":34,"Duration":412031,"SoundDuration":412031,"Delta":192173632},{"NoteNumber":72,"Velocity":41,"Duration":198071,"SoundDuration":198071,"Delta":192585664},{"NoteNumber":65,"Velocity":31,"Duration":396143,"SoundDuration":396143,"Delta":192585664},{"NoteNumber":70,"Velocity":42,"Duration":396144,"SoundDuration":396144,"Delta":192981808},{"NoteNumber":60,"Velocity":29,"Duration":836155,"SoundDuration":836155,"Delta":192981808},{"NoteNumber":63,"Velocity":29,"Duration":396144,"SoundDuration":396144,"Delta":192981808},{"NoteNumber":69,"Velocity":39,"Duration":220005,"SoundDuration":220005,"Delta":193377952},{"NoteNumber":65,"Velocity":29,"Duration":440011,"SoundDuration":440011,"Delta":193377952},{"NoteNumber":77,"Velocity":53,"Duration":612754,"SoundDuration":612754,"Delta":193817963},{"NoteNumber":62,"Velocity":38,"Duration":813476,"SoundDuration":813476,"Delta":193817963},{"NoteNumber":58,"Velocity":32,"Duration":813476,"SoundDuration":813476,"Delta":193817963},{"NoteNumber":74,"Velocity":50,"Duration":200722,"SoundDuration":200722,"Delta":194430717},{"NoteNumber":77,"Velocity":53,"Duration":401444,"SoundDuration":401444,"Delta":194631440},{"NoteNumber":86,"Velocity":70,"Duration":412031,"SoundDuration":412031,"Delta":195461273},{"NoteNumber":82,"Velocity":59,"Duration":412031,"SoundDuration":412031,"Delta":195461273},{"NoteNumber":70,"Velocity":47,"Duration":412031,"SoundDuration":412031,"Delta":195461273},{"NoteNumber":74,"Velocity":56,"Duration":412031,"SoundDuration":412031,"Delta":195461273},{"NoteNumber":81,"Velocity":54,"Duration":396143,"SoundDuration":396143,"Delta":195873304},{"NoteNumber":84,"Velocity":64,"Duration":396143,"SoundDuration":396143,"Delta":195873304},{"NoteNumber":69,"Velocity":43,"Duration":396143,"SoundDuration":396143,"Delta":195873304},{"NoteNumber":72,"Velocity":51,"Duration":396143,"SoundDuration":396143,"Delta":195873304},{"NoteNumber":82,"Velocity":57,"Duration":356529,"SoundDuration":356529,"Delta":196269448},{"NoteNumber":79,"Velocity":48,"Duration":356529,"SoundDuration":356529,"Delta":196269448},{"NoteNumber":70,"Velocity":45,"Duration":356529,"SoundDuration":356529,"Delta":196269448},{"NoteNumber":67,"Velocity":38,"Duration":356529,"SoundDuration":356529,"Delta":196269448},{"NoteNumber":78,"Velocity":48,"Duration":371236,"SoundDuration":371236,"Delta":196665592},{"NoteNumber":81,"Velocity":57,"Duration":371236,"SoundDuration":371236,"Delta":196665592},{"NoteNumber":66,"Velocity":38,"Duration":371236,"SoundDuration":371236,"Delta":196665592},{"NoteNumber":69,"Velocity":45,"Duration":371236,"SoundDuration":371236,"Delta":196665592},{"NoteNumber":82,"Velocity":70,"Duration":418235,"SoundDuration":418235,"Delta":197078077},{"NoteNumber":79,"Velocity":59,"Duration":418235,"SoundDuration":418235,"Delta":197078077},{"NoteNumber":67,"Velocity":47,"Duration":418235,"SoundDuration":418235,"Delta":197078077},{"NoteNumber":70,"Velocity":56,"Duration":418235,"SoundDuration":418235,"Delta":197078077},{"NoteNumber":81,"Velocity":64,"Duration":401444,"SoundDuration":401444,"Delta":197496312},{"NoteNumber":77,"Velocity":54,"Duration":401444,"SoundDuration":401444,"Delta":197496312},{"NoteNumber":65,"Velocity":43,"Duration":401444,"SoundDuration":401444,"Delta":197496312},{"NoteNumber":69,"Velocity":51,"Duration":401444,"SoundDuration":401444,"Delta":197496312},{"NoteNumber":79,"Velocity":59,"Duration":361300,"SoundDuration":361300,"Delta":197897757},{"NoteNumber":75,"Velocity":50,"Duration":361300,"SoundDuration":361300,"Delta":197897757},{"NoteNumber":63,"Velocity":40,"Duration":361300,"SoundDuration":361300,"Delta":197897757},{"NoteNumber":67,"Velocity":47,"Duration":361300,"SoundDuration":361300,"Delta":197897757},{"NoteNumber":74,"Velocity":50,"Duration":376411,"SoundDuration":376411,"Delta":198299202},{"NoteNumber":78,"Velocity":59,"Duration":376411,"SoundDuration":376411,"Delta":198299202},{"NoteNumber":66,"Velocity":47,"Duration":376411,"SoundDuration":376411,"Delta":198299202},{"NoteNumber":62,"Velocity":40,"Duration":376411,"SoundDuration":376411,"Delta":198299202},{"NoteNumber":75,"Velocity":59,"Duration":418235,"SoundDuration":418235,"Delta":198717437},{"NoteNumber":79,"Velocity":70,"Duration":418235,"SoundDuration":418235,"Delta":198717437},{"NoteNumber":63,"Velocity":47,"Duration":418235,"SoundDuration":418235,"Delta":198717437},{"NoteNumber":67,"Velocity":56,"Duration":418235,"SoundDuration":418235,"Delta":198717437},{"NoteNumber":74,"Velocity":53,"Duration":406890,"SoundDuration":406890,"Delta":199135672},{"NoteNumber":77,"Velocity":63,"Duration":406890,"SoundDuration":406890,"Delta":199135672},{"NoteNumber":62,"Velocity":42,"Duration":406890,"SoundDuration":406890,"Delta":199135672},{"NoteNumber":65,"Velocity":50,"Duration":406890,"SoundDuration":406890,"Delta":199135672},{"NoteNumber":75,"Velocity":59,"Duration":366200,"SoundDuration":366200,"Delta":199542562},{"NoteNumber":72,"Velocity":50,"Duration":366200,"SoundDuration":366200,"Delta":199542562},{"NoteNumber":60,"Velocity":40,"Duration":366200,"SoundDuration":366200,"Delta":199542562},{"NoteNumber":63,"Velocity":47,"Duration":366200,"SoundDuration":366200,"Delta":199542562},{"NoteNumber":71,"Velocity":49,"Duration":402984,"SoundDuration":402984,"Delta":199949452},{"NoteNumber":74,"Velocity":58,"Duration":402984,"SoundDuration":402984,"Delta":199949452},{"NoteNumber":62,"Velocity":46,"Duration":402984,"SoundDuration":402984,"Delta":199949452},{"NoteNumber":59,"Velocity":39,"Duration":402984,"SoundDuration":402984,"Delta":199949452},{"NoteNumber":67,"Velocity":49,"Duration":2027027,"SoundDuration":2027027,"Delta":200397213},{"NoteNumber":74,"Velocity":67,"Duration":1621622,"SoundDuration":1621622,"Delta":200397213},{"NoteNumber":71,"Velocity":49,"Duration":1621622,"SoundDuration":1621622,"Delta":200397213},{"NoteNumber":62,"Velocity":33,"Duration":1621622,"SoundDuration":1621622,"Delta":200397213},{"NoteNumber":65,"Velocity":39,"Duration":1621622,"SoundDuration":1621622,"Delta":200397213},{"NoteNumber":55,"Velocity":30,"Duration":1621622,"SoundDuration":1621622,"Delta":200397213},{"NoteNumber":59,"Velocity":33,"Duration":1621622,"SoundDuration":1621622,"Delta":200397213},{"NoteNumber":72,"Velocity":41,"Duration":405405,"SoundDuration":405405,"Delta":202018835},{"NoteNumber":75,"Velocity":49,"Duration":608108,"SoundDuration":608108,"Delta":202018835},{"NoteNumber":60,"Velocity":35,"Duration":1621622,"SoundDuration":1621622,"Delta":202018835},{"NoteNumber":63,"Velocity":42,"Duration":810811,"SoundDuration":810811,"Delta":202018835},{"NoteNumber":79,"Velocity":45,"Duration":67567,"SoundDuration":67567,"Delta":202626943},{"NoteNumber":77,"Velocity":45,"Duration":67567,"SoundDuration":67567,"Delta":202694510},{"NoteNumber":75,"Velocity":45,"Duration":67567,"SoundDuration":67567,"Delta":202762078},{"NoteNumber":77,"Velocity":50,"Duration":405405,"SoundDuration":405405,"Delta":202829646},{"NoteNumber":69,"Velocity":44,"Duration":810811,"SoundDuration":810811,"Delta":202829646},{"NoteNumber":79,"Velocity":48,"Duration":405405,"SoundDuration":405405,"Delta":203235051},{"NoteNumber":79,"Velocity":49,"Duration":202702,"SoundDuration":202702,"Delta":203640457},{"NoteNumber":70,"Velocity":44,"Duration":810811,"SoundDuration":810811,"Delta":203640457},{"NoteNumber":62,"Velocity":33,"Duration":810811,"SoundDuration":810811,"Delta":203640457},{"NoteNumber":77,"Velocity":45,"Duration":202702,"SoundDuration":202702,"Delta":203843159},{"NoteNumber":75,"Velocity":45,"Duration":202702,"SoundDuration":202702,"Delta":204045862},{"NoteNumber":74,"Velocity":45,"Duration":202702,"SoundDuration":202702,"Delta":204248565},{"NoteNumber":71,"Velocity":49,"Duration":202702,"SoundDuration":202702,"Delta":204451268},{"NoteNumber":63,"Velocity":35,"Duration":831988,"SoundDuration":831988,"Delta":204451268},{"NoteNumber":67,"Velocity":43,"Duration":831988,"SoundDuration":831988,"Delta":204451268},{"NoteNumber":72,"Velocity":42,"Duration":202702,"SoundDuration":202702,"Delta":204653970},{"NoteNumber":75,"Velocity":42,"Duration":202702,"SoundDuration":202702,"Delta":204856673},{"NoteNumber":79,"Velocity":42,"Duration":223880,"SoundDuration":223880,"Delta":205059376},{"NoteNumber":70,"Velocity":50,"Duration":857143,"SoundDuration":857143,"Delta":205283256},{"NoteNumber":62,"Velocity":44,"Duration":857143,"SoundDuration":857143,"Delta":205283256},{"NoteNumber":53,"Velocity":37,"Duration":1667954,"SoundDuration":1667954,"Delta":205283256},{"NoteNumber":72,"Velocity":45,"Duration":810811,"SoundDuration":810811,"Delta":206140399},{"NoteNumber":69,"Velocity":38,"Duration":810811,"SoundDuration":810811,"Delta":206140399},{"NoteNumber":63,"Velocity":36,"Duration":810811,"SoundDuration":810811,"Delta":206140399},{"NoteNumber":69,"Velocity":38,"Duration":813476,"SoundDuration":813476,"Delta":206951210},{"NoteNumber":72,"Velocity":48,"Duration":612754,"SoundDuration":612754,"Delta":206951210},{"NoteNumber":62,"Velocity":38,"Duration":412031,"SoundDuration":412031,"Delta":206951210},{"NoteNumber":58,"Velocity":30,"Duration":813476,"SoundDuration":813476,"Delta":206951210},{"NoteNumber":65,"Velocity":30,"Duration":200722,"SoundDuration":200722,"Delta":207363242},{"NoteNumber":73,"Velocity":35,"Duration":200722,"SoundDuration":200722,"Delta":207563964},{"NoteNumber":74,"Velocity":44,"Duration":829833,"SoundDuration":829833,"Delta":207764687},{"NoteNumber":70,"Velocity":38,"Duration":829833,"SoundDuration":829833,"Delta":207764687},{"NoteNumber":65,"Velocity":30,"Duration":200722,"SoundDuration":200722,"Delta":207764687},{"NoteNumber":65,"Velocity":30,"Duration":214193,"SoundDuration":214193,"Delta":208166132},{"NoteNumber":58,"Velocity":28,"Duration":808175,"SoundDuration":808175,"Delta":208594520},{"NoteNumber":62,"Velocity":33,"Duration":412031,"SoundDuration":412031,"Delta":208594520},{"NoteNumber":65,"Velocity":27,"Duration":396143,"SoundDuration":396143,"Delta":209006551},{"NoteNumber":63,"Velocity":27,"Duration":396144,"SoundDuration":396144,"Delta":209402695},{"NoteNumber":60,"Velocity":22,"Duration":836155,"SoundDuration":836155,"Delta":209402695},{"NoteNumber":65,"Velocity":27,"Duration":440011,"SoundDuration":440011,"Delta":209798839},{"NoteNumber":77,"Velocity":45,"Duration":412031,"SoundDuration":412031,"Delta":210238851},{"NoteNumber":60,"Velocity":33,"Duration":412031,"SoundDuration":412031,"Delta":210238851},{"NoteNumber":57,"Velocity":33,"Duration":813476,"SoundDuration":813476,"Delta":210238851},{"NoteNumber":75,"Velocity":45,"Duration":401444,"SoundDuration":401444,"Delta":210650882},{"NoteNumber":65,"Velocity":26,"Duration":200722,"SoundDuration":200722,"Delta":210650882},{"NoteNumber":65,"Velocity":30,"Duration":200722,"SoundDuration":200722,"Delta":211052327},{"NoteNumber":65,"Velocity":26,"Duration":214193,"SoundDuration":214193,"Delta":211453772},{"NoteNumber":74,"Velocity":45,"Duration":412031,"SoundDuration":412031,"Delta":211882160},{"NoteNumber":53,"Velocity":28,"Duration":808175,"SoundDuration":808175,"Delta":211882160},{"NoteNumber":57,"Velocity":34,"Duration":412031,"SoundDuration":412031,"Delta":211882160},{"NoteNumber":72,"Velocity":43,"Duration":396143,"SoundDuration":396143,"Delta":212294192},{"NoteNumber":65,"Velocity":31,"Duration":396143,"SoundDuration":396143,"Delta":212294192},{"NoteNumber":70,"Velocity":42,"Duration":396144,"SoundDuration":396144,"Delta":212690336},{"NoteNumber":63,"Velocity":31,"Duration":396144,"SoundDuration":396144,"Delta":212690336},{"NoteNumber":60,"Velocity":26,"Duration":836155,"SoundDuration":836155,"Delta":212690336},{"NoteNumber":69,"Velocity":40,"Duration":440011,"SoundDuration":440011,"Delta":213086480},{"NoteNumber":65,"Velocity":31,"Duration":440011,"SoundDuration":440011,"Delta":213086480},{"NoteNumber":77,"Velocity":53,"Duration":612754,"SoundDuration":612754,"Delta":213526491},{"NoteNumber":62,"Velocity":38,"Duration":412031,"SoundDuration":412031,"Delta":213526491},{"NoteNumber":58,"Velocity":32,"Duration":813476,"SoundDuration":813476,"Delta":213526491},{"NoteNumber":65,"Velocity":30,"Duration":200722,"SoundDuration":200722,"Delta":213938523},{"NoteNumber":74,"Velocity":49,"Duration":200722,"SoundDuration":200722,"Delta":214139245},{"NoteNumber":77,"Velocity":53,"Duration":401444,"SoundDuration":401444,"Delta":214339968},{"NoteNumber":65,"Velocity":30,"Duration":200722,"SoundDuration":200722,"Delta":214339968},{"NoteNumber":65,"Velocity":30,"Duration":214193,"SoundDuration":214193,"Delta":214741413},{"NoteNumber":62,"Velocity":38,"Duration":412031,"SoundDuration":412031,"Delta":215169801},{"NoteNumber":58,"Velocity":32,"Duration":808175,"SoundDuration":808175,"Delta":215169801},{"NoteNumber":65,"Velocity":28,"Duration":396143,"SoundDuration":396143,"Delta":215581832},{"NoteNumber":63,"Velocity":28,"Duration":396144,"SoundDuration":396144,"Delta":215977976},{"NoteNumber":60,"Velocity":23,"Duration":836155,"SoundDuration":836155,"Delta":215977976},{"NoteNumber":65,"Velocity":28,"Duration":440011,"SoundDuration":440011,"Delta":216374120},{"NoteNumber":77,"Velocity":50,"Duration":103007,"SoundDuration":103007,"Delta":216814132},{"NoteNumber":60,"Velocity":35,"Duration":412031,"SoundDuration":412031,"Delta":216814132},{"NoteNumber":57,"Velocity":29,"Duration":813476,"SoundDuration":813476,"Delta":216814132},{"NoteNumber":76,"Velocity":48,"Duration":103007,"SoundDuration":103007,"Delta":217020148},{"NoteNumber":75,"Velocity":45,"Duration":401444,"SoundDuration":401444,"Delta":217226163},{"NoteNumber":65,"Velocity":28,"Duration":200722,"SoundDuration":200722,"Delta":217226163},{"NoteNumber":65,"Velocity":30,"Duration":200722,"SoundDuration":200722,"Delta":217627608},{"NoteNumber":65,"Velocity":26,"Duration":192307,"SoundDuration":192307,"Delta":218029053},{"NoteNumber":74,"Velocity":49,"Duration":97402,"SoundDuration":97402,"Delta":218413669},{"NoteNumber":57,"Velocity":34,"Duration":389610,"SoundDuration":389610,"Delta":218413669},{"NoteNumber":53,"Velocity":28,"Duration":785754,"SoundDuration":785754,"Delta":218413669},{"NoteNumber":74,"Velocity":43,"Duration":194805,"SoundDuration":194805,"Delta":218608474},{"NoteNumber":75,"Velocity":45,"Duration":198071,"SoundDuration":198071,"Delta":218803279},{"NoteNumber":65,"Velocity":25,"Duration":396143,"SoundDuration":396143,"Delta":218803279},{"NoteNumber":72,"Velocity":40,"Duration":198071,"SoundDuration":198071,"Delta":219001351},{"NoteNumber":70,"Velocity":47,"Duration":99036,"SoundDuration":99036,"Delta":219199423},{"NoteNumber":63,"Velocity":31,"Duration":396144,"SoundDuration":396144,"Delta":219199423},{"NoteNumber":60,"Velocity":26,"Duration":841172,"SoundDuration":841172,"Delta":219199423},{"NoteNumber":70,"Velocity":41,"Duration":198072,"SoundDuration":198072,"Delta":219397495},{"NoteNumber":72,"Velocity":46,"Duration":220005,"SoundDuration":220005,"Delta":219595567},{"NoteNumber":65,"Velocity":26,"Duration":445028,"SoundDuration":445028,"Delta":219595567},{"NoteNumber":69,"Velocity":40,"Duration":225022,"SoundDuration":225022,"Delta":219815573},{"NoteNumber":77,"Velocity":53,"Duration":206015,"SoundDuration":206015,"Delta":220040596},{"NoteNumber":62,"Velocity":38,"Duration":813476,"SoundDuration":813476,"Delta":220040596},{"NoteNumber":58,"Velocity":32,"Duration":813476,"SoundDuration":813476,"Delta":220040596},{"NoteNumber":79,"Velocity":47,"Duration":68671,"SoundDuration":68671,"Delta":220246611},{"NoteNumber":77,"Velocity":47,"Duration":68671,"SoundDuration":68671,"Delta":220315283},{"NoteNumber":76,"Velocity":46,"Duration":68671,"SoundDuration":68671,"Delta":220383955},{"NoteNumber":77,"Velocity":53,"Duration":200722,"SoundDuration":200722,"Delta":220452627},{"NoteNumber":82,"Velocity":50,"Duration":200722,"SoundDuration":200722,"Delta":220653350},{"NoteNumber":77,"Velocity":53,"Duration":401444,"SoundDuration":401444,"Delta":220854072},{"NoteNumber":74,"Velocity":56,"Duration":412031,"SoundDuration":412031,"Delta":221683905},{"NoteNumber":70,"Velocity":47,"Duration":412031,"SoundDuration":412031,"Delta":221683905},{"NoteNumber":82,"Velocity":50,"Duration":404087,"SoundDuration":404087,"Delta":221889921},{"NoteNumber":86,"Velocity":59,"Duration":404087,"SoundDuration":404087,"Delta":221889921},{"NoteNumber":72,"Velocity":51,"Duration":396143,"SoundDuration":396143,"Delta":222095937},{"NoteNumber":69,"Velocity":43,"Duration":396143,"SoundDuration":396143,"Delta":222095937},{"NoteNumber":84,"Velocity":54,"Duration":396143,"SoundDuration":396143,"Delta":222294009},{"NoteNumber":81,"Velocity":45,"Duration":396143,"SoundDuration":396143,"Delta":222294009},{"NoteNumber":67,"Velocity":38,"Duration":396144,"SoundDuration":396144,"Delta":222492081},{"NoteNumber":70,"Velocity":45,"Duration":396144,"SoundDuration":396144,"Delta":222492081},{"NoteNumber":79,"Velocity":40,"Duration":404314,"SoundDuration":404314,"Delta":222690153},{"NoteNumber":82,"Velocity":48,"Duration":404314,"SoundDuration":404314,"Delta":222690153},{"NoteNumber":69,"Velocity":45,"Duration":412484,"SoundDuration":412484,"Delta":222888225},{"NoteNumber":66,"Velocity":38,"Duration":412484,"SoundDuration":412484,"Delta":222888225},{"NoteNumber":81,"Velocity":48,"Duration":415359,"SoundDuration":415359,"Delta":223094467},{"NoteNumber":78,"Velocity":40,"Duration":415359,"SoundDuration":415359,"Delta":223094467},{"NoteNumber":67,"Velocity":47,"Duration":418235,"SoundDuration":418235,"Delta":223300709},{"NoteNumber":70,"Velocity":56,"Duration":418235,"SoundDuration":418235,"Delta":223300709},{"NoteNumber":82,"Velocity":59,"Duration":409840,"SoundDuration":409840,"Delta":223509827},{"NoteNumber":79,"Velocity":50,"Duration":409840,"SoundDuration":409840,"Delta":223509827},{"NoteNumber":65,"Velocity":43,"Duration":401444,"SoundDuration":401444,"Delta":223718944},{"NoteNumber":69,"Velocity":51,"Duration":401444,"SoundDuration":401444,"Delta":223718944},{"NoteNumber":77,"Velocity":45,"Duration":401444,"SoundDuration":401444,"Delta":223919667},{"NoteNumber":81,"Velocity":54,"Duration":401444,"SoundDuration":401444,"Delta":223919667},{"NoteNumber":63,"Velocity":40,"Duration":401444,"SoundDuration":401444,"Delta":224120389},{"NoteNumber":67,"Velocity":47,"Duration":401444,"SoundDuration":401444,"Delta":224120389},{"NoteNumber":79,"Velocity":50,"Duration":409839,"SoundDuration":409839,"Delta":224321112},{"NoteNumber":75,"Velocity":42,"Duration":409839,"SoundDuration":409839,"Delta":224321112},{"NoteNumber":66,"Velocity":47,"Duration":418235,"SoundDuration":418235,"Delta":224521834},{"NoteNumber":62,"Velocity":40,"Duration":418235,"SoundDuration":418235,"Delta":224521834},{"NoteNumber":78,"Velocity":50,"Duration":418235,"SoundDuration":418235,"Delta":224730952},{"NoteNumber":74,"Velocity":42,"Duration":418235,"SoundDuration":418235,"Delta":224730952},{"NoteNumber":63,"Velocity":47,"Duration":418235,"SoundDuration":418235,"Delta":224940069},{"NoteNumber":67,"Velocity":56,"Duration":418235,"SoundDuration":418235,"Delta":224940069},{"NoteNumber":75,"Velocity":50,"Duration":412562,"SoundDuration":412562,"Delta":225149187},{"NoteNumber":79,"Velocity":59,"Duration":412562,"SoundDuration":412562,"Delta":225149187},{"NoteNumber":65,"Velocity":50,"Duration":406890,"SoundDuration":406890,"Delta":225358304},{"NoteNumber":62,"Velocity":42,"Duration":406890,"SoundDuration":406890,"Delta":225358304},{"NoteNumber":74,"Velocity":45,"Duration":406890,"SoundDuration":406890,"Delta":225561749},{"NoteNumber":77,"Velocity":53,"Duration":406890,"SoundDuration":406890,"Delta":225561749},{"NoteNumber":60,"Velocity":40,"Duration":406890,"SoundDuration":406890,"Delta":225765194},{"NoteNumber":63,"Velocity":47,"Duration":406890,"SoundDuration":406890,"Delta":225765194},{"NoteNumber":75,"Velocity":50,"Duration":421912,"SoundDuration":421912,"Delta":225968639},{"NoteNumber":72,"Velocity":42,"Duration":421912,"SoundDuration":421912,"Delta":225968639},{"NoteNumber":62,"Velocity":46,"Duration":445141,"SoundDuration":445141,"Delta":226172084},{"NoteNumber":59,"Velocity":39,"Duration":445141,"SoundDuration":445141,"Delta":226172084},{"NoteNumber":71,"Velocity":41,"Duration":226673,"SoundDuration":226673,"Delta":226390552},{"NoteNumber":74,"Velocity":49,"Duration":226673,"SoundDuration":226673,"Delta":226390552},{"NoteNumber":74,"Velocity":58,"Duration":1627559,"SoundDuration":1627559,"Delta":226637832},{"NoteNumber":71,"Velocity":49,"Duration":1627559,"SoundDuration":1627559,"Delta":226637832},{"NoteNumber":67,"Velocity":49,"Duration":2034449,"SoundDuration":2034449,"Delta":226637832},{"NoteNumber":65,"Velocity":46,"Duration":1627559,"SoundDuration":1627559,"Delta":226637832},{"NoteNumber":59,"Velocity":35,"Duration":1627559,"SoundDuration":1627559,"Delta":226637832},{"NoteNumber":62,"Velocity":36,"Duration":1627559,"SoundDuration":1627559,"Delta":226637832},{"NoteNumber":55,"Velocity":33,"Duration":1627559,"SoundDuration":1627559,"Delta":226637832},{"NoteNumber":75,"Velocity":49,"Duration":610335,"SoundDuration":610335,"Delta":228265392},{"NoteNumber":72,"Velocity":41,"Duration":406890,"SoundDuration":406890,"Delta":228265392},{"NoteNumber":60,"Velocity":35,"Duration":1645811,"SoundDuration":1645811,"Delta":228265392},{"NoteNumber":63,"Velocity":42,"Duration":813780,"SoundDuration":813780,"Delta":228265392},{"NoteNumber":79,"Velocity":45,"Duration":67814,"SoundDuration":67814,"Delta":228875727},{"NoteNumber":77,"Velocity":41,"Duration":67814,"SoundDuration":67814,"Delta":228943542},{"NoteNumber":75,"Velocity":41,"Duration":67814,"SoundDuration":67814,"Delta":229011357},{"NoteNumber":77,"Velocity":50,"Duration":406890,"SoundDuration":406890,"Delta":229079172},{"NoteNumber":69,"Velocity":44,"Duration":832031,"SoundDuration":832031,"Delta":229079172},{"NoteNumber":79,"Velocity":48,"Duration":425141,"SoundDuration":425141,"Delta":229486062},{"NoteNumber":77,"Velocity":49,"Duration":267880,"SoundDuration":267880,"Delta":229911204},{"NoteNumber":70,"Velocity":48,"Duration":803642,"SoundDuration":803642,"Delta":229911204},{"NoteNumber":62,"Velocity":40,"Duration":803642,"SoundDuration":803642,"Delta":229911204},{"NoteNumber":82,"Velocity":45,"Duration":267881,"SoundDuration":267881,"Delta":230179085},{"NoteNumber":74,"Velocity":45,"Duration":267880,"SoundDuration":267880,"Delta":230446966},{"NoteNumber":72,"Velocity":48,"Duration":271260,"SoundDuration":271260,"Delta":230714847},{"NoteNumber":63,"Velocity":38,"Duration":838541,"SoundDuration":838541,"Delta":230714847},{"NoteNumber":67,"Velocity":45,"Duration":838541,"SoundDuration":838541,"Delta":230714847},{"NoteNumber":75,"Velocity":45,"Duration":271259,"SoundDuration":271259,"Delta":230986107},{"NoteNumber":79,"Velocity":45,"Duration":296021,"SoundDuration":296021,"Delta":231257367},{"NoteNumber":70,"Velocity":50,"Duration":813780,"SoundDuration":813780,"Delta":231553388},{"NoteNumber":53,"Velocity":37,"Duration":1651067,"SoundDuration":1651067,"Delta":231553388},{"NoteNumber":62,"Velocity":44,"Duration":813780,"SoundDuration":813780,"Delta":231553388},{"NoteNumber":69,"Velocity":45,"Duration":784956,"SoundDuration":784956,"Delta":232367168},{"NoteNumber":60,"Velocity":40,"Duration":837287,"SoundDuration":837287,"Delta":232367168},{"NoteNumber":62,"Velocity":56,"Duration":52330,"SoundDuration":52330,"Delta":233152124},{"NoteNumber":74,"Velocity":73,"Duration":1120010,"SoundDuration":1120010,"Delta":233204455},{"NoteNumber":46,"Velocity":50,"Duration":407276,"SoundDuration":407276,"Delta":233611731},{"NoteNumber":50,"Velocity":54,"Duration":407276,"SoundDuration":407276,"Delta":234019008},{"NoteNumber":70,"Velocity":49,"Duration":101819,"SoundDuration":101819,"Delta":234324465},{"NoteNumber":70,"Velocity":53,"Duration":79228,"SoundDuration":79228,"Delta":234426284},{"NoteNumber":55,"Velocity":50,"Duration":396143,"SoundDuration":396143,"Delta":234426284},{"NoteNumber":72,"Velocity":50,"Duration":79228,"SoundDuration":79228,"Delta":234505513},{"NoteNumber":70,"Velocity":54,"Duration":79228,"SoundDuration":79228,"Delta":234584742},{"NoteNumber":69,"Velocity":51,"Duration":79228,"SoundDuration":79228,"Delta":234663971},{"NoteNumber":70,"Velocity":54,"Duration":79228,"SoundDuration":79228,"Delta":234743200},{"NoteNumber":63,"Velocity":60,"Duration":104558,"SoundDuration":104558,"Delta":234822428},{"NoteNumber":75,"Velocity":74,"Duration":1097866,"SoundDuration":1097866,"Delta":234874708},{"NoteNumber":48,"Velocity":50,"Duration":418234,"SoundDuration":418234,"Delta":235240663},{"NoteNumber":51,"Velocity":54,"Duration":418235,"SoundDuration":418235,"Delta":235658898},{"NoteNumber":72,"Velocity":53,"Duration":104558,"SoundDuration":104558,"Delta":235972575},{"NoteNumber":72,"Velocity":56,"Duration":78196,"SoundDuration":78196,"Delta":236077133},{"NoteNumber":57,"Velocity":50,"Duration":390981,"SoundDuration":390981,"Delta":236077133},{"NoteNumber":74,"Velocity":54,"Duration":78196,"SoundDuration":78196,"Delta":236155330},{"NoteNumber":72,"Velocity":56,"Duration":78196,"SoundDuration":78196,"Delta":236233526},{"NoteNumber":71,"Velocity":53,"Duration":78196,"SoundDuration":78196,"Delta":236311722},{"NoteNumber":72,"Velocity":56,"Duration":78196,"SoundDuration":78196,"Delta":236389919},{"NoteNumber":77,"Velocity":74,"Duration":605474,"SoundDuration":605474,"Delta":236468115},{"NoteNumber":50,"Velocity":50,"Duration":418235,"SoundDuration":418235,"Delta":236864472},{"NoteNumber":74,"Velocity":61,"Duration":209117,"SoundDuration":209117,"Delta":237073590},{"NoteNumber":82,"Velocity":69,"Duration":1226863,"SoundDuration":1226863,"Delta":237282707},{"NoteNumber":53,"Velocity":54,"Duration":418234,"SoundDuration":418234,"Delta":237282707},{"NoteNumber":58,"Velocity":45,"Duration":1221113,"SoundDuration":1221113,"Delta":237700942},{"NoteNumber":50,"Velocity":49,"Duration":1649937,"SoundDuration":1649937,"Delta":238097086},{"NoteNumber":80,"Velocity":62,"Duration":412484,"SoundDuration":412484,"Delta":238509571},{"NoteNumber":79,"Velocity":67,"Duration":412484,"SoundDuration":412484,"Delta":238922055},{"NoteNumber":56,"Velocity":47,"Duration":824968,"SoundDuration":824968,"Delta":238922055},{"NoteNumber":78,"Velocity":62,"Duration":624558,"SoundDuration":624558,"Delta":239334540},{"NoteNumber":55,"Velocity":40,"Duration":831038,"SoundDuration":831038,"Delta":239747024},{"NoteNumber":51,"Velocity":40,"Duration":831038,"SoundDuration":831038,"Delta":239747024},{"NoteNumber":58,"Velocity":48,"Duration":831038,"SoundDuration":831038,"Delta":239747024},{"NoteNumber":79,"Velocity":69,"Duration":212074,"SoundDuration":212074,"Delta":239959098},{"NoteNumber":82,"Velocity":62,"Duration":203444,"SoundDuration":203444,"Delta":240171172},{"NoteNumber":79,"Velocity":63,"Duration":203445,"SoundDuration":203445,"Delta":240374617},{"NoteNumber":74,"Velocity":64,"Duration":203444,"SoundDuration":203444,"Delta":240578062},{"NoteNumber":75,"Velocity":60,"Duration":203445,"SoundDuration":203445,"Delta":240781507},{"NoteNumber":79,"Velocity":60,"Duration":210845,"SoundDuration":210845,"Delta":240984952},{"NoteNumber":75,"Velocity":60,"Duration":235198,"SoundDuration":235198,"Delta":241195797},{"NoteNumber":71,"Velocity":68,"Duration":203444,"SoundDuration":203444,"Delta":241414042},{"NoteNumber":51,"Velocity":40,"Duration":813780,"SoundDuration":813780,"Delta":241414042},{"NoteNumber":55,"Velocity":40,"Duration":813780,"SoundDuration":813780,"Delta":241414042},{"NoteNumber":60,"Velocity":48,"Duration":813780,"SoundDuration":813780,"Delta":241414042},{"NoteNumber":72,"Velocity":60,"Duration":220398,"SoundDuration":220398,"Delta":241617487},{"NoteNumber":75,"Velocity":60,"Duration":203444,"SoundDuration":203444,"Delta":241820932},{"NoteNumber":74,"Velocity":60,"Duration":220398,"SoundDuration":220398,"Delta":242024377},{"NoteNumber":77,"Velocity":63,"Duration":203444,"SoundDuration":203444,"Delta":242227822},{"NoteNumber":75,"Velocity":62,"Duration":220398,"SoundDuration":220398,"Delta":242431267},{"NoteNumber":74,"Velocity":60,"Duration":203444,"SoundDuration":203444,"Delta":242634712},{"NoteNumber":72,"Velocity":58,"Duration":101722,"SoundDuration":101722,"Delta":242838157},{"NoteNumber":65,"Velocity":46,"Duration":101722,"SoundDuration":101722,"Delta":242939880},{"NoteNumber":77,"Velocity":60,"Duration":406890,"SoundDuration":406890,"Delta":243041602},{"NoteNumber":53,"Velocity":50,"Duration":406890,"SoundDuration":406890,"Delta":243041602},{"NoteNumber":77,"Velocity":60,"Duration":813780,"SoundDuration":813780,"Delta":243448492},{"NoteNumber":62,"Velocity":43,"Duration":406890,"SoundDuration":406890,"Delta":243448492},{"NoteNumber":58,"Velocity":50,"Duration":406890,"SoundDuration":406890,"Delta":243855382},{"NoteNumber":77,"Velocity":64,"Duration":610334,"SoundDuration":610334,"Delta":244262272},{"NoteNumber":62,"Velocity":38,"Duration":406889,"SoundDuration":406889,"Delta":244262272},{"NoteNumber":53,"Velocity":43,"Duration":406890,"SoundDuration":406890,"Delta":244669162},{"NoteNumber":75,"Velocity":60,"Duration":203444,"SoundDuration":203444,"Delta":244872607},{"NoteNumber":74,"Velocity":60,"Duration":203445,"SoundDuration":203445,"Delta":245076052},{"NoteNumber":62,"Velocity":35,"Duration":406890,"SoundDuration":406890,"Delta":245076052},{"NoteNumber":75,"Velocity":60,"Duration":203444,"SoundDuration":203444,"Delta":245279497},{"NoteNumber":77,"Velocity":60,"Duration":203445,"SoundDuration":203445,"Delta":245482942},{"NoteNumber":58,"Velocity":35,"Duration":406890,"SoundDuration":406890,"Delta":245482942},{"NoteNumber":79,"Velocity":61,"Duration":203444,"SoundDuration":203444,"Delta":245686387},{"NoteNumber":81,"Velocity":62,"Duration":203444,"SoundDuration":203444,"Delta":245889832},{"NoteNumber":62,"Velocity":35,"Duration":452571,"SoundDuration":452571,"Delta":245889832},{"NoteNumber":82,"Velocity":63,"Duration":110294,"SoundDuration":110294,"Delta":246093277},{"NoteNumber":70,"Velocity":44,"Duration":66009,"SoundDuration":66009,"Delta":246203572},{"NoteNumber":72,"Velocity":44,"Duration":36411,"SoundDuration":36411,"Delta":246269581},{"NoteNumber":74,"Velocity":44,"Duration":36411,"SoundDuration":36411,"Delta":246305993},{"NoteNumber":72,"Velocity":44,"Duration":91961,"SoundDuration":91961,"Delta":246342404},{"NoteNumber":53,"Velocity":38,"Duration":417076,"SoundDuration":417076,"Delta":246342404},{"NoteNumber":74,"Velocity":41,"Duration":87908,"SoundDuration":87908,"Delta":246434366},{"NoteNumber":72,"Velocity":44,"Duration":88649,"SoundDuration":88649,"Delta":246522274},{"NoteNumber":74,"Velocity":39,"Duration":86898,"SoundDuration":86898,"Delta":246609204},{"NoteNumber":72,"Velocity":44,"Duration":83203,"SoundDuration":83203,"Delta":246696102},{"NoteNumber":63,"Velocity":33,"Duration":385747,"SoundDuration":385747,"Delta":246759480},{"NoteNumber":74,"Velocity":39,"Duration":83956,"SoundDuration":83956,"Delta":246779306},{"NoteNumber":72,"Velocity":44,"Duration":80733,"SoundDuration":80733,"Delta":246863263},{"NoteNumber":74,"Velocity":39,"Duration":81045,"SoundDuration":81045,"Delta":246943996},{"NoteNumber":72,"Velocity":44,"Duration":81045,"SoundDuration":81045,"Delta":247023452},{"NoteNumber":74,"Velocity":39,"Duration":78231,"SoundDuration":78231,"Delta":247104497},{"NoteNumber":57,"Velocity":33,"Duration":375000,"SoundDuration":375000,"Delta":247145228},{"NoteNumber":72,"Velocity":44,"Duration":79687,"SoundDuration":79687,"Delta":247182728},{"NoteNumber":74,"Velocity":38,"Duration":78125,"SoundDuration":78125,"Delta":247262416},{"NoteNumber":72,"Velocity":44,"Duration":79687,"SoundDuration":79687,"Delta":247340541},{"NoteNumber":74,"Velocity":38,"Duration":79687,"SoundDuration":79687,"Delta":247418666},{"NoteNumber":72,"Velocity":44,"Duration":77584,"SoundDuration":77584,"Delta":247498353},{"NoteNumber":63,"Velocity":33,"Duration":370720,"SoundDuration":370720,"Delta":247520228},{"NoteNumber":74,"Velocity":38,"Duration":78703,"SoundDuration":78703,"Delta":247575938},{"NoteNumber":72,"Velocity":43,"Duration":77160,"SoundDuration":77160,"Delta":247654642},{"NoteNumber":74,"Velocity":38,"Duration":78703,"SoundDuration":78703,"Delta":247731802},{"NoteNumber":72,"Velocity":43,"Duration":78820,"SoundDuration":78820,"Delta":247808963},{"NoteNumber":74,"Velocity":36,"Duration":79113,"SoundDuration":79113,"Delta":247887784},{"NoteNumber":53,"Velocity":37,"Duration":379648,"SoundDuration":379648,"Delta":247890948},{"NoteNumber":72,"Velocity":42,"Duration":80696,"SoundDuration":80696,"Delta":247966898},{"NoteNumber":74,"Velocity":36,"Duration":79113,"SoundDuration":79113,"Delta":248047594},{"NoteNumber":72,"Velocity":42,"Duration":80696,"SoundDuration":80696,"Delta":248126708},{"NoteNumber":74,"Velocity":36,"Duration":79480,"SoundDuration":79480,"Delta":248205822},{"NoteNumber":72,"Velocity":42,"Duration":88779,"SoundDuration":88779,"Delta":248270597},{"NoteNumber":63,"Velocity":32,"Duration":356514,"SoundDuration":356514,"Delta":248270597},{"NoteNumber":74,"Velocity":40,"Duration":89285,"SoundDuration":89285,"Delta":248359376},{"NoteNumber":72,"Velocity":42,"Duration":89551,"SoundDuration":89551,"Delta":248448662},{"NoteNumber":74,"Velocity":39,"Duration":88897,"SoundDuration":88897,"Delta":248538213},{"NoteNumber":72,"Velocity":42,"Duration":87929,"SoundDuration":87929,"Delta":248627111},{"NoteNumber":57,"Velocity":32,"Duration":371330,"SoundDuration":371330,"Delta":248627111},{"NoteNumber":74,"Velocity":36,"Duration":93458,"SoundDuration":93458,"Delta":248715041},{"NoteNumber":72,"Velocity":42,"Duration":94369,"SoundDuration":94369,"Delta":248808499},{"NoteNumber":74,"Velocity":37,"Duration":95572,"SoundDuration":95572,"Delta":248902869},{"NoteNumber":72,"Velocity":38,"Duration":137346,"SoundDuration":137346,"Delta":248998441},{"NoteNumber":63,"Velocity":32,"Duration":430043,"SoundDuration":430043,"Delta":248998441},{"NoteNumber":70,"Velocity":48,"Duration":147645,"SoundDuration":147645,"Delta":249135788},{"NoteNumber":72,"Velocity":42,"Duration":145051,"SoundDuration":145051,"Delta":249283433},{"NoteNumber":70,"Velocity":53,"Duration":813780,"SoundDuration":813780,"Delta":249428485},{"NoteNumber":58,"Velocity":37,"Duration":3234326,"SoundDuration":3234326,"Delta":249428485},{"NoteNumber":62,"Velocity":35,"Duration":406890,"SoundDuration":406890,"Delta":249835375},{"NoteNumber":65,"Velocity":39,"Duration":407543,"SoundDuration":407543,"Delta":250242265},{"NoteNumber":70,"Velocity":49,"Duration":102375,"SoundDuration":102375,"Delta":250547432},{"NoteNumber":70,"Velocity":50,"Duration":79869,"SoundDuration":79869,"Delta":250649808},{"NoteNumber":68,"Velocity":35,"Duration":385442,"SoundDuration":385442,"Delta":250649808},{"NoteNumber":72,"Velocity":51,"Duration":78286,"SoundDuration":78286,"Delta":250729677},{"NoteNumber":70,"Velocity":51,"Duration":76679,"SoundDuration":76679,"Delta":250807964},{"NoteNumber":69,"Velocity":54,"Duration":75353,"SoundDuration":75353,"Delta":250884643},{"NoteNumber":70,"Velocity":54,"Duration":75254,"SoundDuration":75254,"Delta":250959997},{"NoteNumber":77,"Velocity":63,"Duration":406890,"SoundDuration":406890,"Delta":251035251},{"NoteNumber":67,"Velocity":37,"Duration":813780,"SoundDuration":813780,"Delta":251035251},{"NoteNumber":75,"Velocity":58,"Duration":406890,"SoundDuration":406890,"Delta":251442141},{"NoteNumber":74,"Velocity":53,"Duration":406890,"SoundDuration":406890,"Delta":251849031},{"NoteNumber":63,"Velocity":34,"Duration":813779,"SoundDuration":813779,"Delta":251849031},{"NoteNumber":72,"Velocity":53,"Duration":389936,"SoundDuration":389936,"Delta":252255921},{"NoteNumber":72,"Velocity":62,"Duration":406890,"SoundDuration":406890,"Delta":252662811},{"NoteNumber":62,"Velocity":35,"Duration":406890,"SoundDuration":406890,"Delta":252662811},{"NoteNumber":58,"Velocity":37,"Duration":3233622,"SoundDuration":3233622,"Delta":252662811},{"NoteNumber":70,"Velocity":51,"Duration":406890,"SoundDuration":406890,"Delta":253069701},{"NoteNumber":65,"Velocity":35,"Duration":406890,"SoundDuration":406890,"Delta":253069701},{"NoteNumber":68,"Velocity":39,"Duration":407543,"SoundDuration":407543,"Delta":253476591},{"NoteNumber":70,"Velocity":49,"Duration":102375,"SoundDuration":102375,"Delta":253781758},{"NoteNumber":70,"Velocity":50,"Duration":79869,"SoundDuration":79869,"Delta":253884134},{"NoteNumber":66,"Velocity":35,"Duration":385442,"SoundDuration":385442,"Delta":253884134},{"NoteNumber":72,"Velocity":51,"Duration":78286,"SoundDuration":78286,"Delta":253964003},{"NoteNumber":70,"Velocity":51,"Duration":76679,"SoundDuration":76679,"Delta":254042290},{"NoteNumber":69,"Velocity":54,"Duration":75353,"SoundDuration":75353,"Delta":254118969},{"NoteNumber":70,"Velocity":54,"Duration":75254,"SoundDuration":75254,"Delta":254194323},{"NoteNumber":77,"Velocity":63,"Duration":406890,"SoundDuration":406890,"Delta":254269577},{"NoteNumber":67,"Velocity":37,"Duration":813780,"SoundDuration":813780,"Delta":254269577},{"NoteNumber":75,"Velocity":58,"Duration":406890,"SoundDuration":406890,"Delta":254676467},{"NoteNumber":74,"Velocity":53,"Duration":406890,"SoundDuration":406890,"Delta":255083357},{"NoteNumber":63,"Velocity":34,"Duration":813076,"SoundDuration":813076,"Delta":255083357},{"NoteNumber":72,"Velocity":53,"Duration":406186,"SoundDuration":406186,"Delta":255490247},{"NoteNumber":70,"Velocity":59,"Duration":402828,"SoundDuration":402828,"Delta":255896434},{"NoteNumber":58,"Velocity":32,"Duration":811840,"SoundDuration":811840,"Delta":255896434},{"NoteNumber":62,"Velocity":26,"Duration":409011,"SoundDuration":409011,"Delta":256299262},{"NoteNumber":65,"Velocity":35,"Duration":409011,"SoundDuration":409011,"Delta":256299262},{"NoteNumber":75,"Velocity":48,"Duration":626722,"SoundDuration":626722,"Delta":256708274},{"NoteNumber":67,"Velocity":40,"Duration":416102,"SoundDuration":416102,"Delta":256708274},{"NoteNumber":63,"Velocity":32,"Duration":416102,"SoundDuration":416102,"Delta":256708274},{"NoteNumber":63,"Velocity":37,"Duration":422669,"SoundDuration":422669,"Delta":257124376},{"NoteNumber":60,"Velocity":29,"Duration":422669,"SoundDuration":422669,"Delta":257124376},{"NoteNumber":69,"Velocity":50,"Duration":212049,"SoundDuration":212049,"Delta":257334997},{"NoteNumber":70,"Velocity":56,"Duration":423501,"SoundDuration":423501,"Delta":257547046},{"NoteNumber":58,"Velocity":32,"Duration":864977,"SoundDuration":864977,"Delta":257547046},{"NoteNumber":62,"Velocity":38,"Duration":423501,"SoundDuration":423501,"Delta":257547046},{"NoteNumber":65,"Velocity":36,"Duration":441475,"SoundDuration":441475,"Delta":257970547},{"NoteNumber":62,"Velocity":28,"Duration":441475,"SoundDuration":441475,"Delta":257970547},{"NoteNumber":79,"Velocity":64,"Duration":719186,"SoundDuration":719186,"Delta":258412023},{"NoteNumber":67,"Velocity":40,"Duration":469186,"SoundDuration":469186,"Delta":258412023},{"NoteNumber":63,"Velocity":32,"Duration":469186,"SoundDuration":469186,"Delta":258412023},{"NoteNumber":63,"Velocity":30,"Duration":590909,"SoundDuration":590909,"Delta":258881210},{"NoteNumber":60,"Velocity":24,"Duration":576704,"SoundDuration":576704,"Delta":258881210},{"NoteNumber":69,"Velocity":45,"Duration":340909,"SoundDuration":340909,"Delta":259131210},{"NoteNumber":65,"Velocity":36,"Duration":3910586,"SoundDuration":3910586,"Delta":259472119},{"NoteNumber":60,"Velocity":36,"Duration":2068965,"SoundDuration":2068965,"Delta":259472119},{"NoteNumber":69,"Velocity":45,"Duration":2068965,"SoundDuration":2068965,"Delta":259472119},{"NoteNumber":63,"Velocity":36,"Duration":2068965,"SoundDuration":2068965,"Delta":259472119},{"NoteNumber":58,"Velocity":27,"Duration":3910586,"SoundDuration":3910586,"Delta":259472119},{"NoteNumber":46,"Velocity":21,"Duration":3910586,"SoundDuration":3910586,"Delta":259472119},{"NoteNumber":62,"Velocity":24,"Duration":1841620,"SoundDuration":1841620,"Delta":261541085},{"NoteNumber":70,"Velocity":31,"Duration":1841620,"SoundDuration":1841620,"Delta":261541085},{"NoteNumber":50,"Velocity":18,"Duration":1841620,"SoundDuration":1841620,"Delta":261541085},{"NoteNumber":53,"Velocity":20,"Duration":1841620,"SoundDuration":1841620,"Delta":261541085}]}