{"title":"Klaviersonate Nr. 11 KV 331","artist":"Piano","durationMs":830903,"midiSha256":"d35a9ea1e8be4c831c1bee294d20dd87a85ecb9f94375d67750ab109ff44f67a","midiObject":[{"NoteNumber":73,"Velocity":50,"Duration":708549,"SoundDuration":708549,"Delta":0},{"NoteNumber":57,"Velocity":45,"Duration":708549,"SoundDuration":708549,"Delta":0},{"NoteNumber":64,"Velocity":38,"Duration":921648,"SoundDuration":921648,"Delta":0},{"NoteNumber":74,"Velocity":43,"Duration":213098,"SoundDuration":213098,"Delta":708549},{"NoteNumber":59,"Velocity":35,"Duration":213098,"SoundDuration":213098,"Delta":708549},{"NoteNumber":73,"Velocity":43,"Duration":509251,"SoundDuration":509251,"Delta":921648},{"NoteNumber":57,"Velocity":35,"Duration":509251,"SoundDuration":509251,"Delta":921648},{"NoteNumber":64,"Velocity":29,"Duration":509251,"SoundDuration":509251,"Delta":921648},{"NoteNumber":76,"Velocity":48,"Duration":944733,"SoundDuration":944733,"Delta":1430899},{"NoteNumber":64,"Velocity":29,"Duration":944733,"SoundDuration":944733,"Delta":1430899},{"NoteNumber":61,"Velocity":39,"Duration":944733,"SoundDuration":944733,"Delta":1430899},{"NoteNumber":76,"Velocity":42,"Duration":483437,"SoundDuration":483437,"Delta":2375632},{"NoteNumber":61,"Velocity":32,"Duration":483437,"SoundDuration":483437,"Delta":2375632},{"NoteNumber":64,"Velocity":23,"Duration":483437,"SoundDuration":483437,"Delta":2375632},{"NoteNumber":71,"Velocity":50,"Duration":691988,"SoundDuration":691988,"Delta":2912785},{"NoteNumber":56,"Velocity":45,"Duration":691988,"SoundDuration":691988,"Delta":2912785},{"NoteNumber":64,"Velocity":38,"Duration":905086,"SoundDuration":905086,"Delta":2912785},{"NoteNumber":73,"Velocity":45,"Duration":213098,"SoundDuration":213098,"Delta":3604774},{"NoteNumber":57,"Velocity":38,"Duration":213098,"SoundDuration":213098,"Delta":3604774},{"NoteNumber":71,"Velocity":45,"Duration":484105,"SoundDuration":484105,"Delta":3817872},{"NoteNumber":56,"Velocity":38,"Duration":484105,"SoundDuration":484105,"Delta":3817872},{"NoteNumber":64,"Velocity":32,"Duration":484105,"SoundDuration":484105,"Delta":3817872},{"NoteNumber":74,"Velocity":49,"Duration":911854,"SoundDuration":911854,"Delta":4301977},{"NoteNumber":64,"Velocity":36,"Duration":911854,"SoundDuration":911854,"Delta":4301977},{"NoteNumber":59,"Velocity":38,"Duration":911854,"SoundDuration":911854,"Delta":4301977},{"NoteNumber":74,"Velocity":45,"Duration":458326,"SoundDuration":458326,"Delta":5213831},{"NoteNumber":64,"Velocity":28,"Duration":458326,"SoundDuration":458326,"Delta":5213831},{"NoteNumber":59,"Velocity":31,"Duration":458326,"SoundDuration":458326,"Delta":5213831},{"NoteNumber":69,"Velocity":53,"Duration":922651,"SoundDuration":922651,"Delta":5723083},{"NoteNumber":54,"Velocity":43,"Duration":922651,"SoundDuration":922651,"Delta":5723083},{"NoteNumber":64,"Velocity":36,"Duration":922651,"SoundDuration":922651,"Delta":5723083},{"NoteNumber":69,"Velocity":46,"Duration":484104,"SoundDuration":484104,"Delta":6645734},{"NoteNumber":64,"Velocity":32,"Duration":484104,"SoundDuration":484104,"Delta":6645734},{"NoteNumber":54,"Velocity":38,"Duration":484104,"SoundDuration":484104,"Delta":6645734},{"NoteNumber":71,"Velocity":50,"Duration":922651,"SoundDuration":922651,"Delta":7129839},{"NoteNumber":56,"Velocity":46,"Duration":922651,"SoundDuration":922651,"Delta":7129839},{"NoteNumber":64,"Velocity":39,"Duration":922651,"SoundDuration":922651,"Delta":7129839},{"NoteNumber":71,"Velocity":46,"Duration":502765,"SoundDuration":502765,"Delta":8052490},{"NoteNumber":56,"Velocity":41,"Duration":502765,"SoundDuration":502765,"Delta":8052490},{"NoteNumber":64,"Velocity":34,"Duration":502765,"SoundDuration":502765,"Delta":8052490},{"NoteNumber":73,"Velocity":53,"Duration":861821,"SoundDuration":861821,"Delta":8555255},{"NoteNumber":64,"Velocity":38,"Duration":861821,"SoundDuration":861821,"Delta":8555255},{"NoteNumber":57,"Velocity":45,"Duration":861821,"SoundDuration":861821,"Delta":8555255},{"NoteNumber":71,"Velocity":35,"Duration":474165,"SoundDuration":474165,"Delta":9417076},{"NoteNumber":76,"Velocity":49,"Duration":222783,"SoundDuration":222783,"Delta":9417076},{"NoteNumber":50,"Velocity":38,"Duration":474165,"SoundDuration":474165,"Delta":9417076},{"NoteNumber":74,"Velocity":47,"Duration":251382,"SoundDuration":251382,"Delta":9639859},{"NoteNumber":73,"Velocity":53,"Duration":956479,"SoundDuration":956479,"Delta":9891241},{"NoteNumber":69,"Velocity":45,"Duration":956479,"SoundDuration":956479,"Delta":9891241},{"NoteNumber":52,"Velocity":45,"Duration":1479310,"SoundDuration":1479310,"Delta":9891241},{"NoteNumber":71,"Velocity":49,"Duration":470547,"SoundDuration":470547,"Delta":10847721},{"NoteNumber":68,"Velocity":41,"Duration":470547,"SoundDuration":470547,"Delta":10847721},{"NoteNumber":73,"Velocity":50,"Duration":708549,"SoundDuration":708549,"Delta":11370552},{"NoteNumber":64,"Velocity":38,"Duration":921648,"SoundDuration":921648,"Delta":11370552},{"NoteNumber":57,"Velocity":45,"Duration":708549,"SoundDuration":708549,"Delta":11370552},{"NoteNumber":74,"Velocity":43,"Duration":213098,"SoundDuration":213098,"Delta":12079102},{"NoteNumber":59,"Velocity":35,"Duration":213098,"SoundDuration":213098,"Delta":12079102},{"NoteNumber":73,"Velocity":43,"Duration":509251,"SoundDuration":509251,"Delta":12292200},{"NoteNumber":64,"Velocity":29,"Duration":509251,"SoundDuration":509251,"Delta":12292200},{"NoteNumber":57,"Velocity":35,"Duration":509251,"SoundDuration":509251,"Delta":12292200},{"NoteNumber":76,"Velocity":48,"Duration":944732,"SoundDuration":944732,"Delta":12801452},{"NoteNumber":61,"Velocity":39,"Duration":944732,"SoundDuration":944732,"Delta":12801452},{"NoteNumber":64,"Velocity":29,"Duration":944732,"SoundDuration":944732,"Delta":12801452},{"NoteNumber":76,"Velocity":42,"Duration":483437,"SoundDuration":483437,"Delta":13746184},{"NoteNumber":64,"Velocity":23,"Duration":483437,"SoundDuration":483437,"Delta":13746184},{"NoteNumber":61,"Velocity":32,"Duration":483437,"SoundDuration":483437,"Delta":13746184},{"NoteNumber":71,"Velocity":50,"Duration":691988,"SoundDuration":691988,"Delta":14283337},{"NoteNumber":56,"Velocity":45,"Duration":691988,"SoundDuration":691988,"Delta":14283337},{"NoteNumber":64,"Velocity":38,"Duration":905086,"SoundDuration":905086,"Delta":14283337},{"NoteNumber":73,"Velocity":45,"Duration":213098,"SoundDuration":213098,"Delta":14975326},{"NoteNumber":57,"Velocity":38,"Duration":213098,"SoundDuration":213098,"Delta":14975326},{"NoteNumber":71,"Velocity":45,"Duration":484104,"SoundDuration":484104,"Delta":15188424},{"NoteNumber":64,"Velocity":32,"Duration":484104,"SoundDuration":484104,"Delta":15188424},{"NoteNumber":56,"Velocity":38,"Duration":484104,"SoundDuration":484104,"Delta":15188424},{"NoteNumber":74,"Velocity":49,"Duration":911854,"SoundDuration":911854,"Delta":15672529},{"NoteNumber":59,"Velocity":40,"Duration":911854,"SoundDuration":911854,"Delta":15672529},{"NoteNumber":64,"Velocity":36,"Duration":911854,"SoundDuration":911854,"Delta":15672529},{"NoteNumber":74,"Velocity":45,"Duration":452488,"SoundDuration":452488,"Delta":16584383},{"NoteNumber":64,"Velocity":28,"Duration":452488,"SoundDuration":452488,"Delta":16584383},{"NoteNumber":59,"Velocity":31,"Duration":452488,"SoundDuration":452488,"Delta":16584383},{"NoteNumber":69,"Velocity":55,"Duration":944732,"SoundDuration":944732,"Delta":17087148},{"NoteNumber":64,"Velocity":37,"Duration":944732,"SoundDuration":944732,"Delta":17087148},{"NoteNumber":54,"Velocity":45,"Duration":944732,"SoundDuration":944732,"Delta":17087148},{"NoteNumber":71,"Velocity":63,"Duration":496359,"SoundDuration":496359,"Delta":18031881},{"NoteNumber":56,"Velocity":49,"Duration":496359,"SoundDuration":496359,"Delta":18031881},{"NoteNumber":64,"Velocity":49,"Duration":496359,"SoundDuration":496359,"Delta":18031881},{"NoteNumber":73,"Velocity":68,"Duration":944732,"SoundDuration":944732,"Delta":18528241},{"NoteNumber":57,"Velocity":55,"Duration":944732,"SoundDuration":944732,"Delta":18528241},{"NoteNumber":64,"Velocity":55,"Duration":944732,"SoundDuration":944732,"Delta":18528241},{"NoteNumber":71,"Velocity":56,"Duration":552282,"SoundDuration":552282,"Delta":19472974},{"NoteNumber":74,"Velocity":67,"Duration":552282,"SoundDuration":552282,"Delta":19472974},{"NoteNumber":66,"Velocity":56,"Duration":552282,"SoundDuration":552282,"Delta":19472974},{"NoteNumber":50,"Velocity":55,"Duration":552282,"SoundDuration":552282,"Delta":19472974},{"NoteNumber":64,"Velocity":47,"Duration":1059695,"SoundDuration":1059695,"Delta":20025257},{"NoteNumber":73,"Velocity":56,"Duration":1059695,"SoundDuration":1059695,"Delta":20025257},{"NoteNumber":69,"Velocity":47,"Duration":1059695,"SoundDuration":1059695,"Delta":20025257},{"NoteNumber":52,"Velocity":46,"Duration":1059695,"SoundDuration":1059695,"Delta":20025257},{"NoteNumber":68,"Velocity":34,"Duration":622406,"SoundDuration":622406,"Delta":21084953},{"NoteNumber":62,"Velocity":34,"Duration":622406,"SoundDuration":622406,"Delta":21084953},{"NoteNumber":71,"Velocity":40,"Duration":622406,"SoundDuration":622406,"Delta":21084953},{"NoteNumber":64,"Velocity":34,"Duration":622406,"SoundDuration":622406,"Delta":21084953},{"NoteNumber":40,"Velocity":36,"Duration":622406,"SoundDuration":622406,"Delta":21084953},{"NoteNumber":69,"Velocity":38,"Duration":1120239,"SoundDuration":1120239,"Delta":21707360},{"NoteNumber":64,"Velocity":32,"Duration":1120239,"SoundDuration":1120239,"Delta":21707360},{"NoteNumber":61,"Velocity":32,"Duration":1120239,"SoundDuration":1120239,"Delta":21707360},{"NoteNumber":45,"Velocity":34,"Duration":1120239,"SoundDuration":1120239,"Delta":21707360},{"NoteNumber":73,"Velocity":42,"Duration":708549,"SoundDuration":708549,"Delta":23387718},{"NoteNumber":57,"Velocity":38,"Duration":708549,"SoundDuration":708549,"Delta":23387718},{"NoteNumber":64,"Velocity":32,"Duration":921648,"SoundDuration":921648,"Delta":23387718},{"NoteNumber":74,"Velocity":36,"Duration":213098,"SoundDuration":213098,"Delta":24096268},{"NoteNumber":59,"Velocity":29,"Duration":213098,"SoundDuration":213098,"Delta":24096268},{"NoteNumber":73,"Velocity":36,"Duration":509251,"SoundDuration":509251,"Delta":24309366},{"NoteNumber":57,"Velocity":29,"Duration":509251,"SoundDuration":509251,"Delta":24309366},{"NoteNumber":64,"Velocity":24,"Duration":509251,"SoundDuration":509251,"Delta":24309366},{"NoteNumber":76,"Velocity":40,"Duration":944732,"SoundDuration":944732,"Delta":24818618},{"NoteNumber":64,"Velocity":29,"Duration":944732,"SoundDuration":944732,"Delta":24818618},{"NoteNumber":61,"Velocity":33,"Duration":944732,"SoundDuration":944732,"Delta":24818618},{"NoteNumber":76,"Velocity":35,"Duration":483437,"SoundDuration":483437,"Delta":25763351},{"NoteNumber":64,"Velocity":23,"Duration":483437,"SoundDuration":483437,"Delta":25763351},{"NoteNumber":61,"Velocity":26,"Duration":483437,"SoundDuration":483437,"Delta":25763351},{"NoteNumber":71,"Velocity":42,"Duration":691988,"SoundDuration":691988,"Delta":26300504},{"NoteNumber":64,"Velocity":32,"Duration":905086,"SoundDuration":905086,"Delta":26300504},{"NoteNumber":56,"Velocity":38,"Duration":691988,"SoundDuration":691988,"Delta":26300504},{"NoteNumber":73,"Velocity":38,"Duration":213098,"SoundDuration":213098,"Delta":26992492},{"NoteNumber":57,"Velocity":32,"Duration":213098,"SoundDuration":213098,"Delta":26992492},{"NoteNumber":71,"Velocity":38,"Duration":484104,"SoundDuration":484104,"Delta":27205591},{"NoteNumber":64,"Velocity":27,"Duration":484104,"SoundDuration":484104,"Delta":27205591},{"NoteNumber":56,"Velocity":32,"Duration":484104,"SoundDuration":484104,"Delta":27205591},{"NoteNumber":74,"Velocity":41,"Duration":911854,"SoundDuration":911854,"Delta":27689696},{"NoteNumber":59,"Velocity":32,"Duration":911854,"SoundDuration":911854,"Delta":27689696},{"NoteNumber":64,"Velocity":30,"Duration":911854,"SoundDuration":911854,"Delta":27689696},{"NoteNumber":74,"Velocity":38,"Duration":458326,"SoundDuration":458326,"Delta":28601550},{"NoteNumber":64,"Velocity":23,"Duration":458326,"SoundDuration":458326,"Delta":28601550},{"NoteNumber":59,"Velocity":26,"Duration":458326,"SoundDuration":458326,"Delta":28601550},{"NoteNumber":69,"Velocity":45,"Duration":922651,"SoundDuration":922651,"Delta":29110801},{"NoteNumber":64,"Velocity":30,"Duration":922651,"SoundDuration":922651,"Delta":29110801},{"NoteNumber":54,"Velocity":36,"Duration":922651,"SoundDuration":922651,"Delta":29110801},{"NoteNumber":69,"Velocity":39,"Duration":484104,"SoundDuration":484104,"Delta":30033452},{"NoteNumber":54,"Velocity":32,"Duration":484104,"SoundDuration":484104,"Delta":30033452},{"NoteNumber":64,"Velocity":27,"Duration":484104,"SoundDuration":484104,"Delta":30033452},{"NoteNumber":71,"Velocity":42,"Duration":922651,"SoundDuration":922651,"Delta":30517557},{"NoteNumber":64,"Velocity":33,"Duration":922651,"SoundDuration":922651,"Delta":30517557},{"NoteNumber":56,"Velocity":39,"Duration":922651,"SoundDuration":922651,"Delta":30517557},{"NoteNumber":71,"Velocity":39,"Duration":502765,"SoundDuration":502765,"Delta":31440208},{"NoteNumber":64,"Velocity":28,"Duration":502765,"SoundDuration":502765,"Delta":31440208},{"NoteNumber":56,"Velocity":34,"Duration":502765,"SoundDuration":502765,"Delta":31440208},{"NoteNumber":73,"Velocity":45,"Duration":861821,"SoundDuration":861821,"Delta":31942973},{"NoteNumber":57,"Velocity":38,"Duration":861821,"SoundDuration":861821,"Delta":31942973},{"NoteNumber":64,"Velocity":32,"Duration":861821,"SoundDuration":861821,"Delta":31942973},{"NoteNumber":71,"Velocity":29,"Duration":474165,"SoundDuration":474165,"Delta":32804794},{"NoteNumber":76,"Velocity":41,"Duration":222783,"SoundDuration":222783,"Delta":32804794},{"NoteNumber":50,"Velocity":32,"Duration":474165,"SoundDuration":474165,"Delta":32804794},{"NoteNumber":74,"Velocity":39,"Duration":251382,"SoundDuration":251382,"Delta":33027578},{"NoteNumber":73,"Velocity":45,"Duration":956479,"SoundDuration":956479,"Delta":33278960},{"NoteNumber":69,"Velocity":38,"Duration":956479,"SoundDuration":956479,"Delta":33278960},{"NoteNumber":52,"Velocity":38,"Duration":1479310,"SoundDuration":1479310,"Delta":33278960},{"NoteNumber":71,"Velocity":41,"Duration":470547,"SoundDuration":470547,"Delta":34235440},{"NoteNumber":68,"Velocity":34,"Duration":470547,"SoundDuration":470547,"Delta":34235440},{"NoteNumber":73,"Velocity":50,"Duration":708549,"SoundDuration":708549,"Delta":34758271},{"NoteNumber":57,"Velocity":45,"Duration":708549,"SoundDuration":708549,"Delta":34758271},{"NoteNumber":64,"Velocity":38,"Duration":921648,"SoundDuration":921648,"Delta":34758271},{"NoteNumber":74,"Velocity":43,"Duration":213098,"SoundDuration":213098,"Delta":35466820},{"NoteNumber":59,"Velocity":35,"Duration":213098,"SoundDuration":213098,"Delta":35466820},{"NoteNumber":73,"Velocity":43,"Duration":509251,"SoundDuration":509251,"Delta":35679919},{"NoteNumber":64,"Velocity":29,"Duration":509251,"SoundDuration":509251,"Delta":35679919},{"NoteNumber":57,"Velocity":35,"Duration":509251,"SoundDuration":509251,"Delta":35679919},{"NoteNumber":76,"Velocity":48,"Duration":944732,"SoundDuration":944732,"Delta":36189170},{"NoteNumber":61,"Velocity":39,"Duration":944732,"SoundDuration":944732,"Delta":36189170},{"NoteNumber":64,"Velocity":35,"Duration":944732,"SoundDuration":944732,"Delta":36189170},{"NoteNumber":76,"Velocity":42,"Duration":483437,"SoundDuration":483437,"Delta":37133903},{"NoteNumber":61,"Velocity":32,"Duration":483437,"SoundDuration":483437,"Delta":37133903},{"NoteNumber":64,"Velocity":28,"Duration":483437,"SoundDuration":483437,"Delta":37133903},{"NoteNumber":71,"Velocity":50,"Duration":691988,"SoundDuration":691988,"Delta":37671056},{"NoteNumber":64,"Velocity":38,"Duration":905086,"SoundDuration":905086,"Delta":37671056},{"NoteNumber":56,"Velocity":45,"Duration":691988,"SoundDuration":691988,"Delta":37671056},{"NoteNumber":73,"Velocity":45,"Duration":213098,"SoundDuration":213098,"Delta":38363045},{"NoteNumber":57,"Velocity":38,"Duration":213098,"SoundDuration":213098,"Delta":38363045},{"NoteNumber":71,"Velocity":45,"Duration":484104,"SoundDuration":484104,"Delta":38576143},{"NoteNumber":64,"Velocity":32,"Duration":484104,"SoundDuration":484104,"Delta":38576143},{"NoteNumber":56,"Velocity":38,"Duration":484104,"SoundDuration":484104,"Delta":38576143},{"NoteNumber":74,"Velocity":49,"Duration":911853,"SoundDuration":911853,"Delta":39060248},{"NoteNumber":59,"Velocity":40,"Duration":911853,"SoundDuration":911853,"Delta":39060248},{"NoteNumber":64,"Velocity":36,"Duration":911853,"SoundDuration":911853,"Delta":39060248},{"NoteNumber":74,"Velocity":45,"Duration":452488,"SoundDuration":452488,"Delta":39972102},{"NoteNumber":59,"Velocity":31,"Duration":452488,"SoundDuration":452488,"Delta":39972102},{"NoteNumber":64,"Velocity":28,"Duration":452488,"SoundDuration":452488,"Delta":39972102},{"NoteNumber":69,"Velocity":55,"Duration":944732,"SoundDuration":944732,"Delta":40474867},{"NoteNumber":64,"Velocity":37,"Duration":944732,"SoundDuration":944732,"Delta":40474867},{"NoteNumber":54,"Velocity":45,"Duration":944732,"SoundDuration":944732,"Delta":40474867},{"NoteNumber":71,"Velocity":63,"Duration":496360,"SoundDuration":496360,"Delta":41419600},{"NoteNumber":64,"Velocity":49,"Duration":496360,"SoundDuration":496360,"Delta":41419600},{"NoteNumber":56,"Velocity":49,"Duration":496360,"SoundDuration":496360,"Delta":41419600},{"NoteNumber":73,"Velocity":68,"Duration":944732,"SoundDuration":944732,"Delta":41915960},{"NoteNumber":57,"Velocity":55,"Duration":944732,"SoundDuration":944732,"Delta":41915960},{"NoteNumber":64,"Velocity":55,"Duration":944732,"SoundDuration":944732,"Delta":41915960},{"NoteNumber":66,"Velocity":56,"Duration":552283,"SoundDuration":552283,"Delta":42860693},{"NoteNumber":74,"Velocity":67,"Duration":552283,"SoundDuration":552283,"Delta":42860693},{"NoteNumber":71,"Velocity":56,"Duration":552283,"SoundDuration":552283,"Delta":42860693},{"NoteNumber":50,"Velocity":55,"Duration":552283,"SoundDuration":552283,"Delta":42860693},{"NoteNumber":73,"Velocity":56,"Duration":1059696,"SoundDuration":1059696,"Delta":43412976},{"NoteNumber":64,"Velocity":47,"Duration":1059696,"SoundDuration":1059696,"Delta":43412976},{"NoteNumber":69,"Velocity":47,"Duration":1059696,"SoundDuration":1059696,"Delta":43412976},{"NoteNumber":52,"Velocity":46,"Duration":1059696,"SoundDuration":1059696,"Delta":43412976},{"NoteNumber":64,"Velocity":34,"Duration":622406,"SoundDuration":622406,"Delta":44472672},{"NoteNumber":68,"Velocity":34,"Duration":622406,"SoundDuration":622406,"Delta":44472672},{"NoteNumber":62,"Velocity":34,"Duration":622406,"SoundDuration":622406,"Delta":44472672},{"NoteNumber":71,"Velocity":40,"Duration":622406,"SoundDuration":622406,"Delta":44472672},{"NoteNumber":40,"Velocity":36,"Duration":622406,"SoundDuration":622406,"Delta":44472672},{"NoteNumber":69,"Velocity":38,"Duration":1120238,"SoundDuration":1120238,"Delta":45095079},{"NoteNumber":64,"Velocity":32,"Duration":1120238,"SoundDuration":1120238,"Delta":45095079},{"NoteNumber":61,"Velocity":32,"Duration":1120238,"SoundDuration":1120238,"Delta":45095079},{"NoteNumber":45,"Velocity":34,"Duration":1120238,"SoundDuration":1120238,"Delta":45095079},{"NoteNumber":76,"Velocity":50,"Duration":671641,"SoundDuration":671641,"Delta":46775437},{"NoteNumber":57,"Velocity":39,"Duration":447760,"SoundDuration":447760,"Delta":46775437},{"NoteNumber":61,"Velocity":33,"Duration":436979,"SoundDuration":436979,"Delta":47223198},{"NoteNumber":78,"Velocity":45,"Duration":213098,"SoundDuration":213098,"Delta":47447079},{"NoteNumber":76,"Velocity":46,"Duration":484104,"SoundDuration":484104,"Delta":47660177},{"NoteNumber":64,"Velocity":34,"Duration":484104,"SoundDuration":484104,"Delta":47660177},{"NoteNumber":78,"Velocity":53,"Duration":869565,"SoundDuration":869565,"Delta":48144282},{"NoteNumber":57,"Velocity":37,"Duration":434782,"SoundDuration":434782,"Delta":48144282},{"NoteNumber":62,"Velocity":32,"Duration":434782,"SoundDuration":434782,"Delta":48579065},{"NoteNumber":78,"Velocity":42,"Duration":314228,"SoundDuration":314228,"Delta":49013847},{"NoteNumber":66,"Velocity":32,"Duration":502764,"SoundDuration":502764,"Delta":49013847},{"NoteNumber":78,"Velocity":49,"Duration":62845,"SoundDuration":62845,"Delta":49390921},{"NoteNumber":80,"Velocity":53,"Duration":62845,"SoundDuration":62845,"Delta":49453766},{"NoteNumber":81,"Velocity":57,"Duration":681818,"SoundDuration":681818,"Delta":49516612},{"NoteNumber":57,"Velocity":39,"Duration":454545,"SoundDuration":454545,"Delta":49516612},{"NoteNumber":62,"Velocity":33,"Duration":440371,"SoundDuration":440371,"Delta":49971158},{"NoteNumber":80,"Velocity":47,"Duration":213098,"SoundDuration":213098,"Delta":50198430},{"NoteNumber":78,"Velocity":50,"Duration":484104,"SoundDuration":484104,"Delta":50411529},{"NoteNumber":66,"Velocity":34,"Duration":484104,"SoundDuration":484104,"Delta":50411529},{"NoteNumber":78,"Velocity":53,"Duration":450721,"SoundDuration":450721,"Delta":50895634},{"NoteNumber":57,"Velocity":37,"Duration":450721,"SoundDuration":450721,"Delta":50895634},{"NoteNumber":76,"Velocity":45,"Duration":466780,"SoundDuration":466780,"Delta":51346355},{"NoteNumber":61,"Velocity":32,"Duration":466780,"SoundDuration":466780,"Delta":51346355},{"NoteNumber":76,"Velocity":42,"Duration":245901,"SoundDuration":245901,"Delta":51813136},{"NoteNumber":64,"Velocity":32,"Duration":245901,"SoundDuration":245901,"Delta":51813136},{"NoteNumber":76,"Velocity":59,"Duration":422535,"SoundDuration":422535,"Delta":52304939},{"NoteNumber":61,"Velocity":51,"Duration":868101,"SoundDuration":868101,"Delta":52304939},{"NoteNumber":57,"Velocity":51,"Duration":868101,"SoundDuration":868101,"Delta":52304939},{"NoteNumber":73,"Velocity":50,"Duration":445566,"SoundDuration":445566,"Delta":52727474},{"NoteNumber":69,"Velocity":49,"Duration":118091,"SoundDuration":118091,"Delta":53173041},{"NoteNumber":76,"Velocity":61,"Duration":422535,"SoundDuration":422535,"Delta":53645407},{"NoteNumber":56,"Velocity":43,"Duration":868101,"SoundDuration":868101,"Delta":53645407},{"NoteNumber":62,"Velocity":43,"Duration":868101,"SoundDuration":868101,"Delta":53645407},{"NoteNumber":74,"Velocity":53,"Duration":445566,"SoundDuration":445566,"Delta":54067942},{"NoteNumber":71,"Velocity":48,"Duration":118091,"SoundDuration":118091,"Delta":54513509},{"NoteNumber":76,"Velocity":62,"Duration":416666,"SoundDuration":416666,"Delta":54985875},{"NoteNumber":61,"Velocity":50,"Duration":862232,"SoundDuration":862232,"Delta":54985875},{"NoteNumber":57,"Velocity":50,"Duration":862232,"SoundDuration":862232,"Delta":54985875},{"NoteNumber":73,"Velocity":51,"Duration":445566,"SoundDuration":445566,"Delta":55402542},{"NoteNumber":69,"Velocity":45,"Duration":463978,"SoundDuration":463978,"Delta":55848108},{"NoteNumber":54,"Velocity":48,"Duration":463978,"SoundDuration":463978,"Delta":55848108},{"NoteNumber":63,"Velocity":48,"Duration":463978,"SoundDuration":463978,"Delta":55848108},{"NoteNumber":69,"Velocity":44,"Duration":911853,"SoundDuration":911853,"Delta":56354267},{"NoteNumber":73,"Velocity":44,"Duration":911853,"SoundDuration":911853,"Delta":56354267},{"NoteNumber":64,"Velocity":40,"Duration":1415961,"SoundDuration":1415961,"Delta":56354267},{"NoteNumber":52,"Velocity":40,"Duration":1415961,"SoundDuration":1415961,"Delta":56354267},{"NoteNumber":68,"Velocity":37,"Duration":504107,"SoundDuration":504107,"Delta":57266121},{"NoteNumber":71,"Velocity":37,"Duration":504107,"SoundDuration":504107,"Delta":57266121},{"NoteNumber":73,"Velocity":50,"Duration":708549,"SoundDuration":708549,"Delta":57826240},{"NoteNumber":57,"Velocity":45,"Duration":708549,"SoundDuration":708549,"Delta":57826240},{"NoteNumber":64,"Velocity":38,"Duration":921648,"SoundDuration":921648,"Delta":57826240},{"NoteNumber":74,"Velocity":43,"Duration":213098,"SoundDuration":213098,"Delta":58534790},{"NoteNumber":59,"Velocity":35,"Duration":213098,"SoundDuration":213098,"Delta":58534790},{"NoteNumber":73,"Velocity":43,"Duration":509251,"SoundDuration":509251,"Delta":58747889},{"NoteNumber":57,"Velocity":35,"Duration":509251,"SoundDuration":509251,"Delta":58747889},{"NoteNumber":64,"Velocity":29,"Duration":509251,"SoundDuration":509251,"Delta":58747889},{"NoteNumber":76,"Velocity":48,"Duration":944732,"SoundDuration":944732,"Delta":59257140},{"NoteNumber":64,"Velocity":35,"Duration":944732,"SoundDuration":944732,"Delta":59257140},{"NoteNumber":61,"Velocity":39,"Duration":944732,"SoundDuration":944732,"Delta":59257140},{"NoteNumber":76,"Velocity":42,"Duration":483437,"SoundDuration":483437,"Delta":60201873},{"NoteNumber":64,"Velocity":28,"Duration":483437,"SoundDuration":483437,"Delta":60201873},{"NoteNumber":61,"Velocity":32,"Duration":483437,"SoundDuration":483437,"Delta":60201873},{"NoteNumber":71,"Velocity":50,"Duration":691988,"SoundDuration":691988,"Delta":60739026},{"NoteNumber":64,"Velocity":38,"Duration":905086,"SoundDuration":905086,"Delta":60739026},{"NoteNumber":56,"Velocity":45,"Duration":691988,"SoundDuration":691988,"Delta":60739026},{"NoteNumber":73,"Velocity":45,"Duration":213098,"SoundDuration":213098,"Delta":61431014},{"NoteNumber":57,"Velocity":38,"Duration":213098,"SoundDuration":213098,"Delta":61431014},{"NoteNumber":71,"Velocity":45,"Duration":484104,"SoundDuration":484104,"Delta":61644113},{"NoteNumber":56,"Velocity":38,"Duration":484104,"SoundDuration":484104,"Delta":61644113},{"NoteNumber":64,"Velocity":32,"Duration":484104,"SoundDuration":484104,"Delta":61644113},{"NoteNumber":74,"Velocity":49,"Duration":911853,"SoundDuration":911853,"Delta":62128218},{"NoteNumber":59,"Velocity":40,"Duration":911853,"SoundDuration":911853,"Delta":62128218},{"NoteNumber":64,"Velocity":36,"Duration":911853,"SoundDuration":911853,"Delta":62128218},{"NoteNumber":74,"Velocity":45,"Duration":452488,"SoundDuration":452488,"Delta":63040072},{"NoteNumber":64,"Velocity":28,"Duration":452488,"SoundDuration":452488,"Delta":63040072},{"NoteNumber":59,"Velocity":31,"Duration":452488,"SoundDuration":452488,"Delta":63040072},{"NoteNumber":69,"Velocity":55,"Duration":944732,"SoundDuration":944732,"Delta":63542837},{"NoteNumber":64,"Velocity":37,"Duration":944732,"SoundDuration":944732,"Delta":63542837},{"NoteNumber":54,"Velocity":45,"Duration":944732,"SoundDuration":944732,"Delta":63542837},{"NoteNumber":71,"Velocity":63,"Duration":529848,"SoundDuration":529848,"Delta":64487570},{"NoteNumber":56,"Velocity":49,"Duration":529848,"SoundDuration":529848,"Delta":64487570},{"NoteNumber":64,"Velocity":49,"Duration":529848,"SoundDuration":529848,"Delta":64487570},{"NoteNumber":73,"Velocity":68,"Duration":944732,"SoundDuration":944732,"Delta":65017418},{"NoteNumber":57,"Velocity":55,"Duration":944732,"SoundDuration":944732,"Delta":65017418},{"NoteNumber":64,"Velocity":55,"Duration":944732,"SoundDuration":944732,"Delta":65017418},{"NoteNumber":71,"Velocity":56,"Duration":522830,"SoundDuration":522830,"Delta":65962151},{"NoteNumber":66,"Velocity":56,"Duration":522830,"SoundDuration":522830,"Delta":65962151},{"NoteNumber":74,"Velocity":67,"Duration":522830,"SoundDuration":522830,"Delta":65962151},{"NoteNumber":50,"Velocity":55,"Duration":522830,"SoundDuration":522830,"Delta":65962151},{"NoteNumber":64,"Velocity":47,"Duration":956479,"SoundDuration":956479,"Delta":66484981},{"NoteNumber":73,"Velocity":56,"Duration":956479,"SoundDuration":956479,"Delta":66484981},{"NoteNumber":69,"Velocity":47,"Duration":956479,"SoundDuration":956479,"Delta":66484981},{"NoteNumber":52,"Velocity":46,"Duration":956479,"SoundDuration":956479,"Delta":66484981},{"NoteNumber":68,"Velocity":42,"Duration":568289,"SoundDuration":568289,"Delta":67441461},{"NoteNumber":71,"Velocity":50,"Duration":568289,"SoundDuration":568289,"Delta":67441461},{"NoteNumber":64,"Velocity":42,"Duration":568289,"SoundDuration":568289,"Delta":67441461},{"NoteNumber":40,"Velocity":45,"Duration":568289,"SoundDuration":568289,"Delta":67441461},{"NoteNumber":71,"Velocity":47,"Duration":1045660,"SoundDuration":1045660,"Delta":68009751},{"NoteNumber":64,"Velocity":40,"Duration":1568491,"SoundDuration":1568491,"Delta":68009751},{"NoteNumber":68,"Velocity":40,"Duration":1045660,"SoundDuration":1045660,"Delta":68009751},{"NoteNumber":45,"Velocity":42,"Duration":1568491,"SoundDuration":1568491,"Delta":68009751},{"NoteNumber":73,"Velocity":47,"Duration":522830,"SoundDuration":522830,"Delta":69055412},{"NoteNumber":69,"Velocity":47,"Duration":522830,"SoundDuration":522830,"Delta":69055412},{"NoteNumber":73,"Velocity":75,"Duration":992720,"SoundDuration":992720,"Delta":69578242},{"NoteNumber":69,"Velocity":63,"Duration":992720,"SoundDuration":992720,"Delta":69578242},{"NoteNumber":64,"Velocity":63,"Duration":992720,"SoundDuration":992720,"Delta":69578242},{"NoteNumber":57,"Velocity":57,"Duration":992720,"SoundDuration":992720,"Delta":69578242},{"NoteNumber":45,"Velocity":48,"Duration":992720,"SoundDuration":992720,"Delta":69578242},{"NoteNumber":74,"Velocity":75,"Duration":537153,"SoundDuration":537153,"Delta":70570962},{"NoteNumber":68,"Velocity":63,"Duration":537153,"SoundDuration":537153,"Delta":70570962},{"NoteNumber":64,"Velocity":63,"Duration":537153,"SoundDuration":537153,"Delta":70570962},{"NoteNumber":47,"Velocity":53,"Duration":537153,"SoundDuration":537153,"Delta":70570962},{"NoteNumber":59,"Velocity":63,"Duration":537153,"SoundDuration":537153,"Delta":70570962},{"NoteNumber":64,"Velocity":68,"Duration":1017645,"SoundDuration":1017645,"Delta":71108115},{"NoteNumber":76,"Velocity":80,"Duration":1017645,"SoundDuration":1017645,"Delta":71108115},{"NoteNumber":69,"Velocity":68,"Duration":1017645,"SoundDuration":1017645,"Delta":71108115},{"NoteNumber":49,"Velocity":57,"Duration":1017645,"SoundDuration":1017645,"Delta":71108115},{"NoteNumber":61,"Velocity":69,"Duration":1017645,"SoundDuration":1017645,"Delta":71108115},{"NoteNumber":78,"Velocity":56,"Duration":264923,"SoundDuration":264923,"Delta":72125761},{"NoteNumber":62,"Velocity":38,"Duration":529848,"SoundDuration":529848,"Delta":72125761},{"NoteNumber":50,"Velocity":32,"Duration":529848,"SoundDuration":529848,"Delta":72125761},{"NoteNumber":80,"Velocity":44,"Duration":132462,"SoundDuration":132462,"Delta":72390685},{"NoteNumber":81,"Velocity":46,"Duration":132462,"SoundDuration":132462,"Delta":72523147},{"NoteNumber":69,"Velocity":53,"Duration":1074306,"SoundDuration":1074306,"Delta":72655609},{"NoteNumber":52,"Velocity":34,"Duration":1074306,"SoundDuration":1074306,"Delta":72655609},{"NoteNumber":61,"Velocity":41,"Duration":1074306,"SoundDuration":1074306,"Delta":72655609},{"NoteNumber":68,"Velocity":34,"Duration":594177,"SoundDuration":594177,"Delta":73729915},{"NoteNumber":73,"Velocity":41,"Duration":297088,"SoundDuration":297088,"Delta":73729915},{"NoteNumber":62,"Velocity":40,"Duration":594177,"SoundDuration":594177,"Delta":73729915},{"NoteNumber":52,"Velocity":34,"Duration":594177,"SoundDuration":594177,"Delta":73729915},{"NoteNumber":71,"Velocity":39,"Duration":297088,"SoundDuration":297088,"Delta":74027004},{"NoteNumber":69,"Velocity":39,"Duration":1188354,"SoundDuration":1188354,"Delta":74324092},{"NoteNumber":61,"Velocity":40,"Duration":1188354,"SoundDuration":1188354,"Delta":74324092},{"NoteNumber":57,"Velocity":34,"Duration":1188354,"SoundDuration":1188354,"Delta":74324092},{"NoteNumber":76,"Velocity":50,"Duration":671641,"SoundDuration":671641,"Delta":76106623},{"NoteNumber":57,"Velocity":39,"Duration":447760,"SoundDuration":447760,"Delta":76106623},{"NoteNumber":61,"Velocity":33,"Duration":436979,"SoundDuration":436979,"Delta":76554384},{"NoteNumber":78,"Velocity":45,"Duration":213098,"SoundDuration":213098,"Delta":76778265},{"NoteNumber":76,"Velocity":46,"Duration":484104,"SoundDuration":484104,"Delta":76991363},{"NoteNumber":64,"Velocity":34,"Duration":484104,"SoundDuration":484104,"Delta":76991363},{"NoteNumber":78,"Velocity":53,"Duration":869564,"SoundDuration":869564,"Delta":77475468},{"NoteNumber":57,"Velocity":37,"Duration":434782,"SoundDuration":434782,"Delta":77475468},{"NoteNumber":62,"Velocity":32,"Duration":434782,"SoundDuration":434782,"Delta":77910251},{"NoteNumber":78,"Velocity":42,"Duration":314228,"SoundDuration":314228,"Delta":78345033},{"NoteNumber":66,"Velocity":32,"Duration":502764,"SoundDuration":502764,"Delta":78345033},{"NoteNumber":78,"Velocity":49,"Duration":62845,"SoundDuration":62845,"Delta":78722107},{"NoteNumber":80,"Velocity":53,"Duration":62845,"SoundDuration":62845,"Delta":78784953},{"NoteNumber":81,"Velocity":57,"Duration":681818,"SoundDuration":681818,"Delta":78847798},{"NoteNumber":57,"Velocity":39,"Duration":454545,"SoundDuration":454545,"Delta":78847798},{"NoteNumber":62,"Velocity":33,"Duration":440371,"SoundDuration":440371,"Delta":79302344},{"NoteNumber":80,"Velocity":47,"Duration":213098,"SoundDuration":213098,"Delta":79529617},{"NoteNumber":78,"Velocity":50,"Duration":484104,"SoundDuration":484104,"Delta":79742715},{"NoteNumber":66,"Velocity":34,"Duration":484104,"SoundDuration":484104,"Delta":79742715},{"NoteNumber":78,"Velocity":53,"Duration":450721,"SoundDuration":450721,"Delta":80226820},{"NoteNumber":57,"Velocity":37,"Duration":450721,"SoundDuration":450721,"Delta":80226820},{"NoteNumber":76,"Velocity":45,"Duration":466780,"SoundDuration":466780,"Delta":80677541},{"NoteNumber":61,"Velocity":32,"Duration":466780,"SoundDuration":466780,"Delta":80677541},{"NoteNumber":76,"Velocity":42,"Duration":254625,"SoundDuration":254625,"Delta":81144322},{"NoteNumber":64,"Velocity":32,"Duration":254625,"SoundDuration":254625,"Delta":81144322},{"NoteNumber":76,"Velocity":59,"Duration":422534,"SoundDuration":422534,"Delta":81653574},{"NoteNumber":57,"Velocity":51,"Duration":868101,"SoundDuration":868101,"Delta":81653574},{"NoteNumber":61,"Velocity":51,"Duration":868101,"SoundDuration":868101,"Delta":81653574},{"NoteNumber":73,"Velocity":50,"Duration":445566,"SoundDuration":445566,"Delta":82076109},{"NoteNumber":69,"Velocity":49,"Duration":118091,"SoundDuration":118091,"Delta":82521675},{"NoteNumber":76,"Velocity":61,"Duration":422534,"SoundDuration":422534,"Delta":82994042},{"NoteNumber":62,"Velocity":43,"Duration":868101,"SoundDuration":868101,"Delta":82994042},{"NoteNumber":56,"Velocity":43,"Duration":868101,"SoundDuration":868101,"Delta":82994042},{"NoteNumber":74,"Velocity":53,"Duration":445566,"SoundDuration":445566,"Delta":83416577},{"NoteNumber":71,"Velocity":48,"Duration":118091,"SoundDuration":118091,"Delta":83862143},{"NoteNumber":76,"Velocity":62,"Duration":422534,"SoundDuration":422534,"Delta":84334510},{"NoteNumber":57,"Velocity":50,"Duration":868101,"SoundDuration":868101,"Delta":84334510},{"NoteNumber":61,"Velocity":50,"Duration":868101,"SoundDuration":868101,"Delta":84334510},{"NoteNumber":73,"Velocity":51,"Duration":445566,"SoundDuration":445566,"Delta":84757045},{"NoteNumber":69,"Velocity":45,"Duration":454996,"SoundDuration":454996,"Delta":85202611},{"NoteNumber":63,"Velocity":48,"Duration":454996,"SoundDuration":454996,"Delta":85202611},{"NoteNumber":54,"Velocity":48,"Duration":454996,"SoundDuration":454996,"Delta":85202611},{"NoteNumber":69,"Velocity":44,"Duration":911854,"SoundDuration":911854,"Delta":85698971},{"NoteNumber":73,"Velocity":44,"Duration":911854,"SoundDuration":911854,"Delta":85698971},{"NoteNumber":52,"Velocity":40,"Duration":1415961,"SoundDuration":1415961,"Delta":85698971},{"NoteNumber":64,"Velocity":40,"Duration":1415961,"SoundDuration":1415961,"Delta":85698971},{"NoteNumber":71,"Velocity":37,"Duration":504107,"SoundDuration":504107,"Delta":86610825},{"NoteNumber":68,"Velocity":37,"Duration":504107,"SoundDuration":504107,"Delta":86610825},{"NoteNumber":73,"Velocity":42,"Duration":708549,"SoundDuration":708549,"Delta":87170945},{"NoteNumber":64,"Velocity":32,"Duration":921648,"SoundDuration":921648,"Delta":87170945},{"NoteNumber":57,"Velocity":38,"Duration":708549,"SoundDuration":708549,"Delta":87170945},{"NoteNumber":74,"Velocity":36,"Duration":213098,"SoundDuration":213098,"Delta":87879494},{"NoteNumber":59,"Velocity":29,"Duration":213098,"SoundDuration":213098,"Delta":87879494},{"NoteNumber":73,"Velocity":36,"Duration":509251,"SoundDuration":509251,"Delta":88092593},{"NoteNumber":64,"Velocity":24,"Duration":509251,"SoundDuration":509251,"Delta":88092593},{"NoteNumber":57,"Velocity":29,"Duration":509251,"SoundDuration":509251,"Delta":88092593},{"NoteNumber":76,"Velocity":40,"Duration":944732,"SoundDuration":944732,"Delta":88601844},{"NoteNumber":61,"Velocity":33,"Duration":944732,"SoundDuration":944732,"Delta":88601844},{"NoteNumber":64,"Velocity":29,"Duration":944732,"SoundDuration":944732,"Delta":88601844},{"NoteNumber":76,"Velocity":35,"Duration":483437,"SoundDuration":483437,"Delta":89546577},{"NoteNumber":61,"Velocity":26,"Duration":483437,"SoundDuration":483437,"Delta":89546577},{"NoteNumber":64,"Velocity":23,"Duration":483437,"SoundDuration":483437,"Delta":89546577},{"NoteNumber":71,"Velocity":42,"Duration":691988,"SoundDuration":691988,"Delta":90083730},{"NoteNumber":56,"Velocity":38,"Duration":691988,"SoundDuration":691988,"Delta":90083730},{"NoteNumber":64,"Velocity":32,"Duration":905086,"SoundDuration":905086,"Delta":90083730},{"NoteNumber":73,"Velocity":38,"Duration":213098,"SoundDuration":213098,"Delta":90775719},{"NoteNumber":57,"Velocity":32,"Duration":213098,"SoundDuration":213098,"Delta":90775719},{"NoteNumber":71,"Velocity":38,"Duration":484104,"SoundDuration":484104,"Delta":90988817},{"NoteNumber":56,"Velocity":32,"Duration":484104,"SoundDuration":484104,"Delta":90988817},{"NoteNumber":64,"Velocity":27,"Duration":484104,"SoundDuration":484104,"Delta":90988817},{"NoteNumber":74,"Velocity":41,"Duration":911854,"SoundDuration":911854,"Delta":91472922},{"NoteNumber":59,"Velocity":34,"Duration":911854,"SoundDuration":911854,"Delta":91472922},{"NoteNumber":64,"Velocity":30,"Duration":911854,"SoundDuration":911854,"Delta":91472922},{"NoteNumber":74,"Velocity":38,"Duration":452488,"SoundDuration":452488,"Delta":92384776},{"NoteNumber":59,"Velocity":26,"Duration":452488,"SoundDuration":452488,"Delta":92384776},{"NoteNumber":64,"Velocity":23,"Duration":452488,"SoundDuration":452488,"Delta":92384776},{"NoteNumber":69,"Velocity":55,"Duration":944732,"SoundDuration":944732,"Delta":92887541},{"NoteNumber":64,"Velocity":37,"Duration":944732,"SoundDuration":944732,"Delta":92887541},{"NoteNumber":54,"Velocity":45,"Duration":944732,"SoundDuration":944732,"Delta":92887541},{"NoteNumber":71,"Velocity":63,"Duration":529848,"SoundDuration":529848,"Delta":93832274},{"NoteNumber":64,"Velocity":49,"Duration":529848,"SoundDuration":529848,"Delta":93832274},{"NoteNumber":56,"Velocity":49,"Duration":529848,"SoundDuration":529848,"Delta":93832274},{"NoteNumber":73,"Velocity":68,"Duration":944732,"SoundDuration":944732,"Delta":94362122},{"NoteNumber":64,"Velocity":55,"Duration":944732,"SoundDuration":944732,"Delta":94362122},{"NoteNumber":57,"Velocity":55,"Duration":944732,"SoundDuration":944732,"Delta":94362122},{"NoteNumber":74,"Velocity":67,"Duration":552283,"SoundDuration":552283,"Delta":95306855},{"NoteNumber":71,"Velocity":56,"Duration":552283,"SoundDuration":552283,"Delta":95306855},{"NoteNumber":66,"Velocity":56,"Duration":552283,"SoundDuration":552283,"Delta":95306855},{"NoteNumber":50,"Velocity":55,"Duration":552283,"SoundDuration":552283,"Delta":95306855},{"NoteNumber":69,"Velocity":54,"Duration":956479,"SoundDuration":956479,"Delta":95859138},{"NoteNumber":73,"Velocity":64,"Duration":956479,"SoundDuration":956479,"Delta":95859138},{"NoteNumber":64,"Velocity":54,"Duration":956479,"SoundDuration":956479,"Delta":95859138},{"NoteNumber":52,"Velocity":52,"Duration":956479,"SoundDuration":956479,"Delta":95859138},{"NoteNumber":68,"Velocity":48,"Duration":560119,"SoundDuration":560119,"Delta":96815618},{"NoteNumber":64,"Velocity":48,"Duration":560119,"SoundDuration":560119,"Delta":96815618},{"NoteNumber":71,"Velocity":57,"Duration":560119,"SoundDuration":560119,"Delta":96815618},{"NoteNumber":40,"Velocity":51,"Duration":560119,"SoundDuration":560119,"Delta":96815618},{"NoteNumber":71,"Velocity":61,"Duration":1045660,"SoundDuration":1045660,"Delta":97375738},{"NoteNumber":68,"Velocity":51,"Duration":1045660,"SoundDuration":1045660,"Delta":97375738},{"NoteNumber":64,"Velocity":46,"Duration":1590224,"SoundDuration":1590224,"Delta":97375738},{"NoteNumber":45,"Velocity":48,"Duration":1590224,"SoundDuration":1590224,"Delta":97375738},{"NoteNumber":73,"Velocity":54,"Duration":544563,"SoundDuration":544563,"Delta":98421399},{"NoteNumber":69,"Velocity":54,"Duration":544563,"SoundDuration":544563,"Delta":98421399},{"NoteNumber":64,"Velocity":63,"Duration":1012316,"SoundDuration":1012316,"Delta":98965962},{"NoteNumber":73,"Velocity":75,"Duration":1012316,"SoundDuration":1012316,"Delta":98965962},{"NoteNumber":69,"Velocity":63,"Duration":1012316,"SoundDuration":1012316,"Delta":98965962},{"NoteNumber":57,"Velocity":57,"Duration":1012316,"SoundDuration":1012316,"Delta":98965962},{"NoteNumber":45,"Velocity":48,"Duration":1012316,"SoundDuration":1012316,"Delta":98965962},{"NoteNumber":74,"Velocity":75,"Duration":563274,"SoundDuration":563274,"Delta":99978279},{"NoteNumber":64,"Velocity":63,"Duration":563274,"SoundDuration":563274,"Delta":99978279},{"NoteNumber":68,"Velocity":63,"Duration":563274,"SoundDuration":563274,"Delta":99978279},{"NoteNumber":47,"Velocity":53,"Duration":563274,"SoundDuration":563274,"Delta":99978279},{"NoteNumber":59,"Velocity":63,"Duration":563274,"SoundDuration":563274,"Delta":99978279},{"NoteNumber":64,"Velocity":68,"Duration":1146286,"SoundDuration":1146286,"Delta":100541554},{"NoteNumber":69,"Velocity":68,"Duration":1146286,"SoundDuration":1146286,"Delta":100541554},{"NoteNumber":76,"Velocity":80,"Duration":1146286,"SoundDuration":1146286,"Delta":100541554},{"NoteNumber":49,"Velocity":57,"Duration":1146286,"SoundDuration":1146286,"Delta":100541554},{"NoteNumber":61,"Velocity":69,"Duration":1146286,"SoundDuration":1146286,"Delta":100541554},{"NoteNumber":78,"Velocity":56,"Duration":281637,"SoundDuration":281637,"Delta":101687840},{"NoteNumber":62,"Velocity":38,"Duration":558799,"SoundDuration":558799,"Delta":101687840},{"NoteNumber":50,"Velocity":32,"Duration":558799,"SoundDuration":558799,"Delta":101687840},{"NoteNumber":80,"Velocity":44,"Duration":138580,"SoundDuration":138580,"Delta":101969477},{"NoteNumber":81,"Velocity":46,"Duration":138580,"SoundDuration":138580,"Delta":102108058},{"NoteNumber":69,"Velocity":51,"Duration":1122711,"SoundDuration":1122711,"Delta":102246639},{"NoteNumber":52,"Velocity":32,"Duration":1122711,"SoundDuration":1122711,"Delta":102246639},{"NoteNumber":61,"Velocity":39,"Duration":1122711,"SoundDuration":1122711,"Delta":102246639},{"NoteNumber":68,"Velocity":30,"Duration":671976,"SoundDuration":671976,"Delta":103369350},{"NoteNumber":73,"Velocity":36,"Duration":306122,"SoundDuration":306122,"Delta":103369350},{"NoteNumber":52,"Velocity":30,"Duration":671976,"SoundDuration":671976,"Delta":103369350},{"NoteNumber":62,"Velocity":36,"Duration":671976,"SoundDuration":671976,"Delta":103369350},{"NoteNumber":71,"Velocity":35,"Duration":365853,"SoundDuration":365853,"Delta":103675473},{"NoteNumber":69,"Velocity":35,"Duration":1463414,"SoundDuration":1463414,"Delta":104041326},{"NoteNumber":61,"Velocity":36,"Duration":1463414,"SoundDuration":1463414,"Delta":104041326},{"NoteNumber":57,"Velocity":30,"Duration":1463414,"SoundDuration":1463414,"Delta":104041326},{"NoteNumber":72,"Velocity":50,"Duration":174418,"SoundDuration":174418,"Delta":108668882},{"NoteNumber":73,"Velocity":46,"Duration":150000,"SoundDuration":150000,"Delta":108843300},{"NoteNumber":64,"Velocity":39,"Duration":131594,"SoundDuration":131594,"Delta":109030800},{"NoteNumber":57,"Velocity":30,"Duration":131594,"SoundDuration":131594,"Delta":109030800},{"NoteNumber":73,"Velocity":45,"Duration":178571,"SoundDuration":178571,"Delta":109206259},{"NoteNumber":72,"Velocity":45,"Duration":178571,"SoundDuration":178571,"Delta":109384831},{"NoteNumber":73,"Velocity":46,"Duration":189873,"SoundDuration":189873,"Delta":109563402},{"NoteNumber":75,"Velocity":50,"Duration":170454,"SoundDuration":170454,"Delta":109753276},{"NoteNumber":76,"Velocity":46,"Duration":146341,"SoundDuration":146341,"Delta":109923730},{"NoteNumber":61,"Velocity":30,"Duration":128586,"SoundDuration":128586,"Delta":110106657},{"NoteNumber":64,"Velocity":39,"Duration":128586,"SoundDuration":128586,"Delta":110106657},{"NoteNumber":76,"Velocity":47,"Duration":178571,"SoundDuration":178571,"Delta":110278105},{"NoteNumber":78,"Velocity":50,"Duration":178571,"SoundDuration":178571,"Delta":110456677},{"NoteNumber":76,"Velocity":48,"Duration":176470,"SoundDuration":176470,"Delta":110635248},{"NoteNumber":76,"Velocity":50,"Duration":170454,"SoundDuration":170454,"Delta":110811719},{"NoteNumber":71,"Velocity":47,"Duration":145472,"SoundDuration":145472,"Delta":110982173},{"NoteNumber":56,"Velocity":30,"Duration":142405,"SoundDuration":142405,"Delta":111164014},{"NoteNumber":64,"Velocity":39,"Duration":142405,"SoundDuration":142405,"Delta":111164014},{"NoteNumber":71,"Velocity":48,"Duration":173430,"SoundDuration":173430,"Delta":111353887},{"NoteNumber":70,"Velocity":49,"Duration":176470,"SoundDuration":176470,"Delta":111527318},{"NoteNumber":71,"Velocity":50,"Duration":176470,"SoundDuration":176470,"Delta":111703788},{"NoteNumber":73,"Velocity":51,"Duration":178571,"SoundDuration":178571,"Delta":111880259},{"NoteNumber":74,"Velocity":48,"Duration":144578,"SoundDuration":144578,"Delta":112058830},{"NoteNumber":59,"Velocity":30,"Duration":130072,"SoundDuration":130072,"Delta":112239553},{"NoteNumber":64,"Velocity":39,"Duration":130072,"SoundDuration":130072,"Delta":112239553},{"NoteNumber":74,"Velocity":49,"Duration":178571,"SoundDuration":178571,"Delta":112412984},{"NoteNumber":76,"Velocity":52,"Duration":178571,"SoundDuration":178571,"Delta":112591555},{"NoteNumber":74,"Velocity":50,"Duration":135542,"SoundDuration":135542,"Delta":112770126},{"NoteNumber":74,"Velocity":53,"Duration":168539,"SoundDuration":168539,"Delta":112950849},{"NoteNumber":69,"Velocity":47,"Duration":153846,"SoundDuration":153846,"Delta":113119389},{"NoteNumber":54,"Velocity":34,"Duration":131594,"SoundDuration":131594,"Delta":113311696},{"NoteNumber":64,"Velocity":45,"Duration":131594,"SoundDuration":131594,"Delta":113311696},{"NoteNumber":69,"Velocity":51,"Duration":178571,"SoundDuration":178571,"Delta":113487155},{"NoteNumber":68,"Velocity":52,"Duration":178571,"SoundDuration":178571,"Delta":113665727},{"NoteNumber":69,"Velocity":52,"Duration":189873,"SoundDuration":189873,"Delta":113844298},{"NoteNumber":70,"Velocity":57,"Duration":170454,"SoundDuration":170454,"Delta":114034172},{"NoteNumber":71,"Velocity":50,"Duration":148148,"SoundDuration":148148,"Delta":114204626},{"NoteNumber":64,"Velocity":46,"Duration":138888,"SoundDuration":138888,"Delta":114389812},{"NoteNumber":56,"Velocity":35,"Duration":138888,"SoundDuration":138888,"Delta":114389812},{"NoteNumber":71,"Velocity":52,"Duration":174418,"SoundDuration":174418,"Delta":114574997},{"NoteNumber":70,"Velocity":52,"Duration":174418,"SoundDuration":174418,"Delta":114749416},{"NoteNumber":71,"Velocity":52,"Duration":178571,"SoundDuration":178571,"Delta":114923834},{"NoteNumber":72,"Velocity":61,"Duration":182926,"SoundDuration":182926,"Delta":115102406},{"NoteNumber":64,"Velocity":42,"Duration":737640,"SoundDuration":737640,"Delta":115102406},{"NoteNumber":57,"Velocity":33,"Duration":737640,"SoundDuration":737640,"Delta":115102406},{"NoteNumber":73,"Velocity":56,"Duration":182926,"SoundDuration":182926,"Delta":115285332},{"NoteNumber":72,"Velocity":62,"Duration":197368,"SoundDuration":197368,"Delta":115468259},{"NoteNumber":73,"Velocity":54,"Duration":174418,"SoundDuration":174418,"Delta":115665628},{"NoteNumber":76,"Velocity":62,"Duration":175102,"SoundDuration":175102,"Delta":115840046},{"NoteNumber":54,"Velocity":39,"Duration":352448,"SoundDuration":352448,"Delta":115840046},{"NoteNumber":50,"Velocity":33,"Duration":352448,"SoundDuration":352448,"Delta":115840046},{"NoteNumber":74,"Velocity":53,"Duration":177345,"SoundDuration":177345,"Delta":116015149},{"NoteNumber":73,"Velocity":56,"Duration":180543,"SoundDuration":180543,"Delta":116192494},{"NoteNumber":52,"Velocity":33,"Duration":722712,"SoundDuration":722712,"Delta":116192494},{"NoteNumber":56,"Velocity":42,"Duration":722712,"SoundDuration":722712,"Delta":116192494},{"NoteNumber":71,"Velocity":58,"Duration":180723,"SoundDuration":180723,"Delta":116373038},{"NoteNumber":69,"Velocity":61,"Duration":180723,"SoundDuration":180723,"Delta":116553761},{"NoteNumber":68,"Velocity":64,"Duration":180723,"SoundDuration":180723,"Delta":116734484},{"NoteNumber":66,"Velocity":66,"Duration":180723,"SoundDuration":180723,"Delta":116915207},{"NoteNumber":64,"Velocity":69,"Duration":197368,"SoundDuration":197368,"Delta":117095930},{"NoteNumber":73,"Velocity":77,"Duration":722892,"SoundDuration":722892,"Delta":117293299},{"NoteNumber":69,"Velocity":64,"Duration":722892,"SoundDuration":722892,"Delta":117293299},{"NoteNumber":64,"Velocity":64,"Duration":722892,"SoundDuration":722892,"Delta":117293299},{"NoteNumber":45,"Velocity":65,"Duration":180723,"SoundDuration":180723,"Delta":117293299},{"NoteNumber":57,"Velocity":59,"Duration":135542,"SoundDuration":135542,"Delta":117474022},{"NoteNumber":57,"Velocity":59,"Duration":135542,"SoundDuration":135542,"Delta":117654745},{"NoteNumber":57,"Velocity":59,"Duration":135542,"SoundDuration":135542,"Delta":117835468},{"NoteNumber":74,"Velocity":77,"Duration":375528,"SoundDuration":375528,"Delta":118016191},{"NoteNumber":71,"Velocity":64,"Duration":375528,"SoundDuration":375528,"Delta":118016191},{"NoteNumber":57,"Velocity":59,"Duration":135542,"SoundDuration":135542,"Delta":118016191},{"NoteNumber":57,"Velocity":59,"Duration":146103,"SoundDuration":146103,"Delta":118196914},{"NoteNumber":75,"Velocity":82,"Duration":361446,"SoundDuration":361446,"Delta":118391719},{"NoteNumber":72,"Velocity":69,"Duration":361446,"SoundDuration":361446,"Delta":118391719},{"NoteNumber":45,"Velocity":65,"Duration":180723,"SoundDuration":180723,"Delta":118391719},{"NoteNumber":57,"Velocity":59,"Duration":135542,"SoundDuration":135542,"Delta":118572442},{"NoteNumber":73,"Velocity":66,"Duration":361446,"SoundDuration":361446,"Delta":118753165},{"NoteNumber":76,"Velocity":78,"Duration":361446,"SoundDuration":361446,"Delta":118753165},{"NoteNumber":57,"Velocity":59,"Duration":135542,"SoundDuration":135542,"Delta":118753165},{"NoteNumber":57,"Velocity":58,"Duration":135542,"SoundDuration":135542,"Delta":118933888},{"NoteNumber":57,"Velocity":58,"Duration":135542,"SoundDuration":135542,"Delta":119114611},{"NoteNumber":73,"Velocity":77,"Duration":180723,"SoundDuration":180723,"Delta":119295334},{"NoteNumber":69,"Velocity":64,"Duration":180723,"SoundDuration":180723,"Delta":119295334},{"NoteNumber":57,"Velocity":58,"Duration":135542,"SoundDuration":135542,"Delta":119295334},{"NoteNumber":64,"Velocity":69,"Duration":361446,"SoundDuration":361446,"Delta":119476057},{"NoteNumber":71,"Velocity":82,"Duration":361446,"SoundDuration":361446,"Delta":119476057},{"NoteNumber":68,"Velocity":69,"Duration":361446,"SoundDuration":361446,"Delta":119476057},{"NoteNumber":40,"Velocity":65,"Duration":180723,"SoundDuration":180723,"Delta":119476057},{"NoteNumber":52,"Velocity":57,"Duration":135542,"SoundDuration":135542,"Delta":119656780},{"NoteNumber":71,"Velocity":77,"Duration":361446,"SoundDuration":361446,"Delta":119837503},{"NoteNumber":64,"Velocity":64,"Duration":361446,"SoundDuration":361446,"Delta":119837503},{"NoteNumber":68,"Velocity":64,"Duration":361446,"SoundDuration":361446,"Delta":119837503},{"NoteNumber":52,"Velocity":57,"Duration":135542,"SoundDuration":135542,"Delta":119837503},{"NoteNumber":52,"Velocity":57,"Duration":135542,"SoundDuration":135542,"Delta":120018226},{"NoteNumber":69,"Velocity":68,"Duration":379746,"SoundDuration":379746,"Delta":120198949},{"NoteNumber":73,"Velocity":80,"Duration":379746,"SoundDuration":379746,"Delta":120198949},{"NoteNumber":64,"Velocity":68,"Duration":379746,"SoundDuration":379746,"Delta":120198949},{"NoteNumber":52,"Velocity":57,"Duration":142405,"SoundDuration":142405,"Delta":120198949},{"NoteNumber":52,"Velocity":57,"Duration":142405,"SoundDuration":142405,"Delta":120388822},{"NoteNumber":70,"Velocity":69,"Duration":357142,"SoundDuration":357142,"Delta":120578696},{"NoteNumber":73,"Velocity":82,"Duration":357142,"SoundDuration":357142,"Delta":120578696},{"NoteNumber":64,"Velocity":69,"Duration":714286,"SoundDuration":714286,"Delta":120578696},{"NoteNumber":40,"Velocity":65,"Duration":178571,"SoundDuration":178571,"Delta":120578696},{"NoteNumber":52,"Velocity":58,"Duration":133928,"SoundDuration":133928,"Delta":120757267},{"NoteNumber":71,"Velocity":68,"Duration":357143,"SoundDuration":357143,"Delta":120935839},{"NoteNumber":74,"Velocity":80,"Duration":357143,"SoundDuration":357143,"Delta":120935839},{"NoteNumber":52,"Velocity":58,"Duration":133928,"SoundDuration":133928,"Delta":120935839},{"NoteNumber":52,"Velocity":58,"Duration":133928,"SoundDuration":133928,"Delta":121114410},{"NoteNumber":52,"Velocity":58,"Duration":138888,"SoundDuration":138888,"Delta":121292982},{"NoteNumber":68,"Velocity":59,"Duration":185185,"SoundDuration":185185,"Delta":121478167},{"NoteNumber":71,"Velocity":70,"Duration":185185,"SoundDuration":185185,"Delta":121478167},{"NoteNumber":52,"Velocity":58,"Duration":138888,"SoundDuration":138888,"Delta":121478167},{"NoteNumber":69,"Velocity":76,"Duration":176470,"SoundDuration":176470,"Delta":121663352},{"NoteNumber":42,"Velocity":65,"Duration":176470,"SoundDuration":176470,"Delta":121663352},{"NoteNumber":54,"Velocity":57,"Duration":132352,"SoundDuration":132352,"Delta":121839823},{"NoteNumber":69,"Velocity":70,"Duration":176470,"SoundDuration":176470,"Delta":122016293},{"NoteNumber":54,"Velocity":57,"Duration":132352,"SoundDuration":132352,"Delta":122016293},{"NoteNumber":54,"Velocity":57,"Duration":137195,"SoundDuration":137195,"Delta":122192764},{"NoteNumber":71,"Velocity":70,"Duration":58823,"SoundDuration":58823,"Delta":122375691},{"NoteNumber":44,"Velocity":65,"Duration":176470,"SoundDuration":176470,"Delta":122375691},{"NoteNumber":73,"Velocity":68,"Duration":58823,"SoundDuration":58823,"Delta":122434514},{"NoteNumber":71,"Velocity":68,"Duration":58823,"SoundDuration":58823,"Delta":122493338},{"NoteNumber":69,"Velocity":70,"Duration":88235,"SoundDuration":88235,"Delta":122552161},{"NoteNumber":56,"Velocity":57,"Duration":176470,"SoundDuration":176470,"Delta":122552161},{"NoteNumber":71,"Velocity":70,"Duration":88235,"SoundDuration":88235,"Delta":122640396},{"NoteNumber":73,"Velocity":77,"Duration":176470,"SoundDuration":176470,"Delta":122728632},{"NoteNumber":45,"Velocity":65,"Duration":176470,"SoundDuration":176470,"Delta":122728632},{"NoteNumber":57,"Velocity":58,"Duration":132352,"SoundDuration":132352,"Delta":122905102},{"NoteNumber":73,"Velocity":70,"Duration":185185,"SoundDuration":185185,"Delta":123081573},{"NoteNumber":57,"Velocity":58,"Duration":138888,"SoundDuration":138888,"Delta":123081573},{"NoteNumber":57,"Velocity":59,"Duration":138888,"SoundDuration":138888,"Delta":123266758},{"NoteNumber":71,"Velocity":62,"Duration":352941,"SoundDuration":352941,"Delta":123451943},{"NoteNumber":66,"Velocity":62,"Duration":352941,"SoundDuration":352941,"Delta":123451943},{"NoteNumber":74,"Velocity":73,"Duration":352941,"SoundDuration":352941,"Delta":123451943},{"NoteNumber":38,"Velocity":65,"Duration":176470,"SoundDuration":176470,"Delta":123451943},{"NoteNumber":50,"Velocity":59,"Duration":176470,"SoundDuration":176470,"Delta":123628414},{"NoteNumber":69,"Velocity":64,"Duration":352941,"SoundDuration":352941,"Delta":123804884},{"NoteNumber":64,"Velocity":64,"Duration":352941,"SoundDuration":352941,"Delta":123804884},{"NoteNumber":73,"Velocity":76,"Duration":352941,"SoundDuration":352941,"Delta":123804884},{"NoteNumber":40,"Velocity":65,"Duration":176470,"SoundDuration":176470,"Delta":123804884},{"NoteNumber":52,"Velocity":58,"Duration":132352,"SoundDuration":132352,"Delta":123981355},{"NoteNumber":69,"Velocity":62,"Duration":375000,"SoundDuration":375000,"Delta":124157825},{"NoteNumber":73,"Velocity":74,"Duration":375000,"SoundDuration":375000,"Delta":124157825},{"NoteNumber":64,"Velocity":62,"Duration":375000,"SoundDuration":375000,"Delta":124157825},{"NoteNumber":52,"Velocity":58,"Duration":140625,"SoundDuration":140625,"Delta":124157825},{"NoteNumber":52,"Velocity":58,"Duration":140625,"SoundDuration":140625,"Delta":124345325},{"NoteNumber":71,"Velocity":72,"Duration":375000,"SoundDuration":375000,"Delta":124532825},{"NoteNumber":62,"Velocity":61,"Duration":375000,"SoundDuration":375000,"Delta":124532825},{"NoteNumber":68,"Velocity":61,"Duration":375000,"SoundDuration":375000,"Delta":124532825},{"NoteNumber":64,"Velocity":61,"Duration":375000,"SoundDuration":375000,"Delta":124532825},{"NoteNumber":40,"Velocity":65,"Duration":187500,"SoundDuration":187500,"Delta":124532825},{"NoteNumber":52,"Velocity":56,"Duration":187500,"SoundDuration":187500,"Delta":124720325},{"NoteNumber":69,"Velocity":76,"Duration":375000,"SoundDuration":375000,"Delta":124907825},{"NoteNumber":61,"Velocity":64,"Duration":375000,"SoundDuration":375000,"Delta":124907825},{"NoteNumber":64,"Velocity":64,"Duration":375000,"SoundDuration":375000,"Delta":124907825},{"NoteNumber":33,"Velocity":75,"Duration":375000,"SoundDuration":375000,"Delta":124907825},{"NoteNumber":45,"Velocity":67,"Duration":375000,"SoundDuration":375000,"Delta":125282825},{"NoteNumber":72,"Velocity":50,"Duration":174418,"SoundDuration":174418,"Delta":126032825},{"NoteNumber":73,"Velocity":46,"Duration":141176,"SoundDuration":141176,"Delta":126207244},{"NoteNumber":57,"Velocity":30,"Duration":135542,"SoundDuration":135542,"Delta":126383714},{"NoteNumber":64,"Velocity":39,"Duration":135542,"SoundDuration":135542,"Delta":126383714},{"NoteNumber":73,"Velocity":45,"Duration":178571,"SoundDuration":178571,"Delta":126564437},{"NoteNumber":72,"Velocity":45,"Duration":178571,"SoundDuration":178571,"Delta":126743009},{"NoteNumber":73,"Velocity":46,"Duration":180723,"SoundDuration":180723,"Delta":126921580},{"NoteNumber":75,"Velocity":50,"Duration":185185,"SoundDuration":185185,"Delta":127102303},{"NoteNumber":76,"Velocity":46,"Duration":146341,"SoundDuration":146341,"Delta":127287488},{"NoteNumber":61,"Velocity":30,"Duration":130072,"SoundDuration":130072,"Delta":127470415},{"NoteNumber":64,"Velocity":39,"Duration":130072,"SoundDuration":130072,"Delta":127470415},{"NoteNumber":76,"Velocity":47,"Duration":178571,"SoundDuration":178571,"Delta":127643846},{"NoteNumber":78,"Velocity":50,"Duration":178571,"SoundDuration":178571,"Delta":127822417},{"NoteNumber":76,"Velocity":48,"Duration":185185,"SoundDuration":185185,"Delta":128000989},{"NoteNumber":76,"Velocity":50,"Duration":170454,"SoundDuration":170454,"Delta":128186174},{"NoteNumber":71,"Velocity":47,"Duration":148148,"SoundDuration":148148,"Delta":128356628},{"NoteNumber":56,"Velocity":30,"Duration":135542,"SoundDuration":135542,"Delta":128541814},{"NoteNumber":64,"Velocity":39,"Duration":135542,"SoundDuration":135542,"Delta":128541814},{"NoteNumber":71,"Velocity":48,"Duration":180723,"SoundDuration":180723,"Delta":128722537},{"NoteNumber":70,"Velocity":49,"Duration":176470,"SoundDuration":176470,"Delta":128903260},{"NoteNumber":71,"Velocity":50,"Duration":182926,"SoundDuration":182926,"Delta":129079730},{"NoteNumber":73,"Velocity":51,"Duration":187500,"SoundDuration":187500,"Delta":129262657},{"NoteNumber":74,"Velocity":48,"Duration":151898,"SoundDuration":151898,"Delta":129450157},{"NoteNumber":59,"Velocity":30,"Duration":128586,"SoundDuration":128586,"Delta":129640030},{"NoteNumber":64,"Velocity":39,"Duration":128586,"SoundDuration":128586,"Delta":129640030},{"NoteNumber":74,"Velocity":49,"Duration":178571,"SoundDuration":178571,"Delta":129811479},{"NoteNumber":76,"Velocity":52,"Duration":178571,"SoundDuration":178571,"Delta":129990050},{"NoteNumber":74,"Velocity":50,"Duration":135542,"SoundDuration":135542,"Delta":130168622},{"NoteNumber":74,"Velocity":53,"Duration":176470,"SoundDuration":176470,"Delta":130349345},{"NoteNumber":69,"Velocity":47,"Duration":153846,"SoundDuration":153846,"Delta":130525815},{"NoteNumber":54,"Velocity":34,"Duration":130072,"SoundDuration":130072,"Delta":130718123},{"NoteNumber":64,"Velocity":45,"Duration":130072,"SoundDuration":130072,"Delta":130718123},{"NoteNumber":69,"Velocity":51,"Duration":178571,"SoundDuration":178571,"Delta":130891553},{"NoteNumber":68,"Velocity":52,"Duration":178571,"SoundDuration":178571,"Delta":131070125},{"NoteNumber":69,"Velocity":52,"Duration":187500,"SoundDuration":187500,"Delta":131248696},{"NoteNumber":70,"Velocity":57,"Duration":170454,"SoundDuration":170454,"Delta":131436196},{"NoteNumber":71,"Velocity":50,"Duration":148148,"SoundDuration":148148,"Delta":131606651},{"NoteNumber":64,"Velocity":46,"Duration":128586,"SoundDuration":128586,"Delta":131791836},{"NoteNumber":56,"Velocity":35,"Duration":128586,"SoundDuration":128586,"Delta":131791836},{"NoteNumber":71,"Velocity":52,"Duration":174418,"SoundDuration":174418,"Delta":131963284},{"NoteNumber":70,"Velocity":52,"Duration":174418,"SoundDuration":174418,"Delta":132137703},{"NoteNumber":71,"Velocity":52,"Duration":180723,"SoundDuration":180723,"Delta":132312121},{"NoteNumber":72,"Velocity":61,"Duration":182926,"SoundDuration":182926,"Delta":132492844},{"NoteNumber":64,"Velocity":42,"Duration":735077,"SoundDuration":735077,"Delta":132492844},{"NoteNumber":57,"Velocity":33,"Duration":735077,"SoundDuration":735077,"Delta":132492844},{"NoteNumber":73,"Velocity":56,"Duration":182926,"SoundDuration":182926,"Delta":132675771},{"NoteNumber":72,"Velocity":62,"Duration":194805,"SoundDuration":194805,"Delta":132858698},{"NoteNumber":73,"Velocity":54,"Duration":174418,"SoundDuration":174418,"Delta":133053503},{"NoteNumber":76,"Velocity":62,"Duration":175102,"SoundDuration":175102,"Delta":133227922},{"NoteNumber":54,"Velocity":39,"Duration":352448,"SoundDuration":352448,"Delta":133227922},{"NoteNumber":50,"Velocity":33,"Duration":352448,"SoundDuration":352448,"Delta":133227922},{"NoteNumber":74,"Velocity":53,"Duration":177345,"SoundDuration":177345,"Delta":133403024},{"NoteNumber":73,"Velocity":56,"Duration":180543,"SoundDuration":180543,"Delta":133580370},{"NoteNumber":56,"Velocity":42,"Duration":722712,"SoundDuration":722712,"Delta":133580370},{"NoteNumber":52,"Velocity":33,"Duration":722712,"SoundDuration":722712,"Delta":133580370},{"NoteNumber":71,"Velocity":58,"Duration":180723,"SoundDuration":180723,"Delta":133760914},{"NoteNumber":69,"Velocity":61,"Duration":180723,"SoundDuration":180723,"Delta":133941637},{"NoteNumber":68,"Velocity":64,"Duration":180723,"SoundDuration":180723,"Delta":134122360},{"NoteNumber":66,"Velocity":66,"Duration":180723,"SoundDuration":180723,"Delta":134303083},{"NoteNumber":64,"Velocity":69,"Duration":197368,"SoundDuration":197368,"Delta":134483806},{"NoteNumber":64,"Velocity":64,"Duration":722892,"SoundDuration":722892,"Delta":134681174},{"NoteNumber":73,"Velocity":77,"Duration":722892,"SoundDuration":722892,"Delta":134681174},{"NoteNumber":69,"Velocity":64,"Duration":722892,"SoundDuration":722892,"Delta":134681174},{"NoteNumber":45,"Velocity":65,"Duration":180723,"SoundDuration":180723,"Delta":134681174},{"NoteNumber":57,"Velocity":59,"Duration":135542,"SoundDuration":135542,"Delta":134861897},{"NoteNumber":57,"Velocity":59,"Duration":135542,"SoundDuration":135542,"Delta":135042620},{"NoteNumber":57,"Velocity":59,"Duration":135542,"SoundDuration":135542,"Delta":135223343},{"NoteNumber":71,"Velocity":64,"Duration":375528,"SoundDuration":375528,"Delta":135404066},{"NoteNumber":74,"Velocity":77,"Duration":375528,"SoundDuration":375528,"Delta":135404066},{"NoteNumber":57,"Velocity":59,"Duration":135542,"SoundDuration":135542,"Delta":135404066},{"NoteNumber":57,"Velocity":59,"Duration":146103,"SoundDuration":146103,"Delta":135584789},{"NoteNumber":75,"Velocity":82,"Duration":361446,"SoundDuration":361446,"Delta":135779594},{"NoteNumber":72,"Velocity":69,"Duration":361446,"SoundDuration":361446,"Delta":135779594},{"NoteNumber":45,"Velocity":65,"Duration":180723,"SoundDuration":180723,"Delta":135779594},{"NoteNumber":57,"Velocity":59,"Duration":135542,"SoundDuration":135542,"Delta":135960317},{"NoteNumber":73,"Velocity":66,"Duration":361446,"SoundDuration":361446,"Delta":136141040},{"NoteNumber":76,"Velocity":78,"Duration":361446,"SoundDuration":361446,"Delta":136141040},{"NoteNumber":57,"Velocity":59,"Duration":135542,"SoundDuration":135542,"Delta":136141040},{"NoteNumber":57,"Velocity":58,"Duration":135542,"SoundDuration":135542,"Delta":136321763},{"NoteNumber":57,"Velocity":58,"Duration":135542,"SoundDuration":135542,"Delta":136502486},{"NoteNumber":69,"Velocity":64,"Duration":180723,"SoundDuration":180723,"Delta":136683209},{"NoteNumber":73,"Velocity":77,"Duration":180723,"SoundDuration":180723,"Delta":136683209},{"NoteNumber":57,"Velocity":58,"Duration":135542,"SoundDuration":135542,"Delta":136683209},{"NoteNumber":68,"Velocity":69,"Duration":361446,"SoundDuration":361446,"Delta":136863932},{"NoteNumber":71,"Velocity":82,"Duration":361446,"SoundDuration":361446,"Delta":136863932},{"NoteNumber":64,"Velocity":69,"Duration":361446,"SoundDuration":361446,"Delta":136863932},{"NoteNumber":40,"Velocity":65,"Duration":180723,"SoundDuration":180723,"Delta":136863932},{"NoteNumber":52,"Velocity":57,"Duration":135542,"SoundDuration":135542,"Delta":137044655},{"NoteNumber":71,"Velocity":77,"Duration":361446,"SoundDuration":361446,"Delta":137225378},{"NoteNumber":64,"Velocity":64,"Duration":361446,"SoundDuration":361446,"Delta":137225378},{"NoteNumber":68,"Velocity":64,"Duration":361446,"SoundDuration":361446,"Delta":137225378},{"NoteNumber":52,"Velocity":57,"Duration":135542,"SoundDuration":135542,"Delta":137225378},{"NoteNumber":52,"Velocity":57,"Duration":135542,"SoundDuration":135542,"Delta":137406101},{"NoteNumber":64,"Velocity":68,"Duration":379747,"SoundDuration":379747,"Delta":137586824},{"NoteNumber":69,"Velocity":68,"Duration":379747,"SoundDuration":379747,"Delta":137586824},{"NoteNumber":73,"Velocity":80,"Duration":379747,"SoundDuration":379747,"Delta":137586824},{"NoteNumber":52,"Velocity":57,"Duration":142405,"SoundDuration":142405,"Delta":137586824},{"NoteNumber":52,"Velocity":57,"Duration":142405,"SoundDuration":142405,"Delta":137776698},{"NoteNumber":64,"Velocity":69,"Duration":714285,"SoundDuration":714285,"Delta":137966572},{"NoteNumber":73,"Velocity":82,"Duration":357143,"SoundDuration":357143,"Delta":137966572},{"NoteNumber":70,"Velocity":69,"Duration":357143,"SoundDuration":357143,"Delta":137966572},{"NoteNumber":40,"Velocity":65,"Duration":178571,"SoundDuration":178571,"Delta":137966572},{"NoteNumber":52,"Velocity":58,"Duration":133928,"SoundDuration":133928,"Delta":138145143},{"NoteNumber":74,"Velocity":80,"Duration":357142,"SoundDuration":357142,"Delta":138323715},{"NoteNumber":71,"Velocity":68,"Duration":357142,"SoundDuration":357142,"Delta":138323715},{"NoteNumber":52,"Velocity":58,"Duration":133928,"SoundDuration":133928,"Delta":138323715},{"NoteNumber":52,"Velocity":58,"Duration":133928,"SoundDuration":133928,"Delta":138502286},{"NoteNumber":52,"Velocity":58,"Duration":138888,"SoundDuration":138888,"Delta":138680857},{"NoteNumber":68,"Velocity":59,"Duration":185185,"SoundDuration":185185,"Delta":138866043},{"NoteNumber":71,"Velocity":70,"Duration":185185,"SoundDuration":185185,"Delta":138866043},{"NoteNumber":52,"Velocity":58,"Duration":138888,"SoundDuration":138888,"Delta":138866043},{"NoteNumber":69,"Velocity":76,"Duration":176470,"SoundDuration":176470,"Delta":139051228},{"NoteNumber":42,"Velocity":65,"Duration":176470,"SoundDuration":176470,"Delta":139051228},{"NoteNumber":54,"Velocity":57,"Duration":132352,"SoundDuration":132352,"Delta":139227698},{"NoteNumber":69,"Velocity":70,"Duration":176470,"SoundDuration":176470,"Delta":139404169},{"NoteNumber":54,"Velocity":57,"Duration":132352,"SoundDuration":132352,"Delta":139404169},{"NoteNumber":54,"Velocity":57,"Duration":137195,"SoundDuration":137195,"Delta":139580640},{"NoteNumber":71,"Velocity":70,"Duration":58823,"SoundDuration":58823,"Delta":139763566},{"NoteNumber":44,"Velocity":65,"Duration":176470,"SoundDuration":176470,"Delta":139763566},{"NoteNumber":73,"Velocity":68,"Duration":58823,"SoundDuration":58823,"Delta":139822390},{"NoteNumber":71,"Velocity":68,"Duration":58823,"SoundDuration":58823,"Delta":139881213},{"NoteNumber":69,"Velocity":70,"Duration":88235,"SoundDuration":88235,"Delta":139940037},{"NoteNumber":56,"Velocity":57,"Duration":176470,"SoundDuration":176470,"Delta":139940037},{"NoteNumber":71,"Velocity":70,"Duration":88235,"SoundDuration":88235,"Delta":140028272},{"NoteNumber":73,"Velocity":77,"Duration":176470,"SoundDuration":176470,"Delta":140116507},{"NoteNumber":45,"Velocity":65,"Duration":176470,"SoundDuration":176470,"Delta":140116507},{"NoteNumber":57,"Velocity":58,"Duration":132352,"SoundDuration":132352,"Delta":140292978},{"NoteNumber":73,"Velocity":70,"Duration":185185,"SoundDuration":185185,"Delta":140469448},{"NoteNumber":57,"Velocity":58,"Duration":138888,"SoundDuration":138888,"Delta":140469448},{"NoteNumber":57,"Velocity":59,"Duration":138888,"SoundDuration":138888,"Delta":140654634},{"NoteNumber":74,"Velocity":73,"Duration":352940,"SoundDuration":352940,"Delta":140839819},{"NoteNumber":71,"Velocity":62,"Duration":352940,"SoundDuration":352940,"Delta":140839819},{"NoteNumber":66,"Velocity":62,"Duration":352940,"SoundDuration":352940,"Delta":140839819},{"NoteNumber":38,"Velocity":65,"Duration":176470,"SoundDuration":176470,"Delta":140839819},{"NoteNumber":50,"Velocity":59,"Duration":176470,"SoundDuration":176470,"Delta":141016289},{"NoteNumber":73,"Velocity":76,"Duration":352941,"SoundDuration":352941,"Delta":141192760},{"NoteNumber":69,"Velocity":64,"Duration":352941,"SoundDuration":352941,"Delta":141192760},{"NoteNumber":64,"Velocity":64,"Duration":352941,"SoundDuration":352941,"Delta":141192760},{"NoteNumber":40,"Velocity":65,"Duration":176470,"SoundDuration":176470,"Delta":141192760},{"NoteNumber":52,"Velocity":58,"Duration":132352,"SoundDuration":132352,"Delta":141369230},{"NoteNumber":64,"Velocity":62,"Duration":375000,"SoundDuration":375000,"Delta":141545701},{"NoteNumber":73,"Velocity":74,"Duration":375000,"SoundDuration":375000,"Delta":141545701},{"NoteNumber":69,"Velocity":62,"Duration":375000,"SoundDuration":375000,"Delta":141545701},{"NoteNumber":52,"Velocity":58,"Duration":140625,"SoundDuration":140625,"Delta":141545701},{"NoteNumber":52,"Velocity":58,"Duration":140625,"SoundDuration":140625,"Delta":141733201},{"NoteNumber":62,"Velocity":61,"Duration":375000,"SoundDuration":375000,"Delta":141920701},{"NoteNumber":64,"Velocity":61,"Duration":375000,"SoundDuration":375000,"Delta":141920701},{"NoteNumber":68,"Velocity":61,"Duration":375000,"SoundDuration":375000,"Delta":141920701},{"NoteNumber":71,"Velocity":72,"Duration":375000,"SoundDuration":375000,"Delta":141920701},{"NoteNumber":40,"Velocity":65,"Duration":187500,"SoundDuration":187500,"Delta":141920701},{"NoteNumber":52,"Velocity":56,"Duration":187500,"SoundDuration":187500,"Delta":142108201},{"NoteNumber":61,"Velocity":64,"Duration":375000,"SoundDuration":375000,"Delta":142295701},{"NoteNumber":64,"Velocity":64,"Duration":375000,"SoundDuration":375000,"Delta":142295701},{"NoteNumber":69,"Velocity":76,"Duration":375000,"SoundDuration":375000,"Delta":142295701},{"NoteNumber":33,"Velocity":75,"Duration":375000,"SoundDuration":375000,"Delta":142295701},{"NoteNumber":45,"Velocity":67,"Duration":375000,"SoundDuration":375000,"Delta":142670701},{"NoteNumber":75,"Velocity":50,"Duration":174418,"SoundDuration":174418,"Delta":143420701},{"NoteNumber":76,"Velocity":46,"Duration":150000,"SoundDuration":150000,"Delta":143595119},{"NoteNumber":61,"Velocity":39,"Duration":130072,"SoundDuration":130072,"Delta":143782619},{"NoteNumber":57,"Velocity":30,"Duration":130072,"SoundDuration":130072,"Delta":143782619},{"NoteNumber":76,"Velocity":45,"Duration":178571,"SoundDuration":178571,"Delta":143956050},{"NoteNumber":75,"Velocity":45,"Duration":178571,"SoundDuration":178571,"Delta":144134621},{"NoteNumber":76,"Velocity":46,"Duration":189873,"SoundDuration":189873,"Delta":144313193},{"NoteNumber":77,"Velocity":50,"Duration":170454,"SoundDuration":170454,"Delta":144503066},{"NoteNumber":78,"Velocity":46,"Duration":146341,"SoundDuration":146341,"Delta":144673521},{"NoteNumber":57,"Velocity":30,"Duration":130072,"SoundDuration":130072,"Delta":144856448},{"NoteNumber":62,"Velocity":39,"Duration":130072,"SoundDuration":130072,"Delta":144856448},{"NoteNumber":78,"Velocity":47,"Duration":178571,"SoundDuration":178571,"Delta":145029878},{"NoteNumber":77,"Velocity":50,"Duration":178571,"SoundDuration":178571,"Delta":145208450},{"NoteNumber":78,"Velocity":48,"Duration":176470,"SoundDuration":176470,"Delta":145387021},{"NoteNumber":80,"Velocity":55,"Duration":177535,"SoundDuration":177535,"Delta":145563492},{"NoteNumber":66,"Velocity":31,"Duration":133151,"SoundDuration":133151,"Delta":145563492},{"NoteNumber":57,"Velocity":26,"Duration":133151,"SoundDuration":133151,"Delta":145563492},{"NoteNumber":81,"Velocity":47,"Duration":145472,"SoundDuration":145472,"Delta":145741027},{"NoteNumber":79,"Velocity":55,"Duration":174418,"SoundDuration":174418,"Delta":145922868},{"NoteNumber":57,"Velocity":24,"Duration":130813,"SoundDuration":130813,"Delta":145922868},{"NoteNumber":64,"Velocity":29,"Duration":130813,"SoundDuration":130813,"Delta":145922868},{"NoteNumber":80,"Velocity":48,"Duration":149086,"SoundDuration":149086,"Delta":146097286},{"NoteNumber":77,"Velocity":55,"Duration":176470,"SoundDuration":176470,"Delta":146283645},{"NoteNumber":57,"Velocity":24,"Duration":132352,"SoundDuration":132352,"Delta":146283645},{"NoteNumber":62,"Velocity":29,"Duration":132352,"SoundDuration":132352,"Delta":146283645},{"NoteNumber":78,"Velocity":47,"Duration":144578,"SoundDuration":144578,"Delta":146460115},{"NoteNumber":75,"Velocity":55,"Duration":182926,"SoundDuration":182926,"Delta":146640838},{"NoteNumber":76,"Velocity":46,"Duration":150000,"SoundDuration":150000,"Delta":146823765},{"NoteNumber":61,"Velocity":37,"Duration":140625,"SoundDuration":140625,"Delta":147011265},{"NoteNumber":57,"Velocity":31,"Duration":140625,"SoundDuration":140625,"Delta":147011265},{"NoteNumber":76,"Velocity":55,"Duration":166666,"SoundDuration":166666,"Delta":147198765},{"NoteNumber":76,"Velocity":57,"Duration":166666,"SoundDuration":166666,"Delta":147383950},{"NoteNumber":76,"Velocity":58,"Duration":180000,"SoundDuration":180000,"Delta":147569135},{"NoteNumber":76,"Velocity":72,"Duration":185185,"SoundDuration":185185,"Delta":147769135},{"NoteNumber":57,"Velocity":46,"Duration":1123294,"SoundDuration":1123294,"Delta":147769135},{"NoteNumber":64,"Velocity":55,"Duration":1123294,"SoundDuration":1123294,"Delta":147769135},{"NoteNumber":61,"Velocity":46,"Duration":1123294,"SoundDuration":1123294,"Delta":147769135},{"NoteNumber":73,"Velocity":64,"Duration":185185,"SoundDuration":185185,"Delta":147954321},{"NoteNumber":69,"Velocity":59,"Duration":185185,"SoundDuration":185185,"Delta":148139506},{"NoteNumber":76,"Velocity":57,"Duration":166666,"SoundDuration":166666,"Delta":148324691},{"NoteNumber":76,"Velocity":59,"Duration":166666,"SoundDuration":166666,"Delta":148509876},{"NoteNumber":76,"Velocity":61,"Duration":177631,"SoundDuration":177631,"Delta":148695062},{"NoteNumber":76,"Velocity":70,"Duration":185185,"SoundDuration":185185,"Delta":148892430},{"NoteNumber":64,"Velocity":51,"Duration":1123294,"SoundDuration":1123294,"Delta":148892430},{"NoteNumber":59,"Velocity":43,"Duration":1123294,"SoundDuration":1123294,"Delta":148892430},{"NoteNumber":62,"Velocity":43,"Duration":1123294,"SoundDuration":1123294,"Delta":148892430},{"NoteNumber":74,"Velocity":62,"Duration":185185,"SoundDuration":185185,"Delta":149077615},{"NoteNumber":68,"Velocity":58,"Duration":185185,"SoundDuration":185185,"Delta":149262801},{"NoteNumber":76,"Velocity":59,"Duration":166666,"SoundDuration":166666,"Delta":149447986},{"NoteNumber":76,"Velocity":62,"Duration":166666,"SoundDuration":166666,"Delta":149633171},{"NoteNumber":76,"Velocity":64,"Duration":177631,"SoundDuration":177631,"Delta":149818356},{"NoteNumber":76,"Velocity":69,"Duration":185185,"SoundDuration":185185,"Delta":150015725},{"NoteNumber":64,"Velocity":59,"Duration":769137,"SoundDuration":769137,"Delta":150015725},{"NoteNumber":61,"Velocity":50,"Duration":769137,"SoundDuration":769137,"Delta":150015725},{"NoteNumber":73,"Velocity":63,"Duration":185185,"SoundDuration":185185,"Delta":150200910},{"NoteNumber":69,"Velocity":48,"Duration":211267,"SoundDuration":211267,"Delta":150386095},{"NoteNumber":76,"Velocity":52,"Duration":187500,"SoundDuration":187500,"Delta":150597363},{"NoteNumber":73,"Velocity":51,"Duration":194805,"SoundDuration":194805,"Delta":150784863},{"NoteNumber":57,"Velocity":26,"Duration":412196,"SoundDuration":412196,"Delta":150784863},{"NoteNumber":54,"Velocity":26,"Duration":412196,"SoundDuration":412196,"Delta":150784863},{"NoteNumber":63,"Velocity":31,"Duration":412196,"SoundDuration":412196,"Delta":150784863},{"NoteNumber":69,"Velocity":49,"Duration":217391,"SoundDuration":217391,"Delta":150979668},{"NoteNumber":73,"Velocity":51,"Duration":810811,"SoundDuration":810811,"Delta":151197059},{"NoteNumber":69,"Velocity":43,"Duration":810811,"SoundDuration":810811,"Delta":151197059},{"NoteNumber":64,"Velocity":40,"Duration":1216216,"SoundDuration":1216216,"Delta":151197059},{"NoteNumber":52,"Velocity":34,"Duration":1216216,"SoundDuration":1216216,"Delta":151197059},{"NoteNumber":71,"Velocity":47,"Duration":405405,"SoundDuration":405405,"Delta":152007870},{"NoteNumber":68,"Velocity":39,"Duration":405405,"SoundDuration":405405,"Delta":152007870},{"NoteNumber":72,"Velocity":50,"Duration":174418,"SoundDuration":174418,"Delta":152413276},{"NoteNumber":73,"Velocity":46,"Duration":150000,"SoundDuration":150000,"Delta":152587694},{"NoteNumber":57,"Velocity":30,"Duration":130072,"SoundDuration":130072,"Delta":152775194},{"NoteNumber":64,"Velocity":39,"Duration":130072,"SoundDuration":130072,"Delta":152775194},{"NoteNumber":73,"Velocity":45,"Duration":178571,"SoundDuration":178571,"Delta":152948625},{"NoteNumber":72,"Velocity":45,"Duration":178571,"SoundDuration":178571,"Delta":153127196},{"NoteNumber":73,"Velocity":46,"Duration":202702,"SoundDuration":202702,"Delta":153305768},{"NoteNumber":75,"Velocity":50,"Duration":170454,"SoundDuration":170454,"Delta":153508471},{"NoteNumber":76,"Velocity":46,"Duration":139534,"SoundDuration":139534,"Delta":153678925},{"NoteNumber":64,"Velocity":39,"Duration":133928,"SoundDuration":133928,"Delta":153853344},{"NoteNumber":61,"Velocity":30,"Duration":133928,"SoundDuration":133928,"Delta":153853344},{"NoteNumber":76,"Velocity":47,"Duration":178571,"SoundDuration":178571,"Delta":154031915},{"NoteNumber":78,"Velocity":50,"Duration":178571,"SoundDuration":178571,"Delta":154210487},{"NoteNumber":76,"Velocity":48,"Duration":138888,"SoundDuration":138888,"Delta":154389058},{"NoteNumber":76,"Velocity":50,"Duration":170454,"SoundDuration":170454,"Delta":154574243},{"NoteNumber":71,"Velocity":47,"Duration":151898,"SoundDuration":151898,"Delta":154744698},{"NoteNumber":64,"Velocity":44,"Duration":135542,"SoundDuration":135542,"Delta":154934571},{"NoteNumber":56,"Velocity":34,"Duration":135542,"SoundDuration":135542,"Delta":154934571},{"NoteNumber":71,"Velocity":48,"Duration":180723,"SoundDuration":180723,"Delta":155115294},{"NoteNumber":70,"Velocity":49,"Duration":180723,"SoundDuration":180723,"Delta":155296017},{"NoteNumber":71,"Velocity":50,"Duration":187500,"SoundDuration":187500,"Delta":155476740},{"NoteNumber":73,"Velocity":51,"Duration":182926,"SoundDuration":182926,"Delta":155664240},{"NoteNumber":74,"Velocity":48,"Duration":153846,"SoundDuration":153846,"Delta":155847167},{"NoteNumber":64,"Velocity":44,"Duration":144230,"SoundDuration":144230,"Delta":156039475},{"NoteNumber":59,"Velocity":34,"Duration":144230,"SoundDuration":144230,"Delta":156039475},{"NoteNumber":74,"Velocity":49,"Duration":178571,"SoundDuration":178571,"Delta":156231783},{"NoteNumber":76,"Velocity":52,"Duration":178571,"SoundDuration":178571,"Delta":156410354},{"NoteNumber":74,"Velocity":50,"Duration":146103,"SoundDuration":146103,"Delta":156588926},{"NoteNumber":74,"Velocity":53,"Duration":168539,"SoundDuration":168539,"Delta":156783731},{"NoteNumber":69,"Velocity":47,"Duration":153846,"SoundDuration":153846,"Delta":156952270},{"NoteNumber":54,"Velocity":45,"Duration":368445,"SoundDuration":368445,"Delta":157144578},{"NoteNumber":64,"Velocity":53,"Duration":368445,"SoundDuration":368445,"Delta":157144578},{"NoteNumber":69,"Velocity":51,"Duration":178571,"SoundDuration":178571,"Delta":157334451},{"NoteNumber":73,"Velocity":52,"Duration":178571,"SoundDuration":178571,"Delta":157513023},{"NoteNumber":56,"Velocity":43,"Duration":355041,"SoundDuration":355041,"Delta":157513023},{"NoteNumber":64,"Velocity":51,"Duration":355041,"SoundDuration":355041,"Delta":157513023},{"NoteNumber":71,"Velocity":52,"Duration":176470,"SoundDuration":176470,"Delta":157691594},{"NoteNumber":74,"Velocity":57,"Duration":170454,"SoundDuration":170454,"Delta":157868065},{"NoteNumber":73,"Velocity":50,"Duration":148148,"SoundDuration":148148,"Delta":158038519},{"NoteNumber":56,"Velocity":45,"Duration":359603,"SoundDuration":359603,"Delta":158223705},{"NoteNumber":64,"Velocity":53,"Duration":359603,"SoundDuration":359603,"Delta":158223705},{"NoteNumber":73,"Velocity":52,"Duration":174418,"SoundDuration":174418,"Delta":158408890},{"NoteNumber":76,"Velocity":57,"Duration":178571,"SoundDuration":178571,"Delta":158583308},{"NoteNumber":59,"Velocity":52,"Duration":370879,"SoundDuration":370879,"Delta":158583308},{"NoteNumber":50,"Velocity":44,"Duration":370879,"SoundDuration":370879,"Delta":158583308},{"NoteNumber":74,"Velocity":54,"Duration":192307,"SoundDuration":192307,"Delta":158761880},{"NoteNumber":72,"Velocity":60,"Duration":178571,"SoundDuration":178571,"Delta":158954188},{"NoteNumber":73,"Velocity":54,"Duration":153846,"SoundDuration":153846,"Delta":159132759},{"NoteNumber":57,"Velocity":57,"Duration":368445,"SoundDuration":368445,"Delta":159325067},{"NoteNumber":52,"Velocity":48,"Duration":368445,"SoundDuration":368445,"Delta":159325067},{"NoteNumber":73,"Velocity":55,"Duration":178571,"SoundDuration":178571,"Delta":159514940},{"NoteNumber":74,"Velocity":59,"Duration":178571,"SoundDuration":178571,"Delta":159693512},{"NoteNumber":56,"Velocity":51,"Duration":384050,"SoundDuration":384050,"Delta":159693512},{"NoteNumber":52,"Velocity":43,"Duration":384050,"SoundDuration":384050,"Delta":159693512},{"NoteNumber":71,"Velocity":54,"Duration":205479,"SoundDuration":205479,"Delta":159872083},{"NoteNumber":71,"Velocity":60,"Duration":584415,"SoundDuration":584415,"Delta":160077563},{"NoteNumber":68,"Velocity":48,"Duration":779221,"SoundDuration":779221,"Delta":160077563},{"NoteNumber":57,"Velocity":61,"Duration":389610,"SoundDuration":389610,"Delta":160077563},{"NoteNumber":52,"Velocity":55,"Duration":389610,"SoundDuration":389610,"Delta":160467173},{"NoteNumber":72,"Velocity":59,"Duration":194805,"SoundDuration":194805,"Delta":160661979},{"NoteNumber":69,"Velocity":51,"Duration":410958,"SoundDuration":410958,"Delta":160856784},{"NoteNumber":73,"Velocity":64,"Duration":410958,"SoundDuration":410958,"Delta":160856784},{"NoteNumber":45,"Velocity":55,"Duration":410958,"SoundDuration":410958,"Delta":160856784},{"NoteNumber":73,"Velocity":76,"Duration":274390,"SoundDuration":274390,"Delta":161267743},{"NoteNumber":69,"Velocity":64,"Duration":274390,"SoundDuration":274390,"Delta":161267743},{"NoteNumber":64,"Velocity":64,"Duration":274390,"SoundDuration":274390,"Delta":161267743},{"NoteNumber":33,"Velocity":71,"Duration":182926,"SoundDuration":182926,"Delta":161267743},{"NoteNumber":45,"Velocity":60,"Duration":137195,"SoundDuration":137195,"Delta":161450670},{"NoteNumber":73,"Velocity":76,"Duration":274390,"SoundDuration":274390,"Delta":161633596},{"NoteNumber":69,"Velocity":64,"Duration":274390,"SoundDuration":274390,"Delta":161633596},{"NoteNumber":64,"Velocity":64,"Duration":274390,"SoundDuration":274390,"Delta":161633596},{"NoteNumber":45,"Velocity":60,"Duration":137195,"SoundDuration":137195,"Delta":161633596},{"NoteNumber":45,"Velocity":60,"Duration":137195,"SoundDuration":137195,"Delta":161816523},{"NoteNumber":64,"Velocity":60,"Duration":287093,"SoundDuration":287093,"Delta":161999450},{"NoteNumber":74,"Velocity":71,"Duration":287093,"SoundDuration":287093,"Delta":161999450},{"NoteNumber":68,"Velocity":60,"Duration":287093,"SoundDuration":287093,"Delta":161999450},{"NoteNumber":35,"Velocity":67,"Duration":182926,"SoundDuration":182926,"Delta":161999450},{"NoteNumber":47,"Velocity":59,"Duration":208333,"SoundDuration":208333,"Delta":162182377},{"NoteNumber":64,"Velocity":63,"Duration":274390,"SoundDuration":274390,"Delta":162390710},{"NoteNumber":69,"Velocity":63,"Duration":274390,"SoundDuration":274390,"Delta":162390710},{"NoteNumber":76,"Velocity":75,"Duration":274390,"SoundDuration":274390,"Delta":162390710},{"NoteNumber":37,"Velocity":66,"Duration":182926,"SoundDuration":182926,"Delta":162390710},{"NoteNumber":49,"Velocity":59,"Duration":137195,"SoundDuration":137195,"Delta":162573637},{"NoteNumber":76,"Velocity":68,"Duration":291622,"SoundDuration":291622,"Delta":162756563},{"NoteNumber":69,"Velocity":57,"Duration":291622,"SoundDuration":291622,"Delta":162756563},{"NoteNumber":49,"Velocity":57,"Duration":137195,"SoundDuration":137195,"Delta":162756563},{"NoteNumber":49,"Velocity":57,"Duration":163043,"SoundDuration":163043,"Delta":162939490},{"NoteNumber":78,"Velocity":72,"Duration":194805,"SoundDuration":194805,"Delta":163156881},{"NoteNumber":69,"Velocity":61,"Duration":194805,"SoundDuration":194805,"Delta":163156881},{"NoteNumber":38,"Velocity":68,"Duration":194805,"SoundDuration":194805,"Delta":163156881},{"NoteNumber":80,"Velocity":68,"Duration":111940,"SoundDuration":111940,"Delta":163351687},{"NoteNumber":50,"Velocity":62,"Duration":223880,"SoundDuration":223880,"Delta":163351687},{"NoteNumber":81,"Velocity":68,"Duration":111940,"SoundDuration":111940,"Delta":163463627},{"NoteNumber":69,"Velocity":76,"Duration":370370,"SoundDuration":370370,"Delta":163575567},{"NoteNumber":61,"Velocity":64,"Duration":370370,"SoundDuration":370370,"Delta":163575567},{"NoteNumber":64,"Velocity":64,"Duration":370370,"SoundDuration":370370,"Delta":163575567},{"NoteNumber":40,"Velocity":69,"Duration":185185,"SoundDuration":185185,"Delta":163575567},{"NoteNumber":52,"Velocity":55,"Duration":138888,"SoundDuration":138888,"Delta":163760752},{"NoteNumber":64,"Velocity":62,"Duration":400000,"SoundDuration":400000,"Delta":163945938},{"NoteNumber":61,"Velocity":62,"Duration":400000,"SoundDuration":400000,"Delta":163945938},{"NoteNumber":69,"Velocity":74,"Duration":400000,"SoundDuration":400000,"Delta":163945938},{"NoteNumber":52,"Velocity":55,"Duration":150000,"SoundDuration":150000,"Delta":163945938},{"NoteNumber":52,"Velocity":55,"Duration":150000,"SoundDuration":150000,"Delta":164145938},{"NoteNumber":64,"Velocity":61,"Duration":400000,"SoundDuration":400000,"Delta":164345938},{"NoteNumber":68,"Velocity":61,"Duration":400000,"SoundDuration":400000,"Delta":164345938},{"NoteNumber":71,"Velocity":72,"Duration":400000,"SoundDuration":400000,"Delta":164345938},{"NoteNumber":62,"Velocity":61,"Duration":400000,"SoundDuration":400000,"Delta":164345938},{"NoteNumber":40,"Velocity":64,"Duration":199999,"SoundDuration":199999,"Delta":164345938},{"NoteNumber":52,"Velocity":55,"Duration":200000,"SoundDuration":200000,"Delta":164545938},{"NoteNumber":64,"Velocity":64,"Duration":399999,"SoundDuration":399999,"Delta":164745938},{"NoteNumber":69,"Velocity":76,"Duration":399999,"SoundDuration":399999,"Delta":164745938},{"NoteNumber":61,"Velocity":64,"Duration":399999,"SoundDuration":399999,"Delta":164745938},{"NoteNumber":33,"Velocity":73,"Duration":399999,"SoundDuration":399999,"Delta":164745938},{"NoteNumber":45,"Velocity":67,"Duration":400000,"SoundDuration":400000,"Delta":165145938},{"NoteNumber":75,"Velocity":50,"Duration":174418,"SoundDuration":174418,"Delta":165945938},{"NoteNumber":76,"Velocity":46,"Duration":150000,"SoundDuration":150000,"Delta":166120356},{"NoteNumber":57,"Velocity":30,"Duration":133151,"SoundDuration":133151,"Delta":166307856},{"NoteNumber":61,"Velocity":39,"Duration":133151,"SoundDuration":133151,"Delta":166307856},{"NoteNumber":76,"Velocity":45,"Duration":178571,"SoundDuration":178571,"Delta":166485392},{"NoteNumber":75,"Velocity":45,"Duration":178571,"SoundDuration":178571,"Delta":166663963},{"NoteNumber":76,"Velocity":46,"Duration":189873,"SoundDuration":189873,"Delta":166842535},{"NoteNumber":77,"Velocity":50,"Duration":170454,"SoundDuration":170454,"Delta":167032408},{"NoteNumber":78,"Velocity":46,"Duration":146341,"SoundDuration":146341,"Delta":167202863},{"NoteNumber":62,"Velocity":39,"Duration":128586,"SoundDuration":128586,"Delta":167385790},{"NoteNumber":57,"Velocity":30,"Duration":128586,"SoundDuration":128586,"Delta":167385790},{"NoteNumber":78,"Velocity":47,"Duration":178571,"SoundDuration":178571,"Delta":167557238},{"NoteNumber":77,"Velocity":50,"Duration":178571,"SoundDuration":178571,"Delta":167735809},{"NoteNumber":78,"Velocity":48,"Duration":176470,"SoundDuration":176470,"Delta":167914381},{"NoteNumber":80,"Velocity":55,"Duration":173430,"SoundDuration":173430,"Delta":168090851},{"NoteNumber":57,"Velocity":26,"Duration":130072,"SoundDuration":130072,"Delta":168090851},{"NoteNumber":66,"Velocity":31,"Duration":130072,"SoundDuration":130072,"Delta":168090851},{"NoteNumber":81,"Velocity":47,"Duration":150000,"SoundDuration":150000,"Delta":168264282},{"NoteNumber":79,"Velocity":55,"Duration":174418,"SoundDuration":174418,"Delta":168451782},{"NoteNumber":57,"Velocity":24,"Duration":130813,"SoundDuration":130813,"Delta":168451782},{"NoteNumber":64,"Velocity":29,"Duration":130813,"SoundDuration":130813,"Delta":168451782},{"NoteNumber":80,"Velocity":48,"Duration":153846,"SoundDuration":153846,"Delta":168626200},{"NoteNumber":77,"Velocity":55,"Duration":176470,"SoundDuration":176470,"Delta":168818508},{"NoteNumber":62,"Velocity":29,"Duration":132352,"SoundDuration":132352,"Delta":168818508},{"NoteNumber":57,"Velocity":24,"Duration":132352,"SoundDuration":132352,"Delta":168818508},{"NoteNumber":78,"Velocity":47,"Duration":144578,"SoundDuration":144578,"Delta":168994979},{"NoteNumber":75,"Velocity":55,"Duration":182926,"SoundDuration":182926,"Delta":169175702},{"NoteNumber":76,"Velocity":46,"Duration":150000,"SoundDuration":150000,"Delta":169358628},{"NoteNumber":61,"Velocity":37,"Duration":140625,"SoundDuration":140625,"Delta":169546128},{"NoteNumber":57,"Velocity":31,"Duration":140625,"SoundDuration":140625,"Delta":169546128},{"NoteNumber":76,"Velocity":55,"Duration":166666,"SoundDuration":166666,"Delta":169733628},{"NoteNumber":76,"Velocity":57,"Duration":166666,"SoundDuration":166666,"Delta":169918814},{"NoteNumber":76,"Velocity":58,"Duration":180000,"SoundDuration":180000,"Delta":170103999},{"NoteNumber":76,"Velocity":72,"Duration":185185,"SoundDuration":185185,"Delta":170303999},{"NoteNumber":64,"Velocity":55,"Duration":1123294,"SoundDuration":1123294,"Delta":170303999},{"NoteNumber":61,"Velocity":46,"Duration":1123294,"SoundDuration":1123294,"Delta":170303999},{"NoteNumber":57,"Velocity":46,"Duration":1123294,"SoundDuration":1123294,"Delta":170303999},{"NoteNumber":73,"Velocity":64,"Duration":185185,"SoundDuration":185185,"Delta":170489184},{"NoteNumber":69,"Velocity":59,"Duration":185185,"SoundDuration":185185,"Delta":170674369},{"NoteNumber":76,"Velocity":57,"Duration":166666,"SoundDuration":166666,"Delta":170859555},{"NoteNumber":76,"Velocity":59,"Duration":166666,"SoundDuration":166666,"Delta":171044740},{"NoteNumber":76,"Velocity":61,"Duration":177631,"SoundDuration":177631,"Delta":171229925},{"NoteNumber":76,"Velocity":70,"Duration":185185,"SoundDuration":185185,"Delta":171427294},{"NoteNumber":59,"Velocity":43,"Duration":1123294,"SoundDuration":1123294,"Delta":171427294},{"NoteNumber":64,"Velocity":51,"Duration":1123294,"SoundDuration":1123294,"Delta":171427294},{"NoteNumber":62,"Velocity":43,"Duration":1123294,"SoundDuration":1123294,"Delta":171427294},{"NoteNumber":74,"Velocity":62,"Duration":185185,"SoundDuration":185185,"Delta":171612479},{"NoteNumber":68,"Velocity":58,"Duration":185185,"SoundDuration":185185,"Delta":171797664},{"NoteNumber":76,"Velocity":59,"Duration":166666,"SoundDuration":166666,"Delta":171982849},{"NoteNumber":76,"Velocity":62,"Duration":166666,"SoundDuration":166666,"Delta":172168035},{"NoteNumber":76,"Velocity":64,"Duration":177631,"SoundDuration":177631,"Delta":172353220},{"NoteNumber":76,"Velocity":69,"Duration":185185,"SoundDuration":185185,"Delta":172550588},{"NoteNumber":61,"Velocity":50,"Duration":769137,"SoundDuration":769137,"Delta":172550588},{"NoteNumber":64,"Velocity":59,"Duration":769137,"SoundDuration":769137,"Delta":172550588},{"NoteNumber":73,"Velocity":63,"Duration":185185,"SoundDuration":185185,"Delta":172735774},{"NoteNumber":69,"Velocity":48,"Duration":211267,"SoundDuration":211267,"Delta":172920959},{"NoteNumber":76,"Velocity":52,"Duration":187500,"SoundDuration":187500,"Delta":173132226},{"NoteNumber":73,"Velocity":51,"Duration":194805,"SoundDuration":194805,"Delta":173319726},{"NoteNumber":54,"Velocity":26,"Duration":412196,"SoundDuration":412196,"Delta":173319726},{"NoteNumber":63,"Velocity":31,"Duration":412196,"SoundDuration":412196,"Delta":173319726},{"NoteNumber":57,"Velocity":26,"Duration":412196,"SoundDuration":412196,"Delta":173319726},{"NoteNumber":69,"Velocity":49,"Duration":217391,"SoundDuration":217391,"Delta":173514532},{"NoteNumber":73,"Velocity":51,"Duration":810811,"SoundDuration":810811,"Delta":173731923},{"NoteNumber":69,"Velocity":43,"Duration":810811,"SoundDuration":810811,"Delta":173731923},{"NoteNumber":52,"Velocity":34,"Duration":1216216,"SoundDuration":1216216,"Delta":173731923},{"NoteNumber":64,"Velocity":40,"Duration":1216216,"SoundDuration":1216216,"Delta":173731923},{"NoteNumber":71,"Velocity":47,"Duration":405405,"SoundDuration":405405,"Delta":174542734},{"NoteNumber":68,"Velocity":39,"Duration":405405,"SoundDuration":405405,"Delta":174542734},{"NoteNumber":72,"Velocity":50,"Duration":174418,"SoundDuration":174418,"Delta":174948139},{"NoteNumber":73,"Velocity":46,"Duration":150000,"SoundDuration":150000,"Delta":175122558},{"NoteNumber":57,"Velocity":30,"Duration":131594,"SoundDuration":131594,"Delta":175310058},{"NoteNumber":64,"Velocity":39,"Duration":131594,"SoundDuration":131594,"Delta":175310058},{"NoteNumber":73,"Velocity":45,"Duration":178571,"SoundDuration":178571,"Delta":175485517},{"NoteNumber":72,"Velocity":45,"Duration":178571,"SoundDuration":178571,"Delta":175664088},{"NoteNumber":73,"Velocity":46,"Duration":202702,"SoundDuration":202702,"Delta":175842660},{"NoteNumber":75,"Velocity":50,"Duration":170454,"SoundDuration":170454,"Delta":176045363},{"NoteNumber":76,"Velocity":46,"Duration":146341,"SoundDuration":146341,"Delta":176215817},{"NoteNumber":64,"Velocity":39,"Duration":130072,"SoundDuration":130072,"Delta":176398744},{"NoteNumber":61,"Velocity":30,"Duration":130072,"SoundDuration":130072,"Delta":176398744},{"NoteNumber":76,"Velocity":47,"Duration":178571,"SoundDuration":178571,"Delta":176572174},{"NoteNumber":78,"Velocity":50,"Duration":178571,"SoundDuration":178571,"Delta":176750746},{"NoteNumber":76,"Velocity":48,"Duration":138888,"SoundDuration":138888,"Delta":176929317},{"NoteNumber":76,"Velocity":50,"Duration":170454,"SoundDuration":170454,"Delta":177114503},{"NoteNumber":71,"Velocity":47,"Duration":151898,"SoundDuration":151898,"Delta":177284957},{"NoteNumber":64,"Velocity":44,"Duration":135542,"SoundDuration":135542,"Delta":177474831},{"NoteNumber":56,"Velocity":34,"Duration":135542,"SoundDuration":135542,"Delta":177474831},{"NoteNumber":71,"Velocity":48,"Duration":180723,"SoundDuration":180723,"Delta":177655554},{"NoteNumber":70,"Velocity":49,"Duration":180723,"SoundDuration":180723,"Delta":177836277},{"NoteNumber":71,"Velocity":50,"Duration":180723,"SoundDuration":180723,"Delta":178017000},{"NoteNumber":73,"Velocity":51,"Duration":182926,"SoundDuration":182926,"Delta":178197723},{"NoteNumber":74,"Velocity":48,"Duration":153846,"SoundDuration":153846,"Delta":178380649},{"NoteNumber":59,"Velocity":34,"Duration":144230,"SoundDuration":144230,"Delta":178572957},{"NoteNumber":64,"Velocity":44,"Duration":144230,"SoundDuration":144230,"Delta":178572957},{"NoteNumber":74,"Velocity":49,"Duration":178571,"SoundDuration":178571,"Delta":178765265},{"NoteNumber":76,"Velocity":52,"Duration":178571,"SoundDuration":178571,"Delta":178943836},{"NoteNumber":74,"Velocity":50,"Duration":146103,"SoundDuration":146103,"Delta":179122408},{"NoteNumber":74,"Velocity":53,"Duration":168539,"SoundDuration":168539,"Delta":179317213},{"NoteNumber":69,"Velocity":47,"Duration":153846,"SoundDuration":153846,"Delta":179485752},{"NoteNumber":64,"Velocity":53,"Duration":368445,"SoundDuration":368445,"Delta":179678060},{"NoteNumber":54,"Velocity":45,"Duration":368445,"SoundDuration":368445,"Delta":179678060},{"NoteNumber":69,"Velocity":51,"Duration":178571,"SoundDuration":178571,"Delta":179867934},{"NoteNumber":73,"Velocity":52,"Duration":178571,"SoundDuration":178571,"Delta":180046505},{"NoteNumber":56,"Velocity":43,"Duration":355041,"SoundDuration":355041,"Delta":180046505},{"NoteNumber":64,"Velocity":51,"Duration":355041,"SoundDuration":355041,"Delta":180046505},{"NoteNumber":71,"Velocity":52,"Duration":176470,"SoundDuration":176470,"Delta":180225077},{"NoteNumber":74,"Velocity":57,"Duration":170454,"SoundDuration":170454,"Delta":180401547},{"NoteNumber":73,"Velocity":50,"Duration":148148,"SoundDuration":148148,"Delta":180572002},{"NoteNumber":56,"Velocity":45,"Duration":359603,"SoundDuration":359603,"Delta":180757187},{"NoteNumber":64,"Velocity":53,"Duration":359603,"SoundDuration":359603,"Delta":180757187},{"NoteNumber":73,"Velocity":52,"Duration":174418,"SoundDuration":174418,"Delta":180942372},{"NoteNumber":76,"Velocity":57,"Duration":178571,"SoundDuration":178571,"Delta":181116791},{"NoteNumber":50,"Velocity":44,"Duration":370879,"SoundDuration":370879,"Delta":181116791},{"NoteNumber":59,"Velocity":52,"Duration":370879,"SoundDuration":370879,"Delta":181116791},{"NoteNumber":74,"Velocity":54,"Duration":192307,"SoundDuration":192307,"Delta":181295362},{"NoteNumber":72,"Velocity":60,"Duration":178571,"SoundDuration":178571,"Delta":181487670},{"NoteNumber":73,"Velocity":54,"Duration":153846,"SoundDuration":153846,"Delta":181666241},{"NoteNumber":57,"Velocity":57,"Duration":368445,"SoundDuration":368445,"Delta":181858549},{"NoteNumber":52,"Velocity":48,"Duration":368445,"SoundDuration":368445,"Delta":181858549},{"NoteNumber":73,"Velocity":55,"Duration":178571,"SoundDuration":178571,"Delta":182048423},{"NoteNumber":74,"Velocity":59,"Duration":178571,"SoundDuration":178571,"Delta":182226994},{"NoteNumber":56,"Velocity":51,"Duration":384050,"SoundDuration":384050,"Delta":182226994},{"NoteNumber":52,"Velocity":43,"Duration":384050,"SoundDuration":384050,"Delta":182226994},{"NoteNumber":71,"Velocity":54,"Duration":205479,"SoundDuration":205479,"Delta":182405566},{"NoteNumber":71,"Velocity":60,"Duration":584415,"SoundDuration":584415,"Delta":182611045},{"NoteNumber":68,"Velocity":48,"Duration":779221,"SoundDuration":779221,"Delta":182611045},{"NoteNumber":57,"Velocity":61,"Duration":389610,"SoundDuration":389610,"Delta":182611045},{"NoteNumber":52,"Velocity":55,"Duration":389610,"SoundDuration":389610,"Delta":183000656},{"NoteNumber":72,"Velocity":59,"Duration":194805,"SoundDuration":194805,"Delta":183195461},{"NoteNumber":69,"Velocity":51,"Duration":410958,"SoundDuration":410958,"Delta":183390266},{"NoteNumber":73,"Velocity":64,"Duration":410958,"SoundDuration":410958,"Delta":183390266},{"NoteNumber":45,"Velocity":55,"Duration":410958,"SoundDuration":410958,"Delta":183390266},{"NoteNumber":73,"Velocity":76,"Duration":274390,"SoundDuration":274390,"Delta":183801225},{"NoteNumber":64,"Velocity":64,"Duration":274390,"SoundDuration":274390,"Delta":183801225},{"NoteNumber":69,"Velocity":64,"Duration":274390,"SoundDuration":274390,"Delta":183801225},{"NoteNumber":33,"Velocity":71,"Duration":182926,"SoundDuration":182926,"Delta":183801225},{"NoteNumber":45,"Velocity":60,"Duration":137195,"SoundDuration":137195,"Delta":183984152},{"NoteNumber":69,"Velocity":64,"Duration":274390,"SoundDuration":274390,"Delta":184167079},{"NoteNumber":64,"Velocity":64,"Duration":274390,"SoundDuration":274390,"Delta":184167079},{"NoteNumber":73,"Velocity":76,"Duration":274390,"SoundDuration":274390,"Delta":184167079},{"NoteNumber":45,"Velocity":60,"Duration":137195,"SoundDuration":137195,"Delta":184167079},{"NoteNumber":45,"Velocity":60,"Duration":137195,"SoundDuration":137195,"Delta":184350005},{"NoteNumber":74,"Velocity":71,"Duration":296474,"SoundDuration":296474,"Delta":184532932},{"NoteNumber":64,"Velocity":60,"Duration":296474,"SoundDuration":296474,"Delta":184532932},{"NoteNumber":68,"Velocity":60,"Duration":296474,"SoundDuration":296474,"Delta":184532932},{"NoteNumber":35,"Velocity":67,"Duration":192307,"SoundDuration":192307,"Delta":184532932},{"NoteNumber":47,"Velocity":59,"Duration":208333,"SoundDuration":208333,"Delta":184725240},{"NoteNumber":69,"Velocity":63,"Duration":288461,"SoundDuration":288461,"Delta":184933573},{"NoteNumber":76,"Velocity":75,"Duration":288461,"SoundDuration":288461,"Delta":184933573},{"NoteNumber":64,"Velocity":63,"Duration":288461,"SoundDuration":288461,"Delta":184933573},{"NoteNumber":37,"Velocity":66,"Duration":192307,"SoundDuration":192307,"Delta":184933573},{"NoteNumber":49,"Velocity":59,"Duration":144230,"SoundDuration":144230,"Delta":185125881},{"NoteNumber":76,"Velocity":68,"Duration":302601,"SoundDuration":302601,"Delta":185318189},{"NoteNumber":69,"Velocity":57,"Duration":302601,"SoundDuration":302601,"Delta":185318189},{"NoteNumber":49,"Velocity":57,"Duration":144230,"SoundDuration":144230,"Delta":185318189},{"NoteNumber":49,"Velocity":57,"Duration":165441,"SoundDuration":165441,"Delta":185510496},{"NoteNumber":78,"Velocity":72,"Duration":202702,"SoundDuration":202702,"Delta":185731085},{"NoteNumber":69,"Velocity":61,"Duration":202702,"SoundDuration":202702,"Delta":185731085},{"NoteNumber":38,"Velocity":68,"Duration":202702,"SoundDuration":202702,"Delta":185731085},{"NoteNumber":80,"Velocity":68,"Duration":113636,"SoundDuration":113636,"Delta":185933787},{"NoteNumber":50,"Velocity":62,"Duration":227272,"SoundDuration":227272,"Delta":185933787},{"NoteNumber":81,"Velocity":68,"Duration":113636,"SoundDuration":113636,"Delta":186047424},{"NoteNumber":69,"Velocity":76,"Duration":400000,"SoundDuration":400000,"Delta":186161060},{"NoteNumber":64,"Velocity":64,"Duration":400000,"SoundDuration":400000,"Delta":186161060},{"NoteNumber":61,"Velocity":64,"Duration":400000,"SoundDuration":400000,"Delta":186161060},{"NoteNumber":40,"Velocity":69,"Duration":199999,"SoundDuration":199999,"Delta":186161060},{"NoteNumber":52,"Velocity":55,"Duration":150000,"SoundDuration":150000,"Delta":186361060},{"NoteNumber":64,"Velocity":62,"Duration":428571,"SoundDuration":428571,"Delta":186561060},{"NoteNumber":69,"Velocity":74,"Duration":428571,"SoundDuration":428571,"Delta":186561060},{"NoteNumber":61,"Velocity":62,"Duration":428571,"SoundDuration":428571,"Delta":186561060},{"NoteNumber":52,"Velocity":55,"Duration":160714,"SoundDuration":160714,"Delta":186561060},{"NoteNumber":52,"Velocity":55,"Duration":160714,"SoundDuration":160714,"Delta":186775346},{"NoteNumber":64,"Velocity":61,"Duration":468750,"SoundDuration":468750,"Delta":186989632},{"NoteNumber":71,"Velocity":72,"Duration":468750,"SoundDuration":468750,"Delta":186989632},{"NoteNumber":68,"Velocity":61,"Duration":468750,"SoundDuration":468750,"Delta":186989632},{"NoteNumber":62,"Velocity":61,"Duration":468750,"SoundDuration":468750,"Delta":186989632},{"NoteNumber":40,"Velocity":64,"Duration":234375,"SoundDuration":234375,"Delta":186989632},{"NoteNumber":52,"Velocity":55,"Duration":234375,"SoundDuration":234375,"Delta":187224007},{"NoteNumber":69,"Velocity":76,"Duration":468750,"SoundDuration":468750,"Delta":187458382},{"NoteNumber":64,"Velocity":64,"Duration":468750,"SoundDuration":468750,"Delta":187458382},{"NoteNumber":61,"Velocity":64,"Duration":468750,"SoundDuration":468750,"Delta":187458382},{"NoteNumber":33,"Velocity":73,"Duration":468750,"SoundDuration":468750,"Delta":187458382},{"NoteNumber":45,"Velocity":67,"Duration":468750,"SoundDuration":468750,"Delta":187927132},{"NoteNumber":73,"Velocity":53,"Duration":88235,"SoundDuration":88235,"Delta":191677132},{"NoteNumber":57,"Velocity":44,"Duration":141176,"SoundDuration":141176,"Delta":191677132},{"NoteNumber":63,"Velocity":31,"Duration":141176,"SoundDuration":141176,"Delta":191794779},{"NoteNumber":64,"Velocity":31,"Duration":117646,"SoundDuration":117646,"Delta":191912426},{"NoteNumber":73,"Velocity":49,"Duration":88235,"SoundDuration":88235,"Delta":192030073},{"NoteNumber":57,"Velocity":40,"Duration":141176,"SoundDuration":141176,"Delta":192030073},{"NoteNumber":63,"Velocity":30,"Duration":144189,"SoundDuration":144189,"Delta":192147720},{"NoteNumber":64,"Velocity":30,"Duration":121951,"SoundDuration":121951,"Delta":192267519},{"NoteNumber":74,"Velocity":49,"Duration":58823,"SoundDuration":58823,"Delta":192389470},{"NoteNumber":59,"Velocity":40,"Duration":141176,"SoundDuration":141176,"Delta":192389470},{"NoteNumber":76,"Velocity":47,"Duration":58823,"SoundDuration":58823,"Delta":192448293},{"NoteNumber":74,"Velocity":47,"Duration":58823,"SoundDuration":58823,"Delta":192507117},{"NoteNumber":63,"Velocity":30,"Duration":141176,"SoundDuration":141176,"Delta":192507117},{"NoteNumber":73,"Velocity":49,"Duration":88235,"SoundDuration":88235,"Delta":192565940},{"NoteNumber":64,"Velocity":30,"Duration":117646,"SoundDuration":117646,"Delta":192624764},{"NoteNumber":74,"Velocity":49,"Duration":88235,"SoundDuration":88235,"Delta":192654176},{"NoteNumber":76,"Velocity":53,"Duration":352941,"SoundDuration":352941,"Delta":192742411},{"NoteNumber":61,"Velocity":41,"Duration":141176,"SoundDuration":141176,"Delta":192742411},{"NoteNumber":63,"Velocity":29,"Duration":141176,"SoundDuration":141176,"Delta":192860058},{"NoteNumber":64,"Velocity":29,"Duration":117647,"SoundDuration":117647,"Delta":192977705},{"NoteNumber":61,"Velocity":40,"Duration":141176,"SoundDuration":141176,"Delta":193095352},{"NoteNumber":63,"Velocity":31,"Duration":147431,"SoundDuration":147431,"Delta":193212999},{"NoteNumber":64,"Velocity":31,"Duration":123669,"SoundDuration":123669,"Delta":193335113},{"NoteNumber":78,"Velocity":53,"Duration":94535,"SoundDuration":94535,"Delta":193458783},{"NoteNumber":57,"Velocity":40,"Duration":138139,"SoundDuration":138139,"Delta":193458783},{"NoteNumber":76,"Velocity":52,"Duration":96307,"SoundDuration":96307,"Delta":193544631},{"NoteNumber":63,"Velocity":36,"Duration":141395,"SoundDuration":141395,"Delta":193573667},{"NoteNumber":74,"Velocity":51,"Duration":97900,"SoundDuration":97900,"Delta":193632114},{"NoteNumber":64,"Velocity":36,"Duration":120785,"SoundDuration":120785,"Delta":193691253},{"NoteNumber":73,"Velocity":49,"Duration":99847,"SoundDuration":99847,"Delta":193721015},{"NoteNumber":71,"Velocity":53,"Duration":88235,"SoundDuration":88235,"Delta":193812038},{"NoteNumber":56,"Velocity":44,"Duration":141176,"SoundDuration":141176,"Delta":193812038},{"NoteNumber":63,"Velocity":31,"Duration":141176,"SoundDuration":141176,"Delta":193929685},{"NoteNumber":64,"Velocity":31,"Duration":117646,"SoundDuration":117646,"Delta":194047332},{"NoteNumber":71,"Velocity":49,"Duration":88235,"SoundDuration":88235,"Delta":194164979},{"NoteNumber":56,"Velocity":40,"Duration":141176,"SoundDuration":141176,"Delta":194164979},{"NoteNumber":63,"Velocity":33,"Duration":144189,"SoundDuration":144189,"Delta":194282626},{"NoteNumber":64,"Velocity":33,"Duration":121951,"SoundDuration":121951,"Delta":194402425},{"NoteNumber":73,"Velocity":49,"Duration":58823,"SoundDuration":58823,"Delta":194524377},{"NoteNumber":57,"Velocity":40,"Duration":141176,"SoundDuration":141176,"Delta":194524377},{"NoteNumber":74,"Velocity":47,"Duration":58823,"SoundDuration":58823,"Delta":194583200},{"NoteNumber":73,"Velocity":47,"Duration":58823,"SoundDuration":58823,"Delta":194642024},{"NoteNumber":63,"Velocity":34,"Duration":141176,"SoundDuration":141176,"Delta":194642024},{"NoteNumber":71,"Velocity":49,"Duration":88235,"SoundDuration":88235,"Delta":194700847},{"NoteNumber":64,"Velocity":34,"Duration":117646,"SoundDuration":117646,"Delta":194759671},{"NoteNumber":73,"Velocity":49,"Duration":88235,"SoundDuration":88235,"Delta":194789082},{"NoteNumber":74,"Velocity":53,"Duration":352941,"SoundDuration":352941,"Delta":194877318},{"NoteNumber":59,"Velocity":45,"Duration":141176,"SoundDuration":141176,"Delta":194877318},{"NoteNumber":63,"Velocity":34,"Duration":141176,"SoundDuration":141176,"Delta":194994965},{"NoteNumber":64,"Velocity":34,"Duration":117647,"SoundDuration":117647,"Delta":195112612},{"NoteNumber":59,"Velocity":38,"Duration":141176,"SoundDuration":141176,"Delta":195230259},{"NoteNumber":63,"Velocity":31,"Duration":147431,"SoundDuration":147431,"Delta":195347906},{"NoteNumber":64,"Velocity":31,"Duration":123669,"SoundDuration":123669,"Delta":195470020},{"NoteNumber":76,"Velocity":53,"Duration":94535,"SoundDuration":94535,"Delta":195593690},{"NoteNumber":56,"Velocity":40,"Duration":138139,"SoundDuration":138139,"Delta":195593690},{"NoteNumber":74,"Velocity":52,"Duration":96307,"SoundDuration":96307,"Delta":195679537},{"NoteNumber":63,"Velocity":36,"Duration":141395,"SoundDuration":141395,"Delta":195708574},{"NoteNumber":73,"Velocity":51,"Duration":97900,"SoundDuration":97900,"Delta":195767021},{"NoteNumber":64,"Velocity":36,"Duration":120785,"SoundDuration":120785,"Delta":195826160},{"NoteNumber":71,"Velocity":49,"Duration":99847,"SoundDuration":99847,"Delta":195855922},{"NoteNumber":69,"Velocity":53,"Duration":88235,"SoundDuration":88235,"Delta":195946945},{"NoteNumber":54,"Velocity":44,"Duration":141176,"SoundDuration":141176,"Delta":195946945},{"NoteNumber":63,"Velocity":33,"Duration":141176,"SoundDuration":141176,"Delta":196064592},{"NoteNumber":64,"Velocity":33,"Duration":117646,"SoundDuration":117646,"Delta":196182239},{"NoteNumber":69,"Velocity":49,"Duration":88235,"SoundDuration":88235,"Delta":196299886},{"NoteNumber":54,"Velocity":40,"Duration":141176,"SoundDuration":141176,"Delta":196299886},{"NoteNumber":63,"Velocity":35,"Duration":144189,"SoundDuration":144189,"Delta":196417533},{"NoteNumber":64,"Velocity":35,"Duration":121951,"SoundDuration":121951,"Delta":196537332},{"NoteNumber":69,"Velocity":49,"Duration":58823,"SoundDuration":58823,"Delta":196659283},{"NoteNumber":54,"Velocity":40,"Duration":141176,"SoundDuration":141176,"Delta":196659283},{"NoteNumber":71,"Velocity":47,"Duration":58823,"SoundDuration":58823,"Delta":196718107},{"NoteNumber":69,"Velocity":47,"Duration":58823,"SoundDuration":58823,"Delta":196776930},{"NoteNumber":63,"Velocity":35,"Duration":141176,"SoundDuration":141176,"Delta":196776930},{"NoteNumber":68,"Velocity":49,"Duration":88235,"SoundDuration":88235,"Delta":196835754},{"NoteNumber":64,"Velocity":36,"Duration":117646,"SoundDuration":117646,"Delta":196894577},{"NoteNumber":69,"Velocity":49,"Duration":88235,"SoundDuration":88235,"Delta":196923989},{"NoteNumber":71,"Velocity":53,"Duration":88235,"SoundDuration":88235,"Delta":197012224},{"NoteNumber":56,"Velocity":44,"Duration":141176,"SoundDuration":141176,"Delta":197012224},{"NoteNumber":62,"Velocity":35,"Duration":141176,"SoundDuration":141176,"Delta":197129871},{"NoteNumber":64,"Velocity":35,"Duration":117646,"SoundDuration":117646,"Delta":197247518},{"NoteNumber":71,"Velocity":49,"Duration":88235,"SoundDuration":88235,"Delta":197365165},{"NoteNumber":56,"Velocity":40,"Duration":141176,"SoundDuration":141176,"Delta":197365165},{"NoteNumber":62,"Velocity":35,"Duration":144189,"SoundDuration":144189,"Delta":197482812},{"NoteNumber":64,"Velocity":35,"Duration":121951,"SoundDuration":121951,"Delta":197602611},{"NoteNumber":71,"Velocity":49,"Duration":58823,"SoundDuration":58823,"Delta":197724563},{"NoteNumber":56,"Velocity":40,"Duration":141176,"SoundDuration":141176,"Delta":197724563},{"NoteNumber":73,"Velocity":47,"Duration":58823,"SoundDuration":58823,"Delta":197783386},{"NoteNumber":71,"Velocity":47,"Duration":58823,"SoundDuration":58823,"Delta":197842210},{"NoteNumber":62,"Velocity":34,"Duration":141176,"SoundDuration":141176,"Delta":197842210},{"NoteNumber":69,"Velocity":49,"Duration":88235,"SoundDuration":88235,"Delta":197901033},{"NoteNumber":64,"Velocity":34,"Duration":117646,"SoundDuration":117646,"Delta":197959857},{"NoteNumber":71,"Velocity":49,"Duration":88235,"SoundDuration":88235,"Delta":197989268},{"NoteNumber":73,"Velocity":58,"Duration":88235,"SoundDuration":88235,"Delta":198077504},{"NoteNumber":57,"Velocity":44,"Duration":141176,"SoundDuration":141176,"Delta":198077504},{"NoteNumber":61,"Velocity":34,"Duration":141176,"SoundDuration":141176,"Delta":198195151},{"NoteNumber":64,"Velocity":34,"Duration":117646,"SoundDuration":117646,"Delta":198312798},{"NoteNumber":73,"Velocity":54,"Duration":88235,"SoundDuration":88235,"Delta":198430445},{"NoteNumber":57,"Velocity":40,"Duration":141176,"SoundDuration":141176,"Delta":198430445},{"NoteNumber":61,"Velocity":33,"Duration":149732,"SoundDuration":149732,"Delta":198548092},{"NoteNumber":64,"Velocity":33,"Duration":129870,"SoundDuration":129870,"Delta":198671850},{"NoteNumber":71,"Velocity":61,"Duration":381949,"SoundDuration":381949,"Delta":198801720},{"NoteNumber":76,"Velocity":61,"Duration":88235,"SoundDuration":88235,"Delta":198801720},{"NoteNumber":50,"Velocity":42,"Duration":141176,"SoundDuration":141176,"Delta":198801720},{"NoteNumber":74,"Velocity":51,"Duration":293714,"SoundDuration":293714,"Delta":198889956},{"NoteNumber":54,"Velocity":37,"Duration":154713,"SoundDuration":154713,"Delta":198919367},{"NoteNumber":59,"Velocity":37,"Duration":136986,"SoundDuration":136986,"Delta":199046684},{"NoteNumber":69,"Velocity":55,"Duration":740741,"SoundDuration":740741,"Delta":199183670},{"NoteNumber":73,"Velocity":55,"Duration":740741,"SoundDuration":740741,"Delta":199183670},{"NoteNumber":52,"Velocity":44,"Duration":148148,"SoundDuration":148148,"Delta":199183670},{"NoteNumber":57,"Velocity":40,"Duration":148148,"SoundDuration":148148,"Delta":199307127},{"NoteNumber":61,"Velocity":40,"Duration":123456,"SoundDuration":123456,"Delta":199430584},{"NoteNumber":52,"Velocity":44,"Duration":148148,"SoundDuration":148148,"Delta":199554041},{"NoteNumber":57,"Velocity":42,"Duration":148148,"SoundDuration":148148,"Delta":199677498},{"NoteNumber":61,"Velocity":44,"Duration":123456,"SoundDuration":123456,"Delta":199800954},{"NoteNumber":71,"Velocity":53,"Duration":370370,"SoundDuration":370370,"Delta":199924411},{"NoteNumber":68,"Velocity":53,"Duration":370370,"SoundDuration":370370,"Delta":199924411},{"NoteNumber":52,"Velocity":48,"Duration":148148,"SoundDuration":148148,"Delta":199924411},{"NoteNumber":56,"Velocity":41,"Duration":148148,"SoundDuration":148148,"Delta":200047868},{"NoteNumber":59,"Velocity":42,"Duration":123456,"SoundDuration":123456,"Delta":200171325},{"NoteNumber":73,"Velocity":74,"Duration":141176,"SoundDuration":141176,"Delta":200294782},{"NoteNumber":45,"Velocity":74,"Duration":176470,"SoundDuration":176470,"Delta":200294782},{"NoteNumber":69,"Velocity":53,"Duration":141176,"SoundDuration":141176,"Delta":200412429},{"NoteNumber":64,"Velocity":53,"Duration":117646,"SoundDuration":117646,"Delta":200530076},{"NoteNumber":56,"Velocity":67,"Duration":44117,"SoundDuration":44117,"Delta":200603605},{"NoteNumber":73,"Velocity":72,"Duration":141176,"SoundDuration":141176,"Delta":200647723},{"NoteNumber":57,"Velocity":74,"Duration":176470,"SoundDuration":176470,"Delta":200647723},{"NoteNumber":69,"Velocity":53,"Duration":144189,"SoundDuration":144189,"Delta":200765370},{"NoteNumber":64,"Velocity":53,"Duration":121951,"SoundDuration":121951,"Delta":200885169},{"NoteNumber":74,"Velocity":71,"Duration":141176,"SoundDuration":141176,"Delta":201007120},{"NoteNumber":71,"Velocity":53,"Duration":141176,"SoundDuration":141176,"Delta":201124767},{"NoteNumber":64,"Velocity":53,"Duration":117646,"SoundDuration":117646,"Delta":201242414},{"NoteNumber":76,"Velocity":70,"Duration":141176,"SoundDuration":141176,"Delta":201360061},{"NoteNumber":45,"Velocity":74,"Duration":176470,"SoundDuration":176470,"Delta":201360061},{"NoteNumber":73,"Velocity":53,"Duration":141176,"SoundDuration":141176,"Delta":201477708},{"NoteNumber":64,"Velocity":53,"Duration":117647,"SoundDuration":117647,"Delta":201595355},{"NoteNumber":56,"Velocity":67,"Duration":44117,"SoundDuration":44117,"Delta":201668884},{"NoteNumber":76,"Velocity":71,"Duration":141176,"SoundDuration":141176,"Delta":201713002},{"NoteNumber":57,"Velocity":72,"Duration":176470,"SoundDuration":176470,"Delta":201713002},{"NoteNumber":73,"Velocity":53,"Duration":147431,"SoundDuration":147431,"Delta":201830649},{"NoteNumber":64,"Velocity":53,"Duration":123669,"SoundDuration":123669,"Delta":201952764},{"NoteNumber":78,"Velocity":68,"Duration":85847,"SoundDuration":85847,"Delta":202076433},{"NoteNumber":76,"Velocity":66,"Duration":87483,"SoundDuration":87483,"Delta":202162281},{"NoteNumber":74,"Velocity":64,"Duration":88900,"SoundDuration":88900,"Delta":202249765},{"NoteNumber":73,"Velocity":62,"Duration":91023,"SoundDuration":91023,"Delta":202338665},{"NoteNumber":71,"Velocity":74,"Duration":141176,"SoundDuration":141176,"Delta":202429689},{"NoteNumber":40,"Velocity":74,"Duration":176470,"SoundDuration":176470,"Delta":202429689},{"NoteNumber":68,"Velocity":53,"Duration":141176,"SoundDuration":141176,"Delta":202547336},{"NoteNumber":64,"Velocity":53,"Duration":117646,"SoundDuration":117646,"Delta":202664983},{"NoteNumber":51,"Velocity":67,"Duration":44117,"SoundDuration":44117,"Delta":202694394},{"NoteNumber":71,"Velocity":72,"Duration":141176,"SoundDuration":141176,"Delta":202782630},{"NoteNumber":52,"Velocity":74,"Duration":176470,"SoundDuration":176470,"Delta":202782630},{"NoteNumber":68,"Velocity":53,"Duration":144189,"SoundDuration":144189,"Delta":202900277},{"NoteNumber":64,"Velocity":53,"Duration":121951,"SoundDuration":121951,"Delta":203020076},{"NoteNumber":73,"Velocity":71,"Duration":141176,"SoundDuration":141176,"Delta":203142027},{"NoteNumber":69,"Velocity":53,"Duration":141176,"SoundDuration":141176,"Delta":203259674},{"NoteNumber":64,"Velocity":53,"Duration":117646,"SoundDuration":117646,"Delta":203377321},{"NoteNumber":74,"Velocity":70,"Duration":141176,"SoundDuration":141176,"Delta":203494968},{"NoteNumber":40,"Velocity":74,"Duration":176470,"SoundDuration":176470,"Delta":203494968},{"NoteNumber":71,"Velocity":53,"Duration":141176,"SoundDuration":141176,"Delta":203612615},{"NoteNumber":64,"Velocity":53,"Duration":117647,"SoundDuration":117647,"Delta":203730262},{"NoteNumber":51,"Velocity":67,"Duration":44117,"SoundDuration":44117,"Delta":203759674},{"NoteNumber":74,"Velocity":71,"Duration":141176,"SoundDuration":141176,"Delta":203847909},{"NoteNumber":52,"Velocity":72,"Duration":176470,"SoundDuration":176470,"Delta":203847909},{"NoteNumber":71,"Velocity":53,"Duration":147431,"SoundDuration":147431,"Delta":203965556},{"NoteNumber":64,"Velocity":53,"Duration":123669,"SoundDuration":123669,"Delta":204087671},{"NoteNumber":76,"Velocity":68,"Duration":85847,"SoundDuration":85847,"Delta":204211340},{"NoteNumber":74,"Velocity":66,"Duration":87483,"SoundDuration":87483,"Delta":204297188},{"NoteNumber":73,"Velocity":64,"Duration":88900,"SoundDuration":88900,"Delta":204384671},{"NoteNumber":71,"Velocity":62,"Duration":91023,"SoundDuration":91023,"Delta":204473572},{"NoteNumber":69,"Velocity":74,"Duration":141176,"SoundDuration":141176,"Delta":204564595},{"NoteNumber":40,"Velocity":74,"Duration":176470,"SoundDuration":176470,"Delta":204564595},{"NoteNumber":64,"Velocity":53,"Duration":141176,"SoundDuration":141176,"Delta":204682242},{"NoteNumber":61,"Velocity":53,"Duration":117646,"SoundDuration":117646,"Delta":204799889},{"NoteNumber":53,"Velocity":59,"Duration":44117,"SoundDuration":44117,"Delta":204829301},{"NoteNumber":69,"Velocity":72,"Duration":141176,"SoundDuration":141176,"Delta":204917536},{"NoteNumber":54,"Velocity":68,"Duration":176470,"SoundDuration":176470,"Delta":204917536},{"NoteNumber":64,"Velocity":53,"Duration":141176,"SoundDuration":141176,"Delta":205035183},{"NoteNumber":61,"Velocity":53,"Duration":117646,"SoundDuration":117646,"Delta":205152830},{"NoteNumber":55,"Velocity":62,"Duration":88235,"SoundDuration":88235,"Delta":205182242},{"NoteNumber":71,"Velocity":71,"Duration":134831,"SoundDuration":134831,"Delta":205270477},{"NoteNumber":56,"Velocity":70,"Duration":168539,"SoundDuration":168539,"Delta":205270477},{"NoteNumber":64,"Velocity":53,"Duration":134831,"SoundDuration":134831,"Delta":205382837},{"NoteNumber":62,"Velocity":53,"Duration":112359,"SoundDuration":112359,"Delta":205495196},{"NoteNumber":73,"Velocity":74,"Duration":141176,"SoundDuration":141176,"Delta":205607556},{"NoteNumber":45,"Velocity":74,"Duration":176470,"SoundDuration":176470,"Delta":205607556},{"NoteNumber":69,"Velocity":53,"Duration":141176,"SoundDuration":141176,"Delta":205725203},{"NoteNumber":64,"Velocity":53,"Duration":117646,"SoundDuration":117646,"Delta":205842850},{"NoteNumber":56,"Velocity":63,"Duration":44117,"SoundDuration":44117,"Delta":205872262},{"NoteNumber":73,"Velocity":72,"Duration":141176,"SoundDuration":141176,"Delta":205960497},{"NoteNumber":57,"Velocity":67,"Duration":176470,"SoundDuration":176470,"Delta":205960497},{"NoteNumber":69,"Velocity":53,"Duration":141176,"SoundDuration":141176,"Delta":206078144},{"NoteNumber":64,"Velocity":53,"Duration":117647,"SoundDuration":117647,"Delta":206195791},{"NoteNumber":49,"Velocity":63,"Duration":88235,"SoundDuration":88235,"Delta":206225203},{"NoteNumber":74,"Velocity":71,"Duration":139534,"SoundDuration":139534,"Delta":206313438},{"NoteNumber":50,"Velocity":69,"Duration":174418,"SoundDuration":174418,"Delta":206313438},{"NoteNumber":71,"Velocity":53,"Duration":139534,"SoundDuration":139534,"Delta":206429717},{"NoteNumber":66,"Velocity":53,"Duration":116278,"SoundDuration":116278,"Delta":206545996},{"NoteNumber":73,"Velocity":74,"Duration":141176,"SoundDuration":141176,"Delta":206662275},{"NoteNumber":40,"Velocity":74,"Duration":176470,"SoundDuration":176470,"Delta":206662275},{"NoteNumber":69,"Velocity":53,"Duration":141176,"SoundDuration":141176,"Delta":206779922},{"NoteNumber":64,"Velocity":53,"Duration":117646,"SoundDuration":117646,"Delta":206897569},{"NoteNumber":51,"Velocity":62,"Duration":44117,"SoundDuration":44117,"Delta":206926981},{"NoteNumber":73,"Velocity":72,"Duration":141176,"SoundDuration":141176,"Delta":207015216},{"NoteNumber":52,"Velocity":67,"Duration":176470,"SoundDuration":176470,"Delta":207015216},{"NoteNumber":69,"Velocity":53,"Duration":141176,"SoundDuration":141176,"Delta":207132863},{"NoteNumber":64,"Velocity":53,"Duration":117647,"SoundDuration":117647,"Delta":207250510},{"NoteNumber":51,"Velocity":61,"Duration":88235,"SoundDuration":88235,"Delta":207279922},{"NoteNumber":71,"Velocity":71,"Duration":141176,"SoundDuration":141176,"Delta":207368157},{"NoteNumber":52,"Velocity":68,"Duration":176470,"SoundDuration":176470,"Delta":207368157},{"NoteNumber":68,"Velocity":53,"Duration":141176,"SoundDuration":141176,"Delta":207485804},{"NoteNumber":62,"Velocity":53,"Duration":117646,"SoundDuration":117646,"Delta":207603451},{"NoteNumber":69,"Velocity":74,"Duration":148148,"SoundDuration":148148,"Delta":207721098},{"NoteNumber":33,"Velocity":74,"Duration":185185,"SoundDuration":185185,"Delta":207721098},{"NoteNumber":64,"Velocity":53,"Duration":148148,"SoundDuration":148148,"Delta":207844555},{"NoteNumber":61,"Velocity":53,"Duration":148148,"SoundDuration":148148,"Delta":207968012},{"NoteNumber":44,"Velocity":61,"Duration":46296,"SoundDuration":46296,"Delta":207998876},{"NoteNumber":57,"Velocity":72,"Duration":185185,"SoundDuration":185185,"Delta":208091468},{"NoteNumber":45,"Velocity":67,"Duration":185185,"SoundDuration":185185,"Delta":208091468},{"NoteNumber":73,"Velocity":53,"Duration":88235,"SoundDuration":88235,"Delta":208832209},{"NoteNumber":57,"Velocity":44,"Duration":141176,"SoundDuration":141176,"Delta":208832209},{"NoteNumber":63,"Velocity":33,"Duration":141176,"SoundDuration":141176,"Delta":208949856},{"NoteNumber":64,"Velocity":33,"Duration":117646,"SoundDuration":117646,"Delta":209067503},{"NoteNumber":73,"Velocity":49,"Duration":88235,"SoundDuration":88235,"Delta":209185150},{"NoteNumber":57,"Velocity":40,"Duration":141176,"SoundDuration":141176,"Delta":209185150},{"NoteNumber":63,"Velocity":32,"Duration":144189,"SoundDuration":144189,"Delta":209302797},{"NoteNumber":64,"Velocity":32,"Duration":121951,"SoundDuration":121951,"Delta":209422596},{"NoteNumber":74,"Velocity":49,"Duration":58823,"SoundDuration":58823,"Delta":209544548},{"NoteNumber":59,"Velocity":40,"Duration":141176,"SoundDuration":141176,"Delta":209544548},{"NoteNumber":76,"Velocity":47,"Duration":58823,"SoundDuration":58823,"Delta":209603371},{"NoteNumber":74,"Velocity":47,"Duration":58823,"SoundDuration":58823,"Delta":209662195},{"NoteNumber":63,"Velocity":32,"Duration":141176,"SoundDuration":141176,"Delta":209662195},{"NoteNumber":73,"Velocity":49,"Duration":88235,"SoundDuration":88235,"Delta":209721018},{"NoteNumber":64,"Velocity":32,"Duration":117646,"SoundDuration":117646,"Delta":209779842},{"NoteNumber":74,"Velocity":49,"Duration":88235,"SoundDuration":88235,"Delta":209809253},{"NoteNumber":76,"Velocity":53,"Duration":352941,"SoundDuration":352941,"Delta":209897489},{"NoteNumber":61,"Velocity":41,"Duration":141176,"SoundDuration":141176,"Delta":209897489},{"NoteNumber":63,"Velocity":30,"Duration":141176,"SoundDuration":141176,"Delta":210015136},{"NoteNumber":64,"Velocity":30,"Duration":117647,"SoundDuration":117647,"Delta":210132783},{"NoteNumber":61,"Velocity":40,"Duration":141176,"SoundDuration":141176,"Delta":210250430},{"NoteNumber":63,"Velocity":28,"Duration":147431,"SoundDuration":147431,"Delta":210368077},{"NoteNumber":64,"Velocity":28,"Duration":123669,"SoundDuration":123669,"Delta":210490191},{"NoteNumber":78,"Velocity":53,"Duration":94535,"SoundDuration":94535,"Delta":210613861},{"NoteNumber":57,"Velocity":40,"Duration":138139,"SoundDuration":138139,"Delta":210613861},{"NoteNumber":76,"Velocity":52,"Duration":96307,"SoundDuration":96307,"Delta":210699708},{"NoteNumber":63,"Velocity":34,"Duration":141395,"SoundDuration":141395,"Delta":210728745},{"NoteNumber":74,"Velocity":51,"Duration":97900,"SoundDuration":97900,"Delta":210787192},{"NoteNumber":64,"Velocity":36,"Duration":120785,"SoundDuration":120785,"Delta":210846331},{"NoteNumber":73,"Velocity":49,"Duration":99847,"SoundDuration":99847,"Delta":210876093},{"NoteNumber":71,"Velocity":53,"Duration":88235,"SoundDuration":88235,"Delta":210967116},{"NoteNumber":56,"Velocity":44,"Duration":141176,"SoundDuration":141176,"Delta":210967116},{"NoteNumber":63,"Velocity":33,"Duration":141176,"SoundDuration":141176,"Delta":211084763},{"NoteNumber":64,"Velocity":33,"Duration":117646,"SoundDuration":117646,"Delta":211202410},{"NoteNumber":71,"Velocity":49,"Duration":88235,"SoundDuration":88235,"Delta":211320057},{"NoteNumber":56,"Velocity":40,"Duration":141176,"SoundDuration":141176,"Delta":211320057},{"NoteNumber":63,"Velocity":33,"Duration":144189,"SoundDuration":144189,"Delta":211437704},{"NoteNumber":64,"Velocity":33,"Duration":121951,"SoundDuration":121951,"Delta":211557503},{"NoteNumber":73,"Velocity":49,"Duration":58823,"SoundDuration":58823,"Delta":211679454},{"NoteNumber":57,"Velocity":40,"Duration":141176,"SoundDuration":141176,"Delta":211679454},{"NoteNumber":74,"Velocity":47,"Duration":58823,"SoundDuration":58823,"Delta":211738278},{"NoteNumber":73,"Velocity":47,"Duration":58823,"SoundDuration":58823,"Delta":211797101},{"NoteNumber":63,"Velocity":33,"Duration":141176,"SoundDuration":141176,"Delta":211797101},{"NoteNumber":71,"Velocity":49,"Duration":88235,"SoundDuration":88235,"Delta":211855925},{"NoteNumber":64,"Velocity":33,"Duration":117646,"SoundDuration":117646,"Delta":211914748},{"NoteNumber":73,"Velocity":49,"Duration":88235,"SoundDuration":88235,"Delta":211944160},{"NoteNumber":74,"Velocity":53,"Duration":352941,"SoundDuration":352941,"Delta":212032395},{"NoteNumber":59,"Velocity":45,"Duration":141176,"SoundDuration":141176,"Delta":212032395},{"NoteNumber":63,"Velocity":34,"Duration":141176,"SoundDuration":141176,"Delta":212150042},{"NoteNumber":64,"Velocity":34,"Duration":117647,"SoundDuration":117647,"Delta":212267689},{"NoteNumber":59,"Velocity":38,"Duration":141176,"SoundDuration":141176,"Delta":212385336},{"NoteNumber":63,"Velocity":30,"Duration":147431,"SoundDuration":147431,"Delta":212502983},{"NoteNumber":64,"Velocity":31,"Duration":123669,"SoundDuration":123669,"Delta":212625098},{"NoteNumber":76,"Velocity":53,"Duration":94535,"SoundDuration":94535,"Delta":212748768},{"NoteNumber":56,"Velocity":40,"Duration":138139,"SoundDuration":138139,"Delta":212748768},{"NoteNumber":74,"Velocity":52,"Duration":96307,"SoundDuration":96307,"Delta":212834615},{"NoteNumber":63,"Velocity":36,"Duration":141395,"SoundDuration":141395,"Delta":212863652},{"NoteNumber":73,"Velocity":51,"Duration":97900,"SoundDuration":97900,"Delta":212922099},{"NoteNumber":64,"Velocity":36,"Duration":120785,"SoundDuration":120785,"Delta":212981238},{"NoteNumber":71,"Velocity":49,"Duration":99847,"SoundDuration":99847,"Delta":213010999},{"NoteNumber":69,"Velocity":53,"Duration":88235,"SoundDuration":88235,"Delta":213102023},{"NoteNumber":54,"Velocity":44,"Duration":141176,"SoundDuration":141176,"Delta":213102023},{"NoteNumber":63,"Velocity":35,"Duration":141176,"SoundDuration":141176,"Delta":213219670},{"NoteNumber":64,"Velocity":35,"Duration":117646,"SoundDuration":117646,"Delta":213337317},{"NoteNumber":69,"Velocity":49,"Duration":88235,"SoundDuration":88235,"Delta":213454964},{"NoteNumber":54,"Velocity":40,"Duration":141176,"SoundDuration":141176,"Delta":213454964},{"NoteNumber":63,"Velocity":32,"Duration":144189,"SoundDuration":144189,"Delta":213572611},{"NoteNumber":64,"Velocity":32,"Duration":121951,"SoundDuration":121951,"Delta":213692410},{"NoteNumber":69,"Velocity":49,"Duration":58823,"SoundDuration":58823,"Delta":213814361},{"NoteNumber":54,"Velocity":40,"Duration":141176,"SoundDuration":141176,"Delta":213814361},{"NoteNumber":71,"Velocity":47,"Duration":58823,"SoundDuration":58823,"Delta":213873185},{"NoteNumber":69,"Velocity":47,"Duration":58823,"SoundDuration":58823,"Delta":213932008},{"NoteNumber":63,"Velocity":32,"Duration":141176,"SoundDuration":141176,"Delta":213932008},{"NoteNumber":68,"Velocity":49,"Duration":88235,"SoundDuration":88235,"Delta":213990832},{"NoteNumber":64,"Velocity":32,"Duration":117646,"SoundDuration":117646,"Delta":214049655},{"NoteNumber":69,"Velocity":49,"Duration":88235,"SoundDuration":88235,"Delta":214079067},{"NoteNumber":71,"Velocity":53,"Duration":88235,"SoundDuration":88235,"Delta":214167302},{"NoteNumber":56,"Velocity":44,"Duration":141176,"SoundDuration":141176,"Delta":214167302},{"NoteNumber":62,"Velocity":34,"Duration":141176,"SoundDuration":141176,"Delta":214284949},{"NoteNumber":64,"Velocity":34,"Duration":117646,"SoundDuration":117646,"Delta":214402596},{"NoteNumber":71,"Velocity":49,"Duration":88235,"SoundDuration":88235,"Delta":214520243},{"NoteNumber":56,"Velocity":40,"Duration":141176,"SoundDuration":141176,"Delta":214520243},{"NoteNumber":62,"Velocity":32,"Duration":144189,"SoundDuration":144189,"Delta":214637890},{"NoteNumber":64,"Velocity":32,"Duration":121951,"SoundDuration":121951,"Delta":214757689},{"NoteNumber":71,"Velocity":49,"Duration":58823,"SoundDuration":58823,"Delta":214879640},{"NoteNumber":56,"Velocity":40,"Duration":141176,"SoundDuration":141176,"Delta":214879640},{"NoteNumber":73,"Velocity":47,"Duration":58823,"SoundDuration":58823,"Delta":214938464},{"NoteNumber":71,"Velocity":47,"Duration":58823,"SoundDuration":58823,"Delta":214997287},{"NoteNumber":62,"Velocity":32,"Duration":141176,"SoundDuration":141176,"Delta":214997287},{"NoteNumber":69,"Velocity":49,"Duration":88235,"SoundDuration":88235,"Delta":215056111},{"NoteNumber":64,"Velocity":32,"Duration":117646,"SoundDuration":117646,"Delta":215114934},{"NoteNumber":71,"Velocity":49,"Duration":88235,"SoundDuration":88235,"Delta":215144346},{"NoteNumber":73,"Velocity":58,"Duration":88235,"SoundDuration":88235,"Delta":215232581},{"NoteNumber":57,"Velocity":44,"Duration":141176,"SoundDuration":141176,"Delta":215232581},{"NoteNumber":61,"Velocity":35,"Duration":141176,"SoundDuration":141176,"Delta":215350228},{"NoteNumber":64,"Velocity":33,"Duration":117646,"SoundDuration":117646,"Delta":215467875},{"NoteNumber":73,"Velocity":54,"Duration":88235,"SoundDuration":88235,"Delta":215585522},{"NoteNumber":57,"Velocity":40,"Duration":141176,"SoundDuration":141176,"Delta":215585522},{"NoteNumber":61,"Velocity":35,"Duration":149732,"SoundDuration":149732,"Delta":215703169},{"NoteNumber":64,"Velocity":35,"Duration":129870,"SoundDuration":129870,"Delta":215826928},{"NoteNumber":71,"Velocity":61,"Duration":381949,"SoundDuration":381949,"Delta":215956798},{"NoteNumber":76,"Velocity":61,"Duration":88235,"SoundDuration":88235,"Delta":215956798},{"NoteNumber":50,"Velocity":42,"Duration":141176,"SoundDuration":141176,"Delta":215956798},{"NoteNumber":74,"Velocity":51,"Duration":293714,"SoundDuration":293714,"Delta":216045033},{"NoteNumber":54,"Velocity":37,"Duration":154713,"SoundDuration":154713,"Delta":216074445},{"NoteNumber":59,"Velocity":37,"Duration":136986,"SoundDuration":136986,"Delta":216201762},{"NoteNumber":69,"Velocity":55,"Duration":740741,"SoundDuration":740741,"Delta":216338748},{"NoteNumber":73,"Velocity":55,"Duration":740741,"SoundDuration":740741,"Delta":216338748},{"NoteNumber":52,"Velocity":44,"Duration":148148,"SoundDuration":148148,"Delta":216338748},{"NoteNumber":57,"Velocity":40,"Duration":148148,"SoundDuration":148148,"Delta":216462205},{"NoteNumber":61,"Velocity":40,"Duration":123456,"SoundDuration":123456,"Delta":216585662},{"NoteNumber":52,"Velocity":44,"Duration":148148,"SoundDuration":148148,"Delta":216709119},{"NoteNumber":57,"Velocity":42,"Duration":148148,"SoundDuration":148148,"Delta":216832576},{"NoteNumber":61,"Velocity":44,"Duration":123456,"SoundDuration":123456,"Delta":216956032},{"NoteNumber":71,"Velocity":53,"Duration":370370,"SoundDuration":370370,"Delta":217079489},{"NoteNumber":68,"Velocity":53,"Duration":370370,"SoundDuration":370370,"Delta":217079489},{"NoteNumber":52,"Velocity":48,"Duration":148148,"SoundDuration":148148,"Delta":217079489},{"NoteNumber":56,"Velocity":41,"Duration":148148,"SoundDuration":148148,"Delta":217202946},{"NoteNumber":59,"Velocity":42,"Duration":123456,"SoundDuration":123456,"Delta":217324860},{"NoteNumber":73,"Velocity":74,"Duration":141176,"SoundDuration":141176,"Delta":217449860},{"NoteNumber":45,"Velocity":74,"Duration":176470,"SoundDuration":176470,"Delta":217449860},{"NoteNumber":69,"Velocity":53,"Duration":141176,"SoundDuration":141176,"Delta":217567507},{"NoteNumber":64,"Velocity":53,"Duration":117646,"SoundDuration":117646,"Delta":217685154},{"NoteNumber":56,"Velocity":67,"Duration":44117,"SoundDuration":44117,"Delta":217758683},{"NoteNumber":73,"Velocity":72,"Duration":141176,"SoundDuration":141176,"Delta":217802801},{"NoteNumber":57,"Velocity":74,"Duration":176470,"SoundDuration":176470,"Delta":217802801},{"NoteNumber":69,"Velocity":53,"Duration":144189,"SoundDuration":144189,"Delta":217920448},{"NoteNumber":64,"Velocity":53,"Duration":121951,"SoundDuration":121951,"Delta":218040247},{"NoteNumber":74,"Velocity":71,"Duration":141176,"SoundDuration":141176,"Delta":218162198},{"NoteNumber":71,"Velocity":53,"Duration":141176,"SoundDuration":141176,"Delta":218279845},{"NoteNumber":64,"Velocity":53,"Duration":117647,"SoundDuration":117647,"Delta":218396021},{"NoteNumber":76,"Velocity":70,"Duration":141176,"SoundDuration":141176,"Delta":218515139},{"NoteNumber":45,"Velocity":74,"Duration":176470,"SoundDuration":176470,"Delta":218515139},{"NoteNumber":73,"Velocity":53,"Duration":141176,"SoundDuration":141176,"Delta":218632786},{"NoteNumber":64,"Velocity":53,"Duration":117647,"SoundDuration":117647,"Delta":218750433},{"NoteNumber":56,"Velocity":67,"Duration":44117,"SoundDuration":44117,"Delta":218823962},{"NoteNumber":76,"Velocity":71,"Duration":141176,"SoundDuration":141176,"Delta":218868080},{"NoteNumber":57,"Velocity":72,"Duration":176470,"SoundDuration":176470,"Delta":218868080},{"NoteNumber":73,"Velocity":53,"Duration":147431,"SoundDuration":147431,"Delta":218985727},{"NoteNumber":64,"Velocity":53,"Duration":123669,"SoundDuration":123669,"Delta":219107842},{"NoteNumber":78,"Velocity":68,"Duration":85847,"SoundDuration":85847,"Delta":219231511},{"NoteNumber":76,"Velocity":66,"Duration":87483,"SoundDuration":87483,"Delta":219317359},{"NoteNumber":74,"Velocity":64,"Duration":88900,"SoundDuration":88900,"Delta":219404842},{"NoteNumber":73,"Velocity":62,"Duration":91023,"SoundDuration":91023,"Delta":219493743},{"NoteNumber":71,"Velocity":74,"Duration":141176,"SoundDuration":141176,"Delta":219584766},{"NoteNumber":40,"Velocity":74,"Duration":176470,"SoundDuration":176470,"Delta":219584766},{"NoteNumber":68,"Velocity":53,"Duration":141176,"SoundDuration":141176,"Delta":219702413},{"NoteNumber":64,"Velocity":53,"Duration":117646,"SoundDuration":117646,"Delta":219820060},{"NoteNumber":51,"Velocity":67,"Duration":44117,"SoundDuration":44117,"Delta":219849472},{"NoteNumber":71,"Velocity":72,"Duration":141176,"SoundDuration":141176,"Delta":219937707},{"NoteNumber":52,"Velocity":74,"Duration":176470,"SoundDuration":176470,"Delta":219937707},{"NoteNumber":68,"Velocity":53,"Duration":144189,"SoundDuration":144189,"Delta":220055354},{"NoteNumber":64,"Velocity":53,"Duration":121951,"SoundDuration":121951,"Delta":220175154},{"NoteNumber":73,"Velocity":71,"Duration":141176,"SoundDuration":141176,"Delta":220297105},{"NoteNumber":69,"Velocity":53,"Duration":141176,"SoundDuration":141176,"Delta":220414752},{"NoteNumber":64,"Velocity":53,"Duration":117646,"SoundDuration":117646,"Delta":220532399},{"NoteNumber":74,"Velocity":70,"Duration":141176,"SoundDuration":141176,"Delta":220650046},{"NoteNumber":40,"Velocity":74,"Duration":176470,"SoundDuration":176470,"Delta":220650046},{"NoteNumber":71,"Velocity":53,"Duration":141176,"SoundDuration":141176,"Delta":220767693},{"NoteNumber":64,"Velocity":53,"Duration":117647,"SoundDuration":117647,"Delta":220885340},{"NoteNumber":51,"Velocity":67,"Duration":44117,"SoundDuration":44117,"Delta":220914751},{"NoteNumber":74,"Velocity":71,"Duration":141176,"SoundDuration":141176,"Delta":221002987},{"NoteNumber":52,"Velocity":72,"Duration":176470,"SoundDuration":176470,"Delta":221002987},{"NoteNumber":71,"Velocity":53,"Duration":147431,"SoundDuration":147431,"Delta":221120634},{"NoteNumber":64,"Velocity":53,"Duration":123669,"SoundDuration":123669,"Delta":221242748},{"NoteNumber":76,"Velocity":68,"Duration":85847,"SoundDuration":85847,"Delta":221366418},{"NoteNumber":74,"Velocity":66,"Duration":87483,"SoundDuration":87483,"Delta":221452266},{"NoteNumber":73,"Velocity":64,"Duration":88900,"SoundDuration":88900,"Delta":221539749},{"NoteNumber":71,"Velocity":62,"Duration":91023,"SoundDuration":91023,"Delta":221628650},{"NoteNumber":69,"Velocity":74,"Duration":141176,"SoundDuration":141176,"Delta":221719673},{"NoteNumber":40,"Velocity":74,"Duration":176470,"SoundDuration":176470,"Delta":221719673},{"NoteNumber":64,"Velocity":53,"Duration":141176,"SoundDuration":141176,"Delta":221837320},{"NoteNumber":61,"Velocity":53,"Duration":117646,"SoundDuration":117646,"Delta":221954967},{"NoteNumber":53,"Velocity":59,"Duration":44117,"SoundDuration":44117,"Delta":221984379},{"NoteNumber":69,"Velocity":72,"Duration":141176,"SoundDuration":141176,"Delta":222072614},{"NoteNumber":54,"Velocity":68,"Duration":176470,"SoundDuration":176470,"Delta":222072614},{"NoteNumber":64,"Velocity":53,"Duration":141176,"SoundDuration":141176,"Delta":222190261},{"NoteNumber":61,"Velocity":53,"Duration":117646,"SoundDuration":117646,"Delta":222307908},{"NoteNumber":55,"Velocity":62,"Duration":88235,"SoundDuration":88235,"Delta":222337320},{"NoteNumber":71,"Velocity":71,"Duration":134831,"SoundDuration":134831,"Delta":222425555},{"NoteNumber":56,"Velocity":70,"Duration":168539,"SoundDuration":168539,"Delta":222425555},{"NoteNumber":64,"Velocity":53,"Duration":134831,"SoundDuration":134831,"Delta":222537915},{"NoteNumber":62,"Velocity":53,"Duration":112359,"SoundDuration":112359,"Delta":222650274},{"NoteNumber":73,"Velocity":74,"Duration":141176,"SoundDuration":141176,"Delta":222762634},{"NoteNumber":45,"Velocity":74,"Duration":176470,"SoundDuration":176470,"Delta":222762634},{"NoteNumber":69,"Velocity":53,"Duration":141176,"SoundDuration":141176,"Delta":222880281},{"NoteNumber":64,"Velocity":53,"Duration":117646,"SoundDuration":117646,"Delta":222997928},{"NoteNumber":56,"Velocity":63,"Duration":44117,"SoundDuration":44117,"Delta":223027339},{"NoteNumber":73,"Velocity":72,"Duration":141176,"SoundDuration":141176,"Delta":223115575},{"NoteNumber":57,"Velocity":67,"Duration":176470,"SoundDuration":176470,"Delta":223115575},{"NoteNumber":69,"Velocity":53,"Duration":141176,"SoundDuration":141176,"Delta":223233222},{"NoteNumber":64,"Velocity":53,"Duration":117647,"SoundDuration":117647,"Delta":223350869},{"NoteNumber":49,"Velocity":63,"Duration":88235,"SoundDuration":88235,"Delta":223380280},{"NoteNumber":74,"Velocity":71,"Duration":139534,"SoundDuration":139534,"Delta":223468516},{"NoteNumber":50,"Velocity":69,"Duration":174418,"SoundDuration":174418,"Delta":223468516},{"NoteNumber":71,"Velocity":53,"Duration":139534,"SoundDuration":139534,"Delta":223584795},{"NoteNumber":66,"Velocity":53,"Duration":116278,"SoundDuration":116278,"Delta":223701074},{"NoteNumber":73,"Velocity":74,"Duration":141176,"SoundDuration":141176,"Delta":223817353},{"NoteNumber":40,"Velocity":74,"Duration":176470,"SoundDuration":176470,"Delta":223817353},{"NoteNumber":69,"Velocity":53,"Duration":141176,"SoundDuration":141176,"Delta":223935000},{"NoteNumber":64,"Velocity":53,"Duration":117646,"SoundDuration":117646,"Delta":224052647},{"NoteNumber":51,"Velocity":62,"Duration":44117,"SoundDuration":44117,"Delta":224082058},{"NoteNumber":73,"Velocity":72,"Duration":141176,"SoundDuration":141176,"Delta":224170294},{"NoteNumber":52,"Velocity":67,"Duration":176470,"SoundDuration":176470,"Delta":224170294},{"NoteNumber":69,"Velocity":53,"Duration":141176,"SoundDuration":141176,"Delta":224287941},{"NoteNumber":64,"Velocity":53,"Duration":117647,"SoundDuration":117647,"Delta":224405588},{"NoteNumber":51,"Velocity":61,"Duration":88235,"SoundDuration":88235,"Delta":224434999},{"NoteNumber":71,"Velocity":71,"Duration":141176,"SoundDuration":141176,"Delta":224523235},{"NoteNumber":52,"Velocity":68,"Duration":176470,"SoundDuration":176470,"Delta":224523235},{"NoteNumber":68,"Velocity":53,"Duration":141176,"SoundDuration":141176,"Delta":224640882},{"NoteNumber":62,"Velocity":53,"Duration":117646,"SoundDuration":117646,"Delta":224758529},{"NoteNumber":69,"Velocity":74,"Duration":148148,"SoundDuration":148148,"Delta":224876176},{"NoteNumber":33,"Velocity":74,"Duration":185185,"SoundDuration":185185,"Delta":224876176},{"NoteNumber":64,"Velocity":53,"Duration":148148,"SoundDuration":148148,"Delta":224999633},{"NoteNumber":61,"Velocity":53,"Duration":148148,"SoundDuration":148148,"Delta":225123089},{"NoteNumber":44,"Velocity":61,"Duration":46296,"SoundDuration":46296,"Delta":225153954},{"NoteNumber":57,"Velocity":72,"Duration":185185,"SoundDuration":185185,"Delta":225246546},{"NoteNumber":45,"Velocity":67,"Duration":185185,"SoundDuration":185185,"Delta":225246546},{"NoteNumber":76,"Velocity":50,"Duration":92592,"SoundDuration":92592,"Delta":225987287},{"NoteNumber":57,"Velocity":37,"Duration":148148,"SoundDuration":148148,"Delta":225987287},{"NoteNumber":61,"Velocity":30,"Duration":148148,"SoundDuration":148148,"Delta":226110744},{"NoteNumber":64,"Velocity":29,"Duration":123456,"SoundDuration":123456,"Delta":226235744},{"NoteNumber":74,"Velocity":48,"Duration":92592,"SoundDuration":92592,"Delta":226357658},{"NoteNumber":57,"Velocity":38,"Duration":148148,"SoundDuration":148148,"Delta":226357658},{"NoteNumber":59,"Velocity":30,"Duration":148148,"SoundDuration":148148,"Delta":226481115},{"NoteNumber":62,"Velocity":30,"Duration":123456,"SoundDuration":123456,"Delta":226604571},{"NoteNumber":76,"Velocity":50,"Duration":98684,"SoundDuration":98684,"Delta":226728028},{"NoteNumber":57,"Velocity":38,"Duration":157894,"SoundDuration":157894,"Delta":226728028},{"NoteNumber":61,"Velocity":30,"Duration":157894,"SoundDuration":157894,"Delta":226859607},{"NoteNumber":64,"Velocity":30,"Duration":131578,"SoundDuration":131578,"Delta":226991186},{"NoteNumber":78,"Velocity":50,"Duration":185185,"SoundDuration":185185,"Delta":227122765},{"NoteNumber":57,"Velocity":38,"Duration":148148,"SoundDuration":148148,"Delta":227122765},{"NoteNumber":62,"Velocity":28,"Duration":148148,"SoundDuration":148148,"Delta":227246222},{"NoteNumber":66,"Velocity":28,"Duration":123456,"SoundDuration":123456,"Delta":227369679},{"NoteNumber":57,"Velocity":35,"Duration":148148,"SoundDuration":148148,"Delta":227493136},{"NoteNumber":62,"Velocity":28,"Duration":148148,"SoundDuration":148148,"Delta":227616593},{"NoteNumber":66,"Velocity":28,"Duration":123456,"SoundDuration":123456,"Delta":227740049},{"NoteNumber":78,"Velocity":50,"Duration":33783,"SoundDuration":33783,"Delta":227863506},{"NoteNumber":57,"Velocity":38,"Duration":162162,"SoundDuration":162162,"Delta":227863506},{"NoteNumber":80,"Velocity":44,"Duration":33783,"SoundDuration":33783,"Delta":227897290},{"NoteNumber":78,"Velocity":44,"Duration":33783,"SoundDuration":33783,"Delta":227931074},{"NoteNumber":76,"Velocity":50,"Duration":101351,"SoundDuration":101351,"Delta":227964858},{"NoteNumber":62,"Velocity":32,"Duration":162162,"SoundDuration":162162,"Delta":227998641},{"NoteNumber":78,"Velocity":49,"Duration":101351,"SoundDuration":101351,"Delta":228066209},{"NoteNumber":66,"Velocity":32,"Duration":135135,"SoundDuration":135135,"Delta":228133777},{"NoteNumber":80,"Velocity":49,"Duration":101351,"SoundDuration":101351,"Delta":228167560},{"NoteNumber":81,"Velocity":56,"Duration":189873,"SoundDuration":189873,"Delta":228268912},{"NoteNumber":57,"Velocity":37,"Duration":151898,"SoundDuration":151898,"Delta":228268912},{"NoteNumber":66,"Velocity":33,"Duration":151898,"SoundDuration":151898,"Delta":228395494},{"NoteNumber":69,"Velocity":33,"Duration":126582,"SoundDuration":126582,"Delta":228522076},{"NoteNumber":80,"Velocity":52,"Duration":94936,"SoundDuration":94936,"Delta":228648659},{"NoteNumber":57,"Velocity":38,"Duration":151898,"SoundDuration":151898,"Delta":228648659},{"NoteNumber":64,"Velocity":33,"Duration":151898,"SoundDuration":151898,"Delta":228775241},{"NoteNumber":68,"Velocity":33,"Duration":126582,"SoundDuration":126582,"Delta":228901823},{"NoteNumber":78,"Velocity":50,"Duration":94936,"SoundDuration":94936,"Delta":229028406},{"NoteNumber":57,"Velocity":38,"Duration":151898,"SoundDuration":151898,"Delta":229028406},{"NoteNumber":62,"Velocity":34,"Duration":151898,"SoundDuration":151898,"Delta":229154988},{"NoteNumber":66,"Velocity":31,"Duration":126582,"SoundDuration":126582,"Delta":229281570},{"NoteNumber":76,"Velocity":50,"Duration":185185,"SoundDuration":185185,"Delta":229408153},{"NoteNumber":57,"Velocity":36,"Duration":148148,"SoundDuration":148148,"Delta":229408153},{"NoteNumber":61,"Velocity":27,"Duration":148148,"SoundDuration":148148,"Delta":229531610},{"NoteNumber":64,"Velocity":27,"Duration":123456,"SoundDuration":123456,"Delta":229655066},{"NoteNumber":57,"Velocity":35,"Duration":148148,"SoundDuration":148148,"Delta":229778523},{"NoteNumber":61,"Velocity":28,"Duration":148148,"SoundDuration":148148,"Delta":229901980},{"NoteNumber":64,"Velocity":28,"Duration":123456,"SoundDuration":123456,"Delta":230025437},{"NoteNumber":73,"Velocity":50,"Duration":33783,"SoundDuration":33783,"Delta":230148894},{"NoteNumber":57,"Velocity":38,"Duration":162162,"SoundDuration":162162,"Delta":230148894},{"NoteNumber":74,"Velocity":44,"Duration":33783,"SoundDuration":33783,"Delta":230182678},{"NoteNumber":73,"Velocity":44,"Duration":33783,"SoundDuration":33783,"Delta":230216461},{"NoteNumber":71,"Velocity":50,"Duration":101351,"SoundDuration":101351,"Delta":230250245},{"NoteNumber":61,"Velocity":33,"Duration":162162,"SoundDuration":162162,"Delta":230284029},{"NoteNumber":73,"Velocity":51,"Duration":101351,"SoundDuration":101351,"Delta":230351596},{"NoteNumber":64,"Velocity":33,"Duration":135135,"SoundDuration":135135,"Delta":230419164},{"NoteNumber":74,"Velocity":55,"Duration":101351,"SoundDuration":101351,"Delta":230452948},{"NoteNumber":76,"Velocity":60,"Duration":379747,"SoundDuration":379747,"Delta":230554299},{"NoteNumber":57,"Velocity":42,"Duration":151898,"SoundDuration":151898,"Delta":230554299},{"NoteNumber":61,"Velocity":34,"Duration":151898,"SoundDuration":151898,"Delta":230680882},{"NoteNumber":64,"Velocity":34,"Duration":126582,"SoundDuration":126582,"Delta":230807464},{"NoteNumber":73,"Velocity":58,"Duration":94936,"SoundDuration":94936,"Delta":230934046},{"NoteNumber":57,"Velocity":38,"Duration":151898,"SoundDuration":151898,"Delta":230934046},{"NoteNumber":61,"Velocity":33,"Duration":151898,"SoundDuration":151898,"Delta":231060629},{"NoteNumber":64,"Velocity":33,"Duration":126582,"SoundDuration":126582,"Delta":231187211},{"NoteNumber":57,"Velocity":38,"Duration":162162,"SoundDuration":162162,"Delta":231313793},{"NoteNumber":61,"Velocity":34,"Duration":162162,"SoundDuration":162162,"Delta":231448928},{"NoteNumber":64,"Velocity":35,"Duration":135135,"SoundDuration":135135,"Delta":231584064},{"NoteNumber":69,"Velocity":58,"Duration":101351,"SoundDuration":101351,"Delta":231617847},{"NoteNumber":76,"Velocity":65,"Duration":379747,"SoundDuration":379747,"Delta":231719199},{"NoteNumber":59,"Velocity":41,"Duration":151898,"SoundDuration":151898,"Delta":231719199},{"NoteNumber":62,"Velocity":36,"Duration":151898,"SoundDuration":151898,"Delta":231845781},{"NoteNumber":64,"Velocity":37,"Duration":126582,"SoundDuration":126582,"Delta":231972363},{"NoteNumber":74,"Velocity":59,"Duration":94936,"SoundDuration":94936,"Delta":232098946},{"NoteNumber":59,"Velocity":44,"Duration":151898,"SoundDuration":151898,"Delta":232098946},{"NoteNumber":62,"Velocity":37,"Duration":151898,"SoundDuration":151898,"Delta":232225528},{"NoteNumber":64,"Velocity":39,"Duration":126582,"SoundDuration":126582,"Delta":232352110},{"NoteNumber":59,"Velocity":46,"Duration":162162,"SoundDuration":162162,"Delta":232478693},{"NoteNumber":62,"Velocity":41,"Duration":162162,"SoundDuration":162162,"Delta":232613828},{"NoteNumber":64,"Velocity":42,"Duration":135135,"SoundDuration":135135,"Delta":232748963},{"NoteNumber":71,"Velocity":66,"Duration":101351,"SoundDuration":101351,"Delta":232782747},{"NoteNumber":76,"Velocity":73,"Duration":379747,"SoundDuration":379747,"Delta":232884098},{"NoteNumber":57,"Velocity":47,"Duration":151898,"SoundDuration":151898,"Delta":232884098},{"NoteNumber":61,"Velocity":40,"Duration":151898,"SoundDuration":151898,"Delta":233010681},{"NoteNumber":64,"Velocity":40,"Duration":126582,"SoundDuration":126582,"Delta":233137263},{"NoteNumber":73,"Velocity":66,"Duration":422535,"SoundDuration":422535,"Delta":233263845},{"NoteNumber":57,"Velocity":47,"Duration":169014,"SoundDuration":169014,"Delta":233263845},{"NoteNumber":61,"Velocity":38,"Duration":169013,"SoundDuration":169013,"Delta":233404690},{"NoteNumber":64,"Velocity":33,"Duration":140845,"SoundDuration":140845,"Delta":233545535},{"NoteNumber":69,"Velocity":50,"Duration":113636,"SoundDuration":113636,"Delta":233686380},{"NoteNumber":54,"Velocity":38,"Duration":181818,"SoundDuration":181818,"Delta":233686380},{"NoteNumber":57,"Velocity":29,"Duration":181818,"SoundDuration":181818,"Delta":233837895},{"NoteNumber":63,"Velocity":29,"Duration":151515,"SoundDuration":151515,"Delta":233989411},{"NoteNumber":73,"Velocity":50,"Duration":869564,"SoundDuration":869564,"Delta":234140926},{"NoteNumber":69,"Velocity":50,"Duration":869564,"SoundDuration":869564,"Delta":234140926},{"NoteNumber":52,"Velocity":23,"Duration":1304347,"SoundDuration":1304347,"Delta":234140926},{"NoteNumber":64,"Velocity":29,"Duration":1304347,"SoundDuration":1304347,"Delta":234140926},{"NoteNumber":71,"Velocity":46,"Duration":434782,"SoundDuration":434782,"Delta":235010491},{"NoteNumber":68,"Velocity":46,"Duration":434782,"SoundDuration":434782,"Delta":235010491},{"NoteNumber":73,"Velocity":53,"Duration":88235,"SoundDuration":88235,"Delta":235445273},{"NoteNumber":57,"Velocity":44,"Duration":141176,"SoundDuration":141176,"Delta":235445273},{"NoteNumber":63,"Velocity":34,"Duration":141176,"SoundDuration":141176,"Delta":235562920},{"NoteNumber":64,"Velocity":34,"Duration":117646,"SoundDuration":117646,"Delta":235680567},{"NoteNumber":73,"Velocity":49,"Duration":88235,"SoundDuration":88235,"Delta":235798214},{"NoteNumber":57,"Velocity":40,"Duration":141176,"SoundDuration":141176,"Delta":235798214},{"NoteNumber":63,"Velocity":31,"Duration":144189,"SoundDuration":144189,"Delta":235915861},{"NoteNumber":64,"Velocity":31,"Duration":121951,"SoundDuration":121951,"Delta":236035660},{"NoteNumber":74,"Velocity":49,"Duration":58823,"SoundDuration":58823,"Delta":236157611},{"NoteNumber":59,"Velocity":40,"Duration":141176,"SoundDuration":141176,"Delta":236157611},{"NoteNumber":76,"Velocity":47,"Duration":58823,"SoundDuration":58823,"Delta":236216435},{"NoteNumber":74,"Velocity":47,"Duration":58823,"SoundDuration":58823,"Delta":236275258},{"NoteNumber":63,"Velocity":32,"Duration":141176,"SoundDuration":141176,"Delta":236275258},{"NoteNumber":73,"Velocity":49,"Duration":88235,"SoundDuration":88235,"Delta":236334082},{"NoteNumber":64,"Velocity":32,"Duration":117646,"SoundDuration":117646,"Delta":236392905},{"NoteNumber":74,"Velocity":49,"Duration":88235,"SoundDuration":88235,"Delta":236422317},{"NoteNumber":76,"Velocity":53,"Duration":352941,"SoundDuration":352941,"Delta":236510552},{"NoteNumber":61,"Velocity":41,"Duration":141176,"SoundDuration":141176,"Delta":236510552},{"NoteNumber":63,"Velocity":31,"Duration":141176,"SoundDuration":141176,"Delta":236628199},{"NoteNumber":64,"Velocity":31,"Duration":117647,"SoundDuration":117647,"Delta":236745846},{"NoteNumber":61,"Velocity":40,"Duration":141176,"SoundDuration":141176,"Delta":236863493},{"NoteNumber":63,"Velocity":30,"Duration":147431,"SoundDuration":147431,"Delta":236981140},{"NoteNumber":64,"Velocity":30,"Duration":123669,"SoundDuration":123669,"Delta":237103255},{"NoteNumber":78,"Velocity":53,"Duration":94535,"SoundDuration":94535,"Delta":237226925},{"NoteNumber":57,"Velocity":40,"Duration":138139,"SoundDuration":138139,"Delta":237226925},{"NoteNumber":76,"Velocity":52,"Duration":96307,"SoundDuration":96307,"Delta":237312772},{"NoteNumber":63,"Velocity":35,"Duration":141395,"SoundDuration":141395,"Delta":237341809},{"NoteNumber":74,"Velocity":51,"Duration":97900,"SoundDuration":97900,"Delta":237400256},{"NoteNumber":64,"Velocity":35,"Duration":120785,"SoundDuration":120785,"Delta":237459395},{"NoteNumber":73,"Velocity":49,"Duration":99847,"SoundDuration":99847,"Delta":237489157},{"NoteNumber":71,"Velocity":53,"Duration":88235,"SoundDuration":88235,"Delta":237580180},{"NoteNumber":56,"Velocity":44,"Duration":141176,"SoundDuration":141176,"Delta":237580180},{"NoteNumber":63,"Velocity":31,"Duration":141176,"SoundDuration":141176,"Delta":237697827},{"NoteNumber":64,"Velocity":32,"Duration":117646,"SoundDuration":117646,"Delta":237815474},{"NoteNumber":71,"Velocity":49,"Duration":88235,"SoundDuration":88235,"Delta":237933121},{"NoteNumber":56,"Velocity":40,"Duration":141176,"SoundDuration":141176,"Delta":237933121},{"NoteNumber":63,"Velocity":35,"Duration":144189,"SoundDuration":144189,"Delta":238050768},{"NoteNumber":64,"Velocity":35,"Duration":121951,"SoundDuration":121951,"Delta":238170567},{"NoteNumber":73,"Velocity":49,"Duration":58823,"SoundDuration":58823,"Delta":238292518},{"NoteNumber":57,"Velocity":40,"Duration":141176,"SoundDuration":141176,"Delta":238292518},{"NoteNumber":74,"Velocity":47,"Duration":58823,"SoundDuration":58823,"Delta":238351342},{"NoteNumber":73,"Velocity":47,"Duration":58823,"SoundDuration":58823,"Delta":238410165},{"NoteNumber":63,"Velocity":33,"Duration":141176,"SoundDuration":141176,"Delta":238410165},{"NoteNumber":71,"Velocity":49,"Duration":88235,"SoundDuration":88235,"Delta":238468989},{"NoteNumber":64,"Velocity":35,"Duration":117646,"SoundDuration":117646,"Delta":238527812},{"NoteNumber":73,"Velocity":49,"Duration":88235,"SoundDuration":88235,"Delta":238557224},{"NoteNumber":74,"Velocity":53,"Duration":352941,"SoundDuration":352941,"Delta":238645459},{"NoteNumber":59,"Velocity":45,"Duration":141176,"SoundDuration":141176,"Delta":238645459},{"NoteNumber":63,"Velocity":34,"Duration":141176,"SoundDuration":141176,"Delta":238763106},{"NoteNumber":64,"Velocity":34,"Duration":117647,"SoundDuration":117647,"Delta":238880753},{"NoteNumber":59,"Velocity":38,"Duration":141176,"SoundDuration":141176,"Delta":238998400},{"NoteNumber":63,"Velocity":28,"Duration":147431,"SoundDuration":147431,"Delta":239116047},{"NoteNumber":64,"Velocity":28,"Duration":123669,"SoundDuration":123669,"Delta":239238162},{"NoteNumber":76,"Velocity":53,"Duration":94535,"SoundDuration":94535,"Delta":239361831},{"NoteNumber":56,"Velocity":40,"Duration":138139,"SoundDuration":138139,"Delta":239361831},{"NoteNumber":74,"Velocity":52,"Duration":96307,"SoundDuration":96307,"Delta":239447679},{"NoteNumber":63,"Velocity":35,"Duration":141395,"SoundDuration":141395,"Delta":239476715},{"NoteNumber":73,"Velocity":51,"Duration":97900,"SoundDuration":97900,"Delta":239535163},{"NoteNumber":64,"Velocity":35,"Duration":120785,"SoundDuration":120785,"Delta":239594301},{"NoteNumber":71,"Velocity":49,"Duration":99847,"SoundDuration":99847,"Delta":239624063},{"NoteNumber":69,"Velocity":53,"Duration":88235,"SoundDuration":88235,"Delta":239715087},{"NoteNumber":54,"Velocity":44,"Duration":141176,"SoundDuration":141176,"Delta":239715087},{"NoteNumber":63,"Velocity":35,"Duration":141176,"SoundDuration":141176,"Delta":239832734},{"NoteNumber":64,"Velocity":35,"Duration":117646,"SoundDuration":117646,"Delta":239950381},{"NoteNumber":69,"Velocity":49,"Duration":88235,"SoundDuration":88235,"Delta":240068028},{"NoteNumber":54,"Velocity":40,"Duration":141176,"SoundDuration":141176,"Delta":240068028},{"NoteNumber":63,"Velocity":35,"Duration":144189,"SoundDuration":144189,"Delta":240185675},{"NoteNumber":64,"Velocity":34,"Duration":121951,"SoundDuration":121951,"Delta":240305474},{"NoteNumber":71,"Velocity":49,"Duration":58823,"SoundDuration":58823,"Delta":240427425},{"NoteNumber":54,"Velocity":40,"Duration":141176,"SoundDuration":141176,"Delta":240427425},{"NoteNumber":73,"Velocity":47,"Duration":58823,"SoundDuration":58823,"Delta":240486249},{"NoteNumber":71,"Velocity":47,"Duration":58823,"SoundDuration":58823,"Delta":240545072},{"NoteNumber":62,"Velocity":35,"Duration":141176,"SoundDuration":141176,"Delta":240545072},{"NoteNumber":69,"Velocity":49,"Duration":88235,"SoundDuration":88235,"Delta":240603896},{"NoteNumber":64,"Velocity":35,"Duration":117646,"SoundDuration":117646,"Delta":240662719},{"NoteNumber":71,"Velocity":49,"Duration":88235,"SoundDuration":88235,"Delta":240692131},{"NoteNumber":73,"Velocity":53,"Duration":88235,"SoundDuration":88235,"Delta":240780366},{"NoteNumber":57,"Velocity":44,"Duration":141176,"SoundDuration":141176,"Delta":240780366},{"NoteNumber":61,"Velocity":35,"Duration":141176,"SoundDuration":141176,"Delta":240898013},{"NoteNumber":64,"Velocity":33,"Duration":117646,"SoundDuration":117646,"Delta":241015660},{"NoteNumber":73,"Velocity":49,"Duration":88235,"SoundDuration":88235,"Delta":241133307},{"NoteNumber":57,"Velocity":40,"Duration":141176,"SoundDuration":141176,"Delta":241133307},{"NoteNumber":61,"Velocity":33,"Duration":144189,"SoundDuration":144189,"Delta":241250954},{"NoteNumber":64,"Velocity":33,"Duration":121951,"SoundDuration":121951,"Delta":241370753},{"NoteNumber":74,"Velocity":49,"Duration":58823,"SoundDuration":58823,"Delta":241492704},{"NoteNumber":50,"Velocity":40,"Duration":141176,"SoundDuration":141176,"Delta":241492704},{"NoteNumber":76,"Velocity":47,"Duration":58823,"SoundDuration":58823,"Delta":241551528},{"NoteNumber":74,"Velocity":47,"Duration":58823,"SoundDuration":58823,"Delta":241610351},{"NoteNumber":54,"Velocity":33,"Duration":141176,"SoundDuration":141176,"Delta":241610351},{"NoteNumber":73,"Velocity":49,"Duration":88235,"SoundDuration":88235,"Delta":241669175},{"NoteNumber":59,"Velocity":33,"Duration":117646,"SoundDuration":117646,"Delta":241727998},{"NoteNumber":74,"Velocity":49,"Duration":88235,"SoundDuration":88235,"Delta":241757410},{"NoteNumber":73,"Velocity":53,"Duration":88235,"SoundDuration":88235,"Delta":241845645},{"NoteNumber":52,"Velocity":44,"Duration":141176,"SoundDuration":141176,"Delta":241845645},{"NoteNumber":57,"Velocity":35,"Duration":141176,"SoundDuration":141176,"Delta":241963292},{"NoteNumber":61,"Velocity":33,"Duration":117646,"SoundDuration":117646,"Delta":242080939},{"NoteNumber":73,"Velocity":49,"Duration":88235,"SoundDuration":88235,"Delta":242198586},{"NoteNumber":52,"Velocity":40,"Duration":141176,"SoundDuration":141176,"Delta":242198586},{"NoteNumber":57,"Velocity":35,"Duration":144189,"SoundDuration":144189,"Delta":242316233},{"NoteNumber":61,"Velocity":35,"Duration":121951,"SoundDuration":121951,"Delta":242436032},{"NoteNumber":71,"Velocity":49,"Duration":58823,"SoundDuration":58823,"Delta":242557984},{"NoteNumber":52,"Velocity":40,"Duration":141176,"SoundDuration":141176,"Delta":242557984},{"NoteNumber":73,"Velocity":47,"Duration":58823,"SoundDuration":58823,"Delta":242616807},{"NoteNumber":71,"Velocity":47,"Duration":58823,"SoundDuration":58823,"Delta":242675631},{"NoteNumber":56,"Velocity":35,"Duration":141176,"SoundDuration":141176,"Delta":242675631},{"NoteNumber":69,"Velocity":49,"Duration":88235,"SoundDuration":88235,"Delta":242734454},{"NoteNumber":62,"Velocity":35,"Duration":117646,"SoundDuration":117646,"Delta":242793278},{"NoteNumber":71,"Velocity":49,"Duration":88235,"SoundDuration":88235,"Delta":242822689},{"NoteNumber":71,"Velocity":53,"Duration":379747,"SoundDuration":379747,"Delta":242910925},{"NoteNumber":68,"Velocity":45,"Duration":759493,"SoundDuration":759493,"Delta":242910925},{"NoteNumber":62,"Velocity":40,"Duration":759493,"SoundDuration":759493,"Delta":242910925},{"NoteNumber":57,"Velocity":34,"Duration":1139240,"SoundDuration":1139240,"Delta":242910925},{"NoteNumber":64,"Velocity":34,"Duration":1139240,"SoundDuration":1139240,"Delta":242910925},{"NoteNumber":72,"Velocity":55,"Duration":379746,"SoundDuration":379746,"Delta":243290672},{"NoteNumber":69,"Velocity":47,"Duration":379747,"SoundDuration":379747,"Delta":243670419},{"NoteNumber":73,"Velocity":56,"Duration":379747,"SoundDuration":379747,"Delta":243670419},{"NoteNumber":61,"Velocity":45,"Duration":379747,"SoundDuration":379747,"Delta":243670419},{"NoteNumber":73,"Velocity":74,"Duration":141176,"SoundDuration":141176,"Delta":244050166},{"NoteNumber":45,"Velocity":74,"Duration":176470,"SoundDuration":176470,"Delta":244050166},{"NoteNumber":69,"Velocity":53,"Duration":141176,"SoundDuration":141176,"Delta":244167813},{"NoteNumber":64,"Velocity":53,"Duration":117646,"SoundDuration":117646,"Delta":244285460},{"NoteNumber":56,"Velocity":59,"Duration":44117,"SoundDuration":44117,"Delta":244314871},{"NoteNumber":73,"Velocity":72,"Duration":141176,"SoundDuration":141176,"Delta":244403107},{"NoteNumber":57,"Velocity":68,"Duration":176470,"SoundDuration":176470,"Delta":244403107},{"NoteNumber":69,"Velocity":53,"Duration":141176,"SoundDuration":141176,"Delta":244520754},{"NoteNumber":64,"Velocity":53,"Duration":117646,"SoundDuration":117646,"Delta":244638401},{"NoteNumber":58,"Velocity":62,"Duration":88235,"SoundDuration":88235,"Delta":244667812},{"NoteNumber":74,"Velocity":71,"Duration":134831,"SoundDuration":134831,"Delta":244756048},{"NoteNumber":59,"Velocity":70,"Duration":168539,"SoundDuration":168539,"Delta":244756048},{"NoteNumber":68,"Velocity":53,"Duration":134831,"SoundDuration":134831,"Delta":244868407},{"NoteNumber":64,"Velocity":53,"Duration":112359,"SoundDuration":112359,"Delta":244980767},{"NoteNumber":76,"Velocity":74,"Duration":141176,"SoundDuration":141176,"Delta":245093126},{"NoteNumber":52,"Velocity":74,"Duration":176470,"SoundDuration":176470,"Delta":245093126},{"NoteNumber":73,"Velocity":53,"Duration":141176,"SoundDuration":141176,"Delta":245210773},{"NoteNumber":69,"Velocity":53,"Duration":117646,"SoundDuration":117646,"Delta":245328420},{"NoteNumber":60,"Velocity":63,"Duration":44117,"SoundDuration":44117,"Delta":245357832},{"NoteNumber":76,"Velocity":72,"Duration":141176,"SoundDuration":141176,"Delta":245446067},{"NoteNumber":61,"Velocity":67,"Duration":176470,"SoundDuration":176470,"Delta":245446067},{"NoteNumber":73,"Velocity":53,"Duration":141176,"SoundDuration":141176,"Delta":245563714},{"NoteNumber":69,"Velocity":53,"Duration":117647,"SoundDuration":117647,"Delta":245681361},{"NoteNumber":61,"Velocity":63,"Duration":88235,"SoundDuration":88235,"Delta":245710773},{"NoteNumber":78,"Velocity":71,"Duration":139534,"SoundDuration":139534,"Delta":245799008},{"NoteNumber":62,"Velocity":69,"Duration":174418,"SoundDuration":174418,"Delta":245799008},{"NoteNumber":71,"Velocity":53,"Duration":139534,"SoundDuration":139534,"Delta":245915287},{"NoteNumber":69,"Velocity":53,"Duration":116278,"SoundDuration":116278,"Delta":246031566},{"NoteNumber":73,"Velocity":74,"Duration":141176,"SoundDuration":141176,"Delta":246147845},{"NoteNumber":40,"Velocity":74,"Duration":176470,"SoundDuration":176470,"Delta":246147845},{"NoteNumber":69,"Velocity":53,"Duration":141176,"SoundDuration":141176,"Delta":246265492},{"NoteNumber":64,"Velocity":53,"Duration":117646,"SoundDuration":117646,"Delta":246383139},{"NoteNumber":51,"Velocity":62,"Duration":44117,"SoundDuration":44117,"Delta":246412551},{"NoteNumber":73,"Velocity":72,"Duration":141176,"SoundDuration":141176,"Delta":246500786},{"NoteNumber":52,"Velocity":67,"Duration":176470,"SoundDuration":176470,"Delta":246500786},{"NoteNumber":69,"Velocity":53,"Duration":141176,"SoundDuration":141176,"Delta":246618433},{"NoteNumber":64,"Velocity":53,"Duration":117647,"SoundDuration":117647,"Delta":246736080},{"NoteNumber":51,"Velocity":61,"Duration":88235,"SoundDuration":88235,"Delta":246765492},{"NoteNumber":71,"Velocity":71,"Duration":141176,"SoundDuration":141176,"Delta":246853727},{"NoteNumber":52,"Velocity":68,"Duration":176470,"SoundDuration":176470,"Delta":246853727},{"NoteNumber":68,"Velocity":53,"Duration":141176,"SoundDuration":141176,"Delta":246971374},{"NoteNumber":62,"Velocity":53,"Duration":117646,"SoundDuration":117646,"Delta":247089021},{"NoteNumber":69,"Velocity":74,"Duration":148148,"SoundDuration":148148,"Delta":247206668},{"NoteNumber":33,"Velocity":74,"Duration":185185,"SoundDuration":185185,"Delta":247206668},{"NoteNumber":64,"Velocity":53,"Duration":148148,"SoundDuration":148148,"Delta":247330125},{"NoteNumber":61,"Velocity":53,"Duration":148148,"SoundDuration":148148,"Delta":247453582},{"NoteNumber":44,"Velocity":61,"Duration":46296,"SoundDuration":46296,"Delta":247484446},{"NoteNumber":57,"Velocity":72,"Duration":185185,"SoundDuration":185185,"Delta":247577039},{"NoteNumber":45,"Velocity":67,"Duration":185185,"SoundDuration":185185,"Delta":247577039},{"NoteNumber":76,"Velocity":50,"Duration":92592,"SoundDuration":92592,"Delta":248317780},{"NoteNumber":57,"Velocity":37,"Duration":148148,"SoundDuration":148148,"Delta":248317780},{"NoteNumber":61,"Velocity":31,"Duration":148148,"SoundDuration":148148,"Delta":248441236},{"NoteNumber":64,"Velocity":32,"Duration":123456,"SoundDuration":123456,"Delta":248566236},{"NoteNumber":74,"Velocity":48,"Duration":92592,"SoundDuration":92592,"Delta":248688150},{"NoteNumber":57,"Velocity":38,"Duration":148148,"SoundDuration":148148,"Delta":248688150},{"NoteNumber":59,"Velocity":30,"Duration":148148,"SoundDuration":148148,"Delta":248811607},{"NoteNumber":62,"Velocity":30,"Duration":123456,"SoundDuration":123456,"Delta":248935064},{"NoteNumber":76,"Velocity":50,"Duration":98684,"SoundDuration":98684,"Delta":249058521},{"NoteNumber":57,"Velocity":38,"Duration":157894,"SoundDuration":157894,"Delta":249058521},{"NoteNumber":61,"Velocity":30,"Duration":157894,"SoundDuration":157894,"Delta":249190100},{"NoteNumber":64,"Velocity":30,"Duration":131578,"SoundDuration":131578,"Delta":249321679},{"NoteNumber":78,"Velocity":50,"Duration":185185,"SoundDuration":185185,"Delta":249453258},{"NoteNumber":57,"Velocity":38,"Duration":148148,"SoundDuration":148148,"Delta":249453258},{"NoteNumber":62,"Velocity":27,"Duration":148148,"SoundDuration":148148,"Delta":249576714},{"NoteNumber":66,"Velocity":27,"Duration":123456,"SoundDuration":123456,"Delta":249700171},{"NoteNumber":57,"Velocity":35,"Duration":148148,"SoundDuration":148148,"Delta":249823628},{"NoteNumber":62,"Velocity":28,"Duration":148148,"SoundDuration":148148,"Delta":249947085},{"NoteNumber":66,"Velocity":26,"Duration":123456,"SoundDuration":123456,"Delta":250070542},{"NoteNumber":78,"Velocity":50,"Duration":33783,"SoundDuration":33783,"Delta":250193999},{"NoteNumber":57,"Velocity":38,"Duration":162162,"SoundDuration":162162,"Delta":250193999},{"NoteNumber":80,"Velocity":44,"Duration":33783,"SoundDuration":33783,"Delta":250227782},{"NoteNumber":78,"Velocity":44,"Duration":33783,"SoundDuration":33783,"Delta":250261566},{"NoteNumber":76,"Velocity":50,"Duration":101351,"SoundDuration":101351,"Delta":250295350},{"NoteNumber":62,"Velocity":32,"Duration":162162,"SoundDuration":162162,"Delta":250329134},{"NoteNumber":78,"Velocity":49,"Duration":101351,"SoundDuration":101351,"Delta":250396701},{"NoteNumber":66,"Velocity":32,"Duration":135135,"SoundDuration":135135,"Delta":250464269},{"NoteNumber":80,"Velocity":49,"Duration":101351,"SoundDuration":101351,"Delta":250498053},{"NoteNumber":81,"Velocity":56,"Duration":189873,"SoundDuration":189873,"Delta":250599404},{"NoteNumber":57,"Velocity":37,"Duration":151898,"SoundDuration":151898,"Delta":250599404},{"NoteNumber":66,"Velocity":31,"Duration":151898,"SoundDuration":151898,"Delta":250725986},{"NoteNumber":69,"Velocity":32,"Duration":126582,"SoundDuration":126582,"Delta":250852569},{"NoteNumber":80,"Velocity":52,"Duration":94936,"SoundDuration":94936,"Delta":250979151},{"NoteNumber":57,"Velocity":38,"Duration":151898,"SoundDuration":151898,"Delta":250979151},{"NoteNumber":64,"Velocity":30,"Duration":151898,"SoundDuration":151898,"Delta":251105733},{"NoteNumber":68,"Velocity":30,"Duration":126582,"SoundDuration":126582,"Delta":251232316},{"NoteNumber":78,"Velocity":50,"Duration":94936,"SoundDuration":94936,"Delta":251358898},{"NoteNumber":57,"Velocity":38,"Duration":151898,"SoundDuration":151898,"Delta":251358898},{"NoteNumber":62,"Velocity":34,"Duration":151898,"SoundDuration":151898,"Delta":251485480},{"NoteNumber":66,"Velocity":31,"Duration":126582,"SoundDuration":126582,"Delta":251612063},{"NoteNumber":76,"Velocity":50,"Duration":185185,"SoundDuration":185185,"Delta":251738645},{"NoteNumber":57,"Velocity":36,"Duration":148148,"SoundDuration":148148,"Delta":251738645},{"NoteNumber":61,"Velocity":27,"Duration":148148,"SoundDuration":148148,"Delta":251862102},{"NoteNumber":64,"Velocity":27,"Duration":123456,"SoundDuration":123456,"Delta":251985559},{"NoteNumber":57,"Velocity":35,"Duration":148148,"SoundDuration":148148,"Delta":252109016},{"NoteNumber":61,"Velocity":28,"Duration":148148,"SoundDuration":148148,"Delta":252232472},{"NoteNumber":64,"Velocity":28,"Duration":123456,"SoundDuration":123456,"Delta":252355929},{"NoteNumber":73,"Velocity":50,"Duration":33783,"SoundDuration":33783,"Delta":252479386},{"NoteNumber":57,"Velocity":38,"Duration":162162,"SoundDuration":162162,"Delta":252479386},{"NoteNumber":74,"Velocity":44,"Duration":33783,"SoundDuration":33783,"Delta":252513170},{"NoteNumber":73,"Velocity":44,"Duration":33783,"SoundDuration":33783,"Delta":252546954},{"NoteNumber":71,"Velocity":50,"Duration":101351,"SoundDuration":101351,"Delta":252580737},{"NoteNumber":61,"Velocity":32,"Duration":162162,"SoundDuration":162162,"Delta":252614521},{"NoteNumber":73,"Velocity":51,"Duration":101351,"SoundDuration":101351,"Delta":252682089},{"NoteNumber":64,"Velocity":32,"Duration":135135,"SoundDuration":135135,"Delta":252749656},{"NoteNumber":74,"Velocity":55,"Duration":101351,"SoundDuration":101351,"Delta":252783440},{"NoteNumber":76,"Velocity":60,"Duration":379747,"SoundDuration":379747,"Delta":252884792},{"NoteNumber":57,"Velocity":42,"Duration":151898,"SoundDuration":151898,"Delta":252884792},{"NoteNumber":61,"Velocity":33,"Duration":151898,"SoundDuration":151898,"Delta":253011374},{"NoteNumber":64,"Velocity":33,"Duration":126582,"SoundDuration":126582,"Delta":253137956},{"NoteNumber":73,"Velocity":58,"Duration":94936,"SoundDuration":94936,"Delta":253264539},{"NoteNumber":57,"Velocity":38,"Duration":151898,"SoundDuration":151898,"Delta":253264539},{"NoteNumber":61,"Velocity":33,"Duration":151898,"SoundDuration":151898,"Delta":253391121},{"NoteNumber":64,"Velocity":31,"Duration":126582,"SoundDuration":126582,"Delta":253517703},{"NoteNumber":57,"Velocity":38,"Duration":162162,"SoundDuration":162162,"Delta":253644286},{"NoteNumber":61,"Velocity":34,"Duration":162162,"SoundDuration":162162,"Delta":253779421},{"NoteNumber":64,"Velocity":35,"Duration":135135,"SoundDuration":135135,"Delta":253914556},{"NoteNumber":69,"Velocity":58,"Duration":101351,"SoundDuration":101351,"Delta":253948340},{"NoteNumber":76,"Velocity":65,"Duration":379747,"SoundDuration":379747,"Delta":254049691},{"NoteNumber":59,"Velocity":41,"Duration":151898,"SoundDuration":151898,"Delta":254049691},{"NoteNumber":62,"Velocity":36,"Duration":151898,"SoundDuration":151898,"Delta":254176273},{"NoteNumber":64,"Velocity":37,"Duration":126582,"SoundDuration":126582,"Delta":254302856},{"NoteNumber":74,"Velocity":59,"Duration":94936,"SoundDuration":94936,"Delta":254429438},{"NoteNumber":59,"Velocity":44,"Duration":151898,"SoundDuration":151898,"Delta":254429438},{"NoteNumber":62,"Velocity":37,"Duration":151898,"SoundDuration":151898,"Delta":254556020},{"NoteNumber":64,"Velocity":39,"Duration":126582,"SoundDuration":126582,"Delta":254682603},{"NoteNumber":59,"Velocity":46,"Duration":162162,"SoundDuration":162162,"Delta":254809185},{"NoteNumber":62,"Velocity":41,"Duration":162162,"SoundDuration":162162,"Delta":254944320},{"NoteNumber":64,"Velocity":42,"Duration":135135,"SoundDuration":135135,"Delta":255079455},{"NoteNumber":71,"Velocity":66,"Duration":101351,"SoundDuration":101351,"Delta":255113239},{"NoteNumber":76,"Velocity":73,"Duration":379747,"SoundDuration":379747,"Delta":255214591},{"NoteNumber":57,"Velocity":47,"Duration":151898,"SoundDuration":151898,"Delta":255214591},{"NoteNumber":61,"Velocity":40,"Duration":151898,"SoundDuration":151898,"Delta":255341173},{"NoteNumber":64,"Velocity":40,"Duration":126582,"SoundDuration":126582,"Delta":255467755},{"NoteNumber":73,"Velocity":66,"Duration":422535,"SoundDuration":422535,"Delta":255594338},{"NoteNumber":57,"Velocity":47,"Duration":169014,"SoundDuration":169014,"Delta":255594338},{"NoteNumber":61,"Velocity":38,"Duration":169013,"SoundDuration":169013,"Delta":255735183},{"NoteNumber":64,"Velocity":33,"Duration":140845,"SoundDuration":140845,"Delta":255876028},{"NoteNumber":69,"Velocity":50,"Duration":113636,"SoundDuration":113636,"Delta":256016873},{"NoteNumber":54,"Velocity":38,"Duration":181818,"SoundDuration":181818,"Delta":256016873},{"NoteNumber":57,"Velocity":29,"Duration":181818,"SoundDuration":181818,"Delta":256168388},{"NoteNumber":63,"Velocity":29,"Duration":151515,"SoundDuration":151515,"Delta":256319903},{"NoteNumber":69,"Velocity":50,"Duration":869565,"SoundDuration":869565,"Delta":256471418},{"NoteNumber":73,"Velocity":50,"Duration":869565,"SoundDuration":869565,"Delta":256471418},{"NoteNumber":52,"Velocity":23,"Duration":1304347,"SoundDuration":1304347,"Delta":256471418},{"NoteNumber":64,"Velocity":29,"Duration":1304347,"SoundDuration":1304347,"Delta":256471418},{"NoteNumber":71,"Velocity":46,"Duration":434782,"SoundDuration":434782,"Delta":257340983},{"NoteNumber":68,"Velocity":46,"Duration":434782,"SoundDuration":434782,"Delta":257340983},{"NoteNumber":73,"Velocity":53,"Duration":88235,"SoundDuration":88235,"Delta":257775766},{"NoteNumber":57,"Velocity":44,"Duration":141176,"SoundDuration":141176,"Delta":257775766},{"NoteNumber":63,"Velocity":32,"Duration":141176,"SoundDuration":141176,"Delta":257893413},{"NoteNumber":64,"Velocity":32,"Duration":117646,"SoundDuration":117646,"Delta":258011060},{"NoteNumber":73,"Velocity":49,"Duration":88235,"SoundDuration":88235,"Delta":258128707},{"NoteNumber":57,"Velocity":40,"Duration":141176,"SoundDuration":141176,"Delta":258128707},{"NoteNumber":63,"Velocity":32,"Duration":144189,"SoundDuration":144189,"Delta":258246354},{"NoteNumber":64,"Velocity":32,"Duration":121951,"SoundDuration":121951,"Delta":258366153},{"NoteNumber":74,"Velocity":49,"Duration":58823,"SoundDuration":58823,"Delta":258488104},{"NoteNumber":59,"Velocity":40,"Duration":141176,"SoundDuration":141176,"Delta":258488104},{"NoteNumber":76,"Velocity":47,"Duration":58823,"SoundDuration":58823,"Delta":258546927},{"NoteNumber":74,"Velocity":47,"Duration":58823,"SoundDuration":58823,"Delta":258605751},{"NoteNumber":63,"Velocity":34,"Duration":141176,"SoundDuration":141176,"Delta":258605751},{"NoteNumber":73,"Velocity":49,"Duration":88235,"SoundDuration":88235,"Delta":258664574},{"NoteNumber":64,"Velocity":34,"Duration":117646,"SoundDuration":117646,"Delta":258723398},{"NoteNumber":74,"Velocity":49,"Duration":88235,"SoundDuration":88235,"Delta":258752810},{"NoteNumber":76,"Velocity":53,"Duration":352940,"SoundDuration":352940,"Delta":258841045},{"NoteNumber":61,"Velocity":41,"Duration":141176,"SoundDuration":141176,"Delta":258841045},{"NoteNumber":63,"Velocity":31,"Duration":141176,"SoundDuration":141176,"Delta":258958692},{"NoteNumber":64,"Velocity":31,"Duration":117646,"SoundDuration":117646,"Delta":259076339},{"NoteNumber":61,"Velocity":40,"Duration":141176,"SoundDuration":141176,"Delta":259193986},{"NoteNumber":63,"Velocity":30,"Duration":147431,"SoundDuration":147431,"Delta":259311633},{"NoteNumber":64,"Velocity":30,"Duration":123669,"SoundDuration":123669,"Delta":259433747},{"NoteNumber":78,"Velocity":53,"Duration":94535,"SoundDuration":94535,"Delta":259557417},{"NoteNumber":57,"Velocity":40,"Duration":138139,"SoundDuration":138139,"Delta":259557417},{"NoteNumber":76,"Velocity":52,"Duration":96307,"SoundDuration":96307,"Delta":259643265},{"NoteNumber":63,"Velocity":36,"Duration":141395,"SoundDuration":141395,"Delta":259672301},{"NoteNumber":74,"Velocity":51,"Duration":97900,"SoundDuration":97900,"Delta":259730748},{"NoteNumber":64,"Velocity":36,"Duration":120785,"SoundDuration":120785,"Delta":259789887},{"NoteNumber":73,"Velocity":49,"Duration":99847,"SoundDuration":99847,"Delta":259819649},{"NoteNumber":71,"Velocity":53,"Duration":88235,"SoundDuration":88235,"Delta":259910672},{"NoteNumber":56,"Velocity":44,"Duration":141176,"SoundDuration":141176,"Delta":259910672},{"NoteNumber":63,"Velocity":33,"Duration":141176,"SoundDuration":141176,"Delta":260028319},{"NoteNumber":64,"Velocity":33,"Duration":117646,"SoundDuration":117646,"Delta":260145966},{"NoteNumber":71,"Velocity":49,"Duration":88235,"SoundDuration":88235,"Delta":260263613},{"NoteNumber":56,"Velocity":40,"Duration":141176,"SoundDuration":141176,"Delta":260263613},{"NoteNumber":63,"Velocity":33,"Duration":144189,"SoundDuration":144189,"Delta":260381260},{"NoteNumber":64,"Velocity":33,"Duration":121951,"SoundDuration":121951,"Delta":260501059},{"NoteNumber":73,"Velocity":49,"Duration":58823,"SoundDuration":58823,"Delta":260623011},{"NoteNumber":57,"Velocity":40,"Duration":141176,"SoundDuration":141176,"Delta":260623011},{"NoteNumber":74,"Velocity":47,"Duration":58823,"SoundDuration":58823,"Delta":260681834},{"NoteNumber":73,"Velocity":47,"Duration":58823,"SoundDuration":58823,"Delta":260740658},{"NoteNumber":63,"Velocity":33,"Duration":141176,"SoundDuration":141176,"Delta":260740658},{"NoteNumber":71,"Velocity":49,"Duration":88235,"SoundDuration":88235,"Delta":260799481},{"NoteNumber":64,"Velocity":33,"Duration":117646,"SoundDuration":117646,"Delta":260858305},{"NoteNumber":73,"Velocity":49,"Duration":88235,"SoundDuration":88235,"Delta":260887716},{"NoteNumber":74,"Velocity":53,"Duration":352940,"SoundDuration":352940,"Delta":260975952},{"NoteNumber":59,"Velocity":45,"Duration":141176,"SoundDuration":141176,"Delta":260975952},{"NoteNumber":63,"Velocity":33,"Duration":141176,"SoundDuration":141176,"Delta":261093599},{"NoteNumber":64,"Velocity":33,"Duration":117646,"SoundDuration":117646,"Delta":261211246},{"NoteNumber":59,"Velocity":38,"Duration":141176,"SoundDuration":141176,"Delta":261328893},{"NoteNumber":63,"Velocity":29,"Duration":147431,"SoundDuration":147431,"Delta":261446540},{"NoteNumber":64,"Velocity":29,"Duration":123669,"SoundDuration":123669,"Delta":261568654},{"NoteNumber":76,"Velocity":53,"Duration":94535,"SoundDuration":94535,"Delta":261692324},{"NoteNumber":56,"Velocity":40,"Duration":138139,"SoundDuration":138139,"Delta":261692324},{"NoteNumber":74,"Velocity":52,"Duration":96307,"SoundDuration":96307,"Delta":261778171},{"NoteNumber":63,"Velocity":35,"Duration":141395,"SoundDuration":141395,"Delta":261807208},{"NoteNumber":73,"Velocity":51,"Duration":97900,"SoundDuration":97900,"Delta":261865655},{"NoteNumber":64,"Velocity":36,"Duration":120785,"SoundDuration":120785,"Delta":261924794},{"NoteNumber":71,"Velocity":49,"Duration":99847,"SoundDuration":99847,"Delta":261954556},{"NoteNumber":69,"Velocity":53,"Duration":88235,"SoundDuration":88235,"Delta":262045579},{"NoteNumber":54,"Velocity":44,"Duration":141176,"SoundDuration":141176,"Delta":262045579},{"NoteNumber":63,"Velocity":34,"Duration":141176,"SoundDuration":141176,"Delta":262163226},{"NoteNumber":64,"Velocity":34,"Duration":117646,"SoundDuration":117646,"Delta":262280873},{"NoteNumber":69,"Velocity":49,"Duration":88235,"SoundDuration":88235,"Delta":262398520},{"NoteNumber":54,"Velocity":40,"Duration":141176,"SoundDuration":141176,"Delta":262398520},{"NoteNumber":63,"Velocity":33,"Duration":144189,"SoundDuration":144189,"Delta":262516167},{"NoteNumber":64,"Velocity":33,"Duration":121951,"SoundDuration":121951,"Delta":262635966},{"NoteNumber":71,"Velocity":49,"Duration":58823,"SoundDuration":58823,"Delta":262757917},{"NoteNumber":54,"Velocity":40,"Duration":141176,"SoundDuration":141176,"Delta":262757917},{"NoteNumber":73,"Velocity":47,"Duration":58823,"SoundDuration":58823,"Delta":262816741},{"NoteNumber":71,"Velocity":47,"Duration":58823,"SoundDuration":58823,"Delta":262875564},{"NoteNumber":62,"Velocity":33,"Duration":141176,"SoundDuration":141176,"Delta":262875564},{"NoteNumber":69,"Velocity":49,"Duration":88235,"SoundDuration":88235,"Delta":262934388},{"NoteNumber":64,"Velocity":33,"Duration":117646,"SoundDuration":117646,"Delta":262993211},{"NoteNumber":71,"Velocity":49,"Duration":88235,"SoundDuration":88235,"Delta":263022623},{"NoteNumber":73,"Velocity":53,"Duration":88235,"SoundDuration":88235,"Delta":263110858},{"NoteNumber":57,"Velocity":44,"Duration":141176,"SoundDuration":141176,"Delta":263110858},{"NoteNumber":61,"Velocity":35,"Duration":141176,"SoundDuration":141176,"Delta":263228505},{"NoteNumber":64,"Velocity":33,"Duration":117646,"SoundDuration":117646,"Delta":263346152},{"NoteNumber":73,"Velocity":49,"Duration":88235,"SoundDuration":88235,"Delta":263463799},{"NoteNumber":57,"Velocity":40,"Duration":141176,"SoundDuration":141176,"Delta":263463799},{"NoteNumber":61,"Velocity":33,"Duration":144189,"SoundDuration":144189,"Delta":263581446},{"NoteNumber":64,"Velocity":33,"Duration":121951,"SoundDuration":121951,"Delta":263701245},{"NoteNumber":74,"Velocity":49,"Duration":58823,"SoundDuration":58823,"Delta":263823197},{"NoteNumber":50,"Velocity":40,"Duration":141176,"SoundDuration":141176,"Delta":263823197},{"NoteNumber":76,"Velocity":47,"Duration":58823,"SoundDuration":58823,"Delta":263882020},{"NoteNumber":74,"Velocity":47,"Duration":58823,"SoundDuration":58823,"Delta":263940844},{"NoteNumber":54,"Velocity":31,"Duration":141176,"SoundDuration":141176,"Delta":263940844},{"NoteNumber":73,"Velocity":49,"Duration":88235,"SoundDuration":88235,"Delta":263999667},{"NoteNumber":59,"Velocity":31,"Duration":117646,"SoundDuration":117646,"Delta":264058491},{"NoteNumber":74,"Velocity":49,"Duration":88235,"SoundDuration":88235,"Delta":264087902},{"NoteNumber":73,"Velocity":53,"Duration":88235,"SoundDuration":88235,"Delta":264176138},{"NoteNumber":52,"Velocity":44,"Duration":141176,"SoundDuration":141176,"Delta":264176138},{"NoteNumber":57,"Velocity":33,"Duration":141176,"SoundDuration":141176,"Delta":264293785},{"NoteNumber":61,"Velocity":33,"Duration":117646,"SoundDuration":117646,"Delta":264411432},{"NoteNumber":73,"Velocity":49,"Duration":88235,"SoundDuration":88235,"Delta":264529079},{"NoteNumber":52,"Velocity":40,"Duration":141176,"SoundDuration":141176,"Delta":264529079},{"NoteNumber":57,"Velocity":35,"Duration":144189,"SoundDuration":144189,"Delta":264646726},{"NoteNumber":61,"Velocity":35,"Duration":121951,"SoundDuration":121951,"Delta":264766525},{"NoteNumber":71,"Velocity":49,"Duration":58823,"SoundDuration":58823,"Delta":264888476},{"NoteNumber":52,"Velocity":40,"Duration":141176,"SoundDuration":141176,"Delta":264888476},{"NoteNumber":73,"Velocity":47,"Duration":58823,"SoundDuration":58823,"Delta":264947299},{"NoteNumber":71,"Velocity":47,"Duration":58823,"SoundDuration":58823,"Delta":265006123},{"NoteNumber":56,"Velocity":35,"Duration":141176,"SoundDuration":141176,"Delta":265006123},{"NoteNumber":69,"Velocity":49,"Duration":88235,"SoundDuration":88235,"Delta":265064946},{"NoteNumber":62,"Velocity":35,"Duration":117646,"SoundDuration":117646,"Delta":265123770},{"NoteNumber":71,"Velocity":49,"Duration":88235,"SoundDuration":88235,"Delta":265153182},{"NoteNumber":71,"Velocity":53,"Duration":379747,"SoundDuration":379747,"Delta":265241417},{"NoteNumber":68,"Velocity":45,"Duration":759494,"SoundDuration":759494,"Delta":265241417},{"NoteNumber":62,"Velocity":40,"Duration":759494,"SoundDuration":759494,"Delta":265241417},{"NoteNumber":64,"Velocity":34,"Duration":1139241,"SoundDuration":1139241,"Delta":265241417},{"NoteNumber":57,"Velocity":34,"Duration":1139241,"SoundDuration":1139241,"Delta":265241417},{"NoteNumber":72,"Velocity":55,"Duration":379747,"SoundDuration":379747,"Delta":265621164},{"NoteNumber":73,"Velocity":56,"Duration":379747,"SoundDuration":379747,"Delta":266000911},{"NoteNumber":69,"Velocity":47,"Duration":379747,"SoundDuration":379747,"Delta":266000911},{"NoteNumber":61,"Velocity":45,"Duration":379747,"SoundDuration":379747,"Delta":266000911},{"NoteNumber":73,"Velocity":74,"Duration":141176,"SoundDuration":141176,"Delta":266380658},{"NoteNumber":45,"Velocity":74,"Duration":176470,"SoundDuration":176470,"Delta":266380658},{"NoteNumber":69,"Velocity":53,"Duration":141176,"SoundDuration":141176,"Delta":266498305},{"NoteNumber":64,"Velocity":53,"Duration":117646,"SoundDuration":117646,"Delta":266615952},{"NoteNumber":56,"Velocity":59,"Duration":44117,"SoundDuration":44117,"Delta":266645364},{"NoteNumber":73,"Velocity":72,"Duration":141176,"SoundDuration":141176,"Delta":266733599},{"NoteNumber":57,"Velocity":68,"Duration":176470,"SoundDuration":176470,"Delta":266733599},{"NoteNumber":69,"Velocity":53,"Duration":141176,"SoundDuration":141176,"Delta":266851246},{"NoteNumber":64,"Velocity":53,"Duration":117646,"SoundDuration":117646,"Delta":266968893},{"NoteNumber":58,"Velocity":62,"Duration":88235,"SoundDuration":88235,"Delta":266998305},{"NoteNumber":74,"Velocity":71,"Duration":134831,"SoundDuration":134831,"Delta":267086540},{"NoteNumber":59,"Velocity":70,"Duration":168539,"SoundDuration":168539,"Delta":267086540},{"NoteNumber":68,"Velocity":53,"Duration":134831,"SoundDuration":134831,"Delta":267198899},{"NoteNumber":64,"Velocity":53,"Duration":112359,"SoundDuration":112359,"Delta":267311259},{"NoteNumber":76,"Velocity":74,"Duration":141176,"SoundDuration":141176,"Delta":267423618},{"NoteNumber":52,"Velocity":74,"Duration":176470,"SoundDuration":176470,"Delta":267423618},{"NoteNumber":73,"Velocity":53,"Duration":141176,"SoundDuration":141176,"Delta":267541265},{"NoteNumber":69,"Velocity":53,"Duration":117646,"SoundDuration":117646,"Delta":267658912},{"NoteNumber":60,"Velocity":63,"Duration":44117,"SoundDuration":44117,"Delta":267688324},{"NoteNumber":76,"Velocity":72,"Duration":141176,"SoundDuration":141176,"Delta":267776559},{"NoteNumber":61,"Velocity":67,"Duration":176470,"SoundDuration":176470,"Delta":267776559},{"NoteNumber":73,"Velocity":53,"Duration":141176,"SoundDuration":141176,"Delta":267894206},{"NoteNumber":69,"Velocity":53,"Duration":117646,"SoundDuration":117646,"Delta":268011853},{"NoteNumber":61,"Velocity":63,"Duration":88235,"SoundDuration":88235,"Delta":268041265},{"NoteNumber":78,"Velocity":71,"Duration":149999,"SoundDuration":149999,"Delta":268129500},{"NoteNumber":62,"Velocity":69,"Duration":187500,"SoundDuration":187500,"Delta":268129500},{"NoteNumber":71,"Velocity":53,"Duration":149999,"SoundDuration":149999,"Delta":268254500},{"NoteNumber":69,"Velocity":53,"Duration":125000,"SoundDuration":125000,"Delta":268379500},{"NoteNumber":73,"Velocity":74,"Duration":144578,"SoundDuration":144578,"Delta":268504500},{"NoteNumber":40,"Velocity":74,"Duration":180723,"SoundDuration":180723,"Delta":268504500},{"NoteNumber":69,"Velocity":53,"Duration":144578,"SoundDuration":144578,"Delta":268624982},{"NoteNumber":64,"Velocity":53,"Duration":120481,"SoundDuration":120481,"Delta":268745464},{"NoteNumber":51,"Velocity":62,"Duration":45180,"SoundDuration":45180,"Delta":268775585},{"NoteNumber":73,"Velocity":72,"Duration":144578,"SoundDuration":144578,"Delta":268865946},{"NoteNumber":52,"Velocity":67,"Duration":180723,"SoundDuration":180723,"Delta":268865946},{"NoteNumber":69,"Velocity":53,"Duration":144578,"SoundDuration":144578,"Delta":268986428},{"NoteNumber":64,"Velocity":53,"Duration":120481,"SoundDuration":120481,"Delta":269106910},{"NoteNumber":51,"Velocity":61,"Duration":90361,"SoundDuration":90361,"Delta":269137031},{"NoteNumber":71,"Velocity":71,"Duration":153846,"SoundDuration":153846,"Delta":269227392},{"NoteNumber":52,"Velocity":68,"Duration":192307,"SoundDuration":192307,"Delta":269227392},{"NoteNumber":68,"Velocity":53,"Duration":153846,"SoundDuration":153846,"Delta":269355598},{"NoteNumber":62,"Velocity":53,"Duration":128205,"SoundDuration":128205,"Delta":269483803},{"NoteNumber":69,"Velocity":74,"Duration":166666,"SoundDuration":166666,"Delta":269612008},{"NoteNumber":33,"Velocity":74,"Duration":208333,"SoundDuration":208333,"Delta":269612008},{"NoteNumber":64,"Velocity":53,"Duration":166666,"SoundDuration":166666,"Delta":269750897},{"NoteNumber":61,"Velocity":53,"Duration":166666,"SoundDuration":166666,"Delta":269889786},{"NoteNumber":44,"Velocity":61,"Duration":52083,"SoundDuration":52083,"Delta":269924508},{"NoteNumber":57,"Velocity":72,"Duration":208333,"SoundDuration":208333,"Delta":270028674},{"NoteNumber":45,"Velocity":67,"Duration":208333,"SoundDuration":208333,"Delta":270028674},{"NoteNumber":72,"Velocity":50,"Duration":333333,"SoundDuration":333333,"Delta":273362006},{"NoteNumber":57,"Velocity":43,"Duration":333333,"SoundDuration":333333,"Delta":273362006},{"NoteNumber":71,"Velocity":47,"Duration":294117,"SoundDuration":294117,"Delta":273695340},{"NoteNumber":64,"Velocity":34,"Duration":294117,"SoundDuration":294117,"Delta":273695340},{"NoteNumber":69,"Velocity":50,"Duration":283018,"SoundDuration":283018,"Delta":273989457},{"NoteNumber":60,"Velocity":40,"Duration":283018,"SoundDuration":283018,"Delta":273989457},{"NoteNumber":71,"Velocity":46,"Duration":294117,"SoundDuration":294117,"Delta":274272476},{"NoteNumber":64,"Velocity":35,"Duration":294117,"SoundDuration":294117,"Delta":274272476},{"NoteNumber":72,"Velocity":47,"Duration":283018,"SoundDuration":283018,"Delta":274566594},{"NoteNumber":57,"Velocity":41,"Duration":283018,"SoundDuration":283018,"Delta":274566594},{"NoteNumber":74,"Velocity":48,"Duration":300000,"SoundDuration":300000,"Delta":274849613},{"NoteNumber":64,"Velocity":34,"Duration":300000,"SoundDuration":300000,"Delta":274849613},{"NoteNumber":76,"Velocity":50,"Duration":306122,"SoundDuration":306122,"Delta":275149613},{"NoteNumber":57,"Velocity":42,"Duration":306122,"SoundDuration":306122,"Delta":275149613},{"NoteNumber":75,"Velocity":46,"Duration":288461,"SoundDuration":288461,"Delta":275455735},{"NoteNumber":64,"Velocity":36,"Duration":288461,"SoundDuration":288461,"Delta":275455735},{"NoteNumber":77,"Velocity":55,"Duration":300000,"SoundDuration":300000,"Delta":275744197},{"NoteNumber":60,"Velocity":41,"Duration":300000,"SoundDuration":300000,"Delta":275744197},{"NoteNumber":76,"Velocity":53,"Duration":277777,"SoundDuration":277777,"Delta":276044197},{"NoteNumber":64,"Velocity":36,"Duration":277777,"SoundDuration":277777,"Delta":276044197},{"NoteNumber":74,"Velocity":51,"Duration":294117,"SoundDuration":294117,"Delta":276321974},{"NoteNumber":57,"Velocity":41,"Duration":294117,"SoundDuration":294117,"Delta":276321974},{"NoteNumber":72,"Velocity":48,"Duration":333333,"SoundDuration":333333,"Delta":276616092},{"NoteNumber":64,"Velocity":36,"Duration":333333,"SoundDuration":333333,"Delta":276616092},{"NoteNumber":71,"Velocity":50,"Duration":319148,"SoundDuration":319148,"Delta":276949425},{"NoteNumber":52,"Velocity":43,"Duration":319148,"SoundDuration":319148,"Delta":276949425},{"NoteNumber":69,"Velocity":47,"Duration":300000,"SoundDuration":300000,"Delta":277268574},{"NoteNumber":64,"Velocity":34,"Duration":300000,"SoundDuration":300000,"Delta":277268574},{"NoteNumber":68,"Velocity":50,"Duration":277777,"SoundDuration":277777,"Delta":277568574},{"NoteNumber":59,"Velocity":40,"Duration":277777,"SoundDuration":277777,"Delta":277568574},{"NoteNumber":69,"Velocity":46,"Duration":283018,"SoundDuration":283018,"Delta":277846352},{"NoteNumber":64,"Velocity":35,"Duration":283018,"SoundDuration":283018,"Delta":277846352},{"NoteNumber":71,"Velocity":47,"Duration":294117,"SoundDuration":294117,"Delta":278129371},{"NoteNumber":52,"Velocity":41,"Duration":294117,"SoundDuration":294117,"Delta":278129371},{"NoteNumber":72,"Velocity":48,"Duration":294117,"SoundDuration":294117,"Delta":278423489},{"NoteNumber":64,"Velocity":34,"Duration":294117,"SoundDuration":294117,"Delta":278423489},{"NoteNumber":74,"Velocity":50,"Duration":300000,"SoundDuration":300000,"Delta":278717606},{"NoteNumber":52,"Velocity":42,"Duration":300000,"SoundDuration":300000,"Delta":278717606},{"NoteNumber":73,"Velocity":46,"Duration":277777,"SoundDuration":277777,"Delta":279017606},{"NoteNumber":64,"Velocity":36,"Duration":277777,"SoundDuration":277777,"Delta":279017606},{"NoteNumber":76,"Velocity":54,"Duration":288461,"SoundDuration":288461,"Delta":279295384},{"NoteNumber":59,"Velocity":41,"Duration":288461,"SoundDuration":288461,"Delta":279295384},{"NoteNumber":74,"Velocity":52,"Duration":272727,"SoundDuration":272727,"Delta":279583846},{"NoteNumber":64,"Velocity":36,"Duration":272727,"SoundDuration":272727,"Delta":279583846},{"NoteNumber":72,"Velocity":51,"Duration":294117,"SoundDuration":294117,"Delta":279856573},{"NoteNumber":52,"Velocity":41,"Duration":294117,"SoundDuration":294117,"Delta":279856573},{"NoteNumber":71,"Velocity":49,"Duration":294117,"SoundDuration":294117,"Delta":280150691},{"NoteNumber":64,"Velocity":36,"Duration":294117,"SoundDuration":294117,"Delta":280150691},{"NoteNumber":69,"Velocity":50,"Duration":312500,"SoundDuration":312500,"Delta":280444808},{"NoteNumber":57,"Velocity":43,"Duration":312500,"SoundDuration":312500,"Delta":280444808},{"NoteNumber":76,"Velocity":47,"Duration":277777,"SoundDuration":277777,"Delta":280757308},{"NoteNumber":64,"Velocity":34,"Duration":277777,"SoundDuration":277777,"Delta":280757308},{"NoteNumber":75,"Velocity":50,"Duration":288461,"SoundDuration":288461,"Delta":281035086},{"NoteNumber":60,"Velocity":40,"Duration":288461,"SoundDuration":288461,"Delta":281035086},{"NoteNumber":76,"Velocity":46,"Duration":288461,"SoundDuration":288461,"Delta":281323548},{"NoteNumber":64,"Velocity":35,"Duration":288461,"SoundDuration":288461,"Delta":281323548},{"NoteNumber":72,"Velocity":47,"Duration":300000,"SoundDuration":300000,"Delta":281612009},{"NoteNumber":57,"Velocity":41,"Duration":300000,"SoundDuration":300000,"Delta":281612009},{"NoteNumber":69,"Velocity":48,"Duration":300000,"SoundDuration":300000,"Delta":281912009},{"NoteNumber":64,"Velocity":34,"Duration":300000,"SoundDuration":300000,"Delta":281912009},{"NoteNumber":68,"Velocity":50,"Duration":326086,"SoundDuration":326086,"Delta":282212009},{"NoteNumber":59,"Velocity":42,"Duration":326086,"SoundDuration":326086,"Delta":282212009},{"NoteNumber":76,"Velocity":46,"Duration":277777,"SoundDuration":277777,"Delta":282538096},{"NoteNumber":64,"Velocity":36,"Duration":277777,"SoundDuration":277777,"Delta":282538096},{"NoteNumber":77,"Velocity":55,"Duration":294117,"SoundDuration":294117,"Delta":282815874},{"NoteNumber":62,"Velocity":41,"Duration":294117,"SoundDuration":294117,"Delta":282815874},{"NoteNumber":76,"Velocity":53,"Duration":277777,"SoundDuration":277777,"Delta":283109992},{"NoteNumber":64,"Velocity":36,"Duration":277777,"SoundDuration":277777,"Delta":283109992},{"NoteNumber":74,"Velocity":51,"Duration":294117,"SoundDuration":294117,"Delta":283387769},{"NoteNumber":59,"Velocity":41,"Duration":294117,"SoundDuration":294117,"Delta":283387769},{"NoteNumber":71,"Velocity":48,"Duration":342261,"SoundDuration":342261,"Delta":283681887},{"NoteNumber":64,"Velocity":36,"Duration":357142,"SoundDuration":357142,"Delta":283681887},{"NoteNumber":71,"Velocity":50,"Duration":326086,"SoundDuration":326086,"Delta":284039030},{"NoteNumber":60,"Velocity":43,"Duration":326086,"SoundDuration":326086,"Delta":284039030},{"NoteNumber":69,"Velocity":47,"Duration":300000,"SoundDuration":300000,"Delta":284365117},{"NoteNumber":64,"Velocity":34,"Duration":300000,"SoundDuration":300000,"Delta":284365117},{"NoteNumber":68,"Velocity":50,"Duration":300000,"SoundDuration":300000,"Delta":284665117},{"NoteNumber":59,"Velocity":40,"Duration":300000,"SoundDuration":300000,"Delta":284665117},{"NoteNumber":69,"Velocity":46,"Duration":300000,"SoundDuration":300000,"Delta":284965117},{"NoteNumber":64,"Velocity":35,"Duration":300000,"SoundDuration":300000,"Delta":284965117},{"NoteNumber":71,"Velocity":47,"Duration":319148,"SoundDuration":319148,"Delta":285265117},{"NoteNumber":57,"Velocity":41,"Duration":319148,"SoundDuration":319148,"Delta":285265117},{"NoteNumber":72,"Velocity":48,"Duration":330357,"SoundDuration":330357,"Delta":285584266},{"NoteNumber":64,"Velocity":34,"Duration":357142,"SoundDuration":357142,"Delta":285584266},{"NoteNumber":72,"Velocity":41,"Duration":1298007,"SoundDuration":1298007,"Delta":285941409},{"NoteNumber":69,"Velocity":41,"Duration":1298007,"SoundDuration":1298007,"Delta":285941409},{"NoteNumber":52,"Velocity":42,"Duration":333333,"SoundDuration":333333,"Delta":285941409},{"NoteNumber":64,"Velocity":36,"Duration":312500,"SoundDuration":312500,"Delta":286274742},{"NoteNumber":63,"Velocity":41,"Duration":326086,"SoundDuration":326086,"Delta":286587242},{"NoteNumber":64,"Velocity":36,"Duration":326087,"SoundDuration":326087,"Delta":286913329},{"NoteNumber":68,"Velocity":41,"Duration":652174,"SoundDuration":652174,"Delta":287239416},{"NoteNumber":71,"Velocity":41,"Duration":652174,"SoundDuration":652174,"Delta":287239416},{"NoteNumber":52,"Velocity":41,"Duration":326086,"SoundDuration":326086,"Delta":287239416},{"NoteNumber":64,"Velocity":36,"Duration":326087,"SoundDuration":326087,"Delta":287565503},{"NoteNumber":84,"Velocity":53,"Duration":333333,"SoundDuration":333333,"Delta":287891590},{"NoteNumber":72,"Velocity":44,"Duration":333333,"SoundDuration":333333,"Delta":287891590},{"NoteNumber":57,"Velocity":41,"Duration":333333,"SoundDuration":333333,"Delta":287891590},{"NoteNumber":71,"Velocity":40,"Duration":294117,"SoundDuration":294117,"Delta":288224923},{"NoteNumber":83,"Velocity":48,"Duration":294117,"SoundDuration":294117,"Delta":288224923},{"NoteNumber":64,"Velocity":33,"Duration":294117,"SoundDuration":294117,"Delta":288224923},{"NoteNumber":69,"Velocity":46,"Duration":283018,"SoundDuration":283018,"Delta":288519041},{"NoteNumber":81,"Velocity":55,"Duration":283018,"SoundDuration":283018,"Delta":288519041},{"NoteNumber":60,"Velocity":39,"Duration":283018,"SoundDuration":283018,"Delta":288519041},{"NoteNumber":71,"Velocity":44,"Duration":294117,"SoundDuration":294117,"Delta":288802060},{"NoteNumber":83,"Velocity":52,"Duration":294117,"SoundDuration":294117,"Delta":288802060},{"NoteNumber":64,"Velocity":36,"Duration":294117,"SoundDuration":294117,"Delta":288802060},{"NoteNumber":72,"Velocity":47,"Duration":294117,"SoundDuration":294117,"Delta":289096177},{"NoteNumber":84,"Velocity":55,"Duration":294117,"SoundDuration":294117,"Delta":289096177},{"NoteNumber":57,"Velocity":43,"Duration":294117,"SoundDuration":294117,"Delta":289096177},{"NoteNumber":86,"Velocity":52,"Duration":300000,"SoundDuration":300000,"Delta":289390295},{"NoteNumber":74,"Velocity":43,"Duration":300000,"SoundDuration":300000,"Delta":289390295},{"NoteNumber":64,"Velocity":36,"Duration":300000,"SoundDuration":300000,"Delta":289390295},{"NoteNumber":76,"Velocity":53,"Duration":306122,"SoundDuration":306122,"Delta":289690295},{"NoteNumber":88,"Velocity":63,"Duration":306122,"SoundDuration":306122,"Delta":289690295},{"NoteNumber":57,"Velocity":46,"Duration":306122,"SoundDuration":306122,"Delta":289690295},{"NoteNumber":87,"Velocity":58,"Duration":288461,"SoundDuration":288461,"Delta":289996418},{"NoteNumber":75,"Velocity":43,"Duration":288461,"SoundDuration":288461,"Delta":289996418},{"NoteNumber":64,"Velocity":39,"Duration":288461,"SoundDuration":288461,"Delta":289996418},{"NoteNumber":77,"Velocity":53,"Duration":283018,"SoundDuration":283018,"Delta":290284879},{"NoteNumber":89,"Velocity":63,"Duration":283018,"SoundDuration":283018,"Delta":290284879},{"NoteNumber":60,"Velocity":46,"Duration":283018,"SoundDuration":283018,"Delta":290284879},{"NoteNumber":88,"Velocity":60,"Duration":288461,"SoundDuration":288461,"Delta":290567898},{"NoteNumber":76,"Velocity":50,"Duration":288461,"SoundDuration":288461,"Delta":290567898},{"NoteNumber":64,"Velocity":40,"Duration":288461,"SoundDuration":288461,"Delta":290567898},{"NoteNumber":86,"Velocity":64,"Duration":294117,"SoundDuration":294117,"Delta":290856359},{"NoteNumber":74,"Velocity":54,"Duration":294117,"SoundDuration":294117,"Delta":290856359},{"NoteNumber":57,"Velocity":46,"Duration":294117,"SoundDuration":294117,"Delta":290856359},{"NoteNumber":72,"Velocity":48,"Duration":333333,"SoundDuration":333333,"Delta":291150477},{"NoteNumber":84,"Velocity":57,"Duration":333333,"SoundDuration":333333,"Delta":291150477},{"NoteNumber":64,"Velocity":40,"Duration":333333,"SoundDuration":333333,"Delta":291150477},{"NoteNumber":83,"Velocity":66,"Duration":319148,"SoundDuration":319148,"Delta":291483810},{"NoteNumber":71,"Velocity":56,"Duration":319148,"SoundDuration":319148,"Delta":291483810},{"NoteNumber":52,"Velocity":49,"Duration":319148,"SoundDuration":319148,"Delta":291483810},{"NoteNumber":81,"Velocity":58,"Duration":300000,"SoundDuration":300000,"Delta":291802959},{"NoteNumber":69,"Velocity":49,"Duration":300000,"SoundDuration":300000,"Delta":291802959},{"NoteNumber":64,"Velocity":39,"Duration":300000,"SoundDuration":300000,"Delta":291802959},{"NoteNumber":68,"Velocity":54,"Duration":288461,"SoundDuration":288461,"Delta":292102959},{"NoteNumber":80,"Velocity":64,"Duration":288461,"SoundDuration":288461,"Delta":292102959},{"NoteNumber":59,"Velocity":46,"Duration":288461,"SoundDuration":288461,"Delta":292102959},{"NoteNumber":81,"Velocity":58,"Duration":283018,"SoundDuration":283018,"Delta":292391421},{"NoteNumber":69,"Velocity":49,"Duration":283018,"SoundDuration":283018,"Delta":292391421},{"NoteNumber":64,"Velocity":40,"Duration":283018,"SoundDuration":283018,"Delta":292391421},{"NoteNumber":83,"Velocity":64,"Duration":294117,"SoundDuration":294117,"Delta":292674440},{"NoteNumber":71,"Velocity":54,"Duration":294117,"SoundDuration":294117,"Delta":292674440},{"NoteNumber":52,"Velocity":47,"Duration":294117,"SoundDuration":294117,"Delta":292674440},{"NoteNumber":84,"Velocity":60,"Duration":294117,"SoundDuration":294117,"Delta":292968557},{"NoteNumber":72,"Velocity":51,"Duration":294117,"SoundDuration":294117,"Delta":292968557},{"NoteNumber":64,"Velocity":39,"Duration":294117,"SoundDuration":294117,"Delta":292968557},{"NoteNumber":74,"Velocity":49,"Duration":300000,"SoundDuration":300000,"Delta":293262675},{"NoteNumber":86,"Velocity":66,"Duration":300000,"SoundDuration":300000,"Delta":293262675},{"NoteNumber":52,"Velocity":48,"Duration":300000,"SoundDuration":300000,"Delta":293262675},{"NoteNumber":85,"Velocity":60,"Duration":277777,"SoundDuration":277777,"Delta":293562675},{"NoteNumber":73,"Velocity":45,"Duration":277777,"SoundDuration":277777,"Delta":293562675},{"NoteNumber":64,"Velocity":41,"Duration":277777,"SoundDuration":277777,"Delta":293562675},{"NoteNumber":76,"Velocity":60,"Duration":288461,"SoundDuration":288461,"Delta":293840453},{"NoteNumber":88,"Velocity":71,"Duration":288461,"SoundDuration":288461,"Delta":293840453},{"NoteNumber":59,"Velocity":47,"Duration":288461,"SoundDuration":288461,"Delta":293840453},{"NoteNumber":86,"Velocity":68,"Duration":272727,"SoundDuration":272727,"Delta":294128914},{"NoteNumber":74,"Velocity":57,"Duration":272727,"SoundDuration":272727,"Delta":294128914},{"NoteNumber":64,"Velocity":41,"Duration":272727,"SoundDuration":272727,"Delta":294128914},{"NoteNumber":84,"Velocity":65,"Duration":294117,"SoundDuration":294117,"Delta":294401642},{"NoteNumber":72,"Velocity":55,"Duration":294117,"SoundDuration":294117,"Delta":294401642},{"NoteNumber":52,"Velocity":47,"Duration":294117,"SoundDuration":294117,"Delta":294401642},{"NoteNumber":83,"Velocity":62,"Duration":294117,"SoundDuration":294117,"Delta":294695759},{"NoteNumber":71,"Velocity":52,"Duration":294117,"SoundDuration":294117,"Delta":294695759},{"NoteNumber":64,"Velocity":41,"Duration":294117,"SoundDuration":294117,"Delta":294695759},{"NoteNumber":69,"Velocity":55,"Duration":306122,"SoundDuration":306122,"Delta":294989877},{"NoteNumber":81,"Velocity":65,"Duration":306122,"SoundDuration":306122,"Delta":294989877},{"NoteNumber":57,"Velocity":49,"Duration":306122,"SoundDuration":306122,"Delta":294989877},{"NoteNumber":68,"Velocity":51,"Duration":294117,"SoundDuration":294117,"Delta":295296000},{"NoteNumber":80,"Velocity":60,"Duration":294117,"SoundDuration":294117,"Delta":295296000},{"NoteNumber":64,"Velocity":39,"Duration":294117,"SoundDuration":294117,"Delta":295296000},{"NoteNumber":81,"Velocity":66,"Duration":288461,"SoundDuration":288461,"Delta":295590117},{"NoteNumber":69,"Velocity":56,"Duration":288461,"SoundDuration":288461,"Delta":295590117},{"NoteNumber":60,"Velocity":46,"Duration":288461,"SoundDuration":288461,"Delta":295590117},{"NoteNumber":84,"Velocity":60,"Duration":288461,"SoundDuration":288461,"Delta":295878579},{"NoteNumber":72,"Velocity":51,"Duration":288461,"SoundDuration":288461,"Delta":295878579},{"NoteNumber":64,"Velocity":40,"Duration":288461,"SoundDuration":288461,"Delta":295878579},{"NoteNumber":71,"Velocity":53,"Duration":300000,"SoundDuration":300000,"Delta":296167040},{"NoteNumber":83,"Velocity":63,"Duration":300000,"SoundDuration":300000,"Delta":296167040},{"NoteNumber":56,"Velocity":47,"Duration":300000,"SoundDuration":300000,"Delta":296167040},{"NoteNumber":86,"Velocity":63,"Duration":300000,"SoundDuration":300000,"Delta":296467040},{"NoteNumber":74,"Velocity":53,"Duration":300000,"SoundDuration":300000,"Delta":296467040},{"NoteNumber":64,"Velocity":39,"Duration":300000,"SoundDuration":300000,"Delta":296467040},{"NoteNumber":72,"Velocity":56,"Duration":306122,"SoundDuration":306122,"Delta":296767040},{"NoteNumber":84,"Velocity":66,"Duration":306122,"SoundDuration":306122,"Delta":296767040},{"NoteNumber":57,"Velocity":48,"Duration":306122,"SoundDuration":306122,"Delta":296767040},{"NoteNumber":83,"Velocity":60,"Duration":288461,"SoundDuration":288461,"Delta":297073163},{"NoteNumber":71,"Velocity":51,"Duration":288461,"SoundDuration":288461,"Delta":297073163},{"NoteNumber":64,"Velocity":41,"Duration":288461,"SoundDuration":288461,"Delta":297073163},{"NoteNumber":72,"Velocity":60,"Duration":294117,"SoundDuration":294117,"Delta":297361624},{"NoteNumber":84,"Velocity":71,"Duration":294117,"SoundDuration":294117,"Delta":297361624},{"NoteNumber":60,"Velocity":47,"Duration":294117,"SoundDuration":294117,"Delta":297361624},{"NoteNumber":88,"Velocity":67,"Duration":288461,"SoundDuration":288461,"Delta":297655742},{"NoteNumber":76,"Velocity":56,"Duration":288461,"SoundDuration":288461,"Delta":297655742},{"NoteNumber":64,"Velocity":41,"Duration":288461,"SoundDuration":288461,"Delta":297655742},{"NoteNumber":74,"Velocity":55,"Duration":294117,"SoundDuration":294117,"Delta":297944204},{"NoteNumber":86,"Velocity":65,"Duration":294117,"SoundDuration":294117,"Delta":297944204},{"NoteNumber":53,"Velocity":47,"Duration":294117,"SoundDuration":294117,"Delta":297944204},{"NoteNumber":89,"Velocity":65,"Duration":357142,"SoundDuration":357142,"Delta":298238321},{"NoteNumber":77,"Velocity":55,"Duration":357142,"SoundDuration":357142,"Delta":298238321},{"NoteNumber":62,"Velocity":41,"Duration":357142,"SoundDuration":357142,"Delta":298238321},{"NoteNumber":88,"Velocity":67,"Duration":312500,"SoundDuration":312500,"Delta":298595464},{"NoteNumber":76,"Velocity":56,"Duration":312500,"SoundDuration":312500,"Delta":298595464},{"NoteNumber":52,"Velocity":49,"Duration":312500,"SoundDuration":312500,"Delta":298595464},{"NoteNumber":87,"Velocity":59,"Duration":312500,"SoundDuration":312500,"Delta":298907964},{"NoteNumber":75,"Velocity":50,"Duration":312500,"SoundDuration":312500,"Delta":298907964},{"NoteNumber":60,"Velocity":39,"Duration":312500,"SoundDuration":312500,"Delta":298907964},{"NoteNumber":76,"Velocity":56,"Duration":319148,"SoundDuration":319148,"Delta":299220464},{"NoteNumber":88,"Velocity":66,"Duration":319148,"SoundDuration":319148,"Delta":299220464},{"NoteNumber":57,"Velocity":46,"Duration":319148,"SoundDuration":319148,"Delta":299220464},{"NoteNumber":76,"Velocity":60,"Duration":333333,"SoundDuration":333333,"Delta":299539613},{"NoteNumber":64,"Velocity":51,"Duration":333333,"SoundDuration":333333,"Delta":299539613},{"NoteNumber":60,"Velocity":40,"Duration":333333,"SoundDuration":333333,"Delta":299539613},{"NoteNumber":66,"Velocity":53,"Duration":340909,"SoundDuration":340909,"Delta":299872946},{"NoteNumber":78,"Velocity":63,"Duration":340909,"SoundDuration":340909,"Delta":299872946},{"NoteNumber":52,"Velocity":47,"Duration":340909,"SoundDuration":340909,"Delta":299872946},{"NoteNumber":80,"Velocity":63,"Duration":394736,"SoundDuration":394736,"Delta":300213855},{"NoteNumber":68,"Velocity":53,"Duration":394736,"SoundDuration":394736,"Delta":300213855},{"NoteNumber":59,"Velocity":39,"Duration":394736,"SoundDuration":394736,"Delta":300213855},{"NoteNumber":69,"Velocity":53,"Duration":1431818,"SoundDuration":1431818,"Delta":300608592},{"NoteNumber":81,"Velocity":63,"Duration":1431818,"SoundDuration":1431818,"Delta":300608592},{"NoteNumber":45,"Velocity":54,"Duration":85227,"SoundDuration":85227,"Delta":300608592},{"NoteNumber":48,"Velocity":52,"Duration":85227,"SoundDuration":85227,"Delta":300949501},{"NoteNumber":52,"Velocity":57,"Duration":93750,"SoundDuration":93750,"Delta":301290410},{"NoteNumber":57,"Velocity":54,"Duration":93750,"SoundDuration":93750,"Delta":301665410},{"NoteNumber":45,"Velocity":60,"Duration":187500,"SoundDuration":187500,"Delta":302040410},{"NoteNumber":72,"Velocity":50,"Duration":333333,"SoundDuration":333333,"Delta":302790410},{"NoteNumber":57,"Velocity":43,"Duration":333333,"SoundDuration":333333,"Delta":302790410},{"NoteNumber":71,"Velocity":47,"Duration":288461,"SoundDuration":288461,"Delta":303123743},{"NoteNumber":64,"Velocity":34,"Duration":288461,"SoundDuration":288461,"Delta":303123743},{"NoteNumber":69,"Velocity":50,"Duration":283018,"SoundDuration":283018,"Delta":303412205},{"NoteNumber":60,"Velocity":40,"Duration":283018,"SoundDuration":283018,"Delta":303412205},{"NoteNumber":71,"Velocity":46,"Duration":294117,"SoundDuration":294117,"Delta":303695224},{"NoteNumber":64,"Velocity":35,"Duration":294117,"SoundDuration":294117,"Delta":303695224},{"NoteNumber":72,"Velocity":47,"Duration":283018,"SoundDuration":283018,"Delta":303989341},{"NoteNumber":57,"Velocity":41,"Duration":283018,"SoundDuration":283018,"Delta":303989341},{"NoteNumber":74,"Velocity":48,"Duration":300000,"SoundDuration":300000,"Delta":304272360},{"NoteNumber":64,"Velocity":34,"Duration":300000,"SoundDuration":300000,"Delta":304272360},{"NoteNumber":76,"Velocity":50,"Duration":288461,"SoundDuration":288461,"Delta":304572360},{"NoteNumber":57,"Velocity":42,"Duration":288461,"SoundDuration":288461,"Delta":304572360},{"NoteNumber":75,"Velocity":46,"Duration":288461,"SoundDuration":288461,"Delta":304860822},{"NoteNumber":64,"Velocity":36,"Duration":288461,"SoundDuration":288461,"Delta":304860822},{"NoteNumber":77,"Velocity":55,"Duration":288461,"SoundDuration":288461,"Delta":305149283},{"NoteNumber":60,"Velocity":41,"Duration":288461,"SoundDuration":288461,"Delta":305149283},{"NoteNumber":76,"Velocity":53,"Duration":277777,"SoundDuration":277777,"Delta":305437745},{"NoteNumber":64,"Velocity":36,"Duration":277777,"SoundDuration":277777,"Delta":305437745},{"NoteNumber":74,"Velocity":51,"Duration":294117,"SoundDuration":294117,"Delta":305715522},{"NoteNumber":57,"Velocity":41,"Duration":294117,"SoundDuration":294117,"Delta":305715522},{"NoteNumber":72,"Velocity":48,"Duration":333333,"SoundDuration":333333,"Delta":306009640},{"NoteNumber":64,"Velocity":36,"Duration":333333,"SoundDuration":333333,"Delta":306009640},{"NoteNumber":71,"Velocity":50,"Duration":319148,"SoundDuration":319148,"Delta":306342973},{"NoteNumber":52,"Velocity":43,"Duration":319148,"SoundDuration":319148,"Delta":306342973},{"NoteNumber":69,"Velocity":47,"Duration":300000,"SoundDuration":300000,"Delta":306662122},{"NoteNumber":64,"Velocity":34,"Duration":300000,"SoundDuration":300000,"Delta":306662122},{"NoteNumber":68,"Velocity":50,"Duration":277777,"SoundDuration":277777,"Delta":306962122},{"NoteNumber":59,"Velocity":40,"Duration":277777,"SoundDuration":277777,"Delta":306962122},{"NoteNumber":69,"Velocity":46,"Duration":283018,"SoundDuration":283018,"Delta":307239900},{"NoteNumber":64,"Velocity":35,"Duration":283018,"SoundDuration":283018,"Delta":307239900},{"NoteNumber":71,"Velocity":47,"Duration":294117,"SoundDuration":294117,"Delta":307522919},{"NoteNumber":52,"Velocity":41,"Duration":294117,"SoundDuration":294117,"Delta":307522919},{"NoteNumber":72,"Velocity":48,"Duration":294117,"SoundDuration":294117,"Delta":307817037},{"NoteNumber":64,"Velocity":34,"Duration":294117,"SoundDuration":294117,"Delta":307817037},{"NoteNumber":74,"Velocity":50,"Duration":283018,"SoundDuration":283018,"Delta":308111154},{"NoteNumber":52,"Velocity":42,"Duration":283018,"SoundDuration":283018,"Delta":308111154},{"NoteNumber":73,"Velocity":46,"Duration":277777,"SoundDuration":277777,"Delta":308394173},{"NoteNumber":64,"Velocity":36,"Duration":277777,"SoundDuration":277777,"Delta":308394173},{"NoteNumber":76,"Velocity":54,"Duration":294117,"SoundDuration":294117,"Delta":308671951},{"NoteNumber":59,"Velocity":41,"Duration":294117,"SoundDuration":294117,"Delta":308671951},{"NoteNumber":74,"Velocity":52,"Duration":272727,"SoundDuration":272727,"Delta":308966069},{"NoteNumber":64,"Velocity":36,"Duration":272727,"SoundDuration":272727,"Delta":308966069},{"NoteNumber":72,"Velocity":51,"Duration":294117,"SoundDuration":294117,"Delta":309238796},{"NoteNumber":52,"Velocity":41,"Duration":294117,"SoundDuration":294117,"Delta":309238796},{"NoteNumber":71,"Velocity":49,"Duration":294117,"SoundDuration":294117,"Delta":309532914},{"NoteNumber":64,"Velocity":36,"Duration":294117,"SoundDuration":294117,"Delta":309532914},{"NoteNumber":69,"Velocity":50,"Duration":312500,"SoundDuration":312500,"Delta":309827031},{"NoteNumber":57,"Velocity":43,"Duration":312500,"SoundDuration":312500,"Delta":309827031},{"NoteNumber":76,"Velocity":47,"Duration":277777,"SoundDuration":277777,"Delta":310139531},{"NoteNumber":64,"Velocity":34,"Duration":277777,"SoundDuration":277777,"Delta":310139531},{"NoteNumber":75,"Velocity":50,"Duration":288461,"SoundDuration":288461,"Delta":310417309},{"NoteNumber":60,"Velocity":40,"Duration":288461,"SoundDuration":288461,"Delta":310417309},{"NoteNumber":76,"Velocity":46,"Duration":288461,"SoundDuration":288461,"Delta":310705771},{"NoteNumber":64,"Velocity":35,"Duration":288461,"SoundDuration":288461,"Delta":310705771},{"NoteNumber":72,"Velocity":47,"Duration":300000,"SoundDuration":300000,"Delta":310994232},{"NoteNumber":57,"Velocity":41,"Duration":300000,"SoundDuration":300000,"Delta":310994232},{"NoteNumber":69,"Velocity":48,"Duration":300000,"SoundDuration":300000,"Delta":311294232},{"NoteNumber":64,"Velocity":34,"Duration":300000,"SoundDuration":300000,"Delta":311294232},{"NoteNumber":68,"Velocity":50,"Duration":326086,"SoundDuration":326086,"Delta":311594232},{"NoteNumber":59,"Velocity":42,"Duration":326086,"SoundDuration":326086,"Delta":311594232},{"NoteNumber":76,"Velocity":46,"Duration":277777,"SoundDuration":277777,"Delta":311920319},{"NoteNumber":64,"Velocity":36,"Duration":277777,"SoundDuration":277777,"Delta":311920319},{"NoteNumber":77,"Velocity":55,"Duration":288461,"SoundDuration":288461,"Delta":312198097},{"NoteNumber":62,"Velocity":41,"Duration":288461,"SoundDuration":288461,"Delta":312198097},{"NoteNumber":76,"Velocity":53,"Duration":277777,"SoundDuration":277777,"Delta":312486558},{"NoteNumber":64,"Velocity":36,"Duration":277777,"SoundDuration":277777,"Delta":312486558},{"NoteNumber":74,"Velocity":51,"Duration":294117,"SoundDuration":294117,"Delta":312764336},{"NoteNumber":59,"Velocity":41,"Duration":294117,"SoundDuration":294117,"Delta":312764336},{"NoteNumber":71,"Velocity":48,"Duration":324404,"SoundDuration":324404,"Delta":313058454},{"NoteNumber":64,"Velocity":36,"Duration":357142,"SoundDuration":357142,"Delta":313058454},{"NoteNumber":71,"Velocity":50,"Duration":326086,"SoundDuration":326086,"Delta":313415597},{"NoteNumber":60,"Velocity":43,"Duration":326086,"SoundDuration":326086,"Delta":313415597},{"NoteNumber":69,"Velocity":47,"Duration":300000,"SoundDuration":300000,"Delta":313741684},{"NoteNumber":64,"Velocity":34,"Duration":300000,"SoundDuration":300000,"Delta":313741684},{"NoteNumber":68,"Velocity":50,"Duration":288461,"SoundDuration":288461,"Delta":314041684},{"NoteNumber":59,"Velocity":40,"Duration":288461,"SoundDuration":288461,"Delta":314041684},{"NoteNumber":69,"Velocity":46,"Duration":300000,"SoundDuration":300000,"Delta":314330145},{"NoteNumber":64,"Velocity":35,"Duration":300000,"SoundDuration":300000,"Delta":314330145},{"NoteNumber":71,"Velocity":47,"Duration":319148,"SoundDuration":319148,"Delta":314630145},{"NoteNumber":57,"Velocity":41,"Duration":319148,"SoundDuration":319148,"Delta":314630145},{"NoteNumber":72,"Velocity":48,"Duration":327380,"SoundDuration":327380,"Delta":314949294},{"NoteNumber":64,"Velocity":34,"Duration":357142,"SoundDuration":357142,"Delta":314949294},{"NoteNumber":72,"Velocity":41,"Duration":1298007,"SoundDuration":1298007,"Delta":315306437},{"NoteNumber":69,"Velocity":41,"Duration":1298007,"SoundDuration":1298007,"Delta":315306437},{"NoteNumber":52,"Velocity":42,"Duration":333333,"SoundDuration":333333,"Delta":315306437},{"NoteNumber":64,"Velocity":36,"Duration":312500,"SoundDuration":312500,"Delta":315639770},{"NoteNumber":63,"Velocity":41,"Duration":326086,"SoundDuration":326086,"Delta":315952270},{"NoteNumber":64,"Velocity":36,"Duration":326087,"SoundDuration":326087,"Delta":316278357},{"NoteNumber":68,"Velocity":41,"Duration":652174,"SoundDuration":652174,"Delta":316604444},{"NoteNumber":71,"Velocity":41,"Duration":652174,"SoundDuration":652174,"Delta":316604444},{"NoteNumber":52,"Velocity":41,"Duration":326086,"SoundDuration":326086,"Delta":316604444},{"NoteNumber":64,"Velocity":36,"Duration":326087,"SoundDuration":326087,"Delta":316930531},{"NoteNumber":84,"Velocity":53,"Duration":333333,"SoundDuration":333333,"Delta":317256618},{"NoteNumber":72,"Velocity":44,"Duration":333333,"SoundDuration":333333,"Delta":317256618},{"NoteNumber":57,"Velocity":41,"Duration":333333,"SoundDuration":333333,"Delta":317256618},{"NoteNumber":83,"Velocity":48,"Duration":294117,"SoundDuration":294117,"Delta":317589951},{"NoteNumber":71,"Velocity":40,"Duration":294117,"SoundDuration":294117,"Delta":317589951},{"NoteNumber":64,"Velocity":33,"Duration":294117,"SoundDuration":294117,"Delta":317589951},{"NoteNumber":69,"Velocity":46,"Duration":283018,"SoundDuration":283018,"Delta":317884069},{"NoteNumber":81,"Velocity":55,"Duration":283018,"SoundDuration":283018,"Delta":317884069},{"NoteNumber":60,"Velocity":39,"Duration":283018,"SoundDuration":283018,"Delta":317884069},{"NoteNumber":71,"Velocity":44,"Duration":294117,"SoundDuration":294117,"Delta":318167088},{"NoteNumber":83,"Velocity":52,"Duration":294117,"SoundDuration":294117,"Delta":318167088},{"NoteNumber":64,"Velocity":36,"Duration":294117,"SoundDuration":294117,"Delta":318167088},{"NoteNumber":72,"Velocity":47,"Duration":294117,"SoundDuration":294117,"Delta":318461206},{"NoteNumber":84,"Velocity":55,"Duration":294117,"SoundDuration":294117,"Delta":318461206},{"NoteNumber":57,"Velocity":43,"Duration":294117,"SoundDuration":294117,"Delta":318461206},{"NoteNumber":86,"Velocity":52,"Duration":300000,"SoundDuration":300000,"Delta":318755323},{"NoteNumber":74,"Velocity":43,"Duration":300000,"SoundDuration":300000,"Delta":318755323},{"NoteNumber":64,"Velocity":36,"Duration":300000,"SoundDuration":300000,"Delta":318755323},{"NoteNumber":88,"Velocity":63,"Duration":294117,"SoundDuration":294117,"Delta":319055323},{"NoteNumber":76,"Velocity":53,"Duration":294117,"SoundDuration":294117,"Delta":319055323},{"NoteNumber":57,"Velocity":46,"Duration":294117,"SoundDuration":294117,"Delta":319055323},{"NoteNumber":75,"Velocity":43,"Duration":288461,"SoundDuration":288461,"Delta":319349441},{"NoteNumber":87,"Velocity":58,"Duration":288461,"SoundDuration":288461,"Delta":319349441},{"NoteNumber":64,"Velocity":39,"Duration":288461,"SoundDuration":288461,"Delta":319349441},{"NoteNumber":89,"Velocity":63,"Duration":272727,"SoundDuration":272727,"Delta":319637903},{"NoteNumber":77,"Velocity":53,"Duration":272727,"SoundDuration":272727,"Delta":319637903},{"NoteNumber":60,"Velocity":46,"Duration":272727,"SoundDuration":272727,"Delta":319637903},{"NoteNumber":88,"Velocity":60,"Duration":288461,"SoundDuration":288461,"Delta":319910630},{"NoteNumber":76,"Velocity":50,"Duration":288461,"SoundDuration":288461,"Delta":319910630},{"NoteNumber":64,"Velocity":40,"Duration":288461,"SoundDuration":288461,"Delta":319910630},{"NoteNumber":86,"Velocity":64,"Duration":294117,"SoundDuration":294117,"Delta":320199091},{"NoteNumber":74,"Velocity":54,"Duration":294117,"SoundDuration":294117,"Delta":320199091},{"NoteNumber":57,"Velocity":46,"Duration":294117,"SoundDuration":294117,"Delta":320199091},{"NoteNumber":72,"Velocity":48,"Duration":333333,"SoundDuration":333333,"Delta":320493209},{"NoteNumber":84,"Velocity":57,"Duration":333333,"SoundDuration":333333,"Delta":320493209},{"NoteNumber":64,"Velocity":40,"Duration":333333,"SoundDuration":333333,"Delta":320493209},{"NoteNumber":83,"Velocity":66,"Duration":319148,"SoundDuration":319148,"Delta":320826542},{"NoteNumber":71,"Velocity":56,"Duration":319148,"SoundDuration":319148,"Delta":320826542},{"NoteNumber":52,"Velocity":49,"Duration":319148,"SoundDuration":319148,"Delta":320826542},{"NoteNumber":69,"Velocity":49,"Duration":300000,"SoundDuration":300000,"Delta":321145691},{"NoteNumber":81,"Velocity":58,"Duration":300000,"SoundDuration":300000,"Delta":321145691},{"NoteNumber":64,"Velocity":39,"Duration":300000,"SoundDuration":300000,"Delta":321145691},{"NoteNumber":68,"Velocity":54,"Duration":288461,"SoundDuration":288461,"Delta":321445691},{"NoteNumber":80,"Velocity":64,"Duration":288461,"SoundDuration":288461,"Delta":321445691},{"NoteNumber":59,"Velocity":46,"Duration":288461,"SoundDuration":288461,"Delta":321445691},{"NoteNumber":69,"Velocity":49,"Duration":267857,"SoundDuration":267857,"Delta":321734153},{"NoteNumber":81,"Velocity":58,"Duration":267857,"SoundDuration":267857,"Delta":321734153},{"NoteNumber":64,"Velocity":40,"Duration":267857,"SoundDuration":267857,"Delta":321734153},{"NoteNumber":71,"Velocity":54,"Duration":294117,"SoundDuration":294117,"Delta":322002010},{"NoteNumber":83,"Velocity":64,"Duration":294117,"SoundDuration":294117,"Delta":322002010},{"NoteNumber":52,"Velocity":47,"Duration":294117,"SoundDuration":294117,"Delta":322002010},{"NoteNumber":84,"Velocity":60,"Duration":294117,"SoundDuration":294117,"Delta":322296128},{"NoteNumber":72,"Velocity":51,"Duration":294117,"SoundDuration":294117,"Delta":322296128},{"NoteNumber":64,"Velocity":39,"Duration":294117,"SoundDuration":294117,"Delta":322296128},{"NoteNumber":74,"Velocity":49,"Duration":288461,"SoundDuration":288461,"Delta":322590246},{"NoteNumber":86,"Velocity":66,"Duration":288461,"SoundDuration":288461,"Delta":322590246},{"NoteNumber":52,"Velocity":48,"Duration":288461,"SoundDuration":288461,"Delta":322590246},{"NoteNumber":85,"Velocity":60,"Duration":277777,"SoundDuration":277777,"Delta":322878707},{"NoteNumber":73,"Velocity":45,"Duration":277777,"SoundDuration":277777,"Delta":322878707},{"NoteNumber":64,"Velocity":41,"Duration":277777,"SoundDuration":277777,"Delta":322878707},{"NoteNumber":88,"Velocity":71,"Duration":288461,"SoundDuration":288461,"Delta":323156485},{"NoteNumber":76,"Velocity":60,"Duration":288461,"SoundDuration":288461,"Delta":323156485},{"NoteNumber":59,"Velocity":47,"Duration":288461,"SoundDuration":288461,"Delta":323156485},{"NoteNumber":74,"Velocity":57,"Duration":272727,"SoundDuration":272727,"Delta":323444946},{"NoteNumber":86,"Velocity":68,"Duration":272727,"SoundDuration":272727,"Delta":323444946},{"NoteNumber":64,"Velocity":41,"Duration":272727,"SoundDuration":272727,"Delta":323444946},{"NoteNumber":84,"Velocity":65,"Duration":294117,"SoundDuration":294117,"Delta":323717674},{"NoteNumber":72,"Velocity":55,"Duration":294117,"SoundDuration":294117,"Delta":323717674},{"NoteNumber":52,"Velocity":47,"Duration":294117,"SoundDuration":294117,"Delta":323717674},{"NoteNumber":71,"Velocity":52,"Duration":294117,"SoundDuration":294117,"Delta":324011791},{"NoteNumber":83,"Velocity":62,"Duration":294117,"SoundDuration":294117,"Delta":324011791},{"NoteNumber":64,"Velocity":41,"Duration":294117,"SoundDuration":294117,"Delta":324011791},{"NoteNumber":81,"Velocity":65,"Duration":300000,"SoundDuration":300000,"Delta":324305909},{"NoteNumber":69,"Velocity":55,"Duration":300000,"SoundDuration":300000,"Delta":324305909},{"NoteNumber":57,"Velocity":49,"Duration":300000,"SoundDuration":300000,"Delta":324305909},{"NoteNumber":68,"Velocity":51,"Duration":294117,"SoundDuration":294117,"Delta":324605909},{"NoteNumber":80,"Velocity":60,"Duration":294117,"SoundDuration":294117,"Delta":324605909},{"NoteNumber":64,"Velocity":39,"Duration":294117,"SoundDuration":294117,"Delta":324605909},{"NoteNumber":81,"Velocity":66,"Duration":283018,"SoundDuration":283018,"Delta":324900027},{"NoteNumber":69,"Velocity":56,"Duration":283018,"SoundDuration":283018,"Delta":324900027},{"NoteNumber":60,"Velocity":46,"Duration":283018,"SoundDuration":283018,"Delta":324900027},{"NoteNumber":72,"Velocity":51,"Duration":288461,"SoundDuration":288461,"Delta":325183046},{"NoteNumber":84,"Velocity":60,"Duration":288461,"SoundDuration":288461,"Delta":325183046},{"NoteNumber":64,"Velocity":40,"Duration":288461,"SoundDuration":288461,"Delta":325183046},{"NoteNumber":71,"Velocity":53,"Duration":300000,"SoundDuration":300000,"Delta":325471507},{"NoteNumber":83,"Velocity":63,"Duration":300000,"SoundDuration":300000,"Delta":325471507},{"NoteNumber":56,"Velocity":47,"Duration":300000,"SoundDuration":300000,"Delta":325471507},{"NoteNumber":86,"Velocity":63,"Duration":300000,"SoundDuration":300000,"Delta":325771507},{"NoteNumber":74,"Velocity":53,"Duration":300000,"SoundDuration":300000,"Delta":325771507},{"NoteNumber":64,"Velocity":39,"Duration":300000,"SoundDuration":300000,"Delta":325771507},{"NoteNumber":72,"Velocity":56,"Duration":306122,"SoundDuration":306122,"Delta":326071507},{"NoteNumber":84,"Velocity":66,"Duration":306122,"SoundDuration":306122,"Delta":326071507},{"NoteNumber":57,"Velocity":48,"Duration":306122,"SoundDuration":306122,"Delta":326071507},{"NoteNumber":71,"Velocity":51,"Duration":288461,"SoundDuration":288461,"Delta":326377630},{"NoteNumber":83,"Velocity":60,"Duration":288461,"SoundDuration":288461,"Delta":326377630},{"NoteNumber":64,"Velocity":41,"Duration":288461,"SoundDuration":288461,"Delta":326377630},{"NoteNumber":72,"Velocity":60,"Duration":294117,"SoundDuration":294117,"Delta":326666091},{"NoteNumber":84,"Velocity":71,"Duration":294117,"SoundDuration":294117,"Delta":326666091},{"NoteNumber":60,"Velocity":47,"Duration":294117,"SoundDuration":294117,"Delta":326666091},{"NoteNumber":88,"Velocity":67,"Duration":288461,"SoundDuration":288461,"Delta":326960209},{"NoteNumber":76,"Velocity":56,"Duration":288461,"SoundDuration":288461,"Delta":326960209},{"NoteNumber":64,"Velocity":41,"Duration":288461,"SoundDuration":288461,"Delta":326960209},{"NoteNumber":86,"Velocity":65,"Duration":294117,"SoundDuration":294117,"Delta":327248670},{"NoteNumber":74,"Velocity":55,"Duration":294117,"SoundDuration":294117,"Delta":327248670},{"NoteNumber":53,"Velocity":47,"Duration":294117,"SoundDuration":294117,"Delta":327248670},{"NoteNumber":77,"Velocity":55,"Duration":357142,"SoundDuration":357142,"Delta":327542788},{"NoteNumber":89,"Velocity":65,"Duration":357142,"SoundDuration":357142,"Delta":327542788},{"NoteNumber":62,"Velocity":41,"Duration":357142,"SoundDuration":357142,"Delta":327542788},{"NoteNumber":88,"Velocity":67,"Duration":312500,"SoundDuration":312500,"Delta":327899931},{"NoteNumber":76,"Velocity":56,"Duration":312500,"SoundDuration":312500,"Delta":327899931},{"NoteNumber":52,"Velocity":49,"Duration":312500,"SoundDuration":312500,"Delta":327899931},{"NoteNumber":87,"Velocity":59,"Duration":312500,"SoundDuration":312500,"Delta":328212431},{"NoteNumber":75,"Velocity":50,"Duration":312500,"SoundDuration":312500,"Delta":328212431},{"NoteNumber":60,"Velocity":39,"Duration":312500,"SoundDuration":312500,"Delta":328212431},{"NoteNumber":88,"Velocity":66,"Duration":319148,"SoundDuration":319148,"Delta":328524931},{"NoteNumber":76,"Velocity":56,"Duration":319148,"SoundDuration":319148,"Delta":328524931},{"NoteNumber":57,"Velocity":46,"Duration":319148,"SoundDuration":319148,"Delta":328524931},{"NoteNumber":76,"Velocity":60,"Duration":333333,"SoundDuration":333333,"Delta":328844080},{"NoteNumber":64,"Velocity":51,"Duration":333333,"SoundDuration":333333,"Delta":328844080},{"NoteNumber":60,"Velocity":40,"Duration":333333,"SoundDuration":333333,"Delta":328844080},{"NoteNumber":66,"Velocity":53,"Duration":340909,"SoundDuration":340909,"Delta":329177413},{"NoteNumber":78,"Velocity":63,"Duration":340909,"SoundDuration":340909,"Delta":329177413},{"NoteNumber":52,"Velocity":47,"Duration":340909,"SoundDuration":340909,"Delta":329177413},{"NoteNumber":80,"Velocity":63,"Duration":394736,"SoundDuration":394736,"Delta":329518322},{"NoteNumber":68,"Velocity":53,"Duration":394736,"SoundDuration":394736,"Delta":329518322},{"NoteNumber":59,"Velocity":39,"Duration":394736,"SoundDuration":394736,"Delta":329518322},{"NoteNumber":69,"Velocity":53,"Duration":1431818,"SoundDuration":1431818,"Delta":329913059},{"NoteNumber":81,"Velocity":63,"Duration":1431818,"SoundDuration":1431818,"Delta":329913059},{"NoteNumber":45,"Velocity":54,"Duration":85227,"SoundDuration":85227,"Delta":329913059},{"NoteNumber":48,"Velocity":52,"Duration":85227,"SoundDuration":85227,"Delta":330253968},{"NoteNumber":52,"Velocity":57,"Duration":93750,"SoundDuration":93750,"Delta":330594877},{"NoteNumber":57,"Velocity":54,"Duration":93750,"SoundDuration":93750,"Delta":330969877},{"NoteNumber":45,"Velocity":60,"Duration":187500,"SoundDuration":187500,"Delta":331344877},{"NoteNumber":69,"Velocity":50,"Duration":326086,"SoundDuration":326086,"Delta":332094877},{"NoteNumber":57,"Velocity":37,"Duration":1819092,"SoundDuration":1819092,"Delta":332094877},{"NoteNumber":60,"Velocity":44,"Duration":1215228,"SoundDuration":1215228,"Delta":332094877},{"NoteNumber":68,"Velocity":46,"Duration":306122,"SoundDuration":306122,"Delta":332420964},{"NoteNumber":69,"Velocity":50,"Duration":283018,"SoundDuration":283018,"Delta":332727086},{"NoteNumber":81,"Velocity":55,"Duration":300000,"SoundDuration":300000,"Delta":333010105},{"NoteNumber":80,"Velocity":54,"Duration":277777,"SoundDuration":277777,"Delta":333310105},{"NoteNumber":61,"Velocity":44,"Duration":603864,"SoundDuration":603864,"Delta":333310105},{"NoteNumber":79,"Velocity":53,"Duration":293478,"SoundDuration":293478,"Delta":333587883},{"NoteNumber":79,"Velocity":50,"Duration":288461,"SoundDuration":288461,"Delta":333913970},{"NoteNumber":57,"Velocity":37,"Duration":1800078,"SoundDuration":1800078,"Delta":333913970},{"NoteNumber":62,"Velocity":44,"Duration":1800078,"SoundDuration":1800078,"Delta":333913970},{"NoteNumber":77,"Velocity":48,"Duration":288461,"SoundDuration":288461,"Delta":334202431},{"NoteNumber":76,"Velocity":48,"Duration":277777,"SoundDuration":277777,"Delta":334490893},{"NoteNumber":77,"Velocity":48,"Duration":294117,"SoundDuration":294117,"Delta":334768671},{"NoteNumber":76,"Velocity":50,"Duration":294117,"SoundDuration":294117,"Delta":335062788},{"NoteNumber":77,"Velocity":48,"Duration":357142,"SoundDuration":357142,"Delta":335356906},{"NoteNumber":81,"Velocity":50,"Duration":283018,"SoundDuration":283018,"Delta":335714049},{"NoteNumber":57,"Velocity":34,"Duration":1749436,"SoundDuration":1749436,"Delta":335714049},{"NoteNumber":65,"Velocity":41,"Duration":283018,"SoundDuration":283018,"Delta":335714049},{"NoteNumber":80,"Velocity":45,"Duration":272727,"SoundDuration":272727,"Delta":335997068},{"NoteNumber":64,"Velocity":39,"Duration":272727,"SoundDuration":272727,"Delta":335997068},{"NoteNumber":81,"Velocity":50,"Duration":277777,"SoundDuration":277777,"Delta":336269795},{"NoteNumber":65,"Velocity":41,"Duration":277777,"SoundDuration":277777,"Delta":336269795},{"NoteNumber":80,"Velocity":45,"Duration":288461,"SoundDuration":288461,"Delta":336547573},{"NoteNumber":64,"Velocity":37,"Duration":288461,"SoundDuration":288461,"Delta":336547573},{"NoteNumber":81,"Velocity":50,"Duration":294117,"SoundDuration":294117,"Delta":336836034},{"NoteNumber":65,"Velocity":41,"Duration":294117,"SoundDuration":294117,"Delta":336836034},{"NoteNumber":77,"Velocity":46,"Duration":299999,"SoundDuration":299999,"Delta":337130152},{"NoteNumber":62,"Velocity":38,"Duration":299999,"SoundDuration":299999,"Delta":337130152},{"NoteNumber":77,"Velocity":50,"Duration":294117,"SoundDuration":294117,"Delta":337463485},{"NoteNumber":57,"Velocity":34,"Duration":1761669,"SoundDuration":1761669,"Delta":337463485},{"NoteNumber":62,"Velocity":41,"Duration":294117,"SoundDuration":294117,"Delta":337463485},{"NoteNumber":76,"Velocity":47,"Duration":283018,"SoundDuration":283018,"Delta":337757603},{"NoteNumber":60,"Velocity":37,"Duration":283018,"SoundDuration":283018,"Delta":337757603},{"NoteNumber":75,"Velocity":47,"Duration":288461,"SoundDuration":288461,"Delta":338040622},{"NoteNumber":59,"Velocity":41,"Duration":288461,"SoundDuration":288461,"Delta":338040622},{"NoteNumber":76,"Velocity":47,"Duration":288461,"SoundDuration":288461,"Delta":338329083},{"NoteNumber":60,"Velocity":38,"Duration":288461,"SoundDuration":288461,"Delta":338329083},{"NoteNumber":75,"Velocity":50,"Duration":288461,"SoundDuration":288461,"Delta":338617545},{"NoteNumber":59,"Velocity":41,"Duration":288461,"SoundDuration":288461,"Delta":338617545},{"NoteNumber":76,"Velocity":45,"Duration":287234,"SoundDuration":287234,"Delta":338906006},{"NoteNumber":60,"Velocity":38,"Duration":287234,"SoundDuration":287234,"Delta":338906006},{"NoteNumber":76,"Velocity":50,"Duration":300000,"SoundDuration":300000,"Delta":339225155},{"NoteNumber":60,"Velocity":41,"Duration":300000,"SoundDuration":300000,"Delta":339225155},{"NoteNumber":57,"Velocity":34,"Duration":1781949,"SoundDuration":1781949,"Delta":339225155},{"NoteNumber":74,"Velocity":46,"Duration":283018,"SoundDuration":283018,"Delta":339525155},{"NoteNumber":62,"Velocity":39,"Duration":283018,"SoundDuration":283018,"Delta":339525155},{"NoteNumber":72,"Velocity":46,"Duration":288461,"SoundDuration":288461,"Delta":339808174},{"NoteNumber":64,"Velocity":39,"Duration":288461,"SoundDuration":288461,"Delta":339808174},{"NoteNumber":71,"Velocity":46,"Duration":283018,"SoundDuration":283018,"Delta":340096635},{"NoteNumber":62,"Velocity":41,"Duration":283018,"SoundDuration":283018,"Delta":340096635},{"NoteNumber":69,"Velocity":44,"Duration":294117,"SoundDuration":294117,"Delta":340379654},{"NoteNumber":60,"Velocity":39,"Duration":627451,"SoundDuration":627451,"Delta":340379654},{"NoteNumber":76,"Velocity":50,"Duration":333333,"SoundDuration":333333,"Delta":340673772},{"NoteNumber":77,"Velocity":47,"Duration":306122,"SoundDuration":306122,"Delta":341007105},{"NoteNumber":59,"Velocity":34,"Duration":306122,"SoundDuration":306122,"Delta":341007105},{"NoteNumber":56,"Velocity":28,"Duration":306122,"SoundDuration":306122,"Delta":341007105},{"NoteNumber":74,"Velocity":47,"Duration":288461,"SoundDuration":288461,"Delta":341313228},{"NoteNumber":57,"Velocity":30,"Duration":288461,"SoundDuration":288461,"Delta":341313228},{"NoteNumber":60,"Velocity":36,"Duration":288461,"SoundDuration":288461,"Delta":341313228},{"NoteNumber":71,"Velocity":47,"Duration":300000,"SoundDuration":300000,"Delta":341601689},{"NoteNumber":59,"Velocity":31,"Duration":300000,"SoundDuration":300000,"Delta":341601689},{"NoteNumber":62,"Velocity":37,"Duration":300000,"SoundDuration":300000,"Delta":341601689},{"NoteNumber":69,"Velocity":47,"Duration":288461,"SoundDuration":288461,"Delta":341901689},{"NoteNumber":64,"Velocity":38,"Duration":288461,"SoundDuration":288461,"Delta":341901689},{"NoteNumber":60,"Velocity":32,"Duration":288461,"SoundDuration":288461,"Delta":341901689},{"NoteNumber":68,"Velocity":50,"Duration":300000,"SoundDuration":300000,"Delta":342190151},{"NoteNumber":62,"Velocity":34,"Duration":619148,"SoundDuration":619148,"Delta":342190151},{"NoteNumber":65,"Velocity":40,"Duration":619148,"SoundDuration":619148,"Delta":342190151},{"NoteNumber":71,"Velocity":47,"Duration":287234,"SoundDuration":287234,"Delta":342490151},{"NoteNumber":71,"Velocity":50,"Duration":294117,"SoundDuration":294117,"Delta":342809300},{"NoteNumber":64,"Velocity":38,"Duration":613266,"SoundDuration":613266,"Delta":342809300},{"NoteNumber":60,"Velocity":32,"Duration":613266,"SoundDuration":613266,"Delta":342809300},{"NoteNumber":69,"Velocity":43,"Duration":319148,"SoundDuration":319148,"Delta":343103417},{"NoteNumber":72,"Velocity":55,"Duration":294117,"SoundDuration":294117,"Delta":343422566},{"NoteNumber":56,"Velocity":34,"Duration":627451,"SoundDuration":627451,"Delta":343422566},{"NoteNumber":64,"Velocity":41,"Duration":627451,"SoundDuration":627451,"Delta":343422566},{"NoteNumber":71,"Velocity":49,"Duration":333333,"SoundDuration":333333,"Delta":343716684},{"NoteNumber":74,"Velocity":58,"Duration":306122,"SoundDuration":306122,"Delta":344050017},{"NoteNumber":57,"Velocity":37,"Duration":600240,"SoundDuration":600240,"Delta":344050017},{"NoteNumber":64,"Velocity":44,"Duration":600240,"SoundDuration":600240,"Delta":344050017},{"NoteNumber":72,"Velocity":51,"Duration":294117,"SoundDuration":294117,"Delta":344356140},{"NoteNumber":71,"Velocity":54,"Duration":108695,"SoundDuration":108695,"Delta":344650258},{"NoteNumber":72,"Velocity":56,"Duration":108695,"SoundDuration":108695,"Delta":344758953},{"NoteNumber":74,"Velocity":58,"Duration":108695,"SoundDuration":108695,"Delta":344867649},{"NoteNumber":69,"Velocity":55,"Duration":1216216,"SoundDuration":1216216,"Delta":344976345},{"NoteNumber":72,"Velocity":65,"Duration":1216216,"SoundDuration":1216216,"Delta":344976345},{"NoteNumber":51,"Velocity":49,"Duration":1216216,"SoundDuration":1216216,"Delta":344976345},{"NoteNumber":68,"Velocity":36,"Duration":535714,"SoundDuration":535714,"Delta":346192561},{"NoteNumber":71,"Velocity":51,"Duration":535714,"SoundDuration":535714,"Delta":346192561},{"NoteNumber":52,"Velocity":33,"Duration":535714,"SoundDuration":535714,"Delta":346192561},{"NoteNumber":72,"Velocity":50,"Duration":319148,"SoundDuration":319148,"Delta":346906847},{"NoteNumber":57,"Velocity":43,"Duration":319148,"SoundDuration":319148,"Delta":346906847},{"NoteNumber":71,"Velocity":47,"Duration":294117,"SoundDuration":294117,"Delta":347225996},{"NoteNumber":64,"Velocity":34,"Duration":294117,"SoundDuration":294117,"Delta":347225996},{"NoteNumber":69,"Velocity":50,"Duration":283018,"SoundDuration":283018,"Delta":347520113},{"NoteNumber":60,"Velocity":40,"Duration":283018,"SoundDuration":283018,"Delta":347520113},{"NoteNumber":71,"Velocity":46,"Duration":294117,"SoundDuration":294117,"Delta":347803132},{"NoteNumber":64,"Velocity":35,"Duration":294117,"SoundDuration":294117,"Delta":347803132},{"NoteNumber":72,"Velocity":47,"Duration":283018,"SoundDuration":283018,"Delta":348097250},{"NoteNumber":57,"Velocity":41,"Duration":283018,"SoundDuration":283018,"Delta":348097250},{"NoteNumber":74,"Velocity":48,"Duration":300000,"SoundDuration":300000,"Delta":348380269},{"NoteNumber":64,"Velocity":34,"Duration":300000,"SoundDuration":300000,"Delta":348380269},{"NoteNumber":76,"Velocity":50,"Duration":306122,"SoundDuration":306122,"Delta":348680269},{"NoteNumber":57,"Velocity":42,"Duration":306122,"SoundDuration":306122,"Delta":348680269},{"NoteNumber":75,"Velocity":46,"Duration":288461,"SoundDuration":288461,"Delta":348986391},{"NoteNumber":64,"Velocity":36,"Duration":288461,"SoundDuration":288461,"Delta":348986391},{"NoteNumber":77,"Velocity":55,"Duration":300000,"SoundDuration":300000,"Delta":349274853},{"NoteNumber":60,"Velocity":41,"Duration":300000,"SoundDuration":300000,"Delta":349274853},{"NoteNumber":76,"Velocity":53,"Duration":277777,"SoundDuration":277777,"Delta":349574853},{"NoteNumber":64,"Velocity":36,"Duration":277777,"SoundDuration":277777,"Delta":349574853},{"NoteNumber":74,"Velocity":51,"Duration":294117,"SoundDuration":294117,"Delta":349852630},{"NoteNumber":57,"Velocity":41,"Duration":294117,"SoundDuration":294117,"Delta":349852630},{"NoteNumber":72,"Velocity":48,"Duration":333333,"SoundDuration":333333,"Delta":350146748},{"NoteNumber":64,"Velocity":36,"Duration":333333,"SoundDuration":333333,"Delta":350146748},{"NoteNumber":71,"Velocity":50,"Duration":300000,"SoundDuration":300000,"Delta":350480081},{"NoteNumber":52,"Velocity":43,"Duration":300000,"SoundDuration":300000,"Delta":350480081},{"NoteNumber":69,"Velocity":47,"Duration":300000,"SoundDuration":300000,"Delta":350780081},{"NoteNumber":64,"Velocity":34,"Duration":300000,"SoundDuration":300000,"Delta":350780081},{"NoteNumber":68,"Velocity":50,"Duration":277777,"SoundDuration":277777,"Delta":351080081},{"NoteNumber":59,"Velocity":40,"Duration":277777,"SoundDuration":277777,"Delta":351080081},{"NoteNumber":69,"Velocity":46,"Duration":283018,"SoundDuration":283018,"Delta":351357859},{"NoteNumber":64,"Velocity":35,"Duration":283018,"SoundDuration":283018,"Delta":351357859},{"NoteNumber":71,"Velocity":47,"Duration":294117,"SoundDuration":294117,"Delta":351640878},{"NoteNumber":52,"Velocity":41,"Duration":294117,"SoundDuration":294117,"Delta":351640878},{"NoteNumber":72,"Velocity":48,"Duration":294117,"SoundDuration":294117,"Delta":351934996},{"NoteNumber":64,"Velocity":34,"Duration":294117,"SoundDuration":294117,"Delta":351934996},{"NoteNumber":74,"Velocity":50,"Duration":300000,"SoundDuration":300000,"Delta":352229113},{"NoteNumber":52,"Velocity":42,"Duration":300000,"SoundDuration":300000,"Delta":352229113},{"NoteNumber":73,"Velocity":46,"Duration":277777,"SoundDuration":277777,"Delta":352529113},{"NoteNumber":64,"Velocity":36,"Duration":277777,"SoundDuration":277777,"Delta":352529113},{"NoteNumber":76,"Velocity":54,"Duration":306122,"SoundDuration":306122,"Delta":352806891},{"NoteNumber":59,"Velocity":41,"Duration":306122,"SoundDuration":306122,"Delta":352806891},{"NoteNumber":74,"Velocity":52,"Duration":272727,"SoundDuration":272727,"Delta":353113014},{"NoteNumber":64,"Velocity":36,"Duration":272727,"SoundDuration":272727,"Delta":353113014},{"NoteNumber":72,"Velocity":51,"Duration":294117,"SoundDuration":294117,"Delta":353385741},{"NoteNumber":52,"Velocity":41,"Duration":294117,"SoundDuration":294117,"Delta":353385741},{"NoteNumber":71,"Velocity":49,"Duration":294117,"SoundDuration":294117,"Delta":353679859},{"NoteNumber":64,"Velocity":36,"Duration":294117,"SoundDuration":294117,"Delta":353679859},{"NoteNumber":69,"Velocity":50,"Duration":294117,"SoundDuration":294117,"Delta":353973976},{"NoteNumber":57,"Velocity":43,"Duration":294117,"SoundDuration":294117,"Delta":353973976},{"NoteNumber":68,"Velocity":47,"Duration":277777,"SoundDuration":277777,"Delta":354268094},{"NoteNumber":64,"Velocity":34,"Duration":277777,"SoundDuration":277777,"Delta":354268094},{"NoteNumber":69,"Velocity":50,"Duration":288461,"SoundDuration":288461,"Delta":354545872},{"NoteNumber":60,"Velocity":40,"Duration":288461,"SoundDuration":288461,"Delta":354545872},{"NoteNumber":72,"Velocity":46,"Duration":288461,"SoundDuration":288461,"Delta":354834333},{"NoteNumber":64,"Velocity":35,"Duration":288461,"SoundDuration":288461,"Delta":354834333},{"NoteNumber":71,"Velocity":52,"Duration":300000,"SoundDuration":300000,"Delta":355122795},{"NoteNumber":56,"Velocity":41,"Duration":300000,"SoundDuration":300000,"Delta":355122795},{"NoteNumber":74,"Velocity":48,"Duration":300000,"SoundDuration":300000,"Delta":355422795},{"NoteNumber":64,"Velocity":34,"Duration":300000,"SoundDuration":300000,"Delta":355422795},{"NoteNumber":72,"Velocity":56,"Duration":326086,"SoundDuration":326086,"Delta":355722795},{"NoteNumber":57,"Velocity":42,"Duration":326086,"SoundDuration":326086,"Delta":355722795},{"NoteNumber":71,"Velocity":50,"Duration":277777,"SoundDuration":277777,"Delta":356048882},{"NoteNumber":64,"Velocity":36,"Duration":277777,"SoundDuration":277777,"Delta":356048882},{"NoteNumber":72,"Velocity":54,"Duration":294117,"SoundDuration":294117,"Delta":356326660},{"NoteNumber":60,"Velocity":41,"Duration":294117,"SoundDuration":294117,"Delta":356326660},{"NoteNumber":76,"Velocity":50,"Duration":277777,"SoundDuration":277777,"Delta":356620777},{"NoteNumber":64,"Velocity":36,"Duration":277777,"SoundDuration":277777,"Delta":356620777},{"NoteNumber":74,"Velocity":55,"Duration":294117,"SoundDuration":294117,"Delta":356898555},{"NoteNumber":53,"Velocity":41,"Duration":294117,"SoundDuration":294117,"Delta":356898555},{"NoteNumber":77,"Velocity":48,"Duration":357142,"SoundDuration":357142,"Delta":357192673},{"NoteNumber":62,"Velocity":36,"Duration":357142,"SoundDuration":357142,"Delta":357192673},{"NoteNumber":76,"Velocity":60,"Duration":326086,"SoundDuration":326086,"Delta":357549816},{"NoteNumber":52,"Velocity":43,"Duration":326086,"SoundDuration":326086,"Delta":357549816},{"NoteNumber":75,"Velocity":54,"Duration":300000,"SoundDuration":300000,"Delta":357875903},{"NoteNumber":60,"Velocity":34,"Duration":300000,"SoundDuration":300000,"Delta":357875903},{"NoteNumber":76,"Velocity":56,"Duration":300000,"SoundDuration":300000,"Delta":358175903},{"NoteNumber":57,"Velocity":40,"Duration":300000,"SoundDuration":300000,"Delta":358175903},{"NoteNumber":64,"Velocity":43,"Duration":300000,"SoundDuration":300000,"Delta":358475903},{"NoteNumber":60,"Velocity":35,"Duration":300000,"SoundDuration":300000,"Delta":358475903},{"NoteNumber":66,"Velocity":43,"Duration":319148,"SoundDuration":319148,"Delta":358775903},{"NoteNumber":52,"Velocity":41,"Duration":319148,"SoundDuration":319148,"Delta":358775903},{"NoteNumber":68,"Velocity":46,"Duration":357142,"SoundDuration":357142,"Delta":359095052},{"NoteNumber":59,"Velocity":34,"Duration":357142,"SoundDuration":357142,"Delta":359095052},{"NoteNumber":69,"Velocity":51,"Duration":333333,"SoundDuration":333333,"Delta":359452194},{"NoteNumber":57,"Velocity":46,"Duration":1258078,"SoundDuration":1258078,"Delta":359452194},{"NoteNumber":45,"Velocity":43,"Duration":1258078,"SoundDuration":1258078,"Delta":359452194},{"NoteNumber":68,"Velocity":44,"Duration":312500,"SoundDuration":312500,"Delta":359785528},{"NoteNumber":69,"Velocity":50,"Duration":306122,"SoundDuration":306122,"Delta":360098028},{"NoteNumber":64,"Velocity":45,"Duration":306122,"SoundDuration":306122,"Delta":360404150},{"NoteNumber":60,"Velocity":49,"Duration":319148,"SoundDuration":319148,"Delta":360710273},{"NoteNumber":64,"Velocity":46,"Duration":319149,"SoundDuration":319149,"Delta":361029422},{"NoteNumber":69,"Velocity":55,"Duration":319148,"SoundDuration":319148,"Delta":361348571},{"NoteNumber":81,"Velocity":65,"Duration":319148,"SoundDuration":319148,"Delta":361348571},{"NoteNumber":45,"Velocity":49,"Duration":319148,"SoundDuration":319148,"Delta":361348571},{"NoteNumber":80,"Velocity":60,"Duration":294117,"SoundDuration":294117,"Delta":361667720},{"NoteNumber":68,"Velocity":51,"Duration":294117,"SoundDuration":294117,"Delta":361667720},{"NoteNumber":52,"Velocity":39,"Duration":294117,"SoundDuration":294117,"Delta":361667720},{"NoteNumber":81,"Velocity":66,"Duration":288461,"SoundDuration":288461,"Delta":361961837},{"NoteNumber":69,"Velocity":56,"Duration":288461,"SoundDuration":288461,"Delta":361961837},{"NoteNumber":48,"Velocity":46,"Duration":288461,"SoundDuration":288461,"Delta":361961837},{"NoteNumber":72,"Velocity":51,"Duration":288461,"SoundDuration":288461,"Delta":362250299},{"NoteNumber":84,"Velocity":60,"Duration":288461,"SoundDuration":288461,"Delta":362250299},{"NoteNumber":52,"Velocity":40,"Duration":288461,"SoundDuration":288461,"Delta":362250299},{"NoteNumber":83,"Velocity":63,"Duration":300000,"SoundDuration":300000,"Delta":362538760},{"NoteNumber":71,"Velocity":53,"Duration":300000,"SoundDuration":300000,"Delta":362538760},{"NoteNumber":44,"Velocity":47,"Duration":300000,"SoundDuration":300000,"Delta":362538760},{"NoteNumber":86,"Velocity":63,"Duration":300000,"SoundDuration":300000,"Delta":362838760},{"NoteNumber":74,"Velocity":53,"Duration":300000,"SoundDuration":300000,"Delta":362838760},{"NoteNumber":52,"Velocity":39,"Duration":300000,"SoundDuration":300000,"Delta":362838760},{"NoteNumber":72,"Velocity":56,"Duration":312500,"SoundDuration":312500,"Delta":363138760},{"NoteNumber":84,"Velocity":66,"Duration":312500,"SoundDuration":312500,"Delta":363138760},{"NoteNumber":45,"Velocity":48,"Duration":312500,"SoundDuration":312500,"Delta":363138760},{"NoteNumber":71,"Velocity":51,"Duration":288461,"SoundDuration":288461,"Delta":363451260},{"NoteNumber":83,"Velocity":60,"Duration":288461,"SoundDuration":288461,"Delta":363451260},{"NoteNumber":52,"Velocity":41,"Duration":288461,"SoundDuration":288461,"Delta":363451260},{"NoteNumber":84,"Velocity":71,"Duration":294117,"SoundDuration":294117,"Delta":363739722},{"NoteNumber":72,"Velocity":60,"Duration":294117,"SoundDuration":294117,"Delta":363739722},{"NoteNumber":48,"Velocity":47,"Duration":294117,"SoundDuration":294117,"Delta":363739722},{"NoteNumber":88,"Velocity":67,"Duration":288461,"SoundDuration":288461,"Delta":364033840},{"NoteNumber":76,"Velocity":56,"Duration":288461,"SoundDuration":288461,"Delta":364033840},{"NoteNumber":52,"Velocity":41,"Duration":288461,"SoundDuration":288461,"Delta":364033840},{"NoteNumber":74,"Velocity":55,"Duration":294117,"SoundDuration":294117,"Delta":364322301},{"NoteNumber":86,"Velocity":65,"Duration":294117,"SoundDuration":294117,"Delta":364322301},{"NoteNumber":41,"Velocity":47,"Duration":294117,"SoundDuration":294117,"Delta":364322301},{"NoteNumber":77,"Velocity":55,"Duration":357142,"SoundDuration":357142,"Delta":364616419},{"NoteNumber":89,"Velocity":65,"Duration":357142,"SoundDuration":357142,"Delta":364616419},{"NoteNumber":50,"Velocity":41,"Duration":357142,"SoundDuration":357142,"Delta":364616419},{"NoteNumber":76,"Velocity":56,"Duration":312500,"SoundDuration":312500,"Delta":364973562},{"NoteNumber":88,"Velocity":67,"Duration":312500,"SoundDuration":312500,"Delta":364973562},{"NoteNumber":40,"Velocity":49,"Duration":312500,"SoundDuration":312500,"Delta":364973562},{"NoteNumber":87,"Velocity":59,"Duration":312500,"SoundDuration":312500,"Delta":365286062},{"NoteNumber":75,"Velocity":50,"Duration":312500,"SoundDuration":312500,"Delta":365286062},{"NoteNumber":48,"Velocity":39,"Duration":312500,"SoundDuration":312500,"Delta":365286062},{"NoteNumber":76,"Velocity":56,"Duration":319148,"SoundDuration":319148,"Delta":365598562},{"NoteNumber":88,"Velocity":66,"Duration":319148,"SoundDuration":319148,"Delta":365598562},{"NoteNumber":45,"Velocity":46,"Duration":319148,"SoundDuration":319148,"Delta":365598562},{"NoteNumber":64,"Velocity":51,"Duration":333333,"SoundDuration":333333,"Delta":365917711},{"NoteNumber":76,"Velocity":60,"Duration":333333,"SoundDuration":333333,"Delta":365917711},{"NoteNumber":48,"Velocity":40,"Duration":333333,"SoundDuration":333333,"Delta":365917711},{"NoteNumber":78,"Velocity":63,"Duration":340909,"SoundDuration":340909,"Delta":366251044},{"NoteNumber":66,"Velocity":53,"Duration":340909,"SoundDuration":340909,"Delta":366251044},{"NoteNumber":40,"Velocity":47,"Duration":340909,"SoundDuration":340909,"Delta":366251044},{"NoteNumber":80,"Velocity":63,"Duration":394736,"SoundDuration":394736,"Delta":366591953},{"NoteNumber":68,"Velocity":53,"Duration":394736,"SoundDuration":394736,"Delta":366591953},{"NoteNumber":47,"Velocity":39,"Duration":394736,"SoundDuration":394736,"Delta":366591953},{"NoteNumber":81,"Velocity":63,"Duration":1431818,"SoundDuration":1431818,"Delta":366986690},{"NoteNumber":69,"Velocity":53,"Duration":1431818,"SoundDuration":1431818,"Delta":366986690},{"NoteNumber":33,"Velocity":54,"Duration":85227,"SoundDuration":85227,"Delta":366986690},{"NoteNumber":36,"Velocity":52,"Duration":85227,"SoundDuration":85227,"Delta":367327599},{"NoteNumber":40,"Velocity":57,"Duration":93750,"SoundDuration":93750,"Delta":367668508},{"NoteNumber":45,"Velocity":54,"Duration":93750,"SoundDuration":93750,"Delta":368043508},{"NoteNumber":33,"Velocity":60,"Duration":187500,"SoundDuration":187500,"Delta":368418508},{"NoteNumber":69,"Velocity":50,"Duration":306122,"SoundDuration":306122,"Delta":369168508},{"NoteNumber":57,"Velocity":37,"Duration":1799128,"SoundDuration":1799128,"Delta":369168508},{"NoteNumber":60,"Velocity":44,"Duration":1195263,"SoundDuration":1195263,"Delta":369168508},{"NoteNumber":68,"Velocity":46,"Duration":306122,"SoundDuration":306122,"Delta":369474630},{"NoteNumber":69,"Velocity":50,"Duration":283018,"SoundDuration":283018,"Delta":369780753},{"NoteNumber":81,"Velocity":55,"Duration":300000,"SoundDuration":300000,"Delta":370063771},{"NoteNumber":80,"Velocity":54,"Duration":277777,"SoundDuration":277777,"Delta":370363771},{"NoteNumber":61,"Velocity":44,"Duration":603864,"SoundDuration":603864,"Delta":370363771},{"NoteNumber":79,"Velocity":53,"Duration":293478,"SoundDuration":293478,"Delta":370641549},{"NoteNumber":79,"Velocity":50,"Duration":288461,"SoundDuration":288461,"Delta":370967636},{"NoteNumber":57,"Velocity":37,"Duration":1800078,"SoundDuration":1800078,"Delta":370967636},{"NoteNumber":62,"Velocity":44,"Duration":1800078,"SoundDuration":1800078,"Delta":370967636},{"NoteNumber":77,"Velocity":48,"Duration":288461,"SoundDuration":288461,"Delta":371256098},{"NoteNumber":76,"Velocity":48,"Duration":277777,"SoundDuration":277777,"Delta":371544559},{"NoteNumber":77,"Velocity":48,"Duration":294117,"SoundDuration":294117,"Delta":371822337},{"NoteNumber":76,"Velocity":50,"Duration":294117,"SoundDuration":294117,"Delta":372116455},{"NoteNumber":77,"Velocity":48,"Duration":357142,"SoundDuration":357142,"Delta":372410572},{"NoteNumber":81,"Velocity":50,"Duration":294117,"SoundDuration":294117,"Delta":372767715},{"NoteNumber":65,"Velocity":41,"Duration":294117,"SoundDuration":294117,"Delta":372767715},{"NoteNumber":57,"Velocity":34,"Duration":1760535,"SoundDuration":1760535,"Delta":372767715},{"NoteNumber":80,"Velocity":45,"Duration":272727,"SoundDuration":272727,"Delta":373061833},{"NoteNumber":64,"Velocity":39,"Duration":272727,"SoundDuration":272727,"Delta":373061833},{"NoteNumber":81,"Velocity":50,"Duration":277777,"SoundDuration":277777,"Delta":373334560},{"NoteNumber":65,"Velocity":41,"Duration":277777,"SoundDuration":277777,"Delta":373334560},{"NoteNumber":80,"Velocity":45,"Duration":288461,"SoundDuration":288461,"Delta":373612338},{"NoteNumber":64,"Velocity":37,"Duration":288461,"SoundDuration":288461,"Delta":373612338},{"NoteNumber":81,"Velocity":50,"Duration":294117,"SoundDuration":294117,"Delta":373900799},{"NoteNumber":65,"Velocity":41,"Duration":294117,"SoundDuration":294117,"Delta":373900799},{"NoteNumber":77,"Velocity":46,"Duration":299999,"SoundDuration":299999,"Delta":374194917},{"NoteNumber":62,"Velocity":38,"Duration":299999,"SoundDuration":299999,"Delta":374194917},{"NoteNumber":77,"Velocity":50,"Duration":306122,"SoundDuration":306122,"Delta":374528250},{"NoteNumber":62,"Velocity":41,"Duration":306122,"SoundDuration":306122,"Delta":374528250},{"NoteNumber":57,"Velocity":34,"Duration":1757548,"SoundDuration":1757548,"Delta":374528250},{"NoteNumber":76,"Velocity":47,"Duration":283018,"SoundDuration":283018,"Delta":374834373},{"NoteNumber":60,"Velocity":37,"Duration":283018,"SoundDuration":283018,"Delta":374834373},{"NoteNumber":75,"Velocity":47,"Duration":288461,"SoundDuration":288461,"Delta":375117392},{"NoteNumber":59,"Velocity":41,"Duration":288461,"SoundDuration":288461,"Delta":375117392},{"NoteNumber":76,"Velocity":47,"Duration":277777,"SoundDuration":277777,"Delta":375405853},{"NoteNumber":60,"Velocity":38,"Duration":277777,"SoundDuration":277777,"Delta":375405853},{"NoteNumber":75,"Velocity":50,"Duration":283018,"SoundDuration":283018,"Delta":375683631},{"NoteNumber":59,"Velocity":41,"Duration":283018,"SoundDuration":283018,"Delta":375683631},{"NoteNumber":76,"Velocity":45,"Duration":287234,"SoundDuration":287234,"Delta":375966650},{"NoteNumber":60,"Velocity":38,"Duration":287234,"SoundDuration":287234,"Delta":375966650},{"NoteNumber":76,"Velocity":50,"Duration":312500,"SoundDuration":312500,"Delta":376285799},{"NoteNumber":57,"Velocity":34,"Duration":1794449,"SoundDuration":1794449,"Delta":376285799},{"NoteNumber":60,"Velocity":41,"Duration":312500,"SoundDuration":312500,"Delta":376285799},{"NoteNumber":74,"Velocity":46,"Duration":283018,"SoundDuration":283018,"Delta":376598299},{"NoteNumber":62,"Velocity":39,"Duration":283018,"SoundDuration":283018,"Delta":376598299},{"NoteNumber":72,"Velocity":46,"Duration":288461,"SoundDuration":288461,"Delta":376881317},{"NoteNumber":64,"Velocity":39,"Duration":288461,"SoundDuration":288461,"Delta":376881317},{"NoteNumber":71,"Velocity":46,"Duration":283018,"SoundDuration":283018,"Delta":377169779},{"NoteNumber":62,"Velocity":41,"Duration":283018,"SoundDuration":283018,"Delta":377169779},{"NoteNumber":69,"Velocity":44,"Duration":294117,"SoundDuration":294117,"Delta":377452798},{"NoteNumber":60,"Velocity":39,"Duration":627451,"SoundDuration":627451,"Delta":377452798},{"NoteNumber":76,"Velocity":50,"Duration":333333,"SoundDuration":333333,"Delta":377746915},{"NoteNumber":77,"Velocity":47,"Duration":312500,"SoundDuration":312500,"Delta":378080249},{"NoteNumber":59,"Velocity":34,"Duration":312500,"SoundDuration":312500,"Delta":378080249},{"NoteNumber":56,"Velocity":28,"Duration":312500,"SoundDuration":312500,"Delta":378080249},{"NoteNumber":74,"Velocity":47,"Duration":288461,"SoundDuration":288461,"Delta":378392749},{"NoteNumber":57,"Velocity":30,"Duration":288461,"SoundDuration":288461,"Delta":378392749},{"NoteNumber":60,"Velocity":36,"Duration":288461,"SoundDuration":288461,"Delta":378392749},{"NoteNumber":71,"Velocity":47,"Duration":300000,"SoundDuration":300000,"Delta":378681210},{"NoteNumber":59,"Velocity":31,"Duration":300000,"SoundDuration":300000,"Delta":378681210},{"NoteNumber":62,"Velocity":37,"Duration":300000,"SoundDuration":300000,"Delta":378681210},{"NoteNumber":69,"Velocity":47,"Duration":288461,"SoundDuration":288461,"Delta":378981210},{"NoteNumber":60,"Velocity":32,"Duration":288461,"SoundDuration":288461,"Delta":378981210},{"NoteNumber":64,"Velocity":38,"Duration":288461,"SoundDuration":288461,"Delta":378981210},{"NoteNumber":68,"Velocity":50,"Duration":300000,"SoundDuration":300000,"Delta":379269672},{"NoteNumber":62,"Velocity":34,"Duration":619148,"SoundDuration":619148,"Delta":379269672},{"NoteNumber":65,"Velocity":40,"Duration":619148,"SoundDuration":619148,"Delta":379269672},{"NoteNumber":71,"Velocity":47,"Duration":287234,"SoundDuration":287234,"Delta":379569672},{"NoteNumber":71,"Velocity":50,"Duration":294117,"SoundDuration":294117,"Delta":379888821},{"NoteNumber":60,"Velocity":32,"Duration":613266,"SoundDuration":613266,"Delta":379888821},{"NoteNumber":64,"Velocity":38,"Duration":613266,"SoundDuration":613266,"Delta":379888821},{"NoteNumber":69,"Velocity":43,"Duration":319148,"SoundDuration":319148,"Delta":380182938},{"NoteNumber":72,"Velocity":55,"Duration":294117,"SoundDuration":294117,"Delta":380502087},{"NoteNumber":56,"Velocity":34,"Duration":627451,"SoundDuration":627451,"Delta":380502087},{"NoteNumber":64,"Velocity":41,"Duration":627451,"SoundDuration":627451,"Delta":380502087},{"NoteNumber":71,"Velocity":49,"Duration":333333,"SoundDuration":333333,"Delta":380796205},{"NoteNumber":74,"Velocity":58,"Duration":306122,"SoundDuration":306122,"Delta":381129538},{"NoteNumber":64,"Velocity":44,"Duration":600240,"SoundDuration":600240,"Delta":381129538},{"NoteNumber":57,"Velocity":37,"Duration":600240,"SoundDuration":600240,"Delta":381129538},{"NoteNumber":72,"Velocity":51,"Duration":294117,"SoundDuration":294117,"Delta":381435661},{"NoteNumber":71,"Velocity":54,"Duration":108695,"SoundDuration":108695,"Delta":381729779},{"NoteNumber":72,"Velocity":56,"Duration":108695,"SoundDuration":108695,"Delta":381838474},{"NoteNumber":74,"Velocity":58,"Duration":108695,"SoundDuration":108695,"Delta":381947170},{"NoteNumber":72,"Velocity":65,"Duration":1216216,"SoundDuration":1216216,"Delta":382055866},{"NoteNumber":69,"Velocity":55,"Duration":1216216,"SoundDuration":1216216,"Delta":382055866},{"NoteNumber":51,"Velocity":49,"Duration":1216216,"SoundDuration":1216216,"Delta":382055866},{"NoteNumber":68,"Velocity":36,"Duration":535714,"SoundDuration":535714,"Delta":383272082},{"NoteNumber":71,"Velocity":51,"Duration":535714,"SoundDuration":535714,"Delta":383272082},{"NoteNumber":52,"Velocity":33,"Duration":535714,"SoundDuration":535714,"Delta":383272082},{"NoteNumber":72,"Velocity":50,"Duration":326086,"SoundDuration":326086,"Delta":383986368},{"NoteNumber":57,"Velocity":43,"Duration":326086,"SoundDuration":326086,"Delta":383986368},{"NoteNumber":71,"Velocity":47,"Duration":294117,"SoundDuration":294117,"Delta":384312455},{"NoteNumber":64,"Velocity":34,"Duration":294117,"SoundDuration":294117,"Delta":384312455},{"NoteNumber":69,"Velocity":50,"Duration":283018,"SoundDuration":283018,"Delta":384606572},{"NoteNumber":60,"Velocity":40,"Duration":283018,"SoundDuration":283018,"Delta":384606572},{"NoteNumber":71,"Velocity":46,"Duration":288461,"SoundDuration":288461,"Delta":384889591},{"NoteNumber":64,"Velocity":35,"Duration":288461,"SoundDuration":288461,"Delta":384889591},{"NoteNumber":72,"Velocity":47,"Duration":283018,"SoundDuration":283018,"Delta":385178053},{"NoteNumber":57,"Velocity":41,"Duration":283018,"SoundDuration":283018,"Delta":385178053},{"NoteNumber":74,"Velocity":48,"Duration":300000,"SoundDuration":300000,"Delta":385461071},{"NoteNumber":64,"Velocity":34,"Duration":300000,"SoundDuration":300000,"Delta":385461071},{"NoteNumber":76,"Velocity":50,"Duration":306122,"SoundDuration":306122,"Delta":385761071},{"NoteNumber":57,"Velocity":42,"Duration":306122,"SoundDuration":306122,"Delta":385761071},{"NoteNumber":75,"Velocity":46,"Duration":288461,"SoundDuration":288461,"Delta":386067194},{"NoteNumber":64,"Velocity":36,"Duration":288461,"SoundDuration":288461,"Delta":386067194},{"NoteNumber":77,"Velocity":55,"Duration":300000,"SoundDuration":300000,"Delta":386355655},{"NoteNumber":60,"Velocity":41,"Duration":300000,"SoundDuration":300000,"Delta":386355655},{"NoteNumber":76,"Velocity":53,"Duration":277777,"SoundDuration":277777,"Delta":386655655},{"NoteNumber":64,"Velocity":36,"Duration":277777,"SoundDuration":277777,"Delta":386655655},{"NoteNumber":74,"Velocity":51,"Duration":294117,"SoundDuration":294117,"Delta":386933433},{"NoteNumber":57,"Velocity":41,"Duration":294117,"SoundDuration":294117,"Delta":386933433},{"NoteNumber":72,"Velocity":48,"Duration":333333,"SoundDuration":333333,"Delta":387227551},{"NoteNumber":64,"Velocity":36,"Duration":333333,"SoundDuration":333333,"Delta":387227551},{"NoteNumber":71,"Velocity":50,"Duration":300000,"SoundDuration":300000,"Delta":387560884},{"NoteNumber":52,"Velocity":43,"Duration":300000,"SoundDuration":300000,"Delta":387560884},{"NoteNumber":69,"Velocity":47,"Duration":300000,"SoundDuration":300000,"Delta":387860884},{"NoteNumber":64,"Velocity":34,"Duration":300000,"SoundDuration":300000,"Delta":387860884},{"NoteNumber":68,"Velocity":50,"Duration":277777,"SoundDuration":277777,"Delta":388160884},{"NoteNumber":59,"Velocity":40,"Duration":277777,"SoundDuration":277777,"Delta":388160884},{"NoteNumber":69,"Velocity":46,"Duration":283018,"SoundDuration":283018,"Delta":388438662},{"NoteNumber":64,"Velocity":35,"Duration":283018,"SoundDuration":283018,"Delta":388438662},{"NoteNumber":71,"Velocity":47,"Duration":294117,"SoundDuration":294117,"Delta":388721681},{"NoteNumber":52,"Velocity":41,"Duration":294117,"SoundDuration":294117,"Delta":388721681},{"NoteNumber":72,"Velocity":48,"Duration":294117,"SoundDuration":294117,"Delta":389015798},{"NoteNumber":64,"Velocity":34,"Duration":294117,"SoundDuration":294117,"Delta":389015798},{"NoteNumber":74,"Velocity":50,"Duration":300000,"SoundDuration":300000,"Delta":389309916},{"NoteNumber":52,"Velocity":42,"Duration":300000,"SoundDuration":300000,"Delta":389309916},{"NoteNumber":73,"Velocity":46,"Duration":272727,"SoundDuration":272727,"Delta":389609916},{"NoteNumber":64,"Velocity":36,"Duration":272727,"SoundDuration":272727,"Delta":389609916},{"NoteNumber":76,"Velocity":54,"Duration":294117,"SoundDuration":294117,"Delta":389882643},{"NoteNumber":59,"Velocity":41,"Duration":294117,"SoundDuration":294117,"Delta":389882643},{"NoteNumber":74,"Velocity":52,"Duration":272727,"SoundDuration":272727,"Delta":390176761},{"NoteNumber":64,"Velocity":36,"Duration":272727,"SoundDuration":272727,"Delta":390176761},{"NoteNumber":72,"Velocity":51,"Duration":294117,"SoundDuration":294117,"Delta":390449488},{"NoteNumber":52,"Velocity":41,"Duration":294117,"SoundDuration":294117,"Delta":390449488},{"NoteNumber":71,"Velocity":49,"Duration":294117,"SoundDuration":294117,"Delta":390743606},{"NoteNumber":64,"Velocity":36,"Duration":294117,"SoundDuration":294117,"Delta":390743606},{"NoteNumber":69,"Velocity":50,"Duration":306122,"SoundDuration":306122,"Delta":391037724},{"NoteNumber":57,"Velocity":43,"Duration":306122,"SoundDuration":306122,"Delta":391037724},{"NoteNumber":68,"Velocity":47,"Duration":277777,"SoundDuration":277777,"Delta":391343846},{"NoteNumber":64,"Velocity":34,"Duration":277777,"SoundDuration":277777,"Delta":391343846},{"NoteNumber":69,"Velocity":50,"Duration":277777,"SoundDuration":277777,"Delta":391621624},{"NoteNumber":60,"Velocity":40,"Duration":277777,"SoundDuration":277777,"Delta":391621624},{"NoteNumber":72,"Velocity":46,"Duration":288461,"SoundDuration":288461,"Delta":391899402},{"NoteNumber":64,"Velocity":35,"Duration":288461,"SoundDuration":288461,"Delta":391899402},{"NoteNumber":71,"Velocity":52,"Duration":300000,"SoundDuration":300000,"Delta":392187863},{"NoteNumber":56,"Velocity":41,"Duration":300000,"SoundDuration":300000,"Delta":392187863},{"NoteNumber":74,"Velocity":48,"Duration":300000,"SoundDuration":300000,"Delta":392487863},{"NoteNumber":64,"Velocity":34,"Duration":300000,"SoundDuration":300000,"Delta":392487863},{"NoteNumber":72,"Velocity":56,"Duration":294117,"SoundDuration":294117,"Delta":392787863},{"NoteNumber":57,"Velocity":42,"Duration":294117,"SoundDuration":294117,"Delta":392787863},{"NoteNumber":71,"Velocity":50,"Duration":277777,"SoundDuration":277777,"Delta":393081981},{"NoteNumber":64,"Velocity":36,"Duration":277777,"SoundDuration":277777,"Delta":393081981},{"NoteNumber":72,"Velocity":54,"Duration":294117,"SoundDuration":294117,"Delta":393359759},{"NoteNumber":60,"Velocity":41,"Duration":294117,"SoundDuration":294117,"Delta":393359759},{"NoteNumber":76,"Velocity":50,"Duration":277777,"SoundDuration":277777,"Delta":393653877},{"NoteNumber":64,"Velocity":36,"Duration":277777,"SoundDuration":277777,"Delta":393653877},{"NoteNumber":74,"Velocity":55,"Duration":294117,"SoundDuration":294117,"Delta":393931654},{"NoteNumber":53,"Velocity":41,"Duration":294117,"SoundDuration":294117,"Delta":393931654},{"NoteNumber":77,"Velocity":48,"Duration":357142,"SoundDuration":357142,"Delta":394225772},{"NoteNumber":62,"Velocity":36,"Duration":357142,"SoundDuration":357142,"Delta":394225772},{"NoteNumber":76,"Velocity":60,"Duration":326086,"SoundDuration":326086,"Delta":394582915},{"NoteNumber":52,"Velocity":43,"Duration":326086,"SoundDuration":326086,"Delta":394582915},{"NoteNumber":75,"Velocity":54,"Duration":300000,"SoundDuration":300000,"Delta":394909002},{"NoteNumber":60,"Velocity":34,"Duration":300000,"SoundDuration":300000,"Delta":394909002},{"NoteNumber":76,"Velocity":56,"Duration":300000,"SoundDuration":300000,"Delta":395209002},{"NoteNumber":57,"Velocity":40,"Duration":300000,"SoundDuration":300000,"Delta":395209002},{"NoteNumber":64,"Velocity":43,"Duration":300000,"SoundDuration":300000,"Delta":395509002},{"NoteNumber":60,"Velocity":35,"Duration":300000,"SoundDuration":300000,"Delta":395509002},{"NoteNumber":66,"Velocity":43,"Duration":319148,"SoundDuration":319148,"Delta":395809002},{"NoteNumber":52,"Velocity":41,"Duration":319148,"SoundDuration":319148,"Delta":395809002},{"NoteNumber":68,"Velocity":46,"Duration":357142,"SoundDuration":357142,"Delta":396128151},{"NoteNumber":59,"Velocity":34,"Duration":357142,"SoundDuration":357142,"Delta":396128151},{"NoteNumber":69,"Velocity":51,"Duration":333333,"SoundDuration":333333,"Delta":396485294},{"NoteNumber":57,"Velocity":46,"Duration":1258078,"SoundDuration":1258078,"Delta":396485294},{"NoteNumber":45,"Velocity":43,"Duration":1258078,"SoundDuration":1258078,"Delta":396485294},{"NoteNumber":68,"Velocity":44,"Duration":312500,"SoundDuration":312500,"Delta":396818627},{"NoteNumber":69,"Velocity":50,"Duration":306122,"SoundDuration":306122,"Delta":397131127},{"NoteNumber":64,"Velocity":45,"Duration":306122,"SoundDuration":306122,"Delta":397437249},{"NoteNumber":60,"Velocity":49,"Duration":319148,"SoundDuration":319148,"Delta":397743372},{"NoteNumber":64,"Velocity":46,"Duration":319149,"SoundDuration":319149,"Delta":398062521},{"NoteNumber":69,"Velocity":55,"Duration":294117,"SoundDuration":294117,"Delta":398381670},{"NoteNumber":81,"Velocity":65,"Duration":294117,"SoundDuration":294117,"Delta":398381670},{"NoteNumber":45,"Velocity":49,"Duration":294117,"SoundDuration":294117,"Delta":398381670},{"NoteNumber":80,"Velocity":60,"Duration":277777,"SoundDuration":277777,"Delta":398675788},{"NoteNumber":68,"Velocity":51,"Duration":277777,"SoundDuration":277777,"Delta":398675788},{"NoteNumber":52,"Velocity":39,"Duration":277777,"SoundDuration":277777,"Delta":398675788},{"NoteNumber":81,"Velocity":66,"Duration":288461,"SoundDuration":288461,"Delta":398953565},{"NoteNumber":69,"Velocity":56,"Duration":288461,"SoundDuration":288461,"Delta":398953565},{"NoteNumber":48,"Velocity":46,"Duration":288461,"SoundDuration":288461,"Delta":398953565},{"NoteNumber":84,"Velocity":60,"Duration":288461,"SoundDuration":288461,"Delta":399242027},{"NoteNumber":72,"Velocity":51,"Duration":288461,"SoundDuration":288461,"Delta":399242027},{"NoteNumber":52,"Velocity":40,"Duration":288461,"SoundDuration":288461,"Delta":399242027},{"NoteNumber":71,"Velocity":53,"Duration":300000,"SoundDuration":300000,"Delta":399530488},{"NoteNumber":83,"Velocity":63,"Duration":300000,"SoundDuration":300000,"Delta":399530488},{"NoteNumber":44,"Velocity":47,"Duration":300000,"SoundDuration":300000,"Delta":399530488},{"NoteNumber":86,"Velocity":63,"Duration":300000,"SoundDuration":300000,"Delta":399830488},{"NoteNumber":74,"Velocity":53,"Duration":300000,"SoundDuration":300000,"Delta":399830488},{"NoteNumber":52,"Velocity":39,"Duration":300000,"SoundDuration":300000,"Delta":399830488},{"NoteNumber":84,"Velocity":66,"Duration":300000,"SoundDuration":300000,"Delta":400130488},{"NoteNumber":72,"Velocity":56,"Duration":300000,"SoundDuration":300000,"Delta":400130488},{"NoteNumber":45,"Velocity":48,"Duration":300000,"SoundDuration":300000,"Delta":400130488},{"NoteNumber":83,"Velocity":60,"Duration":277777,"SoundDuration":277777,"Delta":400430488},{"NoteNumber":71,"Velocity":51,"Duration":277777,"SoundDuration":277777,"Delta":400430488},{"NoteNumber":52,"Velocity":41,"Duration":277777,"SoundDuration":277777,"Delta":400430488},{"NoteNumber":84,"Velocity":71,"Duration":294117,"SoundDuration":294117,"Delta":400708266},{"NoteNumber":72,"Velocity":60,"Duration":294117,"SoundDuration":294117,"Delta":400708266},{"NoteNumber":48,"Velocity":47,"Duration":294117,"SoundDuration":294117,"Delta":400708266},{"NoteNumber":76,"Velocity":56,"Duration":288461,"SoundDuration":288461,"Delta":401002384},{"NoteNumber":88,"Velocity":67,"Duration":288461,"SoundDuration":288461,"Delta":401002384},{"NoteNumber":52,"Velocity":41,"Duration":288461,"SoundDuration":288461,"Delta":401002384},{"NoteNumber":74,"Velocity":55,"Duration":294117,"SoundDuration":294117,"Delta":401290845},{"NoteNumber":86,"Velocity":65,"Duration":294117,"SoundDuration":294117,"Delta":401290845},{"NoteNumber":41,"Velocity":47,"Duration":294117,"SoundDuration":294117,"Delta":401290845},{"NoteNumber":77,"Velocity":55,"Duration":357142,"SoundDuration":357142,"Delta":401584963},{"NoteNumber":89,"Velocity":65,"Duration":357142,"SoundDuration":357142,"Delta":401584963},{"NoteNumber":50,"Velocity":41,"Duration":357142,"SoundDuration":357142,"Delta":401584963},{"NoteNumber":88,"Velocity":67,"Duration":312500,"SoundDuration":312500,"Delta":401942106},{"NoteNumber":76,"Velocity":56,"Duration":312500,"SoundDuration":312500,"Delta":401942106},{"NoteNumber":40,"Velocity":49,"Duration":312500,"SoundDuration":312500,"Delta":401942106},{"NoteNumber":87,"Velocity":59,"Duration":312500,"SoundDuration":312500,"Delta":402254606},{"NoteNumber":75,"Velocity":50,"Duration":312500,"SoundDuration":312500,"Delta":402254606},{"NoteNumber":48,"Velocity":39,"Duration":312500,"SoundDuration":312500,"Delta":402254606},{"NoteNumber":88,"Velocity":66,"Duration":319148,"SoundDuration":319148,"Delta":402567106},{"NoteNumber":76,"Velocity":56,"Duration":319148,"SoundDuration":319148,"Delta":402567106},{"NoteNumber":45,"Velocity":46,"Duration":319148,"SoundDuration":319148,"Delta":402567106},{"NoteNumber":64,"Velocity":51,"Duration":333333,"SoundDuration":333333,"Delta":402886255},{"NoteNumber":76,"Velocity":60,"Duration":333333,"SoundDuration":333333,"Delta":402886255},{"NoteNumber":48,"Velocity":40,"Duration":333333,"SoundDuration":333333,"Delta":402886255},{"NoteNumber":66,"Velocity":53,"Duration":340909,"SoundDuration":340909,"Delta":403219588},{"NoteNumber":78,"Velocity":63,"Duration":340909,"SoundDuration":340909,"Delta":403219588},{"NoteNumber":40,"Velocity":47,"Duration":340909,"SoundDuration":340909,"Delta":403219588},{"NoteNumber":80,"Velocity":63,"Duration":405405,"SoundDuration":405405,"Delta":403560497},{"NoteNumber":68,"Velocity":53,"Duration":405405,"SoundDuration":405405,"Delta":403560497},{"NoteNumber":47,"Velocity":39,"Duration":405405,"SoundDuration":405405,"Delta":403560497},{"NoteNumber":81,"Velocity":63,"Duration":1596581,"SoundDuration":1596581,"Delta":403965903},{"NoteNumber":69,"Velocity":53,"Duration":1596581,"SoundDuration":1596581,"Delta":403965903},{"NoteNumber":33,"Velocity":52,"Duration":93750,"SoundDuration":93750,"Delta":403965903},{"NoteNumber":36,"Velocity":49,"Duration":93750,"SoundDuration":93750,"Delta":404340903},{"NoteNumber":40,"Velocity":56,"Duration":101351,"SoundDuration":101351,"Delta":404715903},{"NoteNumber":45,"Velocity":51,"Duration":110294,"SoundDuration":110294,"Delta":405121308},{"NoteNumber":33,"Velocity":58,"Duration":220588,"SoundDuration":220588,"Delta":405562485},{"NoteNumber":73,"Velocity":50,"Duration":245901,"SoundDuration":245901,"Delta":410357882},{"NoteNumber":69,"Velocity":50,"Duration":245901,"SoundDuration":245901,"Delta":410357882},{"NoteNumber":45,"Velocity":39,"Duration":491803,"SoundDuration":491803,"Delta":410357882},{"NoteNumber":57,"Velocity":47,"Duration":491803,"SoundDuration":491803,"Delta":410357882},{"NoteNumber":64,"Velocity":50,"Duration":245901,"SoundDuration":245901,"Delta":410603783},{"NoteNumber":69,"Velocity":44,"Duration":208333,"SoundDuration":208333,"Delta":410849685},{"NoteNumber":73,"Velocity":44,"Duration":208333,"SoundDuration":208333,"Delta":410849685},{"NoteNumber":85,"Velocity":52,"Duration":425724,"SoundDuration":425724,"Delta":410849685},{"NoteNumber":81,"Velocity":52,"Duration":425724,"SoundDuration":425724,"Delta":410849685},{"NoteNumber":64,"Velocity":49,"Duration":217391,"SoundDuration":217391,"Delta":411058018},{"NoteNumber":74,"Velocity":45,"Duration":199999,"SoundDuration":199999,"Delta":411275410},{"NoteNumber":86,"Velocity":53,"Duration":408333,"SoundDuration":408333,"Delta":411275410},{"NoteNumber":83,"Velocity":53,"Duration":408333,"SoundDuration":408333,"Delta":411275410},{"NoteNumber":71,"Velocity":45,"Duration":199999,"SoundDuration":199999,"Delta":411275410},{"NoteNumber":64,"Velocity":50,"Duration":208333,"SoundDuration":208333,"Delta":411475410},{"NoteNumber":88,"Velocity":55,"Duration":395651,"SoundDuration":395651,"Delta":411683743},{"NoteNumber":85,"Velocity":55,"Duration":395651,"SoundDuration":395651,"Delta":411683743},{"NoteNumber":76,"Velocity":46,"Duration":202702,"SoundDuration":202702,"Delta":411683743},{"NoteNumber":73,"Velocity":46,"Duration":202702,"SoundDuration":202702,"Delta":411683743},{"NoteNumber":64,"Velocity":50,"Duration":192948,"SoundDuration":192948,"Delta":411886446},{"NoteNumber":74,"Velocity":45,"Duration":199999,"SoundDuration":199999,"Delta":412079394},{"NoteNumber":86,"Velocity":53,"Duration":408333,"SoundDuration":408333,"Delta":412079394},{"NoteNumber":83,"Velocity":53,"Duration":408333,"SoundDuration":408333,"Delta":412079394},{"NoteNumber":71,"Velocity":45,"Duration":199999,"SoundDuration":199999,"Delta":412079394},{"NoteNumber":64,"Velocity":49,"Duration":208333,"SoundDuration":208333,"Delta":412279394},{"NoteNumber":73,"Velocity":44,"Duration":220588,"SoundDuration":220588,"Delta":412487728},{"NoteNumber":81,"Velocity":52,"Duration":441176,"SoundDuration":441176,"Delta":412487728},{"NoteNumber":85,"Velocity":52,"Duration":441176,"SoundDuration":441176,"Delta":412487728},{"NoteNumber":69,"Velocity":44,"Duration":220588,"SoundDuration":220588,"Delta":412487728},{"NoteNumber":64,"Velocity":48,"Duration":220588,"SoundDuration":220588,"Delta":412708316},{"NoteNumber":68,"Velocity":50,"Duration":223880,"SoundDuration":223880,"Delta":412928904},{"NoteNumber":71,"Velocity":50,"Duration":223880,"SoundDuration":223880,"Delta":412928904},{"NoteNumber":40,"Velocity":39,"Duration":447761,"SoundDuration":447761,"Delta":412928904},{"NoteNumber":52,"Velocity":47,"Duration":447761,"SoundDuration":447761,"Delta":412928904},{"NoteNumber":64,"Velocity":50,"Duration":223880,"SoundDuration":223880,"Delta":413152785},{"NoteNumber":83,"Velocity":52,"Duration":416747,"SoundDuration":416747,"Delta":413376665},{"NoteNumber":68,"Velocity":44,"Duration":205479,"SoundDuration":205479,"Delta":413376665},{"NoteNumber":71,"Velocity":44,"Duration":205479,"SoundDuration":205479,"Delta":413376665},{"NoteNumber":80,"Velocity":52,"Duration":416747,"SoundDuration":416747,"Delta":413376665},{"NoteNumber":64,"Velocity":49,"Duration":211267,"SoundDuration":211267,"Delta":413582145},{"NoteNumber":81,"Velocity":53,"Duration":405701,"SoundDuration":405701,"Delta":413793412},{"NoteNumber":73,"Velocity":45,"Duration":197368,"SoundDuration":197368,"Delta":413793412},{"NoteNumber":69,"Velocity":45,"Duration":197368,"SoundDuration":197368,"Delta":413793412},{"NoteNumber":85,"Velocity":53,"Duration":405701,"SoundDuration":405701,"Delta":413793412},{"NoteNumber":64,"Velocity":50,"Duration":208333,"SoundDuration":208333,"Delta":413990781},{"NoteNumber":74,"Velocity":46,"Duration":199999,"SoundDuration":199999,"Delta":414199114},{"NoteNumber":71,"Velocity":46,"Duration":199999,"SoundDuration":199999,"Delta":414199114},{"NoteNumber":83,"Velocity":55,"Duration":394805,"SoundDuration":394805,"Delta":414199114},{"NoteNumber":86,"Velocity":55,"Duration":394805,"SoundDuration":394805,"Delta":414199114},{"NoteNumber":64,"Velocity":50,"Duration":194805,"SoundDuration":194805,"Delta":414399114},{"NoteNumber":81,"Velocity":53,"Duration":411267,"SoundDuration":411267,"Delta":414593919},{"NoteNumber":85,"Velocity":53,"Duration":411267,"SoundDuration":411267,"Delta":414593919},{"NoteNumber":69,"Velocity":45,"Duration":199999,"SoundDuration":199999,"Delta":414593919},{"NoteNumber":73,"Velocity":45,"Duration":199999,"SoundDuration":199999,"Delta":414593919},{"NoteNumber":64,"Velocity":49,"Duration":211267,"SoundDuration":211267,"Delta":414793919},{"NoteNumber":68,"Velocity":44,"Duration":217391,"SoundDuration":217391,"Delta":415005187},{"NoteNumber":83,"Velocity":52,"Duration":434782,"SoundDuration":434782,"Delta":415005187},{"NoteNumber":71,"Velocity":44,"Duration":217391,"SoundDuration":217391,"Delta":415005187},{"NoteNumber":80,"Velocity":52,"Duration":434782,"SoundDuration":434782,"Delta":415005187},{"NoteNumber":64,"Velocity":48,"Duration":217391,"SoundDuration":217391,"Delta":415222578},{"NoteNumber":64,"Velocity":54,"Duration":217391,"SoundDuration":217391,"Delta":415439969},{"NoteNumber":69,"Velocity":54,"Duration":217391,"SoundDuration":217391,"Delta":415439969},{"NoteNumber":45,"Velocity":44,"Duration":441271,"SoundDuration":441271,"Delta":415439969},{"NoteNumber":57,"Velocity":52,"Duration":441271,"SoundDuration":441271,"Delta":415439969},{"NoteNumber":61,"Velocity":50,"Duration":223880,"SoundDuration":223880,"Delta":415657360},{"NoteNumber":69,"Velocity":45,"Duration":211267,"SoundDuration":211267,"Delta":415881241},{"NoteNumber":81,"Velocity":54,"Duration":413970,"SoundDuration":413970,"Delta":415881241},{"NoteNumber":64,"Velocity":45,"Duration":211267,"SoundDuration":211267,"Delta":415881241},{"NoteNumber":61,"Velocity":50,"Duration":202702,"SoundDuration":202702,"Delta":416092508},{"NoteNumber":69,"Velocity":54,"Duration":199999,"SoundDuration":199999,"Delta":416295211},{"NoteNumber":64,"Velocity":54,"Duration":199999,"SoundDuration":199999,"Delta":416295211},{"NoteNumber":57,"Velocity":47,"Duration":414285,"SoundDuration":414285,"Delta":416295211},{"NoteNumber":45,"Velocity":39,"Duration":414285,"SoundDuration":414285,"Delta":416295211},{"NoteNumber":61,"Velocity":50,"Duration":214285,"SoundDuration":214285,"Delta":416495211},{"NoteNumber":68,"Velocity":55,"Duration":197368,"SoundDuration":197368,"Delta":416709497},{"NoteNumber":71,"Velocity":55,"Duration":197368,"SoundDuration":197368,"Delta":416709497},{"NoteNumber":40,"Velocity":43,"Duration":400071,"SoundDuration":400071,"Delta":416709497},{"NoteNumber":52,"Velocity":51,"Duration":400071,"SoundDuration":400071,"Delta":416709497},{"NoteNumber":64,"Velocity":51,"Duration":202702,"SoundDuration":202702,"Delta":416906865},{"NoteNumber":83,"Velocity":56,"Duration":411267,"SoundDuration":411267,"Delta":417109568},{"NoteNumber":71,"Velocity":47,"Duration":199999,"SoundDuration":199999,"Delta":417109568},{"NoteNumber":68,"Velocity":47,"Duration":199999,"SoundDuration":199999,"Delta":417109568},{"NoteNumber":64,"Velocity":51,"Duration":211267,"SoundDuration":211267,"Delta":417309568},{"NoteNumber":71,"Velocity":50,"Duration":214285,"SoundDuration":214285,"Delta":417520836},{"NoteNumber":68,"Velocity":50,"Duration":214285,"SoundDuration":214285,"Delta":417520836},{"NoteNumber":40,"Velocity":39,"Duration":428571,"SoundDuration":428571,"Delta":417520836},{"NoteNumber":52,"Velocity":47,"Duration":428571,"SoundDuration":428571,"Delta":417520836},{"NoteNumber":64,"Velocity":48,"Duration":214285,"SoundDuration":214285,"Delta":417735121},{"NoteNumber":69,"Velocity":46,"Duration":205479,"SoundDuration":205479,"Delta":417949407},{"NoteNumber":73,"Velocity":46,"Duration":205479,"SoundDuration":205479,"Delta":417949407},{"NoteNumber":85,"Velocity":55,"Duration":419765,"SoundDuration":419765,"Delta":417949407},{"NoteNumber":81,"Velocity":55,"Duration":419765,"SoundDuration":419765,"Delta":417949407},{"NoteNumber":64,"Velocity":50,"Duration":214285,"SoundDuration":214285,"Delta":418154887},{"NoteNumber":86,"Velocity":53,"Duration":408333,"SoundDuration":408333,"Delta":418369172},{"NoteNumber":83,"Velocity":53,"Duration":408333,"SoundDuration":408333,"Delta":418369172},{"NoteNumber":74,"Velocity":45,"Duration":199999,"SoundDuration":199999,"Delta":418369172},{"NoteNumber":71,"Velocity":45,"Duration":199999,"SoundDuration":199999,"Delta":418369172},{"NoteNumber":64,"Velocity":49,"Duration":208333,"SoundDuration":208333,"Delta":418569172},{"NoteNumber":85,"Velocity":52,"Duration":438166,"SoundDuration":438166,"Delta":418777506},{"NoteNumber":73,"Velocity":44,"Duration":214285,"SoundDuration":214285,"Delta":418777506},{"NoteNumber":69,"Velocity":44,"Duration":214285,"SoundDuration":214285,"Delta":418777506},{"NoteNumber":81,"Velocity":52,"Duration":438166,"SoundDuration":438166,"Delta":418777506},{"NoteNumber":64,"Velocity":48,"Duration":223880,"SoundDuration":223880,"Delta":418991791},{"NoteNumber":83,"Velocity":52,"Duration":447761,"SoundDuration":447761,"Delta":419215672},{"NoteNumber":68,"Velocity":44,"Duration":223880,"SoundDuration":223880,"Delta":419215672},{"NoteNumber":71,"Velocity":44,"Duration":223880,"SoundDuration":223880,"Delta":419215672},{"NoteNumber":80,"Velocity":52,"Duration":447761,"SoundDuration":447761,"Delta":419215672},{"NoteNumber":64,"Velocity":49,"Duration":223880,"SoundDuration":223880,"Delta":419439552},{"NoteNumber":75,"Velocity":56,"Duration":234375,"SoundDuration":234375,"Delta":419663433},{"NoteNumber":64,"Velocity":48,"Duration":234375,"SoundDuration":234375,"Delta":419663433},{"NoteNumber":76,"Velocity":53,"Duration":234375,"SoundDuration":234375,"Delta":419897808},{"NoteNumber":75,"Velocity":56,"Duration":267857,"SoundDuration":267857,"Delta":420132183},{"NoteNumber":52,"Velocity":43,"Duration":267857,"SoundDuration":267857,"Delta":420132183},{"NoteNumber":76,"Velocity":53,"Duration":267857,"SoundDuration":267857,"Delta":420400040},{"NoteNumber":69,"Velocity":60,"Duration":245901,"SoundDuration":245901,"Delta":420667897},{"NoteNumber":73,"Velocity":60,"Duration":245901,"SoundDuration":245901,"Delta":420667897},{"NoteNumber":45,"Velocity":65,"Duration":491803,"SoundDuration":491803,"Delta":420667897},{"NoteNumber":57,"Velocity":80,"Duration":491803,"SoundDuration":491803,"Delta":420667897},{"NoteNumber":64,"Velocity":60,"Duration":245901,"SoundDuration":245901,"Delta":420913799},{"NoteNumber":85,"Velocity":68,"Duration":425724,"SoundDuration":425724,"Delta":421159701},{"NoteNumber":69,"Velocity":52,"Duration":208333,"SoundDuration":208333,"Delta":421159701},{"NoteNumber":73,"Velocity":52,"Duration":208333,"SoundDuration":208333,"Delta":421159701},{"NoteNumber":81,"Velocity":57,"Duration":425724,"SoundDuration":425724,"Delta":421159701},{"NoteNumber":64,"Velocity":58,"Duration":217391,"SoundDuration":217391,"Delta":421368034},{"NoteNumber":86,"Velocity":69,"Duration":408333,"SoundDuration":408333,"Delta":421585425},{"NoteNumber":74,"Velocity":54,"Duration":199999,"SoundDuration":199999,"Delta":421585425},{"NoteNumber":71,"Velocity":54,"Duration":199999,"SoundDuration":199999,"Delta":421585425},{"NoteNumber":83,"Velocity":58,"Duration":408333,"SoundDuration":408333,"Delta":421585425},{"NoteNumber":64,"Velocity":60,"Duration":208333,"SoundDuration":208333,"Delta":421785425},{"NoteNumber":85,"Velocity":61,"Duration":395651,"SoundDuration":395651,"Delta":421993759},{"NoteNumber":88,"Velocity":72,"Duration":395651,"SoundDuration":395651,"Delta":421993759},{"NoteNumber":73,"Velocity":55,"Duration":202702,"SoundDuration":202702,"Delta":421993759},{"NoteNumber":76,"Velocity":55,"Duration":202702,"SoundDuration":202702,"Delta":421993759},{"NoteNumber":64,"Velocity":60,"Duration":192948,"SoundDuration":192948,"Delta":422196461},{"NoteNumber":71,"Velocity":54,"Duration":199999,"SoundDuration":199999,"Delta":422389410},{"NoteNumber":74,"Velocity":54,"Duration":199999,"SoundDuration":199999,"Delta":422389410},{"NoteNumber":83,"Velocity":58,"Duration":408333,"SoundDuration":408333,"Delta":422389410},{"NoteNumber":86,"Velocity":69,"Duration":408333,"SoundDuration":408333,"Delta":422389410},{"NoteNumber":64,"Velocity":58,"Duration":208333,"SoundDuration":208333,"Delta":422589410},{"NoteNumber":81,"Velocity":57,"Duration":434873,"SoundDuration":434873,"Delta":422797743},{"NoteNumber":85,"Velocity":68,"Duration":434873,"SoundDuration":434873,"Delta":422797743},{"NoteNumber":73,"Velocity":52,"Duration":214285,"SoundDuration":214285,"Delta":422797743},{"NoteNumber":69,"Velocity":52,"Duration":214285,"SoundDuration":214285,"Delta":422797743},{"NoteNumber":64,"Velocity":57,"Duration":220588,"SoundDuration":220588,"Delta":423012029},{"NoteNumber":68,"Velocity":60,"Duration":223880,"SoundDuration":223880,"Delta":423232617},{"NoteNumber":71,"Velocity":60,"Duration":223880,"SoundDuration":223880,"Delta":423232617},{"NoteNumber":40,"Velocity":65,"Duration":447761,"SoundDuration":447761,"Delta":423232617},{"NoteNumber":52,"Velocity":80,"Duration":447761,"SoundDuration":447761,"Delta":423232617},{"NoteNumber":64,"Velocity":60,"Duration":223880,"SoundDuration":223880,"Delta":423456498},{"NoteNumber":71,"Velocity":52,"Duration":205479,"SoundDuration":205479,"Delta":423680378},{"NoteNumber":80,"Velocity":57,"Duration":416747,"SoundDuration":416747,"Delta":423680378},{"NoteNumber":83,"Velocity":68,"Duration":416747,"SoundDuration":416747,"Delta":423680378},{"NoteNumber":68,"Velocity":52,"Duration":205479,"SoundDuration":205479,"Delta":423680378},{"NoteNumber":64,"Velocity":58,"Duration":211267,"SoundDuration":211267,"Delta":423885858},{"NoteNumber":85,"Velocity":69,"Duration":411036,"SoundDuration":411036,"Delta":424097125},{"NoteNumber":81,"Velocity":58,"Duration":411036,"SoundDuration":411036,"Delta":424097125},{"NoteNumber":73,"Velocity":54,"Duration":202702,"SoundDuration":202702,"Delta":424097125},{"NoteNumber":69,"Velocity":54,"Duration":202702,"SoundDuration":202702,"Delta":424097125},{"NoteNumber":64,"Velocity":60,"Duration":208333,"SoundDuration":208333,"Delta":424299828},{"NoteNumber":74,"Velocity":55,"Duration":199999,"SoundDuration":199999,"Delta":424508161},{"NoteNumber":71,"Velocity":55,"Duration":199999,"SoundDuration":199999,"Delta":424508161},{"NoteNumber":83,"Velocity":61,"Duration":394805,"SoundDuration":394805,"Delta":424508161},{"NoteNumber":86,"Velocity":72,"Duration":394805,"SoundDuration":394805,"Delta":424508161},{"NoteNumber":64,"Velocity":60,"Duration":194805,"SoundDuration":194805,"Delta":424708161},{"NoteNumber":69,"Velocity":54,"Duration":199999,"SoundDuration":199999,"Delta":424902967},{"NoteNumber":73,"Velocity":54,"Duration":199999,"SoundDuration":199999,"Delta":424902967},{"NoteNumber":85,"Velocity":69,"Duration":411267,"SoundDuration":411267,"Delta":424902967},{"NoteNumber":81,"Velocity":58,"Duration":411267,"SoundDuration":411267,"Delta":424902967},{"NoteNumber":64,"Velocity":58,"Duration":211267,"SoundDuration":211267,"Delta":425102967},{"NoteNumber":68,"Velocity":52,"Duration":220588,"SoundDuration":220588,"Delta":425314234},{"NoteNumber":83,"Velocity":68,"Duration":441176,"SoundDuration":441176,"Delta":425314234},{"NoteNumber":80,"Velocity":57,"Duration":441176,"SoundDuration":441176,"Delta":425314234},{"NoteNumber":71,"Velocity":52,"Duration":220588,"SoundDuration":220588,"Delta":425314234},{"NoteNumber":64,"Velocity":57,"Duration":220588,"SoundDuration":220588,"Delta":425534822},{"NoteNumber":69,"Velocity":64,"Duration":205479,"SoundDuration":205479,"Delta":425755411},{"NoteNumber":64,"Velocity":64,"Duration":205479,"SoundDuration":205479,"Delta":425755411},{"NoteNumber":45,"Velocity":65,"Duration":413812,"SoundDuration":413812,"Delta":425755411},{"NoteNumber":57,"Velocity":77,"Duration":413812,"SoundDuration":413812,"Delta":425755411},{"NoteNumber":61,"Velocity":60,"Duration":208333,"SoundDuration":208333,"Delta":425960890},{"NoteNumber":81,"Velocity":70,"Duration":416988,"SoundDuration":416988,"Delta":426169223},{"NoteNumber":64,"Velocity":54,"Duration":202702,"SoundDuration":202702,"Delta":426169223},{"NoteNumber":69,"Velocity":54,"Duration":202702,"SoundDuration":202702,"Delta":426169223},{"NoteNumber":73,"Velocity":59,"Duration":416988,"SoundDuration":416988,"Delta":426169223},{"NoteNumber":61,"Velocity":60,"Duration":214285,"SoundDuration":214285,"Delta":426371926},{"NoteNumber":83,"Velocity":70,"Duration":419765,"SoundDuration":419765,"Delta":426586212},{"NoteNumber":71,"Velocity":64,"Duration":205479,"SoundDuration":205479,"Delta":426586212},{"NoteNumber":68,"Velocity":64,"Duration":205479,"SoundDuration":205479,"Delta":426586212},{"NoteNumber":76,"Velocity":59,"Duration":419765,"SoundDuration":419765,"Delta":426586212},{"NoteNumber":64,"Velocity":60,"Duration":214285,"SoundDuration":214285,"Delta":426791691},{"NoteNumber":81,"Velocity":61,"Duration":410958,"SoundDuration":410958,"Delta":427005977},{"NoteNumber":85,"Velocity":73,"Duration":410958,"SoundDuration":410958,"Delta":427005977},{"NoteNumber":73,"Velocity":66,"Duration":205479,"SoundDuration":205479,"Delta":427005977},{"NoteNumber":69,"Velocity":66,"Duration":205479,"SoundDuration":205479,"Delta":427005977},{"NoteNumber":64,"Velocity":61,"Duration":205479,"SoundDuration":205479,"Delta":427211457},{"NoteNumber":73,"Velocity":56,"Duration":211267,"SoundDuration":211267,"Delta":427416936},{"NoteNumber":69,"Velocity":56,"Duration":211267,"SoundDuration":211267,"Delta":427416936},{"NoteNumber":42,"Velocity":63,"Duration":431855,"SoundDuration":431855,"Delta":427416936},{"NoteNumber":54,"Velocity":76,"Duration":431855,"SoundDuration":431855,"Delta":427416936},{"NoteNumber":66,"Velocity":61,"Duration":220588,"SoundDuration":220588,"Delta":427628204},{"NoteNumber":71,"Velocity":60,"Duration":208333,"SoundDuration":208333,"Delta":427848792},{"NoteNumber":74,"Velocity":60,"Duration":208333,"SoundDuration":208333,"Delta":427848792},{"NoteNumber":50,"Velocity":70,"Duration":425724,"SoundDuration":425724,"Delta":427848792},{"NoteNumber":38,"Velocity":57,"Duration":425724,"SoundDuration":425724,"Delta":427848792},{"NoteNumber":66,"Velocity":57,"Duration":217391,"SoundDuration":217391,"Delta":428057125},{"NoteNumber":73,"Velocity":60,"Duration":214285,"SoundDuration":214285,"Delta":428274516},{"NoteNumber":69,"Velocity":60,"Duration":214285,"SoundDuration":214285,"Delta":428274516},{"NoteNumber":52,"Velocity":84,"Duration":438166,"SoundDuration":438166,"Delta":428274516},{"NoteNumber":40,"Velocity":71,"Duration":438166,"SoundDuration":438166,"Delta":428274516},{"NoteNumber":64,"Velocity":66,"Duration":223880,"SoundDuration":223880,"Delta":428488802},{"NoteNumber":69,"Velocity":47,"Duration":217391,"SoundDuration":217391,"Delta":428712683},{"NoteNumber":81,"Velocity":50,"Duration":444663,"SoundDuration":444663,"Delta":428712683},{"NoteNumber":85,"Velocity":60,"Duration":444663,"SoundDuration":444663,"Delta":428712683},{"NoteNumber":73,"Velocity":47,"Duration":217391,"SoundDuration":217391,"Delta":428712683},{"NoteNumber":64,"Velocity":50,"Duration":227272,"SoundDuration":227272,"Delta":428930074},{"NoteNumber":83,"Velocity":59,"Duration":461538,"SoundDuration":461538,"Delta":429157347},{"NoteNumber":71,"Velocity":45,"Duration":230769,"SoundDuration":230769,"Delta":429157347},{"NoteNumber":68,"Velocity":45,"Duration":230769,"SoundDuration":230769,"Delta":429157347},{"NoteNumber":80,"Velocity":49,"Duration":461538,"SoundDuration":461538,"Delta":429157347},{"NoteNumber":64,"Velocity":49,"Duration":230769,"SoundDuration":230769,"Delta":429388116},{"NoteNumber":81,"Velocity":53,"Duration":500000,"SoundDuration":500000,"Delta":429618885},{"NoteNumber":69,"Velocity":53,"Duration":250000,"SoundDuration":250000,"Delta":429618885},{"NoteNumber":64,"Velocity":48,"Duration":250000,"SoundDuration":250000,"Delta":429868885},{"NoteNumber":61,"Velocity":50,"Duration":263157,"SoundDuration":263157,"Delta":430118885},{"NoteNumber":57,"Velocity":49,"Duration":263157,"SoundDuration":263157,"Delta":430118885},{"NoteNumber":64,"Velocity":41,"Duration":294117,"SoundDuration":294117,"Delta":430382043},{"NoteNumber":69,"Velocity":48,"Duration":441176,"SoundDuration":441176,"Delta":430676161},{"NoteNumber":45,"Velocity":44,"Duration":441176,"SoundDuration":441176,"Delta":430676161},{"NoteNumber":73,"Velocity":50,"Duration":245901,"SoundDuration":245901,"Delta":431558514},{"NoteNumber":69,"Velocity":50,"Duration":245901,"SoundDuration":245901,"Delta":431558514},{"NoteNumber":45,"Velocity":39,"Duration":491803,"SoundDuration":491803,"Delta":431558514},{"NoteNumber":57,"Velocity":47,"Duration":491803,"SoundDuration":491803,"Delta":431558514},{"NoteNumber":64,"Velocity":50,"Duration":245901,"SoundDuration":245901,"Delta":431804416},{"NoteNumber":73,"Velocity":44,"Duration":208333,"SoundDuration":208333,"Delta":432050317},{"NoteNumber":85,"Velocity":52,"Duration":425724,"SoundDuration":425724,"Delta":432050317},{"NoteNumber":81,"Velocity":52,"Duration":425724,"SoundDuration":425724,"Delta":432050317},{"NoteNumber":69,"Velocity":44,"Duration":208333,"SoundDuration":208333,"Delta":432050317},{"NoteNumber":64,"Velocity":49,"Duration":217391,"SoundDuration":217391,"Delta":432258651},{"NoteNumber":83,"Velocity":53,"Duration":408333,"SoundDuration":408333,"Delta":432476042},{"NoteNumber":86,"Velocity":53,"Duration":408333,"SoundDuration":408333,"Delta":432476042},{"NoteNumber":71,"Velocity":45,"Duration":199999,"SoundDuration":199999,"Delta":432476042},{"NoteNumber":74,"Velocity":45,"Duration":199999,"SoundDuration":199999,"Delta":432476042},{"NoteNumber":64,"Velocity":50,"Duration":208333,"SoundDuration":208333,"Delta":432676042},{"NoteNumber":76,"Velocity":46,"Duration":202702,"SoundDuration":202702,"Delta":432884375},{"NoteNumber":88,"Velocity":55,"Duration":395651,"SoundDuration":395651,"Delta":432884375},{"NoteNumber":73,"Velocity":46,"Duration":202702,"SoundDuration":202702,"Delta":432884375},{"NoteNumber":85,"Velocity":55,"Duration":395651,"SoundDuration":395651,"Delta":432884375},{"NoteNumber":64,"Velocity":50,"Duration":192948,"SoundDuration":192948,"Delta":433087078},{"NoteNumber":83,"Velocity":53,"Duration":408333,"SoundDuration":408333,"Delta":433280027},{"NoteNumber":74,"Velocity":45,"Duration":199999,"SoundDuration":199999,"Delta":433280027},{"NoteNumber":86,"Velocity":53,"Duration":408333,"SoundDuration":408333,"Delta":433280027},{"NoteNumber":71,"Velocity":45,"Duration":199999,"SoundDuration":199999,"Delta":433280027},{"NoteNumber":64,"Velocity":49,"Duration":208333,"SoundDuration":208333,"Delta":433480027},{"NoteNumber":69,"Velocity":44,"Duration":220588,"SoundDuration":220588,"Delta":433688360},{"NoteNumber":73,"Velocity":44,"Duration":220588,"SoundDuration":220588,"Delta":433688360},{"NoteNumber":81,"Velocity":52,"Duration":441176,"SoundDuration":441176,"Delta":433688360},{"NoteNumber":85,"Velocity":52,"Duration":441176,"SoundDuration":441176,"Delta":433688360},{"NoteNumber":64,"Velocity":48,"Duration":220588,"SoundDuration":220588,"Delta":433908948},{"NoteNumber":68,"Velocity":50,"Duration":223880,"SoundDuration":223880,"Delta":434129536},{"NoteNumber":71,"Velocity":50,"Duration":223880,"SoundDuration":223880,"Delta":434129536},{"NoteNumber":40,"Velocity":39,"Duration":447761,"SoundDuration":447761,"Delta":434129536},{"NoteNumber":52,"Velocity":47,"Duration":447761,"SoundDuration":447761,"Delta":434129536},{"NoteNumber":64,"Velocity":50,"Duration":223880,"SoundDuration":223880,"Delta":434353417},{"NoteNumber":80,"Velocity":52,"Duration":416747,"SoundDuration":416747,"Delta":434577297},{"NoteNumber":71,"Velocity":44,"Duration":205479,"SoundDuration":205479,"Delta":434577297},{"NoteNumber":83,"Velocity":52,"Duration":416747,"SoundDuration":416747,"Delta":434577297},{"NoteNumber":68,"Velocity":44,"Duration":205479,"SoundDuration":205479,"Delta":434577297},{"NoteNumber":64,"Velocity":49,"Duration":211267,"SoundDuration":211267,"Delta":434782777},{"NoteNumber":69,"Velocity":45,"Duration":197368,"SoundDuration":197368,"Delta":434994044},{"NoteNumber":81,"Velocity":53,"Duration":405701,"SoundDuration":405701,"Delta":434994044},{"NoteNumber":85,"Velocity":53,"Duration":405701,"SoundDuration":405701,"Delta":434994044},{"NoteNumber":73,"Velocity":45,"Duration":197368,"SoundDuration":197368,"Delta":434994044},{"NoteNumber":64,"Velocity":50,"Duration":208333,"SoundDuration":208333,"Delta":435191413},{"NoteNumber":74,"Velocity":46,"Duration":199999,"SoundDuration":199999,"Delta":435399746},{"NoteNumber":71,"Velocity":46,"Duration":199999,"SoundDuration":199999,"Delta":435399746},{"NoteNumber":86,"Velocity":55,"Duration":394805,"SoundDuration":394805,"Delta":435399746},{"NoteNumber":83,"Velocity":55,"Duration":394805,"SoundDuration":394805,"Delta":435399746},{"NoteNumber":64,"Velocity":50,"Duration":194805,"SoundDuration":194805,"Delta":435599746},{"NoteNumber":85,"Velocity":53,"Duration":411267,"SoundDuration":411267,"Delta":435794551},{"NoteNumber":69,"Velocity":45,"Duration":199999,"SoundDuration":199999,"Delta":435794551},{"NoteNumber":73,"Velocity":45,"Duration":199999,"SoundDuration":199999,"Delta":435794551},{"NoteNumber":81,"Velocity":53,"Duration":411267,"SoundDuration":411267,"Delta":435794551},{"NoteNumber":64,"Velocity":49,"Duration":211267,"SoundDuration":211267,"Delta":435994551},{"NoteNumber":83,"Velocity":52,"Duration":434782,"SoundDuration":434782,"Delta":436205819},{"NoteNumber":71,"Velocity":44,"Duration":217391,"SoundDuration":217391,"Delta":436205819},{"NoteNumber":80,"Velocity":52,"Duration":434782,"SoundDuration":434782,"Delta":436205819},{"NoteNumber":68,"Velocity":44,"Duration":217391,"SoundDuration":217391,"Delta":436205819},{"NoteNumber":64,"Velocity":48,"Duration":217391,"SoundDuration":217391,"Delta":436423210},{"NoteNumber":64,"Velocity":54,"Duration":217391,"SoundDuration":217391,"Delta":436640601},{"NoteNumber":69,"Velocity":54,"Duration":217391,"SoundDuration":217391,"Delta":436640601},{"NoteNumber":57,"Velocity":52,"Duration":441271,"SoundDuration":441271,"Delta":436640601},{"NoteNumber":45,"Velocity":44,"Duration":441271,"SoundDuration":441271,"Delta":436640601},{"NoteNumber":61,"Velocity":50,"Duration":223880,"SoundDuration":223880,"Delta":436857993},{"NoteNumber":64,"Velocity":45,"Duration":211267,"SoundDuration":211267,"Delta":437081873},{"NoteNumber":69,"Velocity":45,"Duration":211267,"SoundDuration":211267,"Delta":437081873},{"NoteNumber":81,"Velocity":54,"Duration":416747,"SoundDuration":416747,"Delta":437081873},{"NoteNumber":61,"Velocity":50,"Duration":205479,"SoundDuration":205479,"Delta":437293141},{"NoteNumber":64,"Velocity":54,"Duration":199999,"SoundDuration":199999,"Delta":437498620},{"NoteNumber":69,"Velocity":54,"Duration":199999,"SoundDuration":199999,"Delta":437498620},{"NoteNumber":57,"Velocity":47,"Duration":414285,"SoundDuration":414285,"Delta":437498620},{"NoteNumber":45,"Velocity":39,"Duration":414285,"SoundDuration":414285,"Delta":437498620},{"NoteNumber":61,"Velocity":50,"Duration":214285,"SoundDuration":214285,"Delta":437698620},{"NoteNumber":71,"Velocity":55,"Duration":197368,"SoundDuration":197368,"Delta":437912906},{"NoteNumber":68,"Velocity":55,"Duration":197368,"SoundDuration":197368,"Delta":437912906},{"NoteNumber":52,"Velocity":51,"Duration":400071,"SoundDuration":400071,"Delta":437912906},{"NoteNumber":40,"Velocity":43,"Duration":400071,"SoundDuration":400071,"Delta":437912906},{"NoteNumber":64,"Velocity":51,"Duration":202702,"SoundDuration":202702,"Delta":438110274},{"NoteNumber":68,"Velocity":47,"Duration":202702,"SoundDuration":202702,"Delta":438312977},{"NoteNumber":83,"Velocity":56,"Duration":413970,"SoundDuration":413970,"Delta":438312977},{"NoteNumber":71,"Velocity":47,"Duration":202702,"SoundDuration":202702,"Delta":438312977},{"NoteNumber":64,"Velocity":51,"Duration":211267,"SoundDuration":211267,"Delta":438515680},{"NoteNumber":71,"Velocity":50,"Duration":214285,"SoundDuration":214285,"Delta":438726947},{"NoteNumber":68,"Velocity":50,"Duration":214285,"SoundDuration":214285,"Delta":438726947},{"NoteNumber":40,"Velocity":39,"Duration":428571,"SoundDuration":428571,"Delta":438726947},{"NoteNumber":52,"Velocity":47,"Duration":428571,"SoundDuration":428571,"Delta":438726947},{"NoteNumber":64,"Velocity":48,"Duration":214285,"SoundDuration":214285,"Delta":438941233},{"NoteNumber":73,"Velocity":46,"Duration":205479,"SoundDuration":205479,"Delta":439155519},{"NoteNumber":69,"Velocity":46,"Duration":205479,"SoundDuration":205479,"Delta":439155519},{"NoteNumber":85,"Velocity":55,"Duration":419765,"SoundDuration":419765,"Delta":439155519},{"NoteNumber":81,"Velocity":55,"Duration":419765,"SoundDuration":419765,"Delta":439155519},{"NoteNumber":64,"Velocity":50,"Duration":214285,"SoundDuration":214285,"Delta":439360998},{"NoteNumber":86,"Velocity":53,"Duration":408333,"SoundDuration":408333,"Delta":439575284},{"NoteNumber":74,"Velocity":45,"Duration":199999,"SoundDuration":199999,"Delta":439575284},{"NoteNumber":83,"Velocity":53,"Duration":408333,"SoundDuration":408333,"Delta":439575284},{"NoteNumber":71,"Velocity":45,"Duration":199999,"SoundDuration":199999,"Delta":439575284},{"NoteNumber":64,"Velocity":49,"Duration":208333,"SoundDuration":208333,"Delta":439775284},{"NoteNumber":85,"Velocity":52,"Duration":438166,"SoundDuration":438166,"Delta":439983617},{"NoteNumber":69,"Velocity":44,"Duration":214285,"SoundDuration":214285,"Delta":439983617},{"NoteNumber":73,"Velocity":44,"Duration":214285,"SoundDuration":214285,"Delta":439983617},{"NoteNumber":81,"Velocity":52,"Duration":438166,"SoundDuration":438166,"Delta":439983617},{"NoteNumber":64,"Velocity":48,"Duration":223880,"SoundDuration":223880,"Delta":440197903},{"NoteNumber":68,"Velocity":44,"Duration":223880,"SoundDuration":223880,"Delta":440421784},{"NoteNumber":80,"Velocity":52,"Duration":447761,"SoundDuration":447761,"Delta":440421784},{"NoteNumber":83,"Velocity":52,"Duration":447761,"SoundDuration":447761,"Delta":440421784},{"NoteNumber":71,"Velocity":44,"Duration":223880,"SoundDuration":223880,"Delta":440421784},{"NoteNumber":64,"Velocity":49,"Duration":223880,"SoundDuration":223880,"Delta":440645664},{"NoteNumber":75,"Velocity":56,"Duration":234375,"SoundDuration":234375,"Delta":440869545},{"NoteNumber":64,"Velocity":48,"Duration":234375,"SoundDuration":234375,"Delta":440869545},{"NoteNumber":76,"Velocity":53,"Duration":234375,"SoundDuration":234375,"Delta":441103920},{"NoteNumber":75,"Velocity":56,"Duration":267857,"SoundDuration":267857,"Delta":441338295},{"NoteNumber":52,"Velocity":43,"Duration":267857,"SoundDuration":267857,"Delta":441338295},{"NoteNumber":76,"Velocity":53,"Duration":267857,"SoundDuration":267857,"Delta":441606152},{"NoteNumber":69,"Velocity":60,"Duration":245901,"SoundDuration":245901,"Delta":441874009},{"NoteNumber":73,"Velocity":60,"Duration":245901,"SoundDuration":245901,"Delta":441874009},{"NoteNumber":45,"Velocity":65,"Duration":491803,"SoundDuration":491803,"Delta":441874009},{"NoteNumber":57,"Velocity":80,"Duration":491803,"SoundDuration":491803,"Delta":441874009},{"NoteNumber":64,"Velocity":60,"Duration":245901,"SoundDuration":245901,"Delta":442119911},{"NoteNumber":81,"Velocity":57,"Duration":425724,"SoundDuration":425724,"Delta":442365813},{"NoteNumber":73,"Velocity":52,"Duration":208333,"SoundDuration":208333,"Delta":442365813},{"NoteNumber":85,"Velocity":68,"Duration":425724,"SoundDuration":425724,"Delta":442365813},{"NoteNumber":69,"Velocity":52,"Duration":208333,"SoundDuration":208333,"Delta":442365813},{"NoteNumber":64,"Velocity":58,"Duration":217391,"SoundDuration":217391,"Delta":442574146},{"NoteNumber":74,"Velocity":54,"Duration":199999,"SoundDuration":199999,"Delta":442791537},{"NoteNumber":86,"Velocity":69,"Duration":408333,"SoundDuration":408333,"Delta":442791537},{"NoteNumber":83,"Velocity":58,"Duration":408333,"SoundDuration":408333,"Delta":442791537},{"NoteNumber":71,"Velocity":54,"Duration":199999,"SoundDuration":199999,"Delta":442791537},{"NoteNumber":64,"Velocity":60,"Duration":208333,"SoundDuration":208333,"Delta":442991537},{"NoteNumber":73,"Velocity":55,"Duration":202702,"SoundDuration":202702,"Delta":443199870},{"NoteNumber":76,"Velocity":55,"Duration":202702,"SoundDuration":202702,"Delta":443199870},{"NoteNumber":85,"Velocity":61,"Duration":395651,"SoundDuration":395651,"Delta":443199870},{"NoteNumber":88,"Velocity":72,"Duration":395651,"SoundDuration":395651,"Delta":443199870},{"NoteNumber":64,"Velocity":60,"Duration":192948,"SoundDuration":192948,"Delta":443402573},{"NoteNumber":86,"Velocity":69,"Duration":408333,"SoundDuration":408333,"Delta":443595522},{"NoteNumber":71,"Velocity":54,"Duration":199999,"SoundDuration":199999,"Delta":443595522},{"NoteNumber":83,"Velocity":58,"Duration":408333,"SoundDuration":408333,"Delta":443595522},{"NoteNumber":74,"Velocity":54,"Duration":199999,"SoundDuration":199999,"Delta":443595522},{"NoteNumber":64,"Velocity":58,"Duration":208333,"SoundDuration":208333,"Delta":443795522},{"NoteNumber":81,"Velocity":57,"Duration":434873,"SoundDuration":434873,"Delta":444003855},{"NoteNumber":73,"Velocity":52,"Duration":214285,"SoundDuration":214285,"Delta":444003855},{"NoteNumber":85,"Velocity":68,"Duration":434873,"SoundDuration":434873,"Delta":444003855},{"NoteNumber":69,"Velocity":52,"Duration":214285,"SoundDuration":214285,"Delta":444003855},{"NoteNumber":64,"Velocity":57,"Duration":220588,"SoundDuration":220588,"Delta":444218141},{"NoteNumber":68,"Velocity":60,"Duration":223880,"SoundDuration":223880,"Delta":444438729},{"NoteNumber":71,"Velocity":60,"Duration":223880,"SoundDuration":223880,"Delta":444438729},{"NoteNumber":52,"Velocity":80,"Duration":447761,"SoundDuration":447761,"Delta":444438729},{"NoteNumber":40,"Velocity":65,"Duration":447761,"SoundDuration":447761,"Delta":444438729},{"NoteNumber":64,"Velocity":60,"Duration":223880,"SoundDuration":223880,"Delta":444662610},{"NoteNumber":71,"Velocity":52,"Duration":205479,"SoundDuration":205479,"Delta":444886490},{"NoteNumber":80,"Velocity":57,"Duration":416747,"SoundDuration":416747,"Delta":444886490},{"NoteNumber":68,"Velocity":52,"Duration":205479,"SoundDuration":205479,"Delta":444886490},{"NoteNumber":83,"Velocity":68,"Duration":416747,"SoundDuration":416747,"Delta":444886490},{"NoteNumber":64,"Velocity":58,"Duration":211267,"SoundDuration":211267,"Delta":445091970},{"NoteNumber":69,"Velocity":54,"Duration":202702,"SoundDuration":202702,"Delta":445303237},{"NoteNumber":73,"Velocity":54,"Duration":202702,"SoundDuration":202702,"Delta":445303237},{"NoteNumber":81,"Velocity":58,"Duration":411036,"SoundDuration":411036,"Delta":445303237},{"NoteNumber":85,"Velocity":69,"Duration":411036,"SoundDuration":411036,"Delta":445303237},{"NoteNumber":64,"Velocity":60,"Duration":208333,"SoundDuration":208333,"Delta":445505940},{"NoteNumber":71,"Velocity":55,"Duration":199999,"SoundDuration":199999,"Delta":445714273},{"NoteNumber":83,"Velocity":61,"Duration":394805,"SoundDuration":394805,"Delta":445714273},{"NoteNumber":86,"Velocity":72,"Duration":394805,"SoundDuration":394805,"Delta":445714273},{"NoteNumber":74,"Velocity":55,"Duration":199999,"SoundDuration":199999,"Delta":445714273},{"NoteNumber":64,"Velocity":60,"Duration":194805,"SoundDuration":194805,"Delta":445914273},{"NoteNumber":73,"Velocity":54,"Duration":199999,"SoundDuration":199999,"Delta":446109078},{"NoteNumber":85,"Velocity":69,"Duration":411267,"SoundDuration":411267,"Delta":446109078},{"NoteNumber":81,"Velocity":58,"Duration":411267,"SoundDuration":411267,"Delta":446109078},{"NoteNumber":69,"Velocity":54,"Duration":199999,"SoundDuration":199999,"Delta":446109078},{"NoteNumber":64,"Velocity":58,"Duration":211267,"SoundDuration":211267,"Delta":446309078},{"NoteNumber":71,"Velocity":52,"Duration":220588,"SoundDuration":220588,"Delta":446520346},{"NoteNumber":83,"Velocity":68,"Duration":441176,"SoundDuration":441176,"Delta":446520346},{"NoteNumber":80,"Velocity":57,"Duration":441176,"SoundDuration":441176,"Delta":446520346},{"NoteNumber":68,"Velocity":52,"Duration":220588,"SoundDuration":220588,"Delta":446520346},{"NoteNumber":64,"Velocity":57,"Duration":220588,"SoundDuration":220588,"Delta":446740934},{"NoteNumber":69,"Velocity":64,"Duration":205479,"SoundDuration":205479,"Delta":446961522},{"NoteNumber":64,"Velocity":64,"Duration":205479,"SoundDuration":205479,"Delta":446961522},{"NoteNumber":57,"Velocity":77,"Duration":413812,"SoundDuration":413812,"Delta":446961522},{"NoteNumber":45,"Velocity":65,"Duration":413812,"SoundDuration":413812,"Delta":446961522},{"NoteNumber":61,"Velocity":60,"Duration":208333,"SoundDuration":208333,"Delta":447167002},{"NoteNumber":81,"Velocity":70,"Duration":416988,"SoundDuration":416988,"Delta":447375335},{"NoteNumber":64,"Velocity":54,"Duration":202702,"SoundDuration":202702,"Delta":447375335},{"NoteNumber":69,"Velocity":54,"Duration":202702,"SoundDuration":202702,"Delta":447375335},{"NoteNumber":73,"Velocity":59,"Duration":416988,"SoundDuration":416988,"Delta":447375335},{"NoteNumber":61,"Velocity":60,"Duration":214285,"SoundDuration":214285,"Delta":447578038},{"NoteNumber":68,"Velocity":64,"Duration":205479,"SoundDuration":205479,"Delta":447792324},{"NoteNumber":76,"Velocity":59,"Duration":419765,"SoundDuration":419765,"Delta":447792324},{"NoteNumber":71,"Velocity":64,"Duration":205479,"SoundDuration":205479,"Delta":447792324},{"NoteNumber":83,"Velocity":70,"Duration":419765,"SoundDuration":419765,"Delta":447792324},{"NoteNumber":64,"Velocity":60,"Duration":214285,"SoundDuration":214285,"Delta":447997803},{"NoteNumber":69,"Velocity":66,"Duration":205479,"SoundDuration":205479,"Delta":448212089},{"NoteNumber":85,"Velocity":73,"Duration":410958,"SoundDuration":410958,"Delta":448212089},{"NoteNumber":73,"Velocity":66,"Duration":205479,"SoundDuration":205479,"Delta":448212089},{"NoteNumber":81,"Velocity":61,"Duration":410958,"SoundDuration":410958,"Delta":448212089},{"NoteNumber":64,"Velocity":61,"Duration":205479,"SoundDuration":205479,"Delta":448417568},{"NoteNumber":73,"Velocity":56,"Duration":211267,"SoundDuration":211267,"Delta":448623048},{"NoteNumber":69,"Velocity":56,"Duration":211267,"SoundDuration":211267,"Delta":448623048},{"NoteNumber":42,"Velocity":63,"Duration":431855,"SoundDuration":431855,"Delta":448623048},{"NoteNumber":54,"Velocity":76,"Duration":431855,"SoundDuration":431855,"Delta":448623048},{"NoteNumber":66,"Velocity":61,"Duration":220588,"SoundDuration":220588,"Delta":448834315},{"NoteNumber":71,"Velocity":60,"Duration":208333,"SoundDuration":208333,"Delta":449054904},{"NoteNumber":74,"Velocity":60,"Duration":208333,"SoundDuration":208333,"Delta":449054904},{"NoteNumber":38,"Velocity":57,"Duration":425724,"SoundDuration":425724,"Delta":449054904},{"NoteNumber":50,"Velocity":70,"Duration":425724,"SoundDuration":425724,"Delta":449054904},{"NoteNumber":66,"Velocity":57,"Duration":217391,"SoundDuration":217391,"Delta":449263237},{"NoteNumber":69,"Velocity":60,"Duration":214285,"SoundDuration":214285,"Delta":449480628},{"NoteNumber":73,"Velocity":60,"Duration":214285,"SoundDuration":214285,"Delta":449480628},{"NoteNumber":52,"Velocity":84,"Duration":438166,"SoundDuration":438166,"Delta":449480628},{"NoteNumber":40,"Velocity":71,"Duration":438166,"SoundDuration":438166,"Delta":449480628},{"NoteNumber":64,"Velocity":66,"Duration":223880,"SoundDuration":223880,"Delta":449694914},{"NoteNumber":85,"Velocity":60,"Duration":444663,"SoundDuration":444663,"Delta":449918794},{"NoteNumber":81,"Velocity":50,"Duration":444663,"SoundDuration":444663,"Delta":449918794},{"NoteNumber":69,"Velocity":47,"Duration":217391,"SoundDuration":217391,"Delta":449918794},{"NoteNumber":73,"Velocity":47,"Duration":217391,"SoundDuration":217391,"Delta":449918794},{"NoteNumber":64,"Velocity":50,"Duration":227272,"SoundDuration":227272,"Delta":450136186},{"NoteNumber":80,"Velocity":49,"Duration":461538,"SoundDuration":461538,"Delta":450363458},{"NoteNumber":71,"Velocity":45,"Duration":230769,"SoundDuration":230769,"Delta":450363458},{"NoteNumber":83,"Velocity":59,"Duration":461538,"SoundDuration":461538,"Delta":450363458},{"NoteNumber":68,"Velocity":45,"Duration":230769,"SoundDuration":230769,"Delta":450363458},{"NoteNumber":64,"Velocity":49,"Duration":230769,"SoundDuration":230769,"Delta":450594228},{"NoteNumber":69,"Velocity":53,"Duration":250000,"SoundDuration":250000,"Delta":450824997},{"NoteNumber":81,"Velocity":53,"Duration":500000,"SoundDuration":500000,"Delta":450824997},{"NoteNumber":64,"Velocity":48,"Duration":250000,"SoundDuration":250000,"Delta":451074997},{"NoteNumber":61,"Velocity":50,"Duration":263157,"SoundDuration":263157,"Delta":451324997},{"NoteNumber":57,"Velocity":49,"Duration":263157,"SoundDuration":263157,"Delta":451324997},{"NoteNumber":64,"Velocity":41,"Duration":294117,"SoundDuration":294117,"Delta":451588155},{"NoteNumber":69,"Velocity":48,"Duration":441176,"SoundDuration":441176,"Delta":451882273},{"NoteNumber":45,"Velocity":44,"Duration":441176,"SoundDuration":441176,"Delta":451882273},{"NoteNumber":76,"Velocity":54,"Duration":679487,"SoundDuration":679487,"Delta":452764626},{"NoteNumber":57,"Velocity":42,"Duration":230769,"SoundDuration":230769,"Delta":452764626},{"NoteNumber":61,"Velocity":31,"Duration":234432,"SoundDuration":234432,"Delta":452995395},{"NoteNumber":64,"Velocity":34,"Duration":214285,"SoundDuration":214285,"Delta":453229827},{"NoteNumber":78,"Velocity":54,"Duration":122950,"SoundDuration":122950,"Delta":453444113},{"NoteNumber":61,"Velocity":32,"Duration":240138,"SoundDuration":240138,"Delta":453444113},{"NoteNumber":76,"Velocity":50,"Duration":117187,"SoundDuration":117187,"Delta":453567064},{"NoteNumber":74,"Velocity":55,"Duration":107142,"SoundDuration":107142,"Delta":453684251},{"NoteNumber":64,"Velocity":34,"Duration":214285,"SoundDuration":214285,"Delta":453684251},{"NoteNumber":73,"Velocity":54,"Duration":107142,"SoundDuration":107142,"Delta":453791394},{"NoteNumber":71,"Velocity":53,"Duration":113636,"SoundDuration":113636,"Delta":453898537},{"NoteNumber":61,"Velocity":30,"Duration":227272,"SoundDuration":227272,"Delta":453898537},{"NoteNumber":69,"Velocity":52,"Duration":113636,"SoundDuration":113636,"Delta":454012173},{"NoteNumber":77,"Velocity":57,"Duration":250000,"SoundDuration":250000,"Delta":454125810},{"NoteNumber":57,"Velocity":40,"Duration":250000,"SoundDuration":250000,"Delta":454125810},{"NoteNumber":78,"Velocity":54,"Duration":219230,"SoundDuration":219230,"Delta":454375810},{"NoteNumber":62,"Velocity":30,"Duration":230769,"SoundDuration":230769,"Delta":454375810},{"NoteNumber":78,"Velocity":54,"Duration":230769,"SoundDuration":230769,"Delta":454606579},{"NoteNumber":66,"Velocity":33,"Duration":230769,"SoundDuration":230769,"Delta":454606579},{"NoteNumber":62,"Velocity":31,"Duration":241935,"SoundDuration":241935,"Delta":454837348},{"NoteNumber":66,"Velocity":33,"Duration":234375,"SoundDuration":234375,"Delta":455079284},{"NoteNumber":62,"Velocity":32,"Duration":250000,"SoundDuration":250000,"Delta":455313659},{"NoteNumber":81,"Velocity":58,"Duration":238095,"SoundDuration":238095,"Delta":455563659},{"NoteNumber":57,"Velocity":40,"Duration":238095,"SoundDuration":238095,"Delta":455563659},{"NoteNumber":80,"Velocity":55,"Duration":238095,"SoundDuration":238095,"Delta":455801754},{"NoteNumber":62,"Velocity":31,"Duration":238095,"SoundDuration":238095,"Delta":455801754},{"NoteNumber":83,"Velocity":58,"Duration":223880,"SoundDuration":223880,"Delta":456039849},{"NoteNumber":66,"Velocity":34,"Duration":223880,"SoundDuration":223880,"Delta":456039849},{"NoteNumber":81,"Velocity":58,"Duration":234375,"SoundDuration":234375,"Delta":456263730},{"NoteNumber":62,"Velocity":34,"Duration":234375,"SoundDuration":234375,"Delta":456263730},{"NoteNumber":80,"Velocity":59,"Duration":234375,"SoundDuration":234375,"Delta":456498105},{"NoteNumber":66,"Velocity":39,"Duration":234375,"SoundDuration":234375,"Delta":456498105},{"NoteNumber":78,"Velocity":60,"Duration":264246,"SoundDuration":264246,"Delta":456732480},{"NoteNumber":62,"Velocity":33,"Duration":264246,"SoundDuration":264246,"Delta":456732480},{"NoteNumber":75,"Velocity":62,"Duration":238095,"SoundDuration":238095,"Delta":456996726},{"NoteNumber":57,"Velocity":43,"Duration":238095,"SoundDuration":238095,"Delta":456996726},{"NoteNumber":76,"Velocity":57,"Duration":222222,"SoundDuration":222222,"Delta":457234821},{"NoteNumber":61,"Velocity":33,"Duration":238095,"SoundDuration":238095,"Delta":457234821},{"NoteNumber":76,"Velocity":57,"Duration":254237,"SoundDuration":254237,"Delta":457472917},{"NoteNumber":64,"Velocity":33,"Duration":254237,"SoundDuration":254237,"Delta":457472917},{"NoteNumber":61,"Velocity":31,"Duration":254237,"SoundDuration":254237,"Delta":457727154},{"NoteNumber":64,"Velocity":33,"Duration":254237,"SoundDuration":254237,"Delta":457981391},{"NoteNumber":61,"Velocity":31,"Duration":254237,"SoundDuration":254237,"Delta":458235628},{"NoteNumber":76,"Velocity":63,"Duration":701766,"SoundDuration":701766,"Delta":458489866},{"NoteNumber":45,"Velocity":52,"Duration":234375,"SoundDuration":234375,"Delta":458489866},{"NoteNumber":49,"Velocity":52,"Duration":234375,"SoundDuration":234375,"Delta":458489866},{"NoteNumber":61,"Velocity":45,"Duration":250000,"SoundDuration":250000,"Delta":458941632},{"NoteNumber":57,"Velocity":45,"Duration":250000,"SoundDuration":250000,"Delta":458941632},{"NoteNumber":78,"Velocity":55,"Duration":117187,"SoundDuration":117187,"Delta":459191632},{"NoteNumber":76,"Velocity":50,"Duration":117187,"SoundDuration":117187,"Delta":459308819},{"NoteNumber":74,"Velocity":58,"Duration":110294,"SoundDuration":110294,"Delta":459426007},{"NoteNumber":73,"Velocity":56,"Duration":110294,"SoundDuration":110294,"Delta":459536301},{"NoteNumber":71,"Velocity":54,"Duration":110294,"SoundDuration":110294,"Delta":459646595},{"NoteNumber":69,"Velocity":53,"Duration":110294,"SoundDuration":110294,"Delta":459756889},{"NoteNumber":76,"Velocity":63,"Duration":267857,"SoundDuration":267857,"Delta":459867183},{"NoteNumber":47,"Velocity":52,"Duration":267857,"SoundDuration":267857,"Delta":459867183},{"NoteNumber":50,"Velocity":52,"Duration":267857,"SoundDuration":267857,"Delta":459867183},{"NoteNumber":74,"Velocity":63,"Duration":483996,"SoundDuration":483996,"Delta":460135041},{"NoteNumber":59,"Velocity":45,"Duration":245901,"SoundDuration":245901,"Delta":460373136},{"NoteNumber":62,"Velocity":45,"Duration":245901,"SoundDuration":245901,"Delta":460373136},{"NoteNumber":78,"Velocity":55,"Duration":111940,"SoundDuration":111940,"Delta":460619038},{"NoteNumber":76,"Velocity":50,"Duration":111940,"SoundDuration":111940,"Delta":460730978},{"NoteNumber":74,"Velocity":58,"Duration":111940,"SoundDuration":111940,"Delta":460842918},{"NoteNumber":73,"Velocity":56,"Duration":111940,"SoundDuration":111940,"Delta":460954858},{"NoteNumber":71,"Velocity":54,"Duration":111940,"SoundDuration":111940,"Delta":461066799},{"NoteNumber":69,"Velocity":53,"Duration":111940,"SoundDuration":111940,"Delta":461178739},{"NoteNumber":69,"Velocity":62,"Duration":500000,"SoundDuration":500000,"Delta":461290679},{"NoteNumber":61,"Velocity":37,"Duration":500000,"SoundDuration":500000,"Delta":461290679},{"NoteNumber":64,"Velocity":43,"Duration":500000,"SoundDuration":500000,"Delta":461290679},{"NoteNumber":68,"Velocity":58,"Duration":508474,"SoundDuration":508474,"Delta":461790679},{"NoteNumber":62,"Velocity":42,"Duration":508474,"SoundDuration":508474,"Delta":461790679},{"NoteNumber":59,"Velocity":35,"Duration":508474,"SoundDuration":508474,"Delta":461790679},{"NoteNumber":63,"Velocity":50,"Duration":555555,"SoundDuration":555555,"Delta":462299154},{"NoteNumber":69,"Velocity":59,"Duration":555555,"SoundDuration":555555,"Delta":462299154},{"NoteNumber":57,"Velocity":36,"Duration":555555,"SoundDuration":555555,"Delta":462299154},{"NoteNumber":61,"Velocity":43,"Duration":555555,"SoundDuration":555555,"Delta":462299154},{"NoteNumber":64,"Velocity":53,"Duration":1666666,"SoundDuration":1666666,"Delta":462854709},{"NoteNumber":69,"Velocity":53,"Duration":1111110,"SoundDuration":1111110,"Delta":462854709},{"NoteNumber":73,"Velocity":63,"Duration":1111110,"SoundDuration":1111110,"Delta":462854709},{"NoteNumber":52,"Velocity":42,"Duration":1666666,"SoundDuration":1666666,"Delta":462854709},{"NoteNumber":57,"Velocity":42,"Duration":1111110,"SoundDuration":1111110,"Delta":462854709},{"NoteNumber":61,"Velocity":50,"Duration":1111110,"SoundDuration":1111110,"Delta":462854709},{"NoteNumber":71,"Velocity":47,"Duration":555555,"SoundDuration":555555,"Delta":463965820},{"NoteNumber":68,"Velocity":39,"Duration":555555,"SoundDuration":555555,"Delta":463965820},{"NoteNumber":59,"Velocity":38,"Duration":555555,"SoundDuration":555555,"Delta":463965820},{"NoteNumber":56,"Velocity":32,"Duration":555555,"SoundDuration":555555,"Delta":463965820},{"NoteNumber":73,"Velocity":49,"Duration":250000,"SoundDuration":250000,"Delta":464521376},{"NoteNumber":69,"Velocity":49,"Duration":250000,"SoundDuration":250000,"Delta":464521376},{"NoteNumber":57,"Velocity":66,"Duration":500000,"SoundDuration":500000,"Delta":464521376},{"NoteNumber":45,"Velocity":53,"Duration":500000,"SoundDuration":500000,"Delta":464521376},{"NoteNumber":64,"Velocity":49,"Duration":250000,"SoundDuration":250000,"Delta":464771376},{"NoteNumber":85,"Velocity":56,"Duration":451153,"SoundDuration":451153,"Delta":465021376},{"NoteNumber":73,"Velocity":43,"Duration":223880,"SoundDuration":223880,"Delta":465021376},{"NoteNumber":69,"Velocity":43,"Duration":223880,"SoundDuration":223880,"Delta":465021376},{"NoteNumber":81,"Velocity":47,"Duration":451153,"SoundDuration":451153,"Delta":465021376},{"NoteNumber":64,"Velocity":48,"Duration":227272,"SoundDuration":227272,"Delta":465245256},{"NoteNumber":83,"Velocity":48,"Duration":425724,"SoundDuration":425724,"Delta":465472529},{"NoteNumber":71,"Velocity":44,"Duration":208333,"SoundDuration":208333,"Delta":465472529},{"NoteNumber":86,"Velocity":57,"Duration":425724,"SoundDuration":425724,"Delta":465472529},{"NoteNumber":74,"Velocity":44,"Duration":208333,"SoundDuration":208333,"Delta":465472529},{"NoteNumber":64,"Velocity":49,"Duration":217391,"SoundDuration":217391,"Delta":465680862},{"NoteNumber":76,"Velocity":45,"Duration":202702,"SoundDuration":202702,"Delta":465898253},{"NoteNumber":85,"Velocity":50,"Duration":395651,"SoundDuration":395651,"Delta":465898253},{"NoteNumber":88,"Velocity":59,"Duration":395651,"SoundDuration":395651,"Delta":465898253},{"NoteNumber":73,"Velocity":45,"Duration":202702,"SoundDuration":202702,"Delta":465898253},{"NoteNumber":64,"Velocity":49,"Duration":192948,"SoundDuration":192948,"Delta":466100956},{"NoteNumber":83,"Velocity":48,"Duration":408333,"SoundDuration":408333,"Delta":466293905},{"NoteNumber":86,"Velocity":57,"Duration":408333,"SoundDuration":408333,"Delta":466293905},{"NoteNumber":71,"Velocity":44,"Duration":199999,"SoundDuration":199999,"Delta":466293905},{"NoteNumber":74,"Velocity":44,"Duration":199999,"SoundDuration":199999,"Delta":466293905},{"NoteNumber":64,"Velocity":48,"Duration":208333,"SoundDuration":208333,"Delta":466493905},{"NoteNumber":81,"Velocity":47,"Duration":434873,"SoundDuration":434873,"Delta":466702238},{"NoteNumber":69,"Velocity":43,"Duration":214285,"SoundDuration":214285,"Delta":466702238},{"NoteNumber":85,"Velocity":56,"Duration":434873,"SoundDuration":434873,"Delta":466702238},{"NoteNumber":73,"Velocity":43,"Duration":214285,"SoundDuration":214285,"Delta":466702238},{"NoteNumber":64,"Velocity":47,"Duration":220588,"SoundDuration":220588,"Delta":466916524},{"NoteNumber":71,"Velocity":49,"Duration":223880,"SoundDuration":223880,"Delta":467137112},{"NoteNumber":68,"Velocity":49,"Duration":223880,"SoundDuration":223880,"Delta":467137112},{"NoteNumber":52,"Velocity":66,"Duration":447761,"SoundDuration":447761,"Delta":467137112},{"NoteNumber":40,"Velocity":53,"Duration":447761,"SoundDuration":447761,"Delta":467137112},{"NoteNumber":64,"Velocity":49,"Duration":223880,"SoundDuration":223880,"Delta":467360993},{"NoteNumber":83,"Velocity":56,"Duration":416747,"SoundDuration":416747,"Delta":467584873},{"NoteNumber":71,"Velocity":43,"Duration":205479,"SoundDuration":205479,"Delta":467584873},{"NoteNumber":80,"Velocity":47,"Duration":416747,"SoundDuration":416747,"Delta":467584873},{"NoteNumber":68,"Velocity":43,"Duration":205479,"SoundDuration":205479,"Delta":467584873},{"NoteNumber":64,"Velocity":48,"Duration":211267,"SoundDuration":211267,"Delta":467790353},{"NoteNumber":69,"Velocity":44,"Duration":202702,"SoundDuration":202702,"Delta":468001620},{"NoteNumber":85,"Velocity":57,"Duration":411036,"SoundDuration":411036,"Delta":468001620},{"NoteNumber":81,"Velocity":48,"Duration":411036,"SoundDuration":411036,"Delta":468001620},{"NoteNumber":73,"Velocity":44,"Duration":202702,"SoundDuration":202702,"Delta":468001620},{"NoteNumber":64,"Velocity":49,"Duration":208333,"SoundDuration":208333,"Delta":468204323},{"NoteNumber":86,"Velocity":59,"Duration":394805,"SoundDuration":394805,"Delta":468412656},{"NoteNumber":83,"Velocity":50,"Duration":394805,"SoundDuration":394805,"Delta":468412656},{"NoteNumber":71,"Velocity":45,"Duration":199999,"SoundDuration":199999,"Delta":468412656},{"NoteNumber":74,"Velocity":45,"Duration":199999,"SoundDuration":199999,"Delta":468412656},{"NoteNumber":64,"Velocity":49,"Duration":194805,"SoundDuration":194805,"Delta":468612656},{"NoteNumber":73,"Velocity":44,"Duration":199999,"SoundDuration":199999,"Delta":468807461},{"NoteNumber":81,"Velocity":48,"Duration":411267,"SoundDuration":411267,"Delta":468807461},{"NoteNumber":85,"Velocity":57,"Duration":411267,"SoundDuration":411267,"Delta":468807461},{"NoteNumber":69,"Velocity":44,"Duration":199999,"SoundDuration":199999,"Delta":468807461},{"NoteNumber":64,"Velocity":48,"Duration":211267,"SoundDuration":211267,"Delta":469007461},{"NoteNumber":68,"Velocity":43,"Duration":220588,"SoundDuration":220588,"Delta":469218729},{"NoteNumber":71,"Velocity":43,"Duration":220588,"SoundDuration":220588,"Delta":469218729},{"NoteNumber":80,"Velocity":47,"Duration":441176,"SoundDuration":441176,"Delta":469218729},{"NoteNumber":83,"Velocity":56,"Duration":441176,"SoundDuration":441176,"Delta":469218729},{"NoteNumber":64,"Velocity":47,"Duration":220588,"SoundDuration":220588,"Delta":469439317},{"NoteNumber":69,"Velocity":53,"Duration":205479,"SoundDuration":205479,"Delta":469659905},{"NoteNumber":64,"Velocity":53,"Duration":205479,"SoundDuration":205479,"Delta":469659905},{"NoteNumber":45,"Velocity":53,"Duration":413812,"SoundDuration":413812,"Delta":469659905},{"NoteNumber":57,"Velocity":63,"Duration":413812,"SoundDuration":413812,"Delta":469659905},{"NoteNumber":61,"Velocity":49,"Duration":208333,"SoundDuration":208333,"Delta":469865385},{"NoteNumber":81,"Velocity":58,"Duration":416988,"SoundDuration":416988,"Delta":470073718},{"NoteNumber":73,"Velocity":48,"Duration":416988,"SoundDuration":416988,"Delta":470073718},{"NoteNumber":69,"Velocity":44,"Duration":202702,"SoundDuration":202702,"Delta":470073718},{"NoteNumber":64,"Velocity":44,"Duration":202702,"SoundDuration":202702,"Delta":470073718},{"NoteNumber":61,"Velocity":49,"Duration":214285,"SoundDuration":214285,"Delta":470276421},{"NoteNumber":76,"Velocity":48,"Duration":419765,"SoundDuration":419765,"Delta":470490707},{"NoteNumber":71,"Velocity":53,"Duration":205479,"SoundDuration":205479,"Delta":470490707},{"NoteNumber":83,"Velocity":58,"Duration":419765,"SoundDuration":419765,"Delta":470490707},{"NoteNumber":68,"Velocity":53,"Duration":205479,"SoundDuration":205479,"Delta":470490707},{"NoteNumber":64,"Velocity":49,"Duration":214285,"SoundDuration":214285,"Delta":470696186},{"NoteNumber":73,"Velocity":54,"Duration":205479,"SoundDuration":205479,"Delta":470910472},{"NoteNumber":85,"Velocity":60,"Duration":410958,"SoundDuration":410958,"Delta":470910472},{"NoteNumber":81,"Velocity":50,"Duration":410958,"SoundDuration":410958,"Delta":470910472},{"NoteNumber":69,"Velocity":54,"Duration":205479,"SoundDuration":205479,"Delta":470910472},{"NoteNumber":64,"Velocity":50,"Duration":205479,"SoundDuration":205479,"Delta":471115951},{"NoteNumber":73,"Velocity":46,"Duration":211267,"SoundDuration":211267,"Delta":471321431},{"NoteNumber":69,"Velocity":46,"Duration":211267,"SoundDuration":211267,"Delta":471321431},{"NoteNumber":54,"Velocity":63,"Duration":431855,"SoundDuration":431855,"Delta":471321431},{"NoteNumber":42,"Velocity":52,"Duration":431855,"SoundDuration":431855,"Delta":471321431},{"NoteNumber":66,"Velocity":50,"Duration":220588,"SoundDuration":220588,"Delta":471532698},{"NoteNumber":71,"Velocity":49,"Duration":208333,"SoundDuration":208333,"Delta":471753287},{"NoteNumber":74,"Velocity":49,"Duration":208333,"SoundDuration":208333,"Delta":471753287},{"NoteNumber":50,"Velocity":58,"Duration":425724,"SoundDuration":425724,"Delta":471753287},{"NoteNumber":38,"Velocity":47,"Duration":425724,"SoundDuration":425724,"Delta":471753287},{"NoteNumber":66,"Velocity":47,"Duration":217391,"SoundDuration":217391,"Delta":471961620},{"NoteNumber":73,"Velocity":49,"Duration":208333,"SoundDuration":208333,"Delta":472179011},{"NoteNumber":69,"Velocity":49,"Duration":208333,"SoundDuration":208333,"Delta":472179011},{"NoteNumber":40,"Velocity":58,"Duration":416666,"SoundDuration":416666,"Delta":472179011},{"NoteNumber":52,"Velocity":69,"Duration":416666,"SoundDuration":416666,"Delta":472179011},{"NoteNumber":64,"Velocity":54,"Duration":208333,"SoundDuration":208333,"Delta":472387344},{"NoteNumber":85,"Velocity":49,"Duration":419765,"SoundDuration":419765,"Delta":472595678},{"NoteNumber":69,"Velocity":39,"Duration":205479,"SoundDuration":205479,"Delta":472595678},{"NoteNumber":81,"Velocity":41,"Duration":419765,"SoundDuration":419765,"Delta":472595678},{"NoteNumber":73,"Velocity":39,"Duration":205479,"SoundDuration":205479,"Delta":472595678},{"NoteNumber":64,"Velocity":44,"Duration":214285,"SoundDuration":214285,"Delta":472801157},{"NoteNumber":68,"Velocity":37,"Duration":205479,"SoundDuration":205479,"Delta":473015443},{"NoteNumber":80,"Velocity":40,"Duration":422870,"SoundDuration":422870,"Delta":473015443},{"NoteNumber":83,"Velocity":48,"Duration":422870,"SoundDuration":422870,"Delta":473015443},{"NoteNumber":71,"Velocity":37,"Duration":205479,"SoundDuration":205479,"Delta":473015443},{"NoteNumber":64,"Velocity":40,"Duration":217391,"SoundDuration":217391,"Delta":473220922},{"NoteNumber":83,"Velocity":49,"Duration":435148,"SoundDuration":435148,"Delta":473438314},{"NoteNumber":71,"Velocity":44,"Duration":211267,"SoundDuration":211267,"Delta":473438314},{"NoteNumber":80,"Velocity":49,"Duration":896795,"SoundDuration":896795,"Delta":473438314},{"NoteNumber":68,"Velocity":44,"Duration":211267,"SoundDuration":211267,"Delta":473438314},{"NoteNumber":64,"Velocity":46,"Duration":223880,"SoundDuration":223880,"Delta":473649581},{"NoteNumber":68,"Velocity":42,"Duration":227272,"SoundDuration":227272,"Delta":473873462},{"NoteNumber":72,"Velocity":43,"Duration":227272,"SoundDuration":227272,"Delta":473873462},{"NoteNumber":84,"Velocity":49,"Duration":461647,"SoundDuration":461647,"Delta":473873462},{"NoteNumber":64,"Velocity":45,"Duration":234375,"SoundDuration":234375,"Delta":474100734},{"NoteNumber":85,"Velocity":49,"Duration":515704,"SoundDuration":515704,"Delta":474335109},{"NoteNumber":81,"Velocity":49,"Duration":515704,"SoundDuration":515704,"Delta":474335109},{"NoteNumber":69,"Velocity":42,"Duration":252546,"SoundDuration":252546,"Delta":474335109},{"NoteNumber":73,"Velocity":42,"Duration":252546,"SoundDuration":252546,"Delta":474335109},{"NoteNumber":64,"Velocity":42,"Duration":263157,"SoundDuration":263157,"Delta":474563533},{"NoteNumber":73,"Velocity":60,"Duration":217391,"SoundDuration":217391,"Delta":474850814},{"NoteNumber":69,"Velocity":60,"Duration":217391,"SoundDuration":217391,"Delta":474850814},{"NoteNumber":45,"Velocity":60,"Duration":441271,"SoundDuration":441271,"Delta":474850814},{"NoteNumber":57,"Velocity":72,"Duration":441271,"SoundDuration":441271,"Delta":474850814},{"NoteNumber":64,"Velocity":56,"Duration":223880,"SoundDuration":223880,"Delta":475068205},{"NoteNumber":73,"Velocity":50,"Duration":202702,"SoundDuration":202702,"Delta":475292086},{"NoteNumber":85,"Velocity":66,"Duration":416988,"SoundDuration":416988,"Delta":475292086},{"NoteNumber":69,"Velocity":50,"Duration":202702,"SoundDuration":202702,"Delta":475292086},{"NoteNumber":81,"Velocity":55,"Duration":416988,"SoundDuration":416988,"Delta":475292086},{"NoteNumber":64,"Velocity":56,"Duration":214285,"SoundDuration":214285,"Delta":475494789},{"NoteNumber":71,"Velocity":60,"Duration":205479,"SoundDuration":205479,"Delta":475709074},{"NoteNumber":83,"Velocity":55,"Duration":419765,"SoundDuration":419765,"Delta":475709074},{"NoteNumber":86,"Velocity":66,"Duration":419765,"SoundDuration":419765,"Delta":475709074},{"NoteNumber":74,"Velocity":60,"Duration":205479,"SoundDuration":205479,"Delta":475709074},{"NoteNumber":64,"Velocity":56,"Duration":214285,"SoundDuration":214285,"Delta":475914554},{"NoteNumber":88,"Velocity":69,"Duration":410958,"SoundDuration":410958,"Delta":476128840},{"NoteNumber":73,"Velocity":62,"Duration":205479,"SoundDuration":205479,"Delta":476128840},{"NoteNumber":85,"Velocity":57,"Duration":410958,"SoundDuration":410958,"Delta":476128840},{"NoteNumber":76,"Velocity":62,"Duration":205479,"SoundDuration":205479,"Delta":476128840},{"NoteNumber":69,"Velocity":57,"Duration":205479,"SoundDuration":205479,"Delta":476334319},{"NoteNumber":76,"Velocity":52,"Duration":211267,"SoundDuration":211267,"Delta":476539799},{"NoteNumber":73,"Velocity":52,"Duration":211267,"SoundDuration":211267,"Delta":476539799},{"NoteNumber":45,"Velocity":59,"Duration":431855,"SoundDuration":431855,"Delta":476539799},{"NoteNumber":57,"Velocity":72,"Duration":431855,"SoundDuration":431855,"Delta":476539799},{"NoteNumber":69,"Velocity":57,"Duration":220588,"SoundDuration":220588,"Delta":476751066},{"NoteNumber":78,"Velocity":56,"Duration":208333,"SoundDuration":208333,"Delta":476971654},{"NoteNumber":74,"Velocity":56,"Duration":208333,"SoundDuration":208333,"Delta":476971654},{"NoteNumber":38,"Velocity":54,"Duration":425724,"SoundDuration":425724,"Delta":476971654},{"NoteNumber":50,"Velocity":66,"Duration":425724,"SoundDuration":425724,"Delta":476971654},{"NoteNumber":69,"Velocity":54,"Duration":217391,"SoundDuration":217391,"Delta":477179988},{"NoteNumber":73,"Velocity":56,"Duration":214285,"SoundDuration":214285,"Delta":477397379},{"NoteNumber":69,"Velocity":56,"Duration":214285,"SoundDuration":214285,"Delta":477397379},{"NoteNumber":52,"Velocity":79,"Duration":438166,"SoundDuration":438166,"Delta":477397379},{"NoteNumber":40,"Velocity":66,"Duration":438166,"SoundDuration":438166,"Delta":477397379},{"NoteNumber":64,"Velocity":62,"Duration":223880,"SoundDuration":223880,"Delta":477611665},{"NoteNumber":69,"Velocity":55,"Duration":217391,"SoundDuration":217391,"Delta":477835545},{"NoteNumber":85,"Velocity":71,"Duration":444663,"SoundDuration":444663,"Delta":477835545},{"NoteNumber":73,"Velocity":55,"Duration":217391,"SoundDuration":217391,"Delta":477835545},{"NoteNumber":81,"Velocity":59,"Duration":444663,"SoundDuration":444663,"Delta":477835545},{"NoteNumber":64,"Velocity":59,"Duration":227272,"SoundDuration":227272,"Delta":478052936},{"NoteNumber":68,"Velocity":54,"Duration":230769,"SoundDuration":230769,"Delta":478280209},{"NoteNumber":80,"Velocity":58,"Duration":461538,"SoundDuration":461538,"Delta":478280209},{"NoteNumber":83,"Velocity":70,"Duration":461538,"SoundDuration":461538,"Delta":478280209},{"NoteNumber":71,"Velocity":54,"Duration":230769,"SoundDuration":230769,"Delta":478280209},{"NoteNumber":64,"Velocity":58,"Duration":230769,"SoundDuration":230769,"Delta":478510978},{"NoteNumber":69,"Velocity":63,"Duration":250000,"SoundDuration":250000,"Delta":478741748},{"NoteNumber":81,"Velocity":63,"Duration":500000,"SoundDuration":500000,"Delta":478741748},{"NoteNumber":64,"Velocity":56,"Duration":250000,"SoundDuration":250000,"Delta":478991748},{"NoteNumber":61,"Velocity":59,"Duration":263157,"SoundDuration":263157,"Delta":479241748},{"NoteNumber":57,"Velocity":58,"Duration":263157,"SoundDuration":263157,"Delta":479241748},{"NoteNumber":64,"Velocity":49,"Duration":294117,"SoundDuration":294117,"Delta":479504906},{"NoteNumber":69,"Velocity":57,"Duration":441176,"SoundDuration":441176,"Delta":479799023},{"NoteNumber":45,"Velocity":52,"Duration":441176,"SoundDuration":441176,"Delta":479799023},{"NoteNumber":76,"Velocity":54,"Duration":679487,"SoundDuration":679487,"Delta":480681376},{"NoteNumber":57,"Velocity":42,"Duration":230769,"SoundDuration":230769,"Delta":480681376},{"NoteNumber":61,"Velocity":31,"Duration":234432,"SoundDuration":234432,"Delta":480912146},{"NoteNumber":64,"Velocity":34,"Duration":214285,"SoundDuration":214285,"Delta":481146578},{"NoteNumber":78,"Velocity":54,"Duration":122950,"SoundDuration":122950,"Delta":481360864},{"NoteNumber":61,"Velocity":32,"Duration":240138,"SoundDuration":240138,"Delta":481360864},{"NoteNumber":76,"Velocity":50,"Duration":117187,"SoundDuration":117187,"Delta":481483815},{"NoteNumber":74,"Velocity":55,"Duration":107142,"SoundDuration":107142,"Delta":481601002},{"NoteNumber":64,"Velocity":34,"Duration":214285,"SoundDuration":214285,"Delta":481601002},{"NoteNumber":73,"Velocity":54,"Duration":107142,"SoundDuration":107142,"Delta":481708145},{"NoteNumber":71,"Velocity":53,"Duration":113636,"SoundDuration":113636,"Delta":481815288},{"NoteNumber":61,"Velocity":30,"Duration":227272,"SoundDuration":227272,"Delta":481815288},{"NoteNumber":69,"Velocity":52,"Duration":113636,"SoundDuration":113636,"Delta":481928924},{"NoteNumber":77,"Velocity":57,"Duration":250000,"SoundDuration":250000,"Delta":482042561},{"NoteNumber":57,"Velocity":40,"Duration":250000,"SoundDuration":250000,"Delta":482042561},{"NoteNumber":78,"Velocity":54,"Duration":213461,"SoundDuration":213461,"Delta":482292561},{"NoteNumber":62,"Velocity":30,"Duration":230769,"SoundDuration":230769,"Delta":482292561},{"NoteNumber":78,"Velocity":54,"Duration":230769,"SoundDuration":230769,"Delta":482523330},{"NoteNumber":66,"Velocity":33,"Duration":230769,"SoundDuration":230769,"Delta":482523330},{"NoteNumber":62,"Velocity":31,"Duration":241935,"SoundDuration":241935,"Delta":482754099},{"NoteNumber":66,"Velocity":33,"Duration":234375,"SoundDuration":234375,"Delta":482996035},{"NoteNumber":62,"Velocity":32,"Duration":250000,"SoundDuration":250000,"Delta":483230410},{"NoteNumber":81,"Velocity":58,"Duration":238095,"SoundDuration":238095,"Delta":483480410},{"NoteNumber":57,"Velocity":40,"Duration":238095,"SoundDuration":238095,"Delta":483480410},{"NoteNumber":80,"Velocity":55,"Duration":238095,"SoundDuration":238095,"Delta":483718505},{"NoteNumber":62,"Velocity":31,"Duration":238095,"SoundDuration":238095,"Delta":483718505},{"NoteNumber":83,"Velocity":58,"Duration":223880,"SoundDuration":223880,"Delta":483956600},{"NoteNumber":66,"Velocity":34,"Duration":223880,"SoundDuration":223880,"Delta":483956600},{"NoteNumber":81,"Velocity":58,"Duration":234375,"SoundDuration":234375,"Delta":484180481},{"NoteNumber":62,"Velocity":34,"Duration":234375,"SoundDuration":234375,"Delta":484180481},{"NoteNumber":80,"Velocity":59,"Duration":234375,"SoundDuration":234375,"Delta":484414856},{"NoteNumber":66,"Velocity":39,"Duration":234375,"SoundDuration":234375,"Delta":484414856},{"NoteNumber":78,"Velocity":60,"Duration":264246,"SoundDuration":264246,"Delta":484649231},{"NoteNumber":62,"Velocity":33,"Duration":264246,"SoundDuration":264246,"Delta":484649231},{"NoteNumber":75,"Velocity":62,"Duration":238095,"SoundDuration":238095,"Delta":484913477},{"NoteNumber":57,"Velocity":43,"Duration":238095,"SoundDuration":238095,"Delta":484913477},{"NoteNumber":76,"Velocity":57,"Duration":222222,"SoundDuration":222222,"Delta":485151572},{"NoteNumber":61,"Velocity":33,"Duration":238095,"SoundDuration":238095,"Delta":485151572},{"NoteNumber":76,"Velocity":57,"Duration":254237,"SoundDuration":254237,"Delta":485389667},{"NoteNumber":64,"Velocity":33,"Duration":254237,"SoundDuration":254237,"Delta":485389667},{"NoteNumber":61,"Velocity":31,"Duration":254237,"SoundDuration":254237,"Delta":485643905},{"NoteNumber":64,"Velocity":33,"Duration":254237,"SoundDuration":254237,"Delta":485898142},{"NoteNumber":61,"Velocity":31,"Duration":254237,"SoundDuration":254237,"Delta":486152379},{"NoteNumber":76,"Velocity":63,"Duration":701766,"SoundDuration":701766,"Delta":486406616},{"NoteNumber":49,"Velocity":52,"Duration":234375,"SoundDuration":234375,"Delta":486406616},{"NoteNumber":45,"Velocity":52,"Duration":234375,"SoundDuration":234375,"Delta":486406616},{"NoteNumber":61,"Velocity":45,"Duration":250000,"SoundDuration":250000,"Delta":486858383},{"NoteNumber":57,"Velocity":45,"Duration":250000,"SoundDuration":250000,"Delta":486858383},{"NoteNumber":78,"Velocity":55,"Duration":117187,"SoundDuration":117187,"Delta":487108383},{"NoteNumber":76,"Velocity":50,"Duration":117187,"SoundDuration":117187,"Delta":487225570},{"NoteNumber":74,"Velocity":58,"Duration":110294,"SoundDuration":110294,"Delta":487342758},{"NoteNumber":73,"Velocity":56,"Duration":110294,"SoundDuration":110294,"Delta":487453052},{"NoteNumber":71,"Velocity":54,"Duration":110294,"SoundDuration":110294,"Delta":487563346},{"NoteNumber":69,"Velocity":53,"Duration":110294,"SoundDuration":110294,"Delta":487673640},{"NoteNumber":76,"Velocity":63,"Duration":267857,"SoundDuration":267857,"Delta":487783934},{"NoteNumber":50,"Velocity":52,"Duration":267857,"SoundDuration":267857,"Delta":487783934},{"NoteNumber":47,"Velocity":52,"Duration":267857,"SoundDuration":267857,"Delta":487783934},{"NoteNumber":74,"Velocity":63,"Duration":483996,"SoundDuration":483996,"Delta":488051791},{"NoteNumber":62,"Velocity":45,"Duration":245901,"SoundDuration":245901,"Delta":488289887},{"NoteNumber":59,"Velocity":45,"Duration":245901,"SoundDuration":245901,"Delta":488289887},{"NoteNumber":78,"Velocity":55,"Duration":111940,"SoundDuration":111940,"Delta":488535788},{"NoteNumber":76,"Velocity":50,"Duration":111940,"SoundDuration":111940,"Delta":488647729},{"NoteNumber":74,"Velocity":58,"Duration":111940,"SoundDuration":111940,"Delta":488759669},{"NoteNumber":73,"Velocity":56,"Duration":111940,"SoundDuration":111940,"Delta":488871609},{"NoteNumber":71,"Velocity":54,"Duration":111940,"SoundDuration":111940,"Delta":488983549},{"NoteNumber":69,"Velocity":53,"Duration":111940,"SoundDuration":111940,"Delta":489095490},{"NoteNumber":69,"Velocity":62,"Duration":500000,"SoundDuration":500000,"Delta":489207430},{"NoteNumber":61,"Velocity":37,"Duration":500000,"SoundDuration":500000,"Delta":489207430},{"NoteNumber":64,"Velocity":43,"Duration":500000,"SoundDuration":500000,"Delta":489207430},{"NoteNumber":68,"Velocity":58,"Duration":508474,"SoundDuration":508474,"Delta":489707430},{"NoteNumber":59,"Velocity":35,"Duration":508474,"SoundDuration":508474,"Delta":489707430},{"NoteNumber":62,"Velocity":42,"Duration":508474,"SoundDuration":508474,"Delta":489707430},{"NoteNumber":63,"Velocity":50,"Duration":555555,"SoundDuration":555555,"Delta":490215904},{"NoteNumber":69,"Velocity":59,"Duration":555555,"SoundDuration":555555,"Delta":490215904},{"NoteNumber":61,"Velocity":43,"Duration":555555,"SoundDuration":555555,"Delta":490215904},{"NoteNumber":57,"Velocity":36,"Duration":555555,"SoundDuration":555555,"Delta":490215904},{"NoteNumber":73,"Velocity":63,"Duration":1111110,"SoundDuration":1111110,"Delta":490771460},{"NoteNumber":64,"Velocity":53,"Duration":1666666,"SoundDuration":1666666,"Delta":490771460},{"NoteNumber":69,"Velocity":53,"Duration":1111110,"SoundDuration":1111110,"Delta":490771460},{"NoteNumber":52,"Velocity":42,"Duration":1666666,"SoundDuration":1666666,"Delta":490771460},{"NoteNumber":61,"Velocity":50,"Duration":1111110,"SoundDuration":1111110,"Delta":490771460},{"NoteNumber":57,"Velocity":42,"Duration":1111110,"SoundDuration":1111110,"Delta":490771460},{"NoteNumber":71,"Velocity":47,"Duration":555555,"SoundDuration":555555,"Delta":491882571},{"NoteNumber":68,"Velocity":39,"Duration":555555,"SoundDuration":555555,"Delta":491882571},{"NoteNumber":59,"Velocity":38,"Duration":555555,"SoundDuration":555555,"Delta":491882571},{"NoteNumber":56,"Velocity":32,"Duration":555555,"SoundDuration":555555,"Delta":491882571},{"NoteNumber":73,"Velocity":49,"Duration":277777,"SoundDuration":277777,"Delta":492438126},{"NoteNumber":69,"Velocity":49,"Duration":277777,"SoundDuration":277777,"Delta":492438126},{"NoteNumber":57,"Velocity":66,"Duration":555555,"SoundDuration":555555,"Delta":492438126},{"NoteNumber":45,"Velocity":53,"Duration":555555,"SoundDuration":555555,"Delta":492438126},{"NoteNumber":64,"Velocity":49,"Duration":277777,"SoundDuration":277777,"Delta":492715904},{"NoteNumber":85,"Velocity":56,"Duration":454649,"SoundDuration":454649,"Delta":492993682},{"NoteNumber":73,"Velocity":43,"Duration":223880,"SoundDuration":223880,"Delta":492993682},{"NoteNumber":81,"Velocity":47,"Duration":454649,"SoundDuration":454649,"Delta":492993682},{"NoteNumber":69,"Velocity":43,"Duration":223880,"SoundDuration":223880,"Delta":492993682},{"NoteNumber":64,"Velocity":48,"Duration":230769,"SoundDuration":230769,"Delta":493217562},{"NoteNumber":86,"Velocity":57,"Duration":422618,"SoundDuration":422618,"Delta":493448332},{"NoteNumber":83,"Velocity":48,"Duration":422618,"SoundDuration":422618,"Delta":493448332},{"NoteNumber":74,"Velocity":44,"Duration":208333,"SoundDuration":208333,"Delta":493448332},{"NoteNumber":71,"Velocity":44,"Duration":208333,"SoundDuration":208333,"Delta":493448332},{"NoteNumber":64,"Velocity":49,"Duration":214285,"SoundDuration":214285,"Delta":493656665},{"NoteNumber":88,"Velocity":59,"Duration":395651,"SoundDuration":395651,"Delta":493870951},{"NoteNumber":85,"Velocity":50,"Duration":395651,"SoundDuration":395651,"Delta":493870951},{"NoteNumber":76,"Velocity":45,"Duration":202702,"SoundDuration":202702,"Delta":493870951},{"NoteNumber":73,"Velocity":45,"Duration":202702,"SoundDuration":202702,"Delta":493870951},{"NoteNumber":64,"Velocity":49,"Duration":192948,"SoundDuration":192948,"Delta":494073653},{"NoteNumber":74,"Velocity":44,"Duration":200000,"SoundDuration":200000,"Delta":494266602},{"NoteNumber":71,"Velocity":44,"Duration":200000,"SoundDuration":200000,"Delta":494266602},{"NoteNumber":83,"Velocity":48,"Duration":408333,"SoundDuration":408333,"Delta":494266602},{"NoteNumber":86,"Velocity":57,"Duration":408333,"SoundDuration":408333,"Delta":494266602},{"NoteNumber":64,"Velocity":48,"Duration":208333,"SoundDuration":208333,"Delta":494466602},{"NoteNumber":73,"Velocity":43,"Duration":214285,"SoundDuration":214285,"Delta":494674935},{"NoteNumber":85,"Velocity":56,"Duration":434873,"SoundDuration":434873,"Delta":494674935},{"NoteNumber":69,"Velocity":43,"Duration":214285,"SoundDuration":214285,"Delta":494674935},{"NoteNumber":81,"Velocity":47,"Duration":434873,"SoundDuration":434873,"Delta":494674935},{"NoteNumber":64,"Velocity":47,"Duration":220588,"SoundDuration":220588,"Delta":494889221},{"NoteNumber":68,"Velocity":49,"Duration":223880,"SoundDuration":223880,"Delta":495109809},{"NoteNumber":71,"Velocity":49,"Duration":223880,"SoundDuration":223880,"Delta":495109809},{"NoteNumber":40,"Velocity":53,"Duration":447761,"SoundDuration":447761,"Delta":495109809},{"NoteNumber":52,"Velocity":66,"Duration":447761,"SoundDuration":447761,"Delta":495109809},{"NoteNumber":64,"Velocity":49,"Duration":223880,"SoundDuration":223880,"Delta":495333690},{"NoteNumber":83,"Velocity":56,"Duration":416747,"SoundDuration":416747,"Delta":495557570},{"NoteNumber":68,"Velocity":43,"Duration":205479,"SoundDuration":205479,"Delta":495557570},{"NoteNumber":80,"Velocity":47,"Duration":416747,"SoundDuration":416747,"Delta":495557570},{"NoteNumber":71,"Velocity":43,"Duration":205479,"SoundDuration":205479,"Delta":495557570},{"NoteNumber":64,"Velocity":48,"Duration":211267,"SoundDuration":211267,"Delta":495763050},{"NoteNumber":69,"Velocity":44,"Duration":202702,"SoundDuration":202702,"Delta":495974317},{"NoteNumber":81,"Velocity":48,"Duration":411036,"SoundDuration":411036,"Delta":495974317},{"NoteNumber":85,"Velocity":57,"Duration":411036,"SoundDuration":411036,"Delta":495974317},{"NoteNumber":73,"Velocity":44,"Duration":202702,"SoundDuration":202702,"Delta":495974317},{"NoteNumber":64,"Velocity":49,"Duration":208333,"SoundDuration":208333,"Delta":496177020},{"NoteNumber":83,"Velocity":50,"Duration":394805,"SoundDuration":394805,"Delta":496385353},{"NoteNumber":74,"Velocity":45,"Duration":199999,"SoundDuration":199999,"Delta":496385353},{"NoteNumber":86,"Velocity":59,"Duration":394805,"SoundDuration":394805,"Delta":496385353},{"NoteNumber":71,"Velocity":45,"Duration":199999,"SoundDuration":199999,"Delta":496385353},{"NoteNumber":64,"Velocity":49,"Duration":194805,"SoundDuration":194805,"Delta":496585353},{"NoteNumber":85,"Velocity":57,"Duration":411267,"SoundDuration":411267,"Delta":496780159},{"NoteNumber":81,"Velocity":48,"Duration":411267,"SoundDuration":411267,"Delta":496780159},{"NoteNumber":69,"Velocity":44,"Duration":199999,"SoundDuration":199999,"Delta":496780159},{"NoteNumber":73,"Velocity":44,"Duration":199999,"SoundDuration":199999,"Delta":496780159},{"NoteNumber":64,"Velocity":48,"Duration":211267,"SoundDuration":211267,"Delta":496980159},{"NoteNumber":80,"Velocity":47,"Duration":441176,"SoundDuration":441176,"Delta":497191426},{"NoteNumber":71,"Velocity":43,"Duration":220588,"SoundDuration":220588,"Delta":497191426},{"NoteNumber":68,"Velocity":43,"Duration":220588,"SoundDuration":220588,"Delta":497191426},{"NoteNumber":83,"Velocity":56,"Duration":441176,"SoundDuration":441176,"Delta":497191426},{"NoteNumber":64,"Velocity":47,"Duration":220588,"SoundDuration":220588,"Delta":497412014},{"NoteNumber":64,"Velocity":53,"Duration":205479,"SoundDuration":205479,"Delta":497632603},{"NoteNumber":69,"Velocity":53,"Duration":205479,"SoundDuration":205479,"Delta":497632603},{"NoteNumber":57,"Velocity":63,"Duration":413812,"SoundDuration":413812,"Delta":497632603},{"NoteNumber":45,"Velocity":53,"Duration":413812,"SoundDuration":413812,"Delta":497632603},{"NoteNumber":61,"Velocity":49,"Duration":208333,"SoundDuration":208333,"Delta":497838082},{"NoteNumber":69,"Velocity":44,"Duration":202702,"SoundDuration":202702,"Delta":498046415},{"NoteNumber":81,"Velocity":58,"Duration":416988,"SoundDuration":416988,"Delta":498046415},{"NoteNumber":73,"Velocity":48,"Duration":416988,"SoundDuration":416988,"Delta":498046415},{"NoteNumber":64,"Velocity":44,"Duration":202702,"SoundDuration":202702,"Delta":498046415},{"NoteNumber":61,"Velocity":49,"Duration":214285,"SoundDuration":214285,"Delta":498249118},{"NoteNumber":68,"Velocity":53,"Duration":205479,"SoundDuration":205479,"Delta":498463404},{"NoteNumber":71,"Velocity":53,"Duration":205479,"SoundDuration":205479,"Delta":498463404},{"NoteNumber":76,"Velocity":48,"Duration":419765,"SoundDuration":419765,"Delta":498463404},{"NoteNumber":83,"Velocity":58,"Duration":419765,"SoundDuration":419765,"Delta":498463404},{"NoteNumber":64,"Velocity":49,"Duration":214285,"SoundDuration":214285,"Delta":498668883},{"NoteNumber":69,"Velocity":54,"Duration":205479,"SoundDuration":205479,"Delta":498883169},{"NoteNumber":85,"Velocity":60,"Duration":410958,"SoundDuration":410958,"Delta":498883169},{"NoteNumber":73,"Velocity":54,"Duration":205479,"SoundDuration":205479,"Delta":498883169},{"NoteNumber":81,"Velocity":50,"Duration":410958,"SoundDuration":410958,"Delta":498883169},{"NoteNumber":64,"Velocity":50,"Duration":205479,"SoundDuration":205479,"Delta":499088649},{"NoteNumber":69,"Velocity":46,"Duration":211267,"SoundDuration":211267,"Delta":499294128},{"NoteNumber":73,"Velocity":46,"Duration":211267,"SoundDuration":211267,"Delta":499294128},{"NoteNumber":42,"Velocity":52,"Duration":431855,"SoundDuration":431855,"Delta":499294128},{"NoteNumber":54,"Velocity":63,"Duration":431855,"SoundDuration":431855,"Delta":499294128},{"NoteNumber":66,"Velocity":50,"Duration":220588,"SoundDuration":220588,"Delta":499505396},{"NoteNumber":71,"Velocity":49,"Duration":208333,"SoundDuration":208333,"Delta":499725984},{"NoteNumber":74,"Velocity":49,"Duration":208333,"SoundDuration":208333,"Delta":499725984},{"NoteNumber":38,"Velocity":47,"Duration":425724,"SoundDuration":425724,"Delta":499725984},{"NoteNumber":50,"Velocity":58,"Duration":425724,"SoundDuration":425724,"Delta":499725984},{"NoteNumber":66,"Velocity":47,"Duration":217391,"SoundDuration":217391,"Delta":499934317},{"NoteNumber":73,"Velocity":49,"Duration":208333,"SoundDuration":208333,"Delta":500151708},{"NoteNumber":69,"Velocity":49,"Duration":208333,"SoundDuration":208333,"Delta":500151708},{"NoteNumber":52,"Velocity":69,"Duration":416666,"SoundDuration":416666,"Delta":500151708},{"NoteNumber":40,"Velocity":58,"Duration":416666,"SoundDuration":416666,"Delta":500151708},{"NoteNumber":64,"Velocity":54,"Duration":208333,"SoundDuration":208333,"Delta":500360042},{"NoteNumber":81,"Velocity":41,"Duration":419765,"SoundDuration":419765,"Delta":500568375},{"NoteNumber":69,"Velocity":39,"Duration":205479,"SoundDuration":205479,"Delta":500568375},{"NoteNumber":73,"Velocity":39,"Duration":205479,"SoundDuration":205479,"Delta":500568375},{"NoteNumber":85,"Velocity":49,"Duration":419765,"SoundDuration":419765,"Delta":500568375},{"NoteNumber":64,"Velocity":44,"Duration":214285,"SoundDuration":214285,"Delta":500773854},{"NoteNumber":80,"Velocity":40,"Duration":422870,"SoundDuration":422870,"Delta":500988140},{"NoteNumber":71,"Velocity":37,"Duration":205479,"SoundDuration":205479,"Delta":500988140},{"NoteNumber":68,"Velocity":37,"Duration":205479,"SoundDuration":205479,"Delta":500988140},{"NoteNumber":83,"Velocity":48,"Duration":422870,"SoundDuration":422870,"Delta":500988140},{"NoteNumber":64,"Velocity":40,"Duration":217391,"SoundDuration":217391,"Delta":501193620},{"NoteNumber":68,"Velocity":44,"Duration":211267,"SoundDuration":211267,"Delta":501411011},{"NoteNumber":71,"Velocity":44,"Duration":211267,"SoundDuration":211267,"Delta":501411011},{"NoteNumber":83,"Velocity":49,"Duration":435148,"SoundDuration":435148,"Delta":501411011},{"NoteNumber":80,"Velocity":49,"Duration":896795,"SoundDuration":896795,"Delta":501411011},{"NoteNumber":64,"Velocity":46,"Duration":223880,"SoundDuration":223880,"Delta":501622278},{"NoteNumber":84,"Velocity":49,"Duration":461647,"SoundDuration":461647,"Delta":501846159},{"NoteNumber":68,"Velocity":42,"Duration":227272,"SoundDuration":227272,"Delta":501846159},{"NoteNumber":72,"Velocity":43,"Duration":227272,"SoundDuration":227272,"Delta":501846159},{"NoteNumber":64,"Velocity":45,"Duration":234375,"SoundDuration":234375,"Delta":502073432},{"NoteNumber":73,"Velocity":42,"Duration":252546,"SoundDuration":252546,"Delta":502307807},{"NoteNumber":85,"Velocity":49,"Duration":515704,"SoundDuration":515704,"Delta":502307807},{"NoteNumber":69,"Velocity":42,"Duration":252546,"SoundDuration":252546,"Delta":502307807},{"NoteNumber":81,"Velocity":49,"Duration":515704,"SoundDuration":515704,"Delta":502307807},{"NoteNumber":64,"Velocity":42,"Duration":263157,"SoundDuration":263157,"Delta":502536231},{"NoteNumber":73,"Velocity":60,"Duration":217391,"SoundDuration":217391,"Delta":502823511},{"NoteNumber":69,"Velocity":60,"Duration":217391,"SoundDuration":217391,"Delta":502823511},{"NoteNumber":45,"Velocity":60,"Duration":441271,"SoundDuration":441271,"Delta":502823511},{"NoteNumber":57,"Velocity":72,"Duration":441271,"SoundDuration":441271,"Delta":502823511},{"NoteNumber":64,"Velocity":56,"Duration":223880,"SoundDuration":223880,"Delta":503040903},{"NoteNumber":85,"Velocity":66,"Duration":416988,"SoundDuration":416988,"Delta":503264783},{"NoteNumber":73,"Velocity":50,"Duration":202702,"SoundDuration":202702,"Delta":503264783},{"NoteNumber":69,"Velocity":50,"Duration":202702,"SoundDuration":202702,"Delta":503264783},{"NoteNumber":81,"Velocity":55,"Duration":416988,"SoundDuration":416988,"Delta":503264783},{"NoteNumber":64,"Velocity":56,"Duration":214285,"SoundDuration":214285,"Delta":503467486},{"NoteNumber":86,"Velocity":66,"Duration":419765,"SoundDuration":419765,"Delta":503681772},{"NoteNumber":74,"Velocity":60,"Duration":205479,"SoundDuration":205479,"Delta":503681772},{"NoteNumber":83,"Velocity":55,"Duration":419765,"SoundDuration":419765,"Delta":503681772},{"NoteNumber":71,"Velocity":60,"Duration":205479,"SoundDuration":205479,"Delta":503681772},{"NoteNumber":64,"Velocity":56,"Duration":214285,"SoundDuration":214285,"Delta":503887251},{"NoteNumber":88,"Velocity":69,"Duration":410958,"SoundDuration":410958,"Delta":504101537},{"NoteNumber":76,"Velocity":62,"Duration":205479,"SoundDuration":205479,"Delta":504101537},{"NoteNumber":85,"Velocity":57,"Duration":410958,"SoundDuration":410958,"Delta":504101537},{"NoteNumber":73,"Velocity":62,"Duration":205479,"SoundDuration":205479,"Delta":504101537},{"NoteNumber":69,"Velocity":57,"Duration":205479,"SoundDuration":205479,"Delta":504307016},{"NoteNumber":73,"Velocity":52,"Duration":211267,"SoundDuration":211267,"Delta":504512496},{"NoteNumber":76,"Velocity":52,"Duration":211267,"SoundDuration":211267,"Delta":504512496},{"NoteNumber":45,"Velocity":59,"Duration":431855,"SoundDuration":431855,"Delta":504512496},{"NoteNumber":57,"Velocity":72,"Duration":431855,"SoundDuration":431855,"Delta":504512496},{"NoteNumber":69,"Velocity":57,"Duration":220588,"SoundDuration":220588,"Delta":504723763},{"NoteNumber":74,"Velocity":56,"Duration":208333,"SoundDuration":208333,"Delta":504944352},{"NoteNumber":78,"Velocity":56,"Duration":208333,"SoundDuration":208333,"Delta":504944352},{"NoteNumber":50,"Velocity":66,"Duration":425724,"SoundDuration":425724,"Delta":504944352},{"NoteNumber":38,"Velocity":54,"Duration":425724,"SoundDuration":425724,"Delta":504944352},{"NoteNumber":69,"Velocity":54,"Duration":217391,"SoundDuration":217391,"Delta":505152685},{"NoteNumber":73,"Velocity":56,"Duration":214285,"SoundDuration":214285,"Delta":505370076},{"NoteNumber":69,"Velocity":56,"Duration":214285,"SoundDuration":214285,"Delta":505370076},{"NoteNumber":52,"Velocity":79,"Duration":438166,"SoundDuration":438166,"Delta":505370076},{"NoteNumber":40,"Velocity":66,"Duration":438166,"SoundDuration":438166,"Delta":505370076},{"NoteNumber":64,"Velocity":62,"Duration":223880,"SoundDuration":223880,"Delta":505584362},{"NoteNumber":85,"Velocity":71,"Duration":461975,"SoundDuration":461975,"Delta":505808242},{"NoteNumber":69,"Velocity":55,"Duration":223880,"SoundDuration":223880,"Delta":505808242},{"NoteNumber":81,"Velocity":59,"Duration":461975,"SoundDuration":461975,"Delta":505808242},{"NoteNumber":73,"Velocity":55,"Duration":223880,"SoundDuration":223880,"Delta":505808242},{"NoteNumber":64,"Velocity":59,"Duration":238095,"SoundDuration":238095,"Delta":506032123},{"NoteNumber":71,"Velocity":54,"Duration":241935,"SoundDuration":241935,"Delta":506270218},{"NoteNumber":80,"Velocity":58,"Duration":483871,"SoundDuration":483871,"Delta":506270218},{"NoteNumber":68,"Velocity":54,"Duration":241935,"SoundDuration":241935,"Delta":506270218},{"NoteNumber":83,"Velocity":70,"Duration":483871,"SoundDuration":483871,"Delta":506270218},{"NoteNumber":64,"Velocity":58,"Duration":241935,"SoundDuration":241935,"Delta":506512154},{"NoteNumber":69,"Velocity":63,"Duration":288461,"SoundDuration":288461,"Delta":506754089},{"NoteNumber":81,"Velocity":63,"Duration":576923,"SoundDuration":576923,"Delta":506754089},{"NoteNumber":64,"Velocity":56,"Duration":288461,"SoundDuration":288461,"Delta":507042551},{"NoteNumber":61,"Velocity":59,"Duration":340909,"SoundDuration":340909,"Delta":507331012},{"NoteNumber":57,"Velocity":58,"Duration":340909,"SoundDuration":340909,"Delta":507331012},{"NoteNumber":64,"Velocity":49,"Duration":384615,"SoundDuration":384615,"Delta":507671921},{"NoteNumber":69,"Velocity":57,"Duration":441176,"SoundDuration":441176,"Delta":508056537},{"NoteNumber":45,"Velocity":52,"Duration":441176,"SoundDuration":441176,"Delta":508056537},{"NoteNumber":73,"Velocity":50,"Duration":1129944,"SoundDuration":1129944,"Delta":514233008},{"NoteNumber":57,"Velocity":43,"Duration":282485,"SoundDuration":282485,"Delta":514233008},{"NoteNumber":64,"Velocity":26,"Duration":282486,"SoundDuration":282486,"Delta":514515494},{"NoteNumber":61,"Velocity":30,"Duration":282485,"SoundDuration":282485,"Delta":514797980},{"NoteNumber":64,"Velocity":21,"Duration":282486,"SoundDuration":282486,"Delta":515080466},{"NoteNumber":73,"Velocity":50,"Duration":1536827,"SoundDuration":1536827,"Delta":515362952},{"NoteNumber":57,"Velocity":36,"Duration":267857,"SoundDuration":267857,"Delta":515362952},{"NoteNumber":64,"Velocity":29,"Duration":267857,"SoundDuration":267857,"Delta":515630809},{"NoteNumber":61,"Velocity":30,"Duration":258620,"SoundDuration":258620,"Delta":515898666},{"NoteNumber":64,"Velocity":28,"Duration":258620,"SoundDuration":258620,"Delta":516157287},{"NoteNumber":57,"Velocity":38,"Duration":241935,"SoundDuration":241935,"Delta":516415908},{"NoteNumber":64,"Velocity":31,"Duration":241935,"SoundDuration":241935,"Delta":516657843},{"NoteNumber":74,"Velocity":53,"Duration":551619,"SoundDuration":551619,"Delta":516899779},{"NoteNumber":59,"Velocity":33,"Duration":263157,"SoundDuration":263157,"Delta":516899779},{"NoteNumber":64,"Velocity":35,"Duration":288461,"SoundDuration":288461,"Delta":517162937},{"NoteNumber":78,"Velocity":56,"Duration":526315,"SoundDuration":526315,"Delta":517451398},{"NoteNumber":61,"Velocity":41,"Duration":263157,"SoundDuration":263157,"Delta":517451398},{"NoteNumber":64,"Velocity":30,"Duration":263157,"SoundDuration":263157,"Delta":517714556},{"NoteNumber":76,"Velocity":50,"Duration":526316,"SoundDuration":526316,"Delta":517977714},{"NoteNumber":57,"Velocity":30,"Duration":263158,"SoundDuration":263158,"Delta":517977714},{"NoteNumber":64,"Velocity":30,"Duration":263157,"SoundDuration":263157,"Delta":518240872},{"NoteNumber":61,"Velocity":36,"Duration":245901,"SoundDuration":245901,"Delta":518504030},{"NoteNumber":64,"Velocity":25,"Duration":245901,"SoundDuration":245901,"Delta":518749932},{"NoteNumber":76,"Velocity":50,"Duration":545454,"SoundDuration":545454,"Delta":518995834},{"NoteNumber":57,"Velocity":29,"Duration":272727,"SoundDuration":272727,"Delta":518995834},{"NoteNumber":64,"Velocity":27,"Duration":272727,"SoundDuration":272727,"Delta":519268561},{"NoteNumber":78,"Velocity":54,"Duration":254237,"SoundDuration":254237,"Delta":519541288},{"NoteNumber":61,"Velocity":36,"Duration":254237,"SoundDuration":254237,"Delta":519541288},{"NoteNumber":76,"Velocity":50,"Duration":254237,"SoundDuration":254237,"Delta":519795525},{"NoteNumber":64,"Velocity":30,"Duration":254237,"SoundDuration":254237,"Delta":519795525},{"NoteNumber":74,"Velocity":50,"Duration":254237,"SoundDuration":254237,"Delta":520049763},{"NoteNumber":57,"Velocity":30,"Duration":254237,"SoundDuration":254237,"Delta":520049763},{"NoteNumber":73,"Velocity":50,"Duration":261792,"SoundDuration":261792,"Delta":520304000},{"NoteNumber":64,"Velocity":24,"Duration":283018,"SoundDuration":283018,"Delta":520304000},{"NoteNumber":73,"Velocity":54,"Duration":535714,"SoundDuration":535714,"Delta":520587019},{"NoteNumber":56,"Velocity":38,"Duration":267857,"SoundDuration":267857,"Delta":520587019},{"NoteNumber":64,"Velocity":23,"Duration":267857,"SoundDuration":267857,"Delta":520854876},{"NoteNumber":71,"Velocity":50,"Duration":513158,"SoundDuration":513158,"Delta":521122733},{"NoteNumber":63,"Velocity":25,"Duration":263157,"SoundDuration":263157,"Delta":521122733},{"NoteNumber":64,"Velocity":23,"Duration":263157,"SoundDuration":263157,"Delta":521385891},{"NoteNumber":71,"Velocity":50,"Duration":1484665,"SoundDuration":1484665,"Delta":521649049},{"NoteNumber":56,"Velocity":36,"Duration":254237,"SoundDuration":254237,"Delta":521649049},{"NoteNumber":64,"Velocity":25,"Duration":254237,"SoundDuration":254237,"Delta":521903286},{"NoteNumber":63,"Velocity":28,"Duration":250000,"SoundDuration":250000,"Delta":522157524},{"NoteNumber":64,"Velocity":25,"Duration":250000,"SoundDuration":250000,"Delta":522407524},{"NoteNumber":56,"Velocity":41,"Duration":238095,"SoundDuration":238095,"Delta":522657524},{"NoteNumber":64,"Velocity":29,"Duration":238095,"SoundDuration":238095,"Delta":522895619},{"NoteNumber":73,"Velocity":54,"Duration":526964,"SoundDuration":526964,"Delta":523133714},{"NoteNumber":57,"Velocity":32,"Duration":254237,"SoundDuration":254237,"Delta":523133714},{"NoteNumber":64,"Velocity":29,"Duration":272727,"SoundDuration":272727,"Delta":523387951},{"NoteNumber":76,"Velocity":57,"Duration":535714,"SoundDuration":535714,"Delta":523660679},{"NoteNumber":58,"Velocity":40,"Duration":267857,"SoundDuration":267857,"Delta":523660679},{"NoteNumber":64,"Velocity":28,"Duration":267857,"SoundDuration":267857,"Delta":523928536},{"NoteNumber":74,"Velocity":53,"Duration":491803,"SoundDuration":491803,"Delta":524196393},{"NoteNumber":63,"Velocity":31,"Duration":245901,"SoundDuration":245901,"Delta":524196393},{"NoteNumber":64,"Velocity":29,"Duration":245901,"SoundDuration":245901,"Delta":524442295},{"NoteNumber":59,"Velocity":36,"Duration":245901,"SoundDuration":245901,"Delta":524688197},{"NoteNumber":64,"Velocity":25,"Duration":245901,"SoundDuration":245901,"Delta":524934098},{"NoteNumber":74,"Velocity":50,"Duration":535714,"SoundDuration":535714,"Delta":525180000},{"NoteNumber":63,"Velocity":29,"Duration":267857,"SoundDuration":267857,"Delta":525180000},{"NoteNumber":64,"Velocity":26,"Duration":267857,"SoundDuration":267857,"Delta":525447857},{"NoteNumber":76,"Velocity":56,"Duration":258620,"SoundDuration":258620,"Delta":525715715},{"NoteNumber":56,"Velocity":36,"Duration":258620,"SoundDuration":258620,"Delta":525715715},{"NoteNumber":74,"Velocity":50,"Duration":258620,"SoundDuration":258620,"Delta":525974335},{"NoteNumber":64,"Velocity":28,"Duration":258620,"SoundDuration":258620,"Delta":525974335},{"NoteNumber":73,"Velocity":50,"Duration":258620,"SoundDuration":258620,"Delta":526232956},{"NoteNumber":52,"Velocity":30,"Duration":258620,"SoundDuration":258620,"Delta":526232956},{"NoteNumber":71,"Velocity":50,"Duration":264150,"SoundDuration":264150,"Delta":526491577},{"NoteNumber":64,"Velocity":28,"Duration":283018,"SoundDuration":283018,"Delta":526491577},{"NoteNumber":71,"Velocity":57,"Duration":526315,"SoundDuration":526315,"Delta":526774596},{"NoteNumber":54,"Velocity":38,"Duration":263157,"SoundDuration":263157,"Delta":526774596},{"NoteNumber":64,"Velocity":28,"Duration":263157,"SoundDuration":263157,"Delta":527037754},{"NoteNumber":69,"Velocity":53,"Duration":500000,"SoundDuration":500000,"Delta":527300912},{"NoteNumber":63,"Velocity":30,"Duration":250000,"SoundDuration":250000,"Delta":527300912},{"NoteNumber":64,"Velocity":26,"Duration":250000,"SoundDuration":250000,"Delta":527550912},{"NoteNumber":54,"Velocity":40,"Duration":972363,"SoundDuration":972363,"Delta":527800912},{"NoteNumber":69,"Velocity":53,"Duration":238095,"SoundDuration":238095,"Delta":528039007},{"NoteNumber":68,"Velocity":56,"Duration":254237,"SoundDuration":254237,"Delta":528277102},{"NoteNumber":69,"Velocity":53,"Duration":241935,"SoundDuration":241935,"Delta":528531339},{"NoteNumber":71,"Velocity":58,"Duration":245901,"SoundDuration":245901,"Delta":528773275},{"NoteNumber":69,"Velocity":55,"Duration":245901,"SoundDuration":245901,"Delta":529019177},{"NoteNumber":74,"Velocity":62,"Duration":258620,"SoundDuration":258620,"Delta":529265078},{"NoteNumber":73,"Velocity":58,"Duration":258620,"SoundDuration":258620,"Delta":529523699},{"NoteNumber":70,"Velocity":63,"Duration":522094,"SoundDuration":522094,"Delta":529782320},{"NoteNumber":56,"Velocity":43,"Duration":267857,"SoundDuration":267857,"Delta":529782320},{"NoteNumber":64,"Velocity":34,"Duration":254237,"SoundDuration":254237,"Delta":530050177},{"NoteNumber":71,"Velocity":58,"Duration":508474,"SoundDuration":508474,"Delta":530304414},{"NoteNumber":63,"Velocity":34,"Duration":254237,"SoundDuration":254237,"Delta":530304414},{"NoteNumber":64,"Velocity":34,"Duration":254237,"SoundDuration":254237,"Delta":530558652},{"NoteNumber":56,"Velocity":47,"Duration":960553,"SoundDuration":960553,"Delta":530812889},{"NoteNumber":71,"Velocity":49,"Duration":245901,"SoundDuration":245901,"Delta":531058791},{"NoteNumber":70,"Velocity":53,"Duration":234375,"SoundDuration":234375,"Delta":531304692},{"NoteNumber":71,"Velocity":49,"Duration":234375,"SoundDuration":234375,"Delta":531539067},{"NoteNumber":73,"Velocity":53,"Duration":250000,"SoundDuration":250000,"Delta":531773442},{"NoteNumber":71,"Velocity":49,"Duration":250000,"SoundDuration":250000,"Delta":532023442},{"NoteNumber":76,"Velocity":53,"Duration":258620,"SoundDuration":258620,"Delta":532273442},{"NoteNumber":74,"Velocity":49,"Duration":258620,"SoundDuration":258620,"Delta":532532063},{"NoteNumber":74,"Velocity":53,"Duration":234411,"SoundDuration":234411,"Delta":532790684},{"NoteNumber":64,"Velocity":47,"Duration":960707,"SoundDuration":960707,"Delta":532790684},{"NoteNumber":57,"Velocity":39,"Duration":960707,"SoundDuration":960707,"Delta":532790684},{"NoteNumber":73,"Velocity":45,"Duration":234411,"SoundDuration":234411,"Delta":533025096},{"NoteNumber":72,"Velocity":49,"Duration":245942,"SoundDuration":245942,"Delta":533259507},{"NoteNumber":73,"Velocity":46,"Duration":245942,"SoundDuration":245942,"Delta":533505449},{"NoteNumber":74,"Velocity":55,"Duration":234411,"SoundDuration":234411,"Delta":533751391},{"NoteNumber":54,"Velocity":40,"Duration":986064,"SoundDuration":986064,"Delta":533751391},{"NoteNumber":57,"Velocity":48,"Duration":986064,"SoundDuration":986064,"Delta":533751391},{"NoteNumber":73,"Velocity":46,"Duration":234411,"SoundDuration":234411,"Delta":533985803},{"NoteNumber":72,"Velocity":50,"Duration":258620,"SoundDuration":258620,"Delta":534220215},{"NoteNumber":73,"Velocity":47,"Duration":258620,"SoundDuration":258620,"Delta":534478836},{"NoteNumber":76,"Velocity":59,"Duration":230769,"SoundDuration":230769,"Delta":534737456},{"NoteNumber":50,"Velocity":43,"Duration":937728,"SoundDuration":937728,"Delta":534737456},{"NoteNumber":59,"Velocity":51,"Duration":937728,"SoundDuration":937728,"Delta":534737456},{"NoteNumber":74,"Velocity":51,"Duration":230769,"SoundDuration":230769,"Delta":534968226},{"NoteNumber":73,"Velocity":53,"Duration":238095,"SoundDuration":238095,"Delta":535198995},{"NoteNumber":74,"Velocity":51,"Duration":238095,"SoundDuration":238095,"Delta":535437090},{"NoteNumber":73,"Velocity":62,"Duration":234375,"SoundDuration":234375,"Delta":535675185},{"NoteNumber":56,"Velocity":52,"Duration":944940,"SoundDuration":944940,"Delta":535675185},{"NoteNumber":52,"Velocity":44,"Duration":944940,"SoundDuration":944940,"Delta":535675185},{"NoteNumber":71,"Velocity":52,"Duration":234375,"SoundDuration":234375,"Delta":535909560},{"NoteNumber":70,"Velocity":53,"Duration":238095,"SoundDuration":238095,"Delta":536143935},{"NoteNumber":71,"Velocity":49,"Duration":238095,"SoundDuration":238095,"Delta":536382031},{"NoteNumber":69,"Velocity":63,"Duration":238095,"SoundDuration":238095,"Delta":536620126},{"NoteNumber":68,"Velocity":50,"Duration":238095,"SoundDuration":238095,"Delta":536858221},{"NoteNumber":67,"Velocity":54,"Duration":238095,"SoundDuration":238095,"Delta":537096316},{"NoteNumber":68,"Velocity":51,"Duration":248874,"SoundDuration":248874,"Delta":537334412},{"NoteNumber":66,"Velocity":64,"Duration":237001,"SoundDuration":237001,"Delta":537583286},{"NoteNumber":64,"Velocity":54,"Duration":246080,"SoundDuration":246080,"Delta":537820288},{"NoteNumber":63,"Velocity":56,"Duration":255942,"SoundDuration":255942,"Delta":538066368},{"NoteNumber":64,"Velocity":54,"Duration":272493,"SoundDuration":272493,"Delta":538322310},{"NoteNumber":73,"Velocity":71,"Duration":545454,"SoundDuration":545454,"Delta":538594803},{"NoteNumber":69,"Velocity":71,"Duration":545454,"SoundDuration":545454,"Delta":538594803},{"NoteNumber":45,"Velocity":64,"Duration":272727,"SoundDuration":272727,"Delta":538594803},{"NoteNumber":57,"Velocity":48,"Duration":204545,"SoundDuration":204545,"Delta":538867531},{"NoteNumber":69,"Velocity":65,"Duration":1018119,"SoundDuration":1018119,"Delta":539140258},{"NoteNumber":73,"Velocity":65,"Duration":1018119,"SoundDuration":1018119,"Delta":539140258},{"NoteNumber":57,"Velocity":51,"Duration":197368,"SoundDuration":197368,"Delta":539140258},{"NoteNumber":57,"Velocity":49,"Duration":197368,"SoundDuration":197368,"Delta":539403416},{"NoteNumber":57,"Velocity":50,"Duration":184426,"SoundDuration":184426,"Delta":539666574},{"NoteNumber":57,"Velocity":35,"Duration":184426,"SoundDuration":184426,"Delta":539912476},{"NoteNumber":73,"Velocity":50,"Duration":526315,"SoundDuration":526315,"Delta":540158377},{"NoteNumber":70,"Velocity":50,"Duration":526315,"SoundDuration":526315,"Delta":540158377},{"NoteNumber":57,"Velocity":38,"Duration":197368,"SoundDuration":197368,"Delta":540158377},{"NoteNumber":57,"Velocity":37,"Duration":197368,"SoundDuration":197368,"Delta":540421535},{"NoteNumber":74,"Velocity":50,"Duration":483871,"SoundDuration":483871,"Delta":540684693},{"NoteNumber":71,"Velocity":50,"Duration":483871,"SoundDuration":483871,"Delta":540684693},{"NoteNumber":57,"Velocity":42,"Duration":181451,"SoundDuration":181451,"Delta":540684693},{"NoteNumber":57,"Velocity":37,"Duration":181451,"SoundDuration":181451,"Delta":540926629},{"NoteNumber":72,"Velocity":50,"Duration":486339,"SoundDuration":486339,"Delta":541168564},{"NoteNumber":75,"Velocity":50,"Duration":486339,"SoundDuration":486339,"Delta":541168564},{"NoteNumber":57,"Velocity":40,"Duration":181451,"SoundDuration":181451,"Delta":541168564},{"NoteNumber":57,"Velocity":37,"Duration":181451,"SoundDuration":181451,"Delta":541410500},{"NoteNumber":73,"Velocity":53,"Duration":245901,"SoundDuration":245901,"Delta":541654904},{"NoteNumber":76,"Velocity":53,"Duration":245901,"SoundDuration":245901,"Delta":541654904},{"NoteNumber":57,"Velocity":47,"Duration":985589,"SoundDuration":985589,"Delta":541654904},{"NoteNumber":69,"Velocity":49,"Duration":129098,"SoundDuration":129098,"Delta":541900806},{"NoteNumber":71,"Velocity":50,"Duration":129098,"SoundDuration":129098,"Delta":542146707},{"NoteNumber":73,"Velocity":51,"Duration":129098,"SoundDuration":129098,"Delta":542392609},{"NoteNumber":74,"Velocity":52,"Duration":127016,"SoundDuration":127016,"Delta":542640493},{"NoteNumber":76,"Velocity":53,"Duration":127016,"SoundDuration":127016,"Delta":542882429},{"NoteNumber":78,"Velocity":54,"Duration":127016,"SoundDuration":127016,"Delta":543124364},{"NoteNumber":80,"Velocity":55,"Duration":127016,"SoundDuration":127016,"Delta":543366300},{"NoteNumber":81,"Velocity":56,"Duration":250000,"SoundDuration":250000,"Delta":543618367},{"NoteNumber":83,"Velocity":57,"Duration":250000,"SoundDuration":250000,"Delta":543868367},{"NoteNumber":85,"Velocity":58,"Duration":297088,"SoundDuration":297088,"Delta":544118367},{"NoteNumber":69,"Velocity":71,"Duration":275633,"SoundDuration":275633,"Delta":544712544},{"NoteNumber":73,"Velocity":71,"Duration":275633,"SoundDuration":275633,"Delta":544712544},{"NoteNumber":40,"Velocity":64,"Duration":275633,"SoundDuration":275633,"Delta":544712544},{"NoteNumber":71,"Velocity":63,"Duration":248070,"SoundDuration":248070,"Delta":544988178},{"NoteNumber":68,"Velocity":62,"Duration":248070,"SoundDuration":248070,"Delta":544988178},{"NoteNumber":52,"Velocity":46,"Duration":206725,"SoundDuration":206725,"Delta":544988178},{"NoteNumber":68,"Velocity":65,"Duration":1018119,"SoundDuration":1018119,"Delta":545263812},{"NoteNumber":71,"Velocity":65,"Duration":1018119,"SoundDuration":1018119,"Delta":545263812},{"NoteNumber":52,"Velocity":51,"Duration":197368,"SoundDuration":197368,"Delta":545263812},{"NoteNumber":52,"Velocity":47,"Duration":197368,"SoundDuration":197368,"Delta":545526970},{"NoteNumber":52,"Velocity":50,"Duration":184426,"SoundDuration":184426,"Delta":545790128},{"NoteNumber":52,"Velocity":36,"Duration":184426,"SoundDuration":184426,"Delta":546036030},{"NoteNumber":71,"Velocity":50,"Duration":526315,"SoundDuration":526315,"Delta":546281932},{"NoteNumber":68,"Velocity":50,"Duration":526315,"SoundDuration":526315,"Delta":546281932},{"NoteNumber":52,"Velocity":40,"Duration":197368,"SoundDuration":197368,"Delta":546281932},{"NoteNumber":52,"Velocity":36,"Duration":197368,"SoundDuration":197368,"Delta":546545090},{"NoteNumber":69,"Velocity":50,"Duration":491803,"SoundDuration":491803,"Delta":546808248},{"NoteNumber":72,"Velocity":50,"Duration":491803,"SoundDuration":491803,"Delta":546808248},{"NoteNumber":52,"Velocity":42,"Duration":184426,"SoundDuration":184426,"Delta":546808248},{"NoteNumber":52,"Velocity":35,"Duration":184426,"SoundDuration":184426,"Delta":547054149},{"NoteNumber":73,"Velocity":50,"Duration":508474,"SoundDuration":508474,"Delta":547300051},{"NoteNumber":70,"Velocity":50,"Duration":508474,"SoundDuration":508474,"Delta":547300051},{"NoteNumber":52,"Velocity":38,"Duration":190677,"SoundDuration":190677,"Delta":547300051},{"NoteNumber":52,"Velocity":38,"Duration":190677,"SoundDuration":190677,"Delta":547554288},{"NoteNumber":71,"Velocity":53,"Duration":254237,"SoundDuration":254237,"Delta":547808526},{"NoteNumber":74,"Velocity":53,"Duration":254237,"SoundDuration":254237,"Delta":547808526},{"NoteNumber":52,"Velocity":47,"Duration":1013420,"SoundDuration":1013420,"Delta":547808526},{"NoteNumber":71,"Velocity":49,"Duration":133474,"SoundDuration":133474,"Delta":548062763},{"NoteNumber":73,"Velocity":50,"Duration":131250,"SoundDuration":131250,"Delta":548321946},{"NoteNumber":74,"Velocity":51,"Duration":131250,"SoundDuration":131250,"Delta":548571946},{"NoteNumber":76,"Velocity":52,"Duration":129098,"SoundDuration":129098,"Delta":548821946},{"NoteNumber":78,"Velocity":53,"Duration":129098,"SoundDuration":129098,"Delta":549067848},{"NoteNumber":80,"Velocity":54,"Duration":129098,"SoundDuration":129098,"Delta":549313749},{"NoteNumber":81,"Velocity":55,"Duration":129098,"SoundDuration":129098,"Delta":549559651},{"NoteNumber":83,"Velocity":56,"Duration":250000,"SoundDuration":250000,"Delta":549805553},{"NoteNumber":85,"Velocity":57,"Duration":250000,"SoundDuration":250000,"Delta":550055553},{"NoteNumber":86,"Velocity":58,"Duration":283018,"SoundDuration":283018,"Delta":550305553},{"NoteNumber":71,"Velocity":57,"Duration":250000,"SoundDuration":250000,"Delta":550871590},{"NoteNumber":69,"Velocity":53,"Duration":225000,"SoundDuration":225000,"Delta":551121590},{"NoteNumber":69,"Velocity":53,"Duration":758474,"SoundDuration":758474,"Delta":551371590},{"NoteNumber":64,"Velocity":40,"Duration":1008620,"SoundDuration":1008620,"Delta":551880065},{"NoteNumber":54,"Velocity":40,"Duration":1008620,"SoundDuration":1008620,"Delta":551880065},{"NoteNumber":69,"Velocity":53,"Duration":250000,"SoundDuration":250000,"Delta":552130065},{"NoteNumber":74,"Velocity":56,"Duration":258620,"SoundDuration":258620,"Delta":552380065},{"NoteNumber":73,"Velocity":53,"Duration":250000,"SoundDuration":250000,"Delta":552638686},{"NoteNumber":70,"Velocity":55,"Duration":245901,"SoundDuration":245901,"Delta":552888686},{"NoteNumber":56,"Velocity":40,"Duration":1009044,"SoundDuration":1009044,"Delta":552888686},{"NoteNumber":64,"Velocity":40,"Duration":1009044,"SoundDuration":1009044,"Delta":552888686},{"NoteNumber":71,"Velocity":52,"Duration":245901,"SoundDuration":245901,"Delta":553134587},{"NoteNumber":76,"Velocity":52,"Duration":258620,"SoundDuration":258620,"Delta":553380489},{"NoteNumber":74,"Velocity":53,"Duration":258620,"SoundDuration":258620,"Delta":553639110},{"NoteNumber":72,"Velocity":58,"Duration":245901,"SoundDuration":245901,"Delta":553897731},{"NoteNumber":57,"Velocity":40,"Duration":1009044,"SoundDuration":1009044,"Delta":553897731},{"NoteNumber":64,"Velocity":40,"Duration":1009044,"SoundDuration":1009044,"Delta":553897731},{"NoteNumber":73,"Velocity":53,"Duration":245901,"SoundDuration":245901,"Delta":554143632},{"NoteNumber":81,"Velocity":54,"Duration":193965,"SoundDuration":193965,"Delta":554389534},{"NoteNumber":81,"Velocity":55,"Duration":193965,"SoundDuration":193965,"Delta":554648155},{"NoteNumber":81,"Velocity":57,"Duration":193965,"SoundDuration":193965,"Delta":554906776},{"NoteNumber":81,"Velocity":55,"Duration":193965,"SoundDuration":193965,"Delta":555165396},{"NoteNumber":81,"Velocity":55,"Duration":200892,"SoundDuration":200892,"Delta":555424017},{"NoteNumber":81,"Velocity":55,"Duration":212264,"SoundDuration":212264,"Delta":555691874},{"NoteNumber":81,"Velocity":58,"Duration":267857,"SoundDuration":267857,"Delta":555974893},{"NoteNumber":59,"Velocity":47,"Duration":1071428,"SoundDuration":1071428,"Delta":555974893},{"NoteNumber":50,"Velocity":39,"Duration":1071428,"SoundDuration":1071428,"Delta":555974893},{"NoteNumber":54,"Velocity":39,"Duration":1071428,"SoundDuration":1071428,"Delta":555974893},{"NoteNumber":78,"Velocity":52,"Duration":267857,"SoundDuration":267857,"Delta":556242750},{"NoteNumber":74,"Velocity":54,"Duration":267857,"SoundDuration":267857,"Delta":556510608},{"NoteNumber":71,"Velocity":52,"Duration":267857,"SoundDuration":267857,"Delta":556778465},{"NoteNumber":76,"Velocity":59,"Duration":288461,"SoundDuration":288461,"Delta":557046322},{"NoteNumber":52,"Velocity":39,"Duration":3654092,"SoundDuration":3654092,"Delta":557046322},{"NoteNumber":57,"Velocity":39,"Duration":2320998,"SoundDuration":2320998,"Delta":557046322},{"NoteNumber":61,"Velocity":47,"Duration":2320998,"SoundDuration":2320998,"Delta":557046322},{"NoteNumber":78,"Velocity":54,"Duration":96153,"SoundDuration":96153,"Delta":557334784},{"NoteNumber":76,"Velocity":54,"Duration":96153,"SoundDuration":96153,"Delta":557430937},{"NoteNumber":75,"Velocity":54,"Duration":96153,"SoundDuration":96153,"Delta":557527091},{"NoteNumber":76,"Velocity":59,"Duration":288461,"SoundDuration":288461,"Delta":557623245},{"NoteNumber":78,"Velocity":56,"Duration":297088,"SoundDuration":297088,"Delta":557911707},{"NoteNumber":69,"Velocity":58,"Duration":1776954,"SoundDuration":1776954,"Delta":558208795},{"NoteNumber":62,"Velocity":40,"Duration":1333094,"SoundDuration":1333094,"Delta":559367320},{"NoteNumber":59,"Velocity":30,"Duration":1333094,"SoundDuration":1333094,"Delta":559367320},{"NoteNumber":68,"Velocity":53,"Duration":714665,"SoundDuration":714665,"Delta":559985749},{"NoteNumber":73,"Velocity":53,"Duration":326868,"SoundDuration":326868,"Delta":559985749},{"NoteNumber":71,"Velocity":50,"Duration":387797,"SoundDuration":387797,"Delta":560312618},{"NoteNumber":64,"Velocity":45,"Duration":2779918,"SoundDuration":2779918,"Delta":560700415},{"NoteNumber":71,"Velocity":53,"Duration":1476014,"SoundDuration":1476014,"Delta":560700415},{"NoteNumber":68,"Velocity":45,"Duration":1476014,"SoundDuration":1476014,"Delta":560700415},{"NoteNumber":57,"Velocity":28,"Duration":2779918,"SoundDuration":2779918,"Delta":560700415},{"NoteNumber":62,"Velocity":34,"Duration":1476014,"SoundDuration":1476014,"Delta":560700415},{"NoteNumber":69,"Velocity":44,"Duration":652173,"SoundDuration":652173,"Delta":562176430},{"NoteNumber":61,"Velocity":30,"Duration":1303903,"SoundDuration":1303903,"Delta":562176430},{"NoteNumber":64,"Velocity":43,"Duration":162598,"SoundDuration":162598,"Delta":563317734},{"NoteNumber":66,"Velocity":46,"Duration":136363,"SoundDuration":136363,"Delta":563480333},{"NoteNumber":69,"Velocity":42,"Duration":134577,"SoundDuration":134577,"Delta":563616697},{"NoteNumber":68,"Velocity":46,"Duration":132871,"SoundDuration":132871,"Delta":563751275},{"NoteNumber":71,"Velocity":44,"Duration":130444,"SoundDuration":130444,"Delta":563884146},{"NoteNumber":69,"Velocity":44,"Duration":129310,"SoundDuration":129310,"Delta":564014591},{"NoteNumber":73,"Velocity":40,"Duration":130633,"SoundDuration":130633,"Delta":564143901},{"NoteNumber":71,"Velocity":44,"Duration":135273,"SoundDuration":135273,"Delta":564274535},{"NoteNumber":74,"Velocity":41,"Duration":159574,"SoundDuration":159574,"Delta":564409808},{"NoteNumber":73,"Velocity":50,"Duration":1129944,"SoundDuration":1129944,"Delta":564569383},{"NoteNumber":57,"Velocity":43,"Duration":282485,"SoundDuration":282485,"Delta":564569383},{"NoteNumber":64,"Velocity":26,"Duration":282486,"SoundDuration":282486,"Delta":564851869},{"NoteNumber":61,"Velocity":30,"Duration":282485,"SoundDuration":282485,"Delta":565134355},{"NoteNumber":64,"Velocity":25,"Duration":282486,"SoundDuration":282486,"Delta":565416841},{"NoteNumber":73,"Velocity":50,"Duration":1536827,"SoundDuration":1536827,"Delta":565699327},{"NoteNumber":57,"Velocity":42,"Duration":267857,"SoundDuration":267857,"Delta":565699327},{"NoteNumber":64,"Velocity":29,"Duration":267857,"SoundDuration":267857,"Delta":565967184},{"NoteNumber":61,"Velocity":32,"Duration":258620,"SoundDuration":258620,"Delta":566235041},{"NoteNumber":64,"Velocity":29,"Duration":258620,"SoundDuration":258620,"Delta":566493662},{"NoteNumber":57,"Velocity":43,"Duration":241935,"SoundDuration":241935,"Delta":566752283},{"NoteNumber":64,"Velocity":31,"Duration":241935,"SoundDuration":241935,"Delta":566994218},{"NoteNumber":74,"Velocity":53,"Duration":551619,"SoundDuration":551619,"Delta":567236154},{"NoteNumber":59,"Velocity":33,"Duration":263157,"SoundDuration":263157,"Delta":567236154},{"NoteNumber":64,"Velocity":30,"Duration":288461,"SoundDuration":288461,"Delta":567499312},{"NoteNumber":78,"Velocity":56,"Duration":526315,"SoundDuration":526315,"Delta":567787773},{"NoteNumber":61,"Velocity":42,"Duration":263157,"SoundDuration":263157,"Delta":567787773},{"NoteNumber":64,"Velocity":29,"Duration":263157,"SoundDuration":263157,"Delta":568050931},{"NoteNumber":76,"Velocity":50,"Duration":526316,"SoundDuration":526316,"Delta":568314089},{"NoteNumber":57,"Velocity":31,"Duration":263158,"SoundDuration":263158,"Delta":568314089},{"NoteNumber":64,"Velocity":28,"Duration":263157,"SoundDuration":263157,"Delta":568577247},{"NoteNumber":61,"Velocity":36,"Duration":245901,"SoundDuration":245901,"Delta":568840405},{"NoteNumber":64,"Velocity":26,"Duration":245901,"SoundDuration":245901,"Delta":569086307},{"NoteNumber":76,"Velocity":50,"Duration":545454,"SoundDuration":545454,"Delta":569332209},{"NoteNumber":57,"Velocity":29,"Duration":272727,"SoundDuration":272727,"Delta":569332209},{"NoteNumber":64,"Velocity":26,"Duration":272727,"SoundDuration":272727,"Delta":569604936},{"NoteNumber":78,"Velocity":54,"Duration":254237,"SoundDuration":254237,"Delta":569877663},{"NoteNumber":61,"Velocity":36,"Duration":254237,"SoundDuration":254237,"Delta":569877663},{"NoteNumber":76,"Velocity":50,"Duration":254237,"SoundDuration":254237,"Delta":570131901},{"NoteNumber":64,"Velocity":28,"Duration":254237,"SoundDuration":254237,"Delta":570131901},{"NoteNumber":74,"Velocity":50,"Duration":254237,"SoundDuration":254237,"Delta":570386138},{"NoteNumber":57,"Velocity":30,"Duration":254237,"SoundDuration":254237,"Delta":570386138},{"NoteNumber":73,"Velocity":50,"Duration":254716,"SoundDuration":254716,"Delta":570640375},{"NoteNumber":64,"Velocity":26,"Duration":283018,"SoundDuration":283018,"Delta":570640375},{"NoteNumber":73,"Velocity":54,"Duration":535714,"SoundDuration":535714,"Delta":570923394},{"NoteNumber":56,"Velocity":38,"Duration":267857,"SoundDuration":267857,"Delta":570923394},{"NoteNumber":64,"Velocity":22,"Duration":267857,"SoundDuration":267857,"Delta":571191251},{"NoteNumber":71,"Velocity":50,"Duration":508772,"SoundDuration":508772,"Delta":571459108},{"NoteNumber":63,"Velocity":27,"Duration":263157,"SoundDuration":263157,"Delta":571459108},{"NoteNumber":64,"Velocity":23,"Duration":263157,"SoundDuration":263157,"Delta":571722266},{"NoteNumber":71,"Velocity":50,"Duration":1484665,"SoundDuration":1484665,"Delta":571985424},{"NoteNumber":56,"Velocity":36,"Duration":254237,"SoundDuration":254237,"Delta":571985424},{"NoteNumber":64,"Velocity":26,"Duration":254237,"SoundDuration":254237,"Delta":572239662},{"NoteNumber":63,"Velocity":30,"Duration":250000,"SoundDuration":250000,"Delta":572493899},{"NoteNumber":64,"Velocity":29,"Duration":250000,"SoundDuration":250000,"Delta":572743899},{"NoteNumber":56,"Velocity":39,"Duration":238095,"SoundDuration":238095,"Delta":572993899},{"NoteNumber":64,"Velocity":31,"Duration":238095,"SoundDuration":238095,"Delta":573231994},{"NoteNumber":73,"Velocity":54,"Duration":526964,"SoundDuration":526964,"Delta":573470089},{"NoteNumber":57,"Velocity":33,"Duration":254237,"SoundDuration":254237,"Delta":573470089},{"NoteNumber":64,"Velocity":38,"Duration":272727,"SoundDuration":272727,"Delta":573724327},{"NoteNumber":76,"Velocity":57,"Duration":535714,"SoundDuration":535714,"Delta":573997054},{"NoteNumber":58,"Velocity":42,"Duration":267857,"SoundDuration":267857,"Delta":573997054},{"NoteNumber":64,"Velocity":28,"Duration":267857,"SoundDuration":267857,"Delta":574264911},{"NoteNumber":74,"Velocity":53,"Duration":491803,"SoundDuration":491803,"Delta":574532768},{"NoteNumber":63,"Velocity":31,"Duration":245901,"SoundDuration":245901,"Delta":574532768},{"NoteNumber":64,"Velocity":28,"Duration":245901,"SoundDuration":245901,"Delta":574778670},{"NoteNumber":59,"Velocity":36,"Duration":245901,"SoundDuration":245901,"Delta":575024572},{"NoteNumber":64,"Velocity":27,"Duration":245901,"SoundDuration":245901,"Delta":575270474},{"NoteNumber":74,"Velocity":50,"Duration":535714,"SoundDuration":535714,"Delta":575516375},{"NoteNumber":63,"Velocity":29,"Duration":267857,"SoundDuration":267857,"Delta":575516375},{"NoteNumber":64,"Velocity":27,"Duration":267857,"SoundDuration":267857,"Delta":575784233},{"NoteNumber":76,"Velocity":56,"Duration":258620,"SoundDuration":258620,"Delta":576052090},{"NoteNumber":56,"Velocity":36,"Duration":258620,"SoundDuration":258620,"Delta":576052090},{"NoteNumber":74,"Velocity":50,"Duration":258620,"SoundDuration":258620,"Delta":576310711},{"NoteNumber":64,"Velocity":28,"Duration":258620,"SoundDuration":258620,"Delta":576310711},{"NoteNumber":73,"Velocity":50,"Duration":258620,"SoundDuration":258620,"Delta":576569331},{"NoteNumber":52,"Velocity":30,"Duration":258620,"SoundDuration":258620,"Delta":576569331},{"NoteNumber":71,"Velocity":50,"Duration":254716,"SoundDuration":254716,"Delta":576827952},{"NoteNumber":64,"Velocity":28,"Duration":283018,"SoundDuration":283018,"Delta":576827952},{"NoteNumber":71,"Velocity":57,"Duration":526315,"SoundDuration":526315,"Delta":577110971},{"NoteNumber":54,"Velocity":38,"Duration":263157,"SoundDuration":263157,"Delta":577110971},{"NoteNumber":64,"Velocity":29,"Duration":263157,"SoundDuration":263157,"Delta":577374129},{"NoteNumber":69,"Velocity":53,"Duration":500000,"SoundDuration":500000,"Delta":577637287},{"NoteNumber":63,"Velocity":30,"Duration":250000,"SoundDuration":250000,"Delta":577637287},{"NoteNumber":64,"Velocity":28,"Duration":250000,"SoundDuration":250000,"Delta":577887287},{"NoteNumber":54,"Velocity":40,"Duration":972363,"SoundDuration":972363,"Delta":578137287},{"NoteNumber":69,"Velocity":53,"Duration":238095,"SoundDuration":238095,"Delta":578375382},{"NoteNumber":68,"Velocity":56,"Duration":254237,"SoundDuration":254237,"Delta":578613477},{"NoteNumber":69,"Velocity":53,"Duration":241935,"SoundDuration":241935,"Delta":578867715},{"NoteNumber":71,"Velocity":58,"Duration":245901,"SoundDuration":245901,"Delta":579109650},{"NoteNumber":69,"Velocity":55,"Duration":245901,"SoundDuration":245901,"Delta":579355552},{"NoteNumber":74,"Velocity":62,"Duration":258620,"SoundDuration":258620,"Delta":579601454},{"NoteNumber":73,"Velocity":58,"Duration":258620,"SoundDuration":258620,"Delta":579860074},{"NoteNumber":70,"Velocity":63,"Duration":522094,"SoundDuration":522094,"Delta":580118695},{"NoteNumber":56,"Velocity":43,"Duration":267857,"SoundDuration":267857,"Delta":580118695},{"NoteNumber":64,"Velocity":32,"Duration":254237,"SoundDuration":254237,"Delta":580386552},{"NoteNumber":71,"Velocity":58,"Duration":508474,"SoundDuration":508474,"Delta":580640790},{"NoteNumber":63,"Velocity":34,"Duration":254237,"SoundDuration":254237,"Delta":580640790},{"NoteNumber":64,"Velocity":30,"Duration":254237,"SoundDuration":254237,"Delta":580895027},{"NoteNumber":56,"Velocity":47,"Duration":960553,"SoundDuration":960553,"Delta":581149264},{"NoteNumber":71,"Velocity":49,"Duration":245901,"SoundDuration":245901,"Delta":581395166},{"NoteNumber":70,"Velocity":53,"Duration":234375,"SoundDuration":234375,"Delta":581641068},{"NoteNumber":71,"Velocity":49,"Duration":234375,"SoundDuration":234375,"Delta":581875443},{"NoteNumber":73,"Velocity":53,"Duration":250000,"SoundDuration":250000,"Delta":582109818},{"NoteNumber":71,"Velocity":49,"Duration":250000,"SoundDuration":250000,"Delta":582359818},{"NoteNumber":76,"Velocity":53,"Duration":258620,"SoundDuration":258620,"Delta":582609818},{"NoteNumber":74,"Velocity":49,"Duration":232758,"SoundDuration":232758,"Delta":582868438},{"NoteNumber":74,"Velocity":53,"Duration":238095,"SoundDuration":238095,"Delta":583127059},{"NoteNumber":57,"Velocity":35,"Duration":976190,"SoundDuration":976190,"Delta":583127059},{"NoteNumber":64,"Velocity":42,"Duration":976190,"SoundDuration":976190,"Delta":583127059},{"NoteNumber":73,"Velocity":49,"Duration":238095,"SoundDuration":238095,"Delta":583365154},{"NoteNumber":72,"Velocity":49,"Duration":250000,"SoundDuration":250000,"Delta":583603250},{"NoteNumber":73,"Velocity":49,"Duration":250000,"SoundDuration":250000,"Delta":583853250},{"NoteNumber":74,"Velocity":55,"Duration":234375,"SoundDuration":234375,"Delta":584103250},{"NoteNumber":57,"Velocity":43,"Duration":985991,"SoundDuration":985991,"Delta":584103250},{"NoteNumber":54,"Velocity":36,"Duration":985991,"SoundDuration":985991,"Delta":584103250},{"NoteNumber":73,"Velocity":50,"Duration":234375,"SoundDuration":234375,"Delta":584337625},{"NoteNumber":72,"Velocity":50,"Duration":258620,"SoundDuration":258620,"Delta":584572000},{"NoteNumber":73,"Velocity":50,"Duration":258620,"SoundDuration":258620,"Delta":584830620},{"NoteNumber":76,"Velocity":59,"Duration":234375,"SoundDuration":234375,"Delta":585089241},{"NoteNumber":59,"Velocity":45,"Duration":952621,"SoundDuration":952621,"Delta":585089241},{"NoteNumber":50,"Velocity":38,"Duration":952621,"SoundDuration":952621,"Delta":585089241},{"NoteNumber":74,"Velocity":53,"Duration":234375,"SoundDuration":234375,"Delta":585323616},{"NoteNumber":73,"Velocity":53,"Duration":241935,"SoundDuration":241935,"Delta":585557991},{"NoteNumber":74,"Velocity":53,"Duration":241935,"SoundDuration":241935,"Delta":585799927},{"NoteNumber":73,"Velocity":62,"Duration":234375,"SoundDuration":234375,"Delta":586041862},{"NoteNumber":52,"Velocity":39,"Duration":952621,"SoundDuration":952621,"Delta":586041862},{"NoteNumber":56,"Velocity":46,"Duration":952621,"SoundDuration":952621,"Delta":586041862},{"NoteNumber":71,"Velocity":53,"Duration":234375,"SoundDuration":234375,"Delta":586276237},{"NoteNumber":70,"Velocity":53,"Duration":241935,"SoundDuration":241935,"Delta":586510612},{"NoteNumber":71,"Velocity":53,"Duration":241935,"SoundDuration":241935,"Delta":586752548},{"NoteNumber":69,"Velocity":63,"Duration":238095,"SoundDuration":238095,"Delta":586994483},{"NoteNumber":68,"Velocity":54,"Duration":238095,"SoundDuration":238095,"Delta":587232578},{"NoteNumber":67,"Velocity":54,"Duration":238095,"SoundDuration":238095,"Delta":587470674},{"NoteNumber":68,"Velocity":54,"Duration":248874,"SoundDuration":248874,"Delta":587708769},{"NoteNumber":66,"Velocity":64,"Duration":237001,"SoundDuration":237001,"Delta":587957644},{"NoteNumber":64,"Velocity":56,"Duration":246080,"SoundDuration":246080,"Delta":588194645},{"NoteNumber":63,"Velocity":56,"Duration":255942,"SoundDuration":255942,"Delta":588440725},{"NoteNumber":64,"Velocity":56,"Duration":272493,"SoundDuration":272493,"Delta":588696667},{"NoteNumber":73,"Velocity":71,"Duration":545454,"SoundDuration":545454,"Delta":588969160},{"NoteNumber":69,"Velocity":71,"Duration":545454,"SoundDuration":545454,"Delta":588969160},{"NoteNumber":45,"Velocity":64,"Duration":272727,"SoundDuration":272727,"Delta":588969160},{"NoteNumber":57,"Velocity":47,"Duration":204545,"SoundDuration":204545,"Delta":589241888},{"NoteNumber":73,"Velocity":65,"Duration":1018119,"SoundDuration":1018119,"Delta":589514615},{"NoteNumber":69,"Velocity":65,"Duration":1018119,"SoundDuration":1018119,"Delta":589514615},{"NoteNumber":57,"Velocity":51,"Duration":197368,"SoundDuration":197368,"Delta":589514615},{"NoteNumber":57,"Velocity":46,"Duration":197368,"SoundDuration":197368,"Delta":589777773},{"NoteNumber":57,"Velocity":50,"Duration":184426,"SoundDuration":184426,"Delta":590040931},{"NoteNumber":57,"Velocity":32,"Duration":184426,"SoundDuration":184426,"Delta":590286833},{"NoteNumber":70,"Velocity":50,"Duration":526315,"SoundDuration":526315,"Delta":590532734},{"NoteNumber":73,"Velocity":50,"Duration":526315,"SoundDuration":526315,"Delta":590532734},{"NoteNumber":57,"Velocity":37,"Duration":197368,"SoundDuration":197368,"Delta":590532734},{"NoteNumber":57,"Velocity":33,"Duration":197368,"SoundDuration":197368,"Delta":590795892},{"NoteNumber":71,"Velocity":50,"Duration":483871,"SoundDuration":483871,"Delta":591059050},{"NoteNumber":74,"Velocity":50,"Duration":483871,"SoundDuration":483871,"Delta":591059050},{"NoteNumber":57,"Velocity":42,"Duration":181451,"SoundDuration":181451,"Delta":591059050},{"NoteNumber":57,"Velocity":35,"Duration":181451,"SoundDuration":181451,"Delta":591300986},{"NoteNumber":72,"Velocity":50,"Duration":486339,"SoundDuration":486339,"Delta":591542921},{"NoteNumber":75,"Velocity":50,"Duration":486339,"SoundDuration":486339,"Delta":591542921},{"NoteNumber":57,"Velocity":39,"Duration":181451,"SoundDuration":181451,"Delta":591542921},{"NoteNumber":57,"Velocity":34,"Duration":181451,"SoundDuration":181451,"Delta":591784857},{"NoteNumber":73,"Velocity":53,"Duration":245901,"SoundDuration":245901,"Delta":592029261},{"NoteNumber":76,"Velocity":53,"Duration":245901,"SoundDuration":245901,"Delta":592029261},{"NoteNumber":57,"Velocity":47,"Duration":985589,"SoundDuration":985589,"Delta":592029261},{"NoteNumber":69,"Velocity":49,"Duration":129098,"SoundDuration":129098,"Delta":592275163},{"NoteNumber":71,"Velocity":50,"Duration":129098,"SoundDuration":129098,"Delta":592521065},{"NoteNumber":73,"Velocity":51,"Duration":129098,"SoundDuration":129098,"Delta":592766966},{"NoteNumber":74,"Velocity":52,"Duration":127016,"SoundDuration":127016,"Delta":593014850},{"NoteNumber":76,"Velocity":53,"Duration":127016,"SoundDuration":127016,"Delta":593256786},{"NoteNumber":78,"Velocity":54,"Duration":127016,"SoundDuration":127016,"Delta":593498721},{"NoteNumber":80,"Velocity":55,"Duration":127016,"SoundDuration":127016,"Delta":593740657},{"NoteNumber":81,"Velocity":56,"Duration":250000,"SoundDuration":250000,"Delta":593992724},{"NoteNumber":83,"Velocity":57,"Duration":250000,"SoundDuration":250000,"Delta":594242724},{"NoteNumber":85,"Velocity":58,"Duration":297088,"SoundDuration":297088,"Delta":594492724},{"NoteNumber":73,"Velocity":71,"Duration":275633,"SoundDuration":275633,"Delta":595086901},{"NoteNumber":69,"Velocity":71,"Duration":275633,"SoundDuration":275633,"Delta":595086901},{"NoteNumber":40,"Velocity":64,"Duration":275633,"SoundDuration":275633,"Delta":595086901},{"NoteNumber":68,"Velocity":62,"Duration":248070,"SoundDuration":248070,"Delta":595362535},{"NoteNumber":71,"Velocity":63,"Duration":248070,"SoundDuration":248070,"Delta":595362535},{"NoteNumber":52,"Velocity":46,"Duration":206725,"SoundDuration":206725,"Delta":595362535},{"NoteNumber":71,"Velocity":65,"Duration":1018119,"SoundDuration":1018119,"Delta":595638169},{"NoteNumber":68,"Velocity":65,"Duration":1018119,"SoundDuration":1018119,"Delta":595638169},{"NoteNumber":52,"Velocity":51,"Duration":197368,"SoundDuration":197368,"Delta":595638169},{"NoteNumber":52,"Velocity":46,"Duration":197368,"SoundDuration":197368,"Delta":595901327},{"NoteNumber":52,"Velocity":50,"Duration":184426,"SoundDuration":184426,"Delta":596164485},{"NoteNumber":52,"Velocity":34,"Duration":184426,"SoundDuration":184426,"Delta":596410387},{"NoteNumber":71,"Velocity":50,"Duration":526315,"SoundDuration":526315,"Delta":596656289},{"NoteNumber":68,"Velocity":50,"Duration":526315,"SoundDuration":526315,"Delta":596656289},{"NoteNumber":52,"Velocity":38,"Duration":197368,"SoundDuration":197368,"Delta":596656289},{"NoteNumber":52,"Velocity":34,"Duration":197368,"SoundDuration":197368,"Delta":596919447},{"NoteNumber":72,"Velocity":50,"Duration":491803,"SoundDuration":491803,"Delta":597182605},{"NoteNumber":69,"Velocity":50,"Duration":491803,"SoundDuration":491803,"Delta":597182605},{"NoteNumber":52,"Velocity":42,"Duration":184426,"SoundDuration":184426,"Delta":597182605},{"NoteNumber":52,"Velocity":34,"Duration":184426,"SoundDuration":184426,"Delta":597428506},{"NoteNumber":70,"Velocity":50,"Duration":508474,"SoundDuration":508474,"Delta":597674408},{"NoteNumber":73,"Velocity":50,"Duration":508474,"SoundDuration":508474,"Delta":597674408},{"NoteNumber":52,"Velocity":38,"Duration":190677,"SoundDuration":190677,"Delta":597674408},{"NoteNumber":52,"Velocity":35,"Duration":190677,"SoundDuration":190677,"Delta":597928645},{"NoteNumber":71,"Velocity":53,"Duration":254237,"SoundDuration":254237,"Delta":598182883},{"NoteNumber":74,"Velocity":53,"Duration":254237,"SoundDuration":254237,"Delta":598182883},{"NoteNumber":52,"Velocity":47,"Duration":1013420,"SoundDuration":1013420,"Delta":598182883},{"NoteNumber":71,"Velocity":49,"Duration":133474,"SoundDuration":133474,"Delta":598437120},{"NoteNumber":73,"Velocity":50,"Duration":131250,"SoundDuration":131250,"Delta":598696303},{"NoteNumber":74,"Velocity":51,"Duration":131250,"SoundDuration":131250,"Delta":598946303},{"NoteNumber":76,"Velocity":52,"Duration":129098,"SoundDuration":129098,"Delta":599196303},{"NoteNumber":78,"Velocity":53,"Duration":129098,"SoundDuration":129098,"Delta":599442205},{"NoteNumber":80,"Velocity":54,"Duration":129098,"SoundDuration":129098,"Delta":599688106},{"NoteNumber":81,"Velocity":55,"Duration":129098,"SoundDuration":129098,"Delta":599934008},{"NoteNumber":83,"Velocity":56,"Duration":250000,"SoundDuration":250000,"Delta":600179910},{"NoteNumber":85,"Velocity":57,"Duration":250000,"SoundDuration":250000,"Delta":600429910},{"NoteNumber":86,"Velocity":58,"Duration":283018,"SoundDuration":283018,"Delta":600679910},{"NoteNumber":71,"Velocity":57,"Duration":254237,"SoundDuration":254237,"Delta":601245947},{"NoteNumber":69,"Velocity":53,"Duration":254237,"SoundDuration":254237,"Delta":601500185},{"NoteNumber":69,"Velocity":53,"Duration":758474,"SoundDuration":758474,"Delta":601754422},{"NoteNumber":64,"Velocity":43,"Duration":1008620,"SoundDuration":1008620,"Delta":602262896},{"NoteNumber":54,"Velocity":43,"Duration":1008620,"SoundDuration":1008620,"Delta":602262896},{"NoteNumber":69,"Velocity":53,"Duration":250000,"SoundDuration":250000,"Delta":602512896},{"NoteNumber":74,"Velocity":56,"Duration":258620,"SoundDuration":258620,"Delta":602762896},{"NoteNumber":73,"Velocity":53,"Duration":250000,"SoundDuration":250000,"Delta":603021517},{"NoteNumber":70,"Velocity":55,"Duration":245901,"SoundDuration":245901,"Delta":603271517},{"NoteNumber":64,"Velocity":43,"Duration":1009044,"SoundDuration":1009044,"Delta":603271517},{"NoteNumber":56,"Velocity":43,"Duration":1009044,"SoundDuration":1009044,"Delta":603271517},{"NoteNumber":71,"Velocity":52,"Duration":245901,"SoundDuration":245901,"Delta":603517419},{"NoteNumber":76,"Velocity":52,"Duration":258620,"SoundDuration":258620,"Delta":603763321},{"NoteNumber":74,"Velocity":53,"Duration":258620,"SoundDuration":258620,"Delta":604021941},{"NoteNumber":72,"Velocity":58,"Duration":245901,"SoundDuration":245901,"Delta":604280562},{"NoteNumber":64,"Velocity":43,"Duration":1009044,"SoundDuration":1009044,"Delta":604280562},{"NoteNumber":57,"Velocity":43,"Duration":1009044,"SoundDuration":1009044,"Delta":604280562},{"NoteNumber":73,"Velocity":53,"Duration":245901,"SoundDuration":245901,"Delta":604526464},{"NoteNumber":81,"Velocity":54,"Duration":193965,"SoundDuration":193965,"Delta":604772366},{"NoteNumber":81,"Velocity":55,"Duration":193965,"SoundDuration":193965,"Delta":605030986},{"NoteNumber":81,"Velocity":57,"Duration":193965,"SoundDuration":193965,"Delta":605289607},{"NoteNumber":81,"Velocity":55,"Duration":193965,"SoundDuration":193965,"Delta":605548228},{"NoteNumber":81,"Velocity":55,"Duration":200892,"SoundDuration":200892,"Delta":605806849},{"NoteNumber":81,"Velocity":55,"Duration":212264,"SoundDuration":212264,"Delta":606074706},{"NoteNumber":81,"Velocity":58,"Duration":267857,"SoundDuration":267857,"Delta":606357725},{"NoteNumber":50,"Velocity":39,"Duration":1071428,"SoundDuration":1071428,"Delta":606357725},{"NoteNumber":59,"Velocity":47,"Duration":1071428,"SoundDuration":1071428,"Delta":606357725},{"NoteNumber":54,"Velocity":39,"Duration":1071428,"SoundDuration":1071428,"Delta":606357725},{"NoteNumber":78,"Velocity":56,"Duration":267857,"SoundDuration":267857,"Delta":606625582},{"NoteNumber":74,"Velocity":54,"Duration":267857,"SoundDuration":267857,"Delta":606893439},{"NoteNumber":71,"Velocity":49,"Duration":267857,"SoundDuration":267857,"Delta":607161296},{"NoteNumber":76,"Velocity":59,"Duration":267857,"SoundDuration":267857,"Delta":607429154},{"NoteNumber":52,"Velocity":39,"Duration":3592280,"SoundDuration":3592280,"Delta":607429154},{"NoteNumber":57,"Velocity":39,"Duration":2259185,"SoundDuration":2259185,"Delta":607429154},{"NoteNumber":61,"Velocity":47,"Duration":2259185,"SoundDuration":2259185,"Delta":607429154},{"NoteNumber":78,"Velocity":54,"Duration":89285,"SoundDuration":89285,"Delta":607697011},{"NoteNumber":76,"Velocity":54,"Duration":89285,"SoundDuration":89285,"Delta":607786297},{"NoteNumber":75,"Velocity":54,"Duration":89285,"SoundDuration":89285,"Delta":607875582},{"NoteNumber":76,"Velocity":59,"Duration":267857,"SoundDuration":267857,"Delta":607964868},{"NoteNumber":78,"Velocity":56,"Duration":297088,"SoundDuration":297088,"Delta":608232725},{"NoteNumber":69,"Velocity":58,"Duration":1776954,"SoundDuration":1776954,"Delta":608529814},{"NoteNumber":62,"Velocity":40,"Duration":1333094,"SoundDuration":1333094,"Delta":609688339},{"NoteNumber":59,"Velocity":30,"Duration":1333094,"SoundDuration":1333094,"Delta":609688339},{"NoteNumber":73,"Velocity":53,"Duration":326868,"SoundDuration":326868,"Delta":610306768},{"NoteNumber":68,"Velocity":53,"Duration":714665,"SoundDuration":714665,"Delta":610306768},{"NoteNumber":71,"Velocity":50,"Duration":387797,"SoundDuration":387797,"Delta":610633636},{"NoteNumber":64,"Velocity":45,"Duration":2538646,"SoundDuration":2538646,"Delta":611021434},{"NoteNumber":68,"Velocity":45,"Duration":1395472,"SoundDuration":1395472,"Delta":611021434},{"NoteNumber":71,"Velocity":53,"Duration":1395472,"SoundDuration":1395472,"Delta":611021434},{"NoteNumber":57,"Velocity":28,"Duration":2538646,"SoundDuration":2538646,"Delta":611021434},{"NoteNumber":62,"Velocity":34,"Duration":1395472,"SoundDuration":1395472,"Delta":611021434},{"NoteNumber":69,"Velocity":46,"Duration":283018,"SoundDuration":283018,"Delta":612416906},{"NoteNumber":61,"Velocity":33,"Duration":1143174,"SoundDuration":1143174,"Delta":612416906},{"NoteNumber":71,"Velocity":43,"Duration":94339,"SoundDuration":94339,"Delta":612699925},{"NoteNumber":69,"Velocity":45,"Duration":94339,"SoundDuration":94339,"Delta":612794265},{"NoteNumber":68,"Velocity":46,"Duration":94339,"SoundDuration":94339,"Delta":612888604},{"NoteNumber":69,"Velocity":52,"Duration":283018,"SoundDuration":283018,"Delta":612982944},{"NoteNumber":71,"Velocity":54,"Duration":294117,"SoundDuration":294117,"Delta":613265963},{"NoteNumber":73,"Velocity":55,"Duration":272727,"SoundDuration":272727,"Delta":613560080},{"NoteNumber":74,"Velocity":40,"Duration":92592,"SoundDuration":92592,"Delta":613832808},{"NoteNumber":73,"Velocity":40,"Duration":92592,"SoundDuration":92592,"Delta":613925400},{"NoteNumber":71,"Velocity":40,"Duration":92592,"SoundDuration":92592,"Delta":614017993},{"NoteNumber":73,"Velocity":51,"Duration":319149,"SoundDuration":319149,"Delta":614110585},{"NoteNumber":74,"Velocity":52,"Duration":375000,"SoundDuration":375000,"Delta":614429734},{"NoteNumber":76,"Velocity":57,"Duration":808612,"SoundDuration":808612,"Delta":614804734},{"NoteNumber":57,"Velocity":43,"Duration":272727,"SoundDuration":272727,"Delta":614804734},{"NoteNumber":69,"Velocity":32,"Duration":272727,"SoundDuration":272727,"Delta":615077462},{"NoteNumber":61,"Velocity":37,"Duration":263157,"SoundDuration":263157,"Delta":615350189},{"NoteNumber":78,"Velocity":47,"Duration":131578,"SoundDuration":131578,"Delta":615613347},{"NoteNumber":69,"Velocity":32,"Duration":263157,"SoundDuration":263157,"Delta":615613347},{"NoteNumber":76,"Velocity":47,"Duration":131578,"SoundDuration":131578,"Delta":615744926},{"NoteNumber":74,"Velocity":58,"Duration":517241,"SoundDuration":517241,"Delta":615876505},{"NoteNumber":57,"Velocity":45,"Duration":258620,"SoundDuration":258620,"Delta":615876505},{"NoteNumber":68,"Velocity":34,"Duration":258620,"SoundDuration":258620,"Delta":616135126},{"NoteNumber":73,"Velocity":53,"Duration":535714,"SoundDuration":535714,"Delta":616393746},{"NoteNumber":59,"Velocity":37,"Duration":267857,"SoundDuration":267857,"Delta":616393746},{"NoteNumber":68,"Velocity":34,"Duration":267857,"SoundDuration":267857,"Delta":616661604},{"NoteNumber":71,"Velocity":57,"Duration":535714,"SoundDuration":535714,"Delta":616929461},{"NoteNumber":57,"Velocity":47,"Duration":267857,"SoundDuration":267857,"Delta":616929461},{"NoteNumber":67,"Velocity":36,"Duration":267857,"SoundDuration":267857,"Delta":617197318},{"NoteNumber":69,"Velocity":52,"Duration":573979,"SoundDuration":573979,"Delta":617465175},{"NoteNumber":61,"Velocity":42,"Duration":267857,"SoundDuration":267857,"Delta":617465175},{"NoteNumber":67,"Velocity":38,"Duration":306122,"SoundDuration":306122,"Delta":617733033},{"NoteNumber":69,"Velocity":64,"Duration":803571,"SoundDuration":803571,"Delta":618039155},{"NoteNumber":57,"Velocity":50,"Duration":267857,"SoundDuration":267857,"Delta":618039155},{"NoteNumber":66,"Velocity":43,"Duration":267857,"SoundDuration":267857,"Delta":618307012},{"NoteNumber":62,"Velocity":46,"Duration":267857,"SoundDuration":267857,"Delta":618574870},{"NoteNumber":78,"Velocity":57,"Duration":267857,"SoundDuration":267857,"Delta":618842727},{"NoteNumber":66,"Velocity":43,"Duration":267857,"SoundDuration":267857,"Delta":618842727},{"NoteNumber":78,"Velocity":61,"Duration":1016948,"SoundDuration":1016948,"Delta":619110584},{"NoteNumber":54,"Velocity":54,"Duration":254237,"SoundDuration":254237,"Delta":619110584},{"NoteNumber":62,"Velocity":44,"Duration":254237,"SoundDuration":254237,"Delta":619364821},{"NoteNumber":57,"Velocity":47,"Duration":254237,"SoundDuration":254237,"Delta":619619059},{"NoteNumber":62,"Velocity":44,"Duration":249999,"SoundDuration":249999,"Delta":619873296},{"NoteNumber":62,"Velocity":68,"Duration":1205357,"SoundDuration":1205357,"Delta":620127533},{"NoteNumber":50,"Velocity":51,"Duration":267857,"SoundDuration":267857,"Delta":620127533},{"NoteNumber":57,"Velocity":43,"Duration":267857,"SoundDuration":267857,"Delta":620395390},{"NoteNumber":54,"Velocity":46,"Duration":267857,"SoundDuration":267857,"Delta":620663248},{"NoteNumber":57,"Velocity":43,"Duration":267857,"SoundDuration":267857,"Delta":620931105},{"NoteNumber":45,"Velocity":56,"Duration":267857,"SoundDuration":267857,"Delta":621198962},{"NoteNumber":66,"Velocity":44,"Duration":133928,"SoundDuration":133928,"Delta":621332891},{"NoteNumber":64,"Velocity":45,"Duration":133928,"SoundDuration":133928,"Delta":621466819},{"NoteNumber":54,"Velocity":46,"Duration":267857,"SoundDuration":267857,"Delta":621466819},{"NoteNumber":62,"Velocity":46,"Duration":133928,"SoundDuration":133928,"Delta":621600748},{"NoteNumber":64,"Velocity":47,"Duration":133928,"SoundDuration":133928,"Delta":621734677},{"NoteNumber":50,"Velocity":49,"Duration":267857,"SoundDuration":267857,"Delta":621734677},{"NoteNumber":66,"Velocity":48,"Duration":133928,"SoundDuration":133928,"Delta":621868605},{"NoteNumber":67,"Velocity":49,"Duration":133928,"SoundDuration":133928,"Delta":622002534},{"NoteNumber":54,"Velocity":47,"Duration":277615,"SoundDuration":277615,"Delta":622002534},{"NoteNumber":69,"Velocity":50,"Duration":143686,"SoundDuration":143686,"Delta":622136463},{"NoteNumber":71,"Velocity":51,"Duration":131578,"SoundDuration":131578,"Delta":622280149},{"NoteNumber":45,"Velocity":60,"Duration":263157,"SoundDuration":263157,"Delta":622280149},{"NoteNumber":73,"Velocity":52,"Duration":131578,"SoundDuration":131578,"Delta":622411728},{"NoteNumber":74,"Velocity":53,"Duration":131578,"SoundDuration":131578,"Delta":622543307},{"NoteNumber":54,"Velocity":52,"Duration":263157,"SoundDuration":263157,"Delta":622543307},{"NoteNumber":76,"Velocity":54,"Duration":131578,"SoundDuration":131578,"Delta":622674886},{"NoteNumber":78,"Velocity":55,"Duration":175438,"SoundDuration":175438,"Delta":622806465},{"NoteNumber":50,"Velocity":55,"Duration":263158,"SoundDuration":263158,"Delta":622806465},{"NoteNumber":79,"Velocity":56,"Duration":135003,"SoundDuration":135003,"Delta":622981904},{"NoteNumber":54,"Velocity":58,"Duration":288643,"SoundDuration":288643,"Delta":623069623},{"NoteNumber":81,"Velocity":57,"Duration":144815,"SoundDuration":144815,"Delta":623165179},{"NoteNumber":83,"Velocity":62,"Duration":212264,"SoundDuration":212264,"Delta":623358267},{"NoteNumber":45,"Velocity":70,"Duration":283018,"SoundDuration":283018,"Delta":623358267},{"NoteNumber":85,"Velocity":68,"Duration":212264,"SoundDuration":212264,"Delta":623641285},{"NoteNumber":54,"Velocity":57,"Duration":283018,"SoundDuration":283018,"Delta":623641285},{"NoteNumber":86,"Velocity":75,"Duration":498992,"SoundDuration":498992,"Delta":623924304},{"NoteNumber":50,"Velocity":61,"Duration":320251,"SoundDuration":320251,"Delta":623924304},{"NoteNumber":54,"Velocity":59,"Duration":357483,"SoundDuration":357483,"Delta":624244555},{"NoteNumber":78,"Velocity":61,"Duration":178741,"SoundDuration":178741,"Delta":624423297},{"NoteNumber":81,"Velocity":68,"Duration":891265,"SoundDuration":891265,"Delta":624602038},{"NoteNumber":45,"Velocity":70,"Duration":1188354,"SoundDuration":1188354,"Delta":624602038},{"NoteNumber":50,"Velocity":70,"Duration":1188354,"SoundDuration":1188354,"Delta":624602038},{"NoteNumber":78,"Velocity":60,"Duration":297088,"SoundDuration":297088,"Delta":625493304},{"NoteNumber":76,"Velocity":65,"Duration":509433,"SoundDuration":509433,"Delta":625790392},{"NoteNumber":45,"Velocity":53,"Duration":1132074,"SoundDuration":1132074,"Delta":625790392},{"NoteNumber":49,"Velocity":53,"Duration":1132074,"SoundDuration":1132074,"Delta":625790392},{"NoteNumber":76,"Velocity":57,"Duration":509433,"SoundDuration":509433,"Delta":626356430},{"NoteNumber":76,"Velocity":57,"Duration":509433,"SoundDuration":509433,"Delta":626922467},{"NoteNumber":76,"Velocity":57,"Duration":519230,"SoundDuration":519230,"Delta":627488505},{"NoteNumber":78,"Velocity":59,"Duration":267942,"SoundDuration":267942,"Delta":628065428},{"NoteNumber":61,"Velocity":43,"Duration":3262516,"SoundDuration":3262516,"Delta":628065428},{"NoteNumber":57,"Velocity":43,"Duration":3262516,"SoundDuration":3262516,"Delta":628065428},{"NoteNumber":64,"Velocity":51,"Duration":3262516,"SoundDuration":3262516,"Delta":628065428},{"NoteNumber":76,"Velocity":47,"Duration":265674,"SoundDuration":265674,"Delta":628333370},{"NoteNumber":73,"Velocity":47,"Duration":258620,"SoundDuration":258620,"Delta":628599044},{"NoteNumber":71,"Velocity":47,"Duration":288461,"SoundDuration":288461,"Delta":628857665},{"NoteNumber":69,"Velocity":53,"Duration":545454,"SoundDuration":545454,"Delta":629146127},{"NoteNumber":76,"Velocity":47,"Duration":490909,"SoundDuration":490909,"Delta":629691581},{"NoteNumber":76,"Velocity":47,"Duration":490909,"SoundDuration":490909,"Delta":630237036},{"NoteNumber":76,"Velocity":47,"Duration":490909,"SoundDuration":490909,"Delta":630782490},{"NoteNumber":78,"Velocity":58,"Duration":273088,"SoundDuration":273088,"Delta":631327945},{"NoteNumber":59,"Velocity":43,"Duration":3317881,"SoundDuration":3317881,"Delta":631327945},{"NoteNumber":64,"Velocity":51,"Duration":3317881,"SoundDuration":3317881,"Delta":631327945},{"NoteNumber":62,"Velocity":43,"Duration":3317881,"SoundDuration":3317881,"Delta":631327945},{"NoteNumber":76,"Velocity":48,"Duration":263157,"SoundDuration":263157,"Delta":631601033},{"NoteNumber":74,"Velocity":48,"Duration":273088,"SoundDuration":273088,"Delta":631864191},{"NoteNumber":71,"Velocity":48,"Duration":286324,"SoundDuration":286324,"Delta":632137279},{"NoteNumber":68,"Velocity":52,"Duration":555555,"SoundDuration":555555,"Delta":632423604},{"NoteNumber":76,"Velocity":49,"Duration":499999,"SoundDuration":499999,"Delta":632979160},{"NoteNumber":76,"Velocity":51,"Duration":499999,"SoundDuration":499999,"Delta":633534715},{"NoteNumber":76,"Velocity":53,"Duration":499999,"SoundDuration":499999,"Delta":634090271},{"NoteNumber":78,"Velocity":65,"Duration":263157,"SoundDuration":263157,"Delta":634645826},{"NoteNumber":64,"Velocity":54,"Duration":1077935,"SoundDuration":1077935,"Delta":634645826},{"NoteNumber":57,"Velocity":45,"Duration":1077935,"SoundDuration":1077935,"Delta":634645826},{"NoteNumber":61,"Velocity":45,"Duration":1077935,"SoundDuration":1077935,"Delta":634645826},{"NoteNumber":76,"Velocity":55,"Duration":263157,"SoundDuration":263157,"Delta":634908984},{"NoteNumber":73,"Velocity":58,"Duration":263158,"SoundDuration":263158,"Delta":635172142},{"NoteNumber":69,"Velocity":55,"Duration":288461,"SoundDuration":288461,"Delta":635435300},{"NoteNumber":78,"Velocity":68,"Duration":258620,"SoundDuration":258620,"Delta":635723762},{"NoteNumber":56,"Velocity":45,"Duration":1053640,"SoundDuration":1053640,"Delta":635723762},{"NoteNumber":59,"Velocity":45,"Duration":1053640,"SoundDuration":1053640,"Delta":635723762},{"NoteNumber":64,"Velocity":53,"Duration":1053640,"SoundDuration":1053640,"Delta":635723762},{"NoteNumber":76,"Velocity":57,"Duration":258620,"SoundDuration":258620,"Delta":635982383},{"NoteNumber":74,"Velocity":59,"Duration":258620,"SoundDuration":258620,"Delta":636241003},{"NoteNumber":71,"Velocity":57,"Duration":277777,"SoundDuration":277777,"Delta":636499624},{"NoteNumber":78,"Velocity":70,"Duration":263157,"SoundDuration":263157,"Delta":636777402},{"NoteNumber":57,"Velocity":45,"Duration":1107270,"SoundDuration":1107270,"Delta":636777402},{"NoteNumber":64,"Velocity":53,"Duration":1107270,"SoundDuration":1107270,"Delta":636777402},{"NoteNumber":61,"Velocity":45,"Duration":1107270,"SoundDuration":1107270,"Delta":636777402},{"NoteNumber":76,"Velocity":57,"Duration":263157,"SoundDuration":263157,"Delta":637040560},{"NoteNumber":73,"Velocity":60,"Duration":263158,"SoundDuration":263158,"Delta":637303718},{"NoteNumber":69,"Velocity":57,"Duration":317796,"SoundDuration":317796,"Delta":637566876},{"NoteNumber":73,"Velocity":71,"Duration":1143947,"SoundDuration":1143947,"Delta":637884672},{"NoteNumber":61,"Velocity":57,"Duration":1143947,"SoundDuration":1143947,"Delta":637884672},{"NoteNumber":52,"Velocity":43,"Duration":2263665,"SoundDuration":2263665,"Delta":637884672},{"NoteNumber":57,"Velocity":48,"Duration":1143947,"SoundDuration":1143947,"Delta":637884672},{"NoteNumber":71,"Velocity":61,"Duration":285986,"SoundDuration":285986,"Delta":639028619},{"NoteNumber":56,"Velocity":43,"Duration":1119718,"SoundDuration":1119718,"Delta":639028619},{"NoteNumber":59,"Velocity":51,"Duration":1119718,"SoundDuration":1119718,"Delta":639028619},{"NoteNumber":64,"Velocity":43,"Duration":285986,"SoundDuration":285986,"Delta":639314606},{"NoteNumber":76,"Velocity":53,"Duration":273267,"SoundDuration":273267,"Delta":639600593},{"NoteNumber":64,"Velocity":43,"Duration":274478,"SoundDuration":274478,"Delta":639873860},{"NoteNumber":75,"Velocity":51,"Duration":278466,"SoundDuration":278466,"Delta":640148338},{"NoteNumber":64,"Velocity":43,"Duration":281723,"SoundDuration":281723,"Delta":640426804},{"NoteNumber":74,"Velocity":52,"Duration":285928,"SoundDuration":285928,"Delta":640708527},{"NoteNumber":64,"Velocity":42,"Duration":289757,"SoundDuration":289757,"Delta":640994456},{"NoteNumber":73,"Velocity":55,"Duration":1111110,"SoundDuration":1111110,"Delta":641284213},{"NoteNumber":57,"Velocity":37,"Duration":277777,"SoundDuration":277777,"Delta":641284213},{"NoteNumber":64,"Velocity":28,"Duration":277777,"SoundDuration":277777,"Delta":641561991},{"NoteNumber":61,"Velocity":33,"Duration":277777,"SoundDuration":277777,"Delta":641839768},{"NoteNumber":64,"Velocity":28,"Duration":277777,"SoundDuration":277777,"Delta":642117546},{"NoteNumber":73,"Velocity":51,"Duration":1294484,"SoundDuration":1294484,"Delta":642395324},{"NoteNumber":57,"Velocity":42,"Duration":272727,"SoundDuration":272727,"Delta":642395324},{"NoteNumber":64,"Velocity":31,"Duration":258620,"SoundDuration":258620,"Delta":642668051},{"NoteNumber":61,"Velocity":37,"Duration":258620,"SoundDuration":258620,"Delta":642926672},{"NoteNumber":64,"Velocity":33,"Duration":250278,"SoundDuration":250278,"Delta":643185293},{"NoteNumber":57,"Velocity":42,"Duration":254237,"SoundDuration":254237,"Delta":643435571},{"NoteNumber":74,"Velocity":48,"Duration":84745,"SoundDuration":84745,"Delta":643689808},{"NoteNumber":64,"Velocity":32,"Duration":254237,"SoundDuration":254237,"Delta":643689808},{"NoteNumber":73,"Velocity":47,"Duration":84745,"SoundDuration":84745,"Delta":643774554},{"NoteNumber":71,"Velocity":47,"Duration":84745,"SoundDuration":84745,"Delta":643859300},{"NoteNumber":73,"Velocity":47,"Duration":272727,"SoundDuration":272727,"Delta":643944045},{"NoteNumber":59,"Velocity":37,"Duration":272727,"SoundDuration":272727,"Delta":643944045},{"NoteNumber":74,"Velocity":51,"Duration":288461,"SoundDuration":288461,"Delta":644216773},{"NoteNumber":64,"Velocity":32,"Duration":288461,"SoundDuration":288461,"Delta":644216773},{"NoteNumber":78,"Velocity":54,"Duration":526315,"SoundDuration":526315,"Delta":644505234},{"NoteNumber":61,"Velocity":44,"Duration":263157,"SoundDuration":263157,"Delta":644505234},{"NoteNumber":64,"Velocity":28,"Duration":263157,"SoundDuration":263157,"Delta":644768392},{"NoteNumber":76,"Velocity":51,"Duration":272727,"SoundDuration":272727,"Delta":645031550},{"NoteNumber":57,"Velocity":31,"Duration":272727,"SoundDuration":272727,"Delta":645031550},{"NoteNumber":64,"Velocity":27,"Duration":288461,"SoundDuration":288461,"Delta":645304277},{"NoteNumber":87,"Velocity":62,"Duration":535714,"SoundDuration":535714,"Delta":645592739},{"NoteNumber":61,"Velocity":34,"Duration":267857,"SoundDuration":267857,"Delta":645592739},{"NoteNumber":64,"Velocity":22,"Duration":267857,"SoundDuration":267857,"Delta":645860596},{"NoteNumber":88,"Velocity":57,"Duration":293312,"SoundDuration":293312,"Delta":646128453},{"NoteNumber":57,"Velocity":28,"Duration":293312,"SoundDuration":293312,"Delta":646128453},{"NoteNumber":64,"Velocity":23,"Duration":293312,"SoundDuration":293312,"Delta":646421766},{"NoteNumber":76,"Velocity":51,"Duration":146656,"SoundDuration":146656,"Delta":646568422},{"NoteNumber":78,"Velocity":57,"Duration":254237,"SoundDuration":254237,"Delta":646715078},{"NoteNumber":61,"Velocity":37,"Duration":254237,"SoundDuration":254237,"Delta":646715078},{"NoteNumber":76,"Velocity":51,"Duration":254237,"SoundDuration":254237,"Delta":646969316},{"NoteNumber":64,"Velocity":28,"Duration":254237,"SoundDuration":254237,"Delta":646969316},{"NoteNumber":74,"Velocity":51,"Duration":254237,"SoundDuration":254237,"Delta":647223553},{"NoteNumber":57,"Velocity":32,"Duration":254237,"SoundDuration":254237,"Delta":647223553},{"NoteNumber":73,"Velocity":51,"Duration":299999,"SoundDuration":299999,"Delta":647477790},{"NoteNumber":64,"Velocity":28,"Duration":299999,"SoundDuration":299999,"Delta":647477790},{"NoteNumber":73,"Velocity":55,"Duration":535714,"SoundDuration":535714,"Delta":647777790},{"NoteNumber":56,"Velocity":37,"Duration":267857,"SoundDuration":267857,"Delta":647777790},{"NoteNumber":64,"Velocity":29,"Duration":267857,"SoundDuration":267857,"Delta":648045647},{"NoteNumber":71,"Velocity":55,"Duration":1083278,"SoundDuration":1083278,"Delta":648313505},{"NoteNumber":63,"Velocity":33,"Duration":283018,"SoundDuration":283018,"Delta":648313505},{"NoteNumber":64,"Velocity":30,"Duration":283018,"SoundDuration":283018,"Delta":648596523},{"NoteNumber":56,"Velocity":37,"Duration":258620,"SoundDuration":258620,"Delta":648879542},{"NoteNumber":64,"Velocity":31,"Duration":258620,"SoundDuration":258620,"Delta":649138163},{"NoteNumber":71,"Velocity":51,"Duration":953881,"SoundDuration":953881,"Delta":649396784},{"NoteNumber":63,"Velocity":33,"Duration":261047,"SoundDuration":261047,"Delta":649396784},{"NoteNumber":64,"Velocity":30,"Duration":254237,"SoundDuration":254237,"Delta":649657831},{"NoteNumber":56,"Velocity":37,"Duration":263157,"SoundDuration":263157,"Delta":649912068},{"NoteNumber":73,"Velocity":47,"Duration":87719,"SoundDuration":87719,"Delta":650175226},{"NoteNumber":64,"Velocity":30,"Duration":263157,"SoundDuration":263157,"Delta":650175226},{"NoteNumber":71,"Velocity":47,"Duration":175438,"SoundDuration":175438,"Delta":650262945},{"NoteNumber":70,"Velocity":47,"Duration":87719,"SoundDuration":87719,"Delta":650350665},{"NoteNumber":71,"Velocity":51,"Duration":283018,"SoundDuration":283018,"Delta":650438384},{"NoteNumber":57,"Velocity":33,"Duration":283018,"SoundDuration":283018,"Delta":650438384},{"NoteNumber":73,"Velocity":51,"Duration":306122,"SoundDuration":306122,"Delta":650721403},{"NoteNumber":64,"Velocity":30,"Duration":306122,"SoundDuration":306122,"Delta":650721403},{"NoteNumber":76,"Velocity":54,"Duration":517241,"SoundDuration":517241,"Delta":651027525},{"NoteNumber":59,"Velocity":37,"Duration":258620,"SoundDuration":258620,"Delta":651027525},{"NoteNumber":64,"Velocity":29,"Duration":258620,"SoundDuration":258620,"Delta":651286146},{"NoteNumber":74,"Velocity":51,"Duration":277777,"SoundDuration":277777,"Delta":651544767},{"NoteNumber":63,"Velocity":31,"Duration":277777,"SoundDuration":277777,"Delta":651544767},{"NoteNumber":64,"Velocity":28,"Duration":277777,"SoundDuration":277777,"Delta":651822545},{"NoteNumber":85,"Velocity":60,"Duration":535714,"SoundDuration":535714,"Delta":652100322},{"NoteNumber":56,"Velocity":34,"Duration":267857,"SoundDuration":267857,"Delta":652100322},{"NoteNumber":64,"Velocity":25,"Duration":267857,"SoundDuration":267857,"Delta":652368180},{"NoteNumber":86,"Velocity":57,"Duration":288461,"SoundDuration":288461,"Delta":652636037},{"NoteNumber":59,"Velocity":28,"Duration":288461,"SoundDuration":288461,"Delta":652636037},{"NoteNumber":64,"Velocity":26,"Duration":288461,"SoundDuration":288461,"Delta":652924498},{"NoteNumber":74,"Velocity":51,"Duration":144230,"SoundDuration":144230,"Delta":653068729},{"NoteNumber":76,"Velocity":57,"Duration":263157,"SoundDuration":263157,"Delta":653212960},{"NoteNumber":52,"Velocity":40,"Duration":263157,"SoundDuration":263157,"Delta":653212960},{"NoteNumber":74,"Velocity":51,"Duration":263157,"SoundDuration":263157,"Delta":653476118},{"NoteNumber":64,"Velocity":30,"Duration":263157,"SoundDuration":263157,"Delta":653476118},{"NoteNumber":73,"Velocity":51,"Duration":263158,"SoundDuration":263158,"Delta":653739276},{"NoteNumber":56,"Velocity":33,"Duration":263158,"SoundDuration":263158,"Delta":653739276},{"NoteNumber":71,"Velocity":51,"Duration":269230,"SoundDuration":269230,"Delta":654002434},{"NoteNumber":64,"Velocity":30,"Duration":288461,"SoundDuration":288461,"Delta":654002434},{"NoteNumber":71,"Velocity":57,"Duration":518629,"SoundDuration":518629,"Delta":654290895},{"NoteNumber":54,"Velocity":39,"Duration":272727,"SoundDuration":272727,"Delta":654290895},{"NoteNumber":64,"Velocity":28,"Duration":245901,"SoundDuration":245901,"Delta":654563623},{"NoteNumber":69,"Velocity":54,"Duration":789721,"SoundDuration":789721,"Delta":654809524},{"NoteNumber":63,"Velocity":31,"Duration":267942,"SoundDuration":267942,"Delta":654809524},{"NoteNumber":64,"Velocity":27,"Duration":263157,"SoundDuration":263157,"Delta":655077467},{"NoteNumber":54,"Velocity":42,"Duration":258620,"SoundDuration":258620,"Delta":655340625},{"NoteNumber":69,"Velocity":57,"Duration":258620,"SoundDuration":258620,"Delta":655599246},{"NoteNumber":64,"Velocity":32,"Duration":258620,"SoundDuration":258620,"Delta":655599246},{"NoteNumber":74,"Velocity":61,"Duration":278965,"SoundDuration":278965,"Delta":655857866},{"NoteNumber":63,"Velocity":36,"Duration":278965,"SoundDuration":278965,"Delta":655857866},{"NoteNumber":73,"Velocity":57,"Duration":313413,"SoundDuration":313413,"Delta":656136832},{"NoteNumber":64,"Velocity":34,"Duration":313413,"SoundDuration":313413,"Delta":656136832},{"NoteNumber":70,"Velocity":61,"Duration":263157,"SoundDuration":263157,"Delta":656450246},{"NoteNumber":56,"Velocity":42,"Duration":263157,"SoundDuration":263157,"Delta":656450246},{"NoteNumber":71,"Velocity":57,"Duration":263157,"SoundDuration":263157,"Delta":656713404},{"NoteNumber":64,"Velocity":35,"Duration":263157,"SoundDuration":263157,"Delta":656713404},{"NoteNumber":76,"Velocity":57,"Duration":263158,"SoundDuration":263158,"Delta":656976562},{"NoteNumber":63,"Velocity":36,"Duration":263158,"SoundDuration":263158,"Delta":656976562},{"NoteNumber":74,"Velocity":57,"Duration":263157,"SoundDuration":263157,"Delta":657239720},{"NoteNumber":64,"Velocity":34,"Duration":263157,"SoundDuration":263157,"Delta":657239720},{"NoteNumber":72,"Velocity":60,"Duration":277777,"SoundDuration":277777,"Delta":657502878},{"NoteNumber":57,"Velocity":42,"Duration":1105367,"SoundDuration":1105367,"Delta":657502878},{"NoteNumber":73,"Velocity":57,"Duration":277777,"SoundDuration":277777,"Delta":657780656},{"NoteNumber":81,"Velocity":60,"Duration":249999,"SoundDuration":249999,"Delta":658058434},{"NoteNumber":81,"Velocity":61,"Duration":245718,"SoundDuration":245718,"Delta":658336212},{"NoteNumber":81,"Velocity":62,"Duration":236920,"SoundDuration":236920,"Delta":658608246},{"NoteNumber":81,"Velocity":64,"Duration":241923,"SoundDuration":241923,"Delta":658871952},{"NoteNumber":81,"Velocity":66,"Duration":248190,"SoundDuration":248190,"Delta":659141149},{"NoteNumber":81,"Velocity":68,"Duration":254031,"SoundDuration":254031,"Delta":659417117},{"NoteNumber":81,"Velocity":69,"Duration":283018,"SoundDuration":283018,"Delta":659699994},{"NoteNumber":50,"Velocity":37,"Duration":1132074,"SoundDuration":1132074,"Delta":659699994},{"NoteNumber":54,"Velocity":43,"Duration":1132074,"SoundDuration":1132074,"Delta":659699994},{"NoteNumber":59,"Velocity":51,"Duration":1132074,"SoundDuration":1132074,"Delta":659699994},{"NoteNumber":78,"Velocity":59,"Duration":283018,"SoundDuration":283018,"Delta":659983013},{"NoteNumber":74,"Velocity":62,"Duration":283018,"SoundDuration":283018,"Delta":660266032},{"NoteNumber":71,"Velocity":59,"Duration":283018,"SoundDuration":283018,"Delta":660549051},{"NoteNumber":76,"Velocity":64,"Duration":297088,"SoundDuration":297088,"Delta":660832069},{"NoteNumber":52,"Velocity":44,"Duration":3536323,"SoundDuration":3536323,"Delta":660832069},{"NoteNumber":57,"Velocity":44,"Duration":2299465,"SoundDuration":2299465,"Delta":660832069},{"NoteNumber":61,"Velocity":54,"Duration":2299465,"SoundDuration":2299465,"Delta":660832069},{"NoteNumber":78,"Velocity":59,"Duration":99029,"SoundDuration":99029,"Delta":661129158},{"NoteNumber":76,"Velocity":59,"Duration":99029,"SoundDuration":99029,"Delta":661228187},{"NoteNumber":75,"Velocity":59,"Duration":99029,"SoundDuration":99029,"Delta":661327217},{"NoteNumber":76,"Velocity":64,"Duration":297088,"SoundDuration":297088,"Delta":661426246},{"NoteNumber":78,"Velocity":61,"Duration":297088,"SoundDuration":297088,"Delta":661723335},{"NoteNumber":69,"Velocity":66,"Duration":1729540,"SoundDuration":1729540,"Delta":662020423},{"NoteNumber":62,"Velocity":46,"Duration":1236857,"SoundDuration":1236857,"Delta":663131534},{"NoteNumber":59,"Velocity":34,"Duration":1236857,"SoundDuration":1236857,"Delta":663131534},{"NoteNumber":71,"Velocity":45,"Duration":587507,"SoundDuration":587507,"Delta":663749963},{"NoteNumber":68,"Velocity":45,"Duration":587507,"SoundDuration":587507,"Delta":663749963},{"NoteNumber":68,"Velocity":52,"Duration":2414893,"SoundDuration":2414893,"Delta":664368392},{"NoteNumber":71,"Velocity":52,"Duration":1812846,"SoundDuration":1812846,"Delta":664368392},{"NoteNumber":62,"Velocity":33,"Duration":2414893,"SoundDuration":2414893,"Delta":664368392},{"NoteNumber":57,"Velocity":33,"Duration":3634901,"SoundDuration":3634901,"Delta":664368392},{"NoteNumber":64,"Velocity":39,"Duration":3558650,"SoundDuration":3558650,"Delta":664368392},{"NoteNumber":72,"Velocity":51,"Duration":602046,"SoundDuration":602046,"Delta":666181238},{"NoteNumber":73,"Velocity":51,"Duration":1067506,"SoundDuration":1067506,"Delta":666783285},{"NoteNumber":69,"Velocity":51,"Duration":1067506,"SoundDuration":1067506,"Delta":666783285},{"NoteNumber":61,"Velocity":39,"Duration":1220008,"SoundDuration":1220008,"Delta":666783285},{"NoteNumber":64,"Velocity":61,"Duration":152501,"SoundDuration":152501,"Delta":667850792},{"NoteNumber":69,"Velocity":62,"Duration":76250,"SoundDuration":76250,"Delta":667927043},{"NoteNumber":73,"Velocity":68,"Duration":1291334,"SoundDuration":1291334,"Delta":668003293},{"NoteNumber":45,"Velocity":61,"Duration":277777,"SoundDuration":277777,"Delta":668003293},{"NoteNumber":49,"Velocity":50,"Duration":277777,"SoundDuration":277777,"Delta":668281071},{"NoteNumber":52,"Velocity":54,"Duration":277777,"SoundDuration":277777,"Delta":668558849},{"NoteNumber":57,"Velocity":50,"Duration":277777,"SoundDuration":277777,"Delta":668836627},{"NoteNumber":45,"Velocity":61,"Duration":267942,"SoundDuration":267942,"Delta":669114404},{"NoteNumber":76,"Velocity":63,"Duration":175438,"SoundDuration":175438,"Delta":669294628},{"NoteNumber":49,"Velocity":50,"Duration":263157,"SoundDuration":263157,"Delta":669382347},{"NoteNumber":74,"Velocity":63,"Duration":175438,"SoundDuration":175438,"Delta":669470066},{"NoteNumber":73,"Velocity":66,"Duration":175438,"SoundDuration":175438,"Delta":669645505},{"NoteNumber":52,"Velocity":54,"Duration":263158,"SoundDuration":263158,"Delta":669645505},{"NoteNumber":74,"Velocity":62,"Duration":175438,"SoundDuration":175438,"Delta":669820944},{"NoteNumber":57,"Velocity":50,"Duration":263157,"SoundDuration":263157,"Delta":669908663},{"NoteNumber":76,"Velocity":62,"Duration":175438,"SoundDuration":175438,"Delta":669996382},{"NoteNumber":74,"Velocity":66,"Duration":175438,"SoundDuration":175438,"Delta":670171821},{"NoteNumber":47,"Velocity":61,"Duration":263157,"SoundDuration":263157,"Delta":670171821},{"NoteNumber":78,"Velocity":62,"Duration":175438,"SoundDuration":175438,"Delta":670347260},{"NoteNumber":50,"Velocity":52,"Duration":263157,"SoundDuration":263157,"Delta":670434979},{"NoteNumber":76,"Velocity":62,"Duration":175438,"SoundDuration":175438,"Delta":670522698},{"NoteNumber":74,"Velocity":66,"Duration":175438,"SoundDuration":175438,"Delta":670698137},{"NoteNumber":56,"Velocity":56,"Duration":263157,"SoundDuration":263157,"Delta":670698137},{"NoteNumber":76,"Velocity":63,"Duration":175438,"SoundDuration":175438,"Delta":670873576},{"NoteNumber":59,"Velocity":52,"Duration":273571,"SoundDuration":273571,"Delta":670961295},{"NoteNumber":78,"Velocity":63,"Duration":185852,"SoundDuration":185852,"Delta":671049014},{"NoteNumber":76,"Velocity":62,"Duration":138888,"SoundDuration":138888,"Delta":671234867},{"NoteNumber":49,"Velocity":51,"Duration":2197620,"SoundDuration":2197620,"Delta":671234867},{"NoteNumber":57,"Velocity":61,"Duration":2197620,"SoundDuration":2197620,"Delta":671234867},{"NoteNumber":69,"Velocity":63,"Duration":138888,"SoundDuration":138888,"Delta":671373756},{"NoteNumber":71,"Velocity":64,"Duration":138888,"SoundDuration":138888,"Delta":671512644},{"NoteNumber":73,"Velocity":65,"Duration":138888,"SoundDuration":138888,"Delta":671651533},{"NoteNumber":74,"Velocity":65,"Duration":138888,"SoundDuration":138888,"Delta":671790422},{"NoteNumber":76,"Velocity":65,"Duration":133492,"SoundDuration":133492,"Delta":671929311},{"NoteNumber":78,"Velocity":66,"Duration":136363,"SoundDuration":136363,"Delta":672062804},{"NoteNumber":80,"Velocity":67,"Duration":136363,"SoundDuration":136363,"Delta":672199167},{"NoteNumber":81,"Velocity":68,"Duration":136363,"SoundDuration":136363,"Delta":672335531},{"NoteNumber":83,"Velocity":69,"Duration":136363,"SoundDuration":136363,"Delta":672471895},{"NoteNumber":85,"Velocity":70,"Duration":136363,"SoundDuration":136363,"Delta":672608258},{"NoteNumber":83,"Velocity":71,"Duration":136363,"SoundDuration":136363,"Delta":672744622},{"NoteNumber":81,"Velocity":71,"Duration":133928,"SoundDuration":133928,"Delta":672880986},{"NoteNumber":80,"Velocity":70,"Duration":138372,"SoundDuration":138372,"Delta":673014914},{"NoteNumber":78,"Velocity":70,"Duration":139483,"SoundDuration":139483,"Delta":673153286},{"NoteNumber":77,"Velocity":69,"Duration":139717,"SoundDuration":139717,"Delta":673292769},{"NoteNumber":78,"Velocity":68,"Duration":141243,"SoundDuration":141243,"Delta":673432487},{"NoteNumber":50,"Velocity":56,"Duration":1142709,"SoundDuration":1142709,"Delta":673432487},{"NoteNumber":57,"Velocity":66,"Duration":1142709,"SoundDuration":1142709,"Delta":673432487},{"NoteNumber":80,"Velocity":67,"Duration":141243,"SoundDuration":141243,"Delta":673573730},{"NoteNumber":81,"Velocity":65,"Duration":141243,"SoundDuration":141243,"Delta":673714973},{"NoteNumber":80,"Velocity":64,"Duration":142876,"SoundDuration":142876,"Delta":673856216},{"NoteNumber":83,"Velocity":62,"Duration":142993,"SoundDuration":142993,"Delta":673999093},{"NoteNumber":81,"Velocity":61,"Duration":143479,"SoundDuration":143479,"Delta":674142086},{"NoteNumber":80,"Velocity":59,"Duration":144815,"SoundDuration":144815,"Delta":674285565},{"NoteNumber":78,"Velocity":58,"Duration":144815,"SoundDuration":144815,"Delta":674430381},{"NoteNumber":76,"Velocity":62,"Duration":163434,"SoundDuration":163434,"Delta":674575197},{"NoteNumber":52,"Velocity":35,"Duration":1232141,"SoundDuration":1232141,"Delta":674575197},{"NoteNumber":61,"Velocity":42,"Duration":1232141,"SoundDuration":1232141,"Delta":674575197},{"NoteNumber":88,"Velocity":52,"Duration":308249,"SoundDuration":308249,"Delta":674902065},{"NoteNumber":85,"Velocity":52,"Duration":287808,"SoundDuration":287808,"Delta":675210315},{"NoteNumber":81,"Velocity":60,"Duration":309214,"SoundDuration":309214,"Delta":675498124},{"NoteNumber":76,"Velocity":52,"Duration":161117,"SoundDuration":161117,"Delta":675807339},{"NoteNumber":52,"Velocity":35,"Duration":1212004,"SoundDuration":1212004,"Delta":675807339},{"NoteNumber":61,"Velocity":42,"Duration":1212004,"SoundDuration":1212004,"Delta":675807339},{"NoteNumber":81,"Velocity":52,"Duration":285986,"SoundDuration":285986,"Delta":676129573},{"NoteNumber":76,"Velocity":51,"Duration":285986,"SoundDuration":285986,"Delta":676415560},{"NoteNumber":73,"Velocity":51,"Duration":317796,"SoundDuration":317796,"Delta":676701546},{"NoteNumber":76,"Velocity":57,"Duration":317796,"SoundDuration":317796,"Delta":677019343},{"NoteNumber":52,"Velocity":31,"Duration":1271441,"SoundDuration":1271441,"Delta":677019343},{"NoteNumber":56,"Velocity":31,"Duration":1271441,"SoundDuration":1271441,"Delta":677019343},{"NoteNumber":62,"Velocity":37,"Duration":1271441,"SoundDuration":1271441,"Delta":677019343},{"NoteNumber":74,"Velocity":51,"Duration":293359,"SoundDuration":293359,"Delta":677337139},{"NoteNumber":73,"Velocity":51,"Duration":297088,"SoundDuration":297088,"Delta":677630499},{"NoteNumber":71,"Velocity":51,"Duration":342009,"SoundDuration":342009,"Delta":677927588},{"NoteNumber":68,"Velocity":51,"Duration":1288937,"SoundDuration":1288937,"Delta":678290784},{"NoteNumber":71,"Velocity":58,"Duration":1288937,"SoundDuration":1288937,"Delta":678290784},{"NoteNumber":57,"Velocity":34,"Duration":2413707,"SoundDuration":2413707,"Delta":678290784},{"NoteNumber":62,"Velocity":41,"Duration":1288937,"SoundDuration":1288937,"Delta":678290784},{"NoteNumber":69,"Velocity":52,"Duration":205253,"SoundDuration":205253,"Delta":679579721},{"NoteNumber":61,"Velocity":41,"Duration":1124770,"SoundDuration":1124770,"Delta":679579721},{"NoteNumber":64,"Velocity":45,"Duration":144230,"SoundDuration":144230,"Delta":679784975},{"NoteNumber":66,"Velocity":45,"Duration":141247,"SoundDuration":141247,"Delta":679976466},{"NoteNumber":67,"Velocity":50,"Duration":138299,"SoundDuration":138299,"Delta":680164010},{"NoteNumber":68,"Velocity":47,"Duration":135470,"SoundDuration":135470,"Delta":680347764},{"NoteNumber":69,"Velocity":47,"Duration":132753,"SoundDuration":132753,"Delta":680527878},{"NoteNumber":70,"Velocity":49,"Duration":130142,"SoundDuration":130142,"Delta":680704491},{"NoteNumber":71,"Velocity":44,"Duration":131049,"SoundDuration":131049,"Delta":680877737},{"NoteNumber":72,"Velocity":44,"Duration":135146,"SoundDuration":135146,"Delta":681053351},{"NoteNumber":73,"Velocity":48,"Duration":139500,"SoundDuration":139500,"Delta":681234036},{"NoteNumber":74,"Velocity":44,"Duration":137626,"SoundDuration":137626,"Delta":681419848},{"NoteNumber":75,"Velocity":44,"Duration":150675,"SoundDuration":150675,"Delta":681604207},{"NoteNumber":76,"Velocity":57,"Duration":829195,"SoundDuration":829195,"Delta":681805903},{"NoteNumber":57,"Velocity":39,"Duration":283018,"SoundDuration":283018,"Delta":681805903},{"NoteNumber":69,"Velocity":29,"Duration":283018,"SoundDuration":283018,"Delta":682088922},{"NoteNumber":61,"Velocity":36,"Duration":263157,"SoundDuration":263157,"Delta":682371941},{"NoteNumber":78,"Velocity":47,"Duration":131578,"SoundDuration":131578,"Delta":682635099},{"NoteNumber":69,"Velocity":32,"Duration":263157,"SoundDuration":263157,"Delta":682635099},{"NoteNumber":76,"Velocity":47,"Duration":131578,"SoundDuration":131578,"Delta":682766678},{"NoteNumber":74,"Velocity":58,"Duration":517241,"SoundDuration":517241,"Delta":682898257},{"NoteNumber":57,"Velocity":45,"Duration":258620,"SoundDuration":258620,"Delta":682898257},{"NoteNumber":68,"Velocity":34,"Duration":258620,"SoundDuration":258620,"Delta":683156878},{"NoteNumber":73,"Velocity":53,"Duration":535714,"SoundDuration":535714,"Delta":683415498},{"NoteNumber":59,"Velocity":37,"Duration":267857,"SoundDuration":267857,"Delta":683415498},{"NoteNumber":68,"Velocity":34,"Duration":267857,"SoundDuration":267857,"Delta":683683356},{"NoteNumber":71,"Velocity":57,"Duration":535714,"SoundDuration":535714,"Delta":683951213},{"NoteNumber":57,"Velocity":47,"Duration":267857,"SoundDuration":267857,"Delta":683951213},{"NoteNumber":67,"Velocity":36,"Duration":267857,"SoundDuration":267857,"Delta":684219070},{"NoteNumber":69,"Velocity":52,"Duration":573979,"SoundDuration":573979,"Delta":684486927},{"NoteNumber":61,"Velocity":42,"Duration":267857,"SoundDuration":267857,"Delta":684486927},{"NoteNumber":67,"Velocity":38,"Duration":306122,"SoundDuration":306122,"Delta":684754785},{"NoteNumber":69,"Velocity":61,"Duration":803571,"SoundDuration":803571,"Delta":685060907},{"NoteNumber":57,"Velocity":48,"Duration":267857,"SoundDuration":267857,"Delta":685060907},{"NoteNumber":66,"Velocity":41,"Duration":267857,"SoundDuration":267857,"Delta":685328764},{"NoteNumber":62,"Velocity":44,"Duration":267857,"SoundDuration":267857,"Delta":685596622},{"NoteNumber":78,"Velocity":55,"Duration":243303,"SoundDuration":243303,"Delta":685864479},{"NoteNumber":66,"Velocity":41,"Duration":267857,"SoundDuration":267857,"Delta":685864479},{"NoteNumber":78,"Velocity":59,"Duration":1016948,"SoundDuration":1016948,"Delta":686132336},{"NoteNumber":54,"Velocity":52,"Duration":254237,"SoundDuration":254237,"Delta":686132336},{"NoteNumber":62,"Velocity":41,"Duration":254237,"SoundDuration":254237,"Delta":686386573},{"NoteNumber":57,"Velocity":45,"Duration":254237,"SoundDuration":254237,"Delta":686640811},{"NoteNumber":62,"Velocity":41,"Duration":249999,"SoundDuration":249999,"Delta":686895048},{"NoteNumber":62,"Velocity":68,"Duration":1205357,"SoundDuration":1205357,"Delta":687149285},{"NoteNumber":50,"Velocity":51,"Duration":267857,"SoundDuration":267857,"Delta":687149285},{"NoteNumber":57,"Velocity":43,"Duration":267857,"SoundDuration":267857,"Delta":687417142},{"NoteNumber":54,"Velocity":46,"Duration":267857,"SoundDuration":267857,"Delta":687685000},{"NoteNumber":57,"Velocity":43,"Duration":267857,"SoundDuration":267857,"Delta":687952857},{"NoteNumber":45,"Velocity":56,"Duration":267857,"SoundDuration":267857,"Delta":688220714},{"NoteNumber":66,"Velocity":44,"Duration":133928,"SoundDuration":133928,"Delta":688354643},{"NoteNumber":64,"Velocity":45,"Duration":133928,"SoundDuration":133928,"Delta":688488571},{"NoteNumber":54,"Velocity":47,"Duration":267857,"SoundDuration":267857,"Delta":688488571},{"NoteNumber":62,"Velocity":46,"Duration":133928,"SoundDuration":133928,"Delta":688622500},{"NoteNumber":64,"Velocity":47,"Duration":133928,"SoundDuration":133928,"Delta":688756429},{"NoteNumber":50,"Velocity":49,"Duration":267857,"SoundDuration":267857,"Delta":688756429},{"NoteNumber":66,"Velocity":48,"Duration":133928,"SoundDuration":133928,"Delta":688890357},{"NoteNumber":67,"Velocity":49,"Duration":133928,"SoundDuration":133928,"Delta":689024286},{"NoteNumber":54,"Velocity":47,"Duration":277615,"SoundDuration":277615,"Delta":689024286},{"NoteNumber":69,"Velocity":50,"Duration":143686,"SoundDuration":143686,"Delta":689158214},{"NoteNumber":71,"Velocity":51,"Duration":131578,"SoundDuration":131578,"Delta":689301901},{"NoteNumber":45,"Velocity":60,"Duration":263157,"SoundDuration":263157,"Delta":689301901},{"NoteNumber":73,"Velocity":52,"Duration":131578,"SoundDuration":131578,"Delta":689433480},{"NoteNumber":74,"Velocity":53,"Duration":131578,"SoundDuration":131578,"Delta":689565059},{"NoteNumber":54,"Velocity":52,"Duration":263157,"SoundDuration":263157,"Delta":689565059},{"NoteNumber":76,"Velocity":54,"Duration":131578,"SoundDuration":131578,"Delta":689696638},{"NoteNumber":78,"Velocity":55,"Duration":175438,"SoundDuration":175438,"Delta":689828217},{"NoteNumber":50,"Velocity":55,"Duration":263158,"SoundDuration":263158,"Delta":689828217},{"NoteNumber":79,"Velocity":56,"Duration":183275,"SoundDuration":183275,"Delta":690003656},{"NoteNumber":54,"Velocity":58,"Duration":288643,"SoundDuration":288643,"Delta":690091375},{"NoteNumber":81,"Velocity":57,"Duration":193087,"SoundDuration":193087,"Delta":690186931},{"NoteNumber":83,"Velocity":62,"Duration":283018,"SoundDuration":283018,"Delta":690380018},{"NoteNumber":45,"Velocity":70,"Duration":283018,"SoundDuration":283018,"Delta":690380018},{"NoteNumber":85,"Velocity":68,"Duration":283018,"SoundDuration":283018,"Delta":690663037},{"NoteNumber":54,"Velocity":59,"Duration":283018,"SoundDuration":283018,"Delta":690663037},{"NoteNumber":86,"Velocity":75,"Duration":498992,"SoundDuration":498992,"Delta":690946056},{"NoteNumber":50,"Velocity":61,"Duration":320251,"SoundDuration":320251,"Delta":690946056},{"NoteNumber":54,"Velocity":57,"Duration":357483,"SoundDuration":357483,"Delta":691266307},{"NoteNumber":78,"Velocity":61,"Duration":178741,"SoundDuration":178741,"Delta":691445048},{"NoteNumber":81,"Velocity":68,"Duration":891265,"SoundDuration":891265,"Delta":691623790},{"NoteNumber":45,"Velocity":70,"Duration":1188354,"SoundDuration":1188354,"Delta":691623790},{"NoteNumber":50,"Velocity":70,"Duration":1188354,"SoundDuration":1188354,"Delta":691623790},{"NoteNumber":78,"Velocity":60,"Duration":297088,"SoundDuration":297088,"Delta":692515056},{"NoteNumber":76,"Velocity":65,"Duration":537735,"SoundDuration":537735,"Delta":692812144},{"NoteNumber":45,"Velocity":53,"Duration":1132074,"SoundDuration":1132074,"Delta":692812144},{"NoteNumber":49,"Velocity":53,"Duration":1132074,"SoundDuration":1132074,"Delta":692812144},{"NoteNumber":76,"Velocity":57,"Duration":537735,"SoundDuration":537735,"Delta":693378182},{"NoteNumber":76,"Velocity":57,"Duration":537735,"SoundDuration":537735,"Delta":693944219},{"NoteNumber":76,"Velocity":57,"Duration":548076,"SoundDuration":548076,"Delta":694510257},{"NoteNumber":78,"Velocity":60,"Duration":267942,"SoundDuration":267942,"Delta":695087180},{"NoteNumber":61,"Velocity":43,"Duration":3269322,"SoundDuration":3269322,"Delta":695087180},{"NoteNumber":57,"Velocity":43,"Duration":3269322,"SoundDuration":3269322,"Delta":695087180},{"NoteNumber":64,"Velocity":51,"Duration":3269322,"SoundDuration":3269322,"Delta":695087180},{"NoteNumber":76,"Velocity":50,"Duration":267942,"SoundDuration":267942,"Delta":695355122},{"NoteNumber":73,"Velocity":50,"Duration":263157,"SoundDuration":263157,"Delta":695623065},{"NoteNumber":71,"Velocity":50,"Duration":288461,"SoundDuration":288461,"Delta":695886223},{"NoteNumber":69,"Velocity":55,"Duration":545454,"SoundDuration":545454,"Delta":696174684},{"NoteNumber":76,"Velocity":46,"Duration":518181,"SoundDuration":518181,"Delta":696720139},{"NoteNumber":76,"Velocity":46,"Duration":518181,"SoundDuration":518181,"Delta":697265593},{"NoteNumber":76,"Velocity":46,"Duration":518181,"SoundDuration":518181,"Delta":697811048},{"NoteNumber":78,"Velocity":61,"Duration":258620,"SoundDuration":258620,"Delta":698356502},{"NoteNumber":59,"Velocity":43,"Duration":3303414,"SoundDuration":3303414,"Delta":698356502},{"NoteNumber":64,"Velocity":51,"Duration":3303414,"SoundDuration":3303414,"Delta":698356502},{"NoteNumber":62,"Velocity":43,"Duration":3303414,"SoundDuration":3303414,"Delta":698356502},{"NoteNumber":76,"Velocity":51,"Duration":263157,"SoundDuration":263157,"Delta":698615123},{"NoteNumber":74,"Velocity":51,"Duration":273088,"SoundDuration":273088,"Delta":698878281},{"NoteNumber":71,"Velocity":51,"Duration":286324,"SoundDuration":286324,"Delta":699151369},{"NoteNumber":68,"Velocity":54,"Duration":555555,"SoundDuration":555555,"Delta":699437694},{"NoteNumber":76,"Velocity":52,"Duration":527777,"SoundDuration":527777,"Delta":699993250},{"NoteNumber":76,"Velocity":53,"Duration":527777,"SoundDuration":527777,"Delta":700548805},{"NoteNumber":76,"Velocity":55,"Duration":527777,"SoundDuration":527777,"Delta":701104361},{"NoteNumber":78,"Velocity":65,"Duration":267857,"SoundDuration":267857,"Delta":701659916},{"NoteNumber":64,"Velocity":54,"Duration":1092033,"SoundDuration":1092033,"Delta":701659916},{"NoteNumber":57,"Velocity":45,"Duration":1092033,"SoundDuration":1092033,"Delta":701659916},{"NoteNumber":61,"Velocity":45,"Duration":1092033,"SoundDuration":1092033,"Delta":701659916},{"NoteNumber":76,"Velocity":55,"Duration":267857,"SoundDuration":267857,"Delta":701927774},{"NoteNumber":73,"Velocity":58,"Duration":267857,"SoundDuration":267857,"Delta":702195631},{"NoteNumber":69,"Velocity":54,"Duration":288461,"SoundDuration":288461,"Delta":702463488},{"NoteNumber":78,"Velocity":68,"Duration":258620,"SoundDuration":258620,"Delta":702751950},{"NoteNumber":56,"Velocity":45,"Duration":1053640,"SoundDuration":1053640,"Delta":702751950},{"NoteNumber":59,"Velocity":45,"Duration":1053640,"SoundDuration":1053640,"Delta":702751950},{"NoteNumber":64,"Velocity":53,"Duration":1053640,"SoundDuration":1053640,"Delta":702751950},{"NoteNumber":76,"Velocity":56,"Duration":258620,"SoundDuration":258620,"Delta":703010570},{"NoteNumber":74,"Velocity":59,"Duration":258620,"SoundDuration":258620,"Delta":703269191},{"NoteNumber":71,"Velocity":54,"Duration":277777,"SoundDuration":277777,"Delta":703527812},{"NoteNumber":78,"Velocity":70,"Duration":254237,"SoundDuration":254237,"Delta":703805590},{"NoteNumber":57,"Velocity":45,"Duration":1080508,"SoundDuration":1080508,"Delta":703805590},{"NoteNumber":64,"Velocity":53,"Duration":1080508,"SoundDuration":1080508,"Delta":703805590},{"NoteNumber":61,"Velocity":45,"Duration":1080508,"SoundDuration":1080508,"Delta":703805590},{"NoteNumber":76,"Velocity":56,"Duration":254237,"SoundDuration":254237,"Delta":704059827},{"NoteNumber":73,"Velocity":60,"Duration":254237,"SoundDuration":254237,"Delta":704314064},{"NoteNumber":69,"Velocity":55,"Duration":317796,"SoundDuration":317796,"Delta":704568301},{"NoteNumber":73,"Velocity":71,"Duration":1143947,"SoundDuration":1143947,"Delta":704886098},{"NoteNumber":61,"Velocity":57,"Duration":1143947,"SoundDuration":1143947,"Delta":704886098},{"NoteNumber":52,"Velocity":43,"Duration":2263665,"SoundDuration":2263665,"Delta":704886098},{"NoteNumber":57,"Velocity":48,"Duration":1143947,"SoundDuration":1143947,"Delta":704886098},{"NoteNumber":71,"Velocity":61,"Duration":285986,"SoundDuration":285986,"Delta":706030045},{"NoteNumber":56,"Velocity":43,"Duration":1119718,"SoundDuration":1119718,"Delta":706030045},{"NoteNumber":59,"Velocity":51,"Duration":1119718,"SoundDuration":1119718,"Delta":706030045},{"NoteNumber":64,"Velocity":44,"Duration":285986,"SoundDuration":285986,"Delta":706316032},{"NoteNumber":76,"Velocity":53,"Duration":273267,"SoundDuration":273267,"Delta":706602018},{"NoteNumber":64,"Velocity":40,"Duration":274478,"SoundDuration":274478,"Delta":706875286},{"NoteNumber":75,"Velocity":51,"Duration":278466,"SoundDuration":278466,"Delta":707149764},{"NoteNumber":64,"Velocity":39,"Duration":281723,"SoundDuration":281723,"Delta":707428230},{"NoteNumber":74,"Velocity":52,"Duration":285928,"SoundDuration":285928,"Delta":707709953},{"NoteNumber":64,"Velocity":40,"Duration":289757,"SoundDuration":289757,"Delta":707995881},{"NoteNumber":73,"Velocity":55,"Duration":1124213,"SoundDuration":1124213,"Delta":708285639},{"NoteNumber":57,"Velocity":37,"Duration":283018,"SoundDuration":283018,"Delta":708285639},{"NoteNumber":64,"Velocity":29,"Duration":283018,"SoundDuration":283018,"Delta":708568657},{"NoteNumber":61,"Velocity":33,"Duration":280398,"SoundDuration":280398,"Delta":708851676},{"NoteNumber":64,"Velocity":28,"Duration":277777,"SoundDuration":277777,"Delta":709132074},{"NoteNumber":73,"Velocity":51,"Duration":1322492,"SoundDuration":1322492,"Delta":709409852},{"NoteNumber":57,"Velocity":42,"Duration":283018,"SoundDuration":283018,"Delta":709409852},{"NoteNumber":64,"Velocity":33,"Duration":263157,"SoundDuration":263157,"Delta":709692871},{"NoteNumber":61,"Velocity":37,"Duration":263157,"SoundDuration":263157,"Delta":709956029},{"NoteNumber":64,"Velocity":28,"Duration":263158,"SoundDuration":263158,"Delta":710219187},{"NoteNumber":57,"Velocity":42,"Duration":250000,"SoundDuration":250000,"Delta":710482345},{"NoteNumber":74,"Velocity":48,"Duration":83333,"SoundDuration":83333,"Delta":710732345},{"NoteNumber":64,"Velocity":30,"Duration":250000,"SoundDuration":250000,"Delta":710732345},{"NoteNumber":73,"Velocity":47,"Duration":83333,"SoundDuration":83333,"Delta":710815678},{"NoteNumber":71,"Velocity":47,"Duration":83333,"SoundDuration":83333,"Delta":710899011},{"NoteNumber":73,"Velocity":47,"Duration":272727,"SoundDuration":272727,"Delta":710982345},{"NoteNumber":59,"Velocity":37,"Duration":272727,"SoundDuration":272727,"Delta":710982345},{"NoteNumber":74,"Velocity":51,"Duration":288461,"SoundDuration":288461,"Delta":711255072},{"NoteNumber":64,"Velocity":30,"Duration":288461,"SoundDuration":288461,"Delta":711255072},{"NoteNumber":78,"Velocity":54,"Duration":517241,"SoundDuration":517241,"Delta":711543534},{"NoteNumber":61,"Velocity":44,"Duration":258620,"SoundDuration":258620,"Delta":711543534},{"NoteNumber":64,"Velocity":27,"Duration":258620,"SoundDuration":258620,"Delta":711802154},{"NoteNumber":76,"Velocity":51,"Duration":272727,"SoundDuration":272727,"Delta":712060775},{"NoteNumber":57,"Velocity":31,"Duration":272727,"SoundDuration":272727,"Delta":712060775},{"NoteNumber":64,"Velocity":27,"Duration":288461,"SoundDuration":288461,"Delta":712333502},{"NoteNumber":87,"Velocity":61,"Duration":535714,"SoundDuration":535714,"Delta":712621964},{"NoteNumber":61,"Velocity":34,"Duration":267857,"SoundDuration":267857,"Delta":712621964},{"NoteNumber":64,"Velocity":26,"Duration":267857,"SoundDuration":267857,"Delta":712889821},{"NoteNumber":88,"Velocity":57,"Duration":293312,"SoundDuration":293312,"Delta":713157678},{"NoteNumber":57,"Velocity":28,"Duration":293312,"SoundDuration":293312,"Delta":713157678},{"NoteNumber":64,"Velocity":26,"Duration":293312,"SoundDuration":293312,"Delta":713450991},{"NoteNumber":76,"Velocity":51,"Duration":146656,"SoundDuration":146656,"Delta":713597647},{"NoteNumber":78,"Velocity":57,"Duration":254237,"SoundDuration":254237,"Delta":713744303},{"NoteNumber":61,"Velocity":37,"Duration":254237,"SoundDuration":254237,"Delta":713744303},{"NoteNumber":76,"Velocity":51,"Duration":254237,"SoundDuration":254237,"Delta":713998541},{"NoteNumber":64,"Velocity":29,"Duration":254237,"SoundDuration":254237,"Delta":713998541},{"NoteNumber":74,"Velocity":51,"Duration":254237,"SoundDuration":254237,"Delta":714252778},{"NoteNumber":57,"Velocity":32,"Duration":254237,"SoundDuration":254237,"Delta":714252778},{"NoteNumber":73,"Velocity":51,"Duration":279999,"SoundDuration":279999,"Delta":714507015},{"NoteNumber":64,"Velocity":28,"Duration":299999,"SoundDuration":299999,"Delta":714507015},{"NoteNumber":73,"Velocity":55,"Duration":526315,"SoundDuration":526315,"Delta":714807015},{"NoteNumber":56,"Velocity":37,"Duration":263157,"SoundDuration":263157,"Delta":714807015},{"NoteNumber":64,"Velocity":30,"Duration":263157,"SoundDuration":263157,"Delta":715070173},{"NoteNumber":71,"Velocity":55,"Duration":1071524,"SoundDuration":1071524,"Delta":715333331},{"NoteNumber":63,"Velocity":33,"Duration":267905,"SoundDuration":267905,"Delta":715333331},{"NoteNumber":64,"Velocity":29,"Duration":267904,"SoundDuration":267904,"Delta":715601236},{"NoteNumber":56,"Velocity":37,"Duration":267857,"SoundDuration":267857,"Delta":715869141},{"NoteNumber":64,"Velocity":30,"Duration":267857,"SoundDuration":267857,"Delta":716136998},{"NoteNumber":71,"Velocity":51,"Duration":960456,"SoundDuration":960456,"Delta":716404856},{"NoteNumber":63,"Velocity":33,"Duration":263238,"SoundDuration":263238,"Delta":716404856},{"NoteNumber":64,"Velocity":28,"Duration":258620,"SoundDuration":258620,"Delta":716668095},{"NoteNumber":56,"Velocity":37,"Duration":263157,"SoundDuration":263157,"Delta":716926715},{"NoteNumber":73,"Velocity":47,"Duration":87719,"SoundDuration":87719,"Delta":717189873},{"NoteNumber":64,"Velocity":30,"Duration":263157,"SoundDuration":263157,"Delta":717189873},{"NoteNumber":71,"Velocity":47,"Duration":175438,"SoundDuration":175438,"Delta":717277593},{"NoteNumber":70,"Velocity":47,"Duration":87719,"SoundDuration":87719,"Delta":717365312},{"NoteNumber":71,"Velocity":51,"Duration":283018,"SoundDuration":283018,"Delta":717453031},{"NoteNumber":57,"Velocity":33,"Duration":283018,"SoundDuration":283018,"Delta":717453031},{"NoteNumber":73,"Velocity":51,"Duration":299999,"SoundDuration":299999,"Delta":717736050},{"NoteNumber":64,"Velocity":28,"Duration":299999,"SoundDuration":299999,"Delta":717736050},{"NoteNumber":76,"Velocity":54,"Duration":517241,"SoundDuration":517241,"Delta":718036050},{"NoteNumber":59,"Velocity":37,"Duration":258620,"SoundDuration":258620,"Delta":718036050},{"NoteNumber":64,"Velocity":28,"Duration":258620,"SoundDuration":258620,"Delta":718294671},{"NoteNumber":74,"Velocity":51,"Duration":277777,"SoundDuration":277777,"Delta":718553292},{"NoteNumber":63,"Velocity":31,"Duration":277777,"SoundDuration":277777,"Delta":718553292},{"NoteNumber":64,"Velocity":27,"Duration":277777,"SoundDuration":277777,"Delta":718831069},{"NoteNumber":85,"Velocity":60,"Duration":535714,"SoundDuration":535714,"Delta":719108847},{"NoteNumber":56,"Velocity":34,"Duration":267857,"SoundDuration":267857,"Delta":719108847},{"NoteNumber":64,"Velocity":25,"Duration":267857,"SoundDuration":267857,"Delta":719376704},{"NoteNumber":86,"Velocity":57,"Duration":288461,"SoundDuration":288461,"Delta":719644562},{"NoteNumber":59,"Velocity":28,"Duration":288461,"SoundDuration":288461,"Delta":719644562},{"NoteNumber":64,"Velocity":25,"Duration":288461,"SoundDuration":288461,"Delta":719933023},{"NoteNumber":74,"Velocity":51,"Duration":144230,"SoundDuration":144230,"Delta":720077254},{"NoteNumber":76,"Velocity":57,"Duration":263157,"SoundDuration":263157,"Delta":720221485},{"NoteNumber":52,"Velocity":40,"Duration":263157,"SoundDuration":263157,"Delta":720221485},{"NoteNumber":74,"Velocity":51,"Duration":263157,"SoundDuration":263157,"Delta":720484643},{"NoteNumber":64,"Velocity":30,"Duration":263157,"SoundDuration":263157,"Delta":720484643},{"NoteNumber":73,"Velocity":51,"Duration":263158,"SoundDuration":263158,"Delta":720747801},{"NoteNumber":56,"Velocity":33,"Duration":263158,"SoundDuration":263158,"Delta":720747801},{"NoteNumber":71,"Velocity":51,"Duration":259615,"SoundDuration":259615,"Delta":721010959},{"NoteNumber":64,"Velocity":29,"Duration":288461,"SoundDuration":288461,"Delta":721010959},{"NoteNumber":71,"Velocity":57,"Duration":531347,"SoundDuration":531347,"Delta":721299420},{"NoteNumber":54,"Velocity":39,"Duration":272727,"SoundDuration":272727,"Delta":721299420},{"NoteNumber":64,"Velocity":28,"Duration":258620,"SoundDuration":258620,"Delta":721572147},{"NoteNumber":69,"Velocity":54,"Duration":778284,"SoundDuration":778284,"Delta":721830768},{"NoteNumber":63,"Velocity":31,"Duration":258697,"SoundDuration":258697,"Delta":721830768},{"NoteNumber":64,"Velocity":30,"Duration":256429,"SoundDuration":256429,"Delta":722089466},{"NoteNumber":54,"Velocity":42,"Duration":263157,"SoundDuration":263157,"Delta":722345895},{"NoteNumber":69,"Velocity":57,"Duration":263157,"SoundDuration":263157,"Delta":722609053},{"NoteNumber":64,"Velocity":34,"Duration":263157,"SoundDuration":263157,"Delta":722609053},{"NoteNumber":74,"Velocity":61,"Duration":278965,"SoundDuration":278965,"Delta":722872211},{"NoteNumber":63,"Velocity":36,"Duration":278965,"SoundDuration":278965,"Delta":722872211},{"NoteNumber":73,"Velocity":57,"Duration":313413,"SoundDuration":313413,"Delta":723151177},{"NoteNumber":64,"Velocity":33,"Duration":313413,"SoundDuration":313413,"Delta":723151177},{"NoteNumber":70,"Velocity":61,"Duration":263157,"SoundDuration":263157,"Delta":723464591},{"NoteNumber":56,"Velocity":42,"Duration":263157,"SoundDuration":263157,"Delta":723464591},{"NoteNumber":71,"Velocity":57,"Duration":263157,"SoundDuration":263157,"Delta":723727749},{"NoteNumber":64,"Velocity":33,"Duration":263157,"SoundDuration":263157,"Delta":723727749},{"NoteNumber":76,"Velocity":57,"Duration":263158,"SoundDuration":263158,"Delta":723990907},{"NoteNumber":63,"Velocity":36,"Duration":263158,"SoundDuration":263158,"Delta":723990907},{"NoteNumber":74,"Velocity":57,"Duration":263157,"SoundDuration":263157,"Delta":724254065},{"NoteNumber":64,"Velocity":34,"Duration":263157,"SoundDuration":263157,"Delta":724254065},{"NoteNumber":72,"Velocity":60,"Duration":277777,"SoundDuration":277777,"Delta":724517223},{"NoteNumber":57,"Velocity":42,"Duration":1095108,"SoundDuration":1095108,"Delta":724517223},{"NoteNumber":73,"Velocity":57,"Duration":277777,"SoundDuration":277777,"Delta":724795000},{"NoteNumber":81,"Velocity":60,"Duration":236842,"SoundDuration":236842,"Delta":725072778},{"NoteNumber":81,"Velocity":61,"Duration":247431,"SoundDuration":247431,"Delta":725335936},{"NoteNumber":81,"Velocity":62,"Duration":241236,"SoundDuration":241236,"Delta":725612331},{"NoteNumber":81,"Velocity":64,"Duration":259092,"SoundDuration":259092,"Delta":725880353},{"NoteNumber":81,"Velocity":66,"Duration":267301,"SoundDuration":267301,"Delta":726168777},{"NoteNumber":81,"Velocity":68,"Duration":276077,"SoundDuration":276077,"Delta":726466181},{"NoteNumber":81,"Velocity":69,"Duration":283018,"SoundDuration":283018,"Delta":726773180},{"NoteNumber":50,"Velocity":37,"Duration":1132074,"SoundDuration":1132074,"Delta":726773180},{"NoteNumber":54,"Velocity":43,"Duration":1132074,"SoundDuration":1132074,"Delta":726773180},{"NoteNumber":59,"Velocity":51,"Duration":1132074,"SoundDuration":1132074,"Delta":726773180},{"NoteNumber":78,"Velocity":57,"Duration":283018,"SoundDuration":283018,"Delta":727056199},{"NoteNumber":74,"Velocity":62,"Duration":283018,"SoundDuration":283018,"Delta":727339217},{"NoteNumber":71,"Velocity":55,"Duration":283018,"SoundDuration":283018,"Delta":727622236},{"NoteNumber":76,"Velocity":64,"Duration":297088,"SoundDuration":297088,"Delta":727905255},{"NoteNumber":52,"Velocity":44,"Duration":3536323,"SoundDuration":3536323,"Delta":727905255},{"NoteNumber":57,"Velocity":44,"Duration":2299465,"SoundDuration":2299465,"Delta":727905255},{"NoteNumber":61,"Velocity":54,"Duration":2299465,"SoundDuration":2299465,"Delta":727905255},{"NoteNumber":78,"Velocity":59,"Duration":99029,"SoundDuration":99029,"Delta":728202343},{"NoteNumber":76,"Velocity":59,"Duration":99029,"SoundDuration":99029,"Delta":728301373},{"NoteNumber":75,"Velocity":59,"Duration":99029,"SoundDuration":99029,"Delta":728400402},{"NoteNumber":76,"Velocity":64,"Duration":297088,"SoundDuration":297088,"Delta":728499432},{"NoteNumber":78,"Velocity":61,"Duration":297088,"SoundDuration":297088,"Delta":728796520},{"NoteNumber":69,"Velocity":66,"Duration":1729540,"SoundDuration":1729540,"Delta":729093609},{"NoteNumber":62,"Velocity":46,"Duration":1236857,"SoundDuration":1236857,"Delta":730204720},{"NoteNumber":59,"Velocity":34,"Duration":1236857,"SoundDuration":1236857,"Delta":730204720},{"NoteNumber":68,"Velocity":45,"Duration":587507,"SoundDuration":587507,"Delta":730823149},{"NoteNumber":71,"Velocity":45,"Duration":587507,"SoundDuration":587507,"Delta":730823149},{"NoteNumber":71,"Velocity":52,"Duration":1812846,"SoundDuration":1812846,"Delta":731441578},{"NoteNumber":68,"Velocity":52,"Duration":2414893,"SoundDuration":2414893,"Delta":731441578},{"NoteNumber":62,"Velocity":33,"Duration":2414893,"SoundDuration":2414893,"Delta":731441578},{"NoteNumber":57,"Velocity":33,"Duration":3634901,"SoundDuration":3634901,"Delta":731441578},{"NoteNumber":64,"Velocity":39,"Duration":3558650,"SoundDuration":3558650,"Delta":731441578},{"NoteNumber":72,"Velocity":51,"Duration":602046,"SoundDuration":602046,"Delta":733254424},{"NoteNumber":69,"Velocity":51,"Duration":1067506,"SoundDuration":1067506,"Delta":733856471},{"NoteNumber":73,"Velocity":51,"Duration":1067506,"SoundDuration":1067506,"Delta":733856471},{"NoteNumber":61,"Velocity":39,"Duration":1220008,"SoundDuration":1220008,"Delta":733856471},{"NoteNumber":64,"Velocity":61,"Duration":152501,"SoundDuration":152501,"Delta":734923978},{"NoteNumber":69,"Velocity":62,"Duration":76250,"SoundDuration":76250,"Delta":735000228},{"NoteNumber":73,"Velocity":68,"Duration":1291334,"SoundDuration":1291334,"Delta":735076479},{"NoteNumber":45,"Velocity":61,"Duration":277777,"SoundDuration":277777,"Delta":735076479},{"NoteNumber":49,"Velocity":51,"Duration":277777,"SoundDuration":277777,"Delta":735354257},{"NoteNumber":52,"Velocity":54,"Duration":277777,"SoundDuration":277777,"Delta":735632034},{"NoteNumber":57,"Velocity":51,"Duration":277777,"SoundDuration":277777,"Delta":735909812},{"NoteNumber":45,"Velocity":61,"Duration":267942,"SoundDuration":267942,"Delta":736187590},{"NoteNumber":76,"Velocity":63,"Duration":175438,"SoundDuration":175438,"Delta":736367813},{"NoteNumber":49,"Velocity":51,"Duration":263157,"SoundDuration":263157,"Delta":736455533},{"NoteNumber":74,"Velocity":63,"Duration":175438,"SoundDuration":175438,"Delta":736543252},{"NoteNumber":73,"Velocity":66,"Duration":175438,"SoundDuration":175438,"Delta":736718691},{"NoteNumber":52,"Velocity":54,"Duration":263158,"SoundDuration":263158,"Delta":736718691},{"NoteNumber":74,"Velocity":62,"Duration":175438,"SoundDuration":175438,"Delta":736894129},{"NoteNumber":57,"Velocity":51,"Duration":263157,"SoundDuration":263157,"Delta":736981849},{"NoteNumber":76,"Velocity":62,"Duration":175438,"SoundDuration":175438,"Delta":737069568},{"NoteNumber":74,"Velocity":66,"Duration":175438,"SoundDuration":175438,"Delta":737245007},{"NoteNumber":47,"Velocity":61,"Duration":263157,"SoundDuration":263157,"Delta":737245007},{"NoteNumber":78,"Velocity":62,"Duration":175438,"SoundDuration":175438,"Delta":737420445},{"NoteNumber":50,"Velocity":52,"Duration":263157,"SoundDuration":263157,"Delta":737508165},{"NoteNumber":76,"Velocity":62,"Duration":175438,"SoundDuration":175438,"Delta":737595884},{"NoteNumber":74,"Velocity":66,"Duration":175438,"SoundDuration":175438,"Delta":737771323},{"NoteNumber":56,"Velocity":56,"Duration":263157,"SoundDuration":263157,"Delta":737771323},{"NoteNumber":76,"Velocity":63,"Duration":175438,"SoundDuration":175438,"Delta":737946761},{"NoteNumber":59,"Velocity":51,"Duration":273571,"SoundDuration":273571,"Delta":738034481},{"NoteNumber":78,"Velocity":63,"Duration":185852,"SoundDuration":185852,"Delta":738122200},{"NoteNumber":76,"Velocity":62,"Duration":138888,"SoundDuration":138888,"Delta":738308052},{"NoteNumber":49,"Velocity":51,"Duration":2197620,"SoundDuration":2197620,"Delta":738308052},{"NoteNumber":57,"Velocity":61,"Duration":2197620,"SoundDuration":2197620,"Delta":738308052},{"NoteNumber":69,"Velocity":63,"Duration":138888,"SoundDuration":138888,"Delta":738446941},{"NoteNumber":71,"Velocity":64,"Duration":138888,"SoundDuration":138888,"Delta":738585830},{"NoteNumber":73,"Velocity":65,"Duration":138888,"SoundDuration":138888,"Delta":738724719},{"NoteNumber":74,"Velocity":65,"Duration":138888,"SoundDuration":138888,"Delta":738863608},{"NoteNumber":76,"Velocity":65,"Duration":133492,"SoundDuration":133492,"Delta":739002497},{"NoteNumber":78,"Velocity":66,"Duration":136363,"SoundDuration":136363,"Delta":739135989},{"NoteNumber":80,"Velocity":67,"Duration":136363,"SoundDuration":136363,"Delta":739272353},{"NoteNumber":81,"Velocity":68,"Duration":136363,"SoundDuration":136363,"Delta":739408717},{"NoteNumber":83,"Velocity":69,"Duration":136363,"SoundDuration":136363,"Delta":739545080},{"NoteNumber":85,"Velocity":70,"Duration":136363,"SoundDuration":136363,"Delta":739681444},{"NoteNumber":83,"Velocity":71,"Duration":136363,"SoundDuration":136363,"Delta":739817808},{"NoteNumber":81,"Velocity":71,"Duration":133928,"SoundDuration":133928,"Delta":739954171},{"NoteNumber":80,"Velocity":70,"Duration":138372,"SoundDuration":138372,"Delta":740088100},{"NoteNumber":78,"Velocity":70,"Duration":139483,"SoundDuration":139483,"Delta":740226472},{"NoteNumber":77,"Velocity":69,"Duration":139717,"SoundDuration":139717,"Delta":740365955},{"NoteNumber":78,"Velocity":68,"Duration":141243,"SoundDuration":141243,"Delta":740505673},{"NoteNumber":50,"Velocity":56,"Duration":1142709,"SoundDuration":1142709,"Delta":740505673},{"NoteNumber":57,"Velocity":66,"Duration":1142709,"SoundDuration":1142709,"Delta":740505673},{"NoteNumber":80,"Velocity":67,"Duration":141243,"SoundDuration":141243,"Delta":740646916},{"NoteNumber":81,"Velocity":65,"Duration":141243,"SoundDuration":141243,"Delta":740788159},{"NoteNumber":80,"Velocity":64,"Duration":142876,"SoundDuration":142876,"Delta":740929402},{"NoteNumber":83,"Velocity":62,"Duration":142993,"SoundDuration":142993,"Delta":741072278},{"NoteNumber":81,"Velocity":61,"Duration":143479,"SoundDuration":143479,"Delta":741215272},{"NoteNumber":80,"Velocity":59,"Duration":144815,"SoundDuration":144815,"Delta":741358751},{"NoteNumber":78,"Velocity":58,"Duration":144815,"SoundDuration":144815,"Delta":741503567},{"NoteNumber":76,"Velocity":62,"Duration":144815,"SoundDuration":144815,"Delta":741648382},{"NoteNumber":52,"Velocity":35,"Duration":1176286,"SoundDuration":1176286,"Delta":741648382},{"NoteNumber":61,"Velocity":42,"Duration":1176286,"SoundDuration":1176286,"Delta":741648382},{"NoteNumber":88,"Velocity":52,"Duration":289631,"SoundDuration":289631,"Delta":741938014},{"NoteNumber":85,"Velocity":52,"Duration":287808,"SoundDuration":287808,"Delta":742227645},{"NoteNumber":81,"Velocity":60,"Duration":309214,"SoundDuration":309214,"Delta":742515454},{"NoteNumber":76,"Velocity":52,"Duration":161117,"SoundDuration":161117,"Delta":742824668},{"NoteNumber":52,"Velocity":35,"Duration":1212004,"SoundDuration":1212004,"Delta":742824668},{"NoteNumber":61,"Velocity":42,"Duration":1212004,"SoundDuration":1212004,"Delta":742824668},{"NoteNumber":81,"Velocity":52,"Duration":285986,"SoundDuration":285986,"Delta":743146903},{"NoteNumber":76,"Velocity":51,"Duration":285986,"SoundDuration":285986,"Delta":743432889},{"NoteNumber":73,"Velocity":51,"Duration":317796,"SoundDuration":317796,"Delta":743718876},{"NoteNumber":76,"Velocity":57,"Duration":317796,"SoundDuration":317796,"Delta":744036673},{"NoteNumber":52,"Velocity":31,"Duration":1491808,"SoundDuration":1491808,"Delta":744036673},{"NoteNumber":56,"Velocity":31,"Duration":1491808,"SoundDuration":1491808,"Delta":744036673},{"NoteNumber":62,"Velocity":37,"Duration":1491808,"SoundDuration":1491808,"Delta":744036673},{"NoteNumber":74,"Velocity":47,"Duration":319148,"SoundDuration":319148,"Delta":744354469},{"NoteNumber":73,"Velocity":51,"Duration":319149,"SoundDuration":319149,"Delta":744673618},{"NoteNumber":71,"Velocity":46,"Duration":508928,"SoundDuration":508928,"Delta":744992767},{"NoteNumber":64,"Velocity":32,"Duration":1818181,"SoundDuration":1818181,"Delta":745528481},{"NoteNumber":68,"Velocity":36,"Duration":1818181,"SoundDuration":1818181,"Delta":745528481},{"NoteNumber":71,"Velocity":41,"Duration":1818181,"SoundDuration":1818181,"Delta":745528481},{"NoteNumber":57,"Velocity":24,"Duration":3636363,"SoundDuration":3636363,"Delta":745528481},{"NoteNumber":62,"Velocity":28,"Duration":1818181,"SoundDuration":1818181,"Delta":745528481},{"NoteNumber":69,"Velocity":34,"Duration":1818181,"SoundDuration":1818181,"Delta":747346663},{"NoteNumber":61,"Velocity":22,"Duration":1818181,"SoundDuration":1818181,"Delta":747346663},{"NoteNumber":73,"Velocity":50,"Duration":57251,"SoundDuration":57251,"Delta":753886253},{"NoteNumber":57,"Velocity":41,"Duration":226103,"SoundDuration":226103,"Delta":753886253},{"NoteNumber":74,"Velocity":47,"Duration":27173,"SoundDuration":27173,"Delta":754085183},{"NoteNumber":73,"Velocity":47,"Duration":107913,"SoundDuration":107913,"Delta":754112357},{"NoteNumber":64,"Velocity":32,"Duration":215827,"SoundDuration":215827,"Delta":754112357},{"NoteNumber":71,"Velocity":52,"Duration":107913,"SoundDuration":107913,"Delta":754220271},{"NoteNumber":73,"Velocity":47,"Duration":53191,"SoundDuration":53191,"Delta":754328184},{"NoteNumber":59,"Velocity":37,"Duration":212765,"SoundDuration":212765,"Delta":754328184},{"NoteNumber":74,"Velocity":51,"Duration":54347,"SoundDuration":54347,"Delta":754540950},{"NoteNumber":64,"Velocity":32,"Duration":217391,"SoundDuration":217391,"Delta":754540950},{"NoteNumber":78,"Velocity":53,"Duration":225563,"SoundDuration":225563,"Delta":754758342},{"NoteNumber":61,"Velocity":42,"Duration":225563,"SoundDuration":225563,"Delta":754758342},{"NoteNumber":76,"Velocity":46,"Duration":215827,"SoundDuration":215827,"Delta":754983906},{"NoteNumber":64,"Velocity":33,"Duration":215827,"SoundDuration":215827,"Delta":754983906},{"NoteNumber":74,"Velocity":51,"Duration":53956,"SoundDuration":53956,"Delta":755199733},{"NoteNumber":57,"Velocity":36,"Duration":215827,"SoundDuration":215827,"Delta":755199733},{"NoteNumber":73,"Velocity":49,"Duration":56390,"SoundDuration":56390,"Delta":755415561},{"NoteNumber":64,"Velocity":33,"Duration":225563,"SoundDuration":225563,"Delta":755415561},{"NoteNumber":71,"Velocity":50,"Duration":57692,"SoundDuration":57692,"Delta":755641125},{"NoteNumber":56,"Velocity":42,"Duration":226648,"SoundDuration":226648,"Delta":755641125},{"NoteNumber":73,"Velocity":46,"Duration":26785,"SoundDuration":26785,"Delta":755840987},{"NoteNumber":71,"Velocity":46,"Duration":107142,"SoundDuration":107142,"Delta":755867773},{"NoteNumber":64,"Velocity":33,"Duration":214285,"SoundDuration":214285,"Delta":755867773},{"NoteNumber":70,"Velocity":50,"Duration":107142,"SoundDuration":107142,"Delta":755974916},{"NoteNumber":71,"Velocity":46,"Duration":53191,"SoundDuration":53191,"Delta":756082058},{"NoteNumber":57,"Velocity":36,"Duration":212765,"SoundDuration":212765,"Delta":756082058},{"NoteNumber":73,"Velocity":47,"Duration":53956,"SoundDuration":53956,"Delta":756294824},{"NoteNumber":64,"Velocity":33,"Duration":215827,"SoundDuration":215827,"Delta":756294824},{"NoteNumber":76,"Velocity":50,"Duration":223880,"SoundDuration":223880,"Delta":756510652},{"NoteNumber":59,"Velocity":42,"Duration":223880,"SoundDuration":223880,"Delta":756510652},{"NoteNumber":74,"Velocity":47,"Duration":215827,"SoundDuration":215827,"Delta":756734532},{"NoteNumber":64,"Velocity":31,"Duration":215827,"SoundDuration":215827,"Delta":756734532},{"NoteNumber":73,"Velocity":47,"Duration":53956,"SoundDuration":53956,"Delta":756950360},{"NoteNumber":62,"Velocity":35,"Duration":215827,"SoundDuration":215827,"Delta":756950360},{"NoteNumber":71,"Velocity":47,"Duration":56390,"SoundDuration":56390,"Delta":757166187},{"NoteNumber":64,"Velocity":31,"Duration":225563,"SoundDuration":225563,"Delta":757166187},{"NoteNumber":68,"Velocity":53,"Duration":215827,"SoundDuration":215827,"Delta":757391751},{"NoteNumber":61,"Velocity":40,"Duration":215827,"SoundDuration":215827,"Delta":757391751},{"NoteNumber":69,"Velocity":50,"Duration":55970,"SoundDuration":55970,"Delta":757607579},{"NoteNumber":64,"Velocity":31,"Duration":223880,"SoundDuration":223880,"Delta":757607579},{"NoteNumber":61,"Velocity":34,"Duration":215827,"SoundDuration":215827,"Delta":757831459},{"NoteNumber":70,"Velocity":50,"Duration":55555,"SoundDuration":55555,"Delta":758047287},{"NoteNumber":64,"Velocity":31,"Duration":222221,"SoundDuration":222221,"Delta":758047287},{"NoteNumber":56,"Velocity":39,"Duration":215827,"SoundDuration":215827,"Delta":758269509},{"NoteNumber":71,"Velocity":50,"Duration":55147,"SoundDuration":55147,"Delta":758485336},{"NoteNumber":64,"Velocity":31,"Duration":220588,"SoundDuration":220588,"Delta":758485336},{"NoteNumber":56,"Velocity":33,"Duration":215827,"SoundDuration":215827,"Delta":758705924},{"NoteNumber":72,"Velocity":50,"Duration":55970,"SoundDuration":55970,"Delta":758921752},{"NoteNumber":64,"Velocity":31,"Duration":223880,"SoundDuration":223880,"Delta":758921752},{"NoteNumber":74,"Velocity":41,"Duration":27985,"SoundDuration":27985,"Delta":759117647},{"NoteNumber":73,"Velocity":54,"Duration":53956,"SoundDuration":53956,"Delta":759145632},{"NoteNumber":57,"Velocity":40,"Duration":215827,"SoundDuration":215827,"Delta":759145632},{"NoteNumber":73,"Velocity":50,"Duration":53956,"SoundDuration":53956,"Delta":759361460},{"NoteNumber":64,"Velocity":31,"Duration":215827,"SoundDuration":215827,"Delta":759361460},{"NoteNumber":76,"Velocity":41,"Duration":26978,"SoundDuration":26978,"Delta":759550309},{"NoteNumber":74,"Velocity":50,"Duration":54744,"SoundDuration":54744,"Delta":759577287},{"NoteNumber":59,"Velocity":34,"Duration":218977,"SoundDuration":218977,"Delta":759577287},{"NoteNumber":74,"Velocity":50,"Duration":57251,"SoundDuration":57251,"Delta":759796265},{"NoteNumber":64,"Velocity":31,"Duration":229007,"SoundDuration":229007,"Delta":759796265},{"NoteNumber":73,"Velocity":55,"Duration":437955,"SoundDuration":437955,"Delta":760025273},{"NoteNumber":57,"Velocity":38,"Duration":437955,"SoundDuration":437955,"Delta":760025273},{"NoteNumber":52,"Velocity":31,"Duration":661836,"SoundDuration":661836,"Delta":760025273},{"NoteNumber":71,"Velocity":50,"Duration":223880,"SoundDuration":223880,"Delta":760463229},{"NoteNumber":56,"Velocity":41,"Duration":223880,"SoundDuration":223880,"Delta":760463229},{"NoteNumber":33,"Velocity":64,"Duration":299782,"SoundDuration":299782,"Delta":760827035},{"NoteNumber":37,"Velocity":70,"Duration":271797,"SoundDuration":271797,"Delta":760855020},{"NoteNumber":40,"Velocity":75,"Duration":243812,"SoundDuration":243812,"Delta":760883005},{"NoteNumber":73,"Velocity":78,"Duration":107913,"SoundDuration":107913,"Delta":760910990},{"NoteNumber":45,"Velocity":80,"Duration":215827,"SoundDuration":215827,"Delta":760910990},{"NoteNumber":69,"Velocity":63,"Duration":107913,"SoundDuration":107913,"Delta":761018904},{"NoteNumber":64,"Velocity":63,"Duration":107913,"SoundDuration":107913,"Delta":761126817},{"NoteNumber":69,"Velocity":63,"Duration":107913,"SoundDuration":107913,"Delta":761234731},{"NoteNumber":73,"Velocity":78,"Duration":107913,"SoundDuration":107913,"Delta":761342645},{"NoteNumber":69,"Velocity":64,"Duration":107913,"SoundDuration":107913,"Delta":761450559},{"NoteNumber":74,"Velocity":78,"Duration":111940,"SoundDuration":111940,"Delta":761558472},{"NoteNumber":71,"Velocity":64,"Duration":111940,"SoundDuration":111940,"Delta":761670413},{"NoteNumber":57,"Velocity":58,"Duration":295222,"SoundDuration":295222,"Delta":761698398},{"NoteNumber":61,"Velocity":62,"Duration":267237,"SoundDuration":267237,"Delta":761726383},{"NoteNumber":64,"Velocity":68,"Duration":239252,"SoundDuration":239252,"Delta":761754368},{"NoteNumber":76,"Velocity":79,"Duration":105633,"SoundDuration":105633,"Delta":761782353},{"NoteNumber":69,"Velocity":71,"Duration":211267,"SoundDuration":211267,"Delta":761782353},{"NoteNumber":73,"Velocity":66,"Duration":105633,"SoundDuration":105633,"Delta":761887987},{"NoteNumber":76,"Velocity":81,"Duration":105633,"SoundDuration":105633,"Delta":761993620},{"NoteNumber":73,"Velocity":68,"Duration":105633,"SoundDuration":105633,"Delta":762099254},{"NoteNumber":78,"Velocity":84,"Duration":109489,"SoundDuration":109489,"Delta":762204888},{"NoteNumber":76,"Velocity":82,"Duration":109488,"SoundDuration":109488,"Delta":762314377},{"NoteNumber":74,"Velocity":80,"Duration":109489,"SoundDuration":109489,"Delta":762423866},{"NoteNumber":73,"Velocity":79,"Duration":109488,"SoundDuration":109488,"Delta":762533355},{"NoteNumber":40,"Velocity":70,"Duration":297944,"SoundDuration":297944,"Delta":762560727},{"NoteNumber":44,"Velocity":72,"Duration":270572,"SoundDuration":270572,"Delta":762588099},{"NoteNumber":47,"Velocity":77,"Duration":243199,"SoundDuration":243199,"Delta":762615472},{"NoteNumber":71,"Velocity":77,"Duration":107913,"SoundDuration":107913,"Delta":762642844},{"NoteNumber":52,"Velocity":80,"Duration":215827,"SoundDuration":215827,"Delta":762642844},{"NoteNumber":68,"Velocity":64,"Duration":107913,"SoundDuration":107913,"Delta":762750758},{"NoteNumber":64,"Velocity":64,"Duration":107913,"SoundDuration":107913,"Delta":762858671},{"NoteNumber":68,"Velocity":64,"Duration":107913,"SoundDuration":107913,"Delta":762966585},{"NoteNumber":71,"Velocity":78,"Duration":107913,"SoundDuration":107913,"Delta":763074499},{"NoteNumber":68,"Velocity":63,"Duration":107913,"SoundDuration":107913,"Delta":763182413},{"NoteNumber":73,"Velocity":79,"Duration":110293,"SoundDuration":110293,"Delta":763290326},{"NoteNumber":69,"Velocity":63,"Duration":110294,"SoundDuration":110294,"Delta":763400620},{"NoteNumber":52,"Velocity":58,"Duration":293988,"SoundDuration":293988,"Delta":763428194},{"NoteNumber":56,"Velocity":68,"Duration":266414,"SoundDuration":266414,"Delta":763455767},{"NoteNumber":59,"Velocity":62,"Duration":238840,"SoundDuration":238840,"Delta":763483341},{"NoteNumber":74,"Velocity":80,"Duration":105633,"SoundDuration":105633,"Delta":763510914},{"NoteNumber":64,"Velocity":71,"Duration":211267,"SoundDuration":211267,"Delta":763510914},{"NoteNumber":71,"Velocity":64,"Duration":105633,"SoundDuration":105633,"Delta":763616548},{"NoteNumber":74,"Velocity":80,"Duration":105633,"SoundDuration":105633,"Delta":763722182},{"NoteNumber":71,"Velocity":69,"Duration":105633,"SoundDuration":105633,"Delta":763827816},{"NoteNumber":76,"Velocity":84,"Duration":107142,"SoundDuration":107142,"Delta":763933449},{"NoteNumber":74,"Velocity":84,"Duration":107142,"SoundDuration":107142,"Delta":764040592},{"NoteNumber":73,"Velocity":81,"Duration":107142,"SoundDuration":107142,"Delta":764147735},{"NoteNumber":71,"Velocity":79,"Duration":107142,"SoundDuration":107142,"Delta":764254878},{"NoteNumber":69,"Velocity":82,"Duration":111940,"SoundDuration":111940,"Delta":764362020},{"NoteNumber":42,"Velocity":80,"Duration":55970,"SoundDuration":55970,"Delta":764362020},{"NoteNumber":73,"Velocity":66,"Duration":111940,"SoundDuration":111940,"Delta":764473961},{"NoteNumber":71,"Velocity":66,"Duration":108695,"SoundDuration":108695,"Delta":764585901},{"NoteNumber":54,"Velocity":73,"Duration":54347,"SoundDuration":54347,"Delta":764585901},{"NoteNumber":69,"Velocity":66,"Duration":108695,"SoundDuration":108695,"Delta":764694597},{"NoteNumber":71,"Velocity":85,"Duration":112782,"SoundDuration":112782,"Delta":764803292},{"NoteNumber":44,"Velocity":80,"Duration":56390,"SoundDuration":56390,"Delta":764803292},{"NoteNumber":74,"Velocity":66,"Duration":112781,"SoundDuration":112781,"Delta":764916074},{"NoteNumber":73,"Velocity":66,"Duration":107913,"SoundDuration":107913,"Delta":765028856},{"NoteNumber":56,"Velocity":73,"Duration":53956,"SoundDuration":53956,"Delta":765028856},{"NoteNumber":71,"Velocity":66,"Duration":107913,"SoundDuration":107913,"Delta":765136770},{"NoteNumber":73,"Velocity":82,"Duration":110293,"SoundDuration":110293,"Delta":765244684},{"NoteNumber":57,"Velocity":75,"Duration":55147,"SoundDuration":55147,"Delta":765244684},{"NoteNumber":76,"Velocity":69,"Duration":110294,"SoundDuration":110294,"Delta":765354978},{"NoteNumber":81,"Velocity":74,"Duration":107913,"SoundDuration":107913,"Delta":765465272},{"NoteNumber":61,"Velocity":77,"Duration":53956,"SoundDuration":53956,"Delta":765465272},{"NoteNumber":76,"Velocity":69,"Duration":107913,"SoundDuration":107913,"Delta":765573186},{"NoteNumber":78,"Velocity":83,"Duration":107913,"SoundDuration":107913,"Delta":765681099},{"NoteNumber":62,"Velocity":83,"Duration":53956,"SoundDuration":53956,"Delta":765681099},{"NoteNumber":81,"Velocity":71,"Duration":107913,"SoundDuration":107913,"Delta":765789013},{"NoteNumber":74,"Velocity":71,"Duration":112782,"SoundDuration":112782,"Delta":765896927},{"NoteNumber":56,"Velocity":78,"Duration":56390,"SoundDuration":56390,"Delta":765896927},{"NoteNumber":78,"Velocity":71,"Duration":112781,"SoundDuration":112781,"Delta":766009709},{"NoteNumber":73,"Velocity":84,"Duration":108695,"SoundDuration":108695,"Delta":766122491},{"NoteNumber":57,"Velocity":84,"Duration":54347,"SoundDuration":54347,"Delta":766122491},{"NoteNumber":76,"Velocity":69,"Duration":108695,"SoundDuration":108695,"Delta":766231187},{"NoteNumber":69,"Velocity":80,"Duration":108695,"SoundDuration":108695,"Delta":766339882},{"NoteNumber":54,"Velocity":77,"Duration":54347,"SoundDuration":54347,"Delta":766339882},{"NoteNumber":73,"Velocity":69,"Duration":108695,"SoundDuration":108695,"Delta":766448578},{"NoteNumber":71,"Velocity":81,"Duration":109489,"SoundDuration":109489,"Delta":766557274},{"NoteNumber":50,"Velocity":80,"Duration":54744,"SoundDuration":54744,"Delta":766557274},{"NoteNumber":74,"Velocity":69,"Duration":109488,"SoundDuration":109488,"Delta":766666763},{"NoteNumber":68,"Velocity":81,"Duration":109489,"SoundDuration":109489,"Delta":766776252},{"NoteNumber":52,"Velocity":79,"Duration":54744,"SoundDuration":54744,"Delta":766776252},{"NoteNumber":71,"Velocity":69,"Duration":109488,"SoundDuration":109488,"Delta":766885741},{"NoteNumber":69,"Velocity":79,"Duration":110293,"SoundDuration":110293,"Delta":766995230},{"NoteNumber":45,"Velocity":75,"Duration":441176,"SoundDuration":441176,"Delta":766995230},{"NoteNumber":64,"Velocity":69,"Duration":110294,"SoundDuration":110294,"Delta":767105524},{"NoteNumber":61,"Velocity":69,"Duration":110293,"SoundDuration":110293,"Delta":767215818},{"NoteNumber":64,"Velocity":69,"Duration":110294,"SoundDuration":110294,"Delta":767326112},{"NoteNumber":69,"Velocity":82,"Duration":477273,"SoundDuration":477273,"Delta":767436406},{"NoteNumber":33,"Velocity":61,"Duration":477273,"SoundDuration":477273,"Delta":767436406},{"NoteNumber":37,"Velocity":61,"Duration":477273,"SoundDuration":477273,"Delta":767436406},{"NoteNumber":40,"Velocity":78,"Duration":477273,"SoundDuration":477273,"Delta":767436406},{"NoteNumber":73,"Velocity":50,"Duration":57251,"SoundDuration":57251,"Delta":767981861},{"NoteNumber":57,"Velocity":41,"Duration":226103,"SoundDuration":226103,"Delta":767981861},{"NoteNumber":74,"Velocity":47,"Duration":27173,"SoundDuration":27173,"Delta":768180790},{"NoteNumber":73,"Velocity":47,"Duration":107913,"SoundDuration":107913,"Delta":768207964},{"NoteNumber":64,"Velocity":32,"Duration":215827,"SoundDuration":215827,"Delta":768207964},{"NoteNumber":71,"Velocity":52,"Duration":107913,"SoundDuration":107913,"Delta":768315878},{"NoteNumber":73,"Velocity":47,"Duration":53191,"SoundDuration":53191,"Delta":768423792},{"NoteNumber":59,"Velocity":37,"Duration":212765,"SoundDuration":212765,"Delta":768423792},{"NoteNumber":74,"Velocity":51,"Duration":54347,"SoundDuration":54347,"Delta":768636558},{"NoteNumber":64,"Velocity":32,"Duration":217391,"SoundDuration":217391,"Delta":768636558},{"NoteNumber":78,"Velocity":53,"Duration":225563,"SoundDuration":225563,"Delta":768853949},{"NoteNumber":61,"Velocity":42,"Duration":225563,"SoundDuration":225563,"Delta":768853949},{"NoteNumber":76,"Velocity":46,"Duration":215827,"SoundDuration":215827,"Delta":769079513},{"NoteNumber":64,"Velocity":33,"Duration":215827,"SoundDuration":215827,"Delta":769079513},{"NoteNumber":74,"Velocity":51,"Duration":53956,"SoundDuration":53956,"Delta":769295341},{"NoteNumber":57,"Velocity":36,"Duration":215827,"SoundDuration":215827,"Delta":769295341},{"NoteNumber":73,"Velocity":49,"Duration":56390,"SoundDuration":56390,"Delta":769511168},{"NoteNumber":64,"Velocity":33,"Duration":225563,"SoundDuration":225563,"Delta":769511168},{"NoteNumber":71,"Velocity":50,"Duration":57692,"SoundDuration":57692,"Delta":769736732},{"NoteNumber":56,"Velocity":42,"Duration":226648,"SoundDuration":226648,"Delta":769736732},{"NoteNumber":73,"Velocity":46,"Duration":26785,"SoundDuration":26785,"Delta":769936595},{"NoteNumber":71,"Velocity":46,"Duration":107142,"SoundDuration":107142,"Delta":769963381},{"NoteNumber":64,"Velocity":33,"Duration":214285,"SoundDuration":214285,"Delta":769963381},{"NoteNumber":70,"Velocity":50,"Duration":107142,"SoundDuration":107142,"Delta":770070523},{"NoteNumber":71,"Velocity":46,"Duration":53191,"SoundDuration":53191,"Delta":770177666},{"NoteNumber":57,"Velocity":36,"Duration":212765,"SoundDuration":212765,"Delta":770177666},{"NoteNumber":73,"Velocity":47,"Duration":53956,"SoundDuration":53956,"Delta":770390432},{"NoteNumber":64,"Velocity":33,"Duration":215827,"SoundDuration":215827,"Delta":770390432},{"NoteNumber":76,"Velocity":50,"Duration":223880,"SoundDuration":223880,"Delta":770606260},{"NoteNumber":59,"Velocity":42,"Duration":223880,"SoundDuration":223880,"Delta":770606260},{"NoteNumber":74,"Velocity":47,"Duration":215827,"SoundDuration":215827,"Delta":770830140},{"NoteNumber":64,"Velocity":31,"Duration":215827,"SoundDuration":215827,"Delta":770830140},{"NoteNumber":73,"Velocity":47,"Duration":53956,"SoundDuration":53956,"Delta":771045968},{"NoteNumber":62,"Velocity":35,"Duration":215827,"SoundDuration":215827,"Delta":771045968},{"NoteNumber":71,"Velocity":47,"Duration":56390,"SoundDuration":56390,"Delta":771261795},{"NoteNumber":64,"Velocity":31,"Duration":225563,"SoundDuration":225563,"Delta":771261795},{"NoteNumber":68,"Velocity":53,"Duration":215827,"SoundDuration":215827,"Delta":771487359},{"NoteNumber":61,"Velocity":40,"Duration":215827,"SoundDuration":215827,"Delta":771487359},{"NoteNumber":69,"Velocity":50,"Duration":55970,"SoundDuration":55970,"Delta":771703187},{"NoteNumber":64,"Velocity":31,"Duration":223880,"SoundDuration":223880,"Delta":771703187},{"NoteNumber":61,"Velocity":34,"Duration":215827,"SoundDuration":215827,"Delta":771927067},{"NoteNumber":70,"Velocity":50,"Duration":55555,"SoundDuration":55555,"Delta":772142895},{"NoteNumber":64,"Velocity":31,"Duration":222221,"SoundDuration":222221,"Delta":772142895},{"NoteNumber":56,"Velocity":39,"Duration":215827,"SoundDuration":215827,"Delta":772365117},{"NoteNumber":71,"Velocity":50,"Duration":55147,"SoundDuration":55147,"Delta":772580944},{"NoteNumber":64,"Velocity":31,"Duration":220588,"SoundDuration":220588,"Delta":772580944},{"NoteNumber":56,"Velocity":33,"Duration":215827,"SoundDuration":215827,"Delta":772801532},{"NoteNumber":72,"Velocity":50,"Duration":55970,"SoundDuration":55970,"Delta":773017360},{"NoteNumber":64,"Velocity":31,"Duration":223880,"SoundDuration":223880,"Delta":773017360},{"NoteNumber":74,"Velocity":41,"Duration":27985,"SoundDuration":27985,"Delta":773213255},{"NoteNumber":73,"Velocity":54,"Duration":53956,"SoundDuration":53956,"Delta":773241240},{"NoteNumber":57,"Velocity":40,"Duration":215827,"SoundDuration":215827,"Delta":773241240},{"NoteNumber":73,"Velocity":50,"Duration":53956,"SoundDuration":53956,"Delta":773457068},{"NoteNumber":64,"Velocity":31,"Duration":215827,"SoundDuration":215827,"Delta":773457068},{"NoteNumber":76,"Velocity":41,"Duration":26978,"SoundDuration":26978,"Delta":773645917},{"NoteNumber":74,"Velocity":50,"Duration":54744,"SoundDuration":54744,"Delta":773672895},{"NoteNumber":59,"Velocity":34,"Duration":218977,"SoundDuration":218977,"Delta":773672895},{"NoteNumber":74,"Velocity":50,"Duration":57251,"SoundDuration":57251,"Delta":773891873},{"NoteNumber":64,"Velocity":31,"Duration":229007,"SoundDuration":229007,"Delta":773891873},{"NoteNumber":73,"Velocity":55,"Duration":437955,"SoundDuration":437955,"Delta":774120881},{"NoteNumber":57,"Velocity":38,"Duration":437955,"SoundDuration":437955,"Delta":774120881},{"NoteNumber":52,"Velocity":31,"Duration":661836,"SoundDuration":661836,"Delta":774120881},{"NoteNumber":71,"Velocity":50,"Duration":223880,"SoundDuration":223880,"Delta":774558837},{"NoteNumber":56,"Velocity":41,"Duration":223880,"SoundDuration":223880,"Delta":774558837},{"NoteNumber":33,"Velocity":59,"Duration":299782,"SoundDuration":299782,"Delta":774922642},{"NoteNumber":37,"Velocity":70,"Duration":271797,"SoundDuration":271797,"Delta":774950627},{"NoteNumber":40,"Velocity":75,"Duration":243812,"SoundDuration":243812,"Delta":774978612},{"NoteNumber":73,"Velocity":78,"Duration":107913,"SoundDuration":107913,"Delta":775006598},{"NoteNumber":45,"Velocity":80,"Duration":215827,"SoundDuration":215827,"Delta":775006598},{"NoteNumber":69,"Velocity":63,"Duration":107913,"SoundDuration":107913,"Delta":775114511},{"NoteNumber":64,"Velocity":63,"Duration":107913,"SoundDuration":107913,"Delta":775222425},{"NoteNumber":69,"Velocity":63,"Duration":107913,"SoundDuration":107913,"Delta":775330339},{"NoteNumber":73,"Velocity":78,"Duration":107913,"SoundDuration":107913,"Delta":775438253},{"NoteNumber":69,"Velocity":64,"Duration":107913,"SoundDuration":107913,"Delta":775546166},{"NoteNumber":74,"Velocity":78,"Duration":111940,"SoundDuration":111940,"Delta":775654080},{"NoteNumber":71,"Velocity":64,"Duration":111940,"SoundDuration":111940,"Delta":775766020},{"NoteNumber":57,"Velocity":58,"Duration":295222,"SoundDuration":295222,"Delta":775794005},{"NoteNumber":61,"Velocity":62,"Duration":267237,"SoundDuration":267237,"Delta":775821990},{"NoteNumber":64,"Velocity":68,"Duration":239252,"SoundDuration":239252,"Delta":775849975},{"NoteNumber":76,"Velocity":79,"Duration":105633,"SoundDuration":105633,"Delta":775877961},{"NoteNumber":69,"Velocity":71,"Duration":211267,"SoundDuration":211267,"Delta":775877961},{"NoteNumber":73,"Velocity":66,"Duration":105633,"SoundDuration":105633,"Delta":775983594},{"NoteNumber":76,"Velocity":81,"Duration":105633,"SoundDuration":105633,"Delta":776089228},{"NoteNumber":73,"Velocity":68,"Duration":105633,"SoundDuration":105633,"Delta":776194862},{"NoteNumber":78,"Velocity":84,"Duration":109489,"SoundDuration":109489,"Delta":776300496},{"NoteNumber":76,"Velocity":82,"Duration":109488,"SoundDuration":109488,"Delta":776409985},{"NoteNumber":74,"Velocity":80,"Duration":109489,"SoundDuration":109489,"Delta":776519474},{"NoteNumber":73,"Velocity":79,"Duration":109488,"SoundDuration":109488,"Delta":776628963},{"NoteNumber":40,"Velocity":70,"Duration":297944,"SoundDuration":297944,"Delta":776656335},{"NoteNumber":44,"Velocity":72,"Duration":270572,"SoundDuration":270572,"Delta":776683707},{"NoteNumber":47,"Velocity":77,"Duration":243199,"SoundDuration":243199,"Delta":776711079},{"NoteNumber":71,"Velocity":77,"Duration":107913,"SoundDuration":107913,"Delta":776738452},{"NoteNumber":52,"Velocity":80,"Duration":215827,"SoundDuration":215827,"Delta":776738452},{"NoteNumber":68,"Velocity":64,"Duration":107913,"SoundDuration":107913,"Delta":776846365},{"NoteNumber":64,"Velocity":64,"Duration":107913,"SoundDuration":107913,"Delta":776954279},{"NoteNumber":68,"Velocity":64,"Duration":107913,"SoundDuration":107913,"Delta":777062193},{"NoteNumber":71,"Velocity":78,"Duration":107913,"SoundDuration":107913,"Delta":777170107},{"NoteNumber":68,"Velocity":63,"Duration":107913,"SoundDuration":107913,"Delta":777278020},{"NoteNumber":73,"Velocity":79,"Duration":110293,"SoundDuration":110293,"Delta":777385934},{"NoteNumber":69,"Velocity":63,"Duration":110294,"SoundDuration":110294,"Delta":777496228},{"NoteNumber":52,"Velocity":58,"Duration":293988,"SoundDuration":293988,"Delta":777523802},{"NoteNumber":56,"Velocity":68,"Duration":266414,"SoundDuration":266414,"Delta":777551375},{"NoteNumber":59,"Velocity":62,"Duration":238840,"SoundDuration":238840,"Delta":777578949},{"NoteNumber":74,"Velocity":80,"Duration":105633,"SoundDuration":105633,"Delta":777606522},{"NoteNumber":64,"Velocity":71,"Duration":211267,"SoundDuration":211267,"Delta":777606522},{"NoteNumber":71,"Velocity":64,"Duration":105633,"SoundDuration":105633,"Delta":777712156},{"NoteNumber":74,"Velocity":80,"Duration":105633,"SoundDuration":105633,"Delta":777817790},{"NoteNumber":71,"Velocity":69,"Duration":105633,"SoundDuration":105633,"Delta":777923423},{"NoteNumber":76,"Velocity":84,"Duration":107142,"SoundDuration":107142,"Delta":778029057},{"NoteNumber":74,"Velocity":84,"Duration":107142,"SoundDuration":107142,"Delta":778136200},{"NoteNumber":73,"Velocity":81,"Duration":107142,"SoundDuration":107142,"Delta":778243343},{"NoteNumber":71,"Velocity":79,"Duration":107142,"SoundDuration":107142,"Delta":778350485},{"NoteNumber":69,"Velocity":82,"Duration":111940,"SoundDuration":111940,"Delta":778457628},{"NoteNumber":42,"Velocity":80,"Duration":55970,"SoundDuration":55970,"Delta":778457628},{"NoteNumber":73,"Velocity":66,"Duration":111940,"SoundDuration":111940,"Delta":778569568},{"NoteNumber":71,"Velocity":66,"Duration":108695,"SoundDuration":108695,"Delta":778681509},{"NoteNumber":54,"Velocity":73,"Duration":54347,"SoundDuration":54347,"Delta":778681509},{"NoteNumber":69,"Velocity":66,"Duration":108695,"SoundDuration":108695,"Delta":778790204},{"NoteNumber":71,"Velocity":85,"Duration":112782,"SoundDuration":112782,"Delta":778898900},{"NoteNumber":44,"Velocity":80,"Duration":56390,"SoundDuration":56390,"Delta":778898900},{"NoteNumber":74,"Velocity":66,"Duration":112781,"SoundDuration":112781,"Delta":779011682},{"NoteNumber":73,"Velocity":66,"Duration":107913,"SoundDuration":107913,"Delta":779124464},{"NoteNumber":56,"Velocity":73,"Duration":53956,"SoundDuration":53956,"Delta":779124464},{"NoteNumber":71,"Velocity":66,"Duration":107913,"SoundDuration":107913,"Delta":779232378},{"NoteNumber":73,"Velocity":82,"Duration":110293,"SoundDuration":110293,"Delta":779340292},{"NoteNumber":57,"Velocity":75,"Duration":55147,"SoundDuration":55147,"Delta":779340292},{"NoteNumber":76,"Velocity":69,"Duration":110294,"SoundDuration":110294,"Delta":779450586},{"NoteNumber":81,"Velocity":74,"Duration":107913,"SoundDuration":107913,"Delta":779560880},{"NoteNumber":61,"Velocity":77,"Duration":53956,"SoundDuration":53956,"Delta":779560880},{"NoteNumber":76,"Velocity":69,"Duration":107913,"SoundDuration":107913,"Delta":779668793},{"NoteNumber":78,"Velocity":83,"Duration":107913,"SoundDuration":107913,"Delta":779776707},{"NoteNumber":62,"Velocity":83,"Duration":53956,"SoundDuration":53956,"Delta":779776707},{"NoteNumber":81,"Velocity":71,"Duration":107913,"SoundDuration":107913,"Delta":779884621},{"NoteNumber":74,"Velocity":71,"Duration":112782,"SoundDuration":112782,"Delta":779992535},{"NoteNumber":56,"Velocity":78,"Duration":56390,"SoundDuration":56390,"Delta":779992535},{"NoteNumber":78,"Velocity":71,"Duration":112781,"SoundDuration":112781,"Delta":780105317},{"NoteNumber":73,"Velocity":84,"Duration":108695,"SoundDuration":108695,"Delta":780218099},{"NoteNumber":57,"Velocity":84,"Duration":54347,"SoundDuration":54347,"Delta":780218099},{"NoteNumber":76,"Velocity":69,"Duration":108695,"SoundDuration":108695,"Delta":780326794},{"NoteNumber":69,"Velocity":80,"Duration":108695,"SoundDuration":108695,"Delta":780435490},{"NoteNumber":54,"Velocity":77,"Duration":54347,"SoundDuration":54347,"Delta":780435490},{"NoteNumber":73,"Velocity":69,"Duration":108695,"SoundDuration":108695,"Delta":780544186},{"NoteNumber":71,"Velocity":81,"Duration":109489,"SoundDuration":109489,"Delta":780652882},{"NoteNumber":50,"Velocity":80,"Duration":54744,"SoundDuration":54744,"Delta":780652882},{"NoteNumber":74,"Velocity":69,"Duration":109488,"SoundDuration":109488,"Delta":780762371},{"NoteNumber":68,"Velocity":81,"Duration":109489,"SoundDuration":109489,"Delta":780871860},{"NoteNumber":52,"Velocity":79,"Duration":54744,"SoundDuration":54744,"Delta":780871860},{"NoteNumber":71,"Velocity":69,"Duration":109488,"SoundDuration":109488,"Delta":780981349},{"NoteNumber":69,"Velocity":79,"Duration":110293,"SoundDuration":110293,"Delta":781090838},{"NoteNumber":45,"Velocity":75,"Duration":441176,"SoundDuration":441176,"Delta":781090838},{"NoteNumber":64,"Velocity":69,"Duration":110294,"SoundDuration":110294,"Delta":781201132},{"NoteNumber":61,"Velocity":69,"Duration":110293,"SoundDuration":110293,"Delta":781311426},{"NoteNumber":64,"Velocity":69,"Duration":110294,"SoundDuration":110294,"Delta":781421720},{"NoteNumber":69,"Velocity":82,"Duration":500000,"SoundDuration":500000,"Delta":781532014},{"NoteNumber":33,"Velocity":61,"Duration":500000,"SoundDuration":500000,"Delta":781532014},{"NoteNumber":37,"Velocity":61,"Duration":500000,"SoundDuration":500000,"Delta":781532014},{"NoteNumber":40,"Velocity":78,"Duration":500000,"SoundDuration":500000,"Delta":781532014},{"NoteNumber":69,"Velocity":55,"Duration":107142,"SoundDuration":107142,"Delta":782032014},{"NoteNumber":57,"Velocity":40,"Duration":214285,"SoundDuration":214285,"Delta":782032014},{"NoteNumber":71,"Velocity":49,"Duration":107142,"SoundDuration":107142,"Delta":782139156},{"NoteNumber":73,"Velocity":50,"Duration":107142,"SoundDuration":107142,"Delta":782246299},{"NoteNumber":64,"Velocity":36,"Duration":214285,"SoundDuration":214285,"Delta":782246299},{"NoteNumber":74,"Velocity":50,"Duration":107142,"SoundDuration":107142,"Delta":782353442},{"NoteNumber":76,"Velocity":51,"Duration":107142,"SoundDuration":107142,"Delta":782460585},{"NoteNumber":61,"Velocity":36,"Duration":214285,"SoundDuration":214285,"Delta":782460585},{"NoteNumber":78,"Velocity":52,"Duration":107142,"SoundDuration":107142,"Delta":782567727},{"NoteNumber":80,"Velocity":53,"Duration":107142,"SoundDuration":107142,"Delta":782674870},{"NoteNumber":64,"Velocity":36,"Duration":221646,"SoundDuration":221646,"Delta":782674870},{"NoteNumber":81,"Velocity":54,"Duration":114503,"SoundDuration":114503,"Delta":782782013},{"NoteNumber":80,"Velocity":56,"Duration":107142,"SoundDuration":107142,"Delta":782896517},{"NoteNumber":57,"Velocity":43,"Duration":215861,"SoundDuration":215861,"Delta":782896517},{"NoteNumber":78,"Velocity":50,"Duration":108718,"SoundDuration":108718,"Delta":783003659},{"NoteNumber":77,"Velocity":52,"Duration":110293,"SoundDuration":110293,"Delta":783112378},{"NoteNumber":66,"Velocity":35,"Duration":220588,"SoundDuration":220588,"Delta":783112378},{"NoteNumber":78,"Velocity":50,"Duration":110294,"SoundDuration":110294,"Delta":783222672},{"NoteNumber":77,"Velocity":52,"Duration":110293,"SoundDuration":110293,"Delta":783332966},{"NoteNumber":62,"Velocity":35,"Duration":220587,"SoundDuration":220587,"Delta":783332966},{"NoteNumber":78,"Velocity":50,"Duration":110293,"SoundDuration":110293,"Delta":783443260},{"NoteNumber":77,"Velocity":52,"Duration":110294,"SoundDuration":110294,"Delta":783553554},{"NoteNumber":66,"Velocity":35,"Duration":226573,"SoundDuration":226573,"Delta":783553554},{"NoteNumber":78,"Velocity":50,"Duration":116278,"SoundDuration":116278,"Delta":783663848},{"NoteNumber":81,"Velocity":55,"Duration":109489,"SoundDuration":109489,"Delta":783780127},{"NoteNumber":57,"Velocity":43,"Duration":218977,"SoundDuration":218977,"Delta":783780127},{"NoteNumber":80,"Velocity":51,"Duration":109488,"SoundDuration":109488,"Delta":783889616},{"NoteNumber":81,"Velocity":55,"Duration":109489,"SoundDuration":109489,"Delta":783999105},{"NoteNumber":66,"Velocity":35,"Duration":218977,"SoundDuration":218977,"Delta":783999105},{"NoteNumber":80,"Velocity":51,"Duration":109488,"SoundDuration":109488,"Delta":784108594},{"NoteNumber":83,"Velocity":54,"Duration":109489,"SoundDuration":109489,"Delta":784218083},{"NoteNumber":62,"Velocity":37,"Duration":218977,"SoundDuration":218977,"Delta":784218083},{"NoteNumber":81,"Velocity":55,"Duration":109488,"SoundDuration":109488,"Delta":784327572},{"NoteNumber":80,"Velocity":56,"Duration":109489,"SoundDuration":109489,"Delta":784437061},{"NoteNumber":66,"Velocity":39,"Duration":228536,"SoundDuration":228536,"Delta":784437061},{"NoteNumber":78,"Velocity":58,"Duration":119047,"SoundDuration":119047,"Delta":784546550},{"NoteNumber":78,"Velocity":59,"Duration":107913,"SoundDuration":107913,"Delta":784665597},{"NoteNumber":57,"Velocity":44,"Duration":218261,"SoundDuration":218261,"Delta":784665597},{"NoteNumber":76,"Velocity":54,"Duration":110347,"SoundDuration":110347,"Delta":784773511},{"NoteNumber":75,"Velocity":58,"Duration":112782,"SoundDuration":112782,"Delta":784883859},{"NoteNumber":64,"Velocity":35,"Duration":225564,"SoundDuration":225564,"Delta":784883859},{"NoteNumber":76,"Velocity":52,"Duration":112782,"SoundDuration":112782,"Delta":784996641},{"NoteNumber":75,"Velocity":54,"Duration":112781,"SoundDuration":112781,"Delta":785109423},{"NoteNumber":61,"Velocity":35,"Duration":225563,"SoundDuration":225563,"Delta":785109423},{"NoteNumber":76,"Velocity":50,"Duration":112782,"SoundDuration":112782,"Delta":785222205},{"NoteNumber":75,"Velocity":55,"Duration":112782,"SoundDuration":112782,"Delta":785334987},{"NoteNumber":64,"Velocity":35,"Duration":283694,"SoundDuration":283694,"Delta":785334987},{"NoteNumber":76,"Velocity":51,"Duration":170912,"SoundDuration":170912,"Delta":785447769},{"NoteNumber":45,"Velocity":55,"Duration":313210,"SoundDuration":313210,"Delta":785521298},{"NoteNumber":49,"Velocity":59,"Duration":274882,"SoundDuration":274882,"Delta":785559626},{"NoteNumber":52,"Velocity":65,"Duration":245355,"SoundDuration":245355,"Delta":785589154},{"NoteNumber":76,"Velocity":74,"Duration":107913,"SoundDuration":107913,"Delta":785618681},{"NoteNumber":57,"Velocity":68,"Duration":215827,"SoundDuration":215827,"Delta":785618681},{"NoteNumber":81,"Velocity":72,"Duration":107913,"SoundDuration":107913,"Delta":785726595},{"NoteNumber":85,"Velocity":75,"Duration":107913,"SoundDuration":107913,"Delta":785834509},{"NoteNumber":83,"Velocity":71,"Duration":107913,"SoundDuration":107913,"Delta":785942423},{"NoteNumber":81,"Velocity":74,"Duration":107913,"SoundDuration":107913,"Delta":786050336},{"NoteNumber":80,"Velocity":74,"Duration":107913,"SoundDuration":107913,"Delta":786158250},{"NoteNumber":78,"Velocity":73,"Duration":111940,"SoundDuration":111940,"Delta":786266164},{"NoteNumber":76,"Velocity":72,"Duration":111940,"SoundDuration":111940,"Delta":786378104},{"NoteNumber":47,"Velocity":55,"Duration":295222,"SoundDuration":295222,"Delta":786406089},{"NoteNumber":50,"Velocity":59,"Duration":267237,"SoundDuration":267237,"Delta":786434074},{"NoteNumber":56,"Velocity":65,"Duration":239252,"SoundDuration":239252,"Delta":786462059},{"NoteNumber":74,"Velocity":74,"Duration":105633,"SoundDuration":105633,"Delta":786490044},{"NoteNumber":59,"Velocity":68,"Duration":211267,"SoundDuration":211267,"Delta":786490044},{"NoteNumber":80,"Velocity":69,"Duration":105633,"SoundDuration":105633,"Delta":786595678},{"NoteNumber":83,"Velocity":77,"Duration":105633,"SoundDuration":105633,"Delta":786701312},{"NoteNumber":81,"Velocity":73,"Duration":105633,"SoundDuration":105633,"Delta":786806946},{"NoteNumber":80,"Velocity":76,"Duration":109489,"SoundDuration":109489,"Delta":786912579},{"NoteNumber":78,"Velocity":74,"Duration":109488,"SoundDuration":109488,"Delta":787022068},{"NoteNumber":76,"Velocity":73,"Duration":109489,"SoundDuration":109489,"Delta":787131557},{"NoteNumber":74,"Velocity":71,"Duration":109488,"SoundDuration":109488,"Delta":787241046},{"NoteNumber":49,"Velocity":59,"Duration":305997,"SoundDuration":305997,"Delta":787268419},{"NoteNumber":52,"Velocity":61,"Duration":278624,"SoundDuration":278624,"Delta":787295791},{"NoteNumber":57,"Velocity":66,"Duration":241924,"SoundDuration":241924,"Delta":787323163},{"NoteNumber":73,"Velocity":73,"Duration":123134,"SoundDuration":123134,"Delta":787350535},{"NoteNumber":61,"Velocity":68,"Duration":223880,"SoundDuration":223880,"Delta":787350535},{"NoteNumber":76,"Velocity":70,"Duration":123134,"SoundDuration":123134,"Delta":787462476},{"NoteNumber":81,"Velocity":73,"Duration":123134,"SoundDuration":123134,"Delta":787574416},{"NoteNumber":80,"Velocity":70,"Duration":123134,"SoundDuration":123134,"Delta":787686356},{"NoteNumber":50,"Velocity":59,"Duration":307835,"SoundDuration":307835,"Delta":787714341},{"NoteNumber":54,"Velocity":61,"Duration":279850,"SoundDuration":279850,"Delta":787742326},{"NoteNumber":59,"Velocity":66,"Duration":242537,"SoundDuration":242537,"Delta":787770311},{"NoteNumber":78,"Velocity":73,"Duration":123134,"SoundDuration":123134,"Delta":787798296},{"NoteNumber":62,"Velocity":68,"Duration":223880,"SoundDuration":223880,"Delta":787798296},{"NoteNumber":76,"Velocity":71,"Duration":122969,"SoundDuration":122969,"Delta":787910237},{"NoteNumber":74,"Velocity":73,"Duration":121323,"SoundDuration":121323,"Delta":788022177},{"NoteNumber":73,"Velocity":70,"Duration":120857,"SoundDuration":120857,"Delta":788132471},{"NoteNumber":52,"Velocity":55,"Duration":293988,"SoundDuration":293988,"Delta":788160044},{"NoteNumber":56,"Velocity":65,"Duration":266414,"SoundDuration":266414,"Delta":788187618},{"NoteNumber":59,"Velocity":59,"Duration":238840,"SoundDuration":238840,"Delta":788215191},{"NoteNumber":71,"Velocity":72,"Duration":116197,"SoundDuration":116197,"Delta":788242765},{"NoteNumber":64,"Velocity":68,"Duration":211267,"SoundDuration":211267,"Delta":788242765},{"NoteNumber":69,"Velocity":68,"Duration":116197,"SoundDuration":116197,"Delta":788348399},{"NoteNumber":68,"Velocity":66,"Duration":116197,"SoundDuration":116197,"Delta":788454032},{"NoteNumber":66,"Velocity":64,"Duration":116335,"SoundDuration":116335,"Delta":788559666},{"NoteNumber":64,"Velocity":61,"Duration":106655,"SoundDuration":106655,"Delta":788665300},{"NoteNumber":62,"Velocity":47,"Duration":107748,"SoundDuration":107748,"Delta":788771955},{"NoteNumber":61,"Velocity":44,"Duration":109105,"SoundDuration":109105,"Delta":788879703},{"NoteNumber":59,"Velocity":41,"Duration":110513,"SoundDuration":110513,"Delta":788988809},{"NoteNumber":73,"Velocity":50,"Duration":57251,"SoundDuration":57251,"Delta":789099322},{"NoteNumber":57,"Velocity":41,"Duration":226103,"SoundDuration":226103,"Delta":789099322},{"NoteNumber":74,"Velocity":47,"Duration":27173,"SoundDuration":27173,"Delta":789298252},{"NoteNumber":73,"Velocity":47,"Duration":107913,"SoundDuration":107913,"Delta":789325426},{"NoteNumber":64,"Velocity":32,"Duration":215827,"SoundDuration":215827,"Delta":789325426},{"NoteNumber":71,"Velocity":52,"Duration":107913,"SoundDuration":107913,"Delta":789433340},{"NoteNumber":73,"Velocity":47,"Duration":53191,"SoundDuration":53191,"Delta":789541253},{"NoteNumber":59,"Velocity":37,"Duration":212765,"SoundDuration":212765,"Delta":789541253},{"NoteNumber":74,"Velocity":51,"Duration":54347,"SoundDuration":54347,"Delta":789754019},{"NoteNumber":64,"Velocity":32,"Duration":217391,"SoundDuration":217391,"Delta":789754019},{"NoteNumber":78,"Velocity":53,"Duration":225563,"SoundDuration":225563,"Delta":789971411},{"NoteNumber":61,"Velocity":42,"Duration":225563,"SoundDuration":225563,"Delta":789971411},{"NoteNumber":76,"Velocity":46,"Duration":215827,"SoundDuration":215827,"Delta":790196975},{"NoteNumber":64,"Velocity":33,"Duration":215827,"SoundDuration":215827,"Delta":790196975},{"NoteNumber":74,"Velocity":51,"Duration":53956,"SoundDuration":53956,"Delta":790412802},{"NoteNumber":57,"Velocity":36,"Duration":215827,"SoundDuration":215827,"Delta":790412802},{"NoteNumber":73,"Velocity":49,"Duration":56390,"SoundDuration":56390,"Delta":790628630},{"NoteNumber":64,"Velocity":33,"Duration":225563,"SoundDuration":225563,"Delta":790628630},{"NoteNumber":71,"Velocity":50,"Duration":57692,"SoundDuration":57692,"Delta":790854194},{"NoteNumber":56,"Velocity":42,"Duration":226648,"SoundDuration":226648,"Delta":790854194},{"NoteNumber":73,"Velocity":46,"Duration":26785,"SoundDuration":26785,"Delta":791054056},{"NoteNumber":71,"Velocity":46,"Duration":107142,"SoundDuration":107142,"Delta":791080842},{"NoteNumber":64,"Velocity":33,"Duration":214285,"SoundDuration":214285,"Delta":791080842},{"NoteNumber":70,"Velocity":50,"Duration":107142,"SoundDuration":107142,"Delta":791187985},{"NoteNumber":71,"Velocity":46,"Duration":53191,"SoundDuration":53191,"Delta":791295127},{"NoteNumber":57,"Velocity":36,"Duration":212765,"SoundDuration":212765,"Delta":791295127},{"NoteNumber":73,"Velocity":47,"Duration":53956,"SoundDuration":53956,"Delta":791507893},{"NoteNumber":64,"Velocity":33,"Duration":215827,"SoundDuration":215827,"Delta":791507893},{"NoteNumber":76,"Velocity":50,"Duration":223880,"SoundDuration":223880,"Delta":791723721},{"NoteNumber":59,"Velocity":42,"Duration":223880,"SoundDuration":223880,"Delta":791723721},{"NoteNumber":74,"Velocity":47,"Duration":215827,"SoundDuration":215827,"Delta":791947601},{"NoteNumber":64,"Velocity":31,"Duration":215827,"SoundDuration":215827,"Delta":791947601},{"NoteNumber":73,"Velocity":47,"Duration":53956,"SoundDuration":53956,"Delta":792163429},{"NoteNumber":56,"Velocity":35,"Duration":215827,"SoundDuration":215827,"Delta":792163429},{"NoteNumber":71,"Velocity":47,"Duration":56390,"SoundDuration":56390,"Delta":792379256},{"NoteNumber":64,"Velocity":31,"Duration":225563,"SoundDuration":225563,"Delta":792379256},{"NoteNumber":68,"Velocity":53,"Duration":215827,"SoundDuration":215827,"Delta":792604820},{"NoteNumber":54,"Velocity":40,"Duration":215827,"SoundDuration":215827,"Delta":792604820},{"NoteNumber":69,"Velocity":50,"Duration":55970,"SoundDuration":55970,"Delta":792820648},{"NoteNumber":64,"Velocity":31,"Duration":223880,"SoundDuration":223880,"Delta":792820648},{"NoteNumber":56,"Velocity":34,"Duration":215827,"SoundDuration":215827,"Delta":793044528},{"NoteNumber":71,"Velocity":50,"Duration":55555,"SoundDuration":55555,"Delta":793260356},{"NoteNumber":64,"Velocity":31,"Duration":222221,"SoundDuration":222221,"Delta":793260356},{"NoteNumber":57,"Velocity":39,"Duration":215827,"SoundDuration":215827,"Delta":793482578},{"NoteNumber":72,"Velocity":40,"Duration":26978,"SoundDuration":26978,"Delta":793671427},{"NoteNumber":73,"Velocity":50,"Duration":55147,"SoundDuration":55147,"Delta":793698405},{"NoteNumber":64,"Velocity":31,"Duration":220588,"SoundDuration":220588,"Delta":793698405},{"NoteNumber":50,"Velocity":33,"Duration":215827,"SoundDuration":215827,"Delta":793918993},{"NoteNumber":76,"Velocity":40,"Duration":26978,"SoundDuration":26978,"Delta":794107843},{"NoteNumber":74,"Velocity":50,"Duration":55970,"SoundDuration":55970,"Delta":794134821},{"NoteNumber":59,"Velocity":31,"Duration":223880,"SoundDuration":223880,"Delta":794134821},{"NoteNumber":52,"Velocity":40,"Duration":215827,"SoundDuration":215827,"Delta":794358701},{"NoteNumber":74,"Velocity":40,"Duration":26978,"SoundDuration":26978,"Delta":794547551},{"NoteNumber":73,"Velocity":50,"Duration":53956,"SoundDuration":53956,"Delta":794574529},{"NoteNumber":57,"Velocity":31,"Duration":215827,"SoundDuration":215827,"Delta":794574529},{"NoteNumber":52,"Velocity":34,"Duration":218977,"SoundDuration":218977,"Delta":794790356},{"NoteNumber":73,"Velocity":40,"Duration":27372,"SoundDuration":27372,"Delta":794981962},{"NoteNumber":71,"Velocity":50,"Duration":66964,"SoundDuration":66964,"Delta":795009334},{"NoteNumber":56,"Velocity":31,"Duration":267857,"SoundDuration":267857,"Delta":795009334},{"NoteNumber":71,"Velocity":51,"Duration":258620,"SoundDuration":258620,"Delta":795277191},{"NoteNumber":68,"Velocity":43,"Duration":517241,"SoundDuration":517241,"Delta":795277191},{"NoteNumber":64,"Velocity":32,"Duration":753461,"SoundDuration":753461,"Delta":795277191},{"NoteNumber":62,"Velocity":38,"Duration":517241,"SoundDuration":517241,"Delta":795277191},{"NoteNumber":57,"Velocity":26,"Duration":753461,"SoundDuration":753461,"Delta":795277191},{"NoteNumber":72,"Velocity":51,"Duration":258620,"SoundDuration":258620,"Delta":795535812},{"NoteNumber":69,"Velocity":40,"Duration":236220,"SoundDuration":236220,"Delta":795794432},{"NoteNumber":73,"Velocity":48,"Duration":236220,"SoundDuration":236220,"Delta":795794432},{"NoteNumber":61,"Velocity":31,"Duration":236220,"SoundDuration":236220,"Delta":795794432},{"NoteNumber":73,"Velocity":82,"Duration":111940,"SoundDuration":111940,"Delta":796266873},{"NoteNumber":45,"Velocity":66,"Duration":111940,"SoundDuration":111940,"Delta":796266873},{"NoteNumber":69,"Velocity":66,"Duration":111940,"SoundDuration":111940,"Delta":796378814},{"NoteNumber":49,"Velocity":56,"Duration":111940,"SoundDuration":111940,"Delta":796378814},{"NoteNumber":76,"Velocity":81,"Duration":108695,"SoundDuration":108695,"Delta":796490754},{"NoteNumber":52,"Velocity":55,"Duration":108695,"SoundDuration":108695,"Delta":796490754},{"NoteNumber":73,"Velocity":66,"Duration":108695,"SoundDuration":108695,"Delta":796599450},{"NoteNumber":57,"Velocity":55,"Duration":108695,"SoundDuration":108695,"Delta":796599450},{"NoteNumber":74,"Velocity":85,"Duration":112782,"SoundDuration":112782,"Delta":796708145},{"NoteNumber":47,"Velocity":66,"Duration":112782,"SoundDuration":112782,"Delta":796708145},{"NoteNumber":71,"Velocity":66,"Duration":112781,"SoundDuration":112781,"Delta":796820927},{"NoteNumber":50,"Velocity":56,"Duration":112781,"SoundDuration":112781,"Delta":796820927},{"NoteNumber":78,"Velocity":79,"Duration":107913,"SoundDuration":107913,"Delta":796933709},{"NoteNumber":56,"Velocity":56,"Duration":107913,"SoundDuration":107913,"Delta":796933709},{"NoteNumber":74,"Velocity":66,"Duration":107913,"SoundDuration":107913,"Delta":797041623},{"NoteNumber":59,"Velocity":56,"Duration":107913,"SoundDuration":107913,"Delta":797041623},{"NoteNumber":76,"Velocity":82,"Duration":110293,"SoundDuration":110293,"Delta":797149537},{"NoteNumber":49,"Velocity":66,"Duration":110293,"SoundDuration":110293,"Delta":797149537},{"NoteNumber":73,"Velocity":69,"Duration":110294,"SoundDuration":110294,"Delta":797259831},{"NoteNumber":52,"Velocity":55,"Duration":110294,"SoundDuration":110294,"Delta":797259831},{"NoteNumber":81,"Velocity":74,"Duration":107913,"SoundDuration":107913,"Delta":797370125},{"NoteNumber":57,"Velocity":55,"Duration":107913,"SoundDuration":107913,"Delta":797370125},{"NoteNumber":76,"Velocity":69,"Duration":107913,"SoundDuration":107913,"Delta":797478039},{"NoteNumber":61,"Velocity":55,"Duration":107913,"SoundDuration":107913,"Delta":797478039},{"NoteNumber":80,"Velocity":83,"Duration":107913,"SoundDuration":107913,"Delta":797585952},{"NoteNumber":50,"Velocity":66,"Duration":107913,"SoundDuration":107913,"Delta":797585952},{"NoteNumber":78,"Velocity":71,"Duration":107913,"SoundDuration":107913,"Delta":797693866},{"NoteNumber":54,"Velocity":53,"Duration":107913,"SoundDuration":107913,"Delta":797693866},{"NoteNumber":76,"Velocity":71,"Duration":112782,"SoundDuration":112782,"Delta":797801780},{"NoteNumber":59,"Velocity":53,"Duration":112782,"SoundDuration":112782,"Delta":797801780},{"NoteNumber":74,"Velocity":71,"Duration":112781,"SoundDuration":112781,"Delta":797914562},{"NoteNumber":62,"Velocity":53,"Duration":112781,"SoundDuration":112781,"Delta":797914562},{"NoteNumber":73,"Velocity":84,"Duration":108695,"SoundDuration":108695,"Delta":798027344},{"NoteNumber":52,"Velocity":66,"Duration":108695,"SoundDuration":108695,"Delta":798027344},{"NoteNumber":76,"Velocity":69,"Duration":108695,"SoundDuration":108695,"Delta":798136040},{"NoteNumber":57,"Velocity":56,"Duration":108695,"SoundDuration":108695,"Delta":798136040},{"NoteNumber":69,"Velocity":80,"Duration":108695,"SoundDuration":108695,"Delta":798244735},{"NoteNumber":61,"Velocity":55,"Duration":108695,"SoundDuration":108695,"Delta":798244735},{"NoteNumber":73,"Velocity":69,"Duration":108695,"SoundDuration":108695,"Delta":798353431},{"NoteNumber":64,"Velocity":55,"Duration":108695,"SoundDuration":108695,"Delta":798353431},{"NoteNumber":71,"Velocity":81,"Duration":109489,"SoundDuration":109489,"Delta":798462127},{"NoteNumber":40,"Velocity":67,"Duration":109489,"SoundDuration":109489,"Delta":798462127},{"NoteNumber":74,"Velocity":69,"Duration":109488,"SoundDuration":109488,"Delta":798571616},{"NoteNumber":44,"Velocity":56,"Duration":109488,"SoundDuration":109488,"Delta":798571616},{"NoteNumber":68,"Velocity":81,"Duration":109489,"SoundDuration":109489,"Delta":798681105},{"NoteNumber":47,"Velocity":56,"Duration":109489,"SoundDuration":109489,"Delta":798681105},{"NoteNumber":71,"Velocity":69,"Duration":109488,"SoundDuration":109488,"Delta":798790594},{"NoteNumber":52,"Velocity":56,"Duration":109488,"SoundDuration":109488,"Delta":798790594},{"NoteNumber":69,"Velocity":79,"Duration":110293,"SoundDuration":110293,"Delta":798900083},{"NoteNumber":45,"Velocity":68,"Duration":110293,"SoundDuration":110293,"Delta":798900083},{"NoteNumber":64,"Velocity":69,"Duration":110294,"SoundDuration":110294,"Delta":799010377},{"NoteNumber":49,"Velocity":57,"Duration":110294,"SoundDuration":110294,"Delta":799010377},{"NoteNumber":61,"Velocity":69,"Duration":110293,"SoundDuration":110293,"Delta":799120671},{"NoteNumber":52,"Velocity":57,"Duration":110293,"SoundDuration":110293,"Delta":799120671},{"NoteNumber":64,"Velocity":69,"Duration":110294,"SoundDuration":110294,"Delta":799230965},{"NoteNumber":57,"Velocity":57,"Duration":110294,"SoundDuration":110294,"Delta":799230965},{"NoteNumber":69,"Velocity":82,"Duration":477273,"SoundDuration":477273,"Delta":799341259},{"NoteNumber":45,"Velocity":67,"Duration":477273,"SoundDuration":477273,"Delta":799341259},{"NoteNumber":69,"Velocity":55,"Duration":107142,"SoundDuration":107142,"Delta":799886714},{"NoteNumber":57,"Velocity":40,"Duration":214285,"SoundDuration":214285,"Delta":799886714},{"NoteNumber":71,"Velocity":49,"Duration":107142,"SoundDuration":107142,"Delta":799993857},{"NoteNumber":73,"Velocity":50,"Duration":107142,"SoundDuration":107142,"Delta":800100999},{"NoteNumber":64,"Velocity":36,"Duration":214285,"SoundDuration":214285,"Delta":800100999},{"NoteNumber":74,"Velocity":50,"Duration":107142,"SoundDuration":107142,"Delta":800208142},{"NoteNumber":76,"Velocity":51,"Duration":107142,"SoundDuration":107142,"Delta":800315285},{"NoteNumber":61,"Velocity":36,"Duration":214285,"SoundDuration":214285,"Delta":800315285},{"NoteNumber":78,"Velocity":52,"Duration":107142,"SoundDuration":107142,"Delta":800422428},{"NoteNumber":80,"Velocity":53,"Duration":107142,"SoundDuration":107142,"Delta":800529570},{"NoteNumber":64,"Velocity":36,"Duration":221646,"SoundDuration":221646,"Delta":800529570},{"NoteNumber":81,"Velocity":54,"Duration":114503,"SoundDuration":114503,"Delta":800636713},{"NoteNumber":80,"Velocity":56,"Duration":107142,"SoundDuration":107142,"Delta":800751217},{"NoteNumber":57,"Velocity":43,"Duration":215861,"SoundDuration":215861,"Delta":800751217},{"NoteNumber":78,"Velocity":50,"Duration":108718,"SoundDuration":108718,"Delta":800858360},{"NoteNumber":77,"Velocity":52,"Duration":110293,"SoundDuration":110293,"Delta":800967078},{"NoteNumber":66,"Velocity":35,"Duration":220588,"SoundDuration":220588,"Delta":800967078},{"NoteNumber":78,"Velocity":50,"Duration":110294,"SoundDuration":110294,"Delta":801077372},{"NoteNumber":77,"Velocity":52,"Duration":110293,"SoundDuration":110293,"Delta":801187666},{"NoteNumber":62,"Velocity":35,"Duration":220587,"SoundDuration":220587,"Delta":801187666},{"NoteNumber":78,"Velocity":50,"Duration":110293,"SoundDuration":110293,"Delta":801297960},{"NoteNumber":77,"Velocity":52,"Duration":110294,"SoundDuration":110294,"Delta":801408254},{"NoteNumber":66,"Velocity":35,"Duration":226573,"SoundDuration":226573,"Delta":801408254},{"NoteNumber":78,"Velocity":50,"Duration":116278,"SoundDuration":116278,"Delta":801518548},{"NoteNumber":81,"Velocity":55,"Duration":109489,"SoundDuration":109489,"Delta":801634827},{"NoteNumber":57,"Velocity":43,"Duration":218977,"SoundDuration":218977,"Delta":801634827},{"NoteNumber":80,"Velocity":51,"Duration":109488,"SoundDuration":109488,"Delta":801744316},{"NoteNumber":81,"Velocity":55,"Duration":109489,"SoundDuration":109489,"Delta":801853805},{"NoteNumber":66,"Velocity":35,"Duration":218977,"SoundDuration":218977,"Delta":801853805},{"NoteNumber":80,"Velocity":51,"Duration":109488,"SoundDuration":109488,"Delta":801963294},{"NoteNumber":83,"Velocity":54,"Duration":109489,"SoundDuration":109489,"Delta":802072783},{"NoteNumber":62,"Velocity":37,"Duration":218977,"SoundDuration":218977,"Delta":802072783},{"NoteNumber":81,"Velocity":55,"Duration":109488,"SoundDuration":109488,"Delta":802182272},{"NoteNumber":80,"Velocity":56,"Duration":109489,"SoundDuration":109489,"Delta":802291761},{"NoteNumber":66,"Velocity":39,"Duration":228536,"SoundDuration":228536,"Delta":802291761},{"NoteNumber":78,"Velocity":58,"Duration":119047,"SoundDuration":119047,"Delta":802401250},{"NoteNumber":78,"Velocity":59,"Duration":107913,"SoundDuration":107913,"Delta":802520298},{"NoteNumber":57,"Velocity":44,"Duration":218261,"SoundDuration":218261,"Delta":802520298},{"NoteNumber":76,"Velocity":54,"Duration":110347,"SoundDuration":110347,"Delta":802628211},{"NoteNumber":75,"Velocity":58,"Duration":112782,"SoundDuration":112782,"Delta":802738559},{"NoteNumber":64,"Velocity":35,"Duration":225564,"SoundDuration":225564,"Delta":802738559},{"NoteNumber":76,"Velocity":52,"Duration":112782,"SoundDuration":112782,"Delta":802851341},{"NoteNumber":75,"Velocity":54,"Duration":112781,"SoundDuration":112781,"Delta":802964123},{"NoteNumber":61,"Velocity":35,"Duration":225563,"SoundDuration":225563,"Delta":802964123},{"NoteNumber":76,"Velocity":50,"Duration":112782,"SoundDuration":112782,"Delta":803076905},{"NoteNumber":75,"Velocity":55,"Duration":112782,"SoundDuration":112782,"Delta":803189687},{"NoteNumber":64,"Velocity":35,"Duration":283694,"SoundDuration":283694,"Delta":803189687},{"NoteNumber":76,"Velocity":51,"Duration":170912,"SoundDuration":170912,"Delta":803302469},{"NoteNumber":45,"Velocity":55,"Duration":313210,"SoundDuration":313210,"Delta":803375999},{"NoteNumber":49,"Velocity":59,"Duration":274882,"SoundDuration":274882,"Delta":803414327},{"NoteNumber":52,"Velocity":65,"Duration":245355,"SoundDuration":245355,"Delta":803443854},{"NoteNumber":76,"Velocity":74,"Duration":107913,"SoundDuration":107913,"Delta":803473382},{"NoteNumber":57,"Velocity":68,"Duration":215827,"SoundDuration":215827,"Delta":803473382},{"NoteNumber":81,"Velocity":72,"Duration":107913,"SoundDuration":107913,"Delta":803581295},{"NoteNumber":85,"Velocity":75,"Duration":107913,"SoundDuration":107913,"Delta":803689209},{"NoteNumber":83,"Velocity":71,"Duration":107913,"SoundDuration":107913,"Delta":803797123},{"NoteNumber":81,"Velocity":74,"Duration":107913,"SoundDuration":107913,"Delta":803905037},{"NoteNumber":80,"Velocity":74,"Duration":107913,"SoundDuration":107913,"Delta":804012950},{"NoteNumber":78,"Velocity":73,"Duration":111940,"SoundDuration":111940,"Delta":804120864},{"NoteNumber":76,"Velocity":72,"Duration":111940,"SoundDuration":111940,"Delta":804232804},{"NoteNumber":47,"Velocity":55,"Duration":295222,"SoundDuration":295222,"Delta":804260790},{"NoteNumber":50,"Velocity":59,"Duration":267237,"SoundDuration":267237,"Delta":804288775},{"NoteNumber":56,"Velocity":65,"Duration":239252,"SoundDuration":239252,"Delta":804316760},{"NoteNumber":74,"Velocity":74,"Duration":105633,"SoundDuration":105633,"Delta":804344745},{"NoteNumber":59,"Velocity":68,"Duration":211267,"SoundDuration":211267,"Delta":804344745},{"NoteNumber":80,"Velocity":69,"Duration":105633,"SoundDuration":105633,"Delta":804450378},{"NoteNumber":83,"Velocity":77,"Duration":105633,"SoundDuration":105633,"Delta":804556012},{"NoteNumber":81,"Velocity":73,"Duration":105633,"SoundDuration":105633,"Delta":804661646},{"NoteNumber":80,"Velocity":76,"Duration":109489,"SoundDuration":109489,"Delta":804767280},{"NoteNumber":78,"Velocity":74,"Duration":109488,"SoundDuration":109488,"Delta":804876769},{"NoteNumber":76,"Velocity":73,"Duration":109489,"SoundDuration":109489,"Delta":804986258},{"NoteNumber":74,"Velocity":71,"Duration":109488,"SoundDuration":109488,"Delta":805095747},{"NoteNumber":49,"Velocity":53,"Duration":305997,"SoundDuration":305997,"Delta":805123119},{"NoteNumber":52,"Velocity":56,"Duration":278624,"SoundDuration":278624,"Delta":805150491},{"NoteNumber":57,"Velocity":59,"Duration":241924,"SoundDuration":241924,"Delta":805177863},{"NoteNumber":73,"Velocity":73,"Duration":123134,"SoundDuration":123134,"Delta":805205236},{"NoteNumber":61,"Velocity":63,"Duration":223880,"SoundDuration":223880,"Delta":805205236},{"NoteNumber":76,"Velocity":70,"Duration":123134,"SoundDuration":123134,"Delta":805317176},{"NoteNumber":81,"Velocity":73,"Duration":123134,"SoundDuration":123134,"Delta":805429116},{"NoteNumber":80,"Velocity":70,"Duration":123134,"SoundDuration":123134,"Delta":805541056},{"NoteNumber":50,"Velocity":55,"Duration":307835,"SoundDuration":307835,"Delta":805569042},{"NoteNumber":54,"Velocity":58,"Duration":279850,"SoundDuration":279850,"Delta":805597027},{"NoteNumber":59,"Velocity":60,"Duration":242537,"SoundDuration":242537,"Delta":805625012},{"NoteNumber":78,"Velocity":73,"Duration":123134,"SoundDuration":123134,"Delta":805652997},{"NoteNumber":62,"Velocity":64,"Duration":223880,"SoundDuration":223880,"Delta":805652997},{"NoteNumber":76,"Velocity":71,"Duration":122969,"SoundDuration":122969,"Delta":805764937},{"NoteNumber":74,"Velocity":73,"Duration":121323,"SoundDuration":121323,"Delta":805876877},{"NoteNumber":73,"Velocity":70,"Duration":120857,"SoundDuration":120857,"Delta":805987171},{"NoteNumber":52,"Velocity":56,"Duration":293988,"SoundDuration":293988,"Delta":806014745},{"NoteNumber":56,"Velocity":59,"Duration":266414,"SoundDuration":266414,"Delta":806042318},{"NoteNumber":59,"Velocity":63,"Duration":238840,"SoundDuration":238840,"Delta":806069892},{"NoteNumber":71,"Velocity":72,"Duration":116197,"SoundDuration":116197,"Delta":806097465},{"NoteNumber":64,"Velocity":66,"Duration":211267,"SoundDuration":211267,"Delta":806097465},{"NoteNumber":69,"Velocity":68,"Duration":116197,"SoundDuration":116197,"Delta":806203099},{"NoteNumber":68,"Velocity":66,"Duration":116197,"SoundDuration":116197,"Delta":806308733},{"NoteNumber":66,"Velocity":64,"Duration":116335,"SoundDuration":116335,"Delta":806414366},{"NoteNumber":64,"Velocity":61,"Duration":106655,"SoundDuration":106655,"Delta":806520000},{"NoteNumber":62,"Velocity":47,"Duration":107748,"SoundDuration":107748,"Delta":806626655},{"NoteNumber":61,"Velocity":44,"Duration":109105,"SoundDuration":109105,"Delta":806734404},{"NoteNumber":59,"Velocity":41,"Duration":110513,"SoundDuration":110513,"Delta":806843509},{"NoteNumber":73,"Velocity":50,"Duration":57251,"SoundDuration":57251,"Delta":806954023},{"NoteNumber":57,"Velocity":41,"Duration":226103,"SoundDuration":226103,"Delta":806954023},{"NoteNumber":74,"Velocity":47,"Duration":27173,"SoundDuration":27173,"Delta":807152952},{"NoteNumber":73,"Velocity":47,"Duration":107913,"SoundDuration":107913,"Delta":807180126},{"NoteNumber":64,"Velocity":32,"Duration":215827,"SoundDuration":215827,"Delta":807180126},{"NoteNumber":71,"Velocity":52,"Duration":107913,"SoundDuration":107913,"Delta":807288040},{"NoteNumber":73,"Velocity":47,"Duration":53191,"SoundDuration":53191,"Delta":807395954},{"NoteNumber":59,"Velocity":37,"Duration":212765,"SoundDuration":212765,"Delta":807395954},{"NoteNumber":74,"Velocity":51,"Duration":54347,"SoundDuration":54347,"Delta":807608720},{"NoteNumber":64,"Velocity":32,"Duration":217391,"SoundDuration":217391,"Delta":807608720},{"NoteNumber":78,"Velocity":53,"Duration":225563,"SoundDuration":225563,"Delta":807826111},{"NoteNumber":61,"Velocity":42,"Duration":225563,"SoundDuration":225563,"Delta":807826111},{"NoteNumber":76,"Velocity":46,"Duration":215827,"SoundDuration":215827,"Delta":808051675},{"NoteNumber":64,"Velocity":33,"Duration":215827,"SoundDuration":215827,"Delta":808051675},{"NoteNumber":74,"Velocity":51,"Duration":53956,"SoundDuration":53956,"Delta":808267503},{"NoteNumber":57,"Velocity":36,"Duration":215827,"SoundDuration":215827,"Delta":808267503},{"NoteNumber":73,"Velocity":49,"Duration":56390,"SoundDuration":56390,"Delta":808483330},{"NoteNumber":64,"Velocity":33,"Duration":225563,"SoundDuration":225563,"Delta":808483330},{"NoteNumber":71,"Velocity":50,"Duration":57692,"SoundDuration":57692,"Delta":808708894},{"NoteNumber":56,"Velocity":42,"Duration":226648,"SoundDuration":226648,"Delta":808708894},{"NoteNumber":73,"Velocity":46,"Duration":26785,"SoundDuration":26785,"Delta":808908757},{"NoteNumber":71,"Velocity":46,"Duration":107142,"SoundDuration":107142,"Delta":808935542},{"NoteNumber":64,"Velocity":33,"Duration":214285,"SoundDuration":214285,"Delta":808935542},{"NoteNumber":70,"Velocity":50,"Duration":107142,"SoundDuration":107142,"Delta":809042685},{"NoteNumber":71,"Velocity":46,"Duration":53191,"SoundDuration":53191,"Delta":809149828},{"NoteNumber":57,"Velocity":36,"Duration":212765,"SoundDuration":212765,"Delta":809149828},{"NoteNumber":73,"Velocity":47,"Duration":53956,"SoundDuration":53956,"Delta":809362594},{"NoteNumber":64,"Velocity":33,"Duration":215827,"SoundDuration":215827,"Delta":809362594},{"NoteNumber":76,"Velocity":50,"Duration":223880,"SoundDuration":223880,"Delta":809578421},{"NoteNumber":59,"Velocity":42,"Duration":223880,"SoundDuration":223880,"Delta":809578421},{"NoteNumber":74,"Velocity":47,"Duration":215827,"SoundDuration":215827,"Delta":809802302},{"NoteNumber":64,"Velocity":31,"Duration":215827,"SoundDuration":215827,"Delta":809802302},{"NoteNumber":73,"Velocity":47,"Duration":53956,"SoundDuration":53956,"Delta":810018129},{"NoteNumber":56,"Velocity":35,"Duration":215827,"SoundDuration":215827,"Delta":810018129},{"NoteNumber":71,"Velocity":47,"Duration":56390,"SoundDuration":56390,"Delta":810233957},{"NoteNumber":64,"Velocity":31,"Duration":225563,"SoundDuration":225563,"Delta":810233957},{"NoteNumber":68,"Velocity":53,"Duration":215827,"SoundDuration":215827,"Delta":810459521},{"NoteNumber":54,"Velocity":40,"Duration":215827,"SoundDuration":215827,"Delta":810459521},{"NoteNumber":69,"Velocity":50,"Duration":55970,"SoundDuration":55970,"Delta":810675348},{"NoteNumber":64,"Velocity":31,"Duration":223880,"SoundDuration":223880,"Delta":810675348},{"NoteNumber":56,"Velocity":34,"Duration":215827,"SoundDuration":215827,"Delta":810899229},{"NoteNumber":71,"Velocity":50,"Duration":55555,"SoundDuration":55555,"Delta":811115056},{"NoteNumber":64,"Velocity":31,"Duration":222221,"SoundDuration":222221,"Delta":811115056},{"NoteNumber":57,"Velocity":39,"Duration":215827,"SoundDuration":215827,"Delta":811337278},{"NoteNumber":72,"Velocity":40,"Duration":26978,"SoundDuration":26978,"Delta":811526127},{"NoteNumber":73,"Velocity":50,"Duration":55147,"SoundDuration":55147,"Delta":811553106},{"NoteNumber":64,"Velocity":31,"Duration":220588,"SoundDuration":220588,"Delta":811553106},{"NoteNumber":50,"Velocity":33,"Duration":215827,"SoundDuration":215827,"Delta":811773694},{"NoteNumber":76,"Velocity":40,"Duration":26978,"SoundDuration":26978,"Delta":811962543},{"NoteNumber":74,"Velocity":50,"Duration":55970,"SoundDuration":55970,"Delta":811989521},{"NoteNumber":59,"Velocity":31,"Duration":223880,"SoundDuration":223880,"Delta":811989521},{"NoteNumber":52,"Velocity":40,"Duration":215827,"SoundDuration":215827,"Delta":812213402},{"NoteNumber":74,"Velocity":40,"Duration":26978,"SoundDuration":26978,"Delta":812402251},{"NoteNumber":73,"Velocity":50,"Duration":53956,"SoundDuration":53956,"Delta":812429229},{"NoteNumber":57,"Velocity":31,"Duration":215827,"SoundDuration":215827,"Delta":812429229},{"NoteNumber":52,"Velocity":34,"Duration":218977,"SoundDuration":218977,"Delta":812645057},{"NoteNumber":73,"Velocity":40,"Duration":27372,"SoundDuration":27372,"Delta":812836663},{"NoteNumber":71,"Velocity":50,"Duration":66964,"SoundDuration":66964,"Delta":812864035},{"NoteNumber":56,"Velocity":31,"Duration":267857,"SoundDuration":267857,"Delta":812864035},{"NoteNumber":71,"Velocity":51,"Duration":258620,"SoundDuration":258620,"Delta":813131892},{"NoteNumber":68,"Velocity":43,"Duration":517241,"SoundDuration":517241,"Delta":813131892},{"NoteNumber":64,"Velocity":32,"Duration":753461,"SoundDuration":753461,"Delta":813131892},{"NoteNumber":62,"Velocity":38,"Duration":517241,"SoundDuration":517241,"Delta":813131892},{"NoteNumber":57,"Velocity":26,"Duration":753461,"SoundDuration":753461,"Delta":813131892},{"NoteNumber":72,"Velocity":51,"Duration":258620,"SoundDuration":258620,"Delta":813390512},{"NoteNumber":69,"Velocity":40,"Duration":236220,"SoundDuration":236220,"Delta":813649133},{"NoteNumber":73,"Velocity":48,"Duration":236220,"SoundDuration":236220,"Delta":813649133},{"NoteNumber":61,"Velocity":31,"Duration":236220,"SoundDuration":236220,"Delta":813649133},{"NoteNumber":73,"Velocity":82,"Duration":111940,"SoundDuration":111940,"Delta":814121574},{"NoteNumber":45,"Velocity":66,"Duration":111940,"SoundDuration":111940,"Delta":814121574},{"NoteNumber":69,"Velocity":66,"Duration":111940,"SoundDuration":111940,"Delta":814233514},{"NoteNumber":49,"Velocity":56,"Duration":111940,"SoundDuration":111940,"Delta":814233514},{"NoteNumber":76,"Velocity":81,"Duration":108695,"SoundDuration":108695,"Delta":814345454},{"NoteNumber":52,"Velocity":55,"Duration":108695,"SoundDuration":108695,"Delta":814345454},{"NoteNumber":73,"Velocity":66,"Duration":108695,"SoundDuration":108695,"Delta":814454150},{"NoteNumber":57,"Velocity":55,"Duration":108695,"SoundDuration":108695,"Delta":814454150},{"NoteNumber":74,"Velocity":85,"Duration":112782,"SoundDuration":112782,"Delta":814562846},{"NoteNumber":47,"Velocity":66,"Duration":112782,"SoundDuration":112782,"Delta":814562846},{"NoteNumber":71,"Velocity":66,"Duration":112781,"SoundDuration":112781,"Delta":814675628},{"NoteNumber":50,"Velocity":56,"Duration":112781,"SoundDuration":112781,"Delta":814675628},{"NoteNumber":78,"Velocity":79,"Duration":107913,"SoundDuration":107913,"Delta":814788410},{"NoteNumber":56,"Velocity":56,"Duration":107913,"SoundDuration":107913,"Delta":814788410},{"NoteNumber":74,"Velocity":66,"Duration":107913,"SoundDuration":107913,"Delta":814896324},{"NoteNumber":59,"Velocity":56,"Duration":107913,"SoundDuration":107913,"Delta":814896324},{"NoteNumber":76,"Velocity":82,"Duration":110293,"SoundDuration":110293,"Delta":815004237},{"NoteNumber":49,"Velocity":66,"Duration":110293,"SoundDuration":110293,"Delta":815004237},{"NoteNumber":73,"Velocity":69,"Duration":110294,"SoundDuration":110294,"Delta":815114531},{"NoteNumber":52,"Velocity":55,"Duration":110294,"SoundDuration":110294,"Delta":815114531},{"NoteNumber":81,"Velocity":74,"Duration":107913,"SoundDuration":107913,"Delta":815224825},{"NoteNumber":57,"Velocity":55,"Duration":107913,"SoundDuration":107913,"Delta":815224825},{"NoteNumber":76,"Velocity":69,"Duration":107913,"SoundDuration":107913,"Delta":815332739},{"NoteNumber":61,"Velocity":55,"Duration":107913,"SoundDuration":107913,"Delta":815332739},{"NoteNumber":80,"Velocity":83,"Duration":107913,"SoundDuration":107913,"Delta":815440653},{"NoteNumber":50,"Velocity":66,"Duration":107913,"SoundDuration":107913,"Delta":815440653},{"NoteNumber":78,"Velocity":71,"Duration":107913,"SoundDuration":107913,"Delta":815548567},{"NoteNumber":54,"Velocity":53,"Duration":107913,"SoundDuration":107913,"Delta":815548567},{"NoteNumber":76,"Velocity":71,"Duration":112782,"SoundDuration":112782,"Delta":815656480},{"NoteNumber":59,"Velocity":53,"Duration":112782,"SoundDuration":112782,"Delta":815656480},{"NoteNumber":74,"Velocity":71,"Duration":112781,"SoundDuration":112781,"Delta":815769262},{"NoteNumber":62,"Velocity":53,"Duration":112781,"SoundDuration":112781,"Delta":815769262},{"NoteNumber":73,"Velocity":84,"Duration":108695,"SoundDuration":108695,"Delta":815882044},{"NoteNumber":52,"Velocity":66,"Duration":108695,"SoundDuration":108695,"Delta":815882044},{"NoteNumber":76,"Velocity":69,"Duration":108695,"SoundDuration":108695,"Delta":815990740},{"NoteNumber":57,"Velocity":56,"Duration":108695,"SoundDuration":108695,"Delta":815990740},{"NoteNumber":69,"Velocity":80,"Duration":108695,"SoundDuration":108695,"Delta":816099436},{"NoteNumber":61,"Velocity":55,"Duration":108695,"SoundDuration":108695,"Delta":816099436},{"NoteNumber":73,"Velocity":69,"Duration":108695,"SoundDuration":108695,"Delta":816208132},{"NoteNumber":64,"Velocity":55,"Duration":108695,"SoundDuration":108695,"Delta":816208132},{"NoteNumber":71,"Velocity":81,"Duration":109489,"SoundDuration":109489,"Delta":816316827},{"NoteNumber":52,"Velocity":67,"Duration":109489,"SoundDuration":109489,"Delta":816316827},{"NoteNumber":74,"Velocity":69,"Duration":109488,"SoundDuration":109488,"Delta":816426316},{"NoteNumber":56,"Velocity":56,"Duration":109488,"SoundDuration":109488,"Delta":816426316},{"NoteNumber":68,"Velocity":81,"Duration":109489,"SoundDuration":109489,"Delta":816535805},{"NoteNumber":59,"Velocity":56,"Duration":109489,"SoundDuration":109489,"Delta":816535805},{"NoteNumber":71,"Velocity":69,"Duration":125000,"SoundDuration":125000,"Delta":816645294},{"NoteNumber":62,"Velocity":56,"Duration":125000,"SoundDuration":125000,"Delta":816645294},{"NoteNumber":69,"Velocity":51,"Duration":110293,"SoundDuration":110293,"Delta":816781658},{"NoteNumber":57,"Velocity":36,"Duration":220588,"SoundDuration":220588,"Delta":816781658},{"NoteNumber":61,"Velocity":43,"Duration":220588,"SoundDuration":220588,"Delta":816781658},{"NoteNumber":71,"Velocity":49,"Duration":110294,"SoundDuration":110294,"Delta":816891952},{"NoteNumber":73,"Velocity":50,"Duration":110293,"SoundDuration":110293,"Delta":817002246},{"NoteNumber":61,"Velocity":30,"Duration":209385,"SoundDuration":209385,"Delta":817002246},{"NoteNumber":64,"Velocity":36,"Duration":209385,"SoundDuration":209385,"Delta":817002246},{"NoteNumber":74,"Velocity":51,"Duration":109961,"SoundDuration":109961,"Delta":817112540},{"NoteNumber":76,"Velocity":52,"Duration":109151,"SoundDuration":109151,"Delta":817222501},{"NoteNumber":61,"Velocity":30,"Duration":208519,"SoundDuration":208519,"Delta":817222501},{"NoteNumber":64,"Velocity":36,"Duration":208519,"SoundDuration":208519,"Delta":817222501},{"NoteNumber":78,"Velocity":53,"Duration":110478,"SoundDuration":110478,"Delta":817331653},{"NoteNumber":80,"Velocity":54,"Duration":111657,"SoundDuration":111657,"Delta":817442132},{"NoteNumber":61,"Velocity":28,"Duration":205819,"SoundDuration":205819,"Delta":817442132},{"NoteNumber":64,"Velocity":34,"Duration":205819,"SoundDuration":205819,"Delta":817442132},{"NoteNumber":81,"Velocity":55,"Duration":94162,"SoundDuration":94162,"Delta":817553789},{"NoteNumber":80,"Velocity":55,"Duration":109489,"SoundDuration":109489,"Delta":817666891},{"NoteNumber":57,"Velocity":41,"Duration":218977,"SoundDuration":218977,"Delta":817666891},{"NoteNumber":78,"Velocity":51,"Duration":109488,"SoundDuration":109488,"Delta":817776380},{"NoteNumber":77,"Velocity":55,"Duration":109489,"SoundDuration":109489,"Delta":817885869},{"NoteNumber":62,"Velocity":28,"Duration":208029,"SoundDuration":208029,"Delta":817885869},{"NoteNumber":66,"Velocity":33,"Duration":208029,"SoundDuration":208029,"Delta":817885869},{"NoteNumber":78,"Velocity":51,"Duration":109488,"SoundDuration":109488,"Delta":817995358},{"NoteNumber":83,"Velocity":48,"Duration":109489,"SoundDuration":109489,"Delta":818104847},{"NoteNumber":62,"Velocity":28,"Duration":208029,"SoundDuration":208029,"Delta":818104847},{"NoteNumber":66,"Velocity":33,"Duration":208029,"SoundDuration":208029,"Delta":818104847},{"NoteNumber":81,"Velocity":50,"Duration":109488,"SoundDuration":109488,"Delta":818214336},{"NoteNumber":80,"Velocity":52,"Duration":54744,"SoundDuration":54744,"Delta":818323825},{"NoteNumber":62,"Velocity":28,"Duration":228536,"SoundDuration":228536,"Delta":818323825},{"NoteNumber":66,"Velocity":33,"Duration":228536,"SoundDuration":228536,"Delta":818323825},{"NoteNumber":78,"Velocity":54,"Duration":59523,"SoundDuration":59523,"Delta":818433314},{"NoteNumber":78,"Velocity":56,"Duration":107913,"SoundDuration":107913,"Delta":818552362},{"NoteNumber":57,"Velocity":37,"Duration":218261,"SoundDuration":218261,"Delta":818552362},{"NoteNumber":76,"Velocity":47,"Duration":110347,"SoundDuration":110347,"Delta":818660275},{"NoteNumber":75,"Velocity":54,"Duration":112782,"SoundDuration":112782,"Delta":818770623},{"NoteNumber":61,"Velocity":27,"Duration":214285,"SoundDuration":214285,"Delta":818770623},{"NoteNumber":64,"Velocity":32,"Duration":214285,"SoundDuration":214285,"Delta":818770623},{"NoteNumber":76,"Velocity":47,"Duration":112782,"SoundDuration":112782,"Delta":818883405},{"NoteNumber":69,"Velocity":52,"Duration":112781,"SoundDuration":112781,"Delta":818996187},{"NoteNumber":61,"Velocity":27,"Duration":214285,"SoundDuration":214285,"Delta":818996187},{"NoteNumber":64,"Velocity":32,"Duration":214285,"SoundDuration":214285,"Delta":818996187},{"NoteNumber":73,"Velocity":46,"Duration":112782,"SoundDuration":112782,"Delta":819108969},{"NoteNumber":76,"Velocity":52,"Duration":116278,"SoundDuration":116278,"Delta":819221751},{"NoteNumber":61,"Velocity":27,"Duration":232558,"SoundDuration":232558,"Delta":819221751},{"NoteNumber":64,"Velocity":32,"Duration":232558,"SoundDuration":232558,"Delta":819221751},{"NoteNumber":81,"Velocity":46,"Duration":116279,"SoundDuration":116279,"Delta":819338030},{"NoteNumber":80,"Velocity":55,"Duration":109489,"SoundDuration":109489,"Delta":819454309},{"NoteNumber":57,"Velocity":41,"Duration":218977,"SoundDuration":218977,"Delta":819454309},{"NoteNumber":78,"Velocity":51,"Duration":109488,"SoundDuration":109488,"Delta":819563798},{"NoteNumber":77,"Velocity":55,"Duration":109489,"SoundDuration":109489,"Delta":819673287},{"NoteNumber":62,"Velocity":28,"Duration":208029,"SoundDuration":208029,"Delta":819673287},{"NoteNumber":66,"Velocity":33,"Duration":208029,"SoundDuration":208029,"Delta":819673287},{"NoteNumber":78,"Velocity":51,"Duration":109488,"SoundDuration":109488,"Delta":819782776},{"NoteNumber":83,"Velocity":48,"Duration":109489,"SoundDuration":109489,"Delta":819892265},{"NoteNumber":62,"Velocity":28,"Duration":208029,"SoundDuration":208029,"Delta":819892265},{"NoteNumber":66,"Velocity":33,"Duration":208029,"SoundDuration":208029,"Delta":819892265},{"NoteNumber":81,"Velocity":50,"Duration":109488,"SoundDuration":109488,"Delta":820001754},{"NoteNumber":80,"Velocity":52,"Duration":54744,"SoundDuration":54744,"Delta":820111243},{"NoteNumber":62,"Velocity":28,"Duration":228536,"SoundDuration":228536,"Delta":820111243},{"NoteNumber":66,"Velocity":33,"Duration":228536,"SoundDuration":228536,"Delta":820111243},{"NoteNumber":78,"Velocity":54,"Duration":59523,"SoundDuration":59523,"Delta":820220732},{"NoteNumber":76,"Velocity":52,"Duration":287096,"SoundDuration":287096,"Delta":820339780},{"NoteNumber":57,"Velocity":41,"Duration":193548,"SoundDuration":193548,"Delta":820339780},{"NoteNumber":61,"Velocity":41,"Duration":193548,"SoundDuration":193548,"Delta":820339780},{"NoteNumber":64,"Velocity":41,"Duration":193548,"SoundDuration":193548,"Delta":820339780},{"NoteNumber":76,"Velocity":52,"Duration":52447,"SoundDuration":52447,"Delta":820630102},{"NoteNumber":78,"Velocity":38,"Duration":30120,"SoundDuration":30120,"Delta":820682550},{"NoteNumber":76,"Velocity":37,"Duration":30120,"SoundDuration":30120,"Delta":820712670},{"NoteNumber":75,"Velocity":37,"Duration":30120,"SoundDuration":30120,"Delta":820742791},{"NoteNumber":76,"Velocity":52,"Duration":384615,"SoundDuration":384615,"Delta":820772911},{"NoteNumber":50,"Velocity":41,"Duration":189873,"SoundDuration":189873,"Delta":821157526},{"NoteNumber":59,"Velocity":41,"Duration":189873,"SoundDuration":189873,"Delta":821157526},{"NoteNumber":74,"Velocity":52,"Duration":53571,"SoundDuration":53571,"Delta":821442337},{"NoteNumber":76,"Velocity":35,"Duration":29761,"SoundDuration":29761,"Delta":821495908},{"NoteNumber":74,"Velocity":35,"Duration":29761,"SoundDuration":29761,"Delta":821525670},{"NoteNumber":73,"Velocity":35,"Duration":29761,"SoundDuration":29761,"Delta":821555432},{"NoteNumber":74,"Velocity":52,"Duration":389609,"SoundDuration":389609,"Delta":821585194},{"NoteNumber":52,"Velocity":41,"Duration":193548,"SoundDuration":193548,"Delta":821974804},{"NoteNumber":57,"Velocity":41,"Duration":193548,"SoundDuration":193548,"Delta":821974804},{"NoteNumber":73,"Velocity":52,"Duration":54744,"SoundDuration":54744,"Delta":822265127},{"NoteNumber":74,"Velocity":36,"Duration":29411,"SoundDuration":29411,"Delta":822319871},{"NoteNumber":73,"Velocity":36,"Duration":29411,"SoundDuration":29411,"Delta":822349283},{"NoteNumber":71,"Velocity":36,"Duration":29411,"SoundDuration":29411,"Delta":822378695},{"NoteNumber":73,"Velocity":52,"Duration":389609,"SoundDuration":389609,"Delta":822408106},{"NoteNumber":50,"Velocity":41,"Duration":192307,"SoundDuration":192307,"Delta":822797716},{"NoteNumber":56,"Velocity":41,"Duration":192307,"SoundDuration":192307,"Delta":822797716},{"NoteNumber":71,"Velocity":52,"Duration":55147,"SoundDuration":55147,"Delta":823086178},{"NoteNumber":73,"Velocity":35,"Duration":29069,"SoundDuration":29069,"Delta":823141325},{"NoteNumber":71,"Velocity":35,"Duration":29069,"SoundDuration":29069,"Delta":823170394},{"NoteNumber":69,"Velocity":35,"Duration":29069,"SoundDuration":29069,"Delta":823199464},{"NoteNumber":71,"Velocity":52,"Duration":397350,"SoundDuration":397350,"Delta":823228534},{"NoteNumber":49,"Velocity":63,"Duration":222221,"SoundDuration":222221,"Delta":823625885},{"NoteNumber":57,"Velocity":63,"Duration":222221,"SoundDuration":222221,"Delta":823625885},{"NoteNumber":76,"Velocity":60,"Duration":111110,"SoundDuration":111110,"Delta":823736996},{"NoteNumber":75,"Velocity":71,"Duration":107142,"SoundDuration":107142,"Delta":823848107},{"NoteNumber":76,"Velocity":64,"Duration":107142,"SoundDuration":107142,"Delta":823955250},{"NoteNumber":78,"Velocity":71,"Duration":107142,"SoundDuration":107142,"Delta":824062392},{"NoteNumber":76,"Velocity":64,"Duration":107142,"SoundDuration":107142,"Delta":824169535},{"NoteNumber":75,"Velocity":64,"Duration":114503,"SoundDuration":114503,"Delta":824276678},{"NoteNumber":76,"Velocity":64,"Duration":114503,"SoundDuration":114503,"Delta":824391182},{"NoteNumber":50,"Velocity":63,"Duration":222221,"SoundDuration":222221,"Delta":824505685},{"NoteNumber":59,"Velocity":63,"Duration":222221,"SoundDuration":222221,"Delta":824505685},{"NoteNumber":74,"Velocity":60,"Duration":111110,"SoundDuration":111110,"Delta":824616796},{"NoteNumber":73,"Velocity":71,"Duration":109126,"SoundDuration":109126,"Delta":824727907},{"NoteNumber":74,"Velocity":64,"Duration":107142,"SoundDuration":107142,"Delta":824837034},{"NoteNumber":76,"Velocity":71,"Duration":107142,"SoundDuration":107142,"Delta":824944177},{"NoteNumber":74,"Velocity":64,"Duration":107142,"SoundDuration":107142,"Delta":825051320},{"NoteNumber":73,"Velocity":64,"Duration":112165,"SoundDuration":112165,"Delta":825158462},{"NoteNumber":74,"Velocity":64,"Duration":117187,"SoundDuration":117187,"Delta":825270628},{"NoteNumber":52,"Velocity":63,"Duration":218977,"SoundDuration":218977,"Delta":825387815},{"NoteNumber":57,"Velocity":63,"Duration":218977,"SoundDuration":218977,"Delta":825387815},{"NoteNumber":73,"Velocity":60,"Duration":109488,"SoundDuration":109488,"Delta":825497304},{"NoteNumber":72,"Velocity":71,"Duration":108701,"SoundDuration":108701,"Delta":825606793},{"NoteNumber":73,"Velocity":64,"Duration":107913,"SoundDuration":107913,"Delta":825715494},{"NoteNumber":74,"Velocity":71,"Duration":107913,"SoundDuration":107913,"Delta":825823408},{"NoteNumber":73,"Velocity":64,"Duration":107913,"SoundDuration":107913,"Delta":825931322},{"NoteNumber":72,"Velocity":64,"Duration":111940,"SoundDuration":111940,"Delta":826039236},{"NoteNumber":73,"Velocity":64,"Duration":111940,"SoundDuration":111940,"Delta":826151176},{"NoteNumber":52,"Velocity":63,"Duration":220588,"SoundDuration":220588,"Delta":826263116},{"NoteNumber":56,"Velocity":63,"Duration":220588,"SoundDuration":220588,"Delta":826263116},{"NoteNumber":71,"Velocity":60,"Duration":110294,"SoundDuration":110294,"Delta":826373410},{"NoteNumber":70,"Velocity":71,"Duration":107142,"SoundDuration":107142,"Delta":826483704},{"NoteNumber":71,"Velocity":64,"Duration":107142,"SoundDuration":107142,"Delta":826590847},{"NoteNumber":73,"Velocity":71,"Duration":107142,"SoundDuration":107142,"Delta":826697990},{"NoteNumber":71,"Velocity":64,"Duration":107142,"SoundDuration":107142,"Delta":826805132},{"NoteNumber":70,"Velocity":64,"Duration":111111,"SoundDuration":111111,"Delta":826912275},{"NoteNumber":71,"Velocity":64,"Duration":111110,"SoundDuration":111110,"Delta":827023386},{"NoteNumber":69,"Velocity":73,"Duration":121951,"SoundDuration":121951,"Delta":827134497},{"NoteNumber":57,"Velocity":63,"Duration":459730,"SoundDuration":459730,"Delta":827134497},{"NoteNumber":73,"Velocity":50,"Duration":107913,"SoundDuration":107913,"Delta":827378400},{"NoteNumber":69,"Velocity":49,"Duration":107913,"SoundDuration":107913,"Delta":827486313},{"NoteNumber":76,"Velocity":55,"Duration":107913,"SoundDuration":107913,"Delta":827594227},{"NoteNumber":74,"Velocity":48,"Duration":107913,"SoundDuration":107913,"Delta":827702141},{"NoteNumber":71,"Velocity":48,"Duration":53956,"SoundDuration":53956,"Delta":827810055},{"NoteNumber":68,"Velocity":47,"Duration":53956,"SoundDuration":53956,"Delta":827917968},{"NoteNumber":69,"Velocity":60,"Duration":431654,"SoundDuration":431654,"Delta":828025882},{"NoteNumber":68,"Velocity":67,"Duration":111111,"SoundDuration":111111,"Delta":828457537},{"NoteNumber":71,"Velocity":67,"Duration":111111,"SoundDuration":111111,"Delta":828457537},{"NoteNumber":76,"Velocity":80,"Duration":111111,"SoundDuration":111111,"Delta":828457537},{"NoteNumber":52,"Velocity":61,"Duration":111111,"SoundDuration":111111,"Delta":828457537},{"NoteNumber":56,"Velocity":61,"Duration":111111,"SoundDuration":111111,"Delta":828457537},{"NoteNumber":59,"Velocity":61,"Duration":111111,"SoundDuration":111111,"Delta":828457537},{"NoteNumber":64,"Velocity":73,"Duration":111111,"SoundDuration":111111,"Delta":828457537},{"NoteNumber":69,"Velocity":73,"Duration":120000,"SoundDuration":120000,"Delta":828901981},{"NoteNumber":73,"Velocity":73,"Duration":120000,"SoundDuration":120000,"Delta":828901981},{"NoteNumber":76,"Velocity":73,"Duration":120000,"SoundDuration":120000,"Delta":828901981},{"NoteNumber":81,"Velocity":86,"Duration":120000,"SoundDuration":120000,"Delta":828901981},{"NoteNumber":45,"Velocity":67,"Duration":120000,"SoundDuration":120000,"Delta":828901981},{"NoteNumber":49,"Velocity":67,"Duration":120000,"SoundDuration":120000,"Delta":828901981},{"NoteNumber":52,"Velocity":67,"Duration":120000,"SoundDuration":120000,"Delta":828901981},{"NoteNumber":57,"Velocity":79,"Duration":120000,"SoundDuration":120000,"Delta":828901981},{"NoteNumber":73,"Velocity":52,"Duration":115248,"SoundDuration":115248,"Delta":829141981},{"NoteNumber":69,"Velocity":50,"Duration":106382,"SoundDuration":106382,"Delta":829248364},{"NoteNumber":76,"Velocity":57,"Duration":107913,"SoundDuration":107913,"Delta":829354747},{"NoteNumber":74,"Velocity":50,"Duration":107913,"SoundDuration":107913,"Delta":829462661},{"NoteNumber":71,"Velocity":50,"Duration":53956,"SoundDuration":53956,"Delta":829570575},{"NoteNumber":68,"Velocity":50,"Duration":53956,"SoundDuration":53956,"Delta":829678488},{"NoteNumber":69,"Velocity":62,"Duration":116278,"SoundDuration":116278,"Delta":829786402},{"NoteNumber":68,"Velocity":70,"Duration":128205,"SoundDuration":128205,"Delta":830251518},{"NoteNumber":71,"Velocity":70,"Duration":128205,"SoundDuration":128205,"Delta":830251518},{"NoteNumber":76,"Velocity":82,"Duration":128205,"SoundDuration":128205,"Delta":830251518},{"NoteNumber":52,"Velocity":63,"Duration":128205,"SoundDuration":128205,"Delta":830251518},{"NoteNumber":56,"Velocity":63,"Duration":128205,"SoundDuration":128205,"Delta":830251518},{"NoteNumber":59,"Velocity":63,"Duration":128205,"SoundDuration":128205,"Delta":830251518},{"NoteNumber":64,"Velocity":75,"Duration":128205,"SoundDuration":128205,"Delta":830251518},{"NoteNumber":69,"Velocity":75,"Duration":138888,"SoundDuration":138888,"Delta":830764339},{"NoteNumber":73,"Velocity":75,"Duration":138888,"SoundDuration":138888,"Delta":830764339},{"NoteNumber":76,"Velocity":75,"Duration":138888,"SoundDuration":138888,"Delta":830764339},{"NoteNumber":81,"Velocity":89,"Duration":138888,"SoundDuration":138888,"Delta":830764339},{"NoteNumber":45,"Velocity":70,"Duration":138888,"SoundDuration":138888,"Delta":830764339},{"NoteNumber":49,"Velocity":70,"Duration":138888,"SoundDuration":138888,"Delta":830764339},{"NoteNumber":52,"Velocity":70,"Duration":138888,"SoundDuration":138888,"Delta":830764339},{"NoteNumber":57,"Velocity":82,"Duration":138888,"SoundDuration":138888,"Delta":830764339}]}