{"title":"Kreisleriana No. 4","artist":"Piano","durationMs":199172,"midiSha256":"147183701b2c1fb4cb9be8dc495aa4571865f8876ebb5b7b0303fa74efd9b249","midiObject":[{"NoteNumber":63,"Velocity":38,"Duration":2000000,"SoundDuration":2000000,"Delta":0},{"NoteNumber":57,"Velocity":38,"Duration":2000000,"SoundDuration":2000000,"Delta":0},{"NoteNumber":69,"Velocity":53,"Duration":2000000,"SoundDuration":2000000,"Delta":0},{"NoteNumber":53,"Velocity":37,"Duration":2000000,"SoundDuration":2000000,"Delta":0},{"NoteNumber":48,"Velocity":31,"Duration":2000000,"SoundDuration":2000000,"Delta":0},{"NoteNumber":63,"Velocity":38,"Duration":960000,"SoundDuration":960000,"Delta":2000000},{"NoteNumber":58,"Velocity":38,"Duration":960000,"SoundDuration":960000,"Delta":2000000},{"NoteNumber":70,"Velocity":54,"Duration":960000,"SoundDuration":960000,"Delta":2000000},{"NoteNumber":46,"Velocity":27,"Duration":1927742,"SoundDuration":1927742,"Delta":2000000},{"NoteNumber":53,"Velocity":32,"Duration":1927742,"SoundDuration":1927742,"Delta":2000000},{"NoteNumber":74,"Velocity":63,"Duration":725806,"SoundDuration":725806,"Delta":2960000},{"NoteNumber":72,"Velocity":57,"Duration":241935,"SoundDuration":241935,"Delta":3685806},{"NoteNumber":72,"Velocity":60,"Duration":1983470,"SoundDuration":1983470,"Delta":3927742},{"NoteNumber":63,"Velocity":43,"Duration":1983470,"SoundDuration":1983470,"Delta":3927742},{"NoteNumber":60,"Velocity":43,"Duration":1983470,"SoundDuration":1983470,"Delta":3927742},{"NoteNumber":45,"Velocity":32,"Duration":1983470,"SoundDuration":1983470,"Delta":3927742},{"NoteNumber":53,"Velocity":38,"Duration":1983470,"SoundDuration":1983470,"Delta":3927742},{"NoteNumber":58,"Velocity":39,"Duration":1008403,"SoundDuration":1008403,"Delta":5911213},{"NoteNumber":63,"Velocity":47,"Duration":1008403,"SoundDuration":1008403,"Delta":5911213},{"NoteNumber":70,"Velocity":56,"Duration":1008403,"SoundDuration":1008403,"Delta":5911213},{"NoteNumber":46,"Velocity":28,"Duration":1008403,"SoundDuration":1008403,"Delta":5911213},{"NoteNumber":53,"Velocity":33,"Duration":2016807,"SoundDuration":2016807,"Delta":5911213},{"NoteNumber":63,"Velocity":40,"Duration":1008403,"SoundDuration":1008403,"Delta":6919616},{"NoteNumber":69,"Velocity":57,"Duration":1008403,"SoundDuration":1008403,"Delta":6919616},{"NoteNumber":57,"Velocity":40,"Duration":1008403,"SoundDuration":1008403,"Delta":6919616},{"NoteNumber":48,"Velocity":38,"Duration":1008403,"SoundDuration":1008403,"Delta":6919616},{"NoteNumber":58,"Velocity":38,"Duration":1008403,"SoundDuration":1008403,"Delta":7928020},{"NoteNumber":63,"Velocity":45,"Duration":2030587,"SoundDuration":2030587,"Delta":7928020},{"NoteNumber":67,"Velocity":54,"Duration":1008403,"SoundDuration":1008403,"Delta":7928020},{"NoteNumber":46,"Velocity":32,"Duration":1008403,"SoundDuration":1008403,"Delta":7928020},{"NoteNumber":53,"Velocity":27,"Duration":2030587,"SoundDuration":2030587,"Delta":7928020},{"NoteNumber":60,"Velocity":51,"Duration":3074273,"SoundDuration":3074273,"Delta":8936423},{"NoteNumber":65,"Velocity":60,"Duration":495867,"SoundDuration":495867,"Delta":8936423},{"NoteNumber":45,"Velocity":34,"Duration":1022183,"SoundDuration":1022183,"Delta":8936423},{"NoteNumber":67,"Velocity":50,"Duration":131578,"SoundDuration":131578,"Delta":9432291},{"NoteNumber":65,"Velocity":45,"Duration":131578,"SoundDuration":131578,"Delta":9563870},{"NoteNumber":64,"Velocity":50,"Duration":131578,"SoundDuration":131578,"Delta":9695449},{"NoteNumber":65,"Velocity":52,"Duration":131578,"SoundDuration":131578,"Delta":9827028},{"NoteNumber":67,"Velocity":59,"Duration":756737,"SoundDuration":756737,"Delta":9958607},{"NoteNumber":41,"Velocity":38,"Duration":2052089,"SoundDuration":2052089,"Delta":9958607},{"NoteNumber":57,"Velocity":45,"Duration":2052089,"SoundDuration":2052089,"Delta":9958607},{"NoteNumber":63,"Velocity":52,"Duration":260869,"SoundDuration":260869,"Delta":10715344},{"NoteNumber":63,"Velocity":58,"Duration":1034482,"SoundDuration":1034482,"Delta":10976214},{"NoteNumber":56,"Velocity":35,"Duration":2000000,"SoundDuration":2000000,"Delta":12010697},{"NoteNumber":50,"Velocity":35,"Duration":2000000,"SoundDuration":2000000,"Delta":12010697},{"NoteNumber":62,"Velocity":50,"Duration":2000000,"SoundDuration":2000000,"Delta":12010697},{"NoteNumber":46,"Velocity":32,"Duration":2000000,"SoundDuration":2000000,"Delta":12010697},{"NoteNumber":34,"Velocity":27,"Duration":2000000,"SoundDuration":2000000,"Delta":12010697},{"NoteNumber":56,"Velocity":23,"Duration":1943352,"SoundDuration":1943352,"Delta":14010697},{"NoteNumber":51,"Velocity":23,"Duration":846774,"SoundDuration":846774,"Delta":14010697},{"NoteNumber":60,"Velocity":41,"Duration":1943352,"SoundDuration":1943352,"Delta":14010697},{"NoteNumber":36,"Velocity":18,"Duration":846774,"SoundDuration":846774,"Delta":14010697},{"NoteNumber":48,"Velocity":22,"Duration":846774,"SoundDuration":846774,"Delta":14010697},{"NoteNumber":39,"Velocity":34,"Duration":852675,"SoundDuration":852675,"Delta":14857471},{"NoteNumber":55,"Velocity":46,"Duration":731707,"SoundDuration":731707,"Delta":14978439},{"NoteNumber":51,"Velocity":40,"Duration":731707,"SoundDuration":731707,"Delta":14978439},{"NoteNumber":53,"Velocity":37,"Duration":243902,"SoundDuration":243902,"Delta":15710146},{"NoteNumber":38,"Velocity":28,"Duration":243902,"SoundDuration":243902,"Delta":15710146},{"NoteNumber":53,"Velocity":30,"Duration":2000410,"SoundDuration":2000410,"Delta":15954049},{"NoteNumber":56,"Velocity":36,"Duration":2000410,"SoundDuration":2000410,"Delta":15954049},{"NoteNumber":58,"Velocity":43,"Duration":2000410,"SoundDuration":2000410,"Delta":15954049},{"NoteNumber":50,"Velocity":32,"Duration":2000410,"SoundDuration":2000410,"Delta":15954049},{"NoteNumber":38,"Velocity":27,"Duration":2000410,"SoundDuration":2000410,"Delta":15954049},{"NoteNumber":56,"Velocity":29,"Duration":2034044,"SoundDuration":2034044,"Delta":17954459},{"NoteNumber":58,"Velocity":42,"Duration":2034044,"SoundDuration":2034044,"Delta":17954459},{"NoteNumber":51,"Velocity":29,"Duration":1008403,"SoundDuration":1008403,"Delta":17954459},{"NoteNumber":36,"Velocity":23,"Duration":1008403,"SoundDuration":1008403,"Delta":17954459},{"NoteNumber":48,"Velocity":28,"Duration":1008403,"SoundDuration":1008403,"Delta":17954459},{"NoteNumber":50,"Velocity":35,"Duration":1025641,"SoundDuration":1025641,"Delta":18962862},{"NoteNumber":46,"Velocity":28,"Duration":1025641,"SoundDuration":1025641,"Delta":18962862},{"NoteNumber":34,"Velocity":23,"Duration":1025641,"SoundDuration":1025641,"Delta":18962862},{"NoteNumber":48,"Velocity":43,"Duration":1034483,"SoundDuration":1034483,"Delta":19988503},{"NoteNumber":44,"Velocity":29,"Duration":1034483,"SoundDuration":1034483,"Delta":19988503},{"NoteNumber":32,"Velocity":24,"Duration":1034483,"SoundDuration":1034483,"Delta":19988503},{"NoteNumber":46,"Velocity":47,"Duration":517241,"SoundDuration":517241,"Delta":21022986},{"NoteNumber":43,"Velocity":34,"Duration":517241,"SoundDuration":517241,"Delta":21022986},{"NoteNumber":31,"Velocity":28,"Duration":517241,"SoundDuration":517241,"Delta":21022986},{"NoteNumber":48,"Velocity":41,"Duration":189320,"SoundDuration":189320,"Delta":21540228},{"NoteNumber":44,"Velocity":26,"Duration":189320,"SoundDuration":189320,"Delta":21540228},{"NoteNumber":32,"Velocity":26,"Duration":189320,"SoundDuration":189320,"Delta":21540228},{"NoteNumber":46,"Velocity":34,"Duration":189320,"SoundDuration":189320,"Delta":21685859},{"NoteNumber":43,"Velocity":23,"Duration":189320,"SoundDuration":189320,"Delta":21685859},{"NoteNumber":31,"Velocity":23,"Duration":189320,"SoundDuration":189320,"Delta":21685859},{"NoteNumber":45,"Velocity":42,"Duration":189320,"SoundDuration":189320,"Delta":21831490},{"NoteNumber":30,"Velocity":28,"Duration":189320,"SoundDuration":189320,"Delta":21831490},{"NoteNumber":42,"Velocity":28,"Duration":189320,"SoundDuration":189320,"Delta":21831490},{"NoteNumber":46,"Velocity":46,"Duration":186915,"SoundDuration":186915,"Delta":21977121},{"NoteNumber":31,"Velocity":29,"Duration":186915,"SoundDuration":186915,"Delta":21977121},{"NoteNumber":43,"Velocity":29,"Duration":186915,"SoundDuration":186915,"Delta":21977121},{"NoteNumber":48,"Velocity":50,"Duration":841720,"SoundDuration":841720,"Delta":22122752},{"NoteNumber":32,"Velocity":28,"Duration":841720,"SoundDuration":841720,"Delta":22122752},{"NoteNumber":44,"Velocity":34,"Duration":841720,"SoundDuration":841720,"Delta":22122752},{"NoteNumber":44,"Velocity":44,"Duration":291262,"SoundDuration":291262,"Delta":22964473},{"NoteNumber":41,"Velocity":30,"Duration":291262,"SoundDuration":291262,"Delta":22964473},{"NoteNumber":29,"Velocity":25,"Duration":291262,"SoundDuration":291262,"Delta":22964473},{"NoteNumber":44,"Velocity":44,"Duration":963302,"SoundDuration":963302,"Delta":23255735},{"NoteNumber":29,"Velocity":30,"Duration":963302,"SoundDuration":963302,"Delta":23255735},{"NoteNumber":41,"Velocity":36,"Duration":963302,"SoundDuration":963302,"Delta":23255735},{"NoteNumber":31,"Velocity":37,"Duration":137614,"SoundDuration":137614,"Delta":24219038},{"NoteNumber":43,"Velocity":37,"Duration":137614,"SoundDuration":137614,"Delta":24219038},{"NoteNumber":71,"Velocity":53,"Duration":2000000,"SoundDuration":2000000,"Delta":24356652},{"NoteNumber":67,"Velocity":38,"Duration":2000000,"SoundDuration":2000000,"Delta":24356652},{"NoteNumber":62,"Velocity":38,"Duration":2000000,"SoundDuration":2000000,"Delta":24356652},{"NoteNumber":53,"Velocity":31,"Duration":2000000,"SoundDuration":2000000,"Delta":24356652},{"NoteNumber":55,"Velocity":37,"Duration":2000000,"SoundDuration":2000000,"Delta":24356652},{"NoteNumber":66,"Velocity":49,"Duration":839999,"SoundDuration":839999,"Delta":26356652},{"NoteNumber":60,"Velocity":41,"Duration":839999,"SoundDuration":839999,"Delta":26356652},{"NoteNumber":72,"Velocity":59,"Duration":839999,"SoundDuration":839999,"Delta":26356652},{"NoteNumber":55,"Velocity":34,"Duration":960000,"SoundDuration":960000,"Delta":26356652},{"NoteNumber":51,"Velocity":29,"Duration":960000,"SoundDuration":960000,"Delta":26356652},{"NoteNumber":63,"Velocity":37,"Duration":1087742,"SoundDuration":1087742,"Delta":27196652},{"NoteNumber":66,"Velocity":37,"Duration":120000,"SoundDuration":120000,"Delta":27196652},{"NoteNumber":75,"Velocity":74,"Duration":725806,"SoundDuration":725806,"Delta":27316653},{"NoteNumber":57,"Velocity":37,"Duration":967742,"SoundDuration":967742,"Delta":27316653},{"NoteNumber":48,"Velocity":27,"Duration":967742,"SoundDuration":967742,"Delta":27316653},{"NoteNumber":74,"Velocity":59,"Duration":241935,"SoundDuration":241935,"Delta":28042459},{"NoteNumber":65,"Velocity":45,"Duration":1983471,"SoundDuration":1983471,"Delta":28284395},{"NoteNumber":74,"Velocity":63,"Duration":1983471,"SoundDuration":1983471,"Delta":28284395},{"NoteNumber":47,"Velocity":33,"Duration":1983471,"SoundDuration":1983471,"Delta":28284395},{"NoteNumber":55,"Velocity":39,"Duration":1983471,"SoundDuration":1983471,"Delta":28284395},{"NoteNumber":63,"Velocity":47,"Duration":1008403,"SoundDuration":1008403,"Delta":30267866},{"NoteNumber":72,"Velocity":56,"Duration":1008403,"SoundDuration":1008403,"Delta":30267866},{"NoteNumber":55,"Velocity":39,"Duration":2016806,"SoundDuration":2016806,"Delta":30267866},{"NoteNumber":48,"Velocity":33,"Duration":1008403,"SoundDuration":1008403,"Delta":30267866},{"NoteNumber":62,"Velocity":48,"Duration":1008403,"SoundDuration":1008403,"Delta":31276269},{"NoteNumber":71,"Velocity":57,"Duration":1008403,"SoundDuration":1008403,"Delta":31276269},{"NoteNumber":53,"Velocity":45,"Duration":1008403,"SoundDuration":1008403,"Delta":31276269},{"NoteNumber":60,"Velocity":45,"Duration":1008403,"SoundDuration":1008403,"Delta":32284672},{"NoteNumber":68,"Velocity":54,"Duration":1008403,"SoundDuration":1008403,"Delta":32284672},{"NoteNumber":55,"Velocity":26,"Duration":2030587,"SoundDuration":2030587,"Delta":32284672},{"NoteNumber":51,"Velocity":38,"Duration":1008403,"SoundDuration":1008403,"Delta":32284672},{"NoteNumber":67,"Velocity":60,"Duration":495867,"SoundDuration":495867,"Delta":33293076},{"NoteNumber":59,"Velocity":51,"Duration":1022183,"SoundDuration":1022183,"Delta":33293076},{"NoteNumber":50,"Velocity":41,"Duration":1022183,"SoundDuration":1022183,"Delta":33293076},{"NoteNumber":68,"Velocity":50,"Duration":131578,"SoundDuration":131578,"Delta":33788944},{"NoteNumber":67,"Velocity":45,"Duration":131578,"SoundDuration":131578,"Delta":33920523},{"NoteNumber":65,"Velocity":50,"Duration":131578,"SoundDuration":131578,"Delta":34052102},{"NoteNumber":67,"Velocity":52,"Duration":131578,"SoundDuration":131578,"Delta":34183681},{"NoteNumber":68,"Velocity":57,"Duration":756737,"SoundDuration":756737,"Delta":34315260},{"NoteNumber":62,"Velocity":51,"Duration":2052090,"SoundDuration":2052090,"Delta":34315260},{"NoteNumber":53,"Velocity":45,"Duration":2052090,"SoundDuration":2052090,"Delta":34315260},{"NoteNumber":47,"Velocity":38,"Duration":2052090,"SoundDuration":2052090,"Delta":34315260},{"NoteNumber":65,"Velocity":52,"Duration":260869,"SoundDuration":260869,"Delta":35071997},{"NoteNumber":65,"Velocity":58,"Duration":1034483,"SoundDuration":1034483,"Delta":35332867},{"NoteNumber":58,"Velocity":43,"Duration":3654219,"SoundDuration":3654219,"Delta":36367350},{"NoteNumber":55,"Velocity":39,"Duration":3654219,"SoundDuration":3654219,"Delta":36367350},{"NoteNumber":64,"Velocity":66,"Duration":3654219,"SoundDuration":3654219,"Delta":36367350},{"NoteNumber":49,"Velocity":32,"Duration":1457762,"SoundDuration":1457762,"Delta":36367350},{"NoteNumber":49,"Velocity":38,"Duration":237410,"SoundDuration":237410,"Delta":37825112},{"NoteNumber":48,"Velocity":38,"Duration":237725,"SoundDuration":237725,"Delta":38040940},{"NoteNumber":46,"Velocity":38,"Duration":240875,"SoundDuration":240875,"Delta":38256767},{"NoteNumber":48,"Velocity":38,"Duration":240875,"SoundDuration":240875,"Delta":38475745},{"NoteNumber":46,"Velocity":38,"Duration":240875,"SoundDuration":240875,"Delta":38694723},{"NoteNumber":44,"Velocity":38,"Duration":241200,"SoundDuration":241200,"Delta":38913702},{"NoteNumber":43,"Velocity":38,"Duration":244444,"SoundDuration":244444,"Delta":39132680},{"NoteNumber":44,"Velocity":38,"Duration":244444,"SoundDuration":244444,"Delta":39354902},{"NoteNumber":43,"Velocity":38,"Duration":244444,"SoundDuration":244444,"Delta":39577124},{"NoteNumber":41,"Velocity":38,"Duration":246612,"SoundDuration":246612,"Delta":39799346},{"NoteNumber":58,"Velocity":41,"Duration":1463414,"SoundDuration":1463414,"Delta":40021569},{"NoteNumber":67,"Velocity":54,"Duration":1463414,"SoundDuration":1463414,"Delta":40021569},{"NoteNumber":40,"Velocity":38,"Duration":2926830,"SoundDuration":2926830,"Delta":40021569},{"NoteNumber":61,"Velocity":38,"Duration":487805,"SoundDuration":487805,"Delta":41484984},{"NoteNumber":70,"Velocity":45,"Duration":487805,"SoundDuration":487805,"Delta":41484984},{"NoteNumber":60,"Velocity":38,"Duration":487805,"SoundDuration":487805,"Delta":41972789},{"NoteNumber":68,"Velocity":45,"Duration":487805,"SoundDuration":487805,"Delta":41972789},{"NoteNumber":58,"Velocity":38,"Duration":243902,"SoundDuration":243902,"Delta":42704496},{"NoteNumber":67,"Velocity":45,"Duration":243902,"SoundDuration":243902,"Delta":42704496},{"NoteNumber":61,"Velocity":38,"Duration":975609,"SoundDuration":975609,"Delta":42948399},{"NoteNumber":70,"Velocity":45,"Duration":975609,"SoundDuration":975609,"Delta":42948399},{"NoteNumber":60,"Velocity":38,"Duration":3629204,"SoundDuration":3629204,"Delta":43924009},{"NoteNumber":69,"Velocity":45,"Duration":3629204,"SoundDuration":3629204,"Delta":43924009},{"NoteNumber":42,"Velocity":38,"Duration":1416786,"SoundDuration":1416786,"Delta":43924009},{"NoteNumber":42,"Velocity":38,"Duration":242647,"SoundDuration":242647,"Delta":45340795},{"NoteNumber":41,"Velocity":38,"Duration":242647,"SoundDuration":242647,"Delta":45561383},{"NoteNumber":39,"Velocity":38,"Duration":242647,"SoundDuration":242647,"Delta":45781972},{"NoteNumber":41,"Velocity":38,"Duration":242647,"SoundDuration":242647,"Delta":46002560},{"NoteNumber":39,"Velocity":38,"Duration":242647,"SoundDuration":242647,"Delta":46223148},{"NoteNumber":37,"Velocity":38,"Duration":242810,"SoundDuration":242810,"Delta":46443736},{"NoteNumber":36,"Velocity":38,"Duration":244444,"SoundDuration":244444,"Delta":46664325},{"NoteNumber":37,"Velocity":38,"Duration":244444,"SoundDuration":244444,"Delta":46886547},{"NoteNumber":36,"Velocity":38,"Duration":244444,"SoundDuration":244444,"Delta":47108769},{"NoteNumber":34,"Velocity":38,"Duration":245299,"SoundDuration":245299,"Delta":47330991},{"NoteNumber":63,"Velocity":38,"Duration":1403076,"SoundDuration":1403076,"Delta":47553214},{"NoteNumber":72,"Velocity":57,"Duration":1403076,"SoundDuration":1403076,"Delta":47553214},{"NoteNumber":33,"Velocity":38,"Duration":2843077,"SoundDuration":2843077,"Delta":47553214},{"NoteNumber":66,"Velocity":38,"Duration":480000,"SoundDuration":480000,"Delta":48956291},{"NoteNumber":75,"Velocity":45,"Duration":480000,"SoundDuration":480000,"Delta":48956291},{"NoteNumber":65,"Velocity":38,"Duration":479999,"SoundDuration":479999,"Delta":49436291},{"NoteNumber":73,"Velocity":54,"Duration":479999,"SoundDuration":479999,"Delta":49436291},{"NoteNumber":63,"Velocity":38,"Duration":480000,"SoundDuration":480000,"Delta":49916291},{"NoteNumber":72,"Velocity":54,"Duration":480000,"SoundDuration":480000,"Delta":49916291},{"NoteNumber":66,"Velocity":38,"Duration":479999,"SoundDuration":479999,"Delta":50396291},{"NoteNumber":75,"Velocity":54,"Duration":479999,"SoundDuration":479999,"Delta":50396291},{"NoteNumber":33,"Velocity":38,"Duration":960000,"SoundDuration":960000,"Delta":50396291},{"NoteNumber":73,"Velocity":54,"Duration":480000,"SoundDuration":480000,"Delta":50876291},{"NoteNumber":65,"Velocity":38,"Duration":480000,"SoundDuration":480000,"Delta":50876291},{"NoteNumber":70,"Velocity":54,"Duration":479999,"SoundDuration":479999,"Delta":51356291},{"NoteNumber":61,"Velocity":38,"Duration":479999,"SoundDuration":479999,"Delta":51356291},{"NoteNumber":34,"Velocity":38,"Duration":1919999,"SoundDuration":1919999,"Delta":51356291},{"NoteNumber":66,"Velocity":54,"Duration":480000,"SoundDuration":480000,"Delta":51836291},{"NoteNumber":58,"Velocity":38,"Duration":480000,"SoundDuration":480000,"Delta":51836291},{"NoteNumber":73,"Velocity":54,"Duration":479999,"SoundDuration":479999,"Delta":52316291},{"NoteNumber":65,"Velocity":38,"Duration":479999,"SoundDuration":479999,"Delta":52316291},{"NoteNumber":72,"Velocity":54,"Duration":479999,"SoundDuration":479999,"Delta":52796291},{"NoteNumber":64,"Velocity":38,"Duration":479999,"SoundDuration":479999,"Delta":52796291},{"NoteNumber":68,"Velocity":54,"Duration":480000,"SoundDuration":480000,"Delta":53276291},{"NoteNumber":60,"Velocity":38,"Duration":480000,"SoundDuration":480000,"Delta":53276291},{"NoteNumber":36,"Velocity":38,"Duration":960000,"SoundDuration":960000,"Delta":53276291},{"NoteNumber":64,"Velocity":54,"Duration":479999,"SoundDuration":479999,"Delta":53756291},{"NoteNumber":55,"Velocity":38,"Duration":479999,"SoundDuration":479999,"Delta":53756291},{"NoteNumber":57,"Velocity":38,"Duration":840000,"SoundDuration":840000,"Delta":54236291},{"NoteNumber":65,"Velocity":54,"Duration":840000,"SoundDuration":840000,"Delta":54236291},{"NoteNumber":41,"Velocity":38,"Duration":840000,"SoundDuration":840000,"Delta":54236291},{"NoteNumber":69,"Velocity":47,"Duration":2119999,"SoundDuration":2119999,"Delta":55076291},{"NoteNumber":63,"Velocity":34,"Duration":2119999,"SoundDuration":2119999,"Delta":55076291},{"NoteNumber":57,"Velocity":32,"Duration":2119999,"SoundDuration":2119999,"Delta":55076291},{"NoteNumber":53,"Velocity":28,"Duration":2119999,"SoundDuration":2119999,"Delta":55076291},{"NoteNumber":48,"Velocity":23,"Duration":2119999,"SoundDuration":2119999,"Delta":55076291},{"NoteNumber":77,"Velocity":58,"Duration":2840000,"SoundDuration":2840000,"Delta":55196291},{"NoteNumber":63,"Velocity":38,"Duration":840000,"SoundDuration":840000,"Delta":57196291},{"NoteNumber":70,"Velocity":54,"Duration":840000,"SoundDuration":840000,"Delta":57196291},{"NoteNumber":58,"Velocity":38,"Duration":840000,"SoundDuration":840000,"Delta":57196291},{"NoteNumber":53,"Velocity":32,"Duration":1927742,"SoundDuration":1927742,"Delta":57196291},{"NoteNumber":46,"Velocity":27,"Duration":1927742,"SoundDuration":1927742,"Delta":57196291},{"NoteNumber":62,"Velocity":34,"Duration":1087741,"SoundDuration":1087741,"Delta":58036291},{"NoteNumber":63,"Velocity":36,"Duration":119999,"SoundDuration":119999,"Delta":58036291},{"NoteNumber":74,"Velocity":69,"Duration":725806,"SoundDuration":725806,"Delta":58156291},{"NoteNumber":72,"Velocity":61,"Duration":241935,"SoundDuration":241935,"Delta":58882097},{"NoteNumber":72,"Velocity":60,"Duration":1983471,"SoundDuration":1983471,"Delta":59124033},{"NoteNumber":60,"Velocity":43,"Duration":1983471,"SoundDuration":1983471,"Delta":59124033},{"NoteNumber":63,"Velocity":43,"Duration":1983471,"SoundDuration":1983471,"Delta":59124033},{"NoteNumber":53,"Velocity":38,"Duration":1983471,"SoundDuration":1983471,"Delta":59124033},{"NoteNumber":45,"Velocity":32,"Duration":1983471,"SoundDuration":1983471,"Delta":59124033},{"NoteNumber":58,"Velocity":39,"Duration":1008403,"SoundDuration":1008403,"Delta":61107504},{"NoteNumber":63,"Velocity":39,"Duration":2016807,"SoundDuration":2016807,"Delta":61107504},{"NoteNumber":70,"Velocity":56,"Duration":1008403,"SoundDuration":1008403,"Delta":61107504},{"NoteNumber":46,"Velocity":28,"Duration":1008403,"SoundDuration":1008403,"Delta":61107504},{"NoteNumber":53,"Velocity":33,"Duration":2016807,"SoundDuration":2016807,"Delta":61107504},{"NoteNumber":69,"Velocity":57,"Duration":1008403,"SoundDuration":1008403,"Delta":62115907},{"NoteNumber":57,"Velocity":40,"Duration":1008403,"SoundDuration":1008403,"Delta":62115907},{"NoteNumber":48,"Velocity":38,"Duration":1008403,"SoundDuration":1008403,"Delta":62115907},{"NoteNumber":63,"Velocity":45,"Duration":2030586,"SoundDuration":2030586,"Delta":63124311},{"NoteNumber":58,"Velocity":38,"Duration":1008403,"SoundDuration":1008403,"Delta":63124311},{"NoteNumber":67,"Velocity":54,"Duration":1008403,"SoundDuration":1008403,"Delta":63124311},{"NoteNumber":46,"Velocity":32,"Duration":1008403,"SoundDuration":1008403,"Delta":63124311},{"NoteNumber":53,"Velocity":27,"Duration":2030586,"SoundDuration":2030586,"Delta":63124311},{"NoteNumber":65,"Velocity":60,"Duration":495867,"SoundDuration":495867,"Delta":64132714},{"NoteNumber":60,"Velocity":51,"Duration":3074273,"SoundDuration":3074273,"Delta":64132714},{"NoteNumber":45,"Velocity":41,"Duration":1022183,"SoundDuration":1022183,"Delta":64132714},{"NoteNumber":67,"Velocity":50,"Duration":131578,"SoundDuration":131578,"Delta":64628582},{"NoteNumber":65,"Velocity":45,"Duration":131578,"SoundDuration":131578,"Delta":64760161},{"NoteNumber":64,"Velocity":50,"Duration":131578,"SoundDuration":131578,"Delta":64891740},{"NoteNumber":65,"Velocity":52,"Duration":131578,"SoundDuration":131578,"Delta":65023319},{"NoteNumber":67,"Velocity":59,"Duration":756737,"SoundDuration":756737,"Delta":65154898},{"NoteNumber":57,"Velocity":45,"Duration":2052089,"SoundDuration":2052089,"Delta":65154898},{"NoteNumber":41,"Velocity":38,"Duration":2052089,"SoundDuration":2052089,"Delta":65154898},{"NoteNumber":63,"Velocity":52,"Duration":260869,"SoundDuration":260869,"Delta":65911635},{"NoteNumber":63,"Velocity":58,"Duration":1034482,"SoundDuration":1034482,"Delta":66172505},{"NoteNumber":62,"Velocity":50,"Duration":4935358,"SoundDuration":4935358,"Delta":67206988},{"NoteNumber":60,"Velocity":42,"Duration":4935358,"SoundDuration":4935358,"Delta":67206988},{"NoteNumber":57,"Velocity":35,"Duration":2000000,"SoundDuration":2000000,"Delta":67206988},{"NoteNumber":42,"Velocity":27,"Duration":2000000,"SoundDuration":2000000,"Delta":67206988},{"NoteNumber":50,"Velocity":32,"Duration":4935358,"SoundDuration":4935358,"Delta":67206988},{"NoteNumber":55,"Velocity":54,"Duration":967742,"SoundDuration":967742,"Delta":69206988},{"NoteNumber":43,"Velocity":37,"Duration":967742,"SoundDuration":967742,"Delta":69206988},{"NoteNumber":54,"Velocity":58,"Duration":1967616,"SoundDuration":1967616,"Delta":70174730},{"NoteNumber":46,"Velocity":54,"Duration":731707,"SoundDuration":731707,"Delta":70174730},{"NoteNumber":45,"Velocity":42,"Duration":243902,"SoundDuration":243902,"Delta":70906437},{"NoteNumber":45,"Velocity":49,"Duration":2000410,"SoundDuration":2000410,"Delta":71150340},{"NoteNumber":43,"Velocity":45,"Duration":1008403,"SoundDuration":1008403,"Delta":73150750},{"NoteNumber":42,"Velocity":51,"Duration":1025640,"SoundDuration":1025640,"Delta":74159153},{"NoteNumber":39,"Velocity":44,"Duration":1067615,"SoundDuration":1067615,"Delta":75184794},{"NoteNumber":38,"Velocity":44,"Duration":223463,"SoundDuration":223463,"Delta":76252410},{"NoteNumber":39,"Velocity":38,"Duration":223463,"SoundDuration":223463,"Delta":76475874},{"NoteNumber":38,"Velocity":42,"Duration":232456,"SoundDuration":232456,"Delta":76699337},{"NoteNumber":36,"Velocity":38,"Duration":241448,"SoundDuration":241448,"Delta":76931793},{"NoteNumber":38,"Velocity":38,"Duration":241448,"SoundDuration":241448,"Delta":77173242},{"NoteNumber":39,"Velocity":42,"Duration":871532,"SoundDuration":871532,"Delta":77414691},{"NoteNumber":36,"Velocity":34,"Duration":337078,"SoundDuration":337078,"Delta":78286224},{"NoteNumber":34,"Velocity":33,"Duration":2131439,"SoundDuration":2131439,"Delta":78623302},{"NoteNumber":74,"Velocity":57,"Duration":1494496,"SoundDuration":1494496,"Delta":84395614},{"NoteNumber":46,"Velocity":46,"Duration":1494496,"SoundDuration":1494496,"Delta":84395614},{"NoteNumber":62,"Velocity":34,"Duration":364519,"SoundDuration":364519,"Delta":84772973},{"NoteNumber":60,"Velocity":41,"Duration":364519,"SoundDuration":364519,"Delta":85137493},{"NoteNumber":58,"Velocity":34,"Duration":388098,"SoundDuration":388098,"Delta":85502013},{"NoteNumber":57,"Velocity":39,"Duration":375939,"SoundDuration":375939,"Delta":85890111},{"NoteNumber":75,"Velocity":57,"Duration":1481831,"SoundDuration":1481831,"Delta":85890111},{"NoteNumber":48,"Velocity":46,"Duration":1481831,"SoundDuration":1481831,"Delta":85890111},{"NoteNumber":63,"Velocity":35,"Duration":360144,"SoundDuration":360144,"Delta":86266051},{"NoteNumber":60,"Velocity":43,"Duration":360143,"SoundDuration":360143,"Delta":86626195},{"NoteNumber":57,"Velocity":36,"Duration":385604,"SoundDuration":385604,"Delta":86986339},{"NoteNumber":54,"Velocity":46,"Duration":375939,"SoundDuration":375939,"Delta":87371943},{"NoteNumber":66,"Velocity":57,"Duration":1490583,"SoundDuration":1490583,"Delta":87371943},{"NoteNumber":50,"Velocity":42,"Duration":1490583,"SoundDuration":1490583,"Delta":87371943},{"NoteNumber":60,"Velocity":37,"Duration":364519,"SoundDuration":364519,"Delta":87747883},{"NoteNumber":58,"Velocity":41,"Duration":364519,"SoundDuration":364519,"Delta":88112403},{"NoteNumber":57,"Velocity":34,"Duration":385604,"SoundDuration":385604,"Delta":88476923},{"NoteNumber":67,"Velocity":57,"Duration":1486334,"SoundDuration":1486334,"Delta":88862527},{"NoteNumber":55,"Velocity":46,"Duration":373598,"SoundDuration":373598,"Delta":88862527},{"NoteNumber":51,"Velocity":46,"Duration":1486334,"SoundDuration":1486334,"Delta":88862527},{"NoteNumber":58,"Velocity":34,"Duration":362318,"SoundDuration":362318,"Delta":89236126},{"NoteNumber":55,"Velocity":39,"Duration":362318,"SoundDuration":362318,"Delta":89598444},{"NoteNumber":51,"Velocity":34,"Duration":388098,"SoundDuration":388098,"Delta":89960763},{"NoteNumber":69,"Velocity":57,"Duration":1490737,"SoundDuration":1490737,"Delta":90348861},{"NoteNumber":54,"Velocity":40,"Duration":1490737,"SoundDuration":1490737,"Delta":90348861},{"NoteNumber":63,"Velocity":36,"Duration":364519,"SoundDuration":364519,"Delta":90722460},{"NoteNumber":62,"Velocity":42,"Duration":364519,"SoundDuration":364519,"Delta":91086980},{"NoteNumber":60,"Velocity":39,"Duration":388098,"SoundDuration":388098,"Delta":91451500},{"NoteNumber":70,"Velocity":57,"Duration":1483840,"SoundDuration":1483840,"Delta":91839599},{"NoteNumber":58,"Velocity":39,"Duration":373598,"SoundDuration":373598,"Delta":91839599},{"NoteNumber":55,"Velocity":46,"Duration":1483840,"SoundDuration":1483840,"Delta":91839599},{"NoteNumber":62,"Velocity":33,"Duration":362318,"SoundDuration":362318,"Delta":92213198},{"NoteNumber":58,"Velocity":43,"Duration":362318,"SoundDuration":362318,"Delta":92575516},{"NoteNumber":55,"Velocity":36,"Duration":385604,"SoundDuration":385604,"Delta":92937835},{"NoteNumber":61,"Velocity":57,"Duration":1473441,"SoundDuration":1473441,"Delta":93323439},{"NoteNumber":52,"Velocity":42,"Duration":1473441,"SoundDuration":1473441,"Delta":93323439},{"NoteNumber":58,"Velocity":37,"Duration":355872,"SoundDuration":355872,"Delta":93697038},{"NoteNumber":57,"Velocity":44,"Duration":355871,"SoundDuration":355871,"Delta":94052910},{"NoteNumber":55,"Velocity":36,"Duration":388098,"SoundDuration":388098,"Delta":94408782},{"NoteNumber":54,"Velocity":42,"Duration":373598,"SoundDuration":373598,"Delta":94796880},{"NoteNumber":62,"Velocity":52,"Duration":1504649,"SoundDuration":1504649,"Delta":94796880},{"NoteNumber":50,"Velocity":39,"Duration":1504649,"SoundDuration":1504649,"Delta":94796880},{"NoteNumber":57,"Velocity":28,"Duration":362318,"SoundDuration":362318,"Delta":95170479},{"NoteNumber":54,"Velocity":32,"Duration":364963,"SoundDuration":364963,"Delta":95532798},{"NoteNumber":50,"Velocity":30,"Duration":403768,"SoundDuration":403768,"Delta":95897762},{"NoteNumber":62,"Velocity":50,"Duration":1493263,"SoundDuration":1493263,"Delta":96301530},{"NoteNumber":34,"Velocity":35,"Duration":1493263,"SoundDuration":1493263,"Delta":96301530},{"NoteNumber":50,"Velocity":32,"Duration":364519,"SoundDuration":364519,"Delta":96675129},{"NoteNumber":48,"Velocity":34,"Duration":364519,"SoundDuration":364519,"Delta":97039649},{"NoteNumber":46,"Velocity":30,"Duration":390625,"SoundDuration":390625,"Delta":97404169},{"NoteNumber":63,"Velocity":50,"Duration":1476266,"SoundDuration":1476266,"Delta":97794794},{"NoteNumber":45,"Velocity":40,"Duration":1476266,"SoundDuration":1476266,"Delta":97794794},{"NoteNumber":36,"Velocity":40,"Duration":1476266,"SoundDuration":1476266,"Delta":97794794},{"NoteNumber":51,"Velocity":31,"Duration":364519,"SoundDuration":364519,"Delta":98166081},{"NoteNumber":57,"Velocity":36,"Duration":364519,"SoundDuration":364519,"Delta":98530601},{"NoteNumber":60,"Velocity":40,"Duration":375939,"SoundDuration":375939,"Delta":98895121},{"NoteNumber":65,"Velocity":54,"Duration":1485931,"SoundDuration":1485931,"Delta":99271061},{"NoteNumber":38,"Velocity":44,"Duration":1485931,"SoundDuration":1485931,"Delta":99271061},{"NoteNumber":53,"Velocity":36,"Duration":364519,"SoundDuration":364519,"Delta":99642348},{"NoteNumber":51,"Velocity":45,"Duration":364519,"SoundDuration":364519,"Delta":100006868},{"NoteNumber":50,"Velocity":37,"Duration":385604,"SoundDuration":385604,"Delta":100371388},{"NoteNumber":67,"Velocity":57,"Duration":1466443,"SoundDuration":1466443,"Delta":100756992},{"NoteNumber":39,"Velocity":49,"Duration":1466443,"SoundDuration":1466443,"Delta":100756992},{"NoteNumber":48,"Velocity":49,"Duration":1466443,"SoundDuration":1466443,"Delta":100756992},{"NoteNumber":55,"Velocity":40,"Duration":358423,"SoundDuration":358423,"Delta":101128280},{"NoteNumber":60,"Velocity":47,"Duration":358423,"SoundDuration":358423,"Delta":101486703},{"NoteNumber":63,"Velocity":40,"Duration":378310,"SoundDuration":378310,"Delta":101845126},{"NoteNumber":69,"Velocity":60,"Duration":1471974,"SoundDuration":1471974,"Delta":102223436},{"NoteNumber":42,"Velocity":41,"Duration":1471974,"SoundDuration":1471974,"Delta":102223436},{"NoteNumber":60,"Velocity":45,"Duration":356294,"SoundDuration":356294,"Delta":102594723},{"NoteNumber":58,"Velocity":50,"Duration":356294,"SoundDuration":356294,"Delta":102951018},{"NoteNumber":57,"Velocity":43,"Duration":1117991,"SoundDuration":1117991,"Delta":103307312},{"NoteNumber":70,"Velocity":67,"Duration":1086187,"SoundDuration":1086187,"Delta":103695410},{"NoteNumber":43,"Velocity":40,"Duration":1471791,"SoundDuration":1471791,"Delta":103695410},{"NoteNumber":58,"Velocity":39,"Duration":356294,"SoundDuration":356294,"Delta":104069009},{"NoteNumber":63,"Velocity":47,"Duration":356294,"SoundDuration":356294,"Delta":104425304},{"NoteNumber":55,"Velocity":35,"Duration":741898,"SoundDuration":741898,"Delta":104425304},{"NoteNumber":67,"Velocity":43,"Duration":385604,"SoundDuration":385604,"Delta":104781598},{"NoteNumber":65,"Velocity":50,"Duration":1086187,"SoundDuration":1086187,"Delta":105167202},{"NoteNumber":45,"Velocity":39,"Duration":1481966,"SoundDuration":1481966,"Delta":105167202},{"NoteNumber":53,"Velocity":35,"Duration":356294,"SoundDuration":356294,"Delta":105540801},{"NoteNumber":60,"Velocity":40,"Duration":356294,"SoundDuration":356294,"Delta":105897096},{"NoteNumber":63,"Velocity":34,"Duration":395778,"SoundDuration":395778,"Delta":106253390},{"NoteNumber":62,"Velocity":50,"Duration":1488861,"SoundDuration":1488861,"Delta":106649169},{"NoteNumber":46,"Velocity":40,"Duration":1488861,"SoundDuration":1488861,"Delta":106649169},{"NoteNumber":53,"Velocity":34,"Duration":362318,"SoundDuration":362318,"Delta":107022768},{"NoteNumber":58,"Velocity":39,"Duration":362318,"SoundDuration":362318,"Delta":107385086},{"NoteNumber":62,"Velocity":34,"Duration":390625,"SoundDuration":390625,"Delta":107747405},{"NoteNumber":74,"Velocity":55,"Duration":1476812,"SoundDuration":1476812,"Delta":108138030},{"NoteNumber":34,"Velocity":35,"Duration":1476812,"SoundDuration":1476812,"Delta":108138030},{"NoteNumber":62,"Velocity":32,"Duration":356294,"SoundDuration":356294,"Delta":108511629},{"NoteNumber":60,"Velocity":34,"Duration":356294,"SoundDuration":356294,"Delta":108867924},{"NoteNumber":58,"Velocity":30,"Duration":390625,"SoundDuration":390625,"Delta":109224218},{"NoteNumber":75,"Velocity":55,"Duration":1447367,"SoundDuration":1447367,"Delta":109614843},{"NoteNumber":57,"Velocity":40,"Duration":1447367,"SoundDuration":1447367,"Delta":109614843},{"NoteNumber":48,"Velocity":40,"Duration":1447367,"SoundDuration":1447367,"Delta":109614843},{"NoteNumber":63,"Velocity":31,"Duration":348027,"SoundDuration":348027,"Delta":109986130},{"NoteNumber":69,"Velocity":36,"Duration":352112,"SoundDuration":352112,"Delta":110334158},{"NoteNumber":72,"Velocity":40,"Duration":375939,"SoundDuration":375939,"Delta":110686271},{"NoteNumber":77,"Velocity":59,"Duration":1452946,"SoundDuration":1452946,"Delta":111062211},{"NoteNumber":38,"Velocity":44,"Duration":1452946,"SoundDuration":1452946,"Delta":111062211},{"NoteNumber":65,"Velocity":36,"Duration":348027,"SoundDuration":348027,"Delta":111433498},{"NoteNumber":63,"Velocity":45,"Duration":348027,"SoundDuration":348027,"Delta":111781526},{"NoteNumber":62,"Velocity":37,"Duration":385604,"SoundDuration":385604,"Delta":112129553},{"NoteNumber":79,"Velocity":62,"Duration":1457979,"SoundDuration":1457979,"Delta":112515157},{"NoteNumber":51,"Velocity":49,"Duration":1457979,"SoundDuration":1457979,"Delta":112515157},{"NoteNumber":60,"Velocity":49,"Duration":1457979,"SoundDuration":1457979,"Delta":112515157},{"NoteNumber":67,"Velocity":48,"Duration":354191,"SoundDuration":354191,"Delta":112886445},{"NoteNumber":72,"Velocity":53,"Duration":354191,"SoundDuration":354191,"Delta":113240636},{"NoteNumber":75,"Velocity":47,"Duration":378310,"SoundDuration":378310,"Delta":113594827},{"NoteNumber":81,"Velocity":68,"Duration":1463611,"SoundDuration":1463611,"Delta":113973137},{"NoteNumber":54,"Velocity":41,"Duration":1463611,"SoundDuration":1463611,"Delta":113973137},{"NoteNumber":72,"Velocity":47,"Duration":352112,"SoundDuration":352112,"Delta":114344425},{"NoteNumber":70,"Velocity":55,"Duration":352112,"SoundDuration":352112,"Delta":114696537},{"NoteNumber":69,"Velocity":47,"Duration":1115888,"SoundDuration":1115888,"Delta":115048650},{"NoteNumber":82,"Velocity":70,"Duration":1081981,"SoundDuration":1081981,"Delta":115436748},{"NoteNumber":55,"Velocity":40,"Duration":1467585,"SoundDuration":1467585,"Delta":115436748},{"NoteNumber":70,"Velocity":45,"Duration":354191,"SoundDuration":354191,"Delta":115810347},{"NoteNumber":75,"Velocity":55,"Duration":354191,"SoundDuration":354191,"Delta":116164539},{"NoteNumber":67,"Velocity":38,"Duration":739795,"SoundDuration":739795,"Delta":116164539},{"NoteNumber":79,"Velocity":45,"Duration":385604,"SoundDuration":385604,"Delta":116518730},{"NoteNumber":77,"Velocity":55,"Duration":1086187,"SoundDuration":1086187,"Delta":116904334},{"NoteNumber":57,"Velocity":39,"Duration":2970827,"SoundDuration":2970827,"Delta":116904334},{"NoteNumber":65,"Velocity":35,"Duration":356294,"SoundDuration":356294,"Delta":117277933},{"NoteNumber":65,"Velocity":35,"Duration":712588,"SoundDuration":712588,"Delta":117277933},{"NoteNumber":72,"Velocity":40,"Duration":356294,"SoundDuration":356294,"Delta":117634227},{"NoteNumber":75,"Velocity":37,"Duration":395778,"SoundDuration":395778,"Delta":117990522},{"NoteNumber":63,"Velocity":35,"Duration":395778,"SoundDuration":395778,"Delta":117990522},{"NoteNumber":74,"Velocity":55,"Duration":1488861,"SoundDuration":1488861,"Delta":118386300},{"NoteNumber":62,"Velocity":40,"Duration":1488861,"SoundDuration":1488861,"Delta":118386300},{"NoteNumber":66,"Velocity":34,"Duration":362318,"SoundDuration":362318,"Delta":118759899},{"NoteNumber":72,"Velocity":39,"Duration":362318,"SoundDuration":362318,"Delta":119122218},{"NoteNumber":74,"Velocity":42,"Duration":1885121,"SoundDuration":1885121,"Delta":119484537},{"NoteNumber":46,"Velocity":41,"Duration":1494496,"SoundDuration":1494496,"Delta":119875162},{"NoteNumber":62,"Velocity":30,"Duration":364519,"SoundDuration":364519,"Delta":120252520},{"NoteNumber":60,"Velocity":36,"Duration":364519,"SoundDuration":364519,"Delta":120617040},{"NoteNumber":58,"Velocity":30,"Duration":388098,"SoundDuration":388098,"Delta":120981560},{"NoteNumber":75,"Velocity":55,"Duration":1481831,"SoundDuration":1481831,"Delta":121369658},{"NoteNumber":48,"Velocity":41,"Duration":1481831,"SoundDuration":1481831,"Delta":121369658},{"NoteNumber":57,"Velocity":41,"Duration":1090225,"SoundDuration":1090225,"Delta":121369658},{"NoteNumber":63,"Velocity":31,"Duration":360144,"SoundDuration":360144,"Delta":121745598},{"NoteNumber":60,"Velocity":38,"Duration":360143,"SoundDuration":360143,"Delta":122105742},{"NoteNumber":57,"Velocity":32,"Duration":385604,"SoundDuration":385604,"Delta":122465886},{"NoteNumber":66,"Velocity":53,"Duration":1490583,"SoundDuration":1490583,"Delta":122851490},{"NoteNumber":50,"Velocity":37,"Duration":1490583,"SoundDuration":1490583,"Delta":122851490},{"NoteNumber":60,"Velocity":33,"Duration":364519,"SoundDuration":364519,"Delta":123227430},{"NoteNumber":58,"Velocity":36,"Duration":364519,"SoundDuration":364519,"Delta":123591950},{"NoteNumber":57,"Velocity":30,"Duration":385604,"SoundDuration":385604,"Delta":123956470},{"NoteNumber":55,"Velocity":41,"Duration":373598,"SoundDuration":373598,"Delta":124342074},{"NoteNumber":67,"Velocity":53,"Duration":1474286,"SoundDuration":1474286,"Delta":124342074},{"NoteNumber":51,"Velocity":41,"Duration":1080249,"SoundDuration":1080249,"Delta":124342074},{"NoteNumber":58,"Velocity":30,"Duration":356294,"SoundDuration":356294,"Delta":124715673},{"NoteNumber":55,"Velocity":35,"Duration":356294,"SoundDuration":356294,"Delta":125071967},{"NoteNumber":51,"Velocity":30,"Duration":388098,"SoundDuration":388098,"Delta":125428262},{"NoteNumber":69,"Velocity":53,"Duration":1470079,"SoundDuration":1470079,"Delta":125816360},{"NoteNumber":54,"Velocity":36,"Duration":1470079,"SoundDuration":1470079,"Delta":125816360},{"NoteNumber":63,"Velocity":32,"Duration":354191,"SoundDuration":354191,"Delta":126189959},{"NoteNumber":62,"Velocity":37,"Duration":354191,"SoundDuration":354191,"Delta":126544150},{"NoteNumber":60,"Velocity":35,"Duration":388098,"SoundDuration":388098,"Delta":126898342},{"NoteNumber":58,"Velocity":35,"Duration":373599,"SoundDuration":373599,"Delta":127286440},{"NoteNumber":70,"Velocity":53,"Duration":1463428,"SoundDuration":1463428,"Delta":127286440},{"NoteNumber":55,"Velocity":41,"Duration":1071955,"SoundDuration":1071955,"Delta":127286440},{"NoteNumber":62,"Velocity":29,"Duration":352112,"SoundDuration":352112,"Delta":127660039},{"NoteNumber":58,"Velocity":38,"Duration":352112,"SoundDuration":352112,"Delta":128012152},{"NoteNumber":55,"Velocity":32,"Duration":385604,"SoundDuration":385604,"Delta":128364264},{"NoteNumber":61,"Velocity":51,"Duration":1457752,"SoundDuration":1457752,"Delta":128749868},{"NoteNumber":52,"Velocity":37,"Duration":1457752,"SoundDuration":1457752,"Delta":128749868},{"NoteNumber":58,"Velocity":33,"Duration":348027,"SoundDuration":348027,"Delta":129123467},{"NoteNumber":57,"Velocity":39,"Duration":348027,"SoundDuration":348027,"Delta":129471495},{"NoteNumber":55,"Velocity":32,"Duration":388098,"SoundDuration":388098,"Delta":129819523},{"NoteNumber":54,"Velocity":37,"Duration":373599,"SoundDuration":373599,"Delta":130207621},{"NoteNumber":62,"Velocity":46,"Duration":1489956,"SoundDuration":1489956,"Delta":130207621},{"NoteNumber":50,"Velocity":35,"Duration":1080249,"SoundDuration":1080249,"Delta":130207621},{"NoteNumber":57,"Velocity":30,"Duration":356294,"SoundDuration":356294,"Delta":130581220},{"NoteNumber":54,"Velocity":35,"Duration":356294,"SoundDuration":356294,"Delta":130937515},{"NoteNumber":50,"Velocity":30,"Duration":403768,"SoundDuration":403768,"Delta":131293809},{"NoteNumber":65,"Velocity":51,"Duration":747197,"SoundDuration":747197,"Delta":131697578},{"NoteNumber":47,"Velocity":35,"Duration":1490227,"SoundDuration":1490227,"Delta":131697578},{"NoteNumber":56,"Velocity":34,"Duration":373598,"SoundDuration":373598,"Delta":132071177},{"NoteNumber":55,"Velocity":40,"Duration":362318,"SoundDuration":362318,"Delta":132444776},{"NoteNumber":63,"Velocity":48,"Duration":362318,"SoundDuration":362318,"Delta":132444776},{"NoteNumber":53,"Velocity":35,"Duration":1132708,"SoundDuration":1132708,"Delta":132807094},{"NoteNumber":62,"Velocity":42,"Duration":380710,"SoundDuration":380710,"Delta":132807094},{"NoteNumber":60,"Velocity":46,"Duration":751998,"SoundDuration":751998,"Delta":133187805},{"NoteNumber":48,"Velocity":35,"Duration":1499659,"SoundDuration":1499659,"Delta":133187805},{"NoteNumber":55,"Velocity":30,"Duration":371287,"SoundDuration":371287,"Delta":133568516},{"NoteNumber":51,"Velocity":32,"Duration":364519,"SoundDuration":364519,"Delta":133939803},{"NoteNumber":62,"Velocity":38,"Duration":364519,"SoundDuration":364519,"Delta":133939803},{"NoteNumber":48,"Velocity":36,"Duration":383141,"SoundDuration":383141,"Delta":134304323},{"NoteNumber":63,"Velocity":43,"Duration":383141,"SoundDuration":383141,"Delta":134304323},{"NoteNumber":65,"Velocity":46,"Duration":761697,"SoundDuration":761697,"Delta":134687465},{"NoteNumber":46,"Velocity":45,"Duration":1528481,"SoundDuration":1528481,"Delta":134687465},{"NoteNumber":56,"Velocity":30,"Duration":388098,"SoundDuration":388098,"Delta":135061064},{"NoteNumber":50,"Velocity":44,"Duration":373599,"SoundDuration":373599,"Delta":135449162},{"NoteNumber":66,"Velocity":52,"Duration":1513981,"SoundDuration":1513981,"Delta":135449162},{"NoteNumber":46,"Velocity":31,"Duration":393184,"SoundDuration":393184,"Delta":135822761},{"NoteNumber":39,"Velocity":49,"Duration":1494395,"SoundDuration":1494395,"Delta":136215946},{"NoteNumber":55,"Velocity":30,"Duration":373598,"SoundDuration":373598,"Delta":136589545},{"NoteNumber":51,"Velocity":43,"Duration":373599,"SoundDuration":373599,"Delta":136963144},{"NoteNumber":67,"Velocity":51,"Duration":747197,"SoundDuration":747197,"Delta":136963144},{"NoteNumber":46,"Velocity":25,"Duration":373598,"SoundDuration":373598,"Delta":137336743},{"NoteNumber":68,"Velocity":52,"Duration":738119,"SoundDuration":738119,"Delta":137710342},{"NoteNumber":39,"Velocity":35,"Duration":1488243,"SoundDuration":1488243,"Delta":137710342},{"NoteNumber":59,"Velocity":23,"Duration":364519,"SoundDuration":364519,"Delta":138083941},{"NoteNumber":58,"Velocity":34,"Duration":364519,"SoundDuration":364519,"Delta":138448461},{"NoteNumber":67,"Velocity":40,"Duration":364519,"SoundDuration":364519,"Delta":138448461},{"NoteNumber":56,"Velocity":29,"Duration":1132801,"SoundDuration":1132801,"Delta":138812981},{"NoteNumber":65,"Velocity":35,"Duration":385604,"SoundDuration":385604,"Delta":138812981},{"NoteNumber":63,"Velocity":46,"Duration":747197,"SoundDuration":747197,"Delta":139198585},{"NoteNumber":51,"Velocity":35,"Duration":1502044,"SoundDuration":1502044,"Delta":139198585},{"NoteNumber":58,"Velocity":28,"Duration":373598,"SoundDuration":373598,"Delta":139572184},{"NoteNumber":55,"Velocity":34,"Duration":366748,"SoundDuration":366748,"Delta":139945783},{"NoteNumber":65,"Velocity":41,"Duration":366748,"SoundDuration":366748,"Delta":139945783},{"NoteNumber":51,"Velocity":34,"Duration":388098,"SoundDuration":388098,"Delta":140312531},{"NoteNumber":67,"Velocity":41,"Duration":388098,"SoundDuration":388098,"Delta":140312531},{"NoteNumber":69,"Velocity":50,"Duration":764224,"SoundDuration":764224,"Delta":140700629},{"NoteNumber":50,"Velocity":40,"Duration":1511422,"SoundDuration":1511422,"Delta":140700629},{"NoteNumber":60,"Velocity":37,"Duration":390625,"SoundDuration":390625,"Delta":141074228},{"NoteNumber":54,"Velocity":45,"Duration":373599,"SoundDuration":373599,"Delta":141464853},{"NoteNumber":70,"Velocity":52,"Duration":1494395,"SoundDuration":1494395,"Delta":141464853},{"NoteNumber":50,"Velocity":34,"Duration":373598,"SoundDuration":373598,"Delta":141838452},{"NoteNumber":43,"Velocity":48,"Duration":1494395,"SoundDuration":1494395,"Delta":142212051},{"NoteNumber":59,"Velocity":35,"Duration":373598,"SoundDuration":373598,"Delta":142585650},{"NoteNumber":55,"Velocity":38,"Duration":373599,"SoundDuration":373599,"Delta":142959249},{"NoteNumber":71,"Velocity":50,"Duration":747197,"SoundDuration":747197,"Delta":142959249},{"NoteNumber":50,"Velocity":27,"Duration":1868095,"SoundDuration":1868095,"Delta":143332848},{"NoteNumber":74,"Velocity":56,"Duration":1494496,"SoundDuration":1494496,"Delta":143706447},{"NoteNumber":36,"Velocity":36,"Duration":2976328,"SoundDuration":2976328,"Delta":143706447},{"NoteNumber":65,"Velocity":27,"Duration":364519,"SoundDuration":364519,"Delta":144083806},{"NoteNumber":59,"Velocity":32,"Duration":364519,"SoundDuration":364519,"Delta":144448326},{"NoteNumber":55,"Velocity":27,"Duration":388098,"SoundDuration":388098,"Delta":144812846},{"NoteNumber":75,"Velocity":59,"Duration":1481831,"SoundDuration":1481831,"Delta":145200944},{"NoteNumber":63,"Velocity":27,"Duration":360143,"SoundDuration":360143,"Delta":145576884},{"NoteNumber":60,"Velocity":34,"Duration":360144,"SoundDuration":360144,"Delta":145937028},{"NoteNumber":55,"Velocity":28,"Duration":385604,"SoundDuration":385604,"Delta":146297172},{"NoteNumber":66,"Velocity":47,"Duration":1465769,"SoundDuration":1465769,"Delta":146682776},{"NoteNumber":50,"Velocity":33,"Duration":1465769,"SoundDuration":1465769,"Delta":146682776},{"NoteNumber":60,"Velocity":29,"Duration":352112,"SoundDuration":352112,"Delta":147058716},{"NoteNumber":58,"Velocity":32,"Duration":352112,"SoundDuration":352112,"Delta":147410828},{"NoteNumber":57,"Velocity":27,"Duration":385604,"SoundDuration":385604,"Delta":147762941},{"NoteNumber":67,"Velocity":47,"Duration":1474286,"SoundDuration":1474286,"Delta":148148545},{"NoteNumber":51,"Velocity":36,"Duration":1474286,"SoundDuration":1474286,"Delta":148148545},{"NoteNumber":58,"Velocity":27,"Duration":356294,"SoundDuration":356294,"Delta":148522144},{"NoteNumber":55,"Velocity":31,"Duration":356294,"SoundDuration":356294,"Delta":148878439},{"NoteNumber":51,"Velocity":27,"Duration":388098,"SoundDuration":388098,"Delta":149234733},{"NoteNumber":50,"Velocity":31,"Duration":373599,"SoundDuration":373599,"Delta":149622831},{"NoteNumber":69,"Velocity":47,"Duration":1490737,"SoundDuration":1490737,"Delta":149622831},{"NoteNumber":42,"Velocity":32,"Duration":1490737,"SoundDuration":1490737,"Delta":149622831},{"NoteNumber":60,"Velocity":28,"Duration":364519,"SoundDuration":364519,"Delta":149996430},{"NoteNumber":57,"Velocity":33,"Duration":364519,"SoundDuration":364519,"Delta":150360950},{"NoteNumber":50,"Velocity":31,"Duration":388098,"SoundDuration":388098,"Delta":150725470},{"NoteNumber":70,"Velocity":47,"Duration":1564157,"SoundDuration":1564157,"Delta":151113569},{"NoteNumber":43,"Velocity":36,"Duration":1564157,"SoundDuration":1564157,"Delta":151113569},{"NoteNumber":58,"Velocity":26,"Duration":378310,"SoundDuration":378310,"Delta":151517337},{"NoteNumber":57,"Velocity":34,"Duration":378310,"SoundDuration":378310,"Delta":151895647},{"NoteNumber":55,"Velocity":28,"Duration":403768,"SoundDuration":403768,"Delta":152273958},{"NoteNumber":53,"Velocity":34,"Duration":401069,"SoundDuration":401069,"Delta":152677726},{"NoteNumber":61,"Velocity":45,"Duration":1581418,"SoundDuration":1581418,"Delta":152677726},{"NoteNumber":45,"Velocity":33,"Duration":1581418,"SoundDuration":1581418,"Delta":152677726},{"NoteNumber":52,"Velocity":29,"Duration":378310,"SoundDuration":378310,"Delta":153078796},{"NoteNumber":57,"Velocity":35,"Duration":378310,"SoundDuration":378310,"Delta":153457106},{"NoteNumber":55,"Velocity":28,"Duration":1207739,"SoundDuration":1207739,"Delta":153835416},{"NoteNumber":62,"Velocity":41,"Duration":1597012,"SoundDuration":1597012,"Delta":154259145},{"NoteNumber":50,"Velocity":31,"Duration":1597012,"SoundDuration":1597012,"Delta":154259145},{"NoteNumber":57,"Velocity":32,"Duration":4384524,"SoundDuration":4384524,"Delta":154657551},{"NoteNumber":54,"Velocity":31,"Duration":423728,"SoundDuration":423728,"Delta":155043155},{"NoteNumber":50,"Velocity":27,"Duration":519031,"SoundDuration":519031,"Delta":155466884},{"NoteNumber":63,"Velocity":38,"Duration":3185918,"SoundDuration":3185918,"Delta":155856157},{"NoteNumber":69,"Velocity":56,"Duration":3056160,"SoundDuration":3056160,"Delta":155985915},{"NoteNumber":54,"Velocity":37,"Duration":1104023,"SoundDuration":1104023,"Delta":155985915},{"NoteNumber":48,"Velocity":31,"Duration":3056160,"SoundDuration":3056160,"Delta":155985915},{"NoteNumber":53,"Velocity":44,"Duration":1850510,"SoundDuration":1850510,"Delta":157089939},{"NoteNumber":63,"Velocity":38,"Duration":960000,"SoundDuration":960000,"Delta":159042075},{"NoteNumber":58,"Velocity":38,"Duration":960000,"SoundDuration":960000,"Delta":159042075},{"NoteNumber":70,"Velocity":54,"Duration":960000,"SoundDuration":960000,"Delta":159042075},{"NoteNumber":53,"Velocity":32,"Duration":1927741,"SoundDuration":1927741,"Delta":159042075},{"NoteNumber":46,"Velocity":27,"Duration":1927741,"SoundDuration":1927741,"Delta":159042075},{"NoteNumber":70,"Velocity":45,"Duration":967741,"SoundDuration":967741,"Delta":160002075},{"NoteNumber":74,"Velocity":63,"Duration":725806,"SoundDuration":725806,"Delta":160002075},{"NoteNumber":72,"Velocity":57,"Duration":241935,"SoundDuration":241935,"Delta":160727882},{"NoteNumber":72,"Velocity":60,"Duration":1983471,"SoundDuration":1983471,"Delta":160969817},{"NoteNumber":63,"Velocity":43,"Duration":1983471,"SoundDuration":1983471,"Delta":160969817},{"NoteNumber":60,"Velocity":43,"Duration":1983471,"SoundDuration":1983471,"Delta":160969817},{"NoteNumber":45,"Velocity":32,"Duration":1983471,"SoundDuration":1983471,"Delta":160969817},{"NoteNumber":53,"Velocity":38,"Duration":1983471,"SoundDuration":1983471,"Delta":160969817},{"NoteNumber":58,"Velocity":39,"Duration":1008403,"SoundDuration":1008403,"Delta":162953288},{"NoteNumber":63,"Velocity":39,"Duration":1008403,"SoundDuration":1008403,"Delta":162953288},{"NoteNumber":70,"Velocity":56,"Duration":1008403,"SoundDuration":1008403,"Delta":162953288},{"NoteNumber":46,"Velocity":28,"Duration":1008403,"SoundDuration":1008403,"Delta":162953288},{"NoteNumber":53,"Velocity":33,"Duration":2016807,"SoundDuration":2016807,"Delta":162953288},{"NoteNumber":63,"Velocity":40,"Duration":1008403,"SoundDuration":1008403,"Delta":163961692},{"NoteNumber":69,"Velocity":57,"Duration":1008403,"SoundDuration":1008403,"Delta":163961692},{"NoteNumber":57,"Velocity":40,"Duration":1008403,"SoundDuration":1008403,"Delta":163961692},{"NoteNumber":48,"Velocity":38,"Duration":1008403,"SoundDuration":1008403,"Delta":163961692},{"NoteNumber":58,"Velocity":38,"Duration":1008403,"SoundDuration":1008403,"Delta":164970095},{"NoteNumber":63,"Velocity":45,"Duration":2030586,"SoundDuration":2030586,"Delta":164970095},{"NoteNumber":67,"Velocity":54,"Duration":1008403,"SoundDuration":1008403,"Delta":164970095},{"NoteNumber":46,"Velocity":32,"Duration":1008403,"SoundDuration":1008403,"Delta":164970095},{"NoteNumber":53,"Velocity":27,"Duration":2030586,"SoundDuration":2030586,"Delta":164970095},{"NoteNumber":60,"Velocity":51,"Duration":3074273,"SoundDuration":3074273,"Delta":165978499},{"NoteNumber":65,"Velocity":60,"Duration":495867,"SoundDuration":495867,"Delta":165978499},{"NoteNumber":45,"Velocity":41,"Duration":1022183,"SoundDuration":1022183,"Delta":165978499},{"NoteNumber":67,"Velocity":50,"Duration":131578,"SoundDuration":131578,"Delta":166474367},{"NoteNumber":65,"Velocity":45,"Duration":131578,"SoundDuration":131578,"Delta":166605946},{"NoteNumber":64,"Velocity":50,"Duration":131578,"SoundDuration":131578,"Delta":166737525},{"NoteNumber":65,"Velocity":52,"Duration":131578,"SoundDuration":131578,"Delta":166869103},{"NoteNumber":67,"Velocity":59,"Duration":756737,"SoundDuration":756737,"Delta":167000682},{"NoteNumber":41,"Velocity":38,"Duration":2052089,"SoundDuration":2052089,"Delta":167000682},{"NoteNumber":57,"Velocity":45,"Duration":2052089,"SoundDuration":2052089,"Delta":167000682},{"NoteNumber":63,"Velocity":52,"Duration":260869,"SoundDuration":260869,"Delta":167757420},{"NoteNumber":63,"Velocity":58,"Duration":1034482,"SoundDuration":1034482,"Delta":168018289},{"NoteNumber":56,"Velocity":42,"Duration":2000000,"SoundDuration":2000000,"Delta":169052772},{"NoteNumber":50,"Velocity":42,"Duration":2000000,"SoundDuration":2000000,"Delta":169052772},{"NoteNumber":62,"Velocity":50,"Duration":2000000,"SoundDuration":2000000,"Delta":169052772},{"NoteNumber":46,"Velocity":38,"Duration":2000000,"SoundDuration":2000000,"Delta":169052772},{"NoteNumber":34,"Velocity":32,"Duration":2000000,"SoundDuration":2000000,"Delta":169052772},{"NoteNumber":56,"Velocity":28,"Duration":1943351,"SoundDuration":1943351,"Delta":171052772},{"NoteNumber":51,"Velocity":28,"Duration":846774,"SoundDuration":846774,"Delta":171052772},{"NoteNumber":60,"Velocity":41,"Duration":1943351,"SoundDuration":1943351,"Delta":171052772},{"NoteNumber":36,"Velocity":22,"Duration":967741,"SoundDuration":967741,"Delta":171052772},{"NoteNumber":48,"Velocity":26,"Duration":967741,"SoundDuration":967741,"Delta":171052772},{"NoteNumber":55,"Velocity":46,"Duration":731707,"SoundDuration":731707,"Delta":172020514},{"NoteNumber":39,"Velocity":34,"Duration":731707,"SoundDuration":731707,"Delta":172020514},{"NoteNumber":51,"Velocity":40,"Duration":731707,"SoundDuration":731707,"Delta":172020514},{"NoteNumber":53,"Velocity":37,"Duration":243902,"SoundDuration":243902,"Delta":172752222},{"NoteNumber":50,"Velocity":28,"Duration":243902,"SoundDuration":243902,"Delta":172752222},{"NoteNumber":38,"Velocity":20,"Duration":243902,"SoundDuration":243902,"Delta":172752222},{"NoteNumber":53,"Velocity":30,"Duration":2000410,"SoundDuration":2000410,"Delta":172996124},{"NoteNumber":56,"Velocity":43,"Duration":2000410,"SoundDuration":2000410,"Delta":172996124},{"NoteNumber":58,"Velocity":43,"Duration":4034454,"SoundDuration":4034454,"Delta":172996124},{"NoteNumber":50,"Velocity":32,"Duration":2000410,"SoundDuration":2000410,"Delta":172996124},{"NoteNumber":38,"Velocity":27,"Duration":2000410,"SoundDuration":2000410,"Delta":172996124},{"NoteNumber":56,"Velocity":35,"Duration":1008403,"SoundDuration":1008403,"Delta":174996535},{"NoteNumber":51,"Velocity":29,"Duration":1008403,"SoundDuration":1008403,"Delta":174996535},{"NoteNumber":36,"Velocity":23,"Duration":1008403,"SoundDuration":1008403,"Delta":174996535},{"NoteNumber":48,"Velocity":28,"Duration":1008403,"SoundDuration":1008403,"Delta":174996535},{"NoteNumber":55,"Velocity":29,"Duration":1025641,"SoundDuration":1025641,"Delta":176004938},{"NoteNumber":50,"Velocity":33,"Duration":1025641,"SoundDuration":1025641,"Delta":176004938},{"NoteNumber":46,"Velocity":28,"Duration":1025641,"SoundDuration":1025641,"Delta":176004938},{"NoteNumber":34,"Velocity":23,"Duration":1025641,"SoundDuration":1025641,"Delta":176004938},{"NoteNumber":58,"Velocity":43,"Duration":2213976,"SoundDuration":2213976,"Delta":177030579},{"NoteNumber":53,"Velocity":26,"Duration":1034482,"SoundDuration":1034482,"Delta":177030579},{"NoteNumber":48,"Velocity":26,"Duration":1034482,"SoundDuration":1034482,"Delta":177030579},{"NoteNumber":44,"Velocity":24,"Duration":1034482,"SoundDuration":1034482,"Delta":177030579},{"NoteNumber":32,"Velocity":20,"Duration":1034482,"SoundDuration":1034482,"Delta":177030579},{"NoteNumber":51,"Velocity":39,"Duration":517241,"SoundDuration":517241,"Delta":178065062},{"NoteNumber":46,"Velocity":39,"Duration":517241,"SoundDuration":517241,"Delta":178065062},{"NoteNumber":43,"Velocity":28,"Duration":517241,"SoundDuration":517241,"Delta":178065062},{"NoteNumber":31,"Velocity":23,"Duration":517241,"SoundDuration":517241,"Delta":178065062},{"NoteNumber":53,"Velocity":36,"Duration":215231,"SoundDuration":215231,"Delta":178582304},{"NoteNumber":48,"Velocity":30,"Duration":215231,"SoundDuration":215231,"Delta":178582304},{"NoteNumber":44,"Velocity":23,"Duration":215231,"SoundDuration":215231,"Delta":178582304},{"NoteNumber":32,"Velocity":19,"Duration":215231,"SoundDuration":215231,"Delta":178582304},{"NoteNumber":46,"Velocity":25,"Duration":215231,"SoundDuration":215231,"Delta":178747867},{"NoteNumber":51,"Velocity":30,"Duration":215231,"SoundDuration":215231,"Delta":178747867},{"NoteNumber":43,"Velocity":22,"Duration":215231,"SoundDuration":215231,"Delta":178747867},{"NoteNumber":31,"Velocity":22,"Duration":215231,"SoundDuration":215231,"Delta":178747867},{"NoteNumber":44,"Velocity":31,"Duration":215231,"SoundDuration":215231,"Delta":178913430},{"NoteNumber":50,"Velocity":37,"Duration":215231,"SoundDuration":215231,"Delta":178913430},{"NoteNumber":29,"Velocity":21,"Duration":215231,"SoundDuration":215231,"Delta":178913430},{"NoteNumber":41,"Velocity":25,"Duration":215231,"SoundDuration":215231,"Delta":178913430},{"NoteNumber":51,"Velocity":41,"Duration":210294,"SoundDuration":210294,"Delta":179078992},{"NoteNumber":46,"Velocity":35,"Duration":210294,"SoundDuration":210294,"Delta":179078992},{"NoteNumber":31,"Velocity":22,"Duration":210294,"SoundDuration":210294,"Delta":179078992},{"NoteNumber":43,"Velocity":26,"Duration":210294,"SoundDuration":210294,"Delta":179078992},{"NoteNumber":55,"Velocity":50,"Duration":1015415,"SoundDuration":1015415,"Delta":179244555},{"NoteNumber":58,"Velocity":42,"Duration":1434410,"SoundDuration":1434410,"Delta":179244555},{"NoteNumber":50,"Velocity":40,"Duration":1015415,"SoundDuration":1015415,"Delta":179244555},{"NoteNumber":34,"Velocity":25,"Duration":1015415,"SoundDuration":1015415,"Delta":179244555},{"NoteNumber":46,"Velocity":30,"Duration":1015415,"SoundDuration":1015415,"Delta":179244555},{"NoteNumber":50,"Velocity":34,"Duration":418994,"SoundDuration":418994,"Delta":180259971},{"NoteNumber":44,"Velocity":34,"Duration":418994,"SoundDuration":418994,"Delta":180259971},{"NoteNumber":41,"Velocity":24,"Duration":418994,"SoundDuration":418994,"Delta":180259971},{"NoteNumber":29,"Velocity":21,"Duration":418994,"SoundDuration":418994,"Delta":180259971},{"NoteNumber":46,"Velocity":32,"Duration":2836879,"SoundDuration":2836879,"Delta":180678966},{"NoteNumber":51,"Velocity":36,"Duration":2836879,"SoundDuration":2836879,"Delta":180678966},{"NoteNumber":58,"Velocity":41,"Duration":2836879,"SoundDuration":2836879,"Delta":180678966},{"NoteNumber":31,"Velocity":23,"Duration":2836879,"SoundDuration":2836879,"Delta":180678966},{"NoteNumber":43,"Velocity":31,"Duration":2836879,"SoundDuration":2836879,"Delta":180678966},{"NoteNumber":49,"Velocity":28,"Duration":3833866,"SoundDuration":3833866,"Delta":183515845},{"NoteNumber":52,"Velocity":28,"Duration":3833866,"SoundDuration":3833866,"Delta":183515845},{"NoteNumber":57,"Velocity":34,"Duration":3833866,"SoundDuration":3833866,"Delta":183515845},{"NoteNumber":33,"Velocity":21,"Duration":3833866,"SoundDuration":3833866,"Delta":183515845},{"NoteNumber":45,"Velocity":25,"Duration":3833866,"SoundDuration":3833866,"Delta":183515845},{"NoteNumber":50,"Velocity":24,"Duration":11822659,"SoundDuration":11822659,"Delta":187349711},{"NoteNumber":54,"Velocity":24,"Duration":11822659,"SoundDuration":11822659,"Delta":187349711},{"NoteNumber":57,"Velocity":29,"Duration":11822659,"SoundDuration":11822659,"Delta":187349711},{"NoteNumber":26,"Velocity":17,"Duration":11822659,"SoundDuration":11822659,"Delta":187349711},{"NoteNumber":33,"Velocity":17,"Duration":11822659,"SoundDuration":11822659,"Delta":187349711},{"NoteNumber":38,"Velocity":20,"Duration":11822659,"SoundDuration":11822659,"Delta":187349711}]}