{"title":"Kreisleriana No. 7","artist":"Piano","durationMs":121867,"midiSha256":"e6824a144d57ef38d6e3d7c95de9f981a93b12559543542a83c2af417525fe7b","midiObject":[{"NoteNumber":67,"Velocity":50,"Duration":99873,"SoundDuration":99873,"Delta":0},{"NoteNumber":72,"Velocity":41,"Duration":33291,"SoundDuration":33291,"Delta":33291},{"NoteNumber":43,"Velocity":48,"Duration":253754,"SoundDuration":253754,"Delta":49937},{"NoteNumber":74,"Velocity":41,"Duration":33291,"SoundDuration":33291,"Delta":66582},{"NoteNumber":48,"Velocity":54,"Duration":228786,"SoundDuration":228786,"Delta":74905},{"NoteNumber":75,"Velocity":72,"Duration":101909,"SoundDuration":101909,"Delta":99874},{"NoteNumber":57,"Velocity":60,"Duration":203818,"SoundDuration":203818,"Delta":99874},{"NoteNumber":66,"Velocity":47,"Duration":101909,"SoundDuration":101909,"Delta":201783},{"NoteNumber":72,"Velocity":50,"Duration":101909,"SoundDuration":101909,"Delta":303692},{"NoteNumber":75,"Velocity":50,"Duration":101909,"SoundDuration":101909,"Delta":405601},{"NoteNumber":43,"Velocity":55,"Duration":254772,"SoundDuration":254772,"Delta":456555},{"NoteNumber":50,"Velocity":59,"Duration":229295,"SoundDuration":229295,"Delta":482032},{"NoteNumber":74,"Velocity":71,"Duration":101909,"SoundDuration":101909,"Delta":507510},{"NoteNumber":59,"Velocity":63,"Duration":203817,"SoundDuration":203817,"Delta":507510},{"NoteNumber":65,"Velocity":45,"Duration":101908,"SoundDuration":101908,"Delta":609419},{"NoteNumber":71,"Velocity":50,"Duration":108940,"SoundDuration":108940,"Delta":711328},{"NoteNumber":74,"Velocity":50,"Duration":108940,"SoundDuration":108940,"Delta":820268},{"NoteNumber":43,"Velocity":51,"Duration":257598,"SoundDuration":257598,"Delta":874738},{"NoteNumber":51,"Velocity":54,"Duration":230363,"SoundDuration":230363,"Delta":901973},{"NoteNumber":72,"Velocity":71,"Duration":101563,"SoundDuration":101563,"Delta":929208},{"NoteNumber":60,"Velocity":58,"Duration":203127,"SoundDuration":203127,"Delta":929208},{"NoteNumber":69,"Velocity":46,"Duration":101563,"SoundDuration":101563,"Delta":1030772},{"NoteNumber":66,"Velocity":50,"Duration":101563,"SoundDuration":101563,"Delta":1132336},{"NoteNumber":63,"Velocity":50,"Duration":101563,"SoundDuration":101563,"Delta":1233900},{"NoteNumber":60,"Velocity":52,"Duration":101564,"SoundDuration":101564,"Delta":1335464},{"NoteNumber":57,"Velocity":51,"Duration":101563,"SoundDuration":101563,"Delta":1437028},{"NoteNumber":54,"Velocity":50,"Duration":113045,"SoundDuration":113045,"Delta":1538592},{"NoteNumber":67,"Velocity":50,"Duration":113045,"SoundDuration":113045,"Delta":1651638},{"NoteNumber":51,"Velocity":50,"Duration":113045,"SoundDuration":113045,"Delta":1651638},{"NoteNumber":72,"Velocity":41,"Duration":37681,"SoundDuration":37681,"Delta":1689319},{"NoteNumber":74,"Velocity":41,"Duration":37681,"SoundDuration":37681,"Delta":1727001},{"NoteNumber":75,"Velocity":72,"Duration":101564,"SoundDuration":101564,"Delta":1764683},{"NoteNumber":43,"Velocity":48,"Duration":203127,"SoundDuration":203127,"Delta":1764683},{"NoteNumber":48,"Velocity":52,"Duration":203127,"SoundDuration":203127,"Delta":1764683},{"NoteNumber":57,"Velocity":60,"Duration":203127,"SoundDuration":203127,"Delta":1764683},{"NoteNumber":66,"Velocity":47,"Duration":101563,"SoundDuration":101563,"Delta":1866247},{"NoteNumber":72,"Velocity":50,"Duration":101564,"SoundDuration":101564,"Delta":1967811},{"NoteNumber":75,"Velocity":50,"Duration":101563,"SoundDuration":101563,"Delta":2069375},{"NoteNumber":74,"Velocity":71,"Duration":101564,"SoundDuration":101564,"Delta":2170939},{"NoteNumber":43,"Velocity":51,"Duration":203127,"SoundDuration":203127,"Delta":2170939},{"NoteNumber":50,"Velocity":55,"Duration":203127,"SoundDuration":203127,"Delta":2170939},{"NoteNumber":59,"Velocity":60,"Duration":203127,"SoundDuration":203127,"Delta":2170939},{"NoteNumber":65,"Velocity":45,"Duration":101563,"SoundDuration":101563,"Delta":2272503},{"NoteNumber":71,"Velocity":50,"Duration":108546,"SoundDuration":108546,"Delta":2374067},{"NoteNumber":74,"Velocity":50,"Duration":108546,"SoundDuration":108546,"Delta":2482613},{"NoteNumber":72,"Velocity":71,"Duration":101564,"SoundDuration":101564,"Delta":2591159},{"NoteNumber":43,"Velocity":46,"Duration":203127,"SoundDuration":203127,"Delta":2591159},{"NoteNumber":51,"Velocity":51,"Duration":203127,"SoundDuration":203127,"Delta":2591159},{"NoteNumber":60,"Velocity":57,"Duration":203127,"SoundDuration":203127,"Delta":2591159},{"NoteNumber":69,"Velocity":46,"Duration":101563,"SoundDuration":101563,"Delta":2692724},{"NoteNumber":66,"Velocity":50,"Duration":101564,"SoundDuration":101564,"Delta":2794287},{"NoteNumber":63,"Velocity":50,"Duration":101563,"SoundDuration":101563,"Delta":2895852},{"NoteNumber":60,"Velocity":52,"Duration":101564,"SoundDuration":101564,"Delta":2997415},{"NoteNumber":57,"Velocity":51,"Duration":101563,"SoundDuration":101563,"Delta":3098980},{"NoteNumber":54,"Velocity":50,"Duration":110954,"SoundDuration":110954,"Delta":3200543},{"NoteNumber":63,"Velocity":50,"Duration":110955,"SoundDuration":110955,"Delta":3311498},{"NoteNumber":51,"Velocity":50,"Duration":110955,"SoundDuration":110955,"Delta":3311498},{"NoteNumber":67,"Velocity":41,"Duration":36984,"SoundDuration":36984,"Delta":3348484},{"NoteNumber":43,"Velocity":40,"Duration":410951,"SoundDuration":410951,"Delta":3366976},{"NoteNumber":68,"Velocity":41,"Duration":36985,"SoundDuration":36985,"Delta":3385468},{"NoteNumber":70,"Velocity":71,"Duration":101563,"SoundDuration":101563,"Delta":3422454},{"NoteNumber":52,"Velocity":58,"Duration":355474,"SoundDuration":355474,"Delta":3422454},{"NoteNumber":61,"Velocity":42,"Duration":101564,"SoundDuration":101564,"Delta":3524018},{"NoteNumber":67,"Velocity":47,"Duration":101563,"SoundDuration":101563,"Delta":3625582},{"NoteNumber":70,"Velocity":40,"Duration":101563,"SoundDuration":101563,"Delta":3727146},{"NoteNumber":43,"Velocity":43,"Duration":415559,"SoundDuration":415559,"Delta":3777928},{"NoteNumber":68,"Velocity":66,"Duration":101563,"SoundDuration":101563,"Delta":3828710},{"NoteNumber":53,"Velocity":63,"Duration":364777,"SoundDuration":364777,"Delta":3828710},{"NoteNumber":60,"Velocity":40,"Duration":101564,"SoundDuration":101564,"Delta":3930274},{"NoteNumber":65,"Velocity":46,"Duration":107766,"SoundDuration":107766,"Delta":4031838},{"NoteNumber":68,"Velocity":42,"Duration":107766,"SoundDuration":107766,"Delta":4139604},{"NoteNumber":43,"Velocity":39,"Duration":460139,"SoundDuration":460139,"Delta":4193487},{"NoteNumber":67,"Velocity":66,"Duration":101563,"SoundDuration":101563,"Delta":4247370},{"NoteNumber":55,"Velocity":48,"Duration":406255,"SoundDuration":406255,"Delta":4247370},{"NoteNumber":64,"Velocity":40,"Duration":101564,"SoundDuration":101564,"Delta":4348934},{"NoteNumber":61,"Velocity":45,"Duration":101563,"SoundDuration":101563,"Delta":4450498},{"NoteNumber":58,"Velocity":40,"Duration":101563,"SoundDuration":101563,"Delta":4552062},{"NoteNumber":55,"Velocity":52,"Duration":81251,"SoundDuration":81251,"Delta":4653626},{"NoteNumber":52,"Velocity":51,"Duration":81251,"SoundDuration":81251,"Delta":4734877},{"NoteNumber":49,"Velocity":50,"Duration":86535,"SoundDuration":86535,"Delta":4816128},{"NoteNumber":46,"Velocity":50,"Duration":91820,"SoundDuration":91820,"Delta":4902664},{"NoteNumber":58,"Velocity":50,"Duration":114775,"SoundDuration":114775,"Delta":4971530},{"NoteNumber":43,"Velocity":50,"Duration":91820,"SoundDuration":91820,"Delta":4994485},{"NoteNumber":61,"Velocity":41,"Duration":38258,"SoundDuration":38258,"Delta":5009788},{"NoteNumber":64,"Velocity":41,"Duration":38258,"SoundDuration":38258,"Delta":5048047},{"NoteNumber":65,"Velocity":67,"Duration":102256,"SoundDuration":102256,"Delta":5086305},{"NoteNumber":31,"Velocity":56,"Duration":409025,"SoundDuration":409025,"Delta":5086305},{"NoteNumber":43,"Velocity":70,"Duration":409025,"SoundDuration":409025,"Delta":5086305},{"NoteNumber":56,"Velocity":42,"Duration":102256,"SoundDuration":102256,"Delta":5188562},{"NoteNumber":60,"Velocity":47,"Duration":102256,"SoundDuration":102256,"Delta":5290818},{"NoteNumber":65,"Velocity":40,"Duration":102256,"SoundDuration":102256,"Delta":5393075},{"NoteNumber":62,"Velocity":66,"Duration":104029,"SoundDuration":104029,"Delta":5495331},{"NoteNumber":31,"Velocity":60,"Duration":430792,"SoundDuration":430792,"Delta":5495331},{"NoteNumber":43,"Velocity":70,"Duration":430792,"SoundDuration":430792,"Delta":5495331},{"NoteNumber":53,"Velocity":40,"Duration":104029,"SoundDuration":104029,"Delta":5599361},{"NoteNumber":59,"Velocity":46,"Duration":111366,"SoundDuration":111366,"Delta":5703390},{"NoteNumber":62,"Velocity":42,"Duration":111366,"SoundDuration":111366,"Delta":5814757},{"NoteNumber":60,"Velocity":66,"Duration":87855,"SoundDuration":87855,"Delta":5926124},{"NoteNumber":36,"Velocity":54,"Duration":453144,"SoundDuration":453144,"Delta":5926124},{"NoteNumber":43,"Velocity":67,"Duration":336765,"SoundDuration":336765,"Delta":5926124},{"NoteNumber":55,"Velocity":40,"Duration":89225,"SoundDuration":89225,"Delta":6013979},{"NoteNumber":51,"Velocity":45,"Duration":90712,"SoundDuration":90712,"Delta":6103204},{"NoteNumber":48,"Velocity":40,"Duration":92175,"SoundDuration":92175,"Delta":6193917},{"NoteNumber":43,"Velocity":40,"Duration":93175,"SoundDuration":93175,"Delta":6286092},{"NoteNumber":36,"Velocity":78,"Duration":486139,"SoundDuration":486139,"Delta":6379268},{"NoteNumber":67,"Velocity":50,"Duration":99873,"SoundDuration":99873,"Delta":6765534},{"NoteNumber":72,"Velocity":41,"Duration":33291,"SoundDuration":33291,"Delta":6798825},{"NoteNumber":43,"Velocity":57,"Duration":253754,"SoundDuration":253754,"Delta":6815471},{"NoteNumber":74,"Velocity":41,"Duration":33291,"SoundDuration":33291,"Delta":6832116},{"NoteNumber":48,"Velocity":60,"Duration":228786,"SoundDuration":228786,"Delta":6840439},{"NoteNumber":75,"Velocity":72,"Duration":101909,"SoundDuration":101909,"Delta":6865407},{"NoteNumber":57,"Velocity":64,"Duration":203818,"SoundDuration":203818,"Delta":6865407},{"NoteNumber":66,"Velocity":47,"Duration":101909,"SoundDuration":101909,"Delta":6967316},{"NoteNumber":72,"Velocity":50,"Duration":101909,"SoundDuration":101909,"Delta":7069225},{"NoteNumber":75,"Velocity":50,"Duration":101909,"SoundDuration":101909,"Delta":7171134},{"NoteNumber":43,"Velocity":55,"Duration":254772,"SoundDuration":254772,"Delta":7222089},{"NoteNumber":50,"Velocity":58,"Duration":229295,"SoundDuration":229295,"Delta":7247566},{"NoteNumber":74,"Velocity":71,"Duration":101908,"SoundDuration":101908,"Delta":7273043},{"NoteNumber":59,"Velocity":60,"Duration":203818,"SoundDuration":203818,"Delta":7273043},{"NoteNumber":65,"Velocity":45,"Duration":101909,"SoundDuration":101909,"Delta":7374952},{"NoteNumber":71,"Velocity":50,"Duration":108940,"SoundDuration":108940,"Delta":7476861},{"NoteNumber":74,"Velocity":50,"Duration":108940,"SoundDuration":108940,"Delta":7585802},{"NoteNumber":43,"Velocity":55,"Duration":257598,"SoundDuration":257598,"Delta":7640272},{"NoteNumber":51,"Velocity":59,"Duration":230363,"SoundDuration":230363,"Delta":7667507},{"NoteNumber":72,"Velocity":71,"Duration":101563,"SoundDuration":101563,"Delta":7694742},{"NoteNumber":60,"Velocity":63,"Duration":203127,"SoundDuration":203127,"Delta":7694742},{"NoteNumber":69,"Velocity":46,"Duration":101563,"SoundDuration":101563,"Delta":7796306},{"NoteNumber":66,"Velocity":50,"Duration":101563,"SoundDuration":101563,"Delta":7897870},{"NoteNumber":63,"Velocity":50,"Duration":101564,"SoundDuration":101564,"Delta":7999434},{"NoteNumber":60,"Velocity":52,"Duration":101563,"SoundDuration":101563,"Delta":8100998},{"NoteNumber":57,"Velocity":51,"Duration":101563,"SoundDuration":101563,"Delta":8202562},{"NoteNumber":54,"Velocity":50,"Duration":113045,"SoundDuration":113045,"Delta":8304126},{"NoteNumber":67,"Velocity":50,"Duration":113045,"SoundDuration":113045,"Delta":8417171},{"NoteNumber":51,"Velocity":50,"Duration":113045,"SoundDuration":113045,"Delta":8417171},{"NoteNumber":72,"Velocity":41,"Duration":37681,"SoundDuration":37681,"Delta":8454853},{"NoteNumber":74,"Velocity":41,"Duration":37681,"SoundDuration":37681,"Delta":8492535},{"NoteNumber":75,"Velocity":72,"Duration":101563,"SoundDuration":101563,"Delta":8530217},{"NoteNumber":43,"Velocity":48,"Duration":203127,"SoundDuration":203127,"Delta":8530217},{"NoteNumber":48,"Velocity":52,"Duration":203127,"SoundDuration":203127,"Delta":8530217},{"NoteNumber":57,"Velocity":60,"Duration":203127,"SoundDuration":203127,"Delta":8530217},{"NoteNumber":66,"Velocity":47,"Duration":101563,"SoundDuration":101563,"Delta":8631781},{"NoteNumber":72,"Velocity":50,"Duration":101563,"SoundDuration":101563,"Delta":8733345},{"NoteNumber":75,"Velocity":50,"Duration":101564,"SoundDuration":101564,"Delta":8834909},{"NoteNumber":74,"Velocity":71,"Duration":101563,"SoundDuration":101563,"Delta":8936473},{"NoteNumber":43,"Velocity":51,"Duration":203127,"SoundDuration":203127,"Delta":8936473},{"NoteNumber":50,"Velocity":55,"Duration":203127,"SoundDuration":203127,"Delta":8936473},{"NoteNumber":59,"Velocity":60,"Duration":203127,"SoundDuration":203127,"Delta":8936473},{"NoteNumber":65,"Velocity":45,"Duration":101563,"SoundDuration":101563,"Delta":9038037},{"NoteNumber":71,"Velocity":50,"Duration":108546,"SoundDuration":108546,"Delta":9139601},{"NoteNumber":74,"Velocity":50,"Duration":108546,"SoundDuration":108546,"Delta":9248147},{"NoteNumber":72,"Velocity":71,"Duration":101563,"SoundDuration":101563,"Delta":9356693},{"NoteNumber":43,"Velocity":46,"Duration":203127,"SoundDuration":203127,"Delta":9356693},{"NoteNumber":51,"Velocity":51,"Duration":203127,"SoundDuration":203127,"Delta":9356693},{"NoteNumber":60,"Velocity":57,"Duration":203127,"SoundDuration":203127,"Delta":9356693},{"NoteNumber":69,"Velocity":46,"Duration":101563,"SoundDuration":101563,"Delta":9458257},{"NoteNumber":66,"Velocity":50,"Duration":101563,"SoundDuration":101563,"Delta":9559821},{"NoteNumber":63,"Velocity":50,"Duration":101564,"SoundDuration":101564,"Delta":9661385},{"NoteNumber":60,"Velocity":52,"Duration":101563,"SoundDuration":101563,"Delta":9762949},{"NoteNumber":57,"Velocity":51,"Duration":101563,"SoundDuration":101563,"Delta":9864513},{"NoteNumber":54,"Velocity":50,"Duration":110955,"SoundDuration":110955,"Delta":9966077},{"NoteNumber":63,"Velocity":50,"Duration":110954,"SoundDuration":110954,"Delta":10077032},{"NoteNumber":51,"Velocity":50,"Duration":110954,"SoundDuration":110954,"Delta":10077032},{"NoteNumber":67,"Velocity":41,"Duration":36984,"SoundDuration":36984,"Delta":10114017},{"NoteNumber":43,"Velocity":40,"Duration":410951,"SoundDuration":410951,"Delta":10132510},{"NoteNumber":68,"Velocity":41,"Duration":36984,"SoundDuration":36984,"Delta":10151002},{"NoteNumber":70,"Velocity":71,"Duration":101563,"SoundDuration":101563,"Delta":10187987},{"NoteNumber":52,"Velocity":50,"Duration":355473,"SoundDuration":355473,"Delta":10187987},{"NoteNumber":61,"Velocity":42,"Duration":101563,"SoundDuration":101563,"Delta":10289551},{"NoteNumber":67,"Velocity":47,"Duration":101563,"SoundDuration":101563,"Delta":10391115},{"NoteNumber":70,"Velocity":40,"Duration":101564,"SoundDuration":101564,"Delta":10492679},{"NoteNumber":43,"Velocity":43,"Duration":415559,"SoundDuration":415559,"Delta":10543461},{"NoteNumber":68,"Velocity":66,"Duration":101563,"SoundDuration":101563,"Delta":10594243},{"NoteNumber":53,"Velocity":50,"Duration":364777,"SoundDuration":364777,"Delta":10594243},{"NoteNumber":60,"Velocity":40,"Duration":101563,"SoundDuration":101563,"Delta":10695807},{"NoteNumber":65,"Velocity":46,"Duration":107766,"SoundDuration":107766,"Delta":10797371},{"NoteNumber":68,"Velocity":42,"Duration":107766,"SoundDuration":107766,"Delta":10905138},{"NoteNumber":43,"Velocity":39,"Duration":460139,"SoundDuration":460139,"Delta":10959021},{"NoteNumber":67,"Velocity":66,"Duration":101563,"SoundDuration":101563,"Delta":11012904},{"NoteNumber":55,"Velocity":48,"Duration":406256,"SoundDuration":406256,"Delta":11012904},{"NoteNumber":64,"Velocity":40,"Duration":101563,"SoundDuration":101563,"Delta":11114468},{"NoteNumber":61,"Velocity":45,"Duration":101563,"SoundDuration":101563,"Delta":11216032},{"NoteNumber":58,"Velocity":40,"Duration":101564,"SoundDuration":101564,"Delta":11317596},{"NoteNumber":55,"Velocity":52,"Duration":81251,"SoundDuration":81251,"Delta":11419160},{"NoteNumber":52,"Velocity":51,"Duration":81251,"SoundDuration":81251,"Delta":11500411},{"NoteNumber":49,"Velocity":50,"Duration":86535,"SoundDuration":86535,"Delta":11581662},{"NoteNumber":46,"Velocity":50,"Duration":91820,"SoundDuration":91820,"Delta":11668198},{"NoteNumber":58,"Velocity":50,"Duration":114775,"SoundDuration":114775,"Delta":11737063},{"NoteNumber":43,"Velocity":50,"Duration":91820,"SoundDuration":91820,"Delta":11760019},{"NoteNumber":61,"Velocity":41,"Duration":38258,"SoundDuration":38258,"Delta":11775322},{"NoteNumber":64,"Velocity":41,"Duration":38258,"SoundDuration":38258,"Delta":11813580},{"NoteNumber":65,"Velocity":67,"Duration":102256,"SoundDuration":102256,"Delta":11851839},{"NoteNumber":31,"Velocity":56,"Duration":409026,"SoundDuration":409026,"Delta":11851839},{"NoteNumber":43,"Velocity":70,"Duration":409026,"SoundDuration":409026,"Delta":11851839},{"NoteNumber":56,"Velocity":42,"Duration":102256,"SoundDuration":102256,"Delta":11954095},{"NoteNumber":60,"Velocity":47,"Duration":102256,"SoundDuration":102256,"Delta":12056352},{"NoteNumber":65,"Velocity":40,"Duration":102256,"SoundDuration":102256,"Delta":12158608},{"NoteNumber":62,"Velocity":66,"Duration":104029,"SoundDuration":104029,"Delta":12260865},{"NoteNumber":31,"Velocity":60,"Duration":430792,"SoundDuration":430792,"Delta":12260865},{"NoteNumber":43,"Velocity":70,"Duration":430792,"SoundDuration":430792,"Delta":12260865},{"NoteNumber":53,"Velocity":40,"Duration":104029,"SoundDuration":104029,"Delta":12364894},{"NoteNumber":59,"Velocity":46,"Duration":111366,"SoundDuration":111366,"Delta":12468924},{"NoteNumber":62,"Velocity":42,"Duration":111366,"SoundDuration":111366,"Delta":12580291},{"NoteNumber":60,"Velocity":66,"Duration":87855,"SoundDuration":87855,"Delta":12691657},{"NoteNumber":36,"Velocity":54,"Duration":453144,"SoundDuration":453144,"Delta":12691657},{"NoteNumber":43,"Velocity":67,"Duration":336765,"SoundDuration":336765,"Delta":12691657},{"NoteNumber":55,"Velocity":40,"Duration":89225,"SoundDuration":89225,"Delta":12779513},{"NoteNumber":51,"Velocity":45,"Duration":90712,"SoundDuration":90712,"Delta":12868738},{"NoteNumber":48,"Velocity":40,"Duration":92175,"SoundDuration":92175,"Delta":12959451},{"NoteNumber":43,"Velocity":40,"Duration":93175,"SoundDuration":93175,"Delta":13051626},{"NoteNumber":36,"Velocity":80,"Duration":472239,"SoundDuration":472239,"Delta":13144802},{"NoteNumber":62,"Velocity":59,"Duration":116279,"SoundDuration":116279,"Delta":13393765},{"NoteNumber":63,"Velocity":43,"Duration":106997,"SoundDuration":106997,"Delta":13510044},{"NoteNumber":62,"Velocity":67,"Duration":614255,"SoundDuration":614255,"Delta":13617041},{"NoteNumber":43,"Velocity":52,"Duration":414508,"SoundDuration":414508,"Delta":13617041},{"NoteNumber":58,"Velocity":41,"Duration":107380,"SoundDuration":107380,"Delta":13724422},{"NoteNumber":57,"Velocity":46,"Duration":99873,"SoundDuration":99873,"Delta":13831803},{"NoteNumber":55,"Velocity":39,"Duration":99873,"SoundDuration":99873,"Delta":13931676},{"NoteNumber":50,"Velocity":42,"Duration":408530,"SoundDuration":408530,"Delta":14031550},{"NoteNumber":62,"Velocity":57,"Duration":104391,"SoundDuration":104391,"Delta":14231297},{"NoteNumber":67,"Velocity":57,"Duration":156587,"SoundDuration":156587,"Delta":14231297},{"NoteNumber":63,"Velocity":46,"Duration":104391,"SoundDuration":104391,"Delta":14335688},{"NoteNumber":62,"Velocity":70,"Duration":106617,"SoundDuration":106617,"Delta":14440080},{"NoteNumber":66,"Velocity":70,"Duration":615406,"SoundDuration":615406,"Delta":14440080},{"NoteNumber":38,"Velocity":51,"Duration":414320,"SoundDuration":414320,"Delta":14440080},{"NoteNumber":60,"Velocity":44,"Duration":106617,"SoundDuration":106617,"Delta":14546697},{"NoteNumber":58,"Velocity":45,"Duration":100543,"SoundDuration":100543,"Delta":14653315},{"NoteNumber":57,"Velocity":45,"Duration":100543,"SoundDuration":100543,"Delta":14753858},{"NoteNumber":50,"Velocity":43,"Duration":415081,"SoundDuration":415081,"Delta":14854401},{"NoteNumber":62,"Velocity":62,"Duration":160496,"SoundDuration":160496,"Delta":15055487},{"NoteNumber":63,"Velocity":45,"Duration":106997,"SoundDuration":106997,"Delta":15162485},{"NoteNumber":62,"Velocity":72,"Duration":614255,"SoundDuration":614255,"Delta":15269482},{"NoteNumber":43,"Velocity":52,"Duration":414508,"SoundDuration":414508,"Delta":15269482},{"NoteNumber":58,"Velocity":41,"Duration":107380,"SoundDuration":107380,"Delta":15376863},{"NoteNumber":57,"Velocity":46,"Duration":99873,"SoundDuration":99873,"Delta":15484244},{"NoteNumber":55,"Velocity":39,"Duration":99873,"SoundDuration":99873,"Delta":15584117},{"NoteNumber":50,"Velocity":42,"Duration":408530,"SoundDuration":408530,"Delta":15683991},{"NoteNumber":62,"Velocity":53,"Duration":104391,"SoundDuration":104391,"Delta":15883738},{"NoteNumber":67,"Velocity":53,"Duration":156587,"SoundDuration":156587,"Delta":15883738},{"NoteNumber":63,"Velocity":46,"Duration":104391,"SoundDuration":104391,"Delta":15988129},{"NoteNumber":62,"Velocity":69,"Duration":106617,"SoundDuration":106617,"Delta":16092521},{"NoteNumber":66,"Velocity":69,"Duration":615407,"SoundDuration":615407,"Delta":16092521},{"NoteNumber":38,"Velocity":51,"Duration":414321,"SoundDuration":414321,"Delta":16092521},{"NoteNumber":60,"Velocity":44,"Duration":106617,"SoundDuration":106617,"Delta":16199138},{"NoteNumber":58,"Velocity":45,"Duration":100542,"SoundDuration":100542,"Delta":16305756},{"NoteNumber":57,"Velocity":45,"Duration":100543,"SoundDuration":100543,"Delta":16406299},{"NoteNumber":50,"Velocity":43,"Duration":415081,"SoundDuration":415081,"Delta":16506842},{"NoteNumber":62,"Velocity":57,"Duration":213995,"SoundDuration":213995,"Delta":16707928},{"NoteNumber":63,"Velocity":45,"Duration":106997,"SoundDuration":106997,"Delta":16814926},{"NoteNumber":62,"Velocity":68,"Duration":414508,"SoundDuration":414508,"Delta":16921923},{"NoteNumber":43,"Velocity":69,"Duration":414508,"SoundDuration":414508,"Delta":16921923},{"NoteNumber":58,"Velocity":41,"Duration":107380,"SoundDuration":107380,"Delta":17029304},{"NoteNumber":57,"Velocity":46,"Duration":99873,"SoundDuration":99873,"Delta":17136685},{"NoteNumber":55,"Velocity":39,"Duration":99873,"SoundDuration":99873,"Delta":17236558},{"NoteNumber":70,"Velocity":69,"Duration":199747,"SoundDuration":199747,"Delta":17336432},{"NoteNumber":50,"Velocity":42,"Duration":408530,"SoundDuration":408530,"Delta":17336432},{"NoteNumber":63,"Velocity":53,"Duration":208783,"SoundDuration":208783,"Delta":17536179},{"NoteNumber":65,"Velocity":46,"Duration":104391,"SoundDuration":104391,"Delta":17640570},{"NoteNumber":63,"Velocity":70,"Duration":414508,"SoundDuration":414508,"Delta":17744962},{"NoteNumber":36,"Velocity":72,"Duration":414508,"SoundDuration":414508,"Delta":17744962},{"NoteNumber":58,"Velocity":41,"Duration":107380,"SoundDuration":107380,"Delta":17852343},{"NoteNumber":57,"Velocity":46,"Duration":99873,"SoundDuration":99873,"Delta":17959723},{"NoteNumber":55,"Velocity":39,"Duration":99873,"SoundDuration":99873,"Delta":18059597},{"NoteNumber":75,"Velocity":76,"Duration":199747,"SoundDuration":199747,"Delta":18159470},{"NoteNumber":48,"Velocity":42,"Duration":408530,"SoundDuration":408530,"Delta":18159470},{"NoteNumber":63,"Velocity":53,"Duration":208783,"SoundDuration":208783,"Delta":18359217},{"NoteNumber":65,"Velocity":46,"Duration":104391,"SoundDuration":104391,"Delta":18463609},{"NoteNumber":63,"Velocity":70,"Duration":410074,"SoundDuration":410074,"Delta":18568000},{"NoteNumber":41,"Velocity":75,"Duration":410074,"SoundDuration":410074,"Delta":18568000},{"NoteNumber":57,"Velocity":41,"Duration":107380,"SoundDuration":107380,"Delta":18675381},{"NoteNumber":55,"Velocity":46,"Duration":97656,"SoundDuration":97656,"Delta":18782762},{"NoteNumber":53,"Velocity":39,"Duration":97656,"SoundDuration":97656,"Delta":18880418},{"NoteNumber":69,"Velocity":73,"Duration":195312,"SoundDuration":195312,"Delta":18978074},{"NoteNumber":48,"Velocity":42,"Duration":422412,"SoundDuration":422412,"Delta":18978074},{"NoteNumber":62,"Velocity":53,"Duration":227100,"SoundDuration":227100,"Delta":19173387},{"NoteNumber":63,"Velocity":46,"Duration":113550,"SoundDuration":113550,"Delta":19286937},{"NoteNumber":62,"Velocity":70,"Duration":414508,"SoundDuration":414508,"Delta":19400487},{"NoteNumber":34,"Velocity":80,"Duration":414508,"SoundDuration":414508,"Delta":19400487},{"NoteNumber":57,"Velocity":41,"Duration":107380,"SoundDuration":107380,"Delta":19507868},{"NoteNumber":55,"Velocity":46,"Duration":99873,"SoundDuration":99873,"Delta":19615249},{"NoteNumber":53,"Velocity":39,"Duration":99873,"SoundDuration":99873,"Delta":19715122},{"NoteNumber":74,"Velocity":76,"Duration":199747,"SoundDuration":199747,"Delta":19814996},{"NoteNumber":46,"Velocity":42,"Duration":408530,"SoundDuration":408530,"Delta":19814996},{"NoteNumber":62,"Velocity":53,"Duration":208783,"SoundDuration":208783,"Delta":20014743},{"NoteNumber":63,"Velocity":46,"Duration":104391,"SoundDuration":104391,"Delta":20119134},{"NoteNumber":62,"Velocity":70,"Duration":414508,"SoundDuration":414508,"Delta":20223526},{"NoteNumber":39,"Velocity":72,"Duration":414508,"SoundDuration":414508,"Delta":20223526},{"NoteNumber":55,"Velocity":41,"Duration":107380,"SoundDuration":107380,"Delta":20330907},{"NoteNumber":53,"Velocity":46,"Duration":99873,"SoundDuration":99873,"Delta":20438287},{"NoteNumber":51,"Velocity":39,"Duration":99873,"SoundDuration":99873,"Delta":20538161},{"NoteNumber":67,"Velocity":73,"Duration":199747,"SoundDuration":199747,"Delta":20638034},{"NoteNumber":46,"Velocity":42,"Duration":423460,"SoundDuration":423460,"Delta":20638034},{"NoteNumber":60,"Velocity":53,"Duration":223713,"SoundDuration":223713,"Delta":20837781},{"NoteNumber":62,"Velocity":46,"Duration":111856,"SoundDuration":111856,"Delta":20949638},{"NoteNumber":60,"Velocity":70,"Duration":414508,"SoundDuration":414508,"Delta":21061495},{"NoteNumber":33,"Velocity":71,"Duration":414508,"SoundDuration":414508,"Delta":21061495},{"NoteNumber":55,"Velocity":41,"Duration":107380,"SoundDuration":107380,"Delta":21168876},{"NoteNumber":53,"Velocity":46,"Duration":99873,"SoundDuration":99873,"Delta":21276256},{"NoteNumber":51,"Velocity":39,"Duration":99873,"SoundDuration":99873,"Delta":21376130},{"NoteNumber":72,"Velocity":76,"Duration":199747,"SoundDuration":199747,"Delta":21476003},{"NoteNumber":45,"Velocity":42,"Duration":408530,"SoundDuration":408530,"Delta":21476003},{"NoteNumber":60,"Velocity":53,"Duration":208783,"SoundDuration":208783,"Delta":21675750},{"NoteNumber":62,"Velocity":46,"Duration":104391,"SoundDuration":104391,"Delta":21780142},{"NoteNumber":60,"Velocity":70,"Duration":414508,"SoundDuration":414508,"Delta":21884533},{"NoteNumber":38,"Velocity":67,"Duration":414508,"SoundDuration":414508,"Delta":21884533},{"NoteNumber":54,"Velocity":41,"Duration":107380,"SoundDuration":107380,"Delta":21991914},{"NoteNumber":52,"Velocity":46,"Duration":99873,"SoundDuration":99873,"Delta":22099295},{"NoteNumber":50,"Velocity":39,"Duration":99873,"SoundDuration":99873,"Delta":22199168},{"NoteNumber":66,"Velocity":73,"Duration":199747,"SoundDuration":199747,"Delta":22299042},{"NoteNumber":45,"Velocity":42,"Duration":408530,"SoundDuration":408530,"Delta":22299042},{"NoteNumber":72,"Velocity":53,"Duration":208783,"SoundDuration":208783,"Delta":22498789},{"NoteNumber":74,"Velocity":46,"Duration":104391,"SoundDuration":104391,"Delta":22603180},{"NoteNumber":72,"Velocity":70,"Duration":414508,"SoundDuration":414508,"Delta":22707572},{"NoteNumber":38,"Velocity":68,"Duration":414508,"SoundDuration":414508,"Delta":22707572},{"NoteNumber":66,"Velocity":41,"Duration":107380,"SoundDuration":107380,"Delta":22814953},{"NoteNumber":64,"Velocity":46,"Duration":99873,"SoundDuration":99873,"Delta":22922333},{"NoteNumber":62,"Velocity":39,"Duration":99873,"SoundDuration":99873,"Delta":23022207},{"NoteNumber":78,"Velocity":73,"Duration":221402,"SoundDuration":221402,"Delta":23122080},{"NoteNumber":57,"Velocity":42,"Duration":430913,"SoundDuration":430913,"Delta":23122080},{"NoteNumber":74,"Velocity":64,"Duration":157133,"SoundDuration":157133,"Delta":23343482},{"NoteNumber":75,"Velocity":47,"Duration":104755,"SoundDuration":104755,"Delta":23448238},{"NoteNumber":74,"Velocity":73,"Duration":612729,"SoundDuration":612729,"Delta":23552994},{"NoteNumber":43,"Velocity":52,"Duration":412981,"SoundDuration":412981,"Delta":23552994},{"NoteNumber":55,"Velocity":52,"Duration":412981,"SoundDuration":412981,"Delta":23552994},{"NoteNumber":70,"Velocity":45,"Duration":106617,"SoundDuration":106617,"Delta":23659612},{"NoteNumber":69,"Velocity":50,"Duration":99873,"SoundDuration":99873,"Delta":23766229},{"NoteNumber":67,"Velocity":42,"Duration":99873,"SoundDuration":99873,"Delta":23866103},{"NoteNumber":62,"Velocity":42,"Duration":408530,"SoundDuration":408530,"Delta":23965976},{"NoteNumber":74,"Velocity":62,"Duration":104391,"SoundDuration":104391,"Delta":24165723},{"NoteNumber":79,"Velocity":62,"Duration":156587,"SoundDuration":156587,"Delta":24165723},{"NoteNumber":75,"Velocity":50,"Duration":104391,"SoundDuration":104391,"Delta":24270115},{"NoteNumber":74,"Velocity":77,"Duration":106617,"SoundDuration":106617,"Delta":24374506},{"NoteNumber":78,"Velocity":77,"Duration":615407,"SoundDuration":615407,"Delta":24374506},{"NoteNumber":62,"Velocity":51,"Duration":414321,"SoundDuration":414321,"Delta":24374506},{"NoteNumber":50,"Velocity":51,"Duration":414321,"SoundDuration":414321,"Delta":24374506},{"NoteNumber":72,"Velocity":48,"Duration":106617,"SoundDuration":106617,"Delta":24481124},{"NoteNumber":70,"Velocity":49,"Duration":100542,"SoundDuration":100542,"Delta":24587741},{"NoteNumber":69,"Velocity":49,"Duration":100543,"SoundDuration":100543,"Delta":24688284},{"NoteNumber":62,"Velocity":43,"Duration":415081,"SoundDuration":415081,"Delta":24788827},{"NoteNumber":74,"Velocity":68,"Duration":160496,"SoundDuration":160496,"Delta":24989913},{"NoteNumber":75,"Velocity":49,"Duration":106997,"SoundDuration":106997,"Delta":25096911},{"NoteNumber":74,"Velocity":79,"Duration":614255,"SoundDuration":614255,"Delta":25203909},{"NoteNumber":67,"Velocity":52,"Duration":414508,"SoundDuration":414508,"Delta":25203909},{"NoteNumber":55,"Velocity":52,"Duration":414508,"SoundDuration":414508,"Delta":25203909},{"NoteNumber":70,"Velocity":45,"Duration":107380,"SoundDuration":107380,"Delta":25311290},{"NoteNumber":69,"Velocity":50,"Duration":99873,"SoundDuration":99873,"Delta":25418670},{"NoteNumber":67,"Velocity":42,"Duration":99873,"SoundDuration":99873,"Delta":25518544},{"NoteNumber":62,"Velocity":42,"Duration":408530,"SoundDuration":408530,"Delta":25618417},{"NoteNumber":74,"Velocity":58,"Duration":104391,"SoundDuration":104391,"Delta":25818164},{"NoteNumber":79,"Velocity":58,"Duration":156587,"SoundDuration":156587,"Delta":25818164},{"NoteNumber":75,"Velocity":50,"Duration":104391,"SoundDuration":104391,"Delta":25922556},{"NoteNumber":74,"Velocity":75,"Duration":106617,"SoundDuration":106617,"Delta":26026947},{"NoteNumber":78,"Velocity":75,"Duration":615407,"SoundDuration":615407,"Delta":26026947},{"NoteNumber":62,"Velocity":51,"Duration":414321,"SoundDuration":414321,"Delta":26026947},{"NoteNumber":50,"Velocity":51,"Duration":414321,"SoundDuration":414321,"Delta":26026947},{"NoteNumber":72,"Velocity":48,"Duration":106617,"SoundDuration":106617,"Delta":26133565},{"NoteNumber":70,"Velocity":49,"Duration":100542,"SoundDuration":100542,"Delta":26240182},{"NoteNumber":69,"Velocity":49,"Duration":100543,"SoundDuration":100543,"Delta":26340725},{"NoteNumber":62,"Velocity":43,"Duration":415081,"SoundDuration":415081,"Delta":26441268},{"NoteNumber":74,"Velocity":62,"Duration":213995,"SoundDuration":213995,"Delta":26642354},{"NoteNumber":75,"Velocity":49,"Duration":106997,"SoundDuration":106997,"Delta":26749352},{"NoteNumber":74,"Velocity":74,"Duration":410074,"SoundDuration":410074,"Delta":26856350},{"NoteNumber":43,"Velocity":62,"Duration":410074,"SoundDuration":410074,"Delta":26856350},{"NoteNumber":55,"Velocity":62,"Duration":410074,"SoundDuration":410074,"Delta":26856350},{"NoteNumber":70,"Velocity":45,"Duration":107380,"SoundDuration":107380,"Delta":26963731},{"NoteNumber":69,"Velocity":50,"Duration":97656,"SoundDuration":97656,"Delta":27071111},{"NoteNumber":67,"Velocity":42,"Duration":97656,"SoundDuration":97656,"Delta":27168768},{"NoteNumber":82,"Velocity":75,"Duration":195312,"SoundDuration":195312,"Delta":27266424},{"NoteNumber":62,"Velocity":42,"Duration":404095,"SoundDuration":404095,"Delta":27266424},{"NoteNumber":75,"Velocity":58,"Duration":208783,"SoundDuration":208783,"Delta":27461736},{"NoteNumber":77,"Velocity":50,"Duration":104391,"SoundDuration":104391,"Delta":27566128},{"NoteNumber":75,"Velocity":77,"Duration":410074,"SoundDuration":410074,"Delta":27670519},{"NoteNumber":48,"Velocity":62,"Duration":410074,"SoundDuration":410074,"Delta":27670519},{"NoteNumber":70,"Velocity":45,"Duration":107380,"SoundDuration":107380,"Delta":27777900},{"NoteNumber":69,"Velocity":50,"Duration":97656,"SoundDuration":97656,"Delta":27885281},{"NoteNumber":67,"Velocity":42,"Duration":97656,"SoundDuration":97656,"Delta":27982937},{"NoteNumber":87,"Velocity":83,"Duration":195312,"SoundDuration":195312,"Delta":28080593},{"NoteNumber":60,"Velocity":42,"Duration":417369,"SoundDuration":417369,"Delta":28080593},{"NoteNumber":75,"Velocity":58,"Duration":222057,"SoundDuration":222057,"Delta":28275906},{"NoteNumber":77,"Velocity":50,"Duration":111028,"SoundDuration":111028,"Delta":28386935},{"NoteNumber":75,"Velocity":77,"Duration":409440,"SoundDuration":409440,"Delta":28497963},{"NoteNumber":41,"Velocity":62,"Duration":409440,"SoundDuration":409440,"Delta":28497963},{"NoteNumber":69,"Velocity":45,"Duration":107380,"SoundDuration":107380,"Delta":28605344},{"NoteNumber":67,"Velocity":50,"Duration":97339,"SoundDuration":97339,"Delta":28712725},{"NoteNumber":65,"Velocity":42,"Duration":97339,"SoundDuration":97339,"Delta":28810064},{"NoteNumber":81,"Velocity":65,"Duration":194679,"SoundDuration":194679,"Delta":28907404},{"NoteNumber":60,"Velocity":42,"Duration":403462,"SoundDuration":403462,"Delta":28907404},{"NoteNumber":74,"Velocity":58,"Duration":208783,"SoundDuration":208783,"Delta":29102083},{"NoteNumber":75,"Velocity":50,"Duration":104391,"SoundDuration":104391,"Delta":29206474},{"NoteNumber":74,"Velocity":77,"Duration":414508,"SoundDuration":414508,"Delta":29310866},{"NoteNumber":46,"Velocity":62,"Duration":414508,"SoundDuration":414508,"Delta":29310866},{"NoteNumber":69,"Velocity":45,"Duration":107380,"SoundDuration":107380,"Delta":29418247},{"NoteNumber":67,"Velocity":50,"Duration":99873,"SoundDuration":99873,"Delta":29525627},{"NoteNumber":65,"Velocity":42,"Duration":99873,"SoundDuration":99873,"Delta":29625501},{"NoteNumber":86,"Velocity":80,"Duration":199747,"SoundDuration":199747,"Delta":29725374},{"NoteNumber":58,"Velocity":42,"Duration":408530,"SoundDuration":408530,"Delta":29725374},{"NoteNumber":74,"Velocity":58,"Duration":208783,"SoundDuration":208783,"Delta":29925121},{"NoteNumber":75,"Velocity":50,"Duration":104391,"SoundDuration":104391,"Delta":30029513},{"NoteNumber":74,"Velocity":77,"Duration":414508,"SoundDuration":414508,"Delta":30133904},{"NoteNumber":39,"Velocity":62,"Duration":414508,"SoundDuration":414508,"Delta":30133904},{"NoteNumber":67,"Velocity":45,"Duration":107380,"SoundDuration":107380,"Delta":30241285},{"NoteNumber":65,"Velocity":50,"Duration":99873,"SoundDuration":99873,"Delta":30348666},{"NoteNumber":63,"Velocity":42,"Duration":99873,"SoundDuration":99873,"Delta":30448539},{"NoteNumber":79,"Velocity":69,"Duration":199747,"SoundDuration":199747,"Delta":30548413},{"NoteNumber":58,"Velocity":42,"Duration":423460,"SoundDuration":423460,"Delta":30548413},{"NoteNumber":72,"Velocity":58,"Duration":223713,"SoundDuration":223713,"Delta":30748160},{"NoteNumber":74,"Velocity":50,"Duration":111856,"SoundDuration":111856,"Delta":30860017},{"NoteNumber":72,"Velocity":77,"Duration":414508,"SoundDuration":414508,"Delta":30971873},{"NoteNumber":45,"Velocity":65,"Duration":414508,"SoundDuration":414508,"Delta":30971873},{"NoteNumber":67,"Velocity":45,"Duration":107380,"SoundDuration":107380,"Delta":31079254},{"NoteNumber":65,"Velocity":50,"Duration":99873,"SoundDuration":99873,"Delta":31186635},{"NoteNumber":63,"Velocity":42,"Duration":99873,"SoundDuration":99873,"Delta":31286508},{"NoteNumber":84,"Velocity":83,"Duration":199747,"SoundDuration":199747,"Delta":31386382},{"NoteNumber":57,"Velocity":42,"Duration":408529,"SoundDuration":408529,"Delta":31386382},{"NoteNumber":72,"Velocity":53,"Duration":208782,"SoundDuration":208782,"Delta":31586129},{"NoteNumber":74,"Velocity":46,"Duration":104391,"SoundDuration":104391,"Delta":31690520},{"NoteNumber":72,"Velocity":70,"Duration":414508,"SoundDuration":414508,"Delta":31794912},{"NoteNumber":50,"Velocity":67,"Duration":414508,"SoundDuration":414508,"Delta":31794912},{"NoteNumber":66,"Velocity":41,"Duration":107380,"SoundDuration":107380,"Delta":31902293},{"NoteNumber":64,"Velocity":46,"Duration":99873,"SoundDuration":99873,"Delta":32009673},{"NoteNumber":62,"Velocity":39,"Duration":99873,"SoundDuration":99873,"Delta":32109547},{"NoteNumber":78,"Velocity":68,"Duration":199746,"SoundDuration":199746,"Delta":32209420},{"NoteNumber":57,"Velocity":42,"Duration":408529,"SoundDuration":408529,"Delta":32209420},{"NoteNumber":72,"Velocity":53,"Duration":208782,"SoundDuration":208782,"Delta":32409167},{"NoteNumber":74,"Velocity":46,"Duration":104391,"SoundDuration":104391,"Delta":32513559},{"NoteNumber":72,"Velocity":70,"Duration":414508,"SoundDuration":414508,"Delta":32617950},{"NoteNumber":38,"Velocity":68,"Duration":414508,"SoundDuration":414508,"Delta":32617950},{"NoteNumber":50,"Velocity":68,"Duration":414508,"SoundDuration":414508,"Delta":32617950},{"NoteNumber":66,"Velocity":41,"Duration":107380,"SoundDuration":107380,"Delta":32725331},{"NoteNumber":64,"Velocity":46,"Duration":99873,"SoundDuration":99873,"Delta":32832712},{"NoteNumber":62,"Velocity":39,"Duration":99873,"SoundDuration":99873,"Delta":32932585},{"NoteNumber":84,"Velocity":73,"Duration":199746,"SoundDuration":199746,"Delta":33032459},{"NoteNumber":57,"Velocity":42,"Duration":404809,"SoundDuration":404809,"Delta":33032459},{"NoteNumber":74,"Velocity":62,"Duration":99873,"SoundDuration":99873,"Delta":33337395},{"NoteNumber":79,"Velocity":53,"Duration":33291,"SoundDuration":33291,"Delta":33370686},{"NoteNumber":81,"Velocity":56,"Duration":33291,"SoundDuration":33291,"Delta":33403978},{"NoteNumber":82,"Velocity":79,"Duration":101908,"SoundDuration":101908,"Delta":33437269},{"NoteNumber":50,"Velocity":44,"Duration":203817,"SoundDuration":203817,"Delta":33437269},{"NoteNumber":55,"Velocity":48,"Duration":203817,"SoundDuration":203817,"Delta":33437269},{"NoteNumber":64,"Velocity":55,"Duration":203817,"SoundDuration":203817,"Delta":33437269},{"NoteNumber":73,"Velocity":51,"Duration":101908,"SoundDuration":101908,"Delta":33539178},{"NoteNumber":79,"Velocity":55,"Duration":101908,"SoundDuration":101908,"Delta":33641087},{"NoteNumber":82,"Velocity":55,"Duration":101908,"SoundDuration":101908,"Delta":33742996},{"NoteNumber":81,"Velocity":78,"Duration":101909,"SoundDuration":101909,"Delta":33844905},{"NoteNumber":50,"Velocity":47,"Duration":203818,"SoundDuration":203818,"Delta":33844905},{"NoteNumber":57,"Velocity":50,"Duration":203818,"SoundDuration":203818,"Delta":33844905},{"NoteNumber":66,"Velocity":55,"Duration":203818,"SoundDuration":203818,"Delta":33844905},{"NoteNumber":72,"Velocity":49,"Duration":101908,"SoundDuration":101908,"Delta":33946814},{"NoteNumber":78,"Velocity":55,"Duration":108940,"SoundDuration":108940,"Delta":34048723},{"NoteNumber":81,"Velocity":55,"Duration":108940,"SoundDuration":108940,"Delta":34157663},{"NoteNumber":79,"Velocity":78,"Duration":101564,"SoundDuration":101564,"Delta":34266603},{"NoteNumber":50,"Velocity":42,"Duration":203127,"SoundDuration":203127,"Delta":34266603},{"NoteNumber":58,"Velocity":47,"Duration":203127,"SoundDuration":203127,"Delta":34266603},{"NoteNumber":67,"Velocity":52,"Duration":203127,"SoundDuration":203127,"Delta":34266603},{"NoteNumber":76,"Velocity":61,"Duration":101563,"SoundDuration":101563,"Delta":34368167},{"NoteNumber":73,"Velocity":65,"Duration":101564,"SoundDuration":101564,"Delta":34469731},{"NoteNumber":70,"Velocity":69,"Duration":101563,"SoundDuration":101563,"Delta":34571295},{"NoteNumber":67,"Velocity":61,"Duration":101564,"SoundDuration":101564,"Delta":34672859},{"NoteNumber":64,"Velocity":66,"Duration":101563,"SoundDuration":101563,"Delta":34774423},{"NoteNumber":61,"Velocity":55,"Duration":113045,"SoundDuration":113045,"Delta":34875987},{"NoteNumber":74,"Velocity":64,"Duration":113045,"SoundDuration":113045,"Delta":34989033},{"NoteNumber":58,"Velocity":55,"Duration":113045,"SoundDuration":113045,"Delta":34989033},{"NoteNumber":79,"Velocity":56,"Duration":37681,"SoundDuration":37681,"Delta":35026715},{"NoteNumber":81,"Velocity":58,"Duration":37681,"SoundDuration":37681,"Delta":35064396},{"NoteNumber":82,"Velocity":79,"Duration":101564,"SoundDuration":101564,"Delta":35102078},{"NoteNumber":50,"Velocity":44,"Duration":203127,"SoundDuration":203127,"Delta":35102078},{"NoteNumber":55,"Velocity":48,"Duration":203127,"SoundDuration":203127,"Delta":35102078},{"NoteNumber":64,"Velocity":55,"Duration":203127,"SoundDuration":203127,"Delta":35102078},{"NoteNumber":73,"Velocity":51,"Duration":101563,"SoundDuration":101563,"Delta":35203642},{"NoteNumber":79,"Velocity":55,"Duration":101564,"SoundDuration":101564,"Delta":35305206},{"NoteNumber":82,"Velocity":55,"Duration":101563,"SoundDuration":101563,"Delta":35406770},{"NoteNumber":81,"Velocity":78,"Duration":101564,"SoundDuration":101564,"Delta":35508334},{"NoteNumber":50,"Velocity":47,"Duration":203127,"SoundDuration":203127,"Delta":35508334},{"NoteNumber":57,"Velocity":50,"Duration":203127,"SoundDuration":203127,"Delta":35508334},{"NoteNumber":66,"Velocity":55,"Duration":203127,"SoundDuration":203127,"Delta":35508334},{"NoteNumber":72,"Velocity":49,"Duration":101563,"SoundDuration":101563,"Delta":35609898},{"NoteNumber":78,"Velocity":55,"Duration":108546,"SoundDuration":108546,"Delta":35711462},{"NoteNumber":81,"Velocity":55,"Duration":108546,"SoundDuration":108546,"Delta":35820008},{"NoteNumber":79,"Velocity":78,"Duration":101564,"SoundDuration":101564,"Delta":35928555},{"NoteNumber":50,"Velocity":42,"Duration":203127,"SoundDuration":203127,"Delta":35928555},{"NoteNumber":58,"Velocity":47,"Duration":203127,"SoundDuration":203127,"Delta":35928555},{"NoteNumber":67,"Velocity":52,"Duration":203127,"SoundDuration":203127,"Delta":35928555},{"NoteNumber":76,"Velocity":58,"Duration":101563,"SoundDuration":101563,"Delta":36030119},{"NoteNumber":73,"Velocity":62,"Duration":101564,"SoundDuration":101564,"Delta":36131683},{"NoteNumber":70,"Velocity":65,"Duration":101563,"SoundDuration":101563,"Delta":36233247},{"NoteNumber":67,"Velocity":61,"Duration":101564,"SoundDuration":101564,"Delta":36334811},{"NoteNumber":64,"Velocity":66,"Duration":101563,"SoundDuration":101563,"Delta":36436375},{"NoteNumber":61,"Velocity":55,"Duration":110954,"SoundDuration":110954,"Delta":36537939},{"NoteNumber":70,"Velocity":63,"Duration":110955,"SoundDuration":110955,"Delta":36648894},{"NoteNumber":58,"Velocity":55,"Duration":110955,"SoundDuration":110955,"Delta":36648894},{"NoteNumber":74,"Velocity":51,"Duration":36985,"SoundDuration":36985,"Delta":36685879},{"NoteNumber":50,"Velocity":44,"Duration":410951,"SoundDuration":410951,"Delta":36704371},{"NoteNumber":75,"Velocity":57,"Duration":36985,"SoundDuration":36985,"Delta":36722864},{"NoteNumber":77,"Velocity":78,"Duration":101564,"SoundDuration":101564,"Delta":36759849},{"NoteNumber":59,"Velocity":62,"Duration":355474,"SoundDuration":355474,"Delta":36759849},{"NoteNumber":68,"Velocity":46,"Duration":101563,"SoundDuration":101563,"Delta":36861413},{"NoteNumber":74,"Velocity":51,"Duration":101564,"SoundDuration":101564,"Delta":36962977},{"NoteNumber":77,"Velocity":44,"Duration":101563,"SoundDuration":101563,"Delta":37064541},{"NoteNumber":50,"Velocity":47,"Duration":415559,"SoundDuration":415559,"Delta":37115323},{"NoteNumber":75,"Velocity":72,"Duration":101564,"SoundDuration":101564,"Delta":37166105},{"NoteNumber":60,"Velocity":58,"Duration":364777,"SoundDuration":364777,"Delta":37166105},{"NoteNumber":67,"Velocity":44,"Duration":101563,"SoundDuration":101563,"Delta":37267669},{"NoteNumber":72,"Velocity":50,"Duration":107766,"SoundDuration":107766,"Delta":37369233},{"NoteNumber":75,"Velocity":46,"Duration":107766,"SoundDuration":107766,"Delta":37476999},{"NoteNumber":50,"Velocity":42,"Duration":460139,"SoundDuration":460139,"Delta":37530882},{"NoteNumber":74,"Velocity":72,"Duration":101564,"SoundDuration":101564,"Delta":37584765},{"NoteNumber":62,"Velocity":52,"Duration":406255,"SoundDuration":406255,"Delta":37584765},{"NoteNumber":71,"Velocity":44,"Duration":101563,"SoundDuration":101563,"Delta":37686329},{"NoteNumber":68,"Velocity":49,"Duration":101564,"SoundDuration":101564,"Delta":37787893},{"NoteNumber":65,"Velocity":44,"Duration":101563,"SoundDuration":101563,"Delta":37889457},{"NoteNumber":62,"Velocity":57,"Duration":81251,"SoundDuration":81251,"Delta":37991021},{"NoteNumber":59,"Velocity":56,"Duration":81251,"SoundDuration":81251,"Delta":38072272},{"NoteNumber":56,"Velocity":55,"Duration":86535,"SoundDuration":86535,"Delta":38153524},{"NoteNumber":65,"Velocity":63,"Duration":183640,"SoundDuration":183640,"Delta":38240059},{"NoteNumber":53,"Velocity":55,"Duration":91820,"SoundDuration":91820,"Delta":38240059},{"NoteNumber":68,"Velocity":45,"Duration":61213,"SoundDuration":61213,"Delta":38301273},{"NoteNumber":50,"Velocity":55,"Duration":91820,"SoundDuration":91820,"Delta":38331880},{"NoteNumber":71,"Velocity":56,"Duration":61213,"SoundDuration":61213,"Delta":38362487},{"NoteNumber":72,"Velocity":73,"Duration":102256,"SoundDuration":102256,"Delta":38423700},{"NoteNumber":38,"Velocity":44,"Duration":409025,"SoundDuration":409025,"Delta":38423700},{"NoteNumber":50,"Velocity":55,"Duration":409025,"SoundDuration":409025,"Delta":38423700},{"NoteNumber":63,"Velocity":46,"Duration":102256,"SoundDuration":102256,"Delta":38525957},{"NoteNumber":67,"Velocity":51,"Duration":102256,"SoundDuration":102256,"Delta":38628213},{"NoteNumber":72,"Velocity":44,"Duration":102256,"SoundDuration":102256,"Delta":38730470},{"NoteNumber":69,"Velocity":72,"Duration":104029,"SoundDuration":104029,"Delta":38832726},{"NoteNumber":38,"Velocity":47,"Duration":430792,"SoundDuration":430792,"Delta":38832726},{"NoteNumber":50,"Velocity":55,"Duration":430792,"SoundDuration":430792,"Delta":38832726},{"NoteNumber":60,"Velocity":44,"Duration":104029,"SoundDuration":104029,"Delta":38936756},{"NoteNumber":66,"Velocity":50,"Duration":111366,"SoundDuration":111366,"Delta":39040785},{"NoteNumber":69,"Velocity":46,"Duration":111366,"SoundDuration":111366,"Delta":39152152},{"NoteNumber":67,"Velocity":72,"Duration":87855,"SoundDuration":87855,"Delta":39263519},{"NoteNumber":43,"Velocity":42,"Duration":453509,"SoundDuration":453509,"Delta":39263519},{"NoteNumber":50,"Velocity":52,"Duration":336765,"SoundDuration":336765,"Delta":39263519},{"NoteNumber":62,"Velocity":52,"Duration":89225,"SoundDuration":89225,"Delta":39351374},{"NoteNumber":58,"Velocity":55,"Duration":90712,"SoundDuration":90712,"Delta":39440600},{"NoteNumber":55,"Velocity":58,"Duration":92175,"SoundDuration":92175,"Delta":39531312},{"NoteNumber":50,"Velocity":61,"Duration":93540,"SoundDuration":93540,"Delta":39623488},{"NoteNumber":43,"Velocity":82,"Duration":247934,"SoundDuration":247934,"Delta":39717028},{"NoteNumber":55,"Velocity":60,"Duration":129496,"SoundDuration":129496,"Delta":39964962},{"NoteNumber":54,"Velocity":46,"Duration":107913,"SoundDuration":107913,"Delta":40072876},{"NoteNumber":55,"Velocity":68,"Duration":125000,"SoundDuration":125000,"Delta":40180790},{"NoteNumber":56,"Velocity":50,"Duration":104166,"SoundDuration":104166,"Delta":40284957},{"NoteNumber":53,"Velocity":58,"Duration":125000,"SoundDuration":125000,"Delta":40389123},{"NoteNumber":55,"Velocity":49,"Duration":104166,"SoundDuration":104166,"Delta":40493290},{"NoteNumber":51,"Velocity":60,"Duration":123287,"SoundDuration":123287,"Delta":40597457},{"NoteNumber":53,"Velocity":50,"Duration":102739,"SoundDuration":102739,"Delta":40700197},{"NoteNumber":50,"Velocity":56,"Duration":124400,"SoundDuration":124400,"Delta":40802936},{"NoteNumber":51,"Velocity":48,"Duration":108303,"SoundDuration":108303,"Delta":40905676},{"NoteNumber":48,"Velocity":60,"Duration":102389,"SoundDuration":102389,"Delta":41013979},{"NoteNumber":50,"Velocity":51,"Duration":102388,"SoundDuration":102388,"Delta":41116368},{"NoteNumber":51,"Velocity":51,"Duration":102389,"SoundDuration":102389,"Delta":41218757},{"NoteNumber":55,"Velocity":57,"Duration":102389,"SoundDuration":102389,"Delta":41321146},{"NoteNumber":60,"Velocity":56,"Duration":104529,"SoundDuration":104529,"Delta":41423535},{"NoteNumber":62,"Velocity":60,"Duration":104529,"SoundDuration":104529,"Delta":41528065},{"NoteNumber":63,"Velocity":65,"Duration":103092,"SoundDuration":103092,"Delta":41632594},{"NoteNumber":59,"Velocity":56,"Duration":103092,"SoundDuration":103092,"Delta":41735687},{"NoteNumber":60,"Velocity":67,"Duration":123711,"SoundDuration":123711,"Delta":41838780},{"NoteNumber":59,"Velocity":51,"Duration":103092,"SoundDuration":103092,"Delta":41941873},{"NoteNumber":60,"Velocity":59,"Duration":123711,"SoundDuration":123711,"Delta":42044965},{"NoteNumber":55,"Velocity":51,"Duration":103092,"SoundDuration":103092,"Delta":42148058},{"NoteNumber":56,"Velocity":60,"Duration":122866,"SoundDuration":122866,"Delta":42251151},{"NoteNumber":55,"Velocity":48,"Duration":102388,"SoundDuration":102388,"Delta":42353540},{"NoteNumber":56,"Velocity":54,"Duration":122866,"SoundDuration":122866,"Delta":42455929},{"NoteNumber":52,"Velocity":47,"Duration":102389,"SoundDuration":102389,"Delta":42558318},{"NoteNumber":53,"Velocity":58,"Duration":123287,"SoundDuration":123287,"Delta":42660707},{"NoteNumber":52,"Velocity":50,"Duration":102739,"SoundDuration":102739,"Delta":42763447},{"NoteNumber":53,"Velocity":54,"Duration":124168,"SoundDuration":124168,"Delta":42866186},{"NoteNumber":50,"Velocity":48,"Duration":107142,"SoundDuration":107142,"Delta":42968926},{"NoteNumber":55,"Velocity":57,"Duration":102739,"SoundDuration":102739,"Delta":43076069},{"NoteNumber":53,"Velocity":56,"Duration":102739,"SoundDuration":102739,"Delta":43178809},{"NoteNumber":60,"Velocity":54,"Duration":104529,"SoundDuration":104529,"Delta":43281548},{"NoteNumber":51,"Velocity":55,"Duration":104529,"SoundDuration":104529,"Delta":43281548},{"NoteNumber":59,"Velocity":41,"Duration":104529,"SoundDuration":104529,"Delta":43386078},{"NoteNumber":50,"Velocity":54,"Duration":104529,"SoundDuration":104529,"Delta":43386078},{"NoteNumber":60,"Velocity":61,"Duration":123287,"SoundDuration":123287,"Delta":43490607},{"NoteNumber":51,"Velocity":55,"Duration":205479,"SoundDuration":205479,"Delta":43490607},{"NoteNumber":62,"Velocity":45,"Duration":102739,"SoundDuration":102739,"Delta":43593347},{"NoteNumber":60,"Velocity":52,"Duration":123287,"SoundDuration":123287,"Delta":43696087},{"NoteNumber":51,"Velocity":53,"Duration":102739,"SoundDuration":102739,"Delta":43696087},{"NoteNumber":62,"Velocity":44,"Duration":102739,"SoundDuration":102739,"Delta":43798827},{"NoteNumber":58,"Velocity":54,"Duration":122866,"SoundDuration":122866,"Delta":43901566},{"NoteNumber":50,"Velocity":59,"Duration":102389,"SoundDuration":102389,"Delta":43901566},{"NoteNumber":60,"Velocity":45,"Duration":102388,"SoundDuration":102388,"Delta":44003955},{"NoteNumber":57,"Velocity":50,"Duration":123515,"SoundDuration":123515,"Delta":44106344},{"NoteNumber":48,"Velocity":53,"Duration":102389,"SoundDuration":102389,"Delta":44106344},{"NoteNumber":58,"Velocity":43,"Duration":105633,"SoundDuration":105633,"Delta":44208733},{"NoteNumber":55,"Velocity":54,"Duration":102739,"SoundDuration":102739,"Delta":44314367},{"NoteNumber":46,"Velocity":59,"Duration":616438,"SoundDuration":616438,"Delta":44314367},{"NoteNumber":57,"Velocity":45,"Duration":102739,"SoundDuration":102739,"Delta":44417107},{"NoteNumber":58,"Velocity":45,"Duration":102739,"SoundDuration":102739,"Delta":44519847},{"NoteNumber":62,"Velocity":51,"Duration":102739,"SoundDuration":102739,"Delta":44622586},{"NoteNumber":67,"Velocity":50,"Duration":102739,"SoundDuration":102739,"Delta":44725326},{"NoteNumber":69,"Velocity":54,"Duration":102739,"SoundDuration":102739,"Delta":44828066},{"NoteNumber":70,"Velocity":58,"Duration":102739,"SoundDuration":102739,"Delta":44930806},{"NoteNumber":45,"Velocity":53,"Duration":209122,"SoundDuration":209122,"Delta":44930806},{"NoteNumber":66,"Velocity":50,"Duration":106383,"SoundDuration":106383,"Delta":45033545},{"NoteNumber":67,"Velocity":60,"Duration":123287,"SoundDuration":123287,"Delta":45139928},{"NoteNumber":46,"Velocity":61,"Duration":205479,"SoundDuration":205479,"Delta":45139928},{"NoteNumber":66,"Velocity":45,"Duration":102739,"SoundDuration":102739,"Delta":45242668},{"NoteNumber":67,"Velocity":53,"Duration":123287,"SoundDuration":123287,"Delta":45345408},{"NoteNumber":47,"Velocity":55,"Duration":102739,"SoundDuration":102739,"Delta":45345408},{"NoteNumber":62,"Velocity":45,"Duration":102739,"SoundDuration":102739,"Delta":45448148},{"NoteNumber":63,"Velocity":54,"Duration":124567,"SoundDuration":124567,"Delta":45550887},{"NoteNumber":48,"Velocity":61,"Duration":103806,"SoundDuration":103806,"Delta":45550887},{"NoteNumber":62,"Velocity":43,"Duration":103806,"SoundDuration":103806,"Delta":45654694},{"NoteNumber":63,"Velocity":48,"Duration":125082,"SoundDuration":125082,"Delta":45758500},{"NoteNumber":50,"Velocity":55,"Duration":103806,"SoundDuration":103806,"Delta":45758500},{"NoteNumber":59,"Velocity":42,"Duration":106383,"SoundDuration":106383,"Delta":45862306},{"NoteNumber":60,"Velocity":52,"Duration":124567,"SoundDuration":124567,"Delta":45968689},{"NoteNumber":51,"Velocity":65,"Duration":103806,"SoundDuration":103806,"Delta":45968689},{"NoteNumber":59,"Velocity":45,"Duration":103806,"SoundDuration":103806,"Delta":46072495},{"NoteNumber":60,"Velocity":48,"Duration":124567,"SoundDuration":124567,"Delta":46176302},{"NoteNumber":48,"Velocity":55,"Duration":103806,"SoundDuration":103806,"Delta":46176302},{"NoteNumber":55,"Velocity":43,"Duration":103806,"SoundDuration":103806,"Delta":46280108},{"NoteNumber":59,"Velocity":51,"Duration":124567,"SoundDuration":124567,"Delta":46383914},{"NoteNumber":50,"Velocity":55,"Duration":103806,"SoundDuration":103806,"Delta":46383914},{"NoteNumber":55,"Velocity":50,"Duration":103806,"SoundDuration":103806,"Delta":46487720},{"NoteNumber":67,"Velocity":66,"Duration":126760,"SoundDuration":126760,"Delta":46591527},{"NoteNumber":53,"Velocity":58,"Duration":126760,"SoundDuration":126760,"Delta":46591527},{"NoteNumber":66,"Velocity":50,"Duration":105633,"SoundDuration":105633,"Delta":46697160},{"NoteNumber":50,"Velocity":52,"Duration":105633,"SoundDuration":105633,"Delta":46697160},{"NoteNumber":67,"Velocity":74,"Duration":124567,"SoundDuration":124567,"Delta":46802794},{"NoteNumber":51,"Velocity":64,"Duration":207612,"SoundDuration":207612,"Delta":46802794},{"NoteNumber":68,"Velocity":55,"Duration":103806,"SoundDuration":103806,"Delta":46906600},{"NoteNumber":65,"Velocity":63,"Duration":124567,"SoundDuration":124567,"Delta":47010407},{"NoteNumber":38,"Velocity":55,"Duration":103806,"SoundDuration":103806,"Delta":47010407},{"NoteNumber":50,"Velocity":55,"Duration":103806,"SoundDuration":103806,"Delta":47010407},{"NoteNumber":67,"Velocity":53,"Duration":103806,"SoundDuration":103806,"Delta":47114213},{"NoteNumber":63,"Velocity":66,"Duration":127940,"SoundDuration":127940,"Delta":47218019},{"NoteNumber":36,"Velocity":61,"Duration":106617,"SoundDuration":106617,"Delta":47218019},{"NoteNumber":48,"Velocity":61,"Duration":106617,"SoundDuration":106617,"Delta":47218019},{"NoteNumber":65,"Velocity":55,"Duration":106617,"SoundDuration":106617,"Delta":47324637},{"NoteNumber":62,"Velocity":61,"Duration":129751,"SoundDuration":129751,"Delta":47431254},{"NoteNumber":34,"Velocity":55,"Duration":107142,"SoundDuration":107142,"Delta":47431254},{"NoteNumber":46,"Velocity":55,"Duration":107142,"SoundDuration":107142,"Delta":47431254},{"NoteNumber":63,"Velocity":52,"Duration":113045,"SoundDuration":113045,"Delta":47538397},{"NoteNumber":60,"Velocity":66,"Duration":113045,"SoundDuration":113045,"Delta":47651442},{"NoteNumber":33,"Velocity":66,"Duration":640509,"SoundDuration":640509,"Delta":47651442},{"NoteNumber":45,"Velocity":66,"Duration":640509,"SoundDuration":640509,"Delta":47651442},{"NoteNumber":62,"Velocity":56,"Duration":105492,"SoundDuration":105492,"Delta":47764488},{"NoteNumber":63,"Velocity":56,"Duration":105492,"SoundDuration":105492,"Delta":47869981},{"NoteNumber":67,"Velocity":62,"Duration":105492,"SoundDuration":105492,"Delta":47975473},{"NoteNumber":72,"Velocity":61,"Duration":105492,"SoundDuration":105492,"Delta":48080966},{"NoteNumber":74,"Velocity":66,"Duration":105492,"SoundDuration":105492,"Delta":48186459},{"NoteNumber":75,"Velocity":71,"Duration":113903,"SoundDuration":113903,"Delta":48291952},{"NoteNumber":33,"Velocity":56,"Duration":226949,"SoundDuration":226949,"Delta":48291952},{"NoteNumber":45,"Velocity":56,"Duration":226949,"SoundDuration":226949,"Delta":48291952},{"NoteNumber":66,"Velocity":61,"Duration":113045,"SoundDuration":113045,"Delta":48405855},{"NoteNumber":74,"Velocity":73,"Duration":112620,"SoundDuration":112620,"Delta":48518901},{"NoteNumber":34,"Velocity":61,"Duration":450484,"SoundDuration":450484,"Delta":48518901},{"NoteNumber":46,"Velocity":61,"Duration":450484,"SoundDuration":450484,"Delta":48518901},{"NoteNumber":67,"Velocity":56,"Duration":112621,"SoundDuration":112621,"Delta":48631522},{"NoteNumber":70,"Velocity":64,"Duration":112620,"SoundDuration":112620,"Delta":48744143},{"NoteNumber":74,"Velocity":56,"Duration":112621,"SoundDuration":112621,"Delta":48856764},{"NoteNumber":72,"Velocity":66,"Duration":112620,"SoundDuration":112620,"Delta":48969385},{"NoteNumber":36,"Velocity":60,"Duration":452789,"SoundDuration":452789,"Delta":48969385},{"NoteNumber":48,"Velocity":60,"Duration":452789,"SoundDuration":452789,"Delta":48969385},{"NoteNumber":63,"Velocity":52,"Duration":112620,"SoundDuration":112620,"Delta":49082006},{"NoteNumber":69,"Velocity":59,"Duration":112691,"SoundDuration":112691,"Delta":49194627},{"NoteNumber":72,"Velocity":51,"Duration":114856,"SoundDuration":114856,"Delta":49307319},{"NoteNumber":66,"Velocity":63,"Duration":118407,"SoundDuration":118407,"Delta":49422175},{"NoteNumber":38,"Velocity":63,"Duration":575784,"SoundDuration":575784,"Delta":49422175},{"NoteNumber":50,"Velocity":63,"Duration":575784,"SoundDuration":575784,"Delta":49422175},{"NoteNumber":60,"Velocity":55,"Duration":122104,"SoundDuration":122104,"Delta":49540583},{"NoteNumber":62,"Velocity":59,"Duration":126038,"SoundDuration":126038,"Delta":49662687},{"NoteNumber":66,"Velocity":52,"Duration":209234,"SoundDuration":209234,"Delta":49788725},{"NoteNumber":59,"Velocity":59,"Duration":287935,"SoundDuration":287935,"Delta":49997960},{"NoteNumber":67,"Velocity":70,"Duration":287935,"SoundDuration":287935,"Delta":49997960},{"NoteNumber":43,"Velocity":54,"Duration":287935,"SoundDuration":287935,"Delta":49997960},{"NoteNumber":50,"Velocity":64,"Duration":287935,"SoundDuration":287935,"Delta":49997960},{"NoteNumber":55,"Velocity":60,"Duration":129496,"SoundDuration":129496,"Delta":50285895},{"NoteNumber":54,"Velocity":46,"Duration":107913,"SoundDuration":107913,"Delta":50393809},{"NoteNumber":55,"Velocity":68,"Duration":125000,"SoundDuration":125000,"Delta":50501723},{"NoteNumber":56,"Velocity":50,"Duration":104166,"SoundDuration":104166,"Delta":50605889},{"NoteNumber":53,"Velocity":58,"Duration":125000,"SoundDuration":125000,"Delta":50710056},{"NoteNumber":55,"Velocity":49,"Duration":104166,"SoundDuration":104166,"Delta":50814223},{"NoteNumber":51,"Velocity":60,"Duration":123287,"SoundDuration":123287,"Delta":50918390},{"NoteNumber":53,"Velocity":50,"Duration":102739,"SoundDuration":102739,"Delta":51021129},{"NoteNumber":50,"Velocity":56,"Duration":124400,"SoundDuration":124400,"Delta":51123869},{"NoteNumber":51,"Velocity":48,"Duration":108303,"SoundDuration":108303,"Delta":51226609},{"NoteNumber":48,"Velocity":60,"Duration":102389,"SoundDuration":102389,"Delta":51334912},{"NoteNumber":50,"Velocity":51,"Duration":102388,"SoundDuration":102388,"Delta":51437301},{"NoteNumber":51,"Velocity":51,"Duration":102389,"SoundDuration":102389,"Delta":51539690},{"NoteNumber":55,"Velocity":57,"Duration":102389,"SoundDuration":102389,"Delta":51642079},{"NoteNumber":60,"Velocity":56,"Duration":104529,"SoundDuration":104529,"Delta":51744468},{"NoteNumber":62,"Velocity":60,"Duration":104529,"SoundDuration":104529,"Delta":51848998},{"NoteNumber":63,"Velocity":65,"Duration":103092,"SoundDuration":103092,"Delta":51953527},{"NoteNumber":59,"Velocity":56,"Duration":103092,"SoundDuration":103092,"Delta":52056620},{"NoteNumber":60,"Velocity":67,"Duration":123711,"SoundDuration":123711,"Delta":52159713},{"NoteNumber":59,"Velocity":51,"Duration":103092,"SoundDuration":103092,"Delta":52262805},{"NoteNumber":60,"Velocity":59,"Duration":123711,"SoundDuration":123711,"Delta":52365898},{"NoteNumber":55,"Velocity":51,"Duration":103092,"SoundDuration":103092,"Delta":52468991},{"NoteNumber":56,"Velocity":60,"Duration":122866,"SoundDuration":122866,"Delta":52572084},{"NoteNumber":55,"Velocity":48,"Duration":102388,"SoundDuration":102388,"Delta":52674473},{"NoteNumber":56,"Velocity":54,"Duration":122866,"SoundDuration":122866,"Delta":52776862},{"NoteNumber":52,"Velocity":47,"Duration":102389,"SoundDuration":102389,"Delta":52879251},{"NoteNumber":53,"Velocity":58,"Duration":123287,"SoundDuration":123287,"Delta":52981640},{"NoteNumber":52,"Velocity":50,"Duration":102739,"SoundDuration":102739,"Delta":53084379},{"NoteNumber":53,"Velocity":54,"Duration":124168,"SoundDuration":124168,"Delta":53187119},{"NoteNumber":50,"Velocity":48,"Duration":107142,"SoundDuration":107142,"Delta":53289859},{"NoteNumber":55,"Velocity":57,"Duration":102739,"SoundDuration":102739,"Delta":53397002},{"NoteNumber":53,"Velocity":56,"Duration":102739,"SoundDuration":102739,"Delta":53499741},{"NoteNumber":60,"Velocity":54,"Duration":104529,"SoundDuration":104529,"Delta":53602481},{"NoteNumber":51,"Velocity":55,"Duration":104529,"SoundDuration":104529,"Delta":53602481},{"NoteNumber":59,"Velocity":41,"Duration":104529,"SoundDuration":104529,"Delta":53707011},{"NoteNumber":50,"Velocity":54,"Duration":104529,"SoundDuration":104529,"Delta":53707011},{"NoteNumber":60,"Velocity":61,"Duration":123287,"SoundDuration":123287,"Delta":53811540},{"NoteNumber":51,"Velocity":55,"Duration":205479,"SoundDuration":205479,"Delta":53811540},{"NoteNumber":62,"Velocity":45,"Duration":102739,"SoundDuration":102739,"Delta":53914280},{"NoteNumber":60,"Velocity":52,"Duration":123287,"SoundDuration":123287,"Delta":54017020},{"NoteNumber":51,"Velocity":53,"Duration":102739,"SoundDuration":102739,"Delta":54017020},{"NoteNumber":62,"Velocity":44,"Duration":102739,"SoundDuration":102739,"Delta":54119759},{"NoteNumber":58,"Velocity":54,"Duration":122866,"SoundDuration":122866,"Delta":54222499},{"NoteNumber":50,"Velocity":59,"Duration":102389,"SoundDuration":102389,"Delta":54222499},{"NoteNumber":60,"Velocity":45,"Duration":102388,"SoundDuration":102388,"Delta":54324888},{"NoteNumber":57,"Velocity":50,"Duration":123515,"SoundDuration":123515,"Delta":54427277},{"NoteNumber":48,"Velocity":53,"Duration":102389,"SoundDuration":102389,"Delta":54427277},{"NoteNumber":58,"Velocity":43,"Duration":105633,"SoundDuration":105633,"Delta":54529666},{"NoteNumber":55,"Velocity":54,"Duration":102739,"SoundDuration":102739,"Delta":54635300},{"NoteNumber":46,"Velocity":59,"Duration":616438,"SoundDuration":616438,"Delta":54635300},{"NoteNumber":57,"Velocity":45,"Duration":102739,"SoundDuration":102739,"Delta":54738040},{"NoteNumber":58,"Velocity":45,"Duration":102739,"SoundDuration":102739,"Delta":54840779},{"NoteNumber":62,"Velocity":51,"Duration":102739,"SoundDuration":102739,"Delta":54943519},{"NoteNumber":67,"Velocity":50,"Duration":102739,"SoundDuration":102739,"Delta":55046259},{"NoteNumber":69,"Velocity":54,"Duration":102739,"SoundDuration":102739,"Delta":55148999},{"NoteNumber":70,"Velocity":58,"Duration":102739,"SoundDuration":102739,"Delta":55251738},{"NoteNumber":45,"Velocity":53,"Duration":209122,"SoundDuration":209122,"Delta":55251738},{"NoteNumber":66,"Velocity":50,"Duration":106383,"SoundDuration":106383,"Delta":55354478},{"NoteNumber":67,"Velocity":60,"Duration":123287,"SoundDuration":123287,"Delta":55460861},{"NoteNumber":46,"Velocity":61,"Duration":205479,"SoundDuration":205479,"Delta":55460861},{"NoteNumber":66,"Velocity":45,"Duration":102739,"SoundDuration":102739,"Delta":55563601},{"NoteNumber":67,"Velocity":53,"Duration":123287,"SoundDuration":123287,"Delta":55666341},{"NoteNumber":47,"Velocity":55,"Duration":102739,"SoundDuration":102739,"Delta":55666341},{"NoteNumber":62,"Velocity":45,"Duration":102739,"SoundDuration":102739,"Delta":55769080},{"NoteNumber":63,"Velocity":54,"Duration":124567,"SoundDuration":124567,"Delta":55871820},{"NoteNumber":48,"Velocity":61,"Duration":103806,"SoundDuration":103806,"Delta":55871820},{"NoteNumber":62,"Velocity":43,"Duration":103806,"SoundDuration":103806,"Delta":55975626},{"NoteNumber":63,"Velocity":48,"Duration":125082,"SoundDuration":125082,"Delta":56079433},{"NoteNumber":50,"Velocity":55,"Duration":103806,"SoundDuration":103806,"Delta":56079433},{"NoteNumber":59,"Velocity":42,"Duration":106383,"SoundDuration":106383,"Delta":56183239},{"NoteNumber":60,"Velocity":52,"Duration":124567,"SoundDuration":124567,"Delta":56289622},{"NoteNumber":51,"Velocity":65,"Duration":103806,"SoundDuration":103806,"Delta":56289622},{"NoteNumber":59,"Velocity":45,"Duration":103806,"SoundDuration":103806,"Delta":56393428},{"NoteNumber":60,"Velocity":48,"Duration":124567,"SoundDuration":124567,"Delta":56497234},{"NoteNumber":48,"Velocity":55,"Duration":103806,"SoundDuration":103806,"Delta":56497234},{"NoteNumber":55,"Velocity":43,"Duration":103806,"SoundDuration":103806,"Delta":56601041},{"NoteNumber":59,"Velocity":51,"Duration":124567,"SoundDuration":124567,"Delta":56704847},{"NoteNumber":50,"Velocity":55,"Duration":103806,"SoundDuration":103806,"Delta":56704847},{"NoteNumber":55,"Velocity":50,"Duration":103806,"SoundDuration":103806,"Delta":56808653},{"NoteNumber":67,"Velocity":66,"Duration":126760,"SoundDuration":126760,"Delta":56912459},{"NoteNumber":53,"Velocity":58,"Duration":126760,"SoundDuration":126760,"Delta":56912459},{"NoteNumber":66,"Velocity":50,"Duration":105633,"SoundDuration":105633,"Delta":57018093},{"NoteNumber":50,"Velocity":52,"Duration":105633,"SoundDuration":105633,"Delta":57018093},{"NoteNumber":67,"Velocity":74,"Duration":124567,"SoundDuration":124567,"Delta":57123727},{"NoteNumber":51,"Velocity":64,"Duration":207612,"SoundDuration":207612,"Delta":57123727},{"NoteNumber":68,"Velocity":55,"Duration":103806,"SoundDuration":103806,"Delta":57227533},{"NoteNumber":65,"Velocity":63,"Duration":124567,"SoundDuration":124567,"Delta":57331339},{"NoteNumber":38,"Velocity":55,"Duration":103806,"SoundDuration":103806,"Delta":57331339},{"NoteNumber":50,"Velocity":55,"Duration":103806,"SoundDuration":103806,"Delta":57331339},{"NoteNumber":67,"Velocity":53,"Duration":103806,"SoundDuration":103806,"Delta":57435146},{"NoteNumber":63,"Velocity":66,"Duration":127940,"SoundDuration":127940,"Delta":57538952},{"NoteNumber":36,"Velocity":61,"Duration":106617,"SoundDuration":106617,"Delta":57538952},{"NoteNumber":48,"Velocity":61,"Duration":106617,"SoundDuration":106617,"Delta":57538952},{"NoteNumber":65,"Velocity":55,"Duration":106617,"SoundDuration":106617,"Delta":57645569},{"NoteNumber":62,"Velocity":61,"Duration":129751,"SoundDuration":129751,"Delta":57752187},{"NoteNumber":34,"Velocity":55,"Duration":107142,"SoundDuration":107142,"Delta":57752187},{"NoteNumber":46,"Velocity":55,"Duration":107142,"SoundDuration":107142,"Delta":57752187},{"NoteNumber":63,"Velocity":52,"Duration":113045,"SoundDuration":113045,"Delta":57859330},{"NoteNumber":60,"Velocity":66,"Duration":113045,"SoundDuration":113045,"Delta":57972375},{"NoteNumber":33,"Velocity":66,"Duration":640509,"SoundDuration":640509,"Delta":57972375},{"NoteNumber":45,"Velocity":66,"Duration":640509,"SoundDuration":640509,"Delta":57972375},{"NoteNumber":62,"Velocity":56,"Duration":105492,"SoundDuration":105492,"Delta":58085421},{"NoteNumber":63,"Velocity":56,"Duration":105492,"SoundDuration":105492,"Delta":58190913},{"NoteNumber":67,"Velocity":62,"Duration":105492,"SoundDuration":105492,"Delta":58296406},{"NoteNumber":72,"Velocity":61,"Duration":105492,"SoundDuration":105492,"Delta":58401899},{"NoteNumber":74,"Velocity":66,"Duration":105492,"SoundDuration":105492,"Delta":58507392},{"NoteNumber":75,"Velocity":71,"Duration":113903,"SoundDuration":113903,"Delta":58612884},{"NoteNumber":33,"Velocity":56,"Duration":226949,"SoundDuration":226949,"Delta":58612884},{"NoteNumber":45,"Velocity":56,"Duration":226949,"SoundDuration":226949,"Delta":58612884},{"NoteNumber":66,"Velocity":61,"Duration":113045,"SoundDuration":113045,"Delta":58726788},{"NoteNumber":74,"Velocity":73,"Duration":112620,"SoundDuration":112620,"Delta":58839834},{"NoteNumber":34,"Velocity":61,"Duration":450484,"SoundDuration":450484,"Delta":58839834},{"NoteNumber":46,"Velocity":61,"Duration":450484,"SoundDuration":450484,"Delta":58839834},{"NoteNumber":67,"Velocity":56,"Duration":112621,"SoundDuration":112621,"Delta":58952455},{"NoteNumber":70,"Velocity":64,"Duration":112620,"SoundDuration":112620,"Delta":59065076},{"NoteNumber":74,"Velocity":56,"Duration":112621,"SoundDuration":112621,"Delta":59177697},{"NoteNumber":72,"Velocity":66,"Duration":112620,"SoundDuration":112620,"Delta":59290318},{"NoteNumber":36,"Velocity":60,"Duration":452789,"SoundDuration":452789,"Delta":59290318},{"NoteNumber":48,"Velocity":60,"Duration":452789,"SoundDuration":452789,"Delta":59290318},{"NoteNumber":63,"Velocity":52,"Duration":112620,"SoundDuration":112620,"Delta":59402939},{"NoteNumber":69,"Velocity":59,"Duration":112691,"SoundDuration":112691,"Delta":59515560},{"NoteNumber":72,"Velocity":51,"Duration":114856,"SoundDuration":114856,"Delta":59628251},{"NoteNumber":66,"Velocity":63,"Duration":118407,"SoundDuration":118407,"Delta":59743107},{"NoteNumber":38,"Velocity":63,"Duration":575784,"SoundDuration":575784,"Delta":59743107},{"NoteNumber":50,"Velocity":63,"Duration":575784,"SoundDuration":575784,"Delta":59743107},{"NoteNumber":60,"Velocity":55,"Duration":122104,"SoundDuration":122104,"Delta":59861515},{"NoteNumber":62,"Velocity":59,"Duration":126038,"SoundDuration":126038,"Delta":59983620},{"NoteNumber":66,"Velocity":52,"Duration":209234,"SoundDuration":209234,"Delta":60109658},{"NoteNumber":59,"Velocity":59,"Duration":295014,"SoundDuration":295014,"Delta":60318892},{"NoteNumber":67,"Velocity":70,"Duration":295014,"SoundDuration":295014,"Delta":60318892},{"NoteNumber":43,"Velocity":54,"Duration":295014,"SoundDuration":295014,"Delta":60318892},{"NoteNumber":50,"Velocity":64,"Duration":295014,"SoundDuration":295014,"Delta":60318892},{"NoteNumber":72,"Velocity":54,"Duration":104529,"SoundDuration":104529,"Delta":60613907},{"NoteNumber":71,"Velocity":41,"Duration":104529,"SoundDuration":104529,"Delta":60718436},{"NoteNumber":72,"Velocity":61,"Duration":105865,"SoundDuration":105865,"Delta":60822966},{"NoteNumber":36,"Velocity":66,"Duration":211730,"SoundDuration":211730,"Delta":60822966},{"NoteNumber":73,"Velocity":45,"Duration":105865,"SoundDuration":105865,"Delta":60928831},{"NoteNumber":70,"Velocity":52,"Duration":105864,"SoundDuration":105864,"Delta":61034696},{"NoteNumber":48,"Velocity":63,"Duration":416507,"SoundDuration":416507,"Delta":61034696},{"NoteNumber":72,"Velocity":44,"Duration":105865,"SoundDuration":105865,"Delta":61140561},{"NoteNumber":68,"Velocity":54,"Duration":102389,"SoundDuration":102389,"Delta":61246426},{"NoteNumber":70,"Velocity":45,"Duration":102388,"SoundDuration":102388,"Delta":61348815},{"NoteNumber":67,"Velocity":50,"Duration":102389,"SoundDuration":102389,"Delta":61451204},{"NoteNumber":52,"Velocity":65,"Duration":208022,"SoundDuration":208022,"Delta":61451204},{"NoteNumber":68,"Velocity":43,"Duration":105633,"SoundDuration":105633,"Delta":61553593},{"NoteNumber":65,"Velocity":54,"Duration":102739,"SoundDuration":102739,"Delta":61659227},{"NoteNumber":53,"Velocity":70,"Duration":1046313,"SoundDuration":1046313,"Delta":61659227},{"NoteNumber":67,"Velocity":45,"Duration":102739,"SoundDuration":102739,"Delta":61761966},{"NoteNumber":68,"Velocity":45,"Duration":102739,"SoundDuration":102739,"Delta":61864706},{"NoteNumber":41,"Velocity":63,"Duration":410958,"SoundDuration":410958,"Delta":61864706},{"NoteNumber":72,"Velocity":51,"Duration":102739,"SoundDuration":102739,"Delta":61967446},{"NoteNumber":77,"Velocity":50,"Duration":102739,"SoundDuration":102739,"Delta":62070186},{"NoteNumber":79,"Velocity":54,"Duration":102739,"SoundDuration":102739,"Delta":62172925},{"NoteNumber":80,"Velocity":58,"Duration":102739,"SoundDuration":102739,"Delta":62275665},{"NoteNumber":44,"Velocity":63,"Duration":209122,"SoundDuration":209122,"Delta":62275665},{"NoteNumber":75,"Velocity":50,"Duration":106383,"SoundDuration":106383,"Delta":62378405},{"NoteNumber":74,"Velocity":60,"Duration":110619,"SoundDuration":110619,"Delta":62484788},{"NoteNumber":46,"Velocity":71,"Duration":1070901,"SoundDuration":1070901,"Delta":62484788},{"NoteNumber":75,"Velocity":45,"Duration":110132,"SoundDuration":110132,"Delta":62595407},{"NoteNumber":72,"Velocity":53,"Duration":109515,"SoundDuration":109515,"Delta":62705540},{"NoteNumber":53,"Velocity":63,"Duration":218501,"SoundDuration":218501,"Delta":62705540},{"NoteNumber":74,"Velocity":45,"Duration":108985,"SoundDuration":108985,"Delta":62815056},{"NoteNumber":70,"Velocity":54,"Duration":107733,"SoundDuration":107733,"Delta":62924041},{"NoteNumber":55,"Velocity":68,"Duration":214698,"SoundDuration":214698,"Delta":62924041},{"NoteNumber":72,"Velocity":43,"Duration":106965,"SoundDuration":106965,"Delta":63031775},{"NoteNumber":69,"Velocity":48,"Duration":106132,"SoundDuration":106132,"Delta":63138740},{"NoteNumber":57,"Velocity":69,"Duration":211469,"SoundDuration":211469,"Delta":63138740},{"NoteNumber":70,"Velocity":42,"Duration":105337,"SoundDuration":105337,"Delta":63244873},{"NoteNumber":67,"Velocity":54,"Duration":102739,"SoundDuration":102739,"Delta":63350210},{"NoteNumber":58,"Velocity":70,"Duration":1045775,"SoundDuration":1045775,"Delta":63350210},{"NoteNumber":69,"Velocity":48,"Duration":102739,"SoundDuration":102739,"Delta":63452950},{"NoteNumber":70,"Velocity":48,"Duration":102739,"SoundDuration":102739,"Delta":63555689},{"NoteNumber":46,"Velocity":63,"Duration":410959,"SoundDuration":410959,"Delta":63555689},{"NoteNumber":74,"Velocity":51,"Duration":102739,"SoundDuration":102739,"Delta":63658429},{"NoteNumber":79,"Velocity":50,"Duration":102739,"SoundDuration":102739,"Delta":63761169},{"NoteNumber":81,"Velocity":54,"Duration":102739,"SoundDuration":102739,"Delta":63863909},{"NoteNumber":82,"Velocity":58,"Duration":102739,"SoundDuration":102739,"Delta":63966648},{"NoteNumber":50,"Velocity":63,"Duration":209122,"SoundDuration":209122,"Delta":63966648},{"NoteNumber":78,"Velocity":50,"Duration":106382,"SoundDuration":106382,"Delta":64069388},{"NoteNumber":79,"Velocity":60,"Duration":110511,"SoundDuration":110511,"Delta":64175771},{"NoteNumber":51,"Velocity":71,"Duration":1060315,"SoundDuration":1060315,"Delta":64175771},{"NoteNumber":80,"Velocity":53,"Duration":109703,"SoundDuration":109703,"Delta":64286282},{"NoteNumber":77,"Velocity":60,"Duration":108827,"SoundDuration":108827,"Delta":64395986},{"NoteNumber":59,"Velocity":63,"Duration":216820,"SoundDuration":216820,"Delta":64395986},{"NoteNumber":79,"Velocity":51,"Duration":107992,"SoundDuration":107992,"Delta":64504813},{"NoteNumber":75,"Velocity":61,"Duration":103806,"SoundDuration":103806,"Delta":64612806},{"NoteNumber":60,"Velocity":68,"Duration":207612,"SoundDuration":207612,"Delta":64612806},{"NoteNumber":77,"Velocity":50,"Duration":103806,"SoundDuration":103806,"Delta":64716612},{"NoteNumber":74,"Velocity":55,"Duration":103806,"SoundDuration":103806,"Delta":64820418},{"NoteNumber":62,"Velocity":69,"Duration":210189,"SoundDuration":210189,"Delta":64820418},{"NoteNumber":75,"Velocity":52,"Duration":106382,"SoundDuration":106382,"Delta":64924225},{"NoteNumber":72,"Velocity":61,"Duration":102739,"SoundDuration":102739,"Delta":65030608},{"NoteNumber":63,"Velocity":70,"Duration":1042653,"SoundDuration":1042653,"Delta":65030608},{"NoteNumber":74,"Velocity":50,"Duration":102739,"SoundDuration":102739,"Delta":65133347},{"NoteNumber":75,"Velocity":50,"Duration":102739,"SoundDuration":102739,"Delta":65236087},{"NoteNumber":51,"Velocity":63,"Duration":410959,"SoundDuration":410959,"Delta":65236087},{"NoteNumber":79,"Velocity":55,"Duration":102739,"SoundDuration":102739,"Delta":65338827},{"NoteNumber":84,"Velocity":56,"Duration":102739,"SoundDuration":102739,"Delta":65441567},{"NoteNumber":86,"Velocity":60,"Duration":102739,"SoundDuration":102739,"Delta":65544306},{"NoteNumber":87,"Velocity":65,"Duration":102739,"SoundDuration":102739,"Delta":65647046},{"NoteNumber":55,"Velocity":63,"Duration":209122,"SoundDuration":209122,"Delta":65647046},{"NoteNumber":83,"Velocity":56,"Duration":106382,"SoundDuration":106382,"Delta":65749786},{"NoteNumber":84,"Velocity":71,"Duration":108546,"SoundDuration":108546,"Delta":65856169},{"NoteNumber":56,"Velocity":75,"Duration":434184,"SoundDuration":434184,"Delta":65856169},{"NoteNumber":86,"Velocity":54,"Duration":108546,"SoundDuration":108546,"Delta":65964715},{"NoteNumber":87,"Velocity":63,"Duration":108546,"SoundDuration":108546,"Delta":66073261},{"NoteNumber":63,"Velocity":72,"Duration":437372,"SoundDuration":437372,"Delta":66073261},{"NoteNumber":60,"Velocity":61,"Duration":437372,"SoundDuration":437372,"Delta":66073261},{"NoteNumber":83,"Velocity":53,"Duration":108546,"SoundDuration":108546,"Delta":66181808},{"NoteNumber":84,"Velocity":68,"Duration":110140,"SoundDuration":110140,"Delta":66290354},{"NoteNumber":57,"Velocity":73,"Duration":440429,"SoundDuration":440429,"Delta":66290354},{"NoteNumber":86,"Velocity":53,"Duration":110140,"SoundDuration":110140,"Delta":66400494},{"NoteNumber":87,"Velocity":59,"Duration":110140,"SoundDuration":110140,"Delta":66510634},{"NoteNumber":66,"Velocity":66,"Duration":220148,"SoundDuration":220148,"Delta":66510634},{"NoteNumber":63,"Velocity":55,"Duration":220148,"SoundDuration":220148,"Delta":66510634},{"NoteNumber":60,"Velocity":46,"Duration":220148,"SoundDuration":220148,"Delta":66510634},{"NoteNumber":78,"Velocity":51,"Duration":110008,"SoundDuration":110008,"Delta":66620775},{"NoteNumber":79,"Velocity":60,"Duration":112697,"SoundDuration":112697,"Delta":66730783},{"NoteNumber":59,"Velocity":45,"Duration":225074,"SoundDuration":225074,"Delta":66730783},{"NoteNumber":62,"Velocity":47,"Duration":225074,"SoundDuration":225074,"Delta":66730783},{"NoteNumber":67,"Velocity":63,"Duration":225074,"SoundDuration":225074,"Delta":66730783},{"NoteNumber":65,"Velocity":54,"Duration":225074,"SoundDuration":225074,"Delta":66730783},{"NoteNumber":80,"Velocity":55,"Duration":112377,"SoundDuration":112377,"Delta":66843480},{"NoteNumber":79,"Velocity":63,"Duration":111985,"SoundDuration":111985,"Delta":66955858},{"NoteNumber":60,"Velocity":48,"Duration":223582,"SoundDuration":223582,"Delta":66955858},{"NoteNumber":63,"Velocity":48,"Duration":223582,"SoundDuration":223582,"Delta":66955858},{"NoteNumber":68,"Velocity":57,"Duration":223582,"SoundDuration":223582,"Delta":66955858},{"NoteNumber":80,"Velocity":60,"Duration":111597,"SoundDuration":111597,"Delta":67067844},{"NoteNumber":79,"Velocity":66,"Duration":111451,"SoundDuration":111451,"Delta":67179441},{"NoteNumber":62,"Velocity":45,"Duration":223402,"SoundDuration":223402,"Delta":67179441},{"NoteNumber":65,"Velocity":50,"Duration":223402,"SoundDuration":223402,"Delta":67179441},{"NoteNumber":67,"Velocity":50,"Duration":223402,"SoundDuration":223402,"Delta":67179441},{"NoteNumber":71,"Velocity":60,"Duration":223402,"SoundDuration":223402,"Delta":67179441},{"NoteNumber":80,"Velocity":61,"Duration":111950,"SoundDuration":111950,"Delta":67290892},{"NoteNumber":79,"Velocity":64,"Duration":112454,"SoundDuration":112454,"Delta":67402843},{"NoteNumber":63,"Velocity":51,"Duration":224881,"SoundDuration":224881,"Delta":67402843},{"NoteNumber":67,"Velocity":51,"Duration":224881,"SoundDuration":224881,"Delta":67402843},{"NoteNumber":72,"Velocity":61,"Duration":224881,"SoundDuration":224881,"Delta":67402843},{"NoteNumber":80,"Velocity":55,"Duration":112426,"SoundDuration":112426,"Delta":67515298},{"NoteNumber":79,"Velocity":66,"Duration":109488,"SoundDuration":109488,"Delta":67627725},{"NoteNumber":67,"Velocity":61,"Duration":218978,"SoundDuration":218978,"Delta":67627725},{"NoteNumber":65,"Velocity":61,"Duration":218978,"SoundDuration":218978,"Delta":67627725},{"NoteNumber":74,"Velocity":72,"Duration":218978,"SoundDuration":218978,"Delta":67627725},{"NoteNumber":80,"Velocity":60,"Duration":109489,"SoundDuration":109489,"Delta":67737214},{"NoteNumber":77,"Velocity":65,"Duration":107455,"SoundDuration":107455,"Delta":67846703},{"NoteNumber":55,"Velocity":58,"Duration":428883,"SoundDuration":428883,"Delta":67846703},{"NoteNumber":67,"Velocity":71,"Duration":428883,"SoundDuration":428883,"Delta":67846703},{"NoteNumber":79,"Velocity":57,"Duration":107142,"SoundDuration":107142,"Delta":67954158},{"NoteNumber":75,"Velocity":63,"Duration":107142,"SoundDuration":107142,"Delta":68061301},{"NoteNumber":77,"Velocity":54,"Duration":107142,"SoundDuration":107142,"Delta":68168444},{"NoteNumber":74,"Velocity":63,"Duration":111524,"SoundDuration":111524,"Delta":68275586},{"NoteNumber":55,"Velocity":56,"Duration":223048,"SoundDuration":223048,"Delta":68275586},{"NoteNumber":67,"Velocity":69,"Duration":445818,"SoundDuration":445818,"Delta":68275586},{"NoteNumber":75,"Velocity":54,"Duration":111524,"SoundDuration":111524,"Delta":68387111},{"NoteNumber":72,"Velocity":61,"Duration":110968,"SoundDuration":110968,"Delta":68498635},{"NoteNumber":60,"Velocity":54,"Duration":222770,"SoundDuration":222770,"Delta":68498635},{"NoteNumber":74,"Velocity":56,"Duration":111801,"SoundDuration":111801,"Delta":68609603},{"NoteNumber":75,"Velocity":60,"Duration":111138,"SoundDuration":111138,"Delta":68721405},{"NoteNumber":63,"Velocity":68,"Duration":221622,"SoundDuration":221622,"Delta":68721405},{"NoteNumber":79,"Velocity":63,"Duration":110483,"SoundDuration":110483,"Delta":68832544},{"NoteNumber":84,"Velocity":65,"Duration":109809,"SoundDuration":109809,"Delta":68943028},{"NoteNumber":69,"Velocity":69,"Duration":219280,"SoundDuration":219280,"Delta":68943028},{"NoteNumber":86,"Velocity":63,"Duration":109470,"SoundDuration":109470,"Delta":69052838},{"NoteNumber":79,"Velocity":58,"Duration":110716,"SoundDuration":110716,"Delta":69162308},{"NoteNumber":87,"Velocity":68,"Duration":110716,"SoundDuration":110716,"Delta":69162308},{"NoteNumber":72,"Velocity":71,"Duration":222790,"SoundDuration":222790,"Delta":69162308},{"NoteNumber":78,"Velocity":61,"Duration":112073,"SoundDuration":112073,"Delta":69273024},{"NoteNumber":79,"Velocity":66,"Duration":109488,"SoundDuration":109488,"Delta":69385098},{"NoteNumber":65,"Velocity":60,"Duration":218978,"SoundDuration":218978,"Delta":69385098},{"NoteNumber":62,"Velocity":50,"Duration":218978,"SoundDuration":218978,"Delta":69385098},{"NoteNumber":71,"Velocity":74,"Duration":218978,"SoundDuration":218978,"Delta":69385098},{"NoteNumber":80,"Velocity":60,"Duration":109489,"SoundDuration":109489,"Delta":69494587},{"NoteNumber":77,"Velocity":65,"Duration":107455,"SoundDuration":107455,"Delta":69604076},{"NoteNumber":55,"Velocity":62,"Duration":428883,"SoundDuration":428883,"Delta":69604076},{"NoteNumber":67,"Velocity":73,"Duration":428883,"SoundDuration":428883,"Delta":69604076},{"NoteNumber":79,"Velocity":57,"Duration":107142,"SoundDuration":107142,"Delta":69711531},{"NoteNumber":75,"Velocity":63,"Duration":107142,"SoundDuration":107142,"Delta":69818674},{"NoteNumber":77,"Velocity":54,"Duration":107142,"SoundDuration":107142,"Delta":69925817},{"NoteNumber":74,"Velocity":63,"Duration":111524,"SoundDuration":111524,"Delta":70032960},{"NoteNumber":55,"Velocity":56,"Duration":223048,"SoundDuration":223048,"Delta":70032960},{"NoteNumber":67,"Velocity":69,"Duration":445818,"SoundDuration":445818,"Delta":70032960},{"NoteNumber":75,"Velocity":54,"Duration":111524,"SoundDuration":111524,"Delta":70144484},{"NoteNumber":72,"Velocity":61,"Duration":110968,"SoundDuration":110968,"Delta":70256008},{"NoteNumber":60,"Velocity":54,"Duration":222770,"SoundDuration":222770,"Delta":70256008},{"NoteNumber":74,"Velocity":56,"Duration":111801,"SoundDuration":111801,"Delta":70366977},{"NoteNumber":75,"Velocity":60,"Duration":111138,"SoundDuration":111138,"Delta":70478778},{"NoteNumber":63,"Velocity":68,"Duration":221622,"SoundDuration":221622,"Delta":70478778},{"NoteNumber":79,"Velocity":63,"Duration":110483,"SoundDuration":110483,"Delta":70589917},{"NoteNumber":84,"Velocity":65,"Duration":109809,"SoundDuration":109809,"Delta":70700401},{"NoteNumber":69,"Velocity":72,"Duration":218980,"SoundDuration":218980,"Delta":70700401},{"NoteNumber":86,"Velocity":52,"Duration":109170,"SoundDuration":109170,"Delta":70810211},{"NoteNumber":79,"Velocity":62,"Duration":110293,"SoundDuration":110293,"Delta":70919382},{"NoteNumber":87,"Velocity":62,"Duration":110293,"SoundDuration":110293,"Delta":70919382},{"NoteNumber":72,"Velocity":71,"Duration":221124,"SoundDuration":221124,"Delta":70919382},{"NoteNumber":78,"Velocity":55,"Duration":110830,"SoundDuration":110830,"Delta":71029676},{"NoteNumber":79,"Velocity":67,"Duration":116475,"SoundDuration":116475,"Delta":71140506},{"NoteNumber":62,"Velocity":42,"Duration":231875,"SoundDuration":231875,"Delta":71140506},{"NoteNumber":65,"Velocity":53,"Duration":231875,"SoundDuration":231875,"Delta":71140506},{"NoteNumber":71,"Velocity":70,"Duration":231875,"SoundDuration":231875,"Delta":71140506},{"NoteNumber":80,"Velocity":52,"Duration":115400,"SoundDuration":115400,"Delta":71256981},{"NoteNumber":77,"Velocity":57,"Duration":114461,"SoundDuration":114461,"Delta":71372382},{"NoteNumber":55,"Velocity":69,"Duration":227962,"SoundDuration":227962,"Delta":71372382},{"NoteNumber":89,"Velocity":52,"Duration":113501,"SoundDuration":113501,"Delta":71486843},{"NoteNumber":77,"Velocity":68,"Duration":112425,"SoundDuration":112425,"Delta":71600344},{"NoteNumber":63,"Velocity":42,"Duration":223949,"SoundDuration":223949,"Delta":71600344},{"NoteNumber":67,"Velocity":53,"Duration":223949,"SoundDuration":223949,"Delta":71600344},{"NoteNumber":72,"Velocity":70,"Duration":223949,"SoundDuration":223949,"Delta":71600344},{"NoteNumber":79,"Velocity":52,"Duration":111524,"SoundDuration":111524,"Delta":71712770},{"NoteNumber":75,"Velocity":57,"Duration":111352,"SoundDuration":111352,"Delta":71824294},{"NoteNumber":55,"Velocity":69,"Duration":222463,"SoundDuration":222463,"Delta":71824294},{"NoteNumber":87,"Velocity":54,"Duration":111111,"SoundDuration":111111,"Delta":71935646},{"NoteNumber":75,"Velocity":68,"Duration":110776,"SoundDuration":110776,"Delta":72046757},{"NoteNumber":65,"Velocity":57,"Duration":221477,"SoundDuration":221477,"Delta":72046757},{"NoteNumber":68,"Velocity":72,"Duration":221477,"SoundDuration":221477,"Delta":72046757},{"NoteNumber":77,"Velocity":54,"Duration":110701,"SoundDuration":110701,"Delta":72157533},{"NoteNumber":74,"Velocity":58,"Duration":110314,"SoundDuration":110314,"Delta":72268234},{"NoteNumber":55,"Velocity":67,"Duration":220466,"SoundDuration":220466,"Delta":72268234},{"NoteNumber":86,"Velocity":54,"Duration":110152,"SoundDuration":110152,"Delta":72378549},{"NoteNumber":74,"Velocity":69,"Duration":109890,"SoundDuration":109890,"Delta":72488701},{"NoteNumber":63,"Velocity":54,"Duration":438212,"SoundDuration":438212,"Delta":72488701},{"NoteNumber":67,"Velocity":71,"Duration":438212,"SoundDuration":438212,"Delta":72488701},{"NoteNumber":75,"Velocity":55,"Duration":109696,"SoundDuration":109696,"Delta":72598591},{"NoteNumber":72,"Velocity":58,"Duration":109489,"SoundDuration":109489,"Delta":72708287},{"NoteNumber":55,"Velocity":70,"Duration":436406,"SoundDuration":436406,"Delta":72708287},{"NoteNumber":84,"Velocity":55,"Duration":109137,"SoundDuration":109137,"Delta":72817776},{"NoteNumber":72,"Velocity":70,"Duration":109084,"SoundDuration":109084,"Delta":72926914},{"NoteNumber":62,"Velocity":56,"Duration":434615,"SoundDuration":434615,"Delta":72926914},{"NoteNumber":65,"Velocity":73,"Duration":434615,"SoundDuration":434615,"Delta":72926914},{"NoteNumber":74,"Velocity":55,"Duration":108695,"SoundDuration":108695,"Delta":73035998},{"NoteNumber":70,"Velocity":55,"Duration":108532,"SoundDuration":108532,"Delta":73144694},{"NoteNumber":55,"Velocity":71,"Duration":432838,"SoundDuration":432838,"Delta":73144694},{"NoteNumber":82,"Velocity":55,"Duration":108303,"SoundDuration":108303,"Delta":73253226},{"NoteNumber":70,"Velocity":73,"Duration":108089,"SoundDuration":108089,"Delta":73361529},{"NoteNumber":60,"Velocity":54,"Duration":430675,"SoundDuration":430675,"Delta":73361529},{"NoteNumber":63,"Velocity":74,"Duration":430675,"SoundDuration":430675,"Delta":73361529},{"NoteNumber":72,"Velocity":55,"Duration":107913,"SoundDuration":107913,"Delta":73469618},{"NoteNumber":68,"Velocity":55,"Duration":107546,"SoundDuration":107546,"Delta":73577532},{"NoteNumber":55,"Velocity":74,"Duration":427823,"SoundDuration":427823,"Delta":73577532},{"NoteNumber":80,"Velocity":55,"Duration":107126,"SoundDuration":107126,"Delta":73685078},{"NoteNumber":68,"Velocity":76,"Duration":106389,"SoundDuration":106389,"Delta":73792205},{"NoteNumber":59,"Velocity":52,"Duration":213150,"SoundDuration":213150,"Delta":73792205},{"NoteNumber":62,"Velocity":66,"Duration":213150,"SoundDuration":213150,"Delta":73792205},{"NoteNumber":70,"Velocity":56,"Duration":106761,"SoundDuration":106761,"Delta":73898594},{"NoteNumber":67,"Velocity":57,"Duration":107123,"SoundDuration":107123,"Delta":74005356},{"NoteNumber":55,"Velocity":87,"Duration":430241,"SoundDuration":430241,"Delta":74005356},{"NoteNumber":79,"Velocity":57,"Duration":107379,"SoundDuration":107379,"Delta":74112480},{"NoteNumber":67,"Velocity":71,"Duration":107739,"SoundDuration":107739,"Delta":74219859},{"NoteNumber":79,"Velocity":55,"Duration":107998,"SoundDuration":107998,"Delta":74327599},{"NoteNumber":67,"Velocity":76,"Duration":162710,"SoundDuration":162710,"Delta":74435597},{"NoteNumber":43,"Velocity":64,"Duration":217090,"SoundDuration":217090,"Delta":74435597},{"NoteNumber":55,"Velocity":80,"Duration":217090,"SoundDuration":217090,"Delta":74435597},{"NoteNumber":68,"Velocity":55,"Duration":108728,"SoundDuration":108728,"Delta":74543959},{"NoteNumber":67,"Velocity":77,"Duration":635695,"SoundDuration":635695,"Delta":74652688},{"NoteNumber":36,"Velocity":76,"Duration":434488,"SoundDuration":434488,"Delta":74652688},{"NoteNumber":48,"Velocity":90,"Duration":434488,"SoundDuration":434488,"Delta":74652688},{"NoteNumber":63,"Velocity":47,"Duration":116640,"SoundDuration":116640,"Delta":74769329},{"NoteNumber":62,"Velocity":52,"Duration":100603,"SoundDuration":100603,"Delta":74885969},{"NoteNumber":60,"Velocity":44,"Duration":100603,"SoundDuration":100603,"Delta":74986573},{"NoteNumber":55,"Velocity":73,"Duration":424920,"SoundDuration":424920,"Delta":75087176},{"NoteNumber":67,"Velocity":65,"Duration":111856,"SoundDuration":111856,"Delta":75288383},{"NoteNumber":72,"Velocity":65,"Duration":167785,"SoundDuration":167785,"Delta":75288383},{"NoteNumber":68,"Velocity":52,"Duration":111856,"SoundDuration":111856,"Delta":75400240},{"NoteNumber":67,"Velocity":80,"Duration":108225,"SoundDuration":108225,"Delta":75512097},{"NoteNumber":71,"Velocity":80,"Duration":614855,"SoundDuration":614855,"Delta":75512097},{"NoteNumber":55,"Velocity":89,"Duration":415652,"SoundDuration":415652,"Delta":75512097},{"NoteNumber":43,"Velocity":75,"Duration":415652,"SoundDuration":415652,"Delta":75512097},{"NoteNumber":65,"Velocity":50,"Duration":108224,"SoundDuration":108224,"Delta":75620322},{"NoteNumber":63,"Velocity":51,"Duration":99601,"SoundDuration":99601,"Delta":75728547},{"NoteNumber":62,"Velocity":51,"Duration":99601,"SoundDuration":99601,"Delta":75828148},{"NoteNumber":55,"Velocity":75,"Duration":408116,"SoundDuration":408116,"Delta":75927750},{"NoteNumber":67,"Velocity":71,"Duration":156685,"SoundDuration":156685,"Delta":76126953},{"NoteNumber":68,"Velocity":51,"Duration":104456,"SoundDuration":104456,"Delta":76231410},{"NoteNumber":67,"Velocity":82,"Duration":608762,"SoundDuration":608762,"Delta":76335866},{"NoteNumber":60,"Velocity":88,"Duration":304686,"SoundDuration":304686,"Delta":76335866},{"NoteNumber":48,"Velocity":74,"Duration":411524,"SoundDuration":411524,"Delta":76335866},{"NoteNumber":63,"Velocity":47,"Duration":107142,"SoundDuration":107142,"Delta":76443009},{"NoteNumber":62,"Velocity":52,"Duration":98619,"SoundDuration":98619,"Delta":76550152},{"NoteNumber":60,"Velocity":44,"Duration":98619,"SoundDuration":98619,"Delta":76648771},{"NoteNumber":55,"Velocity":75,"Duration":420951,"SoundDuration":420951,"Delta":76747390},{"NoteNumber":67,"Velocity":60,"Duration":111856,"SoundDuration":111856,"Delta":76944629},{"NoteNumber":72,"Velocity":60,"Duration":167785,"SoundDuration":167785,"Delta":76944629},{"NoteNumber":68,"Velocity":52,"Duration":111856,"SoundDuration":111856,"Delta":77056486},{"NoteNumber":67,"Velocity":79,"Duration":107913,"SoundDuration":107913,"Delta":77168342},{"NoteNumber":71,"Velocity":79,"Duration":606706,"SoundDuration":606706,"Delta":77168342},{"NoteNumber":43,"Velocity":75,"Duration":411267,"SoundDuration":411267,"Delta":77168342},{"NoteNumber":55,"Velocity":89,"Duration":410672,"SoundDuration":410672,"Delta":77174637},{"NoteNumber":65,"Velocity":50,"Duration":107913,"SoundDuration":107913,"Delta":77276256},{"NoteNumber":63,"Velocity":51,"Duration":97719,"SoundDuration":97719,"Delta":77384170},{"NoteNumber":62,"Velocity":51,"Duration":97719,"SoundDuration":97719,"Delta":77481890},{"NoteNumber":55,"Velocity":76,"Duration":400918,"SoundDuration":400918,"Delta":77579609},{"NoteNumber":67,"Velocity":65,"Duration":154109,"SoundDuration":154109,"Delta":77775049},{"NoteNumber":68,"Velocity":51,"Duration":102739,"SoundDuration":102739,"Delta":77877789},{"NoteNumber":67,"Velocity":78,"Duration":413955,"SoundDuration":413955,"Delta":77980528},{"NoteNumber":36,"Velocity":67,"Duration":413955,"SoundDuration":413955,"Delta":77980528},{"NoteNumber":48,"Velocity":79,"Duration":413955,"SoundDuration":413955,"Delta":77980528},{"NoteNumber":63,"Velocity":47,"Duration":109890,"SoundDuration":109890,"Delta":78090418},{"NoteNumber":62,"Velocity":52,"Duration":97087,"SoundDuration":97087,"Delta":78200308},{"NoteNumber":60,"Velocity":44,"Duration":97087,"SoundDuration":97087,"Delta":78297396},{"NoteNumber":75,"Velocity":79,"Duration":194175,"SoundDuration":194175,"Delta":78394483},{"NoteNumber":55,"Velocity":57,"Duration":396877,"SoundDuration":396877,"Delta":78394483},{"NoteNumber":68,"Velocity":60,"Duration":202702,"SoundDuration":202702,"Delta":78588658},{"NoteNumber":70,"Velocity":52,"Duration":101351,"SoundDuration":101351,"Delta":78690010},{"NoteNumber":68,"Velocity":80,"Duration":414950,"SoundDuration":414950,"Delta":78791361},{"NoteNumber":53,"Velocity":82,"Duration":414950,"SoundDuration":414950,"Delta":78791361},{"NoteNumber":41,"Velocity":69,"Duration":414950,"SoundDuration":414950,"Delta":78791361},{"NoteNumber":63,"Velocity":47,"Duration":110700,"SoundDuration":110700,"Delta":78902062},{"NoteNumber":65,"Velocity":52,"Duration":96774,"SoundDuration":96774,"Delta":79012763},{"NoteNumber":60,"Velocity":44,"Duration":96774,"SoundDuration":96774,"Delta":79109537},{"NoteNumber":80,"Velocity":87,"Duration":193548,"SoundDuration":193548,"Delta":79206311},{"NoteNumber":53,"Velocity":62,"Duration":422381,"SoundDuration":422381,"Delta":79206311},{"NoteNumber":68,"Velocity":60,"Duration":228832,"SoundDuration":228832,"Delta":79399860},{"NoteNumber":70,"Velocity":52,"Duration":114416,"SoundDuration":114416,"Delta":79514276},{"NoteNumber":68,"Velocity":80,"Duration":414763,"SoundDuration":414763,"Delta":79628693},{"NoteNumber":34,"Velocity":73,"Duration":414763,"SoundDuration":414763,"Delta":79628693},{"NoteNumber":46,"Velocity":86,"Duration":414763,"SoundDuration":414763,"Delta":79628693},{"NoteNumber":62,"Velocity":47,"Duration":110294,"SoundDuration":110294,"Delta":79738987},{"NoteNumber":60,"Velocity":52,"Duration":97087,"SoundDuration":97087,"Delta":79849281},{"NoteNumber":58,"Velocity":44,"Duration":97087,"SoundDuration":97087,"Delta":79946368},{"NoteNumber":74,"Velocity":83,"Duration":194175,"SoundDuration":194175,"Delta":80043456},{"NoteNumber":53,"Velocity":61,"Duration":396877,"SoundDuration":396877,"Delta":80043456},{"NoteNumber":67,"Velocity":59,"Duration":202702,"SoundDuration":202702,"Delta":80237631},{"NoteNumber":68,"Velocity":51,"Duration":101351,"SoundDuration":101351,"Delta":80338982},{"NoteNumber":67,"Velocity":79,"Duration":409228,"SoundDuration":409228,"Delta":80440333},{"NoteNumber":51,"Velocity":91,"Duration":409228,"SoundDuration":409228,"Delta":80440333},{"NoteNumber":39,"Velocity":77,"Duration":409228,"SoundDuration":409228,"Delta":80440333},{"NoteNumber":62,"Velocity":46,"Duration":107526,"SoundDuration":107526,"Delta":80547860},{"NoteNumber":63,"Velocity":50,"Duration":97087,"SoundDuration":97087,"Delta":80655387},{"NoteNumber":58,"Velocity":43,"Duration":97087,"SoundDuration":97087,"Delta":80752475},{"NoteNumber":79,"Velocity":85,"Duration":194175,"SoundDuration":194175,"Delta":80849562},{"NoteNumber":51,"Velocity":60,"Duration":396877,"SoundDuration":396877,"Delta":80849562},{"NoteNumber":67,"Velocity":58,"Duration":202702,"SoundDuration":202702,"Delta":81043737},{"NoteNumber":68,"Velocity":50,"Duration":101351,"SoundDuration":101351,"Delta":81145089},{"NoteNumber":67,"Velocity":77,"Duration":413783,"SoundDuration":413783,"Delta":81246440},{"NoteNumber":32,"Velocity":66,"Duration":413783,"SoundDuration":413783,"Delta":81246440},{"NoteNumber":44,"Velocity":79,"Duration":413783,"SoundDuration":413783,"Delta":81246440},{"NoteNumber":60,"Velocity":45,"Duration":109489,"SoundDuration":109489,"Delta":81355929},{"NoteNumber":58,"Velocity":50,"Duration":97402,"SoundDuration":97402,"Delta":81465418},{"NoteNumber":56,"Velocity":42,"Duration":97402,"SoundDuration":97402,"Delta":81562820},{"NoteNumber":72,"Velocity":79,"Duration":194805,"SoundDuration":194805,"Delta":81660223},{"NoteNumber":51,"Velocity":57,"Duration":396825,"SoundDuration":396825,"Delta":81660223},{"NoteNumber":65,"Velocity":57,"Duration":202020,"SoundDuration":202020,"Delta":81855028},{"NoteNumber":67,"Velocity":49,"Duration":101010,"SoundDuration":101010,"Delta":81956038},{"NoteNumber":65,"Velocity":76,"Duration":412357,"SoundDuration":412357,"Delta":82057048},{"NoteNumber":50,"Velocity":76,"Duration":412357,"SoundDuration":412357,"Delta":82057048},{"NoteNumber":38,"Velocity":64,"Duration":412357,"SoundDuration":412357,"Delta":82057048},{"NoteNumber":60,"Velocity":44,"Duration":109090,"SoundDuration":109090,"Delta":82166139},{"NoteNumber":62,"Velocity":49,"Duration":97087,"SoundDuration":97087,"Delta":82275230},{"NoteNumber":56,"Velocity":41,"Duration":97087,"SoundDuration":97087,"Delta":82372317},{"NoteNumber":77,"Velocity":81,"Duration":194175,"SoundDuration":194175,"Delta":82469405},{"NoteNumber":50,"Velocity":56,"Duration":423884,"SoundDuration":423884,"Delta":82469405},{"NoteNumber":65,"Velocity":56,"Duration":229708,"SoundDuration":229708,"Delta":82663580},{"NoteNumber":67,"Velocity":48,"Duration":114854,"SoundDuration":114854,"Delta":82778434},{"NoteNumber":65,"Velocity":75,"Duration":410940,"SoundDuration":410940,"Delta":82893289},{"NoteNumber":31,"Velocity":61,"Duration":410940,"SoundDuration":410940,"Delta":82893289},{"NoteNumber":43,"Velocity":72,"Duration":410940,"SoundDuration":410940,"Delta":82893289},{"NoteNumber":59,"Velocity":43,"Duration":108695,"SoundDuration":108695,"Delta":83001985},{"NoteNumber":57,"Velocity":48,"Duration":96774,"SoundDuration":96774,"Delta":83110680},{"NoteNumber":55,"Velocity":40,"Duration":96774,"SoundDuration":96774,"Delta":83207455},{"NoteNumber":71,"Velocity":77,"Duration":193548,"SoundDuration":193548,"Delta":83304229},{"NoteNumber":50,"Velocity":56,"Duration":395568,"SoundDuration":395568,"Delta":83304229},{"NoteNumber":65,"Velocity":55,"Duration":202020,"SoundDuration":202020,"Delta":83497777},{"NoteNumber":67,"Velocity":47,"Duration":101010,"SoundDuration":101010,"Delta":83598787},{"NoteNumber":65,"Velocity":73,"Duration":408602,"SoundDuration":408602,"Delta":83699797},{"NoteNumber":31,"Velocity":60,"Duration":408602,"SoundDuration":408602,"Delta":83699797},{"NoteNumber":43,"Velocity":71,"Duration":408602,"SoundDuration":408602,"Delta":83699797},{"NoteNumber":59,"Velocity":43,"Duration":107526,"SoundDuration":107526,"Delta":83807324},{"NoteNumber":62,"Velocity":47,"Duration":96774,"SoundDuration":96774,"Delta":83914851},{"NoteNumber":55,"Velocity":40,"Duration":96774,"SoundDuration":96774,"Delta":84011626},{"NoteNumber":77,"Velocity":75,"Duration":193548,"SoundDuration":193548,"Delta":84108400},{"NoteNumber":50,"Velocity":57,"Duration":423856,"SoundDuration":423856,"Delta":84108400},{"NoteNumber":67,"Velocity":52,"Duration":99873,"SoundDuration":99873,"Delta":84432383},{"NoteNumber":72,"Velocity":43,"Duration":33291,"SoundDuration":33291,"Delta":84465674},{"NoteNumber":43,"Velocity":50,"Duration":247956,"SoundDuration":247956,"Delta":84482320},{"NoteNumber":74,"Velocity":43,"Duration":33291,"SoundDuration":33291,"Delta":84498966},{"NoteNumber":48,"Velocity":56,"Duration":222988,"SoundDuration":222988,"Delta":84507288},{"NoteNumber":75,"Velocity":75,"Duration":99010,"SoundDuration":99010,"Delta":84532257},{"NoteNumber":57,"Velocity":63,"Duration":198019,"SoundDuration":198019,"Delta":84532257},{"NoteNumber":66,"Velocity":49,"Duration":99009,"SoundDuration":99009,"Delta":84631267},{"NoteNumber":72,"Velocity":52,"Duration":99010,"SoundDuration":99010,"Delta":84730277},{"NoteNumber":75,"Velocity":52,"Duration":99009,"SoundDuration":99009,"Delta":84829287},{"NoteNumber":43,"Velocity":57,"Duration":247524,"SoundDuration":247524,"Delta":84878792},{"NoteNumber":50,"Velocity":61,"Duration":222772,"SoundDuration":222772,"Delta":84903544},{"NoteNumber":74,"Velocity":74,"Duration":99010,"SoundDuration":99010,"Delta":84928297},{"NoteNumber":59,"Velocity":66,"Duration":198019,"SoundDuration":198019,"Delta":84928297},{"NoteNumber":65,"Velocity":47,"Duration":99009,"SoundDuration":99009,"Delta":85027307},{"NoteNumber":71,"Velocity":52,"Duration":106382,"SoundDuration":106382,"Delta":85126317},{"NoteNumber":74,"Velocity":52,"Duration":106383,"SoundDuration":106383,"Delta":85232700},{"NoteNumber":43,"Velocity":53,"Duration":249912,"SoundDuration":249912,"Delta":85285891},{"NoteNumber":51,"Velocity":56,"Duration":223317,"SoundDuration":223317,"Delta":85312487},{"NoteNumber":72,"Velocity":74,"Duration":98360,"SoundDuration":98360,"Delta":85339083},{"NoteNumber":60,"Velocity":60,"Duration":196721,"SoundDuration":196721,"Delta":85339083},{"NoteNumber":69,"Velocity":48,"Duration":98360,"SoundDuration":98360,"Delta":85437443},{"NoteNumber":66,"Velocity":52,"Duration":98360,"SoundDuration":98360,"Delta":85535804},{"NoteNumber":63,"Velocity":52,"Duration":98360,"SoundDuration":98360,"Delta":85634165},{"NoteNumber":60,"Velocity":54,"Duration":98360,"SoundDuration":98360,"Delta":85732526},{"NoteNumber":57,"Velocity":53,"Duration":98360,"SoundDuration":98360,"Delta":85830886},{"NoteNumber":54,"Velocity":52,"Duration":109889,"SoundDuration":109889,"Delta":85929247},{"NoteNumber":67,"Velocity":52,"Duration":109890,"SoundDuration":109890,"Delta":86039137},{"NoteNumber":51,"Velocity":52,"Duration":109890,"SoundDuration":109890,"Delta":86039137},{"NoteNumber":72,"Velocity":43,"Duration":36630,"SoundDuration":36630,"Delta":86075767},{"NoteNumber":74,"Velocity":43,"Duration":36630,"SoundDuration":36630,"Delta":86112397},{"NoteNumber":75,"Velocity":75,"Duration":98684,"SoundDuration":98684,"Delta":86149027},{"NoteNumber":43,"Velocity":50,"Duration":197368,"SoundDuration":197368,"Delta":86149027},{"NoteNumber":48,"Velocity":54,"Duration":197368,"SoundDuration":197368,"Delta":86149027},{"NoteNumber":57,"Velocity":63,"Duration":197368,"SoundDuration":197368,"Delta":86149027},{"NoteNumber":66,"Velocity":49,"Duration":98684,"SoundDuration":98684,"Delta":86247711},{"NoteNumber":72,"Velocity":52,"Duration":98684,"SoundDuration":98684,"Delta":86346396},{"NoteNumber":75,"Velocity":52,"Duration":98684,"SoundDuration":98684,"Delta":86445080},{"NoteNumber":74,"Velocity":74,"Duration":98684,"SoundDuration":98684,"Delta":86543764},{"NoteNumber":43,"Velocity":53,"Duration":197368,"SoundDuration":197368,"Delta":86543764},{"NoteNumber":50,"Velocity":57,"Duration":197368,"SoundDuration":197368,"Delta":86543764},{"NoteNumber":59,"Velocity":63,"Duration":197368,"SoundDuration":197368,"Delta":86543764},{"NoteNumber":65,"Velocity":47,"Duration":98684,"SoundDuration":98684,"Delta":86642448},{"NoteNumber":71,"Velocity":52,"Duration":108546,"SoundDuration":108546,"Delta":86741133},{"NoteNumber":74,"Velocity":52,"Duration":108546,"SoundDuration":108546,"Delta":86849679},{"NoteNumber":72,"Velocity":74,"Duration":99667,"SoundDuration":99667,"Delta":86958225},{"NoteNumber":43,"Velocity":48,"Duration":199335,"SoundDuration":199335,"Delta":86958225},{"NoteNumber":51,"Velocity":53,"Duration":199335,"SoundDuration":199335,"Delta":86958225},{"NoteNumber":60,"Velocity":59,"Duration":199335,"SoundDuration":199335,"Delta":86958225},{"NoteNumber":69,"Velocity":48,"Duration":99667,"SoundDuration":99667,"Delta":87057893},{"NoteNumber":66,"Velocity":52,"Duration":99667,"SoundDuration":99667,"Delta":87157561},{"NoteNumber":63,"Velocity":52,"Duration":99667,"SoundDuration":99667,"Delta":87257228},{"NoteNumber":60,"Velocity":54,"Duration":99667,"SoundDuration":99667,"Delta":87356896},{"NoteNumber":57,"Velocity":53,"Duration":99667,"SoundDuration":99667,"Delta":87456564},{"NoteNumber":54,"Velocity":52,"Duration":110955,"SoundDuration":110955,"Delta":87556232},{"NoteNumber":63,"Velocity":52,"Duration":110954,"SoundDuration":110954,"Delta":87667187},{"NoteNumber":51,"Velocity":52,"Duration":110954,"SoundDuration":110954,"Delta":87667187},{"NoteNumber":67,"Velocity":43,"Duration":36985,"SoundDuration":36985,"Delta":87704172},{"NoteNumber":43,"Velocity":42,"Duration":406648,"SoundDuration":406648,"Delta":87722664},{"NoteNumber":68,"Velocity":43,"Duration":36984,"SoundDuration":36984,"Delta":87741157},{"NoteNumber":70,"Velocity":74,"Duration":100334,"SoundDuration":100334,"Delta":87778142},{"NoteNumber":52,"Velocity":60,"Duration":351170,"SoundDuration":351170,"Delta":87778142},{"NoteNumber":61,"Velocity":44,"Duration":100334,"SoundDuration":100334,"Delta":87878476},{"NoteNumber":67,"Velocity":49,"Duration":100334,"SoundDuration":100334,"Delta":87978811},{"NoteNumber":70,"Velocity":42,"Duration":100334,"SoundDuration":100334,"Delta":88079145},{"NoteNumber":43,"Velocity":45,"Duration":412485,"SoundDuration":412485,"Delta":88129312},{"NoteNumber":68,"Velocity":69,"Duration":100334,"SoundDuration":100334,"Delta":88179480},{"NoteNumber":53,"Velocity":66,"Duration":362318,"SoundDuration":362318,"Delta":88179480},{"NoteNumber":60,"Velocity":42,"Duration":100334,"SoundDuration":100334,"Delta":88279814},{"NoteNumber":65,"Velocity":48,"Duration":107766,"SoundDuration":107766,"Delta":88380149},{"NoteNumber":68,"Velocity":44,"Duration":107766,"SoundDuration":107766,"Delta":88487915},{"NoteNumber":43,"Velocity":40,"Duration":456568,"SoundDuration":456568,"Delta":88541798},{"NoteNumber":67,"Velocity":69,"Duration":100671,"SoundDuration":100671,"Delta":88595681},{"NoteNumber":55,"Velocity":50,"Duration":402685,"SoundDuration":402685,"Delta":88595681},{"NoteNumber":64,"Velocity":42,"Duration":100671,"SoundDuration":100671,"Delta":88696352},{"NoteNumber":61,"Velocity":47,"Duration":100671,"SoundDuration":100671,"Delta":88797024},{"NoteNumber":58,"Velocity":42,"Duration":100671,"SoundDuration":100671,"Delta":88897695},{"NoteNumber":55,"Velocity":54,"Duration":80536,"SoundDuration":80536,"Delta":88998366},{"NoteNumber":52,"Velocity":53,"Duration":80537,"SoundDuration":80537,"Delta":89078903},{"NoteNumber":49,"Velocity":52,"Duration":89651,"SoundDuration":89651,"Delta":89159440},{"NoteNumber":58,"Velocity":52,"Duration":197530,"SoundDuration":197530,"Delta":89249091},{"NoteNumber":46,"Velocity":52,"Duration":98765,"SoundDuration":98765,"Delta":89249091},{"NoteNumber":61,"Velocity":43,"Duration":65843,"SoundDuration":65843,"Delta":89314935},{"NoteNumber":43,"Velocity":52,"Duration":98765,"SoundDuration":98765,"Delta":89347857},{"NoteNumber":64,"Velocity":43,"Duration":65843,"SoundDuration":65843,"Delta":89380779},{"NoteNumber":65,"Velocity":70,"Duration":117647,"SoundDuration":117647,"Delta":89446622},{"NoteNumber":31,"Velocity":58,"Duration":470588,"SoundDuration":470588,"Delta":89446622},{"NoteNumber":43,"Velocity":73,"Duration":470588,"SoundDuration":470588,"Delta":89446622},{"NoteNumber":56,"Velocity":44,"Duration":117646,"SoundDuration":117646,"Delta":89564269},{"NoteNumber":60,"Velocity":49,"Duration":117647,"SoundDuration":117647,"Delta":89681916},{"NoteNumber":65,"Velocity":42,"Duration":117647,"SoundDuration":117647,"Delta":89799563},{"NoteNumber":62,"Velocity":69,"Duration":123456,"SoundDuration":123456,"Delta":89917210},{"NoteNumber":31,"Velocity":63,"Duration":515460,"SoundDuration":515460,"Delta":89917210},{"NoteNumber":43,"Velocity":73,"Duration":515460,"SoundDuration":515460,"Delta":89917210},{"NoteNumber":53,"Velocity":42,"Duration":123456,"SoundDuration":123456,"Delta":90040667},{"NoteNumber":59,"Velocity":48,"Duration":134529,"SoundDuration":134529,"Delta":90164124},{"NoteNumber":62,"Velocity":44,"Duration":134017,"SoundDuration":134017,"Delta":90298653},{"NoteNumber":60,"Velocity":69,"Duration":93659,"SoundDuration":93659,"Delta":90432671},{"NoteNumber":36,"Velocity":56,"Duration":484307,"SoundDuration":484307,"Delta":90432671},{"NoteNumber":43,"Velocity":70,"Duration":359965,"SoundDuration":359965,"Delta":90432671},{"NoteNumber":55,"Velocity":42,"Duration":95654,"SoundDuration":95654,"Delta":90526330},{"NoteNumber":51,"Velocity":47,"Duration":96956,"SoundDuration":96956,"Delta":90621984},{"NoteNumber":48,"Velocity":42,"Duration":98399,"SoundDuration":98399,"Delta":90718941},{"NoteNumber":43,"Velocity":42,"Duration":99638,"SoundDuration":99638,"Delta":90817340},{"NoteNumber":36,"Velocity":81,"Duration":279070,"SoundDuration":279070,"Delta":90916978},{"NoteNumber":58,"Velocity":37,"Duration":218093,"SoundDuration":218093,"Delta":91196048},{"NoteNumber":63,"Velocity":37,"Duration":218093,"SoundDuration":218093,"Delta":91196048},{"NoteNumber":67,"Velocity":44,"Duration":218093,"SoundDuration":218093,"Delta":91196048},{"NoteNumber":51,"Velocity":32,"Duration":218093,"SoundDuration":218093,"Delta":91196048},{"NoteNumber":55,"Velocity":26,"Duration":218093,"SoundDuration":218093,"Delta":91196048},{"NoteNumber":58,"Velocity":42,"Duration":448465,"SoundDuration":448465,"Delta":91438375},{"NoteNumber":65,"Velocity":42,"Duration":448465,"SoundDuration":448465,"Delta":91438375},{"NoteNumber":50,"Velocity":38,"Duration":448465,"SoundDuration":448465,"Delta":91438375},{"NoteNumber":53,"Velocity":32,"Duration":448465,"SoundDuration":448465,"Delta":91438375},{"NoteNumber":57,"Velocity":39,"Duration":470685,"SoundDuration":470685,"Delta":91910444},{"NoteNumber":63,"Velocity":39,"Duration":470685,"SoundDuration":470685,"Delta":91910444},{"NoteNumber":69,"Velocity":47,"Duration":470685,"SoundDuration":470685,"Delta":91910444},{"NoteNumber":48,"Velocity":35,"Duration":470685,"SoundDuration":470685,"Delta":91910444},{"NoteNumber":53,"Velocity":29,"Duration":470685,"SoundDuration":470685,"Delta":91910444},{"NoteNumber":58,"Velocity":42,"Duration":459306,"SoundDuration":459306,"Delta":92405902},{"NoteNumber":62,"Velocity":42,"Duration":459306,"SoundDuration":459306,"Delta":92405902},{"NoteNumber":70,"Velocity":50,"Duration":459306,"SoundDuration":459306,"Delta":92405902},{"NoteNumber":53,"Velocity":34,"Duration":459306,"SoundDuration":459306,"Delta":92405902},{"NoteNumber":46,"Velocity":40,"Duration":459306,"SoundDuration":459306,"Delta":92405902},{"NoteNumber":58,"Velocity":37,"Duration":243308,"SoundDuration":243308,"Delta":93131123},{"NoteNumber":63,"Velocity":37,"Duration":243308,"SoundDuration":243308,"Delta":93131123},{"NoteNumber":67,"Velocity":44,"Duration":243308,"SoundDuration":243308,"Delta":93131123},{"NoteNumber":51,"Velocity":33,"Duration":243308,"SoundDuration":243308,"Delta":93131123},{"NoteNumber":55,"Velocity":27,"Duration":243308,"SoundDuration":243308,"Delta":93131123},{"NoteNumber":58,"Velocity":42,"Duration":450237,"SoundDuration":450237,"Delta":93374432},{"NoteNumber":65,"Velocity":42,"Duration":450237,"SoundDuration":450237,"Delta":93374432},{"NoteNumber":50,"Velocity":38,"Duration":450237,"SoundDuration":450237,"Delta":93374432},{"NoteNumber":53,"Velocity":32,"Duration":450237,"SoundDuration":450237,"Delta":93374432},{"NoteNumber":57,"Velocity":39,"Duration":459306,"SoundDuration":459306,"Delta":93848366},{"NoteNumber":63,"Velocity":39,"Duration":459306,"SoundDuration":459306,"Delta":93848366},{"NoteNumber":69,"Velocity":47,"Duration":459306,"SoundDuration":459306,"Delta":93848366},{"NoteNumber":48,"Velocity":35,"Duration":459306,"SoundDuration":459306,"Delta":93848366},{"NoteNumber":53,"Velocity":29,"Duration":459306,"SoundDuration":459306,"Delta":93848366},{"NoteNumber":58,"Velocity":42,"Duration":459306,"SoundDuration":459306,"Delta":94331847},{"NoteNumber":62,"Velocity":42,"Duration":459306,"SoundDuration":459306,"Delta":94331847},{"NoteNumber":70,"Velocity":50,"Duration":459306,"SoundDuration":459306,"Delta":94331847},{"NoteNumber":53,"Velocity":34,"Duration":459306,"SoundDuration":459306,"Delta":94331847},{"NoteNumber":46,"Velocity":40,"Duration":459306,"SoundDuration":459306,"Delta":94331847},{"NoteNumber":58,"Velocity":45,"Duration":241351,"SoundDuration":241351,"Delta":95057069},{"NoteNumber":62,"Velocity":45,"Duration":241351,"SoundDuration":241351,"Delta":95057069},{"NoteNumber":65,"Velocity":53,"Duration":241351,"SoundDuration":241351,"Delta":95057069},{"NoteNumber":46,"Velocity":33,"Duration":241351,"SoundDuration":241351,"Delta":95057069},{"NoteNumber":53,"Velocity":39,"Duration":241351,"SoundDuration":241351,"Delta":95057069},{"NoteNumber":67,"Velocity":57,"Duration":482703,"SoundDuration":482703,"Delta":95298420},{"NoteNumber":58,"Velocity":48,"Duration":482703,"SoundDuration":482703,"Delta":95298420},{"NoteNumber":63,"Velocity":48,"Duration":482703,"SoundDuration":482703,"Delta":95298420},{"NoteNumber":39,"Velocity":36,"Duration":482703,"SoundDuration":482703,"Delta":95298420},{"NoteNumber":51,"Velocity":43,"Duration":482703,"SoundDuration":482703,"Delta":95298420},{"NoteNumber":55,"Velocity":42,"Duration":498752,"SoundDuration":498752,"Delta":95781123},{"NoteNumber":58,"Velocity":42,"Duration":498752,"SoundDuration":498752,"Delta":95781123},{"NoteNumber":63,"Velocity":51,"Duration":498752,"SoundDuration":498752,"Delta":95781123},{"NoteNumber":51,"Velocity":38,"Duration":498752,"SoundDuration":498752,"Delta":95781123},{"NoteNumber":43,"Velocity":32,"Duration":498752,"SoundDuration":498752,"Delta":95781123},{"NoteNumber":53,"Velocity":49,"Duration":492610,"SoundDuration":492610,"Delta":96279876},{"NoteNumber":58,"Velocity":49,"Duration":492610,"SoundDuration":492610,"Delta":96279876},{"NoteNumber":65,"Velocity":58,"Duration":492610,"SoundDuration":492610,"Delta":96279876},{"NoteNumber":50,"Velocity":46,"Duration":492610,"SoundDuration":492610,"Delta":96279876},{"NoteNumber":46,"Velocity":39,"Duration":492610,"SoundDuration":492610,"Delta":96279876},{"NoteNumber":53,"Velocity":45,"Duration":243308,"SoundDuration":243308,"Delta":97015796},{"NoteNumber":58,"Velocity":45,"Duration":243308,"SoundDuration":243308,"Delta":97015796},{"NoteNumber":65,"Velocity":54,"Duration":243308,"SoundDuration":243308,"Delta":97015796},{"NoteNumber":46,"Velocity":34,"Duration":243308,"SoundDuration":243308,"Delta":97015796},{"NoteNumber":50,"Velocity":41,"Duration":243308,"SoundDuration":243308,"Delta":97015796},{"NoteNumber":67,"Velocity":59,"Duration":482703,"SoundDuration":482703,"Delta":97259105},{"NoteNumber":55,"Velocity":50,"Duration":482703,"SoundDuration":482703,"Delta":97259105},{"NoteNumber":39,"Velocity":39,"Duration":482703,"SoundDuration":482703,"Delta":97259105},{"NoteNumber":51,"Velocity":46,"Duration":482703,"SoundDuration":482703,"Delta":97259105},{"NoteNumber":55,"Velocity":42,"Duration":500834,"SoundDuration":500834,"Delta":97741808},{"NoteNumber":58,"Velocity":42,"Duration":500834,"SoundDuration":500834,"Delta":97741808},{"NoteNumber":63,"Velocity":51,"Duration":500834,"SoundDuration":500834,"Delta":97741808},{"NoteNumber":51,"Velocity":40,"Duration":500834,"SoundDuration":500834,"Delta":97741808},{"NoteNumber":43,"Velocity":34,"Duration":500834,"SoundDuration":500834,"Delta":97741808},{"NoteNumber":53,"Velocity":51,"Duration":490596,"SoundDuration":490596,"Delta":98242643},{"NoteNumber":58,"Velocity":51,"Duration":490596,"SoundDuration":490596,"Delta":98242643},{"NoteNumber":65,"Velocity":60,"Duration":490596,"SoundDuration":490596,"Delta":98242643},{"NoteNumber":50,"Velocity":48,"Duration":490596,"SoundDuration":490596,"Delta":98242643},{"NoteNumber":46,"Velocity":40,"Duration":490596,"SoundDuration":490596,"Delta":98242643},{"NoteNumber":53,"Velocity":35,"Duration":248344,"SoundDuration":248344,"Delta":98978539},{"NoteNumber":58,"Velocity":35,"Duration":248344,"SoundDuration":248344,"Delta":98978539},{"NoteNumber":62,"Velocity":42,"Duration":248344,"SoundDuration":248344,"Delta":98978539},{"NoteNumber":46,"Velocity":24,"Duration":248344,"SoundDuration":248344,"Delta":98978539},{"NoteNumber":50,"Velocity":29,"Duration":248344,"SoundDuration":248344,"Delta":98978539},{"NoteNumber":58,"Velocity":40,"Duration":505050,"SoundDuration":505050,"Delta":99226883},{"NoteNumber":63,"Velocity":48,"Duration":505050,"SoundDuration":505050,"Delta":99226883},{"NoteNumber":55,"Velocity":40,"Duration":505050,"SoundDuration":505050,"Delta":99226883},{"NoteNumber":46,"Velocity":29,"Duration":505050,"SoundDuration":505050,"Delta":99226883},{"NoteNumber":48,"Velocity":35,"Duration":505050,"SoundDuration":505050,"Delta":99226883},{"NoteNumber":53,"Velocity":34,"Duration":527241,"SoundDuration":527241,"Delta":99731934},{"NoteNumber":60,"Velocity":34,"Duration":527241,"SoundDuration":527241,"Delta":99731934},{"NoteNumber":63,"Velocity":41,"Duration":527241,"SoundDuration":527241,"Delta":99731934},{"NoteNumber":48,"Velocity":31,"Duration":527241,"SoundDuration":527241,"Delta":99731934},{"NoteNumber":45,"Velocity":26,"Duration":527241,"SoundDuration":527241,"Delta":99731934},{"NoteNumber":53,"Velocity":40,"Duration":518135,"SoundDuration":518135,"Delta":100259175},{"NoteNumber":60,"Velocity":40,"Duration":518135,"SoundDuration":518135,"Delta":100259175},{"NoteNumber":62,"Velocity":48,"Duration":518135,"SoundDuration":518135,"Delta":100259175},{"NoteNumber":46,"Velocity":35,"Duration":518135,"SoundDuration":518135,"Delta":100259175},{"NoteNumber":45,"Velocity":29,"Duration":518135,"SoundDuration":518135,"Delta":100259175},{"NoteNumber":53,"Velocity":29,"Duration":269542,"SoundDuration":269542,"Delta":101046852},{"NoteNumber":58,"Velocity":29,"Duration":269542,"SoundDuration":269542,"Delta":101046852},{"NoteNumber":62,"Velocity":35,"Duration":269542,"SoundDuration":269542,"Delta":101046852},{"NoteNumber":46,"Velocity":27,"Duration":269542,"SoundDuration":269542,"Delta":101046852},{"NoteNumber":58,"Velocity":36,"Duration":548947,"SoundDuration":548947,"Delta":101316394},{"NoteNumber":60,"Velocity":43,"Duration":548947,"SoundDuration":548947,"Delta":101316394},{"NoteNumber":55,"Velocity":36,"Duration":548947,"SoundDuration":548947,"Delta":101316394},{"NoteNumber":39,"Velocity":29,"Duration":548947,"SoundDuration":548947,"Delta":101316394},{"NoteNumber":46,"Velocity":35,"Duration":548947,"SoundDuration":548947,"Delta":101316394},{"NoteNumber":53,"Velocity":31,"Duration":575264,"SoundDuration":575264,"Delta":101865342},{"NoteNumber":60,"Velocity":37,"Duration":575264,"SoundDuration":575264,"Delta":101865342},{"NoteNumber":41,"Velocity":25,"Duration":575264,"SoundDuration":575264,"Delta":101865342},{"NoteNumber":45,"Velocity":30,"Duration":575264,"SoundDuration":575264,"Delta":101865342},{"NoteNumber":58,"Velocity":43,"Duration":569800,"SoundDuration":569800,"Delta":102440606},{"NoteNumber":46,"Velocity":36,"Duration":1599838,"SoundDuration":1599838,"Delta":102440606},{"NoteNumber":34,"Velocity":30,"Duration":1599838,"SoundDuration":1599838,"Delta":102440606},{"NoteNumber":63,"Velocity":38,"Duration":252525,"SoundDuration":252525,"Delta":103295308},{"NoteNumber":68,"Velocity":38,"Duration":252525,"SoundDuration":252525,"Delta":103295308},{"NoteNumber":72,"Velocity":45,"Duration":252525,"SoundDuration":252525,"Delta":103295308},{"NoteNumber":56,"Velocity":34,"Duration":252525,"SoundDuration":252525,"Delta":103295308},{"NoteNumber":60,"Velocity":28,"Duration":252525,"SoundDuration":252525,"Delta":103295308},{"NoteNumber":63,"Velocity":41,"Duration":467980,"SoundDuration":467980,"Delta":103547833},{"NoteNumber":70,"Velocity":49,"Duration":467980,"SoundDuration":467980,"Delta":103547833},{"NoteNumber":55,"Velocity":38,"Duration":467980,"SoundDuration":467980,"Delta":103547833},{"NoteNumber":58,"Velocity":32,"Duration":467980,"SoundDuration":467980,"Delta":103547833},{"NoteNumber":62,"Velocity":36,"Duration":485933,"SoundDuration":485933,"Delta":104040444},{"NoteNumber":68,"Velocity":36,"Duration":485933,"SoundDuration":485933,"Delta":104040444},{"NoteNumber":74,"Velocity":43,"Duration":485933,"SoundDuration":485933,"Delta":104040444},{"NoteNumber":53,"Velocity":35,"Duration":485933,"SoundDuration":485933,"Delta":104040444},{"NoteNumber":58,"Velocity":29,"Duration":485933,"SoundDuration":485933,"Delta":104040444},{"NoteNumber":63,"Velocity":38,"Duration":479798,"SoundDuration":479798,"Delta":104551953},{"NoteNumber":67,"Velocity":38,"Duration":479798,"SoundDuration":479798,"Delta":104551953},{"NoteNumber":75,"Velocity":46,"Duration":479798,"SoundDuration":479798,"Delta":104551953},{"NoteNumber":58,"Velocity":32,"Duration":479798,"SoundDuration":479798,"Delta":104551953},{"NoteNumber":51,"Velocity":38,"Duration":479798,"SoundDuration":479798,"Delta":104551953},{"NoteNumber":63,"Velocity":36,"Duration":249376,"SoundDuration":249376,"Delta":105306381},{"NoteNumber":72,"Velocity":43,"Duration":249376,"SoundDuration":249376,"Delta":105306381},{"NoteNumber":56,"Velocity":32,"Duration":249376,"SoundDuration":249376,"Delta":105306381},{"NoteNumber":60,"Velocity":27,"Duration":249376,"SoundDuration":249376,"Delta":105306381},{"NoteNumber":63,"Velocity":42,"Duration":473815,"SoundDuration":473815,"Delta":105555757},{"NoteNumber":70,"Velocity":50,"Duration":473815,"SoundDuration":473815,"Delta":105555757},{"NoteNumber":55,"Velocity":38,"Duration":473815,"SoundDuration":473815,"Delta":105555757},{"NoteNumber":58,"Velocity":32,"Duration":473815,"SoundDuration":473815,"Delta":105555757},{"NoteNumber":62,"Velocity":37,"Duration":490111,"SoundDuration":490111,"Delta":106054510},{"NoteNumber":68,"Velocity":37,"Duration":490111,"SoundDuration":490111,"Delta":106054510},{"NoteNumber":74,"Velocity":44,"Duration":490111,"SoundDuration":490111,"Delta":106054510},{"NoteNumber":53,"Velocity":33,"Duration":490111,"SoundDuration":490111,"Delta":106054510},{"NoteNumber":58,"Velocity":28,"Duration":490111,"SoundDuration":490111,"Delta":106054510},{"NoteNumber":63,"Velocity":38,"Duration":490111,"SoundDuration":490111,"Delta":106570417},{"NoteNumber":67,"Velocity":38,"Duration":490111,"SoundDuration":490111,"Delta":106570417},{"NoteNumber":75,"Velocity":45,"Duration":490111,"SoundDuration":490111,"Delta":106570417},{"NoteNumber":58,"Velocity":33,"Duration":490111,"SoundDuration":490111,"Delta":106570417},{"NoteNumber":51,"Velocity":39,"Duration":490111,"SoundDuration":490111,"Delta":106570417},{"NoteNumber":67,"Velocity":39,"Duration":254668,"SoundDuration":254668,"Delta":107340993},{"NoteNumber":63,"Velocity":39,"Duration":254668,"SoundDuration":254668,"Delta":107340993},{"NoteNumber":70,"Velocity":39,"Duration":254668,"SoundDuration":254668,"Delta":107340993},{"NoteNumber":51,"Velocity":34,"Duration":254668,"SoundDuration":254668,"Delta":107340993},{"NoteNumber":58,"Velocity":34,"Duration":254668,"SoundDuration":254668,"Delta":107340993},{"NoteNumber":67,"Velocity":45,"Duration":520381,"SoundDuration":520381,"Delta":107595662},{"NoteNumber":63,"Velocity":45,"Duration":520381,"SoundDuration":520381,"Delta":107595662},{"NoteNumber":75,"Velocity":53,"Duration":520381,"SoundDuration":520381,"Delta":107595662},{"NoteNumber":48,"Velocity":36,"Duration":520381,"SoundDuration":520381,"Delta":107595662},{"NoteNumber":58,"Velocity":43,"Duration":520381,"SoundDuration":520381,"Delta":107595662},{"NoteNumber":62,"Velocity":45,"Duration":529567,"SoundDuration":529567,"Delta":108116044},{"NoteNumber":66,"Velocity":45,"Duration":529567,"SoundDuration":529567,"Delta":108116044},{"NoteNumber":74,"Velocity":53,"Duration":529567,"SoundDuration":529567,"Delta":108116044},{"NoteNumber":50,"Velocity":35,"Duration":529567,"SoundDuration":529567,"Delta":108116044},{"NoteNumber":57,"Velocity":42,"Duration":529567,"SoundDuration":529567,"Delta":108116044},{"NoteNumber":62,"Velocity":48,"Duration":529567,"SoundDuration":529567,"Delta":108645612},{"NoteNumber":67,"Velocity":48,"Duration":529567,"SoundDuration":529567,"Delta":108645612},{"NoteNumber":70,"Velocity":57,"Duration":529567,"SoundDuration":529567,"Delta":108645612},{"NoteNumber":55,"Velocity":45,"Duration":529567,"SoundDuration":529567,"Delta":108645612},{"NoteNumber":43,"Velocity":38,"Duration":529567,"SoundDuration":529567,"Delta":108645612},{"NoteNumber":61,"Velocity":34,"Duration":296149,"SoundDuration":296149,"Delta":109435371},{"NoteNumber":70,"Velocity":41,"Duration":296149,"SoundDuration":296149,"Delta":109435371},{"NoteNumber":43,"Velocity":24,"Duration":296149,"SoundDuration":296149,"Delta":109435371},{"NoteNumber":51,"Velocity":29,"Duration":296149,"SoundDuration":296149,"Delta":109435371},{"NoteNumber":60,"Velocity":39,"Duration":567108,"SoundDuration":567108,"Delta":109731521},{"NoteNumber":72,"Velocity":47,"Duration":567108,"SoundDuration":567108,"Delta":109731521},{"NoteNumber":44,"Velocity":29,"Duration":567108,"SoundDuration":567108,"Delta":109731521},{"NoteNumber":51,"Velocity":35,"Duration":567108,"SoundDuration":567108,"Delta":109731521},{"NoteNumber":65,"Velocity":34,"Duration":586510,"SoundDuration":586510,"Delta":110298629},{"NoteNumber":70,"Velocity":41,"Duration":586510,"SoundDuration":586510,"Delta":110298629},{"NoteNumber":46,"Velocity":27,"Duration":586510,"SoundDuration":586510,"Delta":110298629},{"NoteNumber":50,"Velocity":32,"Duration":586510,"SoundDuration":586510,"Delta":110298629},{"NoteNumber":58,"Velocity":40,"Duration":567108,"SoundDuration":567108,"Delta":110885139},{"NoteNumber":64,"Velocity":40,"Duration":567108,"SoundDuration":567108,"Delta":110885139},{"NoteNumber":67,"Velocity":48,"Duration":567108,"SoundDuration":567108,"Delta":110885139},{"NoteNumber":48,"Velocity":34,"Duration":567108,"SoundDuration":567108,"Delta":110885139},{"NoteNumber":58,"Velocity":34,"Duration":267141,"SoundDuration":267141,"Delta":111735801},{"NoteNumber":64,"Velocity":34,"Duration":267141,"SoundDuration":267141,"Delta":111735801},{"NoteNumber":67,"Velocity":41,"Duration":267141,"SoundDuration":267141,"Delta":111735801},{"NoteNumber":48,"Velocity":29,"Duration":267141,"SoundDuration":267141,"Delta":111735801},{"NoteNumber":65,"Velocity":39,"Duration":546447,"SoundDuration":546447,"Delta":112002943},{"NoteNumber":60,"Velocity":39,"Duration":546447,"SoundDuration":546447,"Delta":112002943},{"NoteNumber":68,"Velocity":47,"Duration":546447,"SoundDuration":546447,"Delta":112002943},{"NoteNumber":41,"Velocity":35,"Duration":546447,"SoundDuration":546447,"Delta":112002943},{"NoteNumber":56,"Velocity":34,"Duration":423330,"SoundDuration":423330,"Delta":112549391},{"NoteNumber":62,"Velocity":34,"Duration":564440,"SoundDuration":564440,"Delta":112549391},{"NoteNumber":65,"Velocity":41,"Duration":564440,"SoundDuration":564440,"Delta":112549391},{"NoteNumber":46,"Velocity":32,"Duration":564440,"SoundDuration":564440,"Delta":112549391},{"NoteNumber":57,"Velocity":34,"Duration":141109,"SoundDuration":141109,"Delta":112972721},{"NoteNumber":58,"Velocity":40,"Duration":564439,"SoundDuration":564439,"Delta":113113831},{"NoteNumber":62,"Velocity":40,"Duration":564439,"SoundDuration":564439,"Delta":113113831},{"NoteNumber":67,"Velocity":48,"Duration":564439,"SoundDuration":564439,"Delta":113113831},{"NoteNumber":43,"Velocity":34,"Duration":564439,"SoundDuration":564439,"Delta":113113831},{"NoteNumber":58,"Velocity":34,"Duration":267141,"SoundDuration":267141,"Delta":113955993},{"NoteNumber":64,"Velocity":34,"Duration":267141,"SoundDuration":267141,"Delta":113955993},{"NoteNumber":67,"Velocity":41,"Duration":267141,"SoundDuration":267141,"Delta":113955993},{"NoteNumber":48,"Velocity":29,"Duration":267141,"SoundDuration":267141,"Delta":113955993},{"NoteNumber":65,"Velocity":39,"Duration":539084,"SoundDuration":539084,"Delta":114223134},{"NoteNumber":60,"Velocity":39,"Duration":539084,"SoundDuration":539084,"Delta":114223134},{"NoteNumber":68,"Velocity":47,"Duration":539084,"SoundDuration":539084,"Delta":114223134},{"NoteNumber":41,"Velocity":35,"Duration":539084,"SoundDuration":539084,"Delta":114223134},{"NoteNumber":56,"Velocity":34,"Duration":567108,"SoundDuration":567108,"Delta":114762218},{"NoteNumber":62,"Velocity":34,"Duration":567108,"SoundDuration":567108,"Delta":114762218},{"NoteNumber":65,"Velocity":41,"Duration":567108,"SoundDuration":567108,"Delta":114762218},{"NoteNumber":46,"Velocity":32,"Duration":567108,"SoundDuration":567108,"Delta":114762218},{"NoteNumber":55,"Velocity":40,"Duration":567107,"SoundDuration":567107,"Delta":115329326},{"NoteNumber":63,"Velocity":48,"Duration":567107,"SoundDuration":567107,"Delta":115329326},{"NoteNumber":39,"Velocity":34,"Duration":567107,"SoundDuration":567107,"Delta":115329326},{"NoteNumber":55,"Velocity":34,"Duration":274473,"SoundDuration":274473,"Delta":116179988},{"NoteNumber":63,"Velocity":41,"Duration":2106232,"SoundDuration":2106232,"Delta":116179988},{"NoteNumber":39,"Velocity":29,"Duration":274473,"SoundDuration":274473,"Delta":116179988},{"NoteNumber":60,"Velocity":39,"Duration":588234,"SoundDuration":588234,"Delta":116454462},{"NoteNumber":44,"Velocity":35,"Duration":1209997,"SoundDuration":1209997,"Delta":116454462},{"NoteNumber":59,"Velocity":34,"Duration":621762,"SoundDuration":621762,"Delta":117042697},{"NoteNumber":58,"Velocity":40,"Duration":621761,"SoundDuration":621761,"Delta":117664459},{"NoteNumber":43,"Velocity":34,"Duration":621761,"SoundDuration":621761,"Delta":117664459},{"NoteNumber":39,"Velocity":26,"Duration":368098,"SoundDuration":368098,"Delta":118597102},{"NoteNumber":51,"Velocity":26,"Duration":3270397,"SoundDuration":3270397,"Delta":118597102},{"NoteNumber":63,"Velocity":26,"Duration":3270397,"SoundDuration":3270397,"Delta":118597102},{"NoteNumber":48,"Velocity":34,"Duration":833332,"SoundDuration":833332,"Delta":118965200},{"NoteNumber":56,"Velocity":31,"Duration":1867815,"SoundDuration":1867815,"Delta":118965200},{"NoteNumber":47,"Velocity":32,"Duration":1034482,"SoundDuration":1034482,"Delta":119798533},{"NoteNumber":46,"Velocity":30,"Duration":1034483,"SoundDuration":1034483,"Delta":120833016},{"NoteNumber":55,"Velocity":23,"Duration":1034483,"SoundDuration":1034483,"Delta":120833016}]}