{"title":"Lieder ohne Worte Op. 30 No. 1","artist":"Piano","durationMs":255092,"midiSha256":"bf1a1a85909ac508e49e55dcaddd428085374e7c253b76556ff900a073920f69","midiObject":[{"NoteNumber":39,"Velocity":27,"Duration":910191,"SoundDuration":910191,"Delta":0},{"NoteNumber":55,"Velocity":32,"Duration":297221,"SoundDuration":297221,"Delta":308880},{"NoteNumber":46,"Velocity":24,"Duration":297221,"SoundDuration":297221,"Delta":308880},{"NoteNumber":58,"Velocity":31,"Duration":304090,"SoundDuration":304090,"Delta":606101},{"NoteNumber":51,"Velocity":25,"Duration":304090,"SoundDuration":304090,"Delta":606101},{"NoteNumber":63,"Velocity":33,"Duration":297220,"SoundDuration":297220,"Delta":910191},{"NoteNumber":55,"Velocity":27,"Duration":297220,"SoundDuration":297220,"Delta":910191},{"NoteNumber":58,"Velocity":31,"Duration":306513,"SoundDuration":306513,"Delta":1207412},{"NoteNumber":51,"Velocity":24,"Duration":306513,"SoundDuration":306513,"Delta":1207412},{"NoteNumber":55,"Velocity":31,"Duration":318826,"SoundDuration":318826,"Delta":1513925},{"NoteNumber":46,"Velocity":24,"Duration":318826,"SoundDuration":318826,"Delta":1513925},{"NoteNumber":39,"Velocity":27,"Duration":912614,"SoundDuration":912614,"Delta":1832752},{"NoteNumber":55,"Velocity":31,"Duration":297220,"SoundDuration":297220,"Delta":2141632},{"NoteNumber":46,"Velocity":25,"Duration":297220,"SoundDuration":297220,"Delta":2141632},{"NoteNumber":58,"Velocity":31,"Duration":306513,"SoundDuration":306513,"Delta":2438853},{"NoteNumber":51,"Velocity":25,"Duration":306513,"SoundDuration":306513,"Delta":2438853},{"NoteNumber":63,"Velocity":51,"Duration":947495,"SoundDuration":947495,"Delta":2745367},{"NoteNumber":55,"Velocity":27,"Duration":297220,"SoundDuration":297220,"Delta":2745367},{"NoteNumber":58,"Velocity":30,"Duration":306513,"SoundDuration":306513,"Delta":3042588},{"NoteNumber":51,"Velocity":24,"Duration":306513,"SoundDuration":306513,"Delta":3042588},{"NoteNumber":55,"Velocity":30,"Duration":343760,"SoundDuration":343760,"Delta":3349101},{"NoteNumber":46,"Velocity":24,"Duration":343760,"SoundDuration":343760,"Delta":3349101},{"NoteNumber":67,"Velocity":56,"Duration":1355418,"SoundDuration":1355418,"Delta":3692862},{"NoteNumber":39,"Velocity":27,"Duration":904940,"SoundDuration":904940,"Delta":3692862},{"NoteNumber":55,"Velocity":32,"Duration":291970,"SoundDuration":291970,"Delta":4001742},{"NoteNumber":46,"Velocity":24,"Duration":291970,"SoundDuration":291970,"Delta":4001742},{"NoteNumber":58,"Velocity":31,"Duration":304089,"SoundDuration":304089,"Delta":4293713},{"NoteNumber":51,"Velocity":25,"Duration":304089,"SoundDuration":304089,"Delta":4293713},{"NoteNumber":63,"Velocity":37,"Duration":297220,"SoundDuration":297220,"Delta":4597803},{"NoteNumber":55,"Velocity":27,"Duration":297220,"SoundDuration":297220,"Delta":4597803},{"NoteNumber":58,"Velocity":31,"Duration":306513,"SoundDuration":306513,"Delta":4895023},{"NoteNumber":51,"Velocity":24,"Duration":306513,"SoundDuration":306513,"Delta":4895023},{"NoteNumber":68,"Velocity":50,"Duration":472083,"SoundDuration":472083,"Delta":5048280},{"NoteNumber":55,"Velocity":31,"Duration":318826,"SoundDuration":318826,"Delta":5201537},{"NoteNumber":46,"Velocity":24,"Duration":318826,"SoundDuration":318826,"Delta":5201537},{"NoteNumber":70,"Velocity":62,"Duration":912614,"SoundDuration":912614,"Delta":5520364},{"NoteNumber":39,"Velocity":27,"Duration":912614,"SoundDuration":912614,"Delta":5520364},{"NoteNumber":55,"Velocity":31,"Duration":297221,"SoundDuration":297221,"Delta":5829244},{"NoteNumber":46,"Velocity":25,"Duration":297221,"SoundDuration":297221,"Delta":5829244},{"NoteNumber":58,"Velocity":31,"Duration":306513,"SoundDuration":306513,"Delta":6126465},{"NoteNumber":51,"Velocity":25,"Duration":306513,"SoundDuration":306513,"Delta":6126465},{"NoteNumber":63,"Velocity":52,"Duration":922561,"SoundDuration":922561,"Delta":6432978},{"NoteNumber":55,"Velocity":27,"Duration":297220,"SoundDuration":297220,"Delta":6432978},{"NoteNumber":58,"Velocity":30,"Duration":306513,"SoundDuration":306513,"Delta":6730199},{"NoteNumber":51,"Velocity":24,"Duration":306513,"SoundDuration":306513,"Delta":6730199},{"NoteNumber":55,"Velocity":30,"Duration":318826,"SoundDuration":318826,"Delta":7036713},{"NoteNumber":46,"Velocity":24,"Duration":318826,"SoundDuration":318826,"Delta":7036713},{"NoteNumber":68,"Velocity":56,"Duration":910191,"SoundDuration":910191,"Delta":7355539},{"NoteNumber":34,"Velocity":27,"Duration":910191,"SoundDuration":910191,"Delta":7355539},{"NoteNumber":56,"Velocity":32,"Duration":297220,"SoundDuration":297220,"Delta":7664420},{"NoteNumber":46,"Velocity":24,"Duration":297220,"SoundDuration":297220,"Delta":7664420},{"NoteNumber":58,"Velocity":31,"Duration":304090,"SoundDuration":304090,"Delta":7961640},{"NoteNumber":50,"Velocity":25,"Duration":304090,"SoundDuration":304090,"Delta":7961640},{"NoteNumber":62,"Velocity":40,"Duration":922560,"SoundDuration":922560,"Delta":8265730},{"NoteNumber":53,"Velocity":27,"Duration":297221,"SoundDuration":297221,"Delta":8265730},{"NoteNumber":58,"Velocity":31,"Duration":306513,"SoundDuration":306513,"Delta":8562952},{"NoteNumber":50,"Velocity":24,"Duration":306513,"SoundDuration":306513,"Delta":8562952},{"NoteNumber":56,"Velocity":31,"Duration":318826,"SoundDuration":318826,"Delta":8869465},{"NoteNumber":46,"Velocity":24,"Duration":318826,"SoundDuration":318826,"Delta":8869465},{"NoteNumber":63,"Velocity":62,"Duration":1380361,"SoundDuration":1380361,"Delta":9188291},{"NoteNumber":36,"Velocity":27,"Duration":918601,"SoundDuration":918601,"Delta":9188291},{"NoteNumber":51,"Velocity":32,"Duration":297220,"SoundDuration":297220,"Delta":9497172},{"NoteNumber":43,"Velocity":32,"Duration":297220,"SoundDuration":297220,"Delta":9497172},{"NoteNumber":55,"Velocity":32,"Duration":312500,"SoundDuration":312500,"Delta":9794393},{"NoteNumber":48,"Velocity":32,"Duration":312500,"SoundDuration":312500,"Delta":9794393},{"NoteNumber":60,"Velocity":35,"Duration":303030,"SoundDuration":303030,"Delta":10106893},{"NoteNumber":51,"Velocity":35,"Duration":303030,"SoundDuration":303030,"Delta":10106893},{"NoteNumber":55,"Velocity":29,"Duration":317460,"SoundDuration":317460,"Delta":10409923},{"NoteNumber":48,"Velocity":29,"Duration":317460,"SoundDuration":317460,"Delta":10409923},{"NoteNumber":62,"Velocity":58,"Duration":494864,"SoundDuration":494864,"Delta":10568653},{"NoteNumber":51,"Velocity":30,"Duration":336134,"SoundDuration":336134,"Delta":10727383},{"NoteNumber":43,"Velocity":30,"Duration":336134,"SoundDuration":336134,"Delta":10727383},{"NoteNumber":60,"Velocity":64,"Duration":1360669,"SoundDuration":1360669,"Delta":11063518},{"NoteNumber":34,"Velocity":32,"Duration":910191,"SoundDuration":910191,"Delta":11063518},{"NoteNumber":44,"Velocity":28,"Duration":297220,"SoundDuration":297220,"Delta":11372398},{"NoteNumber":48,"Velocity":28,"Duration":304090,"SoundDuration":304090,"Delta":11669619},{"NoteNumber":53,"Velocity":35,"Duration":297221,"SoundDuration":297221,"Delta":11973709},{"NoteNumber":48,"Velocity":27,"Duration":306513,"SoundDuration":306513,"Delta":12270930},{"NoteNumber":65,"Velocity":59,"Duration":472083,"SoundDuration":472083,"Delta":12424187},{"NoteNumber":44,"Velocity":27,"Duration":1231441,"SoundDuration":1231441,"Delta":12577443},{"NoteNumber":68,"Velocity":63,"Duration":1363092,"SoundDuration":1363092,"Delta":12896270},{"NoteNumber":32,"Velocity":31,"Duration":912614,"SoundDuration":912614,"Delta":12896270},{"NoteNumber":48,"Velocity":31,"Duration":297220,"SoundDuration":297220,"Delta":13205150},{"NoteNumber":53,"Velocity":32,"Duration":306513,"SoundDuration":306513,"Delta":13502371},{"NoteNumber":56,"Velocity":36,"Duration":297221,"SoundDuration":297221,"Delta":13808885},{"NoteNumber":53,"Velocity":32,"Duration":306513,"SoundDuration":306513,"Delta":14106106},{"NoteNumber":65,"Velocity":66,"Duration":472083,"SoundDuration":472083,"Delta":14259362},{"NoteNumber":48,"Velocity":32,"Duration":318826,"SoundDuration":318826,"Delta":14412619},{"NoteNumber":75,"Velocity":76,"Duration":939114,"SoundDuration":939114,"Delta":14731446},{"NoteNumber":34,"Velocity":29,"Duration":939114,"SoundDuration":939114,"Delta":14731446},{"NoteNumber":46,"Velocity":29,"Duration":939114,"SoundDuration":939114,"Delta":14731446},{"NoteNumber":53,"Velocity":31,"Duration":306513,"SoundDuration":306513,"Delta":15050272},{"NoteNumber":56,"Velocity":28,"Duration":313774,"SoundDuration":313774,"Delta":15356786},{"NoteNumber":74,"Velocity":70,"Duration":1416806,"SoundDuration":1416806,"Delta":15670560},{"NoteNumber":68,"Velocity":36,"Duration":313774,"SoundDuration":313774,"Delta":15670560},{"NoteNumber":58,"Velocity":32,"Duration":313774,"SoundDuration":313774,"Delta":15670560},{"NoteNumber":65,"Velocity":36,"Duration":313774,"SoundDuration":313774,"Delta":15984335},{"NoteNumber":56,"Velocity":28,"Duration":313774,"SoundDuration":313774,"Delta":15984335},{"NoteNumber":62,"Velocity":31,"Duration":301795,"SoundDuration":301795,"Delta":16298110},{"NoteNumber":53,"Velocity":27,"Duration":301795,"SoundDuration":301795,"Delta":16298110},{"NoteNumber":68,"Velocity":33,"Duration":323417,"SoundDuration":323417,"Delta":16599905},{"NoteNumber":58,"Velocity":27,"Duration":323417,"SoundDuration":323417,"Delta":16599905},{"NoteNumber":65,"Velocity":29,"Duration":330853,"SoundDuration":330853,"Delta":16923323},{"NoteNumber":56,"Velocity":23,"Duration":330853,"SoundDuration":330853,"Delta":16923323},{"NoteNumber":72,"Velocity":53,"Duration":506182,"SoundDuration":506182,"Delta":17087367},{"NoteNumber":62,"Velocity":29,"Duration":339373,"SoundDuration":339373,"Delta":17254176},{"NoteNumber":53,"Velocity":23,"Duration":339373,"SoundDuration":339373,"Delta":17254176},{"NoteNumber":70,"Velocity":51,"Duration":529567,"SoundDuration":529567,"Delta":17593550},{"NoteNumber":68,"Velocity":27,"Duration":353045,"SoundDuration":353045,"Delta":17593550},{"NoteNumber":58,"Velocity":23,"Duration":353045,"SoundDuration":353045,"Delta":17593550},{"NoteNumber":65,"Velocity":27,"Duration":353044,"SoundDuration":353044,"Delta":17946595},{"NoteNumber":56,"Velocity":18,"Duration":353044,"SoundDuration":353044,"Delta":17946595},{"NoteNumber":68,"Velocity":46,"Duration":560325,"SoundDuration":560325,"Delta":18123117},{"NoteNumber":62,"Velocity":23,"Duration":383803,"SoundDuration":383803,"Delta":18299640},{"NoteNumber":53,"Velocity":18,"Duration":383803,"SoundDuration":383803,"Delta":18299640},{"NoteNumber":67,"Velocity":52,"Duration":1353303,"SoundDuration":1353303,"Delta":18683443},{"NoteNumber":39,"Velocity":27,"Duration":902825,"SoundDuration":902825,"Delta":18683443},{"NoteNumber":55,"Velocity":30,"Duration":289855,"SoundDuration":289855,"Delta":18992323},{"NoteNumber":46,"Velocity":24,"Duration":289855,"SoundDuration":289855,"Delta":18992323},{"NoteNumber":58,"Velocity":30,"Duration":304089,"SoundDuration":304089,"Delta":19282178},{"NoteNumber":51,"Velocity":25,"Duration":304089,"SoundDuration":304089,"Delta":19282178},{"NoteNumber":63,"Velocity":38,"Duration":297221,"SoundDuration":297221,"Delta":19586268},{"NoteNumber":55,"Velocity":27,"Duration":297221,"SoundDuration":297221,"Delta":19586268},{"NoteNumber":58,"Velocity":31,"Duration":306513,"SoundDuration":306513,"Delta":19883489},{"NoteNumber":51,"Velocity":24,"Duration":306513,"SoundDuration":306513,"Delta":19883489},{"NoteNumber":68,"Velocity":51,"Duration":472083,"SoundDuration":472083,"Delta":20036746},{"NoteNumber":55,"Velocity":31,"Duration":318826,"SoundDuration":318826,"Delta":20190003},{"NoteNumber":46,"Velocity":24,"Duration":318826,"SoundDuration":318826,"Delta":20190003},{"NoteNumber":70,"Velocity":56,"Duration":912614,"SoundDuration":912614,"Delta":20508829},{"NoteNumber":39,"Velocity":27,"Duration":912614,"SoundDuration":912614,"Delta":20508829},{"NoteNumber":55,"Velocity":31,"Duration":297221,"SoundDuration":297221,"Delta":20817710},{"NoteNumber":46,"Velocity":25,"Duration":297221,"SoundDuration":297221,"Delta":20817710},{"NoteNumber":58,"Velocity":31,"Duration":306513,"SoundDuration":306513,"Delta":21114931},{"NoteNumber":51,"Velocity":25,"Duration":306513,"SoundDuration":306513,"Delta":21114931},{"NoteNumber":63,"Velocity":52,"Duration":915195,"SoundDuration":915195,"Delta":21421444},{"NoteNumber":55,"Velocity":27,"Duration":289854,"SoundDuration":289854,"Delta":21421444},{"NoteNumber":58,"Velocity":30,"Duration":306513,"SoundDuration":306513,"Delta":21711299},{"NoteNumber":51,"Velocity":24,"Duration":306513,"SoundDuration":306513,"Delta":21711299},{"NoteNumber":55,"Velocity":30,"Duration":318826,"SoundDuration":318826,"Delta":22017812},{"NoteNumber":46,"Velocity":24,"Duration":318826,"SoundDuration":318826,"Delta":22017812},{"NoteNumber":68,"Velocity":56,"Duration":910191,"SoundDuration":910191,"Delta":22336639},{"NoteNumber":34,"Velocity":27,"Duration":910191,"SoundDuration":910191,"Delta":22336639},{"NoteNumber":56,"Velocity":32,"Duration":297221,"SoundDuration":297221,"Delta":22645519},{"NoteNumber":46,"Velocity":24,"Duration":297221,"SoundDuration":297221,"Delta":22645519},{"NoteNumber":58,"Velocity":31,"Duration":304089,"SoundDuration":304089,"Delta":22942740},{"NoteNumber":50,"Velocity":25,"Duration":304089,"SoundDuration":304089,"Delta":22942740},{"NoteNumber":62,"Velocity":42,"Duration":922561,"SoundDuration":922561,"Delta":23246830},{"NoteNumber":53,"Velocity":27,"Duration":297221,"SoundDuration":297221,"Delta":23246830},{"NoteNumber":58,"Velocity":31,"Duration":306513,"SoundDuration":306513,"Delta":23544051},{"NoteNumber":50,"Velocity":24,"Duration":306513,"SoundDuration":306513,"Delta":23544051},{"NoteNumber":56,"Velocity":31,"Duration":318826,"SoundDuration":318826,"Delta":23850565},{"NoteNumber":46,"Velocity":24,"Duration":318826,"SoundDuration":318826,"Delta":23850565},{"NoteNumber":63,"Velocity":62,"Duration":1363092,"SoundDuration":1363092,"Delta":24169391},{"NoteNumber":36,"Velocity":27,"Duration":912614,"SoundDuration":912614,"Delta":24169391},{"NoteNumber":51,"Velocity":32,"Duration":297221,"SoundDuration":297221,"Delta":24478272},{"NoteNumber":43,"Velocity":32,"Duration":297221,"SoundDuration":297221,"Delta":24478272},{"NoteNumber":55,"Velocity":32,"Duration":306513,"SoundDuration":306513,"Delta":24775493},{"NoteNumber":48,"Velocity":32,"Duration":306513,"SoundDuration":306513,"Delta":24775493},{"NoteNumber":60,"Velocity":35,"Duration":297221,"SoundDuration":297221,"Delta":25082006},{"NoteNumber":51,"Velocity":35,"Duration":297221,"SoundDuration":297221,"Delta":25082006},{"NoteNumber":55,"Velocity":29,"Duration":306513,"SoundDuration":306513,"Delta":25379227},{"NoteNumber":48,"Velocity":29,"Duration":306513,"SoundDuration":306513,"Delta":25379227},{"NoteNumber":63,"Velocity":58,"Duration":472083,"SoundDuration":472083,"Delta":25532484},{"NoteNumber":51,"Velocity":30,"Duration":318826,"SoundDuration":318826,"Delta":25685740},{"NoteNumber":43,"Velocity":30,"Duration":318826,"SoundDuration":318826,"Delta":25685740},{"NoteNumber":65,"Velocity":64,"Duration":1207412,"SoundDuration":1207412,"Delta":26004567},{"NoteNumber":36,"Velocity":29,"Duration":910191,"SoundDuration":910191,"Delta":26004567},{"NoteNumber":43,"Velocity":26,"Duration":297221,"SoundDuration":297221,"Delta":26313447},{"NoteNumber":53,"Velocity":26,"Duration":297221,"SoundDuration":297221,"Delta":26313447},{"NoteNumber":50,"Velocity":26,"Duration":304089,"SoundDuration":304089,"Delta":26610668},{"NoteNumber":55,"Velocity":26,"Duration":304089,"SoundDuration":304089,"Delta":26610668},{"NoteNumber":53,"Velocity":29,"Duration":297221,"SoundDuration":297221,"Delta":26914758},{"NoteNumber":59,"Velocity":29,"Duration":297221,"SoundDuration":297221,"Delta":26914758},{"NoteNumber":63,"Velocity":60,"Duration":306513,"SoundDuration":306513,"Delta":27211979},{"NoteNumber":50,"Velocity":26,"Duration":306513,"SoundDuration":306513,"Delta":27211979},{"NoteNumber":55,"Velocity":26,"Duration":306513,"SoundDuration":306513,"Delta":27211979},{"NoteNumber":62,"Velocity":58,"Duration":318826,"SoundDuration":318826,"Delta":27518493},{"NoteNumber":53,"Velocity":29,"Duration":318826,"SoundDuration":318826,"Delta":27518493},{"NoteNumber":43,"Velocity":26,"Duration":318826,"SoundDuration":318826,"Delta":27518493},{"NoteNumber":60,"Velocity":63,"Duration":457490,"SoundDuration":457490,"Delta":27837319},{"NoteNumber":36,"Velocity":27,"Duration":912614,"SoundDuration":912614,"Delta":27837319},{"NoteNumber":43,"Velocity":31,"Duration":297221,"SoundDuration":297221,"Delta":28146200},{"NoteNumber":63,"Velocity":60,"Duration":455123,"SoundDuration":455123,"Delta":28294810},{"NoteNumber":48,"Velocity":32,"Duration":306513,"SoundDuration":306513,"Delta":28443421},{"NoteNumber":67,"Velocity":66,"Duration":450477,"SoundDuration":450477,"Delta":28749934},{"NoteNumber":51,"Velocity":37,"Duration":297221,"SoundDuration":297221,"Delta":28749934},{"NoteNumber":48,"Velocity":35,"Duration":306513,"SoundDuration":306513,"Delta":29047155},{"NoteNumber":72,"Velocity":71,"Duration":472083,"SoundDuration":472083,"Delta":29200412},{"NoteNumber":43,"Velocity":35,"Duration":318826,"SoundDuration":318826,"Delta":29353668},{"NoteNumber":77,"Velocity":76,"Duration":1252889,"SoundDuration":1252889,"Delta":29672495},{"NoteNumber":36,"Velocity":37,"Duration":939114,"SoundDuration":939114,"Delta":29672495},{"NoteNumber":65,"Velocity":45,"Duration":306513,"SoundDuration":306513,"Delta":29991322},{"NoteNumber":50,"Velocity":31,"Duration":306513,"SoundDuration":306513,"Delta":29991322},{"NoteNumber":67,"Velocity":45,"Duration":313774,"SoundDuration":313774,"Delta":30297835},{"NoteNumber":55,"Velocity":28,"Duration":313774,"SoundDuration":313774,"Delta":30297835},{"NoteNumber":71,"Velocity":36,"Duration":313774,"SoundDuration":313774,"Delta":30611610},{"NoteNumber":62,"Velocity":32,"Duration":313774,"SoundDuration":313774,"Delta":30611610},{"NoteNumber":75,"Velocity":65,"Duration":313774,"SoundDuration":313774,"Delta":30925384},{"NoteNumber":67,"Velocity":45,"Duration":313774,"SoundDuration":313774,"Delta":30925384},{"NoteNumber":55,"Velocity":28,"Duration":313774,"SoundDuration":313774,"Delta":30925384},{"NoteNumber":74,"Velocity":62,"Duration":301795,"SoundDuration":301795,"Delta":31239159},{"NoteNumber":65,"Velocity":44,"Duration":301795,"SoundDuration":301795,"Delta":31239159},{"NoteNumber":50,"Velocity":27,"Duration":301795,"SoundDuration":301795,"Delta":31239159},{"NoteNumber":72,"Velocity":63,"Duration":476493,"SoundDuration":476493,"Delta":31540955},{"NoteNumber":36,"Velocity":29,"Duration":977028,"SoundDuration":977028,"Delta":31540955},{"NoteNumber":51,"Velocity":24,"Duration":325415,"SoundDuration":325415,"Delta":31856077},{"NoteNumber":67,"Velocity":54,"Duration":500535,"SoundDuration":500535,"Delta":32017448},{"NoteNumber":55,"Velocity":24,"Duration":336490,"SoundDuration":336490,"Delta":32181493},{"NoteNumber":69,"Velocity":57,"Duration":520201,"SoundDuration":520201,"Delta":32517983},{"NoteNumber":60,"Velocity":25,"Duration":346800,"SoundDuration":346800,"Delta":32517983},{"NoteNumber":55,"Velocity":21,"Duration":346800,"SoundDuration":346800,"Delta":32864784},{"NoteNumber":70,"Velocity":54,"Duration":542881,"SoundDuration":542881,"Delta":33038184},{"NoteNumber":51,"Velocity":21,"Duration":369481,"SoundDuration":369481,"Delta":33211584},{"NoteNumber":70,"Velocity":56,"Duration":910191,"SoundDuration":910191,"Delta":33581065},{"NoteNumber":41,"Velocity":27,"Duration":910191,"SoundDuration":910191,"Delta":33581065},{"NoteNumber":58,"Velocity":32,"Duration":297220,"SoundDuration":297220,"Delta":33889946},{"NoteNumber":50,"Velocity":24,"Duration":297220,"SoundDuration":297220,"Delta":33889946},{"NoteNumber":62,"Velocity":31,"Duration":304090,"SoundDuration":304090,"Delta":34187167},{"NoteNumber":53,"Velocity":25,"Duration":304090,"SoundDuration":304090,"Delta":34187167},{"NoteNumber":65,"Velocity":49,"Duration":922560,"SoundDuration":922560,"Delta":34491257},{"NoteNumber":58,"Velocity":27,"Duration":297221,"SoundDuration":297221,"Delta":34491257},{"NoteNumber":62,"Velocity":31,"Duration":306513,"SoundDuration":306513,"Delta":34788478},{"NoteNumber":53,"Velocity":24,"Duration":306513,"SoundDuration":306513,"Delta":34788478},{"NoteNumber":58,"Velocity":31,"Duration":318826,"SoundDuration":318826,"Delta":35094991},{"NoteNumber":50,"Velocity":24,"Duration":318826,"SoundDuration":318826,"Delta":35094991},{"NoteNumber":65,"Velocity":56,"Duration":898926,"SoundDuration":898926,"Delta":35413818},{"NoteNumber":41,"Velocity":27,"Duration":898926,"SoundDuration":898926,"Delta":35413818},{"NoteNumber":57,"Velocity":32,"Duration":297220,"SoundDuration":297220,"Delta":35722698},{"NoteNumber":51,"Velocity":26,"Duration":297220,"SoundDuration":297220,"Delta":35722698},{"NoteNumber":60,"Velocity":31,"Duration":292825,"SoundDuration":292825,"Delta":36019919},{"NoteNumber":53,"Velocity":26,"Duration":292825,"SoundDuration":292825,"Delta":36019919},{"NoteNumber":65,"Velocity":54,"Duration":941629,"SoundDuration":941629,"Delta":36312745},{"NoteNumber":57,"Velocity":30,"Duration":297221,"SoundDuration":297221,"Delta":36312745},{"NoteNumber":60,"Velocity":32,"Duration":306513,"SoundDuration":306513,"Delta":36609966},{"NoteNumber":53,"Velocity":26,"Duration":306513,"SoundDuration":306513,"Delta":36609966},{"NoteNumber":57,"Velocity":31,"Duration":337895,"SoundDuration":337895,"Delta":36916479},{"NoteNumber":51,"Velocity":26,"Duration":337895,"SoundDuration":337895,"Delta":36916479},{"NoteNumber":72,"Velocity":59,"Duration":1867321,"SoundDuration":1867321,"Delta":37254374},{"NoteNumber":46,"Velocity":27,"Duration":4608512,"SoundDuration":4608512,"Delta":37254374},{"NoteNumber":62,"Velocity":32,"Duration":306513,"SoundDuration":306513,"Delta":37583809},{"NoteNumber":53,"Velocity":24,"Duration":306513,"SoundDuration":306513,"Delta":37583809},{"NoteNumber":63,"Velocity":31,"Duration":316305,"SoundDuration":316305,"Delta":37890322},{"NoteNumber":55,"Velocity":25,"Duration":316305,"SoundDuration":316305,"Delta":37890322},{"NoteNumber":65,"Velocity":33,"Duration":297221,"SoundDuration":297221,"Delta":38206628},{"NoteNumber":56,"Velocity":27,"Duration":297221,"SoundDuration":297221,"Delta":38206628},{"NoteNumber":62,"Velocity":31,"Duration":306513,"SoundDuration":306513,"Delta":38503849},{"NoteNumber":53,"Velocity":24,"Duration":306513,"SoundDuration":306513,"Delta":38503849},{"NoteNumber":63,"Velocity":31,"Duration":311332,"SoundDuration":311332,"Delta":38810362},{"NoteNumber":55,"Velocity":24,"Duration":311332,"SoundDuration":311332,"Delta":38810362},{"NoteNumber":70,"Velocity":56,"Duration":1821487,"SoundDuration":1821487,"Delta":39121695},{"NoteNumber":65,"Velocity":37,"Duration":308880,"SoundDuration":308880,"Delta":39121695},{"NoteNumber":56,"Velocity":27,"Duration":308880,"SoundDuration":308880,"Delta":39121695},{"NoteNumber":62,"Velocity":32,"Duration":297220,"SoundDuration":297220,"Delta":39430575},{"NoteNumber":53,"Velocity":26,"Duration":297220,"SoundDuration":297220,"Delta":39430575},{"NoteNumber":63,"Velocity":31,"Duration":292825,"SoundDuration":292825,"Delta":39727796},{"NoteNumber":55,"Velocity":26,"Duration":292825,"SoundDuration":292825,"Delta":39727796},{"NoteNumber":65,"Velocity":36,"Duration":297221,"SoundDuration":297221,"Delta":40020622},{"NoteNumber":56,"Velocity":30,"Duration":297221,"SoundDuration":297221,"Delta":40020622},{"NoteNumber":68,"Velocity":37,"Duration":306513,"SoundDuration":306513,"Delta":40317843},{"NoteNumber":53,"Velocity":26,"Duration":306513,"SoundDuration":306513,"Delta":40317843},{"NoteNumber":67,"Velocity":31,"Duration":318826,"SoundDuration":318826,"Delta":40624356},{"NoteNumber":51,"Velocity":26,"Duration":318826,"SoundDuration":318826,"Delta":40624356},{"NoteNumber":65,"Velocity":36,"Duration":311332,"SoundDuration":311332,"Delta":40943183},{"NoteNumber":50,"Velocity":31,"Duration":311332,"SoundDuration":311332,"Delta":40943183},{"NoteNumber":68,"Velocity":35,"Duration":299490,"SoundDuration":299490,"Delta":41254516},{"NoteNumber":53,"Velocity":28,"Duration":299490,"SoundDuration":299490,"Delta":41254516},{"NoteNumber":67,"Velocity":35,"Duration":308880,"SoundDuration":308880,"Delta":41554007},{"NoteNumber":58,"Velocity":28,"Duration":308880,"SoundDuration":308880,"Delta":41554007},{"NoteNumber":65,"Velocity":36,"Duration":308880,"SoundDuration":308880,"Delta":41862887},{"NoteNumber":56,"Velocity":32,"Duration":308880,"SoundDuration":308880,"Delta":41862887},{"NoteNumber":63,"Velocity":33,"Duration":304089,"SoundDuration":304089,"Delta":42171767},{"NoteNumber":55,"Velocity":28,"Duration":304089,"SoundDuration":304089,"Delta":42171767},{"NoteNumber":62,"Velocity":33,"Duration":316305,"SoundDuration":316305,"Delta":42475857},{"NoteNumber":53,"Velocity":28,"Duration":316305,"SoundDuration":316305,"Delta":42475857},{"NoteNumber":60,"Velocity":36,"Duration":316305,"SoundDuration":316305,"Delta":42792163},{"NoteNumber":51,"Velocity":28,"Duration":316305,"SoundDuration":316305,"Delta":42792163},{"NoteNumber":58,"Velocity":35,"Duration":308880,"SoundDuration":308880,"Delta":43108469},{"NoteNumber":50,"Velocity":24,"Duration":308880,"SoundDuration":308880,"Delta":43108469},{"NoteNumber":57,"Velocity":33,"Duration":312248,"SoundDuration":312248,"Delta":43417349},{"NoteNumber":51,"Velocity":24,"Duration":312248,"SoundDuration":312248,"Delta":43417349},{"NoteNumber":58,"Velocity":36,"Duration":1025554,"SoundDuration":1025554,"Delta":43729597},{"NoteNumber":56,"Velocity":38,"Duration":319566,"SoundDuration":319566,"Delta":43729597},{"NoteNumber":53,"Velocity":27,"Duration":319566,"SoundDuration":319566,"Delta":43729597},{"NoteNumber":55,"Velocity":31,"Duration":343928,"SoundDuration":343928,"Delta":44049163},{"NoteNumber":51,"Velocity":24,"Duration":343928,"SoundDuration":343928,"Delta":44049163},{"NoteNumber":56,"Velocity":30,"Duration":362059,"SoundDuration":362059,"Delta":44393092},{"NoteNumber":50,"Velocity":24,"Duration":362059,"SoundDuration":362059,"Delta":44393092},{"NoteNumber":67,"Velocity":56,"Duration":1379674,"SoundDuration":1379674,"Delta":44755152},{"NoteNumber":39,"Velocity":27,"Duration":929197,"SoundDuration":929197,"Delta":44755152},{"NoteNumber":55,"Velocity":32,"Duration":304089,"SoundDuration":304089,"Delta":45068926},{"NoteNumber":46,"Velocity":24,"Duration":304089,"SoundDuration":304089,"Delta":45068926},{"NoteNumber":58,"Velocity":31,"Duration":311332,"SoundDuration":311332,"Delta":45373016},{"NoteNumber":51,"Velocity":25,"Duration":311332,"SoundDuration":311332,"Delta":45373016},{"NoteNumber":63,"Velocity":38,"Duration":297221,"SoundDuration":297221,"Delta":45684349},{"NoteNumber":55,"Velocity":27,"Duration":297221,"SoundDuration":297221,"Delta":45684349},{"NoteNumber":58,"Velocity":31,"Duration":306513,"SoundDuration":306513,"Delta":45981570},{"NoteNumber":51,"Velocity":24,"Duration":306513,"SoundDuration":306513,"Delta":45981570},{"NoteNumber":68,"Velocity":50,"Duration":472083,"SoundDuration":472083,"Delta":46134827},{"NoteNumber":55,"Velocity":31,"Duration":318826,"SoundDuration":318826,"Delta":46288083},{"NoteNumber":46,"Velocity":24,"Duration":318826,"SoundDuration":318826,"Delta":46288083},{"NoteNumber":70,"Velocity":62,"Duration":905248,"SoundDuration":905248,"Delta":46606910},{"NoteNumber":39,"Velocity":27,"Duration":905248,"SoundDuration":905248,"Delta":46606910},{"NoteNumber":55,"Velocity":31,"Duration":289854,"SoundDuration":289854,"Delta":46915790},{"NoteNumber":46,"Velocity":25,"Duration":289854,"SoundDuration":289854,"Delta":46915790},{"NoteNumber":58,"Velocity":31,"Duration":306513,"SoundDuration":306513,"Delta":47205645},{"NoteNumber":51,"Velocity":25,"Duration":306513,"SoundDuration":306513,"Delta":47205645},{"NoteNumber":63,"Velocity":52,"Duration":922560,"SoundDuration":922560,"Delta":47512159},{"NoteNumber":55,"Velocity":27,"Duration":297221,"SoundDuration":297221,"Delta":47512159},{"NoteNumber":58,"Velocity":30,"Duration":306513,"SoundDuration":306513,"Delta":47809380},{"NoteNumber":51,"Velocity":24,"Duration":306513,"SoundDuration":306513,"Delta":47809380},{"NoteNumber":55,"Velocity":30,"Duration":318826,"SoundDuration":318826,"Delta":48115893},{"NoteNumber":46,"Velocity":24,"Duration":318826,"SoundDuration":318826,"Delta":48115893},{"NoteNumber":68,"Velocity":56,"Duration":902825,"SoundDuration":902825,"Delta":48434720},{"NoteNumber":34,"Velocity":27,"Duration":902825,"SoundDuration":902825,"Delta":48434720},{"NoteNumber":56,"Velocity":32,"Duration":289854,"SoundDuration":289854,"Delta":48743600},{"NoteNumber":46,"Velocity":24,"Duration":289854,"SoundDuration":289854,"Delta":48743600},{"NoteNumber":58,"Velocity":31,"Duration":304090,"SoundDuration":304090,"Delta":49033455},{"NoteNumber":50,"Velocity":25,"Duration":304090,"SoundDuration":304090,"Delta":49033455},{"NoteNumber":62,"Velocity":40,"Duration":935960,"SoundDuration":935960,"Delta":49337545},{"NoteNumber":53,"Velocity":27,"Duration":297221,"SoundDuration":297221,"Delta":49337545},{"NoteNumber":58,"Velocity":31,"Duration":306513,"SoundDuration":306513,"Delta":49634766},{"NoteNumber":50,"Velocity":24,"Duration":306513,"SoundDuration":306513,"Delta":49634766},{"NoteNumber":56,"Velocity":31,"Duration":332226,"SoundDuration":332226,"Delta":49941279},{"NoteNumber":46,"Velocity":24,"Duration":332226,"SoundDuration":332226,"Delta":49941279},{"NoteNumber":63,"Velocity":62,"Duration":1353640,"SoundDuration":1353640,"Delta":50273505},{"NoteNumber":36,"Velocity":27,"Duration":903163,"SoundDuration":903163,"Delta":50273505},{"NoteNumber":51,"Velocity":32,"Duration":287769,"SoundDuration":287769,"Delta":50582386},{"NoteNumber":43,"Velocity":32,"Duration":287769,"SoundDuration":287769,"Delta":50582386},{"NoteNumber":55,"Velocity":32,"Duration":306513,"SoundDuration":306513,"Delta":50870155},{"NoteNumber":48,"Velocity":32,"Duration":306513,"SoundDuration":306513,"Delta":50870155},{"NoteNumber":60,"Velocity":35,"Duration":297221,"SoundDuration":297221,"Delta":51176669},{"NoteNumber":51,"Velocity":35,"Duration":297221,"SoundDuration":297221,"Delta":51176669},{"NoteNumber":55,"Velocity":29,"Duration":306513,"SoundDuration":306513,"Delta":51473890},{"NoteNumber":48,"Velocity":29,"Duration":306513,"SoundDuration":306513,"Delta":51473890},{"NoteNumber":62,"Velocity":58,"Duration":472083,"SoundDuration":472083,"Delta":51627146},{"NoteNumber":51,"Velocity":30,"Duration":318826,"SoundDuration":318826,"Delta":51780403},{"NoteNumber":43,"Velocity":30,"Duration":318826,"SoundDuration":318826,"Delta":51780403},{"NoteNumber":60,"Velocity":64,"Duration":1360668,"SoundDuration":1360668,"Delta":52099230},{"NoteNumber":34,"Velocity":32,"Duration":910191,"SoundDuration":910191,"Delta":52099230},{"NoteNumber":44,"Velocity":28,"Duration":297220,"SoundDuration":297220,"Delta":52408110},{"NoteNumber":48,"Velocity":28,"Duration":304090,"SoundDuration":304090,"Delta":52705331},{"NoteNumber":53,"Velocity":35,"Duration":297221,"SoundDuration":297221,"Delta":53009421},{"NoteNumber":48,"Velocity":27,"Duration":306513,"SoundDuration":306513,"Delta":53306642},{"NoteNumber":65,"Velocity":59,"Duration":472083,"SoundDuration":472083,"Delta":53459899},{"NoteNumber":44,"Velocity":27,"Duration":1231441,"SoundDuration":1231441,"Delta":53613155},{"NoteNumber":68,"Velocity":63,"Duration":1363092,"SoundDuration":1363092,"Delta":53931982},{"NoteNumber":32,"Velocity":31,"Duration":912614,"SoundDuration":912614,"Delta":53931982},{"NoteNumber":48,"Velocity":31,"Duration":297220,"SoundDuration":297220,"Delta":54240862},{"NoteNumber":53,"Velocity":32,"Duration":306513,"SoundDuration":306513,"Delta":54538083},{"NoteNumber":56,"Velocity":36,"Duration":297221,"SoundDuration":297221,"Delta":54844597},{"NoteNumber":53,"Velocity":32,"Duration":306513,"SoundDuration":306513,"Delta":55141818},{"NoteNumber":65,"Velocity":66,"Duration":472083,"SoundDuration":472083,"Delta":55295074},{"NoteNumber":48,"Velocity":32,"Duration":318826,"SoundDuration":318826,"Delta":55448331},{"NoteNumber":75,"Velocity":77,"Duration":939114,"SoundDuration":939114,"Delta":55767158},{"NoteNumber":34,"Velocity":29,"Duration":939114,"SoundDuration":939114,"Delta":55767158},{"NoteNumber":46,"Velocity":29,"Duration":939114,"SoundDuration":939114,"Delta":55767158},{"NoteNumber":53,"Velocity":31,"Duration":306513,"SoundDuration":306513,"Delta":56085984},{"NoteNumber":56,"Velocity":28,"Duration":313774,"SoundDuration":313774,"Delta":56392498},{"NoteNumber":74,"Velocity":70,"Duration":1410261,"SoundDuration":1410261,"Delta":56706272},{"NoteNumber":68,"Velocity":36,"Duration":313774,"SoundDuration":313774,"Delta":56706272},{"NoteNumber":58,"Velocity":32,"Duration":313774,"SoundDuration":313774,"Delta":56706272},{"NoteNumber":65,"Velocity":36,"Duration":313774,"SoundDuration":313774,"Delta":57020047},{"NoteNumber":56,"Velocity":28,"Duration":313774,"SoundDuration":313774,"Delta":57020047},{"NoteNumber":62,"Velocity":31,"Duration":301795,"SoundDuration":301795,"Delta":57333822},{"NoteNumber":53,"Velocity":27,"Duration":301795,"SoundDuration":301795,"Delta":57333822},{"NoteNumber":68,"Velocity":33,"Duration":318219,"SoundDuration":318219,"Delta":57635617},{"NoteNumber":58,"Velocity":27,"Duration":318219,"SoundDuration":318219,"Delta":57635617},{"NoteNumber":65,"Velocity":29,"Duration":328112,"SoundDuration":328112,"Delta":57953837},{"NoteNumber":56,"Velocity":23,"Duration":328112,"SoundDuration":328112,"Delta":57953837},{"NoteNumber":72,"Velocity":53,"Duration":504789,"SoundDuration":504789,"Delta":58116534},{"NoteNumber":62,"Velocity":29,"Duration":339373,"SoundDuration":339373,"Delta":58281949},{"NoteNumber":53,"Velocity":23,"Duration":339373,"SoundDuration":339373,"Delta":58281949},{"NoteNumber":70,"Velocity":51,"Duration":520201,"SoundDuration":520201,"Delta":58621323},{"NoteNumber":68,"Velocity":27,"Duration":346800,"SoundDuration":346800,"Delta":58621323},{"NoteNumber":58,"Velocity":23,"Duration":346800,"SoundDuration":346800,"Delta":58621323},{"NoteNumber":65,"Velocity":27,"Duration":346800,"SoundDuration":346800,"Delta":58968124},{"NoteNumber":56,"Velocity":18,"Duration":346800,"SoundDuration":346800,"Delta":58968124},{"NoteNumber":68,"Velocity":49,"Duration":581563,"SoundDuration":581563,"Delta":59141524},{"NoteNumber":62,"Velocity":23,"Duration":408163,"SoundDuration":408163,"Delta":59314924},{"NoteNumber":53,"Velocity":18,"Duration":408163,"SoundDuration":408163,"Delta":59314924},{"NoteNumber":67,"Velocity":52,"Duration":1360668,"SoundDuration":1360668,"Delta":59723088},{"NoteNumber":39,"Velocity":27,"Duration":910191,"SoundDuration":910191,"Delta":59723088},{"NoteNumber":55,"Velocity":32,"Duration":297221,"SoundDuration":297221,"Delta":60031968},{"NoteNumber":46,"Velocity":24,"Duration":297221,"SoundDuration":297221,"Delta":60031968},{"NoteNumber":58,"Velocity":31,"Duration":304089,"SoundDuration":304089,"Delta":60329189},{"NoteNumber":51,"Velocity":25,"Duration":304089,"SoundDuration":304089,"Delta":60329189},{"NoteNumber":63,"Velocity":38,"Duration":297220,"SoundDuration":297220,"Delta":60633279},{"NoteNumber":55,"Velocity":27,"Duration":297220,"SoundDuration":297220,"Delta":60633279},{"NoteNumber":58,"Velocity":31,"Duration":306513,"SoundDuration":306513,"Delta":60930500},{"NoteNumber":51,"Velocity":24,"Duration":306513,"SoundDuration":306513,"Delta":60930500},{"NoteNumber":68,"Velocity":51,"Duration":472083,"SoundDuration":472083,"Delta":61083757},{"NoteNumber":55,"Velocity":31,"Duration":318826,"SoundDuration":318826,"Delta":61237013},{"NoteNumber":46,"Velocity":24,"Duration":318826,"SoundDuration":318826,"Delta":61237013},{"NoteNumber":70,"Velocity":62,"Duration":907364,"SoundDuration":907364,"Delta":61555840},{"NoteNumber":39,"Velocity":27,"Duration":907364,"SoundDuration":907364,"Delta":61555840},{"NoteNumber":55,"Velocity":31,"Duration":291970,"SoundDuration":291970,"Delta":61864720},{"NoteNumber":46,"Velocity":25,"Duration":291970,"SoundDuration":291970,"Delta":61864720},{"NoteNumber":58,"Velocity":31,"Duration":306513,"SoundDuration":306513,"Delta":62156691},{"NoteNumber":51,"Velocity":25,"Duration":306513,"SoundDuration":306513,"Delta":62156691},{"NoteNumber":63,"Velocity":52,"Duration":922560,"SoundDuration":922560,"Delta":62463204},{"NoteNumber":55,"Velocity":27,"Duration":297220,"SoundDuration":297220,"Delta":62463204},{"NoteNumber":58,"Velocity":30,"Duration":306513,"SoundDuration":306513,"Delta":62760425},{"NoteNumber":51,"Velocity":24,"Duration":306513,"SoundDuration":306513,"Delta":62760425},{"NoteNumber":55,"Velocity":30,"Duration":318826,"SoundDuration":318826,"Delta":63066939},{"NoteNumber":46,"Velocity":24,"Duration":318826,"SoundDuration":318826,"Delta":63066939},{"NoteNumber":68,"Velocity":56,"Duration":910191,"SoundDuration":910191,"Delta":63385765},{"NoteNumber":34,"Velocity":27,"Duration":910191,"SoundDuration":910191,"Delta":63385765},{"NoteNumber":56,"Velocity":32,"Duration":297221,"SoundDuration":297221,"Delta":63694646},{"NoteNumber":46,"Velocity":24,"Duration":297221,"SoundDuration":297221,"Delta":63694646},{"NoteNumber":58,"Velocity":31,"Duration":304090,"SoundDuration":304090,"Delta":63991867},{"NoteNumber":50,"Velocity":25,"Duration":304090,"SoundDuration":304090,"Delta":63991867},{"NoteNumber":62,"Velocity":42,"Duration":922561,"SoundDuration":922561,"Delta":64295957},{"NoteNumber":53,"Velocity":27,"Duration":297220,"SoundDuration":297220,"Delta":64295957},{"NoteNumber":58,"Velocity":31,"Duration":306513,"SoundDuration":306513,"Delta":64593178},{"NoteNumber":50,"Velocity":24,"Duration":306513,"SoundDuration":306513,"Delta":64593178},{"NoteNumber":56,"Velocity":31,"Duration":318826,"SoundDuration":318826,"Delta":64899691},{"NoteNumber":46,"Velocity":24,"Duration":318826,"SoundDuration":318826,"Delta":64899691},{"NoteNumber":63,"Velocity":62,"Duration":1376688,"SoundDuration":1376688,"Delta":65218518},{"NoteNumber":36,"Velocity":27,"Duration":912614,"SoundDuration":912614,"Delta":65218518},{"NoteNumber":51,"Velocity":32,"Duration":297221,"SoundDuration":297221,"Delta":65527398},{"NoteNumber":43,"Velocity":32,"Duration":297221,"SoundDuration":297221,"Delta":65527398},{"NoteNumber":55,"Velocity":32,"Duration":306513,"SoundDuration":306513,"Delta":65824619},{"NoteNumber":48,"Velocity":32,"Duration":306513,"SoundDuration":306513,"Delta":65824619},{"NoteNumber":60,"Velocity":35,"Duration":305343,"SoundDuration":305343,"Delta":66131132},{"NoteNumber":51,"Velocity":35,"Duration":305343,"SoundDuration":305343,"Delta":66131132},{"NoteNumber":55,"Velocity":29,"Duration":317460,"SoundDuration":317460,"Delta":66436476},{"NoteNumber":48,"Velocity":29,"Duration":317460,"SoundDuration":317460,"Delta":66436476},{"NoteNumber":63,"Velocity":58,"Duration":477556,"SoundDuration":477556,"Delta":66595206},{"NoteNumber":51,"Velocity":30,"Duration":318826,"SoundDuration":318826,"Delta":66753936},{"NoteNumber":43,"Velocity":30,"Duration":318826,"SoundDuration":318826,"Delta":66753936},{"NoteNumber":65,"Velocity":64,"Duration":1207412,"SoundDuration":1207412,"Delta":67072763},{"NoteNumber":36,"Velocity":29,"Duration":910191,"SoundDuration":910191,"Delta":67072763},{"NoteNumber":43,"Velocity":26,"Duration":297221,"SoundDuration":297221,"Delta":67381643},{"NoteNumber":53,"Velocity":26,"Duration":297221,"SoundDuration":297221,"Delta":67381643},{"NoteNumber":50,"Velocity":26,"Duration":304090,"SoundDuration":304090,"Delta":67678864},{"NoteNumber":55,"Velocity":26,"Duration":304090,"SoundDuration":304090,"Delta":67678864},{"NoteNumber":53,"Velocity":29,"Duration":297220,"SoundDuration":297220,"Delta":67982954},{"NoteNumber":59,"Velocity":29,"Duration":297220,"SoundDuration":297220,"Delta":67982954},{"NoteNumber":63,"Velocity":60,"Duration":306513,"SoundDuration":306513,"Delta":68280175},{"NoteNumber":50,"Velocity":26,"Duration":306513,"SoundDuration":306513,"Delta":68280175},{"NoteNumber":55,"Velocity":26,"Duration":306513,"SoundDuration":306513,"Delta":68280175},{"NoteNumber":62,"Velocity":58,"Duration":318826,"SoundDuration":318826,"Delta":68586689},{"NoteNumber":53,"Velocity":29,"Duration":318826,"SoundDuration":318826,"Delta":68586689},{"NoteNumber":43,"Velocity":26,"Duration":318826,"SoundDuration":318826,"Delta":68586689},{"NoteNumber":60,"Velocity":63,"Duration":457490,"SoundDuration":457490,"Delta":68905515},{"NoteNumber":36,"Velocity":27,"Duration":912614,"SoundDuration":912614,"Delta":68905515},{"NoteNumber":43,"Velocity":31,"Duration":297221,"SoundDuration":297221,"Delta":69214396},{"NoteNumber":63,"Velocity":60,"Duration":455123,"SoundDuration":455123,"Delta":69363006},{"NoteNumber":48,"Velocity":32,"Duration":306513,"SoundDuration":306513,"Delta":69511617},{"NoteNumber":67,"Velocity":66,"Duration":466422,"SoundDuration":466422,"Delta":69818130},{"NoteNumber":51,"Velocity":37,"Duration":307692,"SoundDuration":307692,"Delta":69818130},{"NoteNumber":48,"Velocity":35,"Duration":317460,"SoundDuration":317460,"Delta":70125822},{"NoteNumber":72,"Velocity":72,"Duration":489308,"SoundDuration":489308,"Delta":70284553},{"NoteNumber":43,"Velocity":35,"Duration":330578,"SoundDuration":330578,"Delta":70443283},{"NoteNumber":77,"Velocity":77,"Duration":1251523,"SoundDuration":1251523,"Delta":70773861},{"NoteNumber":36,"Velocity":37,"Duration":937748,"SoundDuration":937748,"Delta":70773861},{"NoteNumber":65,"Velocity":45,"Duration":306513,"SoundDuration":306513,"Delta":71091322},{"NoteNumber":50,"Velocity":31,"Duration":306513,"SoundDuration":306513,"Delta":71091322},{"NoteNumber":67,"Velocity":45,"Duration":313774,"SoundDuration":313774,"Delta":71397835},{"NoteNumber":55,"Velocity":28,"Duration":313774,"SoundDuration":313774,"Delta":71397835},{"NoteNumber":71,"Velocity":36,"Duration":313774,"SoundDuration":313774,"Delta":71711610},{"NoteNumber":62,"Velocity":32,"Duration":313774,"SoundDuration":313774,"Delta":71711610},{"NoteNumber":75,"Velocity":65,"Duration":313774,"SoundDuration":313774,"Delta":72025384},{"NoteNumber":67,"Velocity":45,"Duration":313774,"SoundDuration":313774,"Delta":72025384},{"NoteNumber":55,"Velocity":28,"Duration":313774,"SoundDuration":313774,"Delta":72025384},{"NoteNumber":74,"Velocity":62,"Duration":301795,"SoundDuration":301795,"Delta":72339159},{"NoteNumber":65,"Velocity":44,"Duration":301795,"SoundDuration":301795,"Delta":72339159},{"NoteNumber":50,"Velocity":27,"Duration":301795,"SoundDuration":301795,"Delta":72339159},{"NoteNumber":72,"Velocity":63,"Duration":484829,"SoundDuration":484829,"Delta":72640955},{"NoteNumber":36,"Velocity":29,"Duration":993959,"SoundDuration":993959,"Delta":72640955},{"NoteNumber":51,"Velocity":24,"Duration":330853,"SoundDuration":330853,"Delta":72961739},{"NoteNumber":67,"Velocity":53,"Duration":509130,"SoundDuration":509130,"Delta":73125784},{"NoteNumber":55,"Velocity":24,"Duration":342321,"SoundDuration":342321,"Delta":73292592},{"NoteNumber":69,"Velocity":58,"Duration":524750,"SoundDuration":524750,"Delta":73634914},{"NoteNumber":60,"Velocity":25,"Duration":349833,"SoundDuration":349833,"Delta":73634914},{"NoteNumber":55,"Velocity":21,"Duration":349833,"SoundDuration":349833,"Delta":73984748},{"NoteNumber":70,"Velocity":52,"Duration":555072,"SoundDuration":555072,"Delta":74159665},{"NoteNumber":51,"Velocity":21,"Duration":380155,"SoundDuration":380155,"Delta":74334582},{"NoteNumber":70,"Velocity":56,"Duration":910191,"SoundDuration":910191,"Delta":74714738},{"NoteNumber":41,"Velocity":27,"Duration":910191,"SoundDuration":910191,"Delta":74714738},{"NoteNumber":58,"Velocity":32,"Duration":297221,"SoundDuration":297221,"Delta":75023618},{"NoteNumber":50,"Velocity":24,"Duration":297221,"SoundDuration":297221,"Delta":75023618},{"NoteNumber":62,"Velocity":31,"Duration":304090,"SoundDuration":304090,"Delta":75320839},{"NoteNumber":53,"Velocity":25,"Duration":304090,"SoundDuration":304090,"Delta":75320839},{"NoteNumber":65,"Velocity":49,"Duration":922561,"SoundDuration":922561,"Delta":75624929},{"NoteNumber":58,"Velocity":27,"Duration":297220,"SoundDuration":297220,"Delta":75624929},{"NoteNumber":62,"Velocity":31,"Duration":306513,"SoundDuration":306513,"Delta":75922150},{"NoteNumber":53,"Velocity":24,"Duration":306513,"SoundDuration":306513,"Delta":75922150},{"NoteNumber":58,"Velocity":31,"Duration":318826,"SoundDuration":318826,"Delta":76228663},{"NoteNumber":50,"Velocity":24,"Duration":318826,"SoundDuration":318826,"Delta":76228663},{"NoteNumber":65,"Velocity":56,"Duration":898927,"SoundDuration":898927,"Delta":76547490},{"NoteNumber":41,"Velocity":27,"Duration":898927,"SoundDuration":898927,"Delta":76547490},{"NoteNumber":57,"Velocity":32,"Duration":297221,"SoundDuration":297221,"Delta":76856370},{"NoteNumber":51,"Velocity":26,"Duration":297221,"SoundDuration":297221,"Delta":76856370},{"NoteNumber":60,"Velocity":31,"Duration":292825,"SoundDuration":292825,"Delta":77153591},{"NoteNumber":53,"Velocity":26,"Duration":292825,"SoundDuration":292825,"Delta":77153591},{"NoteNumber":65,"Velocity":54,"Duration":951560,"SoundDuration":951560,"Delta":77446417},{"NoteNumber":57,"Velocity":30,"Duration":297220,"SoundDuration":297220,"Delta":77446417},{"NoteNumber":60,"Velocity":32,"Duration":306513,"SoundDuration":306513,"Delta":77743638},{"NoteNumber":53,"Velocity":26,"Duration":306513,"SoundDuration":306513,"Delta":77743638},{"NoteNumber":57,"Velocity":31,"Duration":347825,"SoundDuration":347825,"Delta":78050151},{"NoteNumber":51,"Velocity":26,"Duration":347825,"SoundDuration":347825,"Delta":78050151},{"NoteNumber":72,"Velocity":59,"Duration":1837817,"SoundDuration":1837817,"Delta":78397977},{"NoteNumber":46,"Velocity":27,"Duration":4579009,"SoundDuration":4579009,"Delta":78397977},{"NoteNumber":62,"Velocity":32,"Duration":297221,"SoundDuration":297221,"Delta":78719417},{"NoteNumber":53,"Velocity":24,"Duration":297221,"SoundDuration":297221,"Delta":78719417},{"NoteNumber":63,"Velocity":31,"Duration":304090,"SoundDuration":304090,"Delta":79016638},{"NoteNumber":55,"Velocity":25,"Duration":304090,"SoundDuration":304090,"Delta":79016638},{"NoteNumber":65,"Velocity":33,"Duration":297220,"SoundDuration":297220,"Delta":79320728},{"NoteNumber":56,"Velocity":27,"Duration":297220,"SoundDuration":297220,"Delta":79320728},{"NoteNumber":62,"Velocity":31,"Duration":306513,"SoundDuration":306513,"Delta":79617949},{"NoteNumber":53,"Velocity":24,"Duration":306513,"SoundDuration":306513,"Delta":79617949},{"NoteNumber":63,"Velocity":31,"Duration":311332,"SoundDuration":311332,"Delta":79924463},{"NoteNumber":55,"Velocity":24,"Duration":311332,"SoundDuration":311332,"Delta":79924463},{"NoteNumber":70,"Velocity":56,"Duration":1821488,"SoundDuration":1821488,"Delta":80235795},{"NoteNumber":65,"Velocity":37,"Duration":308880,"SoundDuration":308880,"Delta":80235795},{"NoteNumber":56,"Velocity":27,"Duration":308880,"SoundDuration":308880,"Delta":80235795},{"NoteNumber":62,"Velocity":32,"Duration":297221,"SoundDuration":297221,"Delta":80544676},{"NoteNumber":53,"Velocity":26,"Duration":297221,"SoundDuration":297221,"Delta":80544676},{"NoteNumber":63,"Velocity":31,"Duration":292825,"SoundDuration":292825,"Delta":80841897},{"NoteNumber":55,"Velocity":26,"Duration":292825,"SoundDuration":292825,"Delta":80841897},{"NoteNumber":65,"Velocity":36,"Duration":297220,"SoundDuration":297220,"Delta":81134722},{"NoteNumber":56,"Velocity":30,"Duration":297220,"SoundDuration":297220,"Delta":81134722},{"NoteNumber":68,"Velocity":37,"Duration":306513,"SoundDuration":306513,"Delta":81431943},{"NoteNumber":53,"Velocity":26,"Duration":306513,"SoundDuration":306513,"Delta":81431943},{"NoteNumber":67,"Velocity":31,"Duration":318826,"SoundDuration":318826,"Delta":81738457},{"NoteNumber":51,"Velocity":26,"Duration":318826,"SoundDuration":318826,"Delta":81738457},{"NoteNumber":65,"Velocity":36,"Duration":311332,"SoundDuration":311332,"Delta":82057283},{"NoteNumber":50,"Velocity":31,"Duration":311332,"SoundDuration":311332,"Delta":82057283},{"NoteNumber":68,"Velocity":35,"Duration":299491,"SoundDuration":299491,"Delta":82368616},{"NoteNumber":53,"Velocity":28,"Duration":299491,"SoundDuration":299491,"Delta":82368616},{"NoteNumber":67,"Velocity":35,"Duration":308880,"SoundDuration":308880,"Delta":82668107},{"NoteNumber":58,"Velocity":28,"Duration":308880,"SoundDuration":308880,"Delta":82668107},{"NoteNumber":65,"Velocity":36,"Duration":308880,"SoundDuration":308880,"Delta":82976987},{"NoteNumber":56,"Velocity":32,"Duration":308880,"SoundDuration":308880,"Delta":82976987},{"NoteNumber":63,"Velocity":33,"Duration":304090,"SoundDuration":304090,"Delta":83285868},{"NoteNumber":55,"Velocity":28,"Duration":304090,"SoundDuration":304090,"Delta":83285868},{"NoteNumber":62,"Velocity":33,"Duration":316305,"SoundDuration":316305,"Delta":83589958},{"NoteNumber":53,"Velocity":28,"Duration":316305,"SoundDuration":316305,"Delta":83589958},{"NoteNumber":60,"Velocity":36,"Duration":326743,"SoundDuration":326743,"Delta":83906263},{"NoteNumber":51,"Velocity":28,"Duration":326743,"SoundDuration":326743,"Delta":83906263},{"NoteNumber":58,"Velocity":35,"Duration":317833,"SoundDuration":317833,"Delta":84233007},{"NoteNumber":50,"Velocity":24,"Duration":317833,"SoundDuration":317833,"Delta":84233007},{"NoteNumber":57,"Velocity":33,"Duration":333414,"SoundDuration":333414,"Delta":84550841},{"NoteNumber":51,"Velocity":24,"Duration":333414,"SoundDuration":333414,"Delta":84550841},{"NoteNumber":58,"Velocity":38,"Duration":360360,"SoundDuration":360360,"Delta":84884255},{"NoteNumber":50,"Velocity":27,"Duration":360360,"SoundDuration":360360,"Delta":84884255},{"NoteNumber":66,"Velocity":46,"Duration":311332,"SoundDuration":311332,"Delta":85244615},{"NoteNumber":63,"Velocity":41,"Duration":311332,"SoundDuration":311332,"Delta":85244615},{"NoteNumber":46,"Velocity":25,"Duration":311332,"SoundDuration":311332,"Delta":85244615},{"NoteNumber":68,"Velocity":50,"Duration":322765,"SoundDuration":322765,"Delta":85555948},{"NoteNumber":65,"Velocity":45,"Duration":322765,"SoundDuration":322765,"Delta":85555948},{"NoteNumber":44,"Velocity":25,"Duration":322765,"SoundDuration":322765,"Delta":85555948},{"NoteNumber":70,"Velocity":57,"Duration":934062,"SoundDuration":934062,"Delta":85878714},{"NoteNumber":66,"Velocity":51,"Duration":313774,"SoundDuration":313774,"Delta":85878714},{"NoteNumber":30,"Velocity":32,"Duration":934062,"SoundDuration":934062,"Delta":85878714},{"NoteNumber":42,"Velocity":32,"Duration":934062,"SoundDuration":934062,"Delta":85878714},{"NoteNumber":58,"Velocity":37,"Duration":306513,"SoundDuration":306513,"Delta":86192489},{"NoteNumber":63,"Velocity":37,"Duration":313774,"SoundDuration":313774,"Delta":86499002},{"NoteNumber":71,"Velocity":69,"Duration":686161,"SoundDuration":686161,"Delta":86812777},{"NoteNumber":32,"Velocity":32,"Duration":923390,"SoundDuration":923390,"Delta":86812777},{"NoteNumber":44,"Velocity":32,"Duration":923390,"SoundDuration":923390,"Delta":86812777},{"NoteNumber":63,"Velocity":36,"Duration":306513,"SoundDuration":306513,"Delta":87114572},{"NoteNumber":59,"Velocity":35,"Duration":315081,"SoundDuration":315081,"Delta":87421086},{"NoteNumber":68,"Velocity":54,"Duration":237229,"SoundDuration":237229,"Delta":87498938},{"NoteNumber":65,"Velocity":52,"Duration":1212008,"SoundDuration":1212008,"Delta":87736167},{"NoteNumber":62,"Velocity":46,"Duration":306513,"SoundDuration":306513,"Delta":87736167},{"NoteNumber":34,"Velocity":32,"Duration":1825035,"SoundDuration":1825035,"Delta":87736167},{"NoteNumber":46,"Velocity":32,"Duration":1825035,"SoundDuration":1825035,"Delta":87736167},{"NoteNumber":53,"Velocity":37,"Duration":306513,"SoundDuration":306513,"Delta":88042681},{"NoteNumber":58,"Velocity":36,"Duration":299491,"SoundDuration":299491,"Delta":88349194},{"NoteNumber":62,"Velocity":41,"Duration":299490,"SoundDuration":299490,"Delta":88648685},{"NoteNumber":66,"Velocity":54,"Duration":229884,"SoundDuration":229884,"Delta":88948176},{"NoteNumber":63,"Velocity":48,"Duration":229884,"SoundDuration":229884,"Delta":88948176},{"NoteNumber":68,"Velocity":59,"Duration":229885,"SoundDuration":229885,"Delta":89254689},{"NoteNumber":65,"Velocity":53,"Duration":229885,"SoundDuration":229885,"Delta":89254689},{"NoteNumber":70,"Velocity":70,"Duration":952513,"SoundDuration":952513,"Delta":89561203},{"NoteNumber":66,"Velocity":62,"Duration":313774,"SoundDuration":313774,"Delta":89561203},{"NoteNumber":34,"Velocity":46,"Duration":952513,"SoundDuration":952513,"Delta":89561203},{"NoteNumber":46,"Velocity":53,"Duration":952513,"SoundDuration":952513,"Delta":89561203},{"NoteNumber":63,"Velocity":49,"Duration":306513,"SoundDuration":306513,"Delta":89874977},{"NoteNumber":66,"Velocity":54,"Duration":332225,"SoundDuration":332225,"Delta":90181491},{"NoteNumber":75,"Velocity":77,"Duration":686161,"SoundDuration":686161,"Delta":90513717},{"NoteNumber":71,"Velocity":66,"Duration":301795,"SoundDuration":301795,"Delta":90513717},{"NoteNumber":35,"Velocity":45,"Duration":923390,"SoundDuration":923390,"Delta":90513717},{"NoteNumber":47,"Velocity":50,"Duration":923390,"SoundDuration":923390,"Delta":90513717},{"NoteNumber":68,"Velocity":45,"Duration":306513,"SoundDuration":306513,"Delta":90815512},{"NoteNumber":63,"Velocity":38,"Duration":315081,"SoundDuration":315081,"Delta":91122026},{"NoteNumber":71,"Velocity":59,"Duration":237229,"SoundDuration":237229,"Delta":91199878},{"NoteNumber":68,"Velocity":57,"Duration":1212008,"SoundDuration":1212008,"Delta":91437107},{"NoteNumber":65,"Velocity":51,"Duration":306513,"SoundDuration":306513,"Delta":91437107},{"NoteNumber":37,"Velocity":42,"Duration":1825035,"SoundDuration":1825035,"Delta":91437107},{"NoteNumber":49,"Velocity":46,"Duration":1825035,"SoundDuration":1825035,"Delta":91437107},{"NoteNumber":59,"Velocity":41,"Duration":306513,"SoundDuration":306513,"Delta":91743621},{"NoteNumber":61,"Velocity":39,"Duration":299491,"SoundDuration":299491,"Delta":92050134},{"NoteNumber":65,"Velocity":45,"Duration":299490,"SoundDuration":299490,"Delta":92349625},{"NoteNumber":66,"Velocity":49,"Duration":229884,"SoundDuration":229884,"Delta":92649116},{"NoteNumber":63,"Velocity":44,"Duration":229884,"SoundDuration":229884,"Delta":92649116},{"NoteNumber":68,"Velocity":50,"Duration":229885,"SoundDuration":229885,"Delta":92955629},{"NoteNumber":65,"Velocity":45,"Duration":229885,"SoundDuration":229885,"Delta":92955629},{"NoteNumber":70,"Velocity":57,"Duration":934062,"SoundDuration":934062,"Delta":93262143},{"NoteNumber":66,"Velocity":51,"Duration":313774,"SoundDuration":313774,"Delta":93262143},{"NoteNumber":30,"Velocity":32,"Duration":934062,"SoundDuration":934062,"Delta":93262143},{"NoteNumber":42,"Velocity":32,"Duration":934062,"SoundDuration":934062,"Delta":93262143},{"NoteNumber":58,"Velocity":37,"Duration":306513,"SoundDuration":306513,"Delta":93575917},{"NoteNumber":61,"Velocity":37,"Duration":313774,"SoundDuration":313774,"Delta":93882431},{"NoteNumber":71,"Velocity":69,"Duration":686161,"SoundDuration":686161,"Delta":94196205},{"NoteNumber":32,"Velocity":32,"Duration":923390,"SoundDuration":923390,"Delta":94196205},{"NoteNumber":44,"Velocity":32,"Duration":923390,"SoundDuration":923390,"Delta":94196205},{"NoteNumber":65,"Velocity":36,"Duration":306513,"SoundDuration":306513,"Delta":94498001},{"NoteNumber":59,"Velocity":35,"Duration":315081,"SoundDuration":315081,"Delta":94804514},{"NoteNumber":68,"Velocity":54,"Duration":237229,"SoundDuration":237229,"Delta":94882367},{"NoteNumber":65,"Velocity":52,"Duration":1212008,"SoundDuration":1212008,"Delta":95119596},{"NoteNumber":62,"Velocity":46,"Duration":306513,"SoundDuration":306513,"Delta":95119596},{"NoteNumber":34,"Velocity":32,"Duration":1825035,"SoundDuration":1825035,"Delta":95119596},{"NoteNumber":46,"Velocity":32,"Duration":1825035,"SoundDuration":1825035,"Delta":95119596},{"NoteNumber":53,"Velocity":37,"Duration":306513,"SoundDuration":306513,"Delta":95426109},{"NoteNumber":58,"Velocity":36,"Duration":299491,"SoundDuration":299491,"Delta":95732623},{"NoteNumber":62,"Velocity":41,"Duration":299490,"SoundDuration":299490,"Delta":96032114},{"NoteNumber":66,"Velocity":59,"Duration":229884,"SoundDuration":229884,"Delta":96331605},{"NoteNumber":63,"Velocity":53,"Duration":229884,"SoundDuration":229884,"Delta":96331605},{"NoteNumber":68,"Velocity":65,"Duration":229885,"SoundDuration":229885,"Delta":96638118},{"NoteNumber":65,"Velocity":58,"Duration":229885,"SoundDuration":229885,"Delta":96638118},{"NoteNumber":70,"Velocity":74,"Duration":952513,"SoundDuration":952513,"Delta":96944631},{"NoteNumber":66,"Velocity":60,"Duration":313774,"SoundDuration":313774,"Delta":96944631},{"NoteNumber":34,"Velocity":50,"Duration":952513,"SoundDuration":952513,"Delta":96944631},{"NoteNumber":46,"Velocity":56,"Duration":952513,"SoundDuration":952513,"Delta":96944631},{"NoteNumber":63,"Velocity":52,"Duration":306513,"SoundDuration":306513,"Delta":97258406},{"NoteNumber":66,"Velocity":62,"Duration":332225,"SoundDuration":332225,"Delta":97564919},{"NoteNumber":75,"Velocity":82,"Duration":686161,"SoundDuration":686161,"Delta":97897145},{"NoteNumber":71,"Velocity":66,"Duration":301795,"SoundDuration":301795,"Delta":97897145},{"NoteNumber":35,"Velocity":50,"Duration":923390,"SoundDuration":923390,"Delta":97897145},{"NoteNumber":47,"Velocity":56,"Duration":923390,"SoundDuration":923390,"Delta":97897145},{"NoteNumber":68,"Velocity":45,"Duration":306513,"SoundDuration":306513,"Delta":98198941},{"NoteNumber":63,"Velocity":38,"Duration":315081,"SoundDuration":315081,"Delta":98505454},{"NoteNumber":71,"Velocity":59,"Duration":237229,"SoundDuration":237229,"Delta":98583307},{"NoteNumber":68,"Velocity":70,"Duration":1212008,"SoundDuration":1212008,"Delta":98820536},{"NoteNumber":65,"Velocity":56,"Duration":306513,"SoundDuration":306513,"Delta":98820536},{"NoteNumber":37,"Velocity":46,"Duration":1825035,"SoundDuration":1825035,"Delta":98820536},{"NoteNumber":49,"Velocity":53,"Duration":1825035,"SoundDuration":1825035,"Delta":98820536},{"NoteNumber":59,"Velocity":52,"Duration":306513,"SoundDuration":306513,"Delta":99127049},{"NoteNumber":61,"Velocity":52,"Duration":299491,"SoundDuration":299491,"Delta":99433562},{"NoteNumber":65,"Velocity":59,"Duration":299490,"SoundDuration":299490,"Delta":99733053},{"NoteNumber":66,"Velocity":70,"Duration":229884,"SoundDuration":229884,"Delta":100032544},{"NoteNumber":70,"Velocity":78,"Duration":229884,"SoundDuration":229884,"Delta":100032544},{"NoteNumber":61,"Velocity":63,"Duration":229884,"SoundDuration":229884,"Delta":100032544},{"NoteNumber":68,"Velocity":72,"Duration":229885,"SoundDuration":229885,"Delta":100339058},{"NoteNumber":71,"Velocity":81,"Duration":229885,"SoundDuration":229885,"Delta":100339058},{"NoteNumber":59,"Velocity":64,"Duration":229885,"SoundDuration":229885,"Delta":100339058},{"NoteNumber":70,"Velocity":77,"Duration":910314,"SoundDuration":910314,"Delta":100645571},{"NoteNumber":73,"Velocity":86,"Duration":910314,"SoundDuration":910314,"Delta":100645571},{"NoteNumber":37,"Velocity":55,"Duration":910314,"SoundDuration":910314,"Delta":100645571},{"NoteNumber":49,"Velocity":62,"Duration":910314,"SoundDuration":910314,"Delta":100645571},{"NoteNumber":54,"Velocity":51,"Duration":299491,"SoundDuration":299491,"Delta":100945062},{"NoteNumber":58,"Velocity":51,"Duration":311332,"SoundDuration":311332,"Delta":101244553},{"NoteNumber":66,"Velocity":75,"Duration":685591,"SoundDuration":685591,"Delta":101555886},{"NoteNumber":70,"Velocity":82,"Duration":685591,"SoundDuration":685591,"Delta":101555886},{"NoteNumber":61,"Velocity":57,"Duration":299490,"SoundDuration":299490,"Delta":101555886},{"NoteNumber":58,"Velocity":52,"Duration":308880,"SoundDuration":308880,"Delta":101855377},{"NoteNumber":54,"Velocity":52,"Duration":308880,"SoundDuration":308880,"Delta":102164257},{"NoteNumber":78,"Velocity":82,"Duration":231660,"SoundDuration":231660,"Delta":102241477},{"NoteNumber":71,"Velocity":71,"Duration":1848922,"SoundDuration":1848922,"Delta":102473137},{"NoteNumber":66,"Velocity":71,"Duration":914924,"SoundDuration":914924,"Delta":102473137},{"NoteNumber":78,"Velocity":82,"Duration":914924,"SoundDuration":914924,"Delta":102473137},{"NoteNumber":37,"Velocity":53,"Duration":914924,"SoundDuration":914924,"Delta":102473137},{"NoteNumber":49,"Velocity":59,"Duration":914924,"SoundDuration":914924,"Delta":102473137},{"NoteNumber":56,"Velocity":52,"Duration":301795,"SoundDuration":301795,"Delta":102774933},{"NoteNumber":59,"Velocity":52,"Duration":311332,"SoundDuration":311332,"Delta":103076729},{"NoteNumber":65,"Velocity":70,"Duration":933997,"SoundDuration":933997,"Delta":103388061},{"NoteNumber":77,"Velocity":80,"Duration":933997,"SoundDuration":933997,"Delta":103388061},{"NoteNumber":61,"Velocity":57,"Duration":311332,"SoundDuration":311332,"Delta":103388061},{"NoteNumber":59,"Velocity":52,"Duration":311332,"SoundDuration":311332,"Delta":103699394},{"NoteNumber":56,"Velocity":52,"Duration":311332,"SoundDuration":311332,"Delta":104010727},{"NoteNumber":70,"Velocity":77,"Duration":910314,"SoundDuration":910314,"Delta":104322059},{"NoteNumber":73,"Velocity":86,"Duration":910314,"SoundDuration":910314,"Delta":104322059},{"NoteNumber":37,"Velocity":55,"Duration":910314,"SoundDuration":910314,"Delta":104322059},{"NoteNumber":49,"Velocity":62,"Duration":910314,"SoundDuration":910314,"Delta":104322059},{"NoteNumber":54,"Velocity":51,"Duration":299491,"SoundDuration":299491,"Delta":104621550},{"NoteNumber":58,"Velocity":51,"Duration":311332,"SoundDuration":311332,"Delta":104921041},{"NoteNumber":66,"Velocity":75,"Duration":694158,"SoundDuration":694158,"Delta":105232374},{"NoteNumber":70,"Velocity":82,"Duration":694158,"SoundDuration":694158,"Delta":105232374},{"NoteNumber":61,"Velocity":57,"Duration":299490,"SoundDuration":299490,"Delta":105232374},{"NoteNumber":58,"Velocity":52,"Duration":314960,"SoundDuration":314960,"Delta":105531865},{"NoteNumber":54,"Velocity":46,"Duration":318826,"SoundDuration":318826,"Delta":105846826},{"NoteNumber":78,"Velocity":62,"Duration":239119,"SoundDuration":239119,"Delta":105926532},{"NoteNumber":71,"Velocity":55,"Duration":1881859,"SoundDuration":1881859,"Delta":106165652},{"NoteNumber":66,"Velocity":55,"Duration":932224,"SoundDuration":932224,"Delta":106165652},{"NoteNumber":78,"Velocity":63,"Duration":932224,"SoundDuration":932224,"Delta":106165652},{"NoteNumber":38,"Velocity":35,"Duration":932224,"SoundDuration":932224,"Delta":106165652},{"NoteNumber":50,"Velocity":40,"Duration":932224,"SoundDuration":932224,"Delta":106165652},{"NoteNumber":56,"Velocity":32,"Duration":304090,"SoundDuration":304090,"Delta":106469742},{"NoteNumber":59,"Velocity":33,"Duration":324044,"SoundDuration":324044,"Delta":106773832},{"NoteNumber":65,"Velocity":49,"Duration":949635,"SoundDuration":949635,"Delta":107097876},{"NoteNumber":77,"Velocity":55,"Duration":949635,"SoundDuration":949635,"Delta":107097876},{"NoteNumber":62,"Velocity":36,"Duration":295028,"SoundDuration":295028,"Delta":107097876},{"NoteNumber":59,"Velocity":31,"Duration":313774,"SoundDuration":313774,"Delta":107392905},{"NoteNumber":56,"Velocity":29,"Duration":340831,"SoundDuration":340831,"Delta":107706680},{"NoteNumber":66,"Velocity":53,"Duration":910314,"SoundDuration":910314,"Delta":108047511},{"NoteNumber":70,"Velocity":59,"Duration":910314,"SoundDuration":910314,"Delta":108047511},{"NoteNumber":39,"Velocity":40,"Duration":910314,"SoundDuration":910314,"Delta":108047511},{"NoteNumber":51,"Velocity":33,"Duration":299491,"SoundDuration":299491,"Delta":108347002},{"NoteNumber":54,"Velocity":33,"Duration":311332,"SoundDuration":311332,"Delta":108646493},{"NoteNumber":63,"Velocity":55,"Duration":685591,"SoundDuration":685591,"Delta":108957826},{"NoteNumber":66,"Velocity":55,"Duration":685591,"SoundDuration":685591,"Delta":108957826},{"NoteNumber":58,"Velocity":36,"Duration":299490,"SoundDuration":299490,"Delta":108957826},{"NoteNumber":54,"Velocity":34,"Duration":308880,"SoundDuration":308880,"Delta":109257317},{"NoteNumber":51,"Velocity":34,"Duration":308880,"SoundDuration":308880,"Delta":109566197},{"NoteNumber":71,"Velocity":63,"Duration":220077,"SoundDuration":220077,"Delta":109643418},{"NoteNumber":75,"Velocity":63,"Duration":220077,"SoundDuration":220077,"Delta":109643418},{"NoteNumber":71,"Velocity":70,"Duration":1226256,"SoundDuration":1226256,"Delta":109875078},{"NoteNumber":68,"Velocity":62,"Duration":914924,"SoundDuration":914924,"Delta":109875078},{"NoteNumber":63,"Velocity":62,"Duration":914924,"SoundDuration":914924,"Delta":109875078},{"NoteNumber":75,"Velocity":70,"Duration":1226256,"SoundDuration":1226256,"Delta":109875078},{"NoteNumber":44,"Velocity":38,"Duration":914924,"SoundDuration":914924,"Delta":109875078},{"NoteNumber":51,"Velocity":34,"Duration":301795,"SoundDuration":301795,"Delta":110176873},{"NoteNumber":56,"Velocity":34,"Duration":311332,"SoundDuration":311332,"Delta":110478669},{"NoteNumber":59,"Velocity":36,"Duration":919641,"SoundDuration":919641,"Delta":110790002},{"NoteNumber":70,"Velocity":55,"Duration":301795,"SoundDuration":301795,"Delta":111101334},{"NoteNumber":73,"Velocity":55,"Duration":301795,"SoundDuration":301795,"Delta":111101334},{"NoteNumber":68,"Velocity":55,"Duration":306513,"SoundDuration":306513,"Delta":111403130},{"NoteNumber":71,"Velocity":55,"Duration":306513,"SoundDuration":306513,"Delta":111403130},{"NoteNumber":66,"Velocity":53,"Duration":910314,"SoundDuration":910314,"Delta":111709643},{"NoteNumber":70,"Velocity":59,"Duration":910314,"SoundDuration":910314,"Delta":111709643},{"NoteNumber":39,"Velocity":40,"Duration":910314,"SoundDuration":910314,"Delta":111709643},{"NoteNumber":51,"Velocity":33,"Duration":299491,"SoundDuration":299491,"Delta":112009134},{"NoteNumber":54,"Velocity":33,"Duration":311332,"SoundDuration":311332,"Delta":112308625},{"NoteNumber":63,"Velocity":55,"Duration":685591,"SoundDuration":685591,"Delta":112619958},{"NoteNumber":66,"Velocity":55,"Duration":685591,"SoundDuration":685591,"Delta":112619958},{"NoteNumber":58,"Velocity":36,"Duration":299490,"SoundDuration":299490,"Delta":112619958},{"NoteNumber":54,"Velocity":34,"Duration":308880,"SoundDuration":308880,"Delta":112919449},{"NoteNumber":51,"Velocity":34,"Duration":308880,"SoundDuration":308880,"Delta":113228329},{"NoteNumber":71,"Velocity":63,"Duration":220077,"SoundDuration":220077,"Delta":113305550},{"NoteNumber":75,"Velocity":63,"Duration":220077,"SoundDuration":220077,"Delta":113305550},{"NoteNumber":71,"Velocity":68,"Duration":1226256,"SoundDuration":1226256,"Delta":113537210},{"NoteNumber":68,"Velocity":68,"Duration":914924,"SoundDuration":914924,"Delta":113537210},{"NoteNumber":63,"Velocity":68,"Duration":914924,"SoundDuration":914924,"Delta":113537210},{"NoteNumber":75,"Velocity":76,"Duration":1226256,"SoundDuration":1226256,"Delta":113537210},{"NoteNumber":44,"Velocity":38,"Duration":914924,"SoundDuration":914924,"Delta":113537210},{"NoteNumber":51,"Velocity":36,"Duration":301795,"SoundDuration":301795,"Delta":113839005},{"NoteNumber":56,"Velocity":38,"Duration":311332,"SoundDuration":311332,"Delta":114140801},{"NoteNumber":59,"Velocity":45,"Duration":919641,"SoundDuration":919641,"Delta":114452134},{"NoteNumber":70,"Velocity":73,"Duration":301795,"SoundDuration":301795,"Delta":114763466},{"NoteNumber":73,"Velocity":73,"Duration":301795,"SoundDuration":301795,"Delta":114763466},{"NoteNumber":68,"Velocity":71,"Duration":291187,"SoundDuration":291187,"Delta":115065262},{"NoteNumber":71,"Velocity":71,"Duration":291187,"SoundDuration":291187,"Delta":115065262},{"NoteNumber":71,"Velocity":74,"Duration":1226256,"SoundDuration":1226256,"Delta":115371775},{"NoteNumber":68,"Velocity":68,"Duration":914924,"SoundDuration":914924,"Delta":115371775},{"NoteNumber":63,"Velocity":68,"Duration":914924,"SoundDuration":914924,"Delta":115371775},{"NoteNumber":75,"Velocity":77,"Duration":1226256,"SoundDuration":1226256,"Delta":115371775},{"NoteNumber":44,"Velocity":52,"Duration":914924,"SoundDuration":914924,"Delta":115371775},{"NoteNumber":51,"Velocity":37,"Duration":301795,"SoundDuration":301795,"Delta":115673571},{"NoteNumber":56,"Velocity":40,"Duration":311332,"SoundDuration":311332,"Delta":115975367},{"NoteNumber":59,"Velocity":47,"Duration":919641,"SoundDuration":919641,"Delta":116286699},{"NoteNumber":70,"Velocity":73,"Duration":301795,"SoundDuration":301795,"Delta":116598032},{"NoteNumber":73,"Velocity":73,"Duration":301795,"SoundDuration":301795,"Delta":116598032},{"NoteNumber":68,"Velocity":71,"Duration":291187,"SoundDuration":291187,"Delta":116899828},{"NoteNumber":71,"Velocity":71,"Duration":291187,"SoundDuration":291187,"Delta":116899828},{"NoteNumber":71,"Velocity":74,"Duration":3197197,"SoundDuration":3197197,"Delta":117206341},{"NoteNumber":68,"Velocity":74,"Duration":3197197,"SoundDuration":3197197,"Delta":117206341},{"NoteNumber":63,"Velocity":74,"Duration":3197197,"SoundDuration":3197197,"Delta":117206341},{"NoteNumber":75,"Velocity":77,"Duration":3197197,"SoundDuration":3197197,"Delta":117206341},{"NoteNumber":44,"Velocity":60,"Duration":914923,"SoundDuration":914923,"Delta":117206341},{"NoteNumber":51,"Velocity":51,"Duration":301795,"SoundDuration":301795,"Delta":117508137},{"NoteNumber":56,"Velocity":51,"Duration":311332,"SoundDuration":311332,"Delta":117809932},{"NoteNumber":59,"Velocity":57,"Duration":304090,"SoundDuration":304090,"Delta":118121265},{"NoteNumber":56,"Velocity":55,"Duration":301795,"SoundDuration":301795,"Delta":118425355},{"NoteNumber":51,"Velocity":54,"Duration":306513,"SoundDuration":306513,"Delta":118727151},{"NoteNumber":59,"Velocity":55,"Duration":301795,"SoundDuration":301795,"Delta":119033664},{"NoteNumber":56,"Velocity":43,"Duration":301795,"SoundDuration":301795,"Delta":119335460},{"NoteNumber":51,"Velocity":38,"Duration":306513,"SoundDuration":306513,"Delta":119637255},{"NoteNumber":59,"Velocity":34,"Duration":919540,"SoundDuration":919540,"Delta":119943769},{"NoteNumber":74,"Velocity":52,"Duration":459770,"SoundDuration":459770,"Delta":120403539},{"NoteNumber":77,"Velocity":57,"Duration":474458,"SoundDuration":474458,"Delta":120863309},{"NoteNumber":75,"Velocity":52,"Duration":474458,"SoundDuration":474458,"Delta":121337767},{"NoteNumber":71,"Velocity":44,"Duration":498334,"SoundDuration":498334,"Delta":121812226},{"NoteNumber":68,"Velocity":42,"Duration":541431,"SoundDuration":541431,"Delta":122310560},{"NoteNumber":67,"Velocity":46,"Duration":1360669,"SoundDuration":1360669,"Delta":122851992},{"NoteNumber":34,"Velocity":27,"Duration":910191,"SoundDuration":910191,"Delta":122851992},{"NoteNumber":55,"Velocity":32,"Duration":297220,"SoundDuration":297220,"Delta":123160872},{"NoteNumber":46,"Velocity":24,"Duration":297220,"SoundDuration":297220,"Delta":123160872},{"NoteNumber":58,"Velocity":31,"Duration":304090,"SoundDuration":304090,"Delta":123458093},{"NoteNumber":51,"Velocity":25,"Duration":304090,"SoundDuration":304090,"Delta":123458093},{"NoteNumber":63,"Velocity":41,"Duration":297221,"SoundDuration":297221,"Delta":123762183},{"NoteNumber":55,"Velocity":27,"Duration":297221,"SoundDuration":297221,"Delta":123762183},{"NoteNumber":58,"Velocity":31,"Duration":306513,"SoundDuration":306513,"Delta":124059404},{"NoteNumber":51,"Velocity":24,"Duration":306513,"SoundDuration":306513,"Delta":124059404},{"NoteNumber":68,"Velocity":50,"Duration":472083,"SoundDuration":472083,"Delta":124212661},{"NoteNumber":55,"Velocity":31,"Duration":318826,"SoundDuration":318826,"Delta":124365918},{"NoteNumber":46,"Velocity":24,"Duration":318826,"SoundDuration":318826,"Delta":124365918},{"NoteNumber":70,"Velocity":62,"Duration":912614,"SoundDuration":912614,"Delta":124684744},{"NoteNumber":34,"Velocity":27,"Duration":912614,"SoundDuration":912614,"Delta":124684744},{"NoteNumber":55,"Velocity":31,"Duration":297220,"SoundDuration":297220,"Delta":124993625},{"NoteNumber":46,"Velocity":25,"Duration":297220,"SoundDuration":297220,"Delta":124993625},{"NoteNumber":58,"Velocity":31,"Duration":306513,"SoundDuration":306513,"Delta":125290846},{"NoteNumber":51,"Velocity":25,"Duration":306513,"SoundDuration":306513,"Delta":125290846},{"NoteNumber":63,"Velocity":52,"Duration":922561,"SoundDuration":922561,"Delta":125597359},{"NoteNumber":55,"Velocity":27,"Duration":297221,"SoundDuration":297221,"Delta":125597359},{"NoteNumber":58,"Velocity":30,"Duration":306513,"SoundDuration":306513,"Delta":125894580},{"NoteNumber":51,"Velocity":24,"Duration":306513,"SoundDuration":306513,"Delta":125894580},{"NoteNumber":55,"Velocity":30,"Duration":318826,"SoundDuration":318826,"Delta":126201093},{"NoteNumber":46,"Velocity":24,"Duration":318826,"SoundDuration":318826,"Delta":126201093},{"NoteNumber":68,"Velocity":56,"Duration":902825,"SoundDuration":902825,"Delta":126519920},{"NoteNumber":34,"Velocity":27,"Duration":902825,"SoundDuration":902825,"Delta":126519920},{"NoteNumber":56,"Velocity":32,"Duration":289854,"SoundDuration":289854,"Delta":126828800},{"NoteNumber":46,"Velocity":24,"Duration":289854,"SoundDuration":289854,"Delta":126828800},{"NoteNumber":58,"Velocity":31,"Duration":304090,"SoundDuration":304090,"Delta":127118655},{"NoteNumber":50,"Velocity":25,"Duration":304090,"SoundDuration":304090,"Delta":127118655},{"NoteNumber":62,"Velocity":40,"Duration":922560,"SoundDuration":922560,"Delta":127422745},{"NoteNumber":53,"Velocity":27,"Duration":297221,"SoundDuration":297221,"Delta":127422745},{"NoteNumber":58,"Velocity":31,"Duration":306513,"SoundDuration":306513,"Delta":127719966},{"NoteNumber":50,"Velocity":24,"Duration":306513,"SoundDuration":306513,"Delta":127719966},{"NoteNumber":56,"Velocity":31,"Duration":318826,"SoundDuration":318826,"Delta":128026480},{"NoteNumber":46,"Velocity":24,"Duration":318826,"SoundDuration":318826,"Delta":128026480},{"NoteNumber":63,"Velocity":62,"Duration":1363092,"SoundDuration":1363092,"Delta":128345306},{"NoteNumber":36,"Velocity":27,"Duration":912614,"SoundDuration":912614,"Delta":128345306},{"NoteNumber":51,"Velocity":32,"Duration":297220,"SoundDuration":297220,"Delta":128654187},{"NoteNumber":43,"Velocity":32,"Duration":297220,"SoundDuration":297220,"Delta":128654187},{"NoteNumber":55,"Velocity":32,"Duration":306513,"SoundDuration":306513,"Delta":128951408},{"NoteNumber":48,"Velocity":32,"Duration":306513,"SoundDuration":306513,"Delta":128951408},{"NoteNumber":60,"Velocity":35,"Duration":297221,"SoundDuration":297221,"Delta":129257921},{"NoteNumber":51,"Velocity":35,"Duration":297221,"SoundDuration":297221,"Delta":129257921},{"NoteNumber":55,"Velocity":29,"Duration":306513,"SoundDuration":306513,"Delta":129555142},{"NoteNumber":48,"Velocity":29,"Duration":306513,"SoundDuration":306513,"Delta":129555142},{"NoteNumber":62,"Velocity":58,"Duration":472083,"SoundDuration":472083,"Delta":129708399},{"NoteNumber":51,"Velocity":30,"Duration":318826,"SoundDuration":318826,"Delta":129861655},{"NoteNumber":43,"Velocity":30,"Duration":318826,"SoundDuration":318826,"Delta":129861655},{"NoteNumber":60,"Velocity":67,"Duration":1360669,"SoundDuration":1360669,"Delta":130180482},{"NoteNumber":44,"Velocity":39,"Duration":289575,"SoundDuration":289575,"Delta":130180482},{"NoteNumber":32,"Velocity":36,"Duration":910191,"SoundDuration":910191,"Delta":130180482},{"NoteNumber":44,"Velocity":35,"Duration":297220,"SoundDuration":297220,"Delta":130489362},{"NoteNumber":48,"Velocity":33,"Duration":304090,"SoundDuration":304090,"Delta":130786583},{"NoteNumber":53,"Velocity":45,"Duration":297221,"SoundDuration":297221,"Delta":131090673},{"NoteNumber":48,"Velocity":37,"Duration":306513,"SoundDuration":306513,"Delta":131387894},{"NoteNumber":65,"Velocity":64,"Duration":472083,"SoundDuration":472083,"Delta":131541151},{"NoteNumber":44,"Velocity":37,"Duration":318826,"SoundDuration":318826,"Delta":131694408},{"NoteNumber":68,"Velocity":75,"Duration":473846,"SoundDuration":473846,"Delta":132013234},{"NoteNumber":41,"Velocity":48,"Duration":947692,"SoundDuration":947692,"Delta":132013234},{"NoteNumber":29,"Velocity":43,"Duration":947692,"SoundDuration":947692,"Delta":132013234},{"NoteNumber":48,"Velocity":38,"Duration":307692,"SoundDuration":307692,"Delta":132333234},{"NoteNumber":72,"Velocity":73,"Duration":473000,"SoundDuration":473000,"Delta":132465927},{"NoteNumber":53,"Velocity":45,"Duration":320000,"SoundDuration":320000,"Delta":132640927},{"NoteNumber":79,"Velocity":78,"Duration":709377,"SoundDuration":709377,"Delta":132960927},{"NoteNumber":56,"Velocity":49,"Duration":305343,"SoundDuration":305343,"Delta":132960927},{"NoteNumber":53,"Velocity":45,"Duration":319999,"SoundDuration":319999,"Delta":133266270},{"NoteNumber":48,"Velocity":42,"Duration":336134,"SoundDuration":336134,"Delta":133586270},{"NoteNumber":77,"Velocity":73,"Duration":252100,"SoundDuration":252100,"Delta":133670304},{"NoteNumber":75,"Velocity":77,"Duration":940288,"SoundDuration":940288,"Delta":133922405},{"NoteNumber":34,"Velocity":29,"Duration":940288,"SoundDuration":940288,"Delta":133922405},{"NoteNumber":46,"Velocity":33,"Duration":940288,"SoundDuration":940288,"Delta":133922405},{"NoteNumber":53,"Velocity":36,"Duration":306513,"SoundDuration":306513,"Delta":134242405},{"NoteNumber":56,"Velocity":30,"Duration":313774,"SoundDuration":313774,"Delta":134548918},{"NoteNumber":74,"Velocity":70,"Duration":1923304,"SoundDuration":1923304,"Delta":134862693},{"NoteNumber":68,"Velocity":36,"Duration":313774,"SoundDuration":313774,"Delta":134862693},{"NoteNumber":58,"Velocity":36,"Duration":313774,"SoundDuration":313774,"Delta":134862693},{"NoteNumber":65,"Velocity":36,"Duration":313774,"SoundDuration":313774,"Delta":135176467},{"NoteNumber":56,"Velocity":32,"Duration":313774,"SoundDuration":313774,"Delta":135176467},{"NoteNumber":62,"Velocity":31,"Duration":301795,"SoundDuration":301795,"Delta":135490242},{"NoteNumber":53,"Velocity":28,"Duration":301795,"SoundDuration":301795,"Delta":135490242},{"NoteNumber":68,"Velocity":33,"Duration":320784,"SoundDuration":320784,"Delta":135792038},{"NoteNumber":58,"Velocity":27,"Duration":320784,"SoundDuration":320784,"Delta":135792038},{"NoteNumber":65,"Velocity":29,"Duration":330853,"SoundDuration":330853,"Delta":136112822},{"NoteNumber":56,"Velocity":23,"Duration":330853,"SoundDuration":330853,"Delta":136112822},{"NoteNumber":62,"Velocity":29,"Duration":342322,"SoundDuration":342322,"Delta":136443675},{"NoteNumber":53,"Velocity":23,"Duration":342322,"SoundDuration":342322,"Delta":136443675},{"NoteNumber":74,"Velocity":55,"Duration":349833,"SoundDuration":349833,"Delta":136785997},{"NoteNumber":68,"Velocity":45,"Duration":1072662,"SoundDuration":1072662,"Delta":136785997},{"NoteNumber":50,"Velocity":21,"Duration":1072662,"SoundDuration":1072662,"Delta":136785997},{"NoteNumber":58,"Velocity":23,"Duration":349833,"SoundDuration":349833,"Delta":136785997},{"NoteNumber":72,"Velocity":51,"Duration":349833,"SoundDuration":349833,"Delta":137135831},{"NoteNumber":56,"Velocity":18,"Duration":349833,"SoundDuration":349833,"Delta":137135831},{"NoteNumber":70,"Velocity":48,"Duration":372995,"SoundDuration":372995,"Delta":137485665},{"NoteNumber":53,"Velocity":18,"Duration":372995,"SoundDuration":372995,"Delta":137485665},{"NoteNumber":67,"Velocity":44,"Duration":929650,"SoundDuration":929650,"Delta":137858660},{"NoteNumber":70,"Velocity":51,"Duration":929650,"SoundDuration":929650,"Delta":137858660},{"NoteNumber":39,"Velocity":45,"Duration":929650,"SoundDuration":929650,"Delta":137858660},{"NoteNumber":51,"Velocity":36,"Duration":299490,"SoundDuration":299490,"Delta":138177486},{"NoteNumber":55,"Velocity":36,"Duration":311332,"SoundDuration":311332,"Delta":138476977},{"NoteNumber":63,"Velocity":48,"Duration":673870,"SoundDuration":673870,"Delta":138788310},{"NoteNumber":67,"Velocity":67,"Duration":673870,"SoundDuration":673870,"Delta":138788310},{"NoteNumber":58,"Velocity":41,"Duration":287769,"SoundDuration":287769,"Delta":138788310},{"NoteNumber":55,"Velocity":37,"Duration":308880,"SoundDuration":308880,"Delta":139076080},{"NoteNumber":51,"Velocity":37,"Duration":308880,"SoundDuration":308880,"Delta":139384960},{"NoteNumber":75,"Velocity":72,"Duration":220077,"SoundDuration":220077,"Delta":139462180},{"NoteNumber":68,"Velocity":64,"Duration":1816295,"SoundDuration":1816295,"Delta":139693840},{"NoteNumber":63,"Velocity":64,"Duration":895274,"SoundDuration":895274,"Delta":139693840},{"NoteNumber":75,"Velocity":72,"Duration":895274,"SoundDuration":895274,"Delta":139693840},{"NoteNumber":34,"Velocity":51,"Duration":895274,"SoundDuration":895274,"Delta":139693840},{"NoteNumber":46,"Velocity":51,"Duration":895274,"SoundDuration":895274,"Delta":139693840},{"NoteNumber":53,"Velocity":37,"Duration":291970,"SoundDuration":291970,"Delta":139985811},{"NoteNumber":56,"Velocity":37,"Duration":311332,"SoundDuration":311332,"Delta":140277782},{"NoteNumber":62,"Velocity":55,"Duration":921021,"SoundDuration":921021,"Delta":140589114},{"NoteNumber":74,"Velocity":60,"Duration":921021,"SoundDuration":921021,"Delta":140589114},{"NoteNumber":58,"Velocity":41,"Duration":303030,"SoundDuration":303030,"Delta":140589114},{"NoteNumber":56,"Velocity":37,"Duration":303030,"SoundDuration":303030,"Delta":140892145},{"NoteNumber":53,"Velocity":37,"Duration":314960,"SoundDuration":314960,"Delta":141195175},{"NoteNumber":67,"Velocity":58,"Duration":910314,"SoundDuration":910314,"Delta":141510136},{"NoteNumber":70,"Velocity":66,"Duration":910314,"SoundDuration":910314,"Delta":141510136},{"NoteNumber":39,"Velocity":45,"Duration":910314,"SoundDuration":910314,"Delta":141510136},{"NoteNumber":51,"Velocity":36,"Duration":299490,"SoundDuration":299490,"Delta":141809627},{"NoteNumber":55,"Velocity":36,"Duration":311332,"SoundDuration":311332,"Delta":142109118},{"NoteNumber":63,"Velocity":57,"Duration":675955,"SoundDuration":675955,"Delta":142420450},{"NoteNumber":67,"Velocity":64,"Duration":675955,"SoundDuration":675955,"Delta":142420450},{"NoteNumber":58,"Velocity":41,"Duration":289855,"SoundDuration":289855,"Delta":142420450},{"NoteNumber":55,"Velocity":37,"Duration":308880,"SoundDuration":308880,"Delta":142710305},{"NoteNumber":51,"Velocity":33,"Duration":308880,"SoundDuration":308880,"Delta":143019186},{"NoteNumber":75,"Velocity":64,"Duration":220077,"SoundDuration":220077,"Delta":143096406},{"NoteNumber":68,"Velocity":56,"Duration":1872597,"SoundDuration":1872597,"Delta":143328066},{"NoteNumber":63,"Velocity":56,"Duration":914923,"SoundDuration":914923,"Delta":143328066},{"NoteNumber":75,"Velocity":63,"Duration":914923,"SoundDuration":914923,"Delta":143328066},{"NoteNumber":35,"Velocity":35,"Duration":914923,"SoundDuration":914923,"Delta":143328066},{"NoteNumber":47,"Velocity":41,"Duration":914923,"SoundDuration":914923,"Delta":143328066},{"NoteNumber":53,"Velocity":31,"Duration":301795,"SoundDuration":301795,"Delta":143629862},{"NoteNumber":56,"Velocity":31,"Duration":311332,"SoundDuration":311332,"Delta":143931657},{"NoteNumber":62,"Velocity":44,"Duration":957673,"SoundDuration":957673,"Delta":144242990},{"NoteNumber":74,"Velocity":49,"Duration":957673,"SoundDuration":957673,"Delta":144242990},{"NoteNumber":59,"Velocity":32,"Duration":311332,"SoundDuration":311332,"Delta":144242990},{"NoteNumber":56,"Velocity":29,"Duration":311332,"SoundDuration":311332,"Delta":144554323},{"NoteNumber":53,"Velocity":28,"Duration":335008,"SoundDuration":335008,"Delta":144865655},{"NoteNumber":63,"Velocity":52,"Duration":910314,"SoundDuration":910314,"Delta":145200664},{"NoteNumber":67,"Velocity":52,"Duration":910314,"SoundDuration":910314,"Delta":145200664},{"NoteNumber":36,"Velocity":34,"Duration":910314,"SoundDuration":910314,"Delta":145200664},{"NoteNumber":48,"Velocity":26,"Duration":299490,"SoundDuration":299490,"Delta":145500155},{"NoteNumber":51,"Velocity":26,"Duration":311332,"SoundDuration":311332,"Delta":145799646},{"NoteNumber":60,"Velocity":51,"Duration":685591,"SoundDuration":685591,"Delta":146110978},{"NoteNumber":63,"Velocity":51,"Duration":685591,"SoundDuration":685591,"Delta":146110978},{"NoteNumber":55,"Velocity":30,"Duration":299491,"SoundDuration":299491,"Delta":146110978},{"NoteNumber":51,"Velocity":27,"Duration":308880,"SoundDuration":308880,"Delta":146410469},{"NoteNumber":48,"Velocity":24,"Duration":314449,"SoundDuration":314449,"Delta":146719350},{"NoteNumber":67,"Velocity":52,"Duration":225367,"SoundDuration":225367,"Delta":146796570},{"NoteNumber":70,"Velocity":52,"Duration":225367,"SoundDuration":225367,"Delta":146796570},{"NoteNumber":60,"Velocity":46,"Duration":905386,"SoundDuration":905386,"Delta":147033799},{"NoteNumber":67,"Velocity":52,"Duration":452693,"SoundDuration":452693,"Delta":147033799},{"NoteNumber":70,"Velocity":52,"Duration":452693,"SoundDuration":452693,"Delta":147033799},{"NoteNumber":44,"Velocity":34,"Duration":905386,"SoundDuration":905386,"Delta":147033799},{"NoteNumber":65,"Velocity":46,"Duration":452693,"SoundDuration":452693,"Delta":147486493},{"NoteNumber":68,"Velocity":46,"Duration":452693,"SoundDuration":452693,"Delta":147486493},{"NoteNumber":63,"Velocity":49,"Duration":460786,"SoundDuration":460786,"Delta":147939186},{"NoteNumber":67,"Velocity":49,"Duration":460786,"SoundDuration":460786,"Delta":147939186},{"NoteNumber":46,"Velocity":27,"Duration":935244,"SoundDuration":935244,"Delta":147939186},{"NoteNumber":56,"Velocity":30,"Duration":931290,"SoundDuration":931290,"Delta":147939186},{"NoteNumber":62,"Velocity":43,"Duration":474458,"SoundDuration":474458,"Delta":148399972},{"NoteNumber":65,"Velocity":43,"Duration":474458,"SoundDuration":474458,"Delta":148399972},{"NoteNumber":56,"Velocity":38,"Duration":1885586,"SoundDuration":1885586,"Delta":148874431},{"NoteNumber":58,"Velocity":38,"Duration":1885586,"SoundDuration":1885586,"Delta":148874431},{"NoteNumber":65,"Velocity":43,"Duration":1885586,"SoundDuration":1885586,"Delta":148874431},{"NoteNumber":39,"Velocity":34,"Duration":937070,"SoundDuration":937070,"Delta":148874431},{"NoteNumber":46,"Velocity":26,"Duration":306513,"SoundDuration":306513,"Delta":149180944},{"NoteNumber":50,"Velocity":26,"Duration":324044,"SoundDuration":324044,"Delta":149487457},{"NoteNumber":53,"Velocity":30,"Duration":305635,"SoundDuration":305635,"Delta":149811501},{"NoteNumber":50,"Velocity":27,"Duration":321439,"SoundDuration":321439,"Delta":150117137},{"NoteNumber":46,"Velocity":24,"Duration":321439,"SoundDuration":321439,"Delta":150438577},{"NoteNumber":55,"Velocity":33,"Duration":964319,"SoundDuration":964319,"Delta":150760017},{"NoteNumber":58,"Velocity":33,"Duration":964319,"SoundDuration":964319,"Delta":150760017},{"NoteNumber":63,"Velocity":38,"Duration":964319,"SoundDuration":964319,"Delta":150760017},{"NoteNumber":39,"Velocity":31,"Duration":964319,"SoundDuration":964319,"Delta":150760017},{"NoteNumber":46,"Velocity":26,"Duration":321440,"SoundDuration":321440,"Delta":151081457},{"NoteNumber":51,"Velocity":24,"Duration":321439,"SoundDuration":321439,"Delta":151402897},{"NoteNumber":39,"Velocity":23,"Duration":516026,"SoundDuration":516026,"Delta":151724337},{"NoteNumber":66,"Velocity":46,"Duration":311332,"SoundDuration":311332,"Delta":152084697},{"NoteNumber":63,"Velocity":46,"Duration":311332,"SoundDuration":311332,"Delta":152084697},{"NoteNumber":68,"Velocity":50,"Duration":322766,"SoundDuration":322766,"Delta":152396030},{"NoteNumber":65,"Velocity":50,"Duration":322766,"SoundDuration":322766,"Delta":152396030},{"NoteNumber":70,"Velocity":57,"Duration":934062,"SoundDuration":934062,"Delta":152718796},{"NoteNumber":66,"Velocity":51,"Duration":313774,"SoundDuration":313774,"Delta":152718796},{"NoteNumber":30,"Velocity":32,"Duration":934062,"SoundDuration":934062,"Delta":152718796},{"NoteNumber":42,"Velocity":32,"Duration":934062,"SoundDuration":934062,"Delta":152718796},{"NoteNumber":58,"Velocity":37,"Duration":306513,"SoundDuration":306513,"Delta":153032571},{"NoteNumber":63,"Velocity":37,"Duration":313774,"SoundDuration":313774,"Delta":153339084},{"NoteNumber":71,"Velocity":69,"Duration":686161,"SoundDuration":686161,"Delta":153652859},{"NoteNumber":32,"Velocity":32,"Duration":923390,"SoundDuration":923390,"Delta":153652859},{"NoteNumber":44,"Velocity":32,"Duration":923390,"SoundDuration":923390,"Delta":153652859},{"NoteNumber":63,"Velocity":36,"Duration":306513,"SoundDuration":306513,"Delta":153954654},{"NoteNumber":59,"Velocity":35,"Duration":315081,"SoundDuration":315081,"Delta":154261168},{"NoteNumber":68,"Velocity":54,"Duration":237229,"SoundDuration":237229,"Delta":154339020},{"NoteNumber":65,"Velocity":52,"Duration":1212008,"SoundDuration":1212008,"Delta":154576249},{"NoteNumber":62,"Velocity":46,"Duration":306513,"SoundDuration":306513,"Delta":154576249},{"NoteNumber":34,"Velocity":32,"Duration":1825035,"SoundDuration":1825035,"Delta":154576249},{"NoteNumber":46,"Velocity":32,"Duration":1825035,"SoundDuration":1825035,"Delta":154576249},{"NoteNumber":53,"Velocity":37,"Duration":306513,"SoundDuration":306513,"Delta":154882763},{"NoteNumber":58,"Velocity":36,"Duration":299490,"SoundDuration":299490,"Delta":155189276},{"NoteNumber":62,"Velocity":41,"Duration":299491,"SoundDuration":299491,"Delta":155488767},{"NoteNumber":66,"Velocity":54,"Duration":229884,"SoundDuration":229884,"Delta":155788258},{"NoteNumber":63,"Velocity":48,"Duration":229884,"SoundDuration":229884,"Delta":155788258},{"NoteNumber":68,"Velocity":59,"Duration":229884,"SoundDuration":229884,"Delta":156094771},{"NoteNumber":65,"Velocity":53,"Duration":229884,"SoundDuration":229884,"Delta":156094771},{"NoteNumber":70,"Velocity":68,"Duration":934062,"SoundDuration":934062,"Delta":156401285},{"NoteNumber":66,"Velocity":62,"Duration":313774,"SoundDuration":313774,"Delta":156401285},{"NoteNumber":34,"Velocity":46,"Duration":934062,"SoundDuration":934062,"Delta":156401285},{"NoteNumber":46,"Velocity":53,"Duration":934062,"SoundDuration":934062,"Delta":156401285},{"NoteNumber":63,"Velocity":49,"Duration":306513,"SoundDuration":306513,"Delta":156715059},{"NoteNumber":66,"Velocity":54,"Duration":313774,"SoundDuration":313774,"Delta":157021573},{"NoteNumber":75,"Velocity":82,"Duration":686161,"SoundDuration":686161,"Delta":157335347},{"NoteNumber":71,"Velocity":66,"Duration":301795,"SoundDuration":301795,"Delta":157335347},{"NoteNumber":35,"Velocity":45,"Duration":923390,"SoundDuration":923390,"Delta":157335347},{"NoteNumber":47,"Velocity":50,"Duration":923390,"SoundDuration":923390,"Delta":157335347},{"NoteNumber":68,"Velocity":45,"Duration":306513,"SoundDuration":306513,"Delta":157637143},{"NoteNumber":63,"Velocity":38,"Duration":315081,"SoundDuration":315081,"Delta":157943656},{"NoteNumber":71,"Velocity":59,"Duration":237229,"SoundDuration":237229,"Delta":158021509},{"NoteNumber":68,"Velocity":57,"Duration":1212008,"SoundDuration":1212008,"Delta":158258738},{"NoteNumber":65,"Velocity":51,"Duration":306513,"SoundDuration":306513,"Delta":158258738},{"NoteNumber":37,"Velocity":42,"Duration":1825035,"SoundDuration":1825035,"Delta":158258738},{"NoteNumber":49,"Velocity":46,"Duration":1825035,"SoundDuration":1825035,"Delta":158258738},{"NoteNumber":59,"Velocity":41,"Duration":306513,"SoundDuration":306513,"Delta":158565251},{"NoteNumber":61,"Velocity":39,"Duration":299490,"SoundDuration":299490,"Delta":158871765},{"NoteNumber":65,"Velocity":45,"Duration":299491,"SoundDuration":299491,"Delta":159171256},{"NoteNumber":66,"Velocity":49,"Duration":229884,"SoundDuration":229884,"Delta":159470747},{"NoteNumber":63,"Velocity":44,"Duration":229884,"SoundDuration":229884,"Delta":159470747},{"NoteNumber":68,"Velocity":50,"Duration":229884,"SoundDuration":229884,"Delta":159777260},{"NoteNumber":65,"Velocity":45,"Duration":229884,"SoundDuration":229884,"Delta":159777260},{"NoteNumber":70,"Velocity":57,"Duration":934062,"SoundDuration":934062,"Delta":160083773},{"NoteNumber":66,"Velocity":51,"Duration":313774,"SoundDuration":313774,"Delta":160083773},{"NoteNumber":30,"Velocity":32,"Duration":934062,"SoundDuration":934062,"Delta":160083773},{"NoteNumber":42,"Velocity":32,"Duration":934062,"SoundDuration":934062,"Delta":160083773},{"NoteNumber":58,"Velocity":37,"Duration":306513,"SoundDuration":306513,"Delta":160397548},{"NoteNumber":61,"Velocity":37,"Duration":313774,"SoundDuration":313774,"Delta":160704061},{"NoteNumber":71,"Velocity":69,"Duration":686161,"SoundDuration":686161,"Delta":161017836},{"NoteNumber":32,"Velocity":32,"Duration":923390,"SoundDuration":923390,"Delta":161017836},{"NoteNumber":44,"Velocity":32,"Duration":923390,"SoundDuration":923390,"Delta":161017836},{"NoteNumber":65,"Velocity":36,"Duration":306513,"SoundDuration":306513,"Delta":161319632},{"NoteNumber":59,"Velocity":35,"Duration":315081,"SoundDuration":315081,"Delta":161626145},{"NoteNumber":68,"Velocity":54,"Duration":237229,"SoundDuration":237229,"Delta":161703997},{"NoteNumber":65,"Velocity":52,"Duration":1212008,"SoundDuration":1212008,"Delta":161941227},{"NoteNumber":62,"Velocity":46,"Duration":306513,"SoundDuration":306513,"Delta":161941227},{"NoteNumber":34,"Velocity":32,"Duration":1825035,"SoundDuration":1825035,"Delta":161941227},{"NoteNumber":46,"Velocity":32,"Duration":1825035,"SoundDuration":1825035,"Delta":161941227},{"NoteNumber":53,"Velocity":37,"Duration":306513,"SoundDuration":306513,"Delta":162247740},{"NoteNumber":58,"Velocity":36,"Duration":299490,"SoundDuration":299490,"Delta":162554253},{"NoteNumber":62,"Velocity":41,"Duration":299491,"SoundDuration":299491,"Delta":162853744},{"NoteNumber":66,"Velocity":59,"Duration":229884,"SoundDuration":229884,"Delta":163153235},{"NoteNumber":63,"Velocity":53,"Duration":229884,"SoundDuration":229884,"Delta":163153235},{"NoteNumber":68,"Velocity":65,"Duration":229884,"SoundDuration":229884,"Delta":163459749},{"NoteNumber":65,"Velocity":58,"Duration":229884,"SoundDuration":229884,"Delta":163459749},{"NoteNumber":70,"Velocity":74,"Duration":934062,"SoundDuration":934062,"Delta":163766262},{"NoteNumber":66,"Velocity":60,"Duration":313774,"SoundDuration":313774,"Delta":163766262},{"NoteNumber":34,"Velocity":50,"Duration":934062,"SoundDuration":934062,"Delta":163766262},{"NoteNumber":46,"Velocity":56,"Duration":934062,"SoundDuration":934062,"Delta":163766262},{"NoteNumber":63,"Velocity":52,"Duration":306513,"SoundDuration":306513,"Delta":164080037},{"NoteNumber":66,"Velocity":62,"Duration":313774,"SoundDuration":313774,"Delta":164386550},{"NoteNumber":75,"Velocity":82,"Duration":686161,"SoundDuration":686161,"Delta":164700325},{"NoteNumber":71,"Velocity":66,"Duration":301795,"SoundDuration":301795,"Delta":164700325},{"NoteNumber":35,"Velocity":50,"Duration":923390,"SoundDuration":923390,"Delta":164700325},{"NoteNumber":47,"Velocity":56,"Duration":923390,"SoundDuration":923390,"Delta":164700325},{"NoteNumber":68,"Velocity":45,"Duration":306513,"SoundDuration":306513,"Delta":165002120},{"NoteNumber":63,"Velocity":38,"Duration":315081,"SoundDuration":315081,"Delta":165308634},{"NoteNumber":71,"Velocity":59,"Duration":237229,"SoundDuration":237229,"Delta":165386486},{"NoteNumber":68,"Velocity":70,"Duration":1212008,"SoundDuration":1212008,"Delta":165623715},{"NoteNumber":65,"Velocity":56,"Duration":306513,"SoundDuration":306513,"Delta":165623715},{"NoteNumber":37,"Velocity":46,"Duration":1825035,"SoundDuration":1825035,"Delta":165623715},{"NoteNumber":49,"Velocity":53,"Duration":1825035,"SoundDuration":1825035,"Delta":165623715},{"NoteNumber":59,"Velocity":52,"Duration":306513,"SoundDuration":306513,"Delta":165930228},{"NoteNumber":61,"Velocity":52,"Duration":299490,"SoundDuration":299490,"Delta":166236742},{"NoteNumber":65,"Velocity":59,"Duration":299491,"SoundDuration":299491,"Delta":166536233},{"NoteNumber":66,"Velocity":70,"Duration":229884,"SoundDuration":229884,"Delta":166835724},{"NoteNumber":70,"Velocity":78,"Duration":229884,"SoundDuration":229884,"Delta":166835724},{"NoteNumber":61,"Velocity":63,"Duration":229884,"SoundDuration":229884,"Delta":166835724},{"NoteNumber":68,"Velocity":72,"Duration":229884,"SoundDuration":229884,"Delta":167142237},{"NoteNumber":71,"Velocity":81,"Duration":229884,"SoundDuration":229884,"Delta":167142237},{"NoteNumber":59,"Velocity":64,"Duration":229884,"SoundDuration":229884,"Delta":167142237},{"NoteNumber":70,"Velocity":77,"Duration":910314,"SoundDuration":910314,"Delta":167448750},{"NoteNumber":73,"Velocity":86,"Duration":910314,"SoundDuration":910314,"Delta":167448750},{"NoteNumber":37,"Velocity":55,"Duration":910314,"SoundDuration":910314,"Delta":167448750},{"NoteNumber":49,"Velocity":62,"Duration":910314,"SoundDuration":910314,"Delta":167448750},{"NoteNumber":54,"Velocity":51,"Duration":299490,"SoundDuration":299490,"Delta":167748241},{"NoteNumber":58,"Velocity":51,"Duration":311332,"SoundDuration":311332,"Delta":168047732},{"NoteNumber":66,"Velocity":75,"Duration":685591,"SoundDuration":685591,"Delta":168359065},{"NoteNumber":70,"Velocity":82,"Duration":685591,"SoundDuration":685591,"Delta":168359065},{"NoteNumber":61,"Velocity":57,"Duration":299491,"SoundDuration":299491,"Delta":168359065},{"NoteNumber":58,"Velocity":52,"Duration":308880,"SoundDuration":308880,"Delta":168658556},{"NoteNumber":54,"Velocity":52,"Duration":308880,"SoundDuration":308880,"Delta":168967436},{"NoteNumber":78,"Velocity":82,"Duration":220077,"SoundDuration":220077,"Delta":169044657},{"NoteNumber":71,"Velocity":71,"Duration":1848922,"SoundDuration":1848922,"Delta":169276317},{"NoteNumber":66,"Velocity":70,"Duration":914923,"SoundDuration":914923,"Delta":169276317},{"NoteNumber":78,"Velocity":82,"Duration":914923,"SoundDuration":914923,"Delta":169276317},{"NoteNumber":37,"Velocity":53,"Duration":914923,"SoundDuration":914923,"Delta":169276317},{"NoteNumber":49,"Velocity":59,"Duration":914923,"SoundDuration":914923,"Delta":169276317},{"NoteNumber":56,"Velocity":52,"Duration":301795,"SoundDuration":301795,"Delta":169578112},{"NoteNumber":59,"Velocity":52,"Duration":311332,"SoundDuration":311332,"Delta":169879908},{"NoteNumber":65,"Velocity":70,"Duration":933998,"SoundDuration":933998,"Delta":170191241},{"NoteNumber":77,"Velocity":80,"Duration":933998,"SoundDuration":933998,"Delta":170191241},{"NoteNumber":61,"Velocity":57,"Duration":311332,"SoundDuration":311332,"Delta":170191241},{"NoteNumber":59,"Velocity":52,"Duration":311332,"SoundDuration":311332,"Delta":170502573},{"NoteNumber":56,"Velocity":52,"Duration":311332,"SoundDuration":311332,"Delta":170813906},{"NoteNumber":70,"Velocity":77,"Duration":910314,"SoundDuration":910314,"Delta":171125239},{"NoteNumber":73,"Velocity":86,"Duration":910314,"SoundDuration":910314,"Delta":171125239},{"NoteNumber":37,"Velocity":55,"Duration":910314,"SoundDuration":910314,"Delta":171125239},{"NoteNumber":49,"Velocity":62,"Duration":910314,"SoundDuration":910314,"Delta":171125239},{"NoteNumber":54,"Velocity":51,"Duration":299490,"SoundDuration":299490,"Delta":171424730},{"NoteNumber":58,"Velocity":51,"Duration":311332,"SoundDuration":311332,"Delta":171724221},{"NoteNumber":66,"Velocity":75,"Duration":688731,"SoundDuration":688731,"Delta":172035553},{"NoteNumber":70,"Velocity":82,"Duration":688731,"SoundDuration":688731,"Delta":172035553},{"NoteNumber":61,"Velocity":57,"Duration":299491,"SoundDuration":299491,"Delta":172035553},{"NoteNumber":58,"Velocity":52,"Duration":308880,"SoundDuration":308880,"Delta":172335044},{"NoteNumber":54,"Velocity":45,"Duration":321439,"SoundDuration":321439,"Delta":172643925},{"NoteNumber":78,"Velocity":62,"Duration":229025,"SoundDuration":229025,"Delta":172724285},{"NoteNumber":71,"Velocity":55,"Duration":1868258,"SoundDuration":1868258,"Delta":172965365},{"NoteNumber":66,"Velocity":55,"Duration":924359,"SoundDuration":924359,"Delta":172965365},{"NoteNumber":78,"Velocity":63,"Duration":924359,"SoundDuration":924359,"Delta":172965365},{"NoteNumber":38,"Velocity":40,"Duration":924359,"SoundDuration":924359,"Delta":172965365},{"NoteNumber":50,"Velocity":40,"Duration":924359,"SoundDuration":924359,"Delta":172965365},{"NoteNumber":56,"Velocity":34,"Duration":306513,"SoundDuration":306513,"Delta":173271878},{"NoteNumber":59,"Velocity":35,"Duration":311332,"SoundDuration":311332,"Delta":173578391},{"NoteNumber":65,"Velocity":49,"Duration":943899,"SoundDuration":943899,"Delta":173889724},{"NoteNumber":77,"Velocity":55,"Duration":943899,"SoundDuration":943899,"Delta":173889724},{"NoteNumber":62,"Velocity":36,"Duration":299491,"SoundDuration":299491,"Delta":173889724},{"NoteNumber":59,"Velocity":31,"Duration":306513,"SoundDuration":306513,"Delta":174189215},{"NoteNumber":56,"Velocity":29,"Duration":337895,"SoundDuration":337895,"Delta":174495728},{"NoteNumber":66,"Velocity":53,"Duration":910314,"SoundDuration":910314,"Delta":174833623},{"NoteNumber":70,"Velocity":59,"Duration":910314,"SoundDuration":910314,"Delta":174833623},{"NoteNumber":39,"Velocity":40,"Duration":910314,"SoundDuration":910314,"Delta":174833623},{"NoteNumber":51,"Velocity":33,"Duration":299490,"SoundDuration":299490,"Delta":175133114},{"NoteNumber":54,"Velocity":33,"Duration":311332,"SoundDuration":311332,"Delta":175432605},{"NoteNumber":63,"Velocity":55,"Duration":685591,"SoundDuration":685591,"Delta":175743938},{"NoteNumber":66,"Velocity":55,"Duration":685591,"SoundDuration":685591,"Delta":175743938},{"NoteNumber":58,"Velocity":36,"Duration":299491,"SoundDuration":299491,"Delta":175743938},{"NoteNumber":54,"Velocity":34,"Duration":308880,"SoundDuration":308880,"Delta":176043429},{"NoteNumber":51,"Velocity":34,"Duration":308880,"SoundDuration":308880,"Delta":176352309},{"NoteNumber":71,"Velocity":63,"Duration":220077,"SoundDuration":220077,"Delta":176429530},{"NoteNumber":75,"Velocity":63,"Duration":220077,"SoundDuration":220077,"Delta":176429530},{"NoteNumber":71,"Velocity":70,"Duration":1226256,"SoundDuration":1226256,"Delta":176661190},{"NoteNumber":68,"Velocity":62,"Duration":914923,"SoundDuration":914923,"Delta":176661190},{"NoteNumber":63,"Velocity":62,"Duration":914923,"SoundDuration":914923,"Delta":176661190},{"NoteNumber":75,"Velocity":70,"Duration":1226256,"SoundDuration":1226256,"Delta":176661190},{"NoteNumber":44,"Velocity":38,"Duration":914923,"SoundDuration":914923,"Delta":176661190},{"NoteNumber":51,"Velocity":34,"Duration":301795,"SoundDuration":301795,"Delta":176962985},{"NoteNumber":56,"Velocity":34,"Duration":311332,"SoundDuration":311332,"Delta":177264781},{"NoteNumber":59,"Velocity":36,"Duration":919641,"SoundDuration":919641,"Delta":177576114},{"NoteNumber":70,"Velocity":55,"Duration":301795,"SoundDuration":301795,"Delta":177887446},{"NoteNumber":73,"Velocity":55,"Duration":301795,"SoundDuration":301795,"Delta":177887446},{"NoteNumber":68,"Velocity":55,"Duration":306513,"SoundDuration":306513,"Delta":178189242},{"NoteNumber":71,"Velocity":55,"Duration":306513,"SoundDuration":306513,"Delta":178189242},{"NoteNumber":66,"Velocity":53,"Duration":910314,"SoundDuration":910314,"Delta":178495755},{"NoteNumber":70,"Velocity":59,"Duration":910314,"SoundDuration":910314,"Delta":178495755},{"NoteNumber":39,"Velocity":40,"Duration":910314,"SoundDuration":910314,"Delta":178495755},{"NoteNumber":51,"Velocity":33,"Duration":299490,"SoundDuration":299490,"Delta":178795246},{"NoteNumber":54,"Velocity":33,"Duration":311332,"SoundDuration":311332,"Delta":179094737},{"NoteNumber":63,"Velocity":55,"Duration":685591,"SoundDuration":685591,"Delta":179406070},{"NoteNumber":66,"Velocity":55,"Duration":685591,"SoundDuration":685591,"Delta":179406070},{"NoteNumber":58,"Velocity":36,"Duration":299491,"SoundDuration":299491,"Delta":179406070},{"NoteNumber":54,"Velocity":34,"Duration":308880,"SoundDuration":308880,"Delta":179705561},{"NoteNumber":51,"Velocity":34,"Duration":308880,"SoundDuration":308880,"Delta":180014441},{"NoteNumber":71,"Velocity":63,"Duration":220077,"SoundDuration":220077,"Delta":180091662},{"NoteNumber":75,"Velocity":63,"Duration":220077,"SoundDuration":220077,"Delta":180091662},{"NoteNumber":71,"Velocity":68,"Duration":1226256,"SoundDuration":1226256,"Delta":180323322},{"NoteNumber":68,"Velocity":68,"Duration":914923,"SoundDuration":914923,"Delta":180323322},{"NoteNumber":63,"Velocity":68,"Duration":914923,"SoundDuration":914923,"Delta":180323322},{"NoteNumber":75,"Velocity":76,"Duration":1226256,"SoundDuration":1226256,"Delta":180323322},{"NoteNumber":44,"Velocity":38,"Duration":914923,"SoundDuration":914923,"Delta":180323322},{"NoteNumber":51,"Velocity":36,"Duration":301795,"SoundDuration":301795,"Delta":180625117},{"NoteNumber":56,"Velocity":38,"Duration":311332,"SoundDuration":311332,"Delta":180926913},{"NoteNumber":59,"Velocity":45,"Duration":919641,"SoundDuration":919641,"Delta":181238246},{"NoteNumber":70,"Velocity":73,"Duration":301795,"SoundDuration":301795,"Delta":181549578},{"NoteNumber":73,"Velocity":73,"Duration":301795,"SoundDuration":301795,"Delta":181549578},{"NoteNumber":68,"Velocity":71,"Duration":306513,"SoundDuration":306513,"Delta":181851374},{"NoteNumber":71,"Velocity":71,"Duration":306513,"SoundDuration":306513,"Delta":181851374},{"NoteNumber":71,"Velocity":74,"Duration":1226256,"SoundDuration":1226256,"Delta":182157887},{"NoteNumber":68,"Velocity":68,"Duration":914923,"SoundDuration":914923,"Delta":182157887},{"NoteNumber":63,"Velocity":68,"Duration":914923,"SoundDuration":914923,"Delta":182157887},{"NoteNumber":75,"Velocity":76,"Duration":1226256,"SoundDuration":1226256,"Delta":182157887},{"NoteNumber":44,"Velocity":52,"Duration":914923,"SoundDuration":914923,"Delta":182157887},{"NoteNumber":51,"Velocity":37,"Duration":301795,"SoundDuration":301795,"Delta":182459683},{"NoteNumber":56,"Velocity":40,"Duration":311332,"SoundDuration":311332,"Delta":182761479},{"NoteNumber":59,"Velocity":47,"Duration":919641,"SoundDuration":919641,"Delta":183072811},{"NoteNumber":70,"Velocity":73,"Duration":301795,"SoundDuration":301795,"Delta":183384144},{"NoteNumber":73,"Velocity":73,"Duration":301795,"SoundDuration":301795,"Delta":183384144},{"NoteNumber":68,"Velocity":71,"Duration":291187,"SoundDuration":291187,"Delta":183685940},{"NoteNumber":71,"Velocity":71,"Duration":291187,"SoundDuration":291187,"Delta":183685940},{"NoteNumber":71,"Velocity":74,"Duration":3197197,"SoundDuration":3197197,"Delta":183992453},{"NoteNumber":68,"Velocity":74,"Duration":3197197,"SoundDuration":3197197,"Delta":183992453},{"NoteNumber":63,"Velocity":74,"Duration":3197197,"SoundDuration":3197197,"Delta":183992453},{"NoteNumber":75,"Velocity":76,"Duration":3197197,"SoundDuration":3197197,"Delta":183992453},{"NoteNumber":44,"Velocity":60,"Duration":914924,"SoundDuration":914924,"Delta":183992453},{"NoteNumber":51,"Velocity":51,"Duration":301795,"SoundDuration":301795,"Delta":184294249},{"NoteNumber":56,"Velocity":51,"Duration":311332,"SoundDuration":311332,"Delta":184596044},{"NoteNumber":59,"Velocity":57,"Duration":304090,"SoundDuration":304090,"Delta":184907377},{"NoteNumber":56,"Velocity":55,"Duration":301795,"SoundDuration":301795,"Delta":185211467},{"NoteNumber":51,"Velocity":54,"Duration":306513,"SoundDuration":306513,"Delta":185513263},{"NoteNumber":59,"Velocity":55,"Duration":301795,"SoundDuration":301795,"Delta":185819776},{"NoteNumber":56,"Velocity":43,"Duration":301795,"SoundDuration":301795,"Delta":186121572},{"NoteNumber":51,"Velocity":38,"Duration":306513,"SoundDuration":306513,"Delta":186423367},{"NoteNumber":59,"Velocity":34,"Duration":919540,"SoundDuration":919540,"Delta":186729881},{"NoteNumber":74,"Velocity":55,"Duration":459770,"SoundDuration":459770,"Delta":187189651},{"NoteNumber":77,"Velocity":58,"Duration":470662,"SoundDuration":470662,"Delta":187649421},{"NoteNumber":75,"Velocity":54,"Duration":470662,"SoundDuration":470662,"Delta":188120083},{"NoteNumber":71,"Velocity":44,"Duration":477611,"SoundDuration":477611,"Delta":188590745},{"NoteNumber":68,"Velocity":42,"Duration":517205,"SoundDuration":517205,"Delta":189068356},{"NoteNumber":67,"Velocity":50,"Duration":1351217,"SoundDuration":1351217,"Delta":189585562},{"NoteNumber":34,"Velocity":27,"Duration":900740,"SoundDuration":900740,"Delta":189585562},{"NoteNumber":55,"Velocity":32,"Duration":287769,"SoundDuration":287769,"Delta":189894442},{"NoteNumber":46,"Velocity":24,"Duration":287769,"SoundDuration":287769,"Delta":189894442},{"NoteNumber":58,"Velocity":31,"Duration":304090,"SoundDuration":304090,"Delta":190182212},{"NoteNumber":51,"Velocity":25,"Duration":304090,"SoundDuration":304090,"Delta":190182212},{"NoteNumber":63,"Velocity":41,"Duration":297221,"SoundDuration":297221,"Delta":190486302},{"NoteNumber":55,"Velocity":27,"Duration":297221,"SoundDuration":297221,"Delta":190486302},{"NoteNumber":58,"Velocity":31,"Duration":306513,"SoundDuration":306513,"Delta":190783523},{"NoteNumber":51,"Velocity":24,"Duration":306513,"SoundDuration":306513,"Delta":190783523},{"NoteNumber":68,"Velocity":50,"Duration":472083,"SoundDuration":472083,"Delta":190936780},{"NoteNumber":55,"Velocity":31,"Duration":318826,"SoundDuration":318826,"Delta":191090036},{"NoteNumber":46,"Velocity":24,"Duration":318826,"SoundDuration":318826,"Delta":191090036},{"NoteNumber":70,"Velocity":62,"Duration":912614,"SoundDuration":912614,"Delta":191408863},{"NoteNumber":34,"Velocity":27,"Duration":912614,"SoundDuration":912614,"Delta":191408863},{"NoteNumber":55,"Velocity":31,"Duration":297220,"SoundDuration":297220,"Delta":191717743},{"NoteNumber":46,"Velocity":25,"Duration":297220,"SoundDuration":297220,"Delta":191717743},{"NoteNumber":58,"Velocity":31,"Duration":306513,"SoundDuration":306513,"Delta":192014964},{"NoteNumber":51,"Velocity":25,"Duration":306513,"SoundDuration":306513,"Delta":192014964},{"NoteNumber":63,"Velocity":52,"Duration":922561,"SoundDuration":922561,"Delta":192321478},{"NoteNumber":55,"Velocity":27,"Duration":297221,"SoundDuration":297221,"Delta":192321478},{"NoteNumber":58,"Velocity":30,"Duration":306513,"SoundDuration":306513,"Delta":192618699},{"NoteNumber":51,"Velocity":24,"Duration":306513,"SoundDuration":306513,"Delta":192618699},{"NoteNumber":55,"Velocity":30,"Duration":318826,"SoundDuration":318826,"Delta":192925212},{"NoteNumber":46,"Velocity":24,"Duration":318826,"SoundDuration":318826,"Delta":192925212},{"NoteNumber":68,"Velocity":56,"Duration":910191,"SoundDuration":910191,"Delta":193244039},{"NoteNumber":34,"Velocity":27,"Duration":910191,"SoundDuration":910191,"Delta":193244039},{"NoteNumber":56,"Velocity":32,"Duration":297220,"SoundDuration":297220,"Delta":193552919},{"NoteNumber":46,"Velocity":24,"Duration":297220,"SoundDuration":297220,"Delta":193552919},{"NoteNumber":58,"Velocity":31,"Duration":304090,"SoundDuration":304090,"Delta":193850140},{"NoteNumber":50,"Velocity":25,"Duration":304090,"SoundDuration":304090,"Delta":193850140},{"NoteNumber":62,"Velocity":40,"Duration":922561,"SoundDuration":922561,"Delta":194154230},{"NoteNumber":53,"Velocity":27,"Duration":297221,"SoundDuration":297221,"Delta":194154230},{"NoteNumber":58,"Velocity":31,"Duration":306513,"SoundDuration":306513,"Delta":194451451},{"NoteNumber":50,"Velocity":24,"Duration":306513,"SoundDuration":306513,"Delta":194451451},{"NoteNumber":56,"Velocity":31,"Duration":318826,"SoundDuration":318826,"Delta":194757964},{"NoteNumber":46,"Velocity":24,"Duration":318826,"SoundDuration":318826,"Delta":194757964},{"NoteNumber":63,"Velocity":62,"Duration":1384072,"SoundDuration":1384072,"Delta":195076791},{"NoteNumber":36,"Velocity":27,"Duration":923561,"SoundDuration":923561,"Delta":195076791},{"NoteNumber":51,"Velocity":32,"Duration":297220,"SoundDuration":297220,"Delta":195385671},{"NoteNumber":43,"Velocity":32,"Duration":297220,"SoundDuration":297220,"Delta":195385671},{"NoteNumber":55,"Velocity":32,"Duration":317460,"SoundDuration":317460,"Delta":195682892},{"NoteNumber":48,"Velocity":32,"Duration":317460,"SoundDuration":317460,"Delta":195682892},{"NoteNumber":60,"Velocity":35,"Duration":303030,"SoundDuration":303030,"Delta":196000353},{"NoteNumber":51,"Velocity":35,"Duration":303030,"SoundDuration":303030,"Delta":196000353},{"NoteNumber":55,"Velocity":29,"Duration":314960,"SoundDuration":314960,"Delta":196303383},{"NoteNumber":48,"Velocity":29,"Duration":314960,"SoundDuration":314960,"Delta":196303383},{"NoteNumber":62,"Velocity":58,"Duration":493614,"SoundDuration":493614,"Delta":196460863},{"NoteNumber":51,"Velocity":30,"Duration":336134,"SoundDuration":336134,"Delta":196618344},{"NoteNumber":43,"Velocity":30,"Duration":336134,"SoundDuration":336134,"Delta":196618344},{"NoteNumber":60,"Velocity":67,"Duration":1360669,"SoundDuration":1360669,"Delta":196954478},{"NoteNumber":44,"Velocity":39,"Duration":289575,"SoundDuration":289575,"Delta":196954478},{"NoteNumber":32,"Velocity":36,"Duration":910191,"SoundDuration":910191,"Delta":196954478},{"NoteNumber":44,"Velocity":35,"Duration":297220,"SoundDuration":297220,"Delta":197263358},{"NoteNumber":48,"Velocity":33,"Duration":304090,"SoundDuration":304090,"Delta":197560579},{"NoteNumber":53,"Velocity":45,"Duration":297221,"SoundDuration":297221,"Delta":197864669},{"NoteNumber":48,"Velocity":37,"Duration":306513,"SoundDuration":306513,"Delta":198161890},{"NoteNumber":65,"Velocity":64,"Duration":472083,"SoundDuration":472083,"Delta":198315147},{"NoteNumber":44,"Velocity":37,"Duration":318826,"SoundDuration":318826,"Delta":198468404},{"NoteNumber":68,"Velocity":75,"Duration":457490,"SoundDuration":457490,"Delta":198787230},{"NoteNumber":41,"Velocity":48,"Duration":912614,"SoundDuration":912614,"Delta":198787230},{"NoteNumber":29,"Velocity":43,"Duration":912614,"SoundDuration":912614,"Delta":198787230},{"NoteNumber":48,"Velocity":38,"Duration":297220,"SoundDuration":297220,"Delta":199096111},{"NoteNumber":72,"Velocity":71,"Duration":454484,"SoundDuration":454484,"Delta":199224287},{"NoteNumber":53,"Velocity":45,"Duration":306513,"SoundDuration":306513,"Delta":199393332},{"NoteNumber":79,"Velocity":77,"Duration":683441,"SoundDuration":683441,"Delta":199699845},{"NoteNumber":56,"Velocity":49,"Duration":297221,"SoundDuration":297221,"Delta":199699845},{"NoteNumber":53,"Velocity":45,"Duration":306513,"SoundDuration":306513,"Delta":199997066},{"NoteNumber":48,"Velocity":42,"Duration":318826,"SoundDuration":318826,"Delta":200303579},{"NoteNumber":77,"Velocity":73,"Duration":239119,"SoundDuration":239119,"Delta":200383286},{"NoteNumber":75,"Velocity":77,"Duration":939114,"SoundDuration":939114,"Delta":200622406},{"NoteNumber":34,"Velocity":29,"Duration":939114,"SoundDuration":939114,"Delta":200622406},{"NoteNumber":46,"Velocity":33,"Duration":939114,"SoundDuration":939114,"Delta":200622406},{"NoteNumber":53,"Velocity":36,"Duration":306513,"SoundDuration":306513,"Delta":200941233},{"NoteNumber":56,"Velocity":30,"Duration":313774,"SoundDuration":313774,"Delta":201247746},{"NoteNumber":74,"Velocity":70,"Duration":1915214,"SoundDuration":1915214,"Delta":201561521},{"NoteNumber":68,"Velocity":36,"Duration":313774,"SoundDuration":313774,"Delta":201561521},{"NoteNumber":58,"Velocity":36,"Duration":313774,"SoundDuration":313774,"Delta":201561521},{"NoteNumber":65,"Velocity":36,"Duration":313774,"SoundDuration":313774,"Delta":201875295},{"NoteNumber":56,"Velocity":32,"Duration":313774,"SoundDuration":313774,"Delta":201875295},{"NoteNumber":62,"Velocity":31,"Duration":301795,"SoundDuration":301795,"Delta":202189070},{"NoteNumber":53,"Velocity":28,"Duration":301795,"SoundDuration":301795,"Delta":202189070},{"NoteNumber":68,"Velocity":33,"Duration":315437,"SoundDuration":315437,"Delta":202490866},{"NoteNumber":58,"Velocity":27,"Duration":315437,"SoundDuration":315437,"Delta":202490866},{"NoteNumber":65,"Velocity":29,"Duration":322712,"SoundDuration":322712,"Delta":202806303},{"NoteNumber":56,"Velocity":23,"Duration":322712,"SoundDuration":322712,"Delta":202806303},{"NoteNumber":62,"Velocity":29,"Duration":347719,"SoundDuration":347719,"Delta":203129016},{"NoteNumber":53,"Velocity":23,"Duration":347719,"SoundDuration":347719,"Delta":203129016},{"NoteNumber":74,"Velocity":55,"Duration":330578,"SoundDuration":330578,"Delta":203476735},{"NoteNumber":68,"Velocity":45,"Duration":1068673,"SoundDuration":1068673,"Delta":203476735},{"NoteNumber":50,"Velocity":21,"Duration":1068673,"SoundDuration":1068673,"Delta":203476735},{"NoteNumber":58,"Velocity":23,"Duration":330578,"SoundDuration":330578,"Delta":203476735},{"NoteNumber":72,"Velocity":51,"Duration":357142,"SoundDuration":357142,"Delta":203807314},{"NoteNumber":56,"Velocity":18,"Duration":357142,"SoundDuration":357142,"Delta":203807314},{"NoteNumber":70,"Velocity":48,"Duration":380952,"SoundDuration":380952,"Delta":204164457},{"NoteNumber":53,"Velocity":18,"Duration":380952,"SoundDuration":380952,"Delta":204164457},{"NoteNumber":67,"Velocity":46,"Duration":896538,"SoundDuration":896538,"Delta":204545409},{"NoteNumber":70,"Velocity":50,"Duration":896538,"SoundDuration":896538,"Delta":204545409},{"NoteNumber":39,"Velocity":45,"Duration":896538,"SoundDuration":896538,"Delta":204545409},{"NoteNumber":51,"Velocity":36,"Duration":285714,"SoundDuration":285714,"Delta":204844900},{"NoteNumber":55,"Velocity":36,"Duration":311332,"SoundDuration":311332,"Delta":205130615},{"NoteNumber":63,"Velocity":54,"Duration":678071,"SoundDuration":678071,"Delta":205441947},{"NoteNumber":67,"Velocity":58,"Duration":678071,"SoundDuration":678071,"Delta":205441947},{"NoteNumber":58,"Velocity":41,"Duration":291970,"SoundDuration":291970,"Delta":205441947},{"NoteNumber":55,"Velocity":37,"Duration":308880,"SoundDuration":308880,"Delta":205733918},{"NoteNumber":51,"Velocity":37,"Duration":308880,"SoundDuration":308880,"Delta":206042798},{"NoteNumber":75,"Velocity":72,"Duration":220077,"SoundDuration":220077,"Delta":206120018},{"NoteNumber":68,"Velocity":64,"Duration":1828209,"SoundDuration":1828209,"Delta":206351679},{"NoteNumber":63,"Velocity":64,"Duration":899568,"SoundDuration":899568,"Delta":206351679},{"NoteNumber":75,"Velocity":72,"Duration":899568,"SoundDuration":899568,"Delta":206351679},{"NoteNumber":34,"Velocity":51,"Duration":899568,"SoundDuration":899568,"Delta":206351679},{"NoteNumber":46,"Velocity":51,"Duration":899568,"SoundDuration":899568,"Delta":206351679},{"NoteNumber":53,"Velocity":37,"Duration":294117,"SoundDuration":294117,"Delta":206645796},{"NoteNumber":56,"Velocity":37,"Duration":311332,"SoundDuration":311332,"Delta":206939914},{"NoteNumber":62,"Velocity":55,"Duration":928641,"SoundDuration":928641,"Delta":207251247},{"NoteNumber":74,"Velocity":60,"Duration":928641,"SoundDuration":928641,"Delta":207251247},{"NoteNumber":58,"Velocity":41,"Duration":303030,"SoundDuration":303030,"Delta":207251247},{"NoteNumber":56,"Velocity":37,"Duration":303030,"SoundDuration":303030,"Delta":207554277},{"NoteNumber":53,"Velocity":37,"Duration":322580,"SoundDuration":322580,"Delta":207857307},{"NoteNumber":67,"Velocity":58,"Duration":910314,"SoundDuration":910314,"Delta":208179888},{"NoteNumber":70,"Velocity":66,"Duration":910314,"SoundDuration":910314,"Delta":208179888},{"NoteNumber":39,"Velocity":45,"Duration":910314,"SoundDuration":910314,"Delta":208179888},{"NoteNumber":51,"Velocity":36,"Duration":299490,"SoundDuration":299490,"Delta":208479379},{"NoteNumber":55,"Velocity":36,"Duration":311332,"SoundDuration":311332,"Delta":208778870},{"NoteNumber":63,"Velocity":57,"Duration":685591,"SoundDuration":685591,"Delta":209090203},{"NoteNumber":67,"Velocity":64,"Duration":685591,"SoundDuration":685591,"Delta":209090203},{"NoteNumber":58,"Velocity":41,"Duration":299491,"SoundDuration":299491,"Delta":209090203},{"NoteNumber":55,"Velocity":37,"Duration":308880,"SoundDuration":308880,"Delta":209389694},{"NoteNumber":51,"Velocity":33,"Duration":308880,"SoundDuration":308880,"Delta":209698574},{"NoteNumber":75,"Velocity":64,"Duration":220077,"SoundDuration":220077,"Delta":209775794},{"NoteNumber":68,"Velocity":56,"Duration":1848922,"SoundDuration":1848922,"Delta":210007454},{"NoteNumber":63,"Velocity":56,"Duration":914923,"SoundDuration":914923,"Delta":210007454},{"NoteNumber":75,"Velocity":63,"Duration":914923,"SoundDuration":914923,"Delta":210007454},{"NoteNumber":35,"Velocity":35,"Duration":914923,"SoundDuration":914923,"Delta":210007454},{"NoteNumber":47,"Velocity":40,"Duration":914923,"SoundDuration":914923,"Delta":210007454},{"NoteNumber":53,"Velocity":31,"Duration":301795,"SoundDuration":301795,"Delta":210309250},{"NoteNumber":56,"Velocity":31,"Duration":311332,"SoundDuration":311332,"Delta":210611046},{"NoteNumber":62,"Velocity":44,"Duration":933998,"SoundDuration":933998,"Delta":210922378},{"NoteNumber":74,"Velocity":49,"Duration":933998,"SoundDuration":933998,"Delta":210922378},{"NoteNumber":62,"Velocity":39,"Duration":933998,"SoundDuration":933998,"Delta":210922378},{"NoteNumber":74,"Velocity":44,"Duration":933998,"SoundDuration":933998,"Delta":210922378},{"NoteNumber":59,"Velocity":32,"Duration":311332,"SoundDuration":311332,"Delta":210922378},{"NoteNumber":56,"Velocity":29,"Duration":311332,"SoundDuration":311332,"Delta":211233711},{"NoteNumber":53,"Velocity":28,"Duration":311332,"SoundDuration":311332,"Delta":211545044},{"NoteNumber":63,"Velocity":52,"Duration":910314,"SoundDuration":910314,"Delta":211856376},{"NoteNumber":67,"Velocity":52,"Duration":910314,"SoundDuration":910314,"Delta":211856376},{"NoteNumber":36,"Velocity":34,"Duration":910314,"SoundDuration":910314,"Delta":211856376},{"NoteNumber":48,"Velocity":26,"Duration":299490,"SoundDuration":299490,"Delta":212155867},{"NoteNumber":51,"Velocity":26,"Duration":311332,"SoundDuration":311332,"Delta":212455358},{"NoteNumber":60,"Velocity":51,"Duration":685591,"SoundDuration":685591,"Delta":212766691},{"NoteNumber":63,"Velocity":51,"Duration":685591,"SoundDuration":685591,"Delta":212766691},{"NoteNumber":55,"Velocity":30,"Duration":299491,"SoundDuration":299491,"Delta":212766691},{"NoteNumber":51,"Velocity":27,"Duration":308880,"SoundDuration":308880,"Delta":213066182},{"NoteNumber":48,"Velocity":24,"Duration":314449,"SoundDuration":314449,"Delta":213375062},{"NoteNumber":67,"Velocity":52,"Duration":237229,"SoundDuration":237229,"Delta":213452282},{"NoteNumber":70,"Velocity":52,"Duration":237229,"SoundDuration":237229,"Delta":213452282},{"NoteNumber":60,"Velocity":46,"Duration":905386,"SoundDuration":905386,"Delta":213689512},{"NoteNumber":67,"Velocity":52,"Duration":452693,"SoundDuration":452693,"Delta":213689512},{"NoteNumber":70,"Velocity":52,"Duration":452693,"SoundDuration":452693,"Delta":213689512},{"NoteNumber":44,"Velocity":34,"Duration":905386,"SoundDuration":905386,"Delta":213689512},{"NoteNumber":65,"Velocity":46,"Duration":452693,"SoundDuration":452693,"Delta":214142205},{"NoteNumber":68,"Velocity":46,"Duration":452693,"SoundDuration":452693,"Delta":214142205},{"NoteNumber":63,"Velocity":49,"Duration":460786,"SoundDuration":460786,"Delta":214594899},{"NoteNumber":67,"Velocity":49,"Duration":460786,"SoundDuration":460786,"Delta":214594899},{"NoteNumber":46,"Velocity":27,"Duration":935244,"SoundDuration":935244,"Delta":214594899},{"NoteNumber":56,"Velocity":30,"Duration":935244,"SoundDuration":935244,"Delta":214594899},{"NoteNumber":62,"Velocity":43,"Duration":474458,"SoundDuration":474458,"Delta":215055685},{"NoteNumber":65,"Velocity":43,"Duration":474458,"SoundDuration":474458,"Delta":215055685},{"NoteNumber":65,"Velocity":54,"Duration":1825258,"SoundDuration":1825258,"Delta":215530143},{"NoteNumber":51,"Velocity":36,"Duration":3646746,"SoundDuration":3646746,"Delta":215530143},{"NoteNumber":67,"Velocity":36,"Duration":297220,"SoundDuration":297220,"Delta":215839024},{"NoteNumber":58,"Velocity":28,"Duration":297220,"SoundDuration":297220,"Delta":215839024},{"NoteNumber":68,"Velocity":36,"Duration":304090,"SoundDuration":304090,"Delta":216136245},{"NoteNumber":60,"Velocity":28,"Duration":304090,"SoundDuration":304090,"Delta":216136245},{"NoteNumber":70,"Velocity":41,"Duration":297221,"SoundDuration":297221,"Delta":216440335},{"NoteNumber":61,"Velocity":32,"Duration":297221,"SoundDuration":297221,"Delta":216440335},{"NoteNumber":67,"Velocity":36,"Duration":306513,"SoundDuration":306513,"Delta":216737556},{"NoteNumber":58,"Velocity":29,"Duration":306513,"SoundDuration":306513,"Delta":216737556},{"NoteNumber":68,"Velocity":37,"Duration":311332,"SoundDuration":311332,"Delta":217044069},{"NoteNumber":60,"Velocity":26,"Duration":311332,"SoundDuration":311332,"Delta":217044069},{"NoteNumber":63,"Velocity":52,"Duration":1821488,"SoundDuration":1821488,"Delta":217355402},{"NoteNumber":70,"Velocity":35,"Duration":308880,"SoundDuration":308880,"Delta":217355402},{"NoteNumber":61,"Velocity":31,"Duration":308880,"SoundDuration":308880,"Delta":217355402},{"NoteNumber":67,"Velocity":36,"Duration":297220,"SoundDuration":297220,"Delta":217664282},{"NoteNumber":58,"Velocity":28,"Duration":297220,"SoundDuration":297220,"Delta":217664282},{"NoteNumber":68,"Velocity":36,"Duration":292825,"SoundDuration":292825,"Delta":217961503},{"NoteNumber":60,"Velocity":28,"Duration":292825,"SoundDuration":292825,"Delta":217961503},{"NoteNumber":70,"Velocity":37,"Duration":297221,"SoundDuration":297221,"Delta":218254329},{"NoteNumber":61,"Velocity":32,"Duration":297221,"SoundDuration":297221,"Delta":218254329},{"NoteNumber":73,"Velocity":41,"Duration":306513,"SoundDuration":306513,"Delta":218551550},{"NoteNumber":58,"Velocity":29,"Duration":306513,"SoundDuration":306513,"Delta":218551550},{"NoteNumber":72,"Velocity":37,"Duration":318826,"SoundDuration":318826,"Delta":218858063},{"NoteNumber":56,"Velocity":29,"Duration":318826,"SoundDuration":318826,"Delta":218858063},{"NoteNumber":70,"Velocity":37,"Duration":308880,"SoundDuration":308880,"Delta":219176890},{"NoteNumber":55,"Velocity":28,"Duration":308880,"SoundDuration":308880,"Delta":219176890},{"NoteNumber":51,"Velocity":36,"Duration":3646746,"SoundDuration":3646746,"Delta":219176890},{"NoteNumber":73,"Velocity":42,"Duration":297220,"SoundDuration":297220,"Delta":219485770},{"NoteNumber":58,"Velocity":28,"Duration":297220,"SoundDuration":297220,"Delta":219485770},{"NoteNumber":72,"Velocity":37,"Duration":304090,"SoundDuration":304090,"Delta":219782991},{"NoteNumber":56,"Velocity":28,"Duration":304090,"SoundDuration":304090,"Delta":219782991},{"NoteNumber":75,"Velocity":66,"Duration":1813994,"SoundDuration":1813994,"Delta":220087081},{"NoteNumber":70,"Velocity":47,"Duration":297221,"SoundDuration":297221,"Delta":220087081},{"NoteNumber":55,"Velocity":32,"Duration":297221,"SoundDuration":297221,"Delta":220087081},{"NoteNumber":67,"Velocity":36,"Duration":306513,"SoundDuration":306513,"Delta":220384302},{"NoteNumber":58,"Velocity":29,"Duration":306513,"SoundDuration":306513,"Delta":220384302},{"NoteNumber":68,"Velocity":37,"Duration":311332,"SoundDuration":311332,"Delta":220690815},{"NoteNumber":60,"Velocity":26,"Duration":311332,"SoundDuration":311332,"Delta":220690815},{"NoteNumber":70,"Velocity":41,"Duration":308880,"SoundDuration":308880,"Delta":221002148},{"NoteNumber":61,"Velocity":31,"Duration":308880,"SoundDuration":308880,"Delta":221002148},{"NoteNumber":68,"Velocity":36,"Duration":297220,"SoundDuration":297220,"Delta":221311028},{"NoteNumber":65,"Velocity":28,"Duration":297220,"SoundDuration":297220,"Delta":221311028},{"NoteNumber":67,"Velocity":36,"Duration":289165,"SoundDuration":289165,"Delta":221608249},{"NoteNumber":63,"Velocity":28,"Duration":292825,"SoundDuration":292825,"Delta":221608249},{"NoteNumber":67,"Velocity":58,"Duration":922561,"SoundDuration":922561,"Delta":221901075},{"NoteNumber":65,"Velocity":47,"Duration":297221,"SoundDuration":297221,"Delta":221901075},{"NoteNumber":61,"Velocity":32,"Duration":297221,"SoundDuration":297221,"Delta":221901075},{"NoteNumber":60,"Velocity":29,"Duration":306455,"SoundDuration":306455,"Delta":222196438},{"NoteNumber":63,"Velocity":36,"Duration":306513,"SoundDuration":306513,"Delta":222198296},{"NoteNumber":61,"Velocity":36,"Duration":318826,"SoundDuration":318826,"Delta":222504809},{"NoteNumber":58,"Velocity":29,"Duration":318764,"SoundDuration":318764,"Delta":222506802},{"NoteNumber":70,"Velocity":66,"Duration":910191,"SoundDuration":910191,"Delta":222823636},{"NoteNumber":51,"Velocity":36,"Duration":3634376,"SoundDuration":3634376,"Delta":222823636},{"NoteNumber":60,"Velocity":42,"Duration":297220,"SoundDuration":297220,"Delta":223132516},{"NoteNumber":56,"Velocity":28,"Duration":297220,"SoundDuration":297220,"Delta":223132516},{"NoteNumber":61,"Velocity":37,"Duration":304090,"SoundDuration":304090,"Delta":223429737},{"NoteNumber":58,"Velocity":28,"Duration":304090,"SoundDuration":304090,"Delta":223429737},{"NoteNumber":68,"Velocity":62,"Duration":915067,"SoundDuration":915067,"Delta":223733827},{"NoteNumber":63,"Velocity":50,"Duration":297221,"SoundDuration":297221,"Delta":223733827},{"NoteNumber":60,"Velocity":32,"Duration":293505,"SoundDuration":293505,"Delta":223733827},{"NoteNumber":60,"Velocity":36,"Duration":306513,"SoundDuration":306513,"Delta":224031048},{"NoteNumber":56,"Velocity":29,"Duration":306513,"SoundDuration":306513,"Delta":224031048},{"NoteNumber":61,"Velocity":37,"Duration":311332,"SoundDuration":311332,"Delta":224337562},{"NoteNumber":58,"Velocity":26,"Duration":311332,"SoundDuration":311332,"Delta":224337562},{"NoteNumber":63,"Velocity":41,"Duration":308880,"SoundDuration":308880,"Delta":224648894},{"NoteNumber":60,"Velocity":31,"Duration":305019,"SoundDuration":305019,"Delta":224648894},{"NoteNumber":60,"Velocity":36,"Duration":297220,"SoundDuration":297220,"Delta":224957775},{"NoteNumber":56,"Velocity":28,"Duration":297220,"SoundDuration":297220,"Delta":224957775},{"NoteNumber":68,"Velocity":58,"Duration":441436,"SoundDuration":441436,"Delta":225106385},{"NoteNumber":61,"Velocity":36,"Duration":292825,"SoundDuration":292825,"Delta":225254996},{"NoteNumber":58,"Velocity":28,"Duration":292825,"SoundDuration":292825,"Delta":225254996},{"NoteNumber":68,"Velocity":60,"Duration":449265,"SoundDuration":449265,"Delta":225547821},{"NoteNumber":63,"Velocity":48,"Duration":297221,"SoundDuration":297221,"Delta":225547821},{"NoteNumber":60,"Velocity":32,"Duration":297221,"SoundDuration":297221,"Delta":225547821},{"NoteNumber":61,"Velocity":36,"Duration":304089,"SoundDuration":304089,"Delta":225845042},{"NoteNumber":58,"Velocity":29,"Duration":304089,"SoundDuration":304089,"Delta":225845042},{"NoteNumber":65,"Velocity":57,"Duration":460925,"SoundDuration":460925,"Delta":225997087},{"NoteNumber":60,"Velocity":36,"Duration":308880,"SoundDuration":308880,"Delta":226149132},{"NoteNumber":56,"Velocity":29,"Duration":308880,"SoundDuration":308880,"Delta":226149132},{"NoteNumber":63,"Velocity":69,"Duration":1825258,"SoundDuration":1825258,"Delta":226458013},{"NoteNumber":51,"Velocity":36,"Duration":3113681,"SoundDuration":3113681,"Delta":226458013},{"NoteNumber":56,"Velocity":42,"Duration":297220,"SoundDuration":297220,"Delta":226766893},{"NoteNumber":53,"Velocity":28,"Duration":297220,"SoundDuration":297220,"Delta":226766893},{"NoteNumber":58,"Velocity":37,"Duration":304090,"SoundDuration":304090,"Delta":227064114},{"NoteNumber":55,"Velocity":28,"Duration":304090,"SoundDuration":304090,"Delta":227064114},{"NoteNumber":59,"Velocity":42,"Duration":297221,"SoundDuration":297221,"Delta":227368204},{"NoteNumber":56,"Velocity":33,"Duration":293505,"SoundDuration":293505,"Delta":227368204},{"NoteNumber":56,"Velocity":37,"Duration":306513,"SoundDuration":306513,"Delta":227665425},{"NoteNumber":53,"Velocity":31,"Duration":306513,"SoundDuration":306513,"Delta":227665425},{"NoteNumber":58,"Velocity":43,"Duration":311332,"SoundDuration":311332,"Delta":227971938},{"NoteNumber":55,"Velocity":27,"Duration":311332,"SoundDuration":311332,"Delta":227971938},{"NoteNumber":62,"Velocity":66,"Duration":460953,"SoundDuration":460953,"Delta":228283271},{"NoteNumber":59,"Velocity":46,"Duration":615393,"SoundDuration":615393,"Delta":228283271},{"NoteNumber":56,"Velocity":36,"Duration":615393,"SoundDuration":615393,"Delta":228283271},{"NoteNumber":58,"Velocity":48,"Duration":343478,"SoundDuration":343478,"Delta":228898665},{"NoteNumber":55,"Velocity":33,"Duration":347825,"SoundDuration":347825,"Delta":228898665},{"NoteNumber":58,"Velocity":71,"Duration":1001283,"SoundDuration":1001283,"Delta":229246491},{"NoteNumber":56,"Velocity":54,"Duration":325203,"SoundDuration":325203,"Delta":229246491},{"NoteNumber":53,"Velocity":42,"Duration":325203,"SoundDuration":325203,"Delta":229246491},{"NoteNumber":55,"Velocity":52,"Duration":325203,"SoundDuration":325203,"Delta":229571694},{"NoteNumber":51,"Velocity":36,"Duration":325203,"SoundDuration":325203,"Delta":229571694},{"NoteNumber":56,"Velocity":52,"Duration":350877,"SoundDuration":350877,"Delta":229896897},{"NoteNumber":50,"Velocity":37,"Duration":350877,"SoundDuration":350877,"Delta":229896897},{"NoteNumber":67,"Velocity":76,"Duration":1364422,"SoundDuration":1364422,"Delta":230247775},{"NoteNumber":39,"Velocity":43,"Duration":921311,"SoundDuration":921311,"Delta":230247775},{"NoteNumber":55,"Velocity":51,"Duration":297220,"SoundDuration":297220,"Delta":230567775},{"NoteNumber":46,"Velocity":37,"Duration":297220,"SoundDuration":297220,"Delta":230567775},{"NoteNumber":58,"Velocity":53,"Duration":304090,"SoundDuration":304090,"Delta":230864996},{"NoteNumber":51,"Velocity":39,"Duration":304090,"SoundDuration":304090,"Delta":230864996},{"NoteNumber":63,"Velocity":55,"Duration":289855,"SoundDuration":289855,"Delta":231169086},{"NoteNumber":55,"Velocity":43,"Duration":289855,"SoundDuration":289855,"Delta":231169086},{"NoteNumber":58,"Velocity":48,"Duration":306513,"SoundDuration":306513,"Delta":231458941},{"NoteNumber":51,"Velocity":37,"Duration":306513,"SoundDuration":306513,"Delta":231458941},{"NoteNumber":68,"Velocity":69,"Duration":472083,"SoundDuration":472083,"Delta":231612197},{"NoteNumber":55,"Velocity":48,"Duration":318826,"SoundDuration":318826,"Delta":231765454},{"NoteNumber":46,"Velocity":39,"Duration":318826,"SoundDuration":318826,"Delta":231765454},{"NoteNumber":70,"Velocity":76,"Duration":912614,"SoundDuration":912614,"Delta":232084281},{"NoteNumber":39,"Velocity":45,"Duration":912614,"SoundDuration":912614,"Delta":232084281},{"NoteNumber":55,"Velocity":48,"Duration":297220,"SoundDuration":297220,"Delta":232393161},{"NoteNumber":46,"Velocity":42,"Duration":297220,"SoundDuration":297220,"Delta":232393161},{"NoteNumber":58,"Velocity":49,"Duration":306513,"SoundDuration":306513,"Delta":232690382},{"NoteNumber":51,"Velocity":42,"Duration":306513,"SoundDuration":306513,"Delta":232690382},{"NoteNumber":63,"Velocity":72,"Duration":922561,"SoundDuration":922561,"Delta":232996895},{"NoteNumber":55,"Velocity":46,"Duration":297221,"SoundDuration":297221,"Delta":232996895},{"NoteNumber":58,"Velocity":48,"Duration":306513,"SoundDuration":306513,"Delta":233294116},{"NoteNumber":51,"Velocity":42,"Duration":306513,"SoundDuration":306513,"Delta":233294116},{"NoteNumber":55,"Velocity":48,"Duration":318826,"SoundDuration":318826,"Delta":233600630},{"NoteNumber":46,"Velocity":42,"Duration":318826,"SoundDuration":318826,"Delta":233600630},{"NoteNumber":68,"Velocity":79,"Duration":3986627,"SoundDuration":3986627,"Delta":233919456},{"NoteNumber":39,"Velocity":55,"Duration":903227,"SoundDuration":903227,"Delta":233919456},{"NoteNumber":56,"Velocity":60,"Duration":291970,"SoundDuration":291970,"Delta":234234417},{"NoteNumber":50,"Velocity":39,"Duration":291970,"SoundDuration":291970,"Delta":234234417},{"NoteNumber":58,"Velocity":62,"Duration":296296,"SoundDuration":296296,"Delta":234526388},{"NoteNumber":53,"Velocity":39,"Duration":296296,"SoundDuration":296296,"Delta":234526388},{"NoteNumber":62,"Velocity":66,"Duration":291970,"SoundDuration":291970,"Delta":234822684},{"NoteNumber":56,"Velocity":48,"Duration":291970,"SoundDuration":291970,"Delta":234822684},{"NoteNumber":65,"Velocity":62,"Duration":291970,"SoundDuration":291970,"Delta":235114655},{"NoteNumber":58,"Velocity":41,"Duration":291970,"SoundDuration":291970,"Delta":235114655},{"NoteNumber":70,"Velocity":62,"Duration":291970,"SoundDuration":291970,"Delta":235406625},{"NoteNumber":62,"Velocity":41,"Duration":291970,"SoundDuration":291970,"Delta":235406625},{"NoteNumber":74,"Velocity":65,"Duration":296296,"SoundDuration":296296,"Delta":235698596},{"NoteNumber":65,"Velocity":47,"Duration":296296,"SoundDuration":296296,"Delta":235698596},{"NoteNumber":77,"Velocity":58,"Duration":322738,"SoundDuration":322738,"Delta":235994892},{"NoteNumber":70,"Velocity":36,"Duration":322738,"SoundDuration":322738,"Delta":235994892},{"NoteNumber":80,"Velocity":55,"Duration":351079,"SoundDuration":351079,"Delta":236317630},{"NoteNumber":74,"Velocity":34,"Duration":351079,"SoundDuration":351079,"Delta":236317630},{"NoteNumber":82,"Velocity":50,"Duration":555555,"SoundDuration":555555,"Delta":236668710},{"NoteNumber":77,"Velocity":30,"Duration":555555,"SoundDuration":555555,"Delta":236668710},{"NoteNumber":86,"Velocity":41,"Duration":340909,"SoundDuration":340909,"Delta":237224266},{"NoteNumber":82,"Velocity":26,"Duration":340909,"SoundDuration":340909,"Delta":237224266},{"NoteNumber":89,"Velocity":42,"Duration":285117,"SoundDuration":285117,"Delta":237906084},{"NoteNumber":86,"Velocity":28,"Duration":285117,"SoundDuration":285117,"Delta":237906084},{"NoteNumber":68,"Velocity":48,"Duration":487805,"SoundDuration":487805,"Delta":239046552},{"NoteNumber":67,"Velocity":43,"Duration":535714,"SoundDuration":535714,"Delta":239534357},{"NoteNumber":67,"Velocity":46,"Duration":500000,"SoundDuration":500000,"Delta":240070071},{"NoteNumber":65,"Velocity":44,"Duration":545454,"SoundDuration":545454,"Delta":240570071},{"NoteNumber":63,"Velocity":41,"Duration":466101,"SoundDuration":466101,"Delta":241115526},{"NoteNumber":62,"Velocity":39,"Duration":491071,"SoundDuration":491071,"Delta":241624000},{"NoteNumber":65,"Velocity":48,"Duration":2767907,"SoundDuration":2767907,"Delta":242159715},{"NoteNumber":39,"Velocity":31,"Duration":935879,"SoundDuration":935879,"Delta":242159715},{"NoteNumber":55,"Velocity":36,"Duration":301795,"SoundDuration":301795,"Delta":242484918},{"NoteNumber":46,"Velocity":25,"Duration":301795,"SoundDuration":301795,"Delta":242484918},{"NoteNumber":58,"Velocity":33,"Duration":308880,"SoundDuration":308880,"Delta":242786714},{"NoteNumber":51,"Velocity":26,"Duration":308880,"SoundDuration":308880,"Delta":242786714},{"NoteNumber":67,"Velocity":41,"Duration":308880,"SoundDuration":308880,"Delta":243095594},{"NoteNumber":55,"Velocity":31,"Duration":308880,"SoundDuration":308880,"Delta":243095594},{"NoteNumber":58,"Velocity":30,"Duration":301795,"SoundDuration":301795,"Delta":243404474},{"NoteNumber":51,"Velocity":28,"Duration":301795,"SoundDuration":301795,"Delta":243404474},{"NoteNumber":55,"Velocity":30,"Duration":308880,"SoundDuration":308880,"Delta":243706270},{"NoteNumber":46,"Velocity":28,"Duration":308880,"SoundDuration":308880,"Delta":243706270},{"NoteNumber":39,"Velocity":32,"Duration":912471,"SoundDuration":912471,"Delta":244015150},{"NoteNumber":55,"Velocity":32,"Duration":301795,"SoundDuration":301795,"Delta":244316946},{"NoteNumber":46,"Velocity":28,"Duration":301795,"SoundDuration":301795,"Delta":244316946},{"NoteNumber":58,"Velocity":31,"Duration":308880,"SoundDuration":308880,"Delta":244618742},{"NoteNumber":51,"Velocity":28,"Duration":308880,"SoundDuration":308880,"Delta":244618742},{"NoteNumber":63,"Velocity":48,"Duration":926640,"SoundDuration":926640,"Delta":244927622},{"NoteNumber":67,"Velocity":32,"Duration":308880,"SoundDuration":308880,"Delta":244927622},{"NoteNumber":55,"Velocity":28,"Duration":308880,"SoundDuration":308880,"Delta":244927622},{"NoteNumber":58,"Velocity":31,"Duration":308880,"SoundDuration":308880,"Delta":245236502},{"NoteNumber":51,"Velocity":26,"Duration":308880,"SoundDuration":308880,"Delta":245236502},{"NoteNumber":55,"Velocity":31,"Duration":308880,"SoundDuration":308880,"Delta":245545383},{"NoteNumber":46,"Velocity":26,"Duration":308880,"SoundDuration":308880,"Delta":245545383},{"NoteNumber":63,"Velocity":48,"Duration":9237764,"SoundDuration":9237764,"Delta":245854263},{"NoteNumber":39,"Velocity":31,"Duration":954051,"SoundDuration":954051,"Delta":245854263},{"NoteNumber":55,"Velocity":35,"Duration":316305,"SoundDuration":316305,"Delta":246170569},{"NoteNumber":58,"Velocity":31,"Duration":321439,"SoundDuration":321439,"Delta":246486874},{"NoteNumber":67,"Velocity":39,"Duration":321439,"SoundDuration":321439,"Delta":246808314},{"NoteNumber":58,"Velocity":27,"Duration":321439,"SoundDuration":321439,"Delta":247129754},{"NoteNumber":55,"Velocity":27,"Duration":318826,"SoundDuration":318826,"Delta":247451194},{"NoteNumber":39,"Velocity":28,"Duration":1088655,"SoundDuration":1088655,"Delta":247770021},{"NoteNumber":55,"Velocity":27,"Duration":357566,"SoundDuration":357566,"Delta":248127164},{"NoteNumber":58,"Velocity":26,"Duration":373946,"SoundDuration":373946,"Delta":248484731},{"NoteNumber":67,"Velocity":28,"Duration":404349,"SoundDuration":404349,"Delta":248858677},{"NoteNumber":58,"Velocity":24,"Duration":5829001,"SoundDuration":5829001,"Delta":249263027},{"NoteNumber":55,"Velocity":24,"Duration":5378436,"SoundDuration":5378436,"Delta":249713591},{"NoteNumber":39,"Velocity":18,"Duration":4651163,"SoundDuration":4651163,"Delta":250440864}]}