{"title":"Lyric Pieces Op. 12 No. 12 Valse","artist":"Piano","durationMs":107370,"midiSha256":"d70eafe20d85a92996b769836821aebc5df8ca902fc8de2840b74aa75a0599c0","midiObject":[{"NoteNumber":45,"Velocity":36,"Duration":428571,"SoundDuration":428571,"Delta":0},{"NoteNumber":60,"Velocity":28,"Duration":422535,"SoundDuration":422535,"Delta":428571},{"NoteNumber":52,"Velocity":24,"Duration":422535,"SoundDuration":422535,"Delta":428571},{"NoteNumber":52,"Velocity":24,"Duration":433213,"SoundDuration":433213,"Delta":851106},{"NoteNumber":60,"Velocity":29,"Duration":433213,"SoundDuration":433213,"Delta":851106},{"NoteNumber":45,"Velocity":36,"Duration":428571,"SoundDuration":428571,"Delta":1284319},{"NoteNumber":52,"Velocity":24,"Duration":419287,"SoundDuration":419287,"Delta":1712890},{"NoteNumber":60,"Velocity":28,"Duration":419287,"SoundDuration":419287,"Delta":1712890},{"NoteNumber":60,"Velocity":29,"Duration":425230,"SoundDuration":425230,"Delta":2132177},{"NoteNumber":52,"Velocity":24,"Duration":425230,"SoundDuration":425230,"Delta":2132177},{"NoteNumber":64,"Velocity":50,"Duration":432900,"SoundDuration":432900,"Delta":2557407},{"NoteNumber":45,"Velocity":36,"Duration":432900,"SoundDuration":432900,"Delta":2557407},{"NoteNumber":66,"Velocity":49,"Duration":103092,"SoundDuration":103092,"Delta":2990307},{"NoteNumber":52,"Velocity":24,"Duration":412370,"SoundDuration":412370,"Delta":2990307},{"NoteNumber":60,"Velocity":29,"Duration":412370,"SoundDuration":412370,"Delta":2990307},{"NoteNumber":68,"Velocity":49,"Duration":51546,"SoundDuration":51546,"Delta":3196492},{"NoteNumber":69,"Velocity":53,"Duration":210378,"SoundDuration":210378,"Delta":3402678},{"NoteNumber":60,"Velocity":29,"Duration":420757,"SoundDuration":420757,"Delta":3402678},{"NoteNumber":52,"Velocity":24,"Duration":420757,"SoundDuration":420757,"Delta":3402678},{"NoteNumber":69,"Velocity":56,"Duration":426742,"SoundDuration":426742,"Delta":3823435},{"NoteNumber":45,"Velocity":36,"Duration":426742,"SoundDuration":426742,"Delta":3823435},{"NoteNumber":71,"Velocity":58,"Duration":100942,"SoundDuration":100942,"Delta":4250178},{"NoteNumber":62,"Velocity":28,"Duration":403768,"SoundDuration":403768,"Delta":4250178},{"NoteNumber":52,"Velocity":24,"Duration":403768,"SoundDuration":403768,"Delta":4250178},{"NoteNumber":68,"Velocity":50,"Duration":50471,"SoundDuration":50471,"Delta":4452062},{"NoteNumber":66,"Velocity":48,"Duration":107527,"SoundDuration":107527,"Delta":4653947},{"NoteNumber":62,"Velocity":29,"Duration":430107,"SoundDuration":430107,"Delta":4653947},{"NoteNumber":52,"Velocity":24,"Duration":430107,"SoundDuration":430107,"Delta":4653947},{"NoteNumber":69,"Velocity":39,"Duration":53763,"SoundDuration":53763,"Delta":5030291},{"NoteNumber":66,"Velocity":50,"Duration":109488,"SoundDuration":109488,"Delta":5084054},{"NoteNumber":45,"Velocity":36,"Duration":437955,"SoundDuration":437955,"Delta":5084054},{"NoteNumber":64,"Velocity":47,"Duration":1279731,"SoundDuration":1279731,"Delta":5522010},{"NoteNumber":60,"Velocity":26,"Duration":421052,"SoundDuration":421052,"Delta":5522010},{"NoteNumber":52,"Velocity":21,"Duration":421052,"SoundDuration":421052,"Delta":5522010},{"NoteNumber":60,"Velocity":26,"Duration":430107,"SoundDuration":430107,"Delta":5943063},{"NoteNumber":52,"Velocity":21,"Duration":430107,"SoundDuration":430107,"Delta":5943063},{"NoteNumber":45,"Velocity":36,"Duration":428570,"SoundDuration":428570,"Delta":6373171},{"NoteNumber":52,"Velocity":21,"Duration":413508,"SoundDuration":413508,"Delta":6801742},{"NoteNumber":60,"Velocity":25,"Duration":413508,"SoundDuration":413508,"Delta":6801742},{"NoteNumber":60,"Velocity":26,"Duration":433213,"SoundDuration":433213,"Delta":7215250},{"NoteNumber":52,"Velocity":21,"Duration":433213,"SoundDuration":433213,"Delta":7215250},{"NoteNumber":45,"Velocity":36,"Duration":417972,"SoundDuration":417972,"Delta":7648463},{"NoteNumber":64,"Velocity":43,"Duration":104529,"SoundDuration":104529,"Delta":7857377},{"NoteNumber":66,"Velocity":46,"Duration":51546,"SoundDuration":51546,"Delta":8066436},{"NoteNumber":60,"Velocity":29,"Duration":412371,"SoundDuration":412371,"Delta":8066436},{"NoteNumber":52,"Velocity":24,"Duration":412371,"SoundDuration":412371,"Delta":8066436},{"NoteNumber":68,"Velocity":49,"Duration":51546,"SoundDuration":51546,"Delta":8272622},{"NoteNumber":68,"Velocity":54,"Duration":213523,"SoundDuration":213523,"Delta":8478807},{"NoteNumber":52,"Velocity":24,"Duration":427046,"SoundDuration":427046,"Delta":8478807},{"NoteNumber":60,"Velocity":29,"Duration":427046,"SoundDuration":427046,"Delta":8478807},{"NoteNumber":69,"Velocity":51,"Duration":213523,"SoundDuration":213523,"Delta":8692330},{"NoteNumber":45,"Velocity":36,"Duration":409462,"SoundDuration":409462,"Delta":8905853},{"NoteNumber":69,"Velocity":51,"Duration":51724,"SoundDuration":51724,"Delta":9108419},{"NoteNumber":71,"Velocity":56,"Duration":51020,"SoundDuration":51020,"Delta":9315316},{"NoteNumber":52,"Velocity":24,"Duration":401956,"SoundDuration":401956,"Delta":9315316},{"NoteNumber":62,"Velocity":28,"Duration":401956,"SoundDuration":401956,"Delta":9315316},{"NoteNumber":68,"Velocity":50,"Duration":50133,"SoundDuration":50133,"Delta":9516737},{"NoteNumber":68,"Velocity":48,"Duration":215054,"SoundDuration":215054,"Delta":9717272},{"NoteNumber":62,"Velocity":29,"Duration":430108,"SoundDuration":430108,"Delta":9717272},{"NoteNumber":52,"Velocity":24,"Duration":430108,"SoundDuration":430108,"Delta":9717272},{"NoteNumber":66,"Velocity":50,"Duration":107526,"SoundDuration":107526,"Delta":9932326},{"NoteNumber":69,"Velocity":39,"Duration":53763,"SoundDuration":53763,"Delta":10093617},{"NoteNumber":66,"Velocity":50,"Duration":109488,"SoundDuration":109488,"Delta":10147380},{"NoteNumber":45,"Velocity":36,"Duration":437955,"SoundDuration":437955,"Delta":10147380},{"NoteNumber":64,"Velocity":47,"Duration":1276506,"SoundDuration":1276506,"Delta":10585336},{"NoteNumber":60,"Velocity":26,"Duration":417827,"SoundDuration":417827,"Delta":10585336},{"NoteNumber":52,"Velocity":21,"Duration":417827,"SoundDuration":417827,"Delta":10585336},{"NoteNumber":60,"Velocity":26,"Duration":430108,"SoundDuration":430108,"Delta":11003163},{"NoteNumber":52,"Velocity":21,"Duration":430108,"SoundDuration":430108,"Delta":11003163},{"NoteNumber":45,"Velocity":36,"Duration":428570,"SoundDuration":428570,"Delta":11433271},{"NoteNumber":60,"Velocity":25,"Duration":412088,"SoundDuration":412088,"Delta":11861842},{"NoteNumber":52,"Velocity":21,"Duration":412088,"SoundDuration":412088,"Delta":11861842},{"NoteNumber":52,"Velocity":21,"Duration":425977,"SoundDuration":425977,"Delta":12273930},{"NoteNumber":60,"Velocity":26,"Duration":425977,"SoundDuration":425977,"Delta":12273930},{"NoteNumber":67,"Velocity":37,"Duration":215950,"SoundDuration":215950,"Delta":12699908},{"NoteNumber":76,"Velocity":44,"Duration":215950,"SoundDuration":215950,"Delta":12699908},{"NoteNumber":60,"Velocity":28,"Duration":215950,"SoundDuration":215950,"Delta":12699908},{"NoteNumber":64,"Velocity":33,"Duration":215950,"SoundDuration":215950,"Delta":12699908},{"NoteNumber":76,"Velocity":48,"Duration":212897,"SoundDuration":212897,"Delta":13130016},{"NoteNumber":68,"Velocity":40,"Duration":212897,"SoundDuration":212897,"Delta":13130016},{"NoteNumber":65,"Velocity":36,"Duration":212897,"SoundDuration":212897,"Delta":13130016},{"NoteNumber":60,"Velocity":30,"Duration":212897,"SoundDuration":212897,"Delta":13130016},{"NoteNumber":69,"Velocity":44,"Duration":211403,"SoundDuration":211403,"Delta":13554044},{"NoteNumber":76,"Velocity":52,"Duration":211403,"SoundDuration":211403,"Delta":13554044},{"NoteNumber":60,"Velocity":33,"Duration":211403,"SoundDuration":211403,"Delta":13554044},{"NoteNumber":66,"Velocity":39,"Duration":211403,"SoundDuration":211403,"Delta":13554044},{"NoteNumber":71,"Velocity":45,"Duration":1277988,"SoundDuration":1277988,"Delta":13975097},{"NoteNumber":76,"Velocity":54,"Duration":138408,"SoundDuration":138408,"Delta":13975097},{"NoteNumber":62,"Velocity":38,"Duration":1277988,"SoundDuration":1277988,"Delta":13975097},{"NoteNumber":67,"Velocity":45,"Duration":1277988,"SoundDuration":1277988,"Delta":13975097},{"NoteNumber":55,"Velocity":38,"Duration":1277988,"SoundDuration":1277988,"Delta":13975097},{"NoteNumber":74,"Velocity":44,"Duration":138408,"SoundDuration":138408,"Delta":14113505},{"NoteNumber":72,"Velocity":44,"Duration":138408,"SoundDuration":138408,"Delta":14251913},{"NoteNumber":74,"Velocity":48,"Duration":862764,"SoundDuration":862764,"Delta":14390322},{"NoteNumber":72,"Velocity":44,"Duration":216071,"SoundDuration":216071,"Delta":15253086},{"NoteNumber":64,"Velocity":37,"Duration":216071,"SoundDuration":216071,"Delta":15253086},{"NoteNumber":60,"Velocity":33,"Duration":216071,"SoundDuration":216071,"Delta":15253086},{"NoteNumber":57,"Velocity":28,"Duration":216071,"SoundDuration":216071,"Delta":15253086},{"NoteNumber":72,"Velocity":48,"Duration":213780,"SoundDuration":213780,"Delta":15681657},{"NoteNumber":65,"Velocity":40,"Duration":213780,"SoundDuration":213780,"Delta":15681657},{"NoteNumber":57,"Velocity":30,"Duration":213780,"SoundDuration":213780,"Delta":15681657},{"NoteNumber":62,"Velocity":36,"Duration":213780,"SoundDuration":213780,"Delta":15681657},{"NoteNumber":66,"Velocity":44,"Duration":212280,"SoundDuration":212280,"Delta":16105685},{"NoteNumber":72,"Velocity":52,"Duration":212280,"SoundDuration":212280,"Delta":16105685},{"NoteNumber":63,"Velocity":39,"Duration":212280,"SoundDuration":212280,"Delta":16105685},{"NoteNumber":57,"Velocity":33,"Duration":212280,"SoundDuration":212280,"Delta":16105685},{"NoteNumber":67,"Velocity":45,"Duration":1279652,"SoundDuration":1279652,"Delta":16526738},{"NoteNumber":72,"Velocity":54,"Duration":138408,"SoundDuration":138408,"Delta":16526738},{"NoteNumber":59,"Velocity":38,"Duration":1279652,"SoundDuration":1279652,"Delta":16526738},{"NoteNumber":64,"Velocity":45,"Duration":1279652,"SoundDuration":1279652,"Delta":16526738},{"NoteNumber":52,"Velocity":38,"Duration":1279652,"SoundDuration":1279652,"Delta":16526738},{"NoteNumber":71,"Velocity":44,"Duration":138408,"SoundDuration":138408,"Delta":16665146},{"NoteNumber":69,"Velocity":44,"Duration":138408,"SoundDuration":138408,"Delta":16803554},{"NoteNumber":71,"Velocity":48,"Duration":864428,"SoundDuration":864428,"Delta":16941963},{"NoteNumber":65,"Velocity":45,"Duration":1242889,"SoundDuration":1242889,"Delta":17806391},{"NoteNumber":71,"Velocity":54,"Duration":136518,"SoundDuration":136518,"Delta":17806391},{"NoteNumber":60,"Velocity":45,"Duration":1242889,"SoundDuration":1242889,"Delta":17806391},{"NoteNumber":53,"Velocity":38,"Duration":1242889,"SoundDuration":1242889,"Delta":17806391},{"NoteNumber":69,"Velocity":44,"Duration":136518,"SoundDuration":136518,"Delta":17942909},{"NoteNumber":67,"Velocity":44,"Duration":136518,"SoundDuration":136518,"Delta":18079428},{"NoteNumber":69,"Velocity":48,"Duration":833334,"SoundDuration":833334,"Delta":18215947},{"NoteNumber":65,"Velocity":59,"Duration":136518,"SoundDuration":136518,"Delta":19049281},{"NoteNumber":67,"Velocity":43,"Duration":1242889,"SoundDuration":1242889,"Delta":19049281},{"NoteNumber":55,"Velocity":41,"Duration":1242889,"SoundDuration":1242889,"Delta":19049281},{"NoteNumber":60,"Velocity":49,"Duration":1242889,"SoundDuration":1242889,"Delta":19049281},{"NoteNumber":48,"Velocity":41,"Duration":1243351,"SoundDuration":1243351,"Delta":19055253},{"NoteNumber":64,"Velocity":48,"Duration":136518,"SoundDuration":136518,"Delta":19188359},{"NoteNumber":62,"Velocity":48,"Duration":136518,"SoundDuration":136518,"Delta":19320612},{"NoteNumber":64,"Velocity":52,"Duration":833334,"SoundDuration":833334,"Delta":19458837},{"NoteNumber":60,"Velocity":51,"Duration":441175,"SoundDuration":441175,"Delta":20292171},{"NoteNumber":65,"Velocity":61,"Duration":441175,"SoundDuration":441175,"Delta":20292171},{"NoteNumber":57,"Velocity":52,"Duration":441175,"SoundDuration":441175,"Delta":20292171},{"NoteNumber":50,"Velocity":44,"Duration":441175,"SoundDuration":441175,"Delta":20292171},{"NoteNumber":67,"Velocity":61,"Duration":114942,"SoundDuration":114942,"Delta":20733347},{"NoteNumber":60,"Velocity":51,"Duration":114942,"SoundDuration":114942,"Delta":20733347},{"NoteNumber":52,"Velocity":42,"Duration":114942,"SoundDuration":114942,"Delta":20733347},{"NoteNumber":57,"Velocity":50,"Duration":114942,"SoundDuration":114942,"Delta":20733347},{"NoteNumber":69,"Velocity":57,"Duration":118576,"SoundDuration":118576,"Delta":20963232},{"NoteNumber":60,"Velocity":48,"Duration":118576,"SoundDuration":118576,"Delta":20963232},{"NoteNumber":57,"Velocity":48,"Duration":118576,"SoundDuration":118576,"Delta":20963232},{"NoteNumber":53,"Velocity":40,"Duration":118576,"SoundDuration":118576,"Delta":20963232},{"NoteNumber":65,"Velocity":66,"Duration":216138,"SoundDuration":216138,"Delta":21200386},{"NoteNumber":60,"Velocity":56,"Duration":216138,"SoundDuration":216138,"Delta":21200386},{"NoteNumber":50,"Velocity":48,"Duration":216138,"SoundDuration":216138,"Delta":21200386},{"NoteNumber":57,"Velocity":57,"Duration":216138,"SoundDuration":216138,"Delta":21200386},{"NoteNumber":62,"Velocity":48,"Duration":294165,"SoundDuration":294165,"Delta":21776755},{"NoteNumber":59,"Velocity":40,"Duration":294165,"SoundDuration":294165,"Delta":21776755},{"NoteNumber":57,"Velocity":42,"Duration":294165,"SoundDuration":294165,"Delta":21776755},{"NoteNumber":53,"Velocity":35,"Duration":294165,"SoundDuration":294165,"Delta":21776755},{"NoteNumber":64,"Velocity":41,"Duration":1775148,"SoundDuration":1775148,"Delta":22580431},{"NoteNumber":59,"Velocity":34,"Duration":1775148,"SoundDuration":1775148,"Delta":22580431},{"NoteNumber":52,"Velocity":35,"Duration":1775148,"SoundDuration":1775148,"Delta":22580431},{"NoteNumber":56,"Velocity":42,"Duration":1775148,"SoundDuration":1775148,"Delta":22580431},{"NoteNumber":45,"Velocity":36,"Duration":428571,"SoundDuration":428571,"Delta":24355579},{"NoteNumber":60,"Velocity":28,"Duration":422534,"SoundDuration":422534,"Delta":24784150},{"NoteNumber":52,"Velocity":24,"Duration":422534,"SoundDuration":422534,"Delta":24784150},{"NoteNumber":60,"Velocity":29,"Duration":433212,"SoundDuration":433212,"Delta":25206685},{"NoteNumber":52,"Velocity":24,"Duration":433212,"SoundDuration":433212,"Delta":25206685},{"NoteNumber":45,"Velocity":36,"Duration":428571,"SoundDuration":428571,"Delta":25639898},{"NoteNumber":52,"Velocity":24,"Duration":415481,"SoundDuration":415481,"Delta":26068469},{"NoteNumber":60,"Velocity":28,"Duration":415481,"SoundDuration":415481,"Delta":26068469},{"NoteNumber":52,"Velocity":24,"Duration":425229,"SoundDuration":425229,"Delta":26483951},{"NoteNumber":60,"Velocity":29,"Duration":425229,"SoundDuration":425229,"Delta":26483951},{"NoteNumber":64,"Velocity":50,"Duration":432900,"SoundDuration":432900,"Delta":26909181},{"NoteNumber":45,"Velocity":36,"Duration":432900,"SoundDuration":432900,"Delta":26909181},{"NoteNumber":66,"Velocity":48,"Duration":103092,"SoundDuration":103092,"Delta":27342081},{"NoteNumber":52,"Velocity":24,"Duration":412371,"SoundDuration":412371,"Delta":27342081},{"NoteNumber":60,"Velocity":29,"Duration":412371,"SoundDuration":412371,"Delta":27342081},{"NoteNumber":68,"Velocity":46,"Duration":51546,"SoundDuration":51546,"Delta":27548266},{"NoteNumber":69,"Velocity":53,"Duration":210378,"SoundDuration":210378,"Delta":27754452},{"NoteNumber":52,"Velocity":24,"Duration":420756,"SoundDuration":420756,"Delta":27754452},{"NoteNumber":60,"Velocity":29,"Duration":420756,"SoundDuration":420756,"Delta":27754452},{"NoteNumber":69,"Velocity":54,"Duration":426742,"SoundDuration":426742,"Delta":28175209},{"NoteNumber":45,"Velocity":36,"Duration":426742,"SoundDuration":426742,"Delta":28175209},{"NoteNumber":71,"Velocity":58,"Duration":100603,"SoundDuration":100603,"Delta":28601952},{"NoteNumber":52,"Velocity":24,"Duration":402414,"SoundDuration":402414,"Delta":28601952},{"NoteNumber":62,"Velocity":28,"Duration":402414,"SoundDuration":402414,"Delta":28601952},{"NoteNumber":68,"Velocity":53,"Duration":50301,"SoundDuration":50301,"Delta":28803159},{"NoteNumber":66,"Velocity":48,"Duration":209643,"SoundDuration":209643,"Delta":29004366},{"NoteNumber":52,"Velocity":24,"Duration":419287,"SoundDuration":419287,"Delta":29004366},{"NoteNumber":62,"Velocity":29,"Duration":419287,"SoundDuration":419287,"Delta":29004366},{"NoteNumber":69,"Velocity":39,"Duration":52410,"SoundDuration":52410,"Delta":29371242},{"NoteNumber":66,"Velocity":50,"Duration":109488,"SoundDuration":109488,"Delta":29423653},{"NoteNumber":45,"Velocity":36,"Duration":437955,"SoundDuration":437955,"Delta":29423653},{"NoteNumber":64,"Velocity":47,"Duration":1279732,"SoundDuration":1279732,"Delta":29861609},{"NoteNumber":60,"Velocity":26,"Duration":421053,"SoundDuration":421053,"Delta":29861609},{"NoteNumber":52,"Velocity":21,"Duration":421053,"SoundDuration":421053,"Delta":29861609},{"NoteNumber":52,"Velocity":21,"Duration":430108,"SoundDuration":430108,"Delta":30282662},{"NoteNumber":60,"Velocity":26,"Duration":430108,"SoundDuration":430108,"Delta":30282662},{"NoteNumber":45,"Velocity":36,"Duration":428571,"SoundDuration":428571,"Delta":30712770},{"NoteNumber":60,"Velocity":25,"Duration":414636,"SoundDuration":414636,"Delta":31141341},{"NoteNumber":52,"Velocity":21,"Duration":414636,"SoundDuration":414636,"Delta":31141341},{"NoteNumber":60,"Velocity":26,"Duration":433212,"SoundDuration":433212,"Delta":31555977},{"NoteNumber":52,"Velocity":21,"Duration":433212,"SoundDuration":433212,"Delta":31555977},{"NoteNumber":45,"Velocity":36,"Duration":415103,"SoundDuration":415103,"Delta":31989190},{"NoteNumber":64,"Velocity":43,"Duration":52264,"SoundDuration":52264,"Delta":32195234},{"NoteNumber":66,"Velocity":48,"Duration":51546,"SoundDuration":51546,"Delta":32404293},{"NoteNumber":52,"Velocity":24,"Duration":412371,"SoundDuration":412371,"Delta":32404293},{"NoteNumber":60,"Velocity":29,"Duration":412371,"SoundDuration":412371,"Delta":32404293},{"NoteNumber":68,"Velocity":44,"Duration":51546,"SoundDuration":51546,"Delta":32610479},{"NoteNumber":68,"Velocity":54,"Duration":213523,"SoundDuration":213523,"Delta":32816664},{"NoteNumber":52,"Velocity":24,"Duration":427045,"SoundDuration":427045,"Delta":32816664},{"NoteNumber":60,"Velocity":29,"Duration":427045,"SoundDuration":427045,"Delta":32816664},{"NoteNumber":69,"Velocity":50,"Duration":213522,"SoundDuration":213522,"Delta":33030187},{"NoteNumber":45,"Velocity":36,"Duration":410839,"SoundDuration":410839,"Delta":33243710},{"NoteNumber":69,"Velocity":52,"Duration":51724,"SoundDuration":51724,"Delta":33447653},{"NoteNumber":71,"Velocity":56,"Duration":51020,"SoundDuration":51020,"Delta":33654550},{"NoteNumber":52,"Velocity":24,"Duration":408163,"SoundDuration":408163,"Delta":33654550},{"NoteNumber":62,"Velocity":28,"Duration":408163,"SoundDuration":408163,"Delta":33654550},{"NoteNumber":68,"Velocity":50,"Duration":51020,"SoundDuration":51020,"Delta":33858631},{"NoteNumber":68,"Velocity":48,"Duration":215054,"SoundDuration":215054,"Delta":34062713},{"NoteNumber":52,"Velocity":24,"Duration":430107,"SoundDuration":430107,"Delta":34062713},{"NoteNumber":62,"Velocity":29,"Duration":430107,"SoundDuration":430107,"Delta":34062713},{"NoteNumber":66,"Velocity":50,"Duration":107526,"SoundDuration":107526,"Delta":34277767},{"NoteNumber":69,"Velocity":39,"Duration":53763,"SoundDuration":53763,"Delta":34439057},{"NoteNumber":66,"Velocity":50,"Duration":109489,"SoundDuration":109489,"Delta":34492821},{"NoteNumber":45,"Velocity":36,"Duration":437955,"SoundDuration":437955,"Delta":34492821},{"NoteNumber":64,"Velocity":47,"Duration":1272598,"SoundDuration":1272598,"Delta":34930777},{"NoteNumber":52,"Velocity":21,"Duration":417827,"SoundDuration":417827,"Delta":34930777},{"NoteNumber":60,"Velocity":26,"Duration":417827,"SoundDuration":417827,"Delta":34930777},{"NoteNumber":60,"Velocity":26,"Duration":430107,"SoundDuration":430107,"Delta":35348604},{"NoteNumber":52,"Velocity":21,"Duration":430107,"SoundDuration":430107,"Delta":35348604},{"NoteNumber":45,"Velocity":36,"Duration":424663,"SoundDuration":424663,"Delta":35778712},{"NoteNumber":60,"Velocity":25,"Duration":410677,"SoundDuration":410677,"Delta":36203376},{"NoteNumber":52,"Velocity":21,"Duration":410677,"SoundDuration":410677,"Delta":36203376},{"NoteNumber":60,"Velocity":26,"Duration":433213,"SoundDuration":433213,"Delta":36614054},{"NoteNumber":52,"Velocity":21,"Duration":433213,"SoundDuration":433213,"Delta":36614054},{"NoteNumber":67,"Velocity":37,"Duration":216846,"SoundDuration":216846,"Delta":37047267},{"NoteNumber":76,"Velocity":44,"Duration":216846,"SoundDuration":216846,"Delta":37047267},{"NoteNumber":60,"Velocity":28,"Duration":216846,"SoundDuration":216846,"Delta":37047267},{"NoteNumber":64,"Velocity":33,"Duration":216846,"SoundDuration":216846,"Delta":37047267},{"NoteNumber":68,"Velocity":40,"Duration":213780,"SoundDuration":213780,"Delta":37477375},{"NoteNumber":76,"Velocity":48,"Duration":213780,"SoundDuration":213780,"Delta":37477375},{"NoteNumber":65,"Velocity":36,"Duration":213780,"SoundDuration":213780,"Delta":37477375},{"NoteNumber":60,"Velocity":30,"Duration":213780,"SoundDuration":213780,"Delta":37477375},{"NoteNumber":69,"Velocity":44,"Duration":212280,"SoundDuration":212280,"Delta":37901403},{"NoteNumber":76,"Velocity":52,"Duration":212280,"SoundDuration":212280,"Delta":37901403},{"NoteNumber":66,"Velocity":39,"Duration":212280,"SoundDuration":212280,"Delta":37901403},{"NoteNumber":60,"Velocity":33,"Duration":212280,"SoundDuration":212280,"Delta":37901403},{"NoteNumber":76,"Velocity":54,"Duration":138408,"SoundDuration":138408,"Delta":38322456},{"NoteNumber":71,"Velocity":45,"Duration":1277988,"SoundDuration":1277988,"Delta":38322456},{"NoteNumber":55,"Velocity":38,"Duration":1277988,"SoundDuration":1277988,"Delta":38322456},{"NoteNumber":67,"Velocity":45,"Duration":1277988,"SoundDuration":1277988,"Delta":38322456},{"NoteNumber":62,"Velocity":38,"Duration":1277988,"SoundDuration":1277988,"Delta":38322456},{"NoteNumber":74,"Velocity":44,"Duration":138408,"SoundDuration":138408,"Delta":38460864},{"NoteNumber":72,"Velocity":44,"Duration":138408,"SoundDuration":138408,"Delta":38599272},{"NoteNumber":74,"Velocity":48,"Duration":862763,"SoundDuration":862763,"Delta":38737681},{"NoteNumber":64,"Velocity":37,"Duration":216071,"SoundDuration":216071,"Delta":39600445},{"NoteNumber":72,"Velocity":44,"Duration":216071,"SoundDuration":216071,"Delta":39600445},{"NoteNumber":60,"Velocity":33,"Duration":216071,"SoundDuration":216071,"Delta":39600445},{"NoteNumber":57,"Velocity":28,"Duration":216071,"SoundDuration":216071,"Delta":39600445},{"NoteNumber":72,"Velocity":48,"Duration":213780,"SoundDuration":213780,"Delta":40029016},{"NoteNumber":65,"Velocity":40,"Duration":213780,"SoundDuration":213780,"Delta":40029016},{"NoteNumber":62,"Velocity":36,"Duration":213780,"SoundDuration":213780,"Delta":40029016},{"NoteNumber":57,"Velocity":30,"Duration":213780,"SoundDuration":213780,"Delta":40029016},{"NoteNumber":72,"Velocity":52,"Duration":212280,"SoundDuration":212280,"Delta":40453044},{"NoteNumber":66,"Velocity":44,"Duration":212280,"SoundDuration":212280,"Delta":40453044},{"NoteNumber":63,"Velocity":39,"Duration":212280,"SoundDuration":212280,"Delta":40453044},{"NoteNumber":57,"Velocity":33,"Duration":212280,"SoundDuration":212280,"Delta":40453044},{"NoteNumber":72,"Velocity":54,"Duration":138408,"SoundDuration":138408,"Delta":40874097},{"NoteNumber":67,"Velocity":45,"Duration":1279652,"SoundDuration":1279652,"Delta":40874097},{"NoteNumber":52,"Velocity":38,"Duration":1279652,"SoundDuration":1279652,"Delta":40874097},{"NoteNumber":64,"Velocity":45,"Duration":1279652,"SoundDuration":1279652,"Delta":40874097},{"NoteNumber":59,"Velocity":38,"Duration":1279652,"SoundDuration":1279652,"Delta":40874097},{"NoteNumber":71,"Velocity":44,"Duration":138408,"SoundDuration":138408,"Delta":41012505},{"NoteNumber":69,"Velocity":44,"Duration":138408,"SoundDuration":138408,"Delta":41150913},{"NoteNumber":71,"Velocity":48,"Duration":864427,"SoundDuration":864427,"Delta":41289322},{"NoteNumber":65,"Velocity":45,"Duration":1242890,"SoundDuration":1242890,"Delta":42153750},{"NoteNumber":71,"Velocity":54,"Duration":136518,"SoundDuration":136518,"Delta":42153750},{"NoteNumber":53,"Velocity":38,"Duration":1242890,"SoundDuration":1242890,"Delta":42153750},{"NoteNumber":60,"Velocity":45,"Duration":1242890,"SoundDuration":1242890,"Delta":42153750},{"NoteNumber":69,"Velocity":44,"Duration":136518,"SoundDuration":136518,"Delta":42290268},{"NoteNumber":67,"Velocity":44,"Duration":136518,"SoundDuration":136518,"Delta":42426787},{"NoteNumber":69,"Velocity":48,"Duration":833334,"SoundDuration":833334,"Delta":42563306},{"NoteNumber":65,"Velocity":59,"Duration":136518,"SoundDuration":136518,"Delta":43396640},{"NoteNumber":67,"Velocity":44,"Duration":1242890,"SoundDuration":1242890,"Delta":43396640},{"NoteNumber":60,"Velocity":49,"Duration":1242890,"SoundDuration":1242890,"Delta":43396640},{"NoteNumber":55,"Velocity":41,"Duration":1242890,"SoundDuration":1242890,"Delta":43396640},{"NoteNumber":48,"Velocity":41,"Duration":1243351,"SoundDuration":1243351,"Delta":43402612},{"NoteNumber":64,"Velocity":48,"Duration":136518,"SoundDuration":136518,"Delta":43535718},{"NoteNumber":62,"Velocity":48,"Duration":136518,"SoundDuration":136518,"Delta":43667970},{"NoteNumber":64,"Velocity":52,"Duration":833334,"SoundDuration":833334,"Delta":43806196},{"NoteNumber":60,"Velocity":51,"Duration":441175,"SoundDuration":441175,"Delta":44639530},{"NoteNumber":65,"Velocity":61,"Duration":441175,"SoundDuration":441175,"Delta":44639530},{"NoteNumber":50,"Velocity":44,"Duration":441175,"SoundDuration":441175,"Delta":44639530},{"NoteNumber":57,"Velocity":52,"Duration":441175,"SoundDuration":441175,"Delta":44639530},{"NoteNumber":60,"Velocity":51,"Duration":114942,"SoundDuration":114942,"Delta":45080706},{"NoteNumber":67,"Velocity":61,"Duration":114942,"SoundDuration":114942,"Delta":45080706},{"NoteNumber":57,"Velocity":50,"Duration":114942,"SoundDuration":114942,"Delta":45080706},{"NoteNumber":52,"Velocity":42,"Duration":114942,"SoundDuration":114942,"Delta":45080706},{"NoteNumber":60,"Velocity":48,"Duration":118577,"SoundDuration":118577,"Delta":45310591},{"NoteNumber":69,"Velocity":57,"Duration":118577,"SoundDuration":118577,"Delta":45310591},{"NoteNumber":53,"Velocity":40,"Duration":118577,"SoundDuration":118577,"Delta":45310591},{"NoteNumber":57,"Velocity":48,"Duration":118577,"SoundDuration":118577,"Delta":45310591},{"NoteNumber":60,"Velocity":56,"Duration":212063,"SoundDuration":212063,"Delta":45547745},{"NoteNumber":65,"Velocity":66,"Duration":212063,"SoundDuration":212063,"Delta":45547745},{"NoteNumber":50,"Velocity":48,"Duration":212063,"SoundDuration":212063,"Delta":45547745},{"NoteNumber":57,"Velocity":57,"Duration":212063,"SoundDuration":212063,"Delta":45547745},{"NoteNumber":62,"Velocity":48,"Duration":305706,"SoundDuration":305706,"Delta":46113249},{"NoteNumber":59,"Velocity":40,"Duration":305706,"SoundDuration":305706,"Delta":46113249},{"NoteNumber":53,"Velocity":35,"Duration":305706,"SoundDuration":305706,"Delta":46113249},{"NoteNumber":57,"Velocity":42,"Duration":305706,"SoundDuration":305706,"Delta":46113249},{"NoteNumber":59,"Velocity":34,"Duration":1788375,"SoundDuration":1788375,"Delta":46928466},{"NoteNumber":64,"Velocity":41,"Duration":1788375,"SoundDuration":1788375,"Delta":46928466},{"NoteNumber":52,"Velocity":35,"Duration":1788375,"SoundDuration":1788375,"Delta":46928466},{"NoteNumber":56,"Velocity":42,"Duration":1788375,"SoundDuration":1788375,"Delta":46928466},{"NoteNumber":69,"Velocity":52,"Duration":834906,"SoundDuration":834906,"Delta":48716842},{"NoteNumber":73,"Velocity":39,"Duration":408163,"SoundDuration":408163,"Delta":49143585},{"NoteNumber":76,"Velocity":47,"Duration":408163,"SoundDuration":408163,"Delta":49143585},{"NoteNumber":73,"Velocity":39,"Duration":430107,"SoundDuration":430107,"Delta":49551748},{"NoteNumber":76,"Velocity":47,"Duration":430107,"SoundDuration":430107,"Delta":49551748},{"NoteNumber":71,"Velocity":54,"Duration":215054,"SoundDuration":215054,"Delta":49551748},{"NoteNumber":68,"Velocity":50,"Duration":161290,"SoundDuration":161290,"Delta":49766802},{"NoteNumber":69,"Velocity":39,"Duration":53763,"SoundDuration":53763,"Delta":49928092},{"NoteNumber":66,"Velocity":50,"Duration":218977,"SoundDuration":218977,"Delta":49981856},{"NoteNumber":64,"Velocity":50,"Duration":109489,"SoundDuration":109489,"Delta":50200834},{"NoteNumber":76,"Velocity":47,"Duration":421053,"SoundDuration":421053,"Delta":50419812},{"NoteNumber":68,"Velocity":39,"Duration":421053,"SoundDuration":421053,"Delta":50419812},{"NoteNumber":74,"Velocity":39,"Duration":421053,"SoundDuration":421053,"Delta":50419812},{"NoteNumber":64,"Velocity":47,"Duration":851160,"SoundDuration":851160,"Delta":50419812},{"NoteNumber":68,"Velocity":39,"Duration":430107,"SoundDuration":430107,"Delta":50840865},{"NoteNumber":74,"Velocity":39,"Duration":430107,"SoundDuration":430107,"Delta":50840865},{"NoteNumber":76,"Velocity":47,"Duration":430107,"SoundDuration":430107,"Delta":50840865},{"NoteNumber":69,"Velocity":52,"Duration":426743,"SoundDuration":426743,"Delta":51270973},{"NoteNumber":73,"Velocity":39,"Duration":408163,"SoundDuration":408163,"Delta":51697716},{"NoteNumber":76,"Velocity":47,"Duration":408163,"SoundDuration":408163,"Delta":51697716},{"NoteNumber":71,"Velocity":54,"Duration":204081,"SoundDuration":204081,"Delta":51697716},{"NoteNumber":73,"Velocity":54,"Duration":204081,"SoundDuration":204081,"Delta":51901797},{"NoteNumber":73,"Velocity":39,"Duration":430107,"SoundDuration":430107,"Delta":52105879},{"NoteNumber":76,"Velocity":47,"Duration":430107,"SoundDuration":430107,"Delta":52105879},{"NoteNumber":69,"Velocity":54,"Duration":215054,"SoundDuration":215054,"Delta":52105879},{"NoteNumber":66,"Velocity":50,"Duration":161290,"SoundDuration":161290,"Delta":52320933},{"NoteNumber":68,"Velocity":39,"Duration":53763,"SoundDuration":53763,"Delta":52482223},{"NoteNumber":66,"Velocity":50,"Duration":218977,"SoundDuration":218977,"Delta":52535987},{"NoteNumber":64,"Velocity":50,"Duration":109489,"SoundDuration":109489,"Delta":52754965},{"NoteNumber":74,"Velocity":35,"Duration":421053,"SoundDuration":421053,"Delta":52973943},{"NoteNumber":68,"Velocity":35,"Duration":421053,"SoundDuration":421053,"Delta":52973943},{"NoteNumber":76,"Velocity":42,"Duration":421053,"SoundDuration":421053,"Delta":52973943},{"NoteNumber":64,"Velocity":47,"Duration":851160,"SoundDuration":851160,"Delta":52973943},{"NoteNumber":68,"Velocity":35,"Duration":430107,"SoundDuration":430107,"Delta":53394996},{"NoteNumber":74,"Velocity":35,"Duration":430107,"SoundDuration":430107,"Delta":53394996},{"NoteNumber":76,"Velocity":42,"Duration":430107,"SoundDuration":430107,"Delta":53394996},{"NoteNumber":69,"Velocity":52,"Duration":834906,"SoundDuration":834906,"Delta":53825104},{"NoteNumber":73,"Velocity":39,"Duration":408163,"SoundDuration":408163,"Delta":54251847},{"NoteNumber":76,"Velocity":47,"Duration":408163,"SoundDuration":408163,"Delta":54251847},{"NoteNumber":76,"Velocity":47,"Duration":433077,"SoundDuration":433077,"Delta":54660010},{"NoteNumber":73,"Velocity":39,"Duration":433077,"SoundDuration":433077,"Delta":54660010},{"NoteNumber":64,"Velocity":54,"Duration":215054,"SoundDuration":215054,"Delta":54660010},{"NoteNumber":66,"Velocity":50,"Duration":218023,"SoundDuration":218023,"Delta":54875064},{"NoteNumber":66,"Velocity":54,"Duration":218023,"SoundDuration":218023,"Delta":55093087},{"NoteNumber":68,"Velocity":50,"Duration":218023,"SoundDuration":218023,"Delta":55311111},{"NoteNumber":73,"Velocity":39,"Duration":436046,"SoundDuration":436046,"Delta":55529134},{"NoteNumber":76,"Velocity":47,"Duration":436046,"SoundDuration":436046,"Delta":55529134},{"NoteNumber":68,"Velocity":52,"Duration":868946,"SoundDuration":868946,"Delta":55529134},{"NoteNumber":73,"Velocity":39,"Duration":432899,"SoundDuration":432899,"Delta":55965181},{"NoteNumber":76,"Velocity":47,"Duration":432899,"SoundDuration":432899,"Delta":55965181},{"NoteNumber":68,"Velocity":54,"Duration":220022,"SoundDuration":220022,"Delta":56398081},{"NoteNumber":71,"Velocity":57,"Duration":220425,"SoundDuration":220425,"Delta":56618104},{"NoteNumber":73,"Velocity":40,"Duration":437239,"SoundDuration":437239,"Delta":56838530},{"NoteNumber":76,"Velocity":49,"Duration":437239,"SoundDuration":437239,"Delta":56838530},{"NoteNumber":71,"Velocity":61,"Duration":218420,"SoundDuration":218420,"Delta":56838530},{"NoteNumber":69,"Velocity":54,"Duration":218818,"SoundDuration":218818,"Delta":57056951},{"NoteNumber":73,"Velocity":40,"Duration":498860,"SoundDuration":498860,"Delta":57275769},{"NoteNumber":76,"Velocity":49,"Duration":498860,"SoundDuration":498860,"Delta":57275769},{"NoteNumber":64,"Velocity":61,"Duration":228833,"SoundDuration":228833,"Delta":57275769},{"NoteNumber":66,"Velocity":56,"Duration":270026,"SoundDuration":270026,"Delta":57504602},{"NoteNumber":66,"Velocity":57,"Duration":259515,"SoundDuration":259515,"Delta":57774629},{"NoteNumber":68,"Velocity":45,"Duration":259515,"SoundDuration":259515,"Delta":58034145},{"NoteNumber":76,"Velocity":42,"Duration":542495,"SoundDuration":542495,"Delta":58293660},{"NoteNumber":73,"Velocity":35,"Duration":542495,"SoundDuration":542495,"Delta":58293660},{"NoteNumber":68,"Velocity":51,"Duration":1130154,"SoundDuration":1130154,"Delta":58293660},{"NoteNumber":73,"Velocity":35,"Duration":587659,"SoundDuration":587659,"Delta":58836155},{"NoteNumber":76,"Velocity":42,"Duration":587659,"SoundDuration":587659,"Delta":58836155},{"NoteNumber":69,"Velocity":52,"Duration":872831,"SoundDuration":872831,"Delta":59423814},{"NoteNumber":73,"Velocity":39,"Duration":423729,"SoundDuration":423729,"Delta":59872916},{"NoteNumber":76,"Velocity":47,"Duration":423729,"SoundDuration":423729,"Delta":59872916},{"NoteNumber":73,"Velocity":39,"Duration":434468,"SoundDuration":434468,"Delta":60296645},{"NoteNumber":76,"Velocity":47,"Duration":434468,"SoundDuration":434468,"Delta":60296645},{"NoteNumber":71,"Velocity":54,"Duration":217233,"SoundDuration":217233,"Delta":60296645},{"NoteNumber":68,"Velocity":50,"Duration":162925,"SoundDuration":162925,"Delta":60513879},{"NoteNumber":69,"Velocity":39,"Duration":54308,"SoundDuration":54308,"Delta":60676805},{"NoteNumber":66,"Velocity":50,"Duration":218977,"SoundDuration":218977,"Delta":60731113},{"NoteNumber":64,"Velocity":50,"Duration":109489,"SoundDuration":109489,"Delta":60950091},{"NoteNumber":76,"Velocity":47,"Duration":421053,"SoundDuration":421053,"Delta":61169069},{"NoteNumber":68,"Velocity":39,"Duration":421053,"SoundDuration":421053,"Delta":61169069},{"NoteNumber":74,"Velocity":39,"Duration":421053,"SoundDuration":421053,"Delta":61169069},{"NoteNumber":64,"Velocity":47,"Duration":851160,"SoundDuration":851160,"Delta":61169069},{"NoteNumber":68,"Velocity":39,"Duration":430107,"SoundDuration":430107,"Delta":61590122},{"NoteNumber":74,"Velocity":39,"Duration":430107,"SoundDuration":430107,"Delta":61590122},{"NoteNumber":76,"Velocity":47,"Duration":430107,"SoundDuration":430107,"Delta":61590122},{"NoteNumber":69,"Velocity":52,"Duration":426743,"SoundDuration":426743,"Delta":62020230},{"NoteNumber":73,"Velocity":39,"Duration":408163,"SoundDuration":408163,"Delta":62446973},{"NoteNumber":76,"Velocity":47,"Duration":408163,"SoundDuration":408163,"Delta":62446973},{"NoteNumber":71,"Velocity":54,"Duration":204081,"SoundDuration":204081,"Delta":62446973},{"NoteNumber":73,"Velocity":54,"Duration":204081,"SoundDuration":204081,"Delta":62651055},{"NoteNumber":73,"Velocity":39,"Duration":430107,"SoundDuration":430107,"Delta":62855136},{"NoteNumber":76,"Velocity":47,"Duration":430107,"SoundDuration":430107,"Delta":62855136},{"NoteNumber":69,"Velocity":54,"Duration":215054,"SoundDuration":215054,"Delta":62855136},{"NoteNumber":66,"Velocity":50,"Duration":161290,"SoundDuration":161290,"Delta":63070190},{"NoteNumber":68,"Velocity":39,"Duration":53763,"SoundDuration":53763,"Delta":63231481},{"NoteNumber":66,"Velocity":50,"Duration":218977,"SoundDuration":218977,"Delta":63285244},{"NoteNumber":64,"Velocity":50,"Duration":109489,"SoundDuration":109489,"Delta":63504222},{"NoteNumber":74,"Velocity":35,"Duration":421052,"SoundDuration":421052,"Delta":63723200},{"NoteNumber":68,"Velocity":35,"Duration":421052,"SoundDuration":421052,"Delta":63723200},{"NoteNumber":76,"Velocity":42,"Duration":421052,"SoundDuration":421052,"Delta":63723200},{"NoteNumber":64,"Velocity":47,"Duration":851160,"SoundDuration":851160,"Delta":63723200},{"NoteNumber":68,"Velocity":35,"Duration":430108,"SoundDuration":430108,"Delta":64144253},{"NoteNumber":74,"Velocity":35,"Duration":430108,"SoundDuration":430108,"Delta":64144253},{"NoteNumber":76,"Velocity":42,"Duration":430108,"SoundDuration":430108,"Delta":64144253},{"NoteNumber":69,"Velocity":52,"Duration":834906,"SoundDuration":834906,"Delta":64574361},{"NoteNumber":73,"Velocity":39,"Duration":408163,"SoundDuration":408163,"Delta":65001104},{"NoteNumber":76,"Velocity":47,"Duration":408163,"SoundDuration":408163,"Delta":65001104},{"NoteNumber":76,"Velocity":47,"Duration":430108,"SoundDuration":430108,"Delta":65409267},{"NoteNumber":73,"Velocity":39,"Duration":430108,"SoundDuration":430108,"Delta":65409267},{"NoteNumber":64,"Velocity":54,"Duration":215053,"SoundDuration":215053,"Delta":65409267},{"NoteNumber":66,"Velocity":50,"Duration":215054,"SoundDuration":215054,"Delta":65624321},{"NoteNumber":66,"Velocity":59,"Duration":218818,"SoundDuration":218818,"Delta":65839375},{"NoteNumber":67,"Velocity":48,"Duration":109409,"SoundDuration":109409,"Delta":66058194},{"NoteNumber":73,"Velocity":42,"Duration":437637,"SoundDuration":437637,"Delta":66277012},{"NoteNumber":76,"Velocity":51,"Duration":437637,"SoundDuration":437637,"Delta":66277012},{"NoteNumber":67,"Velocity":57,"Duration":893564,"SoundDuration":893564,"Delta":66277012},{"NoteNumber":73,"Velocity":42,"Duration":455927,"SoundDuration":455927,"Delta":66714649},{"NoteNumber":76,"Velocity":51,"Duration":455927,"SoundDuration":455927,"Delta":66714649},{"NoteNumber":67,"Velocity":64,"Duration":224551,"SoundDuration":224551,"Delta":67170576},{"NoteNumber":68,"Velocity":53,"Duration":112275,"SoundDuration":112275,"Delta":67395127},{"NoteNumber":73,"Velocity":46,"Duration":449102,"SoundDuration":449102,"Delta":67619678},{"NoteNumber":76,"Velocity":56,"Duration":449102,"SoundDuration":449102,"Delta":67619678},{"NoteNumber":68,"Velocity":62,"Duration":922794,"SoundDuration":922794,"Delta":67619678},{"NoteNumber":73,"Velocity":46,"Duration":473692,"SoundDuration":473692,"Delta":68068780},{"NoteNumber":76,"Velocity":56,"Duration":473692,"SoundDuration":473692,"Delta":68068780},{"NoteNumber":68,"Velocity":70,"Duration":247729,"SoundDuration":247729,"Delta":68542473},{"NoteNumber":69,"Velocity":60,"Duration":134541,"SoundDuration":134541,"Delta":68790202},{"NoteNumber":76,"Velocity":61,"Duration":562852,"SoundDuration":562852,"Delta":69059284},{"NoteNumber":73,"Velocity":50,"Duration":562852,"SoundDuration":562852,"Delta":69059284},{"NoteNumber":69,"Velocity":68,"Duration":1244560,"SoundDuration":1244560,"Delta":69059284},{"NoteNumber":73,"Velocity":50,"Duration":681708,"SoundDuration":681708,"Delta":69622136},{"NoteNumber":76,"Velocity":61,"Duration":681708,"SoundDuration":681708,"Delta":69622136},{"NoteNumber":45,"Velocity":32,"Duration":439239,"SoundDuration":439239,"Delta":70303844},{"NoteNumber":52,"Velocity":21,"Duration":428265,"SoundDuration":428265,"Delta":70743083},{"NoteNumber":60,"Velocity":25,"Duration":428265,"SoundDuration":428265,"Delta":70743083},{"NoteNumber":60,"Velocity":26,"Duration":437636,"SoundDuration":437636,"Delta":71171349},{"NoteNumber":52,"Velocity":21,"Duration":437636,"SoundDuration":437636,"Delta":71171349},{"NoteNumber":45,"Velocity":32,"Duration":425404,"SoundDuration":425404,"Delta":71608986},{"NoteNumber":52,"Velocity":21,"Duration":417827,"SoundDuration":417827,"Delta":72034391},{"NoteNumber":60,"Velocity":25,"Duration":417827,"SoundDuration":417827,"Delta":72034391},{"NoteNumber":60,"Velocity":26,"Duration":425229,"SoundDuration":425229,"Delta":72452218},{"NoteNumber":52,"Velocity":21,"Duration":425229,"SoundDuration":425229,"Delta":72452218},{"NoteNumber":64,"Velocity":45,"Duration":432900,"SoundDuration":432900,"Delta":72877448},{"NoteNumber":45,"Velocity":32,"Duration":432900,"SoundDuration":432900,"Delta":72877448},{"NoteNumber":66,"Velocity":42,"Duration":103092,"SoundDuration":103092,"Delta":73310348},{"NoteNumber":60,"Velocity":26,"Duration":412370,"SoundDuration":412370,"Delta":73310348},{"NoteNumber":52,"Velocity":21,"Duration":412370,"SoundDuration":412370,"Delta":73310348},{"NoteNumber":68,"Velocity":39,"Duration":51546,"SoundDuration":51546,"Delta":73516533},{"NoteNumber":69,"Velocity":47,"Duration":210378,"SoundDuration":210378,"Delta":73722719},{"NoteNumber":52,"Velocity":21,"Duration":420756,"SoundDuration":420756,"Delta":73722719},{"NoteNumber":60,"Velocity":26,"Duration":420756,"SoundDuration":420756,"Delta":73722719},{"NoteNumber":69,"Velocity":49,"Duration":426743,"SoundDuration":426743,"Delta":74143476},{"NoteNumber":45,"Velocity":32,"Duration":426743,"SoundDuration":426743,"Delta":74143476},{"NoteNumber":71,"Velocity":52,"Duration":102040,"SoundDuration":102040,"Delta":74570219},{"NoteNumber":52,"Velocity":21,"Duration":408163,"SoundDuration":408163,"Delta":74570219},{"NoteNumber":62,"Velocity":25,"Duration":408163,"SoundDuration":408163,"Delta":74570219},{"NoteNumber":68,"Velocity":45,"Duration":51020,"SoundDuration":51020,"Delta":74774300},{"NoteNumber":66,"Velocity":43,"Duration":215053,"SoundDuration":215053,"Delta":74978382},{"NoteNumber":62,"Velocity":26,"Duration":430108,"SoundDuration":430108,"Delta":74978382},{"NoteNumber":52,"Velocity":21,"Duration":430108,"SoundDuration":430108,"Delta":74978382},{"NoteNumber":69,"Velocity":35,"Duration":53763,"SoundDuration":53763,"Delta":75354726},{"NoteNumber":66,"Velocity":45,"Duration":109488,"SoundDuration":109488,"Delta":75408490},{"NoteNumber":45,"Velocity":32,"Duration":437955,"SoundDuration":437955,"Delta":75408490},{"NoteNumber":64,"Velocity":42,"Duration":1279732,"SoundDuration":1279732,"Delta":75846446},{"NoteNumber":52,"Velocity":19,"Duration":421053,"SoundDuration":421053,"Delta":75846446},{"NoteNumber":60,"Velocity":23,"Duration":421053,"SoundDuration":421053,"Delta":75846446},{"NoteNumber":60,"Velocity":23,"Duration":430108,"SoundDuration":430108,"Delta":76267499},{"NoteNumber":52,"Velocity":19,"Duration":430108,"SoundDuration":430108,"Delta":76267499},{"NoteNumber":45,"Velocity":32,"Duration":428571,"SoundDuration":428571,"Delta":76697607},{"NoteNumber":52,"Velocity":19,"Duration":422534,"SoundDuration":422534,"Delta":77126178},{"NoteNumber":60,"Velocity":22,"Duration":422534,"SoundDuration":422534,"Delta":77126178},{"NoteNumber":60,"Velocity":23,"Duration":433212,"SoundDuration":433212,"Delta":77548713},{"NoteNumber":52,"Velocity":19,"Duration":433212,"SoundDuration":433212,"Delta":77548713},{"NoteNumber":45,"Velocity":32,"Duration":416170,"SoundDuration":416170,"Delta":77981926},{"NoteNumber":64,"Velocity":38,"Duration":52264,"SoundDuration":52264,"Delta":78189037},{"NoteNumber":66,"Velocity":43,"Duration":51546,"SoundDuration":51546,"Delta":78398096},{"NoteNumber":60,"Velocity":26,"Duration":412370,"SoundDuration":412370,"Delta":78398096},{"NoteNumber":52,"Velocity":21,"Duration":412370,"SoundDuration":412370,"Delta":78398096},{"NoteNumber":68,"Velocity":39,"Duration":51546,"SoundDuration":51546,"Delta":78604282},{"NoteNumber":68,"Velocity":45,"Duration":213522,"SoundDuration":213522,"Delta":78810467},{"NoteNumber":52,"Velocity":21,"Duration":427046,"SoundDuration":427046,"Delta":78810467},{"NoteNumber":60,"Velocity":26,"Duration":427046,"SoundDuration":427046,"Delta":78810467},{"NoteNumber":69,"Velocity":45,"Duration":213523,"SoundDuration":213523,"Delta":79023990},{"NoteNumber":45,"Velocity":32,"Duration":410839,"SoundDuration":410839,"Delta":79237513},{"NoteNumber":69,"Velocity":46,"Duration":51724,"SoundDuration":51724,"Delta":79441456},{"NoteNumber":71,"Velocity":51,"Duration":51020,"SoundDuration":51020,"Delta":79648353},{"NoteNumber":62,"Velocity":25,"Duration":408163,"SoundDuration":408163,"Delta":79648353},{"NoteNumber":52,"Velocity":21,"Duration":408163,"SoundDuration":408163,"Delta":79648353},{"NoteNumber":68,"Velocity":45,"Duration":51020,"SoundDuration":51020,"Delta":79852434},{"NoteNumber":68,"Velocity":43,"Duration":215053,"SoundDuration":215053,"Delta":80056516},{"NoteNumber":62,"Velocity":26,"Duration":430108,"SoundDuration":430108,"Delta":80056516},{"NoteNumber":52,"Velocity":21,"Duration":430108,"SoundDuration":430108,"Delta":80056516},{"NoteNumber":66,"Velocity":45,"Duration":107527,"SoundDuration":107527,"Delta":80271570},{"NoteNumber":69,"Velocity":35,"Duration":53763,"SoundDuration":53763,"Delta":80432860},{"NoteNumber":66,"Velocity":45,"Duration":109488,"SoundDuration":109488,"Delta":80486624},{"NoteNumber":45,"Velocity":32,"Duration":437955,"SoundDuration":437955,"Delta":80486624},{"NoteNumber":64,"Velocity":42,"Duration":1276506,"SoundDuration":1276506,"Delta":80924580},{"NoteNumber":52,"Velocity":19,"Duration":417827,"SoundDuration":417827,"Delta":80924580},{"NoteNumber":60,"Velocity":23,"Duration":417827,"SoundDuration":417827,"Delta":80924580},{"NoteNumber":52,"Velocity":19,"Duration":430108,"SoundDuration":430108,"Delta":81342407},{"NoteNumber":60,"Velocity":23,"Duration":430108,"SoundDuration":430108,"Delta":81342407},{"NoteNumber":45,"Velocity":32,"Duration":428571,"SoundDuration":428571,"Delta":81772515},{"NoteNumber":52,"Velocity":19,"Duration":419286,"SoundDuration":419286,"Delta":82201086},{"NoteNumber":60,"Velocity":22,"Duration":419286,"SoundDuration":419286,"Delta":82201086},{"NoteNumber":60,"Velocity":23,"Duration":433212,"SoundDuration":433212,"Delta":82620373},{"NoteNumber":52,"Velocity":19,"Duration":433212,"SoundDuration":433212,"Delta":82620373},{"NoteNumber":67,"Velocity":37,"Duration":216846,"SoundDuration":216846,"Delta":83053586},{"NoteNumber":76,"Velocity":44,"Duration":216846,"SoundDuration":216846,"Delta":83053586},{"NoteNumber":64,"Velocity":33,"Duration":216846,"SoundDuration":216846,"Delta":83053586},{"NoteNumber":60,"Velocity":28,"Duration":216846,"SoundDuration":216846,"Delta":83053586},{"NoteNumber":68,"Velocity":40,"Duration":213780,"SoundDuration":213780,"Delta":83483694},{"NoteNumber":76,"Velocity":48,"Duration":213780,"SoundDuration":213780,"Delta":83483694},{"NoteNumber":65,"Velocity":36,"Duration":213780,"SoundDuration":213780,"Delta":83483694},{"NoteNumber":60,"Velocity":30,"Duration":213780,"SoundDuration":213780,"Delta":83483694},{"NoteNumber":76,"Velocity":52,"Duration":212280,"SoundDuration":212280,"Delta":83907722},{"NoteNumber":69,"Velocity":44,"Duration":212280,"SoundDuration":212280,"Delta":83907722},{"NoteNumber":60,"Velocity":33,"Duration":212280,"SoundDuration":212280,"Delta":83907722},{"NoteNumber":66,"Velocity":39,"Duration":212280,"SoundDuration":212280,"Delta":83907722},{"NoteNumber":71,"Velocity":45,"Duration":1277989,"SoundDuration":1277989,"Delta":84328775},{"NoteNumber":76,"Velocity":54,"Duration":138408,"SoundDuration":138408,"Delta":84328775},{"NoteNumber":62,"Velocity":38,"Duration":1277989,"SoundDuration":1277989,"Delta":84328775},{"NoteNumber":67,"Velocity":45,"Duration":1277989,"SoundDuration":1277989,"Delta":84328775},{"NoteNumber":55,"Velocity":38,"Duration":1277989,"SoundDuration":1277989,"Delta":84328775},{"NoteNumber":74,"Velocity":44,"Duration":138408,"SoundDuration":138408,"Delta":84467183},{"NoteNumber":72,"Velocity":44,"Duration":138408,"SoundDuration":138408,"Delta":84605591},{"NoteNumber":74,"Velocity":48,"Duration":862763,"SoundDuration":862763,"Delta":84744000},{"NoteNumber":72,"Velocity":44,"Duration":216071,"SoundDuration":216071,"Delta":85606764},{"NoteNumber":64,"Velocity":37,"Duration":216071,"SoundDuration":216071,"Delta":85606764},{"NoteNumber":57,"Velocity":28,"Duration":216071,"SoundDuration":216071,"Delta":85606764},{"NoteNumber":60,"Velocity":33,"Duration":216071,"SoundDuration":216071,"Delta":85606764},{"NoteNumber":72,"Velocity":48,"Duration":213780,"SoundDuration":213780,"Delta":86035335},{"NoteNumber":65,"Velocity":40,"Duration":213780,"SoundDuration":213780,"Delta":86035335},{"NoteNumber":57,"Velocity":30,"Duration":213780,"SoundDuration":213780,"Delta":86035335},{"NoteNumber":62,"Velocity":36,"Duration":213780,"SoundDuration":213780,"Delta":86035335},{"NoteNumber":72,"Velocity":52,"Duration":212280,"SoundDuration":212280,"Delta":86459363},{"NoteNumber":66,"Velocity":44,"Duration":212280,"SoundDuration":212280,"Delta":86459363},{"NoteNumber":63,"Velocity":39,"Duration":212280,"SoundDuration":212280,"Delta":86459363},{"NoteNumber":57,"Velocity":33,"Duration":212280,"SoundDuration":212280,"Delta":86459363},{"NoteNumber":67,"Velocity":45,"Duration":1279653,"SoundDuration":1279653,"Delta":86880416},{"NoteNumber":72,"Velocity":54,"Duration":138408,"SoundDuration":138408,"Delta":86880416},{"NoteNumber":52,"Velocity":38,"Duration":1279653,"SoundDuration":1279653,"Delta":86880416},{"NoteNumber":64,"Velocity":45,"Duration":1279653,"SoundDuration":1279653,"Delta":86880416},{"NoteNumber":59,"Velocity":38,"Duration":1279653,"SoundDuration":1279653,"Delta":86880416},{"NoteNumber":71,"Velocity":44,"Duration":138408,"SoundDuration":138408,"Delta":87018824},{"NoteNumber":69,"Velocity":44,"Duration":138408,"SoundDuration":138408,"Delta":87157232},{"NoteNumber":71,"Velocity":48,"Duration":864428,"SoundDuration":864428,"Delta":87295641},{"NoteNumber":71,"Velocity":54,"Duration":136518,"SoundDuration":136518,"Delta":88160069},{"NoteNumber":65,"Velocity":45,"Duration":1242889,"SoundDuration":1242889,"Delta":88160069},{"NoteNumber":53,"Velocity":38,"Duration":1242889,"SoundDuration":1242889,"Delta":88160069},{"NoteNumber":60,"Velocity":45,"Duration":1242889,"SoundDuration":1242889,"Delta":88160069},{"NoteNumber":69,"Velocity":44,"Duration":136518,"SoundDuration":136518,"Delta":88296587},{"NoteNumber":67,"Velocity":44,"Duration":136518,"SoundDuration":136518,"Delta":88433106},{"NoteNumber":69,"Velocity":48,"Duration":833333,"SoundDuration":833333,"Delta":88569625},{"NoteNumber":67,"Velocity":49,"Duration":1242889,"SoundDuration":1242889,"Delta":89402959},{"NoteNumber":65,"Velocity":59,"Duration":136518,"SoundDuration":136518,"Delta":89402959},{"NoteNumber":55,"Velocity":41,"Duration":1242889,"SoundDuration":1242889,"Delta":89402959},{"NoteNumber":60,"Velocity":49,"Duration":1242889,"SoundDuration":1242889,"Delta":89402959},{"NoteNumber":48,"Velocity":41,"Duration":1243491,"SoundDuration":1243491,"Delta":89408931},{"NoteNumber":64,"Velocity":48,"Duration":136518,"SoundDuration":136518,"Delta":89542037},{"NoteNumber":62,"Velocity":48,"Duration":136518,"SoundDuration":136518,"Delta":89674289},{"NoteNumber":64,"Velocity":52,"Duration":833333,"SoundDuration":833333,"Delta":89812515},{"NoteNumber":60,"Velocity":51,"Duration":450789,"SoundDuration":450789,"Delta":90645849},{"NoteNumber":65,"Velocity":61,"Duration":450789,"SoundDuration":450789,"Delta":90645849},{"NoteNumber":57,"Velocity":52,"Duration":450789,"SoundDuration":450789,"Delta":90645849},{"NoteNumber":50,"Velocity":44,"Duration":450789,"SoundDuration":450789,"Delta":90645849},{"NoteNumber":60,"Velocity":51,"Duration":118953,"SoundDuration":118953,"Delta":91096638},{"NoteNumber":67,"Velocity":61,"Duration":118953,"SoundDuration":118953,"Delta":91096638},{"NoteNumber":57,"Velocity":50,"Duration":118953,"SoundDuration":118953,"Delta":91096638},{"NoteNumber":52,"Velocity":42,"Duration":118953,"SoundDuration":118953,"Delta":91096638},{"NoteNumber":60,"Velocity":48,"Duration":124896,"SoundDuration":124896,"Delta":91334544},{"NoteNumber":69,"Velocity":57,"Duration":124896,"SoundDuration":124896,"Delta":91334544},{"NoteNumber":57,"Velocity":48,"Duration":124896,"SoundDuration":124896,"Delta":91334544},{"NoteNumber":53,"Velocity":40,"Duration":124896,"SoundDuration":124896,"Delta":91334544},{"NoteNumber":60,"Velocity":56,"Duration":240384,"SoundDuration":240384,"Delta":91584336},{"NoteNumber":65,"Velocity":66,"Duration":240384,"SoundDuration":240384,"Delta":91584336},{"NoteNumber":50,"Velocity":48,"Duration":240384,"SoundDuration":240384,"Delta":91584336},{"NoteNumber":57,"Velocity":57,"Duration":240384,"SoundDuration":240384,"Delta":91584336},{"NoteNumber":59,"Velocity":40,"Duration":353773,"SoundDuration":353773,"Delta":92225362},{"NoteNumber":62,"Velocity":48,"Duration":353773,"SoundDuration":353773,"Delta":92225362},{"NoteNumber":57,"Velocity":42,"Duration":353773,"SoundDuration":353773,"Delta":92225362},{"NoteNumber":53,"Velocity":35,"Duration":353773,"SoundDuration":353773,"Delta":92225362},{"NoteNumber":64,"Velocity":41,"Duration":1980198,"SoundDuration":1980198,"Delta":93168758},{"NoteNumber":59,"Velocity":34,"Duration":1980198,"SoundDuration":1980198,"Delta":93168758},{"NoteNumber":56,"Velocity":42,"Duration":1980198,"SoundDuration":1980198,"Delta":93168758},{"NoteNumber":52,"Velocity":35,"Duration":1980198,"SoundDuration":1980198,"Delta":93168758},{"NoteNumber":69,"Velocity":46,"Duration":841681,"SoundDuration":841681,"Delta":95148956},{"NoteNumber":61,"Velocity":36,"Duration":1271789,"SoundDuration":1271789,"Delta":95148956},{"NoteNumber":52,"Velocity":31,"Duration":2573276,"SoundDuration":2573276,"Delta":95148956},{"NoteNumber":45,"Velocity":27,"Duration":2573276,"SoundDuration":2573276,"Delta":95148956},{"NoteNumber":71,"Velocity":48,"Duration":215053,"SoundDuration":215053,"Delta":95990637},{"NoteNumber":68,"Velocity":45,"Duration":161290,"SoundDuration":161290,"Delta":96205691},{"NoteNumber":69,"Velocity":35,"Duration":53763,"SoundDuration":53763,"Delta":96366982},{"NoteNumber":62,"Velocity":36,"Duration":1301486,"SoundDuration":1301486,"Delta":96420745},{"NoteNumber":66,"Velocity":45,"Duration":218978,"SoundDuration":218978,"Delta":96420745},{"NoteNumber":64,"Velocity":45,"Duration":109488,"SoundDuration":109488,"Delta":96639723},{"NoteNumber":64,"Velocity":42,"Duration":863530,"SoundDuration":863530,"Delta":96858701},{"NoteNumber":69,"Velocity":46,"Duration":426743,"SoundDuration":426743,"Delta":97722232},{"NoteNumber":61,"Velocity":36,"Duration":1273229,"SoundDuration":1273229,"Delta":97722232},{"NoteNumber":52,"Velocity":31,"Duration":2646886,"SoundDuration":2646886,"Delta":97722232},{"NoteNumber":45,"Velocity":27,"Duration":2646886,"SoundDuration":2646886,"Delta":97722232},{"NoteNumber":71,"Velocity":48,"Duration":208189,"SoundDuration":208189,"Delta":98148975},{"NoteNumber":73,"Velocity":48,"Duration":208188,"SoundDuration":208188,"Delta":98357164},{"NoteNumber":69,"Velocity":48,"Duration":215053,"SoundDuration":215053,"Delta":98565353},{"NoteNumber":66,"Velocity":45,"Duration":161290,"SoundDuration":161290,"Delta":98780407},{"NoteNumber":68,"Velocity":35,"Duration":53763,"SoundDuration":53763,"Delta":98941698},{"NoteNumber":62,"Velocity":36,"Duration":1310419,"SoundDuration":1310419,"Delta":98995461},{"NoteNumber":66,"Velocity":45,"Duration":218978,"SoundDuration":218978,"Delta":98995461},{"NoteNumber":64,"Velocity":45,"Duration":109488,"SoundDuration":109488,"Delta":99214439},{"NoteNumber":64,"Velocity":42,"Duration":872463,"SoundDuration":872463,"Delta":99433417},{"NoteNumber":69,"Velocity":35,"Duration":63237,"SoundDuration":63237,"Delta":100305880},{"NoteNumber":61,"Velocity":36,"Duration":1924908,"SoundDuration":1924908,"Delta":100369118},{"NoteNumber":66,"Velocity":45,"Duration":123864,"SoundDuration":123864,"Delta":100369118},{"NoteNumber":52,"Velocity":31,"Duration":1924908,"SoundDuration":1924908,"Delta":100369118},{"NoteNumber":45,"Velocity":27,"Duration":1924908,"SoundDuration":1924908,"Delta":100369118},{"NoteNumber":64,"Velocity":42,"Duration":1429451,"SoundDuration":1429451,"Delta":100864576},{"NoteNumber":69,"Velocity":31,"Duration":58777,"SoundDuration":58777,"Delta":103175688},{"NoteNumber":60,"Velocity":32,"Duration":3539726,"SoundDuration":3539726,"Delta":103234465},{"NoteNumber":65,"Velocity":40,"Duration":139405,"SoundDuration":139405,"Delta":103234465},{"NoteNumber":52,"Velocity":27,"Duration":3539726,"SoundDuration":3539726,"Delta":103234465},{"NoteNumber":45,"Velocity":24,"Duration":3539726,"SoundDuration":3539726,"Delta":103234465},{"NoteNumber":64,"Velocity":37,"Duration":2982105,"SoundDuration":2982105,"Delta":103792086},{"NoteNumber":33,"Velocity":24,"Duration":596420,"SoundDuration":596420,"Delta":106774191}],"license":{"name":"Creative Commons Attribution-ShareAlike 3.0 Germany","url":"http://creativecommons.org/licenses/by-sa/3.0/de/deed.en","text":"The MIDI, audio (MP3, OGG) and video files of Bernd Krueger are licensed under the cc-by-sa Germany License. This means that you can use and adapt the files, as long as you attribute the copyright holder.\n\nName: Bernd Krueger\nSource: http://www.piano-midi.de\n\nThe distribution or public playback of the files is only allowed under identical license conditions.\n\nThe scores are open source.","attribution":"MIDI files by Bernd Krueger (piano-midi.de)"}}