{"title":"Mendelssohn: Lieder ohne Worte Opus 30 Nr. 5","artist":"Piano","durationMs":112794,"midiSha256":"12c53f18e7d4568f787612b305038cfb31da5071273b7566466b656ac14c6518","midiObject":[{"NoteNumber":50,"Velocity":25,"Duration":151821,"SoundDuration":151821,"Delta":0},{"NoteNumber":49,"Velocity":32,"Duration":151821,"SoundDuration":151821,"Delta":121458},{"NoteNumber":50,"Velocity":28,"Duration":151821,"SoundDuration":151821,"Delta":242915},{"NoteNumber":49,"Velocity":32,"Duration":151821,"SoundDuration":151821,"Delta":364373},{"NoteNumber":50,"Velocity":28,"Duration":156668,"SoundDuration":156668,"Delta":485830},{"NoteNumber":49,"Velocity":35,"Duration":176056,"SoundDuration":176056,"Delta":607288},{"NoteNumber":50,"Velocity":28,"Duration":140845,"SoundDuration":140845,"Delta":748133},{"NoteNumber":66,"Velocity":46,"Duration":481927,"SoundDuration":481927,"Delta":888978},{"NoteNumber":54,"Velocity":36,"Duration":120481,"SoundDuration":120481,"Delta":888978},{"NoteNumber":50,"Velocity":29,"Duration":120481,"SoundDuration":120481,"Delta":1009460},{"NoteNumber":49,"Velocity":35,"Duration":150602,"SoundDuration":150602,"Delta":1129942},{"NoteNumber":50,"Velocity":28,"Duration":120481,"SoundDuration":120481,"Delta":1250423},{"NoteNumber":55,"Velocity":35,"Duration":481927,"SoundDuration":481927,"Delta":1370905},{"NoteNumber":67,"Velocity":42,"Duration":481927,"SoundDuration":481927,"Delta":1370905},{"NoteNumber":40,"Velocity":34,"Duration":120481,"SoundDuration":120481,"Delta":1370905},{"NoteNumber":50,"Velocity":28,"Duration":120481,"SoundDuration":120481,"Delta":1491387},{"NoteNumber":49,"Velocity":36,"Duration":150602,"SoundDuration":150602,"Delta":1611869},{"NoteNumber":50,"Velocity":33,"Duration":120481,"SoundDuration":120481,"Delta":1732351},{"NoteNumber":69,"Velocity":51,"Duration":483941,"SoundDuration":483941,"Delta":1852833},{"NoteNumber":57,"Velocity":43,"Duration":483941,"SoundDuration":483941,"Delta":1852833},{"NoteNumber":42,"Velocity":40,"Duration":122449,"SoundDuration":122449,"Delta":1852833},{"NoteNumber":50,"Velocity":29,"Duration":122449,"SoundDuration":122449,"Delta":1975282},{"NoteNumber":49,"Velocity":34,"Duration":149402,"SoundDuration":149402,"Delta":2097731},{"NoteNumber":50,"Velocity":43,"Duration":119521,"SoundDuration":119521,"Delta":2217253},{"NoteNumber":59,"Velocity":45,"Duration":478087,"SoundDuration":478087,"Delta":2336775},{"NoteNumber":71,"Velocity":54,"Duration":478087,"SoundDuration":478087,"Delta":2336775},{"NoteNumber":43,"Velocity":50,"Duration":119521,"SoundDuration":119521,"Delta":2336775},{"NoteNumber":50,"Velocity":39,"Duration":119521,"SoundDuration":119521,"Delta":2456296},{"NoteNumber":49,"Velocity":40,"Duration":149402,"SoundDuration":149402,"Delta":2575818},{"NoteNumber":50,"Velocity":39,"Duration":119521,"SoundDuration":119521,"Delta":2695340},{"NoteNumber":69,"Velocity":48,"Duration":478087,"SoundDuration":478087,"Delta":2814862},{"NoteNumber":57,"Velocity":40,"Duration":478087,"SoundDuration":478087,"Delta":2814862},{"NoteNumber":42,"Velocity":43,"Duration":119521,"SoundDuration":119521,"Delta":2814862},{"NoteNumber":50,"Velocity":34,"Duration":119521,"SoundDuration":119521,"Delta":2934384},{"NoteNumber":49,"Velocity":39,"Duration":149402,"SoundDuration":149402,"Delta":3053906},{"NoteNumber":50,"Velocity":34,"Duration":119521,"SoundDuration":119521,"Delta":3173428},{"NoteNumber":55,"Velocity":35,"Duration":515629,"SoundDuration":515629,"Delta":3292950},{"NoteNumber":67,"Velocity":42,"Duration":515629,"SoundDuration":515629,"Delta":3292950},{"NoteNumber":40,"Velocity":45,"Duration":124481,"SoundDuration":124481,"Delta":3292950},{"NoteNumber":50,"Velocity":34,"Duration":124481,"SoundDuration":124481,"Delta":3417431},{"NoteNumber":49,"Velocity":38,"Duration":166666,"SoundDuration":166666,"Delta":3541912},{"NoteNumber":50,"Velocity":34,"Duration":133333,"SoundDuration":133333,"Delta":3675246},{"NoteNumber":66,"Velocity":47,"Duration":971659,"SoundDuration":971659,"Delta":3808579},{"NoteNumber":54,"Velocity":39,"Duration":971659,"SoundDuration":971659,"Delta":3808579},{"NoteNumber":38,"Velocity":47,"Duration":121457,"SoundDuration":121457,"Delta":3808579},{"NoteNumber":50,"Velocity":31,"Duration":121457,"SoundDuration":121457,"Delta":3930037},{"NoteNumber":49,"Velocity":34,"Duration":151821,"SoundDuration":151821,"Delta":4051494},{"NoteNumber":50,"Velocity":30,"Duration":151821,"SoundDuration":151821,"Delta":4172952},{"NoteNumber":49,"Velocity":39,"Duration":151821,"SoundDuration":151821,"Delta":4294409},{"NoteNumber":50,"Velocity":29,"Duration":151821,"SoundDuration":151821,"Delta":4415867},{"NoteNumber":49,"Velocity":34,"Duration":151821,"SoundDuration":151821,"Delta":4537324},{"NoteNumber":50,"Velocity":31,"Duration":121457,"SoundDuration":121457,"Delta":4658782},{"NoteNumber":69,"Velocity":53,"Duration":485830,"SoundDuration":485830,"Delta":4780239},{"NoteNumber":57,"Velocity":45,"Duration":485830,"SoundDuration":485830,"Delta":4780239},{"NoteNumber":54,"Velocity":48,"Duration":151821,"SoundDuration":151821,"Delta":4780239},{"NoteNumber":52,"Velocity":37,"Duration":151821,"SoundDuration":151821,"Delta":4901697},{"NoteNumber":54,"Velocity":40,"Duration":151821,"SoundDuration":151821,"Delta":5023154},{"NoteNumber":52,"Velocity":40,"Duration":151821,"SoundDuration":151821,"Delta":5144612},{"NoteNumber":71,"Velocity":55,"Duration":485830,"SoundDuration":485830,"Delta":5266069},{"NoteNumber":59,"Velocity":46,"Duration":485830,"SoundDuration":485830,"Delta":5266069},{"NoteNumber":56,"Velocity":50,"Duration":151821,"SoundDuration":151821,"Delta":5266069},{"NoteNumber":54,"Velocity":36,"Duration":151821,"SoundDuration":151821,"Delta":5387527},{"NoteNumber":56,"Velocity":46,"Duration":151821,"SoundDuration":151821,"Delta":5508984},{"NoteNumber":52,"Velocity":49,"Duration":121457,"SoundDuration":121457,"Delta":5630442},{"NoteNumber":73,"Velocity":62,"Duration":485830,"SoundDuration":485830,"Delta":5751899},{"NoteNumber":61,"Velocity":52,"Duration":485830,"SoundDuration":485830,"Delta":5751899},{"NoteNumber":57,"Velocity":55,"Duration":151821,"SoundDuration":151821,"Delta":5751899},{"NoteNumber":56,"Velocity":46,"Duration":151821,"SoundDuration":151821,"Delta":5873357},{"NoteNumber":57,"Velocity":47,"Duration":151821,"SoundDuration":151821,"Delta":5994814},{"NoteNumber":52,"Velocity":53,"Duration":121457,"SoundDuration":121457,"Delta":6116272},{"NoteNumber":62,"Velocity":55,"Duration":481927,"SoundDuration":481927,"Delta":6237729},{"NoteNumber":74,"Velocity":65,"Duration":481927,"SoundDuration":481927,"Delta":6237729},{"NoteNumber":59,"Velocity":62,"Duration":150602,"SoundDuration":150602,"Delta":6237729},{"NoteNumber":57,"Velocity":40,"Duration":150602,"SoundDuration":150602,"Delta":6358211},{"NoteNumber":59,"Velocity":48,"Duration":150602,"SoundDuration":150602,"Delta":6478693},{"NoteNumber":52,"Velocity":40,"Duration":120481,"SoundDuration":120481,"Delta":6599175},{"NoteNumber":73,"Velocity":58,"Duration":481927,"SoundDuration":481927,"Delta":6719657},{"NoteNumber":61,"Velocity":49,"Duration":481927,"SoundDuration":481927,"Delta":6719657},{"NoteNumber":57,"Velocity":53,"Duration":150602,"SoundDuration":150602,"Delta":6719657},{"NoteNumber":56,"Velocity":40,"Duration":150602,"SoundDuration":150602,"Delta":6840138},{"NoteNumber":57,"Velocity":46,"Duration":150602,"SoundDuration":150602,"Delta":6960620},{"NoteNumber":52,"Velocity":40,"Duration":120481,"SoundDuration":120481,"Delta":7081102},{"NoteNumber":71,"Velocity":56,"Duration":516887,"SoundDuration":516887,"Delta":7201584},{"NoteNumber":59,"Velocity":47,"Duration":516887,"SoundDuration":516887,"Delta":7201584},{"NoteNumber":56,"Velocity":47,"Duration":151821,"SoundDuration":151821,"Delta":7201584},{"NoteNumber":54,"Velocity":37,"Duration":155704,"SoundDuration":155704,"Delta":7323041},{"NoteNumber":56,"Velocity":40,"Duration":171232,"SoundDuration":171232,"Delta":7444499},{"NoteNumber":52,"Velocity":38,"Duration":136986,"SoundDuration":136986,"Delta":7581485},{"NoteNumber":76,"Velocity":63,"Duration":485830,"SoundDuration":485830,"Delta":7718472},{"NoteNumber":64,"Velocity":53,"Duration":485830,"SoundDuration":485830,"Delta":7718472},{"NoteNumber":49,"Velocity":54,"Duration":121457,"SoundDuration":121457,"Delta":7718472},{"NoteNumber":52,"Velocity":46,"Duration":121457,"SoundDuration":121457,"Delta":7839929},{"NoteNumber":58,"Velocity":46,"Duration":121457,"SoundDuration":121457,"Delta":7961387},{"NoteNumber":61,"Velocity":49,"Duration":121457,"SoundDuration":121457,"Delta":8082844},{"NoteNumber":78,"Velocity":66,"Duration":485830,"SoundDuration":485830,"Delta":8204302},{"NoteNumber":66,"Velocity":56,"Duration":485830,"SoundDuration":485830,"Delta":8204302},{"NoteNumber":59,"Velocity":54,"Duration":151821,"SoundDuration":151821,"Delta":8204302},{"NoteNumber":58,"Velocity":40,"Duration":151821,"SoundDuration":151821,"Delta":8325759},{"NoteNumber":56,"Velocity":49,"Duration":151821,"SoundDuration":151821,"Delta":8447217},{"NoteNumber":54,"Velocity":40,"Duration":121457,"SoundDuration":121457,"Delta":8568674},{"NoteNumber":64,"Velocity":55,"Duration":235293,"SoundDuration":235293,"Delta":8690132},{"NoteNumber":76,"Velocity":65,"Duration":235293,"SoundDuration":235293,"Delta":8690132},{"NoteNumber":59,"Velocity":56,"Duration":117646,"SoundDuration":117646,"Delta":8690132},{"NoteNumber":61,"Velocity":40,"Duration":117646,"SoundDuration":117646,"Delta":8807779},{"NoteNumber":75,"Velocity":53,"Duration":235293,"SoundDuration":235293,"Delta":8925426},{"NoteNumber":63,"Velocity":45,"Duration":235293,"SoundDuration":235293,"Delta":8925426},{"NoteNumber":59,"Velocity":48,"Duration":147058,"SoundDuration":147058,"Delta":8925426},{"NoteNumber":58,"Velocity":40,"Duration":147058,"SoundDuration":147058,"Delta":9043073},{"NoteNumber":73,"Velocity":55,"Duration":117646,"SoundDuration":117646,"Delta":9160719},{"NoteNumber":61,"Velocity":46,"Duration":117646,"SoundDuration":117646,"Delta":9160719},{"NoteNumber":59,"Velocity":50,"Duration":147058,"SoundDuration":147058,"Delta":9160719},{"NoteNumber":57,"Velocity":37,"Duration":150980,"SoundDuration":150980,"Delta":9278366},{"NoteNumber":59,"Velocity":42,"Duration":133333,"SoundDuration":133333,"Delta":9396014},{"NoteNumber":71,"Velocity":50,"Duration":133333,"SoundDuration":133333,"Delta":9396014},{"NoteNumber":56,"Velocity":40,"Duration":166666,"SoundDuration":166666,"Delta":9396014},{"NoteNumber":54,"Velocity":37,"Duration":133333,"SoundDuration":133333,"Delta":9529347},{"NoteNumber":74,"Velocity":57,"Duration":485830,"SoundDuration":485830,"Delta":9662680},{"NoteNumber":62,"Velocity":48,"Duration":485830,"SoundDuration":485830,"Delta":9662680},{"NoteNumber":56,"Velocity":49,"Duration":151821,"SoundDuration":151821,"Delta":9662680},{"NoteNumber":57,"Velocity":40,"Duration":151821,"SoundDuration":151821,"Delta":9784138},{"NoteNumber":59,"Velocity":42,"Duration":151821,"SoundDuration":151821,"Delta":9905595},{"NoteNumber":57,"Velocity":47,"Duration":121457,"SoundDuration":121457,"Delta":10027053},{"NoteNumber":76,"Velocity":58,"Duration":485830,"SoundDuration":485830,"Delta":10148510},{"NoteNumber":64,"Velocity":49,"Duration":485830,"SoundDuration":485830,"Delta":10148510},{"NoteNumber":56,"Velocity":51,"Duration":121457,"SoundDuration":121457,"Delta":10148510},{"NoteNumber":52,"Velocity":40,"Duration":121457,"SoundDuration":121457,"Delta":10269968},{"NoteNumber":54,"Velocity":46,"Duration":151821,"SoundDuration":151821,"Delta":10391425},{"NoteNumber":56,"Velocity":40,"Duration":150640,"SoundDuration":150640,"Delta":10512883},{"NoteNumber":62,"Velocity":52,"Duration":233463,"SoundDuration":233463,"Delta":10634340},{"NoteNumber":74,"Velocity":62,"Duration":233463,"SoundDuration":233463,"Delta":10634340},{"NoteNumber":57,"Velocity":53,"Duration":145914,"SoundDuration":145914,"Delta":10634340},{"NoteNumber":59,"Velocity":40,"Duration":145914,"SoundDuration":145914,"Delta":10751072},{"NoteNumber":73,"Velocity":57,"Duration":233462,"SoundDuration":233462,"Delta":10867803},{"NoteNumber":61,"Velocity":48,"Duration":233462,"SoundDuration":233462,"Delta":10867803},{"NoteNumber":57,"Velocity":46,"Duration":145914,"SoundDuration":145914,"Delta":10867803},{"NoteNumber":56,"Velocity":40,"Duration":145914,"SoundDuration":145914,"Delta":10984535},{"NoteNumber":59,"Velocity":42,"Duration":116731,"SoundDuration":116731,"Delta":11101266},{"NoteNumber":71,"Velocity":50,"Duration":116731,"SoundDuration":116731,"Delta":11101266},{"NoteNumber":57,"Velocity":48,"Duration":145914,"SoundDuration":145914,"Delta":11101266},{"NoteNumber":56,"Velocity":40,"Duration":149199,"SoundDuration":149199,"Delta":11217998},{"NoteNumber":61,"Velocity":42,"Duration":129870,"SoundDuration":129870,"Delta":11334729},{"NoteNumber":73,"Velocity":50,"Duration":129870,"SoundDuration":129870,"Delta":11334729},{"NoteNumber":54,"Velocity":40,"Duration":162337,"SoundDuration":162337,"Delta":11334729},{"NoteNumber":53,"Velocity":38,"Duration":129870,"SoundDuration":129870,"Delta":11464599},{"NoteNumber":62,"Velocity":42,"Duration":485830,"SoundDuration":485830,"Delta":11594470},{"NoteNumber":74,"Velocity":50,"Duration":485830,"SoundDuration":485830,"Delta":11594470},{"NoteNumber":54,"Velocity":47,"Duration":121457,"SoundDuration":121457,"Delta":11594470},{"NoteNumber":57,"Velocity":35,"Duration":121457,"SoundDuration":121457,"Delta":11715927},{"NoteNumber":56,"Velocity":40,"Duration":151821,"SoundDuration":151821,"Delta":11837385},{"NoteNumber":57,"Velocity":36,"Duration":121457,"SoundDuration":121457,"Delta":11958842},{"NoteNumber":73,"Velocity":47,"Duration":485830,"SoundDuration":485830,"Delta":12080300},{"NoteNumber":61,"Velocity":39,"Duration":485830,"SoundDuration":485830,"Delta":12080300},{"NoteNumber":52,"Velocity":47,"Duration":121457,"SoundDuration":121457,"Delta":12080300},{"NoteNumber":57,"Velocity":35,"Duration":121457,"SoundDuration":121457,"Delta":12201757},{"NoteNumber":56,"Velocity":40,"Duration":151821,"SoundDuration":151821,"Delta":12323215},{"NoteNumber":57,"Velocity":40,"Duration":121457,"SoundDuration":121457,"Delta":12444672},{"NoteNumber":59,"Velocity":42,"Duration":515021,"SoundDuration":515021,"Delta":12566130},{"NoteNumber":71,"Velocity":50,"Duration":515021,"SoundDuration":515021,"Delta":12566130},{"NoteNumber":50,"Velocity":48,"Duration":128755,"SoundDuration":128755,"Delta":12566130},{"NoteNumber":57,"Velocity":37,"Duration":128755,"SoundDuration":128755,"Delta":12694885},{"NoteNumber":56,"Velocity":40,"Duration":160944,"SoundDuration":160944,"Delta":12823640},{"NoteNumber":57,"Velocity":37,"Duration":128755,"SoundDuration":128755,"Delta":12952396},{"NoteNumber":76,"Velocity":46,"Duration":485830,"SoundDuration":485830,"Delta":13081151},{"NoteNumber":64,"Velocity":39,"Duration":485830,"SoundDuration":485830,"Delta":13081151},{"NoteNumber":49,"Velocity":47,"Duration":121457,"SoundDuration":121457,"Delta":13081151},{"NoteNumber":57,"Velocity":38,"Duration":121457,"SoundDuration":121457,"Delta":13202609},{"NoteNumber":56,"Velocity":40,"Duration":151821,"SoundDuration":151821,"Delta":13324066},{"NoteNumber":55,"Velocity":37,"Duration":121457,"SoundDuration":121457,"Delta":13445524},{"NoteNumber":74,"Velocity":55,"Duration":481927,"SoundDuration":481927,"Delta":13566981},{"NoteNumber":62,"Velocity":46,"Duration":481927,"SoundDuration":481927,"Delta":13566981},{"NoteNumber":54,"Velocity":46,"Duration":120481,"SoundDuration":120481,"Delta":13566981},{"NoteNumber":57,"Velocity":37,"Duration":120481,"SoundDuration":120481,"Delta":13687463},{"NoteNumber":56,"Velocity":40,"Duration":150602,"SoundDuration":150602,"Delta":13807945},{"NoteNumber":57,"Velocity":37,"Duration":120481,"SoundDuration":120481,"Delta":13928427},{"NoteNumber":61,"Velocity":42,"Duration":481927,"SoundDuration":481927,"Delta":14048909},{"NoteNumber":73,"Velocity":50,"Duration":481927,"SoundDuration":481927,"Delta":14048909},{"NoteNumber":52,"Velocity":47,"Duration":120481,"SoundDuration":120481,"Delta":14048909},{"NoteNumber":57,"Velocity":39,"Duration":120481,"SoundDuration":120481,"Delta":14169390},{"NoteNumber":56,"Velocity":40,"Duration":150602,"SoundDuration":150602,"Delta":14289872},{"NoteNumber":57,"Velocity":39,"Duration":120481,"SoundDuration":120481,"Delta":14410354},{"NoteNumber":71,"Velocity":54,"Duration":764374,"SoundDuration":764374,"Delta":14530836},{"NoteNumber":59,"Velocity":45,"Duration":764374,"SoundDuration":764374,"Delta":14530836},{"NoteNumber":51,"Velocity":49,"Duration":120481,"SoundDuration":120481,"Delta":14530836},{"NoteNumber":57,"Velocity":38,"Duration":120481,"SoundDuration":120481,"Delta":14651318},{"NoteNumber":56,"Velocity":40,"Duration":172811,"SoundDuration":172811,"Delta":14771800},{"NoteNumber":57,"Velocity":38,"Duration":169113,"SoundDuration":169113,"Delta":14910049},{"NoteNumber":54,"Velocity":47,"Duration":123456,"SoundDuration":123456,"Delta":15048298},{"NoteNumber":63,"Velocity":37,"Duration":123456,"SoundDuration":123456,"Delta":15171754},{"NoteNumber":71,"Velocity":50,"Duration":246913,"SoundDuration":246913,"Delta":15295211},{"NoteNumber":57,"Velocity":40,"Duration":123456,"SoundDuration":123456,"Delta":15295211},{"NoteNumber":54,"Velocity":35,"Duration":123456,"SoundDuration":123456,"Delta":15418668},{"NoteNumber":70,"Velocity":58,"Duration":240963,"SoundDuration":240963,"Delta":15542125},{"NoteNumber":56,"Velocity":48,"Duration":120481,"SoundDuration":120481,"Delta":15542125},{"NoteNumber":52,"Velocity":40,"Duration":120481,"SoundDuration":120481,"Delta":15662606},{"NoteNumber":68,"Velocity":52,"Duration":240963,"SoundDuration":240963,"Delta":15783088},{"NoteNumber":71,"Velocity":62,"Duration":240963,"SoundDuration":240963,"Delta":15783088},{"NoteNumber":50,"Velocity":41,"Duration":120481,"SoundDuration":120481,"Delta":15783088},{"NoteNumber":52,"Velocity":45,"Duration":120481,"SoundDuration":120481,"Delta":15903570},{"NoteNumber":69,"Velocity":54,"Duration":240963,"SoundDuration":240963,"Delta":16024052},{"NoteNumber":73,"Velocity":64,"Duration":240963,"SoundDuration":240963,"Delta":16024052},{"NoteNumber":49,"Velocity":54,"Duration":120481,"SoundDuration":120481,"Delta":16024052},{"NoteNumber":52,"Velocity":45,"Duration":120481,"SoundDuration":120481,"Delta":16144534},{"NoteNumber":71,"Velocity":58,"Duration":240963,"SoundDuration":240963,"Delta":16265016},{"NoteNumber":74,"Velocity":69,"Duration":240963,"SoundDuration":240963,"Delta":16265016},{"NoteNumber":47,"Velocity":52,"Duration":120481,"SoundDuration":120481,"Delta":16265016},{"NoteNumber":52,"Velocity":55,"Duration":120481,"SoundDuration":120481,"Delta":16385498},{"NoteNumber":78,"Velocity":71,"Duration":239043,"SoundDuration":239043,"Delta":16505980},{"NoteNumber":74,"Velocity":60,"Duration":239043,"SoundDuration":239043,"Delta":16505980},{"NoteNumber":44,"Velocity":59,"Duration":119521,"SoundDuration":119521,"Delta":16505980},{"NoteNumber":52,"Velocity":45,"Duration":119521,"SoundDuration":119521,"Delta":16625501},{"NoteNumber":73,"Velocity":60,"Duration":239043,"SoundDuration":239043,"Delta":16745023},{"NoteNumber":76,"Velocity":72,"Duration":239043,"SoundDuration":239043,"Delta":16745023},{"NoteNumber":45,"Velocity":52,"Duration":119521,"SoundDuration":119521,"Delta":16745023},{"NoteNumber":54,"Velocity":46,"Duration":119521,"SoundDuration":119521,"Delta":16864545},{"NoteNumber":74,"Velocity":66,"Duration":248962,"SoundDuration":248962,"Delta":16984067},{"NoteNumber":71,"Velocity":56,"Duration":248962,"SoundDuration":248962,"Delta":16984067},{"NoteNumber":47,"Velocity":53,"Duration":124481,"SoundDuration":124481,"Delta":16984067},{"NoteNumber":56,"Velocity":40,"Duration":124481,"SoundDuration":124481,"Delta":17108548},{"NoteNumber":73,"Velocity":64,"Duration":276497,"SoundDuration":276497,"Delta":17233030},{"NoteNumber":69,"Velocity":54,"Duration":276497,"SoundDuration":276497,"Delta":17233030},{"NoteNumber":49,"Velocity":46,"Duration":138248,"SoundDuration":138248,"Delta":17233030},{"NoteNumber":57,"Velocity":40,"Duration":138248,"SoundDuration":138248,"Delta":17371279},{"NoteNumber":76,"Velocity":64,"Duration":237154,"SoundDuration":237154,"Delta":17509528},{"NoteNumber":73,"Velocity":54,"Duration":237154,"SoundDuration":237154,"Delta":17509528},{"NoteNumber":50,"Velocity":47,"Duration":118577,"SoundDuration":118577,"Delta":17509528},{"NoteNumber":54,"Velocity":40,"Duration":118577,"SoundDuration":118577,"Delta":17628105},{"NoteNumber":74,"Velocity":52,"Duration":237154,"SoundDuration":237154,"Delta":17746682},{"NoteNumber":58,"Velocity":40,"Duration":148221,"SoundDuration":148221,"Delta":17746682},{"NoteNumber":59,"Velocity":46,"Duration":150492,"SoundDuration":150492,"Delta":17865259},{"NoteNumber":66,"Velocity":57,"Duration":255319,"SoundDuration":255319,"Delta":17983836},{"NoteNumber":52,"Velocity":51,"Duration":159574,"SoundDuration":159574,"Delta":17983836},{"NoteNumber":59,"Velocity":40,"Duration":127659,"SoundDuration":127659,"Delta":18111496},{"NoteNumber":68,"Velocity":60,"Duration":788055,"SoundDuration":788055,"Delta":18239155},{"NoteNumber":62,"Velocity":43,"Duration":140845,"SoundDuration":140845,"Delta":18239155},{"NoteNumber":64,"Velocity":40,"Duration":140845,"SoundDuration":140845,"Delta":18380000},{"NoteNumber":71,"Velocity":70,"Duration":506365,"SoundDuration":506365,"Delta":18520846},{"NoteNumber":57,"Velocity":57,"Duration":127659,"SoundDuration":127659,"Delta":18520846},{"NoteNumber":62,"Velocity":40,"Duration":127659,"SoundDuration":127659,"Delta":18648505},{"NoteNumber":64,"Velocity":45,"Duration":125523,"SoundDuration":125523,"Delta":18776165},{"NoteNumber":62,"Velocity":40,"Duration":125522,"SoundDuration":125522,"Delta":18901688},{"NoteNumber":69,"Velocity":58,"Duration":1497942,"SoundDuration":1497942,"Delta":19027211},{"NoteNumber":61,"Velocity":52,"Duration":125523,"SoundDuration":125523,"Delta":19027211},{"NoteNumber":59,"Velocity":34,"Duration":156903,"SoundDuration":156903,"Delta":19152734},{"NoteNumber":57,"Velocity":40,"Duration":156903,"SoundDuration":156903,"Delta":19278257},{"NoteNumber":59,"Velocity":34,"Duration":156643,"SoundDuration":156643,"Delta":19403780},{"NoteNumber":61,"Velocity":46,"Duration":155601,"SoundDuration":155601,"Delta":19529303},{"NoteNumber":62,"Velocity":34,"Duration":155601,"SoundDuration":155601,"Delta":19653784},{"NoteNumber":64,"Velocity":36,"Duration":155601,"SoundDuration":155601,"Delta":19778266},{"NoteNumber":66,"Velocity":34,"Duration":155601,"SoundDuration":155601,"Delta":19902747},{"NoteNumber":67,"Velocity":40,"Duration":155601,"SoundDuration":155601,"Delta":20027228},{"NoteNumber":66,"Velocity":30,"Duration":155601,"SoundDuration":155601,"Delta":20151710},{"NoteNumber":67,"Velocity":33,"Duration":155601,"SoundDuration":155601,"Delta":20276191},{"NoteNumber":65,"Velocity":30,"Duration":155601,"SoundDuration":155601,"Delta":20400672},{"NoteNumber":66,"Velocity":40,"Duration":155601,"SoundDuration":155601,"Delta":20525154},{"NoteNumber":65,"Velocity":31,"Duration":155601,"SoundDuration":155601,"Delta":20649635},{"NoteNumber":66,"Velocity":35,"Duration":155601,"SoundDuration":155601,"Delta":20774117},{"NoteNumber":62,"Velocity":30,"Duration":155601,"SoundDuration":155601,"Delta":20898598},{"NoteNumber":65,"Velocity":40,"Duration":155601,"SoundDuration":155601,"Delta":21023079},{"NoteNumber":64,"Velocity":31,"Duration":156396,"SoundDuration":156396,"Delta":21147561},{"NoteNumber":65,"Velocity":34,"Duration":159574,"SoundDuration":159574,"Delta":21272042},{"NoteNumber":62,"Velocity":31,"Duration":127659,"SoundDuration":127659,"Delta":21399702},{"NoteNumber":61,"Velocity":40,"Duration":155601,"SoundDuration":155601,"Delta":21527361},{"NoteNumber":60,"Velocity":32,"Duration":155601,"SoundDuration":155601,"Delta":21651843},{"NoteNumber":61,"Velocity":35,"Duration":155601,"SoundDuration":155601,"Delta":21776324},{"NoteNumber":57,"Velocity":30,"Duration":155601,"SoundDuration":155601,"Delta":21900805},{"NoteNumber":55,"Velocity":40,"Duration":155601,"SoundDuration":155601,"Delta":22025287},{"NoteNumber":54,"Velocity":30,"Duration":159692,"SoundDuration":159692,"Delta":22149768},{"NoteNumber":55,"Velocity":34,"Duration":176056,"SoundDuration":176056,"Delta":22274250},{"NoteNumber":52,"Velocity":30,"Duration":140845,"SoundDuration":140845,"Delta":22415095},{"NoteNumber":66,"Velocity":46,"Duration":481927,"SoundDuration":481927,"Delta":22555940},{"NoteNumber":54,"Velocity":36,"Duration":120481,"SoundDuration":120481,"Delta":22555940},{"NoteNumber":50,"Velocity":29,"Duration":120481,"SoundDuration":120481,"Delta":22676422},{"NoteNumber":49,"Velocity":35,"Duration":150602,"SoundDuration":150602,"Delta":22796904},{"NoteNumber":50,"Velocity":28,"Duration":120481,"SoundDuration":120481,"Delta":22917385},{"NoteNumber":55,"Velocity":35,"Duration":481927,"SoundDuration":481927,"Delta":23037867},{"NoteNumber":67,"Velocity":42,"Duration":481927,"SoundDuration":481927,"Delta":23037867},{"NoteNumber":40,"Velocity":34,"Duration":120481,"SoundDuration":120481,"Delta":23037867},{"NoteNumber":50,"Velocity":28,"Duration":120481,"SoundDuration":120481,"Delta":23158349},{"NoteNumber":49,"Velocity":36,"Duration":150602,"SoundDuration":150602,"Delta":23278831},{"NoteNumber":50,"Velocity":33,"Duration":120481,"SoundDuration":120481,"Delta":23399313},{"NoteNumber":69,"Velocity":51,"Duration":483941,"SoundDuration":483941,"Delta":23519795},{"NoteNumber":57,"Velocity":43,"Duration":483941,"SoundDuration":483941,"Delta":23519795},{"NoteNumber":42,"Velocity":40,"Duration":122448,"SoundDuration":122448,"Delta":23519795},{"NoteNumber":50,"Velocity":29,"Duration":122448,"SoundDuration":122448,"Delta":23642244},{"NoteNumber":49,"Velocity":34,"Duration":149402,"SoundDuration":149402,"Delta":23764693},{"NoteNumber":50,"Velocity":43,"Duration":119521,"SoundDuration":119521,"Delta":23884215},{"NoteNumber":59,"Velocity":45,"Duration":478087,"SoundDuration":478087,"Delta":24003737},{"NoteNumber":71,"Velocity":54,"Duration":478087,"SoundDuration":478087,"Delta":24003737},{"NoteNumber":43,"Velocity":50,"Duration":119521,"SoundDuration":119521,"Delta":24003737},{"NoteNumber":50,"Velocity":39,"Duration":119521,"SoundDuration":119521,"Delta":24123258},{"NoteNumber":49,"Velocity":40,"Duration":149402,"SoundDuration":149402,"Delta":24242780},{"NoteNumber":50,"Velocity":39,"Duration":119521,"SoundDuration":119521,"Delta":24362302},{"NoteNumber":69,"Velocity":48,"Duration":478087,"SoundDuration":478087,"Delta":24481824},{"NoteNumber":57,"Velocity":40,"Duration":478087,"SoundDuration":478087,"Delta":24481824},{"NoteNumber":42,"Velocity":43,"Duration":119521,"SoundDuration":119521,"Delta":24481824},{"NoteNumber":50,"Velocity":34,"Duration":119521,"SoundDuration":119521,"Delta":24601346},{"NoteNumber":49,"Velocity":39,"Duration":149402,"SoundDuration":149402,"Delta":24720868},{"NoteNumber":50,"Velocity":34,"Duration":119521,"SoundDuration":119521,"Delta":24840390},{"NoteNumber":55,"Velocity":35,"Duration":515629,"SoundDuration":515629,"Delta":24959912},{"NoteNumber":67,"Velocity":42,"Duration":515629,"SoundDuration":515629,"Delta":24959912},{"NoteNumber":40,"Velocity":45,"Duration":124481,"SoundDuration":124481,"Delta":24959912},{"NoteNumber":50,"Velocity":34,"Duration":124481,"SoundDuration":124481,"Delta":25084393},{"NoteNumber":49,"Velocity":38,"Duration":166666,"SoundDuration":166666,"Delta":25208874},{"NoteNumber":50,"Velocity":34,"Duration":133333,"SoundDuration":133333,"Delta":25342208},{"NoteNumber":66,"Velocity":47,"Duration":971660,"SoundDuration":971660,"Delta":25475541},{"NoteNumber":54,"Velocity":39,"Duration":971660,"SoundDuration":971660,"Delta":25475541},{"NoteNumber":38,"Velocity":47,"Duration":121457,"SoundDuration":121457,"Delta":25475541},{"NoteNumber":50,"Velocity":31,"Duration":121457,"SoundDuration":121457,"Delta":25596998},{"NoteNumber":49,"Velocity":34,"Duration":151821,"SoundDuration":151821,"Delta":25718456},{"NoteNumber":50,"Velocity":30,"Duration":151821,"SoundDuration":151821,"Delta":25839914},{"NoteNumber":49,"Velocity":39,"Duration":151821,"SoundDuration":151821,"Delta":25961371},{"NoteNumber":50,"Velocity":29,"Duration":151821,"SoundDuration":151821,"Delta":26082828},{"NoteNumber":49,"Velocity":34,"Duration":151821,"SoundDuration":151821,"Delta":26204286},{"NoteNumber":50,"Velocity":31,"Duration":121457,"SoundDuration":121457,"Delta":26325744},{"NoteNumber":69,"Velocity":53,"Duration":485830,"SoundDuration":485830,"Delta":26447201},{"NoteNumber":57,"Velocity":45,"Duration":485830,"SoundDuration":485830,"Delta":26447201},{"NoteNumber":54,"Velocity":48,"Duration":151821,"SoundDuration":151821,"Delta":26447201},{"NoteNumber":52,"Velocity":37,"Duration":151821,"SoundDuration":151821,"Delta":26568658},{"NoteNumber":54,"Velocity":40,"Duration":151821,"SoundDuration":151821,"Delta":26690116},{"NoteNumber":52,"Velocity":40,"Duration":151821,"SoundDuration":151821,"Delta":26811574},{"NoteNumber":71,"Velocity":55,"Duration":485830,"SoundDuration":485830,"Delta":26933031},{"NoteNumber":59,"Velocity":46,"Duration":485830,"SoundDuration":485830,"Delta":26933031},{"NoteNumber":56,"Velocity":50,"Duration":151821,"SoundDuration":151821,"Delta":26933031},{"NoteNumber":54,"Velocity":36,"Duration":151821,"SoundDuration":151821,"Delta":27054488},{"NoteNumber":56,"Velocity":46,"Duration":151821,"SoundDuration":151821,"Delta":27175946},{"NoteNumber":52,"Velocity":49,"Duration":121457,"SoundDuration":121457,"Delta":27297404},{"NoteNumber":73,"Velocity":62,"Duration":485830,"SoundDuration":485830,"Delta":27418861},{"NoteNumber":61,"Velocity":52,"Duration":485830,"SoundDuration":485830,"Delta":27418861},{"NoteNumber":57,"Velocity":55,"Duration":151821,"SoundDuration":151821,"Delta":27418861},{"NoteNumber":56,"Velocity":46,"Duration":151821,"SoundDuration":151821,"Delta":27540318},{"NoteNumber":57,"Velocity":47,"Duration":151821,"SoundDuration":151821,"Delta":27661776},{"NoteNumber":52,"Velocity":53,"Duration":121457,"SoundDuration":121457,"Delta":27783234},{"NoteNumber":62,"Velocity":55,"Duration":481927,"SoundDuration":481927,"Delta":27904691},{"NoteNumber":74,"Velocity":65,"Duration":481927,"SoundDuration":481927,"Delta":27904691},{"NoteNumber":59,"Velocity":62,"Duration":150602,"SoundDuration":150602,"Delta":27904691},{"NoteNumber":57,"Velocity":40,"Duration":150602,"SoundDuration":150602,"Delta":28025173},{"NoteNumber":59,"Velocity":48,"Duration":150602,"SoundDuration":150602,"Delta":28145655},{"NoteNumber":52,"Velocity":40,"Duration":120481,"SoundDuration":120481,"Delta":28266137},{"NoteNumber":73,"Velocity":58,"Duration":481927,"SoundDuration":481927,"Delta":28386619},{"NoteNumber":61,"Velocity":49,"Duration":481927,"SoundDuration":481927,"Delta":28386619},{"NoteNumber":57,"Velocity":53,"Duration":150602,"SoundDuration":150602,"Delta":28386619},{"NoteNumber":56,"Velocity":40,"Duration":150602,"SoundDuration":150602,"Delta":28507100},{"NoteNumber":57,"Velocity":46,"Duration":150602,"SoundDuration":150602,"Delta":28627582},{"NoteNumber":52,"Velocity":40,"Duration":120481,"SoundDuration":120481,"Delta":28748064},{"NoteNumber":71,"Velocity":56,"Duration":516887,"SoundDuration":516887,"Delta":28868546},{"NoteNumber":59,"Velocity":47,"Duration":516887,"SoundDuration":516887,"Delta":28868546},{"NoteNumber":56,"Velocity":47,"Duration":151821,"SoundDuration":151821,"Delta":28868546},{"NoteNumber":54,"Velocity":37,"Duration":155704,"SoundDuration":155704,"Delta":28990004},{"NoteNumber":56,"Velocity":40,"Duration":171232,"SoundDuration":171232,"Delta":29111461},{"NoteNumber":52,"Velocity":38,"Duration":136986,"SoundDuration":136986,"Delta":29248447},{"NoteNumber":76,"Velocity":63,"Duration":485830,"SoundDuration":485830,"Delta":29385433},{"NoteNumber":64,"Velocity":53,"Duration":485830,"SoundDuration":485830,"Delta":29385433},{"NoteNumber":49,"Velocity":54,"Duration":121457,"SoundDuration":121457,"Delta":29385433},{"NoteNumber":52,"Velocity":46,"Duration":121457,"SoundDuration":121457,"Delta":29506891},{"NoteNumber":58,"Velocity":46,"Duration":121457,"SoundDuration":121457,"Delta":29628348},{"NoteNumber":61,"Velocity":49,"Duration":121457,"SoundDuration":121457,"Delta":29749806},{"NoteNumber":78,"Velocity":66,"Duration":485830,"SoundDuration":485830,"Delta":29871263},{"NoteNumber":66,"Velocity":56,"Duration":485830,"SoundDuration":485830,"Delta":29871263},{"NoteNumber":59,"Velocity":54,"Duration":151821,"SoundDuration":151821,"Delta":29871263},{"NoteNumber":58,"Velocity":40,"Duration":151821,"SoundDuration":151821,"Delta":29992721},{"NoteNumber":56,"Velocity":49,"Duration":151821,"SoundDuration":151821,"Delta":30114178},{"NoteNumber":54,"Velocity":40,"Duration":121457,"SoundDuration":121457,"Delta":30235636},{"NoteNumber":64,"Velocity":55,"Duration":235293,"SoundDuration":235293,"Delta":30357093},{"NoteNumber":76,"Velocity":65,"Duration":235293,"SoundDuration":235293,"Delta":30357093},{"NoteNumber":59,"Velocity":56,"Duration":117647,"SoundDuration":117647,"Delta":30357093},{"NoteNumber":61,"Velocity":40,"Duration":117646,"SoundDuration":117646,"Delta":30474740},{"NoteNumber":75,"Velocity":53,"Duration":235293,"SoundDuration":235293,"Delta":30592387},{"NoteNumber":63,"Velocity":45,"Duration":235293,"SoundDuration":235293,"Delta":30592387},{"NoteNumber":59,"Velocity":48,"Duration":147058,"SoundDuration":147058,"Delta":30592387},{"NoteNumber":58,"Velocity":40,"Duration":147058,"SoundDuration":147058,"Delta":30710034},{"NoteNumber":73,"Velocity":55,"Duration":117647,"SoundDuration":117647,"Delta":30827681},{"NoteNumber":61,"Velocity":46,"Duration":117647,"SoundDuration":117647,"Delta":30827681},{"NoteNumber":59,"Velocity":50,"Duration":147058,"SoundDuration":147058,"Delta":30827681},{"NoteNumber":57,"Velocity":37,"Duration":150980,"SoundDuration":150980,"Delta":30945328},{"NoteNumber":59,"Velocity":42,"Duration":133333,"SoundDuration":133333,"Delta":31062975},{"NoteNumber":71,"Velocity":50,"Duration":133333,"SoundDuration":133333,"Delta":31062975},{"NoteNumber":56,"Velocity":40,"Duration":166666,"SoundDuration":166666,"Delta":31062975},{"NoteNumber":54,"Velocity":37,"Duration":133333,"SoundDuration":133333,"Delta":31196309},{"NoteNumber":74,"Velocity":57,"Duration":485830,"SoundDuration":485830,"Delta":31329642},{"NoteNumber":62,"Velocity":48,"Duration":485830,"SoundDuration":485830,"Delta":31329642},{"NoteNumber":56,"Velocity":49,"Duration":151821,"SoundDuration":151821,"Delta":31329642},{"NoteNumber":57,"Velocity":40,"Duration":151821,"SoundDuration":151821,"Delta":31451100},{"NoteNumber":59,"Velocity":42,"Duration":151821,"SoundDuration":151821,"Delta":31572557},{"NoteNumber":57,"Velocity":47,"Duration":121457,"SoundDuration":121457,"Delta":31694015},{"NoteNumber":76,"Velocity":58,"Duration":485830,"SoundDuration":485830,"Delta":31815472},{"NoteNumber":64,"Velocity":49,"Duration":485830,"SoundDuration":485830,"Delta":31815472},{"NoteNumber":56,"Velocity":51,"Duration":121457,"SoundDuration":121457,"Delta":31815472},{"NoteNumber":52,"Velocity":40,"Duration":121457,"SoundDuration":121457,"Delta":31936930},{"NoteNumber":54,"Velocity":46,"Duration":151821,"SoundDuration":151821,"Delta":32058387},{"NoteNumber":56,"Velocity":40,"Duration":150640,"SoundDuration":150640,"Delta":32179845},{"NoteNumber":62,"Velocity":52,"Duration":233463,"SoundDuration":233463,"Delta":32301302},{"NoteNumber":74,"Velocity":62,"Duration":233463,"SoundDuration":233463,"Delta":32301302},{"NoteNumber":57,"Velocity":53,"Duration":145914,"SoundDuration":145914,"Delta":32301302},{"NoteNumber":59,"Velocity":40,"Duration":145914,"SoundDuration":145914,"Delta":32418034},{"NoteNumber":73,"Velocity":57,"Duration":233463,"SoundDuration":233463,"Delta":32534765},{"NoteNumber":61,"Velocity":48,"Duration":233463,"SoundDuration":233463,"Delta":32534765},{"NoteNumber":57,"Velocity":46,"Duration":145914,"SoundDuration":145914,"Delta":32534765},{"NoteNumber":56,"Velocity":40,"Duration":145914,"SoundDuration":145914,"Delta":32651497},{"NoteNumber":59,"Velocity":42,"Duration":116731,"SoundDuration":116731,"Delta":32768228},{"NoteNumber":71,"Velocity":50,"Duration":116731,"SoundDuration":116731,"Delta":32768228},{"NoteNumber":57,"Velocity":48,"Duration":145914,"SoundDuration":145914,"Delta":32768228},{"NoteNumber":56,"Velocity":40,"Duration":149199,"SoundDuration":149199,"Delta":32884960},{"NoteNumber":61,"Velocity":42,"Duration":129870,"SoundDuration":129870,"Delta":33001691},{"NoteNumber":73,"Velocity":50,"Duration":129870,"SoundDuration":129870,"Delta":33001691},{"NoteNumber":54,"Velocity":40,"Duration":162337,"SoundDuration":162337,"Delta":33001691},{"NoteNumber":53,"Velocity":38,"Duration":129870,"SoundDuration":129870,"Delta":33131561},{"NoteNumber":62,"Velocity":42,"Duration":485830,"SoundDuration":485830,"Delta":33261432},{"NoteNumber":74,"Velocity":50,"Duration":485830,"SoundDuration":485830,"Delta":33261432},{"NoteNumber":54,"Velocity":47,"Duration":121457,"SoundDuration":121457,"Delta":33261432},{"NoteNumber":57,"Velocity":35,"Duration":121457,"SoundDuration":121457,"Delta":33382889},{"NoteNumber":56,"Velocity":40,"Duration":151821,"SoundDuration":151821,"Delta":33504347},{"NoteNumber":57,"Velocity":36,"Duration":121457,"SoundDuration":121457,"Delta":33625804},{"NoteNumber":73,"Velocity":47,"Duration":485830,"SoundDuration":485830,"Delta":33747262},{"NoteNumber":61,"Velocity":39,"Duration":485830,"SoundDuration":485830,"Delta":33747262},{"NoteNumber":52,"Velocity":47,"Duration":121457,"SoundDuration":121457,"Delta":33747262},{"NoteNumber":57,"Velocity":35,"Duration":121457,"SoundDuration":121457,"Delta":33868719},{"NoteNumber":56,"Velocity":40,"Duration":151821,"SoundDuration":151821,"Delta":33990176},{"NoteNumber":57,"Velocity":40,"Duration":121457,"SoundDuration":121457,"Delta":34111634},{"NoteNumber":59,"Velocity":42,"Duration":515021,"SoundDuration":515021,"Delta":34233092},{"NoteNumber":71,"Velocity":50,"Duration":515021,"SoundDuration":515021,"Delta":34233092},{"NoteNumber":50,"Velocity":48,"Duration":128755,"SoundDuration":128755,"Delta":34233092},{"NoteNumber":57,"Velocity":37,"Duration":128755,"SoundDuration":128755,"Delta":34361847},{"NoteNumber":56,"Velocity":40,"Duration":160944,"SoundDuration":160944,"Delta":34490602},{"NoteNumber":57,"Velocity":37,"Duration":128755,"SoundDuration":128755,"Delta":34619358},{"NoteNumber":76,"Velocity":46,"Duration":485830,"SoundDuration":485830,"Delta":34748113},{"NoteNumber":64,"Velocity":39,"Duration":485830,"SoundDuration":485830,"Delta":34748113},{"NoteNumber":49,"Velocity":47,"Duration":121457,"SoundDuration":121457,"Delta":34748113},{"NoteNumber":57,"Velocity":38,"Duration":121457,"SoundDuration":121457,"Delta":34869571},{"NoteNumber":56,"Velocity":40,"Duration":151821,"SoundDuration":151821,"Delta":34991028},{"NoteNumber":55,"Velocity":37,"Duration":121457,"SoundDuration":121457,"Delta":35112486},{"NoteNumber":74,"Velocity":55,"Duration":481927,"SoundDuration":481927,"Delta":35233943},{"NoteNumber":62,"Velocity":46,"Duration":481927,"SoundDuration":481927,"Delta":35233943},{"NoteNumber":54,"Velocity":46,"Duration":120481,"SoundDuration":120481,"Delta":35233943},{"NoteNumber":57,"Velocity":37,"Duration":120481,"SoundDuration":120481,"Delta":35354425},{"NoteNumber":56,"Velocity":40,"Duration":150602,"SoundDuration":150602,"Delta":35474907},{"NoteNumber":57,"Velocity":37,"Duration":120481,"SoundDuration":120481,"Delta":35595389},{"NoteNumber":61,"Velocity":42,"Duration":481927,"SoundDuration":481927,"Delta":35715871},{"NoteNumber":73,"Velocity":50,"Duration":481927,"SoundDuration":481927,"Delta":35715871},{"NoteNumber":52,"Velocity":47,"Duration":120481,"SoundDuration":120481,"Delta":35715871},{"NoteNumber":57,"Velocity":39,"Duration":120481,"SoundDuration":120481,"Delta":35836352},{"NoteNumber":56,"Velocity":40,"Duration":150602,"SoundDuration":150602,"Delta":35956834},{"NoteNumber":57,"Velocity":39,"Duration":120481,"SoundDuration":120481,"Delta":36077316},{"NoteNumber":71,"Velocity":54,"Duration":764374,"SoundDuration":764374,"Delta":36197798},{"NoteNumber":59,"Velocity":45,"Duration":764374,"SoundDuration":764374,"Delta":36197798},{"NoteNumber":51,"Velocity":49,"Duration":120481,"SoundDuration":120481,"Delta":36197798},{"NoteNumber":57,"Velocity":38,"Duration":120481,"SoundDuration":120481,"Delta":36318280},{"NoteNumber":56,"Velocity":40,"Duration":172811,"SoundDuration":172811,"Delta":36438762},{"NoteNumber":57,"Velocity":38,"Duration":169113,"SoundDuration":169113,"Delta":36577011},{"NoteNumber":54,"Velocity":47,"Duration":123456,"SoundDuration":123456,"Delta":36715260},{"NoteNumber":63,"Velocity":37,"Duration":123456,"SoundDuration":123456,"Delta":36838716},{"NoteNumber":71,"Velocity":50,"Duration":246913,"SoundDuration":246913,"Delta":36962173},{"NoteNumber":57,"Velocity":40,"Duration":123456,"SoundDuration":123456,"Delta":36962173},{"NoteNumber":54,"Velocity":35,"Duration":123456,"SoundDuration":123456,"Delta":37085630},{"NoteNumber":70,"Velocity":58,"Duration":240963,"SoundDuration":240963,"Delta":37209087},{"NoteNumber":56,"Velocity":48,"Duration":120481,"SoundDuration":120481,"Delta":37209087},{"NoteNumber":52,"Velocity":40,"Duration":120481,"SoundDuration":120481,"Delta":37329568},{"NoteNumber":68,"Velocity":52,"Duration":240963,"SoundDuration":240963,"Delta":37450050},{"NoteNumber":71,"Velocity":62,"Duration":240963,"SoundDuration":240963,"Delta":37450050},{"NoteNumber":50,"Velocity":41,"Duration":120481,"SoundDuration":120481,"Delta":37450050},{"NoteNumber":52,"Velocity":45,"Duration":120481,"SoundDuration":120481,"Delta":37570532},{"NoteNumber":69,"Velocity":54,"Duration":240963,"SoundDuration":240963,"Delta":37691014},{"NoteNumber":73,"Velocity":64,"Duration":240963,"SoundDuration":240963,"Delta":37691014},{"NoteNumber":49,"Velocity":54,"Duration":120481,"SoundDuration":120481,"Delta":37691014},{"NoteNumber":52,"Velocity":45,"Duration":120481,"SoundDuration":120481,"Delta":37811496},{"NoteNumber":71,"Velocity":58,"Duration":240963,"SoundDuration":240963,"Delta":37931978},{"NoteNumber":74,"Velocity":69,"Duration":240963,"SoundDuration":240963,"Delta":37931978},{"NoteNumber":47,"Velocity":52,"Duration":120481,"SoundDuration":120481,"Delta":37931978},{"NoteNumber":52,"Velocity":55,"Duration":120481,"SoundDuration":120481,"Delta":38052460},{"NoteNumber":78,"Velocity":71,"Duration":239043,"SoundDuration":239043,"Delta":38172942},{"NoteNumber":74,"Velocity":60,"Duration":239043,"SoundDuration":239043,"Delta":38172942},{"NoteNumber":44,"Velocity":59,"Duration":119521,"SoundDuration":119521,"Delta":38172942},{"NoteNumber":52,"Velocity":45,"Duration":119521,"SoundDuration":119521,"Delta":38292463},{"NoteNumber":73,"Velocity":60,"Duration":239043,"SoundDuration":239043,"Delta":38411985},{"NoteNumber":76,"Velocity":72,"Duration":239043,"SoundDuration":239043,"Delta":38411985},{"NoteNumber":45,"Velocity":52,"Duration":119521,"SoundDuration":119521,"Delta":38411985},{"NoteNumber":54,"Velocity":46,"Duration":119521,"SoundDuration":119521,"Delta":38531507},{"NoteNumber":74,"Velocity":66,"Duration":248962,"SoundDuration":248962,"Delta":38651029},{"NoteNumber":71,"Velocity":56,"Duration":248962,"SoundDuration":248962,"Delta":38651029},{"NoteNumber":47,"Velocity":53,"Duration":124481,"SoundDuration":124481,"Delta":38651029},{"NoteNumber":56,"Velocity":40,"Duration":124481,"SoundDuration":124481,"Delta":38775510},{"NoteNumber":73,"Velocity":64,"Duration":276497,"SoundDuration":276497,"Delta":38899992},{"NoteNumber":69,"Velocity":54,"Duration":276497,"SoundDuration":276497,"Delta":38899992},{"NoteNumber":49,"Velocity":46,"Duration":138248,"SoundDuration":138248,"Delta":38899992},{"NoteNumber":57,"Velocity":40,"Duration":138248,"SoundDuration":138248,"Delta":39038241},{"NoteNumber":76,"Velocity":64,"Duration":237154,"SoundDuration":237154,"Delta":39176490},{"NoteNumber":73,"Velocity":54,"Duration":237154,"SoundDuration":237154,"Delta":39176490},{"NoteNumber":50,"Velocity":47,"Duration":118577,"SoundDuration":118577,"Delta":39176490},{"NoteNumber":54,"Velocity":40,"Duration":118577,"SoundDuration":118577,"Delta":39295067},{"NoteNumber":74,"Velocity":52,"Duration":237154,"SoundDuration":237154,"Delta":39413644},{"NoteNumber":58,"Velocity":40,"Duration":148221,"SoundDuration":148221,"Delta":39413644},{"NoteNumber":59,"Velocity":46,"Duration":150492,"SoundDuration":150492,"Delta":39532221},{"NoteNumber":66,"Velocity":57,"Duration":255319,"SoundDuration":255319,"Delta":39650798},{"NoteNumber":52,"Velocity":51,"Duration":159574,"SoundDuration":159574,"Delta":39650798},{"NoteNumber":59,"Velocity":40,"Duration":127659,"SoundDuration":127659,"Delta":39778458},{"NoteNumber":68,"Velocity":60,"Duration":788055,"SoundDuration":788055,"Delta":39906117},{"NoteNumber":62,"Velocity":43,"Duration":140845,"SoundDuration":140845,"Delta":39906117},{"NoteNumber":64,"Velocity":40,"Duration":140845,"SoundDuration":140845,"Delta":40046962},{"NoteNumber":71,"Velocity":70,"Duration":506365,"SoundDuration":506365,"Delta":40187808},{"NoteNumber":57,"Velocity":57,"Duration":127659,"SoundDuration":127659,"Delta":40187808},{"NoteNumber":62,"Velocity":40,"Duration":127659,"SoundDuration":127659,"Delta":40315467},{"NoteNumber":64,"Velocity":45,"Duration":125523,"SoundDuration":125523,"Delta":40443127},{"NoteNumber":62,"Velocity":40,"Duration":125523,"SoundDuration":125523,"Delta":40568650},{"NoteNumber":69,"Velocity":58,"Duration":1497942,"SoundDuration":1497942,"Delta":40694173},{"NoteNumber":61,"Velocity":52,"Duration":125523,"SoundDuration":125523,"Delta":40694173},{"NoteNumber":59,"Velocity":34,"Duration":156903,"SoundDuration":156903,"Delta":40819696},{"NoteNumber":57,"Velocity":40,"Duration":156903,"SoundDuration":156903,"Delta":40945219},{"NoteNumber":59,"Velocity":34,"Duration":156643,"SoundDuration":156643,"Delta":41070742},{"NoteNumber":61,"Velocity":46,"Duration":155601,"SoundDuration":155601,"Delta":41196265},{"NoteNumber":62,"Velocity":34,"Duration":155601,"SoundDuration":155601,"Delta":41320746},{"NoteNumber":64,"Velocity":36,"Duration":155601,"SoundDuration":155601,"Delta":41445227},{"NoteNumber":66,"Velocity":34,"Duration":155601,"SoundDuration":155601,"Delta":41569709},{"NoteNumber":67,"Velocity":40,"Duration":155601,"SoundDuration":155601,"Delta":41694190},{"NoteNumber":66,"Velocity":30,"Duration":155601,"SoundDuration":155601,"Delta":41818672},{"NoteNumber":67,"Velocity":33,"Duration":155601,"SoundDuration":155601,"Delta":41943153},{"NoteNumber":65,"Velocity":30,"Duration":155601,"SoundDuration":155601,"Delta":42067634},{"NoteNumber":66,"Velocity":40,"Duration":155601,"SoundDuration":155601,"Delta":42192116},{"NoteNumber":65,"Velocity":31,"Duration":155601,"SoundDuration":155601,"Delta":42316597},{"NoteNumber":66,"Velocity":35,"Duration":155601,"SoundDuration":155601,"Delta":42441078},{"NoteNumber":62,"Velocity":30,"Duration":155601,"SoundDuration":155601,"Delta":42565560},{"NoteNumber":65,"Velocity":40,"Duration":155601,"SoundDuration":155601,"Delta":42690041},{"NoteNumber":64,"Velocity":31,"Duration":156396,"SoundDuration":156396,"Delta":42814523},{"NoteNumber":65,"Velocity":34,"Duration":159574,"SoundDuration":159574,"Delta":42939004},{"NoteNumber":62,"Velocity":31,"Duration":127659,"SoundDuration":127659,"Delta":43066664},{"NoteNumber":61,"Velocity":40,"Duration":155601,"SoundDuration":155601,"Delta":43194323},{"NoteNumber":60,"Velocity":32,"Duration":155601,"SoundDuration":155601,"Delta":43318805},{"NoteNumber":61,"Velocity":35,"Duration":155601,"SoundDuration":155601,"Delta":43443286},{"NoteNumber":57,"Velocity":30,"Duration":155601,"SoundDuration":155601,"Delta":43567767},{"NoteNumber":55,"Velocity":40,"Duration":155601,"SoundDuration":155601,"Delta":43692249},{"NoteNumber":54,"Velocity":30,"Duration":159692,"SoundDuration":159692,"Delta":43816730},{"NoteNumber":55,"Velocity":34,"Duration":176056,"SoundDuration":176056,"Delta":43941211},{"NoteNumber":52,"Velocity":30,"Duration":140845,"SoundDuration":140845,"Delta":44082057},{"NoteNumber":72,"Velocity":65,"Duration":478894,"SoundDuration":478894,"Delta":44222902},{"NoteNumber":69,"Velocity":55,"Duration":478894,"SoundDuration":478894,"Delta":44222902},{"NoteNumber":66,"Velocity":55,"Duration":478894,"SoundDuration":478894,"Delta":44222902},{"NoteNumber":60,"Velocity":55,"Duration":478894,"SoundDuration":478894,"Delta":44222902},{"NoteNumber":50,"Velocity":42,"Duration":156903,"SoundDuration":156903,"Delta":44222902},{"NoteNumber":54,"Velocity":37,"Duration":157168,"SoundDuration":157168,"Delta":44348425},{"NoteNumber":57,"Velocity":43,"Duration":158227,"SoundDuration":158227,"Delta":44473948},{"NoteNumber":55,"Velocity":40,"Duration":158227,"SoundDuration":158227,"Delta":44600530},{"NoteNumber":72,"Velocity":63,"Duration":530861,"SoundDuration":530861,"Delta":44727112},{"NoteNumber":69,"Velocity":53,"Duration":530861,"SoundDuration":530861,"Delta":44727112},{"NoteNumber":66,"Velocity":53,"Duration":530861,"SoundDuration":530861,"Delta":44727112},{"NoteNumber":60,"Velocity":53,"Duration":530861,"SoundDuration":530861,"Delta":44727112},{"NoteNumber":54,"Velocity":46,"Duration":158227,"SoundDuration":158227,"Delta":44727112},{"NoteNumber":55,"Velocity":41,"Duration":162127,"SoundDuration":162127,"Delta":44853694},{"NoteNumber":54,"Velocity":46,"Duration":177725,"SoundDuration":177725,"Delta":44980277},{"NoteNumber":52,"Velocity":41,"Duration":135517,"SoundDuration":135517,"Delta":45122457},{"NoteNumber":59,"Velocity":59,"Duration":1020355,"SoundDuration":1020355,"Delta":45257974},{"NoteNumber":66,"Velocity":59,"Duration":1020355,"SoundDuration":1020355,"Delta":45257974},{"NoteNumber":69,"Velocity":59,"Duration":1020355,"SoundDuration":1020355,"Delta":45257974},{"NoteNumber":71,"Velocity":70,"Duration":1020355,"SoundDuration":1020355,"Delta":45257974},{"NoteNumber":51,"Velocity":50,"Duration":155967,"SoundDuration":155967,"Delta":45257974},{"NoteNumber":54,"Velocity":39,"Duration":153870,"SoundDuration":153870,"Delta":45382872},{"NoteNumber":57,"Velocity":46,"Duration":151779,"SoundDuration":151779,"Delta":45506131},{"NoteNumber":55,"Velocity":42,"Duration":151236,"SoundDuration":151236,"Delta":45627790},{"NoteNumber":54,"Velocity":46,"Duration":152715,"SoundDuration":152715,"Delta":45748662},{"NoteNumber":55,"Velocity":42,"Duration":158800,"SoundDuration":158800,"Delta":45870714},{"NoteNumber":54,"Velocity":46,"Duration":177725,"SoundDuration":177725,"Delta":45993969},{"NoteNumber":52,"Velocity":43,"Duration":142180,"SoundDuration":142180,"Delta":46136150},{"NoteNumber":72,"Velocity":71,"Duration":476987,"SoundDuration":476987,"Delta":46278330},{"NoteNumber":69,"Velocity":60,"Duration":476987,"SoundDuration":476987,"Delta":46278330},{"NoteNumber":66,"Velocity":60,"Duration":476987,"SoundDuration":476987,"Delta":46278330},{"NoteNumber":60,"Velocity":60,"Duration":476987,"SoundDuration":476987,"Delta":46278330},{"NoteNumber":51,"Velocity":46,"Duration":156903,"SoundDuration":156903,"Delta":46278330},{"NoteNumber":54,"Velocity":40,"Duration":156903,"SoundDuration":156903,"Delta":46403853},{"NoteNumber":57,"Velocity":47,"Duration":156903,"SoundDuration":156903,"Delta":46529376},{"NoteNumber":55,"Velocity":44,"Duration":156903,"SoundDuration":156903,"Delta":46654899},{"NoteNumber":72,"Velocity":69,"Duration":530115,"SoundDuration":530115,"Delta":46780422},{"NoteNumber":69,"Velocity":58,"Duration":530115,"SoundDuration":530115,"Delta":46780422},{"NoteNumber":66,"Velocity":58,"Duration":530115,"SoundDuration":530115,"Delta":46780422},{"NoteNumber":60,"Velocity":58,"Duration":530115,"SoundDuration":530115,"Delta":46780422},{"NoteNumber":54,"Velocity":50,"Duration":156903,"SoundDuration":156903,"Delta":46780422},{"NoteNumber":55,"Velocity":45,"Duration":160406,"SoundDuration":160406,"Delta":46905945},{"NoteNumber":54,"Velocity":50,"Duration":174418,"SoundDuration":174418,"Delta":47031468},{"NoteNumber":52,"Velocity":45,"Duration":139534,"SoundDuration":139534,"Delta":47171003},{"NoteNumber":59,"Velocity":64,"Duration":1033789,"SoundDuration":1033789,"Delta":47310537},{"NoteNumber":66,"Velocity":64,"Duration":1033789,"SoundDuration":1033789,"Delta":47310537},{"NoteNumber":69,"Velocity":64,"Duration":1033789,"SoundDuration":1033789,"Delta":47310537},{"NoteNumber":71,"Velocity":77,"Duration":1033789,"SoundDuration":1033789,"Delta":47310537},{"NoteNumber":51,"Velocity":55,"Duration":158174,"SoundDuration":158174,"Delta":47310537},{"NoteNumber":54,"Velocity":42,"Duration":157115,"SoundDuration":157115,"Delta":47437120},{"NoteNumber":57,"Velocity":50,"Duration":156018,"SoundDuration":156018,"Delta":47562855},{"NoteNumber":55,"Velocity":46,"Duration":154935,"SoundDuration":154935,"Delta":47687753},{"NoteNumber":54,"Velocity":50,"Duration":154782,"SoundDuration":154782,"Delta":47811824},{"NoteNumber":55,"Velocity":46,"Duration":160026,"SoundDuration":160026,"Delta":47935486},{"NoteNumber":54,"Velocity":50,"Duration":177725,"SoundDuration":177725,"Delta":48059967},{"NoteNumber":53,"Velocity":47,"Duration":142180,"SoundDuration":142180,"Delta":48202147},{"NoteNumber":74,"Velocity":78,"Duration":485106,"SoundDuration":485106,"Delta":48344327},{"NoteNumber":71,"Velocity":66,"Duration":485106,"SoundDuration":485106,"Delta":48344327},{"NoteNumber":68,"Velocity":66,"Duration":485106,"SoundDuration":485106,"Delta":48344327},{"NoteNumber":62,"Velocity":66,"Duration":485106,"SoundDuration":485106,"Delta":48344327},{"NoteNumber":52,"Velocity":50,"Duration":159574,"SoundDuration":159574,"Delta":48344327},{"NoteNumber":56,"Velocity":44,"Duration":159574,"SoundDuration":159574,"Delta":48471987},{"NoteNumber":59,"Velocity":51,"Duration":159574,"SoundDuration":159574,"Delta":48599647},{"NoteNumber":57,"Velocity":48,"Duration":159574,"SoundDuration":159574,"Delta":48727306},{"NoteNumber":74,"Velocity":75,"Duration":542400,"SoundDuration":542400,"Delta":48854966},{"NoteNumber":71,"Velocity":63,"Duration":542400,"SoundDuration":542400,"Delta":48854966},{"NoteNumber":68,"Velocity":63,"Duration":542400,"SoundDuration":542400,"Delta":48854966},{"NoteNumber":62,"Velocity":63,"Duration":542400,"SoundDuration":542400,"Delta":48854966},{"NoteNumber":56,"Velocity":55,"Duration":159574,"SoundDuration":159574,"Delta":48854966},{"NoteNumber":57,"Velocity":49,"Duration":163544,"SoundDuration":163544,"Delta":48982626},{"NoteNumber":56,"Velocity":55,"Duration":179425,"SoundDuration":179425,"Delta":49110285},{"NoteNumber":54,"Velocity":49,"Duration":143540,"SoundDuration":143540,"Delta":49253826},{"NoteNumber":61,"Velocity":70,"Duration":1019604,"SoundDuration":1019604,"Delta":49397366},{"NoteNumber":68,"Velocity":70,"Duration":1019604,"SoundDuration":1019604,"Delta":49397366},{"NoteNumber":71,"Velocity":70,"Duration":1019604,"SoundDuration":1019604,"Delta":49397366},{"NoteNumber":73,"Velocity":84,"Duration":1019604,"SoundDuration":1019604,"Delta":49397366},{"NoteNumber":53,"Velocity":60,"Duration":160944,"SoundDuration":160944,"Delta":49397366},{"NoteNumber":56,"Velocity":46,"Duration":160670,"SoundDuration":160670,"Delta":49526122},{"NoteNumber":59,"Velocity":55,"Duration":159520,"SoundDuration":159520,"Delta":49654877},{"NoteNumber":57,"Velocity":50,"Duration":158443,"SoundDuration":158443,"Delta":49782537},{"NoteNumber":56,"Velocity":55,"Duration":157380,"SoundDuration":157380,"Delta":49909334},{"NoteNumber":57,"Velocity":50,"Duration":158285,"SoundDuration":158285,"Delta":50035281},{"NoteNumber":56,"Velocity":55,"Duration":159574,"SoundDuration":159574,"Delta":50161652},{"NoteNumber":54,"Velocity":51,"Duration":127659,"SoundDuration":127659,"Delta":50289311},{"NoteNumber":74,"Velocity":85,"Duration":513783,"SoundDuration":513783,"Delta":50416971},{"NoteNumber":71,"Velocity":72,"Duration":513783,"SoundDuration":513783,"Delta":50416971},{"NoteNumber":68,"Velocity":72,"Duration":513783,"SoundDuration":513783,"Delta":50416971},{"NoteNumber":62,"Velocity":72,"Duration":513783,"SoundDuration":513783,"Delta":50416971},{"NoteNumber":53,"Velocity":55,"Duration":178856,"SoundDuration":178856,"Delta":50416971},{"NoteNumber":56,"Velocity":48,"Duration":167186,"SoundDuration":167186,"Delta":50560511},{"NoteNumber":59,"Velocity":56,"Duration":163755,"SoundDuration":163755,"Delta":50694946},{"NoteNumber":57,"Velocity":52,"Duration":163755,"SoundDuration":163755,"Delta":50825951},{"NoteNumber":74,"Velocity":82,"Duration":549089,"SoundDuration":549089,"Delta":50956955},{"NoteNumber":71,"Velocity":69,"Duration":549089,"SoundDuration":549089,"Delta":50956955},{"NoteNumber":68,"Velocity":69,"Duration":549089,"SoundDuration":549089,"Delta":50956955},{"NoteNumber":62,"Velocity":69,"Duration":549089,"SoundDuration":549089,"Delta":50956955},{"NoteNumber":56,"Velocity":60,"Duration":163755,"SoundDuration":163755,"Delta":50956955},{"NoteNumber":57,"Velocity":53,"Duration":166889,"SoundDuration":166889,"Delta":51087960},{"NoteNumber":56,"Velocity":60,"Duration":179425,"SoundDuration":179425,"Delta":51218964},{"NoteNumber":54,"Velocity":53,"Duration":143540,"SoundDuration":143540,"Delta":51362505},{"NoteNumber":61,"Velocity":77,"Duration":1026450,"SoundDuration":1026450,"Delta":51506045},{"NoteNumber":68,"Velocity":77,"Duration":1026450,"SoundDuration":1026450,"Delta":51506045},{"NoteNumber":71,"Velocity":77,"Duration":1026450,"SoundDuration":1026450,"Delta":51506045},{"NoteNumber":73,"Velocity":92,"Duration":1026450,"SoundDuration":1026450,"Delta":51506045},{"NoteNumber":53,"Velocity":66,"Duration":164274,"SoundDuration":164274,"Delta":51506045},{"NoteNumber":56,"Velocity":50,"Duration":164164,"SoundDuration":164164,"Delta":51637280},{"NoteNumber":65,"Velocity":60,"Duration":160843,"SoundDuration":160843,"Delta":51768977},{"NoteNumber":62,"Velocity":55,"Duration":157494,"SoundDuration":157494,"Delta":51897960},{"NoteNumber":61,"Velocity":60,"Duration":156070,"SoundDuration":156070,"Delta":52024334},{"NoteNumber":62,"Velocity":55,"Duration":157861,"SoundDuration":157861,"Delta":52149023},{"NoteNumber":61,"Velocity":60,"Duration":160123,"SoundDuration":160123,"Delta":52274970},{"NoteNumber":59,"Velocity":56,"Duration":129647,"SoundDuration":129647,"Delta":52402849},{"NoteNumber":78,"Velocity":89,"Duration":493642,"SoundDuration":493642,"Delta":52532496},{"NoteNumber":58,"Velocity":66,"Duration":164736,"SoundDuration":164736,"Delta":52532496},{"NoteNumber":61,"Velocity":50,"Duration":164073,"SoundDuration":164073,"Delta":52664193},{"NoteNumber":66,"Velocity":60,"Duration":159574,"SoundDuration":159574,"Delta":52796351},{"NoteNumber":64,"Velocity":55,"Duration":159574,"SoundDuration":159574,"Delta":52924011},{"NoteNumber":78,"Velocity":81,"Duration":545174,"SoundDuration":545174,"Delta":53051671},{"NoteNumber":66,"Velocity":68,"Duration":545174,"SoundDuration":545174,"Delta":53051671},{"NoteNumber":62,"Velocity":60,"Duration":159574,"SoundDuration":159574,"Delta":53051671},{"NoteNumber":64,"Velocity":55,"Duration":163891,"SoundDuration":163891,"Delta":53179330},{"NoteNumber":62,"Velocity":60,"Duration":181159,"SoundDuration":181159,"Delta":53306990},{"NoteNumber":61,"Velocity":56,"Duration":144927,"SoundDuration":144927,"Delta":53451917},{"NoteNumber":67,"Velocity":78,"Duration":510638,"SoundDuration":510638,"Delta":53596845},{"NoteNumber":78,"Velocity":94,"Duration":510638,"SoundDuration":510638,"Delta":53596845},{"NoteNumber":59,"Velocity":60,"Duration":159574,"SoundDuration":159574,"Delta":53596845},{"NoteNumber":61,"Velocity":55,"Duration":159574,"SoundDuration":159574,"Delta":53724505},{"NoteNumber":59,"Velocity":60,"Duration":159574,"SoundDuration":159574,"Delta":53852164},{"NoteNumber":61,"Velocity":55,"Duration":159574,"SoundDuration":159574,"Delta":53979824},{"NoteNumber":76,"Velocity":74,"Duration":513692,"SoundDuration":513692,"Delta":54107483},{"NoteNumber":68,"Velocity":62,"Duration":513692,"SoundDuration":513692,"Delta":54107483},{"NoteNumber":62,"Velocity":60,"Duration":159574,"SoundDuration":159574,"Delta":54107483},{"NoteNumber":59,"Velocity":52,"Duration":127659,"SoundDuration":127659,"Delta":54235143},{"NoteNumber":64,"Velocity":63,"Duration":179425,"SoundDuration":179425,"Delta":54362803},{"NoteNumber":62,"Velocity":56,"Duration":175729,"SoundDuration":175729,"Delta":54506343},{"NoteNumber":76,"Velocity":85,"Duration":515021,"SoundDuration":515021,"Delta":54649884},{"NoteNumber":69,"Velocity":72,"Duration":515021,"SoundDuration":515021,"Delta":54649884},{"NoteNumber":61,"Velocity":58,"Duration":160944,"SoundDuration":160944,"Delta":54649884},{"NoteNumber":59,"Velocity":57,"Duration":160944,"SoundDuration":160944,"Delta":54778639},{"NoteNumber":57,"Velocity":54,"Duration":160944,"SoundDuration":160944,"Delta":54907395},{"NoteNumber":55,"Velocity":49,"Duration":160944,"SoundDuration":160944,"Delta":55036150},{"NoteNumber":74,"Velocity":77,"Duration":257510,"SoundDuration":257510,"Delta":55164905},{"NoteNumber":70,"Velocity":65,"Duration":515021,"SoundDuration":515021,"Delta":55164905},{"NoteNumber":54,"Velocity":62,"Duration":160944,"SoundDuration":160944,"Delta":55164905},{"NoteNumber":52,"Velocity":51,"Duration":160944,"SoundDuration":160944,"Delta":55293661},{"NoteNumber":73,"Velocity":71,"Duration":257510,"SoundDuration":257510,"Delta":55422416},{"NoteNumber":54,"Velocity":61,"Duration":160944,"SoundDuration":160944,"Delta":55422416},{"NoteNumber":52,"Velocity":54,"Duration":128755,"SoundDuration":128755,"Delta":55551172},{"NoteNumber":71,"Velocity":78,"Duration":255319,"SoundDuration":255319,"Delta":55679927},{"NoteNumber":50,"Velocity":60,"Duration":159574,"SoundDuration":159574,"Delta":55679927},{"NoteNumber":49,"Velocity":50,"Duration":159574,"SoundDuration":159574,"Delta":55807587},{"NoteNumber":73,"Velocity":78,"Duration":255319,"SoundDuration":255319,"Delta":55935246},{"NoteNumber":69,"Velocity":66,"Duration":255319,"SoundDuration":255319,"Delta":55935246},{"NoteNumber":50,"Velocity":60,"Duration":159574,"SoundDuration":159574,"Delta":55935246},{"NoteNumber":49,"Velocity":51,"Duration":160127,"SoundDuration":160127,"Delta":56062906},{"NoteNumber":68,"Velocity":69,"Duration":259740,"SoundDuration":259740,"Delta":56190565},{"NoteNumber":74,"Velocity":82,"Duration":544100,"SoundDuration":544100,"Delta":56190565},{"NoteNumber":47,"Velocity":60,"Duration":162337,"SoundDuration":162337,"Delta":56190565},{"NoteNumber":45,"Velocity":55,"Duration":165415,"SoundDuration":165415,"Delta":56320436},{"NoteNumber":66,"Velocity":62,"Duration":284360,"SoundDuration":284360,"Delta":56450306},{"NoteNumber":47,"Velocity":60,"Duration":177725,"SoundDuration":177725,"Delta":56450306},{"NoteNumber":44,"Velocity":51,"Duration":142180,"SoundDuration":142180,"Delta":56592486},{"NoteNumber":65,"Velocity":68,"Duration":519174,"SoundDuration":519174,"Delta":56734666},{"NoteNumber":73,"Velocity":89,"Duration":493642,"SoundDuration":493642,"Delta":56734666},{"NoteNumber":49,"Velocity":66,"Duration":164736,"SoundDuration":164736,"Delta":56734666},{"NoteNumber":56,"Velocity":50,"Duration":164073,"SoundDuration":164073,"Delta":56866363},{"NoteNumber":61,"Velocity":60,"Duration":200000,"SoundDuration":200000,"Delta":56998521},{"NoteNumber":59,"Velocity":55,"Duration":200000,"SoundDuration":200000,"Delta":57126181},{"NoteNumber":73,"Velocity":81,"Duration":545174,"SoundDuration":545174,"Delta":57253841},{"NoteNumber":61,"Velocity":68,"Duration":545174,"SoundDuration":545174,"Delta":57253841},{"NoteNumber":57,"Velocity":60,"Duration":200000,"SoundDuration":200000,"Delta":57253841},{"NoteNumber":56,"Velocity":55,"Duration":209785,"SoundDuration":209785,"Delta":57381500},{"NoteNumber":57,"Velocity":60,"Duration":227053,"SoundDuration":227053,"Delta":57509160},{"NoteNumber":56,"Velocity":56,"Duration":144927,"SoundDuration":144927,"Delta":57654087},{"NoteNumber":62,"Velocity":78,"Duration":510638,"SoundDuration":510638,"Delta":57799015},{"NoteNumber":73,"Velocity":94,"Duration":510638,"SoundDuration":510638,"Delta":57799015},{"NoteNumber":54,"Velocity":60,"Duration":159574,"SoundDuration":159574,"Delta":57799015},{"NoteNumber":56,"Velocity":55,"Duration":159574,"SoundDuration":159574,"Delta":57926675},{"NoteNumber":54,"Velocity":60,"Duration":159574,"SoundDuration":159574,"Delta":58054334},{"NoteNumber":56,"Velocity":55,"Duration":159574,"SoundDuration":159574,"Delta":58181994},{"NoteNumber":71,"Velocity":74,"Duration":513692,"SoundDuration":513692,"Delta":58309653},{"NoteNumber":63,"Velocity":62,"Duration":513692,"SoundDuration":513692,"Delta":58309653},{"NoteNumber":57,"Velocity":60,"Duration":159574,"SoundDuration":159574,"Delta":58309653},{"NoteNumber":54,"Velocity":52,"Duration":127659,"SoundDuration":127659,"Delta":58437313},{"NoteNumber":59,"Velocity":63,"Duration":179425,"SoundDuration":179425,"Delta":58564973},{"NoteNumber":57,"Velocity":56,"Duration":175729,"SoundDuration":175729,"Delta":58708513},{"NoteNumber":71,"Velocity":85,"Duration":515021,"SoundDuration":515021,"Delta":58852054},{"NoteNumber":64,"Velocity":72,"Duration":515021,"SoundDuration":515021,"Delta":58852054},{"NoteNumber":56,"Velocity":58,"Duration":160944,"SoundDuration":160944,"Delta":58852054},{"NoteNumber":54,"Velocity":57,"Duration":160944,"SoundDuration":160944,"Delta":58980809},{"NoteNumber":52,"Velocity":54,"Duration":160944,"SoundDuration":160944,"Delta":59109565},{"NoteNumber":50,"Velocity":49,"Duration":160944,"SoundDuration":160944,"Delta":59238320},{"NoteNumber":69,"Velocity":77,"Duration":257510,"SoundDuration":257510,"Delta":59367075},{"NoteNumber":65,"Velocity":65,"Duration":515021,"SoundDuration":515021,"Delta":59367075},{"NoteNumber":49,"Velocity":62,"Duration":160944,"SoundDuration":160944,"Delta":59367075},{"NoteNumber":47,"Velocity":51,"Duration":160944,"SoundDuration":160944,"Delta":59495831},{"NoteNumber":68,"Velocity":71,"Duration":257510,"SoundDuration":257510,"Delta":59624586},{"NoteNumber":49,"Velocity":61,"Duration":160944,"SoundDuration":160944,"Delta":59624586},{"NoteNumber":47,"Velocity":54,"Duration":128755,"SoundDuration":128755,"Delta":59753342},{"NoteNumber":66,"Velocity":78,"Duration":255319,"SoundDuration":255319,"Delta":59882097},{"NoteNumber":45,"Velocity":60,"Duration":127659,"SoundDuration":127659,"Delta":59882097},{"NoteNumber":49,"Velocity":50,"Duration":127659,"SoundDuration":127659,"Delta":60009757},{"NoteNumber":68,"Velocity":78,"Duration":255319,"SoundDuration":255319,"Delta":60137416},{"NoteNumber":64,"Velocity":66,"Duration":255319,"SoundDuration":255319,"Delta":60137416},{"NoteNumber":57,"Velocity":60,"Duration":159574,"SoundDuration":159574,"Delta":60137416},{"NoteNumber":56,"Velocity":51,"Duration":160127,"SoundDuration":160127,"Delta":60265076},{"NoteNumber":62,"Velocity":69,"Duration":259740,"SoundDuration":259740,"Delta":60392735},{"NoteNumber":69,"Velocity":82,"Duration":544100,"SoundDuration":544100,"Delta":60392735},{"NoteNumber":54,"Velocity":60,"Duration":162337,"SoundDuration":162337,"Delta":60392735},{"NoteNumber":52,"Velocity":55,"Duration":165415,"SoundDuration":165415,"Delta":60522606},{"NoteNumber":61,"Velocity":62,"Duration":284360,"SoundDuration":284360,"Delta":60652476},{"NoteNumber":54,"Velocity":60,"Duration":177725,"SoundDuration":177725,"Delta":60652476},{"NoteNumber":52,"Velocity":51,"Duration":142180,"SoundDuration":142180,"Delta":60794656},{"NoteNumber":69,"Velocity":85,"Duration":513783,"SoundDuration":513783,"Delta":60936836},{"NoteNumber":66,"Velocity":72,"Duration":513783,"SoundDuration":513783,"Delta":60936836},{"NoteNumber":62,"Velocity":72,"Duration":513783,"SoundDuration":513783,"Delta":60936836},{"NoteNumber":50,"Velocity":55,"Duration":143540,"SoundDuration":143540,"Delta":60936836},{"NoteNumber":54,"Velocity":48,"Duration":134435,"SoundDuration":134435,"Delta":61080377},{"NoteNumber":57,"Velocity":56,"Duration":131004,"SoundDuration":131004,"Delta":61214812},{"NoteNumber":56,"Velocity":52,"Duration":131004,"SoundDuration":131004,"Delta":61345816},{"NoteNumber":71,"Velocity":82,"Duration":549089,"SoundDuration":549089,"Delta":61476820},{"NoteNumber":66,"Velocity":69,"Duration":549089,"SoundDuration":549089,"Delta":61476820},{"NoteNumber":62,"Velocity":69,"Duration":549089,"SoundDuration":549089,"Delta":61476820},{"NoteNumber":59,"Velocity":69,"Duration":549089,"SoundDuration":549089,"Delta":61476820},{"NoteNumber":54,"Velocity":60,"Duration":131004,"SoundDuration":131004,"Delta":61476820},{"NoteNumber":53,"Velocity":53,"Duration":131004,"SoundDuration":131004,"Delta":61607825},{"NoteNumber":54,"Velocity":60,"Duration":143540,"SoundDuration":143540,"Delta":61738829},{"NoteNumber":50,"Velocity":53,"Duration":143540,"SoundDuration":143540,"Delta":61882370},{"NoteNumber":61,"Velocity":77,"Duration":1026450,"SoundDuration":1026450,"Delta":62025910},{"NoteNumber":66,"Velocity":77,"Duration":1026450,"SoundDuration":1026450,"Delta":62025910},{"NoteNumber":69,"Velocity":77,"Duration":1026450,"SoundDuration":1026450,"Delta":62025910},{"NoteNumber":73,"Velocity":92,"Duration":1026450,"SoundDuration":1026450,"Delta":62025910},{"NoteNumber":49,"Velocity":66,"Duration":131235,"SoundDuration":131235,"Delta":62025910},{"NoteNumber":54,"Velocity":50,"Duration":131696,"SoundDuration":131696,"Delta":62157146},{"NoteNumber":57,"Velocity":60,"Duration":128982,"SoundDuration":128982,"Delta":62288843},{"NoteNumber":56,"Velocity":55,"Duration":126374,"SoundDuration":126374,"Delta":62417825},{"NoteNumber":54,"Velocity":60,"Duration":156070,"SoundDuration":156070,"Delta":62544199},{"NoteNumber":53,"Velocity":55,"Duration":157861,"SoundDuration":157861,"Delta":62668888},{"NoteNumber":54,"Velocity":60,"Duration":160123,"SoundDuration":160123,"Delta":62794835},{"NoteNumber":49,"Velocity":56,"Duration":129647,"SoundDuration":129647,"Delta":62922714},{"NoteNumber":69,"Velocity":86,"Duration":513783,"SoundDuration":513783,"Delta":63052361},{"NoteNumber":66,"Velocity":73,"Duration":513783,"SoundDuration":513783,"Delta":63052361},{"NoteNumber":62,"Velocity":73,"Duration":513783,"SoundDuration":513783,"Delta":63052361},{"NoteNumber":50,"Velocity":56,"Duration":143540,"SoundDuration":143540,"Delta":63052361},{"NoteNumber":54,"Velocity":48,"Duration":134435,"SoundDuration":134435,"Delta":63195902},{"NoteNumber":57,"Velocity":57,"Duration":131004,"SoundDuration":131004,"Delta":63330337},{"NoteNumber":56,"Velocity":53,"Duration":131004,"SoundDuration":131004,"Delta":63461341},{"NoteNumber":71,"Velocity":83,"Duration":549089,"SoundDuration":549089,"Delta":63592345},{"NoteNumber":66,"Velocity":70,"Duration":549089,"SoundDuration":549089,"Delta":63592345},{"NoteNumber":62,"Velocity":70,"Duration":549089,"SoundDuration":549089,"Delta":63592345},{"NoteNumber":59,"Velocity":70,"Duration":549089,"SoundDuration":549089,"Delta":63592345},{"NoteNumber":54,"Velocity":61,"Duration":131004,"SoundDuration":131004,"Delta":63592345},{"NoteNumber":53,"Velocity":54,"Duration":131004,"SoundDuration":131004,"Delta":63723350},{"NoteNumber":54,"Velocity":61,"Duration":143540,"SoundDuration":143540,"Delta":63854354},{"NoteNumber":50,"Velocity":54,"Duration":143540,"SoundDuration":143540,"Delta":63997895},{"NoteNumber":61,"Velocity":78,"Duration":1026450,"SoundDuration":1026450,"Delta":64141435},{"NoteNumber":66,"Velocity":78,"Duration":1026450,"SoundDuration":1026450,"Delta":64141435},{"NoteNumber":69,"Velocity":78,"Duration":1026450,"SoundDuration":1026450,"Delta":64141435},{"NoteNumber":73,"Velocity":93,"Duration":1026450,"SoundDuration":1026450,"Delta":64141435},{"NoteNumber":49,"Velocity":67,"Duration":131235,"SoundDuration":131235,"Delta":64141435},{"NoteNumber":54,"Velocity":51,"Duration":131696,"SoundDuration":131696,"Delta":64272671},{"NoteNumber":57,"Velocity":61,"Duration":128982,"SoundDuration":128982,"Delta":64404368},{"NoteNumber":56,"Velocity":56,"Duration":126374,"SoundDuration":126374,"Delta":64533350},{"NoteNumber":54,"Velocity":61,"Duration":156070,"SoundDuration":156070,"Delta":64659724},{"NoteNumber":53,"Velocity":56,"Duration":157861,"SoundDuration":157861,"Delta":64784413},{"NoteNumber":54,"Velocity":61,"Duration":160123,"SoundDuration":160123,"Delta":64910360},{"NoteNumber":49,"Velocity":57,"Duration":129647,"SoundDuration":129647,"Delta":65038239},{"NoteNumber":69,"Velocity":86,"Duration":526823,"SoundDuration":526823,"Delta":65167886},{"NoteNumber":66,"Velocity":73,"Duration":526823,"SoundDuration":526823,"Delta":65167886},{"NoteNumber":62,"Velocity":73,"Duration":526823,"SoundDuration":526823,"Delta":65167886},{"NoteNumber":50,"Velocity":56,"Duration":143540,"SoundDuration":143540,"Delta":65167886},{"NoteNumber":54,"Velocity":48,"Duration":134435,"SoundDuration":134435,"Delta":65311427},{"NoteNumber":57,"Velocity":58,"Duration":138248,"SoundDuration":138248,"Delta":65445862},{"NoteNumber":56,"Velocity":55,"Duration":138248,"SoundDuration":138248,"Delta":65584111},{"NoteNumber":71,"Velocity":88,"Duration":627601,"SoundDuration":627601,"Delta":65722359},{"NoteNumber":66,"Velocity":74,"Duration":627601,"SoundDuration":627601,"Delta":65722359},{"NoteNumber":62,"Velocity":74,"Duration":627601,"SoundDuration":627601,"Delta":65722359},{"NoteNumber":59,"Velocity":74,"Duration":627601,"SoundDuration":627601,"Delta":65722359},{"NoteNumber":54,"Velocity":65,"Duration":138248,"SoundDuration":138248,"Delta":65722359},{"NoteNumber":53,"Velocity":58,"Duration":138248,"SoundDuration":138248,"Delta":65860608},{"NoteNumber":54,"Velocity":67,"Duration":149761,"SoundDuration":149761,"Delta":65998857},{"NoteNumber":50,"Velocity":61,"Duration":201342,"SoundDuration":201342,"Delta":66148619},{"NoteNumber":61,"Velocity":89,"Duration":3122328,"SoundDuration":3122328,"Delta":66349961},{"NoteNumber":66,"Velocity":89,"Duration":3122328,"SoundDuration":3122328,"Delta":66349961},{"NoteNumber":69,"Velocity":89,"Duration":3122328,"SoundDuration":3122328,"Delta":66349961},{"NoteNumber":73,"Velocity":106,"Duration":3122328,"SoundDuration":3122328,"Delta":66349961},{"NoteNumber":49,"Velocity":77,"Duration":134529,"SoundDuration":134529,"Delta":66349961},{"NoteNumber":54,"Velocity":58,"Duration":133333,"SoundDuration":133333,"Delta":66484490},{"NoteNumber":57,"Velocity":68,"Duration":129897,"SoundDuration":129897,"Delta":66617824},{"NoteNumber":56,"Velocity":61,"Duration":126374,"SoundDuration":126374,"Delta":66747721},{"NoteNumber":54,"Velocity":65,"Duration":156070,"SoundDuration":156070,"Delta":66874095},{"NoteNumber":53,"Velocity":59,"Duration":157861,"SoundDuration":157861,"Delta":66998785},{"NoteNumber":54,"Velocity":63,"Duration":160123,"SoundDuration":160123,"Delta":67124732},{"NoteNumber":50,"Velocity":58,"Duration":129647,"SoundDuration":129647,"Delta":67252611},{"NoteNumber":49,"Velocity":56,"Duration":137964,"SoundDuration":137964,"Delta":67382258},{"NoteNumber":54,"Velocity":47,"Duration":128755,"SoundDuration":128755,"Delta":67520222},{"NoteNumber":57,"Velocity":55,"Duration":127732,"SoundDuration":127732,"Delta":67648978},{"NoteNumber":56,"Velocity":50,"Duration":126654,"SoundDuration":126654,"Delta":67776710},{"NoteNumber":54,"Velocity":56,"Duration":125805,"SoundDuration":125805,"Delta":67903364},{"NoteNumber":53,"Velocity":49,"Duration":124898,"SoundDuration":124898,"Delta":68029170},{"NoteNumber":54,"Velocity":54,"Duration":126658,"SoundDuration":126658,"Delta":68154068},{"NoteNumber":50,"Velocity":46,"Duration":129428,"SoundDuration":129428,"Delta":68280727},{"NoteNumber":49,"Velocity":53,"Duration":133190,"SoundDuration":133190,"Delta":68410155},{"NoteNumber":54,"Velocity":37,"Duration":131470,"SoundDuration":131470,"Delta":68543346},{"NoteNumber":57,"Velocity":45,"Duration":128543,"SoundDuration":128543,"Delta":68674816},{"NoteNumber":56,"Velocity":34,"Duration":125051,"SoundDuration":125051,"Delta":68803359},{"NoteNumber":54,"Velocity":40,"Duration":159994,"SoundDuration":159994,"Delta":68928411},{"NoteNumber":53,"Velocity":34,"Duration":167126,"SoundDuration":167126,"Delta":69055730},{"NoteNumber":54,"Velocity":37,"Duration":174924,"SoundDuration":174924,"Delta":69188693},{"NoteNumber":50,"Velocity":35,"Duration":144466,"SoundDuration":144466,"Delta":69327823},{"NoteNumber":66,"Velocity":46,"Duration":481927,"SoundDuration":481927,"Delta":69472290},{"NoteNumber":54,"Velocity":36,"Duration":120481,"SoundDuration":120481,"Delta":69472290},{"NoteNumber":50,"Velocity":29,"Duration":120481,"SoundDuration":120481,"Delta":69592772},{"NoteNumber":49,"Velocity":35,"Duration":150602,"SoundDuration":150602,"Delta":69713254},{"NoteNumber":50,"Velocity":28,"Duration":120481,"SoundDuration":120481,"Delta":69833736},{"NoteNumber":55,"Velocity":35,"Duration":481927,"SoundDuration":481927,"Delta":69954217},{"NoteNumber":67,"Velocity":42,"Duration":481927,"SoundDuration":481927,"Delta":69954217},{"NoteNumber":52,"Velocity":34,"Duration":120481,"SoundDuration":120481,"Delta":69954217},{"NoteNumber":50,"Velocity":28,"Duration":120481,"SoundDuration":120481,"Delta":70074699},{"NoteNumber":49,"Velocity":36,"Duration":150602,"SoundDuration":150602,"Delta":70195181},{"NoteNumber":50,"Velocity":33,"Duration":120481,"SoundDuration":120481,"Delta":70315663},{"NoteNumber":69,"Velocity":51,"Duration":483941,"SoundDuration":483941,"Delta":70436145},{"NoteNumber":57,"Velocity":43,"Duration":483941,"SoundDuration":483941,"Delta":70436145},{"NoteNumber":54,"Velocity":40,"Duration":122449,"SoundDuration":122449,"Delta":70436145},{"NoteNumber":50,"Velocity":29,"Duration":122449,"SoundDuration":122449,"Delta":70558594},{"NoteNumber":49,"Velocity":34,"Duration":149402,"SoundDuration":149402,"Delta":70681043},{"NoteNumber":50,"Velocity":43,"Duration":119521,"SoundDuration":119521,"Delta":70800565},{"NoteNumber":59,"Velocity":45,"Duration":478087,"SoundDuration":478087,"Delta":70920087},{"NoteNumber":71,"Velocity":54,"Duration":478087,"SoundDuration":478087,"Delta":70920087},{"NoteNumber":43,"Velocity":50,"Duration":119521,"SoundDuration":119521,"Delta":70920087},{"NoteNumber":50,"Velocity":39,"Duration":119521,"SoundDuration":119521,"Delta":71039609},{"NoteNumber":49,"Velocity":40,"Duration":149402,"SoundDuration":149402,"Delta":71159130},{"NoteNumber":50,"Velocity":39,"Duration":119521,"SoundDuration":119521,"Delta":71278652},{"NoteNumber":69,"Velocity":48,"Duration":478087,"SoundDuration":478087,"Delta":71398174},{"NoteNumber":57,"Velocity":40,"Duration":478087,"SoundDuration":478087,"Delta":71398174},{"NoteNumber":42,"Velocity":43,"Duration":119521,"SoundDuration":119521,"Delta":71398174},{"NoteNumber":50,"Velocity":34,"Duration":119521,"SoundDuration":119521,"Delta":71517696},{"NoteNumber":49,"Velocity":39,"Duration":149402,"SoundDuration":149402,"Delta":71637218},{"NoteNumber":50,"Velocity":34,"Duration":119521,"SoundDuration":119521,"Delta":71756740},{"NoteNumber":55,"Velocity":35,"Duration":515629,"SoundDuration":515629,"Delta":71876262},{"NoteNumber":67,"Velocity":42,"Duration":515629,"SoundDuration":515629,"Delta":71876262},{"NoteNumber":40,"Velocity":45,"Duration":124481,"SoundDuration":124481,"Delta":71876262},{"NoteNumber":50,"Velocity":34,"Duration":124481,"SoundDuration":124481,"Delta":72000743},{"NoteNumber":49,"Velocity":38,"Duration":166666,"SoundDuration":166666,"Delta":72125224},{"NoteNumber":50,"Velocity":34,"Duration":133333,"SoundDuration":133333,"Delta":72258558},{"NoteNumber":66,"Velocity":47,"Duration":988451,"SoundDuration":988451,"Delta":72391891},{"NoteNumber":54,"Velocity":39,"Duration":988451,"SoundDuration":988451,"Delta":72391891},{"NoteNumber":38,"Velocity":47,"Duration":121457,"SoundDuration":121457,"Delta":72391891},{"NoteNumber":50,"Velocity":31,"Duration":121457,"SoundDuration":121457,"Delta":72513349},{"NoteNumber":49,"Velocity":34,"Duration":151821,"SoundDuration":151821,"Delta":72634806},{"NoteNumber":50,"Velocity":30,"Duration":151821,"SoundDuration":151821,"Delta":72756264},{"NoteNumber":49,"Velocity":39,"Duration":151821,"SoundDuration":151821,"Delta":72877721},{"NoteNumber":50,"Velocity":29,"Duration":151821,"SoundDuration":151821,"Delta":72999179},{"NoteNumber":49,"Velocity":34,"Duration":156019,"SoundDuration":156019,"Delta":73120636},{"NoteNumber":50,"Velocity":31,"Duration":138248,"SoundDuration":138248,"Delta":73242094},{"NoteNumber":66,"Velocity":53,"Duration":481927,"SoundDuration":481927,"Delta":73380343},{"NoteNumber":54,"Velocity":45,"Duration":481927,"SoundDuration":481927,"Delta":73380343},{"NoteNumber":38,"Velocity":48,"Duration":150602,"SoundDuration":150602,"Delta":73380343},{"NoteNumber":48,"Velocity":37,"Duration":150602,"SoundDuration":150602,"Delta":73500824},{"NoteNumber":47,"Velocity":40,"Duration":150602,"SoundDuration":150602,"Delta":73621306},{"NoteNumber":48,"Velocity":40,"Duration":150602,"SoundDuration":150602,"Delta":73741788},{"NoteNumber":67,"Velocity":55,"Duration":483878,"SoundDuration":483878,"Delta":73862270},{"NoteNumber":55,"Velocity":46,"Duration":483878,"SoundDuration":483878,"Delta":73862270},{"NoteNumber":40,"Velocity":50,"Duration":150602,"SoundDuration":150602,"Delta":73862270},{"NoteNumber":48,"Velocity":36,"Duration":150846,"SoundDuration":150846,"Delta":73982752},{"NoteNumber":47,"Velocity":46,"Duration":151821,"SoundDuration":151821,"Delta":74103234},{"NoteNumber":48,"Velocity":49,"Duration":121457,"SoundDuration":121457,"Delta":74224691},{"NoteNumber":69,"Velocity":62,"Duration":477188,"SoundDuration":477188,"Delta":74346149},{"NoteNumber":57,"Velocity":52,"Duration":477188,"SoundDuration":477188,"Delta":74346149},{"NoteNumber":42,"Velocity":55,"Duration":151101,"SoundDuration":151101,"Delta":74346149},{"NoteNumber":48,"Velocity":46,"Duration":148221,"SoundDuration":148221,"Delta":74467606},{"NoteNumber":47,"Velocity":47,"Duration":148221,"SoundDuration":148221,"Delta":74586183},{"NoteNumber":48,"Velocity":53,"Duration":118577,"SoundDuration":118577,"Delta":74704761},{"NoteNumber":59,"Velocity":55,"Duration":481927,"SoundDuration":481927,"Delta":74823338},{"NoteNumber":71,"Velocity":65,"Duration":481927,"SoundDuration":481927,"Delta":74823338},{"NoteNumber":43,"Velocity":62,"Duration":150602,"SoundDuration":150602,"Delta":74823338},{"NoteNumber":47,"Velocity":50,"Duration":150602,"SoundDuration":150602,"Delta":74943820},{"NoteNumber":45,"Velocity":55,"Duration":150602,"SoundDuration":150602,"Delta":75064301},{"NoteNumber":47,"Velocity":50,"Duration":120481,"SoundDuration":120481,"Delta":75184783},{"NoteNumber":72,"Velocity":77,"Duration":481927,"SoundDuration":481927,"Delta":75305265},{"NoteNumber":60,"Velocity":65,"Duration":481927,"SoundDuration":481927,"Delta":75305265},{"NoteNumber":43,"Velocity":60,"Duration":150602,"SoundDuration":150602,"Delta":75305265},{"NoteNumber":45,"Velocity":51,"Duration":150602,"SoundDuration":150602,"Delta":75425747},{"NoteNumber":43,"Velocity":57,"Duration":150602,"SoundDuration":150602,"Delta":75546229},{"NoteNumber":45,"Velocity":53,"Duration":120481,"SoundDuration":120481,"Delta":75666711},{"NoteNumber":74,"Velocity":73,"Duration":516887,"SoundDuration":516887,"Delta":75787193},{"NoteNumber":62,"Velocity":62,"Duration":516887,"SoundDuration":516887,"Delta":75787193},{"NoteNumber":42,"Velocity":62,"Duration":151821,"SoundDuration":151821,"Delta":75787193},{"NoteNumber":43,"Velocity":51,"Duration":155704,"SoundDuration":155704,"Delta":75908650},{"NoteNumber":40,"Velocity":54,"Duration":171232,"SoundDuration":171232,"Delta":76030108},{"NoteNumber":42,"Velocity":50,"Duration":136986,"SoundDuration":136986,"Delta":76167094},{"NoteNumber":71,"Velocity":82,"Duration":987654,"SoundDuration":987654,"Delta":76304080},{"NoteNumber":59,"Velocity":65,"Duration":2931862,"SoundDuration":2931862,"Delta":76304080},{"NoteNumber":39,"Velocity":64,"Duration":123456,"SoundDuration":123456,"Delta":76304080},{"NoteNumber":42,"Velocity":53,"Duration":123456,"SoundDuration":123456,"Delta":76427537},{"NoteNumber":47,"Velocity":55,"Duration":123456,"SoundDuration":123456,"Delta":76550994},{"NoteNumber":49,"Velocity":54,"Duration":123456,"SoundDuration":123456,"Delta":76674450},{"NoteNumber":51,"Velocity":61,"Duration":148148,"SoundDuration":148148,"Delta":76797907},{"NoteNumber":52,"Velocity":47,"Duration":148148,"SoundDuration":148148,"Delta":76921364},{"NoteNumber":54,"Velocity":57,"Duration":148148,"SoundDuration":148148,"Delta":77044821},{"NoteNumber":52,"Velocity":47,"Duration":147748,"SoundDuration":147748,"Delta":77168277},{"NoteNumber":69,"Velocity":72,"Duration":485830,"SoundDuration":485830,"Delta":77291734},{"NoteNumber":51,"Velocity":61,"Duration":145748,"SoundDuration":145748,"Delta":77291734},{"NoteNumber":52,"Velocity":50,"Duration":145748,"SoundDuration":145748,"Delta":77413192},{"NoteNumber":51,"Velocity":54,"Duration":145749,"SoundDuration":145749,"Delta":77534649},{"NoteNumber":49,"Velocity":51,"Duration":145748,"SoundDuration":145748,"Delta":77656107},{"NoteNumber":71,"Velocity":75,"Duration":485829,"SoundDuration":485829,"Delta":77777564},{"NoteNumber":51,"Velocity":61,"Duration":145748,"SoundDuration":145748,"Delta":77777564},{"NoteNumber":47,"Velocity":52,"Duration":145748,"SoundDuration":145748,"Delta":77899022},{"NoteNumber":49,"Velocity":54,"Duration":145748,"SoundDuration":145748,"Delta":78020479},{"NoteNumber":51,"Velocity":53,"Duration":121457,"SoundDuration":121457,"Delta":78141937},{"NoteNumber":69,"Velocity":74,"Duration":235293,"SoundDuration":235293,"Delta":78263394},{"NoteNumber":52,"Velocity":62,"Duration":141176,"SoundDuration":141176,"Delta":78263394},{"NoteNumber":54,"Velocity":48,"Duration":141176,"SoundDuration":141176,"Delta":78381041},{"NoteNumber":68,"Velocity":60,"Duration":235294,"SoundDuration":235294,"Delta":78498688},{"NoteNumber":52,"Velocity":54,"Duration":141176,"SoundDuration":141176,"Delta":78498688},{"NoteNumber":51,"Velocity":49,"Duration":117647,"SoundDuration":117647,"Delta":78616335},{"NoteNumber":66,"Velocity":63,"Duration":117646,"SoundDuration":117646,"Delta":78733982},{"NoteNumber":52,"Velocity":54,"Duration":141176,"SoundDuration":141176,"Delta":78733982},{"NoteNumber":50,"Velocity":50,"Duration":144313,"SoundDuration":144313,"Delta":78851629},{"NoteNumber":64,"Velocity":57,"Duration":133333,"SoundDuration":133333,"Delta":78969276},{"NoteNumber":49,"Velocity":54,"Duration":160000,"SoundDuration":160000,"Delta":78969276},{"NoteNumber":47,"Velocity":52,"Duration":133333,"SoundDuration":133333,"Delta":79102610},{"NoteNumber":57,"Velocity":63,"Duration":1944208,"SoundDuration":1944208,"Delta":79235943},{"NoteNumber":67,"Velocity":72,"Duration":485830,"SoundDuration":485830,"Delta":79235943},{"NoteNumber":49,"Velocity":61,"Duration":145748,"SoundDuration":145748,"Delta":79235943},{"NoteNumber":50,"Velocity":50,"Duration":145748,"SoundDuration":145748,"Delta":79357400},{"NoteNumber":52,"Velocity":54,"Duration":145749,"SoundDuration":145749,"Delta":79478858},{"NoteNumber":50,"Velocity":51,"Duration":145748,"SoundDuration":145748,"Delta":79600315},{"NoteNumber":69,"Velocity":75,"Duration":485829,"SoundDuration":485829,"Delta":79721773},{"NoteNumber":49,"Velocity":61,"Duration":145748,"SoundDuration":145748,"Delta":79721773},{"NoteNumber":45,"Velocity":52,"Duration":145748,"SoundDuration":145748,"Delta":79843230},{"NoteNumber":47,"Velocity":54,"Duration":145748,"SoundDuration":145748,"Delta":79964688},{"NoteNumber":49,"Velocity":53,"Duration":121457,"SoundDuration":121457,"Delta":80086145},{"NoteNumber":67,"Velocity":74,"Duration":235293,"SoundDuration":235293,"Delta":80207603},{"NoteNumber":52,"Velocity":62,"Duration":141176,"SoundDuration":141176,"Delta":80207603},{"NoteNumber":50,"Velocity":48,"Duration":141176,"SoundDuration":141176,"Delta":80325250},{"NoteNumber":66,"Velocity":60,"Duration":235294,"SoundDuration":235294,"Delta":80442897},{"NoteNumber":49,"Velocity":54,"Duration":141176,"SoundDuration":141176,"Delta":80442897},{"NoteNumber":50,"Velocity":49,"Duration":117647,"SoundDuration":117647,"Delta":80560544},{"NoteNumber":64,"Velocity":63,"Duration":117646,"SoundDuration":117646,"Delta":80678191},{"NoteNumber":49,"Velocity":54,"Duration":141176,"SoundDuration":141176,"Delta":80678191},{"NoteNumber":50,"Velocity":50,"Duration":144313,"SoundDuration":144313,"Delta":80795838},{"NoteNumber":66,"Velocity":57,"Duration":133333,"SoundDuration":133333,"Delta":80913485},{"NoteNumber":48,"Velocity":54,"Duration":160000,"SoundDuration":160000,"Delta":80913485},{"NoteNumber":50,"Velocity":52,"Duration":133333,"SoundDuration":133333,"Delta":81046818},{"NoteNumber":62,"Velocity":42,"Duration":485830,"SoundDuration":485830,"Delta":81180152},{"NoteNumber":67,"Velocity":50,"Duration":485830,"SoundDuration":485830,"Delta":81180152},{"NoteNumber":47,"Velocity":47,"Duration":121457,"SoundDuration":121457,"Delta":81180152},{"NoteNumber":50,"Velocity":35,"Duration":121457,"SoundDuration":121457,"Delta":81301609},{"NoteNumber":46,"Velocity":40,"Duration":151821,"SoundDuration":151821,"Delta":81423067},{"NoteNumber":50,"Velocity":36,"Duration":121457,"SoundDuration":121457,"Delta":81544524},{"NoteNumber":66,"Velocity":47,"Duration":485829,"SoundDuration":485829,"Delta":81665982},{"NoteNumber":57,"Velocity":39,"Duration":485829,"SoundDuration":485829,"Delta":81665982},{"NoteNumber":45,"Velocity":47,"Duration":121457,"SoundDuration":121457,"Delta":81665982},{"NoteNumber":50,"Velocity":35,"Duration":121457,"SoundDuration":121457,"Delta":81787439},{"NoteNumber":38,"Velocity":40,"Duration":151821,"SoundDuration":151821,"Delta":81908897},{"NoteNumber":50,"Velocity":40,"Duration":121457,"SoundDuration":121457,"Delta":82030354},{"NoteNumber":59,"Velocity":42,"Duration":257510,"SoundDuration":257510,"Delta":82151812},{"NoteNumber":64,"Velocity":50,"Duration":515021,"SoundDuration":515021,"Delta":82151812},{"NoteNumber":44,"Velocity":48,"Duration":128755,"SoundDuration":128755,"Delta":82151812},{"NoteNumber":50,"Velocity":37,"Duration":128755,"SoundDuration":128755,"Delta":82280567},{"NoteNumber":61,"Velocity":42,"Duration":257510,"SoundDuration":257510,"Delta":82409322},{"NoteNumber":43,"Velocity":40,"Duration":160944,"SoundDuration":160944,"Delta":82409322},{"NoteNumber":50,"Velocity":37,"Duration":128755,"SoundDuration":128755,"Delta":82538078},{"NoteNumber":69,"Velocity":46,"Duration":485830,"SoundDuration":485830,"Delta":82666833},{"NoteNumber":62,"Velocity":39,"Duration":485830,"SoundDuration":485830,"Delta":82666833},{"NoteNumber":42,"Velocity":47,"Duration":121457,"SoundDuration":121457,"Delta":82666833},{"NoteNumber":50,"Velocity":38,"Duration":121457,"SoundDuration":121457,"Delta":82788291},{"NoteNumber":38,"Velocity":40,"Duration":151821,"SoundDuration":151821,"Delta":82909748},{"NoteNumber":50,"Velocity":37,"Duration":121457,"SoundDuration":121457,"Delta":83031206},{"NoteNumber":67,"Velocity":55,"Duration":481927,"SoundDuration":481927,"Delta":83152663},{"NoteNumber":62,"Velocity":46,"Duration":481927,"SoundDuration":481927,"Delta":83152663},{"NoteNumber":47,"Velocity":46,"Duration":120481,"SoundDuration":120481,"Delta":83152663},{"NoteNumber":50,"Velocity":37,"Duration":120481,"SoundDuration":120481,"Delta":83273145},{"NoteNumber":46,"Velocity":40,"Duration":150602,"SoundDuration":150602,"Delta":83393627},{"NoteNumber":50,"Velocity":37,"Duration":120481,"SoundDuration":120481,"Delta":83514109},{"NoteNumber":57,"Velocity":42,"Duration":481927,"SoundDuration":481927,"Delta":83634591},{"NoteNumber":66,"Velocity":50,"Duration":481927,"SoundDuration":481927,"Delta":83634591},{"NoteNumber":45,"Velocity":47,"Duration":120481,"SoundDuration":120481,"Delta":83634591},{"NoteNumber":50,"Velocity":39,"Duration":120481,"SoundDuration":120481,"Delta":83755073},{"NoteNumber":38,"Velocity":40,"Duration":150602,"SoundDuration":150602,"Delta":83875554},{"NoteNumber":50,"Velocity":39,"Duration":120481,"SoundDuration":120481,"Delta":83996036},{"NoteNumber":64,"Velocity":54,"Duration":726602,"SoundDuration":726602,"Delta":84116518},{"NoteNumber":59,"Velocity":45,"Duration":732775,"SoundDuration":732775,"Delta":84116518},{"NoteNumber":44,"Velocity":49,"Duration":120481,"SoundDuration":120481,"Delta":84116518},{"NoteNumber":47,"Velocity":38,"Duration":120481,"SoundDuration":120481,"Delta":84237000},{"NoteNumber":50,"Velocity":40,"Duration":153061,"SoundDuration":153061,"Delta":84357482},{"NoteNumber":49,"Velocity":38,"Duration":153313,"SoundDuration":153313,"Delta":84479931},{"NoteNumber":47,"Velocity":47,"Duration":123456,"SoundDuration":123456,"Delta":84602380},{"NoteNumber":56,"Velocity":37,"Duration":123456,"SoundDuration":123456,"Delta":84725837},{"NoteNumber":64,"Velocity":50,"Duration":246913,"SoundDuration":246913,"Delta":84849293},{"NoteNumber":50,"Velocity":40,"Duration":123456,"SoundDuration":123456,"Delta":84849293},{"NoteNumber":47,"Velocity":35,"Duration":123456,"SoundDuration":123456,"Delta":84972750},{"NoteNumber":63,"Velocity":58,"Duration":240963,"SoundDuration":240963,"Delta":85096207},{"NoteNumber":49,"Velocity":48,"Duration":120481,"SoundDuration":120481,"Delta":85096207},{"NoteNumber":52,"Velocity":40,"Duration":120481,"SoundDuration":120481,"Delta":85216689},{"NoteNumber":61,"Velocity":52,"Duration":240963,"SoundDuration":240963,"Delta":85337171},{"NoteNumber":64,"Velocity":62,"Duration":240963,"SoundDuration":240963,"Delta":85337171},{"NoteNumber":55,"Velocity":41,"Duration":120481,"SoundDuration":120481,"Delta":85337171},{"NoteNumber":57,"Velocity":45,"Duration":120481,"SoundDuration":120481,"Delta":85457653},{"NoteNumber":62,"Velocity":54,"Duration":240963,"SoundDuration":240963,"Delta":85578134},{"NoteNumber":66,"Velocity":64,"Duration":240963,"SoundDuration":240963,"Delta":85578134},{"NoteNumber":54,"Velocity":54,"Duration":120481,"SoundDuration":120481,"Delta":85578134},{"NoteNumber":57,"Velocity":45,"Duration":120481,"SoundDuration":120481,"Delta":85698616},{"NoteNumber":64,"Velocity":58,"Duration":240963,"SoundDuration":240963,"Delta":85819098},{"NoteNumber":67,"Velocity":69,"Duration":240963,"SoundDuration":240963,"Delta":85819098},{"NoteNumber":52,"Velocity":52,"Duration":120481,"SoundDuration":120481,"Delta":85819098},{"NoteNumber":57,"Velocity":55,"Duration":120481,"SoundDuration":120481,"Delta":85939580},{"NoteNumber":71,"Velocity":71,"Duration":239043,"SoundDuration":239043,"Delta":86060062},{"NoteNumber":67,"Velocity":60,"Duration":239043,"SoundDuration":239043,"Delta":86060062},{"NoteNumber":49,"Velocity":59,"Duration":119521,"SoundDuration":119521,"Delta":86060062},{"NoteNumber":57,"Velocity":45,"Duration":119521,"SoundDuration":119521,"Delta":86179584},{"NoteNumber":66,"Velocity":60,"Duration":239043,"SoundDuration":239043,"Delta":86299106},{"NoteNumber":69,"Velocity":72,"Duration":239043,"SoundDuration":239043,"Delta":86299106},{"NoteNumber":50,"Velocity":52,"Duration":119521,"SoundDuration":119521,"Delta":86299106},{"NoteNumber":59,"Velocity":46,"Duration":119521,"SoundDuration":119521,"Delta":86418628},{"NoteNumber":67,"Velocity":66,"Duration":242914,"SoundDuration":242914,"Delta":86538149},{"NoteNumber":64,"Velocity":56,"Duration":242914,"SoundDuration":242914,"Delta":86538149},{"NoteNumber":52,"Velocity":53,"Duration":121457,"SoundDuration":121457,"Delta":86538149},{"NoteNumber":61,"Velocity":40,"Duration":121457,"SoundDuration":121457,"Delta":86659607},{"NoteNumber":66,"Velocity":64,"Duration":253616,"SoundDuration":253616,"Delta":86781064},{"NoteNumber":54,"Velocity":46,"Duration":121457,"SoundDuration":121457,"Delta":86781064},{"NoteNumber":62,"Velocity":40,"Duration":132158,"SoundDuration":132158,"Delta":86902522},{"NoteNumber":69,"Velocity":64,"Duration":237154,"SoundDuration":237154,"Delta":87034681},{"NoteNumber":66,"Velocity":54,"Duration":237154,"SoundDuration":237154,"Delta":87034681},{"NoteNumber":55,"Velocity":47,"Duration":118577,"SoundDuration":118577,"Delta":87034681},{"NoteNumber":59,"Velocity":40,"Duration":118577,"SoundDuration":118577,"Delta":87153258},{"NoteNumber":67,"Velocity":52,"Duration":237154,"SoundDuration":237154,"Delta":87271835},{"NoteNumber":64,"Velocity":40,"Duration":118577,"SoundDuration":118577,"Delta":87271835},{"NoteNumber":59,"Velocity":46,"Duration":150492,"SoundDuration":150492,"Delta":87390412},{"NoteNumber":64,"Velocity":57,"Duration":255319,"SoundDuration":255319,"Delta":87508989},{"NoteNumber":55,"Velocity":51,"Duration":127659,"SoundDuration":127659,"Delta":87508989},{"NoteNumber":57,"Velocity":40,"Duration":127659,"SoundDuration":127659,"Delta":87636649},{"NoteNumber":61,"Velocity":60,"Duration":281690,"SoundDuration":281690,"Delta":87764308},{"NoteNumber":55,"Velocity":43,"Duration":140845,"SoundDuration":140845,"Delta":87764308},{"NoteNumber":57,"Velocity":40,"Duration":140845,"SoundDuration":140845,"Delta":87905153},{"NoteNumber":69,"Velocity":63,"Duration":730792,"SoundDuration":730792,"Delta":88045999},{"NoteNumber":54,"Velocity":53,"Duration":120481,"SoundDuration":120481,"Delta":88045999},{"NoteNumber":57,"Velocity":41,"Duration":120481,"SoundDuration":120481,"Delta":88166480},{"NoteNumber":61,"Velocity":44,"Duration":151821,"SoundDuration":151821,"Delta":88286962},{"NoteNumber":62,"Velocity":41,"Duration":152321,"SoundDuration":152321,"Delta":88408420},{"NoteNumber":66,"Velocity":51,"Duration":123456,"SoundDuration":123456,"Delta":88529877},{"NoteNumber":62,"Velocity":40,"Duration":123456,"SoundDuration":123456,"Delta":88653334},{"NoteNumber":78,"Velocity":55,"Duration":246913,"SoundDuration":246913,"Delta":88776791},{"NoteNumber":59,"Velocity":44,"Duration":123456,"SoundDuration":123456,"Delta":88776791},{"NoteNumber":57,"Velocity":38,"Duration":123456,"SoundDuration":123456,"Delta":88900248},{"NoteNumber":75,"Velocity":63,"Duration":240963,"SoundDuration":240963,"Delta":89023704},{"NoteNumber":55,"Velocity":52,"Duration":120481,"SoundDuration":120481,"Delta":89023704},{"NoteNumber":57,"Velocity":44,"Duration":120481,"SoundDuration":120481,"Delta":89144186},{"NoteNumber":73,"Velocity":57,"Duration":240963,"SoundDuration":240963,"Delta":89264668},{"NoteNumber":76,"Velocity":68,"Duration":240963,"SoundDuration":240963,"Delta":89264668},{"NoteNumber":55,"Velocity":45,"Duration":120481,"SoundDuration":120481,"Delta":89264668},{"NoteNumber":57,"Velocity":49,"Duration":120481,"SoundDuration":120481,"Delta":89385150},{"NoteNumber":74,"Velocity":59,"Duration":240963,"SoundDuration":240963,"Delta":89505632},{"NoteNumber":78,"Velocity":70,"Duration":240963,"SoundDuration":240963,"Delta":89505632},{"NoteNumber":54,"Velocity":59,"Duration":120481,"SoundDuration":120481,"Delta":89505632},{"NoteNumber":57,"Velocity":49,"Duration":120481,"SoundDuration":120481,"Delta":89626114},{"NoteNumber":76,"Velocity":63,"Duration":240963,"SoundDuration":240963,"Delta":89746596},{"NoteNumber":79,"Velocity":75,"Duration":240963,"SoundDuration":240963,"Delta":89746596},{"NoteNumber":52,"Velocity":57,"Duration":120481,"SoundDuration":120481,"Delta":89746596},{"NoteNumber":57,"Velocity":60,"Duration":120481,"SoundDuration":120481,"Delta":89867077},{"NoteNumber":83,"Velocity":78,"Duration":239043,"SoundDuration":239043,"Delta":89987559},{"NoteNumber":79,"Velocity":66,"Duration":239043,"SoundDuration":239043,"Delta":89987559},{"NoteNumber":49,"Velocity":64,"Duration":119521,"SoundDuration":119521,"Delta":89987559},{"NoteNumber":57,"Velocity":49,"Duration":119521,"SoundDuration":119521,"Delta":90107081},{"NoteNumber":78,"Velocity":66,"Duration":239043,"SoundDuration":239043,"Delta":90226603},{"NoteNumber":81,"Velocity":79,"Duration":239043,"SoundDuration":239043,"Delta":90226603},{"NoteNumber":50,"Velocity":57,"Duration":119521,"SoundDuration":119521,"Delta":90226603},{"NoteNumber":59,"Velocity":50,"Duration":119521,"SoundDuration":119521,"Delta":90346125},{"NoteNumber":79,"Velocity":72,"Duration":242914,"SoundDuration":242914,"Delta":90465647},{"NoteNumber":76,"Velocity":61,"Duration":242914,"SoundDuration":242914,"Delta":90465647},{"NoteNumber":52,"Velocity":58,"Duration":121457,"SoundDuration":121457,"Delta":90465647},{"NoteNumber":61,"Velocity":44,"Duration":121457,"SoundDuration":121457,"Delta":90587104},{"NoteNumber":74,"Velocity":67,"Duration":253616,"SoundDuration":253616,"Delta":90708562},{"NoteNumber":78,"Velocity":70,"Duration":253616,"SoundDuration":253616,"Delta":90708562},{"NoteNumber":54,"Velocity":50,"Duration":121457,"SoundDuration":121457,"Delta":90708562},{"NoteNumber":62,"Velocity":44,"Duration":132158,"SoundDuration":132158,"Delta":90830019},{"NoteNumber":76,"Velocity":70,"Duration":237154,"SoundDuration":237154,"Delta":90962178},{"NoteNumber":73,"Velocity":59,"Duration":237154,"SoundDuration":237154,"Delta":90962178},{"NoteNumber":55,"Velocity":51,"Duration":118577,"SoundDuration":118577,"Delta":90962178},{"NoteNumber":59,"Velocity":44,"Duration":118577,"SoundDuration":118577,"Delta":91080755},{"NoteNumber":71,"Velocity":48,"Duration":237154,"SoundDuration":237154,"Delta":91199332},{"NoteNumber":74,"Velocity":57,"Duration":237154,"SoundDuration":237154,"Delta":91199332},{"NoteNumber":57,"Velocity":44,"Duration":118577,"SoundDuration":118577,"Delta":91199332},{"NoteNumber":61,"Velocity":50,"Duration":150492,"SoundDuration":150492,"Delta":91317909},{"NoteNumber":69,"Velocity":52,"Duration":255319,"SoundDuration":255319,"Delta":91436486},{"NoteNumber":73,"Velocity":62,"Duration":255319,"SoundDuration":255319,"Delta":91436486},{"NoteNumber":59,"Velocity":56,"Duration":127659,"SoundDuration":127659,"Delta":91436486},{"NoteNumber":62,"Velocity":44,"Duration":127659,"SoundDuration":127659,"Delta":91564146},{"NoteNumber":67,"Velocity":56,"Duration":281690,"SoundDuration":281690,"Delta":91691806},{"NoteNumber":71,"Velocity":66,"Duration":281690,"SoundDuration":281690,"Delta":91691806},{"NoteNumber":61,"Velocity":47,"Duration":140845,"SoundDuration":140845,"Delta":91691806},{"NoteNumber":64,"Velocity":44,"Duration":140845,"SoundDuration":140845,"Delta":91832651},{"NoteNumber":69,"Velocity":59,"Duration":503451,"SoundDuration":503451,"Delta":91973496},{"NoteNumber":66,"Velocity":56,"Duration":124481,"SoundDuration":124481,"Delta":91973496},{"NoteNumber":62,"Velocity":42,"Duration":124481,"SoundDuration":124481,"Delta":92097977},{"NoteNumber":61,"Velocity":47,"Duration":127659,"SoundDuration":127659,"Delta":92222459},{"NoteNumber":62,"Velocity":42,"Duration":146341,"SoundDuration":146341,"Delta":92350118},{"NoteNumber":74,"Velocity":69,"Duration":504282,"SoundDuration":504282,"Delta":92496460},{"NoteNumber":66,"Velocity":69,"Duration":504282,"SoundDuration":504282,"Delta":92496460},{"NoteNumber":59,"Velocity":62,"Duration":124481,"SoundDuration":124481,"Delta":92496460},{"NoteNumber":62,"Velocity":42,"Duration":124481,"SoundDuration":124481,"Delta":92620941},{"NoteNumber":61,"Velocity":49,"Duration":127659,"SoundDuration":127659,"Delta":92745423},{"NoteNumber":62,"Velocity":42,"Duration":127659,"SoundDuration":127659,"Delta":92873082},{"NoteNumber":66,"Velocity":63,"Duration":510638,"SoundDuration":510638,"Delta":93000742},{"NoteNumber":61,"Velocity":56,"Duration":127659,"SoundDuration":127659,"Delta":93000742},{"NoteNumber":57,"Velocity":56,"Duration":127659,"SoundDuration":127659,"Delta":93000742},{"NoteNumber":62,"Velocity":45,"Duration":127659,"SoundDuration":127659,"Delta":93128401},{"NoteNumber":61,"Velocity":49,"Duration":127659,"SoundDuration":127659,"Delta":93256061},{"NoteNumber":62,"Velocity":49,"Duration":127659,"SoundDuration":127659,"Delta":93383721},{"NoteNumber":67,"Velocity":70,"Duration":530762,"SoundDuration":530762,"Delta":93511380},{"NoteNumber":55,"Velocity":56,"Duration":127659,"SoundDuration":127659,"Delta":93511380},{"NoteNumber":59,"Velocity":56,"Duration":127659,"SoundDuration":127659,"Delta":93511380},{"NoteNumber":62,"Velocity":46,"Duration":127659,"SoundDuration":127659,"Delta":93639040},{"NoteNumber":61,"Velocity":49,"Duration":127659,"SoundDuration":127659,"Delta":93766700},{"NoteNumber":62,"Velocity":43,"Duration":147783,"SoundDuration":147783,"Delta":93894359},{"NoteNumber":69,"Velocity":74,"Duration":506328,"SoundDuration":506328,"Delta":94042142},{"NoteNumber":54,"Velocity":56,"Duration":126582,"SoundDuration":126582,"Delta":94042142},{"NoteNumber":57,"Velocity":56,"Duration":126582,"SoundDuration":126582,"Delta":94042142},{"NoteNumber":62,"Velocity":43,"Duration":126582,"SoundDuration":126582,"Delta":94168725},{"NoteNumber":61,"Velocity":47,"Duration":126582,"SoundDuration":126582,"Delta":94295307},{"NoteNumber":62,"Velocity":42,"Duration":126582,"SoundDuration":126582,"Delta":94421889},{"NoteNumber":71,"Velocity":70,"Duration":523287,"SoundDuration":523287,"Delta":94548471},{"NoteNumber":55,"Velocity":56,"Duration":126582,"SoundDuration":126582,"Delta":94548471},{"NoteNumber":62,"Velocity":41,"Duration":126582,"SoundDuration":126582,"Delta":94675054},{"NoteNumber":61,"Velocity":48,"Duration":126582,"SoundDuration":126582,"Delta":94801636},{"NoteNumber":62,"Velocity":43,"Duration":143540,"SoundDuration":143540,"Delta":94928218},{"NoteNumber":64,"Velocity":66,"Duration":759493,"SoundDuration":759493,"Delta":95071759},{"NoteNumber":57,"Velocity":56,"Duration":126582,"SoundDuration":126582,"Delta":95071759},{"NoteNumber":62,"Velocity":42,"Duration":126582,"SoundDuration":126582,"Delta":95198341},{"NoteNumber":61,"Velocity":47,"Duration":126582,"SoundDuration":126582,"Delta":95324923},{"NoteNumber":62,"Velocity":42,"Duration":126582,"SoundDuration":126582,"Delta":95451506},{"NoteNumber":45,"Velocity":56,"Duration":253164,"SoundDuration":253164,"Delta":95578088},{"NoteNumber":55,"Velocity":56,"Duration":126582,"SoundDuration":126582,"Delta":95578088},{"NoteNumber":62,"Velocity":41,"Duration":126582,"SoundDuration":126582,"Delta":95704670},{"NoteNumber":66,"Velocity":54,"Duration":269600,"SoundDuration":269600,"Delta":95831252},{"NoteNumber":61,"Velocity":47,"Duration":128755,"SoundDuration":128755,"Delta":95831252},{"NoteNumber":62,"Velocity":47,"Duration":140845,"SoundDuration":140845,"Delta":95960008},{"NoteNumber":62,"Velocity":59,"Duration":506328,"SoundDuration":506328,"Delta":96100853},{"NoteNumber":38,"Velocity":39,"Duration":253164,"SoundDuration":253164,"Delta":96100853},{"NoteNumber":54,"Velocity":39,"Duration":126582,"SoundDuration":126582,"Delta":96100853},{"NoteNumber":55,"Velocity":45,"Duration":126582,"SoundDuration":126582,"Delta":96227435},{"NoteNumber":57,"Velocity":53,"Duration":126582,"SoundDuration":126582,"Delta":96354017},{"NoteNumber":59,"Velocity":46,"Duration":126582,"SoundDuration":126582,"Delta":96480600},{"NoteNumber":60,"Velocity":38,"Duration":129870,"SoundDuration":129870,"Delta":96607182},{"NoteNumber":59,"Velocity":36,"Duration":129870,"SoundDuration":129870,"Delta":96737052},{"NoteNumber":60,"Velocity":40,"Duration":129870,"SoundDuration":129870,"Delta":96866922},{"NoteNumber":57,"Velocity":37,"Duration":143540,"SoundDuration":143540,"Delta":96996792},{"NoteNumber":74,"Velocity":64,"Duration":489795,"SoundDuration":489795,"Delta":97140333},{"NoteNumber":59,"Velocity":43,"Duration":122449,"SoundDuration":122449,"Delta":97140333},{"NoteNumber":62,"Velocity":33,"Duration":122449,"SoundDuration":122449,"Delta":97262782},{"NoteNumber":61,"Velocity":38,"Duration":153061,"SoundDuration":153061,"Delta":97385231},{"NoteNumber":62,"Velocity":34,"Duration":122449,"SoundDuration":122449,"Delta":97507680},{"NoteNumber":71,"Velocity":54,"Duration":523287,"SoundDuration":523287,"Delta":97630129},{"NoteNumber":55,"Velocity":46,"Duration":126582,"SoundDuration":126582,"Delta":97630129},{"NoteNumber":62,"Velocity":35,"Duration":126582,"SoundDuration":126582,"Delta":97756711},{"NoteNumber":61,"Velocity":38,"Duration":162467,"SoundDuration":162467,"Delta":97883293},{"NoteNumber":62,"Velocity":34,"Duration":143540,"SoundDuration":143540,"Delta":98009876},{"NoteNumber":69,"Velocity":59,"Duration":506328,"SoundDuration":506328,"Delta":98153416},{"NoteNumber":54,"Velocity":47,"Duration":126582,"SoundDuration":126582,"Delta":98153416},{"NoteNumber":50,"Velocity":47,"Duration":253164,"SoundDuration":253164,"Delta":98153416},{"NoteNumber":57,"Velocity":34,"Duration":126582,"SoundDuration":126582,"Delta":98279998},{"NoteNumber":62,"Velocity":38,"Duration":126582,"SoundDuration":126582,"Delta":98406581},{"NoteNumber":61,"Velocity":34,"Duration":126582,"SoundDuration":126582,"Delta":98533163},{"NoteNumber":38,"Velocity":58,"Duration":253164,"SoundDuration":253164,"Delta":98659745},{"NoteNumber":60,"Velocity":43,"Duration":126582,"SoundDuration":126582,"Delta":98659745},{"NoteNumber":59,"Velocity":34,"Duration":126582,"SoundDuration":126582,"Delta":98786327},{"NoteNumber":60,"Velocity":38,"Duration":126582,"SoundDuration":126582,"Delta":98912910},{"NoteNumber":57,"Velocity":34,"Duration":126582,"SoundDuration":126582,"Delta":99039492},{"NoteNumber":74,"Velocity":64,"Duration":489795,"SoundDuration":489795,"Delta":99166074},{"NoteNumber":50,"Velocity":39,"Duration":244898,"SoundDuration":244898,"Delta":99166074},{"NoteNumber":59,"Velocity":43,"Duration":122449,"SoundDuration":122449,"Delta":99166074},{"NoteNumber":62,"Velocity":33,"Duration":122449,"SoundDuration":122449,"Delta":99288523},{"NoteNumber":61,"Velocity":38,"Duration":153061,"SoundDuration":153061,"Delta":99410972},{"NoteNumber":62,"Velocity":34,"Duration":122449,"SoundDuration":122449,"Delta":99533421},{"NoteNumber":71,"Velocity":54,"Duration":523287,"SoundDuration":523287,"Delta":99655870},{"NoteNumber":55,"Velocity":46,"Duration":126582,"SoundDuration":126582,"Delta":99655870},{"NoteNumber":62,"Velocity":35,"Duration":126582,"SoundDuration":126582,"Delta":99782452},{"NoteNumber":61,"Velocity":38,"Duration":162467,"SoundDuration":162467,"Delta":99909035},{"NoteNumber":62,"Velocity":34,"Duration":143540,"SoundDuration":143540,"Delta":100035617},{"NoteNumber":69,"Velocity":59,"Duration":506328,"SoundDuration":506328,"Delta":100179158},{"NoteNumber":54,"Velocity":47,"Duration":126582,"SoundDuration":126582,"Delta":100179158},{"NoteNumber":50,"Velocity":47,"Duration":253164,"SoundDuration":253164,"Delta":100179158},{"NoteNumber":57,"Velocity":34,"Duration":126582,"SoundDuration":126582,"Delta":100305740},{"NoteNumber":62,"Velocity":38,"Duration":126582,"SoundDuration":126582,"Delta":100432322},{"NoteNumber":61,"Velocity":34,"Duration":126582,"SoundDuration":126582,"Delta":100558904},{"NoteNumber":38,"Velocity":57,"Duration":253164,"SoundDuration":253164,"Delta":100685487},{"NoteNumber":60,"Velocity":43,"Duration":126582,"SoundDuration":126582,"Delta":100685487},{"NoteNumber":59,"Velocity":34,"Duration":126582,"SoundDuration":126582,"Delta":100812069},{"NoteNumber":60,"Velocity":38,"Duration":126582,"SoundDuration":126582,"Delta":100938651},{"NoteNumber":57,"Velocity":34,"Duration":126582,"SoundDuration":126582,"Delta":101065233},{"NoteNumber":74,"Velocity":64,"Duration":489795,"SoundDuration":489795,"Delta":101191816},{"NoteNumber":50,"Velocity":39,"Duration":244898,"SoundDuration":244898,"Delta":101191816},{"NoteNumber":59,"Velocity":43,"Duration":122449,"SoundDuration":122449,"Delta":101191816},{"NoteNumber":62,"Velocity":33,"Duration":122449,"SoundDuration":122449,"Delta":101314265},{"NoteNumber":61,"Velocity":38,"Duration":153061,"SoundDuration":153061,"Delta":101436714},{"NoteNumber":62,"Velocity":34,"Duration":122449,"SoundDuration":122449,"Delta":101559163},{"NoteNumber":71,"Velocity":54,"Duration":523287,"SoundDuration":523287,"Delta":101681612},{"NoteNumber":55,"Velocity":46,"Duration":126582,"SoundDuration":126582,"Delta":101681612},{"NoteNumber":62,"Velocity":35,"Duration":126582,"SoundDuration":126582,"Delta":101808194},{"NoteNumber":61,"Velocity":38,"Duration":162467,"SoundDuration":162467,"Delta":101934776},{"NoteNumber":62,"Velocity":34,"Duration":143540,"SoundDuration":143540,"Delta":102061358},{"NoteNumber":69,"Velocity":59,"Duration":497925,"SoundDuration":497925,"Delta":102204899},{"NoteNumber":54,"Velocity":47,"Duration":124481,"SoundDuration":124481,"Delta":102204899},{"NoteNumber":57,"Velocity":34,"Duration":124481,"SoundDuration":124481,"Delta":102329380},{"NoteNumber":54,"Velocity":38,"Duration":124481,"SoundDuration":124481,"Delta":102453862},{"NoteNumber":55,"Velocity":34,"Duration":124481,"SoundDuration":124481,"Delta":102578343},{"NoteNumber":66,"Velocity":59,"Duration":255319,"SoundDuration":255319,"Delta":102702824},{"NoteNumber":50,"Velocity":47,"Duration":255319,"SoundDuration":255319,"Delta":102702824},{"NoteNumber":57,"Velocity":43,"Duration":127659,"SoundDuration":127659,"Delta":102702824},{"NoteNumber":60,"Velocity":34,"Duration":127659,"SoundDuration":127659,"Delta":102830484},{"NoteNumber":62,"Velocity":38,"Duration":127659,"SoundDuration":127659,"Delta":102958144},{"NoteNumber":60,"Velocity":34,"Duration":127659,"SoundDuration":127659,"Delta":103085803},{"NoteNumber":67,"Velocity":59,"Duration":248962,"SoundDuration":248962,"Delta":103213463},{"NoteNumber":43,"Velocity":47,"Duration":248962,"SoundDuration":248962,"Delta":103213463},{"NoteNumber":58,"Velocity":43,"Duration":124481,"SoundDuration":124481,"Delta":103213463},{"NoteNumber":62,"Velocity":43,"Duration":124481,"SoundDuration":124481,"Delta":103337944},{"NoteNumber":58,"Velocity":43,"Duration":124481,"SoundDuration":124481,"Delta":103462426},{"NoteNumber":62,"Velocity":43,"Duration":124481,"SoundDuration":124481,"Delta":103586907},{"NoteNumber":64,"Velocity":59,"Duration":253164,"SoundDuration":253164,"Delta":103711388},{"NoteNumber":45,"Velocity":47,"Duration":253164,"SoundDuration":253164,"Delta":103711388},{"NoteNumber":61,"Velocity":43,"Duration":158227,"SoundDuration":158227,"Delta":103711388},{"NoteNumber":58,"Velocity":43,"Duration":158771,"SoundDuration":158771,"Delta":103837971},{"NoteNumber":57,"Velocity":43,"Duration":168437,"SoundDuration":168437,"Delta":103964553},{"NoteNumber":55,"Velocity":43,"Duration":158730,"SoundDuration":158730,"Delta":104093308},{"NoteNumber":62,"Velocity":59,"Duration":506328,"SoundDuration":506328,"Delta":104252038},{"NoteNumber":38,"Velocity":39,"Duration":253164,"SoundDuration":253164,"Delta":104252038},{"NoteNumber":54,"Velocity":39,"Duration":158227,"SoundDuration":158227,"Delta":104252038},{"NoteNumber":55,"Velocity":45,"Duration":158227,"SoundDuration":158227,"Delta":104378621},{"NoteNumber":57,"Velocity":53,"Duration":158227,"SoundDuration":158227,"Delta":104505203},{"NoteNumber":59,"Velocity":46,"Duration":126582,"SoundDuration":126582,"Delta":104631785},{"NoteNumber":60,"Velocity":38,"Duration":129870,"SoundDuration":129870,"Delta":104758367},{"NoteNumber":59,"Velocity":36,"Duration":129870,"SoundDuration":129870,"Delta":104888238},{"NoteNumber":60,"Velocity":40,"Duration":129870,"SoundDuration":129870,"Delta":105018108},{"NoteNumber":57,"Velocity":37,"Duration":143540,"SoundDuration":143540,"Delta":105147978},{"NoteNumber":86,"Velocity":64,"Duration":489795,"SoundDuration":489795,"Delta":105291518},{"NoteNumber":74,"Velocity":54,"Duration":489795,"SoundDuration":489795,"Delta":105291518},{"NoteNumber":50,"Velocity":39,"Duration":244898,"SoundDuration":244898,"Delta":105291518},{"NoteNumber":59,"Velocity":43,"Duration":122449,"SoundDuration":122449,"Delta":105291518},{"NoteNumber":62,"Velocity":33,"Duration":122449,"SoundDuration":122449,"Delta":105413967},{"NoteNumber":61,"Velocity":38,"Duration":153061,"SoundDuration":153061,"Delta":105536416},{"NoteNumber":62,"Velocity":34,"Duration":122449,"SoundDuration":122449,"Delta":105658865},{"NoteNumber":83,"Velocity":54,"Duration":523287,"SoundDuration":523287,"Delta":105781314},{"NoteNumber":71,"Velocity":45,"Duration":523287,"SoundDuration":523287,"Delta":105781314},{"NoteNumber":55,"Velocity":46,"Duration":126582,"SoundDuration":126582,"Delta":105781314},{"NoteNumber":62,"Velocity":35,"Duration":126582,"SoundDuration":126582,"Delta":105907897},{"NoteNumber":61,"Velocity":38,"Duration":162467,"SoundDuration":162467,"Delta":106034479},{"NoteNumber":62,"Velocity":34,"Duration":143540,"SoundDuration":143540,"Delta":106161061},{"NoteNumber":81,"Velocity":59,"Duration":493826,"SoundDuration":493826,"Delta":106304602},{"NoteNumber":69,"Velocity":50,"Duration":493826,"SoundDuration":493826,"Delta":106304602},{"NoteNumber":54,"Velocity":47,"Duration":123456,"SoundDuration":123456,"Delta":106304602},{"NoteNumber":57,"Velocity":34,"Duration":123456,"SoundDuration":123456,"Delta":106428059},{"NoteNumber":54,"Velocity":38,"Duration":123456,"SoundDuration":123456,"Delta":106551515},{"NoteNumber":55,"Velocity":34,"Duration":123456,"SoundDuration":123456,"Delta":106674972},{"NoteNumber":78,"Velocity":59,"Duration":253164,"SoundDuration":253164,"Delta":106798429},{"NoteNumber":66,"Velocity":50,"Duration":253164,"SoundDuration":253164,"Delta":106798429},{"NoteNumber":50,"Velocity":47,"Duration":253164,"SoundDuration":253164,"Delta":106798429},{"NoteNumber":57,"Velocity":43,"Duration":126582,"SoundDuration":126582,"Delta":106798429},{"NoteNumber":60,"Velocity":34,"Duration":126582,"SoundDuration":126582,"Delta":106925011},{"NoteNumber":62,"Velocity":38,"Duration":126582,"SoundDuration":126582,"Delta":107051593},{"NoteNumber":60,"Velocity":34,"Duration":126582,"SoundDuration":126582,"Delta":107178176},{"NoteNumber":79,"Velocity":59,"Duration":253164,"SoundDuration":253164,"Delta":107304758},{"NoteNumber":67,"Velocity":50,"Duration":253164,"SoundDuration":253164,"Delta":107304758},{"NoteNumber":55,"Velocity":47,"Duration":253164,"SoundDuration":253164,"Delta":107304758},{"NoteNumber":58,"Velocity":43,"Duration":126582,"SoundDuration":126582,"Delta":107304758},{"NoteNumber":62,"Velocity":43,"Duration":126582,"SoundDuration":126582,"Delta":107431340},{"NoteNumber":58,"Velocity":43,"Duration":126582,"SoundDuration":126582,"Delta":107557922},{"NoteNumber":62,"Velocity":43,"Duration":126582,"SoundDuration":126582,"Delta":107684505},{"NoteNumber":76,"Velocity":59,"Duration":253164,"SoundDuration":253164,"Delta":107811087},{"NoteNumber":64,"Velocity":50,"Duration":253164,"SoundDuration":253164,"Delta":107811087},{"NoteNumber":57,"Velocity":47,"Duration":253164,"SoundDuration":253164,"Delta":107811087},{"NoteNumber":61,"Velocity":43,"Duration":158227,"SoundDuration":158227,"Delta":107811087},{"NoteNumber":58,"Velocity":43,"Duration":158227,"SoundDuration":158227,"Delta":107937669},{"NoteNumber":57,"Velocity":43,"Duration":161793,"SoundDuration":161793,"Delta":108064251},{"NoteNumber":55,"Velocity":43,"Duration":140845,"SoundDuration":140845,"Delta":108190834},{"NoteNumber":74,"Velocity":59,"Duration":379746,"SoundDuration":379746,"Delta":108331679},{"NoteNumber":62,"Velocity":50,"Duration":379746,"SoundDuration":379746,"Delta":108331679},{"NoteNumber":50,"Velocity":30,"Duration":1535945,"SoundDuration":1535945,"Delta":108331679},{"NoteNumber":54,"Velocity":39,"Duration":158227,"SoundDuration":158227,"Delta":108331679},{"NoteNumber":57,"Velocity":45,"Duration":158227,"SoundDuration":158227,"Delta":108458261},{"NoteNumber":54,"Velocity":53,"Duration":158227,"SoundDuration":158227,"Delta":108584843},{"NoteNumber":55,"Velocity":46,"Duration":126582,"SoundDuration":126582,"Delta":108711425},{"NoteNumber":57,"Velocity":38,"Duration":126582,"SoundDuration":126582,"Delta":108838008},{"NoteNumber":62,"Velocity":36,"Duration":126582,"SoundDuration":126582,"Delta":108964590},{"NoteNumber":66,"Velocity":40,"Duration":126582,"SoundDuration":126582,"Delta":109091172},{"NoteNumber":64,"Velocity":37,"Duration":143540,"SoundDuration":143540,"Delta":109217754},{"NoteNumber":62,"Velocity":42,"Duration":126582,"SoundDuration":126582,"Delta":109361295},{"NoteNumber":66,"Velocity":38,"Duration":126582,"SoundDuration":126582,"Delta":109487877},{"NoteNumber":69,"Velocity":37,"Duration":126582,"SoundDuration":126582,"Delta":109614460},{"NoteNumber":67,"Velocity":30,"Duration":126582,"SoundDuration":126582,"Delta":109741042},{"NoteNumber":66,"Velocity":45,"Duration":126582,"SoundDuration":126582,"Delta":109867624},{"NoteNumber":69,"Velocity":33,"Duration":126582,"SoundDuration":126582,"Delta":109994206},{"NoteNumber":66,"Velocity":38,"Duration":126582,"SoundDuration":126582,"Delta":110120789},{"NoteNumber":67,"Velocity":34,"Duration":139534,"SoundDuration":139534,"Delta":110247371},{"NoteNumber":69,"Velocity":43,"Duration":126582,"SoundDuration":126582,"Delta":110386906},{"NoteNumber":74,"Velocity":34,"Duration":126582,"SoundDuration":126582,"Delta":110513488},{"NoteNumber":78,"Velocity":38,"Duration":126582,"SoundDuration":126582,"Delta":110640070},{"NoteNumber":76,"Velocity":34,"Duration":126582,"SoundDuration":126582,"Delta":110766652},{"NoteNumber":74,"Velocity":46,"Duration":126582,"SoundDuration":126582,"Delta":110893235},{"NoteNumber":78,"Velocity":34,"Duration":126582,"SoundDuration":126582,"Delta":111019817},{"NoteNumber":81,"Velocity":38,"Duration":126582,"SoundDuration":126582,"Delta":111146399},{"NoteNumber":79,"Velocity":33,"Duration":139534,"SoundDuration":139534,"Delta":111272981},{"NoteNumber":78,"Velocity":45,"Duration":127659,"SoundDuration":127659,"Delta":111412516},{"NoteNumber":81,"Velocity":32,"Duration":127659,"SoundDuration":127659,"Delta":111540176},{"NoteNumber":78,"Velocity":38,"Duration":127659,"SoundDuration":127659,"Delta":111667836},{"NoteNumber":79,"Velocity":34,"Duration":134529,"SoundDuration":134529,"Delta":111795495},{"NoteNumber":81,"Velocity":45,"Duration":134529,"SoundDuration":134529,"Delta":111930024},{"NoteNumber":86,"Velocity":33,"Duration":140845,"SoundDuration":140845,"Delta":112064553},{"NoteNumber":90,"Velocity":38,"Duration":153846,"SoundDuration":153846,"Delta":112205399},{"NoteNumber":88,"Velocity":34,"Duration":177514,"SoundDuration":177514,"Delta":112359245},{"NoteNumber":86,"Velocity":43,"Duration":257510,"SoundDuration":257510,"Delta":112536759},{"NoteNumber":81,"Velocity":43,"Duration":257510,"SoundDuration":257510,"Delta":112536759},{"NoteNumber":74,"Velocity":38,"Duration":257510,"SoundDuration":257510,"Delta":112536759},{"NoteNumber":78,"Velocity":38,"Duration":257510,"SoundDuration":257510,"Delta":112536759}]}