{"title":"Mendelssohn: Lieder ohne Worte Opus 19 Nr. 1","artist":"Piano","durationMs":163375,"midiSha256":"8efc0065df14add70aa3eec05b225fed547304fd9593f7c468cabc43078a64d0","midiObject":[{"NoteNumber":47,"Velocity":28,"Duration":160139,"SoundDuration":160139,"Delta":0},{"NoteNumber":40,"Velocity":40,"Duration":1261421,"SoundDuration":1261421,"Delta":0},{"NoteNumber":52,"Velocity":20,"Duration":159236,"SoundDuration":159236,"Delta":160139},{"NoteNumber":56,"Velocity":21,"Duration":158000,"SoundDuration":158000,"Delta":319376},{"NoteNumber":59,"Velocity":20,"Duration":156679,"SoundDuration":156679,"Delta":477376},{"NoteNumber":47,"Velocity":26,"Duration":155568,"SoundDuration":155568,"Delta":634055},{"NoteNumber":52,"Velocity":20,"Duration":156210,"SoundDuration":156210,"Delta":789624},{"NoteNumber":56,"Velocity":21,"Duration":157295,"SoundDuration":157295,"Delta":945834},{"NoteNumber":59,"Velocity":19,"Duration":158291,"SoundDuration":158291,"Delta":1103130},{"NoteNumber":47,"Velocity":28,"Duration":159300,"SoundDuration":159300,"Delta":1261421},{"NoteNumber":44,"Velocity":42,"Duration":1259657,"SoundDuration":1259657,"Delta":1261421},{"NoteNumber":52,"Velocity":21,"Duration":158773,"SoundDuration":158773,"Delta":1420721},{"NoteNumber":56,"Velocity":21,"Duration":157667,"SoundDuration":157667,"Delta":1579494},{"NoteNumber":59,"Velocity":20,"Duration":156679,"SoundDuration":156679,"Delta":1737162},{"NoteNumber":47,"Velocity":27,"Duration":155703,"SoundDuration":155703,"Delta":1893841},{"NoteNumber":52,"Velocity":23,"Duration":156210,"SoundDuration":156210,"Delta":2049545},{"NoteNumber":56,"Velocity":22,"Duration":157295,"SoundDuration":157295,"Delta":2205755},{"NoteNumber":59,"Velocity":20,"Duration":158028,"SoundDuration":158028,"Delta":2363050},{"NoteNumber":47,"Velocity":31,"Duration":157067,"SoundDuration":157067,"Delta":2521079},{"NoteNumber":42,"Velocity":45,"Duration":1251232,"SoundDuration":1251232,"Delta":2521079},{"NoteNumber":51,"Velocity":23,"Duration":156352,"SoundDuration":156352,"Delta":2678147},{"NoteNumber":57,"Velocity":23,"Duration":155764,"SoundDuration":155764,"Delta":2834499},{"NoteNumber":59,"Velocity":23,"Duration":155186,"SoundDuration":155186,"Delta":2990263},{"NoteNumber":47,"Velocity":30,"Duration":155053,"SoundDuration":155053,"Delta":3145450},{"NoteNumber":51,"Velocity":23,"Duration":156081,"SoundDuration":156081,"Delta":3300503},{"NoteNumber":57,"Velocity":23,"Duration":157295,"SoundDuration":157295,"Delta":3456585},{"NoteNumber":59,"Velocity":22,"Duration":158430,"SoundDuration":158430,"Delta":3613881},{"NoteNumber":47,"Velocity":32,"Duration":162074,"SoundDuration":162074,"Delta":3772312},{"NoteNumber":35,"Velocity":41,"Duration":648298,"SoundDuration":648298,"Delta":3772312},{"NoteNumber":51,"Velocity":25,"Duration":162074,"SoundDuration":162074,"Delta":3934386},{"NoteNumber":54,"Velocity":26,"Duration":162074,"SoundDuration":162074,"Delta":4096461},{"NoteNumber":59,"Velocity":29,"Duration":162074,"SoundDuration":162074,"Delta":4258535},{"NoteNumber":69,"Velocity":51,"Duration":632111,"SoundDuration":632111,"Delta":4420610},{"NoteNumber":47,"Velocity":31,"Duration":158027,"SoundDuration":158027,"Delta":4420610},{"NoteNumber":51,"Velocity":26,"Duration":158027,"SoundDuration":158027,"Delta":4578637},{"NoteNumber":54,"Velocity":32,"Duration":158027,"SoundDuration":158027,"Delta":4736665},{"NoteNumber":59,"Velocity":34,"Duration":158027,"SoundDuration":158027,"Delta":4894693},{"NoteNumber":68,"Velocity":57,"Duration":619835,"SoundDuration":619835,"Delta":5052721},{"NoteNumber":47,"Velocity":40,"Duration":154958,"SoundDuration":154958,"Delta":5052721},{"NoteNumber":40,"Velocity":46,"Duration":619835,"SoundDuration":619835,"Delta":5052721},{"NoteNumber":52,"Velocity":26,"Duration":154958,"SoundDuration":154958,"Delta":5207679},{"NoteNumber":56,"Velocity":26,"Duration":154958,"SoundDuration":154958,"Delta":5362638},{"NoteNumber":59,"Velocity":25,"Duration":154958,"SoundDuration":154958,"Delta":5517597},{"NoteNumber":66,"Velocity":48,"Duration":635323,"SoundDuration":635323,"Delta":5672556},{"NoteNumber":47,"Velocity":32,"Duration":158831,"SoundDuration":158831,"Delta":5672556},{"NoteNumber":42,"Velocity":42,"Duration":635323,"SoundDuration":635323,"Delta":5672556},{"NoteNumber":51,"Velocity":25,"Duration":158831,"SoundDuration":158831,"Delta":5831387},{"NoteNumber":57,"Velocity":25,"Duration":158830,"SoundDuration":158830,"Delta":5990218},{"NoteNumber":59,"Velocity":23,"Duration":158831,"SoundDuration":158831,"Delta":6149049},{"NoteNumber":64,"Velocity":48,"Duration":618316,"SoundDuration":618316,"Delta":6307880},{"NoteNumber":47,"Velocity":33,"Duration":161238,"SoundDuration":161238,"Delta":6307880},{"NoteNumber":44,"Velocity":42,"Duration":663183,"SoundDuration":663183,"Delta":6307880},{"NoteNumber":52,"Velocity":27,"Duration":161238,"SoundDuration":161238,"Delta":6469118},{"NoteNumber":56,"Velocity":34,"Duration":161238,"SoundDuration":161238,"Delta":6630356},{"NoteNumber":59,"Velocity":44,"Duration":179468,"SoundDuration":179468,"Delta":6791594},{"NoteNumber":76,"Velocity":69,"Duration":620502,"SoundDuration":620502,"Delta":6971063},{"NoteNumber":54,"Velocity":53,"Duration":154958,"SoundDuration":154958,"Delta":6971063},{"NoteNumber":46,"Velocity":42,"Duration":620502,"SoundDuration":620502,"Delta":6971063},{"NoteNumber":61,"Velocity":31,"Duration":154958,"SoundDuration":154958,"Delta":7126022},{"NoteNumber":64,"Velocity":39,"Duration":154958,"SoundDuration":154958,"Delta":7280981},{"NoteNumber":66,"Velocity":23,"Duration":155626,"SoundDuration":155626,"Delta":7435939},{"NoteNumber":75,"Velocity":68,"Duration":622050,"SoundDuration":622050,"Delta":7591566},{"NoteNumber":54,"Velocity":35,"Duration":156774,"SoundDuration":156774,"Delta":7591566},{"NoteNumber":47,"Velocity":46,"Duration":622050,"SoundDuration":622050,"Delta":7591566},{"NoteNumber":59,"Velocity":26,"Duration":155926,"SoundDuration":155926,"Delta":7748341},{"NoteNumber":63,"Velocity":26,"Duration":155086,"SoundDuration":155086,"Delta":7904267},{"NoteNumber":66,"Velocity":25,"Duration":154262,"SoundDuration":154262,"Delta":8059354},{"NoteNumber":73,"Velocity":56,"Duration":632111,"SoundDuration":632111,"Delta":8213616},{"NoteNumber":54,"Velocity":32,"Duration":158027,"SoundDuration":158027,"Delta":8213616},{"NoteNumber":49,"Velocity":42,"Duration":632111,"SoundDuration":632111,"Delta":8213616},{"NoteNumber":58,"Velocity":25,"Duration":158027,"SoundDuration":158027,"Delta":8371644},{"NoteNumber":64,"Velocity":25,"Duration":158027,"SoundDuration":158027,"Delta":8529672},{"NoteNumber":66,"Velocity":23,"Duration":158027,"SoundDuration":158027,"Delta":8687699},{"NoteNumber":71,"Velocity":52,"Duration":606620,"SoundDuration":606620,"Delta":8845727},{"NoteNumber":54,"Velocity":33,"Duration":157547,"SoundDuration":157547,"Delta":8845727},{"NoteNumber":51,"Velocity":37,"Duration":649778,"SoundDuration":649778,"Delta":8845727},{"NoteNumber":59,"Velocity":27,"Duration":158803,"SoundDuration":158803,"Delta":9003275},{"NoteNumber":63,"Velocity":33,"Duration":160796,"SoundDuration":160796,"Delta":9162078},{"NoteNumber":66,"Velocity":40,"Duration":172632,"SoundDuration":172632,"Delta":9322874},{"NoteNumber":73,"Velocity":61,"Duration":632111,"SoundDuration":632111,"Delta":9495506},{"NoteNumber":56,"Velocity":46,"Duration":158027,"SoundDuration":158027,"Delta":9495506},{"NoteNumber":53,"Velocity":42,"Duration":632111,"SoundDuration":632111,"Delta":9495506},{"NoteNumber":59,"Velocity":26,"Duration":158027,"SoundDuration":158027,"Delta":9653534},{"NoteNumber":61,"Velocity":25,"Duration":158027,"SoundDuration":158027,"Delta":9811562},{"NoteNumber":68,"Velocity":23,"Duration":158027,"SoundDuration":158027,"Delta":9969589},{"NoteNumber":69,"Velocity":62,"Duration":632111,"SoundDuration":632111,"Delta":10127617},{"NoteNumber":54,"Velocity":46,"Duration":632111,"SoundDuration":632111,"Delta":10127617},{"NoteNumber":57,"Velocity":26,"Duration":158027,"SoundDuration":158027,"Delta":10285645},{"NoteNumber":61,"Velocity":26,"Duration":158027,"SoundDuration":158027,"Delta":10443673},{"NoteNumber":64,"Velocity":25,"Duration":158027,"SoundDuration":158027,"Delta":10601700},{"NoteNumber":71,"Velocity":52,"Duration":316055,"SoundDuration":316055,"Delta":10759728},{"NoteNumber":54,"Velocity":32,"Duration":158027,"SoundDuration":158027,"Delta":10759728},{"NoteNumber":47,"Velocity":42,"Duration":632111,"SoundDuration":632111,"Delta":10759728},{"NoteNumber":57,"Velocity":25,"Duration":158027,"SoundDuration":158027,"Delta":10917756},{"NoteNumber":66,"Velocity":47,"Duration":316055,"SoundDuration":316055,"Delta":11075784},{"NoteNumber":59,"Velocity":25,"Duration":158027,"SoundDuration":158027,"Delta":11075784},{"NoteNumber":63,"Velocity":23,"Duration":158027,"SoundDuration":158027,"Delta":11233811},{"NoteNumber":68,"Velocity":52,"Duration":306905,"SoundDuration":306905,"Delta":11391839},{"NoteNumber":52,"Velocity":42,"Duration":628799,"SoundDuration":628799,"Delta":11391839},{"NoteNumber":56,"Velocity":25,"Duration":153452,"SoundDuration":153452,"Delta":11545292},{"NoteNumber":69,"Velocity":50,"Duration":79365,"SoundDuration":79365,"Delta":11698745},{"NoteNumber":59,"Velocity":25,"Duration":158730,"SoundDuration":158730,"Delta":11698745},{"NoteNumber":68,"Velocity":39,"Duration":79365,"SoundDuration":79365,"Delta":11778110},{"NoteNumber":66,"Velocity":42,"Duration":79365,"SoundDuration":79365,"Delta":11857475},{"NoteNumber":64,"Velocity":24,"Duration":163164,"SoundDuration":163164,"Delta":11857475},{"NoteNumber":68,"Velocity":34,"Duration":83798,"SoundDuration":83798,"Delta":11936840},{"NoteNumber":71,"Velocity":52,"Duration":319148,"SoundDuration":319148,"Delta":12020639},{"NoteNumber":52,"Velocity":31,"Duration":159574,"SoundDuration":159574,"Delta":12020639},{"NoteNumber":45,"Velocity":42,"Duration":645235,"SoundDuration":645235,"Delta":12020639},{"NoteNumber":54,"Velocity":26,"Duration":159574,"SoundDuration":159574,"Delta":12180213},{"NoteNumber":69,"Velocity":52,"Duration":326086,"SoundDuration":326086,"Delta":12339788},{"NoteNumber":61,"Velocity":25,"Duration":163043,"SoundDuration":163043,"Delta":12339788},{"NoteNumber":64,"Velocity":23,"Duration":163043,"SoundDuration":163043,"Delta":12502831},{"NoteNumber":68,"Velocity":52,"Duration":1332765,"SoundDuration":1332765,"Delta":12665875},{"NoteNumber":52,"Velocity":35,"Duration":163043,"SoundDuration":163043,"Delta":12665875},{"NoteNumber":47,"Velocity":46,"Duration":1332765,"SoundDuration":1332765,"Delta":12665875},{"NoteNumber":56,"Velocity":26,"Duration":163043,"SoundDuration":163043,"Delta":12828918},{"NoteNumber":59,"Velocity":26,"Duration":163043,"SoundDuration":163043,"Delta":12991962},{"NoteNumber":64,"Velocity":25,"Duration":163043,"SoundDuration":163043,"Delta":13155005},{"NoteNumber":52,"Velocity":32,"Duration":164581,"SoundDuration":164581,"Delta":13318049},{"NoteNumber":56,"Velocity":25,"Duration":164582,"SoundDuration":164582,"Delta":13482631},{"NoteNumber":59,"Velocity":25,"Duration":164581,"SoundDuration":164581,"Delta":13647213},{"NoteNumber":64,"Velocity":23,"Duration":186845,"SoundDuration":186845,"Delta":13811795},{"NoteNumber":66,"Velocity":48,"Duration":332630,"SoundDuration":332630,"Delta":13998641},{"NoteNumber":51,"Velocity":29,"Duration":166315,"SoundDuration":166315,"Delta":13998641},{"NoteNumber":47,"Velocity":38,"Duration":332630,"SoundDuration":332630,"Delta":13998641},{"NoteNumber":54,"Velocity":25,"Duration":166315,"SoundDuration":166315,"Delta":14164956},{"NoteNumber":59,"Velocity":25,"Duration":166315,"SoundDuration":166315,"Delta":14331272},{"NoteNumber":63,"Velocity":24,"Duration":166315,"SoundDuration":166315,"Delta":14497587},{"NoteNumber":69,"Velocity":51,"Duration":633669,"SoundDuration":633669,"Delta":14663903},{"NoteNumber":47,"Velocity":31,"Duration":160231,"SoundDuration":160231,"Delta":14663903},{"NoteNumber":39,"Velocity":42,"Duration":633669,"SoundDuration":633669,"Delta":14663903},{"NoteNumber":54,"Velocity":27,"Duration":159117,"SoundDuration":159117,"Delta":14824134},{"NoteNumber":57,"Velocity":29,"Duration":157764,"SoundDuration":157764,"Delta":14983251},{"NoteNumber":59,"Velocity":32,"Duration":156556,"SoundDuration":156556,"Delta":15141016},{"NoteNumber":68,"Velocity":57,"Duration":621775,"SoundDuration":621775,"Delta":15297573},{"NoteNumber":47,"Velocity":40,"Duration":155453,"SoundDuration":155453,"Delta":15297573},{"NoteNumber":40,"Velocity":46,"Duration":621775,"SoundDuration":621775,"Delta":15297573},{"NoteNumber":52,"Velocity":26,"Duration":155440,"SoundDuration":155440,"Delta":15453027},{"NoteNumber":56,"Velocity":29,"Duration":155440,"SoundDuration":155440,"Delta":15608467},{"NoteNumber":59,"Velocity":31,"Duration":155440,"SoundDuration":155440,"Delta":15763908},{"NoteNumber":66,"Velocity":48,"Duration":635324,"SoundDuration":635324,"Delta":15919348},{"NoteNumber":47,"Velocity":38,"Duration":158830,"SoundDuration":158830,"Delta":15919348},{"NoteNumber":42,"Velocity":42,"Duration":635324,"SoundDuration":635324,"Delta":15919348},{"NoteNumber":51,"Velocity":25,"Duration":158830,"SoundDuration":158830,"Delta":16078179},{"NoteNumber":57,"Velocity":30,"Duration":158831,"SoundDuration":158831,"Delta":16237010},{"NoteNumber":59,"Velocity":26,"Duration":158830,"SoundDuration":158830,"Delta":16395841},{"NoteNumber":64,"Velocity":48,"Duration":618316,"SoundDuration":618316,"Delta":16554672},{"NoteNumber":47,"Velocity":33,"Duration":161238,"SoundDuration":161238,"Delta":16554672},{"NoteNumber":44,"Velocity":42,"Duration":663183,"SoundDuration":663183,"Delta":16554672},{"NoteNumber":52,"Velocity":29,"Duration":161238,"SoundDuration":161238,"Delta":16715911},{"NoteNumber":56,"Velocity":31,"Duration":161238,"SoundDuration":161238,"Delta":16877149},{"NoteNumber":59,"Velocity":36,"Duration":179468,"SoundDuration":179468,"Delta":17038387},{"NoteNumber":76,"Velocity":70,"Duration":619834,"SoundDuration":619834,"Delta":17217856},{"NoteNumber":54,"Velocity":42,"Duration":154958,"SoundDuration":154958,"Delta":17217856},{"NoteNumber":46,"Velocity":42,"Duration":619834,"SoundDuration":619834,"Delta":17217856},{"NoteNumber":61,"Velocity":30,"Duration":154958,"SoundDuration":154958,"Delta":17372815},{"NoteNumber":64,"Velocity":32,"Duration":154958,"SoundDuration":154958,"Delta":17527773},{"NoteNumber":66,"Velocity":29,"Duration":154958,"SoundDuration":154958,"Delta":17682732},{"NoteNumber":75,"Velocity":71,"Duration":619834,"SoundDuration":619834,"Delta":17837691},{"NoteNumber":54,"Velocity":35,"Duration":154958,"SoundDuration":154958,"Delta":17837691},{"NoteNumber":47,"Velocity":46,"Duration":619834,"SoundDuration":619834,"Delta":17837691},{"NoteNumber":59,"Velocity":26,"Duration":154958,"SoundDuration":154958,"Delta":17992650},{"NoteNumber":63,"Velocity":26,"Duration":154958,"SoundDuration":154958,"Delta":18147608},{"NoteNumber":66,"Velocity":25,"Duration":154958,"SoundDuration":154958,"Delta":18302567},{"NoteNumber":73,"Velocity":54,"Duration":632110,"SoundDuration":632110,"Delta":18457526},{"NoteNumber":54,"Velocity":32,"Duration":158027,"SoundDuration":158027,"Delta":18457526},{"NoteNumber":49,"Velocity":42,"Duration":632110,"SoundDuration":632110,"Delta":18457526},{"NoteNumber":58,"Velocity":25,"Duration":158027,"SoundDuration":158027,"Delta":18615554},{"NoteNumber":64,"Velocity":25,"Duration":158027,"SoundDuration":158027,"Delta":18773581},{"NoteNumber":66,"Velocity":23,"Duration":158027,"SoundDuration":158027,"Delta":18931609},{"NoteNumber":71,"Velocity":64,"Duration":600133,"SoundDuration":600133,"Delta":19089637},{"NoteNumber":54,"Velocity":33,"Duration":158027,"SoundDuration":158027,"Delta":19089637},{"NoteNumber":51,"Velocity":37,"Duration":642150,"SoundDuration":642150,"Delta":19089637},{"NoteNumber":59,"Velocity":38,"Duration":158027,"SoundDuration":158027,"Delta":19247665},{"NoteNumber":63,"Velocity":39,"Duration":158027,"SoundDuration":158027,"Delta":19405692},{"NoteNumber":66,"Velocity":48,"Duration":168067,"SoundDuration":168067,"Delta":19563720},{"NoteNumber":80,"Velocity":78,"Duration":672269,"SoundDuration":672269,"Delta":19731787},{"NoteNumber":59,"Velocity":54,"Duration":168067,"SoundDuration":168067,"Delta":19731787},{"NoteNumber":52,"Velocity":42,"Duration":672269,"SoundDuration":672269,"Delta":19731787},{"NoteNumber":61,"Velocity":35,"Duration":168067,"SoundDuration":168067,"Delta":19899855},{"NoteNumber":68,"Velocity":40,"Duration":168067,"SoundDuration":168067,"Delta":20067922},{"NoteNumber":71,"Velocity":33,"Duration":168067,"SoundDuration":168067,"Delta":20235989},{"NoteNumber":73,"Velocity":67,"Duration":1988967,"SoundDuration":1988967,"Delta":20404056},{"NoteNumber":59,"Velocity":42,"Duration":163737,"SoundDuration":163737,"Delta":20404056},{"NoteNumber":49,"Velocity":48,"Duration":654949,"SoundDuration":654949,"Delta":20404056},{"NoteNumber":61,"Velocity":29,"Duration":163737,"SoundDuration":163737,"Delta":20567794},{"NoteNumber":68,"Velocity":29,"Duration":163737,"SoundDuration":163737,"Delta":20731531},{"NoteNumber":71,"Velocity":29,"Duration":163737,"SoundDuration":163737,"Delta":20895269},{"NoteNumber":59,"Velocity":38,"Duration":168067,"SoundDuration":168067,"Delta":21059006},{"NoteNumber":56,"Velocity":54,"Duration":672269,"SoundDuration":672269,"Delta":21059006},{"NoteNumber":61,"Velocity":26,"Duration":168067,"SoundDuration":168067,"Delta":21227074},{"NoteNumber":68,"Velocity":26,"Duration":168067,"SoundDuration":168067,"Delta":21395141},{"NoteNumber":71,"Velocity":26,"Duration":168067,"SoundDuration":168067,"Delta":21563208},{"NoteNumber":59,"Velocity":35,"Duration":168956,"SoundDuration":168956,"Delta":21731275},{"NoteNumber":52,"Velocity":49,"Duration":2068356,"SoundDuration":2068356,"Delta":21731275},{"NoteNumber":61,"Velocity":27,"Duration":168957,"SoundDuration":168957,"Delta":21900232},{"NoteNumber":68,"Velocity":27,"Duration":168956,"SoundDuration":168956,"Delta":22069189},{"NoteNumber":71,"Velocity":27,"Duration":168956,"SoundDuration":168956,"Delta":22238146},{"NoteNumber":80,"Velocity":54,"Duration":690528,"SoundDuration":690528,"Delta":22407103},{"NoteNumber":59,"Velocity":35,"Duration":172632,"SoundDuration":172632,"Delta":22407103},{"NoteNumber":61,"Velocity":18,"Duration":172632,"SoundDuration":172632,"Delta":22579735},{"NoteNumber":68,"Velocity":19,"Duration":172632,"SoundDuration":172632,"Delta":22752367},{"NoteNumber":71,"Velocity":20,"Duration":172632,"SoundDuration":172632,"Delta":22924999},{"NoteNumber":73,"Velocity":47,"Duration":2117997,"SoundDuration":2117997,"Delta":23097631},{"NoteNumber":59,"Velocity":29,"Duration":175500,"SoundDuration":175500,"Delta":23097631},{"NoteNumber":61,"Velocity":20,"Duration":175500,"SoundDuration":175500,"Delta":23273132},{"NoteNumber":68,"Velocity":20,"Duration":175500,"SoundDuration":175500,"Delta":23448632},{"NoteNumber":71,"Velocity":20,"Duration":175500,"SoundDuration":175500,"Delta":23624132},{"NoteNumber":59,"Velocity":26,"Duration":180723,"SoundDuration":180723,"Delta":23799632},{"NoteNumber":56,"Velocity":37,"Duration":732379,"SoundDuration":732379,"Delta":23799632},{"NoteNumber":61,"Velocity":18,"Duration":180723,"SoundDuration":180723,"Delta":23980355},{"NoteNumber":68,"Velocity":18,"Duration":180723,"SoundDuration":180723,"Delta":24161078},{"NoteNumber":71,"Velocity":18,"Duration":190210,"SoundDuration":190210,"Delta":24341801},{"NoteNumber":59,"Velocity":24,"Duration":174540,"SoundDuration":174540,"Delta":24532012},{"NoteNumber":53,"Velocity":34,"Duration":1349082,"SoundDuration":1349082,"Delta":24532012},{"NoteNumber":61,"Velocity":18,"Duration":174540,"SoundDuration":174540,"Delta":24706552},{"NoteNumber":68,"Velocity":18,"Duration":174540,"SoundDuration":174540,"Delta":24881093},{"NoteNumber":71,"Velocity":18,"Duration":174540,"SoundDuration":174540,"Delta":25055633},{"NoteNumber":73,"Velocity":61,"Duration":637692,"SoundDuration":637692,"Delta":25230174},{"NoteNumber":59,"Velocity":31,"Duration":165895,"SoundDuration":165895,"Delta":25230174},{"NoteNumber":61,"Velocity":26,"Duration":163863,"SoundDuration":163863,"Delta":25396069},{"NoteNumber":68,"Velocity":25,"Duration":161655,"SoundDuration":161655,"Delta":25559932},{"NoteNumber":71,"Velocity":23,"Duration":159506,"SoundDuration":159506,"Delta":25721588},{"NoteNumber":73,"Velocity":62,"Duration":631592,"SoundDuration":631592,"Delta":25881094},{"NoteNumber":58,"Velocity":29,"Duration":157908,"SoundDuration":157908,"Delta":25881094},{"NoteNumber":54,"Velocity":46,"Duration":631592,"SoundDuration":631592,"Delta":25881094},{"NoteNumber":61,"Velocity":25,"Duration":157894,"SoundDuration":157894,"Delta":26039003},{"NoteNumber":66,"Velocity":29,"Duration":157894,"SoundDuration":157894,"Delta":26196897},{"NoteNumber":70,"Velocity":25,"Duration":157894,"SoundDuration":157894,"Delta":26354792},{"NoteNumber":76,"Velocity":57,"Duration":631578,"SoundDuration":631578,"Delta":26512687},{"NoteNumber":54,"Velocity":32,"Duration":157894,"SoundDuration":157894,"Delta":26512687},{"NoteNumber":46,"Velocity":42,"Duration":631578,"SoundDuration":631578,"Delta":26512687},{"NoteNumber":61,"Velocity":25,"Duration":157894,"SoundDuration":157894,"Delta":26670582},{"NoteNumber":64,"Velocity":25,"Duration":157894,"SoundDuration":157894,"Delta":26828476},{"NoteNumber":66,"Velocity":23,"Duration":157894,"SoundDuration":157894,"Delta":26986371},{"NoteNumber":75,"Velocity":50,"Duration":643745,"SoundDuration":643745,"Delta":27144266},{"NoteNumber":54,"Velocity":29,"Duration":154958,"SoundDuration":154958,"Delta":27144266},{"NoteNumber":47,"Velocity":42,"Duration":643745,"SoundDuration":643745,"Delta":27144266},{"NoteNumber":59,"Velocity":25,"Duration":154958,"SoundDuration":154958,"Delta":27299225},{"NoteNumber":63,"Velocity":25,"Duration":159629,"SoundDuration":159629,"Delta":27454183},{"NoteNumber":66,"Velocity":24,"Duration":174198,"SoundDuration":174198,"Delta":27613813},{"NoteNumber":73,"Velocity":50,"Duration":327474,"SoundDuration":327474,"Delta":27788012},{"NoteNumber":52,"Velocity":42,"Duration":670681,"SoundDuration":670681,"Delta":27788012},{"NoteNumber":56,"Velocity":26,"Duration":163737,"SoundDuration":163737,"Delta":27951749},{"NoteNumber":68,"Velocity":43,"Duration":343206,"SoundDuration":343206,"Delta":28115487},{"NoteNumber":61,"Velocity":25,"Duration":163737,"SoundDuration":163737,"Delta":28115487},{"NoteNumber":64,"Velocity":23,"Duration":179468,"SoundDuration":179468,"Delta":28279224},{"NoteNumber":71,"Velocity":49,"Duration":1338920,"SoundDuration":1338920,"Delta":28458693},{"NoteNumber":54,"Velocity":46,"Duration":658328,"SoundDuration":658328,"Delta":28458693},{"NoteNumber":59,"Velocity":26,"Duration":164581,"SoundDuration":164581,"Delta":28623275},{"NoteNumber":63,"Velocity":26,"Duration":164582,"SoundDuration":164582,"Delta":28787857},{"NoteNumber":66,"Velocity":25,"Duration":164581,"SoundDuration":164581,"Delta":28952439},{"NoteNumber":54,"Velocity":32,"Duration":164581,"SoundDuration":164581,"Delta":29117021},{"NoteNumber":59,"Velocity":25,"Duration":164581,"SoundDuration":164581,"Delta":29281603},{"NoteNumber":63,"Velocity":25,"Duration":164582,"SoundDuration":164582,"Delta":29446185},{"NoteNumber":66,"Velocity":23,"Duration":186845,"SoundDuration":186845,"Delta":29610767},{"NoteNumber":70,"Velocity":44,"Duration":1330524,"SoundDuration":1330524,"Delta":29797613},{"NoteNumber":54,"Velocity":29,"Duration":166315,"SoundDuration":166315,"Delta":29797613},{"NoteNumber":61,"Velocity":31,"Duration":166315,"SoundDuration":166315,"Delta":29963928},{"NoteNumber":64,"Velocity":38,"Duration":166315,"SoundDuration":166315,"Delta":30130244},{"NoteNumber":66,"Velocity":44,"Duration":166315,"SoundDuration":166315,"Delta":30296559},{"NoteNumber":54,"Velocity":49,"Duration":166315,"SoundDuration":166315,"Delta":30462875},{"NoteNumber":42,"Velocity":38,"Duration":1323590,"SoundDuration":1323590,"Delta":30462875},{"NoteNumber":61,"Velocity":33,"Duration":166315,"SoundDuration":166315,"Delta":30629190},{"NoteNumber":64,"Velocity":41,"Duration":166315,"SoundDuration":166315,"Delta":30795506},{"NoteNumber":66,"Velocity":31,"Duration":166315,"SoundDuration":166315,"Delta":30961821},{"NoteNumber":69,"Velocity":43,"Duration":1338920,"SoundDuration":1338920,"Delta":31128137},{"NoteNumber":54,"Velocity":32,"Duration":164581,"SoundDuration":164581,"Delta":31128137},{"NoteNumber":60,"Velocity":26,"Duration":164581,"SoundDuration":164581,"Delta":31292719},{"NoteNumber":63,"Velocity":30,"Duration":164582,"SoundDuration":164582,"Delta":31457301},{"NoteNumber":66,"Velocity":38,"Duration":164581,"SoundDuration":164581,"Delta":31621883},{"NoteNumber":54,"Velocity":41,"Duration":164581,"SoundDuration":164581,"Delta":31786465},{"NoteNumber":42,"Velocity":40,"Duration":680592,"SoundDuration":680592,"Delta":31786465},{"NoteNumber":60,"Velocity":25,"Duration":164581,"SoundDuration":164581,"Delta":31951047},{"NoteNumber":63,"Velocity":25,"Duration":164582,"SoundDuration":164582,"Delta":32115629},{"NoteNumber":66,"Velocity":23,"Duration":186846,"SoundDuration":186846,"Delta":32280211},{"NoteNumber":68,"Velocity":36,"Duration":332630,"SoundDuration":332630,"Delta":32467057},{"NoteNumber":52,"Velocity":29,"Duration":166315,"SoundDuration":166315,"Delta":32467057},{"NoteNumber":40,"Velocity":34,"Duration":665261,"SoundDuration":665261,"Delta":32467057},{"NoteNumber":56,"Velocity":25,"Duration":166315,"SoundDuration":166315,"Delta":32633372},{"NoteNumber":61,"Velocity":25,"Duration":166315,"SoundDuration":166315,"Delta":32799688},{"NoteNumber":64,"Velocity":24,"Duration":152455,"SoundDuration":152455,"Delta":32966003},{"NoteNumber":68,"Velocity":63,"Duration":632111,"SoundDuration":632111,"Delta":33132319},{"NoteNumber":52,"Velocity":31,"Duration":158027,"SoundDuration":158027,"Delta":33132319},{"NoteNumber":39,"Velocity":39,"Duration":632111,"SoundDuration":632111,"Delta":33132319},{"NoteNumber":56,"Velocity":30,"Duration":158027,"SoundDuration":158027,"Delta":33290347},{"NoteNumber":61,"Velocity":33,"Duration":158027,"SoundDuration":158027,"Delta":33448374},{"NoteNumber":64,"Velocity":38,"Duration":158027,"SoundDuration":158027,"Delta":33606402},{"NoteNumber":70,"Velocity":70,"Duration":632110,"SoundDuration":632110,"Delta":33764430},{"NoteNumber":52,"Velocity":45,"Duration":158027,"SoundDuration":158027,"Delta":33764430},{"NoteNumber":37,"Velocity":48,"Duration":632110,"SoundDuration":632110,"Delta":33764430},{"NoteNumber":58,"Velocity":30,"Duration":158027,"SoundDuration":158027,"Delta":33922458},{"NoteNumber":64,"Velocity":32,"Duration":158027,"SoundDuration":158027,"Delta":34080485},{"NoteNumber":66,"Velocity":41,"Duration":158027,"SoundDuration":158027,"Delta":34238513},{"NoteNumber":71,"Velocity":81,"Duration":632111,"SoundDuration":632111,"Delta":34396541},{"NoteNumber":52,"Velocity":46,"Duration":158027,"SoundDuration":158027,"Delta":34396541},{"NoteNumber":47,"Velocity":53,"Duration":632111,"SoundDuration":632111,"Delta":34396541},{"NoteNumber":59,"Velocity":33,"Duration":158027,"SoundDuration":158027,"Delta":34554569},{"NoteNumber":64,"Velocity":43,"Duration":158027,"SoundDuration":158027,"Delta":34712596},{"NoteNumber":66,"Velocity":53,"Duration":158027,"SoundDuration":158027,"Delta":34870624},{"NoteNumber":75,"Velocity":89,"Duration":645257,"SoundDuration":645257,"Delta":35028652},{"NoteNumber":54,"Velocity":58,"Duration":155714,"SoundDuration":155714,"Delta":35028652},{"NoteNumber":46,"Velocity":57,"Duration":645257,"SoundDuration":645257,"Delta":35028652},{"NoteNumber":61,"Velocity":40,"Duration":155714,"SoundDuration":155714,"Delta":35184367},{"NoteNumber":64,"Velocity":46,"Duration":159629,"SoundDuration":159629,"Delta":35340081},{"NoteNumber":66,"Velocity":38,"Duration":174198,"SoundDuration":174198,"Delta":35499711},{"NoteNumber":73,"Velocity":75,"Duration":491212,"SoundDuration":491212,"Delta":35673910},{"NoteNumber":54,"Velocity":40,"Duration":163737,"SoundDuration":163737,"Delta":35673910},{"NoteNumber":42,"Velocity":62,"Duration":670681,"SoundDuration":670681,"Delta":35673910},{"NoteNumber":58,"Velocity":32,"Duration":163737,"SoundDuration":163737,"Delta":35837647},{"NoteNumber":64,"Velocity":31,"Duration":163737,"SoundDuration":163737,"Delta":36001385},{"NoteNumber":71,"Velocity":67,"Duration":164513,"SoundDuration":164513,"Delta":36165122},{"NoteNumber":66,"Velocity":28,"Duration":179468,"SoundDuration":179468,"Delta":36165122},{"NoteNumber":71,"Velocity":80,"Duration":1338920,"SoundDuration":1338920,"Delta":36344591},{"NoteNumber":54,"Velocity":36,"Duration":164582,"SoundDuration":164582,"Delta":36344591},{"NoteNumber":47,"Velocity":55,"Duration":2004182,"SoundDuration":2004182,"Delta":36344591},{"NoteNumber":59,"Velocity":32,"Duration":164581,"SoundDuration":164581,"Delta":36509173},{"NoteNumber":63,"Velocity":32,"Duration":164582,"SoundDuration":164582,"Delta":36673755},{"NoteNumber":66,"Velocity":31,"Duration":164581,"SoundDuration":164581,"Delta":36838337},{"NoteNumber":54,"Velocity":40,"Duration":164582,"SoundDuration":164582,"Delta":37002919},{"NoteNumber":59,"Velocity":31,"Duration":164581,"SoundDuration":164581,"Delta":37167501},{"NoteNumber":63,"Velocity":31,"Duration":164582,"SoundDuration":164582,"Delta":37332083},{"NoteNumber":66,"Velocity":28,"Duration":186846,"SoundDuration":186846,"Delta":37496665},{"NoteNumber":51,"Velocity":36,"Duration":166315,"SoundDuration":166315,"Delta":37683511},{"NoteNumber":54,"Velocity":31,"Duration":166315,"SoundDuration":166315,"Delta":37849826},{"NoteNumber":59,"Velocity":31,"Duration":166315,"SoundDuration":166315,"Delta":38016142},{"NoteNumber":63,"Velocity":30,"Duration":166315,"SoundDuration":166315,"Delta":38182457},{"NoteNumber":69,"Velocity":51,"Duration":632111,"SoundDuration":632111,"Delta":38348773},{"NoteNumber":47,"Velocity":31,"Duration":158027,"SoundDuration":158027,"Delta":38348773},{"NoteNumber":51,"Velocity":26,"Duration":158027,"SoundDuration":158027,"Delta":38506801},{"NoteNumber":54,"Velocity":32,"Duration":158027,"SoundDuration":158027,"Delta":38664828},{"NoteNumber":59,"Velocity":34,"Duration":158027,"SoundDuration":158027,"Delta":38822856},{"NoteNumber":68,"Velocity":57,"Duration":619835,"SoundDuration":619835,"Delta":38980884},{"NoteNumber":47,"Velocity":40,"Duration":154958,"SoundDuration":154958,"Delta":38980884},{"NoteNumber":40,"Velocity":46,"Duration":619835,"SoundDuration":619835,"Delta":38980884},{"NoteNumber":52,"Velocity":26,"Duration":154958,"SoundDuration":154958,"Delta":39135843},{"NoteNumber":56,"Velocity":26,"Duration":154958,"SoundDuration":154958,"Delta":39290801},{"NoteNumber":59,"Velocity":25,"Duration":154958,"SoundDuration":154958,"Delta":39445760},{"NoteNumber":66,"Velocity":48,"Duration":635323,"SoundDuration":635323,"Delta":39600719},{"NoteNumber":47,"Velocity":32,"Duration":158830,"SoundDuration":158830,"Delta":39600719},{"NoteNumber":42,"Velocity":42,"Duration":635323,"SoundDuration":635323,"Delta":39600719},{"NoteNumber":51,"Velocity":25,"Duration":158830,"SoundDuration":158830,"Delta":39759550},{"NoteNumber":57,"Velocity":25,"Duration":158830,"SoundDuration":158830,"Delta":39918381},{"NoteNumber":59,"Velocity":23,"Duration":158830,"SoundDuration":158830,"Delta":40077212},{"NoteNumber":64,"Velocity":48,"Duration":612743,"SoundDuration":612743,"Delta":40236043},{"NoteNumber":47,"Velocity":33,"Duration":161238,"SoundDuration":161238,"Delta":40236043},{"NoteNumber":44,"Velocity":42,"Duration":655752,"SoundDuration":655752,"Delta":40236043},{"NoteNumber":52,"Velocity":27,"Duration":161238,"SoundDuration":161238,"Delta":40397281},{"NoteNumber":56,"Velocity":34,"Duration":161238,"SoundDuration":161238,"Delta":40558519},{"NoteNumber":59,"Velocity":44,"Duration":172038,"SoundDuration":172038,"Delta":40719758},{"NoteNumber":76,"Velocity":66,"Duration":630156,"SoundDuration":630156,"Delta":40891796},{"NoteNumber":54,"Velocity":53,"Duration":157579,"SoundDuration":157579,"Delta":40891796},{"NoteNumber":46,"Velocity":42,"Duration":630156,"SoundDuration":630156,"Delta":40891796},{"NoteNumber":61,"Velocity":31,"Duration":157579,"SoundDuration":157579,"Delta":41049375},{"NoteNumber":64,"Velocity":39,"Duration":157579,"SoundDuration":157579,"Delta":41206955},{"NoteNumber":66,"Velocity":23,"Duration":157417,"SoundDuration":157417,"Delta":41364534},{"NoteNumber":75,"Velocity":62,"Duration":622050,"SoundDuration":622050,"Delta":41521952},{"NoteNumber":54,"Velocity":35,"Duration":156774,"SoundDuration":156774,"Delta":41521952},{"NoteNumber":47,"Velocity":46,"Duration":622050,"SoundDuration":622050,"Delta":41521952},{"NoteNumber":59,"Velocity":26,"Duration":155926,"SoundDuration":155926,"Delta":41678727},{"NoteNumber":63,"Velocity":26,"Duration":155086,"SoundDuration":155086,"Delta":41834653},{"NoteNumber":66,"Velocity":25,"Duration":154262,"SoundDuration":154262,"Delta":41989739},{"NoteNumber":73,"Velocity":52,"Duration":632111,"SoundDuration":632111,"Delta":42144002},{"NoteNumber":54,"Velocity":32,"Duration":158027,"SoundDuration":158027,"Delta":42144002},{"NoteNumber":49,"Velocity":42,"Duration":632111,"SoundDuration":632111,"Delta":42144002},{"NoteNumber":58,"Velocity":25,"Duration":158027,"SoundDuration":158027,"Delta":42302030},{"NoteNumber":64,"Velocity":25,"Duration":158027,"SoundDuration":158027,"Delta":42460057},{"NoteNumber":66,"Velocity":23,"Duration":158027,"SoundDuration":158027,"Delta":42618085},{"NoteNumber":71,"Velocity":52,"Duration":606620,"SoundDuration":606620,"Delta":42776113},{"NoteNumber":54,"Velocity":33,"Duration":157547,"SoundDuration":157547,"Delta":42776113},{"NoteNumber":51,"Velocity":37,"Duration":649778,"SoundDuration":649778,"Delta":42776113},{"NoteNumber":59,"Velocity":27,"Duration":158803,"SoundDuration":158803,"Delta":42933660},{"NoteNumber":63,"Velocity":33,"Duration":160796,"SoundDuration":160796,"Delta":43092464},{"NoteNumber":66,"Velocity":40,"Duration":172632,"SoundDuration":172632,"Delta":43253260},{"NoteNumber":73,"Velocity":61,"Duration":632111,"SoundDuration":632111,"Delta":43425892},{"NoteNumber":56,"Velocity":46,"Duration":158027,"SoundDuration":158027,"Delta":43425892},{"NoteNumber":53,"Velocity":42,"Duration":632111,"SoundDuration":632111,"Delta":43425892},{"NoteNumber":59,"Velocity":26,"Duration":158027,"SoundDuration":158027,"Delta":43583920},{"NoteNumber":61,"Velocity":25,"Duration":158027,"SoundDuration":158027,"Delta":43741947},{"NoteNumber":68,"Velocity":23,"Duration":158027,"SoundDuration":158027,"Delta":43899975},{"NoteNumber":69,"Velocity":62,"Duration":632111,"SoundDuration":632111,"Delta":44058003},{"NoteNumber":54,"Velocity":46,"Duration":632111,"SoundDuration":632111,"Delta":44058003},{"NoteNumber":57,"Velocity":26,"Duration":158027,"SoundDuration":158027,"Delta":44216031},{"NoteNumber":61,"Velocity":26,"Duration":158027,"SoundDuration":158027,"Delta":44374058},{"NoteNumber":64,"Velocity":25,"Duration":158027,"SoundDuration":158027,"Delta":44532086},{"NoteNumber":71,"Velocity":52,"Duration":316055,"SoundDuration":316055,"Delta":44690114},{"NoteNumber":54,"Velocity":32,"Duration":158027,"SoundDuration":158027,"Delta":44690114},{"NoteNumber":47,"Velocity":42,"Duration":632110,"SoundDuration":632110,"Delta":44690114},{"NoteNumber":57,"Velocity":25,"Duration":158027,"SoundDuration":158027,"Delta":44848142},{"NoteNumber":66,"Velocity":47,"Duration":316055,"SoundDuration":316055,"Delta":45006169},{"NoteNumber":59,"Velocity":25,"Duration":158027,"SoundDuration":158027,"Delta":45006169},{"NoteNumber":63,"Velocity":23,"Duration":158027,"SoundDuration":158027,"Delta":45164197},{"NoteNumber":68,"Velocity":52,"Duration":306905,"SoundDuration":306905,"Delta":45322225},{"NoteNumber":52,"Velocity":42,"Duration":628799,"SoundDuration":628799,"Delta":45322225},{"NoteNumber":56,"Velocity":25,"Duration":153452,"SoundDuration":153452,"Delta":45475678},{"NoteNumber":69,"Velocity":50,"Duration":79365,"SoundDuration":79365,"Delta":45629130},{"NoteNumber":59,"Velocity":25,"Duration":158730,"SoundDuration":158730,"Delta":45629130},{"NoteNumber":68,"Velocity":39,"Duration":79365,"SoundDuration":79365,"Delta":45708495},{"NoteNumber":66,"Velocity":42,"Duration":79365,"SoundDuration":79365,"Delta":45787861},{"NoteNumber":64,"Velocity":24,"Duration":163164,"SoundDuration":163164,"Delta":45787861},{"NoteNumber":68,"Velocity":34,"Duration":83798,"SoundDuration":83798,"Delta":45867226},{"NoteNumber":71,"Velocity":52,"Duration":319149,"SoundDuration":319149,"Delta":45951025},{"NoteNumber":52,"Velocity":31,"Duration":159574,"SoundDuration":159574,"Delta":45951025},{"NoteNumber":45,"Velocity":42,"Duration":645236,"SoundDuration":645236,"Delta":45951025},{"NoteNumber":54,"Velocity":26,"Duration":159574,"SoundDuration":159574,"Delta":46110599},{"NoteNumber":69,"Velocity":52,"Duration":326087,"SoundDuration":326087,"Delta":46270174},{"NoteNumber":61,"Velocity":25,"Duration":163043,"SoundDuration":163043,"Delta":46270174},{"NoteNumber":64,"Velocity":23,"Duration":163043,"SoundDuration":163043,"Delta":46433217},{"NoteNumber":68,"Velocity":52,"Duration":1338559,"SoundDuration":1338559,"Delta":46596261},{"NoteNumber":52,"Velocity":35,"Duration":164491,"SoundDuration":164491,"Delta":46596261},{"NoteNumber":47,"Velocity":46,"Duration":1338559,"SoundDuration":1338559,"Delta":46596261},{"NoteNumber":56,"Velocity":26,"Duration":164491,"SoundDuration":164491,"Delta":46760752},{"NoteNumber":59,"Velocity":26,"Duration":164491,"SoundDuration":164491,"Delta":46925244},{"NoteNumber":64,"Velocity":25,"Duration":164491,"SoundDuration":164491,"Delta":47089736},{"NoteNumber":52,"Velocity":32,"Duration":164582,"SoundDuration":164582,"Delta":47254228},{"NoteNumber":56,"Velocity":25,"Duration":164581,"SoundDuration":164581,"Delta":47418810},{"NoteNumber":59,"Velocity":25,"Duration":164582,"SoundDuration":164582,"Delta":47583392},{"NoteNumber":64,"Velocity":23,"Duration":186846,"SoundDuration":186846,"Delta":47747974},{"NoteNumber":66,"Velocity":48,"Duration":332630,"SoundDuration":332630,"Delta":47934820},{"NoteNumber":51,"Velocity":29,"Duration":166315,"SoundDuration":166315,"Delta":47934820},{"NoteNumber":47,"Velocity":38,"Duration":332630,"SoundDuration":332630,"Delta":47934820},{"NoteNumber":54,"Velocity":25,"Duration":166315,"SoundDuration":166315,"Delta":48101135},{"NoteNumber":59,"Velocity":25,"Duration":166315,"SoundDuration":166315,"Delta":48267451},{"NoteNumber":63,"Velocity":24,"Duration":166315,"SoundDuration":166315,"Delta":48433766},{"NoteNumber":69,"Velocity":51,"Duration":633669,"SoundDuration":633669,"Delta":48600082},{"NoteNumber":47,"Velocity":31,"Duration":160231,"SoundDuration":160231,"Delta":48600082},{"NoteNumber":39,"Velocity":42,"Duration":633669,"SoundDuration":633669,"Delta":48600082},{"NoteNumber":54,"Velocity":27,"Duration":159117,"SoundDuration":159117,"Delta":48760313},{"NoteNumber":57,"Velocity":29,"Duration":157764,"SoundDuration":157764,"Delta":48919430},{"NoteNumber":59,"Velocity":32,"Duration":156556,"SoundDuration":156556,"Delta":49077195},{"NoteNumber":68,"Velocity":57,"Duration":621775,"SoundDuration":621775,"Delta":49233752},{"NoteNumber":47,"Velocity":40,"Duration":155453,"SoundDuration":155453,"Delta":49233752},{"NoteNumber":40,"Velocity":46,"Duration":621775,"SoundDuration":621775,"Delta":49233752},{"NoteNumber":52,"Velocity":26,"Duration":155440,"SoundDuration":155440,"Delta":49389206},{"NoteNumber":56,"Velocity":29,"Duration":155440,"SoundDuration":155440,"Delta":49544646},{"NoteNumber":59,"Velocity":31,"Duration":155440,"SoundDuration":155440,"Delta":49700087},{"NoteNumber":66,"Velocity":48,"Duration":635323,"SoundDuration":635323,"Delta":49855527},{"NoteNumber":47,"Velocity":38,"Duration":158830,"SoundDuration":158830,"Delta":49855527},{"NoteNumber":42,"Velocity":42,"Duration":635323,"SoundDuration":635323,"Delta":49855527},{"NoteNumber":51,"Velocity":25,"Duration":158830,"SoundDuration":158830,"Delta":50014358},{"NoteNumber":57,"Velocity":30,"Duration":158830,"SoundDuration":158830,"Delta":50173189},{"NoteNumber":59,"Velocity":26,"Duration":158830,"SoundDuration":158830,"Delta":50332020},{"NoteNumber":64,"Velocity":48,"Duration":618316,"SoundDuration":618316,"Delta":50490851},{"NoteNumber":47,"Velocity":33,"Duration":161238,"SoundDuration":161238,"Delta":50490851},{"NoteNumber":44,"Velocity":42,"Duration":663183,"SoundDuration":663183,"Delta":50490851},{"NoteNumber":52,"Velocity":29,"Duration":161238,"SoundDuration":161238,"Delta":50652089},{"NoteNumber":56,"Velocity":31,"Duration":161238,"SoundDuration":161238,"Delta":50813328},{"NoteNumber":59,"Velocity":36,"Duration":179468,"SoundDuration":179468,"Delta":50974566},{"NoteNumber":76,"Velocity":70,"Duration":643845,"SoundDuration":643845,"Delta":51154035},{"NoteNumber":54,"Velocity":42,"Duration":160961,"SoundDuration":160961,"Delta":51154035},{"NoteNumber":46,"Velocity":42,"Duration":643845,"SoundDuration":643845,"Delta":51154035},{"NoteNumber":61,"Velocity":30,"Duration":160961,"SoundDuration":160961,"Delta":51314996},{"NoteNumber":64,"Velocity":32,"Duration":160961,"SoundDuration":160961,"Delta":51475958},{"NoteNumber":66,"Velocity":29,"Duration":160961,"SoundDuration":160961,"Delta":51636919},{"NoteNumber":75,"Velocity":71,"Duration":614187,"SoundDuration":614187,"Delta":51797881},{"NoteNumber":54,"Velocity":35,"Duration":153547,"SoundDuration":153547,"Delta":51797881},{"NoteNumber":47,"Velocity":46,"Duration":614187,"SoundDuration":614187,"Delta":51797881},{"NoteNumber":59,"Velocity":26,"Duration":153546,"SoundDuration":153546,"Delta":51951428},{"NoteNumber":63,"Velocity":26,"Duration":153547,"SoundDuration":153547,"Delta":52104975},{"NoteNumber":66,"Velocity":25,"Duration":153546,"SoundDuration":153546,"Delta":52258522},{"NoteNumber":73,"Velocity":54,"Duration":632111,"SoundDuration":632111,"Delta":52412069},{"NoteNumber":54,"Velocity":32,"Duration":158027,"SoundDuration":158027,"Delta":52412069},{"NoteNumber":49,"Velocity":42,"Duration":632111,"SoundDuration":632111,"Delta":52412069},{"NoteNumber":58,"Velocity":25,"Duration":158027,"SoundDuration":158027,"Delta":52570096},{"NoteNumber":64,"Velocity":25,"Duration":158027,"SoundDuration":158027,"Delta":52728124},{"NoteNumber":66,"Velocity":23,"Duration":158027,"SoundDuration":158027,"Delta":52886152},{"NoteNumber":71,"Velocity":64,"Duration":600133,"SoundDuration":600133,"Delta":53044180},{"NoteNumber":54,"Velocity":33,"Duration":158027,"SoundDuration":158027,"Delta":53044180},{"NoteNumber":51,"Velocity":37,"Duration":642150,"SoundDuration":642150,"Delta":53044180},{"NoteNumber":59,"Velocity":38,"Duration":158027,"SoundDuration":158027,"Delta":53202207},{"NoteNumber":63,"Velocity":39,"Duration":158027,"SoundDuration":158027,"Delta":53360235},{"NoteNumber":66,"Velocity":48,"Duration":168067,"SoundDuration":168067,"Delta":53518263},{"NoteNumber":80,"Velocity":78,"Duration":672269,"SoundDuration":672269,"Delta":53686330},{"NoteNumber":59,"Velocity":54,"Duration":168067,"SoundDuration":168067,"Delta":53686330},{"NoteNumber":52,"Velocity":42,"Duration":672269,"SoundDuration":672269,"Delta":53686330},{"NoteNumber":61,"Velocity":35,"Duration":168067,"SoundDuration":168067,"Delta":53854397},{"NoteNumber":68,"Velocity":40,"Duration":168067,"SoundDuration":168067,"Delta":54022465},{"NoteNumber":71,"Velocity":33,"Duration":168067,"SoundDuration":168067,"Delta":54190532},{"NoteNumber":73,"Velocity":67,"Duration":1960807,"SoundDuration":1960807,"Delta":54358599},{"NoteNumber":59,"Velocity":42,"Duration":163737,"SoundDuration":163737,"Delta":54358599},{"NoteNumber":49,"Velocity":48,"Duration":654949,"SoundDuration":654949,"Delta":54358599},{"NoteNumber":61,"Velocity":29,"Duration":163737,"SoundDuration":163737,"Delta":54522337},{"NoteNumber":68,"Velocity":29,"Duration":163737,"SoundDuration":163737,"Delta":54686074},{"NoteNumber":71,"Velocity":29,"Duration":163737,"SoundDuration":163737,"Delta":54849812},{"NoteNumber":59,"Velocity":38,"Duration":168067,"SoundDuration":168067,"Delta":55013549},{"NoteNumber":56,"Velocity":54,"Duration":672269,"SoundDuration":672269,"Delta":55013549},{"NoteNumber":61,"Velocity":26,"Duration":168067,"SoundDuration":168067,"Delta":55181616},{"NoteNumber":68,"Velocity":26,"Duration":168067,"SoundDuration":168067,"Delta":55349684},{"NoteNumber":71,"Velocity":26,"Duration":168067,"SoundDuration":168067,"Delta":55517751},{"NoteNumber":59,"Velocity":35,"Duration":168956,"SoundDuration":168956,"Delta":55685818},{"NoteNumber":52,"Velocity":49,"Duration":2068357,"SoundDuration":2068357,"Delta":55685818},{"NoteNumber":61,"Velocity":27,"Duration":168956,"SoundDuration":168956,"Delta":55854775},{"NoteNumber":68,"Velocity":27,"Duration":168956,"SoundDuration":168956,"Delta":56023732},{"NoteNumber":71,"Velocity":27,"Duration":168957,"SoundDuration":168957,"Delta":56192689},{"NoteNumber":80,"Velocity":54,"Duration":690528,"SoundDuration":690528,"Delta":56361646},{"NoteNumber":59,"Velocity":35,"Duration":172632,"SoundDuration":172632,"Delta":56361646},{"NoteNumber":61,"Velocity":18,"Duration":172632,"SoundDuration":172632,"Delta":56534278},{"NoteNumber":68,"Velocity":19,"Duration":172632,"SoundDuration":172632,"Delta":56706910},{"NoteNumber":71,"Velocity":20,"Duration":172632,"SoundDuration":172632,"Delta":56879542},{"NoteNumber":73,"Velocity":47,"Duration":2088907,"SoundDuration":2088907,"Delta":57052174},{"NoteNumber":59,"Velocity":29,"Duration":175500,"SoundDuration":175500,"Delta":57052174},{"NoteNumber":61,"Velocity":20,"Duration":175500,"SoundDuration":175500,"Delta":57227674},{"NoteNumber":68,"Velocity":20,"Duration":175500,"SoundDuration":175500,"Delta":57403175},{"NoteNumber":71,"Velocity":20,"Duration":175500,"SoundDuration":175500,"Delta":57578675},{"NoteNumber":59,"Velocity":26,"Duration":180723,"SoundDuration":180723,"Delta":57754175},{"NoteNumber":56,"Velocity":37,"Duration":732379,"SoundDuration":732379,"Delta":57754175},{"NoteNumber":61,"Velocity":18,"Duration":180723,"SoundDuration":180723,"Delta":57934898},{"NoteNumber":68,"Velocity":18,"Duration":180723,"SoundDuration":180723,"Delta":58115621},{"NoteNumber":71,"Velocity":18,"Duration":190210,"SoundDuration":190210,"Delta":58296344},{"NoteNumber":59,"Velocity":24,"Duration":174540,"SoundDuration":174540,"Delta":58486555},{"NoteNumber":53,"Velocity":34,"Duration":1349082,"SoundDuration":1349082,"Delta":58486555},{"NoteNumber":61,"Velocity":18,"Duration":174540,"SoundDuration":174540,"Delta":58661095},{"NoteNumber":68,"Velocity":18,"Duration":174540,"SoundDuration":174540,"Delta":58835636},{"NoteNumber":71,"Velocity":18,"Duration":174540,"SoundDuration":174540,"Delta":59010176},{"NoteNumber":73,"Velocity":56,"Duration":637692,"SoundDuration":637692,"Delta":59184717},{"NoteNumber":59,"Velocity":31,"Duration":165895,"SoundDuration":165895,"Delta":59184717},{"NoteNumber":61,"Velocity":26,"Duration":163863,"SoundDuration":163863,"Delta":59350612},{"NoteNumber":68,"Velocity":25,"Duration":161655,"SoundDuration":161655,"Delta":59514475},{"NoteNumber":71,"Velocity":23,"Duration":159506,"SoundDuration":159506,"Delta":59676131},{"NoteNumber":73,"Velocity":62,"Duration":631592,"SoundDuration":631592,"Delta":59835637},{"NoteNumber":58,"Velocity":29,"Duration":157908,"SoundDuration":157908,"Delta":59835637},{"NoteNumber":54,"Velocity":46,"Duration":631592,"SoundDuration":631592,"Delta":59835637},{"NoteNumber":61,"Velocity":25,"Duration":157894,"SoundDuration":157894,"Delta":59993545},{"NoteNumber":66,"Velocity":29,"Duration":157894,"SoundDuration":157894,"Delta":60151440},{"NoteNumber":70,"Velocity":25,"Duration":157894,"SoundDuration":157894,"Delta":60309335},{"NoteNumber":76,"Velocity":57,"Duration":631579,"SoundDuration":631579,"Delta":60467230},{"NoteNumber":54,"Velocity":32,"Duration":157894,"SoundDuration":157894,"Delta":60467230},{"NoteNumber":46,"Velocity":42,"Duration":631579,"SoundDuration":631579,"Delta":60467230},{"NoteNumber":61,"Velocity":25,"Duration":157894,"SoundDuration":157894,"Delta":60625124},{"NoteNumber":64,"Velocity":25,"Duration":157894,"SoundDuration":157894,"Delta":60783019},{"NoteNumber":66,"Velocity":23,"Duration":157894,"SoundDuration":157894,"Delta":60940914},{"NoteNumber":75,"Velocity":51,"Duration":643745,"SoundDuration":643745,"Delta":61098809},{"NoteNumber":54,"Velocity":29,"Duration":154958,"SoundDuration":154958,"Delta":61098809},{"NoteNumber":47,"Velocity":42,"Duration":643745,"SoundDuration":643745,"Delta":61098809},{"NoteNumber":59,"Velocity":25,"Duration":154958,"SoundDuration":154958,"Delta":61253767},{"NoteNumber":63,"Velocity":25,"Duration":159629,"SoundDuration":159629,"Delta":61408726},{"NoteNumber":66,"Velocity":24,"Duration":174198,"SoundDuration":174198,"Delta":61568355},{"NoteNumber":73,"Velocity":50,"Duration":327474,"SoundDuration":327474,"Delta":61742554},{"NoteNumber":52,"Velocity":42,"Duration":670681,"SoundDuration":670681,"Delta":61742554},{"NoteNumber":56,"Velocity":26,"Duration":163737,"SoundDuration":163737,"Delta":61906292},{"NoteNumber":68,"Velocity":44,"Duration":343206,"SoundDuration":343206,"Delta":62070029},{"NoteNumber":61,"Velocity":25,"Duration":163737,"SoundDuration":163737,"Delta":62070029},{"NoteNumber":64,"Velocity":23,"Duration":179468,"SoundDuration":179468,"Delta":62233767},{"NoteNumber":71,"Velocity":50,"Duration":1338920,"SoundDuration":1338920,"Delta":62413236},{"NoteNumber":54,"Velocity":46,"Duration":658327,"SoundDuration":658327,"Delta":62413236},{"NoteNumber":59,"Velocity":26,"Duration":164581,"SoundDuration":164581,"Delta":62577818},{"NoteNumber":63,"Velocity":26,"Duration":164582,"SoundDuration":164582,"Delta":62742400},{"NoteNumber":66,"Velocity":25,"Duration":164581,"SoundDuration":164581,"Delta":62906982},{"NoteNumber":54,"Velocity":32,"Duration":164582,"SoundDuration":164582,"Delta":63071564},{"NoteNumber":59,"Velocity":25,"Duration":164581,"SoundDuration":164581,"Delta":63236146},{"NoteNumber":63,"Velocity":25,"Duration":164582,"SoundDuration":164582,"Delta":63400728},{"NoteNumber":66,"Velocity":23,"Duration":186846,"SoundDuration":186846,"Delta":63565310},{"NoteNumber":70,"Velocity":44,"Duration":1330523,"SoundDuration":1330523,"Delta":63752156},{"NoteNumber":54,"Velocity":29,"Duration":166315,"SoundDuration":166315,"Delta":63752156},{"NoteNumber":61,"Velocity":31,"Duration":166315,"SoundDuration":166315,"Delta":63918471},{"NoteNumber":64,"Velocity":38,"Duration":166315,"SoundDuration":166315,"Delta":64084787},{"NoteNumber":66,"Velocity":44,"Duration":166315,"SoundDuration":166315,"Delta":64251102},{"NoteNumber":54,"Velocity":49,"Duration":166315,"SoundDuration":166315,"Delta":64417418},{"NoteNumber":42,"Velocity":38,"Duration":1323589,"SoundDuration":1323589,"Delta":64417418},{"NoteNumber":61,"Velocity":33,"Duration":166315,"SoundDuration":166315,"Delta":64583733},{"NoteNumber":64,"Velocity":41,"Duration":166315,"SoundDuration":166315,"Delta":64750049},{"NoteNumber":66,"Velocity":31,"Duration":166315,"SoundDuration":166315,"Delta":64916364},{"NoteNumber":69,"Velocity":43,"Duration":1338920,"SoundDuration":1338920,"Delta":65082680},{"NoteNumber":54,"Velocity":32,"Duration":164581,"SoundDuration":164581,"Delta":65082680},{"NoteNumber":60,"Velocity":26,"Duration":164582,"SoundDuration":164582,"Delta":65247262},{"NoteNumber":63,"Velocity":30,"Duration":164581,"SoundDuration":164581,"Delta":65411844},{"NoteNumber":66,"Velocity":38,"Duration":164581,"SoundDuration":164581,"Delta":65576426},{"NoteNumber":54,"Velocity":41,"Duration":164581,"SoundDuration":164581,"Delta":65741008},{"NoteNumber":42,"Velocity":40,"Duration":680592,"SoundDuration":680592,"Delta":65741008},{"NoteNumber":60,"Velocity":25,"Duration":164582,"SoundDuration":164582,"Delta":65905590},{"NoteNumber":63,"Velocity":25,"Duration":164581,"SoundDuration":164581,"Delta":66070172},{"NoteNumber":66,"Velocity":23,"Duration":186846,"SoundDuration":186846,"Delta":66234754},{"NoteNumber":68,"Velocity":36,"Duration":332631,"SoundDuration":332631,"Delta":66421600},{"NoteNumber":52,"Velocity":29,"Duration":166315,"SoundDuration":166315,"Delta":66421600},{"NoteNumber":40,"Velocity":34,"Duration":665261,"SoundDuration":665261,"Delta":66421600},{"NoteNumber":56,"Velocity":25,"Duration":166315,"SoundDuration":166315,"Delta":66587915},{"NoteNumber":61,"Velocity":25,"Duration":166315,"SoundDuration":166315,"Delta":66754231},{"NoteNumber":64,"Velocity":24,"Duration":152455,"SoundDuration":152455,"Delta":66920546},{"NoteNumber":68,"Velocity":63,"Duration":632110,"SoundDuration":632110,"Delta":67086862},{"NoteNumber":52,"Velocity":31,"Duration":158027,"SoundDuration":158027,"Delta":67086862},{"NoteNumber":39,"Velocity":39,"Duration":632110,"SoundDuration":632110,"Delta":67086862},{"NoteNumber":56,"Velocity":30,"Duration":158027,"SoundDuration":158027,"Delta":67244889},{"NoteNumber":61,"Velocity":33,"Duration":158027,"SoundDuration":158027,"Delta":67402917},{"NoteNumber":64,"Velocity":38,"Duration":158027,"SoundDuration":158027,"Delta":67560945},{"NoteNumber":70,"Velocity":70,"Duration":632111,"SoundDuration":632111,"Delta":67718973},{"NoteNumber":52,"Velocity":45,"Duration":158027,"SoundDuration":158027,"Delta":67718973},{"NoteNumber":37,"Velocity":48,"Duration":632111,"SoundDuration":632111,"Delta":67718973},{"NoteNumber":58,"Velocity":30,"Duration":158027,"SoundDuration":158027,"Delta":67877000},{"NoteNumber":64,"Velocity":32,"Duration":158027,"SoundDuration":158027,"Delta":68035028},{"NoteNumber":66,"Velocity":41,"Duration":158027,"SoundDuration":158027,"Delta":68193056},{"NoteNumber":71,"Velocity":81,"Duration":632110,"SoundDuration":632110,"Delta":68351084},{"NoteNumber":52,"Velocity":46,"Duration":158027,"SoundDuration":158027,"Delta":68351084},{"NoteNumber":47,"Velocity":53,"Duration":632110,"SoundDuration":632110,"Delta":68351084},{"NoteNumber":59,"Velocity":33,"Duration":158027,"SoundDuration":158027,"Delta":68509111},{"NoteNumber":64,"Velocity":43,"Duration":158027,"SoundDuration":158027,"Delta":68667139},{"NoteNumber":66,"Velocity":53,"Duration":158027,"SoundDuration":158027,"Delta":68825167},{"NoteNumber":75,"Velocity":89,"Duration":645257,"SoundDuration":645257,"Delta":68983195},{"NoteNumber":54,"Velocity":58,"Duration":155714,"SoundDuration":155714,"Delta":68983195},{"NoteNumber":46,"Velocity":57,"Duration":645257,"SoundDuration":645257,"Delta":68983195},{"NoteNumber":61,"Velocity":40,"Duration":155714,"SoundDuration":155714,"Delta":69138909},{"NoteNumber":64,"Velocity":46,"Duration":159629,"SoundDuration":159629,"Delta":69294624},{"NoteNumber":66,"Velocity":38,"Duration":174198,"SoundDuration":174198,"Delta":69454253},{"NoteNumber":73,"Velocity":75,"Duration":491212,"SoundDuration":491212,"Delta":69628452},{"NoteNumber":54,"Velocity":40,"Duration":163737,"SoundDuration":163737,"Delta":69628452},{"NoteNumber":42,"Velocity":62,"Duration":670681,"SoundDuration":670681,"Delta":69628452},{"NoteNumber":58,"Velocity":32,"Duration":163737,"SoundDuration":163737,"Delta":69792190},{"NoteNumber":64,"Velocity":31,"Duration":163737,"SoundDuration":163737,"Delta":69955927},{"NoteNumber":71,"Velocity":67,"Duration":164513,"SoundDuration":164513,"Delta":70119665},{"NoteNumber":66,"Velocity":28,"Duration":179468,"SoundDuration":179468,"Delta":70119665},{"NoteNumber":71,"Velocity":80,"Duration":1338920,"SoundDuration":1338920,"Delta":70299134},{"NoteNumber":54,"Velocity":36,"Duration":164581,"SoundDuration":164581,"Delta":70299134},{"NoteNumber":47,"Velocity":55,"Duration":2004182,"SoundDuration":2004182,"Delta":70299134},{"NoteNumber":59,"Velocity":32,"Duration":164582,"SoundDuration":164582,"Delta":70463716},{"NoteNumber":63,"Velocity":32,"Duration":164581,"SoundDuration":164581,"Delta":70628298},{"NoteNumber":66,"Velocity":31,"Duration":164581,"SoundDuration":164581,"Delta":70792880},{"NoteNumber":54,"Velocity":40,"Duration":164581,"SoundDuration":164581,"Delta":70957462},{"NoteNumber":59,"Velocity":31,"Duration":164582,"SoundDuration":164582,"Delta":71122044},{"NoteNumber":63,"Velocity":31,"Duration":164581,"SoundDuration":164581,"Delta":71286626},{"NoteNumber":66,"Velocity":28,"Duration":186846,"SoundDuration":186846,"Delta":71451208},{"NoteNumber":51,"Velocity":36,"Duration":166315,"SoundDuration":166315,"Delta":71638054},{"NoteNumber":54,"Velocity":31,"Duration":166315,"SoundDuration":166315,"Delta":71804369},{"NoteNumber":59,"Velocity":31,"Duration":166315,"SoundDuration":166315,"Delta":71970685},{"NoteNumber":63,"Velocity":30,"Duration":166315,"SoundDuration":166315,"Delta":72137000},{"NoteNumber":66,"Velocity":51,"Duration":223457,"SoundDuration":223457,"Delta":72303316},{"NoteNumber":51,"Velocity":31,"Duration":148972,"SoundDuration":148972,"Delta":72303316},{"NoteNumber":54,"Velocity":26,"Duration":148972,"SoundDuration":148972,"Delta":72452288},{"NoteNumber":66,"Velocity":51,"Duration":235134,"SoundDuration":235134,"Delta":72601260},{"NoteNumber":59,"Velocity":32,"Duration":156756,"SoundDuration":156756,"Delta":72601260},{"NoteNumber":63,"Velocity":34,"Duration":156756,"SoundDuration":156756,"Delta":72758016},{"NoteNumber":67,"Velocity":57,"Duration":619834,"SoundDuration":619834,"Delta":72914772},{"NoteNumber":47,"Velocity":40,"Duration":154958,"SoundDuration":154958,"Delta":72914772},{"NoteNumber":40,"Velocity":46,"Duration":1255158,"SoundDuration":1255158,"Delta":72914772},{"NoteNumber":52,"Velocity":26,"Duration":154958,"SoundDuration":154958,"Delta":73069731},{"NoteNumber":55,"Velocity":26,"Duration":154958,"SoundDuration":154958,"Delta":73224690},{"NoteNumber":59,"Velocity":26,"Duration":154958,"SoundDuration":154958,"Delta":73379648},{"NoteNumber":66,"Velocity":50,"Duration":317661,"SoundDuration":317661,"Delta":73534607},{"NoteNumber":47,"Velocity":33,"Duration":158831,"SoundDuration":158831,"Delta":73534607},{"NoteNumber":52,"Velocity":26,"Duration":158830,"SoundDuration":158830,"Delta":73693438},{"NoteNumber":64,"Velocity":51,"Duration":317661,"SoundDuration":317661,"Delta":73852269},{"NoteNumber":55,"Velocity":27,"Duration":158831,"SoundDuration":158831,"Delta":73852269},{"NoteNumber":59,"Velocity":25,"Duration":158830,"SoundDuration":158830,"Delta":74011100},{"NoteNumber":69,"Velocity":53,"Duration":618316,"SoundDuration":618316,"Delta":74169931},{"NoteNumber":48,"Velocity":36,"Duration":161238,"SoundDuration":161238,"Delta":74169931},{"NoteNumber":42,"Velocity":46,"Duration":663183,"SoundDuration":663183,"Delta":74169931},{"NoteNumber":50,"Velocity":30,"Duration":161238,"SoundDuration":161238,"Delta":74331169},{"NoteNumber":57,"Velocity":38,"Duration":161238,"SoundDuration":161238,"Delta":74492408},{"NoteNumber":60,"Velocity":51,"Duration":179468,"SoundDuration":179468,"Delta":74653646},{"NoteNumber":69,"Velocity":65,"Duration":222353,"SoundDuration":222353,"Delta":74833115},{"NoteNumber":50,"Velocity":49,"Duration":606010,"SoundDuration":606010,"Delta":74833115},{"NoteNumber":54,"Velocity":36,"Duration":148235,"SoundDuration":148235,"Delta":74981351},{"NoteNumber":69,"Velocity":64,"Duration":231505,"SoundDuration":231505,"Delta":75129587},{"NoteNumber":60,"Velocity":46,"Duration":154336,"SoundDuration":154336,"Delta":75129587},{"NoteNumber":62,"Velocity":27,"Duration":155201,"SoundDuration":155201,"Delta":75283923},{"NoteNumber":71,"Velocity":75,"Duration":619834,"SoundDuration":619834,"Delta":75439125},{"NoteNumber":50,"Velocity":49,"Duration":154958,"SoundDuration":154958,"Delta":75439125},{"NoteNumber":43,"Velocity":56,"Duration":1255158,"SoundDuration":1255158,"Delta":75439125},{"NoteNumber":55,"Velocity":32,"Duration":154958,"SoundDuration":154958,"Delta":75594084},{"NoteNumber":59,"Velocity":32,"Duration":154958,"SoundDuration":154958,"Delta":75749042},{"NoteNumber":62,"Velocity":31,"Duration":154958,"SoundDuration":154958,"Delta":75904001},{"NoteNumber":69,"Velocity":61,"Duration":317661,"SoundDuration":317661,"Delta":76058960},{"NoteNumber":52,"Velocity":41,"Duration":158831,"SoundDuration":158831,"Delta":76058960},{"NoteNumber":55,"Velocity":32,"Duration":158830,"SoundDuration":158830,"Delta":76217791},{"NoteNumber":67,"Velocity":63,"Duration":317661,"SoundDuration":317661,"Delta":76376622},{"NoteNumber":59,"Velocity":33,"Duration":158831,"SoundDuration":158831,"Delta":76376622},{"NoteNumber":64,"Velocity":30,"Duration":158830,"SoundDuration":158830,"Delta":76535453},{"NoteNumber":72,"Velocity":69,"Duration":618316,"SoundDuration":618316,"Delta":76694284},{"NoteNumber":52,"Velocity":44,"Duration":161238,"SoundDuration":161238,"Delta":76694284},{"NoteNumber":45,"Velocity":56,"Duration":1281634,"SoundDuration":1281634,"Delta":76694284},{"NoteNumber":57,"Velocity":36,"Duration":161238,"SoundDuration":161238,"Delta":76855522},{"NoteNumber":60,"Velocity":46,"Duration":161238,"SoundDuration":161238,"Delta":77016760},{"NoteNumber":64,"Velocity":42,"Duration":179468,"SoundDuration":179468,"Delta":77177999},{"NoteNumber":72,"Velocity":78,"Duration":227986,"SoundDuration":227986,"Delta":77357467},{"NoteNumber":51,"Velocity":46,"Duration":151990,"SoundDuration":151990,"Delta":77357467},{"NoteNumber":57,"Velocity":44,"Duration":151991,"SoundDuration":151991,"Delta":77509458},{"NoteNumber":72,"Velocity":72,"Duration":234900,"SoundDuration":234900,"Delta":77661449},{"NoteNumber":60,"Velocity":55,"Duration":153547,"SoundDuration":153547,"Delta":77661449},{"NoteNumber":66,"Velocity":33,"Duration":160921,"SoundDuration":160921,"Delta":77814996},{"NoteNumber":74,"Velocity":86,"Duration":619834,"SoundDuration":619834,"Delta":77975918},{"NoteNumber":50,"Velocity":58,"Duration":154958,"SoundDuration":154958,"Delta":77975918},{"NoteNumber":47,"Velocity":67,"Duration":1270362,"SoundDuration":1270362,"Delta":77975918},{"NoteNumber":55,"Velocity":38,"Duration":154958,"SoundDuration":154958,"Delta":78130877},{"NoteNumber":62,"Velocity":38,"Duration":154958,"SoundDuration":154958,"Delta":78285836},{"NoteNumber":67,"Velocity":37,"Duration":154958,"SoundDuration":154958,"Delta":78440794},{"NoteNumber":72,"Velocity":72,"Duration":317661,"SoundDuration":317661,"Delta":78595753},{"NoteNumber":55,"Velocity":48,"Duration":158831,"SoundDuration":158831,"Delta":78595753},{"NoteNumber":59,"Velocity":38,"Duration":158830,"SoundDuration":158830,"Delta":78754584},{"NoteNumber":71,"Velocity":74,"Duration":332865,"SoundDuration":332865,"Delta":78913415},{"NoteNumber":62,"Velocity":38,"Duration":158831,"SoundDuration":158831,"Delta":78913415},{"NoteNumber":67,"Velocity":35,"Duration":174034,"SoundDuration":174034,"Delta":79072246},{"NoteNumber":79,"Velocity":86,"Duration":618316,"SoundDuration":618316,"Delta":79246280},{"NoteNumber":55,"Velocity":52,"Duration":161238,"SoundDuration":161238,"Delta":79246280},{"NoteNumber":48,"Velocity":66,"Duration":1283686,"SoundDuration":1283686,"Delta":79246280},{"NoteNumber":64,"Velocity":45,"Duration":161238,"SoundDuration":161238,"Delta":79407518},{"NoteNumber":67,"Velocity":54,"Duration":161238,"SoundDuration":161238,"Delta":79568757},{"NoteNumber":72,"Velocity":63,"Duration":179468,"SoundDuration":179468,"Delta":79729995},{"NoteNumber":78,"Velocity":85,"Duration":309917,"SoundDuration":309917,"Delta":79909464},{"NoteNumber":55,"Velocity":56,"Duration":154958,"SoundDuration":154958,"Delta":79909464},{"NoteNumber":64,"Velocity":52,"Duration":154958,"SoundDuration":154958,"Delta":80064422},{"NoteNumber":76,"Velocity":70,"Duration":310585,"SoundDuration":310585,"Delta":80219381},{"NoteNumber":67,"Velocity":56,"Duration":154958,"SoundDuration":154958,"Delta":80219381},{"NoteNumber":72,"Velocity":39,"Duration":155626,"SoundDuration":155626,"Delta":80374340},{"NoteNumber":74,"Velocity":81,"Duration":607083,"SoundDuration":607083,"Delta":80529967},{"NoteNumber":54,"Velocity":52,"Duration":161238,"SoundDuration":161238,"Delta":80529967},{"NoteNumber":50,"Velocity":66,"Duration":648206,"SoundDuration":648206,"Delta":80529967},{"NoteNumber":60,"Velocity":45,"Duration":161238,"SoundDuration":161238,"Delta":80691205},{"NoteNumber":62,"Velocity":54,"Duration":161238,"SoundDuration":161238,"Delta":80852443},{"NoteNumber":69,"Velocity":50,"Duration":164491,"SoundDuration":164491,"Delta":81013681},{"NoteNumber":74,"Velocity":74,"Duration":620502,"SoundDuration":620502,"Delta":81178173},{"NoteNumber":55,"Velocity":56,"Duration":154958,"SoundDuration":154958,"Delta":81178173},{"NoteNumber":52,"Velocity":62,"Duration":620502,"SoundDuration":620502,"Delta":81178173},{"NoteNumber":60,"Velocity":52,"Duration":154958,"SoundDuration":154958,"Delta":81333132},{"NoteNumber":62,"Velocity":56,"Duration":154958,"SoundDuration":154958,"Delta":81488091},{"NoteNumber":67,"Velocity":39,"Duration":155626,"SoundDuration":155626,"Delta":81643049},{"NoteNumber":74,"Velocity":68,"Duration":157068,"SoundDuration":157068,"Delta":81798676},{"NoteNumber":62,"Velocity":62,"Duration":628272,"SoundDuration":628272,"Delta":81798676},{"NoteNumber":60,"Velocity":52,"Duration":628272,"SoundDuration":628272,"Delta":81798676},{"NoteNumber":57,"Velocity":52,"Duration":628272,"SoundDuration":628272,"Delta":81798676},{"NoteNumber":54,"Velocity":52,"Duration":628272,"SoundDuration":628272,"Delta":81798676},{"NoteNumber":78,"Velocity":64,"Duration":157067,"SoundDuration":157067,"Delta":81955744},{"NoteNumber":81,"Velocity":69,"Duration":157067,"SoundDuration":157067,"Delta":82112812},{"NoteNumber":84,"Velocity":69,"Duration":157068,"SoundDuration":157068,"Delta":82269880},{"NoteNumber":83,"Velocity":74,"Duration":157067,"SoundDuration":157067,"Delta":82426948},{"NoteNumber":81,"Velocity":66,"Duration":157067,"SoundDuration":157067,"Delta":82584016},{"NoteNumber":79,"Velocity":70,"Duration":157068,"SoundDuration":157068,"Delta":82741084},{"NoteNumber":78,"Velocity":65,"Duration":157067,"SoundDuration":157067,"Delta":82898152},{"NoteNumber":76,"Velocity":70,"Duration":158411,"SoundDuration":158411,"Delta":83055220},{"NoteNumber":75,"Velocity":64,"Duration":158411,"SoundDuration":158411,"Delta":83213632},{"NoteNumber":78,"Velocity":70,"Duration":475235,"SoundDuration":475235,"Delta":83372043},{"NoteNumber":76,"Velocity":66,"Duration":158411,"SoundDuration":158411,"Delta":83847279},{"NoteNumber":74,"Velocity":64,"Duration":158411,"SoundDuration":158411,"Delta":84005690},{"NoteNumber":72,"Velocity":58,"Duration":158411,"SoundDuration":158411,"Delta":84164102},{"NoteNumber":71,"Velocity":64,"Duration":160919,"SoundDuration":160919,"Delta":84322514},{"NoteNumber":69,"Velocity":57,"Duration":160961,"SoundDuration":160961,"Delta":84483433},{"NoteNumber":68,"Velocity":61,"Duration":160961,"SoundDuration":160961,"Delta":84644394},{"NoteNumber":69,"Velocity":50,"Duration":161590,"SoundDuration":161590,"Delta":84805356},{"NoteNumber":68,"Velocity":46,"Duration":171345,"SoundDuration":171345,"Delta":84966946},{"NoteNumber":69,"Velocity":46,"Duration":87262,"SoundDuration":87262,"Delta":85138291},{"NoteNumber":71,"Velocity":46,"Duration":97796,"SoundDuration":97796,"Delta":85313592},{"NoteNumber":72,"Velocity":41,"Duration":114172,"SoundDuration":114172,"Delta":85509185},{"NoteNumber":74,"Velocity":50,"Duration":619834,"SoundDuration":619834,"Delta":85724960},{"NoteNumber":59,"Velocity":26,"Duration":154958,"SoundDuration":154958,"Delta":85879919},{"NoteNumber":62,"Velocity":26,"Duration":154958,"SoundDuration":154958,"Delta":86034878},{"NoteNumber":67,"Velocity":25,"Duration":154958,"SoundDuration":154958,"Delta":86189836},{"NoteNumber":71,"Velocity":46,"Duration":635323,"SoundDuration":635323,"Delta":86344795},{"NoteNumber":55,"Velocity":32,"Duration":158831,"SoundDuration":158831,"Delta":86344795},{"NoteNumber":47,"Velocity":42,"Duration":635323,"SoundDuration":635323,"Delta":86344795},{"NoteNumber":59,"Velocity":25,"Duration":158830,"SoundDuration":158830,"Delta":86503626},{"NoteNumber":62,"Velocity":25,"Duration":158831,"SoundDuration":158831,"Delta":86662457},{"NoteNumber":67,"Velocity":23,"Duration":158830,"SoundDuration":158830,"Delta":86821288},{"NoteNumber":69,"Velocity":46,"Duration":618316,"SoundDuration":618316,"Delta":86980119},{"NoteNumber":55,"Velocity":33,"Duration":161238,"SoundDuration":161238,"Delta":86980119},{"NoteNumber":48,"Velocity":42,"Duration":1283686,"SoundDuration":1283686,"Delta":86980119},{"NoteNumber":57,"Velocity":27,"Duration":161238,"SoundDuration":161238,"Delta":87141357},{"NoteNumber":64,"Velocity":34,"Duration":161238,"SoundDuration":161238,"Delta":87302596},{"NoteNumber":67,"Velocity":44,"Duration":179468,"SoundDuration":179468,"Delta":87463834},{"NoteNumber":76,"Velocity":56,"Duration":620502,"SoundDuration":620502,"Delta":87643303},{"NoteNumber":55,"Velocity":53,"Duration":154958,"SoundDuration":154958,"Delta":87643303},{"NoteNumber":57,"Velocity":31,"Duration":154958,"SoundDuration":154958,"Delta":87798261},{"NoteNumber":64,"Velocity":39,"Duration":154958,"SoundDuration":154958,"Delta":87953220},{"NoteNumber":67,"Velocity":23,"Duration":155626,"SoundDuration":155626,"Delta":88108179},{"NoteNumber":74,"Velocity":57,"Duration":622050,"SoundDuration":622050,"Delta":88263806},{"NoteNumber":55,"Velocity":35,"Duration":156774,"SoundDuration":156774,"Delta":88263806},{"NoteNumber":50,"Velocity":46,"Duration":1254161,"SoundDuration":1254161,"Delta":88263806},{"NoteNumber":59,"Velocity":26,"Duration":155926,"SoundDuration":155926,"Delta":88420580},{"NoteNumber":62,"Velocity":26,"Duration":155086,"SoundDuration":155086,"Delta":88576507},{"NoteNumber":67,"Velocity":25,"Duration":154262,"SoundDuration":154262,"Delta":88731593},{"NoteNumber":71,"Velocity":48,"Duration":632110,"SoundDuration":632110,"Delta":88885856},{"NoteNumber":55,"Velocity":32,"Duration":158027,"SoundDuration":158027,"Delta":88885856},{"NoteNumber":59,"Velocity":25,"Duration":158027,"SoundDuration":158027,"Delta":89043884},{"NoteNumber":62,"Velocity":25,"Duration":158027,"SoundDuration":158027,"Delta":89201911},{"NoteNumber":67,"Velocity":23,"Duration":158027,"SoundDuration":158027,"Delta":89359939},{"NoteNumber":69,"Velocity":48,"Duration":606620,"SoundDuration":606620,"Delta":89517967},{"NoteNumber":55,"Velocity":33,"Duration":157547,"SoundDuration":157547,"Delta":89517967},{"NoteNumber":52,"Velocity":37,"Duration":649778,"SoundDuration":649778,"Delta":89517967},{"NoteNumber":57,"Velocity":27,"Duration":158803,"SoundDuration":158803,"Delta":89675514},{"NoteNumber":61,"Velocity":33,"Duration":160796,"SoundDuration":160796,"Delta":89834318},{"NoteNumber":67,"Velocity":40,"Duration":172631,"SoundDuration":172631,"Delta":89995114},{"NoteNumber":71,"Velocity":56,"Duration":316055,"SoundDuration":316055,"Delta":90167746},{"NoteNumber":57,"Velocity":46,"Duration":158027,"SoundDuration":158027,"Delta":90167746},{"NoteNumber":54,"Velocity":42,"Duration":632110,"SoundDuration":632110,"Delta":90167746},{"NoteNumber":60,"Velocity":26,"Duration":158027,"SoundDuration":158027,"Delta":90325773},{"NoteNumber":72,"Velocity":49,"Duration":316055,"SoundDuration":316055,"Delta":90483801},{"NoteNumber":62,"Velocity":25,"Duration":158027,"SoundDuration":158027,"Delta":90483801},{"NoteNumber":69,"Velocity":23,"Duration":158027,"SoundDuration":158027,"Delta":90641829},{"NoteNumber":71,"Velocity":57,"Duration":148972,"SoundDuration":148972,"Delta":90799857},{"NoteNumber":55,"Velocity":46,"Duration":609880,"SoundDuration":609880,"Delta":90799857},{"NoteNumber":59,"Velocity":26,"Duration":151559,"SoundDuration":151559,"Delta":90948829},{"NoteNumber":71,"Velocity":47,"Duration":309349,"SoundDuration":309349,"Delta":91100388},{"NoteNumber":62,"Velocity":26,"Duration":155086,"SoundDuration":155086,"Delta":91100388},{"NoteNumber":67,"Velocity":25,"Duration":154262,"SoundDuration":154262,"Delta":91255475},{"NoteNumber":74,"Velocity":54,"Duration":316055,"SoundDuration":316055,"Delta":91409737},{"NoteNumber":55,"Velocity":32,"Duration":158027,"SoundDuration":158027,"Delta":91409737},{"NoteNumber":59,"Velocity":25,"Duration":158027,"SoundDuration":158027,"Delta":91567765},{"NoteNumber":71,"Velocity":48,"Duration":276548,"SoundDuration":276548,"Delta":91725793},{"NoteNumber":62,"Velocity":25,"Duration":158027,"SoundDuration":158027,"Delta":91725793},{"NoteNumber":67,"Velocity":23,"Duration":158027,"SoundDuration":158027,"Delta":91883821},{"NoteNumber":71,"Velocity":53,"Duration":316350,"SoundDuration":316350,"Delta":92041848},{"NoteNumber":52,"Velocity":33,"Duration":157547,"SoundDuration":157547,"Delta":92041848},{"NoteNumber":48,"Velocity":37,"Duration":1319301,"SoundDuration":1319301,"Delta":92041848},{"NoteNumber":57,"Velocity":27,"Duration":158803,"SoundDuration":158803,"Delta":92199396},{"NoteNumber":69,"Velocity":48,"Duration":333428,"SoundDuration":333428,"Delta":92358199},{"NoteNumber":60,"Velocity":33,"Duration":160796,"SoundDuration":160796,"Delta":92358199},{"NoteNumber":64,"Velocity":31,"Duration":172631,"SoundDuration":172631,"Delta":92518995},{"NoteNumber":67,"Velocity":40,"Duration":325415,"SoundDuration":325415,"Delta":92691627},{"NoteNumber":52,"Velocity":37,"Duration":162707,"SoundDuration":162707,"Delta":92691627},{"NoteNumber":57,"Velocity":26,"Duration":162707,"SoundDuration":162707,"Delta":92854335},{"NoteNumber":69,"Velocity":40,"Duration":344107,"SoundDuration":344107,"Delta":93017042},{"NoteNumber":60,"Velocity":25,"Duration":162707,"SoundDuration":162707,"Delta":93017042},{"NoteNumber":64,"Velocity":23,"Duration":181400,"SoundDuration":181400,"Delta":93179750},{"NoteNumber":71,"Velocity":47,"Duration":2871764,"SoundDuration":2871764,"Delta":93361150},{"NoteNumber":51,"Velocity":32,"Duration":157637,"SoundDuration":157637,"Delta":93361150},{"NoteNumber":47,"Velocity":40,"Duration":2549841,"SoundDuration":2549841,"Delta":93361150},{"NoteNumber":54,"Velocity":26,"Duration":155926,"SoundDuration":155926,"Delta":93518787},{"NoteNumber":59,"Velocity":26,"Duration":155086,"SoundDuration":155086,"Delta":93674714},{"NoteNumber":63,"Velocity":25,"Duration":154262,"SoundDuration":154262,"Delta":93829800},{"NoteNumber":51,"Velocity":32,"Duration":158027,"SoundDuration":158027,"Delta":93984063},{"NoteNumber":54,"Velocity":25,"Duration":158027,"SoundDuration":158027,"Delta":94142090},{"NoteNumber":59,"Velocity":25,"Duration":158027,"SoundDuration":158027,"Delta":94300118},{"NoteNumber":63,"Velocity":23,"Duration":158027,"SoundDuration":158027,"Delta":94458146},{"NoteNumber":51,"Velocity":33,"Duration":157547,"SoundDuration":157547,"Delta":94616174},{"NoteNumber":54,"Velocity":27,"Duration":158803,"SoundDuration":158803,"Delta":94773721},{"NoteNumber":59,"Velocity":26,"Duration":160796,"SoundDuration":160796,"Delta":94932524},{"NoteNumber":63,"Velocity":26,"Duration":172631,"SoundDuration":172631,"Delta":95093321},{"NoteNumber":51,"Velocity":30,"Duration":158027,"SoundDuration":158027,"Delta":95265953},{"NoteNumber":54,"Velocity":26,"Duration":158027,"SoundDuration":158027,"Delta":95423980},{"NoteNumber":59,"Velocity":25,"Duration":164491,"SoundDuration":164491,"Delta":95582008},{"NoteNumber":63,"Velocity":22,"Duration":164491,"SoundDuration":164491,"Delta":95746500},{"NoteNumber":50,"Velocity":32,"Duration":160961,"SoundDuration":160961,"Delta":95910992},{"NoteNumber":43,"Velocity":34,"Duration":1335135,"SoundDuration":1335135,"Delta":95910992},{"NoteNumber":55,"Velocity":19,"Duration":160961,"SoundDuration":160961,"Delta":96071953},{"NoteNumber":71,"Velocity":35,"Duration":328983,"SoundDuration":328983,"Delta":96232915},{"NoteNumber":59,"Velocity":19,"Duration":164491,"SoundDuration":164491,"Delta":96232915},{"NoteNumber":67,"Velocity":18,"Duration":164491,"SoundDuration":164491,"Delta":96397406},{"NoteNumber":74,"Velocity":40,"Duration":342114,"SoundDuration":342114,"Delta":96561898},{"NoteNumber":50,"Velocity":24,"Duration":171057,"SoundDuration":171057,"Delta":96561898},{"NoteNumber":55,"Velocity":18,"Duration":171057,"SoundDuration":171057,"Delta":96732955},{"NoteNumber":71,"Velocity":36,"Duration":299350,"SoundDuration":299350,"Delta":96904013},{"NoteNumber":59,"Velocity":18,"Duration":171057,"SoundDuration":171057,"Delta":96904013},{"NoteNumber":67,"Velocity":17,"Duration":171057,"SoundDuration":171057,"Delta":97075070},{"NoteNumber":71,"Velocity":39,"Duration":320802,"SoundDuration":320802,"Delta":97246127},{"NoteNumber":52,"Velocity":24,"Duration":161999,"SoundDuration":161999,"Delta":97246127},{"NoteNumber":48,"Velocity":27,"Duration":1424197,"SoundDuration":1424197,"Delta":97246127},{"NoteNumber":57,"Velocity":20,"Duration":158803,"SoundDuration":158803,"Delta":97408126},{"NoteNumber":69,"Velocity":36,"Duration":356388,"SoundDuration":356388,"Delta":97566930},{"NoteNumber":60,"Velocity":24,"Duration":160796,"SoundDuration":160796,"Delta":97566930},{"NoteNumber":64,"Velocity":23,"Duration":195592,"SoundDuration":195592,"Delta":97727726},{"NoteNumber":67,"Velocity":30,"Duration":365008,"SoundDuration":365008,"Delta":97923319},{"NoteNumber":52,"Velocity":27,"Duration":182503,"SoundDuration":182503,"Delta":97923319},{"NoteNumber":57,"Velocity":19,"Duration":182504,"SoundDuration":182504,"Delta":98105823},{"NoteNumber":69,"Velocity":30,"Duration":381998,"SoundDuration":381998,"Delta":98288327},{"NoteNumber":60,"Velocity":18,"Duration":182503,"SoundDuration":182503,"Delta":98288327},{"NoteNumber":64,"Velocity":17,"Duration":199494,"SoundDuration":199494,"Delta":98470831},{"NoteNumber":71,"Velocity":35,"Duration":2042462,"SoundDuration":2042462,"Delta":98670325},{"NoteNumber":51,"Velocity":24,"Duration":171369,"SoundDuration":171369,"Delta":98670325},{"NoteNumber":47,"Velocity":30,"Duration":2695417,"SoundDuration":2695417,"Delta":98670325},{"NoteNumber":54,"Velocity":19,"Duration":168485,"SoundDuration":168485,"Delta":98841695},{"NoteNumber":59,"Velocity":19,"Duration":166315,"SoundDuration":166315,"Delta":99010180},{"NoteNumber":63,"Velocity":18,"Duration":166315,"SoundDuration":166315,"Delta":99176496},{"NoteNumber":54,"Velocity":25,"Duration":173030,"SoundDuration":173030,"Delta":99342811},{"NoteNumber":57,"Velocity":19,"Duration":173030,"SoundDuration":173030,"Delta":99515842},{"NoteNumber":59,"Velocity":19,"Duration":173030,"SoundDuration":173030,"Delta":99688872},{"NoteNumber":63,"Velocity":27,"Duration":173030,"SoundDuration":173030,"Delta":99861902},{"NoteNumber":52,"Velocity":31,"Duration":172509,"SoundDuration":172509,"Delta":100034932},{"NoteNumber":55,"Velocity":27,"Duration":170475,"SoundDuration":170475,"Delta":100207442},{"NoteNumber":59,"Velocity":30,"Duration":168481,"SoundDuration":168481,"Delta":100377918},{"NoteNumber":64,"Velocity":32,"Duration":166388,"SoundDuration":166388,"Delta":100546400},{"NoteNumber":70,"Velocity":49,"Duration":652955,"SoundDuration":652955,"Delta":100712788},{"NoteNumber":52,"Velocity":34,"Duration":163238,"SoundDuration":163238,"Delta":100712788},{"NoteNumber":55,"Velocity":30,"Duration":163238,"SoundDuration":163238,"Delta":100876026},{"NoteNumber":59,"Velocity":32,"Duration":163238,"SoundDuration":163238,"Delta":101039265},{"NoteNumber":64,"Velocity":34,"Duration":163238,"SoundDuration":163238,"Delta":101202504},{"NoteNumber":71,"Velocity":57,"Duration":1271156,"SoundDuration":1271156,"Delta":101365743},{"NoteNumber":51,"Velocity":35,"Duration":159761,"SoundDuration":159761,"Delta":101365743},{"NoteNumber":47,"Velocity":46,"Duration":2564781,"SoundDuration":2564781,"Delta":101365743},{"NoteNumber":54,"Velocity":26,"Duration":159761,"SoundDuration":159761,"Delta":101525504},{"NoteNumber":59,"Velocity":26,"Duration":159761,"SoundDuration":159761,"Delta":101685266},{"NoteNumber":63,"Velocity":25,"Duration":159761,"SoundDuration":159761,"Delta":101845027},{"NoteNumber":54,"Velocity":32,"Duration":158027,"SoundDuration":158027,"Delta":102004789},{"NoteNumber":57,"Velocity":25,"Duration":158027,"SoundDuration":158027,"Delta":102162816},{"NoteNumber":59,"Velocity":25,"Duration":158027,"SoundDuration":158027,"Delta":102320844},{"NoteNumber":63,"Velocity":23,"Duration":158027,"SoundDuration":158027,"Delta":102478872},{"NoteNumber":52,"Velocity":33,"Duration":157547,"SoundDuration":157547,"Delta":102636900},{"NoteNumber":55,"Velocity":27,"Duration":158803,"SoundDuration":158803,"Delta":102794447},{"NoteNumber":59,"Velocity":33,"Duration":160796,"SoundDuration":160796,"Delta":102953250},{"NoteNumber":64,"Velocity":40,"Duration":172631,"SoundDuration":172631,"Delta":103114047},{"NoteNumber":72,"Velocity":54,"Duration":643845,"SoundDuration":643845,"Delta":103286679},{"NoteNumber":52,"Velocity":34,"Duration":160961,"SoundDuration":160961,"Delta":103286679},{"NoteNumber":55,"Velocity":30,"Duration":160961,"SoundDuration":160961,"Delta":103447640},{"NoteNumber":59,"Velocity":32,"Duration":160961,"SoundDuration":160961,"Delta":103608602},{"NoteNumber":64,"Velocity":34,"Duration":160961,"SoundDuration":160961,"Delta":103769563},{"NoteNumber":71,"Velocity":57,"Duration":1275956,"SoundDuration":1275956,"Delta":103930525},{"NoteNumber":51,"Velocity":35,"Duration":160961,"SoundDuration":160961,"Delta":103930525},{"NoteNumber":47,"Velocity":46,"Duration":1925735,"SoundDuration":1925735,"Delta":103930525},{"NoteNumber":54,"Velocity":26,"Duration":160961,"SoundDuration":160961,"Delta":104091486},{"NoteNumber":59,"Velocity":26,"Duration":160961,"SoundDuration":160961,"Delta":104252448},{"NoteNumber":63,"Velocity":25,"Duration":160961,"SoundDuration":160961,"Delta":104413409},{"NoteNumber":51,"Velocity":32,"Duration":158027,"SoundDuration":158027,"Delta":104574371},{"NoteNumber":54,"Velocity":25,"Duration":158027,"SoundDuration":158027,"Delta":104732398},{"NoteNumber":59,"Velocity":25,"Duration":158027,"SoundDuration":158027,"Delta":104890426},{"NoteNumber":63,"Velocity":23,"Duration":158027,"SoundDuration":158027,"Delta":105048454},{"NoteNumber":54,"Velocity":33,"Duration":157547,"SoundDuration":157547,"Delta":105206482},{"NoteNumber":57,"Velocity":27,"Duration":158803,"SoundDuration":158803,"Delta":105364029},{"NoteNumber":59,"Velocity":33,"Duration":160796,"SoundDuration":160796,"Delta":105522832},{"NoteNumber":63,"Velocity":40,"Duration":172631,"SoundDuration":172631,"Delta":105683629},{"NoteNumber":69,"Velocity":71,"Duration":632110,"SoundDuration":632110,"Delta":105856261},{"NoteNumber":51,"Velocity":43,"Duration":158027,"SoundDuration":158027,"Delta":105856261},{"NoteNumber":54,"Velocity":36,"Duration":158027,"SoundDuration":158027,"Delta":106014288},{"NoteNumber":59,"Velocity":44,"Duration":158027,"SoundDuration":158027,"Delta":106172316},{"NoteNumber":63,"Velocity":47,"Duration":158027,"SoundDuration":158027,"Delta":106330344},{"NoteNumber":68,"Velocity":79,"Duration":619834,"SoundDuration":619834,"Delta":106488372},{"NoteNumber":47,"Velocity":56,"Duration":154958,"SoundDuration":154958,"Delta":106488372},{"NoteNumber":40,"Velocity":64,"Duration":619834,"SoundDuration":619834,"Delta":106488372},{"NoteNumber":52,"Velocity":37,"Duration":154958,"SoundDuration":154958,"Delta":106643330},{"NoteNumber":56,"Velocity":38,"Duration":154958,"SoundDuration":154958,"Delta":106798289},{"NoteNumber":59,"Velocity":38,"Duration":154958,"SoundDuration":154958,"Delta":106953248},{"NoteNumber":66,"Velocity":67,"Duration":635323,"SoundDuration":635323,"Delta":107108207},{"NoteNumber":47,"Velocity":50,"Duration":158831,"SoundDuration":158831,"Delta":107108207},{"NoteNumber":42,"Velocity":58,"Duration":635323,"SoundDuration":635323,"Delta":107108207},{"NoteNumber":51,"Velocity":43,"Duration":158830,"SoundDuration":158830,"Delta":107267038},{"NoteNumber":57,"Velocity":46,"Duration":158831,"SoundDuration":158831,"Delta":107425869},{"NoteNumber":59,"Velocity":48,"Duration":158830,"SoundDuration":158830,"Delta":107584700},{"NoteNumber":64,"Velocity":67,"Duration":618316,"SoundDuration":618316,"Delta":107743531},{"NoteNumber":47,"Velocity":59,"Duration":161238,"SoundDuration":161238,"Delta":107743531},{"NoteNumber":44,"Velocity":58,"Duration":663183,"SoundDuration":663183,"Delta":107743531},{"NoteNumber":52,"Velocity":48,"Duration":161238,"SoundDuration":161238,"Delta":107904769},{"NoteNumber":56,"Velocity":63,"Duration":161238,"SoundDuration":161238,"Delta":108066007},{"NoteNumber":59,"Velocity":61,"Duration":179468,"SoundDuration":179468,"Delta":108227245},{"NoteNumber":76,"Velocity":78,"Duration":620502,"SoundDuration":620502,"Delta":108406714},{"NoteNumber":54,"Velocity":74,"Duration":154958,"SoundDuration":154958,"Delta":108406714},{"NoteNumber":46,"Velocity":58,"Duration":620502,"SoundDuration":620502,"Delta":108406714},{"NoteNumber":61,"Velocity":43,"Duration":154958,"SoundDuration":154958,"Delta":108561673},{"NoteNumber":64,"Velocity":54,"Duration":154958,"SoundDuration":154958,"Delta":108716632},{"NoteNumber":66,"Velocity":32,"Duration":155626,"SoundDuration":155626,"Delta":108871590},{"NoteNumber":75,"Velocity":79,"Duration":622050,"SoundDuration":622050,"Delta":109027217},{"NoteNumber":54,"Velocity":49,"Duration":156774,"SoundDuration":156774,"Delta":109027217},{"NoteNumber":47,"Velocity":64,"Duration":622050,"SoundDuration":622050,"Delta":109027217},{"NoteNumber":59,"Velocity":36,"Duration":155926,"SoundDuration":155926,"Delta":109183992},{"NoteNumber":63,"Velocity":36,"Duration":155086,"SoundDuration":155086,"Delta":109339918},{"NoteNumber":66,"Velocity":35,"Duration":154262,"SoundDuration":154262,"Delta":109495005},{"NoteNumber":73,"Velocity":67,"Duration":632110,"SoundDuration":632110,"Delta":109649267},{"NoteNumber":54,"Velocity":44,"Duration":158027,"SoundDuration":158027,"Delta":109649267},{"NoteNumber":49,"Velocity":58,"Duration":632110,"SoundDuration":632110,"Delta":109649267},{"NoteNumber":58,"Velocity":35,"Duration":158027,"SoundDuration":158027,"Delta":109807295},{"NoteNumber":64,"Velocity":35,"Duration":158027,"SoundDuration":158027,"Delta":109965323},{"NoteNumber":66,"Velocity":32,"Duration":158027,"SoundDuration":158027,"Delta":110123350},{"NoteNumber":71,"Velocity":67,"Duration":606620,"SoundDuration":606620,"Delta":110281378},{"NoteNumber":54,"Velocity":46,"Duration":157547,"SoundDuration":157547,"Delta":110281378},{"NoteNumber":51,"Velocity":51,"Duration":649778,"SoundDuration":649778,"Delta":110281378},{"NoteNumber":59,"Velocity":37,"Duration":158803,"SoundDuration":158803,"Delta":110438926},{"NoteNumber":63,"Velocity":46,"Duration":160796,"SoundDuration":160796,"Delta":110597729},{"NoteNumber":66,"Velocity":56,"Duration":172631,"SoundDuration":172631,"Delta":110758525},{"NoteNumber":73,"Velocity":78,"Duration":632110,"SoundDuration":632110,"Delta":110931157},{"NoteNumber":56,"Velocity":64,"Duration":158027,"SoundDuration":158027,"Delta":110931157},{"NoteNumber":53,"Velocity":58,"Duration":632110,"SoundDuration":632110,"Delta":110931157},{"NoteNumber":59,"Velocity":48,"Duration":158027,"SoundDuration":158027,"Delta":111089185},{"NoteNumber":61,"Velocity":51,"Duration":158027,"SoundDuration":158027,"Delta":111247213},{"NoteNumber":68,"Velocity":38,"Duration":158027,"SoundDuration":158027,"Delta":111405240},{"NoteNumber":69,"Velocity":79,"Duration":316055,"SoundDuration":316055,"Delta":111563268},{"NoteNumber":57,"Velocity":49,"Duration":158027,"SoundDuration":158027,"Delta":111563268},{"NoteNumber":54,"Velocity":64,"Duration":632111,"SoundDuration":632111,"Delta":111563268},{"NoteNumber":61,"Velocity":46,"Duration":158027,"SoundDuration":158027,"Delta":111721296},{"NoteNumber":73,"Velocity":75,"Duration":316055,"SoundDuration":316055,"Delta":111879324},{"NoteNumber":64,"Velocity":49,"Duration":158027,"SoundDuration":158027,"Delta":111879324},{"NoteNumber":66,"Velocity":45,"Duration":158027,"SoundDuration":158027,"Delta":112037351},{"NoteNumber":71,"Velocity":67,"Duration":316055,"SoundDuration":316055,"Delta":112195379},{"NoteNumber":54,"Velocity":57,"Duration":158027,"SoundDuration":158027,"Delta":112195379},{"NoteNumber":47,"Velocity":58,"Duration":632110,"SoundDuration":632110,"Delta":112195379},{"NoteNumber":57,"Velocity":45,"Duration":158027,"SoundDuration":158027,"Delta":112353407},{"NoteNumber":66,"Velocity":60,"Duration":316055,"SoundDuration":316055,"Delta":112511435},{"NoteNumber":59,"Velocity":45,"Duration":158027,"SoundDuration":158027,"Delta":112511435},{"NoteNumber":63,"Velocity":41,"Duration":158027,"SoundDuration":158027,"Delta":112669462},{"NoteNumber":68,"Velocity":67,"Duration":268542,"SoundDuration":268542,"Delta":112827490},{"NoteNumber":52,"Velocity":58,"Duration":628799,"SoundDuration":628799,"Delta":112827490},{"NoteNumber":56,"Velocity":45,"Duration":153452,"SoundDuration":153452,"Delta":112980943},{"NoteNumber":68,"Velocity":57,"Duration":321894,"SoundDuration":321894,"Delta":113134396},{"NoteNumber":59,"Velocity":45,"Duration":158730,"SoundDuration":158730,"Delta":113134396},{"NoteNumber":64,"Velocity":42,"Duration":163163,"SoundDuration":163163,"Delta":113293126},{"NoteNumber":71,"Velocity":67,"Duration":319148,"SoundDuration":319148,"Delta":113456290},{"NoteNumber":49,"Velocity":58,"Duration":645235,"SoundDuration":645235,"Delta":113456290},{"NoteNumber":52,"Velocity":46,"Duration":159574,"SoundDuration":159574,"Delta":113615864},{"NoteNumber":69,"Velocity":57,"Duration":326087,"SoundDuration":326087,"Delta":113775439},{"NoteNumber":57,"Velocity":45,"Duration":163043,"SoundDuration":163043,"Delta":113775439},{"NoteNumber":64,"Velocity":41,"Duration":163043,"SoundDuration":163043,"Delta":113938482},{"NoteNumber":68,"Velocity":67,"Duration":1332766,"SoundDuration":1332766,"Delta":114101526},{"NoteNumber":52,"Velocity":63,"Duration":163043,"SoundDuration":163043,"Delta":114101526},{"NoteNumber":47,"Velocity":64,"Duration":1998028,"SoundDuration":1998028,"Delta":114101526},{"NoteNumber":56,"Velocity":46,"Duration":163043,"SoundDuration":163043,"Delta":114264569},{"NoteNumber":59,"Velocity":46,"Duration":163043,"SoundDuration":163043,"Delta":114427613},{"NoteNumber":64,"Velocity":45,"Duration":163043,"SoundDuration":163043,"Delta":114590656},{"NoteNumber":52,"Velocity":57,"Duration":164581,"SoundDuration":164581,"Delta":114753700},{"NoteNumber":56,"Velocity":45,"Duration":164582,"SoundDuration":164582,"Delta":114918282},{"NoteNumber":59,"Velocity":45,"Duration":164581,"SoundDuration":164581,"Delta":115082864},{"NoteNumber":64,"Velocity":41,"Duration":186846,"SoundDuration":186846,"Delta":115247446},{"NoteNumber":66,"Velocity":61,"Duration":332631,"SoundDuration":332631,"Delta":115434292},{"NoteNumber":51,"Velocity":52,"Duration":166315,"SoundDuration":166315,"Delta":115434292},{"NoteNumber":54,"Velocity":46,"Duration":166315,"SoundDuration":166315,"Delta":115600607},{"NoteNumber":59,"Velocity":40,"Duration":166315,"SoundDuration":166315,"Delta":115766923},{"NoteNumber":63,"Velocity":35,"Duration":166315,"SoundDuration":166315,"Delta":115933238},{"NoteNumber":68,"Velocity":51,"Duration":316055,"SoundDuration":316055,"Delta":116099554},{"NoteNumber":51,"Velocity":30,"Duration":158027,"SoundDuration":158027,"Delta":116099554},{"NoteNumber":45,"Velocity":37,"Duration":640765,"SoundDuration":640765,"Delta":116099554},{"NoteNumber":54,"Velocity":26,"Duration":158027,"SoundDuration":158027,"Delta":116257582},{"NoteNumber":69,"Velocity":45,"Duration":324710,"SoundDuration":324710,"Delta":116415609},{"NoteNumber":59,"Velocity":32,"Duration":162355,"SoundDuration":162355,"Delta":116415609},{"NoteNumber":63,"Velocity":34,"Duration":162355,"SoundDuration":162355,"Delta":116577965},{"NoteNumber":71,"Velocity":57,"Duration":619834,"SoundDuration":619834,"Delta":116740320},{"NoteNumber":52,"Velocity":40,"Duration":154958,"SoundDuration":154958,"Delta":116740320},{"NoteNumber":44,"Velocity":46,"Duration":1255158,"SoundDuration":1255158,"Delta":116740320},{"NoteNumber":56,"Velocity":26,"Duration":154958,"SoundDuration":154958,"Delta":116895279},{"NoteNumber":59,"Velocity":26,"Duration":154958,"SoundDuration":154958,"Delta":117050237},{"NoteNumber":64,"Velocity":25,"Duration":154958,"SoundDuration":154958,"Delta":117205196},{"NoteNumber":68,"Velocity":48,"Duration":635323,"SoundDuration":635323,"Delta":117360155},{"NoteNumber":52,"Velocity":32,"Duration":158831,"SoundDuration":158831,"Delta":117360155},{"NoteNumber":56,"Velocity":25,"Duration":158830,"SoundDuration":158830,"Delta":117518986},{"NoteNumber":59,"Velocity":25,"Duration":158831,"SoundDuration":158831,"Delta":117677817},{"NoteNumber":64,"Velocity":23,"Duration":158830,"SoundDuration":158830,"Delta":117836648},{"NoteNumber":66,"Velocity":48,"Duration":618316,"SoundDuration":618316,"Delta":117995479},{"NoteNumber":52,"Velocity":33,"Duration":161238,"SoundDuration":161238,"Delta":117995479},{"NoteNumber":45,"Velocity":42,"Duration":1283686,"SoundDuration":1283686,"Delta":117995479},{"NoteNumber":54,"Velocity":27,"Duration":161238,"SoundDuration":161238,"Delta":118156717},{"NoteNumber":61,"Velocity":34,"Duration":161238,"SoundDuration":161238,"Delta":118317955},{"NoteNumber":64,"Velocity":44,"Duration":179468,"SoundDuration":179468,"Delta":118479194},{"NoteNumber":73,"Velocity":56,"Duration":620502,"SoundDuration":620502,"Delta":118658662},{"NoteNumber":52,"Velocity":53,"Duration":154958,"SoundDuration":154958,"Delta":118658662},{"NoteNumber":54,"Velocity":31,"Duration":154958,"SoundDuration":154958,"Delta":118813621},{"NoteNumber":61,"Velocity":39,"Duration":154958,"SoundDuration":154958,"Delta":118968580},{"NoteNumber":64,"Velocity":23,"Duration":155626,"SoundDuration":155626,"Delta":119123539},{"NoteNumber":71,"Velocity":57,"Duration":622050,"SoundDuration":622050,"Delta":119279165},{"NoteNumber":52,"Velocity":35,"Duration":156774,"SoundDuration":156774,"Delta":119279165},{"NoteNumber":47,"Velocity":46,"Duration":1254161,"SoundDuration":1254161,"Delta":119279165},{"NoteNumber":56,"Velocity":26,"Duration":155926,"SoundDuration":155926,"Delta":119435940},{"NoteNumber":59,"Velocity":26,"Duration":155086,"SoundDuration":155086,"Delta":119591866},{"NoteNumber":64,"Velocity":25,"Duration":154262,"SoundDuration":154262,"Delta":119746953},{"NoteNumber":68,"Velocity":48,"Duration":632110,"SoundDuration":632110,"Delta":119901216},{"NoteNumber":52,"Velocity":32,"Duration":158027,"SoundDuration":158027,"Delta":119901216},{"NoteNumber":56,"Velocity":25,"Duration":158027,"SoundDuration":158027,"Delta":120059243},{"NoteNumber":59,"Velocity":25,"Duration":158027,"SoundDuration":158027,"Delta":120217271},{"NoteNumber":64,"Velocity":23,"Duration":158027,"SoundDuration":158027,"Delta":120375299},{"NoteNumber":66,"Velocity":49,"Duration":606620,"SoundDuration":606620,"Delta":120533327},{"NoteNumber":52,"Velocity":33,"Duration":157547,"SoundDuration":157547,"Delta":120533327},{"NoteNumber":49,"Velocity":38,"Duration":1270281,"SoundDuration":1270281,"Delta":120533327},{"NoteNumber":54,"Velocity":28,"Duration":158803,"SoundDuration":158803,"Delta":120690874},{"NoteNumber":58,"Velocity":34,"Duration":160796,"SoundDuration":160796,"Delta":120849677},{"NoteNumber":64,"Velocity":42,"Duration":172631,"SoundDuration":172631,"Delta":121010473},{"NoteNumber":76,"Velocity":64,"Duration":620502,"SoundDuration":620502,"Delta":121183105},{"NoteNumber":54,"Velocity":55,"Duration":154958,"SoundDuration":154958,"Delta":121183105},{"NoteNumber":58,"Velocity":32,"Duration":154958,"SoundDuration":154958,"Delta":121338064},{"NoteNumber":64,"Velocity":41,"Duration":154958,"SoundDuration":154958,"Delta":121493023},{"NoteNumber":66,"Velocity":24,"Duration":155626,"SoundDuration":155626,"Delta":121647982},{"NoteNumber":76,"Velocity":60,"Duration":622050,"SoundDuration":622050,"Delta":121803608},{"NoteNumber":56,"Velocity":37,"Duration":156774,"SoundDuration":156774,"Delta":121803608},{"NoteNumber":47,"Velocity":49,"Duration":1254161,"SoundDuration":1254161,"Delta":121803608},{"NoteNumber":59,"Velocity":27,"Duration":155926,"SoundDuration":155926,"Delta":121960383},{"NoteNumber":64,"Velocity":28,"Duration":155086,"SoundDuration":155086,"Delta":122116310},{"NoteNumber":68,"Velocity":27,"Duration":154262,"SoundDuration":154262,"Delta":122271396},{"NoteNumber":71,"Velocity":52,"Duration":935163,"SoundDuration":935163,"Delta":122425659},{"NoteNumber":56,"Velocity":34,"Duration":158027,"SoundDuration":158027,"Delta":122425659},{"NoteNumber":59,"Velocity":27,"Duration":158027,"SoundDuration":158027,"Delta":122583686},{"NoteNumber":64,"Velocity":27,"Duration":158027,"SoundDuration":158027,"Delta":122741714},{"NoteNumber":68,"Velocity":25,"Duration":158027,"SoundDuration":158027,"Delta":122899742},{"NoteNumber":57,"Velocity":36,"Duration":157547,"SoundDuration":157547,"Delta":123057770},{"NoteNumber":47,"Velocity":40,"Duration":1283480,"SoundDuration":1283480,"Delta":123057770},{"NoteNumber":59,"Velocity":29,"Duration":158803,"SoundDuration":158803,"Delta":123215317},{"NoteNumber":71,"Velocity":56,"Duration":321894,"SoundDuration":321894,"Delta":123374120},{"NoteNumber":64,"Velocity":36,"Duration":158730,"SoundDuration":158730,"Delta":123374120},{"NoteNumber":66,"Velocity":44,"Duration":163163,"SoundDuration":163163,"Delta":123532851},{"NoteNumber":73,"Velocity":62,"Duration":319148,"SoundDuration":319148,"Delta":123696015},{"NoteNumber":57,"Velocity":36,"Duration":159574,"SoundDuration":159574,"Delta":123696015},{"NoteNumber":59,"Velocity":37,"Duration":159574,"SoundDuration":159574,"Delta":123855589},{"NoteNumber":71,"Velocity":61,"Duration":326087,"SoundDuration":326087,"Delta":124015164},{"NoteNumber":63,"Velocity":42,"Duration":163043,"SoundDuration":163043,"Delta":124015164},{"NoteNumber":66,"Velocity":37,"Duration":163043,"SoundDuration":163043,"Delta":124178207},{"NoteNumber":69,"Velocity":55,"Duration":1332766,"SoundDuration":1332766,"Delta":124341251},{"NoteNumber":54,"Velocity":49,"Duration":163043,"SoundDuration":163043,"Delta":124341251},{"NoteNumber":52,"Velocity":55,"Duration":652174,"SoundDuration":652174,"Delta":124341251},{"NoteNumber":57,"Velocity":37,"Duration":163043,"SoundDuration":163043,"Delta":124504294},{"NoteNumber":59,"Velocity":43,"Duration":163043,"SoundDuration":163043,"Delta":124667338},{"NoteNumber":63,"Velocity":36,"Duration":163043,"SoundDuration":163043,"Delta":124830381},{"NoteNumber":54,"Velocity":35,"Duration":164581,"SoundDuration":164581,"Delta":124993425},{"NoteNumber":47,"Velocity":46,"Duration":680592,"SoundDuration":680592,"Delta":124993425},{"NoteNumber":57,"Velocity":44,"Duration":164582,"SoundDuration":164582,"Delta":125158007},{"NoteNumber":59,"Velocity":44,"Duration":164581,"SoundDuration":164581,"Delta":125322589},{"NoteNumber":63,"Velocity":39,"Duration":186846,"SoundDuration":186846,"Delta":125487171},{"NoteNumber":68,"Velocity":53,"Duration":332631,"SoundDuration":332631,"Delta":125674017},{"NoteNumber":52,"Velocity":53,"Duration":652836,"SoundDuration":652836,"Delta":125674017},{"NoteNumber":56,"Velocity":46,"Duration":166315,"SoundDuration":166315,"Delta":125840332},{"NoteNumber":66,"Velocity":60,"Duration":320205,"SoundDuration":320205,"Delta":126006648},{"NoteNumber":59,"Velocity":40,"Duration":160102,"SoundDuration":160102,"Delta":126006648},{"NoteNumber":64,"Velocity":34,"Duration":160102,"SoundDuration":160102,"Delta":126166750},{"NoteNumber":68,"Velocity":61,"Duration":308673,"SoundDuration":308673,"Delta":126326853},{"NoteNumber":52,"Velocity":36,"Duration":154336,"SoundDuration":154336,"Delta":126326853},{"NoteNumber":56,"Velocity":31,"Duration":154336,"SoundDuration":154336,"Delta":126481189},{"NoteNumber":69,"Velocity":61,"Duration":330797,"SoundDuration":330797,"Delta":126635526},{"NoteNumber":59,"Velocity":38,"Duration":165398,"SoundDuration":165398,"Delta":126635526},{"NoteNumber":64,"Velocity":41,"Duration":165398,"SoundDuration":165398,"Delta":126800925},{"NoteNumber":71,"Velocity":68,"Duration":619834,"SoundDuration":619834,"Delta":126966323},{"NoteNumber":52,"Velocity":48,"Duration":154958,"SoundDuration":154958,"Delta":126966323},{"NoteNumber":56,"Velocity":31,"Duration":154958,"SoundDuration":154958,"Delta":127121282},{"NoteNumber":59,"Velocity":31,"Duration":154958,"SoundDuration":154958,"Delta":127276241},{"NoteNumber":64,"Velocity":30,"Duration":154958,"SoundDuration":154958,"Delta":127431199},{"NoteNumber":68,"Velocity":59,"Duration":635859,"SoundDuration":635859,"Delta":127586158},{"NoteNumber":52,"Velocity":39,"Duration":158831,"SoundDuration":158831,"Delta":127586158},{"NoteNumber":47,"Velocity":47,"Duration":635859,"SoundDuration":635859,"Delta":127586158},{"NoteNumber":56,"Velocity":31,"Duration":158830,"SoundDuration":158830,"Delta":127744989},{"NoteNumber":59,"Velocity":31,"Duration":158830,"SoundDuration":158830,"Delta":127903820},{"NoteNumber":64,"Velocity":28,"Duration":159366,"SoundDuration":159366,"Delta":128062651},{"NoteNumber":66,"Velocity":60,"Duration":623737,"SoundDuration":623737,"Delta":128222018},{"NoteNumber":52,"Velocity":41,"Duration":161353,"SoundDuration":161353,"Delta":128222018},{"NoteNumber":46,"Velocity":52,"Duration":668605,"SoundDuration":668605,"Delta":128222018},{"NoteNumber":54,"Velocity":34,"Duration":163033,"SoundDuration":163033,"Delta":128383371},{"NoteNumber":61,"Velocity":42,"Duration":164749,"SoundDuration":164749,"Delta":128546404},{"NoteNumber":64,"Velocity":55,"Duration":179468,"SoundDuration":179468,"Delta":128711154},{"NoteNumber":73,"Velocity":71,"Duration":620502,"SoundDuration":620502,"Delta":128890623},{"NoteNumber":51,"Velocity":67,"Duration":154958,"SoundDuration":154958,"Delta":128890623},{"NoteNumber":45,"Velocity":47,"Duration":620502,"SoundDuration":620502,"Delta":128890623},{"NoteNumber":54,"Velocity":39,"Duration":154958,"SoundDuration":154958,"Delta":129045582},{"NoteNumber":63,"Velocity":49,"Duration":154958,"SoundDuration":154958,"Delta":129200540},{"NoteNumber":66,"Velocity":29,"Duration":155626,"SoundDuration":155626,"Delta":129355499},{"NoteNumber":71,"Velocity":73,"Duration":622050,"SoundDuration":622050,"Delta":129511126},{"NoteNumber":52,"Velocity":45,"Duration":156774,"SoundDuration":156774,"Delta":129511126},{"NoteNumber":44,"Velocity":59,"Duration":622050,"SoundDuration":622050,"Delta":129511126},{"NoteNumber":56,"Velocity":33,"Duration":155926,"SoundDuration":155926,"Delta":129667901},{"NoteNumber":59,"Velocity":33,"Duration":155086,"SoundDuration":155086,"Delta":129823827},{"NoteNumber":64,"Velocity":32,"Duration":154262,"SoundDuration":154262,"Delta":129978914},{"NoteNumber":68,"Velocity":62,"Duration":632111,"SoundDuration":632111,"Delta":130133176},{"NoteNumber":52,"Velocity":41,"Duration":158027,"SoundDuration":158027,"Delta":130133176},{"NoteNumber":47,"Velocity":53,"Duration":632111,"SoundDuration":632111,"Delta":130133176},{"NoteNumber":56,"Velocity":32,"Duration":158027,"SoundDuration":158027,"Delta":130291204},{"NoteNumber":59,"Velocity":32,"Duration":158027,"SoundDuration":158027,"Delta":130449232},{"NoteNumber":64,"Velocity":30,"Duration":158027,"SoundDuration":158027,"Delta":130607259},{"NoteNumber":66,"Velocity":63,"Duration":606620,"SoundDuration":606620,"Delta":130765287},{"NoteNumber":52,"Velocity":43,"Duration":157547,"SoundDuration":157547,"Delta":130765287},{"NoteNumber":46,"Velocity":60,"Duration":649778,"SoundDuration":649778,"Delta":130765287},{"NoteNumber":54,"Velocity":35,"Duration":158803,"SoundDuration":158803,"Delta":130922835},{"NoteNumber":61,"Velocity":43,"Duration":160796,"SoundDuration":160796,"Delta":131081638},{"NoteNumber":64,"Velocity":53,"Duration":172631,"SoundDuration":172631,"Delta":131242434},{"NoteNumber":76,"Velocity":75,"Duration":620502,"SoundDuration":620502,"Delta":131415066},{"NoteNumber":54,"Velocity":71,"Duration":154958,"SoundDuration":154958,"Delta":131415066},{"NoteNumber":49,"Velocity":61,"Duration":620502,"SoundDuration":620502,"Delta":131415066},{"NoteNumber":58,"Velocity":41,"Duration":154958,"SoundDuration":154958,"Delta":131570025},{"NoteNumber":64,"Velocity":52,"Duration":154958,"SoundDuration":154958,"Delta":131724984},{"NoteNumber":66,"Velocity":31,"Duration":155626,"SoundDuration":155626,"Delta":131879942},{"NoteNumber":75,"Velocity":77,"Duration":622050,"SoundDuration":622050,"Delta":132035569},{"NoteNumber":54,"Velocity":47,"Duration":156774,"SoundDuration":156774,"Delta":132035569},{"NoteNumber":47,"Velocity":62,"Duration":622050,"SoundDuration":622050,"Delta":132035569},{"NoteNumber":59,"Velocity":35,"Duration":155926,"SoundDuration":155926,"Delta":132192344},{"NoteNumber":63,"Velocity":35,"Duration":155086,"SoundDuration":155086,"Delta":132348270},{"NoteNumber":66,"Velocity":34,"Duration":154262,"SoundDuration":154262,"Delta":132503357},{"NoteNumber":73,"Velocity":66,"Duration":632111,"SoundDuration":632111,"Delta":132657619},{"NoteNumber":58,"Velocity":44,"Duration":158027,"SoundDuration":158027,"Delta":132657619},{"NoteNumber":52,"Velocity":58,"Duration":632111,"SoundDuration":632111,"Delta":132657619},{"NoteNumber":61,"Velocity":34,"Duration":158027,"SoundDuration":158027,"Delta":132815647},{"NoteNumber":64,"Velocity":34,"Duration":158027,"SoundDuration":158027,"Delta":132973675},{"NoteNumber":67,"Velocity":31,"Duration":158027,"SoundDuration":158027,"Delta":133131703},{"NoteNumber":71,"Velocity":69,"Duration":316350,"SoundDuration":316350,"Delta":133289730},{"NoteNumber":59,"Velocity":46,"Duration":157547,"SoundDuration":157547,"Delta":133289730},{"NoteNumber":51,"Velocity":64,"Duration":638244,"SoundDuration":638244,"Delta":133289730},{"NoteNumber":63,"Velocity":37,"Duration":158803,"SoundDuration":158803,"Delta":133447278},{"NoteNumber":75,"Velocity":70,"Duration":321894,"SoundDuration":321894,"Delta":133606081},{"NoteNumber":66,"Velocity":46,"Duration":158730,"SoundDuration":158730,"Delta":133606081},{"NoteNumber":69,"Velocity":56,"Duration":163164,"SoundDuration":163164,"Delta":133764811},{"NoteNumber":78,"Velocity":75,"Duration":319149,"SoundDuration":319149,"Delta":133927975},{"NoteNumber":63,"Velocity":46,"Duration":159574,"SoundDuration":159574,"Delta":133927975},{"NoteNumber":59,"Velocity":61,"Duration":645236,"SoundDuration":645236,"Delta":133927975},{"NoteNumber":66,"Velocity":46,"Duration":159574,"SoundDuration":159574,"Delta":134087550},{"NoteNumber":81,"Velocity":77,"Duration":326087,"SoundDuration":326087,"Delta":134247124},{"NoteNumber":69,"Velocity":53,"Duration":163043,"SoundDuration":163043,"Delta":134247124},{"NoteNumber":71,"Velocity":46,"Duration":163043,"SoundDuration":163043,"Delta":134410168},{"NoteNumber":80,"Velocity":75,"Duration":326087,"SoundDuration":326087,"Delta":134573211},{"NoteNumber":59,"Velocity":60,"Duration":163043,"SoundDuration":163043,"Delta":134573211},{"NoteNumber":52,"Velocity":68,"Duration":652174,"SoundDuration":652174,"Delta":134573211},{"NoteNumber":64,"Velocity":46,"Duration":163043,"SoundDuration":163043,"Delta":134736255},{"NoteNumber":75,"Velocity":63,"Duration":326087,"SoundDuration":326087,"Delta":134899298},{"NoteNumber":68,"Velocity":53,"Duration":163043,"SoundDuration":163043,"Delta":134899298},{"NoteNumber":71,"Velocity":44,"Duration":163043,"SoundDuration":163043,"Delta":135062342},{"NoteNumber":78,"Velocity":71,"Duration":329163,"SoundDuration":329163,"Delta":135225385},{"NoteNumber":60,"Velocity":43,"Duration":164581,"SoundDuration":164581,"Delta":135225385},{"NoteNumber":56,"Velocity":58,"Duration":680591,"SoundDuration":680591,"Delta":135225385},{"NoteNumber":64,"Velocity":46,"Duration":164581,"SoundDuration":164581,"Delta":135389967},{"NoteNumber":76,"Velocity":64,"Duration":351427,"SoundDuration":351427,"Delta":135554549},{"NoteNumber":68,"Velocity":53,"Duration":164581,"SoundDuration":164581,"Delta":135554549},{"NoteNumber":72,"Velocity":47,"Duration":186846,"SoundDuration":186846,"Delta":135719131},{"NoteNumber":75,"Velocity":63,"Duration":332630,"SoundDuration":332630,"Delta":135905977},{"NoteNumber":57,"Velocity":63,"Duration":665262,"SoundDuration":665262,"Delta":135905977},{"NoteNumber":61,"Velocity":54,"Duration":166315,"SoundDuration":166315,"Delta":136072293},{"NoteNumber":73,"Velocity":54,"Duration":332631,"SoundDuration":332631,"Delta":136238608},{"NoteNumber":64,"Velocity":47,"Duration":166315,"SoundDuration":166315,"Delta":136238608},{"NoteNumber":66,"Velocity":40,"Duration":166315,"SoundDuration":166315,"Delta":136404924},{"NoteNumber":69,"Velocity":59,"Duration":332630,"SoundDuration":332630,"Delta":136571239},{"NoteNumber":52,"Velocity":43,"Duration":166315,"SoundDuration":166315,"Delta":136571239},{"NoteNumber":45,"Velocity":57,"Duration":665261,"SoundDuration":665261,"Delta":136571239},{"NoteNumber":54,"Velocity":53,"Duration":166315,"SoundDuration":166315,"Delta":136737555},{"NoteNumber":66,"Velocity":51,"Duration":332630,"SoundDuration":332630,"Delta":136903870},{"NoteNumber":57,"Velocity":53,"Duration":166315,"SoundDuration":166315,"Delta":136903870},{"NoteNumber":60,"Velocity":47,"Duration":166315,"SoundDuration":166315,"Delta":137070186},{"NoteNumber":64,"Velocity":63,"Duration":1330523,"SoundDuration":1330523,"Delta":137236501},{"NoteNumber":47,"Velocity":63,"Duration":665262,"SoundDuration":665262,"Delta":137236501},{"NoteNumber":52,"Velocity":43,"Duration":166315,"SoundDuration":166315,"Delta":137402817},{"NoteNumber":56,"Velocity":40,"Duration":166315,"SoundDuration":166315,"Delta":137569132},{"NoteNumber":59,"Velocity":34,"Duration":166315,"SoundDuration":166315,"Delta":137735448},{"NoteNumber":47,"Velocity":42,"Duration":166315,"SoundDuration":166315,"Delta":137901763},{"NoteNumber":52,"Velocity":34,"Duration":166315,"SoundDuration":166315,"Delta":138068079},{"NoteNumber":56,"Velocity":40,"Duration":166315,"SoundDuration":166315,"Delta":138234394},{"NoteNumber":59,"Velocity":36,"Duration":166315,"SoundDuration":166315,"Delta":138400710},{"NoteNumber":63,"Velocity":44,"Duration":1316858,"SoundDuration":1316858,"Delta":138567025},{"NoteNumber":47,"Velocity":29,"Duration":166315,"SoundDuration":166315,"Delta":138567025},{"NoteNumber":54,"Velocity":31,"Duration":165941,"SoundDuration":165941,"Delta":138733341},{"NoteNumber":57,"Velocity":38,"Duration":164990,"SoundDuration":164990,"Delta":138899282},{"NoteNumber":59,"Velocity":44,"Duration":164050,"SoundDuration":164050,"Delta":139064272},{"NoteNumber":47,"Velocity":49,"Duration":163128,"SoundDuration":163128,"Delta":139228323},{"NoteNumber":35,"Velocity":38,"Duration":1320540,"SoundDuration":1320540,"Delta":139228323},{"NoteNumber":54,"Velocity":33,"Duration":163210,"SoundDuration":163210,"Delta":139391452},{"NoteNumber":57,"Velocity":41,"Duration":164140,"SoundDuration":164140,"Delta":139554662},{"NoteNumber":59,"Velocity":31,"Duration":165081,"SoundDuration":165081,"Delta":139718803},{"NoteNumber":62,"Velocity":43,"Duration":1345571,"SoundDuration":1345571,"Delta":139883884},{"NoteNumber":47,"Velocity":32,"Duration":166032,"SoundDuration":166032,"Delta":139883884},{"NoteNumber":53,"Velocity":26,"Duration":166315,"SoundDuration":166315,"Delta":140049917},{"NoteNumber":56,"Velocity":30,"Duration":166315,"SoundDuration":166315,"Delta":140216232},{"NoteNumber":59,"Velocity":38,"Duration":166315,"SoundDuration":166315,"Delta":140382548},{"NoteNumber":47,"Velocity":41,"Duration":164581,"SoundDuration":164581,"Delta":140548863},{"NoteNumber":35,"Velocity":40,"Duration":680591,"SoundDuration":680591,"Delta":140548863},{"NoteNumber":53,"Velocity":25,"Duration":164581,"SoundDuration":164581,"Delta":140713445},{"NoteNumber":56,"Velocity":25,"Duration":164581,"SoundDuration":164581,"Delta":140878027},{"NoteNumber":59,"Velocity":23,"Duration":186846,"SoundDuration":186846,"Delta":141042609},{"NoteNumber":61,"Velocity":36,"Duration":332630,"SoundDuration":332630,"Delta":141229455},{"NoteNumber":45,"Velocity":29,"Duration":166315,"SoundDuration":166315,"Delta":141229455},{"NoteNumber":33,"Velocity":34,"Duration":665262,"SoundDuration":665262,"Delta":141229455},{"NoteNumber":49,"Velocity":25,"Duration":166315,"SoundDuration":166315,"Delta":141395771},{"NoteNumber":54,"Velocity":25,"Duration":166315,"SoundDuration":166315,"Delta":141562086},{"NoteNumber":57,"Velocity":24,"Duration":152455,"SoundDuration":152455,"Delta":141728402},{"NoteNumber":61,"Velocity":56,"Duration":632111,"SoundDuration":632111,"Delta":141894717},{"NoteNumber":45,"Velocity":31,"Duration":158027,"SoundDuration":158027,"Delta":141894717},{"NoteNumber":32,"Velocity":39,"Duration":632111,"SoundDuration":632111,"Delta":141894717},{"NoteNumber":49,"Velocity":30,"Duration":158027,"SoundDuration":158027,"Delta":142052745},{"NoteNumber":54,"Velocity":33,"Duration":158027,"SoundDuration":158027,"Delta":142210773},{"NoteNumber":57,"Velocity":38,"Duration":158027,"SoundDuration":158027,"Delta":142368800},{"NoteNumber":63,"Velocity":58,"Duration":632110,"SoundDuration":632110,"Delta":142526828},{"NoteNumber":45,"Velocity":45,"Duration":158027,"SoundDuration":158027,"Delta":142526828},{"NoteNumber":30,"Velocity":48,"Duration":632110,"SoundDuration":632110,"Delta":142526828},{"NoteNumber":51,"Velocity":30,"Duration":158027,"SoundDuration":158027,"Delta":142684856},{"NoteNumber":57,"Velocity":32,"Duration":158027,"SoundDuration":158027,"Delta":142842884},{"NoteNumber":59,"Velocity":37,"Duration":158027,"SoundDuration":158027,"Delta":143000911},{"NoteNumber":64,"Velocity":65,"Duration":632111,"SoundDuration":632111,"Delta":143158939},{"NoteNumber":45,"Velocity":41,"Duration":158027,"SoundDuration":158027,"Delta":143158939},{"NoteNumber":40,"Velocity":53,"Duration":632111,"SoundDuration":632111,"Delta":143158939},{"NoteNumber":52,"Velocity":33,"Duration":158027,"SoundDuration":158027,"Delta":143316967},{"NoteNumber":57,"Velocity":37,"Duration":158027,"SoundDuration":158027,"Delta":143474995},{"NoteNumber":59,"Velocity":41,"Duration":158027,"SoundDuration":158027,"Delta":143633022},{"NoteNumber":68,"Velocity":70,"Duration":645257,"SoundDuration":645257,"Delta":143791050},{"NoteNumber":47,"Velocity":45,"Duration":155714,"SoundDuration":155714,"Delta":143791050},{"NoteNumber":39,"Velocity":57,"Duration":645257,"SoundDuration":645257,"Delta":143791050},{"NoteNumber":54,"Velocity":35,"Duration":155714,"SoundDuration":155714,"Delta":143946765},{"NoteNumber":57,"Velocity":46,"Duration":159629,"SoundDuration":159629,"Delta":144102480},{"NoteNumber":59,"Velocity":38,"Duration":174198,"SoundDuration":174198,"Delta":144262109},{"NoteNumber":66,"Velocity":63,"Duration":491212,"SoundDuration":491212,"Delta":144436308},{"NoteNumber":47,"Velocity":40,"Duration":163737,"SoundDuration":163737,"Delta":144436308},{"NoteNumber":35,"Velocity":49,"Duration":670681,"SoundDuration":670681,"Delta":144436308},{"NoteNumber":51,"Velocity":32,"Duration":163737,"SoundDuration":163737,"Delta":144600045},{"NoteNumber":57,"Velocity":31,"Duration":163737,"SoundDuration":163737,"Delta":144763783},{"NoteNumber":64,"Velocity":53,"Duration":164513,"SoundDuration":164513,"Delta":144927520},{"NoteNumber":59,"Velocity":28,"Duration":179468,"SoundDuration":179468,"Delta":144927520},{"NoteNumber":64,"Velocity":66,"Duration":1338920,"SoundDuration":1338920,"Delta":145106989},{"NoteNumber":47,"Velocity":36,"Duration":164581,"SoundDuration":164581,"Delta":145106989},{"NoteNumber":40,"Velocity":55,"Duration":1323349,"SoundDuration":1323349,"Delta":145106989},{"NoteNumber":52,"Velocity":32,"Duration":164581,"SoundDuration":164581,"Delta":145271571},{"NoteNumber":56,"Velocity":32,"Duration":164581,"SoundDuration":164581,"Delta":145436153},{"NoteNumber":59,"Velocity":31,"Duration":164582,"SoundDuration":164582,"Delta":145600735},{"NoteNumber":47,"Velocity":40,"Duration":164581,"SoundDuration":164581,"Delta":145765317},{"NoteNumber":52,"Velocity":31,"Duration":164581,"SoundDuration":164581,"Delta":145929899},{"NoteNumber":56,"Velocity":31,"Duration":164581,"SoundDuration":164581,"Delta":146094481},{"NoteNumber":59,"Velocity":28,"Duration":186846,"SoundDuration":186846,"Delta":146259063},{"NoteNumber":47,"Velocity":36,"Duration":166315,"SoundDuration":166315,"Delta":146445909},{"NoteNumber":40,"Velocity":47,"Duration":2576205,"SoundDuration":2576205,"Delta":146445909},{"NoteNumber":52,"Velocity":31,"Duration":166315,"SoundDuration":166315,"Delta":146612225},{"NoteNumber":56,"Velocity":31,"Duration":166315,"SoundDuration":166315,"Delta":146778540},{"NoteNumber":59,"Velocity":30,"Duration":166315,"SoundDuration":166315,"Delta":146944856},{"NoteNumber":62,"Velocity":49,"Duration":652954,"SoundDuration":652954,"Delta":147111171},{"NoteNumber":47,"Velocity":34,"Duration":163238,"SoundDuration":163238,"Delta":147111171},{"NoteNumber":52,"Velocity":30,"Duration":163238,"SoundDuration":163238,"Delta":147274410},{"NoteNumber":56,"Velocity":31,"Duration":163238,"SoundDuration":163238,"Delta":147437649},{"NoteNumber":59,"Velocity":33,"Duration":163238,"SoundDuration":163238,"Delta":147600887},{"NoteNumber":61,"Velocity":55,"Duration":1271157,"SoundDuration":1271157,"Delta":147764126},{"NoteNumber":45,"Velocity":33,"Duration":159761,"SoundDuration":159761,"Delta":147764126},{"NoteNumber":49,"Velocity":24,"Duration":159761,"SoundDuration":159761,"Delta":147923888},{"NoteNumber":52,"Velocity":24,"Duration":159761,"SoundDuration":159761,"Delta":148083649},{"NoteNumber":57,"Velocity":23,"Duration":159761,"SoundDuration":159761,"Delta":148243411},{"NoteNumber":45,"Velocity":30,"Duration":158027,"SoundDuration":158027,"Delta":148403172},{"NoteNumber":49,"Velocity":23,"Duration":158027,"SoundDuration":158027,"Delta":148561200},{"NoteNumber":52,"Velocity":23,"Duration":158027,"SoundDuration":158027,"Delta":148719228},{"NoteNumber":57,"Velocity":20,"Duration":158027,"SoundDuration":158027,"Delta":148877255},{"NoteNumber":45,"Velocity":29,"Duration":157547,"SoundDuration":157547,"Delta":149035283},{"NoteNumber":40,"Velocity":42,"Duration":2560721,"SoundDuration":2560721,"Delta":149035283},{"NoteNumber":49,"Velocity":24,"Duration":158803,"SoundDuration":158803,"Delta":149192831},{"NoteNumber":52,"Velocity":29,"Duration":160796,"SoundDuration":160796,"Delta":149351634},{"NoteNumber":57,"Velocity":35,"Duration":172631,"SoundDuration":172631,"Delta":149512430},{"NoteNumber":60,"Velocity":42,"Duration":652954,"SoundDuration":652954,"Delta":149685062},{"NoteNumber":45,"Velocity":29,"Duration":163238,"SoundDuration":163238,"Delta":149685062},{"NoteNumber":48,"Velocity":25,"Duration":163238,"SoundDuration":163238,"Delta":149848301},{"NoteNumber":52,"Velocity":27,"Duration":163238,"SoundDuration":163238,"Delta":150011539},{"NoteNumber":57,"Velocity":28,"Duration":163238,"SoundDuration":163238,"Delta":150174778},{"NoteNumber":59,"Velocity":47,"Duration":1271157,"SoundDuration":1271157,"Delta":150338017},{"NoteNumber":42,"Velocity":29,"Duration":159761,"SoundDuration":159761,"Delta":150338017},{"NoteNumber":47,"Velocity":21,"Duration":159761,"SoundDuration":159761,"Delta":150497778},{"NoteNumber":51,"Velocity":21,"Duration":159761,"SoundDuration":159761,"Delta":150657540},{"NoteNumber":57,"Velocity":20,"Duration":159761,"SoundDuration":159761,"Delta":150817301},{"NoteNumber":42,"Velocity":25,"Duration":158027,"SoundDuration":158027,"Delta":150977063},{"NoteNumber":47,"Velocity":20,"Duration":158027,"SoundDuration":158027,"Delta":151135091},{"NoteNumber":51,"Velocity":19,"Duration":158027,"SoundDuration":158027,"Delta":151293118},{"NoteNumber":57,"Velocity":17,"Duration":158027,"SoundDuration":158027,"Delta":151451146},{"NoteNumber":42,"Velocity":25,"Duration":157547,"SoundDuration":157547,"Delta":151609174},{"NoteNumber":40,"Velocity":36,"Duration":2597068,"SoundDuration":2597068,"Delta":151609174},{"NoteNumber":47,"Velocity":20,"Duration":158803,"SoundDuration":158803,"Delta":151766721},{"NoteNumber":51,"Velocity":24,"Duration":160796,"SoundDuration":160796,"Delta":151925525},{"NoteNumber":57,"Velocity":30,"Duration":172631,"SoundDuration":172631,"Delta":152086321},{"NoteNumber":68,"Velocity":36,"Duration":336360,"SoundDuration":336360,"Delta":152258953},{"NoteNumber":47,"Velocity":25,"Duration":168180,"SoundDuration":168180,"Delta":152258953},{"NoteNumber":51,"Velocity":21,"Duration":168180,"SoundDuration":168180,"Delta":152427133},{"NoteNumber":66,"Velocity":35,"Duration":336360,"SoundDuration":336360,"Delta":152595313},{"NoteNumber":57,"Velocity":23,"Duration":168180,"SoundDuration":168180,"Delta":152595313},{"NoteNumber":59,"Velocity":24,"Duration":168180,"SoundDuration":168180,"Delta":152763494},{"NoteNumber":64,"Velocity":39,"Duration":1287840,"SoundDuration":1287840,"Delta":152931674},{"NoteNumber":47,"Velocity":24,"Duration":162707,"SoundDuration":162707,"Delta":152931674},{"NoteNumber":52,"Velocity":18,"Duration":162707,"SoundDuration":162707,"Delta":153094381},{"NoteNumber":56,"Velocity":18,"Duration":162707,"SoundDuration":162707,"Delta":153257089},{"NoteNumber":59,"Velocity":17,"Duration":162707,"SoundDuration":162707,"Delta":153419796},{"NoteNumber":47,"Velocity":22,"Duration":159252,"SoundDuration":159252,"Delta":153582504},{"NoteNumber":52,"Velocity":17,"Duration":159252,"SoundDuration":159252,"Delta":153741756},{"NoteNumber":56,"Velocity":17,"Duration":159252,"SoundDuration":159252,"Delta":153901009},{"NoteNumber":59,"Velocity":16,"Duration":159252,"SoundDuration":159252,"Delta":154060261},{"NoteNumber":47,"Velocity":23,"Duration":157965,"SoundDuration":157965,"Delta":154219514},{"NoteNumber":40,"Velocity":32,"Duration":2000723,"SoundDuration":2000723,"Delta":154219514},{"NoteNumber":52,"Velocity":15,"Duration":158803,"SoundDuration":158803,"Delta":154377480},{"NoteNumber":56,"Velocity":19,"Duration":160708,"SoundDuration":160708,"Delta":154536283},{"NoteNumber":59,"Velocity":22,"Duration":180310,"SoundDuration":180310,"Delta":154696992},{"NoteNumber":68,"Velocity":34,"Duration":684228,"SoundDuration":684228,"Delta":154877302},{"NoteNumber":47,"Velocity":24,"Duration":171057,"SoundDuration":171057,"Delta":154877302},{"NoteNumber":52,"Velocity":18,"Duration":171057,"SoundDuration":171057,"Delta":155048359},{"NoteNumber":56,"Velocity":20,"Duration":171057,"SoundDuration":171057,"Delta":155219417},{"NoteNumber":59,"Velocity":20,"Duration":171057,"SoundDuration":171057,"Delta":155390474},{"NoteNumber":64,"Velocity":38,"Duration":1331384,"SoundDuration":1331384,"Delta":155561531},{"NoteNumber":47,"Velocity":24,"Duration":168180,"SoundDuration":168180,"Delta":155561531},{"NoteNumber":52,"Velocity":17,"Duration":168180,"SoundDuration":168180,"Delta":155729711},{"NoteNumber":56,"Velocity":17,"Duration":168180,"SoundDuration":168180,"Delta":155897892},{"NoteNumber":59,"Velocity":17,"Duration":168180,"SoundDuration":168180,"Delta":156066072},{"NoteNumber":47,"Velocity":21,"Duration":168180,"SoundDuration":168180,"Delta":156234252},{"NoteNumber":40,"Velocity":24,"Duration":658663,"SoundDuration":658663,"Delta":156234252},{"NoteNumber":52,"Velocity":17,"Duration":168180,"SoundDuration":168180,"Delta":156402432},{"NoteNumber":56,"Velocity":16,"Duration":168180,"SoundDuration":168180,"Delta":156570613},{"NoteNumber":59,"Velocity":14,"Duration":168090,"SoundDuration":168090,"Delta":156738793},{"NoteNumber":64,"Velocity":38,"Duration":1594346,"SoundDuration":1594346,"Delta":156906884},{"NoteNumber":47,"Velocity":24,"Duration":169576,"SoundDuration":169576,"Delta":156906884},{"NoteNumber":40,"Velocity":24,"Duration":688892,"SoundDuration":688892,"Delta":156906884},{"NoteNumber":52,"Velocity":17,"Duration":173657,"SoundDuration":173657,"Delta":157076460},{"NoteNumber":56,"Velocity":17,"Duration":178243,"SoundDuration":178243,"Delta":157250118},{"NoteNumber":59,"Velocity":17,"Duration":182849,"SoundDuration":182849,"Delta":157428361},{"NoteNumber":47,"Velocity":21,"Duration":187455,"SoundDuration":187455,"Delta":157611211},{"NoteNumber":40,"Velocity":23,"Duration":890020,"SoundDuration":890020,"Delta":157611211},{"NoteNumber":52,"Velocity":17,"Duration":204109,"SoundDuration":204109,"Delta":157798667},{"NoteNumber":56,"Velocity":16,"Duration":220620,"SoundDuration":220620,"Delta":158002776},{"NoteNumber":59,"Velocity":14,"Duration":303091,"SoundDuration":303091,"Delta":158223397},{"NoteNumber":56,"Velocity":19,"Duration":4849464,"SoundDuration":4849464,"Delta":158526488},{"NoteNumber":64,"Velocity":26,"Duration":4849464,"SoundDuration":4849464,"Delta":158526488},{"NoteNumber":40,"Velocity":15,"Duration":4849464,"SoundDuration":4849464,"Delta":158526488},{"NoteNumber":47,"Velocity":15,"Duration":4849464,"SoundDuration":4849464,"Delta":158526488}]}