{"title":"Mendelssohn: Lieder ohne Worte Opus 30 Nr. 4","artist":"Piano","durationMs":160089,"midiSha256":"19ca3277b9760db9e1faf20d172bab397f221046dc3c7a187dced65b0a8d3db7","midiObject":[{"NoteNumber":54,"Velocity":43,"Duration":73249,"SoundDuration":73249,"Delta":0},{"NoteNumber":54,"Velocity":39,"Duration":73064,"SoundDuration":73064,"Delta":146498},{"NoteNumber":54,"Velocity":40,"Duration":72512,"SoundDuration":72512,"Delta":292350},{"NoteNumber":54,"Velocity":37,"Duration":71880,"SoundDuration":71880,"Delta":437013},{"NoteNumber":54,"Velocity":40,"Duration":71702,"SoundDuration":71702,"Delta":580418},{"NoteNumber":54,"Velocity":37,"Duration":72695,"SoundDuration":72695,"Delta":724361},{"NoteNumber":54,"Velocity":36,"Duration":73249,"SoundDuration":73249,"Delta":870214},{"NoteNumber":64,"Velocity":40,"Duration":73249,"SoundDuration":73249,"Delta":870214},{"NoteNumber":61,"Velocity":32,"Duration":73249,"SoundDuration":73249,"Delta":870214},{"NoteNumber":54,"Velocity":29,"Duration":72879,"SoundDuration":72879,"Delta":1016713},{"NoteNumber":61,"Velocity":29,"Duration":72879,"SoundDuration":72879,"Delta":1016713},{"NoteNumber":64,"Velocity":37,"Duration":72879,"SoundDuration":72879,"Delta":1016713},{"NoteNumber":64,"Velocity":40,"Duration":72331,"SoundDuration":72331,"Delta":1162196},{"NoteNumber":61,"Velocity":32,"Duration":72331,"SoundDuration":72331,"Delta":1162196},{"NoteNumber":54,"Velocity":32,"Duration":72331,"SoundDuration":72331,"Delta":1162196},{"NoteNumber":54,"Velocity":29,"Duration":71790,"SoundDuration":71790,"Delta":1306588},{"NoteNumber":61,"Velocity":29,"Duration":71790,"SoundDuration":71790,"Delta":1306588},{"NoteNumber":64,"Velocity":37,"Duration":71790,"SoundDuration":71790,"Delta":1306588},{"NoteNumber":66,"Velocity":50,"Duration":152687,"SoundDuration":152687,"Delta":1449814},{"NoteNumber":64,"Velocity":40,"Duration":76343,"SoundDuration":76343,"Delta":1449814},{"NoteNumber":61,"Velocity":32,"Duration":76343,"SoundDuration":76343,"Delta":1449814},{"NoteNumber":54,"Velocity":32,"Duration":76343,"SoundDuration":76343,"Delta":1449814},{"NoteNumber":54,"Velocity":30,"Duration":83388,"SoundDuration":83388,"Delta":1602502},{"NoteNumber":61,"Velocity":30,"Duration":83388,"SoundDuration":83388,"Delta":1602502},{"NoteNumber":64,"Velocity":38,"Duration":83388,"SoundDuration":83388,"Delta":1602502},{"NoteNumber":66,"Velocity":56,"Duration":293859,"SoundDuration":293859,"Delta":1769279},{"NoteNumber":46,"Velocity":40,"Duration":73623,"SoundDuration":73623,"Delta":1769279},{"NoteNumber":54,"Velocity":33,"Duration":73623,"SoundDuration":73623,"Delta":1916526},{"NoteNumber":61,"Velocity":33,"Duration":73623,"SoundDuration":73623,"Delta":1916526},{"NoteNumber":64,"Velocity":43,"Duration":73623,"SoundDuration":73623,"Delta":1916526},{"NoteNumber":68,"Velocity":58,"Duration":69072,"SoundDuration":69072,"Delta":2063139},{"NoteNumber":54,"Velocity":37,"Duration":69072,"SoundDuration":69072,"Delta":2063139},{"NoteNumber":61,"Velocity":37,"Duration":69072,"SoundDuration":69072,"Delta":2063139},{"NoteNumber":64,"Velocity":47,"Duration":69072,"SoundDuration":69072,"Delta":2063139},{"NoteNumber":70,"Velocity":59,"Duration":67598,"SoundDuration":67598,"Delta":2200208},{"NoteNumber":54,"Velocity":39,"Duration":67598,"SoundDuration":67598,"Delta":2200208},{"NoteNumber":61,"Velocity":39,"Duration":67598,"SoundDuration":67598,"Delta":2200208},{"NoteNumber":64,"Velocity":50,"Duration":67598,"SoundDuration":67598,"Delta":2200208},{"NoteNumber":71,"Velocity":63,"Duration":66738,"SoundDuration":66738,"Delta":2335011},{"NoteNumber":54,"Velocity":42,"Duration":66738,"SoundDuration":66738,"Delta":2335011},{"NoteNumber":61,"Velocity":42,"Duration":66738,"SoundDuration":66738,"Delta":2335011},{"NoteNumber":64,"Velocity":53,"Duration":66738,"SoundDuration":66738,"Delta":2335011},{"NoteNumber":73,"Velocity":66,"Duration":79272,"SoundDuration":79272,"Delta":2468103},{"NoteNumber":54,"Velocity":46,"Duration":79272,"SoundDuration":79272,"Delta":2468103},{"NoteNumber":61,"Velocity":46,"Duration":79272,"SoundDuration":79272,"Delta":2468103},{"NoteNumber":64,"Velocity":57,"Duration":79272,"SoundDuration":79272,"Delta":2468103},{"NoteNumber":74,"Velocity":74,"Duration":294493,"SoundDuration":294493,"Delta":2626649},{"NoteNumber":47,"Velocity":60,"Duration":73623,"SoundDuration":73623,"Delta":2626649},{"NoteNumber":62,"Velocity":43,"Duration":73623,"SoundDuration":73623,"Delta":2773895},{"NoteNumber":59,"Velocity":34,"Duration":73623,"SoundDuration":73623,"Delta":2773895},{"NoteNumber":54,"Velocity":34,"Duration":73623,"SoundDuration":73623,"Delta":2773895},{"NoteNumber":70,"Velocity":63,"Duration":282965,"SoundDuration":282965,"Delta":2921142},{"NoteNumber":54,"Velocity":41,"Duration":70741,"SoundDuration":70741,"Delta":2921142},{"NoteNumber":59,"Velocity":41,"Duration":70741,"SoundDuration":70741,"Delta":2921142},{"NoteNumber":62,"Velocity":52,"Duration":70741,"SoundDuration":70741,"Delta":2921142},{"NoteNumber":54,"Velocity":39,"Duration":70741,"SoundDuration":70741,"Delta":3062625},{"NoteNumber":59,"Velocity":39,"Duration":70741,"SoundDuration":70741,"Delta":3062625},{"NoteNumber":62,"Velocity":49,"Duration":70741,"SoundDuration":70741,"Delta":3062625},{"NoteNumber":71,"Velocity":64,"Duration":282965,"SoundDuration":282965,"Delta":3204107},{"NoteNumber":62,"Velocity":56,"Duration":70741,"SoundDuration":70741,"Delta":3204107},{"NoteNumber":59,"Velocity":44,"Duration":70741,"SoundDuration":70741,"Delta":3204107},{"NoteNumber":54,"Velocity":44,"Duration":70741,"SoundDuration":70741,"Delta":3204107},{"NoteNumber":54,"Velocity":42,"Duration":70741,"SoundDuration":70741,"Delta":3345590},{"NoteNumber":59,"Velocity":42,"Duration":70741,"SoundDuration":70741,"Delta":3345590},{"NoteNumber":62,"Velocity":54,"Duration":70741,"SoundDuration":70741,"Delta":3345590},{"NoteNumber":76,"Velocity":76,"Duration":291516,"SoundDuration":291516,"Delta":3487073},{"NoteNumber":43,"Velocity":67,"Duration":72879,"SoundDuration":72879,"Delta":3487073},{"NoteNumber":64,"Velocity":49,"Duration":72879,"SoundDuration":72879,"Delta":3632831},{"NoteNumber":59,"Velocity":39,"Duration":72879,"SoundDuration":72879,"Delta":3632831},{"NoteNumber":55,"Velocity":39,"Duration":72879,"SoundDuration":72879,"Delta":3632831},{"NoteNumber":70,"Velocity":66,"Duration":291517,"SoundDuration":291517,"Delta":3778590},{"NoteNumber":55,"Velocity":44,"Duration":72879,"SoundDuration":72879,"Delta":3778590},{"NoteNumber":59,"Velocity":44,"Duration":72879,"SoundDuration":72879,"Delta":3778590},{"NoteNumber":64,"Velocity":55,"Duration":72879,"SoundDuration":72879,"Delta":3778590},{"NoteNumber":55,"Velocity":42,"Duration":72879,"SoundDuration":72879,"Delta":3924348},{"NoteNumber":59,"Velocity":42,"Duration":72879,"SoundDuration":72879,"Delta":3924348},{"NoteNumber":64,"Velocity":52,"Duration":72879,"SoundDuration":72879,"Delta":3924348},{"NoteNumber":71,"Velocity":71,"Duration":306066,"SoundDuration":306066,"Delta":4070107},{"NoteNumber":55,"Velocity":46,"Duration":72879,"SoundDuration":72879,"Delta":4070107},{"NoteNumber":59,"Velocity":46,"Duration":72879,"SoundDuration":72879,"Delta":4070107},{"NoteNumber":64,"Velocity":57,"Duration":72879,"SoundDuration":72879,"Delta":4070107},{"NoteNumber":55,"Velocity":52,"Duration":80153,"SoundDuration":80153,"Delta":4215865},{"NoteNumber":59,"Velocity":52,"Duration":80153,"SoundDuration":80153,"Delta":4215865},{"NoteNumber":64,"Velocity":66,"Duration":80153,"SoundDuration":80153,"Delta":4215865},{"NoteNumber":73,"Velocity":81,"Duration":575306,"SoundDuration":575306,"Delta":4376173},{"NoteNumber":42,"Velocity":73,"Duration":73156,"SoundDuration":73156,"Delta":4376173},{"NoteNumber":64,"Velocity":61,"Duration":72422,"SoundDuration":72422,"Delta":4522118},{"NoteNumber":58,"Velocity":48,"Duration":72422,"SoundDuration":72422,"Delta":4522118},{"NoteNumber":54,"Velocity":48,"Duration":72422,"SoundDuration":72422,"Delta":4522118},{"NoteNumber":64,"Velocity":66,"Duration":71613,"SoundDuration":71613,"Delta":4666510},{"NoteNumber":58,"Velocity":52,"Duration":71613,"SoundDuration":71613,"Delta":4666510},{"NoteNumber":54,"Velocity":52,"Duration":71613,"SoundDuration":71613,"Delta":4666510},{"NoteNumber":64,"Velocity":70,"Duration":71089,"SoundDuration":71089,"Delta":4809300},{"NoteNumber":58,"Velocity":56,"Duration":71089,"SoundDuration":71089,"Delta":4809300},{"NoteNumber":54,"Velocity":56,"Duration":71089,"SoundDuration":71089,"Delta":4809300},{"NoteNumber":79,"Velocity":85,"Duration":321247,"SoundDuration":321247,"Delta":4951480},{"NoteNumber":64,"Velocity":72,"Duration":76749,"SoundDuration":76749,"Delta":4951480},{"NoteNumber":58,"Velocity":57,"Duration":76749,"SoundDuration":76749,"Delta":4951480},{"NoteNumber":54,"Velocity":57,"Duration":76749,"SoundDuration":76749,"Delta":4951480},{"NoteNumber":54,"Velocity":48,"Duration":83873,"SoundDuration":83873,"Delta":5104979},{"NoteNumber":58,"Velocity":48,"Duration":83873,"SoundDuration":83873,"Delta":5104979},{"NoteNumber":64,"Velocity":60,"Duration":83873,"SoundDuration":83873,"Delta":5104979},{"NoteNumber":78,"Velocity":93,"Duration":431711,"SoundDuration":431711,"Delta":5272727},{"NoteNumber":46,"Velocity":78,"Duration":73249,"SoundDuration":73249,"Delta":5272727},{"NoteNumber":66,"Velocity":61,"Duration":71970,"SoundDuration":71970,"Delta":5418676},{"NoteNumber":54,"Velocity":48,"Duration":71970,"SoundDuration":71970,"Delta":5418676},{"NoteNumber":61,"Velocity":48,"Duration":71970,"SoundDuration":71970,"Delta":5418676},{"NoteNumber":64,"Velocity":51,"Duration":71970,"SoundDuration":71970,"Delta":5418676},{"NoteNumber":66,"Velocity":57,"Duration":71262,"SoundDuration":71262,"Delta":5562260},{"NoteNumber":64,"Velocity":48,"Duration":71262,"SoundDuration":71262,"Delta":5562260},{"NoteNumber":61,"Velocity":45,"Duration":71262,"SoundDuration":71262,"Delta":5562260},{"NoteNumber":54,"Velocity":45,"Duration":71262,"SoundDuration":71262,"Delta":5562260},{"NoteNumber":76,"Velocity":81,"Duration":65968,"SoundDuration":65968,"Delta":5704438},{"NoteNumber":66,"Velocity":63,"Duration":65968,"SoundDuration":65968,"Delta":5704438},{"NoteNumber":54,"Velocity":50,"Duration":65968,"SoundDuration":65968,"Delta":5704438},{"NoteNumber":61,"Velocity":50,"Duration":65968,"SoundDuration":65968,"Delta":5704438},{"NoteNumber":64,"Velocity":53,"Duration":65968,"SoundDuration":65968,"Delta":5704438},{"NoteNumber":74,"Velocity":86,"Duration":69969,"SoundDuration":69969,"Delta":5836376},{"NoteNumber":66,"Velocity":64,"Duration":69969,"SoundDuration":69969,"Delta":5836376},{"NoteNumber":54,"Velocity":51,"Duration":69969,"SoundDuration":69969,"Delta":5836376},{"NoteNumber":61,"Velocity":51,"Duration":69969,"SoundDuration":69969,"Delta":5836376},{"NoteNumber":64,"Velocity":54,"Duration":69969,"SoundDuration":69969,"Delta":5836376},{"NoteNumber":73,"Velocity":86,"Duration":82435,"SoundDuration":82435,"Delta":5976315},{"NoteNumber":66,"Velocity":68,"Duration":82435,"SoundDuration":82435,"Delta":5976315},{"NoteNumber":54,"Velocity":54,"Duration":82435,"SoundDuration":82435,"Delta":5976315},{"NoteNumber":61,"Velocity":54,"Duration":82435,"SoundDuration":82435,"Delta":5976315},{"NoteNumber":64,"Velocity":57,"Duration":82435,"SoundDuration":82435,"Delta":5976315},{"NoteNumber":76,"Velocity":92,"Duration":434581,"SoundDuration":434581,"Delta":6141186},{"NoteNumber":47,"Velocity":75,"Duration":73623,"SoundDuration":73623,"Delta":6141186},{"NoteNumber":66,"Velocity":60,"Duration":72150,"SoundDuration":72150,"Delta":6288064},{"NoteNumber":62,"Velocity":51,"Duration":72150,"SoundDuration":72150,"Delta":6288064},{"NoteNumber":59,"Velocity":48,"Duration":72150,"SoundDuration":72150,"Delta":6288064},{"NoteNumber":54,"Velocity":48,"Duration":72150,"SoundDuration":72150,"Delta":6288064},{"NoteNumber":66,"Velocity":60,"Duration":71791,"SoundDuration":71791,"Delta":6432275},{"NoteNumber":62,"Velocity":51,"Duration":71791,"SoundDuration":71791,"Delta":6432275},{"NoteNumber":59,"Velocity":48,"Duration":71791,"SoundDuration":71791,"Delta":6432275},{"NoteNumber":54,"Velocity":48,"Duration":71791,"SoundDuration":71791,"Delta":6432275},{"NoteNumber":74,"Velocity":75,"Duration":71435,"SoundDuration":71435,"Delta":6575768},{"NoteNumber":66,"Velocity":56,"Duration":71435,"SoundDuration":71435,"Delta":6575768},{"NoteNumber":62,"Velocity":47,"Duration":71435,"SoundDuration":71435,"Delta":6575768},{"NoteNumber":59,"Velocity":44,"Duration":71435,"SoundDuration":71435,"Delta":6575768},{"NoteNumber":54,"Velocity":44,"Duration":71435,"SoundDuration":71435,"Delta":6575768},{"NoteNumber":73,"Velocity":75,"Duration":75543,"SoundDuration":75543,"Delta":6718466},{"NoteNumber":66,"Velocity":63,"Duration":75543,"SoundDuration":75543,"Delta":6718466},{"NoteNumber":62,"Velocity":53,"Duration":75543,"SoundDuration":75543,"Delta":6718466},{"NoteNumber":59,"Velocity":50,"Duration":75543,"SoundDuration":75543,"Delta":6718466},{"NoteNumber":54,"Velocity":50,"Duration":75543,"SoundDuration":75543,"Delta":6718466},{"NoteNumber":71,"Velocity":84,"Duration":78839,"SoundDuration":78839,"Delta":6869554},{"NoteNumber":66,"Velocity":58,"Duration":78839,"SoundDuration":78839,"Delta":6869554},{"NoteNumber":62,"Velocity":49,"Duration":78839,"SoundDuration":78839,"Delta":6869554},{"NoteNumber":59,"Velocity":46,"Duration":78839,"SoundDuration":78839,"Delta":6869554},{"NoteNumber":54,"Velocity":46,"Duration":78839,"SoundDuration":78839,"Delta":6869554},{"NoteNumber":69,"Velocity":90,"Duration":441739,"SoundDuration":441739,"Delta":7027233},{"NoteNumber":49,"Velocity":75,"Duration":147246,"SoundDuration":147246,"Delta":7027233},{"NoteNumber":53,"Velocity":43,"Duration":73623,"SoundDuration":73623,"Delta":7174479},{"NoteNumber":59,"Velocity":43,"Duration":73623,"SoundDuration":73623,"Delta":7174479},{"NoteNumber":61,"Velocity":55,"Duration":73623,"SoundDuration":73623,"Delta":7174479},{"NoteNumber":53,"Velocity":48,"Duration":73623,"SoundDuration":73623,"Delta":7321726},{"NoteNumber":59,"Velocity":48,"Duration":73623,"SoundDuration":73623,"Delta":7321726},{"NoteNumber":61,"Velocity":61,"Duration":73623,"SoundDuration":73623,"Delta":7321726},{"NoteNumber":68,"Velocity":68,"Duration":73623,"SoundDuration":73623,"Delta":7468972},{"NoteNumber":61,"Velocity":53,"Duration":73623,"SoundDuration":73623,"Delta":7468972},{"NoteNumber":59,"Velocity":42,"Duration":73623,"SoundDuration":73623,"Delta":7468972},{"NoteNumber":53,"Velocity":42,"Duration":73623,"SoundDuration":73623,"Delta":7468972},{"NoteNumber":66,"Velocity":66,"Duration":76343,"SoundDuration":76343,"Delta":7616219},{"NoteNumber":61,"Velocity":62,"Duration":76343,"SoundDuration":76343,"Delta":7616219},{"NoteNumber":59,"Velocity":49,"Duration":76343,"SoundDuration":76343,"Delta":7616219},{"NoteNumber":54,"Velocity":49,"Duration":76343,"SoundDuration":76343,"Delta":7616219},{"NoteNumber":65,"Velocity":72,"Duration":81967,"SoundDuration":81967,"Delta":7768906},{"NoteNumber":61,"Velocity":56,"Duration":81967,"SoundDuration":81967,"Delta":7768906},{"NoteNumber":59,"Velocity":45,"Duration":81967,"SoundDuration":81967,"Delta":7768906},{"NoteNumber":56,"Velocity":56,"Duration":81967,"SoundDuration":81967,"Delta":7768906},{"NoteNumber":65,"Velocity":78,"Duration":303766,"SoundDuration":303766,"Delta":7932841},{"NoteNumber":54,"Velocity":52,"Duration":75941,"SoundDuration":75941,"Delta":7932841},{"NoteNumber":58,"Velocity":52,"Duration":75941,"SoundDuration":75941,"Delta":7932841},{"NoteNumber":61,"Velocity":67,"Duration":75941,"SoundDuration":75941,"Delta":7932841},{"NoteNumber":54,"Velocity":38,"Duration":75941,"SoundDuration":75941,"Delta":8084724},{"NoteNumber":58,"Velocity":38,"Duration":75941,"SoundDuration":75941,"Delta":8084724},{"NoteNumber":61,"Velocity":49,"Duration":75941,"SoundDuration":75941,"Delta":8084724},{"NoteNumber":66,"Velocity":64,"Duration":259003,"SoundDuration":259003,"Delta":8236607},{"NoteNumber":54,"Velocity":42,"Duration":74001,"SoundDuration":74001,"Delta":8236607},{"NoteNumber":58,"Velocity":42,"Duration":74001,"SoundDuration":74001,"Delta":8236607},{"NoteNumber":61,"Velocity":52,"Duration":74001,"SoundDuration":74001,"Delta":8236607},{"NoteNumber":61,"Velocity":41,"Duration":74001,"SoundDuration":74001,"Delta":8384609},{"NoteNumber":58,"Velocity":32,"Duration":74001,"SoundDuration":74001,"Delta":8384609},{"NoteNumber":54,"Velocity":32,"Duration":74001,"SoundDuration":74001,"Delta":8384609},{"NoteNumber":66,"Velocity":61,"Duration":148001,"SoundDuration":148001,"Delta":8532611},{"NoteNumber":54,"Velocity":36,"Duration":74001,"SoundDuration":74001,"Delta":8532611},{"NoteNumber":58,"Velocity":36,"Duration":74001,"SoundDuration":74001,"Delta":8532611},{"NoteNumber":61,"Velocity":46,"Duration":74001,"SoundDuration":74001,"Delta":8532611},{"NoteNumber":61,"Velocity":40,"Duration":74001,"SoundDuration":74001,"Delta":8680613},{"NoteNumber":58,"Velocity":32,"Duration":74001,"SoundDuration":74001,"Delta":8680613},{"NoteNumber":54,"Velocity":32,"Duration":74001,"SoundDuration":74001,"Delta":8680613},{"NoteNumber":66,"Velocity":56,"Duration":293859,"SoundDuration":293859,"Delta":8828615},{"NoteNumber":46,"Velocity":40,"Duration":73623,"SoundDuration":73623,"Delta":8828615},{"NoteNumber":54,"Velocity":33,"Duration":73623,"SoundDuration":73623,"Delta":8975862},{"NoteNumber":61,"Velocity":33,"Duration":73623,"SoundDuration":73623,"Delta":8975862},{"NoteNumber":64,"Velocity":43,"Duration":73623,"SoundDuration":73623,"Delta":8975862},{"NoteNumber":68,"Velocity":58,"Duration":69072,"SoundDuration":69072,"Delta":9122475},{"NoteNumber":54,"Velocity":37,"Duration":69072,"SoundDuration":69072,"Delta":9122475},{"NoteNumber":61,"Velocity":37,"Duration":69072,"SoundDuration":69072,"Delta":9122475},{"NoteNumber":64,"Velocity":47,"Duration":69072,"SoundDuration":69072,"Delta":9122475},{"NoteNumber":70,"Velocity":59,"Duration":67598,"SoundDuration":67598,"Delta":9259544},{"NoteNumber":54,"Velocity":39,"Duration":67598,"SoundDuration":67598,"Delta":9259544},{"NoteNumber":61,"Velocity":39,"Duration":67598,"SoundDuration":67598,"Delta":9259544},{"NoteNumber":64,"Velocity":50,"Duration":67598,"SoundDuration":67598,"Delta":9259544},{"NoteNumber":71,"Velocity":63,"Duration":66738,"SoundDuration":66738,"Delta":9394346},{"NoteNumber":54,"Velocity":42,"Duration":66738,"SoundDuration":66738,"Delta":9394346},{"NoteNumber":61,"Velocity":42,"Duration":66738,"SoundDuration":66738,"Delta":9394346},{"NoteNumber":64,"Velocity":53,"Duration":66738,"SoundDuration":66738,"Delta":9394346},{"NoteNumber":73,"Velocity":66,"Duration":79272,"SoundDuration":79272,"Delta":9527439},{"NoteNumber":54,"Velocity":46,"Duration":79272,"SoundDuration":79272,"Delta":9527439},{"NoteNumber":61,"Velocity":46,"Duration":79272,"SoundDuration":79272,"Delta":9527439},{"NoteNumber":64,"Velocity":57,"Duration":79272,"SoundDuration":79272,"Delta":9527439},{"NoteNumber":74,"Velocity":74,"Duration":294492,"SoundDuration":294492,"Delta":9685984},{"NoteNumber":47,"Velocity":60,"Duration":73623,"SoundDuration":73623,"Delta":9685984},{"NoteNumber":62,"Velocity":43,"Duration":73623,"SoundDuration":73623,"Delta":9833231},{"NoteNumber":59,"Velocity":34,"Duration":73623,"SoundDuration":73623,"Delta":9833231},{"NoteNumber":54,"Velocity":34,"Duration":73623,"SoundDuration":73623,"Delta":9833231},{"NoteNumber":70,"Velocity":63,"Duration":282965,"SoundDuration":282965,"Delta":9980477},{"NoteNumber":54,"Velocity":41,"Duration":70741,"SoundDuration":70741,"Delta":9980477},{"NoteNumber":59,"Velocity":41,"Duration":70741,"SoundDuration":70741,"Delta":9980477},{"NoteNumber":62,"Velocity":52,"Duration":70741,"SoundDuration":70741,"Delta":9980477},{"NoteNumber":54,"Velocity":39,"Duration":70741,"SoundDuration":70741,"Delta":10121960},{"NoteNumber":59,"Velocity":39,"Duration":70741,"SoundDuration":70741,"Delta":10121960},{"NoteNumber":62,"Velocity":49,"Duration":70741,"SoundDuration":70741,"Delta":10121960},{"NoteNumber":71,"Velocity":65,"Duration":282965,"SoundDuration":282965,"Delta":10263443},{"NoteNumber":62,"Velocity":57,"Duration":70741,"SoundDuration":70741,"Delta":10263443},{"NoteNumber":59,"Velocity":44,"Duration":70741,"SoundDuration":70741,"Delta":10263443},{"NoteNumber":54,"Velocity":44,"Duration":70741,"SoundDuration":70741,"Delta":10263443},{"NoteNumber":54,"Velocity":42,"Duration":70741,"SoundDuration":70741,"Delta":10404926},{"NoteNumber":59,"Velocity":42,"Duration":70741,"SoundDuration":70741,"Delta":10404926},{"NoteNumber":62,"Velocity":55,"Duration":70741,"SoundDuration":70741,"Delta":10404926},{"NoteNumber":77,"Velocity":78,"Duration":291517,"SoundDuration":291517,"Delta":10546408},{"NoteNumber":47,"Velocity":69,"Duration":72879,"SoundDuration":72879,"Delta":10546408},{"NoteNumber":65,"Velocity":50,"Duration":72879,"SoundDuration":72879,"Delta":10692167},{"NoteNumber":61,"Velocity":40,"Duration":72879,"SoundDuration":72879,"Delta":10692167},{"NoteNumber":56,"Velocity":40,"Duration":72879,"SoundDuration":72879,"Delta":10692167},{"NoteNumber":72,"Velocity":67,"Duration":291516,"SoundDuration":291516,"Delta":10837925},{"NoteNumber":56,"Velocity":45,"Duration":72879,"SoundDuration":72879,"Delta":10837925},{"NoteNumber":61,"Velocity":45,"Duration":72879,"SoundDuration":72879,"Delta":10837925},{"NoteNumber":65,"Velocity":56,"Duration":72879,"SoundDuration":72879,"Delta":10837925},{"NoteNumber":56,"Velocity":43,"Duration":72879,"SoundDuration":72879,"Delta":10983684},{"NoteNumber":61,"Velocity":43,"Duration":72879,"SoundDuration":72879,"Delta":10983684},{"NoteNumber":65,"Velocity":54,"Duration":72879,"SoundDuration":72879,"Delta":10983684},{"NoteNumber":73,"Velocity":73,"Duration":306066,"SoundDuration":306066,"Delta":11129442},{"NoteNumber":56,"Velocity":47,"Duration":72879,"SoundDuration":72879,"Delta":11129442},{"NoteNumber":61,"Velocity":47,"Duration":72879,"SoundDuration":72879,"Delta":11129442},{"NoteNumber":65,"Velocity":59,"Duration":72879,"SoundDuration":72879,"Delta":11129442},{"NoteNumber":56,"Velocity":54,"Duration":80153,"SoundDuration":80153,"Delta":11275201},{"NoteNumber":61,"Velocity":54,"Duration":80153,"SoundDuration":80153,"Delta":11275201},{"NoteNumber":65,"Velocity":68,"Duration":80153,"SoundDuration":80153,"Delta":11275201},{"NoteNumber":78,"Velocity":86,"Duration":574351,"SoundDuration":574351,"Delta":11435509},{"NoteNumber":45,"Velocity":73,"Duration":73156,"SoundDuration":73156,"Delta":11435509},{"NoteNumber":66,"Velocity":61,"Duration":72422,"SoundDuration":72422,"Delta":11581453},{"NoteNumber":61,"Velocity":51,"Duration":72422,"SoundDuration":72422,"Delta":11581453},{"NoteNumber":57,"Velocity":48,"Duration":72422,"SoundDuration":72422,"Delta":11581453},{"NoteNumber":54,"Velocity":48,"Duration":72422,"SoundDuration":72422,"Delta":11581453},{"NoteNumber":66,"Velocity":66,"Duration":71613,"SoundDuration":71613,"Delta":11725846},{"NoteNumber":61,"Velocity":56,"Duration":71613,"SoundDuration":71613,"Delta":11725846},{"NoteNumber":57,"Velocity":52,"Duration":71613,"SoundDuration":71613,"Delta":11725846},{"NoteNumber":54,"Velocity":52,"Duration":71613,"SoundDuration":71613,"Delta":11725846},{"NoteNumber":66,"Velocity":70,"Duration":70828,"SoundDuration":70828,"Delta":11868635},{"NoteNumber":61,"Velocity":59,"Duration":70828,"SoundDuration":70828,"Delta":11868635},{"NoteNumber":57,"Velocity":56,"Duration":70828,"SoundDuration":70828,"Delta":11868635},{"NoteNumber":54,"Velocity":56,"Duration":70828,"SoundDuration":70828,"Delta":11868635},{"NoteNumber":78,"Velocity":85,"Duration":321247,"SoundDuration":321247,"Delta":12009860},{"NoteNumber":66,"Velocity":72,"Duration":76749,"SoundDuration":76749,"Delta":12009860},{"NoteNumber":61,"Velocity":61,"Duration":76749,"SoundDuration":76749,"Delta":12009860},{"NoteNumber":57,"Velocity":57,"Duration":76749,"SoundDuration":76749,"Delta":12009860},{"NoteNumber":54,"Velocity":57,"Duration":76749,"SoundDuration":76749,"Delta":12009860},{"NoteNumber":66,"Velocity":60,"Duration":83873,"SoundDuration":83873,"Delta":12163360},{"NoteNumber":54,"Velocity":48,"Duration":83873,"SoundDuration":83873,"Delta":12163360},{"NoteNumber":57,"Velocity":48,"Duration":83873,"SoundDuration":83873,"Delta":12163360},{"NoteNumber":61,"Velocity":51,"Duration":83873,"SoundDuration":83873,"Delta":12163360},{"NoteNumber":76,"Velocity":93,"Duration":431885,"SoundDuration":431885,"Delta":12331108},{"NoteNumber":47,"Velocity":78,"Duration":73249,"SoundDuration":73249,"Delta":12331108},{"NoteNumber":54,"Velocity":48,"Duration":71970,"SoundDuration":71970,"Delta":12477057},{"NoteNumber":56,"Velocity":48,"Duration":71970,"SoundDuration":71970,"Delta":12477057},{"NoteNumber":62,"Velocity":61,"Duration":71970,"SoundDuration":71970,"Delta":12477057},{"NoteNumber":62,"Velocity":57,"Duration":71262,"SoundDuration":71262,"Delta":12620640},{"NoteNumber":56,"Velocity":45,"Duration":71262,"SoundDuration":71262,"Delta":12620640},{"NoteNumber":54,"Velocity":45,"Duration":71262,"SoundDuration":71262,"Delta":12620640},{"NoteNumber":74,"Velocity":81,"Duration":67756,"SoundDuration":67756,"Delta":12762993},{"NoteNumber":54,"Velocity":50,"Duration":67756,"SoundDuration":67756,"Delta":12762993},{"NoteNumber":56,"Velocity":50,"Duration":67756,"SoundDuration":67756,"Delta":12762993},{"NoteNumber":62,"Velocity":63,"Duration":67756,"SoundDuration":67756,"Delta":12762993},{"NoteNumber":73,"Velocity":86,"Duration":70962,"SoundDuration":70962,"Delta":12898507},{"NoteNumber":54,"Velocity":51,"Duration":70962,"SoundDuration":70962,"Delta":12898507},{"NoteNumber":56,"Velocity":51,"Duration":70962,"SoundDuration":70962,"Delta":12898507},{"NoteNumber":62,"Velocity":64,"Duration":70962,"SoundDuration":70962,"Delta":12898507},{"NoteNumber":74,"Velocity":86,"Duration":80153,"SoundDuration":80153,"Delta":13040431},{"NoteNumber":54,"Velocity":54,"Duration":80153,"SoundDuration":80153,"Delta":13040431},{"NoteNumber":56,"Velocity":54,"Duration":80153,"SoundDuration":80153,"Delta":13040431},{"NoteNumber":62,"Velocity":68,"Duration":80153,"SoundDuration":80153,"Delta":13040431},{"NoteNumber":73,"Velocity":81,"Duration":574351,"SoundDuration":574351,"Delta":13200739},{"NoteNumber":49,"Velocity":73,"Duration":73156,"SoundDuration":73156,"Delta":13200739},{"NoteNumber":66,"Velocity":61,"Duration":72422,"SoundDuration":72422,"Delta":13346683},{"NoteNumber":61,"Velocity":51,"Duration":72422,"SoundDuration":72422,"Delta":13346683},{"NoteNumber":57,"Velocity":48,"Duration":72422,"SoundDuration":72422,"Delta":13346683},{"NoteNumber":54,"Velocity":48,"Duration":72422,"SoundDuration":72422,"Delta":13346683},{"NoteNumber":66,"Velocity":66,"Duration":71613,"SoundDuration":71613,"Delta":13491076},{"NoteNumber":61,"Velocity":56,"Duration":71613,"SoundDuration":71613,"Delta":13491076},{"NoteNumber":57,"Velocity":52,"Duration":71613,"SoundDuration":71613,"Delta":13491076},{"NoteNumber":54,"Velocity":52,"Duration":71613,"SoundDuration":71613,"Delta":13491076},{"NoteNumber":66,"Velocity":70,"Duration":70828,"SoundDuration":70828,"Delta":13633865},{"NoteNumber":61,"Velocity":59,"Duration":70828,"SoundDuration":70828,"Delta":13633865},{"NoteNumber":57,"Velocity":56,"Duration":70828,"SoundDuration":70828,"Delta":13633865},{"NoteNumber":54,"Velocity":56,"Duration":70828,"SoundDuration":70828,"Delta":13633865},{"NoteNumber":78,"Velocity":85,"Duration":321247,"SoundDuration":321247,"Delta":13775090},{"NoteNumber":66,"Velocity":72,"Duration":76749,"SoundDuration":76749,"Delta":13775090},{"NoteNumber":61,"Velocity":61,"Duration":76749,"SoundDuration":76749,"Delta":13775090},{"NoteNumber":57,"Velocity":57,"Duration":76749,"SoundDuration":76749,"Delta":13775090},{"NoteNumber":54,"Velocity":57,"Duration":76749,"SoundDuration":76749,"Delta":13775090},{"NoteNumber":66,"Velocity":60,"Duration":83873,"SoundDuration":83873,"Delta":13928590},{"NoteNumber":54,"Velocity":48,"Duration":83873,"SoundDuration":83873,"Delta":13928590},{"NoteNumber":57,"Velocity":48,"Duration":83873,"SoundDuration":83873,"Delta":13928590},{"NoteNumber":61,"Velocity":51,"Duration":83873,"SoundDuration":83873,"Delta":13928590},{"NoteNumber":76,"Velocity":93,"Duration":431711,"SoundDuration":431711,"Delta":14096338},{"NoteNumber":47,"Velocity":78,"Duration":73249,"SoundDuration":73249,"Delta":14096338},{"NoteNumber":54,"Velocity":48,"Duration":71970,"SoundDuration":71970,"Delta":14242287},{"NoteNumber":56,"Velocity":48,"Duration":71970,"SoundDuration":71970,"Delta":14242287},{"NoteNumber":62,"Velocity":61,"Duration":71970,"SoundDuration":71970,"Delta":14242287},{"NoteNumber":62,"Velocity":57,"Duration":71262,"SoundDuration":71262,"Delta":14385871},{"NoteNumber":56,"Velocity":45,"Duration":71262,"SoundDuration":71262,"Delta":14385871},{"NoteNumber":54,"Velocity":45,"Duration":71262,"SoundDuration":71262,"Delta":14385871},{"NoteNumber":74,"Velocity":81,"Duration":66850,"SoundDuration":66850,"Delta":14528049},{"NoteNumber":54,"Velocity":50,"Duration":66850,"SoundDuration":66850,"Delta":14528049},{"NoteNumber":56,"Velocity":50,"Duration":66850,"SoundDuration":66850,"Delta":14528049},{"NoteNumber":62,"Velocity":63,"Duration":66850,"SoundDuration":66850,"Delta":14528049},{"NoteNumber":73,"Velocity":86,"Duration":71299,"SoundDuration":71299,"Delta":14664153},{"NoteNumber":54,"Velocity":51,"Duration":71299,"SoundDuration":71299,"Delta":14664153},{"NoteNumber":56,"Velocity":51,"Duration":71299,"SoundDuration":71299,"Delta":14664153},{"NoteNumber":62,"Velocity":64,"Duration":71299,"SoundDuration":71299,"Delta":14664153},{"NoteNumber":74,"Velocity":86,"Duration":82435,"SoundDuration":82435,"Delta":14806752},{"NoteNumber":54,"Velocity":54,"Duration":82435,"SoundDuration":82435,"Delta":14806752},{"NoteNumber":56,"Velocity":54,"Duration":82435,"SoundDuration":82435,"Delta":14806752},{"NoteNumber":62,"Velocity":68,"Duration":82435,"SoundDuration":82435,"Delta":14806752},{"NoteNumber":73,"Velocity":93,"Duration":462963,"SoundDuration":462963,"Delta":14971624},{"NoteNumber":49,"Velocity":48,"Duration":77160,"SoundDuration":77160,"Delta":14971624},{"NoteNumber":54,"Velocity":48,"Duration":77160,"SoundDuration":77160,"Delta":14971624},{"NoteNumber":57,"Velocity":61,"Duration":77160,"SoundDuration":77160,"Delta":14971624},{"NoteNumber":57,"Velocity":57,"Duration":77160,"SoundDuration":77160,"Delta":15125945},{"NoteNumber":54,"Velocity":45,"Duration":77160,"SoundDuration":77160,"Delta":15125945},{"NoteNumber":49,"Velocity":45,"Duration":77160,"SoundDuration":77160,"Delta":15125945},{"NoteNumber":49,"Velocity":50,"Duration":77160,"SoundDuration":77160,"Delta":15280266},{"NoteNumber":54,"Velocity":50,"Duration":77160,"SoundDuration":77160,"Delta":15280266},{"NoteNumber":57,"Velocity":63,"Duration":77160,"SoundDuration":77160,"Delta":15280266},{"NoteNumber":66,"Velocity":51,"Duration":74001,"SoundDuration":74001,"Delta":15434587},{"NoteNumber":65,"Velocity":53,"Duration":74001,"SoundDuration":74001,"Delta":15582589},{"NoteNumber":66,"Velocity":56,"Duration":80153,"SoundDuration":80153,"Delta":15730591},{"NoteNumber":68,"Velocity":58,"Duration":441739,"SoundDuration":441739,"Delta":15890898},{"NoteNumber":66,"Velocity":49,"Duration":441739,"SoundDuration":441739,"Delta":15890898},{"NoteNumber":62,"Velocity":49,"Duration":441739,"SoundDuration":441739,"Delta":15890898},{"NoteNumber":59,"Velocity":63,"Duration":73623,"SoundDuration":73623,"Delta":15890898},{"NoteNumber":49,"Velocity":55,"Duration":73623,"SoundDuration":73623,"Delta":15890898},{"NoteNumber":49,"Velocity":49,"Duration":73623,"SoundDuration":73623,"Delta":16038145},{"NoteNumber":59,"Velocity":56,"Duration":73623,"SoundDuration":73623,"Delta":16038145},{"NoteNumber":49,"Velocity":49,"Duration":299129,"SoundDuration":299129,"Delta":16185391},{"NoteNumber":59,"Velocity":56,"Duration":299129,"SoundDuration":299129,"Delta":16185391},{"NoteNumber":68,"Velocity":56,"Duration":75941,"SoundDuration":75941,"Delta":16332638},{"NoteNumber":66,"Velocity":59,"Duration":75941,"SoundDuration":75941,"Delta":16484521},{"NoteNumber":68,"Velocity":62,"Duration":80153,"SoundDuration":80153,"Delta":16636404},{"NoteNumber":66,"Velocity":56,"Duration":370004,"SoundDuration":370004,"Delta":16796712},{"NoteNumber":69,"Velocity":66,"Duration":370004,"SoundDuration":370004,"Delta":16796712},{"NoteNumber":61,"Velocity":66,"Duration":74000,"SoundDuration":74000,"Delta":16796712},{"NoteNumber":49,"Velocity":58,"Duration":74000,"SoundDuration":74000,"Delta":16796712},{"NoteNumber":49,"Velocity":49,"Duration":74000,"SoundDuration":74000,"Delta":16944714},{"NoteNumber":61,"Velocity":56,"Duration":74000,"SoundDuration":74000,"Delta":16944714},{"NoteNumber":61,"Velocity":60,"Duration":299885,"SoundDuration":299885,"Delta":17092716},{"NoteNumber":49,"Velocity":53,"Duration":299885,"SoundDuration":299885,"Delta":17092716},{"NoteNumber":71,"Velocity":61,"Duration":24667,"SoundDuration":24667,"Delta":17216051},{"NoteNumber":69,"Velocity":61,"Duration":75941,"SoundDuration":75941,"Delta":17240718},{"NoteNumber":68,"Velocity":62,"Duration":75941,"SoundDuration":75941,"Delta":17392601},{"NoteNumber":69,"Velocity":66,"Duration":79272,"SoundDuration":79272,"Delta":17544485},{"NoteNumber":71,"Velocity":72,"Duration":444006,"SoundDuration":444006,"Delta":17703030},{"NoteNumber":66,"Velocity":61,"Duration":444006,"SoundDuration":444006,"Delta":17703030},{"NoteNumber":62,"Velocity":67,"Duration":74000,"SoundDuration":74000,"Delta":17703030},{"NoteNumber":49,"Velocity":59,"Duration":74000,"SoundDuration":74000,"Delta":17703030},{"NoteNumber":49,"Velocity":49,"Duration":74000,"SoundDuration":74000,"Delta":17851032},{"NoteNumber":62,"Velocity":56,"Duration":74000,"SoundDuration":74000,"Delta":17851032},{"NoteNumber":62,"Velocity":58,"Duration":300689,"SoundDuration":300689,"Delta":17999034},{"NoteNumber":49,"Velocity":51,"Duration":300689,"SoundDuration":300689,"Delta":17999034},{"NoteNumber":71,"Velocity":63,"Duration":76343,"SoundDuration":76343,"Delta":18147036},{"NoteNumber":69,"Velocity":67,"Duration":76343,"SoundDuration":76343,"Delta":18299723},{"NoteNumber":71,"Velocity":68,"Duration":79710,"SoundDuration":79710,"Delta":18452411},{"NoteNumber":73,"Velocity":73,"Duration":370004,"SoundDuration":370004,"Delta":18611832},{"NoteNumber":69,"Velocity":62,"Duration":370004,"SoundDuration":370004,"Delta":18611832},{"NoteNumber":66,"Velocity":62,"Duration":370004,"SoundDuration":370004,"Delta":18611832},{"NoteNumber":61,"Velocity":70,"Duration":74000,"SoundDuration":74000,"Delta":18611832},{"NoteNumber":49,"Velocity":61,"Duration":74000,"SoundDuration":74000,"Delta":18611832},{"NoteNumber":49,"Velocity":50,"Duration":74000,"SoundDuration":74000,"Delta":18759834},{"NoteNumber":61,"Velocity":57,"Duration":74000,"SoundDuration":74000,"Delta":18759834},{"NoteNumber":61,"Velocity":62,"Duration":299089,"SoundDuration":299089,"Delta":18907836},{"NoteNumber":49,"Velocity":54,"Duration":299089,"SoundDuration":299089,"Delta":18907836},{"NoteNumber":74,"Velocity":68,"Duration":24667,"SoundDuration":24667,"Delta":19031171},{"NoteNumber":73,"Velocity":68,"Duration":75543,"SoundDuration":75543,"Delta":19055838},{"NoteNumber":72,"Velocity":70,"Duration":75543,"SoundDuration":75543,"Delta":19206926},{"NoteNumber":73,"Velocity":73,"Duration":80153,"SoundDuration":80153,"Delta":19358014},{"NoteNumber":68,"Velocity":69,"Duration":444006,"SoundDuration":444006,"Delta":19518322},{"NoteNumber":73,"Velocity":69,"Duration":444006,"SoundDuration":444006,"Delta":19518322},{"NoteNumber":77,"Velocity":82,"Duration":444006,"SoundDuration":444006,"Delta":19518322},{"NoteNumber":59,"Velocity":73,"Duration":74000,"SoundDuration":74000,"Delta":19518322},{"NoteNumber":49,"Velocity":64,"Duration":74000,"SoundDuration":74000,"Delta":19518322},{"NoteNumber":59,"Velocity":63,"Duration":74000,"SoundDuration":74000,"Delta":19666324},{"NoteNumber":49,"Velocity":55,"Duration":74000,"SoundDuration":74000,"Delta":19666324},{"NoteNumber":49,"Velocity":49,"Duration":303975,"SoundDuration":303975,"Delta":19814326},{"NoteNumber":59,"Velocity":56,"Duration":303975,"SoundDuration":303975,"Delta":19814326},{"NoteNumber":77,"Velocity":73,"Duration":77986,"SoundDuration":77986,"Delta":19962328},{"NoteNumber":75,"Velocity":78,"Duration":82909,"SoundDuration":82909,"Delta":20118301},{"NoteNumber":77,"Velocity":83,"Duration":93052,"SoundDuration":93052,"Delta":20284121},{"NoteNumber":78,"Velocity":93,"Duration":1216190,"SoundDuration":1216190,"Delta":20470225},{"NoteNumber":38,"Velocity":87,"Duration":79710,"SoundDuration":79710,"Delta":20470225},{"NoteNumber":69,"Velocity":65,"Duration":75941,"SoundDuration":75941,"Delta":20629647},{"NoteNumber":66,"Velocity":52,"Duration":75941,"SoundDuration":75941,"Delta":20629647},{"NoteNumber":62,"Velocity":52,"Duration":75941,"SoundDuration":75941,"Delta":20629647},{"NoteNumber":57,"Velocity":51,"Duration":75941,"SoundDuration":75941,"Delta":20629647},{"NoteNumber":50,"Velocity":51,"Duration":75941,"SoundDuration":75941,"Delta":20629647},{"NoteNumber":69,"Velocity":71,"Duration":72879,"SoundDuration":72879,"Delta":20781530},{"NoteNumber":66,"Velocity":56,"Duration":72879,"SoundDuration":72879,"Delta":20781530},{"NoteNumber":62,"Velocity":56,"Duration":72879,"SoundDuration":72879,"Delta":20781530},{"NoteNumber":57,"Velocity":55,"Duration":72879,"SoundDuration":72879,"Delta":20781530},{"NoteNumber":50,"Velocity":55,"Duration":72879,"SoundDuration":72879,"Delta":20781530},{"NoteNumber":69,"Velocity":75,"Duration":72879,"SoundDuration":72879,"Delta":20927288},{"NoteNumber":66,"Velocity":60,"Duration":72879,"SoundDuration":72879,"Delta":20927288},{"NoteNumber":62,"Velocity":60,"Duration":72879,"SoundDuration":72879,"Delta":20927288},{"NoteNumber":57,"Velocity":60,"Duration":72879,"SoundDuration":72879,"Delta":20927288},{"NoteNumber":50,"Velocity":60,"Duration":72879,"SoundDuration":72879,"Delta":20927288},{"NoteNumber":69,"Velocity":77,"Duration":75150,"SoundDuration":75150,"Delta":21073047},{"NoteNumber":66,"Velocity":61,"Duration":75150,"SoundDuration":75150,"Delta":21073047},{"NoteNumber":62,"Velocity":61,"Duration":75150,"SoundDuration":75150,"Delta":21073047},{"NoteNumber":57,"Velocity":61,"Duration":75150,"SoundDuration":75150,"Delta":21073047},{"NoteNumber":50,"Velocity":61,"Duration":75150,"SoundDuration":75150,"Delta":21073047},{"NoteNumber":69,"Velocity":64,"Duration":77986,"SoundDuration":77986,"Delta":21223347},{"NoteNumber":66,"Velocity":51,"Duration":77986,"SoundDuration":77986,"Delta":21223347},{"NoteNumber":50,"Velocity":51,"Duration":77986,"SoundDuration":77986,"Delta":21223347},{"NoteNumber":57,"Velocity":51,"Duration":77986,"SoundDuration":77986,"Delta":21223347},{"NoteNumber":62,"Velocity":51,"Duration":77986,"SoundDuration":77986,"Delta":21223347},{"NoteNumber":62,"Velocity":62,"Duration":76773,"SoundDuration":76773,"Delta":21379321},{"NoteNumber":60,"Velocity":62,"Duration":76773,"SoundDuration":76773,"Delta":21379321},{"NoteNumber":66,"Velocity":62,"Duration":76773,"SoundDuration":76773,"Delta":21379321},{"NoteNumber":69,"Velocity":79,"Duration":76773,"SoundDuration":76773,"Delta":21379321},{"NoteNumber":57,"Velocity":62,"Duration":76773,"SoundDuration":76773,"Delta":21379321},{"NoteNumber":50,"Velocity":62,"Duration":76773,"SoundDuration":76773,"Delta":21379321},{"NoteNumber":62,"Velocity":57,"Duration":76773,"SoundDuration":76773,"Delta":21532868},{"NoteNumber":60,"Velocity":57,"Duration":76773,"SoundDuration":76773,"Delta":21532868},{"NoteNumber":66,"Velocity":57,"Duration":76773,"SoundDuration":76773,"Delta":21532868},{"NoteNumber":69,"Velocity":73,"Duration":76773,"SoundDuration":76773,"Delta":21532868},{"NoteNumber":57,"Velocity":57,"Duration":76773,"SoundDuration":76773,"Delta":21532868},{"NoteNumber":50,"Velocity":57,"Duration":76773,"SoundDuration":76773,"Delta":21532868},{"NoteNumber":76,"Velocity":87,"Duration":318843,"SoundDuration":318843,"Delta":21686415},{"NoteNumber":60,"Velocity":68,"Duration":79710,"SoundDuration":79710,"Delta":21686415},{"NoteNumber":57,"Velocity":62,"Duration":79710,"SoundDuration":79710,"Delta":21686415},{"NoteNumber":62,"Velocity":79,"Duration":79710,"SoundDuration":79710,"Delta":21686415},{"NoteNumber":50,"Velocity":62,"Duration":79710,"SoundDuration":79710,"Delta":21686415},{"NoteNumber":60,"Velocity":67,"Duration":79710,"SoundDuration":79710,"Delta":21845837},{"NoteNumber":62,"Velocity":67,"Duration":79710,"SoundDuration":79710,"Delta":21845837},{"NoteNumber":66,"Velocity":67,"Duration":79710,"SoundDuration":79710,"Delta":21845837},{"NoteNumber":69,"Velocity":80,"Duration":79710,"SoundDuration":79710,"Delta":21845837},{"NoteNumber":50,"Velocity":67,"Duration":79710,"SoundDuration":79710,"Delta":21845837},{"NoteNumber":57,"Velocity":67,"Duration":79710,"SoundDuration":79710,"Delta":21845837},{"NoteNumber":74,"Velocity":90,"Duration":312109,"SoundDuration":312109,"Delta":22005259},{"NoteNumber":60,"Velocity":68,"Duration":85353,"SoundDuration":85353,"Delta":22005259},{"NoteNumber":62,"Velocity":86,"Duration":85353,"SoundDuration":85353,"Delta":22005259},{"NoteNumber":57,"Velocity":68,"Duration":85353,"SoundDuration":85353,"Delta":22005259},{"NoteNumber":50,"Velocity":68,"Duration":85353,"SoundDuration":85353,"Delta":22005259},{"NoteNumber":66,"Velocity":57,"Duration":94268,"SoundDuration":94268,"Delta":22175965},{"NoteNumber":60,"Velocity":57,"Duration":94268,"SoundDuration":94268,"Delta":22175965},{"NoteNumber":62,"Velocity":57,"Duration":94268,"SoundDuration":94268,"Delta":22175965},{"NoteNumber":57,"Velocity":57,"Duration":94268,"SoundDuration":94268,"Delta":22175965},{"NoteNumber":69,"Velocity":72,"Duration":94268,"SoundDuration":94268,"Delta":22175965},{"NoteNumber":50,"Velocity":57,"Duration":94268,"SoundDuration":94268,"Delta":22175965},{"NoteNumber":74,"Velocity":98,"Duration":315357,"SoundDuration":315357,"Delta":22364502},{"NoteNumber":43,"Velocity":87,"Duration":78839,"SoundDuration":78839,"Delta":22364502},{"NoteNumber":62,"Velocity":55,"Duration":78839,"SoundDuration":78839,"Delta":22522181},{"NoteNumber":67,"Velocity":70,"Duration":78839,"SoundDuration":78839,"Delta":22522181},{"NoteNumber":59,"Velocity":55,"Duration":78839,"SoundDuration":78839,"Delta":22522181},{"NoteNumber":55,"Velocity":55,"Duration":78839,"SoundDuration":78839,"Delta":22522181},{"NoteNumber":71,"Velocity":87,"Duration":299043,"SoundDuration":299043,"Delta":22679860},{"NoteNumber":59,"Velocity":74,"Duration":74760,"SoundDuration":74760,"Delta":22679860},{"NoteNumber":55,"Velocity":58,"Duration":74760,"SoundDuration":74760,"Delta":22679860},{"NoteNumber":59,"Velocity":75,"Duration":74760,"SoundDuration":74760,"Delta":22829382},{"NoteNumber":55,"Velocity":60,"Duration":74760,"SoundDuration":74760,"Delta":22829382},{"NoteNumber":67,"Velocity":77,"Duration":308309,"SoundDuration":308309,"Delta":22978903},{"NoteNumber":58,"Velocity":74,"Duration":74000,"SoundDuration":74000,"Delta":22978903},{"NoteNumber":55,"Velocity":59,"Duration":74000,"SoundDuration":74000,"Delta":22978903},{"NoteNumber":55,"Velocity":47,"Duration":80153,"SoundDuration":80153,"Delta":23126905},{"NoteNumber":58,"Velocity":60,"Duration":80153,"SoundDuration":80153,"Delta":23126905},{"NoteNumber":64,"Velocity":78,"Duration":598085,"SoundDuration":598085,"Delta":23287213},{"NoteNumber":45,"Velocity":69,"Duration":74760,"SoundDuration":74760,"Delta":23287213},{"NoteNumber":57,"Velocity":45,"Duration":74760,"SoundDuration":74760,"Delta":23436735},{"NoteNumber":62,"Velocity":58,"Duration":74760,"SoundDuration":74760,"Delta":23436735},{"NoteNumber":55,"Velocity":45,"Duration":74760,"SoundDuration":74760,"Delta":23436735},{"NoteNumber":52,"Velocity":45,"Duration":74760,"SoundDuration":74760,"Delta":23436735},{"NoteNumber":52,"Velocity":49,"Duration":74760,"SoundDuration":74760,"Delta":23586256},{"NoteNumber":57,"Velocity":49,"Duration":74760,"SoundDuration":74760,"Delta":23586256},{"NoteNumber":62,"Velocity":63,"Duration":74760,"SoundDuration":74760,"Delta":23586256},{"NoteNumber":55,"Velocity":49,"Duration":74760,"SoundDuration":74760,"Delta":23586256},{"NoteNumber":52,"Velocity":53,"Duration":74760,"SoundDuration":74760,"Delta":23735778},{"NoteNumber":57,"Velocity":53,"Duration":74760,"SoundDuration":74760,"Delta":23735778},{"NoteNumber":62,"Velocity":67,"Duration":74760,"SoundDuration":74760,"Delta":23735778},{"NoteNumber":55,"Velocity":53,"Duration":74760,"SoundDuration":74760,"Delta":23735778},{"NoteNumber":69,"Velocity":78,"Duration":307200,"SoundDuration":307200,"Delta":23885299},{"NoteNumber":55,"Velocity":54,"Duration":74760,"SoundDuration":74760,"Delta":23885299},{"NoteNumber":57,"Velocity":68,"Duration":74760,"SoundDuration":74760,"Delta":23885299},{"NoteNumber":52,"Velocity":54,"Duration":74760,"SoundDuration":74760,"Delta":23885299},{"NoteNumber":57,"Velocity":45,"Duration":78839,"SoundDuration":78839,"Delta":24034821},{"NoteNumber":55,"Velocity":45,"Duration":78839,"SoundDuration":78839,"Delta":24034821},{"NoteNumber":61,"Velocity":45,"Duration":78839,"SoundDuration":78839,"Delta":24034821},{"NoteNumber":52,"Velocity":45,"Duration":78839,"SoundDuration":78839,"Delta":24034821},{"NoteNumber":64,"Velocity":57,"Duration":78839,"SoundDuration":78839,"Delta":24034821},{"NoteNumber":66,"Velocity":78,"Duration":440282,"SoundDuration":440282,"Delta":24192500},{"NoteNumber":50,"Velocity":69,"Duration":74382,"SoundDuration":74382,"Delta":24192500},{"NoteNumber":57,"Velocity":45,"Duration":72879,"SoundDuration":72879,"Delta":24341265},{"NoteNumber":62,"Velocity":58,"Duration":72879,"SoundDuration":72879,"Delta":24341265},{"NoteNumber":54,"Velocity":45,"Duration":72879,"SoundDuration":72879,"Delta":24341265},{"NoteNumber":54,"Velocity":49,"Duration":72879,"SoundDuration":72879,"Delta":24487023},{"NoteNumber":57,"Velocity":49,"Duration":72879,"SoundDuration":72879,"Delta":24487023},{"NoteNumber":62,"Velocity":63,"Duration":72879,"SoundDuration":72879,"Delta":24487023},{"NoteNumber":66,"Velocity":82,"Duration":75543,"SoundDuration":75543,"Delta":24632782},{"NoteNumber":54,"Velocity":53,"Duration":75543,"SoundDuration":75543,"Delta":24632782},{"NoteNumber":57,"Velocity":53,"Duration":75543,"SoundDuration":75543,"Delta":24632782},{"NoteNumber":62,"Velocity":67,"Duration":75543,"SoundDuration":75543,"Delta":24632782},{"NoteNumber":69,"Velocity":85,"Duration":79272,"SoundDuration":79272,"Delta":24783870},{"NoteNumber":57,"Velocity":54,"Duration":79272,"SoundDuration":79272,"Delta":24783870},{"NoteNumber":62,"Velocity":68,"Duration":79272,"SoundDuration":79272,"Delta":24783870},{"NoteNumber":54,"Velocity":54,"Duration":79272,"SoundDuration":79272,"Delta":24783870},{"NoteNumber":74,"Velocity":91,"Duration":84364,"SoundDuration":84364,"Delta":24942415},{"NoteNumber":57,"Velocity":45,"Duration":84364,"SoundDuration":84364,"Delta":24942415},{"NoteNumber":54,"Velocity":45,"Duration":84364,"SoundDuration":84364,"Delta":24942415},{"NoteNumber":62,"Velocity":57,"Duration":84364,"SoundDuration":84364,"Delta":24942415},{"NoteNumber":78,"Velocity":93,"Duration":290050,"SoundDuration":290050,"Delta":25111144},{"NoteNumber":50,"Velocity":69,"Duration":72512,"SoundDuration":72512,"Delta":25111144},{"NoteNumber":62,"Velocity":57,"Duration":72512,"SoundDuration":72512,"Delta":25256170},{"NoteNumber":60,"Velocity":57,"Duration":72512,"SoundDuration":72512,"Delta":25256170},{"NoteNumber":66,"Velocity":57,"Duration":72512,"SoundDuration":72512,"Delta":25256170},{"NoteNumber":69,"Velocity":73,"Duration":72512,"SoundDuration":72512,"Delta":25256170},{"NoteNumber":57,"Velocity":57,"Duration":72512,"SoundDuration":72512,"Delta":25256170},{"NoteNumber":76,"Velocity":87,"Duration":292997,"SoundDuration":292997,"Delta":25401195},{"NoteNumber":60,"Velocity":68,"Duration":73249,"SoundDuration":73249,"Delta":25401195},{"NoteNumber":57,"Velocity":62,"Duration":73249,"SoundDuration":73249,"Delta":25401195},{"NoteNumber":62,"Velocity":79,"Duration":73249,"SoundDuration":73249,"Delta":25401195},{"NoteNumber":60,"Velocity":67,"Duration":73249,"SoundDuration":73249,"Delta":25547694},{"NoteNumber":62,"Velocity":67,"Duration":73249,"SoundDuration":73249,"Delta":25547694},{"NoteNumber":66,"Velocity":67,"Duration":73249,"SoundDuration":73249,"Delta":25547694},{"NoteNumber":69,"Velocity":79,"Duration":73249,"SoundDuration":73249,"Delta":25547694},{"NoteNumber":57,"Velocity":67,"Duration":73249,"SoundDuration":73249,"Delta":25547694},{"NoteNumber":74,"Velocity":90,"Duration":274834,"SoundDuration":274834,"Delta":25694193},{"NoteNumber":60,"Velocity":68,"Duration":75941,"SoundDuration":75941,"Delta":25694193},{"NoteNumber":62,"Velocity":86,"Duration":75941,"SoundDuration":75941,"Delta":25694193},{"NoteNumber":57,"Velocity":68,"Duration":75941,"SoundDuration":75941,"Delta":25694193},{"NoteNumber":66,"Velocity":57,"Duration":81967,"SoundDuration":81967,"Delta":25846076},{"NoteNumber":60,"Velocity":57,"Duration":81967,"SoundDuration":81967,"Delta":25846076},{"NoteNumber":62,"Velocity":57,"Duration":81967,"SoundDuration":81967,"Delta":25846076},{"NoteNumber":57,"Velocity":57,"Duration":81967,"SoundDuration":81967,"Delta":25846076},{"NoteNumber":69,"Velocity":72,"Duration":81967,"SoundDuration":81967,"Delta":25846076},{"NoteNumber":74,"Velocity":98,"Duration":288600,"SoundDuration":288600,"Delta":26010010},{"NoteNumber":55,"Velocity":87,"Duration":72150,"SoundDuration":72150,"Delta":26010010},{"NoteNumber":59,"Velocity":53,"Duration":72150,"SoundDuration":72150,"Delta":26154311},{"NoteNumber":62,"Velocity":53,"Duration":72150,"SoundDuration":72150,"Delta":26154311},{"NoteNumber":71,"Velocity":81,"Duration":299043,"SoundDuration":299043,"Delta":26298611},{"NoteNumber":59,"Velocity":69,"Duration":74760,"SoundDuration":74760,"Delta":26298611},{"NoteNumber":62,"Velocity":54,"Duration":74760,"SoundDuration":74760,"Delta":26298611},{"NoteNumber":59,"Velocity":67,"Duration":74760,"SoundDuration":74760,"Delta":26448132},{"NoteNumber":62,"Velocity":54,"Duration":74760,"SoundDuration":74760,"Delta":26448132},{"NoteNumber":67,"Velocity":66,"Duration":308309,"SoundDuration":308309,"Delta":26597654},{"NoteNumber":59,"Velocity":64,"Duration":74000,"SoundDuration":74000,"Delta":26597654},{"NoteNumber":62,"Velocity":51,"Duration":74000,"SoundDuration":74000,"Delta":26597654},{"NoteNumber":62,"Velocity":39,"Duration":80153,"SoundDuration":80153,"Delta":26745656},{"NoteNumber":59,"Velocity":50,"Duration":80153,"SoundDuration":80153,"Delta":26745656},{"NoteNumber":64,"Velocity":62,"Duration":589017,"SoundDuration":589017,"Delta":26905964},{"NoteNumber":43,"Velocity":55,"Duration":1478588,"SoundDuration":1478588,"Delta":26905964},{"NoteNumber":55,"Velocity":44,"Duration":73249,"SoundDuration":73249,"Delta":27055485},{"NoteNumber":60,"Velocity":44,"Duration":73249,"SoundDuration":73249,"Delta":27055485},{"NoteNumber":55,"Velocity":44,"Duration":73249,"SoundDuration":73249,"Delta":27201984},{"NoteNumber":60,"Velocity":59,"Duration":73249,"SoundDuration":73249,"Delta":27201984},{"NoteNumber":52,"Velocity":50,"Duration":292997,"SoundDuration":292997,"Delta":27201984},{"NoteNumber":55,"Velocity":44,"Duration":73249,"SoundDuration":73249,"Delta":27348483},{"NoteNumber":60,"Velocity":44,"Duration":73249,"SoundDuration":73249,"Delta":27348483},{"NoteNumber":67,"Velocity":62,"Duration":297530,"SoundDuration":297530,"Delta":27494981},{"NoteNumber":51,"Velocity":54,"Duration":297530,"SoundDuration":297530,"Delta":27494981},{"NoteNumber":55,"Velocity":44,"Duration":74382,"SoundDuration":74382,"Delta":27643747},{"NoteNumber":60,"Velocity":44,"Duration":74382,"SoundDuration":74382,"Delta":27643747},{"NoteNumber":62,"Velocity":62,"Duration":592040,"SoundDuration":592040,"Delta":27792512},{"NoteNumber":55,"Velocity":44,"Duration":74760,"SoundDuration":74760,"Delta":27942033},{"NoteNumber":59,"Velocity":44,"Duration":74760,"SoundDuration":74760,"Delta":27942033},{"NoteNumber":55,"Velocity":44,"Duration":73249,"SoundDuration":73249,"Delta":28091555},{"NoteNumber":59,"Velocity":59,"Duration":73249,"SoundDuration":73249,"Delta":28091555},{"NoteNumber":55,"Velocity":44,"Duration":73249,"SoundDuration":73249,"Delta":28238054},{"NoteNumber":59,"Velocity":44,"Duration":73249,"SoundDuration":73249,"Delta":28238054},{"NoteNumber":67,"Velocity":52,"Duration":302175,"SoundDuration":302175,"Delta":28384552},{"NoteNumber":55,"Velocity":37,"Duration":75543,"SoundDuration":75543,"Delta":28535640},{"NoteNumber":59,"Velocity":37,"Duration":75543,"SoundDuration":75543,"Delta":28535640},{"NoteNumber":64,"Velocity":52,"Duration":589017,"SoundDuration":589017,"Delta":28686728},{"NoteNumber":43,"Velocity":46,"Duration":1479454,"SoundDuration":1479454,"Delta":28686728},{"NoteNumber":55,"Velocity":37,"Duration":73249,"SoundDuration":73249,"Delta":28836249},{"NoteNumber":60,"Velocity":37,"Duration":73249,"SoundDuration":73249,"Delta":28836249},{"NoteNumber":55,"Velocity":37,"Duration":73249,"SoundDuration":73249,"Delta":28982748},{"NoteNumber":60,"Velocity":50,"Duration":73249,"SoundDuration":73249,"Delta":28982748},{"NoteNumber":52,"Velocity":42,"Duration":292997,"SoundDuration":292997,"Delta":28982748},{"NoteNumber":55,"Velocity":37,"Duration":73249,"SoundDuration":73249,"Delta":29129247},{"NoteNumber":60,"Velocity":37,"Duration":73249,"SoundDuration":73249,"Delta":29129247},{"NoteNumber":67,"Velocity":52,"Duration":302175,"SoundDuration":302175,"Delta":29275746},{"NoteNumber":51,"Velocity":45,"Duration":302175,"SoundDuration":302175,"Delta":29275746},{"NoteNumber":55,"Velocity":37,"Duration":75543,"SoundDuration":75543,"Delta":29426833},{"NoteNumber":60,"Velocity":37,"Duration":75543,"SoundDuration":75543,"Delta":29426833},{"NoteNumber":62,"Velocity":52,"Duration":588261,"SoundDuration":588261,"Delta":29577921},{"NoteNumber":50,"Velocity":45,"Duration":588261,"SoundDuration":588261,"Delta":29577921},{"NoteNumber":55,"Velocity":31,"Duration":73249,"SoundDuration":73249,"Delta":29726686},{"NoteNumber":59,"Velocity":37,"Duration":73249,"SoundDuration":73249,"Delta":29726686},{"NoteNumber":55,"Velocity":32,"Duration":73249,"SoundDuration":73249,"Delta":29873185},{"NoteNumber":59,"Velocity":51,"Duration":73249,"SoundDuration":73249,"Delta":29873185},{"NoteNumber":55,"Velocity":33,"Duration":73249,"SoundDuration":73249,"Delta":30019684},{"NoteNumber":59,"Velocity":39,"Duration":73249,"SoundDuration":73249,"Delta":30019684},{"NoteNumber":55,"Velocity":46,"Duration":74382,"SoundDuration":74382,"Delta":30166183},{"NoteNumber":59,"Velocity":55,"Duration":74382,"SoundDuration":74382,"Delta":30166183},{"NoteNumber":55,"Velocity":34,"Duration":75941,"SoundDuration":75941,"Delta":30314948},{"NoteNumber":59,"Velocity":41,"Duration":75941,"SoundDuration":75941,"Delta":30314948},{"NoteNumber":59,"Velocity":43,"Duration":75150,"SoundDuration":75150,"Delta":30466831},{"NoteNumber":55,"Velocity":35,"Duration":75150,"SoundDuration":75150,"Delta":30466831},{"NoteNumber":55,"Velocity":37,"Duration":74000,"SoundDuration":74000,"Delta":30616308},{"NoteNumber":59,"Velocity":44,"Duration":74000,"SoundDuration":74000,"Delta":30616308},{"NoteNumber":55,"Velocity":38,"Duration":73448,"SoundDuration":73448,"Delta":30763945},{"NoteNumber":59,"Velocity":45,"Duration":73448,"SoundDuration":73448,"Delta":30763945},{"NoteNumber":55,"Velocity":39,"Duration":72891,"SoundDuration":72891,"Delta":30910643},{"NoteNumber":59,"Velocity":46,"Duration":72891,"SoundDuration":72891,"Delta":30910643},{"NoteNumber":66,"Velocity":50,"Duration":159421,"SoundDuration":159421,"Delta":31056414},{"NoteNumber":54,"Velocity":32,"Duration":331144,"SoundDuration":331144,"Delta":31056414},{"NoteNumber":59,"Velocity":30,"Duration":85861,"SoundDuration":85861,"Delta":31215836},{"NoteNumber":62,"Velocity":38,"Duration":85861,"SoundDuration":85861,"Delta":31215836},{"NoteNumber":66,"Velocity":56,"Duration":293859,"SoundDuration":293859,"Delta":31387559},{"NoteNumber":46,"Velocity":40,"Duration":73623,"SoundDuration":73623,"Delta":31387559},{"NoteNumber":54,"Velocity":33,"Duration":73623,"SoundDuration":73623,"Delta":31534805},{"NoteNumber":61,"Velocity":33,"Duration":73623,"SoundDuration":73623,"Delta":31534805},{"NoteNumber":64,"Velocity":43,"Duration":73623,"SoundDuration":73623,"Delta":31534805},{"NoteNumber":68,"Velocity":58,"Duration":69072,"SoundDuration":69072,"Delta":31681418},{"NoteNumber":54,"Velocity":37,"Duration":69072,"SoundDuration":69072,"Delta":31681418},{"NoteNumber":61,"Velocity":37,"Duration":69072,"SoundDuration":69072,"Delta":31681418},{"NoteNumber":64,"Velocity":47,"Duration":69072,"SoundDuration":69072,"Delta":31681418},{"NoteNumber":70,"Velocity":59,"Duration":67598,"SoundDuration":67598,"Delta":31818487},{"NoteNumber":54,"Velocity":39,"Duration":67598,"SoundDuration":67598,"Delta":31818487},{"NoteNumber":61,"Velocity":39,"Duration":67598,"SoundDuration":67598,"Delta":31818487},{"NoteNumber":64,"Velocity":50,"Duration":67598,"SoundDuration":67598,"Delta":31818487},{"NoteNumber":71,"Velocity":63,"Duration":66738,"SoundDuration":66738,"Delta":31953290},{"NoteNumber":54,"Velocity":42,"Duration":66738,"SoundDuration":66738,"Delta":31953290},{"NoteNumber":61,"Velocity":42,"Duration":66738,"SoundDuration":66738,"Delta":31953290},{"NoteNumber":64,"Velocity":53,"Duration":66738,"SoundDuration":66738,"Delta":31953290},{"NoteNumber":73,"Velocity":66,"Duration":79272,"SoundDuration":79272,"Delta":32086382},{"NoteNumber":54,"Velocity":46,"Duration":79272,"SoundDuration":79272,"Delta":32086382},{"NoteNumber":61,"Velocity":46,"Duration":79272,"SoundDuration":79272,"Delta":32086382},{"NoteNumber":64,"Velocity":57,"Duration":79272,"SoundDuration":79272,"Delta":32086382},{"NoteNumber":74,"Velocity":74,"Duration":294493,"SoundDuration":294493,"Delta":32244928},{"NoteNumber":47,"Velocity":60,"Duration":73623,"SoundDuration":73623,"Delta":32244928},{"NoteNumber":62,"Velocity":43,"Duration":73623,"SoundDuration":73623,"Delta":32392174},{"NoteNumber":59,"Velocity":34,"Duration":73623,"SoundDuration":73623,"Delta":32392174},{"NoteNumber":54,"Velocity":34,"Duration":73623,"SoundDuration":73623,"Delta":32392174},{"NoteNumber":70,"Velocity":63,"Duration":282965,"SoundDuration":282965,"Delta":32539421},{"NoteNumber":54,"Velocity":41,"Duration":70741,"SoundDuration":70741,"Delta":32539421},{"NoteNumber":59,"Velocity":41,"Duration":70741,"SoundDuration":70741,"Delta":32539421},{"NoteNumber":62,"Velocity":52,"Duration":70741,"SoundDuration":70741,"Delta":32539421},{"NoteNumber":54,"Velocity":39,"Duration":70741,"SoundDuration":70741,"Delta":32680904},{"NoteNumber":59,"Velocity":39,"Duration":70741,"SoundDuration":70741,"Delta":32680904},{"NoteNumber":62,"Velocity":49,"Duration":70741,"SoundDuration":70741,"Delta":32680904},{"NoteNumber":71,"Velocity":64,"Duration":282965,"SoundDuration":282965,"Delta":32822386},{"NoteNumber":62,"Velocity":56,"Duration":70741,"SoundDuration":70741,"Delta":32822386},{"NoteNumber":59,"Velocity":44,"Duration":70741,"SoundDuration":70741,"Delta":32822386},{"NoteNumber":54,"Velocity":44,"Duration":70741,"SoundDuration":70741,"Delta":32822386},{"NoteNumber":54,"Velocity":42,"Duration":70741,"SoundDuration":70741,"Delta":32963869},{"NoteNumber":59,"Velocity":42,"Duration":70741,"SoundDuration":70741,"Delta":32963869},{"NoteNumber":62,"Velocity":54,"Duration":70741,"SoundDuration":70741,"Delta":32963869},{"NoteNumber":76,"Velocity":76,"Duration":278861,"SoundDuration":278861,"Delta":33105352},{"NoteNumber":43,"Velocity":67,"Duration":69715,"SoundDuration":69715,"Delta":33105352},{"NoteNumber":64,"Velocity":49,"Duration":69715,"SoundDuration":69715,"Delta":33244783},{"NoteNumber":59,"Velocity":39,"Duration":69715,"SoundDuration":69715,"Delta":33244783},{"NoteNumber":55,"Velocity":39,"Duration":69715,"SoundDuration":69715,"Delta":33244783},{"NoteNumber":70,"Velocity":66,"Duration":291516,"SoundDuration":291516,"Delta":33384214},{"NoteNumber":55,"Velocity":44,"Duration":72879,"SoundDuration":72879,"Delta":33384214},{"NoteNumber":59,"Velocity":44,"Duration":72879,"SoundDuration":72879,"Delta":33384214},{"NoteNumber":64,"Velocity":55,"Duration":72879,"SoundDuration":72879,"Delta":33384214},{"NoteNumber":55,"Velocity":42,"Duration":72879,"SoundDuration":72879,"Delta":33529972},{"NoteNumber":59,"Velocity":42,"Duration":72879,"SoundDuration":72879,"Delta":33529972},{"NoteNumber":64,"Velocity":52,"Duration":72879,"SoundDuration":72879,"Delta":33529972},{"NoteNumber":71,"Velocity":71,"Duration":306066,"SoundDuration":306066,"Delta":33675731},{"NoteNumber":55,"Velocity":46,"Duration":72879,"SoundDuration":72879,"Delta":33675731},{"NoteNumber":59,"Velocity":46,"Duration":72879,"SoundDuration":72879,"Delta":33675731},{"NoteNumber":64,"Velocity":57,"Duration":72879,"SoundDuration":72879,"Delta":33675731},{"NoteNumber":55,"Velocity":52,"Duration":80153,"SoundDuration":80153,"Delta":33821489},{"NoteNumber":59,"Velocity":52,"Duration":80153,"SoundDuration":80153,"Delta":33821489},{"NoteNumber":64,"Velocity":66,"Duration":80153,"SoundDuration":80153,"Delta":33821489},{"NoteNumber":73,"Velocity":81,"Duration":574351,"SoundDuration":574351,"Delta":33981797},{"NoteNumber":42,"Velocity":73,"Duration":73156,"SoundDuration":73156,"Delta":33981797},{"NoteNumber":64,"Velocity":61,"Duration":72422,"SoundDuration":72422,"Delta":34127742},{"NoteNumber":58,"Velocity":48,"Duration":72422,"SoundDuration":72422,"Delta":34127742},{"NoteNumber":54,"Velocity":48,"Duration":72422,"SoundDuration":72422,"Delta":34127742},{"NoteNumber":64,"Velocity":66,"Duration":71613,"SoundDuration":71613,"Delta":34272134},{"NoteNumber":58,"Velocity":52,"Duration":71613,"SoundDuration":71613,"Delta":34272134},{"NoteNumber":54,"Velocity":52,"Duration":71613,"SoundDuration":71613,"Delta":34272134},{"NoteNumber":64,"Velocity":70,"Duration":70828,"SoundDuration":70828,"Delta":34414924},{"NoteNumber":58,"Velocity":56,"Duration":70828,"SoundDuration":70828,"Delta":34414924},{"NoteNumber":54,"Velocity":56,"Duration":70828,"SoundDuration":70828,"Delta":34414924},{"NoteNumber":79,"Velocity":85,"Duration":321247,"SoundDuration":321247,"Delta":34556148},{"NoteNumber":64,"Velocity":72,"Duration":76749,"SoundDuration":76749,"Delta":34556148},{"NoteNumber":58,"Velocity":57,"Duration":76749,"SoundDuration":76749,"Delta":34556148},{"NoteNumber":54,"Velocity":57,"Duration":76749,"SoundDuration":76749,"Delta":34556148},{"NoteNumber":54,"Velocity":48,"Duration":83873,"SoundDuration":83873,"Delta":34709648},{"NoteNumber":58,"Velocity":48,"Duration":83873,"SoundDuration":83873,"Delta":34709648},{"NoteNumber":64,"Velocity":60,"Duration":83873,"SoundDuration":83873,"Delta":34709648},{"NoteNumber":78,"Velocity":93,"Duration":431711,"SoundDuration":431711,"Delta":34877396},{"NoteNumber":46,"Velocity":78,"Duration":73249,"SoundDuration":73249,"Delta":34877396},{"NoteNumber":66,"Velocity":61,"Duration":71970,"SoundDuration":71970,"Delta":35023345},{"NoteNumber":54,"Velocity":48,"Duration":71970,"SoundDuration":71970,"Delta":35023345},{"NoteNumber":61,"Velocity":48,"Duration":71970,"SoundDuration":71970,"Delta":35023345},{"NoteNumber":64,"Velocity":51,"Duration":71970,"SoundDuration":71970,"Delta":35023345},{"NoteNumber":66,"Velocity":57,"Duration":71262,"SoundDuration":71262,"Delta":35166929},{"NoteNumber":64,"Velocity":48,"Duration":71262,"SoundDuration":71262,"Delta":35166929},{"NoteNumber":61,"Velocity":45,"Duration":71262,"SoundDuration":71262,"Delta":35166929},{"NoteNumber":54,"Velocity":45,"Duration":71262,"SoundDuration":71262,"Delta":35166929},{"NoteNumber":76,"Velocity":81,"Duration":70568,"SoundDuration":70568,"Delta":35309107},{"NoteNumber":66,"Velocity":63,"Duration":70568,"SoundDuration":70568,"Delta":35309107},{"NoteNumber":54,"Velocity":50,"Duration":70568,"SoundDuration":70568,"Delta":35309107},{"NoteNumber":61,"Velocity":50,"Duration":70568,"SoundDuration":70568,"Delta":35309107},{"NoteNumber":64,"Velocity":53,"Duration":70568,"SoundDuration":70568,"Delta":35309107},{"NoteNumber":74,"Velocity":86,"Duration":68064,"SoundDuration":68064,"Delta":35449816},{"NoteNumber":66,"Velocity":64,"Duration":68064,"SoundDuration":68064,"Delta":35449816},{"NoteNumber":54,"Velocity":51,"Duration":68064,"SoundDuration":68064,"Delta":35449816},{"NoteNumber":61,"Velocity":51,"Duration":68064,"SoundDuration":68064,"Delta":35449816},{"NoteNumber":64,"Velocity":54,"Duration":68064,"SoundDuration":68064,"Delta":35449816},{"NoteNumber":73,"Velocity":86,"Duration":82435,"SoundDuration":82435,"Delta":35585944},{"NoteNumber":66,"Velocity":68,"Duration":82435,"SoundDuration":82435,"Delta":35585944},{"NoteNumber":54,"Velocity":54,"Duration":82435,"SoundDuration":82435,"Delta":35585944},{"NoteNumber":61,"Velocity":54,"Duration":82435,"SoundDuration":82435,"Delta":35585944},{"NoteNumber":64,"Velocity":57,"Duration":82435,"SoundDuration":82435,"Delta":35585944},{"NoteNumber":76,"Velocity":92,"Duration":434581,"SoundDuration":434581,"Delta":35750816},{"NoteNumber":47,"Velocity":75,"Duration":73623,"SoundDuration":73623,"Delta":35750816},{"NoteNumber":66,"Velocity":60,"Duration":72150,"SoundDuration":72150,"Delta":35897694},{"NoteNumber":62,"Velocity":51,"Duration":72150,"SoundDuration":72150,"Delta":35897694},{"NoteNumber":59,"Velocity":48,"Duration":72150,"SoundDuration":72150,"Delta":35897694},{"NoteNumber":54,"Velocity":48,"Duration":72150,"SoundDuration":72150,"Delta":35897694},{"NoteNumber":66,"Velocity":60,"Duration":71791,"SoundDuration":71791,"Delta":36041904},{"NoteNumber":62,"Velocity":51,"Duration":71791,"SoundDuration":71791,"Delta":36041904},{"NoteNumber":59,"Velocity":48,"Duration":71791,"SoundDuration":71791,"Delta":36041904},{"NoteNumber":54,"Velocity":48,"Duration":71791,"SoundDuration":71791,"Delta":36041904},{"NoteNumber":74,"Velocity":75,"Duration":71435,"SoundDuration":71435,"Delta":36185397},{"NoteNumber":66,"Velocity":56,"Duration":71435,"SoundDuration":71435,"Delta":36185397},{"NoteNumber":62,"Velocity":47,"Duration":71435,"SoundDuration":71435,"Delta":36185397},{"NoteNumber":59,"Velocity":44,"Duration":71435,"SoundDuration":71435,"Delta":36185397},{"NoteNumber":54,"Velocity":44,"Duration":71435,"SoundDuration":71435,"Delta":36185397},{"NoteNumber":73,"Velocity":75,"Duration":75543,"SoundDuration":75543,"Delta":36328095},{"NoteNumber":66,"Velocity":63,"Duration":75543,"SoundDuration":75543,"Delta":36328095},{"NoteNumber":62,"Velocity":53,"Duration":75543,"SoundDuration":75543,"Delta":36328095},{"NoteNumber":59,"Velocity":50,"Duration":75543,"SoundDuration":75543,"Delta":36328095},{"NoteNumber":54,"Velocity":50,"Duration":75543,"SoundDuration":75543,"Delta":36328095},{"NoteNumber":71,"Velocity":84,"Duration":78839,"SoundDuration":78839,"Delta":36479183},{"NoteNumber":66,"Velocity":58,"Duration":78839,"SoundDuration":78839,"Delta":36479183},{"NoteNumber":62,"Velocity":49,"Duration":78839,"SoundDuration":78839,"Delta":36479183},{"NoteNumber":59,"Velocity":46,"Duration":78839,"SoundDuration":78839,"Delta":36479183},{"NoteNumber":54,"Velocity":46,"Duration":78839,"SoundDuration":78839,"Delta":36479183},{"NoteNumber":69,"Velocity":90,"Duration":441739,"SoundDuration":441739,"Delta":36636862},{"NoteNumber":49,"Velocity":75,"Duration":147246,"SoundDuration":147246,"Delta":36636862},{"NoteNumber":53,"Velocity":43,"Duration":73623,"SoundDuration":73623,"Delta":36784109},{"NoteNumber":59,"Velocity":43,"Duration":73623,"SoundDuration":73623,"Delta":36784109},{"NoteNumber":61,"Velocity":55,"Duration":73623,"SoundDuration":73623,"Delta":36784109},{"NoteNumber":53,"Velocity":48,"Duration":73623,"SoundDuration":73623,"Delta":36931355},{"NoteNumber":59,"Velocity":48,"Duration":73623,"SoundDuration":73623,"Delta":36931355},{"NoteNumber":61,"Velocity":61,"Duration":73623,"SoundDuration":73623,"Delta":36931355},{"NoteNumber":68,"Velocity":68,"Duration":73623,"SoundDuration":73623,"Delta":37078602},{"NoteNumber":61,"Velocity":53,"Duration":73623,"SoundDuration":73623,"Delta":37078602},{"NoteNumber":59,"Velocity":42,"Duration":73623,"SoundDuration":73623,"Delta":37078602},{"NoteNumber":53,"Velocity":42,"Duration":73623,"SoundDuration":73623,"Delta":37078602},{"NoteNumber":66,"Velocity":66,"Duration":76343,"SoundDuration":76343,"Delta":37225848},{"NoteNumber":61,"Velocity":62,"Duration":76343,"SoundDuration":76343,"Delta":37225848},{"NoteNumber":59,"Velocity":49,"Duration":76343,"SoundDuration":76343,"Delta":37225848},{"NoteNumber":54,"Velocity":49,"Duration":76343,"SoundDuration":76343,"Delta":37225848},{"NoteNumber":65,"Velocity":72,"Duration":81967,"SoundDuration":81967,"Delta":37378535},{"NoteNumber":61,"Velocity":56,"Duration":81967,"SoundDuration":81967,"Delta":37378535},{"NoteNumber":59,"Velocity":45,"Duration":81967,"SoundDuration":81967,"Delta":37378535},{"NoteNumber":56,"Velocity":56,"Duration":81967,"SoundDuration":81967,"Delta":37378535},{"NoteNumber":65,"Velocity":78,"Duration":303766,"SoundDuration":303766,"Delta":37542470},{"NoteNumber":54,"Velocity":52,"Duration":75941,"SoundDuration":75941,"Delta":37542470},{"NoteNumber":58,"Velocity":52,"Duration":75941,"SoundDuration":75941,"Delta":37542470},{"NoteNumber":61,"Velocity":67,"Duration":75941,"SoundDuration":75941,"Delta":37542470},{"NoteNumber":54,"Velocity":38,"Duration":75941,"SoundDuration":75941,"Delta":37694353},{"NoteNumber":58,"Velocity":38,"Duration":75941,"SoundDuration":75941,"Delta":37694353},{"NoteNumber":61,"Velocity":49,"Duration":75941,"SoundDuration":75941,"Delta":37694353},{"NoteNumber":66,"Velocity":64,"Duration":259003,"SoundDuration":259003,"Delta":37846236},{"NoteNumber":54,"Velocity":42,"Duration":74001,"SoundDuration":74001,"Delta":37846236},{"NoteNumber":58,"Velocity":42,"Duration":74001,"SoundDuration":74001,"Delta":37846236},{"NoteNumber":61,"Velocity":52,"Duration":74001,"SoundDuration":74001,"Delta":37846236},{"NoteNumber":61,"Velocity":41,"Duration":74001,"SoundDuration":74001,"Delta":37994238},{"NoteNumber":58,"Velocity":32,"Duration":74001,"SoundDuration":74001,"Delta":37994238},{"NoteNumber":54,"Velocity":32,"Duration":74001,"SoundDuration":74001,"Delta":37994238},{"NoteNumber":66,"Velocity":61,"Duration":148001,"SoundDuration":148001,"Delta":38142240},{"NoteNumber":54,"Velocity":36,"Duration":74000,"SoundDuration":74000,"Delta":38142240},{"NoteNumber":58,"Velocity":36,"Duration":74000,"SoundDuration":74000,"Delta":38142240},{"NoteNumber":61,"Velocity":46,"Duration":74000,"SoundDuration":74000,"Delta":38142240},{"NoteNumber":61,"Velocity":40,"Duration":74000,"SoundDuration":74000,"Delta":38290242},{"NoteNumber":58,"Velocity":32,"Duration":74000,"SoundDuration":74000,"Delta":38290242},{"NoteNumber":54,"Velocity":32,"Duration":74000,"SoundDuration":74000,"Delta":38290242},{"NoteNumber":66,"Velocity":56,"Duration":293859,"SoundDuration":293859,"Delta":38438244},{"NoteNumber":46,"Velocity":40,"Duration":73623,"SoundDuration":73623,"Delta":38438244},{"NoteNumber":54,"Velocity":33,"Duration":73623,"SoundDuration":73623,"Delta":38585491},{"NoteNumber":61,"Velocity":33,"Duration":73623,"SoundDuration":73623,"Delta":38585491},{"NoteNumber":64,"Velocity":43,"Duration":73623,"SoundDuration":73623,"Delta":38585491},{"NoteNumber":68,"Velocity":58,"Duration":69072,"SoundDuration":69072,"Delta":38732104},{"NoteNumber":54,"Velocity":37,"Duration":69072,"SoundDuration":69072,"Delta":38732104},{"NoteNumber":61,"Velocity":37,"Duration":69072,"SoundDuration":69072,"Delta":38732104},{"NoteNumber":64,"Velocity":47,"Duration":69072,"SoundDuration":69072,"Delta":38732104},{"NoteNumber":70,"Velocity":59,"Duration":67598,"SoundDuration":67598,"Delta":38869173},{"NoteNumber":54,"Velocity":39,"Duration":67598,"SoundDuration":67598,"Delta":38869173},{"NoteNumber":61,"Velocity":39,"Duration":67598,"SoundDuration":67598,"Delta":38869173},{"NoteNumber":64,"Velocity":50,"Duration":67598,"SoundDuration":67598,"Delta":38869173},{"NoteNumber":71,"Velocity":63,"Duration":66738,"SoundDuration":66738,"Delta":39003976},{"NoteNumber":54,"Velocity":42,"Duration":66738,"SoundDuration":66738,"Delta":39003976},{"NoteNumber":61,"Velocity":42,"Duration":66738,"SoundDuration":66738,"Delta":39003976},{"NoteNumber":64,"Velocity":53,"Duration":66738,"SoundDuration":66738,"Delta":39003976},{"NoteNumber":73,"Velocity":66,"Duration":79272,"SoundDuration":79272,"Delta":39137068},{"NoteNumber":54,"Velocity":46,"Duration":79272,"SoundDuration":79272,"Delta":39137068},{"NoteNumber":61,"Velocity":46,"Duration":79272,"SoundDuration":79272,"Delta":39137068},{"NoteNumber":64,"Velocity":57,"Duration":79272,"SoundDuration":79272,"Delta":39137068},{"NoteNumber":74,"Velocity":74,"Duration":294493,"SoundDuration":294493,"Delta":39295614},{"NoteNumber":47,"Velocity":60,"Duration":73623,"SoundDuration":73623,"Delta":39295614},{"NoteNumber":62,"Velocity":43,"Duration":73623,"SoundDuration":73623,"Delta":39442860},{"NoteNumber":59,"Velocity":34,"Duration":73623,"SoundDuration":73623,"Delta":39442860},{"NoteNumber":54,"Velocity":34,"Duration":73623,"SoundDuration":73623,"Delta":39442860},{"NoteNumber":70,"Velocity":63,"Duration":282965,"SoundDuration":282965,"Delta":39590107},{"NoteNumber":54,"Velocity":41,"Duration":70741,"SoundDuration":70741,"Delta":39590107},{"NoteNumber":59,"Velocity":41,"Duration":70741,"SoundDuration":70741,"Delta":39590107},{"NoteNumber":62,"Velocity":52,"Duration":70741,"SoundDuration":70741,"Delta":39590107},{"NoteNumber":54,"Velocity":39,"Duration":70741,"SoundDuration":70741,"Delta":39731590},{"NoteNumber":59,"Velocity":39,"Duration":70741,"SoundDuration":70741,"Delta":39731590},{"NoteNumber":62,"Velocity":49,"Duration":70741,"SoundDuration":70741,"Delta":39731590},{"NoteNumber":71,"Velocity":65,"Duration":282965,"SoundDuration":282965,"Delta":39873072},{"NoteNumber":62,"Velocity":57,"Duration":70741,"SoundDuration":70741,"Delta":39873072},{"NoteNumber":59,"Velocity":44,"Duration":70741,"SoundDuration":70741,"Delta":39873072},{"NoteNumber":54,"Velocity":44,"Duration":70741,"SoundDuration":70741,"Delta":39873072},{"NoteNumber":54,"Velocity":42,"Duration":70741,"SoundDuration":70741,"Delta":40014555},{"NoteNumber":59,"Velocity":42,"Duration":70741,"SoundDuration":70741,"Delta":40014555},{"NoteNumber":62,"Velocity":55,"Duration":70741,"SoundDuration":70741,"Delta":40014555},{"NoteNumber":77,"Velocity":78,"Duration":282651,"SoundDuration":282651,"Delta":40156038},{"NoteNumber":47,"Velocity":69,"Duration":68076,"SoundDuration":68076,"Delta":40156038},{"NoteNumber":65,"Velocity":50,"Duration":73249,"SoundDuration":73249,"Delta":40292191},{"NoteNumber":61,"Velocity":40,"Duration":73249,"SoundDuration":73249,"Delta":40292191},{"NoteNumber":56,"Velocity":40,"Duration":73249,"SoundDuration":73249,"Delta":40292191},{"NoteNumber":72,"Velocity":67,"Duration":292997,"SoundDuration":292997,"Delta":40438690},{"NoteNumber":56,"Velocity":45,"Duration":73249,"SoundDuration":73249,"Delta":40438690},{"NoteNumber":61,"Velocity":45,"Duration":73249,"SoundDuration":73249,"Delta":40438690},{"NoteNumber":65,"Velocity":56,"Duration":73249,"SoundDuration":73249,"Delta":40438690},{"NoteNumber":56,"Velocity":43,"Duration":73249,"SoundDuration":73249,"Delta":40585189},{"NoteNumber":61,"Velocity":43,"Duration":73249,"SoundDuration":73249,"Delta":40585189},{"NoteNumber":65,"Velocity":54,"Duration":73249,"SoundDuration":73249,"Delta":40585189},{"NoteNumber":73,"Velocity":73,"Duration":306806,"SoundDuration":306806,"Delta":40731687},{"NoteNumber":56,"Velocity":47,"Duration":73249,"SoundDuration":73249,"Delta":40731687},{"NoteNumber":61,"Velocity":47,"Duration":73249,"SoundDuration":73249,"Delta":40731687},{"NoteNumber":65,"Velocity":59,"Duration":73249,"SoundDuration":73249,"Delta":40731687},{"NoteNumber":56,"Velocity":54,"Duration":80153,"SoundDuration":80153,"Delta":40878186},{"NoteNumber":61,"Velocity":54,"Duration":80153,"SoundDuration":80153,"Delta":40878186},{"NoteNumber":65,"Velocity":68,"Duration":80153,"SoundDuration":80153,"Delta":40878186},{"NoteNumber":78,"Velocity":86,"Duration":574351,"SoundDuration":574351,"Delta":41038494},{"NoteNumber":45,"Velocity":73,"Duration":73156,"SoundDuration":73156,"Delta":41038494},{"NoteNumber":66,"Velocity":61,"Duration":72422,"SoundDuration":72422,"Delta":41184438},{"NoteNumber":61,"Velocity":51,"Duration":72422,"SoundDuration":72422,"Delta":41184438},{"NoteNumber":57,"Velocity":48,"Duration":72422,"SoundDuration":72422,"Delta":41184438},{"NoteNumber":54,"Velocity":48,"Duration":72422,"SoundDuration":72422,"Delta":41184438},{"NoteNumber":66,"Velocity":66,"Duration":71613,"SoundDuration":71613,"Delta":41328831},{"NoteNumber":61,"Velocity":56,"Duration":71613,"SoundDuration":71613,"Delta":41328831},{"NoteNumber":57,"Velocity":52,"Duration":71613,"SoundDuration":71613,"Delta":41328831},{"NoteNumber":54,"Velocity":52,"Duration":71613,"SoundDuration":71613,"Delta":41328831},{"NoteNumber":66,"Velocity":70,"Duration":70828,"SoundDuration":70828,"Delta":41471621},{"NoteNumber":61,"Velocity":59,"Duration":70828,"SoundDuration":70828,"Delta":41471621},{"NoteNumber":57,"Velocity":56,"Duration":70828,"SoundDuration":70828,"Delta":41471621},{"NoteNumber":54,"Velocity":56,"Duration":70828,"SoundDuration":70828,"Delta":41471621},{"NoteNumber":78,"Velocity":85,"Duration":321247,"SoundDuration":321247,"Delta":41612845},{"NoteNumber":66,"Velocity":72,"Duration":76749,"SoundDuration":76749,"Delta":41612845},{"NoteNumber":61,"Velocity":61,"Duration":76749,"SoundDuration":76749,"Delta":41612845},{"NoteNumber":57,"Velocity":57,"Duration":76749,"SoundDuration":76749,"Delta":41612845},{"NoteNumber":54,"Velocity":57,"Duration":76749,"SoundDuration":76749,"Delta":41612845},{"NoteNumber":66,"Velocity":60,"Duration":83873,"SoundDuration":83873,"Delta":41766345},{"NoteNumber":54,"Velocity":48,"Duration":83873,"SoundDuration":83873,"Delta":41766345},{"NoteNumber":57,"Velocity":48,"Duration":83873,"SoundDuration":83873,"Delta":41766345},{"NoteNumber":61,"Velocity":51,"Duration":83873,"SoundDuration":83873,"Delta":41766345},{"NoteNumber":76,"Velocity":93,"Duration":431711,"SoundDuration":431711,"Delta":41934093},{"NoteNumber":47,"Velocity":78,"Duration":73249,"SoundDuration":73249,"Delta":41934093},{"NoteNumber":54,"Velocity":48,"Duration":71970,"SoundDuration":71970,"Delta":42080042},{"NoteNumber":56,"Velocity":48,"Duration":71970,"SoundDuration":71970,"Delta":42080042},{"NoteNumber":62,"Velocity":61,"Duration":71970,"SoundDuration":71970,"Delta":42080042},{"NoteNumber":62,"Velocity":57,"Duration":71262,"SoundDuration":71262,"Delta":42223626},{"NoteNumber":56,"Velocity":45,"Duration":71262,"SoundDuration":71262,"Delta":42223626},{"NoteNumber":54,"Velocity":45,"Duration":71262,"SoundDuration":71262,"Delta":42223626},{"NoteNumber":74,"Velocity":81,"Duration":70568,"SoundDuration":70568,"Delta":42365804},{"NoteNumber":54,"Velocity":50,"Duration":70568,"SoundDuration":70568,"Delta":42365804},{"NoteNumber":56,"Velocity":50,"Duration":70568,"SoundDuration":70568,"Delta":42365804},{"NoteNumber":62,"Velocity":63,"Duration":70568,"SoundDuration":70568,"Delta":42365804},{"NoteNumber":73,"Velocity":86,"Duration":68374,"SoundDuration":68374,"Delta":42506512},{"NoteNumber":54,"Velocity":51,"Duration":68374,"SoundDuration":68374,"Delta":42506512},{"NoteNumber":56,"Velocity":51,"Duration":68374,"SoundDuration":68374,"Delta":42506512},{"NoteNumber":62,"Velocity":64,"Duration":68374,"SoundDuration":68374,"Delta":42506512},{"NoteNumber":74,"Velocity":86,"Duration":82435,"SoundDuration":82435,"Delta":42643261},{"NoteNumber":54,"Velocity":54,"Duration":82435,"SoundDuration":82435,"Delta":42643261},{"NoteNumber":56,"Velocity":54,"Duration":82435,"SoundDuration":82435,"Delta":42643261},{"NoteNumber":62,"Velocity":68,"Duration":82435,"SoundDuration":82435,"Delta":42643261},{"NoteNumber":73,"Velocity":81,"Duration":574351,"SoundDuration":574351,"Delta":42808133},{"NoteNumber":49,"Velocity":73,"Duration":73156,"SoundDuration":73156,"Delta":42808133},{"NoteNumber":66,"Velocity":61,"Duration":72422,"SoundDuration":72422,"Delta":42954077},{"NoteNumber":61,"Velocity":51,"Duration":72422,"SoundDuration":72422,"Delta":42954077},{"NoteNumber":57,"Velocity":48,"Duration":72422,"SoundDuration":72422,"Delta":42954077},{"NoteNumber":54,"Velocity":48,"Duration":72422,"SoundDuration":72422,"Delta":42954077},{"NoteNumber":66,"Velocity":66,"Duration":71613,"SoundDuration":71613,"Delta":43098470},{"NoteNumber":61,"Velocity":56,"Duration":71613,"SoundDuration":71613,"Delta":43098470},{"NoteNumber":57,"Velocity":52,"Duration":71613,"SoundDuration":71613,"Delta":43098470},{"NoteNumber":54,"Velocity":52,"Duration":71613,"SoundDuration":71613,"Delta":43098470},{"NoteNumber":66,"Velocity":70,"Duration":70828,"SoundDuration":70828,"Delta":43241259},{"NoteNumber":61,"Velocity":59,"Duration":70828,"SoundDuration":70828,"Delta":43241259},{"NoteNumber":57,"Velocity":56,"Duration":70828,"SoundDuration":70828,"Delta":43241259},{"NoteNumber":54,"Velocity":56,"Duration":70828,"SoundDuration":70828,"Delta":43241259},{"NoteNumber":78,"Velocity":85,"Duration":321247,"SoundDuration":321247,"Delta":43382484},{"NoteNumber":66,"Velocity":72,"Duration":76749,"SoundDuration":76749,"Delta":43382484},{"NoteNumber":61,"Velocity":61,"Duration":76749,"SoundDuration":76749,"Delta":43382484},{"NoteNumber":57,"Velocity":57,"Duration":76749,"SoundDuration":76749,"Delta":43382484},{"NoteNumber":54,"Velocity":57,"Duration":76749,"SoundDuration":76749,"Delta":43382484},{"NoteNumber":66,"Velocity":60,"Duration":83873,"SoundDuration":83873,"Delta":43535984},{"NoteNumber":54,"Velocity":48,"Duration":83873,"SoundDuration":83873,"Delta":43535984},{"NoteNumber":57,"Velocity":48,"Duration":83873,"SoundDuration":83873,"Delta":43535984},{"NoteNumber":61,"Velocity":51,"Duration":83873,"SoundDuration":83873,"Delta":43535984},{"NoteNumber":76,"Velocity":93,"Duration":431711,"SoundDuration":431711,"Delta":43703732},{"NoteNumber":47,"Velocity":78,"Duration":73249,"SoundDuration":73249,"Delta":43703732},{"NoteNumber":54,"Velocity":48,"Duration":71970,"SoundDuration":71970,"Delta":43849681},{"NoteNumber":56,"Velocity":48,"Duration":71970,"SoundDuration":71970,"Delta":43849681},{"NoteNumber":62,"Velocity":61,"Duration":71970,"SoundDuration":71970,"Delta":43849681},{"NoteNumber":62,"Velocity":57,"Duration":71262,"SoundDuration":71262,"Delta":43993264},{"NoteNumber":56,"Velocity":45,"Duration":71262,"SoundDuration":71262,"Delta":43993264},{"NoteNumber":54,"Velocity":45,"Duration":71262,"SoundDuration":71262,"Delta":43993264},{"NoteNumber":74,"Velocity":81,"Duration":70568,"SoundDuration":70568,"Delta":44135443},{"NoteNumber":54,"Velocity":50,"Duration":70568,"SoundDuration":70568,"Delta":44135443},{"NoteNumber":56,"Velocity":50,"Duration":70568,"SoundDuration":70568,"Delta":44135443},{"NoteNumber":62,"Velocity":63,"Duration":70568,"SoundDuration":70568,"Delta":44135443},{"NoteNumber":73,"Velocity":86,"Duration":69322,"SoundDuration":69322,"Delta":44276151},{"NoteNumber":54,"Velocity":51,"Duration":69322,"SoundDuration":69322,"Delta":44276151},{"NoteNumber":56,"Velocity":51,"Duration":69322,"SoundDuration":69322,"Delta":44276151},{"NoteNumber":62,"Velocity":64,"Duration":69322,"SoundDuration":69322,"Delta":44276151},{"NoteNumber":74,"Velocity":86,"Duration":82435,"SoundDuration":82435,"Delta":44414796},{"NoteNumber":54,"Velocity":54,"Duration":82435,"SoundDuration":82435,"Delta":44414796},{"NoteNumber":56,"Velocity":54,"Duration":82435,"SoundDuration":82435,"Delta":44414796},{"NoteNumber":62,"Velocity":68,"Duration":82435,"SoundDuration":82435,"Delta":44414796},{"NoteNumber":73,"Velocity":93,"Duration":462963,"SoundDuration":462963,"Delta":44579668},{"NoteNumber":49,"Velocity":48,"Duration":77160,"SoundDuration":77160,"Delta":44579668},{"NoteNumber":54,"Velocity":48,"Duration":77160,"SoundDuration":77160,"Delta":44579668},{"NoteNumber":57,"Velocity":61,"Duration":77160,"SoundDuration":77160,"Delta":44579668},{"NoteNumber":57,"Velocity":57,"Duration":77160,"SoundDuration":77160,"Delta":44733989},{"NoteNumber":54,"Velocity":45,"Duration":77160,"SoundDuration":77160,"Delta":44733989},{"NoteNumber":49,"Velocity":45,"Duration":77160,"SoundDuration":77160,"Delta":44733989},{"NoteNumber":49,"Velocity":50,"Duration":77160,"SoundDuration":77160,"Delta":44888310},{"NoteNumber":54,"Velocity":50,"Duration":77160,"SoundDuration":77160,"Delta":44888310},{"NoteNumber":57,"Velocity":63,"Duration":77160,"SoundDuration":77160,"Delta":44888310},{"NoteNumber":66,"Velocity":51,"Duration":74001,"SoundDuration":74001,"Delta":45042631},{"NoteNumber":65,"Velocity":53,"Duration":74001,"SoundDuration":74001,"Delta":45190633},{"NoteNumber":66,"Velocity":56,"Duration":80153,"SoundDuration":80153,"Delta":45338635},{"NoteNumber":68,"Velocity":58,"Duration":441739,"SoundDuration":441739,"Delta":45498942},{"NoteNumber":66,"Velocity":49,"Duration":441739,"SoundDuration":441739,"Delta":45498942},{"NoteNumber":62,"Velocity":49,"Duration":441739,"SoundDuration":441739,"Delta":45498942},{"NoteNumber":59,"Velocity":63,"Duration":73623,"SoundDuration":73623,"Delta":45498942},{"NoteNumber":49,"Velocity":55,"Duration":73623,"SoundDuration":73623,"Delta":45498942},{"NoteNumber":49,"Velocity":49,"Duration":73623,"SoundDuration":73623,"Delta":45646189},{"NoteNumber":59,"Velocity":56,"Duration":73623,"SoundDuration":73623,"Delta":45646189},{"NoteNumber":49,"Velocity":49,"Duration":299129,"SoundDuration":299129,"Delta":45793435},{"NoteNumber":59,"Velocity":56,"Duration":299129,"SoundDuration":299129,"Delta":45793435},{"NoteNumber":68,"Velocity":56,"Duration":75941,"SoundDuration":75941,"Delta":45940682},{"NoteNumber":66,"Velocity":59,"Duration":75941,"SoundDuration":75941,"Delta":46092565},{"NoteNumber":68,"Velocity":62,"Duration":80153,"SoundDuration":80153,"Delta":46244448},{"NoteNumber":66,"Velocity":56,"Duration":370004,"SoundDuration":370004,"Delta":46404756},{"NoteNumber":69,"Velocity":66,"Duration":370004,"SoundDuration":370004,"Delta":46404756},{"NoteNumber":61,"Velocity":66,"Duration":74001,"SoundDuration":74001,"Delta":46404756},{"NoteNumber":49,"Velocity":58,"Duration":74001,"SoundDuration":74001,"Delta":46404756},{"NoteNumber":49,"Velocity":49,"Duration":74001,"SoundDuration":74001,"Delta":46552758},{"NoteNumber":61,"Velocity":56,"Duration":74001,"SoundDuration":74001,"Delta":46552758},{"NoteNumber":61,"Velocity":60,"Duration":299885,"SoundDuration":299885,"Delta":46700760},{"NoteNumber":49,"Velocity":53,"Duration":299885,"SoundDuration":299885,"Delta":46700760},{"NoteNumber":71,"Velocity":61,"Duration":24667,"SoundDuration":24667,"Delta":46824095},{"NoteNumber":69,"Velocity":61,"Duration":75941,"SoundDuration":75941,"Delta":46848762},{"NoteNumber":68,"Velocity":62,"Duration":75941,"SoundDuration":75941,"Delta":47000645},{"NoteNumber":69,"Velocity":66,"Duration":79272,"SoundDuration":79272,"Delta":47152529},{"NoteNumber":71,"Velocity":72,"Duration":444006,"SoundDuration":444006,"Delta":47311074},{"NoteNumber":66,"Velocity":61,"Duration":444006,"SoundDuration":444006,"Delta":47311074},{"NoteNumber":62,"Velocity":67,"Duration":74001,"SoundDuration":74001,"Delta":47311074},{"NoteNumber":49,"Velocity":59,"Duration":74001,"SoundDuration":74001,"Delta":47311074},{"NoteNumber":49,"Velocity":49,"Duration":74001,"SoundDuration":74001,"Delta":47459076},{"NoteNumber":62,"Velocity":56,"Duration":74001,"SoundDuration":74001,"Delta":47459076},{"NoteNumber":62,"Velocity":58,"Duration":300689,"SoundDuration":300689,"Delta":47607078},{"NoteNumber":49,"Velocity":51,"Duration":300689,"SoundDuration":300689,"Delta":47607078},{"NoteNumber":71,"Velocity":63,"Duration":76343,"SoundDuration":76343,"Delta":47755080},{"NoteNumber":69,"Velocity":67,"Duration":76343,"SoundDuration":76343,"Delta":47907767},{"NoteNumber":71,"Velocity":68,"Duration":79710,"SoundDuration":79710,"Delta":48060455},{"NoteNumber":73,"Velocity":73,"Duration":370004,"SoundDuration":370004,"Delta":48219876},{"NoteNumber":69,"Velocity":62,"Duration":370004,"SoundDuration":370004,"Delta":48219876},{"NoteNumber":66,"Velocity":62,"Duration":370004,"SoundDuration":370004,"Delta":48219876},{"NoteNumber":61,"Velocity":70,"Duration":74001,"SoundDuration":74001,"Delta":48219876},{"NoteNumber":49,"Velocity":61,"Duration":74001,"SoundDuration":74001,"Delta":48219876},{"NoteNumber":49,"Velocity":50,"Duration":74001,"SoundDuration":74001,"Delta":48367878},{"NoteNumber":61,"Velocity":57,"Duration":74001,"SoundDuration":74001,"Delta":48367878},{"NoteNumber":61,"Velocity":62,"Duration":299089,"SoundDuration":299089,"Delta":48515880},{"NoteNumber":49,"Velocity":54,"Duration":299089,"SoundDuration":299089,"Delta":48515880},{"NoteNumber":74,"Velocity":68,"Duration":24667,"SoundDuration":24667,"Delta":48639215},{"NoteNumber":73,"Velocity":68,"Duration":75543,"SoundDuration":75543,"Delta":48663882},{"NoteNumber":72,"Velocity":70,"Duration":75543,"SoundDuration":75543,"Delta":48814970},{"NoteNumber":73,"Velocity":73,"Duration":80153,"SoundDuration":80153,"Delta":48966058},{"NoteNumber":68,"Velocity":69,"Duration":444006,"SoundDuration":444006,"Delta":49126366},{"NoteNumber":73,"Velocity":69,"Duration":444006,"SoundDuration":444006,"Delta":49126366},{"NoteNumber":77,"Velocity":82,"Duration":444006,"SoundDuration":444006,"Delta":49126366},{"NoteNumber":59,"Velocity":73,"Duration":74001,"SoundDuration":74001,"Delta":49126366},{"NoteNumber":49,"Velocity":64,"Duration":74001,"SoundDuration":74001,"Delta":49126366},{"NoteNumber":59,"Velocity":63,"Duration":74001,"SoundDuration":74001,"Delta":49274368},{"NoteNumber":49,"Velocity":55,"Duration":74001,"SoundDuration":74001,"Delta":49274368},{"NoteNumber":49,"Velocity":49,"Duration":303975,"SoundDuration":303975,"Delta":49422370},{"NoteNumber":59,"Velocity":56,"Duration":303975,"SoundDuration":303975,"Delta":49422370},{"NoteNumber":77,"Velocity":73,"Duration":77986,"SoundDuration":77986,"Delta":49570372},{"NoteNumber":75,"Velocity":78,"Duration":82909,"SoundDuration":82909,"Delta":49726345},{"NoteNumber":77,"Velocity":83,"Duration":93052,"SoundDuration":93052,"Delta":49892165},{"NoteNumber":78,"Velocity":93,"Duration":1232755,"SoundDuration":1232755,"Delta":50078269},{"NoteNumber":38,"Velocity":87,"Duration":79710,"SoundDuration":79710,"Delta":50078269},{"NoteNumber":69,"Velocity":65,"Duration":75941,"SoundDuration":75941,"Delta":50237691},{"NoteNumber":66,"Velocity":52,"Duration":75941,"SoundDuration":75941,"Delta":50237691},{"NoteNumber":62,"Velocity":52,"Duration":75941,"SoundDuration":75941,"Delta":50237691},{"NoteNumber":57,"Velocity":51,"Duration":75941,"SoundDuration":75941,"Delta":50237691},{"NoteNumber":50,"Velocity":51,"Duration":75941,"SoundDuration":75941,"Delta":50237691},{"NoteNumber":69,"Velocity":71,"Duration":72879,"SoundDuration":72879,"Delta":50389574},{"NoteNumber":66,"Velocity":56,"Duration":72879,"SoundDuration":72879,"Delta":50389574},{"NoteNumber":62,"Velocity":56,"Duration":72879,"SoundDuration":72879,"Delta":50389574},{"NoteNumber":57,"Velocity":55,"Duration":72879,"SoundDuration":72879,"Delta":50389574},{"NoteNumber":50,"Velocity":55,"Duration":72879,"SoundDuration":72879,"Delta":50389574},{"NoteNumber":69,"Velocity":75,"Duration":72879,"SoundDuration":72879,"Delta":50535332},{"NoteNumber":66,"Velocity":60,"Duration":72879,"SoundDuration":72879,"Delta":50535332},{"NoteNumber":62,"Velocity":60,"Duration":72879,"SoundDuration":72879,"Delta":50535332},{"NoteNumber":57,"Velocity":60,"Duration":72879,"SoundDuration":72879,"Delta":50535332},{"NoteNumber":50,"Velocity":60,"Duration":72879,"SoundDuration":72879,"Delta":50535332},{"NoteNumber":69,"Velocity":77,"Duration":75150,"SoundDuration":75150,"Delta":50681091},{"NoteNumber":66,"Velocity":61,"Duration":75150,"SoundDuration":75150,"Delta":50681091},{"NoteNumber":62,"Velocity":61,"Duration":75150,"SoundDuration":75150,"Delta":50681091},{"NoteNumber":57,"Velocity":61,"Duration":75150,"SoundDuration":75150,"Delta":50681091},{"NoteNumber":50,"Velocity":61,"Duration":75150,"SoundDuration":75150,"Delta":50681091},{"NoteNumber":69,"Velocity":64,"Duration":77986,"SoundDuration":77986,"Delta":50831391},{"NoteNumber":66,"Velocity":51,"Duration":77986,"SoundDuration":77986,"Delta":50831391},{"NoteNumber":50,"Velocity":51,"Duration":77986,"SoundDuration":77986,"Delta":50831391},{"NoteNumber":57,"Velocity":51,"Duration":77986,"SoundDuration":77986,"Delta":50831391},{"NoteNumber":62,"Velocity":51,"Duration":77986,"SoundDuration":77986,"Delta":50831391},{"NoteNumber":62,"Velocity":62,"Duration":80914,"SoundDuration":80914,"Delta":50987365},{"NoteNumber":60,"Velocity":62,"Duration":80914,"SoundDuration":80914,"Delta":50987365},{"NoteNumber":66,"Velocity":62,"Duration":80914,"SoundDuration":80914,"Delta":50987365},{"NoteNumber":69,"Velocity":79,"Duration":80914,"SoundDuration":80914,"Delta":50987365},{"NoteNumber":57,"Velocity":62,"Duration":80914,"SoundDuration":80914,"Delta":50987365},{"NoteNumber":50,"Velocity":62,"Duration":80914,"SoundDuration":80914,"Delta":50987365},{"NoteNumber":62,"Velocity":57,"Duration":80914,"SoundDuration":80914,"Delta":51149195},{"NoteNumber":60,"Velocity":57,"Duration":80914,"SoundDuration":80914,"Delta":51149195},{"NoteNumber":66,"Velocity":57,"Duration":80914,"SoundDuration":80914,"Delta":51149195},{"NoteNumber":69,"Velocity":73,"Duration":80914,"SoundDuration":80914,"Delta":51149195},{"NoteNumber":57,"Velocity":57,"Duration":80914,"SoundDuration":80914,"Delta":51149195},{"NoteNumber":50,"Velocity":57,"Duration":80914,"SoundDuration":80914,"Delta":51149195},{"NoteNumber":76,"Velocity":87,"Duration":318843,"SoundDuration":318843,"Delta":51311025},{"NoteNumber":60,"Velocity":68,"Duration":79710,"SoundDuration":79710,"Delta":51311025},{"NoteNumber":57,"Velocity":62,"Duration":79710,"SoundDuration":79710,"Delta":51311025},{"NoteNumber":62,"Velocity":79,"Duration":79710,"SoundDuration":79710,"Delta":51311025},{"NoteNumber":50,"Velocity":62,"Duration":79710,"SoundDuration":79710,"Delta":51311025},{"NoteNumber":60,"Velocity":67,"Duration":79710,"SoundDuration":79710,"Delta":51470446},{"NoteNumber":62,"Velocity":67,"Duration":79710,"SoundDuration":79710,"Delta":51470446},{"NoteNumber":66,"Velocity":67,"Duration":79710,"SoundDuration":79710,"Delta":51470446},{"NoteNumber":69,"Velocity":77,"Duration":79710,"SoundDuration":79710,"Delta":51470446},{"NoteNumber":50,"Velocity":67,"Duration":79710,"SoundDuration":79710,"Delta":51470446},{"NoteNumber":57,"Velocity":67,"Duration":79710,"SoundDuration":79710,"Delta":51470446},{"NoteNumber":74,"Velocity":90,"Duration":312109,"SoundDuration":312109,"Delta":51629868},{"NoteNumber":60,"Velocity":68,"Duration":85353,"SoundDuration":85353,"Delta":51629868},{"NoteNumber":62,"Velocity":86,"Duration":85353,"SoundDuration":85353,"Delta":51629868},{"NoteNumber":57,"Velocity":68,"Duration":85353,"SoundDuration":85353,"Delta":51629868},{"NoteNumber":50,"Velocity":68,"Duration":85353,"SoundDuration":85353,"Delta":51629868},{"NoteNumber":66,"Velocity":57,"Duration":94268,"SoundDuration":94268,"Delta":51800575},{"NoteNumber":60,"Velocity":57,"Duration":94268,"SoundDuration":94268,"Delta":51800575},{"NoteNumber":62,"Velocity":57,"Duration":94268,"SoundDuration":94268,"Delta":51800575},{"NoteNumber":57,"Velocity":57,"Duration":94268,"SoundDuration":94268,"Delta":51800575},{"NoteNumber":69,"Velocity":72,"Duration":94268,"SoundDuration":94268,"Delta":51800575},{"NoteNumber":50,"Velocity":57,"Duration":94268,"SoundDuration":94268,"Delta":51800575},{"NoteNumber":74,"Velocity":98,"Duration":315358,"SoundDuration":315358,"Delta":51989112},{"NoteNumber":43,"Velocity":87,"Duration":78839,"SoundDuration":78839,"Delta":51989112},{"NoteNumber":62,"Velocity":55,"Duration":78839,"SoundDuration":78839,"Delta":52146791},{"NoteNumber":67,"Velocity":70,"Duration":78839,"SoundDuration":78839,"Delta":52146791},{"NoteNumber":59,"Velocity":55,"Duration":78839,"SoundDuration":78839,"Delta":52146791},{"NoteNumber":55,"Velocity":55,"Duration":78839,"SoundDuration":78839,"Delta":52146791},{"NoteNumber":71,"Velocity":87,"Duration":299042,"SoundDuration":299042,"Delta":52304470},{"NoteNumber":59,"Velocity":74,"Duration":74760,"SoundDuration":74760,"Delta":52304470},{"NoteNumber":55,"Velocity":58,"Duration":74760,"SoundDuration":74760,"Delta":52304470},{"NoteNumber":59,"Velocity":75,"Duration":74760,"SoundDuration":74760,"Delta":52453991},{"NoteNumber":55,"Velocity":60,"Duration":74760,"SoundDuration":74760,"Delta":52453991},{"NoteNumber":67,"Velocity":77,"Duration":308309,"SoundDuration":308309,"Delta":52603513},{"NoteNumber":58,"Velocity":74,"Duration":74001,"SoundDuration":74001,"Delta":52603513},{"NoteNumber":55,"Velocity":59,"Duration":74001,"SoundDuration":74001,"Delta":52603513},{"NoteNumber":55,"Velocity":47,"Duration":80153,"SoundDuration":80153,"Delta":52751515},{"NoteNumber":58,"Velocity":60,"Duration":80153,"SoundDuration":80153,"Delta":52751515},{"NoteNumber":64,"Velocity":78,"Duration":598086,"SoundDuration":598086,"Delta":52911823},{"NoteNumber":45,"Velocity":69,"Duration":74760,"SoundDuration":74760,"Delta":52911823},{"NoteNumber":57,"Velocity":45,"Duration":74760,"SoundDuration":74760,"Delta":53061344},{"NoteNumber":62,"Velocity":58,"Duration":74760,"SoundDuration":74760,"Delta":53061344},{"NoteNumber":55,"Velocity":45,"Duration":74760,"SoundDuration":74760,"Delta":53061344},{"NoteNumber":52,"Velocity":45,"Duration":74760,"SoundDuration":74760,"Delta":53061344},{"NoteNumber":52,"Velocity":49,"Duration":74760,"SoundDuration":74760,"Delta":53210866},{"NoteNumber":57,"Velocity":49,"Duration":74760,"SoundDuration":74760,"Delta":53210866},{"NoteNumber":62,"Velocity":63,"Duration":74760,"SoundDuration":74760,"Delta":53210866},{"NoteNumber":55,"Velocity":49,"Duration":74760,"SoundDuration":74760,"Delta":53210866},{"NoteNumber":52,"Velocity":53,"Duration":74760,"SoundDuration":74760,"Delta":53360387},{"NoteNumber":57,"Velocity":53,"Duration":74760,"SoundDuration":74760,"Delta":53360387},{"NoteNumber":62,"Velocity":67,"Duration":74760,"SoundDuration":74760,"Delta":53360387},{"NoteNumber":55,"Velocity":53,"Duration":74760,"SoundDuration":74760,"Delta":53360387},{"NoteNumber":69,"Velocity":78,"Duration":307200,"SoundDuration":307200,"Delta":53509909},{"NoteNumber":55,"Velocity":54,"Duration":74760,"SoundDuration":74760,"Delta":53509909},{"NoteNumber":57,"Velocity":68,"Duration":74760,"SoundDuration":74760,"Delta":53509909},{"NoteNumber":52,"Velocity":54,"Duration":74760,"SoundDuration":74760,"Delta":53509909},{"NoteNumber":57,"Velocity":45,"Duration":78839,"SoundDuration":78839,"Delta":53659430},{"NoteNumber":55,"Velocity":45,"Duration":78839,"SoundDuration":78839,"Delta":53659430},{"NoteNumber":61,"Velocity":45,"Duration":78839,"SoundDuration":78839,"Delta":53659430},{"NoteNumber":52,"Velocity":45,"Duration":78839,"SoundDuration":78839,"Delta":53659430},{"NoteNumber":64,"Velocity":57,"Duration":78839,"SoundDuration":78839,"Delta":53659430},{"NoteNumber":66,"Velocity":78,"Duration":440282,"SoundDuration":440282,"Delta":53817109},{"NoteNumber":50,"Velocity":69,"Duration":74382,"SoundDuration":74382,"Delta":53817109},{"NoteNumber":57,"Velocity":45,"Duration":72879,"SoundDuration":72879,"Delta":53965874},{"NoteNumber":62,"Velocity":58,"Duration":72879,"SoundDuration":72879,"Delta":53965874},{"NoteNumber":54,"Velocity":45,"Duration":72879,"SoundDuration":72879,"Delta":53965874},{"NoteNumber":54,"Velocity":49,"Duration":72879,"SoundDuration":72879,"Delta":54111633},{"NoteNumber":57,"Velocity":49,"Duration":72879,"SoundDuration":72879,"Delta":54111633},{"NoteNumber":62,"Velocity":63,"Duration":72879,"SoundDuration":72879,"Delta":54111633},{"NoteNumber":66,"Velocity":82,"Duration":75543,"SoundDuration":75543,"Delta":54257391},{"NoteNumber":54,"Velocity":53,"Duration":75543,"SoundDuration":75543,"Delta":54257391},{"NoteNumber":57,"Velocity":53,"Duration":75543,"SoundDuration":75543,"Delta":54257391},{"NoteNumber":62,"Velocity":67,"Duration":75543,"SoundDuration":75543,"Delta":54257391},{"NoteNumber":69,"Velocity":85,"Duration":79272,"SoundDuration":79272,"Delta":54408479},{"NoteNumber":57,"Velocity":54,"Duration":79272,"SoundDuration":79272,"Delta":54408479},{"NoteNumber":62,"Velocity":68,"Duration":79272,"SoundDuration":79272,"Delta":54408479},{"NoteNumber":54,"Velocity":54,"Duration":79272,"SoundDuration":79272,"Delta":54408479},{"NoteNumber":74,"Velocity":91,"Duration":84364,"SoundDuration":84364,"Delta":54567025},{"NoteNumber":57,"Velocity":45,"Duration":84364,"SoundDuration":84364,"Delta":54567025},{"NoteNumber":54,"Velocity":45,"Duration":84364,"SoundDuration":84364,"Delta":54567025},{"NoteNumber":62,"Velocity":57,"Duration":84364,"SoundDuration":84364,"Delta":54567025},{"NoteNumber":78,"Velocity":93,"Duration":282965,"SoundDuration":282965,"Delta":54735754},{"NoteNumber":50,"Velocity":69,"Duration":70741,"SoundDuration":70741,"Delta":54735754},{"NoteNumber":62,"Velocity":57,"Duration":70741,"SoundDuration":70741,"Delta":54877236},{"NoteNumber":60,"Velocity":57,"Duration":70741,"SoundDuration":70741,"Delta":54877236},{"NoteNumber":66,"Velocity":57,"Duration":70741,"SoundDuration":70741,"Delta":54877236},{"NoteNumber":69,"Velocity":73,"Duration":70741,"SoundDuration":70741,"Delta":54877236},{"NoteNumber":57,"Velocity":57,"Duration":70741,"SoundDuration":70741,"Delta":54877236},{"NoteNumber":76,"Velocity":87,"Duration":292997,"SoundDuration":292997,"Delta":55018719},{"NoteNumber":60,"Velocity":68,"Duration":73249,"SoundDuration":73249,"Delta":55018719},{"NoteNumber":57,"Velocity":62,"Duration":73249,"SoundDuration":73249,"Delta":55018719},{"NoteNumber":62,"Velocity":79,"Duration":73249,"SoundDuration":73249,"Delta":55018719},{"NoteNumber":60,"Velocity":67,"Duration":73249,"SoundDuration":73249,"Delta":55165218},{"NoteNumber":62,"Velocity":67,"Duration":73249,"SoundDuration":73249,"Delta":55165218},{"NoteNumber":66,"Velocity":67,"Duration":73249,"SoundDuration":73249,"Delta":55165218},{"NoteNumber":69,"Velocity":76,"Duration":73249,"SoundDuration":73249,"Delta":55165218},{"NoteNumber":57,"Velocity":67,"Duration":73249,"SoundDuration":73249,"Delta":55165218},{"NoteNumber":74,"Velocity":90,"Duration":274834,"SoundDuration":274834,"Delta":55311717},{"NoteNumber":60,"Velocity":68,"Duration":75941,"SoundDuration":75941,"Delta":55311717},{"NoteNumber":62,"Velocity":86,"Duration":75941,"SoundDuration":75941,"Delta":55311717},{"NoteNumber":57,"Velocity":68,"Duration":75941,"SoundDuration":75941,"Delta":55311717},{"NoteNumber":66,"Velocity":57,"Duration":81967,"SoundDuration":81967,"Delta":55463600},{"NoteNumber":60,"Velocity":57,"Duration":81967,"SoundDuration":81967,"Delta":55463600},{"NoteNumber":62,"Velocity":57,"Duration":81967,"SoundDuration":81967,"Delta":55463600},{"NoteNumber":57,"Velocity":57,"Duration":81967,"SoundDuration":81967,"Delta":55463600},{"NoteNumber":69,"Velocity":72,"Duration":81967,"SoundDuration":81967,"Delta":55463600},{"NoteNumber":74,"Velocity":98,"Duration":288600,"SoundDuration":288600,"Delta":55627534},{"NoteNumber":55,"Velocity":87,"Duration":72150,"SoundDuration":72150,"Delta":55627534},{"NoteNumber":59,"Velocity":53,"Duration":72150,"SoundDuration":72150,"Delta":55771835},{"NoteNumber":62,"Velocity":53,"Duration":72150,"SoundDuration":72150,"Delta":55771835},{"NoteNumber":71,"Velocity":81,"Duration":299042,"SoundDuration":299042,"Delta":55916135},{"NoteNumber":59,"Velocity":69,"Duration":74760,"SoundDuration":74760,"Delta":55916135},{"NoteNumber":62,"Velocity":54,"Duration":74760,"SoundDuration":74760,"Delta":55916135},{"NoteNumber":59,"Velocity":67,"Duration":74760,"SoundDuration":74760,"Delta":56065656},{"NoteNumber":62,"Velocity":54,"Duration":74760,"SoundDuration":74760,"Delta":56065656},{"NoteNumber":67,"Velocity":66,"Duration":308309,"SoundDuration":308309,"Delta":56215178},{"NoteNumber":59,"Velocity":64,"Duration":74001,"SoundDuration":74001,"Delta":56215178},{"NoteNumber":62,"Velocity":51,"Duration":74001,"SoundDuration":74001,"Delta":56215178},{"NoteNumber":62,"Velocity":39,"Duration":80153,"SoundDuration":80153,"Delta":56363180},{"NoteNumber":59,"Velocity":50,"Duration":80153,"SoundDuration":80153,"Delta":56363180},{"NoteNumber":64,"Velocity":62,"Duration":586796,"SoundDuration":586796,"Delta":56523488},{"NoteNumber":43,"Velocity":55,"Duration":1480593,"SoundDuration":1480593,"Delta":56523488},{"NoteNumber":55,"Velocity":44,"Duration":72879,"SoundDuration":72879,"Delta":56673009},{"NoteNumber":60,"Velocity":44,"Duration":72879,"SoundDuration":72879,"Delta":56673009},{"NoteNumber":55,"Velocity":44,"Duration":72879,"SoundDuration":72879,"Delta":56818768},{"NoteNumber":60,"Velocity":59,"Duration":72879,"SoundDuration":72879,"Delta":56818768},{"NoteNumber":52,"Velocity":50,"Duration":291516,"SoundDuration":291516,"Delta":56818768},{"NoteNumber":55,"Velocity":44,"Duration":72879,"SoundDuration":72879,"Delta":56964526},{"NoteNumber":60,"Velocity":44,"Duration":72879,"SoundDuration":72879,"Delta":56964526},{"NoteNumber":67,"Velocity":62,"Duration":306999,"SoundDuration":306999,"Delta":57110285},{"NoteNumber":51,"Velocity":54,"Duration":306999,"SoundDuration":306999,"Delta":57110285},{"NoteNumber":55,"Velocity":44,"Duration":76749,"SoundDuration":76749,"Delta":57263784},{"NoteNumber":60,"Velocity":44,"Duration":76749,"SoundDuration":76749,"Delta":57263784},{"NoteNumber":62,"Velocity":62,"Duration":586796,"SoundDuration":586796,"Delta":57417284},{"NoteNumber":55,"Velocity":44,"Duration":72879,"SoundDuration":72879,"Delta":57566806},{"NoteNumber":59,"Velocity":44,"Duration":72879,"SoundDuration":72879,"Delta":57566806},{"NoteNumber":55,"Velocity":44,"Duration":72879,"SoundDuration":72879,"Delta":57712564},{"NoteNumber":59,"Velocity":59,"Duration":72879,"SoundDuration":72879,"Delta":57712564},{"NoteNumber":55,"Velocity":44,"Duration":72879,"SoundDuration":72879,"Delta":57858323},{"NoteNumber":59,"Velocity":44,"Duration":72879,"SoundDuration":72879,"Delta":57858323},{"NoteNumber":67,"Velocity":52,"Duration":299042,"SoundDuration":299042,"Delta":58004081},{"NoteNumber":55,"Velocity":37,"Duration":74760,"SoundDuration":74760,"Delta":58153603},{"NoteNumber":59,"Velocity":37,"Duration":74760,"SoundDuration":74760,"Delta":58153603},{"NoteNumber":64,"Velocity":52,"Duration":586796,"SoundDuration":586796,"Delta":58303124},{"NoteNumber":43,"Velocity":46,"Duration":1476415,"SoundDuration":1476415,"Delta":58303124},{"NoteNumber":55,"Velocity":37,"Duration":72879,"SoundDuration":72879,"Delta":58452646},{"NoteNumber":60,"Velocity":37,"Duration":72879,"SoundDuration":72879,"Delta":58452646},{"NoteNumber":55,"Velocity":37,"Duration":72879,"SoundDuration":72879,"Delta":58598404},{"NoteNumber":60,"Velocity":50,"Duration":72879,"SoundDuration":72879,"Delta":58598404},{"NoteNumber":52,"Velocity":42,"Duration":291516,"SoundDuration":291516,"Delta":58598404},{"NoteNumber":55,"Velocity":37,"Duration":72879,"SoundDuration":72879,"Delta":58744163},{"NoteNumber":60,"Velocity":37,"Duration":72879,"SoundDuration":72879,"Delta":58744163},{"NoteNumber":67,"Velocity":52,"Duration":300601,"SoundDuration":300601,"Delta":58889921},{"NoteNumber":51,"Velocity":45,"Duration":300601,"SoundDuration":300601,"Delta":58889921},{"NoteNumber":55,"Velocity":37,"Duration":75150,"SoundDuration":75150,"Delta":59040222},{"NoteNumber":60,"Velocity":37,"Duration":75150,"SoundDuration":75150,"Delta":59040222},{"NoteNumber":62,"Velocity":52,"Duration":589017,"SoundDuration":589017,"Delta":59190522},{"NoteNumber":50,"Velocity":45,"Duration":589017,"SoundDuration":589017,"Delta":59190522},{"NoteNumber":55,"Velocity":31,"Duration":73249,"SoundDuration":73249,"Delta":59340044},{"NoteNumber":59,"Velocity":37,"Duration":73249,"SoundDuration":73249,"Delta":59340044},{"NoteNumber":55,"Velocity":32,"Duration":73249,"SoundDuration":73249,"Delta":59486542},{"NoteNumber":59,"Velocity":51,"Duration":73249,"SoundDuration":73249,"Delta":59486542},{"NoteNumber":55,"Velocity":33,"Duration":73249,"SoundDuration":73249,"Delta":59633041},{"NoteNumber":59,"Velocity":39,"Duration":73249,"SoundDuration":73249,"Delta":59633041},{"NoteNumber":67,"Velocity":52,"Duration":312190,"SoundDuration":312190,"Delta":59779540},{"NoteNumber":55,"Velocity":34,"Duration":80153,"SoundDuration":80153,"Delta":59931423},{"NoteNumber":59,"Velocity":41,"Duration":80153,"SoundDuration":80153,"Delta":59931423},{"NoteNumber":63,"Velocity":52,"Duration":586040,"SoundDuration":586040,"Delta":60091731},{"NoteNumber":55,"Velocity":31,"Duration":72879,"SoundDuration":72879,"Delta":60240496},{"NoteNumber":59,"Velocity":37,"Duration":72879,"SoundDuration":72879,"Delta":60240496},{"NoteNumber":31,"Velocity":43,"Duration":291516,"SoundDuration":291516,"Delta":60386255},{"NoteNumber":43,"Velocity":46,"Duration":291516,"SoundDuration":291516,"Delta":60386255},{"NoteNumber":55,"Velocity":32,"Duration":72879,"SoundDuration":72879,"Delta":60386255},{"NoteNumber":59,"Velocity":51,"Duration":72879,"SoundDuration":72879,"Delta":60386255},{"NoteNumber":55,"Velocity":33,"Duration":72879,"SoundDuration":72879,"Delta":60532013},{"NoteNumber":59,"Velocity":39,"Duration":72879,"SoundDuration":72879,"Delta":60532013},{"NoteNumber":67,"Velocity":52,"Duration":300601,"SoundDuration":300601,"Delta":60677772},{"NoteNumber":55,"Velocity":34,"Duration":75150,"SoundDuration":75150,"Delta":60828072},{"NoteNumber":59,"Velocity":41,"Duration":75150,"SoundDuration":75150,"Delta":60828072},{"NoteNumber":64,"Velocity":57,"Duration":591260,"SoundDuration":591260,"Delta":60978373},{"NoteNumber":59,"Velocity":34,"Duration":73623,"SoundDuration":73623,"Delta":61127894},{"NoteNumber":62,"Velocity":41,"Duration":73623,"SoundDuration":73623,"Delta":61127894},{"NoteNumber":32,"Velocity":49,"Duration":294492,"SoundDuration":294492,"Delta":61275141},{"NoteNumber":44,"Velocity":52,"Duration":294492,"SoundDuration":294492,"Delta":61275141},{"NoteNumber":59,"Velocity":36,"Duration":73623,"SoundDuration":73623,"Delta":61275141},{"NoteNumber":62,"Velocity":58,"Duration":73623,"SoundDuration":73623,"Delta":61275141},{"NoteNumber":59,"Velocity":38,"Duration":73623,"SoundDuration":73623,"Delta":61422387},{"NoteNumber":62,"Velocity":45,"Duration":73623,"SoundDuration":73623,"Delta":61422387},{"NoteNumber":68,"Velocity":64,"Duration":305451,"SoundDuration":305451,"Delta":61569634},{"NoteNumber":59,"Velocity":41,"Duration":77575,"SoundDuration":77575,"Delta":61719934},{"NoteNumber":62,"Velocity":50,"Duration":77575,"SoundDuration":77575,"Delta":61719934},{"NoteNumber":71,"Velocity":77,"Duration":295263,"SoundDuration":295263,"Delta":61875085},{"NoteNumber":59,"Velocity":39,"Duration":73249,"SoundDuration":73249,"Delta":62023850},{"NoteNumber":62,"Velocity":46,"Duration":73249,"SoundDuration":73249,"Delta":62023850},{"NoteNumber":68,"Velocity":72,"Duration":292997,"SoundDuration":292997,"Delta":62170349},{"NoteNumber":52,"Velocity":59,"Duration":292997,"SoundDuration":292997,"Delta":62170349},{"NoteNumber":40,"Velocity":55,"Duration":292997,"SoundDuration":292997,"Delta":62170349},{"NoteNumber":59,"Velocity":43,"Duration":73249,"SoundDuration":73249,"Delta":62316848},{"NoteNumber":62,"Velocity":51,"Duration":73249,"SoundDuration":73249,"Delta":62316848},{"NoteNumber":64,"Velocity":74,"Duration":302472,"SoundDuration":302472,"Delta":62463347},{"NoteNumber":59,"Velocity":46,"Duration":77986,"SoundDuration":77986,"Delta":62609845},{"NoteNumber":62,"Velocity":56,"Duration":77986,"SoundDuration":77986,"Delta":62609845},{"NoteNumber":64,"Velocity":72,"Duration":591260,"SoundDuration":591260,"Delta":62765819},{"NoteNumber":57,"Velocity":43,"Duration":73623,"SoundDuration":73623,"Delta":62915341},{"NoteNumber":61,"Velocity":51,"Duration":73623,"SoundDuration":73623,"Delta":62915341},{"NoteNumber":33,"Velocity":60,"Duration":294492,"SoundDuration":294492,"Delta":63062587},{"NoteNumber":45,"Velocity":64,"Duration":294492,"SoundDuration":294492,"Delta":63062587},{"NoteNumber":57,"Velocity":44,"Duration":73623,"SoundDuration":73623,"Delta":63062587},{"NoteNumber":61,"Velocity":71,"Duration":73623,"SoundDuration":73623,"Delta":63062587},{"NoteNumber":57,"Velocity":46,"Duration":73623,"SoundDuration":73623,"Delta":63209834},{"NoteNumber":61,"Velocity":54,"Duration":73623,"SoundDuration":73623,"Delta":63209834},{"NoteNumber":69,"Velocity":52,"Duration":301567,"SoundDuration":301567,"Delta":63357080},{"NoteNumber":57,"Velocity":34,"Duration":77160,"SoundDuration":77160,"Delta":63504327},{"NoteNumber":61,"Velocity":41,"Duration":77160,"SoundDuration":77160,"Delta":63504327},{"NoteNumber":65,"Velocity":62,"Duration":589017,"SoundDuration":589017,"Delta":63658648},{"NoteNumber":57,"Velocity":33,"Duration":73249,"SoundDuration":73249,"Delta":63808169},{"NoteNumber":61,"Velocity":39,"Duration":73249,"SoundDuration":73249,"Delta":63808169},{"NoteNumber":33,"Velocity":47,"Duration":292997,"SoundDuration":292997,"Delta":63954668},{"NoteNumber":45,"Velocity":51,"Duration":292997,"SoundDuration":292997,"Delta":63954668},{"NoteNumber":57,"Velocity":35,"Duration":73249,"SoundDuration":73249,"Delta":63954668},{"NoteNumber":61,"Velocity":56,"Duration":73249,"SoundDuration":73249,"Delta":63954668},{"NoteNumber":57,"Velocity":37,"Duration":73249,"SoundDuration":73249,"Delta":64101167},{"NoteNumber":61,"Velocity":44,"Duration":73249,"SoundDuration":73249,"Delta":64101167},{"NoteNumber":69,"Velocity":65,"Duration":300819,"SoundDuration":300819,"Delta":64247665},{"NoteNumber":57,"Velocity":40,"Duration":77160,"SoundDuration":77160,"Delta":64394164},{"NoteNumber":61,"Velocity":49,"Duration":77160,"SoundDuration":77160,"Delta":64394164},{"NoteNumber":66,"Velocity":73,"Duration":583841,"SoundDuration":583841,"Delta":64548485},{"NoteNumber":61,"Velocity":38,"Duration":72512,"SoundDuration":72512,"Delta":64697250},{"NoteNumber":64,"Velocity":46,"Duration":72512,"SoundDuration":72512,"Delta":64697250},{"NoteNumber":34,"Velocity":55,"Duration":290050,"SoundDuration":290050,"Delta":64842276},{"NoteNumber":46,"Velocity":58,"Duration":290050,"SoundDuration":290050,"Delta":64842276},{"NoteNumber":61,"Velocity":40,"Duration":72512,"SoundDuration":72512,"Delta":64842276},{"NoteNumber":64,"Velocity":65,"Duration":72512,"SoundDuration":72512,"Delta":64842276},{"NoteNumber":61,"Velocity":43,"Duration":72512,"SoundDuration":72512,"Delta":64987301},{"NoteNumber":64,"Velocity":51,"Duration":72512,"SoundDuration":72512,"Delta":64987301},{"NoteNumber":70,"Velocity":72,"Duration":299346,"SoundDuration":299346,"Delta":65132327},{"NoteNumber":61,"Velocity":46,"Duration":77160,"SoundDuration":77160,"Delta":65277352},{"NoteNumber":64,"Velocity":56,"Duration":77160,"SoundDuration":77160,"Delta":65277352},{"NoteNumber":73,"Velocity":83,"Duration":292257,"SoundDuration":292257,"Delta":65431673},{"NoteNumber":61,"Velocity":41,"Duration":73249,"SoundDuration":73249,"Delta":65577432},{"NoteNumber":64,"Velocity":49,"Duration":73249,"SoundDuration":73249,"Delta":65577432},{"NoteNumber":70,"Velocity":75,"Duration":292997,"SoundDuration":292997,"Delta":65723931},{"NoteNumber":54,"Velocity":62,"Duration":292997,"SoundDuration":292997,"Delta":65723931},{"NoteNumber":42,"Velocity":58,"Duration":292997,"SoundDuration":292997,"Delta":65723931},{"NoteNumber":61,"Velocity":44,"Duration":73249,"SoundDuration":73249,"Delta":65870429},{"NoteNumber":64,"Velocity":52,"Duration":73249,"SoundDuration":73249,"Delta":65870429},{"NoteNumber":66,"Velocity":74,"Duration":290223,"SoundDuration":290223,"Delta":66016928},{"NoteNumber":61,"Velocity":45,"Duration":77575,"SoundDuration":77575,"Delta":66164930},{"NoteNumber":64,"Velocity":55,"Duration":77575,"SoundDuration":77575,"Delta":66164930},{"NoteNumber":66,"Velocity":70,"Duration":588261,"SoundDuration":588261,"Delta":66320081},{"NoteNumber":59,"Velocity":41,"Duration":73249,"SoundDuration":73249,"Delta":66468846},{"NoteNumber":63,"Velocity":49,"Duration":73249,"SoundDuration":73249,"Delta":66468846},{"NoteNumber":35,"Velocity":58,"Duration":292997,"SoundDuration":292997,"Delta":66615345},{"NoteNumber":47,"Velocity":62,"Duration":292997,"SoundDuration":292997,"Delta":66615345},{"NoteNumber":59,"Velocity":43,"Duration":73249,"SoundDuration":73249,"Delta":66615345},{"NoteNumber":63,"Velocity":68,"Duration":73249,"SoundDuration":73249,"Delta":66615345},{"NoteNumber":59,"Velocity":44,"Duration":73249,"SoundDuration":73249,"Delta":66761844},{"NoteNumber":63,"Velocity":52,"Duration":73249,"SoundDuration":73249,"Delta":66761844},{"NoteNumber":71,"Velocity":70,"Duration":287959,"SoundDuration":287959,"Delta":66908343},{"NoteNumber":47,"Velocity":58,"Duration":300819,"SoundDuration":300819,"Delta":66908343},{"NoteNumber":59,"Velocity":45,"Duration":77160,"SoundDuration":77160,"Delta":67054841},{"NoteNumber":63,"Velocity":45,"Duration":77160,"SoundDuration":77160,"Delta":67054841},{"NoteNumber":66,"Velocity":55,"Duration":77160,"SoundDuration":77160,"Delta":67054841},{"NoteNumber":71,"Velocity":70,"Duration":570572,"SoundDuration":570572,"Delta":67209162},{"NoteNumber":47,"Velocity":62,"Duration":294751,"SoundDuration":294751,"Delta":67209162},{"NoteNumber":66,"Velocity":43,"Duration":73249,"SoundDuration":73249,"Delta":67357928},{"NoteNumber":69,"Velocity":68,"Duration":73249,"SoundDuration":73249,"Delta":67357928},{"NoteNumber":49,"Velocity":68,"Duration":72150,"SoundDuration":72150,"Delta":67503913},{"NoteNumber":66,"Velocity":34,"Duration":72150,"SoundDuration":72150,"Delta":67503913},{"NoteNumber":69,"Velocity":54,"Duration":72150,"SoundDuration":72150,"Delta":67503913},{"NoteNumber":51,"Velocity":73,"Duration":71790,"SoundDuration":71790,"Delta":67648136},{"NoteNumber":66,"Velocity":35,"Duration":71790,"SoundDuration":71790,"Delta":67648136},{"NoteNumber":69,"Velocity":41,"Duration":71790,"SoundDuration":71790,"Delta":67648136},{"NoteNumber":71,"Velocity":70,"Duration":284331,"SoundDuration":284331,"Delta":67791641},{"NoteNumber":52,"Velocity":72,"Duration":71435,"SoundDuration":71435,"Delta":67791641},{"NoteNumber":54,"Velocity":76,"Duration":77160,"SoundDuration":77160,"Delta":67934512},{"NoteNumber":66,"Velocity":76,"Duration":77160,"SoundDuration":77160,"Delta":67934512},{"NoteNumber":69,"Velocity":76,"Duration":77160,"SoundDuration":77160,"Delta":67934512},{"NoteNumber":71,"Velocity":79,"Duration":284360,"SoundDuration":284360,"Delta":68088833},{"NoteNumber":55,"Velocity":84,"Duration":857902,"SoundDuration":857902,"Delta":68088833},{"NoteNumber":59,"Velocity":59,"Duration":71089,"SoundDuration":71089,"Delta":68231013},{"NoteNumber":67,"Velocity":70,"Duration":71089,"SoundDuration":71089,"Delta":68231013},{"NoteNumber":64,"Velocity":59,"Duration":71089,"SoundDuration":71089,"Delta":68231013},{"NoteNumber":73,"Velocity":76,"Duration":70927,"SoundDuration":70927,"Delta":68373193},{"NoteNumber":64,"Velocity":56,"Duration":70927,"SoundDuration":70927,"Delta":68373193},{"NoteNumber":67,"Velocity":66,"Duration":70927,"SoundDuration":70927,"Delta":68373193},{"NoteNumber":59,"Velocity":56,"Duration":70927,"SoundDuration":70927,"Delta":68373193},{"NoteNumber":75,"Velocity":77,"Duration":70396,"SoundDuration":70396,"Delta":68514787},{"NoteNumber":64,"Velocity":57,"Duration":70396,"SoundDuration":70396,"Delta":68514787},{"NoteNumber":67,"Velocity":68,"Duration":70396,"SoundDuration":70396,"Delta":68514787},{"NoteNumber":59,"Velocity":57,"Duration":70396,"SoundDuration":70396,"Delta":68514787},{"NoteNumber":76,"Velocity":79,"Duration":69811,"SoundDuration":69811,"Delta":68655248},{"NoteNumber":64,"Velocity":59,"Duration":69811,"SoundDuration":69811,"Delta":68655248},{"NoteNumber":67,"Velocity":70,"Duration":69811,"SoundDuration":69811,"Delta":68655248},{"NoteNumber":59,"Velocity":59,"Duration":69811,"SoundDuration":69811,"Delta":68655248},{"NoteNumber":78,"Velocity":83,"Duration":74956,"SoundDuration":74956,"Delta":68794619},{"NoteNumber":64,"Velocity":61,"Duration":74956,"SoundDuration":74956,"Delta":68794619},{"NoteNumber":67,"Velocity":72,"Duration":74956,"SoundDuration":74956,"Delta":68794619},{"NoteNumber":59,"Velocity":61,"Duration":74956,"SoundDuration":74956,"Delta":68794619},{"NoteNumber":79,"Velocity":85,"Duration":888012,"SoundDuration":888012,"Delta":68946735},{"NoteNumber":67,"Velocity":85,"Duration":1184015,"SoundDuration":1184015,"Delta":68946735},{"NoteNumber":47,"Velocity":72,"Duration":148002,"SoundDuration":148002,"Delta":68946735},{"NoteNumber":55,"Velocity":59,"Duration":111001,"SoundDuration":111001,"Delta":69094737},{"NoteNumber":62,"Velocity":59,"Duration":111001,"SoundDuration":111001,"Delta":69094737},{"NoteNumber":65,"Velocity":70,"Duration":111001,"SoundDuration":111001,"Delta":69094737},{"NoteNumber":65,"Velocity":70,"Duration":111001,"SoundDuration":111001,"Delta":69242739},{"NoteNumber":62,"Velocity":59,"Duration":111001,"SoundDuration":111001,"Delta":69242739},{"NoteNumber":55,"Velocity":59,"Duration":111001,"SoundDuration":111001,"Delta":69242739},{"NoteNumber":55,"Velocity":59,"Duration":111001,"SoundDuration":111001,"Delta":69390741},{"NoteNumber":62,"Velocity":59,"Duration":111001,"SoundDuration":111001,"Delta":69390741},{"NoteNumber":65,"Velocity":70,"Duration":111001,"SoundDuration":111001,"Delta":69390741},{"NoteNumber":55,"Velocity":59,"Duration":111001,"SoundDuration":111001,"Delta":69538743},{"NoteNumber":62,"Velocity":59,"Duration":111001,"SoundDuration":111001,"Delta":69538743},{"NoteNumber":65,"Velocity":70,"Duration":111001,"SoundDuration":111001,"Delta":69538743},{"NoteNumber":55,"Velocity":59,"Duration":111001,"SoundDuration":111001,"Delta":69686745},{"NoteNumber":62,"Velocity":59,"Duration":111001,"SoundDuration":111001,"Delta":69686745},{"NoteNumber":65,"Velocity":70,"Duration":111001,"SoundDuration":111001,"Delta":69686745},{"NoteNumber":76,"Velocity":85,"Duration":296003,"SoundDuration":296003,"Delta":69834747},{"NoteNumber":48,"Velocity":72,"Duration":148002,"SoundDuration":148002,"Delta":69834747},{"NoteNumber":55,"Velocity":59,"Duration":111001,"SoundDuration":111001,"Delta":69982749},{"NoteNumber":60,"Velocity":59,"Duration":111001,"SoundDuration":111001,"Delta":69982749},{"NoteNumber":64,"Velocity":70,"Duration":111001,"SoundDuration":111001,"Delta":69982749},{"NoteNumber":64,"Velocity":70,"Duration":111001,"SoundDuration":111001,"Delta":70130751},{"NoteNumber":60,"Velocity":59,"Duration":111001,"SoundDuration":111001,"Delta":70130751},{"NoteNumber":55,"Velocity":59,"Duration":111001,"SoundDuration":111001,"Delta":70130751},{"NoteNumber":60,"Velocity":44,"Duration":73249,"SoundDuration":73249,"Delta":70278753},{"NoteNumber":64,"Velocity":52,"Duration":73249,"SoundDuration":73249,"Delta":70278753},{"NoteNumber":67,"Velocity":70,"Duration":287959,"SoundDuration":287959,"Delta":70425252},{"NoteNumber":60,"Velocity":59,"Duration":73249,"SoundDuration":73249,"Delta":70425252},{"NoteNumber":64,"Velocity":70,"Duration":73249,"SoundDuration":73249,"Delta":70425252},{"NoteNumber":43,"Velocity":58,"Duration":300819,"SoundDuration":300819,"Delta":70425252},{"NoteNumber":60,"Velocity":45,"Duration":77160,"SoundDuration":77160,"Delta":70571751},{"NoteNumber":64,"Velocity":55,"Duration":77160,"SoundDuration":77160,"Delta":70571751},{"NoteNumber":67,"Velocity":70,"Duration":570572,"SoundDuration":570572,"Delta":70726072},{"NoteNumber":43,"Velocity":62,"Duration":294751,"SoundDuration":294751,"Delta":70726072},{"NoteNumber":62,"Velocity":43,"Duration":73249,"SoundDuration":73249,"Delta":70874837},{"NoteNumber":65,"Velocity":68,"Duration":73249,"SoundDuration":73249,"Delta":70874837},{"NoteNumber":45,"Velocity":68,"Duration":72150,"SoundDuration":72150,"Delta":71020823},{"NoteNumber":62,"Velocity":34,"Duration":72150,"SoundDuration":72150,"Delta":71020823},{"NoteNumber":65,"Velocity":54,"Duration":72150,"SoundDuration":72150,"Delta":71020823},{"NoteNumber":47,"Velocity":73,"Duration":71790,"SoundDuration":71790,"Delta":71165045},{"NoteNumber":62,"Velocity":35,"Duration":71790,"SoundDuration":71790,"Delta":71165045},{"NoteNumber":65,"Velocity":41,"Duration":71790,"SoundDuration":71790,"Delta":71165045},{"NoteNumber":67,"Velocity":70,"Duration":284331,"SoundDuration":284331,"Delta":71308550},{"NoteNumber":48,"Velocity":76,"Duration":71435,"SoundDuration":71435,"Delta":71308550},{"NoteNumber":50,"Velocity":78,"Duration":77160,"SoundDuration":77160,"Delta":71451421},{"NoteNumber":62,"Velocity":78,"Duration":77160,"SoundDuration":77160,"Delta":71451421},{"NoteNumber":65,"Velocity":78,"Duration":77160,"SoundDuration":77160,"Delta":71451421},{"NoteNumber":67,"Velocity":79,"Duration":284360,"SoundDuration":284360,"Delta":71605742},{"NoteNumber":52,"Velocity":84,"Duration":857902,"SoundDuration":857902,"Delta":71605742},{"NoteNumber":55,"Velocity":59,"Duration":71089,"SoundDuration":71089,"Delta":71747922},{"NoteNumber":64,"Velocity":70,"Duration":71089,"SoundDuration":71089,"Delta":71747922},{"NoteNumber":60,"Velocity":59,"Duration":71089,"SoundDuration":71089,"Delta":71747922},{"NoteNumber":69,"Velocity":76,"Duration":70927,"SoundDuration":70927,"Delta":71890102},{"NoteNumber":60,"Velocity":56,"Duration":70927,"SoundDuration":70927,"Delta":71890102},{"NoteNumber":64,"Velocity":66,"Duration":70927,"SoundDuration":70927,"Delta":71890102},{"NoteNumber":55,"Velocity":56,"Duration":70927,"SoundDuration":70927,"Delta":71890102},{"NoteNumber":71,"Velocity":77,"Duration":70396,"SoundDuration":70396,"Delta":72031696},{"NoteNumber":60,"Velocity":57,"Duration":70396,"SoundDuration":70396,"Delta":72031696},{"NoteNumber":64,"Velocity":68,"Duration":70396,"SoundDuration":70396,"Delta":72031696},{"NoteNumber":55,"Velocity":57,"Duration":70396,"SoundDuration":70396,"Delta":72031696},{"NoteNumber":72,"Velocity":79,"Duration":69811,"SoundDuration":69811,"Delta":72172157},{"NoteNumber":60,"Velocity":59,"Duration":69811,"SoundDuration":69811,"Delta":72172157},{"NoteNumber":64,"Velocity":70,"Duration":69811,"SoundDuration":69811,"Delta":72172157},{"NoteNumber":55,"Velocity":59,"Duration":69811,"SoundDuration":69811,"Delta":72172157},{"NoteNumber":74,"Velocity":83,"Duration":74956,"SoundDuration":74956,"Delta":72311528},{"NoteNumber":60,"Velocity":61,"Duration":74956,"SoundDuration":74956,"Delta":72311528},{"NoteNumber":64,"Velocity":72,"Duration":74956,"SoundDuration":74956,"Delta":72311528},{"NoteNumber":55,"Velocity":61,"Duration":74956,"SoundDuration":74956,"Delta":72311528},{"NoteNumber":76,"Velocity":85,"Duration":888012,"SoundDuration":888012,"Delta":72463645},{"NoteNumber":64,"Velocity":85,"Duration":1184015,"SoundDuration":1184015,"Delta":72463645},{"NoteNumber":44,"Velocity":72,"Duration":148002,"SoundDuration":148002,"Delta":72463645},{"NoteNumber":52,"Velocity":53,"Duration":111001,"SoundDuration":111001,"Delta":72611647},{"NoteNumber":59,"Velocity":53,"Duration":111001,"SoundDuration":111001,"Delta":72611647},{"NoteNumber":62,"Velocity":63,"Duration":111001,"SoundDuration":111001,"Delta":72611647},{"NoteNumber":62,"Velocity":70,"Duration":111001,"SoundDuration":111001,"Delta":72759649},{"NoteNumber":59,"Velocity":59,"Duration":111001,"SoundDuration":111001,"Delta":72759649},{"NoteNumber":52,"Velocity":59,"Duration":111001,"SoundDuration":111001,"Delta":72759649},{"NoteNumber":52,"Velocity":53,"Duration":111001,"SoundDuration":111001,"Delta":72907651},{"NoteNumber":59,"Velocity":53,"Duration":111001,"SoundDuration":111001,"Delta":72907651},{"NoteNumber":62,"Velocity":63,"Duration":111001,"SoundDuration":111001,"Delta":72907651},{"NoteNumber":52,"Velocity":59,"Duration":111001,"SoundDuration":111001,"Delta":73055653},{"NoteNumber":59,"Velocity":59,"Duration":111001,"SoundDuration":111001,"Delta":73055653},{"NoteNumber":62,"Velocity":70,"Duration":111001,"SoundDuration":111001,"Delta":73055653},{"NoteNumber":52,"Velocity":53,"Duration":111001,"SoundDuration":111001,"Delta":73203655},{"NoteNumber":59,"Velocity":53,"Duration":111001,"SoundDuration":111001,"Delta":73203655},{"NoteNumber":62,"Velocity":63,"Duration":111001,"SoundDuration":111001,"Delta":73203655},{"NoteNumber":72,"Velocity":85,"Duration":296003,"SoundDuration":296003,"Delta":73351657},{"NoteNumber":45,"Velocity":72,"Duration":148002,"SoundDuration":148002,"Delta":73351657},{"NoteNumber":57,"Velocity":59,"Duration":111001,"SoundDuration":111001,"Delta":73499659},{"NoteNumber":60,"Velocity":70,"Duration":111001,"SoundDuration":111001,"Delta":73499659},{"NoteNumber":60,"Velocity":70,"Duration":111001,"SoundDuration":111001,"Delta":73647661},{"NoteNumber":57,"Velocity":59,"Duration":111001,"SoundDuration":111001,"Delta":73647661},{"NoteNumber":55,"Velocity":59,"Duration":111001,"SoundDuration":111001,"Delta":73795663},{"NoteNumber":57,"Velocity":59,"Duration":111001,"SoundDuration":111001,"Delta":73795663},{"NoteNumber":60,"Velocity":70,"Duration":111001,"SoundDuration":111001,"Delta":73795663},{"NoteNumber":72,"Velocity":70,"Duration":284331,"SoundDuration":284331,"Delta":73943665},{"NoteNumber":55,"Velocity":59,"Duration":107153,"SoundDuration":107153,"Delta":73943665},{"NoteNumber":57,"Velocity":59,"Duration":107153,"SoundDuration":107153,"Delta":73943665},{"NoteNumber":60,"Velocity":70,"Duration":107153,"SoundDuration":107153,"Delta":73943665},{"NoteNumber":54,"Velocity":59,"Duration":115740,"SoundDuration":115740,"Delta":74086535},{"NoteNumber":57,"Velocity":59,"Duration":115740,"SoundDuration":115740,"Delta":74086535},{"NoteNumber":60,"Velocity":70,"Duration":115740,"SoundDuration":115740,"Delta":74086535},{"NoteNumber":71,"Velocity":79,"Duration":284360,"SoundDuration":284360,"Delta":74240856},{"NoteNumber":51,"Velocity":70,"Duration":71089,"SoundDuration":71089,"Delta":74240856},{"NoteNumber":54,"Velocity":70,"Duration":71089,"SoundDuration":71089,"Delta":74240856},{"NoteNumber":57,"Velocity":70,"Duration":71089,"SoundDuration":71089,"Delta":74240856},{"NoteNumber":59,"Velocity":70,"Duration":71089,"SoundDuration":71089,"Delta":74240856},{"NoteNumber":54,"Velocity":45,"Duration":71089,"SoundDuration":71089,"Delta":74383036},{"NoteNumber":51,"Velocity":45,"Duration":72274,"SoundDuration":72274,"Delta":74383036},{"NoteNumber":57,"Velocity":45,"Duration":72274,"SoundDuration":72274,"Delta":74383036},{"NoteNumber":59,"Velocity":53,"Duration":72274,"SoundDuration":72274,"Delta":74383036},{"NoteNumber":73,"Velocity":78,"Duration":70927,"SoundDuration":70927,"Delta":74525216},{"NoteNumber":54,"Velocity":51,"Duration":70927,"SoundDuration":70927,"Delta":74525216},{"NoteNumber":59,"Velocity":60,"Duration":72106,"SoundDuration":72106,"Delta":74525216},{"NoteNumber":57,"Velocity":51,"Duration":72106,"SoundDuration":72106,"Delta":74525216},{"NoteNumber":51,"Velocity":51,"Duration":72106,"SoundDuration":72106,"Delta":74525216},{"NoteNumber":75,"Velocity":84,"Duration":70396,"SoundDuration":70396,"Delta":74666810},{"NoteNumber":54,"Velocity":52,"Duration":70396,"SoundDuration":70396,"Delta":74666810},{"NoteNumber":51,"Velocity":52,"Duration":71569,"SoundDuration":71569,"Delta":74666810},{"NoteNumber":57,"Velocity":52,"Duration":71569,"SoundDuration":71569,"Delta":74666810},{"NoteNumber":59,"Velocity":62,"Duration":71569,"SoundDuration":71569,"Delta":74666810},{"NoteNumber":76,"Velocity":85,"Duration":69811,"SoundDuration":69811,"Delta":74807272},{"NoteNumber":54,"Velocity":53,"Duration":69811,"SoundDuration":69811,"Delta":74807272},{"NoteNumber":51,"Velocity":53,"Duration":70973,"SoundDuration":70973,"Delta":74807272},{"NoteNumber":57,"Velocity":53,"Duration":70973,"SoundDuration":70973,"Delta":74807272},{"NoteNumber":59,"Velocity":63,"Duration":70973,"SoundDuration":70973,"Delta":74807272},{"NoteNumber":78,"Velocity":87,"Duration":74956,"SoundDuration":74956,"Delta":74946642},{"NoteNumber":54,"Velocity":54,"Duration":74956,"SoundDuration":74956,"Delta":74946642},{"NoteNumber":51,"Velocity":54,"Duration":76242,"SoundDuration":76242,"Delta":74946642},{"NoteNumber":57,"Velocity":54,"Duration":76242,"SoundDuration":76242,"Delta":74946642},{"NoteNumber":59,"Velocity":65,"Duration":76242,"SoundDuration":76242,"Delta":74946642},{"NoteNumber":79,"Velocity":94,"Duration":296003,"SoundDuration":296003,"Delta":75098759},{"NoteNumber":52,"Velocity":56,"Duration":296003,"SoundDuration":296003,"Delta":75098759},{"NoteNumber":55,"Velocity":56,"Duration":296003,"SoundDuration":296003,"Delta":75098759},{"NoteNumber":59,"Velocity":66,"Duration":296003,"SoundDuration":296003,"Delta":75098759},{"NoteNumber":76,"Velocity":87,"Duration":296004,"SoundDuration":296004,"Delta":75394763},{"NoteNumber":64,"Velocity":54,"Duration":74000,"SoundDuration":74000,"Delta":75542765},{"NoteNumber":67,"Velocity":64,"Duration":74000,"SoundDuration":74000,"Delta":75542765},{"NoteNumber":72,"Velocity":87,"Duration":296183,"SoundDuration":296183,"Delta":75690767},{"NoteNumber":64,"Velocity":56,"Duration":72150,"SoundDuration":72150,"Delta":75690767},{"NoteNumber":67,"Velocity":66,"Duration":72150,"SoundDuration":72150,"Delta":75690767},{"NoteNumber":67,"Velocity":64,"Duration":75941,"SoundDuration":75941,"Delta":75835067},{"NoteNumber":64,"Velocity":54,"Duration":75941,"SoundDuration":75941,"Delta":75835067},{"NoteNumber":79,"Velocity":94,"Duration":296003,"SoundDuration":296003,"Delta":75986950},{"NoteNumber":76,"Velocity":86,"Duration":296004,"SoundDuration":296004,"Delta":76282954},{"NoteNumber":62,"Velocity":52,"Duration":74000,"SoundDuration":74000,"Delta":76430956},{"NoteNumber":66,"Velocity":52,"Duration":74000,"SoundDuration":74000,"Delta":76430956},{"NoteNumber":67,"Velocity":62,"Duration":74000,"SoundDuration":74000,"Delta":76430956},{"NoteNumber":71,"Velocity":84,"Duration":296183,"SoundDuration":296183,"Delta":76578958},{"NoteNumber":62,"Velocity":54,"Duration":72150,"SoundDuration":72150,"Delta":76578958},{"NoteNumber":66,"Velocity":54,"Duration":72150,"SoundDuration":72150,"Delta":76578958},{"NoteNumber":67,"Velocity":64,"Duration":72150,"SoundDuration":72150,"Delta":76578958},{"NoteNumber":62,"Velocity":51,"Duration":75941,"SoundDuration":75941,"Delta":76723259},{"NoteNumber":67,"Velocity":61,"Duration":75941,"SoundDuration":75941,"Delta":76723259},{"NoteNumber":66,"Velocity":51,"Duration":75941,"SoundDuration":75941,"Delta":76723259},{"NoteNumber":79,"Velocity":89,"Duration":296003,"SoundDuration":296003,"Delta":76875142},{"NoteNumber":76,"Velocity":81,"Duration":296004,"SoundDuration":296004,"Delta":77171146},{"NoteNumber":61,"Velocity":50,"Duration":74000,"SoundDuration":74000,"Delta":77319148},{"NoteNumber":64,"Velocity":50,"Duration":74000,"SoundDuration":74000,"Delta":77319148},{"NoteNumber":67,"Velocity":59,"Duration":74000,"SoundDuration":74000,"Delta":77319148},{"NoteNumber":70,"Velocity":80,"Duration":296183,"SoundDuration":296183,"Delta":77467150},{"NoteNumber":61,"Velocity":51,"Duration":72150,"SoundDuration":72150,"Delta":77467150},{"NoteNumber":64,"Velocity":51,"Duration":72150,"SoundDuration":72150,"Delta":77467150},{"NoteNumber":67,"Velocity":60,"Duration":72150,"SoundDuration":72150,"Delta":77467150},{"NoteNumber":61,"Velocity":49,"Duration":75941,"SoundDuration":75941,"Delta":77611450},{"NoteNumber":67,"Velocity":58,"Duration":75941,"SoundDuration":75941,"Delta":77611450},{"NoteNumber":64,"Velocity":49,"Duration":75941,"SoundDuration":75941,"Delta":77611450},{"NoteNumber":78,"Velocity":84,"Duration":296003,"SoundDuration":296003,"Delta":77763333},{"NoteNumber":74,"Velocity":77,"Duration":296004,"SoundDuration":296004,"Delta":78059337},{"NoteNumber":62,"Velocity":47,"Duration":74000,"SoundDuration":74000,"Delta":78207339},{"NoteNumber":66,"Velocity":56,"Duration":74000,"SoundDuration":74000,"Delta":78207339},{"NoteNumber":71,"Velocity":75,"Duration":296183,"SoundDuration":296183,"Delta":78355341},{"NoteNumber":62,"Velocity":48,"Duration":72150,"SoundDuration":72150,"Delta":78355341},{"NoteNumber":66,"Velocity":57,"Duration":72150,"SoundDuration":72150,"Delta":78355341},{"NoteNumber":62,"Velocity":46,"Duration":75941,"SoundDuration":75941,"Delta":78499642},{"NoteNumber":66,"Velocity":55,"Duration":75941,"SoundDuration":75941,"Delta":78499642},{"NoteNumber":74,"Velocity":79,"Duration":296003,"SoundDuration":296003,"Delta":78651525},{"NoteNumber":71,"Velocity":73,"Duration":296004,"SoundDuration":296004,"Delta":78947529},{"NoteNumber":59,"Velocity":44,"Duration":74000,"SoundDuration":74000,"Delta":79095531},{"NoteNumber":62,"Velocity":53,"Duration":74000,"SoundDuration":74000,"Delta":79095531},{"NoteNumber":67,"Velocity":71,"Duration":296183,"SoundDuration":296183,"Delta":79243533},{"NoteNumber":59,"Velocity":45,"Duration":72150,"SoundDuration":72150,"Delta":79243533},{"NoteNumber":62,"Velocity":54,"Duration":72150,"SoundDuration":72150,"Delta":79243533},{"NoteNumber":59,"Velocity":43,"Duration":75941,"SoundDuration":75941,"Delta":79387833},{"NoteNumber":62,"Velocity":51,"Duration":75941,"SoundDuration":75941,"Delta":79387833},{"NoteNumber":71,"Velocity":70,"Duration":296003,"SoundDuration":296003,"Delta":79539716},{"NoteNumber":67,"Velocity":59,"Duration":296004,"SoundDuration":296004,"Delta":79835720},{"NoteNumber":55,"Velocity":35,"Duration":74000,"SoundDuration":74000,"Delta":79983722},{"NoteNumber":59,"Velocity":42,"Duration":74000,"SoundDuration":74000,"Delta":79983722},{"NoteNumber":62,"Velocity":54,"Duration":296183,"SoundDuration":296183,"Delta":80131724},{"NoteNumber":55,"Velocity":35,"Duration":72150,"SoundDuration":72150,"Delta":80131724},{"NoteNumber":59,"Velocity":41,"Duration":72150,"SoundDuration":72150,"Delta":80131724},{"NoteNumber":55,"Velocity":32,"Duration":75941,"SoundDuration":75941,"Delta":80276025},{"NoteNumber":59,"Velocity":38,"Duration":75941,"SoundDuration":75941,"Delta":80276025},{"NoteNumber":67,"Velocity":52,"Duration":296003,"SoundDuration":296003,"Delta":80427908},{"NoteNumber":62,"Velocity":48,"Duration":296004,"SoundDuration":296004,"Delta":80723912},{"NoteNumber":50,"Velocity":30,"Duration":74000,"SoundDuration":74000,"Delta":80871914},{"NoteNumber":55,"Velocity":36,"Duration":74000,"SoundDuration":74000,"Delta":80871914},{"NoteNumber":59,"Velocity":48,"Duration":296183,"SoundDuration":296183,"Delta":81019916},{"NoteNumber":50,"Velocity":31,"Duration":72150,"SoundDuration":72150,"Delta":81019916},{"NoteNumber":55,"Velocity":36,"Duration":72150,"SoundDuration":72150,"Delta":81019916},{"NoteNumber":50,"Velocity":30,"Duration":75941,"SoundDuration":75941,"Delta":81164216},{"NoteNumber":55,"Velocity":36,"Duration":75941,"SoundDuration":75941,"Delta":81164216},{"NoteNumber":62,"Velocity":52,"Duration":296003,"SoundDuration":296003,"Delta":81316099},{"NoteNumber":59,"Velocity":48,"Duration":296004,"SoundDuration":296004,"Delta":81612103},{"NoteNumber":43,"Velocity":30,"Duration":74000,"SoundDuration":74000,"Delta":81760105},{"NoteNumber":47,"Velocity":36,"Duration":74000,"SoundDuration":74000,"Delta":81760105},{"NoteNumber":53,"Velocity":48,"Duration":296183,"SoundDuration":296183,"Delta":81908107},{"NoteNumber":43,"Velocity":31,"Duration":72150,"SoundDuration":72150,"Delta":81908107},{"NoteNumber":47,"Velocity":36,"Duration":72150,"SoundDuration":72150,"Delta":81908107},{"NoteNumber":43,"Velocity":30,"Duration":75941,"SoundDuration":75941,"Delta":82052408},{"NoteNumber":47,"Velocity":36,"Duration":75941,"SoundDuration":75941,"Delta":82052408},{"NoteNumber":54,"Velocity":52,"Duration":226549,"SoundDuration":226549,"Delta":82204291},{"NoteNumber":42,"Velocity":36,"Duration":226549,"SoundDuration":226549,"Delta":82204291},{"NoteNumber":46,"Velocity":36,"Duration":226549,"SoundDuration":226549,"Delta":82204291},{"NoteNumber":70,"Velocity":62,"Duration":73138,"SoundDuration":73138,"Delta":82504352},{"NoteNumber":58,"Velocity":52,"Duration":73138,"SoundDuration":73138,"Delta":82504352},{"NoteNumber":71,"Velocity":65,"Duration":72403,"SoundDuration":72403,"Delta":82650259},{"NoteNumber":59,"Velocity":55,"Duration":72403,"SoundDuration":72403,"Delta":82650259},{"NoteNumber":73,"Velocity":67,"Duration":72879,"SoundDuration":72879,"Delta":82794706},{"NoteNumber":61,"Velocity":56,"Duration":72879,"SoundDuration":72879,"Delta":82794706},{"NoteNumber":74,"Velocity":70,"Duration":79710,"SoundDuration":79710,"Delta":82940464},{"NoteNumber":62,"Velocity":59,"Duration":79710,"SoundDuration":79710,"Delta":82940464},{"NoteNumber":64,"Velocity":66,"Duration":888527,"SoundDuration":888527,"Delta":83099886},{"NoteNumber":76,"Velocity":78,"Duration":888527,"SoundDuration":888527,"Delta":83099886},{"NoteNumber":55,"Velocity":46,"Duration":73623,"SoundDuration":73623,"Delta":83251769},{"NoteNumber":52,"Velocity":36,"Duration":73623,"SoundDuration":73623,"Delta":83251769},{"NoteNumber":49,"Velocity":36,"Duration":73623,"SoundDuration":73623,"Delta":83251769},{"NoteNumber":47,"Velocity":36,"Duration":73623,"SoundDuration":73623,"Delta":83251769},{"NoteNumber":47,"Velocity":39,"Duration":72512,"SoundDuration":72512,"Delta":83399016},{"NoteNumber":49,"Velocity":39,"Duration":72512,"SoundDuration":72512,"Delta":83399016},{"NoteNumber":52,"Velocity":39,"Duration":72512,"SoundDuration":72512,"Delta":83399016},{"NoteNumber":55,"Velocity":50,"Duration":72512,"SoundDuration":72512,"Delta":83399016},{"NoteNumber":55,"Velocity":46,"Duration":72512,"SoundDuration":72512,"Delta":83544041},{"NoteNumber":52,"Velocity":36,"Duration":72512,"SoundDuration":72512,"Delta":83544041},{"NoteNumber":49,"Velocity":36,"Duration":72512,"SoundDuration":72512,"Delta":83544041},{"NoteNumber":47,"Velocity":36,"Duration":72512,"SoundDuration":72512,"Delta":83544041},{"NoteNumber":47,"Velocity":41,"Duration":72512,"SoundDuration":72512,"Delta":83689067},{"NoteNumber":49,"Velocity":41,"Duration":72512,"SoundDuration":72512,"Delta":83689067},{"NoteNumber":52,"Velocity":41,"Duration":72512,"SoundDuration":72512,"Delta":83689067},{"NoteNumber":55,"Velocity":52,"Duration":72512,"SoundDuration":72512,"Delta":83689067},{"NoteNumber":55,"Velocity":46,"Duration":77160,"SoundDuration":77160,"Delta":83834092},{"NoteNumber":52,"Velocity":36,"Duration":77160,"SoundDuration":77160,"Delta":83834092},{"NoteNumber":49,"Velocity":36,"Duration":77160,"SoundDuration":77160,"Delta":83834092},{"NoteNumber":47,"Velocity":36,"Duration":77160,"SoundDuration":77160,"Delta":83834092},{"NoteNumber":46,"Velocity":50,"Duration":297265,"SoundDuration":297265,"Delta":83988413},{"NoteNumber":49,"Velocity":50,"Duration":297265,"SoundDuration":297265,"Delta":83988413},{"NoteNumber":54,"Velocity":57,"Duration":297265,"SoundDuration":297265,"Delta":83988413},{"NoteNumber":66,"Velocity":59,"Duration":73623,"SoundDuration":73623,"Delta":84138637},{"NoteNumber":78,"Velocity":71,"Duration":73623,"SoundDuration":73623,"Delta":84138637},{"NoteNumber":82,"Velocity":71,"Duration":73138,"SoundDuration":73138,"Delta":84285678},{"NoteNumber":70,"Velocity":59,"Duration":73138,"SoundDuration":73138,"Delta":84285678},{"NoteNumber":83,"Velocity":74,"Duration":72512,"SoundDuration":72512,"Delta":84431678},{"NoteNumber":71,"Velocity":63,"Duration":72512,"SoundDuration":72512,"Delta":84431678},{"NoteNumber":85,"Velocity":77,"Duration":74382,"SoundDuration":74382,"Delta":84576413},{"NoteNumber":73,"Velocity":64,"Duration":74382,"SoundDuration":74382,"Delta":84576413},{"NoteNumber":86,"Velocity":80,"Duration":81503,"SoundDuration":81503,"Delta":84725178},{"NoteNumber":74,"Velocity":67,"Duration":81503,"SoundDuration":81503,"Delta":84725178},{"NoteNumber":76,"Velocity":75,"Duration":1016144,"SoundDuration":1016144,"Delta":84888186},{"NoteNumber":88,"Velocity":89,"Duration":1016144,"SoundDuration":1016144,"Delta":84888186},{"NoteNumber":55,"Velocity":46,"Duration":74760,"SoundDuration":74760,"Delta":85040069},{"NoteNumber":52,"Velocity":36,"Duration":74760,"SoundDuration":74760,"Delta":85040069},{"NoteNumber":49,"Velocity":36,"Duration":74760,"SoundDuration":74760,"Delta":85040069},{"NoteNumber":47,"Velocity":36,"Duration":74760,"SoundDuration":74760,"Delta":85040069},{"NoteNumber":47,"Velocity":39,"Duration":74000,"SoundDuration":74000,"Delta":85189591},{"NoteNumber":49,"Velocity":39,"Duration":74000,"SoundDuration":74000,"Delta":85189591},{"NoteNumber":52,"Velocity":39,"Duration":74000,"SoundDuration":74000,"Delta":85189591},{"NoteNumber":55,"Velocity":50,"Duration":74000,"SoundDuration":74000,"Delta":85189591},{"NoteNumber":55,"Velocity":46,"Duration":74000,"SoundDuration":74000,"Delta":85337593},{"NoteNumber":52,"Velocity":36,"Duration":74000,"SoundDuration":74000,"Delta":85337593},{"NoteNumber":49,"Velocity":36,"Duration":74000,"SoundDuration":74000,"Delta":85337593},{"NoteNumber":47,"Velocity":36,"Duration":74000,"SoundDuration":74000,"Delta":85337593},{"NoteNumber":47,"Velocity":41,"Duration":74001,"SoundDuration":74001,"Delta":85485595},{"NoteNumber":49,"Velocity":41,"Duration":74001,"SoundDuration":74001,"Delta":85485595},{"NoteNumber":52,"Velocity":41,"Duration":74001,"SoundDuration":74001,"Delta":85485595},{"NoteNumber":55,"Velocity":52,"Duration":74001,"SoundDuration":74001,"Delta":85485595},{"NoteNumber":55,"Velocity":46,"Duration":78410,"SoundDuration":78410,"Delta":85633597},{"NoteNumber":52,"Velocity":36,"Duration":78410,"SoundDuration":78410,"Delta":85633597},{"NoteNumber":49,"Velocity":36,"Duration":78410,"SoundDuration":78410,"Delta":85633597},{"NoteNumber":47,"Velocity":36,"Duration":78410,"SoundDuration":78410,"Delta":85633597},{"NoteNumber":46,"Velocity":50,"Duration":303766,"SoundDuration":303766,"Delta":85790419},{"NoteNumber":49,"Velocity":50,"Duration":303766,"SoundDuration":303766,"Delta":85790419},{"NoteNumber":54,"Velocity":57,"Duration":303766,"SoundDuration":303766,"Delta":85790419},{"NoteNumber":66,"Velocity":53,"Duration":151883,"SoundDuration":151883,"Delta":85942302},{"NoteNumber":70,"Velocity":53,"Duration":151883,"SoundDuration":151883,"Delta":86094185},{"NoteNumber":71,"Velocity":53,"Duration":151883,"SoundDuration":151883,"Delta":86246068},{"NoteNumber":73,"Velocity":55,"Duration":151883,"SoundDuration":151883,"Delta":86397952},{"NoteNumber":74,"Velocity":56,"Duration":151883,"SoundDuration":151883,"Delta":86549835},{"NoteNumber":54,"Velocity":47,"Duration":151883,"SoundDuration":151883,"Delta":86549835},{"NoteNumber":76,"Velocity":57,"Duration":141460,"SoundDuration":141460,"Delta":86701718},{"NoteNumber":57,"Velocity":48,"Duration":154320,"SoundDuration":154320,"Delta":86701718},{"NoteNumber":66,"Velocity":51,"Duration":149302,"SoundDuration":149302,"Delta":86856039},{"NoteNumber":59,"Velocity":43,"Duration":149302,"SoundDuration":149302,"Delta":86856039},{"NoteNumber":70,"Velocity":51,"Duration":148364,"SoundDuration":148364,"Delta":87005342},{"NoteNumber":61,"Velocity":43,"Duration":148364,"SoundDuration":148364,"Delta":87005342},{"NoteNumber":71,"Velocity":53,"Duration":147605,"SoundDuration":147605,"Delta":87153706},{"NoteNumber":62,"Velocity":45,"Duration":147605,"SoundDuration":147605,"Delta":87153706},{"NoteNumber":73,"Velocity":54,"Duration":146853,"SoundDuration":146853,"Delta":87301312},{"NoteNumber":64,"Velocity":50,"Duration":134645,"SoundDuration":134645,"Delta":87301312},{"NoteNumber":74,"Velocity":55,"Duration":146498,"SoundDuration":146498,"Delta":87448166},{"NoteNumber":57,"Velocity":46,"Duration":146498,"SoundDuration":146498,"Delta":87448166},{"NoteNumber":76,"Velocity":58,"Duration":139226,"SoundDuration":139226,"Delta":87594664},{"NoteNumber":61,"Velocity":47,"Duration":151883,"SoundDuration":151883,"Delta":87594664},{"NoteNumber":70,"Velocity":56,"Duration":150300,"SoundDuration":150300,"Delta":87746548},{"NoteNumber":62,"Velocity":47,"Duration":150300,"SoundDuration":150300,"Delta":87746548},{"NoteNumber":73,"Velocity":56,"Duration":147933,"SoundDuration":147933,"Delta":87896848},{"NoteNumber":64,"Velocity":47,"Duration":147933,"SoundDuration":147933,"Delta":87896848},{"NoteNumber":74,"Velocity":57,"Duration":147246,"SoundDuration":147246,"Delta":88044782},{"NoteNumber":66,"Velocity":48,"Duration":147246,"SoundDuration":147246,"Delta":88044782},{"NoteNumber":76,"Velocity":63,"Duration":147246,"SoundDuration":147246,"Delta":88192028},{"NoteNumber":67,"Velocity":53,"Duration":134975,"SoundDuration":134975,"Delta":88192028},{"NoteNumber":78,"Velocity":67,"Duration":147246,"SoundDuration":147246,"Delta":88339275},{"NoteNumber":58,"Velocity":50,"Duration":147246,"SoundDuration":147246,"Delta":88339275},{"NoteNumber":79,"Velocity":68,"Duration":141460,"SoundDuration":141460,"Delta":88486521},{"NoteNumber":61,"Velocity":50,"Duration":141460,"SoundDuration":141460,"Delta":88486521},{"NoteNumber":70,"Velocity":62,"Duration":149878,"SoundDuration":149878,"Delta":88640842},{"NoteNumber":62,"Velocity":52,"Duration":149878,"SoundDuration":149878,"Delta":88640842},{"NoteNumber":73,"Velocity":63,"Duration":148765,"SoundDuration":148765,"Delta":88790721},{"NoteNumber":64,"Velocity":53,"Duration":148765,"SoundDuration":148765,"Delta":88790721},{"NoteNumber":74,"Velocity":67,"Duration":148078,"SoundDuration":148078,"Delta":88939486},{"NoteNumber":66,"Velocity":56,"Duration":148078,"SoundDuration":148078,"Delta":88939486},{"NoteNumber":76,"Velocity":68,"Duration":147605,"SoundDuration":147605,"Delta":89087564},{"NoteNumber":67,"Velocity":57,"Duration":135334,"SoundDuration":135334,"Delta":89087564},{"NoteNumber":78,"Velocity":71,"Duration":151087,"SoundDuration":151087,"Delta":89235169},{"NoteNumber":66,"Velocity":56,"Duration":151087,"SoundDuration":151087,"Delta":89235169},{"NoteNumber":79,"Velocity":70,"Duration":150300,"SoundDuration":150300,"Delta":89386257},{"NoteNumber":64,"Velocity":55,"Duration":150300,"SoundDuration":150300,"Delta":89386257},{"NoteNumber":78,"Velocity":64,"Duration":148304,"SoundDuration":148304,"Delta":89536558},{"NoteNumber":66,"Velocity":54,"Duration":148304,"SoundDuration":148304,"Delta":89536558},{"NoteNumber":76,"Velocity":70,"Duration":146984,"SoundDuration":146984,"Delta":89684862},{"NoteNumber":67,"Velocity":59,"Duration":146984,"SoundDuration":146984,"Delta":89684862},{"NoteNumber":74,"Velocity":66,"Duration":147945,"SoundDuration":147945,"Delta":89831847},{"NoteNumber":66,"Velocity":56,"Duration":147945,"SoundDuration":147945,"Delta":89831847},{"NoteNumber":73,"Velocity":70,"Duration":148973,"SoundDuration":148973,"Delta":89979793},{"NoteNumber":64,"Velocity":55,"Duration":148973,"SoundDuration":148973,"Delta":89979793},{"NoteNumber":74,"Velocity":69,"Duration":151883,"SoundDuration":151883,"Delta":90128766},{"NoteNumber":62,"Velocity":53,"Duration":151883,"SoundDuration":151883,"Delta":90128766},{"NoteNumber":76,"Velocity":76,"Duration":149521,"SoundDuration":149521,"Delta":90280649},{"NoteNumber":61,"Velocity":57,"Duration":149521,"SoundDuration":149521,"Delta":90280649},{"NoteNumber":74,"Velocity":63,"Duration":147075,"SoundDuration":147075,"Delta":90430171},{"NoteNumber":62,"Velocity":53,"Duration":147075,"SoundDuration":147075,"Delta":90430171},{"NoteNumber":73,"Velocity":66,"Duration":146536,"SoundDuration":146536,"Delta":90577246},{"NoteNumber":64,"Velocity":56,"Duration":146536,"SoundDuration":146536,"Delta":90577246},{"NoteNumber":71,"Velocity":59,"Duration":147643,"SoundDuration":147643,"Delta":90723783},{"NoteNumber":62,"Velocity":50,"Duration":147643,"SoundDuration":147643,"Delta":90723783},{"NoteNumber":70,"Velocity":63,"Duration":148706,"SoundDuration":148706,"Delta":90871426},{"NoteNumber":61,"Velocity":53,"Duration":148706,"SoundDuration":148706,"Delta":90871426},{"NoteNumber":71,"Velocity":59,"Duration":152687,"SoundDuration":152687,"Delta":91020133},{"NoteNumber":59,"Velocity":50,"Duration":152687,"SoundDuration":152687,"Delta":91020133},{"NoteNumber":73,"Velocity":62,"Duration":149521,"SoundDuration":149521,"Delta":91172820},{"NoteNumber":58,"Velocity":48,"Duration":149521,"SoundDuration":149521,"Delta":91172820},{"NoteNumber":70,"Velocity":50,"Duration":146134,"SoundDuration":146134,"Delta":91322342},{"NoteNumber":59,"Velocity":42,"Duration":146134,"SoundDuration":146134,"Delta":91322342},{"NoteNumber":67,"Velocity":59,"Duration":146332,"SoundDuration":146332,"Delta":91468477},{"NoteNumber":61,"Velocity":50,"Duration":146332,"SoundDuration":146332,"Delta":91468477},{"NoteNumber":66,"Velocity":51,"Duration":146984,"SoundDuration":146984,"Delta":91614809},{"NoteNumber":58,"Velocity":43,"Duration":146984,"SoundDuration":146984,"Delta":91614809},{"NoteNumber":64,"Velocity":58,"Duration":147643,"SoundDuration":147643,"Delta":91761794},{"NoteNumber":55,"Velocity":49,"Duration":147643,"SoundDuration":147643,"Delta":91761794},{"NoteNumber":66,"Velocity":51,"Duration":152687,"SoundDuration":152687,"Delta":91909437},{"NoteNumber":54,"Velocity":43,"Duration":152687,"SoundDuration":152687,"Delta":91909437},{"NoteNumber":67,"Velocity":55,"Duration":149521,"SoundDuration":149521,"Delta":92062124},{"NoteNumber":52,"Velocity":46,"Duration":149521,"SoundDuration":149521,"Delta":92062124},{"NoteNumber":64,"Velocity":48,"Duration":149521,"SoundDuration":149521,"Delta":92211646},{"NoteNumber":54,"Velocity":40,"Duration":149521,"SoundDuration":149521,"Delta":92211646},{"NoteNumber":61,"Velocity":51,"Duration":149521,"SoundDuration":149521,"Delta":92361167},{"NoteNumber":55,"Velocity":43,"Duration":149521,"SoundDuration":149521,"Delta":92361167},{"NoteNumber":59,"Velocity":48,"Duration":149521,"SoundDuration":149521,"Delta":92510689},{"NoteNumber":52,"Velocity":40,"Duration":149521,"SoundDuration":149521,"Delta":92510689},{"NoteNumber":58,"Velocity":48,"Duration":152687,"SoundDuration":152687,"Delta":92660210},{"NoteNumber":66,"Velocity":50,"Duration":236076,"SoundDuration":236076,"Delta":92660210},{"NoteNumber":50,"Velocity":40,"Duration":152687,"SoundDuration":152687,"Delta":92660210},{"NoteNumber":59,"Velocity":48,"Duration":166777,"SoundDuration":166777,"Delta":92812897},{"NoteNumber":49,"Velocity":40,"Duration":166777,"SoundDuration":166777,"Delta":92812897},{"NoteNumber":66,"Velocity":56,"Duration":293940,"SoundDuration":293940,"Delta":92979675},{"NoteNumber":61,"Velocity":47,"Duration":73623,"SoundDuration":73623,"Delta":92979675},{"NoteNumber":46,"Velocity":40,"Duration":73623,"SoundDuration":73623,"Delta":92979675},{"NoteNumber":54,"Velocity":33,"Duration":73623,"SoundDuration":73623,"Delta":93126922},{"NoteNumber":61,"Velocity":33,"Duration":73623,"SoundDuration":73623,"Delta":93126922},{"NoteNumber":64,"Velocity":43,"Duration":73623,"SoundDuration":73623,"Delta":93126922},{"NoteNumber":68,"Velocity":58,"Duration":71435,"SoundDuration":71435,"Delta":93273615},{"NoteNumber":54,"Velocity":37,"Duration":71435,"SoundDuration":71435,"Delta":93273615},{"NoteNumber":61,"Velocity":37,"Duration":71435,"SoundDuration":71435,"Delta":93273615},{"NoteNumber":64,"Velocity":47,"Duration":71435,"SoundDuration":71435,"Delta":93273615},{"NoteNumber":70,"Velocity":59,"Duration":71089,"SoundDuration":71089,"Delta":93416405},{"NoteNumber":54,"Velocity":39,"Duration":71089,"SoundDuration":71089,"Delta":93416405},{"NoteNumber":61,"Velocity":39,"Duration":71089,"SoundDuration":71089,"Delta":93416405},{"NoteNumber":64,"Velocity":50,"Duration":71089,"SoundDuration":71089,"Delta":93416405},{"NoteNumber":71,"Velocity":63,"Duration":70741,"SoundDuration":70741,"Delta":93558504},{"NoteNumber":54,"Velocity":42,"Duration":70741,"SoundDuration":70741,"Delta":93558504},{"NoteNumber":61,"Velocity":42,"Duration":70741,"SoundDuration":70741,"Delta":93558504},{"NoteNumber":64,"Velocity":53,"Duration":70741,"SoundDuration":70741,"Delta":93558504},{"NoteNumber":73,"Velocity":66,"Duration":79272,"SoundDuration":79272,"Delta":93699906},{"NoteNumber":54,"Velocity":46,"Duration":79272,"SoundDuration":79272,"Delta":93699906},{"NoteNumber":61,"Velocity":46,"Duration":79272,"SoundDuration":79272,"Delta":93699906},{"NoteNumber":64,"Velocity":57,"Duration":79272,"SoundDuration":79272,"Delta":93699906},{"NoteNumber":74,"Velocity":74,"Duration":294493,"SoundDuration":294493,"Delta":93858452},{"NoteNumber":47,"Velocity":60,"Duration":73623,"SoundDuration":73623,"Delta":93858452},{"NoteNumber":62,"Velocity":43,"Duration":73623,"SoundDuration":73623,"Delta":94005698},{"NoteNumber":59,"Velocity":34,"Duration":73623,"SoundDuration":73623,"Delta":94005698},{"NoteNumber":54,"Velocity":34,"Duration":73623,"SoundDuration":73623,"Delta":94005698},{"NoteNumber":70,"Velocity":63,"Duration":282965,"SoundDuration":282965,"Delta":94152945},{"NoteNumber":54,"Velocity":41,"Duration":70741,"SoundDuration":70741,"Delta":94152945},{"NoteNumber":59,"Velocity":41,"Duration":70741,"SoundDuration":70741,"Delta":94152945},{"NoteNumber":62,"Velocity":52,"Duration":70741,"SoundDuration":70741,"Delta":94152945},{"NoteNumber":54,"Velocity":39,"Duration":70741,"SoundDuration":70741,"Delta":94294428},{"NoteNumber":59,"Velocity":39,"Duration":70741,"SoundDuration":70741,"Delta":94294428},{"NoteNumber":62,"Velocity":49,"Duration":70741,"SoundDuration":70741,"Delta":94294428},{"NoteNumber":71,"Velocity":64,"Duration":282965,"SoundDuration":282965,"Delta":94435910},{"NoteNumber":62,"Velocity":56,"Duration":70741,"SoundDuration":70741,"Delta":94435910},{"NoteNumber":59,"Velocity":44,"Duration":70741,"SoundDuration":70741,"Delta":94435910},{"NoteNumber":54,"Velocity":44,"Duration":70741,"SoundDuration":70741,"Delta":94435910},{"NoteNumber":54,"Velocity":42,"Duration":70741,"SoundDuration":70741,"Delta":94577393},{"NoteNumber":59,"Velocity":42,"Duration":70741,"SoundDuration":70741,"Delta":94577393},{"NoteNumber":62,"Velocity":54,"Duration":70741,"SoundDuration":70741,"Delta":94577393},{"NoteNumber":76,"Velocity":68,"Duration":291516,"SoundDuration":291516,"Delta":94718876},{"NoteNumber":43,"Velocity":60,"Duration":72879,"SoundDuration":72879,"Delta":94718876},{"NoteNumber":64,"Velocity":44,"Duration":72879,"SoundDuration":72879,"Delta":94864634},{"NoteNumber":59,"Velocity":35,"Duration":72879,"SoundDuration":72879,"Delta":94864634},{"NoteNumber":55,"Velocity":35,"Duration":72879,"SoundDuration":72879,"Delta":94864634},{"NoteNumber":70,"Velocity":59,"Duration":291516,"SoundDuration":291516,"Delta":95010393},{"NoteNumber":55,"Velocity":39,"Duration":72879,"SoundDuration":72879,"Delta":95010393},{"NoteNumber":59,"Velocity":39,"Duration":72879,"SoundDuration":72879,"Delta":95010393},{"NoteNumber":64,"Velocity":49,"Duration":72879,"SoundDuration":72879,"Delta":95010393},{"NoteNumber":55,"Velocity":37,"Duration":72879,"SoundDuration":72879,"Delta":95156151},{"NoteNumber":59,"Velocity":37,"Duration":72879,"SoundDuration":72879,"Delta":95156151},{"NoteNumber":64,"Velocity":46,"Duration":72879,"SoundDuration":72879,"Delta":95156151},{"NoteNumber":71,"Velocity":63,"Duration":306066,"SoundDuration":306066,"Delta":95301910},{"NoteNumber":55,"Velocity":41,"Duration":72879,"SoundDuration":72879,"Delta":95301910},{"NoteNumber":59,"Velocity":41,"Duration":72879,"SoundDuration":72879,"Delta":95301910},{"NoteNumber":64,"Velocity":51,"Duration":72879,"SoundDuration":72879,"Delta":95301910},{"NoteNumber":55,"Velocity":46,"Duration":80153,"SoundDuration":80153,"Delta":95447668},{"NoteNumber":59,"Velocity":46,"Duration":80153,"SoundDuration":80153,"Delta":95447668},{"NoteNumber":64,"Velocity":59,"Duration":80153,"SoundDuration":80153,"Delta":95447668},{"NoteNumber":73,"Velocity":72,"Duration":574351,"SoundDuration":574351,"Delta":95607976},{"NoteNumber":42,"Velocity":65,"Duration":73156,"SoundDuration":73156,"Delta":95607976},{"NoteNumber":64,"Velocity":54,"Duration":72422,"SoundDuration":72422,"Delta":95753921},{"NoteNumber":58,"Velocity":43,"Duration":72422,"SoundDuration":72422,"Delta":95753921},{"NoteNumber":54,"Velocity":43,"Duration":72422,"SoundDuration":72422,"Delta":95753921},{"NoteNumber":64,"Velocity":59,"Duration":71613,"SoundDuration":71613,"Delta":95898313},{"NoteNumber":58,"Velocity":46,"Duration":71613,"SoundDuration":71613,"Delta":95898313},{"NoteNumber":54,"Velocity":46,"Duration":71613,"SoundDuration":71613,"Delta":95898313},{"NoteNumber":64,"Velocity":63,"Duration":70828,"SoundDuration":70828,"Delta":96041103},{"NoteNumber":58,"Velocity":50,"Duration":70828,"SoundDuration":70828,"Delta":96041103},{"NoteNumber":54,"Velocity":50,"Duration":70828,"SoundDuration":70828,"Delta":96041103},{"NoteNumber":66,"Velocity":61,"Duration":236076,"SoundDuration":236076,"Delta":96182327},{"NoteNumber":64,"Velocity":46,"Duration":76343,"SoundDuration":76343,"Delta":96182327},{"NoteNumber":61,"Velocity":36,"Duration":76343,"SoundDuration":76343,"Delta":96182327},{"NoteNumber":54,"Velocity":36,"Duration":76343,"SoundDuration":76343,"Delta":96182327},{"NoteNumber":54,"Velocity":34,"Duration":83388,"SoundDuration":83388,"Delta":96335015},{"NoteNumber":61,"Velocity":34,"Duration":83388,"SoundDuration":83388,"Delta":96335015},{"NoteNumber":64,"Velocity":43,"Duration":83388,"SoundDuration":83388,"Delta":96335015},{"NoteNumber":66,"Velocity":64,"Duration":293859,"SoundDuration":293859,"Delta":96501792},{"NoteNumber":46,"Velocity":46,"Duration":73623,"SoundDuration":73623,"Delta":96501792},{"NoteNumber":54,"Velocity":37,"Duration":73623,"SoundDuration":73623,"Delta":96649039},{"NoteNumber":61,"Velocity":37,"Duration":73623,"SoundDuration":73623,"Delta":96649039},{"NoteNumber":64,"Velocity":49,"Duration":73623,"SoundDuration":73623,"Delta":96649039},{"NoteNumber":68,"Velocity":66,"Duration":70536,"SoundDuration":70536,"Delta":96795652},{"NoteNumber":54,"Velocity":42,"Duration":70536,"SoundDuration":70536,"Delta":96795652},{"NoteNumber":61,"Velocity":42,"Duration":70536,"SoundDuration":70536,"Delta":96795652},{"NoteNumber":64,"Velocity":54,"Duration":70536,"SoundDuration":70536,"Delta":96795652},{"NoteNumber":70,"Velocity":67,"Duration":69805,"SoundDuration":69805,"Delta":96936334},{"NoteNumber":54,"Velocity":44,"Duration":69805,"SoundDuration":69805,"Delta":96936334},{"NoteNumber":61,"Velocity":44,"Duration":69805,"SoundDuration":69805,"Delta":96936334},{"NoteNumber":64,"Velocity":57,"Duration":69805,"SoundDuration":69805,"Delta":96936334},{"NoteNumber":71,"Velocity":72,"Duration":69053,"SoundDuration":69053,"Delta":97075525},{"NoteNumber":54,"Velocity":48,"Duration":69053,"SoundDuration":69053,"Delta":97075525},{"NoteNumber":61,"Velocity":48,"Duration":69053,"SoundDuration":69053,"Delta":97075525},{"NoteNumber":64,"Velocity":60,"Duration":69053,"SoundDuration":69053,"Delta":97075525},{"NoteNumber":73,"Velocity":75,"Duration":79272,"SoundDuration":79272,"Delta":97213229},{"NoteNumber":54,"Velocity":52,"Duration":79272,"SoundDuration":79272,"Delta":97213229},{"NoteNumber":61,"Velocity":52,"Duration":79272,"SoundDuration":79272,"Delta":97213229},{"NoteNumber":64,"Velocity":65,"Duration":79272,"SoundDuration":79272,"Delta":97213229},{"NoteNumber":74,"Velocity":85,"Duration":294493,"SoundDuration":294493,"Delta":97371774},{"NoteNumber":47,"Velocity":69,"Duration":73623,"SoundDuration":73623,"Delta":97371774},{"NoteNumber":62,"Velocity":49,"Duration":73623,"SoundDuration":73623,"Delta":97519021},{"NoteNumber":59,"Velocity":39,"Duration":73623,"SoundDuration":73623,"Delta":97519021},{"NoteNumber":54,"Velocity":39,"Duration":73623,"SoundDuration":73623,"Delta":97519021},{"NoteNumber":70,"Velocity":72,"Duration":282965,"SoundDuration":282965,"Delta":97666267},{"NoteNumber":54,"Velocity":47,"Duration":70741,"SoundDuration":70741,"Delta":97666267},{"NoteNumber":59,"Velocity":47,"Duration":70741,"SoundDuration":70741,"Delta":97666267},{"NoteNumber":62,"Velocity":59,"Duration":70741,"SoundDuration":70741,"Delta":97666267},{"NoteNumber":54,"Velocity":44,"Duration":70741,"SoundDuration":70741,"Delta":97807750},{"NoteNumber":59,"Velocity":44,"Duration":70741,"SoundDuration":70741,"Delta":97807750},{"NoteNumber":62,"Velocity":56,"Duration":70741,"SoundDuration":70741,"Delta":97807750},{"NoteNumber":71,"Velocity":73,"Duration":282965,"SoundDuration":282965,"Delta":97949233},{"NoteNumber":62,"Velocity":64,"Duration":70741,"SoundDuration":70741,"Delta":97949233},{"NoteNumber":59,"Velocity":50,"Duration":70741,"SoundDuration":70741,"Delta":97949233},{"NoteNumber":54,"Velocity":50,"Duration":70741,"SoundDuration":70741,"Delta":97949233},{"NoteNumber":54,"Velocity":48,"Duration":70741,"SoundDuration":70741,"Delta":98090716},{"NoteNumber":59,"Velocity":48,"Duration":70741,"SoundDuration":70741,"Delta":98090716},{"NoteNumber":62,"Velocity":62,"Duration":70741,"SoundDuration":70741,"Delta":98090716},{"NoteNumber":76,"Velocity":87,"Duration":291516,"SoundDuration":291516,"Delta":98232198},{"NoteNumber":43,"Velocity":77,"Duration":72879,"SoundDuration":72879,"Delta":98232198},{"NoteNumber":64,"Velocity":56,"Duration":72879,"SoundDuration":72879,"Delta":98377957},{"NoteNumber":59,"Velocity":44,"Duration":72879,"SoundDuration":72879,"Delta":98377957},{"NoteNumber":55,"Velocity":44,"Duration":72879,"SoundDuration":72879,"Delta":98377957},{"NoteNumber":70,"Velocity":75,"Duration":291516,"SoundDuration":291516,"Delta":98523715},{"NoteNumber":55,"Velocity":50,"Duration":72879,"SoundDuration":72879,"Delta":98523715},{"NoteNumber":59,"Velocity":50,"Duration":72879,"SoundDuration":72879,"Delta":98523715},{"NoteNumber":64,"Velocity":63,"Duration":72879,"SoundDuration":72879,"Delta":98523715},{"NoteNumber":55,"Velocity":48,"Duration":72879,"SoundDuration":72879,"Delta":98669474},{"NoteNumber":59,"Velocity":48,"Duration":72879,"SoundDuration":72879,"Delta":98669474},{"NoteNumber":64,"Velocity":59,"Duration":72879,"SoundDuration":72879,"Delta":98669474},{"NoteNumber":71,"Velocity":81,"Duration":306066,"SoundDuration":306066,"Delta":98815232},{"NoteNumber":55,"Velocity":52,"Duration":72879,"SoundDuration":72879,"Delta":98815232},{"NoteNumber":59,"Velocity":52,"Duration":72879,"SoundDuration":72879,"Delta":98815232},{"NoteNumber":64,"Velocity":65,"Duration":72879,"SoundDuration":72879,"Delta":98815232},{"NoteNumber":55,"Velocity":59,"Duration":80153,"SoundDuration":80153,"Delta":98960991},{"NoteNumber":59,"Velocity":59,"Duration":80153,"SoundDuration":80153,"Delta":98960991},{"NoteNumber":64,"Velocity":75,"Duration":80153,"SoundDuration":80153,"Delta":98960991},{"NoteNumber":73,"Velocity":93,"Duration":574351,"SoundDuration":574351,"Delta":99121299},{"NoteNumber":42,"Velocity":83,"Duration":73156,"SoundDuration":73156,"Delta":99121299},{"NoteNumber":54,"Velocity":55,"Duration":72422,"SoundDuration":72422,"Delta":99267243},{"NoteNumber":58,"Velocity":55,"Duration":72422,"SoundDuration":72422,"Delta":99267243},{"NoteNumber":64,"Velocity":65,"Duration":72422,"SoundDuration":72422,"Delta":99267243},{"NoteNumber":54,"Velocity":61,"Duration":71613,"SoundDuration":71613,"Delta":99411636},{"NoteNumber":58,"Velocity":61,"Duration":71613,"SoundDuration":71613,"Delta":99411636},{"NoteNumber":64,"Velocity":72,"Duration":71613,"SoundDuration":71613,"Delta":99411636},{"NoteNumber":54,"Velocity":53,"Duration":70828,"SoundDuration":70828,"Delta":99554425},{"NoteNumber":58,"Velocity":53,"Duration":70828,"SoundDuration":70828,"Delta":99554425},{"NoteNumber":64,"Velocity":63,"Duration":70828,"SoundDuration":70828,"Delta":99554425},{"NoteNumber":66,"Velocity":81,"Duration":236076,"SoundDuration":236076,"Delta":99695650},{"NoteNumber":54,"Velocity":58,"Duration":76343,"SoundDuration":76343,"Delta":99695650},{"NoteNumber":58,"Velocity":69,"Duration":76343,"SoundDuration":76343,"Delta":99695650},{"NoteNumber":64,"Velocity":69,"Duration":76343,"SoundDuration":76343,"Delta":99695650},{"NoteNumber":54,"Velocity":51,"Duration":83388,"SoundDuration":83388,"Delta":99848337},{"NoteNumber":58,"Velocity":61,"Duration":83388,"SoundDuration":83388,"Delta":99848337},{"NoteNumber":64,"Velocity":61,"Duration":83388,"SoundDuration":83388,"Delta":99848337},{"NoteNumber":66,"Velocity":89,"Duration":287935,"SoundDuration":287935,"Delta":100015115},{"NoteNumber":64,"Velocity":64,"Duration":73623,"SoundDuration":73623,"Delta":100015115},{"NoteNumber":58,"Velocity":54,"Duration":73623,"SoundDuration":73623,"Delta":100015115},{"NoteNumber":54,"Velocity":54,"Duration":73623,"SoundDuration":73623,"Delta":100015115},{"NoteNumber":64,"Velocity":58,"Duration":73623,"SoundDuration":73623,"Delta":100162361},{"NoteNumber":58,"Velocity":49,"Duration":73623,"SoundDuration":73623,"Delta":100162361},{"NoteNumber":54,"Velocity":49,"Duration":73623,"SoundDuration":73623,"Delta":100162361},{"NoteNumber":68,"Velocity":84,"Duration":69072,"SoundDuration":69072,"Delta":100308975},{"NoteNumber":66,"Velocity":62,"Duration":69072,"SoundDuration":69072,"Delta":100308975},{"NoteNumber":64,"Velocity":52,"Duration":69072,"SoundDuration":69072,"Delta":100308975},{"NoteNumber":58,"Velocity":52,"Duration":69072,"SoundDuration":69072,"Delta":100308975},{"NoteNumber":54,"Velocity":52,"Duration":69072,"SoundDuration":69072,"Delta":100308975},{"NoteNumber":70,"Velocity":85,"Duration":67598,"SoundDuration":67598,"Delta":100446043},{"NoteNumber":66,"Velocity":65,"Duration":67598,"SoundDuration":67598,"Delta":100446043},{"NoteNumber":64,"Velocity":55,"Duration":67598,"SoundDuration":67598,"Delta":100446043},{"NoteNumber":58,"Velocity":55,"Duration":67598,"SoundDuration":67598,"Delta":100446043},{"NoteNumber":54,"Velocity":55,"Duration":67598,"SoundDuration":67598,"Delta":100446043},{"NoteNumber":71,"Velocity":89,"Duration":66738,"SoundDuration":66738,"Delta":100580846},{"NoteNumber":66,"Velocity":68,"Duration":66738,"SoundDuration":66738,"Delta":100580846},{"NoteNumber":64,"Velocity":57,"Duration":66738,"SoundDuration":66738,"Delta":100580846},{"NoteNumber":58,"Velocity":57,"Duration":66738,"SoundDuration":66738,"Delta":100580846},{"NoteNumber":54,"Velocity":57,"Duration":66738,"SoundDuration":66738,"Delta":100580846},{"NoteNumber":73,"Velocity":93,"Duration":79272,"SoundDuration":79272,"Delta":100713939},{"NoteNumber":66,"Velocity":72,"Duration":79272,"SoundDuration":79272,"Delta":100713939},{"NoteNumber":64,"Velocity":61,"Duration":79272,"SoundDuration":79272,"Delta":100713939},{"NoteNumber":58,"Velocity":61,"Duration":79272,"SoundDuration":79272,"Delta":100713939},{"NoteNumber":54,"Velocity":61,"Duration":79272,"SoundDuration":79272,"Delta":100713939},{"NoteNumber":66,"Velocity":82,"Duration":282965,"SoundDuration":282965,"Delta":100872484},{"NoteNumber":74,"Velocity":97,"Duration":282965,"SoundDuration":282965,"Delta":100872484},{"NoteNumber":62,"Velocity":64,"Duration":70741,"SoundDuration":70741,"Delta":101013967},{"NoteNumber":59,"Velocity":54,"Duration":70741,"SoundDuration":70741,"Delta":101013967},{"NoteNumber":64,"Velocity":65,"Duration":296003,"SoundDuration":296003,"Delta":101155450},{"NoteNumber":70,"Velocity":77,"Duration":296003,"SoundDuration":296003,"Delta":101155450},{"NoteNumber":61,"Velocity":58,"Duration":74000,"SoundDuration":74000,"Delta":101303452},{"NoteNumber":54,"Velocity":49,"Duration":74000,"SoundDuration":74000,"Delta":101303452},{"NoteNumber":62,"Velocity":72,"Duration":284360,"SoundDuration":284360,"Delta":101451454},{"NoteNumber":71,"Velocity":85,"Duration":284360,"SoundDuration":284360,"Delta":101451454},{"NoteNumber":55,"Velocity":51,"Duration":71089,"SoundDuration":71089,"Delta":101593634},{"NoteNumber":59,"Velocity":60,"Duration":71089,"SoundDuration":71089,"Delta":101593634},{"NoteNumber":60,"Velocity":73,"Duration":294493,"SoundDuration":294493,"Delta":101735814},{"NoteNumber":66,"Velocity":87,"Duration":294493,"SoundDuration":294493,"Delta":101735814},{"NoteNumber":57,"Velocity":64,"Duration":73623,"SoundDuration":73623,"Delta":101883060},{"NoteNumber":51,"Velocity":54,"Duration":73623,"SoundDuration":73623,"Delta":101883060},{"NoteNumber":59,"Velocity":65,"Duration":287164,"SoundDuration":287164,"Delta":102030307},{"NoteNumber":67,"Velocity":77,"Duration":287164,"SoundDuration":287164,"Delta":102030307},{"NoteNumber":55,"Velocity":58,"Duration":71791,"SoundDuration":71791,"Delta":102173889},{"NoteNumber":52,"Velocity":49,"Duration":71791,"SoundDuration":71791,"Delta":102173889},{"NoteNumber":60,"Velocity":72,"Duration":296003,"SoundDuration":296003,"Delta":102317471},{"NoteNumber":66,"Velocity":85,"Duration":296003,"SoundDuration":296003,"Delta":102317471},{"NoteNumber":51,"Velocity":51,"Duration":74000,"SoundDuration":74000,"Delta":102465473},{"NoteNumber":57,"Velocity":60,"Duration":74000,"SoundDuration":74000,"Delta":102465473},{"NoteNumber":59,"Velocity":73,"Duration":297530,"SoundDuration":297530,"Delta":102613475},{"NoteNumber":67,"Velocity":87,"Duration":297530,"SoundDuration":297530,"Delta":102613475},{"NoteNumber":55,"Velocity":64,"Duration":74382,"SoundDuration":74382,"Delta":102762240},{"NoteNumber":52,"Velocity":54,"Duration":74382,"SoundDuration":74382,"Delta":102762240},{"NoteNumber":65,"Velocity":74,"Duration":287164,"SoundDuration":287164,"Delta":102911005},{"NoteNumber":71,"Velocity":88,"Duration":287164,"SoundDuration":287164,"Delta":102911005},{"NoteNumber":62,"Velocity":58,"Duration":71791,"SoundDuration":71791,"Delta":103054587},{"NoteNumber":56,"Velocity":49,"Duration":71791,"SoundDuration":71791,"Delta":103054587},{"NoteNumber":64,"Velocity":72,"Duration":284360,"SoundDuration":284360,"Delta":103198169},{"NoteNumber":73,"Velocity":85,"Duration":284360,"SoundDuration":284360,"Delta":103198169},{"NoteNumber":57,"Velocity":51,"Duration":71089,"SoundDuration":71089,"Delta":103340349},{"NoteNumber":61,"Velocity":60,"Duration":71089,"SoundDuration":71089,"Delta":103340349},{"NoteNumber":62,"Velocity":73,"Duration":297530,"SoundDuration":297530,"Delta":103482529},{"NoteNumber":68,"Velocity":87,"Duration":297530,"SoundDuration":297530,"Delta":103482529},{"NoteNumber":59,"Velocity":64,"Duration":74382,"SoundDuration":74382,"Delta":103631295},{"NoteNumber":53,"Velocity":54,"Duration":74382,"SoundDuration":74382,"Delta":103631295},{"NoteNumber":61,"Velocity":65,"Duration":284360,"SoundDuration":284360,"Delta":103780060},{"NoteNumber":69,"Velocity":77,"Duration":284360,"SoundDuration":284360,"Delta":103780060},{"NoteNumber":57,"Velocity":58,"Duration":71089,"SoundDuration":71089,"Delta":103922240},{"NoteNumber":54,"Velocity":49,"Duration":71089,"SoundDuration":71089,"Delta":103922240},{"NoteNumber":62,"Velocity":72,"Duration":294493,"SoundDuration":294493,"Delta":104064420},{"NoteNumber":68,"Velocity":85,"Duration":294493,"SoundDuration":294493,"Delta":104064420},{"NoteNumber":53,"Velocity":51,"Duration":73623,"SoundDuration":73623,"Delta":104211666},{"NoteNumber":59,"Velocity":60,"Duration":73623,"SoundDuration":73623,"Delta":104211666},{"NoteNumber":61,"Velocity":73,"Duration":284360,"SoundDuration":284360,"Delta":104358913},{"NoteNumber":69,"Velocity":87,"Duration":284360,"SoundDuration":284360,"Delta":104358913},{"NoteNumber":57,"Velocity":64,"Duration":71089,"SoundDuration":71089,"Delta":104501093},{"NoteNumber":54,"Velocity":54,"Duration":71089,"SoundDuration":71089,"Delta":104501093},{"NoteNumber":71,"Velocity":74,"Duration":290784,"SoundDuration":290784,"Delta":104643273},{"NoteNumber":77,"Velocity":88,"Duration":290784,"SoundDuration":290784,"Delta":104643273},{"NoteNumber":68,"Velocity":58,"Duration":72879,"SoundDuration":72879,"Delta":104788298},{"NoteNumber":61,"Velocity":49,"Duration":72879,"SoundDuration":72879,"Delta":104788298},{"NoteNumber":69,"Velocity":72,"Duration":284360,"SoundDuration":284360,"Delta":104934057},{"NoteNumber":78,"Velocity":85,"Duration":284360,"SoundDuration":284360,"Delta":104934057},{"NoteNumber":62,"Velocity":51,"Duration":71089,"SoundDuration":71089,"Delta":105076237},{"NoteNumber":66,"Velocity":60,"Duration":71089,"SoundDuration":71089,"Delta":105076237},{"NoteNumber":67,"Velocity":73,"Duration":300601,"SoundDuration":300601,"Delta":105218417},{"NoteNumber":73,"Velocity":87,"Duration":300601,"SoundDuration":300601,"Delta":105218417},{"NoteNumber":64,"Velocity":64,"Duration":75150,"SoundDuration":75150,"Delta":105368717},{"NoteNumber":58,"Velocity":54,"Duration":75150,"SoundDuration":75150,"Delta":105368717},{"NoteNumber":66,"Velocity":65,"Duration":282965,"SoundDuration":282965,"Delta":105519018},{"NoteNumber":74,"Velocity":77,"Duration":282965,"SoundDuration":282965,"Delta":105519018},{"NoteNumber":62,"Velocity":58,"Duration":70741,"SoundDuration":70741,"Delta":105660501},{"NoteNumber":59,"Velocity":49,"Duration":70741,"SoundDuration":70741,"Delta":105660501},{"NoteNumber":67,"Velocity":72,"Duration":291516,"SoundDuration":291516,"Delta":105801983},{"NoteNumber":73,"Velocity":85,"Duration":291516,"SoundDuration":291516,"Delta":105801983},{"NoteNumber":58,"Velocity":51,"Duration":72879,"SoundDuration":72879,"Delta":105947742},{"NoteNumber":64,"Velocity":60,"Duration":72879,"SoundDuration":72879,"Delta":105947742},{"NoteNumber":66,"Velocity":73,"Duration":294493,"SoundDuration":294493,"Delta":106093500},{"NoteNumber":74,"Velocity":87,"Duration":294493,"SoundDuration":294493,"Delta":106093500},{"NoteNumber":62,"Velocity":64,"Duration":73623,"SoundDuration":73623,"Delta":106240747},{"NoteNumber":59,"Velocity":54,"Duration":73623,"SoundDuration":73623,"Delta":106240747},{"NoteNumber":58,"Velocity":74,"Duration":284360,"SoundDuration":284360,"Delta":106387993},{"NoteNumber":70,"Velocity":88,"Duration":284360,"SoundDuration":284360,"Delta":106387993},{"NoteNumber":54,"Velocity":58,"Duration":71089,"SoundDuration":71089,"Delta":106530173},{"NoteNumber":50,"Velocity":49,"Duration":71089,"SoundDuration":71089,"Delta":106530173},{"NoteNumber":59,"Velocity":72,"Duration":296003,"SoundDuration":296003,"Delta":106672353},{"NoteNumber":71,"Velocity":85,"Duration":296003,"SoundDuration":296003,"Delta":106672353},{"NoteNumber":51,"Velocity":51,"Duration":74000,"SoundDuration":74000,"Delta":106820355},{"NoteNumber":54,"Velocity":60,"Duration":74000,"SoundDuration":74000,"Delta":106820355},{"NoteNumber":61,"Velocity":73,"Duration":294493,"SoundDuration":294493,"Delta":106968357},{"NoteNumber":73,"Velocity":87,"Duration":294493,"SoundDuration":294493,"Delta":106968357},{"NoteNumber":52,"Velocity":54,"Duration":73623,"SoundDuration":73623,"Delta":107115604},{"NoteNumber":59,"Velocity":64,"Duration":73623,"SoundDuration":73623,"Delta":107115604},{"NoteNumber":55,"Velocity":54,"Duration":73623,"SoundDuration":73623,"Delta":107115604},{"NoteNumber":62,"Velocity":74,"Duration":292839,"SoundDuration":292839,"Delta":107262850},{"NoteNumber":74,"Velocity":88,"Duration":292839,"SoundDuration":292839,"Delta":107262850},{"NoteNumber":59,"Velocity":58,"Duration":73249,"SoundDuration":73249,"Delta":107409549},{"NoteNumber":54,"Velocity":49,"Duration":73249,"SoundDuration":73249,"Delta":107409549},{"NoteNumber":64,"Velocity":73,"Duration":290612,"SoundDuration":290612,"Delta":107555690},{"NoteNumber":76,"Velocity":86,"Duration":290612,"SoundDuration":290612,"Delta":107555690},{"NoteNumber":55,"Velocity":52,"Duration":72512,"SoundDuration":72512,"Delta":107701277},{"NoteNumber":59,"Velocity":61,"Duration":72512,"SoundDuration":72512,"Delta":107701277},{"NoteNumber":66,"Velocity":75,"Duration":288612,"SoundDuration":288612,"Delta":107846302},{"NoteNumber":78,"Velocity":89,"Duration":288612,"SoundDuration":288612,"Delta":107846302},{"NoteNumber":54,"Velocity":55,"Duration":72150,"SoundDuration":72150,"Delta":107990615},{"NoteNumber":62,"Velocity":65,"Duration":72150,"SoundDuration":72150,"Delta":107990615},{"NoteNumber":59,"Velocity":55,"Duration":72150,"SoundDuration":72150,"Delta":107990615},{"NoteNumber":65,"Velocity":77,"Duration":288600,"SoundDuration":288600,"Delta":108134915},{"NoteNumber":77,"Velocity":92,"Duration":288600,"SoundDuration":288600,"Delta":108134915},{"NoteNumber":59,"Velocity":52,"Duration":72150,"SoundDuration":72150,"Delta":108279215},{"NoteNumber":62,"Velocity":61,"Duration":72150,"SoundDuration":72150,"Delta":108279215},{"NoteNumber":54,"Velocity":52,"Duration":72150,"SoundDuration":72150,"Delta":108279215},{"NoteNumber":66,"Velocity":76,"Duration":288600,"SoundDuration":288600,"Delta":108423516},{"NoteNumber":78,"Velocity":90,"Duration":288600,"SoundDuration":288600,"Delta":108423516},{"NoteNumber":59,"Velocity":55,"Duration":72150,"SoundDuration":72150,"Delta":108567816},{"NoteNumber":54,"Velocity":55,"Duration":72150,"SoundDuration":72150,"Delta":108567816},{"NoteNumber":62,"Velocity":64,"Duration":72150,"SoundDuration":72150,"Delta":108567816},{"NoteNumber":67,"Velocity":79,"Duration":287225,"SoundDuration":287225,"Delta":108712116},{"NoteNumber":79,"Velocity":94,"Duration":287225,"SoundDuration":287225,"Delta":108712116},{"NoteNumber":54,"Velocity":58,"Duration":71791,"SoundDuration":71791,"Delta":108855759},{"NoteNumber":64,"Velocity":70,"Duration":71791,"SoundDuration":71791,"Delta":108855759},{"NoteNumber":58,"Velocity":58,"Duration":71791,"SoundDuration":71791,"Delta":108855759},{"NoteNumber":68,"Velocity":81,"Duration":292997,"SoundDuration":292997,"Delta":108999341},{"NoteNumber":80,"Velocity":96,"Duration":292997,"SoundDuration":292997,"Delta":108999341},{"NoteNumber":59,"Velocity":54,"Duration":73249,"SoundDuration":73249,"Delta":109145840},{"NoteNumber":64,"Velocity":64,"Duration":73249,"SoundDuration":73249,"Delta":109145840},{"NoteNumber":54,"Velocity":54,"Duration":73249,"SoundDuration":73249,"Delta":109145840},{"NoteNumber":70,"Velocity":80,"Duration":316621,"SoundDuration":316621,"Delta":109292339},{"NoteNumber":82,"Velocity":94,"Duration":316621,"SoundDuration":316621,"Delta":109292339},{"NoteNumber":61,"Velocity":57,"Duration":81967,"SoundDuration":81967,"Delta":109445026},{"NoteNumber":54,"Velocity":57,"Duration":81967,"SoundDuration":81967,"Delta":109445026},{"NoteNumber":64,"Velocity":67,"Duration":81967,"SoundDuration":81967,"Delta":109445026},{"NoteNumber":83,"Velocity":102,"Duration":1243581,"SoundDuration":1243581,"Delta":109608960},{"NoteNumber":43,"Velocity":95,"Duration":79710,"SoundDuration":79710,"Delta":109608960},{"NoteNumber":74,"Velocity":72,"Duration":75941,"SoundDuration":75941,"Delta":109768382},{"NoteNumber":71,"Velocity":72,"Duration":75941,"SoundDuration":75941,"Delta":109768382},{"NoteNumber":67,"Velocity":72,"Duration":75941,"SoundDuration":75941,"Delta":109768382},{"NoteNumber":62,"Velocity":55,"Duration":75941,"SoundDuration":75941,"Delta":109768382},{"NoteNumber":55,"Velocity":55,"Duration":75941,"SoundDuration":75941,"Delta":109768382},{"NoteNumber":74,"Velocity":77,"Duration":72879,"SoundDuration":72879,"Delta":109920265},{"NoteNumber":71,"Velocity":77,"Duration":72879,"SoundDuration":72879,"Delta":109920265},{"NoteNumber":67,"Velocity":77,"Duration":72879,"SoundDuration":72879,"Delta":109920265},{"NoteNumber":62,"Velocity":61,"Duration":72879,"SoundDuration":72879,"Delta":109920265},{"NoteNumber":55,"Velocity":61,"Duration":72879,"SoundDuration":72879,"Delta":109920265},{"NoteNumber":74,"Velocity":73,"Duration":72879,"SoundDuration":72879,"Delta":110066024},{"NoteNumber":71,"Velocity":73,"Duration":72879,"SoundDuration":72879,"Delta":110066024},{"NoteNumber":67,"Velocity":73,"Duration":72879,"SoundDuration":72879,"Delta":110066024},{"NoteNumber":62,"Velocity":65,"Duration":72879,"SoundDuration":72879,"Delta":110066024},{"NoteNumber":55,"Velocity":65,"Duration":72879,"SoundDuration":72879,"Delta":110066024},{"NoteNumber":74,"Velocity":75,"Duration":75150,"SoundDuration":75150,"Delta":110211782},{"NoteNumber":71,"Velocity":75,"Duration":75150,"SoundDuration":75150,"Delta":110211782},{"NoteNumber":67,"Velocity":84,"Duration":75150,"SoundDuration":75150,"Delta":110211782},{"NoteNumber":62,"Velocity":66,"Duration":75150,"SoundDuration":75150,"Delta":110211782},{"NoteNumber":55,"Velocity":66,"Duration":75150,"SoundDuration":75150,"Delta":110211782},{"NoteNumber":74,"Velocity":71,"Duration":77986,"SoundDuration":77986,"Delta":110362083},{"NoteNumber":71,"Velocity":71,"Duration":77986,"SoundDuration":77986,"Delta":110362083},{"NoteNumber":55,"Velocity":55,"Duration":77986,"SoundDuration":77986,"Delta":110362083},{"NoteNumber":62,"Velocity":55,"Duration":77986,"SoundDuration":77986,"Delta":110362083},{"NoteNumber":67,"Velocity":71,"Duration":77986,"SoundDuration":77986,"Delta":110362083},{"NoteNumber":67,"Velocity":68,"Duration":83621,"SoundDuration":83621,"Delta":110518057},{"NoteNumber":65,"Velocity":68,"Duration":83621,"SoundDuration":83621,"Delta":110518057},{"NoteNumber":71,"Velocity":68,"Duration":83621,"SoundDuration":83621,"Delta":110518057},{"NoteNumber":74,"Velocity":86,"Duration":83621,"SoundDuration":83621,"Delta":110518057},{"NoteNumber":62,"Velocity":68,"Duration":83621,"SoundDuration":83621,"Delta":110518057},{"NoteNumber":55,"Velocity":68,"Duration":83621,"SoundDuration":83621,"Delta":110518057},{"NoteNumber":67,"Velocity":62,"Duration":83621,"SoundDuration":83621,"Delta":110685299},{"NoteNumber":65,"Velocity":62,"Duration":83621,"SoundDuration":83621,"Delta":110685299},{"NoteNumber":71,"Velocity":62,"Duration":83621,"SoundDuration":83621,"Delta":110685299},{"NoteNumber":74,"Velocity":80,"Duration":83621,"SoundDuration":83621,"Delta":110685299},{"NoteNumber":62,"Velocity":62,"Duration":83621,"SoundDuration":83621,"Delta":110685299},{"NoteNumber":55,"Velocity":62,"Duration":83621,"SoundDuration":83621,"Delta":110685299},{"NoteNumber":81,"Velocity":95,"Duration":325415,"SoundDuration":325415,"Delta":110852542},{"NoteNumber":65,"Velocity":74,"Duration":81353,"SoundDuration":81353,"Delta":110852542},{"NoteNumber":62,"Velocity":68,"Duration":81353,"SoundDuration":81353,"Delta":110852542},{"NoteNumber":67,"Velocity":86,"Duration":81353,"SoundDuration":81353,"Delta":110852542},{"NoteNumber":55,"Velocity":68,"Duration":81353,"SoundDuration":81353,"Delta":110852542},{"NoteNumber":65,"Velocity":69,"Duration":81353,"SoundDuration":81353,"Delta":111015250},{"NoteNumber":67,"Velocity":69,"Duration":81353,"SoundDuration":81353,"Delta":111015250},{"NoteNumber":71,"Velocity":69,"Duration":81353,"SoundDuration":81353,"Delta":111015250},{"NoteNumber":74,"Velocity":79,"Duration":81353,"SoundDuration":81353,"Delta":111015250},{"NoteNumber":55,"Velocity":69,"Duration":81353,"SoundDuration":81353,"Delta":111015250},{"NoteNumber":62,"Velocity":69,"Duration":81353,"SoundDuration":81353,"Delta":111015250},{"NoteNumber":79,"Velocity":99,"Duration":319339,"SoundDuration":319339,"Delta":111177957},{"NoteNumber":65,"Velocity":74,"Duration":85353,"SoundDuration":85353,"Delta":111177957},{"NoteNumber":67,"Velocity":94,"Duration":85353,"SoundDuration":85353,"Delta":111177957},{"NoteNumber":62,"Velocity":74,"Duration":85353,"SoundDuration":85353,"Delta":111177957},{"NoteNumber":55,"Velocity":74,"Duration":85353,"SoundDuration":85353,"Delta":111177957},{"NoteNumber":65,"Velocity":62,"Duration":99088,"SoundDuration":99088,"Delta":111348664},{"NoteNumber":67,"Velocity":62,"Duration":99088,"SoundDuration":99088,"Delta":111348664},{"NoteNumber":62,"Velocity":62,"Duration":99088,"SoundDuration":99088,"Delta":111348664},{"NoteNumber":74,"Velocity":79,"Duration":99088,"SoundDuration":99088,"Delta":111348664},{"NoteNumber":55,"Velocity":62,"Duration":99088,"SoundDuration":99088,"Delta":111348664},{"NoteNumber":79,"Velocity":107,"Duration":315358,"SoundDuration":315358,"Delta":111546841},{"NoteNumber":48,"Velocity":95,"Duration":78839,"SoundDuration":78839,"Delta":111546841},{"NoteNumber":55,"Velocity":60,"Duration":78839,"SoundDuration":78839,"Delta":111704520},{"NoteNumber":67,"Velocity":60,"Duration":78839,"SoundDuration":78839,"Delta":111704520},{"NoteNumber":72,"Velocity":77,"Duration":78839,"SoundDuration":78839,"Delta":111704520},{"NoteNumber":64,"Velocity":60,"Duration":78839,"SoundDuration":78839,"Delta":111704520},{"NoteNumber":60,"Velocity":60,"Duration":78839,"SoundDuration":78839,"Delta":111704520},{"NoteNumber":76,"Velocity":95,"Duration":299042,"SoundDuration":299042,"Delta":111862199},{"NoteNumber":55,"Velocity":63,"Duration":74760,"SoundDuration":74760,"Delta":111862199},{"NoteNumber":64,"Velocity":81,"Duration":74760,"SoundDuration":74760,"Delta":111862199},{"NoteNumber":60,"Velocity":63,"Duration":74760,"SoundDuration":74760,"Delta":111862199},{"NoteNumber":55,"Velocity":66,"Duration":74760,"SoundDuration":74760,"Delta":112011720},{"NoteNumber":64,"Velocity":82,"Duration":74760,"SoundDuration":74760,"Delta":112011720},{"NoteNumber":60,"Velocity":66,"Duration":74760,"SoundDuration":74760,"Delta":112011720},{"NoteNumber":72,"Velocity":84,"Duration":308309,"SoundDuration":308309,"Delta":112161242},{"NoteNumber":55,"Velocity":64,"Duration":74000,"SoundDuration":74000,"Delta":112161242},{"NoteNumber":63,"Velocity":81,"Duration":74000,"SoundDuration":74000,"Delta":112161242},{"NoteNumber":60,"Velocity":64,"Duration":74000,"SoundDuration":74000,"Delta":112161242},{"NoteNumber":55,"Velocity":51,"Duration":80153,"SoundDuration":80153,"Delta":112309244},{"NoteNumber":60,"Velocity":51,"Duration":80153,"SoundDuration":80153,"Delta":112309244},{"NoteNumber":63,"Velocity":66,"Duration":80153,"SoundDuration":80153,"Delta":112309244},{"NoteNumber":69,"Velocity":85,"Duration":598085,"SoundDuration":598085,"Delta":112469551},{"NoteNumber":50,"Velocity":75,"Duration":74760,"SoundDuration":74760,"Delta":112469551},{"NoteNumber":62,"Velocity":49,"Duration":74760,"SoundDuration":74760,"Delta":112619073},{"NoteNumber":67,"Velocity":63,"Duration":74760,"SoundDuration":74760,"Delta":112619073},{"NoteNumber":60,"Velocity":49,"Duration":74760,"SoundDuration":74760,"Delta":112619073},{"NoteNumber":57,"Velocity":49,"Duration":74760,"SoundDuration":74760,"Delta":112619073},{"NoteNumber":57,"Velocity":53,"Duration":74760,"SoundDuration":74760,"Delta":112768594},{"NoteNumber":62,"Velocity":53,"Duration":74760,"SoundDuration":74760,"Delta":112768594},{"NoteNumber":67,"Velocity":69,"Duration":74760,"SoundDuration":74760,"Delta":112768594},{"NoteNumber":60,"Velocity":53,"Duration":74760,"SoundDuration":74760,"Delta":112768594},{"NoteNumber":57,"Velocity":58,"Duration":74760,"SoundDuration":74760,"Delta":112918116},{"NoteNumber":62,"Velocity":58,"Duration":74760,"SoundDuration":74760,"Delta":112918116},{"NoteNumber":67,"Velocity":73,"Duration":74760,"SoundDuration":74760,"Delta":112918116},{"NoteNumber":60,"Velocity":58,"Duration":74760,"SoundDuration":74760,"Delta":112918116},{"NoteNumber":74,"Velocity":85,"Duration":307200,"SoundDuration":307200,"Delta":113067637},{"NoteNumber":60,"Velocity":59,"Duration":74760,"SoundDuration":74760,"Delta":113067637},{"NoteNumber":62,"Velocity":74,"Duration":74760,"SoundDuration":74760,"Delta":113067637},{"NoteNumber":57,"Velocity":59,"Duration":74760,"SoundDuration":74760,"Delta":113067637},{"NoteNumber":62,"Velocity":49,"Duration":78839,"SoundDuration":78839,"Delta":113217159},{"NoteNumber":60,"Velocity":49,"Duration":78839,"SoundDuration":78839,"Delta":113217159},{"NoteNumber":66,"Velocity":49,"Duration":78839,"SoundDuration":78839,"Delta":113217159},{"NoteNumber":57,"Velocity":49,"Duration":78839,"SoundDuration":78839,"Delta":113217159},{"NoteNumber":69,"Velocity":62,"Duration":78839,"SoundDuration":78839,"Delta":113217159},{"NoteNumber":71,"Velocity":85,"Duration":440282,"SoundDuration":440282,"Delta":113374838},{"NoteNumber":55,"Velocity":75,"Duration":74382,"SoundDuration":74382,"Delta":113374838},{"NoteNumber":62,"Velocity":49,"Duration":72879,"SoundDuration":72879,"Delta":113523603},{"NoteNumber":67,"Velocity":63,"Duration":72879,"SoundDuration":72879,"Delta":113523603},{"NoteNumber":59,"Velocity":49,"Duration":72879,"SoundDuration":72879,"Delta":113523603},{"NoteNumber":59,"Velocity":53,"Duration":72879,"SoundDuration":72879,"Delta":113669362},{"NoteNumber":62,"Velocity":53,"Duration":72879,"SoundDuration":72879,"Delta":113669362},{"NoteNumber":67,"Velocity":69,"Duration":72879,"SoundDuration":72879,"Delta":113669362},{"NoteNumber":71,"Velocity":90,"Duration":75543,"SoundDuration":75543,"Delta":113815120},{"NoteNumber":59,"Velocity":58,"Duration":75543,"SoundDuration":75543,"Delta":113815120},{"NoteNumber":62,"Velocity":58,"Duration":75543,"SoundDuration":75543,"Delta":113815120},{"NoteNumber":67,"Velocity":73,"Duration":75543,"SoundDuration":75543,"Delta":113815120},{"NoteNumber":74,"Velocity":93,"Duration":79272,"SoundDuration":79272,"Delta":113966208},{"NoteNumber":62,"Velocity":59,"Duration":79272,"SoundDuration":79272,"Delta":113966208},{"NoteNumber":67,"Velocity":74,"Duration":79272,"SoundDuration":79272,"Delta":113966208},{"NoteNumber":59,"Velocity":59,"Duration":79272,"SoundDuration":79272,"Delta":113966208},{"NoteNumber":79,"Velocity":100,"Duration":84364,"SoundDuration":84364,"Delta":114124753},{"NoteNumber":62,"Velocity":49,"Duration":84364,"SoundDuration":84364,"Delta":114124753},{"NoteNumber":59,"Velocity":49,"Duration":84364,"SoundDuration":84364,"Delta":114124753},{"NoteNumber":67,"Velocity":62,"Duration":84364,"SoundDuration":84364,"Delta":114124753},{"NoteNumber":83,"Velocity":102,"Duration":290051,"SoundDuration":290051,"Delta":114293482},{"NoteNumber":43,"Velocity":75,"Duration":72512,"SoundDuration":72512,"Delta":114293482},{"NoteNumber":65,"Velocity":58,"Duration":72512,"SoundDuration":72512,"Delta":114438508},{"NoteNumber":55,"Velocity":58,"Duration":72512,"SoundDuration":72512,"Delta":114438508},{"NoteNumber":67,"Velocity":58,"Duration":72512,"SoundDuration":72512,"Delta":114438508},{"NoteNumber":71,"Velocity":58,"Duration":72512,"SoundDuration":72512,"Delta":114438508},{"NoteNumber":74,"Velocity":76,"Duration":72512,"SoundDuration":72512,"Delta":114438508},{"NoteNumber":62,"Velocity":58,"Duration":72512,"SoundDuration":72512,"Delta":114438508},{"NoteNumber":81,"Velocity":95,"Duration":292997,"SoundDuration":292997,"Delta":114583533},{"NoteNumber":65,"Velocity":77,"Duration":73249,"SoundDuration":73249,"Delta":114583533},{"NoteNumber":55,"Velocity":61,"Duration":73249,"SoundDuration":73249,"Delta":114583533},{"NoteNumber":62,"Velocity":61,"Duration":73249,"SoundDuration":73249,"Delta":114583533},{"NoteNumber":67,"Velocity":77,"Duration":73249,"SoundDuration":73249,"Delta":114583533},{"NoteNumber":65,"Velocity":69,"Duration":73249,"SoundDuration":73249,"Delta":114730032},{"NoteNumber":55,"Velocity":69,"Duration":73249,"SoundDuration":73249,"Delta":114730032},{"NoteNumber":67,"Velocity":69,"Duration":73249,"SoundDuration":73249,"Delta":114730032},{"NoteNumber":71,"Velocity":69,"Duration":73249,"SoundDuration":73249,"Delta":114730032},{"NoteNumber":74,"Velocity":78,"Duration":73249,"SoundDuration":73249,"Delta":114730032},{"NoteNumber":62,"Velocity":69,"Duration":73249,"SoundDuration":73249,"Delta":114730032},{"NoteNumber":79,"Velocity":99,"Duration":274834,"SoundDuration":274834,"Delta":114876531},{"NoteNumber":65,"Velocity":83,"Duration":75941,"SoundDuration":75941,"Delta":114876531},{"NoteNumber":55,"Velocity":66,"Duration":75941,"SoundDuration":75941,"Delta":114876531},{"NoteNumber":67,"Velocity":84,"Duration":75941,"SoundDuration":75941,"Delta":114876531},{"NoteNumber":62,"Velocity":66,"Duration":75941,"SoundDuration":75941,"Delta":114876531},{"NoteNumber":65,"Velocity":62,"Duration":81967,"SoundDuration":81967,"Delta":115028414},{"NoteNumber":71,"Velocity":62,"Duration":81967,"SoundDuration":81967,"Delta":115028414},{"NoteNumber":55,"Velocity":62,"Duration":81967,"SoundDuration":81967,"Delta":115028414},{"NoteNumber":67,"Velocity":62,"Duration":81967,"SoundDuration":81967,"Delta":115028414},{"NoteNumber":62,"Velocity":62,"Duration":81967,"SoundDuration":81967,"Delta":115028414},{"NoteNumber":74,"Velocity":79,"Duration":81967,"SoundDuration":81967,"Delta":115028414},{"NoteNumber":79,"Velocity":107,"Duration":288600,"SoundDuration":288600,"Delta":115192349},{"NoteNumber":48,"Velocity":95,"Duration":72150,"SoundDuration":72150,"Delta":115192349},{"NoteNumber":67,"Velocity":57,"Duration":72150,"SoundDuration":72150,"Delta":115336649},{"NoteNumber":72,"Velocity":57,"Duration":72150,"SoundDuration":72150,"Delta":115336649},{"NoteNumber":55,"Velocity":57,"Duration":72150,"SoundDuration":72150,"Delta":115336649},{"NoteNumber":64,"Velocity":57,"Duration":72150,"SoundDuration":72150,"Delta":115336649},{"NoteNumber":60,"Velocity":57,"Duration":72150,"SoundDuration":72150,"Delta":115336649},{"NoteNumber":76,"Velocity":86,"Duration":299042,"SoundDuration":299042,"Delta":115480949},{"NoteNumber":55,"Velocity":57,"Duration":74760,"SoundDuration":74760,"Delta":115480949},{"NoteNumber":64,"Velocity":73,"Duration":74760,"SoundDuration":74760,"Delta":115480949},{"NoteNumber":60,"Velocity":57,"Duration":74760,"SoundDuration":74760,"Delta":115480949},{"NoteNumber":55,"Velocity":56,"Duration":74760,"SoundDuration":74760,"Delta":115630471},{"NoteNumber":64,"Velocity":70,"Duration":74760,"SoundDuration":74760,"Delta":115630471},{"NoteNumber":60,"Velocity":56,"Duration":74760,"SoundDuration":74760,"Delta":115630471},{"NoteNumber":72,"Velocity":68,"Duration":308309,"SoundDuration":308309,"Delta":115779992},{"NoteNumber":55,"Velocity":53,"Duration":74000,"SoundDuration":74000,"Delta":115779992},{"NoteNumber":64,"Velocity":66,"Duration":74000,"SoundDuration":74000,"Delta":115779992},{"NoteNumber":60,"Velocity":53,"Duration":74000,"SoundDuration":74000,"Delta":115779992},{"NoteNumber":55,"Velocity":39,"Duration":80153,"SoundDuration":80153,"Delta":115927994},{"NoteNumber":60,"Velocity":39,"Duration":80153,"SoundDuration":80153,"Delta":115927994},{"NoteNumber":64,"Velocity":51,"Duration":80153,"SoundDuration":80153,"Delta":115927994},{"NoteNumber":69,"Velocity":62,"Duration":589017,"SoundDuration":589017,"Delta":116088302},{"NoteNumber":48,"Velocity":55,"Duration":1478588,"SoundDuration":1478588,"Delta":116088302},{"NoteNumber":60,"Velocity":44,"Duration":73249,"SoundDuration":73249,"Delta":116237823},{"NoteNumber":65,"Velocity":44,"Duration":73249,"SoundDuration":73249,"Delta":116237823},{"NoteNumber":60,"Velocity":44,"Duration":73249,"SoundDuration":73249,"Delta":116384322},{"NoteNumber":65,"Velocity":59,"Duration":73249,"SoundDuration":73249,"Delta":116384322},{"NoteNumber":57,"Velocity":50,"Duration":292997,"SoundDuration":292997,"Delta":116384322},{"NoteNumber":60,"Velocity":44,"Duration":73249,"SoundDuration":73249,"Delta":116530821},{"NoteNumber":65,"Velocity":44,"Duration":73249,"SoundDuration":73249,"Delta":116530821},{"NoteNumber":72,"Velocity":62,"Duration":297530,"SoundDuration":297530,"Delta":116677320},{"NoteNumber":56,"Velocity":54,"Duration":297530,"SoundDuration":297530,"Delta":116677320},{"NoteNumber":60,"Velocity":44,"Duration":74382,"SoundDuration":74382,"Delta":116826085},{"NoteNumber":65,"Velocity":44,"Duration":74382,"SoundDuration":74382,"Delta":116826085},{"NoteNumber":67,"Velocity":62,"Duration":592040,"SoundDuration":592040,"Delta":116974850},{"NoteNumber":55,"Velocity":54,"Duration":592040,"SoundDuration":592040,"Delta":116974850},{"NoteNumber":60,"Velocity":44,"Duration":74760,"SoundDuration":74760,"Delta":117124372},{"NoteNumber":64,"Velocity":44,"Duration":74760,"SoundDuration":74760,"Delta":117124372},{"NoteNumber":60,"Velocity":44,"Duration":73249,"SoundDuration":73249,"Delta":117273893},{"NoteNumber":64,"Velocity":59,"Duration":73249,"SoundDuration":73249,"Delta":117273893},{"NoteNumber":60,"Velocity":44,"Duration":73249,"SoundDuration":73249,"Delta":117420392},{"NoteNumber":64,"Velocity":44,"Duration":73249,"SoundDuration":73249,"Delta":117420392},{"NoteNumber":72,"Velocity":52,"Duration":302175,"SoundDuration":302175,"Delta":117566891},{"NoteNumber":60,"Velocity":37,"Duration":75543,"SoundDuration":75543,"Delta":117717978},{"NoteNumber":64,"Velocity":37,"Duration":75543,"SoundDuration":75543,"Delta":117717978},{"NoteNumber":69,"Velocity":52,"Duration":589017,"SoundDuration":589017,"Delta":117869066},{"NoteNumber":53,"Velocity":46,"Duration":891193,"SoundDuration":891193,"Delta":117869066},{"NoteNumber":48,"Velocity":46,"Duration":1780103,"SoundDuration":1780103,"Delta":117869066},{"NoteNumber":60,"Velocity":37,"Duration":73249,"SoundDuration":73249,"Delta":118018588},{"NoteNumber":65,"Velocity":37,"Duration":73249,"SoundDuration":73249,"Delta":118018588},{"NoteNumber":60,"Velocity":37,"Duration":73249,"SoundDuration":73249,"Delta":118165086},{"NoteNumber":65,"Velocity":50,"Duration":73249,"SoundDuration":73249,"Delta":118165086},{"NoteNumber":57,"Velocity":42,"Duration":292997,"SoundDuration":292997,"Delta":118165086},{"NoteNumber":60,"Velocity":37,"Duration":73249,"SoundDuration":73249,"Delta":118311585},{"NoteNumber":65,"Velocity":37,"Duration":73249,"SoundDuration":73249,"Delta":118311585},{"NoteNumber":72,"Velocity":52,"Duration":302175,"SoundDuration":302175,"Delta":118458084},{"NoteNumber":56,"Velocity":45,"Duration":302175,"SoundDuration":302175,"Delta":118458084},{"NoteNumber":60,"Velocity":37,"Duration":75543,"SoundDuration":75543,"Delta":118609172},{"NoteNumber":65,"Velocity":37,"Duration":75543,"SoundDuration":75543,"Delta":118609172},{"NoteNumber":67,"Velocity":52,"Duration":588261,"SoundDuration":588261,"Delta":118760259},{"NoteNumber":52,"Velocity":46,"Duration":888909,"SoundDuration":888909,"Delta":118760259},{"NoteNumber":55,"Velocity":46,"Duration":888909,"SoundDuration":888909,"Delta":118760259},{"NoteNumber":60,"Velocity":31,"Duration":73249,"SoundDuration":73249,"Delta":118909025},{"NoteNumber":64,"Velocity":37,"Duration":73249,"SoundDuration":73249,"Delta":118909025},{"NoteNumber":60,"Velocity":32,"Duration":73249,"SoundDuration":73249,"Delta":119055523},{"NoteNumber":64,"Velocity":51,"Duration":73249,"SoundDuration":73249,"Delta":119055523},{"NoteNumber":60,"Velocity":33,"Duration":73249,"SoundDuration":73249,"Delta":119202022},{"NoteNumber":64,"Velocity":39,"Duration":73249,"SoundDuration":73249,"Delta":119202022},{"NoteNumber":60,"Velocity":46,"Duration":74382,"SoundDuration":74382,"Delta":119348521},{"NoteNumber":64,"Velocity":55,"Duration":74382,"SoundDuration":74382,"Delta":119348521},{"NoteNumber":60,"Velocity":34,"Duration":75941,"SoundDuration":75941,"Delta":119497286},{"NoteNumber":64,"Velocity":41,"Duration":75941,"SoundDuration":75941,"Delta":119497286},{"NoteNumber":64,"Velocity":43,"Duration":75150,"SoundDuration":75150,"Delta":119649169},{"NoteNumber":60,"Velocity":35,"Duration":75150,"SoundDuration":75150,"Delta":119649169},{"NoteNumber":60,"Velocity":37,"Duration":74001,"SoundDuration":74001,"Delta":119798646},{"NoteNumber":64,"Velocity":44,"Duration":74001,"SoundDuration":74001,"Delta":119798646},{"NoteNumber":60,"Velocity":38,"Duration":73448,"SoundDuration":73448,"Delta":119946283},{"NoteNumber":64,"Velocity":45,"Duration":73448,"SoundDuration":73448,"Delta":119946283},{"NoteNumber":60,"Velocity":39,"Duration":72891,"SoundDuration":72891,"Delta":120092981},{"NoteNumber":64,"Velocity":46,"Duration":72891,"SoundDuration":72891,"Delta":120092981},{"NoteNumber":72,"Velocity":57,"Duration":302175,"SoundDuration":302175,"Delta":120238752},{"NoteNumber":64,"Velocity":40,"Duration":75543,"SoundDuration":75543,"Delta":120389840},{"NoteNumber":67,"Velocity":40,"Duration":75543,"SoundDuration":75543,"Delta":120389840},{"NoteNumber":71,"Velocity":63,"Duration":590584,"SoundDuration":590584,"Delta":120540928},{"NoteNumber":63,"Velocity":34,"Duration":73249,"SoundDuration":73249,"Delta":120692015},{"NoteNumber":66,"Velocity":40,"Duration":73249,"SoundDuration":73249,"Delta":120692015},{"NoteNumber":39,"Velocity":54,"Duration":292997,"SoundDuration":292997,"Delta":120838514},{"NoteNumber":51,"Velocity":57,"Duration":292997,"SoundDuration":292997,"Delta":120838514},{"NoteNumber":63,"Velocity":35,"Duration":73249,"SoundDuration":73249,"Delta":120838514},{"NoteNumber":66,"Velocity":56,"Duration":73249,"SoundDuration":73249,"Delta":120838514},{"NoteNumber":63,"Velocity":36,"Duration":73249,"SoundDuration":73249,"Delta":120985013},{"NoteNumber":66,"Velocity":42,"Duration":73249,"SoundDuration":73249,"Delta":120985013},{"NoteNumber":69,"Velocity":57,"Duration":312190,"SoundDuration":312190,"Delta":121131512},{"NoteNumber":60,"Velocity":37,"Duration":80153,"SoundDuration":80153,"Delta":121283395},{"NoteNumber":66,"Velocity":45,"Duration":80153,"SoundDuration":80153,"Delta":121283395},{"NoteNumber":68,"Velocity":62,"Duration":586040,"SoundDuration":586040,"Delta":121443703},{"NoteNumber":59,"Velocity":34,"Duration":72879,"SoundDuration":72879,"Delta":121592468},{"NoteNumber":64,"Velocity":40,"Duration":72879,"SoundDuration":72879,"Delta":121592468},{"NoteNumber":59,"Velocity":35,"Duration":72879,"SoundDuration":72879,"Delta":121738226},{"NoteNumber":64,"Velocity":56,"Duration":72879,"SoundDuration":72879,"Delta":121738226},{"NoteNumber":40,"Velocity":54,"Duration":291516,"SoundDuration":291516,"Delta":121738226},{"NoteNumber":52,"Velocity":57,"Duration":291516,"SoundDuration":291516,"Delta":121738226},{"NoteNumber":59,"Velocity":36,"Duration":72879,"SoundDuration":72879,"Delta":121883985},{"NoteNumber":64,"Velocity":42,"Duration":72879,"SoundDuration":72879,"Delta":121883985},{"NoteNumber":67,"Velocity":57,"Duration":300601,"SoundDuration":300601,"Delta":122029743},{"NoteNumber":59,"Velocity":37,"Duration":75150,"SoundDuration":75150,"Delta":122180044},{"NoteNumber":64,"Velocity":45,"Duration":75150,"SoundDuration":75150,"Delta":122180044},{"NoteNumber":66,"Velocity":62,"Duration":296768,"SoundDuration":296768,"Delta":122330344},{"NoteNumber":58,"Velocity":37,"Duration":73623,"SoundDuration":73623,"Delta":122479866},{"NoteNumber":61,"Velocity":45,"Duration":73623,"SoundDuration":73623,"Delta":122479866},{"NoteNumber":70,"Velocity":67,"Duration":294493,"SoundDuration":294493,"Delta":122627112},{"NoteNumber":42,"Velocity":60,"Duration":294493,"SoundDuration":294493,"Delta":122627112},{"NoteNumber":54,"Velocity":65,"Duration":294493,"SoundDuration":294493,"Delta":122627112},{"NoteNumber":64,"Velocity":49,"Duration":73623,"SoundDuration":73623,"Delta":122774359},{"NoteNumber":61,"Velocity":41,"Duration":73623,"SoundDuration":73623,"Delta":122774359},{"NoteNumber":73,"Velocity":70,"Duration":305451,"SoundDuration":305451,"Delta":122921605},{"NoteNumber":64,"Velocity":45,"Duration":77575,"SoundDuration":77575,"Delta":123071906},{"NoteNumber":67,"Velocity":55,"Duration":77575,"SoundDuration":77575,"Delta":123071906},{"NoteNumber":76,"Velocity":84,"Duration":295264,"SoundDuration":295264,"Delta":123227057},{"NoteNumber":67,"Velocity":42,"Duration":73249,"SoundDuration":73249,"Delta":123375822},{"NoteNumber":70,"Velocity":50,"Duration":73249,"SoundDuration":73249,"Delta":123375822},{"NoteNumber":75,"Velocity":77,"Duration":292997,"SoundDuration":292997,"Delta":123522321},{"NoteNumber":47,"Velocity":73,"Duration":292997,"SoundDuration":292997,"Delta":123522321},{"NoteNumber":35,"Velocity":69,"Duration":292997,"SoundDuration":292997,"Delta":123522321},{"NoteNumber":66,"Velocity":47,"Duration":73249,"SoundDuration":73249,"Delta":123668820},{"NoteNumber":71,"Velocity":56,"Duration":73249,"SoundDuration":73249,"Delta":123668820},{"NoteNumber":72,"Velocity":70,"Duration":302472,"SoundDuration":302472,"Delta":123815318},{"NoteNumber":64,"Velocity":50,"Duration":77986,"SoundDuration":77986,"Delta":123961817},{"NoteNumber":67,"Velocity":61,"Duration":77986,"SoundDuration":77986,"Delta":123961817},{"NoteNumber":71,"Velocity":73,"Duration":590584,"SoundDuration":590584,"Delta":124117791},{"NoteNumber":63,"Velocity":34,"Duration":73249,"SoundDuration":73249,"Delta":124268879},{"NoteNumber":66,"Velocity":40,"Duration":73249,"SoundDuration":73249,"Delta":124268879},{"NoteNumber":39,"Velocity":54,"Duration":292997,"SoundDuration":292997,"Delta":124415377},{"NoteNumber":51,"Velocity":57,"Duration":292997,"SoundDuration":292997,"Delta":124415377},{"NoteNumber":63,"Velocity":35,"Duration":73249,"SoundDuration":73249,"Delta":124415377},{"NoteNumber":66,"Velocity":56,"Duration":73249,"SoundDuration":73249,"Delta":124415377},{"NoteNumber":63,"Velocity":36,"Duration":73249,"SoundDuration":73249,"Delta":124561876},{"NoteNumber":66,"Velocity":42,"Duration":73249,"SoundDuration":73249,"Delta":124561876},{"NoteNumber":69,"Velocity":66,"Duration":312190,"SoundDuration":312190,"Delta":124708375},{"NoteNumber":60,"Velocity":37,"Duration":80153,"SoundDuration":80153,"Delta":124860258},{"NoteNumber":66,"Velocity":45,"Duration":80153,"SoundDuration":80153,"Delta":124860258},{"NoteNumber":68,"Velocity":61,"Duration":586040,"SoundDuration":586040,"Delta":125020566},{"NoteNumber":59,"Velocity":34,"Duration":72879,"SoundDuration":72879,"Delta":125169331},{"NoteNumber":64,"Velocity":40,"Duration":72879,"SoundDuration":72879,"Delta":125169331},{"NoteNumber":59,"Velocity":35,"Duration":72879,"SoundDuration":72879,"Delta":125315090},{"NoteNumber":64,"Velocity":56,"Duration":72879,"SoundDuration":72879,"Delta":125315090},{"NoteNumber":40,"Velocity":54,"Duration":291516,"SoundDuration":291516,"Delta":125315090},{"NoteNumber":52,"Velocity":57,"Duration":291516,"SoundDuration":291516,"Delta":125315090},{"NoteNumber":59,"Velocity":36,"Duration":72879,"SoundDuration":72879,"Delta":125460848},{"NoteNumber":64,"Velocity":42,"Duration":72879,"SoundDuration":72879,"Delta":125460848},{"NoteNumber":67,"Velocity":61,"Duration":300601,"SoundDuration":300601,"Delta":125606607},{"NoteNumber":59,"Velocity":37,"Duration":75150,"SoundDuration":75150,"Delta":125756907},{"NoteNumber":64,"Velocity":45,"Duration":75150,"SoundDuration":75150,"Delta":125756907},{"NoteNumber":66,"Velocity":62,"Duration":296768,"SoundDuration":296768,"Delta":125907208},{"NoteNumber":58,"Velocity":37,"Duration":73623,"SoundDuration":73623,"Delta":126056729},{"NoteNumber":61,"Velocity":45,"Duration":73623,"SoundDuration":73623,"Delta":126056729},{"NoteNumber":70,"Velocity":67,"Duration":294493,"SoundDuration":294493,"Delta":126203976},{"NoteNumber":42,"Velocity":60,"Duration":294493,"SoundDuration":294493,"Delta":126203976},{"NoteNumber":54,"Velocity":65,"Duration":294493,"SoundDuration":294493,"Delta":126203976},{"NoteNumber":64,"Velocity":49,"Duration":73623,"SoundDuration":73623,"Delta":126351222},{"NoteNumber":61,"Velocity":41,"Duration":73623,"SoundDuration":73623,"Delta":126351222},{"NoteNumber":73,"Velocity":70,"Duration":305451,"SoundDuration":305451,"Delta":126498469},{"NoteNumber":64,"Velocity":45,"Duration":77575,"SoundDuration":77575,"Delta":126648769},{"NoteNumber":67,"Velocity":55,"Duration":77575,"SoundDuration":77575,"Delta":126648769},{"NoteNumber":76,"Velocity":85,"Duration":295264,"SoundDuration":295264,"Delta":126803920},{"NoteNumber":67,"Velocity":42,"Duration":73249,"SoundDuration":73249,"Delta":126952685},{"NoteNumber":70,"Velocity":50,"Duration":73249,"SoundDuration":73249,"Delta":126952685},{"NoteNumber":75,"Velocity":77,"Duration":292997,"SoundDuration":292997,"Delta":127099184},{"NoteNumber":47,"Velocity":73,"Duration":292997,"SoundDuration":292997,"Delta":127099184},{"NoteNumber":35,"Velocity":69,"Duration":292997,"SoundDuration":292997,"Delta":127099184},{"NoteNumber":66,"Velocity":47,"Duration":73249,"SoundDuration":73249,"Delta":127245683},{"NoteNumber":71,"Velocity":56,"Duration":73249,"SoundDuration":73249,"Delta":127245683},{"NoteNumber":72,"Velocity":73,"Duration":302472,"SoundDuration":302472,"Delta":127392182},{"NoteNumber":64,"Velocity":50,"Duration":77986,"SoundDuration":77986,"Delta":127538680},{"NoteNumber":67,"Velocity":61,"Duration":77986,"SoundDuration":77986,"Delta":127538680},{"NoteNumber":71,"Velocity":85,"Duration":1238204,"SoundDuration":1238204,"Delta":127694654},{"NoteNumber":66,"Velocity":61,"Duration":75543,"SoundDuration":75543,"Delta":127850628},{"NoteNumber":59,"Velocity":48,"Duration":75543,"SoundDuration":75543,"Delta":127850628},{"NoteNumber":57,"Velocity":48,"Duration":75543,"SoundDuration":75543,"Delta":127850628},{"NoteNumber":54,"Velocity":48,"Duration":75543,"SoundDuration":75543,"Delta":127850628},{"NoteNumber":51,"Velocity":48,"Duration":75543,"SoundDuration":75543,"Delta":127850628},{"NoteNumber":69,"Velocity":61,"Duration":75543,"SoundDuration":75543,"Delta":127850628},{"NoteNumber":51,"Velocity":42,"Duration":74001,"SoundDuration":74001,"Delta":128001716},{"NoteNumber":54,"Velocity":42,"Duration":74001,"SoundDuration":74001,"Delta":128001716},{"NoteNumber":57,"Velocity":42,"Duration":74001,"SoundDuration":74001,"Delta":128001716},{"NoteNumber":59,"Velocity":42,"Duration":74001,"SoundDuration":74001,"Delta":128001716},{"NoteNumber":66,"Velocity":69,"Duration":74001,"SoundDuration":74001,"Delta":128001716},{"NoteNumber":69,"Velocity":69,"Duration":74001,"SoundDuration":74001,"Delta":128001716},{"NoteNumber":69,"Velocity":65,"Duration":74001,"SoundDuration":74001,"Delta":128149718},{"NoteNumber":66,"Velocity":65,"Duration":74001,"SoundDuration":74001,"Delta":128149718},{"NoteNumber":59,"Velocity":51,"Duration":74001,"SoundDuration":74001,"Delta":128149718},{"NoteNumber":57,"Velocity":51,"Duration":74001,"SoundDuration":74001,"Delta":128149718},{"NoteNumber":54,"Velocity":51,"Duration":74001,"SoundDuration":74001,"Delta":128149718},{"NoteNumber":51,"Velocity":51,"Duration":74001,"SoundDuration":74001,"Delta":128149718},{"NoteNumber":51,"Velocity":46,"Duration":75150,"SoundDuration":75150,"Delta":128297720},{"NoteNumber":54,"Velocity":46,"Duration":75150,"SoundDuration":75150,"Delta":128297720},{"NoteNumber":57,"Velocity":46,"Duration":75150,"SoundDuration":75150,"Delta":128297720},{"NoteNumber":59,"Velocity":46,"Duration":75150,"SoundDuration":75150,"Delta":128297720},{"NoteNumber":66,"Velocity":75,"Duration":75150,"SoundDuration":75150,"Delta":128297720},{"NoteNumber":69,"Velocity":75,"Duration":75150,"SoundDuration":75150,"Delta":128297720},{"NoteNumber":69,"Velocity":70,"Duration":83873,"SoundDuration":83873,"Delta":128448020},{"NoteNumber":66,"Velocity":70,"Duration":83873,"SoundDuration":83873,"Delta":128448020},{"NoteNumber":59,"Velocity":56,"Duration":83873,"SoundDuration":83873,"Delta":128448020},{"NoteNumber":57,"Velocity":56,"Duration":83873,"SoundDuration":83873,"Delta":128448020},{"NoteNumber":54,"Velocity":56,"Duration":83873,"SoundDuration":83873,"Delta":128448020},{"NoteNumber":51,"Velocity":56,"Duration":83873,"SoundDuration":83873,"Delta":128448020},{"NoteNumber":51,"Velocity":49,"Duration":317091,"SoundDuration":317091,"Delta":128615768},{"NoteNumber":54,"Velocity":49,"Duration":317091,"SoundDuration":317091,"Delta":128615768},{"NoteNumber":57,"Velocity":49,"Duration":317091,"SoundDuration":317091,"Delta":128615768},{"NoteNumber":59,"Velocity":49,"Duration":634182,"SoundDuration":634182,"Delta":128615768},{"NoteNumber":66,"Velocity":80,"Duration":317091,"SoundDuration":317091,"Delta":128615768},{"NoteNumber":69,"Velocity":80,"Duration":317091,"SoundDuration":317091,"Delta":128615768},{"NoteNumber":68,"Velocity":61,"Duration":317091,"SoundDuration":317091,"Delta":128932859},{"NoteNumber":64,"Velocity":61,"Duration":317091,"SoundDuration":317091,"Delta":128932859},{"NoteNumber":56,"Velocity":48,"Duration":317091,"SoundDuration":317091,"Delta":128932859},{"NoteNumber":52,"Velocity":48,"Duration":317091,"SoundDuration":317091,"Delta":128932859},{"NoteNumber":74,"Velocity":73,"Duration":317090,"SoundDuration":317090,"Delta":129249950},{"NoteNumber":73,"Velocity":85,"Duration":1238204,"SoundDuration":1238204,"Delta":129567041},{"NoteNumber":68,"Velocity":61,"Duration":75543,"SoundDuration":75543,"Delta":129723015},{"NoteNumber":61,"Velocity":48,"Duration":75543,"SoundDuration":75543,"Delta":129723015},{"NoteNumber":59,"Velocity":48,"Duration":75543,"SoundDuration":75543,"Delta":129723015},{"NoteNumber":56,"Velocity":48,"Duration":75543,"SoundDuration":75543,"Delta":129723015},{"NoteNumber":53,"Velocity":48,"Duration":75543,"SoundDuration":75543,"Delta":129723015},{"NoteNumber":71,"Velocity":61,"Duration":75543,"SoundDuration":75543,"Delta":129723015},{"NoteNumber":53,"Velocity":42,"Duration":74001,"SoundDuration":74001,"Delta":129874102},{"NoteNumber":56,"Velocity":42,"Duration":74001,"SoundDuration":74001,"Delta":129874102},{"NoteNumber":59,"Velocity":42,"Duration":74001,"SoundDuration":74001,"Delta":129874102},{"NoteNumber":61,"Velocity":42,"Duration":74001,"SoundDuration":74001,"Delta":129874102},{"NoteNumber":68,"Velocity":69,"Duration":74001,"SoundDuration":74001,"Delta":129874102},{"NoteNumber":71,"Velocity":69,"Duration":74001,"SoundDuration":74001,"Delta":129874102},{"NoteNumber":71,"Velocity":65,"Duration":74001,"SoundDuration":74001,"Delta":130022104},{"NoteNumber":68,"Velocity":65,"Duration":74001,"SoundDuration":74001,"Delta":130022104},{"NoteNumber":61,"Velocity":51,"Duration":74001,"SoundDuration":74001,"Delta":130022104},{"NoteNumber":59,"Velocity":51,"Duration":74001,"SoundDuration":74001,"Delta":130022104},{"NoteNumber":56,"Velocity":51,"Duration":74001,"SoundDuration":74001,"Delta":130022104},{"NoteNumber":53,"Velocity":51,"Duration":74001,"SoundDuration":74001,"Delta":130022104},{"NoteNumber":53,"Velocity":46,"Duration":75150,"SoundDuration":75150,"Delta":130170106},{"NoteNumber":56,"Velocity":46,"Duration":75150,"SoundDuration":75150,"Delta":130170106},{"NoteNumber":59,"Velocity":46,"Duration":75150,"SoundDuration":75150,"Delta":130170106},{"NoteNumber":61,"Velocity":46,"Duration":75150,"SoundDuration":75150,"Delta":130170106},{"NoteNumber":68,"Velocity":75,"Duration":75150,"SoundDuration":75150,"Delta":130170106},{"NoteNumber":71,"Velocity":75,"Duration":75150,"SoundDuration":75150,"Delta":130170106},{"NoteNumber":71,"Velocity":70,"Duration":83873,"SoundDuration":83873,"Delta":130320407},{"NoteNumber":68,"Velocity":70,"Duration":83873,"SoundDuration":83873,"Delta":130320407},{"NoteNumber":61,"Velocity":56,"Duration":83873,"SoundDuration":83873,"Delta":130320407},{"NoteNumber":59,"Velocity":56,"Duration":83873,"SoundDuration":83873,"Delta":130320407},{"NoteNumber":56,"Velocity":56,"Duration":83873,"SoundDuration":83873,"Delta":130320407},{"NoteNumber":53,"Velocity":56,"Duration":83873,"SoundDuration":83873,"Delta":130320407},{"NoteNumber":54,"Velocity":49,"Duration":317091,"SoundDuration":317091,"Delta":130488155},{"NoteNumber":59,"Velocity":49,"Duration":317091,"SoundDuration":317091,"Delta":130488155},{"NoteNumber":61,"Velocity":49,"Duration":317091,"SoundDuration":317091,"Delta":130488155},{"NoteNumber":66,"Velocity":80,"Duration":317091,"SoundDuration":317091,"Delta":130488155},{"NoteNumber":71,"Velocity":80,"Duration":317091,"SoundDuration":317091,"Delta":130488155},{"NoteNumber":64,"Velocity":61,"Duration":317091,"SoundDuration":317091,"Delta":130805246},{"NoteNumber":55,"Velocity":48,"Duration":317091,"SoundDuration":317091,"Delta":130805246},{"NoteNumber":76,"Velocity":73,"Duration":317091,"SoundDuration":317091,"Delta":131122337},{"NoteNumber":74,"Velocity":85,"Duration":307061,"SoundDuration":307061,"Delta":131439428},{"NoteNumber":62,"Velocity":55,"Duration":75543,"SoundDuration":75543,"Delta":131595401},{"NoteNumber":59,"Velocity":55,"Duration":75543,"SoundDuration":75543,"Delta":131595401},{"NoteNumber":54,"Velocity":55,"Duration":75543,"SoundDuration":75543,"Delta":131595401},{"NoteNumber":76,"Velocity":84,"Duration":72330,"SoundDuration":72330,"Delta":131746489},{"NoteNumber":66,"Velocity":71,"Duration":72330,"SoundDuration":72330,"Delta":131746489},{"NoteNumber":54,"Velocity":47,"Duration":72330,"SoundDuration":72330,"Delta":131746489},{"NoteNumber":59,"Velocity":47,"Duration":72330,"SoundDuration":72330,"Delta":131746489},{"NoteNumber":62,"Velocity":47,"Duration":72330,"SoundDuration":72330,"Delta":131746489},{"NoteNumber":66,"Velocity":62,"Duration":72330,"SoundDuration":72330,"Delta":131891151},{"NoteNumber":74,"Velocity":74,"Duration":72330,"SoundDuration":72330,"Delta":131891151},{"NoteNumber":62,"Velocity":55,"Duration":72330,"SoundDuration":72330,"Delta":131891151},{"NoteNumber":59,"Velocity":55,"Duration":72330,"SoundDuration":72330,"Delta":131891151},{"NoteNumber":54,"Velocity":55,"Duration":72330,"SoundDuration":72330,"Delta":131891151},{"NoteNumber":73,"Velocity":82,"Duration":75150,"SoundDuration":75150,"Delta":132035813},{"NoteNumber":66,"Velocity":69,"Duration":75150,"SoundDuration":75150,"Delta":132035813},{"NoteNumber":54,"Velocity":47,"Duration":75150,"SoundDuration":75150,"Delta":132035813},{"NoteNumber":59,"Velocity":47,"Duration":75150,"SoundDuration":75150,"Delta":132035813},{"NoteNumber":62,"Velocity":47,"Duration":75150,"SoundDuration":75150,"Delta":132035813},{"NoteNumber":71,"Velocity":79,"Duration":83873,"SoundDuration":83873,"Delta":132186114},{"NoteNumber":66,"Velocity":67,"Duration":83873,"SoundDuration":83873,"Delta":132186114},{"NoteNumber":62,"Velocity":55,"Duration":83873,"SoundDuration":83873,"Delta":132186114},{"NoteNumber":59,"Velocity":55,"Duration":83873,"SoundDuration":83873,"Delta":132186114},{"NoteNumber":54,"Velocity":55,"Duration":83873,"SoundDuration":83873,"Delta":132186114},{"NoteNumber":79,"Velocity":85,"Duration":155973,"SoundDuration":155973,"Delta":132353861},{"NoteNumber":64,"Velocity":55,"Duration":75543,"SoundDuration":75543,"Delta":132509835},{"NoteNumber":61,"Velocity":55,"Duration":75543,"SoundDuration":75543,"Delta":132509835},{"NoteNumber":54,"Velocity":55,"Duration":75543,"SoundDuration":75543,"Delta":132509835},{"NoteNumber":70,"Velocity":84,"Duration":446304,"SoundDuration":446304,"Delta":132660923},{"NoteNumber":67,"Velocity":71,"Duration":446304,"SoundDuration":446304,"Delta":132660923},{"NoteNumber":54,"Velocity":47,"Duration":74001,"SoundDuration":74001,"Delta":132660923},{"NoteNumber":61,"Velocity":47,"Duration":74001,"SoundDuration":74001,"Delta":132660923},{"NoteNumber":64,"Velocity":47,"Duration":74001,"SoundDuration":74001,"Delta":132660923},{"NoteNumber":64,"Velocity":55,"Duration":74001,"SoundDuration":74001,"Delta":132808925},{"NoteNumber":61,"Velocity":55,"Duration":74001,"SoundDuration":74001,"Delta":132808925},{"NoteNumber":54,"Velocity":55,"Duration":74001,"SoundDuration":74001,"Delta":132808925},{"NoteNumber":54,"Velocity":47,"Duration":75150,"SoundDuration":75150,"Delta":132956927},{"NoteNumber":61,"Velocity":47,"Duration":75150,"SoundDuration":75150,"Delta":132956927},{"NoteNumber":64,"Velocity":47,"Duration":75150,"SoundDuration":75150,"Delta":132956927},{"NoteNumber":71,"Velocity":79,"Duration":153768,"SoundDuration":153768,"Delta":133107227},{"NoteNumber":66,"Velocity":67,"Duration":153768,"SoundDuration":153768,"Delta":133107227},{"NoteNumber":64,"Velocity":55,"Duration":83873,"SoundDuration":83873,"Delta":133107227},{"NoteNumber":61,"Velocity":55,"Duration":83873,"SoundDuration":83873,"Delta":133107227},{"NoteNumber":54,"Velocity":55,"Duration":83873,"SoundDuration":83873,"Delta":133107227},{"NoteNumber":66,"Velocity":67,"Duration":152012,"SoundDuration":152012,"Delta":133274975},{"NoteNumber":71,"Velocity":79,"Duration":152012,"SoundDuration":152012,"Delta":133274975},{"NoteNumber":59,"Velocity":70,"Duration":301211,"SoundDuration":301211,"Delta":133274975},{"NoteNumber":62,"Velocity":70,"Duration":301211,"SoundDuration":301211,"Delta":133274975},{"NoteNumber":63,"Velocity":55,"Duration":74981,"SoundDuration":74981,"Delta":133426988},{"NoteNumber":72,"Velocity":55,"Duration":74981,"SoundDuration":74981,"Delta":133426988},{"NoteNumber":69,"Velocity":55,"Duration":74981,"SoundDuration":74981,"Delta":133426988},{"NoteNumber":66,"Velocity":55,"Duration":74981,"SoundDuration":74981,"Delta":133426988},{"NoteNumber":63,"Velocity":48,"Duration":73635,"SoundDuration":73635,"Delta":133576186},{"NoteNumber":66,"Velocity":48,"Duration":73635,"SoundDuration":73635,"Delta":133576186},{"NoteNumber":69,"Velocity":48,"Duration":73635,"SoundDuration":73635,"Delta":133576186},{"NoteNumber":72,"Velocity":48,"Duration":73635,"SoundDuration":73635,"Delta":133576186},{"NoteNumber":63,"Velocity":59,"Duration":74179,"SoundDuration":74179,"Delta":133723716},{"NoteNumber":72,"Velocity":59,"Duration":74179,"SoundDuration":74179,"Delta":133723716},{"NoteNumber":69,"Velocity":59,"Duration":74179,"SoundDuration":74179,"Delta":133723716},{"NoteNumber":66,"Velocity":59,"Duration":74179,"SoundDuration":74179,"Delta":133723716},{"NoteNumber":63,"Velocity":54,"Duration":74395,"SoundDuration":74395,"Delta":133872360},{"NoteNumber":66,"Velocity":54,"Duration":74395,"SoundDuration":74395,"Delta":133872360},{"NoteNumber":69,"Velocity":54,"Duration":74395,"SoundDuration":74395,"Delta":133872360},{"NoteNumber":72,"Velocity":54,"Duration":74395,"SoundDuration":74395,"Delta":133872360},{"NoteNumber":63,"Velocity":66,"Duration":74382,"SoundDuration":74382,"Delta":134021138},{"NoteNumber":72,"Velocity":66,"Duration":74382,"SoundDuration":74382,"Delta":134021138},{"NoteNumber":69,"Velocity":66,"Duration":74382,"SoundDuration":74382,"Delta":134021138},{"NoteNumber":66,"Velocity":66,"Duration":74382,"SoundDuration":74382,"Delta":134021138},{"NoteNumber":63,"Velocity":59,"Duration":74382,"SoundDuration":74382,"Delta":134169903},{"NoteNumber":66,"Velocity":59,"Duration":74382,"SoundDuration":74382,"Delta":134169903},{"NoteNumber":69,"Velocity":59,"Duration":74382,"SoundDuration":74382,"Delta":134169903},{"NoteNumber":72,"Velocity":59,"Duration":74382,"SoundDuration":74382,"Delta":134169903},{"NoteNumber":63,"Velocity":70,"Duration":75543,"SoundDuration":75543,"Delta":134318668},{"NoteNumber":72,"Velocity":70,"Duration":75543,"SoundDuration":75543,"Delta":134318668},{"NoteNumber":69,"Velocity":70,"Duration":75543,"SoundDuration":75543,"Delta":134318668},{"NoteNumber":66,"Velocity":70,"Duration":75543,"SoundDuration":75543,"Delta":134318668},{"NoteNumber":63,"Velocity":61,"Duration":73623,"SoundDuration":73623,"Delta":134469756},{"NoteNumber":66,"Velocity":61,"Duration":73623,"SoundDuration":73623,"Delta":134469756},{"NoteNumber":69,"Velocity":61,"Duration":73623,"SoundDuration":73623,"Delta":134469756},{"NoteNumber":72,"Velocity":61,"Duration":73623,"SoundDuration":73623,"Delta":134469756},{"NoteNumber":63,"Velocity":72,"Duration":75543,"SoundDuration":75543,"Delta":134617002},{"NoteNumber":72,"Velocity":72,"Duration":75543,"SoundDuration":75543,"Delta":134617002},{"NoteNumber":69,"Velocity":72,"Duration":75543,"SoundDuration":75543,"Delta":134617002},{"NoteNumber":66,"Velocity":72,"Duration":75543,"SoundDuration":75543,"Delta":134617002},{"NoteNumber":63,"Velocity":62,"Duration":75127,"SoundDuration":75127,"Delta":134768090},{"NoteNumber":66,"Velocity":62,"Duration":75127,"SoundDuration":75127,"Delta":134768090},{"NoteNumber":69,"Velocity":62,"Duration":75127,"SoundDuration":75127,"Delta":134768090},{"NoteNumber":72,"Velocity":62,"Duration":75127,"SoundDuration":75127,"Delta":134768090},{"NoteNumber":63,"Velocity":74,"Duration":76281,"SoundDuration":76281,"Delta":134917741},{"NoteNumber":72,"Velocity":74,"Duration":76281,"SoundDuration":76281,"Delta":134917741},{"NoteNumber":69,"Velocity":74,"Duration":76281,"SoundDuration":76281,"Delta":134917741},{"NoteNumber":66,"Velocity":74,"Duration":76281,"SoundDuration":76281,"Delta":134917741},{"NoteNumber":64,"Velocity":82,"Duration":307061,"SoundDuration":307061,"Delta":135072170},{"NoteNumber":68,"Velocity":82,"Duration":307061,"SoundDuration":307061,"Delta":135072170},{"NoteNumber":71,"Velocity":97,"Duration":307061,"SoundDuration":307061,"Delta":135072170},{"NoteNumber":54,"Velocity":64,"Duration":75543,"SoundDuration":75543,"Delta":135228144},{"NoteNumber":42,"Velocity":64,"Duration":75543,"SoundDuration":75543,"Delta":135228144},{"NoteNumber":67,"Velocity":81,"Duration":73035,"SoundDuration":73035,"Delta":135379231},{"NoteNumber":73,"Velocity":96,"Duration":73035,"SoundDuration":73035,"Delta":135379231},{"NoteNumber":70,"Velocity":81,"Duration":73035,"SoundDuration":73035,"Delta":135379231},{"NoteNumber":42,"Velocity":55,"Duration":73035,"SoundDuration":73035,"Delta":135379231},{"NoteNumber":54,"Velocity":55,"Duration":73035,"SoundDuration":73035,"Delta":135379231},{"NoteNumber":67,"Velocity":71,"Duration":73035,"SoundDuration":73035,"Delta":135525302},{"NoteNumber":70,"Velocity":71,"Duration":73035,"SoundDuration":73035,"Delta":135525302},{"NoteNumber":74,"Velocity":85,"Duration":73035,"SoundDuration":73035,"Delta":135525302},{"NoteNumber":54,"Velocity":64,"Duration":73035,"SoundDuration":73035,"Delta":135525302},{"NoteNumber":42,"Velocity":64,"Duration":73035,"SoundDuration":73035,"Delta":135525302},{"NoteNumber":67,"Velocity":79,"Duration":75150,"SoundDuration":75150,"Delta":135671373},{"NoteNumber":76,"Velocity":94,"Duration":75150,"SoundDuration":75150,"Delta":135671373},{"NoteNumber":70,"Velocity":79,"Duration":75150,"SoundDuration":75150,"Delta":135671373},{"NoteNumber":42,"Velocity":55,"Duration":75150,"SoundDuration":75150,"Delta":135671373},{"NoteNumber":54,"Velocity":55,"Duration":75150,"SoundDuration":75150,"Delta":135671373},{"NoteNumber":67,"Velocity":77,"Duration":83873,"SoundDuration":83873,"Delta":135821673},{"NoteNumber":78,"Velocity":90,"Duration":83873,"SoundDuration":83873,"Delta":135821673},{"NoteNumber":69,"Velocity":77,"Duration":83873,"SoundDuration":83873,"Delta":135821673},{"NoteNumber":54,"Velocity":64,"Duration":83873,"SoundDuration":83873,"Delta":135821673},{"NoteNumber":42,"Velocity":64,"Duration":83873,"SoundDuration":83873,"Delta":135821673},{"NoteNumber":67,"Velocity":82,"Duration":155973,"SoundDuration":155973,"Delta":135989421},{"NoteNumber":70,"Velocity":82,"Duration":155973,"SoundDuration":155973,"Delta":135989421},{"NoteNumber":79,"Velocity":97,"Duration":155973,"SoundDuration":155973,"Delta":135989421},{"NoteNumber":42,"Velocity":66,"Duration":77986,"SoundDuration":77986,"Delta":135989421},{"NoteNumber":54,"Velocity":66,"Duration":77986,"SoundDuration":77986,"Delta":135989421},{"NoteNumber":54,"Velocity":64,"Duration":75543,"SoundDuration":75543,"Delta":136145395},{"NoteNumber":42,"Velocity":64,"Duration":75543,"SoundDuration":75543,"Delta":136145395},{"NoteNumber":64,"Velocity":71,"Duration":446304,"SoundDuration":446304,"Delta":136296483},{"NoteNumber":70,"Velocity":84,"Duration":446304,"SoundDuration":446304,"Delta":136296483},{"NoteNumber":66,"Velocity":71,"Duration":442546,"SoundDuration":442546,"Delta":136296483},{"NoteNumber":42,"Velocity":55,"Duration":74001,"SoundDuration":74001,"Delta":136296483},{"NoteNumber":54,"Velocity":55,"Duration":74001,"SoundDuration":74001,"Delta":136296483},{"NoteNumber":54,"Velocity":64,"Duration":74001,"SoundDuration":74001,"Delta":136444485},{"NoteNumber":42,"Velocity":64,"Duration":74001,"SoundDuration":74001,"Delta":136444485},{"NoteNumber":42,"Velocity":55,"Duration":75150,"SoundDuration":75150,"Delta":136592487},{"NoteNumber":54,"Velocity":55,"Duration":75150,"SoundDuration":75150,"Delta":136592487},{"NoteNumber":62,"Velocity":67,"Duration":153768,"SoundDuration":153768,"Delta":136742787},{"NoteNumber":71,"Velocity":79,"Duration":153768,"SoundDuration":153768,"Delta":136742787},{"NoteNumber":66,"Velocity":67,"Duration":153768,"SoundDuration":153768,"Delta":136742787},{"NoteNumber":54,"Velocity":64,"Duration":83873,"SoundDuration":83873,"Delta":136742787},{"NoteNumber":42,"Velocity":64,"Duration":83873,"SoundDuration":83873,"Delta":136742787},{"NoteNumber":62,"Velocity":67,"Duration":152012,"SoundDuration":152012,"Delta":136910535},{"NoteNumber":66,"Velocity":67,"Duration":152012,"SoundDuration":152012,"Delta":136910535},{"NoteNumber":71,"Velocity":79,"Duration":152012,"SoundDuration":152012,"Delta":136910535},{"NoteNumber":35,"Velocity":82,"Duration":301211,"SoundDuration":301211,"Delta":136910535},{"NoteNumber":47,"Velocity":82,"Duration":301211,"SoundDuration":301211,"Delta":136910535},{"NoteNumber":63,"Velocity":55,"Duration":74981,"SoundDuration":74981,"Delta":137062547},{"NoteNumber":72,"Velocity":55,"Duration":74981,"SoundDuration":74981,"Delta":137062547},{"NoteNumber":69,"Velocity":55,"Duration":74981,"SoundDuration":74981,"Delta":137062547},{"NoteNumber":66,"Velocity":55,"Duration":74981,"SoundDuration":74981,"Delta":137062547},{"NoteNumber":63,"Velocity":48,"Duration":73635,"SoundDuration":73635,"Delta":137211746},{"NoteNumber":66,"Velocity":48,"Duration":73635,"SoundDuration":73635,"Delta":137211746},{"NoteNumber":69,"Velocity":48,"Duration":73635,"SoundDuration":73635,"Delta":137211746},{"NoteNumber":72,"Velocity":48,"Duration":73635,"SoundDuration":73635,"Delta":137211746},{"NoteNumber":63,"Velocity":59,"Duration":74179,"SoundDuration":74179,"Delta":137359276},{"NoteNumber":72,"Velocity":59,"Duration":74179,"SoundDuration":74179,"Delta":137359276},{"NoteNumber":69,"Velocity":59,"Duration":74179,"SoundDuration":74179,"Delta":137359276},{"NoteNumber":66,"Velocity":59,"Duration":74179,"SoundDuration":74179,"Delta":137359276},{"NoteNumber":63,"Velocity":54,"Duration":74395,"SoundDuration":74395,"Delta":137507920},{"NoteNumber":66,"Velocity":54,"Duration":74395,"SoundDuration":74395,"Delta":137507920},{"NoteNumber":69,"Velocity":54,"Duration":74395,"SoundDuration":74395,"Delta":137507920},{"NoteNumber":72,"Velocity":54,"Duration":74395,"SoundDuration":74395,"Delta":137507920},{"NoteNumber":63,"Velocity":66,"Duration":74382,"SoundDuration":74382,"Delta":137656697},{"NoteNumber":72,"Velocity":66,"Duration":74382,"SoundDuration":74382,"Delta":137656697},{"NoteNumber":69,"Velocity":66,"Duration":74382,"SoundDuration":74382,"Delta":137656697},{"NoteNumber":66,"Velocity":66,"Duration":74382,"SoundDuration":74382,"Delta":137656697},{"NoteNumber":63,"Velocity":59,"Duration":74382,"SoundDuration":74382,"Delta":137805463},{"NoteNumber":66,"Velocity":59,"Duration":74382,"SoundDuration":74382,"Delta":137805463},{"NoteNumber":69,"Velocity":59,"Duration":74382,"SoundDuration":74382,"Delta":137805463},{"NoteNumber":72,"Velocity":59,"Duration":74382,"SoundDuration":74382,"Delta":137805463},{"NoteNumber":63,"Velocity":70,"Duration":75543,"SoundDuration":75543,"Delta":137954228},{"NoteNumber":72,"Velocity":70,"Duration":75543,"SoundDuration":75543,"Delta":137954228},{"NoteNumber":69,"Velocity":70,"Duration":75543,"SoundDuration":75543,"Delta":137954228},{"NoteNumber":66,"Velocity":70,"Duration":75543,"SoundDuration":75543,"Delta":137954228},{"NoteNumber":63,"Velocity":61,"Duration":73623,"SoundDuration":73623,"Delta":138105316},{"NoteNumber":66,"Velocity":61,"Duration":73623,"SoundDuration":73623,"Delta":138105316},{"NoteNumber":69,"Velocity":61,"Duration":73623,"SoundDuration":73623,"Delta":138105316},{"NoteNumber":72,"Velocity":61,"Duration":73623,"SoundDuration":73623,"Delta":138105316},{"NoteNumber":63,"Velocity":73,"Duration":75543,"SoundDuration":75543,"Delta":138252562},{"NoteNumber":72,"Velocity":73,"Duration":75543,"SoundDuration":75543,"Delta":138252562},{"NoteNumber":69,"Velocity":73,"Duration":75543,"SoundDuration":75543,"Delta":138252562},{"NoteNumber":66,"Velocity":73,"Duration":75543,"SoundDuration":75543,"Delta":138252562},{"NoteNumber":63,"Velocity":62,"Duration":75127,"SoundDuration":75127,"Delta":138403650},{"NoteNumber":66,"Velocity":62,"Duration":75127,"SoundDuration":75127,"Delta":138403650},{"NoteNumber":69,"Velocity":62,"Duration":75127,"SoundDuration":75127,"Delta":138403650},{"NoteNumber":72,"Velocity":62,"Duration":75127,"SoundDuration":75127,"Delta":138403650},{"NoteNumber":63,"Velocity":75,"Duration":76281,"SoundDuration":76281,"Delta":138553300},{"NoteNumber":72,"Velocity":75,"Duration":76281,"SoundDuration":76281,"Delta":138553300},{"NoteNumber":69,"Velocity":75,"Duration":76281,"SoundDuration":76281,"Delta":138553300},{"NoteNumber":66,"Velocity":75,"Duration":76281,"SoundDuration":76281,"Delta":138553300},{"NoteNumber":64,"Velocity":82,"Duration":307061,"SoundDuration":307061,"Delta":138707730},{"NoteNumber":68,"Velocity":82,"Duration":307061,"SoundDuration":307061,"Delta":138707730},{"NoteNumber":71,"Velocity":97,"Duration":307061,"SoundDuration":307061,"Delta":138707730},{"NoteNumber":42,"Velocity":74,"Duration":75543,"SoundDuration":75543,"Delta":138863703},{"NoteNumber":30,"Velocity":74,"Duration":75543,"SoundDuration":75543,"Delta":138863703},{"NoteNumber":67,"Velocity":81,"Duration":74001,"SoundDuration":74001,"Delta":139014791},{"NoteNumber":73,"Velocity":96,"Duration":74001,"SoundDuration":74001,"Delta":139014791},{"NoteNumber":70,"Velocity":81,"Duration":74001,"SoundDuration":74001,"Delta":139014791},{"NoteNumber":30,"Velocity":63,"Duration":74001,"SoundDuration":74001,"Delta":139014791},{"NoteNumber":42,"Velocity":63,"Duration":74001,"SoundDuration":74001,"Delta":139014791},{"NoteNumber":67,"Velocity":71,"Duration":74001,"SoundDuration":74001,"Delta":139162793},{"NoteNumber":70,"Velocity":71,"Duration":74001,"SoundDuration":74001,"Delta":139162793},{"NoteNumber":74,"Velocity":85,"Duration":74001,"SoundDuration":74001,"Delta":139162793},{"NoteNumber":42,"Velocity":74,"Duration":74001,"SoundDuration":74001,"Delta":139162793},{"NoteNumber":30,"Velocity":74,"Duration":74001,"SoundDuration":74001,"Delta":139162793},{"NoteNumber":67,"Velocity":79,"Duration":75150,"SoundDuration":75150,"Delta":139310795},{"NoteNumber":76,"Velocity":94,"Duration":75150,"SoundDuration":75150,"Delta":139310795},{"NoteNumber":70,"Velocity":79,"Duration":75150,"SoundDuration":75150,"Delta":139310795},{"NoteNumber":30,"Velocity":63,"Duration":75150,"SoundDuration":75150,"Delta":139310795},{"NoteNumber":42,"Velocity":63,"Duration":75150,"SoundDuration":75150,"Delta":139310795},{"NoteNumber":67,"Velocity":77,"Duration":83873,"SoundDuration":83873,"Delta":139461096},{"NoteNumber":78,"Velocity":90,"Duration":83873,"SoundDuration":83873,"Delta":139461096},{"NoteNumber":70,"Velocity":77,"Duration":83873,"SoundDuration":83873,"Delta":139461096},{"NoteNumber":42,"Velocity":74,"Duration":83873,"SoundDuration":83873,"Delta":139461096},{"NoteNumber":30,"Velocity":74,"Duration":83873,"SoundDuration":83873,"Delta":139461096},{"NoteNumber":67,"Velocity":82,"Duration":155973,"SoundDuration":155973,"Delta":139628843},{"NoteNumber":70,"Velocity":82,"Duration":155973,"SoundDuration":155973,"Delta":139628843},{"NoteNumber":79,"Velocity":97,"Duration":155973,"SoundDuration":155973,"Delta":139628843},{"NoteNumber":30,"Velocity":55,"Duration":77986,"SoundDuration":77986,"Delta":139628843},{"NoteNumber":42,"Velocity":55,"Duration":77986,"SoundDuration":77986,"Delta":139628843},{"NoteNumber":42,"Velocity":64,"Duration":75543,"SoundDuration":75543,"Delta":139784817},{"NoteNumber":30,"Velocity":64,"Duration":75543,"SoundDuration":75543,"Delta":139784817},{"NoteNumber":64,"Velocity":71,"Duration":614052,"SoundDuration":614052,"Delta":139935905},{"NoteNumber":70,"Velocity":84,"Duration":614052,"SoundDuration":614052,"Delta":139935905},{"NoteNumber":66,"Velocity":71,"Duration":609858,"SoundDuration":609858,"Delta":139935905},{"NoteNumber":30,"Velocity":55,"Duration":74001,"SoundDuration":74001,"Delta":139935905},{"NoteNumber":42,"Velocity":55,"Duration":74001,"SoundDuration":74001,"Delta":139935905},{"NoteNumber":42,"Velocity":64,"Duration":74001,"SoundDuration":74001,"Delta":140083907},{"NoteNumber":30,"Velocity":64,"Duration":74001,"SoundDuration":74001,"Delta":140083907},{"NoteNumber":30,"Velocity":55,"Duration":75150,"SoundDuration":75150,"Delta":140231909},{"NoteNumber":42,"Velocity":55,"Duration":75150,"SoundDuration":75150,"Delta":140231909},{"NoteNumber":42,"Velocity":64,"Duration":83873,"SoundDuration":83873,"Delta":140382209},{"NoteNumber":30,"Velocity":64,"Duration":83873,"SoundDuration":83873,"Delta":140382209},{"NoteNumber":62,"Velocity":80,"Duration":152012,"SoundDuration":152012,"Delta":140549957},{"NoteNumber":66,"Velocity":80,"Duration":152012,"SoundDuration":152012,"Delta":140549957},{"NoteNumber":71,"Velocity":94,"Duration":152012,"SoundDuration":152012,"Delta":140549957},{"NoteNumber":42,"Velocity":74,"Duration":75543,"SoundDuration":75543,"Delta":140701970},{"NoteNumber":30,"Velocity":74,"Duration":75543,"SoundDuration":75543,"Delta":140701970},{"NoteNumber":67,"Velocity":81,"Duration":74001,"SoundDuration":74001,"Delta":140853057},{"NoteNumber":73,"Velocity":96,"Duration":74001,"SoundDuration":74001,"Delta":140853057},{"NoteNumber":70,"Velocity":81,"Duration":74001,"SoundDuration":74001,"Delta":140853057},{"NoteNumber":30,"Velocity":63,"Duration":74001,"SoundDuration":74001,"Delta":140853057},{"NoteNumber":42,"Velocity":63,"Duration":74001,"SoundDuration":74001,"Delta":140853057},{"NoteNumber":67,"Velocity":71,"Duration":74001,"SoundDuration":74001,"Delta":141001059},{"NoteNumber":70,"Velocity":71,"Duration":74001,"SoundDuration":74001,"Delta":141001059},{"NoteNumber":74,"Velocity":85,"Duration":74001,"SoundDuration":74001,"Delta":141001059},{"NoteNumber":42,"Velocity":74,"Duration":74001,"SoundDuration":74001,"Delta":141001059},{"NoteNumber":30,"Velocity":74,"Duration":74001,"SoundDuration":74001,"Delta":141001059},{"NoteNumber":67,"Velocity":79,"Duration":75150,"SoundDuration":75150,"Delta":141149061},{"NoteNumber":76,"Velocity":94,"Duration":75150,"SoundDuration":75150,"Delta":141149061},{"NoteNumber":70,"Velocity":79,"Duration":75150,"SoundDuration":75150,"Delta":141149061},{"NoteNumber":30,"Velocity":63,"Duration":75150,"SoundDuration":75150,"Delta":141149061},{"NoteNumber":42,"Velocity":63,"Duration":75150,"SoundDuration":75150,"Delta":141149061},{"NoteNumber":67,"Velocity":77,"Duration":83873,"SoundDuration":83873,"Delta":141299362},{"NoteNumber":78,"Velocity":90,"Duration":83873,"SoundDuration":83873,"Delta":141299362},{"NoteNumber":70,"Velocity":77,"Duration":83873,"SoundDuration":83873,"Delta":141299362},{"NoteNumber":42,"Velocity":74,"Duration":83873,"SoundDuration":83873,"Delta":141299362},{"NoteNumber":30,"Velocity":74,"Duration":83873,"SoundDuration":83873,"Delta":141299362},{"NoteNumber":67,"Velocity":82,"Duration":155973,"SoundDuration":155973,"Delta":141467110},{"NoteNumber":70,"Velocity":82,"Duration":155973,"SoundDuration":155973,"Delta":141467110},{"NoteNumber":79,"Velocity":97,"Duration":155973,"SoundDuration":155973,"Delta":141467110},{"NoteNumber":30,"Velocity":55,"Duration":77986,"SoundDuration":77986,"Delta":141467110},{"NoteNumber":42,"Velocity":55,"Duration":77986,"SoundDuration":77986,"Delta":141467110},{"NoteNumber":42,"Velocity":64,"Duration":75543,"SoundDuration":75543,"Delta":141623083},{"NoteNumber":30,"Velocity":64,"Duration":75543,"SoundDuration":75543,"Delta":141623083},{"NoteNumber":64,"Velocity":81,"Duration":614052,"SoundDuration":614052,"Delta":141774171},{"NoteNumber":70,"Velocity":96,"Duration":614052,"SoundDuration":614052,"Delta":141774171},{"NoteNumber":66,"Velocity":81,"Duration":609858,"SoundDuration":609858,"Delta":141774171},{"NoteNumber":30,"Velocity":55,"Duration":74001,"SoundDuration":74001,"Delta":141774171},{"NoteNumber":42,"Velocity":55,"Duration":74001,"SoundDuration":74001,"Delta":141774171},{"NoteNumber":42,"Velocity":64,"Duration":74001,"SoundDuration":74001,"Delta":141922173},{"NoteNumber":30,"Velocity":64,"Duration":74001,"SoundDuration":74001,"Delta":141922173},{"NoteNumber":30,"Velocity":55,"Duration":75150,"SoundDuration":75150,"Delta":142070175},{"NoteNumber":42,"Velocity":55,"Duration":75150,"SoundDuration":75150,"Delta":142070175},{"NoteNumber":42,"Velocity":64,"Duration":83873,"SoundDuration":83873,"Delta":142220476},{"NoteNumber":30,"Velocity":64,"Duration":83873,"SoundDuration":83873,"Delta":142220476},{"NoteNumber":62,"Velocity":92,"Duration":151932,"SoundDuration":151932,"Delta":142388223},{"NoteNumber":66,"Velocity":92,"Duration":151932,"SoundDuration":151932,"Delta":142388223},{"NoteNumber":71,"Velocity":108,"Duration":151932,"SoundDuration":151932,"Delta":142388223},{"NoteNumber":54,"Velocity":74,"Duration":75543,"SoundDuration":75543,"Delta":142540156},{"NoteNumber":42,"Velocity":74,"Duration":75543,"SoundDuration":75543,"Delta":142540156},{"NoteNumber":67,"Velocity":89,"Duration":80051,"SoundDuration":80051,"Delta":142691089},{"NoteNumber":73,"Velocity":105,"Duration":80051,"SoundDuration":80051,"Delta":142691089},{"NoteNumber":70,"Velocity":89,"Duration":80051,"SoundDuration":80051,"Delta":142691089},{"NoteNumber":42,"Velocity":68,"Duration":80051,"SoundDuration":80051,"Delta":142691089},{"NoteNumber":54,"Velocity":68,"Duration":80051,"SoundDuration":80051,"Delta":142691089},{"NoteNumber":67,"Velocity":78,"Duration":81797,"SoundDuration":81797,"Delta":142851192},{"NoteNumber":70,"Velocity":78,"Duration":81797,"SoundDuration":81797,"Delta":142851192},{"NoteNumber":74,"Velocity":93,"Duration":81797,"SoundDuration":81797,"Delta":142851192},{"NoteNumber":54,"Velocity":81,"Duration":81797,"SoundDuration":81797,"Delta":142851192},{"NoteNumber":42,"Velocity":81,"Duration":81797,"SoundDuration":81797,"Delta":142851192},{"NoteNumber":67,"Velocity":86,"Duration":84860,"SoundDuration":84860,"Delta":143014122},{"NoteNumber":76,"Velocity":103,"Duration":84860,"SoundDuration":84860,"Delta":143014122},{"NoteNumber":70,"Velocity":86,"Duration":84860,"SoundDuration":84860,"Delta":143014122},{"NoteNumber":42,"Velocity":68,"Duration":84860,"SoundDuration":84860,"Delta":143014122},{"NoteNumber":54,"Velocity":68,"Duration":84860,"SoundDuration":84860,"Delta":143014122},{"NoteNumber":67,"Velocity":83,"Duration":90700,"SoundDuration":90700,"Delta":143183745},{"NoteNumber":78,"Velocity":98,"Duration":90700,"SoundDuration":90700,"Delta":143183745},{"NoteNumber":70,"Velocity":83,"Duration":90700,"SoundDuration":90700,"Delta":143183745},{"NoteNumber":54,"Velocity":81,"Duration":90700,"SoundDuration":90700,"Delta":143183745},{"NoteNumber":42,"Velocity":81,"Duration":90700,"SoundDuration":90700,"Delta":143183745},{"NoteNumber":73,"Velocity":90,"Duration":590847,"SoundDuration":590847,"Delta":143363874},{"NoteNumber":76,"Velocity":90,"Duration":590847,"SoundDuration":590847,"Delta":143363874},{"NoteNumber":67,"Velocity":90,"Duration":590847,"SoundDuration":590847,"Delta":143363874},{"NoteNumber":70,"Velocity":90,"Duration":590847,"SoundDuration":590847,"Delta":143363874},{"NoteNumber":79,"Velocity":106,"Duration":590847,"SoundDuration":590847,"Delta":143363874},{"NoteNumber":42,"Velocity":60,"Duration":319333,"SoundDuration":319333,"Delta":143363874},{"NoteNumber":54,"Velocity":60,"Duration":82435,"SoundDuration":82435,"Delta":143363874},{"NoteNumber":54,"Velocity":70,"Duration":77575,"SoundDuration":77575,"Delta":143528056},{"NoteNumber":54,"Velocity":60,"Duration":77575,"SoundDuration":77575,"Delta":143683207},{"NoteNumber":54,"Velocity":70,"Duration":77575,"SoundDuration":77575,"Delta":143838358},{"NoteNumber":61,"Velocity":81,"Duration":155780,"SoundDuration":155780,"Delta":143993509},{"NoteNumber":64,"Velocity":81,"Duration":155780,"SoundDuration":155780,"Delta":143993509},{"NoteNumber":66,"Velocity":81,"Duration":155780,"SoundDuration":155780,"Delta":143993509},{"NoteNumber":70,"Velocity":96,"Duration":155780,"SoundDuration":155780,"Delta":143993509},{"NoteNumber":42,"Velocity":55,"Duration":332772,"SoundDuration":332772,"Delta":143993509},{"NoteNumber":54,"Velocity":55,"Duration":77575,"SoundDuration":77575,"Delta":143993509},{"NoteNumber":54,"Velocity":64,"Duration":88495,"SoundDuration":88495,"Delta":144149290},{"NoteNumber":59,"Velocity":92,"Duration":155150,"SoundDuration":155150,"Delta":144326282},{"NoteNumber":62,"Velocity":92,"Duration":155150,"SoundDuration":155150,"Delta":144326282},{"NoteNumber":66,"Velocity":92,"Duration":155150,"SoundDuration":155150,"Delta":144326282},{"NoteNumber":71,"Velocity":108,"Duration":155150,"SoundDuration":155150,"Delta":144326282},{"NoteNumber":47,"Velocity":75,"Duration":77575,"SoundDuration":77575,"Delta":144326282},{"NoteNumber":54,"Velocity":51,"Duration":75941,"SoundDuration":75941,"Delta":144481433},{"NoteNumber":54,"Velocity":56,"Duration":75941,"SoundDuration":75941,"Delta":144633316},{"NoteNumber":54,"Velocity":51,"Duration":75941,"SoundDuration":75941,"Delta":144785199},{"NoteNumber":54,"Velocity":56,"Duration":75941,"SoundDuration":75941,"Delta":144937082},{"NoteNumber":54,"Velocity":39,"Duration":80153,"SoundDuration":80153,"Delta":145088966},{"NoteNumber":54,"Velocity":51,"Duration":77575,"SoundDuration":77575,"Delta":145249273},{"NoteNumber":54,"Velocity":46,"Duration":75941,"SoundDuration":75941,"Delta":145404424},{"NoteNumber":54,"Velocity":51,"Duration":75941,"SoundDuration":75941,"Delta":145556308},{"NoteNumber":54,"Velocity":45,"Duration":75941,"SoundDuration":75941,"Delta":145708191},{"NoteNumber":53,"Velocity":51,"Duration":79272,"SoundDuration":79272,"Delta":145860074},{"NoteNumber":53,"Velocity":46,"Duration":79272,"SoundDuration":79272,"Delta":146018620},{"NoteNumber":54,"Velocity":56,"Duration":77575,"SoundDuration":77575,"Delta":146177165},{"NoteNumber":54,"Velocity":51,"Duration":77575,"SoundDuration":77575,"Delta":146332316},{"NoteNumber":55,"Velocity":62,"Duration":79710,"SoundDuration":79710,"Delta":146487467},{"NoteNumber":55,"Velocity":56,"Duration":79710,"SoundDuration":79710,"Delta":146646889},{"NoteNumber":54,"Velocity":57,"Duration":77575,"SoundDuration":77575,"Delta":146806311},{"NoteNumber":54,"Velocity":48,"Duration":82435,"SoundDuration":82435,"Delta":146961462},{"NoteNumber":55,"Velocity":69,"Duration":78410,"SoundDuration":78410,"Delta":147126333},{"NoteNumber":55,"Velocity":62,"Duration":78410,"SoundDuration":78410,"Delta":147283155},{"NoteNumber":54,"Velocity":62,"Duration":78410,"SoundDuration":78410,"Delta":147439977},{"NoteNumber":54,"Velocity":53,"Duration":78410,"SoundDuration":78410,"Delta":147596798},{"NoteNumber":64,"Velocity":46,"Duration":76773,"SoundDuration":76773,"Delta":147753620},{"NoteNumber":67,"Velocity":55,"Duration":76773,"SoundDuration":76773,"Delta":147753620},{"NoteNumber":58,"Velocity":46,"Duration":76773,"SoundDuration":76773,"Delta":147753620},{"NoteNumber":64,"Velocity":39,"Duration":76382,"SoundDuration":76382,"Delta":147907167},{"NoteNumber":67,"Velocity":47,"Duration":76382,"SoundDuration":76382,"Delta":147907167},{"NoteNumber":58,"Velocity":39,"Duration":76382,"SoundDuration":76382,"Delta":147907167},{"NoteNumber":66,"Velocity":49,"Duration":78839,"SoundDuration":78839,"Delta":148059932},{"NoteNumber":62,"Velocity":49,"Duration":78839,"SoundDuration":78839,"Delta":148059932},{"NoteNumber":59,"Velocity":49,"Duration":78839,"SoundDuration":78839,"Delta":148059932},{"NoteNumber":62,"Velocity":45,"Duration":78839,"SoundDuration":78839,"Delta":148217611},{"NoteNumber":66,"Velocity":45,"Duration":78839,"SoundDuration":78839,"Delta":148217611},{"NoteNumber":59,"Velocity":45,"Duration":78839,"SoundDuration":78839,"Delta":148217611},{"NoteNumber":70,"Velocity":62,"Duration":77575,"SoundDuration":77575,"Delta":148375290},{"NoteNumber":64,"Velocity":52,"Duration":77575,"SoundDuration":77575,"Delta":148375290},{"NoteNumber":61,"Velocity":52,"Duration":77575,"SoundDuration":77575,"Delta":148375290},{"NoteNumber":64,"Velocity":49,"Duration":77575,"SoundDuration":77575,"Delta":148530441},{"NoteNumber":70,"Velocity":58,"Duration":77575,"SoundDuration":77575,"Delta":148530441},{"NoteNumber":61,"Velocity":49,"Duration":77575,"SoundDuration":77575,"Delta":148530441},{"NoteNumber":71,"Velocity":63,"Duration":76343,"SoundDuration":76343,"Delta":148685592},{"NoteNumber":66,"Velocity":53,"Duration":76343,"SoundDuration":76343,"Delta":148685592},{"NoteNumber":62,"Velocity":53,"Duration":76343,"SoundDuration":76343,"Delta":148685592},{"NoteNumber":71,"Velocity":61,"Duration":76343,"SoundDuration":76343,"Delta":148838279},{"NoteNumber":66,"Velocity":51,"Duration":76343,"SoundDuration":76343,"Delta":148838279},{"NoteNumber":62,"Velocity":51,"Duration":76343,"SoundDuration":76343,"Delta":148838279},{"NoteNumber":67,"Velocity":64,"Duration":79710,"SoundDuration":79710,"Delta":148990967},{"NoteNumber":73,"Velocity":76,"Duration":79710,"SoundDuration":79710,"Delta":148990967},{"NoteNumber":64,"Velocity":64,"Duration":79710,"SoundDuration":79710,"Delta":148990967},{"NoteNumber":67,"Velocity":62,"Duration":81967,"SoundDuration":81967,"Delta":149150388},{"NoteNumber":73,"Velocity":73,"Duration":81967,"SoundDuration":81967,"Delta":149150388},{"NoteNumber":64,"Velocity":62,"Duration":81967,"SoundDuration":81967,"Delta":149150388},{"NoteNumber":74,"Velocity":79,"Duration":76773,"SoundDuration":76773,"Delta":149314323},{"NoteNumber":71,"Velocity":67,"Duration":76773,"SoundDuration":76773,"Delta":149314323},{"NoteNumber":66,"Velocity":67,"Duration":76773,"SoundDuration":76773,"Delta":149314323},{"NoteNumber":74,"Velocity":72,"Duration":76773,"SoundDuration":76773,"Delta":149467870},{"NoteNumber":71,"Velocity":61,"Duration":76773,"SoundDuration":76773,"Delta":149467870},{"NoteNumber":66,"Velocity":61,"Duration":76773,"SoundDuration":76773,"Delta":149467870},{"NoteNumber":73,"Velocity":80,"Duration":76773,"SoundDuration":76773,"Delta":149621417},{"NoteNumber":67,"Velocity":68,"Duration":76773,"SoundDuration":76773,"Delta":149621417},{"NoteNumber":64,"Velocity":68,"Duration":76773,"SoundDuration":76773,"Delta":149621417},{"NoteNumber":67,"Velocity":58,"Duration":81054,"SoundDuration":81054,"Delta":149774964},{"NoteNumber":73,"Velocity":69,"Duration":81054,"SoundDuration":81054,"Delta":149774964},{"NoteNumber":64,"Velocity":58,"Duration":81054,"SoundDuration":81054,"Delta":149774964},{"NoteNumber":71,"Velocity":79,"Duration":77160,"SoundDuration":77160,"Delta":149937073},{"NoteNumber":66,"Velocity":67,"Duration":77160,"SoundDuration":77160,"Delta":149937073},{"NoteNumber":62,"Velocity":67,"Duration":77160,"SoundDuration":77160,"Delta":149937073},{"NoteNumber":66,"Velocity":59,"Duration":79710,"SoundDuration":79710,"Delta":150091394},{"NoteNumber":71,"Velocity":70,"Duration":79710,"SoundDuration":79710,"Delta":150091394},{"NoteNumber":62,"Velocity":59,"Duration":79710,"SoundDuration":79710,"Delta":150091394},{"NoteNumber":69,"Velocity":73,"Duration":77986,"SoundDuration":77986,"Delta":150250816},{"NoteNumber":66,"Velocity":62,"Duration":77986,"SoundDuration":77986,"Delta":150250816},{"NoteNumber":63,"Velocity":62,"Duration":77986,"SoundDuration":77986,"Delta":150250816},{"NoteNumber":60,"Velocity":62,"Duration":77986,"SoundDuration":77986,"Delta":150250816},{"NoteNumber":69,"Velocity":61,"Duration":79710,"SoundDuration":79710,"Delta":150406790},{"NoteNumber":66,"Velocity":51,"Duration":79710,"SoundDuration":79710,"Delta":150406790},{"NoteNumber":63,"Velocity":51,"Duration":79710,"SoundDuration":79710,"Delta":150406790},{"NoteNumber":60,"Velocity":51,"Duration":79710,"SoundDuration":79710,"Delta":150406790},{"NoteNumber":68,"Velocity":71,"Duration":76749,"SoundDuration":76749,"Delta":150566212},{"NoteNumber":64,"Velocity":60,"Duration":76749,"SoundDuration":76749,"Delta":150566212},{"NoteNumber":59,"Velocity":60,"Duration":76749,"SoundDuration":76749,"Delta":150566212},{"NoteNumber":68,"Velocity":61,"Duration":77575,"SoundDuration":77575,"Delta":150719711},{"NoteNumber":64,"Velocity":51,"Duration":77575,"SoundDuration":77575,"Delta":150719711},{"NoteNumber":59,"Velocity":51,"Duration":77575,"SoundDuration":77575,"Delta":150719711},{"NoteNumber":64,"Velocity":53,"Duration":77986,"SoundDuration":77986,"Delta":150874862},{"NoteNumber":67,"Velocity":63,"Duration":77986,"SoundDuration":77986,"Delta":150874862},{"NoteNumber":58,"Velocity":53,"Duration":77986,"SoundDuration":77986,"Delta":150874862},{"NoteNumber":67,"Velocity":58,"Duration":79272,"SoundDuration":79272,"Delta":151030836},{"NoteNumber":64,"Velocity":49,"Duration":79272,"SoundDuration":79272,"Delta":151030836},{"NoteNumber":58,"Velocity":49,"Duration":79272,"SoundDuration":79272,"Delta":151030836},{"NoteNumber":65,"Velocity":62,"Duration":77160,"SoundDuration":77160,"Delta":151189382},{"NoteNumber":61,"Velocity":52,"Duration":77160,"SoundDuration":77160,"Delta":151189382},{"NoteNumber":59,"Velocity":52,"Duration":77160,"SoundDuration":77160,"Delta":151189382},{"NoteNumber":65,"Velocity":56,"Duration":77160,"SoundDuration":77160,"Delta":151343703},{"NoteNumber":61,"Velocity":47,"Duration":77160,"SoundDuration":77160,"Delta":151343703},{"NoteNumber":59,"Velocity":47,"Duration":77160,"SoundDuration":77160,"Delta":151343703},{"NoteNumber":66,"Velocity":62,"Duration":77160,"SoundDuration":77160,"Delta":151498024},{"NoteNumber":62,"Velocity":52,"Duration":77160,"SoundDuration":77160,"Delta":151498024},{"NoteNumber":54,"Velocity":52,"Duration":77160,"SoundDuration":77160,"Delta":151498024},{"NoteNumber":66,"Velocity":58,"Duration":80601,"SoundDuration":80601,"Delta":151652345},{"NoteNumber":62,"Velocity":49,"Duration":80601,"SoundDuration":80601,"Delta":151652345},{"NoteNumber":54,"Velocity":49,"Duration":80601,"SoundDuration":80601,"Delta":151652345},{"NoteNumber":61,"Velocity":61,"Duration":77986,"SoundDuration":77986,"Delta":151813548},{"NoteNumber":58,"Velocity":51,"Duration":77986,"SoundDuration":77986,"Delta":151813548},{"NoteNumber":55,"Velocity":51,"Duration":77986,"SoundDuration":77986,"Delta":151813548},{"NoteNumber":61,"Velocity":50,"Duration":77986,"SoundDuration":77986,"Delta":151969522},{"NoteNumber":58,"Velocity":42,"Duration":77986,"SoundDuration":77986,"Delta":151969522},{"NoteNumber":55,"Velocity":42,"Duration":77986,"SoundDuration":77986,"Delta":151969522},{"NoteNumber":62,"Velocity":57,"Duration":77986,"SoundDuration":77986,"Delta":152125496},{"NoteNumber":59,"Velocity":48,"Duration":77986,"SoundDuration":77986,"Delta":152125496},{"NoteNumber":53,"Velocity":57,"Duration":77986,"SoundDuration":77986,"Delta":152125496},{"NoteNumber":62,"Velocity":45,"Duration":77986,"SoundDuration":77986,"Delta":152281470},{"NoteNumber":59,"Velocity":38,"Duration":77986,"SoundDuration":77986,"Delta":152281470},{"NoteNumber":53,"Velocity":38,"Duration":77986,"SoundDuration":77986,"Delta":152281470},{"NoteNumber":59,"Velocity":43,"Duration":77160,"SoundDuration":77160,"Delta":152437443},{"NoteNumber":62,"Velocity":51,"Duration":77160,"SoundDuration":77160,"Delta":152437443},{"NoteNumber":54,"Velocity":43,"Duration":77160,"SoundDuration":77160,"Delta":152437443},{"NoteNumber":62,"Velocity":40,"Duration":77160,"SoundDuration":77160,"Delta":152591764},{"NoteNumber":59,"Velocity":34,"Duration":77160,"SoundDuration":77160,"Delta":152591764},{"NoteNumber":54,"Velocity":34,"Duration":77160,"SoundDuration":77160,"Delta":152591764},{"NoteNumber":59,"Velocity":50,"Duration":78410,"SoundDuration":78410,"Delta":152746085},{"NoteNumber":54,"Velocity":42,"Duration":78410,"SoundDuration":78410,"Delta":152746085},{"NoteNumber":49,"Velocity":42,"Duration":78410,"SoundDuration":78410,"Delta":152746085},{"NoteNumber":54,"Velocity":36,"Duration":80153,"SoundDuration":80153,"Delta":152902907},{"NoteNumber":59,"Velocity":43,"Duration":80153,"SoundDuration":80153,"Delta":152902907},{"NoteNumber":49,"Velocity":36,"Duration":80153,"SoundDuration":80153,"Delta":152902907},{"NoteNumber":59,"Velocity":50,"Duration":77986,"SoundDuration":77986,"Delta":153063215},{"NoteNumber":54,"Velocity":42,"Duration":77986,"SoundDuration":77986,"Delta":153063215},{"NoteNumber":50,"Velocity":42,"Duration":77986,"SoundDuration":77986,"Delta":153063215},{"NoteNumber":54,"Velocity":35,"Duration":77986,"SoundDuration":77986,"Delta":153219189},{"NoteNumber":59,"Velocity":42,"Duration":77986,"SoundDuration":77986,"Delta":153219189},{"NoteNumber":50,"Velocity":35,"Duration":77986,"SoundDuration":77986,"Delta":153219189},{"NoteNumber":66,"Velocity":50,"Duration":152687,"SoundDuration":152687,"Delta":153375162},{"NoteNumber":59,"Velocity":40,"Duration":76343,"SoundDuration":76343,"Delta":153375162},{"NoteNumber":54,"Velocity":32,"Duration":76343,"SoundDuration":76343,"Delta":153375162},{"NoteNumber":42,"Velocity":32,"Duration":76343,"SoundDuration":76343,"Delta":153375162},{"NoteNumber":42,"Velocity":30,"Duration":83388,"SoundDuration":83388,"Delta":153527850},{"NoteNumber":54,"Velocity":30,"Duration":83388,"SoundDuration":83388,"Delta":153527850},{"NoteNumber":59,"Velocity":38,"Duration":83388,"SoundDuration":83388,"Delta":153527850},{"NoteNumber":66,"Velocity":56,"Duration":293859,"SoundDuration":293859,"Delta":153694627},{"NoteNumber":59,"Velocity":33,"Duration":73623,"SoundDuration":73623,"Delta":153694627},{"NoteNumber":54,"Velocity":33,"Duration":73623,"SoundDuration":73623,"Delta":153694627},{"NoteNumber":47,"Velocity":40,"Duration":73623,"SoundDuration":73623,"Delta":153694627},{"NoteNumber":59,"Velocity":34,"Duration":73623,"SoundDuration":73623,"Delta":153841874},{"NoteNumber":54,"Velocity":34,"Duration":73623,"SoundDuration":73623,"Delta":153841874},{"NoteNumber":47,"Velocity":34,"Duration":73623,"SoundDuration":73623,"Delta":153841874},{"NoteNumber":62,"Velocity":45,"Duration":73623,"SoundDuration":73623,"Delta":153841874},{"NoteNumber":68,"Velocity":63,"Duration":69072,"SoundDuration":69072,"Delta":153988487},{"NoteNumber":59,"Velocity":40,"Duration":69072,"SoundDuration":69072,"Delta":153988487},{"NoteNumber":54,"Velocity":40,"Duration":69072,"SoundDuration":69072,"Delta":153988487},{"NoteNumber":47,"Velocity":40,"Duration":69072,"SoundDuration":69072,"Delta":153988487},{"NoteNumber":62,"Velocity":40,"Duration":69072,"SoundDuration":69072,"Delta":153988487},{"NoteNumber":66,"Velocity":51,"Duration":69072,"SoundDuration":69072,"Delta":153988487},{"NoteNumber":70,"Velocity":69,"Duration":67598,"SoundDuration":67598,"Delta":154125556},{"NoteNumber":59,"Velocity":45,"Duration":67598,"SoundDuration":67598,"Delta":154125556},{"NoteNumber":54,"Velocity":45,"Duration":67598,"SoundDuration":67598,"Delta":154125556},{"NoteNumber":47,"Velocity":45,"Duration":67598,"SoundDuration":67598,"Delta":154125556},{"NoteNumber":62,"Velocity":45,"Duration":67598,"SoundDuration":67598,"Delta":154125556},{"NoteNumber":66,"Velocity":58,"Duration":67598,"SoundDuration":67598,"Delta":154125556},{"NoteNumber":71,"Velocity":80,"Duration":66738,"SoundDuration":66738,"Delta":154260359},{"NoteNumber":59,"Velocity":53,"Duration":66738,"SoundDuration":66738,"Delta":154260359},{"NoteNumber":54,"Velocity":53,"Duration":66738,"SoundDuration":66738,"Delta":154260359},{"NoteNumber":47,"Velocity":53,"Duration":66738,"SoundDuration":66738,"Delta":154260359},{"NoteNumber":62,"Velocity":53,"Duration":66738,"SoundDuration":66738,"Delta":154260359},{"NoteNumber":66,"Velocity":67,"Duration":66738,"SoundDuration":66738,"Delta":154260359},{"NoteNumber":73,"Velocity":91,"Duration":79272,"SoundDuration":79272,"Delta":154393451},{"NoteNumber":59,"Velocity":63,"Duration":79272,"SoundDuration":79272,"Delta":154393451},{"NoteNumber":54,"Velocity":63,"Duration":79272,"SoundDuration":79272,"Delta":154393451},{"NoteNumber":47,"Velocity":63,"Duration":79272,"SoundDuration":79272,"Delta":154393451},{"NoteNumber":62,"Velocity":63,"Duration":79272,"SoundDuration":79272,"Delta":154393451},{"NoteNumber":66,"Velocity":78,"Duration":79272,"SoundDuration":79272,"Delta":154393451},{"NoteNumber":74,"Velocity":101,"Duration":5537414,"SoundDuration":5537414,"Delta":154551997},{"NoteNumber":62,"Velocity":62,"Duration":73623,"SoundDuration":73623,"Delta":154551997},{"NoteNumber":66,"Velocity":74,"Duration":73623,"SoundDuration":73623,"Delta":154551997},{"NoteNumber":59,"Velocity":62,"Duration":73623,"SoundDuration":73623,"Delta":154551997},{"NoteNumber":54,"Velocity":52,"Duration":73623,"SoundDuration":73623,"Delta":154551997},{"NoteNumber":47,"Velocity":52,"Duration":73623,"SoundDuration":73623,"Delta":154551997},{"NoteNumber":66,"Velocity":62,"Duration":73623,"SoundDuration":73623,"Delta":154699243},{"NoteNumber":59,"Velocity":52,"Duration":73623,"SoundDuration":73623,"Delta":154699243},{"NoteNumber":54,"Velocity":44,"Duration":73623,"SoundDuration":73623,"Delta":154699243},{"NoteNumber":47,"Velocity":44,"Duration":73623,"SoundDuration":73623,"Delta":154699243},{"NoteNumber":62,"Velocity":52,"Duration":73623,"SoundDuration":73623,"Delta":154699243},{"NoteNumber":59,"Velocity":58,"Duration":72512,"SoundDuration":72512,"Delta":154846490},{"NoteNumber":54,"Velocity":49,"Duration":72512,"SoundDuration":72512,"Delta":154846490},{"NoteNumber":47,"Velocity":49,"Duration":72512,"SoundDuration":72512,"Delta":154846490},{"NoteNumber":62,"Velocity":58,"Duration":72512,"SoundDuration":72512,"Delta":154846490},{"NoteNumber":66,"Velocity":69,"Duration":72512,"SoundDuration":72512,"Delta":154846490},{"NoteNumber":59,"Velocity":54,"Duration":74760,"SoundDuration":74760,"Delta":154991515},{"NoteNumber":54,"Velocity":45,"Duration":74760,"SoundDuration":74760,"Delta":154991515},{"NoteNumber":47,"Velocity":45,"Duration":74760,"SoundDuration":74760,"Delta":154991515},{"NoteNumber":62,"Velocity":54,"Duration":74760,"SoundDuration":74760,"Delta":154991515},{"NoteNumber":66,"Velocity":63,"Duration":74760,"SoundDuration":74760,"Delta":154991515},{"NoteNumber":59,"Velocity":59,"Duration":74760,"SoundDuration":74760,"Delta":155141037},{"NoteNumber":54,"Velocity":50,"Duration":74760,"SoundDuration":74760,"Delta":155141037},{"NoteNumber":47,"Velocity":50,"Duration":74760,"SoundDuration":74760,"Delta":155141037},{"NoteNumber":62,"Velocity":59,"Duration":74760,"SoundDuration":74760,"Delta":155141037},{"NoteNumber":66,"Velocity":70,"Duration":74760,"SoundDuration":74760,"Delta":155141037},{"NoteNumber":66,"Velocity":62,"Duration":75941,"SoundDuration":75941,"Delta":155290558},{"NoteNumber":62,"Velocity":53,"Duration":75941,"SoundDuration":75941,"Delta":155290558},{"NoteNumber":47,"Velocity":44,"Duration":75941,"SoundDuration":75941,"Delta":155290558},{"NoteNumber":54,"Velocity":44,"Duration":75941,"SoundDuration":75941,"Delta":155290558},{"NoteNumber":59,"Velocity":53,"Duration":75941,"SoundDuration":75941,"Delta":155290558},{"NoteNumber":62,"Velocity":57,"Duration":73249,"SoundDuration":73249,"Delta":155442441},{"NoteNumber":66,"Velocity":68,"Duration":73249,"SoundDuration":73249,"Delta":155442441},{"NoteNumber":59,"Velocity":57,"Duration":73249,"SoundDuration":73249,"Delta":155442441},{"NoteNumber":54,"Velocity":48,"Duration":73249,"SoundDuration":73249,"Delta":155442441},{"NoteNumber":47,"Velocity":48,"Duration":73249,"SoundDuration":73249,"Delta":155442441},{"NoteNumber":66,"Velocity":58,"Duration":73249,"SoundDuration":73249,"Delta":155588940},{"NoteNumber":59,"Velocity":49,"Duration":73249,"SoundDuration":73249,"Delta":155588940},{"NoteNumber":54,"Velocity":40,"Duration":73249,"SoundDuration":73249,"Delta":155588940},{"NoteNumber":47,"Velocity":40,"Duration":73249,"SoundDuration":73249,"Delta":155588940},{"NoteNumber":62,"Velocity":49,"Duration":73249,"SoundDuration":73249,"Delta":155588940},{"NoteNumber":59,"Velocity":55,"Duration":72512,"SoundDuration":72512,"Delta":155735439},{"NoteNumber":54,"Velocity":46,"Duration":72512,"SoundDuration":72512,"Delta":155735439},{"NoteNumber":47,"Velocity":46,"Duration":72512,"SoundDuration":72512,"Delta":155735439},{"NoteNumber":62,"Velocity":55,"Duration":72512,"SoundDuration":72512,"Delta":155735439},{"NoteNumber":66,"Velocity":65,"Duration":72512,"SoundDuration":72512,"Delta":155735439},{"NoteNumber":59,"Velocity":49,"Duration":75150,"SoundDuration":75150,"Delta":155880464},{"NoteNumber":54,"Velocity":41,"Duration":75150,"SoundDuration":75150,"Delta":155880464},{"NoteNumber":47,"Velocity":41,"Duration":75150,"SoundDuration":75150,"Delta":155880464},{"NoteNumber":62,"Velocity":49,"Duration":75150,"SoundDuration":75150,"Delta":155880464},{"NoteNumber":66,"Velocity":58,"Duration":75150,"SoundDuration":75150,"Delta":155880464},{"NoteNumber":59,"Velocity":53,"Duration":72879,"SoundDuration":72879,"Delta":156030765},{"NoteNumber":54,"Velocity":44,"Duration":72879,"SoundDuration":72879,"Delta":156030765},{"NoteNumber":47,"Velocity":44,"Duration":72879,"SoundDuration":72879,"Delta":156030765},{"NoteNumber":62,"Velocity":53,"Duration":72879,"SoundDuration":72879,"Delta":156030765},{"NoteNumber":66,"Velocity":63,"Duration":72879,"SoundDuration":72879,"Delta":156030765},{"NoteNumber":66,"Velocity":59,"Duration":75543,"SoundDuration":75543,"Delta":156176523},{"NoteNumber":62,"Velocity":50,"Duration":75543,"SoundDuration":75543,"Delta":156176523},{"NoteNumber":47,"Velocity":42,"Duration":75543,"SoundDuration":75543,"Delta":156176523},{"NoteNumber":54,"Velocity":42,"Duration":75543,"SoundDuration":75543,"Delta":156176523},{"NoteNumber":59,"Velocity":50,"Duration":75543,"SoundDuration":75543,"Delta":156176523},{"NoteNumber":66,"Velocity":65,"Duration":220869,"SoundDuration":220869,"Delta":156327611},{"NoteNumber":62,"Velocity":55,"Duration":220869,"SoundDuration":220869,"Delta":156327611},{"NoteNumber":59,"Velocity":55,"Duration":220869,"SoundDuration":220869,"Delta":156327611},{"NoteNumber":54,"Velocity":46,"Duration":220869,"SoundDuration":220869,"Delta":156327611},{"NoteNumber":47,"Velocity":46,"Duration":220869,"SoundDuration":220869,"Delta":156327611},{"NoteNumber":66,"Velocity":55,"Duration":220869,"SoundDuration":220869,"Delta":156622104},{"NoteNumber":62,"Velocity":46,"Duration":220869,"SoundDuration":220869,"Delta":156622104},{"NoteNumber":59,"Velocity":46,"Duration":220869,"SoundDuration":220869,"Delta":156622104},{"NoteNumber":54,"Velocity":39,"Duration":220869,"SoundDuration":220869,"Delta":156622104},{"NoteNumber":47,"Velocity":39,"Duration":220869,"SoundDuration":220869,"Delta":156622104},{"NoteNumber":66,"Velocity":53,"Duration":231481,"SoundDuration":231481,"Delta":156916597},{"NoteNumber":62,"Velocity":45,"Duration":231481,"SoundDuration":231481,"Delta":156916597},{"NoteNumber":59,"Velocity":45,"Duration":231481,"SoundDuration":231481,"Delta":156916597},{"NoteNumber":54,"Velocity":38,"Duration":231481,"SoundDuration":231481,"Delta":156916597},{"NoteNumber":47,"Velocity":38,"Duration":231481,"SoundDuration":231481,"Delta":156916597},{"NoteNumber":62,"Velocity":36,"Duration":308642,"SoundDuration":308642,"Delta":157225239},{"NoteNumber":66,"Velocity":44,"Duration":308642,"SoundDuration":308642,"Delta":157225239},{"NoteNumber":59,"Velocity":36,"Duration":308642,"SoundDuration":308642,"Delta":157225239},{"NoteNumber":54,"Velocity":30,"Duration":308642,"SoundDuration":308642,"Delta":157225239},{"NoteNumber":47,"Velocity":30,"Duration":308642,"SoundDuration":308642,"Delta":157225239},{"NoteNumber":47,"Velocity":27,"Duration":317091,"SoundDuration":317091,"Delta":158151165},{"NoteNumber":54,"Velocity":27,"Duration":317091,"SoundDuration":317091,"Delta":158151165},{"NoteNumber":59,"Velocity":33,"Duration":317091,"SoundDuration":317091,"Delta":158151165},{"NoteNumber":62,"Velocity":33,"Duration":317091,"SoundDuration":317091,"Delta":158151165},{"NoteNumber":66,"Velocity":40,"Duration":317091,"SoundDuration":317091,"Delta":158151165},{"NoteNumber":47,"Velocity":24,"Duration":326015,"SoundDuration":326015,"Delta":159111363},{"NoteNumber":54,"Velocity":24,"Duration":326015,"SoundDuration":326015,"Delta":159111363},{"NoteNumber":59,"Velocity":29,"Duration":326015,"SoundDuration":326015,"Delta":159111363},{"NoteNumber":62,"Velocity":29,"Duration":326015,"SoundDuration":326015,"Delta":159111363},{"NoteNumber":66,"Velocity":35,"Duration":326015,"SoundDuration":326015,"Delta":159111363}]}