{"title":"Mendelssohn: Lieder ohne Worte Opus 19 Nr. 4","artist":"Piano","durationMs":105948,"midiSha256":"c027083de13af2428569f7c80f0c3b69bd498ffb54946504ae1a439b26c775ab","midiObject":[{"NoteNumber":61,"Velocity":42,"Duration":221664,"SoundDuration":221664,"Delta":0},{"NoteNumber":69,"Velocity":50,"Duration":221664,"SoundDuration":221664,"Delta":0},{"NoteNumber":45,"Velocity":34,"Duration":3546624,"SoundDuration":3546624,"Delta":0},{"NoteNumber":57,"Velocity":40,"Duration":3546624,"SoundDuration":3546624,"Delta":0},{"NoteNumber":64,"Velocity":36,"Duration":221664,"SoundDuration":221664,"Delta":221664},{"NoteNumber":61,"Velocity":36,"Duration":221664,"SoundDuration":221664,"Delta":443328},{"NoteNumber":64,"Velocity":36,"Duration":221663,"SoundDuration":221663,"Delta":664992},{"NoteNumber":69,"Velocity":50,"Duration":221663,"SoundDuration":221663,"Delta":886656},{"NoteNumber":64,"Velocity":34,"Duration":221664,"SoundDuration":221664,"Delta":1108320},{"NoteNumber":71,"Velocity":45,"Duration":221663,"SoundDuration":221663,"Delta":1329984},{"NoteNumber":68,"Velocity":38,"Duration":221663,"SoundDuration":221663,"Delta":1329984},{"NoteNumber":64,"Velocity":33,"Duration":221664,"SoundDuration":221664,"Delta":1551648},{"NoteNumber":69,"Velocity":42,"Duration":221664,"SoundDuration":221664,"Delta":1773312},{"NoteNumber":73,"Velocity":50,"Duration":221664,"SoundDuration":221664,"Delta":1773312},{"NoteNumber":64,"Velocity":36,"Duration":221663,"SoundDuration":221663,"Delta":1994976},{"NoteNumber":61,"Velocity":36,"Duration":221664,"SoundDuration":221664,"Delta":2216640},{"NoteNumber":64,"Velocity":36,"Duration":221664,"SoundDuration":221664,"Delta":2438304},{"NoteNumber":73,"Velocity":50,"Duration":221664,"SoundDuration":221664,"Delta":2659968},{"NoteNumber":69,"Velocity":33,"Duration":221663,"SoundDuration":221663,"Delta":2881632},{"NoteNumber":71,"Velocity":42,"Duration":221664,"SoundDuration":221664,"Delta":3103296},{"NoteNumber":74,"Velocity":50,"Duration":221664,"SoundDuration":221664,"Delta":3103296},{"NoteNumber":69,"Velocity":33,"Duration":221664,"SoundDuration":221664,"Delta":3324960},{"NoteNumber":73,"Velocity":43,"Duration":221664,"SoundDuration":221664,"Delta":3546624},{"NoteNumber":76,"Velocity":51,"Duration":221664,"SoundDuration":221664,"Delta":3546624},{"NoteNumber":33,"Velocity":34,"Duration":1323528,"SoundDuration":1323528,"Delta":3546624},{"NoteNumber":45,"Velocity":40,"Duration":1323528,"SoundDuration":1323528,"Delta":3546624},{"NoteNumber":69,"Velocity":40,"Duration":221664,"SoundDuration":221664,"Delta":3768288},{"NoteNumber":73,"Velocity":49,"Duration":221664,"SoundDuration":221664,"Delta":3989952},{"NoteNumber":76,"Velocity":58,"Duration":221664,"SoundDuration":221664,"Delta":3989952},{"NoteNumber":69,"Velocity":43,"Duration":221663,"SoundDuration":221663,"Delta":4211616},{"NoteNumber":74,"Velocity":53,"Duration":218435,"SoundDuration":218435,"Delta":4433280},{"NoteNumber":78,"Velocity":63,"Duration":218435,"SoundDuration":218435,"Delta":4433280},{"NoteNumber":69,"Velocity":41,"Duration":218436,"SoundDuration":218436,"Delta":4651715},{"NoteNumber":76,"Velocity":56,"Duration":230167,"SoundDuration":230167,"Delta":4870152},{"NoteNumber":80,"Velocity":67,"Duration":230167,"SoundDuration":230167,"Delta":4870152},{"NoteNumber":32,"Velocity":34,"Duration":483673,"SoundDuration":483673,"Delta":4870152},{"NoteNumber":44,"Velocity":40,"Duration":483673,"SoundDuration":483673,"Delta":4870152},{"NoteNumber":69,"Velocity":48,"Duration":253506,"SoundDuration":253506,"Delta":5100319},{"NoteNumber":80,"Velocity":47,"Duration":223314,"SoundDuration":223314,"Delta":5353826},{"NoteNumber":83,"Velocity":56,"Duration":446627,"SoundDuration":446627,"Delta":5353826},{"NoteNumber":42,"Velocity":45,"Duration":2666568,"SoundDuration":2666568,"Delta":5353826},{"NoteNumber":30,"Velocity":38,"Duration":2666568,"SoundDuration":2666568,"Delta":5353826},{"NoteNumber":69,"Velocity":33,"Duration":223313,"SoundDuration":223313,"Delta":5577140},{"NoteNumber":81,"Velocity":52,"Duration":446628,"SoundDuration":446628,"Delta":5800453},{"NoteNumber":78,"Velocity":44,"Duration":223314,"SoundDuration":223314,"Delta":5800453},{"NoteNumber":69,"Velocity":29,"Duration":223314,"SoundDuration":223314,"Delta":6023768},{"NoteNumber":80,"Velocity":48,"Duration":443328,"SoundDuration":443328,"Delta":6247082},{"NoteNumber":76,"Velocity":40,"Duration":221663,"SoundDuration":221663,"Delta":6247082},{"NoteNumber":69,"Velocity":29,"Duration":221664,"SoundDuration":221664,"Delta":6468745},{"NoteNumber":78,"Velocity":49,"Duration":443328,"SoundDuration":443328,"Delta":6690410},{"NoteNumber":74,"Velocity":41,"Duration":221663,"SoundDuration":221663,"Delta":6690410},{"NoteNumber":69,"Velocity":36,"Duration":221664,"SoundDuration":221664,"Delta":6912074},{"NoteNumber":76,"Velocity":49,"Duration":443328,"SoundDuration":443328,"Delta":7133738},{"NoteNumber":73,"Velocity":41,"Duration":221663,"SoundDuration":221663,"Delta":7133738},{"NoteNumber":66,"Velocity":29,"Duration":221664,"SoundDuration":221664,"Delta":7355402},{"NoteNumber":74,"Velocity":48,"Duration":443327,"SoundDuration":443327,"Delta":7577066},{"NoteNumber":71,"Velocity":40,"Duration":221663,"SoundDuration":221663,"Delta":7577066},{"NoteNumber":66,"Velocity":24,"Duration":221663,"SoundDuration":221663,"Delta":7798730},{"NoteNumber":73,"Velocity":47,"Duration":443328,"SoundDuration":443328,"Delta":8020394},{"NoteNumber":64,"Velocity":39,"Duration":221664,"SoundDuration":221664,"Delta":8020394},{"NoteNumber":50,"Velocity":46,"Duration":896938,"SoundDuration":896938,"Delta":8020394},{"NoteNumber":38,"Velocity":39,"Duration":896938,"SoundDuration":896938,"Delta":8020394},{"NoteNumber":66,"Velocity":34,"Duration":221664,"SoundDuration":221664,"Delta":8242058},{"NoteNumber":71,"Velocity":45,"Duration":453610,"SoundDuration":453610,"Delta":8463722},{"NoteNumber":62,"Velocity":38,"Duration":221663,"SoundDuration":221663,"Delta":8463722},{"NoteNumber":66,"Velocity":33,"Duration":231946,"SoundDuration":231946,"Delta":8685386},{"NoteNumber":69,"Velocity":45,"Duration":443327,"SoundDuration":443327,"Delta":8917332},{"NoteNumber":61,"Velocity":38,"Duration":221664,"SoundDuration":221664,"Delta":8917332},{"NoteNumber":52,"Velocity":43,"Duration":1767585,"SoundDuration":1767585,"Delta":8917332},{"NoteNumber":40,"Velocity":36,"Duration":1767585,"SoundDuration":1767585,"Delta":8917332},{"NoteNumber":64,"Velocity":33,"Duration":221663,"SoundDuration":221663,"Delta":9138996},{"NoteNumber":73,"Velocity":47,"Duration":433714,"SoundDuration":433714,"Delta":9360660},{"NoteNumber":64,"Velocity":33,"Duration":216857,"SoundDuration":216857,"Delta":9577517},{"NoteNumber":62,"Velocity":35,"Duration":216856,"SoundDuration":216856,"Delta":9794374},{"NoteNumber":71,"Velocity":42,"Duration":433714,"SoundDuration":433714,"Delta":9794374},{"NoteNumber":64,"Velocity":32,"Duration":216857,"SoundDuration":216857,"Delta":10011231},{"NoteNumber":68,"Velocity":42,"Duration":456829,"SoundDuration":456829,"Delta":10228088},{"NoteNumber":64,"Velocity":29,"Duration":228414,"SoundDuration":228414,"Delta":10456503},{"NoteNumber":61,"Velocity":37,"Duration":220038,"SoundDuration":220038,"Delta":10684918},{"NoteNumber":69,"Velocity":45,"Duration":220038,"SoundDuration":220038,"Delta":10684918},{"NoteNumber":52,"Velocity":43,"Duration":880153,"SoundDuration":880153,"Delta":10684918},{"NoteNumber":45,"Velocity":36,"Duration":880153,"SoundDuration":880153,"Delta":10684918},{"NoteNumber":64,"Velocity":32,"Duration":220038,"SoundDuration":220038,"Delta":10904956},{"NoteNumber":61,"Velocity":31,"Duration":220038,"SoundDuration":220038,"Delta":11124994},{"NoteNumber":64,"Velocity":30,"Duration":220038,"SoundDuration":220038,"Delta":11345032},{"NoteNumber":69,"Velocity":39,"Duration":220038,"SoundDuration":220038,"Delta":11565071},{"NoteNumber":73,"Velocity":32,"Duration":220038,"SoundDuration":220038,"Delta":11785109},{"NoteNumber":76,"Velocity":37,"Duration":213766,"SoundDuration":213766,"Delta":12005147},{"NoteNumber":73,"Velocity":33,"Duration":213766,"SoundDuration":213766,"Delta":12218914},{"NoteNumber":61,"Velocity":31,"Duration":446628,"SoundDuration":446628,"Delta":12432680},{"NoteNumber":69,"Velocity":37,"Duration":446628,"SoundDuration":446628,"Delta":12432680},{"NoteNumber":45,"Velocity":25,"Duration":446628,"SoundDuration":446628,"Delta":12432680},{"NoteNumber":52,"Velocity":30,"Duration":446628,"SoundDuration":446628,"Delta":12432680},{"NoteNumber":69,"Velocity":34,"Duration":446628,"SoundDuration":446628,"Delta":13325936},{"NoteNumber":61,"Velocity":29,"Duration":446628,"SoundDuration":446628,"Delta":13325936},{"NoteNumber":52,"Velocity":27,"Duration":446628,"SoundDuration":446628,"Delta":13325936},{"NoteNumber":45,"Velocity":23,"Duration":446628,"SoundDuration":446628,"Delta":13325936},{"NoteNumber":61,"Velocity":37,"Duration":446627,"SoundDuration":446627,"Delta":14219192},{"NoteNumber":69,"Velocity":37,"Duration":446627,"SoundDuration":446627,"Delta":14219192},{"NoteNumber":45,"Velocity":30,"Duration":446627,"SoundDuration":446627,"Delta":14219192},{"NoteNumber":52,"Velocity":30,"Duration":446627,"SoundDuration":446627,"Delta":14219192},{"NoteNumber":64,"Velocity":52,"Duration":446628,"SoundDuration":446628,"Delta":15559076},{"NoteNumber":52,"Velocity":42,"Duration":446628,"SoundDuration":446628,"Delta":15559076},{"NoteNumber":69,"Velocity":60,"Duration":848593,"SoundDuration":848593,"Delta":16005704},{"NoteNumber":64,"Velocity":51,"Duration":848593,"SoundDuration":848593,"Delta":16005704},{"NoteNumber":57,"Velocity":53,"Duration":848593,"SoundDuration":848593,"Delta":16005704},{"NoteNumber":49,"Velocity":45,"Duration":848593,"SoundDuration":848593,"Delta":16005704},{"NoteNumber":71,"Velocity":69,"Duration":874635,"SoundDuration":874635,"Delta":16898960},{"NoteNumber":68,"Velocity":58,"Duration":874635,"SoundDuration":874635,"Delta":16898960},{"NoteNumber":64,"Velocity":58,"Duration":874635,"SoundDuration":874635,"Delta":16898960},{"NoteNumber":59,"Velocity":54,"Duration":874635,"SoundDuration":874635,"Delta":16898960},{"NoteNumber":52,"Velocity":46,"Duration":874635,"SoundDuration":874635,"Delta":16898960},{"NoteNumber":73,"Velocity":73,"Duration":1326857,"SoundDuration":1326857,"Delta":17819629},{"NoteNumber":69,"Velocity":60,"Duration":1326857,"SoundDuration":1326857,"Delta":17819629},{"NoteNumber":64,"Velocity":60,"Duration":1326857,"SoundDuration":1326857,"Delta":17819629},{"NoteNumber":57,"Velocity":49,"Duration":1769763,"SoundDuration":1769763,"Delta":17819629},{"NoteNumber":61,"Velocity":58,"Duration":1769763,"SoundDuration":1769763,"Delta":17819629},{"NoteNumber":73,"Velocity":59,"Duration":435462,"SoundDuration":435462,"Delta":19159513},{"NoteNumber":73,"Velocity":68,"Duration":435462,"SoundDuration":435462,"Delta":19606141},{"NoteNumber":69,"Velocity":57,"Duration":446628,"SoundDuration":446628,"Delta":19606141},{"NoteNumber":66,"Velocity":57,"Duration":446628,"SoundDuration":446628,"Delta":19606141},{"NoteNumber":61,"Velocity":56,"Duration":1732289,"SoundDuration":1732289,"Delta":19606141},{"NoteNumber":57,"Velocity":46,"Duration":1732289,"SoundDuration":1732289,"Delta":19606141},{"NoteNumber":54,"Velocity":46,"Duration":1732289,"SoundDuration":1732289,"Delta":19606141},{"NoteNumber":73,"Velocity":59,"Duration":446628,"SoundDuration":446628,"Delta":20052769},{"NoteNumber":76,"Velocity":72,"Duration":641299,"SoundDuration":641299,"Delta":20499397},{"NoteNumber":74,"Velocity":59,"Duration":213766,"SoundDuration":213766,"Delta":21140697},{"NoteNumber":73,"Velocity":69,"Duration":886655,"SoundDuration":886655,"Delta":21354463},{"NoteNumber":66,"Velocity":58,"Duration":886655,"SoundDuration":886655,"Delta":21354463},{"NoteNumber":54,"Velocity":57,"Duration":1773312,"SoundDuration":1773312,"Delta":21354463},{"NoteNumber":50,"Velocity":48,"Duration":1773312,"SoundDuration":1773312,"Delta":21354463},{"NoteNumber":71,"Velocity":52,"Duration":421161,"SoundDuration":421161,"Delta":22241119},{"NoteNumber":71,"Velocity":47,"Duration":421161,"SoundDuration":421161,"Delta":22684447},{"NoteNumber":74,"Velocity":57,"Duration":842323,"SoundDuration":842323,"Delta":23127775},{"NoteNumber":66,"Velocity":48,"Duration":842323,"SoundDuration":842323,"Delta":23127775},{"NoteNumber":56,"Velocity":45,"Duration":842323,"SoundDuration":842323,"Delta":23127775},{"NoteNumber":47,"Velocity":38,"Duration":842323,"SoundDuration":842323,"Delta":23127775},{"NoteNumber":73,"Velocity":53,"Duration":913658,"SoundDuration":913658,"Delta":24014431},{"NoteNumber":65,"Velocity":45,"Duration":913658,"SoundDuration":913658,"Delta":24014431},{"NoteNumber":49,"Velocity":34,"Duration":913658,"SoundDuration":913658,"Delta":24014431},{"NoteNumber":56,"Velocity":40,"Duration":913658,"SoundDuration":913658,"Delta":24014431},{"NoteNumber":61,"Velocity":42,"Duration":1310615,"SoundDuration":1310615,"Delta":24928090},{"NoteNumber":66,"Velocity":42,"Duration":1310615,"SoundDuration":1310615,"Delta":24928090},{"NoteNumber":69,"Velocity":50,"Duration":1306975,"SoundDuration":1306975,"Delta":24928090},{"NoteNumber":54,"Velocity":34,"Duration":1747488,"SoundDuration":1747488,"Delta":24928090},{"NoteNumber":57,"Velocity":40,"Duration":1747488,"SoundDuration":1747488,"Delta":24928090},{"NoteNumber":69,"Velocity":37,"Duration":436872,"SoundDuration":436872,"Delta":26238706},{"NoteNumber":71,"Velocity":42,"Duration":1381664,"SoundDuration":1381664,"Delta":26675578},{"NoteNumber":69,"Velocity":42,"Duration":906755,"SoundDuration":906755,"Delta":26675578},{"NoteNumber":62,"Velocity":42,"Duration":1915756,"SoundDuration":1915756,"Delta":26675578},{"NoteNumber":52,"Velocity":31,"Duration":1915756,"SoundDuration":1915756,"Delta":26675578},{"NoteNumber":40,"Velocity":26,"Duration":1915756,"SoundDuration":1915756,"Delta":26675578},{"NoteNumber":68,"Velocity":38,"Duration":1009001,"SoundDuration":1009001,"Delta":27582333},{"NoteNumber":73,"Velocity":34,"Duration":534092,"SoundDuration":534092,"Delta":28057242},{"NoteNumber":61,"Velocity":32,"Duration":913658,"SoundDuration":913658,"Delta":28591335},{"NoteNumber":69,"Velocity":38,"Duration":913658,"SoundDuration":913658,"Delta":28591335},{"NoteNumber":52,"Velocity":32,"Duration":913658,"SoundDuration":913658,"Delta":28591335},{"NoteNumber":45,"Velocity":27,"Duration":913658,"SoundDuration":913658,"Delta":28591335},{"NoteNumber":64,"Velocity":68,"Duration":446628,"SoundDuration":446628,"Delta":29961824},{"NoteNumber":52,"Velocity":54,"Duration":446628,"SoundDuration":446628,"Delta":29961824},{"NoteNumber":69,"Velocity":69,"Duration":848593,"SoundDuration":848593,"Delta":30408452},{"NoteNumber":64,"Velocity":58,"Duration":848593,"SoundDuration":848593,"Delta":30408452},{"NoteNumber":57,"Velocity":60,"Duration":848593,"SoundDuration":848593,"Delta":30408452},{"NoteNumber":49,"Velocity":51,"Duration":848593,"SoundDuration":848593,"Delta":30408452},{"NoteNumber":71,"Velocity":78,"Duration":874635,"SoundDuration":874635,"Delta":31301708},{"NoteNumber":68,"Velocity":67,"Duration":874635,"SoundDuration":874635,"Delta":31301708},{"NoteNumber":64,"Velocity":67,"Duration":874635,"SoundDuration":874635,"Delta":31301708},{"NoteNumber":59,"Velocity":61,"Duration":874635,"SoundDuration":874635,"Delta":31301708},{"NoteNumber":52,"Velocity":52,"Duration":874635,"SoundDuration":874635,"Delta":31301708},{"NoteNumber":73,"Velocity":84,"Duration":1326857,"SoundDuration":1326857,"Delta":32222377},{"NoteNumber":69,"Velocity":69,"Duration":1326857,"SoundDuration":1326857,"Delta":32222377},{"NoteNumber":64,"Velocity":69,"Duration":1326857,"SoundDuration":1326857,"Delta":32222377},{"NoteNumber":57,"Velocity":56,"Duration":1786512,"SoundDuration":1786512,"Delta":32222377},{"NoteNumber":61,"Velocity":67,"Duration":1326857,"SoundDuration":1326857,"Delta":32222377},{"NoteNumber":73,"Velocity":68,"Duration":424296,"SoundDuration":424296,"Delta":33562261},{"NoteNumber":61,"Velocity":56,"Duration":424296,"SoundDuration":424296,"Delta":33562261},{"NoteNumber":73,"Velocity":77,"Duration":424296,"SoundDuration":424296,"Delta":34008889},{"NoteNumber":69,"Velocity":66,"Duration":1748322,"SoundDuration":1748322,"Delta":34008889},{"NoteNumber":66,"Velocity":66,"Duration":1748322,"SoundDuration":1748322,"Delta":34008889},{"NoteNumber":61,"Velocity":65,"Duration":424296,"SoundDuration":424296,"Delta":34008889},{"NoteNumber":57,"Velocity":52,"Duration":1748322,"SoundDuration":1748322,"Delta":34008889},{"NoteNumber":54,"Velocity":52,"Duration":1748322,"SoundDuration":1748322,"Delta":34008889},{"NoteNumber":73,"Velocity":68,"Duration":316361,"SoundDuration":316361,"Delta":34455517},{"NoteNumber":61,"Velocity":58,"Duration":424296,"SoundDuration":424296,"Delta":34455517},{"NoteNumber":73,"Velocity":65,"Duration":111657,"SoundDuration":111657,"Delta":34790488},{"NoteNumber":76,"Velocity":82,"Duration":641299,"SoundDuration":641299,"Delta":34902145},{"NoteNumber":64,"Velocity":65,"Duration":641299,"SoundDuration":641299,"Delta":34902145},{"NoteNumber":74,"Velocity":68,"Duration":213766,"SoundDuration":213766,"Delta":35543444},{"NoteNumber":62,"Velocity":57,"Duration":213766,"SoundDuration":213766,"Delta":35543444},{"NoteNumber":73,"Velocity":78,"Duration":886656,"SoundDuration":886656,"Delta":35757211},{"NoteNumber":66,"Velocity":67,"Duration":886656,"SoundDuration":886656,"Delta":35757211},{"NoteNumber":50,"Velocity":66,"Duration":886656,"SoundDuration":886656,"Delta":35757211},{"NoteNumber":61,"Velocity":54,"Duration":886656,"SoundDuration":886656,"Delta":35757211},{"NoteNumber":71,"Velocity":55,"Duration":421161,"SoundDuration":421161,"Delta":36643867},{"NoteNumber":59,"Velocity":40,"Duration":443328,"SoundDuration":443328,"Delta":36643867},{"NoteNumber":71,"Velocity":48,"Duration":421161,"SoundDuration":421161,"Delta":37087195},{"NoteNumber":74,"Velocity":57,"Duration":886656,"SoundDuration":886656,"Delta":37530523},{"NoteNumber":66,"Velocity":48,"Duration":886656,"SoundDuration":886656,"Delta":37530523},{"NoteNumber":47,"Velocity":45,"Duration":886656,"SoundDuration":886656,"Delta":37530523},{"NoteNumber":73,"Velocity":53,"Duration":913659,"SoundDuration":913659,"Delta":38417179},{"NoteNumber":65,"Velocity":45,"Duration":913659,"SoundDuration":913659,"Delta":38417179},{"NoteNumber":49,"Velocity":34,"Duration":913659,"SoundDuration":913659,"Delta":38417179},{"NoteNumber":56,"Velocity":40,"Duration":913659,"SoundDuration":913659,"Delta":38417179},{"NoteNumber":61,"Velocity":42,"Duration":1310616,"SoundDuration":1310616,"Delta":39330838},{"NoteNumber":66,"Velocity":42,"Duration":1310616,"SoundDuration":1310616,"Delta":39330838},{"NoteNumber":69,"Velocity":50,"Duration":1306975,"SoundDuration":1306975,"Delta":39330838},{"NoteNumber":54,"Velocity":34,"Duration":1747487,"SoundDuration":1747487,"Delta":39330838},{"NoteNumber":57,"Velocity":40,"Duration":1747487,"SoundDuration":1747487,"Delta":39330838},{"NoteNumber":69,"Velocity":37,"Duration":436871,"SoundDuration":436871,"Delta":40641454},{"NoteNumber":71,"Velocity":42,"Duration":1381663,"SoundDuration":1381663,"Delta":41078326},{"NoteNumber":69,"Velocity":42,"Duration":906754,"SoundDuration":906754,"Delta":41078326},{"NoteNumber":62,"Velocity":42,"Duration":1915756,"SoundDuration":1915756,"Delta":41078326},{"NoteNumber":52,"Velocity":31,"Duration":1915756,"SoundDuration":1915756,"Delta":41078326},{"NoteNumber":40,"Velocity":26,"Duration":1915756,"SoundDuration":1915756,"Delta":41078326},{"NoteNumber":68,"Velocity":38,"Duration":1009001,"SoundDuration":1009001,"Delta":41985081},{"NoteNumber":73,"Velocity":34,"Duration":534092,"SoundDuration":534092,"Delta":42459990},{"NoteNumber":61,"Velocity":32,"Duration":886656,"SoundDuration":886656,"Delta":42994083},{"NoteNumber":69,"Velocity":38,"Duration":886656,"SoundDuration":886656,"Delta":42994083},{"NoteNumber":45,"Velocity":27,"Duration":1797492,"SoundDuration":1797492,"Delta":42994083},{"NoteNumber":52,"Velocity":38,"Duration":398995,"SoundDuration":398995,"Delta":43437411},{"NoteNumber":52,"Velocity":41,"Duration":398995,"SoundDuration":398995,"Delta":43880739},{"NoteNumber":52,"Velocity":47,"Duration":420757,"SoundDuration":420757,"Delta":44324067},{"NoteNumber":64,"Velocity":58,"Duration":886656,"SoundDuration":886656,"Delta":44791575},{"NoteNumber":69,"Velocity":58,"Duration":886656,"SoundDuration":886656,"Delta":44791575},{"NoteNumber":76,"Velocity":69,"Duration":886656,"SoundDuration":886656,"Delta":44791575},{"NoteNumber":49,"Velocity":34,"Duration":1781151,"SoundDuration":1781151,"Delta":44791575},{"NoteNumber":52,"Velocity":40,"Duration":398995,"SoundDuration":398995,"Delta":44791575},{"NoteNumber":52,"Velocity":30,"Duration":398995,"SoundDuration":398995,"Delta":45234903},{"NoteNumber":71,"Velocity":53,"Duration":430601,"SoundDuration":430601,"Delta":45678231},{"NoteNumber":74,"Velocity":65,"Duration":430601,"SoundDuration":430601,"Delta":45678231},{"NoteNumber":52,"Velocity":33,"Duration":387541,"SoundDuration":387541,"Delta":45678231},{"NoteNumber":73,"Velocity":53,"Duration":417504,"SoundDuration":417504,"Delta":46108832},{"NoteNumber":69,"Velocity":45,"Duration":417504,"SoundDuration":417504,"Delta":46108832},{"NoteNumber":52,"Velocity":33,"Duration":417504,"SoundDuration":417504,"Delta":46108832},{"NoteNumber":64,"Velocity":58,"Duration":886656,"SoundDuration":886656,"Delta":46572726},{"NoteNumber":68,"Velocity":58,"Duration":886656,"SoundDuration":886656,"Delta":46572726},{"NoteNumber":73,"Velocity":69,"Duration":886656,"SoundDuration":886656,"Delta":46572726},{"NoteNumber":50,"Velocity":34,"Duration":1797492,"SoundDuration":1797492,"Delta":46572726},{"NoteNumber":52,"Velocity":31,"Duration":398995,"SoundDuration":398995,"Delta":47016054},{"NoteNumber":71,"Velocity":63,"Duration":443328,"SoundDuration":443328,"Delta":47459382},{"NoteNumber":52,"Velocity":33,"Duration":398995,"SoundDuration":398995,"Delta":47459382},{"NoteNumber":52,"Velocity":32,"Duration":420757,"SoundDuration":420757,"Delta":47902710},{"NoteNumber":64,"Velocity":45,"Duration":404979,"SoundDuration":404979,"Delta":48370218},{"NoteNumber":69,"Velocity":53,"Duration":404979,"SoundDuration":404979,"Delta":48370218},{"NoteNumber":49,"Velocity":32,"Duration":404979,"SoundDuration":404979,"Delta":48370218},{"NoteNumber":52,"Velocity":38,"Duration":404979,"SoundDuration":404979,"Delta":48370218},{"NoteNumber":64,"Velocity":39,"Duration":404979,"SoundDuration":404979,"Delta":48820195},{"NoteNumber":69,"Velocity":46,"Duration":404979,"SoundDuration":404979,"Delta":48820195},{"NoteNumber":49,"Velocity":26,"Duration":404979,"SoundDuration":404979,"Delta":48820195},{"NoteNumber":52,"Velocity":31,"Duration":404979,"SoundDuration":404979,"Delta":48820195},{"NoteNumber":62,"Velocity":45,"Duration":401965,"SoundDuration":401965,"Delta":49270173},{"NoteNumber":68,"Velocity":54,"Duration":401965,"SoundDuration":401965,"Delta":49270173},{"NoteNumber":47,"Velocity":27,"Duration":401965,"SoundDuration":401965,"Delta":49270173},{"NoteNumber":52,"Velocity":32,"Duration":401965,"SoundDuration":401965,"Delta":49270173},{"NoteNumber":61,"Velocity":39,"Duration":441392,"SoundDuration":441392,"Delta":49716801},{"NoteNumber":66,"Velocity":46,"Duration":441392,"SoundDuration":441392,"Delta":49716801},{"NoteNumber":45,"Velocity":25,"Duration":441392,"SoundDuration":441392,"Delta":49716801},{"NoteNumber":52,"Velocity":30,"Duration":441392,"SoundDuration":441392,"Delta":49716801},{"NoteNumber":59,"Velocity":46,"Duration":1855573,"SoundDuration":1855573,"Delta":50207237},{"NoteNumber":62,"Velocity":46,"Duration":1855573,"SoundDuration":1855573,"Delta":50207237},{"NoteNumber":66,"Velocity":55,"Duration":927787,"SoundDuration":927787,"Delta":50207237},{"NoteNumber":44,"Velocity":33,"Duration":1855573,"SoundDuration":1855573,"Delta":50207237},{"NoteNumber":52,"Velocity":29,"Duration":417504,"SoundDuration":417504,"Delta":50671131},{"NoteNumber":64,"Velocity":52,"Duration":1374414,"SoundDuration":1374414,"Delta":51135024},{"NoteNumber":52,"Velocity":32,"Duration":417504,"SoundDuration":417504,"Delta":51135024},{"NoteNumber":52,"Velocity":27,"Duration":417504,"SoundDuration":417504,"Delta":51598918},{"NoteNumber":61,"Velocity":44,"Duration":446627,"SoundDuration":446627,"Delta":52062811},{"NoteNumber":52,"Velocity":32,"Duration":446627,"SoundDuration":446627,"Delta":52062811},{"NoteNumber":63,"Velocity":45,"Duration":440076,"SoundDuration":440076,"Delta":52509439},{"NoteNumber":66,"Velocity":53,"Duration":440076,"SoundDuration":440076,"Delta":52509439},{"NoteNumber":45,"Velocity":30,"Duration":440076,"SoundDuration":440076,"Delta":52509439},{"NoteNumber":64,"Velocity":45,"Duration":440076,"SoundDuration":440076,"Delta":52949516},{"NoteNumber":68,"Velocity":54,"Duration":440076,"SoundDuration":440076,"Delta":52949516},{"NoteNumber":44,"Velocity":32,"Duration":440076,"SoundDuration":440076,"Delta":52949516},{"NoteNumber":59,"Velocity":45,"Duration":440076,"SoundDuration":440076,"Delta":52949516},{"NoteNumber":66,"Velocity":46,"Duration":467508,"SoundDuration":467508,"Delta":53389592},{"NoteNumber":69,"Velocity":55,"Duration":467508,"SoundDuration":467508,"Delta":53389592},{"NoteNumber":42,"Velocity":32,"Duration":467508,"SoundDuration":467508,"Delta":53389592},{"NoteNumber":57,"Velocity":46,"Duration":467508,"SoundDuration":467508,"Delta":53389592},{"NoteNumber":71,"Velocity":65,"Duration":446627,"SoundDuration":446627,"Delta":53857100},{"NoteNumber":64,"Velocity":55,"Duration":2704319,"SoundDuration":2704319,"Delta":53857100},{"NoteNumber":47,"Velocity":33,"Duration":3686241,"SoundDuration":3686241,"Delta":53857100},{"NoteNumber":56,"Velocity":33,"Duration":1811063,"SoundDuration":1811063,"Delta":53857100},{"NoteNumber":76,"Velocity":66,"Duration":446628,"SoundDuration":446628,"Delta":54303728},{"NoteNumber":71,"Velocity":58,"Duration":682217,"SoundDuration":682217,"Delta":54750356},{"NoteNumber":68,"Velocity":56,"Duration":235589,"SoundDuration":235589,"Delta":55432574},{"NoteNumber":71,"Velocity":66,"Duration":893256,"SoundDuration":893256,"Delta":55668164},{"NoteNumber":54,"Velocity":33,"Duration":1368164,"SoundDuration":1368164,"Delta":55668164},{"NoteNumber":69,"Velocity":56,"Duration":474908,"SoundDuration":474908,"Delta":56561420},{"NoteNumber":63,"Velocity":47,"Duration":971359,"SoundDuration":971359,"Delta":56561420},{"NoteNumber":66,"Velocity":43,"Duration":485887,"SoundDuration":485887,"Delta":57036329},{"NoteNumber":57,"Velocity":33,"Duration":485887,"SoundDuration":485887,"Delta":57036329},{"NoteNumber":59,"Velocity":32,"Duration":1068185,"SoundDuration":1068185,"Delta":57543342},{"NoteNumber":57,"Velocity":32,"Duration":1068185,"SoundDuration":1068185,"Delta":57543342},{"NoteNumber":63,"Velocity":32,"Duration":1068185,"SoundDuration":1068185,"Delta":57543342},{"NoteNumber":66,"Velocity":38,"Duration":1068185,"SoundDuration":1068185,"Delta":57543342},{"NoteNumber":40,"Velocity":33,"Duration":2181564,"SoundDuration":2181564,"Delta":57543342},{"NoteNumber":56,"Velocity":32,"Duration":556689,"SoundDuration":556689,"Delta":58611528},{"NoteNumber":64,"Velocity":38,"Duration":556689,"SoundDuration":556689,"Delta":58611528},{"NoteNumber":61,"Velocity":41,"Duration":886656,"SoundDuration":886656,"Delta":59724907},{"NoteNumber":64,"Velocity":41,"Duration":886656,"SoundDuration":886656,"Delta":59724907},{"NoteNumber":73,"Velocity":49,"Duration":886656,"SoundDuration":886656,"Delta":59724907},{"NoteNumber":45,"Velocity":28,"Duration":886656,"SoundDuration":886656,"Delta":59724907},{"NoteNumber":57,"Velocity":33,"Duration":398995,"SoundDuration":398995,"Delta":59724907},{"NoteNumber":57,"Velocity":24,"Duration":398995,"SoundDuration":398995,"Delta":60168235},{"NoteNumber":64,"Velocity":43,"Duration":427532,"SoundDuration":427532,"Delta":60611563},{"NoteNumber":73,"Velocity":48,"Duration":427532,"SoundDuration":427532,"Delta":60611563},{"NoteNumber":49,"Velocity":28,"Duration":864404,"SoundDuration":864404,"Delta":60611563},{"NoteNumber":57,"Velocity":27,"Duration":384779,"SoundDuration":384779,"Delta":60611563},{"NoteNumber":69,"Velocity":43,"Duration":436872,"SoundDuration":436872,"Delta":61039096},{"NoteNumber":57,"Velocity":27,"Duration":393184,"SoundDuration":393184,"Delta":61039096},{"NoteNumber":62,"Velocity":42,"Duration":899954,"SoundDuration":899954,"Delta":61475968},{"NoteNumber":68,"Velocity":50,"Duration":899954,"SoundDuration":899954,"Delta":61475968},{"NoteNumber":57,"Velocity":33,"Duration":404979,"SoundDuration":404979,"Delta":61475968},{"NoteNumber":50,"Velocity":28,"Duration":1842798,"SoundDuration":1842798,"Delta":61475968},{"NoteNumber":57,"Velocity":25,"Duration":404979,"SoundDuration":404979,"Delta":61925946},{"NoteNumber":66,"Velocity":45,"Duration":449977,"SoundDuration":449977,"Delta":62375923},{"NoteNumber":57,"Velocity":27,"Duration":404979,"SoundDuration":404979,"Delta":62375923},{"NoteNumber":57,"Velocity":27,"Duration":441043,"SoundDuration":441043,"Delta":62825901},{"NoteNumber":61,"Velocity":28,"Duration":903750,"SoundDuration":903750,"Delta":63318767},{"NoteNumber":64,"Velocity":28,"Duration":903750,"SoundDuration":903750,"Delta":63318767},{"NoteNumber":73,"Velocity":35,"Duration":903750,"SoundDuration":903750,"Delta":63318767},{"NoteNumber":45,"Velocity":20,"Duration":903750,"SoundDuration":903750,"Delta":63318767},{"NoteNumber":57,"Velocity":23,"Duration":406687,"SoundDuration":406687,"Delta":63318767},{"NoteNumber":57,"Velocity":16,"Duration":406687,"SoundDuration":406687,"Delta":63770642},{"NoteNumber":64,"Velocity":30,"Duration":458785,"SoundDuration":458785,"Delta":64222518},{"NoteNumber":73,"Velocity":34,"Duration":458785,"SoundDuration":458785,"Delta":64222518},{"NoteNumber":49,"Velocity":20,"Duration":924696,"SoundDuration":924696,"Delta":64222518},{"NoteNumber":57,"Velocity":19,"Duration":412906,"SoundDuration":412906,"Delta":64222518},{"NoteNumber":69,"Velocity":30,"Duration":465911,"SoundDuration":465911,"Delta":64681303},{"NoteNumber":57,"Velocity":19,"Duration":419319,"SoundDuration":419319,"Delta":64681303},{"NoteNumber":62,"Velocity":26,"Duration":939114,"SoundDuration":939114,"Delta":65147214},{"NoteNumber":68,"Velocity":32,"Duration":939114,"SoundDuration":939114,"Delta":65147214},{"NoteNumber":57,"Velocity":20,"Duration":422601,"SoundDuration":422601,"Delta":65147214},{"NoteNumber":50,"Velocity":17,"Duration":1876178,"SoundDuration":1876178,"Delta":65147214},{"NoteNumber":57,"Velocity":15,"Duration":422601,"SoundDuration":422601,"Delta":65616771},{"NoteNumber":66,"Velocity":28,"Duration":469556,"SoundDuration":469556,"Delta":66086328},{"NoteNumber":57,"Velocity":16,"Duration":422601,"SoundDuration":422601,"Delta":66086328},{"NoteNumber":57,"Velocity":19,"Duration":420757,"SoundDuration":420757,"Delta":66555885},{"NoteNumber":66,"Velocity":64,"Duration":2224478,"SoundDuration":2224478,"Delta":67023393},{"NoteNumber":78,"Velocity":73,"Duration":886656,"SoundDuration":886656,"Delta":67023393},{"NoteNumber":57,"Velocity":54,"Duration":398995,"SoundDuration":398995,"Delta":67023393},{"NoteNumber":49,"Velocity":48,"Duration":2224478,"SoundDuration":2224478,"Delta":67023393},{"NoteNumber":57,"Velocity":42,"Duration":398995,"SoundDuration":398995,"Delta":67466721},{"NoteNumber":73,"Velocity":69,"Duration":1337822,"SoundDuration":1337822,"Delta":67910049},{"NoteNumber":57,"Velocity":44,"Duration":387541,"SoundDuration":387541,"Delta":67910049},{"NoteNumber":57,"Velocity":44,"Duration":417504,"SoundDuration":417504,"Delta":68340651},{"NoteNumber":57,"Velocity":40,"Duration":398995,"SoundDuration":398995,"Delta":68804544},{"NoteNumber":66,"Velocity":22,"Duration":332496,"SoundDuration":332496,"Delta":69247872},{"NoteNumber":71,"Velocity":45,"Duration":332496,"SoundDuration":332496,"Delta":69247872},{"NoteNumber":50,"Velocity":22,"Duration":332496,"SoundDuration":332496,"Delta":69247872},{"NoteNumber":57,"Velocity":22,"Duration":332496,"SoundDuration":332496,"Delta":69247872},{"NoteNumber":66,"Velocity":22,"Duration":332495,"SoundDuration":332495,"Delta":69691200},{"NoteNumber":73,"Velocity":45,"Duration":332495,"SoundDuration":332495,"Delta":69691200},{"NoteNumber":49,"Velocity":22,"Duration":332495,"SoundDuration":332495,"Delta":69691200},{"NoteNumber":57,"Velocity":24,"Duration":332495,"SoundDuration":332495,"Delta":69691200},{"NoteNumber":66,"Velocity":22,"Duration":350631,"SoundDuration":350631,"Delta":70134528},{"NoteNumber":74,"Velocity":45,"Duration":350631,"SoundDuration":350631,"Delta":70134528},{"NoteNumber":47,"Velocity":22,"Duration":350631,"SoundDuration":350631,"Delta":70134528},{"NoteNumber":57,"Velocity":24,"Duration":350631,"SoundDuration":350631,"Delta":70134528},{"NoteNumber":64,"Velocity":33,"Duration":1837019,"SoundDuration":1837019,"Delta":70602036},{"NoteNumber":73,"Velocity":39,"Duration":899955,"SoundDuration":899955,"Delta":70602036},{"NoteNumber":52,"Velocity":24,"Duration":1837019,"SoundDuration":1837019,"Delta":70602036},{"NoteNumber":57,"Velocity":28,"Duration":899955,"SoundDuration":899955,"Delta":70602036},{"NoteNumber":71,"Velocity":40,"Duration":401965,"SoundDuration":401965,"Delta":71501991},{"NoteNumber":56,"Velocity":24,"Duration":937064,"SoundDuration":937064,"Delta":71501991},{"NoteNumber":76,"Velocity":34,"Duration":441392,"SoundDuration":441392,"Delta":71948619},{"NoteNumber":64,"Velocity":34,"Duration":927786,"SoundDuration":927786,"Delta":72439056},{"NoteNumber":68,"Velocity":34,"Duration":927786,"SoundDuration":927786,"Delta":72439056},{"NoteNumber":74,"Velocity":41,"Duration":927786,"SoundDuration":927786,"Delta":72439056},{"NoteNumber":45,"Velocity":24,"Duration":1855261,"SoundDuration":1855261,"Delta":72439056},{"NoteNumber":69,"Velocity":35,"Duration":480846,"SoundDuration":480846,"Delta":73366843},{"NoteNumber":73,"Velocity":39,"Duration":480846,"SoundDuration":480846,"Delta":73366843},{"NoteNumber":64,"Velocity":68,"Duration":446628,"SoundDuration":446628,"Delta":73847689},{"NoteNumber":52,"Velocity":54,"Duration":446628,"SoundDuration":446628,"Delta":73847689},{"NoteNumber":69,"Velocity":69,"Duration":839026,"SoundDuration":839026,"Delta":74294317},{"NoteNumber":64,"Velocity":46,"Duration":451875,"SoundDuration":451875,"Delta":74726656},{"NoteNumber":52,"Velocity":40,"Duration":451875,"SoundDuration":451875,"Delta":74726656},{"NoteNumber":49,"Velocity":40,"Duration":451875,"SoundDuration":451875,"Delta":74726656},{"NoteNumber":57,"Velocity":48,"Duration":451875,"SoundDuration":451875,"Delta":74726656},{"NoteNumber":71,"Velocity":78,"Duration":857980,"SoundDuration":857980,"Delta":75178532},{"NoteNumber":64,"Velocity":53,"Duration":465911,"SoundDuration":465911,"Delta":75617192},{"NoteNumber":68,"Velocity":53,"Duration":465911,"SoundDuration":465911,"Delta":75617192},{"NoteNumber":56,"Velocity":42,"Duration":465911,"SoundDuration":465911,"Delta":75617192},{"NoteNumber":52,"Velocity":42,"Duration":465911,"SoundDuration":465911,"Delta":75617192},{"NoteNumber":59,"Velocity":49,"Duration":465911,"SoundDuration":465911,"Delta":75617192},{"NoteNumber":73,"Velocity":84,"Duration":1317662,"SoundDuration":1317662,"Delta":76083103},{"NoteNumber":64,"Velocity":46,"Duration":389105,"SoundDuration":389105,"Delta":76529731},{"NoteNumber":69,"Velocity":46,"Duration":389105,"SoundDuration":389105,"Delta":76529731},{"NoteNumber":57,"Velocity":37,"Duration":389105,"SoundDuration":389105,"Delta":76529731},{"NoteNumber":61,"Velocity":45,"Duration":389105,"SoundDuration":389105,"Delta":76529731},{"NoteNumber":64,"Velocity":46,"Duration":406687,"SoundDuration":406687,"Delta":76962070},{"NoteNumber":69,"Velocity":46,"Duration":406687,"SoundDuration":406687,"Delta":76962070},{"NoteNumber":57,"Velocity":37,"Duration":406687,"SoundDuration":406687,"Delta":76962070},{"NoteNumber":61,"Velocity":45,"Duration":406687,"SoundDuration":406687,"Delta":76962070},{"NoteNumber":64,"Velocity":46,"Duration":389105,"SoundDuration":389105,"Delta":77413946},{"NoteNumber":69,"Velocity":46,"Duration":389105,"SoundDuration":389105,"Delta":77413946},{"NoteNumber":73,"Velocity":74,"Duration":410722,"SoundDuration":410722,"Delta":77413946},{"NoteNumber":57,"Velocity":31,"Duration":389105,"SoundDuration":389105,"Delta":77413946},{"NoteNumber":61,"Velocity":37,"Duration":389105,"SoundDuration":389105,"Delta":77413946},{"NoteNumber":73,"Velocity":85,"Duration":410722,"SoundDuration":410722,"Delta":77846285},{"NoteNumber":73,"Velocity":74,"Duration":306240,"SoundDuration":306240,"Delta":78278624},{"NoteNumber":69,"Velocity":46,"Duration":389105,"SoundDuration":389105,"Delta":78278624},{"NoteNumber":64,"Velocity":46,"Duration":389105,"SoundDuration":389105,"Delta":78278624},{"NoteNumber":49,"Velocity":37,"Duration":389105,"SoundDuration":389105,"Delta":78278624},{"NoteNumber":52,"Velocity":37,"Duration":389105,"SoundDuration":389105,"Delta":78278624},{"NoteNumber":61,"Velocity":45,"Duration":389105,"SoundDuration":389105,"Delta":78278624},{"NoteNumber":57,"Velocity":37,"Duration":389105,"SoundDuration":389105,"Delta":78278624},{"NoteNumber":73,"Velocity":71,"Duration":108084,"SoundDuration":108084,"Delta":78602878},{"NoteNumber":76,"Velocity":90,"Duration":641299,"SoundDuration":641299,"Delta":78710963},{"NoteNumber":69,"Velocity":46,"Duration":384779,"SoundDuration":384779,"Delta":78710963},{"NoteNumber":64,"Velocity":46,"Duration":384779,"SoundDuration":384779,"Delta":78710963},{"NoteNumber":49,"Velocity":37,"Duration":384779,"SoundDuration":384779,"Delta":78710963},{"NoteNumber":52,"Velocity":37,"Duration":384779,"SoundDuration":384779,"Delta":78710963},{"NoteNumber":57,"Velocity":37,"Duration":384779,"SoundDuration":384779,"Delta":78710963},{"NoteNumber":61,"Velocity":45,"Duration":384779,"SoundDuration":384779,"Delta":78710963},{"NoteNumber":69,"Velocity":46,"Duration":384779,"SoundDuration":384779,"Delta":79138496},{"NoteNumber":64,"Velocity":46,"Duration":384779,"SoundDuration":384779,"Delta":79138496},{"NoteNumber":49,"Velocity":31,"Duration":384779,"SoundDuration":384779,"Delta":79138496},{"NoteNumber":52,"Velocity":31,"Duration":384779,"SoundDuration":384779,"Delta":79138496},{"NoteNumber":57,"Velocity":31,"Duration":384779,"SoundDuration":384779,"Delta":79138496},{"NoteNumber":61,"Velocity":37,"Duration":384779,"SoundDuration":384779,"Delta":79138496},{"NoteNumber":74,"Velocity":74,"Duration":213766,"SoundDuration":213766,"Delta":79352262},{"NoteNumber":73,"Velocity":82,"Duration":886656,"SoundDuration":886656,"Delta":79566029},{"NoteNumber":69,"Velocity":58,"Duration":443328,"SoundDuration":443328,"Delta":80009357},{"NoteNumber":54,"Velocity":47,"Duration":398995,"SoundDuration":398995,"Delta":80009357},{"NoteNumber":63,"Velocity":56,"Duration":398995,"SoundDuration":398995,"Delta":80009357},{"NoteNumber":57,"Velocity":47,"Duration":398995,"SoundDuration":398995,"Delta":80009357},{"NoteNumber":69,"Velocity":72,"Duration":439204,"SoundDuration":439204,"Delta":80452685},{"NoteNumber":71,"Velocity":72,"Duration":439204,"SoundDuration":439204,"Delta":80452685},{"NoteNumber":54,"Velocity":47,"Duration":416088,"SoundDuration":416088,"Delta":80452685},{"NoteNumber":57,"Velocity":47,"Duration":416088,"SoundDuration":416088,"Delta":80452685},{"NoteNumber":63,"Velocity":56,"Duration":416088,"SoundDuration":416088,"Delta":80452685},{"NoteNumber":69,"Velocity":67,"Duration":475872,"SoundDuration":475872,"Delta":80915006},{"NoteNumber":71,"Velocity":67,"Duration":475872,"SoundDuration":475872,"Delta":80915006},{"NoteNumber":54,"Velocity":39,"Duration":450826,"SoundDuration":450826,"Delta":80915006},{"NoteNumber":57,"Velocity":39,"Duration":450826,"SoundDuration":450826,"Delta":80915006},{"NoteNumber":63,"Velocity":47,"Duration":450826,"SoundDuration":450826,"Delta":80915006},{"NoteNumber":81,"Velocity":92,"Duration":917570,"SoundDuration":917570,"Delta":81415924},{"NoteNumber":53,"Velocity":51,"Duration":412906,"SoundDuration":412906,"Delta":81415924},{"NoteNumber":57,"Velocity":51,"Duration":412906,"SoundDuration":412906,"Delta":81415924},{"NoteNumber":62,"Velocity":61,"Duration":412906,"SoundDuration":412906,"Delta":81415924},{"NoteNumber":53,"Velocity":43,"Duration":412906,"SoundDuration":412906,"Delta":81874710},{"NoteNumber":57,"Velocity":43,"Duration":412906,"SoundDuration":412906,"Delta":81874710},{"NoteNumber":62,"Velocity":51,"Duration":412906,"SoundDuration":412906,"Delta":81874710},{"NoteNumber":81,"Velocity":85,"Duration":968209,"SoundDuration":968209,"Delta":82333495},{"NoteNumber":59,"Velocity":51,"Duration":412906,"SoundDuration":412906,"Delta":82333495},{"NoteNumber":53,"Velocity":51,"Duration":412906,"SoundDuration":412906,"Delta":82333495},{"NoteNumber":57,"Velocity":51,"Duration":412906,"SoundDuration":412906,"Delta":82333495},{"NoteNumber":62,"Velocity":61,"Duration":412906,"SoundDuration":412906,"Delta":82333495},{"NoteNumber":59,"Velocity":43,"Duration":458482,"SoundDuration":458482,"Delta":82792281},{"NoteNumber":53,"Velocity":43,"Duration":458482,"SoundDuration":458482,"Delta":82792281},{"NoteNumber":57,"Velocity":43,"Duration":458482,"SoundDuration":458482,"Delta":82792281},{"NoteNumber":62,"Velocity":51,"Duration":458482,"SoundDuration":458482,"Delta":82792281},{"NoteNumber":81,"Velocity":75,"Duration":438660,"SoundDuration":438660,"Delta":83301705},{"NoteNumber":52,"Velocity":50,"Duration":890535,"SoundDuration":890535,"Delta":83301705},{"NoteNumber":57,"Velocity":50,"Duration":890535,"SoundDuration":890535,"Delta":83301705},{"NoteNumber":61,"Velocity":59,"Duration":890535,"SoundDuration":890535,"Delta":83301705},{"NoteNumber":76,"Velocity":63,"Duration":451875,"SoundDuration":451875,"Delta":83740366},{"NoteNumber":73,"Velocity":68,"Duration":451875,"SoundDuration":451875,"Delta":84192241},{"NoteNumber":78,"Velocity":63,"Duration":451875,"SoundDuration":451875,"Delta":84644117},{"NoteNumber":76,"Velocity":68,"Duration":441891,"SoundDuration":441891,"Delta":85095992},{"NoteNumber":73,"Velocity":58,"Duration":451875,"SoundDuration":451875,"Delta":85537884},{"NoteNumber":69,"Velocity":57,"Duration":477023,"SoundDuration":477023,"Delta":85989759},{"NoteNumber":66,"Velocity":56,"Duration":509424,"SoundDuration":509424,"Delta":86466783},{"NoteNumber":64,"Velocity":63,"Duration":2396773,"SoundDuration":2396773,"Delta":86976207},{"NoteNumber":57,"Velocity":31,"Duration":954047,"SoundDuration":954047,"Delta":87930254},{"NoteNumber":61,"Velocity":40,"Duration":954047,"SoundDuration":954047,"Delta":87930254},{"NoteNumber":52,"Velocity":31,"Duration":954047,"SoundDuration":954047,"Delta":87930254},{"NoteNumber":56,"Velocity":31,"Duration":2061999,"SoundDuration":2061999,"Delta":88884301},{"NoteNumber":59,"Velocity":35,"Duration":1757635,"SoundDuration":1757635,"Delta":88884301},{"NoteNumber":40,"Velocity":26,"Duration":2061999,"SoundDuration":2061999,"Delta":88884301},{"NoteNumber":50,"Velocity":31,"Duration":2061999,"SoundDuration":2061999,"Delta":88884301},{"NoteNumber":63,"Velocity":45,"Duration":488678,"SoundDuration":488678,"Delta":89372980},{"NoteNumber":62,"Velocity":42,"Duration":803690,"SoundDuration":803690,"Delta":89861659},{"NoteNumber":59,"Velocity":31,"Duration":280951,"SoundDuration":280951,"Delta":90665350},{"NoteNumber":57,"Velocity":38,"Duration":238511,"SoundDuration":238511,"Delta":90946301},{"NoteNumber":45,"Velocity":28,"Duration":3606734,"SoundDuration":3606734,"Delta":90946301},{"NoteNumber":49,"Velocity":34,"Duration":948423,"SoundDuration":948423,"Delta":90946301},{"NoteNumber":64,"Velocity":30,"Duration":238511,"SoundDuration":238511,"Delta":91184813},{"NoteNumber":61,"Velocity":30,"Duration":236621,"SoundDuration":236621,"Delta":91423325},{"NoteNumber":64,"Velocity":30,"Duration":234778,"SoundDuration":234778,"Delta":91659946},{"NoteNumber":69,"Velocity":42,"Duration":227652,"SoundDuration":227652,"Delta":91894725},{"NoteNumber":64,"Velocity":28,"Duration":227652,"SoundDuration":227652,"Delta":92122377},{"NoteNumber":71,"Velocity":38,"Duration":227652,"SoundDuration":227652,"Delta":92350029},{"NoteNumber":68,"Velocity":32,"Duration":227652,"SoundDuration":227652,"Delta":92350029},{"NoteNumber":64,"Velocity":28,"Duration":227652,"SoundDuration":227652,"Delta":92577681},{"NoteNumber":69,"Velocity":35,"Duration":224000,"SoundDuration":224000,"Delta":92805334},{"NoteNumber":73,"Velocity":42,"Duration":224000,"SoundDuration":224000,"Delta":92805334},{"NoteNumber":64,"Velocity":30,"Duration":221697,"SoundDuration":221697,"Delta":93029334},{"NoteNumber":61,"Velocity":30,"Duration":219588,"SoundDuration":219588,"Delta":93251031},{"NoteNumber":64,"Velocity":30,"Duration":217738,"SoundDuration":217738,"Delta":93470619},{"NoteNumber":73,"Velocity":42,"Duration":216169,"SoundDuration":216169,"Delta":93688358},{"NoteNumber":69,"Velocity":28,"Duration":216169,"SoundDuration":216169,"Delta":93904527},{"NoteNumber":71,"Velocity":35,"Duration":216169,"SoundDuration":216169,"Delta":94120697},{"NoteNumber":74,"Velocity":42,"Duration":216169,"SoundDuration":216169,"Delta":94120697},{"NoteNumber":69,"Velocity":28,"Duration":216169,"SoundDuration":216169,"Delta":94336866},{"NoteNumber":73,"Velocity":36,"Duration":214623,"SoundDuration":214623,"Delta":94553036},{"NoteNumber":76,"Velocity":43,"Duration":214623,"SoundDuration":214623,"Delta":94553036},{"NoteNumber":33,"Velocity":28,"Duration":1295363,"SoundDuration":1295363,"Delta":94553036},{"NoteNumber":45,"Velocity":34,"Duration":1295363,"SoundDuration":1295363,"Delta":94553036},{"NoteNumber":69,"Velocity":34,"Duration":214623,"SoundDuration":214623,"Delta":94767659},{"NoteNumber":73,"Velocity":41,"Duration":214622,"SoundDuration":214622,"Delta":94982282},{"NoteNumber":76,"Velocity":49,"Duration":214622,"SoundDuration":214622,"Delta":94982282},{"NoteNumber":69,"Velocity":36,"Duration":214623,"SoundDuration":214623,"Delta":95196905},{"NoteNumber":74,"Velocity":45,"Duration":218435,"SoundDuration":218435,"Delta":95411528},{"NoteNumber":78,"Velocity":53,"Duration":218435,"SoundDuration":218435,"Delta":95411528},{"NoteNumber":69,"Velocity":34,"Duration":218435,"SoundDuration":218435,"Delta":95629964},{"NoteNumber":76,"Velocity":47,"Duration":234778,"SoundDuration":234778,"Delta":95848400},{"NoteNumber":80,"Velocity":56,"Duration":234778,"SoundDuration":234778,"Delta":95848400},{"NoteNumber":32,"Velocity":28,"Duration":510564,"SoundDuration":510564,"Delta":95848400},{"NoteNumber":44,"Velocity":34,"Duration":510564,"SoundDuration":510564,"Delta":95848400},{"NoteNumber":69,"Velocity":40,"Duration":275785,"SoundDuration":275785,"Delta":96083178},{"NoteNumber":80,"Velocity":39,"Duration":229392,"SoundDuration":229392,"Delta":96358964},{"NoteNumber":83,"Velocity":47,"Duration":458785,"SoundDuration":458785,"Delta":96358964},{"NoteNumber":42,"Velocity":38,"Duration":2673989,"SoundDuration":2673989,"Delta":96358964},{"NoteNumber":30,"Velocity":32,"Duration":2673989,"SoundDuration":2673989,"Delta":96358964},{"NoteNumber":69,"Velocity":28,"Duration":229392,"SoundDuration":229392,"Delta":96588357},{"NoteNumber":81,"Velocity":44,"Duration":441891,"SoundDuration":441891,"Delta":96817750},{"NoteNumber":78,"Velocity":37,"Duration":220945,"SoundDuration":220945,"Delta":96817750},{"NoteNumber":69,"Velocity":24,"Duration":220945,"SoundDuration":220945,"Delta":97038696},{"NoteNumber":80,"Velocity":40,"Duration":443327,"SoundDuration":443327,"Delta":97259641},{"NoteNumber":76,"Velocity":34,"Duration":221664,"SoundDuration":221664,"Delta":97259641},{"NoteNumber":69,"Velocity":24,"Duration":221663,"SoundDuration":221663,"Delta":97481305},{"NoteNumber":78,"Velocity":41,"Duration":443328,"SoundDuration":443328,"Delta":97702969},{"NoteNumber":74,"Velocity":34,"Duration":221664,"SoundDuration":221664,"Delta":97702969},{"NoteNumber":69,"Velocity":30,"Duration":221664,"SoundDuration":221664,"Delta":97924633},{"NoteNumber":76,"Velocity":41,"Duration":443327,"SoundDuration":443327,"Delta":98146297},{"NoteNumber":73,"Velocity":34,"Duration":221664,"SoundDuration":221664,"Delta":98146297},{"NoteNumber":66,"Velocity":24,"Duration":221663,"SoundDuration":221663,"Delta":98367961},{"NoteNumber":74,"Velocity":40,"Duration":443328,"SoundDuration":443328,"Delta":98589625},{"NoteNumber":71,"Velocity":34,"Duration":221664,"SoundDuration":221664,"Delta":98589625},{"NoteNumber":66,"Velocity":20,"Duration":221664,"SoundDuration":221664,"Delta":98811289},{"NoteNumber":73,"Velocity":39,"Duration":443327,"SoundDuration":443327,"Delta":99032953},{"NoteNumber":64,"Velocity":33,"Duration":221663,"SoundDuration":221663,"Delta":99032953},{"NoteNumber":50,"Velocity":39,"Duration":896938,"SoundDuration":896938,"Delta":99032953},{"NoteNumber":38,"Velocity":33,"Duration":896938,"SoundDuration":896938,"Delta":99032953},{"NoteNumber":66,"Velocity":28,"Duration":221664,"SoundDuration":221664,"Delta":99254617},{"NoteNumber":71,"Velocity":38,"Duration":453610,"SoundDuration":453610,"Delta":99476281},{"NoteNumber":62,"Velocity":32,"Duration":221664,"SoundDuration":221664,"Delta":99476281},{"NoteNumber":66,"Velocity":28,"Duration":231946,"SoundDuration":231946,"Delta":99697945},{"NoteNumber":69,"Velocity":38,"Duration":443327,"SoundDuration":443327,"Delta":99929892},{"NoteNumber":61,"Velocity":32,"Duration":221664,"SoundDuration":221664,"Delta":99929892},{"NoteNumber":52,"Velocity":36,"Duration":1767585,"SoundDuration":1767585,"Delta":99929892},{"NoteNumber":40,"Velocity":30,"Duration":1767585,"SoundDuration":1767585,"Delta":99929892},{"NoteNumber":64,"Velocity":28,"Duration":221663,"SoundDuration":221663,"Delta":100151556},{"NoteNumber":73,"Velocity":39,"Duration":433713,"SoundDuration":433713,"Delta":100373220},{"NoteNumber":64,"Velocity":28,"Duration":216856,"SoundDuration":216856,"Delta":100590077},{"NoteNumber":62,"Velocity":29,"Duration":216857,"SoundDuration":216857,"Delta":100806934},{"NoteNumber":71,"Velocity":35,"Duration":433714,"SoundDuration":433714,"Delta":100806934},{"NoteNumber":64,"Velocity":27,"Duration":216857,"SoundDuration":216857,"Delta":101023791},{"NoteNumber":68,"Velocity":35,"Duration":456829,"SoundDuration":456829,"Delta":101240648},{"NoteNumber":64,"Velocity":24,"Duration":228414,"SoundDuration":228414,"Delta":101469063},{"NoteNumber":61,"Velocity":31,"Duration":224248,"SoundDuration":224248,"Delta":101697478},{"NoteNumber":69,"Velocity":38,"Duration":224248,"SoundDuration":224248,"Delta":101697478},{"NoteNumber":52,"Velocity":36,"Duration":896995,"SoundDuration":896995,"Delta":101697478},{"NoteNumber":45,"Velocity":30,"Duration":896995,"SoundDuration":896995,"Delta":101697478},{"NoteNumber":64,"Velocity":27,"Duration":224248,"SoundDuration":224248,"Delta":101921726},{"NoteNumber":61,"Velocity":26,"Duration":224248,"SoundDuration":224248,"Delta":102145975},{"NoteNumber":64,"Velocity":25,"Duration":224248,"SoundDuration":224248,"Delta":102370224},{"NoteNumber":69,"Velocity":33,"Duration":224248,"SoundDuration":224248,"Delta":102594473},{"NoteNumber":73,"Velocity":27,"Duration":224248,"SoundDuration":224248,"Delta":102818721},{"NoteNumber":76,"Velocity":31,"Duration":220945,"SoundDuration":220945,"Delta":103042970},{"NoteNumber":73,"Velocity":28,"Duration":220945,"SoundDuration":220945,"Delta":103263916},{"NoteNumber":76,"Velocity":26,"Duration":492691,"SoundDuration":492691,"Delta":103484862},{"NoteNumber":69,"Velocity":26,"Duration":492691,"SoundDuration":492691,"Delta":103484862},{"NoteNumber":81,"Velocity":31,"Duration":492691,"SoundDuration":492691,"Delta":103484862},{"NoteNumber":61,"Velocity":21,"Duration":492691,"SoundDuration":492691,"Delta":103484862},{"NoteNumber":57,"Velocity":21,"Duration":492691,"SoundDuration":492691,"Delta":103484862},{"NoteNumber":64,"Velocity":25,"Duration":492691,"SoundDuration":492691,"Delta":103484862},{"NoteNumber":76,"Velocity":24,"Duration":492691,"SoundDuration":492691,"Delta":104470245},{"NoteNumber":81,"Velocity":28,"Duration":492691,"SoundDuration":492691,"Delta":104470245},{"NoteNumber":69,"Velocity":24,"Duration":492691,"SoundDuration":492691,"Delta":104470245},{"NoteNumber":61,"Velocity":19,"Duration":492691,"SoundDuration":492691,"Delta":104470245},{"NoteNumber":64,"Velocity":22,"Duration":492691,"SoundDuration":492691,"Delta":104470245},{"NoteNumber":57,"Velocity":19,"Duration":492691,"SoundDuration":492691,"Delta":104470245},{"NoteNumber":76,"Velocity":31,"Duration":492691,"SoundDuration":492691,"Delta":105455628},{"NoteNumber":69,"Velocity":31,"Duration":492691,"SoundDuration":492691,"Delta":105455628},{"NoteNumber":81,"Velocity":31,"Duration":492691,"SoundDuration":492691,"Delta":105455628},{"NoteNumber":61,"Velocity":25,"Duration":492691,"SoundDuration":492691,"Delta":105455628},{"NoteNumber":57,"Velocity":25,"Duration":492691,"SoundDuration":492691,"Delta":105455628},{"NoteNumber":64,"Velocity":25,"Duration":492691,"SoundDuration":492691,"Delta":105455628}]}