{"title":"Morgenlied","artist":"Piano","durationMs":73163,"midiSha256":"c197626f1f79ae76e5a8c02e10ac3ae364017df2af08e58de2c378f2810576be","midiObject":[{"NoteNumber":59,"Velocity":46,"Duration":196785,"SoundDuration":196785,"Delta":0},{"NoteNumber":62,"Velocity":55,"Duration":196785,"SoundDuration":196785,"Delta":0},{"NoteNumber":59,"Velocity":49,"Duration":190900,"SoundDuration":190900,"Delta":196786},{"NoteNumber":62,"Velocity":59,"Duration":190900,"SoundDuration":190900,"Delta":196786},{"NoteNumber":31,"Velocity":34,"Duration":403923,"SoundDuration":403923,"Delta":196786},{"NoteNumber":43,"Velocity":40,"Duration":403923,"SoundDuration":403923,"Delta":196786},{"NoteNumber":55,"Velocity":55,"Duration":213022,"SoundDuration":213022,"Delta":387686},{"NoteNumber":62,"Velocity":50,"Duration":222534,"SoundDuration":222534,"Delta":600709},{"NoteNumber":67,"Velocity":50,"Duration":222534,"SoundDuration":222534,"Delta":600709},{"NoteNumber":71,"Velocity":59,"Duration":222534,"SoundDuration":222534,"Delta":600709},{"NoteNumber":62,"Velocity":52,"Duration":590357,"SoundDuration":590357,"Delta":834956},{"NoteNumber":67,"Velocity":52,"Duration":590357,"SoundDuration":590357,"Delta":834956},{"NoteNumber":71,"Velocity":63,"Duration":590357,"SoundDuration":590357,"Delta":834956},{"NoteNumber":31,"Velocity":35,"Duration":983930,"SoundDuration":983930,"Delta":834956},{"NoteNumber":43,"Velocity":42,"Duration":983930,"SoundDuration":983930,"Delta":834956},{"NoteNumber":59,"Velocity":41,"Duration":393572,"SoundDuration":393572,"Delta":1425314},{"NoteNumber":67,"Velocity":49,"Duration":393572,"SoundDuration":393572,"Delta":1425314},{"NoteNumber":62,"Velocity":48,"Duration":196785,"SoundDuration":196785,"Delta":1818886},{"NoteNumber":71,"Velocity":57,"Duration":196785,"SoundDuration":196785,"Delta":1818886},{"NoteNumber":62,"Velocity":49,"Duration":190900,"SoundDuration":190900,"Delta":2015672},{"NoteNumber":71,"Velocity":59,"Duration":190900,"SoundDuration":190900,"Delta":2015672},{"NoteNumber":31,"Velocity":34,"Duration":407194,"SoundDuration":407194,"Delta":2015672},{"NoteNumber":43,"Velocity":40,"Duration":407194,"SoundDuration":407194,"Delta":2015672},{"NoteNumber":59,"Velocity":46,"Duration":216294,"SoundDuration":216294,"Delta":2206573},{"NoteNumber":67,"Velocity":55,"Duration":216294,"SoundDuration":216294,"Delta":2206573},{"NoteNumber":71,"Velocity":52,"Duration":220707,"SoundDuration":220707,"Delta":2422867},{"NoteNumber":74,"Velocity":52,"Duration":220707,"SoundDuration":220707,"Delta":2422867},{"NoteNumber":79,"Velocity":63,"Duration":220707,"SoundDuration":220707,"Delta":2422867},{"NoteNumber":71,"Velocity":54,"Duration":590358,"SoundDuration":590358,"Delta":2655191},{"NoteNumber":74,"Velocity":54,"Duration":590358,"SoundDuration":590358,"Delta":2655191},{"NoteNumber":79,"Velocity":65,"Duration":590358,"SoundDuration":590358,"Delta":2655191},{"NoteNumber":31,"Velocity":40,"Duration":1015697,"SoundDuration":1015697,"Delta":2655191},{"NoteNumber":43,"Velocity":48,"Duration":1015697,"SoundDuration":1015697,"Delta":2655191},{"NoteNumber":67,"Velocity":41,"Duration":425339,"SoundDuration":425339,"Delta":3245549},{"NoteNumber":71,"Velocity":41,"Duration":425339,"SoundDuration":425339,"Delta":3245549},{"NoteNumber":74,"Velocity":49,"Duration":425339,"SoundDuration":425339,"Delta":3245549},{"NoteNumber":79,"Velocity":65,"Duration":196786,"SoundDuration":196786,"Delta":3670889},{"NoteNumber":86,"Velocity":77,"Duration":196786,"SoundDuration":196786,"Delta":3670889},{"NoteNumber":71,"Velocity":53,"Duration":196786,"SoundDuration":196786,"Delta":3670889},{"NoteNumber":79,"Velocity":70,"Duration":185368,"SoundDuration":185368,"Delta":3867675},{"NoteNumber":86,"Velocity":82,"Duration":185368,"SoundDuration":185368,"Delta":3867675},{"NoteNumber":71,"Velocity":56,"Duration":185368,"SoundDuration":185368,"Delta":3867675},{"NoteNumber":74,"Velocity":61,"Duration":185368,"SoundDuration":185368,"Delta":4053043},{"NoteNumber":83,"Velocity":73,"Duration":185368,"SoundDuration":185368,"Delta":4053043},{"NoteNumber":67,"Velocity":52,"Duration":185368,"SoundDuration":185368,"Delta":4053043},{"NoteNumber":71,"Velocity":61,"Duration":180677,"SoundDuration":180677,"Delta":4238412},{"NoteNumber":79,"Velocity":73,"Duration":180677,"SoundDuration":180677,"Delta":4238412},{"NoteNumber":62,"Velocity":52,"Duration":190186,"SoundDuration":190186,"Delta":4238412},{"NoteNumber":71,"Velocity":63,"Duration":186717,"SoundDuration":186717,"Delta":4428598},{"NoteNumber":79,"Velocity":76,"Duration":186717,"SoundDuration":186717,"Delta":4428598},{"NoteNumber":62,"Velocity":57,"Duration":186717,"SoundDuration":186717,"Delta":4428598},{"NoteNumber":67,"Velocity":55,"Duration":186717,"SoundDuration":186717,"Delta":4615316},{"NoteNumber":74,"Velocity":66,"Duration":186717,"SoundDuration":186717,"Delta":4615316},{"NoteNumber":59,"Velocity":51,"Duration":186717,"SoundDuration":186717,"Delta":4615316},{"NoteNumber":62,"Velocity":55,"Duration":212298,"SoundDuration":212298,"Delta":4802034},{"NoteNumber":71,"Velocity":66,"Duration":212298,"SoundDuration":212298,"Delta":4802034},{"NoteNumber":55,"Velocity":51,"Duration":212298,"SoundDuration":212298,"Delta":4802034},{"NoteNumber":67,"Velocity":61,"Duration":651820,"SoundDuration":651820,"Delta":5014333},{"NoteNumber":74,"Velocity":73,"Duration":651820,"SoundDuration":651820,"Delta":5014333},{"NoteNumber":50,"Velocity":46,"Duration":651820,"SoundDuration":651820,"Delta":5014333},{"NoteNumber":59,"Velocity":54,"Duration":651820,"SoundDuration":651820,"Delta":5014333},{"NoteNumber":60,"Velocity":38,"Duration":432588,"SoundDuration":432588,"Delta":5666154},{"NoteNumber":62,"Velocity":38,"Duration":432588,"SoundDuration":432588,"Delta":5666154},{"NoteNumber":66,"Velocity":38,"Duration":432588,"SoundDuration":432588,"Delta":5666154},{"NoteNumber":69,"Velocity":45,"Duration":432588,"SoundDuration":432588,"Delta":5666154},{"NoteNumber":38,"Velocity":32,"Duration":432588,"SoundDuration":432588,"Delta":5666154},{"NoteNumber":50,"Velocity":38,"Duration":432588,"SoundDuration":432588,"Delta":5666154},{"NoteNumber":71,"Velocity":44,"Duration":230450,"SoundDuration":230450,"Delta":6098742},{"NoteNumber":59,"Velocity":33,"Duration":1083972,"SoundDuration":1083972,"Delta":6329192},{"NoteNumber":62,"Velocity":36,"Duration":1083972,"SoundDuration":1083972,"Delta":6329192},{"NoteNumber":67,"Velocity":43,"Duration":1083972,"SoundDuration":1083972,"Delta":6329192},{"NoteNumber":31,"Velocity":28,"Duration":433589,"SoundDuration":433589,"Delta":6329192},{"NoteNumber":43,"Velocity":33,"Duration":433589,"SoundDuration":433589,"Delta":6329192},{"NoteNumber":62,"Velocity":54,"Duration":213553,"SoundDuration":213553,"Delta":7413164},{"NoteNumber":50,"Velocity":39,"Duration":213553,"SoundDuration":213553,"Delta":7413164},{"NoteNumber":62,"Velocity":48,"Duration":413793,"SoundDuration":413793,"Delta":7626718},{"NoteNumber":67,"Velocity":57,"Duration":413793,"SoundDuration":413793,"Delta":7626718},{"NoteNumber":47,"Velocity":35,"Duration":413793,"SoundDuration":413793,"Delta":7626718},{"NoteNumber":50,"Velocity":35,"Duration":413793,"SoundDuration":413793,"Delta":7626718},{"NoteNumber":55,"Velocity":43,"Duration":413793,"SoundDuration":413793,"Delta":7626718},{"NoteNumber":62,"Velocity":48,"Duration":216184,"SoundDuration":216184,"Delta":8040511},{"NoteNumber":66,"Velocity":57,"Duration":216184,"SoundDuration":216184,"Delta":8040511},{"NoteNumber":45,"Velocity":32,"Duration":216184,"SoundDuration":216184,"Delta":8040511},{"NoteNumber":50,"Velocity":32,"Duration":216184,"SoundDuration":216184,"Delta":8040511},{"NoteNumber":54,"Velocity":38,"Duration":216184,"SoundDuration":216184,"Delta":8040511},{"NoteNumber":62,"Velocity":48,"Duration":1022425,"SoundDuration":1022425,"Delta":8256696},{"NoteNumber":69,"Velocity":57,"Duration":1022425,"SoundDuration":1022425,"Delta":8256696},{"NoteNumber":48,"Velocity":35,"Duration":1022425,"SoundDuration":1022425,"Delta":8256696},{"NoteNumber":50,"Velocity":35,"Duration":1022425,"SoundDuration":1022425,"Delta":8256696},{"NoteNumber":57,"Velocity":43,"Duration":1022425,"SoundDuration":1022425,"Delta":8256696},{"NoteNumber":67,"Velocity":57,"Duration":213553,"SoundDuration":213553,"Delta":9279121},{"NoteNumber":47,"Velocity":35,"Duration":213553,"SoundDuration":213553,"Delta":9279121},{"NoteNumber":50,"Velocity":35,"Duration":213553,"SoundDuration":213553,"Delta":9279121},{"NoteNumber":55,"Velocity":43,"Duration":213553,"SoundDuration":213553,"Delta":9279121},{"NoteNumber":67,"Velocity":52,"Duration":410959,"SoundDuration":410959,"Delta":9492674},{"NoteNumber":72,"Velocity":61,"Duration":410959,"SoundDuration":410959,"Delta":9492674},{"NoteNumber":52,"Velocity":38,"Duration":410959,"SoundDuration":410959,"Delta":9492674},{"NoteNumber":55,"Velocity":38,"Duration":410959,"SoundDuration":410959,"Delta":9492674},{"NoteNumber":60,"Velocity":46,"Duration":410959,"SoundDuration":410959,"Delta":9492674},{"NoteNumber":67,"Velocity":48,"Duration":217060,"SoundDuration":217060,"Delta":9903633},{"NoteNumber":71,"Velocity":57,"Duration":217060,"SoundDuration":217060,"Delta":9903633},{"NoteNumber":50,"Velocity":35,"Duration":217060,"SoundDuration":217060,"Delta":9903633},{"NoteNumber":55,"Velocity":35,"Duration":217060,"SoundDuration":217060,"Delta":9903633},{"NoteNumber":59,"Velocity":43,"Duration":217060,"SoundDuration":217060,"Delta":9903633},{"NoteNumber":64,"Velocity":51,"Duration":1022425,"SoundDuration":1022425,"Delta":10120694},{"NoteNumber":67,"Velocity":51,"Duration":1022425,"SoundDuration":1022425,"Delta":10120694},{"NoteNumber":76,"Velocity":60,"Duration":1022425,"SoundDuration":1022425,"Delta":10120694},{"NoteNumber":60,"Velocity":47,"Duration":1022425,"SoundDuration":1022425,"Delta":10120694},{"NoteNumber":67,"Velocity":54,"Duration":204535,"SoundDuration":204535,"Delta":11143119},{"NoteNumber":74,"Velocity":65,"Duration":204535,"SoundDuration":204535,"Delta":11143119},{"NoteNumber":62,"Velocity":47,"Duration":204535,"SoundDuration":204535,"Delta":11143119},{"NoteNumber":59,"Velocity":39,"Duration":204535,"SoundDuration":204535,"Delta":11143119},{"NoteNumber":67,"Velocity":58,"Duration":413006,"SoundDuration":413006,"Delta":11358419},{"NoteNumber":74,"Velocity":69,"Duration":413006,"SoundDuration":413006,"Delta":11358419},{"NoteNumber":62,"Velocity":49,"Duration":413006,"SoundDuration":413006,"Delta":11358419},{"NoteNumber":59,"Velocity":40,"Duration":413006,"SoundDuration":413006,"Delta":11358419},{"NoteNumber":66,"Velocity":54,"Duration":249335,"SoundDuration":249335,"Delta":11771426},{"NoteNumber":74,"Velocity":65,"Duration":249335,"SoundDuration":249335,"Delta":11771426},{"NoteNumber":62,"Velocity":48,"Duration":249335,"SoundDuration":249335,"Delta":11771426},{"NoteNumber":60,"Velocity":40,"Duration":249335,"SoundDuration":249335,"Delta":11771426},{"NoteNumber":57,"Velocity":40,"Duration":249335,"SoundDuration":249335,"Delta":11771426},{"NoteNumber":67,"Velocity":59,"Duration":1018897,"SoundDuration":1018897,"Delta":12020761},{"NoteNumber":79,"Velocity":69,"Duration":404939,"SoundDuration":404939,"Delta":12020761},{"NoteNumber":55,"Velocity":44,"Duration":1018897,"SoundDuration":1018897,"Delta":12020761},{"NoteNumber":62,"Velocity":52,"Duration":1018897,"SoundDuration":1018897,"Delta":12020761},{"NoteNumber":59,"Velocity":44,"Duration":1018897,"SoundDuration":1018897,"Delta":12020761},{"NoteNumber":74,"Velocity":64,"Duration":204652,"SoundDuration":204652,"Delta":12425701},{"NoteNumber":71,"Velocity":64,"Duration":409304,"SoundDuration":409304,"Delta":12630353},{"NoteNumber":62,"Velocity":45,"Duration":162795,"SoundDuration":162795,"Delta":13039658},{"NoteNumber":67,"Velocity":53,"Duration":162795,"SoundDuration":162795,"Delta":13039658},{"NoteNumber":55,"Velocity":33,"Duration":217060,"SoundDuration":217060,"Delta":13039658},{"NoteNumber":59,"Velocity":39,"Duration":217060,"SoundDuration":217060,"Delta":13039658},{"NoteNumber":69,"Velocity":51,"Duration":54265,"SoundDuration":54265,"Delta":13202454},{"NoteNumber":61,"Velocity":47,"Duration":403524,"SoundDuration":403524,"Delta":13256719},{"NoteNumber":67,"Velocity":55,"Duration":201762,"SoundDuration":201762,"Delta":13256719},{"NoteNumber":52,"Velocity":36,"Duration":403524,"SoundDuration":403524,"Delta":13256719},{"NoteNumber":55,"Velocity":44,"Duration":403524,"SoundDuration":403524,"Delta":13256719},{"NoteNumber":66,"Velocity":52,"Duration":201762,"SoundDuration":201762,"Delta":13458481},{"NoteNumber":61,"Velocity":37,"Duration":212720,"SoundDuration":212720,"Delta":13660243},{"NoteNumber":67,"Velocity":45,"Duration":212720,"SoundDuration":212720,"Delta":13660243},{"NoteNumber":52,"Velocity":28,"Duration":212720,"SoundDuration":212720,"Delta":13660243},{"NoteNumber":55,"Velocity":34,"Duration":212720,"SoundDuration":212720,"Delta":13660243},{"NoteNumber":62,"Velocity":42,"Duration":1063602,"SoundDuration":1063602,"Delta":13872964},{"NoteNumber":71,"Velocity":49,"Duration":638161,"SoundDuration":638161,"Delta":13872964},{"NoteNumber":50,"Velocity":29,"Duration":1063602,"SoundDuration":1063602,"Delta":13872964},{"NoteNumber":55,"Velocity":32,"Duration":638161,"SoundDuration":638161,"Delta":13872964},{"NoteNumber":59,"Velocity":39,"Duration":638161,"SoundDuration":638161,"Delta":13872964},{"NoteNumber":69,"Velocity":46,"Duration":425440,"SoundDuration":425440,"Delta":14511126},{"NoteNumber":54,"Velocity":27,"Duration":425440,"SoundDuration":425440,"Delta":14511126},{"NoteNumber":57,"Velocity":32,"Duration":425440,"SoundDuration":425440,"Delta":14511126},{"NoteNumber":60,"Velocity":39,"Duration":213553,"SoundDuration":213553,"Delta":14936566},{"NoteNumber":62,"Velocity":54,"Duration":213553,"SoundDuration":213553,"Delta":14936566},{"NoteNumber":59,"Velocity":48,"Duration":410761,"SoundDuration":410761,"Delta":15150120},{"NoteNumber":62,"Velocity":48,"Duration":410761,"SoundDuration":410761,"Delta":15150120},{"NoteNumber":67,"Velocity":57,"Duration":410761,"SoundDuration":410761,"Delta":15150120},{"NoteNumber":43,"Velocity":35,"Duration":626946,"SoundDuration":626946,"Delta":15150120},{"NoteNumber":50,"Velocity":43,"Duration":626946,"SoundDuration":626946,"Delta":15150120},{"NoteNumber":57,"Velocity":48,"Duration":216184,"SoundDuration":216184,"Delta":15560882},{"NoteNumber":62,"Velocity":48,"Duration":216184,"SoundDuration":216184,"Delta":15560882},{"NoteNumber":66,"Velocity":57,"Duration":216184,"SoundDuration":216184,"Delta":15560882},{"NoteNumber":60,"Velocity":48,"Duration":1022424,"SoundDuration":1022424,"Delta":15777067},{"NoteNumber":62,"Velocity":48,"Duration":1022424,"SoundDuration":1022424,"Delta":15777067},{"NoteNumber":69,"Velocity":57,"Duration":1022424,"SoundDuration":1022424,"Delta":15777067},{"NoteNumber":38,"Velocity":35,"Duration":1022424,"SoundDuration":1022424,"Delta":15777067},{"NoteNumber":50,"Velocity":43,"Duration":1022424,"SoundDuration":1022424,"Delta":15777067},{"NoteNumber":59,"Velocity":53,"Duration":213553,"SoundDuration":213553,"Delta":16799492},{"NoteNumber":62,"Velocity":53,"Duration":213553,"SoundDuration":213553,"Delta":16799492},{"NoteNumber":67,"Velocity":65,"Duration":213553,"SoundDuration":213553,"Delta":16799492},{"NoteNumber":43,"Velocity":39,"Duration":213553,"SoundDuration":213553,"Delta":16799492},{"NoteNumber":50,"Velocity":49,"Duration":213553,"SoundDuration":213553,"Delta":16799492},{"NoteNumber":60,"Velocity":59,"Duration":404939,"SoundDuration":404939,"Delta":17013045},{"NoteNumber":67,"Velocity":59,"Duration":404939,"SoundDuration":404939,"Delta":17013045},{"NoteNumber":72,"Velocity":70,"Duration":404939,"SoundDuration":404939,"Delta":17013045},{"NoteNumber":52,"Velocity":43,"Duration":404939,"SoundDuration":404939,"Delta":17013045},{"NoteNumber":55,"Velocity":43,"Duration":404939,"SoundDuration":404939,"Delta":17013045},{"NoteNumber":59,"Velocity":54,"Duration":217061,"SoundDuration":217061,"Delta":17417985},{"NoteNumber":67,"Velocity":54,"Duration":217061,"SoundDuration":217061,"Delta":17417985},{"NoteNumber":71,"Velocity":65,"Duration":217061,"SoundDuration":217061,"Delta":17417985},{"NoteNumber":50,"Velocity":39,"Duration":217061,"SoundDuration":217061,"Delta":17417985},{"NoteNumber":55,"Velocity":39,"Duration":217061,"SoundDuration":217061,"Delta":17417985},{"NoteNumber":64,"Velocity":58,"Duration":1022424,"SoundDuration":1022424,"Delta":17635046},{"NoteNumber":67,"Velocity":58,"Duration":1022424,"SoundDuration":1022424,"Delta":17635046},{"NoteNumber":76,"Velocity":69,"Duration":1022424,"SoundDuration":1022424,"Delta":17635046},{"NoteNumber":48,"Velocity":46,"Duration":1022424,"SoundDuration":1022424,"Delta":17635046},{"NoteNumber":55,"Velocity":46,"Duration":1022424,"SoundDuration":1022424,"Delta":17635046},{"NoteNumber":60,"Velocity":53,"Duration":1022424,"SoundDuration":1022424,"Delta":17635046},{"NoteNumber":62,"Velocity":61,"Duration":215300,"SoundDuration":215300,"Delta":18657471},{"NoteNumber":67,"Velocity":61,"Duration":215300,"SoundDuration":215300,"Delta":18657471},{"NoteNumber":74,"Velocity":74,"Duration":215300,"SoundDuration":215300,"Delta":18657471},{"NoteNumber":47,"Velocity":44,"Duration":215300,"SoundDuration":215300,"Delta":18657471},{"NoteNumber":59,"Velocity":53,"Duration":215300,"SoundDuration":215300,"Delta":18657471},{"NoteNumber":55,"Velocity":44,"Duration":215300,"SoundDuration":215300,"Delta":18657471},{"NoteNumber":74,"Velocity":66,"Duration":413006,"SoundDuration":413006,"Delta":18872772},{"NoteNumber":67,"Velocity":66,"Duration":413006,"SoundDuration":413006,"Delta":18872772},{"NoteNumber":79,"Velocity":78,"Duration":413006,"SoundDuration":413006,"Delta":18872772},{"NoteNumber":52,"Velocity":46,"Duration":413006,"SoundDuration":413006,"Delta":18872772},{"NoteNumber":62,"Velocity":55,"Duration":413006,"SoundDuration":413006,"Delta":18872772},{"NoteNumber":55,"Velocity":46,"Duration":413006,"SoundDuration":413006,"Delta":18872772},{"NoteNumber":72,"Velocity":61,"Duration":220685,"SoundDuration":220685,"Delta":19285778},{"NoteNumber":67,"Velocity":61,"Duration":220685,"SoundDuration":220685,"Delta":19285778},{"NoteNumber":79,"Velocity":74,"Duration":220685,"SoundDuration":220685,"Delta":19285778},{"NoteNumber":60,"Velocity":54,"Duration":220685,"SoundDuration":220685,"Delta":19285778},{"NoteNumber":55,"Velocity":46,"Duration":220685,"SoundDuration":220685,"Delta":19285778},{"NoteNumber":52,"Velocity":46,"Duration":220685,"SoundDuration":220685,"Delta":19285778},{"NoteNumber":71,"Velocity":67,"Duration":410564,"SoundDuration":410564,"Delta":19506464},{"NoteNumber":79,"Velocity":78,"Duration":410564,"SoundDuration":410564,"Delta":19506464},{"NoteNumber":50,"Velocity":50,"Duration":1026412,"SoundDuration":1026412,"Delta":19506464},{"NoteNumber":59,"Velocity":59,"Duration":1026412,"SoundDuration":1026412,"Delta":19506464},{"NoteNumber":55,"Velocity":50,"Duration":1026412,"SoundDuration":1026412,"Delta":19506464},{"NoteNumber":67,"Velocity":57,"Duration":205282,"SoundDuration":205282,"Delta":19917029},{"NoteNumber":71,"Velocity":57,"Duration":205282,"SoundDuration":205282,"Delta":19917029},{"NoteNumber":74,"Velocity":69,"Duration":205282,"SoundDuration":205282,"Delta":19917029},{"NoteNumber":62,"Velocity":57,"Duration":410564,"SoundDuration":410564,"Delta":20122311},{"NoteNumber":67,"Velocity":57,"Duration":410564,"SoundDuration":410564,"Delta":20122311},{"NoteNumber":71,"Velocity":69,"Duration":410564,"SoundDuration":410564,"Delta":20122311},{"NoteNumber":62,"Velocity":40,"Duration":217061,"SoundDuration":217061,"Delta":20532876},{"NoteNumber":67,"Velocity":40,"Duration":217061,"SoundDuration":217061,"Delta":20532876},{"NoteNumber":71,"Velocity":47,"Duration":217061,"SoundDuration":217061,"Delta":20532876},{"NoteNumber":66,"Velocity":42,"Duration":621690,"SoundDuration":621690,"Delta":20749937},{"NoteNumber":62,"Velocity":42,"Duration":621690,"SoundDuration":621690,"Delta":20749937},{"NoteNumber":60,"Velocity":42,"Duration":621690,"SoundDuration":621690,"Delta":20749937},{"NoteNumber":72,"Velocity":49,"Duration":408970,"SoundDuration":408970,"Delta":20749937},{"NoteNumber":38,"Velocity":32,"Duration":621690,"SoundDuration":621690,"Delta":20749937},{"NoteNumber":50,"Velocity":39,"Duration":1047131,"SoundDuration":1047131,"Delta":20749937},{"NoteNumber":69,"Velocity":45,"Duration":212720,"SoundDuration":212720,"Delta":21158907},{"NoteNumber":59,"Velocity":38,"Duration":638161,"SoundDuration":638161,"Delta":21371628},{"NoteNumber":62,"Velocity":42,"Duration":638161,"SoundDuration":638161,"Delta":21371628},{"NoteNumber":67,"Velocity":49,"Duration":638161,"SoundDuration":638161,"Delta":21371628},{"NoteNumber":43,"Velocity":30,"Duration":425440,"SoundDuration":425440,"Delta":21371628},{"NoteNumber":50,"Velocity":32,"Duration":159540,"SoundDuration":159540,"Delta":21797069},{"NoteNumber":50,"Velocity":36,"Duration":425441,"SoundDuration":425441,"Delta":22009789},{"NoteNumber":59,"Velocity":34,"Duration":213553,"SoundDuration":213553,"Delta":22435230},{"NoteNumber":62,"Velocity":34,"Duration":213553,"SoundDuration":213553,"Delta":22435230},{"NoteNumber":67,"Velocity":41,"Duration":213553,"SoundDuration":213553,"Delta":22435230},{"NoteNumber":50,"Velocity":33,"Duration":213553,"SoundDuration":213553,"Delta":22435230},{"NoteNumber":57,"Velocity":39,"Duration":402090,"SoundDuration":402090,"Delta":22648784},{"NoteNumber":62,"Velocity":39,"Duration":402090,"SoundDuration":402090,"Delta":22648784},{"NoteNumber":66,"Velocity":46,"Duration":402090,"SoundDuration":402090,"Delta":22648784},{"NoteNumber":50,"Velocity":36,"Duration":402090,"SoundDuration":402090,"Delta":22648784},{"NoteNumber":59,"Velocity":34,"Duration":216184,"SoundDuration":216184,"Delta":23050875},{"NoteNumber":62,"Velocity":34,"Duration":216184,"SoundDuration":216184,"Delta":23050875},{"NoteNumber":67,"Velocity":41,"Duration":216184,"SoundDuration":216184,"Delta":23050875},{"NoteNumber":50,"Velocity":34,"Duration":216184,"SoundDuration":216184,"Delta":23050875},{"NoteNumber":62,"Velocity":39,"Duration":1637792,"SoundDuration":1637792,"Delta":23267060},{"NoteNumber":71,"Velocity":46,"Duration":403524,"SoundDuration":403524,"Delta":23267060},{"NoteNumber":38,"Velocity":30,"Duration":1015269,"SoundDuration":1015269,"Delta":23267060},{"NoteNumber":50,"Velocity":36,"Duration":403524,"SoundDuration":403524,"Delta":23267060},{"NoteNumber":60,"Velocity":34,"Duration":203914,"SoundDuration":203914,"Delta":23670584},{"NoteNumber":69,"Velocity":41,"Duration":203914,"SoundDuration":203914,"Delta":23670584},{"NoteNumber":50,"Velocity":33,"Duration":203914,"SoundDuration":203914,"Delta":23670584},{"NoteNumber":57,"Velocity":34,"Duration":1030353,"SoundDuration":1030353,"Delta":23874499},{"NoteNumber":66,"Velocity":41,"Duration":1030353,"SoundDuration":1030353,"Delta":23874499},{"NoteNumber":50,"Velocity":36,"Duration":407830,"SoundDuration":407830,"Delta":23874499},{"NoteNumber":38,"Velocity":27,"Duration":160165,"SoundDuration":160165,"Delta":24282329},{"NoteNumber":50,"Velocity":33,"Duration":160165,"SoundDuration":160165,"Delta":24282329},{"NoteNumber":38,"Velocity":30,"Duration":408970,"SoundDuration":408970,"Delta":24495882},{"NoteNumber":50,"Velocity":36,"Duration":408970,"SoundDuration":408970,"Delta":24495882},{"NoteNumber":59,"Velocity":36,"Duration":217061,"SoundDuration":217061,"Delta":24904852},{"NoteNumber":62,"Velocity":36,"Duration":217061,"SoundDuration":217061,"Delta":24904852},{"NoteNumber":67,"Velocity":43,"Duration":217061,"SoundDuration":217061,"Delta":24904852},{"NoteNumber":38,"Velocity":27,"Duration":217061,"SoundDuration":217061,"Delta":24904852},{"NoteNumber":50,"Velocity":33,"Duration":217061,"SoundDuration":217061,"Delta":24904852},{"NoteNumber":62,"Velocity":38,"Duration":1643575,"SoundDuration":1643575,"Delta":25121913},{"NoteNumber":71,"Velocity":45,"Duration":403524,"SoundDuration":403524,"Delta":25121913},{"NoteNumber":38,"Velocity":30,"Duration":1015269,"SoundDuration":1015269,"Delta":25121913},{"NoteNumber":50,"Velocity":36,"Duration":403524,"SoundDuration":403524,"Delta":25121913},{"NoteNumber":60,"Velocity":34,"Duration":203914,"SoundDuration":203914,"Delta":25525437},{"NoteNumber":69,"Velocity":41,"Duration":203914,"SoundDuration":203914,"Delta":25525437},{"NoteNumber":50,"Velocity":33,"Duration":203914,"SoundDuration":203914,"Delta":25525437},{"NoteNumber":57,"Velocity":34,"Duration":1036137,"SoundDuration":1036137,"Delta":25729352},{"NoteNumber":66,"Velocity":41,"Duration":1036137,"SoundDuration":1036137,"Delta":25729352},{"NoteNumber":50,"Velocity":36,"Duration":407830,"SoundDuration":407830,"Delta":25729352},{"NoteNumber":38,"Velocity":27,"Duration":161475,"SoundDuration":161475,"Delta":26137182},{"NoteNumber":50,"Velocity":34,"Duration":161475,"SoundDuration":161475,"Delta":26137182},{"NoteNumber":38,"Velocity":32,"Duration":413006,"SoundDuration":413006,"Delta":26352483},{"NoteNumber":50,"Velocity":37,"Duration":413006,"SoundDuration":413006,"Delta":26352483},{"NoteNumber":59,"Velocity":48,"Duration":229305,"SoundDuration":229305,"Delta":26765489},{"NoteNumber":62,"Velocity":48,"Duration":229305,"SoundDuration":229305,"Delta":26765489},{"NoteNumber":67,"Velocity":57,"Duration":229305,"SoundDuration":229305,"Delta":26765489},{"NoteNumber":38,"Velocity":29,"Duration":229305,"SoundDuration":229305,"Delta":26765489},{"NoteNumber":50,"Velocity":36,"Duration":229305,"SoundDuration":229305,"Delta":26765489},{"NoteNumber":65,"Velocity":56,"Duration":410564,"SoundDuration":410564,"Delta":26994794},{"NoteNumber":74,"Velocity":66,"Duration":410564,"SoundDuration":410564,"Delta":26994794},{"NoteNumber":38,"Velocity":39,"Duration":1037847,"SoundDuration":1037847,"Delta":26994794},{"NoteNumber":50,"Velocity":46,"Duration":410564,"SoundDuration":410564,"Delta":26994794},{"NoteNumber":65,"Velocity":57,"Duration":205282,"SoundDuration":205282,"Delta":27405359},{"NoteNumber":74,"Velocity":67,"Duration":205282,"SoundDuration":205282,"Delta":27405359},{"NoteNumber":50,"Velocity":40,"Duration":205282,"SoundDuration":205282,"Delta":27405359},{"NoteNumber":64,"Velocity":57,"Duration":422000,"SoundDuration":422000,"Delta":27610642},{"NoteNumber":65,"Velocity":62,"Duration":422000,"SoundDuration":422000,"Delta":27610642},{"NoteNumber":72,"Velocity":69,"Duration":422000,"SoundDuration":422000,"Delta":27610642},{"NoteNumber":50,"Velocity":46,"Duration":422000,"SoundDuration":422000,"Delta":27610642},{"NoteNumber":62,"Velocity":54,"Duration":217061,"SoundDuration":217061,"Delta":28032642},{"NoteNumber":65,"Velocity":54,"Duration":217061,"SoundDuration":217061,"Delta":28032642},{"NoteNumber":71,"Velocity":64,"Duration":217061,"SoundDuration":217061,"Delta":28032642},{"NoteNumber":38,"Velocity":34,"Duration":217061,"SoundDuration":217061,"Delta":28032642},{"NoteNumber":50,"Velocity":41,"Duration":217061,"SoundDuration":217061,"Delta":28032642},{"NoteNumber":60,"Velocity":47,"Duration":417042,"SoundDuration":417042,"Delta":28249703},{"NoteNumber":64,"Velocity":47,"Duration":417042,"SoundDuration":417042,"Delta":28249703},{"NoteNumber":69,"Velocity":56,"Duration":417042,"SoundDuration":417042,"Delta":28249703},{"NoteNumber":40,"Velocity":34,"Duration":417042,"SoundDuration":417042,"Delta":28249703},{"NoteNumber":52,"Velocity":40,"Duration":417042,"SoundDuration":417042,"Delta":28249703},{"NoteNumber":59,"Velocity":38,"Duration":220690,"SoundDuration":220690,"Delta":28666746},{"NoteNumber":62,"Velocity":38,"Duration":220690,"SoundDuration":220690,"Delta":28666746},{"NoteNumber":64,"Velocity":38,"Duration":220690,"SoundDuration":220690,"Delta":28666746},{"NoteNumber":68,"Velocity":45,"Duration":220690,"SoundDuration":220690,"Delta":28666746},{"NoteNumber":40,"Velocity":31,"Duration":220690,"SoundDuration":220690,"Delta":28666746},{"NoteNumber":52,"Velocity":37,"Duration":220690,"SoundDuration":220690,"Delta":28666746},{"NoteNumber":59,"Velocity":39,"Duration":696918,"SoundDuration":696918,"Delta":28899052},{"NoteNumber":62,"Velocity":39,"Duration":696918,"SoundDuration":696918,"Delta":28899052},{"NoteNumber":64,"Velocity":39,"Duration":1161529,"SoundDuration":1161529,"Delta":28899052},{"NoteNumber":68,"Velocity":46,"Duration":696918,"SoundDuration":696918,"Delta":28899052},{"NoteNumber":40,"Velocity":34,"Duration":696918,"SoundDuration":696918,"Delta":28899052},{"NoteNumber":52,"Velocity":40,"Duration":1161529,"SoundDuration":1161529,"Delta":28899052},{"NoteNumber":60,"Velocity":34,"Duration":464611,"SoundDuration":464611,"Delta":29595970},{"NoteNumber":69,"Velocity":41,"Duration":464611,"SoundDuration":464611,"Delta":29595970},{"NoteNumber":45,"Velocity":32,"Duration":464611,"SoundDuration":464611,"Delta":29595970},{"NoteNumber":64,"Velocity":34,"Duration":213553,"SoundDuration":213553,"Delta":30060582},{"NoteNumber":72,"Velocity":41,"Duration":213553,"SoundDuration":213553,"Delta":30060582},{"NoteNumber":52,"Velocity":37,"Duration":213553,"SoundDuration":213553,"Delta":30060582},{"NoteNumber":62,"Velocity":39,"Duration":407415,"SoundDuration":407415,"Delta":30274135},{"NoteNumber":71,"Velocity":46,"Duration":407415,"SoundDuration":407415,"Delta":30274135},{"NoteNumber":52,"Velocity":40,"Duration":407415,"SoundDuration":407415,"Delta":30274135},{"NoteNumber":64,"Velocity":34,"Duration":216184,"SoundDuration":216184,"Delta":30681550},{"NoteNumber":72,"Velocity":41,"Duration":216184,"SoundDuration":216184,"Delta":30681550},{"NoteNumber":52,"Velocity":38,"Duration":216184,"SoundDuration":216184,"Delta":30681550},{"NoteNumber":67,"Velocity":39,"Duration":1022424,"SoundDuration":1022424,"Delta":30897735},{"NoteNumber":76,"Velocity":46,"Duration":408969,"SoundDuration":408969,"Delta":30897735},{"NoteNumber":43,"Velocity":34,"Duration":1022424,"SoundDuration":1022424,"Delta":30897735},{"NoteNumber":55,"Velocity":40,"Duration":408969,"SoundDuration":408969,"Delta":30897735},{"NoteNumber":65,"Velocity":34,"Duration":204485,"SoundDuration":204485,"Delta":31306705},{"NoteNumber":74,"Velocity":41,"Duration":204485,"SoundDuration":204485,"Delta":31306705},{"NoteNumber":55,"Velocity":37,"Duration":204485,"SoundDuration":204485,"Delta":31306705},{"NoteNumber":62,"Velocity":35,"Duration":1031493,"SoundDuration":1031493,"Delta":31511190},{"NoteNumber":71,"Velocity":42,"Duration":1031493,"SoundDuration":1031493,"Delta":31511190},{"NoteNumber":55,"Velocity":41,"Duration":408969,"SoundDuration":408969,"Delta":31511190},{"NoteNumber":67,"Velocity":39,"Duration":213553,"SoundDuration":213553,"Delta":31920160},{"NoteNumber":43,"Velocity":32,"Duration":160165,"SoundDuration":160165,"Delta":31920160},{"NoteNumber":55,"Velocity":39,"Duration":160165,"SoundDuration":160165,"Delta":31920160},{"NoteNumber":67,"Velocity":44,"Duration":408969,"SoundDuration":408969,"Delta":32133714},{"NoteNumber":43,"Velocity":37,"Duration":408969,"SoundDuration":408969,"Delta":32133714},{"NoteNumber":55,"Velocity":44,"Duration":408969,"SoundDuration":408969,"Delta":32133714},{"NoteNumber":64,"Velocity":40,"Duration":217061,"SoundDuration":217061,"Delta":32542684},{"NoteNumber":67,"Velocity":40,"Duration":217061,"SoundDuration":217061,"Delta":32542684},{"NoteNumber":72,"Velocity":48,"Duration":217061,"SoundDuration":217061,"Delta":32542684},{"NoteNumber":48,"Velocity":35,"Duration":217061,"SoundDuration":217061,"Delta":32542684},{"NoteNumber":55,"Velocity":42,"Duration":217061,"SoundDuration":217061,"Delta":32542684},{"NoteNumber":67,"Velocity":44,"Duration":1022424,"SoundDuration":1022424,"Delta":32759745},{"NoteNumber":76,"Velocity":52,"Duration":408969,"SoundDuration":408969,"Delta":32759745},{"NoteNumber":43,"Velocity":39,"Duration":1022424,"SoundDuration":1022424,"Delta":32759745},{"NoteNumber":55,"Velocity":46,"Duration":408969,"SoundDuration":408969,"Delta":32759745},{"NoteNumber":65,"Velocity":41,"Duration":204485,"SoundDuration":204485,"Delta":33168715},{"NoteNumber":74,"Velocity":49,"Duration":204485,"SoundDuration":204485,"Delta":33168715},{"NoteNumber":55,"Velocity":44,"Duration":204485,"SoundDuration":204485,"Delta":33168715},{"NoteNumber":62,"Velocity":41,"Duration":1037276,"SoundDuration":1037276,"Delta":33373200},{"NoteNumber":71,"Velocity":50,"Duration":1037276,"SoundDuration":1037276,"Delta":33373200},{"NoteNumber":55,"Velocity":49,"Duration":408969,"SoundDuration":408969,"Delta":33373200},{"NoteNumber":67,"Velocity":48,"Duration":215300,"SoundDuration":215300,"Delta":33782170},{"NoteNumber":43,"Velocity":38,"Duration":161475,"SoundDuration":161475,"Delta":33782170},{"NoteNumber":55,"Velocity":48,"Duration":161475,"SoundDuration":161475,"Delta":33782170},{"NoteNumber":67,"Velocity":54,"Duration":413006,"SoundDuration":413006,"Delta":33997470},{"NoteNumber":43,"Velocity":46,"Duration":413006,"SoundDuration":413006,"Delta":33997470},{"NoteNumber":55,"Velocity":54,"Duration":413006,"SoundDuration":413006,"Delta":33997470},{"NoteNumber":64,"Velocity":64,"Duration":259740,"SoundDuration":259740,"Delta":34410477},{"NoteNumber":67,"Velocity":64,"Duration":259740,"SoundDuration":259740,"Delta":34410477},{"NoteNumber":72,"Velocity":76,"Duration":259740,"SoundDuration":259740,"Delta":34410477},{"NoteNumber":48,"Velocity":44,"Duration":259740,"SoundDuration":259740,"Delta":34410477},{"NoteNumber":55,"Velocity":53,"Duration":259740,"SoundDuration":259740,"Delta":34410477},{"NoteNumber":76,"Velocity":66,"Duration":416666,"SoundDuration":416666,"Delta":34670217},{"NoteNumber":79,"Velocity":77,"Duration":416666,"SoundDuration":416666,"Delta":34670217},{"NoteNumber":64,"Velocity":50,"Duration":416666,"SoundDuration":416666,"Delta":34670217},{"NoteNumber":67,"Velocity":59,"Duration":416666,"SoundDuration":416666,"Delta":34670217},{"NoteNumber":74,"Velocity":67,"Duration":208333,"SoundDuration":208333,"Delta":35086884},{"NoteNumber":78,"Velocity":78,"Duration":208333,"SoundDuration":208333,"Delta":35086884},{"NoteNumber":62,"Velocity":52,"Duration":208333,"SoundDuration":208333,"Delta":35086884},{"NoteNumber":66,"Velocity":60,"Duration":208333,"SoundDuration":208333,"Delta":35086884},{"NoteNumber":72,"Velocity":69,"Duration":431654,"SoundDuration":431654,"Delta":35295218},{"NoteNumber":76,"Velocity":76,"Duration":431654,"SoundDuration":431654,"Delta":35295218},{"NoteNumber":64,"Velocity":62,"Duration":431654,"SoundDuration":431654,"Delta":35295218},{"NoteNumber":60,"Velocity":54,"Duration":431654,"SoundDuration":431654,"Delta":35295218},{"NoteNumber":71,"Velocity":61,"Duration":224433,"SoundDuration":224433,"Delta":35726873},{"NoteNumber":74,"Velocity":74,"Duration":224433,"SoundDuration":224433,"Delta":35726873},{"NoteNumber":59,"Velocity":47,"Duration":224433,"SoundDuration":224433,"Delta":35726873},{"NoteNumber":62,"Velocity":55,"Duration":224433,"SoundDuration":224433,"Delta":35726873},{"NoteNumber":69,"Velocity":58,"Duration":437764,"SoundDuration":437764,"Delta":35951306},{"NoteNumber":72,"Velocity":70,"Duration":437764,"SoundDuration":437764,"Delta":35951306},{"NoteNumber":60,"Velocity":54,"Duration":437764,"SoundDuration":437764,"Delta":35951306},{"NoteNumber":57,"Velocity":46,"Duration":437764,"SoundDuration":437764,"Delta":35951306},{"NoteNumber":67,"Velocity":39,"Duration":284765,"SoundDuration":284765,"Delta":36389070},{"NoteNumber":71,"Velocity":47,"Duration":284765,"SoundDuration":284765,"Delta":36389070},{"NoteNumber":49,"Velocity":31,"Duration":284765,"SoundDuration":284765,"Delta":36389070},{"NoteNumber":59,"Velocity":37,"Duration":284765,"SoundDuration":284765,"Delta":36389070},{"NoteNumber":55,"Velocity":31,"Duration":284765,"SoundDuration":284765,"Delta":36389070},{"NoteNumber":71,"Velocity":39,"Duration":1001669,"SoundDuration":1001669,"Delta":36673835},{"NoteNumber":74,"Velocity":46,"Duration":1001669,"SoundDuration":1001669,"Delta":36673835},{"NoteNumber":59,"Velocity":34,"Duration":1001669,"SoundDuration":1001669,"Delta":36673835},{"NoteNumber":62,"Velocity":40,"Duration":1001669,"SoundDuration":1001669,"Delta":36673835},{"NoteNumber":50,"Velocity":34,"Duration":2155293,"SoundDuration":2155293,"Delta":36673835},{"NoteNumber":66,"Velocity":34,"Duration":1153624,"SoundDuration":1153624,"Delta":37675505},{"NoteNumber":69,"Velocity":41,"Duration":1153624,"SoundDuration":1153624,"Delta":37675505},{"NoteNumber":57,"Velocity":32,"Duration":1153624,"SoundDuration":1153624,"Delta":37675505},{"NoteNumber":54,"Velocity":32,"Duration":1153624,"SoundDuration":1153624,"Delta":37675505},{"NoteNumber":60,"Velocity":39,"Duration":213553,"SoundDuration":213553,"Delta":38829129},{"NoteNumber":62,"Velocity":54,"Duration":213553,"SoundDuration":213553,"Delta":38829129},{"NoteNumber":59,"Velocity":48,"Duration":407415,"SoundDuration":407415,"Delta":39042683},{"NoteNumber":62,"Velocity":48,"Duration":407415,"SoundDuration":407415,"Delta":39042683},{"NoteNumber":67,"Velocity":57,"Duration":407415,"SoundDuration":407415,"Delta":39042683},{"NoteNumber":57,"Velocity":48,"Duration":216185,"SoundDuration":216185,"Delta":39450098},{"NoteNumber":62,"Velocity":48,"Duration":216185,"SoundDuration":216185,"Delta":39450098},{"NoteNumber":66,"Velocity":57,"Duration":216185,"SoundDuration":216185,"Delta":39450098},{"NoteNumber":60,"Velocity":48,"Duration":1022424,"SoundDuration":1022424,"Delta":39666283},{"NoteNumber":62,"Velocity":48,"Duration":1022424,"SoundDuration":1022424,"Delta":39666283},{"NoteNumber":69,"Velocity":57,"Duration":1022424,"SoundDuration":1022424,"Delta":39666283},{"NoteNumber":38,"Velocity":35,"Duration":204485,"SoundDuration":204485,"Delta":40075253},{"NoteNumber":50,"Velocity":43,"Duration":204485,"SoundDuration":204485,"Delta":40075253},{"NoteNumber":38,"Velocity":35,"Duration":622523,"SoundDuration":622523,"Delta":40279738},{"NoteNumber":50,"Velocity":43,"Duration":622523,"SoundDuration":622523,"Delta":40279738},{"NoteNumber":59,"Velocity":51,"Duration":213553,"SoundDuration":213553,"Delta":40688708},{"NoteNumber":62,"Velocity":51,"Duration":213553,"SoundDuration":213553,"Delta":40688708},{"NoteNumber":67,"Velocity":62,"Duration":213553,"SoundDuration":213553,"Delta":40688708},{"NoteNumber":64,"Velocity":57,"Duration":408969,"SoundDuration":408969,"Delta":40902262},{"NoteNumber":67,"Velocity":57,"Duration":408969,"SoundDuration":408969,"Delta":40902262},{"NoteNumber":72,"Velocity":67,"Duration":408969,"SoundDuration":408969,"Delta":40902262},{"NoteNumber":38,"Velocity":41,"Duration":626030,"SoundDuration":626030,"Delta":40902262},{"NoteNumber":50,"Velocity":41,"Duration":1035000,"SoundDuration":1035000,"Delta":40902262},{"NoteNumber":62,"Velocity":52,"Duration":217061,"SoundDuration":217061,"Delta":41311232},{"NoteNumber":67,"Velocity":52,"Duration":217061,"SoundDuration":217061,"Delta":41311232},{"NoteNumber":71,"Velocity":62,"Duration":217061,"SoundDuration":217061,"Delta":41311232},{"NoteNumber":64,"Velocity":56,"Duration":1022424,"SoundDuration":1022424,"Delta":41528293},{"NoteNumber":67,"Velocity":56,"Duration":1022424,"SoundDuration":1022424,"Delta":41528293},{"NoteNumber":76,"Velocity":66,"Duration":1022424,"SoundDuration":1022424,"Delta":41528293},{"NoteNumber":60,"Velocity":51,"Duration":1022424,"SoundDuration":1022424,"Delta":41528293},{"NoteNumber":50,"Velocity":53,"Duration":204485,"SoundDuration":204485,"Delta":41937262},{"NoteNumber":50,"Velocity":53,"Duration":624270,"SoundDuration":624270,"Delta":42141748},{"NoteNumber":67,"Velocity":54,"Duration":215300,"SoundDuration":215300,"Delta":42550717},{"NoteNumber":74,"Velocity":65,"Duration":215300,"SoundDuration":215300,"Delta":42550717},{"NoteNumber":62,"Velocity":47,"Duration":215300,"SoundDuration":215300,"Delta":42550717},{"NoteNumber":59,"Velocity":39,"Duration":215300,"SoundDuration":215300,"Delta":42550717},{"NoteNumber":67,"Velocity":58,"Duration":419539,"SoundDuration":419539,"Delta":42766018},{"NoteNumber":64,"Velocity":58,"Duration":419539,"SoundDuration":419539,"Delta":42766018},{"NoteNumber":74,"Velocity":69,"Duration":419539,"SoundDuration":419539,"Delta":42766018},{"NoteNumber":50,"Velocity":40,"Duration":1075001,"SoundDuration":1075001,"Delta":42766018},{"NoteNumber":61,"Velocity":49,"Duration":419539,"SoundDuration":419539,"Delta":42766018},{"NoteNumber":58,"Velocity":40,"Duration":419539,"SoundDuration":419539,"Delta":42766018},{"NoteNumber":66,"Velocity":54,"Duration":244897,"SoundDuration":244897,"Delta":43185557},{"NoteNumber":74,"Velocity":65,"Duration":244897,"SoundDuration":244897,"Delta":43185557},{"NoteNumber":60,"Velocity":48,"Duration":244897,"SoundDuration":244897,"Delta":43185557},{"NoteNumber":57,"Velocity":40,"Duration":244897,"SoundDuration":244897,"Delta":43185557},{"NoteNumber":67,"Velocity":59,"Duration":1026412,"SoundDuration":1026412,"Delta":43430455},{"NoteNumber":79,"Velocity":74,"Duration":410564,"SoundDuration":410564,"Delta":43430455},{"NoteNumber":59,"Velocity":55,"Duration":1243473,"SoundDuration":1243473,"Delta":43430455},{"NoteNumber":55,"Velocity":55,"Duration":1243473,"SoundDuration":1243473,"Delta":43430455},{"NoteNumber":74,"Velocity":64,"Duration":205282,"SoundDuration":205282,"Delta":43841020},{"NoteNumber":50,"Velocity":55,"Duration":205282,"SoundDuration":205282,"Delta":43841020},{"NoteNumber":71,"Velocity":64,"Duration":410564,"SoundDuration":410564,"Delta":44046302},{"NoteNumber":50,"Velocity":55,"Duration":627625,"SoundDuration":627625,"Delta":44046302},{"NoteNumber":62,"Velocity":45,"Duration":162795,"SoundDuration":162795,"Delta":44456867},{"NoteNumber":67,"Velocity":53,"Duration":162795,"SoundDuration":162795,"Delta":44456867},{"NoteNumber":69,"Velocity":49,"Duration":54265,"SoundDuration":54265,"Delta":44619663},{"NoteNumber":61,"Velocity":44,"Duration":408969,"SoundDuration":408969,"Delta":44673928},{"NoteNumber":67,"Velocity":52,"Duration":204484,"SoundDuration":204484,"Delta":44673928},{"NoteNumber":50,"Velocity":34,"Duration":621690,"SoundDuration":621690,"Delta":44673928},{"NoteNumber":52,"Velocity":34,"Duration":621690,"SoundDuration":621690,"Delta":44673928},{"NoteNumber":55,"Velocity":34,"Duration":621690,"SoundDuration":621690,"Delta":44673928},{"NoteNumber":57,"Velocity":41,"Duration":621690,"SoundDuration":621690,"Delta":44673928},{"NoteNumber":66,"Velocity":49,"Duration":204484,"SoundDuration":204484,"Delta":44878413},{"NoteNumber":61,"Velocity":39,"Duration":212720,"SoundDuration":212720,"Delta":45082898},{"NoteNumber":67,"Velocity":47,"Duration":212720,"SoundDuration":212720,"Delta":45082898},{"NoteNumber":62,"Velocity":44,"Duration":1063602,"SoundDuration":1063602,"Delta":45295619},{"NoteNumber":71,"Velocity":50,"Duration":638161,"SoundDuration":638161,"Delta":45295619},{"NoteNumber":50,"Velocity":31,"Duration":1063602,"SoundDuration":1063602,"Delta":45295619},{"NoteNumber":55,"Velocity":34,"Duration":638161,"SoundDuration":638161,"Delta":45295619},{"NoteNumber":59,"Velocity":41,"Duration":638161,"SoundDuration":638161,"Delta":45295619},{"NoteNumber":69,"Velocity":49,"Duration":425440,"SoundDuration":425440,"Delta":45933780},{"NoteNumber":54,"Velocity":28,"Duration":425440,"SoundDuration":425440,"Delta":45933780},{"NoteNumber":57,"Velocity":34,"Duration":425440,"SoundDuration":425440,"Delta":45933780},{"NoteNumber":62,"Velocity":44,"Duration":208376,"SoundDuration":208376,"Delta":46359221},{"NoteNumber":69,"Velocity":52,"Duration":208376,"SoundDuration":208376,"Delta":46359221},{"NoteNumber":48,"Velocity":35,"Duration":208376,"SoundDuration":208376,"Delta":46359221},{"NoteNumber":54,"Velocity":46,"Duration":208376,"SoundDuration":208376,"Delta":46359221},{"NoteNumber":62,"Velocity":47,"Duration":407230,"SoundDuration":407230,"Delta":46567598},{"NoteNumber":71,"Velocity":56,"Duration":407230,"SoundDuration":407230,"Delta":46567598},{"NoteNumber":48,"Velocity":36,"Duration":407230,"SoundDuration":407230,"Delta":46567598},{"NoteNumber":55,"Velocity":48,"Duration":407230,"SoundDuration":407230,"Delta":46567598},{"NoteNumber":62,"Velocity":45,"Duration":223048,"SoundDuration":223048,"Delta":46974828},{"NoteNumber":72,"Velocity":57,"Duration":223048,"SoundDuration":223048,"Delta":46974828},{"NoteNumber":48,"Velocity":36,"Duration":223048,"SoundDuration":223048,"Delta":46974828},{"NoteNumber":57,"Velocity":49,"Duration":223048,"SoundDuration":223048,"Delta":46974828},{"NoteNumber":62,"Velocity":49,"Duration":1017009,"SoundDuration":1017009,"Delta":47197877},{"NoteNumber":76,"Velocity":61,"Duration":402664,"SoundDuration":402664,"Delta":47197877},{"NoteNumber":47,"Velocity":44,"Duration":1017009,"SoundDuration":1017009,"Delta":47197877},{"NoteNumber":60,"Velocity":48,"Duration":402664,"SoundDuration":402664,"Delta":47197877},{"NoteNumber":74,"Velocity":53,"Duration":201045,"SoundDuration":201045,"Delta":47600541},{"NoteNumber":59,"Velocity":44,"Duration":201045,"SoundDuration":201045,"Delta":47600541},{"NoteNumber":71,"Velocity":53,"Duration":413299,"SoundDuration":413299,"Delta":47801587},{"NoteNumber":55,"Velocity":44,"Duration":413299,"SoundDuration":413299,"Delta":47801587},{"NoteNumber":62,"Velocity":46,"Duration":206868,"SoundDuration":206868,"Delta":48214886},{"NoteNumber":69,"Velocity":54,"Duration":206868,"SoundDuration":206868,"Delta":48214886},{"NoteNumber":48,"Velocity":36,"Duration":206868,"SoundDuration":206868,"Delta":48214886},{"NoteNumber":54,"Velocity":48,"Duration":206868,"SoundDuration":206868,"Delta":48214886},{"NoteNumber":62,"Velocity":49,"Duration":404242,"SoundDuration":404242,"Delta":48421754},{"NoteNumber":71,"Velocity":58,"Duration":404242,"SoundDuration":404242,"Delta":48421754},{"NoteNumber":48,"Velocity":37,"Duration":404242,"SoundDuration":404242,"Delta":48421754},{"NoteNumber":55,"Velocity":50,"Duration":404242,"SoundDuration":404242,"Delta":48421754},{"NoteNumber":62,"Velocity":47,"Duration":209146,"SoundDuration":209146,"Delta":48825997},{"NoteNumber":72,"Velocity":59,"Duration":209146,"SoundDuration":209146,"Delta":48825997},{"NoteNumber":48,"Velocity":37,"Duration":209146,"SoundDuration":209146,"Delta":48825997},{"NoteNumber":57,"Velocity":51,"Duration":209146,"SoundDuration":209146,"Delta":48825997},{"NoteNumber":62,"Velocity":51,"Duration":1018024,"SoundDuration":1018024,"Delta":49035143},{"NoteNumber":76,"Velocity":64,"Duration":402090,"SoundDuration":402090,"Delta":49035143},{"NoteNumber":47,"Velocity":46,"Duration":1018024,"SoundDuration":1018024,"Delta":49035143},{"NoteNumber":60,"Velocity":50,"Duration":402090,"SoundDuration":402090,"Delta":49035143},{"NoteNumber":74,"Velocity":55,"Duration":201045,"SoundDuration":201045,"Delta":49437234},{"NoteNumber":59,"Velocity":46,"Duration":201045,"SoundDuration":201045,"Delta":49437234},{"NoteNumber":71,"Velocity":55,"Duration":414888,"SoundDuration":414888,"Delta":49638280},{"NoteNumber":55,"Velocity":46,"Duration":414888,"SoundDuration":414888,"Delta":49638280},{"NoteNumber":67,"Velocity":71,"Duration":209146,"SoundDuration":209146,"Delta":50053168},{"NoteNumber":55,"Velocity":51,"Duration":209146,"SoundDuration":209146,"Delta":50053168},{"NoteNumber":69,"Velocity":63,"Duration":409567,"SoundDuration":409567,"Delta":50262315},{"NoteNumber":76,"Velocity":68,"Duration":409567,"SoundDuration":409567,"Delta":50262315},{"NoteNumber":67,"Velocity":63,"Duration":409567,"SoundDuration":409567,"Delta":50262315},{"NoteNumber":79,"Velocity":78,"Duration":409567,"SoundDuration":409567,"Delta":50262315},{"NoteNumber":48,"Velocity":44,"Duration":409567,"SoundDuration":409567,"Delta":50262315},{"NoteNumber":57,"Velocity":53,"Duration":409567,"SoundDuration":409567,"Delta":50262315},{"NoteNumber":55,"Velocity":44,"Duration":409567,"SoundDuration":409567,"Delta":50262315},{"NoteNumber":69,"Velocity":58,"Duration":220685,"SoundDuration":220685,"Delta":50671882},{"NoteNumber":76,"Velocity":64,"Duration":220685,"SoundDuration":220685,"Delta":50671882},{"NoteNumber":67,"Velocity":58,"Duration":220685,"SoundDuration":220685,"Delta":50671882},{"NoteNumber":79,"Velocity":75,"Duration":220685,"SoundDuration":220685,"Delta":50671882},{"NoteNumber":57,"Velocity":52,"Duration":220685,"SoundDuration":220685,"Delta":50671882},{"NoteNumber":55,"Velocity":44,"Duration":220685,"SoundDuration":220685,"Delta":50671882},{"NoteNumber":48,"Velocity":44,"Duration":220685,"SoundDuration":220685,"Delta":50671882},{"NoteNumber":67,"Velocity":64,"Duration":615847,"SoundDuration":615847,"Delta":50892567},{"NoteNumber":74,"Velocity":69,"Duration":615847,"SoundDuration":615847,"Delta":50892567},{"NoteNumber":79,"Velocity":80,"Duration":615847,"SoundDuration":615847,"Delta":50892567},{"NoteNumber":50,"Velocity":48,"Duration":1026412,"SoundDuration":1026412,"Delta":50892567},{"NoteNumber":59,"Velocity":56,"Duration":1026412,"SoundDuration":1026412,"Delta":50892567},{"NoteNumber":55,"Velocity":48,"Duration":1026412,"SoundDuration":1026412,"Delta":50892567},{"NoteNumber":71,"Velocity":55,"Duration":410564,"SoundDuration":410564,"Delta":51508415},{"NoteNumber":74,"Velocity":67,"Duration":410564,"SoundDuration":410564,"Delta":51508415},{"NoteNumber":67,"Velocity":45,"Duration":217061,"SoundDuration":217061,"Delta":51918980},{"NoteNumber":71,"Velocity":53,"Duration":217061,"SoundDuration":217061,"Delta":51918980},{"NoteNumber":55,"Velocity":43,"Duration":217061,"SoundDuration":217061,"Delta":51918980},{"NoteNumber":66,"Velocity":47,"Duration":621690,"SoundDuration":621690,"Delta":52136041},{"NoteNumber":72,"Velocity":55,"Duration":204484,"SoundDuration":204484,"Delta":52136041},{"NoteNumber":57,"Velocity":44,"Duration":204484,"SoundDuration":204484,"Delta":52136041},{"NoteNumber":50,"Velocity":36,"Duration":621690,"SoundDuration":621690,"Delta":52136041},{"NoteNumber":76,"Velocity":50,"Duration":204484,"SoundDuration":204484,"Delta":52340526},{"NoteNumber":60,"Velocity":40,"Duration":204484,"SoundDuration":204484,"Delta":52340526},{"NoteNumber":74,"Velocity":50,"Duration":212720,"SoundDuration":212720,"Delta":52545011},{"NoteNumber":59,"Velocity":40,"Duration":212720,"SoundDuration":212720,"Delta":52545011},{"NoteNumber":66,"Velocity":47,"Duration":638161,"SoundDuration":638161,"Delta":52757731},{"NoteNumber":72,"Velocity":55,"Duration":638161,"SoundDuration":638161,"Delta":52757731},{"NoteNumber":50,"Velocity":40,"Duration":638161,"SoundDuration":638161,"Delta":52757731},{"NoteNumber":57,"Velocity":36,"Duration":638161,"SoundDuration":638161,"Delta":52757731},{"NoteNumber":67,"Velocity":46,"Duration":425440,"SoundDuration":425440,"Delta":53395893},{"NoteNumber":71,"Velocity":53,"Duration":425440,"SoundDuration":425440,"Delta":53395893},{"NoteNumber":55,"Velocity":36,"Duration":425440,"SoundDuration":425440,"Delta":53395893},{"NoteNumber":62,"Velocity":44,"Duration":197957,"SoundDuration":197957,"Delta":53821334},{"NoteNumber":69,"Velocity":52,"Duration":197957,"SoundDuration":197957,"Delta":53821334},{"NoteNumber":48,"Velocity":35,"Duration":197957,"SoundDuration":197957,"Delta":53821334},{"NoteNumber":54,"Velocity":46,"Duration":197957,"SoundDuration":197957,"Delta":53821334},{"NoteNumber":62,"Velocity":47,"Duration":198939,"SoundDuration":198939,"Delta":54029710},{"NoteNumber":69,"Velocity":56,"Duration":198939,"SoundDuration":198939,"Delta":54029710},{"NoteNumber":48,"Velocity":36,"Duration":198939,"SoundDuration":198939,"Delta":54029710},{"NoteNumber":54,"Velocity":48,"Duration":198939,"SoundDuration":198939,"Delta":54029710},{"NoteNumber":62,"Velocity":47,"Duration":203197,"SoundDuration":203197,"Delta":54228649},{"NoteNumber":71,"Velocity":56,"Duration":203197,"SoundDuration":203197,"Delta":54228649},{"NoteNumber":48,"Velocity":36,"Duration":203197,"SoundDuration":203197,"Delta":54228649},{"NoteNumber":55,"Velocity":48,"Duration":203197,"SoundDuration":203197,"Delta":54228649},{"NoteNumber":62,"Velocity":45,"Duration":218754,"SoundDuration":218754,"Delta":54431846},{"NoteNumber":72,"Velocity":57,"Duration":218754,"SoundDuration":218754,"Delta":54431846},{"NoteNumber":48,"Velocity":36,"Duration":218754,"SoundDuration":218754,"Delta":54431846},{"NoteNumber":57,"Velocity":49,"Duration":218754,"SoundDuration":218754,"Delta":54431846},{"NoteNumber":62,"Velocity":51,"Duration":803350,"SoundDuration":803350,"Delta":54650601},{"NoteNumber":76,"Velocity":64,"Duration":402664,"SoundDuration":402664,"Delta":54650601},{"NoteNumber":47,"Velocity":46,"Duration":803350,"SoundDuration":803350,"Delta":54650601},{"NoteNumber":60,"Velocity":50,"Duration":402664,"SoundDuration":402664,"Delta":54650601},{"NoteNumber":74,"Velocity":55,"Duration":201045,"SoundDuration":201045,"Delta":55053265},{"NoteNumber":59,"Velocity":46,"Duration":201045,"SoundDuration":201045,"Delta":55053265},{"NoteNumber":71,"Velocity":55,"Duration":199640,"SoundDuration":199640,"Delta":55254310},{"NoteNumber":55,"Velocity":46,"Duration":199640,"SoundDuration":199640,"Delta":55254310},{"NoteNumber":62,"Velocity":44,"Duration":201762,"SoundDuration":201762,"Delta":55453951},{"NoteNumber":69,"Velocity":54,"Duration":201762,"SoundDuration":201762,"Delta":55453951},{"NoteNumber":48,"Velocity":33,"Duration":201762,"SoundDuration":201762,"Delta":55453951},{"NoteNumber":54,"Velocity":48,"Duration":201762,"SoundDuration":201762,"Delta":55453951},{"NoteNumber":62,"Velocity":45,"Duration":201761,"SoundDuration":201761,"Delta":55655713},{"NoteNumber":68,"Velocity":56,"Duration":201761,"SoundDuration":201761,"Delta":55655713},{"NoteNumber":48,"Velocity":34,"Duration":201761,"SoundDuration":201761,"Delta":55655713},{"NoteNumber":53,"Velocity":50,"Duration":201761,"SoundDuration":201761,"Delta":55655713},{"NoteNumber":62,"Velocity":51,"Duration":198939,"SoundDuration":198939,"Delta":55857475},{"NoteNumber":69,"Velocity":60,"Duration":198939,"SoundDuration":198939,"Delta":55857475},{"NoteNumber":48,"Velocity":38,"Duration":198939,"SoundDuration":198939,"Delta":55857475},{"NoteNumber":54,"Velocity":52,"Duration":198939,"SoundDuration":198939,"Delta":55857475},{"NoteNumber":62,"Velocity":51,"Duration":203915,"SoundDuration":203915,"Delta":56056414},{"NoteNumber":71,"Velocity":60,"Duration":203915,"SoundDuration":203915,"Delta":56056414},{"NoteNumber":48,"Velocity":38,"Duration":203915,"SoundDuration":203915,"Delta":56056414},{"NoteNumber":55,"Velocity":52,"Duration":203915,"SoundDuration":203915,"Delta":56056414},{"NoteNumber":62,"Velocity":49,"Duration":209146,"SoundDuration":209146,"Delta":56260329},{"NoteNumber":72,"Velocity":61,"Duration":209146,"SoundDuration":209146,"Delta":56260329},{"NoteNumber":48,"Velocity":38,"Duration":209146,"SoundDuration":209146,"Delta":56260329},{"NoteNumber":57,"Velocity":53,"Duration":209146,"SoundDuration":209146,"Delta":56260329},{"NoteNumber":62,"Velocity":53,"Duration":1018024,"SoundDuration":1018024,"Delta":56469476},{"NoteNumber":76,"Velocity":67,"Duration":402090,"SoundDuration":402090,"Delta":56469476},{"NoteNumber":47,"Velocity":48,"Duration":1018024,"SoundDuration":1018024,"Delta":56469476},{"NoteNumber":60,"Velocity":50,"Duration":402090,"SoundDuration":402090,"Delta":56469476},{"NoteNumber":74,"Velocity":57,"Duration":201045,"SoundDuration":201045,"Delta":56871567},{"NoteNumber":59,"Velocity":48,"Duration":201045,"SoundDuration":201045,"Delta":56871567},{"NoteNumber":71,"Velocity":57,"Duration":414888,"SoundDuration":414888,"Delta":57072612},{"NoteNumber":55,"Velocity":48,"Duration":414888,"SoundDuration":414888,"Delta":57072612},{"NoteNumber":67,"Velocity":71,"Duration":209146,"SoundDuration":209146,"Delta":57487500},{"NoteNumber":49,"Velocity":44,"Duration":209146,"SoundDuration":209146,"Delta":57487500},{"NoteNumber":55,"Velocity":44,"Duration":209146,"SoundDuration":209146,"Delta":57487500},{"NoteNumber":57,"Velocity":51,"Duration":209146,"SoundDuration":209146,"Delta":57487500},{"NoteNumber":69,"Velocity":63,"Duration":409567,"SoundDuration":409567,"Delta":57696647},{"NoteNumber":76,"Velocity":68,"Duration":409567,"SoundDuration":409567,"Delta":57696647},{"NoteNumber":67,"Velocity":63,"Duration":409567,"SoundDuration":409567,"Delta":57696647},{"NoteNumber":79,"Velocity":78,"Duration":409567,"SoundDuration":409567,"Delta":57696647},{"NoteNumber":49,"Velocity":44,"Duration":409567,"SoundDuration":409567,"Delta":57696647},{"NoteNumber":57,"Velocity":53,"Duration":409567,"SoundDuration":409567,"Delta":57696647},{"NoteNumber":55,"Velocity":44,"Duration":409567,"SoundDuration":409567,"Delta":57696647},{"NoteNumber":69,"Velocity":58,"Duration":220685,"SoundDuration":220685,"Delta":58106214},{"NoteNumber":76,"Velocity":64,"Duration":220685,"SoundDuration":220685,"Delta":58106214},{"NoteNumber":67,"Velocity":58,"Duration":220685,"SoundDuration":220685,"Delta":58106214},{"NoteNumber":79,"Velocity":75,"Duration":220685,"SoundDuration":220685,"Delta":58106214},{"NoteNumber":57,"Velocity":52,"Duration":220685,"SoundDuration":220685,"Delta":58106214},{"NoteNumber":55,"Velocity":44,"Duration":220685,"SoundDuration":220685,"Delta":58106214},{"NoteNumber":49,"Velocity":44,"Duration":220685,"SoundDuration":220685,"Delta":58106214},{"NoteNumber":67,"Velocity":64,"Duration":615847,"SoundDuration":615847,"Delta":58326900},{"NoteNumber":71,"Velocity":69,"Duration":615847,"SoundDuration":615847,"Delta":58326900},{"NoteNumber":79,"Velocity":80,"Duration":615847,"SoundDuration":615847,"Delta":58326900},{"NoteNumber":50,"Velocity":48,"Duration":1026412,"SoundDuration":1026412,"Delta":58326900},{"NoteNumber":59,"Velocity":56,"Duration":1026412,"SoundDuration":1026412,"Delta":58326900},{"NoteNumber":55,"Velocity":48,"Duration":1026412,"SoundDuration":1026412,"Delta":58326900},{"NoteNumber":71,"Velocity":57,"Duration":410564,"SoundDuration":410564,"Delta":58942747},{"NoteNumber":74,"Velocity":70,"Duration":410564,"SoundDuration":410564,"Delta":58942747},{"NoteNumber":83,"Velocity":72,"Duration":217061,"SoundDuration":217061,"Delta":59353312},{"NoteNumber":79,"Velocity":70,"Duration":408969,"SoundDuration":408969,"Delta":59570373},{"NoteNumber":74,"Velocity":68,"Duration":212720,"SoundDuration":212720,"Delta":59979343},{"NoteNumber":78,"Velocity":68,"Duration":212720,"SoundDuration":212720,"Delta":59979343},{"NoteNumber":72,"Velocity":66,"Duration":425440,"SoundDuration":425440,"Delta":60192064},{"NoteNumber":76,"Velocity":66,"Duration":425440,"SoundDuration":425440,"Delta":60192064},{"NoteNumber":71,"Velocity":64,"Duration":212720,"SoundDuration":212720,"Delta":60617505},{"NoteNumber":74,"Velocity":64,"Duration":212720,"SoundDuration":212720,"Delta":60617505},{"NoteNumber":67,"Velocity":60,"Duration":212720,"SoundDuration":212720,"Delta":60617505},{"NoteNumber":67,"Velocity":60,"Duration":424508,"SoundDuration":424508,"Delta":60830225},{"NoteNumber":72,"Velocity":60,"Duration":424508,"SoundDuration":424508,"Delta":60830225},{"NoteNumber":64,"Velocity":60,"Duration":424508,"SoundDuration":424508,"Delta":60830225},{"NoteNumber":67,"Velocity":61,"Duration":212253,"SoundDuration":212253,"Delta":61254733},{"NoteNumber":71,"Velocity":61,"Duration":212253,"SoundDuration":212253,"Delta":61254733},{"NoteNumber":62,"Velocity":57,"Duration":212253,"SoundDuration":212253,"Delta":61254733},{"NoteNumber":64,"Velocity":58,"Duration":449573,"SoundDuration":449573,"Delta":61466987},{"NoteNumber":67,"Velocity":58,"Duration":449573,"SoundDuration":449573,"Delta":61466987},{"NoteNumber":69,"Velocity":58,"Duration":449573,"SoundDuration":449573,"Delta":61466987},{"NoteNumber":61,"Velocity":57,"Duration":449573,"SoundDuration":449573,"Delta":61466987},{"NoteNumber":76,"Velocity":58,"Duration":227908,"SoundDuration":227908,"Delta":61916560},{"NoteNumber":61,"Velocity":57,"Duration":227908,"SoundDuration":227908,"Delta":61916560},{"NoteNumber":64,"Velocity":57,"Duration":227908,"SoundDuration":227908,"Delta":61916560},{"NoteNumber":67,"Velocity":57,"Duration":227908,"SoundDuration":227908,"Delta":61916560},{"NoteNumber":76,"Velocity":58,"Duration":669094,"SoundDuration":669094,"Delta":62156464},{"NoteNumber":61,"Velocity":53,"Duration":1131415,"SoundDuration":1131415,"Delta":62156464},{"NoteNumber":64,"Velocity":53,"Duration":1131415,"SoundDuration":1131415,"Delta":62156464},{"NoteNumber":67,"Velocity":53,"Duration":1131415,"SoundDuration":1131415,"Delta":62156464},{"NoteNumber":69,"Velocity":52,"Duration":462321,"SoundDuration":462321,"Delta":62825559},{"NoteNumber":72,"Velocity":52,"Duration":456760,"SoundDuration":456760,"Delta":63519040},{"NoteNumber":66,"Velocity":44,"Duration":456760,"SoundDuration":456760,"Delta":63519040},{"NoteNumber":50,"Velocity":34,"Duration":456760,"SoundDuration":456760,"Delta":63519040},{"NoteNumber":57,"Velocity":40,"Duration":456760,"SoundDuration":456760,"Delta":63519040},{"NoteNumber":66,"Velocity":41,"Duration":240925,"SoundDuration":240925,"Delta":63975800},{"NoteNumber":71,"Velocity":49,"Duration":240925,"SoundDuration":240925,"Delta":63975800},{"NoteNumber":50,"Velocity":34,"Duration":240925,"SoundDuration":240925,"Delta":63975800},{"NoteNumber":62,"Velocity":40,"Duration":240925,"SoundDuration":240925,"Delta":63975800},{"NoteNumber":66,"Velocity":41,"Duration":1204624,"SoundDuration":1204624,"Delta":64216725},{"NoteNumber":69,"Velocity":49,"Duration":1401617,"SoundDuration":1401617,"Delta":64216725},{"NoteNumber":50,"Velocity":31,"Duration":1204624,"SoundDuration":1204624,"Delta":64216725},{"NoteNumber":60,"Velocity":37,"Duration":1204624,"SoundDuration":1204624,"Delta":64216725},{"NoteNumber":59,"Velocity":46,"Duration":196992,"SoundDuration":196992,"Delta":65421350},{"NoteNumber":62,"Velocity":55,"Duration":196992,"SoundDuration":196992,"Delta":65421350},{"NoteNumber":67,"Velocity":60,"Duration":409725,"SoundDuration":409725,"Delta":65618342},{"NoteNumber":59,"Velocity":49,"Duration":195439,"SoundDuration":195439,"Delta":65618342},{"NoteNumber":62,"Velocity":59,"Duration":195439,"SoundDuration":195439,"Delta":65618342},{"NoteNumber":31,"Velocity":34,"Duration":409725,"SoundDuration":409725,"Delta":65618342},{"NoteNumber":43,"Velocity":40,"Duration":409725,"SoundDuration":409725,"Delta":65618342},{"NoteNumber":55,"Velocity":55,"Duration":214285,"SoundDuration":214285,"Delta":65813782},{"NoteNumber":62,"Velocity":50,"Duration":215908,"SoundDuration":215908,"Delta":66028068},{"NoteNumber":67,"Velocity":50,"Duration":215908,"SoundDuration":215908,"Delta":66028068},{"NoteNumber":71,"Velocity":59,"Duration":215908,"SoundDuration":215908,"Delta":66028068},{"NoteNumber":62,"Velocity":52,"Duration":585705,"SoundDuration":585705,"Delta":66255340},{"NoteNumber":67,"Velocity":52,"Duration":585705,"SoundDuration":585705,"Delta":66255340},{"NoteNumber":71,"Velocity":63,"Duration":585705,"SoundDuration":585705,"Delta":66255340},{"NoteNumber":31,"Velocity":35,"Duration":991110,"SoundDuration":991110,"Delta":66255340},{"NoteNumber":43,"Velocity":42,"Duration":991110,"SoundDuration":991110,"Delta":66255340},{"NoteNumber":59,"Velocity":41,"Duration":405405,"SoundDuration":405405,"Delta":66841046},{"NoteNumber":67,"Velocity":49,"Duration":405405,"SoundDuration":405405,"Delta":66841046},{"NoteNumber":62,"Velocity":52,"Duration":199004,"SoundDuration":199004,"Delta":67246451},{"NoteNumber":71,"Velocity":62,"Duration":199004,"SoundDuration":199004,"Delta":67246451},{"NoteNumber":62,"Velocity":53,"Duration":194212,"SoundDuration":194212,"Delta":67445456},{"NoteNumber":71,"Velocity":64,"Duration":194212,"SoundDuration":194212,"Delta":67445456},{"NoteNumber":31,"Velocity":37,"Duration":415843,"SoundDuration":415843,"Delta":67445456},{"NoteNumber":43,"Velocity":44,"Duration":415843,"SoundDuration":415843,"Delta":67445456},{"NoteNumber":59,"Velocity":50,"Duration":221631,"SoundDuration":221631,"Delta":67639668},{"NoteNumber":67,"Velocity":60,"Duration":221631,"SoundDuration":221631,"Delta":67639668},{"NoteNumber":71,"Velocity":57,"Duration":220947,"SoundDuration":220947,"Delta":67861299},{"NoteNumber":74,"Velocity":57,"Duration":220947,"SoundDuration":220947,"Delta":67861299},{"NoteNumber":79,"Velocity":69,"Duration":220947,"SoundDuration":220947,"Delta":67861299},{"NoteNumber":71,"Velocity":59,"Duration":591016,"SoundDuration":591016,"Delta":68093875},{"NoteNumber":74,"Velocity":59,"Duration":591016,"SoundDuration":591016,"Delta":68093875},{"NoteNumber":79,"Velocity":71,"Duration":591016,"SoundDuration":591016,"Delta":68093875},{"NoteNumber":38,"Velocity":52,"Duration":1016837,"SoundDuration":1016837,"Delta":68093875},{"NoteNumber":67,"Velocity":45,"Duration":425820,"SoundDuration":425820,"Delta":68684892},{"NoteNumber":71,"Velocity":45,"Duration":425820,"SoundDuration":425820,"Delta":68684892},{"NoteNumber":74,"Velocity":54,"Duration":425820,"SoundDuration":425820,"Delta":68684892},{"NoteNumber":79,"Velocity":65,"Duration":196232,"SoundDuration":196232,"Delta":69110713},{"NoteNumber":86,"Velocity":77,"Duration":196232,"SoundDuration":196232,"Delta":69110713},{"NoteNumber":62,"Velocity":45,"Duration":196232,"SoundDuration":196232,"Delta":69110713},{"NoteNumber":71,"Velocity":53,"Duration":196232,"SoundDuration":196232,"Delta":69110713},{"NoteNumber":79,"Velocity":70,"Duration":187137,"SoundDuration":187137,"Delta":69306945},{"NoteNumber":86,"Velocity":82,"Duration":187137,"SoundDuration":187137,"Delta":69306945},{"NoteNumber":62,"Velocity":47,"Duration":187137,"SoundDuration":187137,"Delta":69306945},{"NoteNumber":71,"Velocity":56,"Duration":187137,"SoundDuration":187137,"Delta":69306945},{"NoteNumber":74,"Velocity":61,"Duration":187137,"SoundDuration":187137,"Delta":69494083},{"NoteNumber":83,"Velocity":73,"Duration":187137,"SoundDuration":187137,"Delta":69494083},{"NoteNumber":67,"Velocity":52,"Duration":187137,"SoundDuration":187137,"Delta":69494083},{"NoteNumber":71,"Velocity":61,"Duration":185136,"SoundDuration":185136,"Delta":69681220},{"NoteNumber":79,"Velocity":73,"Duration":185136,"SoundDuration":185136,"Delta":69681220},{"NoteNumber":62,"Velocity":52,"Duration":185136,"SoundDuration":185136,"Delta":69681220},{"NoteNumber":71,"Velocity":63,"Duration":187137,"SoundDuration":187137,"Delta":69876101},{"NoteNumber":79,"Velocity":76,"Duration":187137,"SoundDuration":187137,"Delta":69876101},{"NoteNumber":50,"Velocity":50,"Duration":187137,"SoundDuration":187137,"Delta":69876101},{"NoteNumber":62,"Velocity":57,"Duration":187137,"SoundDuration":187137,"Delta":69876101},{"NoteNumber":67,"Velocity":55,"Duration":187137,"SoundDuration":187137,"Delta":70063239},{"NoteNumber":74,"Velocity":66,"Duration":187137,"SoundDuration":187137,"Delta":70063239},{"NoteNumber":59,"Velocity":51,"Duration":187137,"SoundDuration":187137,"Delta":70063239},{"NoteNumber":62,"Velocity":55,"Duration":212524,"SoundDuration":212524,"Delta":70250376},{"NoteNumber":71,"Velocity":66,"Duration":212524,"SoundDuration":212524,"Delta":70250376},{"NoteNumber":55,"Velocity":51,"Duration":212524,"SoundDuration":212524,"Delta":70250376},{"NoteNumber":67,"Velocity":61,"Duration":717132,"SoundDuration":717132,"Delta":70462901},{"NoteNumber":74,"Velocity":73,"Duration":717132,"SoundDuration":717132,"Delta":70462901},{"NoteNumber":59,"Velocity":54,"Duration":717132,"SoundDuration":717132,"Delta":70462901},{"NoteNumber":60,"Velocity":38,"Duration":485830,"SoundDuration":485830,"Delta":71180033},{"NoteNumber":62,"Velocity":38,"Duration":485830,"SoundDuration":485830,"Delta":71180033},{"NoteNumber":66,"Velocity":38,"Duration":485830,"SoundDuration":485830,"Delta":71180033},{"NoteNumber":69,"Velocity":45,"Duration":485830,"SoundDuration":485830,"Delta":71180033},{"NoteNumber":38,"Velocity":32,"Duration":485830,"SoundDuration":485830,"Delta":71180033},{"NoteNumber":50,"Velocity":38,"Duration":485830,"SoundDuration":485830,"Delta":71180033},{"NoteNumber":71,"Velocity":44,"Duration":288461,"SoundDuration":288461,"Delta":71665863},{"NoteNumber":59,"Velocity":36,"Duration":1209338,"SoundDuration":1209338,"Delta":71954325},{"NoteNumber":62,"Velocity":36,"Duration":1209338,"SoundDuration":1209338,"Delta":71954325},{"NoteNumber":67,"Velocity":43,"Duration":1209338,"SoundDuration":1209338,"Delta":71954325},{"NoteNumber":31,"Velocity":30,"Duration":1209338,"SoundDuration":1209338,"Delta":71954325},{"NoteNumber":43,"Velocity":36,"Duration":1209338,"SoundDuration":1209338,"Delta":71954325}]}