{"title":"Nr. 1 in C-Dur","artist":"Piano","durationMs":267209,"midiSha256":"b4b8ad4e0e53f52124a45ec68ca764f481a7eba559e21f674d40bf7dac406664","midiObject":[{"NoteNumber":67,"Velocity":60,"Duration":474425,"SoundDuration":474425,"Delta":0},{"NoteNumber":55,"Velocity":54,"Duration":474425,"SoundDuration":474425,"Delta":0},{"NoteNumber":69,"Velocity":50,"Duration":67775,"SoundDuration":67775,"Delta":473296},{"NoteNumber":57,"Velocity":44,"Duration":67775,"SoundDuration":67775,"Delta":473296},{"NoteNumber":67,"Velocity":60,"Duration":173912,"SoundDuration":173912,"Delta":541072},{"NoteNumber":55,"Velocity":54,"Duration":173912,"SoundDuration":173912,"Delta":541072},{"NoteNumber":64,"Velocity":57,"Duration":168067,"SoundDuration":168067,"Delta":714985},{"NoteNumber":52,"Velocity":50,"Duration":168067,"SoundDuration":168067,"Delta":714985},{"NoteNumber":60,"Velocity":53,"Duration":168067,"SoundDuration":168067,"Delta":883052},{"NoteNumber":48,"Velocity":47,"Duration":168067,"SoundDuration":168067,"Delta":883052},{"NoteNumber":67,"Velocity":60,"Duration":424672,"SoundDuration":424672,"Delta":1051119},{"NoteNumber":55,"Velocity":54,"Duration":424672,"SoundDuration":424672,"Delta":1051119},{"NoteNumber":76,"Velocity":56,"Duration":159812,"SoundDuration":159812,"Delta":1475792},{"NoteNumber":64,"Velocity":51,"Duration":159812,"SoundDuration":159812,"Delta":1475792},{"NoteNumber":76,"Velocity":60,"Duration":1179130,"SoundDuration":1179130,"Delta":1635605},{"NoteNumber":64,"Velocity":54,"Duration":1179130,"SoundDuration":1179130,"Delta":1635605},{"NoteNumber":72,"Velocity":44,"Duration":294782,"SoundDuration":294782,"Delta":2814735},{"NoteNumber":60,"Velocity":40,"Duration":294782,"SoundDuration":294782,"Delta":2814735},{"NoteNumber":67,"Velocity":59,"Duration":474425,"SoundDuration":474425,"Delta":3404300},{"NoteNumber":65,"Velocity":50,"Duration":67775,"SoundDuration":67775,"Delta":3878725},{"NoteNumber":64,"Velocity":60,"Duration":180733,"SoundDuration":180733,"Delta":3946501},{"NoteNumber":60,"Velocity":56,"Duration":175438,"SoundDuration":175438,"Delta":4127234},{"NoteNumber":55,"Velocity":52,"Duration":175438,"SoundDuration":175438,"Delta":4302673},{"NoteNumber":60,"Velocity":60,"Duration":173912,"SoundDuration":173912,"Delta":4478112},{"NoteNumber":64,"Velocity":57,"Duration":173912,"SoundDuration":173912,"Delta":4652025},{"NoteNumber":67,"Velocity":54,"Duration":173913,"SoundDuration":173913,"Delta":4825938},{"NoteNumber":55,"Velocity":56,"Duration":141509,"SoundDuration":141509,"Delta":4999851},{"NoteNumber":64,"Velocity":56,"Duration":141509,"SoundDuration":141509,"Delta":4999851},{"NoteNumber":67,"Velocity":56,"Duration":141509,"SoundDuration":141509,"Delta":4999851},{"NoteNumber":43,"Velocity":51,"Duration":141509,"SoundDuration":141509,"Delta":4999851},{"NoteNumber":65,"Velocity":53,"Duration":135135,"SoundDuration":135135,"Delta":5282870},{"NoteNumber":62,"Velocity":53,"Duration":135135,"SoundDuration":135135,"Delta":5282870},{"NoteNumber":55,"Velocity":53,"Duration":135135,"SoundDuration":135135,"Delta":5282870},{"NoteNumber":45,"Velocity":46,"Duration":135135,"SoundDuration":135135,"Delta":5282870},{"NoteNumber":47,"Velocity":46,"Duration":135135,"SoundDuration":135135,"Delta":5418005},{"NoteNumber":55,"Velocity":56,"Duration":107142,"SoundDuration":107142,"Delta":5553140},{"NoteNumber":60,"Velocity":56,"Duration":107142,"SoundDuration":107142,"Delta":5553140},{"NoteNumber":64,"Velocity":56,"Duration":107142,"SoundDuration":107142,"Delta":5553140},{"NoteNumber":48,"Velocity":51,"Duration":107142,"SoundDuration":107142,"Delta":5553140},{"NoteNumber":59,"Velocity":50,"Duration":112499,"SoundDuration":112499,"Delta":5838855},{"NoteNumber":55,"Velocity":50,"Duration":112499,"SoundDuration":112499,"Delta":5838855},{"NoteNumber":62,"Velocity":50,"Duration":112499,"SoundDuration":112499,"Delta":5838855},{"NoteNumber":43,"Velocity":45,"Duration":112499,"SoundDuration":112499,"Delta":5838855},{"NoteNumber":55,"Velocity":56,"Duration":107419,"SoundDuration":107419,"Delta":6138855},{"NoteNumber":64,"Velocity":56,"Duration":107419,"SoundDuration":107419,"Delta":6138855},{"NoteNumber":60,"Velocity":56,"Duration":107419,"SoundDuration":107419,"Delta":6138855},{"NoteNumber":48,"Velocity":51,"Duration":107419,"SoundDuration":107419,"Delta":6138855},{"NoteNumber":55,"Velocity":41,"Duration":145630,"SoundDuration":145630,"Delta":6711757},{"NoteNumber":63,"Velocity":41,"Duration":145630,"SoundDuration":145630,"Delta":6711757},{"NoteNumber":67,"Velocity":41,"Duration":145630,"SoundDuration":145630,"Delta":6711757},{"NoteNumber":43,"Velocity":36,"Duration":291261,"SoundDuration":291261,"Delta":6711757},{"NoteNumber":65,"Velocity":37,"Duration":140187,"SoundDuration":140187,"Delta":7003019},{"NoteNumber":55,"Velocity":37,"Duration":140187,"SoundDuration":140187,"Delta":7003019},{"NoteNumber":62,"Velocity":37,"Duration":140187,"SoundDuration":140187,"Delta":7003019},{"NoteNumber":45,"Velocity":34,"Duration":140187,"SoundDuration":140187,"Delta":7003019},{"NoteNumber":47,"Velocity":35,"Duration":140187,"SoundDuration":140187,"Delta":7143206},{"NoteNumber":55,"Velocity":41,"Duration":107142,"SoundDuration":107142,"Delta":7283393},{"NoteNumber":60,"Velocity":41,"Duration":107142,"SoundDuration":107142,"Delta":7283393},{"NoteNumber":63,"Velocity":41,"Duration":107142,"SoundDuration":107142,"Delta":7283393},{"NoteNumber":48,"Velocity":36,"Duration":107142,"SoundDuration":107142,"Delta":7283393},{"NoteNumber":62,"Velocity":38,"Duration":108173,"SoundDuration":108173,"Delta":7569107},{"NoteNumber":55,"Velocity":38,"Duration":108173,"SoundDuration":108173,"Delta":7569107},{"NoteNumber":59,"Velocity":38,"Duration":108173,"SoundDuration":108173,"Delta":7569107},{"NoteNumber":43,"Velocity":33,"Duration":108173,"SoundDuration":108173,"Delta":7569107},{"NoteNumber":55,"Velocity":43,"Duration":106132,"SoundDuration":106132,"Delta":7857569},{"NoteNumber":60,"Velocity":43,"Duration":106132,"SoundDuration":106132,"Delta":7857569},{"NoteNumber":63,"Velocity":43,"Duration":106132,"SoundDuration":106132,"Delta":7857569},{"NoteNumber":48,"Velocity":36,"Duration":106132,"SoundDuration":106132,"Delta":7857569},{"NoteNumber":65,"Velocity":38,"Duration":103211,"SoundDuration":103211,"Delta":8140588},{"NoteNumber":58,"Velocity":38,"Duration":103211,"SoundDuration":103211,"Delta":8140588},{"NoteNumber":62,"Velocity":38,"Duration":103211,"SoundDuration":103211,"Delta":8140588},{"NoteNumber":46,"Velocity":33,"Duration":103211,"SoundDuration":103211,"Delta":8140588},{"NoteNumber":58,"Velocity":53,"Duration":263158,"SoundDuration":263158,"Delta":8415817},{"NoteNumber":62,"Velocity":53,"Duration":263158,"SoundDuration":263158,"Delta":8415817},{"NoteNumber":65,"Velocity":53,"Duration":263158,"SoundDuration":263158,"Delta":8415817},{"NoteNumber":46,"Velocity":49,"Duration":263158,"SoundDuration":263158,"Delta":8415817},{"NoteNumber":63,"Velocity":49,"Duration":210280,"SoundDuration":210280,"Delta":8678975},{"NoteNumber":58,"Velocity":49,"Duration":210280,"SoundDuration":210280,"Delta":8678975},{"NoteNumber":67,"Velocity":49,"Duration":210280,"SoundDuration":210280,"Delta":8678975},{"NoteNumber":51,"Velocity":43,"Duration":210280,"SoundDuration":210280,"Delta":8678975},{"NoteNumber":58,"Velocity":58,"Duration":270270,"SoundDuration":270270,"Delta":8959349},{"NoteNumber":67,"Velocity":58,"Duration":270270,"SoundDuration":270270,"Delta":8959349},{"NoteNumber":63,"Velocity":58,"Duration":270270,"SoundDuration":270270,"Delta":8959349},{"NoteNumber":51,"Velocity":50,"Duration":270270,"SoundDuration":270270,"Delta":8959349},{"NoteNumber":62,"Velocity":53,"Duration":214838,"SoundDuration":214838,"Delta":9229620},{"NoteNumber":66,"Velocity":53,"Duration":214838,"SoundDuration":214838,"Delta":9229620},{"NoteNumber":69,"Velocity":53,"Duration":214838,"SoundDuration":214838,"Delta":9229620},{"NoteNumber":50,"Velocity":47,"Duration":214838,"SoundDuration":214838,"Delta":9229620},{"NoteNumber":69,"Velocity":63,"Duration":277777,"SoundDuration":277777,"Delta":9516071},{"NoteNumber":66,"Velocity":63,"Duration":277777,"SoundDuration":277777,"Delta":9516071},{"NoteNumber":62,"Velocity":63,"Duration":277777,"SoundDuration":277777,"Delta":9516071},{"NoteNumber":50,"Velocity":56,"Duration":277777,"SoundDuration":277777,"Delta":9516071},{"NoteNumber":62,"Velocity":58,"Duration":214285,"SoundDuration":214285,"Delta":9793849},{"NoteNumber":67,"Velocity":58,"Duration":214285,"SoundDuration":214285,"Delta":9793849},{"NoteNumber":70,"Velocity":58,"Duration":214285,"SoundDuration":214285,"Delta":9793849},{"NoteNumber":55,"Velocity":54,"Duration":214285,"SoundDuration":214285,"Delta":9793849},{"NoteNumber":70,"Velocity":68,"Duration":285714,"SoundDuration":285714,"Delta":10079563},{"NoteNumber":62,"Velocity":68,"Duration":285714,"SoundDuration":285714,"Delta":10079563},{"NoteNumber":67,"Velocity":68,"Duration":285714,"SoundDuration":285714,"Delta":10079563},{"NoteNumber":55,"Velocity":59,"Duration":285714,"SoundDuration":285714,"Delta":10079563},{"NoteNumber":62,"Velocity":66,"Duration":346180,"SoundDuration":346180,"Delta":10365278},{"NoteNumber":67,"Velocity":66,"Duration":346180,"SoundDuration":346180,"Delta":10365278},{"NoteNumber":71,"Velocity":66,"Duration":346180,"SoundDuration":346180,"Delta":10365278},{"NoteNumber":43,"Velocity":57,"Duration":346180,"SoundDuration":346180,"Delta":10365278},{"NoteNumber":55,"Velocity":57,"Duration":346180,"SoundDuration":346180,"Delta":10365278},{"NoteNumber":53,"Velocity":57,"Duration":346180,"SoundDuration":346180,"Delta":10365278},{"NoteNumber":67,"Velocity":71,"Duration":979432,"SoundDuration":979432,"Delta":10711458},{"NoteNumber":62,"Velocity":71,"Duration":979432,"SoundDuration":979432,"Delta":10711458},{"NoteNumber":71,"Velocity":71,"Duration":979432,"SoundDuration":979432,"Delta":10711458},{"NoteNumber":53,"Velocity":61,"Duration":979432,"SoundDuration":979432,"Delta":10711458},{"NoteNumber":43,"Velocity":61,"Duration":979432,"SoundDuration":979432,"Delta":10711458},{"NoteNumber":55,"Velocity":61,"Duration":979432,"SoundDuration":979432,"Delta":10711458},{"NoteNumber":65,"Velocity":54,"Duration":357227,"SoundDuration":357227,"Delta":11690891},{"NoteNumber":77,"Velocity":54,"Duration":357227,"SoundDuration":357227,"Delta":11690891},{"NoteNumber":71,"Velocity":54,"Duration":357227,"SoundDuration":357227,"Delta":11690891},{"NoteNumber":50,"Velocity":48,"Duration":357227,"SoundDuration":357227,"Delta":11690891},{"NoteNumber":43,"Velocity":48,"Duration":357227,"SoundDuration":357227,"Delta":11690891},{"NoteNumber":55,"Velocity":48,"Duration":357227,"SoundDuration":357227,"Delta":11690891},{"NoteNumber":64,"Velocity":54,"Duration":1768694,"SoundDuration":1768694,"Delta":12048119},{"NoteNumber":72,"Velocity":54,"Duration":1768694,"SoundDuration":1768694,"Delta":12048119},{"NoteNumber":76,"Velocity":54,"Duration":1768694,"SoundDuration":1768694,"Delta":12048119},{"NoteNumber":55,"Velocity":48,"Duration":1768694,"SoundDuration":1768694,"Delta":12048119},{"NoteNumber":48,"Velocity":48,"Duration":1768694,"SoundDuration":1768694,"Delta":12048119},{"NoteNumber":67,"Velocity":60,"Duration":474425,"SoundDuration":474425,"Delta":13816814},{"NoteNumber":55,"Velocity":54,"Duration":474425,"SoundDuration":474425,"Delta":13816814},{"NoteNumber":69,"Velocity":50,"Duration":67775,"SoundDuration":67775,"Delta":14291239},{"NoteNumber":57,"Velocity":44,"Duration":67775,"SoundDuration":67775,"Delta":14291239},{"NoteNumber":67,"Velocity":60,"Duration":175438,"SoundDuration":175438,"Delta":14359015},{"NoteNumber":55,"Velocity":54,"Duration":175438,"SoundDuration":175438,"Delta":14359015},{"NoteNumber":64,"Velocity":57,"Duration":170978,"SoundDuration":170978,"Delta":14534453},{"NoteNumber":52,"Velocity":50,"Duration":170978,"SoundDuration":170978,"Delta":14534453},{"NoteNumber":60,"Velocity":53,"Duration":169491,"SoundDuration":169491,"Delta":14705432},{"NoteNumber":48,"Velocity":47,"Duration":169491,"SoundDuration":169491,"Delta":14705432},{"NoteNumber":67,"Velocity":60,"Duration":424672,"SoundDuration":424672,"Delta":14874923},{"NoteNumber":55,"Velocity":54,"Duration":424672,"SoundDuration":424672,"Delta":14874923},{"NoteNumber":76,"Velocity":56,"Duration":159812,"SoundDuration":159812,"Delta":15299596},{"NoteNumber":64,"Velocity":51,"Duration":159812,"SoundDuration":159812,"Delta":15299596},{"NoteNumber":76,"Velocity":60,"Duration":1179129,"SoundDuration":1179129,"Delta":15459409},{"NoteNumber":64,"Velocity":54,"Duration":1179129,"SoundDuration":1179129,"Delta":15459409},{"NoteNumber":72,"Velocity":44,"Duration":294782,"SoundDuration":294782,"Delta":16638539},{"NoteNumber":60,"Velocity":40,"Duration":294782,"SoundDuration":294782,"Delta":16638539},{"NoteNumber":67,"Velocity":59,"Duration":474425,"SoundDuration":474425,"Delta":17228104},{"NoteNumber":65,"Velocity":50,"Duration":67775,"SoundDuration":67775,"Delta":17702529},{"NoteNumber":64,"Velocity":60,"Duration":180733,"SoundDuration":180733,"Delta":17770305},{"NoteNumber":60,"Velocity":56,"Duration":175438,"SoundDuration":175438,"Delta":17951038},{"NoteNumber":55,"Velocity":52,"Duration":175438,"SoundDuration":175438,"Delta":18126477},{"NoteNumber":60,"Velocity":60,"Duration":175438,"SoundDuration":175438,"Delta":18301916},{"NoteNumber":64,"Velocity":57,"Duration":175438,"SoundDuration":175438,"Delta":18477354},{"NoteNumber":67,"Velocity":57,"Duration":175438,"SoundDuration":175438,"Delta":18652793},{"NoteNumber":55,"Velocity":56,"Duration":142857,"SoundDuration":142857,"Delta":18828232},{"NoteNumber":64,"Velocity":56,"Duration":142857,"SoundDuration":142857,"Delta":18828232},{"NoteNumber":67,"Velocity":56,"Duration":142857,"SoundDuration":142857,"Delta":18828232},{"NoteNumber":43,"Velocity":51,"Duration":142857,"SoundDuration":142857,"Delta":18828232},{"NoteNumber":55,"Velocity":53,"Duration":135135,"SoundDuration":135135,"Delta":19113946},{"NoteNumber":62,"Velocity":53,"Duration":135135,"SoundDuration":135135,"Delta":19113946},{"NoteNumber":65,"Velocity":53,"Duration":135135,"SoundDuration":135135,"Delta":19113946},{"NoteNumber":45,"Velocity":46,"Duration":135135,"SoundDuration":135135,"Delta":19113946},{"NoteNumber":47,"Velocity":46,"Duration":135135,"SoundDuration":135135,"Delta":19249081},{"NoteNumber":55,"Velocity":56,"Duration":108173,"SoundDuration":108173,"Delta":19384217},{"NoteNumber":60,"Velocity":56,"Duration":108173,"SoundDuration":108173,"Delta":19384217},{"NoteNumber":64,"Velocity":56,"Duration":108173,"SoundDuration":108173,"Delta":19384217},{"NoteNumber":48,"Velocity":51,"Duration":108173,"SoundDuration":108173,"Delta":19384217},{"NoteNumber":55,"Velocity":50,"Duration":111386,"SoundDuration":111386,"Delta":19672678},{"NoteNumber":59,"Velocity":50,"Duration":111386,"SoundDuration":111386,"Delta":19672678},{"NoteNumber":62,"Velocity":50,"Duration":111386,"SoundDuration":111386,"Delta":19672678},{"NoteNumber":43,"Velocity":45,"Duration":111386,"SoundDuration":111386,"Delta":19672678},{"NoteNumber":55,"Velocity":56,"Duration":107419,"SoundDuration":107419,"Delta":19969708},{"NoteNumber":60,"Velocity":56,"Duration":107419,"SoundDuration":107419,"Delta":19969708},{"NoteNumber":64,"Velocity":56,"Duration":107419,"SoundDuration":107419,"Delta":19969708},{"NoteNumber":48,"Velocity":51,"Duration":107419,"SoundDuration":107419,"Delta":19969708},{"NoteNumber":55,"Velocity":41,"Duration":145631,"SoundDuration":145631,"Delta":20542610},{"NoteNumber":63,"Velocity":41,"Duration":145631,"SoundDuration":145631,"Delta":20542610},{"NoteNumber":67,"Velocity":41,"Duration":145631,"SoundDuration":145631,"Delta":20542610},{"NoteNumber":43,"Velocity":36,"Duration":291261,"SoundDuration":291261,"Delta":20542610},{"NoteNumber":55,"Velocity":37,"Duration":140187,"SoundDuration":140187,"Delta":20833872},{"NoteNumber":62,"Velocity":37,"Duration":140187,"SoundDuration":140187,"Delta":20833872},{"NoteNumber":65,"Velocity":37,"Duration":140187,"SoundDuration":140187,"Delta":20833872},{"NoteNumber":45,"Velocity":34,"Duration":140187,"SoundDuration":140187,"Delta":20833872},{"NoteNumber":47,"Velocity":35,"Duration":140186,"SoundDuration":140186,"Delta":20974059},{"NoteNumber":55,"Velocity":41,"Duration":107142,"SoundDuration":107142,"Delta":21114246},{"NoteNumber":60,"Velocity":41,"Duration":107142,"SoundDuration":107142,"Delta":21114246},{"NoteNumber":63,"Velocity":41,"Duration":107142,"SoundDuration":107142,"Delta":21114246},{"NoteNumber":48,"Velocity":36,"Duration":107142,"SoundDuration":107142,"Delta":21114246},{"NoteNumber":55,"Velocity":38,"Duration":105140,"SoundDuration":105140,"Delta":21399960},{"NoteNumber":59,"Velocity":38,"Duration":105140,"SoundDuration":105140,"Delta":21399960},{"NoteNumber":62,"Velocity":38,"Duration":105140,"SoundDuration":105140,"Delta":21399960},{"NoteNumber":43,"Velocity":33,"Duration":105140,"SoundDuration":105140,"Delta":21399960},{"NoteNumber":55,"Velocity":45,"Duration":107142,"SoundDuration":107142,"Delta":21680334},{"NoteNumber":60,"Velocity":45,"Duration":107142,"SoundDuration":107142,"Delta":21680334},{"NoteNumber":63,"Velocity":45,"Duration":107142,"SoundDuration":107142,"Delta":21680334},{"NoteNumber":48,"Velocity":38,"Duration":107142,"SoundDuration":107142,"Delta":21680334},{"NoteNumber":58,"Velocity":41,"Duration":138888,"SoundDuration":138888,"Delta":21966049},{"NoteNumber":62,"Velocity":41,"Duration":138888,"SoundDuration":138888,"Delta":21966049},{"NoteNumber":65,"Velocity":41,"Duration":138888,"SoundDuration":138888,"Delta":21966049},{"NoteNumber":46,"Velocity":36,"Duration":138888,"SoundDuration":138888,"Delta":21966049},{"NoteNumber":58,"Velocity":51,"Duration":263158,"SoundDuration":263158,"Delta":22243827},{"NoteNumber":62,"Velocity":51,"Duration":263158,"SoundDuration":263158,"Delta":22243827},{"NoteNumber":65,"Velocity":51,"Duration":263158,"SoundDuration":263158,"Delta":22243827},{"NoteNumber":46,"Velocity":47,"Duration":263158,"SoundDuration":263158,"Delta":22243827},{"NoteNumber":58,"Velocity":48,"Duration":214285,"SoundDuration":214285,"Delta":22506985},{"NoteNumber":63,"Velocity":48,"Duration":214285,"SoundDuration":214285,"Delta":22506985},{"NoteNumber":67,"Velocity":48,"Duration":214285,"SoundDuration":214285,"Delta":22506985},{"NoteNumber":51,"Velocity":43,"Duration":214285,"SoundDuration":214285,"Delta":22506985},{"NoteNumber":58,"Velocity":57,"Duration":270270,"SoundDuration":270270,"Delta":22792699},{"NoteNumber":63,"Velocity":57,"Duration":270270,"SoundDuration":270270,"Delta":22792699},{"NoteNumber":67,"Velocity":57,"Duration":270270,"SoundDuration":270270,"Delta":22792699},{"NoteNumber":51,"Velocity":50,"Duration":270270,"SoundDuration":270270,"Delta":22792699},{"NoteNumber":62,"Velocity":54,"Duration":214838,"SoundDuration":214838,"Delta":23062970},{"NoteNumber":66,"Velocity":54,"Duration":214838,"SoundDuration":214838,"Delta":23062970},{"NoteNumber":69,"Velocity":54,"Duration":214838,"SoundDuration":214838,"Delta":23062970},{"NoteNumber":50,"Velocity":48,"Duration":214838,"SoundDuration":214838,"Delta":23062970},{"NoteNumber":62,"Velocity":64,"Duration":280373,"SoundDuration":280373,"Delta":23349421},{"NoteNumber":66,"Velocity":64,"Duration":280373,"SoundDuration":280373,"Delta":23349421},{"NoteNumber":69,"Velocity":64,"Duration":280373,"SoundDuration":280373,"Delta":23349421},{"NoteNumber":50,"Velocity":56,"Duration":280373,"SoundDuration":280373,"Delta":23349421},{"NoteNumber":62,"Velocity":57,"Duration":210280,"SoundDuration":210280,"Delta":23629795},{"NoteNumber":67,"Velocity":57,"Duration":210280,"SoundDuration":210280,"Delta":23629795},{"NoteNumber":70,"Velocity":57,"Duration":210280,"SoundDuration":210280,"Delta":23629795},{"NoteNumber":55,"Velocity":52,"Duration":210280,"SoundDuration":210280,"Delta":23629795},{"NoteNumber":62,"Velocity":66,"Duration":285714,"SoundDuration":285714,"Delta":23910169},{"NoteNumber":67,"Velocity":66,"Duration":285714,"SoundDuration":285714,"Delta":23910169},{"NoteNumber":70,"Velocity":66,"Duration":285714,"SoundDuration":285714,"Delta":23910169},{"NoteNumber":55,"Velocity":59,"Duration":285714,"SoundDuration":285714,"Delta":23910169},{"NoteNumber":62,"Velocity":66,"Duration":344194,"SoundDuration":344194,"Delta":24195883},{"NoteNumber":67,"Velocity":66,"Duration":344194,"SoundDuration":344194,"Delta":24195883},{"NoteNumber":71,"Velocity":66,"Duration":344194,"SoundDuration":344194,"Delta":24195883},{"NoteNumber":43,"Velocity":56,"Duration":344194,"SoundDuration":344194,"Delta":24195883},{"NoteNumber":53,"Velocity":56,"Duration":344194,"SoundDuration":344194,"Delta":24195883},{"NoteNumber":55,"Velocity":56,"Duration":344194,"SoundDuration":344194,"Delta":24195883},{"NoteNumber":62,"Velocity":69,"Duration":979432,"SoundDuration":979432,"Delta":24540078},{"NoteNumber":67,"Velocity":69,"Duration":979432,"SoundDuration":979432,"Delta":24540078},{"NoteNumber":71,"Velocity":69,"Duration":979432,"SoundDuration":979432,"Delta":24540078},{"NoteNumber":43,"Velocity":63,"Duration":979432,"SoundDuration":979432,"Delta":24540078},{"NoteNumber":53,"Velocity":63,"Duration":979432,"SoundDuration":979432,"Delta":24540078},{"NoteNumber":55,"Velocity":63,"Duration":979432,"SoundDuration":979432,"Delta":24540078},{"NoteNumber":65,"Velocity":54,"Duration":357227,"SoundDuration":357227,"Delta":25519510},{"NoteNumber":71,"Velocity":54,"Duration":357227,"SoundDuration":357227,"Delta":25519510},{"NoteNumber":77,"Velocity":54,"Duration":357227,"SoundDuration":357227,"Delta":25519510},{"NoteNumber":43,"Velocity":48,"Duration":357227,"SoundDuration":357227,"Delta":25519510},{"NoteNumber":50,"Velocity":48,"Duration":357227,"SoundDuration":357227,"Delta":25519510},{"NoteNumber":55,"Velocity":48,"Duration":357227,"SoundDuration":357227,"Delta":25519510},{"NoteNumber":64,"Velocity":54,"Duration":1768695,"SoundDuration":1768695,"Delta":25876738},{"NoteNumber":72,"Velocity":54,"Duration":1768695,"SoundDuration":1768695,"Delta":25876738},{"NoteNumber":76,"Velocity":54,"Duration":1768695,"SoundDuration":1768695,"Delta":25876738},{"NoteNumber":48,"Velocity":48,"Duration":1768695,"SoundDuration":1768695,"Delta":25876738},{"NoteNumber":55,"Velocity":48,"Duration":1768695,"SoundDuration":1768695,"Delta":25876738},{"NoteNumber":76,"Velocity":54,"Duration":491987,"SoundDuration":491987,"Delta":27645433},{"NoteNumber":77,"Velocity":44,"Duration":70284,"SoundDuration":70284,"Delta":28137421},{"NoteNumber":76,"Velocity":54,"Duration":176991,"SoundDuration":176991,"Delta":28207705},{"NoteNumber":72,"Velocity":50,"Duration":176990,"SoundDuration":176990,"Delta":28384696},{"NoteNumber":69,"Velocity":47,"Duration":117924,"SoundDuration":117924,"Delta":28561687},{"NoteNumber":74,"Velocity":44,"Duration":69692,"SoundDuration":69692,"Delta":28679612},{"NoteNumber":72,"Velocity":54,"Duration":180180,"SoundDuration":180180,"Delta":28749304},{"NoteNumber":69,"Velocity":51,"Duration":180180,"SoundDuration":180180,"Delta":28929484},{"NoteNumber":64,"Velocity":47,"Duration":194628,"SoundDuration":194628,"Delta":29109665},{"NoteNumber":64,"Velocity":54,"Duration":557103,"SoundDuration":557103,"Delta":29304293},{"NoteNumber":69,"Velocity":54,"Duration":278551,"SoundDuration":278551,"Delta":29304293},{"NoteNumber":72,"Velocity":54,"Duration":278551,"SoundDuration":278551,"Delta":29304293},{"NoteNumber":52,"Velocity":52,"Duration":487465,"SoundDuration":487465,"Delta":29304293},{"NoteNumber":68,"Velocity":43,"Duration":278551,"SoundDuration":278551,"Delta":29582845},{"NoteNumber":71,"Velocity":51,"Duration":278551,"SoundDuration":278551,"Delta":29582845},{"NoteNumber":53,"Velocity":44,"Duration":69637,"SoundDuration":69637,"Delta":29791758},{"NoteNumber":68,"Velocity":45,"Duration":315789,"SoundDuration":315789,"Delta":29861396},{"NoteNumber":64,"Velocity":45,"Duration":315789,"SoundDuration":315789,"Delta":29861396},{"NoteNumber":71,"Velocity":54,"Duration":315789,"SoundDuration":315789,"Delta":29861396},{"NoteNumber":52,"Velocity":58,"Duration":210526,"SoundDuration":210526,"Delta":29861396},{"NoteNumber":47,"Velocity":57,"Duration":210526,"SoundDuration":210526,"Delta":30071922},{"NoteNumber":66,"Velocity":43,"Duration":320594,"SoundDuration":320594,"Delta":30177186},{"NoteNumber":64,"Velocity":43,"Duration":320594,"SoundDuration":320594,"Delta":30177186},{"NoteNumber":69,"Velocity":51,"Duration":320594,"SoundDuration":320594,"Delta":30177186},{"NoteNumber":40,"Velocity":54,"Duration":215331,"SoundDuration":215331,"Delta":30282449},{"NoteNumber":64,"Velocity":45,"Duration":595355,"SoundDuration":595355,"Delta":30497780},{"NoteNumber":68,"Velocity":45,"Duration":595355,"SoundDuration":595355,"Delta":30497780},{"NoteNumber":71,"Velocity":54,"Duration":595355,"SoundDuration":595355,"Delta":30497780},{"NoteNumber":52,"Velocity":59,"Duration":595355,"SoundDuration":595355,"Delta":30497780},{"NoteNumber":64,"Velocity":45,"Duration":572901,"SoundDuration":572901,"Delta":31093136},{"NoteNumber":67,"Velocity":45,"Duration":572901,"SoundDuration":572901,"Delta":31093136},{"NoteNumber":72,"Velocity":54,"Duration":286450,"SoundDuration":286450,"Delta":31093136},{"NoteNumber":52,"Velocity":52,"Duration":501289,"SoundDuration":501289,"Delta":31093136},{"NoteNumber":71,"Velocity":51,"Duration":286450,"SoundDuration":286450,"Delta":31379587},{"NoteNumber":53,"Velocity":44,"Duration":71612,"SoundDuration":71612,"Delta":31594426},{"NoteNumber":64,"Velocity":45,"Duration":309278,"SoundDuration":309278,"Delta":31666038},{"NoteNumber":67,"Velocity":45,"Duration":309278,"SoundDuration":309278,"Delta":31666038},{"NoteNumber":71,"Velocity":54,"Duration":309278,"SoundDuration":309278,"Delta":31666038},{"NoteNumber":52,"Velocity":59,"Duration":206185,"SoundDuration":206185,"Delta":31666038},{"NoteNumber":55,"Velocity":55,"Duration":202102,"SoundDuration":202102,"Delta":31872224},{"NoteNumber":64,"Velocity":44,"Duration":297029,"SoundDuration":297029,"Delta":31975317},{"NoteNumber":67,"Velocity":44,"Duration":297029,"SoundDuration":297029,"Delta":31975317},{"NoteNumber":72,"Velocity":52,"Duration":297029,"SoundDuration":297029,"Delta":31975317},{"NoteNumber":60,"Velocity":53,"Duration":198019,"SoundDuration":198019,"Delta":32074327},{"NoteNumber":67,"Velocity":45,"Duration":612245,"SoundDuration":612245,"Delta":32272346},{"NoteNumber":71,"Velocity":54,"Duration":306122,"SoundDuration":306122,"Delta":32272346},{"NoteNumber":65,"Velocity":53,"Duration":612245,"SoundDuration":612245,"Delta":32272346},{"NoteNumber":62,"Velocity":45,"Duration":612245,"SoundDuration":612245,"Delta":32272346},{"NoteNumber":77,"Velocity":53,"Duration":306122,"SoundDuration":306122,"Delta":32578469},{"NoteNumber":76,"Velocity":54,"Duration":535714,"SoundDuration":535714,"Delta":32884591},{"NoteNumber":64,"Velocity":52,"Duration":612245,"SoundDuration":612245,"Delta":32884591},{"NoteNumber":60,"Velocity":44,"Duration":612245,"SoundDuration":612245,"Delta":32884591},{"NoteNumber":74,"Velocity":43,"Duration":76530,"SoundDuration":76530,"Delta":33420306},{"NoteNumber":72,"Velocity":53,"Duration":204081,"SoundDuration":204081,"Delta":33496836},{"NoteNumber":66,"Velocity":55,"Duration":306122,"SoundDuration":306122,"Delta":33496836},{"NoteNumber":62,"Velocity":46,"Duration":306122,"SoundDuration":306122,"Delta":33496836},{"NoteNumber":71,"Velocity":51,"Duration":204081,"SoundDuration":204081,"Delta":33700918},{"NoteNumber":66,"Velocity":53,"Duration":306122,"SoundDuration":306122,"Delta":33802959},{"NoteNumber":62,"Velocity":45,"Duration":306122,"SoundDuration":306122,"Delta":33802959},{"NoteNumber":69,"Velocity":52,"Duration":204081,"SoundDuration":204081,"Delta":33905000},{"NoteNumber":71,"Velocity":55,"Duration":638297,"SoundDuration":638297,"Delta":34109081},{"NoteNumber":62,"Velocity":47,"Duration":638297,"SoundDuration":638297,"Delta":34109081},{"NoteNumber":55,"Velocity":47,"Duration":638297,"SoundDuration":638297,"Delta":34109081},{"NoteNumber":67,"Velocity":56,"Duration":638297,"SoundDuration":638297,"Delta":34109081},{"NoteNumber":71,"Velocity":68,"Duration":509708,"SoundDuration":509708,"Delta":34747379},{"NoteNumber":59,"Velocity":61,"Duration":509708,"SoundDuration":509708,"Delta":34747379},{"NoteNumber":72,"Velocity":58,"Duration":62500,"SoundDuration":62500,"Delta":35257088},{"NoteNumber":60,"Velocity":51,"Duration":62500,"SoundDuration":62500,"Delta":35257088},{"NoteNumber":71,"Velocity":68,"Duration":175438,"SoundDuration":175438,"Delta":35319588},{"NoteNumber":59,"Velocity":61,"Duration":175438,"SoundDuration":175438,"Delta":35319588},{"NoteNumber":67,"Velocity":66,"Duration":168067,"SoundDuration":168067,"Delta":35495027},{"NoteNumber":55,"Velocity":59,"Duration":168067,"SoundDuration":168067,"Delta":35495027},{"NoteNumber":64,"Velocity":64,"Duration":144230,"SoundDuration":144230,"Delta":35663094},{"NoteNumber":52,"Velocity":56,"Duration":144230,"SoundDuration":144230,"Delta":35663094},{"NoteNumber":79,"Velocity":82,"Duration":275229,"SoundDuration":275229,"Delta":35855402},{"NoteNumber":67,"Velocity":74,"Duration":275229,"SoundDuration":275229,"Delta":35855402},{"NoteNumber":76,"Velocity":72,"Duration":113636,"SoundDuration":113636,"Delta":36130631},{"NoteNumber":64,"Velocity":64,"Duration":113636,"SoundDuration":113636,"Delta":36130631},{"NoteNumber":71,"Velocity":70,"Duration":500000,"SoundDuration":500000,"Delta":36433662},{"NoteNumber":59,"Velocity":62,"Duration":500000,"SoundDuration":500000,"Delta":36433662},{"NoteNumber":72,"Velocity":60,"Duration":63559,"SoundDuration":63559,"Delta":36933662},{"NoteNumber":60,"Velocity":53,"Duration":63559,"SoundDuration":63559,"Delta":36933662},{"NoteNumber":71,"Velocity":71,"Duration":175438,"SoundDuration":175438,"Delta":36997221},{"NoteNumber":59,"Velocity":64,"Duration":175438,"SoundDuration":175438,"Delta":36997221},{"NoteNumber":67,"Velocity":69,"Duration":168067,"SoundDuration":168067,"Delta":37172660},{"NoteNumber":55,"Velocity":61,"Duration":168067,"SoundDuration":168067,"Delta":37172660},{"NoteNumber":64,"Velocity":66,"Duration":142857,"SoundDuration":142857,"Delta":37340727},{"NoteNumber":52,"Velocity":57,"Duration":142857,"SoundDuration":142857,"Delta":37340727},{"NoteNumber":79,"Velocity":85,"Duration":273569,"SoundDuration":273569,"Delta":37531204},{"NoteNumber":67,"Velocity":76,"Duration":273569,"SoundDuration":273569,"Delta":37531204},{"NoteNumber":76,"Velocity":74,"Duration":109223,"SoundDuration":109223,"Delta":37804773},{"NoteNumber":64,"Velocity":66,"Duration":109223,"SoundDuration":109223,"Delta":37804773},{"NoteNumber":83,"Velocity":90,"Duration":285714,"SoundDuration":285714,"Delta":38096035},{"NoteNumber":75,"Velocity":90,"Duration":285714,"SoundDuration":285714,"Delta":38096035},{"NoteNumber":78,"Velocity":90,"Duration":285714,"SoundDuration":285714,"Delta":38096035},{"NoteNumber":47,"Velocity":77,"Duration":285714,"SoundDuration":285714,"Delta":38096035},{"NoteNumber":71,"Velocity":87,"Duration":107142,"SoundDuration":107142,"Delta":38381749},{"NoteNumber":59,"Velocity":72,"Duration":107142,"SoundDuration":107142,"Delta":38381749},{"NoteNumber":81,"Velocity":70,"Duration":61475,"SoundDuration":61475,"Delta":38596035},{"NoteNumber":63,"Velocity":57,"Duration":61475,"SoundDuration":61475,"Delta":38596035},{"NoteNumber":79,"Velocity":87,"Duration":169491,"SoundDuration":169491,"Delta":38657511},{"NoteNumber":64,"Velocity":73,"Duration":169491,"SoundDuration":169491,"Delta":38657511},{"NoteNumber":78,"Velocity":83,"Duration":169491,"SoundDuration":169491,"Delta":38827002},{"NoteNumber":66,"Velocity":67,"Duration":169491,"SoundDuration":169491,"Delta":38827002},{"NoteNumber":76,"Velocity":78,"Duration":192362,"SoundDuration":192362,"Delta":38996494},{"NoteNumber":67,"Velocity":78,"Duration":192362,"SoundDuration":192362,"Delta":38996494},{"NoteNumber":83,"Velocity":93,"Duration":277777,"SoundDuration":277777,"Delta":39188856},{"NoteNumber":75,"Velocity":93,"Duration":277777,"SoundDuration":277777,"Delta":39188856},{"NoteNumber":78,"Velocity":93,"Duration":277777,"SoundDuration":277777,"Delta":39188856},{"NoteNumber":47,"Velocity":79,"Duration":277777,"SoundDuration":277777,"Delta":39188856},{"NoteNumber":71,"Velocity":86,"Duration":104166,"SoundDuration":104166,"Delta":39466634},{"NoteNumber":59,"Velocity":73,"Duration":104166,"SoundDuration":104166,"Delta":39466634},{"NoteNumber":81,"Velocity":74,"Duration":61475,"SoundDuration":61475,"Delta":39674968},{"NoteNumber":63,"Velocity":57,"Duration":61475,"SoundDuration":61475,"Delta":39674968},{"NoteNumber":79,"Velocity":89,"Duration":169491,"SoundDuration":169491,"Delta":39736443},{"NoteNumber":64,"Velocity":75,"Duration":169491,"SoundDuration":169491,"Delta":39736443},{"NoteNumber":78,"Velocity":85,"Duration":169491,"SoundDuration":169491,"Delta":39905935},{"NoteNumber":66,"Velocity":68,"Duration":169491,"SoundDuration":169491,"Delta":39905935},{"NoteNumber":76,"Velocity":82,"Duration":198019,"SoundDuration":198019,"Delta":40075426},{"NoteNumber":67,"Velocity":66,"Duration":198019,"SoundDuration":198019,"Delta":40075426},{"NoteNumber":83,"Velocity":95,"Duration":293973,"SoundDuration":293973,"Delta":40273446},{"NoteNumber":75,"Velocity":95,"Duration":293973,"SoundDuration":293973,"Delta":40273446},{"NoteNumber":78,"Velocity":95,"Duration":293973,"SoundDuration":293973,"Delta":40273446},{"NoteNumber":47,"Velocity":80,"Duration":293973,"SoundDuration":293973,"Delta":40273446},{"NoteNumber":71,"Velocity":89,"Duration":109223,"SoundDuration":109223,"Delta":40567420},{"NoteNumber":59,"Velocity":75,"Duration":109223,"SoundDuration":109223,"Delta":40567420},{"NoteNumber":95,"Velocity":117,"Duration":308673,"SoundDuration":308673,"Delta":40858682},{"NoteNumber":35,"Velocity":81,"Duration":308673,"SoundDuration":308673,"Delta":40858682},{"NoteNumber":83,"Velocity":93,"Duration":115752,"SoundDuration":115752,"Delta":41167355},{"NoteNumber":47,"Velocity":70,"Duration":115752,"SoundDuration":115752,"Delta":41167355},{"NoteNumber":79,"Velocity":45,"Duration":280374,"SoundDuration":280374,"Delta":43112394},{"NoteNumber":64,"Velocity":36,"Duration":280374,"SoundDuration":280374,"Delta":43112394},{"NoteNumber":76,"Velocity":30,"Duration":144230,"SoundDuration":144230,"Delta":43392768},{"NoteNumber":67,"Velocity":25,"Duration":144230,"SoundDuration":144230,"Delta":43392768},{"NoteNumber":79,"Velocity":43,"Duration":277777,"SoundDuration":277777,"Delta":43681229},{"NoteNumber":64,"Velocity":34,"Duration":277777,"SoundDuration":277777,"Delta":43681229},{"NoteNumber":76,"Velocity":31,"Duration":144230,"SoundDuration":144230,"Delta":43959007},{"NoteNumber":67,"Velocity":25,"Duration":144230,"SoundDuration":144230,"Delta":43959007},{"NoteNumber":79,"Velocity":42,"Duration":280374,"SoundDuration":280374,"Delta":44247469},{"NoteNumber":64,"Velocity":33,"Duration":280374,"SoundDuration":280374,"Delta":44247469},{"NoteNumber":76,"Velocity":31,"Duration":145631,"SoundDuration":145631,"Delta":44527843},{"NoteNumber":67,"Velocity":26,"Duration":145631,"SoundDuration":145631,"Delta":44527843},{"NoteNumber":79,"Velocity":41,"Duration":280374,"SoundDuration":280374,"Delta":44819105},{"NoteNumber":64,"Velocity":33,"Duration":280374,"SoundDuration":280374,"Delta":44819105},{"NoteNumber":76,"Velocity":29,"Duration":142857,"SoundDuration":142857,"Delta":45099479},{"NoteNumber":67,"Velocity":24,"Duration":142857,"SoundDuration":142857,"Delta":45099479},{"NoteNumber":79,"Velocity":38,"Duration":280374,"SoundDuration":280374,"Delta":45385193},{"NoteNumber":64,"Velocity":31,"Duration":280374,"SoundDuration":280374,"Delta":45385193},{"NoteNumber":76,"Velocity":27,"Duration":142857,"SoundDuration":142857,"Delta":45665567},{"NoteNumber":67,"Velocity":23,"Duration":142857,"SoundDuration":142857,"Delta":45665567},{"NoteNumber":79,"Velocity":37,"Duration":280374,"SoundDuration":280374,"Delta":45951282},{"NoteNumber":64,"Velocity":30,"Duration":280374,"SoundDuration":280374,"Delta":45951282},{"NoteNumber":76,"Velocity":26,"Duration":142857,"SoundDuration":142857,"Delta":46231656},{"NoteNumber":67,"Velocity":21,"Duration":142857,"SoundDuration":142857,"Delta":46231656},{"NoteNumber":79,"Velocity":36,"Duration":271100,"SoundDuration":271100,"Delta":46517370},{"NoteNumber":76,"Velocity":36,"Duration":271100,"SoundDuration":271100,"Delta":46517370},{"NoteNumber":55,"Velocity":48,"Duration":474425,"SoundDuration":474425,"Delta":46517370},{"NoteNumber":67,"Velocity":27,"Duration":135550,"SoundDuration":135550,"Delta":46788471},{"NoteNumber":57,"Velocity":40,"Duration":67775,"SoundDuration":67775,"Delta":46991796},{"NoteNumber":76,"Velocity":36,"Duration":271100,"SoundDuration":271100,"Delta":47059571},{"NoteNumber":79,"Velocity":36,"Duration":271100,"SoundDuration":271100,"Delta":47059571},{"NoteNumber":55,"Velocity":48,"Duration":180733,"SoundDuration":180733,"Delta":47059571},{"NoteNumber":52,"Velocity":45,"Duration":180733,"SoundDuration":180733,"Delta":47240305},{"NoteNumber":67,"Velocity":27,"Duration":135550,"SoundDuration":135550,"Delta":47330672},{"NoteNumber":48,"Velocity":39,"Duration":180733,"SoundDuration":180733,"Delta":47421038},{"NoteNumber":76,"Velocity":36,"Duration":278551,"SoundDuration":278551,"Delta":47601772},{"NoteNumber":79,"Velocity":36,"Duration":278551,"SoundDuration":278551,"Delta":47601772},{"NoteNumber":55,"Velocity":48,"Duration":424672,"SoundDuration":424672,"Delta":47601772},{"NoteNumber":67,"Velocity":27,"Duration":146121,"SoundDuration":146121,"Delta":47880324},{"NoteNumber":64,"Velocity":45,"Duration":159812,"SoundDuration":159812,"Delta":48026445},{"NoteNumber":76,"Velocity":38,"Duration":294782,"SoundDuration":294782,"Delta":48186257},{"NoteNumber":79,"Velocity":38,"Duration":294782,"SoundDuration":294782,"Delta":48186257},{"NoteNumber":64,"Velocity":48,"Duration":1151925,"SoundDuration":1151925,"Delta":48186257},{"NoteNumber":67,"Velocity":29,"Duration":142857,"SoundDuration":142857,"Delta":48481040},{"NoteNumber":76,"Velocity":38,"Duration":285714,"SoundDuration":285714,"Delta":48766754},{"NoteNumber":79,"Velocity":38,"Duration":285714,"SoundDuration":285714,"Delta":48766754},{"NoteNumber":67,"Velocity":27,"Duration":142857,"SoundDuration":142857,"Delta":49052469},{"NoteNumber":76,"Velocity":34,"Duration":285714,"SoundDuration":285714,"Delta":49338183},{"NoteNumber":79,"Velocity":34,"Duration":285714,"SoundDuration":285714,"Delta":49338183},{"NoteNumber":60,"Velocity":36,"Duration":285714,"SoundDuration":285714,"Delta":49338183},{"NoteNumber":67,"Velocity":26,"Duration":142857,"SoundDuration":142857,"Delta":49623898},{"NoteNumber":67,"Velocity":51,"Duration":474425,"SoundDuration":474425,"Delta":49909612},{"NoteNumber":69,"Velocity":48,"Duration":67775,"SoundDuration":67775,"Delta":50384038},{"NoteNumber":67,"Velocity":57,"Duration":180733,"SoundDuration":180733,"Delta":50451813},{"NoteNumber":64,"Velocity":53,"Duration":175438,"SoundDuration":175438,"Delta":50632547},{"NoteNumber":60,"Velocity":46,"Duration":175438,"SoundDuration":175438,"Delta":50807986},{"NoteNumber":67,"Velocity":57,"Duration":424672,"SoundDuration":424672,"Delta":50983424},{"NoteNumber":76,"Velocity":52,"Duration":159812,"SoundDuration":159812,"Delta":51408097},{"NoteNumber":76,"Velocity":57,"Duration":1071598,"SoundDuration":1071598,"Delta":51567910},{"NoteNumber":55,"Velocity":48,"Duration":472973,"SoundDuration":472973,"Delta":51567910},{"NoteNumber":57,"Velocity":40,"Duration":67567,"SoundDuration":67567,"Delta":52040883},{"NoteNumber":55,"Velocity":48,"Duration":180180,"SoundDuration":180180,"Delta":52108451},{"NoteNumber":52,"Velocity":45,"Duration":175438,"SoundDuration":175438,"Delta":52288631},{"NoteNumber":48,"Velocity":41,"Duration":175438,"SoundDuration":175438,"Delta":52464070},{"NoteNumber":72,"Velocity":35,"Duration":277777,"SoundDuration":277777,"Delta":52639508},{"NoteNumber":55,"Velocity":48,"Duration":424836,"SoundDuration":424836,"Delta":52639508},{"NoteNumber":64,"Velocity":45,"Duration":147058,"SoundDuration":147058,"Delta":53064345},{"NoteNumber":79,"Velocity":72,"Duration":474425,"SoundDuration":474425,"Delta":53211404},{"NoteNumber":64,"Velocity":48,"Duration":1084401,"SoundDuration":1084401,"Delta":53211404},{"NoteNumber":77,"Velocity":56,"Duration":67775,"SoundDuration":67775,"Delta":53685830},{"NoteNumber":76,"Velocity":68,"Duration":180733,"SoundDuration":180733,"Delta":53753605},{"NoteNumber":72,"Velocity":63,"Duration":180733,"SoundDuration":180733,"Delta":53934339},{"NoteNumber":67,"Velocity":59,"Duration":180733,"SoundDuration":180733,"Delta":54115072},{"NoteNumber":72,"Velocity":69,"Duration":180733,"SoundDuration":180733,"Delta":54295806},{"NoteNumber":60,"Velocity":38,"Duration":271100,"SoundDuration":271100,"Delta":54295806},{"NoteNumber":76,"Velocity":65,"Duration":180733,"SoundDuration":180733,"Delta":54476540},{"NoteNumber":79,"Velocity":61,"Duration":180733,"SoundDuration":180733,"Delta":54657273},{"NoteNumber":67,"Velocity":70,"Duration":141509,"SoundDuration":141509,"Delta":54838007},{"NoteNumber":76,"Velocity":70,"Duration":141509,"SoundDuration":141509,"Delta":54838007},{"NoteNumber":79,"Velocity":70,"Duration":141509,"SoundDuration":141509,"Delta":54838007},{"NoteNumber":43,"Velocity":61,"Duration":141509,"SoundDuration":141509,"Delta":54838007},{"NoteNumber":67,"Velocity":66,"Duration":136363,"SoundDuration":136363,"Delta":55121026},{"NoteNumber":74,"Velocity":66,"Duration":136363,"SoundDuration":136363,"Delta":55121026},{"NoteNumber":77,"Velocity":66,"Duration":136363,"SoundDuration":136363,"Delta":55121026},{"NoteNumber":45,"Velocity":55,"Duration":136363,"SoundDuration":136363,"Delta":55121026},{"NoteNumber":47,"Velocity":55,"Duration":136363,"SoundDuration":136363,"Delta":55257390},{"NoteNumber":67,"Velocity":70,"Duration":107142,"SoundDuration":107142,"Delta":55393753},{"NoteNumber":72,"Velocity":70,"Duration":107142,"SoundDuration":107142,"Delta":55393753},{"NoteNumber":76,"Velocity":70,"Duration":107142,"SoundDuration":107142,"Delta":55393753},{"NoteNumber":48,"Velocity":61,"Duration":107142,"SoundDuration":107142,"Delta":55393753},{"NoteNumber":67,"Velocity":63,"Duration":108173,"SoundDuration":108173,"Delta":55679468},{"NoteNumber":71,"Velocity":63,"Duration":108173,"SoundDuration":108173,"Delta":55679468},{"NoteNumber":74,"Velocity":63,"Duration":108173,"SoundDuration":108173,"Delta":55679468},{"NoteNumber":43,"Velocity":53,"Duration":108173,"SoundDuration":108173,"Delta":55679468},{"NoteNumber":67,"Velocity":70,"Duration":107419,"SoundDuration":107419,"Delta":55967929},{"NoteNumber":72,"Velocity":70,"Duration":107419,"SoundDuration":107419,"Delta":55967929},{"NoteNumber":76,"Velocity":70,"Duration":107419,"SoundDuration":107419,"Delta":55967929},{"NoteNumber":48,"Velocity":61,"Duration":107419,"SoundDuration":107419,"Delta":55967929},{"NoteNumber":67,"Velocity":45,"Duration":291262,"SoundDuration":291262,"Delta":56540831},{"NoteNumber":51,"Velocity":38,"Duration":145631,"SoundDuration":145631,"Delta":56540831},{"NoteNumber":55,"Velocity":38,"Duration":145631,"SoundDuration":145631,"Delta":56540831},{"NoteNumber":69,"Velocity":41,"Duration":140186,"SoundDuration":140186,"Delta":56832093},{"NoteNumber":50,"Velocity":35,"Duration":140186,"SoundDuration":140186,"Delta":56832093},{"NoteNumber":53,"Velocity":35,"Duration":140186,"SoundDuration":140186,"Delta":56832093},{"NoteNumber":55,"Velocity":35,"Duration":140186,"SoundDuration":140186,"Delta":56832093},{"NoteNumber":71,"Velocity":41,"Duration":140187,"SoundDuration":140187,"Delta":56972280},{"NoteNumber":72,"Velocity":45,"Duration":108173,"SoundDuration":108173,"Delta":57112467},{"NoteNumber":48,"Velocity":38,"Duration":108173,"SoundDuration":108173,"Delta":57112467},{"NoteNumber":51,"Velocity":38,"Duration":108173,"SoundDuration":108173,"Delta":57112467},{"NoteNumber":55,"Velocity":38,"Duration":108173,"SoundDuration":108173,"Delta":57112467},{"NoteNumber":67,"Velocity":39,"Duration":106132,"SoundDuration":106132,"Delta":57400929},{"NoteNumber":47,"Velocity":35,"Duration":106132,"SoundDuration":106132,"Delta":57400929},{"NoteNumber":50,"Velocity":35,"Duration":106132,"SoundDuration":106132,"Delta":57400929},{"NoteNumber":55,"Velocity":35,"Duration":106132,"SoundDuration":106132,"Delta":57400929},{"NoteNumber":72,"Velocity":48,"Duration":107142,"SoundDuration":107142,"Delta":57683948},{"NoteNumber":48,"Velocity":42,"Duration":107142,"SoundDuration":107142,"Delta":57683948},{"NoteNumber":51,"Velocity":42,"Duration":107142,"SoundDuration":107142,"Delta":57683948},{"NoteNumber":55,"Velocity":42,"Duration":107142,"SoundDuration":107142,"Delta":57683948},{"NoteNumber":70,"Velocity":67,"Duration":137614,"SoundDuration":137614,"Delta":57969662},{"NoteNumber":82,"Velocity":67,"Duration":137614,"SoundDuration":137614,"Delta":57969662},{"NoteNumber":50,"Velocity":51,"Duration":137614,"SoundDuration":137614,"Delta":57969662},{"NoteNumber":53,"Velocity":51,"Duration":137614,"SoundDuration":137614,"Delta":57969662},{"NoteNumber":58,"Velocity":51,"Duration":137614,"SoundDuration":137614,"Delta":57969662},{"NoteNumber":70,"Velocity":68,"Duration":133928,"SoundDuration":133928,"Delta":58244892},{"NoteNumber":82,"Velocity":68,"Duration":133928,"SoundDuration":133928,"Delta":58244892},{"NoteNumber":53,"Velocity":55,"Duration":133928,"SoundDuration":133928,"Delta":58244892},{"NoteNumber":56,"Velocity":55,"Duration":133928,"SoundDuration":133928,"Delta":58244892},{"NoteNumber":58,"Velocity":55,"Duration":133928,"SoundDuration":133928,"Delta":58244892},{"NoteNumber":87,"Velocity":73,"Duration":138888,"SoundDuration":138888,"Delta":58512749},{"NoteNumber":75,"Velocity":73,"Duration":138888,"SoundDuration":138888,"Delta":58512749},{"NoteNumber":51,"Velocity":50,"Duration":138888,"SoundDuration":138888,"Delta":58512749},{"NoteNumber":55,"Velocity":50,"Duration":138888,"SoundDuration":138888,"Delta":58512749},{"NoteNumber":58,"Velocity":50,"Duration":138888,"SoundDuration":138888,"Delta":58512749},{"NoteNumber":87,"Velocity":78,"Duration":135135,"SoundDuration":135135,"Delta":58790527},{"NoteNumber":75,"Velocity":78,"Duration":135135,"SoundDuration":135135,"Delta":58790527},{"NoteNumber":51,"Velocity":55,"Duration":135135,"SoundDuration":135135,"Delta":58790527},{"NoteNumber":55,"Velocity":55,"Duration":135135,"SoundDuration":135135,"Delta":58790527},{"NoteNumber":58,"Velocity":55,"Duration":135135,"SoundDuration":135135,"Delta":58790527},{"NoteNumber":86,"Velocity":74,"Duration":138888,"SoundDuration":138888,"Delta":59060797},{"NoteNumber":74,"Velocity":74,"Duration":138888,"SoundDuration":138888,"Delta":59060797},{"NoteNumber":54,"Velocity":51,"Duration":138888,"SoundDuration":138888,"Delta":59060797},{"NoteNumber":57,"Velocity":51,"Duration":138888,"SoundDuration":138888,"Delta":59060797},{"NoteNumber":62,"Velocity":51,"Duration":138888,"SoundDuration":138888,"Delta":59060797},{"NoteNumber":74,"Velocity":81,"Duration":142857,"SoundDuration":142857,"Delta":59338575},{"NoteNumber":86,"Velocity":81,"Duration":142857,"SoundDuration":142857,"Delta":59338575},{"NoteNumber":57,"Velocity":64,"Duration":142857,"SoundDuration":142857,"Delta":59338575},{"NoteNumber":60,"Velocity":64,"Duration":142857,"SoundDuration":142857,"Delta":59338575},{"NoteNumber":62,"Velocity":64,"Duration":142857,"SoundDuration":142857,"Delta":59338575},{"NoteNumber":91,"Velocity":79,"Duration":142857,"SoundDuration":142857,"Delta":59624290},{"NoteNumber":79,"Velocity":79,"Duration":142857,"SoundDuration":142857,"Delta":59624290},{"NoteNumber":55,"Velocity":60,"Duration":142857,"SoundDuration":142857,"Delta":59624290},{"NoteNumber":58,"Velocity":60,"Duration":142857,"SoundDuration":142857,"Delta":59624290},{"NoteNumber":62,"Velocity":60,"Duration":142857,"SoundDuration":142857,"Delta":59624290},{"NoteNumber":79,"Velocity":83,"Duration":142857,"SoundDuration":142857,"Delta":59910004},{"NoteNumber":91,"Velocity":83,"Duration":142857,"SoundDuration":142857,"Delta":59910004},{"NoteNumber":55,"Velocity":65,"Duration":142857,"SoundDuration":142857,"Delta":59910004},{"NoteNumber":58,"Velocity":65,"Duration":142857,"SoundDuration":142857,"Delta":59910004},{"NoteNumber":62,"Velocity":65,"Duration":142857,"SoundDuration":142857,"Delta":59910004},{"NoteNumber":89,"Velocity":70,"Duration":154910,"SoundDuration":154910,"Delta":60195719},{"NoteNumber":77,"Velocity":70,"Duration":154910,"SoundDuration":154910,"Delta":60195719},{"NoteNumber":43,"Velocity":49,"Duration":154910,"SoundDuration":154910,"Delta":60195719},{"NoteNumber":50,"Velocity":49,"Duration":154910,"SoundDuration":154910,"Delta":60195719},{"NoteNumber":59,"Velocity":49,"Duration":154910,"SoundDuration":154910,"Delta":60195719},{"NoteNumber":89,"Velocity":66,"Duration":979432,"SoundDuration":979432,"Delta":60505540},{"NoteNumber":77,"Velocity":66,"Duration":979432,"SoundDuration":979432,"Delta":60505540},{"NoteNumber":43,"Velocity":47,"Duration":979432,"SoundDuration":979432,"Delta":60505540},{"NoteNumber":50,"Velocity":47,"Duration":979432,"SoundDuration":979432,"Delta":60505540},{"NoteNumber":59,"Velocity":47,"Duration":979432,"SoundDuration":979432,"Delta":60505540},{"NoteNumber":71,"Velocity":50,"Duration":357227,"SoundDuration":357227,"Delta":61484973},{"NoteNumber":83,"Velocity":50,"Duration":357227,"SoundDuration":357227,"Delta":61484973},{"NoteNumber":65,"Velocity":37,"Duration":357227,"SoundDuration":357227,"Delta":61484973},{"NoteNumber":67,"Velocity":37,"Duration":357227,"SoundDuration":357227,"Delta":61484973},{"NoteNumber":55,"Velocity":37,"Duration":357227,"SoundDuration":357227,"Delta":61484973},{"NoteNumber":84,"Velocity":45,"Duration":1752031,"SoundDuration":1752031,"Delta":61842201},{"NoteNumber":72,"Velocity":45,"Duration":1752031,"SoundDuration":1752031,"Delta":61842201},{"NoteNumber":67,"Velocity":35,"Duration":1752031,"SoundDuration":1752031,"Delta":61842201},{"NoteNumber":64,"Velocity":35,"Duration":1752031,"SoundDuration":1752031,"Delta":61842201},{"NoteNumber":60,"Velocity":35,"Duration":1752031,"SoundDuration":1752031,"Delta":61842201},{"NoteNumber":76,"Velocity":54,"Duration":491987,"SoundDuration":491987,"Delta":63594233},{"NoteNumber":77,"Velocity":44,"Duration":70284,"SoundDuration":70284,"Delta":64086221},{"NoteNumber":76,"Velocity":54,"Duration":180733,"SoundDuration":180733,"Delta":64156505},{"NoteNumber":72,"Velocity":50,"Duration":180733,"SoundDuration":180733,"Delta":64337239},{"NoteNumber":69,"Velocity":47,"Duration":117924,"SoundDuration":117924,"Delta":64517972},{"NoteNumber":74,"Velocity":44,"Duration":69692,"SoundDuration":69692,"Delta":64635897},{"NoteNumber":72,"Velocity":54,"Duration":180180,"SoundDuration":180180,"Delta":64705589},{"NoteNumber":69,"Velocity":51,"Duration":180180,"SoundDuration":180180,"Delta":64885769},{"NoteNumber":64,"Velocity":47,"Duration":194628,"SoundDuration":194628,"Delta":65065950},{"NoteNumber":64,"Velocity":45,"Duration":557102,"SoundDuration":557102,"Delta":65260578},{"NoteNumber":69,"Velocity":45,"Duration":278551,"SoundDuration":278551,"Delta":65260578},{"NoteNumber":72,"Velocity":54,"Duration":278551,"SoundDuration":278551,"Delta":65260578},{"NoteNumber":52,"Velocity":52,"Duration":487465,"SoundDuration":487465,"Delta":65260578},{"NoteNumber":68,"Velocity":43,"Duration":278551,"SoundDuration":278551,"Delta":65539130},{"NoteNumber":71,"Velocity":51,"Duration":278551,"SoundDuration":278551,"Delta":65539130},{"NoteNumber":53,"Velocity":44,"Duration":69637,"SoundDuration":69637,"Delta":65748043},{"NoteNumber":68,"Velocity":45,"Duration":315789,"SoundDuration":315789,"Delta":65817681},{"NoteNumber":64,"Velocity":45,"Duration":315789,"SoundDuration":315789,"Delta":65817681},{"NoteNumber":71,"Velocity":54,"Duration":315789,"SoundDuration":315789,"Delta":65817681},{"NoteNumber":52,"Velocity":58,"Duration":210526,"SoundDuration":210526,"Delta":65817681},{"NoteNumber":47,"Velocity":57,"Duration":210526,"SoundDuration":210526,"Delta":66028207},{"NoteNumber":66,"Velocity":43,"Duration":320594,"SoundDuration":320594,"Delta":66133471},{"NoteNumber":64,"Velocity":43,"Duration":320594,"SoundDuration":320594,"Delta":66133471},{"NoteNumber":69,"Velocity":51,"Duration":320594,"SoundDuration":320594,"Delta":66133471},{"NoteNumber":40,"Velocity":54,"Duration":215331,"SoundDuration":215331,"Delta":66238734},{"NoteNumber":64,"Velocity":45,"Duration":595355,"SoundDuration":595355,"Delta":66454065},{"NoteNumber":68,"Velocity":45,"Duration":595355,"SoundDuration":595355,"Delta":66454065},{"NoteNumber":71,"Velocity":54,"Duration":595355,"SoundDuration":595355,"Delta":66454065},{"NoteNumber":52,"Velocity":59,"Duration":595355,"SoundDuration":595355,"Delta":66454065},{"NoteNumber":64,"Velocity":45,"Duration":572901,"SoundDuration":572901,"Delta":67049421},{"NoteNumber":67,"Velocity":45,"Duration":572901,"SoundDuration":572901,"Delta":67049421},{"NoteNumber":72,"Velocity":54,"Duration":286450,"SoundDuration":286450,"Delta":67049421},{"NoteNumber":52,"Velocity":52,"Duration":501289,"SoundDuration":501289,"Delta":67049421},{"NoteNumber":71,"Velocity":51,"Duration":286450,"SoundDuration":286450,"Delta":67335872},{"NoteNumber":53,"Velocity":44,"Duration":71612,"SoundDuration":71612,"Delta":67550711},{"NoteNumber":64,"Velocity":45,"Duration":309278,"SoundDuration":309278,"Delta":67622323},{"NoteNumber":67,"Velocity":45,"Duration":309278,"SoundDuration":309278,"Delta":67622323},{"NoteNumber":71,"Velocity":54,"Duration":309278,"SoundDuration":309278,"Delta":67622323},{"NoteNumber":52,"Velocity":59,"Duration":206185,"SoundDuration":206185,"Delta":67622323},{"NoteNumber":55,"Velocity":55,"Duration":200180,"SoundDuration":200180,"Delta":67828509},{"NoteNumber":64,"Velocity":44,"Duration":291262,"SoundDuration":291262,"Delta":67931602},{"NoteNumber":67,"Velocity":44,"Duration":291262,"SoundDuration":291262,"Delta":67931602},{"NoteNumber":72,"Velocity":52,"Duration":291262,"SoundDuration":291262,"Delta":67931602},{"NoteNumber":60,"Velocity":53,"Duration":194174,"SoundDuration":194174,"Delta":68028689},{"NoteNumber":67,"Velocity":45,"Duration":612245,"SoundDuration":612245,"Delta":68222864},{"NoteNumber":71,"Velocity":54,"Duration":306122,"SoundDuration":306122,"Delta":68222864},{"NoteNumber":65,"Velocity":53,"Duration":612245,"SoundDuration":612245,"Delta":68222864},{"NoteNumber":62,"Velocity":45,"Duration":612245,"SoundDuration":612245,"Delta":68222864},{"NoteNumber":77,"Velocity":53,"Duration":306122,"SoundDuration":306122,"Delta":68528986},{"NoteNumber":76,"Velocity":54,"Duration":535714,"SoundDuration":535714,"Delta":68835109},{"NoteNumber":64,"Velocity":52,"Duration":612245,"SoundDuration":612245,"Delta":68835109},{"NoteNumber":60,"Velocity":44,"Duration":612245,"SoundDuration":612245,"Delta":68835109},{"NoteNumber":74,"Velocity":43,"Duration":76530,"SoundDuration":76530,"Delta":69370823},{"NoteNumber":72,"Velocity":53,"Duration":204081,"SoundDuration":204081,"Delta":69447354},{"NoteNumber":66,"Velocity":55,"Duration":306122,"SoundDuration":306122,"Delta":69447354},{"NoteNumber":62,"Velocity":46,"Duration":306122,"SoundDuration":306122,"Delta":69447354},{"NoteNumber":71,"Velocity":51,"Duration":204081,"SoundDuration":204081,"Delta":69651436},{"NoteNumber":66,"Velocity":53,"Duration":306122,"SoundDuration":306122,"Delta":69753476},{"NoteNumber":62,"Velocity":45,"Duration":306122,"SoundDuration":306122,"Delta":69753476},{"NoteNumber":69,"Velocity":52,"Duration":204081,"SoundDuration":204081,"Delta":69855517},{"NoteNumber":71,"Velocity":55,"Duration":638298,"SoundDuration":638298,"Delta":70059599},{"NoteNumber":62,"Velocity":47,"Duration":638298,"SoundDuration":638298,"Delta":70059599},{"NoteNumber":55,"Velocity":47,"Duration":638298,"SoundDuration":638298,"Delta":70059599},{"NoteNumber":67,"Velocity":56,"Duration":638298,"SoundDuration":638298,"Delta":70059599},{"NoteNumber":71,"Velocity":68,"Duration":509708,"SoundDuration":509708,"Delta":70697897},{"NoteNumber":59,"Velocity":61,"Duration":509708,"SoundDuration":509708,"Delta":70697897},{"NoteNumber":72,"Velocity":58,"Duration":63025,"SoundDuration":63025,"Delta":71207605},{"NoteNumber":60,"Velocity":51,"Duration":63025,"SoundDuration":63025,"Delta":71207605},{"NoteNumber":71,"Velocity":68,"Duration":176991,"SoundDuration":176991,"Delta":71270631},{"NoteNumber":59,"Velocity":61,"Duration":176991,"SoundDuration":176991,"Delta":71270631},{"NoteNumber":67,"Velocity":66,"Duration":168067,"SoundDuration":168067,"Delta":71447622},{"NoteNumber":55,"Velocity":59,"Duration":168067,"SoundDuration":168067,"Delta":71447622},{"NoteNumber":64,"Velocity":64,"Duration":148514,"SoundDuration":148514,"Delta":71615689},{"NoteNumber":52,"Velocity":56,"Duration":148514,"SoundDuration":148514,"Delta":71615689},{"NoteNumber":79,"Velocity":82,"Duration":277777,"SoundDuration":277777,"Delta":71813709},{"NoteNumber":67,"Velocity":76,"Duration":277777,"SoundDuration":277777,"Delta":71813709},{"NoteNumber":76,"Velocity":72,"Duration":122282,"SoundDuration":122282,"Delta":72091487},{"NoteNumber":64,"Velocity":64,"Duration":122282,"SoundDuration":122282,"Delta":72091487},{"NoteNumber":71,"Velocity":70,"Duration":504807,"SoundDuration":504807,"Delta":72417574},{"NoteNumber":59,"Velocity":62,"Duration":504807,"SoundDuration":504807,"Delta":72417574},{"NoteNumber":72,"Velocity":56,"Duration":63025,"SoundDuration":63025,"Delta":72922381},{"NoteNumber":60,"Velocity":53,"Duration":63025,"SoundDuration":63025,"Delta":72922381},{"NoteNumber":71,"Velocity":71,"Duration":176991,"SoundDuration":176991,"Delta":72985407},{"NoteNumber":59,"Velocity":64,"Duration":176991,"SoundDuration":176991,"Delta":72985407},{"NoteNumber":67,"Velocity":69,"Duration":168067,"SoundDuration":168067,"Delta":73162398},{"NoteNumber":55,"Velocity":61,"Duration":168067,"SoundDuration":168067,"Delta":73162398},{"NoteNumber":64,"Velocity":66,"Duration":150000,"SoundDuration":150000,"Delta":73330465},{"NoteNumber":52,"Velocity":57,"Duration":150000,"SoundDuration":150000,"Delta":73330465},{"NoteNumber":79,"Velocity":85,"Duration":270270,"SoundDuration":270270,"Delta":73530465},{"NoteNumber":67,"Velocity":76,"Duration":270270,"SoundDuration":270270,"Delta":73530465},{"NoteNumber":76,"Velocity":74,"Duration":114795,"SoundDuration":114795,"Delta":73800735},{"NoteNumber":64,"Velocity":66,"Duration":114795,"SoundDuration":114795,"Delta":73800735},{"NoteNumber":83,"Velocity":90,"Duration":288461,"SoundDuration":288461,"Delta":74106858},{"NoteNumber":75,"Velocity":90,"Duration":288461,"SoundDuration":288461,"Delta":74106858},{"NoteNumber":78,"Velocity":90,"Duration":288461,"SoundDuration":288461,"Delta":74106858},{"NoteNumber":47,"Velocity":77,"Duration":288461,"SoundDuration":288461,"Delta":74106858},{"NoteNumber":71,"Velocity":87,"Duration":108173,"SoundDuration":108173,"Delta":74395319},{"NoteNumber":59,"Velocity":72,"Duration":108173,"SoundDuration":108173,"Delta":74395319},{"NoteNumber":81,"Velocity":71,"Duration":61983,"SoundDuration":61983,"Delta":74611666},{"NoteNumber":63,"Velocity":58,"Duration":61983,"SoundDuration":61983,"Delta":74611666},{"NoteNumber":79,"Velocity":87,"Duration":168067,"SoundDuration":168067,"Delta":74673649},{"NoteNumber":64,"Velocity":73,"Duration":168067,"SoundDuration":168067,"Delta":74673649},{"NoteNumber":78,"Velocity":83,"Duration":168067,"SoundDuration":168067,"Delta":74841716},{"NoteNumber":66,"Velocity":67,"Duration":168067,"SoundDuration":168067,"Delta":74841716},{"NoteNumber":76,"Velocity":78,"Duration":205782,"SoundDuration":205782,"Delta":75009784},{"NoteNumber":67,"Velocity":78,"Duration":205782,"SoundDuration":205782,"Delta":75009784},{"NoteNumber":83,"Velocity":93,"Duration":283018,"SoundDuration":283018,"Delta":75215566},{"NoteNumber":75,"Velocity":93,"Duration":283018,"SoundDuration":283018,"Delta":75215566},{"NoteNumber":78,"Velocity":93,"Duration":283018,"SoundDuration":283018,"Delta":75215566},{"NoteNumber":47,"Velocity":79,"Duration":283018,"SoundDuration":283018,"Delta":75215566},{"NoteNumber":71,"Velocity":86,"Duration":106132,"SoundDuration":106132,"Delta":75498585},{"NoteNumber":59,"Velocity":73,"Duration":106132,"SoundDuration":106132,"Delta":75498585},{"NoteNumber":81,"Velocity":74,"Duration":60975,"SoundDuration":60975,"Delta":75710849},{"NoteNumber":63,"Velocity":58,"Duration":60975,"SoundDuration":60975,"Delta":75710849},{"NoteNumber":79,"Velocity":89,"Duration":170940,"SoundDuration":170940,"Delta":75771825},{"NoteNumber":64,"Velocity":75,"Duration":170940,"SoundDuration":170940,"Delta":75771825},{"NoteNumber":78,"Velocity":85,"Duration":165289,"SoundDuration":165289,"Delta":75942765},{"NoteNumber":66,"Velocity":68,"Duration":165289,"SoundDuration":165289,"Delta":75942765},{"NoteNumber":76,"Velocity":82,"Duration":194174,"SoundDuration":194174,"Delta":76108055},{"NoteNumber":67,"Velocity":66,"Duration":194174,"SoundDuration":194174,"Delta":76108055},{"NoteNumber":83,"Velocity":95,"Duration":283018,"SoundDuration":283018,"Delta":76302229},{"NoteNumber":75,"Velocity":95,"Duration":283018,"SoundDuration":283018,"Delta":76302229},{"NoteNumber":78,"Velocity":95,"Duration":283018,"SoundDuration":283018,"Delta":76302229},{"NoteNumber":47,"Velocity":80,"Duration":283018,"SoundDuration":283018,"Delta":76302229},{"NoteNumber":71,"Velocity":89,"Duration":108173,"SoundDuration":108173,"Delta":76585248},{"NoteNumber":59,"Velocity":75,"Duration":108173,"SoundDuration":108173,"Delta":76585248},{"NoteNumber":95,"Velocity":114,"Duration":308673,"SoundDuration":308673,"Delta":76873710},{"NoteNumber":35,"Velocity":81,"Duration":308673,"SoundDuration":308673,"Delta":76873710},{"NoteNumber":83,"Velocity":93,"Duration":115752,"SoundDuration":115752,"Delta":77182383},{"NoteNumber":47,"Velocity":70,"Duration":115752,"SoundDuration":115752,"Delta":77182383},{"NoteNumber":79,"Velocity":45,"Duration":280373,"SoundDuration":280373,"Delta":79127422},{"NoteNumber":64,"Velocity":36,"Duration":280373,"SoundDuration":280373,"Delta":79127422},{"NoteNumber":76,"Velocity":30,"Duration":144230,"SoundDuration":144230,"Delta":79407796},{"NoteNumber":67,"Velocity":25,"Duration":144230,"SoundDuration":144230,"Delta":79407796},{"NoteNumber":79,"Velocity":43,"Duration":277777,"SoundDuration":277777,"Delta":79696257},{"NoteNumber":64,"Velocity":34,"Duration":277777,"SoundDuration":277777,"Delta":79696257},{"NoteNumber":76,"Velocity":31,"Duration":142857,"SoundDuration":142857,"Delta":79974035},{"NoteNumber":67,"Velocity":25,"Duration":142857,"SoundDuration":142857,"Delta":79974035},{"NoteNumber":79,"Velocity":42,"Duration":280373,"SoundDuration":280373,"Delta":80259750},{"NoteNumber":64,"Velocity":33,"Duration":280373,"SoundDuration":280373,"Delta":80259750},{"NoteNumber":76,"Velocity":31,"Duration":145630,"SoundDuration":145630,"Delta":80540124},{"NoteNumber":67,"Velocity":26,"Duration":145630,"SoundDuration":145630,"Delta":80540124},{"NoteNumber":79,"Velocity":41,"Duration":280373,"SoundDuration":280373,"Delta":80831386},{"NoteNumber":64,"Velocity":33,"Duration":280373,"SoundDuration":280373,"Delta":80831386},{"NoteNumber":76,"Velocity":29,"Duration":142857,"SoundDuration":142857,"Delta":81111760},{"NoteNumber":67,"Velocity":24,"Duration":142857,"SoundDuration":142857,"Delta":81111760},{"NoteNumber":79,"Velocity":38,"Duration":280373,"SoundDuration":280373,"Delta":81397474},{"NoteNumber":64,"Velocity":31,"Duration":280373,"SoundDuration":280373,"Delta":81397474},{"NoteNumber":76,"Velocity":27,"Duration":142857,"SoundDuration":142857,"Delta":81677848},{"NoteNumber":67,"Velocity":23,"Duration":142857,"SoundDuration":142857,"Delta":81677848},{"NoteNumber":79,"Velocity":37,"Duration":280373,"SoundDuration":280373,"Delta":81963563},{"NoteNumber":64,"Velocity":30,"Duration":280373,"SoundDuration":280373,"Delta":81963563},{"NoteNumber":76,"Velocity":26,"Duration":142857,"SoundDuration":142857,"Delta":82243937},{"NoteNumber":67,"Velocity":21,"Duration":142857,"SoundDuration":142857,"Delta":82243937},{"NoteNumber":79,"Velocity":36,"Duration":271100,"SoundDuration":271100,"Delta":82529651},{"NoteNumber":76,"Velocity":36,"Duration":271100,"SoundDuration":271100,"Delta":82529651},{"NoteNumber":55,"Velocity":48,"Duration":474425,"SoundDuration":474425,"Delta":82529651},{"NoteNumber":67,"Velocity":27,"Duration":135550,"SoundDuration":135550,"Delta":82800752},{"NoteNumber":57,"Velocity":40,"Duration":67775,"SoundDuration":67775,"Delta":83004077},{"NoteNumber":76,"Velocity":36,"Duration":267690,"SoundDuration":267690,"Delta":83071852},{"NoteNumber":79,"Velocity":36,"Duration":267690,"SoundDuration":267690,"Delta":83071852},{"NoteNumber":55,"Velocity":48,"Duration":180733,"SoundDuration":180733,"Delta":83071852},{"NoteNumber":52,"Velocity":45,"Duration":173912,"SoundDuration":173912,"Delta":83252586},{"NoteNumber":67,"Velocity":27,"Duration":130434,"SoundDuration":130434,"Delta":83339542},{"NoteNumber":48,"Velocity":39,"Duration":173912,"SoundDuration":173912,"Delta":83426499},{"NoteNumber":76,"Velocity":36,"Duration":278551,"SoundDuration":278551,"Delta":83600412},{"NoteNumber":79,"Velocity":36,"Duration":278551,"SoundDuration":278551,"Delta":83600412},{"NoteNumber":55,"Velocity":48,"Duration":424672,"SoundDuration":424672,"Delta":83600412},{"NoteNumber":67,"Velocity":27,"Duration":146121,"SoundDuration":146121,"Delta":83878963},{"NoteNumber":64,"Velocity":45,"Duration":159812,"SoundDuration":159812,"Delta":84025085},{"NoteNumber":76,"Velocity":38,"Duration":294782,"SoundDuration":294782,"Delta":84184897},{"NoteNumber":79,"Velocity":38,"Duration":294782,"SoundDuration":294782,"Delta":84184897},{"NoteNumber":64,"Velocity":48,"Duration":1151925,"SoundDuration":1151925,"Delta":84184897},{"NoteNumber":67,"Velocity":29,"Duration":142857,"SoundDuration":142857,"Delta":84479680},{"NoteNumber":76,"Velocity":38,"Duration":285714,"SoundDuration":285714,"Delta":84765394},{"NoteNumber":79,"Velocity":38,"Duration":285714,"SoundDuration":285714,"Delta":84765394},{"NoteNumber":67,"Velocity":27,"Duration":142857,"SoundDuration":142857,"Delta":85051109},{"NoteNumber":76,"Velocity":34,"Duration":285714,"SoundDuration":285714,"Delta":85336823},{"NoteNumber":79,"Velocity":34,"Duration":285714,"SoundDuration":285714,"Delta":85336823},{"NoteNumber":60,"Velocity":36,"Duration":285714,"SoundDuration":285714,"Delta":85336823},{"NoteNumber":67,"Velocity":26,"Duration":142857,"SoundDuration":142857,"Delta":85622538},{"NoteNumber":67,"Velocity":51,"Duration":474425,"SoundDuration":474425,"Delta":85908252},{"NoteNumber":69,"Velocity":48,"Duration":67775,"SoundDuration":67775,"Delta":86382678},{"NoteNumber":67,"Velocity":57,"Duration":180733,"SoundDuration":180733,"Delta":86450453},{"NoteNumber":64,"Velocity":53,"Duration":175438,"SoundDuration":175438,"Delta":86631187},{"NoteNumber":60,"Velocity":46,"Duration":175438,"SoundDuration":175438,"Delta":86806626},{"NoteNumber":67,"Velocity":57,"Duration":424672,"SoundDuration":424672,"Delta":86982064},{"NoteNumber":76,"Velocity":52,"Duration":159812,"SoundDuration":159812,"Delta":87406737},{"NoteNumber":76,"Velocity":57,"Duration":1071598,"SoundDuration":1071598,"Delta":87566550},{"NoteNumber":55,"Velocity":48,"Duration":472973,"SoundDuration":472973,"Delta":87566550},{"NoteNumber":57,"Velocity":40,"Duration":67567,"SoundDuration":67567,"Delta":88039523},{"NoteNumber":55,"Velocity":48,"Duration":180180,"SoundDuration":180180,"Delta":88107091},{"NoteNumber":52,"Velocity":45,"Duration":175438,"SoundDuration":175438,"Delta":88287271},{"NoteNumber":48,"Velocity":41,"Duration":175438,"SoundDuration":175438,"Delta":88462710},{"NoteNumber":72,"Velocity":35,"Duration":277777,"SoundDuration":277777,"Delta":88638148},{"NoteNumber":55,"Velocity":48,"Duration":424836,"SoundDuration":424836,"Delta":88638148},{"NoteNumber":64,"Velocity":45,"Duration":147058,"SoundDuration":147058,"Delta":89062985},{"NoteNumber":79,"Velocity":72,"Duration":474425,"SoundDuration":474425,"Delta":89210044},{"NoteNumber":64,"Velocity":48,"Duration":1084401,"SoundDuration":1084401,"Delta":89210044},{"NoteNumber":77,"Velocity":56,"Duration":67775,"SoundDuration":67775,"Delta":89684470},{"NoteNumber":76,"Velocity":68,"Duration":180733,"SoundDuration":180733,"Delta":89752245},{"NoteNumber":72,"Velocity":63,"Duration":180733,"SoundDuration":180733,"Delta":89932978},{"NoteNumber":67,"Velocity":59,"Duration":180733,"SoundDuration":180733,"Delta":90113712},{"NoteNumber":72,"Velocity":69,"Duration":180733,"SoundDuration":180733,"Delta":90294446},{"NoteNumber":60,"Velocity":38,"Duration":271100,"SoundDuration":271100,"Delta":90294446},{"NoteNumber":76,"Velocity":65,"Duration":180733,"SoundDuration":180733,"Delta":90475179},{"NoteNumber":79,"Velocity":61,"Duration":180733,"SoundDuration":180733,"Delta":90655913},{"NoteNumber":67,"Velocity":70,"Duration":142857,"SoundDuration":142857,"Delta":90836647},{"NoteNumber":76,"Velocity":70,"Duration":142857,"SoundDuration":142857,"Delta":90836647},{"NoteNumber":79,"Velocity":70,"Duration":142857,"SoundDuration":142857,"Delta":90836647},{"NoteNumber":43,"Velocity":61,"Duration":142857,"SoundDuration":142857,"Delta":90836647},{"NoteNumber":67,"Velocity":66,"Duration":137614,"SoundDuration":137614,"Delta":91122361},{"NoteNumber":74,"Velocity":66,"Duration":137614,"SoundDuration":137614,"Delta":91122361},{"NoteNumber":77,"Velocity":66,"Duration":137614,"SoundDuration":137614,"Delta":91122361},{"NoteNumber":45,"Velocity":55,"Duration":137614,"SoundDuration":137614,"Delta":91122361},{"NoteNumber":47,"Velocity":55,"Duration":137614,"SoundDuration":137614,"Delta":91259976},{"NoteNumber":67,"Velocity":70,"Duration":108173,"SoundDuration":108173,"Delta":91397591},{"NoteNumber":72,"Velocity":70,"Duration":108173,"SoundDuration":108173,"Delta":91397591},{"NoteNumber":76,"Velocity":70,"Duration":108173,"SoundDuration":108173,"Delta":91397591},{"NoteNumber":48,"Velocity":61,"Duration":108173,"SoundDuration":108173,"Delta":91397591},{"NoteNumber":67,"Velocity":63,"Duration":110294,"SoundDuration":110294,"Delta":91686052},{"NoteNumber":71,"Velocity":63,"Duration":110294,"SoundDuration":110294,"Delta":91686052},{"NoteNumber":74,"Velocity":63,"Duration":110294,"SoundDuration":110294,"Delta":91686052},{"NoteNumber":43,"Velocity":53,"Duration":110294,"SoundDuration":110294,"Delta":91686052},{"NoteNumber":67,"Velocity":70,"Duration":107419,"SoundDuration":107419,"Delta":91980170},{"NoteNumber":72,"Velocity":70,"Duration":107419,"SoundDuration":107419,"Delta":91980170},{"NoteNumber":76,"Velocity":70,"Duration":107419,"SoundDuration":107419,"Delta":91980170},{"NoteNumber":48,"Velocity":61,"Duration":107419,"SoundDuration":107419,"Delta":91980170},{"NoteNumber":67,"Velocity":45,"Duration":299999,"SoundDuration":299999,"Delta":92553072},{"NoteNumber":51,"Velocity":38,"Duration":150000,"SoundDuration":150000,"Delta":92553072},{"NoteNumber":55,"Velocity":38,"Duration":150000,"SoundDuration":150000,"Delta":92553072},{"NoteNumber":69,"Velocity":41,"Duration":136774,"SoundDuration":136774,"Delta":92853072},{"NoteNumber":50,"Velocity":35,"Duration":136774,"SoundDuration":136774,"Delta":92853072},{"NoteNumber":53,"Velocity":35,"Duration":136774,"SoundDuration":136774,"Delta":92853072},{"NoteNumber":55,"Velocity":35,"Duration":136774,"SoundDuration":136774,"Delta":92853072},{"NoteNumber":71,"Velocity":41,"Duration":136774,"SoundDuration":136774,"Delta":92989846},{"NoteNumber":72,"Velocity":45,"Duration":108173,"SoundDuration":108173,"Delta":93126620},{"NoteNumber":48,"Velocity":38,"Duration":108173,"SoundDuration":108173,"Delta":93126620},{"NoteNumber":51,"Velocity":38,"Duration":108173,"SoundDuration":108173,"Delta":93126620},{"NoteNumber":55,"Velocity":38,"Duration":108173,"SoundDuration":108173,"Delta":93126620},{"NoteNumber":67,"Velocity":39,"Duration":107142,"SoundDuration":107142,"Delta":93415081},{"NoteNumber":47,"Velocity":35,"Duration":107142,"SoundDuration":107142,"Delta":93415081},{"NoteNumber":50,"Velocity":35,"Duration":107142,"SoundDuration":107142,"Delta":93415081},{"NoteNumber":55,"Velocity":35,"Duration":107142,"SoundDuration":107142,"Delta":93415081},{"NoteNumber":72,"Velocity":48,"Duration":106132,"SoundDuration":106132,"Delta":93700796},{"NoteNumber":48,"Velocity":42,"Duration":106132,"SoundDuration":106132,"Delta":93700796},{"NoteNumber":51,"Velocity":42,"Duration":106132,"SoundDuration":106132,"Delta":93700796},{"NoteNumber":55,"Velocity":42,"Duration":106132,"SoundDuration":106132,"Delta":93700796},{"NoteNumber":70,"Velocity":64,"Duration":138889,"SoundDuration":138889,"Delta":93983815},{"NoteNumber":82,"Velocity":64,"Duration":138889,"SoundDuration":138889,"Delta":93983815},{"NoteNumber":50,"Velocity":49,"Duration":138889,"SoundDuration":138889,"Delta":93983815},{"NoteNumber":53,"Velocity":49,"Duration":138889,"SoundDuration":138889,"Delta":93983815},{"NoteNumber":58,"Velocity":49,"Duration":138889,"SoundDuration":138889,"Delta":93983815},{"NoteNumber":70,"Velocity":66,"Duration":134348,"SoundDuration":134348,"Delta":94261593},{"NoteNumber":82,"Velocity":66,"Duration":134348,"SoundDuration":134348,"Delta":94261593},{"NoteNumber":53,"Velocity":52,"Duration":134348,"SoundDuration":134348,"Delta":94261593},{"NoteNumber":56,"Velocity":52,"Duration":134348,"SoundDuration":134348,"Delta":94261593},{"NoteNumber":58,"Velocity":52,"Duration":134348,"SoundDuration":134348,"Delta":94261593},{"NoteNumber":87,"Velocity":71,"Duration":138889,"SoundDuration":138889,"Delta":94530290},{"NoteNumber":75,"Velocity":71,"Duration":138889,"SoundDuration":138889,"Delta":94530290},{"NoteNumber":51,"Velocity":52,"Duration":138889,"SoundDuration":138889,"Delta":94530290},{"NoteNumber":55,"Velocity":52,"Duration":138889,"SoundDuration":138889,"Delta":94530290},{"NoteNumber":58,"Velocity":52,"Duration":138889,"SoundDuration":138889,"Delta":94530290},{"NoteNumber":87,"Velocity":74,"Duration":135135,"SoundDuration":135135,"Delta":94808068},{"NoteNumber":75,"Velocity":74,"Duration":135135,"SoundDuration":135135,"Delta":94808068},{"NoteNumber":51,"Velocity":56,"Duration":135135,"SoundDuration":135135,"Delta":94808068},{"NoteNumber":55,"Velocity":56,"Duration":135135,"SoundDuration":135135,"Delta":94808068},{"NoteNumber":58,"Velocity":56,"Duration":135135,"SoundDuration":135135,"Delta":94808068},{"NoteNumber":86,"Velocity":70,"Duration":140334,"SoundDuration":140334,"Delta":95078338},{"NoteNumber":74,"Velocity":70,"Duration":140334,"SoundDuration":140334,"Delta":95078338},{"NoteNumber":54,"Velocity":54,"Duration":140334,"SoundDuration":140334,"Delta":95078338},{"NoteNumber":57,"Velocity":54,"Duration":140334,"SoundDuration":140334,"Delta":95078338},{"NoteNumber":62,"Velocity":54,"Duration":140334,"SoundDuration":140334,"Delta":95078338},{"NoteNumber":74,"Velocity":79,"Duration":142857,"SoundDuration":142857,"Delta":95357562},{"NoteNumber":86,"Velocity":79,"Duration":142857,"SoundDuration":142857,"Delta":95357562},{"NoteNumber":57,"Velocity":59,"Duration":142857,"SoundDuration":142857,"Delta":95357562},{"NoteNumber":60,"Velocity":59,"Duration":142857,"SoundDuration":142857,"Delta":95357562},{"NoteNumber":62,"Velocity":59,"Duration":142857,"SoundDuration":142857,"Delta":95357562},{"NoteNumber":91,"Velocity":81,"Duration":142857,"SoundDuration":142857,"Delta":95643276},{"NoteNumber":79,"Velocity":81,"Duration":142857,"SoundDuration":142857,"Delta":95643276},{"NoteNumber":55,"Velocity":56,"Duration":142857,"SoundDuration":142857,"Delta":95643276},{"NoteNumber":58,"Velocity":56,"Duration":142857,"SoundDuration":142857,"Delta":95643276},{"NoteNumber":62,"Velocity":56,"Duration":142857,"SoundDuration":142857,"Delta":95643276},{"NoteNumber":79,"Velocity":85,"Duration":142857,"SoundDuration":142857,"Delta":95928991},{"NoteNumber":91,"Velocity":85,"Duration":142857,"SoundDuration":142857,"Delta":95928991},{"NoteNumber":55,"Velocity":64,"Duration":142857,"SoundDuration":142857,"Delta":95928991},{"NoteNumber":58,"Velocity":64,"Duration":142857,"SoundDuration":142857,"Delta":95928991},{"NoteNumber":62,"Velocity":64,"Duration":142857,"SoundDuration":142857,"Delta":95928991},{"NoteNumber":89,"Velocity":70,"Duration":154910,"SoundDuration":154910,"Delta":96214705},{"NoteNumber":77,"Velocity":70,"Duration":154910,"SoundDuration":154910,"Delta":96214705},{"NoteNumber":43,"Velocity":49,"Duration":154910,"SoundDuration":154910,"Delta":96214705},{"NoteNumber":50,"Velocity":49,"Duration":154910,"SoundDuration":154910,"Delta":96214705},{"NoteNumber":59,"Velocity":49,"Duration":154910,"SoundDuration":154910,"Delta":96214705},{"NoteNumber":89,"Velocity":66,"Duration":979432,"SoundDuration":979432,"Delta":96524527},{"NoteNumber":77,"Velocity":66,"Duration":979432,"SoundDuration":979432,"Delta":96524527},{"NoteNumber":43,"Velocity":47,"Duration":979432,"SoundDuration":979432,"Delta":96524527},{"NoteNumber":50,"Velocity":47,"Duration":979432,"SoundDuration":979432,"Delta":96524527},{"NoteNumber":59,"Velocity":47,"Duration":979432,"SoundDuration":979432,"Delta":96524527},{"NoteNumber":71,"Velocity":50,"Duration":357228,"SoundDuration":357228,"Delta":97503959},{"NoteNumber":83,"Velocity":50,"Duration":357228,"SoundDuration":357228,"Delta":97503959},{"NoteNumber":65,"Velocity":37,"Duration":357228,"SoundDuration":357228,"Delta":97503959},{"NoteNumber":67,"Velocity":37,"Duration":357228,"SoundDuration":357228,"Delta":97503959},{"NoteNumber":55,"Velocity":37,"Duration":357228,"SoundDuration":357228,"Delta":97503959},{"NoteNumber":84,"Velocity":45,"Duration":1716225,"SoundDuration":1716225,"Delta":97861187},{"NoteNumber":72,"Velocity":45,"Duration":1716225,"SoundDuration":1716225,"Delta":97861187},{"NoteNumber":67,"Velocity":35,"Duration":1716225,"SoundDuration":1716225,"Delta":97861187},{"NoteNumber":64,"Velocity":35,"Duration":1716225,"SoundDuration":1716225,"Delta":97861187},{"NoteNumber":60,"Velocity":35,"Duration":1716225,"SoundDuration":1716225,"Delta":97861187},{"NoteNumber":67,"Velocity":50,"Duration":180180,"SoundDuration":180180,"Delta":99613219},{"NoteNumber":47,"Velocity":45,"Duration":180180,"SoundDuration":180180,"Delta":99613219},{"NoteNumber":43,"Velocity":31,"Duration":1643760,"SoundDuration":1643760,"Delta":99613219},{"NoteNumber":62,"Velocity":40,"Duration":180180,"SoundDuration":180180,"Delta":99793400},{"NoteNumber":50,"Velocity":36,"Duration":180180,"SoundDuration":180180,"Delta":99793400},{"NoteNumber":59,"Velocity":34,"Duration":180180,"SoundDuration":180180,"Delta":99973580},{"NoteNumber":55,"Velocity":31,"Duration":180180,"SoundDuration":180180,"Delta":99973580},{"NoteNumber":67,"Velocity":47,"Duration":180180,"SoundDuration":180180,"Delta":100153760},{"NoteNumber":47,"Velocity":42,"Duration":180180,"SoundDuration":180180,"Delta":100153760},{"NoteNumber":62,"Velocity":37,"Duration":180180,"SoundDuration":180180,"Delta":100333941},{"NoteNumber":50,"Velocity":33,"Duration":180180,"SoundDuration":180180,"Delta":100333941},{"NoteNumber":59,"Velocity":32,"Duration":180180,"SoundDuration":180180,"Delta":100514121},{"NoteNumber":55,"Velocity":27,"Duration":180180,"SoundDuration":180180,"Delta":100514121},{"NoteNumber":66,"Velocity":47,"Duration":185185,"SoundDuration":185185,"Delta":100694301},{"NoteNumber":45,"Velocity":41,"Duration":185185,"SoundDuration":185185,"Delta":100694301},{"NoteNumber":62,"Velocity":38,"Duration":185185,"SoundDuration":185185,"Delta":100879487},{"NoteNumber":50,"Velocity":33,"Duration":185185,"SoundDuration":185185,"Delta":100879487},{"NoteNumber":57,"Velocity":33,"Duration":192307,"SoundDuration":192307,"Delta":101064672},{"NoteNumber":54,"Velocity":27,"Duration":192307,"SoundDuration":192307,"Delta":101064672},{"NoteNumber":69,"Velocity":50,"Duration":180180,"SoundDuration":180180,"Delta":101256980},{"NoteNumber":48,"Velocity":45,"Duration":180180,"SoundDuration":180180,"Delta":101256980},{"NoteNumber":43,"Velocity":31,"Duration":1621622,"SoundDuration":1621622,"Delta":101256980},{"NoteNumber":62,"Velocity":41,"Duration":180180,"SoundDuration":180180,"Delta":101437160},{"NoteNumber":50,"Velocity":36,"Duration":180180,"SoundDuration":180180,"Delta":101437160},{"NoteNumber":60,"Velocity":33,"Duration":180180,"SoundDuration":180180,"Delta":101617340},{"NoteNumber":57,"Velocity":29,"Duration":180180,"SoundDuration":180180,"Delta":101617340},{"NoteNumber":69,"Velocity":48,"Duration":180180,"SoundDuration":180180,"Delta":101797521},{"NoteNumber":48,"Velocity":43,"Duration":180180,"SoundDuration":180180,"Delta":101797521},{"NoteNumber":62,"Velocity":38,"Duration":180180,"SoundDuration":180180,"Delta":101977701},{"NoteNumber":50,"Velocity":33,"Duration":180180,"SoundDuration":180180,"Delta":101977701},{"NoteNumber":60,"Velocity":30,"Duration":180180,"SoundDuration":180180,"Delta":102157881},{"NoteNumber":57,"Velocity":28,"Duration":180180,"SoundDuration":180180,"Delta":102157881},{"NoteNumber":67,"Velocity":48,"Duration":180180,"SoundDuration":180180,"Delta":102338062},{"NoteNumber":47,"Velocity":43,"Duration":180180,"SoundDuration":180180,"Delta":102338062},{"NoteNumber":62,"Velocity":38,"Duration":180180,"SoundDuration":180180,"Delta":102518242},{"NoteNumber":50,"Velocity":33,"Duration":180180,"SoundDuration":180180,"Delta":102518242},{"NoteNumber":59,"Velocity":31,"Duration":180180,"SoundDuration":180180,"Delta":102698422},{"NoteNumber":55,"Velocity":28,"Duration":180180,"SoundDuration":180180,"Delta":102698422},{"NoteNumber":67,"Velocity":47,"Duration":180180,"SoundDuration":180180,"Delta":102878603},{"NoteNumber":47,"Velocity":42,"Duration":180180,"SoundDuration":180180,"Delta":102878603},{"NoteNumber":62,"Velocity":38,"Duration":188679,"SoundDuration":188679,"Delta":103058783},{"NoteNumber":50,"Velocity":33,"Duration":188679,"SoundDuration":188679,"Delta":103058783},{"NoteNumber":59,"Velocity":31,"Duration":194174,"SoundDuration":194174,"Delta":103247462},{"NoteNumber":55,"Velocity":28,"Duration":194174,"SoundDuration":194174,"Delta":103247462},{"NoteNumber":62,"Velocity":47,"Duration":297471,"SoundDuration":297471,"Delta":103441637},{"NoteNumber":66,"Velocity":47,"Duration":297471,"SoundDuration":297471,"Delta":103441637},{"NoteNumber":69,"Velocity":56,"Duration":297471,"SoundDuration":297471,"Delta":103441637},{"NoteNumber":50,"Velocity":42,"Duration":297471,"SoundDuration":297471,"Delta":103441637},{"NoteNumber":54,"Velocity":42,"Duration":297471,"SoundDuration":297471,"Delta":103441637},{"NoteNumber":57,"Velocity":50,"Duration":297471,"SoundDuration":297471,"Delta":103441637},{"NoteNumber":62,"Velocity":51,"Duration":322511,"SoundDuration":322511,"Delta":103739108},{"NoteNumber":67,"Velocity":51,"Duration":322511,"SoundDuration":322511,"Delta":103739108},{"NoteNumber":71,"Velocity":61,"Duration":322511,"SoundDuration":322511,"Delta":103739108},{"NoteNumber":50,"Velocity":45,"Duration":322511,"SoundDuration":322511,"Delta":103739108},{"NoteNumber":55,"Velocity":45,"Duration":322511,"SoundDuration":322511,"Delta":103739108},{"NoteNumber":59,"Velocity":53,"Duration":322511,"SoundDuration":322511,"Delta":103739108},{"NoteNumber":62,"Velocity":55,"Duration":457015,"SoundDuration":457015,"Delta":104061620},{"NoteNumber":69,"Velocity":55,"Duration":457015,"SoundDuration":457015,"Delta":104061620},{"NoteNumber":72,"Velocity":64,"Duration":457015,"SoundDuration":457015,"Delta":104061620},{"NoteNumber":50,"Velocity":48,"Duration":457015,"SoundDuration":457015,"Delta":104061620},{"NoteNumber":57,"Velocity":48,"Duration":457015,"SoundDuration":457015,"Delta":104061620},{"NoteNumber":60,"Velocity":57,"Duration":457015,"SoundDuration":457015,"Delta":104061620},{"NoteNumber":62,"Velocity":49,"Duration":156625,"SoundDuration":156625,"Delta":104518636},{"NoteNumber":67,"Velocity":49,"Duration":156625,"SoundDuration":156625,"Delta":104518636},{"NoteNumber":71,"Velocity":59,"Duration":156625,"SoundDuration":156625,"Delta":104518636},{"NoteNumber":50,"Velocity":42,"Duration":156625,"SoundDuration":156625,"Delta":104518636},{"NoteNumber":55,"Velocity":42,"Duration":156625,"SoundDuration":156625,"Delta":104518636},{"NoteNumber":59,"Velocity":51,"Duration":156625,"SoundDuration":156625,"Delta":104518636},{"NoteNumber":62,"Velocity":45,"Duration":625137,"SoundDuration":625137,"Delta":104675261},{"NoteNumber":67,"Velocity":45,"Duration":625137,"SoundDuration":625137,"Delta":104675261},{"NoteNumber":71,"Velocity":53,"Duration":625137,"SoundDuration":625137,"Delta":104675261},{"NoteNumber":50,"Velocity":38,"Duration":625137,"SoundDuration":625137,"Delta":104675261},{"NoteNumber":55,"Velocity":38,"Duration":625137,"SoundDuration":625137,"Delta":104675261},{"NoteNumber":59,"Velocity":45,"Duration":625137,"SoundDuration":625137,"Delta":104675261},{"NoteNumber":62,"Velocity":31,"Duration":333037,"SoundDuration":333037,"Delta":105300398},{"NoteNumber":66,"Velocity":31,"Duration":333037,"SoundDuration":333037,"Delta":105300398},{"NoteNumber":69,"Velocity":37,"Duration":333037,"SoundDuration":333037,"Delta":105300398},{"NoteNumber":50,"Velocity":27,"Duration":333037,"SoundDuration":333037,"Delta":105300398},{"NoteNumber":54,"Velocity":27,"Duration":333037,"SoundDuration":333037,"Delta":105300398},{"NoteNumber":57,"Velocity":32,"Duration":333037,"SoundDuration":333037,"Delta":105300398},{"NoteNumber":62,"Velocity":29,"Duration":319148,"SoundDuration":319148,"Delta":105633435},{"NoteNumber":64,"Velocity":29,"Duration":319148,"SoundDuration":319148,"Delta":105633435},{"NoteNumber":67,"Velocity":35,"Duration":319148,"SoundDuration":319148,"Delta":105633435},{"NoteNumber":50,"Velocity":26,"Duration":319148,"SoundDuration":319148,"Delta":105633435},{"NoteNumber":52,"Velocity":26,"Duration":319148,"SoundDuration":319148,"Delta":105633435},{"NoteNumber":55,"Velocity":31,"Duration":319148,"SoundDuration":319148,"Delta":105633435},{"NoteNumber":62,"Velocity":31,"Duration":638298,"SoundDuration":638298,"Delta":105952584},{"NoteNumber":66,"Velocity":31,"Duration":638298,"SoundDuration":638298,"Delta":105952584},{"NoteNumber":69,"Velocity":37,"Duration":638298,"SoundDuration":638298,"Delta":105952584},{"NoteNumber":50,"Velocity":28,"Duration":638298,"SoundDuration":638298,"Delta":105952584},{"NoteNumber":54,"Velocity":28,"Duration":638298,"SoundDuration":638298,"Delta":105952584},{"NoteNumber":57,"Velocity":33,"Duration":638298,"SoundDuration":638298,"Delta":105952584},{"NoteNumber":74,"Velocity":53,"Duration":1643760,"SoundDuration":1643760,"Delta":106590882},{"NoteNumber":67,"Velocity":50,"Duration":180180,"SoundDuration":180180,"Delta":106590882},{"NoteNumber":47,"Velocity":45,"Duration":180180,"SoundDuration":180180,"Delta":106590882},{"NoteNumber":43,"Velocity":31,"Duration":1643760,"SoundDuration":1643760,"Delta":106590882},{"NoteNumber":62,"Velocity":40,"Duration":180180,"SoundDuration":180180,"Delta":106771063},{"NoteNumber":50,"Velocity":36,"Duration":180180,"SoundDuration":180180,"Delta":106771063},{"NoteNumber":71,"Velocity":34,"Duration":180180,"SoundDuration":180180,"Delta":106951243},{"NoteNumber":55,"Velocity":31,"Duration":180180,"SoundDuration":180180,"Delta":106951243},{"NoteNumber":67,"Velocity":47,"Duration":180180,"SoundDuration":180180,"Delta":107131423},{"NoteNumber":47,"Velocity":42,"Duration":180180,"SoundDuration":180180,"Delta":107131423},{"NoteNumber":62,"Velocity":37,"Duration":180180,"SoundDuration":180180,"Delta":107311604},{"NoteNumber":50,"Velocity":33,"Duration":180180,"SoundDuration":180180,"Delta":107311604},{"NoteNumber":71,"Velocity":32,"Duration":180180,"SoundDuration":180180,"Delta":107491784},{"NoteNumber":55,"Velocity":27,"Duration":180180,"SoundDuration":180180,"Delta":107491784},{"NoteNumber":66,"Velocity":47,"Duration":185185,"SoundDuration":185185,"Delta":107671964},{"NoteNumber":45,"Velocity":41,"Duration":185185,"SoundDuration":185185,"Delta":107671964},{"NoteNumber":62,"Velocity":38,"Duration":185185,"SoundDuration":185185,"Delta":107857150},{"NoteNumber":50,"Velocity":33,"Duration":185185,"SoundDuration":185185,"Delta":107857150},{"NoteNumber":69,"Velocity":33,"Duration":192307,"SoundDuration":192307,"Delta":108042335},{"NoteNumber":54,"Velocity":27,"Duration":192307,"SoundDuration":192307,"Delta":108042335},{"NoteNumber":74,"Velocity":53,"Duration":1649472,"SoundDuration":1649472,"Delta":108234643},{"NoteNumber":69,"Velocity":50,"Duration":180180,"SoundDuration":180180,"Delta":108234643},{"NoteNumber":48,"Velocity":45,"Duration":180180,"SoundDuration":180180,"Delta":108234643},{"NoteNumber":43,"Velocity":31,"Duration":1649472,"SoundDuration":1649472,"Delta":108234643},{"NoteNumber":62,"Velocity":41,"Duration":180180,"SoundDuration":180180,"Delta":108414823},{"NoteNumber":50,"Velocity":36,"Duration":180180,"SoundDuration":180180,"Delta":108414823},{"NoteNumber":72,"Velocity":33,"Duration":180180,"SoundDuration":180180,"Delta":108595003},{"NoteNumber":57,"Velocity":29,"Duration":180180,"SoundDuration":180180,"Delta":108595003},{"NoteNumber":69,"Velocity":48,"Duration":180180,"SoundDuration":180180,"Delta":108775184},{"NoteNumber":48,"Velocity":43,"Duration":180180,"SoundDuration":180180,"Delta":108775184},{"NoteNumber":62,"Velocity":38,"Duration":180180,"SoundDuration":180180,"Delta":108955364},{"NoteNumber":50,"Velocity":33,"Duration":180180,"SoundDuration":180180,"Delta":108955364},{"NoteNumber":72,"Velocity":30,"Duration":180180,"SoundDuration":180180,"Delta":109135544},{"NoteNumber":57,"Velocity":28,"Duration":180180,"SoundDuration":180180,"Delta":109135544},{"NoteNumber":67,"Velocity":48,"Duration":185185,"SoundDuration":185185,"Delta":109315725},{"NoteNumber":47,"Velocity":43,"Duration":185185,"SoundDuration":185185,"Delta":109315725},{"NoteNumber":62,"Velocity":38,"Duration":185185,"SoundDuration":185185,"Delta":109500910},{"NoteNumber":50,"Velocity":33,"Duration":185185,"SoundDuration":185185,"Delta":109500910},{"NoteNumber":71,"Velocity":31,"Duration":198019,"SoundDuration":198019,"Delta":109686095},{"NoteNumber":55,"Velocity":28,"Duration":198019,"SoundDuration":198019,"Delta":109686095},{"NoteNumber":62,"Velocity":70,"Duration":288461,"SoundDuration":288461,"Delta":109884115},{"NoteNumber":50,"Velocity":46,"Duration":604250,"SoundDuration":604250,"Delta":109884115},{"NoteNumber":47,"Velocity":39,"Duration":604250,"SoundDuration":604250,"Delta":109884115},{"NoteNumber":43,"Velocity":39,"Duration":604250,"SoundDuration":604250,"Delta":109884115},{"NoteNumber":74,"Velocity":68,"Duration":315789,"SoundDuration":315789,"Delta":110172577},{"NoteNumber":64,"Velocity":56,"Duration":297471,"SoundDuration":297471,"Delta":110488366},{"NoteNumber":76,"Velocity":66,"Duration":297471,"SoundDuration":297471,"Delta":110488366},{"NoteNumber":43,"Velocity":46,"Duration":297471,"SoundDuration":297471,"Delta":110488366},{"NoteNumber":48,"Velocity":46,"Duration":297471,"SoundDuration":297471,"Delta":110488366},{"NoteNumber":52,"Velocity":55,"Duration":297471,"SoundDuration":297471,"Delta":110488366},{"NoteNumber":66,"Velocity":61,"Duration":333333,"SoundDuration":333333,"Delta":110785838},{"NoteNumber":78,"Velocity":72,"Duration":333333,"SoundDuration":333333,"Delta":110785838},{"NoteNumber":43,"Velocity":49,"Duration":333333,"SoundDuration":333333,"Delta":110785838},{"NoteNumber":45,"Velocity":49,"Duration":333333,"SoundDuration":333333,"Delta":110785838},{"NoteNumber":54,"Velocity":58,"Duration":333333,"SoundDuration":333333,"Delta":110785838},{"NoteNumber":67,"Velocity":69,"Duration":463917,"SoundDuration":463917,"Delta":111119171},{"NoteNumber":79,"Velocity":82,"Duration":463917,"SoundDuration":463917,"Delta":111119171},{"NoteNumber":43,"Velocity":57,"Duration":463917,"SoundDuration":463917,"Delta":111119171},{"NoteNumber":55,"Velocity":68,"Duration":463917,"SoundDuration":463917,"Delta":111119171},{"NoteNumber":47,"Velocity":57,"Duration":463917,"SoundDuration":463917,"Delta":111119171},{"NoteNumber":62,"Velocity":46,"Duration":154639,"SoundDuration":154639,"Delta":111583089},{"NoteNumber":67,"Velocity":46,"Duration":154639,"SoundDuration":154639,"Delta":111583089},{"NoteNumber":71,"Velocity":55,"Duration":154639,"SoundDuration":154639,"Delta":111583089},{"NoteNumber":50,"Velocity":41,"Duration":154639,"SoundDuration":154639,"Delta":111583089},{"NoteNumber":55,"Velocity":41,"Duration":154639,"SoundDuration":154639,"Delta":111583089},{"NoteNumber":59,"Velocity":49,"Duration":154639,"SoundDuration":154639,"Delta":111583089},{"NoteNumber":62,"Velocity":51,"Duration":635223,"SoundDuration":635223,"Delta":111737728},{"NoteNumber":71,"Velocity":51,"Duration":635223,"SoundDuration":635223,"Delta":111737728},{"NoteNumber":74,"Velocity":61,"Duration":635223,"SoundDuration":635223,"Delta":111737728},{"NoteNumber":50,"Velocity":45,"Duration":635223,"SoundDuration":635223,"Delta":111737728},{"NoteNumber":62,"Velocity":54,"Duration":635223,"SoundDuration":635223,"Delta":111737728},{"NoteNumber":59,"Velocity":45,"Duration":635223,"SoundDuration":635223,"Delta":111737728},{"NoteNumber":62,"Velocity":42,"Duration":492612,"SoundDuration":492612,"Delta":112372952},{"NoteNumber":66,"Velocity":42,"Duration":492612,"SoundDuration":492612,"Delta":112372952},{"NoteNumber":72,"Velocity":50,"Duration":492612,"SoundDuration":492612,"Delta":112372952},{"NoteNumber":50,"Velocity":39,"Duration":492612,"SoundDuration":492612,"Delta":112372952},{"NoteNumber":57,"Velocity":39,"Duration":492612,"SoundDuration":492612,"Delta":112372952},{"NoteNumber":60,"Velocity":46,"Duration":492612,"SoundDuration":492612,"Delta":112372952},{"NoteNumber":62,"Velocity":37,"Duration":159574,"SoundDuration":159574,"Delta":112865564},{"NoteNumber":67,"Velocity":37,"Duration":159574,"SoundDuration":159574,"Delta":112865564},{"NoteNumber":71,"Velocity":44,"Duration":159574,"SoundDuration":159574,"Delta":112865564},{"NoteNumber":55,"Velocity":31,"Duration":159574,"SoundDuration":159574,"Delta":112865564},{"NoteNumber":59,"Velocity":37,"Duration":159574,"SoundDuration":159574,"Delta":112865564},{"NoteNumber":62,"Velocity":34,"Duration":638298,"SoundDuration":638298,"Delta":113025138},{"NoteNumber":67,"Velocity":34,"Duration":638298,"SoundDuration":638298,"Delta":113025138},{"NoteNumber":71,"Velocity":41,"Duration":638298,"SoundDuration":638298,"Delta":113025138},{"NoteNumber":55,"Velocity":28,"Duration":638298,"SoundDuration":638298,"Delta":113025138},{"NoteNumber":59,"Velocity":34,"Duration":638298,"SoundDuration":638298,"Delta":113025138},{"NoteNumber":67,"Velocity":50,"Duration":180180,"SoundDuration":180180,"Delta":113663436},{"NoteNumber":47,"Velocity":45,"Duration":180180,"SoundDuration":180180,"Delta":113663436},{"NoteNumber":43,"Velocity":31,"Duration":1643760,"SoundDuration":1643760,"Delta":113663436},{"NoteNumber":62,"Velocity":40,"Duration":180180,"SoundDuration":180180,"Delta":113843616},{"NoteNumber":50,"Velocity":36,"Duration":180180,"SoundDuration":180180,"Delta":113843616},{"NoteNumber":59,"Velocity":34,"Duration":180180,"SoundDuration":180180,"Delta":114023797},{"NoteNumber":55,"Velocity":31,"Duration":180180,"SoundDuration":180180,"Delta":114023797},{"NoteNumber":67,"Velocity":47,"Duration":180180,"SoundDuration":180180,"Delta":114203977},{"NoteNumber":47,"Velocity":42,"Duration":180180,"SoundDuration":180180,"Delta":114203977},{"NoteNumber":62,"Velocity":37,"Duration":180180,"SoundDuration":180180,"Delta":114384157},{"NoteNumber":50,"Velocity":33,"Duration":180180,"SoundDuration":180180,"Delta":114384157},{"NoteNumber":59,"Velocity":32,"Duration":180180,"SoundDuration":180180,"Delta":114564338},{"NoteNumber":55,"Velocity":27,"Duration":180180,"SoundDuration":180180,"Delta":114564338},{"NoteNumber":66,"Velocity":47,"Duration":185185,"SoundDuration":185185,"Delta":114744518},{"NoteNumber":45,"Velocity":41,"Duration":185185,"SoundDuration":185185,"Delta":114744518},{"NoteNumber":62,"Velocity":38,"Duration":185185,"SoundDuration":185185,"Delta":114929703},{"NoteNumber":50,"Velocity":33,"Duration":185185,"SoundDuration":185185,"Delta":114929703},{"NoteNumber":57,"Velocity":33,"Duration":192307,"SoundDuration":192307,"Delta":115114889},{"NoteNumber":54,"Velocity":27,"Duration":192307,"SoundDuration":192307,"Delta":115114889},{"NoteNumber":69,"Velocity":50,"Duration":180180,"SoundDuration":180180,"Delta":115307196},{"NoteNumber":48,"Velocity":45,"Duration":180180,"SoundDuration":180180,"Delta":115307196},{"NoteNumber":43,"Velocity":31,"Duration":1621622,"SoundDuration":1621622,"Delta":115307196},{"NoteNumber":62,"Velocity":41,"Duration":180180,"SoundDuration":180180,"Delta":115487377},{"NoteNumber":50,"Velocity":36,"Duration":180180,"SoundDuration":180180,"Delta":115487377},{"NoteNumber":60,"Velocity":33,"Duration":180180,"SoundDuration":180180,"Delta":115667557},{"NoteNumber":57,"Velocity":29,"Duration":180180,"SoundDuration":180180,"Delta":115667557},{"NoteNumber":69,"Velocity":48,"Duration":180180,"SoundDuration":180180,"Delta":115847737},{"NoteNumber":48,"Velocity":43,"Duration":180180,"SoundDuration":180180,"Delta":115847737},{"NoteNumber":62,"Velocity":38,"Duration":180180,"SoundDuration":180180,"Delta":116027918},{"NoteNumber":50,"Velocity":33,"Duration":180180,"SoundDuration":180180,"Delta":116027918},{"NoteNumber":60,"Velocity":30,"Duration":180180,"SoundDuration":180180,"Delta":116208098},{"NoteNumber":57,"Velocity":28,"Duration":180180,"SoundDuration":180180,"Delta":116208098},{"NoteNumber":67,"Velocity":48,"Duration":180180,"SoundDuration":180180,"Delta":116388278},{"NoteNumber":47,"Velocity":43,"Duration":180180,"SoundDuration":180180,"Delta":116388278},{"NoteNumber":62,"Velocity":38,"Duration":180180,"SoundDuration":180180,"Delta":116568459},{"NoteNumber":50,"Velocity":33,"Duration":180180,"SoundDuration":180180,"Delta":116568459},{"NoteNumber":59,"Velocity":31,"Duration":180180,"SoundDuration":180180,"Delta":116748639},{"NoteNumber":55,"Velocity":28,"Duration":180180,"SoundDuration":180180,"Delta":116748639},{"NoteNumber":67,"Velocity":47,"Duration":180180,"SoundDuration":180180,"Delta":116928819},{"NoteNumber":47,"Velocity":42,"Duration":180180,"SoundDuration":180180,"Delta":116928819},{"NoteNumber":62,"Velocity":38,"Duration":188679,"SoundDuration":188679,"Delta":117109000},{"NoteNumber":50,"Velocity":33,"Duration":188679,"SoundDuration":188679,"Delta":117109000},{"NoteNumber":59,"Velocity":31,"Duration":194174,"SoundDuration":194174,"Delta":117297679},{"NoteNumber":55,"Velocity":28,"Duration":194174,"SoundDuration":194174,"Delta":117297679},{"NoteNumber":62,"Velocity":49,"Duration":297471,"SoundDuration":297471,"Delta":117491854},{"NoteNumber":66,"Velocity":49,"Duration":297471,"SoundDuration":297471,"Delta":117491854},{"NoteNumber":69,"Velocity":59,"Duration":297471,"SoundDuration":297471,"Delta":117491854},{"NoteNumber":50,"Velocity":42,"Duration":297471,"SoundDuration":297471,"Delta":117491854},{"NoteNumber":54,"Velocity":42,"Duration":297471,"SoundDuration":297471,"Delta":117491854},{"NoteNumber":57,"Velocity":50,"Duration":297471,"SoundDuration":297471,"Delta":117491854},{"NoteNumber":62,"Velocity":51,"Duration":322511,"SoundDuration":322511,"Delta":117789325},{"NoteNumber":67,"Velocity":51,"Duration":322511,"SoundDuration":322511,"Delta":117789325},{"NoteNumber":71,"Velocity":61,"Duration":322511,"SoundDuration":322511,"Delta":117789325},{"NoteNumber":50,"Velocity":45,"Duration":322511,"SoundDuration":322511,"Delta":117789325},{"NoteNumber":55,"Velocity":45,"Duration":322511,"SoundDuration":322511,"Delta":117789325},{"NoteNumber":59,"Velocity":53,"Duration":322511,"SoundDuration":322511,"Delta":117789325},{"NoteNumber":62,"Velocity":53,"Duration":457015,"SoundDuration":457015,"Delta":118111837},{"NoteNumber":69,"Velocity":53,"Duration":457015,"SoundDuration":457015,"Delta":118111837},{"NoteNumber":72,"Velocity":63,"Duration":457015,"SoundDuration":457015,"Delta":118111837},{"NoteNumber":50,"Velocity":48,"Duration":457015,"SoundDuration":457015,"Delta":118111837},{"NoteNumber":57,"Velocity":57,"Duration":457015,"SoundDuration":457015,"Delta":118111837},{"NoteNumber":60,"Velocity":57,"Duration":457015,"SoundDuration":457015,"Delta":118111837},{"NoteNumber":62,"Velocity":49,"Duration":156625,"SoundDuration":156625,"Delta":118568852},{"NoteNumber":67,"Velocity":49,"Duration":156625,"SoundDuration":156625,"Delta":118568852},{"NoteNumber":71,"Velocity":59,"Duration":156625,"SoundDuration":156625,"Delta":118568852},{"NoteNumber":50,"Velocity":42,"Duration":156625,"SoundDuration":156625,"Delta":118568852},{"NoteNumber":55,"Velocity":42,"Duration":156625,"SoundDuration":156625,"Delta":118568852},{"NoteNumber":59,"Velocity":51,"Duration":156625,"SoundDuration":156625,"Delta":118568852},{"NoteNumber":62,"Velocity":45,"Duration":625137,"SoundDuration":625137,"Delta":118725478},{"NoteNumber":67,"Velocity":45,"Duration":625137,"SoundDuration":625137,"Delta":118725478},{"NoteNumber":71,"Velocity":53,"Duration":625137,"SoundDuration":625137,"Delta":118725478},{"NoteNumber":50,"Velocity":38,"Duration":625137,"SoundDuration":625137,"Delta":118725478},{"NoteNumber":55,"Velocity":38,"Duration":625137,"SoundDuration":625137,"Delta":118725478},{"NoteNumber":59,"Velocity":45,"Duration":625137,"SoundDuration":625137,"Delta":118725478},{"NoteNumber":62,"Velocity":31,"Duration":333037,"SoundDuration":333037,"Delta":119350615},{"NoteNumber":66,"Velocity":31,"Duration":333037,"SoundDuration":333037,"Delta":119350615},{"NoteNumber":69,"Velocity":37,"Duration":333037,"SoundDuration":333037,"Delta":119350615},{"NoteNumber":50,"Velocity":27,"Duration":333037,"SoundDuration":333037,"Delta":119350615},{"NoteNumber":54,"Velocity":27,"Duration":333037,"SoundDuration":333037,"Delta":119350615},{"NoteNumber":57,"Velocity":32,"Duration":333037,"SoundDuration":333037,"Delta":119350615},{"NoteNumber":62,"Velocity":29,"Duration":319148,"SoundDuration":319148,"Delta":119683652},{"NoteNumber":64,"Velocity":29,"Duration":319148,"SoundDuration":319148,"Delta":119683652},{"NoteNumber":67,"Velocity":29,"Duration":319148,"SoundDuration":319148,"Delta":119683652},{"NoteNumber":50,"Velocity":26,"Duration":319148,"SoundDuration":319148,"Delta":119683652},{"NoteNumber":52,"Velocity":26,"Duration":319148,"SoundDuration":319148,"Delta":119683652},{"NoteNumber":55,"Velocity":31,"Duration":319148,"SoundDuration":319148,"Delta":119683652},{"NoteNumber":62,"Velocity":31,"Duration":638298,"SoundDuration":638298,"Delta":120002801},{"NoteNumber":66,"Velocity":31,"Duration":638298,"SoundDuration":638298,"Delta":120002801},{"NoteNumber":69,"Velocity":37,"Duration":638298,"SoundDuration":638298,"Delta":120002801},{"NoteNumber":50,"Velocity":28,"Duration":638298,"SoundDuration":638298,"Delta":120002801},{"NoteNumber":54,"Velocity":28,"Duration":638298,"SoundDuration":638298,"Delta":120002801},{"NoteNumber":57,"Velocity":33,"Duration":638298,"SoundDuration":638298,"Delta":120002801},{"NoteNumber":74,"Velocity":53,"Duration":1643760,"SoundDuration":1643760,"Delta":120641099},{"NoteNumber":67,"Velocity":50,"Duration":180180,"SoundDuration":180180,"Delta":120641099},{"NoteNumber":47,"Velocity":45,"Duration":180180,"SoundDuration":180180,"Delta":120641099},{"NoteNumber":43,"Velocity":31,"Duration":1643760,"SoundDuration":1643760,"Delta":120641099},{"NoteNumber":62,"Velocity":40,"Duration":180180,"SoundDuration":180180,"Delta":120821280},{"NoteNumber":50,"Velocity":36,"Duration":180180,"SoundDuration":180180,"Delta":120821280},{"NoteNumber":71,"Velocity":34,"Duration":180180,"SoundDuration":180180,"Delta":121001460},{"NoteNumber":55,"Velocity":31,"Duration":180180,"SoundDuration":180180,"Delta":121001460},{"NoteNumber":67,"Velocity":47,"Duration":180180,"SoundDuration":180180,"Delta":121181640},{"NoteNumber":47,"Velocity":42,"Duration":180180,"SoundDuration":180180,"Delta":121181640},{"NoteNumber":62,"Velocity":37,"Duration":180180,"SoundDuration":180180,"Delta":121361821},{"NoteNumber":50,"Velocity":33,"Duration":180180,"SoundDuration":180180,"Delta":121361821},{"NoteNumber":71,"Velocity":32,"Duration":180180,"SoundDuration":180180,"Delta":121542001},{"NoteNumber":55,"Velocity":27,"Duration":180180,"SoundDuration":180180,"Delta":121542001},{"NoteNumber":66,"Velocity":47,"Duration":185185,"SoundDuration":185185,"Delta":121722181},{"NoteNumber":45,"Velocity":41,"Duration":185185,"SoundDuration":185185,"Delta":121722181},{"NoteNumber":62,"Velocity":38,"Duration":185185,"SoundDuration":185185,"Delta":121907367},{"NoteNumber":50,"Velocity":33,"Duration":185185,"SoundDuration":185185,"Delta":121907367},{"NoteNumber":69,"Velocity":33,"Duration":192307,"SoundDuration":192307,"Delta":122092552},{"NoteNumber":54,"Velocity":27,"Duration":192307,"SoundDuration":192307,"Delta":122092552},{"NoteNumber":74,"Velocity":53,"Duration":1649472,"SoundDuration":1649472,"Delta":122284860},{"NoteNumber":69,"Velocity":50,"Duration":180180,"SoundDuration":180180,"Delta":122284860},{"NoteNumber":48,"Velocity":45,"Duration":180180,"SoundDuration":180180,"Delta":122284860},{"NoteNumber":43,"Velocity":31,"Duration":1649472,"SoundDuration":1649472,"Delta":122284860},{"NoteNumber":62,"Velocity":41,"Duration":180180,"SoundDuration":180180,"Delta":122465040},{"NoteNumber":50,"Velocity":36,"Duration":180180,"SoundDuration":180180,"Delta":122465040},{"NoteNumber":72,"Velocity":33,"Duration":180180,"SoundDuration":180180,"Delta":122645220},{"NoteNumber":57,"Velocity":29,"Duration":180180,"SoundDuration":180180,"Delta":122645220},{"NoteNumber":69,"Velocity":48,"Duration":180180,"SoundDuration":180180,"Delta":122825401},{"NoteNumber":48,"Velocity":43,"Duration":180180,"SoundDuration":180180,"Delta":122825401},{"NoteNumber":62,"Velocity":38,"Duration":180180,"SoundDuration":180180,"Delta":123005581},{"NoteNumber":50,"Velocity":33,"Duration":180180,"SoundDuration":180180,"Delta":123005581},{"NoteNumber":72,"Velocity":30,"Duration":180180,"SoundDuration":180180,"Delta":123185761},{"NoteNumber":57,"Velocity":28,"Duration":180180,"SoundDuration":180180,"Delta":123185761},{"NoteNumber":67,"Velocity":48,"Duration":185185,"SoundDuration":185185,"Delta":123365942},{"NoteNumber":47,"Velocity":43,"Duration":185185,"SoundDuration":185185,"Delta":123365942},{"NoteNumber":62,"Velocity":38,"Duration":185185,"SoundDuration":185185,"Delta":123551127},{"NoteNumber":50,"Velocity":33,"Duration":185185,"SoundDuration":185185,"Delta":123551127},{"NoteNumber":71,"Velocity":31,"Duration":198019,"SoundDuration":198019,"Delta":123736312},{"NoteNumber":55,"Velocity":28,"Duration":198019,"SoundDuration":198019,"Delta":123736312},{"NoteNumber":62,"Velocity":70,"Duration":288461,"SoundDuration":288461,"Delta":123934332},{"NoteNumber":50,"Velocity":46,"Duration":604250,"SoundDuration":604250,"Delta":123934332},{"NoteNumber":47,"Velocity":39,"Duration":604250,"SoundDuration":604250,"Delta":123934332},{"NoteNumber":43,"Velocity":39,"Duration":604250,"SoundDuration":604250,"Delta":123934332},{"NoteNumber":74,"Velocity":68,"Duration":315789,"SoundDuration":315789,"Delta":124222793},{"NoteNumber":64,"Velocity":56,"Duration":297471,"SoundDuration":297471,"Delta":124538583},{"NoteNumber":76,"Velocity":66,"Duration":297471,"SoundDuration":297471,"Delta":124538583},{"NoteNumber":43,"Velocity":46,"Duration":297471,"SoundDuration":297471,"Delta":124538583},{"NoteNumber":48,"Velocity":46,"Duration":297471,"SoundDuration":297471,"Delta":124538583},{"NoteNumber":52,"Velocity":55,"Duration":297471,"SoundDuration":297471,"Delta":124538583},{"NoteNumber":66,"Velocity":61,"Duration":333333,"SoundDuration":333333,"Delta":124836054},{"NoteNumber":78,"Velocity":72,"Duration":333333,"SoundDuration":333333,"Delta":124836054},{"NoteNumber":43,"Velocity":49,"Duration":333333,"SoundDuration":333333,"Delta":124836054},{"NoteNumber":45,"Velocity":49,"Duration":333333,"SoundDuration":333333,"Delta":124836054},{"NoteNumber":54,"Velocity":58,"Duration":333333,"SoundDuration":333333,"Delta":124836054},{"NoteNumber":67,"Velocity":68,"Duration":463917,"SoundDuration":463917,"Delta":125169388},{"NoteNumber":79,"Velocity":81,"Duration":463917,"SoundDuration":463917,"Delta":125169388},{"NoteNumber":43,"Velocity":57,"Duration":463917,"SoundDuration":463917,"Delta":125169388},{"NoteNumber":55,"Velocity":68,"Duration":463917,"SoundDuration":463917,"Delta":125169388},{"NoteNumber":47,"Velocity":57,"Duration":463917,"SoundDuration":463917,"Delta":125169388},{"NoteNumber":62,"Velocity":46,"Duration":154639,"SoundDuration":154639,"Delta":125633306},{"NoteNumber":67,"Velocity":46,"Duration":154639,"SoundDuration":154639,"Delta":125633306},{"NoteNumber":71,"Velocity":55,"Duration":154639,"SoundDuration":154639,"Delta":125633306},{"NoteNumber":50,"Velocity":41,"Duration":154639,"SoundDuration":154639,"Delta":125633306},{"NoteNumber":55,"Velocity":41,"Duration":154639,"SoundDuration":154639,"Delta":125633306},{"NoteNumber":59,"Velocity":49,"Duration":154639,"SoundDuration":154639,"Delta":125633306},{"NoteNumber":62,"Velocity":51,"Duration":635223,"SoundDuration":635223,"Delta":125787945},{"NoteNumber":71,"Velocity":51,"Duration":635223,"SoundDuration":635223,"Delta":125787945},{"NoteNumber":74,"Velocity":61,"Duration":635223,"SoundDuration":635223,"Delta":125787945},{"NoteNumber":50,"Velocity":45,"Duration":635223,"SoundDuration":635223,"Delta":125787945},{"NoteNumber":62,"Velocity":54,"Duration":635223,"SoundDuration":635223,"Delta":125787945},{"NoteNumber":59,"Velocity":45,"Duration":635223,"SoundDuration":635223,"Delta":125787945},{"NoteNumber":62,"Velocity":42,"Duration":492612,"SoundDuration":492612,"Delta":126423168},{"NoteNumber":66,"Velocity":42,"Duration":492612,"SoundDuration":492612,"Delta":126423168},{"NoteNumber":72,"Velocity":50,"Duration":492612,"SoundDuration":492612,"Delta":126423168},{"NoteNumber":50,"Velocity":39,"Duration":492612,"SoundDuration":492612,"Delta":126423168},{"NoteNumber":57,"Velocity":39,"Duration":492612,"SoundDuration":492612,"Delta":126423168},{"NoteNumber":60,"Velocity":46,"Duration":492612,"SoundDuration":492612,"Delta":126423168},{"NoteNumber":62,"Velocity":37,"Duration":159574,"SoundDuration":159574,"Delta":126915780},{"NoteNumber":67,"Velocity":37,"Duration":159574,"SoundDuration":159574,"Delta":126915780},{"NoteNumber":71,"Velocity":44,"Duration":159574,"SoundDuration":159574,"Delta":126915780},{"NoteNumber":55,"Velocity":31,"Duration":159574,"SoundDuration":159574,"Delta":126915780},{"NoteNumber":59,"Velocity":37,"Duration":159574,"SoundDuration":159574,"Delta":126915780},{"NoteNumber":62,"Velocity":34,"Duration":625000,"SoundDuration":625000,"Delta":127075355},{"NoteNumber":67,"Velocity":34,"Duration":625000,"SoundDuration":625000,"Delta":127075355},{"NoteNumber":71,"Velocity":41,"Duration":625000,"SoundDuration":625000,"Delta":127075355},{"NoteNumber":55,"Velocity":28,"Duration":625000,"SoundDuration":625000,"Delta":127075355},{"NoteNumber":59,"Velocity":34,"Duration":625000,"SoundDuration":625000,"Delta":127075355},{"NoteNumber":57,"Velocity":37,"Duration":581282,"SoundDuration":581282,"Delta":127713653},{"NoteNumber":66,"Velocity":37,"Duration":581282,"SoundDuration":581282,"Delta":127713653},{"NoteNumber":69,"Velocity":44,"Duration":581282,"SoundDuration":581282,"Delta":127713653},{"NoteNumber":38,"Velocity":30,"Duration":193760,"SoundDuration":193760,"Delta":127713653},{"NoteNumber":45,"Velocity":26,"Duration":193761,"SoundDuration":193761,"Delta":127907414},{"NoteNumber":38,"Velocity":27,"Duration":193760,"SoundDuration":193760,"Delta":128101175},{"NoteNumber":57,"Velocity":32,"Duration":435962,"SoundDuration":435962,"Delta":128294936},{"NoteNumber":64,"Velocity":32,"Duration":435962,"SoundDuration":435962,"Delta":128294936},{"NoteNumber":67,"Velocity":38,"Duration":435962,"SoundDuration":435962,"Delta":128294936},{"NoteNumber":33,"Velocity":30,"Duration":193760,"SoundDuration":193760,"Delta":128294936},{"NoteNumber":38,"Velocity":26,"Duration":193760,"SoundDuration":193760,"Delta":128488697},{"NoteNumber":33,"Velocity":26,"Duration":193761,"SoundDuration":193761,"Delta":128682458},{"NoteNumber":57,"Velocity":30,"Duration":145320,"SoundDuration":145320,"Delta":128730898},{"NoteNumber":62,"Velocity":30,"Duration":145320,"SoundDuration":145320,"Delta":128730898},{"NoteNumber":66,"Velocity":36,"Duration":145320,"SoundDuration":145320,"Delta":128730898},{"NoteNumber":57,"Velocity":32,"Duration":581282,"SoundDuration":581282,"Delta":128876219},{"NoteNumber":62,"Velocity":32,"Duration":581282,"SoundDuration":581282,"Delta":128876219},{"NoteNumber":66,"Velocity":38,"Duration":581282,"SoundDuration":581282,"Delta":128876219},{"NoteNumber":38,"Velocity":30,"Duration":193760,"SoundDuration":193760,"Delta":128876219},{"NoteNumber":45,"Velocity":26,"Duration":193760,"SoundDuration":193760,"Delta":129069980},{"NoteNumber":38,"Velocity":26,"Duration":193760,"SoundDuration":193760,"Delta":129263741},{"NoteNumber":66,"Velocity":37,"Duration":435962,"SoundDuration":435962,"Delta":129457502},{"NoteNumber":74,"Velocity":44,"Duration":435962,"SoundDuration":435962,"Delta":129457502},{"NoteNumber":33,"Velocity":32,"Duration":193760,"SoundDuration":193760,"Delta":129457502},{"NoteNumber":38,"Velocity":27,"Duration":193760,"SoundDuration":193760,"Delta":129651263},{"NoteNumber":33,"Velocity":27,"Duration":193761,"SoundDuration":193761,"Delta":129845024},{"NoteNumber":67,"Velocity":35,"Duration":145320,"SoundDuration":145320,"Delta":129893464},{"NoteNumber":76,"Velocity":41,"Duration":145320,"SoundDuration":145320,"Delta":129893464},{"NoteNumber":66,"Velocity":40,"Duration":581282,"SoundDuration":581282,"Delta":130038785},{"NoteNumber":74,"Velocity":48,"Duration":581282,"SoundDuration":581282,"Delta":130038785},{"NoteNumber":38,"Velocity":33,"Duration":193760,"SoundDuration":193760,"Delta":130038785},{"NoteNumber":45,"Velocity":29,"Duration":193760,"SoundDuration":193760,"Delta":130232546},{"NoteNumber":38,"Velocity":29,"Duration":193760,"SoundDuration":193760,"Delta":130426307},{"NoteNumber":69,"Velocity":37,"Duration":290641,"SoundDuration":290641,"Delta":130620068},{"NoteNumber":76,"Velocity":44,"Duration":290641,"SoundDuration":290641,"Delta":130620068},{"NoteNumber":33,"Velocity":34,"Duration":193760,"SoundDuration":193760,"Delta":130620068},{"NoteNumber":37,"Velocity":29,"Duration":193761,"SoundDuration":193761,"Delta":130813829},{"NoteNumber":33,"Velocity":29,"Duration":193760,"SoundDuration":193760,"Delta":131007590},{"NoteNumber":57,"Velocity":47,"Duration":569963,"SoundDuration":569963,"Delta":131201351},{"NoteNumber":67,"Velocity":47,"Duration":569963,"SoundDuration":569963,"Delta":131201351},{"NoteNumber":71,"Velocity":56,"Duration":569963,"SoundDuration":569963,"Delta":131201351},{"NoteNumber":37,"Velocity":30,"Duration":189987,"SoundDuration":189987,"Delta":131201351},{"NoteNumber":45,"Velocity":27,"Duration":189987,"SoundDuration":189987,"Delta":131391339},{"NoteNumber":37,"Velocity":27,"Duration":189987,"SoundDuration":189987,"Delta":131581326},{"NoteNumber":57,"Velocity":40,"Duration":427472,"SoundDuration":427472,"Delta":131771314},{"NoteNumber":66,"Velocity":40,"Duration":427472,"SoundDuration":427472,"Delta":131771314},{"NoteNumber":69,"Velocity":48,"Duration":427472,"SoundDuration":427472,"Delta":131771314},{"NoteNumber":33,"Velocity":30,"Duration":189987,"SoundDuration":189987,"Delta":131771314},{"NoteNumber":37,"Velocity":27,"Duration":189987,"SoundDuration":189987,"Delta":131961302},{"NoteNumber":33,"Velocity":27,"Duration":189987,"SoundDuration":189987,"Delta":132151289},{"NoteNumber":57,"Velocity":32,"Duration":142490,"SoundDuration":142490,"Delta":132198786},{"NoteNumber":64,"Velocity":32,"Duration":142490,"SoundDuration":142490,"Delta":132198786},{"NoteNumber":67,"Velocity":38,"Duration":142490,"SoundDuration":142490,"Delta":132198786},{"NoteNumber":57,"Velocity":35,"Duration":597253,"SoundDuration":597253,"Delta":132341277},{"NoteNumber":64,"Velocity":35,"Duration":597253,"SoundDuration":597253,"Delta":132341277},{"NoteNumber":67,"Velocity":42,"Duration":597253,"SoundDuration":597253,"Delta":132341277},{"NoteNumber":37,"Velocity":33,"Duration":189987,"SoundDuration":189987,"Delta":132341277},{"NoteNumber":45,"Velocity":29,"Duration":199084,"SoundDuration":199084,"Delta":132531265},{"NoteNumber":37,"Velocity":29,"Duration":208181,"SoundDuration":208181,"Delta":132730349},{"NoteNumber":69,"Velocity":42,"Duration":433735,"SoundDuration":433735,"Delta":132938531},{"NoteNumber":76,"Velocity":50,"Duration":433735,"SoundDuration":433735,"Delta":132938531},{"NoteNumber":33,"Velocity":34,"Duration":193904,"SoundDuration":193904,"Delta":132938531},{"NoteNumber":37,"Velocity":30,"Duration":191865,"SoundDuration":191865,"Delta":133132435},{"NoteNumber":33,"Velocity":30,"Duration":191864,"SoundDuration":191864,"Delta":133324300},{"NoteNumber":74,"Velocity":39,"Duration":143898,"SoundDuration":143898,"Delta":133372267},{"NoteNumber":78,"Velocity":47,"Duration":143898,"SoundDuration":143898,"Delta":133372267},{"NoteNumber":69,"Velocity":44,"Duration":575595,"SoundDuration":575595,"Delta":133516165},{"NoteNumber":76,"Velocity":52,"Duration":575595,"SoundDuration":575595,"Delta":133516165},{"NoteNumber":37,"Velocity":35,"Duration":191865,"SoundDuration":191865,"Delta":133516165},{"NoteNumber":45,"Velocity":30,"Duration":191865,"SoundDuration":191865,"Delta":133708030},{"NoteNumber":37,"Velocity":30,"Duration":191865,"SoundDuration":191865,"Delta":133899895},{"NoteNumber":74,"Velocity":41,"Duration":287797,"SoundDuration":287797,"Delta":134091760},{"NoteNumber":78,"Velocity":49,"Duration":287797,"SoundDuration":287797,"Delta":134091760},{"NoteNumber":33,"Velocity":35,"Duration":191864,"SoundDuration":191864,"Delta":134091760},{"NoteNumber":38,"Velocity":30,"Duration":196810,"SoundDuration":196810,"Delta":134283625},{"NoteNumber":33,"Velocity":30,"Duration":201755,"SoundDuration":201755,"Delta":134480436},{"NoteNumber":66,"Velocity":56,"Duration":581283,"SoundDuration":581283,"Delta":134682191},{"NoteNumber":74,"Velocity":67,"Duration":581283,"SoundDuration":581283,"Delta":134682191},{"NoteNumber":38,"Velocity":34,"Duration":193760,"SoundDuration":193760,"Delta":134682191},{"NoteNumber":45,"Velocity":29,"Duration":193760,"SoundDuration":193760,"Delta":134875952},{"NoteNumber":38,"Velocity":31,"Duration":193761,"SoundDuration":193761,"Delta":135069713},{"NoteNumber":69,"Velocity":38,"Duration":296501,"SoundDuration":296501,"Delta":135263474},{"NoteNumber":73,"Velocity":45,"Duration":296501,"SoundDuration":296501,"Delta":135263474},{"NoteNumber":33,"Velocity":34,"Duration":197667,"SoundDuration":197667,"Delta":135263474},{"NoteNumber":38,"Velocity":29,"Duration":201830,"SoundDuration":201830,"Delta":135461142},{"NoteNumber":67,"Velocity":38,"Duration":308991,"SoundDuration":308991,"Delta":135559975},{"NoteNumber":71,"Velocity":45,"Duration":308991,"SoundDuration":308991,"Delta":135559975},{"NoteNumber":33,"Velocity":29,"Duration":205994,"SoundDuration":205994,"Delta":135662973},{"NoteNumber":57,"Velocity":48,"Duration":599041,"SoundDuration":599041,"Delta":135868967},{"NoteNumber":66,"Velocity":48,"Duration":599041,"SoundDuration":599041,"Delta":135868967},{"NoteNumber":69,"Velocity":57,"Duration":599041,"SoundDuration":599041,"Delta":135868967},{"NoteNumber":38,"Velocity":39,"Duration":199680,"SoundDuration":199680,"Delta":135868967},{"NoteNumber":45,"Velocity":34,"Duration":199680,"SoundDuration":199680,"Delta":136068648},{"NoteNumber":38,"Velocity":34,"Duration":199680,"SoundDuration":199680,"Delta":136268328},{"NoteNumber":57,"Velocity":38,"Duration":296501,"SoundDuration":296501,"Delta":136468009},{"NoteNumber":64,"Velocity":38,"Duration":296501,"SoundDuration":296501,"Delta":136468009},{"NoteNumber":67,"Velocity":45,"Duration":296501,"SoundDuration":296501,"Delta":136468009},{"NoteNumber":33,"Velocity":36,"Duration":197667,"SoundDuration":197667,"Delta":136468009},{"NoteNumber":38,"Velocity":31,"Duration":201830,"SoundDuration":201830,"Delta":136665677},{"NoteNumber":57,"Velocity":38,"Duration":308991,"SoundDuration":308991,"Delta":136764510},{"NoteNumber":62,"Velocity":38,"Duration":308991,"SoundDuration":308991,"Delta":136764510},{"NoteNumber":66,"Velocity":45,"Duration":308991,"SoundDuration":308991,"Delta":136764510},{"NoteNumber":33,"Velocity":31,"Duration":205994,"SoundDuration":205994,"Delta":136867508},{"NoteNumber":57,"Velocity":49,"Duration":605266,"SoundDuration":605266,"Delta":137073502},{"NoteNumber":67,"Velocity":49,"Duration":605266,"SoundDuration":605266,"Delta":137073502},{"NoteNumber":71,"Velocity":58,"Duration":605266,"SoundDuration":605266,"Delta":137073502},{"NoteNumber":37,"Velocity":37,"Duration":201755,"SoundDuration":201755,"Delta":137073502},{"NoteNumber":45,"Velocity":33,"Duration":201755,"SoundDuration":201755,"Delta":137275257},{"NoteNumber":37,"Velocity":33,"Duration":201755,"SoundDuration":201755,"Delta":137477013},{"NoteNumber":57,"Velocity":42,"Duration":308991,"SoundDuration":308991,"Delta":137678768},{"NoteNumber":66,"Velocity":42,"Duration":308991,"SoundDuration":308991,"Delta":137678768},{"NoteNumber":69,"Velocity":50,"Duration":308991,"SoundDuration":308991,"Delta":137678768},{"NoteNumber":33,"Velocity":35,"Duration":205994,"SoundDuration":205994,"Delta":137678768},{"NoteNumber":37,"Velocity":31,"Duration":205994,"SoundDuration":205994,"Delta":137884762},{"NoteNumber":57,"Velocity":41,"Duration":308991,"SoundDuration":308991,"Delta":137987759},{"NoteNumber":64,"Velocity":41,"Duration":308991,"SoundDuration":308991,"Delta":137987759},{"NoteNumber":67,"Velocity":49,"Duration":308991,"SoundDuration":308991,"Delta":137987759},{"NoteNumber":33,"Velocity":30,"Duration":205994,"SoundDuration":205994,"Delta":138090757},{"NoteNumber":62,"Velocity":44,"Duration":308991,"SoundDuration":308991,"Delta":138296751},{"NoteNumber":66,"Velocity":52,"Duration":308991,"SoundDuration":308991,"Delta":138296751},{"NoteNumber":38,"Velocity":36,"Duration":205994,"SoundDuration":205994,"Delta":138296751},{"NoteNumber":45,"Velocity":29,"Duration":205994,"SoundDuration":205994,"Delta":138502745},{"NoteNumber":57,"Velocity":40,"Duration":308991,"SoundDuration":308991,"Delta":138605742},{"NoteNumber":64,"Velocity":48,"Duration":308991,"SoundDuration":308991,"Delta":138605742},{"NoteNumber":38,"Velocity":31,"Duration":205994,"SoundDuration":205994,"Delta":138708740},{"NoteNumber":54,"Velocity":45,"Duration":1182445,"SoundDuration":1182445,"Delta":138914734},{"NoteNumber":62,"Velocity":53,"Duration":1182445,"SoundDuration":1182445,"Delta":138914734},{"NoteNumber":33,"Velocity":37,"Duration":195290,"SoundDuration":195290,"Delta":138914734},{"NoteNumber":38,"Velocity":30,"Duration":193760,"SoundDuration":193760,"Delta":139110024},{"NoteNumber":33,"Velocity":30,"Duration":193761,"SoundDuration":193761,"Delta":139303785},{"NoteNumber":38,"Velocity":36,"Duration":193760,"SoundDuration":193760,"Delta":139497546},{"NoteNumber":45,"Velocity":32,"Duration":199877,"SoundDuration":199877,"Delta":139691307},{"NoteNumber":38,"Velocity":32,"Duration":205994,"SoundDuration":205994,"Delta":139891185},{"NoteNumber":57,"Velocity":42,"Duration":581283,"SoundDuration":581283,"Delta":140097179},{"NoteNumber":66,"Velocity":42,"Duration":581283,"SoundDuration":581283,"Delta":140097179},{"NoteNumber":69,"Velocity":50,"Duration":581283,"SoundDuration":581283,"Delta":140097179},{"NoteNumber":33,"Velocity":42,"Duration":193760,"SoundDuration":193760,"Delta":140097179},{"NoteNumber":38,"Velocity":39,"Duration":193760,"SoundDuration":193760,"Delta":140290940},{"NoteNumber":33,"Velocity":39,"Duration":193761,"SoundDuration":193761,"Delta":140484701},{"NoteNumber":57,"Velocity":39,"Duration":435962,"SoundDuration":435962,"Delta":140678462},{"NoteNumber":64,"Velocity":39,"Duration":435962,"SoundDuration":435962,"Delta":140678462},{"NoteNumber":67,"Velocity":47,"Duration":435962,"SoundDuration":435962,"Delta":140678462},{"NoteNumber":35,"Velocity":43,"Duration":193760,"SoundDuration":193760,"Delta":140678462},{"NoteNumber":38,"Velocity":39,"Duration":193760,"SoundDuration":193760,"Delta":140872223},{"NoteNumber":36,"Velocity":40,"Duration":190127,"SoundDuration":190127,"Delta":141065984},{"NoteNumber":57,"Velocity":39,"Duration":145320,"SoundDuration":145320,"Delta":141114424},{"NoteNumber":62,"Velocity":39,"Duration":145320,"SoundDuration":145320,"Delta":141114424},{"NoteNumber":66,"Velocity":46,"Duration":145320,"SoundDuration":145320,"Delta":141114424},{"NoteNumber":57,"Velocity":40,"Duration":581283,"SoundDuration":581283,"Delta":141259745},{"NoteNumber":62,"Velocity":40,"Duration":581283,"SoundDuration":581283,"Delta":141259745},{"NoteNumber":66,"Velocity":48,"Duration":581283,"SoundDuration":581283,"Delta":141259745},{"NoteNumber":36,"Velocity":46,"Duration":193760,"SoundDuration":193760,"Delta":141259745},{"NoteNumber":38,"Velocity":42,"Duration":193760,"SoundDuration":193760,"Delta":141453506},{"NoteNumber":36,"Velocity":42,"Duration":193761,"SoundDuration":193761,"Delta":141647267},{"NoteNumber":57,"Velocity":48,"Duration":581282,"SoundDuration":581282,"Delta":141841028},{"NoteNumber":66,"Velocity":48,"Duration":581282,"SoundDuration":581282,"Delta":141841028},{"NoteNumber":69,"Velocity":57,"Duration":581282,"SoundDuration":581282,"Delta":141841028},{"NoteNumber":33,"Velocity":48,"Duration":193760,"SoundDuration":193760,"Delta":141841028},{"NoteNumber":38,"Velocity":43,"Duration":193760,"SoundDuration":193760,"Delta":142034789},{"NoteNumber":33,"Velocity":43,"Duration":193760,"SoundDuration":193760,"Delta":142228550},{"NoteNumber":57,"Velocity":45,"Duration":435962,"SoundDuration":435962,"Delta":142422311},{"NoteNumber":64,"Velocity":45,"Duration":435962,"SoundDuration":435962,"Delta":142422311},{"NoteNumber":67,"Velocity":54,"Duration":435962,"SoundDuration":435962,"Delta":142422311},{"NoteNumber":35,"Velocity":49,"Duration":193760,"SoundDuration":193760,"Delta":142422311},{"NoteNumber":38,"Velocity":44,"Duration":193760,"SoundDuration":193760,"Delta":142616072},{"NoteNumber":36,"Velocity":44,"Duration":193761,"SoundDuration":193761,"Delta":142809833},{"NoteNumber":57,"Velocity":45,"Duration":145320,"SoundDuration":145320,"Delta":142858273},{"NoteNumber":62,"Velocity":45,"Duration":145320,"SoundDuration":145320,"Delta":142858273},{"NoteNumber":66,"Velocity":45,"Duration":145320,"SoundDuration":145320,"Delta":142858273},{"NoteNumber":57,"Velocity":47,"Duration":606264,"SoundDuration":606264,"Delta":143003594},{"NoteNumber":62,"Velocity":47,"Duration":606264,"SoundDuration":606264,"Delta":143003594},{"NoteNumber":66,"Velocity":56,"Duration":606264,"SoundDuration":606264,"Delta":143003594},{"NoteNumber":36,"Velocity":54,"Duration":193760,"SoundDuration":193760,"Delta":143003594},{"NoteNumber":38,"Velocity":44,"Duration":202088,"SoundDuration":202088,"Delta":143197355},{"NoteNumber":36,"Velocity":46,"Duration":210415,"SoundDuration":210415,"Delta":143399443},{"NoteNumber":72,"Velocity":70,"Duration":581283,"SoundDuration":581283,"Delta":143609859},{"NoteNumber":62,"Velocity":59,"Duration":581283,"SoundDuration":581283,"Delta":143609859},{"NoteNumber":66,"Velocity":59,"Duration":581283,"SoundDuration":581283,"Delta":143609859},{"NoteNumber":33,"Velocity":57,"Duration":193760,"SoundDuration":193760,"Delta":143609859},{"NoteNumber":38,"Velocity":51,"Duration":193760,"SoundDuration":193760,"Delta":143803620},{"NoteNumber":33,"Velocity":51,"Duration":193761,"SoundDuration":193761,"Delta":143997381},{"NoteNumber":67,"Velocity":54,"Duration":435962,"SoundDuration":435962,"Delta":144191142},{"NoteNumber":62,"Velocity":54,"Duration":435962,"SoundDuration":435962,"Delta":144191142},{"NoteNumber":71,"Velocity":64,"Duration":435962,"SoundDuration":435962,"Delta":144191142},{"NoteNumber":35,"Velocity":64,"Duration":193760,"SoundDuration":193760,"Delta":144191142},{"NoteNumber":38,"Velocity":54,"Duration":193760,"SoundDuration":193760,"Delta":144384903},{"NoteNumber":36,"Velocity":54,"Duration":190127,"SoundDuration":190127,"Delta":144578664},{"NoteNumber":69,"Velocity":59,"Duration":145320,"SoundDuration":145320,"Delta":144627104},{"NoteNumber":62,"Velocity":50,"Duration":145320,"SoundDuration":145320,"Delta":144627104},{"NoteNumber":66,"Velocity":50,"Duration":145320,"SoundDuration":145320,"Delta":144627104},{"NoteNumber":69,"Velocity":61,"Duration":613221,"SoundDuration":613221,"Delta":144772425},{"NoteNumber":62,"Velocity":51,"Duration":613221,"SoundDuration":613221,"Delta":144772425},{"NoteNumber":66,"Velocity":51,"Duration":613221,"SoundDuration":613221,"Delta":144772425},{"NoteNumber":36,"Velocity":71,"Duration":193760,"SoundDuration":193760,"Delta":144772425},{"NoteNumber":38,"Velocity":55,"Duration":204407,"SoundDuration":204407,"Delta":144966186},{"NoteNumber":36,"Velocity":55,"Duration":215053,"SoundDuration":215053,"Delta":145170593},{"NoteNumber":62,"Velocity":62,"Duration":611558,"SoundDuration":611558,"Delta":145385647},{"NoteNumber":72,"Velocity":62,"Duration":611558,"SoundDuration":611558,"Delta":145385647},{"NoteNumber":76,"Velocity":74,"Duration":611558,"SoundDuration":611558,"Delta":145385647},{"NoteNumber":38,"Velocity":72,"Duration":203852,"SoundDuration":203852,"Delta":145385647},{"NoteNumber":50,"Velocity":62,"Duration":203852,"SoundDuration":203852,"Delta":145589500},{"NoteNumber":38,"Velocity":62,"Duration":203852,"SoundDuration":203852,"Delta":145793352},{"NoteNumber":62,"Velocity":59,"Duration":473435,"SoundDuration":473435,"Delta":145997205},{"NoteNumber":71,"Velocity":59,"Duration":473435,"SoundDuration":473435,"Delta":145997205},{"NoteNumber":74,"Velocity":70,"Duration":473435,"SoundDuration":473435,"Delta":145997205},{"NoteNumber":40,"Velocity":69,"Duration":210415,"SoundDuration":210415,"Delta":145997205},{"NoteNumber":50,"Velocity":57,"Duration":210415,"SoundDuration":210415,"Delta":146207621},{"NoteNumber":42,"Velocity":60,"Duration":210415,"SoundDuration":210415,"Delta":146418036},{"NoteNumber":62,"Velocity":56,"Duration":157811,"SoundDuration":157811,"Delta":146470640},{"NoteNumber":69,"Velocity":56,"Duration":157811,"SoundDuration":157811,"Delta":146470640},{"NoteNumber":72,"Velocity":67,"Duration":157811,"SoundDuration":157811,"Delta":146470640},{"NoteNumber":62,"Velocity":59,"Duration":631247,"SoundDuration":631247,"Delta":146628452},{"NoteNumber":72,"Velocity":70,"Duration":631247,"SoundDuration":631247,"Delta":146628452},{"NoteNumber":69,"Velocity":59,"Duration":631247,"SoundDuration":631247,"Delta":146628452},{"NoteNumber":42,"Velocity":66,"Duration":210415,"SoundDuration":210415,"Delta":146628452},{"NoteNumber":50,"Velocity":60,"Duration":210415,"SoundDuration":210415,"Delta":146838868},{"NoteNumber":42,"Velocity":60,"Duration":210415,"SoundDuration":210415,"Delta":147049283},{"NoteNumber":57,"Velocity":44,"Duration":617983,"SoundDuration":617983,"Delta":147259699},{"NoteNumber":62,"Velocity":44,"Duration":617983,"SoundDuration":617983,"Delta":147259699},{"NoteNumber":72,"Velocity":52,"Duration":617983,"SoundDuration":617983,"Delta":147259699},{"NoteNumber":42,"Velocity":43,"Duration":205994,"SoundDuration":205994,"Delta":147259699},{"NoteNumber":50,"Velocity":36,"Duration":205994,"SoundDuration":205994,"Delta":147465693},{"NoteNumber":42,"Velocity":37,"Duration":205994,"SoundDuration":205994,"Delta":147671688},{"NoteNumber":59,"Velocity":39,"Duration":463487,"SoundDuration":463487,"Delta":147877682},{"NoteNumber":62,"Velocity":39,"Duration":463487,"SoundDuration":463487,"Delta":147877682},{"NoteNumber":71,"Velocity":46,"Duration":463487,"SoundDuration":463487,"Delta":147877682},{"NoteNumber":50,"Velocity":37,"Duration":205994,"SoundDuration":205994,"Delta":147877682},{"NoteNumber":42,"Velocity":33,"Duration":205994,"SoundDuration":205994,"Delta":148083676},{"NoteNumber":50,"Velocity":33,"Duration":205994,"SoundDuration":205994,"Delta":148289671},{"NoteNumber":60,"Velocity":35,"Duration":154495,"SoundDuration":154495,"Delta":148341169},{"NoteNumber":62,"Velocity":35,"Duration":154495,"SoundDuration":154495,"Delta":148341169},{"NoteNumber":69,"Velocity":42,"Duration":154495,"SoundDuration":154495,"Delta":148341169},{"NoteNumber":60,"Velocity":35,"Duration":2286482,"SoundDuration":2286482,"Delta":148495665},{"NoteNumber":62,"Velocity":35,"Duration":2286482,"SoundDuration":2286482,"Delta":148495665},{"NoteNumber":69,"Velocity":42,"Duration":2286482,"SoundDuration":2286482,"Delta":148495665},{"NoteNumber":42,"Velocity":37,"Duration":197667,"SoundDuration":197667,"Delta":148495665},{"NoteNumber":50,"Velocity":31,"Duration":197667,"SoundDuration":197667,"Delta":148693333},{"NoteNumber":42,"Velocity":31,"Duration":197667,"SoundDuration":197667,"Delta":148891000},{"NoteNumber":50,"Velocity":35,"Duration":188164,"SoundDuration":188164,"Delta":149088668},{"NoteNumber":42,"Velocity":30,"Duration":188164,"SoundDuration":188164,"Delta":149276832},{"NoteNumber":50,"Velocity":30,"Duration":188164,"SoundDuration":188164,"Delta":149464997},{"NoteNumber":42,"Velocity":35,"Duration":188164,"SoundDuration":188164,"Delta":149653161},{"NoteNumber":50,"Velocity":30,"Duration":188164,"SoundDuration":188164,"Delta":149841325},{"NoteNumber":42,"Velocity":30,"Duration":188164,"SoundDuration":188164,"Delta":150029490},{"NoteNumber":50,"Velocity":35,"Duration":188164,"SoundDuration":188164,"Delta":150217654},{"NoteNumber":42,"Velocity":29,"Duration":188164,"SoundDuration":188164,"Delta":150405818},{"NoteNumber":50,"Velocity":29,"Duration":188164,"SoundDuration":188164,"Delta":150593983},{"NoteNumber":67,"Velocity":50,"Duration":180180,"SoundDuration":180180,"Delta":150782147},{"NoteNumber":46,"Velocity":45,"Duration":180180,"SoundDuration":180180,"Delta":150782147},{"NoteNumber":43,"Velocity":31,"Duration":1643760,"SoundDuration":1643760,"Delta":150782147},{"NoteNumber":62,"Velocity":40,"Duration":180180,"SoundDuration":180180,"Delta":150962327},{"NoteNumber":50,"Velocity":36,"Duration":180180,"SoundDuration":180180,"Delta":150962327},{"NoteNumber":58,"Velocity":34,"Duration":180180,"SoundDuration":180180,"Delta":151142508},{"NoteNumber":55,"Velocity":31,"Duration":180180,"SoundDuration":180180,"Delta":151142508},{"NoteNumber":67,"Velocity":47,"Duration":180180,"SoundDuration":180180,"Delta":151322688},{"NoteNumber":46,"Velocity":42,"Duration":180180,"SoundDuration":180180,"Delta":151322688},{"NoteNumber":62,"Velocity":37,"Duration":180180,"SoundDuration":180180,"Delta":151502868},{"NoteNumber":50,"Velocity":33,"Duration":180180,"SoundDuration":180180,"Delta":151502868},{"NoteNumber":58,"Velocity":32,"Duration":180180,"SoundDuration":180180,"Delta":151683049},{"NoteNumber":55,"Velocity":27,"Duration":180180,"SoundDuration":180180,"Delta":151683049},{"NoteNumber":66,"Velocity":47,"Duration":185185,"SoundDuration":185185,"Delta":151863229},{"NoteNumber":45,"Velocity":41,"Duration":185185,"SoundDuration":185185,"Delta":151863229},{"NoteNumber":62,"Velocity":38,"Duration":185185,"SoundDuration":185185,"Delta":152048414},{"NoteNumber":50,"Velocity":33,"Duration":185185,"SoundDuration":185185,"Delta":152048414},{"NoteNumber":57,"Velocity":33,"Duration":192307,"SoundDuration":192307,"Delta":152233600},{"NoteNumber":54,"Velocity":27,"Duration":192307,"SoundDuration":192307,"Delta":152233600},{"NoteNumber":69,"Velocity":50,"Duration":180180,"SoundDuration":180180,"Delta":152425907},{"NoteNumber":48,"Velocity":45,"Duration":180180,"SoundDuration":180180,"Delta":152425907},{"NoteNumber":43,"Velocity":31,"Duration":1621622,"SoundDuration":1621622,"Delta":152425907},{"NoteNumber":62,"Velocity":41,"Duration":180180,"SoundDuration":180180,"Delta":152606088},{"NoteNumber":50,"Velocity":36,"Duration":180180,"SoundDuration":180180,"Delta":152606088},{"NoteNumber":60,"Velocity":33,"Duration":180180,"SoundDuration":180180,"Delta":152786268},{"NoteNumber":57,"Velocity":29,"Duration":180180,"SoundDuration":180180,"Delta":152786268},{"NoteNumber":69,"Velocity":48,"Duration":180180,"SoundDuration":180180,"Delta":152966448},{"NoteNumber":48,"Velocity":43,"Duration":180180,"SoundDuration":180180,"Delta":152966448},{"NoteNumber":62,"Velocity":38,"Duration":180180,"SoundDuration":180180,"Delta":153146629},{"NoteNumber":50,"Velocity":33,"Duration":180180,"SoundDuration":180180,"Delta":153146629},{"NoteNumber":60,"Velocity":30,"Duration":180180,"SoundDuration":180180,"Delta":153326809},{"NoteNumber":57,"Velocity":28,"Duration":180180,"SoundDuration":180180,"Delta":153326809},{"NoteNumber":67,"Velocity":48,"Duration":180180,"SoundDuration":180180,"Delta":153506989},{"NoteNumber":46,"Velocity":43,"Duration":180180,"SoundDuration":180180,"Delta":153506989},{"NoteNumber":62,"Velocity":38,"Duration":180180,"SoundDuration":180180,"Delta":153687170},{"NoteNumber":50,"Velocity":33,"Duration":180180,"SoundDuration":180180,"Delta":153687170},{"NoteNumber":58,"Velocity":31,"Duration":180180,"SoundDuration":180180,"Delta":153867350},{"NoteNumber":55,"Velocity":28,"Duration":180180,"SoundDuration":180180,"Delta":153867350},{"NoteNumber":67,"Velocity":47,"Duration":180180,"SoundDuration":180180,"Delta":154047530},{"NoteNumber":46,"Velocity":42,"Duration":180180,"SoundDuration":180180,"Delta":154047530},{"NoteNumber":62,"Velocity":38,"Duration":188679,"SoundDuration":188679,"Delta":154227711},{"NoteNumber":50,"Velocity":33,"Duration":188679,"SoundDuration":188679,"Delta":154227711},{"NoteNumber":58,"Velocity":31,"Duration":194174,"SoundDuration":194174,"Delta":154416390},{"NoteNumber":55,"Velocity":28,"Duration":194174,"SoundDuration":194174,"Delta":154416390},{"NoteNumber":62,"Velocity":45,"Duration":297471,"SoundDuration":297471,"Delta":154610565},{"NoteNumber":66,"Velocity":45,"Duration":297471,"SoundDuration":297471,"Delta":154610565},{"NoteNumber":69,"Velocity":53,"Duration":297471,"SoundDuration":297471,"Delta":154610565},{"NoteNumber":50,"Velocity":39,"Duration":297471,"SoundDuration":297471,"Delta":154610565},{"NoteNumber":54,"Velocity":39,"Duration":297471,"SoundDuration":297471,"Delta":154610565},{"NoteNumber":57,"Velocity":39,"Duration":297471,"SoundDuration":297471,"Delta":154610565},{"NoteNumber":62,"Velocity":47,"Duration":322511,"SoundDuration":322511,"Delta":154908036},{"NoteNumber":67,"Velocity":47,"Duration":322511,"SoundDuration":322511,"Delta":154908036},{"NoteNumber":70,"Velocity":56,"Duration":322511,"SoundDuration":322511,"Delta":154908036},{"NoteNumber":50,"Velocity":41,"Duration":322511,"SoundDuration":322511,"Delta":154908036},{"NoteNumber":55,"Velocity":41,"Duration":322511,"SoundDuration":322511,"Delta":154908036},{"NoteNumber":58,"Velocity":49,"Duration":322511,"SoundDuration":322511,"Delta":154908036},{"NoteNumber":62,"Velocity":49,"Duration":450585,"SoundDuration":450585,"Delta":155230548},{"NoteNumber":69,"Velocity":49,"Duration":450585,"SoundDuration":450585,"Delta":155230548},{"NoteNumber":72,"Velocity":58,"Duration":450585,"SoundDuration":450585,"Delta":155230548},{"NoteNumber":50,"Velocity":44,"Duration":450585,"SoundDuration":450585,"Delta":155230548},{"NoteNumber":57,"Velocity":44,"Duration":450585,"SoundDuration":450585,"Delta":155230548},{"NoteNumber":60,"Velocity":52,"Duration":450585,"SoundDuration":450585,"Delta":155230548},{"NoteNumber":62,"Velocity":45,"Duration":150195,"SoundDuration":150195,"Delta":155681134},{"NoteNumber":67,"Velocity":45,"Duration":150195,"SoundDuration":150195,"Delta":155681134},{"NoteNumber":70,"Velocity":54,"Duration":150195,"SoundDuration":150195,"Delta":155681134},{"NoteNumber":50,"Velocity":39,"Duration":150195,"SoundDuration":150195,"Delta":155681134},{"NoteNumber":55,"Velocity":39,"Duration":150195,"SoundDuration":150195,"Delta":155681134},{"NoteNumber":58,"Velocity":47,"Duration":150195,"SoundDuration":150195,"Delta":155681134},{"NoteNumber":62,"Velocity":45,"Duration":626335,"SoundDuration":626335,"Delta":155831329},{"NoteNumber":67,"Velocity":45,"Duration":626335,"SoundDuration":626335,"Delta":155831329},{"NoteNumber":70,"Velocity":53,"Duration":626335,"SoundDuration":626335,"Delta":155831329},{"NoteNumber":50,"Velocity":38,"Duration":626335,"SoundDuration":626335,"Delta":155831329},{"NoteNumber":55,"Velocity":38,"Duration":626335,"SoundDuration":626335,"Delta":155831329},{"NoteNumber":58,"Velocity":45,"Duration":626335,"SoundDuration":626335,"Delta":155831329},{"NoteNumber":62,"Velocity":31,"Duration":333037,"SoundDuration":333037,"Delta":156457664},{"NoteNumber":66,"Velocity":31,"Duration":333037,"SoundDuration":333037,"Delta":156457664},{"NoteNumber":69,"Velocity":37,"Duration":333037,"SoundDuration":333037,"Delta":156457664},{"NoteNumber":50,"Velocity":27,"Duration":333037,"SoundDuration":333037,"Delta":156457664},{"NoteNumber":54,"Velocity":27,"Duration":333037,"SoundDuration":333037,"Delta":156457664},{"NoteNumber":57,"Velocity":32,"Duration":333037,"SoundDuration":333037,"Delta":156457664},{"NoteNumber":62,"Velocity":29,"Duration":319149,"SoundDuration":319149,"Delta":156790702},{"NoteNumber":64,"Velocity":29,"Duration":319149,"SoundDuration":319149,"Delta":156790702},{"NoteNumber":67,"Velocity":35,"Duration":319149,"SoundDuration":319149,"Delta":156790702},{"NoteNumber":50,"Velocity":26,"Duration":319149,"SoundDuration":319149,"Delta":156790702},{"NoteNumber":52,"Velocity":26,"Duration":319149,"SoundDuration":319149,"Delta":156790702},{"NoteNumber":55,"Velocity":31,"Duration":319149,"SoundDuration":319149,"Delta":156790702},{"NoteNumber":62,"Velocity":31,"Duration":638297,"SoundDuration":638297,"Delta":157109851},{"NoteNumber":66,"Velocity":31,"Duration":638297,"SoundDuration":638297,"Delta":157109851},{"NoteNumber":69,"Velocity":37,"Duration":638297,"SoundDuration":638297,"Delta":157109851},{"NoteNumber":50,"Velocity":28,"Duration":638297,"SoundDuration":638297,"Delta":157109851},{"NoteNumber":54,"Velocity":28,"Duration":638297,"SoundDuration":638297,"Delta":157109851},{"NoteNumber":57,"Velocity":33,"Duration":638297,"SoundDuration":638297,"Delta":157109851},{"NoteNumber":74,"Velocity":53,"Duration":1643760,"SoundDuration":1643760,"Delta":157748149},{"NoteNumber":67,"Velocity":50,"Duration":180180,"SoundDuration":180180,"Delta":157748149},{"NoteNumber":47,"Velocity":45,"Duration":180180,"SoundDuration":180180,"Delta":157748149},{"NoteNumber":43,"Velocity":31,"Duration":1643760,"SoundDuration":1643760,"Delta":157748149},{"NoteNumber":62,"Velocity":40,"Duration":180180,"SoundDuration":180180,"Delta":157928329},{"NoteNumber":50,"Velocity":36,"Duration":180180,"SoundDuration":180180,"Delta":157928329},{"NoteNumber":71,"Velocity":34,"Duration":180180,"SoundDuration":180180,"Delta":158108509},{"NoteNumber":55,"Velocity":31,"Duration":180180,"SoundDuration":180180,"Delta":158108509},{"NoteNumber":67,"Velocity":47,"Duration":180180,"SoundDuration":180180,"Delta":158288690},{"NoteNumber":47,"Velocity":42,"Duration":180180,"SoundDuration":180180,"Delta":158288690},{"NoteNumber":62,"Velocity":37,"Duration":180180,"SoundDuration":180180,"Delta":158468870},{"NoteNumber":50,"Velocity":33,"Duration":180180,"SoundDuration":180180,"Delta":158468870},{"NoteNumber":71,"Velocity":32,"Duration":180180,"SoundDuration":180180,"Delta":158649050},{"NoteNumber":55,"Velocity":27,"Duration":180180,"SoundDuration":180180,"Delta":158649050},{"NoteNumber":66,"Velocity":47,"Duration":185185,"SoundDuration":185185,"Delta":158829231},{"NoteNumber":45,"Velocity":41,"Duration":185185,"SoundDuration":185185,"Delta":158829231},{"NoteNumber":62,"Velocity":38,"Duration":185185,"SoundDuration":185185,"Delta":159014416},{"NoteNumber":50,"Velocity":33,"Duration":185185,"SoundDuration":185185,"Delta":159014416},{"NoteNumber":69,"Velocity":33,"Duration":192307,"SoundDuration":192307,"Delta":159199601},{"NoteNumber":54,"Velocity":27,"Duration":192307,"SoundDuration":192307,"Delta":159199601},{"NoteNumber":74,"Velocity":53,"Duration":1649472,"SoundDuration":1649472,"Delta":159391909},{"NoteNumber":69,"Velocity":50,"Duration":180180,"SoundDuration":180180,"Delta":159391909},{"NoteNumber":48,"Velocity":45,"Duration":180180,"SoundDuration":180180,"Delta":159391909},{"NoteNumber":43,"Velocity":31,"Duration":1649472,"SoundDuration":1649472,"Delta":159391909},{"NoteNumber":62,"Velocity":41,"Duration":180180,"SoundDuration":180180,"Delta":159572089},{"NoteNumber":50,"Velocity":36,"Duration":180180,"SoundDuration":180180,"Delta":159572089},{"NoteNumber":72,"Velocity":33,"Duration":180180,"SoundDuration":180180,"Delta":159752270},{"NoteNumber":57,"Velocity":29,"Duration":180180,"SoundDuration":180180,"Delta":159752270},{"NoteNumber":69,"Velocity":48,"Duration":180180,"SoundDuration":180180,"Delta":159932450},{"NoteNumber":48,"Velocity":43,"Duration":180180,"SoundDuration":180180,"Delta":159932450},{"NoteNumber":62,"Velocity":38,"Duration":180180,"SoundDuration":180180,"Delta":160112630},{"NoteNumber":50,"Velocity":33,"Duration":180180,"SoundDuration":180180,"Delta":160112630},{"NoteNumber":72,"Velocity":30,"Duration":180180,"SoundDuration":180180,"Delta":160292811},{"NoteNumber":57,"Velocity":28,"Duration":180180,"SoundDuration":180180,"Delta":160292811},{"NoteNumber":67,"Velocity":48,"Duration":185185,"SoundDuration":185185,"Delta":160472991},{"NoteNumber":47,"Velocity":43,"Duration":185185,"SoundDuration":185185,"Delta":160472991},{"NoteNumber":62,"Velocity":38,"Duration":185185,"SoundDuration":185185,"Delta":160658176},{"NoteNumber":50,"Velocity":33,"Duration":185185,"SoundDuration":185185,"Delta":160658176},{"NoteNumber":71,"Velocity":31,"Duration":198019,"SoundDuration":198019,"Delta":160843362},{"NoteNumber":55,"Velocity":28,"Duration":198019,"SoundDuration":198019,"Delta":160843362},{"NoteNumber":62,"Velocity":70,"Duration":288461,"SoundDuration":288461,"Delta":161041381},{"NoteNumber":50,"Velocity":46,"Duration":604251,"SoundDuration":604251,"Delta":161041381},{"NoteNumber":47,"Velocity":39,"Duration":604251,"SoundDuration":604251,"Delta":161041381},{"NoteNumber":43,"Velocity":39,"Duration":604251,"SoundDuration":604251,"Delta":161041381},{"NoteNumber":74,"Velocity":68,"Duration":315789,"SoundDuration":315789,"Delta":161329843},{"NoteNumber":64,"Velocity":56,"Duration":297471,"SoundDuration":297471,"Delta":161645632},{"NoteNumber":76,"Velocity":66,"Duration":297471,"SoundDuration":297471,"Delta":161645632},{"NoteNumber":43,"Velocity":46,"Duration":297471,"SoundDuration":297471,"Delta":161645632},{"NoteNumber":48,"Velocity":46,"Duration":297471,"SoundDuration":297471,"Delta":161645632},{"NoteNumber":52,"Velocity":55,"Duration":297471,"SoundDuration":297471,"Delta":161645632},{"NoteNumber":66,"Velocity":62,"Duration":333333,"SoundDuration":333333,"Delta":161943104},{"NoteNumber":78,"Velocity":74,"Duration":333333,"SoundDuration":333333,"Delta":161943104},{"NoteNumber":43,"Velocity":49,"Duration":333333,"SoundDuration":333333,"Delta":161943104},{"NoteNumber":45,"Velocity":49,"Duration":333333,"SoundDuration":333333,"Delta":161943104},{"NoteNumber":54,"Velocity":58,"Duration":333333,"SoundDuration":333333,"Delta":161943104},{"NoteNumber":67,"Velocity":70,"Duration":463917,"SoundDuration":463917,"Delta":162276437},{"NoteNumber":79,"Velocity":83,"Duration":463917,"SoundDuration":463917,"Delta":162276437},{"NoteNumber":43,"Velocity":57,"Duration":463917,"SoundDuration":463917,"Delta":162276437},{"NoteNumber":55,"Velocity":68,"Duration":463917,"SoundDuration":463917,"Delta":162276437},{"NoteNumber":47,"Velocity":57,"Duration":463917,"SoundDuration":463917,"Delta":162276437},{"NoteNumber":62,"Velocity":46,"Duration":154639,"SoundDuration":154639,"Delta":162740355},{"NoteNumber":67,"Velocity":46,"Duration":154639,"SoundDuration":154639,"Delta":162740355},{"NoteNumber":71,"Velocity":55,"Duration":154639,"SoundDuration":154639,"Delta":162740355},{"NoteNumber":50,"Velocity":41,"Duration":154639,"SoundDuration":154639,"Delta":162740355},{"NoteNumber":55,"Velocity":41,"Duration":154639,"SoundDuration":154639,"Delta":162740355},{"NoteNumber":59,"Velocity":49,"Duration":154639,"SoundDuration":154639,"Delta":162740355},{"NoteNumber":62,"Velocity":51,"Duration":635223,"SoundDuration":635223,"Delta":162894994},{"NoteNumber":71,"Velocity":51,"Duration":635223,"SoundDuration":635223,"Delta":162894994},{"NoteNumber":74,"Velocity":61,"Duration":635223,"SoundDuration":635223,"Delta":162894994},{"NoteNumber":50,"Velocity":45,"Duration":635223,"SoundDuration":635223,"Delta":162894994},{"NoteNumber":59,"Velocity":45,"Duration":635223,"SoundDuration":635223,"Delta":162894994},{"NoteNumber":62,"Velocity":42,"Duration":492611,"SoundDuration":492611,"Delta":163530218},{"NoteNumber":66,"Velocity":42,"Duration":492611,"SoundDuration":492611,"Delta":163530218},{"NoteNumber":72,"Velocity":50,"Duration":492611,"SoundDuration":492611,"Delta":163530218},{"NoteNumber":50,"Velocity":39,"Duration":492611,"SoundDuration":492611,"Delta":163530218},{"NoteNumber":57,"Velocity":39,"Duration":492611,"SoundDuration":492611,"Delta":163530218},{"NoteNumber":60,"Velocity":46,"Duration":492611,"SoundDuration":492611,"Delta":163530218},{"NoteNumber":62,"Velocity":37,"Duration":159574,"SoundDuration":159574,"Delta":164022830},{"NoteNumber":67,"Velocity":37,"Duration":159574,"SoundDuration":159574,"Delta":164022830},{"NoteNumber":71,"Velocity":44,"Duration":159574,"SoundDuration":159574,"Delta":164022830},{"NoteNumber":55,"Velocity":31,"Duration":159574,"SoundDuration":159574,"Delta":164022830},{"NoteNumber":59,"Velocity":37,"Duration":159574,"SoundDuration":159574,"Delta":164022830},{"NoteNumber":62,"Velocity":34,"Duration":638297,"SoundDuration":638297,"Delta":164182404},{"NoteNumber":67,"Velocity":34,"Duration":638297,"SoundDuration":638297,"Delta":164182404},{"NoteNumber":71,"Velocity":41,"Duration":638297,"SoundDuration":638297,"Delta":164182404},{"NoteNumber":55,"Velocity":28,"Duration":638297,"SoundDuration":638297,"Delta":164182404},{"NoteNumber":59,"Velocity":34,"Duration":638297,"SoundDuration":638297,"Delta":164182404},{"NoteNumber":57,"Velocity":37,"Duration":581283,"SoundDuration":581283,"Delta":164820702},{"NoteNumber":66,"Velocity":37,"Duration":581283,"SoundDuration":581283,"Delta":164820702},{"NoteNumber":69,"Velocity":44,"Duration":581283,"SoundDuration":581283,"Delta":164820702},{"NoteNumber":38,"Velocity":30,"Duration":193760,"SoundDuration":193760,"Delta":164820702},{"NoteNumber":45,"Velocity":26,"Duration":193760,"SoundDuration":193760,"Delta":165014463},{"NoteNumber":38,"Velocity":27,"Duration":193761,"SoundDuration":193761,"Delta":165208224},{"NoteNumber":57,"Velocity":32,"Duration":435962,"SoundDuration":435962,"Delta":165401985},{"NoteNumber":64,"Velocity":32,"Duration":435962,"SoundDuration":435962,"Delta":165401985},{"NoteNumber":67,"Velocity":38,"Duration":435962,"SoundDuration":435962,"Delta":165401985},{"NoteNumber":33,"Velocity":30,"Duration":193760,"SoundDuration":193760,"Delta":165401985},{"NoteNumber":38,"Velocity":26,"Duration":193760,"SoundDuration":193760,"Delta":165595746},{"NoteNumber":33,"Velocity":26,"Duration":193760,"SoundDuration":193760,"Delta":165789507},{"NoteNumber":57,"Velocity":30,"Duration":145320,"SoundDuration":145320,"Delta":165837948},{"NoteNumber":62,"Velocity":30,"Duration":145320,"SoundDuration":145320,"Delta":165837948},{"NoteNumber":66,"Velocity":36,"Duration":145320,"SoundDuration":145320,"Delta":165837948},{"NoteNumber":57,"Velocity":32,"Duration":581283,"SoundDuration":581283,"Delta":165983268},{"NoteNumber":62,"Velocity":32,"Duration":581283,"SoundDuration":581283,"Delta":165983268},{"NoteNumber":66,"Velocity":38,"Duration":581283,"SoundDuration":581283,"Delta":165983268},{"NoteNumber":38,"Velocity":30,"Duration":193760,"SoundDuration":193760,"Delta":165983268},{"NoteNumber":45,"Velocity":26,"Duration":193760,"SoundDuration":193760,"Delta":166177029},{"NoteNumber":38,"Velocity":26,"Duration":193761,"SoundDuration":193761,"Delta":166370790},{"NoteNumber":66,"Velocity":37,"Duration":435962,"SoundDuration":435962,"Delta":166564551},{"NoteNumber":74,"Velocity":44,"Duration":435962,"SoundDuration":435962,"Delta":166564551},{"NoteNumber":33,"Velocity":32,"Duration":193760,"SoundDuration":193760,"Delta":166564551},{"NoteNumber":38,"Velocity":27,"Duration":193760,"SoundDuration":193760,"Delta":166758312},{"NoteNumber":33,"Velocity":27,"Duration":193760,"SoundDuration":193760,"Delta":166952073},{"NoteNumber":67,"Velocity":35,"Duration":145320,"SoundDuration":145320,"Delta":167000514},{"NoteNumber":76,"Velocity":41,"Duration":145320,"SoundDuration":145320,"Delta":167000514},{"NoteNumber":66,"Velocity":40,"Duration":581283,"SoundDuration":581283,"Delta":167145834},{"NoteNumber":74,"Velocity":48,"Duration":581283,"SoundDuration":581283,"Delta":167145834},{"NoteNumber":38,"Velocity":33,"Duration":193760,"SoundDuration":193760,"Delta":167145834},{"NoteNumber":45,"Velocity":29,"Duration":193760,"SoundDuration":193760,"Delta":167339595},{"NoteNumber":38,"Velocity":29,"Duration":193761,"SoundDuration":193761,"Delta":167533356},{"NoteNumber":69,"Velocity":37,"Duration":290641,"SoundDuration":290641,"Delta":167727117},{"NoteNumber":76,"Velocity":44,"Duration":290641,"SoundDuration":290641,"Delta":167727117},{"NoteNumber":33,"Velocity":34,"Duration":193760,"SoundDuration":193760,"Delta":167727117},{"NoteNumber":37,"Velocity":29,"Duration":193760,"SoundDuration":193760,"Delta":167920878},{"NoteNumber":33,"Velocity":29,"Duration":193760,"SoundDuration":193760,"Delta":168114639},{"NoteNumber":57,"Velocity":46,"Duration":569963,"SoundDuration":569963,"Delta":168308400},{"NoteNumber":67,"Velocity":46,"Duration":569963,"SoundDuration":569963,"Delta":168308400},{"NoteNumber":71,"Velocity":55,"Duration":569963,"SoundDuration":569963,"Delta":168308400},{"NoteNumber":37,"Velocity":30,"Duration":189987,"SoundDuration":189987,"Delta":168308400},{"NoteNumber":45,"Velocity":27,"Duration":189987,"SoundDuration":189987,"Delta":168498388},{"NoteNumber":37,"Velocity":27,"Duration":189987,"SoundDuration":189987,"Delta":168688376},{"NoteNumber":57,"Velocity":39,"Duration":427472,"SoundDuration":427472,"Delta":168878363},{"NoteNumber":66,"Velocity":39,"Duration":427472,"SoundDuration":427472,"Delta":168878363},{"NoteNumber":69,"Velocity":47,"Duration":427472,"SoundDuration":427472,"Delta":168878363},{"NoteNumber":33,"Velocity":30,"Duration":189987,"SoundDuration":189987,"Delta":168878363},{"NoteNumber":37,"Velocity":27,"Duration":189987,"SoundDuration":189987,"Delta":169068351},{"NoteNumber":33,"Velocity":27,"Duration":189987,"SoundDuration":189987,"Delta":169258339},{"NoteNumber":57,"Velocity":32,"Duration":142490,"SoundDuration":142490,"Delta":169305836},{"NoteNumber":64,"Velocity":32,"Duration":142490,"SoundDuration":142490,"Delta":169305836},{"NoteNumber":67,"Velocity":38,"Duration":142490,"SoundDuration":142490,"Delta":169305836},{"NoteNumber":57,"Velocity":35,"Duration":597253,"SoundDuration":597253,"Delta":169448326},{"NoteNumber":64,"Velocity":35,"Duration":597253,"SoundDuration":597253,"Delta":169448326},{"NoteNumber":67,"Velocity":42,"Duration":597253,"SoundDuration":597253,"Delta":169448326},{"NoteNumber":37,"Velocity":33,"Duration":189987,"SoundDuration":189987,"Delta":169448326},{"NoteNumber":45,"Velocity":29,"Duration":199084,"SoundDuration":199084,"Delta":169638314},{"NoteNumber":37,"Velocity":29,"Duration":208181,"SoundDuration":208181,"Delta":169837399},{"NoteNumber":69,"Velocity":42,"Duration":433735,"SoundDuration":433735,"Delta":170045580},{"NoteNumber":76,"Velocity":50,"Duration":433735,"SoundDuration":433735,"Delta":170045580},{"NoteNumber":33,"Velocity":34,"Duration":193904,"SoundDuration":193904,"Delta":170045580},{"NoteNumber":37,"Velocity":30,"Duration":191865,"SoundDuration":191865,"Delta":170239485},{"NoteNumber":33,"Velocity":30,"Duration":191864,"SoundDuration":191864,"Delta":170431350},{"NoteNumber":74,"Velocity":39,"Duration":143898,"SoundDuration":143898,"Delta":170479316},{"NoteNumber":78,"Velocity":47,"Duration":143898,"SoundDuration":143898,"Delta":170479316},{"NoteNumber":69,"Velocity":44,"Duration":575595,"SoundDuration":575595,"Delta":170623215},{"NoteNumber":76,"Velocity":52,"Duration":575595,"SoundDuration":575595,"Delta":170623215},{"NoteNumber":37,"Velocity":35,"Duration":191865,"SoundDuration":191865,"Delta":170623215},{"NoteNumber":45,"Velocity":30,"Duration":191865,"SoundDuration":191865,"Delta":170815080},{"NoteNumber":37,"Velocity":30,"Duration":191865,"SoundDuration":191865,"Delta":171006945},{"NoteNumber":74,"Velocity":41,"Duration":287797,"SoundDuration":287797,"Delta":171198810},{"NoteNumber":78,"Velocity":49,"Duration":287797,"SoundDuration":287797,"Delta":171198810},{"NoteNumber":33,"Velocity":35,"Duration":191864,"SoundDuration":191864,"Delta":171198810},{"NoteNumber":38,"Velocity":30,"Duration":196810,"SoundDuration":196810,"Delta":171390675},{"NoteNumber":33,"Velocity":30,"Duration":201755,"SoundDuration":201755,"Delta":171587485},{"NoteNumber":66,"Velocity":51,"Duration":581283,"SoundDuration":581283,"Delta":171789241},{"NoteNumber":74,"Velocity":61,"Duration":581283,"SoundDuration":581283,"Delta":171789241},{"NoteNumber":38,"Velocity":34,"Duration":193760,"SoundDuration":193760,"Delta":171789241},{"NoteNumber":45,"Velocity":29,"Duration":193760,"SoundDuration":193760,"Delta":171983002},{"NoteNumber":38,"Velocity":31,"Duration":193761,"SoundDuration":193761,"Delta":172176763},{"NoteNumber":69,"Velocity":38,"Duration":296501,"SoundDuration":296501,"Delta":172370524},{"NoteNumber":73,"Velocity":45,"Duration":296501,"SoundDuration":296501,"Delta":172370524},{"NoteNumber":33,"Velocity":34,"Duration":197667,"SoundDuration":197667,"Delta":172370524},{"NoteNumber":38,"Velocity":29,"Duration":201830,"SoundDuration":201830,"Delta":172568191},{"NoteNumber":67,"Velocity":38,"Duration":308991,"SoundDuration":308991,"Delta":172667025},{"NoteNumber":71,"Velocity":45,"Duration":308991,"SoundDuration":308991,"Delta":172667025},{"NoteNumber":33,"Velocity":29,"Duration":205994,"SoundDuration":205994,"Delta":172770022},{"NoteNumber":57,"Velocity":48,"Duration":599041,"SoundDuration":599041,"Delta":172976017},{"NoteNumber":66,"Velocity":48,"Duration":599041,"SoundDuration":599041,"Delta":172976017},{"NoteNumber":69,"Velocity":57,"Duration":599041,"SoundDuration":599041,"Delta":172976017},{"NoteNumber":38,"Velocity":39,"Duration":199680,"SoundDuration":199680,"Delta":172976017},{"NoteNumber":45,"Velocity":34,"Duration":199680,"SoundDuration":199680,"Delta":173175697},{"NoteNumber":38,"Velocity":34,"Duration":199680,"SoundDuration":199680,"Delta":173375378},{"NoteNumber":57,"Velocity":38,"Duration":296501,"SoundDuration":296501,"Delta":173575059},{"NoteNumber":64,"Velocity":38,"Duration":296501,"SoundDuration":296501,"Delta":173575059},{"NoteNumber":67,"Velocity":45,"Duration":296501,"SoundDuration":296501,"Delta":173575059},{"NoteNumber":33,"Velocity":36,"Duration":197667,"SoundDuration":197667,"Delta":173575059},{"NoteNumber":38,"Velocity":31,"Duration":201830,"SoundDuration":201830,"Delta":173772726},{"NoteNumber":57,"Velocity":38,"Duration":308991,"SoundDuration":308991,"Delta":173871560},{"NoteNumber":62,"Velocity":38,"Duration":308991,"SoundDuration":308991,"Delta":173871560},{"NoteNumber":66,"Velocity":38,"Duration":308991,"SoundDuration":308991,"Delta":173871560},{"NoteNumber":33,"Velocity":31,"Duration":205994,"SoundDuration":205994,"Delta":173974557},{"NoteNumber":57,"Velocity":49,"Duration":605266,"SoundDuration":605266,"Delta":174180552},{"NoteNumber":67,"Velocity":49,"Duration":605266,"SoundDuration":605266,"Delta":174180552},{"NoteNumber":71,"Velocity":58,"Duration":605266,"SoundDuration":605266,"Delta":174180552},{"NoteNumber":37,"Velocity":37,"Duration":201755,"SoundDuration":201755,"Delta":174180552},{"NoteNumber":45,"Velocity":33,"Duration":201755,"SoundDuration":201755,"Delta":174382307},{"NoteNumber":37,"Velocity":33,"Duration":201755,"SoundDuration":201755,"Delta":174584062},{"NoteNumber":57,"Velocity":42,"Duration":308991,"SoundDuration":308991,"Delta":174785818},{"NoteNumber":66,"Velocity":42,"Duration":308991,"SoundDuration":308991,"Delta":174785818},{"NoteNumber":69,"Velocity":50,"Duration":308991,"SoundDuration":308991,"Delta":174785818},{"NoteNumber":33,"Velocity":35,"Duration":205994,"SoundDuration":205994,"Delta":174785818},{"NoteNumber":37,"Velocity":31,"Duration":205994,"SoundDuration":205994,"Delta":174991812},{"NoteNumber":57,"Velocity":41,"Duration":308991,"SoundDuration":308991,"Delta":175094809},{"NoteNumber":64,"Velocity":41,"Duration":308991,"SoundDuration":308991,"Delta":175094809},{"NoteNumber":67,"Velocity":49,"Duration":308991,"SoundDuration":308991,"Delta":175094809},{"NoteNumber":33,"Velocity":30,"Duration":205994,"SoundDuration":205994,"Delta":175197806},{"NoteNumber":62,"Velocity":44,"Duration":308991,"SoundDuration":308991,"Delta":175403801},{"NoteNumber":66,"Velocity":52,"Duration":308991,"SoundDuration":308991,"Delta":175403801},{"NoteNumber":38,"Velocity":36,"Duration":205994,"SoundDuration":205994,"Delta":175403801},{"NoteNumber":45,"Velocity":29,"Duration":205994,"SoundDuration":205994,"Delta":175609795},{"NoteNumber":57,"Velocity":40,"Duration":308991,"SoundDuration":308991,"Delta":175712792},{"NoteNumber":64,"Velocity":48,"Duration":308991,"SoundDuration":308991,"Delta":175712792},{"NoteNumber":38,"Velocity":31,"Duration":205994,"SoundDuration":205994,"Delta":175815789},{"NoteNumber":54,"Velocity":45,"Duration":1182445,"SoundDuration":1182445,"Delta":176021784},{"NoteNumber":62,"Velocity":53,"Duration":1182445,"SoundDuration":1182445,"Delta":176021784},{"NoteNumber":33,"Velocity":37,"Duration":195290,"SoundDuration":195290,"Delta":176021784},{"NoteNumber":38,"Velocity":30,"Duration":193760,"SoundDuration":193760,"Delta":176217074},{"NoteNumber":33,"Velocity":30,"Duration":193761,"SoundDuration":193761,"Delta":176410835},{"NoteNumber":38,"Velocity":36,"Duration":193760,"SoundDuration":193760,"Delta":176604596},{"NoteNumber":45,"Velocity":32,"Duration":199877,"SoundDuration":199877,"Delta":176798357},{"NoteNumber":38,"Velocity":32,"Duration":205994,"SoundDuration":205994,"Delta":176998234},{"NoteNumber":57,"Velocity":44,"Duration":581283,"SoundDuration":581283,"Delta":177204229},{"NoteNumber":66,"Velocity":44,"Duration":581283,"SoundDuration":581283,"Delta":177204229},{"NoteNumber":69,"Velocity":52,"Duration":581283,"SoundDuration":581283,"Delta":177204229},{"NoteNumber":33,"Velocity":42,"Duration":193760,"SoundDuration":193760,"Delta":177204229},{"NoteNumber":38,"Velocity":39,"Duration":193760,"SoundDuration":193760,"Delta":177397990},{"NoteNumber":33,"Velocity":39,"Duration":193761,"SoundDuration":193761,"Delta":177591751},{"NoteNumber":57,"Velocity":41,"Duration":435962,"SoundDuration":435962,"Delta":177785512},{"NoteNumber":64,"Velocity":41,"Duration":435962,"SoundDuration":435962,"Delta":177785512},{"NoteNumber":67,"Velocity":49,"Duration":435962,"SoundDuration":435962,"Delta":177785512},{"NoteNumber":35,"Velocity":43,"Duration":193760,"SoundDuration":193760,"Delta":177785512},{"NoteNumber":38,"Velocity":39,"Duration":193760,"SoundDuration":193760,"Delta":177979273},{"NoteNumber":36,"Velocity":40,"Duration":193760,"SoundDuration":193760,"Delta":178173034},{"NoteNumber":57,"Velocity":39,"Duration":145320,"SoundDuration":145320,"Delta":178221474},{"NoteNumber":62,"Velocity":39,"Duration":145320,"SoundDuration":145320,"Delta":178221474},{"NoteNumber":66,"Velocity":46,"Duration":145320,"SoundDuration":145320,"Delta":178221474},{"NoteNumber":57,"Velocity":40,"Duration":581283,"SoundDuration":581283,"Delta":178366795},{"NoteNumber":62,"Velocity":40,"Duration":581283,"SoundDuration":581283,"Delta":178366795},{"NoteNumber":66,"Velocity":48,"Duration":581283,"SoundDuration":581283,"Delta":178366795},{"NoteNumber":36,"Velocity":46,"Duration":193760,"SoundDuration":193760,"Delta":178366795},{"NoteNumber":38,"Velocity":42,"Duration":193760,"SoundDuration":193760,"Delta":178560556},{"NoteNumber":36,"Velocity":42,"Duration":193761,"SoundDuration":193761,"Delta":178754317},{"NoteNumber":57,"Velocity":48,"Duration":581282,"SoundDuration":581282,"Delta":178948078},{"NoteNumber":66,"Velocity":57,"Duration":581282,"SoundDuration":581282,"Delta":178948078},{"NoteNumber":69,"Velocity":57,"Duration":581282,"SoundDuration":581282,"Delta":178948078},{"NoteNumber":33,"Velocity":48,"Duration":193760,"SoundDuration":193760,"Delta":178948078},{"NoteNumber":38,"Velocity":43,"Duration":193760,"SoundDuration":193760,"Delta":179141839},{"NoteNumber":33,"Velocity":43,"Duration":193760,"SoundDuration":193760,"Delta":179335600},{"NoteNumber":57,"Velocity":45,"Duration":435962,"SoundDuration":435962,"Delta":179529361},{"NoteNumber":64,"Velocity":45,"Duration":435962,"SoundDuration":435962,"Delta":179529361},{"NoteNumber":67,"Velocity":54,"Duration":435962,"SoundDuration":435962,"Delta":179529361},{"NoteNumber":35,"Velocity":49,"Duration":193760,"SoundDuration":193760,"Delta":179529361},{"NoteNumber":38,"Velocity":44,"Duration":193760,"SoundDuration":193760,"Delta":179723122},{"NoteNumber":36,"Velocity":44,"Duration":193761,"SoundDuration":193761,"Delta":179916883},{"NoteNumber":57,"Velocity":45,"Duration":145320,"SoundDuration":145320,"Delta":179965323},{"NoteNumber":62,"Velocity":45,"Duration":145320,"SoundDuration":145320,"Delta":179965323},{"NoteNumber":66,"Velocity":53,"Duration":145320,"SoundDuration":145320,"Delta":179965323},{"NoteNumber":57,"Velocity":47,"Duration":606264,"SoundDuration":606264,"Delta":180110644},{"NoteNumber":62,"Velocity":47,"Duration":606264,"SoundDuration":606264,"Delta":180110644},{"NoteNumber":66,"Velocity":56,"Duration":606264,"SoundDuration":606264,"Delta":180110644},{"NoteNumber":36,"Velocity":54,"Duration":193760,"SoundDuration":193760,"Delta":180110644},{"NoteNumber":38,"Velocity":44,"Duration":202088,"SoundDuration":202088,"Delta":180304405},{"NoteNumber":36,"Velocity":46,"Duration":210415,"SoundDuration":210415,"Delta":180506493},{"NoteNumber":72,"Velocity":70,"Duration":581283,"SoundDuration":581283,"Delta":180716909},{"NoteNumber":62,"Velocity":59,"Duration":581283,"SoundDuration":581283,"Delta":180716909},{"NoteNumber":66,"Velocity":59,"Duration":581283,"SoundDuration":581283,"Delta":180716909},{"NoteNumber":33,"Velocity":57,"Duration":193760,"SoundDuration":193760,"Delta":180716909},{"NoteNumber":38,"Velocity":51,"Duration":193760,"SoundDuration":193760,"Delta":180910670},{"NoteNumber":33,"Velocity":51,"Duration":193761,"SoundDuration":193761,"Delta":181104431},{"NoteNumber":67,"Velocity":66,"Duration":435962,"SoundDuration":435962,"Delta":181298192},{"NoteNumber":62,"Velocity":56,"Duration":435962,"SoundDuration":435962,"Delta":181298192},{"NoteNumber":71,"Velocity":66,"Duration":435962,"SoundDuration":435962,"Delta":181298192},{"NoteNumber":35,"Velocity":64,"Duration":193760,"SoundDuration":193760,"Delta":181298192},{"NoteNumber":38,"Velocity":54,"Duration":193760,"SoundDuration":193760,"Delta":181491953},{"NoteNumber":36,"Velocity":54,"Duration":193760,"SoundDuration":193760,"Delta":181685714},{"NoteNumber":69,"Velocity":59,"Duration":145320,"SoundDuration":145320,"Delta":181734154},{"NoteNumber":62,"Velocity":50,"Duration":145320,"SoundDuration":145320,"Delta":181734154},{"NoteNumber":66,"Velocity":50,"Duration":145320,"SoundDuration":145320,"Delta":181734154},{"NoteNumber":69,"Velocity":61,"Duration":613221,"SoundDuration":613221,"Delta":181879475},{"NoteNumber":62,"Velocity":51,"Duration":613221,"SoundDuration":613221,"Delta":181879475},{"NoteNumber":66,"Velocity":51,"Duration":613221,"SoundDuration":613221,"Delta":181879475},{"NoteNumber":36,"Velocity":71,"Duration":193760,"SoundDuration":193760,"Delta":181879475},{"NoteNumber":38,"Velocity":55,"Duration":204407,"SoundDuration":204407,"Delta":182073236},{"NoteNumber":36,"Velocity":55,"Duration":215053,"SoundDuration":215053,"Delta":182277643},{"NoteNumber":62,"Velocity":61,"Duration":611558,"SoundDuration":611558,"Delta":182492697},{"NoteNumber":72,"Velocity":61,"Duration":611558,"SoundDuration":611558,"Delta":182492697},{"NoteNumber":76,"Velocity":72,"Duration":611558,"SoundDuration":611558,"Delta":182492697},{"NoteNumber":38,"Velocity":72,"Duration":203852,"SoundDuration":203852,"Delta":182492697},{"NoteNumber":50,"Velocity":62,"Duration":203852,"SoundDuration":203852,"Delta":182696549},{"NoteNumber":38,"Velocity":62,"Duration":203852,"SoundDuration":203852,"Delta":182900402},{"NoteNumber":62,"Velocity":59,"Duration":473435,"SoundDuration":473435,"Delta":183104255},{"NoteNumber":71,"Velocity":59,"Duration":473435,"SoundDuration":473435,"Delta":183104255},{"NoteNumber":74,"Velocity":70,"Duration":473435,"SoundDuration":473435,"Delta":183104255},{"NoteNumber":40,"Velocity":69,"Duration":210415,"SoundDuration":210415,"Delta":183104255},{"NoteNumber":50,"Velocity":57,"Duration":210415,"SoundDuration":210415,"Delta":183314670},{"NoteNumber":42,"Velocity":60,"Duration":210415,"SoundDuration":210415,"Delta":183525086},{"NoteNumber":62,"Velocity":56,"Duration":157811,"SoundDuration":157811,"Delta":183577690},{"NoteNumber":69,"Velocity":56,"Duration":157811,"SoundDuration":157811,"Delta":183577690},{"NoteNumber":72,"Velocity":67,"Duration":157811,"SoundDuration":157811,"Delta":183577690},{"NoteNumber":62,"Velocity":59,"Duration":631247,"SoundDuration":631247,"Delta":183735502},{"NoteNumber":72,"Velocity":70,"Duration":631247,"SoundDuration":631247,"Delta":183735502},{"NoteNumber":69,"Velocity":59,"Duration":631247,"SoundDuration":631247,"Delta":183735502},{"NoteNumber":42,"Velocity":66,"Duration":210415,"SoundDuration":210415,"Delta":183735502},{"NoteNumber":50,"Velocity":60,"Duration":210415,"SoundDuration":210415,"Delta":183945917},{"NoteNumber":42,"Velocity":60,"Duration":202525,"SoundDuration":202525,"Delta":184156333},{"NoteNumber":57,"Velocity":44,"Duration":617983,"SoundDuration":617983,"Delta":184366749},{"NoteNumber":62,"Velocity":44,"Duration":617983,"SoundDuration":617983,"Delta":184366749},{"NoteNumber":72,"Velocity":52,"Duration":617983,"SoundDuration":617983,"Delta":184366749},{"NoteNumber":42,"Velocity":43,"Duration":205994,"SoundDuration":205994,"Delta":184366749},{"NoteNumber":50,"Velocity":36,"Duration":205994,"SoundDuration":205994,"Delta":184572743},{"NoteNumber":42,"Velocity":37,"Duration":205994,"SoundDuration":205994,"Delta":184778737},{"NoteNumber":59,"Velocity":39,"Duration":463487,"SoundDuration":463487,"Delta":184984732},{"NoteNumber":62,"Velocity":39,"Duration":463487,"SoundDuration":463487,"Delta":184984732},{"NoteNumber":71,"Velocity":46,"Duration":463487,"SoundDuration":463487,"Delta":184984732},{"NoteNumber":50,"Velocity":37,"Duration":205994,"SoundDuration":205994,"Delta":184984732},{"NoteNumber":42,"Velocity":33,"Duration":205994,"SoundDuration":205994,"Delta":185190726},{"NoteNumber":50,"Velocity":33,"Duration":205994,"SoundDuration":205994,"Delta":185396720},{"NoteNumber":60,"Velocity":35,"Duration":154495,"SoundDuration":154495,"Delta":185448219},{"NoteNumber":62,"Velocity":35,"Duration":154495,"SoundDuration":154495,"Delta":185448219},{"NoteNumber":69,"Velocity":42,"Duration":154495,"SoundDuration":154495,"Delta":185448219},{"NoteNumber":60,"Velocity":35,"Duration":2286482,"SoundDuration":2286482,"Delta":185602715},{"NoteNumber":62,"Velocity":35,"Duration":2286482,"SoundDuration":2286482,"Delta":185602715},{"NoteNumber":69,"Velocity":42,"Duration":2286482,"SoundDuration":2286482,"Delta":185602715},{"NoteNumber":42,"Velocity":37,"Duration":197667,"SoundDuration":197667,"Delta":185602715},{"NoteNumber":50,"Velocity":31,"Duration":197667,"SoundDuration":197667,"Delta":185800382},{"NoteNumber":42,"Velocity":31,"Duration":197667,"SoundDuration":197667,"Delta":185998050},{"NoteNumber":50,"Velocity":35,"Duration":188164,"SoundDuration":188164,"Delta":186195718},{"NoteNumber":42,"Velocity":30,"Duration":188164,"SoundDuration":188164,"Delta":186383882},{"NoteNumber":50,"Velocity":30,"Duration":188164,"SoundDuration":188164,"Delta":186572046},{"NoteNumber":42,"Velocity":35,"Duration":188164,"SoundDuration":188164,"Delta":186760211},{"NoteNumber":50,"Velocity":30,"Duration":188164,"SoundDuration":188164,"Delta":186948375},{"NoteNumber":42,"Velocity":30,"Duration":188164,"SoundDuration":188164,"Delta":187136539},{"NoteNumber":50,"Velocity":35,"Duration":188164,"SoundDuration":188164,"Delta":187324704},{"NoteNumber":42,"Velocity":29,"Duration":188164,"SoundDuration":188164,"Delta":187512868},{"NoteNumber":50,"Velocity":29,"Duration":188164,"SoundDuration":188164,"Delta":187701032},{"NoteNumber":67,"Velocity":50,"Duration":180180,"SoundDuration":180180,"Delta":187889197},{"NoteNumber":46,"Velocity":45,"Duration":180180,"SoundDuration":180180,"Delta":187889197},{"NoteNumber":43,"Velocity":31,"Duration":1643760,"SoundDuration":1643760,"Delta":187889197},{"NoteNumber":62,"Velocity":40,"Duration":180180,"SoundDuration":180180,"Delta":188069377},{"NoteNumber":50,"Velocity":36,"Duration":180180,"SoundDuration":180180,"Delta":188069377},{"NoteNumber":58,"Velocity":34,"Duration":180180,"SoundDuration":180180,"Delta":188249557},{"NoteNumber":55,"Velocity":31,"Duration":180180,"SoundDuration":180180,"Delta":188249557},{"NoteNumber":67,"Velocity":47,"Duration":180180,"SoundDuration":180180,"Delta":188429738},{"NoteNumber":46,"Velocity":42,"Duration":180180,"SoundDuration":180180,"Delta":188429738},{"NoteNumber":62,"Velocity":37,"Duration":180180,"SoundDuration":180180,"Delta":188609918},{"NoteNumber":50,"Velocity":33,"Duration":180180,"SoundDuration":180180,"Delta":188609918},{"NoteNumber":58,"Velocity":32,"Duration":180180,"SoundDuration":180180,"Delta":188790098},{"NoteNumber":55,"Velocity":27,"Duration":180180,"SoundDuration":180180,"Delta":188790098},{"NoteNumber":66,"Velocity":47,"Duration":185185,"SoundDuration":185185,"Delta":188970279},{"NoteNumber":45,"Velocity":41,"Duration":185185,"SoundDuration":185185,"Delta":188970279},{"NoteNumber":62,"Velocity":38,"Duration":185185,"SoundDuration":185185,"Delta":189155464},{"NoteNumber":50,"Velocity":33,"Duration":185185,"SoundDuration":185185,"Delta":189155464},{"NoteNumber":57,"Velocity":33,"Duration":192307,"SoundDuration":192307,"Delta":189340649},{"NoteNumber":54,"Velocity":27,"Duration":192307,"SoundDuration":192307,"Delta":189340649},{"NoteNumber":69,"Velocity":50,"Duration":180180,"SoundDuration":180180,"Delta":189532957},{"NoteNumber":48,"Velocity":45,"Duration":180180,"SoundDuration":180180,"Delta":189532957},{"NoteNumber":43,"Velocity":31,"Duration":1621622,"SoundDuration":1621622,"Delta":189532957},{"NoteNumber":62,"Velocity":41,"Duration":180180,"SoundDuration":180180,"Delta":189713137},{"NoteNumber":50,"Velocity":36,"Duration":180180,"SoundDuration":180180,"Delta":189713137},{"NoteNumber":60,"Velocity":33,"Duration":180180,"SoundDuration":180180,"Delta":189893318},{"NoteNumber":57,"Velocity":29,"Duration":180180,"SoundDuration":180180,"Delta":189893318},{"NoteNumber":69,"Velocity":48,"Duration":180180,"SoundDuration":180180,"Delta":190073498},{"NoteNumber":48,"Velocity":43,"Duration":180180,"SoundDuration":180180,"Delta":190073498},{"NoteNumber":62,"Velocity":38,"Duration":180180,"SoundDuration":180180,"Delta":190253678},{"NoteNumber":50,"Velocity":33,"Duration":180180,"SoundDuration":180180,"Delta":190253678},{"NoteNumber":60,"Velocity":30,"Duration":180180,"SoundDuration":180180,"Delta":190433859},{"NoteNumber":57,"Velocity":28,"Duration":180180,"SoundDuration":180180,"Delta":190433859},{"NoteNumber":67,"Velocity":48,"Duration":180180,"SoundDuration":180180,"Delta":190614039},{"NoteNumber":46,"Velocity":43,"Duration":180180,"SoundDuration":180180,"Delta":190614039},{"NoteNumber":62,"Velocity":38,"Duration":180180,"SoundDuration":180180,"Delta":190794219},{"NoteNumber":50,"Velocity":33,"Duration":180180,"SoundDuration":180180,"Delta":190794219},{"NoteNumber":58,"Velocity":31,"Duration":180180,"SoundDuration":180180,"Delta":190974400},{"NoteNumber":55,"Velocity":28,"Duration":180180,"SoundDuration":180180,"Delta":190974400},{"NoteNumber":67,"Velocity":47,"Duration":180180,"SoundDuration":180180,"Delta":191154580},{"NoteNumber":46,"Velocity":42,"Duration":180180,"SoundDuration":180180,"Delta":191154580},{"NoteNumber":62,"Velocity":38,"Duration":188679,"SoundDuration":188679,"Delta":191334760},{"NoteNumber":50,"Velocity":33,"Duration":188679,"SoundDuration":188679,"Delta":191334760},{"NoteNumber":58,"Velocity":31,"Duration":194174,"SoundDuration":194174,"Delta":191523440},{"NoteNumber":55,"Velocity":28,"Duration":194174,"SoundDuration":194174,"Delta":191523440},{"NoteNumber":62,"Velocity":45,"Duration":297471,"SoundDuration":297471,"Delta":191717614},{"NoteNumber":66,"Velocity":45,"Duration":297471,"SoundDuration":297471,"Delta":191717614},{"NoteNumber":69,"Velocity":53,"Duration":297471,"SoundDuration":297471,"Delta":191717614},{"NoteNumber":50,"Velocity":39,"Duration":297471,"SoundDuration":297471,"Delta":191717614},{"NoteNumber":54,"Velocity":39,"Duration":297471,"SoundDuration":297471,"Delta":191717614},{"NoteNumber":57,"Velocity":46,"Duration":297471,"SoundDuration":297471,"Delta":191717614},{"NoteNumber":62,"Velocity":46,"Duration":322511,"SoundDuration":322511,"Delta":192015086},{"NoteNumber":67,"Velocity":46,"Duration":322511,"SoundDuration":322511,"Delta":192015086},{"NoteNumber":70,"Velocity":55,"Duration":322511,"SoundDuration":322511,"Delta":192015086},{"NoteNumber":50,"Velocity":41,"Duration":322511,"SoundDuration":322511,"Delta":192015086},{"NoteNumber":55,"Velocity":41,"Duration":322511,"SoundDuration":322511,"Delta":192015086},{"NoteNumber":58,"Velocity":49,"Duration":322511,"SoundDuration":322511,"Delta":192015086},{"NoteNumber":62,"Velocity":50,"Duration":450585,"SoundDuration":450585,"Delta":192337597},{"NoteNumber":69,"Velocity":59,"Duration":450585,"SoundDuration":450585,"Delta":192337597},{"NoteNumber":72,"Velocity":59,"Duration":450585,"SoundDuration":450585,"Delta":192337597},{"NoteNumber":50,"Velocity":44,"Duration":450585,"SoundDuration":450585,"Delta":192337597},{"NoteNumber":57,"Velocity":44,"Duration":450585,"SoundDuration":450585,"Delta":192337597},{"NoteNumber":60,"Velocity":52,"Duration":450585,"SoundDuration":450585,"Delta":192337597},{"NoteNumber":62,"Velocity":45,"Duration":150195,"SoundDuration":150195,"Delta":192788183},{"NoteNumber":67,"Velocity":45,"Duration":150195,"SoundDuration":150195,"Delta":192788183},{"NoteNumber":70,"Velocity":54,"Duration":150195,"SoundDuration":150195,"Delta":192788183},{"NoteNumber":50,"Velocity":39,"Duration":150195,"SoundDuration":150195,"Delta":192788183},{"NoteNumber":55,"Velocity":39,"Duration":150195,"SoundDuration":150195,"Delta":192788183},{"NoteNumber":58,"Velocity":47,"Duration":150195,"SoundDuration":150195,"Delta":192788183},{"NoteNumber":62,"Velocity":45,"Duration":626335,"SoundDuration":626335,"Delta":192938378},{"NoteNumber":67,"Velocity":45,"Duration":626335,"SoundDuration":626335,"Delta":192938378},{"NoteNumber":70,"Velocity":53,"Duration":626335,"SoundDuration":626335,"Delta":192938378},{"NoteNumber":50,"Velocity":38,"Duration":626335,"SoundDuration":626335,"Delta":192938378},{"NoteNumber":55,"Velocity":38,"Duration":626335,"SoundDuration":626335,"Delta":192938378},{"NoteNumber":58,"Velocity":45,"Duration":626335,"SoundDuration":626335,"Delta":192938378},{"NoteNumber":62,"Velocity":31,"Duration":333037,"SoundDuration":333037,"Delta":193564714},{"NoteNumber":66,"Velocity":31,"Duration":333037,"SoundDuration":333037,"Delta":193564714},{"NoteNumber":69,"Velocity":37,"Duration":333037,"SoundDuration":333037,"Delta":193564714},{"NoteNumber":50,"Velocity":27,"Duration":333037,"SoundDuration":333037,"Delta":193564714},{"NoteNumber":54,"Velocity":27,"Duration":333037,"SoundDuration":333037,"Delta":193564714},{"NoteNumber":57,"Velocity":32,"Duration":333037,"SoundDuration":333037,"Delta":193564714},{"NoteNumber":62,"Velocity":29,"Duration":319149,"SoundDuration":319149,"Delta":193897751},{"NoteNumber":64,"Velocity":29,"Duration":319149,"SoundDuration":319149,"Delta":193897751},{"NoteNumber":67,"Velocity":35,"Duration":319149,"SoundDuration":319149,"Delta":193897751},{"NoteNumber":50,"Velocity":26,"Duration":319149,"SoundDuration":319149,"Delta":193897751},{"NoteNumber":52,"Velocity":26,"Duration":319149,"SoundDuration":319149,"Delta":193897751},{"NoteNumber":55,"Velocity":26,"Duration":319149,"SoundDuration":319149,"Delta":193897751},{"NoteNumber":62,"Velocity":31,"Duration":638297,"SoundDuration":638297,"Delta":194216900},{"NoteNumber":66,"Velocity":31,"Duration":638297,"SoundDuration":638297,"Delta":194216900},{"NoteNumber":69,"Velocity":37,"Duration":638297,"SoundDuration":638297,"Delta":194216900},{"NoteNumber":50,"Velocity":28,"Duration":638297,"SoundDuration":638297,"Delta":194216900},{"NoteNumber":54,"Velocity":28,"Duration":638297,"SoundDuration":638297,"Delta":194216900},{"NoteNumber":57,"Velocity":33,"Duration":638297,"SoundDuration":638297,"Delta":194216900},{"NoteNumber":74,"Velocity":53,"Duration":1643760,"SoundDuration":1643760,"Delta":194855198},{"NoteNumber":67,"Velocity":50,"Duration":180180,"SoundDuration":180180,"Delta":194855198},{"NoteNumber":47,"Velocity":45,"Duration":180180,"SoundDuration":180180,"Delta":194855198},{"NoteNumber":43,"Velocity":31,"Duration":1643760,"SoundDuration":1643760,"Delta":194855198},{"NoteNumber":62,"Velocity":40,"Duration":180180,"SoundDuration":180180,"Delta":195035379},{"NoteNumber":50,"Velocity":36,"Duration":180180,"SoundDuration":180180,"Delta":195035379},{"NoteNumber":71,"Velocity":34,"Duration":180180,"SoundDuration":180180,"Delta":195215559},{"NoteNumber":55,"Velocity":31,"Duration":180180,"SoundDuration":180180,"Delta":195215559},{"NoteNumber":67,"Velocity":47,"Duration":180180,"SoundDuration":180180,"Delta":195395739},{"NoteNumber":47,"Velocity":42,"Duration":180180,"SoundDuration":180180,"Delta":195395739},{"NoteNumber":62,"Velocity":37,"Duration":180180,"SoundDuration":180180,"Delta":195575920},{"NoteNumber":50,"Velocity":33,"Duration":180180,"SoundDuration":180180,"Delta":195575920},{"NoteNumber":71,"Velocity":32,"Duration":180180,"SoundDuration":180180,"Delta":195756100},{"NoteNumber":55,"Velocity":27,"Duration":180180,"SoundDuration":180180,"Delta":195756100},{"NoteNumber":66,"Velocity":47,"Duration":185185,"SoundDuration":185185,"Delta":195936280},{"NoteNumber":45,"Velocity":41,"Duration":185185,"SoundDuration":185185,"Delta":195936280},{"NoteNumber":62,"Velocity":38,"Duration":185185,"SoundDuration":185185,"Delta":196121466},{"NoteNumber":50,"Velocity":33,"Duration":185185,"SoundDuration":185185,"Delta":196121466},{"NoteNumber":69,"Velocity":33,"Duration":192307,"SoundDuration":192307,"Delta":196306651},{"NoteNumber":54,"Velocity":27,"Duration":192307,"SoundDuration":192307,"Delta":196306651},{"NoteNumber":74,"Velocity":53,"Duration":1649472,"SoundDuration":1649472,"Delta":196498959},{"NoteNumber":69,"Velocity":50,"Duration":180180,"SoundDuration":180180,"Delta":196498959},{"NoteNumber":48,"Velocity":45,"Duration":180180,"SoundDuration":180180,"Delta":196498959},{"NoteNumber":43,"Velocity":31,"Duration":1649472,"SoundDuration":1649472,"Delta":196498959},{"NoteNumber":62,"Velocity":41,"Duration":180180,"SoundDuration":180180,"Delta":196679139},{"NoteNumber":50,"Velocity":36,"Duration":180180,"SoundDuration":180180,"Delta":196679139},{"NoteNumber":72,"Velocity":33,"Duration":180180,"SoundDuration":180180,"Delta":196859319},{"NoteNumber":57,"Velocity":29,"Duration":180180,"SoundDuration":180180,"Delta":196859319},{"NoteNumber":69,"Velocity":48,"Duration":180180,"SoundDuration":180180,"Delta":197039500},{"NoteNumber":48,"Velocity":43,"Duration":180180,"SoundDuration":180180,"Delta":197039500},{"NoteNumber":62,"Velocity":38,"Duration":180180,"SoundDuration":180180,"Delta":197219680},{"NoteNumber":50,"Velocity":33,"Duration":180180,"SoundDuration":180180,"Delta":197219680},{"NoteNumber":72,"Velocity":30,"Duration":180180,"SoundDuration":180180,"Delta":197399860},{"NoteNumber":57,"Velocity":28,"Duration":180180,"SoundDuration":180180,"Delta":197399860},{"NoteNumber":67,"Velocity":48,"Duration":185185,"SoundDuration":185185,"Delta":197580041},{"NoteNumber":47,"Velocity":43,"Duration":185185,"SoundDuration":185185,"Delta":197580041},{"NoteNumber":62,"Velocity":38,"Duration":185185,"SoundDuration":185185,"Delta":197765226},{"NoteNumber":50,"Velocity":33,"Duration":185185,"SoundDuration":185185,"Delta":197765226},{"NoteNumber":71,"Velocity":31,"Duration":198019,"SoundDuration":198019,"Delta":197950411},{"NoteNumber":55,"Velocity":28,"Duration":198019,"SoundDuration":198019,"Delta":197950411},{"NoteNumber":62,"Velocity":70,"Duration":288461,"SoundDuration":288461,"Delta":198148431},{"NoteNumber":50,"Velocity":46,"Duration":604251,"SoundDuration":604251,"Delta":198148431},{"NoteNumber":47,"Velocity":39,"Duration":604251,"SoundDuration":604251,"Delta":198148431},{"NoteNumber":43,"Velocity":39,"Duration":604251,"SoundDuration":604251,"Delta":198148431},{"NoteNumber":74,"Velocity":68,"Duration":315789,"SoundDuration":315789,"Delta":198436893},{"NoteNumber":64,"Velocity":56,"Duration":297471,"SoundDuration":297471,"Delta":198752682},{"NoteNumber":76,"Velocity":66,"Duration":297471,"SoundDuration":297471,"Delta":198752682},{"NoteNumber":43,"Velocity":46,"Duration":297471,"SoundDuration":297471,"Delta":198752682},{"NoteNumber":48,"Velocity":46,"Duration":297471,"SoundDuration":297471,"Delta":198752682},{"NoteNumber":52,"Velocity":55,"Duration":297471,"SoundDuration":297471,"Delta":198752682},{"NoteNumber":66,"Velocity":62,"Duration":333333,"SoundDuration":333333,"Delta":199050154},{"NoteNumber":78,"Velocity":73,"Duration":333333,"SoundDuration":333333,"Delta":199050154},{"NoteNumber":43,"Velocity":49,"Duration":333333,"SoundDuration":333333,"Delta":199050154},{"NoteNumber":45,"Velocity":49,"Duration":333333,"SoundDuration":333333,"Delta":199050154},{"NoteNumber":54,"Velocity":58,"Duration":333333,"SoundDuration":333333,"Delta":199050154},{"NoteNumber":67,"Velocity":69,"Duration":463917,"SoundDuration":463917,"Delta":199383487},{"NoteNumber":79,"Velocity":82,"Duration":463917,"SoundDuration":463917,"Delta":199383487},{"NoteNumber":43,"Velocity":57,"Duration":463917,"SoundDuration":463917,"Delta":199383487},{"NoteNumber":55,"Velocity":68,"Duration":463917,"SoundDuration":463917,"Delta":199383487},{"NoteNumber":47,"Velocity":57,"Duration":463917,"SoundDuration":463917,"Delta":199383487},{"NoteNumber":62,"Velocity":46,"Duration":154639,"SoundDuration":154639,"Delta":199847405},{"NoteNumber":67,"Velocity":46,"Duration":154639,"SoundDuration":154639,"Delta":199847405},{"NoteNumber":71,"Velocity":55,"Duration":154639,"SoundDuration":154639,"Delta":199847405},{"NoteNumber":50,"Velocity":41,"Duration":154639,"SoundDuration":154639,"Delta":199847405},{"NoteNumber":55,"Velocity":41,"Duration":154639,"SoundDuration":154639,"Delta":199847405},{"NoteNumber":59,"Velocity":49,"Duration":154639,"SoundDuration":154639,"Delta":199847405},{"NoteNumber":71,"Velocity":61,"Duration":635223,"SoundDuration":635223,"Delta":200002044},{"NoteNumber":74,"Velocity":61,"Duration":635223,"SoundDuration":635223,"Delta":200002044},{"NoteNumber":50,"Velocity":45,"Duration":635223,"SoundDuration":635223,"Delta":200002044},{"NoteNumber":62,"Velocity":54,"Duration":635223,"SoundDuration":635223,"Delta":200002044},{"NoteNumber":59,"Velocity":45,"Duration":635223,"SoundDuration":635223,"Delta":200002044},{"NoteNumber":62,"Velocity":42,"Duration":492611,"SoundDuration":492611,"Delta":200637268},{"NoteNumber":66,"Velocity":42,"Duration":492611,"SoundDuration":492611,"Delta":200637268},{"NoteNumber":72,"Velocity":50,"Duration":492611,"SoundDuration":492611,"Delta":200637268},{"NoteNumber":50,"Velocity":39,"Duration":492611,"SoundDuration":492611,"Delta":200637268},{"NoteNumber":57,"Velocity":39,"Duration":492611,"SoundDuration":492611,"Delta":200637268},{"NoteNumber":60,"Velocity":46,"Duration":492611,"SoundDuration":492611,"Delta":200637268},{"NoteNumber":62,"Velocity":37,"Duration":159574,"SoundDuration":159574,"Delta":201129880},{"NoteNumber":67,"Velocity":37,"Duration":159574,"SoundDuration":159574,"Delta":201129880},{"NoteNumber":71,"Velocity":44,"Duration":159574,"SoundDuration":159574,"Delta":201129880},{"NoteNumber":55,"Velocity":31,"Duration":159574,"SoundDuration":159574,"Delta":201129880},{"NoteNumber":59,"Velocity":37,"Duration":159574,"SoundDuration":159574,"Delta":201129880},{"NoteNumber":62,"Velocity":34,"Duration":638297,"SoundDuration":638297,"Delta":201289454},{"NoteNumber":67,"Velocity":34,"Duration":638297,"SoundDuration":638297,"Delta":201289454},{"NoteNumber":71,"Velocity":41,"Duration":638297,"SoundDuration":638297,"Delta":201289454},{"NoteNumber":55,"Velocity":28,"Duration":638297,"SoundDuration":638297,"Delta":201289454},{"NoteNumber":59,"Velocity":34,"Duration":638297,"SoundDuration":638297,"Delta":201289454},{"NoteNumber":64,"Velocity":40,"Duration":581283,"SoundDuration":581283,"Delta":201927752},{"NoteNumber":67,"Velocity":40,"Duration":581283,"SoundDuration":581283,"Delta":201927752},{"NoteNumber":72,"Velocity":40,"Duration":581283,"SoundDuration":581283,"Delta":201927752},{"NoteNumber":43,"Velocity":30,"Duration":193760,"SoundDuration":193760,"Delta":201927752},{"NoteNumber":55,"Velocity":26,"Duration":193760,"SoundDuration":193760,"Delta":202121513},{"NoteNumber":43,"Velocity":27,"Duration":193761,"SoundDuration":193761,"Delta":202315274},{"NoteNumber":62,"Velocity":38,"Duration":435962,"SoundDuration":435962,"Delta":202509035},{"NoteNumber":67,"Velocity":38,"Duration":435962,"SoundDuration":435962,"Delta":202509035},{"NoteNumber":71,"Velocity":38,"Duration":435962,"SoundDuration":435962,"Delta":202509035},{"NoteNumber":55,"Velocity":30,"Duration":193760,"SoundDuration":193760,"Delta":202509035},{"NoteNumber":43,"Velocity":26,"Duration":193760,"SoundDuration":193760,"Delta":202702796},{"NoteNumber":55,"Velocity":26,"Duration":193760,"SoundDuration":193760,"Delta":202896557},{"NoteNumber":60,"Velocity":36,"Duration":145320,"SoundDuration":145320,"Delta":202944997},{"NoteNumber":67,"Velocity":36,"Duration":145320,"SoundDuration":145320,"Delta":202944997},{"NoteNumber":69,"Velocity":36,"Duration":145320,"SoundDuration":145320,"Delta":202944997},{"NoteNumber":60,"Velocity":38,"Duration":581283,"SoundDuration":581283,"Delta":203090318},{"NoteNumber":67,"Velocity":38,"Duration":581283,"SoundDuration":581283,"Delta":203090318},{"NoteNumber":69,"Velocity":38,"Duration":581283,"SoundDuration":581283,"Delta":203090318},{"NoteNumber":43,"Velocity":30,"Duration":193760,"SoundDuration":193760,"Delta":203090318},{"NoteNumber":55,"Velocity":26,"Duration":193760,"SoundDuration":193760,"Delta":203284079},{"NoteNumber":43,"Velocity":26,"Duration":190127,"SoundDuration":190127,"Delta":203477840},{"NoteNumber":62,"Velocity":40,"Duration":581283,"SoundDuration":581283,"Delta":203671601},{"NoteNumber":71,"Velocity":40,"Duration":581283,"SoundDuration":581283,"Delta":203671601},{"NoteNumber":43,"Velocity":30,"Duration":193760,"SoundDuration":193760,"Delta":203671601},{"NoteNumber":55,"Velocity":26,"Duration":193760,"SoundDuration":193760,"Delta":203865362},{"NoteNumber":43,"Velocity":27,"Duration":193761,"SoundDuration":193761,"Delta":204059123},{"NoteNumber":60,"Velocity":38,"Duration":435962,"SoundDuration":435962,"Delta":204252884},{"NoteNumber":62,"Velocity":38,"Duration":435962,"SoundDuration":435962,"Delta":204252884},{"NoteNumber":69,"Velocity":38,"Duration":435962,"SoundDuration":435962,"Delta":204252884},{"NoteNumber":55,"Velocity":30,"Duration":193760,"SoundDuration":193760,"Delta":204252884},{"NoteNumber":43,"Velocity":26,"Duration":193760,"SoundDuration":193760,"Delta":204446645},{"NoteNumber":55,"Velocity":26,"Duration":193760,"SoundDuration":193760,"Delta":204640406},{"NoteNumber":59,"Velocity":36,"Duration":145320,"SoundDuration":145320,"Delta":204688846},{"NoteNumber":62,"Velocity":36,"Duration":145320,"SoundDuration":145320,"Delta":204688846},{"NoteNumber":67,"Velocity":36,"Duration":145320,"SoundDuration":145320,"Delta":204688846},{"NoteNumber":59,"Velocity":38,"Duration":596763,"SoundDuration":596763,"Delta":204834167},{"NoteNumber":62,"Velocity":38,"Duration":596763,"SoundDuration":596763,"Delta":204834167},{"NoteNumber":67,"Velocity":38,"Duration":596763,"SoundDuration":596763,"Delta":204834167},{"NoteNumber":43,"Velocity":30,"Duration":193760,"SoundDuration":193760,"Delta":204834167},{"NoteNumber":55,"Velocity":26,"Duration":198921,"SoundDuration":198921,"Delta":205027928},{"NoteNumber":43,"Velocity":26,"Duration":204081,"SoundDuration":204081,"Delta":205226849},{"NoteNumber":60,"Velocity":40,"Duration":581283,"SoundDuration":581283,"Delta":205430931},{"NoteNumber":62,"Velocity":40,"Duration":581283,"SoundDuration":581283,"Delta":205430931},{"NoteNumber":69,"Velocity":40,"Duration":581283,"SoundDuration":581283,"Delta":205430931},{"NoteNumber":31,"Velocity":30,"Duration":193760,"SoundDuration":193760,"Delta":205430931},{"NoteNumber":43,"Velocity":26,"Duration":193760,"SoundDuration":193760,"Delta":205624692},{"NoteNumber":31,"Velocity":27,"Duration":193761,"SoundDuration":193761,"Delta":205818453},{"NoteNumber":59,"Velocity":38,"Duration":435962,"SoundDuration":435962,"Delta":206012214},{"NoteNumber":62,"Velocity":38,"Duration":435962,"SoundDuration":435962,"Delta":206012214},{"NoteNumber":67,"Velocity":38,"Duration":435962,"SoundDuration":435962,"Delta":206012214},{"NoteNumber":43,"Velocity":30,"Duration":193760,"SoundDuration":193760,"Delta":206012214},{"NoteNumber":31,"Velocity":26,"Duration":193760,"SoundDuration":193760,"Delta":206205975},{"NoteNumber":43,"Velocity":26,"Duration":193760,"SoundDuration":193760,"Delta":206399736},{"NoteNumber":57,"Velocity":36,"Duration":145320,"SoundDuration":145320,"Delta":206448176},{"NoteNumber":60,"Velocity":36,"Duration":145320,"SoundDuration":145320,"Delta":206448176},{"NoteNumber":66,"Velocity":36,"Duration":145320,"SoundDuration":145320,"Delta":206448176},{"NoteNumber":57,"Velocity":38,"Duration":581283,"SoundDuration":581283,"Delta":206593497},{"NoteNumber":60,"Velocity":38,"Duration":581283,"SoundDuration":581283,"Delta":206593497},{"NoteNumber":66,"Velocity":38,"Duration":581283,"SoundDuration":581283,"Delta":206593497},{"NoteNumber":31,"Velocity":30,"Duration":193760,"SoundDuration":193760,"Delta":206593497},{"NoteNumber":43,"Velocity":26,"Duration":193760,"SoundDuration":193760,"Delta":206787258},{"NoteNumber":31,"Velocity":26,"Duration":190127,"SoundDuration":190127,"Delta":206981019},{"NoteNumber":59,"Velocity":40,"Duration":581283,"SoundDuration":581283,"Delta":207174780},{"NoteNumber":67,"Velocity":40,"Duration":581283,"SoundDuration":581283,"Delta":207174780},{"NoteNumber":31,"Velocity":30,"Duration":193760,"SoundDuration":193760,"Delta":207174780},{"NoteNumber":43,"Velocity":26,"Duration":193760,"SoundDuration":193760,"Delta":207368541},{"NoteNumber":31,"Velocity":27,"Duration":193761,"SoundDuration":193761,"Delta":207562302},{"NoteNumber":57,"Velocity":38,"Duration":435962,"SoundDuration":435962,"Delta":207756063},{"NoteNumber":62,"Velocity":38,"Duration":435962,"SoundDuration":435962,"Delta":207756063},{"NoteNumber":43,"Velocity":30,"Duration":193760,"SoundDuration":193760,"Delta":207756063},{"NoteNumber":31,"Velocity":26,"Duration":193760,"SoundDuration":193760,"Delta":207949824},{"NoteNumber":43,"Velocity":26,"Duration":193760,"SoundDuration":193760,"Delta":208143585},{"NoteNumber":55,"Velocity":36,"Duration":145320,"SoundDuration":145320,"Delta":208192025},{"NoteNumber":59,"Velocity":36,"Duration":145320,"SoundDuration":145320,"Delta":208192025},{"NoteNumber":55,"Velocity":38,"Duration":593671,"SoundDuration":593671,"Delta":208337346},{"NoteNumber":59,"Velocity":38,"Duration":593671,"SoundDuration":593671,"Delta":208337346},{"NoteNumber":31,"Velocity":30,"Duration":193760,"SoundDuration":193760,"Delta":208337346},{"NoteNumber":43,"Velocity":26,"Duration":197890,"SoundDuration":197890,"Delta":208531107},{"NoteNumber":31,"Velocity":26,"Duration":198232,"SoundDuration":198232,"Delta":208728998},{"NoteNumber":55,"Velocity":38,"Duration":599999,"SoundDuration":599999,"Delta":208931018},{"NoteNumber":62,"Velocity":38,"Duration":599999,"SoundDuration":599999,"Delta":208931018},{"NoteNumber":65,"Velocity":38,"Duration":599999,"SoundDuration":599999,"Delta":208931018},{"NoteNumber":31,"Velocity":28,"Duration":199999,"SoundDuration":199999,"Delta":208931018},{"NoteNumber":43,"Velocity":24,"Duration":200000,"SoundDuration":200000,"Delta":209131018},{"NoteNumber":31,"Velocity":25,"Duration":199999,"SoundDuration":199999,"Delta":209331018},{"NoteNumber":55,"Velocity":36,"Duration":450000,"SoundDuration":450000,"Delta":209531018},{"NoteNumber":60,"Velocity":36,"Duration":450000,"SoundDuration":450000,"Delta":209531018},{"NoteNumber":64,"Velocity":36,"Duration":450000,"SoundDuration":450000,"Delta":209531018},{"NoteNumber":43,"Velocity":28,"Duration":200000,"SoundDuration":200000,"Delta":209531018},{"NoteNumber":31,"Velocity":24,"Duration":199999,"SoundDuration":199999,"Delta":209731018},{"NoteNumber":43,"Velocity":24,"Duration":199999,"SoundDuration":199999,"Delta":209931018},{"NoteNumber":55,"Velocity":34,"Duration":149999,"SoundDuration":149999,"Delta":209981018},{"NoteNumber":59,"Velocity":34,"Duration":149999,"SoundDuration":149999,"Delta":209981018},{"NoteNumber":62,"Velocity":34,"Duration":149999,"SoundDuration":149999,"Delta":209981018},{"NoteNumber":55,"Velocity":36,"Duration":600000,"SoundDuration":600000,"Delta":210131018},{"NoteNumber":59,"Velocity":36,"Duration":600000,"SoundDuration":600000,"Delta":210131018},{"NoteNumber":62,"Velocity":36,"Duration":600000,"SoundDuration":600000,"Delta":210131018},{"NoteNumber":31,"Velocity":28,"Duration":200000,"SoundDuration":200000,"Delta":210131018},{"NoteNumber":43,"Velocity":24,"Duration":199999,"SoundDuration":199999,"Delta":210331018},{"NoteNumber":31,"Velocity":24,"Duration":196249,"SoundDuration":196249,"Delta":210531018},{"NoteNumber":59,"Velocity":38,"Duration":593097,"SoundDuration":593097,"Delta":210731018},{"NoteNumber":69,"Velocity":38,"Duration":593097,"SoundDuration":593097,"Delta":210731018},{"NoteNumber":65,"Velocity":38,"Duration":593097,"SoundDuration":593097,"Delta":210731018},{"NoteNumber":31,"Velocity":28,"Duration":198019,"SoundDuration":198019,"Delta":210731018},{"NoteNumber":43,"Velocity":24,"Duration":198019,"SoundDuration":198019,"Delta":210929038},{"NoteNumber":31,"Velocity":24,"Duration":197058,"SoundDuration":197058,"Delta":211127057},{"NoteNumber":59,"Velocity":34,"Duration":436892,"SoundDuration":436892,"Delta":211324116},{"NoteNumber":67,"Velocity":34,"Duration":436892,"SoundDuration":436892,"Delta":211324116},{"NoteNumber":64,"Velocity":34,"Duration":436892,"SoundDuration":436892,"Delta":211324116},{"NoteNumber":43,"Velocity":27,"Duration":194174,"SoundDuration":194174,"Delta":211324116},{"NoteNumber":31,"Velocity":23,"Duration":194174,"SoundDuration":194174,"Delta":211518290},{"NoteNumber":43,"Velocity":22,"Duration":194174,"SoundDuration":194174,"Delta":211712465},{"NoteNumber":62,"Velocity":31,"Duration":145631,"SoundDuration":145631,"Delta":211761009},{"NoteNumber":59,"Velocity":31,"Duration":145631,"SoundDuration":145631,"Delta":211761009},{"NoteNumber":65,"Velocity":31,"Duration":145631,"SoundDuration":145631,"Delta":211761009},{"NoteNumber":65,"Velocity":32,"Duration":597384,"SoundDuration":597384,"Delta":211906640},{"NoteNumber":59,"Velocity":32,"Duration":597384,"SoundDuration":597384,"Delta":211906640},{"NoteNumber":62,"Velocity":32,"Duration":597384,"SoundDuration":597384,"Delta":211906640},{"NoteNumber":31,"Velocity":25,"Duration":194174,"SoundDuration":194174,"Delta":211906640},{"NoteNumber":43,"Velocity":21,"Duration":199128,"SoundDuration":199128,"Delta":212100814},{"NoteNumber":31,"Velocity":21,"Duration":200255,"SoundDuration":200255,"Delta":212299943},{"NoteNumber":69,"Velocity":36,"Duration":977233,"SoundDuration":977233,"Delta":212504024},{"NoteNumber":59,"Velocity":36,"Duration":2112016,"SoundDuration":2112016,"Delta":212504024},{"NoteNumber":65,"Velocity":36,"Duration":2112016,"SoundDuration":2112016,"Delta":212504024},{"NoteNumber":31,"Velocity":27,"Duration":217391,"SoundDuration":217391,"Delta":212504024},{"NoteNumber":43,"Velocity":23,"Duration":215078,"SoundDuration":215078,"Delta":212721416},{"NoteNumber":31,"Velocity":24,"Duration":215066,"SoundDuration":215066,"Delta":212936494},{"NoteNumber":43,"Velocity":27,"Duration":218585,"SoundDuration":218585,"Delta":213151560},{"NoteNumber":31,"Velocity":23,"Duration":222846,"SoundDuration":222846,"Delta":213370146},{"NoteNumber":68,"Velocity":36,"Duration":338369,"SoundDuration":338369,"Delta":213481257},{"NoteNumber":43,"Velocity":23,"Duration":226634,"SoundDuration":226634,"Delta":213592993},{"NoteNumber":67,"Velocity":36,"Duration":379747,"SoundDuration":379747,"Delta":213819627},{"NoteNumber":31,"Velocity":27,"Duration":253164,"SoundDuration":253164,"Delta":213819627},{"NoteNumber":43,"Velocity":23,"Duration":265471,"SoundDuration":265471,"Delta":214072792},{"NoteNumber":69,"Velocity":36,"Duration":416666,"SoundDuration":416666,"Delta":214199374},{"NoteNumber":31,"Velocity":23,"Duration":277777,"SoundDuration":277777,"Delta":214338263},{"NoteNumber":69,"Velocity":36,"Duration":882352,"SoundDuration":882352,"Delta":214616041},{"NoteNumber":59,"Velocity":36,"Duration":2549018,"SoundDuration":2549018,"Delta":214616041},{"NoteNumber":65,"Velocity":36,"Duration":2549018,"SoundDuration":2549018,"Delta":214616041},{"NoteNumber":43,"Velocity":23,"Duration":2549018,"SoundDuration":2549018,"Delta":214616041},{"NoteNumber":50,"Velocity":23,"Duration":2549018,"SoundDuration":2549018,"Delta":214616041},{"NoteNumber":67,"Velocity":36,"Duration":1666665,"SoundDuration":1666665,"Delta":215498394},{"NoteNumber":67,"Velocity":60,"Duration":474425,"SoundDuration":474425,"Delta":217166189},{"NoteNumber":55,"Velocity":54,"Duration":474425,"SoundDuration":474425,"Delta":217166189},{"NoteNumber":69,"Velocity":50,"Duration":67775,"SoundDuration":67775,"Delta":217639485},{"NoteNumber":57,"Velocity":44,"Duration":67775,"SoundDuration":67775,"Delta":217639485},{"NoteNumber":67,"Velocity":60,"Duration":175438,"SoundDuration":175438,"Delta":217707261},{"NoteNumber":55,"Velocity":54,"Duration":175438,"SoundDuration":175438,"Delta":217707261},{"NoteNumber":64,"Velocity":57,"Duration":169491,"SoundDuration":169491,"Delta":217882699},{"NoteNumber":52,"Velocity":50,"Duration":169491,"SoundDuration":169491,"Delta":217882699},{"NoteNumber":60,"Velocity":53,"Duration":169491,"SoundDuration":169491,"Delta":218052191},{"NoteNumber":48,"Velocity":47,"Duration":169491,"SoundDuration":169491,"Delta":218052191},{"NoteNumber":67,"Velocity":60,"Duration":424672,"SoundDuration":424672,"Delta":218221683},{"NoteNumber":55,"Velocity":54,"Duration":424672,"SoundDuration":424672,"Delta":218221683},{"NoteNumber":76,"Velocity":56,"Duration":159812,"SoundDuration":159812,"Delta":218646355},{"NoteNumber":64,"Velocity":51,"Duration":159812,"SoundDuration":159812,"Delta":218646355},{"NoteNumber":76,"Velocity":60,"Duration":1179129,"SoundDuration":1179129,"Delta":218806168},{"NoteNumber":64,"Velocity":54,"Duration":1179129,"SoundDuration":1179129,"Delta":218806168},{"NoteNumber":72,"Velocity":44,"Duration":294782,"SoundDuration":294782,"Delta":219985298},{"NoteNumber":60,"Velocity":40,"Duration":294782,"SoundDuration":294782,"Delta":219985298},{"NoteNumber":67,"Velocity":59,"Duration":474425,"SoundDuration":474425,"Delta":220574863},{"NoteNumber":65,"Velocity":50,"Duration":67775,"SoundDuration":67775,"Delta":221049289},{"NoteNumber":64,"Velocity":60,"Duration":180733,"SoundDuration":180733,"Delta":221117064},{"NoteNumber":60,"Velocity":56,"Duration":180733,"SoundDuration":180733,"Delta":221297798},{"NoteNumber":55,"Velocity":52,"Duration":180733,"SoundDuration":180733,"Delta":221478531},{"NoteNumber":60,"Velocity":60,"Duration":176990,"SoundDuration":176990,"Delta":221659265},{"NoteNumber":64,"Velocity":57,"Duration":176991,"SoundDuration":176991,"Delta":221836256},{"NoteNumber":67,"Velocity":54,"Duration":176990,"SoundDuration":176990,"Delta":222013247},{"NoteNumber":55,"Velocity":56,"Duration":144230,"SoundDuration":144230,"Delta":222190238},{"NoteNumber":64,"Velocity":56,"Duration":144230,"SoundDuration":144230,"Delta":222190238},{"NoteNumber":67,"Velocity":56,"Duration":144230,"SoundDuration":144230,"Delta":222190238},{"NoteNumber":43,"Velocity":51,"Duration":144230,"SoundDuration":144230,"Delta":222190238},{"NoteNumber":55,"Velocity":53,"Duration":137614,"SoundDuration":137614,"Delta":222478699},{"NoteNumber":62,"Velocity":53,"Duration":137614,"SoundDuration":137614,"Delta":222478699},{"NoteNumber":65,"Velocity":53,"Duration":137614,"SoundDuration":137614,"Delta":222478699},{"NoteNumber":45,"Velocity":46,"Duration":137614,"SoundDuration":137614,"Delta":222478699},{"NoteNumber":47,"Velocity":46,"Duration":137614,"SoundDuration":137614,"Delta":222616314},{"NoteNumber":55,"Velocity":56,"Duration":107142,"SoundDuration":107142,"Delta":222753929},{"NoteNumber":60,"Velocity":56,"Duration":107142,"SoundDuration":107142,"Delta":222753929},{"NoteNumber":64,"Velocity":56,"Duration":107142,"SoundDuration":107142,"Delta":222753929},{"NoteNumber":48,"Velocity":51,"Duration":107142,"SoundDuration":107142,"Delta":222753929},{"NoteNumber":55,"Velocity":50,"Duration":110294,"SoundDuration":110294,"Delta":223039643},{"NoteNumber":59,"Velocity":50,"Duration":110294,"SoundDuration":110294,"Delta":223039643},{"NoteNumber":62,"Velocity":50,"Duration":110294,"SoundDuration":110294,"Delta":223039643},{"NoteNumber":43,"Velocity":45,"Duration":110294,"SoundDuration":110294,"Delta":223039643},{"NoteNumber":55,"Velocity":56,"Duration":143225,"SoundDuration":143225,"Delta":223333761},{"NoteNumber":60,"Velocity":56,"Duration":143225,"SoundDuration":143225,"Delta":223333761},{"NoteNumber":64,"Velocity":56,"Duration":143225,"SoundDuration":143225,"Delta":223333761},{"NoteNumber":48,"Velocity":51,"Duration":143225,"SoundDuration":143225,"Delta":223333761},{"NoteNumber":55,"Velocity":41,"Duration":145631,"SoundDuration":145631,"Delta":223906663},{"NoteNumber":63,"Velocity":41,"Duration":145631,"SoundDuration":145631,"Delta":223906663},{"NoteNumber":67,"Velocity":41,"Duration":145631,"SoundDuration":145631,"Delta":223906663},{"NoteNumber":43,"Velocity":36,"Duration":291261,"SoundDuration":291261,"Delta":223906663},{"NoteNumber":55,"Velocity":37,"Duration":140186,"SoundDuration":140186,"Delta":224197925},{"NoteNumber":62,"Velocity":37,"Duration":140186,"SoundDuration":140186,"Delta":224197925},{"NoteNumber":65,"Velocity":37,"Duration":140186,"SoundDuration":140186,"Delta":224197925},{"NoteNumber":45,"Velocity":34,"Duration":140186,"SoundDuration":140186,"Delta":224197925},{"NoteNumber":47,"Velocity":35,"Duration":140186,"SoundDuration":140186,"Delta":224338112},{"NoteNumber":55,"Velocity":41,"Duration":106132,"SoundDuration":106132,"Delta":224478299},{"NoteNumber":60,"Velocity":41,"Duration":106132,"SoundDuration":106132,"Delta":224478299},{"NoteNumber":63,"Velocity":41,"Duration":106132,"SoundDuration":106132,"Delta":224478299},{"NoteNumber":48,"Velocity":36,"Duration":141509,"SoundDuration":141509,"Delta":224478299},{"NoteNumber":55,"Velocity":38,"Duration":107142,"SoundDuration":107142,"Delta":224761318},{"NoteNumber":59,"Velocity":38,"Duration":107142,"SoundDuration":107142,"Delta":224761318},{"NoteNumber":62,"Velocity":38,"Duration":107142,"SoundDuration":107142,"Delta":224761318},{"NoteNumber":43,"Velocity":33,"Duration":107142,"SoundDuration":107142,"Delta":224761318},{"NoteNumber":55,"Velocity":41,"Duration":107142,"SoundDuration":107142,"Delta":225047032},{"NoteNumber":60,"Velocity":41,"Duration":107142,"SoundDuration":107142,"Delta":225047032},{"NoteNumber":63,"Velocity":41,"Duration":107142,"SoundDuration":107142,"Delta":225047032},{"NoteNumber":48,"Velocity":36,"Duration":107142,"SoundDuration":107142,"Delta":225047032},{"NoteNumber":58,"Velocity":38,"Duration":103211,"SoundDuration":103211,"Delta":225332747},{"NoteNumber":62,"Velocity":38,"Duration":103211,"SoundDuration":103211,"Delta":225332747},{"NoteNumber":65,"Velocity":38,"Duration":103211,"SoundDuration":103211,"Delta":225332747},{"NoteNumber":46,"Velocity":33,"Duration":103211,"SoundDuration":103211,"Delta":225332747},{"NoteNumber":58,"Velocity":50,"Duration":268697,"SoundDuration":268697,"Delta":225607976},{"NoteNumber":62,"Velocity":50,"Duration":268697,"SoundDuration":268697,"Delta":225607976},{"NoteNumber":65,"Velocity":50,"Duration":268697,"SoundDuration":268697,"Delta":225607976},{"NoteNumber":46,"Velocity":46,"Duration":268697,"SoundDuration":268697,"Delta":225607976},{"NoteNumber":58,"Velocity":48,"Duration":208333,"SoundDuration":208333,"Delta":225876673},{"NoteNumber":63,"Velocity":48,"Duration":208333,"SoundDuration":208333,"Delta":225876673},{"NoteNumber":67,"Velocity":48,"Duration":208333,"SoundDuration":208333,"Delta":225876673},{"NoteNumber":51,"Velocity":43,"Duration":208333,"SoundDuration":208333,"Delta":225876673},{"NoteNumber":58,"Velocity":52,"Duration":276014,"SoundDuration":276014,"Delta":226154451},{"NoteNumber":63,"Velocity":52,"Duration":276014,"SoundDuration":276014,"Delta":226154451},{"NoteNumber":67,"Velocity":52,"Duration":276014,"SoundDuration":276014,"Delta":226154451},{"NoteNumber":51,"Velocity":48,"Duration":276014,"SoundDuration":276014,"Delta":226154451},{"NoteNumber":62,"Velocity":54,"Duration":214838,"SoundDuration":214838,"Delta":226430466},{"NoteNumber":66,"Velocity":54,"Duration":214838,"SoundDuration":214838,"Delta":226430466},{"NoteNumber":69,"Velocity":54,"Duration":214838,"SoundDuration":214838,"Delta":226430466},{"NoteNumber":50,"Velocity":46,"Duration":214838,"SoundDuration":214838,"Delta":226430466},{"NoteNumber":62,"Velocity":60,"Duration":277778,"SoundDuration":277778,"Delta":226716917},{"NoteNumber":66,"Velocity":60,"Duration":277778,"SoundDuration":277778,"Delta":226716917},{"NoteNumber":69,"Velocity":60,"Duration":277778,"SoundDuration":277778,"Delta":226716917},{"NoteNumber":50,"Velocity":54,"Duration":277778,"SoundDuration":277778,"Delta":226716917},{"NoteNumber":62,"Velocity":57,"Duration":214285,"SoundDuration":214285,"Delta":226994695},{"NoteNumber":67,"Velocity":57,"Duration":214285,"SoundDuration":214285,"Delta":226994695},{"NoteNumber":70,"Velocity":57,"Duration":214285,"SoundDuration":214285,"Delta":226994695},{"NoteNumber":55,"Velocity":51,"Duration":214285,"SoundDuration":214285,"Delta":226994695},{"NoteNumber":62,"Velocity":66,"Duration":285714,"SoundDuration":285714,"Delta":227280409},{"NoteNumber":67,"Velocity":66,"Duration":285714,"SoundDuration":285714,"Delta":227280409},{"NoteNumber":70,"Velocity":66,"Duration":285714,"SoundDuration":285714,"Delta":227280409},{"NoteNumber":55,"Velocity":59,"Duration":285714,"SoundDuration":285714,"Delta":227280409},{"NoteNumber":62,"Velocity":64,"Duration":352278,"SoundDuration":352278,"Delta":227566124},{"NoteNumber":67,"Velocity":64,"Duration":352278,"SoundDuration":352278,"Delta":227566124},{"NoteNumber":71,"Velocity":64,"Duration":352278,"SoundDuration":352278,"Delta":227566124},{"NoteNumber":43,"Velocity":55,"Duration":352278,"SoundDuration":352278,"Delta":227566124},{"NoteNumber":53,"Velocity":55,"Duration":352278,"SoundDuration":352278,"Delta":227566124},{"NoteNumber":55,"Velocity":55,"Duration":352278,"SoundDuration":352278,"Delta":227566124},{"NoteNumber":62,"Velocity":70,"Duration":979432,"SoundDuration":979432,"Delta":227918402},{"NoteNumber":67,"Velocity":70,"Duration":979432,"SoundDuration":979432,"Delta":227918402},{"NoteNumber":71,"Velocity":70,"Duration":979432,"SoundDuration":979432,"Delta":227918402},{"NoteNumber":43,"Velocity":61,"Duration":979432,"SoundDuration":979432,"Delta":227918402},{"NoteNumber":53,"Velocity":61,"Duration":979432,"SoundDuration":979432,"Delta":227918402},{"NoteNumber":55,"Velocity":61,"Duration":979432,"SoundDuration":979432,"Delta":227918402},{"NoteNumber":65,"Velocity":54,"Duration":357227,"SoundDuration":357227,"Delta":228897834},{"NoteNumber":71,"Velocity":54,"Duration":357227,"SoundDuration":357227,"Delta":228897834},{"NoteNumber":77,"Velocity":54,"Duration":357227,"SoundDuration":357227,"Delta":228897834},{"NoteNumber":43,"Velocity":48,"Duration":357227,"SoundDuration":357227,"Delta":228897834},{"NoteNumber":50,"Velocity":48,"Duration":357227,"SoundDuration":357227,"Delta":228897834},{"NoteNumber":55,"Velocity":48,"Duration":357227,"SoundDuration":357227,"Delta":228897834},{"NoteNumber":64,"Velocity":54,"Duration":1768695,"SoundDuration":1768695,"Delta":229255062},{"NoteNumber":72,"Velocity":54,"Duration":1768695,"SoundDuration":1768695,"Delta":229255062},{"NoteNumber":76,"Velocity":54,"Duration":1768695,"SoundDuration":1768695,"Delta":229255062},{"NoteNumber":48,"Velocity":48,"Duration":1768695,"SoundDuration":1768695,"Delta":229255062},{"NoteNumber":55,"Velocity":48,"Duration":1768695,"SoundDuration":1768695,"Delta":229255062},{"NoteNumber":76,"Velocity":54,"Duration":491987,"SoundDuration":491987,"Delta":231023757},{"NoteNumber":77,"Velocity":44,"Duration":70284,"SoundDuration":70284,"Delta":231515745},{"NoteNumber":76,"Velocity":54,"Duration":180733,"SoundDuration":180733,"Delta":231586029},{"NoteNumber":72,"Velocity":50,"Duration":180733,"SoundDuration":180733,"Delta":231766763},{"NoteNumber":69,"Velocity":47,"Duration":117924,"SoundDuration":117924,"Delta":231947497},{"NoteNumber":74,"Velocity":44,"Duration":69692,"SoundDuration":69692,"Delta":232065421},{"NoteNumber":72,"Velocity":54,"Duration":180180,"SoundDuration":180180,"Delta":232135114},{"NoteNumber":69,"Velocity":51,"Duration":180180,"SoundDuration":180180,"Delta":232315294},{"NoteNumber":64,"Velocity":47,"Duration":194628,"SoundDuration":194628,"Delta":232495474},{"NoteNumber":64,"Velocity":45,"Duration":557103,"SoundDuration":557103,"Delta":232690103},{"NoteNumber":69,"Velocity":45,"Duration":278551,"SoundDuration":278551,"Delta":232690103},{"NoteNumber":72,"Velocity":54,"Duration":278551,"SoundDuration":278551,"Delta":232690103},{"NoteNumber":52,"Velocity":52,"Duration":487465,"SoundDuration":487465,"Delta":232690103},{"NoteNumber":68,"Velocity":43,"Duration":278551,"SoundDuration":278551,"Delta":232968654},{"NoteNumber":71,"Velocity":51,"Duration":278551,"SoundDuration":278551,"Delta":232968654},{"NoteNumber":53,"Velocity":44,"Duration":69637,"SoundDuration":69637,"Delta":233177568},{"NoteNumber":68,"Velocity":54,"Duration":315789,"SoundDuration":315789,"Delta":233247206},{"NoteNumber":64,"Velocity":45,"Duration":315789,"SoundDuration":315789,"Delta":233247206},{"NoteNumber":71,"Velocity":54,"Duration":315789,"SoundDuration":315789,"Delta":233247206},{"NoteNumber":52,"Velocity":58,"Duration":210526,"SoundDuration":210526,"Delta":233247206},{"NoteNumber":47,"Velocity":57,"Duration":210526,"SoundDuration":210526,"Delta":233457732},{"NoteNumber":66,"Velocity":43,"Duration":320594,"SoundDuration":320594,"Delta":233562995},{"NoteNumber":64,"Velocity":43,"Duration":320594,"SoundDuration":320594,"Delta":233562995},{"NoteNumber":69,"Velocity":51,"Duration":320594,"SoundDuration":320594,"Delta":233562995},{"NoteNumber":40,"Velocity":54,"Duration":215331,"SoundDuration":215331,"Delta":233668258},{"NoteNumber":64,"Velocity":45,"Duration":595356,"SoundDuration":595356,"Delta":233883590},{"NoteNumber":68,"Velocity":45,"Duration":595356,"SoundDuration":595356,"Delta":233883590},{"NoteNumber":71,"Velocity":54,"Duration":595356,"SoundDuration":595356,"Delta":233883590},{"NoteNumber":52,"Velocity":59,"Duration":595356,"SoundDuration":595356,"Delta":233883590},{"NoteNumber":64,"Velocity":45,"Duration":572901,"SoundDuration":572901,"Delta":234478946},{"NoteNumber":67,"Velocity":45,"Duration":572901,"SoundDuration":572901,"Delta":234478946},{"NoteNumber":72,"Velocity":54,"Duration":286450,"SoundDuration":286450,"Delta":234478946},{"NoteNumber":52,"Velocity":52,"Duration":501289,"SoundDuration":501289,"Delta":234478946},{"NoteNumber":71,"Velocity":51,"Duration":286450,"SoundDuration":286450,"Delta":234765397},{"NoteNumber":53,"Velocity":44,"Duration":71612,"SoundDuration":71612,"Delta":234980235},{"NoteNumber":64,"Velocity":45,"Duration":312500,"SoundDuration":312500,"Delta":235051848},{"NoteNumber":67,"Velocity":45,"Duration":312500,"SoundDuration":312500,"Delta":235051848},{"NoteNumber":71,"Velocity":54,"Duration":312500,"SoundDuration":312500,"Delta":235051848},{"NoteNumber":52,"Velocity":59,"Duration":208333,"SoundDuration":208333,"Delta":235051848},{"NoteNumber":55,"Velocity":55,"Duration":201253,"SoundDuration":201253,"Delta":235260181},{"NoteNumber":64,"Velocity":44,"Duration":291261,"SoundDuration":291261,"Delta":235364348},{"NoteNumber":67,"Velocity":44,"Duration":291261,"SoundDuration":291261,"Delta":235364348},{"NoteNumber":72,"Velocity":52,"Duration":291261,"SoundDuration":291261,"Delta":235364348},{"NoteNumber":60,"Velocity":53,"Duration":194174,"SoundDuration":194174,"Delta":235461435},{"NoteNumber":67,"Velocity":45,"Duration":612245,"SoundDuration":612245,"Delta":235655610},{"NoteNumber":71,"Velocity":54,"Duration":306122,"SoundDuration":306122,"Delta":235655610},{"NoteNumber":65,"Velocity":53,"Duration":612245,"SoundDuration":612245,"Delta":235655610},{"NoteNumber":62,"Velocity":45,"Duration":612245,"SoundDuration":612245,"Delta":235655610},{"NoteNumber":77,"Velocity":53,"Duration":306122,"SoundDuration":306122,"Delta":235961733},{"NoteNumber":76,"Velocity":54,"Duration":535714,"SoundDuration":535714,"Delta":236267855},{"NoteNumber":64,"Velocity":52,"Duration":612245,"SoundDuration":612245,"Delta":236267855},{"NoteNumber":60,"Velocity":44,"Duration":612245,"SoundDuration":612245,"Delta":236267855},{"NoteNumber":74,"Velocity":43,"Duration":76530,"SoundDuration":76530,"Delta":236803569},{"NoteNumber":72,"Velocity":53,"Duration":204081,"SoundDuration":204081,"Delta":236880100},{"NoteNumber":66,"Velocity":55,"Duration":306122,"SoundDuration":306122,"Delta":236880100},{"NoteNumber":62,"Velocity":46,"Duration":306122,"SoundDuration":306122,"Delta":236880100},{"NoteNumber":71,"Velocity":51,"Duration":204081,"SoundDuration":204081,"Delta":237084182},{"NoteNumber":66,"Velocity":53,"Duration":306122,"SoundDuration":306122,"Delta":237186223},{"NoteNumber":62,"Velocity":45,"Duration":306122,"SoundDuration":306122,"Delta":237186223},{"NoteNumber":69,"Velocity":52,"Duration":204081,"SoundDuration":204081,"Delta":237288263},{"NoteNumber":71,"Velocity":55,"Duration":638297,"SoundDuration":638297,"Delta":237492345},{"NoteNumber":62,"Velocity":47,"Duration":638297,"SoundDuration":638297,"Delta":237492345},{"NoteNumber":55,"Velocity":47,"Duration":638297,"SoundDuration":638297,"Delta":237492345},{"NoteNumber":67,"Velocity":56,"Duration":638297,"SoundDuration":638297,"Delta":237492345},{"NoteNumber":71,"Velocity":68,"Duration":509708,"SoundDuration":509708,"Delta":238130643},{"NoteNumber":59,"Velocity":61,"Duration":509708,"SoundDuration":509708,"Delta":238130643},{"NoteNumber":72,"Velocity":58,"Duration":63025,"SoundDuration":63025,"Delta":238640352},{"NoteNumber":60,"Velocity":51,"Duration":63025,"SoundDuration":63025,"Delta":238640352},{"NoteNumber":71,"Velocity":68,"Duration":175438,"SoundDuration":175438,"Delta":238703377},{"NoteNumber":59,"Velocity":61,"Duration":175438,"SoundDuration":175438,"Delta":238703377},{"NoteNumber":67,"Velocity":66,"Duration":169491,"SoundDuration":169491,"Delta":238878815},{"NoteNumber":55,"Velocity":59,"Duration":169491,"SoundDuration":169491,"Delta":238878815},{"NoteNumber":64,"Velocity":64,"Duration":148514,"SoundDuration":148514,"Delta":239048307},{"NoteNumber":52,"Velocity":56,"Duration":148514,"SoundDuration":148514,"Delta":239048307},{"NoteNumber":79,"Velocity":82,"Duration":275229,"SoundDuration":275229,"Delta":239246327},{"NoteNumber":67,"Velocity":76,"Duration":275229,"SoundDuration":275229,"Delta":239246327},{"NoteNumber":76,"Velocity":72,"Duration":122282,"SoundDuration":122282,"Delta":239521556},{"NoteNumber":64,"Velocity":64,"Duration":122282,"SoundDuration":122282,"Delta":239521556},{"NoteNumber":71,"Velocity":70,"Duration":495283,"SoundDuration":495283,"Delta":239847643},{"NoteNumber":59,"Velocity":62,"Duration":495283,"SoundDuration":495283,"Delta":239847643},{"NoteNumber":72,"Velocity":60,"Duration":63025,"SoundDuration":63025,"Delta":240342927},{"NoteNumber":60,"Velocity":53,"Duration":63025,"SoundDuration":63025,"Delta":240342927},{"NoteNumber":71,"Velocity":71,"Duration":173912,"SoundDuration":173912,"Delta":240405952},{"NoteNumber":59,"Velocity":64,"Duration":173912,"SoundDuration":173912,"Delta":240405952},{"NoteNumber":67,"Velocity":69,"Duration":168067,"SoundDuration":168067,"Delta":240579865},{"NoteNumber":55,"Velocity":61,"Duration":168067,"SoundDuration":168067,"Delta":240579865},{"NoteNumber":64,"Velocity":66,"Duration":145631,"SoundDuration":145631,"Delta":240747932},{"NoteNumber":52,"Velocity":57,"Duration":145631,"SoundDuration":145631,"Delta":240747932},{"NoteNumber":79,"Velocity":85,"Duration":272727,"SoundDuration":272727,"Delta":240942107},{"NoteNumber":67,"Velocity":76,"Duration":272727,"SoundDuration":272727,"Delta":240942107},{"NoteNumber":76,"Velocity":74,"Duration":114795,"SoundDuration":114795,"Delta":241214834},{"NoteNumber":64,"Velocity":66,"Duration":114795,"SoundDuration":114795,"Delta":241214834},{"NoteNumber":83,"Velocity":90,"Duration":283018,"SoundDuration":283018,"Delta":241520957},{"NoteNumber":75,"Velocity":90,"Duration":283018,"SoundDuration":283018,"Delta":241520957},{"NoteNumber":78,"Velocity":90,"Duration":283018,"SoundDuration":283018,"Delta":241520957},{"NoteNumber":47,"Velocity":77,"Duration":283018,"SoundDuration":283018,"Delta":241520957},{"NoteNumber":71,"Velocity":87,"Duration":106132,"SoundDuration":106132,"Delta":241803976},{"NoteNumber":59,"Velocity":72,"Duration":106132,"SoundDuration":106132,"Delta":241803976},{"NoteNumber":81,"Velocity":70,"Duration":62500,"SoundDuration":62500,"Delta":242016240},{"NoteNumber":63,"Velocity":55,"Duration":62500,"SoundDuration":62500,"Delta":242016240},{"NoteNumber":79,"Velocity":87,"Duration":170940,"SoundDuration":170940,"Delta":242078740},{"NoteNumber":64,"Velocity":73,"Duration":170940,"SoundDuration":170940,"Delta":242078740},{"NoteNumber":78,"Velocity":83,"Duration":165289,"SoundDuration":165289,"Delta":242249680},{"NoteNumber":66,"Velocity":67,"Duration":165289,"SoundDuration":165289,"Delta":242249680},{"NoteNumber":76,"Velocity":78,"Duration":205782,"SoundDuration":205782,"Delta":242414970},{"NoteNumber":67,"Velocity":78,"Duration":205782,"SoundDuration":205782,"Delta":242414970},{"NoteNumber":83,"Velocity":93,"Duration":283018,"SoundDuration":283018,"Delta":242620752},{"NoteNumber":75,"Velocity":93,"Duration":283018,"SoundDuration":283018,"Delta":242620752},{"NoteNumber":78,"Velocity":93,"Duration":283018,"SoundDuration":283018,"Delta":242620752},{"NoteNumber":47,"Velocity":79,"Duration":283018,"SoundDuration":283018,"Delta":242620752},{"NoteNumber":71,"Velocity":86,"Duration":106132,"SoundDuration":106132,"Delta":242903771},{"NoteNumber":59,"Velocity":73,"Duration":106132,"SoundDuration":106132,"Delta":242903771},{"NoteNumber":81,"Velocity":72,"Duration":62500,"SoundDuration":62500,"Delta":243116035},{"NoteNumber":63,"Velocity":58,"Duration":62500,"SoundDuration":62500,"Delta":243116035},{"NoteNumber":79,"Velocity":89,"Duration":168067,"SoundDuration":168067,"Delta":243178535},{"NoteNumber":64,"Velocity":75,"Duration":168067,"SoundDuration":168067,"Delta":243178535},{"NoteNumber":78,"Velocity":85,"Duration":165289,"SoundDuration":165289,"Delta":243346603},{"NoteNumber":66,"Velocity":68,"Duration":165289,"SoundDuration":165289,"Delta":243346603},{"NoteNumber":76,"Velocity":82,"Duration":192307,"SoundDuration":192307,"Delta":243511892},{"NoteNumber":67,"Velocity":66,"Duration":192307,"SoundDuration":192307,"Delta":243511892},{"NoteNumber":83,"Velocity":95,"Duration":280373,"SoundDuration":280373,"Delta":243704200},{"NoteNumber":75,"Velocity":95,"Duration":280373,"SoundDuration":280373,"Delta":243704200},{"NoteNumber":78,"Velocity":95,"Duration":280373,"SoundDuration":280373,"Delta":243704200},{"NoteNumber":47,"Velocity":80,"Duration":280373,"SoundDuration":280373,"Delta":243704200},{"NoteNumber":71,"Velocity":89,"Duration":111386,"SoundDuration":111386,"Delta":243984574},{"NoteNumber":59,"Velocity":75,"Duration":111386,"SoundDuration":111386,"Delta":243984574},{"NoteNumber":95,"Velocity":115,"Duration":308673,"SoundDuration":308673,"Delta":244281603},{"NoteNumber":35,"Velocity":81,"Duration":308673,"SoundDuration":308673,"Delta":244281603},{"NoteNumber":83,"Velocity":93,"Duration":115752,"SoundDuration":115752,"Delta":244590277},{"NoteNumber":47,"Velocity":70,"Duration":115752,"SoundDuration":115752,"Delta":244590277},{"NoteNumber":79,"Velocity":45,"Duration":280373,"SoundDuration":280373,"Delta":246535315},{"NoteNumber":64,"Velocity":36,"Duration":280373,"SoundDuration":280373,"Delta":246535315},{"NoteNumber":76,"Velocity":30,"Duration":145631,"SoundDuration":145631,"Delta":246815689},{"NoteNumber":67,"Velocity":25,"Duration":145631,"SoundDuration":145631,"Delta":246815689},{"NoteNumber":79,"Velocity":43,"Duration":277778,"SoundDuration":277778,"Delta":247106951},{"NoteNumber":64,"Velocity":34,"Duration":277778,"SoundDuration":277778,"Delta":247106951},{"NoteNumber":76,"Velocity":31,"Duration":142857,"SoundDuration":142857,"Delta":247384729},{"NoteNumber":67,"Velocity":25,"Duration":142857,"SoundDuration":142857,"Delta":247384729},{"NoteNumber":79,"Velocity":42,"Duration":280373,"SoundDuration":280373,"Delta":247670444},{"NoteNumber":64,"Velocity":33,"Duration":280373,"SoundDuration":280373,"Delta":247670444},{"NoteNumber":76,"Velocity":31,"Duration":142857,"SoundDuration":142857,"Delta":247950818},{"NoteNumber":67,"Velocity":26,"Duration":142857,"SoundDuration":142857,"Delta":247950818},{"NoteNumber":79,"Velocity":41,"Duration":280373,"SoundDuration":280373,"Delta":248236532},{"NoteNumber":64,"Velocity":33,"Duration":280373,"SoundDuration":280373,"Delta":248236532},{"NoteNumber":76,"Velocity":29,"Duration":142857,"SoundDuration":142857,"Delta":248516906},{"NoteNumber":67,"Velocity":24,"Duration":142857,"SoundDuration":142857,"Delta":248516906},{"NoteNumber":79,"Velocity":38,"Duration":280373,"SoundDuration":280373,"Delta":248802621},{"NoteNumber":64,"Velocity":31,"Duration":280373,"SoundDuration":280373,"Delta":248802621},{"NoteNumber":76,"Velocity":27,"Duration":142857,"SoundDuration":142857,"Delta":249082995},{"NoteNumber":67,"Velocity":23,"Duration":142857,"SoundDuration":142857,"Delta":249082995},{"NoteNumber":79,"Velocity":37,"Duration":280373,"SoundDuration":280373,"Delta":249368709},{"NoteNumber":64,"Velocity":30,"Duration":280373,"SoundDuration":280373,"Delta":249368709},{"NoteNumber":76,"Velocity":26,"Duration":142857,"SoundDuration":142857,"Delta":249649083},{"NoteNumber":67,"Velocity":21,"Duration":142857,"SoundDuration":142857,"Delta":249649083},{"NoteNumber":79,"Velocity":36,"Duration":271100,"SoundDuration":271100,"Delta":249934798},{"NoteNumber":76,"Velocity":36,"Duration":271100,"SoundDuration":271100,"Delta":249934798},{"NoteNumber":55,"Velocity":48,"Duration":474425,"SoundDuration":474425,"Delta":249934798},{"NoteNumber":67,"Velocity":27,"Duration":135550,"SoundDuration":135550,"Delta":250205898},{"NoteNumber":57,"Velocity":40,"Duration":67775,"SoundDuration":67775,"Delta":250409223},{"NoteNumber":76,"Velocity":36,"Duration":271100,"SoundDuration":271100,"Delta":250476999},{"NoteNumber":79,"Velocity":36,"Duration":271100,"SoundDuration":271100,"Delta":250476999},{"NoteNumber":55,"Velocity":48,"Duration":180733,"SoundDuration":180733,"Delta":250476999},{"NoteNumber":52,"Velocity":45,"Duration":180733,"SoundDuration":180733,"Delta":250657732},{"NoteNumber":67,"Velocity":27,"Duration":135550,"SoundDuration":135550,"Delta":250748099},{"NoteNumber":48,"Velocity":39,"Duration":180733,"SoundDuration":180733,"Delta":250838466},{"NoteNumber":76,"Velocity":36,"Duration":278551,"SoundDuration":278551,"Delta":251019200},{"NoteNumber":79,"Velocity":36,"Duration":278551,"SoundDuration":278551,"Delta":251019200},{"NoteNumber":55,"Velocity":48,"Duration":424672,"SoundDuration":424672,"Delta":251019200},{"NoteNumber":67,"Velocity":27,"Duration":146121,"SoundDuration":146121,"Delta":251297751},{"NoteNumber":64,"Velocity":45,"Duration":159812,"SoundDuration":159812,"Delta":251443872},{"NoteNumber":76,"Velocity":38,"Duration":294782,"SoundDuration":294782,"Delta":251603685},{"NoteNumber":79,"Velocity":38,"Duration":294782,"SoundDuration":294782,"Delta":251603685},{"NoteNumber":64,"Velocity":48,"Duration":1151926,"SoundDuration":1151926,"Delta":251603685},{"NoteNumber":67,"Velocity":29,"Duration":142857,"SoundDuration":142857,"Delta":251898467},{"NoteNumber":76,"Velocity":38,"Duration":285714,"SoundDuration":285714,"Delta":252184182},{"NoteNumber":79,"Velocity":38,"Duration":285714,"SoundDuration":285714,"Delta":252184182},{"NoteNumber":67,"Velocity":27,"Duration":142857,"SoundDuration":142857,"Delta":252469896},{"NoteNumber":76,"Velocity":34,"Duration":285714,"SoundDuration":285714,"Delta":252755611},{"NoteNumber":79,"Velocity":34,"Duration":285714,"SoundDuration":285714,"Delta":252755611},{"NoteNumber":60,"Velocity":36,"Duration":285714,"SoundDuration":285714,"Delta":252755611},{"NoteNumber":67,"Velocity":26,"Duration":142857,"SoundDuration":142857,"Delta":253041325},{"NoteNumber":67,"Velocity":47,"Duration":474425,"SoundDuration":474425,"Delta":253327040},{"NoteNumber":69,"Velocity":44,"Duration":67775,"SoundDuration":67775,"Delta":253801466},{"NoteNumber":67,"Velocity":52,"Duration":180733,"SoundDuration":180733,"Delta":253869241},{"NoteNumber":64,"Velocity":49,"Duration":175438,"SoundDuration":175438,"Delta":254049975},{"NoteNumber":60,"Velocity":42,"Duration":175438,"SoundDuration":175438,"Delta":254225413},{"NoteNumber":67,"Velocity":52,"Duration":424672,"SoundDuration":424672,"Delta":254400852},{"NoteNumber":76,"Velocity":48,"Duration":159812,"SoundDuration":159812,"Delta":254825525},{"NoteNumber":76,"Velocity":52,"Duration":1081082,"SoundDuration":1081082,"Delta":254985337},{"NoteNumber":55,"Velocity":48,"Duration":472973,"SoundDuration":472973,"Delta":254985337},{"NoteNumber":57,"Velocity":40,"Duration":67567,"SoundDuration":67567,"Delta":255458311},{"NoteNumber":55,"Velocity":48,"Duration":180180,"SoundDuration":180180,"Delta":255525878},{"NoteNumber":52,"Velocity":45,"Duration":180180,"SoundDuration":180180,"Delta":255706059},{"NoteNumber":48,"Velocity":41,"Duration":180180,"SoundDuration":180180,"Delta":255886239},{"NoteNumber":72,"Velocity":35,"Duration":277778,"SoundDuration":277778,"Delta":256066419},{"NoteNumber":55,"Velocity":48,"Duration":424836,"SoundDuration":424836,"Delta":256066419},{"NoteNumber":64,"Velocity":45,"Duration":147058,"SoundDuration":147058,"Delta":256491256},{"NoteNumber":79,"Velocity":70,"Duration":474425,"SoundDuration":474425,"Delta":256638315},{"NoteNumber":64,"Velocity":48,"Duration":1084402,"SoundDuration":1084402,"Delta":256638315},{"NoteNumber":77,"Velocity":51,"Duration":67775,"SoundDuration":67775,"Delta":257112741},{"NoteNumber":76,"Velocity":61,"Duration":180733,"SoundDuration":180733,"Delta":257180516},{"NoteNumber":72,"Velocity":57,"Duration":180733,"SoundDuration":180733,"Delta":257361249},{"NoteNumber":67,"Velocity":55,"Duration":180733,"SoundDuration":180733,"Delta":257541983},{"NoteNumber":72,"Velocity":63,"Duration":180733,"SoundDuration":180733,"Delta":257722717},{"NoteNumber":60,"Velocity":38,"Duration":271100,"SoundDuration":271100,"Delta":257722717},{"NoteNumber":76,"Velocity":59,"Duration":180733,"SoundDuration":180733,"Delta":257903450},{"NoteNumber":79,"Velocity":56,"Duration":180733,"SoundDuration":180733,"Delta":258084184},{"NoteNumber":67,"Velocity":70,"Duration":142857,"SoundDuration":142857,"Delta":258264918},{"NoteNumber":76,"Velocity":70,"Duration":142857,"SoundDuration":142857,"Delta":258264918},{"NoteNumber":79,"Velocity":70,"Duration":142857,"SoundDuration":142857,"Delta":258264918},{"NoteNumber":43,"Velocity":61,"Duration":142857,"SoundDuration":142857,"Delta":258264918},{"NoteNumber":67,"Velocity":66,"Duration":135135,"SoundDuration":135135,"Delta":258550632},{"NoteNumber":74,"Velocity":66,"Duration":135135,"SoundDuration":135135,"Delta":258550632},{"NoteNumber":77,"Velocity":66,"Duration":135135,"SoundDuration":135135,"Delta":258550632},{"NoteNumber":45,"Velocity":55,"Duration":135135,"SoundDuration":135135,"Delta":258550632},{"NoteNumber":47,"Velocity":55,"Duration":135135,"SoundDuration":135135,"Delta":258685768},{"NoteNumber":67,"Velocity":70,"Duration":106132,"SoundDuration":106132,"Delta":258820903},{"NoteNumber":72,"Velocity":70,"Duration":106132,"SoundDuration":106132,"Delta":258820903},{"NoteNumber":76,"Velocity":70,"Duration":106132,"SoundDuration":106132,"Delta":258820903},{"NoteNumber":48,"Velocity":61,"Duration":106132,"SoundDuration":106132,"Delta":258820903},{"NoteNumber":67,"Velocity":63,"Duration":110294,"SoundDuration":110294,"Delta":259103922},{"NoteNumber":71,"Velocity":63,"Duration":110294,"SoundDuration":110294,"Delta":259103922},{"NoteNumber":74,"Velocity":63,"Duration":110294,"SoundDuration":110294,"Delta":259103922},{"NoteNumber":43,"Velocity":53,"Duration":110294,"SoundDuration":110294,"Delta":259103922},{"NoteNumber":67,"Velocity":70,"Duration":143225,"SoundDuration":143225,"Delta":259398039},{"NoteNumber":72,"Velocity":70,"Duration":143225,"SoundDuration":143225,"Delta":259398039},{"NoteNumber":76,"Velocity":70,"Duration":143225,"SoundDuration":143225,"Delta":259398039},{"NoteNumber":48,"Velocity":61,"Duration":143225,"SoundDuration":143225,"Delta":259398039},{"NoteNumber":67,"Velocity":45,"Duration":291262,"SoundDuration":291262,"Delta":259970941},{"NoteNumber":51,"Velocity":38,"Duration":145630,"SoundDuration":145630,"Delta":259970941},{"NoteNumber":55,"Velocity":38,"Duration":145630,"SoundDuration":145630,"Delta":259970941},{"NoteNumber":69,"Velocity":41,"Duration":141509,"SoundDuration":141509,"Delta":260262203},{"NoteNumber":50,"Velocity":35,"Duration":141509,"SoundDuration":141509,"Delta":260262203},{"NoteNumber":53,"Velocity":35,"Duration":141509,"SoundDuration":141509,"Delta":260262203},{"NoteNumber":55,"Velocity":35,"Duration":141509,"SoundDuration":141509,"Delta":260262203},{"NoteNumber":71,"Velocity":41,"Duration":141509,"SoundDuration":141509,"Delta":260403713},{"NoteNumber":72,"Velocity":45,"Duration":110294,"SoundDuration":110294,"Delta":260545222},{"NoteNumber":48,"Velocity":38,"Duration":110294,"SoundDuration":110294,"Delta":260545222},{"NoteNumber":51,"Velocity":38,"Duration":110294,"SoundDuration":110294,"Delta":260545222},{"NoteNumber":55,"Velocity":38,"Duration":110294,"SoundDuration":110294,"Delta":260545222},{"NoteNumber":67,"Velocity":39,"Duration":108173,"SoundDuration":108173,"Delta":260839340},{"NoteNumber":47,"Velocity":35,"Duration":108173,"SoundDuration":108173,"Delta":260839340},{"NoteNumber":50,"Velocity":35,"Duration":108173,"SoundDuration":108173,"Delta":260839340},{"NoteNumber":55,"Velocity":35,"Duration":108173,"SoundDuration":108173,"Delta":260839340},{"NoteNumber":72,"Velocity":48,"Duration":106132,"SoundDuration":106132,"Delta":261127801},{"NoteNumber":48,"Velocity":42,"Duration":106132,"SoundDuration":106132,"Delta":261127801},{"NoteNumber":51,"Velocity":42,"Duration":106132,"SoundDuration":106132,"Delta":261127801},{"NoteNumber":55,"Velocity":42,"Duration":106132,"SoundDuration":106132,"Delta":261127801},{"NoteNumber":70,"Velocity":65,"Duration":136363,"SoundDuration":136363,"Delta":261410820},{"NoteNumber":82,"Velocity":65,"Duration":136363,"SoundDuration":136363,"Delta":261410820},{"NoteNumber":50,"Velocity":49,"Duration":136363,"SoundDuration":136363,"Delta":261410820},{"NoteNumber":53,"Velocity":49,"Duration":136363,"SoundDuration":136363,"Delta":261410820},{"NoteNumber":58,"Velocity":49,"Duration":136363,"SoundDuration":136363,"Delta":261410820},{"NoteNumber":70,"Velocity":67,"Duration":133928,"SoundDuration":133928,"Delta":261683548},{"NoteNumber":82,"Velocity":67,"Duration":133928,"SoundDuration":133928,"Delta":261683548},{"NoteNumber":53,"Velocity":52,"Duration":133928,"SoundDuration":133928,"Delta":261683548},{"NoteNumber":56,"Velocity":52,"Duration":133928,"SoundDuration":133928,"Delta":261683548},{"NoteNumber":58,"Velocity":52,"Duration":133928,"SoundDuration":133928,"Delta":261683548},{"NoteNumber":87,"Velocity":70,"Duration":142857,"SoundDuration":142857,"Delta":261951405},{"NoteNumber":75,"Velocity":70,"Duration":142857,"SoundDuration":142857,"Delta":261951405},{"NoteNumber":51,"Velocity":49,"Duration":142857,"SoundDuration":142857,"Delta":261951405},{"NoteNumber":55,"Velocity":49,"Duration":142857,"SoundDuration":142857,"Delta":261951405},{"NoteNumber":58,"Velocity":49,"Duration":142857,"SoundDuration":142857,"Delta":261951405},{"NoteNumber":87,"Velocity":73,"Duration":138889,"SoundDuration":138889,"Delta":262237119},{"NoteNumber":75,"Velocity":73,"Duration":138889,"SoundDuration":138889,"Delta":262237119},{"NoteNumber":51,"Velocity":53,"Duration":138889,"SoundDuration":138889,"Delta":262237119},{"NoteNumber":55,"Velocity":53,"Duration":138889,"SoundDuration":138889,"Delta":262237119},{"NoteNumber":58,"Velocity":53,"Duration":138889,"SoundDuration":138889,"Delta":262237119},{"NoteNumber":86,"Velocity":71,"Duration":143225,"SoundDuration":143225,"Delta":262514897},{"NoteNumber":74,"Velocity":71,"Duration":143225,"SoundDuration":143225,"Delta":262514897},{"NoteNumber":54,"Velocity":51,"Duration":143225,"SoundDuration":143225,"Delta":262514897},{"NoteNumber":57,"Velocity":51,"Duration":143225,"SoundDuration":143225,"Delta":262514897},{"NoteNumber":62,"Velocity":51,"Duration":143225,"SoundDuration":143225,"Delta":262514897},{"NoteNumber":74,"Velocity":78,"Duration":143225,"SoundDuration":143225,"Delta":262801348},{"NoteNumber":86,"Velocity":78,"Duration":143225,"SoundDuration":143225,"Delta":262801348},{"NoteNumber":57,"Velocity":57,"Duration":143225,"SoundDuration":143225,"Delta":262801348},{"NoteNumber":60,"Velocity":57,"Duration":143225,"SoundDuration":143225,"Delta":262801348},{"NoteNumber":62,"Velocity":57,"Duration":143225,"SoundDuration":143225,"Delta":262801348},{"NoteNumber":91,"Velocity":77,"Duration":147058,"SoundDuration":147058,"Delta":263087799},{"NoteNumber":79,"Velocity":77,"Duration":147058,"SoundDuration":147058,"Delta":263087799},{"NoteNumber":55,"Velocity":55,"Duration":147058,"SoundDuration":147058,"Delta":263087799},{"NoteNumber":58,"Velocity":55,"Duration":147058,"SoundDuration":147058,"Delta":263087799},{"NoteNumber":62,"Velocity":55,"Duration":147058,"SoundDuration":147058,"Delta":263087799},{"NoteNumber":79,"Velocity":84,"Duration":147058,"SoundDuration":147058,"Delta":263381917},{"NoteNumber":91,"Velocity":84,"Duration":147058,"SoundDuration":147058,"Delta":263381917},{"NoteNumber":55,"Velocity":62,"Duration":147058,"SoundDuration":147058,"Delta":263381917},{"NoteNumber":58,"Velocity":62,"Duration":147058,"SoundDuration":147058,"Delta":263381917},{"NoteNumber":62,"Velocity":62,"Duration":147058,"SoundDuration":147058,"Delta":263381917},{"NoteNumber":89,"Velocity":70,"Duration":154910,"SoundDuration":154910,"Delta":263676034},{"NoteNumber":77,"Velocity":70,"Duration":154910,"SoundDuration":154910,"Delta":263676034},{"NoteNumber":43,"Velocity":49,"Duration":154910,"SoundDuration":154910,"Delta":263676034},{"NoteNumber":50,"Velocity":49,"Duration":154910,"SoundDuration":154910,"Delta":263676034},{"NoteNumber":59,"Velocity":49,"Duration":154910,"SoundDuration":154910,"Delta":263676034},{"NoteNumber":89,"Velocity":66,"Duration":1084338,"SoundDuration":1084338,"Delta":263985856},{"NoteNumber":77,"Velocity":66,"Duration":1084338,"SoundDuration":1084338,"Delta":263985856},{"NoteNumber":43,"Velocity":47,"Duration":1084338,"SoundDuration":1084338,"Delta":263985856},{"NoteNumber":50,"Velocity":47,"Duration":1084338,"SoundDuration":1084338,"Delta":263985856},{"NoteNumber":59,"Velocity":47,"Duration":1084338,"SoundDuration":1084338,"Delta":263985856},{"NoteNumber":71,"Velocity":48,"Duration":370370,"SoundDuration":370370,"Delta":265070194},{"NoteNumber":83,"Velocity":48,"Duration":370370,"SoundDuration":370370,"Delta":265070194},{"NoteNumber":65,"Velocity":37,"Duration":370370,"SoundDuration":370370,"Delta":265070194},{"NoteNumber":67,"Velocity":37,"Duration":370370,"SoundDuration":370370,"Delta":265070194},{"NoteNumber":55,"Velocity":37,"Duration":370370,"SoundDuration":370370,"Delta":265070194},{"NoteNumber":84,"Velocity":45,"Duration":1768694,"SoundDuration":1768694,"Delta":265440564},{"NoteNumber":72,"Velocity":45,"Duration":1768694,"SoundDuration":1768694,"Delta":265440564},{"NoteNumber":67,"Velocity":35,"Duration":1768694,"SoundDuration":1768694,"Delta":265440564},{"NoteNumber":64,"Velocity":35,"Duration":1768694,"SoundDuration":1768694,"Delta":265440564},{"NoteNumber":60,"Velocity":35,"Duration":1768694,"SoundDuration":1768694,"Delta":265440564}]}