{"title":"Nr. 5 in f-moll","artist":"Piano","durationMs":119418,"midiSha256":"71e89e7382a97b27651b7dba4a8df7e266194a556552f869e701ddf491f4c1df","midiObject":[{"NoteNumber":68,"Velocity":72,"Duration":265498,"SoundDuration":265498,"Delta":0},{"NoteNumber":72,"Velocity":72,"Duration":265498,"SoundDuration":265498,"Delta":0},{"NoteNumber":80,"Velocity":81,"Duration":265498,"SoundDuration":265498,"Delta":0},{"NoteNumber":41,"Velocity":61,"Duration":265498,"SoundDuration":265498,"Delta":0},{"NoteNumber":53,"Velocity":68,"Duration":265498,"SoundDuration":265498,"Delta":0},{"NoteNumber":79,"Velocity":77,"Duration":66886,"SoundDuration":66886,"Delta":265498},{"NoteNumber":68,"Velocity":69,"Duration":66886,"SoundDuration":66886,"Delta":265498},{"NoteNumber":72,"Velocity":69,"Duration":66886,"SoundDuration":66886,"Delta":265498},{"NoteNumber":53,"Velocity":66,"Duration":66886,"SoundDuration":66886,"Delta":265498},{"NoteNumber":77,"Velocity":77,"Duration":66886,"SoundDuration":66886,"Delta":399271},{"NoteNumber":72,"Velocity":69,"Duration":66886,"SoundDuration":66886,"Delta":399271},{"NoteNumber":68,"Velocity":69,"Duration":66886,"SoundDuration":66886,"Delta":399271},{"NoteNumber":53,"Velocity":66,"Duration":66886,"SoundDuration":66886,"Delta":399271},{"NoteNumber":68,"Velocity":72,"Duration":265498,"SoundDuration":265498,"Delta":533045},{"NoteNumber":77,"Velocity":81,"Duration":265498,"SoundDuration":265498,"Delta":533045},{"NoteNumber":72,"Velocity":72,"Duration":265498,"SoundDuration":265498,"Delta":533045},{"NoteNumber":41,"Velocity":61,"Duration":265498,"SoundDuration":265498,"Delta":533045},{"NoteNumber":53,"Velocity":68,"Duration":265498,"SoundDuration":265498,"Delta":533045},{"NoteNumber":68,"Velocity":70,"Duration":67060,"SoundDuration":67060,"Delta":798543},{"NoteNumber":72,"Velocity":78,"Duration":67060,"SoundDuration":67060,"Delta":798543},{"NoteNumber":53,"Velocity":66,"Duration":67060,"SoundDuration":67060,"Delta":798543},{"NoteNumber":72,"Velocity":78,"Duration":67059,"SoundDuration":67059,"Delta":932663},{"NoteNumber":68,"Velocity":70,"Duration":67059,"SoundDuration":67059,"Delta":932663},{"NoteNumber":53,"Velocity":65,"Duration":67059,"SoundDuration":67059,"Delta":932663},{"NoteNumber":77,"Velocity":81,"Duration":265498,"SoundDuration":265498,"Delta":1066783},{"NoteNumber":73,"Velocity":72,"Duration":265498,"SoundDuration":265498,"Delta":1066783},{"NoteNumber":70,"Velocity":72,"Duration":265498,"SoundDuration":265498,"Delta":1066783},{"NoteNumber":53,"Velocity":68,"Duration":265498,"SoundDuration":265498,"Delta":1066783},{"NoteNumber":41,"Velocity":61,"Duration":265498,"SoundDuration":265498,"Delta":1066783},{"NoteNumber":73,"Velocity":77,"Duration":66886,"SoundDuration":66886,"Delta":1332281},{"NoteNumber":70,"Velocity":69,"Duration":66886,"SoundDuration":66886,"Delta":1332281},{"NoteNumber":53,"Velocity":66,"Duration":66886,"SoundDuration":66886,"Delta":1332281},{"NoteNumber":70,"Velocity":68,"Duration":66886,"SoundDuration":66886,"Delta":1466054},{"NoteNumber":73,"Velocity":76,"Duration":66886,"SoundDuration":66886,"Delta":1466054},{"NoteNumber":53,"Velocity":66,"Duration":66886,"SoundDuration":66886,"Delta":1466054},{"NoteNumber":77,"Velocity":81,"Duration":259966,"SoundDuration":259966,"Delta":1599828},{"NoteNumber":68,"Velocity":72,"Duration":259966,"SoundDuration":259966,"Delta":1599828},{"NoteNumber":72,"Velocity":72,"Duration":259966,"SoundDuration":259966,"Delta":1599828},{"NoteNumber":41,"Velocity":61,"Duration":259966,"SoundDuration":259966,"Delta":1599828},{"NoteNumber":53,"Velocity":68,"Duration":259966,"SoundDuration":259966,"Delta":1599828},{"NoteNumber":68,"Velocity":49,"Duration":68119,"SoundDuration":68119,"Delta":1865326},{"NoteNumber":72,"Velocity":55,"Duration":68119,"SoundDuration":68119,"Delta":1865326},{"NoteNumber":53,"Velocity":45,"Duration":68119,"SoundDuration":68119,"Delta":1865326},{"NoteNumber":68,"Velocity":49,"Duration":68119,"SoundDuration":68119,"Delta":2001566},{"NoteNumber":72,"Velocity":55,"Duration":68119,"SoundDuration":68119,"Delta":2001566},{"NoteNumber":53,"Velocity":45,"Duration":68119,"SoundDuration":68119,"Delta":2001566},{"NoteNumber":72,"Velocity":48,"Duration":265498,"SoundDuration":265498,"Delta":2137806},{"NoteNumber":68,"Velocity":43,"Duration":265498,"SoundDuration":265498,"Delta":2137806},{"NoteNumber":41,"Velocity":40,"Duration":265498,"SoundDuration":265498,"Delta":2137806},{"NoteNumber":29,"Velocity":36,"Duration":265498,"SoundDuration":265498,"Delta":2137806},{"NoteNumber":67,"Velocity":43,"Duration":67060,"SoundDuration":67060,"Delta":2403304},{"NoteNumber":68,"Velocity":43,"Duration":67060,"SoundDuration":67060,"Delta":2403304},{"NoteNumber":72,"Velocity":48,"Duration":67060,"SoundDuration":67060,"Delta":2403304},{"NoteNumber":41,"Velocity":38,"Duration":67060,"SoundDuration":67060,"Delta":2403304},{"NoteNumber":68,"Velocity":40,"Duration":67060,"SoundDuration":67060,"Delta":2537423},{"NoteNumber":65,"Velocity":40,"Duration":67060,"SoundDuration":67060,"Delta":2537423},{"NoteNumber":72,"Velocity":45,"Duration":67060,"SoundDuration":67060,"Delta":2537423},{"NoteNumber":41,"Velocity":38,"Duration":67060,"SoundDuration":67060,"Delta":2537423},{"NoteNumber":65,"Velocity":40,"Duration":265498,"SoundDuration":265498,"Delta":2671544},{"NoteNumber":72,"Velocity":45,"Duration":265498,"SoundDuration":265498,"Delta":2671544},{"NoteNumber":68,"Velocity":40,"Duration":265498,"SoundDuration":265498,"Delta":2671544},{"NoteNumber":29,"Velocity":36,"Duration":265498,"SoundDuration":265498,"Delta":2671544},{"NoteNumber":41,"Velocity":40,"Duration":265498,"SoundDuration":265498,"Delta":2671544},{"NoteNumber":68,"Velocity":43,"Duration":67060,"SoundDuration":67060,"Delta":2937042},{"NoteNumber":60,"Velocity":43,"Duration":67060,"SoundDuration":67060,"Delta":2937042},{"NoteNumber":72,"Velocity":48,"Duration":67060,"SoundDuration":67060,"Delta":2937042},{"NoteNumber":41,"Velocity":38,"Duration":67060,"SoundDuration":67060,"Delta":2937042},{"NoteNumber":60,"Velocity":40,"Duration":67060,"SoundDuration":67060,"Delta":3071161},{"NoteNumber":72,"Velocity":45,"Duration":67060,"SoundDuration":67060,"Delta":3071161},{"NoteNumber":68,"Velocity":40,"Duration":67060,"SoundDuration":67060,"Delta":3071161},{"NoteNumber":41,"Velocity":38,"Duration":67060,"SoundDuration":67060,"Delta":3071161},{"NoteNumber":73,"Velocity":45,"Duration":265498,"SoundDuration":265498,"Delta":3205282},{"NoteNumber":70,"Velocity":40,"Duration":265498,"SoundDuration":265498,"Delta":3205282},{"NoteNumber":65,"Velocity":40,"Duration":265498,"SoundDuration":265498,"Delta":3205282},{"NoteNumber":29,"Velocity":36,"Duration":265498,"SoundDuration":265498,"Delta":3205282},{"NoteNumber":41,"Velocity":40,"Duration":265498,"SoundDuration":265498,"Delta":3205282},{"NoteNumber":73,"Velocity":48,"Duration":66886,"SoundDuration":66886,"Delta":3470780},{"NoteNumber":61,"Velocity":43,"Duration":66886,"SoundDuration":66886,"Delta":3470780},{"NoteNumber":70,"Velocity":43,"Duration":66886,"SoundDuration":66886,"Delta":3470780},{"NoteNumber":41,"Velocity":38,"Duration":66886,"SoundDuration":66886,"Delta":3470780},{"NoteNumber":61,"Velocity":40,"Duration":66886,"SoundDuration":66886,"Delta":3604553},{"NoteNumber":70,"Velocity":40,"Duration":66886,"SoundDuration":66886,"Delta":3604553},{"NoteNumber":73,"Velocity":45,"Duration":66886,"SoundDuration":66886,"Delta":3604553},{"NoteNumber":41,"Velocity":38,"Duration":66886,"SoundDuration":66886,"Delta":3604553},{"NoteNumber":68,"Velocity":40,"Duration":265498,"SoundDuration":265498,"Delta":3738327},{"NoteNumber":65,"Velocity":40,"Duration":265498,"SoundDuration":265498,"Delta":3738327},{"NoteNumber":72,"Velocity":45,"Duration":265498,"SoundDuration":265498,"Delta":3738327},{"NoteNumber":41,"Velocity":40,"Duration":265498,"SoundDuration":265498,"Delta":3738327},{"NoteNumber":29,"Velocity":36,"Duration":265498,"SoundDuration":265498,"Delta":3738327},{"NoteNumber":60,"Velocity":40,"Duration":67941,"SoundDuration":67941,"Delta":4003825},{"NoteNumber":72,"Velocity":45,"Duration":67941,"SoundDuration":67941,"Delta":4003825},{"NoteNumber":68,"Velocity":40,"Duration":67941,"SoundDuration":67941,"Delta":4003825},{"NoteNumber":41,"Velocity":38,"Duration":67941,"SoundDuration":67941,"Delta":4003825},{"NoteNumber":60,"Velocity":40,"Duration":67941,"SoundDuration":67941,"Delta":4139706},{"NoteNumber":68,"Velocity":40,"Duration":67941,"SoundDuration":67941,"Delta":4139706},{"NoteNumber":72,"Velocity":45,"Duration":67941,"SoundDuration":67941,"Delta":4139706},{"NoteNumber":41,"Velocity":38,"Duration":67941,"SoundDuration":67941,"Delta":4139706},{"NoteNumber":65,"Velocity":70,"Duration":265498,"SoundDuration":265498,"Delta":4275589},{"NoteNumber":71,"Velocity":78,"Duration":265498,"SoundDuration":265498,"Delta":4275589},{"NoteNumber":68,"Velocity":70,"Duration":265498,"SoundDuration":265498,"Delta":4275589},{"NoteNumber":53,"Velocity":67,"Duration":265498,"SoundDuration":265498,"Delta":4275589},{"NoteNumber":71,"Velocity":74,"Duration":66886,"SoundDuration":66886,"Delta":4541087},{"NoteNumber":68,"Velocity":66,"Duration":66886,"SoundDuration":66886,"Delta":4541087},{"NoteNumber":62,"Velocity":66,"Duration":66886,"SoundDuration":66886,"Delta":4541087},{"NoteNumber":50,"Velocity":62,"Duration":66886,"SoundDuration":66886,"Delta":4541087},{"NoteNumber":68,"Velocity":66,"Duration":66886,"SoundDuration":66886,"Delta":4674860},{"NoteNumber":71,"Velocity":74,"Duration":66886,"SoundDuration":66886,"Delta":4674860},{"NoteNumber":62,"Velocity":66,"Duration":66886,"SoundDuration":66886,"Delta":4674860},{"NoteNumber":50,"Velocity":62,"Duration":66886,"SoundDuration":66886,"Delta":4674860},{"NoteNumber":63,"Velocity":75,"Duration":265498,"SoundDuration":265498,"Delta":4808634},{"NoteNumber":72,"Velocity":84,"Duration":265498,"SoundDuration":265498,"Delta":4808634},{"NoteNumber":67,"Velocity":75,"Duration":265498,"SoundDuration":265498,"Delta":4808634},{"NoteNumber":51,"Velocity":69,"Duration":265498,"SoundDuration":265498,"Delta":4808634},{"NoteNumber":60,"Velocity":70,"Duration":67059,"SoundDuration":67059,"Delta":5074132},{"NoteNumber":67,"Velocity":70,"Duration":67059,"SoundDuration":67059,"Delta":5074132},{"NoteNumber":72,"Velocity":78,"Duration":67059,"SoundDuration":67059,"Delta":5074132},{"NoteNumber":48,"Velocity":65,"Duration":67059,"SoundDuration":67059,"Delta":5074132},{"NoteNumber":72,"Velocity":78,"Duration":67059,"SoundDuration":67059,"Delta":5208252},{"NoteNumber":67,"Velocity":70,"Duration":67059,"SoundDuration":67059,"Delta":5208252},{"NoteNumber":60,"Velocity":70,"Duration":67059,"SoundDuration":67059,"Delta":5208252},{"NoteNumber":48,"Velocity":65,"Duration":67059,"SoundDuration":67059,"Delta":5208252},{"NoteNumber":62,"Velocity":74,"Duration":265498,"SoundDuration":265498,"Delta":5342371},{"NoteNumber":74,"Velocity":83,"Duration":265498,"SoundDuration":265498,"Delta":5342371},{"NoteNumber":67,"Velocity":74,"Duration":265498,"SoundDuration":265498,"Delta":5342371},{"NoteNumber":47,"Velocity":69,"Duration":265498,"SoundDuration":265498,"Delta":5342371},{"NoteNumber":62,"Velocity":70,"Duration":67059,"SoundDuration":67059,"Delta":5607869},{"NoteNumber":71,"Velocity":78,"Duration":67059,"SoundDuration":67059,"Delta":5607869},{"NoteNumber":67,"Velocity":70,"Duration":67059,"SoundDuration":67059,"Delta":5607869},{"NoteNumber":43,"Velocity":66,"Duration":67059,"SoundDuration":67059,"Delta":5607869},{"NoteNumber":71,"Velocity":78,"Duration":67059,"SoundDuration":67059,"Delta":5741989},{"NoteNumber":67,"Velocity":70,"Duration":67059,"SoundDuration":67059,"Delta":5741989},{"NoteNumber":62,"Velocity":70,"Duration":67059,"SoundDuration":67059,"Delta":5741989},{"NoteNumber":43,"Velocity":66,"Duration":67059,"SoundDuration":67059,"Delta":5741989},{"NoteNumber":67,"Velocity":74,"Duration":265498,"SoundDuration":265498,"Delta":5876109},{"NoteNumber":63,"Velocity":74,"Duration":265498,"SoundDuration":265498,"Delta":5876109},{"NoteNumber":75,"Velocity":83,"Duration":265498,"SoundDuration":265498,"Delta":5876109},{"NoteNumber":48,"Velocity":70,"Duration":265498,"SoundDuration":265498,"Delta":5876109},{"NoteNumber":63,"Velocity":72,"Duration":66886,"SoundDuration":66886,"Delta":6141607},{"NoteNumber":72,"Velocity":81,"Duration":66886,"SoundDuration":66886,"Delta":6141607},{"NoteNumber":67,"Velocity":72,"Duration":66886,"SoundDuration":66886,"Delta":6141607},{"NoteNumber":43,"Velocity":70,"Duration":66886,"SoundDuration":66886,"Delta":6141607},{"NoteNumber":63,"Velocity":72,"Duration":66886,"SoundDuration":66886,"Delta":6275381},{"NoteNumber":67,"Velocity":72,"Duration":66886,"SoundDuration":66886,"Delta":6275381},{"NoteNumber":72,"Velocity":81,"Duration":66886,"SoundDuration":66886,"Delta":6275381},{"NoteNumber":43,"Velocity":70,"Duration":66886,"SoundDuration":66886,"Delta":6275381},{"NoteNumber":67,"Velocity":81,"Duration":265498,"SoundDuration":265498,"Delta":6409154},{"NoteNumber":77,"Velocity":90,"Duration":265498,"SoundDuration":265498,"Delta":6409154},{"NoteNumber":50,"Velocity":76,"Duration":265498,"SoundDuration":265498,"Delta":6409154},{"NoteNumber":79,"Velocity":87,"Duration":66886,"SoundDuration":66886,"Delta":6674652},{"NoteNumber":67,"Velocity":78,"Duration":66886,"SoundDuration":66886,"Delta":6674652},{"NoteNumber":43,"Velocity":73,"Duration":66886,"SoundDuration":66886,"Delta":6674652},{"NoteNumber":79,"Velocity":87,"Duration":66886,"SoundDuration":66886,"Delta":6808426},{"NoteNumber":67,"Velocity":78,"Duration":66886,"SoundDuration":66886,"Delta":6808426},{"NoteNumber":43,"Velocity":73,"Duration":66886,"SoundDuration":66886,"Delta":6808426},{"NoteNumber":67,"Velocity":82,"Duration":265498,"SoundDuration":265498,"Delta":6942199},{"NoteNumber":78,"Velocity":92,"Duration":265498,"SoundDuration":265498,"Delta":6942199},{"NoteNumber":51,"Velocity":78,"Duration":265498,"SoundDuration":265498,"Delta":6942199},{"NoteNumber":79,"Velocity":90,"Duration":66886,"SoundDuration":66886,"Delta":7207697},{"NoteNumber":67,"Velocity":81,"Duration":66886,"SoundDuration":66886,"Delta":7207697},{"NoteNumber":43,"Velocity":75,"Duration":66886,"SoundDuration":66886,"Delta":7207697},{"NoteNumber":67,"Velocity":81,"Duration":66886,"SoundDuration":66886,"Delta":7341471},{"NoteNumber":79,"Velocity":90,"Duration":66886,"SoundDuration":66886,"Delta":7341471},{"NoteNumber":43,"Velocity":75,"Duration":66886,"SoundDuration":66886,"Delta":7341471},{"NoteNumber":79,"Velocity":97,"Duration":274751,"SoundDuration":274751,"Delta":7475244},{"NoteNumber":67,"Velocity":87,"Duration":274751,"SoundDuration":274751,"Delta":7475244},{"NoteNumber":51,"Velocity":82,"Duration":274751,"SoundDuration":274751,"Delta":7475244},{"NoteNumber":80,"Velocity":97,"Duration":138798,"SoundDuration":138798,"Delta":7755841},{"NoteNumber":68,"Velocity":87,"Duration":138798,"SoundDuration":138798,"Delta":7755841},{"NoteNumber":77,"Velocity":87,"Duration":138798,"SoundDuration":138798,"Delta":7755841},{"NoteNumber":49,"Velocity":82,"Duration":138798,"SoundDuration":138798,"Delta":7755841},{"NoteNumber":37,"Velocity":73,"Duration":138798,"SoundDuration":138798,"Delta":7755841},{"NoteNumber":80,"Velocity":97,"Duration":138799,"SoundDuration":138799,"Delta":8033439},{"NoteNumber":77,"Velocity":87,"Duration":138799,"SoundDuration":138799,"Delta":8033439},{"NoteNumber":68,"Velocity":87,"Duration":138799,"SoundDuration":138799,"Delta":8033439},{"NoteNumber":49,"Velocity":82,"Duration":138799,"SoundDuration":138799,"Delta":8033439},{"NoteNumber":37,"Velocity":73,"Duration":138799,"SoundDuration":138799,"Delta":8033439},{"NoteNumber":68,"Velocity":87,"Duration":138798,"SoundDuration":138798,"Delta":8311037},{"NoteNumber":77,"Velocity":87,"Duration":138798,"SoundDuration":138798,"Delta":8311037},{"NoteNumber":80,"Velocity":97,"Duration":138798,"SoundDuration":138798,"Delta":8311037},{"NoteNumber":37,"Velocity":73,"Duration":138798,"SoundDuration":138798,"Delta":8311037},{"NoteNumber":49,"Velocity":82,"Duration":138798,"SoundDuration":138798,"Delta":8311037},{"NoteNumber":80,"Velocity":97,"Duration":140298,"SoundDuration":140298,"Delta":8588635},{"NoteNumber":77,"Velocity":87,"Duration":140298,"SoundDuration":140298,"Delta":8588635},{"NoteNumber":68,"Velocity":87,"Duration":140298,"SoundDuration":140298,"Delta":8588635},{"NoteNumber":37,"Velocity":73,"Duration":140298,"SoundDuration":140298,"Delta":8588635},{"NoteNumber":49,"Velocity":82,"Duration":140298,"SoundDuration":140298,"Delta":8588635},{"NoteNumber":73,"Velocity":87,"Duration":138058,"SoundDuration":138058,"Delta":8869232},{"NoteNumber":85,"Velocity":97,"Duration":138058,"SoundDuration":138058,"Delta":8869232},{"NoteNumber":80,"Velocity":87,"Duration":138058,"SoundDuration":138058,"Delta":8869232},{"NoteNumber":53,"Velocity":82,"Duration":138058,"SoundDuration":138058,"Delta":8869232},{"NoteNumber":41,"Velocity":73,"Duration":138058,"SoundDuration":138058,"Delta":8869232},{"NoteNumber":85,"Velocity":90,"Duration":276116,"SoundDuration":276116,"Delta":9145348},{"NoteNumber":80,"Velocity":81,"Duration":276116,"SoundDuration":276116,"Delta":9145348},{"NoteNumber":73,"Velocity":81,"Duration":276116,"SoundDuration":276116,"Delta":9145348},{"NoteNumber":53,"Velocity":67,"Duration":276116,"SoundDuration":276116,"Delta":9145348},{"NoteNumber":44,"Velocity":67,"Duration":276116,"SoundDuration":276116,"Delta":9145348},{"NoteNumber":56,"Velocity":75,"Duration":276116,"SoundDuration":276116,"Delta":9145348},{"NoteNumber":80,"Velocity":85,"Duration":69586,"SoundDuration":69586,"Delta":9421464},{"NoteNumber":85,"Velocity":95,"Duration":69586,"SoundDuration":69586,"Delta":9421464},{"NoteNumber":73,"Velocity":85,"Duration":69586,"SoundDuration":69586,"Delta":9421464},{"NoteNumber":53,"Velocity":72,"Duration":69586,"SoundDuration":69586,"Delta":9421464},{"NoteNumber":56,"Velocity":80,"Duration":69586,"SoundDuration":69586,"Delta":9421464},{"NoteNumber":44,"Velocity":72,"Duration":69586,"SoundDuration":69586,"Delta":9421464},{"NoteNumber":85,"Velocity":97,"Duration":69586,"SoundDuration":69586,"Delta":9560637},{"NoteNumber":73,"Velocity":87,"Duration":69586,"SoundDuration":69586,"Delta":9560637},{"NoteNumber":80,"Velocity":87,"Duration":69586,"SoundDuration":69586,"Delta":9560637},{"NoteNumber":53,"Velocity":73,"Duration":69586,"SoundDuration":69586,"Delta":9560637},{"NoteNumber":56,"Velocity":82,"Duration":69586,"SoundDuration":69586,"Delta":9560637},{"NoteNumber":44,"Velocity":73,"Duration":69586,"SoundDuration":69586,"Delta":9560637},{"NoteNumber":87,"Velocity":99,"Duration":275380,"SoundDuration":275380,"Delta":9699809},{"NoteNumber":84,"Velocity":89,"Duration":275380,"SoundDuration":275380,"Delta":9699809},{"NoteNumber":75,"Velocity":89,"Duration":275380,"SoundDuration":275380,"Delta":9699809},{"NoteNumber":44,"Velocity":75,"Duration":275380,"SoundDuration":275380,"Delta":9699809},{"NoteNumber":54,"Velocity":75,"Duration":275380,"SoundDuration":275380,"Delta":9699809},{"NoteNumber":56,"Velocity":84,"Duration":275380,"SoundDuration":275380,"Delta":9699809},{"NoteNumber":75,"Velocity":84,"Duration":69959,"SoundDuration":69959,"Delta":9975190},{"NoteNumber":87,"Velocity":94,"Duration":69959,"SoundDuration":69959,"Delta":9975190},{"NoteNumber":84,"Velocity":84,"Duration":69959,"SoundDuration":69959,"Delta":9975190},{"NoteNumber":54,"Velocity":72,"Duration":69959,"SoundDuration":69959,"Delta":9975190},{"NoteNumber":56,"Velocity":80,"Duration":69959,"SoundDuration":69959,"Delta":9975190},{"NoteNumber":44,"Velocity":72,"Duration":69959,"SoundDuration":69959,"Delta":9975190},{"NoteNumber":87,"Velocity":91,"Duration":69959,"SoundDuration":69959,"Delta":10115109},{"NoteNumber":84,"Velocity":81,"Duration":69959,"SoundDuration":69959,"Delta":10115109},{"NoteNumber":75,"Velocity":81,"Duration":69959,"SoundDuration":69959,"Delta":10115109},{"NoteNumber":54,"Velocity":70,"Duration":69959,"SoundDuration":69959,"Delta":10115109},{"NoteNumber":56,"Velocity":78,"Duration":69959,"SoundDuration":69959,"Delta":10115109},{"NoteNumber":44,"Velocity":70,"Duration":69959,"SoundDuration":69959,"Delta":10115109},{"NoteNumber":73,"Velocity":80,"Duration":137690,"SoundDuration":137690,"Delta":10255028},{"NoteNumber":85,"Velocity":89,"Duration":137690,"SoundDuration":137690,"Delta":10255028},{"NoteNumber":49,"Velocity":67,"Duration":137690,"SoundDuration":137690,"Delta":10255028},{"NoteNumber":53,"Velocity":67,"Duration":137690,"SoundDuration":137690,"Delta":10255028},{"NoteNumber":56,"Velocity":75,"Duration":137690,"SoundDuration":137690,"Delta":10255028},{"NoteNumber":83,"Velocity":92,"Duration":142227,"SoundDuration":142227,"Delta":10530409},{"NoteNumber":80,"Velocity":82,"Duration":142227,"SoundDuration":142227,"Delta":10530409},{"NoteNumber":71,"Velocity":82,"Duration":142227,"SoundDuration":142227,"Delta":10530409},{"NoteNumber":77,"Velocity":82,"Duration":142227,"SoundDuration":142227,"Delta":10530409},{"NoteNumber":37,"Velocity":69,"Duration":142227,"SoundDuration":142227,"Delta":10530409},{"NoteNumber":49,"Velocity":77,"Duration":142227,"SoundDuration":142227,"Delta":10530409},{"NoteNumber":84,"Velocity":92,"Duration":147073,"SoundDuration":147073,"Delta":10814864},{"NoteNumber":80,"Velocity":82,"Duration":147073,"SoundDuration":147073,"Delta":10814864},{"NoteNumber":77,"Velocity":82,"Duration":147073,"SoundDuration":147073,"Delta":10814864},{"NoteNumber":72,"Velocity":82,"Duration":147073,"SoundDuration":147073,"Delta":10814864},{"NoteNumber":36,"Velocity":69,"Duration":147073,"SoundDuration":147073,"Delta":10814864},{"NoteNumber":48,"Velocity":77,"Duration":147073,"SoundDuration":147073,"Delta":10814864},{"NoteNumber":79,"Velocity":82,"Duration":151377,"SoundDuration":151377,"Delta":11109010},{"NoteNumber":72,"Velocity":82,"Duration":151377,"SoundDuration":151377,"Delta":11109010},{"NoteNumber":76,"Velocity":82,"Duration":151377,"SoundDuration":151377,"Delta":11109010},{"NoteNumber":84,"Velocity":92,"Duration":151377,"SoundDuration":151377,"Delta":11109010},{"NoteNumber":48,"Velocity":77,"Duration":151377,"SoundDuration":151377,"Delta":11109010},{"NoteNumber":36,"Velocity":69,"Duration":151377,"SoundDuration":151377,"Delta":11109010},{"NoteNumber":72,"Velocity":66,"Duration":265498,"SoundDuration":265498,"Delta":11411338},{"NoteNumber":68,"Velocity":66,"Duration":265498,"SoundDuration":265498,"Delta":11411338},{"NoteNumber":80,"Velocity":74,"Duration":265498,"SoundDuration":265498,"Delta":11411338},{"NoteNumber":41,"Velocity":55,"Duration":265498,"SoundDuration":265498,"Delta":11411338},{"NoteNumber":53,"Velocity":62,"Duration":265498,"SoundDuration":265498,"Delta":11411338},{"NoteNumber":79,"Velocity":71,"Duration":66886,"SoundDuration":66886,"Delta":11676836},{"NoteNumber":72,"Velocity":63,"Duration":66886,"SoundDuration":66886,"Delta":11676836},{"NoteNumber":68,"Velocity":63,"Duration":66886,"SoundDuration":66886,"Delta":11676836},{"NoteNumber":53,"Velocity":61,"Duration":66886,"SoundDuration":66886,"Delta":11676836},{"NoteNumber":77,"Velocity":70,"Duration":66886,"SoundDuration":66886,"Delta":11810610},{"NoteNumber":72,"Velocity":63,"Duration":66886,"SoundDuration":66886,"Delta":11810610},{"NoteNumber":68,"Velocity":63,"Duration":66886,"SoundDuration":66886,"Delta":11810610},{"NoteNumber":53,"Velocity":61,"Duration":66886,"SoundDuration":66886,"Delta":11810610},{"NoteNumber":77,"Velocity":74,"Duration":265498,"SoundDuration":265498,"Delta":11944383},{"NoteNumber":72,"Velocity":66,"Duration":265498,"SoundDuration":265498,"Delta":11944383},{"NoteNumber":68,"Velocity":66,"Duration":265498,"SoundDuration":265498,"Delta":11944383},{"NoteNumber":41,"Velocity":55,"Duration":265498,"SoundDuration":265498,"Delta":11944383},{"NoteNumber":53,"Velocity":62,"Duration":265498,"SoundDuration":265498,"Delta":11944383},{"NoteNumber":68,"Velocity":64,"Duration":67059,"SoundDuration":67059,"Delta":12209881},{"NoteNumber":72,"Velocity":72,"Duration":67059,"SoundDuration":67059,"Delta":12209881},{"NoteNumber":53,"Velocity":61,"Duration":67059,"SoundDuration":67059,"Delta":12209881},{"NoteNumber":68,"Velocity":64,"Duration":67060,"SoundDuration":67060,"Delta":12344001},{"NoteNumber":72,"Velocity":72,"Duration":67060,"SoundDuration":67060,"Delta":12344001},{"NoteNumber":53,"Velocity":61,"Duration":67060,"SoundDuration":67060,"Delta":12344001},{"NoteNumber":77,"Velocity":75,"Duration":265497,"SoundDuration":265497,"Delta":12478121},{"NoteNumber":73,"Velocity":67,"Duration":265497,"SoundDuration":265497,"Delta":12478121},{"NoteNumber":70,"Velocity":67,"Duration":265497,"SoundDuration":265497,"Delta":12478121},{"NoteNumber":41,"Velocity":57,"Duration":265497,"SoundDuration":265497,"Delta":12478121},{"NoteNumber":53,"Velocity":64,"Duration":265497,"SoundDuration":265497,"Delta":12478121},{"NoteNumber":70,"Velocity":64,"Duration":66886,"SoundDuration":66886,"Delta":12743619},{"NoteNumber":73,"Velocity":72,"Duration":66886,"SoundDuration":66886,"Delta":12743619},{"NoteNumber":53,"Velocity":62,"Duration":66886,"SoundDuration":66886,"Delta":12743619},{"NoteNumber":70,"Velocity":64,"Duration":66886,"SoundDuration":66886,"Delta":12877393},{"NoteNumber":73,"Velocity":72,"Duration":66886,"SoundDuration":66886,"Delta":12877393},{"NoteNumber":53,"Velocity":62,"Duration":66886,"SoundDuration":66886,"Delta":12877393},{"NoteNumber":77,"Velocity":76,"Duration":259966,"SoundDuration":259966,"Delta":13011166},{"NoteNumber":72,"Velocity":68,"Duration":259966,"SoundDuration":259966,"Delta":13011166},{"NoteNumber":68,"Velocity":68,"Duration":259966,"SoundDuration":259966,"Delta":13011166},{"NoteNumber":41,"Velocity":58,"Duration":259966,"SoundDuration":259966,"Delta":13011166},{"NoteNumber":53,"Velocity":65,"Duration":259966,"SoundDuration":259966,"Delta":13011166},{"NoteNumber":68,"Velocity":48,"Duration":68120,"SoundDuration":68120,"Delta":13276664},{"NoteNumber":72,"Velocity":54,"Duration":68120,"SoundDuration":68120,"Delta":13276664},{"NoteNumber":53,"Velocity":45,"Duration":68120,"SoundDuration":68120,"Delta":13276664},{"NoteNumber":68,"Velocity":48,"Duration":68119,"SoundDuration":68119,"Delta":13412904},{"NoteNumber":72,"Velocity":54,"Duration":68119,"SoundDuration":68119,"Delta":13412904},{"NoteNumber":53,"Velocity":46,"Duration":68119,"SoundDuration":68119,"Delta":13412904},{"NoteNumber":68,"Velocity":43,"Duration":265497,"SoundDuration":265497,"Delta":13549144},{"NoteNumber":72,"Velocity":48,"Duration":265497,"SoundDuration":265497,"Delta":13549144},{"NoteNumber":29,"Velocity":36,"Duration":265497,"SoundDuration":265497,"Delta":13549144},{"NoteNumber":41,"Velocity":40,"Duration":265497,"SoundDuration":265497,"Delta":13549144},{"NoteNumber":67,"Velocity":43,"Duration":67059,"SoundDuration":67059,"Delta":13814642},{"NoteNumber":68,"Velocity":43,"Duration":67059,"SoundDuration":67059,"Delta":13814642},{"NoteNumber":72,"Velocity":48,"Duration":67059,"SoundDuration":67059,"Delta":13814642},{"NoteNumber":41,"Velocity":38,"Duration":67059,"SoundDuration":67059,"Delta":13814642},{"NoteNumber":65,"Velocity":40,"Duration":67060,"SoundDuration":67060,"Delta":13948762},{"NoteNumber":68,"Velocity":40,"Duration":67060,"SoundDuration":67060,"Delta":13948762},{"NoteNumber":72,"Velocity":45,"Duration":67060,"SoundDuration":67060,"Delta":13948762},{"NoteNumber":41,"Velocity":38,"Duration":67060,"SoundDuration":67060,"Delta":13948762},{"NoteNumber":65,"Velocity":40,"Duration":265497,"SoundDuration":265497,"Delta":14082882},{"NoteNumber":68,"Velocity":40,"Duration":265497,"SoundDuration":265497,"Delta":14082882},{"NoteNumber":72,"Velocity":45,"Duration":265497,"SoundDuration":265497,"Delta":14082882},{"NoteNumber":29,"Velocity":36,"Duration":265497,"SoundDuration":265497,"Delta":14082882},{"NoteNumber":41,"Velocity":40,"Duration":265497,"SoundDuration":265497,"Delta":14082882},{"NoteNumber":60,"Velocity":43,"Duration":67059,"SoundDuration":67059,"Delta":14348380},{"NoteNumber":68,"Velocity":43,"Duration":67059,"SoundDuration":67059,"Delta":14348380},{"NoteNumber":72,"Velocity":48,"Duration":67059,"SoundDuration":67059,"Delta":14348380},{"NoteNumber":41,"Velocity":38,"Duration":67059,"SoundDuration":67059,"Delta":14348380},{"NoteNumber":60,"Velocity":40,"Duration":67060,"SoundDuration":67060,"Delta":14482500},{"NoteNumber":68,"Velocity":40,"Duration":67060,"SoundDuration":67060,"Delta":14482500},{"NoteNumber":72,"Velocity":45,"Duration":67060,"SoundDuration":67060,"Delta":14482500},{"NoteNumber":41,"Velocity":38,"Duration":67060,"SoundDuration":67060,"Delta":14482500},{"NoteNumber":73,"Velocity":45,"Duration":265497,"SoundDuration":265497,"Delta":14616620},{"NoteNumber":70,"Velocity":40,"Duration":265497,"SoundDuration":265497,"Delta":14616620},{"NoteNumber":65,"Velocity":40,"Duration":265497,"SoundDuration":265497,"Delta":14616620},{"NoteNumber":29,"Velocity":36,"Duration":265497,"SoundDuration":265497,"Delta":14616620},{"NoteNumber":41,"Velocity":40,"Duration":265497,"SoundDuration":265497,"Delta":14616620},{"NoteNumber":61,"Velocity":43,"Duration":66886,"SoundDuration":66886,"Delta":14882118},{"NoteNumber":70,"Velocity":43,"Duration":66886,"SoundDuration":66886,"Delta":14882118},{"NoteNumber":73,"Velocity":48,"Duration":66886,"SoundDuration":66886,"Delta":14882118},{"NoteNumber":41,"Velocity":38,"Duration":66886,"SoundDuration":66886,"Delta":14882118},{"NoteNumber":61,"Velocity":40,"Duration":66886,"SoundDuration":66886,"Delta":15015892},{"NoteNumber":70,"Velocity":40,"Duration":66886,"SoundDuration":66886,"Delta":15015892},{"NoteNumber":73,"Velocity":45,"Duration":66886,"SoundDuration":66886,"Delta":15015892},{"NoteNumber":41,"Velocity":38,"Duration":66886,"SoundDuration":66886,"Delta":15015892},{"NoteNumber":65,"Velocity":40,"Duration":265498,"SoundDuration":265498,"Delta":15149665},{"NoteNumber":68,"Velocity":40,"Duration":265498,"SoundDuration":265498,"Delta":15149665},{"NoteNumber":72,"Velocity":45,"Duration":265498,"SoundDuration":265498,"Delta":15149665},{"NoteNumber":29,"Velocity":36,"Duration":265498,"SoundDuration":265498,"Delta":15149665},{"NoteNumber":41,"Velocity":40,"Duration":265498,"SoundDuration":265498,"Delta":15149665},{"NoteNumber":60,"Velocity":40,"Duration":67940,"SoundDuration":67940,"Delta":15415163},{"NoteNumber":68,"Velocity":40,"Duration":67940,"SoundDuration":67940,"Delta":15415163},{"NoteNumber":72,"Velocity":45,"Duration":67940,"SoundDuration":67940,"Delta":15415163},{"NoteNumber":41,"Velocity":38,"Duration":67940,"SoundDuration":67940,"Delta":15415163},{"NoteNumber":60,"Velocity":40,"Duration":67940,"SoundDuration":67940,"Delta":15551045},{"NoteNumber":68,"Velocity":40,"Duration":67940,"SoundDuration":67940,"Delta":15551045},{"NoteNumber":72,"Velocity":45,"Duration":67940,"SoundDuration":67940,"Delta":15551045},{"NoteNumber":41,"Velocity":38,"Duration":67940,"SoundDuration":67940,"Delta":15551045},{"NoteNumber":71,"Velocity":78,"Duration":265497,"SoundDuration":265497,"Delta":15686927},{"NoteNumber":68,"Velocity":70,"Duration":265497,"SoundDuration":265497,"Delta":15686927},{"NoteNumber":65,"Velocity":70,"Duration":265497,"SoundDuration":265497,"Delta":15686927},{"NoteNumber":53,"Velocity":67,"Duration":265497,"SoundDuration":265497,"Delta":15686927},{"NoteNumber":71,"Velocity":74,"Duration":66886,"SoundDuration":66886,"Delta":15952425},{"NoteNumber":68,"Velocity":66,"Duration":66886,"SoundDuration":66886,"Delta":15952425},{"NoteNumber":62,"Velocity":66,"Duration":66886,"SoundDuration":66886,"Delta":15952425},{"NoteNumber":50,"Velocity":62,"Duration":66886,"SoundDuration":66886,"Delta":15952425},{"NoteNumber":71,"Velocity":74,"Duration":66886,"SoundDuration":66886,"Delta":16086199},{"NoteNumber":68,"Velocity":66,"Duration":66886,"SoundDuration":66886,"Delta":16086199},{"NoteNumber":62,"Velocity":66,"Duration":66886,"SoundDuration":66886,"Delta":16086199},{"NoteNumber":50,"Velocity":62,"Duration":66886,"SoundDuration":66886,"Delta":16086199},{"NoteNumber":63,"Velocity":75,"Duration":265498,"SoundDuration":265498,"Delta":16219972},{"NoteNumber":67,"Velocity":75,"Duration":265498,"SoundDuration":265498,"Delta":16219972},{"NoteNumber":72,"Velocity":84,"Duration":265498,"SoundDuration":265498,"Delta":16219972},{"NoteNumber":51,"Velocity":69,"Duration":265498,"SoundDuration":265498,"Delta":16219972},{"NoteNumber":60,"Velocity":70,"Duration":67060,"SoundDuration":67060,"Delta":16485470},{"NoteNumber":67,"Velocity":70,"Duration":67060,"SoundDuration":67060,"Delta":16485470},{"NoteNumber":72,"Velocity":78,"Duration":67060,"SoundDuration":67060,"Delta":16485470},{"NoteNumber":48,"Velocity":65,"Duration":67060,"SoundDuration":67060,"Delta":16485470},{"NoteNumber":60,"Velocity":70,"Duration":67060,"SoundDuration":67060,"Delta":16619590},{"NoteNumber":67,"Velocity":70,"Duration":67060,"SoundDuration":67060,"Delta":16619590},{"NoteNumber":72,"Velocity":78,"Duration":67060,"SoundDuration":67060,"Delta":16619590},{"NoteNumber":48,"Velocity":65,"Duration":67060,"SoundDuration":67060,"Delta":16619590},{"NoteNumber":62,"Velocity":74,"Duration":265498,"SoundDuration":265498,"Delta":16753710},{"NoteNumber":74,"Velocity":83,"Duration":265498,"SoundDuration":265498,"Delta":16753710},{"NoteNumber":67,"Velocity":74,"Duration":265498,"SoundDuration":265498,"Delta":16753710},{"NoteNumber":47,"Velocity":69,"Duration":265498,"SoundDuration":265498,"Delta":16753710},{"NoteNumber":71,"Velocity":78,"Duration":67060,"SoundDuration":67060,"Delta":17019208},{"NoteNumber":67,"Velocity":70,"Duration":67060,"SoundDuration":67060,"Delta":17019208},{"NoteNumber":62,"Velocity":70,"Duration":67060,"SoundDuration":67060,"Delta":17019208},{"NoteNumber":43,"Velocity":66,"Duration":67060,"SoundDuration":67060,"Delta":17019208},{"NoteNumber":71,"Velocity":78,"Duration":67060,"SoundDuration":67060,"Delta":17153328},{"NoteNumber":67,"Velocity":70,"Duration":67060,"SoundDuration":67060,"Delta":17153328},{"NoteNumber":62,"Velocity":70,"Duration":67060,"SoundDuration":67060,"Delta":17153328},{"NoteNumber":43,"Velocity":66,"Duration":67060,"SoundDuration":67060,"Delta":17153328},{"NoteNumber":63,"Velocity":74,"Duration":265498,"SoundDuration":265498,"Delta":17287448},{"NoteNumber":67,"Velocity":74,"Duration":265498,"SoundDuration":265498,"Delta":17287448},{"NoteNumber":75,"Velocity":83,"Duration":265498,"SoundDuration":265498,"Delta":17287448},{"NoteNumber":48,"Velocity":70,"Duration":265498,"SoundDuration":265498,"Delta":17287448},{"NoteNumber":63,"Velocity":72,"Duration":66886,"SoundDuration":66886,"Delta":17552946},{"NoteNumber":67,"Velocity":72,"Duration":66886,"SoundDuration":66886,"Delta":17552946},{"NoteNumber":72,"Velocity":81,"Duration":66886,"SoundDuration":66886,"Delta":17552946},{"NoteNumber":43,"Velocity":70,"Duration":66886,"SoundDuration":66886,"Delta":17552946},{"NoteNumber":63,"Velocity":72,"Duration":66886,"SoundDuration":66886,"Delta":17686720},{"NoteNumber":67,"Velocity":72,"Duration":66886,"SoundDuration":66886,"Delta":17686720},{"NoteNumber":72,"Velocity":81,"Duration":66886,"SoundDuration":66886,"Delta":17686720},{"NoteNumber":43,"Velocity":70,"Duration":66886,"SoundDuration":66886,"Delta":17686720},{"NoteNumber":77,"Velocity":90,"Duration":265498,"SoundDuration":265498,"Delta":17820493},{"NoteNumber":67,"Velocity":81,"Duration":265498,"SoundDuration":265498,"Delta":17820493},{"NoteNumber":50,"Velocity":76,"Duration":265498,"SoundDuration":265498,"Delta":17820493},{"NoteNumber":79,"Velocity":87,"Duration":66886,"SoundDuration":66886,"Delta":18085991},{"NoteNumber":67,"Velocity":78,"Duration":66886,"SoundDuration":66886,"Delta":18085991},{"NoteNumber":43,"Velocity":73,"Duration":66886,"SoundDuration":66886,"Delta":18085991},{"NoteNumber":79,"Velocity":87,"Duration":66886,"SoundDuration":66886,"Delta":18219765},{"NoteNumber":67,"Velocity":78,"Duration":66886,"SoundDuration":66886,"Delta":18219765},{"NoteNumber":43,"Velocity":73,"Duration":66886,"SoundDuration":66886,"Delta":18219765},{"NoteNumber":78,"Velocity":92,"Duration":265498,"SoundDuration":265498,"Delta":18353538},{"NoteNumber":67,"Velocity":82,"Duration":265498,"SoundDuration":265498,"Delta":18353538},{"NoteNumber":51,"Velocity":78,"Duration":265498,"SoundDuration":265498,"Delta":18353538},{"NoteNumber":79,"Velocity":90,"Duration":66886,"SoundDuration":66886,"Delta":18619036},{"NoteNumber":67,"Velocity":81,"Duration":66886,"SoundDuration":66886,"Delta":18619036},{"NoteNumber":43,"Velocity":75,"Duration":66886,"SoundDuration":66886,"Delta":18619036},{"NoteNumber":79,"Velocity":90,"Duration":66886,"SoundDuration":66886,"Delta":18752810},{"NoteNumber":67,"Velocity":81,"Duration":66886,"SoundDuration":66886,"Delta":18752810},{"NoteNumber":43,"Velocity":75,"Duration":66886,"SoundDuration":66886,"Delta":18752810},{"NoteNumber":79,"Velocity":97,"Duration":274751,"SoundDuration":274751,"Delta":18886583},{"NoteNumber":67,"Velocity":87,"Duration":274751,"SoundDuration":274751,"Delta":18886583},{"NoteNumber":51,"Velocity":82,"Duration":274751,"SoundDuration":274751,"Delta":18886583},{"NoteNumber":80,"Velocity":97,"Duration":138798,"SoundDuration":138798,"Delta":19167180},{"NoteNumber":77,"Velocity":87,"Duration":138798,"SoundDuration":138798,"Delta":19167180},{"NoteNumber":68,"Velocity":87,"Duration":138798,"SoundDuration":138798,"Delta":19167180},{"NoteNumber":37,"Velocity":73,"Duration":138798,"SoundDuration":138798,"Delta":19167180},{"NoteNumber":49,"Velocity":82,"Duration":138798,"SoundDuration":138798,"Delta":19167180},{"NoteNumber":80,"Velocity":97,"Duration":138798,"SoundDuration":138798,"Delta":19444778},{"NoteNumber":77,"Velocity":87,"Duration":138798,"SoundDuration":138798,"Delta":19444778},{"NoteNumber":68,"Velocity":87,"Duration":138798,"SoundDuration":138798,"Delta":19444778},{"NoteNumber":37,"Velocity":73,"Duration":138798,"SoundDuration":138798,"Delta":19444778},{"NoteNumber":49,"Velocity":82,"Duration":138798,"SoundDuration":138798,"Delta":19444778},{"NoteNumber":80,"Velocity":97,"Duration":138799,"SoundDuration":138799,"Delta":19722376},{"NoteNumber":77,"Velocity":87,"Duration":138799,"SoundDuration":138799,"Delta":19722376},{"NoteNumber":68,"Velocity":87,"Duration":138799,"SoundDuration":138799,"Delta":19722376},{"NoteNumber":37,"Velocity":73,"Duration":138799,"SoundDuration":138799,"Delta":19722376},{"NoteNumber":49,"Velocity":82,"Duration":138799,"SoundDuration":138799,"Delta":19722376},{"NoteNumber":80,"Velocity":97,"Duration":140298,"SoundDuration":140298,"Delta":19999974},{"NoteNumber":77,"Velocity":87,"Duration":140298,"SoundDuration":140298,"Delta":19999974},{"NoteNumber":68,"Velocity":87,"Duration":140298,"SoundDuration":140298,"Delta":19999974},{"NoteNumber":37,"Velocity":73,"Duration":140298,"SoundDuration":140298,"Delta":19999974},{"NoteNumber":49,"Velocity":82,"Duration":140298,"SoundDuration":140298,"Delta":19999974},{"NoteNumber":85,"Velocity":97,"Duration":138058,"SoundDuration":138058,"Delta":20280571},{"NoteNumber":80,"Velocity":87,"Duration":138058,"SoundDuration":138058,"Delta":20280571},{"NoteNumber":73,"Velocity":87,"Duration":138058,"SoundDuration":138058,"Delta":20280571},{"NoteNumber":41,"Velocity":73,"Duration":138058,"SoundDuration":138058,"Delta":20280571},{"NoteNumber":53,"Velocity":82,"Duration":138058,"SoundDuration":138058,"Delta":20280571},{"NoteNumber":85,"Velocity":90,"Duration":276115,"SoundDuration":276115,"Delta":20556687},{"NoteNumber":80,"Velocity":81,"Duration":276115,"SoundDuration":276115,"Delta":20556687},{"NoteNumber":73,"Velocity":81,"Duration":276115,"SoundDuration":276115,"Delta":20556687},{"NoteNumber":56,"Velocity":75,"Duration":276115,"SoundDuration":276115,"Delta":20556687},{"NoteNumber":53,"Velocity":67,"Duration":276115,"SoundDuration":276115,"Delta":20556687},{"NoteNumber":44,"Velocity":67,"Duration":276115,"SoundDuration":276115,"Delta":20556687},{"NoteNumber":85,"Velocity":95,"Duration":69586,"SoundDuration":69586,"Delta":20832803},{"NoteNumber":80,"Velocity":85,"Duration":69586,"SoundDuration":69586,"Delta":20832803},{"NoteNumber":73,"Velocity":85,"Duration":69586,"SoundDuration":69586,"Delta":20832803},{"NoteNumber":44,"Velocity":72,"Duration":69586,"SoundDuration":69586,"Delta":20832803},{"NoteNumber":53,"Velocity":72,"Duration":69586,"SoundDuration":69586,"Delta":20832803},{"NoteNumber":56,"Velocity":80,"Duration":69586,"SoundDuration":69586,"Delta":20832803},{"NoteNumber":85,"Velocity":97,"Duration":69586,"SoundDuration":69586,"Delta":20971976},{"NoteNumber":80,"Velocity":87,"Duration":69586,"SoundDuration":69586,"Delta":20971976},{"NoteNumber":73,"Velocity":87,"Duration":69586,"SoundDuration":69586,"Delta":20971976},{"NoteNumber":44,"Velocity":73,"Duration":69586,"SoundDuration":69586,"Delta":20971976},{"NoteNumber":53,"Velocity":73,"Duration":69586,"SoundDuration":69586,"Delta":20971976},{"NoteNumber":56,"Velocity":82,"Duration":69586,"SoundDuration":69586,"Delta":20971976},{"NoteNumber":87,"Velocity":99,"Duration":275380,"SoundDuration":275380,"Delta":21111148},{"NoteNumber":84,"Velocity":89,"Duration":275380,"SoundDuration":275380,"Delta":21111148},{"NoteNumber":75,"Velocity":89,"Duration":275380,"SoundDuration":275380,"Delta":21111148},{"NoteNumber":44,"Velocity":75,"Duration":275380,"SoundDuration":275380,"Delta":21111148},{"NoteNumber":56,"Velocity":84,"Duration":275380,"SoundDuration":275380,"Delta":21111148},{"NoteNumber":54,"Velocity":75,"Duration":275380,"SoundDuration":275380,"Delta":21111148},{"NoteNumber":87,"Velocity":94,"Duration":69959,"SoundDuration":69959,"Delta":21386529},{"NoteNumber":84,"Velocity":84,"Duration":69959,"SoundDuration":69959,"Delta":21386529},{"NoteNumber":75,"Velocity":84,"Duration":69959,"SoundDuration":69959,"Delta":21386529},{"NoteNumber":54,"Velocity":72,"Duration":69959,"SoundDuration":69959,"Delta":21386529},{"NoteNumber":56,"Velocity":80,"Duration":69959,"SoundDuration":69959,"Delta":21386529},{"NoteNumber":44,"Velocity":72,"Duration":69959,"SoundDuration":69959,"Delta":21386529},{"NoteNumber":87,"Velocity":91,"Duration":69959,"SoundDuration":69959,"Delta":21526448},{"NoteNumber":84,"Velocity":81,"Duration":69959,"SoundDuration":69959,"Delta":21526448},{"NoteNumber":75,"Velocity":81,"Duration":69959,"SoundDuration":69959,"Delta":21526448},{"NoteNumber":54,"Velocity":70,"Duration":69959,"SoundDuration":69959,"Delta":21526448},{"NoteNumber":56,"Velocity":78,"Duration":69959,"SoundDuration":69959,"Delta":21526448},{"NoteNumber":44,"Velocity":70,"Duration":69959,"SoundDuration":69959,"Delta":21526448},{"NoteNumber":85,"Velocity":89,"Duration":137690,"SoundDuration":137690,"Delta":21666367},{"NoteNumber":73,"Velocity":80,"Duration":137690,"SoundDuration":137690,"Delta":21666367},{"NoteNumber":49,"Velocity":67,"Duration":137690,"SoundDuration":137690,"Delta":21666367},{"NoteNumber":53,"Velocity":67,"Duration":137690,"SoundDuration":137690,"Delta":21666367},{"NoteNumber":56,"Velocity":75,"Duration":137690,"SoundDuration":137690,"Delta":21666367},{"NoteNumber":83,"Velocity":92,"Duration":142227,"SoundDuration":142227,"Delta":21941748},{"NoteNumber":80,"Velocity":82,"Duration":142227,"SoundDuration":142227,"Delta":21941748},{"NoteNumber":77,"Velocity":82,"Duration":142227,"SoundDuration":142227,"Delta":21941748},{"NoteNumber":71,"Velocity":82,"Duration":142227,"SoundDuration":142227,"Delta":21941748},{"NoteNumber":37,"Velocity":69,"Duration":142227,"SoundDuration":142227,"Delta":21941748},{"NoteNumber":49,"Velocity":77,"Duration":142227,"SoundDuration":142227,"Delta":21941748},{"NoteNumber":84,"Velocity":92,"Duration":142521,"SoundDuration":142521,"Delta":22226203},{"NoteNumber":80,"Velocity":82,"Duration":142521,"SoundDuration":142521,"Delta":22226203},{"NoteNumber":77,"Velocity":82,"Duration":142521,"SoundDuration":142521,"Delta":22226203},{"NoteNumber":72,"Velocity":82,"Duration":142521,"SoundDuration":142521,"Delta":22226203},{"NoteNumber":36,"Velocity":69,"Duration":142521,"SoundDuration":142521,"Delta":22226203},{"NoteNumber":48,"Velocity":77,"Duration":142521,"SoundDuration":142521,"Delta":22226203},{"NoteNumber":84,"Velocity":92,"Duration":144546,"SoundDuration":144546,"Delta":22512202},{"NoteNumber":79,"Velocity":82,"Duration":144546,"SoundDuration":144546,"Delta":22512202},{"NoteNumber":76,"Velocity":82,"Duration":144546,"SoundDuration":144546,"Delta":22512202},{"NoteNumber":72,"Velocity":82,"Duration":144546,"SoundDuration":144546,"Delta":22512202},{"NoteNumber":36,"Velocity":69,"Duration":144546,"SoundDuration":144546,"Delta":22512202},{"NoteNumber":48,"Velocity":77,"Duration":144546,"SoundDuration":144546,"Delta":22512202},{"NoteNumber":70,"Velocity":43,"Duration":265498,"SoundDuration":265498,"Delta":22802107},{"NoteNumber":72,"Velocity":48,"Duration":265498,"SoundDuration":265498,"Delta":22802107},{"NoteNumber":58,"Velocity":36,"Duration":265498,"SoundDuration":265498,"Delta":22802107},{"NoteNumber":60,"Velocity":40,"Duration":265498,"SoundDuration":265498,"Delta":22802107},{"NoteNumber":67,"Velocity":40,"Duration":66886,"SoundDuration":66886,"Delta":23067605},{"NoteNumber":72,"Velocity":45,"Duration":66886,"SoundDuration":66886,"Delta":23067605},{"NoteNumber":55,"Velocity":35,"Duration":66886,"SoundDuration":66886,"Delta":23067605},{"NoteNumber":60,"Velocity":39,"Duration":66886,"SoundDuration":66886,"Delta":23067605},{"NoteNumber":67,"Velocity":40,"Duration":66886,"SoundDuration":66886,"Delta":23201379},{"NoteNumber":72,"Velocity":45,"Duration":66886,"SoundDuration":66886,"Delta":23201379},{"NoteNumber":55,"Velocity":35,"Duration":66886,"SoundDuration":66886,"Delta":23201379},{"NoteNumber":60,"Velocity":39,"Duration":66886,"SoundDuration":66886,"Delta":23201379},{"NoteNumber":68,"Velocity":43,"Duration":265498,"SoundDuration":265498,"Delta":23335152},{"NoteNumber":72,"Velocity":48,"Duration":265498,"SoundDuration":265498,"Delta":23335152},{"NoteNumber":56,"Velocity":36,"Duration":265498,"SoundDuration":265498,"Delta":23335152},{"NoteNumber":60,"Velocity":40,"Duration":265498,"SoundDuration":265498,"Delta":23335152},{"NoteNumber":65,"Velocity":40,"Duration":66886,"SoundDuration":66886,"Delta":23600650},{"NoteNumber":72,"Velocity":45,"Duration":66886,"SoundDuration":66886,"Delta":23600650},{"NoteNumber":53,"Velocity":34,"Duration":66886,"SoundDuration":66886,"Delta":23600650},{"NoteNumber":60,"Velocity":38,"Duration":66886,"SoundDuration":66886,"Delta":23600650},{"NoteNumber":65,"Velocity":40,"Duration":66886,"SoundDuration":66886,"Delta":23734424},{"NoteNumber":72,"Velocity":45,"Duration":66886,"SoundDuration":66886,"Delta":23734424},{"NoteNumber":53,"Velocity":34,"Duration":66886,"SoundDuration":66886,"Delta":23734424},{"NoteNumber":60,"Velocity":38,"Duration":66886,"SoundDuration":66886,"Delta":23734424},{"NoteNumber":66,"Velocity":43,"Duration":265498,"SoundDuration":265498,"Delta":23868197},{"NoteNumber":68,"Velocity":48,"Duration":265498,"SoundDuration":265498,"Delta":23868197},{"NoteNumber":54,"Velocity":36,"Duration":265498,"SoundDuration":265498,"Delta":23868197},{"NoteNumber":56,"Velocity":40,"Duration":265498,"SoundDuration":265498,"Delta":23868197},{"NoteNumber":60,"Velocity":40,"Duration":67762,"SoundDuration":67762,"Delta":24133695},{"NoteNumber":68,"Velocity":45,"Duration":67762,"SoundDuration":67762,"Delta":24133695},{"NoteNumber":48,"Velocity":34,"Duration":67762,"SoundDuration":67762,"Delta":24133695},{"NoteNumber":56,"Velocity":38,"Duration":67762,"SoundDuration":67762,"Delta":24133695},{"NoteNumber":60,"Velocity":40,"Duration":67763,"SoundDuration":67763,"Delta":24269221},{"NoteNumber":68,"Velocity":45,"Duration":67763,"SoundDuration":67763,"Delta":24269221},{"NoteNumber":48,"Velocity":34,"Duration":67763,"SoundDuration":67763,"Delta":24269221},{"NoteNumber":56,"Velocity":38,"Duration":67763,"SoundDuration":67763,"Delta":24269221},{"NoteNumber":65,"Velocity":80,"Duration":67060,"SoundDuration":67060,"Delta":24404747},{"NoteNumber":68,"Velocity":80,"Duration":67060,"SoundDuration":67060,"Delta":24404747},{"NoteNumber":77,"Velocity":89,"Duration":67060,"SoundDuration":67060,"Delta":24404747},{"NoteNumber":37,"Velocity":68,"Duration":67060,"SoundDuration":67060,"Delta":24404747},{"NoteNumber":49,"Velocity":76,"Duration":67060,"SoundDuration":67060,"Delta":24404747},{"NoteNumber":65,"Velocity":80,"Duration":67060,"SoundDuration":67060,"Delta":24668517},{"NoteNumber":68,"Velocity":80,"Duration":67060,"SoundDuration":67060,"Delta":24668517},{"NoteNumber":73,"Velocity":89,"Duration":67060,"SoundDuration":67060,"Delta":24668517},{"NoteNumber":49,"Velocity":68,"Duration":67060,"SoundDuration":67060,"Delta":24668517},{"NoteNumber":56,"Velocity":76,"Duration":67060,"SoundDuration":67060,"Delta":24668517},{"NoteNumber":66,"Velocity":43,"Duration":265498,"SoundDuration":265498,"Delta":24943171},{"NoteNumber":68,"Velocity":48,"Duration":265498,"SoundDuration":265498,"Delta":24943171},{"NoteNumber":54,"Velocity":36,"Duration":265498,"SoundDuration":265498,"Delta":24943171},{"NoteNumber":56,"Velocity":40,"Duration":265498,"SoundDuration":265498,"Delta":24943171},{"NoteNumber":60,"Velocity":40,"Duration":67941,"SoundDuration":67941,"Delta":25208669},{"NoteNumber":68,"Velocity":45,"Duration":67941,"SoundDuration":67941,"Delta":25208669},{"NoteNumber":48,"Velocity":34,"Duration":67941,"SoundDuration":67941,"Delta":25208669},{"NoteNumber":56,"Velocity":38,"Duration":67941,"SoundDuration":67941,"Delta":25208669},{"NoteNumber":60,"Velocity":40,"Duration":67941,"SoundDuration":67941,"Delta":25344551},{"NoteNumber":68,"Velocity":45,"Duration":67941,"SoundDuration":67941,"Delta":25344551},{"NoteNumber":48,"Velocity":34,"Duration":67941,"SoundDuration":67941,"Delta":25344551},{"NoteNumber":56,"Velocity":38,"Duration":67941,"SoundDuration":67941,"Delta":25344551},{"NoteNumber":65,"Velocity":80,"Duration":66329,"SoundDuration":66329,"Delta":25480433},{"NoteNumber":68,"Velocity":80,"Duration":66329,"SoundDuration":66329,"Delta":25480433},{"NoteNumber":77,"Velocity":89,"Duration":66329,"SoundDuration":66329,"Delta":25480433},{"NoteNumber":37,"Velocity":67,"Duration":66329,"SoundDuration":66329,"Delta":25480433},{"NoteNumber":49,"Velocity":75,"Duration":66329,"SoundDuration":66329,"Delta":25480433},{"NoteNumber":65,"Velocity":80,"Duration":66329,"SoundDuration":66329,"Delta":25743521},{"NoteNumber":68,"Velocity":80,"Duration":66329,"SoundDuration":66329,"Delta":25743521},{"NoteNumber":73,"Velocity":89,"Duration":66329,"SoundDuration":66329,"Delta":25743521},{"NoteNumber":49,"Velocity":67,"Duration":66329,"SoundDuration":66329,"Delta":25743521},{"NoteNumber":56,"Velocity":75,"Duration":66329,"SoundDuration":66329,"Delta":25743521},{"NoteNumber":75,"Velocity":43,"Duration":265498,"SoundDuration":265498,"Delta":26017717},{"NoteNumber":77,"Velocity":48,"Duration":265498,"SoundDuration":265498,"Delta":26017717},{"NoteNumber":63,"Velocity":36,"Duration":265498,"SoundDuration":265498,"Delta":26017717},{"NoteNumber":65,"Velocity":40,"Duration":265498,"SoundDuration":265498,"Delta":26017717},{"NoteNumber":72,"Velocity":40,"Duration":66886,"SoundDuration":66886,"Delta":26283215},{"NoteNumber":77,"Velocity":45,"Duration":66886,"SoundDuration":66886,"Delta":26283215},{"NoteNumber":60,"Velocity":35,"Duration":66886,"SoundDuration":66886,"Delta":26283215},{"NoteNumber":65,"Velocity":39,"Duration":66886,"SoundDuration":66886,"Delta":26283215},{"NoteNumber":72,"Velocity":40,"Duration":66886,"SoundDuration":66886,"Delta":26416989},{"NoteNumber":77,"Velocity":45,"Duration":66886,"SoundDuration":66886,"Delta":26416989},{"NoteNumber":60,"Velocity":35,"Duration":66886,"SoundDuration":66886,"Delta":26416989},{"NoteNumber":65,"Velocity":39,"Duration":66886,"SoundDuration":66886,"Delta":26416989},{"NoteNumber":73,"Velocity":43,"Duration":265498,"SoundDuration":265498,"Delta":26550762},{"NoteNumber":77,"Velocity":48,"Duration":265498,"SoundDuration":265498,"Delta":26550762},{"NoteNumber":61,"Velocity":36,"Duration":265498,"SoundDuration":265498,"Delta":26550762},{"NoteNumber":65,"Velocity":40,"Duration":265498,"SoundDuration":265498,"Delta":26550762},{"NoteNumber":70,"Velocity":40,"Duration":66886,"SoundDuration":66886,"Delta":26816260},{"NoteNumber":77,"Velocity":45,"Duration":66886,"SoundDuration":66886,"Delta":26816260},{"NoteNumber":58,"Velocity":34,"Duration":66886,"SoundDuration":66886,"Delta":26816260},{"NoteNumber":65,"Velocity":38,"Duration":66886,"SoundDuration":66886,"Delta":26816260},{"NoteNumber":70,"Velocity":40,"Duration":66886,"SoundDuration":66886,"Delta":26950034},{"NoteNumber":77,"Velocity":45,"Duration":66886,"SoundDuration":66886,"Delta":26950034},{"NoteNumber":58,"Velocity":34,"Duration":66886,"SoundDuration":66886,"Delta":26950034},{"NoteNumber":65,"Velocity":38,"Duration":66886,"SoundDuration":66886,"Delta":26950034},{"NoteNumber":71,"Velocity":43,"Duration":265498,"SoundDuration":265498,"Delta":27083807},{"NoteNumber":73,"Velocity":48,"Duration":265498,"SoundDuration":265498,"Delta":27083807},{"NoteNumber":59,"Velocity":36,"Duration":265498,"SoundDuration":265498,"Delta":27083807},{"NoteNumber":61,"Velocity":40,"Duration":265498,"SoundDuration":265498,"Delta":27083807},{"NoteNumber":65,"Velocity":40,"Duration":68299,"SoundDuration":68299,"Delta":27349305},{"NoteNumber":73,"Velocity":45,"Duration":68299,"SoundDuration":68299,"Delta":27349305},{"NoteNumber":53,"Velocity":34,"Duration":68299,"SoundDuration":68299,"Delta":27349305},{"NoteNumber":61,"Velocity":38,"Duration":68299,"SoundDuration":68299,"Delta":27349305},{"NoteNumber":65,"Velocity":40,"Duration":68299,"SoundDuration":68299,"Delta":27485905},{"NoteNumber":73,"Velocity":45,"Duration":68299,"SoundDuration":68299,"Delta":27485905},{"NoteNumber":53,"Velocity":34,"Duration":68299,"SoundDuration":68299,"Delta":27485905},{"NoteNumber":61,"Velocity":38,"Duration":68299,"SoundDuration":68299,"Delta":27485905},{"NoteNumber":70,"Velocity":85,"Duration":66674,"SoundDuration":66674,"Delta":27622504},{"NoteNumber":73,"Velocity":85,"Duration":66674,"SoundDuration":66674,"Delta":27622504},{"NoteNumber":82,"Velocity":95,"Duration":66674,"SoundDuration":66674,"Delta":27622504},{"NoteNumber":42,"Velocity":72,"Duration":66674,"SoundDuration":66674,"Delta":27622504},{"NoteNumber":54,"Velocity":80,"Duration":66674,"SoundDuration":66674,"Delta":27622504},{"NoteNumber":70,"Velocity":84,"Duration":66674,"SoundDuration":66674,"Delta":27886960},{"NoteNumber":73,"Velocity":84,"Duration":66674,"SoundDuration":66674,"Delta":27886960},{"NoteNumber":78,"Velocity":94,"Duration":66674,"SoundDuration":66674,"Delta":27886960},{"NoteNumber":54,"Velocity":72,"Duration":66674,"SoundDuration":66674,"Delta":27886960},{"NoteNumber":61,"Velocity":80,"Duration":66674,"SoundDuration":66674,"Delta":27886960},{"NoteNumber":71,"Velocity":43,"Duration":265498,"SoundDuration":265498,"Delta":28162004},{"NoteNumber":73,"Velocity":48,"Duration":265498,"SoundDuration":265498,"Delta":28162004},{"NoteNumber":59,"Velocity":36,"Duration":265498,"SoundDuration":265498,"Delta":28162004},{"NoteNumber":61,"Velocity":40,"Duration":265498,"SoundDuration":265498,"Delta":28162004},{"NoteNumber":65,"Velocity":40,"Duration":68480,"SoundDuration":68480,"Delta":28427502},{"NoteNumber":73,"Velocity":45,"Duration":68480,"SoundDuration":68480,"Delta":28427502},{"NoteNumber":53,"Velocity":34,"Duration":68480,"SoundDuration":68480,"Delta":28427502},{"NoteNumber":61,"Velocity":38,"Duration":68480,"SoundDuration":68480,"Delta":28427502},{"NoteNumber":65,"Velocity":40,"Duration":68480,"SoundDuration":68480,"Delta":28564463},{"NoteNumber":73,"Velocity":45,"Duration":68480,"SoundDuration":68480,"Delta":28564463},{"NoteNumber":53,"Velocity":34,"Duration":68480,"SoundDuration":68480,"Delta":28564463},{"NoteNumber":61,"Velocity":38,"Duration":68480,"SoundDuration":68480,"Delta":28564463},{"NoteNumber":70,"Velocity":85,"Duration":66674,"SoundDuration":66674,"Delta":28701425},{"NoteNumber":73,"Velocity":85,"Duration":66674,"SoundDuration":66674,"Delta":28701425},{"NoteNumber":82,"Velocity":95,"Duration":66674,"SoundDuration":66674,"Delta":28701425},{"NoteNumber":42,"Velocity":70,"Duration":66674,"SoundDuration":66674,"Delta":28701425},{"NoteNumber":54,"Velocity":78,"Duration":66674,"SoundDuration":66674,"Delta":28701425},{"NoteNumber":70,"Velocity":85,"Duration":67163,"SoundDuration":67163,"Delta":28965880},{"NoteNumber":73,"Velocity":85,"Duration":67163,"SoundDuration":67163,"Delta":28965880},{"NoteNumber":78,"Velocity":95,"Duration":67163,"SoundDuration":67163,"Delta":28965880},{"NoteNumber":54,"Velocity":70,"Duration":67163,"SoundDuration":67163,"Delta":28965880},{"NoteNumber":61,"Velocity":78,"Duration":67163,"SoundDuration":67163,"Delta":28965880},{"NoteNumber":82,"Velocity":46,"Duration":66374,"SoundDuration":66374,"Delta":29241415},{"NoteNumber":49,"Velocity":44,"Duration":66374,"SoundDuration":66374,"Delta":29241415},{"NoteNumber":70,"Velocity":40,"Duration":66374,"SoundDuration":66374,"Delta":29374164},{"NoteNumber":78,"Velocity":40,"Duration":66374,"SoundDuration":66374,"Delta":29506913},{"NoteNumber":73,"Velocity":36,"Duration":66374,"SoundDuration":66374,"Delta":29506913},{"NoteNumber":54,"Velocity":38,"Duration":66374,"SoundDuration":66374,"Delta":29506913},{"NoteNumber":70,"Velocity":40,"Duration":66374,"SoundDuration":66374,"Delta":29639662},{"NoteNumber":78,"Velocity":44,"Duration":66374,"SoundDuration":66374,"Delta":29772411},{"NoteNumber":54,"Velocity":40,"Duration":66374,"SoundDuration":66374,"Delta":29772411},{"NoteNumber":66,"Velocity":39,"Duration":66374,"SoundDuration":66374,"Delta":29905160},{"NoteNumber":71,"Velocity":34,"Duration":66374,"SoundDuration":66374,"Delta":30037909},{"NoteNumber":74,"Velocity":38,"Duration":66374,"SoundDuration":66374,"Delta":30037909},{"NoteNumber":59,"Velocity":37,"Duration":66374,"SoundDuration":66374,"Delta":30037909},{"NoteNumber":66,"Velocity":38,"Duration":66374,"SoundDuration":66374,"Delta":30170658},{"NoteNumber":76,"Velocity":41,"Duration":66374,"SoundDuration":66374,"Delta":30303407},{"NoteNumber":42,"Velocity":39,"Duration":66374,"SoundDuration":66374,"Delta":30303407},{"NoteNumber":67,"Velocity":36,"Duration":66374,"SoundDuration":66374,"Delta":30436156},{"NoteNumber":70,"Velocity":32,"Duration":66374,"SoundDuration":66374,"Delta":30568905},{"NoteNumber":73,"Velocity":36,"Duration":66374,"SoundDuration":66374,"Delta":30568905},{"NoteNumber":54,"Velocity":36,"Duration":66374,"SoundDuration":66374,"Delta":30568905},{"NoteNumber":67,"Velocity":36,"Duration":66374,"SoundDuration":66374,"Delta":30701654},{"NoteNumber":73,"Velocity":38,"Duration":66374,"SoundDuration":66374,"Delta":30834403},{"NoteNumber":71,"Velocity":34,"Duration":66374,"SoundDuration":66374,"Delta":30834403},{"NoteNumber":42,"Velocity":34,"Duration":66374,"SoundDuration":66374,"Delta":30834403},{"NoteNumber":54,"Velocity":38,"Duration":66374,"SoundDuration":66374,"Delta":30834403},{"NoteNumber":66,"Velocity":32,"Duration":66374,"SoundDuration":66374,"Delta":30967152},{"NoteNumber":71,"Velocity":28,"Duration":66374,"SoundDuration":66374,"Delta":31099901},{"NoteNumber":74,"Velocity":32,"Duration":66374,"SoundDuration":66374,"Delta":31099901},{"NoteNumber":47,"Velocity":28,"Duration":66374,"SoundDuration":66374,"Delta":31099901},{"NoteNumber":54,"Velocity":32,"Duration":66374,"SoundDuration":66374,"Delta":31099901},{"NoteNumber":66,"Velocity":32,"Duration":66374,"SoundDuration":66374,"Delta":31232650},{"NoteNumber":79,"Velocity":40,"Duration":66374,"SoundDuration":66374,"Delta":31366259},{"NoteNumber":54,"Velocity":40,"Duration":66374,"SoundDuration":66374,"Delta":31366259},{"NoteNumber":70,"Velocity":36,"Duration":66374,"SoundDuration":66374,"Delta":31499008},{"NoteNumber":73,"Velocity":32,"Duration":66374,"SoundDuration":66374,"Delta":31631757},{"NoteNumber":76,"Velocity":36,"Duration":66374,"SoundDuration":66374,"Delta":31631757},{"NoteNumber":67,"Velocity":36,"Duration":66374,"SoundDuration":66374,"Delta":31631757},{"NoteNumber":70,"Velocity":36,"Duration":66374,"SoundDuration":66374,"Delta":31764506},{"NoteNumber":73,"Velocity":35,"Duration":66374,"SoundDuration":66374,"Delta":31897255},{"NoteNumber":78,"Velocity":39,"Duration":66374,"SoundDuration":66374,"Delta":31897255},{"NoteNumber":54,"Velocity":35,"Duration":66374,"SoundDuration":66374,"Delta":31897255},{"NoteNumber":66,"Velocity":39,"Duration":66374,"SoundDuration":66374,"Delta":31897255},{"NoteNumber":70,"Velocity":32,"Duration":66374,"SoundDuration":66374,"Delta":32030004},{"NoteNumber":74,"Velocity":28,"Duration":66374,"SoundDuration":66374,"Delta":32162753},{"NoteNumber":78,"Velocity":32,"Duration":66374,"SoundDuration":66374,"Delta":32162753},{"NoteNumber":59,"Velocity":28,"Duration":66374,"SoundDuration":66374,"Delta":32162753},{"NoteNumber":66,"Velocity":32,"Duration":66374,"SoundDuration":66374,"Delta":32162753},{"NoteNumber":71,"Velocity":32,"Duration":67538,"SoundDuration":67538,"Delta":32295502},{"NoteNumber":83,"Velocity":46,"Duration":66374,"SoundDuration":66374,"Delta":32431160},{"NoteNumber":50,"Velocity":45,"Duration":66374,"SoundDuration":66374,"Delta":32431160},{"NoteNumber":71,"Velocity":40,"Duration":66374,"SoundDuration":66374,"Delta":32563909},{"NoteNumber":74,"Velocity":36,"Duration":66374,"SoundDuration":66374,"Delta":32696658},{"NoteNumber":79,"Velocity":40,"Duration":66374,"SoundDuration":66374,"Delta":32696658},{"NoteNumber":55,"Velocity":40,"Duration":66374,"SoundDuration":66374,"Delta":32696658},{"NoteNumber":71,"Velocity":40,"Duration":66374,"SoundDuration":66374,"Delta":32829407},{"NoteNumber":79,"Velocity":44,"Duration":66374,"SoundDuration":66374,"Delta":32962156},{"NoteNumber":55,"Velocity":41,"Duration":66374,"SoundDuration":66374,"Delta":32962156},{"NoteNumber":67,"Velocity":33,"Duration":66374,"SoundDuration":66374,"Delta":33094905},{"NoteNumber":72,"Velocity":34,"Duration":66374,"SoundDuration":66374,"Delta":33227654},{"NoteNumber":75,"Velocity":38,"Duration":66374,"SoundDuration":66374,"Delta":33227654},{"NoteNumber":60,"Velocity":39,"Duration":66374,"SoundDuration":66374,"Delta":33227654},{"NoteNumber":67,"Velocity":38,"Duration":66374,"SoundDuration":66374,"Delta":33360403},{"NoteNumber":77,"Velocity":41,"Duration":66374,"SoundDuration":66374,"Delta":33493152},{"NoteNumber":43,"Velocity":40,"Duration":66374,"SoundDuration":66374,"Delta":33493152},{"NoteNumber":68,"Velocity":37,"Duration":66374,"SoundDuration":66374,"Delta":33625901},{"NoteNumber":71,"Velocity":33,"Duration":66374,"SoundDuration":66374,"Delta":33758650},{"NoteNumber":74,"Velocity":37,"Duration":66374,"SoundDuration":66374,"Delta":33758650},{"NoteNumber":55,"Velocity":36,"Duration":66374,"SoundDuration":66374,"Delta":33758650},{"NoteNumber":68,"Velocity":37,"Duration":66374,"SoundDuration":66374,"Delta":33891399},{"NoteNumber":74,"Velocity":40,"Duration":66374,"SoundDuration":66374,"Delta":34024148},{"NoteNumber":72,"Velocity":36,"Duration":66374,"SoundDuration":66374,"Delta":34024148},{"NoteNumber":43,"Velocity":34,"Duration":66374,"SoundDuration":66374,"Delta":34024148},{"NoteNumber":55,"Velocity":38,"Duration":66374,"SoundDuration":66374,"Delta":34024148},{"NoteNumber":67,"Velocity":33,"Duration":66374,"SoundDuration":66374,"Delta":34156897},{"NoteNumber":72,"Velocity":29,"Duration":66374,"SoundDuration":66374,"Delta":34289646},{"NoteNumber":75,"Velocity":33,"Duration":66374,"SoundDuration":66374,"Delta":34289646},{"NoteNumber":48,"Velocity":29,"Duration":66374,"SoundDuration":66374,"Delta":34289646},{"NoteNumber":55,"Velocity":33,"Duration":66374,"SoundDuration":66374,"Delta":34289646},{"NoteNumber":67,"Velocity":33,"Duration":66374,"SoundDuration":66374,"Delta":34422395},{"NoteNumber":80,"Velocity":44,"Duration":66374,"SoundDuration":66374,"Delta":34555144},{"NoteNumber":55,"Velocity":41,"Duration":66374,"SoundDuration":66374,"Delta":34555144},{"NoteNumber":71,"Velocity":37,"Duration":66374,"SoundDuration":66374,"Delta":34687893},{"NoteNumber":74,"Velocity":33,"Duration":66374,"SoundDuration":66374,"Delta":34820642},{"NoteNumber":77,"Velocity":37,"Duration":66374,"SoundDuration":66374,"Delta":34820642},{"NoteNumber":68,"Velocity":38,"Duration":66374,"SoundDuration":66374,"Delta":34820642},{"NoteNumber":71,"Velocity":35,"Duration":66374,"SoundDuration":66374,"Delta":34953391},{"NoteNumber":74,"Velocity":36,"Duration":66374,"SoundDuration":66374,"Delta":35086140},{"NoteNumber":79,"Velocity":40,"Duration":66374,"SoundDuration":66374,"Delta":35086140},{"NoteNumber":55,"Velocity":36,"Duration":66374,"SoundDuration":66374,"Delta":35086140},{"NoteNumber":67,"Velocity":40,"Duration":66374,"SoundDuration":66374,"Delta":35086140},{"NoteNumber":71,"Velocity":36,"Duration":66374,"SoundDuration":66374,"Delta":35218889},{"NoteNumber":75,"Velocity":32,"Duration":66374,"SoundDuration":66374,"Delta":35351638},{"NoteNumber":79,"Velocity":36,"Duration":66374,"SoundDuration":66374,"Delta":35351638},{"NoteNumber":60,"Velocity":32,"Duration":66374,"SoundDuration":66374,"Delta":35351638},{"NoteNumber":67,"Velocity":36,"Duration":66374,"SoundDuration":66374,"Delta":35351638},{"NoteNumber":72,"Velocity":36,"Duration":66665,"SoundDuration":66665,"Delta":35484387},{"NoteNumber":70,"Velocity":45,"Duration":66374,"SoundDuration":66374,"Delta":35619172},{"NoteNumber":67,"Velocity":45,"Duration":66374,"SoundDuration":66374,"Delta":35619172},{"NoteNumber":75,"Velocity":41,"Duration":66374,"SoundDuration":66374,"Delta":35751921},{"NoteNumber":74,"Velocity":41,"Duration":66374,"SoundDuration":66374,"Delta":35884670},{"NoteNumber":63,"Velocity":41,"Duration":66374,"SoundDuration":66374,"Delta":35884670},{"NoteNumber":75,"Velocity":41,"Duration":66374,"SoundDuration":66374,"Delta":36017419},{"NoteNumber":75,"Velocity":48,"Duration":66374,"SoundDuration":66374,"Delta":36150168},{"NoteNumber":63,"Velocity":47,"Duration":66374,"SoundDuration":66374,"Delta":36150168},{"NoteNumber":80,"Velocity":45,"Duration":66374,"SoundDuration":66374,"Delta":36282917},{"NoteNumber":79,"Velocity":45,"Duration":66374,"SoundDuration":66374,"Delta":36415666},{"NoteNumber":59,"Velocity":40,"Duration":66374,"SoundDuration":66374,"Delta":36415666},{"NoteNumber":63,"Velocity":45,"Duration":66374,"SoundDuration":66374,"Delta":36415666},{"NoteNumber":80,"Velocity":45,"Duration":67778,"SoundDuration":67778,"Delta":36548415},{"NoteNumber":87,"Velocity":54,"Duration":66374,"SoundDuration":66374,"Delta":36684675},{"NoteNumber":61,"Velocity":43,"Duration":66374,"SoundDuration":66374,"Delta":36684675},{"NoteNumber":63,"Velocity":48,"Duration":66374,"SoundDuration":66374,"Delta":36684675},{"NoteNumber":75,"Velocity":45,"Duration":66374,"SoundDuration":66374,"Delta":36817424},{"NoteNumber":79,"Velocity":45,"Duration":66374,"SoundDuration":66374,"Delta":36950173},{"NoteNumber":58,"Velocity":40,"Duration":66374,"SoundDuration":66374,"Delta":36950173},{"NoteNumber":63,"Velocity":45,"Duration":66374,"SoundDuration":66374,"Delta":36950173},{"NoteNumber":75,"Velocity":45,"Duration":66374,"SoundDuration":66374,"Delta":37082922},{"NoteNumber":75,"Velocity":50,"Duration":66374,"SoundDuration":66374,"Delta":37215671},{"NoteNumber":58,"Velocity":48,"Duration":66374,"SoundDuration":66374,"Delta":37215671},{"NoteNumber":63,"Velocity":48,"Duration":66374,"SoundDuration":66374,"Delta":37215671},{"NoteNumber":80,"Velocity":41,"Duration":66374,"SoundDuration":66374,"Delta":37348420},{"NoteNumber":79,"Velocity":41,"Duration":66374,"SoundDuration":66374,"Delta":37481169},{"NoteNumber":59,"Velocity":41,"Duration":66374,"SoundDuration":66374,"Delta":37481169},{"NoteNumber":63,"Velocity":41,"Duration":66374,"SoundDuration":66374,"Delta":37481169},{"NoteNumber":80,"Velocity":41,"Duration":67978,"SoundDuration":67978,"Delta":37613918},{"NoteNumber":78,"Velocity":48,"Duration":66374,"SoundDuration":66374,"Delta":37750196},{"NoteNumber":64,"Velocity":45,"Duration":66374,"SoundDuration":66374,"Delta":37750196},{"NoteNumber":66,"Velocity":42,"Duration":66374,"SoundDuration":66374,"Delta":37882945},{"NoteNumber":70,"Velocity":42,"Duration":66374,"SoundDuration":66374,"Delta":38015694},{"NoteNumber":61,"Velocity":41,"Duration":66374,"SoundDuration":66374,"Delta":38015694},{"NoteNumber":66,"Velocity":42,"Duration":66374,"SoundDuration":66374,"Delta":38148443},{"NoteNumber":66,"Velocity":47,"Duration":66374,"SoundDuration":66374,"Delta":38281192},{"NoteNumber":61,"Velocity":45,"Duration":66374,"SoundDuration":66374,"Delta":38281192},{"NoteNumber":71,"Velocity":43,"Duration":66374,"SoundDuration":66374,"Delta":38413941},{"NoteNumber":70,"Velocity":43,"Duration":66374,"SoundDuration":66374,"Delta":38546690},{"NoteNumber":63,"Velocity":41,"Duration":66374,"SoundDuration":66374,"Delta":38546690},{"NoteNumber":71,"Velocity":44,"Duration":66374,"SoundDuration":66374,"Delta":38679439},{"NoteNumber":71,"Velocity":51,"Duration":66374,"SoundDuration":66374,"Delta":38812188},{"NoteNumber":68,"Velocity":48,"Duration":66374,"SoundDuration":66374,"Delta":38812188},{"NoteNumber":76,"Velocity":47,"Duration":66374,"SoundDuration":66374,"Delta":38944937},{"NoteNumber":75,"Velocity":47,"Duration":66374,"SoundDuration":66374,"Delta":39077686},{"NoteNumber":64,"Velocity":45,"Duration":66374,"SoundDuration":66374,"Delta":39077686},{"NoteNumber":76,"Velocity":48,"Duration":66374,"SoundDuration":66374,"Delta":39210435},{"NoteNumber":76,"Velocity":59,"Duration":66374,"SoundDuration":66374,"Delta":39343184},{"NoteNumber":64,"Velocity":54,"Duration":66374,"SoundDuration":66374,"Delta":39343184},{"NoteNumber":81,"Velocity":54,"Duration":66374,"SoundDuration":66374,"Delta":39475933},{"NoteNumber":80,"Velocity":54,"Duration":66374,"SoundDuration":66374,"Delta":39608682},{"NoteNumber":60,"Velocity":48,"Duration":66374,"SoundDuration":66374,"Delta":39608682},{"NoteNumber":64,"Velocity":48,"Duration":66374,"SoundDuration":66374,"Delta":39608682},{"NoteNumber":81,"Velocity":54,"Duration":67181,"SoundDuration":67181,"Delta":39741431},{"NoteNumber":88,"Velocity":71,"Duration":66374,"SoundDuration":66374,"Delta":39876199},{"NoteNumber":62,"Velocity":53,"Duration":66374,"SoundDuration":66374,"Delta":39876199},{"NoteNumber":64,"Velocity":59,"Duration":66374,"SoundDuration":66374,"Delta":39876199},{"NoteNumber":76,"Velocity":60,"Duration":66374,"SoundDuration":66374,"Delta":40008948},{"NoteNumber":80,"Velocity":61,"Duration":66374,"SoundDuration":66374,"Delta":40141697},{"NoteNumber":59,"Velocity":48,"Duration":66374,"SoundDuration":66374,"Delta":40141697},{"NoteNumber":64,"Velocity":54,"Duration":66374,"SoundDuration":66374,"Delta":40141697},{"NoteNumber":76,"Velocity":61,"Duration":66374,"SoundDuration":66374,"Delta":40274446},{"NoteNumber":76,"Velocity":65,"Duration":66374,"SoundDuration":66374,"Delta":40407195},{"NoteNumber":59,"Velocity":52,"Duration":66374,"SoundDuration":66374,"Delta":40407195},{"NoteNumber":64,"Velocity":58,"Duration":66374,"SoundDuration":66374,"Delta":40407195},{"NoteNumber":81,"Velocity":60,"Duration":66374,"SoundDuration":66374,"Delta":40539944},{"NoteNumber":80,"Velocity":60,"Duration":66374,"SoundDuration":66374,"Delta":40672693},{"NoteNumber":60,"Velocity":48,"Duration":66374,"SoundDuration":66374,"Delta":40672693},{"NoteNumber":64,"Velocity":54,"Duration":66374,"SoundDuration":66374,"Delta":40672693},{"NoteNumber":81,"Velocity":60,"Duration":66374,"SoundDuration":66374,"Delta":40805442},{"NoteNumber":79,"Velocity":69,"Duration":66374,"SoundDuration":66374,"Delta":40938191},{"NoteNumber":65,"Velocity":59,"Duration":66374,"SoundDuration":66374,"Delta":40938191},{"NoteNumber":67,"Velocity":62,"Duration":66374,"SoundDuration":66374,"Delta":41070940},{"NoteNumber":71,"Velocity":62,"Duration":66374,"SoundDuration":66374,"Delta":41203689},{"NoteNumber":62,"Velocity":50,"Duration":66374,"SoundDuration":66374,"Delta":41203689},{"NoteNumber":67,"Velocity":62,"Duration":66374,"SoundDuration":66374,"Delta":41336438},{"NoteNumber":67,"Velocity":67,"Duration":66374,"SoundDuration":66374,"Delta":41469187},{"NoteNumber":62,"Velocity":58,"Duration":66374,"SoundDuration":66374,"Delta":41469187},{"NoteNumber":72,"Velocity":58,"Duration":66374,"SoundDuration":66374,"Delta":41601936},{"NoteNumber":71,"Velocity":58,"Duration":66374,"SoundDuration":66374,"Delta":41734685},{"NoteNumber":64,"Velocity":50,"Duration":65268,"SoundDuration":65268,"Delta":41734685},{"NoteNumber":72,"Velocity":58,"Duration":65710,"SoundDuration":65710,"Delta":41867434},{"NoteNumber":73,"Velocity":81,"Duration":265498,"SoundDuration":265498,"Delta":42005050},{"NoteNumber":61,"Velocity":68,"Duration":265498,"SoundDuration":265498,"Delta":42005050},{"NoteNumber":72,"Velocity":69,"Duration":100330,"SoundDuration":100330,"Delta":42270548},{"NoteNumber":73,"Velocity":77,"Duration":100330,"SoundDuration":100330,"Delta":42270548},{"NoteNumber":60,"Velocity":58,"Duration":100330,"SoundDuration":100330,"Delta":42270548},{"NoteNumber":61,"Velocity":65,"Duration":100330,"SoundDuration":100330,"Delta":42270548},{"NoteNumber":70,"Velocity":69,"Duration":100330,"SoundDuration":100330,"Delta":42404321},{"NoteNumber":73,"Velocity":77,"Duration":100330,"SoundDuration":100330,"Delta":42404321},{"NoteNumber":58,"Velocity":58,"Duration":100330,"SoundDuration":100330,"Delta":42404321},{"NoteNumber":61,"Velocity":65,"Duration":100330,"SoundDuration":100330,"Delta":42404321},{"NoteNumber":70,"Velocity":72,"Duration":265498,"SoundDuration":265498,"Delta":42538095},{"NoteNumber":73,"Velocity":81,"Duration":265498,"SoundDuration":265498,"Delta":42538095},{"NoteNumber":58,"Velocity":61,"Duration":265498,"SoundDuration":265498,"Delta":42538095},{"NoteNumber":61,"Velocity":68,"Duration":265498,"SoundDuration":265498,"Delta":42538095},{"NoteNumber":68,"Velocity":70,"Duration":100330,"SoundDuration":100330,"Delta":42803593},{"NoteNumber":73,"Velocity":78,"Duration":100330,"SoundDuration":100330,"Delta":42803593},{"NoteNumber":56,"Velocity":58,"Duration":100330,"SoundDuration":100330,"Delta":42803593},{"NoteNumber":61,"Velocity":65,"Duration":100330,"SoundDuration":100330,"Delta":42803593},{"NoteNumber":67,"Velocity":70,"Duration":100330,"SoundDuration":100330,"Delta":42937366},{"NoteNumber":73,"Velocity":78,"Duration":100330,"SoundDuration":100330,"Delta":42937366},{"NoteNumber":55,"Velocity":58,"Duration":100330,"SoundDuration":100330,"Delta":42937366},{"NoteNumber":61,"Velocity":65,"Duration":100330,"SoundDuration":100330,"Delta":42937366},{"NoteNumber":67,"Velocity":72,"Duration":265498,"SoundDuration":265498,"Delta":43071140},{"NoteNumber":70,"Velocity":72,"Duration":265498,"SoundDuration":265498,"Delta":43071140},{"NoteNumber":73,"Velocity":81,"Duration":265498,"SoundDuration":265498,"Delta":43071140},{"NoteNumber":55,"Velocity":61,"Duration":265498,"SoundDuration":265498,"Delta":43071140},{"NoteNumber":61,"Velocity":68,"Duration":265498,"SoundDuration":265498,"Delta":43071140},{"NoteNumber":65,"Velocity":69,"Duration":100589,"SoundDuration":100589,"Delta":43336638},{"NoteNumber":68,"Velocity":69,"Duration":100589,"SoundDuration":100589,"Delta":43336638},{"NoteNumber":73,"Velocity":77,"Duration":100589,"SoundDuration":100589,"Delta":43336638},{"NoteNumber":53,"Velocity":58,"Duration":100589,"SoundDuration":100589,"Delta":43336638},{"NoteNumber":61,"Velocity":65,"Duration":100589,"SoundDuration":100589,"Delta":43336638},{"NoteNumber":64,"Velocity":69,"Duration":106621,"SoundDuration":106621,"Delta":43470758},{"NoteNumber":67,"Velocity":69,"Duration":106621,"SoundDuration":106621,"Delta":43470758},{"NoteNumber":73,"Velocity":77,"Duration":106621,"SoundDuration":106621,"Delta":43470758},{"NoteNumber":52,"Velocity":58,"Duration":106621,"SoundDuration":106621,"Delta":43470758},{"NoteNumber":61,"Velocity":65,"Duration":106621,"SoundDuration":106621,"Delta":43470758},{"NoteNumber":84,"Velocity":100,"Duration":271763,"SoundDuration":271763,"Delta":43618672},{"NoteNumber":82,"Velocity":90,"Duration":271763,"SoundDuration":271763,"Delta":43618672},{"NoteNumber":79,"Velocity":90,"Duration":271763,"SoundDuration":271763,"Delta":43618672},{"NoteNumber":36,"Velocity":73,"Duration":271763,"SoundDuration":271763,"Delta":43618672},{"NoteNumber":48,"Velocity":82,"Duration":271763,"SoundDuration":271763,"Delta":43618672},{"NoteNumber":77,"Velocity":84,"Duration":106087,"SoundDuration":106087,"Delta":43890436},{"NoteNumber":80,"Velocity":84,"Duration":106087,"SoundDuration":106087,"Delta":43890436},{"NoteNumber":84,"Velocity":94,"Duration":106087,"SoundDuration":106087,"Delta":43890436},{"NoteNumber":48,"Velocity":79,"Duration":106087,"SoundDuration":106087,"Delta":43890436},{"NoteNumber":76,"Velocity":84,"Duration":101961,"SoundDuration":101961,"Delta":44031886},{"NoteNumber":79,"Velocity":84,"Duration":101961,"SoundDuration":101961,"Delta":44031886},{"NoteNumber":84,"Velocity":94,"Duration":101961,"SoundDuration":101961,"Delta":44031886},{"NoteNumber":48,"Velocity":79,"Duration":101961,"SoundDuration":101961,"Delta":44031886},{"NoteNumber":73,"Velocity":81,"Duration":265498,"SoundDuration":265498,"Delta":44173335},{"NoteNumber":61,"Velocity":68,"Duration":265498,"SoundDuration":265498,"Delta":44173335},{"NoteNumber":72,"Velocity":69,"Duration":100330,"SoundDuration":100330,"Delta":44438833},{"NoteNumber":73,"Velocity":77,"Duration":100330,"SoundDuration":100330,"Delta":44438833},{"NoteNumber":60,"Velocity":58,"Duration":100330,"SoundDuration":100330,"Delta":44438833},{"NoteNumber":61,"Velocity":65,"Duration":100330,"SoundDuration":100330,"Delta":44438833},{"NoteNumber":70,"Velocity":69,"Duration":100330,"SoundDuration":100330,"Delta":44572607},{"NoteNumber":73,"Velocity":77,"Duration":100330,"SoundDuration":100330,"Delta":44572607},{"NoteNumber":58,"Velocity":58,"Duration":100330,"SoundDuration":100330,"Delta":44572607},{"NoteNumber":61,"Velocity":65,"Duration":100330,"SoundDuration":100330,"Delta":44572607},{"NoteNumber":70,"Velocity":72,"Duration":265498,"SoundDuration":265498,"Delta":44706380},{"NoteNumber":73,"Velocity":81,"Duration":265498,"SoundDuration":265498,"Delta":44706380},{"NoteNumber":58,"Velocity":61,"Duration":265498,"SoundDuration":265498,"Delta":44706380},{"NoteNumber":61,"Velocity":68,"Duration":265498,"SoundDuration":265498,"Delta":44706380},{"NoteNumber":68,"Velocity":70,"Duration":100330,"SoundDuration":100330,"Delta":44971878},{"NoteNumber":73,"Velocity":78,"Duration":100330,"SoundDuration":100330,"Delta":44971878},{"NoteNumber":56,"Velocity":58,"Duration":100330,"SoundDuration":100330,"Delta":44971878},{"NoteNumber":61,"Velocity":65,"Duration":100330,"SoundDuration":100330,"Delta":44971878},{"NoteNumber":67,"Velocity":70,"Duration":100330,"SoundDuration":100330,"Delta":45105652},{"NoteNumber":73,"Velocity":78,"Duration":100330,"SoundDuration":100330,"Delta":45105652},{"NoteNumber":55,"Velocity":58,"Duration":100330,"SoundDuration":100330,"Delta":45105652},{"NoteNumber":61,"Velocity":65,"Duration":100330,"SoundDuration":100330,"Delta":45105652},{"NoteNumber":67,"Velocity":72,"Duration":265498,"SoundDuration":265498,"Delta":45239425},{"NoteNumber":70,"Velocity":72,"Duration":265498,"SoundDuration":265498,"Delta":45239425},{"NoteNumber":73,"Velocity":81,"Duration":265498,"SoundDuration":265498,"Delta":45239425},{"NoteNumber":55,"Velocity":61,"Duration":265498,"SoundDuration":265498,"Delta":45239425},{"NoteNumber":61,"Velocity":68,"Duration":265498,"SoundDuration":265498,"Delta":45239425},{"NoteNumber":65,"Velocity":69,"Duration":100589,"SoundDuration":100589,"Delta":45504923},{"NoteNumber":68,"Velocity":69,"Duration":100589,"SoundDuration":100589,"Delta":45504923},{"NoteNumber":73,"Velocity":77,"Duration":100589,"SoundDuration":100589,"Delta":45504923},{"NoteNumber":53,"Velocity":58,"Duration":100589,"SoundDuration":100589,"Delta":45504923},{"NoteNumber":61,"Velocity":65,"Duration":100589,"SoundDuration":100589,"Delta":45504923},{"NoteNumber":64,"Velocity":69,"Duration":106621,"SoundDuration":106621,"Delta":45639043},{"NoteNumber":67,"Velocity":69,"Duration":106621,"SoundDuration":106621,"Delta":45639043},{"NoteNumber":73,"Velocity":77,"Duration":106621,"SoundDuration":106621,"Delta":45639043},{"NoteNumber":52,"Velocity":58,"Duration":106621,"SoundDuration":106621,"Delta":45639043},{"NoteNumber":61,"Velocity":65,"Duration":106621,"SoundDuration":106621,"Delta":45639043},{"NoteNumber":84,"Velocity":99,"Duration":271763,"SoundDuration":271763,"Delta":45786958},{"NoteNumber":82,"Velocity":89,"Duration":271763,"SoundDuration":271763,"Delta":45786958},{"NoteNumber":79,"Velocity":89,"Duration":271763,"SoundDuration":271763,"Delta":45786958},{"NoteNumber":36,"Velocity":75,"Duration":271763,"SoundDuration":271763,"Delta":45786958},{"NoteNumber":48,"Velocity":84,"Duration":271763,"SoundDuration":271763,"Delta":45786958},{"NoteNumber":77,"Velocity":82,"Duration":106087,"SoundDuration":106087,"Delta":46058722},{"NoteNumber":80,"Velocity":82,"Duration":106087,"SoundDuration":106087,"Delta":46058722},{"NoteNumber":84,"Velocity":92,"Duration":106087,"SoundDuration":106087,"Delta":46058722},{"NoteNumber":48,"Velocity":79,"Duration":106087,"SoundDuration":106087,"Delta":46058722},{"NoteNumber":76,"Velocity":82,"Duration":101961,"SoundDuration":101961,"Delta":46200171},{"NoteNumber":79,"Velocity":82,"Duration":101961,"SoundDuration":101961,"Delta":46200171},{"NoteNumber":84,"Velocity":92,"Duration":101961,"SoundDuration":101961,"Delta":46200171},{"NoteNumber":48,"Velocity":79,"Duration":101961,"SoundDuration":101961,"Delta":46200171},{"NoteNumber":67,"Velocity":50,"Duration":265498,"SoundDuration":265498,"Delta":46341621},{"NoteNumber":70,"Velocity":50,"Duration":265498,"SoundDuration":265498,"Delta":46341621},{"NoteNumber":73,"Velocity":56,"Duration":265498,"SoundDuration":265498,"Delta":46341621},{"NoteNumber":55,"Velocity":40,"Duration":265498,"SoundDuration":265498,"Delta":46341621},{"NoteNumber":61,"Velocity":45,"Duration":265498,"SoundDuration":265498,"Delta":46341621},{"NoteNumber":65,"Velocity":44,"Duration":100589,"SoundDuration":100589,"Delta":46607119},{"NoteNumber":68,"Velocity":44,"Duration":100589,"SoundDuration":100589,"Delta":46607119},{"NoteNumber":73,"Velocity":49,"Duration":100589,"SoundDuration":100589,"Delta":46607119},{"NoteNumber":53,"Velocity":36,"Duration":100589,"SoundDuration":100589,"Delta":46607119},{"NoteNumber":61,"Velocity":40,"Duration":100589,"SoundDuration":100589,"Delta":46607119},{"NoteNumber":64,"Velocity":44,"Duration":113866,"SoundDuration":113866,"Delta":46741239},{"NoteNumber":67,"Velocity":44,"Duration":113866,"SoundDuration":113866,"Delta":46741239},{"NoteNumber":73,"Velocity":49,"Duration":113866,"SoundDuration":113866,"Delta":46741239},{"NoteNumber":52,"Velocity":36,"Duration":113866,"SoundDuration":113866,"Delta":46741239},{"NoteNumber":61,"Velocity":40,"Duration":113866,"SoundDuration":113866,"Delta":46741239},{"NoteNumber":84,"Velocity":97,"Duration":276854,"SoundDuration":276854,"Delta":46893061},{"NoteNumber":82,"Velocity":87,"Duration":276854,"SoundDuration":276854,"Delta":46893061},{"NoteNumber":79,"Velocity":87,"Duration":276854,"SoundDuration":276854,"Delta":46893061},{"NoteNumber":36,"Velocity":73,"Duration":276854,"SoundDuration":276854,"Delta":46893061},{"NoteNumber":48,"Velocity":82,"Duration":276854,"SoundDuration":276854,"Delta":46893061},{"NoteNumber":77,"Velocity":79,"Duration":107856,"SoundDuration":107856,"Delta":47169916},{"NoteNumber":80,"Velocity":79,"Duration":107856,"SoundDuration":107856,"Delta":47169916},{"NoteNumber":84,"Velocity":88,"Duration":107856,"SoundDuration":107856,"Delta":47169916},{"NoteNumber":48,"Velocity":79,"Duration":107856,"SoundDuration":107856,"Delta":47169916},{"NoteNumber":76,"Velocity":81,"Duration":107856,"SoundDuration":107856,"Delta":47313725},{"NoteNumber":79,"Velocity":81,"Duration":107856,"SoundDuration":107856,"Delta":47313725},{"NoteNumber":84,"Velocity":91,"Duration":107856,"SoundDuration":107856,"Delta":47313725},{"NoteNumber":48,"Velocity":79,"Duration":107856,"SoundDuration":107856,"Delta":47313725},{"NoteNumber":60,"Velocity":48,"Duration":132748,"SoundDuration":132748,"Delta":47457534},{"NoteNumber":48,"Velocity":40,"Duration":132748,"SoundDuration":132748,"Delta":47457534},{"NoteNumber":61,"Velocity":45,"Duration":66374,"SoundDuration":66374,"Delta":47723032},{"NoteNumber":49,"Velocity":38,"Duration":66374,"SoundDuration":66374,"Delta":47723032},{"NoteNumber":60,"Velocity":45,"Duration":66374,"SoundDuration":66374,"Delta":47855781},{"NoteNumber":48,"Velocity":38,"Duration":66374,"SoundDuration":66374,"Delta":47855781},{"NoteNumber":61,"Velocity":48,"Duration":132748,"SoundDuration":132748,"Delta":47988530},{"NoteNumber":49,"Velocity":40,"Duration":132748,"SoundDuration":132748,"Delta":47988530},{"NoteNumber":60,"Velocity":45,"Duration":66374,"SoundDuration":66374,"Delta":48254028},{"NoteNumber":48,"Velocity":38,"Duration":66374,"SoundDuration":66374,"Delta":48254028},{"NoteNumber":62,"Velocity":45,"Duration":66374,"SoundDuration":66374,"Delta":48386777},{"NoteNumber":50,"Velocity":38,"Duration":66374,"SoundDuration":66374,"Delta":48386777},{"NoteNumber":64,"Velocity":48,"Duration":132748,"SoundDuration":132748,"Delta":48519526},{"NoteNumber":52,"Velocity":40,"Duration":132748,"SoundDuration":132748,"Delta":48519526},{"NoteNumber":65,"Velocity":45,"Duration":66374,"SoundDuration":66374,"Delta":48785024},{"NoteNumber":53,"Velocity":38,"Duration":66374,"SoundDuration":66374,"Delta":48785024},{"NoteNumber":64,"Velocity":45,"Duration":66374,"SoundDuration":66374,"Delta":48917773},{"NoteNumber":52,"Velocity":38,"Duration":66374,"SoundDuration":66374,"Delta":48917773},{"NoteNumber":65,"Velocity":48,"Duration":132748,"SoundDuration":132748,"Delta":49050522},{"NoteNumber":53,"Velocity":39,"Duration":132748,"SoundDuration":132748,"Delta":49050522},{"NoteNumber":64,"Velocity":50,"Duration":66374,"SoundDuration":66374,"Delta":49316020},{"NoteNumber":52,"Velocity":42,"Duration":66374,"SoundDuration":66374,"Delta":49316020},{"NoteNumber":66,"Velocity":52,"Duration":66374,"SoundDuration":66374,"Delta":49448769},{"NoteNumber":54,"Velocity":44,"Duration":66374,"SoundDuration":66374,"Delta":49448769},{"NoteNumber":67,"Velocity":54,"Duration":265497,"SoundDuration":265497,"Delta":49581518},{"NoteNumber":55,"Velocity":45,"Duration":265497,"SoundDuration":265497,"Delta":49581518},{"NoteNumber":68,"Velocity":56,"Duration":132749,"SoundDuration":132749,"Delta":49847016},{"NoteNumber":56,"Velocity":47,"Duration":132749,"SoundDuration":132749,"Delta":49847016},{"NoteNumber":67,"Velocity":58,"Duration":132748,"SoundDuration":132748,"Delta":49979765},{"NoteNumber":55,"Velocity":49,"Duration":132748,"SoundDuration":132748,"Delta":49979765},{"NoteNumber":70,"Velocity":60,"Duration":265498,"SoundDuration":265498,"Delta":50112514},{"NoteNumber":58,"Velocity":51,"Duration":265498,"SoundDuration":265498,"Delta":50112514},{"NoteNumber":68,"Velocity":63,"Duration":132749,"SoundDuration":132749,"Delta":50378012},{"NoteNumber":56,"Velocity":54,"Duration":132749,"SoundDuration":132749,"Delta":50378012},{"NoteNumber":73,"Velocity":64,"Duration":132748,"SoundDuration":132748,"Delta":50510761},{"NoteNumber":61,"Velocity":55,"Duration":132748,"SoundDuration":132748,"Delta":50510761},{"NoteNumber":72,"Velocity":66,"Duration":265329,"SoundDuration":265329,"Delta":50643510},{"NoteNumber":60,"Velocity":56,"Duration":265329,"SoundDuration":265329,"Delta":50643510},{"NoteNumber":74,"Velocity":70,"Duration":133291,"SoundDuration":133291,"Delta":50908839},{"NoteNumber":62,"Velocity":60,"Duration":133291,"SoundDuration":133291,"Delta":50908839},{"NoteNumber":75,"Velocity":72,"Duration":133688,"SoundDuration":133688,"Delta":51042130},{"NoteNumber":63,"Velocity":61,"Duration":133688,"SoundDuration":133688,"Delta":51042130},{"NoteNumber":76,"Velocity":72,"Duration":275268,"SoundDuration":275268,"Delta":51175819},{"NoteNumber":64,"Velocity":62,"Duration":275268,"SoundDuration":275268,"Delta":51175819},{"NoteNumber":77,"Velocity":76,"Duration":143786,"SoundDuration":143786,"Delta":51451087},{"NoteNumber":65,"Velocity":65,"Duration":143786,"SoundDuration":143786,"Delta":51451087},{"NoteNumber":79,"Velocity":78,"Duration":153472,"SoundDuration":153472,"Delta":51594873},{"NoteNumber":67,"Velocity":67,"Duration":153472,"SoundDuration":153472,"Delta":51594873},{"NoteNumber":72,"Velocity":72,"Duration":265498,"SoundDuration":265498,"Delta":51748345},{"NoteNumber":68,"Velocity":72,"Duration":265498,"SoundDuration":265498,"Delta":51748345},{"NoteNumber":80,"Velocity":81,"Duration":265498,"SoundDuration":265498,"Delta":51748345},{"NoteNumber":41,"Velocity":68,"Duration":265498,"SoundDuration":265498,"Delta":51748345},{"NoteNumber":53,"Velocity":68,"Duration":265498,"SoundDuration":265498,"Delta":51748345},{"NoteNumber":79,"Velocity":77,"Duration":66886,"SoundDuration":66886,"Delta":52013843},{"NoteNumber":72,"Velocity":69,"Duration":66886,"SoundDuration":66886,"Delta":52013843},{"NoteNumber":68,"Velocity":69,"Duration":66886,"SoundDuration":66886,"Delta":52013843},{"NoteNumber":53,"Velocity":66,"Duration":66886,"SoundDuration":66886,"Delta":52013843},{"NoteNumber":77,"Velocity":77,"Duration":66886,"SoundDuration":66886,"Delta":52147617},{"NoteNumber":72,"Velocity":69,"Duration":66886,"SoundDuration":66886,"Delta":52147617},{"NoteNumber":68,"Velocity":69,"Duration":66886,"SoundDuration":66886,"Delta":52147617},{"NoteNumber":53,"Velocity":66,"Duration":66886,"SoundDuration":66886,"Delta":52147617},{"NoteNumber":77,"Velocity":81,"Duration":265498,"SoundDuration":265498,"Delta":52281390},{"NoteNumber":72,"Velocity":72,"Duration":265498,"SoundDuration":265498,"Delta":52281390},{"NoteNumber":68,"Velocity":72,"Duration":265498,"SoundDuration":265498,"Delta":52281390},{"NoteNumber":41,"Velocity":61,"Duration":265498,"SoundDuration":265498,"Delta":52281390},{"NoteNumber":53,"Velocity":68,"Duration":265498,"SoundDuration":265498,"Delta":52281390},{"NoteNumber":68,"Velocity":70,"Duration":67059,"SoundDuration":67059,"Delta":52546888},{"NoteNumber":72,"Velocity":78,"Duration":67059,"SoundDuration":67059,"Delta":52546888},{"NoteNumber":53,"Velocity":66,"Duration":67059,"SoundDuration":67059,"Delta":52546888},{"NoteNumber":68,"Velocity":70,"Duration":67059,"SoundDuration":67059,"Delta":52681008},{"NoteNumber":72,"Velocity":78,"Duration":67059,"SoundDuration":67059,"Delta":52681008},{"NoteNumber":53,"Velocity":65,"Duration":67059,"SoundDuration":67059,"Delta":52681008},{"NoteNumber":77,"Velocity":81,"Duration":265498,"SoundDuration":265498,"Delta":52815128},{"NoteNumber":73,"Velocity":72,"Duration":265498,"SoundDuration":265498,"Delta":52815128},{"NoteNumber":70,"Velocity":72,"Duration":265498,"SoundDuration":265498,"Delta":52815128},{"NoteNumber":41,"Velocity":61,"Duration":265498,"SoundDuration":265498,"Delta":52815128},{"NoteNumber":53,"Velocity":68,"Duration":265498,"SoundDuration":265498,"Delta":52815128},{"NoteNumber":70,"Velocity":69,"Duration":66886,"SoundDuration":66886,"Delta":53080626},{"NoteNumber":73,"Velocity":77,"Duration":66886,"SoundDuration":66886,"Delta":53080626},{"NoteNumber":53,"Velocity":66,"Duration":66886,"SoundDuration":66886,"Delta":53080626},{"NoteNumber":70,"Velocity":68,"Duration":66886,"SoundDuration":66886,"Delta":53214400},{"NoteNumber":73,"Velocity":76,"Duration":66886,"SoundDuration":66886,"Delta":53214400},{"NoteNumber":53,"Velocity":66,"Duration":66886,"SoundDuration":66886,"Delta":53214400},{"NoteNumber":77,"Velocity":81,"Duration":259966,"SoundDuration":259966,"Delta":53348173},{"NoteNumber":72,"Velocity":72,"Duration":259966,"SoundDuration":259966,"Delta":53348173},{"NoteNumber":68,"Velocity":72,"Duration":259966,"SoundDuration":259966,"Delta":53348173},{"NoteNumber":41,"Velocity":61,"Duration":259966,"SoundDuration":259966,"Delta":53348173},{"NoteNumber":53,"Velocity":68,"Duration":259966,"SoundDuration":259966,"Delta":53348173},{"NoteNumber":68,"Velocity":48,"Duration":68120,"SoundDuration":68120,"Delta":53613671},{"NoteNumber":72,"Velocity":54,"Duration":68120,"SoundDuration":68120,"Delta":53613671},{"NoteNumber":53,"Velocity":46,"Duration":68120,"SoundDuration":68120,"Delta":53613671},{"NoteNumber":68,"Velocity":48,"Duration":68120,"SoundDuration":68120,"Delta":53749911},{"NoteNumber":72,"Velocity":54,"Duration":68120,"SoundDuration":68120,"Delta":53749911},{"NoteNumber":53,"Velocity":46,"Duration":68120,"SoundDuration":68120,"Delta":53749911},{"NoteNumber":68,"Velocity":43,"Duration":265498,"SoundDuration":265498,"Delta":53886151},{"NoteNumber":72,"Velocity":48,"Duration":265498,"SoundDuration":265498,"Delta":53886151},{"NoteNumber":29,"Velocity":36,"Duration":265498,"SoundDuration":265498,"Delta":53886151},{"NoteNumber":41,"Velocity":40,"Duration":265498,"SoundDuration":265498,"Delta":53886151},{"NoteNumber":67,"Velocity":48,"Duration":67059,"SoundDuration":67059,"Delta":54151649},{"NoteNumber":68,"Velocity":43,"Duration":67059,"SoundDuration":67059,"Delta":54151649},{"NoteNumber":72,"Velocity":48,"Duration":67059,"SoundDuration":67059,"Delta":54151649},{"NoteNumber":41,"Velocity":38,"Duration":67059,"SoundDuration":67059,"Delta":54151649},{"NoteNumber":65,"Velocity":40,"Duration":67059,"SoundDuration":67059,"Delta":54285769},{"NoteNumber":68,"Velocity":40,"Duration":67059,"SoundDuration":67059,"Delta":54285769},{"NoteNumber":72,"Velocity":45,"Duration":67059,"SoundDuration":67059,"Delta":54285769},{"NoteNumber":41,"Velocity":38,"Duration":67059,"SoundDuration":67059,"Delta":54285769},{"NoteNumber":65,"Velocity":40,"Duration":265498,"SoundDuration":265498,"Delta":54419889},{"NoteNumber":68,"Velocity":40,"Duration":265498,"SoundDuration":265498,"Delta":54419889},{"NoteNumber":72,"Velocity":45,"Duration":265498,"SoundDuration":265498,"Delta":54419889},{"NoteNumber":29,"Velocity":36,"Duration":265498,"SoundDuration":265498,"Delta":54419889},{"NoteNumber":41,"Velocity":40,"Duration":265498,"SoundDuration":265498,"Delta":54419889},{"NoteNumber":60,"Velocity":43,"Duration":67059,"SoundDuration":67059,"Delta":54685387},{"NoteNumber":68,"Velocity":43,"Duration":67059,"SoundDuration":67059,"Delta":54685387},{"NoteNumber":72,"Velocity":48,"Duration":67059,"SoundDuration":67059,"Delta":54685387},{"NoteNumber":41,"Velocity":38,"Duration":67059,"SoundDuration":67059,"Delta":54685387},{"NoteNumber":60,"Velocity":40,"Duration":67059,"SoundDuration":67059,"Delta":54819507},{"NoteNumber":68,"Velocity":40,"Duration":67059,"SoundDuration":67059,"Delta":54819507},{"NoteNumber":72,"Velocity":45,"Duration":67059,"SoundDuration":67059,"Delta":54819507},{"NoteNumber":41,"Velocity":38,"Duration":67059,"SoundDuration":67059,"Delta":54819507},{"NoteNumber":73,"Velocity":45,"Duration":265498,"SoundDuration":265498,"Delta":54953627},{"NoteNumber":70,"Velocity":40,"Duration":265498,"SoundDuration":265498,"Delta":54953627},{"NoteNumber":65,"Velocity":40,"Duration":265498,"SoundDuration":265498,"Delta":54953627},{"NoteNumber":29,"Velocity":36,"Duration":265498,"SoundDuration":265498,"Delta":54953627},{"NoteNumber":41,"Velocity":40,"Duration":265498,"SoundDuration":265498,"Delta":54953627},{"NoteNumber":61,"Velocity":43,"Duration":66886,"SoundDuration":66886,"Delta":55219125},{"NoteNumber":70,"Velocity":43,"Duration":66886,"SoundDuration":66886,"Delta":55219125},{"NoteNumber":73,"Velocity":48,"Duration":66886,"SoundDuration":66886,"Delta":55219125},{"NoteNumber":41,"Velocity":38,"Duration":66886,"SoundDuration":66886,"Delta":55219125},{"NoteNumber":61,"Velocity":40,"Duration":66886,"SoundDuration":66886,"Delta":55352899},{"NoteNumber":70,"Velocity":40,"Duration":66886,"SoundDuration":66886,"Delta":55352899},{"NoteNumber":73,"Velocity":45,"Duration":66886,"SoundDuration":66886,"Delta":55352899},{"NoteNumber":41,"Velocity":38,"Duration":66886,"SoundDuration":66886,"Delta":55352899},{"NoteNumber":65,"Velocity":40,"Duration":265498,"SoundDuration":265498,"Delta":55486672},{"NoteNumber":68,"Velocity":40,"Duration":265498,"SoundDuration":265498,"Delta":55486672},{"NoteNumber":72,"Velocity":45,"Duration":265498,"SoundDuration":265498,"Delta":55486672},{"NoteNumber":29,"Velocity":36,"Duration":265498,"SoundDuration":265498,"Delta":55486672},{"NoteNumber":41,"Velocity":40,"Duration":265498,"SoundDuration":265498,"Delta":55486672},{"NoteNumber":60,"Velocity":40,"Duration":67940,"SoundDuration":67940,"Delta":55752170},{"NoteNumber":68,"Velocity":40,"Duration":67940,"SoundDuration":67940,"Delta":55752170},{"NoteNumber":72,"Velocity":45,"Duration":67940,"SoundDuration":67940,"Delta":55752170},{"NoteNumber":41,"Velocity":38,"Duration":67940,"SoundDuration":67940,"Delta":55752170},{"NoteNumber":60,"Velocity":40,"Duration":67940,"SoundDuration":67940,"Delta":55888052},{"NoteNumber":68,"Velocity":40,"Duration":67940,"SoundDuration":67940,"Delta":55888052},{"NoteNumber":72,"Velocity":45,"Duration":67940,"SoundDuration":67940,"Delta":55888052},{"NoteNumber":41,"Velocity":38,"Duration":67940,"SoundDuration":67940,"Delta":55888052},{"NoteNumber":76,"Velocity":55,"Duration":265498,"SoundDuration":265498,"Delta":56023934},{"NoteNumber":73,"Velocity":49,"Duration":265498,"SoundDuration":265498,"Delta":56023934},{"NoteNumber":70,"Velocity":49,"Duration":265498,"SoundDuration":265498,"Delta":56023934},{"NoteNumber":58,"Velocity":47,"Duration":265498,"SoundDuration":265498,"Delta":56023934},{"NoteNumber":76,"Velocity":52,"Duration":66886,"SoundDuration":66886,"Delta":56289432},{"NoteNumber":73,"Velocity":46,"Duration":66886,"SoundDuration":66886,"Delta":56289432},{"NoteNumber":67,"Velocity":46,"Duration":66886,"SoundDuration":66886,"Delta":56289432},{"NoteNumber":55,"Velocity":44,"Duration":66886,"SoundDuration":66886,"Delta":56289432},{"NoteNumber":76,"Velocity":52,"Duration":66886,"SoundDuration":66886,"Delta":56423206},{"NoteNumber":73,"Velocity":46,"Duration":66886,"SoundDuration":66886,"Delta":56423206},{"NoteNumber":67,"Velocity":46,"Duration":66886,"SoundDuration":66886,"Delta":56423206},{"NoteNumber":55,"Velocity":44,"Duration":66886,"SoundDuration":66886,"Delta":56423206},{"NoteNumber":68,"Velocity":54,"Duration":265498,"SoundDuration":265498,"Delta":56556979},{"NoteNumber":72,"Velocity":54,"Duration":265498,"SoundDuration":265498,"Delta":56556979},{"NoteNumber":77,"Velocity":61,"Duration":265498,"SoundDuration":265498,"Delta":56556979},{"NoteNumber":56,"Velocity":53,"Duration":265498,"SoundDuration":265498,"Delta":56556979},{"NoteNumber":65,"Velocity":52,"Duration":67059,"SoundDuration":67059,"Delta":56822477},{"NoteNumber":72,"Velocity":52,"Duration":67059,"SoundDuration":67059,"Delta":56822477},{"NoteNumber":77,"Velocity":58,"Duration":67059,"SoundDuration":67059,"Delta":56822477},{"NoteNumber":53,"Velocity":51,"Duration":67059,"SoundDuration":67059,"Delta":56822477},{"NoteNumber":65,"Velocity":52,"Duration":67059,"SoundDuration":67059,"Delta":56956597},{"NoteNumber":72,"Velocity":52,"Duration":67059,"SoundDuration":67059,"Delta":56956597},{"NoteNumber":77,"Velocity":58,"Duration":67059,"SoundDuration":67059,"Delta":56956597},{"NoteNumber":53,"Velocity":51,"Duration":67059,"SoundDuration":67059,"Delta":56956597},{"NoteNumber":67,"Velocity":60,"Duration":265498,"SoundDuration":265498,"Delta":57090717},{"NoteNumber":79,"Velocity":67,"Duration":265498,"SoundDuration":265498,"Delta":57090717},{"NoteNumber":72,"Velocity":60,"Duration":265498,"SoundDuration":265498,"Delta":57090717},{"NoteNumber":52,"Velocity":57,"Duration":265498,"SoundDuration":265498,"Delta":57090717},{"NoteNumber":76,"Velocity":60,"Duration":67059,"SoundDuration":67059,"Delta":57356215},{"NoteNumber":72,"Velocity":54,"Duration":67059,"SoundDuration":67059,"Delta":57356215},{"NoteNumber":67,"Velocity":54,"Duration":67059,"SoundDuration":67059,"Delta":57356215},{"NoteNumber":48,"Velocity":50,"Duration":67059,"SoundDuration":67059,"Delta":57356215},{"NoteNumber":76,"Velocity":60,"Duration":67059,"SoundDuration":67059,"Delta":57490335},{"NoteNumber":72,"Velocity":54,"Duration":67059,"SoundDuration":67059,"Delta":57490335},{"NoteNumber":67,"Velocity":54,"Duration":67059,"SoundDuration":67059,"Delta":57490335},{"NoteNumber":48,"Velocity":51,"Duration":67059,"SoundDuration":67059,"Delta":57490335},{"NoteNumber":68,"Velocity":65,"Duration":265498,"SoundDuration":265498,"Delta":57624455},{"NoteNumber":72,"Velocity":65,"Duration":265498,"SoundDuration":265498,"Delta":57624455},{"NoteNumber":80,"Velocity":73,"Duration":265498,"SoundDuration":265498,"Delta":57624455},{"NoteNumber":53,"Velocity":63,"Duration":265498,"SoundDuration":265498,"Delta":57624455},{"NoteNumber":68,"Velocity":61,"Duration":66886,"SoundDuration":66886,"Delta":57889953},{"NoteNumber":72,"Velocity":61,"Duration":66886,"SoundDuration":66886,"Delta":57889953},{"NoteNumber":77,"Velocity":68,"Duration":66886,"SoundDuration":66886,"Delta":57889953},{"NoteNumber":48,"Velocity":56,"Duration":66886,"SoundDuration":66886,"Delta":57889953},{"NoteNumber":68,"Velocity":61,"Duration":66886,"SoundDuration":66886,"Delta":58023727},{"NoteNumber":72,"Velocity":61,"Duration":66886,"SoundDuration":66886,"Delta":58023727},{"NoteNumber":77,"Velocity":68,"Duration":66886,"SoundDuration":66886,"Delta":58023727},{"NoteNumber":48,"Velocity":56,"Duration":66886,"SoundDuration":66886,"Delta":58023727},{"NoteNumber":82,"Velocity":84,"Duration":265498,"SoundDuration":265498,"Delta":58157500},{"NoteNumber":72,"Velocity":75,"Duration":265498,"SoundDuration":265498,"Delta":58157500},{"NoteNumber":55,"Velocity":72,"Duration":265498,"SoundDuration":265498,"Delta":58157500},{"NoteNumber":84,"Velocity":77,"Duration":66886,"SoundDuration":66886,"Delta":58422998},{"NoteNumber":72,"Velocity":69,"Duration":66886,"SoundDuration":66886,"Delta":58422998},{"NoteNumber":48,"Velocity":65,"Duration":66886,"SoundDuration":66886,"Delta":58422998},{"NoteNumber":84,"Velocity":77,"Duration":66886,"SoundDuration":66886,"Delta":58556772},{"NoteNumber":72,"Velocity":69,"Duration":66886,"SoundDuration":66886,"Delta":58556772},{"NoteNumber":48,"Velocity":65,"Duration":66886,"SoundDuration":66886,"Delta":58556772},{"NoteNumber":83,"Velocity":89,"Duration":265498,"SoundDuration":265498,"Delta":58690545},{"NoteNumber":72,"Velocity":80,"Duration":265498,"SoundDuration":265498,"Delta":58690545},{"NoteNumber":56,"Velocity":76,"Duration":265498,"SoundDuration":265498,"Delta":58690545},{"NoteNumber":84,"Velocity":85,"Duration":66886,"SoundDuration":66886,"Delta":58956043},{"NoteNumber":72,"Velocity":76,"Duration":66886,"SoundDuration":66886,"Delta":58956043},{"NoteNumber":48,"Velocity":72,"Duration":66886,"SoundDuration":66886,"Delta":58956043},{"NoteNumber":84,"Velocity":85,"Duration":66886,"SoundDuration":66886,"Delta":59089817},{"NoteNumber":72,"Velocity":76,"Duration":66886,"SoundDuration":66886,"Delta":59089817},{"NoteNumber":48,"Velocity":72,"Duration":66886,"SoundDuration":66886,"Delta":59089817},{"NoteNumber":84,"Velocity":97,"Duration":274751,"SoundDuration":274751,"Delta":59223590},{"NoteNumber":72,"Velocity":87,"Duration":274751,"SoundDuration":274751,"Delta":59223590},{"NoteNumber":56,"Velocity":82,"Duration":274751,"SoundDuration":274751,"Delta":59223590},{"NoteNumber":85,"Velocity":97,"Duration":138798,"SoundDuration":138798,"Delta":59504187},{"NoteNumber":82,"Velocity":87,"Duration":138798,"SoundDuration":138798,"Delta":59504187},{"NoteNumber":73,"Velocity":87,"Duration":138798,"SoundDuration":138798,"Delta":59504187},{"NoteNumber":42,"Velocity":73,"Duration":138798,"SoundDuration":138798,"Delta":59504187},{"NoteNumber":54,"Velocity":82,"Duration":138798,"SoundDuration":138798,"Delta":59504187},{"NoteNumber":85,"Velocity":97,"Duration":138799,"SoundDuration":138799,"Delta":59781785},{"NoteNumber":82,"Velocity":87,"Duration":138799,"SoundDuration":138799,"Delta":59781785},{"NoteNumber":73,"Velocity":87,"Duration":138799,"SoundDuration":138799,"Delta":59781785},{"NoteNumber":42,"Velocity":73,"Duration":138799,"SoundDuration":138799,"Delta":59781785},{"NoteNumber":54,"Velocity":82,"Duration":138799,"SoundDuration":138799,"Delta":59781785},{"NoteNumber":85,"Velocity":97,"Duration":138798,"SoundDuration":138798,"Delta":60059383},{"NoteNumber":82,"Velocity":87,"Duration":138798,"SoundDuration":138798,"Delta":60059383},{"NoteNumber":73,"Velocity":87,"Duration":138798,"SoundDuration":138798,"Delta":60059383},{"NoteNumber":42,"Velocity":73,"Duration":138798,"SoundDuration":138798,"Delta":60059383},{"NoteNumber":54,"Velocity":82,"Duration":138798,"SoundDuration":138798,"Delta":60059383},{"NoteNumber":85,"Velocity":97,"Duration":140298,"SoundDuration":140298,"Delta":60336981},{"NoteNumber":82,"Velocity":87,"Duration":140298,"SoundDuration":140298,"Delta":60336981},{"NoteNumber":73,"Velocity":87,"Duration":140298,"SoundDuration":140298,"Delta":60336981},{"NoteNumber":42,"Velocity":73,"Duration":140298,"SoundDuration":140298,"Delta":60336981},{"NoteNumber":54,"Velocity":82,"Duration":140298,"SoundDuration":140298,"Delta":60336981},{"NoteNumber":90,"Velocity":97,"Duration":138058,"SoundDuration":138058,"Delta":60617578},{"NoteNumber":85,"Velocity":87,"Duration":138058,"SoundDuration":138058,"Delta":60617578},{"NoteNumber":78,"Velocity":87,"Duration":138058,"SoundDuration":138058,"Delta":60617578},{"NoteNumber":46,"Velocity":73,"Duration":138058,"SoundDuration":138058,"Delta":60617578},{"NoteNumber":58,"Velocity":82,"Duration":138058,"SoundDuration":138058,"Delta":60617578},{"NoteNumber":90,"Velocity":90,"Duration":276115,"SoundDuration":276115,"Delta":60893694},{"NoteNumber":85,"Velocity":81,"Duration":276115,"SoundDuration":276115,"Delta":60893694},{"NoteNumber":78,"Velocity":81,"Duration":276115,"SoundDuration":276115,"Delta":60893694},{"NoteNumber":61,"Velocity":75,"Duration":276115,"SoundDuration":276115,"Delta":60893694},{"NoteNumber":58,"Velocity":67,"Duration":276115,"SoundDuration":276115,"Delta":60893694},{"NoteNumber":49,"Velocity":67,"Duration":276115,"SoundDuration":276115,"Delta":60893694},{"NoteNumber":90,"Velocity":95,"Duration":69586,"SoundDuration":69586,"Delta":61169810},{"NoteNumber":85,"Velocity":85,"Duration":69586,"SoundDuration":69586,"Delta":61169810},{"NoteNumber":78,"Velocity":85,"Duration":69586,"SoundDuration":69586,"Delta":61169810},{"NoteNumber":49,"Velocity":72,"Duration":69586,"SoundDuration":69586,"Delta":61169810},{"NoteNumber":58,"Velocity":72,"Duration":69586,"SoundDuration":69586,"Delta":61169810},{"NoteNumber":61,"Velocity":80,"Duration":69586,"SoundDuration":69586,"Delta":61169810},{"NoteNumber":90,"Velocity":97,"Duration":69586,"SoundDuration":69586,"Delta":61308983},{"NoteNumber":85,"Velocity":87,"Duration":69586,"SoundDuration":69586,"Delta":61308983},{"NoteNumber":78,"Velocity":87,"Duration":69586,"SoundDuration":69586,"Delta":61308983},{"NoteNumber":49,"Velocity":73,"Duration":69586,"SoundDuration":69586,"Delta":61308983},{"NoteNumber":58,"Velocity":73,"Duration":69586,"SoundDuration":69586,"Delta":61308983},{"NoteNumber":61,"Velocity":82,"Duration":69586,"SoundDuration":69586,"Delta":61308983},{"NoteNumber":92,"Velocity":99,"Duration":275381,"SoundDuration":275381,"Delta":61448155},{"NoteNumber":89,"Velocity":89,"Duration":275381,"SoundDuration":275381,"Delta":61448155},{"NoteNumber":80,"Velocity":89,"Duration":275381,"SoundDuration":275381,"Delta":61448155},{"NoteNumber":49,"Velocity":75,"Duration":275381,"SoundDuration":275381,"Delta":61448155},{"NoteNumber":61,"Velocity":84,"Duration":275381,"SoundDuration":275381,"Delta":61448155},{"NoteNumber":59,"Velocity":75,"Duration":275381,"SoundDuration":275381,"Delta":61448155},{"NoteNumber":92,"Velocity":94,"Duration":69959,"SoundDuration":69959,"Delta":61723536},{"NoteNumber":89,"Velocity":84,"Duration":69959,"SoundDuration":69959,"Delta":61723536},{"NoteNumber":80,"Velocity":84,"Duration":69959,"SoundDuration":69959,"Delta":61723536},{"NoteNumber":59,"Velocity":72,"Duration":69959,"SoundDuration":69959,"Delta":61723536},{"NoteNumber":61,"Velocity":80,"Duration":69959,"SoundDuration":69959,"Delta":61723536},{"NoteNumber":49,"Velocity":72,"Duration":69959,"SoundDuration":69959,"Delta":61723536},{"NoteNumber":92,"Velocity":91,"Duration":69959,"SoundDuration":69959,"Delta":61863455},{"NoteNumber":89,"Velocity":81,"Duration":69959,"SoundDuration":69959,"Delta":61863455},{"NoteNumber":80,"Velocity":81,"Duration":69959,"SoundDuration":69959,"Delta":61863455},{"NoteNumber":59,"Velocity":70,"Duration":69959,"SoundDuration":69959,"Delta":61863455},{"NoteNumber":61,"Velocity":78,"Duration":69959,"SoundDuration":69959,"Delta":61863455},{"NoteNumber":49,"Velocity":70,"Duration":69959,"SoundDuration":69959,"Delta":61863455},{"NoteNumber":90,"Velocity":89,"Duration":137690,"SoundDuration":137690,"Delta":62003374},{"NoteNumber":78,"Velocity":80,"Duration":137690,"SoundDuration":137690,"Delta":62003374},{"NoteNumber":54,"Velocity":67,"Duration":137690,"SoundDuration":137690,"Delta":62003374},{"NoteNumber":58,"Velocity":67,"Duration":137690,"SoundDuration":137690,"Delta":62003374},{"NoteNumber":61,"Velocity":75,"Duration":137690,"SoundDuration":137690,"Delta":62003374},{"NoteNumber":83,"Velocity":92,"Duration":142227,"SoundDuration":142227,"Delta":62278755},{"NoteNumber":80,"Velocity":82,"Duration":142227,"SoundDuration":142227,"Delta":62278755},{"NoteNumber":77,"Velocity":82,"Duration":142227,"SoundDuration":142227,"Delta":62278755},{"NoteNumber":71,"Velocity":82,"Duration":142227,"SoundDuration":142227,"Delta":62278755},{"NoteNumber":37,"Velocity":69,"Duration":142227,"SoundDuration":142227,"Delta":62278755},{"NoteNumber":49,"Velocity":77,"Duration":142227,"SoundDuration":142227,"Delta":62278755},{"NoteNumber":84,"Velocity":92,"Duration":147072,"SoundDuration":147072,"Delta":62563210},{"NoteNumber":80,"Velocity":82,"Duration":147072,"SoundDuration":147072,"Delta":62563210},{"NoteNumber":77,"Velocity":82,"Duration":147072,"SoundDuration":147072,"Delta":62563210},{"NoteNumber":72,"Velocity":82,"Duration":147072,"SoundDuration":147072,"Delta":62563210},{"NoteNumber":36,"Velocity":69,"Duration":147072,"SoundDuration":147072,"Delta":62563210},{"NoteNumber":48,"Velocity":77,"Duration":147072,"SoundDuration":147072,"Delta":62563210},{"NoteNumber":84,"Velocity":92,"Duration":151377,"SoundDuration":151377,"Delta":62857356},{"NoteNumber":79,"Velocity":82,"Duration":151377,"SoundDuration":151377,"Delta":62857356},{"NoteNumber":76,"Velocity":82,"Duration":151377,"SoundDuration":151377,"Delta":62857356},{"NoteNumber":72,"Velocity":82,"Duration":151377,"SoundDuration":151377,"Delta":62857356},{"NoteNumber":36,"Velocity":69,"Duration":151377,"SoundDuration":151377,"Delta":62857356},{"NoteNumber":48,"Velocity":77,"Duration":151377,"SoundDuration":151377,"Delta":62857356},{"NoteNumber":65,"Velocity":82,"Duration":302755,"SoundDuration":302755,"Delta":63160111},{"NoteNumber":77,"Velocity":92,"Duration":302755,"SoundDuration":302755,"Delta":63160111},{"NoteNumber":41,"Velocity":70,"Duration":302755,"SoundDuration":302755,"Delta":63160111},{"NoteNumber":53,"Velocity":78,"Duration":302755,"SoundDuration":302755,"Delta":63160111},{"NoteNumber":65,"Velocity":48,"Duration":132748,"SoundDuration":132748,"Delta":63462866},{"NoteNumber":53,"Velocity":40,"Duration":132748,"SoundDuration":132748,"Delta":63462866},{"NoteNumber":67,"Velocity":48,"Duration":132749,"SoundDuration":132749,"Delta":63595615},{"NoteNumber":55,"Velocity":40,"Duration":132749,"SoundDuration":132749,"Delta":63595615},{"NoteNumber":69,"Velocity":48,"Duration":265498,"SoundDuration":265498,"Delta":63728364},{"NoteNumber":57,"Velocity":40,"Duration":265498,"SoundDuration":265498,"Delta":63728364},{"NoteNumber":70,"Velocity":48,"Duration":66374,"SoundDuration":66374,"Delta":63993862},{"NoteNumber":58,"Velocity":40,"Duration":66374,"SoundDuration":66374,"Delta":63993862},{"NoteNumber":72,"Velocity":48,"Duration":66374,"SoundDuration":66374,"Delta":64126611},{"NoteNumber":60,"Velocity":40,"Duration":66374,"SoundDuration":66374,"Delta":64126611},{"NoteNumber":72,"Velocity":43,"Duration":265497,"SoundDuration":265497,"Delta":64259360},{"NoteNumber":74,"Velocity":48,"Duration":265497,"SoundDuration":265497,"Delta":64259360},{"NoteNumber":48,"Velocity":36,"Duration":265497,"SoundDuration":265497,"Delta":64259360},{"NoteNumber":57,"Velocity":36,"Duration":265497,"SoundDuration":265497,"Delta":64259360},{"NoteNumber":60,"Velocity":40,"Duration":265497,"SoundDuration":265497,"Delta":64259360},{"NoteNumber":70,"Velocity":40,"Duration":66886,"SoundDuration":66886,"Delta":64524858},{"NoteNumber":76,"Velocity":45,"Duration":66886,"SoundDuration":66886,"Delta":64524858},{"NoteNumber":48,"Velocity":35,"Duration":66886,"SoundDuration":66886,"Delta":64524858},{"NoteNumber":55,"Velocity":35,"Duration":66886,"SoundDuration":66886,"Delta":64524858},{"NoteNumber":60,"Velocity":39,"Duration":66886,"SoundDuration":66886,"Delta":64524858},{"NoteNumber":70,"Velocity":40,"Duration":66886,"SoundDuration":66886,"Delta":64658632},{"NoteNumber":76,"Velocity":45,"Duration":66886,"SoundDuration":66886,"Delta":64658632},{"NoteNumber":48,"Velocity":35,"Duration":66886,"SoundDuration":66886,"Delta":64658632},{"NoteNumber":55,"Velocity":35,"Duration":66886,"SoundDuration":66886,"Delta":64658632},{"NoteNumber":60,"Velocity":39,"Duration":66886,"SoundDuration":66886,"Delta":64658632},{"NoteNumber":70,"Velocity":43,"Duration":265497,"SoundDuration":265497,"Delta":64792405},{"NoteNumber":76,"Velocity":48,"Duration":265497,"SoundDuration":265497,"Delta":64792405},{"NoteNumber":48,"Velocity":36,"Duration":265497,"SoundDuration":265497,"Delta":64792405},{"NoteNumber":55,"Velocity":36,"Duration":265497,"SoundDuration":265497,"Delta":64792405},{"NoteNumber":60,"Velocity":40,"Duration":265497,"SoundDuration":265497,"Delta":64792405},{"NoteNumber":69,"Velocity":40,"Duration":66886,"SoundDuration":66886,"Delta":65057903},{"NoteNumber":77,"Velocity":45,"Duration":66886,"SoundDuration":66886,"Delta":65057903},{"NoteNumber":48,"Velocity":34,"Duration":66886,"SoundDuration":66886,"Delta":65057903},{"NoteNumber":53,"Velocity":34,"Duration":66886,"SoundDuration":66886,"Delta":65057903},{"NoteNumber":60,"Velocity":38,"Duration":66886,"SoundDuration":66886,"Delta":65057903},{"NoteNumber":69,"Velocity":40,"Duration":66886,"SoundDuration":66886,"Delta":65191677},{"NoteNumber":77,"Velocity":45,"Duration":66886,"SoundDuration":66886,"Delta":65191677},{"NoteNumber":48,"Velocity":34,"Duration":66886,"SoundDuration":66886,"Delta":65191677},{"NoteNumber":53,"Velocity":34,"Duration":66886,"SoundDuration":66886,"Delta":65191677},{"NoteNumber":60,"Velocity":38,"Duration":66886,"SoundDuration":66886,"Delta":65191677},{"NoteNumber":69,"Velocity":43,"Duration":265497,"SoundDuration":265497,"Delta":65325450},{"NoteNumber":72,"Velocity":48,"Duration":265497,"SoundDuration":265497,"Delta":65325450},{"NoteNumber":48,"Velocity":36,"Duration":265497,"SoundDuration":265497,"Delta":65325450},{"NoteNumber":50,"Velocity":36,"Duration":265497,"SoundDuration":265497,"Delta":65325450},{"NoteNumber":60,"Velocity":40,"Duration":265497,"SoundDuration":265497,"Delta":65325450},{"NoteNumber":67,"Velocity":40,"Duration":67762,"SoundDuration":67762,"Delta":65590948},{"NoteNumber":70,"Velocity":45,"Duration":67762,"SoundDuration":67762,"Delta":65590948},{"NoteNumber":52,"Velocity":34,"Duration":67762,"SoundDuration":67762,"Delta":65590948},{"NoteNumber":48,"Velocity":34,"Duration":67762,"SoundDuration":67762,"Delta":65590948},{"NoteNumber":60,"Velocity":38,"Duration":67762,"SoundDuration":67762,"Delta":65590948},{"NoteNumber":67,"Velocity":40,"Duration":67762,"SoundDuration":67762,"Delta":65726474},{"NoteNumber":70,"Velocity":45,"Duration":67762,"SoundDuration":67762,"Delta":65726474},{"NoteNumber":52,"Velocity":34,"Duration":67762,"SoundDuration":67762,"Delta":65726474},{"NoteNumber":48,"Velocity":34,"Duration":67762,"SoundDuration":67762,"Delta":65726474},{"NoteNumber":60,"Velocity":38,"Duration":67762,"SoundDuration":67762,"Delta":65726474},{"NoteNumber":69,"Velocity":80,"Duration":66501,"SoundDuration":66501,"Delta":65862000},{"NoteNumber":72,"Velocity":80,"Duration":66501,"SoundDuration":66501,"Delta":65862000},{"NoteNumber":81,"Velocity":89,"Duration":66501,"SoundDuration":66501,"Delta":65862000},{"NoteNumber":41,"Velocity":68,"Duration":66501,"SoundDuration":66501,"Delta":65862000},{"NoteNumber":53,"Velocity":76,"Duration":66501,"SoundDuration":66501,"Delta":65862000},{"NoteNumber":69,"Velocity":80,"Duration":66501,"SoundDuration":66501,"Delta":66130240},{"NoteNumber":72,"Velocity":80,"Duration":66501,"SoundDuration":66501,"Delta":66130240},{"NoteNumber":77,"Velocity":89,"Duration":66501,"SoundDuration":66501,"Delta":66130240},{"NoteNumber":53,"Velocity":68,"Duration":66501,"SoundDuration":66501,"Delta":66130240},{"NoteNumber":60,"Velocity":76,"Duration":66501,"SoundDuration":66501,"Delta":66130240},{"NoteNumber":72,"Velocity":48,"Duration":265497,"SoundDuration":265497,"Delta":66400423},{"NoteNumber":48,"Velocity":36,"Duration":265497,"SoundDuration":265497,"Delta":66400423},{"NoteNumber":57,"Velocity":36,"Duration":265497,"SoundDuration":265497,"Delta":66400423},{"NoteNumber":60,"Velocity":40,"Duration":265497,"SoundDuration":265497,"Delta":66400423},{"NoteNumber":72,"Velocity":40,"Duration":66886,"SoundDuration":66886,"Delta":66665921},{"NoteNumber":74,"Velocity":45,"Duration":66886,"SoundDuration":66886,"Delta":66665921},{"NoteNumber":48,"Velocity":35,"Duration":66886,"SoundDuration":66886,"Delta":66665921},{"NoteNumber":57,"Velocity":35,"Duration":66886,"SoundDuration":66886,"Delta":66665921},{"NoteNumber":60,"Velocity":39,"Duration":66886,"SoundDuration":66886,"Delta":66665921},{"NoteNumber":72,"Velocity":40,"Duration":66886,"SoundDuration":66886,"Delta":66799695},{"NoteNumber":74,"Velocity":45,"Duration":66886,"SoundDuration":66886,"Delta":66799695},{"NoteNumber":48,"Velocity":35,"Duration":66886,"SoundDuration":66886,"Delta":66799695},{"NoteNumber":57,"Velocity":35,"Duration":66886,"SoundDuration":66886,"Delta":66799695},{"NoteNumber":60,"Velocity":39,"Duration":66886,"SoundDuration":66886,"Delta":66799695},{"NoteNumber":70,"Velocity":43,"Duration":265497,"SoundDuration":265497,"Delta":66933468},{"NoteNumber":76,"Velocity":48,"Duration":265497,"SoundDuration":265497,"Delta":66933468},{"NoteNumber":48,"Velocity":36,"Duration":265497,"SoundDuration":265497,"Delta":66933468},{"NoteNumber":55,"Velocity":36,"Duration":265497,"SoundDuration":265497,"Delta":66933468},{"NoteNumber":60,"Velocity":40,"Duration":265497,"SoundDuration":265497,"Delta":66933468},{"NoteNumber":69,"Velocity":40,"Duration":66886,"SoundDuration":66886,"Delta":67198966},{"NoteNumber":77,"Velocity":45,"Duration":66886,"SoundDuration":66886,"Delta":67198966},{"NoteNumber":48,"Velocity":34,"Duration":66886,"SoundDuration":66886,"Delta":67198966},{"NoteNumber":53,"Velocity":34,"Duration":66886,"SoundDuration":66886,"Delta":67198966},{"NoteNumber":60,"Velocity":38,"Duration":66886,"SoundDuration":66886,"Delta":67198966},{"NoteNumber":69,"Velocity":40,"Duration":66886,"SoundDuration":66886,"Delta":67332740},{"NoteNumber":77,"Velocity":45,"Duration":66886,"SoundDuration":66886,"Delta":67332740},{"NoteNumber":48,"Velocity":34,"Duration":66886,"SoundDuration":66886,"Delta":67332740},{"NoteNumber":53,"Velocity":34,"Duration":66886,"SoundDuration":66886,"Delta":67332740},{"NoteNumber":60,"Velocity":38,"Duration":66886,"SoundDuration":66886,"Delta":67332740},{"NoteNumber":69,"Velocity":43,"Duration":265497,"SoundDuration":265497,"Delta":67466513},{"NoteNumber":72,"Velocity":48,"Duration":265497,"SoundDuration":265497,"Delta":67466513},{"NoteNumber":48,"Velocity":36,"Duration":265497,"SoundDuration":265497,"Delta":67466513},{"NoteNumber":50,"Velocity":36,"Duration":265497,"SoundDuration":265497,"Delta":67466513},{"NoteNumber":60,"Velocity":40,"Duration":265497,"SoundDuration":265497,"Delta":67466513},{"NoteNumber":67,"Velocity":40,"Duration":67762,"SoundDuration":67762,"Delta":67732011},{"NoteNumber":70,"Velocity":45,"Duration":67762,"SoundDuration":67762,"Delta":67732011},{"NoteNumber":52,"Velocity":34,"Duration":67762,"SoundDuration":67762,"Delta":67732011},{"NoteNumber":48,"Velocity":34,"Duration":67762,"SoundDuration":67762,"Delta":67732011},{"NoteNumber":60,"Velocity":38,"Duration":67762,"SoundDuration":67762,"Delta":67732011},{"NoteNumber":67,"Velocity":40,"Duration":67762,"SoundDuration":67762,"Delta":67867537},{"NoteNumber":70,"Velocity":45,"Duration":67762,"SoundDuration":67762,"Delta":67867537},{"NoteNumber":52,"Velocity":34,"Duration":67762,"SoundDuration":67762,"Delta":67867537},{"NoteNumber":48,"Velocity":34,"Duration":67762,"SoundDuration":67762,"Delta":67867537},{"NoteNumber":60,"Velocity":38,"Duration":67762,"SoundDuration":67762,"Delta":67867537},{"NoteNumber":69,"Velocity":84,"Duration":66501,"SoundDuration":66501,"Delta":68003063},{"NoteNumber":72,"Velocity":84,"Duration":66501,"SoundDuration":66501,"Delta":68003063},{"NoteNumber":81,"Velocity":94,"Duration":66501,"SoundDuration":66501,"Delta":68003063},{"NoteNumber":41,"Velocity":71,"Duration":66501,"SoundDuration":66501,"Delta":68003063},{"NoteNumber":53,"Velocity":79,"Duration":66501,"SoundDuration":66501,"Delta":68003063},{"NoteNumber":69,"Velocity":85,"Duration":66501,"SoundDuration":66501,"Delta":68271303},{"NoteNumber":72,"Velocity":85,"Duration":66501,"SoundDuration":66501,"Delta":68271303},{"NoteNumber":77,"Velocity":95,"Duration":66501,"SoundDuration":66501,"Delta":68271303},{"NoteNumber":53,"Velocity":71,"Duration":66501,"SoundDuration":66501,"Delta":68271303},{"NoteNumber":60,"Velocity":79,"Duration":66501,"SoundDuration":66501,"Delta":68271303},{"NoteNumber":69,"Velocity":43,"Duration":265497,"SoundDuration":265497,"Delta":68541487},{"NoteNumber":72,"Velocity":48,"Duration":265497,"SoundDuration":265497,"Delta":68541487},{"NoteNumber":48,"Velocity":36,"Duration":265497,"SoundDuration":265497,"Delta":68541487},{"NoteNumber":50,"Velocity":36,"Duration":265497,"SoundDuration":265497,"Delta":68541487},{"NoteNumber":60,"Velocity":40,"Duration":265497,"SoundDuration":265497,"Delta":68541487},{"NoteNumber":67,"Velocity":40,"Duration":69959,"SoundDuration":69959,"Delta":68806985},{"NoteNumber":70,"Velocity":45,"Duration":69959,"SoundDuration":69959,"Delta":68806985},{"NoteNumber":52,"Velocity":34,"Duration":69959,"SoundDuration":69959,"Delta":68806985},{"NoteNumber":48,"Velocity":34,"Duration":69959,"SoundDuration":69959,"Delta":68806985},{"NoteNumber":60,"Velocity":38,"Duration":69959,"SoundDuration":69959,"Delta":68806985},{"NoteNumber":67,"Velocity":40,"Duration":69959,"SoundDuration":69959,"Delta":68946904},{"NoteNumber":70,"Velocity":45,"Duration":69959,"SoundDuration":69959,"Delta":68946904},{"NoteNumber":52,"Velocity":34,"Duration":69959,"SoundDuration":69959,"Delta":68946904},{"NoteNumber":48,"Velocity":34,"Duration":69959,"SoundDuration":69959,"Delta":68946904},{"NoteNumber":60,"Velocity":38,"Duration":69959,"SoundDuration":69959,"Delta":68946904},{"NoteNumber":69,"Velocity":87,"Duration":67910,"SoundDuration":67910,"Delta":69086823},{"NoteNumber":72,"Velocity":87,"Duration":67910,"SoundDuration":67910,"Delta":69086823},{"NoteNumber":81,"Velocity":97,"Duration":67910,"SoundDuration":67910,"Delta":69086823},{"NoteNumber":41,"Velocity":73,"Duration":67910,"SoundDuration":67910,"Delta":69086823},{"NoteNumber":53,"Velocity":82,"Duration":67910,"SoundDuration":67910,"Delta":69086823},{"NoteNumber":69,"Velocity":87,"Duration":67910,"SoundDuration":67910,"Delta":69360746},{"NoteNumber":72,"Velocity":87,"Duration":67910,"SoundDuration":67910,"Delta":69360746},{"NoteNumber":77,"Velocity":97,"Duration":67910,"SoundDuration":67910,"Delta":69360746},{"NoteNumber":53,"Velocity":73,"Duration":67910,"SoundDuration":67910,"Delta":69360746},{"NoteNumber":60,"Velocity":82,"Duration":67910,"SoundDuration":67910,"Delta":69360746},{"NoteNumber":69,"Velocity":43,"Duration":269638,"SoundDuration":269638,"Delta":69634007},{"NoteNumber":72,"Velocity":48,"Duration":269638,"SoundDuration":269638,"Delta":69634007},{"NoteNumber":48,"Velocity":36,"Duration":269638,"SoundDuration":269638,"Delta":69634007},{"NoteNumber":50,"Velocity":36,"Duration":269638,"SoundDuration":269638,"Delta":69634007},{"NoteNumber":60,"Velocity":40,"Duration":269638,"SoundDuration":269638,"Delta":69634007},{"NoteNumber":67,"Velocity":40,"Duration":74169,"SoundDuration":74169,"Delta":69903646},{"NoteNumber":70,"Velocity":45,"Duration":74169,"SoundDuration":74169,"Delta":69903646},{"NoteNumber":52,"Velocity":34,"Duration":74169,"SoundDuration":74169,"Delta":69903646},{"NoteNumber":48,"Velocity":34,"Duration":74169,"SoundDuration":74169,"Delta":69903646},{"NoteNumber":60,"Velocity":38,"Duration":74169,"SoundDuration":74169,"Delta":69903646},{"NoteNumber":67,"Velocity":40,"Duration":74169,"SoundDuration":74169,"Delta":70051985},{"NoteNumber":70,"Velocity":45,"Duration":74169,"SoundDuration":74169,"Delta":70051985},{"NoteNumber":52,"Velocity":34,"Duration":74169,"SoundDuration":74169,"Delta":70051985},{"NoteNumber":48,"Velocity":34,"Duration":74169,"SoundDuration":74169,"Delta":70051985},{"NoteNumber":60,"Velocity":38,"Duration":74169,"SoundDuration":74169,"Delta":70051985},{"NoteNumber":77,"Velocity":89,"Duration":258138,"SoundDuration":258138,"Delta":70200323},{"NoteNumber":81,"Velocity":89,"Duration":258138,"SoundDuration":258138,"Delta":70200323},{"NoteNumber":84,"Velocity":89,"Duration":258138,"SoundDuration":258138,"Delta":70200323},{"NoteNumber":89,"Velocity":99,"Duration":258138,"SoundDuration":258138,"Delta":70200323},{"NoteNumber":41,"Velocity":75,"Duration":258138,"SoundDuration":258138,"Delta":70200323},{"NoteNumber":53,"Velocity":84,"Duration":258138,"SoundDuration":258138,"Delta":70200323},{"NoteNumber":65,"Velocity":99,"Duration":280248,"SoundDuration":280248,"Delta":70487144},{"NoteNumber":77,"Velocity":99,"Duration":280248,"SoundDuration":280248,"Delta":70487144},{"NoteNumber":53,"Velocity":75,"Duration":280248,"SoundDuration":280248,"Delta":70487144},{"NoteNumber":70,"Velocity":43,"Duration":265497,"SoundDuration":265497,"Delta":71312352},{"NoteNumber":72,"Velocity":48,"Duration":265497,"SoundDuration":265497,"Delta":71312352},{"NoteNumber":58,"Velocity":36,"Duration":265497,"SoundDuration":265497,"Delta":71312352},{"NoteNumber":60,"Velocity":40,"Duration":265497,"SoundDuration":265497,"Delta":71312352},{"NoteNumber":67,"Velocity":40,"Duration":66886,"SoundDuration":66886,"Delta":71577850},{"NoteNumber":72,"Velocity":45,"Duration":66886,"SoundDuration":66886,"Delta":71577850},{"NoteNumber":55,"Velocity":35,"Duration":66886,"SoundDuration":66886,"Delta":71577850},{"NoteNumber":60,"Velocity":39,"Duration":66886,"SoundDuration":66886,"Delta":71577850},{"NoteNumber":67,"Velocity":40,"Duration":66886,"SoundDuration":66886,"Delta":71711624},{"NoteNumber":72,"Velocity":45,"Duration":66886,"SoundDuration":66886,"Delta":71711624},{"NoteNumber":55,"Velocity":35,"Duration":66886,"SoundDuration":66886,"Delta":71711624},{"NoteNumber":60,"Velocity":39,"Duration":66886,"SoundDuration":66886,"Delta":71711624},{"NoteNumber":68,"Velocity":43,"Duration":265497,"SoundDuration":265497,"Delta":71845397},{"NoteNumber":72,"Velocity":48,"Duration":265497,"SoundDuration":265497,"Delta":71845397},{"NoteNumber":56,"Velocity":36,"Duration":265497,"SoundDuration":265497,"Delta":71845397},{"NoteNumber":60,"Velocity":40,"Duration":265497,"SoundDuration":265497,"Delta":71845397},{"NoteNumber":65,"Velocity":40,"Duration":66886,"SoundDuration":66886,"Delta":72110895},{"NoteNumber":72,"Velocity":45,"Duration":66886,"SoundDuration":66886,"Delta":72110895},{"NoteNumber":53,"Velocity":34,"Duration":66886,"SoundDuration":66886,"Delta":72110895},{"NoteNumber":60,"Velocity":38,"Duration":66886,"SoundDuration":66886,"Delta":72110895},{"NoteNumber":65,"Velocity":40,"Duration":66886,"SoundDuration":66886,"Delta":72244669},{"NoteNumber":72,"Velocity":45,"Duration":66886,"SoundDuration":66886,"Delta":72244669},{"NoteNumber":53,"Velocity":34,"Duration":66886,"SoundDuration":66886,"Delta":72244669},{"NoteNumber":60,"Velocity":38,"Duration":66886,"SoundDuration":66886,"Delta":72244669},{"NoteNumber":66,"Velocity":43,"Duration":265497,"SoundDuration":265497,"Delta":72378442},{"NoteNumber":68,"Velocity":48,"Duration":265497,"SoundDuration":265497,"Delta":72378442},{"NoteNumber":54,"Velocity":36,"Duration":265497,"SoundDuration":265497,"Delta":72378442},{"NoteNumber":56,"Velocity":40,"Duration":265497,"SoundDuration":265497,"Delta":72378442},{"NoteNumber":60,"Velocity":40,"Duration":67762,"SoundDuration":67762,"Delta":72643940},{"NoteNumber":68,"Velocity":45,"Duration":67762,"SoundDuration":67762,"Delta":72643940},{"NoteNumber":48,"Velocity":34,"Duration":67762,"SoundDuration":67762,"Delta":72643940},{"NoteNumber":56,"Velocity":38,"Duration":67762,"SoundDuration":67762,"Delta":72643940},{"NoteNumber":60,"Velocity":40,"Duration":67762,"SoundDuration":67762,"Delta":72779466},{"NoteNumber":68,"Velocity":45,"Duration":67762,"SoundDuration":67762,"Delta":72779466},{"NoteNumber":48,"Velocity":34,"Duration":67762,"SoundDuration":67762,"Delta":72779466},{"NoteNumber":56,"Velocity":38,"Duration":67762,"SoundDuration":67762,"Delta":72779466},{"NoteNumber":65,"Velocity":80,"Duration":66501,"SoundDuration":66501,"Delta":72914992},{"NoteNumber":68,"Velocity":80,"Duration":66501,"SoundDuration":66501,"Delta":72914992},{"NoteNumber":77,"Velocity":89,"Duration":66501,"SoundDuration":66501,"Delta":72914992},{"NoteNumber":37,"Velocity":68,"Duration":66501,"SoundDuration":66501,"Delta":72914992},{"NoteNumber":49,"Velocity":76,"Duration":66501,"SoundDuration":66501,"Delta":72914992},{"NoteNumber":65,"Velocity":80,"Duration":66501,"SoundDuration":66501,"Delta":73178762},{"NoteNumber":68,"Velocity":80,"Duration":66501,"SoundDuration":66501,"Delta":73178762},{"NoteNumber":73,"Velocity":89,"Duration":66501,"SoundDuration":66501,"Delta":73178762},{"NoteNumber":49,"Velocity":68,"Duration":66501,"SoundDuration":66501,"Delta":73178762},{"NoteNumber":56,"Velocity":76,"Duration":66501,"SoundDuration":66501,"Delta":73178762},{"NoteNumber":66,"Velocity":43,"Duration":265497,"SoundDuration":265497,"Delta":73453416},{"NoteNumber":68,"Velocity":48,"Duration":265497,"SoundDuration":265497,"Delta":73453416},{"NoteNumber":54,"Velocity":36,"Duration":265497,"SoundDuration":265497,"Delta":73453416},{"NoteNumber":56,"Velocity":40,"Duration":265497,"SoundDuration":265497,"Delta":73453416},{"NoteNumber":60,"Velocity":40,"Duration":67941,"SoundDuration":67941,"Delta":73718914},{"NoteNumber":68,"Velocity":45,"Duration":67941,"SoundDuration":67941,"Delta":73718914},{"NoteNumber":48,"Velocity":34,"Duration":67941,"SoundDuration":67941,"Delta":73718914},{"NoteNumber":56,"Velocity":38,"Duration":67941,"SoundDuration":67941,"Delta":73718914},{"NoteNumber":60,"Velocity":40,"Duration":67941,"SoundDuration":67941,"Delta":73854796},{"NoteNumber":68,"Velocity":45,"Duration":67941,"SoundDuration":67941,"Delta":73854796},{"NoteNumber":48,"Velocity":34,"Duration":67941,"SoundDuration":67941,"Delta":73854796},{"NoteNumber":56,"Velocity":38,"Duration":67941,"SoundDuration":67941,"Delta":73854796},{"NoteNumber":65,"Velocity":80,"Duration":66329,"SoundDuration":66329,"Delta":73990678},{"NoteNumber":68,"Velocity":80,"Duration":66329,"SoundDuration":66329,"Delta":73990678},{"NoteNumber":77,"Velocity":89,"Duration":66329,"SoundDuration":66329,"Delta":73990678},{"NoteNumber":37,"Velocity":67,"Duration":66329,"SoundDuration":66329,"Delta":73990678},{"NoteNumber":49,"Velocity":75,"Duration":66329,"SoundDuration":66329,"Delta":73990678},{"NoteNumber":65,"Velocity":80,"Duration":66329,"SoundDuration":66329,"Delta":74253766},{"NoteNumber":68,"Velocity":80,"Duration":66329,"SoundDuration":66329,"Delta":74253766},{"NoteNumber":73,"Velocity":89,"Duration":66329,"SoundDuration":66329,"Delta":74253766},{"NoteNumber":49,"Velocity":67,"Duration":66329,"SoundDuration":66329,"Delta":74253766},{"NoteNumber":56,"Velocity":75,"Duration":66329,"SoundDuration":66329,"Delta":74253766},{"NoteNumber":75,"Velocity":43,"Duration":265497,"SoundDuration":265497,"Delta":74527962},{"NoteNumber":77,"Velocity":48,"Duration":265497,"SoundDuration":265497,"Delta":74527962},{"NoteNumber":63,"Velocity":36,"Duration":265497,"SoundDuration":265497,"Delta":74527962},{"NoteNumber":65,"Velocity":40,"Duration":265497,"SoundDuration":265497,"Delta":74527962},{"NoteNumber":72,"Velocity":40,"Duration":66886,"SoundDuration":66886,"Delta":74793460},{"NoteNumber":77,"Velocity":45,"Duration":66886,"SoundDuration":66886,"Delta":74793460},{"NoteNumber":60,"Velocity":35,"Duration":66886,"SoundDuration":66886,"Delta":74793460},{"NoteNumber":65,"Velocity":39,"Duration":66886,"SoundDuration":66886,"Delta":74793460},{"NoteNumber":72,"Velocity":40,"Duration":66886,"SoundDuration":66886,"Delta":74927234},{"NoteNumber":77,"Velocity":45,"Duration":66886,"SoundDuration":66886,"Delta":74927234},{"NoteNumber":60,"Velocity":35,"Duration":66886,"SoundDuration":66886,"Delta":74927234},{"NoteNumber":65,"Velocity":39,"Duration":66886,"SoundDuration":66886,"Delta":74927234},{"NoteNumber":73,"Velocity":43,"Duration":265497,"SoundDuration":265497,"Delta":75061007},{"NoteNumber":77,"Velocity":48,"Duration":265497,"SoundDuration":265497,"Delta":75061007},{"NoteNumber":61,"Velocity":36,"Duration":265497,"SoundDuration":265497,"Delta":75061007},{"NoteNumber":65,"Velocity":40,"Duration":265497,"SoundDuration":265497,"Delta":75061007},{"NoteNumber":70,"Velocity":40,"Duration":66886,"SoundDuration":66886,"Delta":75326505},{"NoteNumber":77,"Velocity":45,"Duration":66886,"SoundDuration":66886,"Delta":75326505},{"NoteNumber":58,"Velocity":34,"Duration":66886,"SoundDuration":66886,"Delta":75326505},{"NoteNumber":65,"Velocity":38,"Duration":66886,"SoundDuration":66886,"Delta":75326505},{"NoteNumber":70,"Velocity":40,"Duration":66886,"SoundDuration":66886,"Delta":75460279},{"NoteNumber":77,"Velocity":45,"Duration":66886,"SoundDuration":66886,"Delta":75460279},{"NoteNumber":58,"Velocity":34,"Duration":66886,"SoundDuration":66886,"Delta":75460279},{"NoteNumber":65,"Velocity":38,"Duration":66886,"SoundDuration":66886,"Delta":75460279},{"NoteNumber":71,"Velocity":43,"Duration":265497,"SoundDuration":265497,"Delta":75594052},{"NoteNumber":73,"Velocity":48,"Duration":265497,"SoundDuration":265497,"Delta":75594052},{"NoteNumber":59,"Velocity":36,"Duration":265497,"SoundDuration":265497,"Delta":75594052},{"NoteNumber":61,"Velocity":40,"Duration":265497,"SoundDuration":265497,"Delta":75594052},{"NoteNumber":65,"Velocity":40,"Duration":68299,"SoundDuration":68299,"Delta":75859550},{"NoteNumber":73,"Velocity":45,"Duration":68299,"SoundDuration":68299,"Delta":75859550},{"NoteNumber":53,"Velocity":34,"Duration":68299,"SoundDuration":68299,"Delta":75859550},{"NoteNumber":61,"Velocity":38,"Duration":68299,"SoundDuration":68299,"Delta":75859550},{"NoteNumber":65,"Velocity":40,"Duration":68299,"SoundDuration":68299,"Delta":75996150},{"NoteNumber":73,"Velocity":45,"Duration":68299,"SoundDuration":68299,"Delta":75996150},{"NoteNumber":53,"Velocity":34,"Duration":68299,"SoundDuration":68299,"Delta":75996150},{"NoteNumber":61,"Velocity":38,"Duration":68299,"SoundDuration":68299,"Delta":75996150},{"NoteNumber":70,"Velocity":85,"Duration":66674,"SoundDuration":66674,"Delta":76132749},{"NoteNumber":73,"Velocity":85,"Duration":66674,"SoundDuration":66674,"Delta":76132749},{"NoteNumber":82,"Velocity":95,"Duration":66674,"SoundDuration":66674,"Delta":76132749},{"NoteNumber":42,"Velocity":72,"Duration":66674,"SoundDuration":66674,"Delta":76132749},{"NoteNumber":54,"Velocity":80,"Duration":66674,"SoundDuration":66674,"Delta":76132749},{"NoteNumber":70,"Velocity":84,"Duration":66674,"SoundDuration":66674,"Delta":76397205},{"NoteNumber":73,"Velocity":84,"Duration":66674,"SoundDuration":66674,"Delta":76397205},{"NoteNumber":78,"Velocity":94,"Duration":66674,"SoundDuration":66674,"Delta":76397205},{"NoteNumber":54,"Velocity":72,"Duration":66674,"SoundDuration":66674,"Delta":76397205},{"NoteNumber":61,"Velocity":80,"Duration":66674,"SoundDuration":66674,"Delta":76397205},{"NoteNumber":71,"Velocity":43,"Duration":265497,"SoundDuration":265497,"Delta":76672249},{"NoteNumber":73,"Velocity":48,"Duration":265497,"SoundDuration":265497,"Delta":76672249},{"NoteNumber":59,"Velocity":36,"Duration":265497,"SoundDuration":265497,"Delta":76672249},{"NoteNumber":61,"Velocity":40,"Duration":265497,"SoundDuration":265497,"Delta":76672249},{"NoteNumber":65,"Velocity":40,"Duration":68480,"SoundDuration":68480,"Delta":76937747},{"NoteNumber":73,"Velocity":45,"Duration":68480,"SoundDuration":68480,"Delta":76937747},{"NoteNumber":53,"Velocity":34,"Duration":68480,"SoundDuration":68480,"Delta":76937747},{"NoteNumber":61,"Velocity":38,"Duration":68480,"SoundDuration":68480,"Delta":76937747},{"NoteNumber":65,"Velocity":40,"Duration":68480,"SoundDuration":68480,"Delta":77074708},{"NoteNumber":73,"Velocity":45,"Duration":68480,"SoundDuration":68480,"Delta":77074708},{"NoteNumber":53,"Velocity":34,"Duration":68480,"SoundDuration":68480,"Delta":77074708},{"NoteNumber":61,"Velocity":38,"Duration":68480,"SoundDuration":68480,"Delta":77074708},{"NoteNumber":70,"Velocity":85,"Duration":66674,"SoundDuration":66674,"Delta":77211670},{"NoteNumber":73,"Velocity":85,"Duration":66674,"SoundDuration":66674,"Delta":77211670},{"NoteNumber":82,"Velocity":95,"Duration":66674,"SoundDuration":66674,"Delta":77211670},{"NoteNumber":42,"Velocity":70,"Duration":66674,"SoundDuration":66674,"Delta":77211670},{"NoteNumber":54,"Velocity":78,"Duration":66674,"SoundDuration":66674,"Delta":77211670},{"NoteNumber":70,"Velocity":85,"Duration":67163,"SoundDuration":67163,"Delta":77476125},{"NoteNumber":73,"Velocity":85,"Duration":67163,"SoundDuration":67163,"Delta":77476125},{"NoteNumber":78,"Velocity":95,"Duration":67163,"SoundDuration":67163,"Delta":77476125},{"NoteNumber":54,"Velocity":70,"Duration":67163,"SoundDuration":67163,"Delta":77476125},{"NoteNumber":61,"Velocity":78,"Duration":67163,"SoundDuration":67163,"Delta":77476125},{"NoteNumber":82,"Velocity":46,"Duration":66374,"SoundDuration":66374,"Delta":77751660},{"NoteNumber":49,"Velocity":44,"Duration":66374,"SoundDuration":66374,"Delta":77751660},{"NoteNumber":70,"Velocity":40,"Duration":66374,"SoundDuration":66374,"Delta":77884409},{"NoteNumber":78,"Velocity":40,"Duration":66374,"SoundDuration":66374,"Delta":78017158},{"NoteNumber":73,"Velocity":36,"Duration":66374,"SoundDuration":66374,"Delta":78017158},{"NoteNumber":54,"Velocity":38,"Duration":66374,"SoundDuration":66374,"Delta":78017158},{"NoteNumber":70,"Velocity":40,"Duration":66374,"SoundDuration":66374,"Delta":78149907},{"NoteNumber":78,"Velocity":44,"Duration":66374,"SoundDuration":66374,"Delta":78282656},{"NoteNumber":54,"Velocity":40,"Duration":66374,"SoundDuration":66374,"Delta":78282656},{"NoteNumber":66,"Velocity":39,"Duration":66374,"SoundDuration":66374,"Delta":78415405},{"NoteNumber":71,"Velocity":34,"Duration":66374,"SoundDuration":66374,"Delta":78548154},{"NoteNumber":74,"Velocity":38,"Duration":66374,"SoundDuration":66374,"Delta":78548154},{"NoteNumber":59,"Velocity":37,"Duration":66374,"SoundDuration":66374,"Delta":78548154},{"NoteNumber":66,"Velocity":38,"Duration":66374,"SoundDuration":66374,"Delta":78680903},{"NoteNumber":76,"Velocity":41,"Duration":66374,"SoundDuration":66374,"Delta":78813652},{"NoteNumber":42,"Velocity":39,"Duration":66374,"SoundDuration":66374,"Delta":78813652},{"NoteNumber":67,"Velocity":36,"Duration":66374,"SoundDuration":66374,"Delta":78946401},{"NoteNumber":70,"Velocity":32,"Duration":66374,"SoundDuration":66374,"Delta":79079150},{"NoteNumber":73,"Velocity":36,"Duration":66374,"SoundDuration":66374,"Delta":79079150},{"NoteNumber":54,"Velocity":36,"Duration":66374,"SoundDuration":66374,"Delta":79079150},{"NoteNumber":67,"Velocity":36,"Duration":66374,"SoundDuration":66374,"Delta":79211899},{"NoteNumber":73,"Velocity":38,"Duration":66374,"SoundDuration":66374,"Delta":79344648},{"NoteNumber":71,"Velocity":34,"Duration":66374,"SoundDuration":66374,"Delta":79344648},{"NoteNumber":42,"Velocity":34,"Duration":66374,"SoundDuration":66374,"Delta":79344648},{"NoteNumber":54,"Velocity":38,"Duration":66374,"SoundDuration":66374,"Delta":79344648},{"NoteNumber":66,"Velocity":32,"Duration":66374,"SoundDuration":66374,"Delta":79477397},{"NoteNumber":71,"Velocity":28,"Duration":66374,"SoundDuration":66374,"Delta":79610146},{"NoteNumber":74,"Velocity":32,"Duration":66374,"SoundDuration":66374,"Delta":79610146},{"NoteNumber":47,"Velocity":28,"Duration":66374,"SoundDuration":66374,"Delta":79610146},{"NoteNumber":54,"Velocity":32,"Duration":66374,"SoundDuration":66374,"Delta":79610146},{"NoteNumber":66,"Velocity":32,"Duration":66374,"SoundDuration":66374,"Delta":79742895},{"NoteNumber":79,"Velocity":40,"Duration":66374,"SoundDuration":66374,"Delta":79876504},{"NoteNumber":54,"Velocity":40,"Duration":66374,"SoundDuration":66374,"Delta":79876504},{"NoteNumber":70,"Velocity":36,"Duration":66374,"SoundDuration":66374,"Delta":80009253},{"NoteNumber":73,"Velocity":32,"Duration":66374,"SoundDuration":66374,"Delta":80142002},{"NoteNumber":76,"Velocity":36,"Duration":66374,"SoundDuration":66374,"Delta":80142002},{"NoteNumber":67,"Velocity":36,"Duration":66374,"SoundDuration":66374,"Delta":80142002},{"NoteNumber":70,"Velocity":36,"Duration":66374,"SoundDuration":66374,"Delta":80274751},{"NoteNumber":73,"Velocity":35,"Duration":66374,"SoundDuration":66374,"Delta":80407500},{"NoteNumber":78,"Velocity":39,"Duration":66374,"SoundDuration":66374,"Delta":80407500},{"NoteNumber":54,"Velocity":35,"Duration":66374,"SoundDuration":66374,"Delta":80407500},{"NoteNumber":66,"Velocity":39,"Duration":66374,"SoundDuration":66374,"Delta":80407500},{"NoteNumber":70,"Velocity":32,"Duration":66374,"SoundDuration":66374,"Delta":80540249},{"NoteNumber":74,"Velocity":28,"Duration":66374,"SoundDuration":66374,"Delta":80672998},{"NoteNumber":78,"Velocity":32,"Duration":66374,"SoundDuration":66374,"Delta":80672998},{"NoteNumber":59,"Velocity":28,"Duration":66374,"SoundDuration":66374,"Delta":80672998},{"NoteNumber":66,"Velocity":32,"Duration":66374,"SoundDuration":66374,"Delta":80672998},{"NoteNumber":71,"Velocity":32,"Duration":67538,"SoundDuration":67538,"Delta":80805747},{"NoteNumber":83,"Velocity":46,"Duration":66374,"SoundDuration":66374,"Delta":80941405},{"NoteNumber":50,"Velocity":45,"Duration":66374,"SoundDuration":66374,"Delta":80941405},{"NoteNumber":71,"Velocity":40,"Duration":66374,"SoundDuration":66374,"Delta":81074154},{"NoteNumber":74,"Velocity":36,"Duration":66374,"SoundDuration":66374,"Delta":81206903},{"NoteNumber":79,"Velocity":40,"Duration":66374,"SoundDuration":66374,"Delta":81206903},{"NoteNumber":55,"Velocity":40,"Duration":66374,"SoundDuration":66374,"Delta":81206903},{"NoteNumber":71,"Velocity":40,"Duration":66374,"SoundDuration":66374,"Delta":81339652},{"NoteNumber":79,"Velocity":44,"Duration":66374,"SoundDuration":66374,"Delta":81472401},{"NoteNumber":55,"Velocity":41,"Duration":66374,"SoundDuration":66374,"Delta":81472401},{"NoteNumber":67,"Velocity":33,"Duration":66374,"SoundDuration":66374,"Delta":81605150},{"NoteNumber":72,"Velocity":34,"Duration":66374,"SoundDuration":66374,"Delta":81737899},{"NoteNumber":75,"Velocity":38,"Duration":66374,"SoundDuration":66374,"Delta":81737899},{"NoteNumber":60,"Velocity":39,"Duration":66374,"SoundDuration":66374,"Delta":81737899},{"NoteNumber":67,"Velocity":38,"Duration":66374,"SoundDuration":66374,"Delta":81870648},{"NoteNumber":77,"Velocity":41,"Duration":66374,"SoundDuration":66374,"Delta":82003397},{"NoteNumber":43,"Velocity":40,"Duration":66374,"SoundDuration":66374,"Delta":82003397},{"NoteNumber":68,"Velocity":37,"Duration":66374,"SoundDuration":66374,"Delta":82136146},{"NoteNumber":71,"Velocity":33,"Duration":66374,"SoundDuration":66374,"Delta":82268895},{"NoteNumber":74,"Velocity":37,"Duration":66374,"SoundDuration":66374,"Delta":82268895},{"NoteNumber":55,"Velocity":36,"Duration":66374,"SoundDuration":66374,"Delta":82268895},{"NoteNumber":68,"Velocity":37,"Duration":66374,"SoundDuration":66374,"Delta":82401644},{"NoteNumber":74,"Velocity":40,"Duration":66374,"SoundDuration":66374,"Delta":82534393},{"NoteNumber":72,"Velocity":36,"Duration":66374,"SoundDuration":66374,"Delta":82534393},{"NoteNumber":43,"Velocity":34,"Duration":66374,"SoundDuration":66374,"Delta":82534393},{"NoteNumber":55,"Velocity":38,"Duration":66374,"SoundDuration":66374,"Delta":82534393},{"NoteNumber":67,"Velocity":33,"Duration":66374,"SoundDuration":66374,"Delta":82667142},{"NoteNumber":72,"Velocity":29,"Duration":66374,"SoundDuration":66374,"Delta":82799891},{"NoteNumber":75,"Velocity":33,"Duration":66374,"SoundDuration":66374,"Delta":82799891},{"NoteNumber":48,"Velocity":29,"Duration":66374,"SoundDuration":66374,"Delta":82799891},{"NoteNumber":55,"Velocity":33,"Duration":66374,"SoundDuration":66374,"Delta":82799891},{"NoteNumber":67,"Velocity":33,"Duration":66374,"SoundDuration":66374,"Delta":82932640},{"NoteNumber":80,"Velocity":44,"Duration":66374,"SoundDuration":66374,"Delta":83065389},{"NoteNumber":55,"Velocity":41,"Duration":66374,"SoundDuration":66374,"Delta":83065389},{"NoteNumber":71,"Velocity":37,"Duration":66374,"SoundDuration":66374,"Delta":83198138},{"NoteNumber":74,"Velocity":33,"Duration":66374,"SoundDuration":66374,"Delta":83330887},{"NoteNumber":77,"Velocity":37,"Duration":66374,"SoundDuration":66374,"Delta":83330887},{"NoteNumber":68,"Velocity":38,"Duration":66374,"SoundDuration":66374,"Delta":83330887},{"NoteNumber":71,"Velocity":35,"Duration":66374,"SoundDuration":66374,"Delta":83463636},{"NoteNumber":74,"Velocity":36,"Duration":66374,"SoundDuration":66374,"Delta":83596385},{"NoteNumber":79,"Velocity":40,"Duration":66374,"SoundDuration":66374,"Delta":83596385},{"NoteNumber":55,"Velocity":36,"Duration":66374,"SoundDuration":66374,"Delta":83596385},{"NoteNumber":67,"Velocity":40,"Duration":66374,"SoundDuration":66374,"Delta":83596385},{"NoteNumber":71,"Velocity":36,"Duration":66374,"SoundDuration":66374,"Delta":83729134},{"NoteNumber":75,"Velocity":32,"Duration":66374,"SoundDuration":66374,"Delta":83861883},{"NoteNumber":79,"Velocity":36,"Duration":66374,"SoundDuration":66374,"Delta":83861883},{"NoteNumber":60,"Velocity":32,"Duration":66374,"SoundDuration":66374,"Delta":83861883},{"NoteNumber":67,"Velocity":36,"Duration":66374,"SoundDuration":66374,"Delta":83861883},{"NoteNumber":72,"Velocity":36,"Duration":66665,"SoundDuration":66665,"Delta":83994632},{"NoteNumber":70,"Velocity":45,"Duration":66374,"SoundDuration":66374,"Delta":84129417},{"NoteNumber":67,"Velocity":45,"Duration":66374,"SoundDuration":66374,"Delta":84129417},{"NoteNumber":75,"Velocity":41,"Duration":66374,"SoundDuration":66374,"Delta":84262166},{"NoteNumber":74,"Velocity":41,"Duration":66374,"SoundDuration":66374,"Delta":84394915},{"NoteNumber":63,"Velocity":41,"Duration":66374,"SoundDuration":66374,"Delta":84394915},{"NoteNumber":75,"Velocity":41,"Duration":66374,"SoundDuration":66374,"Delta":84527664},{"NoteNumber":75,"Velocity":48,"Duration":66374,"SoundDuration":66374,"Delta":84660413},{"NoteNumber":63,"Velocity":47,"Duration":66374,"SoundDuration":66374,"Delta":84660413},{"NoteNumber":80,"Velocity":45,"Duration":66374,"SoundDuration":66374,"Delta":84793162},{"NoteNumber":79,"Velocity":45,"Duration":66374,"SoundDuration":66374,"Delta":84925911},{"NoteNumber":59,"Velocity":40,"Duration":66374,"SoundDuration":66374,"Delta":84925911},{"NoteNumber":63,"Velocity":45,"Duration":66374,"SoundDuration":66374,"Delta":84925911},{"NoteNumber":80,"Velocity":45,"Duration":67778,"SoundDuration":67778,"Delta":85058660},{"NoteNumber":87,"Velocity":54,"Duration":66374,"SoundDuration":66374,"Delta":85194920},{"NoteNumber":61,"Velocity":43,"Duration":66374,"SoundDuration":66374,"Delta":85194920},{"NoteNumber":63,"Velocity":48,"Duration":66374,"SoundDuration":66374,"Delta":85194920},{"NoteNumber":75,"Velocity":45,"Duration":66374,"SoundDuration":66374,"Delta":85327669},{"NoteNumber":79,"Velocity":45,"Duration":66374,"SoundDuration":66374,"Delta":85460418},{"NoteNumber":58,"Velocity":40,"Duration":66374,"SoundDuration":66374,"Delta":85460418},{"NoteNumber":63,"Velocity":45,"Duration":66374,"SoundDuration":66374,"Delta":85460418},{"NoteNumber":75,"Velocity":45,"Duration":66374,"SoundDuration":66374,"Delta":85593167},{"NoteNumber":75,"Velocity":50,"Duration":66374,"SoundDuration":66374,"Delta":85725916},{"NoteNumber":58,"Velocity":43,"Duration":66374,"SoundDuration":66374,"Delta":85725916},{"NoteNumber":63,"Velocity":48,"Duration":66374,"SoundDuration":66374,"Delta":85725916},{"NoteNumber":80,"Velocity":41,"Duration":66374,"SoundDuration":66374,"Delta":85858665},{"NoteNumber":79,"Velocity":41,"Duration":66374,"SoundDuration":66374,"Delta":85991414},{"NoteNumber":59,"Velocity":36,"Duration":66374,"SoundDuration":66374,"Delta":85991414},{"NoteNumber":63,"Velocity":41,"Duration":66374,"SoundDuration":66374,"Delta":85991414},{"NoteNumber":80,"Velocity":41,"Duration":67978,"SoundDuration":67978,"Delta":86124163},{"NoteNumber":78,"Velocity":48,"Duration":66374,"SoundDuration":66374,"Delta":86260441},{"NoteNumber":64,"Velocity":45,"Duration":66374,"SoundDuration":66374,"Delta":86260441},{"NoteNumber":66,"Velocity":42,"Duration":66374,"SoundDuration":66374,"Delta":86393190},{"NoteNumber":70,"Velocity":42,"Duration":66374,"SoundDuration":66374,"Delta":86525939},{"NoteNumber":61,"Velocity":41,"Duration":66374,"SoundDuration":66374,"Delta":86525939},{"NoteNumber":66,"Velocity":42,"Duration":66374,"SoundDuration":66374,"Delta":86658688},{"NoteNumber":66,"Velocity":47,"Duration":66374,"SoundDuration":66374,"Delta":86791437},{"NoteNumber":61,"Velocity":45,"Duration":66374,"SoundDuration":66374,"Delta":86791437},{"NoteNumber":71,"Velocity":43,"Duration":66374,"SoundDuration":66374,"Delta":86924186},{"NoteNumber":70,"Velocity":43,"Duration":66374,"SoundDuration":66374,"Delta":87056935},{"NoteNumber":63,"Velocity":41,"Duration":66374,"SoundDuration":66374,"Delta":87056935},{"NoteNumber":71,"Velocity":44,"Duration":66374,"SoundDuration":66374,"Delta":87189684},{"NoteNumber":71,"Velocity":51,"Duration":66374,"SoundDuration":66374,"Delta":87322433},{"NoteNumber":68,"Velocity":48,"Duration":66374,"SoundDuration":66374,"Delta":87322433},{"NoteNumber":76,"Velocity":47,"Duration":66374,"SoundDuration":66374,"Delta":87455182},{"NoteNumber":75,"Velocity":47,"Duration":66374,"SoundDuration":66374,"Delta":87587931},{"NoteNumber":64,"Velocity":45,"Duration":66374,"SoundDuration":66374,"Delta":87587931},{"NoteNumber":76,"Velocity":48,"Duration":66374,"SoundDuration":66374,"Delta":87720680},{"NoteNumber":76,"Velocity":59,"Duration":66374,"SoundDuration":66374,"Delta":87853429},{"NoteNumber":64,"Velocity":54,"Duration":66374,"SoundDuration":66374,"Delta":87853429},{"NoteNumber":81,"Velocity":54,"Duration":66374,"SoundDuration":66374,"Delta":87986178},{"NoteNumber":80,"Velocity":54,"Duration":66374,"SoundDuration":66374,"Delta":88118927},{"NoteNumber":60,"Velocity":43,"Duration":66374,"SoundDuration":66374,"Delta":88118927},{"NoteNumber":64,"Velocity":48,"Duration":66374,"SoundDuration":66374,"Delta":88118927},{"NoteNumber":81,"Velocity":54,"Duration":67181,"SoundDuration":67181,"Delta":88251676},{"NoteNumber":88,"Velocity":71,"Duration":66374,"SoundDuration":66374,"Delta":88386444},{"NoteNumber":62,"Velocity":53,"Duration":66374,"SoundDuration":66374,"Delta":88386444},{"NoteNumber":64,"Velocity":59,"Duration":66374,"SoundDuration":66374,"Delta":88386444},{"NoteNumber":76,"Velocity":60,"Duration":66374,"SoundDuration":66374,"Delta":88519193},{"NoteNumber":80,"Velocity":61,"Duration":66374,"SoundDuration":66374,"Delta":88651942},{"NoteNumber":59,"Velocity":48,"Duration":66374,"SoundDuration":66374,"Delta":88651942},{"NoteNumber":64,"Velocity":54,"Duration":66374,"SoundDuration":66374,"Delta":88651942},{"NoteNumber":76,"Velocity":61,"Duration":66374,"SoundDuration":66374,"Delta":88784691},{"NoteNumber":76,"Velocity":65,"Duration":66374,"SoundDuration":66374,"Delta":88917440},{"NoteNumber":59,"Velocity":52,"Duration":66374,"SoundDuration":66374,"Delta":88917440},{"NoteNumber":64,"Velocity":58,"Duration":66374,"SoundDuration":66374,"Delta":88917440},{"NoteNumber":81,"Velocity":60,"Duration":66374,"SoundDuration":66374,"Delta":89050189},{"NoteNumber":80,"Velocity":60,"Duration":66374,"SoundDuration":66374,"Delta":89182938},{"NoteNumber":60,"Velocity":48,"Duration":66374,"SoundDuration":66374,"Delta":89182938},{"NoteNumber":64,"Velocity":54,"Duration":66374,"SoundDuration":66374,"Delta":89182938},{"NoteNumber":81,"Velocity":60,"Duration":66374,"SoundDuration":66374,"Delta":89315687},{"NoteNumber":79,"Velocity":69,"Duration":66374,"SoundDuration":66374,"Delta":89448436},{"NoteNumber":65,"Velocity":59,"Duration":66374,"SoundDuration":66374,"Delta":89448436},{"NoteNumber":67,"Velocity":62,"Duration":66374,"SoundDuration":66374,"Delta":89581185},{"NoteNumber":71,"Velocity":62,"Duration":66374,"SoundDuration":66374,"Delta":89713934},{"NoteNumber":62,"Velocity":50,"Duration":66374,"SoundDuration":66374,"Delta":89713934},{"NoteNumber":67,"Velocity":62,"Duration":66374,"SoundDuration":66374,"Delta":89846683},{"NoteNumber":67,"Velocity":67,"Duration":66374,"SoundDuration":66374,"Delta":89979432},{"NoteNumber":62,"Velocity":58,"Duration":66374,"SoundDuration":66374,"Delta":89979432},{"NoteNumber":72,"Velocity":58,"Duration":66374,"SoundDuration":66374,"Delta":90112181},{"NoteNumber":71,"Velocity":58,"Duration":66374,"SoundDuration":66374,"Delta":90244930},{"NoteNumber":64,"Velocity":50,"Duration":65268,"SoundDuration":65268,"Delta":90244930},{"NoteNumber":72,"Velocity":58,"Duration":65710,"SoundDuration":65710,"Delta":90377679},{"NoteNumber":73,"Velocity":81,"Duration":265497,"SoundDuration":265497,"Delta":90515295},{"NoteNumber":61,"Velocity":68,"Duration":265497,"SoundDuration":265497,"Delta":90515295},{"NoteNumber":72,"Velocity":69,"Duration":100330,"SoundDuration":100330,"Delta":90780793},{"NoteNumber":73,"Velocity":77,"Duration":100330,"SoundDuration":100330,"Delta":90780793},{"NoteNumber":60,"Velocity":58,"Duration":100330,"SoundDuration":100330,"Delta":90780793},{"NoteNumber":61,"Velocity":65,"Duration":100330,"SoundDuration":100330,"Delta":90780793},{"NoteNumber":70,"Velocity":69,"Duration":100330,"SoundDuration":100330,"Delta":90914566},{"NoteNumber":73,"Velocity":77,"Duration":100330,"SoundDuration":100330,"Delta":90914566},{"NoteNumber":58,"Velocity":65,"Duration":100330,"SoundDuration":100330,"Delta":90914566},{"NoteNumber":61,"Velocity":65,"Duration":100330,"SoundDuration":100330,"Delta":90914566},{"NoteNumber":70,"Velocity":72,"Duration":265497,"SoundDuration":265497,"Delta":91048340},{"NoteNumber":73,"Velocity":81,"Duration":265497,"SoundDuration":265497,"Delta":91048340},{"NoteNumber":58,"Velocity":61,"Duration":265497,"SoundDuration":265497,"Delta":91048340},{"NoteNumber":61,"Velocity":68,"Duration":265497,"SoundDuration":265497,"Delta":91048340},{"NoteNumber":68,"Velocity":70,"Duration":100330,"SoundDuration":100330,"Delta":91313838},{"NoteNumber":73,"Velocity":78,"Duration":100330,"SoundDuration":100330,"Delta":91313838},{"NoteNumber":56,"Velocity":58,"Duration":100330,"SoundDuration":100330,"Delta":91313838},{"NoteNumber":61,"Velocity":65,"Duration":100330,"SoundDuration":100330,"Delta":91313838},{"NoteNumber":67,"Velocity":70,"Duration":100330,"SoundDuration":100330,"Delta":91447611},{"NoteNumber":73,"Velocity":78,"Duration":100330,"SoundDuration":100330,"Delta":91447611},{"NoteNumber":55,"Velocity":58,"Duration":100330,"SoundDuration":100330,"Delta":91447611},{"NoteNumber":61,"Velocity":65,"Duration":100330,"SoundDuration":100330,"Delta":91447611},{"NoteNumber":67,"Velocity":72,"Duration":265497,"SoundDuration":265497,"Delta":91581385},{"NoteNumber":70,"Velocity":72,"Duration":265497,"SoundDuration":265497,"Delta":91581385},{"NoteNumber":73,"Velocity":81,"Duration":265497,"SoundDuration":265497,"Delta":91581385},{"NoteNumber":55,"Velocity":61,"Duration":265497,"SoundDuration":265497,"Delta":91581385},{"NoteNumber":61,"Velocity":68,"Duration":265497,"SoundDuration":265497,"Delta":91581385},{"NoteNumber":65,"Velocity":69,"Duration":100589,"SoundDuration":100589,"Delta":91846883},{"NoteNumber":68,"Velocity":69,"Duration":100589,"SoundDuration":100589,"Delta":91846883},{"NoteNumber":73,"Velocity":77,"Duration":100589,"SoundDuration":100589,"Delta":91846883},{"NoteNumber":53,"Velocity":58,"Duration":100589,"SoundDuration":100589,"Delta":91846883},{"NoteNumber":61,"Velocity":65,"Duration":100589,"SoundDuration":100589,"Delta":91846883},{"NoteNumber":64,"Velocity":69,"Duration":106621,"SoundDuration":106621,"Delta":91981003},{"NoteNumber":67,"Velocity":69,"Duration":106621,"SoundDuration":106621,"Delta":91981003},{"NoteNumber":73,"Velocity":77,"Duration":106621,"SoundDuration":106621,"Delta":91981003},{"NoteNumber":52,"Velocity":58,"Duration":106621,"SoundDuration":106621,"Delta":91981003},{"NoteNumber":61,"Velocity":65,"Duration":106621,"SoundDuration":106621,"Delta":91981003},{"NoteNumber":84,"Velocity":97,"Duration":271764,"SoundDuration":271764,"Delta":92128917},{"NoteNumber":82,"Velocity":87,"Duration":271764,"SoundDuration":271764,"Delta":92128917},{"NoteNumber":79,"Velocity":87,"Duration":271764,"SoundDuration":271764,"Delta":92128917},{"NoteNumber":36,"Velocity":82,"Duration":271764,"SoundDuration":271764,"Delta":92128917},{"NoteNumber":48,"Velocity":82,"Duration":271764,"SoundDuration":271764,"Delta":92128917},{"NoteNumber":77,"Velocity":79,"Duration":106087,"SoundDuration":106087,"Delta":92400681},{"NoteNumber":80,"Velocity":79,"Duration":106087,"SoundDuration":106087,"Delta":92400681},{"NoteNumber":84,"Velocity":88,"Duration":106087,"SoundDuration":106087,"Delta":92400681},{"NoteNumber":48,"Velocity":79,"Duration":106087,"SoundDuration":106087,"Delta":92400681},{"NoteNumber":76,"Velocity":81,"Duration":101961,"SoundDuration":101961,"Delta":92542131},{"NoteNumber":79,"Velocity":81,"Duration":101961,"SoundDuration":101961,"Delta":92542131},{"NoteNumber":84,"Velocity":91,"Duration":101961,"SoundDuration":101961,"Delta":92542131},{"NoteNumber":48,"Velocity":79,"Duration":101961,"SoundDuration":101961,"Delta":92542131},{"NoteNumber":73,"Velocity":81,"Duration":265497,"SoundDuration":265497,"Delta":92683580},{"NoteNumber":61,"Velocity":68,"Duration":265497,"SoundDuration":265497,"Delta":92683580},{"NoteNumber":72,"Velocity":69,"Duration":100330,"SoundDuration":100330,"Delta":92949078},{"NoteNumber":73,"Velocity":77,"Duration":100330,"SoundDuration":100330,"Delta":92949078},{"NoteNumber":60,"Velocity":58,"Duration":100330,"SoundDuration":100330,"Delta":92949078},{"NoteNumber":61,"Velocity":65,"Duration":100330,"SoundDuration":100330,"Delta":92949078},{"NoteNumber":70,"Velocity":69,"Duration":100330,"SoundDuration":100330,"Delta":93082852},{"NoteNumber":73,"Velocity":77,"Duration":100330,"SoundDuration":100330,"Delta":93082852},{"NoteNumber":58,"Velocity":58,"Duration":100330,"SoundDuration":100330,"Delta":93082852},{"NoteNumber":61,"Velocity":65,"Duration":100330,"SoundDuration":100330,"Delta":93082852},{"NoteNumber":70,"Velocity":72,"Duration":265497,"SoundDuration":265497,"Delta":93216625},{"NoteNumber":73,"Velocity":81,"Duration":265497,"SoundDuration":265497,"Delta":93216625},{"NoteNumber":58,"Velocity":61,"Duration":265497,"SoundDuration":265497,"Delta":93216625},{"NoteNumber":61,"Velocity":68,"Duration":265497,"SoundDuration":265497,"Delta":93216625},{"NoteNumber":68,"Velocity":70,"Duration":100330,"SoundDuration":100330,"Delta":93482123},{"NoteNumber":73,"Velocity":78,"Duration":100330,"SoundDuration":100330,"Delta":93482123},{"NoteNumber":56,"Velocity":58,"Duration":100330,"SoundDuration":100330,"Delta":93482123},{"NoteNumber":61,"Velocity":65,"Duration":100330,"SoundDuration":100330,"Delta":93482123},{"NoteNumber":67,"Velocity":70,"Duration":100330,"SoundDuration":100330,"Delta":93615897},{"NoteNumber":73,"Velocity":78,"Duration":100330,"SoundDuration":100330,"Delta":93615897},{"NoteNumber":55,"Velocity":58,"Duration":100330,"SoundDuration":100330,"Delta":93615897},{"NoteNumber":61,"Velocity":65,"Duration":100330,"SoundDuration":100330,"Delta":93615897},{"NoteNumber":67,"Velocity":72,"Duration":265497,"SoundDuration":265497,"Delta":93749670},{"NoteNumber":70,"Velocity":72,"Duration":265497,"SoundDuration":265497,"Delta":93749670},{"NoteNumber":73,"Velocity":81,"Duration":265497,"SoundDuration":265497,"Delta":93749670},{"NoteNumber":55,"Velocity":61,"Duration":265497,"SoundDuration":265497,"Delta":93749670},{"NoteNumber":61,"Velocity":68,"Duration":265497,"SoundDuration":265497,"Delta":93749670},{"NoteNumber":65,"Velocity":69,"Duration":100589,"SoundDuration":100589,"Delta":94015168},{"NoteNumber":68,"Velocity":69,"Duration":100589,"SoundDuration":100589,"Delta":94015168},{"NoteNumber":73,"Velocity":77,"Duration":100589,"SoundDuration":100589,"Delta":94015168},{"NoteNumber":53,"Velocity":58,"Duration":100589,"SoundDuration":100589,"Delta":94015168},{"NoteNumber":61,"Velocity":65,"Duration":100589,"SoundDuration":100589,"Delta":94015168},{"NoteNumber":64,"Velocity":69,"Duration":106621,"SoundDuration":106621,"Delta":94149288},{"NoteNumber":67,"Velocity":69,"Duration":106621,"SoundDuration":106621,"Delta":94149288},{"NoteNumber":73,"Velocity":77,"Duration":106621,"SoundDuration":106621,"Delta":94149288},{"NoteNumber":52,"Velocity":58,"Duration":106621,"SoundDuration":106621,"Delta":94149288},{"NoteNumber":61,"Velocity":65,"Duration":106621,"SoundDuration":106621,"Delta":94149288},{"NoteNumber":84,"Velocity":102,"Duration":271764,"SoundDuration":271764,"Delta":94297203},{"NoteNumber":82,"Velocity":91,"Duration":271764,"SoundDuration":271764,"Delta":94297203},{"NoteNumber":79,"Velocity":91,"Duration":271764,"SoundDuration":271764,"Delta":94297203},{"NoteNumber":36,"Velocity":76,"Duration":271764,"SoundDuration":271764,"Delta":94297203},{"NoteNumber":48,"Velocity":85,"Duration":271764,"SoundDuration":271764,"Delta":94297203},{"NoteNumber":77,"Velocity":82,"Duration":106087,"SoundDuration":106087,"Delta":94568967},{"NoteNumber":80,"Velocity":82,"Duration":106087,"SoundDuration":106087,"Delta":94568967},{"NoteNumber":84,"Velocity":92,"Duration":106087,"SoundDuration":106087,"Delta":94568967},{"NoteNumber":48,"Velocity":79,"Duration":106087,"SoundDuration":106087,"Delta":94568967},{"NoteNumber":76,"Velocity":82,"Duration":101961,"SoundDuration":101961,"Delta":94710416},{"NoteNumber":79,"Velocity":82,"Duration":101961,"SoundDuration":101961,"Delta":94710416},{"NoteNumber":84,"Velocity":92,"Duration":101961,"SoundDuration":101961,"Delta":94710416},{"NoteNumber":48,"Velocity":79,"Duration":101961,"SoundDuration":101961,"Delta":94710416},{"NoteNumber":67,"Velocity":50,"Duration":265497,"SoundDuration":265497,"Delta":94851866},{"NoteNumber":70,"Velocity":50,"Duration":265497,"SoundDuration":265497,"Delta":94851866},{"NoteNumber":73,"Velocity":56,"Duration":265497,"SoundDuration":265497,"Delta":94851866},{"NoteNumber":55,"Velocity":40,"Duration":265497,"SoundDuration":265497,"Delta":94851866},{"NoteNumber":61,"Velocity":45,"Duration":265497,"SoundDuration":265497,"Delta":94851866},{"NoteNumber":65,"Velocity":44,"Duration":100589,"SoundDuration":100589,"Delta":95117364},{"NoteNumber":68,"Velocity":44,"Duration":100589,"SoundDuration":100589,"Delta":95117364},{"NoteNumber":73,"Velocity":49,"Duration":100589,"SoundDuration":100589,"Delta":95117364},{"NoteNumber":53,"Velocity":36,"Duration":100589,"SoundDuration":100589,"Delta":95117364},{"NoteNumber":61,"Velocity":40,"Duration":100589,"SoundDuration":100589,"Delta":95117364},{"NoteNumber":64,"Velocity":44,"Duration":109438,"SoundDuration":109438,"Delta":95251484},{"NoteNumber":67,"Velocity":44,"Duration":109438,"SoundDuration":109438,"Delta":95251484},{"NoteNumber":73,"Velocity":49,"Duration":109438,"SoundDuration":109438,"Delta":95251484},{"NoteNumber":52,"Velocity":36,"Duration":109438,"SoundDuration":109438,"Delta":95251484},{"NoteNumber":61,"Velocity":40,"Duration":109438,"SoundDuration":109438,"Delta":95251484},{"NoteNumber":84,"Velocity":100,"Duration":276854,"SoundDuration":276854,"Delta":95403306},{"NoteNumber":82,"Velocity":90,"Duration":276854,"SoundDuration":276854,"Delta":95403306},{"NoteNumber":79,"Velocity":90,"Duration":276854,"SoundDuration":276854,"Delta":95403306},{"NoteNumber":36,"Velocity":76,"Duration":276854,"SoundDuration":276854,"Delta":95403306},{"NoteNumber":48,"Velocity":85,"Duration":276854,"SoundDuration":276854,"Delta":95403306},{"NoteNumber":77,"Velocity":82,"Duration":107856,"SoundDuration":107856,"Delta":95680161},{"NoteNumber":80,"Velocity":82,"Duration":107856,"SoundDuration":107856,"Delta":95680161},{"NoteNumber":84,"Velocity":92,"Duration":107856,"SoundDuration":107856,"Delta":95680161},{"NoteNumber":48,"Velocity":79,"Duration":107856,"SoundDuration":107856,"Delta":95680161},{"NoteNumber":76,"Velocity":82,"Duration":103662,"SoundDuration":103662,"Delta":95823970},{"NoteNumber":79,"Velocity":82,"Duration":103662,"SoundDuration":103662,"Delta":95823970},{"NoteNumber":84,"Velocity":92,"Duration":103662,"SoundDuration":103662,"Delta":95823970},{"NoteNumber":48,"Velocity":79,"Duration":103662,"SoundDuration":103662,"Delta":95823970},{"NoteNumber":60,"Velocity":48,"Duration":132749,"SoundDuration":132749,"Delta":95967779},{"NoteNumber":48,"Velocity":40,"Duration":132749,"SoundDuration":132749,"Delta":95967779},{"NoteNumber":61,"Velocity":45,"Duration":66374,"SoundDuration":66374,"Delta":96233277},{"NoteNumber":49,"Velocity":38,"Duration":66374,"SoundDuration":66374,"Delta":96233277},{"NoteNumber":60,"Velocity":45,"Duration":66374,"SoundDuration":66374,"Delta":96366026},{"NoteNumber":48,"Velocity":38,"Duration":66374,"SoundDuration":66374,"Delta":96366026},{"NoteNumber":61,"Velocity":48,"Duration":132749,"SoundDuration":132749,"Delta":96498775},{"NoteNumber":49,"Velocity":40,"Duration":132749,"SoundDuration":132749,"Delta":96498775},{"NoteNumber":60,"Velocity":45,"Duration":66374,"SoundDuration":66374,"Delta":96764273},{"NoteNumber":48,"Velocity":38,"Duration":66374,"SoundDuration":66374,"Delta":96764273},{"NoteNumber":62,"Velocity":45,"Duration":66374,"SoundDuration":66374,"Delta":96897022},{"NoteNumber":50,"Velocity":38,"Duration":66374,"SoundDuration":66374,"Delta":96897022},{"NoteNumber":64,"Velocity":48,"Duration":132749,"SoundDuration":132749,"Delta":97029771},{"NoteNumber":52,"Velocity":40,"Duration":132749,"SoundDuration":132749,"Delta":97029771},{"NoteNumber":65,"Velocity":45,"Duration":66374,"SoundDuration":66374,"Delta":97295269},{"NoteNumber":53,"Velocity":38,"Duration":66374,"SoundDuration":66374,"Delta":97295269},{"NoteNumber":64,"Velocity":45,"Duration":66374,"SoundDuration":66374,"Delta":97428018},{"NoteNumber":52,"Velocity":38,"Duration":66374,"SoundDuration":66374,"Delta":97428018},{"NoteNumber":65,"Velocity":48,"Duration":132749,"SoundDuration":132749,"Delta":97560767},{"NoteNumber":53,"Velocity":39,"Duration":132749,"SoundDuration":132749,"Delta":97560767},{"NoteNumber":64,"Velocity":50,"Duration":66374,"SoundDuration":66374,"Delta":97826265},{"NoteNumber":52,"Velocity":42,"Duration":66374,"SoundDuration":66374,"Delta":97826265},{"NoteNumber":66,"Velocity":52,"Duration":66374,"SoundDuration":66374,"Delta":97959014},{"NoteNumber":54,"Velocity":44,"Duration":66374,"SoundDuration":66374,"Delta":97959014},{"NoteNumber":67,"Velocity":54,"Duration":265497,"SoundDuration":265497,"Delta":98091763},{"NoteNumber":55,"Velocity":45,"Duration":265497,"SoundDuration":265497,"Delta":98091763},{"NoteNumber":68,"Velocity":56,"Duration":132749,"SoundDuration":132749,"Delta":98357261},{"NoteNumber":56,"Velocity":47,"Duration":132749,"SoundDuration":132749,"Delta":98357261},{"NoteNumber":67,"Velocity":58,"Duration":132749,"SoundDuration":132749,"Delta":98490010},{"NoteNumber":55,"Velocity":49,"Duration":132749,"SoundDuration":132749,"Delta":98490010},{"NoteNumber":70,"Velocity":60,"Duration":265497,"SoundDuration":265497,"Delta":98622759},{"NoteNumber":58,"Velocity":51,"Duration":265497,"SoundDuration":265497,"Delta":98622759},{"NoteNumber":68,"Velocity":63,"Duration":132749,"SoundDuration":132749,"Delta":98888257},{"NoteNumber":56,"Velocity":54,"Duration":132749,"SoundDuration":132749,"Delta":98888257},{"NoteNumber":73,"Velocity":64,"Duration":132748,"SoundDuration":132748,"Delta":99021006},{"NoteNumber":61,"Velocity":55,"Duration":132748,"SoundDuration":132748,"Delta":99021006},{"NoteNumber":72,"Velocity":66,"Duration":265329,"SoundDuration":265329,"Delta":99153755},{"NoteNumber":60,"Velocity":56,"Duration":265329,"SoundDuration":265329,"Delta":99153755},{"NoteNumber":74,"Velocity":70,"Duration":133291,"SoundDuration":133291,"Delta":99419084},{"NoteNumber":62,"Velocity":60,"Duration":133291,"SoundDuration":133291,"Delta":99419084},{"NoteNumber":75,"Velocity":72,"Duration":133688,"SoundDuration":133688,"Delta":99552375},{"NoteNumber":63,"Velocity":61,"Duration":133688,"SoundDuration":133688,"Delta":99552375},{"NoteNumber":76,"Velocity":72,"Duration":275268,"SoundDuration":275268,"Delta":99686064},{"NoteNumber":64,"Velocity":62,"Duration":275268,"SoundDuration":275268,"Delta":99686064},{"NoteNumber":77,"Velocity":76,"Duration":143786,"SoundDuration":143786,"Delta":99961332},{"NoteNumber":65,"Velocity":65,"Duration":143786,"SoundDuration":143786,"Delta":99961332},{"NoteNumber":79,"Velocity":78,"Duration":153472,"SoundDuration":153472,"Delta":100105118},{"NoteNumber":67,"Velocity":67,"Duration":153472,"SoundDuration":153472,"Delta":100105118},{"NoteNumber":72,"Velocity":72,"Duration":265497,"SoundDuration":265497,"Delta":100258590},{"NoteNumber":68,"Velocity":72,"Duration":265497,"SoundDuration":265497,"Delta":100258590},{"NoteNumber":80,"Velocity":81,"Duration":265497,"SoundDuration":265497,"Delta":100258590},{"NoteNumber":41,"Velocity":61,"Duration":265497,"SoundDuration":265497,"Delta":100258590},{"NoteNumber":53,"Velocity":68,"Duration":265497,"SoundDuration":265497,"Delta":100258590},{"NoteNumber":79,"Velocity":77,"Duration":66886,"SoundDuration":66886,"Delta":100524088},{"NoteNumber":72,"Velocity":69,"Duration":66886,"SoundDuration":66886,"Delta":100524088},{"NoteNumber":68,"Velocity":69,"Duration":66886,"SoundDuration":66886,"Delta":100524088},{"NoteNumber":53,"Velocity":66,"Duration":66886,"SoundDuration":66886,"Delta":100524088},{"NoteNumber":77,"Velocity":77,"Duration":66886,"SoundDuration":66886,"Delta":100657862},{"NoteNumber":72,"Velocity":69,"Duration":66886,"SoundDuration":66886,"Delta":100657862},{"NoteNumber":68,"Velocity":69,"Duration":66886,"SoundDuration":66886,"Delta":100657862},{"NoteNumber":53,"Velocity":66,"Duration":66886,"SoundDuration":66886,"Delta":100657862},{"NoteNumber":77,"Velocity":81,"Duration":265497,"SoundDuration":265497,"Delta":100791635},{"NoteNumber":72,"Velocity":72,"Duration":265497,"SoundDuration":265497,"Delta":100791635},{"NoteNumber":68,"Velocity":72,"Duration":265497,"SoundDuration":265497,"Delta":100791635},{"NoteNumber":41,"Velocity":61,"Duration":265497,"SoundDuration":265497,"Delta":100791635},{"NoteNumber":53,"Velocity":68,"Duration":265497,"SoundDuration":265497,"Delta":100791635},{"NoteNumber":68,"Velocity":70,"Duration":67059,"SoundDuration":67059,"Delta":101057133},{"NoteNumber":72,"Velocity":78,"Duration":67059,"SoundDuration":67059,"Delta":101057133},{"NoteNumber":53,"Velocity":66,"Duration":67059,"SoundDuration":67059,"Delta":101057133},{"NoteNumber":68,"Velocity":70,"Duration":67059,"SoundDuration":67059,"Delta":101191253},{"NoteNumber":72,"Velocity":78,"Duration":67059,"SoundDuration":67059,"Delta":101191253},{"NoteNumber":53,"Velocity":65,"Duration":67059,"SoundDuration":67059,"Delta":101191253},{"NoteNumber":77,"Velocity":81,"Duration":265497,"SoundDuration":265497,"Delta":101325373},{"NoteNumber":73,"Velocity":72,"Duration":265497,"SoundDuration":265497,"Delta":101325373},{"NoteNumber":70,"Velocity":72,"Duration":265497,"SoundDuration":265497,"Delta":101325373},{"NoteNumber":41,"Velocity":61,"Duration":265497,"SoundDuration":265497,"Delta":101325373},{"NoteNumber":53,"Velocity":68,"Duration":265497,"SoundDuration":265497,"Delta":101325373},{"NoteNumber":70,"Velocity":69,"Duration":66886,"SoundDuration":66886,"Delta":101590871},{"NoteNumber":73,"Velocity":77,"Duration":66886,"SoundDuration":66886,"Delta":101590871},{"NoteNumber":53,"Velocity":66,"Duration":66886,"SoundDuration":66886,"Delta":101590871},{"NoteNumber":70,"Velocity":68,"Duration":133773,"SoundDuration":133773,"Delta":101724645},{"NoteNumber":73,"Velocity":76,"Duration":133773,"SoundDuration":133773,"Delta":101724645},{"NoteNumber":53,"Velocity":66,"Duration":133773,"SoundDuration":133773,"Delta":101724645},{"NoteNumber":77,"Velocity":81,"Duration":259966,"SoundDuration":259966,"Delta":101858418},{"NoteNumber":72,"Velocity":72,"Duration":259966,"SoundDuration":259966,"Delta":101858418},{"NoteNumber":68,"Velocity":72,"Duration":259966,"SoundDuration":259966,"Delta":101858418},{"NoteNumber":41,"Velocity":61,"Duration":259966,"SoundDuration":259966,"Delta":101858418},{"NoteNumber":53,"Velocity":68,"Duration":259966,"SoundDuration":259966,"Delta":101858418},{"NoteNumber":68,"Velocity":49,"Duration":68119,"SoundDuration":68119,"Delta":102123916},{"NoteNumber":72,"Velocity":55,"Duration":68119,"SoundDuration":68119,"Delta":102123916},{"NoteNumber":53,"Velocity":45,"Duration":68119,"SoundDuration":68119,"Delta":102123916},{"NoteNumber":68,"Velocity":49,"Duration":68119,"SoundDuration":68119,"Delta":102260156},{"NoteNumber":72,"Velocity":55,"Duration":68119,"SoundDuration":68119,"Delta":102260156},{"NoteNumber":53,"Velocity":45,"Duration":68119,"SoundDuration":68119,"Delta":102260156},{"NoteNumber":68,"Velocity":43,"Duration":265497,"SoundDuration":265497,"Delta":102396396},{"NoteNumber":72,"Velocity":48,"Duration":265497,"SoundDuration":265497,"Delta":102396396},{"NoteNumber":29,"Velocity":36,"Duration":265497,"SoundDuration":265497,"Delta":102396396},{"NoteNumber":41,"Velocity":40,"Duration":265497,"SoundDuration":265497,"Delta":102396396},{"NoteNumber":67,"Velocity":43,"Duration":67059,"SoundDuration":67059,"Delta":102661894},{"NoteNumber":68,"Velocity":43,"Duration":67059,"SoundDuration":67059,"Delta":102661894},{"NoteNumber":72,"Velocity":48,"Duration":67059,"SoundDuration":67059,"Delta":102661894},{"NoteNumber":41,"Velocity":38,"Duration":67059,"SoundDuration":67059,"Delta":102661894},{"NoteNumber":65,"Velocity":40,"Duration":67059,"SoundDuration":67059,"Delta":102796014},{"NoteNumber":68,"Velocity":40,"Duration":67059,"SoundDuration":67059,"Delta":102796014},{"NoteNumber":72,"Velocity":45,"Duration":67059,"SoundDuration":67059,"Delta":102796014},{"NoteNumber":41,"Velocity":38,"Duration":67059,"SoundDuration":67059,"Delta":102796014},{"NoteNumber":65,"Velocity":40,"Duration":265497,"SoundDuration":265497,"Delta":102930134},{"NoteNumber":68,"Velocity":40,"Duration":265497,"SoundDuration":265497,"Delta":102930134},{"NoteNumber":72,"Velocity":45,"Duration":265497,"SoundDuration":265497,"Delta":102930134},{"NoteNumber":29,"Velocity":36,"Duration":265497,"SoundDuration":265497,"Delta":102930134},{"NoteNumber":41,"Velocity":40,"Duration":265497,"SoundDuration":265497,"Delta":102930134},{"NoteNumber":60,"Velocity":43,"Duration":67059,"SoundDuration":67059,"Delta":103195632},{"NoteNumber":68,"Velocity":43,"Duration":67059,"SoundDuration":67059,"Delta":103195632},{"NoteNumber":72,"Velocity":48,"Duration":67059,"SoundDuration":67059,"Delta":103195632},{"NoteNumber":41,"Velocity":38,"Duration":67059,"SoundDuration":67059,"Delta":103195632},{"NoteNumber":60,"Velocity":40,"Duration":67059,"SoundDuration":67059,"Delta":103329752},{"NoteNumber":68,"Velocity":40,"Duration":67059,"SoundDuration":67059,"Delta":103329752},{"NoteNumber":72,"Velocity":45,"Duration":67059,"SoundDuration":67059,"Delta":103329752},{"NoteNumber":41,"Velocity":38,"Duration":67059,"SoundDuration":67059,"Delta":103329752},{"NoteNumber":73,"Velocity":45,"Duration":265497,"SoundDuration":265497,"Delta":103463872},{"NoteNumber":70,"Velocity":40,"Duration":265497,"SoundDuration":265497,"Delta":103463872},{"NoteNumber":65,"Velocity":40,"Duration":265497,"SoundDuration":265497,"Delta":103463872},{"NoteNumber":29,"Velocity":36,"Duration":265497,"SoundDuration":265497,"Delta":103463872},{"NoteNumber":41,"Velocity":40,"Duration":265497,"SoundDuration":265497,"Delta":103463872},{"NoteNumber":61,"Velocity":43,"Duration":66886,"SoundDuration":66886,"Delta":103729370},{"NoteNumber":70,"Velocity":43,"Duration":66886,"SoundDuration":66886,"Delta":103729370},{"NoteNumber":73,"Velocity":48,"Duration":66886,"SoundDuration":66886,"Delta":103729370},{"NoteNumber":41,"Velocity":38,"Duration":66886,"SoundDuration":66886,"Delta":103729370},{"NoteNumber":61,"Velocity":40,"Duration":66886,"SoundDuration":66886,"Delta":103863144},{"NoteNumber":70,"Velocity":40,"Duration":66886,"SoundDuration":66886,"Delta":103863144},{"NoteNumber":73,"Velocity":45,"Duration":66886,"SoundDuration":66886,"Delta":103863144},{"NoteNumber":41,"Velocity":38,"Duration":66886,"SoundDuration":66886,"Delta":103863144},{"NoteNumber":65,"Velocity":40,"Duration":265497,"SoundDuration":265497,"Delta":103996917},{"NoteNumber":68,"Velocity":40,"Duration":265497,"SoundDuration":265497,"Delta":103996917},{"NoteNumber":72,"Velocity":45,"Duration":265497,"SoundDuration":265497,"Delta":103996917},{"NoteNumber":29,"Velocity":36,"Duration":265497,"SoundDuration":265497,"Delta":103996917},{"NoteNumber":41,"Velocity":40,"Duration":265497,"SoundDuration":265497,"Delta":103996917},{"NoteNumber":60,"Velocity":40,"Duration":67941,"SoundDuration":67941,"Delta":104262415},{"NoteNumber":68,"Velocity":40,"Duration":67941,"SoundDuration":67941,"Delta":104262415},{"NoteNumber":72,"Velocity":45,"Duration":67941,"SoundDuration":67941,"Delta":104262415},{"NoteNumber":41,"Velocity":38,"Duration":67941,"SoundDuration":67941,"Delta":104262415},{"NoteNumber":60,"Velocity":40,"Duration":67941,"SoundDuration":67941,"Delta":104398297},{"NoteNumber":68,"Velocity":40,"Duration":67941,"SoundDuration":67941,"Delta":104398297},{"NoteNumber":72,"Velocity":45,"Duration":67941,"SoundDuration":67941,"Delta":104398297},{"NoteNumber":41,"Velocity":38,"Duration":67941,"SoundDuration":67941,"Delta":104398297},{"NoteNumber":76,"Velocity":55,"Duration":265497,"SoundDuration":265497,"Delta":104534179},{"NoteNumber":73,"Velocity":49,"Duration":265497,"SoundDuration":265497,"Delta":104534179},{"NoteNumber":70,"Velocity":49,"Duration":265497,"SoundDuration":265497,"Delta":104534179},{"NoteNumber":58,"Velocity":47,"Duration":265497,"SoundDuration":265497,"Delta":104534179},{"NoteNumber":76,"Velocity":52,"Duration":66886,"SoundDuration":66886,"Delta":104799677},{"NoteNumber":73,"Velocity":46,"Duration":66886,"SoundDuration":66886,"Delta":104799677},{"NoteNumber":67,"Velocity":46,"Duration":66886,"SoundDuration":66886,"Delta":104799677},{"NoteNumber":55,"Velocity":44,"Duration":66886,"SoundDuration":66886,"Delta":104799677},{"NoteNumber":76,"Velocity":52,"Duration":66886,"SoundDuration":66886,"Delta":104933451},{"NoteNumber":73,"Velocity":46,"Duration":66886,"SoundDuration":66886,"Delta":104933451},{"NoteNumber":67,"Velocity":46,"Duration":66886,"SoundDuration":66886,"Delta":104933451},{"NoteNumber":55,"Velocity":44,"Duration":66886,"SoundDuration":66886,"Delta":104933451},{"NoteNumber":68,"Velocity":54,"Duration":265497,"SoundDuration":265497,"Delta":105067224},{"NoteNumber":72,"Velocity":54,"Duration":265497,"SoundDuration":265497,"Delta":105067224},{"NoteNumber":77,"Velocity":61,"Duration":265497,"SoundDuration":265497,"Delta":105067224},{"NoteNumber":56,"Velocity":53,"Duration":265497,"SoundDuration":265497,"Delta":105067224},{"NoteNumber":65,"Velocity":52,"Duration":67059,"SoundDuration":67059,"Delta":105332722},{"NoteNumber":72,"Velocity":52,"Duration":67059,"SoundDuration":67059,"Delta":105332722},{"NoteNumber":77,"Velocity":58,"Duration":67059,"SoundDuration":67059,"Delta":105332722},{"NoteNumber":53,"Velocity":51,"Duration":67059,"SoundDuration":67059,"Delta":105332722},{"NoteNumber":65,"Velocity":52,"Duration":67059,"SoundDuration":67059,"Delta":105466842},{"NoteNumber":72,"Velocity":52,"Duration":67059,"SoundDuration":67059,"Delta":105466842},{"NoteNumber":77,"Velocity":58,"Duration":67059,"SoundDuration":67059,"Delta":105466842},{"NoteNumber":53,"Velocity":51,"Duration":67059,"SoundDuration":67059,"Delta":105466842},{"NoteNumber":67,"Velocity":60,"Duration":265497,"SoundDuration":265497,"Delta":105600962},{"NoteNumber":79,"Velocity":67,"Duration":265497,"SoundDuration":265497,"Delta":105600962},{"NoteNumber":72,"Velocity":60,"Duration":265497,"SoundDuration":265497,"Delta":105600962},{"NoteNumber":52,"Velocity":57,"Duration":265497,"SoundDuration":265497,"Delta":105600962},{"NoteNumber":76,"Velocity":60,"Duration":67059,"SoundDuration":67059,"Delta":105866460},{"NoteNumber":72,"Velocity":54,"Duration":67059,"SoundDuration":67059,"Delta":105866460},{"NoteNumber":67,"Velocity":54,"Duration":67059,"SoundDuration":67059,"Delta":105866460},{"NoteNumber":48,"Velocity":50,"Duration":67059,"SoundDuration":67059,"Delta":105866460},{"NoteNumber":76,"Velocity":60,"Duration":67059,"SoundDuration":67059,"Delta":106000580},{"NoteNumber":72,"Velocity":54,"Duration":67059,"SoundDuration":67059,"Delta":106000580},{"NoteNumber":67,"Velocity":54,"Duration":67059,"SoundDuration":67059,"Delta":106000580},{"NoteNumber":48,"Velocity":51,"Duration":67059,"SoundDuration":67059,"Delta":106000580},{"NoteNumber":68,"Velocity":65,"Duration":265497,"SoundDuration":265497,"Delta":106134700},{"NoteNumber":72,"Velocity":65,"Duration":265497,"SoundDuration":265497,"Delta":106134700},{"NoteNumber":80,"Velocity":73,"Duration":265497,"SoundDuration":265497,"Delta":106134700},{"NoteNumber":53,"Velocity":63,"Duration":265497,"SoundDuration":265497,"Delta":106134700},{"NoteNumber":68,"Velocity":61,"Duration":66886,"SoundDuration":66886,"Delta":106400198},{"NoteNumber":72,"Velocity":61,"Duration":66886,"SoundDuration":66886,"Delta":106400198},{"NoteNumber":77,"Velocity":68,"Duration":66886,"SoundDuration":66886,"Delta":106400198},{"NoteNumber":48,"Velocity":56,"Duration":66886,"SoundDuration":66886,"Delta":106400198},{"NoteNumber":68,"Velocity":61,"Duration":66886,"SoundDuration":66886,"Delta":106533972},{"NoteNumber":72,"Velocity":61,"Duration":66886,"SoundDuration":66886,"Delta":106533972},{"NoteNumber":77,"Velocity":68,"Duration":66886,"SoundDuration":66886,"Delta":106533972},{"NoteNumber":48,"Velocity":56,"Duration":66886,"SoundDuration":66886,"Delta":106533972},{"NoteNumber":82,"Velocity":84,"Duration":265497,"SoundDuration":265497,"Delta":106667745},{"NoteNumber":72,"Velocity":75,"Duration":265497,"SoundDuration":265497,"Delta":106667745},{"NoteNumber":55,"Velocity":72,"Duration":265497,"SoundDuration":265497,"Delta":106667745},{"NoteNumber":84,"Velocity":77,"Duration":66886,"SoundDuration":66886,"Delta":106933243},{"NoteNumber":72,"Velocity":69,"Duration":66886,"SoundDuration":66886,"Delta":106933243},{"NoteNumber":48,"Velocity":65,"Duration":66886,"SoundDuration":66886,"Delta":106933243},{"NoteNumber":84,"Velocity":77,"Duration":66886,"SoundDuration":66886,"Delta":107067017},{"NoteNumber":72,"Velocity":69,"Duration":66886,"SoundDuration":66886,"Delta":107067017},{"NoteNumber":48,"Velocity":65,"Duration":66886,"SoundDuration":66886,"Delta":107067017},{"NoteNumber":83,"Velocity":89,"Duration":265497,"SoundDuration":265497,"Delta":107200790},{"NoteNumber":72,"Velocity":80,"Duration":265497,"SoundDuration":265497,"Delta":107200790},{"NoteNumber":56,"Velocity":76,"Duration":265497,"SoundDuration":265497,"Delta":107200790},{"NoteNumber":84,"Velocity":85,"Duration":66886,"SoundDuration":66886,"Delta":107466288},{"NoteNumber":72,"Velocity":76,"Duration":66886,"SoundDuration":66886,"Delta":107466288},{"NoteNumber":48,"Velocity":72,"Duration":66886,"SoundDuration":66886,"Delta":107466288},{"NoteNumber":84,"Velocity":85,"Duration":66886,"SoundDuration":66886,"Delta":107600062},{"NoteNumber":72,"Velocity":76,"Duration":66886,"SoundDuration":66886,"Delta":107600062},{"NoteNumber":48,"Velocity":72,"Duration":66886,"SoundDuration":66886,"Delta":107600062},{"NoteNumber":84,"Velocity":97,"Duration":280597,"SoundDuration":280597,"Delta":107733835},{"NoteNumber":72,"Velocity":87,"Duration":280597,"SoundDuration":280597,"Delta":107733835},{"NoteNumber":56,"Velocity":82,"Duration":280597,"SoundDuration":280597,"Delta":107733835},{"NoteNumber":85,"Velocity":97,"Duration":138799,"SoundDuration":138799,"Delta":108014432},{"NoteNumber":82,"Velocity":87,"Duration":138799,"SoundDuration":138799,"Delta":108014432},{"NoteNumber":73,"Velocity":87,"Duration":138799,"SoundDuration":138799,"Delta":108014432},{"NoteNumber":42,"Velocity":73,"Duration":138799,"SoundDuration":138799,"Delta":108014432},{"NoteNumber":54,"Velocity":82,"Duration":138799,"SoundDuration":138799,"Delta":108014432},{"NoteNumber":85,"Velocity":97,"Duration":138799,"SoundDuration":138799,"Delta":108292030},{"NoteNumber":82,"Velocity":87,"Duration":138799,"SoundDuration":138799,"Delta":108292030},{"NoteNumber":73,"Velocity":87,"Duration":138799,"SoundDuration":138799,"Delta":108292030},{"NoteNumber":42,"Velocity":73,"Duration":138799,"SoundDuration":138799,"Delta":108292030},{"NoteNumber":54,"Velocity":82,"Duration":138799,"SoundDuration":138799,"Delta":108292030},{"NoteNumber":85,"Velocity":97,"Duration":138799,"SoundDuration":138799,"Delta":108569628},{"NoteNumber":82,"Velocity":87,"Duration":138799,"SoundDuration":138799,"Delta":108569628},{"NoteNumber":73,"Velocity":87,"Duration":138799,"SoundDuration":138799,"Delta":108569628},{"NoteNumber":42,"Velocity":73,"Duration":138799,"SoundDuration":138799,"Delta":108569628},{"NoteNumber":54,"Velocity":82,"Duration":138799,"SoundDuration":138799,"Delta":108569628},{"NoteNumber":85,"Velocity":97,"Duration":140298,"SoundDuration":140298,"Delta":108847226},{"NoteNumber":82,"Velocity":87,"Duration":140298,"SoundDuration":140298,"Delta":108847226},{"NoteNumber":73,"Velocity":87,"Duration":140298,"SoundDuration":140298,"Delta":108847226},{"NoteNumber":42,"Velocity":73,"Duration":140298,"SoundDuration":140298,"Delta":108847226},{"NoteNumber":54,"Velocity":82,"Duration":140298,"SoundDuration":140298,"Delta":108847226},{"NoteNumber":90,"Velocity":97,"Duration":138058,"SoundDuration":138058,"Delta":109127823},{"NoteNumber":85,"Velocity":87,"Duration":138058,"SoundDuration":138058,"Delta":109127823},{"NoteNumber":78,"Velocity":87,"Duration":138058,"SoundDuration":138058,"Delta":109127823},{"NoteNumber":46,"Velocity":73,"Duration":138058,"SoundDuration":138058,"Delta":109127823},{"NoteNumber":58,"Velocity":82,"Duration":138058,"SoundDuration":138058,"Delta":109127823},{"NoteNumber":90,"Velocity":90,"Duration":276116,"SoundDuration":276116,"Delta":109403939},{"NoteNumber":85,"Velocity":81,"Duration":276116,"SoundDuration":276116,"Delta":109403939},{"NoteNumber":78,"Velocity":81,"Duration":276116,"SoundDuration":276116,"Delta":109403939},{"NoteNumber":61,"Velocity":75,"Duration":276116,"SoundDuration":276116,"Delta":109403939},{"NoteNumber":58,"Velocity":67,"Duration":276116,"SoundDuration":276116,"Delta":109403939},{"NoteNumber":49,"Velocity":67,"Duration":276116,"SoundDuration":276116,"Delta":109403939},{"NoteNumber":90,"Velocity":95,"Duration":69586,"SoundDuration":69586,"Delta":109680055},{"NoteNumber":85,"Velocity":85,"Duration":69586,"SoundDuration":69586,"Delta":109680055},{"NoteNumber":78,"Velocity":85,"Duration":69586,"SoundDuration":69586,"Delta":109680055},{"NoteNumber":49,"Velocity":72,"Duration":69586,"SoundDuration":69586,"Delta":109680055},{"NoteNumber":58,"Velocity":72,"Duration":69586,"SoundDuration":69586,"Delta":109680055},{"NoteNumber":61,"Velocity":80,"Duration":69586,"SoundDuration":69586,"Delta":109680055},{"NoteNumber":90,"Velocity":97,"Duration":69586,"SoundDuration":69586,"Delta":109819228},{"NoteNumber":85,"Velocity":87,"Duration":69586,"SoundDuration":69586,"Delta":109819228},{"NoteNumber":78,"Velocity":87,"Duration":69586,"SoundDuration":69586,"Delta":109819228},{"NoteNumber":49,"Velocity":73,"Duration":69586,"SoundDuration":69586,"Delta":109819228},{"NoteNumber":58,"Velocity":73,"Duration":69586,"SoundDuration":69586,"Delta":109819228},{"NoteNumber":61,"Velocity":82,"Duration":69586,"SoundDuration":69586,"Delta":109819228},{"NoteNumber":92,"Velocity":99,"Duration":275380,"SoundDuration":275380,"Delta":109958400},{"NoteNumber":89,"Velocity":89,"Duration":275380,"SoundDuration":275380,"Delta":109958400},{"NoteNumber":80,"Velocity":89,"Duration":275380,"SoundDuration":275380,"Delta":109958400},{"NoteNumber":49,"Velocity":75,"Duration":275380,"SoundDuration":275380,"Delta":109958400},{"NoteNumber":61,"Velocity":84,"Duration":275380,"SoundDuration":275380,"Delta":109958400},{"NoteNumber":59,"Velocity":75,"Duration":275380,"SoundDuration":275380,"Delta":109958400},{"NoteNumber":92,"Velocity":94,"Duration":69959,"SoundDuration":69959,"Delta":110233781},{"NoteNumber":89,"Velocity":84,"Duration":69959,"SoundDuration":69959,"Delta":110233781},{"NoteNumber":80,"Velocity":84,"Duration":69959,"SoundDuration":69959,"Delta":110233781},{"NoteNumber":59,"Velocity":72,"Duration":69959,"SoundDuration":69959,"Delta":110233781},{"NoteNumber":61,"Velocity":80,"Duration":69959,"SoundDuration":69959,"Delta":110233781},{"NoteNumber":49,"Velocity":72,"Duration":69959,"SoundDuration":69959,"Delta":110233781},{"NoteNumber":92,"Velocity":91,"Duration":69959,"SoundDuration":69959,"Delta":110373700},{"NoteNumber":89,"Velocity":81,"Duration":69959,"SoundDuration":69959,"Delta":110373700},{"NoteNumber":80,"Velocity":81,"Duration":69959,"SoundDuration":69959,"Delta":110373700},{"NoteNumber":59,"Velocity":70,"Duration":69959,"SoundDuration":69959,"Delta":110373700},{"NoteNumber":61,"Velocity":78,"Duration":69959,"SoundDuration":69959,"Delta":110373700},{"NoteNumber":49,"Velocity":70,"Duration":69959,"SoundDuration":69959,"Delta":110373700},{"NoteNumber":90,"Velocity":89,"Duration":137690,"SoundDuration":137690,"Delta":110513619},{"NoteNumber":78,"Velocity":80,"Duration":137690,"SoundDuration":137690,"Delta":110513619},{"NoteNumber":54,"Velocity":67,"Duration":137690,"SoundDuration":137690,"Delta":110513619},{"NoteNumber":58,"Velocity":67,"Duration":137690,"SoundDuration":137690,"Delta":110513619},{"NoteNumber":61,"Velocity":75,"Duration":137690,"SoundDuration":137690,"Delta":110513619},{"NoteNumber":83,"Velocity":92,"Duration":142227,"SoundDuration":142227,"Delta":110789000},{"NoteNumber":80,"Velocity":82,"Duration":142227,"SoundDuration":142227,"Delta":110789000},{"NoteNumber":77,"Velocity":82,"Duration":142227,"SoundDuration":142227,"Delta":110789000},{"NoteNumber":71,"Velocity":82,"Duration":142227,"SoundDuration":142227,"Delta":110789000},{"NoteNumber":37,"Velocity":69,"Duration":142227,"SoundDuration":142227,"Delta":110789000},{"NoteNumber":49,"Velocity":77,"Duration":142227,"SoundDuration":142227,"Delta":110789000},{"NoteNumber":84,"Velocity":92,"Duration":147073,"SoundDuration":147073,"Delta":111073455},{"NoteNumber":80,"Velocity":82,"Duration":147073,"SoundDuration":147073,"Delta":111073455},{"NoteNumber":77,"Velocity":82,"Duration":147073,"SoundDuration":147073,"Delta":111073455},{"NoteNumber":72,"Velocity":82,"Duration":147073,"SoundDuration":147073,"Delta":111073455},{"NoteNumber":36,"Velocity":69,"Duration":147073,"SoundDuration":147073,"Delta":111073455},{"NoteNumber":48,"Velocity":77,"Duration":147073,"SoundDuration":147073,"Delta":111073455},{"NoteNumber":84,"Velocity":92,"Duration":151377,"SoundDuration":151377,"Delta":111367601},{"NoteNumber":79,"Velocity":82,"Duration":151377,"SoundDuration":151377,"Delta":111367601},{"NoteNumber":76,"Velocity":82,"Duration":151377,"SoundDuration":151377,"Delta":111367601},{"NoteNumber":72,"Velocity":82,"Duration":151377,"SoundDuration":151377,"Delta":111367601},{"NoteNumber":36,"Velocity":69,"Duration":151377,"SoundDuration":151377,"Delta":111367601},{"NoteNumber":48,"Velocity":77,"Duration":151377,"SoundDuration":151377,"Delta":111367601},{"NoteNumber":65,"Velocity":82,"Duration":302754,"SoundDuration":302754,"Delta":111670356},{"NoteNumber":77,"Velocity":92,"Duration":302754,"SoundDuration":302754,"Delta":111670356},{"NoteNumber":41,"Velocity":78,"Duration":302754,"SoundDuration":302754,"Delta":111670356},{"NoteNumber":53,"Velocity":78,"Duration":302754,"SoundDuration":302754,"Delta":111670356},{"NoteNumber":65,"Velocity":48,"Duration":132749,"SoundDuration":132749,"Delta":111973111},{"NoteNumber":53,"Velocity":40,"Duration":132749,"SoundDuration":132749,"Delta":111973111},{"NoteNumber":67,"Velocity":48,"Duration":132748,"SoundDuration":132748,"Delta":112105860},{"NoteNumber":55,"Velocity":40,"Duration":132748,"SoundDuration":132748,"Delta":112105860},{"NoteNumber":69,"Velocity":48,"Duration":265498,"SoundDuration":265498,"Delta":112238609},{"NoteNumber":57,"Velocity":40,"Duration":265498,"SoundDuration":265498,"Delta":112238609},{"NoteNumber":70,"Velocity":48,"Duration":66374,"SoundDuration":66374,"Delta":112504107},{"NoteNumber":58,"Velocity":40,"Duration":66374,"SoundDuration":66374,"Delta":112504107},{"NoteNumber":72,"Velocity":48,"Duration":66374,"SoundDuration":66374,"Delta":112636856},{"NoteNumber":60,"Velocity":40,"Duration":66374,"SoundDuration":66374,"Delta":112636856},{"NoteNumber":72,"Velocity":48,"Duration":265497,"SoundDuration":265497,"Delta":112769605},{"NoteNumber":74,"Velocity":48,"Duration":265497,"SoundDuration":265497,"Delta":112769605},{"NoteNumber":48,"Velocity":36,"Duration":265497,"SoundDuration":265497,"Delta":112769605},{"NoteNumber":57,"Velocity":36,"Duration":265497,"SoundDuration":265497,"Delta":112769605},{"NoteNumber":60,"Velocity":40,"Duration":265497,"SoundDuration":265497,"Delta":112769605},{"NoteNumber":70,"Velocity":40,"Duration":66886,"SoundDuration":66886,"Delta":113035103},{"NoteNumber":76,"Velocity":45,"Duration":66886,"SoundDuration":66886,"Delta":113035103},{"NoteNumber":48,"Velocity":35,"Duration":66886,"SoundDuration":66886,"Delta":113035103},{"NoteNumber":55,"Velocity":35,"Duration":66886,"SoundDuration":66886,"Delta":113035103},{"NoteNumber":60,"Velocity":39,"Duration":66886,"SoundDuration":66886,"Delta":113035103},{"NoteNumber":70,"Velocity":40,"Duration":66886,"SoundDuration":66886,"Delta":113168877},{"NoteNumber":76,"Velocity":45,"Duration":66886,"SoundDuration":66886,"Delta":113168877},{"NoteNumber":48,"Velocity":35,"Duration":66886,"SoundDuration":66886,"Delta":113168877},{"NoteNumber":55,"Velocity":35,"Duration":66886,"SoundDuration":66886,"Delta":113168877},{"NoteNumber":60,"Velocity":39,"Duration":66886,"SoundDuration":66886,"Delta":113168877},{"NoteNumber":70,"Velocity":43,"Duration":265497,"SoundDuration":265497,"Delta":113302650},{"NoteNumber":76,"Velocity":48,"Duration":265497,"SoundDuration":265497,"Delta":113302650},{"NoteNumber":48,"Velocity":36,"Duration":265497,"SoundDuration":265497,"Delta":113302650},{"NoteNumber":55,"Velocity":36,"Duration":265497,"SoundDuration":265497,"Delta":113302650},{"NoteNumber":60,"Velocity":40,"Duration":265497,"SoundDuration":265497,"Delta":113302650},{"NoteNumber":69,"Velocity":40,"Duration":66886,"SoundDuration":66886,"Delta":113568148},{"NoteNumber":77,"Velocity":45,"Duration":66886,"SoundDuration":66886,"Delta":113568148},{"NoteNumber":48,"Velocity":34,"Duration":66886,"SoundDuration":66886,"Delta":113568148},{"NoteNumber":53,"Velocity":34,"Duration":66886,"SoundDuration":66886,"Delta":113568148},{"NoteNumber":60,"Velocity":38,"Duration":66886,"SoundDuration":66886,"Delta":113568148},{"NoteNumber":69,"Velocity":40,"Duration":66886,"SoundDuration":66886,"Delta":113701922},{"NoteNumber":77,"Velocity":45,"Duration":66886,"SoundDuration":66886,"Delta":113701922},{"NoteNumber":48,"Velocity":34,"Duration":66886,"SoundDuration":66886,"Delta":113701922},{"NoteNumber":53,"Velocity":34,"Duration":66886,"SoundDuration":66886,"Delta":113701922},{"NoteNumber":60,"Velocity":38,"Duration":66886,"SoundDuration":66886,"Delta":113701922},{"NoteNumber":69,"Velocity":43,"Duration":265497,"SoundDuration":265497,"Delta":113835695},{"NoteNumber":72,"Velocity":48,"Duration":265497,"SoundDuration":265497,"Delta":113835695},{"NoteNumber":48,"Velocity":36,"Duration":265497,"SoundDuration":265497,"Delta":113835695},{"NoteNumber":50,"Velocity":36,"Duration":265497,"SoundDuration":265497,"Delta":113835695},{"NoteNumber":60,"Velocity":40,"Duration":265497,"SoundDuration":265497,"Delta":113835695},{"NoteNumber":67,"Velocity":40,"Duration":67762,"SoundDuration":67762,"Delta":114101193},{"NoteNumber":70,"Velocity":45,"Duration":67762,"SoundDuration":67762,"Delta":114101193},{"NoteNumber":52,"Velocity":34,"Duration":67762,"SoundDuration":67762,"Delta":114101193},{"NoteNumber":48,"Velocity":34,"Duration":67762,"SoundDuration":67762,"Delta":114101193},{"NoteNumber":60,"Velocity":38,"Duration":67762,"SoundDuration":67762,"Delta":114101193},{"NoteNumber":67,"Velocity":40,"Duration":67762,"SoundDuration":67762,"Delta":114236719},{"NoteNumber":70,"Velocity":45,"Duration":67762,"SoundDuration":67762,"Delta":114236719},{"NoteNumber":52,"Velocity":34,"Duration":67762,"SoundDuration":67762,"Delta":114236719},{"NoteNumber":48,"Velocity":34,"Duration":67762,"SoundDuration":67762,"Delta":114236719},{"NoteNumber":60,"Velocity":38,"Duration":67762,"SoundDuration":67762,"Delta":114236719},{"NoteNumber":69,"Velocity":80,"Duration":66501,"SoundDuration":66501,"Delta":114372245},{"NoteNumber":72,"Velocity":80,"Duration":66501,"SoundDuration":66501,"Delta":114372245},{"NoteNumber":81,"Velocity":89,"Duration":66501,"SoundDuration":66501,"Delta":114372245},{"NoteNumber":41,"Velocity":68,"Duration":66501,"SoundDuration":66501,"Delta":114372245},{"NoteNumber":53,"Velocity":76,"Duration":66501,"SoundDuration":66501,"Delta":114372245},{"NoteNumber":69,"Velocity":80,"Duration":66501,"SoundDuration":66501,"Delta":114640485},{"NoteNumber":72,"Velocity":80,"Duration":66501,"SoundDuration":66501,"Delta":114640485},{"NoteNumber":77,"Velocity":89,"Duration":66501,"SoundDuration":66501,"Delta":114640485},{"NoteNumber":53,"Velocity":68,"Duration":66501,"SoundDuration":66501,"Delta":114640485},{"NoteNumber":60,"Velocity":76,"Duration":66501,"SoundDuration":66501,"Delta":114640485},{"NoteNumber":72,"Velocity":48,"Duration":265497,"SoundDuration":265497,"Delta":114910668},{"NoteNumber":48,"Velocity":36,"Duration":265497,"SoundDuration":265497,"Delta":114910668},{"NoteNumber":57,"Velocity":36,"Duration":265497,"SoundDuration":265497,"Delta":114910668},{"NoteNumber":60,"Velocity":40,"Duration":265497,"SoundDuration":265497,"Delta":114910668},{"NoteNumber":72,"Velocity":40,"Duration":66886,"SoundDuration":66886,"Delta":115176166},{"NoteNumber":74,"Velocity":45,"Duration":66886,"SoundDuration":66886,"Delta":115176166},{"NoteNumber":48,"Velocity":35,"Duration":66886,"SoundDuration":66886,"Delta":115176166},{"NoteNumber":57,"Velocity":35,"Duration":66886,"SoundDuration":66886,"Delta":115176166},{"NoteNumber":60,"Velocity":39,"Duration":66886,"SoundDuration":66886,"Delta":115176166},{"NoteNumber":72,"Velocity":40,"Duration":66886,"SoundDuration":66886,"Delta":115309940},{"NoteNumber":74,"Velocity":45,"Duration":66886,"SoundDuration":66886,"Delta":115309940},{"NoteNumber":48,"Velocity":35,"Duration":66886,"SoundDuration":66886,"Delta":115309940},{"NoteNumber":57,"Velocity":35,"Duration":66886,"SoundDuration":66886,"Delta":115309940},{"NoteNumber":60,"Velocity":39,"Duration":66886,"SoundDuration":66886,"Delta":115309940},{"NoteNumber":70,"Velocity":43,"Duration":265497,"SoundDuration":265497,"Delta":115443713},{"NoteNumber":76,"Velocity":48,"Duration":265497,"SoundDuration":265497,"Delta":115443713},{"NoteNumber":48,"Velocity":36,"Duration":265497,"SoundDuration":265497,"Delta":115443713},{"NoteNumber":55,"Velocity":36,"Duration":265497,"SoundDuration":265497,"Delta":115443713},{"NoteNumber":60,"Velocity":40,"Duration":265497,"SoundDuration":265497,"Delta":115443713},{"NoteNumber":69,"Velocity":40,"Duration":66886,"SoundDuration":66886,"Delta":115709211},{"NoteNumber":77,"Velocity":45,"Duration":66886,"SoundDuration":66886,"Delta":115709211},{"NoteNumber":48,"Velocity":34,"Duration":66886,"SoundDuration":66886,"Delta":115709211},{"NoteNumber":53,"Velocity":34,"Duration":66886,"SoundDuration":66886,"Delta":115709211},{"NoteNumber":60,"Velocity":38,"Duration":66886,"SoundDuration":66886,"Delta":115709211},{"NoteNumber":69,"Velocity":40,"Duration":66886,"SoundDuration":66886,"Delta":115842985},{"NoteNumber":77,"Velocity":45,"Duration":66886,"SoundDuration":66886,"Delta":115842985},{"NoteNumber":48,"Velocity":34,"Duration":66886,"SoundDuration":66886,"Delta":115842985},{"NoteNumber":53,"Velocity":34,"Duration":66886,"SoundDuration":66886,"Delta":115842985},{"NoteNumber":60,"Velocity":38,"Duration":66886,"SoundDuration":66886,"Delta":115842985},{"NoteNumber":69,"Velocity":43,"Duration":265497,"SoundDuration":265497,"Delta":115976758},{"NoteNumber":72,"Velocity":48,"Duration":265497,"SoundDuration":265497,"Delta":115976758},{"NoteNumber":48,"Velocity":36,"Duration":265497,"SoundDuration":265497,"Delta":115976758},{"NoteNumber":50,"Velocity":36,"Duration":265497,"SoundDuration":265497,"Delta":115976758},{"NoteNumber":60,"Velocity":40,"Duration":265497,"SoundDuration":265497,"Delta":115976758},{"NoteNumber":67,"Velocity":40,"Duration":67762,"SoundDuration":67762,"Delta":116242256},{"NoteNumber":70,"Velocity":45,"Duration":67762,"SoundDuration":67762,"Delta":116242256},{"NoteNumber":52,"Velocity":34,"Duration":67762,"SoundDuration":67762,"Delta":116242256},{"NoteNumber":48,"Velocity":34,"Duration":67762,"SoundDuration":67762,"Delta":116242256},{"NoteNumber":60,"Velocity":38,"Duration":67762,"SoundDuration":67762,"Delta":116242256},{"NoteNumber":67,"Velocity":40,"Duration":67762,"SoundDuration":67762,"Delta":116377782},{"NoteNumber":70,"Velocity":45,"Duration":67762,"SoundDuration":67762,"Delta":116377782},{"NoteNumber":52,"Velocity":34,"Duration":67762,"SoundDuration":67762,"Delta":116377782},{"NoteNumber":48,"Velocity":34,"Duration":67762,"SoundDuration":67762,"Delta":116377782},{"NoteNumber":60,"Velocity":38,"Duration":67762,"SoundDuration":67762,"Delta":116377782},{"NoteNumber":69,"Velocity":84,"Duration":66501,"SoundDuration":66501,"Delta":116513308},{"NoteNumber":72,"Velocity":84,"Duration":66501,"SoundDuration":66501,"Delta":116513308},{"NoteNumber":81,"Velocity":94,"Duration":66501,"SoundDuration":66501,"Delta":116513308},{"NoteNumber":41,"Velocity":71,"Duration":66501,"SoundDuration":66501,"Delta":116513308},{"NoteNumber":53,"Velocity":79,"Duration":66501,"SoundDuration":66501,"Delta":116513308},{"NoteNumber":69,"Velocity":85,"Duration":66501,"SoundDuration":66501,"Delta":116781548},{"NoteNumber":72,"Velocity":85,"Duration":66501,"SoundDuration":66501,"Delta":116781548},{"NoteNumber":77,"Velocity":95,"Duration":66501,"SoundDuration":66501,"Delta":116781548},{"NoteNumber":53,"Velocity":71,"Duration":66501,"SoundDuration":66501,"Delta":116781548},{"NoteNumber":60,"Velocity":79,"Duration":66501,"SoundDuration":66501,"Delta":116781548},{"NoteNumber":69,"Velocity":43,"Duration":265497,"SoundDuration":265497,"Delta":117051732},{"NoteNumber":72,"Velocity":48,"Duration":265497,"SoundDuration":265497,"Delta":117051732},{"NoteNumber":48,"Velocity":36,"Duration":265497,"SoundDuration":265497,"Delta":117051732},{"NoteNumber":50,"Velocity":36,"Duration":265497,"SoundDuration":265497,"Delta":117051732},{"NoteNumber":60,"Velocity":40,"Duration":265497,"SoundDuration":265497,"Delta":117051732},{"NoteNumber":67,"Velocity":40,"Duration":72104,"SoundDuration":72104,"Delta":117317230},{"NoteNumber":70,"Velocity":45,"Duration":72104,"SoundDuration":72104,"Delta":117317230},{"NoteNumber":52,"Velocity":34,"Duration":72104,"SoundDuration":72104,"Delta":117317230},{"NoteNumber":48,"Velocity":34,"Duration":72104,"SoundDuration":72104,"Delta":117317230},{"NoteNumber":60,"Velocity":38,"Duration":72104,"SoundDuration":72104,"Delta":117317230},{"NoteNumber":67,"Velocity":40,"Duration":72104,"SoundDuration":72104,"Delta":117461440},{"NoteNumber":70,"Velocity":45,"Duration":72104,"SoundDuration":72104,"Delta":117461440},{"NoteNumber":52,"Velocity":34,"Duration":72104,"SoundDuration":72104,"Delta":117461440},{"NoteNumber":48,"Velocity":34,"Duration":72104,"SoundDuration":72104,"Delta":117461440},{"NoteNumber":60,"Velocity":38,"Duration":72104,"SoundDuration":72104,"Delta":117461440},{"NoteNumber":69,"Velocity":87,"Duration":69753,"SoundDuration":69753,"Delta":117605650},{"NoteNumber":72,"Velocity":87,"Duration":69753,"SoundDuration":69753,"Delta":117605650},{"NoteNumber":81,"Velocity":97,"Duration":69753,"SoundDuration":69753,"Delta":117605650},{"NoteNumber":41,"Velocity":73,"Duration":69753,"SoundDuration":69753,"Delta":117605650},{"NoteNumber":53,"Velocity":82,"Duration":69753,"SoundDuration":69753,"Delta":117605650},{"NoteNumber":69,"Velocity":87,"Duration":69753,"SoundDuration":69753,"Delta":117887010},{"NoteNumber":72,"Velocity":87,"Duration":69753,"SoundDuration":69753,"Delta":117887010},{"NoteNumber":77,"Velocity":97,"Duration":69753,"SoundDuration":69753,"Delta":117887010},{"NoteNumber":53,"Velocity":73,"Duration":69753,"SoundDuration":69753,"Delta":117887010},{"NoteNumber":60,"Velocity":82,"Duration":69753,"SoundDuration":69753,"Delta":117887010},{"NoteNumber":69,"Velocity":43,"Duration":269638,"SoundDuration":269638,"Delta":118164300},{"NoteNumber":72,"Velocity":48,"Duration":269638,"SoundDuration":269638,"Delta":118164300},{"NoteNumber":48,"Velocity":36,"Duration":269638,"SoundDuration":269638,"Delta":118164300},{"NoteNumber":50,"Velocity":36,"Duration":269638,"SoundDuration":269638,"Delta":118164300},{"NoteNumber":60,"Velocity":40,"Duration":269638,"SoundDuration":269638,"Delta":118164300},{"NoteNumber":67,"Velocity":40,"Duration":80893,"SoundDuration":80893,"Delta":118433939},{"NoteNumber":70,"Velocity":45,"Duration":80893,"SoundDuration":80893,"Delta":118433939},{"NoteNumber":52,"Velocity":34,"Duration":80893,"SoundDuration":80893,"Delta":118433939},{"NoteNumber":48,"Velocity":34,"Duration":80893,"SoundDuration":80893,"Delta":118433939},{"NoteNumber":60,"Velocity":38,"Duration":80893,"SoundDuration":80893,"Delta":118433939},{"NoteNumber":67,"Velocity":40,"Duration":80892,"SoundDuration":80892,"Delta":118595725},{"NoteNumber":70,"Velocity":45,"Duration":80892,"SoundDuration":80892,"Delta":118595725},{"NoteNumber":52,"Velocity":34,"Duration":80892,"SoundDuration":80892,"Delta":118595725},{"NoteNumber":48,"Velocity":34,"Duration":80892,"SoundDuration":80892,"Delta":118595725},{"NoteNumber":60,"Velocity":38,"Duration":80892,"SoundDuration":80892,"Delta":118595725},{"NoteNumber":77,"Velocity":89,"Duration":297455,"SoundDuration":297455,"Delta":118757511},{"NoteNumber":81,"Velocity":89,"Duration":297455,"SoundDuration":297455,"Delta":118757511},{"NoteNumber":84,"Velocity":89,"Duration":297455,"SoundDuration":297455,"Delta":118757511},{"NoteNumber":89,"Velocity":99,"Duration":297455,"SoundDuration":297455,"Delta":118757511},{"NoteNumber":41,"Velocity":75,"Duration":297455,"SoundDuration":297455,"Delta":118757511},{"NoteNumber":53,"Velocity":84,"Duration":297455,"SoundDuration":297455,"Delta":118757511},{"NoteNumber":65,"Velocity":89,"Duration":330505,"SoundDuration":330505,"Delta":119088017},{"NoteNumber":77,"Velocity":99,"Duration":330505,"SoundDuration":330505,"Delta":119088017},{"NoteNumber":53,"Velocity":84,"Duration":330505,"SoundDuration":330505,"Delta":119088017}]}