{"title":"Oriental","artist":"Piano","durationMs":207408,"midiSha256":"29166e98e2f4d46e28dd87eca14668284418e07c0e1df7c8e5c6f22dbbf44eb8","midiObject":[{"NoteNumber":60,"Velocity":37,"Duration":247934,"SoundDuration":247934,"Delta":0},{"NoteNumber":62,"Velocity":30,"Duration":241935,"SoundDuration":241935,"Delta":247934},{"NoteNumber":63,"Velocity":37,"Duration":239043,"SoundDuration":239043,"Delta":489869},{"NoteNumber":67,"Velocity":29,"Duration":237153,"SoundDuration":237153,"Delta":728913},{"NoteNumber":63,"Velocity":33,"Duration":241935,"SoundDuration":241935,"Delta":966067},{"NoteNumber":62,"Velocity":30,"Duration":241935,"SoundDuration":241935,"Delta":1208003},{"NoteNumber":60,"Velocity":37,"Duration":245901,"SoundDuration":245901,"Delta":1449938},{"NoteNumber":62,"Velocity":31,"Duration":240000,"SoundDuration":240000,"Delta":1695840},{"NoteNumber":63,"Velocity":37,"Duration":238095,"SoundDuration":238095,"Delta":1935840},{"NoteNumber":67,"Velocity":31,"Duration":236220,"SoundDuration":236220,"Delta":2173935},{"NoteNumber":63,"Velocity":35,"Duration":240000,"SoundDuration":240000,"Delta":2410155},{"NoteNumber":62,"Velocity":30,"Duration":245901,"SoundDuration":245901,"Delta":2650155},{"NoteNumber":91,"Velocity":57,"Duration":474308,"SoundDuration":474308,"Delta":2896057},{"NoteNumber":87,"Velocity":52,"Duration":474308,"SoundDuration":474308,"Delta":2896057},{"NoteNumber":60,"Velocity":35,"Duration":237153,"SoundDuration":237153,"Delta":2896057},{"NoteNumber":62,"Velocity":31,"Duration":237154,"SoundDuration":237154,"Delta":3133211},{"NoteNumber":87,"Velocity":53,"Duration":476460,"SoundDuration":476460,"Delta":3370365},{"NoteNumber":84,"Velocity":49,"Duration":476460,"SoundDuration":476460,"Delta":3370365},{"NoteNumber":63,"Velocity":35,"Duration":243902,"SoundDuration":243902,"Delta":3370365},{"NoteNumber":67,"Velocity":30,"Duration":232558,"SoundDuration":232558,"Delta":3614267},{"NoteNumber":87,"Velocity":52,"Duration":955180,"SoundDuration":955180,"Delta":3846825},{"NoteNumber":91,"Velocity":57,"Duration":955180,"SoundDuration":955180,"Delta":3846825},{"NoteNumber":63,"Velocity":33,"Duration":236220,"SoundDuration":236220,"Delta":3846825},{"NoteNumber":62,"Velocity":29,"Duration":242228,"SoundDuration":242228,"Delta":4083046},{"NoteNumber":60,"Velocity":35,"Duration":236462,"SoundDuration":236462,"Delta":4325274},{"NoteNumber":62,"Velocity":29,"Duration":240268,"SoundDuration":240268,"Delta":4561737},{"NoteNumber":86,"Velocity":52,"Duration":477188,"SoundDuration":477188,"Delta":4802006},{"NoteNumber":89,"Velocity":57,"Duration":477188,"SoundDuration":477188,"Delta":4802006},{"NoteNumber":60,"Velocity":31,"Duration":239790,"SoundDuration":239790,"Delta":4802006},{"NoteNumber":62,"Velocity":27,"Duration":237398,"SoundDuration":237398,"Delta":5041796},{"NoteNumber":84,"Velocity":50,"Duration":479626,"SoundDuration":479626,"Delta":5279194},{"NoteNumber":87,"Velocity":55,"Duration":479626,"SoundDuration":479626,"Delta":5279194},{"NoteNumber":63,"Velocity":31,"Duration":237397,"SoundDuration":237397,"Delta":5279194},{"NoteNumber":67,"Velocity":27,"Duration":242228,"SoundDuration":242228,"Delta":5516592},{"NoteNumber":86,"Velocity":54,"Duration":478506,"SoundDuration":478506,"Delta":5758821},{"NoteNumber":89,"Velocity":59,"Duration":478506,"SoundDuration":478506,"Delta":5758821},{"NoteNumber":60,"Velocity":35,"Duration":239253,"SoundDuration":239253,"Delta":5758821},{"NoteNumber":62,"Velocity":31,"Duration":239253,"SoundDuration":239253,"Delta":5998074},{"NoteNumber":86,"Velocity":50,"Duration":237285,"SoundDuration":237285,"Delta":6237328},{"NoteNumber":89,"Velocity":55,"Duration":237285,"SoundDuration":237285,"Delta":6237328},{"NoteNumber":65,"Velocity":34,"Duration":237285,"SoundDuration":237285,"Delta":6237328},{"NoteNumber":84,"Velocity":46,"Duration":237285,"SoundDuration":237285,"Delta":6474613},{"NoteNumber":87,"Velocity":50,"Duration":237285,"SoundDuration":237285,"Delta":6474613},{"NoteNumber":70,"Velocity":29,"Duration":237285,"SoundDuration":237285,"Delta":6474613},{"NoteNumber":86,"Velocity":56,"Duration":950532,"SoundDuration":950532,"Delta":6711899},{"NoteNumber":82,"Velocity":51,"Duration":950532,"SoundDuration":950532,"Delta":6711899},{"NoteNumber":65,"Velocity":31,"Duration":237285,"SoundDuration":237285,"Delta":6711899},{"NoteNumber":62,"Velocity":29,"Duration":241254,"SoundDuration":241254,"Delta":6949184},{"NoteNumber":60,"Velocity":33,"Duration":234594,"SoundDuration":234594,"Delta":7190439},{"NoteNumber":62,"Velocity":28,"Duration":237397,"SoundDuration":237397,"Delta":7425034},{"NoteNumber":84,"Velocity":51,"Duration":79997,"SoundDuration":79997,"Delta":7662432},{"NoteNumber":74,"Velocity":45,"Duration":959173,"SoundDuration":959173,"Delta":7662432},{"NoteNumber":65,"Velocity":35,"Duration":241169,"SoundDuration":241169,"Delta":7662432},{"NoteNumber":82,"Velocity":47,"Duration":81089,"SoundDuration":81089,"Delta":7742429},{"NoteNumber":84,"Velocity":51,"Duration":80082,"SoundDuration":80082,"Delta":7823519},{"NoteNumber":82,"Velocity":47,"Duration":80079,"SoundDuration":80079,"Delta":7903601},{"NoteNumber":70,"Velocity":30,"Duration":239104,"SoundDuration":239104,"Delta":7903601},{"NoteNumber":84,"Velocity":50,"Duration":80162,"SoundDuration":80162,"Delta":7983680},{"NoteNumber":82,"Velocity":46,"Duration":78862,"SoundDuration":78862,"Delta":8063843},{"NoteNumber":84,"Velocity":50,"Duration":79831,"SoundDuration":79831,"Delta":8142706},{"NoteNumber":65,"Velocity":34,"Duration":237794,"SoundDuration":237794,"Delta":8142706},{"NoteNumber":82,"Velocity":45,"Duration":78622,"SoundDuration":78622,"Delta":8222538},{"NoteNumber":84,"Velocity":48,"Duration":79340,"SoundDuration":79340,"Delta":8301160},{"NoteNumber":82,"Velocity":46,"Duration":78908,"SoundDuration":78908,"Delta":8380501},{"NoteNumber":58,"Velocity":29,"Duration":241104,"SoundDuration":241104,"Delta":8380501},{"NoteNumber":80,"Velocity":49,"Duration":80768,"SoundDuration":80768,"Delta":8459409},{"NoteNumber":82,"Velocity":50,"Duration":81427,"SoundDuration":81427,"Delta":8540177},{"NoteNumber":80,"Velocity":55,"Duration":476530,"SoundDuration":476530,"Delta":8621605},{"NoteNumber":84,"Velocity":60,"Duration":476530,"SoundDuration":476530,"Delta":8621605},{"NoteNumber":56,"Velocity":39,"Duration":238265,"SoundDuration":238265,"Delta":8621605},{"NoteNumber":58,"Velocity":33,"Duration":238265,"SoundDuration":238265,"Delta":8859870},{"NoteNumber":87,"Velocity":57,"Duration":482469,"SoundDuration":482469,"Delta":9098136},{"NoteNumber":84,"Velocity":48,"Duration":482469,"SoundDuration":482469,"Delta":9098136},{"NoteNumber":60,"Velocity":36,"Duration":241234,"SoundDuration":241234,"Delta":9098136},{"NoteNumber":63,"Velocity":32,"Duration":241234,"SoundDuration":241234,"Delta":9339371},{"NoteNumber":82,"Velocity":49,"Duration":482470,"SoundDuration":482470,"Delta":9580606},{"NoteNumber":86,"Velocity":53,"Duration":482470,"SoundDuration":482470,"Delta":9580606},{"NoteNumber":65,"Velocity":35,"Duration":241235,"SoundDuration":241235,"Delta":9580606},{"NoteNumber":67,"Velocity":29,"Duration":241234,"SoundDuration":241234,"Delta":9821841},{"NoteNumber":80,"Velocity":51,"Duration":482469,"SoundDuration":482469,"Delta":10063076},{"NoteNumber":84,"Velocity":56,"Duration":482469,"SoundDuration":482469,"Delta":10063076},{"NoteNumber":68,"Velocity":34,"Duration":241234,"SoundDuration":241234,"Delta":10063076},{"NoteNumber":70,"Velocity":31,"Duration":241234,"SoundDuration":241234,"Delta":10304311},{"NoteNumber":82,"Velocity":49,"Duration":490596,"SoundDuration":490596,"Delta":10545546},{"NoteNumber":86,"Velocity":53,"Duration":490596,"SoundDuration":490596,"Delta":10545546},{"NoteNumber":68,"Velocity":34,"Duration":245298,"SoundDuration":245298,"Delta":10545546},{"NoteNumber":70,"Velocity":31,"Duration":245298,"SoundDuration":245298,"Delta":10790844},{"NoteNumber":74,"Velocity":46,"Duration":503398,"SoundDuration":503398,"Delta":11036143},{"NoteNumber":82,"Velocity":51,"Duration":503398,"SoundDuration":503398,"Delta":11036143},{"NoteNumber":56,"Velocity":32,"Duration":251699,"SoundDuration":251699,"Delta":11036143},{"NoteNumber":58,"Velocity":31,"Duration":251699,"SoundDuration":251699,"Delta":11287842},{"NoteNumber":75,"Velocity":47,"Duration":2869679,"SoundDuration":2869679,"Delta":11539541},{"NoteNumber":79,"Velocity":51,"Duration":2869679,"SoundDuration":2869679,"Delta":11539541},{"NoteNumber":60,"Velocity":37,"Duration":237398,"SoundDuration":237398,"Delta":11539541},{"NoteNumber":62,"Velocity":31,"Duration":242228,"SoundDuration":242228,"Delta":11776939},{"NoteNumber":63,"Velocity":37,"Duration":236462,"SoundDuration":236462,"Delta":12019167},{"NoteNumber":67,"Velocity":29,"Duration":238094,"SoundDuration":238094,"Delta":12255630},{"NoteNumber":63,"Velocity":35,"Duration":236462,"SoundDuration":236462,"Delta":12493725},{"NoteNumber":62,"Velocity":30,"Duration":241254,"SoundDuration":241254,"Delta":12730187},{"NoteNumber":60,"Velocity":37,"Duration":236462,"SoundDuration":236462,"Delta":12971442},{"NoteNumber":62,"Velocity":30,"Duration":240268,"SoundDuration":240268,"Delta":13207904},{"NoteNumber":63,"Velocity":35,"Duration":237398,"SoundDuration":237398,"Delta":13448173},{"NoteNumber":67,"Velocity":29,"Duration":239043,"SoundDuration":239043,"Delta":13685571},{"NoteNumber":63,"Velocity":35,"Duration":238360,"SoundDuration":238360,"Delta":13924615},{"NoteNumber":62,"Velocity":31,"Duration":246245,"SoundDuration":246245,"Delta":14162975},{"NoteNumber":87,"Velocity":48,"Duration":481927,"SoundDuration":481927,"Delta":14409220},{"NoteNumber":91,"Velocity":52,"Duration":481927,"SoundDuration":481927,"Delta":14409220},{"NoteNumber":60,"Velocity":32,"Duration":240963,"SoundDuration":240963,"Delta":14409220},{"NoteNumber":62,"Velocity":29,"Duration":240963,"SoundDuration":240963,"Delta":14650184},{"NoteNumber":87,"Velocity":49,"Duration":473732,"SoundDuration":473732,"Delta":14891148},{"NoteNumber":84,"Velocity":45,"Duration":473732,"SoundDuration":473732,"Delta":14891148},{"NoteNumber":63,"Velocity":32,"Duration":240268,"SoundDuration":240268,"Delta":14891148},{"NoteNumber":67,"Velocity":28,"Duration":233463,"SoundDuration":233463,"Delta":15131417},{"NoteNumber":87,"Velocity":48,"Duration":955180,"SoundDuration":955180,"Delta":15364880},{"NoteNumber":91,"Velocity":52,"Duration":955180,"SoundDuration":955180,"Delta":15364880},{"NoteNumber":63,"Velocity":30,"Duration":236220,"SoundDuration":236220,"Delta":15364880},{"NoteNumber":62,"Velocity":27,"Duration":242228,"SoundDuration":242228,"Delta":15601101},{"NoteNumber":60,"Velocity":32,"Duration":236462,"SoundDuration":236462,"Delta":15843329},{"NoteNumber":62,"Velocity":27,"Duration":240269,"SoundDuration":240269,"Delta":16079792},{"NoteNumber":89,"Velocity":55,"Duration":477188,"SoundDuration":477188,"Delta":16320061},{"NoteNumber":86,"Velocity":50,"Duration":477188,"SoundDuration":477188,"Delta":16320061},{"NoteNumber":60,"Velocity":29,"Duration":239790,"SoundDuration":239790,"Delta":16320061},{"NoteNumber":62,"Velocity":25,"Duration":237398,"SoundDuration":237398,"Delta":16559851},{"NoteNumber":84,"Velocity":47,"Duration":479626,"SoundDuration":479626,"Delta":16797249},{"NoteNumber":87,"Velocity":51,"Duration":479626,"SoundDuration":479626,"Delta":16797249},{"NoteNumber":63,"Velocity":28,"Duration":237397,"SoundDuration":237397,"Delta":16797249},{"NoteNumber":67,"Velocity":25,"Duration":242228,"SoundDuration":242228,"Delta":17034647},{"NoteNumber":86,"Velocity":49,"Duration":481927,"SoundDuration":481927,"Delta":17276876},{"NoteNumber":89,"Velocity":53,"Duration":481927,"SoundDuration":481927,"Delta":17276876},{"NoteNumber":60,"Velocity":32,"Duration":240964,"SoundDuration":240964,"Delta":17276876},{"NoteNumber":62,"Velocity":29,"Duration":240963,"SoundDuration":240963,"Delta":17517840},{"NoteNumber":86,"Velocity":46,"Duration":237285,"SoundDuration":237285,"Delta":17758804},{"NoteNumber":89,"Velocity":50,"Duration":237285,"SoundDuration":237285,"Delta":17758804},{"NoteNumber":65,"Velocity":31,"Duration":237285,"SoundDuration":237285,"Delta":17758804},{"NoteNumber":84,"Velocity":42,"Duration":237285,"SoundDuration":237285,"Delta":17996089},{"NoteNumber":87,"Velocity":46,"Duration":237285,"SoundDuration":237285,"Delta":17996089},{"NoteNumber":70,"Velocity":27,"Duration":237285,"SoundDuration":237285,"Delta":17996089},{"NoteNumber":82,"Velocity":47,"Duration":957231,"SoundDuration":957231,"Delta":18233375},{"NoteNumber":86,"Velocity":51,"Duration":957231,"SoundDuration":957231,"Delta":18233375},{"NoteNumber":65,"Velocity":29,"Duration":237285,"SoundDuration":237285,"Delta":18233375},{"NoteNumber":62,"Velocity":27,"Duration":241254,"SoundDuration":241254,"Delta":18470660},{"NoteNumber":60,"Velocity":30,"Duration":236462,"SoundDuration":236462,"Delta":18711915},{"NoteNumber":62,"Velocity":26,"Duration":242228,"SoundDuration":242228,"Delta":18948377},{"NoteNumber":84,"Velocity":47,"Duration":80700,"SoundDuration":80700,"Delta":19190606},{"NoteNumber":74,"Velocity":41,"Duration":964469,"SoundDuration":964469,"Delta":19190606},{"NoteNumber":65,"Velocity":32,"Duration":241834,"SoundDuration":241834,"Delta":19190606},{"NoteNumber":82,"Velocity":43,"Duration":80877,"SoundDuration":80877,"Delta":19271306},{"NoteNumber":84,"Velocity":47,"Duration":80257,"SoundDuration":80257,"Delta":19352183},{"NoteNumber":82,"Velocity":42,"Duration":80810,"SoundDuration":80810,"Delta":19432440},{"NoteNumber":70,"Velocity":28,"Duration":242013,"SoundDuration":242013,"Delta":19432440},{"NoteNumber":84,"Velocity":46,"Duration":80939,"SoundDuration":80939,"Delta":19513251},{"NoteNumber":82,"Velocity":41,"Duration":80264,"SoundDuration":80264,"Delta":19594190},{"NoteNumber":84,"Velocity":46,"Duration":80433,"SoundDuration":80433,"Delta":19674454},{"NoteNumber":65,"Velocity":31,"Duration":238857,"SoundDuration":238857,"Delta":19674454},{"NoteNumber":82,"Velocity":41,"Duration":79291,"SoundDuration":79291,"Delta":19754888},{"NoteNumber":84,"Velocity":44,"Duration":79132,"SoundDuration":79132,"Delta":19834179},{"NoteNumber":82,"Velocity":42,"Duration":79071,"SoundDuration":79071,"Delta":19913312},{"NoteNumber":58,"Velocity":27,"Duration":241762,"SoundDuration":241762,"Delta":19913312},{"NoteNumber":80,"Velocity":45,"Duration":80656,"SoundDuration":80656,"Delta":19992384},{"NoteNumber":82,"Velocity":46,"Duration":82035,"SoundDuration":82035,"Delta":20073040},{"NoteNumber":80,"Velocity":50,"Duration":476531,"SoundDuration":476531,"Delta":20155075},{"NoteNumber":84,"Velocity":55,"Duration":476531,"SoundDuration":476531,"Delta":20155075},{"NoteNumber":56,"Velocity":36,"Duration":238265,"SoundDuration":238265,"Delta":20155075},{"NoteNumber":58,"Velocity":30,"Duration":238265,"SoundDuration":238265,"Delta":20393340},{"NoteNumber":84,"Velocity":46,"Duration":482469,"SoundDuration":482469,"Delta":20631606},{"NoteNumber":87,"Velocity":54,"Duration":482469,"SoundDuration":482469,"Delta":20631606},{"NoteNumber":60,"Velocity":33,"Duration":241234,"SoundDuration":241234,"Delta":20631606},{"NoteNumber":63,"Velocity":32,"Duration":241234,"SoundDuration":241234,"Delta":20872841},{"NoteNumber":82,"Velocity":47,"Duration":484149,"SoundDuration":484149,"Delta":21114076},{"NoteNumber":86,"Velocity":51,"Duration":484149,"SoundDuration":484149,"Delta":21114076},{"NoteNumber":65,"Velocity":32,"Duration":241234,"SoundDuration":241234,"Delta":21114076},{"NoteNumber":67,"Velocity":27,"Duration":242915,"SoundDuration":242915,"Delta":21355311},{"NoteNumber":80,"Velocity":49,"Duration":476189,"SoundDuration":476189,"Delta":21598226},{"NoteNumber":84,"Velocity":53,"Duration":476189,"SoundDuration":476189,"Delta":21598226},{"NoteNumber":68,"Velocity":33,"Duration":238095,"SoundDuration":238095,"Delta":21598226},{"NoteNumber":70,"Velocity":30,"Duration":238094,"SoundDuration":238094,"Delta":21836321},{"NoteNumber":86,"Velocity":52,"Duration":490597,"SoundDuration":490597,"Delta":22074416},{"NoteNumber":82,"Velocity":48,"Duration":490597,"SoundDuration":490597,"Delta":22074416},{"NoteNumber":68,"Velocity":33,"Duration":245298,"SoundDuration":245298,"Delta":22074416},{"NoteNumber":70,"Velocity":29,"Duration":245298,"SoundDuration":245298,"Delta":22319714},{"NoteNumber":74,"Velocity":44,"Duration":503398,"SoundDuration":503398,"Delta":22565013},{"NoteNumber":82,"Velocity":48,"Duration":503398,"SoundDuration":503398,"Delta":22565013},{"NoteNumber":56,"Velocity":31,"Duration":251698,"SoundDuration":251698,"Delta":22565013},{"NoteNumber":58,"Velocity":29,"Duration":251699,"SoundDuration":251699,"Delta":22816712},{"NoteNumber":75,"Velocity":43,"Duration":2867628,"SoundDuration":2867628,"Delta":23068411},{"NoteNumber":79,"Velocity":47,"Duration":2867628,"SoundDuration":2867628,"Delta":23068411},{"NoteNumber":60,"Velocity":34,"Duration":236462,"SoundDuration":236462,"Delta":23068411},{"NoteNumber":62,"Velocity":29,"Duration":242228,"SoundDuration":242228,"Delta":23304873},{"NoteNumber":63,"Velocity":33,"Duration":237397,"SoundDuration":237397,"Delta":23547102},{"NoteNumber":67,"Velocity":27,"Duration":238095,"SoundDuration":238095,"Delta":23784500},{"NoteNumber":63,"Velocity":32,"Duration":236462,"SoundDuration":236462,"Delta":24022595},{"NoteNumber":62,"Velocity":28,"Duration":242228,"SoundDuration":242228,"Delta":24259057},{"NoteNumber":60,"Velocity":34,"Duration":237397,"SoundDuration":237397,"Delta":24501286},{"NoteNumber":62,"Velocity":28,"Duration":241254,"SoundDuration":241254,"Delta":24738684},{"NoteNumber":63,"Velocity":32,"Duration":237397,"SoundDuration":237397,"Delta":24979938},{"NoteNumber":67,"Velocity":27,"Duration":238095,"SoundDuration":238095,"Delta":25217336},{"NoteNumber":63,"Velocity":32,"Duration":237397,"SoundDuration":237397,"Delta":25455431},{"NoteNumber":62,"Velocity":29,"Duration":243210,"SoundDuration":243210,"Delta":25692829},{"NoteNumber":62,"Velocity":40,"Duration":229884,"SoundDuration":229884,"Delta":25936040},{"NoteNumber":65,"Velocity":48,"Duration":229884,"SoundDuration":229884,"Delta":25936040},{"NoteNumber":58,"Velocity":47,"Duration":229884,"SoundDuration":229884,"Delta":25936040},{"NoteNumber":63,"Velocity":38,"Duration":234375,"SoundDuration":234375,"Delta":26165925},{"NoteNumber":67,"Velocity":51,"Duration":234375,"SoundDuration":234375,"Delta":26165925},{"NoteNumber":56,"Velocity":41,"Duration":234375,"SoundDuration":234375,"Delta":26165925},{"NoteNumber":62,"Velocity":41,"Duration":231874,"SoundDuration":231874,"Delta":26400300},{"NoteNumber":65,"Velocity":49,"Duration":231874,"SoundDuration":231874,"Delta":26400300},{"NoteNumber":58,"Velocity":47,"Duration":231874,"SoundDuration":231874,"Delta":26400300},{"NoteNumber":63,"Velocity":39,"Duration":236313,"SoundDuration":236313,"Delta":26632175},{"NoteNumber":67,"Velocity":52,"Duration":236313,"SoundDuration":236313,"Delta":26632175},{"NoteNumber":56,"Velocity":39,"Duration":236313,"SoundDuration":236313,"Delta":26632175},{"NoteNumber":65,"Velocity":43,"Duration":481531,"SoundDuration":481531,"Delta":26868488},{"NoteNumber":68,"Velocity":57,"Duration":481531,"SoundDuration":481531,"Delta":26868488},{"NoteNumber":53,"Velocity":44,"Duration":236313,"SoundDuration":236313,"Delta":26868488},{"NoteNumber":51,"Velocity":39,"Duration":245218,"SoundDuration":245218,"Delta":27104802},{"NoteNumber":67,"Velocity":44,"Duration":472925,"SoundDuration":472925,"Delta":27350020},{"NoteNumber":71,"Velocity":58,"Duration":472925,"SoundDuration":472925,"Delta":27350020},{"NoteNumber":50,"Velocity":48,"Duration":236462,"SoundDuration":236462,"Delta":27350020},{"NoteNumber":48,"Velocity":44,"Duration":236462,"SoundDuration":236462,"Delta":27586482},{"NoteNumber":74,"Velocity":62,"Duration":948470,"SoundDuration":948470,"Delta":27822945},{"NoteNumber":65,"Velocity":55,"Duration":948470,"SoundDuration":948470,"Delta":27822945},{"NoteNumber":47,"Velocity":47,"Duration":234411,"SoundDuration":234411,"Delta":27822945},{"NoteNumber":44,"Velocity":49,"Duration":234411,"SoundDuration":234411,"Delta":28057356},{"NoteNumber":41,"Velocity":50,"Duration":237418,"SoundDuration":237418,"Delta":28291768},{"NoteNumber":39,"Velocity":49,"Duration":242228,"SoundDuration":242228,"Delta":28529187},{"NoteNumber":63,"Velocity":52,"Duration":2822473,"SoundDuration":2822473,"Delta":28771415},{"NoteNumber":67,"Velocity":58,"Duration":2822473,"SoundDuration":2822473,"Delta":28771415},{"NoteNumber":38,"Velocity":57,"Duration":234594,"SoundDuration":234594,"Delta":28771415},{"NoteNumber":36,"Velocity":52,"Duration":237154,"SoundDuration":237154,"Delta":29006010},{"NoteNumber":38,"Velocity":52,"Duration":234594,"SoundDuration":234594,"Delta":29243164},{"NoteNumber":39,"Velocity":48,"Duration":240269,"SoundDuration":240269,"Delta":29477759},{"NoteNumber":43,"Velocity":52,"Duration":235516,"SoundDuration":235516,"Delta":29718028},{"NoteNumber":48,"Velocity":47,"Duration":239311,"SoundDuration":239311,"Delta":29953544},{"NoteNumber":50,"Velocity":52,"Duration":236308,"SoundDuration":236308,"Delta":30192855},{"NoteNumber":51,"Velocity":46,"Duration":231624,"SoundDuration":231624,"Delta":30429164},{"NoteNumber":53,"Velocity":47,"Duration":231624,"SoundDuration":231624,"Delta":30660788},{"NoteNumber":51,"Velocity":47,"Duration":231624,"SoundDuration":231624,"Delta":30892413},{"NoteNumber":50,"Velocity":45,"Duration":231624,"SoundDuration":231624,"Delta":31124037},{"NoteNumber":51,"Velocity":44,"Duration":238227,"SoundDuration":238227,"Delta":31355662},{"NoteNumber":62,"Velocity":34,"Duration":240964,"SoundDuration":240964,"Delta":31593889},{"NoteNumber":65,"Velocity":40,"Duration":240964,"SoundDuration":240964,"Delta":31593889},{"NoteNumber":58,"Velocity":39,"Duration":240964,"SoundDuration":240964,"Delta":31593889},{"NoteNumber":63,"Velocity":32,"Duration":244126,"SoundDuration":244126,"Delta":31834853},{"NoteNumber":67,"Velocity":43,"Duration":244126,"SoundDuration":244126,"Delta":31834853},{"NoteNumber":56,"Velocity":34,"Duration":244126,"SoundDuration":244126,"Delta":31834853},{"NoteNumber":62,"Velocity":34,"Duration":240000,"SoundDuration":240000,"Delta":32078980},{"NoteNumber":65,"Velocity":41,"Duration":240000,"SoundDuration":240000,"Delta":32078980},{"NoteNumber":58,"Velocity":39,"Duration":240000,"SoundDuration":240000,"Delta":32078980},{"NoteNumber":63,"Velocity":33,"Duration":241935,"SoundDuration":241935,"Delta":32318980},{"NoteNumber":67,"Velocity":44,"Duration":241935,"SoundDuration":241935,"Delta":32318980},{"NoteNumber":56,"Velocity":33,"Duration":241935,"SoundDuration":241935,"Delta":32318980},{"NoteNumber":65,"Velocity":36,"Duration":487153,"SoundDuration":487153,"Delta":32560915},{"NoteNumber":68,"Velocity":48,"Duration":487153,"SoundDuration":487153,"Delta":32560915},{"NoteNumber":53,"Velocity":37,"Duration":241935,"SoundDuration":241935,"Delta":32560915},{"NoteNumber":51,"Velocity":33,"Duration":245218,"SoundDuration":245218,"Delta":32802851},{"NoteNumber":67,"Velocity":39,"Duration":478087,"SoundDuration":478087,"Delta":33048069},{"NoteNumber":71,"Velocity":52,"Duration":478087,"SoundDuration":478087,"Delta":33048069},{"NoteNumber":50,"Velocity":43,"Duration":239043,"SoundDuration":239043,"Delta":33048069},{"NoteNumber":48,"Velocity":39,"Duration":239043,"SoundDuration":239043,"Delta":33287113},{"NoteNumber":74,"Velocity":55,"Duration":948470,"SoundDuration":948470,"Delta":33526157},{"NoteNumber":65,"Velocity":41,"Duration":948470,"SoundDuration":948470,"Delta":33526157},{"NoteNumber":47,"Velocity":42,"Duration":234411,"SoundDuration":234411,"Delta":33526157},{"NoteNumber":44,"Velocity":44,"Duration":234411,"SoundDuration":234411,"Delta":33760568},{"NoteNumber":41,"Velocity":45,"Duration":237418,"SoundDuration":237418,"Delta":33994980},{"NoteNumber":39,"Velocity":44,"Duration":242228,"SoundDuration":242228,"Delta":34232398},{"NoteNumber":63,"Velocity":39,"Duration":2825453,"SoundDuration":2825453,"Delta":34474627},{"NoteNumber":67,"Velocity":52,"Duration":2825453,"SoundDuration":2825453,"Delta":34474627},{"NoteNumber":38,"Velocity":51,"Duration":234594,"SoundDuration":234594,"Delta":34474627},{"NoteNumber":36,"Velocity":46,"Duration":240268,"SoundDuration":240268,"Delta":34709222},{"NoteNumber":38,"Velocity":46,"Duration":234594,"SoundDuration":234594,"Delta":34949491},{"NoteNumber":39,"Velocity":43,"Duration":237153,"SoundDuration":237153,"Delta":35184086},{"NoteNumber":43,"Velocity":46,"Duration":235515,"SoundDuration":235515,"Delta":35421240},{"NoteNumber":48,"Velocity":42,"Duration":239311,"SoundDuration":239311,"Delta":35656756},{"NoteNumber":50,"Velocity":46,"Duration":236308,"SoundDuration":236308,"Delta":35896067},{"NoteNumber":51,"Velocity":41,"Duration":231624,"SoundDuration":231624,"Delta":36132375},{"NoteNumber":53,"Velocity":42,"Duration":231624,"SoundDuration":231624,"Delta":36364000},{"NoteNumber":51,"Velocity":42,"Duration":231628,"SoundDuration":231628,"Delta":36595624},{"NoteNumber":50,"Velocity":40,"Duration":234732,"SoundDuration":234732,"Delta":36827253},{"NoteNumber":51,"Velocity":39,"Duration":238095,"SoundDuration":238095,"Delta":37061986},{"NoteNumber":87,"Velocity":48,"Duration":481928,"SoundDuration":481928,"Delta":37300081},{"NoteNumber":91,"Velocity":52,"Duration":481928,"SoundDuration":481928,"Delta":37300081},{"NoteNumber":60,"Velocity":32,"Duration":240963,"SoundDuration":240963,"Delta":37300081},{"NoteNumber":62,"Velocity":29,"Duration":240964,"SoundDuration":240964,"Delta":37541045},{"NoteNumber":87,"Velocity":49,"Duration":473731,"SoundDuration":473731,"Delta":37782009},{"NoteNumber":84,"Velocity":45,"Duration":473731,"SoundDuration":473731,"Delta":37782009},{"NoteNumber":63,"Velocity":30,"Duration":240268,"SoundDuration":240268,"Delta":37782009},{"NoteNumber":67,"Velocity":28,"Duration":233463,"SoundDuration":233463,"Delta":38022278},{"NoteNumber":87,"Velocity":48,"Duration":955180,"SoundDuration":955180,"Delta":38255741},{"NoteNumber":91,"Velocity":52,"Duration":955180,"SoundDuration":955180,"Delta":38255741},{"NoteNumber":63,"Velocity":29,"Duration":236220,"SoundDuration":236220,"Delta":38255741},{"NoteNumber":62,"Velocity":27,"Duration":242228,"SoundDuration":242228,"Delta":38491961},{"NoteNumber":60,"Velocity":32,"Duration":236462,"SoundDuration":236462,"Delta":38734190},{"NoteNumber":62,"Velocity":27,"Duration":240268,"SoundDuration":240268,"Delta":38970652},{"NoteNumber":86,"Velocity":50,"Duration":474165,"SoundDuration":474165,"Delta":39210921},{"NoteNumber":89,"Velocity":55,"Duration":474165,"SoundDuration":474165,"Delta":39210921},{"NoteNumber":60,"Velocity":29,"Duration":239790,"SoundDuration":239790,"Delta":39210921},{"NoteNumber":62,"Velocity":25,"Duration":234375,"SoundDuration":234375,"Delta":39450712},{"NoteNumber":84,"Velocity":47,"Duration":479626,"SoundDuration":479626,"Delta":39685087},{"NoteNumber":87,"Velocity":51,"Duration":479626,"SoundDuration":479626,"Delta":39685087},{"NoteNumber":63,"Velocity":30,"Duration":237397,"SoundDuration":237397,"Delta":39685087},{"NoteNumber":67,"Velocity":25,"Duration":242228,"SoundDuration":242228,"Delta":39922485},{"NoteNumber":86,"Velocity":49,"Duration":481928,"SoundDuration":481928,"Delta":40164713},{"NoteNumber":89,"Velocity":53,"Duration":481928,"SoundDuration":481928,"Delta":40164713},{"NoteNumber":60,"Velocity":32,"Duration":240963,"SoundDuration":240963,"Delta":40164713},{"NoteNumber":62,"Velocity":29,"Duration":240964,"SoundDuration":240964,"Delta":40405677},{"NoteNumber":86,"Velocity":46,"Duration":237285,"SoundDuration":237285,"Delta":40646641},{"NoteNumber":89,"Velocity":50,"Duration":237285,"SoundDuration":237285,"Delta":40646641},{"NoteNumber":65,"Velocity":31,"Duration":237285,"SoundDuration":237285,"Delta":40646641},{"NoteNumber":87,"Velocity":46,"Duration":233463,"SoundDuration":233463,"Delta":40883927},{"NoteNumber":84,"Velocity":42,"Duration":233463,"SoundDuration":233463,"Delta":40883927},{"NoteNumber":70,"Velocity":27,"Duration":233463,"SoundDuration":233463,"Delta":40883927},{"NoteNumber":82,"Velocity":47,"Duration":957099,"SoundDuration":957099,"Delta":41117390},{"NoteNumber":86,"Velocity":51,"Duration":957099,"SoundDuration":957099,"Delta":41117390},{"NoteNumber":65,"Velocity":29,"Duration":237153,"SoundDuration":237153,"Delta":41117390},{"NoteNumber":62,"Velocity":27,"Duration":241254,"SoundDuration":241254,"Delta":41354544},{"NoteNumber":60,"Velocity":30,"Duration":236462,"SoundDuration":236462,"Delta":41595798},{"NoteNumber":62,"Velocity":26,"Duration":242228,"SoundDuration":242228,"Delta":41832261},{"NoteNumber":84,"Velocity":47,"Duration":80700,"SoundDuration":80700,"Delta":42074489},{"NoteNumber":74,"Velocity":41,"Duration":964469,"SoundDuration":964469,"Delta":42074489},{"NoteNumber":65,"Velocity":32,"Duration":241834,"SoundDuration":241834,"Delta":42074489},{"NoteNumber":82,"Velocity":45,"Duration":80877,"SoundDuration":80877,"Delta":42155189},{"NoteNumber":84,"Velocity":47,"Duration":80257,"SoundDuration":80257,"Delta":42236067},{"NoteNumber":82,"Velocity":43,"Duration":80810,"SoundDuration":80810,"Delta":42316324},{"NoteNumber":70,"Velocity":28,"Duration":242013,"SoundDuration":242013,"Delta":42316324},{"NoteNumber":84,"Velocity":46,"Duration":80939,"SoundDuration":80939,"Delta":42397135},{"NoteNumber":82,"Velocity":43,"Duration":80264,"SoundDuration":80264,"Delta":42478074},{"NoteNumber":84,"Velocity":46,"Duration":80433,"SoundDuration":80433,"Delta":42558338},{"NoteNumber":65,"Velocity":31,"Duration":238857,"SoundDuration":238857,"Delta":42558338},{"NoteNumber":82,"Velocity":41,"Duration":79291,"SoundDuration":79291,"Delta":42638771},{"NoteNumber":84,"Velocity":44,"Duration":79132,"SoundDuration":79132,"Delta":42718063},{"NoteNumber":82,"Velocity":42,"Duration":79071,"SoundDuration":79071,"Delta":42797196},{"NoteNumber":58,"Velocity":27,"Duration":241762,"SoundDuration":241762,"Delta":42797196},{"NoteNumber":80,"Velocity":45,"Duration":80656,"SoundDuration":80656,"Delta":42876268},{"NoteNumber":82,"Velocity":46,"Duration":82035,"SoundDuration":82035,"Delta":42956924},{"NoteNumber":84,"Velocity":55,"Duration":476531,"SoundDuration":476531,"Delta":43038959},{"NoteNumber":80,"Velocity":50,"Duration":476531,"SoundDuration":476531,"Delta":43038959},{"NoteNumber":56,"Velocity":36,"Duration":238265,"SoundDuration":238265,"Delta":43038959},{"NoteNumber":58,"Velocity":30,"Duration":238265,"SoundDuration":238265,"Delta":43277224},{"NoteNumber":84,"Velocity":47,"Duration":478087,"SoundDuration":478087,"Delta":43515490},{"NoteNumber":87,"Velocity":53,"Duration":478087,"SoundDuration":478087,"Delta":43515490},{"NoteNumber":60,"Velocity":33,"Duration":239043,"SoundDuration":239043,"Delta":43515490},{"NoteNumber":63,"Velocity":32,"Duration":239043,"SoundDuration":239043,"Delta":43754534},{"NoteNumber":82,"Velocity":47,"Duration":481928,"SoundDuration":481928,"Delta":43993578},{"NoteNumber":86,"Velocity":51,"Duration":481928,"SoundDuration":481928,"Delta":43993578},{"NoteNumber":65,"Velocity":32,"Duration":240963,"SoundDuration":240963,"Delta":43993578},{"NoteNumber":67,"Velocity":27,"Duration":240964,"SoundDuration":240964,"Delta":44234542},{"NoteNumber":80,"Velocity":49,"Duration":481927,"SoundDuration":481927,"Delta":44475506},{"NoteNumber":84,"Velocity":53,"Duration":481927,"SoundDuration":481927,"Delta":44475506},{"NoteNumber":68,"Velocity":33,"Duration":240963,"SoundDuration":240963,"Delta":44475506},{"NoteNumber":70,"Velocity":30,"Duration":240963,"SoundDuration":240963,"Delta":44716470},{"NoteNumber":82,"Velocity":48,"Duration":490597,"SoundDuration":490597,"Delta":44957434},{"NoteNumber":86,"Velocity":52,"Duration":490597,"SoundDuration":490597,"Delta":44957434},{"NoteNumber":68,"Velocity":33,"Duration":245298,"SoundDuration":245298,"Delta":44957434},{"NoteNumber":70,"Velocity":29,"Duration":245298,"SoundDuration":245298,"Delta":45202732},{"NoteNumber":74,"Velocity":44,"Duration":503397,"SoundDuration":503397,"Delta":45448031},{"NoteNumber":82,"Velocity":48,"Duration":503397,"SoundDuration":503397,"Delta":45448031},{"NoteNumber":56,"Velocity":32,"Duration":251699,"SoundDuration":251699,"Delta":45448031},{"NoteNumber":58,"Velocity":31,"Duration":251698,"SoundDuration":251698,"Delta":45699730},{"NoteNumber":75,"Velocity":43,"Duration":2865754,"SoundDuration":2865754,"Delta":45951429},{"NoteNumber":79,"Velocity":47,"Duration":2865754,"SoundDuration":2865754,"Delta":45951429},{"NoteNumber":60,"Velocity":34,"Duration":236462,"SoundDuration":236462,"Delta":45951429},{"NoteNumber":62,"Velocity":29,"Duration":242228,"SoundDuration":242228,"Delta":46187891},{"NoteNumber":63,"Velocity":32,"Duration":237397,"SoundDuration":237397,"Delta":46430120},{"NoteNumber":67,"Velocity":27,"Duration":238095,"SoundDuration":238095,"Delta":46667518},{"NoteNumber":63,"Velocity":32,"Duration":236462,"SoundDuration":236462,"Delta":46905613},{"NoteNumber":62,"Velocity":28,"Duration":242228,"SoundDuration":242228,"Delta":47142075},{"NoteNumber":60,"Velocity":34,"Duration":237397,"SoundDuration":237397,"Delta":47384304},{"NoteNumber":62,"Velocity":28,"Duration":241254,"SoundDuration":241254,"Delta":47621702},{"NoteNumber":63,"Velocity":32,"Duration":237397,"SoundDuration":237397,"Delta":47862956},{"NoteNumber":67,"Velocity":27,"Duration":236220,"SoundDuration":236220,"Delta":48100354},{"NoteNumber":63,"Velocity":32,"Duration":237397,"SoundDuration":237397,"Delta":48336575},{"NoteNumber":55,"Velocity":29,"Duration":243210,"SoundDuration":243210,"Delta":48573973},{"NoteNumber":65,"Velocity":45,"Duration":1462343,"SoundDuration":1462343,"Delta":48817183},{"NoteNumber":74,"Velocity":56,"Duration":496113,"SoundDuration":496113,"Delta":48817183},{"NoteNumber":59,"Velocity":38,"Duration":1462343,"SoundDuration":1462343,"Delta":48817183},{"NoteNumber":43,"Velocity":34,"Duration":1462343,"SoundDuration":1462343,"Delta":48817183},{"NoteNumber":74,"Velocity":56,"Duration":237153,"SoundDuration":237153,"Delta":49313297},{"NoteNumber":75,"Velocity":51,"Duration":241935,"SoundDuration":241935,"Delta":49550451},{"NoteNumber":74,"Velocity":56,"Duration":238095,"SoundDuration":238095,"Delta":49792387},{"NoteNumber":75,"Velocity":51,"Duration":249045,"SoundDuration":249045,"Delta":50030482},{"NoteNumber":63,"Velocity":45,"Duration":1466749,"SoundDuration":1466749,"Delta":50279527},{"NoteNumber":72,"Velocity":56,"Duration":492125,"SoundDuration":492125,"Delta":50279527},{"NoteNumber":48,"Velocity":30,"Duration":1466749,"SoundDuration":1466749,"Delta":50279527},{"NoteNumber":55,"Velocity":34,"Duration":1466749,"SoundDuration":1466749,"Delta":50279527},{"NoteNumber":72,"Velocity":49,"Duration":240307,"SoundDuration":240307,"Delta":50771653},{"NoteNumber":68,"Velocity":47,"Duration":242189,"SoundDuration":242189,"Delta":51011961},{"NoteNumber":67,"Velocity":47,"Duration":492125,"SoundDuration":492125,"Delta":51254150},{"NoteNumber":65,"Velocity":45,"Duration":1481538,"SoundDuration":1481538,"Delta":51746276},{"NoteNumber":74,"Velocity":51,"Duration":498091,"SoundDuration":498091,"Delta":51746276},{"NoteNumber":59,"Velocity":38,"Duration":1481538,"SoundDuration":1481538,"Delta":51746276},{"NoteNumber":43,"Velocity":34,"Duration":1481538,"SoundDuration":1481538,"Delta":51746276},{"NoteNumber":74,"Velocity":51,"Duration":241235,"SoundDuration":241235,"Delta":52244367},{"NoteNumber":75,"Velocity":46,"Duration":249045,"SoundDuration":249045,"Delta":52485602},{"NoteNumber":74,"Velocity":51,"Duration":244120,"SoundDuration":244120,"Delta":52734648},{"NoteNumber":75,"Velocity":44,"Duration":249045,"SoundDuration":249045,"Delta":52978769},{"NoteNumber":63,"Velocity":45,"Duration":1470467,"SoundDuration":1470467,"Delta":53227814},{"NoteNumber":72,"Velocity":51,"Duration":1470467,"SoundDuration":1470467,"Delta":53227814},{"NoteNumber":55,"Velocity":34,"Duration":1470467,"SoundDuration":1470467,"Delta":53227814},{"NoteNumber":48,"Velocity":30,"Duration":1470467,"SoundDuration":1470467,"Delta":53227814},{"NoteNumber":74,"Velocity":61,"Duration":496113,"SoundDuration":496113,"Delta":54698282},{"NoteNumber":65,"Velocity":49,"Duration":1456981,"SoundDuration":1456981,"Delta":54698282},{"NoteNumber":46,"Velocity":45,"Duration":1456981,"SoundDuration":1456981,"Delta":54698282},{"NoteNumber":74,"Velocity":61,"Duration":235294,"SoundDuration":235294,"Delta":55194396},{"NoteNumber":75,"Velocity":56,"Duration":240307,"SoundDuration":240307,"Delta":55429690},{"NoteNumber":74,"Velocity":61,"Duration":236220,"SoundDuration":236220,"Delta":55669998},{"NoteNumber":75,"Velocity":56,"Duration":249045,"SoundDuration":249045,"Delta":55906218},{"NoteNumber":72,"Velocity":61,"Duration":490155,"SoundDuration":490155,"Delta":56155264},{"NoteNumber":68,"Velocity":49,"Duration":1462097,"SoundDuration":1462097,"Delta":56155264},{"NoteNumber":63,"Velocity":49,"Duration":1462097,"SoundDuration":1462097,"Delta":56155264},{"NoteNumber":41,"Velocity":49,"Duration":1462097,"SoundDuration":1462097,"Delta":56155264},{"NoteNumber":72,"Velocity":61,"Duration":237952,"SoundDuration":237952,"Delta":56659274},{"NoteNumber":74,"Velocity":56,"Duration":245077,"SoundDuration":245077,"Delta":56882931},{"NoteNumber":72,"Velocity":61,"Duration":240307,"SoundDuration":240307,"Delta":57128009},{"NoteNumber":74,"Velocity":56,"Duration":249045,"SoundDuration":249045,"Delta":57368316},{"NoteNumber":62,"Velocity":55,"Duration":1510111,"SoundDuration":1510111,"Delta":57617362},{"NoteNumber":71,"Velocity":60,"Duration":428886,"SoundDuration":428886,"Delta":57617362},{"NoteNumber":43,"Velocity":38,"Duration":1510111,"SoundDuration":1510111,"Delta":57617362},{"NoteNumber":72,"Velocity":49,"Duration":61269,"SoundDuration":61269,"Delta":58046248},{"NoteNumber":71,"Velocity":56,"Duration":241235,"SoundDuration":241235,"Delta":58107518},{"NoteNumber":69,"Velocity":48,"Duration":250086,"SoundDuration":250086,"Delta":58348753},{"NoteNumber":67,"Velocity":53,"Duration":528633,"SoundDuration":528633,"Delta":58598839},{"NoteNumber":65,"Velocity":40,"Duration":1512025,"SoundDuration":1512025,"Delta":59127473},{"NoteNumber":74,"Velocity":45,"Duration":506329,"SoundDuration":506329,"Delta":59127473},{"NoteNumber":59,"Velocity":34,"Duration":1512025,"SoundDuration":1512025,"Delta":59127473},{"NoteNumber":43,"Velocity":30,"Duration":1512025,"SoundDuration":1512025,"Delta":59127473},{"NoteNumber":74,"Velocity":45,"Duration":246062,"SoundDuration":246062,"Delta":59633802},{"NoteNumber":75,"Velocity":42,"Duration":256322,"SoundDuration":256322,"Delta":59879865},{"NoteNumber":74,"Velocity":45,"Duration":248057,"SoundDuration":248057,"Delta":60136187},{"NoteNumber":75,"Velocity":42,"Duration":255254,"SoundDuration":255254,"Delta":60384244},{"NoteNumber":63,"Velocity":38,"Duration":1553602,"SoundDuration":1553602,"Delta":60639498},{"NoteNumber":72,"Velocity":42,"Duration":1553602,"SoundDuration":1553602,"Delta":60639498},{"NoteNumber":48,"Velocity":25,"Duration":1553602,"SoundDuration":1553602,"Delta":60639498},{"NoteNumber":55,"Velocity":25,"Duration":1553602,"SoundDuration":1553602,"Delta":60639498},{"NoteNumber":60,"Velocity":28,"Duration":1553602,"SoundDuration":1553602,"Delta":60639498},{"NoteNumber":75,"Velocity":48,"Duration":497925,"SoundDuration":497925,"Delta":62193101},{"NoteNumber":79,"Velocity":52,"Duration":497925,"SoundDuration":497925,"Delta":62193101},{"NoteNumber":48,"Velocity":32,"Duration":248962,"SoundDuration":248962,"Delta":62193101},{"NoteNumber":50,"Velocity":29,"Duration":248962,"SoundDuration":248962,"Delta":62442064},{"NoteNumber":75,"Velocity":49,"Duration":487836,"SoundDuration":487836,"Delta":62691026},{"NoteNumber":72,"Velocity":45,"Duration":487836,"SoundDuration":487836,"Delta":62691026},{"NoteNumber":51,"Velocity":32,"Duration":245901,"SoundDuration":245901,"Delta":62691026},{"NoteNumber":55,"Velocity":28,"Duration":241935,"SoundDuration":241935,"Delta":62936928},{"NoteNumber":75,"Velocity":48,"Duration":958960,"SoundDuration":958960,"Delta":63178863},{"NoteNumber":79,"Velocity":52,"Duration":958960,"SoundDuration":958960,"Delta":63178863},{"NoteNumber":51,"Velocity":30,"Duration":240000,"SoundDuration":240000,"Delta":63178863},{"NoteNumber":50,"Velocity":27,"Duration":242228,"SoundDuration":242228,"Delta":63418863},{"NoteNumber":48,"Velocity":32,"Duration":236462,"SoundDuration":236462,"Delta":63661092},{"NoteNumber":50,"Velocity":27,"Duration":240268,"SoundDuration":240268,"Delta":63897554},{"NoteNumber":74,"Velocity":50,"Duration":475084,"SoundDuration":475084,"Delta":64137823},{"NoteNumber":77,"Velocity":55,"Duration":475084,"SoundDuration":475084,"Delta":64137823},{"NoteNumber":48,"Velocity":29,"Duration":239790,"SoundDuration":239790,"Delta":64137823},{"NoteNumber":50,"Velocity":25,"Duration":235293,"SoundDuration":235293,"Delta":64377614},{"NoteNumber":75,"Velocity":51,"Duration":479626,"SoundDuration":479626,"Delta":64612908},{"NoteNumber":72,"Velocity":47,"Duration":479626,"SoundDuration":479626,"Delta":64612908},{"NoteNumber":51,"Velocity":28,"Duration":237397,"SoundDuration":237397,"Delta":64612908},{"NoteNumber":55,"Velocity":25,"Duration":242228,"SoundDuration":242228,"Delta":64850306},{"NoteNumber":74,"Velocity":49,"Duration":481927,"SoundDuration":481927,"Delta":65092534},{"NoteNumber":77,"Velocity":53,"Duration":481927,"SoundDuration":481927,"Delta":65092534},{"NoteNumber":48,"Velocity":32,"Duration":240964,"SoundDuration":240964,"Delta":65092534},{"NoteNumber":50,"Velocity":29,"Duration":240963,"SoundDuration":240963,"Delta":65333498},{"NoteNumber":74,"Velocity":46,"Duration":237285,"SoundDuration":237285,"Delta":65574462},{"NoteNumber":77,"Velocity":50,"Duration":237285,"SoundDuration":237285,"Delta":65574462},{"NoteNumber":53,"Velocity":31,"Duration":237285,"SoundDuration":237285,"Delta":65574462},{"NoteNumber":72,"Velocity":42,"Duration":237285,"SoundDuration":237285,"Delta":65811748},{"NoteNumber":75,"Velocity":46,"Duration":237285,"SoundDuration":237285,"Delta":65811748},{"NoteNumber":58,"Velocity":27,"Duration":237285,"SoundDuration":237285,"Delta":65811748},{"NoteNumber":70,"Velocity":47,"Duration":957230,"SoundDuration":957230,"Delta":66049033},{"NoteNumber":74,"Velocity":51,"Duration":957230,"SoundDuration":957230,"Delta":66049033},{"NoteNumber":53,"Velocity":29,"Duration":237285,"SoundDuration":237285,"Delta":66049033},{"NoteNumber":50,"Velocity":27,"Duration":241254,"SoundDuration":241254,"Delta":66286319},{"NoteNumber":48,"Velocity":30,"Duration":236462,"SoundDuration":236462,"Delta":66527573},{"NoteNumber":50,"Velocity":26,"Duration":242228,"SoundDuration":242228,"Delta":66764036},{"NoteNumber":84,"Velocity":47,"Duration":80700,"SoundDuration":80700,"Delta":67006264},{"NoteNumber":74,"Velocity":41,"Duration":964469,"SoundDuration":964469,"Delta":67006264},{"NoteNumber":53,"Velocity":32,"Duration":241834,"SoundDuration":241834,"Delta":67006264},{"NoteNumber":82,"Velocity":44,"Duration":80877,"SoundDuration":80877,"Delta":67086964},{"NoteNumber":84,"Velocity":47,"Duration":80257,"SoundDuration":80257,"Delta":67167842},{"NoteNumber":82,"Velocity":44,"Duration":80810,"SoundDuration":80810,"Delta":67248099},{"NoteNumber":58,"Velocity":28,"Duration":242013,"SoundDuration":242013,"Delta":67248099},{"NoteNumber":84,"Velocity":46,"Duration":80939,"SoundDuration":80939,"Delta":67328910},{"NoteNumber":82,"Velocity":46,"Duration":80264,"SoundDuration":80264,"Delta":67409849},{"NoteNumber":84,"Velocity":46,"Duration":80433,"SoundDuration":80433,"Delta":67490113},{"NoteNumber":53,"Velocity":31,"Duration":238857,"SoundDuration":238857,"Delta":67490113},{"NoteNumber":82,"Velocity":42,"Duration":79291,"SoundDuration":79291,"Delta":67570546},{"NoteNumber":84,"Velocity":44,"Duration":79132,"SoundDuration":79132,"Delta":67649838},{"NoteNumber":82,"Velocity":42,"Duration":79071,"SoundDuration":79071,"Delta":67728971},{"NoteNumber":46,"Velocity":27,"Duration":241762,"SoundDuration":241762,"Delta":67728971},{"NoteNumber":80,"Velocity":45,"Duration":80656,"SoundDuration":80656,"Delta":67808043},{"NoteNumber":82,"Velocity":46,"Duration":82035,"SoundDuration":82035,"Delta":67888699},{"NoteNumber":68,"Velocity":50,"Duration":476530,"SoundDuration":476530,"Delta":67970734},{"NoteNumber":72,"Velocity":55,"Duration":476530,"SoundDuration":476530,"Delta":67970734},{"NoteNumber":44,"Velocity":36,"Duration":238265,"SoundDuration":238265,"Delta":67970734},{"NoteNumber":46,"Velocity":30,"Duration":238265,"SoundDuration":238265,"Delta":68208999},{"NoteNumber":72,"Velocity":50,"Duration":480000,"SoundDuration":480000,"Delta":68447265},{"NoteNumber":75,"Velocity":55,"Duration":480000,"SoundDuration":480000,"Delta":68447265},{"NoteNumber":48,"Velocity":33,"Duration":239999,"SoundDuration":239999,"Delta":68447265},{"NoteNumber":51,"Velocity":32,"Duration":240000,"SoundDuration":240000,"Delta":68687265},{"NoteNumber":70,"Velocity":47,"Duration":487804,"SoundDuration":487804,"Delta":68927265},{"NoteNumber":74,"Velocity":51,"Duration":487804,"SoundDuration":487804,"Delta":68927265},{"NoteNumber":53,"Velocity":32,"Duration":243902,"SoundDuration":243902,"Delta":68927265},{"NoteNumber":55,"Velocity":27,"Duration":243902,"SoundDuration":243902,"Delta":69171167},{"NoteNumber":68,"Velocity":49,"Duration":483870,"SoundDuration":483870,"Delta":69415070},{"NoteNumber":72,"Velocity":53,"Duration":483870,"SoundDuration":483870,"Delta":69415070},{"NoteNumber":56,"Velocity":33,"Duration":241935,"SoundDuration":241935,"Delta":69415070},{"NoteNumber":58,"Velocity":30,"Duration":241935,"SoundDuration":241935,"Delta":69657005},{"NoteNumber":70,"Velocity":48,"Duration":490596,"SoundDuration":490596,"Delta":69898941},{"NoteNumber":74,"Velocity":52,"Duration":490596,"SoundDuration":490596,"Delta":69898941},{"NoteNumber":56,"Velocity":33,"Duration":245298,"SoundDuration":245298,"Delta":69898941},{"NoteNumber":58,"Velocity":29,"Duration":245298,"SoundDuration":245298,"Delta":70144239},{"NoteNumber":70,"Velocity":48,"Duration":503398,"SoundDuration":503398,"Delta":70389538},{"NoteNumber":62,"Velocity":40,"Duration":503398,"SoundDuration":503398,"Delta":70389538},{"NoteNumber":44,"Velocity":31,"Duration":251699,"SoundDuration":251699,"Delta":70389538},{"NoteNumber":46,"Velocity":29,"Duration":251699,"SoundDuration":251699,"Delta":70641237},{"NoteNumber":63,"Velocity":43,"Duration":2860641,"SoundDuration":2860641,"Delta":70892936},{"NoteNumber":67,"Velocity":47,"Duration":2860641,"SoundDuration":2860641,"Delta":70892936},{"NoteNumber":48,"Velocity":37,"Duration":236462,"SoundDuration":236462,"Delta":70892936},{"NoteNumber":50,"Velocity":32,"Duration":242228,"SoundDuration":242228,"Delta":71129398},{"NoteNumber":48,"Velocity":36,"Duration":237397,"SoundDuration":237397,"Delta":71371627},{"NoteNumber":50,"Velocity":31,"Duration":237154,"SoundDuration":237154,"Delta":71609025},{"NoteNumber":48,"Velocity":39,"Duration":236462,"SoundDuration":236462,"Delta":71846179},{"NoteNumber":46,"Velocity":34,"Duration":242228,"SoundDuration":242228,"Delta":72082641},{"NoteNumber":44,"Velocity":44,"Duration":238095,"SoundDuration":238095,"Delta":72324870},{"NoteNumber":46,"Velocity":37,"Duration":234375,"SoundDuration":234375,"Delta":72562965},{"NoteNumber":44,"Velocity":42,"Duration":234375,"SoundDuration":234375,"Delta":72797340},{"NoteNumber":46,"Velocity":37,"Duration":241254,"SoundDuration":241254,"Delta":73031715},{"NoteNumber":44,"Velocity":45,"Duration":237397,"SoundDuration":237397,"Delta":73272969},{"NoteNumber":43,"Velocity":42,"Duration":243210,"SoundDuration":243210,"Delta":73510367},{"NoteNumber":56,"Velocity":50,"Duration":493826,"SoundDuration":493826,"Delta":73753578},{"NoteNumber":60,"Velocity":59,"Duration":493826,"SoundDuration":493826,"Delta":73753578},{"NoteNumber":41,"Velocity":50,"Duration":3218674,"SoundDuration":3218674,"Delta":73753578},{"NoteNumber":60,"Velocity":45,"Duration":493827,"SoundDuration":493827,"Delta":74247405},{"NoteNumber":63,"Velocity":54,"Duration":493827,"SoundDuration":493827,"Delta":74247405},{"NoteNumber":58,"Velocity":38,"Duration":519480,"SoundDuration":519480,"Delta":74741232},{"NoteNumber":62,"Velocity":46,"Duration":519480,"SoundDuration":519480,"Delta":74741232},{"NoteNumber":56,"Velocity":41,"Duration":530973,"SoundDuration":530973,"Delta":75260713},{"NoteNumber":60,"Velocity":49,"Duration":530973,"SoundDuration":530973,"Delta":75260713},{"NoteNumber":58,"Velocity":35,"Duration":571428,"SoundDuration":571428,"Delta":75791686},{"NoteNumber":62,"Velocity":42,"Duration":571428,"SoundDuration":571428,"Delta":75791686},{"NoteNumber":58,"Velocity":39,"Duration":609137,"SoundDuration":609137,"Delta":76363115},{"NoteNumber":50,"Velocity":33,"Duration":609137,"SoundDuration":609137,"Delta":76363115},{"NoteNumber":36,"Velocity":28,"Duration":1988949,"SoundDuration":1988949,"Delta":76972252},{"NoteNumber":51,"Velocity":32,"Duration":1988949,"SoundDuration":1988949,"Delta":76972252},{"NoteNumber":55,"Velocity":38,"Duration":1988949,"SoundDuration":1988949,"Delta":76972252},{"NoteNumber":75,"Velocity":39,"Duration":2250000,"SoundDuration":2250000,"Delta":78961201},{"NoteNumber":79,"Velocity":44,"Duration":2250000,"SoundDuration":2250000,"Delta":78961201},{"NoteNumber":67,"Velocity":29,"Duration":2250000,"SoundDuration":2250000,"Delta":78961201},{"NoteNumber":60,"Velocity":25,"Duration":2250000,"SoundDuration":2250000,"Delta":78961201},{"NoteNumber":36,"Velocity":33,"Duration":3010719,"SoundDuration":3010719,"Delta":81211201},{"NoteNumber":55,"Velocity":29,"Duration":271493,"SoundDuration":271493,"Delta":81482694},{"NoteNumber":63,"Velocity":29,"Duration":250584,"SoundDuration":250584,"Delta":81754187},{"NoteNumber":60,"Velocity":24,"Duration":250584,"SoundDuration":250584,"Delta":81754187},{"NoteNumber":55,"Velocity":25,"Duration":249503,"SoundDuration":249503,"Delta":82004772},{"NoteNumber":60,"Velocity":24,"Duration":248182,"SoundDuration":248182,"Delta":82254275},{"NoteNumber":63,"Velocity":29,"Duration":248182,"SoundDuration":248182,"Delta":82254275},{"NoteNumber":55,"Velocity":25,"Duration":247138,"SoundDuration":247138,"Delta":82502458},{"NoteNumber":60,"Velocity":24,"Duration":250000,"SoundDuration":250000,"Delta":82749597},{"NoteNumber":63,"Velocity":29,"Duration":250000,"SoundDuration":250000,"Delta":82749597},{"NoteNumber":55,"Velocity":25,"Duration":248278,"SoundDuration":248278,"Delta":82999597},{"NoteNumber":60,"Velocity":24,"Duration":246240,"SoundDuration":246240,"Delta":83247875},{"NoteNumber":63,"Velocity":29,"Duration":246240,"SoundDuration":246240,"Delta":83247875},{"NoteNumber":55,"Velocity":24,"Duration":244568,"SoundDuration":244568,"Delta":83494115},{"NoteNumber":60,"Velocity":24,"Duration":242591,"SoundDuration":242591,"Delta":83738684},{"NoteNumber":63,"Velocity":29,"Duration":242591,"SoundDuration":242591,"Delta":83738684},{"NoteNumber":55,"Velocity":25,"Duration":240645,"SoundDuration":240645,"Delta":83981275},{"NoteNumber":75,"Velocity":51,"Duration":992149,"SoundDuration":992149,"Delta":84221921},{"NoteNumber":36,"Velocity":33,"Duration":256410,"SoundDuration":256410,"Delta":84221921},{"NoteNumber":55,"Velocity":29,"Duration":247934,"SoundDuration":247934,"Delta":84478331},{"NoteNumber":60,"Velocity":24,"Duration":243902,"SoundDuration":243902,"Delta":84726265},{"NoteNumber":63,"Velocity":29,"Duration":243902,"SoundDuration":243902,"Delta":84726265},{"NoteNumber":55,"Velocity":25,"Duration":243902,"SoundDuration":243902,"Delta":84970167},{"NoteNumber":75,"Velocity":51,"Duration":631445,"SoundDuration":631445,"Delta":85214070},{"NoteNumber":60,"Velocity":24,"Duration":250584,"SoundDuration":250584,"Delta":85214070},{"NoteNumber":63,"Velocity":29,"Duration":250584,"SoundDuration":250584,"Delta":85214070},{"NoteNumber":55,"Velocity":25,"Duration":250584,"SoundDuration":250584,"Delta":85464655},{"NoteNumber":60,"Velocity":24,"Duration":248703,"SoundDuration":248703,"Delta":85715239},{"NoteNumber":63,"Velocity":29,"Duration":248703,"SoundDuration":248703,"Delta":85715239},{"NoteNumber":74,"Velocity":46,"Duration":118427,"SoundDuration":118427,"Delta":85845515},{"NoteNumber":75,"Velocity":46,"Duration":118427,"SoundDuration":118427,"Delta":85963943},{"NoteNumber":55,"Velocity":35,"Duration":478790,"SoundDuration":478790,"Delta":85963943},{"NoteNumber":77,"Velocity":46,"Duration":118427,"SoundDuration":118427,"Delta":86082370},{"NoteNumber":75,"Velocity":51,"Duration":507422,"SoundDuration":507422,"Delta":86200797},{"NoteNumber":63,"Velocity":29,"Duration":241935,"SoundDuration":241935,"Delta":86200797},{"NoteNumber":56,"Velocity":35,"Duration":521896,"SoundDuration":521896,"Delta":86442733},{"NoteNumber":74,"Velocity":48,"Duration":512820,"SoundDuration":512820,"Delta":86708219},{"NoteNumber":65,"Velocity":29,"Duration":256410,"SoundDuration":256410,"Delta":86708219},{"NoteNumber":53,"Velocity":29,"Duration":256410,"SoundDuration":256410,"Delta":86964630},{"NoteNumber":70,"Velocity":48,"Duration":870907,"SoundDuration":870907,"Delta":87221040},{"NoteNumber":36,"Velocity":33,"Duration":260869,"SoundDuration":260869,"Delta":87221040},{"NoteNumber":55,"Velocity":27,"Duration":245901,"SoundDuration":245901,"Delta":87481909},{"NoteNumber":58,"Velocity":24,"Duration":242757,"SoundDuration":242757,"Delta":87727811},{"NoteNumber":62,"Velocity":29,"Duration":242757,"SoundDuration":242757,"Delta":87727811},{"NoteNumber":55,"Velocity":26,"Duration":241263,"SoundDuration":241263,"Delta":87970569},{"NoteNumber":68,"Velocity":31,"Duration":119884,"SoundDuration":119884,"Delta":88091948},{"NoteNumber":70,"Velocity":49,"Duration":1956869,"SoundDuration":1956869,"Delta":88211833},{"NoteNumber":62,"Velocity":29,"Duration":238829,"SoundDuration":238829,"Delta":88211833},{"NoteNumber":58,"Velocity":24,"Duration":238829,"SoundDuration":238829,"Delta":88211833},{"NoteNumber":55,"Velocity":25,"Duration":238360,"SoundDuration":238360,"Delta":88450663},{"NoteNumber":62,"Velocity":29,"Duration":236921,"SoundDuration":236921,"Delta":88689023},{"NoteNumber":58,"Velocity":24,"Duration":236921,"SoundDuration":236921,"Delta":88689023},{"NoteNumber":53,"Velocity":34,"Duration":492757,"SoundDuration":492757,"Delta":88925945},{"NoteNumber":58,"Velocity":24,"Duration":250000,"SoundDuration":250000,"Delta":89168702},{"NoteNumber":62,"Velocity":29,"Duration":250000,"SoundDuration":250000,"Delta":89168702},{"NoteNumber":55,"Velocity":35,"Duration":500000,"SoundDuration":500000,"Delta":89418702},{"NoteNumber":62,"Velocity":29,"Duration":250000,"SoundDuration":250000,"Delta":89668702},{"NoteNumber":58,"Velocity":24,"Duration":250000,"SoundDuration":250000,"Delta":89668702},{"NoteNumber":51,"Velocity":31,"Duration":250000,"SoundDuration":250000,"Delta":89918702},{"NoteNumber":68,"Velocity":51,"Duration":504344,"SoundDuration":504344,"Delta":90168702},{"NoteNumber":36,"Velocity":33,"Duration":247934,"SoundDuration":247934,"Delta":90168702},{"NoteNumber":53,"Velocity":29,"Duration":256410,"SoundDuration":256410,"Delta":90416636},{"NoteNumber":72,"Velocity":51,"Duration":366449,"SoundDuration":366449,"Delta":90673047},{"NoteNumber":56,"Velocity":24,"Duration":244299,"SoundDuration":244299,"Delta":90673047},{"NoteNumber":60,"Velocity":29,"Duration":244299,"SoundDuration":244299,"Delta":90673047},{"NoteNumber":53,"Velocity":25,"Duration":244299,"SoundDuration":244299,"Delta":90917346},{"NoteNumber":70,"Velocity":32,"Duration":122149,"SoundDuration":122149,"Delta":91039496},{"NoteNumber":72,"Velocity":52,"Duration":631445,"SoundDuration":631445,"Delta":91161646},{"NoteNumber":56,"Velocity":24,"Duration":250584,"SoundDuration":250584,"Delta":91161646},{"NoteNumber":60,"Velocity":29,"Duration":250584,"SoundDuration":250584,"Delta":91161646},{"NoteNumber":53,"Velocity":25,"Duration":250584,"SoundDuration":250584,"Delta":91412231},{"NoteNumber":56,"Velocity":24,"Duration":248703,"SoundDuration":248703,"Delta":91662816},{"NoteNumber":60,"Velocity":29,"Duration":248703,"SoundDuration":248703,"Delta":91662816},{"NoteNumber":71,"Velocity":46,"Duration":118427,"SoundDuration":118427,"Delta":91793092},{"NoteNumber":72,"Velocity":46,"Duration":118427,"SoundDuration":118427,"Delta":91911519},{"NoteNumber":51,"Velocity":32,"Duration":469484,"SoundDuration":469484,"Delta":91911519},{"NoteNumber":74,"Velocity":46,"Duration":118427,"SoundDuration":118427,"Delta":92029946},{"NoteNumber":72,"Velocity":51,"Duration":478532,"SoundDuration":478532,"Delta":92148373},{"NoteNumber":56,"Velocity":24,"Duration":232630,"SoundDuration":232630,"Delta":92148373},{"NoteNumber":60,"Velocity":29,"Duration":232630,"SoundDuration":232630,"Delta":92148373},{"NoteNumber":53,"Velocity":30,"Duration":513759,"SoundDuration":513759,"Delta":92381004},{"NoteNumber":71,"Velocity":49,"Duration":535714,"SoundDuration":535714,"Delta":92626905},{"NoteNumber":56,"Velocity":19,"Duration":267857,"SoundDuration":267857,"Delta":92626905},{"NoteNumber":60,"Velocity":26,"Duration":267857,"SoundDuration":267857,"Delta":92626905},{"NoteNumber":50,"Velocity":28,"Duration":267857,"SoundDuration":267857,"Delta":92894763},{"NoteNumber":67,"Velocity":51,"Duration":979889,"SoundDuration":979889,"Delta":93162620},{"NoteNumber":36,"Velocity":33,"Duration":247934,"SoundDuration":247934,"Delta":93162620},{"NoteNumber":51,"Velocity":30,"Duration":247934,"SoundDuration":247934,"Delta":93410554},{"NoteNumber":55,"Velocity":24,"Duration":242757,"SoundDuration":242757,"Delta":93658488},{"NoteNumber":60,"Velocity":29,"Duration":242757,"SoundDuration":242757,"Delta":93658488},{"NoteNumber":51,"Velocity":26,"Duration":241263,"SoundDuration":241263,"Delta":93901246},{"NoteNumber":67,"Velocity":49,"Duration":1964721,"SoundDuration":1964721,"Delta":94142509},{"NoteNumber":60,"Velocity":29,"Duration":238829,"SoundDuration":238829,"Delta":94142509},{"NoteNumber":55,"Velocity":24,"Duration":238829,"SoundDuration":238829,"Delta":94142509},{"NoteNumber":51,"Velocity":25,"Duration":238360,"SoundDuration":238360,"Delta":94381339},{"NoteNumber":60,"Velocity":32,"Duration":236921,"SoundDuration":236921,"Delta":94619699},{"NoteNumber":55,"Velocity":27,"Duration":236921,"SoundDuration":236921,"Delta":94619699},{"NoteNumber":50,"Velocity":41,"Duration":495576,"SoundDuration":495576,"Delta":94856621},{"NoteNumber":55,"Velocity":35,"Duration":252818,"SoundDuration":252818,"Delta":95099379},{"NoteNumber":60,"Velocity":44,"Duration":252818,"SoundDuration":252818,"Delta":95099379},{"NoteNumber":51,"Velocity":52,"Duration":495235,"SoundDuration":495235,"Delta":95352198},{"NoteNumber":60,"Velocity":53,"Duration":247290,"SoundDuration":247290,"Delta":95600143},{"NoteNumber":55,"Velocity":44,"Duration":247290,"SoundDuration":247290,"Delta":95600143},{"NoteNumber":48,"Velocity":51,"Duration":259797,"SoundDuration":259797,"Delta":95847433},{"NoteNumber":67,"Velocity":59,"Duration":2440108,"SoundDuration":2440108,"Delta":96107230},{"NoteNumber":79,"Velocity":72,"Duration":2440108,"SoundDuration":2440108,"Delta":96107230},{"NoteNumber":43,"Velocity":48,"Duration":245821,"SoundDuration":245821,"Delta":96107230},{"NoteNumber":55,"Velocity":43,"Duration":245820,"SoundDuration":245820,"Delta":96353051},{"NoteNumber":65,"Velocity":45,"Duration":244299,"SoundDuration":244299,"Delta":96598872},{"NoteNumber":60,"Velocity":37,"Duration":244299,"SoundDuration":244299,"Delta":96598872},{"NoteNumber":55,"Velocity":37,"Duration":244299,"SoundDuration":244299,"Delta":96843172},{"NoteNumber":65,"Velocity":48,"Duration":242757,"SoundDuration":242757,"Delta":97087472},{"NoteNumber":59,"Velocity":40,"Duration":242757,"SoundDuration":242757,"Delta":97087472},{"NoteNumber":55,"Velocity":38,"Duration":242757,"SoundDuration":242757,"Delta":97330230},{"NoteNumber":65,"Velocity":46,"Duration":241274,"SoundDuration":241274,"Delta":97572987},{"NoteNumber":57,"Velocity":38,"Duration":241274,"SoundDuration":241274,"Delta":97572987},{"NoteNumber":55,"Velocity":35,"Duration":241273,"SoundDuration":241273,"Delta":97814261},{"NoteNumber":65,"Velocity":39,"Duration":245901,"SoundDuration":245901,"Delta":98055535},{"NoteNumber":59,"Velocity":33,"Duration":245901,"SoundDuration":245901,"Delta":98055535},{"NoteNumber":55,"Velocity":30,"Duration":245901,"SoundDuration":245901,"Delta":98301437},{"NoteNumber":69,"Velocity":45,"Duration":127746,"SoundDuration":127746,"Delta":98547339},{"NoteNumber":65,"Velocity":36,"Duration":255493,"SoundDuration":255493,"Delta":98547339},{"NoteNumber":71,"Velocity":45,"Duration":127746,"SoundDuration":127746,"Delta":98675085},{"NoteNumber":72,"Velocity":45,"Duration":127746,"SoundDuration":127746,"Delta":98802832},{"NoteNumber":55,"Velocity":33,"Duration":255493,"SoundDuration":255493,"Delta":98802832},{"NoteNumber":74,"Velocity":45,"Duration":127746,"SoundDuration":127746,"Delta":98930578},{"NoteNumber":72,"Velocity":48,"Duration":2921831,"SoundDuration":2921831,"Delta":99058325},{"NoteNumber":36,"Velocity":33,"Duration":2921831,"SoundDuration":2921831,"Delta":99058325},{"NoteNumber":55,"Velocity":29,"Duration":249999,"SoundDuration":249999,"Delta":99314735},{"NoteNumber":63,"Velocity":29,"Duration":249827,"SoundDuration":249827,"Delta":99564735},{"NoteNumber":60,"Velocity":24,"Duration":249827,"SoundDuration":249827,"Delta":99564735},{"NoteNumber":55,"Velocity":25,"Duration":247764,"SoundDuration":247764,"Delta":99814563},{"NoteNumber":60,"Velocity":24,"Duration":245735,"SoundDuration":245735,"Delta":100062328},{"NoteNumber":63,"Velocity":29,"Duration":245735,"SoundDuration":245735,"Delta":100062328},{"NoteNumber":55,"Velocity":25,"Duration":243738,"SoundDuration":243738,"Delta":100308063},{"NoteNumber":60,"Velocity":26,"Duration":238885,"SoundDuration":238885,"Delta":100551801},{"NoteNumber":63,"Velocity":31,"Duration":238885,"SoundDuration":238885,"Delta":100551801},{"NoteNumber":55,"Velocity":28,"Duration":237808,"SoundDuration":237808,"Delta":100790687},{"NoteNumber":60,"Velocity":29,"Duration":238285,"SoundDuration":238285,"Delta":101028495},{"NoteNumber":63,"Velocity":36,"Duration":238285,"SoundDuration":238285,"Delta":101028495},{"NoteNumber":55,"Velocity":31,"Duration":236408,"SoundDuration":236408,"Delta":101266781},{"NoteNumber":60,"Velocity":33,"Duration":239215,"SoundDuration":239215,"Delta":101503189},{"NoteNumber":63,"Velocity":41,"Duration":239215,"SoundDuration":239215,"Delta":101503189},{"NoteNumber":55,"Velocity":37,"Duration":237751,"SoundDuration":237751,"Delta":101742405},{"NoteNumber":79,"Velocity":78,"Duration":982961,"SoundDuration":982961,"Delta":101980156},{"NoteNumber":36,"Velocity":53,"Duration":260869,"SoundDuration":260869,"Delta":101980156},{"NoteNumber":55,"Velocity":41,"Duration":245901,"SoundDuration":245901,"Delta":102241026},{"NoteNumber":60,"Velocity":34,"Duration":238095,"SoundDuration":238095,"Delta":102486928},{"NoteNumber":63,"Velocity":41,"Duration":238095,"SoundDuration":238095,"Delta":102486928},{"NoteNumber":55,"Velocity":36,"Duration":238095,"SoundDuration":238095,"Delta":102725023},{"NoteNumber":79,"Velocity":79,"Duration":631445,"SoundDuration":631445,"Delta":102963118},{"NoteNumber":60,"Velocity":34,"Duration":250584,"SoundDuration":250584,"Delta":102963118},{"NoteNumber":63,"Velocity":41,"Duration":250584,"SoundDuration":250584,"Delta":102963118},{"NoteNumber":55,"Velocity":36,"Duration":250584,"SoundDuration":250584,"Delta":103213703},{"NoteNumber":60,"Velocity":34,"Duration":248703,"SoundDuration":248703,"Delta":103464288},{"NoteNumber":63,"Velocity":41,"Duration":248703,"SoundDuration":248703,"Delta":103464288},{"NoteNumber":78,"Velocity":67,"Duration":118427,"SoundDuration":118427,"Delta":103594564},{"NoteNumber":79,"Velocity":67,"Duration":118427,"SoundDuration":118427,"Delta":103712991},{"NoteNumber":55,"Velocity":52,"Duration":480757,"SoundDuration":480757,"Delta":103712991},{"NoteNumber":81,"Velocity":62,"Duration":118427,"SoundDuration":118427,"Delta":103831418},{"NoteNumber":79,"Velocity":75,"Duration":500312,"SoundDuration":500312,"Delta":103949845},{"NoteNumber":60,"Velocity":37,"Duration":243902,"SoundDuration":243902,"Delta":103949845},{"NoteNumber":63,"Velocity":41,"Duration":243902,"SoundDuration":243902,"Delta":103949845},{"NoteNumber":58,"Velocity":52,"Duration":515031,"SoundDuration":515031,"Delta":104193748},{"NoteNumber":78,"Velocity":70,"Duration":517241,"SoundDuration":517241,"Delta":104450158},{"NoteNumber":60,"Velocity":37,"Duration":258620,"SoundDuration":258620,"Delta":104450158},{"NoteNumber":63,"Velocity":41,"Duration":258620,"SoundDuration":258620,"Delta":104450158},{"NoteNumber":57,"Velocity":41,"Duration":258620,"SoundDuration":258620,"Delta":104708779},{"NoteNumber":74,"Velocity":70,"Duration":875006,"SoundDuration":875006,"Delta":104967400},{"NoteNumber":36,"Velocity":49,"Duration":260869,"SoundDuration":260869,"Delta":104967400},{"NoteNumber":54,"Velocity":38,"Duration":250000,"SoundDuration":250000,"Delta":105228269},{"NoteNumber":57,"Velocity":34,"Duration":242757,"SoundDuration":242757,"Delta":105478269},{"NoteNumber":62,"Velocity":41,"Duration":242757,"SoundDuration":242757,"Delta":105478269},{"NoteNumber":54,"Velocity":37,"Duration":241263,"SoundDuration":241263,"Delta":105721027},{"NoteNumber":72,"Velocity":46,"Duration":119884,"SoundDuration":119884,"Delta":105842406},{"NoteNumber":74,"Velocity":64,"Duration":1955671,"SoundDuration":1955671,"Delta":105962291},{"NoteNumber":62,"Velocity":41,"Duration":238829,"SoundDuration":238829,"Delta":105962291},{"NoteNumber":57,"Velocity":34,"Duration":238829,"SoundDuration":238829,"Delta":105962291},{"NoteNumber":54,"Velocity":36,"Duration":238360,"SoundDuration":238360,"Delta":106201121},{"NoteNumber":62,"Velocity":41,"Duration":236921,"SoundDuration":236921,"Delta":106439481},{"NoteNumber":57,"Velocity":34,"Duration":236921,"SoundDuration":236921,"Delta":106439481},{"NoteNumber":54,"Velocity":50,"Duration":485515,"SoundDuration":485515,"Delta":106676402},{"NoteNumber":57,"Velocity":34,"Duration":242757,"SoundDuration":242757,"Delta":106919160},{"NoteNumber":62,"Velocity":41,"Duration":242757,"SoundDuration":242757,"Delta":106919160},{"NoteNumber":52,"Velocity":52,"Duration":494858,"SoundDuration":494858,"Delta":107161918},{"NoteNumber":62,"Velocity":41,"Duration":252100,"SoundDuration":252100,"Delta":107404676},{"NoteNumber":57,"Velocity":34,"Duration":252100,"SoundDuration":252100,"Delta":107404676},{"NoteNumber":54,"Velocity":46,"Duration":261185,"SoundDuration":261185,"Delta":107656776},{"NoteNumber":75,"Velocity":72,"Duration":972100,"SoundDuration":972100,"Delta":107917962},{"NoteNumber":36,"Velocity":51,"Duration":252100,"SoundDuration":252100,"Delta":107917962},{"NoteNumber":55,"Velocity":40,"Duration":239999,"SoundDuration":239999,"Delta":108170063},{"NoteNumber":60,"Velocity":33,"Duration":240000,"SoundDuration":240000,"Delta":108410063},{"NoteNumber":63,"Velocity":40,"Duration":240000,"SoundDuration":240000,"Delta":108410063},{"NoteNumber":55,"Velocity":35,"Duration":239999,"SoundDuration":239999,"Delta":108650063},{"NoteNumber":75,"Velocity":70,"Duration":631445,"SoundDuration":631445,"Delta":108890063},{"NoteNumber":60,"Velocity":33,"Duration":250584,"SoundDuration":250584,"Delta":108890063},{"NoteNumber":63,"Velocity":40,"Duration":250584,"SoundDuration":250584,"Delta":108890063},{"NoteNumber":55,"Velocity":35,"Duration":250584,"SoundDuration":250584,"Delta":109140647},{"NoteNumber":60,"Velocity":33,"Duration":248703,"SoundDuration":248703,"Delta":109391232},{"NoteNumber":63,"Velocity":40,"Duration":248703,"SoundDuration":248703,"Delta":109391232},{"NoteNumber":75,"Velocity":60,"Duration":118427,"SoundDuration":118427,"Delta":109521508},{"NoteNumber":78,"Velocity":60,"Duration":118427,"SoundDuration":118427,"Delta":109639936},{"NoteNumber":58,"Velocity":47,"Duration":475683,"SoundDuration":475683,"Delta":109639936},{"NoteNumber":75,"Velocity":56,"Duration":124626,"SoundDuration":124626,"Delta":109758363},{"NoteNumber":78,"Velocity":64,"Duration":489040,"SoundDuration":489040,"Delta":109882989},{"NoteNumber":60,"Velocity":36,"Duration":232630,"SoundDuration":232630,"Delta":109882989},{"NoteNumber":63,"Velocity":40,"Duration":232630,"SoundDuration":232630,"Delta":109882989},{"NoteNumber":57,"Velocity":42,"Duration":512820,"SoundDuration":512820,"Delta":110115619},{"NoteNumber":74,"Velocity":58,"Duration":512820,"SoundDuration":512820,"Delta":110372029},{"NoteNumber":60,"Velocity":36,"Duration":256410,"SoundDuration":256410,"Delta":110372029},{"NoteNumber":66,"Velocity":40,"Duration":256410,"SoundDuration":256410,"Delta":110372029},{"NoteNumber":54,"Velocity":39,"Duration":256410,"SoundDuration":256410,"Delta":110628440},{"NoteNumber":77,"Velocity":61,"Duration":983607,"SoundDuration":983607,"Delta":110884850},{"NoteNumber":36,"Velocity":42,"Duration":245901,"SoundDuration":245901,"Delta":110884850},{"NoteNumber":56,"Velocity":37,"Duration":245901,"SoundDuration":245901,"Delta":111130752},{"NoteNumber":60,"Velocity":33,"Duration":245901,"SoundDuration":245901,"Delta":111376653},{"NoteNumber":65,"Velocity":40,"Duration":245901,"SoundDuration":245901,"Delta":111376653},{"NoteNumber":56,"Velocity":35,"Duration":245901,"SoundDuration":245901,"Delta":111622555},{"NoteNumber":76,"Velocity":58,"Duration":501169,"SoundDuration":501169,"Delta":111868457},{"NoteNumber":60,"Velocity":33,"Duration":250584,"SoundDuration":250584,"Delta":111868457},{"NoteNumber":67,"Velocity":40,"Duration":250584,"SoundDuration":250584,"Delta":111868457},{"NoteNumber":55,"Velocity":35,"Duration":250584,"SoundDuration":250584,"Delta":112119042},{"NoteNumber":72,"Velocity":42,"Duration":119047,"SoundDuration":119047,"Delta":112369626},{"NoteNumber":60,"Velocity":25,"Duration":264305,"SoundDuration":264305,"Delta":112369626},{"NoteNumber":67,"Velocity":31,"Duration":264305,"SoundDuration":264305,"Delta":112369626},{"NoteNumber":72,"Velocity":46,"Duration":123966,"SoundDuration":123966,"Delta":112509965},{"NoteNumber":75,"Velocity":46,"Duration":123967,"SoundDuration":123967,"Delta":112633932},{"NoteNumber":55,"Velocity":35,"Duration":490528,"SoundDuration":490528,"Delta":112633932},{"NoteNumber":74,"Velocity":42,"Duration":124626,"SoundDuration":124626,"Delta":112757899},{"NoteNumber":75,"Velocity":48,"Duration":507422,"SoundDuration":507422,"Delta":112882525},{"NoteNumber":57,"Velocity":26,"Duration":241935,"SoundDuration":241935,"Delta":112882525},{"NoteNumber":66,"Velocity":30,"Duration":241935,"SoundDuration":241935,"Delta":112882525},{"NoteNumber":55,"Velocity":28,"Duration":517587,"SoundDuration":517587,"Delta":113124461},{"NoteNumber":74,"Velocity":43,"Duration":504201,"SoundDuration":504201,"Delta":113389947},{"NoteNumber":60,"Velocity":25,"Duration":252100,"SoundDuration":252100,"Delta":113389947},{"NoteNumber":66,"Velocity":29,"Duration":252100,"SoundDuration":252100,"Delta":113389947},{"NoteNumber":55,"Velocity":25,"Duration":252100,"SoundDuration":252100,"Delta":113642048},{"NoteNumber":71,"Velocity":48,"Duration":1034124,"SoundDuration":1034124,"Delta":113894149},{"NoteNumber":43,"Velocity":34,"Duration":265486,"SoundDuration":265486,"Delta":113894149},{"NoteNumber":55,"Velocity":28,"Duration":265486,"SoundDuration":265486,"Delta":114159636},{"NoteNumber":65,"Velocity":30,"Duration":252100,"SoundDuration":252100,"Delta":114425122},{"NoteNumber":62,"Velocity":25,"Duration":252100,"SoundDuration":252100,"Delta":114425122},{"NoteNumber":55,"Velocity":25,"Duration":251050,"SoundDuration":251050,"Delta":114677223},{"NoteNumber":67,"Velocity":45,"Duration":1507383,"SoundDuration":1507383,"Delta":114928273},{"NoteNumber":65,"Velocity":31,"Duration":250000,"SoundDuration":250000,"Delta":114928273},{"NoteNumber":60,"Velocity":26,"Duration":250000,"SoundDuration":250000,"Delta":114928273},{"NoteNumber":55,"Velocity":27,"Duration":247934,"SoundDuration":247934,"Delta":115178273},{"NoteNumber":65,"Velocity":28,"Duration":246917,"SoundDuration":246917,"Delta":115426207},{"NoteNumber":59,"Velocity":18,"Duration":246917,"SoundDuration":246917,"Delta":115426207},{"NoteNumber":55,"Velocity":24,"Duration":245901,"SoundDuration":245901,"Delta":115673125},{"NoteNumber":65,"Velocity":28,"Duration":243902,"SoundDuration":243902,"Delta":115919027},{"NoteNumber":59,"Velocity":19,"Duration":243902,"SoundDuration":243902,"Delta":115919027},{"NoteNumber":55,"Velocity":25,"Duration":272727,"SoundDuration":272727,"Delta":116162930},{"NoteNumber":69,"Velocity":37,"Duration":127746,"SoundDuration":127746,"Delta":116435657},{"NoteNumber":65,"Velocity":27,"Duration":255493,"SoundDuration":255493,"Delta":116435657},{"NoteNumber":71,"Velocity":36,"Duration":127746,"SoundDuration":127746,"Delta":116563403},{"NoteNumber":72,"Velocity":36,"Duration":127746,"SoundDuration":127746,"Delta":116691150},{"NoteNumber":55,"Velocity":25,"Duration":255493,"SoundDuration":255493,"Delta":116691150},{"NoteNumber":74,"Velocity":37,"Duration":127746,"SoundDuration":127746,"Delta":116818896},{"NoteNumber":72,"Velocity":44,"Duration":2965584,"SoundDuration":2965584,"Delta":116946643},{"NoteNumber":36,"Velocity":29,"Duration":2965584,"SoundDuration":2965584,"Delta":116946643},{"NoteNumber":55,"Velocity":26,"Duration":252100,"SoundDuration":252100,"Delta":117198744},{"NoteNumber":63,"Velocity":26,"Duration":251050,"SoundDuration":251050,"Delta":117450844},{"NoteNumber":60,"Velocity":21,"Duration":251050,"SoundDuration":251050,"Delta":117450844},{"NoteNumber":55,"Velocity":22,"Duration":246917,"SoundDuration":246917,"Delta":117701895},{"NoteNumber":60,"Velocity":21,"Duration":243902,"SoundDuration":243902,"Delta":117948813},{"NoteNumber":63,"Velocity":26,"Duration":243902,"SoundDuration":243902,"Delta":117948813},{"NoteNumber":55,"Velocity":22,"Duration":243902,"SoundDuration":243902,"Delta":118192715},{"NoteNumber":60,"Velocity":22,"Duration":243902,"SoundDuration":243902,"Delta":118436618},{"NoteNumber":63,"Velocity":27,"Duration":243902,"SoundDuration":243902,"Delta":118436618},{"NoteNumber":55,"Velocity":23,"Duration":243902,"SoundDuration":243902,"Delta":118680520},{"NoteNumber":60,"Velocity":22,"Duration":243902,"SoundDuration":243902,"Delta":118924423},{"NoteNumber":63,"Velocity":28,"Duration":243902,"SoundDuration":243902,"Delta":118924423},{"NoteNumber":55,"Velocity":23,"Duration":243902,"SoundDuration":243902,"Delta":119168325},{"NoteNumber":60,"Velocity":23,"Duration":250000,"SoundDuration":250000,"Delta":119412228},{"NoteNumber":63,"Velocity":28,"Duration":250000,"SoundDuration":250000,"Delta":119412228},{"NoteNumber":55,"Velocity":24,"Duration":250000,"SoundDuration":250000,"Delta":119662228},{"NoteNumber":75,"Velocity":46,"Duration":962219,"SoundDuration":962219,"Delta":119912228},{"NoteNumber":36,"Velocity":29,"Duration":247934,"SoundDuration":247934,"Delta":119912228},{"NoteNumber":55,"Velocity":26,"Duration":238095,"SoundDuration":238095,"Delta":120160162},{"NoteNumber":60,"Velocity":21,"Duration":238095,"SoundDuration":238095,"Delta":120398257},{"NoteNumber":63,"Velocity":26,"Duration":238095,"SoundDuration":238095,"Delta":120398257},{"NoteNumber":55,"Velocity":22,"Duration":238095,"SoundDuration":238095,"Delta":120636352},{"NoteNumber":75,"Velocity":46,"Duration":631445,"SoundDuration":631445,"Delta":120874447},{"NoteNumber":60,"Velocity":21,"Duration":250584,"SoundDuration":250584,"Delta":120874447},{"NoteNumber":63,"Velocity":26,"Duration":250584,"SoundDuration":250584,"Delta":120874447},{"NoteNumber":55,"Velocity":22,"Duration":250584,"SoundDuration":250584,"Delta":121125032},{"NoteNumber":60,"Velocity":21,"Duration":251052,"SoundDuration":251052,"Delta":121375617},{"NoteNumber":63,"Velocity":26,"Duration":251052,"SoundDuration":251052,"Delta":121375617},{"NoteNumber":74,"Velocity":40,"Duration":120776,"SoundDuration":120776,"Delta":121505893},{"NoteNumber":75,"Velocity":40,"Duration":121951,"SoundDuration":121951,"Delta":121626670},{"NoteNumber":55,"Velocity":31,"Duration":476532,"SoundDuration":476532,"Delta":121626670},{"NoteNumber":77,"Velocity":40,"Duration":121951,"SoundDuration":121951,"Delta":121748621},{"NoteNumber":75,"Velocity":46,"Duration":479910,"SoundDuration":479910,"Delta":121870572},{"NoteNumber":63,"Velocity":26,"Duration":232630,"SoundDuration":232630,"Delta":121870572},{"NoteNumber":56,"Velocity":34,"Duration":515137,"SoundDuration":515137,"Delta":122103202},{"NoteNumber":74,"Velocity":43,"Duration":535714,"SoundDuration":535714,"Delta":122350482},{"NoteNumber":65,"Velocity":26,"Duration":267857,"SoundDuration":267857,"Delta":122350482},{"NoteNumber":53,"Velocity":24,"Duration":267857,"SoundDuration":267857,"Delta":122618340},{"NoteNumber":70,"Velocity":43,"Duration":858936,"SoundDuration":858936,"Delta":122886197},{"NoteNumber":36,"Velocity":29,"Duration":253292,"SoundDuration":253292,"Delta":122886197},{"NoteNumber":55,"Velocity":24,"Duration":241506,"SoundDuration":241506,"Delta":123139490},{"NoteNumber":58,"Velocity":21,"Duration":242757,"SoundDuration":242757,"Delta":123380997},{"NoteNumber":62,"Velocity":26,"Duration":242757,"SoundDuration":242757,"Delta":123380997},{"NoteNumber":55,"Velocity":23,"Duration":241263,"SoundDuration":241263,"Delta":123623754},{"NoteNumber":68,"Velocity":28,"Duration":119884,"SoundDuration":119884,"Delta":123745133},{"NoteNumber":70,"Velocity":44,"Duration":1941553,"SoundDuration":1941553,"Delta":123865018},{"NoteNumber":62,"Velocity":26,"Duration":238829,"SoundDuration":238829,"Delta":123865018},{"NoteNumber":58,"Velocity":21,"Duration":238829,"SoundDuration":238829,"Delta":123865018},{"NoteNumber":55,"Velocity":22,"Duration":238360,"SoundDuration":238360,"Delta":124103848},{"NoteNumber":62,"Velocity":26,"Duration":236921,"SoundDuration":236921,"Delta":124342208},{"NoteNumber":58,"Velocity":21,"Duration":236921,"SoundDuration":236921,"Delta":124342208},{"NoteNumber":53,"Velocity":30,"Duration":485515,"SoundDuration":485515,"Delta":124579130},{"NoteNumber":58,"Velocity":21,"Duration":242757,"SoundDuration":242757,"Delta":124821888},{"NoteNumber":62,"Velocity":26,"Duration":242757,"SoundDuration":242757,"Delta":124821888},{"NoteNumber":55,"Velocity":31,"Duration":485515,"SoundDuration":485515,"Delta":125064645},{"NoteNumber":62,"Velocity":26,"Duration":242757,"SoundDuration":242757,"Delta":125307403},{"NoteNumber":58,"Velocity":21,"Duration":242757,"SoundDuration":242757,"Delta":125307403},{"NoteNumber":51,"Velocity":28,"Duration":256410,"SoundDuration":256410,"Delta":125550161},{"NoteNumber":68,"Velocity":46,"Duration":481733,"SoundDuration":481733,"Delta":125806571},{"NoteNumber":36,"Velocity":29,"Duration":243902,"SoundDuration":243902,"Delta":125806571},{"NoteNumber":53,"Velocity":26,"Duration":237830,"SoundDuration":237830,"Delta":126050474},{"NoteNumber":72,"Velocity":46,"Duration":366449,"SoundDuration":366449,"Delta":126288305},{"NoteNumber":56,"Velocity":21,"Duration":244299,"SoundDuration":244299,"Delta":126288305},{"NoteNumber":60,"Velocity":26,"Duration":244299,"SoundDuration":244299,"Delta":126288305},{"NoteNumber":53,"Velocity":22,"Duration":244299,"SoundDuration":244299,"Delta":126532604},{"NoteNumber":70,"Velocity":42,"Duration":122149,"SoundDuration":122149,"Delta":126654754},{"NoteNumber":72,"Velocity":47,"Duration":631445,"SoundDuration":631445,"Delta":126776904},{"NoteNumber":56,"Velocity":21,"Duration":250584,"SoundDuration":250584,"Delta":126776904},{"NoteNumber":60,"Velocity":26,"Duration":250584,"SoundDuration":250584,"Delta":126776904},{"NoteNumber":53,"Velocity":22,"Duration":250584,"SoundDuration":250584,"Delta":127027489},{"NoteNumber":56,"Velocity":21,"Duration":248703,"SoundDuration":248703,"Delta":127278074},{"NoteNumber":60,"Velocity":26,"Duration":248703,"SoundDuration":248703,"Delta":127278074},{"NoteNumber":71,"Velocity":40,"Duration":118427,"SoundDuration":118427,"Delta":127408350},{"NoteNumber":72,"Velocity":40,"Duration":118427,"SoundDuration":118427,"Delta":127526777},{"NoteNumber":51,"Velocity":28,"Duration":469484,"SoundDuration":469484,"Delta":127526777},{"NoteNumber":74,"Velocity":40,"Duration":118427,"SoundDuration":118427,"Delta":127645204},{"NoteNumber":72,"Velocity":46,"Duration":472399,"SoundDuration":472399,"Delta":127763631},{"NoteNumber":56,"Velocity":21,"Duration":232630,"SoundDuration":232630,"Delta":127763631},{"NoteNumber":60,"Velocity":26,"Duration":232630,"SoundDuration":232630,"Delta":127763631},{"NoteNumber":53,"Velocity":28,"Duration":505256,"SoundDuration":505256,"Delta":127996262},{"NoteNumber":71,"Velocity":44,"Duration":530973,"SoundDuration":530973,"Delta":128236031},{"NoteNumber":56,"Velocity":21,"Duration":265486,"SoundDuration":265486,"Delta":128236031},{"NoteNumber":60,"Velocity":26,"Duration":265486,"SoundDuration":265486,"Delta":128236031},{"NoteNumber":50,"Velocity":25,"Duration":265486,"SoundDuration":265486,"Delta":128501518},{"NoteNumber":67,"Velocity":46,"Duration":984021,"SoundDuration":984021,"Delta":128767005},{"NoteNumber":36,"Velocity":29,"Duration":250000,"SoundDuration":250000,"Delta":128767005},{"NoteNumber":51,"Velocity":27,"Duration":250000,"SoundDuration":250000,"Delta":129017005},{"NoteNumber":55,"Velocity":21,"Duration":242757,"SoundDuration":242757,"Delta":129267005},{"NoteNumber":60,"Velocity":26,"Duration":242757,"SoundDuration":242757,"Delta":129267005},{"NoteNumber":51,"Velocity":23,"Duration":241263,"SoundDuration":241263,"Delta":129509763},{"NoteNumber":67,"Velocity":44,"Duration":1968608,"SoundDuration":1968608,"Delta":129751026},{"NoteNumber":60,"Velocity":26,"Duration":238829,"SoundDuration":238829,"Delta":129751026},{"NoteNumber":55,"Velocity":21,"Duration":238829,"SoundDuration":238829,"Delta":129751026},{"NoteNumber":51,"Velocity":22,"Duration":238360,"SoundDuration":238360,"Delta":129989856},{"NoteNumber":60,"Velocity":28,"Duration":236921,"SoundDuration":236921,"Delta":130228216},{"NoteNumber":55,"Velocity":24,"Duration":236921,"SoundDuration":236921,"Delta":130228216},{"NoteNumber":50,"Velocity":31,"Duration":493463,"SoundDuration":493463,"Delta":130465138},{"NoteNumber":55,"Velocity":29,"Duration":250706,"SoundDuration":250706,"Delta":130707896},{"NoteNumber":60,"Velocity":34,"Duration":250706,"SoundDuration":250706,"Delta":130707896},{"NoteNumber":51,"Velocity":39,"Duration":494643,"SoundDuration":494643,"Delta":130958602},{"NoteNumber":60,"Velocity":38,"Duration":249730,"SoundDuration":249730,"Delta":131203515},{"NoteNumber":55,"Velocity":32,"Duration":249730,"SoundDuration":249730,"Delta":131203515},{"NoteNumber":48,"Velocity":36,"Duration":266388,"SoundDuration":266388,"Delta":131453246},{"NoteNumber":67,"Velocity":58,"Duration":2494284,"SoundDuration":2494284,"Delta":131719635},{"NoteNumber":79,"Velocity":71,"Duration":2494284,"SoundDuration":2494284,"Delta":131719635},{"NoteNumber":43,"Velocity":47,"Duration":254237,"SoundDuration":254237,"Delta":131719635},{"NoteNumber":55,"Velocity":37,"Duration":254237,"SoundDuration":254237,"Delta":131973872},{"NoteNumber":65,"Velocity":42,"Duration":244299,"SoundDuration":244299,"Delta":132228110},{"NoteNumber":60,"Velocity":36,"Duration":244299,"SoundDuration":244299,"Delta":132228110},{"NoteNumber":55,"Velocity":36,"Duration":244299,"SoundDuration":244299,"Delta":132472409},{"NoteNumber":65,"Velocity":47,"Duration":242757,"SoundDuration":242757,"Delta":132716709},{"NoteNumber":59,"Velocity":39,"Duration":242757,"SoundDuration":242757,"Delta":132716709},{"NoteNumber":55,"Velocity":37,"Duration":242757,"SoundDuration":242757,"Delta":132959467},{"NoteNumber":65,"Velocity":44,"Duration":240222,"SoundDuration":240222,"Delta":133202225},{"NoteNumber":57,"Velocity":37,"Duration":240222,"SoundDuration":240222,"Delta":133202225},{"NoteNumber":55,"Velocity":33,"Duration":247962,"SoundDuration":247962,"Delta":133442447},{"NoteNumber":65,"Velocity":36,"Duration":256809,"SoundDuration":256809,"Delta":133690409},{"NoteNumber":59,"Velocity":30,"Duration":256809,"SoundDuration":256809,"Delta":133690409},{"NoteNumber":55,"Velocity":27,"Duration":266700,"SoundDuration":266700,"Delta":133947219},{"NoteNumber":69,"Velocity":43,"Duration":127746,"SoundDuration":127746,"Delta":134213919},{"NoteNumber":65,"Velocity":32,"Duration":255493,"SoundDuration":255493,"Delta":134213919},{"NoteNumber":71,"Velocity":37,"Duration":127746,"SoundDuration":127746,"Delta":134341666},{"NoteNumber":72,"Velocity":43,"Duration":127746,"SoundDuration":127746,"Delta":134469412},{"NoteNumber":55,"Velocity":29,"Duration":255493,"SoundDuration":255493,"Delta":134469412},{"NoteNumber":74,"Velocity":37,"Duration":127746,"SoundDuration":127746,"Delta":134597159},{"NoteNumber":72,"Velocity":46,"Duration":2997526,"SoundDuration":2997526,"Delta":134724905},{"NoteNumber":36,"Velocity":29,"Duration":2997526,"SoundDuration":2997526,"Delta":134724905},{"NoteNumber":55,"Velocity":26,"Duration":244299,"SoundDuration":244299,"Delta":134969205},{"NoteNumber":63,"Velocity":26,"Duration":240000,"SoundDuration":240000,"Delta":135213505},{"NoteNumber":60,"Velocity":21,"Duration":240000,"SoundDuration":240000,"Delta":135213505},{"NoteNumber":55,"Velocity":22,"Duration":242591,"SoundDuration":242591,"Delta":135453505},{"NoteNumber":60,"Velocity":21,"Duration":244568,"SoundDuration":244568,"Delta":135696096},{"NoteNumber":63,"Velocity":26,"Duration":244568,"SoundDuration":244568,"Delta":135696096},{"NoteNumber":55,"Velocity":22,"Duration":247256,"SoundDuration":247256,"Delta":135940665},{"NoteNumber":60,"Velocity":22,"Duration":249311,"SoundDuration":249311,"Delta":136187921},{"NoteNumber":63,"Velocity":27,"Duration":249311,"SoundDuration":249311,"Delta":136187921},{"NoteNumber":55,"Velocity":23,"Duration":252100,"SoundDuration":252100,"Delta":136437233},{"NoteNumber":60,"Velocity":23,"Duration":254961,"SoundDuration":254961,"Delta":136689333},{"NoteNumber":63,"Velocity":27,"Duration":254961,"SoundDuration":254961,"Delta":136689333},{"NoteNumber":55,"Velocity":23,"Duration":257147,"SoundDuration":257147,"Delta":136944295},{"NoteNumber":60,"Velocity":24,"Duration":260119,"SoundDuration":260119,"Delta":137201442},{"NoteNumber":63,"Velocity":28,"Duration":260119,"SoundDuration":260119,"Delta":137201442},{"NoteNumber":55,"Velocity":25,"Duration":260869,"SoundDuration":260869,"Delta":137461562},{"NoteNumber":60,"Velocity":37,"Duration":247933,"SoundDuration":247933,"Delta":137722432},{"NoteNumber":62,"Velocity":30,"Duration":241935,"SoundDuration":241935,"Delta":137970366},{"NoteNumber":63,"Velocity":37,"Duration":239044,"SoundDuration":239044,"Delta":138212301},{"NoteNumber":67,"Velocity":29,"Duration":237154,"SoundDuration":237154,"Delta":138451345},{"NoteNumber":63,"Velocity":33,"Duration":241935,"SoundDuration":241935,"Delta":138688499},{"NoteNumber":62,"Velocity":30,"Duration":241935,"SoundDuration":241935,"Delta":138930435},{"NoteNumber":60,"Velocity":37,"Duration":245901,"SoundDuration":245901,"Delta":139172370},{"NoteNumber":62,"Velocity":31,"Duration":240000,"SoundDuration":240000,"Delta":139418272},{"NoteNumber":63,"Velocity":37,"Duration":238094,"SoundDuration":238094,"Delta":139658272},{"NoteNumber":67,"Velocity":31,"Duration":236220,"SoundDuration":236220,"Delta":139896367},{"NoteNumber":63,"Velocity":35,"Duration":240000,"SoundDuration":240000,"Delta":140132587},{"NoteNumber":62,"Velocity":30,"Duration":245901,"SoundDuration":245901,"Delta":140372587},{"NoteNumber":87,"Velocity":52,"Duration":474308,"SoundDuration":474308,"Delta":140618489},{"NoteNumber":91,"Velocity":57,"Duration":474308,"SoundDuration":474308,"Delta":140618489},{"NoteNumber":60,"Velocity":35,"Duration":237154,"SoundDuration":237154,"Delta":140618489},{"NoteNumber":62,"Velocity":31,"Duration":237154,"SoundDuration":237154,"Delta":140855643},{"NoteNumber":87,"Velocity":53,"Duration":476460,"SoundDuration":476460,"Delta":141092797},{"NoteNumber":84,"Velocity":49,"Duration":476460,"SoundDuration":476460,"Delta":141092797},{"NoteNumber":63,"Velocity":35,"Duration":243902,"SoundDuration":243902,"Delta":141092797},{"NoteNumber":67,"Velocity":30,"Duration":232558,"SoundDuration":232558,"Delta":141336699},{"NoteNumber":87,"Velocity":52,"Duration":955180,"SoundDuration":955180,"Delta":141569257},{"NoteNumber":91,"Velocity":57,"Duration":955180,"SoundDuration":955180,"Delta":141569257},{"NoteNumber":63,"Velocity":33,"Duration":236220,"SoundDuration":236220,"Delta":141569257},{"NoteNumber":62,"Velocity":29,"Duration":242228,"SoundDuration":242228,"Delta":141805478},{"NoteNumber":60,"Velocity":35,"Duration":236462,"SoundDuration":236462,"Delta":142047706},{"NoteNumber":62,"Velocity":29,"Duration":240269,"SoundDuration":240269,"Delta":142284169},{"NoteNumber":86,"Velocity":52,"Duration":472276,"SoundDuration":472276,"Delta":142524438},{"NoteNumber":89,"Velocity":57,"Duration":472276,"SoundDuration":472276,"Delta":142524438},{"NoteNumber":60,"Velocity":31,"Duration":234878,"SoundDuration":234878,"Delta":142524438},{"NoteNumber":62,"Velocity":27,"Duration":237397,"SoundDuration":237397,"Delta":142759316},{"NoteNumber":84,"Velocity":50,"Duration":479626,"SoundDuration":479626,"Delta":142996714},{"NoteNumber":87,"Velocity":55,"Duration":479626,"SoundDuration":479626,"Delta":142996714},{"NoteNumber":63,"Velocity":31,"Duration":237398,"SoundDuration":237398,"Delta":142996714},{"NoteNumber":67,"Velocity":27,"Duration":242228,"SoundDuration":242228,"Delta":143234112},{"NoteNumber":86,"Velocity":54,"Duration":478507,"SoundDuration":478507,"Delta":143476341},{"NoteNumber":89,"Velocity":59,"Duration":478507,"SoundDuration":478507,"Delta":143476341},{"NoteNumber":60,"Velocity":35,"Duration":239253,"SoundDuration":239253,"Delta":143476341},{"NoteNumber":62,"Velocity":29,"Duration":239253,"SoundDuration":239253,"Delta":143715594},{"NoteNumber":86,"Velocity":50,"Duration":236220,"SoundDuration":236220,"Delta":143954848},{"NoteNumber":89,"Velocity":55,"Duration":236220,"SoundDuration":236220,"Delta":143954848},{"NoteNumber":65,"Velocity":34,"Duration":236220,"SoundDuration":236220,"Delta":143954848},{"NoteNumber":84,"Velocity":46,"Duration":238094,"SoundDuration":238094,"Delta":144191068},{"NoteNumber":87,"Velocity":50,"Duration":238094,"SoundDuration":238094,"Delta":144191068},{"NoteNumber":70,"Velocity":29,"Duration":238094,"SoundDuration":238094,"Delta":144191068},{"NoteNumber":82,"Velocity":51,"Duration":951342,"SoundDuration":951342,"Delta":144429163},{"NoteNumber":86,"Velocity":56,"Duration":951342,"SoundDuration":951342,"Delta":144429163},{"NoteNumber":65,"Velocity":31,"Duration":238095,"SoundDuration":238095,"Delta":144429163},{"NoteNumber":62,"Velocity":29,"Duration":241254,"SoundDuration":241254,"Delta":144667258},{"NoteNumber":60,"Velocity":33,"Duration":234595,"SoundDuration":234595,"Delta":144908513},{"NoteNumber":62,"Velocity":28,"Duration":237398,"SoundDuration":237398,"Delta":145143108},{"NoteNumber":84,"Velocity":51,"Duration":79997,"SoundDuration":79997,"Delta":145380506},{"NoteNumber":74,"Velocity":45,"Duration":959173,"SoundDuration":959173,"Delta":145380506},{"NoteNumber":65,"Velocity":35,"Duration":241169,"SoundDuration":241169,"Delta":145380506},{"NoteNumber":82,"Velocity":47,"Duration":81089,"SoundDuration":81089,"Delta":145460504},{"NoteNumber":84,"Velocity":51,"Duration":80082,"SoundDuration":80082,"Delta":145541593},{"NoteNumber":82,"Velocity":47,"Duration":80079,"SoundDuration":80079,"Delta":145621676},{"NoteNumber":70,"Velocity":30,"Duration":239104,"SoundDuration":239104,"Delta":145621676},{"NoteNumber":84,"Velocity":50,"Duration":80162,"SoundDuration":80162,"Delta":145701755},{"NoteNumber":82,"Velocity":47,"Duration":78862,"SoundDuration":78862,"Delta":145781918},{"NoteNumber":84,"Velocity":50,"Duration":79831,"SoundDuration":79831,"Delta":145860780},{"NoteNumber":65,"Velocity":34,"Duration":237794,"SoundDuration":237794,"Delta":145860780},{"NoteNumber":82,"Velocity":47,"Duration":78622,"SoundDuration":78622,"Delta":145940612},{"NoteNumber":84,"Velocity":48,"Duration":79340,"SoundDuration":79340,"Delta":146019235},{"NoteNumber":82,"Velocity":46,"Duration":78908,"SoundDuration":78908,"Delta":146098575},{"NoteNumber":58,"Velocity":29,"Duration":241104,"SoundDuration":241104,"Delta":146098575},{"NoteNumber":80,"Velocity":49,"Duration":80768,"SoundDuration":80768,"Delta":146177483},{"NoteNumber":82,"Velocity":50,"Duration":81428,"SoundDuration":81428,"Delta":146258251},{"NoteNumber":80,"Velocity":55,"Duration":476530,"SoundDuration":476530,"Delta":146339679},{"NoteNumber":84,"Velocity":60,"Duration":476530,"SoundDuration":476530,"Delta":146339679},{"NoteNumber":56,"Velocity":39,"Duration":238265,"SoundDuration":238265,"Delta":146339679},{"NoteNumber":58,"Velocity":33,"Duration":238265,"SoundDuration":238265,"Delta":146577945},{"NoteNumber":84,"Velocity":50,"Duration":482470,"SoundDuration":482470,"Delta":146816210},{"NoteNumber":87,"Velocity":55,"Duration":482470,"SoundDuration":482470,"Delta":146816210},{"NoteNumber":60,"Velocity":36,"Duration":241234,"SoundDuration":241234,"Delta":146816210},{"NoteNumber":63,"Velocity":35,"Duration":241235,"SoundDuration":241235,"Delta":147057445},{"NoteNumber":82,"Velocity":49,"Duration":482470,"SoundDuration":482470,"Delta":147298680},{"NoteNumber":86,"Velocity":53,"Duration":482470,"SoundDuration":482470,"Delta":147298680},{"NoteNumber":65,"Velocity":35,"Duration":241234,"SoundDuration":241234,"Delta":147298680},{"NoteNumber":67,"Velocity":29,"Duration":241235,"SoundDuration":241235,"Delta":147539915},{"NoteNumber":80,"Velocity":51,"Duration":482469,"SoundDuration":482469,"Delta":147781150},{"NoteNumber":84,"Velocity":56,"Duration":482469,"SoundDuration":482469,"Delta":147781150},{"NoteNumber":68,"Velocity":36,"Duration":241234,"SoundDuration":241234,"Delta":147781150},{"NoteNumber":70,"Velocity":33,"Duration":241234,"SoundDuration":241234,"Delta":148022385},{"NoteNumber":82,"Velocity":49,"Duration":495868,"SoundDuration":495868,"Delta":148263620},{"NoteNumber":86,"Velocity":53,"Duration":495868,"SoundDuration":495868,"Delta":148263620},{"NoteNumber":68,"Velocity":36,"Duration":247933,"SoundDuration":247933,"Delta":148263620},{"NoteNumber":70,"Velocity":31,"Duration":247934,"SoundDuration":247934,"Delta":148511554},{"NoteNumber":74,"Velocity":47,"Duration":503398,"SoundDuration":503398,"Delta":148759488},{"NoteNumber":82,"Velocity":51,"Duration":503398,"SoundDuration":503398,"Delta":148759488},{"NoteNumber":56,"Velocity":32,"Duration":251699,"SoundDuration":251699,"Delta":148759488},{"NoteNumber":58,"Velocity":29,"Duration":251699,"SoundDuration":251699,"Delta":149011187},{"NoteNumber":75,"Velocity":47,"Duration":2869679,"SoundDuration":2869679,"Delta":149262886},{"NoteNumber":79,"Velocity":51,"Duration":2869679,"SoundDuration":2869679,"Delta":149262886},{"NoteNumber":60,"Velocity":37,"Duration":237398,"SoundDuration":237398,"Delta":149262886},{"NoteNumber":62,"Velocity":31,"Duration":242228,"SoundDuration":242228,"Delta":149500284},{"NoteNumber":63,"Velocity":37,"Duration":236462,"SoundDuration":236462,"Delta":149742513},{"NoteNumber":67,"Velocity":29,"Duration":238094,"SoundDuration":238094,"Delta":149978975},{"NoteNumber":63,"Velocity":35,"Duration":236462,"SoundDuration":236462,"Delta":150217070},{"NoteNumber":62,"Velocity":30,"Duration":241254,"SoundDuration":241254,"Delta":150453533},{"NoteNumber":60,"Velocity":37,"Duration":236462,"SoundDuration":236462,"Delta":150694787},{"NoteNumber":62,"Velocity":30,"Duration":240269,"SoundDuration":240269,"Delta":150931250},{"NoteNumber":63,"Velocity":35,"Duration":237398,"SoundDuration":237398,"Delta":151171519},{"NoteNumber":67,"Velocity":29,"Duration":239044,"SoundDuration":239044,"Delta":151408917},{"NoteNumber":63,"Velocity":35,"Duration":238360,"SoundDuration":238360,"Delta":151647961},{"NoteNumber":62,"Velocity":31,"Duration":246244,"SoundDuration":246244,"Delta":151886321},{"NoteNumber":62,"Velocity":40,"Duration":231934,"SoundDuration":231934,"Delta":152132566},{"NoteNumber":65,"Velocity":48,"Duration":231934,"SoundDuration":231934,"Delta":152132566},{"NoteNumber":58,"Velocity":47,"Duration":231934,"SoundDuration":231934,"Delta":152132566},{"NoteNumber":63,"Velocity":38,"Duration":234364,"SoundDuration":234364,"Delta":152364501},{"NoteNumber":67,"Velocity":51,"Duration":234364,"SoundDuration":234364,"Delta":152364501},{"NoteNumber":56,"Velocity":41,"Duration":234364,"SoundDuration":234364,"Delta":152364501},{"NoteNumber":62,"Velocity":41,"Duration":229007,"SoundDuration":229007,"Delta":152598865},{"NoteNumber":65,"Velocity":49,"Duration":229007,"SoundDuration":229007,"Delta":152598865},{"NoteNumber":58,"Velocity":47,"Duration":229007,"SoundDuration":229007,"Delta":152598865},{"NoteNumber":63,"Velocity":39,"Duration":237154,"SoundDuration":237154,"Delta":152827873},{"NoteNumber":67,"Velocity":52,"Duration":237154,"SoundDuration":237154,"Delta":152827873},{"NoteNumber":56,"Velocity":39,"Duration":237154,"SoundDuration":237154,"Delta":152827873},{"NoteNumber":65,"Velocity":43,"Duration":481401,"SoundDuration":481401,"Delta":153065027},{"NoteNumber":68,"Velocity":57,"Duration":481401,"SoundDuration":481401,"Delta":153065027},{"NoteNumber":53,"Velocity":44,"Duration":236220,"SoundDuration":236220,"Delta":153065027},{"NoteNumber":51,"Velocity":39,"Duration":245180,"SoundDuration":245180,"Delta":153301247},{"NoteNumber":67,"Velocity":44,"Duration":472961,"SoundDuration":472961,"Delta":153546428},{"NoteNumber":71,"Velocity":58,"Duration":472961,"SoundDuration":472961,"Delta":153546428},{"NoteNumber":50,"Velocity":48,"Duration":236498,"SoundDuration":236498,"Delta":153546428},{"NoteNumber":48,"Velocity":44,"Duration":236462,"SoundDuration":236462,"Delta":153782927},{"NoteNumber":65,"Velocity":55,"Duration":944723,"SoundDuration":944723,"Delta":154019389},{"NoteNumber":74,"Velocity":62,"Duration":944723,"SoundDuration":944723,"Delta":154019389},{"NoteNumber":47,"Velocity":47,"Duration":232558,"SoundDuration":232558,"Delta":154019389},{"NoteNumber":44,"Velocity":49,"Duration":232557,"SoundDuration":232557,"Delta":154251947},{"NoteNumber":41,"Velocity":50,"Duration":237386,"SoundDuration":237386,"Delta":154484505},{"NoteNumber":39,"Velocity":52,"Duration":242220,"SoundDuration":242220,"Delta":154721892},{"NoteNumber":63,"Velocity":52,"Duration":2826834,"SoundDuration":2826834,"Delta":154964112},{"NoteNumber":67,"Velocity":58,"Duration":2826834,"SoundDuration":2826834,"Delta":154964112},{"NoteNumber":38,"Velocity":57,"Duration":233463,"SoundDuration":233463,"Delta":154964112},{"NoteNumber":36,"Velocity":52,"Duration":237138,"SoundDuration":237138,"Delta":155197575},{"NoteNumber":38,"Velocity":52,"Duration":234605,"SoundDuration":234605,"Delta":155434714},{"NoteNumber":39,"Velocity":48,"Duration":240245,"SoundDuration":240245,"Delta":155669320},{"NoteNumber":43,"Velocity":52,"Duration":235535,"SoundDuration":235535,"Delta":155909565},{"NoteNumber":48,"Velocity":47,"Duration":239295,"SoundDuration":239295,"Delta":156145101},{"NoteNumber":50,"Velocity":52,"Duration":236323,"SoundDuration":236323,"Delta":156384396},{"NoteNumber":51,"Velocity":46,"Duration":231640,"SoundDuration":231640,"Delta":156620720},{"NoteNumber":53,"Velocity":47,"Duration":231624,"SoundDuration":231624,"Delta":156852361},{"NoteNumber":51,"Velocity":47,"Duration":234375,"SoundDuration":234375,"Delta":157083985},{"NoteNumber":50,"Velocity":45,"Duration":234375,"SoundDuration":234375,"Delta":157318360},{"NoteNumber":51,"Velocity":44,"Duration":238211,"SoundDuration":238211,"Delta":157552735},{"NoteNumber":62,"Velocity":34,"Duration":240952,"SoundDuration":240952,"Delta":157790947},{"NoteNumber":65,"Velocity":40,"Duration":240952,"SoundDuration":240952,"Delta":157790947},{"NoteNumber":58,"Velocity":39,"Duration":240952,"SoundDuration":240952,"Delta":157790947},{"NoteNumber":63,"Velocity":32,"Duration":244110,"SoundDuration":244110,"Delta":158031899},{"NoteNumber":67,"Velocity":43,"Duration":244110,"SoundDuration":244110,"Delta":158031899},{"NoteNumber":56,"Velocity":34,"Duration":244110,"SoundDuration":244110,"Delta":158031899},{"NoteNumber":62,"Velocity":34,"Duration":240020,"SoundDuration":240020,"Delta":158276009},{"NoteNumber":65,"Velocity":41,"Duration":240020,"SoundDuration":240020,"Delta":158276009},{"NoteNumber":58,"Velocity":39,"Duration":240020,"SoundDuration":240020,"Delta":158276009},{"NoteNumber":63,"Velocity":33,"Duration":241927,"SoundDuration":241927,"Delta":158516030},{"NoteNumber":67,"Velocity":44,"Duration":241927,"SoundDuration":241927,"Delta":158516030},{"NoteNumber":56,"Velocity":33,"Duration":241927,"SoundDuration":241927,"Delta":158516030},{"NoteNumber":65,"Velocity":36,"Duration":487139,"SoundDuration":487139,"Delta":158757957},{"NoteNumber":68,"Velocity":48,"Duration":487139,"SoundDuration":487139,"Delta":158757957},{"NoteNumber":53,"Velocity":37,"Duration":241935,"SoundDuration":241935,"Delta":158757957},{"NoteNumber":51,"Velocity":33,"Duration":245204,"SoundDuration":245204,"Delta":158999893},{"NoteNumber":67,"Velocity":39,"Duration":478113,"SoundDuration":478113,"Delta":159245097},{"NoteNumber":71,"Velocity":52,"Duration":478113,"SoundDuration":478113,"Delta":159245097},{"NoteNumber":50,"Velocity":43,"Duration":239069,"SoundDuration":239069,"Delta":159245097},{"NoteNumber":48,"Velocity":39,"Duration":239043,"SoundDuration":239043,"Delta":159484167},{"NoteNumber":65,"Velocity":41,"Duration":946536,"SoundDuration":946536,"Delta":159723211},{"NoteNumber":74,"Velocity":55,"Duration":946536,"SoundDuration":946536,"Delta":159723211},{"NoteNumber":47,"Velocity":42,"Duration":233463,"SoundDuration":233463,"Delta":159723211},{"NoteNumber":44,"Velocity":44,"Duration":233463,"SoundDuration":233463,"Delta":159956674},{"NoteNumber":41,"Velocity":45,"Duration":237390,"SoundDuration":237390,"Delta":160190137},{"NoteNumber":39,"Velocity":46,"Duration":242220,"SoundDuration":242220,"Delta":160427527},{"NoteNumber":63,"Velocity":39,"Duration":2828697,"SoundDuration":2828697,"Delta":160669747},{"NoteNumber":67,"Velocity":52,"Duration":2828697,"SoundDuration":2828697,"Delta":160669747},{"NoteNumber":38,"Velocity":51,"Duration":234626,"SoundDuration":234626,"Delta":160669747},{"NoteNumber":36,"Velocity":46,"Duration":240245,"SoundDuration":240245,"Delta":160904374},{"NoteNumber":38,"Velocity":46,"Duration":234618,"SoundDuration":234618,"Delta":161144620},{"NoteNumber":39,"Velocity":43,"Duration":237143,"SoundDuration":237143,"Delta":161379238},{"NoteNumber":43,"Velocity":46,"Duration":235522,"SoundDuration":235522,"Delta":161616382},{"NoteNumber":48,"Velocity":42,"Duration":239295,"SoundDuration":239295,"Delta":161851904},{"NoteNumber":50,"Velocity":46,"Duration":236323,"SoundDuration":236323,"Delta":162091200},{"NoteNumber":51,"Velocity":41,"Duration":231640,"SoundDuration":231640,"Delta":162327524},{"NoteNumber":53,"Velocity":42,"Duration":231624,"SoundDuration":231624,"Delta":162559164},{"NoteNumber":51,"Velocity":42,"Duration":234854,"SoundDuration":234854,"Delta":162790789},{"NoteNumber":50,"Velocity":40,"Duration":234705,"SoundDuration":234705,"Delta":163025644},{"NoteNumber":51,"Velocity":39,"Duration":238094,"SoundDuration":238094,"Delta":163260350},{"NoteNumber":87,"Velocity":48,"Duration":481916,"SoundDuration":481916,"Delta":163498445},{"NoteNumber":91,"Velocity":52,"Duration":481916,"SoundDuration":481916,"Delta":163498445},{"NoteNumber":60,"Velocity":32,"Duration":240952,"SoundDuration":240952,"Delta":163498445},{"NoteNumber":62,"Velocity":29,"Duration":240963,"SoundDuration":240963,"Delta":163739397},{"NoteNumber":87,"Velocity":49,"Duration":473763,"SoundDuration":473763,"Delta":163980361},{"NoteNumber":84,"Velocity":45,"Duration":473763,"SoundDuration":473763,"Delta":163980361},{"NoteNumber":63,"Velocity":32,"Duration":240271,"SoundDuration":240271,"Delta":163980361},{"NoteNumber":67,"Velocity":28,"Duration":233491,"SoundDuration":233491,"Delta":164220633},{"NoteNumber":87,"Velocity":48,"Duration":955152,"SoundDuration":955152,"Delta":164454124},{"NoteNumber":91,"Velocity":52,"Duration":955152,"SoundDuration":955152,"Delta":164454124},{"NoteNumber":63,"Velocity":30,"Duration":236209,"SoundDuration":236209,"Delta":164454124},{"NoteNumber":62,"Velocity":27,"Duration":242203,"SoundDuration":242203,"Delta":164690333},{"NoteNumber":60,"Velocity":32,"Duration":236486,"SoundDuration":236486,"Delta":164932536},{"NoteNumber":62,"Velocity":27,"Duration":240253,"SoundDuration":240253,"Delta":165169023},{"NoteNumber":86,"Velocity":50,"Duration":474190,"SoundDuration":474190,"Delta":165409276},{"NoteNumber":89,"Velocity":55,"Duration":474190,"SoundDuration":474190,"Delta":165409276},{"NoteNumber":60,"Velocity":29,"Duration":239802,"SoundDuration":239802,"Delta":165409276},{"NoteNumber":62,"Velocity":25,"Duration":234387,"SoundDuration":234387,"Delta":165649079},{"NoteNumber":84,"Velocity":47,"Duration":479593,"SoundDuration":479593,"Delta":165883466},{"NoteNumber":87,"Velocity":51,"Duration":479593,"SoundDuration":479593,"Delta":165883466},{"NoteNumber":63,"Velocity":30,"Duration":237385,"SoundDuration":237385,"Delta":165883466},{"NoteNumber":67,"Velocity":25,"Duration":242208,"SoundDuration":242208,"Delta":166120852},{"NoteNumber":86,"Velocity":49,"Duration":481933,"SoundDuration":481933,"Delta":166363060},{"NoteNumber":89,"Velocity":53,"Duration":481933,"SoundDuration":481933,"Delta":166363060},{"NoteNumber":60,"Velocity":32,"Duration":240969,"SoundDuration":240969,"Delta":166363060},{"NoteNumber":62,"Velocity":29,"Duration":240963,"SoundDuration":240963,"Delta":166604029},{"NoteNumber":86,"Velocity":46,"Duration":237300,"SoundDuration":237300,"Delta":166844993},{"NoteNumber":89,"Velocity":50,"Duration":237300,"SoundDuration":237300,"Delta":166844993},{"NoteNumber":65,"Velocity":31,"Duration":237300,"SoundDuration":237300,"Delta":166844993},{"NoteNumber":84,"Velocity":42,"Duration":233478,"SoundDuration":233478,"Delta":167082294},{"NoteNumber":87,"Velocity":46,"Duration":233478,"SoundDuration":233478,"Delta":167082294},{"NoteNumber":70,"Velocity":27,"Duration":233478,"SoundDuration":233478,"Delta":167082294},{"NoteNumber":82,"Velocity":47,"Duration":957062,"SoundDuration":957062,"Delta":167315773},{"NoteNumber":86,"Velocity":51,"Duration":957062,"SoundDuration":957062,"Delta":167315773},{"NoteNumber":65,"Velocity":29,"Duration":237138,"SoundDuration":237138,"Delta":167315773},{"NoteNumber":62,"Velocity":27,"Duration":241237,"SoundDuration":241237,"Delta":167552912},{"NoteNumber":60,"Velocity":30,"Duration":236482,"SoundDuration":236482,"Delta":167794149},{"NoteNumber":62,"Velocity":26,"Duration":242204,"SoundDuration":242204,"Delta":168030632},{"NoteNumber":84,"Velocity":47,"Duration":80708,"SoundDuration":80708,"Delta":168272836},{"NoteNumber":74,"Velocity":41,"Duration":964451,"SoundDuration":964451,"Delta":168272836},{"NoteNumber":65,"Velocity":32,"Duration":241826,"SoundDuration":241826,"Delta":168272836},{"NoteNumber":82,"Velocity":44,"Duration":80873,"SoundDuration":80873,"Delta":168353544},{"NoteNumber":84,"Velocity":47,"Duration":80244,"SoundDuration":80244,"Delta":168434418},{"NoteNumber":82,"Velocity":43,"Duration":80831,"SoundDuration":80831,"Delta":168514662},{"NoteNumber":70,"Velocity":28,"Duration":242026,"SoundDuration":242026,"Delta":168514662},{"NoteNumber":84,"Velocity":46,"Duration":80922,"SoundDuration":80922,"Delta":168595494},{"NoteNumber":82,"Velocity":42,"Duration":80272,"SoundDuration":80272,"Delta":168676416},{"NoteNumber":84,"Velocity":46,"Duration":80449,"SoundDuration":80449,"Delta":168756689},{"NoteNumber":65,"Velocity":31,"Duration":238874,"SoundDuration":238874,"Delta":168756689},{"NoteNumber":82,"Velocity":42,"Duration":79283,"SoundDuration":79283,"Delta":168837138},{"NoteNumber":84,"Velocity":44,"Duration":79140,"SoundDuration":79140,"Delta":168916422},{"NoteNumber":82,"Velocity":42,"Duration":79075,"SoundDuration":79075,"Delta":168995563},{"NoteNumber":58,"Velocity":27,"Duration":241725,"SoundDuration":241725,"Delta":168995563},{"NoteNumber":80,"Velocity":45,"Duration":80622,"SoundDuration":80622,"Delta":169074639},{"NoteNumber":82,"Velocity":46,"Duration":82026,"SoundDuration":82026,"Delta":169155262},{"NoteNumber":80,"Velocity":50,"Duration":470857,"SoundDuration":470857,"Delta":169237288},{"NoteNumber":84,"Velocity":55,"Duration":470857,"SoundDuration":470857,"Delta":169237288},{"NoteNumber":56,"Velocity":36,"Duration":238299,"SoundDuration":238299,"Delta":169237288},{"NoteNumber":58,"Velocity":30,"Duration":232558,"SoundDuration":232558,"Delta":169475587},{"NoteNumber":84,"Velocity":48,"Duration":480007,"SoundDuration":480007,"Delta":169708145},{"NoteNumber":87,"Velocity":53,"Duration":480007,"SoundDuration":480007,"Delta":169708145},{"NoteNumber":60,"Velocity":33,"Duration":239044,"SoundDuration":239044,"Delta":169708145},{"NoteNumber":63,"Velocity":32,"Duration":240963,"SoundDuration":240963,"Delta":169947189},{"NoteNumber":82,"Velocity":47,"Duration":486865,"SoundDuration":486865,"Delta":170188153},{"NoteNumber":86,"Velocity":51,"Duration":486865,"SoundDuration":486865,"Delta":170188153},{"NoteNumber":65,"Velocity":32,"Duration":240964,"SoundDuration":240964,"Delta":170188153},{"NoteNumber":67,"Velocity":27,"Duration":245901,"SoundDuration":245901,"Delta":170429117},{"NoteNumber":80,"Velocity":49,"Duration":481928,"SoundDuration":481928,"Delta":170675019},{"NoteNumber":84,"Velocity":53,"Duration":481928,"SoundDuration":481928,"Delta":170675019},{"NoteNumber":68,"Velocity":33,"Duration":240963,"SoundDuration":240963,"Delta":170675019},{"NoteNumber":70,"Velocity":30,"Duration":240964,"SoundDuration":240964,"Delta":170915983},{"NoteNumber":82,"Velocity":48,"Duration":490578,"SoundDuration":490578,"Delta":171156947},{"NoteNumber":86,"Velocity":52,"Duration":490578,"SoundDuration":490578,"Delta":171156947},{"NoteNumber":68,"Velocity":33,"Duration":245280,"SoundDuration":245280,"Delta":171156947},{"NoteNumber":70,"Velocity":29,"Duration":245298,"SoundDuration":245298,"Delta":171402227},{"NoteNumber":74,"Velocity":44,"Duration":503371,"SoundDuration":503371,"Delta":171647526},{"NoteNumber":82,"Velocity":48,"Duration":503371,"SoundDuration":503371,"Delta":171647526},{"NoteNumber":56,"Velocity":32,"Duration":251672,"SoundDuration":251672,"Delta":171647526},{"NoteNumber":58,"Velocity":29,"Duration":251699,"SoundDuration":251699,"Delta":171899198},{"NoteNumber":75,"Velocity":43,"Duration":2860605,"SoundDuration":2860605,"Delta":172150897},{"NoteNumber":79,"Velocity":47,"Duration":2860605,"SoundDuration":2860605,"Delta":172150897},{"NoteNumber":60,"Velocity":34,"Duration":236525,"SoundDuration":236525,"Delta":172150897},{"NoteNumber":62,"Velocity":29,"Duration":242204,"SoundDuration":242204,"Delta":172387423},{"NoteNumber":63,"Velocity":34,"Duration":234375,"SoundDuration":234375,"Delta":172629627},{"NoteNumber":67,"Velocity":27,"Duration":238079,"SoundDuration":238079,"Delta":172864002},{"NoteNumber":63,"Velocity":32,"Duration":236469,"SoundDuration":236469,"Delta":173102082},{"NoteNumber":62,"Velocity":28,"Duration":242204,"SoundDuration":242204,"Delta":173338551},{"NoteNumber":60,"Velocity":34,"Duration":237418,"SoundDuration":237418,"Delta":173580756},{"NoteNumber":62,"Velocity":28,"Duration":241238,"SoundDuration":241238,"Delta":173818174},{"NoteNumber":63,"Velocity":32,"Duration":235294,"SoundDuration":235294,"Delta":174059412},{"NoteNumber":67,"Velocity":27,"Duration":236216,"SoundDuration":236216,"Delta":174294706},{"NoteNumber":63,"Velocity":32,"Duration":237393,"SoundDuration":237393,"Delta":174530923},{"NoteNumber":55,"Velocity":29,"Duration":243186,"SoundDuration":243186,"Delta":174768316},{"NoteNumber":65,"Velocity":45,"Duration":1455852,"SoundDuration":1455852,"Delta":175011502},{"NoteNumber":74,"Velocity":56,"Duration":494584,"SoundDuration":494584,"Delta":175011502},{"NoteNumber":43,"Velocity":34,"Duration":1455852,"SoundDuration":1455852,"Delta":175011502},{"NoteNumber":59,"Velocity":38,"Duration":1455852,"SoundDuration":1455852,"Delta":175011502},{"NoteNumber":74,"Velocity":56,"Duration":235293,"SoundDuration":235293,"Delta":175506087},{"NoteNumber":75,"Velocity":51,"Duration":240050,"SoundDuration":240050,"Delta":175741381},{"NoteNumber":74,"Velocity":56,"Duration":237153,"SoundDuration":237153,"Delta":175981431},{"NoteNumber":75,"Velocity":51,"Duration":248769,"SoundDuration":248769,"Delta":176218585},{"NoteNumber":63,"Velocity":45,"Duration":1465308,"SoundDuration":1465308,"Delta":176467355},{"NoteNumber":72,"Velocity":56,"Duration":491654,"SoundDuration":491654,"Delta":176467355},{"NoteNumber":48,"Velocity":30,"Duration":1465308,"SoundDuration":1465308,"Delta":176467355},{"NoteNumber":55,"Velocity":34,"Duration":1465308,"SoundDuration":1465308,"Delta":176467355},{"NoteNumber":72,"Velocity":49,"Duration":240081,"SoundDuration":240081,"Delta":176959009},{"NoteNumber":68,"Velocity":47,"Duration":241947,"SoundDuration":241947,"Delta":177199091},{"NoteNumber":67,"Velocity":47,"Duration":491625,"SoundDuration":491625,"Delta":177441038},{"NoteNumber":65,"Velocity":45,"Duration":1480144,"SoundDuration":1480144,"Delta":177932664},{"NoteNumber":74,"Velocity":51,"Duration":497623,"SoundDuration":497623,"Delta":177932664},{"NoteNumber":43,"Velocity":34,"Duration":1480144,"SoundDuration":1480144,"Delta":177932664},{"NoteNumber":59,"Velocity":38,"Duration":1480144,"SoundDuration":1480144,"Delta":177932664},{"NoteNumber":74,"Velocity":51,"Duration":241035,"SoundDuration":241035,"Delta":178430287},{"NoteNumber":75,"Velocity":47,"Duration":248785,"SoundDuration":248785,"Delta":178671322},{"NoteNumber":74,"Velocity":51,"Duration":243903,"SoundDuration":243903,"Delta":178920108},{"NoteNumber":75,"Velocity":45,"Duration":248797,"SoundDuration":248797,"Delta":179164011},{"NoteNumber":63,"Velocity":45,"Duration":1469044,"SoundDuration":1469044,"Delta":179412808},{"NoteNumber":72,"Velocity":51,"Duration":1469044,"SoundDuration":1469044,"Delta":179412808},{"NoteNumber":48,"Velocity":30,"Duration":1469044,"SoundDuration":1469044,"Delta":179412808},{"NoteNumber":55,"Velocity":34,"Duration":1469044,"SoundDuration":1469044,"Delta":179412808},{"NoteNumber":65,"Velocity":49,"Duration":1455927,"SoundDuration":1455927,"Delta":180881853},{"NoteNumber":74,"Velocity":61,"Duration":495609,"SoundDuration":495609,"Delta":180881853},{"NoteNumber":46,"Velocity":45,"Duration":1455927,"SoundDuration":1455927,"Delta":180881853},{"NoteNumber":74,"Velocity":61,"Duration":235294,"SoundDuration":235294,"Delta":181377462},{"NoteNumber":75,"Velocity":56,"Duration":240037,"SoundDuration":240037,"Delta":181612756},{"NoteNumber":74,"Velocity":61,"Duration":236220,"SoundDuration":236220,"Delta":181852794},{"NoteNumber":75,"Velocity":56,"Duration":248765,"SoundDuration":248765,"Delta":182089014},{"NoteNumber":63,"Velocity":49,"Duration":1460675,"SoundDuration":1460675,"Delta":182337780},{"NoteNumber":68,"Velocity":49,"Duration":1460675,"SoundDuration":1460675,"Delta":182337780},{"NoteNumber":72,"Velocity":61,"Duration":489692,"SoundDuration":489692,"Delta":182337780},{"NoteNumber":41,"Velocity":49,"Duration":1460675,"SoundDuration":1460675,"Delta":182337780},{"NoteNumber":72,"Velocity":61,"Duration":237694,"SoundDuration":237694,"Delta":182841346},{"NoteNumber":74,"Velocity":56,"Duration":244806,"SoundDuration":244806,"Delta":183064790},{"NoteNumber":72,"Velocity":61,"Duration":240077,"SoundDuration":240077,"Delta":183309596},{"NoteNumber":74,"Velocity":56,"Duration":248781,"SoundDuration":248781,"Delta":183549673},{"NoteNumber":62,"Velocity":55,"Duration":1499987,"SoundDuration":1499987,"Delta":183798455},{"NoteNumber":71,"Velocity":60,"Duration":428483,"SoundDuration":428483,"Delta":183798455},{"NoteNumber":43,"Velocity":38,"Duration":1499987,"SoundDuration":1499987,"Delta":183798455},{"NoteNumber":72,"Velocity":49,"Duration":61209,"SoundDuration":61209,"Delta":184226938},{"NoteNumber":71,"Velocity":56,"Duration":241018,"SoundDuration":241018,"Delta":184288148},{"NoteNumber":69,"Velocity":49,"Duration":249795,"SoundDuration":249795,"Delta":184529166},{"NoteNumber":67,"Velocity":52,"Duration":519481,"SoundDuration":519481,"Delta":184778961},{"NoteNumber":65,"Velocity":40,"Duration":1528102,"SoundDuration":1528102,"Delta":185298442},{"NoteNumber":74,"Velocity":45,"Duration":508475,"SoundDuration":508475,"Delta":185298442},{"NoteNumber":43,"Velocity":30,"Duration":1528102,"SoundDuration":1528102,"Delta":185298442},{"NoteNumber":59,"Velocity":34,"Duration":1528102,"SoundDuration":1528102,"Delta":185298442},{"NoteNumber":74,"Velocity":45,"Duration":249841,"SoundDuration":249841,"Delta":185806917},{"NoteNumber":75,"Velocity":42,"Duration":257944,"SoundDuration":257944,"Delta":186056759},{"NoteNumber":74,"Velocity":45,"Duration":252101,"SoundDuration":252101,"Delta":186314703},{"NoteNumber":75,"Velocity":42,"Duration":259740,"SoundDuration":259740,"Delta":186566804},{"NoteNumber":63,"Velocity":38,"Duration":1539886,"SoundDuration":1539886,"Delta":186826545},{"NoteNumber":72,"Velocity":42,"Duration":1539886,"SoundDuration":1539886,"Delta":186826545},{"NoteNumber":60,"Velocity":28,"Duration":1539886,"SoundDuration":1539886,"Delta":186826545},{"NoteNumber":48,"Velocity":25,"Duration":1539886,"SoundDuration":1539886,"Delta":186826545},{"NoteNumber":55,"Velocity":25,"Duration":1539886,"SoundDuration":1539886,"Delta":186826545},{"NoteNumber":75,"Velocity":48,"Duration":497925,"SoundDuration":497925,"Delta":188366431},{"NoteNumber":79,"Velocity":52,"Duration":497925,"SoundDuration":497925,"Delta":188366431},{"NoteNumber":48,"Velocity":32,"Duration":248962,"SoundDuration":248962,"Delta":188366431},{"NoteNumber":50,"Velocity":29,"Duration":248962,"SoundDuration":248962,"Delta":188615394},{"NoteNumber":75,"Velocity":49,"Duration":483918,"SoundDuration":483918,"Delta":188864356},{"NoteNumber":72,"Velocity":45,"Duration":483918,"SoundDuration":483918,"Delta":188864356},{"NoteNumber":51,"Velocity":32,"Duration":243902,"SoundDuration":243902,"Delta":188864356},{"NoteNumber":55,"Velocity":28,"Duration":240016,"SoundDuration":240016,"Delta":189108259},{"NoteNumber":75,"Velocity":48,"Duration":961886,"SoundDuration":961886,"Delta":189348275},{"NoteNumber":79,"Velocity":52,"Duration":961886,"SoundDuration":961886,"Delta":189348275},{"NoteNumber":51,"Velocity":30,"Duration":242915,"SoundDuration":242915,"Delta":189348275},{"NoteNumber":50,"Velocity":27,"Duration":242231,"SoundDuration":242231,"Delta":189591190},{"NoteNumber":48,"Velocity":32,"Duration":236486,"SoundDuration":236486,"Delta":189833421},{"NoteNumber":50,"Velocity":27,"Duration":240253,"SoundDuration":240253,"Delta":190069908},{"NoteNumber":74,"Velocity":50,"Duration":475105,"SoundDuration":475105,"Delta":190310161},{"NoteNumber":77,"Velocity":55,"Duration":475105,"SoundDuration":475105,"Delta":190310161},{"NoteNumber":48,"Velocity":28,"Duration":239802,"SoundDuration":239802,"Delta":190310161},{"NoteNumber":50,"Velocity":25,"Duration":235302,"SoundDuration":235302,"Delta":190549963},{"NoteNumber":72,"Velocity":47,"Duration":479597,"SoundDuration":479597,"Delta":190785266},{"NoteNumber":75,"Velocity":51,"Duration":479597,"SoundDuration":479597,"Delta":190785266},{"NoteNumber":51,"Velocity":30,"Duration":237389,"SoundDuration":237389,"Delta":190785266},{"NoteNumber":55,"Velocity":25,"Duration":242208,"SoundDuration":242208,"Delta":191022655},{"NoteNumber":74,"Velocity":49,"Duration":481933,"SoundDuration":481933,"Delta":191264864},{"NoteNumber":77,"Velocity":53,"Duration":481933,"SoundDuration":481933,"Delta":191264864},{"NoteNumber":48,"Velocity":32,"Duration":240969,"SoundDuration":240969,"Delta":191264864},{"NoteNumber":50,"Velocity":29,"Duration":240963,"SoundDuration":240963,"Delta":191505833},{"NoteNumber":74,"Velocity":46,"Duration":237300,"SoundDuration":237300,"Delta":191746797},{"NoteNumber":77,"Velocity":50,"Duration":237300,"SoundDuration":237300,"Delta":191746797},{"NoteNumber":53,"Velocity":31,"Duration":237300,"SoundDuration":237300,"Delta":191746797},{"NoteNumber":72,"Velocity":42,"Duration":237285,"SoundDuration":237285,"Delta":191984098},{"NoteNumber":75,"Velocity":46,"Duration":237285,"SoundDuration":237285,"Delta":191984098},{"NoteNumber":58,"Velocity":27,"Duration":237285,"SoundDuration":237285,"Delta":191984098},{"NoteNumber":70,"Velocity":47,"Duration":957210,"SoundDuration":957210,"Delta":192221383},{"NoteNumber":74,"Velocity":51,"Duration":957210,"SoundDuration":957210,"Delta":192221383},{"NoteNumber":53,"Velocity":29,"Duration":237285,"SoundDuration":237285,"Delta":192221383},{"NoteNumber":50,"Velocity":27,"Duration":241237,"SoundDuration":241237,"Delta":192458669},{"NoteNumber":48,"Velocity":30,"Duration":236482,"SoundDuration":236482,"Delta":192699907},{"NoteNumber":50,"Velocity":26,"Duration":242204,"SoundDuration":242204,"Delta":192936389},{"NoteNumber":72,"Velocity":47,"Duration":80708,"SoundDuration":80708,"Delta":193178594},{"NoteNumber":62,"Velocity":41,"Duration":964451,"SoundDuration":964451,"Delta":193178594},{"NoteNumber":53,"Velocity":32,"Duration":241826,"SoundDuration":241826,"Delta":193178594},{"NoteNumber":70,"Velocity":41,"Duration":80873,"SoundDuration":80873,"Delta":193259302},{"NoteNumber":72,"Velocity":47,"Duration":80244,"SoundDuration":80244,"Delta":193340175},{"NoteNumber":70,"Velocity":39,"Duration":80831,"SoundDuration":80831,"Delta":193420420},{"NoteNumber":58,"Velocity":28,"Duration":242026,"SoundDuration":242026,"Delta":193420420},{"NoteNumber":72,"Velocity":46,"Duration":80922,"SoundDuration":80922,"Delta":193501251},{"NoteNumber":70,"Velocity":40,"Duration":80272,"SoundDuration":80272,"Delta":193582174},{"NoteNumber":72,"Velocity":46,"Duration":80449,"SoundDuration":80449,"Delta":193662446},{"NoteNumber":53,"Velocity":31,"Duration":238874,"SoundDuration":238874,"Delta":193662446},{"NoteNumber":70,"Velocity":39,"Duration":79283,"SoundDuration":79283,"Delta":193742896},{"NoteNumber":72,"Velocity":44,"Duration":79140,"SoundDuration":79140,"Delta":193822180},{"NoteNumber":70,"Velocity":38,"Duration":79075,"SoundDuration":79075,"Delta":193901321},{"NoteNumber":46,"Velocity":27,"Duration":241725,"SoundDuration":241725,"Delta":193901321},{"NoteNumber":68,"Velocity":45,"Duration":80622,"SoundDuration":80622,"Delta":193980396},{"NoteNumber":70,"Velocity":46,"Duration":82026,"SoundDuration":82026,"Delta":194061019},{"NoteNumber":68,"Velocity":50,"Duration":476564,"SoundDuration":476564,"Delta":194143046},{"NoteNumber":72,"Velocity":55,"Duration":476564,"SoundDuration":476564,"Delta":194143046},{"NoteNumber":44,"Velocity":36,"Duration":238299,"SoundDuration":238299,"Delta":194143046},{"NoteNumber":46,"Velocity":30,"Duration":238265,"SoundDuration":238265,"Delta":194381345},{"NoteNumber":72,"Velocity":50,"Duration":482457,"SoundDuration":482457,"Delta":194619610},{"NoteNumber":75,"Velocity":55,"Duration":482457,"SoundDuration":482457,"Delta":194619610},{"NoteNumber":48,"Velocity":33,"Duration":241222,"SoundDuration":241222,"Delta":194619610},{"NoteNumber":51,"Velocity":32,"Duration":241234,"SoundDuration":241234,"Delta":194860833},{"NoteNumber":70,"Velocity":47,"Duration":486132,"SoundDuration":486132,"Delta":195102068},{"NoteNumber":74,"Velocity":51,"Duration":486132,"SoundDuration":486132,"Delta":195102068},{"NoteNumber":53,"Velocity":32,"Duration":241234,"SoundDuration":241234,"Delta":195102068},{"NoteNumber":55,"Velocity":27,"Duration":244898,"SoundDuration":244898,"Delta":195343303},{"NoteNumber":68,"Velocity":49,"Duration":481928,"SoundDuration":481928,"Delta":195588201},{"NoteNumber":72,"Velocity":53,"Duration":481928,"SoundDuration":481928,"Delta":195588201},{"NoteNumber":56,"Velocity":33,"Duration":240963,"SoundDuration":240963,"Delta":195588201},{"NoteNumber":58,"Velocity":30,"Duration":240964,"SoundDuration":240964,"Delta":195829165},{"NoteNumber":70,"Velocity":48,"Duration":490578,"SoundDuration":490578,"Delta":196070129},{"NoteNumber":74,"Velocity":52,"Duration":490578,"SoundDuration":490578,"Delta":196070129},{"NoteNumber":56,"Velocity":33,"Duration":245280,"SoundDuration":245280,"Delta":196070129},{"NoteNumber":58,"Velocity":29,"Duration":245298,"SoundDuration":245298,"Delta":196315410},{"NoteNumber":62,"Velocity":44,"Duration":503371,"SoundDuration":503371,"Delta":196560708},{"NoteNumber":70,"Velocity":48,"Duration":503371,"SoundDuration":503371,"Delta":196560708},{"NoteNumber":44,"Velocity":33,"Duration":251672,"SoundDuration":251672,"Delta":196560708},{"NoteNumber":46,"Velocity":29,"Duration":251699,"SoundDuration":251699,"Delta":196812380},{"NoteNumber":63,"Velocity":43,"Duration":2857876,"SoundDuration":2857876,"Delta":197064079},{"NoteNumber":67,"Velocity":47,"Duration":2857876,"SoundDuration":2857876,"Delta":197064079},{"NoteNumber":48,"Velocity":37,"Duration":236525,"SoundDuration":236525,"Delta":197064079},{"NoteNumber":50,"Velocity":32,"Duration":242204,"SoundDuration":242204,"Delta":197300605},{"NoteNumber":48,"Velocity":39,"Duration":237418,"SoundDuration":237418,"Delta":197542810},{"NoteNumber":50,"Velocity":31,"Duration":237155,"SoundDuration":237155,"Delta":197780228},{"NoteNumber":48,"Velocity":39,"Duration":236465,"SoundDuration":236465,"Delta":198017383},{"NoteNumber":46,"Velocity":34,"Duration":242204,"SoundDuration":242204,"Delta":198253848},{"NoteNumber":44,"Velocity":44,"Duration":235322,"SoundDuration":235322,"Delta":198496053},{"NoteNumber":46,"Velocity":37,"Duration":234378,"SoundDuration":234378,"Delta":198731376},{"NoteNumber":44,"Velocity":42,"Duration":234375,"SoundDuration":234375,"Delta":198965755},{"NoteNumber":46,"Velocity":37,"Duration":241225,"SoundDuration":241225,"Delta":199200130},{"NoteNumber":44,"Velocity":45,"Duration":237414,"SoundDuration":237414,"Delta":199441355},{"NoteNumber":43,"Velocity":42,"Duration":243186,"SoundDuration":243186,"Delta":199678769},{"NoteNumber":56,"Velocity":50,"Duration":493811,"SoundDuration":493811,"Delta":199921956},{"NoteNumber":60,"Velocity":59,"Duration":493811,"SoundDuration":493811,"Delta":199921956},{"NoteNumber":41,"Velocity":50,"Duration":3372043,"SoundDuration":3372043,"Delta":199921956},{"NoteNumber":60,"Velocity":45,"Duration":510638,"SoundDuration":510638,"Delta":200415767},{"NoteNumber":63,"Velocity":54,"Duration":510638,"SoundDuration":510638,"Delta":200415767},{"NoteNumber":58,"Velocity":38,"Duration":526316,"SoundDuration":526316,"Delta":200926405},{"NoteNumber":62,"Velocity":46,"Duration":526316,"SoundDuration":526316,"Delta":200926405},{"NoteNumber":56,"Velocity":41,"Duration":563379,"SoundDuration":563379,"Delta":201452721},{"NoteNumber":60,"Velocity":49,"Duration":563379,"SoundDuration":563379,"Delta":201452721},{"NoteNumber":58,"Velocity":31,"Duration":618557,"SoundDuration":618557,"Delta":202016101},{"NoteNumber":62,"Velocity":41,"Duration":618557,"SoundDuration":618557,"Delta":202016101},{"NoteNumber":58,"Velocity":41,"Duration":659341,"SoundDuration":659341,"Delta":202634658},{"NoteNumber":50,"Velocity":37,"Duration":659341,"SoundDuration":659341,"Delta":202634658},{"NoteNumber":36,"Velocity":28,"Duration":2057141,"SoundDuration":2057141,"Delta":203293999},{"NoteNumber":51,"Velocity":32,"Duration":2057141,"SoundDuration":2057141,"Delta":203293999},{"NoteNumber":55,"Velocity":38,"Duration":2057141,"SoundDuration":2057141,"Delta":203293999},{"NoteNumber":75,"Velocity":39,"Duration":2057141,"SoundDuration":2057141,"Delta":205351141},{"NoteNumber":79,"Velocity":44,"Duration":2057141,"SoundDuration":2057141,"Delta":205351141},{"NoteNumber":67,"Velocity":29,"Duration":2057141,"SoundDuration":2057141,"Delta":205351141},{"NoteNumber":60,"Velocity":25,"Duration":2057141,"SoundDuration":2057141,"Delta":205351141}],"license":{"name":"Creative Commons Attribution-ShareAlike 3.0 Germany","url":"http://creativecommons.org/licenses/by-sa/3.0/de/deed.en","text":"The MIDI, audio (MP3, OGG) and video files of Bernd Krueger are licensed under the cc-by-sa Germany License. This means that you can use and adapt the files, as long as you attribute the copyright holder.\n\nName: Bernd Krueger\nSource: http://www.piano-midi.de\n\nThe distribution or public playback of the files is only allowed under identical license conditions.\n\nThe scores are open source.","attribution":"MIDI files by Bernd Krueger (piano-midi.de)"}}