{"title":"Prelude No. 2 Op. 23","artist":"Piano","durationMs":187628,"midiSha256":"4dcc8b1aca75cb710e3e5b24e13d924fb96dd076e524f9dc3764b8ee3f7bd497","midiObject":[{"NoteNumber":22,"Velocity":76,"Duration":136520,"SoundDuration":136520,"Delta":0},{"NoteNumber":34,"Velocity":85,"Duration":136520,"SoundDuration":136520,"Delta":0},{"NoteNumber":41,"Velocity":57,"Duration":134231,"SoundDuration":134231,"Delta":136520},{"NoteNumber":46,"Velocity":58,"Duration":132235,"SoundDuration":132235,"Delta":270751},{"NoteNumber":50,"Velocity":60,"Duration":130085,"SoundDuration":130085,"Delta":402987},{"NoteNumber":52,"Velocity":62,"Duration":128207,"SoundDuration":128207,"Delta":533072},{"NoteNumber":53,"Velocity":63,"Duration":126184,"SoundDuration":126184,"Delta":661279},{"NoteNumber":62,"Velocity":64,"Duration":125000,"SoundDuration":125000,"Delta":787464},{"NoteNumber":58,"Velocity":64,"Duration":125000,"SoundDuration":125000,"Delta":787464},{"NoteNumber":55,"Velocity":63,"Duration":125393,"SoundDuration":125393,"Delta":912464},{"NoteNumber":53,"Velocity":62,"Duration":125786,"SoundDuration":125786,"Delta":1037857},{"NoteNumber":50,"Velocity":60,"Duration":125786,"SoundDuration":125786,"Delta":1163643},{"NoteNumber":46,"Velocity":58,"Duration":125786,"SoundDuration":125786,"Delta":1289429},{"NoteNumber":41,"Velocity":57,"Duration":125786,"SoundDuration":125786,"Delta":1415215},{"NoteNumber":34,"Velocity":56,"Duration":125786,"SoundDuration":125786,"Delta":1541001},{"NoteNumber":41,"Velocity":57,"Duration":125786,"SoundDuration":125786,"Delta":1666788},{"NoteNumber":46,"Velocity":58,"Duration":125786,"SoundDuration":125786,"Delta":1792574},{"NoteNumber":50,"Velocity":60,"Duration":125786,"SoundDuration":125786,"Delta":1918360},{"NoteNumber":52,"Velocity":62,"Duration":125786,"SoundDuration":125786,"Delta":2044146},{"NoteNumber":53,"Velocity":63,"Duration":125786,"SoundDuration":125786,"Delta":2169932},{"NoteNumber":62,"Velocity":64,"Duration":123683,"SoundDuration":123683,"Delta":2295718},{"NoteNumber":58,"Velocity":64,"Duration":123683,"SoundDuration":123683,"Delta":2295718},{"NoteNumber":55,"Velocity":64,"Duration":123844,"SoundDuration":123844,"Delta":2419402},{"NoteNumber":53,"Velocity":63,"Duration":126990,"SoundDuration":126990,"Delta":2543247},{"NoteNumber":50,"Velocity":61,"Duration":130300,"SoundDuration":130300,"Delta":2670238},{"NoteNumber":46,"Velocity":59,"Duration":133786,"SoundDuration":133786,"Delta":2800538},{"NoteNumber":41,"Velocity":57,"Duration":137704,"SoundDuration":137704,"Delta":2934325},{"NoteNumber":22,"Velocity":76,"Duration":138409,"SoundDuration":138409,"Delta":3072029},{"NoteNumber":34,"Velocity":85,"Duration":138409,"SoundDuration":138409,"Delta":3072029},{"NoteNumber":41,"Velocity":57,"Duration":136057,"SoundDuration":136057,"Delta":3210439},{"NoteNumber":46,"Velocity":58,"Duration":133780,"SoundDuration":133780,"Delta":3346497},{"NoteNumber":50,"Velocity":60,"Duration":131581,"SoundDuration":131581,"Delta":3480278},{"NoteNumber":52,"Velocity":61,"Duration":129451,"SoundDuration":129451,"Delta":3611860},{"NoteNumber":53,"Velocity":63,"Duration":127391,"SoundDuration":127391,"Delta":3741311},{"NoteNumber":62,"Velocity":64,"Duration":125786,"SoundDuration":125786,"Delta":3868702},{"NoteNumber":58,"Velocity":64,"Duration":125786,"SoundDuration":125786,"Delta":3868702},{"NoteNumber":55,"Velocity":63,"Duration":126383,"SoundDuration":126383,"Delta":3994488},{"NoteNumber":53,"Velocity":62,"Duration":126582,"SoundDuration":126582,"Delta":4120871},{"NoteNumber":50,"Velocity":60,"Duration":126582,"SoundDuration":126582,"Delta":4247454},{"NoteNumber":46,"Velocity":58,"Duration":126582,"SoundDuration":126582,"Delta":4374036},{"NoteNumber":41,"Velocity":57,"Duration":126582,"SoundDuration":126582,"Delta":4500618},{"NoteNumber":34,"Velocity":56,"Duration":126582,"SoundDuration":126582,"Delta":4627201},{"NoteNumber":41,"Velocity":57,"Duration":126582,"SoundDuration":126582,"Delta":4753783},{"NoteNumber":46,"Velocity":59,"Duration":126582,"SoundDuration":126582,"Delta":4880365},{"NoteNumber":50,"Velocity":61,"Duration":126582,"SoundDuration":126582,"Delta":5006948},{"NoteNumber":52,"Velocity":63,"Duration":126582,"SoundDuration":126582,"Delta":5133530},{"NoteNumber":53,"Velocity":64,"Duration":125985,"SoundDuration":125985,"Delta":5260112},{"NoteNumber":62,"Velocity":64,"Duration":124427,"SoundDuration":124427,"Delta":5386098},{"NoteNumber":58,"Velocity":64,"Duration":124427,"SoundDuration":124427,"Delta":5386098},{"NoteNumber":55,"Velocity":63,"Duration":127000,"SoundDuration":127000,"Delta":5510525},{"NoteNumber":53,"Velocity":62,"Duration":132031,"SoundDuration":132031,"Delta":5637526},{"NoteNumber":50,"Velocity":60,"Duration":137478,"SoundDuration":137478,"Delta":5769558},{"NoteNumber":46,"Velocity":58,"Duration":143393,"SoundDuration":143393,"Delta":5907036},{"NoteNumber":41,"Velocity":57,"Duration":149840,"SoundDuration":149840,"Delta":6050429},{"NoteNumber":22,"Velocity":76,"Duration":125000,"SoundDuration":125000,"Delta":6200269},{"NoteNumber":34,"Velocity":87,"Duration":125000,"SoundDuration":125000,"Delta":6200269},{"NoteNumber":41,"Velocity":57,"Duration":125000,"SoundDuration":125000,"Delta":6325269},{"NoteNumber":46,"Velocity":58,"Duration":125000,"SoundDuration":125000,"Delta":6450269},{"NoteNumber":50,"Velocity":60,"Duration":125000,"SoundDuration":125000,"Delta":6575269},{"NoteNumber":52,"Velocity":62,"Duration":129614,"SoundDuration":129614,"Delta":6700269},{"NoteNumber":70,"Velocity":81,"Duration":201342,"SoundDuration":201342,"Delta":6762769},{"NoteNumber":82,"Velocity":91,"Duration":201342,"SoundDuration":201342,"Delta":6762769},{"NoteNumber":53,"Velocity":63,"Duration":134228,"SoundDuration":134228,"Delta":6829883},{"NoteNumber":74,"Velocity":75,"Duration":1340184,"SoundDuration":1340184,"Delta":6964111},{"NoteNumber":77,"Velocity":84,"Duration":1340184,"SoundDuration":1340184,"Delta":6964111},{"NoteNumber":62,"Velocity":64,"Duration":134228,"SoundDuration":134228,"Delta":6964111},{"NoteNumber":58,"Velocity":64,"Duration":134228,"SoundDuration":134228,"Delta":6964111},{"NoteNumber":55,"Velocity":63,"Duration":134228,"SoundDuration":134228,"Delta":7098339},{"NoteNumber":53,"Velocity":63,"Duration":134228,"SoundDuration":134228,"Delta":7232567},{"NoteNumber":50,"Velocity":61,"Duration":125000,"SoundDuration":125000,"Delta":7366796},{"NoteNumber":46,"Velocity":59,"Duration":125000,"SoundDuration":125000,"Delta":7491796},{"NoteNumber":41,"Velocity":58,"Duration":125000,"SoundDuration":125000,"Delta":7616796},{"NoteNumber":34,"Velocity":56,"Duration":125000,"SoundDuration":125000,"Delta":7741796},{"NoteNumber":41,"Velocity":57,"Duration":125000,"SoundDuration":125000,"Delta":7866796},{"NoteNumber":46,"Velocity":59,"Duration":125000,"SoundDuration":125000,"Delta":7991796},{"NoteNumber":50,"Velocity":61,"Duration":125000,"SoundDuration":125000,"Delta":8116796},{"NoteNumber":52,"Velocity":63,"Duration":126194,"SoundDuration":126194,"Delta":8241796},{"NoteNumber":70,"Velocity":75,"Duration":191082,"SoundDuration":191082,"Delta":8304296},{"NoteNumber":82,"Velocity":84,"Duration":191082,"SoundDuration":191082,"Delta":8304296},{"NoteNumber":53,"Velocity":64,"Duration":127388,"SoundDuration":127388,"Delta":8367990},{"NoteNumber":74,"Velocity":69,"Duration":127388,"SoundDuration":127388,"Delta":8495378},{"NoteNumber":77,"Velocity":77,"Duration":127388,"SoundDuration":127388,"Delta":8495378},{"NoteNumber":62,"Velocity":64,"Duration":127388,"SoundDuration":127388,"Delta":8495378},{"NoteNumber":58,"Velocity":64,"Duration":127388,"SoundDuration":127388,"Delta":8495378},{"NoteNumber":69,"Velocity":70,"Duration":127388,"SoundDuration":127388,"Delta":8622767},{"NoteNumber":81,"Velocity":78,"Duration":127388,"SoundDuration":127388,"Delta":8622767},{"NoteNumber":53,"Velocity":64,"Duration":127388,"SoundDuration":127388,"Delta":8622767},{"NoteNumber":70,"Velocity":71,"Duration":127388,"SoundDuration":127388,"Delta":8750155},{"NoteNumber":74,"Velocity":79,"Duration":127388,"SoundDuration":127388,"Delta":8750155},{"NoteNumber":50,"Velocity":63,"Duration":127388,"SoundDuration":127388,"Delta":8750155},{"NoteNumber":67,"Velocity":72,"Duration":127388,"SoundDuration":127388,"Delta":8877544},{"NoteNumber":79,"Velocity":81,"Duration":127388,"SoundDuration":127388,"Delta":8877544},{"NoteNumber":46,"Velocity":62,"Duration":127388,"SoundDuration":127388,"Delta":8877544},{"NoteNumber":70,"Velocity":72,"Duration":127388,"SoundDuration":127388,"Delta":9004932},{"NoteNumber":74,"Velocity":81,"Duration":127388,"SoundDuration":127388,"Delta":9004932},{"NoteNumber":41,"Velocity":60,"Duration":127388,"SoundDuration":127388,"Delta":9004932},{"NoteNumber":65,"Velocity":72,"Duration":127388,"SoundDuration":127388,"Delta":9132321},{"NoteNumber":77,"Velocity":81,"Duration":127388,"SoundDuration":127388,"Delta":9132321},{"NoteNumber":34,"Velocity":58,"Duration":252388,"SoundDuration":252388,"Delta":9132321},{"NoteNumber":70,"Velocity":90,"Duration":618750,"SoundDuration":618750,"Delta":9259709},{"NoteNumber":74,"Velocity":90,"Duration":618750,"SoundDuration":618750,"Delta":9259709},{"NoteNumber":41,"Velocity":56,"Duration":125000,"SoundDuration":125000,"Delta":9384709},{"NoteNumber":46,"Velocity":57,"Duration":125000,"SoundDuration":125000,"Delta":9509709},{"NoteNumber":50,"Velocity":59,"Duration":125000,"SoundDuration":125000,"Delta":9634709},{"NoteNumber":52,"Velocity":61,"Duration":125000,"SoundDuration":125000,"Delta":9759709},{"NoteNumber":74,"Velocity":84,"Duration":112500,"SoundDuration":112500,"Delta":9884709},{"NoteNumber":70,"Velocity":84,"Duration":112500,"SoundDuration":112500,"Delta":9884709},{"NoteNumber":53,"Velocity":63,"Duration":125000,"SoundDuration":125000,"Delta":9884709},{"NoteNumber":70,"Velocity":89,"Duration":562500,"SoundDuration":562500,"Delta":10009709},{"NoteNumber":74,"Velocity":89,"Duration":562500,"SoundDuration":562500,"Delta":10009709},{"NoteNumber":62,"Velocity":64,"Duration":125000,"SoundDuration":125000,"Delta":10009709},{"NoteNumber":58,"Velocity":64,"Duration":125000,"SoundDuration":125000,"Delta":10009709},{"NoteNumber":55,"Velocity":63,"Duration":125000,"SoundDuration":125000,"Delta":10134709},{"NoteNumber":53,"Velocity":62,"Duration":125000,"SoundDuration":125000,"Delta":10259709},{"NoteNumber":50,"Velocity":61,"Duration":125000,"SoundDuration":125000,"Delta":10384709},{"NoteNumber":46,"Velocity":59,"Duration":125000,"SoundDuration":125000,"Delta":10509709},{"NoteNumber":53,"Velocity":66,"Duration":168749,"SoundDuration":168749,"Delta":10572209},{"NoteNumber":58,"Velocity":66,"Duration":168749,"SoundDuration":168749,"Delta":10572209},{"NoteNumber":62,"Velocity":74,"Duration":168749,"SoundDuration":168749,"Delta":10572209},{"NoteNumber":65,"Velocity":74,"Duration":168749,"SoundDuration":168749,"Delta":10572209},{"NoteNumber":41,"Velocity":58,"Duration":125000,"SoundDuration":125000,"Delta":10634709},{"NoteNumber":53,"Velocity":66,"Duration":117469,"SoundDuration":117469,"Delta":10759709},{"NoteNumber":58,"Velocity":66,"Duration":120482,"SoundDuration":120482,"Delta":10759709},{"NoteNumber":62,"Velocity":74,"Duration":120482,"SoundDuration":120482,"Delta":10759709},{"NoteNumber":65,"Velocity":74,"Duration":120482,"SoundDuration":120482,"Delta":10759709},{"NoteNumber":34,"Velocity":57,"Duration":120482,"SoundDuration":120482,"Delta":10759709},{"NoteNumber":41,"Velocity":57,"Duration":120482,"SoundDuration":120482,"Delta":10759709},{"NoteNumber":70,"Velocity":74,"Duration":120481,"SoundDuration":120481,"Delta":10880191},{"NoteNumber":46,"Velocity":57,"Duration":120481,"SoundDuration":120481,"Delta":10880191},{"NoteNumber":74,"Velocity":74,"Duration":117469,"SoundDuration":117469,"Delta":11000673},{"NoteNumber":50,"Velocity":58,"Duration":120482,"SoundDuration":120482,"Delta":11000673},{"NoteNumber":65,"Velocity":76,"Duration":694779,"SoundDuration":694779,"Delta":11121155},{"NoteNumber":70,"Velocity":76,"Duration":917001,"SoundDuration":917001,"Delta":11121155},{"NoteNumber":74,"Velocity":85,"Duration":917001,"SoundDuration":917001,"Delta":11121155},{"NoteNumber":77,"Velocity":85,"Duration":917001,"SoundDuration":917001,"Delta":11121155},{"NoteNumber":53,"Velocity":59,"Duration":120481,"SoundDuration":120481,"Delta":11121155},{"NoteNumber":46,"Velocity":60,"Duration":120482,"SoundDuration":120482,"Delta":11241637},{"NoteNumber":50,"Velocity":61,"Duration":120481,"SoundDuration":120481,"Delta":11362119},{"NoteNumber":53,"Velocity":62,"Duration":111111,"SoundDuration":111111,"Delta":11482601},{"NoteNumber":58,"Velocity":63,"Duration":111111,"SoundDuration":111111,"Delta":11593713},{"NoteNumber":62,"Velocity":63,"Duration":111111,"SoundDuration":111111,"Delta":11704824},{"NoteNumber":65,"Velocity":64,"Duration":222222,"SoundDuration":222222,"Delta":11815935},{"NoteNumber":67,"Velocity":55,"Duration":129870,"SoundDuration":129870,"Delta":12038157},{"NoteNumber":70,"Velocity":55,"Duration":129870,"SoundDuration":129870,"Delta":12038157},{"NoteNumber":75,"Velocity":62,"Duration":129870,"SoundDuration":129870,"Delta":12038157},{"NoteNumber":79,"Velocity":62,"Duration":129870,"SoundDuration":129870,"Delta":12038157},{"NoteNumber":55,"Velocity":54,"Duration":129870,"SoundDuration":129870,"Delta":12038157},{"NoteNumber":58,"Velocity":54,"Duration":129870,"SoundDuration":129870,"Delta":12038157},{"NoteNumber":63,"Velocity":54,"Duration":129870,"SoundDuration":129870,"Delta":12038157},{"NoteNumber":77,"Velocity":92,"Duration":562500,"SoundDuration":562500,"Delta":12168027},{"NoteNumber":74,"Velocity":92,"Duration":562500,"SoundDuration":562500,"Delta":12168027},{"NoteNumber":70,"Velocity":82,"Duration":562500,"SoundDuration":562500,"Delta":12168027},{"NoteNumber":65,"Velocity":82,"Duration":562500,"SoundDuration":562500,"Delta":12168027},{"NoteNumber":22,"Velocity":50,"Duration":125000,"SoundDuration":125000,"Delta":12168027},{"NoteNumber":34,"Velocity":56,"Duration":125000,"SoundDuration":125000,"Delta":12168027},{"NoteNumber":41,"Velocity":57,"Duration":125000,"SoundDuration":125000,"Delta":12293027},{"NoteNumber":46,"Velocity":58,"Duration":125000,"SoundDuration":125000,"Delta":12418027},{"NoteNumber":50,"Velocity":60,"Duration":125000,"SoundDuration":125000,"Delta":12543027},{"NoteNumber":52,"Velocity":62,"Duration":125000,"SoundDuration":125000,"Delta":12668027},{"NoteNumber":70,"Velocity":86,"Duration":187500,"SoundDuration":187500,"Delta":12730527},{"NoteNumber":82,"Velocity":96,"Duration":187500,"SoundDuration":187500,"Delta":12730527},{"NoteNumber":53,"Velocity":63,"Duration":125000,"SoundDuration":125000,"Delta":12793027},{"NoteNumber":74,"Velocity":75,"Duration":1312500,"SoundDuration":1312500,"Delta":12918027},{"NoteNumber":77,"Velocity":84,"Duration":1312500,"SoundDuration":1312500,"Delta":12918027},{"NoteNumber":62,"Velocity":64,"Duration":125000,"SoundDuration":125000,"Delta":12918027},{"NoteNumber":58,"Velocity":64,"Duration":125000,"SoundDuration":125000,"Delta":12918027},{"NoteNumber":55,"Velocity":63,"Duration":125000,"SoundDuration":125000,"Delta":13043027},{"NoteNumber":53,"Velocity":63,"Duration":125000,"SoundDuration":125000,"Delta":13168027},{"NoteNumber":50,"Velocity":61,"Duration":125000,"SoundDuration":125000,"Delta":13293027},{"NoteNumber":46,"Velocity":59,"Duration":125000,"SoundDuration":125000,"Delta":13418027},{"NoteNumber":41,"Velocity":58,"Duration":125000,"SoundDuration":125000,"Delta":13543027},{"NoteNumber":34,"Velocity":56,"Duration":125000,"SoundDuration":125000,"Delta":13668027},{"NoteNumber":41,"Velocity":57,"Duration":125000,"SoundDuration":125000,"Delta":13793027},{"NoteNumber":46,"Velocity":59,"Duration":125000,"SoundDuration":125000,"Delta":13918027},{"NoteNumber":50,"Velocity":61,"Duration":125000,"SoundDuration":125000,"Delta":14043027},{"NoteNumber":52,"Velocity":63,"Duration":125000,"SoundDuration":125000,"Delta":14168027},{"NoteNumber":70,"Velocity":75,"Duration":187500,"SoundDuration":187500,"Delta":14230527},{"NoteNumber":82,"Velocity":84,"Duration":187500,"SoundDuration":187500,"Delta":14230527},{"NoteNumber":53,"Velocity":64,"Duration":125000,"SoundDuration":125000,"Delta":14293027},{"NoteNumber":74,"Velocity":75,"Duration":129032,"SoundDuration":129032,"Delta":14418027},{"NoteNumber":77,"Velocity":84,"Duration":129032,"SoundDuration":129032,"Delta":14418027},{"NoteNumber":62,"Velocity":64,"Duration":129032,"SoundDuration":129032,"Delta":14418027},{"NoteNumber":58,"Velocity":64,"Duration":129032,"SoundDuration":129032,"Delta":14418027},{"NoteNumber":69,"Velocity":79,"Duration":129032,"SoundDuration":129032,"Delta":14547060},{"NoteNumber":81,"Velocity":79,"Duration":129032,"SoundDuration":129032,"Delta":14547060},{"NoteNumber":53,"Velocity":64,"Duration":129032,"SoundDuration":129032,"Delta":14547060},{"NoteNumber":70,"Velocity":62,"Duration":114942,"SoundDuration":114942,"Delta":14676092},{"NoteNumber":74,"Velocity":62,"Duration":114942,"SoundDuration":114942,"Delta":14676092},{"NoteNumber":50,"Velocity":63,"Duration":114942,"SoundDuration":114942,"Delta":14676092},{"NoteNumber":67,"Velocity":62,"Duration":114942,"SoundDuration":114942,"Delta":14791035},{"NoteNumber":79,"Velocity":62,"Duration":114942,"SoundDuration":114942,"Delta":14791035},{"NoteNumber":46,"Velocity":62,"Duration":114942,"SoundDuration":114942,"Delta":14791035},{"NoteNumber":70,"Velocity":62,"Duration":114942,"SoundDuration":114942,"Delta":14905977},{"NoteNumber":74,"Velocity":62,"Duration":114942,"SoundDuration":114942,"Delta":14905977},{"NoteNumber":41,"Velocity":60,"Duration":114942,"SoundDuration":114942,"Delta":14905977},{"NoteNumber":65,"Velocity":62,"Duration":114942,"SoundDuration":114942,"Delta":15020920},{"NoteNumber":77,"Velocity":62,"Duration":114942,"SoundDuration":114942,"Delta":15020920},{"NoteNumber":34,"Velocity":58,"Duration":239942,"SoundDuration":239942,"Delta":15020920},{"NoteNumber":70,"Velocity":81,"Duration":371874,"SoundDuration":371874,"Delta":15135862},{"NoteNumber":74,"Velocity":81,"Duration":371874,"SoundDuration":371874,"Delta":15135862},{"NoteNumber":41,"Velocity":56,"Duration":125000,"SoundDuration":125000,"Delta":15260862},{"NoteNumber":46,"Velocity":57,"Duration":125000,"SoundDuration":125000,"Delta":15385862},{"NoteNumber":70,"Velocity":57,"Duration":103448,"SoundDuration":103448,"Delta":15510862},{"NoteNumber":74,"Velocity":57,"Duration":103448,"SoundDuration":103448,"Delta":15510862},{"NoteNumber":50,"Velocity":59,"Duration":114942,"SoundDuration":114942,"Delta":15510862},{"NoteNumber":70,"Velocity":57,"Duration":103448,"SoundDuration":103448,"Delta":15625805},{"NoteNumber":74,"Velocity":57,"Duration":103448,"SoundDuration":103448,"Delta":15625805},{"NoteNumber":52,"Velocity":61,"Duration":114942,"SoundDuration":114942,"Delta":15625805},{"NoteNumber":70,"Velocity":57,"Duration":103448,"SoundDuration":103448,"Delta":15740747},{"NoteNumber":74,"Velocity":57,"Duration":103448,"SoundDuration":103448,"Delta":15740747},{"NoteNumber":53,"Velocity":63,"Duration":114942,"SoundDuration":114942,"Delta":15740747},{"NoteNumber":70,"Velocity":87,"Duration":562500,"SoundDuration":562500,"Delta":15855690},{"NoteNumber":74,"Velocity":87,"Duration":562500,"SoundDuration":562500,"Delta":15855690},{"NoteNumber":62,"Velocity":64,"Duration":125000,"SoundDuration":125000,"Delta":15855690},{"NoteNumber":58,"Velocity":64,"Duration":125000,"SoundDuration":125000,"Delta":15855690},{"NoteNumber":55,"Velocity":63,"Duration":125000,"SoundDuration":125000,"Delta":15980690},{"NoteNumber":53,"Velocity":62,"Duration":125000,"SoundDuration":125000,"Delta":16105690},{"NoteNumber":50,"Velocity":61,"Duration":125000,"SoundDuration":125000,"Delta":16230690},{"NoteNumber":46,"Velocity":59,"Duration":125000,"SoundDuration":125000,"Delta":16355690},{"NoteNumber":53,"Velocity":68,"Duration":168749,"SoundDuration":168749,"Delta":16418190},{"NoteNumber":58,"Velocity":68,"Duration":168749,"SoundDuration":168749,"Delta":16418190},{"NoteNumber":62,"Velocity":76,"Duration":168749,"SoundDuration":168749,"Delta":16418190},{"NoteNumber":65,"Velocity":76,"Duration":168749,"SoundDuration":168749,"Delta":16418190},{"NoteNumber":41,"Velocity":58,"Duration":125000,"SoundDuration":125000,"Delta":16480690},{"NoteNumber":53,"Velocity":65,"Duration":120481,"SoundDuration":120481,"Delta":16605690},{"NoteNumber":58,"Velocity":65,"Duration":120481,"SoundDuration":120481,"Delta":16605690},{"NoteNumber":62,"Velocity":73,"Duration":120481,"SoundDuration":120481,"Delta":16605690},{"NoteNumber":65,"Velocity":73,"Duration":120481,"SoundDuration":120481,"Delta":16605690},{"NoteNumber":34,"Velocity":57,"Duration":120481,"SoundDuration":120481,"Delta":16605690},{"NoteNumber":41,"Velocity":57,"Duration":120481,"SoundDuration":120481,"Delta":16605690},{"NoteNumber":70,"Velocity":59,"Duration":120482,"SoundDuration":120482,"Delta":16726172},{"NoteNumber":46,"Velocity":57,"Duration":120482,"SoundDuration":120482,"Delta":16726172},{"NoteNumber":74,"Velocity":59,"Duration":120481,"SoundDuration":120481,"Delta":16846654},{"NoteNumber":50,"Velocity":58,"Duration":120481,"SoundDuration":120481,"Delta":16846654},{"NoteNumber":65,"Velocity":76,"Duration":736446,"SoundDuration":736446,"Delta":16967136},{"NoteNumber":70,"Velocity":76,"Duration":986446,"SoundDuration":986446,"Delta":16967136},{"NoteNumber":74,"Velocity":85,"Duration":986446,"SoundDuration":986446,"Delta":16967136},{"NoteNumber":77,"Velocity":85,"Duration":986446,"SoundDuration":986446,"Delta":16967136},{"NoteNumber":53,"Velocity":59,"Duration":120481,"SoundDuration":120481,"Delta":16967136},{"NoteNumber":46,"Velocity":60,"Duration":120481,"SoundDuration":120481,"Delta":17087618},{"NoteNumber":50,"Velocity":61,"Duration":120482,"SoundDuration":120482,"Delta":17208100},{"NoteNumber":53,"Velocity":62,"Duration":125000,"SoundDuration":125000,"Delta":17328582},{"NoteNumber":58,"Velocity":63,"Duration":125000,"SoundDuration":125000,"Delta":17453582},{"NoteNumber":62,"Velocity":63,"Duration":125000,"SoundDuration":125000,"Delta":17578582},{"NoteNumber":65,"Velocity":64,"Duration":250000,"SoundDuration":250000,"Delta":17703582},{"NoteNumber":67,"Velocity":69,"Duration":125000,"SoundDuration":125000,"Delta":17953582},{"NoteNumber":70,"Velocity":69,"Duration":125000,"SoundDuration":125000,"Delta":17953582},{"NoteNumber":74,"Velocity":77,"Duration":125000,"SoundDuration":125000,"Delta":17953582},{"NoteNumber":79,"Velocity":77,"Duration":125000,"SoundDuration":125000,"Delta":17953582},{"NoteNumber":55,"Velocity":62,"Duration":125000,"SoundDuration":125000,"Delta":17953582},{"NoteNumber":58,"Velocity":62,"Duration":125000,"SoundDuration":125000,"Delta":17953582},{"NoteNumber":62,"Velocity":62,"Duration":125000,"SoundDuration":125000,"Delta":17953582},{"NoteNumber":74,"Velocity":87,"Duration":625000,"SoundDuration":625000,"Delta":18078582},{"NoteNumber":65,"Velocity":78,"Duration":625000,"SoundDuration":625000,"Delta":18078582},{"NoteNumber":69,"Velocity":78,"Duration":625000,"SoundDuration":625000,"Delta":18078582},{"NoteNumber":77,"Velocity":87,"Duration":625000,"SoundDuration":625000,"Delta":18078582},{"NoteNumber":38,"Velocity":58,"Duration":125000,"SoundDuration":125000,"Delta":18078582},{"NoteNumber":45,"Velocity":58,"Duration":125000,"SoundDuration":125000,"Delta":18078582},{"NoteNumber":50,"Velocity":59,"Duration":125000,"SoundDuration":125000,"Delta":18203582},{"NoteNumber":53,"Velocity":61,"Duration":125000,"SoundDuration":125000,"Delta":18328582},{"NoteNumber":57,"Velocity":62,"Duration":125000,"SoundDuration":125000,"Delta":18453582},{"NoteNumber":56,"Velocity":63,"Duration":125000,"SoundDuration":125000,"Delta":18578582},{"NoteNumber":86,"Velocity":86,"Duration":125000,"SoundDuration":125000,"Delta":18703582},{"NoteNumber":74,"Velocity":86,"Duration":125000,"SoundDuration":125000,"Delta":18703582},{"NoteNumber":57,"Velocity":64,"Duration":125000,"SoundDuration":125000,"Delta":18703582},{"NoteNumber":81,"Velocity":86,"Duration":116278,"SoundDuration":116278,"Delta":18828582},{"NoteNumber":77,"Velocity":86,"Duration":116278,"SoundDuration":116278,"Delta":18828582},{"NoteNumber":84,"Velocity":61,"Duration":116279,"SoundDuration":116279,"Delta":18944861},{"NoteNumber":72,"Velocity":61,"Duration":116279,"SoundDuration":116279,"Delta":18944861},{"NoteNumber":65,"Velocity":61,"Duration":116279,"SoundDuration":116279,"Delta":18944861},{"NoteNumber":77,"Velocity":59,"Duration":116278,"SoundDuration":116278,"Delta":19061140},{"NoteNumber":74,"Velocity":59,"Duration":116278,"SoundDuration":116278,"Delta":19061140},{"NoteNumber":62,"Velocity":58,"Duration":116278,"SoundDuration":116278,"Delta":19061140},{"NoteNumber":82,"Velocity":60,"Duration":116278,"SoundDuration":116278,"Delta":19177419},{"NoteNumber":70,"Velocity":60,"Duration":116278,"SoundDuration":116278,"Delta":19177419},{"NoteNumber":53,"Velocity":56,"Duration":110465,"SoundDuration":110465,"Delta":19177419},{"NoteNumber":74,"Velocity":60,"Duration":116279,"SoundDuration":116279,"Delta":19293698},{"NoteNumber":77,"Velocity":60,"Duration":116279,"SoundDuration":116279,"Delta":19293698},{"NoteNumber":53,"Velocity":54,"Duration":116279,"SoundDuration":116279,"Delta":19293698},{"NoteNumber":81,"Velocity":60,"Duration":116278,"SoundDuration":116278,"Delta":19409977},{"NoteNumber":69,"Velocity":60,"Duration":116278,"SoundDuration":116278,"Delta":19409977},{"NoteNumber":50,"Velocity":53,"Duration":116278,"SoundDuration":116278,"Delta":19409977},{"NoteNumber":72,"Velocity":74,"Duration":625000,"SoundDuration":625000,"Delta":19526256},{"NoteNumber":77,"Velocity":74,"Duration":625000,"SoundDuration":625000,"Delta":19526256},{"NoteNumber":41,"Velocity":50,"Duration":125000,"SoundDuration":125000,"Delta":19526256},{"NoteNumber":48,"Velocity":50,"Duration":125000,"SoundDuration":125000,"Delta":19526256},{"NoteNumber":53,"Velocity":49,"Duration":125000,"SoundDuration":125000,"Delta":19651256},{"NoteNumber":57,"Velocity":51,"Duration":125000,"SoundDuration":125000,"Delta":19776256},{"NoteNumber":60,"Velocity":53,"Duration":125000,"SoundDuration":125000,"Delta":19901256},{"NoteNumber":59,"Velocity":55,"Duration":125000,"SoundDuration":125000,"Delta":20026256},{"NoteNumber":69,"Velocity":76,"Duration":125000,"SoundDuration":125000,"Delta":20151256},{"NoteNumber":81,"Velocity":76,"Duration":125000,"SoundDuration":125000,"Delta":20151256},{"NoteNumber":60,"Velocity":57,"Duration":125000,"SoundDuration":125000,"Delta":20151256},{"NoteNumber":72,"Velocity":76,"Duration":375000,"SoundDuration":375000,"Delta":20276256},{"NoteNumber":77,"Velocity":76,"Duration":375000,"SoundDuration":375000,"Delta":20276256},{"NoteNumber":60,"Velocity":56,"Duration":125000,"SoundDuration":125000,"Delta":20401256},{"NoteNumber":57,"Velocity":55,"Duration":121874,"SoundDuration":121874,"Delta":20526256},{"NoteNumber":57,"Velocity":53,"Duration":105263,"SoundDuration":105263,"Delta":20651256},{"NoteNumber":65,"Velocity":59,"Duration":105263,"SoundDuration":105263,"Delta":20651256},{"NoteNumber":69,"Velocity":59,"Duration":105263,"SoundDuration":105263,"Delta":20651256},{"NoteNumber":53,"Velocity":54,"Duration":116959,"SoundDuration":116959,"Delta":20651256},{"NoteNumber":57,"Velocity":52,"Duration":105263,"SoundDuration":105263,"Delta":20768215},{"NoteNumber":65,"Velocity":58,"Duration":105263,"SoundDuration":105263,"Delta":20768215},{"NoteNumber":69,"Velocity":58,"Duration":105263,"SoundDuration":105263,"Delta":20768215},{"NoteNumber":48,"Velocity":54,"Duration":116958,"SoundDuration":116958,"Delta":20768215},{"NoteNumber":57,"Velocity":52,"Duration":105263,"SoundDuration":105263,"Delta":20885174},{"NoteNumber":65,"Velocity":58,"Duration":105263,"SoundDuration":105263,"Delta":20885174},{"NoteNumber":69,"Velocity":58,"Duration":105263,"SoundDuration":105263,"Delta":20885174},{"NoteNumber":46,"Velocity":53,"Duration":116959,"SoundDuration":116959,"Delta":20885174},{"NoteNumber":57,"Velocity":66,"Duration":625000,"SoundDuration":625000,"Delta":21002133},{"NoteNumber":65,"Velocity":74,"Duration":625000,"SoundDuration":625000,"Delta":21002133},{"NoteNumber":69,"Velocity":74,"Duration":625000,"SoundDuration":625000,"Delta":21002133},{"NoteNumber":38,"Velocity":51,"Duration":125000,"SoundDuration":125000,"Delta":21002133},{"NoteNumber":45,"Velocity":51,"Duration":125000,"SoundDuration":125000,"Delta":21002133},{"NoteNumber":50,"Velocity":52,"Duration":125000,"SoundDuration":125000,"Delta":21127133},{"NoteNumber":53,"Velocity":54,"Duration":125000,"SoundDuration":125000,"Delta":21252133},{"NoteNumber":57,"Velocity":55,"Duration":125000,"SoundDuration":125000,"Delta":21377133},{"NoteNumber":56,"Velocity":56,"Duration":125000,"SoundDuration":125000,"Delta":21502133},{"NoteNumber":86,"Velocity":75,"Duration":125000,"SoundDuration":125000,"Delta":21627133},{"NoteNumber":74,"Velocity":75,"Duration":125000,"SoundDuration":125000,"Delta":21627133},{"NoteNumber":57,"Velocity":57,"Duration":125000,"SoundDuration":125000,"Delta":21627133},{"NoteNumber":81,"Velocity":59,"Duration":115607,"SoundDuration":115607,"Delta":21752133},{"NoteNumber":77,"Velocity":59,"Duration":115607,"SoundDuration":115607,"Delta":21752133},{"NoteNumber":84,"Velocity":59,"Duration":115607,"SoundDuration":115607,"Delta":21867740},{"NoteNumber":72,"Velocity":59,"Duration":115607,"SoundDuration":115607,"Delta":21867740},{"NoteNumber":65,"Velocity":61,"Duration":115607,"SoundDuration":115607,"Delta":21867740},{"NoteNumber":77,"Velocity":59,"Duration":115606,"SoundDuration":115606,"Delta":21983347},{"NoteNumber":74,"Velocity":59,"Duration":115606,"SoundDuration":115606,"Delta":21983347},{"NoteNumber":62,"Velocity":58,"Duration":115606,"SoundDuration":115606,"Delta":21983347},{"NoteNumber":82,"Velocity":59,"Duration":115607,"SoundDuration":115607,"Delta":22098954},{"NoteNumber":70,"Velocity":59,"Duration":115607,"SoundDuration":115607,"Delta":22098954},{"NoteNumber":53,"Velocity":56,"Duration":108381,"SoundDuration":108381,"Delta":22098954},{"NoteNumber":74,"Velocity":59,"Duration":115607,"SoundDuration":115607,"Delta":22214561},{"NoteNumber":77,"Velocity":59,"Duration":115607,"SoundDuration":115607,"Delta":22214561},{"NoteNumber":53,"Velocity":54,"Duration":115607,"SoundDuration":115607,"Delta":22214561},{"NoteNumber":81,"Velocity":59,"Duration":115607,"SoundDuration":115607,"Delta":22330168},{"NoteNumber":69,"Velocity":59,"Duration":115607,"SoundDuration":115607,"Delta":22330168},{"NoteNumber":50,"Velocity":53,"Duration":115607,"SoundDuration":115607,"Delta":22330168},{"NoteNumber":72,"Velocity":74,"Duration":562500,"SoundDuration":562500,"Delta":22445775},{"NoteNumber":77,"Velocity":74,"Duration":562500,"SoundDuration":562500,"Delta":22445775},{"NoteNumber":41,"Velocity":50,"Duration":125000,"SoundDuration":125000,"Delta":22445775},{"NoteNumber":48,"Velocity":50,"Duration":125000,"SoundDuration":125000,"Delta":22445775},{"NoteNumber":53,"Velocity":49,"Duration":125000,"SoundDuration":125000,"Delta":22570775},{"NoteNumber":57,"Velocity":51,"Duration":125000,"SoundDuration":125000,"Delta":22695775},{"NoteNumber":60,"Velocity":53,"Duration":125000,"SoundDuration":125000,"Delta":22820775},{"NoteNumber":59,"Velocity":55,"Duration":125000,"SoundDuration":125000,"Delta":22945775},{"NoteNumber":69,"Velocity":73,"Duration":187500,"SoundDuration":187500,"Delta":23008275},{"NoteNumber":81,"Velocity":73,"Duration":187500,"SoundDuration":187500,"Delta":23008275},{"NoteNumber":60,"Velocity":57,"Duration":125000,"SoundDuration":125000,"Delta":23070775},{"NoteNumber":72,"Velocity":77,"Duration":585281,"SoundDuration":585281,"Delta":23195775},{"NoteNumber":77,"Velocity":77,"Duration":585281,"SoundDuration":585281,"Delta":23195775},{"NoteNumber":60,"Velocity":55,"Duration":127796,"SoundDuration":127796,"Delta":23321168},{"NoteNumber":57,"Velocity":56,"Duration":130724,"SoundDuration":130724,"Delta":23448964},{"NoteNumber":53,"Velocity":58,"Duration":133339,"SoundDuration":133339,"Delta":23579689},{"NoteNumber":48,"Velocity":60,"Duration":149328,"SoundDuration":149328,"Delta":23713028},{"NoteNumber":89,"Velocity":91,"Duration":223144,"SoundDuration":223144,"Delta":23781056},{"NoteNumber":77,"Velocity":91,"Duration":223144,"SoundDuration":223144,"Delta":23781056},{"NoteNumber":36,"Velocity":63,"Duration":141844,"SoundDuration":141844,"Delta":23862356},{"NoteNumber":86,"Velocity":87,"Duration":1384595,"SoundDuration":1384595,"Delta":24004200},{"NoteNumber":80,"Velocity":87,"Duration":792490,"SoundDuration":792490,"Delta":24004200},{"NoteNumber":74,"Velocity":78,"Duration":1384595,"SoundDuration":1384595,"Delta":24004200},{"NoteNumber":77,"Velocity":78,"Duration":792490,"SoundDuration":792490,"Delta":24004200},{"NoteNumber":48,"Velocity":63,"Duration":129241,"SoundDuration":129241,"Delta":24004200},{"NoteNumber":56,"Velocity":63,"Duration":130294,"SoundDuration":130294,"Delta":24133442},{"NoteNumber":59,"Velocity":64,"Duration":131364,"SoundDuration":131364,"Delta":24263737},{"NoteNumber":62,"Velocity":65,"Duration":132671,"SoundDuration":132671,"Delta":24395101},{"NoteNumber":64,"Velocity":67,"Duration":133780,"SoundDuration":133780,"Delta":24527772},{"NoteNumber":65,"Velocity":68,"Duration":135138,"SoundDuration":135138,"Delta":24661553},{"NoteNumber":79,"Velocity":78,"Duration":592105,"SoundDuration":592105,"Delta":24796691},{"NoteNumber":76,"Velocity":78,"Duration":592105,"SoundDuration":592105,"Delta":24796691},{"NoteNumber":55,"Velocity":72,"Duration":592105,"SoundDuration":592105,"Delta":24796691},{"NoteNumber":58,"Velocity":72,"Duration":592105,"SoundDuration":592105,"Delta":24796691},{"NoteNumber":64,"Velocity":72,"Duration":592105,"SoundDuration":592105,"Delta":24796691},{"NoteNumber":84,"Velocity":89,"Duration":243902,"SoundDuration":243902,"Delta":25388796},{"NoteNumber":72,"Velocity":89,"Duration":243902,"SoundDuration":243902,"Delta":25388796},{"NoteNumber":29,"Velocity":71,"Duration":243902,"SoundDuration":243902,"Delta":25388796},{"NoteNumber":41,"Velocity":79,"Duration":243902,"SoundDuration":243902,"Delta":25388796},{"NoteNumber":69,"Velocity":89,"Duration":681689,"SoundDuration":681689,"Delta":25632699},{"NoteNumber":75,"Velocity":89,"Duration":681689,"SoundDuration":681689,"Delta":25632699},{"NoteNumber":81,"Velocity":89,"Duration":681689,"SoundDuration":681689,"Delta":25632699},{"NoteNumber":51,"Velocity":80,"Duration":408163,"SoundDuration":408163,"Delta":25632699},{"NoteNumber":57,"Velocity":80,"Duration":408163,"SoundDuration":408163,"Delta":25632699},{"NoteNumber":41,"Velocity":61,"Duration":136054,"SoundDuration":136054,"Delta":26040862},{"NoteNumber":48,"Velocity":61,"Duration":136054,"SoundDuration":136054,"Delta":26040862},{"NoteNumber":51,"Velocity":61,"Duration":137471,"SoundDuration":137471,"Delta":26176917},{"NoteNumber":79,"Velocity":89,"Duration":149253,"SoundDuration":149253,"Delta":26314389},{"NoteNumber":67,"Velocity":89,"Duration":149253,"SoundDuration":149253,"Delta":26314389},{"NoteNumber":55,"Velocity":81,"Duration":149253,"SoundDuration":149253,"Delta":26314389},{"NoteNumber":63,"Velocity":89,"Duration":694444,"SoundDuration":694444,"Delta":26463642},{"NoteNumber":75,"Velocity":89,"Duration":694444,"SoundDuration":694444,"Delta":26463642},{"NoteNumber":51,"Velocity":81,"Duration":694444,"SoundDuration":694444,"Delta":26463642},{"NoteNumber":62,"Velocity":84,"Duration":169491,"SoundDuration":169491,"Delta":27158086},{"NoteNumber":74,"Velocity":84,"Duration":169491,"SoundDuration":169491,"Delta":27158086},{"NoteNumber":50,"Velocity":72,"Duration":169491,"SoundDuration":169491,"Delta":27158086},{"NoteNumber":58,"Velocity":75,"Duration":162601,"SoundDuration":162601,"Delta":27327578},{"NoteNumber":70,"Velocity":84,"Duration":162601,"SoundDuration":162601,"Delta":27327578},{"NoteNumber":46,"Velocity":72,"Duration":162601,"SoundDuration":162601,"Delta":27327578},{"NoteNumber":57,"Velocity":75,"Duration":162601,"SoundDuration":162601,"Delta":27490180},{"NoteNumber":69,"Velocity":84,"Duration":162601,"SoundDuration":162601,"Delta":27490180},{"NoteNumber":45,"Velocity":72,"Duration":162601,"SoundDuration":162601,"Delta":27490180},{"NoteNumber":55,"Velocity":75,"Duration":147090,"SoundDuration":147090,"Delta":27652781},{"NoteNumber":67,"Velocity":84,"Duration":147090,"SoundDuration":147090,"Delta":27652781},{"NoteNumber":43,"Velocity":71,"Duration":147090,"SoundDuration":147090,"Delta":27652781},{"NoteNumber":53,"Velocity":75,"Duration":975689,"SoundDuration":975689,"Delta":27799872},{"NoteNumber":65,"Velocity":84,"Duration":975689,"SoundDuration":975689,"Delta":27799872},{"NoteNumber":41,"Velocity":71,"Duration":975689,"SoundDuration":975689,"Delta":27799872},{"NoteNumber":53,"Velocity":72,"Duration":126666,"SoundDuration":126666,"Delta":28775561},{"NoteNumber":57,"Velocity":72,"Duration":126666,"SoundDuration":126666,"Delta":28775561},{"NoteNumber":63,"Velocity":81,"Duration":126666,"SoundDuration":126666,"Delta":28775561},{"NoteNumber":65,"Velocity":81,"Duration":126666,"SoundDuration":126666,"Delta":28775561},{"NoteNumber":29,"Velocity":73,"Duration":126666,"SoundDuration":126666,"Delta":28775561},{"NoteNumber":41,"Velocity":82,"Duration":126666,"SoundDuration":126666,"Delta":28775561},{"NoteNumber":50,"Velocity":73,"Duration":646154,"SoundDuration":646154,"Delta":28908894},{"NoteNumber":53,"Velocity":73,"Duration":646154,"SoundDuration":646154,"Delta":28908894},{"NoteNumber":58,"Velocity":82,"Duration":646154,"SoundDuration":646154,"Delta":28908894},{"NoteNumber":62,"Velocity":82,"Duration":646154,"SoundDuration":646154,"Delta":28908894},{"NoteNumber":22,"Velocity":81,"Duration":133333,"SoundDuration":133333,"Delta":28908894},{"NoteNumber":34,"Velocity":91,"Duration":133333,"SoundDuration":133333,"Delta":28908894},{"NoteNumber":41,"Velocity":63,"Duration":128205,"SoundDuration":128205,"Delta":29042227},{"NoteNumber":46,"Velocity":64,"Duration":128205,"SoundDuration":128205,"Delta":29170433},{"NoteNumber":50,"Velocity":65,"Duration":128205,"SoundDuration":128205,"Delta":29298638},{"NoteNumber":52,"Velocity":67,"Duration":128205,"SoundDuration":128205,"Delta":29426843},{"NoteNumber":70,"Velocity":91,"Duration":132450,"SoundDuration":132450,"Delta":29555048},{"NoteNumber":82,"Velocity":91,"Duration":132450,"SoundDuration":132450,"Delta":29555048},{"NoteNumber":53,"Velocity":69,"Duration":132450,"SoundDuration":132450,"Delta":29555048},{"NoteNumber":74,"Velocity":84,"Duration":658687,"SoundDuration":658687,"Delta":29687498},{"NoteNumber":77,"Velocity":84,"Duration":658687,"SoundDuration":658687,"Delta":29687498},{"NoteNumber":62,"Velocity":72,"Duration":132450,"SoundDuration":132450,"Delta":29687498},{"NoteNumber":58,"Velocity":72,"Duration":132450,"SoundDuration":132450,"Delta":29687498},{"NoteNumber":55,"Velocity":69,"Duration":128205,"SoundDuration":128205,"Delta":29819949},{"NoteNumber":53,"Velocity":68,"Duration":128205,"SoundDuration":128205,"Delta":29948154},{"NoteNumber":50,"Velocity":66,"Duration":128205,"SoundDuration":128205,"Delta":30076359},{"NoteNumber":46,"Velocity":64,"Duration":141622,"SoundDuration":141622,"Delta":30204564},{"NoteNumber":58,"Velocity":78,"Duration":155038,"SoundDuration":155038,"Delta":30346186},{"NoteNumber":70,"Velocity":87,"Duration":155038,"SoundDuration":155038,"Delta":30346186},{"NoteNumber":41,"Velocity":64,"Duration":155038,"SoundDuration":155038,"Delta":30346186},{"NoteNumber":53,"Velocity":74,"Duration":395050,"SoundDuration":395050,"Delta":30501225},{"NoteNumber":62,"Velocity":83,"Duration":653115,"SoundDuration":653115,"Delta":30501225},{"NoteNumber":65,"Velocity":83,"Duration":653115,"SoundDuration":653115,"Delta":30501225},{"NoteNumber":34,"Velocity":63,"Duration":136986,"SoundDuration":136986,"Delta":30501225},{"NoteNumber":41,"Velocity":63,"Duration":129032,"SoundDuration":129032,"Delta":30638211},{"NoteNumber":46,"Velocity":64,"Duration":129032,"SoundDuration":129032,"Delta":30767244},{"NoteNumber":50,"Velocity":66,"Duration":129032,"SoundDuration":129032,"Delta":30896276},{"NoteNumber":52,"Velocity":68,"Duration":129032,"SoundDuration":129032,"Delta":31025308},{"NoteNumber":70,"Velocity":84,"Duration":129032,"SoundDuration":129032,"Delta":31154341},{"NoteNumber":82,"Velocity":84,"Duration":129032,"SoundDuration":129032,"Delta":31154341},{"NoteNumber":53,"Velocity":71,"Duration":129032,"SoundDuration":129032,"Delta":31154341},{"NoteNumber":74,"Velocity":84,"Duration":129032,"SoundDuration":129032,"Delta":31283373},{"NoteNumber":77,"Velocity":84,"Duration":129032,"SoundDuration":129032,"Delta":31283373},{"NoteNumber":62,"Velocity":72,"Duration":129032,"SoundDuration":129032,"Delta":31283373},{"NoteNumber":58,"Velocity":72,"Duration":129032,"SoundDuration":129032,"Delta":31283373},{"NoteNumber":69,"Velocity":65,"Duration":116959,"SoundDuration":116959,"Delta":31412405},{"NoteNumber":81,"Velocity":65,"Duration":116959,"SoundDuration":116959,"Delta":31412405},{"NoteNumber":53,"Velocity":71,"Duration":116959,"SoundDuration":116959,"Delta":31412405},{"NoteNumber":70,"Velocity":65,"Duration":116958,"SoundDuration":116958,"Delta":31529364},{"NoteNumber":74,"Velocity":65,"Duration":116958,"SoundDuration":116958,"Delta":31529364},{"NoteNumber":50,"Velocity":68,"Duration":116958,"SoundDuration":116958,"Delta":31529364},{"NoteNumber":67,"Velocity":65,"Duration":116959,"SoundDuration":116959,"Delta":31646323},{"NoteNumber":79,"Velocity":65,"Duration":116959,"SoundDuration":116959,"Delta":31646323},{"NoteNumber":46,"Velocity":67,"Duration":116959,"SoundDuration":116959,"Delta":31646323},{"NoteNumber":70,"Velocity":65,"Duration":116958,"SoundDuration":116958,"Delta":31763282},{"NoteNumber":74,"Velocity":65,"Duration":116958,"SoundDuration":116958,"Delta":31763282},{"NoteNumber":41,"Velocity":65,"Duration":116958,"SoundDuration":116958,"Delta":31763282},{"NoteNumber":65,"Velocity":65,"Duration":116959,"SoundDuration":116959,"Delta":31880241},{"NoteNumber":77,"Velocity":65,"Duration":116959,"SoundDuration":116959,"Delta":31880241},{"NoteNumber":34,"Velocity":64,"Duration":245991,"SoundDuration":245991,"Delta":31880241},{"NoteNumber":70,"Velocity":72,"Duration":511290,"SoundDuration":511290,"Delta":31997200},{"NoteNumber":74,"Velocity":72,"Duration":511290,"SoundDuration":511290,"Delta":31997200},{"NoteNumber":41,"Velocity":63,"Duration":129032,"SoundDuration":129032,"Delta":32126233},{"NoteNumber":46,"Velocity":63,"Duration":129032,"SoundDuration":129032,"Delta":32255265},{"NoteNumber":50,"Velocity":64,"Duration":129032,"SoundDuration":129032,"Delta":32384297},{"NoteNumber":74,"Velocity":63,"Duration":116129,"SoundDuration":116129,"Delta":32513330},{"NoteNumber":70,"Velocity":63,"Duration":116129,"SoundDuration":116129,"Delta":32513330},{"NoteNumber":52,"Velocity":66,"Duration":129032,"SoundDuration":129032,"Delta":32513330},{"NoteNumber":74,"Velocity":64,"Duration":116129,"SoundDuration":116129,"Delta":32642362},{"NoteNumber":70,"Velocity":64,"Duration":116129,"SoundDuration":116129,"Delta":32642362},{"NoteNumber":53,"Velocity":68,"Duration":129032,"SoundDuration":129032,"Delta":32642362},{"NoteNumber":70,"Velocity":68,"Duration":580645,"SoundDuration":580645,"Delta":32771394},{"NoteNumber":74,"Velocity":68,"Duration":580645,"SoundDuration":580645,"Delta":32771394},{"NoteNumber":62,"Velocity":71,"Duration":129032,"SoundDuration":129032,"Delta":32771394},{"NoteNumber":58,"Velocity":71,"Duration":129032,"SoundDuration":129032,"Delta":32771394},{"NoteNumber":55,"Velocity":69,"Duration":129032,"SoundDuration":129032,"Delta":32900427},{"NoteNumber":53,"Velocity":67,"Duration":129032,"SoundDuration":129032,"Delta":33029459},{"NoteNumber":50,"Velocity":66,"Duration":129032,"SoundDuration":129032,"Delta":33158491},{"NoteNumber":46,"Velocity":64,"Duration":129032,"SoundDuration":129032,"Delta":33287524},{"NoteNumber":53,"Velocity":60,"Duration":174193,"SoundDuration":174193,"Delta":33352040},{"NoteNumber":58,"Velocity":60,"Duration":174193,"SoundDuration":174193,"Delta":33352040},{"NoteNumber":62,"Velocity":67,"Duration":174193,"SoundDuration":174193,"Delta":33352040},{"NoteNumber":65,"Velocity":67,"Duration":174193,"SoundDuration":174193,"Delta":33352040},{"NoteNumber":41,"Velocity":64,"Duration":129032,"SoundDuration":129032,"Delta":33416556},{"NoteNumber":53,"Velocity":58,"Duration":123456,"SoundDuration":123456,"Delta":33545588},{"NoteNumber":58,"Velocity":58,"Duration":123456,"SoundDuration":123456,"Delta":33545588},{"NoteNumber":62,"Velocity":65,"Duration":123456,"SoundDuration":123456,"Delta":33545588},{"NoteNumber":65,"Velocity":65,"Duration":123456,"SoundDuration":123456,"Delta":33545588},{"NoteNumber":34,"Velocity":63,"Duration":123456,"SoundDuration":123456,"Delta":33545588},{"NoteNumber":41,"Velocity":63,"Duration":123456,"SoundDuration":123456,"Delta":33545588},{"NoteNumber":70,"Velocity":65,"Duration":123456,"SoundDuration":123456,"Delta":33669045},{"NoteNumber":46,"Velocity":63,"Duration":123456,"SoundDuration":123456,"Delta":33669045},{"NoteNumber":74,"Velocity":65,"Duration":123456,"SoundDuration":123456,"Delta":33792502},{"NoteNumber":50,"Velocity":64,"Duration":123456,"SoundDuration":123456,"Delta":33792502},{"NoteNumber":65,"Velocity":64,"Duration":703704,"SoundDuration":703704,"Delta":33915959},{"NoteNumber":70,"Velocity":64,"Duration":925926,"SoundDuration":925926,"Delta":33915959},{"NoteNumber":74,"Velocity":72,"Duration":925926,"SoundDuration":925926,"Delta":33915959},{"NoteNumber":77,"Velocity":72,"Duration":925926,"SoundDuration":925926,"Delta":33915959},{"NoteNumber":53,"Velocity":64,"Duration":123456,"SoundDuration":123456,"Delta":33915959},{"NoteNumber":46,"Velocity":65,"Duration":123456,"SoundDuration":123456,"Delta":34039416},{"NoteNumber":50,"Velocity":66,"Duration":123456,"SoundDuration":123456,"Delta":34162873},{"NoteNumber":53,"Velocity":67,"Duration":111111,"SoundDuration":111111,"Delta":34286329},{"NoteNumber":58,"Velocity":68,"Duration":111111,"SoundDuration":111111,"Delta":34397441},{"NoteNumber":62,"Velocity":69,"Duration":111111,"SoundDuration":111111,"Delta":34508552},{"NoteNumber":65,"Velocity":71,"Duration":222222,"SoundDuration":222222,"Delta":34619663},{"NoteNumber":67,"Velocity":55,"Duration":136054,"SoundDuration":136054,"Delta":34841885},{"NoteNumber":70,"Velocity":55,"Duration":136054,"SoundDuration":136054,"Delta":34841885},{"NoteNumber":75,"Velocity":62,"Duration":136054,"SoundDuration":136054,"Delta":34841885},{"NoteNumber":79,"Velocity":62,"Duration":136054,"SoundDuration":136054,"Delta":34841885},{"NoteNumber":55,"Velocity":58,"Duration":136054,"SoundDuration":136054,"Delta":34841885},{"NoteNumber":58,"Velocity":58,"Duration":136054,"SoundDuration":136054,"Delta":34841885},{"NoteNumber":63,"Velocity":58,"Duration":136054,"SoundDuration":136054,"Delta":34841885},{"NoteNumber":77,"Velocity":66,"Duration":641025,"SoundDuration":641025,"Delta":34977940},{"NoteNumber":74,"Velocity":66,"Duration":641025,"SoundDuration":641025,"Delta":34977940},{"NoteNumber":70,"Velocity":59,"Duration":641025,"SoundDuration":641025,"Delta":34977940},{"NoteNumber":65,"Velocity":59,"Duration":641025,"SoundDuration":641025,"Delta":34977940},{"NoteNumber":22,"Velocity":55,"Duration":128205,"SoundDuration":128205,"Delta":34977940},{"NoteNumber":34,"Velocity":62,"Duration":128205,"SoundDuration":128205,"Delta":34977940},{"NoteNumber":41,"Velocity":63,"Duration":128205,"SoundDuration":128205,"Delta":35106145},{"NoteNumber":46,"Velocity":64,"Duration":128205,"SoundDuration":128205,"Delta":35234350},{"NoteNumber":50,"Velocity":65,"Duration":128205,"SoundDuration":128205,"Delta":35362555},{"NoteNumber":52,"Velocity":67,"Duration":128205,"SoundDuration":128205,"Delta":35490760},{"NoteNumber":70,"Velocity":96,"Duration":141843,"SoundDuration":141843,"Delta":35618966},{"NoteNumber":82,"Velocity":96,"Duration":141843,"SoundDuration":141843,"Delta":35618966},{"NoteNumber":53,"Velocity":69,"Duration":141843,"SoundDuration":141843,"Delta":35618966},{"NoteNumber":74,"Velocity":84,"Duration":425531,"SoundDuration":425531,"Delta":35760810},{"NoteNumber":77,"Velocity":84,"Duration":425531,"SoundDuration":425531,"Delta":35760810},{"NoteNumber":62,"Velocity":72,"Duration":141843,"SoundDuration":141843,"Delta":35760810},{"NoteNumber":58,"Velocity":72,"Duration":141843,"SoundDuration":141843,"Delta":35760810},{"NoteNumber":55,"Velocity":69,"Duration":141843,"SoundDuration":141843,"Delta":35902654},{"NoteNumber":53,"Velocity":68,"Duration":141843,"SoundDuration":141843,"Delta":36044498},{"NoteNumber":58,"Velocity":84,"Duration":112499,"SoundDuration":112499,"Delta":36186342},{"NoteNumber":70,"Velocity":84,"Duration":112499,"SoundDuration":112499,"Delta":36186342},{"NoteNumber":50,"Velocity":66,"Duration":125000,"SoundDuration":125000,"Delta":36186342},{"NoteNumber":58,"Velocity":84,"Duration":112499,"SoundDuration":112499,"Delta":36311342},{"NoteNumber":70,"Velocity":84,"Duration":112499,"SoundDuration":112499,"Delta":36311342},{"NoteNumber":46,"Velocity":64,"Duration":125000,"SoundDuration":125000,"Delta":36311342},{"NoteNumber":58,"Velocity":84,"Duration":136941,"SoundDuration":136941,"Delta":36436342},{"NoteNumber":70,"Velocity":84,"Duration":136941,"SoundDuration":136941,"Delta":36436342},{"NoteNumber":41,"Velocity":64,"Duration":153201,"SoundDuration":153201,"Delta":36436342},{"NoteNumber":53,"Velocity":75,"Duration":394736,"SoundDuration":394736,"Delta":36589543},{"NoteNumber":62,"Velocity":84,"Duration":657894,"SoundDuration":657894,"Delta":36589543},{"NoteNumber":65,"Velocity":84,"Duration":657894,"SoundDuration":657894,"Delta":36589543},{"NoteNumber":34,"Velocity":63,"Duration":131579,"SoundDuration":131579,"Delta":36589543},{"NoteNumber":41,"Velocity":63,"Duration":131578,"SoundDuration":131578,"Delta":36721122},{"NoteNumber":46,"Velocity":64,"Duration":131579,"SoundDuration":131579,"Delta":36852701},{"NoteNumber":50,"Velocity":66,"Duration":131579,"SoundDuration":131579,"Delta":36984280},{"NoteNumber":52,"Velocity":68,"Duration":131578,"SoundDuration":131578,"Delta":37115859},{"NoteNumber":70,"Velocity":84,"Duration":131579,"SoundDuration":131579,"Delta":37247438},{"NoteNumber":82,"Velocity":84,"Duration":131579,"SoundDuration":131579,"Delta":37247438},{"NoteNumber":53,"Velocity":71,"Duration":131579,"SoundDuration":131579,"Delta":37247438},{"NoteNumber":74,"Velocity":84,"Duration":131579,"SoundDuration":131579,"Delta":37379017},{"NoteNumber":77,"Velocity":84,"Duration":131579,"SoundDuration":131579,"Delta":37379017},{"NoteNumber":62,"Velocity":72,"Duration":131579,"SoundDuration":131579,"Delta":37379017},{"NoteNumber":58,"Velocity":72,"Duration":131579,"SoundDuration":131579,"Delta":37379017},{"NoteNumber":69,"Velocity":66,"Duration":115606,"SoundDuration":115606,"Delta":37510596},{"NoteNumber":81,"Velocity":66,"Duration":115606,"SoundDuration":115606,"Delta":37510596},{"NoteNumber":53,"Velocity":71,"Duration":115606,"SoundDuration":115606,"Delta":37510596},{"NoteNumber":70,"Velocity":63,"Duration":115607,"SoundDuration":115607,"Delta":37626203},{"NoteNumber":74,"Velocity":63,"Duration":115607,"SoundDuration":115607,"Delta":37626203},{"NoteNumber":50,"Velocity":68,"Duration":115607,"SoundDuration":115607,"Delta":37626203},{"NoteNumber":67,"Velocity":66,"Duration":115606,"SoundDuration":115606,"Delta":37741810},{"NoteNumber":79,"Velocity":66,"Duration":115606,"SoundDuration":115606,"Delta":37741810},{"NoteNumber":46,"Velocity":67,"Duration":115606,"SoundDuration":115606,"Delta":37741810},{"NoteNumber":70,"Velocity":66,"Duration":115607,"SoundDuration":115607,"Delta":37857417},{"NoteNumber":74,"Velocity":66,"Duration":115607,"SoundDuration":115607,"Delta":37857417},{"NoteNumber":41,"Velocity":65,"Duration":115607,"SoundDuration":115607,"Delta":37857417},{"NoteNumber":65,"Velocity":66,"Duration":115606,"SoundDuration":115606,"Delta":37973024},{"NoteNumber":77,"Velocity":66,"Duration":115606,"SoundDuration":115606,"Delta":37973024},{"NoteNumber":34,"Velocity":64,"Duration":244639,"SoundDuration":244639,"Delta":37973024},{"NoteNumber":70,"Velocity":72,"Duration":383871,"SoundDuration":383871,"Delta":38088631},{"NoteNumber":74,"Velocity":72,"Duration":383871,"SoundDuration":383871,"Delta":38088631},{"NoteNumber":41,"Velocity":63,"Duration":129032,"SoundDuration":129032,"Delta":38217663},{"NoteNumber":46,"Velocity":63,"Duration":129032,"SoundDuration":129032,"Delta":38346695},{"NoteNumber":70,"Velocity":64,"Duration":103448,"SoundDuration":103448,"Delta":38475728},{"NoteNumber":74,"Velocity":64,"Duration":103448,"SoundDuration":103448,"Delta":38475728},{"NoteNumber":50,"Velocity":64,"Duration":114942,"SoundDuration":114942,"Delta":38475728},{"NoteNumber":70,"Velocity":64,"Duration":103448,"SoundDuration":103448,"Delta":38590670},{"NoteNumber":74,"Velocity":64,"Duration":103448,"SoundDuration":103448,"Delta":38590670},{"NoteNumber":52,"Velocity":66,"Duration":114942,"SoundDuration":114942,"Delta":38590670},{"NoteNumber":70,"Velocity":64,"Duration":103448,"SoundDuration":103448,"Delta":38705613},{"NoteNumber":74,"Velocity":64,"Duration":103448,"SoundDuration":103448,"Delta":38705613},{"NoteNumber":53,"Velocity":68,"Duration":114942,"SoundDuration":114942,"Delta":38705613},{"NoteNumber":70,"Velocity":68,"Duration":580645,"SoundDuration":580645,"Delta":38820555},{"NoteNumber":74,"Velocity":68,"Duration":580645,"SoundDuration":580645,"Delta":38820555},{"NoteNumber":62,"Velocity":71,"Duration":129032,"SoundDuration":129032,"Delta":38820555},{"NoteNumber":58,"Velocity":71,"Duration":129032,"SoundDuration":129032,"Delta":38820555},{"NoteNumber":55,"Velocity":69,"Duration":129032,"SoundDuration":129032,"Delta":38949588},{"NoteNumber":53,"Velocity":67,"Duration":129032,"SoundDuration":129032,"Delta":39078620},{"NoteNumber":50,"Velocity":66,"Duration":129032,"SoundDuration":129032,"Delta":39207652},{"NoteNumber":46,"Velocity":64,"Duration":129032,"SoundDuration":129032,"Delta":39336685},{"NoteNumber":53,"Velocity":61,"Duration":174193,"SoundDuration":174193,"Delta":39401201},{"NoteNumber":58,"Velocity":61,"Duration":174193,"SoundDuration":174193,"Delta":39401201},{"NoteNumber":62,"Velocity":68,"Duration":174193,"SoundDuration":174193,"Delta":39401201},{"NoteNumber":65,"Velocity":68,"Duration":174193,"SoundDuration":174193,"Delta":39401201},{"NoteNumber":41,"Velocity":64,"Duration":129032,"SoundDuration":129032,"Delta":39465717},{"NoteNumber":53,"Velocity":61,"Duration":124223,"SoundDuration":124223,"Delta":39594749},{"NoteNumber":58,"Velocity":61,"Duration":124223,"SoundDuration":124223,"Delta":39594749},{"NoteNumber":62,"Velocity":68,"Duration":124223,"SoundDuration":124223,"Delta":39594749},{"NoteNumber":65,"Velocity":68,"Duration":124223,"SoundDuration":124223,"Delta":39594749},{"NoteNumber":34,"Velocity":63,"Duration":124223,"SoundDuration":124223,"Delta":39594749},{"NoteNumber":41,"Velocity":63,"Duration":124223,"SoundDuration":124223,"Delta":39594749},{"NoteNumber":70,"Velocity":66,"Duration":124223,"SoundDuration":124223,"Delta":39718973},{"NoteNumber":46,"Velocity":63,"Duration":124223,"SoundDuration":124223,"Delta":39718973},{"NoteNumber":74,"Velocity":70,"Duration":124223,"SoundDuration":124223,"Delta":39843197},{"NoteNumber":50,"Velocity":64,"Duration":124223,"SoundDuration":124223,"Delta":39843197},{"NoteNumber":65,"Velocity":65,"Duration":729814,"SoundDuration":729814,"Delta":39967420},{"NoteNumber":70,"Velocity":65,"Duration":967909,"SoundDuration":967909,"Delta":39967420},{"NoteNumber":74,"Velocity":73,"Duration":967909,"SoundDuration":967909,"Delta":39967420},{"NoteNumber":77,"Velocity":73,"Duration":967909,"SoundDuration":967909,"Delta":39967420},{"NoteNumber":53,"Velocity":64,"Duration":124223,"SoundDuration":124223,"Delta":39967420},{"NoteNumber":46,"Velocity":65,"Duration":124223,"SoundDuration":124223,"Delta":40091644},{"NoteNumber":50,"Velocity":66,"Duration":124223,"SoundDuration":124223,"Delta":40215868},{"NoteNumber":53,"Velocity":67,"Duration":119047,"SoundDuration":119047,"Delta":40340091},{"NoteNumber":58,"Velocity":68,"Duration":119047,"SoundDuration":119047,"Delta":40459139},{"NoteNumber":62,"Velocity":69,"Duration":119047,"SoundDuration":119047,"Delta":40578187},{"NoteNumber":65,"Velocity":71,"Duration":238095,"SoundDuration":238095,"Delta":40697234},{"NoteNumber":67,"Velocity":64,"Duration":113095,"SoundDuration":113095,"Delta":40935330},{"NoteNumber":70,"Velocity":64,"Duration":113095,"SoundDuration":113095,"Delta":40935330},{"NoteNumber":74,"Velocity":72,"Duration":113095,"SoundDuration":113095,"Delta":40935330},{"NoteNumber":79,"Velocity":72,"Duration":113095,"SoundDuration":113095,"Delta":40935330},{"NoteNumber":55,"Velocity":67,"Duration":113095,"SoundDuration":113095,"Delta":40935330},{"NoteNumber":58,"Velocity":67,"Duration":113095,"SoundDuration":113095,"Delta":40935330},{"NoteNumber":62,"Velocity":67,"Duration":113095,"SoundDuration":113095,"Delta":40935330},{"NoteNumber":65,"Velocity":64,"Duration":392156,"SoundDuration":392156,"Delta":41054377},{"NoteNumber":69,"Velocity":64,"Duration":392156,"SoundDuration":392156,"Delta":41054377},{"NoteNumber":74,"Velocity":72,"Duration":392156,"SoundDuration":392156,"Delta":41054377},{"NoteNumber":77,"Velocity":72,"Duration":392156,"SoundDuration":392156,"Delta":41054377},{"NoteNumber":38,"Velocity":67,"Duration":130718,"SoundDuration":130718,"Delta":41054377},{"NoteNumber":45,"Velocity":67,"Duration":130718,"SoundDuration":130718,"Delta":41054377},{"NoteNumber":50,"Velocity":67,"Duration":130718,"SoundDuration":130718,"Delta":41185096},{"NoteNumber":53,"Velocity":67,"Duration":130718,"SoundDuration":130718,"Delta":41315815},{"NoteNumber":57,"Velocity":61,"Duration":125000,"SoundDuration":125000,"Delta":41446534},{"NoteNumber":62,"Velocity":61,"Duration":125000,"SoundDuration":125000,"Delta":41446534},{"NoteNumber":65,"Velocity":68,"Duration":125000,"SoundDuration":125000,"Delta":41446534},{"NoteNumber":69,"Velocity":68,"Duration":125000,"SoundDuration":125000,"Delta":41446534},{"NoteNumber":74,"Velocity":72,"Duration":125000,"SoundDuration":125000,"Delta":41571534},{"NoteNumber":77,"Velocity":73,"Duration":125000,"SoundDuration":125000,"Delta":41696534},{"NoteNumber":69,"Velocity":75,"Duration":649350,"SoundDuration":649350,"Delta":41821534},{"NoteNumber":74,"Velocity":75,"Duration":649350,"SoundDuration":649350,"Delta":41821534},{"NoteNumber":77,"Velocity":84,"Duration":649350,"SoundDuration":649350,"Delta":41821534},{"NoteNumber":81,"Velocity":84,"Duration":649350,"SoundDuration":649350,"Delta":41821534},{"NoteNumber":38,"Velocity":63,"Duration":129870,"SoundDuration":129870,"Delta":41821534},{"NoteNumber":45,"Velocity":63,"Duration":129870,"SoundDuration":129870,"Delta":41821534},{"NoteNumber":50,"Velocity":64,"Duration":129870,"SoundDuration":129870,"Delta":41951404},{"NoteNumber":53,"Velocity":65,"Duration":123376,"SoundDuration":123376,"Delta":42081275},{"NoteNumber":53,"Velocity":67,"Duration":129870,"SoundDuration":129870,"Delta":42211145},{"NoteNumber":57,"Velocity":69,"Duration":129870,"SoundDuration":129870,"Delta":42341015},{"NoteNumber":70,"Velocity":75,"Duration":126582,"SoundDuration":126582,"Delta":42470885},{"NoteNumber":73,"Velocity":75,"Duration":126582,"SoundDuration":126582,"Delta":42470885},{"NoteNumber":77,"Velocity":84,"Duration":126582,"SoundDuration":126582,"Delta":42470885},{"NoteNumber":82,"Velocity":84,"Duration":126582,"SoundDuration":126582,"Delta":42470885},{"NoteNumber":49,"Velocity":71,"Duration":126582,"SoundDuration":126582,"Delta":42470885},{"NoteNumber":58,"Velocity":71,"Duration":126582,"SoundDuration":126582,"Delta":42470885},{"NoteNumber":69,"Velocity":75,"Duration":394736,"SoundDuration":394736,"Delta":42597467},{"NoteNumber":72,"Velocity":75,"Duration":394736,"SoundDuration":394736,"Delta":42597467},{"NoteNumber":77,"Velocity":84,"Duration":394736,"SoundDuration":394736,"Delta":42597467},{"NoteNumber":81,"Velocity":84,"Duration":394736,"SoundDuration":394736,"Delta":42597467},{"NoteNumber":48,"Velocity":72,"Duration":263157,"SoundDuration":263157,"Delta":42597467},{"NoteNumber":57,"Velocity":72,"Duration":263157,"SoundDuration":263157,"Delta":42597467},{"NoteNumber":41,"Velocity":69,"Duration":131579,"SoundDuration":131579,"Delta":42860625},{"NoteNumber":48,"Velocity":69,"Duration":131579,"SoundDuration":131579,"Delta":42860625},{"NoteNumber":60,"Velocity":63,"Duration":126582,"SoundDuration":126582,"Delta":42992204},{"NoteNumber":65,"Velocity":63,"Duration":126582,"SoundDuration":126582,"Delta":42992204},{"NoteNumber":69,"Velocity":70,"Duration":126582,"SoundDuration":126582,"Delta":42992204},{"NoteNumber":72,"Velocity":70,"Duration":126582,"SoundDuration":126582,"Delta":42992204},{"NoteNumber":57,"Velocity":72,"Duration":382425,"SoundDuration":382425,"Delta":42992204},{"NoteNumber":77,"Velocity":72,"Duration":126582,"SoundDuration":126582,"Delta":43118787},{"NoteNumber":81,"Velocity":76,"Duration":125992,"SoundDuration":125992,"Delta":43245369},{"NoteNumber":72,"Velocity":75,"Duration":653595,"SoundDuration":653595,"Delta":43374630},{"NoteNumber":77,"Velocity":75,"Duration":653595,"SoundDuration":653595,"Delta":43374630},{"NoteNumber":81,"Velocity":84,"Duration":653595,"SoundDuration":653595,"Delta":43374630},{"NoteNumber":84,"Velocity":84,"Duration":653595,"SoundDuration":653595,"Delta":43374630},{"NoteNumber":41,"Velocity":68,"Duration":130718,"SoundDuration":130718,"Delta":43374630},{"NoteNumber":48,"Velocity":68,"Duration":130718,"SoundDuration":130718,"Delta":43374630},{"NoteNumber":53,"Velocity":68,"Duration":130718,"SoundDuration":130718,"Delta":43505349},{"NoteNumber":57,"Velocity":70,"Duration":114379,"SoundDuration":114379,"Delta":43636068},{"NoteNumber":57,"Velocity":72,"Duration":130719,"SoundDuration":130719,"Delta":43766787},{"NoteNumber":60,"Velocity":73,"Duration":130718,"SoundDuration":130718,"Delta":43897506},{"NoteNumber":75,"Velocity":68,"Duration":137931,"SoundDuration":137931,"Delta":44028225},{"NoteNumber":78,"Velocity":68,"Duration":137931,"SoundDuration":137931,"Delta":44028225},{"NoteNumber":84,"Velocity":76,"Duration":137931,"SoundDuration":137931,"Delta":44028225},{"NoteNumber":87,"Velocity":76,"Duration":137931,"SoundDuration":137931,"Delta":44028225},{"NoteNumber":54,"Velocity":75,"Duration":137931,"SoundDuration":137931,"Delta":44028225},{"NoteNumber":63,"Velocity":75,"Duration":137931,"SoundDuration":137931,"Delta":44028225},{"NoteNumber":74,"Velocity":75,"Duration":689654,"SoundDuration":689654,"Delta":44166156},{"NoteNumber":86,"Velocity":84,"Duration":689654,"SoundDuration":689654,"Delta":44166156},{"NoteNumber":82,"Velocity":84,"Duration":689654,"SoundDuration":689654,"Delta":44166156},{"NoteNumber":79,"Velocity":75,"Duration":689654,"SoundDuration":689654,"Delta":44166156},{"NoteNumber":62,"Velocity":81,"Duration":689654,"SoundDuration":689654,"Delta":44166156},{"NoteNumber":58,"Velocity":81,"Duration":689654,"SoundDuration":689654,"Delta":44166156},{"NoteNumber":55,"Velocity":72,"Duration":689654,"SoundDuration":689654,"Delta":44166156},{"NoteNumber":72,"Velocity":75,"Duration":145985,"SoundDuration":145985,"Delta":44855811},{"NoteNumber":75,"Velocity":75,"Duration":145985,"SoundDuration":145985,"Delta":44855811},{"NoteNumber":78,"Velocity":84,"Duration":145985,"SoundDuration":145985,"Delta":44855811},{"NoteNumber":84,"Velocity":84,"Duration":145985,"SoundDuration":145985,"Delta":44855811},{"NoteNumber":57,"Velocity":72,"Duration":145985,"SoundDuration":145985,"Delta":44855811},{"NoteNumber":60,"Velocity":80,"Duration":145985,"SoundDuration":145985,"Delta":44855811},{"NoteNumber":66,"Velocity":80,"Duration":145985,"SoundDuration":145985,"Delta":44855811},{"NoteNumber":70,"Velocity":75,"Duration":729926,"SoundDuration":729926,"Delta":45001796},{"NoteNumber":74,"Velocity":75,"Duration":729926,"SoundDuration":729926,"Delta":45001796},{"NoteNumber":82,"Velocity":84,"Duration":729926,"SoundDuration":729926,"Delta":45001796},{"NoteNumber":79,"Velocity":84,"Duration":729926,"SoundDuration":729926,"Delta":45001796},{"NoteNumber":67,"Velocity":80,"Duration":729926,"SoundDuration":729926,"Delta":45001796},{"NoteNumber":62,"Velocity":80,"Duration":729926,"SoundDuration":729926,"Delta":45001796},{"NoteNumber":58,"Velocity":72,"Duration":729926,"SoundDuration":729926,"Delta":45001796},{"NoteNumber":67,"Velocity":75,"Duration":145985,"SoundDuration":145985,"Delta":45731723},{"NoteNumber":72,"Velocity":75,"Duration":145985,"SoundDuration":145985,"Delta":45731723},{"NoteNumber":75,"Velocity":84,"Duration":145985,"SoundDuration":145985,"Delta":45731723},{"NoteNumber":79,"Velocity":84,"Duration":145985,"SoundDuration":145985,"Delta":45731723},{"NoteNumber":48,"Velocity":80,"Duration":145985,"SoundDuration":145985,"Delta":45731723},{"NoteNumber":51,"Velocity":80,"Duration":145985,"SoundDuration":145985,"Delta":45731723},{"NoteNumber":57,"Velocity":80,"Duration":145985,"SoundDuration":145985,"Delta":45731723},{"NoteNumber":65,"Velocity":75,"Duration":291970,"SoundDuration":291970,"Delta":45877708},{"NoteNumber":74,"Velocity":84,"Duration":291970,"SoundDuration":291970,"Delta":45877708},{"NoteNumber":77,"Velocity":84,"Duration":291970,"SoundDuration":291970,"Delta":45877708},{"NoteNumber":50,"Velocity":80,"Duration":291970,"SoundDuration":291970,"Delta":45877708},{"NoteNumber":53,"Velocity":80,"Duration":291970,"SoundDuration":291970,"Delta":45877708},{"NoteNumber":58,"Velocity":80,"Duration":291970,"SoundDuration":291970,"Delta":45877708},{"NoteNumber":63,"Velocity":75,"Duration":291970,"SoundDuration":291970,"Delta":46169679},{"NoteNumber":72,"Velocity":84,"Duration":291970,"SoundDuration":291970,"Delta":46169679},{"NoteNumber":75,"Velocity":84,"Duration":291970,"SoundDuration":291970,"Delta":46169679},{"NoteNumber":41,"Velocity":72,"Duration":291970,"SoundDuration":291970,"Delta":46169679},{"NoteNumber":53,"Velocity":80,"Duration":291970,"SoundDuration":291970,"Delta":46169679},{"NoteNumber":62,"Velocity":75,"Duration":291970,"SoundDuration":291970,"Delta":46461649},{"NoteNumber":70,"Velocity":84,"Duration":291970,"SoundDuration":291970,"Delta":46461649},{"NoteNumber":74,"Velocity":84,"Duration":291970,"SoundDuration":291970,"Delta":46461649},{"NoteNumber":42,"Velocity":72,"Duration":291970,"SoundDuration":291970,"Delta":46461649},{"NoteNumber":54,"Velocity":80,"Duration":291970,"SoundDuration":291970,"Delta":46461649},{"NoteNumber":70,"Velocity":77,"Duration":187500,"SoundDuration":187500,"Delta":46753620},{"NoteNumber":76,"Velocity":86,"Duration":187500,"SoundDuration":187500,"Delta":46753620},{"NoteNumber":74,"Velocity":86,"Duration":187500,"SoundDuration":187500,"Delta":46753620},{"NoteNumber":82,"Velocity":86,"Duration":187500,"SoundDuration":187500,"Delta":46753620},{"NoteNumber":43,"Velocity":71,"Duration":187500,"SoundDuration":187500,"Delta":46753620},{"NoteNumber":55,"Velocity":79,"Duration":187500,"SoundDuration":187500,"Delta":46753620},{"NoteNumber":81,"Velocity":83,"Duration":185491,"SoundDuration":185491,"Delta":46941120},{"NoteNumber":76,"Velocity":83,"Duration":185491,"SoundDuration":185491,"Delta":46941120},{"NoteNumber":73,"Velocity":74,"Duration":185491,"SoundDuration":185491,"Delta":46941120},{"NoteNumber":69,"Velocity":74,"Duration":185491,"SoundDuration":185491,"Delta":46941120},{"NoteNumber":57,"Velocity":77,"Duration":185491,"SoundDuration":185491,"Delta":46941120},{"NoteNumber":45,"Velocity":69,"Duration":185491,"SoundDuration":185491,"Delta":46941120},{"NoteNumber":77,"Velocity":81,"Duration":167365,"SoundDuration":167365,"Delta":47126611},{"NoteNumber":74,"Velocity":81,"Duration":167365,"SoundDuration":167365,"Delta":47126611},{"NoteNumber":69,"Velocity":72,"Duration":167365,"SoundDuration":167365,"Delta":47126611},{"NoteNumber":65,"Velocity":72,"Duration":167365,"SoundDuration":167365,"Delta":47126611},{"NoteNumber":50,"Velocity":75,"Duration":167365,"SoundDuration":167365,"Delta":47126611},{"NoteNumber":38,"Velocity":67,"Duration":167365,"SoundDuration":167365,"Delta":47126611},{"NoteNumber":74,"Velocity":81,"Duration":161814,"SoundDuration":161814,"Delta":47293977},{"NoteNumber":70,"Velocity":81,"Duration":161814,"SoundDuration":161814,"Delta":47293977},{"NoteNumber":65,"Velocity":72,"Duration":161814,"SoundDuration":161814,"Delta":47293977},{"NoteNumber":62,"Velocity":72,"Duration":161814,"SoundDuration":161814,"Delta":47293977},{"NoteNumber":58,"Velocity":73,"Duration":161814,"SoundDuration":161814,"Delta":47293977},{"NoteNumber":46,"Velocity":65,"Duration":161814,"SoundDuration":161814,"Delta":47293977},{"NoteNumber":79,"Velocity":80,"Duration":173374,"SoundDuration":173374,"Delta":47455791},{"NoteNumber":75,"Velocity":80,"Duration":173374,"SoundDuration":173374,"Delta":47455791},{"NoteNumber":70,"Velocity":72,"Duration":173374,"SoundDuration":173374,"Delta":47455791},{"NoteNumber":67,"Velocity":72,"Duration":173374,"SoundDuration":173374,"Delta":47455791},{"NoteNumber":51,"Velocity":72,"Duration":173374,"SoundDuration":173374,"Delta":47455791},{"NoteNumber":39,"Velocity":64,"Duration":173374,"SoundDuration":173374,"Delta":47455791},{"NoteNumber":65,"Velocity":75,"Duration":1395972,"SoundDuration":1395972,"Delta":47629166},{"NoteNumber":70,"Velocity":75,"Duration":796979,"SoundDuration":796979,"Delta":47629166},{"NoteNumber":74,"Velocity":84,"Duration":796979,"SoundDuration":796979,"Delta":47629166},{"NoteNumber":77,"Velocity":84,"Duration":1395972,"SoundDuration":1395972,"Delta":47629166},{"NoteNumber":41,"Velocity":80,"Duration":805368,"SoundDuration":805368,"Delta":47629166},{"NoteNumber":53,"Velocity":80,"Duration":805368,"SoundDuration":805368,"Delta":47629166},{"NoteNumber":75,"Velocity":58,"Duration":598993,"SoundDuration":598993,"Delta":48434535},{"NoteNumber":69,"Velocity":57,"Duration":598993,"SoundDuration":598993,"Delta":48434535},{"NoteNumber":63,"Velocity":90,"Duration":604026,"SoundDuration":604026,"Delta":48434535},{"NoteNumber":53,"Velocity":81,"Duration":604026,"SoundDuration":604026,"Delta":48434535},{"NoteNumber":57,"Velocity":90,"Duration":604026,"SoundDuration":604026,"Delta":48434535},{"NoteNumber":65,"Velocity":97,"Duration":210998,"SoundDuration":210998,"Delta":49038562},{"NoteNumber":77,"Velocity":97,"Duration":210998,"SoundDuration":210998,"Delta":49038562},{"NoteNumber":22,"Velocity":81,"Duration":210998,"SoundDuration":210998,"Delta":49038562},{"NoteNumber":34,"Velocity":81,"Duration":210998,"SoundDuration":210998,"Delta":49038562},{"NoteNumber":74,"Velocity":95,"Duration":1555839,"SoundDuration":1555839,"Delta":49249561},{"NoteNumber":70,"Velocity":92,"Duration":1800489,"SoundDuration":1800489,"Delta":49249561},{"NoteNumber":65,"Velocity":85,"Duration":3075925,"SoundDuration":3075925,"Delta":49249561},{"NoteNumber":62,"Velocity":82,"Duration":3075925,"SoundDuration":3075925,"Delta":49249561},{"NoteNumber":53,"Velocity":76,"Duration":1066538,"SoundDuration":1066538,"Delta":49249561},{"NoteNumber":50,"Velocity":76,"Duration":820003,"SoundDuration":820003,"Delta":49249561},{"NoteNumber":46,"Velocity":68,"Duration":631112,"SoundDuration":631112,"Delta":49249561},{"NoteNumber":41,"Velocity":68,"Duration":436293,"SoundDuration":436293,"Delta":49249561},{"NoteNumber":94,"Velocity":74,"Duration":136290,"SoundDuration":136290,"Delta":49416227},{"NoteNumber":82,"Velocity":74,"Duration":136290,"SoundDuration":136290,"Delta":49416227},{"NoteNumber":34,"Velocity":73,"Duration":201133,"SoundDuration":201133,"Delta":49484720},{"NoteNumber":41,"Velocity":73,"Duration":2840765,"SoundDuration":2840765,"Delta":49484720},{"NoteNumber":89,"Velocity":71,"Duration":133336,"SoundDuration":133336,"Delta":49552518},{"NoteNumber":86,"Velocity":71,"Duration":133336,"SoundDuration":133336,"Delta":49552518},{"NoteNumber":93,"Velocity":72,"Duration":130509,"SoundDuration":130509,"Delta":49685854},{"NoteNumber":81,"Velocity":72,"Duration":130509,"SoundDuration":130509,"Delta":49685854},{"NoteNumber":46,"Velocity":74,"Duration":2639631,"SoundDuration":2639631,"Delta":49685854},{"NoteNumber":89,"Velocity":70,"Duration":127802,"SoundDuration":127802,"Delta":49816364},{"NoteNumber":86,"Velocity":70,"Duration":127802,"SoundDuration":127802,"Delta":49816364},{"NoteNumber":50,"Velocity":75,"Duration":2182296,"SoundDuration":2182296,"Delta":49880673},{"NoteNumber":91,"Velocity":72,"Duration":125398,"SoundDuration":125398,"Delta":49944166},{"NoteNumber":79,"Velocity":72,"Duration":125398,"SoundDuration":125398,"Delta":49944166},{"NoteNumber":86,"Velocity":70,"Duration":123456,"SoundDuration":123456,"Delta":50069564},{"NoteNumber":82,"Velocity":70,"Duration":123456,"SoundDuration":123456,"Delta":50069564},{"NoteNumber":53,"Velocity":77,"Duration":1734919,"SoundDuration":1734919,"Delta":50069564},{"NoteNumber":89,"Velocity":72,"Duration":123078,"SoundDuration":123078,"Delta":50193021},{"NoteNumber":77,"Velocity":72,"Duration":123078,"SoundDuration":123078,"Delta":50193021},{"NoteNumber":86,"Velocity":70,"Duration":122699,"SoundDuration":122699,"Delta":50316099},{"NoteNumber":82,"Velocity":70,"Duration":122699,"SoundDuration":122699,"Delta":50316099},{"NoteNumber":58,"Velocity":78,"Duration":245398,"SoundDuration":245398,"Delta":50316099},{"NoteNumber":91,"Velocity":72,"Duration":122699,"SoundDuration":122699,"Delta":50438798},{"NoteNumber":79,"Velocity":72,"Duration":122699,"SoundDuration":122699,"Delta":50438798},{"NoteNumber":86,"Velocity":69,"Duration":121951,"SoundDuration":121951,"Delta":50561497},{"NoteNumber":82,"Velocity":69,"Duration":121951,"SoundDuration":121951,"Delta":50561497},{"NoteNumber":62,"Velocity":80,"Duration":243902,"SoundDuration":243902,"Delta":50561497},{"NoteNumber":86,"Velocity":72,"Duration":121951,"SoundDuration":121951,"Delta":50683449},{"NoteNumber":74,"Velocity":72,"Duration":614667,"SoundDuration":614667,"Delta":50683449},{"NoteNumber":79,"Velocity":70,"Duration":121951,"SoundDuration":121951,"Delta":50805400},{"NoteNumber":65,"Velocity":75,"Duration":244650,"SoundDuration":244650,"Delta":50805400},{"NoteNumber":82,"Velocity":68,"Duration":122699,"SoundDuration":122699,"Delta":50927351},{"NoteNumber":70,"Velocity":68,"Duration":1398134,"SoundDuration":1398134,"Delta":50927351},{"NoteNumber":82,"Velocity":66,"Duration":123648,"SoundDuration":123648,"Delta":51050050},{"NoteNumber":62,"Velocity":72,"Duration":248066,"SoundDuration":248066,"Delta":51050050},{"NoteNumber":86,"Velocity":64,"Duration":124417,"SoundDuration":124417,"Delta":51173699},{"NoteNumber":74,"Velocity":64,"Duration":375798,"SoundDuration":375798,"Delta":51173699},{"NoteNumber":82,"Velocity":63,"Duration":125196,"SoundDuration":125196,"Delta":51298116},{"NoteNumber":58,"Velocity":67,"Duration":251380,"SoundDuration":251380,"Delta":51298116},{"NoteNumber":86,"Velocity":61,"Duration":126184,"SoundDuration":126184,"Delta":51423313},{"NoteNumber":74,"Velocity":61,"Duration":639656,"SoundDuration":639656,"Delta":51423313},{"NoteNumber":82,"Velocity":60,"Duration":126985,"SoundDuration":126985,"Delta":51549497},{"NoteNumber":53,"Velocity":63,"Duration":775988,"SoundDuration":775988,"Delta":51549497},{"NoteNumber":72,"Velocity":58,"Duration":128001,"SoundDuration":128001,"Delta":51676483},{"NoteNumber":84,"Velocity":58,"Duration":128001,"SoundDuration":128001,"Delta":51676483},{"NoteNumber":82,"Velocity":56,"Duration":128825,"SoundDuration":128825,"Delta":51804484},{"NoteNumber":50,"Velocity":59,"Duration":521002,"SoundDuration":521002,"Delta":51804484},{"NoteNumber":86,"Velocity":55,"Duration":129660,"SoundDuration":129660,"Delta":51933309},{"NoteNumber":74,"Velocity":55,"Duration":392176,"SoundDuration":392176,"Delta":51933309},{"NoteNumber":77,"Velocity":53,"Duration":130718,"SoundDuration":130718,"Delta":52062970},{"NoteNumber":46,"Velocity":55,"Duration":262515,"SoundDuration":262515,"Delta":52062970},{"NoteNumber":82,"Velocity":51,"Duration":131796,"SoundDuration":131796,"Delta":52193689},{"NoteNumber":70,"Velocity":51,"Duration":131796,"SoundDuration":131796,"Delta":52193689},{"NoteNumber":34,"Velocity":72,"Duration":270055,"SoundDuration":270055,"Delta":52325486},{"NoteNumber":41,"Velocity":72,"Duration":270055,"SoundDuration":270055,"Delta":52325486},{"NoteNumber":86,"Velocity":75,"Duration":134231,"SoundDuration":134231,"Delta":52461310},{"NoteNumber":74,"Velocity":75,"Duration":134231,"SoundDuration":134231,"Delta":52461310},{"NoteNumber":82,"Velocity":71,"Duration":132453,"SoundDuration":132453,"Delta":52595542},{"NoteNumber":77,"Velocity":71,"Duration":132453,"SoundDuration":132453,"Delta":52595542},{"NoteNumber":46,"Velocity":63,"Duration":263175,"SoundDuration":263175,"Delta":52595542},{"NoteNumber":89,"Velocity":72,"Duration":130721,"SoundDuration":130721,"Delta":52727995},{"NoteNumber":77,"Velocity":72,"Duration":130721,"SoundDuration":130721,"Delta":52727995},{"NoteNumber":86,"Velocity":68,"Duration":129035,"SoundDuration":129035,"Delta":52858717},{"NoteNumber":82,"Velocity":68,"Duration":129035,"SoundDuration":129035,"Delta":52858717},{"NoteNumber":50,"Velocity":64,"Duration":256426,"SoundDuration":256426,"Delta":52858717},{"NoteNumber":86,"Velocity":68,"Duration":127391,"SoundDuration":127391,"Delta":52987752},{"NoteNumber":74,"Velocity":68,"Duration":127391,"SoundDuration":127391,"Delta":52987752},{"NoteNumber":82,"Velocity":63,"Duration":125985,"SoundDuration":125985,"Delta":53115143},{"NoteNumber":77,"Velocity":63,"Duration":125985,"SoundDuration":125985,"Delta":53115143},{"NoteNumber":53,"Velocity":65,"Duration":250985,"SoundDuration":250985,"Delta":53115143},{"NoteNumber":84,"Velocity":64,"Duration":124999,"SoundDuration":124999,"Delta":53241128},{"NoteNumber":72,"Velocity":64,"Duration":124999,"SoundDuration":124999,"Delta":53241128},{"NoteNumber":82,"Velocity":58,"Duration":124223,"SoundDuration":124223,"Delta":53366128},{"NoteNumber":77,"Velocity":58,"Duration":124223,"SoundDuration":124223,"Delta":53366128},{"NoteNumber":58,"Velocity":66,"Duration":247680,"SoundDuration":247680,"Delta":53366128},{"NoteNumber":86,"Velocity":61,"Duration":123456,"SoundDuration":123456,"Delta":53490352},{"NoteNumber":74,"Velocity":61,"Duration":123456,"SoundDuration":123456,"Delta":53490352},{"NoteNumber":77,"Velocity":60,"Duration":122699,"SoundDuration":122699,"Delta":53613809},{"NoteNumber":62,"Velocity":68,"Duration":244650,"SoundDuration":244650,"Delta":53613809},{"NoteNumber":82,"Velocity":58,"Duration":121951,"SoundDuration":121951,"Delta":53736508},{"NoteNumber":70,"Velocity":58,"Duration":121951,"SoundDuration":121951,"Delta":53736508},{"NoteNumber":74,"Velocity":56,"Duration":121212,"SoundDuration":121212,"Delta":53858459},{"NoteNumber":79,"Velocity":54,"Duration":121951,"SoundDuration":121951,"Delta":53979671},{"NoteNumber":67,"Velocity":54,"Duration":121951,"SoundDuration":121951,"Delta":53979671},{"NoteNumber":74,"Velocity":53,"Duration":122699,"SoundDuration":122699,"Delta":54101622},{"NoteNumber":50,"Velocity":54,"Duration":246156,"SoundDuration":246156,"Delta":54101622},{"NoteNumber":82,"Velocity":51,"Duration":123456,"SoundDuration":123456,"Delta":54224322},{"NoteNumber":70,"Velocity":51,"Duration":123456,"SoundDuration":123456,"Delta":54224322},{"NoteNumber":74,"Velocity":48,"Duration":124223,"SoundDuration":124223,"Delta":54347779},{"NoteNumber":46,"Velocity":54,"Duration":249223,"SoundDuration":249223,"Delta":54347779},{"NoteNumber":79,"Velocity":47,"Duration":125000,"SoundDuration":125000,"Delta":54472002},{"NoteNumber":67,"Velocity":47,"Duration":125000,"SoundDuration":125000,"Delta":54472002},{"NoteNumber":70,"Velocity":45,"Duration":138888,"SoundDuration":138888,"Delta":54597002},{"NoteNumber":53,"Velocity":72,"Duration":833333,"SoundDuration":833333,"Delta":54597002},{"NoteNumber":41,"Velocity":48,"Duration":277777,"SoundDuration":277777,"Delta":54597002},{"NoteNumber":77,"Velocity":45,"Duration":138888,"SoundDuration":138888,"Delta":54735891},{"NoteNumber":65,"Velocity":45,"Duration":138888,"SoundDuration":138888,"Delta":54735891},{"NoteNumber":70,"Velocity":45,"Duration":138888,"SoundDuration":138888,"Delta":54874780},{"NoteNumber":34,"Velocity":48,"Duration":277777,"SoundDuration":277777,"Delta":54874780},{"NoteNumber":75,"Velocity":45,"Duration":138888,"SoundDuration":138888,"Delta":55013669},{"NoteNumber":63,"Velocity":45,"Duration":138888,"SoundDuration":138888,"Delta":55013669},{"NoteNumber":70,"Velocity":45,"Duration":138888,"SoundDuration":138888,"Delta":55152558},{"NoteNumber":41,"Velocity":49,"Duration":277777,"SoundDuration":277777,"Delta":55152558},{"NoteNumber":62,"Velocity":45,"Duration":138888,"SoundDuration":138888,"Delta":55291446},{"NoteNumber":74,"Velocity":45,"Duration":138888,"SoundDuration":138888,"Delta":55291446},{"NoteNumber":61,"Velocity":48,"Duration":226297,"SoundDuration":226297,"Delta":55430335},{"NoteNumber":66,"Velocity":48,"Duration":226297,"SoundDuration":226297,"Delta":55430335},{"NoteNumber":70,"Velocity":54,"Duration":226297,"SoundDuration":226297,"Delta":55430335},{"NoteNumber":73,"Velocity":54,"Duration":226297,"SoundDuration":226297,"Delta":55430335},{"NoteNumber":46,"Velocity":64,"Duration":807848,"SoundDuration":807848,"Delta":55430335},{"NoteNumber":54,"Velocity":64,"Duration":807848,"SoundDuration":807848,"Delta":55430335},{"NoteNumber":90,"Velocity":55,"Duration":134681,"SoundDuration":134681,"Delta":55589065},{"NoteNumber":78,"Velocity":55,"Duration":134681,"SoundDuration":134681,"Delta":55589065},{"NoteNumber":85,"Velocity":51,"Duration":132891,"SoundDuration":132891,"Delta":55723747},{"NoteNumber":82,"Velocity":51,"Duration":132891,"SoundDuration":132891,"Delta":55723747},{"NoteNumber":34,"Velocity":45,"Duration":263186,"SoundDuration":263186,"Delta":55723747},{"NoteNumber":89,"Velocity":54,"Duration":130294,"SoundDuration":130294,"Delta":55856639},{"NoteNumber":77,"Velocity":54,"Duration":130294,"SoundDuration":130294,"Delta":55856639},{"NoteNumber":85,"Velocity":49,"Duration":128210,"SoundDuration":128210,"Delta":55986933},{"NoteNumber":82,"Velocity":49,"Duration":128210,"SoundDuration":128210,"Delta":55986933},{"NoteNumber":46,"Velocity":46,"Duration":254394,"SoundDuration":254394,"Delta":55986933},{"NoteNumber":87,"Velocity":52,"Duration":126184,"SoundDuration":126184,"Delta":56115144},{"NoteNumber":75,"Velocity":52,"Duration":126184,"SoundDuration":126184,"Delta":56115144},{"NoteNumber":82,"Velocity":48,"Duration":124223,"SoundDuration":124223,"Delta":56241328},{"NoteNumber":78,"Velocity":48,"Duration":124223,"SoundDuration":124223,"Delta":56241328},{"NoteNumber":54,"Velocity":48,"Duration":248447,"SoundDuration":248447,"Delta":56241328},{"NoteNumber":85,"Velocity":50,"Duration":124223,"SoundDuration":124223,"Delta":56365552},{"NoteNumber":73,"Velocity":50,"Duration":124223,"SoundDuration":124223,"Delta":56365552},{"NoteNumber":82,"Velocity":45,"Duration":124223,"SoundDuration":124223,"Delta":56489775},{"NoteNumber":78,"Velocity":45,"Duration":124223,"SoundDuration":124223,"Delta":56489775},{"NoteNumber":61,"Velocity":50,"Duration":248447,"SoundDuration":248447,"Delta":56489775},{"NoteNumber":87,"Velocity":48,"Duration":124223,"SoundDuration":124223,"Delta":56613999},{"NoteNumber":75,"Velocity":48,"Duration":124223,"SoundDuration":124223,"Delta":56613999},{"NoteNumber":82,"Velocity":45,"Duration":124223,"SoundDuration":124223,"Delta":56738223},{"NoteNumber":78,"Velocity":45,"Duration":124223,"SoundDuration":124223,"Delta":56738223},{"NoteNumber":66,"Velocity":53,"Duration":248447,"SoundDuration":248447,"Delta":56738223},{"NoteNumber":85,"Velocity":46,"Duration":124223,"SoundDuration":124223,"Delta":56862446},{"NoteNumber":73,"Velocity":46,"Duration":124223,"SoundDuration":124223,"Delta":56862446},{"NoteNumber":78,"Velocity":47,"Duration":123470,"SoundDuration":123470,"Delta":56986670},{"NoteNumber":61,"Velocity":54,"Duration":245424,"SoundDuration":245424,"Delta":56986670},{"NoteNumber":82,"Velocity":46,"Duration":121953,"SoundDuration":121953,"Delta":57110141},{"NoteNumber":70,"Velocity":46,"Duration":121953,"SoundDuration":121953,"Delta":57110141},{"NoteNumber":78,"Velocity":45,"Duration":123459,"SoundDuration":123459,"Delta":57232094},{"NoteNumber":54,"Velocity":51,"Duration":248461,"SoundDuration":248461,"Delta":57232094},{"NoteNumber":85,"Velocity":45,"Duration":125002,"SoundDuration":125002,"Delta":57355554},{"NoteNumber":73,"Velocity":45,"Duration":125002,"SoundDuration":125002,"Delta":57355554},{"NoteNumber":78,"Velocity":45,"Duration":126584,"SoundDuration":126584,"Delta":57480556},{"NoteNumber":46,"Velocity":48,"Duration":254585,"SoundDuration":254585,"Delta":57480556},{"NoteNumber":82,"Velocity":44,"Duration":128000,"SoundDuration":128000,"Delta":57607141},{"NoteNumber":70,"Velocity":44,"Duration":128000,"SoundDuration":128000,"Delta":57607141},{"NoteNumber":73,"Velocity":43,"Duration":147058,"SoundDuration":147058,"Delta":57735142},{"NoteNumber":56,"Velocity":69,"Duration":441176,"SoundDuration":441176,"Delta":57735142},{"NoteNumber":80,"Velocity":42,"Duration":147058,"SoundDuration":147058,"Delta":57882201},{"NoteNumber":68,"Velocity":42,"Duration":147058,"SoundDuration":147058,"Delta":57882201},{"NoteNumber":73,"Velocity":41,"Duration":147058,"SoundDuration":147058,"Delta":58029259},{"NoteNumber":82,"Velocity":40,"Duration":151515,"SoundDuration":151515,"Delta":58176318},{"NoteNumber":70,"Velocity":40,"Duration":151515,"SoundDuration":151515,"Delta":58176318},{"NoteNumber":58,"Velocity":69,"Duration":1259162,"SoundDuration":1259162,"Delta":58176318},{"NoteNumber":73,"Velocity":40,"Duration":151515,"SoundDuration":151515,"Delta":58327833},{"NoteNumber":78,"Velocity":40,"Duration":151515,"SoundDuration":151515,"Delta":58479349},{"NoteNumber":66,"Velocity":40,"Duration":151515,"SoundDuration":151515,"Delta":58479349},{"NoteNumber":53,"Velocity":50,"Duration":803024,"SoundDuration":803024,"Delta":58630864},{"NoteNumber":61,"Velocity":76,"Duration":1559179,"SoundDuration":1559179,"Delta":58630864},{"NoteNumber":85,"Velocity":54,"Duration":136931,"SoundDuration":136931,"Delta":58781240},{"NoteNumber":73,"Velocity":54,"Duration":136931,"SoundDuration":136931,"Delta":58781240},{"NoteNumber":82,"Velocity":49,"Duration":131363,"SoundDuration":131363,"Delta":58918172},{"NoteNumber":77,"Velocity":49,"Duration":131363,"SoundDuration":131363,"Delta":58918172},{"NoteNumber":34,"Velocity":40,"Duration":261658,"SoundDuration":261658,"Delta":58918172},{"NoteNumber":89,"Velocity":52,"Duration":130294,"SoundDuration":130294,"Delta":59049536},{"NoteNumber":77,"Velocity":52,"Duration":130294,"SoundDuration":130294,"Delta":59049536},{"NoteNumber":85,"Velocity":48,"Duration":129241,"SoundDuration":129241,"Delta":59179830},{"NoteNumber":82,"Velocity":48,"Duration":129241,"SoundDuration":129241,"Delta":59179830},{"NoteNumber":46,"Velocity":41,"Duration":257242,"SoundDuration":257242,"Delta":59179830},{"NoteNumber":85,"Velocity":50,"Duration":128000,"SoundDuration":128000,"Delta":59309072},{"NoteNumber":73,"Velocity":50,"Duration":128000,"SoundDuration":128000,"Delta":59309072},{"NoteNumber":82,"Velocity":47,"Duration":126985,"SoundDuration":126985,"Delta":59437073},{"NoteNumber":77,"Velocity":47,"Duration":126985,"SoundDuration":126985,"Delta":59437073},{"NoteNumber":53,"Velocity":43,"Duration":252970,"SoundDuration":252970,"Delta":59437073},{"NoteNumber":84,"Velocity":48,"Duration":125985,"SoundDuration":125985,"Delta":59564058},{"NoteNumber":72,"Velocity":48,"Duration":125985,"SoundDuration":125985,"Delta":59564058},{"NoteNumber":82,"Velocity":44,"Duration":125000,"SoundDuration":125000,"Delta":59690044},{"NoteNumber":77,"Velocity":44,"Duration":125000,"SoundDuration":125000,"Delta":59690044},{"NoteNumber":58,"Velocity":45,"Duration":250000,"SoundDuration":250000,"Delta":59690044},{"NoteNumber":85,"Velocity":46,"Duration":125000,"SoundDuration":125000,"Delta":59815044},{"NoteNumber":73,"Velocity":46,"Duration":125000,"SoundDuration":125000,"Delta":59815044},{"NoteNumber":82,"Velocity":44,"Duration":125000,"SoundDuration":125000,"Delta":59940044},{"NoteNumber":77,"Velocity":44,"Duration":125000,"SoundDuration":125000,"Delta":59940044},{"NoteNumber":60,"Velocity":47,"Duration":250000,"SoundDuration":250000,"Delta":59940044},{"NoteNumber":84,"Velocity":45,"Duration":125000,"SoundDuration":125000,"Delta":60065044},{"NoteNumber":72,"Velocity":45,"Duration":125000,"SoundDuration":125000,"Delta":60065044},{"NoteNumber":77,"Velocity":45,"Duration":125000,"SoundDuration":125000,"Delta":60190044},{"NoteNumber":61,"Velocity":50,"Duration":249417,"SoundDuration":249417,"Delta":60190044},{"NoteNumber":82,"Velocity":45,"Duration":124417,"SoundDuration":124417,"Delta":60315044},{"NoteNumber":70,"Velocity":45,"Duration":124417,"SoundDuration":124417,"Delta":60315044},{"NoteNumber":77,"Velocity":45,"Duration":125393,"SoundDuration":125393,"Delta":60439461},{"NoteNumber":58,"Velocity":47,"Duration":251776,"SoundDuration":251776,"Delta":60439461},{"NoteNumber":85,"Velocity":45,"Duration":126383,"SoundDuration":126383,"Delta":60564854},{"NoteNumber":73,"Velocity":45,"Duration":126383,"SoundDuration":126383,"Delta":60564854},{"NoteNumber":77,"Velocity":45,"Duration":127592,"SoundDuration":127592,"Delta":60691238},{"NoteNumber":46,"Velocity":48,"Duration":256211,"SoundDuration":256211,"Delta":60691238},{"NoteNumber":53,"Velocity":48,"Duration":256211,"SoundDuration":256211,"Delta":60691238},{"NoteNumber":82,"Velocity":48,"Duration":128618,"SoundDuration":128618,"Delta":60818830},{"NoteNumber":70,"Velocity":48,"Duration":128618,"SoundDuration":128618,"Delta":60818830},{"NoteNumber":73,"Velocity":45,"Duration":146522,"SoundDuration":146522,"Delta":60947449},{"NoteNumber":63,"Velocity":76,"Duration":447023,"SoundDuration":447023,"Delta":60947449},{"NoteNumber":78,"Velocity":49,"Duration":148981,"SoundDuration":148981,"Delta":61093971},{"NoteNumber":66,"Velocity":49,"Duration":148981,"SoundDuration":148981,"Delta":61093971},{"NoteNumber":73,"Velocity":46,"Duration":151519,"SoundDuration":151519,"Delta":61242953},{"NoteNumber":82,"Velocity":50,"Duration":154442,"SoundDuration":154442,"Delta":61394472},{"NoteNumber":70,"Velocity":50,"Duration":154442,"SoundDuration":154442,"Delta":61394472},{"NoteNumber":58,"Velocity":48,"Duration":510652,"SoundDuration":510652,"Delta":61394472},{"NoteNumber":65,"Velocity":81,"Duration":510652,"SoundDuration":510652,"Delta":61394472},{"NoteNumber":73,"Velocity":48,"Duration":171025,"SoundDuration":171025,"Delta":61548915},{"NoteNumber":51,"Velocity":54,"Duration":1853706,"SoundDuration":1853706,"Delta":61627347},{"NoteNumber":77,"Velocity":53,"Duration":185185,"SoundDuration":185185,"Delta":61719940},{"NoteNumber":58,"Velocity":61,"Duration":1007969,"SoundDuration":1007969,"Delta":61719940},{"NoteNumber":61,"Velocity":61,"Duration":915377,"SoundDuration":915377,"Delta":61812532},{"NoteNumber":66,"Velocity":85,"Duration":2478185,"SoundDuration":2478185,"Delta":61905125},{"NoteNumber":85,"Velocity":59,"Duration":138173,"SoundDuration":138173,"Delta":62069060},{"NoteNumber":73,"Velocity":59,"Duration":138173,"SoundDuration":138173,"Delta":62069060},{"NoteNumber":82,"Velocity":56,"Duration":135138,"SoundDuration":135138,"Delta":62207233},{"NoteNumber":78,"Velocity":56,"Duration":135138,"SoundDuration":135138,"Delta":62207233},{"NoteNumber":39,"Velocity":57,"Duration":267373,"SoundDuration":267373,"Delta":62207233},{"NoteNumber":87,"Velocity":59,"Duration":132235,"SoundDuration":132235,"Delta":62342372},{"NoteNumber":75,"Velocity":59,"Duration":132235,"SoundDuration":132235,"Delta":62342372},{"NoteNumber":82,"Velocity":55,"Duration":129456,"SoundDuration":129456,"Delta":62474607},{"NoteNumber":78,"Velocity":55,"Duration":129456,"SoundDuration":129456,"Delta":62474607},{"NoteNumber":46,"Velocity":57,"Duration":256447,"SoundDuration":256447,"Delta":62474607},{"NoteNumber":85,"Velocity":59,"Duration":126990,"SoundDuration":126990,"Delta":62604064},{"NoteNumber":73,"Velocity":59,"Duration":126990,"SoundDuration":126990,"Delta":62604064},{"NoteNumber":78,"Velocity":58,"Duration":125000,"SoundDuration":125000,"Delta":62731054},{"NoteNumber":54,"Velocity":57,"Duration":250000,"SoundDuration":250000,"Delta":62731054},{"NoteNumber":82,"Velocity":58,"Duration":125000,"SoundDuration":125000,"Delta":62856054},{"NoteNumber":70,"Velocity":58,"Duration":125000,"SoundDuration":125000,"Delta":62856054},{"NoteNumber":78,"Velocity":55,"Duration":125000,"SoundDuration":125000,"Delta":62981054},{"NoteNumber":58,"Velocity":57,"Duration":250000,"SoundDuration":250000,"Delta":62981054},{"NoteNumber":84,"Velocity":56,"Duration":125000,"SoundDuration":125000,"Delta":63106054},{"NoteNumber":72,"Velocity":56,"Duration":125000,"SoundDuration":125000,"Delta":63106054},{"NoteNumber":78,"Velocity":53,"Duration":125000,"SoundDuration":125000,"Delta":63231054},{"NoteNumber":61,"Velocity":57,"Duration":250000,"SoundDuration":250000,"Delta":63231054},{"NoteNumber":85,"Velocity":55,"Duration":125000,"SoundDuration":125000,"Delta":63356054},{"NoteNumber":73,"Velocity":55,"Duration":125000,"SoundDuration":125000,"Delta":63356054},{"NoteNumber":84,"Velocity":52,"Duration":150376,"SoundDuration":150376,"Delta":63481054},{"NoteNumber":80,"Velocity":52,"Duration":150376,"SoundDuration":150376,"Delta":63481054},{"NoteNumber":60,"Velocity":55,"Duration":300752,"SoundDuration":300752,"Delta":63481054},{"NoteNumber":56,"Velocity":55,"Duration":300752,"SoundDuration":300752,"Delta":63481054},{"NoteNumber":54,"Velocity":55,"Duration":300752,"SoundDuration":300752,"Delta":63481054},{"NoteNumber":75,"Velocity":54,"Duration":150376,"SoundDuration":150376,"Delta":63631430},{"NoteNumber":87,"Velocity":54,"Duration":150376,"SoundDuration":150376,"Delta":63631430},{"NoteNumber":84,"Velocity":50,"Duration":150375,"SoundDuration":150375,"Delta":63781806},{"NoteNumber":80,"Velocity":50,"Duration":150375,"SoundDuration":150375,"Delta":63781806},{"NoteNumber":44,"Velocity":54,"Duration":300752,"SoundDuration":300752,"Delta":63781806},{"NoteNumber":77,"Velocity":52,"Duration":150376,"SoundDuration":150376,"Delta":63932182},{"NoteNumber":89,"Velocity":52,"Duration":150376,"SoundDuration":150376,"Delta":63932182},{"NoteNumber":68,"Velocity":66,"Duration":451127,"SoundDuration":451127,"Delta":63932182},{"NoteNumber":84,"Velocity":48,"Duration":150375,"SoundDuration":150375,"Delta":64082558},{"NoteNumber":80,"Velocity":48,"Duration":150375,"SoundDuration":150375,"Delta":64082558},{"NoteNumber":54,"Velocity":52,"Duration":1185274,"SoundDuration":1185274,"Delta":64157746},{"NoteNumber":78,"Velocity":51,"Duration":150375,"SoundDuration":150375,"Delta":64232934},{"NoteNumber":90,"Velocity":51,"Duration":150375,"SoundDuration":150375,"Delta":64232934},{"NoteNumber":60,"Velocity":52,"Duration":1110086,"SoundDuration":1110086,"Delta":64232934},{"NoteNumber":63,"Velocity":52,"Duration":1034898,"SoundDuration":1034898,"Delta":64308122},{"NoteNumber":84,"Velocity":47,"Duration":150376,"SoundDuration":150376,"Delta":64383310},{"NoteNumber":87,"Velocity":47,"Duration":150376,"SoundDuration":150376,"Delta":64383310},{"NoteNumber":70,"Velocity":61,"Duration":451128,"SoundDuration":451128,"Delta":64383310},{"NoteNumber":78,"Velocity":48,"Duration":150375,"SoundDuration":150375,"Delta":64533686},{"NoteNumber":90,"Velocity":48,"Duration":150375,"SoundDuration":150375,"Delta":64533686},{"NoteNumber":84,"Velocity":41,"Duration":150376,"SoundDuration":150376,"Delta":64684062},{"NoteNumber":87,"Velocity":41,"Duration":150376,"SoundDuration":150376,"Delta":64684062},{"NoteNumber":92,"Velocity":43,"Duration":150375,"SoundDuration":150375,"Delta":64834438},{"NoteNumber":80,"Velocity":43,"Duration":150375,"SoundDuration":150375,"Delta":64834438},{"NoteNumber":72,"Velocity":58,"Duration":508582,"SoundDuration":508582,"Delta":64834438},{"NoteNumber":87,"Velocity":39,"Duration":169527,"SoundDuration":169527,"Delta":64984814},{"NoteNumber":84,"Velocity":39,"Duration":169527,"SoundDuration":169527,"Delta":64984814},{"NoteNumber":37,"Velocity":35,"Duration":1487041,"SoundDuration":1487041,"Delta":65107172},{"NoteNumber":94,"Velocity":42,"Duration":188679,"SoundDuration":188679,"Delta":65154342},{"NoteNumber":82,"Velocity":42,"Duration":188679,"SoundDuration":188679,"Delta":65154342},{"NoteNumber":44,"Velocity":35,"Duration":754388,"SoundDuration":754388,"Delta":65154342},{"NoteNumber":53,"Velocity":39,"Duration":980734,"SoundDuration":980734,"Delta":65201512},{"NoteNumber":56,"Velocity":39,"Duration":1345532,"SoundDuration":1345532,"Delta":65248681},{"NoteNumber":65,"Velocity":39,"Duration":1298362,"SoundDuration":1298362,"Delta":65295851},{"NoteNumber":85,"Velocity":36,"Duration":143627,"SoundDuration":143627,"Delta":65343021},{"NoteNumber":89,"Velocity":36,"Duration":143627,"SoundDuration":143627,"Delta":65343021},{"NoteNumber":73,"Velocity":54,"Duration":1251192,"SoundDuration":1251192,"Delta":65343021},{"NoteNumber":82,"Velocity":40,"Duration":142350,"SoundDuration":142350,"Delta":65486649},{"NoteNumber":94,"Velocity":40,"Duration":142350,"SoundDuration":142350,"Delta":65486649},{"NoteNumber":89,"Velocity":40,"Duration":140598,"SoundDuration":140598,"Delta":65628999},{"NoteNumber":44,"Velocity":40,"Duration":965214,"SoundDuration":965214,"Delta":65628999},{"NoteNumber":84,"Velocity":42,"Duration":139131,"SoundDuration":139131,"Delta":65769598},{"NoteNumber":96,"Velocity":42,"Duration":139131,"SoundDuration":139131,"Delta":65769598},{"NoteNumber":89,"Velocity":43,"Duration":137458,"SoundDuration":137458,"Delta":65908730},{"NoteNumber":53,"Velocity":40,"Duration":685484,"SoundDuration":685484,"Delta":65908730},{"NoteNumber":85,"Velocity":45,"Duration":136057,"SoundDuration":136057,"Delta":66046189},{"NoteNumber":97,"Velocity":45,"Duration":136057,"SoundDuration":136057,"Delta":66046189},{"NoteNumber":89,"Velocity":47,"Duration":135135,"SoundDuration":135135,"Delta":66182246},{"NoteNumber":61,"Velocity":40,"Duration":270270,"SoundDuration":270270,"Delta":66182246},{"NoteNumber":84,"Velocity":48,"Duration":135135,"SoundDuration":135135,"Delta":66317381},{"NoteNumber":96,"Velocity":48,"Duration":135135,"SoundDuration":135135,"Delta":66317381},{"NoteNumber":89,"Velocity":48,"Duration":141697,"SoundDuration":141697,"Delta":66452517},{"NoteNumber":65,"Velocity":40,"Duration":285582,"SoundDuration":285582,"Delta":66452517},{"NoteNumber":82,"Velocity":48,"Duration":143884,"SoundDuration":143884,"Delta":66594214},{"NoteNumber":94,"Velocity":48,"Duration":143884,"SoundDuration":143884,"Delta":66594214},{"NoteNumber":89,"Velocity":48,"Duration":143884,"SoundDuration":143884,"Delta":66738099},{"NoteNumber":72,"Velocity":50,"Duration":287769,"SoundDuration":287769,"Delta":66738099},{"NoteNumber":80,"Velocity":48,"Duration":143884,"SoundDuration":143884,"Delta":66881984},{"NoteNumber":92,"Velocity":48,"Duration":143884,"SoundDuration":143884,"Delta":66881984},{"NoteNumber":85,"Velocity":46,"Duration":143884,"SoundDuration":143884,"Delta":67025868},{"NoteNumber":61,"Velocity":49,"Duration":1292688,"SoundDuration":1292688,"Delta":67025868},{"NoteNumber":70,"Velocity":49,"Duration":431654,"SoundDuration":431654,"Delta":67025868},{"NoteNumber":78,"Velocity":45,"Duration":143884,"SoundDuration":143884,"Delta":67169753},{"NoteNumber":90,"Velocity":45,"Duration":143884,"SoundDuration":143884,"Delta":67169753},{"NoteNumber":85,"Velocity":45,"Duration":143884,"SoundDuration":143884,"Delta":67313638},{"NoteNumber":77,"Velocity":43,"Duration":143884,"SoundDuration":143884,"Delta":67457523},{"NoteNumber":89,"Velocity":43,"Duration":143884,"SoundDuration":143884,"Delta":67457523},{"NoteNumber":68,"Velocity":49,"Duration":431654,"SoundDuration":431654,"Delta":67457523},{"NoteNumber":80,"Velocity":43,"Duration":143884,"SoundDuration":143884,"Delta":67601408},{"NoteNumber":75,"Velocity":42,"Duration":143884,"SoundDuration":143884,"Delta":67745293},{"NoteNumber":87,"Velocity":42,"Duration":143884,"SoundDuration":143884,"Delta":67745293},{"NoteNumber":80,"Velocity":41,"Duration":143147,"SoundDuration":143147,"Delta":67889177},{"NoteNumber":65,"Velocity":49,"Duration":429379,"SoundDuration":429379,"Delta":67889177},{"NoteNumber":75,"Velocity":42,"Duration":142603,"SoundDuration":142603,"Delta":68032325},{"NoteNumber":87,"Velocity":42,"Duration":142603,"SoundDuration":142603,"Delta":68032325},{"NoteNumber":80,"Velocity":42,"Duration":143627,"SoundDuration":143627,"Delta":68174929},{"NoteNumber":73,"Velocity":42,"Duration":141043,"SoundDuration":141043,"Delta":68318557},{"NoteNumber":85,"Velocity":42,"Duration":144666,"SoundDuration":144666,"Delta":68318557},{"NoteNumber":55,"Velocity":49,"Duration":437178,"SoundDuration":437178,"Delta":68318557},{"NoteNumber":73,"Velocity":42,"Duration":440659,"SoundDuration":440659,"Delta":68463224},{"NoteNumber":37,"Velocity":38,"Duration":512375,"SoundDuration":512375,"Delta":68535952},{"NoteNumber":65,"Velocity":37,"Duration":146790,"SoundDuration":146790,"Delta":68608945},{"NoteNumber":77,"Velocity":42,"Duration":146790,"SoundDuration":146790,"Delta":68608945},{"NoteNumber":44,"Velocity":43,"Duration":981769,"SoundDuration":981769,"Delta":68608945},{"NoteNumber":52,"Velocity":43,"Duration":908508,"SoundDuration":908508,"Delta":68682206},{"NoteNumber":64,"Velocity":35,"Duration":148148,"SoundDuration":148148,"Delta":68755735},{"NoteNumber":76,"Velocity":39,"Duration":148148,"SoundDuration":148148,"Delta":68755735},{"NoteNumber":56,"Velocity":50,"Duration":834979,"SoundDuration":834979,"Delta":68755735},{"NoteNumber":75,"Velocity":43,"Duration":148148,"SoundDuration":148148,"Delta":68903883},{"NoteNumber":87,"Velocity":43,"Duration":148148,"SoundDuration":148148,"Delta":68903883},{"NoteNumber":80,"Velocity":40,"Duration":144223,"SoundDuration":144223,"Delta":69052031},{"NoteNumber":85,"Velocity":40,"Duration":144223,"SoundDuration":144223,"Delta":69052031},{"NoteNumber":37,"Velocity":40,"Duration":276674,"SoundDuration":276674,"Delta":69052031},{"NoteNumber":88,"Velocity":43,"Duration":132450,"SoundDuration":132450,"Delta":69196255},{"NoteNumber":76,"Velocity":43,"Duration":132450,"SoundDuration":132450,"Delta":69196255},{"NoteNumber":85,"Velocity":40,"Duration":132450,"SoundDuration":132450,"Delta":69328705},{"NoteNumber":80,"Velocity":40,"Duration":132450,"SoundDuration":132450,"Delta":69328705},{"NoteNumber":44,"Velocity":40,"Duration":265342,"SoundDuration":265342,"Delta":69328705},{"NoteNumber":87,"Velocity":43,"Duration":132891,"SoundDuration":132891,"Delta":69461156},{"NoteNumber":75,"Velocity":43,"Duration":132891,"SoundDuration":132891,"Delta":69461156},{"NoteNumber":85,"Velocity":39,"Duration":133333,"SoundDuration":133333,"Delta":69594048},{"NoteNumber":80,"Velocity":39,"Duration":133333,"SoundDuration":133333,"Delta":69594048},{"NoteNumber":52,"Velocity":40,"Duration":258333,"SoundDuration":258333,"Delta":69594048},{"NoteNumber":88,"Velocity":43,"Duration":125000,"SoundDuration":125000,"Delta":69727381},{"NoteNumber":76,"Velocity":43,"Duration":125000,"SoundDuration":125000,"Delta":69727381},{"NoteNumber":85,"Velocity":39,"Duration":125000,"SoundDuration":125000,"Delta":69852381},{"NoteNumber":80,"Velocity":39,"Duration":125000,"SoundDuration":125000,"Delta":69852381},{"NoteNumber":56,"Velocity":40,"Duration":250000,"SoundDuration":250000,"Delta":69852381},{"NoteNumber":78,"Velocity":43,"Duration":125000,"SoundDuration":125000,"Delta":69977381},{"NoteNumber":90,"Velocity":43,"Duration":125000,"SoundDuration":125000,"Delta":69977381},{"NoteNumber":85,"Velocity":40,"Duration":125000,"SoundDuration":125000,"Delta":70102381},{"NoteNumber":80,"Velocity":40,"Duration":125000,"SoundDuration":125000,"Delta":70102381},{"NoteNumber":64,"Velocity":40,"Duration":250000,"SoundDuration":250000,"Delta":70102381},{"NoteNumber":88,"Velocity":43,"Duration":125000,"SoundDuration":125000,"Delta":70227381},{"NoteNumber":76,"Velocity":43,"Duration":125000,"SoundDuration":125000,"Delta":70227381},{"NoteNumber":80,"Velocity":41,"Duration":136986,"SoundDuration":136986,"Delta":70352381},{"NoteNumber":58,"Velocity":47,"Duration":413091,"SoundDuration":413091,"Delta":70352381},{"NoteNumber":87,"Velocity":43,"Duration":137694,"SoundDuration":137694,"Delta":70489367},{"NoteNumber":75,"Velocity":43,"Duration":137694,"SoundDuration":137694,"Delta":70489367},{"NoteNumber":80,"Velocity":45,"Duration":138409,"SoundDuration":138409,"Delta":70627062},{"NoteNumber":88,"Velocity":47,"Duration":139374,"SoundDuration":139374,"Delta":70765472},{"NoteNumber":76,"Velocity":47,"Duration":139374,"SoundDuration":139374,"Delta":70765472},{"NoteNumber":59,"Velocity":50,"Duration":420575,"SoundDuration":420575,"Delta":70765472},{"NoteNumber":80,"Velocity":48,"Duration":140106,"SoundDuration":140106,"Delta":70904847},{"NoteNumber":39,"Velocity":38,"Duration":1056229,"SoundDuration":1056229,"Delta":70974777},{"NoteNumber":87,"Velocity":50,"Duration":141094,"SoundDuration":141094,"Delta":71044953},{"NoteNumber":75,"Velocity":50,"Duration":141094,"SoundDuration":141094,"Delta":71044953},{"NoteNumber":49,"Velocity":44,"Duration":986053,"SoundDuration":986053,"Delta":71044953},{"NoteNumber":55,"Velocity":45,"Duration":915630,"SoundDuration":915630,"Delta":71115375},{"NoteNumber":79,"Velocity":53,"Duration":141844,"SoundDuration":141844,"Delta":71186048},{"NoteNumber":61,"Velocity":54,"Duration":425532,"SoundDuration":425532,"Delta":71186048},{"NoteNumber":85,"Velocity":50,"Duration":141843,"SoundDuration":141843,"Delta":71327892},{"NoteNumber":73,"Velocity":50,"Duration":141843,"SoundDuration":141843,"Delta":71327892},{"NoteNumber":79,"Velocity":48,"Duration":141844,"SoundDuration":141844,"Delta":71469736},{"NoteNumber":83,"Velocity":46,"Duration":141843,"SoundDuration":141843,"Delta":71611580},{"NoteNumber":71,"Velocity":46,"Duration":141843,"SoundDuration":141843,"Delta":71611580},{"NoteNumber":63,"Velocity":49,"Duration":419426,"SoundDuration":419426,"Delta":71611580},{"NoteNumber":79,"Velocity":44,"Duration":139887,"SoundDuration":139887,"Delta":71753424},{"NoteNumber":82,"Velocity":43,"Duration":137694,"SoundDuration":137694,"Delta":71893311},{"NoteNumber":70,"Velocity":43,"Duration":137694,"SoundDuration":137694,"Delta":71893311},{"NoteNumber":80,"Velocity":39,"Duration":136986,"SoundDuration":136986,"Delta":72031006},{"NoteNumber":75,"Velocity":39,"Duration":136986,"SoundDuration":136986,"Delta":72031006},{"NoteNumber":44,"Velocity":41,"Duration":269639,"SoundDuration":269639,"Delta":72031006},{"NoteNumber":51,"Velocity":46,"Duration":807091,"SoundDuration":807091,"Delta":72031006},{"NoteNumber":59,"Velocity":51,"Duration":807091,"SoundDuration":807091,"Delta":72031006},{"NoteNumber":82,"Velocity":43,"Duration":136054,"SoundDuration":136054,"Delta":72167992},{"NoteNumber":70,"Velocity":43,"Duration":136054,"SoundDuration":136054,"Delta":72167992},{"NoteNumber":80,"Velocity":39,"Duration":135364,"SoundDuration":135364,"Delta":72304047},{"NoteNumber":75,"Velocity":39,"Duration":135364,"SoundDuration":135364,"Delta":72304047},{"NoteNumber":32,"Velocity":41,"Duration":270046,"SoundDuration":270046,"Delta":72304047},{"NoteNumber":83,"Velocity":43,"Duration":134681,"SoundDuration":134681,"Delta":72439412},{"NoteNumber":71,"Velocity":43,"Duration":134681,"SoundDuration":134681,"Delta":72439412},{"NoteNumber":80,"Velocity":39,"Duration":134004,"SoundDuration":134004,"Delta":72574094},{"NoteNumber":75,"Velocity":39,"Duration":134004,"SoundDuration":134004,"Delta":72574094},{"NoteNumber":44,"Velocity":41,"Duration":267337,"SoundDuration":267337,"Delta":72574094},{"NoteNumber":82,"Velocity":43,"Duration":133333,"SoundDuration":133333,"Delta":72708098},{"NoteNumber":70,"Velocity":43,"Duration":133333,"SoundDuration":133333,"Delta":72708098},{"NoteNumber":75,"Velocity":43,"Duration":132450,"SoundDuration":132450,"Delta":72841431},{"NoteNumber":51,"Velocity":41,"Duration":525902,"SoundDuration":525902,"Delta":72841431},{"NoteNumber":67,"Velocity":43,"Duration":131796,"SoundDuration":131796,"Delta":72973882},{"NoteNumber":79,"Velocity":43,"Duration":131796,"SoundDuration":131796,"Delta":72973882},{"NoteNumber":75,"Velocity":43,"Duration":131149,"SoundDuration":131149,"Delta":73105678},{"NoteNumber":80,"Velocity":43,"Duration":130506,"SoundDuration":130506,"Delta":73236827},{"NoteNumber":68,"Velocity":43,"Duration":130506,"SoundDuration":130506,"Delta":73236827},{"NoteNumber":75,"Velocity":43,"Duration":129870,"SoundDuration":129870,"Delta":73367334},{"NoteNumber":44,"Velocity":41,"Duration":258902,"SoundDuration":258902,"Delta":73367334},{"NoteNumber":82,"Velocity":43,"Duration":129032,"SoundDuration":129032,"Delta":73497204},{"NoteNumber":70,"Velocity":43,"Duration":129032,"SoundDuration":129032,"Delta":73497204},{"NoteNumber":80,"Velocity":39,"Duration":128205,"SoundDuration":128205,"Delta":73626237},{"NoteNumber":75,"Velocity":39,"Duration":128205,"SoundDuration":128205,"Delta":73626237},{"NoteNumber":59,"Velocity":41,"Duration":256410,"SoundDuration":256410,"Delta":73626237},{"NoteNumber":83,"Velocity":43,"Duration":128205,"SoundDuration":128205,"Delta":73754442},{"NoteNumber":71,"Velocity":43,"Duration":128205,"SoundDuration":128205,"Delta":73754442},{"NoteNumber":80,"Velocity":38,"Duration":128205,"SoundDuration":128205,"Delta":73882647},{"NoteNumber":75,"Velocity":38,"Duration":128205,"SoundDuration":128205,"Delta":73882647},{"NoteNumber":51,"Velocity":41,"Duration":256410,"SoundDuration":256410,"Delta":73882647},{"NoteNumber":82,"Velocity":43,"Duration":128205,"SoundDuration":128205,"Delta":74010852},{"NoteNumber":70,"Velocity":43,"Duration":128205,"SoundDuration":128205,"Delta":74010852},{"NoteNumber":80,"Velocity":39,"Duration":128205,"SoundDuration":128205,"Delta":74139057},{"NoteNumber":75,"Velocity":39,"Duration":128205,"SoundDuration":128205,"Delta":74139057},{"NoteNumber":44,"Velocity":41,"Duration":256410,"SoundDuration":256410,"Delta":74139057},{"NoteNumber":83,"Velocity":45,"Duration":128205,"SoundDuration":128205,"Delta":74267263},{"NoteNumber":71,"Velocity":45,"Duration":128205,"SoundDuration":128205,"Delta":74267263},{"NoteNumber":80,"Velocity":40,"Duration":149253,"SoundDuration":149253,"Delta":74395468},{"NoteNumber":62,"Velocity":54,"Duration":447760,"SoundDuration":447760,"Delta":74395468},{"NoteNumber":56,"Velocity":41,"Duration":895521,"SoundDuration":895521,"Delta":74395468},{"NoteNumber":51,"Velocity":41,"Duration":895521,"SoundDuration":895521,"Delta":74395468},{"NoteNumber":82,"Velocity":47,"Duration":149253,"SoundDuration":149253,"Delta":74544721},{"NoteNumber":70,"Velocity":47,"Duration":149253,"SoundDuration":149253,"Delta":74544721},{"NoteNumber":80,"Velocity":43,"Duration":149253,"SoundDuration":149253,"Delta":74693975},{"NoteNumber":83,"Velocity":49,"Duration":149253,"SoundDuration":149253,"Delta":74843229},{"NoteNumber":71,"Velocity":49,"Duration":149253,"SoundDuration":149253,"Delta":74843229},{"NoteNumber":63,"Velocity":57,"Duration":447760,"SoundDuration":447760,"Delta":74843229},{"NoteNumber":80,"Velocity":46,"Duration":149253,"SoundDuration":149253,"Delta":74992482},{"NoteNumber":85,"Velocity":50,"Duration":149253,"SoundDuration":149253,"Delta":75141736},{"NoteNumber":73,"Velocity":50,"Duration":149253,"SoundDuration":149253,"Delta":75141736},{"NoteNumber":83,"Velocity":49,"Duration":132450,"SoundDuration":132450,"Delta":75290990},{"NoteNumber":80,"Velocity":49,"Duration":132450,"SoundDuration":132450,"Delta":75290990},{"NoteNumber":59,"Velocity":55,"Duration":781370,"SoundDuration":781370,"Delta":75290990},{"NoteNumber":56,"Velocity":49,"Duration":1540651,"SoundDuration":1540651,"Delta":75290990},{"NoteNumber":65,"Velocity":55,"Duration":1792204,"SoundDuration":1792204,"Delta":75290990},{"NoteNumber":86,"Velocity":54,"Duration":131796,"SoundDuration":131796,"Delta":75423440},{"NoteNumber":74,"Velocity":54,"Duration":131796,"SoundDuration":131796,"Delta":75423440},{"NoteNumber":83,"Velocity":52,"Duration":131149,"SoundDuration":131149,"Delta":75555237},{"NoteNumber":80,"Velocity":52,"Duration":131149,"SoundDuration":131149,"Delta":75555237},{"NoteNumber":44,"Velocity":45,"Duration":261655,"SoundDuration":261655,"Delta":75555237},{"NoteNumber":87,"Velocity":54,"Duration":130506,"SoundDuration":130506,"Delta":75686386},{"NoteNumber":75,"Velocity":54,"Duration":130506,"SoundDuration":130506,"Delta":75686386},{"NoteNumber":83,"Velocity":51,"Duration":129660,"SoundDuration":129660,"Delta":75816893},{"NoteNumber":80,"Velocity":51,"Duration":129660,"SoundDuration":129660,"Delta":75816893},{"NoteNumber":53,"Velocity":47,"Duration":258693,"SoundDuration":258693,"Delta":75816893},{"NoteNumber":88,"Velocity":54,"Duration":129032,"SoundDuration":129032,"Delta":75946553},{"NoteNumber":76,"Velocity":54,"Duration":129032,"SoundDuration":129032,"Delta":75946553},{"NoteNumber":83,"Velocity":52,"Duration":128205,"SoundDuration":128205,"Delta":76075586},{"NoteNumber":80,"Velocity":52,"Duration":128205,"SoundDuration":128205,"Delta":76075586},{"NoteNumber":59,"Velocity":48,"Duration":255797,"SoundDuration":255797,"Delta":76075586},{"NoteNumber":89,"Velocity":54,"Duration":127592,"SoundDuration":127592,"Delta":76203791},{"NoteNumber":77,"Velocity":54,"Duration":127592,"SoundDuration":127592,"Delta":76203791},{"NoteNumber":83,"Velocity":52,"Duration":126783,"SoundDuration":126783,"Delta":76331384},{"NoteNumber":80,"Velocity":52,"Duration":126783,"SoundDuration":126783,"Delta":76331384},{"NoteNumber":53,"Velocity":50,"Duration":252968,"SoundDuration":252968,"Delta":76331384},{"NoteNumber":88,"Velocity":54,"Duration":126184,"SoundDuration":126184,"Delta":76458167},{"NoteNumber":76,"Velocity":54,"Duration":126184,"SoundDuration":126184,"Delta":76458167},{"NoteNumber":83,"Velocity":52,"Duration":125589,"SoundDuration":125589,"Delta":76584352},{"NoteNumber":80,"Velocity":52,"Duration":125589,"SoundDuration":125589,"Delta":76584352},{"NoteNumber":59,"Velocity":51,"Duration":250395,"SoundDuration":250395,"Delta":76584352},{"NoteNumber":89,"Velocity":54,"Duration":124805,"SoundDuration":124805,"Delta":76709941},{"NoteNumber":77,"Velocity":54,"Duration":124805,"SoundDuration":124805,"Delta":76709941},{"NoteNumber":82,"Velocity":51,"Duration":124223,"SoundDuration":124223,"Delta":76834747},{"NoteNumber":80,"Velocity":51,"Duration":124223,"SoundDuration":124223,"Delta":76834747},{"NoteNumber":56,"Velocity":48,"Duration":248447,"SoundDuration":248447,"Delta":76834747},{"NoteNumber":62,"Velocity":54,"Duration":248447,"SoundDuration":248447,"Delta":76834747},{"NoteNumber":58,"Velocity":48,"Duration":248447,"SoundDuration":248447,"Delta":76834747},{"NoteNumber":86,"Velocity":52,"Duration":124223,"SoundDuration":124223,"Delta":76958971},{"NoteNumber":74,"Velocity":52,"Duration":124223,"SoundDuration":124223,"Delta":76958971},{"NoteNumber":82,"Velocity":49,"Duration":124223,"SoundDuration":124223,"Delta":77083195},{"NoteNumber":80,"Velocity":49,"Duration":124223,"SoundDuration":124223,"Delta":77083195},{"NoteNumber":46,"Velocity":42,"Duration":268629,"SoundDuration":268629,"Delta":77083195},{"NoteNumber":87,"Velocity":50,"Duration":144406,"SoundDuration":144406,"Delta":77207418},{"NoteNumber":75,"Velocity":50,"Duration":144406,"SoundDuration":144406,"Delta":77207418},{"NoteNumber":82,"Velocity":46,"Duration":146522,"SoundDuration":146522,"Delta":77351824},{"NoteNumber":80,"Velocity":46,"Duration":146522,"SoundDuration":146522,"Delta":77351824},{"NoteNumber":66,"Velocity":56,"Duration":295222,"SoundDuration":295222,"Delta":77351824},{"NoteNumber":88,"Velocity":48,"Duration":148700,"SoundDuration":148700,"Delta":77498347},{"NoteNumber":76,"Velocity":48,"Duration":148700,"SoundDuration":148700,"Delta":77498347},{"NoteNumber":82,"Velocity":43,"Duration":150945,"SoundDuration":150945,"Delta":77647047},{"NoteNumber":86,"Velocity":43,"Duration":150945,"SoundDuration":150945,"Delta":77647047},{"NoteNumber":68,"Velocity":59,"Duration":459849,"SoundDuration":459849,"Delta":77647047},{"NoteNumber":62,"Velocity":43,"Duration":983991,"SoundDuration":983991,"Delta":77647047},{"NoteNumber":58,"Velocity":38,"Duration":983991,"SoundDuration":983991,"Delta":77647047},{"NoteNumber":56,"Velocity":38,"Duration":983991,"SoundDuration":983991,"Delta":77647047},{"NoteNumber":89,"Velocity":45,"Duration":153258,"SoundDuration":153258,"Delta":77797993},{"NoteNumber":77,"Velocity":45,"Duration":153258,"SoundDuration":153258,"Delta":77797993},{"NoteNumber":82,"Velocity":41,"Duration":155644,"SoundDuration":155644,"Delta":77951252},{"NoteNumber":86,"Velocity":41,"Duration":155644,"SoundDuration":155644,"Delta":77951252},{"NoteNumber":90,"Velocity":39,"Duration":158105,"SoundDuration":158105,"Delta":78106896},{"NoteNumber":78,"Velocity":39,"Duration":158105,"SoundDuration":158105,"Delta":78106896},{"NoteNumber":70,"Velocity":63,"Duration":524142,"SoundDuration":524142,"Delta":78106896},{"NoteNumber":92,"Velocity":36,"Duration":175560,"SoundDuration":175560,"Delta":78265002},{"NoteNumber":80,"Velocity":36,"Duration":175560,"SoundDuration":175560,"Delta":78265002},{"NoteNumber":39,"Velocity":25,"Duration":683560,"SoundDuration":683560,"Delta":78265002},{"NoteNumber":46,"Velocity":25,"Duration":1110743,"SoundDuration":1110743,"Delta":78345324},{"NoteNumber":94,"Velocity":35,"Duration":190476,"SoundDuration":190476,"Delta":78440562},{"NoteNumber":82,"Velocity":35,"Duration":190476,"SoundDuration":190476,"Delta":78440562},{"NoteNumber":54,"Velocity":25,"Duration":1015504,"SoundDuration":1015504,"Delta":78440562},{"NoteNumber":58,"Velocity":28,"Duration":920266,"SoundDuration":920266,"Delta":78535800},{"NoteNumber":90,"Velocity":31,"Duration":190476,"SoundDuration":190476,"Delta":78631039},{"NoteNumber":87,"Velocity":31,"Duration":190476,"SoundDuration":190476,"Delta":78631039},{"NoteNumber":66,"Velocity":54,"Duration":1821370,"SoundDuration":1821370,"Delta":78631039},{"NoteNumber":99,"Velocity":33,"Duration":130294,"SoundDuration":130294,"Delta":78821515},{"NoteNumber":87,"Velocity":33,"Duration":130294,"SoundDuration":130294,"Delta":78821515},{"NoteNumber":94,"Velocity":31,"Duration":128618,"SoundDuration":128618,"Delta":78951809},{"NoteNumber":90,"Velocity":31,"Duration":128618,"SoundDuration":128618,"Delta":78951809},{"NoteNumber":27,"Velocity":30,"Duration":255805,"SoundDuration":255805,"Delta":78951809},{"NoteNumber":95,"Velocity":33,"Duration":127186,"SoundDuration":127186,"Delta":79080428},{"NoteNumber":83,"Velocity":33,"Duration":127186,"SoundDuration":127186,"Delta":79080428},{"NoteNumber":90,"Velocity":31,"Duration":126184,"SoundDuration":126184,"Delta":79207615},{"NoteNumber":87,"Velocity":31,"Duration":126184,"SoundDuration":126184,"Delta":79207615},{"NoteNumber":39,"Velocity":32,"Duration":251577,"SoundDuration":251577,"Delta":79207615},{"NoteNumber":94,"Velocity":33,"Duration":125393,"SoundDuration":125393,"Delta":79333799},{"NoteNumber":82,"Velocity":33,"Duration":125393,"SoundDuration":125393,"Delta":79333799},{"NoteNumber":90,"Velocity":31,"Duration":124417,"SoundDuration":124417,"Delta":79459192},{"NoteNumber":87,"Velocity":31,"Duration":124417,"SoundDuration":124417,"Delta":79459192},{"NoteNumber":46,"Velocity":34,"Duration":248641,"SoundDuration":248641,"Delta":79459192},{"NoteNumber":95,"Velocity":33,"Duration":124223,"SoundDuration":124223,"Delta":79583610},{"NoteNumber":83,"Velocity":33,"Duration":124223,"SoundDuration":124223,"Delta":79583610},{"NoteNumber":90,"Velocity":31,"Duration":124223,"SoundDuration":124223,"Delta":79707834},{"NoteNumber":87,"Velocity":31,"Duration":124223,"SoundDuration":124223,"Delta":79707834},{"NoteNumber":54,"Velocity":36,"Duration":248447,"SoundDuration":248447,"Delta":79707834},{"NoteNumber":94,"Velocity":33,"Duration":124223,"SoundDuration":124223,"Delta":79832057},{"NoteNumber":82,"Velocity":33,"Duration":124223,"SoundDuration":124223,"Delta":79832057},{"NoteNumber":90,"Velocity":31,"Duration":124223,"SoundDuration":124223,"Delta":79956281},{"NoteNumber":87,"Velocity":31,"Duration":124223,"SoundDuration":124223,"Delta":79956281},{"NoteNumber":58,"Velocity":36,"Duration":248447,"SoundDuration":248447,"Delta":79956281},{"NoteNumber":92,"Velocity":33,"Duration":124223,"SoundDuration":124223,"Delta":80080505},{"NoteNumber":80,"Velocity":33,"Duration":124223,"SoundDuration":124223,"Delta":80080505},{"NoteNumber":87,"Velocity":33,"Duration":123648,"SoundDuration":123648,"Delta":80204728},{"NoteNumber":66,"Velocity":39,"Duration":1541313,"SoundDuration":1541313,"Delta":80204728},{"NoteNumber":90,"Velocity":33,"Duration":124031,"SoundDuration":124031,"Delta":80328377},{"NoteNumber":78,"Velocity":33,"Duration":124031,"SoundDuration":124031,"Delta":80328377},{"NoteNumber":87,"Velocity":33,"Duration":125000,"SoundDuration":125000,"Delta":80452409},{"NoteNumber":58,"Velocity":36,"Duration":250985,"SoundDuration":250985,"Delta":80452409},{"NoteNumber":92,"Velocity":33,"Duration":125985,"SoundDuration":125985,"Delta":80577409},{"NoteNumber":80,"Velocity":33,"Duration":125985,"SoundDuration":125985,"Delta":80577409},{"NoteNumber":87,"Velocity":33,"Duration":126985,"SoundDuration":126985,"Delta":80703394},{"NoteNumber":54,"Velocity":35,"Duration":254782,"SoundDuration":254782,"Delta":80703394},{"NoteNumber":90,"Velocity":33,"Duration":127796,"SoundDuration":127796,"Delta":80830380},{"NoteNumber":78,"Velocity":33,"Duration":127796,"SoundDuration":127796,"Delta":80830380},{"NoteNumber":82,"Velocity":33,"Duration":128825,"SoundDuration":128825,"Delta":80958176},{"NoteNumber":46,"Velocity":34,"Duration":258695,"SoundDuration":258695,"Delta":80958176},{"NoteNumber":77,"Velocity":33,"Duration":129870,"SoundDuration":129870,"Delta":81087002},{"NoteNumber":89,"Velocity":33,"Duration":129870,"SoundDuration":129870,"Delta":81087002},{"NoteNumber":82,"Velocity":33,"Duration":130933,"SoundDuration":130933,"Delta":81216872},{"NoteNumber":39,"Velocity":32,"Duration":262948,"SoundDuration":262948,"Delta":81216872},{"NoteNumber":75,"Velocity":33,"Duration":132014,"SoundDuration":132014,"Delta":81347806},{"NoteNumber":87,"Velocity":33,"Duration":132014,"SoundDuration":132014,"Delta":81347806},{"NoteNumber":78,"Velocity":33,"Duration":132891,"SoundDuration":132891,"Delta":81479821},{"NoteNumber":46,"Velocity":32,"Duration":266220,"SoundDuration":266220,"Delta":81479821},{"NoteNumber":70,"Velocity":33,"Duration":133329,"SoundDuration":133329,"Delta":81612713},{"NoteNumber":82,"Velocity":33,"Duration":133329,"SoundDuration":133329,"Delta":81612713},{"NoteNumber":59,"Velocity":47,"Duration":533089,"SoundDuration":533089,"Delta":81746042},{"NoteNumber":77,"Velocity":35,"Duration":117995,"SoundDuration":117995,"Delta":81863689},{"NoteNumber":71,"Velocity":35,"Duration":117995,"SoundDuration":117995,"Delta":81863689},{"NoteNumber":47,"Velocity":31,"Duration":177690,"SoundDuration":177690,"Delta":81922512},{"NoteNumber":65,"Velocity":33,"Duration":88757,"SoundDuration":88757,"Delta":81981684},{"NoteNumber":78,"Velocity":36,"Duration":119047,"SoundDuration":119047,"Delta":82100203},{"NoteNumber":71,"Velocity":36,"Duration":119047,"SoundDuration":119047,"Delta":82100203},{"NoteNumber":39,"Velocity":31,"Duration":178927,"SoundDuration":178927,"Delta":82100203},{"NoteNumber":66,"Velocity":34,"Duration":119760,"SoundDuration":119760,"Delta":82219251},{"NoteNumber":57,"Velocity":45,"Duration":180181,"SoundDuration":180181,"Delta":82279131},{"NoteNumber":70,"Velocity":35,"Duration":90181,"SoundDuration":90181,"Delta":82339011},{"NoteNumber":66,"Velocity":35,"Duration":90181,"SoundDuration":90181,"Delta":82339011},{"NoteNumber":59,"Velocity":37,"Duration":120847,"SoundDuration":120847,"Delta":82459313},{"NoteNumber":56,"Velocity":51,"Duration":734196,"SoundDuration":734196,"Delta":82459313},{"NoteNumber":71,"Velocity":30,"Duration":90909,"SoundDuration":90909,"Delta":82580160},{"NoteNumber":68,"Velocity":30,"Duration":90909,"SoundDuration":90909,"Delta":82580160},{"NoteNumber":47,"Velocity":33,"Duration":182742,"SoundDuration":182742,"Delta":82640766},{"NoteNumber":63,"Velocity":38,"Duration":121951,"SoundDuration":121951,"Delta":82701557},{"NoteNumber":75,"Velocity":32,"Duration":92024,"SoundDuration":92024,"Delta":82823508},{"NoteNumber":71,"Velocity":32,"Duration":92024,"SoundDuration":92024,"Delta":82823508},{"NoteNumber":40,"Velocity":34,"Duration":184238,"SoundDuration":184238,"Delta":82823508},{"NoteNumber":64,"Velocity":39,"Duration":123267,"SoundDuration":123267,"Delta":82946207},{"NoteNumber":47,"Velocity":34,"Duration":185762,"SoundDuration":185762,"Delta":83007746},{"NoteNumber":76,"Velocity":32,"Duration":92784,"SoundDuration":92784,"Delta":83069475},{"NoteNumber":71,"Velocity":32,"Duration":92784,"SoundDuration":92784,"Delta":83069475},{"NoteNumber":68,"Velocity":40,"Duration":119047,"SoundDuration":119047,"Delta":83193509},{"NoteNumber":63,"Velocity":54,"Duration":719666,"SoundDuration":719666,"Delta":83193509},{"NoteNumber":80,"Velocity":35,"Duration":89285,"SoundDuration":89285,"Delta":83312557},{"NoteNumber":75,"Velocity":35,"Duration":89285,"SoundDuration":89285,"Delta":83312557},{"NoteNumber":59,"Velocity":36,"Duration":179462,"SoundDuration":179462,"Delta":83372081},{"NoteNumber":70,"Velocity":41,"Duration":119760,"SoundDuration":119760,"Delta":83431783},{"NoteNumber":82,"Velocity":36,"Duration":90000,"SoundDuration":90000,"Delta":83551543},{"NoteNumber":75,"Velocity":36,"Duration":90000,"SoundDuration":90000,"Delta":83551543},{"NoteNumber":56,"Velocity":36,"Duration":180362,"SoundDuration":180362,"Delta":83551543},{"NoteNumber":71,"Velocity":42,"Duration":120481,"SoundDuration":120481,"Delta":83671664},{"NoteNumber":51,"Velocity":36,"Duration":181270,"SoundDuration":181270,"Delta":83731905},{"NoteNumber":83,"Velocity":36,"Duration":121029,"SoundDuration":121029,"Delta":83792146},{"NoteNumber":75,"Velocity":36,"Duration":121029,"SoundDuration":121029,"Delta":83792146},{"NoteNumber":71,"Velocity":41,"Duration":90909,"SoundDuration":90909,"Delta":83913176},{"NoteNumber":61,"Velocity":56,"Duration":549350,"SoundDuration":549350,"Delta":83913176},{"NoteNumber":82,"Velocity":44,"Duration":121951,"SoundDuration":121951,"Delta":84034388},{"NoteNumber":76,"Velocity":44,"Duration":121951,"SoundDuration":121951,"Delta":84034388},{"NoteNumber":52,"Velocity":38,"Duration":183113,"SoundDuration":183113,"Delta":84095364},{"NoteNumber":70,"Velocity":42,"Duration":91463,"SoundDuration":91463,"Delta":84156339},{"NoteNumber":83,"Velocity":45,"Duration":122699,"SoundDuration":122699,"Delta":84278478},{"NoteNumber":76,"Velocity":45,"Duration":122699,"SoundDuration":122699,"Delta":84278478},{"NoteNumber":42,"Velocity":38,"Duration":184049,"SoundDuration":184049,"Delta":84278478},{"NoteNumber":71,"Velocity":42,"Duration":92213,"SoundDuration":92213,"Delta":84401177},{"NoteNumber":59,"Velocity":56,"Duration":185185,"SoundDuration":185185,"Delta":84462527},{"NoteNumber":85,"Velocity":45,"Duration":123456,"SoundDuration":123456,"Delta":84524255},{"NoteNumber":76,"Velocity":45,"Duration":123456,"SoundDuration":123456,"Delta":84524255},{"NoteNumber":73,"Velocity":43,"Duration":92592,"SoundDuration":92592,"Delta":84647712},{"NoteNumber":58,"Velocity":61,"Duration":736965,"SoundDuration":736965,"Delta":84647712},{"NoteNumber":75,"Velocity":45,"Duration":123456,"SoundDuration":123456,"Delta":84771169},{"NoteNumber":81,"Velocity":45,"Duration":123456,"SoundDuration":123456,"Delta":84771169},{"NoteNumber":51,"Velocity":48,"Duration":184617,"SoundDuration":184617,"Delta":84832897},{"NoteNumber":69,"Velocity":45,"Duration":92213,"SoundDuration":92213,"Delta":84894626},{"NoteNumber":75,"Velocity":45,"Duration":122699,"SoundDuration":122699,"Delta":85017514},{"NoteNumber":82,"Velocity":45,"Duration":122699,"SoundDuration":122699,"Delta":85017514},{"NoteNumber":43,"Velocity":48,"Duration":184049,"SoundDuration":184049,"Delta":85017514},{"NoteNumber":70,"Velocity":45,"Duration":122512,"SoundDuration":122512,"Delta":85140214},{"NoteNumber":51,"Velocity":48,"Duration":183113,"SoundDuration":183113,"Delta":85201563},{"NoteNumber":74,"Velocity":42,"Duration":91463,"SoundDuration":91463,"Delta":85262726},{"NoteNumber":70,"Velocity":42,"Duration":91463,"SoundDuration":91463,"Delta":85262726},{"NoteNumber":63,"Velocity":48,"Duration":121951,"SoundDuration":121951,"Delta":85384677},{"NoteNumber":59,"Velocity":64,"Duration":726553,"SoundDuration":726553,"Delta":85384677},{"NoteNumber":75,"Velocity":40,"Duration":91093,"SoundDuration":91093,"Delta":85506628},{"NoteNumber":71,"Velocity":40,"Duration":91093,"SoundDuration":91093,"Delta":85506628},{"NoteNumber":51,"Velocity":56,"Duration":181818,"SoundDuration":181818,"Delta":85567419},{"NoteNumber":67,"Velocity":49,"Duration":121212,"SoundDuration":121212,"Delta":85628025},{"NoteNumber":75,"Velocity":40,"Duration":90909,"SoundDuration":90909,"Delta":85749237},{"NoteNumber":79,"Velocity":40,"Duration":90909,"SoundDuration":90909,"Delta":85749237},{"NoteNumber":44,"Velocity":56,"Duration":181270,"SoundDuration":181270,"Delta":85749237},{"NoteNumber":68,"Velocity":50,"Duration":120482,"SoundDuration":120482,"Delta":85870267},{"NoteNumber":51,"Velocity":56,"Duration":180723,"SoundDuration":180723,"Delta":85930508},{"NoteNumber":75,"Velocity":41,"Duration":90361,"SoundDuration":90361,"Delta":85990749},{"NoteNumber":80,"Velocity":41,"Duration":90361,"SoundDuration":90361,"Delta":85990749},{"NoteNumber":66,"Velocity":72,"Duration":1077844,"SoundDuration":1077844,"Delta":86111231},{"NoteNumber":83,"Velocity":53,"Duration":119760,"SoundDuration":119760,"Delta":86230991},{"NoteNumber":78,"Velocity":53,"Duration":119760,"SoundDuration":119760,"Delta":86230991},{"NoteNumber":63,"Velocity":58,"Duration":179640,"SoundDuration":179640,"Delta":86290872},{"NoteNumber":71,"Velocity":52,"Duration":89820,"SoundDuration":89820,"Delta":86350752},{"NoteNumber":85,"Velocity":54,"Duration":119760,"SoundDuration":119760,"Delta":86470512},{"NoteNumber":78,"Velocity":54,"Duration":119760,"SoundDuration":119760,"Delta":86470512},{"NoteNumber":59,"Velocity":58,"Duration":179640,"SoundDuration":179640,"Delta":86470512},{"NoteNumber":73,"Velocity":54,"Duration":89820,"SoundDuration":89820,"Delta":86590273},{"NoteNumber":54,"Velocity":58,"Duration":179640,"SoundDuration":179640,"Delta":86650153},{"NoteNumber":87,"Velocity":56,"Duration":119760,"SoundDuration":119760,"Delta":86710033},{"NoteNumber":78,"Velocity":56,"Duration":119760,"SoundDuration":119760,"Delta":86710033},{"NoteNumber":75,"Velocity":54,"Duration":89820,"SoundDuration":89820,"Delta":86829794},{"NoteNumber":46,"Velocity":58,"Duration":179640,"SoundDuration":179640,"Delta":86829794},{"NoteNumber":87,"Velocity":56,"Duration":119760,"SoundDuration":119760,"Delta":86949554},{"NoteNumber":82,"Velocity":56,"Duration":119760,"SoundDuration":119760,"Delta":86949554},{"NoteNumber":54,"Velocity":58,"Duration":179640,"SoundDuration":179640,"Delta":87009435},{"NoteNumber":75,"Velocity":54,"Duration":89820,"SoundDuration":89820,"Delta":87069315},{"NoteNumber":89,"Velocity":58,"Duration":119760,"SoundDuration":119760,"Delta":87189075},{"NoteNumber":82,"Velocity":58,"Duration":119760,"SoundDuration":119760,"Delta":87189075},{"NoteNumber":65,"Velocity":72,"Duration":179640,"SoundDuration":179640,"Delta":87189075},{"NoteNumber":77,"Velocity":56,"Duration":89820,"SoundDuration":89820,"Delta":87308836},{"NoteNumber":63,"Velocity":72,"Duration":179640,"SoundDuration":179640,"Delta":87368716},{"NoteNumber":47,"Velocity":72,"Duration":384730,"SoundDuration":384730,"Delta":87413626},{"NoteNumber":90,"Velocity":60,"Duration":119760,"SoundDuration":119760,"Delta":87428596},{"NoteNumber":82,"Velocity":60,"Duration":119760,"SoundDuration":119760,"Delta":87428596},{"NoteNumber":54,"Velocity":81,"Duration":339820,"SoundDuration":339820,"Delta":87458537},{"NoteNumber":57,"Velocity":81,"Duration":294910,"SoundDuration":294910,"Delta":87503447},{"NoteNumber":78,"Velocity":63,"Duration":93750,"SoundDuration":93750,"Delta":87548357},{"NoteNumber":63,"Velocity":81,"Duration":250000,"SoundDuration":250000,"Delta":87548357},{"NoteNumber":89,"Velocity":63,"Duration":125000,"SoundDuration":125000,"Delta":87673357},{"NoteNumber":87,"Velocity":63,"Duration":125000,"SoundDuration":125000,"Delta":87673357},{"NoteNumber":81,"Velocity":63,"Duration":125000,"SoundDuration":125000,"Delta":87673357},{"NoteNumber":77,"Velocity":63,"Duration":114503,"SoundDuration":114503,"Delta":87798357},{"NoteNumber":71,"Velocity":89,"Duration":152671,"SoundDuration":152671,"Delta":87798357},{"NoteNumber":90,"Velocity":63,"Duration":152671,"SoundDuration":152671,"Delta":87951029},{"NoteNumber":87,"Velocity":63,"Duration":152671,"SoundDuration":152671,"Delta":87951029},{"NoteNumber":81,"Velocity":63,"Duration":152671,"SoundDuration":152671,"Delta":87951029},{"NoteNumber":66,"Velocity":89,"Duration":663859,"SoundDuration":663859,"Delta":87951029},{"NoteNumber":78,"Velocity":63,"Duration":96153,"SoundDuration":96153,"Delta":88103701},{"NoteNumber":82,"Velocity":56,"Duration":128205,"SoundDuration":128205,"Delta":88231906},{"NoteNumber":78,"Velocity":56,"Duration":128205,"SoundDuration":128205,"Delta":88231906},{"NoteNumber":75,"Velocity":56,"Duration":128205,"SoundDuration":128205,"Delta":88231906},{"NoteNumber":70,"Velocity":57,"Duration":95541,"SoundDuration":95541,"Delta":88360111},{"NoteNumber":83,"Velocity":58,"Duration":127388,"SoundDuration":127388,"Delta":88487499},{"NoteNumber":78,"Velocity":58,"Duration":127388,"SoundDuration":127388,"Delta":88487499},{"NoteNumber":75,"Velocity":58,"Duration":127388,"SoundDuration":127388,"Delta":88487499},{"NoteNumber":71,"Velocity":60,"Duration":94936,"SoundDuration":94936,"Delta":88614888},{"NoteNumber":63,"Velocity":80,"Duration":126582,"SoundDuration":126582,"Delta":88614888},{"NoteNumber":86,"Velocity":61,"Duration":126383,"SoundDuration":126383,"Delta":88741470},{"NoteNumber":83,"Velocity":61,"Duration":126383,"SoundDuration":126383,"Delta":88741470},{"NoteNumber":78,"Velocity":61,"Duration":126383,"SoundDuration":126383,"Delta":88741470},{"NoteNumber":59,"Velocity":83,"Duration":252169,"SoundDuration":252169,"Delta":88741470},{"NoteNumber":74,"Velocity":62,"Duration":94339,"SoundDuration":94339,"Delta":88867854},{"NoteNumber":87,"Velocity":63,"Duration":125589,"SoundDuration":125589,"Delta":88993640},{"NoteNumber":83,"Velocity":63,"Duration":125589,"SoundDuration":125589,"Delta":88993640},{"NoteNumber":78,"Velocity":63,"Duration":125589,"SoundDuration":125589,"Delta":88993640},{"NoteNumber":54,"Velocity":80,"Duration":125589,"SoundDuration":125589,"Delta":88993640},{"NoteNumber":75,"Velocity":63,"Duration":93750,"SoundDuration":93750,"Delta":89119229},{"NoteNumber":47,"Velocity":83,"Duration":248676,"SoundDuration":248676,"Delta":89119229},{"NoteNumber":51,"Velocity":83,"Duration":248676,"SoundDuration":248676,"Delta":89119229},{"NoteNumber":89,"Velocity":64,"Duration":123676,"SoundDuration":123676,"Delta":89244229},{"NoteNumber":87,"Velocity":64,"Duration":123676,"SoundDuration":123676,"Delta":89244229},{"NoteNumber":82,"Velocity":64,"Duration":123676,"SoundDuration":123676,"Delta":89244229},{"NoteNumber":77,"Velocity":65,"Duration":107142,"SoundDuration":107142,"Delta":89367906},{"NoteNumber":70,"Velocity":90,"Duration":142857,"SoundDuration":142857,"Delta":89367906},{"NoteNumber":90,"Velocity":66,"Duration":137263,"SoundDuration":137263,"Delta":89510763},{"NoteNumber":87,"Velocity":66,"Duration":137263,"SoundDuration":137263,"Delta":89510763},{"NoteNumber":82,"Velocity":66,"Duration":137263,"SoundDuration":137263,"Delta":89510763},{"NoteNumber":66,"Velocity":90,"Duration":628060,"SoundDuration":628060,"Delta":89510763},{"NoteNumber":78,"Velocity":68,"Duration":92024,"SoundDuration":92024,"Delta":89648026},{"NoteNumber":81,"Velocity":61,"Duration":122699,"SoundDuration":122699,"Delta":89770726},{"NoteNumber":78,"Velocity":61,"Duration":122699,"SoundDuration":122699,"Delta":89770726},{"NoteNumber":75,"Velocity":61,"Duration":122699,"SoundDuration":122699,"Delta":89770726},{"NoteNumber":69,"Velocity":61,"Duration":92024,"SoundDuration":92024,"Delta":89893425},{"NoteNumber":82,"Velocity":62,"Duration":122699,"SoundDuration":122699,"Delta":90016124},{"NoteNumber":78,"Velocity":62,"Duration":122699,"SoundDuration":122699,"Delta":90016124},{"NoteNumber":75,"Velocity":62,"Duration":122699,"SoundDuration":122699,"Delta":90016124},{"NoteNumber":70,"Velocity":63,"Duration":92024,"SoundDuration":92024,"Delta":90138824},{"NoteNumber":63,"Velocity":80,"Duration":122699,"SoundDuration":122699,"Delta":90138824},{"NoteNumber":86,"Velocity":63,"Duration":122699,"SoundDuration":122699,"Delta":90261523},{"NoteNumber":82,"Velocity":63,"Duration":122699,"SoundDuration":122699,"Delta":90261523},{"NoteNumber":78,"Velocity":63,"Duration":122699,"SoundDuration":122699,"Delta":90261523},{"NoteNumber":58,"Velocity":81,"Duration":245398,"SoundDuration":245398,"Delta":90261523},{"NoteNumber":74,"Velocity":64,"Duration":92024,"SoundDuration":92024,"Delta":90384222},{"NoteNumber":87,"Velocity":65,"Duration":122699,"SoundDuration":122699,"Delta":90506922},{"NoteNumber":82,"Velocity":65,"Duration":122699,"SoundDuration":122699,"Delta":90506922},{"NoteNumber":78,"Velocity":65,"Duration":122699,"SoundDuration":122699,"Delta":90506922},{"NoteNumber":54,"Velocity":80,"Duration":122699,"SoundDuration":122699,"Delta":90506922},{"NoteNumber":75,"Velocity":66,"Duration":93167,"SoundDuration":93167,"Delta":90629621},{"NoteNumber":49,"Velocity":81,"Duration":248447,"SoundDuration":248447,"Delta":90629621},{"NoteNumber":52,"Velocity":81,"Duration":248447,"SoundDuration":248447,"Delta":90629621},{"NoteNumber":88,"Velocity":67,"Duration":124223,"SoundDuration":124223,"Delta":90753845},{"NoteNumber":82,"Velocity":67,"Duration":124223,"SoundDuration":124223,"Delta":90753845},{"NoteNumber":76,"Velocity":68,"Duration":103448,"SoundDuration":103448,"Delta":90878068},{"NoteNumber":70,"Velocity":89,"Duration":137930,"SoundDuration":137930,"Delta":90878068},{"NoteNumber":89,"Velocity":69,"Duration":137931,"SoundDuration":137931,"Delta":91015999},{"NoteNumber":82,"Velocity":69,"Duration":137931,"SoundDuration":137931,"Delta":91015999},{"NoteNumber":66,"Velocity":89,"Duration":689655,"SoundDuration":689655,"Delta":91015999},{"NoteNumber":77,"Velocity":71,"Duration":103448,"SoundDuration":103448,"Delta":91153930},{"NoteNumber":90,"Velocity":72,"Duration":137930,"SoundDuration":137930,"Delta":91291861},{"NoteNumber":88,"Velocity":72,"Duration":137930,"SoundDuration":137930,"Delta":91291861},{"NoteNumber":82,"Velocity":72,"Duration":137930,"SoundDuration":137930,"Delta":91291861},{"NoteNumber":78,"Velocity":73,"Duration":103448,"SoundDuration":103448,"Delta":91429792},{"NoteNumber":88,"Velocity":75,"Duration":137930,"SoundDuration":137930,"Delta":91567723},{"NoteNumber":82,"Velocity":75,"Duration":137930,"SoundDuration":137930,"Delta":91567723},{"NoteNumber":76,"Velocity":69,"Duration":103448,"SoundDuration":103448,"Delta":91705654},{"NoteNumber":52,"Velocity":80,"Duration":137931,"SoundDuration":137931,"Delta":91705654},{"NoteNumber":64,"Velocity":80,"Duration":137931,"SoundDuration":137931,"Delta":91705654},{"NoteNumber":89,"Velocity":71,"Duration":137930,"SoundDuration":137930,"Delta":91843585},{"NoteNumber":82,"Velocity":71,"Duration":137930,"SoundDuration":137930,"Delta":91843585},{"NoteNumber":49,"Velocity":81,"Duration":272685,"SoundDuration":272685,"Delta":91843585},{"NoteNumber":61,"Velocity":81,"Duration":272685,"SoundDuration":272685,"Delta":91843585},{"NoteNumber":77,"Velocity":72,"Duration":101860,"SoundDuration":101860,"Delta":91981516},{"NoteNumber":90,"Velocity":72,"Duration":132014,"SoundDuration":132014,"Delta":92116271},{"NoteNumber":82,"Velocity":72,"Duration":132014,"SoundDuration":132014,"Delta":92116271},{"NoteNumber":88,"Velocity":72,"Duration":132014,"SoundDuration":132014,"Delta":92116271},{"NoteNumber":46,"Velocity":81,"Duration":132014,"SoundDuration":132014,"Delta":92116271},{"NoteNumber":58,"Velocity":81,"Duration":132014,"SoundDuration":132014,"Delta":92116271},{"NoteNumber":78,"Velocity":74,"Duration":100223,"SoundDuration":100223,"Delta":92248286},{"NoteNumber":42,"Velocity":82,"Duration":269838,"SoundDuration":269838,"Delta":92248286},{"NoteNumber":54,"Velocity":82,"Duration":269838,"SoundDuration":269838,"Delta":92248286},{"NoteNumber":88,"Velocity":76,"Duration":136057,"SoundDuration":136057,"Delta":92382067},{"NoteNumber":82,"Velocity":76,"Duration":136057,"SoundDuration":136057,"Delta":92382067},{"NoteNumber":76,"Velocity":72,"Duration":103687,"SoundDuration":103687,"Delta":92518124},{"NoteNumber":40,"Velocity":81,"Duration":138652,"SoundDuration":138652,"Delta":92518124},{"NoteNumber":52,"Velocity":81,"Duration":138652,"SoundDuration":138652,"Delta":92518124},{"NoteNumber":89,"Velocity":72,"Duration":141098,"SoundDuration":141098,"Delta":92656777},{"NoteNumber":82,"Velocity":72,"Duration":141098,"SoundDuration":141098,"Delta":92656777},{"NoteNumber":37,"Velocity":84,"Duration":284729,"SoundDuration":284729,"Delta":92656777},{"NoteNumber":49,"Velocity":84,"Duration":284729,"SoundDuration":284729,"Delta":92656777},{"NoteNumber":77,"Velocity":74,"Duration":107399,"SoundDuration":107399,"Delta":92797875},{"NoteNumber":90,"Velocity":76,"Duration":146257,"SoundDuration":146257,"Delta":92941507},{"NoteNumber":82,"Velocity":76,"Duration":146257,"SoundDuration":146257,"Delta":92941507},{"NoteNumber":88,"Velocity":76,"Duration":146257,"SoundDuration":146257,"Delta":92941507},{"NoteNumber":34,"Velocity":87,"Duration":146257,"SoundDuration":146257,"Delta":92941507},{"NoteNumber":46,"Velocity":87,"Duration":146257,"SoundDuration":146257,"Delta":92941507},{"NoteNumber":78,"Velocity":77,"Duration":111663,"SoundDuration":111663,"Delta":93087765},{"NoteNumber":30,"Velocity":81,"Duration":301644,"SoundDuration":301644,"Delta":93087765},{"NoteNumber":42,"Velocity":90,"Duration":301644,"SoundDuration":301644,"Delta":93087765},{"NoteNumber":89,"Velocity":79,"Duration":152387,"SoundDuration":152387,"Delta":93237023},{"NoteNumber":82,"Velocity":79,"Duration":152387,"SoundDuration":152387,"Delta":93237023},{"NoteNumber":77,"Velocity":74,"Duration":115980,"SoundDuration":115980,"Delta":93389410},{"NoteNumber":28,"Velocity":78,"Duration":155043,"SoundDuration":155043,"Delta":93389410},{"NoteNumber":40,"Velocity":87,"Duration":155043,"SoundDuration":155043,"Delta":93389410},{"NoteNumber":90,"Velocity":77,"Duration":158105,"SoundDuration":158105,"Delta":93544453},{"NoteNumber":82,"Velocity":77,"Duration":158105,"SoundDuration":158105,"Delta":93544453},{"NoteNumber":25,"Velocity":81,"Duration":316835,"SoundDuration":316835,"Delta":93544453},{"NoteNumber":37,"Velocity":90,"Duration":316835,"SoundDuration":316835,"Delta":93544453},{"NoteNumber":78,"Velocity":81,"Duration":119047,"SoundDuration":119047,"Delta":93702558},{"NoteNumber":91,"Velocity":91,"Duration":327868,"SoundDuration":327868,"Delta":93861289},{"NoteNumber":88,"Velocity":91,"Duration":327868,"SoundDuration":327868,"Delta":93861289},{"NoteNumber":82,"Velocity":81,"Duration":327868,"SoundDuration":327868,"Delta":93861289},{"NoteNumber":79,"Velocity":81,"Duration":327868,"SoundDuration":327868,"Delta":93861289},{"NoteNumber":24,"Velocity":91,"Duration":327868,"SoundDuration":327868,"Delta":93861289},{"NoteNumber":88,"Velocity":91,"Duration":757575,"SoundDuration":757575,"Delta":94189157},{"NoteNumber":82,"Velocity":91,"Duration":757575,"SoundDuration":757575,"Delta":94189157},{"NoteNumber":79,"Velocity":81,"Duration":757575,"SoundDuration":757575,"Delta":94189157},{"NoteNumber":76,"Velocity":81,"Duration":757575,"SoundDuration":757575,"Delta":94189157},{"NoteNumber":36,"Velocity":97,"Duration":151515,"SoundDuration":151515,"Delta":94189157},{"NoteNumber":55,"Velocity":69,"Duration":151515,"SoundDuration":151515,"Delta":94340673},{"NoteNumber":58,"Velocity":72,"Duration":151515,"SoundDuration":151515,"Delta":94492188},{"NoteNumber":64,"Velocity":72,"Duration":151515,"SoundDuration":151515,"Delta":94643703},{"NoteNumber":65,"Velocity":74,"Duration":151515,"SoundDuration":151515,"Delta":94795218},{"NoteNumber":74,"Velocity":80,"Duration":143939,"SoundDuration":143939,"Delta":94946733},{"NoteNumber":79,"Velocity":80,"Duration":143939,"SoundDuration":143939,"Delta":94946733},{"NoteNumber":82,"Velocity":89,"Duration":143939,"SoundDuration":143939,"Delta":94946733},{"NoteNumber":86,"Velocity":89,"Duration":143939,"SoundDuration":143939,"Delta":94946733},{"NoteNumber":67,"Velocity":76,"Duration":151515,"SoundDuration":151515,"Delta":94946733},{"NoteNumber":84,"Velocity":89,"Duration":757575,"SoundDuration":757575,"Delta":95098248},{"NoteNumber":82,"Velocity":89,"Duration":757575,"SoundDuration":757575,"Delta":95098248},{"NoteNumber":79,"Velocity":80,"Duration":757575,"SoundDuration":757575,"Delta":95098248},{"NoteNumber":72,"Velocity":80,"Duration":757575,"SoundDuration":757575,"Delta":95098248},{"NoteNumber":64,"Velocity":80,"Duration":454545,"SoundDuration":454545,"Delta":95098248},{"NoteNumber":58,"Velocity":80,"Duration":454545,"SoundDuration":454545,"Delta":95098248},{"NoteNumber":57,"Velocity":75,"Duration":151515,"SoundDuration":151515,"Delta":95552794},{"NoteNumber":55,"Velocity":73,"Duration":151515,"SoundDuration":151515,"Delta":95704309},{"NoteNumber":69,"Velocity":76,"Duration":151515,"SoundDuration":151515,"Delta":95855824},{"NoteNumber":72,"Velocity":76,"Duration":151515,"SoundDuration":151515,"Delta":95855824},{"NoteNumber":76,"Velocity":76,"Duration":151515,"SoundDuration":151515,"Delta":95855824},{"NoteNumber":81,"Velocity":76,"Duration":151515,"SoundDuration":151515,"Delta":95855824},{"NoteNumber":48,"Velocity":72,"Duration":151515,"SoundDuration":151515,"Delta":95855824},{"NoteNumber":67,"Velocity":68,"Duration":301136,"SoundDuration":301136,"Delta":96007339},{"NoteNumber":72,"Velocity":68,"Duration":301136,"SoundDuration":301136,"Delta":96007339},{"NoteNumber":76,"Velocity":76,"Duration":301136,"SoundDuration":301136,"Delta":96007339},{"NoteNumber":79,"Velocity":76,"Duration":301136,"SoundDuration":301136,"Delta":96007339},{"NoteNumber":55,"Velocity":71,"Duration":301136,"SoundDuration":301136,"Delta":96007339},{"NoteNumber":58,"Velocity":71,"Duration":301136,"SoundDuration":301136,"Delta":96007339},{"NoteNumber":64,"Velocity":68,"Duration":149621,"SoundDuration":149621,"Delta":96310370},{"NoteNumber":70,"Velocity":76,"Duration":149621,"SoundDuration":149621,"Delta":96310370},{"NoteNumber":76,"Velocity":76,"Duration":149621,"SoundDuration":149621,"Delta":96310370},{"NoteNumber":55,"Velocity":72,"Duration":149621,"SoundDuration":149621,"Delta":96310370},{"NoteNumber":58,"Velocity":72,"Duration":149621,"SoundDuration":149621,"Delta":96310370},{"NoteNumber":62,"Velocity":68,"Duration":301136,"SoundDuration":301136,"Delta":96461885},{"NoteNumber":70,"Velocity":76,"Duration":301136,"SoundDuration":301136,"Delta":96461885},{"NoteNumber":74,"Velocity":76,"Duration":301136,"SoundDuration":301136,"Delta":96461885},{"NoteNumber":53,"Velocity":72,"Duration":301136,"SoundDuration":301136,"Delta":96461885},{"NoteNumber":58,"Velocity":72,"Duration":301136,"SoundDuration":301136,"Delta":96461885},{"NoteNumber":60,"Velocity":68,"Duration":149621,"SoundDuration":149621,"Delta":96764915},{"NoteNumber":70,"Velocity":76,"Duration":149621,"SoundDuration":149621,"Delta":96764915},{"NoteNumber":72,"Velocity":76,"Duration":149621,"SoundDuration":149621,"Delta":96764915},{"NoteNumber":52,"Velocity":72,"Duration":149621,"SoundDuration":149621,"Delta":96764915},{"NoteNumber":58,"Velocity":72,"Duration":149621,"SoundDuration":149621,"Delta":96764915},{"NoteNumber":60,"Velocity":69,"Duration":134228,"SoundDuration":134228,"Delta":96916430},{"NoteNumber":69,"Velocity":69,"Duration":134228,"SoundDuration":134228,"Delta":96916430},{"NoteNumber":48,"Velocity":72,"Duration":402684,"SoundDuration":402684,"Delta":96916430},{"NoteNumber":58,"Velocity":72,"Duration":402684,"SoundDuration":402684,"Delta":96916430},{"NoteNumber":67,"Velocity":69,"Duration":134228,"SoundDuration":134228,"Delta":97050659},{"NoteNumber":64,"Velocity":69,"Duration":134228,"SoundDuration":134228,"Delta":97184887},{"NoteNumber":62,"Velocity":69,"Duration":134228,"SoundDuration":134228,"Delta":97319115},{"NoteNumber":50,"Velocity":63,"Duration":134228,"SoundDuration":134228,"Delta":97319115},{"NoteNumber":60,"Velocity":69,"Duration":134228,"SoundDuration":134228,"Delta":97453343},{"NoteNumber":48,"Velocity":63,"Duration":134228,"SoundDuration":134228,"Delta":97453343},{"NoteNumber":70,"Velocity":72,"Duration":163223,"SoundDuration":163223,"Delta":97587571},{"NoteNumber":79,"Velocity":81,"Duration":163223,"SoundDuration":163223,"Delta":97587571},{"NoteNumber":76,"Velocity":81,"Duration":163223,"SoundDuration":163223,"Delta":97587571},{"NoteNumber":67,"Velocity":72,"Duration":163223,"SoundDuration":163223,"Delta":97587571},{"NoteNumber":43,"Velocity":61,"Duration":165289,"SoundDuration":165289,"Delta":97587571},{"NoteNumber":64,"Velocity":72,"Duration":746268,"SoundDuration":746268,"Delta":97752861},{"NoteNumber":67,"Velocity":72,"Duration":746268,"SoundDuration":746268,"Delta":97752861},{"NoteNumber":70,"Velocity":81,"Duration":746268,"SoundDuration":746268,"Delta":97752861},{"NoteNumber":76,"Velocity":81,"Duration":746268,"SoundDuration":746268,"Delta":97752861},{"NoteNumber":36,"Velocity":63,"Duration":149253,"SoundDuration":149253,"Delta":97752861},{"NoteNumber":43,"Velocity":63,"Duration":149253,"SoundDuration":149253,"Delta":97902114},{"NoteNumber":48,"Velocity":64,"Duration":149253,"SoundDuration":149253,"Delta":98051368},{"NoteNumber":52,"Velocity":64,"Duration":149253,"SoundDuration":149253,"Delta":98200622},{"NoteNumber":53,"Velocity":65,"Duration":149253,"SoundDuration":149253,"Delta":98349875},{"NoteNumber":62,"Velocity":72,"Duration":147387,"SoundDuration":147387,"Delta":98499129},{"NoteNumber":67,"Velocity":72,"Duration":147387,"SoundDuration":147387,"Delta":98499129},{"NoteNumber":70,"Velocity":81,"Duration":147387,"SoundDuration":147387,"Delta":98499129},{"NoteNumber":74,"Velocity":81,"Duration":147387,"SoundDuration":147387,"Delta":98499129},{"NoteNumber":55,"Velocity":66,"Duration":149253,"SoundDuration":149253,"Delta":98499129},{"NoteNumber":60,"Velocity":72,"Duration":746268,"SoundDuration":746268,"Delta":98648383},{"NoteNumber":67,"Velocity":81,"Duration":746268,"SoundDuration":746268,"Delta":98648383},{"NoteNumber":72,"Velocity":81,"Duration":746268,"SoundDuration":746268,"Delta":98648383},{"NoteNumber":46,"Velocity":67,"Duration":447760,"SoundDuration":447760,"Delta":98648383},{"NoteNumber":52,"Velocity":67,"Duration":447760,"SoundDuration":447760,"Delta":98648383},{"NoteNumber":45,"Velocity":65,"Duration":149253,"SoundDuration":149253,"Delta":99096144},{"NoteNumber":43,"Velocity":64,"Duration":149253,"SoundDuration":149253,"Delta":99245397},{"NoteNumber":57,"Velocity":70,"Duration":147387,"SoundDuration":147387,"Delta":99394651},{"NoteNumber":60,"Velocity":70,"Duration":147387,"SoundDuration":147387,"Delta":99394651},{"NoteNumber":69,"Velocity":78,"Duration":147387,"SoundDuration":147387,"Delta":99394651},{"NoteNumber":36,"Velocity":63,"Duration":147387,"SoundDuration":147387,"Delta":99394651},{"NoteNumber":55,"Velocity":70,"Duration":298507,"SoundDuration":298507,"Delta":99543905},{"NoteNumber":60,"Velocity":70,"Duration":298507,"SoundDuration":298507,"Delta":99543905},{"NoteNumber":67,"Velocity":78,"Duration":298507,"SoundDuration":298507,"Delta":99543905},{"NoteNumber":43,"Velocity":55,"Duration":298507,"SoundDuration":298507,"Delta":99543905},{"NoteNumber":46,"Velocity":55,"Duration":298507,"SoundDuration":298507,"Delta":99543905},{"NoteNumber":52,"Velocity":70,"Duration":147387,"SoundDuration":147387,"Delta":99842412},{"NoteNumber":58,"Velocity":78,"Duration":147387,"SoundDuration":147387,"Delta":99842412},{"NoteNumber":64,"Velocity":78,"Duration":147387,"SoundDuration":147387,"Delta":99842412},{"NoteNumber":43,"Velocity":64,"Duration":147387,"SoundDuration":147387,"Delta":99842412},{"NoteNumber":46,"Velocity":64,"Duration":147387,"SoundDuration":147387,"Delta":99842412},{"NoteNumber":50,"Velocity":70,"Duration":296641,"SoundDuration":296641,"Delta":99991666},{"NoteNumber":58,"Velocity":78,"Duration":296641,"SoundDuration":296641,"Delta":99991666},{"NoteNumber":62,"Velocity":78,"Duration":296641,"SoundDuration":296641,"Delta":99991666},{"NoteNumber":41,"Velocity":64,"Duration":296641,"SoundDuration":296641,"Delta":99991666},{"NoteNumber":46,"Velocity":64,"Duration":296641,"SoundDuration":296641,"Delta":99991666},{"NoteNumber":48,"Velocity":69,"Duration":147387,"SoundDuration":147387,"Delta":100290173},{"NoteNumber":58,"Velocity":77,"Duration":147387,"SoundDuration":147387,"Delta":100290173},{"NoteNumber":60,"Velocity":77,"Duration":147387,"SoundDuration":147387,"Delta":100290173},{"NoteNumber":40,"Velocity":64,"Duration":147387,"SoundDuration":147387,"Delta":100290173},{"NoteNumber":46,"Velocity":64,"Duration":147387,"SoundDuration":147387,"Delta":100290173},{"NoteNumber":48,"Velocity":75,"Duration":139860,"SoundDuration":139860,"Delta":100439427},{"NoteNumber":57,"Velocity":75,"Duration":139860,"SoundDuration":139860,"Delta":100439427},{"NoteNumber":36,"Velocity":64,"Duration":839161,"SoundDuration":839161,"Delta":100439427},{"NoteNumber":46,"Velocity":64,"Duration":839161,"SoundDuration":839161,"Delta":100439427},{"NoteNumber":55,"Velocity":72,"Duration":139860,"SoundDuration":139860,"Delta":100579287},{"NoteNumber":52,"Velocity":71,"Duration":139860,"SoundDuration":139860,"Delta":100719147},{"NoteNumber":50,"Velocity":68,"Duration":139860,"SoundDuration":139860,"Delta":100859007},{"NoteNumber":48,"Velocity":64,"Duration":139860,"SoundDuration":139860,"Delta":100998867},{"NoteNumber":55,"Velocity":63,"Duration":69930,"SoundDuration":69930,"Delta":101138727},{"NoteNumber":50,"Velocity":62,"Duration":69930,"SoundDuration":69930,"Delta":101208657},{"NoteNumber":51,"Velocity":56,"Duration":101351,"SoundDuration":101351,"Delta":101278588},{"NoteNumber":29,"Velocity":50,"Duration":608108,"SoundDuration":608108,"Delta":101278588},{"NoteNumber":48,"Velocity":56,"Duration":101351,"SoundDuration":101351,"Delta":101379939},{"NoteNumber":50,"Velocity":56,"Duration":101351,"SoundDuration":101351,"Delta":101481290},{"NoteNumber":43,"Velocity":56,"Duration":101351,"SoundDuration":101351,"Delta":101582642},{"NoteNumber":45,"Velocity":56,"Duration":101351,"SoundDuration":101351,"Delta":101683993},{"NoteNumber":41,"Velocity":56,"Duration":101351,"SoundDuration":101351,"Delta":101785344},{"NoteNumber":67,"Velocity":64,"Duration":190140,"SoundDuration":190140,"Delta":101886696},{"NoteNumber":63,"Velocity":64,"Duration":190140,"SoundDuration":190140,"Delta":101886696},{"NoteNumber":55,"Velocity":57,"Duration":190140,"SoundDuration":190140,"Delta":101886696},{"NoteNumber":43,"Velocity":50,"Duration":105633,"SoundDuration":105633,"Delta":101886696},{"NoteNumber":38,"Velocity":50,"Duration":105633,"SoundDuration":105633,"Delta":101992330},{"NoteNumber":67,"Velocity":64,"Duration":638298,"SoundDuration":638298,"Delta":102097963},{"NoteNumber":63,"Velocity":64,"Duration":638298,"SoundDuration":638298,"Delta":102097963},{"NoteNumber":55,"Velocity":57,"Duration":638298,"SoundDuration":638298,"Delta":102097963},{"NoteNumber":39,"Velocity":50,"Duration":106382,"SoundDuration":106382,"Delta":102097963},{"NoteNumber":36,"Velocity":50,"Duration":106383,"SoundDuration":106383,"Delta":102204346},{"NoteNumber":38,"Velocity":50,"Duration":106382,"SoundDuration":106382,"Delta":102310729},{"NoteNumber":31,"Velocity":50,"Duration":106383,"SoundDuration":106383,"Delta":102417112},{"NoteNumber":33,"Velocity":50,"Duration":106382,"SoundDuration":106382,"Delta":102523495},{"NoteNumber":29,"Velocity":50,"Duration":306383,"SoundDuration":306383,"Delta":102629878},{"NoteNumber":60,"Velocity":56,"Duration":99999,"SoundDuration":99999,"Delta":102736261},{"NoteNumber":55,"Velocity":56,"Duration":100000,"SoundDuration":100000,"Delta":102836261},{"NoteNumber":57,"Velocity":56,"Duration":100671,"SoundDuration":100671,"Delta":102936261},{"NoteNumber":51,"Velocity":57,"Duration":608359,"SoundDuration":608359,"Delta":102936261},{"NoteNumber":53,"Velocity":56,"Duration":100671,"SoundDuration":100671,"Delta":103036932},{"NoteNumber":55,"Velocity":56,"Duration":101351,"SoundDuration":101351,"Delta":103137604},{"NoteNumber":50,"Velocity":56,"Duration":101351,"SoundDuration":101351,"Delta":103238955},{"NoteNumber":51,"Velocity":56,"Duration":102040,"SoundDuration":102040,"Delta":103340306},{"NoteNumber":48,"Velocity":56,"Duration":102273,"SoundDuration":102273,"Delta":103442347},{"NoteNumber":60,"Velocity":56,"Duration":190140,"SoundDuration":190140,"Delta":103544621},{"NoteNumber":63,"Velocity":56,"Duration":190140,"SoundDuration":190140,"Delta":103544621},{"NoteNumber":72,"Velocity":63,"Duration":190140,"SoundDuration":190140,"Delta":103544621},{"NoteNumber":48,"Velocity":51,"Duration":105633,"SoundDuration":105633,"Delta":103544621},{"NoteNumber":43,"Velocity":51,"Duration":105633,"SoundDuration":105633,"Delta":103650255},{"NoteNumber":60,"Velocity":56,"Duration":633802,"SoundDuration":633802,"Delta":103755888},{"NoteNumber":63,"Velocity":56,"Duration":633802,"SoundDuration":633802,"Delta":103755888},{"NoteNumber":72,"Velocity":63,"Duration":633802,"SoundDuration":633802,"Delta":103755888},{"NoteNumber":45,"Velocity":50,"Duration":105633,"SoundDuration":105633,"Delta":103755888},{"NoteNumber":41,"Velocity":50,"Duration":105633,"SoundDuration":105633,"Delta":103861522},{"NoteNumber":43,"Velocity":50,"Duration":105633,"SoundDuration":105633,"Delta":103967156},{"NoteNumber":38,"Velocity":50,"Duration":105633,"SoundDuration":105633,"Delta":104072790},{"NoteNumber":39,"Velocity":50,"Duration":105633,"SoundDuration":105633,"Delta":104178423},{"NoteNumber":36,"Velocity":50,"Duration":105633,"SoundDuration":105633,"Delta":104284057},{"NoteNumber":67,"Velocity":56,"Duration":97402,"SoundDuration":97402,"Delta":104389691},{"NoteNumber":29,"Velocity":54,"Duration":195017,"SoundDuration":195017,"Delta":104389691},{"NoteNumber":41,"Velocity":60,"Duration":195017,"SoundDuration":195017,"Delta":104389691},{"NoteNumber":62,"Velocity":56,"Duration":97614,"SoundDuration":97614,"Delta":104487094},{"NoteNumber":63,"Velocity":56,"Duration":98039,"SoundDuration":98039,"Delta":104584708},{"NoteNumber":51,"Velocity":60,"Duration":594088,"SoundDuration":594088,"Delta":104584708},{"NoteNumber":55,"Velocity":60,"Duration":291903,"SoundDuration":291903,"Delta":104584708},{"NoteNumber":60,"Velocity":56,"Duration":98469,"SoundDuration":98469,"Delta":104682748},{"NoteNumber":62,"Velocity":56,"Duration":98684,"SoundDuration":98684,"Delta":104781217},{"NoteNumber":55,"Velocity":56,"Duration":99337,"SoundDuration":99337,"Delta":104879901},{"NoteNumber":57,"Velocity":56,"Duration":99558,"SoundDuration":99558,"Delta":104979239},{"NoteNumber":53,"Velocity":56,"Duration":99999,"SoundDuration":99999,"Delta":105078797},{"NoteNumber":67,"Velocity":64,"Duration":190140,"SoundDuration":190140,"Delta":105178797},{"NoteNumber":75,"Velocity":72,"Duration":190140,"SoundDuration":190140,"Delta":105178797},{"NoteNumber":79,"Velocity":72,"Duration":190140,"SoundDuration":190140,"Delta":105178797},{"NoteNumber":55,"Velocity":53,"Duration":105633,"SoundDuration":105633,"Delta":105178797},{"NoteNumber":50,"Velocity":53,"Duration":105633,"SoundDuration":105633,"Delta":105284431},{"NoteNumber":67,"Velocity":64,"Duration":633802,"SoundDuration":633802,"Delta":105390065},{"NoteNumber":75,"Velocity":72,"Duration":633802,"SoundDuration":633802,"Delta":105390065},{"NoteNumber":79,"Velocity":72,"Duration":633802,"SoundDuration":633802,"Delta":105390065},{"NoteNumber":51,"Velocity":53,"Duration":105633,"SoundDuration":105633,"Delta":105390065},{"NoteNumber":48,"Velocity":53,"Duration":105633,"SoundDuration":105633,"Delta":105495699},{"NoteNumber":50,"Velocity":53,"Duration":105633,"SoundDuration":105633,"Delta":105601332},{"NoteNumber":43,"Velocity":53,"Duration":105633,"SoundDuration":105633,"Delta":105706966},{"NoteNumber":45,"Velocity":53,"Duration":105633,"SoundDuration":105633,"Delta":105812600},{"NoteNumber":41,"Velocity":53,"Duration":105633,"SoundDuration":105633,"Delta":105918234},{"NoteNumber":72,"Velocity":61,"Duration":96153,"SoundDuration":96153,"Delta":106023867},{"NoteNumber":51,"Velocity":66,"Duration":192721,"SoundDuration":192721,"Delta":106023867},{"NoteNumber":67,"Velocity":61,"Duration":96567,"SoundDuration":96567,"Delta":106120021},{"NoteNumber":69,"Velocity":61,"Duration":96983,"SoundDuration":96983,"Delta":106216589},{"NoteNumber":63,"Velocity":66,"Duration":387605,"SoundDuration":387605,"Delta":106216589},{"NoteNumber":65,"Velocity":61,"Duration":97402,"SoundDuration":97402,"Delta":106313572},{"NoteNumber":67,"Velocity":61,"Duration":98039,"SoundDuration":98039,"Delta":106410975},{"NoteNumber":62,"Velocity":61,"Duration":98469,"SoundDuration":98469,"Delta":106509014},{"NoteNumber":63,"Velocity":61,"Duration":98902,"SoundDuration":98902,"Delta":106607484},{"NoteNumber":60,"Velocity":61,"Duration":99337,"SoundDuration":99337,"Delta":106706386},{"NoteNumber":84,"Velocity":81,"Duration":184931,"SoundDuration":184931,"Delta":106805723},{"NoteNumber":75,"Velocity":72,"Duration":184931,"SoundDuration":184931,"Delta":106805723},{"NoteNumber":72,"Velocity":72,"Duration":184931,"SoundDuration":184931,"Delta":106805723},{"NoteNumber":60,"Velocity":60,"Duration":102739,"SoundDuration":102739,"Delta":106805723},{"NoteNumber":55,"Velocity":59,"Duration":102739,"SoundDuration":102739,"Delta":106908463},{"NoteNumber":72,"Velocity":72,"Duration":616438,"SoundDuration":616438,"Delta":107011203},{"NoteNumber":75,"Velocity":72,"Duration":616438,"SoundDuration":616438,"Delta":107011203},{"NoteNumber":84,"Velocity":81,"Duration":616438,"SoundDuration":616438,"Delta":107011203},{"NoteNumber":57,"Velocity":58,"Duration":102739,"SoundDuration":102739,"Delta":107011203},{"NoteNumber":53,"Velocity":57,"Duration":102739,"SoundDuration":102739,"Delta":107113943},{"NoteNumber":55,"Velocity":57,"Duration":102739,"SoundDuration":102739,"Delta":107216682},{"NoteNumber":50,"Velocity":56,"Duration":102739,"SoundDuration":102739,"Delta":107319422},{"NoteNumber":51,"Velocity":56,"Duration":102739,"SoundDuration":102739,"Delta":107422162},{"NoteNumber":48,"Velocity":55,"Duration":102739,"SoundDuration":102739,"Delta":107524902},{"NoteNumber":72,"Velocity":70,"Duration":95748,"SoundDuration":95748,"Delta":107627641},{"NoteNumber":60,"Velocity":65,"Duration":95748,"SoundDuration":95748,"Delta":107627641},{"NoteNumber":67,"Velocity":70,"Duration":95945,"SoundDuration":95945,"Delta":107723390},{"NoteNumber":55,"Velocity":64,"Duration":95945,"SoundDuration":95945,"Delta":107723390},{"NoteNumber":69,"Velocity":69,"Duration":96339,"SoundDuration":96339,"Delta":107819336},{"NoteNumber":57,"Velocity":64,"Duration":96339,"SoundDuration":96339,"Delta":107819336},{"NoteNumber":65,"Velocity":68,"Duration":96949,"SoundDuration":96949,"Delta":107915675},{"NoteNumber":53,"Velocity":64,"Duration":96949,"SoundDuration":96949,"Delta":107915675},{"NoteNumber":67,"Velocity":68,"Duration":97361,"SoundDuration":97361,"Delta":108012624},{"NoteNumber":55,"Velocity":63,"Duration":97361,"SoundDuration":97361,"Delta":108012624},{"NoteNumber":62,"Velocity":67,"Duration":97771,"SoundDuration":97771,"Delta":108109986},{"NoteNumber":50,"Velocity":62,"Duration":97771,"SoundDuration":97771,"Delta":108109986},{"NoteNumber":63,"Velocity":66,"Duration":98180,"SoundDuration":98180,"Delta":108207757},{"NoteNumber":51,"Velocity":61,"Duration":98180,"SoundDuration":98180,"Delta":108207757},{"NoteNumber":60,"Velocity":67,"Duration":98814,"SoundDuration":98814,"Delta":108305938},{"NoteNumber":48,"Velocity":60,"Duration":98814,"SoundDuration":98814,"Delta":108305938},{"NoteNumber":79,"Velocity":72,"Duration":93996,"SoundDuration":93996,"Delta":108404752},{"NoteNumber":67,"Velocity":68,"Duration":93996,"SoundDuration":93996,"Delta":108404752},{"NoteNumber":74,"Velocity":72,"Duration":94375,"SoundDuration":94375,"Delta":108498749},{"NoteNumber":62,"Velocity":68,"Duration":94375,"SoundDuration":94375,"Delta":108498749},{"NoteNumber":75,"Velocity":72,"Duration":94761,"SoundDuration":94761,"Delta":108593125},{"NoteNumber":63,"Velocity":67,"Duration":94761,"SoundDuration":94761,"Delta":108593125},{"NoteNumber":72,"Velocity":72,"Duration":95153,"SoundDuration":95153,"Delta":108687886},{"NoteNumber":60,"Velocity":66,"Duration":95153,"SoundDuration":95153,"Delta":108687886},{"NoteNumber":74,"Velocity":72,"Duration":95748,"SoundDuration":95748,"Delta":108783040},{"NoteNumber":62,"Velocity":65,"Duration":95748,"SoundDuration":95748,"Delta":108783040},{"NoteNumber":67,"Velocity":71,"Duration":96142,"SoundDuration":96142,"Delta":108878789},{"NoteNumber":55,"Velocity":64,"Duration":96142,"SoundDuration":96142,"Delta":108878789},{"NoteNumber":69,"Velocity":71,"Duration":96542,"SoundDuration":96542,"Delta":108974931},{"NoteNumber":57,"Velocity":64,"Duration":96542,"SoundDuration":96542,"Delta":108974931},{"NoteNumber":65,"Velocity":70,"Duration":96949,"SoundDuration":96949,"Delta":109071473},{"NoteNumber":53,"Velocity":64,"Duration":96949,"SoundDuration":96949,"Delta":109071473},{"NoteNumber":84,"Velocity":74,"Duration":97567,"SoundDuration":97567,"Delta":109168423},{"NoteNumber":72,"Velocity":69,"Duration":97567,"SoundDuration":97567,"Delta":109168423},{"NoteNumber":79,"Velocity":68,"Duration":97567,"SoundDuration":97567,"Delta":109265990},{"NoteNumber":67,"Velocity":65,"Duration":97567,"SoundDuration":97567,"Delta":109265990},{"NoteNumber":81,"Velocity":71,"Duration":97567,"SoundDuration":97567,"Delta":109363558},{"NoteNumber":69,"Velocity":65,"Duration":97567,"SoundDuration":97567,"Delta":109363558},{"NoteNumber":77,"Velocity":68,"Duration":97567,"SoundDuration":97567,"Delta":109461125},{"NoteNumber":63,"Velocity":63,"Duration":97567,"SoundDuration":97567,"Delta":109461125},{"NoteNumber":84,"Velocity":72,"Duration":98180,"SoundDuration":98180,"Delta":109558692},{"NoteNumber":72,"Velocity":69,"Duration":98180,"SoundDuration":98180,"Delta":109558692},{"NoteNumber":79,"Velocity":67,"Duration":98180,"SoundDuration":98180,"Delta":109656873},{"NoteNumber":67,"Velocity":64,"Duration":98180,"SoundDuration":98180,"Delta":109656873},{"NoteNumber":81,"Velocity":70,"Duration":98814,"SoundDuration":98814,"Delta":109755053},{"NoteNumber":69,"Velocity":67,"Duration":98814,"SoundDuration":98814,"Delta":109755053},{"NoteNumber":77,"Velocity":65,"Duration":98814,"SoundDuration":98814,"Delta":109853867},{"NoteNumber":63,"Velocity":62,"Duration":98814,"SoundDuration":98814,"Delta":109853867},{"NoteNumber":84,"Velocity":72,"Duration":99456,"SoundDuration":99456,"Delta":109952682},{"NoteNumber":72,"Velocity":69,"Duration":99456,"SoundDuration":99456,"Delta":109952682},{"NoteNumber":79,"Velocity":69,"Duration":99456,"SoundDuration":99456,"Delta":110052138},{"NoteNumber":67,"Velocity":65,"Duration":99456,"SoundDuration":99456,"Delta":110052138},{"NoteNumber":81,"Velocity":71,"Duration":100093,"SoundDuration":100093,"Delta":110151594},{"NoteNumber":69,"Velocity":67,"Duration":100093,"SoundDuration":100093,"Delta":110151594},{"NoteNumber":77,"Velocity":67,"Duration":100093,"SoundDuration":100093,"Delta":110251687},{"NoteNumber":63,"Velocity":61,"Duration":100093,"SoundDuration":100093,"Delta":110251687},{"NoteNumber":84,"Velocity":74,"Duration":100752,"SoundDuration":100752,"Delta":110351781},{"NoteNumber":72,"Velocity":71,"Duration":100752,"SoundDuration":100752,"Delta":110351781},{"NoteNumber":79,"Velocity":70,"Duration":100752,"SoundDuration":100752,"Delta":110452533},{"NoteNumber":67,"Velocity":67,"Duration":100752,"SoundDuration":100752,"Delta":110452533},{"NoteNumber":81,"Velocity":72,"Duration":101419,"SoundDuration":101419,"Delta":110553285},{"NoteNumber":69,"Velocity":67,"Duration":101419,"SoundDuration":101419,"Delta":110553285},{"NoteNumber":77,"Velocity":69,"Duration":101419,"SoundDuration":101419,"Delta":110654705},{"NoteNumber":63,"Velocity":61,"Duration":101419,"SoundDuration":101419,"Delta":110654705},{"NoteNumber":87,"Velocity":76,"Duration":93750,"SoundDuration":93750,"Delta":110972991},{"NoteNumber":75,"Velocity":76,"Duration":93750,"SoundDuration":93750,"Delta":110972991},{"NoteNumber":86,"Velocity":75,"Duration":93750,"SoundDuration":93750,"Delta":111066741},{"NoteNumber":74,"Velocity":75,"Duration":93750,"SoundDuration":93750,"Delta":111066741},{"NoteNumber":84,"Velocity":75,"Duration":93750,"SoundDuration":93750,"Delta":111160491},{"NoteNumber":72,"Velocity":75,"Duration":93750,"SoundDuration":93750,"Delta":111160491},{"NoteNumber":82,"Velocity":76,"Duration":93750,"SoundDuration":93750,"Delta":111254241},{"NoteNumber":70,"Velocity":76,"Duration":93750,"SoundDuration":93750,"Delta":111254241},{"NoteNumber":81,"Velocity":76,"Duration":86206,"SoundDuration":86206,"Delta":111347991},{"NoteNumber":69,"Velocity":76,"Duration":86206,"SoundDuration":86206,"Delta":111347991},{"NoteNumber":79,"Velocity":76,"Duration":85553,"SoundDuration":85553,"Delta":111434198},{"NoteNumber":67,"Velocity":76,"Duration":85553,"SoundDuration":85553,"Delta":111434198},{"NoteNumber":77,"Velocity":77,"Duration":83957,"SoundDuration":83957,"Delta":111519752},{"NoteNumber":65,"Velocity":77,"Duration":248202,"SoundDuration":248202,"Delta":111519752},{"NoteNumber":75,"Velocity":77,"Duration":82722,"SoundDuration":82722,"Delta":111603710},{"NoteNumber":74,"Velocity":78,"Duration":81521,"SoundDuration":81521,"Delta":111686433},{"NoteNumber":72,"Velocity":79,"Duration":80937,"SoundDuration":80937,"Delta":111767954},{"NoteNumber":63,"Velocity":79,"Duration":238843,"SoundDuration":238843,"Delta":111767954},{"NoteNumber":70,"Velocity":79,"Duration":79507,"SoundDuration":79507,"Delta":111848892},{"NoteNumber":69,"Velocity":80,"Duration":78399,"SoundDuration":78399,"Delta":111928399},{"NoteNumber":67,"Velocity":81,"Duration":77319,"SoundDuration":77319,"Delta":112006798},{"NoteNumber":53,"Velocity":81,"Duration":304123,"SoundDuration":304123,"Delta":112006798},{"NoteNumber":65,"Velocity":81,"Duration":76793,"SoundDuration":76793,"Delta":112084118},{"NoteNumber":63,"Velocity":81,"Duration":75505,"SoundDuration":75505,"Delta":112160911},{"NoteNumber":62,"Velocity":81,"Duration":74504,"SoundDuration":74504,"Delta":112236416},{"NoteNumber":60,"Velocity":81,"Duration":73529,"SoundDuration":73529,"Delta":112310921},{"NoteNumber":53,"Velocity":81,"Duration":220588,"SoundDuration":220588,"Delta":112310921},{"NoteNumber":58,"Velocity":82,"Duration":73529,"SoundDuration":73529,"Delta":112384451},{"NoteNumber":57,"Velocity":82,"Duration":73529,"SoundDuration":73529,"Delta":112457980},{"NoteNumber":55,"Velocity":83,"Duration":73529,"SoundDuration":73529,"Delta":112531510},{"NoteNumber":51,"Velocity":83,"Duration":220588,"SoundDuration":220588,"Delta":112531510},{"NoteNumber":53,"Velocity":84,"Duration":73529,"SoundDuration":73529,"Delta":112605039},{"NoteNumber":51,"Velocity":84,"Duration":73529,"SoundDuration":73529,"Delta":112678568},{"NoteNumber":50,"Velocity":85,"Duration":73529,"SoundDuration":73529,"Delta":112752098},{"NoteNumber":41,"Velocity":85,"Duration":220588,"SoundDuration":220588,"Delta":112752098},{"NoteNumber":48,"Velocity":85,"Duration":73529,"SoundDuration":73529,"Delta":112825627},{"NoteNumber":46,"Velocity":86,"Duration":73529,"SoundDuration":73529,"Delta":112899157},{"NoteNumber":41,"Velocity":87,"Duration":220588,"SoundDuration":220588,"Delta":112972686},{"NoteNumber":45,"Velocity":87,"Duration":73529,"SoundDuration":73529,"Delta":112972686},{"NoteNumber":43,"Velocity":87,"Duration":73529,"SoundDuration":73529,"Delta":113046216},{"NoteNumber":41,"Velocity":88,"Duration":73529,"SoundDuration":73529,"Delta":113119745},{"NoteNumber":39,"Velocity":89,"Duration":98039,"SoundDuration":98039,"Delta":113193274},{"NoteNumber":29,"Velocity":89,"Duration":288576,"SoundDuration":288576,"Delta":113193274},{"NoteNumber":38,"Velocity":89,"Duration":98039,"SoundDuration":98039,"Delta":113291314},{"NoteNumber":36,"Velocity":89,"Duration":92497,"SoundDuration":92497,"Delta":113389353},{"NoteNumber":22,"Velocity":85,"Duration":160758,"SoundDuration":160758,"Delta":113481851},{"NoteNumber":34,"Velocity":95,"Duration":160758,"SoundDuration":160758,"Delta":113481851},{"NoteNumber":41,"Velocity":63,"Duration":144413,"SoundDuration":144413,"Delta":113642609},{"NoteNumber":46,"Velocity":64,"Duration":140359,"SoundDuration":140359,"Delta":113787023},{"NoteNumber":50,"Velocity":65,"Duration":136526,"SoundDuration":136526,"Delta":113927382},{"NoteNumber":52,"Velocity":67,"Duration":132897,"SoundDuration":132897,"Delta":114063909},{"NoteNumber":70,"Velocity":86,"Duration":199358,"SoundDuration":199358,"Delta":114130799},{"NoteNumber":82,"Velocity":96,"Duration":199358,"SoundDuration":199358,"Delta":114130799},{"NoteNumber":53,"Velocity":69,"Duration":133350,"SoundDuration":133350,"Delta":114196807},{"NoteNumber":74,"Velocity":81,"Duration":1409395,"SoundDuration":1409395,"Delta":114330158},{"NoteNumber":77,"Velocity":91,"Duration":1409395,"SoundDuration":1409395,"Delta":114330158},{"NoteNumber":62,"Velocity":72,"Duration":134228,"SoundDuration":134228,"Delta":114330158},{"NoteNumber":58,"Velocity":72,"Duration":134228,"SoundDuration":134228,"Delta":114330158},{"NoteNumber":55,"Velocity":69,"Duration":134228,"SoundDuration":134228,"Delta":114464386},{"NoteNumber":53,"Velocity":68,"Duration":134228,"SoundDuration":134228,"Delta":114598614},{"NoteNumber":50,"Velocity":66,"Duration":134228,"SoundDuration":134228,"Delta":114732842},{"NoteNumber":46,"Velocity":64,"Duration":134228,"SoundDuration":134228,"Delta":114867070},{"NoteNumber":41,"Velocity":64,"Duration":134228,"SoundDuration":134228,"Delta":115001298},{"NoteNumber":34,"Velocity":63,"Duration":134228,"SoundDuration":134228,"Delta":115135527},{"NoteNumber":41,"Velocity":63,"Duration":134228,"SoundDuration":134228,"Delta":115269755},{"NoteNumber":46,"Velocity":64,"Duration":134228,"SoundDuration":134228,"Delta":115403983},{"NoteNumber":50,"Velocity":66,"Duration":134228,"SoundDuration":134228,"Delta":115538211},{"NoteNumber":52,"Velocity":68,"Duration":130808,"SoundDuration":130808,"Delta":115672439},{"NoteNumber":70,"Velocity":75,"Duration":191082,"SoundDuration":191082,"Delta":115739553},{"NoteNumber":82,"Velocity":84,"Duration":191082,"SoundDuration":191082,"Delta":115739553},{"NoteNumber":53,"Velocity":71,"Duration":127388,"SoundDuration":127388,"Delta":115803248},{"NoteNumber":74,"Velocity":69,"Duration":119047,"SoundDuration":119047,"Delta":115930636},{"NoteNumber":77,"Velocity":77,"Duration":119047,"SoundDuration":119047,"Delta":115930636},{"NoteNumber":62,"Velocity":72,"Duration":119047,"SoundDuration":119047,"Delta":115930636},{"NoteNumber":58,"Velocity":72,"Duration":119047,"SoundDuration":119047,"Delta":115930636},{"NoteNumber":69,"Velocity":70,"Duration":119047,"SoundDuration":119047,"Delta":116049684},{"NoteNumber":81,"Velocity":78,"Duration":119047,"SoundDuration":119047,"Delta":116049684},{"NoteNumber":53,"Velocity":71,"Duration":119047,"SoundDuration":119047,"Delta":116049684},{"NoteNumber":70,"Velocity":71,"Duration":119047,"SoundDuration":119047,"Delta":116168731},{"NoteNumber":74,"Velocity":79,"Duration":119047,"SoundDuration":119047,"Delta":116168731},{"NoteNumber":50,"Velocity":68,"Duration":119047,"SoundDuration":119047,"Delta":116168731},{"NoteNumber":67,"Velocity":72,"Duration":119047,"SoundDuration":119047,"Delta":116287779},{"NoteNumber":79,"Velocity":81,"Duration":119047,"SoundDuration":119047,"Delta":116287779},{"NoteNumber":46,"Velocity":67,"Duration":119047,"SoundDuration":119047,"Delta":116287779},{"NoteNumber":70,"Velocity":72,"Duration":119047,"SoundDuration":119047,"Delta":116406827},{"NoteNumber":74,"Velocity":81,"Duration":119047,"SoundDuration":119047,"Delta":116406827},{"NoteNumber":41,"Velocity":65,"Duration":119047,"SoundDuration":119047,"Delta":116406827},{"NoteNumber":65,"Velocity":72,"Duration":119047,"SoundDuration":119047,"Delta":116525874},{"NoteNumber":77,"Velocity":81,"Duration":119047,"SoundDuration":119047,"Delta":116525874},{"NoteNumber":34,"Velocity":64,"Duration":244047,"SoundDuration":244047,"Delta":116525874},{"NoteNumber":70,"Velocity":90,"Duration":618750,"SoundDuration":618750,"Delta":116644922},{"NoteNumber":74,"Velocity":90,"Duration":618750,"SoundDuration":618750,"Delta":116644922},{"NoteNumber":41,"Velocity":63,"Duration":125000,"SoundDuration":125000,"Delta":116769922},{"NoteNumber":46,"Velocity":63,"Duration":125000,"SoundDuration":125000,"Delta":116894922},{"NoteNumber":50,"Velocity":64,"Duration":125000,"SoundDuration":125000,"Delta":117019922},{"NoteNumber":52,"Velocity":66,"Duration":125000,"SoundDuration":125000,"Delta":117144922},{"NoteNumber":74,"Velocity":84,"Duration":112499,"SoundDuration":112499,"Delta":117269922},{"NoteNumber":70,"Velocity":84,"Duration":112499,"SoundDuration":112499,"Delta":117269922},{"NoteNumber":53,"Velocity":68,"Duration":125000,"SoundDuration":125000,"Delta":117269922},{"NoteNumber":70,"Velocity":89,"Duration":562500,"SoundDuration":562500,"Delta":117394922},{"NoteNumber":74,"Velocity":89,"Duration":562500,"SoundDuration":562500,"Delta":117394922},{"NoteNumber":62,"Velocity":71,"Duration":125000,"SoundDuration":125000,"Delta":117394922},{"NoteNumber":58,"Velocity":71,"Duration":125000,"SoundDuration":125000,"Delta":117394922},{"NoteNumber":55,"Velocity":69,"Duration":125000,"SoundDuration":125000,"Delta":117519922},{"NoteNumber":53,"Velocity":67,"Duration":125000,"SoundDuration":125000,"Delta":117644922},{"NoteNumber":50,"Velocity":66,"Duration":125000,"SoundDuration":125000,"Delta":117769922},{"NoteNumber":46,"Velocity":64,"Duration":125000,"SoundDuration":125000,"Delta":117894922},{"NoteNumber":53,"Velocity":66,"Duration":168750,"SoundDuration":168750,"Delta":117957422},{"NoteNumber":58,"Velocity":66,"Duration":168750,"SoundDuration":168750,"Delta":117957422},{"NoteNumber":62,"Velocity":74,"Duration":168750,"SoundDuration":168750,"Delta":117957422},{"NoteNumber":65,"Velocity":74,"Duration":168750,"SoundDuration":168750,"Delta":117957422},{"NoteNumber":41,"Velocity":64,"Duration":125000,"SoundDuration":125000,"Delta":118019922},{"NoteNumber":53,"Velocity":66,"Duration":120481,"SoundDuration":120481,"Delta":118144922},{"NoteNumber":58,"Velocity":66,"Duration":120481,"SoundDuration":120481,"Delta":118144922},{"NoteNumber":62,"Velocity":74,"Duration":120481,"SoundDuration":120481,"Delta":118144922},{"NoteNumber":65,"Velocity":74,"Duration":120481,"SoundDuration":120481,"Delta":118144922},{"NoteNumber":34,"Velocity":63,"Duration":120481,"SoundDuration":120481,"Delta":118144922},{"NoteNumber":41,"Velocity":63,"Duration":120481,"SoundDuration":120481,"Delta":118144922},{"NoteNumber":70,"Velocity":72,"Duration":120482,"SoundDuration":120482,"Delta":118265404},{"NoteNumber":46,"Velocity":63,"Duration":120482,"SoundDuration":120482,"Delta":118265404},{"NoteNumber":74,"Velocity":71,"Duration":120481,"SoundDuration":120481,"Delta":118385886},{"NoteNumber":50,"Velocity":64,"Duration":120481,"SoundDuration":120481,"Delta":118385886},{"NoteNumber":65,"Velocity":76,"Duration":692001,"SoundDuration":692001,"Delta":118506368},{"NoteNumber":70,"Velocity":76,"Duration":917001,"SoundDuration":917001,"Delta":118506368},{"NoteNumber":74,"Velocity":85,"Duration":917001,"SoundDuration":917001,"Delta":118506368},{"NoteNumber":77,"Velocity":85,"Duration":917001,"SoundDuration":917001,"Delta":118506368},{"NoteNumber":53,"Velocity":64,"Duration":120481,"SoundDuration":120481,"Delta":118506368},{"NoteNumber":46,"Velocity":65,"Duration":120482,"SoundDuration":120482,"Delta":118626850},{"NoteNumber":50,"Velocity":66,"Duration":120481,"SoundDuration":120481,"Delta":118747332},{"NoteNumber":53,"Velocity":67,"Duration":111111,"SoundDuration":111111,"Delta":118867814},{"NoteNumber":58,"Velocity":68,"Duration":111111,"SoundDuration":111111,"Delta":118978925},{"NoteNumber":62,"Velocity":69,"Duration":111111,"SoundDuration":111111,"Delta":119090036},{"NoteNumber":65,"Velocity":71,"Duration":222222,"SoundDuration":222222,"Delta":119201148},{"NoteNumber":67,"Velocity":55,"Duration":128246,"SoundDuration":128246,"Delta":119423370},{"NoteNumber":70,"Velocity":55,"Duration":128246,"SoundDuration":128246,"Delta":119423370},{"NoteNumber":75,"Velocity":62,"Duration":128246,"SoundDuration":128246,"Delta":119423370},{"NoteNumber":79,"Velocity":62,"Duration":128246,"SoundDuration":128246,"Delta":119423370},{"NoteNumber":55,"Velocity":58,"Duration":129870,"SoundDuration":129870,"Delta":119423370},{"NoteNumber":58,"Velocity":58,"Duration":129870,"SoundDuration":129870,"Delta":119423370},{"NoteNumber":63,"Velocity":58,"Duration":129870,"SoundDuration":129870,"Delta":119423370},{"NoteNumber":77,"Velocity":92,"Duration":562500,"SoundDuration":562500,"Delta":119553240},{"NoteNumber":74,"Velocity":92,"Duration":562500,"SoundDuration":562500,"Delta":119553240},{"NoteNumber":70,"Velocity":82,"Duration":562500,"SoundDuration":562500,"Delta":119553240},{"NoteNumber":65,"Velocity":82,"Duration":562500,"SoundDuration":562500,"Delta":119553240},{"NoteNumber":22,"Velocity":55,"Duration":125000,"SoundDuration":125000,"Delta":119553240},{"NoteNumber":34,"Velocity":62,"Duration":125000,"SoundDuration":125000,"Delta":119553240},{"NoteNumber":41,"Velocity":63,"Duration":125000,"SoundDuration":125000,"Delta":119678240},{"NoteNumber":46,"Velocity":64,"Duration":125000,"SoundDuration":125000,"Delta":119803240},{"NoteNumber":50,"Velocity":65,"Duration":125000,"SoundDuration":125000,"Delta":119928240},{"NoteNumber":52,"Velocity":67,"Duration":125000,"SoundDuration":125000,"Delta":120053240},{"NoteNumber":70,"Velocity":86,"Duration":187500,"SoundDuration":187500,"Delta":120115740},{"NoteNumber":82,"Velocity":96,"Duration":187500,"SoundDuration":187500,"Delta":120115740},{"NoteNumber":53,"Velocity":69,"Duration":125000,"SoundDuration":125000,"Delta":120178240},{"NoteNumber":74,"Velocity":75,"Duration":1289772,"SoundDuration":1289772,"Delta":120303240},{"NoteNumber":77,"Velocity":84,"Duration":1289772,"SoundDuration":1289772,"Delta":120303240},{"NoteNumber":62,"Velocity":72,"Duration":121212,"SoundDuration":121212,"Delta":120303240},{"NoteNumber":58,"Velocity":72,"Duration":121212,"SoundDuration":121212,"Delta":120303240},{"NoteNumber":55,"Velocity":69,"Duration":121212,"SoundDuration":121212,"Delta":120424452},{"NoteNumber":53,"Velocity":68,"Duration":121212,"SoundDuration":121212,"Delta":120545664},{"NoteNumber":50,"Velocity":66,"Duration":121212,"SoundDuration":121212,"Delta":120666877},{"NoteNumber":46,"Velocity":64,"Duration":121212,"SoundDuration":121212,"Delta":120788089},{"NoteNumber":41,"Velocity":64,"Duration":121212,"SoundDuration":121212,"Delta":120909301},{"NoteNumber":34,"Velocity":63,"Duration":125000,"SoundDuration":125000,"Delta":121030513},{"NoteNumber":41,"Velocity":63,"Duration":125000,"SoundDuration":125000,"Delta":121155513},{"NoteNumber":46,"Velocity":64,"Duration":125000,"SoundDuration":125000,"Delta":121280513},{"NoteNumber":50,"Velocity":66,"Duration":125000,"SoundDuration":125000,"Delta":121405513},{"NoteNumber":52,"Velocity":68,"Duration":125000,"SoundDuration":125000,"Delta":121530513},{"NoteNumber":70,"Velocity":75,"Duration":187500,"SoundDuration":187500,"Delta":121593013},{"NoteNumber":82,"Velocity":84,"Duration":187500,"SoundDuration":187500,"Delta":121593013},{"NoteNumber":53,"Velocity":71,"Duration":125000,"SoundDuration":125000,"Delta":121655513},{"NoteNumber":74,"Velocity":75,"Duration":129032,"SoundDuration":129032,"Delta":121780513},{"NoteNumber":77,"Velocity":84,"Duration":129032,"SoundDuration":129032,"Delta":121780513},{"NoteNumber":62,"Velocity":72,"Duration":129032,"SoundDuration":129032,"Delta":121780513},{"NoteNumber":58,"Velocity":72,"Duration":129032,"SoundDuration":129032,"Delta":121780513},{"NoteNumber":69,"Velocity":84,"Duration":129032,"SoundDuration":129032,"Delta":121909545},{"NoteNumber":81,"Velocity":84,"Duration":129032,"SoundDuration":129032,"Delta":121909545},{"NoteNumber":53,"Velocity":71,"Duration":129032,"SoundDuration":129032,"Delta":121909545},{"NoteNumber":70,"Velocity":61,"Duration":114285,"SoundDuration":114285,"Delta":122038578},{"NoteNumber":74,"Velocity":61,"Duration":114285,"SoundDuration":114285,"Delta":122038578},{"NoteNumber":50,"Velocity":68,"Duration":114285,"SoundDuration":114285,"Delta":122038578},{"NoteNumber":67,"Velocity":61,"Duration":114285,"SoundDuration":114285,"Delta":122152863},{"NoteNumber":79,"Velocity":61,"Duration":114285,"SoundDuration":114285,"Delta":122152863},{"NoteNumber":46,"Velocity":67,"Duration":114285,"SoundDuration":114285,"Delta":122152863},{"NoteNumber":70,"Velocity":61,"Duration":114285,"SoundDuration":114285,"Delta":122267149},{"NoteNumber":74,"Velocity":61,"Duration":114285,"SoundDuration":114285,"Delta":122267149},{"NoteNumber":41,"Velocity":65,"Duration":114285,"SoundDuration":114285,"Delta":122267149},{"NoteNumber":65,"Velocity":62,"Duration":114285,"SoundDuration":114285,"Delta":122381435},{"NoteNumber":77,"Velocity":62,"Duration":114285,"SoundDuration":114285,"Delta":122381435},{"NoteNumber":34,"Velocity":64,"Duration":239285,"SoundDuration":239285,"Delta":122381435},{"NoteNumber":70,"Velocity":90,"Duration":371875,"SoundDuration":371875,"Delta":122495720},{"NoteNumber":74,"Velocity":90,"Duration":371875,"SoundDuration":371875,"Delta":122495720},{"NoteNumber":41,"Velocity":63,"Duration":125000,"SoundDuration":125000,"Delta":122620720},{"NoteNumber":46,"Velocity":63,"Duration":125000,"SoundDuration":125000,"Delta":122745720},{"NoteNumber":70,"Velocity":65,"Duration":103448,"SoundDuration":103448,"Delta":122870720},{"NoteNumber":74,"Velocity":65,"Duration":103448,"SoundDuration":103448,"Delta":122870720},{"NoteNumber":50,"Velocity":64,"Duration":114942,"SoundDuration":114942,"Delta":122870720},{"NoteNumber":70,"Velocity":66,"Duration":103448,"SoundDuration":103448,"Delta":122985663},{"NoteNumber":74,"Velocity":66,"Duration":103448,"SoundDuration":103448,"Delta":122985663},{"NoteNumber":52,"Velocity":66,"Duration":114942,"SoundDuration":114942,"Delta":122985663},{"NoteNumber":70,"Velocity":67,"Duration":103448,"SoundDuration":103448,"Delta":123100605},{"NoteNumber":74,"Velocity":67,"Duration":103448,"SoundDuration":103448,"Delta":123100605},{"NoteNumber":53,"Velocity":68,"Duration":114942,"SoundDuration":114942,"Delta":123100605},{"NoteNumber":70,"Velocity":89,"Duration":562500,"SoundDuration":562500,"Delta":123215548},{"NoteNumber":74,"Velocity":89,"Duration":562500,"SoundDuration":562500,"Delta":123215548},{"NoteNumber":62,"Velocity":71,"Duration":125000,"SoundDuration":125000,"Delta":123215548},{"NoteNumber":58,"Velocity":71,"Duration":125000,"SoundDuration":125000,"Delta":123215548},{"NoteNumber":55,"Velocity":69,"Duration":125000,"SoundDuration":125000,"Delta":123340548},{"NoteNumber":53,"Velocity":67,"Duration":125000,"SoundDuration":125000,"Delta":123465548},{"NoteNumber":50,"Velocity":66,"Duration":125000,"SoundDuration":125000,"Delta":123590548},{"NoteNumber":46,"Velocity":64,"Duration":125000,"SoundDuration":125000,"Delta":123715548},{"NoteNumber":53,"Velocity":68,"Duration":168750,"SoundDuration":168750,"Delta":123778048},{"NoteNumber":58,"Velocity":68,"Duration":168750,"SoundDuration":168750,"Delta":123778048},{"NoteNumber":62,"Velocity":76,"Duration":168750,"SoundDuration":168750,"Delta":123778048},{"NoteNumber":65,"Velocity":76,"Duration":168750,"SoundDuration":168750,"Delta":123778048},{"NoteNumber":41,"Velocity":64,"Duration":125000,"SoundDuration":125000,"Delta":123840548},{"NoteNumber":53,"Velocity":57,"Duration":120481,"SoundDuration":120481,"Delta":123965548},{"NoteNumber":58,"Velocity":57,"Duration":120481,"SoundDuration":120481,"Delta":123965548},{"NoteNumber":62,"Velocity":64,"Duration":120481,"SoundDuration":120481,"Delta":123965548},{"NoteNumber":65,"Velocity":64,"Duration":120481,"SoundDuration":120481,"Delta":123965548},{"NoteNumber":34,"Velocity":63,"Duration":120481,"SoundDuration":120481,"Delta":123965548},{"NoteNumber":41,"Velocity":63,"Duration":120481,"SoundDuration":120481,"Delta":123965548},{"NoteNumber":70,"Velocity":65,"Duration":120482,"SoundDuration":120482,"Delta":124086030},{"NoteNumber":46,"Velocity":63,"Duration":120482,"SoundDuration":120482,"Delta":124086030},{"NoteNumber":74,"Velocity":65,"Duration":120481,"SoundDuration":120481,"Delta":124206512},{"NoteNumber":50,"Velocity":64,"Duration":120481,"SoundDuration":120481,"Delta":124206512},{"NoteNumber":65,"Velocity":76,"Duration":733321,"SoundDuration":733321,"Delta":124326994},{"NoteNumber":70,"Velocity":76,"Duration":986446,"SoundDuration":986446,"Delta":124326994},{"NoteNumber":74,"Velocity":85,"Duration":986446,"SoundDuration":986446,"Delta":124326994},{"NoteNumber":77,"Velocity":85,"Duration":986446,"SoundDuration":986446,"Delta":124326994},{"NoteNumber":53,"Velocity":64,"Duration":120481,"SoundDuration":120481,"Delta":124326994},{"NoteNumber":46,"Velocity":65,"Duration":120482,"SoundDuration":120482,"Delta":124447476},{"NoteNumber":50,"Velocity":66,"Duration":120481,"SoundDuration":120481,"Delta":124567958},{"NoteNumber":53,"Velocity":67,"Duration":125000,"SoundDuration":125000,"Delta":124688440},{"NoteNumber":58,"Velocity":68,"Duration":125000,"SoundDuration":125000,"Delta":124813440},{"NoteNumber":62,"Velocity":69,"Duration":125000,"SoundDuration":125000,"Delta":124938440},{"NoteNumber":65,"Velocity":71,"Duration":250000,"SoundDuration":250000,"Delta":125063440},{"NoteNumber":67,"Velocity":69,"Duration":118750,"SoundDuration":118750,"Delta":125313440},{"NoteNumber":70,"Velocity":69,"Duration":118750,"SoundDuration":118750,"Delta":125313440},{"NoteNumber":74,"Velocity":77,"Duration":118750,"SoundDuration":118750,"Delta":125313440},{"NoteNumber":79,"Velocity":77,"Duration":118750,"SoundDuration":118750,"Delta":125313440},{"NoteNumber":55,"Velocity":67,"Duration":125000,"SoundDuration":125000,"Delta":125313440},{"NoteNumber":58,"Velocity":67,"Duration":125000,"SoundDuration":125000,"Delta":125313440},{"NoteNumber":62,"Velocity":67,"Duration":125000,"SoundDuration":125000,"Delta":125313440},{"NoteNumber":74,"Velocity":87,"Duration":625000,"SoundDuration":625000,"Delta":125438440},{"NoteNumber":65,"Velocity":78,"Duration":625000,"SoundDuration":625000,"Delta":125438440},{"NoteNumber":69,"Velocity":78,"Duration":625000,"SoundDuration":625000,"Delta":125438440},{"NoteNumber":77,"Velocity":87,"Duration":625000,"SoundDuration":625000,"Delta":125438440},{"NoteNumber":38,"Velocity":64,"Duration":125000,"SoundDuration":125000,"Delta":125438440},{"NoteNumber":45,"Velocity":64,"Duration":125000,"SoundDuration":125000,"Delta":125438440},{"NoteNumber":50,"Velocity":64,"Duration":125000,"SoundDuration":125000,"Delta":125563440},{"NoteNumber":53,"Velocity":66,"Duration":125000,"SoundDuration":125000,"Delta":125688440},{"NoteNumber":57,"Velocity":67,"Duration":125000,"SoundDuration":125000,"Delta":125813440},{"NoteNumber":56,"Velocity":69,"Duration":125000,"SoundDuration":125000,"Delta":125938440},{"NoteNumber":86,"Velocity":86,"Duration":125000,"SoundDuration":125000,"Delta":126063440},{"NoteNumber":74,"Velocity":86,"Duration":125000,"SoundDuration":125000,"Delta":126063440},{"NoteNumber":57,"Velocity":71,"Duration":125000,"SoundDuration":125000,"Delta":126063440},{"NoteNumber":81,"Velocity":86,"Duration":114942,"SoundDuration":114942,"Delta":126188440},{"NoteNumber":77,"Velocity":86,"Duration":114942,"SoundDuration":114942,"Delta":126188440},{"NoteNumber":84,"Velocity":57,"Duration":114942,"SoundDuration":114942,"Delta":126303382},{"NoteNumber":72,"Velocity":57,"Duration":114942,"SoundDuration":114942,"Delta":126303382},{"NoteNumber":65,"Velocity":66,"Duration":114942,"SoundDuration":114942,"Delta":126303382},{"NoteNumber":77,"Velocity":57,"Duration":114942,"SoundDuration":114942,"Delta":126418325},{"NoteNumber":74,"Velocity":57,"Duration":114942,"SoundDuration":114942,"Delta":126418325},{"NoteNumber":62,"Velocity":64,"Duration":114942,"SoundDuration":114942,"Delta":126418325},{"NoteNumber":82,"Velocity":57,"Duration":114942,"SoundDuration":114942,"Delta":126533267},{"NoteNumber":70,"Velocity":57,"Duration":114942,"SoundDuration":114942,"Delta":126533267},{"NoteNumber":53,"Velocity":63,"Duration":112068,"SoundDuration":112068,"Delta":126533267},{"NoteNumber":74,"Velocity":57,"Duration":114942,"SoundDuration":114942,"Delta":126648210},{"NoteNumber":77,"Velocity":57,"Duration":114942,"SoundDuration":114942,"Delta":126648210},{"NoteNumber":53,"Velocity":59,"Duration":114942,"SoundDuration":114942,"Delta":126648210},{"NoteNumber":81,"Velocity":57,"Duration":114942,"SoundDuration":114942,"Delta":126763152},{"NoteNumber":69,"Velocity":57,"Duration":114942,"SoundDuration":114942,"Delta":126763152},{"NoteNumber":50,"Velocity":57,"Duration":114942,"SoundDuration":114942,"Delta":126763152},{"NoteNumber":72,"Velocity":74,"Duration":625000,"SoundDuration":625000,"Delta":126878095},{"NoteNumber":77,"Velocity":74,"Duration":625000,"SoundDuration":625000,"Delta":126878095},{"NoteNumber":41,"Velocity":55,"Duration":125000,"SoundDuration":125000,"Delta":126878095},{"NoteNumber":48,"Velocity":55,"Duration":125000,"SoundDuration":125000,"Delta":126878095},{"NoteNumber":53,"Velocity":54,"Duration":125000,"SoundDuration":125000,"Delta":127003095},{"NoteNumber":57,"Velocity":56,"Duration":125000,"SoundDuration":125000,"Delta":127128095},{"NoteNumber":60,"Velocity":57,"Duration":125000,"SoundDuration":125000,"Delta":127253095},{"NoteNumber":59,"Velocity":60,"Duration":125000,"SoundDuration":125000,"Delta":127378095},{"NoteNumber":69,"Velocity":76,"Duration":125000,"SoundDuration":125000,"Delta":127503095},{"NoteNumber":81,"Velocity":76,"Duration":125000,"SoundDuration":125000,"Delta":127503095},{"NoteNumber":60,"Velocity":63,"Duration":125000,"SoundDuration":125000,"Delta":127503095},{"NoteNumber":72,"Velocity":76,"Duration":375000,"SoundDuration":375000,"Delta":127628095},{"NoteNumber":77,"Velocity":76,"Duration":375000,"SoundDuration":375000,"Delta":127628095},{"NoteNumber":60,"Velocity":62,"Duration":125000,"SoundDuration":125000,"Delta":127753095},{"NoteNumber":57,"Velocity":60,"Duration":121875,"SoundDuration":121875,"Delta":127878095},{"NoteNumber":57,"Velocity":52,"Duration":104046,"SoundDuration":104046,"Delta":128003095},{"NoteNumber":65,"Velocity":58,"Duration":104046,"SoundDuration":104046,"Delta":128003095},{"NoteNumber":69,"Velocity":58,"Duration":104046,"SoundDuration":104046,"Delta":128003095},{"NoteNumber":53,"Velocity":59,"Duration":115607,"SoundDuration":115607,"Delta":128003095},{"NoteNumber":57,"Velocity":52,"Duration":104046,"SoundDuration":104046,"Delta":128118702},{"NoteNumber":65,"Velocity":58,"Duration":104046,"SoundDuration":104046,"Delta":128118702},{"NoteNumber":69,"Velocity":58,"Duration":104046,"SoundDuration":104046,"Delta":128118702},{"NoteNumber":48,"Velocity":58,"Duration":115606,"SoundDuration":115606,"Delta":128118702},{"NoteNumber":57,"Velocity":52,"Duration":104046,"SoundDuration":104046,"Delta":128234309},{"NoteNumber":65,"Velocity":58,"Duration":104046,"SoundDuration":104046,"Delta":128234309},{"NoteNumber":69,"Velocity":58,"Duration":104046,"SoundDuration":104046,"Delta":128234309},{"NoteNumber":46,"Velocity":57,"Duration":115607,"SoundDuration":115607,"Delta":128234309},{"NoteNumber":57,"Velocity":68,"Duration":625000,"SoundDuration":625000,"Delta":128349916},{"NoteNumber":65,"Velocity":76,"Duration":625000,"SoundDuration":625000,"Delta":128349916},{"NoteNumber":69,"Velocity":76,"Duration":625000,"SoundDuration":625000,"Delta":128349916},{"NoteNumber":38,"Velocity":56,"Duration":125000,"SoundDuration":125000,"Delta":128349916},{"NoteNumber":45,"Velocity":56,"Duration":125000,"SoundDuration":125000,"Delta":128349916},{"NoteNumber":50,"Velocity":56,"Duration":125000,"SoundDuration":125000,"Delta":128474916},{"NoteNumber":53,"Velocity":58,"Duration":125000,"SoundDuration":125000,"Delta":128599916},{"NoteNumber":57,"Velocity":60,"Duration":125000,"SoundDuration":125000,"Delta":128724916},{"NoteNumber":56,"Velocity":62,"Duration":125000,"SoundDuration":125000,"Delta":128849916},{"NoteNumber":86,"Velocity":76,"Duration":125000,"SoundDuration":125000,"Delta":128974916},{"NoteNumber":74,"Velocity":76,"Duration":125000,"SoundDuration":125000,"Delta":128974916},{"NoteNumber":57,"Velocity":63,"Duration":125000,"SoundDuration":125000,"Delta":128974916},{"NoteNumber":81,"Velocity":61,"Duration":116278,"SoundDuration":116278,"Delta":129099916},{"NoteNumber":77,"Velocity":61,"Duration":116278,"SoundDuration":116278,"Delta":129099916},{"NoteNumber":84,"Velocity":61,"Duration":116279,"SoundDuration":116279,"Delta":129216195},{"NoteNumber":72,"Velocity":61,"Duration":116279,"SoundDuration":116279,"Delta":129216195},{"NoteNumber":65,"Velocity":66,"Duration":116279,"SoundDuration":116279,"Delta":129216195},{"NoteNumber":77,"Velocity":63,"Duration":116278,"SoundDuration":116278,"Delta":129332474},{"NoteNumber":74,"Velocity":63,"Duration":116278,"SoundDuration":116278,"Delta":129332474},{"NoteNumber":62,"Velocity":64,"Duration":116278,"SoundDuration":116278,"Delta":129332474},{"NoteNumber":82,"Velocity":63,"Duration":116278,"SoundDuration":116278,"Delta":129448753},{"NoteNumber":70,"Velocity":63,"Duration":116278,"SoundDuration":116278,"Delta":129448753},{"NoteNumber":53,"Velocity":63,"Duration":113372,"SoundDuration":113372,"Delta":129448753},{"NoteNumber":74,"Velocity":63,"Duration":116278,"SoundDuration":116278,"Delta":129565032},{"NoteNumber":77,"Velocity":63,"Duration":116278,"SoundDuration":116278,"Delta":129565032},{"NoteNumber":53,"Velocity":59,"Duration":116278,"SoundDuration":116278,"Delta":129565032},{"NoteNumber":81,"Velocity":63,"Duration":116279,"SoundDuration":116279,"Delta":129681311},{"NoteNumber":69,"Velocity":63,"Duration":116279,"SoundDuration":116279,"Delta":129681311},{"NoteNumber":50,"Velocity":57,"Duration":116279,"SoundDuration":116279,"Delta":129681311},{"NoteNumber":72,"Velocity":74,"Duration":562500,"SoundDuration":562500,"Delta":129797590},{"NoteNumber":77,"Velocity":74,"Duration":562500,"SoundDuration":562500,"Delta":129797590},{"NoteNumber":41,"Velocity":55,"Duration":125000,"SoundDuration":125000,"Delta":129797590},{"NoteNumber":48,"Velocity":55,"Duration":125000,"SoundDuration":125000,"Delta":129797590},{"NoteNumber":53,"Velocity":54,"Duration":125000,"SoundDuration":125000,"Delta":129922590},{"NoteNumber":57,"Velocity":56,"Duration":125000,"SoundDuration":125000,"Delta":130047590},{"NoteNumber":60,"Velocity":57,"Duration":125000,"SoundDuration":125000,"Delta":130172590},{"NoteNumber":59,"Velocity":60,"Duration":125000,"SoundDuration":125000,"Delta":130297590},{"NoteNumber":69,"Velocity":68,"Duration":187500,"SoundDuration":187500,"Delta":130360090},{"NoteNumber":81,"Velocity":76,"Duration":187500,"SoundDuration":187500,"Delta":130360090},{"NoteNumber":60,"Velocity":63,"Duration":125000,"SoundDuration":125000,"Delta":130422590},{"NoteNumber":72,"Velocity":77,"Duration":562500,"SoundDuration":562500,"Delta":130547590},{"NoteNumber":77,"Velocity":77,"Duration":562500,"SoundDuration":562500,"Delta":130547590},{"NoteNumber":60,"Velocity":60,"Duration":125000,"SoundDuration":125000,"Delta":130672590},{"NoteNumber":57,"Velocity":63,"Duration":125000,"SoundDuration":125000,"Delta":130797590},{"NoteNumber":53,"Velocity":64,"Duration":125000,"SoundDuration":125000,"Delta":130922590},{"NoteNumber":48,"Velocity":65,"Duration":141240,"SoundDuration":141240,"Delta":131047590},{"NoteNumber":89,"Velocity":94,"Duration":234251,"SoundDuration":234251,"Delta":131110090},{"NoteNumber":77,"Velocity":84,"Duration":234251,"SoundDuration":234251,"Delta":131110090},{"NoteNumber":36,"Velocity":68,"Duration":157480,"SoundDuration":157480,"Delta":131188830},{"NoteNumber":86,"Velocity":90,"Duration":1384595,"SoundDuration":1384595,"Delta":131346310},{"NoteNumber":80,"Velocity":90,"Duration":792490,"SoundDuration":792490,"Delta":131346310},{"NoteNumber":74,"Velocity":81,"Duration":1384595,"SoundDuration":1384595,"Delta":131346310},{"NoteNumber":77,"Velocity":81,"Duration":792490,"SoundDuration":792490,"Delta":131346310},{"NoteNumber":48,"Velocity":68,"Duration":129241,"SoundDuration":129241,"Delta":131346310},{"NoteNumber":56,"Velocity":69,"Duration":130294,"SoundDuration":130294,"Delta":131475552},{"NoteNumber":59,"Velocity":72,"Duration":131363,"SoundDuration":131363,"Delta":131605847},{"NoteNumber":62,"Velocity":72,"Duration":132671,"SoundDuration":132671,"Delta":131737211},{"NoteNumber":64,"Velocity":73,"Duration":133780,"SoundDuration":133780,"Delta":131869882},{"NoteNumber":65,"Velocity":74,"Duration":135138,"SoundDuration":135138,"Delta":132003663},{"NoteNumber":76,"Velocity":64,"Duration":592105,"SoundDuration":592105,"Delta":132138801},{"NoteNumber":79,"Velocity":64,"Duration":592105,"SoundDuration":592105,"Delta":132138801},{"NoteNumber":55,"Velocity":70,"Duration":592105,"SoundDuration":592105,"Delta":132138801},{"NoteNumber":58,"Velocity":78,"Duration":592105,"SoundDuration":592105,"Delta":132138801},{"NoteNumber":64,"Velocity":78,"Duration":592105,"SoundDuration":592105,"Delta":132138801},{"NoteNumber":84,"Velocity":89,"Duration":202702,"SoundDuration":202702,"Delta":132730906},{"NoteNumber":72,"Velocity":80,"Duration":202702,"SoundDuration":202702,"Delta":132730906},{"NoteNumber":29,"Velocity":69,"Duration":202702,"SoundDuration":202702,"Delta":132730906},{"NoteNumber":41,"Velocity":77,"Duration":202702,"SoundDuration":202702,"Delta":132730906},{"NoteNumber":69,"Velocity":80,"Duration":677552,"SoundDuration":677552,"Delta":132933609},{"NoteNumber":75,"Velocity":89,"Duration":677552,"SoundDuration":677552,"Delta":132933609},{"NoteNumber":81,"Velocity":89,"Duration":677552,"SoundDuration":677552,"Delta":132933609},{"NoteNumber":51,"Velocity":78,"Duration":405405,"SoundDuration":405405,"Delta":132933609},{"NoteNumber":57,"Velocity":78,"Duration":405405,"SoundDuration":405405,"Delta":132933609},{"NoteNumber":41,"Velocity":61,"Duration":135135,"SoundDuration":135135,"Delta":133339015},{"NoteNumber":48,"Velocity":61,"Duration":135135,"SoundDuration":135135,"Delta":133339015},{"NoteNumber":51,"Velocity":61,"Duration":137011,"SoundDuration":137011,"Delta":133474150},{"NoteNumber":79,"Velocity":89,"Duration":149253,"SoundDuration":149253,"Delta":133611162},{"NoteNumber":67,"Velocity":80,"Duration":149253,"SoundDuration":149253,"Delta":133611162},{"NoteNumber":55,"Velocity":78,"Duration":149253,"SoundDuration":149253,"Delta":133611162},{"NoteNumber":63,"Velocity":80,"Duration":694444,"SoundDuration":694444,"Delta":133760416},{"NoteNumber":75,"Velocity":89,"Duration":694444,"SoundDuration":694444,"Delta":133760416},{"NoteNumber":51,"Velocity":78,"Duration":694444,"SoundDuration":694444,"Delta":133760416},{"NoteNumber":62,"Velocity":75,"Duration":169491,"SoundDuration":169491,"Delta":134454860},{"NoteNumber":74,"Velocity":84,"Duration":169491,"SoundDuration":169491,"Delta":134454860},{"NoteNumber":50,"Velocity":74,"Duration":169491,"SoundDuration":169491,"Delta":134454860},{"NoteNumber":58,"Velocity":75,"Duration":159999,"SoundDuration":159999,"Delta":134624351},{"NoteNumber":70,"Velocity":84,"Duration":159999,"SoundDuration":159999,"Delta":134624351},{"NoteNumber":46,"Velocity":73,"Duration":159999,"SoundDuration":159999,"Delta":134624351},{"NoteNumber":57,"Velocity":75,"Duration":159999,"SoundDuration":159999,"Delta":134784351},{"NoteNumber":69,"Velocity":84,"Duration":159999,"SoundDuration":159999,"Delta":134784351},{"NoteNumber":45,"Velocity":73,"Duration":159999,"SoundDuration":159999,"Delta":134784351},{"NoteNumber":55,"Velocity":75,"Duration":146666,"SoundDuration":146666,"Delta":134944351},{"NoteNumber":67,"Velocity":84,"Duration":146666,"SoundDuration":146666,"Delta":134944351},{"NoteNumber":43,"Velocity":72,"Duration":146666,"SoundDuration":146666,"Delta":134944351},{"NoteNumber":53,"Velocity":75,"Duration":980952,"SoundDuration":980952,"Delta":135091018},{"NoteNumber":65,"Velocity":84,"Duration":980952,"SoundDuration":980952,"Delta":135091018},{"NoteNumber":41,"Velocity":72,"Duration":980952,"SoundDuration":980952,"Delta":135091018},{"NoteNumber":53,"Velocity":72,"Duration":131666,"SoundDuration":131666,"Delta":136071970},{"NoteNumber":57,"Velocity":72,"Duration":131666,"SoundDuration":131666,"Delta":136071970},{"NoteNumber":63,"Velocity":81,"Duration":131666,"SoundDuration":131666,"Delta":136071970},{"NoteNumber":65,"Velocity":81,"Duration":131666,"SoundDuration":131666,"Delta":136071970},{"NoteNumber":29,"Velocity":82,"Duration":131666,"SoundDuration":131666,"Delta":136071970},{"NoteNumber":41,"Velocity":82,"Duration":131666,"SoundDuration":131666,"Delta":136071970},{"NoteNumber":50,"Velocity":73,"Duration":646153,"SoundDuration":646153,"Delta":136205303},{"NoteNumber":53,"Velocity":73,"Duration":646153,"SoundDuration":646153,"Delta":136205303},{"NoteNumber":58,"Velocity":82,"Duration":646153,"SoundDuration":646153,"Delta":136205303},{"NoteNumber":62,"Velocity":82,"Duration":646153,"SoundDuration":646153,"Delta":136205303},{"NoteNumber":22,"Velocity":81,"Duration":133333,"SoundDuration":133333,"Delta":136205303},{"NoteNumber":34,"Velocity":91,"Duration":133333,"SoundDuration":133333,"Delta":136205303},{"NoteNumber":41,"Velocity":63,"Duration":128205,"SoundDuration":128205,"Delta":136338637},{"NoteNumber":46,"Velocity":64,"Duration":128205,"SoundDuration":128205,"Delta":136466842},{"NoteNumber":50,"Velocity":65,"Duration":128205,"SoundDuration":128205,"Delta":136595047},{"NoteNumber":52,"Velocity":67,"Duration":128205,"SoundDuration":128205,"Delta":136723252},{"NoteNumber":70,"Velocity":81,"Duration":132450,"SoundDuration":132450,"Delta":136851457},{"NoteNumber":82,"Velocity":91,"Duration":132450,"SoundDuration":132450,"Delta":136851457},{"NoteNumber":53,"Velocity":69,"Duration":132450,"SoundDuration":132450,"Delta":136851457},{"NoteNumber":74,"Velocity":75,"Duration":645270,"SoundDuration":645270,"Delta":136983908},{"NoteNumber":77,"Velocity":84,"Duration":645270,"SoundDuration":645270,"Delta":136983908},{"NoteNumber":62,"Velocity":72,"Duration":132450,"SoundDuration":132450,"Delta":136983908},{"NoteNumber":58,"Velocity":72,"Duration":132450,"SoundDuration":132450,"Delta":136983908},{"NoteNumber":55,"Velocity":69,"Duration":128205,"SoundDuration":128205,"Delta":137116358},{"NoteNumber":53,"Velocity":68,"Duration":128205,"SoundDuration":128205,"Delta":137244563},{"NoteNumber":50,"Velocity":66,"Duration":128205,"SoundDuration":128205,"Delta":137372768},{"NoteNumber":46,"Velocity":64,"Duration":128205,"SoundDuration":128205,"Delta":137500973},{"NoteNumber":58,"Velocity":81,"Duration":136986,"SoundDuration":136986,"Delta":137629179},{"NoteNumber":70,"Velocity":90,"Duration":136986,"SoundDuration":136986,"Delta":137629179},{"NoteNumber":41,"Velocity":64,"Duration":136986,"SoundDuration":136986,"Delta":137629179},{"NoteNumber":53,"Velocity":72,"Duration":391825,"SoundDuration":391825,"Delta":137766165},{"NoteNumber":62,"Velocity":89,"Duration":653115,"SoundDuration":653115,"Delta":137766165},{"NoteNumber":65,"Velocity":89,"Duration":653115,"SoundDuration":653115,"Delta":137766165},{"NoteNumber":34,"Velocity":63,"Duration":136986,"SoundDuration":136986,"Delta":137766165},{"NoteNumber":41,"Velocity":63,"Duration":129032,"SoundDuration":129032,"Delta":137903151},{"NoteNumber":46,"Velocity":64,"Duration":129032,"SoundDuration":129032,"Delta":138032184},{"NoteNumber":50,"Velocity":66,"Duration":129032,"SoundDuration":129032,"Delta":138161216},{"NoteNumber":52,"Velocity":68,"Duration":129032,"SoundDuration":129032,"Delta":138290248},{"NoteNumber":70,"Velocity":84,"Duration":129032,"SoundDuration":129032,"Delta":138419281},{"NoteNumber":82,"Velocity":84,"Duration":129032,"SoundDuration":129032,"Delta":138419281},{"NoteNumber":53,"Velocity":71,"Duration":129032,"SoundDuration":129032,"Delta":138419281},{"NoteNumber":74,"Velocity":84,"Duration":129032,"SoundDuration":129032,"Delta":138548313},{"NoteNumber":77,"Velocity":84,"Duration":129032,"SoundDuration":129032,"Delta":138548313},{"NoteNumber":62,"Velocity":72,"Duration":129032,"SoundDuration":129032,"Delta":138548313},{"NoteNumber":58,"Velocity":72,"Duration":129032,"SoundDuration":129032,"Delta":138548313},{"NoteNumber":69,"Velocity":62,"Duration":114285,"SoundDuration":114285,"Delta":138677345},{"NoteNumber":81,"Velocity":62,"Duration":114285,"SoundDuration":114285,"Delta":138677345},{"NoteNumber":53,"Velocity":71,"Duration":114285,"SoundDuration":114285,"Delta":138677345},{"NoteNumber":70,"Velocity":62,"Duration":114285,"SoundDuration":114285,"Delta":138791631},{"NoteNumber":74,"Velocity":62,"Duration":114285,"SoundDuration":114285,"Delta":138791631},{"NoteNumber":50,"Velocity":68,"Duration":114285,"SoundDuration":114285,"Delta":138791631},{"NoteNumber":67,"Velocity":62,"Duration":114285,"SoundDuration":114285,"Delta":138905917},{"NoteNumber":79,"Velocity":62,"Duration":114285,"SoundDuration":114285,"Delta":138905917},{"NoteNumber":46,"Velocity":67,"Duration":114285,"SoundDuration":114285,"Delta":138905917},{"NoteNumber":70,"Velocity":62,"Duration":114285,"SoundDuration":114285,"Delta":139020202},{"NoteNumber":74,"Velocity":62,"Duration":114285,"SoundDuration":114285,"Delta":139020202},{"NoteNumber":41,"Velocity":65,"Duration":114285,"SoundDuration":114285,"Delta":139020202},{"NoteNumber":65,"Velocity":62,"Duration":114285,"SoundDuration":114285,"Delta":139134488},{"NoteNumber":77,"Velocity":62,"Duration":114285,"SoundDuration":114285,"Delta":139134488},{"NoteNumber":34,"Velocity":64,"Duration":243317,"SoundDuration":243317,"Delta":139134488},{"NoteNumber":70,"Velocity":76,"Duration":511290,"SoundDuration":511290,"Delta":139248774},{"NoteNumber":74,"Velocity":76,"Duration":511290,"SoundDuration":511290,"Delta":139248774},{"NoteNumber":41,"Velocity":63,"Duration":129032,"SoundDuration":129032,"Delta":139377806},{"NoteNumber":46,"Velocity":63,"Duration":129032,"SoundDuration":129032,"Delta":139506838},{"NoteNumber":50,"Velocity":64,"Duration":129032,"SoundDuration":129032,"Delta":139635871},{"NoteNumber":74,"Velocity":65,"Duration":116129,"SoundDuration":116129,"Delta":139764903},{"NoteNumber":70,"Velocity":65,"Duration":116129,"SoundDuration":116129,"Delta":139764903},{"NoteNumber":52,"Velocity":66,"Duration":129032,"SoundDuration":129032,"Delta":139764903},{"NoteNumber":74,"Velocity":65,"Duration":116129,"SoundDuration":116129,"Delta":139893935},{"NoteNumber":70,"Velocity":65,"Duration":116129,"SoundDuration":116129,"Delta":139893935},{"NoteNumber":53,"Velocity":68,"Duration":129032,"SoundDuration":129032,"Delta":139893935},{"NoteNumber":70,"Velocity":69,"Duration":580645,"SoundDuration":580645,"Delta":140022968},{"NoteNumber":74,"Velocity":69,"Duration":580645,"SoundDuration":580645,"Delta":140022968},{"NoteNumber":62,"Velocity":71,"Duration":129032,"SoundDuration":129032,"Delta":140022968},{"NoteNumber":58,"Velocity":71,"Duration":129032,"SoundDuration":129032,"Delta":140022968},{"NoteNumber":55,"Velocity":69,"Duration":129032,"SoundDuration":129032,"Delta":140152000},{"NoteNumber":53,"Velocity":67,"Duration":129032,"SoundDuration":129032,"Delta":140281032},{"NoteNumber":50,"Velocity":66,"Duration":129032,"SoundDuration":129032,"Delta":140410065},{"NoteNumber":46,"Velocity":64,"Duration":129032,"SoundDuration":129032,"Delta":140539097},{"NoteNumber":53,"Velocity":62,"Duration":174193,"SoundDuration":174193,"Delta":140603613},{"NoteNumber":58,"Velocity":62,"Duration":174193,"SoundDuration":174193,"Delta":140603613},{"NoteNumber":62,"Velocity":69,"Duration":174193,"SoundDuration":174193,"Delta":140603613},{"NoteNumber":65,"Velocity":69,"Duration":174193,"SoundDuration":174193,"Delta":140603613},{"NoteNumber":41,"Velocity":64,"Duration":129032,"SoundDuration":129032,"Delta":140668129},{"NoteNumber":53,"Velocity":62,"Duration":123456,"SoundDuration":123456,"Delta":140797162},{"NoteNumber":58,"Velocity":62,"Duration":123456,"SoundDuration":123456,"Delta":140797162},{"NoteNumber":62,"Velocity":69,"Duration":123456,"SoundDuration":123456,"Delta":140797162},{"NoteNumber":65,"Velocity":69,"Duration":123456,"SoundDuration":123456,"Delta":140797162},{"NoteNumber":34,"Velocity":63,"Duration":123456,"SoundDuration":123456,"Delta":140797162},{"NoteNumber":41,"Velocity":63,"Duration":123456,"SoundDuration":123456,"Delta":140797162},{"NoteNumber":70,"Velocity":72,"Duration":123456,"SoundDuration":123456,"Delta":140920618},{"NoteNumber":46,"Velocity":63,"Duration":123456,"SoundDuration":123456,"Delta":140920618},{"NoteNumber":74,"Velocity":72,"Duration":120370,"SoundDuration":120370,"Delta":141044075},{"NoteNumber":50,"Velocity":64,"Duration":123456,"SoundDuration":123456,"Delta":141044075},{"NoteNumber":65,"Velocity":66,"Duration":700926,"SoundDuration":700926,"Delta":141167532},{"NoteNumber":70,"Velocity":66,"Duration":942313,"SoundDuration":942313,"Delta":141167532},{"NoteNumber":74,"Velocity":74,"Duration":942313,"SoundDuration":942313,"Delta":141167532},{"NoteNumber":77,"Velocity":74,"Duration":942313,"SoundDuration":942313,"Delta":141167532},{"NoteNumber":53,"Velocity":64,"Duration":123456,"SoundDuration":123456,"Delta":141167532},{"NoteNumber":46,"Velocity":65,"Duration":123456,"SoundDuration":123456,"Delta":141290989},{"NoteNumber":50,"Velocity":66,"Duration":123456,"SoundDuration":123456,"Delta":141414446},{"NoteNumber":53,"Velocity":67,"Duration":111111,"SoundDuration":111111,"Delta":141537903},{"NoteNumber":58,"Velocity":68,"Duration":111111,"SoundDuration":111111,"Delta":141649014},{"NoteNumber":62,"Velocity":69,"Duration":111111,"SoundDuration":111111,"Delta":141760125},{"NoteNumber":65,"Velocity":71,"Duration":238609,"SoundDuration":238609,"Delta":141871236},{"NoteNumber":67,"Velocity":55,"Duration":134353,"SoundDuration":134353,"Delta":142109845},{"NoteNumber":70,"Velocity":55,"Duration":134353,"SoundDuration":134353,"Delta":142109845},{"NoteNumber":75,"Velocity":62,"Duration":134353,"SoundDuration":134353,"Delta":142109845},{"NoteNumber":79,"Velocity":62,"Duration":134353,"SoundDuration":134353,"Delta":142109845},{"NoteNumber":55,"Velocity":58,"Duration":136054,"SoundDuration":136054,"Delta":142109845},{"NoteNumber":58,"Velocity":58,"Duration":136054,"SoundDuration":136054,"Delta":142109845},{"NoteNumber":63,"Velocity":58,"Duration":136054,"SoundDuration":136054,"Delta":142109845},{"NoteNumber":77,"Velocity":92,"Duration":641025,"SoundDuration":641025,"Delta":142245900},{"NoteNumber":74,"Velocity":92,"Duration":641025,"SoundDuration":641025,"Delta":142245900},{"NoteNumber":70,"Velocity":82,"Duration":641025,"SoundDuration":641025,"Delta":142245900},{"NoteNumber":65,"Velocity":82,"Duration":641025,"SoundDuration":641025,"Delta":142245900},{"NoteNumber":22,"Velocity":55,"Duration":128205,"SoundDuration":128205,"Delta":142245900},{"NoteNumber":34,"Velocity":62,"Duration":128205,"SoundDuration":128205,"Delta":142245900},{"NoteNumber":41,"Velocity":63,"Duration":128205,"SoundDuration":128205,"Delta":142374105},{"NoteNumber":46,"Velocity":64,"Duration":128205,"SoundDuration":128205,"Delta":142502310},{"NoteNumber":50,"Velocity":65,"Duration":128205,"SoundDuration":128205,"Delta":142630515},{"NoteNumber":52,"Velocity":67,"Duration":128205,"SoundDuration":128205,"Delta":142758720},{"NoteNumber":70,"Velocity":86,"Duration":141843,"SoundDuration":141843,"Delta":142886926},{"NoteNumber":82,"Velocity":96,"Duration":141843,"SoundDuration":141843,"Delta":142886926},{"NoteNumber":53,"Velocity":69,"Duration":141843,"SoundDuration":141843,"Delta":142886926},{"NoteNumber":74,"Velocity":75,"Duration":425532,"SoundDuration":425532,"Delta":143028770},{"NoteNumber":77,"Velocity":84,"Duration":425532,"SoundDuration":425532,"Delta":143028770},{"NoteNumber":62,"Velocity":72,"Duration":141844,"SoundDuration":141844,"Delta":143028770},{"NoteNumber":58,"Velocity":72,"Duration":141844,"SoundDuration":141844,"Delta":143028770},{"NoteNumber":55,"Velocity":69,"Duration":141843,"SoundDuration":141843,"Delta":143170614},{"NoteNumber":53,"Velocity":68,"Duration":141843,"SoundDuration":141843,"Delta":143312458},{"NoteNumber":58,"Velocity":75,"Duration":123287,"SoundDuration":123287,"Delta":143454302},{"NoteNumber":70,"Velocity":84,"Duration":123287,"SoundDuration":123287,"Delta":143454302},{"NoteNumber":50,"Velocity":66,"Duration":136986,"SoundDuration":136986,"Delta":143454302},{"NoteNumber":58,"Velocity":75,"Duration":123287,"SoundDuration":123287,"Delta":143591288},{"NoteNumber":70,"Velocity":84,"Duration":123287,"SoundDuration":123287,"Delta":143591288},{"NoteNumber":46,"Velocity":64,"Duration":136986,"SoundDuration":136986,"Delta":143591288},{"NoteNumber":58,"Velocity":75,"Duration":123287,"SoundDuration":123287,"Delta":143728274},{"NoteNumber":70,"Velocity":84,"Duration":123287,"SoundDuration":123287,"Delta":143728274},{"NoteNumber":41,"Velocity":64,"Duration":136986,"SoundDuration":136986,"Delta":143728274},{"NoteNumber":53,"Velocity":75,"Duration":397350,"SoundDuration":397350,"Delta":143865261},{"NoteNumber":62,"Velocity":84,"Duration":662251,"SoundDuration":662251,"Delta":143865261},{"NoteNumber":65,"Velocity":84,"Duration":662251,"SoundDuration":662251,"Delta":143865261},{"NoteNumber":34,"Velocity":63,"Duration":132450,"SoundDuration":132450,"Delta":143865261},{"NoteNumber":41,"Velocity":63,"Duration":132450,"SoundDuration":132450,"Delta":143997711},{"NoteNumber":46,"Velocity":64,"Duration":132450,"SoundDuration":132450,"Delta":144130161},{"NoteNumber":50,"Velocity":66,"Duration":132450,"SoundDuration":132450,"Delta":144262612},{"NoteNumber":52,"Velocity":68,"Duration":132450,"SoundDuration":132450,"Delta":144395062},{"NoteNumber":70,"Velocity":84,"Duration":132450,"SoundDuration":132450,"Delta":144527512},{"NoteNumber":82,"Velocity":84,"Duration":132450,"SoundDuration":132450,"Delta":144527512},{"NoteNumber":53,"Velocity":71,"Duration":132450,"SoundDuration":132450,"Delta":144527512},{"NoteNumber":74,"Velocity":84,"Duration":114285,"SoundDuration":114285,"Delta":144659963},{"NoteNumber":77,"Velocity":84,"Duration":114285,"SoundDuration":114285,"Delta":144659963},{"NoteNumber":62,"Velocity":72,"Duration":114285,"SoundDuration":114285,"Delta":144659963},{"NoteNumber":58,"Velocity":72,"Duration":114285,"SoundDuration":114285,"Delta":144659963},{"NoteNumber":69,"Velocity":59,"Duration":114285,"SoundDuration":114285,"Delta":144774248},{"NoteNumber":81,"Velocity":59,"Duration":114285,"SoundDuration":114285,"Delta":144774248},{"NoteNumber":53,"Velocity":71,"Duration":114285,"SoundDuration":114285,"Delta":144774248},{"NoteNumber":70,"Velocity":59,"Duration":114285,"SoundDuration":114285,"Delta":144888534},{"NoteNumber":74,"Velocity":59,"Duration":114285,"SoundDuration":114285,"Delta":144888534},{"NoteNumber":50,"Velocity":68,"Duration":114285,"SoundDuration":114285,"Delta":144888534},{"NoteNumber":67,"Velocity":59,"Duration":114285,"SoundDuration":114285,"Delta":145002820},{"NoteNumber":79,"Velocity":59,"Duration":114285,"SoundDuration":114285,"Delta":145002820},{"NoteNumber":46,"Velocity":67,"Duration":114285,"SoundDuration":114285,"Delta":145002820},{"NoteNumber":70,"Velocity":59,"Duration":114285,"SoundDuration":114285,"Delta":145117105},{"NoteNumber":74,"Velocity":59,"Duration":114285,"SoundDuration":114285,"Delta":145117105},{"NoteNumber":41,"Velocity":65,"Duration":114285,"SoundDuration":114285,"Delta":145117105},{"NoteNumber":65,"Velocity":59,"Duration":114285,"SoundDuration":114285,"Delta":145231391},{"NoteNumber":77,"Velocity":59,"Duration":114285,"SoundDuration":114285,"Delta":145231391},{"NoteNumber":34,"Velocity":64,"Duration":243317,"SoundDuration":243317,"Delta":145231391},{"NoteNumber":70,"Velocity":68,"Duration":383871,"SoundDuration":383871,"Delta":145345677},{"NoteNumber":74,"Velocity":68,"Duration":383871,"SoundDuration":383871,"Delta":145345677},{"NoteNumber":41,"Velocity":63,"Duration":129032,"SoundDuration":129032,"Delta":145474709},{"NoteNumber":46,"Velocity":63,"Duration":129032,"SoundDuration":129032,"Delta":145603741},{"NoteNumber":70,"Velocity":60,"Duration":113207,"SoundDuration":113207,"Delta":145732774},{"NoteNumber":74,"Velocity":60,"Duration":113207,"SoundDuration":113207,"Delta":145732774},{"NoteNumber":50,"Velocity":64,"Duration":125786,"SoundDuration":125786,"Delta":145732774},{"NoteNumber":70,"Velocity":60,"Duration":113207,"SoundDuration":113207,"Delta":145858560},{"NoteNumber":74,"Velocity":60,"Duration":113207,"SoundDuration":113207,"Delta":145858560},{"NoteNumber":52,"Velocity":66,"Duration":125786,"SoundDuration":125786,"Delta":145858560},{"NoteNumber":70,"Velocity":60,"Duration":113207,"SoundDuration":113207,"Delta":145984346},{"NoteNumber":74,"Velocity":60,"Duration":113207,"SoundDuration":113207,"Delta":145984346},{"NoteNumber":53,"Velocity":68,"Duration":125786,"SoundDuration":125786,"Delta":145984346},{"NoteNumber":70,"Velocity":70,"Duration":580645,"SoundDuration":580645,"Delta":146110132},{"NoteNumber":74,"Velocity":70,"Duration":580645,"SoundDuration":580645,"Delta":146110132},{"NoteNumber":62,"Velocity":71,"Duration":129032,"SoundDuration":129032,"Delta":146110132},{"NoteNumber":58,"Velocity":71,"Duration":129032,"SoundDuration":129032,"Delta":146110132},{"NoteNumber":55,"Velocity":69,"Duration":129032,"SoundDuration":129032,"Delta":146239164},{"NoteNumber":53,"Velocity":67,"Duration":129032,"SoundDuration":129032,"Delta":146368197},{"NoteNumber":50,"Velocity":66,"Duration":129032,"SoundDuration":129032,"Delta":146497229},{"NoteNumber":46,"Velocity":64,"Duration":129032,"SoundDuration":129032,"Delta":146626261},{"NoteNumber":53,"Velocity":59,"Duration":174193,"SoundDuration":174193,"Delta":146690778},{"NoteNumber":58,"Velocity":59,"Duration":174193,"SoundDuration":174193,"Delta":146690778},{"NoteNumber":62,"Velocity":66,"Duration":174193,"SoundDuration":174193,"Delta":146690778},{"NoteNumber":65,"Velocity":66,"Duration":174193,"SoundDuration":174193,"Delta":146690778},{"NoteNumber":41,"Velocity":64,"Duration":129032,"SoundDuration":129032,"Delta":146755294},{"NoteNumber":53,"Velocity":59,"Duration":124223,"SoundDuration":124223,"Delta":146884326},{"NoteNumber":58,"Velocity":59,"Duration":124223,"SoundDuration":124223,"Delta":146884326},{"NoteNumber":62,"Velocity":66,"Duration":124223,"SoundDuration":124223,"Delta":146884326},{"NoteNumber":65,"Velocity":66,"Duration":124223,"SoundDuration":124223,"Delta":146884326},{"NoteNumber":34,"Velocity":63,"Duration":124223,"SoundDuration":124223,"Delta":146884326},{"NoteNumber":41,"Velocity":63,"Duration":124223,"SoundDuration":124223,"Delta":146884326},{"NoteNumber":70,"Velocity":63,"Duration":124223,"SoundDuration":124223,"Delta":147008550},{"NoteNumber":46,"Velocity":63,"Duration":124223,"SoundDuration":124223,"Delta":147008550},{"NoteNumber":74,"Velocity":63,"Duration":119565,"SoundDuration":119565,"Delta":147132773},{"NoteNumber":50,"Velocity":64,"Duration":124223,"SoundDuration":124223,"Delta":147132773},{"NoteNumber":65,"Velocity":60,"Duration":726837,"SoundDuration":726837,"Delta":147256997},{"NoteNumber":70,"Velocity":60,"Duration":967909,"SoundDuration":967909,"Delta":147256997},{"NoteNumber":74,"Velocity":67,"Duration":967909,"SoundDuration":967909,"Delta":147256997},{"NoteNumber":77,"Velocity":67,"Duration":967909,"SoundDuration":967909,"Delta":147256997},{"NoteNumber":53,"Velocity":64,"Duration":124223,"SoundDuration":124223,"Delta":147256997},{"NoteNumber":46,"Velocity":65,"Duration":124223,"SoundDuration":124223,"Delta":147381221},{"NoteNumber":50,"Velocity":66,"Duration":124223,"SoundDuration":124223,"Delta":147505444},{"NoteNumber":53,"Velocity":67,"Duration":119047,"SoundDuration":119047,"Delta":147629668},{"NoteNumber":58,"Velocity":68,"Duration":119047,"SoundDuration":119047,"Delta":147748716},{"NoteNumber":62,"Velocity":69,"Duration":119047,"SoundDuration":119047,"Delta":147867763},{"NoteNumber":65,"Velocity":71,"Duration":238095,"SoundDuration":238095,"Delta":147986811},{"NoteNumber":67,"Velocity":64,"Duration":113095,"SoundDuration":113095,"Delta":148224906},{"NoteNumber":70,"Velocity":64,"Duration":113095,"SoundDuration":113095,"Delta":148224906},{"NoteNumber":74,"Velocity":72,"Duration":113095,"SoundDuration":113095,"Delta":148224906},{"NoteNumber":79,"Velocity":72,"Duration":113095,"SoundDuration":113095,"Delta":148224906},{"NoteNumber":55,"Velocity":67,"Duration":119047,"SoundDuration":119047,"Delta":148224906},{"NoteNumber":58,"Velocity":67,"Duration":119047,"SoundDuration":119047,"Delta":148224906},{"NoteNumber":62,"Velocity":67,"Duration":119047,"SoundDuration":119047,"Delta":148224906},{"NoteNumber":65,"Velocity":64,"Duration":392156,"SoundDuration":392156,"Delta":148343954},{"NoteNumber":69,"Velocity":64,"Duration":392156,"SoundDuration":392156,"Delta":148343954},{"NoteNumber":74,"Velocity":72,"Duration":392156,"SoundDuration":392156,"Delta":148343954},{"NoteNumber":77,"Velocity":72,"Duration":392156,"SoundDuration":392156,"Delta":148343954},{"NoteNumber":38,"Velocity":67,"Duration":130718,"SoundDuration":130718,"Delta":148343954},{"NoteNumber":45,"Velocity":67,"Duration":130718,"SoundDuration":130718,"Delta":148343954},{"NoteNumber":50,"Velocity":67,"Duration":130718,"SoundDuration":130718,"Delta":148474673},{"NoteNumber":53,"Velocity":67,"Duration":130718,"SoundDuration":130718,"Delta":148605392},{"NoteNumber":57,"Velocity":61,"Duration":125000,"SoundDuration":125000,"Delta":148736111},{"NoteNumber":62,"Velocity":61,"Duration":125000,"SoundDuration":125000,"Delta":148736111},{"NoteNumber":65,"Velocity":68,"Duration":125000,"SoundDuration":125000,"Delta":148736111},{"NoteNumber":69,"Velocity":68,"Duration":125000,"SoundDuration":125000,"Delta":148736111},{"NoteNumber":74,"Velocity":72,"Duration":125000,"SoundDuration":125000,"Delta":148861111},{"NoteNumber":77,"Velocity":73,"Duration":125000,"SoundDuration":125000,"Delta":148986111},{"NoteNumber":69,"Velocity":75,"Duration":649350,"SoundDuration":649350,"Delta":149111111},{"NoteNumber":74,"Velocity":75,"Duration":649350,"SoundDuration":649350,"Delta":149111111},{"NoteNumber":77,"Velocity":84,"Duration":649350,"SoundDuration":649350,"Delta":149111111},{"NoteNumber":81,"Velocity":84,"Duration":649350,"SoundDuration":649350,"Delta":149111111},{"NoteNumber":38,"Velocity":63,"Duration":129870,"SoundDuration":129870,"Delta":149111111},{"NoteNumber":45,"Velocity":63,"Duration":129870,"SoundDuration":129870,"Delta":149111111},{"NoteNumber":50,"Velocity":64,"Duration":129870,"SoundDuration":129870,"Delta":149240981},{"NoteNumber":53,"Velocity":65,"Duration":126623,"SoundDuration":126623,"Delta":149370851},{"NoteNumber":53,"Velocity":67,"Duration":129870,"SoundDuration":129870,"Delta":149500722},{"NoteNumber":57,"Velocity":69,"Duration":129870,"SoundDuration":129870,"Delta":149630592},{"NoteNumber":70,"Velocity":75,"Duration":120253,"SoundDuration":120253,"Delta":149760462},{"NoteNumber":73,"Velocity":75,"Duration":120253,"SoundDuration":120253,"Delta":149760462},{"NoteNumber":77,"Velocity":84,"Duration":120253,"SoundDuration":120253,"Delta":149760462},{"NoteNumber":82,"Velocity":84,"Duration":120253,"SoundDuration":120253,"Delta":149760462},{"NoteNumber":49,"Velocity":71,"Duration":126582,"SoundDuration":126582,"Delta":149760462},{"NoteNumber":58,"Velocity":71,"Duration":126582,"SoundDuration":126582,"Delta":149760462},{"NoteNumber":69,"Velocity":75,"Duration":394736,"SoundDuration":394736,"Delta":149887044},{"NoteNumber":72,"Velocity":75,"Duration":394736,"SoundDuration":394736,"Delta":149887044},{"NoteNumber":77,"Velocity":84,"Duration":394736,"SoundDuration":394736,"Delta":149887044},{"NoteNumber":81,"Velocity":84,"Duration":394736,"SoundDuration":394736,"Delta":149887044},{"NoteNumber":48,"Velocity":72,"Duration":263158,"SoundDuration":263158,"Delta":149887044},{"NoteNumber":57,"Velocity":72,"Duration":263158,"SoundDuration":263158,"Delta":149887044},{"NoteNumber":41,"Velocity":69,"Duration":131578,"SoundDuration":131578,"Delta":150150202},{"NoteNumber":48,"Velocity":69,"Duration":131578,"SoundDuration":131578,"Delta":150150202},{"NoteNumber":60,"Velocity":63,"Duration":126582,"SoundDuration":126582,"Delta":150281781},{"NoteNumber":65,"Velocity":63,"Duration":126582,"SoundDuration":126582,"Delta":150281781},{"NoteNumber":69,"Velocity":70,"Duration":126582,"SoundDuration":126582,"Delta":150281781},{"NoteNumber":72,"Velocity":70,"Duration":126582,"SoundDuration":126582,"Delta":150281781},{"NoteNumber":57,"Velocity":72,"Duration":382425,"SoundDuration":382425,"Delta":150281781},{"NoteNumber":77,"Velocity":72,"Duration":126582,"SoundDuration":126582,"Delta":150408364},{"NoteNumber":81,"Velocity":76,"Duration":125992,"SoundDuration":125992,"Delta":150534946},{"NoteNumber":72,"Velocity":75,"Duration":653594,"SoundDuration":653594,"Delta":150664206},{"NoteNumber":77,"Velocity":75,"Duration":653594,"SoundDuration":653594,"Delta":150664206},{"NoteNumber":81,"Velocity":84,"Duration":653594,"SoundDuration":653594,"Delta":150664206},{"NoteNumber":84,"Velocity":84,"Duration":653594,"SoundDuration":653594,"Delta":150664206},{"NoteNumber":41,"Velocity":68,"Duration":130718,"SoundDuration":130718,"Delta":150664206},{"NoteNumber":48,"Velocity":68,"Duration":130718,"SoundDuration":130718,"Delta":150664206},{"NoteNumber":53,"Velocity":68,"Duration":130718,"SoundDuration":130718,"Delta":150794925},{"NoteNumber":57,"Velocity":70,"Duration":127451,"SoundDuration":127451,"Delta":150925644},{"NoteNumber":57,"Velocity":72,"Duration":130718,"SoundDuration":130718,"Delta":151056363},{"NoteNumber":60,"Velocity":73,"Duration":130718,"SoundDuration":130718,"Delta":151187082},{"NoteNumber":75,"Velocity":68,"Duration":137931,"SoundDuration":137931,"Delta":151317801},{"NoteNumber":78,"Velocity":68,"Duration":137931,"SoundDuration":137931,"Delta":151317801},{"NoteNumber":84,"Velocity":76,"Duration":137931,"SoundDuration":137931,"Delta":151317801},{"NoteNumber":87,"Velocity":76,"Duration":137931,"SoundDuration":137931,"Delta":151317801},{"NoteNumber":54,"Velocity":75,"Duration":137931,"SoundDuration":137931,"Delta":151317801},{"NoteNumber":63,"Velocity":75,"Duration":137931,"SoundDuration":137931,"Delta":151317801},{"NoteNumber":74,"Velocity":75,"Duration":689654,"SoundDuration":689654,"Delta":151455732},{"NoteNumber":86,"Velocity":84,"Duration":689654,"SoundDuration":689654,"Delta":151455732},{"NoteNumber":82,"Velocity":84,"Duration":689654,"SoundDuration":689654,"Delta":151455732},{"NoteNumber":79,"Velocity":75,"Duration":689654,"SoundDuration":689654,"Delta":151455732},{"NoteNumber":62,"Velocity":81,"Duration":689654,"SoundDuration":689654,"Delta":151455732},{"NoteNumber":58,"Velocity":81,"Duration":689654,"SoundDuration":689654,"Delta":151455732},{"NoteNumber":55,"Velocity":81,"Duration":689654,"SoundDuration":689654,"Delta":151455732},{"NoteNumber":72,"Velocity":75,"Duration":145985,"SoundDuration":145985,"Delta":152145387},{"NoteNumber":75,"Velocity":75,"Duration":145985,"SoundDuration":145985,"Delta":152145387},{"NoteNumber":78,"Velocity":84,"Duration":145985,"SoundDuration":145985,"Delta":152145387},{"NoteNumber":84,"Velocity":84,"Duration":145985,"SoundDuration":145985,"Delta":152145387},{"NoteNumber":57,"Velocity":72,"Duration":145985,"SoundDuration":145985,"Delta":152145387},{"NoteNumber":60,"Velocity":72,"Duration":145985,"SoundDuration":145985,"Delta":152145387},{"NoteNumber":66,"Velocity":72,"Duration":145985,"SoundDuration":145985,"Delta":152145387},{"NoteNumber":70,"Velocity":75,"Duration":729926,"SoundDuration":729926,"Delta":152291373},{"NoteNumber":74,"Velocity":75,"Duration":729926,"SoundDuration":729926,"Delta":152291373},{"NoteNumber":82,"Velocity":84,"Duration":729926,"SoundDuration":729926,"Delta":152291373},{"NoteNumber":79,"Velocity":84,"Duration":729926,"SoundDuration":729926,"Delta":152291373},{"NoteNumber":67,"Velocity":72,"Duration":729926,"SoundDuration":729926,"Delta":152291373},{"NoteNumber":62,"Velocity":72,"Duration":729926,"SoundDuration":729926,"Delta":152291373},{"NoteNumber":58,"Velocity":72,"Duration":729926,"SoundDuration":729926,"Delta":152291373},{"NoteNumber":67,"Velocity":75,"Duration":145985,"SoundDuration":145985,"Delta":153021299},{"NoteNumber":72,"Velocity":75,"Duration":145985,"SoundDuration":145985,"Delta":153021299},{"NoteNumber":75,"Velocity":84,"Duration":145985,"SoundDuration":145985,"Delta":153021299},{"NoteNumber":79,"Velocity":84,"Duration":145985,"SoundDuration":145985,"Delta":153021299},{"NoteNumber":48,"Velocity":72,"Duration":145985,"SoundDuration":145985,"Delta":153021299},{"NoteNumber":51,"Velocity":72,"Duration":145985,"SoundDuration":145985,"Delta":153021299},{"NoteNumber":57,"Velocity":72,"Duration":145985,"SoundDuration":145985,"Delta":153021299},{"NoteNumber":70,"Velocity":80,"Duration":291970,"SoundDuration":291970,"Delta":153167285},{"NoteNumber":65,"Velocity":75,"Duration":291970,"SoundDuration":291970,"Delta":153167285},{"NoteNumber":74,"Velocity":84,"Duration":291970,"SoundDuration":291970,"Delta":153167285},{"NoteNumber":77,"Velocity":84,"Duration":291970,"SoundDuration":291970,"Delta":153167285},{"NoteNumber":50,"Velocity":72,"Duration":291970,"SoundDuration":291970,"Delta":153167285},{"NoteNumber":53,"Velocity":72,"Duration":291970,"SoundDuration":291970,"Delta":153167285},{"NoteNumber":58,"Velocity":72,"Duration":291970,"SoundDuration":291970,"Delta":153167285},{"NoteNumber":63,"Velocity":75,"Duration":291970,"SoundDuration":291970,"Delta":153459255},{"NoteNumber":72,"Velocity":84,"Duration":291970,"SoundDuration":291970,"Delta":153459255},{"NoteNumber":75,"Velocity":84,"Duration":291970,"SoundDuration":291970,"Delta":153459255},{"NoteNumber":42,"Velocity":64,"Duration":291970,"SoundDuration":291970,"Delta":153459255},{"NoteNumber":54,"Velocity":72,"Duration":291970,"SoundDuration":291970,"Delta":153459255},{"NoteNumber":62,"Velocity":75,"Duration":291970,"SoundDuration":291970,"Delta":153751226},{"NoteNumber":70,"Velocity":84,"Duration":291970,"SoundDuration":291970,"Delta":153751226},{"NoteNumber":74,"Velocity":84,"Duration":291970,"SoundDuration":291970,"Delta":153751226},{"NoteNumber":43,"Velocity":64,"Duration":291970,"SoundDuration":291970,"Delta":153751226},{"NoteNumber":55,"Velocity":72,"Duration":291970,"SoundDuration":291970,"Delta":153751226},{"NoteNumber":67,"Velocity":60,"Duration":220183,"SoundDuration":220183,"Delta":154043197},{"NoteNumber":75,"Velocity":67,"Duration":220183,"SoundDuration":220183,"Delta":154043197},{"NoteNumber":79,"Velocity":67,"Duration":220183,"SoundDuration":220183,"Delta":154043197},{"NoteNumber":36,"Velocity":54,"Duration":220183,"SoundDuration":220183,"Delta":154043197},{"NoteNumber":48,"Velocity":60,"Duration":220183,"SoundDuration":220183,"Delta":154043197},{"NoteNumber":77,"Velocity":67,"Duration":219687,"SoundDuration":219687,"Delta":154263380},{"NoteNumber":74,"Velocity":67,"Duration":219687,"SoundDuration":219687,"Delta":154263380},{"NoteNumber":65,"Velocity":60,"Duration":219687,"SoundDuration":219687,"Delta":154263380},{"NoteNumber":50,"Velocity":60,"Duration":219687,"SoundDuration":219687,"Delta":154263380},{"NoteNumber":38,"Velocity":54,"Duration":219687,"SoundDuration":219687,"Delta":154263380},{"NoteNumber":70,"Velocity":59,"Duration":205545,"SoundDuration":205545,"Delta":154483068},{"NoteNumber":74,"Velocity":59,"Duration":205545,"SoundDuration":205545,"Delta":154483068},{"NoteNumber":62,"Velocity":53,"Duration":205545,"SoundDuration":205545,"Delta":154483068},{"NoteNumber":54,"Velocity":50,"Duration":205545,"SoundDuration":205545,"Delta":154483068},{"NoteNumber":42,"Velocity":45,"Duration":205545,"SoundDuration":205545,"Delta":154483068},{"NoteNumber":74,"Velocity":57,"Duration":201830,"SoundDuration":201830,"Delta":154688613},{"NoteNumber":58,"Velocity":51,"Duration":201830,"SoundDuration":201830,"Delta":154688613},{"NoteNumber":62,"Velocity":57,"Duration":201830,"SoundDuration":201830,"Delta":154688613},{"NoteNumber":55,"Velocity":49,"Duration":201830,"SoundDuration":201830,"Delta":154688613},{"NoteNumber":43,"Velocity":44,"Duration":201830,"SoundDuration":201830,"Delta":154688613},{"NoteNumber":72,"Velocity":56,"Duration":198628,"SoundDuration":198628,"Delta":154890443},{"NoteNumber":75,"Velocity":56,"Duration":198628,"SoundDuration":198628,"Delta":154890443},{"NoteNumber":63,"Velocity":50,"Duration":198628,"SoundDuration":198628,"Delta":154890443},{"NoteNumber":57,"Velocity":48,"Duration":198628,"SoundDuration":198628,"Delta":154890443},{"NoteNumber":45,"Velocity":43,"Duration":198628,"SoundDuration":198628,"Delta":154890443},{"NoteNumber":62,"Velocity":54,"Duration":176637,"SoundDuration":176637,"Delta":155089071},{"NoteNumber":70,"Velocity":61,"Duration":176637,"SoundDuration":176637,"Delta":155089071},{"NoteNumber":74,"Velocity":61,"Duration":176637,"SoundDuration":176637,"Delta":155089071},{"NoteNumber":46,"Velocity":48,"Duration":176637,"SoundDuration":176637,"Delta":155089071},{"NoteNumber":58,"Velocity":54,"Duration":176637,"SoundDuration":176637,"Delta":155089071},{"NoteNumber":70,"Velocity":62,"Duration":200521,"SoundDuration":200521,"Delta":155292561},{"NoteNumber":74,"Velocity":62,"Duration":200521,"SoundDuration":200521,"Delta":155292561},{"NoteNumber":76,"Velocity":69,"Duration":200521,"SoundDuration":200521,"Delta":155292561},{"NoteNumber":82,"Velocity":69,"Duration":200521,"SoundDuration":200521,"Delta":155292561},{"NoteNumber":43,"Velocity":57,"Duration":200521,"SoundDuration":200521,"Delta":155292561},{"NoteNumber":55,"Velocity":64,"Duration":200521,"SoundDuration":200521,"Delta":155292561},{"NoteNumber":69,"Velocity":61,"Duration":200043,"SoundDuration":200043,"Delta":155493083},{"NoteNumber":73,"Velocity":61,"Duration":200043,"SoundDuration":200043,"Delta":155493083},{"NoteNumber":76,"Velocity":68,"Duration":200043,"SoundDuration":200043,"Delta":155493083},{"NoteNumber":81,"Velocity":68,"Duration":200043,"SoundDuration":200043,"Delta":155493083},{"NoteNumber":45,"Velocity":57,"Duration":200043,"SoundDuration":200043,"Delta":155493083},{"NoteNumber":57,"Velocity":64,"Duration":200043,"SoundDuration":200043,"Delta":155493083},{"NoteNumber":65,"Velocity":60,"Duration":198140,"SoundDuration":198140,"Delta":155693126},{"NoteNumber":69,"Velocity":60,"Duration":198140,"SoundDuration":198140,"Delta":155693126},{"NoteNumber":74,"Velocity":67,"Duration":198140,"SoundDuration":198140,"Delta":155693126},{"NoteNumber":77,"Velocity":67,"Duration":198140,"SoundDuration":198140,"Delta":155693126},{"NoteNumber":38,"Velocity":56,"Duration":198140,"SoundDuration":198140,"Delta":155693126},{"NoteNumber":50,"Velocity":63,"Duration":198140,"SoundDuration":198140,"Delta":155693126},{"NoteNumber":62,"Velocity":59,"Duration":196283,"SoundDuration":196283,"Delta":155891267},{"NoteNumber":65,"Velocity":59,"Duration":196283,"SoundDuration":196283,"Delta":155891267},{"NoteNumber":70,"Velocity":66,"Duration":196283,"SoundDuration":196283,"Delta":155891267},{"NoteNumber":74,"Velocity":66,"Duration":196283,"SoundDuration":196283,"Delta":155891267},{"NoteNumber":46,"Velocity":56,"Duration":196283,"SoundDuration":196283,"Delta":155891267},{"NoteNumber":58,"Velocity":63,"Duration":196283,"SoundDuration":196283,"Delta":155891267},{"NoteNumber":67,"Velocity":58,"Duration":193450,"SoundDuration":193450,"Delta":156087550},{"NoteNumber":70,"Velocity":58,"Duration":193450,"SoundDuration":193450,"Delta":156087550},{"NoteNumber":75,"Velocity":65,"Duration":193450,"SoundDuration":193450,"Delta":156087550},{"NoteNumber":79,"Velocity":65,"Duration":193450,"SoundDuration":193450,"Delta":156087550},{"NoteNumber":39,"Velocity":55,"Duration":193450,"SoundDuration":193450,"Delta":156087550},{"NoteNumber":51,"Velocity":62,"Duration":193450,"SoundDuration":193450,"Delta":156087550},{"NoteNumber":65,"Velocity":57,"Duration":179708,"SoundDuration":179708,"Delta":156281001},{"NoteNumber":70,"Velocity":57,"Duration":179708,"SoundDuration":179708,"Delta":156281001},{"NoteNumber":74,"Velocity":64,"Duration":179708,"SoundDuration":179708,"Delta":156281001},{"NoteNumber":77,"Velocity":64,"Duration":179708,"SoundDuration":179708,"Delta":156281001},{"NoteNumber":41,"Velocity":54,"Duration":179708,"SoundDuration":179708,"Delta":156281001},{"NoteNumber":53,"Velocity":61,"Duration":179708,"SoundDuration":179708,"Delta":156281001},{"NoteNumber":75,"Velocity":57,"Duration":198609,"SoundDuration":198609,"Delta":156486382},{"NoteNumber":84,"Velocity":64,"Duration":198609,"SoundDuration":198609,"Delta":156486382},{"NoteNumber":87,"Velocity":64,"Duration":198609,"SoundDuration":198609,"Delta":156486382},{"NoteNumber":42,"Velocity":54,"Duration":198609,"SoundDuration":198609,"Delta":156486382},{"NoteNumber":54,"Velocity":60,"Duration":198609,"SoundDuration":198609,"Delta":156486382},{"NoteNumber":74,"Velocity":64,"Duration":195885,"SoundDuration":195885,"Delta":156684992},{"NoteNumber":82,"Velocity":72,"Duration":195885,"SoundDuration":195885,"Delta":156684992},{"NoteNumber":86,"Velocity":72,"Duration":195885,"SoundDuration":195885,"Delta":156684992},{"NoteNumber":43,"Velocity":57,"Duration":195885,"SoundDuration":195885,"Delta":156684992},{"NoteNumber":55,"Velocity":64,"Duration":195885,"SoundDuration":195885,"Delta":156684992},{"NoteNumber":70,"Velocity":63,"Duration":191452,"SoundDuration":191452,"Delta":156880878},{"NoteNumber":74,"Velocity":71,"Duration":191452,"SoundDuration":191452,"Delta":156880878},{"NoteNumber":82,"Velocity":71,"Duration":191452,"SoundDuration":191452,"Delta":156880878},{"NoteNumber":50,"Velocity":57,"Duration":191452,"SoundDuration":191452,"Delta":156880878},{"NoteNumber":62,"Velocity":64,"Duration":191452,"SoundDuration":191452,"Delta":156880878},{"NoteNumber":67,"Velocity":63,"Duration":186323,"SoundDuration":186323,"Delta":157072330},{"NoteNumber":70,"Velocity":63,"Duration":186323,"SoundDuration":186323,"Delta":157072330},{"NoteNumber":79,"Velocity":70,"Duration":186323,"SoundDuration":186323,"Delta":157072330},{"NoteNumber":51,"Velocity":56,"Duration":186323,"SoundDuration":186323,"Delta":157072330},{"NoteNumber":63,"Velocity":63,"Duration":186323,"SoundDuration":186323,"Delta":157072330},{"NoteNumber":72,"Velocity":62,"Duration":186323,"SoundDuration":186323,"Delta":157258654},{"NoteNumber":75,"Velocity":69,"Duration":186323,"SoundDuration":186323,"Delta":157258654},{"NoteNumber":84,"Velocity":69,"Duration":186323,"SoundDuration":186323,"Delta":157258654},{"NoteNumber":45,"Velocity":54,"Duration":186323,"SoundDuration":186323,"Delta":157258654},{"NoteNumber":57,"Velocity":61,"Duration":186323,"SoundDuration":186323,"Delta":157258654},{"NoteNumber":70,"Velocity":61,"Duration":193162,"SoundDuration":193162,"Delta":157444978},{"NoteNumber":74,"Velocity":68,"Duration":193162,"SoundDuration":193162,"Delta":157444978},{"NoteNumber":82,"Velocity":68,"Duration":193162,"SoundDuration":193162,"Delta":157444978},{"NoteNumber":46,"Velocity":60,"Duration":193162,"SoundDuration":193162,"Delta":157444978},{"NoteNumber":58,"Velocity":60,"Duration":193162,"SoundDuration":193162,"Delta":157444978},{"NoteNumber":69,"Velocity":60,"Duration":185185,"SoundDuration":185185,"Delta":157638140},{"NoteNumber":74,"Velocity":67,"Duration":185185,"SoundDuration":185185,"Delta":157638140},{"NoteNumber":81,"Velocity":67,"Duration":185185,"SoundDuration":185185,"Delta":157638140},{"NoteNumber":42,"Velocity":52,"Duration":185185,"SoundDuration":185185,"Delta":157638140},{"NoteNumber":54,"Velocity":58,"Duration":185185,"SoundDuration":185185,"Delta":157638140},{"NoteNumber":70,"Velocity":60,"Duration":194174,"SoundDuration":194174,"Delta":157823325},{"NoteNumber":74,"Velocity":67,"Duration":194174,"SoundDuration":194174,"Delta":157823325},{"NoteNumber":82,"Velocity":67,"Duration":194174,"SoundDuration":194174,"Delta":157823325},{"NoteNumber":43,"Velocity":50,"Duration":194174,"SoundDuration":194174,"Delta":157823325},{"NoteNumber":55,"Velocity":56,"Duration":194174,"SoundDuration":194174,"Delta":157823325},{"NoteNumber":64,"Velocity":63,"Duration":186915,"SoundDuration":186915,"Delta":158017500},{"NoteNumber":67,"Velocity":63,"Duration":186915,"SoundDuration":186915,"Delta":158017500},{"NoteNumber":73,"Velocity":70,"Duration":186915,"SoundDuration":186915,"Delta":158017500},{"NoteNumber":76,"Velocity":70,"Duration":186915,"SoundDuration":186915,"Delta":158017500},{"NoteNumber":45,"Velocity":51,"Duration":186915,"SoundDuration":186915,"Delta":158017500},{"NoteNumber":57,"Velocity":57,"Duration":186915,"SoundDuration":186915,"Delta":158017500},{"NoteNumber":69,"Velocity":60,"Duration":163616,"SoundDuration":163616,"Delta":158204416},{"NoteNumber":72,"Velocity":60,"Duration":163616,"SoundDuration":163616,"Delta":158204416},{"NoteNumber":78,"Velocity":67,"Duration":163616,"SoundDuration":163616,"Delta":158204416},{"NoteNumber":81,"Velocity":67,"Duration":163616,"SoundDuration":163616,"Delta":158204416},{"NoteNumber":38,"Velocity":53,"Duration":163616,"SoundDuration":163616,"Delta":158204416},{"NoteNumber":50,"Velocity":59,"Duration":163616,"SoundDuration":163616,"Delta":158204416},{"NoteNumber":62,"Velocity":63,"Duration":181818,"SoundDuration":181818,"Delta":158391419},{"NoteNumber":65,"Velocity":63,"Duration":181818,"SoundDuration":181818,"Delta":158391419},{"NoteNumber":71,"Velocity":71,"Duration":181818,"SoundDuration":181818,"Delta":158391419},{"NoteNumber":74,"Velocity":71,"Duration":181818,"SoundDuration":181818,"Delta":158391419},{"NoteNumber":43,"Velocity":54,"Duration":181818,"SoundDuration":181818,"Delta":158391419},{"NoteNumber":55,"Velocity":60,"Duration":181818,"SoundDuration":181818,"Delta":158391419},{"NoteNumber":67,"Velocity":63,"Duration":181818,"SoundDuration":181818,"Delta":158573237},{"NoteNumber":70,"Velocity":63,"Duration":181818,"SoundDuration":181818,"Delta":158573237},{"NoteNumber":75,"Velocity":71,"Duration":181818,"SoundDuration":181818,"Delta":158573237},{"NoteNumber":79,"Velocity":71,"Duration":181818,"SoundDuration":181818,"Delta":158573237},{"NoteNumber":36,"Velocity":57,"Duration":181818,"SoundDuration":181818,"Delta":158573237},{"NoteNumber":48,"Velocity":64,"Duration":181818,"SoundDuration":181818,"Delta":158573237},{"NoteNumber":60,"Velocity":61,"Duration":184523,"SoundDuration":184523,"Delta":158755055},{"NoteNumber":63,"Velocity":61,"Duration":184523,"SoundDuration":184523,"Delta":158755055},{"NoteNumber":69,"Velocity":68,"Duration":184523,"SoundDuration":184523,"Delta":158755055},{"NoteNumber":72,"Velocity":68,"Duration":184523,"SoundDuration":184523,"Delta":158755055},{"NoteNumber":41,"Velocity":54,"Duration":184523,"SoundDuration":184523,"Delta":158755055},{"NoteNumber":53,"Velocity":60,"Duration":184523,"SoundDuration":184523,"Delta":158755055},{"NoteNumber":65,"Velocity":67,"Duration":180681,"SoundDuration":180681,"Delta":158939579},{"NoteNumber":68,"Velocity":75,"Duration":180681,"SoundDuration":180681,"Delta":158939579},{"NoteNumber":74,"Velocity":75,"Duration":180681,"SoundDuration":180681,"Delta":158939579},{"NoteNumber":77,"Velocity":75,"Duration":180681,"SoundDuration":180681,"Delta":158939579},{"NoteNumber":35,"Velocity":64,"Duration":180681,"SoundDuration":180681,"Delta":158939579},{"NoteNumber":47,"Velocity":72,"Duration":180681,"SoundDuration":180681,"Delta":158939579},{"NoteNumber":63,"Velocity":65,"Duration":186579,"SoundDuration":186579,"Delta":159120261},{"NoteNumber":67,"Velocity":65,"Duration":186579,"SoundDuration":186579,"Delta":159120261},{"NoteNumber":72,"Velocity":73,"Duration":186579,"SoundDuration":186579,"Delta":159120261},{"NoteNumber":75,"Velocity":73,"Duration":186579,"SoundDuration":186579,"Delta":159120261},{"NoteNumber":36,"Velocity":62,"Duration":186579,"SoundDuration":186579,"Delta":159120261},{"NoteNumber":48,"Velocity":69,"Duration":186579,"SoundDuration":186579,"Delta":159120261},{"NoteNumber":60,"Velocity":64,"Duration":201785,"SoundDuration":201785,"Delta":159306841},{"NoteNumber":67,"Velocity":64,"Duration":201785,"SoundDuration":201785,"Delta":159306841},{"NoteNumber":72,"Velocity":72,"Duration":201785,"SoundDuration":201785,"Delta":159306841},{"NoteNumber":39,"Velocity":59,"Duration":201785,"SoundDuration":201785,"Delta":159306841},{"NoteNumber":51,"Velocity":66,"Duration":201785,"SoundDuration":201785,"Delta":159306841},{"NoteNumber":67,"Velocity":72,"Duration":212359,"SoundDuration":212359,"Delta":159508626},{"NoteNumber":70,"Velocity":72,"Duration":212359,"SoundDuration":212359,"Delta":159508626},{"NoteNumber":72,"Velocity":81,"Duration":212359,"SoundDuration":212359,"Delta":159508626},{"NoteNumber":79,"Velocity":81,"Duration":212359,"SoundDuration":212359,"Delta":159508626},{"NoteNumber":40,"Velocity":66,"Duration":212359,"SoundDuration":212359,"Delta":159508626},{"NoteNumber":52,"Velocity":74,"Duration":212359,"SoundDuration":212359,"Delta":159508626},{"NoteNumber":60,"Velocity":78,"Duration":2154104,"SoundDuration":2154104,"Delta":159720986},{"NoteNumber":70,"Velocity":87,"Duration":1206736,"SoundDuration":1206736,"Delta":159720986},{"NoteNumber":65,"Velocity":78,"Duration":1206736,"SoundDuration":1206736,"Delta":159720986},{"NoteNumber":74,"Velocity":87,"Duration":2154104,"SoundDuration":2154104,"Delta":159720986},{"NoteNumber":41,"Velocity":72,"Duration":1206736,"SoundDuration":1206736,"Delta":159720986},{"NoteNumber":53,"Velocity":80,"Duration":1206736,"SoundDuration":1206736,"Delta":159720986},{"NoteNumber":63,"Velocity":79,"Duration":947368,"SoundDuration":947368,"Delta":160927722},{"NoteNumber":69,"Velocity":88,"Duration":947368,"SoundDuration":947368,"Delta":160927722},{"NoteNumber":57,"Velocity":70,"Duration":947368,"SoundDuration":947368,"Delta":160927722},{"NoteNumber":48,"Velocity":63,"Duration":947368,"SoundDuration":947368,"Delta":160927722},{"NoteNumber":51,"Velocity":70,"Duration":947368,"SoundDuration":947368,"Delta":160927722},{"NoteNumber":70,"Velocity":89,"Duration":409722,"SoundDuration":409722,"Delta":161875091},{"NoteNumber":65,"Velocity":80,"Duration":409722,"SoundDuration":409722,"Delta":161875091},{"NoteNumber":62,"Velocity":80,"Duration":409722,"SoundDuration":409722,"Delta":161875091},{"NoteNumber":74,"Velocity":89,"Duration":409722,"SoundDuration":409722,"Delta":161875091},{"NoteNumber":22,"Velocity":67,"Duration":409722,"SoundDuration":409722,"Delta":161875091},{"NoteNumber":34,"Velocity":75,"Duration":409722,"SoundDuration":409722,"Delta":161875091},{"NoteNumber":62,"Velocity":80,"Duration":1500000,"SoundDuration":1500000,"Delta":162291757},{"NoteNumber":65,"Velocity":80,"Duration":1500000,"SoundDuration":1500000,"Delta":162291757},{"NoteNumber":70,"Velocity":89,"Duration":1500000,"SoundDuration":1500000,"Delta":162291757},{"NoteNumber":74,"Velocity":89,"Duration":1500000,"SoundDuration":1500000,"Delta":162291757},{"NoteNumber":41,"Velocity":67,"Duration":1500000,"SoundDuration":1500000,"Delta":162291757},{"NoteNumber":46,"Velocity":67,"Duration":1500000,"SoundDuration":1500000,"Delta":162291757},{"NoteNumber":50,"Velocity":75,"Duration":1500000,"SoundDuration":1500000,"Delta":162291757},{"NoteNumber":53,"Velocity":75,"Duration":750000,"SoundDuration":750000,"Delta":162291757},{"NoteNumber":98,"Velocity":62,"Duration":74999,"SoundDuration":74999,"Delta":162666757},{"NoteNumber":53,"Velocity":64,"Duration":1125000,"SoundDuration":1125000,"Delta":162666757},{"NoteNumber":99,"Velocity":62,"Duration":75000,"SoundDuration":75000,"Delta":162741757},{"NoteNumber":98,"Velocity":62,"Duration":74999,"SoundDuration":74999,"Delta":162816757},{"NoteNumber":96,"Velocity":62,"Duration":75000,"SoundDuration":75000,"Delta":162891757},{"NoteNumber":98,"Velocity":62,"Duration":74999,"SoundDuration":74999,"Delta":162966757},{"NoteNumber":103,"Velocity":62,"Duration":74999,"SoundDuration":74999,"Delta":163041757},{"NoteNumber":58,"Velocity":65,"Duration":375000,"SoundDuration":375000,"Delta":163041757},{"NoteNumber":101,"Velocity":62,"Duration":75000,"SoundDuration":75000,"Delta":163116757},{"NoteNumber":98,"Velocity":62,"Duration":74999,"SoundDuration":74999,"Delta":163191757},{"NoteNumber":96,"Velocity":62,"Duration":75000,"SoundDuration":75000,"Delta":163266757},{"NoteNumber":94,"Velocity":62,"Duration":74999,"SoundDuration":74999,"Delta":163341757},{"NoteNumber":101,"Velocity":62,"Duration":74999,"SoundDuration":74999,"Delta":163416757},{"NoteNumber":62,"Velocity":66,"Duration":375000,"SoundDuration":375000,"Delta":163416757},{"NoteNumber":98,"Velocity":62,"Duration":75000,"SoundDuration":75000,"Delta":163491757},{"NoteNumber":96,"Velocity":62,"Duration":74999,"SoundDuration":74999,"Delta":163566757},{"NoteNumber":94,"Velocity":62,"Duration":75000,"SoundDuration":75000,"Delta":163641757},{"NoteNumber":91,"Velocity":62,"Duration":74999,"SoundDuration":74999,"Delta":163716757},{"NoteNumber":98,"Velocity":62,"Duration":74999,"SoundDuration":74999,"Delta":163791757},{"NoteNumber":65,"Velocity":67,"Duration":375000,"SoundDuration":375000,"Delta":163791757},{"NoteNumber":96,"Velocity":62,"Duration":75000,"SoundDuration":75000,"Delta":163866757},{"NoteNumber":94,"Velocity":62,"Duration":74999,"SoundDuration":74999,"Delta":163941757},{"NoteNumber":91,"Velocity":62,"Duration":75000,"SoundDuration":75000,"Delta":164016757},{"NoteNumber":89,"Velocity":62,"Duration":74999,"SoundDuration":74999,"Delta":164091757},{"NoteNumber":91,"Velocity":62,"Duration":74999,"SoundDuration":74999,"Delta":164166757},{"NoteNumber":70,"Velocity":68,"Duration":760582,"SoundDuration":760582,"Delta":164166757},{"NoteNumber":89,"Velocity":62,"Duration":75000,"SoundDuration":75000,"Delta":164241757},{"NoteNumber":86,"Velocity":62,"Duration":74999,"SoundDuration":74999,"Delta":164316757},{"NoteNumber":84,"Velocity":62,"Duration":75000,"SoundDuration":75000,"Delta":164391757},{"NoteNumber":82,"Velocity":62,"Duration":74999,"SoundDuration":74999,"Delta":164466757},{"NoteNumber":89,"Velocity":61,"Duration":75078,"SoundDuration":75078,"Delta":164541757},{"NoteNumber":86,"Velocity":61,"Duration":75991,"SoundDuration":75991,"Delta":164616836},{"NoteNumber":84,"Velocity":62,"Duration":77172,"SoundDuration":77172,"Delta":164692827},{"NoteNumber":82,"Velocity":64,"Duration":78261,"SoundDuration":78261,"Delta":164770000},{"NoteNumber":79,"Velocity":67,"Duration":79079,"SoundDuration":79079,"Delta":164848261},{"NoteNumber":81,"Velocity":67,"Duration":66890,"SoundDuration":66890,"Delta":164927340},{"NoteNumber":63,"Velocity":63,"Duration":413737,"SoundDuration":413737,"Delta":164927340},{"NoteNumber":66,"Velocity":71,"Duration":413737,"SoundDuration":413737,"Delta":164927340},{"NoteNumber":72,"Velocity":70,"Duration":413737,"SoundDuration":413737,"Delta":164927340},{"NoteNumber":82,"Velocity":67,"Duration":67797,"SoundDuration":67797,"Delta":164994231},{"NoteNumber":83,"Velocity":66,"Duration":68493,"SoundDuration":68493,"Delta":165062028},{"NoteNumber":84,"Velocity":62,"Duration":69204,"SoundDuration":69204,"Delta":165130521},{"NoteNumber":87,"Velocity":62,"Duration":70176,"SoundDuration":70176,"Delta":165199726},{"NoteNumber":90,"Velocity":61,"Duration":71175,"SoundDuration":71175,"Delta":165269903},{"NoteNumber":89,"Velocity":59,"Duration":431654,"SoundDuration":431654,"Delta":165341078},{"NoteNumber":86,"Velocity":59,"Duration":431654,"SoundDuration":431654,"Delta":165341078},{"NoteNumber":58,"Velocity":59,"Duration":431654,"SoundDuration":431654,"Delta":165341078},{"NoteNumber":65,"Velocity":65,"Duration":431654,"SoundDuration":431654,"Delta":165341078},{"NoteNumber":74,"Velocity":63,"Duration":431654,"SoundDuration":431654,"Delta":165341078},{"NoteNumber":89,"Velocity":56,"Duration":74999,"SoundDuration":74999,"Delta":165772732},{"NoteNumber":34,"Velocity":41,"Duration":375000,"SoundDuration":375000,"Delta":165772732},{"NoteNumber":41,"Velocity":41,"Duration":375000,"SoundDuration":375000,"Delta":165772732},{"NoteNumber":50,"Velocity":49,"Duration":375000,"SoundDuration":375000,"Delta":165772732},{"NoteNumber":91,"Velocity":56,"Duration":75000,"SoundDuration":75000,"Delta":165847732},{"NoteNumber":89,"Velocity":56,"Duration":74999,"SoundDuration":74999,"Delta":165922732},{"NoteNumber":88,"Velocity":56,"Duration":75000,"SoundDuration":75000,"Delta":165997732},{"NoteNumber":89,"Velocity":56,"Duration":74999,"SoundDuration":74999,"Delta":166072732},{"NoteNumber":94,"Velocity":56,"Duration":74999,"SoundDuration":74999,"Delta":166147732},{"NoteNumber":53,"Velocity":54,"Duration":375000,"SoundDuration":375000,"Delta":166147732},{"NoteNumber":91,"Velocity":56,"Duration":75000,"SoundDuration":75000,"Delta":166222732},{"NoteNumber":89,"Velocity":56,"Duration":74999,"SoundDuration":74999,"Delta":166297732},{"NoteNumber":87,"Velocity":56,"Duration":75000,"SoundDuration":75000,"Delta":166372732},{"NoteNumber":86,"Velocity":56,"Duration":74999,"SoundDuration":74999,"Delta":166447732},{"NoteNumber":91,"Velocity":56,"Duration":74999,"SoundDuration":74999,"Delta":166522732},{"NoteNumber":58,"Velocity":50,"Duration":375000,"SoundDuration":375000,"Delta":166522732},{"NoteNumber":89,"Velocity":56,"Duration":75000,"SoundDuration":75000,"Delta":166597732},{"NoteNumber":86,"Velocity":56,"Duration":74999,"SoundDuration":74999,"Delta":166672732},{"NoteNumber":84,"Velocity":56,"Duration":75000,"SoundDuration":75000,"Delta":166747732},{"NoteNumber":82,"Velocity":56,"Duration":74999,"SoundDuration":74999,"Delta":166822732},{"NoteNumber":89,"Velocity":56,"Duration":74999,"SoundDuration":74999,"Delta":166897732},{"NoteNumber":62,"Velocity":54,"Duration":375000,"SoundDuration":375000,"Delta":166897732},{"NoteNumber":86,"Velocity":56,"Duration":75000,"SoundDuration":75000,"Delta":166972732},{"NoteNumber":84,"Velocity":55,"Duration":74999,"SoundDuration":74999,"Delta":167047732},{"NoteNumber":82,"Velocity":54,"Duration":75000,"SoundDuration":75000,"Delta":167122732},{"NoteNumber":79,"Velocity":53,"Duration":74999,"SoundDuration":74999,"Delta":167197732},{"NoteNumber":86,"Velocity":52,"Duration":74999,"SoundDuration":74999,"Delta":167272732},{"NoteNumber":65,"Velocity":50,"Duration":760582,"SoundDuration":760582,"Delta":167272732},{"NoteNumber":84,"Velocity":51,"Duration":75000,"SoundDuration":75000,"Delta":167347732},{"NoteNumber":82,"Velocity":50,"Duration":74999,"SoundDuration":74999,"Delta":167422732},{"NoteNumber":79,"Velocity":50,"Duration":75000,"SoundDuration":75000,"Delta":167497732},{"NoteNumber":77,"Velocity":49,"Duration":74999,"SoundDuration":74999,"Delta":167572732},{"NoteNumber":75,"Velocity":48,"Duration":75078,"SoundDuration":75078,"Delta":167647732},{"NoteNumber":74,"Velocity":50,"Duration":75991,"SoundDuration":75991,"Delta":167722811},{"NoteNumber":72,"Velocity":51,"Duration":77172,"SoundDuration":77172,"Delta":167798802},{"NoteNumber":75,"Velocity":54,"Duration":78261,"SoundDuration":78261,"Delta":167875975},{"NoteNumber":77,"Velocity":55,"Duration":79079,"SoundDuration":79079,"Delta":167954236},{"NoteNumber":78,"Velocity":56,"Duration":66890,"SoundDuration":66890,"Delta":168033315},{"NoteNumber":54,"Velocity":50,"Duration":413737,"SoundDuration":413737,"Delta":168033315},{"NoteNumber":60,"Velocity":50,"Duration":413737,"SoundDuration":413737,"Delta":168033315},{"NoteNumber":63,"Velocity":56,"Duration":413737,"SoundDuration":413737,"Delta":168033315},{"NoteNumber":69,"Velocity":55,"Duration":413737,"SoundDuration":413737,"Delta":168033315},{"NoteNumber":80,"Velocity":54,"Duration":67797,"SoundDuration":67797,"Delta":168100206},{"NoteNumber":81,"Velocity":52,"Duration":68493,"SoundDuration":68493,"Delta":168168003},{"NoteNumber":83,"Velocity":50,"Duration":69204,"SoundDuration":69204,"Delta":168236496},{"NoteNumber":53,"Velocity":42,"Duration":642211,"SoundDuration":642211,"Delta":168236496},{"NoteNumber":84,"Velocity":49,"Duration":70176,"SoundDuration":70176,"Delta":168305701},{"NoteNumber":62,"Velocity":47,"Duration":538041,"SoundDuration":538041,"Delta":168340666},{"NoteNumber":87,"Velocity":47,"Duration":71175,"SoundDuration":71175,"Delta":168375878},{"NoteNumber":82,"Velocity":47,"Duration":431654,"SoundDuration":431654,"Delta":168447053},{"NoteNumber":86,"Velocity":47,"Duration":431654,"SoundDuration":431654,"Delta":168447053},{"NoteNumber":70,"Velocity":46,"Duration":431654,"SoundDuration":431654,"Delta":168447053},{"NoteNumber":82,"Velocity":46,"Duration":74999,"SoundDuration":74999,"Delta":168878707},{"NoteNumber":34,"Velocity":45,"Duration":375000,"SoundDuration":375000,"Delta":168878707},{"NoteNumber":41,"Velocity":44,"Duration":375000,"SoundDuration":375000,"Delta":168878707},{"NoteNumber":84,"Velocity":46,"Duration":75000,"SoundDuration":75000,"Delta":168953707},{"NoteNumber":82,"Velocity":46,"Duration":74999,"SoundDuration":74999,"Delta":169028707},{"NoteNumber":81,"Velocity":46,"Duration":75000,"SoundDuration":75000,"Delta":169103707},{"NoteNumber":82,"Velocity":46,"Duration":74999,"SoundDuration":74999,"Delta":169178707},{"NoteNumber":86,"Velocity":46,"Duration":74999,"SoundDuration":74999,"Delta":169253707},{"NoteNumber":46,"Velocity":44,"Duration":375000,"SoundDuration":375000,"Delta":169253707},{"NoteNumber":84,"Velocity":46,"Duration":75000,"SoundDuration":75000,"Delta":169328707},{"NoteNumber":82,"Velocity":46,"Duration":74999,"SoundDuration":74999,"Delta":169403707},{"NoteNumber":79,"Velocity":46,"Duration":75000,"SoundDuration":75000,"Delta":169478707},{"NoteNumber":77,"Velocity":46,"Duration":74999,"SoundDuration":74999,"Delta":169553707},{"NoteNumber":79,"Velocity":46,"Duration":74999,"SoundDuration":74999,"Delta":169628707},{"NoteNumber":50,"Velocity":44,"Duration":375000,"SoundDuration":375000,"Delta":169628707},{"NoteNumber":77,"Velocity":46,"Duration":75000,"SoundDuration":75000,"Delta":169703707},{"NoteNumber":74,"Velocity":46,"Duration":74999,"SoundDuration":74999,"Delta":169778707},{"NoteNumber":72,"Velocity":46,"Duration":75000,"SoundDuration":75000,"Delta":169853707},{"NoteNumber":70,"Velocity":46,"Duration":74999,"SoundDuration":74999,"Delta":169928707},{"NoteNumber":77,"Velocity":45,"Duration":74999,"SoundDuration":74999,"Delta":170003707},{"NoteNumber":53,"Velocity":45,"Duration":375000,"SoundDuration":375000,"Delta":170003707},{"NoteNumber":74,"Velocity":44,"Duration":75000,"SoundDuration":75000,"Delta":170078707},{"NoteNumber":72,"Velocity":43,"Duration":74999,"SoundDuration":74999,"Delta":170153707},{"NoteNumber":70,"Velocity":42,"Duration":75000,"SoundDuration":75000,"Delta":170228707},{"NoteNumber":67,"Velocity":42,"Duration":74999,"SoundDuration":74999,"Delta":170303707},{"NoteNumber":77,"Velocity":40,"Duration":74999,"SoundDuration":74999,"Delta":170378707},{"NoteNumber":58,"Velocity":40,"Duration":782115,"SoundDuration":782115,"Delta":170378707},{"NoteNumber":74,"Velocity":39,"Duration":75000,"SoundDuration":75000,"Delta":170453707},{"NoteNumber":72,"Velocity":38,"Duration":74999,"SoundDuration":74999,"Delta":170528707},{"NoteNumber":70,"Velocity":37,"Duration":75000,"SoundDuration":75000,"Delta":170603707},{"NoteNumber":67,"Velocity":36,"Duration":74999,"SoundDuration":74999,"Delta":170678707},{"NoteNumber":74,"Velocity":34,"Duration":78305,"SoundDuration":78305,"Delta":170753707},{"NoteNumber":72,"Velocity":35,"Duration":79695,"SoundDuration":79695,"Delta":170832013},{"NoteNumber":70,"Velocity":36,"Duration":81358,"SoundDuration":81358,"Delta":170911708},{"NoteNumber":67,"Velocity":37,"Duration":83098,"SoundDuration":83098,"Delta":170993066},{"NoteNumber":65,"Velocity":38,"Duration":84658,"SoundDuration":84658,"Delta":171076164},{"NoteNumber":69,"Velocity":37,"Duration":72203,"SoundDuration":72203,"Delta":171160823},{"NoteNumber":51,"Velocity":44,"Duration":449090,"SoundDuration":449090,"Delta":171160823},{"NoteNumber":54,"Velocity":44,"Duration":449090,"SoundDuration":449090,"Delta":171160823},{"NoteNumber":60,"Velocity":43,"Duration":449090,"SoundDuration":449090,"Delta":171160823},{"NoteNumber":70,"Velocity":37,"Duration":73261,"SoundDuration":73261,"Delta":171233026},{"NoteNumber":71,"Velocity":36,"Duration":74907,"SoundDuration":74907,"Delta":171306287},{"NoteNumber":72,"Velocity":36,"Duration":76046,"SoundDuration":76046,"Delta":171381194},{"NoteNumber":46,"Velocity":39,"Duration":667395,"SoundDuration":667395,"Delta":171381194},{"NoteNumber":75,"Velocity":35,"Duration":76335,"SoundDuration":76335,"Delta":171457241},{"NoteNumber":53,"Velocity":39,"Duration":553180,"SoundDuration":553180,"Delta":171495409},{"NoteNumber":78,"Velocity":34,"Duration":76335,"SoundDuration":76335,"Delta":171533577},{"NoteNumber":74,"Velocity":34,"Duration":152671,"SoundDuration":152671,"Delta":171609913},{"NoteNumber":77,"Velocity":34,"Duration":152671,"SoundDuration":152671,"Delta":171609913},{"NoteNumber":62,"Velocity":37,"Duration":438677,"SoundDuration":438677,"Delta":171609913},{"NoteNumber":72,"Velocity":32,"Duration":133333,"SoundDuration":133333,"Delta":171915256},{"NoteNumber":74,"Velocity":32,"Duration":80000,"SoundDuration":80000,"Delta":172048590},{"NoteNumber":34,"Velocity":37,"Duration":400000,"SoundDuration":400000,"Delta":172048590},{"NoteNumber":72,"Velocity":32,"Duration":79999,"SoundDuration":79999,"Delta":172128590},{"NoteNumber":70,"Velocity":32,"Duration":80000,"SoundDuration":80000,"Delta":172208590},{"NoteNumber":67,"Velocity":32,"Duration":80000,"SoundDuration":80000,"Delta":172288590},{"NoteNumber":65,"Velocity":32,"Duration":79999,"SoundDuration":79999,"Delta":172368590},{"NoteNumber":70,"Velocity":32,"Duration":80000,"SoundDuration":80000,"Delta":172448590},{"NoteNumber":50,"Velocity":31,"Duration":399779,"SoundDuration":399779,"Delta":172448590},{"NoteNumber":41,"Velocity":32,"Duration":399779,"SoundDuration":399779,"Delta":172448590},{"NoteNumber":67,"Velocity":32,"Duration":79999,"SoundDuration":79999,"Delta":172528590},{"NoteNumber":65,"Velocity":32,"Duration":80000,"SoundDuration":80000,"Delta":172608590},{"NoteNumber":63,"Velocity":32,"Duration":79999,"SoundDuration":79999,"Delta":172688590},{"NoteNumber":62,"Velocity":32,"Duration":79779,"SoundDuration":79779,"Delta":172768590},{"NoteNumber":63,"Velocity":32,"Duration":66890,"SoundDuration":66890,"Delta":172848369},{"NoteNumber":48,"Velocity":32,"Duration":421223,"SoundDuration":421223,"Delta":172848369},{"NoteNumber":51,"Velocity":32,"Duration":421223,"SoundDuration":421223,"Delta":172848369},{"NoteNumber":57,"Velocity":35,"Duration":421223,"SoundDuration":421223,"Delta":172848369},{"NoteNumber":66,"Velocity":31,"Duration":68260,"SoundDuration":68260,"Delta":172915259},{"NoteNumber":69,"Velocity":30,"Duration":69687,"SoundDuration":69687,"Delta":172983520},{"NoteNumber":71,"Velocity":29,"Duration":70925,"SoundDuration":70925,"Delta":173053207},{"NoteNumber":72,"Velocity":29,"Duration":72467,"SoundDuration":72467,"Delta":173124132},{"NoteNumber":75,"Velocity":28,"Duration":72992,"SoundDuration":72992,"Delta":173196600},{"NoteNumber":70,"Velocity":27,"Duration":145985,"SoundDuration":145985,"Delta":173269593},{"NoteNumber":74,"Velocity":27,"Duration":145985,"SoundDuration":145985,"Delta":173269593},{"NoteNumber":41,"Velocity":28,"Duration":428957,"SoundDuration":428957,"Delta":173269593},{"NoteNumber":50,"Velocity":32,"Duration":428957,"SoundDuration":428957,"Delta":173269593},{"NoteNumber":58,"Velocity":35,"Duration":428957,"SoundDuration":428957,"Delta":173269593},{"NoteNumber":65,"Velocity":32,"Duration":136986,"SoundDuration":136986,"Delta":173561563},{"NoteNumber":70,"Velocity":32,"Duration":82191,"SoundDuration":82191,"Delta":173698550},{"NoteNumber":34,"Velocity":36,"Duration":410958,"SoundDuration":410958,"Delta":173698550},{"NoteNumber":67,"Velocity":32,"Duration":82191,"SoundDuration":82191,"Delta":173780741},{"NoteNumber":65,"Velocity":32,"Duration":82191,"SoundDuration":82191,"Delta":173862933},{"NoteNumber":63,"Velocity":32,"Duration":82191,"SoundDuration":82191,"Delta":173945125},{"NoteNumber":62,"Velocity":32,"Duration":82191,"SoundDuration":82191,"Delta":174027317},{"NoteNumber":65,"Velocity":32,"Duration":82191,"SoundDuration":82191,"Delta":174109509},{"NoteNumber":50,"Velocity":31,"Duration":410958,"SoundDuration":410958,"Delta":174109509},{"NoteNumber":41,"Velocity":32,"Duration":410958,"SoundDuration":410958,"Delta":174109509},{"NoteNumber":63,"Velocity":32,"Duration":82191,"SoundDuration":82191,"Delta":174191700},{"NoteNumber":62,"Velocity":32,"Duration":82191,"SoundDuration":82191,"Delta":174273892},{"NoteNumber":60,"Velocity":32,"Duration":82191,"SoundDuration":82191,"Delta":174356084},{"NoteNumber":58,"Velocity":32,"Duration":82191,"SoundDuration":82191,"Delta":174438276},{"NoteNumber":57,"Velocity":30,"Duration":70679,"SoundDuration":70679,"Delta":174520468},{"NoteNumber":51,"Velocity":32,"Duration":477525,"SoundDuration":477525,"Delta":174520468},{"NoteNumber":54,"Velocity":35,"Duration":477525,"SoundDuration":477525,"Delta":174520468},{"NoteNumber":58,"Velocity":30,"Duration":73809,"SoundDuration":73809,"Delta":174591147},{"NoteNumber":59,"Velocity":29,"Duration":77230,"SoundDuration":77230,"Delta":174664957},{"NoteNumber":60,"Velocity":28,"Duration":80983,"SoundDuration":80983,"Delta":174742187},{"NoteNumber":63,"Velocity":27,"Duration":85120,"SoundDuration":85120,"Delta":174823171},{"NoteNumber":66,"Velocity":27,"Duration":89702,"SoundDuration":89702,"Delta":174908291},{"NoteNumber":62,"Velocity":26,"Duration":407703,"SoundDuration":407703,"Delta":174997993},{"NoteNumber":65,"Velocity":27,"Duration":407703,"SoundDuration":407703,"Delta":174997993},{"NoteNumber":46,"Velocity":32,"Duration":407703,"SoundDuration":407703,"Delta":174997993},{"NoteNumber":53,"Velocity":35,"Duration":407703,"SoundDuration":407703,"Delta":174997993},{"NoteNumber":34,"Velocity":31,"Duration":135135,"SoundDuration":135135,"Delta":175405697},{"NoteNumber":41,"Velocity":31,"Duration":135135,"SoundDuration":135135,"Delta":175405697},{"NoteNumber":46,"Velocity":32,"Duration":134908,"SoundDuration":134908,"Delta":175540832},{"NoteNumber":58,"Velocity":33,"Duration":206674,"SoundDuration":206674,"Delta":175608400},{"NoteNumber":70,"Velocity":33,"Duration":206674,"SoundDuration":206674,"Delta":175608400},{"NoteNumber":50,"Velocity":32,"Duration":139333,"SoundDuration":139333,"Delta":175675741},{"NoteNumber":62,"Velocity":33,"Duration":1423930,"SoundDuration":1423930,"Delta":175815075},{"NoteNumber":65,"Velocity":33,"Duration":1423930,"SoundDuration":1423930,"Delta":175815075},{"NoteNumber":53,"Velocity":33,"Duration":131578,"SoundDuration":131578,"Delta":175815075},{"NoteNumber":50,"Velocity":35,"Duration":131579,"SoundDuration":131579,"Delta":175946654},{"NoteNumber":46,"Velocity":36,"Duration":130718,"SoundDuration":130718,"Delta":176078233},{"NoteNumber":50,"Velocity":36,"Duration":130506,"SoundDuration":130506,"Delta":176208952},{"NoteNumber":46,"Velocity":38,"Duration":129870,"SoundDuration":129870,"Delta":176339458},{"NoteNumber":41,"Velocity":39,"Duration":129451,"SoundDuration":129451,"Delta":176469329},{"NoteNumber":34,"Velocity":40,"Duration":129032,"SoundDuration":129032,"Delta":176598780},{"NoteNumber":41,"Velocity":40,"Duration":128411,"SoundDuration":128411,"Delta":176727812},{"NoteNumber":46,"Velocity":42,"Duration":128205,"SoundDuration":128205,"Delta":176856224},{"NoteNumber":50,"Velocity":43,"Duration":127388,"SoundDuration":127388,"Delta":176984429},{"NoteNumber":49,"Velocity":44,"Duration":127186,"SoundDuration":127186,"Delta":177111818},{"NoteNumber":62,"Velocity":48,"Duration":139333,"SoundDuration":139333,"Delta":177239005},{"NoteNumber":74,"Velocity":48,"Duration":139333,"SoundDuration":139333,"Delta":177239005},{"NoteNumber":50,"Velocity":45,"Duration":139333,"SoundDuration":139333,"Delta":177239005},{"NoteNumber":65,"Velocity":48,"Duration":1378519,"SoundDuration":1378519,"Delta":177378339},{"NoteNumber":70,"Velocity":48,"Duration":1378519,"SoundDuration":1378519,"Delta":177378339},{"NoteNumber":53,"Velocity":46,"Duration":126582,"SoundDuration":126582,"Delta":177378339},{"NoteNumber":50,"Velocity":47,"Duration":126582,"SoundDuration":126582,"Delta":177504921},{"NoteNumber":46,"Velocity":48,"Duration":126200,"SoundDuration":126200,"Delta":177631503},{"NoteNumber":50,"Velocity":49,"Duration":125817,"SoundDuration":125817,"Delta":177757704},{"NoteNumber":46,"Velocity":50,"Duration":125817,"SoundDuration":125817,"Delta":177883521},{"NoteNumber":41,"Velocity":51,"Duration":125062,"SoundDuration":125062,"Delta":178009339},{"NoteNumber":34,"Velocity":53,"Duration":125062,"SoundDuration":125062,"Delta":178134402},{"NoteNumber":41,"Velocity":54,"Duration":124491,"SoundDuration":124491,"Delta":178259464},{"NoteNumber":46,"Velocity":54,"Duration":124300,"SoundDuration":124300,"Delta":178383955},{"NoteNumber":50,"Velocity":56,"Duration":124300,"SoundDuration":124300,"Delta":178508256},{"NoteNumber":49,"Velocity":56,"Duration":124300,"SoundDuration":124300,"Delta":178632557},{"NoteNumber":65,"Velocity":60,"Duration":132166,"SoundDuration":132166,"Delta":178756858},{"NoteNumber":77,"Velocity":60,"Duration":132166,"SoundDuration":132166,"Delta":178756858},{"NoteNumber":50,"Velocity":57,"Duration":132166,"SoundDuration":132166,"Delta":178756858},{"NoteNumber":62,"Velocity":54,"Duration":618923,"SoundDuration":618923,"Delta":178889025},{"NoteNumber":70,"Velocity":60,"Duration":618923,"SoundDuration":618923,"Delta":178889025},{"NoteNumber":74,"Velocity":60,"Duration":618923,"SoundDuration":618923,"Delta":178889025},{"NoteNumber":58,"Velocity":58,"Duration":124300,"SoundDuration":124300,"Delta":178889025},{"NoteNumber":50,"Velocity":60,"Duration":123932,"SoundDuration":123932,"Delta":179013326},{"NoteNumber":46,"Velocity":61,"Duration":123563,"SoundDuration":123563,"Delta":179137258},{"NoteNumber":50,"Velocity":62,"Duration":123563,"SoundDuration":123563,"Delta":179260821},{"NoteNumber":46,"Velocity":63,"Duration":123563,"SoundDuration":123563,"Delta":179384385},{"NoteNumber":70,"Velocity":73,"Duration":133084,"SoundDuration":133084,"Delta":179507948},{"NoteNumber":82,"Velocity":73,"Duration":133084,"SoundDuration":133084,"Delta":179507948},{"NoteNumber":41,"Velocity":64,"Duration":133084,"SoundDuration":133084,"Delta":179507948},{"NoteNumber":65,"Velocity":65,"Duration":606300,"SoundDuration":606300,"Delta":179641033},{"NoteNumber":74,"Velocity":73,"Duration":606300,"SoundDuration":606300,"Delta":179641033},{"NoteNumber":77,"Velocity":73,"Duration":606300,"SoundDuration":606300,"Delta":179641033},{"NoteNumber":34,"Velocity":64,"Duration":122100,"SoundDuration":122100,"Delta":179641033},{"NoteNumber":41,"Velocity":65,"Duration":121751,"SoundDuration":121751,"Delta":179763133},{"NoteNumber":46,"Velocity":67,"Duration":121403,"SoundDuration":121403,"Delta":179884885},{"NoteNumber":50,"Velocity":68,"Duration":120699,"SoundDuration":120699,"Delta":180006289},{"NoteNumber":53,"Velocity":69,"Duration":120345,"SoundDuration":120345,"Delta":180126989},{"NoteNumber":86,"Velocity":86,"Duration":129735,"SoundDuration":129735,"Delta":180247334},{"NoteNumber":74,"Velocity":86,"Duration":129735,"SoundDuration":129735,"Delta":180247334},{"NoteNumber":82,"Velocity":86,"Duration":619960,"SoundDuration":619960,"Delta":180377069},{"NoteNumber":79,"Velocity":86,"Duration":619960,"SoundDuration":619960,"Delta":180377069},{"NoteNumber":70,"Velocity":77,"Duration":619960,"SoundDuration":619960,"Delta":180377069},{"NoteNumber":40,"Velocity":72,"Duration":118873,"SoundDuration":118873,"Delta":180377069},{"NoteNumber":46,"Velocity":72,"Duration":121399,"SoundDuration":121399,"Delta":180495943},{"NoteNumber":50,"Velocity":72,"Duration":123844,"SoundDuration":123844,"Delta":180617342},{"NoteNumber":55,"Velocity":74,"Duration":126385,"SoundDuration":126385,"Delta":180741187},{"NoteNumber":58,"Velocity":75,"Duration":129456,"SoundDuration":129456,"Delta":180867573},{"NoteNumber":77,"Velocity":81,"Duration":154296,"SoundDuration":154296,"Delta":180997029},{"NoteNumber":82,"Velocity":81,"Duration":154296,"SoundDuration":154296,"Delta":180997029},{"NoteNumber":86,"Velocity":86,"Duration":154296,"SoundDuration":154296,"Delta":180997029},{"NoteNumber":89,"Velocity":90,"Duration":154296,"SoundDuration":154296,"Delta":180997029},{"NoteNumber":50,"Velocity":79,"Duration":154296,"SoundDuration":154296,"Delta":180997029},{"NoteNumber":46,"Velocity":71,"Duration":154296,"SoundDuration":154296,"Delta":180997029},{"NoteNumber":41,"Velocity":73,"Duration":154296,"SoundDuration":154296,"Delta":180997029},{"NoteNumber":53,"Velocity":79,"Duration":154296,"SoundDuration":154296,"Delta":180997029},{"NoteNumber":86,"Velocity":90,"Duration":675000,"SoundDuration":675000,"Delta":181153279},{"NoteNumber":82,"Velocity":82,"Duration":675000,"SoundDuration":675000,"Delta":181153279},{"NoteNumber":77,"Velocity":81,"Duration":675000,"SoundDuration":675000,"Delta":181153279},{"NoteNumber":74,"Velocity":81,"Duration":675000,"SoundDuration":675000,"Delta":181153279},{"NoteNumber":65,"Velocity":79,"Duration":675000,"SoundDuration":675000,"Delta":181153279},{"NoteNumber":62,"Velocity":79,"Duration":675000,"SoundDuration":675000,"Delta":181153279},{"NoteNumber":58,"Velocity":71,"Duration":675000,"SoundDuration":675000,"Delta":181153279},{"NoteNumber":53,"Velocity":71,"Duration":675000,"SoundDuration":675000,"Delta":181153279},{"NoteNumber":94,"Velocity":84,"Duration":236257,"SoundDuration":236257,"Delta":181903279},{"NoteNumber":89,"Velocity":84,"Duration":236257,"SoundDuration":236257,"Delta":181903279},{"NoteNumber":86,"Velocity":75,"Duration":236257,"SoundDuration":236257,"Delta":181903279},{"NoteNumber":82,"Velocity":75,"Duration":236257,"SoundDuration":236257,"Delta":181903279},{"NoteNumber":70,"Velocity":74,"Duration":236257,"SoundDuration":236257,"Delta":181903279},{"NoteNumber":62,"Velocity":66,"Duration":236257,"SoundDuration":236257,"Delta":181903279},{"NoteNumber":58,"Velocity":66,"Duration":236257,"SoundDuration":236257,"Delta":181903279},{"NoteNumber":89,"Velocity":78,"Duration":219009,"SoundDuration":219009,"Delta":182139537},{"NoteNumber":86,"Velocity":78,"Duration":219009,"SoundDuration":219009,"Delta":182139537},{"NoteNumber":82,"Velocity":70,"Duration":219009,"SoundDuration":219009,"Delta":182139537},{"NoteNumber":77,"Velocity":70,"Duration":219009,"SoundDuration":219009,"Delta":182139537},{"NoteNumber":65,"Velocity":70,"Duration":219009,"SoundDuration":219009,"Delta":182139537},{"NoteNumber":62,"Velocity":70,"Duration":219009,"SoundDuration":219009,"Delta":182139537},{"NoteNumber":58,"Velocity":63,"Duration":219009,"SoundDuration":219009,"Delta":182139537},{"NoteNumber":53,"Velocity":63,"Duration":219009,"SoundDuration":219009,"Delta":182139537},{"NoteNumber":91,"Velocity":81,"Duration":212796,"SoundDuration":212796,"Delta":182358547},{"NoteNumber":79,"Velocity":72,"Duration":212796,"SoundDuration":212796,"Delta":182358547},{"NoteNumber":67,"Velocity":72,"Duration":212796,"SoundDuration":212796,"Delta":182358547},{"NoteNumber":55,"Velocity":64,"Duration":212796,"SoundDuration":212796,"Delta":182358547},{"NoteNumber":86,"Velocity":79,"Duration":191516,"SoundDuration":191516,"Delta":182571343},{"NoteNumber":74,"Velocity":71,"Duration":191516,"SoundDuration":191516,"Delta":182571343},{"NoteNumber":62,"Velocity":70,"Duration":191516,"SoundDuration":191516,"Delta":182571343},{"NoteNumber":50,"Velocity":63,"Duration":191516,"SoundDuration":191516,"Delta":182571343},{"NoteNumber":89,"Velocity":87,"Duration":196087,"SoundDuration":196087,"Delta":182784140},{"NoteNumber":77,"Velocity":78,"Duration":196087,"SoundDuration":196087,"Delta":182784140},{"NoteNumber":65,"Velocity":75,"Duration":196087,"SoundDuration":196087,"Delta":182784140},{"NoteNumber":53,"Velocity":67,"Duration":196087,"SoundDuration":196087,"Delta":182784140},{"NoteNumber":82,"Velocity":82,"Duration":196078,"SoundDuration":196078,"Delta":182980227},{"NoteNumber":70,"Velocity":73,"Duration":196078,"SoundDuration":196078,"Delta":182980227},{"NoteNumber":58,"Velocity":72,"Duration":196078,"SoundDuration":196078,"Delta":182980227},{"NoteNumber":46,"Velocity":64,"Duration":196078,"SoundDuration":196078,"Delta":182980227},{"NoteNumber":86,"Velocity":87,"Duration":177875,"SoundDuration":177875,"Delta":183176305},{"NoteNumber":74,"Velocity":78,"Duration":177875,"SoundDuration":177875,"Delta":183176305},{"NoteNumber":62,"Velocity":76,"Duration":177875,"SoundDuration":177875,"Delta":183176305},{"NoteNumber":50,"Velocity":68,"Duration":177875,"SoundDuration":177875,"Delta":183176305},{"NoteNumber":79,"Velocity":82,"Duration":153183,"SoundDuration":153183,"Delta":183354181},{"NoteNumber":67,"Velocity":73,"Duration":153183,"SoundDuration":153183,"Delta":183354181},{"NoteNumber":55,"Velocity":72,"Duration":153183,"SoundDuration":153183,"Delta":183354181},{"NoteNumber":43,"Velocity":64,"Duration":153183,"SoundDuration":153183,"Delta":183354181},{"NoteNumber":82,"Velocity":88,"Duration":163519,"SoundDuration":163519,"Delta":183524032},{"NoteNumber":70,"Velocity":79,"Duration":163519,"SoundDuration":163519,"Delta":183524032},{"NoteNumber":58,"Velocity":77,"Duration":163519,"SoundDuration":163519,"Delta":183524032},{"NoteNumber":46,"Velocity":69,"Duration":163519,"SoundDuration":163519,"Delta":183524032},{"NoteNumber":77,"Velocity":82,"Duration":157792,"SoundDuration":157792,"Delta":183687552},{"NoteNumber":65,"Velocity":73,"Duration":157792,"SoundDuration":157792,"Delta":183687552},{"NoteNumber":53,"Velocity":72,"Duration":157792,"SoundDuration":157792,"Delta":183687552},{"NoteNumber":41,"Velocity":64,"Duration":157792,"SoundDuration":157792,"Delta":183687552},{"NoteNumber":79,"Velocity":89,"Duration":152698,"SoundDuration":152698,"Delta":183845345},{"NoteNumber":67,"Velocity":80,"Duration":152698,"SoundDuration":152698,"Delta":183845345},{"NoteNumber":43,"Velocity":69,"Duration":152698,"SoundDuration":152698,"Delta":183845345},{"NoteNumber":55,"Velocity":77,"Duration":152698,"SoundDuration":152698,"Delta":183845345},{"NoteNumber":74,"Velocity":82,"Duration":132880,"SoundDuration":132880,"Delta":183998043},{"NoteNumber":62,"Velocity":73,"Duration":132880,"SoundDuration":132880,"Delta":183998043},{"NoteNumber":50,"Velocity":72,"Duration":132880,"SoundDuration":132880,"Delta":183998043},{"NoteNumber":38,"Velocity":64,"Duration":132880,"SoundDuration":132880,"Delta":183998043},{"NoteNumber":77,"Velocity":88,"Duration":145827,"SoundDuration":145827,"Delta":184145488},{"NoteNumber":65,"Velocity":79,"Duration":145827,"SoundDuration":145827,"Delta":184145488},{"NoteNumber":41,"Velocity":71,"Duration":145827,"SoundDuration":145827,"Delta":184145488},{"NoteNumber":53,"Velocity":79,"Duration":145827,"SoundDuration":145827,"Delta":184145488},{"NoteNumber":70,"Velocity":83,"Duration":156266,"SoundDuration":156266,"Delta":184291316},{"NoteNumber":58,"Velocity":74,"Duration":156266,"SoundDuration":156266,"Delta":184291316},{"NoteNumber":34,"Velocity":65,"Duration":156266,"SoundDuration":156266,"Delta":184291316},{"NoteNumber":46,"Velocity":73,"Duration":156266,"SoundDuration":156266,"Delta":184291316},{"NoteNumber":74,"Velocity":95,"Duration":180723,"SoundDuration":180723,"Delta":184447582},{"NoteNumber":62,"Velocity":86,"Duration":180723,"SoundDuration":180723,"Delta":184447582},{"NoteNumber":50,"Velocity":85,"Duration":180723,"SoundDuration":180723,"Delta":184447582},{"NoteNumber":38,"Velocity":76,"Duration":180723,"SoundDuration":180723,"Delta":184447582},{"NoteNumber":53,"Velocity":90,"Duration":1500000,"SoundDuration":1500000,"Delta":184628305},{"NoteNumber":65,"Velocity":100,"Duration":1500000,"SoundDuration":1500000,"Delta":184628305},{"NoteNumber":29,"Velocity":78,"Duration":1500000,"SoundDuration":1500000,"Delta":184628305},{"NoteNumber":41,"Velocity":88,"Duration":1500000,"SoundDuration":1500000,"Delta":184628305},{"NoteNumber":81,"Velocity":92,"Duration":750000,"SoundDuration":750000,"Delta":185378305},{"NoteNumber":75,"Velocity":92,"Duration":750000,"SoundDuration":750000,"Delta":185378305},{"NoteNumber":72,"Velocity":82,"Duration":750000,"SoundDuration":750000,"Delta":185378305},{"NoteNumber":69,"Velocity":82,"Duration":750000,"SoundDuration":750000,"Delta":185378305},{"NoteNumber":63,"Velocity":81,"Duration":750000,"SoundDuration":750000,"Delta":185378305},{"NoteNumber":60,"Velocity":81,"Duration":750000,"SoundDuration":750000,"Delta":185378305},{"NoteNumber":57,"Velocity":72,"Duration":750000,"SoundDuration":750000,"Delta":185378305},{"NoteNumber":51,"Velocity":72,"Duration":750000,"SoundDuration":750000,"Delta":185378305},{"NoteNumber":46,"Velocity":97,"Duration":1500000,"SoundDuration":1500000,"Delta":186128305},{"NoteNumber":22,"Velocity":78,"Duration":1500000,"SoundDuration":1500000,"Delta":186128305},{"NoteNumber":34,"Velocity":87,"Duration":1500000,"SoundDuration":1500000,"Delta":186128305},{"NoteNumber":82,"Velocity":97,"Duration":1125000,"SoundDuration":1125000,"Delta":186503305},{"NoteNumber":77,"Velocity":93,"Duration":1125000,"SoundDuration":1125000,"Delta":186503305},{"NoteNumber":74,"Velocity":87,"Duration":1125000,"SoundDuration":1125000,"Delta":186503305},{"NoteNumber":70,"Velocity":87,"Duration":1125000,"SoundDuration":1125000,"Delta":186503305},{"NoteNumber":62,"Velocity":85,"Duration":1125000,"SoundDuration":1125000,"Delta":186503305},{"NoteNumber":58,"Velocity":83,"Duration":1125000,"SoundDuration":1125000,"Delta":186503305},{"NoteNumber":53,"Velocity":78,"Duration":1125000,"SoundDuration":1125000,"Delta":186503305},{"NoteNumber":50,"Velocity":78,"Duration":1125000,"SoundDuration":1125000,"Delta":186503305}]}