{"title":"Prelude Opus 32 No. 13","artist":"Piano","durationMs":254962,"midiSha256":"9cc4637dbad52b24e77e53adf4224c3c92692289db27f17cf0284d16558d7ab7","midiObject":[{"NoteNumber":53,"Velocity":40,"Duration":1077378,"SoundDuration":1077378,"Delta":0},{"NoteNumber":56,"Velocity":40,"Duration":1077378,"SoundDuration":1077378,"Delta":0},{"NoteNumber":65,"Velocity":59,"Duration":1077378,"SoundDuration":1077378,"Delta":0},{"NoteNumber":37,"Velocity":31,"Duration":1077378,"SoundDuration":1077378,"Delta":0},{"NoteNumber":44,"Velocity":31,"Duration":1077378,"SoundDuration":1077378,"Delta":0},{"NoteNumber":49,"Velocity":37,"Duration":1077378,"SoundDuration":1077378,"Delta":0},{"NoteNumber":56,"Velocity":35,"Duration":344036,"SoundDuration":344036,"Delta":1086431},{"NoteNumber":61,"Velocity":35,"Duration":344036,"SoundDuration":344036,"Delta":1086431},{"NoteNumber":68,"Velocity":53,"Duration":344036,"SoundDuration":344036,"Delta":1086431},{"NoteNumber":41,"Velocity":28,"Duration":344036,"SoundDuration":344036,"Delta":1086431},{"NoteNumber":49,"Velocity":28,"Duration":344036,"SoundDuration":344036,"Delta":1086431},{"NoteNumber":53,"Velocity":28,"Duration":344036,"SoundDuration":344036,"Delta":1086431},{"NoteNumber":61,"Velocity":43,"Duration":3510620,"SoundDuration":3510620,"Delta":1448575},{"NoteNumber":65,"Velocity":43,"Duration":3510620,"SoundDuration":3510620,"Delta":1448575},{"NoteNumber":73,"Velocity":64,"Duration":3510620,"SoundDuration":3510620,"Delta":1448575},{"NoteNumber":44,"Velocity":34,"Duration":3510620,"SoundDuration":3510620,"Delta":1448575},{"NoteNumber":49,"Velocity":34,"Duration":3510620,"SoundDuration":3510620,"Delta":1448575},{"NoteNumber":53,"Velocity":34,"Duration":3510620,"SoundDuration":3510620,"Delta":1448575},{"NoteNumber":56,"Velocity":40,"Duration":3504657,"SoundDuration":3504657,"Delta":1448575},{"NoteNumber":46,"Velocity":42,"Duration":1431298,"SoundDuration":1431298,"Delta":2812249},{"NoteNumber":58,"Velocity":63,"Duration":1431298,"SoundDuration":1431298,"Delta":2812249},{"NoteNumber":56,"Velocity":36,"Duration":645548,"SoundDuration":645548,"Delta":4959197},{"NoteNumber":60,"Velocity":36,"Duration":645548,"SoundDuration":645548,"Delta":4959197},{"NoteNumber":68,"Velocity":55,"Duration":645548,"SoundDuration":645548,"Delta":4959197},{"NoteNumber":42,"Velocity":29,"Duration":645548,"SoundDuration":645548,"Delta":4959197},{"NoteNumber":44,"Velocity":29,"Duration":645548,"SoundDuration":645548,"Delta":4959197},{"NoteNumber":51,"Velocity":29,"Duration":645548,"SoundDuration":645548,"Delta":4959197},{"NoteNumber":54,"Velocity":35,"Duration":645548,"SoundDuration":645548,"Delta":4959197},{"NoteNumber":56,"Velocity":40,"Duration":1051980,"SoundDuration":1051980,"Delta":5636714},{"NoteNumber":61,"Velocity":59,"Duration":1051980,"SoundDuration":1051980,"Delta":5636714},{"NoteNumber":49,"Velocity":31,"Duration":1051980,"SoundDuration":1051980,"Delta":5636714},{"NoteNumber":41,"Velocity":31,"Duration":1051980,"SoundDuration":1051980,"Delta":5636714},{"NoteNumber":44,"Velocity":31,"Duration":1051980,"SoundDuration":1051980,"Delta":5636714},{"NoteNumber":53,"Velocity":37,"Duration":1051980,"SoundDuration":1051980,"Delta":5636714},{"NoteNumber":60,"Velocity":35,"Duration":353606,"SoundDuration":353606,"Delta":6697534},{"NoteNumber":56,"Velocity":35,"Duration":353606,"SoundDuration":353606,"Delta":6697534},{"NoteNumber":63,"Velocity":35,"Duration":353606,"SoundDuration":353606,"Delta":6697534},{"NoteNumber":68,"Velocity":53,"Duration":353606,"SoundDuration":353606,"Delta":6697534},{"NoteNumber":39,"Velocity":28,"Duration":353606,"SoundDuration":353606,"Delta":6697534},{"NoteNumber":44,"Velocity":28,"Duration":353606,"SoundDuration":353606,"Delta":6697534},{"NoteNumber":54,"Velocity":28,"Duration":353606,"SoundDuration":353606,"Delta":6697534},{"NoteNumber":68,"Velocity":43,"Duration":3482164,"SoundDuration":3482164,"Delta":7051141},{"NoteNumber":61,"Velocity":43,"Duration":3482164,"SoundDuration":3482164,"Delta":7051141},{"NoteNumber":65,"Velocity":43,"Duration":3482164,"SoundDuration":3482164,"Delta":7051141},{"NoteNumber":73,"Velocity":64,"Duration":3482164,"SoundDuration":3482164,"Delta":7051141},{"NoteNumber":37,"Velocity":34,"Duration":3482164,"SoundDuration":3482164,"Delta":7051141},{"NoteNumber":44,"Velocity":34,"Duration":3482164,"SoundDuration":3482164,"Delta":7051141},{"NoteNumber":53,"Velocity":40,"Duration":3482164,"SoundDuration":3482164,"Delta":7051141},{"NoteNumber":46,"Velocity":42,"Duration":1414426,"SoundDuration":1414426,"Delta":8411665},{"NoteNumber":58,"Velocity":63,"Duration":1414426,"SoundDuration":1414426,"Delta":8411665},{"NoteNumber":56,"Velocity":31,"Duration":666628,"SoundDuration":666628,"Delta":10533305},{"NoteNumber":63,"Velocity":31,"Duration":666628,"SoundDuration":666628,"Delta":10533305},{"NoteNumber":68,"Velocity":46,"Duration":666628,"SoundDuration":666628,"Delta":10533305},{"NoteNumber":36,"Velocity":24,"Duration":666628,"SoundDuration":666628,"Delta":10533305},{"NoteNumber":44,"Velocity":24,"Duration":666628,"SoundDuration":666628,"Delta":10533305},{"NoteNumber":51,"Velocity":29,"Duration":666628,"SoundDuration":666628,"Delta":10533305},{"NoteNumber":53,"Velocity":33,"Duration":1060820,"SoundDuration":1060820,"Delta":11199933},{"NoteNumber":58,"Velocity":33,"Duration":1060820,"SoundDuration":1060820,"Delta":11199933},{"NoteNumber":61,"Velocity":51,"Duration":1060820,"SoundDuration":1060820,"Delta":11199933},{"NoteNumber":34,"Velocity":27,"Duration":1060820,"SoundDuration":1060820,"Delta":11199933},{"NoteNumber":41,"Velocity":27,"Duration":1060820,"SoundDuration":1060820,"Delta":11199933},{"NoteNumber":49,"Velocity":32,"Duration":1060820,"SoundDuration":1060820,"Delta":11199933},{"NoteNumber":60,"Velocity":32,"Duration":227824,"SoundDuration":227824,"Delta":12260754},{"NoteNumber":53,"Velocity":32,"Duration":227824,"SoundDuration":227824,"Delta":12260754},{"NoteNumber":65,"Velocity":49,"Duration":455650,"SoundDuration":455650,"Delta":12260754},{"NoteNumber":32,"Velocity":25,"Duration":455650,"SoundDuration":455650,"Delta":12260754},{"NoteNumber":44,"Velocity":25,"Duration":455650,"SoundDuration":455650,"Delta":12260754},{"NoteNumber":53,"Velocity":37,"Duration":3619156,"SoundDuration":3619156,"Delta":12488579},{"NoteNumber":61,"Velocity":37,"Duration":3619156,"SoundDuration":3619156,"Delta":12488579},{"NoteNumber":70,"Velocity":56,"Duration":3391331,"SoundDuration":3391331,"Delta":12716404},{"NoteNumber":31,"Velocity":29,"Duration":3391331,"SoundDuration":3391331,"Delta":12716404},{"NoteNumber":43,"Velocity":35,"Duration":3391331,"SoundDuration":3391331,"Delta":12716404},{"NoteNumber":46,"Velocity":37,"Duration":1381852,"SoundDuration":1381852,"Delta":14034957},{"NoteNumber":58,"Velocity":56,"Duration":1381852,"SoundDuration":1381852,"Delta":14034957},{"NoteNumber":60,"Velocity":31,"Duration":656513,"SoundDuration":656513,"Delta":16107735},{"NoteNumber":56,"Velocity":31,"Duration":656513,"SoundDuration":656513,"Delta":16107735},{"NoteNumber":63,"Velocity":31,"Duration":656513,"SoundDuration":656513,"Delta":16107735},{"NoteNumber":68,"Velocity":46,"Duration":656513,"SoundDuration":656513,"Delta":16107735},{"NoteNumber":30,"Velocity":24,"Duration":656513,"SoundDuration":656513,"Delta":16107735},{"NoteNumber":42,"Velocity":29,"Duration":656513,"SoundDuration":656513,"Delta":16107735},{"NoteNumber":53,"Velocity":34,"Duration":1073473,"SoundDuration":1073473,"Delta":16769520},{"NoteNumber":48,"Velocity":34,"Duration":1073473,"SoundDuration":1073473,"Delta":16769520},{"NoteNumber":56,"Velocity":52,"Duration":1073473,"SoundDuration":1073473,"Delta":16769520},{"NoteNumber":29,"Velocity":27,"Duration":1073473,"SoundDuration":1073473,"Delta":16769520},{"NoteNumber":41,"Velocity":32,"Duration":1073473,"SoundDuration":1073473,"Delta":16769520},{"NoteNumber":58,"Velocity":34,"Duration":306622,"SoundDuration":306622,"Delta":17842994},{"NoteNumber":54,"Velocity":34,"Duration":306622,"SoundDuration":306622,"Delta":17842994},{"NoteNumber":61,"Velocity":51,"Duration":306622,"SoundDuration":306622,"Delta":17842994},{"NoteNumber":27,"Velocity":27,"Duration":306622,"SoundDuration":306622,"Delta":17842994},{"NoteNumber":39,"Velocity":27,"Duration":306622,"SoundDuration":306622,"Delta":17842994},{"NoteNumber":56,"Velocity":40,"Duration":3662563,"SoundDuration":3662563,"Delta":18149617},{"NoteNumber":63,"Velocity":40,"Duration":3662563,"SoundDuration":3662563,"Delta":18149617},{"NoteNumber":66,"Velocity":59,"Duration":3662563,"SoundDuration":3662563,"Delta":18149617},{"NoteNumber":24,"Velocity":31,"Duration":3662563,"SoundDuration":3662563,"Delta":18149617},{"NoteNumber":36,"Velocity":37,"Duration":3662563,"SoundDuration":3662563,"Delta":18149617},{"NoteNumber":46,"Velocity":35,"Duration":1381851,"SoundDuration":1381851,"Delta":19509094},{"NoteNumber":58,"Velocity":52,"Duration":1381851,"SoundDuration":1381851,"Delta":19509094},{"NoteNumber":56,"Velocity":32,"Duration":534473,"SoundDuration":534473,"Delta":21812181},{"NoteNumber":58,"Velocity":32,"Duration":1500191,"SoundDuration":1500191,"Delta":21812181},{"NoteNumber":65,"Velocity":49,"Duration":1500191,"SoundDuration":1500191,"Delta":21812181},{"NoteNumber":26,"Velocity":20,"Duration":534473,"SoundDuration":534473,"Delta":21812181},{"NoteNumber":38,"Velocity":24,"Duration":534473,"SoundDuration":534473,"Delta":21812181},{"NoteNumber":55,"Velocity":36,"Duration":965717,"SoundDuration":965717,"Delta":22346654},{"NoteNumber":27,"Velocity":28,"Duration":965717,"SoundDuration":965717,"Delta":22346654},{"NoteNumber":39,"Velocity":32,"Duration":965717,"SoundDuration":965717,"Delta":22346654},{"NoteNumber":63,"Velocity":40,"Duration":1409571,"SoundDuration":1409571,"Delta":23312372},{"NoteNumber":58,"Velocity":27,"Duration":1409571,"SoundDuration":1409571,"Delta":23312372},{"NoteNumber":54,"Velocity":27,"Duration":1409571,"SoundDuration":1409571,"Delta":23312372},{"NoteNumber":29,"Velocity":20,"Duration":455373,"SoundDuration":455373,"Delta":23312372},{"NoteNumber":41,"Velocity":24,"Duration":455373,"SoundDuration":455373,"Delta":23312372},{"NoteNumber":30,"Velocity":23,"Duration":954198,"SoundDuration":954198,"Delta":23767745},{"NoteNumber":42,"Velocity":28,"Duration":954198,"SoundDuration":954198,"Delta":23767745},{"NoteNumber":53,"Velocity":27,"Duration":513874,"SoundDuration":513874,"Delta":24721944},{"NoteNumber":58,"Velocity":27,"Duration":513874,"SoundDuration":513874,"Delta":24721944},{"NoteNumber":61,"Velocity":40,"Duration":513874,"SoundDuration":513874,"Delta":24721944},{"NoteNumber":31,"Velocity":20,"Duration":513874,"SoundDuration":513874,"Delta":24721944},{"NoteNumber":43,"Velocity":24,"Duration":513874,"SoundDuration":513874,"Delta":24721944},{"NoteNumber":51,"Velocity":24,"Duration":2876975,"SoundDuration":2876975,"Delta":25235818},{"NoteNumber":56,"Velocity":24,"Duration":2876975,"SoundDuration":2876975,"Delta":25235818},{"NoteNumber":60,"Velocity":36,"Duration":2876975,"SoundDuration":2876975,"Delta":25235818},{"NoteNumber":32,"Velocity":22,"Duration":900495,"SoundDuration":900495,"Delta":25235818},{"NoteNumber":44,"Velocity":27,"Duration":900495,"SoundDuration":900495,"Delta":25235818},{"NoteNumber":46,"Velocity":33,"Duration":482858,"SoundDuration":482858,"Delta":26136314},{"NoteNumber":48,"Velocity":39,"Duration":477585,"SoundDuration":477585,"Delta":26619172},{"NoteNumber":46,"Velocity":40,"Duration":497577,"SoundDuration":497577,"Delta":27096758},{"NoteNumber":44,"Velocity":43,"Duration":518458,"SoundDuration":518458,"Delta":27594336},{"NoteNumber":54,"Velocity":33,"Duration":1077378,"SoundDuration":1077378,"Delta":28112794},{"NoteNumber":61,"Velocity":50,"Duration":1077378,"SoundDuration":1077378,"Delta":28112794},{"NoteNumber":46,"Velocity":26,"Duration":1077378,"SoundDuration":1077378,"Delta":28112794},{"NoteNumber":49,"Velocity":32,"Duration":1077378,"SoundDuration":1077378,"Delta":28112794},{"NoteNumber":61,"Velocity":29,"Duration":362144,"SoundDuration":362144,"Delta":29199226},{"NoteNumber":65,"Velocity":29,"Duration":362144,"SoundDuration":362144,"Delta":29199226},{"NoteNumber":68,"Velocity":45,"Duration":362144,"SoundDuration":362144,"Delta":29199226},{"NoteNumber":44,"Velocity":23,"Duration":362144,"SoundDuration":362144,"Delta":29199226},{"NoteNumber":53,"Velocity":23,"Duration":362144,"SoundDuration":362144,"Delta":29199226},{"NoteNumber":56,"Velocity":23,"Duration":362144,"SoundDuration":362144,"Delta":29199226},{"NoteNumber":63,"Velocity":38,"Duration":3510620,"SoundDuration":3510620,"Delta":29561370},{"NoteNumber":66,"Velocity":38,"Duration":3510620,"SoundDuration":3510620,"Delta":29561370},{"NoteNumber":73,"Velocity":57,"Duration":3510620,"SoundDuration":3510620,"Delta":29561370},{"NoteNumber":42,"Velocity":30,"Duration":3510620,"SoundDuration":3510620,"Delta":29561370},{"NoteNumber":51,"Velocity":30,"Duration":3510620,"SoundDuration":3510620,"Delta":29561370},{"NoteNumber":58,"Velocity":36,"Duration":3504657,"SoundDuration":3504657,"Delta":29561370},{"NoteNumber":49,"Velocity":37,"Duration":1431297,"SoundDuration":1431297,"Delta":30925044},{"NoteNumber":61,"Velocity":56,"Duration":1431297,"SoundDuration":1431297,"Delta":30925044},{"NoteNumber":60,"Velocity":32,"Duration":677517,"SoundDuration":677517,"Delta":33071991},{"NoteNumber":68,"Velocity":49,"Duration":677517,"SoundDuration":677517,"Delta":33071991},{"NoteNumber":44,"Velocity":26,"Duration":677517,"SoundDuration":677517,"Delta":33071991},{"NoteNumber":53,"Velocity":26,"Duration":677517,"SoundDuration":677517,"Delta":33071991},{"NoteNumber":56,"Velocity":31,"Duration":677517,"SoundDuration":677517,"Delta":33071991},{"NoteNumber":61,"Velocity":56,"Duration":1051980,"SoundDuration":1051980,"Delta":33749509},{"NoteNumber":51,"Velocity":29,"Duration":1051980,"SoundDuration":1051980,"Delta":33749509},{"NoteNumber":46,"Velocity":29,"Duration":1051980,"SoundDuration":1051980,"Delta":33749509},{"NoteNumber":54,"Velocity":36,"Duration":1051980,"SoundDuration":1051980,"Delta":33749509},{"NoteNumber":61,"Velocity":33,"Duration":353606,"SoundDuration":353606,"Delta":34810329},{"NoteNumber":65,"Velocity":33,"Duration":353606,"SoundDuration":353606,"Delta":34810329},{"NoteNumber":68,"Velocity":40,"Duration":353606,"SoundDuration":353606,"Delta":34810329},{"NoteNumber":56,"Velocity":26,"Duration":353606,"SoundDuration":353606,"Delta":34810329},{"NoteNumber":44,"Velocity":26,"Duration":353606,"SoundDuration":353606,"Delta":34810329},{"NoteNumber":53,"Velocity":26,"Duration":353606,"SoundDuration":353606,"Delta":34810329},{"NoteNumber":66,"Velocity":38,"Duration":3482163,"SoundDuration":3482163,"Delta":35163936},{"NoteNumber":63,"Velocity":38,"Duration":3482163,"SoundDuration":3482163,"Delta":35163936},{"NoteNumber":73,"Velocity":57,"Duration":3482163,"SoundDuration":3482163,"Delta":35163936},{"NoteNumber":42,"Velocity":30,"Duration":3482163,"SoundDuration":3482163,"Delta":35163936},{"NoteNumber":49,"Velocity":30,"Duration":2774950,"SoundDuration":2774950,"Delta":35163936},{"NoteNumber":58,"Velocity":36,"Duration":3482163,"SoundDuration":3482163,"Delta":35163936},{"NoteNumber":49,"Velocity":37,"Duration":2121640,"SoundDuration":2121640,"Delta":36524459},{"NoteNumber":61,"Velocity":56,"Duration":1414427,"SoundDuration":1414427,"Delta":36524459},{"NoteNumber":60,"Velocity":31,"Duration":666628,"SoundDuration":666628,"Delta":38646100},{"NoteNumber":68,"Velocity":46,"Duration":666628,"SoundDuration":666628,"Delta":38646100},{"NoteNumber":39,"Velocity":24,"Duration":666628,"SoundDuration":666628,"Delta":38646100},{"NoteNumber":44,"Velocity":24,"Duration":666628,"SoundDuration":666628,"Delta":38646100},{"NoteNumber":54,"Velocity":29,"Duration":666628,"SoundDuration":666628,"Delta":38646100},{"NoteNumber":56,"Velocity":32,"Duration":1060820,"SoundDuration":1060820,"Delta":39312728},{"NoteNumber":61,"Velocity":48,"Duration":1060820,"SoundDuration":1060820,"Delta":39312728},{"NoteNumber":41,"Velocity":25,"Duration":1060820,"SoundDuration":1060820,"Delta":39312728},{"NoteNumber":49,"Velocity":30,"Duration":1060820,"SoundDuration":1060820,"Delta":39312728},{"NoteNumber":57,"Velocity":32,"Duration":417594,"SoundDuration":417594,"Delta":40373548},{"NoteNumber":65,"Velocity":49,"Duration":417594,"SoundDuration":417594,"Delta":40373548},{"NoteNumber":42,"Velocity":25,"Duration":417594,"SoundDuration":417594,"Delta":40373548},{"NoteNumber":49,"Velocity":25,"Duration":417594,"SoundDuration":417594,"Delta":40373548},{"NoteNumber":58,"Velocity":37,"Duration":3391331,"SoundDuration":3391331,"Delta":40791143},{"NoteNumber":64,"Velocity":37,"Duration":3391331,"SoundDuration":3391331,"Delta":40791143},{"NoteNumber":70,"Velocity":56,"Duration":3391331,"SoundDuration":3391331,"Delta":40791143},{"NoteNumber":36,"Velocity":29,"Duration":3391331,"SoundDuration":3391331,"Delta":40791143},{"NoteNumber":43,"Velocity":29,"Duration":3391331,"SoundDuration":3391331,"Delta":40791143},{"NoteNumber":52,"Velocity":35,"Duration":3391331,"SoundDuration":3391331,"Delta":40791143},{"NoteNumber":49,"Velocity":29,"Duration":1381852,"SoundDuration":1381852,"Delta":42109697},{"NoteNumber":61,"Velocity":44,"Duration":1381852,"SoundDuration":1381852,"Delta":42109697},{"NoteNumber":59,"Velocity":28,"Duration":1764929,"SoundDuration":1764929,"Delta":44182475},{"NoteNumber":56,"Velocity":28,"Duration":1764929,"SoundDuration":1764929,"Delta":44182475},{"NoteNumber":65,"Velocity":28,"Duration":1764929,"SoundDuration":1764929,"Delta":44182475},{"NoteNumber":68,"Velocity":41,"Duration":1764929,"SoundDuration":1764929,"Delta":44182475},{"NoteNumber":47,"Velocity":21,"Duration":1764929,"SoundDuration":1764929,"Delta":44182475},{"NoteNumber":38,"Velocity":21,"Duration":1764929,"SoundDuration":1764929,"Delta":44182475},{"NoteNumber":53,"Velocity":26,"Duration":1764929,"SoundDuration":1764929,"Delta":44182475},{"NoteNumber":54,"Velocity":27,"Duration":942951,"SoundDuration":942951,"Delta":45947404},{"NoteNumber":58,"Velocity":41,"Duration":942951,"SoundDuration":942951,"Delta":45947404},{"NoteNumber":39,"Velocity":26,"Duration":942951,"SoundDuration":942951,"Delta":45947404},{"NoteNumber":46,"Velocity":31,"Duration":942951,"SoundDuration":942951,"Delta":45947404},{"NoteNumber":56,"Velocity":36,"Duration":513438,"SoundDuration":513438,"Delta":46890355},{"NoteNumber":61,"Velocity":45,"Duration":513438,"SoundDuration":513438,"Delta":46890355},{"NoteNumber":46,"Velocity":23,"Duration":2753226,"SoundDuration":2753226,"Delta":46890355},{"NoteNumber":41,"Velocity":23,"Duration":513438,"SoundDuration":513438,"Delta":46890355},{"NoteNumber":49,"Velocity":28,"Duration":513438,"SoundDuration":513438,"Delta":46890355},{"NoteNumber":58,"Velocity":36,"Duration":2239788,"SoundDuration":2239788,"Delta":47403794},{"NoteNumber":66,"Velocity":53,"Duration":2239788,"SoundDuration":2239788,"Delta":47403794},{"NoteNumber":42,"Velocity":28,"Duration":2239788,"SoundDuration":2239788,"Delta":47403794},{"NoteNumber":51,"Velocity":33,"Duration":2239788,"SoundDuration":2239788,"Delta":47403794},{"NoteNumber":58,"Velocity":27,"Duration":527426,"SoundDuration":527426,"Delta":49643582},{"NoteNumber":61,"Velocity":41,"Duration":527426,"SoundDuration":527426,"Delta":49643582},{"NoteNumber":51,"Velocity":28,"Duration":527426,"SoundDuration":527426,"Delta":49643582},{"NoteNumber":43,"Velocity":18,"Duration":527426,"SoundDuration":527426,"Delta":49643582},{"NoteNumber":58,"Velocity":41,"Duration":1381852,"SoundDuration":1381852,"Delta":50171008},{"NoteNumber":60,"Velocity":49,"Duration":5938816,"SoundDuration":5938816,"Delta":50171008},{"NoteNumber":43,"Velocity":31,"Duration":1381852,"SoundDuration":1381852,"Delta":50171008},{"NoteNumber":51,"Velocity":37,"Duration":5938816,"SoundDuration":5938816,"Delta":50171008},{"NoteNumber":56,"Velocity":41,"Duration":3009697,"SoundDuration":3009697,"Delta":51552860},{"NoteNumber":44,"Velocity":34,"Duration":4556964,"SoundDuration":4556964,"Delta":51552860},{"NoteNumber":54,"Velocity":33,"Duration":1547266,"SoundDuration":1547266,"Delta":54562557},{"NoteNumber":53,"Velocity":32,"Duration":3000980,"SoundDuration":3000980,"Delta":56109824},{"NoteNumber":58,"Velocity":32,"Duration":3000980,"SoundDuration":3000980,"Delta":56109824},{"NoteNumber":61,"Velocity":41,"Duration":3000980,"SoundDuration":3000980,"Delta":56109824},{"NoteNumber":34,"Velocity":27,"Duration":3000980,"SoundDuration":3000980,"Delta":56109824},{"NoteNumber":65,"Velocity":32,"Duration":166889,"SoundDuration":166889,"Delta":56610491},{"NoteNumber":73,"Velocity":38,"Duration":166889,"SoundDuration":166889,"Delta":56777380},{"NoteNumber":73,"Velocity":40,"Duration":500667,"SoundDuration":500667,"Delta":57111159},{"NoteNumber":68,"Velocity":34,"Duration":156445,"SoundDuration":156445,"Delta":57611826},{"NoteNumber":73,"Velocity":37,"Duration":166065,"SoundDuration":166065,"Delta":57768272},{"NoteNumber":73,"Velocity":40,"Duration":504880,"SoundDuration":504880,"Delta":58110022},{"NoteNumber":68,"Velocity":32,"Duration":156445,"SoundDuration":156445,"Delta":58614903},{"NoteNumber":73,"Velocity":38,"Duration":165300,"SoundDuration":165300,"Delta":58771348},{"NoteNumber":73,"Velocity":40,"Duration":504880,"SoundDuration":504880,"Delta":59110804},{"NoteNumber":68,"Velocity":34,"Duration":157679,"SoundDuration":157679,"Delta":59615684},{"NoteNumber":65,"Velocity":27,"Duration":168252,"SoundDuration":168252,"Delta":59773363},{"NoteNumber":70,"Velocity":27,"Duration":168252,"SoundDuration":168252,"Delta":59773363},{"NoteNumber":73,"Velocity":40,"Duration":168252,"SoundDuration":168252,"Delta":59773363},{"NoteNumber":61,"Velocity":25,"Duration":168252,"SoundDuration":168252,"Delta":59773363},{"NoteNumber":58,"Velocity":25,"Duration":168252,"SoundDuration":168252,"Delta":59773363},{"NoteNumber":65,"Velocity":22,"Duration":666844,"SoundDuration":666844,"Delta":60120443},{"NoteNumber":70,"Velocity":22,"Duration":666844,"SoundDuration":666844,"Delta":60120443},{"NoteNumber":73,"Velocity":40,"Duration":509165,"SoundDuration":509165,"Delta":60120443},{"NoteNumber":58,"Velocity":25,"Duration":509165,"SoundDuration":509165,"Delta":60120443},{"NoteNumber":61,"Velocity":21,"Duration":666844,"SoundDuration":666844,"Delta":60120443},{"NoteNumber":75,"Velocity":31,"Duration":157679,"SoundDuration":157679,"Delta":60629608},{"NoteNumber":56,"Velocity":21,"Duration":157679,"SoundDuration":157679,"Delta":60629608},{"NoteNumber":65,"Velocity":21,"Duration":169059,"SoundDuration":169059,"Delta":60787287},{"NoteNumber":70,"Velocity":21,"Duration":169059,"SoundDuration":169059,"Delta":60787287},{"NoteNumber":73,"Velocity":38,"Duration":169059,"SoundDuration":169059,"Delta":60787287},{"NoteNumber":58,"Velocity":25,"Duration":169059,"SoundDuration":169059,"Delta":60787287},{"NoteNumber":61,"Velocity":21,"Duration":169059,"SoundDuration":169059,"Delta":60787287},{"NoteNumber":65,"Velocity":22,"Duration":1672320,"SoundDuration":1672320,"Delta":61136787},{"NoteNumber":70,"Velocity":22,"Duration":1672320,"SoundDuration":1672320,"Delta":61136787},{"NoteNumber":73,"Velocity":40,"Duration":1514641,"SoundDuration":1514641,"Delta":61136787},{"NoteNumber":58,"Velocity":27,"Duration":1514641,"SoundDuration":1514641,"Delta":61136787},{"NoteNumber":61,"Velocity":21,"Duration":1672320,"SoundDuration":1672320,"Delta":61136787},{"NoteNumber":75,"Velocity":31,"Duration":157679,"SoundDuration":157679,"Delta":62651429},{"NoteNumber":54,"Velocity":21,"Duration":157679,"SoundDuration":157679,"Delta":62651429},{"NoteNumber":65,"Velocity":21,"Duration":167460,"SoundDuration":167460,"Delta":62809108},{"NoteNumber":70,"Velocity":21,"Duration":167460,"SoundDuration":167460,"Delta":62809108},{"NoteNumber":73,"Velocity":38,"Duration":167460,"SoundDuration":167460,"Delta":62809108},{"NoteNumber":58,"Velocity":21,"Duration":167460,"SoundDuration":167460,"Delta":62809108},{"NoteNumber":56,"Velocity":25,"Duration":167460,"SoundDuration":167460,"Delta":62809108},{"NoteNumber":61,"Velocity":21,"Duration":167460,"SoundDuration":167460,"Delta":62809108},{"NoteNumber":65,"Velocity":22,"Duration":666844,"SoundDuration":666844,"Delta":63153810},{"NoteNumber":70,"Velocity":22,"Duration":666844,"SoundDuration":666844,"Delta":63153810},{"NoteNumber":73,"Velocity":40,"Duration":509165,"SoundDuration":509165,"Delta":63153810},{"NoteNumber":58,"Velocity":21,"Duration":666844,"SoundDuration":666844,"Delta":63153810},{"NoteNumber":56,"Velocity":25,"Duration":509165,"SoundDuration":509165,"Delta":63153810},{"NoteNumber":61,"Velocity":21,"Duration":666844,"SoundDuration":666844,"Delta":63153810},{"NoteNumber":75,"Velocity":31,"Duration":157679,"SoundDuration":157679,"Delta":63662975},{"NoteNumber":53,"Velocity":21,"Duration":157679,"SoundDuration":157679,"Delta":63662975},{"NoteNumber":66,"Velocity":21,"Duration":169059,"SoundDuration":169059,"Delta":63820654},{"NoteNumber":70,"Velocity":21,"Duration":169059,"SoundDuration":169059,"Delta":63820654},{"NoteNumber":72,"Velocity":38,"Duration":169059,"SoundDuration":169059,"Delta":63820654},{"NoteNumber":58,"Velocity":21,"Duration":169059,"SoundDuration":169059,"Delta":63820654},{"NoteNumber":54,"Velocity":25,"Duration":169059,"SoundDuration":169059,"Delta":63820654},{"NoteNumber":63,"Velocity":21,"Duration":169059,"SoundDuration":169059,"Delta":63820654},{"NoteNumber":66,"Velocity":22,"Duration":636194,"SoundDuration":636194,"Delta":64170154},{"NoteNumber":70,"Velocity":22,"Duration":636194,"SoundDuration":636194,"Delta":64170154},{"NoteNumber":72,"Velocity":40,"Duration":484495,"SoundDuration":484495,"Delta":64170154},{"NoteNumber":54,"Velocity":25,"Duration":484495,"SoundDuration":484495,"Delta":64170154},{"NoteNumber":58,"Velocity":21,"Duration":484495,"SoundDuration":484495,"Delta":64170154},{"NoteNumber":63,"Velocity":21,"Duration":484495,"SoundDuration":484495,"Delta":64170154},{"NoteNumber":82,"Velocity":43,"Duration":151698,"SoundDuration":151698,"Delta":64654650},{"NoteNumber":49,"Velocity":21,"Duration":314626,"SoundDuration":314626,"Delta":64654650},{"NoteNumber":70,"Velocity":38,"Duration":162927,"SoundDuration":162927,"Delta":64806349},{"NoteNumber":53,"Velocity":25,"Duration":162927,"SoundDuration":162927,"Delta":64806349},{"NoteNumber":58,"Velocity":21,"Duration":162927,"SoundDuration":162927,"Delta":64806349},{"NoteNumber":65,"Velocity":21,"Duration":162927,"SoundDuration":162927,"Delta":64806349},{"NoteNumber":70,"Velocity":22,"Duration":640138,"SoundDuration":640138,"Delta":65143432},{"NoteNumber":72,"Velocity":40,"Duration":488439,"SoundDuration":488439,"Delta":65143432},{"NoteNumber":54,"Velocity":25,"Duration":488439,"SoundDuration":488439,"Delta":65143432},{"NoteNumber":58,"Velocity":21,"Duration":488439,"SoundDuration":488439,"Delta":65143432},{"NoteNumber":63,"Velocity":21,"Duration":488439,"SoundDuration":488439,"Delta":65143432},{"NoteNumber":75,"Velocity":43,"Duration":151698,"SoundDuration":151698,"Delta":65631872},{"NoteNumber":56,"Velocity":21,"Duration":312409,"SoundDuration":312409,"Delta":65631872},{"NoteNumber":70,"Velocity":21,"Duration":160710,"SoundDuration":160710,"Delta":65783571},{"NoteNumber":73,"Velocity":38,"Duration":160710,"SoundDuration":160710,"Delta":65783571},{"NoteNumber":58,"Velocity":25,"Duration":160710,"SoundDuration":160710,"Delta":65783571},{"NoteNumber":61,"Velocity":21,"Duration":160710,"SoundDuration":160710,"Delta":65783571},{"NoteNumber":65,"Velocity":21,"Duration":160710,"SoundDuration":160710,"Delta":65783571},{"NoteNumber":70,"Velocity":22,"Duration":627847,"SoundDuration":627847,"Delta":66114003},{"NoteNumber":72,"Velocity":40,"Duration":480615,"SoundDuration":480615,"Delta":66114003},{"NoteNumber":54,"Velocity":25,"Duration":480615,"SoundDuration":480615,"Delta":66114003},{"NoteNumber":58,"Velocity":21,"Duration":480615,"SoundDuration":480615,"Delta":66114003},{"NoteNumber":63,"Velocity":21,"Duration":480615,"SoundDuration":480615,"Delta":66114003},{"NoteNumber":82,"Velocity":43,"Duration":147232,"SoundDuration":147232,"Delta":66594618},{"NoteNumber":49,"Velocity":21,"Duration":302922,"SoundDuration":302922,"Delta":66594618},{"NoteNumber":70,"Velocity":30,"Duration":155690,"SoundDuration":155690,"Delta":66741850},{"NoteNumber":53,"Velocity":25,"Duration":155690,"SoundDuration":155690,"Delta":66741850},{"NoteNumber":58,"Velocity":21,"Duration":155690,"SoundDuration":155690,"Delta":66741850},{"NoteNumber":65,"Velocity":21,"Duration":155690,"SoundDuration":155690,"Delta":66741850},{"NoteNumber":70,"Velocity":22,"Duration":616568,"SoundDuration":616568,"Delta":67061690},{"NoteNumber":72,"Velocity":40,"Duration":469336,"SoundDuration":469336,"Delta":67061690},{"NoteNumber":54,"Velocity":25,"Duration":469336,"SoundDuration":469336,"Delta":67061690},{"NoteNumber":58,"Velocity":21,"Duration":469336,"SoundDuration":469336,"Delta":67061690},{"NoteNumber":63,"Velocity":21,"Duration":469336,"SoundDuration":469336,"Delta":67061690},{"NoteNumber":73,"Velocity":43,"Duration":147232,"SoundDuration":147232,"Delta":67531027},{"NoteNumber":55,"Velocity":21,"Duration":469110,"SoundDuration":469110,"Delta":67531027},{"NoteNumber":68,"Velocity":21,"Duration":156370,"SoundDuration":156370,"Delta":67678259},{"NoteNumber":72,"Velocity":38,"Duration":156370,"SoundDuration":156370,"Delta":67678259},{"NoteNumber":56,"Velocity":25,"Duration":156370,"SoundDuration":156370,"Delta":67678259},{"NoteNumber":60,"Velocity":21,"Duration":156370,"SoundDuration":156370,"Delta":67678259},{"NoteNumber":63,"Velocity":21,"Duration":156370,"SoundDuration":156370,"Delta":67678259},{"NoteNumber":68,"Velocity":17,"Duration":622469,"SoundDuration":622469,"Delta":68000137},{"NoteNumber":70,"Velocity":40,"Duration":473037,"SoundDuration":473037,"Delta":68000137},{"NoteNumber":53,"Velocity":20,"Duration":473037,"SoundDuration":473037,"Delta":68000137},{"NoteNumber":56,"Velocity":16,"Duration":473037,"SoundDuration":473037,"Delta":68000137},{"NoteNumber":61,"Velocity":16,"Duration":473037,"SoundDuration":473037,"Delta":68000137},{"NoteNumber":80,"Velocity":43,"Duration":149432,"SoundDuration":149432,"Delta":68473174},{"NoteNumber":48,"Velocity":16,"Duration":307592,"SoundDuration":307592,"Delta":68473174},{"NoteNumber":68,"Velocity":38,"Duration":158160,"SoundDuration":158160,"Delta":68622606},{"NoteNumber":51,"Velocity":20,"Duration":158160,"SoundDuration":158160,"Delta":68622606},{"NoteNumber":56,"Velocity":16,"Duration":158160,"SoundDuration":158160,"Delta":68622606},{"NoteNumber":63,"Velocity":16,"Duration":158160,"SoundDuration":158160,"Delta":68622606},{"NoteNumber":66,"Velocity":17,"Duration":612926,"SoundDuration":612926,"Delta":68947656},{"NoteNumber":70,"Velocity":40,"Duration":465693,"SoundDuration":465693,"Delta":68947656},{"NoteNumber":51,"Velocity":20,"Duration":465693,"SoundDuration":465693,"Delta":68947656},{"NoteNumber":54,"Velocity":16,"Duration":465693,"SoundDuration":465693,"Delta":68947656},{"NoteNumber":61,"Velocity":16,"Duration":465693,"SoundDuration":465693,"Delta":68947656},{"NoteNumber":72,"Velocity":43,"Duration":147232,"SoundDuration":147232,"Delta":69413350},{"NoteNumber":53,"Velocity":16,"Duration":305708,"SoundDuration":305708,"Delta":69413350},{"NoteNumber":66,"Velocity":16,"Duration":158476,"SoundDuration":158476,"Delta":69560582},{"NoteNumber":70,"Velocity":38,"Duration":158476,"SoundDuration":158476,"Delta":69560582},{"NoteNumber":54,"Velocity":16,"Duration":158476,"SoundDuration":158476,"Delta":69560582},{"NoteNumber":61,"Velocity":16,"Duration":158476,"SoundDuration":158476,"Delta":69560582},{"NoteNumber":66,"Velocity":17,"Duration":628494,"SoundDuration":628494,"Delta":69888781},{"NoteNumber":68,"Velocity":40,"Duration":476795,"SoundDuration":476795,"Delta":69888781},{"NoteNumber":51,"Velocity":20,"Duration":476795,"SoundDuration":476795,"Delta":69888781},{"NoteNumber":54,"Velocity":16,"Duration":476795,"SoundDuration":476795,"Delta":69888781},{"NoteNumber":60,"Velocity":16,"Duration":476795,"SoundDuration":476795,"Delta":69888781},{"NoteNumber":78,"Velocity":43,"Duration":151698,"SoundDuration":151698,"Delta":70365577},{"NoteNumber":46,"Velocity":16,"Duration":311695,"SoundDuration":311695,"Delta":70365577},{"NoteNumber":66,"Velocity":38,"Duration":159996,"SoundDuration":159996,"Delta":70517276},{"NoteNumber":49,"Velocity":20,"Duration":159996,"SoundDuration":159996,"Delta":70517276},{"NoteNumber":54,"Velocity":16,"Duration":159996,"SoundDuration":159996,"Delta":70517276},{"NoteNumber":61,"Velocity":16,"Duration":159996,"SoundDuration":159996,"Delta":70517276},{"NoteNumber":66,"Velocity":17,"Duration":627847,"SoundDuration":627847,"Delta":70845565},{"NoteNumber":68,"Velocity":40,"Duration":480615,"SoundDuration":480615,"Delta":70845565},{"NoteNumber":51,"Velocity":20,"Duration":480615,"SoundDuration":480615,"Delta":70845565},{"NoteNumber":54,"Velocity":16,"Duration":480615,"SoundDuration":480615,"Delta":70845565},{"NoteNumber":60,"Velocity":16,"Duration":480615,"SoundDuration":480615,"Delta":70845565},{"NoteNumber":77,"Velocity":43,"Duration":147232,"SoundDuration":147232,"Delta":71326180},{"NoteNumber":47,"Velocity":16,"Duration":793698,"SoundDuration":793698,"Delta":71326180},{"NoteNumber":65,"Velocity":16,"Duration":157762,"SoundDuration":157762,"Delta":71473412},{"NoteNumber":67,"Velocity":38,"Duration":157762,"SoundDuration":157762,"Delta":71473412},{"NoteNumber":53,"Velocity":20,"Duration":157762,"SoundDuration":157762,"Delta":71473412},{"NoteNumber":55,"Velocity":16,"Duration":157762,"SoundDuration":157762,"Delta":71473412},{"NoteNumber":62,"Velocity":16,"Duration":157762,"SoundDuration":157762,"Delta":71473412},{"NoteNumber":62,"Velocity":22,"Duration":627847,"SoundDuration":627847,"Delta":71799469},{"NoteNumber":65,"Velocity":22,"Duration":627847,"SoundDuration":627847,"Delta":71799469},{"NoteNumber":67,"Velocity":34,"Duration":627847,"SoundDuration":627847,"Delta":71799469},{"NoteNumber":55,"Velocity":21,"Duration":627847,"SoundDuration":627847,"Delta":71799469},{"NoteNumber":46,"Velocity":21,"Duration":306435,"SoundDuration":306435,"Delta":72280084},{"NoteNumber":54,"Velocity":25,"Duration":159203,"SoundDuration":159203,"Delta":72427316},{"NoteNumber":63,"Velocity":25,"Duration":159203,"SoundDuration":159203,"Delta":72427316},{"NoteNumber":66,"Velocity":32,"Duration":159203,"SoundDuration":159203,"Delta":72427316},{"NoteNumber":39,"Velocity":21,"Duration":159203,"SoundDuration":159203,"Delta":72427316},{"NoteNumber":54,"Velocity":22,"Duration":473037,"SoundDuration":473037,"Delta":72757693},{"NoteNumber":63,"Velocity":28,"Duration":473037,"SoundDuration":473037,"Delta":72757693},{"NoteNumber":66,"Velocity":34,"Duration":473037,"SoundDuration":473037,"Delta":72757693},{"NoteNumber":39,"Velocity":25,"Duration":473037,"SoundDuration":473037,"Delta":72757693},{"NoteNumber":75,"Velocity":43,"Duration":146156,"SoundDuration":146156,"Delta":73230730},{"NoteNumber":45,"Velocity":21,"Duration":787431,"SoundDuration":787431,"Delta":73230730},{"NoteNumber":63,"Velocity":21,"Duration":156522,"SoundDuration":156522,"Delta":73376886},{"NoteNumber":65,"Velocity":38,"Duration":156522,"SoundDuration":156522,"Delta":73376886},{"NoteNumber":53,"Velocity":23,"Duration":156522,"SoundDuration":156522,"Delta":73376886},{"NoteNumber":51,"Velocity":25,"Duration":156522,"SoundDuration":156522,"Delta":73376886},{"NoteNumber":60,"Velocity":21,"Duration":156522,"SoundDuration":156522,"Delta":73376886},{"NoteNumber":60,"Velocity":22,"Duration":624027,"SoundDuration":624027,"Delta":73700298},{"NoteNumber":63,"Velocity":22,"Duration":624027,"SoundDuration":624027,"Delta":73700298},{"NoteNumber":65,"Velocity":34,"Duration":624027,"SoundDuration":624027,"Delta":73700298},{"NoteNumber":53,"Velocity":21,"Duration":624027,"SoundDuration":624027,"Delta":73700298},{"NoteNumber":44,"Velocity":21,"Duration":784468,"SoundDuration":784468,"Delta":74177094},{"NoteNumber":52,"Velocity":25,"Duration":156370,"SoundDuration":156370,"Delta":74324326},{"NoteNumber":61,"Velocity":32,"Duration":156370,"SoundDuration":156370,"Delta":74324326},{"NoteNumber":64,"Velocity":32,"Duration":156370,"SoundDuration":156370,"Delta":74324326},{"NoteNumber":37,"Velocity":21,"Duration":156370,"SoundDuration":156370,"Delta":74324326},{"NoteNumber":52,"Velocity":22,"Duration":473037,"SoundDuration":473037,"Delta":74646204},{"NoteNumber":61,"Velocity":28,"Duration":473037,"SoundDuration":473037,"Delta":74646204},{"NoteNumber":64,"Velocity":34,"Duration":473037,"SoundDuration":473037,"Delta":74646204},{"NoteNumber":37,"Velocity":25,"Duration":473037,"SoundDuration":473037,"Delta":74646204},{"NoteNumber":73,"Velocity":43,"Duration":149432,"SoundDuration":149432,"Delta":75119241},{"NoteNumber":43,"Velocity":21,"Duration":485381,"SoundDuration":485381,"Delta":75119241},{"NoteNumber":61,"Velocity":21,"Duration":161793,"SoundDuration":161793,"Delta":75268674},{"NoteNumber":63,"Velocity":38,"Duration":161793,"SoundDuration":161793,"Delta":75268674},{"NoteNumber":51,"Velocity":24,"Duration":161793,"SoundDuration":161793,"Delta":75268674},{"NoteNumber":49,"Velocity":25,"Duration":161793,"SoundDuration":161793,"Delta":75268674},{"NoteNumber":58,"Velocity":21,"Duration":161793,"SoundDuration":161793,"Delta":75268674},{"NoteNumber":58,"Velocity":22,"Duration":1638746,"SoundDuration":1638746,"Delta":75604623},{"NoteNumber":61,"Velocity":22,"Duration":1638746,"SoundDuration":1638746,"Delta":75604623},{"NoteNumber":63,"Velocity":34,"Duration":1638746,"SoundDuration":1638746,"Delta":75604623},{"NoteNumber":43,"Velocity":20,"Duration":1638746,"SoundDuration":1638746,"Delta":75604623},{"NoteNumber":51,"Velocity":21,"Duration":1638746,"SoundDuration":1638746,"Delta":75604623},{"NoteNumber":70,"Velocity":32,"Duration":164149,"SoundDuration":164149,"Delta":77243370},{"NoteNumber":49,"Velocity":21,"Duration":164149,"SoundDuration":164149,"Delta":77243370},{"NoteNumber":58,"Velocity":27,"Duration":178376,"SoundDuration":178376,"Delta":77407519},{"NoteNumber":62,"Velocity":27,"Duration":178376,"SoundDuration":178376,"Delta":77407519},{"NoteNumber":43,"Velocity":21,"Duration":178376,"SoundDuration":178376,"Delta":77407519},{"NoteNumber":50,"Velocity":21,"Duration":178376,"SoundDuration":178376,"Delta":77407519},{"NoteNumber":58,"Velocity":24,"Duration":3081664,"SoundDuration":3081664,"Delta":77778500},{"NoteNumber":62,"Velocity":34,"Duration":3081664,"SoundDuration":3081664,"Delta":77778500},{"NoteNumber":43,"Velocity":18,"Duration":3081664,"SoundDuration":3081664,"Delta":77778500},{"NoteNumber":50,"Velocity":21,"Duration":3081664,"SoundDuration":3081664,"Delta":77778500},{"NoteNumber":58,"Velocity":27,"Duration":181709,"SoundDuration":181709,"Delta":80860164},{"NoteNumber":61,"Velocity":34,"Duration":181709,"SoundDuration":181709,"Delta":80860164},{"NoteNumber":43,"Velocity":21,"Duration":181709,"SoundDuration":181709,"Delta":80860164},{"NoteNumber":51,"Velocity":32,"Duration":181709,"SoundDuration":181709,"Delta":80860164},{"NoteNumber":46,"Velocity":25,"Duration":181709,"SoundDuration":181709,"Delta":80860164},{"NoteNumber":58,"Velocity":22,"Duration":732065,"SoundDuration":732065,"Delta":81232640},{"NoteNumber":61,"Velocity":34,"Duration":556380,"SoundDuration":556380,"Delta":81232640},{"NoteNumber":51,"Velocity":21,"Duration":732065,"SoundDuration":732065,"Delta":81232640},{"NoteNumber":43,"Velocity":25,"Duration":556380,"SoundDuration":556380,"Delta":81232640},{"NoteNumber":46,"Velocity":21,"Duration":732065,"SoundDuration":732065,"Delta":81232640},{"NoteNumber":60,"Velocity":30,"Duration":175685,"SoundDuration":175685,"Delta":81789020},{"NoteNumber":42,"Velocity":21,"Duration":175685,"SoundDuration":175685,"Delta":81789020},{"NoteNumber":58,"Velocity":21,"Duration":187009,"SoundDuration":187009,"Delta":81964706},{"NoteNumber":61,"Velocity":34,"Duration":187009,"SoundDuration":187009,"Delta":81964706},{"NoteNumber":52,"Velocity":21,"Duration":187009,"SoundDuration":187009,"Delta":81964706},{"NoteNumber":43,"Velocity":21,"Duration":187009,"SoundDuration":187009,"Delta":81964706},{"NoteNumber":46,"Velocity":21,"Duration":187009,"SoundDuration":187009,"Delta":81964706},{"NoteNumber":56,"Velocity":33,"Duration":1086432,"SoundDuration":1086432,"Delta":82350049},{"NoteNumber":65,"Velocity":50,"Duration":1086432,"SoundDuration":1086432,"Delta":82350049},{"NoteNumber":44,"Velocity":26,"Duration":1086432,"SoundDuration":1086432,"Delta":82350049},{"NoteNumber":53,"Velocity":31,"Duration":1086432,"SoundDuration":1086432,"Delta":82350049},{"NoteNumber":63,"Velocity":29,"Duration":362144,"SoundDuration":362144,"Delta":83436481},{"NoteNumber":60,"Velocity":29,"Duration":362144,"SoundDuration":362144,"Delta":83436481},{"NoteNumber":68,"Velocity":45,"Duration":362144,"SoundDuration":362144,"Delta":83436481},{"NoteNumber":42,"Velocity":19,"Duration":362144,"SoundDuration":362144,"Delta":83436481},{"NoteNumber":51,"Velocity":19,"Duration":362144,"SoundDuration":362144,"Delta":83436481},{"NoteNumber":56,"Velocity":23,"Duration":362144,"SoundDuration":362144,"Delta":83436481},{"NoteNumber":68,"Velocity":36,"Duration":3510621,"SoundDuration":3510621,"Delta":83798625},{"NoteNumber":61,"Velocity":36,"Duration":3510621,"SoundDuration":3510621,"Delta":83798625},{"NoteNumber":73,"Velocity":54,"Duration":3510621,"SoundDuration":3510621,"Delta":83798625},{"NoteNumber":41,"Velocity":28,"Duration":3510621,"SoundDuration":3510621,"Delta":83798625},{"NoteNumber":49,"Velocity":28,"Duration":3510621,"SoundDuration":3510621,"Delta":83798625},{"NoteNumber":56,"Velocity":34,"Duration":3504657,"SoundDuration":3504657,"Delta":83798625},{"NoteNumber":46,"Velocity":36,"Duration":1431297,"SoundDuration":1431297,"Delta":85162299},{"NoteNumber":58,"Velocity":53,"Duration":1431297,"SoundDuration":1431297,"Delta":85162299},{"NoteNumber":56,"Velocity":31,"Duration":672189,"SoundDuration":672189,"Delta":87309246},{"NoteNumber":60,"Velocity":31,"Duration":672189,"SoundDuration":672189,"Delta":87309246},{"NoteNumber":68,"Velocity":46,"Duration":672189,"SoundDuration":672189,"Delta":87309246},{"NoteNumber":42,"Velocity":24,"Duration":672189,"SoundDuration":672189,"Delta":87309246},{"NoteNumber":44,"Velocity":24,"Duration":672189,"SoundDuration":672189,"Delta":87309246},{"NoteNumber":51,"Velocity":24,"Duration":672189,"SoundDuration":672189,"Delta":87309246},{"NoteNumber":54,"Velocity":29,"Duration":672189,"SoundDuration":672189,"Delta":87309246},{"NoteNumber":58,"Velocity":33,"Duration":1051980,"SoundDuration":1051980,"Delta":87986764},{"NoteNumber":56,"Velocity":33,"Duration":1051980,"SoundDuration":1051980,"Delta":87986764},{"NoteNumber":61,"Velocity":40,"Duration":1051980,"SoundDuration":1051980,"Delta":87986764},{"NoteNumber":49,"Velocity":26,"Duration":1051980,"SoundDuration":1051980,"Delta":87986764},{"NoteNumber":41,"Velocity":26,"Duration":1051980,"SoundDuration":1051980,"Delta":87986764},{"NoteNumber":44,"Velocity":26,"Duration":1051980,"SoundDuration":1051980,"Delta":87986764},{"NoteNumber":53,"Velocity":31,"Duration":1051980,"SoundDuration":1051980,"Delta":87986764},{"NoteNumber":60,"Velocity":29,"Duration":353606,"SoundDuration":353606,"Delta":89047584},{"NoteNumber":56,"Velocity":29,"Duration":353606,"SoundDuration":353606,"Delta":89047584},{"NoteNumber":63,"Velocity":29,"Duration":353606,"SoundDuration":353606,"Delta":89047584},{"NoteNumber":68,"Velocity":45,"Duration":353606,"SoundDuration":353606,"Delta":89047584},{"NoteNumber":39,"Velocity":23,"Duration":353606,"SoundDuration":353606,"Delta":89047584},{"NoteNumber":44,"Velocity":23,"Duration":353606,"SoundDuration":353606,"Delta":89047584},{"NoteNumber":54,"Velocity":23,"Duration":353606,"SoundDuration":353606,"Delta":89047584},{"NoteNumber":68,"Velocity":36,"Duration":3482163,"SoundDuration":3482163,"Delta":89401191},{"NoteNumber":61,"Velocity":36,"Duration":3482163,"SoundDuration":3482163,"Delta":89401191},{"NoteNumber":65,"Velocity":36,"Duration":3482163,"SoundDuration":3482163,"Delta":89401191},{"NoteNumber":73,"Velocity":54,"Duration":3482163,"SoundDuration":3482163,"Delta":89401191},{"NoteNumber":37,"Velocity":28,"Duration":3482163,"SoundDuration":3482163,"Delta":89401191},{"NoteNumber":44,"Velocity":28,"Duration":3482163,"SoundDuration":3482163,"Delta":89401191},{"NoteNumber":53,"Velocity":34,"Duration":3482163,"SoundDuration":3482163,"Delta":89401191},{"NoteNumber":46,"Velocity":36,"Duration":1414427,"SoundDuration":1414427,"Delta":90761714},{"NoteNumber":58,"Velocity":53,"Duration":1414427,"SoundDuration":1414427,"Delta":90761714},{"NoteNumber":56,"Velocity":31,"Duration":666628,"SoundDuration":666628,"Delta":92883355},{"NoteNumber":63,"Velocity":31,"Duration":666628,"SoundDuration":666628,"Delta":92883355},{"NoteNumber":68,"Velocity":46,"Duration":666628,"SoundDuration":666628,"Delta":92883355},{"NoteNumber":36,"Velocity":24,"Duration":666628,"SoundDuration":666628,"Delta":92883355},{"NoteNumber":41,"Velocity":24,"Duration":666628,"SoundDuration":666628,"Delta":92883355},{"NoteNumber":51,"Velocity":29,"Duration":666628,"SoundDuration":666628,"Delta":92883355},{"NoteNumber":53,"Velocity":33,"Duration":1060820,"SoundDuration":1060820,"Delta":93549983},{"NoteNumber":58,"Velocity":33,"Duration":1060820,"SoundDuration":1060820,"Delta":93549983},{"NoteNumber":61,"Velocity":51,"Duration":1060820,"SoundDuration":1060820,"Delta":93549983},{"NoteNumber":34,"Velocity":27,"Duration":1060820,"SoundDuration":1060820,"Delta":93549983},{"NoteNumber":49,"Velocity":32,"Duration":1060820,"SoundDuration":1060820,"Delta":93549983},{"NoteNumber":60,"Velocity":41,"Duration":227824,"SoundDuration":227824,"Delta":94610803},{"NoteNumber":53,"Velocity":32,"Duration":227824,"SoundDuration":227824,"Delta":94610803},{"NoteNumber":65,"Velocity":49,"Duration":455650,"SoundDuration":455650,"Delta":94610803},{"NoteNumber":32,"Velocity":25,"Duration":455650,"SoundDuration":455650,"Delta":94610803},{"NoteNumber":44,"Velocity":25,"Duration":455650,"SoundDuration":455650,"Delta":94610803},{"NoteNumber":58,"Velocity":37,"Duration":1580110,"SoundDuration":1580110,"Delta":94838628},{"NoteNumber":52,"Velocity":37,"Duration":1580110,"SoundDuration":1580110,"Delta":94838628},{"NoteNumber":61,"Velocity":37,"Duration":1580110,"SoundDuration":1580110,"Delta":94838628},{"NoteNumber":70,"Velocity":56,"Duration":3836659,"SoundDuration":3836659,"Delta":95066453},{"NoteNumber":31,"Velocity":29,"Duration":1352285,"SoundDuration":1352285,"Delta":95066453},{"NoteNumber":43,"Velocity":35,"Duration":1352285,"SoundDuration":1352285,"Delta":95066453},{"NoteNumber":53,"Velocity":24,"Duration":778054,"SoundDuration":778054,"Delta":96418738},{"NoteNumber":58,"Velocity":24,"Duration":1612788,"SoundDuration":1612788,"Delta":96418738},{"NoteNumber":62,"Velocity":28,"Duration":778054,"SoundDuration":778054,"Delta":96418738},{"NoteNumber":30,"Velocity":20,"Duration":512882,"SoundDuration":512882,"Delta":96418738},{"NoteNumber":42,"Velocity":24,"Duration":512882,"SoundDuration":512882,"Delta":96418738},{"NoteNumber":29,"Velocity":19,"Duration":536957,"SoundDuration":536957,"Delta":96931621},{"NoteNumber":41,"Velocity":24,"Duration":536957,"SoundDuration":536957,"Delta":96931621},{"NoteNumber":54,"Velocity":23,"Duration":834733,"SoundDuration":834733,"Delta":97196793},{"NoteNumber":63,"Velocity":34,"Duration":2548542,"SoundDuration":2548542,"Delta":97196793},{"NoteNumber":27,"Velocity":19,"Duration":562947,"SoundDuration":562947,"Delta":97468579},{"NoteNumber":39,"Velocity":23,"Duration":562947,"SoundDuration":562947,"Delta":97468579},{"NoteNumber":68,"Velocity":33,"Duration":1713808,"SoundDuration":1713808,"Delta":98031527},{"NoteNumber":54,"Velocity":26,"Duration":1713808,"SoundDuration":1713808,"Delta":98031527},{"NoteNumber":61,"Velocity":26,"Duration":871586,"SoundDuration":871586,"Delta":98031527},{"NoteNumber":32,"Velocity":16,"Duration":1713808,"SoundDuration":1713808,"Delta":98031527},{"NoteNumber":44,"Velocity":20,"Duration":1713808,"SoundDuration":1713808,"Delta":98031527},{"NoteNumber":60,"Velocity":25,"Duration":842222,"SoundDuration":842222,"Delta":98903113},{"NoteNumber":40,"Velocity":24,"Duration":989524,"SoundDuration":989524,"Delta":99745335},{"NoteNumber":49,"Velocity":20,"Duration":166112,"SoundDuration":166112,"Delta":99912224},{"NoteNumber":33,"Velocity":20,"Duration":165508,"SoundDuration":165508,"Delta":100078337},{"NoteNumber":49,"Velocity":18,"Duration":164319,"SoundDuration":164319,"Delta":100243845},{"NoteNumber":33,"Velocity":20,"Duration":163882,"SoundDuration":163882,"Delta":100408164},{"NoteNumber":49,"Velocity":18,"Duration":162813,"SoundDuration":162813,"Delta":100572047},{"NoteNumber":61,"Velocity":40,"Duration":996969,"SoundDuration":996969,"Delta":100734860},{"NoteNumber":40,"Velocity":24,"Duration":996969,"SoundDuration":996969,"Delta":100734860},{"NoteNumber":49,"Velocity":20,"Duration":161498,"SoundDuration":161498,"Delta":100897000},{"NoteNumber":33,"Velocity":20,"Duration":160415,"SoundDuration":160415,"Delta":101058498},{"NoteNumber":49,"Velocity":18,"Duration":159998,"SoundDuration":159998,"Delta":101218913},{"NoteNumber":33,"Velocity":20,"Duration":172195,"SoundDuration":172195,"Delta":101378912},{"NoteNumber":49,"Velocity":18,"Duration":180721,"SoundDuration":180721,"Delta":101551108},{"NoteNumber":76,"Velocity":47,"Duration":2602041,"SoundDuration":2602041,"Delta":101731829},{"NoteNumber":40,"Velocity":24,"Duration":974526,"SoundDuration":974526,"Delta":101731829},{"NoteNumber":49,"Velocity":21,"Duration":164149,"SoundDuration":164149,"Delta":101897286},{"NoteNumber":33,"Velocity":21,"Duration":163030,"SoundDuration":163030,"Delta":102061436},{"NoteNumber":49,"Velocity":22,"Duration":161662,"SoundDuration":161662,"Delta":102224466},{"NoteNumber":33,"Velocity":23,"Duration":160625,"SoundDuration":160625,"Delta":102386129},{"NoteNumber":49,"Velocity":24,"Duration":159600,"SoundDuration":159600,"Delta":102546755},{"NoteNumber":40,"Velocity":29,"Duration":970916,"SoundDuration":970916,"Delta":102706355},{"NoteNumber":49,"Velocity":25,"Duration":160609,"SoundDuration":160609,"Delta":102866560},{"NoteNumber":33,"Velocity":24,"Duration":161498,"SoundDuration":161498,"Delta":103027169},{"NoteNumber":49,"Velocity":24,"Duration":162024,"SoundDuration":162024,"Delta":103188668},{"NoteNumber":33,"Velocity":23,"Duration":162813,"SoundDuration":162813,"Delta":103350693},{"NoteNumber":49,"Velocity":22,"Duration":163765,"SoundDuration":163765,"Delta":103513506},{"NoteNumber":40,"Velocity":28,"Duration":984898,"SoundDuration":984898,"Delta":103677271},{"NoteNumber":49,"Velocity":20,"Duration":164149,"SoundDuration":164149,"Delta":103841421},{"NoteNumber":33,"Velocity":20,"Duration":164149,"SoundDuration":164149,"Delta":104005571},{"NoteNumber":49,"Velocity":18,"Duration":164149,"SoundDuration":164149,"Delta":104169720},{"NoteNumber":75,"Velocity":43,"Duration":656598,"SoundDuration":656598,"Delta":104333870},{"NoteNumber":33,"Velocity":20,"Duration":164149,"SoundDuration":164149,"Delta":104333870},{"NoteNumber":49,"Velocity":18,"Duration":164149,"SoundDuration":164149,"Delta":104498020},{"NoteNumber":40,"Velocity":24,"Duration":984898,"SoundDuration":984898,"Delta":104662169},{"NoteNumber":49,"Velocity":20,"Duration":164149,"SoundDuration":164149,"Delta":104826319},{"NoteNumber":74,"Velocity":41,"Duration":656598,"SoundDuration":656598,"Delta":104990469},{"NoteNumber":33,"Velocity":20,"Duration":164149,"SoundDuration":164149,"Delta":104990469},{"NoteNumber":49,"Velocity":18,"Duration":164149,"SoundDuration":164149,"Delta":105154618},{"NoteNumber":33,"Velocity":20,"Duration":164149,"SoundDuration":164149,"Delta":105318768},{"NoteNumber":49,"Velocity":18,"Duration":164149,"SoundDuration":164149,"Delta":105482918},{"NoteNumber":73,"Velocity":39,"Duration":640103,"SoundDuration":640103,"Delta":105647067},{"NoteNumber":40,"Velocity":27,"Duration":962886,"SoundDuration":962886,"Delta":105647067},{"NoteNumber":49,"Velocity":22,"Duration":161261,"SoundDuration":161261,"Delta":105811829},{"NoteNumber":33,"Velocity":23,"Duration":157292,"SoundDuration":157292,"Delta":105973091},{"NoteNumber":49,"Velocity":24,"Duration":156787,"SoundDuration":156787,"Delta":106130384},{"NoteNumber":64,"Velocity":40,"Duration":662225,"SoundDuration":662225,"Delta":106287171},{"NoteNumber":33,"Velocity":25,"Duration":159379,"SoundDuration":159379,"Delta":106287171},{"NoteNumber":49,"Velocity":26,"Duration":163403,"SoundDuration":163403,"Delta":106446550},{"NoteNumber":41,"Velocity":39,"Duration":1018330,"SoundDuration":1018330,"Delta":106609954},{"NoteNumber":49,"Velocity":24,"Duration":169721,"SoundDuration":169721,"Delta":106779675},{"NoteNumber":63,"Velocity":35,"Duration":339443,"SoundDuration":339443,"Delta":106949397},{"NoteNumber":33,"Velocity":24,"Duration":169721,"SoundDuration":169721,"Delta":106949397},{"NoteNumber":49,"Velocity":24,"Duration":169721,"SoundDuration":169721,"Delta":107119119},{"NoteNumber":62,"Velocity":35,"Duration":339443,"SoundDuration":339443,"Delta":107288840},{"NoteNumber":33,"Velocity":24,"Duration":169721,"SoundDuration":169721,"Delta":107288840},{"NoteNumber":49,"Velocity":21,"Duration":169721,"SoundDuration":169721,"Delta":107458562},{"NoteNumber":61,"Velocity":40,"Duration":676352,"SoundDuration":676352,"Delta":107628284},{"NoteNumber":40,"Velocity":24,"Duration":1027723,"SoundDuration":1027723,"Delta":107628284},{"NoteNumber":49,"Velocity":20,"Duration":166889,"SoundDuration":166889,"Delta":107795173},{"NoteNumber":33,"Velocity":20,"Duration":166889,"SoundDuration":166889,"Delta":107962062},{"NoteNumber":49,"Velocity":18,"Duration":171293,"SoundDuration":171293,"Delta":108128951},{"NoteNumber":49,"Velocity":46,"Duration":171293,"SoundDuration":171293,"Delta":108304636},{"NoteNumber":33,"Velocity":20,"Duration":175685,"SoundDuration":175685,"Delta":108304636},{"NoteNumber":49,"Velocity":18,"Duration":175685,"SoundDuration":175685,"Delta":108480321},{"NoteNumber":80,"Velocity":58,"Duration":1652586,"SoundDuration":1652586,"Delta":108656007},{"NoteNumber":39,"Velocity":28,"Duration":994702,"SoundDuration":994702,"Delta":108656007},{"NoteNumber":49,"Velocity":23,"Duration":162572,"SoundDuration":162572,"Delta":108821469},{"NoteNumber":33,"Velocity":23,"Duration":160204,"SoundDuration":160204,"Delta":108984042},{"NoteNumber":49,"Velocity":23,"Duration":160326,"SoundDuration":160326,"Delta":109144247},{"NoteNumber":56,"Velocity":44,"Duration":346135,"SoundDuration":346135,"Delta":109304573},{"NoteNumber":33,"Velocity":23,"Duration":169009,"SoundDuration":169009,"Delta":109304573},{"NoteNumber":49,"Velocity":20,"Duration":177126,"SoundDuration":177126,"Delta":109473582},{"NoteNumber":61,"Velocity":54,"Duration":2586272,"SoundDuration":2586272,"Delta":109650709},{"NoteNumber":40,"Velocity":28,"Duration":976879,"SoundDuration":976879,"Delta":109650709},{"NoteNumber":49,"Velocity":23,"Duration":165682,"SoundDuration":165682,"Delta":109817270},{"NoteNumber":33,"Velocity":24,"Duration":163665,"SoundDuration":163665,"Delta":109982953},{"NoteNumber":49,"Velocity":25,"Duration":161975,"SoundDuration":161975,"Delta":110146618},{"NoteNumber":76,"Velocity":45,"Duration":636988,"SoundDuration":636988,"Delta":110308593},{"NoteNumber":33,"Velocity":27,"Duration":160063,"SoundDuration":160063,"Delta":110308593},{"NoteNumber":49,"Velocity":28,"Duration":158932,"SoundDuration":158932,"Delta":110468657},{"NoteNumber":41,"Velocity":33,"Duration":968238,"SoundDuration":968238,"Delta":110627589},{"NoteNumber":49,"Velocity":25,"Duration":158776,"SoundDuration":158776,"Delta":110786804},{"NoteNumber":75,"Velocity":40,"Duration":322375,"SoundDuration":322375,"Delta":110945581},{"NoteNumber":33,"Velocity":25,"Duration":160350,"SoundDuration":160350,"Delta":110945581},{"NoteNumber":49,"Velocity":25,"Duration":162024,"SoundDuration":162024,"Delta":111105932},{"NoteNumber":74,"Velocity":40,"Duration":327870,"SoundDuration":327870,"Delta":111267956},{"NoteNumber":33,"Velocity":25,"Duration":163397,"SoundDuration":163397,"Delta":111267956},{"NoteNumber":49,"Velocity":22,"Duration":164472,"SoundDuration":164472,"Delta":111431354},{"NoteNumber":73,"Velocity":52,"Duration":641155,"SoundDuration":641155,"Delta":111595827},{"NoteNumber":40,"Velocity":27,"Duration":978972,"SoundDuration":978972,"Delta":111595827},{"NoteNumber":49,"Velocity":20,"Duration":161094,"SoundDuration":161094,"Delta":111758908},{"NoteNumber":33,"Velocity":20,"Duration":159300,"SoundDuration":159300,"Delta":111920002},{"NoteNumber":49,"Velocity":18,"Duration":157679,"SoundDuration":157679,"Delta":112079303},{"NoteNumber":64,"Velocity":54,"Duration":668833,"SoundDuration":668833,"Delta":112236982},{"NoteNumber":33,"Velocity":20,"Duration":165165,"SoundDuration":165165,"Delta":112236982},{"NoteNumber":49,"Velocity":18,"Duration":168335,"SoundDuration":168335,"Delta":112402147},{"NoteNumber":49,"Velocity":45,"Duration":161370,"SoundDuration":161370,"Delta":112574799},{"NoteNumber":39,"Velocity":24,"Duration":993048,"SoundDuration":993048,"Delta":112574799},{"NoteNumber":49,"Velocity":20,"Duration":165508,"SoundDuration":165508,"Delta":112740307},{"NoteNumber":63,"Velocity":48,"Duration":331016,"SoundDuration":331016,"Delta":112905815},{"NoteNumber":33,"Velocity":20,"Duration":165508,"SoundDuration":165508,"Delta":112905815},{"NoteNumber":49,"Velocity":18,"Duration":165508,"SoundDuration":165508,"Delta":113071324},{"NoteNumber":62,"Velocity":48,"Duration":331016,"SoundDuration":331016,"Delta":113236832},{"NoteNumber":33,"Velocity":20,"Duration":165508,"SoundDuration":165508,"Delta":113236832},{"NoteNumber":49,"Velocity":18,"Duration":165508,"SoundDuration":165508,"Delta":113402340},{"NoteNumber":61,"Velocity":52,"Duration":322417,"SoundDuration":322417,"Delta":113567848},{"NoteNumber":40,"Velocity":27,"Duration":1001828,"SoundDuration":1001828,"Delta":113567848},{"NoteNumber":49,"Velocity":23,"Duration":169152,"SoundDuration":169152,"Delta":113731998},{"NoteNumber":55,"Velocity":47,"Duration":348310,"SoundDuration":348310,"Delta":113901150},{"NoteNumber":33,"Velocity":23,"Duration":174155,"SoundDuration":174155,"Delta":113901150},{"NoteNumber":49,"Velocity":23,"Duration":174155,"SoundDuration":174155,"Delta":114075306},{"NoteNumber":61,"Velocity":49,"Duration":320215,"SoundDuration":320215,"Delta":114249461},{"NoteNumber":33,"Velocity":23,"Duration":164095,"SoundDuration":164095,"Delta":114249461},{"NoteNumber":49,"Velocity":21,"Duration":156120,"SoundDuration":156120,"Delta":114413556},{"NoteNumber":67,"Velocity":52,"Duration":2262940,"SoundDuration":2262940,"Delta":114569677},{"NoteNumber":39,"Velocity":27,"Duration":966305,"SoundDuration":966305,"Delta":114569677},{"NoteNumber":49,"Velocity":21,"Duration":162402,"SoundDuration":162402,"Delta":114732490},{"NoteNumber":85,"Velocity":65,"Duration":959674,"SoundDuration":959674,"Delta":114894893},{"NoteNumber":33,"Velocity":21,"Duration":161498,"SoundDuration":161498,"Delta":114894893},{"NoteNumber":49,"Velocity":21,"Duration":160981,"SoundDuration":160981,"Delta":115056391},{"NoteNumber":33,"Velocity":21,"Duration":160205,"SoundDuration":160205,"Delta":115217373},{"NoteNumber":49,"Velocity":18,"Duration":158405,"SoundDuration":158405,"Delta":115377578},{"NoteNumber":40,"Velocity":31,"Duration":973637,"SoundDuration":973637,"Delta":115535983},{"NoteNumber":49,"Velocity":21,"Duration":159950,"SoundDuration":159950,"Delta":115694617},{"NoteNumber":81,"Velocity":61,"Duration":324466,"SoundDuration":324466,"Delta":115854568},{"NoteNumber":33,"Velocity":21,"Duration":161436,"SoundDuration":161436,"Delta":115854568},{"NoteNumber":49,"Velocity":21,"Duration":163030,"SoundDuration":163030,"Delta":116016004},{"NoteNumber":80,"Velocity":65,"Duration":330585,"SoundDuration":330585,"Delta":116179034},{"NoteNumber":33,"Velocity":21,"Duration":164421,"SoundDuration":164421,"Delta":116179034},{"NoteNumber":49,"Velocity":18,"Duration":161991,"SoundDuration":161991,"Delta":116343456},{"NoteNumber":79,"Velocity":69,"Duration":645994,"SoundDuration":645994,"Delta":116509620},{"NoteNumber":41,"Velocity":28,"Duration":968992,"SoundDuration":968992,"Delta":116509620},{"NoteNumber":49,"Velocity":20,"Duration":161498,"SoundDuration":161498,"Delta":116671119},{"NoteNumber":61,"Velocity":52,"Duration":322997,"SoundDuration":322997,"Delta":116832617},{"NoteNumber":33,"Velocity":20,"Duration":161498,"SoundDuration":161498,"Delta":116832617},{"NoteNumber":49,"Velocity":20,"Duration":161498,"SoundDuration":161498,"Delta":116994116},{"NoteNumber":67,"Velocity":62,"Duration":322997,"SoundDuration":322997,"Delta":117155615},{"NoteNumber":73,"Velocity":62,"Duration":322997,"SoundDuration":322997,"Delta":117155615},{"NoteNumber":33,"Velocity":20,"Duration":161498,"SoundDuration":161498,"Delta":117155615},{"NoteNumber":49,"Velocity":20,"Duration":161498,"SoundDuration":161498,"Delta":117317113},{"NoteNumber":88,"Velocity":68,"Duration":1191990,"SoundDuration":1191990,"Delta":117478612},{"NoteNumber":73,"Velocity":68,"Duration":317864,"SoundDuration":317864,"Delta":117478612},{"NoteNumber":40,"Velocity":28,"Duration":953592,"SoundDuration":953592,"Delta":117478612},{"NoteNumber":49,"Velocity":22,"Duration":158932,"SoundDuration":158932,"Delta":117637544},{"NoteNumber":67,"Velocity":56,"Duration":317864,"SoundDuration":317864,"Delta":117796476},{"NoteNumber":33,"Velocity":22,"Duration":158931,"SoundDuration":158931,"Delta":117796476},{"NoteNumber":49,"Velocity":22,"Duration":158932,"SoundDuration":158932,"Delta":117955408},{"NoteNumber":73,"Velocity":60,"Duration":317864,"SoundDuration":317864,"Delta":118114340},{"NoteNumber":33,"Velocity":22,"Duration":158931,"SoundDuration":158931,"Delta":118114340},{"NoteNumber":49,"Velocity":22,"Duration":158932,"SoundDuration":158932,"Delta":118273272},{"NoteNumber":79,"Velocity":59,"Duration":1293093,"SoundDuration":1293093,"Delta":118432204},{"NoteNumber":39,"Velocity":30,"Duration":970096,"SoundDuration":970096,"Delta":118432204},{"NoteNumber":49,"Velocity":22,"Duration":158932,"SoundDuration":158932,"Delta":118591136},{"NoteNumber":87,"Velocity":63,"Duration":235877,"SoundDuration":235877,"Delta":118670602},{"NoteNumber":33,"Velocity":22,"Duration":156411,"SoundDuration":156411,"Delta":118750068},{"NoteNumber":86,"Velocity":67,"Duration":242513,"SoundDuration":242513,"Delta":118906480},{"NoteNumber":49,"Velocity":22,"Duration":160318,"SoundDuration":160318,"Delta":118906480},{"NoteNumber":33,"Velocity":22,"Duration":165834,"SoundDuration":165834,"Delta":119066798},{"NoteNumber":85,"Velocity":68,"Duration":253307,"SoundDuration":253307,"Delta":119148993},{"NoteNumber":49,"Velocity":22,"Duration":169668,"SoundDuration":169668,"Delta":119232632},{"NoteNumber":91,"Velocity":77,"Duration":645994,"SoundDuration":645994,"Delta":119402300},{"NoteNumber":40,"Velocity":32,"Duration":968992,"SoundDuration":968992,"Delta":119402300},{"NoteNumber":49,"Velocity":23,"Duration":161498,"SoundDuration":161498,"Delta":119563799},{"NoteNumber":73,"Velocity":64,"Duration":322997,"SoundDuration":322997,"Delta":119725298},{"NoteNumber":33,"Velocity":23,"Duration":161498,"SoundDuration":161498,"Delta":119725298},{"NoteNumber":49,"Velocity":23,"Duration":161498,"SoundDuration":161498,"Delta":119886796},{"NoteNumber":91,"Velocity":70,"Duration":963817,"SoundDuration":963817,"Delta":120048295},{"NoteNumber":79,"Velocity":70,"Duration":322997,"SoundDuration":322997,"Delta":120048295},{"NoteNumber":33,"Velocity":23,"Duration":161498,"SoundDuration":161498,"Delta":120048295},{"NoteNumber":49,"Velocity":24,"Duration":157461,"SoundDuration":157461,"Delta":120209794},{"NoteNumber":85,"Velocity":64,"Duration":961230,"SoundDuration":961230,"Delta":120371292},{"NoteNumber":41,"Velocity":31,"Duration":961230,"SoundDuration":961230,"Delta":120371292},{"NoteNumber":49,"Velocity":20,"Duration":160204,"SoundDuration":160204,"Delta":120531497},{"NoteNumber":33,"Velocity":22,"Duration":160205,"SoundDuration":160205,"Delta":120691702},{"NoteNumber":49,"Velocity":22,"Duration":160205,"SoundDuration":160205,"Delta":120851907},{"NoteNumber":91,"Velocity":66,"Duration":635767,"SoundDuration":635767,"Delta":121012112},{"NoteNumber":33,"Velocity":22,"Duration":160204,"SoundDuration":160204,"Delta":121012112},{"NoteNumber":49,"Velocity":22,"Duration":160205,"SoundDuration":160205,"Delta":121172317},{"NoteNumber":73,"Velocity":64,"Duration":630716,"SoundDuration":630716,"Delta":121332522},{"NoteNumber":40,"Velocity":28,"Duration":946700,"SoundDuration":946700,"Delta":121332522},{"NoteNumber":49,"Velocity":24,"Duration":157679,"SoundDuration":157679,"Delta":121490201},{"NoteNumber":91,"Velocity":64,"Duration":631342,"SoundDuration":631342,"Delta":121647880},{"NoteNumber":33,"Velocity":24,"Duration":157679,"SoundDuration":157679,"Delta":121647880},{"NoteNumber":49,"Velocity":24,"Duration":157679,"SoundDuration":157679,"Delta":121805559},{"NoteNumber":79,"Velocity":64,"Duration":315984,"SoundDuration":315984,"Delta":121963238},{"NoteNumber":33,"Velocity":24,"Duration":157678,"SoundDuration":157678,"Delta":121963238},{"NoteNumber":49,"Velocity":24,"Duration":158305,"SoundDuration":158305,"Delta":122120917},{"NoteNumber":92,"Velocity":68,"Duration":95753,"SoundDuration":95753,"Delta":122279223},{"NoteNumber":85,"Velocity":68,"Duration":986998,"SoundDuration":986998,"Delta":122279223},{"NoteNumber":39,"Velocity":32,"Duration":986998,"SoundDuration":986998,"Delta":122279223},{"NoteNumber":91,"Velocity":59,"Duration":89916,"SoundDuration":89916,"Delta":122374976},{"NoteNumber":49,"Velocity":24,"Duration":162276,"SoundDuration":162276,"Delta":122464892},{"NoteNumber":92,"Velocity":61,"Duration":83501,"SoundDuration":83501,"Delta":122467069},{"NoteNumber":91,"Velocity":63,"Duration":78537,"SoundDuration":78537,"Delta":122550571},{"NoteNumber":33,"Velocity":24,"Duration":155231,"SoundDuration":155231,"Delta":122627168},{"NoteNumber":92,"Velocity":65,"Duration":77615,"SoundDuration":77615,"Delta":122629109},{"NoteNumber":91,"Velocity":68,"Duration":77615,"SoundDuration":77615,"Delta":122706724},{"NoteNumber":49,"Velocity":24,"Duration":155292,"SoundDuration":155292,"Delta":122782400},{"NoteNumber":92,"Velocity":70,"Duration":77615,"SoundDuration":77615,"Delta":122784340},{"NoteNumber":91,"Velocity":75,"Duration":77706,"SoundDuration":77706,"Delta":122863896},{"NoteNumber":33,"Velocity":24,"Duration":160146,"SoundDuration":160146,"Delta":122937692},{"NoteNumber":92,"Velocity":70,"Duration":79173,"SoundDuration":79173,"Delta":122941603},{"NoteNumber":91,"Velocity":75,"Duration":81165,"SoundDuration":81165,"Delta":123020776},{"NoteNumber":49,"Velocity":24,"Duration":168382,"SoundDuration":168382,"Delta":123097838},{"NoteNumber":90,"Velocity":70,"Duration":83295,"SoundDuration":83295,"Delta":123101942},{"NoteNumber":91,"Velocity":75,"Duration":85263,"SoundDuration":85263,"Delta":123185237},{"NoteNumber":92,"Velocity":94,"Duration":513523,"SoundDuration":513523,"Delta":123266221},{"NoteNumber":40,"Velocity":40,"Duration":979217,"SoundDuration":979217,"Delta":123266221},{"NoteNumber":49,"Velocity":29,"Duration":171174,"SoundDuration":171174,"Delta":123437395},{"NoteNumber":34,"Velocity":29,"Duration":171174,"SoundDuration":171174,"Delta":123608570},{"NoteNumber":56,"Velocity":74,"Duration":916821,"SoundDuration":916821,"Delta":123779744},{"NoteNumber":49,"Velocity":29,"Duration":155231,"SoundDuration":155231,"Delta":123779744},{"NoteNumber":34,"Velocity":29,"Duration":155231,"SoundDuration":155231,"Delta":123934975},{"NoteNumber":49,"Velocity":30,"Duration":151350,"SoundDuration":151350,"Delta":124090207},{"NoteNumber":41,"Velocity":39,"Duration":902255,"SoundDuration":902255,"Delta":124245438},{"NoteNumber":50,"Velocity":25,"Duration":150376,"SoundDuration":150376,"Delta":124395814},{"NoteNumber":35,"Velocity":28,"Duration":112781,"SoundDuration":112781,"Delta":124546190},{"NoteNumber":62,"Velocity":58,"Duration":902256,"SoundDuration":902256,"Delta":124696566},{"NoteNumber":50,"Velocity":28,"Duration":150376,"SoundDuration":150376,"Delta":124696566},{"NoteNumber":56,"Velocity":59,"Duration":751879,"SoundDuration":751879,"Delta":124846942},{"NoteNumber":68,"Velocity":65,"Duration":751879,"SoundDuration":751879,"Delta":124846942},{"NoteNumber":35,"Velocity":28,"Duration":150375,"SoundDuration":150375,"Delta":124846942},{"NoteNumber":50,"Velocity":28,"Duration":150375,"SoundDuration":150375,"Delta":124997318},{"NoteNumber":42,"Velocity":36,"Duration":902256,"SoundDuration":902256,"Delta":125147694},{"NoteNumber":51,"Velocity":30,"Duration":150375,"SoundDuration":150375,"Delta":125298070},{"NoteNumber":36,"Velocity":30,"Duration":150376,"SoundDuration":150376,"Delta":125448446},{"NoteNumber":56,"Velocity":55,"Duration":902255,"SoundDuration":902255,"Delta":125598822},{"NoteNumber":63,"Velocity":65,"Duration":676691,"SoundDuration":676691,"Delta":125598822},{"NoteNumber":68,"Velocity":65,"Duration":902255,"SoundDuration":902255,"Delta":125598822},{"NoteNumber":51,"Velocity":30,"Duration":150375,"SoundDuration":150375,"Delta":125598822},{"NoteNumber":36,"Velocity":30,"Duration":150375,"SoundDuration":150375,"Delta":125749198},{"NoteNumber":51,"Velocity":30,"Duration":150376,"SoundDuration":150376,"Delta":125899574},{"NoteNumber":44,"Velocity":40,"Duration":878924,"SoundDuration":878924,"Delta":126049950},{"NoteNumber":52,"Velocity":30,"Duration":150376,"SoundDuration":150376,"Delta":126200326},{"NoteNumber":64,"Velocity":64,"Duration":653360,"SoundDuration":653360,"Delta":126275514},{"NoteNumber":37,"Velocity":30,"Duration":150375,"SoundDuration":150375,"Delta":126350702},{"NoteNumber":66,"Velocity":62,"Duration":191277,"SoundDuration":191277,"Delta":126501078},{"NoteNumber":75,"Velocity":62,"Duration":191277,"SoundDuration":191277,"Delta":126501078},{"NoteNumber":78,"Velocity":73,"Duration":191277,"SoundDuration":191277,"Delta":126501078},{"NoteNumber":52,"Velocity":30,"Duration":127518,"SoundDuration":127518,"Delta":126501078},{"NoteNumber":37,"Velocity":30,"Duration":142598,"SoundDuration":142598,"Delta":126628596},{"NoteNumber":67,"Velocity":68,"Duration":236518,"SoundDuration":236518,"Delta":126692356},{"NoteNumber":76,"Velocity":68,"Duration":236518,"SoundDuration":236518,"Delta":126692356},{"NoteNumber":79,"Velocity":80,"Duration":236518,"SoundDuration":236518,"Delta":126692356},{"NoteNumber":52,"Velocity":30,"Duration":157679,"SoundDuration":157679,"Delta":126771195},{"NoteNumber":68,"Velocity":71,"Duration":484495,"SoundDuration":484495,"Delta":126928874},{"NoteNumber":77,"Velocity":71,"Duration":484495,"SoundDuration":484495,"Delta":126928874},{"NoteNumber":80,"Velocity":84,"Duration":484495,"SoundDuration":484495,"Delta":126928874},{"NoteNumber":46,"Velocity":44,"Duration":919278,"SoundDuration":919278,"Delta":126928874},{"NoteNumber":53,"Velocity":32,"Duration":161498,"SoundDuration":161498,"Delta":127090373},{"NoteNumber":38,"Velocity":32,"Duration":121123,"SoundDuration":121123,"Delta":127251872},{"NoteNumber":65,"Velocity":63,"Duration":121123,"SoundDuration":121123,"Delta":127292246},{"NoteNumber":56,"Velocity":78,"Duration":860314,"SoundDuration":860314,"Delta":127413370},{"NoteNumber":53,"Velocity":32,"Duration":144927,"SoundDuration":144927,"Delta":127413370},{"NoteNumber":38,"Velocity":32,"Duration":144927,"SoundDuration":144927,"Delta":127558298},{"NoteNumber":53,"Velocity":34,"Duration":141304,"SoundDuration":141304,"Delta":127703225},{"NoteNumber":47,"Velocity":44,"Duration":851063,"SoundDuration":851063,"Delta":127848153},{"NoteNumber":54,"Velocity":29,"Duration":141843,"SoundDuration":141843,"Delta":127989997},{"NoteNumber":39,"Velocity":32,"Duration":141843,"SoundDuration":141843,"Delta":128131841},{"NoteNumber":59,"Velocity":59,"Duration":842198,"SoundDuration":842198,"Delta":128273685},{"NoteNumber":54,"Velocity":32,"Duration":141844,"SoundDuration":141844,"Delta":128273685},{"NoteNumber":56,"Velocity":67,"Duration":700354,"SoundDuration":700354,"Delta":128415529},{"NoteNumber":68,"Velocity":70,"Duration":700354,"SoundDuration":700354,"Delta":128415529},{"NoteNumber":39,"Velocity":33,"Duration":141843,"SoundDuration":141843,"Delta":128415529},{"NoteNumber":54,"Velocity":33,"Duration":141843,"SoundDuration":141843,"Delta":128557373},{"NoteNumber":48,"Velocity":43,"Duration":833333,"SoundDuration":833333,"Delta":128699217},{"NoteNumber":55,"Velocity":36,"Duration":138888,"SoundDuration":138888,"Delta":128838106},{"NoteNumber":40,"Velocity":36,"Duration":138888,"SoundDuration":138888,"Delta":128976994},{"NoteNumber":56,"Velocity":55,"Duration":824830,"SoundDuration":824830,"Delta":129115883},{"NoteNumber":60,"Velocity":65,"Duration":620748,"SoundDuration":620748,"Delta":129115883},{"NoteNumber":68,"Velocity":65,"Duration":824830,"SoundDuration":824830,"Delta":129115883},{"NoteNumber":55,"Velocity":36,"Duration":138888,"SoundDuration":138888,"Delta":129115883},{"NoteNumber":40,"Velocity":36,"Duration":138888,"SoundDuration":138888,"Delta":129254772},{"NoteNumber":55,"Velocity":37,"Duration":138888,"SoundDuration":138888,"Delta":129393661},{"NoteNumber":49,"Velocity":50,"Duration":811563,"SoundDuration":811563,"Delta":129532550},{"NoteNumber":56,"Velocity":37,"Duration":136054,"SoundDuration":136054,"Delta":129668604},{"NoteNumber":61,"Velocity":64,"Duration":607482,"SoundDuration":607482,"Delta":129736631},{"NoteNumber":41,"Velocity":37,"Duration":136054,"SoundDuration":136054,"Delta":129804659},{"NoteNumber":66,"Velocity":62,"Duration":188869,"SoundDuration":188869,"Delta":129940713},{"NoteNumber":75,"Velocity":62,"Duration":188869,"SoundDuration":188869,"Delta":129940713},{"NoteNumber":78,"Velocity":73,"Duration":188869,"SoundDuration":188869,"Delta":129940713},{"NoteNumber":56,"Velocity":38,"Duration":125912,"SoundDuration":125912,"Delta":129940713},{"NoteNumber":41,"Velocity":38,"Duration":134466,"SoundDuration":134466,"Delta":130066626},{"NoteNumber":67,"Velocity":68,"Duration":214530,"SoundDuration":214530,"Delta":130129582},{"NoteNumber":76,"Velocity":68,"Duration":214530,"SoundDuration":214530,"Delta":130129582},{"NoteNumber":79,"Velocity":80,"Duration":214530,"SoundDuration":214530,"Delta":130129582},{"NoteNumber":56,"Velocity":38,"Duration":143020,"SoundDuration":143020,"Delta":130201093},{"NoteNumber":68,"Velocity":84,"Duration":268456,"SoundDuration":268456,"Delta":130344113},{"NoteNumber":77,"Velocity":84,"Duration":268456,"SoundDuration":268456,"Delta":130344113},{"NoteNumber":80,"Velocity":84,"Duration":268456,"SoundDuration":268456,"Delta":130344113},{"NoteNumber":49,"Velocity":48,"Duration":268456,"SoundDuration":268456,"Delta":130344113},{"NoteNumber":61,"Velocity":54,"Duration":268456,"SoundDuration":268456,"Delta":130344113},{"NoteNumber":66,"Velocity":65,"Duration":134228,"SoundDuration":134228,"Delta":130612570},{"NoteNumber":73,"Velocity":77,"Duration":134228,"SoundDuration":134228,"Delta":130612570},{"NoteNumber":56,"Velocity":51,"Duration":134228,"SoundDuration":134228,"Delta":130612570},{"NoteNumber":67,"Velocity":64,"Duration":536912,"SoundDuration":536912,"Delta":130746798},{"NoteNumber":77,"Velocity":67,"Duration":536912,"SoundDuration":536912,"Delta":130746798},{"NoteNumber":79,"Velocity":81,"Duration":536912,"SoundDuration":536912,"Delta":130746798},{"NoteNumber":61,"Velocity":43,"Duration":134228,"SoundDuration":134228,"Delta":130746798},{"NoteNumber":68,"Velocity":43,"Duration":120805,"SoundDuration":120805,"Delta":130881026},{"NoteNumber":68,"Velocity":43,"Duration":120805,"SoundDuration":120805,"Delta":131015254},{"NoteNumber":73,"Velocity":68,"Duration":268456,"SoundDuration":268456,"Delta":131149482},{"NoteNumber":72,"Velocity":71,"Duration":134228,"SoundDuration":134228,"Delta":131283711},{"NoteNumber":73,"Velocity":72,"Duration":134228,"SoundDuration":134228,"Delta":131417939},{"NoteNumber":49,"Velocity":41,"Duration":134228,"SoundDuration":134228,"Delta":131417939},{"NoteNumber":79,"Velocity":81,"Duration":134228,"SoundDuration":134228,"Delta":131552167},{"NoteNumber":77,"Velocity":72,"Duration":134228,"SoundDuration":134228,"Delta":131552167},{"NoteNumber":56,"Velocity":44,"Duration":134228,"SoundDuration":134228,"Delta":131552167},{"NoteNumber":68,"Velocity":71,"Duration":134228,"SoundDuration":134228,"Delta":131686395},{"NoteNumber":49,"Velocity":40,"Duration":134228,"SoundDuration":134228,"Delta":131686395},{"NoteNumber":80,"Velocity":71,"Duration":426540,"SoundDuration":426540,"Delta":131820623},{"NoteNumber":73,"Velocity":71,"Duration":426540,"SoundDuration":426540,"Delta":131820623},{"NoteNumber":56,"Velocity":48,"Duration":134228,"SoundDuration":134228,"Delta":131820623},{"NoteNumber":61,"Velocity":59,"Duration":292312,"SoundDuration":292312,"Delta":131954851},{"NoteNumber":66,"Velocity":80,"Duration":146156,"SoundDuration":146156,"Delta":132247164},{"NoteNumber":73,"Velocity":80,"Duration":142502,"SoundDuration":142502,"Delta":132247164},{"NoteNumber":57,"Velocity":53,"Duration":146156,"SoundDuration":146156,"Delta":132247164},{"NoteNumber":68,"Velocity":67,"Duration":261589,"SoundDuration":261589,"Delta":132393320},{"NoteNumber":78,"Velocity":71,"Duration":529801,"SoundDuration":529801,"Delta":132393320},{"NoteNumber":80,"Velocity":85,"Duration":529801,"SoundDuration":529801,"Delta":132393320},{"NoteNumber":49,"Velocity":45,"Duration":132450,"SoundDuration":132450,"Delta":132393320},{"NoteNumber":57,"Velocity":45,"Duration":132450,"SoundDuration":132450,"Delta":132525770},{"NoteNumber":68,"Velocity":58,"Duration":132450,"SoundDuration":132450,"Delta":132658221},{"NoteNumber":49,"Velocity":46,"Duration":132450,"SoundDuration":132450,"Delta":132658221},{"NoteNumber":42,"Velocity":57,"Duration":264900,"SoundDuration":264900,"Delta":132790671},{"NoteNumber":73,"Velocity":68,"Duration":264900,"SoundDuration":264900,"Delta":132790671},{"NoteNumber":72,"Velocity":70,"Duration":132450,"SoundDuration":132450,"Delta":132923121},{"NoteNumber":73,"Velocity":75,"Duration":132450,"SoundDuration":132450,"Delta":133055572},{"NoteNumber":49,"Velocity":43,"Duration":132450,"SoundDuration":132450,"Delta":133055572},{"NoteNumber":80,"Velocity":85,"Duration":132450,"SoundDuration":132450,"Delta":133188022},{"NoteNumber":78,"Velocity":75,"Duration":132450,"SoundDuration":132450,"Delta":133188022},{"NoteNumber":57,"Velocity":46,"Duration":132450,"SoundDuration":132450,"Delta":133188022},{"NoteNumber":69,"Velocity":75,"Duration":132450,"SoundDuration":132450,"Delta":133320472},{"NoteNumber":49,"Velocity":42,"Duration":132450,"SoundDuration":132450,"Delta":133320472},{"NoteNumber":81,"Velocity":75,"Duration":414140,"SoundDuration":414140,"Delta":133452923},{"NoteNumber":73,"Velocity":75,"Duration":414140,"SoundDuration":414140,"Delta":133452923},{"NoteNumber":57,"Velocity":54,"Duration":132450,"SoundDuration":132450,"Delta":133452923},{"NoteNumber":61,"Velocity":62,"Duration":281689,"SoundDuration":281689,"Delta":133585373},{"NoteNumber":68,"Velocity":84,"Duration":140845,"SoundDuration":140845,"Delta":133867063},{"NoteNumber":73,"Velocity":84,"Duration":137323,"SoundDuration":137323,"Delta":133867063},{"NoteNumber":53,"Velocity":56,"Duration":140845,"SoundDuration":140845,"Delta":133867063},{"NoteNumber":69,"Velocity":71,"Duration":256493,"SoundDuration":256493,"Delta":134007908},{"NoteNumber":77,"Velocity":74,"Duration":519480,"SoundDuration":519480,"Delta":134007908},{"NoteNumber":81,"Velocity":89,"Duration":519480,"SoundDuration":519480,"Delta":134007908},{"NoteNumber":49,"Velocity":47,"Duration":129870,"SoundDuration":129870,"Delta":134007908},{"NoteNumber":53,"Velocity":47,"Duration":129870,"SoundDuration":129870,"Delta":134137778},{"NoteNumber":65,"Velocity":59,"Duration":129870,"SoundDuration":129870,"Delta":134267648},{"NoteNumber":49,"Velocity":48,"Duration":129870,"SoundDuration":129870,"Delta":134267648},{"NoteNumber":44,"Velocity":60,"Duration":259740,"SoundDuration":259740,"Delta":134397518},{"NoteNumber":73,"Velocity":69,"Duration":259740,"SoundDuration":259740,"Delta":134397518},{"NoteNumber":72,"Velocity":69,"Duration":129870,"SoundDuration":129870,"Delta":134527389},{"NoteNumber":73,"Velocity":79,"Duration":129870,"SoundDuration":129870,"Delta":134657259},{"NoteNumber":53,"Velocity":45,"Duration":129870,"SoundDuration":129870,"Delta":134657259},{"NoteNumber":81,"Velocity":89,"Duration":129870,"SoundDuration":129870,"Delta":134787129},{"NoteNumber":77,"Velocity":79,"Duration":129870,"SoundDuration":129870,"Delta":134787129},{"NoteNumber":61,"Velocity":48,"Duration":129870,"SoundDuration":129870,"Delta":134787129},{"NoteNumber":70,"Velocity":78,"Duration":129870,"SoundDuration":129870,"Delta":134916999},{"NoteNumber":53,"Velocity":44,"Duration":129870,"SoundDuration":129870,"Delta":134916999},{"NoteNumber":82,"Velocity":78,"Duration":413558,"SoundDuration":413558,"Delta":135046869},{"NoteNumber":73,"Velocity":78,"Duration":413558,"SoundDuration":413558,"Delta":135046869},{"NoteNumber":61,"Velocity":61,"Duration":129870,"SoundDuration":129870,"Delta":135046869},{"NoteNumber":65,"Velocity":70,"Duration":283688,"SoundDuration":283688,"Delta":135176739},{"NoteNumber":68,"Velocity":88,"Duration":141843,"SoundDuration":141843,"Delta":135460427},{"NoteNumber":73,"Velocity":88,"Duration":138297,"SoundDuration":138297,"Delta":135460427},{"NoteNumber":61,"Velocity":58,"Duration":141843,"SoundDuration":141843,"Delta":135460427},{"NoteNumber":69,"Velocity":74,"Duration":256493,"SoundDuration":256493,"Delta":135602271},{"NoteNumber":77,"Velocity":77,"Duration":519480,"SoundDuration":519480,"Delta":135602271},{"NoteNumber":81,"Velocity":93,"Duration":519480,"SoundDuration":519480,"Delta":135602271},{"NoteNumber":53,"Velocity":49,"Duration":129870,"SoundDuration":129870,"Delta":135602271},{"NoteNumber":61,"Velocity":49,"Duration":129870,"SoundDuration":129870,"Delta":135732142},{"NoteNumber":65,"Velocity":66,"Duration":129870,"SoundDuration":129870,"Delta":135862012},{"NoteNumber":49,"Velocity":50,"Duration":129870,"SoundDuration":129870,"Delta":135862012},{"NoteNumber":45,"Velocity":63,"Duration":259740,"SoundDuration":259740,"Delta":135991882},{"NoteNumber":73,"Velocity":77,"Duration":259740,"SoundDuration":259740,"Delta":135991882},{"NoteNumber":72,"Velocity":76,"Duration":129870,"SoundDuration":129870,"Delta":136121752},{"NoteNumber":73,"Velocity":80,"Duration":129870,"SoundDuration":129870,"Delta":136251622},{"NoteNumber":53,"Velocity":47,"Duration":129870,"SoundDuration":129870,"Delta":136251622},{"NoteNumber":81,"Velocity":93,"Duration":142005,"SoundDuration":142005,"Delta":136381492},{"NoteNumber":77,"Velocity":82,"Duration":142005,"SoundDuration":142005,"Delta":136381492},{"NoteNumber":61,"Velocity":50,"Duration":142005,"SoundDuration":142005,"Delta":136381492},{"NoteNumber":70,"Velocity":82,"Duration":153077,"SoundDuration":153077,"Delta":136523498},{"NoteNumber":53,"Velocity":46,"Duration":153077,"SoundDuration":153077,"Delta":136523498},{"NoteNumber":82,"Velocity":82,"Duration":164149,"SoundDuration":164149,"Delta":136676575},{"NoteNumber":73,"Velocity":82,"Duration":164149,"SoundDuration":164149,"Delta":136676575},{"NoteNumber":61,"Velocity":46,"Duration":164149,"SoundDuration":164149,"Delta":136676575},{"NoteNumber":34,"Velocity":56,"Duration":180897,"SoundDuration":180897,"Delta":136840725},{"NoteNumber":46,"Velocity":66,"Duration":180897,"SoundDuration":180897,"Delta":136840725},{"NoteNumber":62,"Velocity":78,"Duration":333387,"SoundDuration":333387,"Delta":137021622},{"NoteNumber":68,"Velocity":78,"Duration":333387,"SoundDuration":333387,"Delta":137021622},{"NoteNumber":74,"Velocity":92,"Duration":333387,"SoundDuration":333387,"Delta":137021622},{"NoteNumber":56,"Velocity":78,"Duration":333387,"SoundDuration":333387,"Delta":137021622},{"NoteNumber":53,"Velocity":65,"Duration":333387,"SoundDuration":333387,"Delta":137021622},{"NoteNumber":82,"Velocity":60,"Duration":650383,"SoundDuration":650383,"Delta":137355009},{"NoteNumber":75,"Velocity":40,"Duration":108653,"SoundDuration":108653,"Delta":137465158},{"NoteNumber":74,"Velocity":40,"Duration":80458,"SoundDuration":80458,"Delta":137573811},{"NoteNumber":66,"Velocity":48,"Duration":490258,"SoundDuration":490258,"Delta":137680880},{"NoteNumber":69,"Velocity":37,"Duration":108153,"SoundDuration":108153,"Delta":137787805},{"NoteNumber":75,"Velocity":37,"Duration":109433,"SoundDuration":109433,"Delta":137895959},{"NoteNumber":81,"Velocity":55,"Duration":331491,"SoundDuration":331491,"Delta":138005393},{"NoteNumber":77,"Velocity":37,"Duration":110497,"SoundDuration":110497,"Delta":138115890},{"NoteNumber":65,"Velocity":36,"Duration":165745,"SoundDuration":165745,"Delta":138171139},{"NoteNumber":75,"Velocity":37,"Duration":110497,"SoundDuration":110497,"Delta":138226387},{"NoteNumber":58,"Velocity":44,"Duration":655244,"SoundDuration":655244,"Delta":138336884},{"NoteNumber":68,"Velocity":36,"Duration":110497,"SoundDuration":110497,"Delta":138447381},{"NoteNumber":65,"Velocity":37,"Duration":489498,"SoundDuration":489498,"Delta":138502630},{"NoteNumber":74,"Velocity":37,"Duration":109999,"SoundDuration":109999,"Delta":138557879},{"NoteNumber":81,"Velocity":60,"Duration":645974,"SoundDuration":645974,"Delta":138667878},{"NoteNumber":75,"Velocity":36,"Duration":108065,"SoundDuration":108065,"Delta":138776774},{"NoteNumber":74,"Velocity":36,"Duration":107289,"SoundDuration":107289,"Delta":138884839},{"NoteNumber":66,"Velocity":48,"Duration":486834,"SoundDuration":486834,"Delta":138992129},{"NoteNumber":69,"Velocity":37,"Duration":107103,"SoundDuration":107103,"Delta":139098280},{"NoteNumber":75,"Velocity":37,"Duration":108468,"SoundDuration":108468,"Delta":139205384},{"NoteNumber":82,"Velocity":55,"Duration":330856,"SoundDuration":330856,"Delta":139313852},{"NoteNumber":77,"Velocity":37,"Duration":110497,"SoundDuration":110497,"Delta":139423714},{"NoteNumber":65,"Velocity":36,"Duration":165745,"SoundDuration":165745,"Delta":139478963},{"NoteNumber":75,"Velocity":37,"Duration":110497,"SoundDuration":110497,"Delta":139534211},{"NoteNumber":58,"Velocity":35,"Duration":657094,"SoundDuration":657094,"Delta":139644708},{"NoteNumber":68,"Velocity":36,"Duration":110497,"SoundDuration":110497,"Delta":139755206},{"NoteNumber":65,"Velocity":29,"Duration":491348,"SoundDuration":491348,"Delta":139810454},{"NoteNumber":74,"Velocity":37,"Duration":110474,"SoundDuration":110474,"Delta":139865703},{"NoteNumber":82,"Velocity":60,"Duration":646933,"SoundDuration":646933,"Delta":139976177},{"NoteNumber":75,"Velocity":36,"Duration":108542,"SoundDuration":108542,"Delta":140085782},{"NoteNumber":74,"Velocity":36,"Duration":107478,"SoundDuration":107478,"Delta":140194324},{"NoteNumber":66,"Velocity":38,"Duration":485514,"SoundDuration":485514,"Delta":140301803},{"NoteNumber":69,"Velocity":29,"Duration":107103,"SoundDuration":107103,"Delta":140407890},{"NoteNumber":75,"Velocity":29,"Duration":108116,"SoundDuration":108116,"Delta":140514993},{"NoteNumber":83,"Velocity":55,"Duration":329042,"SoundDuration":329042,"Delta":140623110},{"NoteNumber":77,"Velocity":37,"Duration":109890,"SoundDuration":109890,"Delta":140732372},{"NoteNumber":65,"Velocity":28,"Duration":164835,"SoundDuration":164835,"Delta":140787317},{"NoteNumber":75,"Velocity":37,"Duration":109890,"SoundDuration":109890,"Delta":140842262},{"NoteNumber":58,"Velocity":35,"Duration":648799,"SoundDuration":648799,"Delta":140952152},{"NoteNumber":68,"Velocity":36,"Duration":109890,"SoundDuration":109890,"Delta":141062043},{"NoteNumber":65,"Velocity":29,"Duration":483964,"SoundDuration":483964,"Delta":141116988},{"NoteNumber":74,"Velocity":37,"Duration":109059,"SoundDuration":109059,"Delta":141171933},{"NoteNumber":83,"Velocity":60,"Duration":633779,"SoundDuration":633779,"Delta":141280992},{"NoteNumber":75,"Velocity":36,"Duration":106803,"SoundDuration":106803,"Delta":141388913},{"NoteNumber":74,"Velocity":36,"Duration":105236,"SoundDuration":105236,"Delta":141495716},{"NoteNumber":66,"Velocity":38,"Duration":473440,"SoundDuration":473440,"Delta":141600952},{"NoteNumber":69,"Velocity":29,"Duration":104562,"SoundDuration":104562,"Delta":141704835},{"NoteNumber":75,"Velocity":29,"Duration":105374,"SoundDuration":105374,"Delta":141809397},{"NoteNumber":84,"Velocity":55,"Duration":320308,"SoundDuration":320308,"Delta":141914772},{"NoteNumber":77,"Velocity":37,"Duration":106951,"SoundDuration":106951,"Delta":142020916},{"NoteNumber":65,"Velocity":28,"Duration":160687,"SoundDuration":160687,"Delta":142074392},{"NoteNumber":75,"Velocity":37,"Duration":107212,"SoundDuration":107212,"Delta":142127868},{"NoteNumber":58,"Velocity":35,"Duration":639852,"SoundDuration":639852,"Delta":142235080},{"NoteNumber":72,"Velocity":36,"Duration":108108,"SoundDuration":108108,"Delta":142343188},{"NoteNumber":66,"Velocity":29,"Duration":477690,"SoundDuration":477690,"Delta":142397243},{"NoteNumber":75,"Velocity":37,"Duration":108022,"SoundDuration":108022,"Delta":142451297},{"NoteNumber":84,"Velocity":64,"Duration":628855,"SoundDuration":628855,"Delta":142559319},{"NoteNumber":80,"Velocity":36,"Duration":105311,"SoundDuration":105311,"Delta":142665139},{"NoteNumber":78,"Velocity":36,"Duration":104481,"SoundDuration":104481,"Delta":142770451},{"NoteNumber":68,"Velocity":38,"Duration":473930,"SoundDuration":473930,"Delta":142874933},{"NoteNumber":73,"Velocity":36,"Duration":104310,"SoundDuration":104310,"Delta":142978259},{"NoteNumber":70,"Velocity":29,"Duration":479857,"SoundDuration":479857,"Delta":143030295},{"NoteNumber":78,"Velocity":36,"Duration":105604,"SoundDuration":105604,"Delta":143082570},{"NoteNumber":85,"Velocity":59,"Duration":321978,"SoundDuration":321978,"Delta":143188174},{"NoteNumber":83,"Velocity":37,"Duration":107526,"SoundDuration":107526,"Delta":143295099},{"NoteNumber":66,"Velocity":28,"Duration":161290,"SoundDuration":161290,"Delta":143348863},{"NoteNumber":82,"Velocity":37,"Duration":107526,"SoundDuration":107526,"Delta":143402626},{"NoteNumber":58,"Velocity":35,"Duration":650535,"SoundDuration":650535,"Delta":143510153},{"NoteNumber":73,"Velocity":36,"Duration":112359,"SoundDuration":112359,"Delta":143622513},{"NoteNumber":66,"Velocity":29,"Duration":481996,"SoundDuration":481996,"Delta":143678692},{"NoteNumber":78,"Velocity":37,"Duration":111687,"SoundDuration":111687,"Delta":143734872},{"NoteNumber":85,"Velocity":63,"Duration":621130,"SoundDuration":621130,"Delta":143846559},{"NoteNumber":80,"Velocity":43,"Duration":104788,"SoundDuration":104788,"Delta":143952500},{"NoteNumber":78,"Velocity":37,"Duration":103400,"SoundDuration":103400,"Delta":144057289},{"NoteNumber":68,"Velocity":39,"Duration":463077,"SoundDuration":463077,"Delta":144160689},{"NoteNumber":74,"Velocity":37,"Duration":102175,"SoundDuration":102175,"Delta":144262849},{"NoteNumber":71,"Velocity":30,"Duration":468151,"SoundDuration":468151,"Delta":144314005},{"NoteNumber":78,"Velocity":39,"Duration":102664,"SoundDuration":102664,"Delta":144365025},{"NoteNumber":86,"Velocity":63,"Duration":314467,"SoundDuration":314467,"Delta":144467689},{"NoteNumber":83,"Velocity":40,"Duration":104905,"SoundDuration":104905,"Delta":144571459},{"NoteNumber":66,"Velocity":29,"Duration":158389,"SoundDuration":158389,"Delta":144623767},{"NoteNumber":82,"Velocity":40,"Duration":105792,"SoundDuration":105792,"Delta":144676364},{"NoteNumber":58,"Velocity":36,"Duration":624266,"SoundDuration":624266,"Delta":144782156},{"NoteNumber":74,"Velocity":37,"Duration":105820,"SoundDuration":105820,"Delta":144887976},{"NoteNumber":66,"Velocity":30,"Duration":465536,"SoundDuration":465536,"Delta":144940887},{"NoteNumber":78,"Velocity":38,"Duration":105695,"SoundDuration":105695,"Delta":144993797},{"NoteNumber":86,"Velocity":65,"Duration":608210,"SoundDuration":608210,"Delta":145099492},{"NoteNumber":80,"Velocity":37,"Duration":102409,"SoundDuration":102409,"Delta":145203567},{"NoteNumber":78,"Velocity":37,"Duration":100446,"SoundDuration":100446,"Delta":145305977},{"NoteNumber":68,"Velocity":40,"Duration":455852,"SoundDuration":455852,"Delta":145406423},{"NoteNumber":75,"Velocity":38,"Duration":100435,"SoundDuration":100435,"Delta":145505465},{"NoteNumber":71,"Velocity":31,"Duration":461299,"SoundDuration":461299,"Delta":145555490},{"NoteNumber":78,"Velocity":38,"Duration":101802,"SoundDuration":101802,"Delta":145605900},{"NoteNumber":87,"Velocity":64,"Duration":309086,"SoundDuration":309086,"Delta":145707703},{"NoteNumber":83,"Velocity":39,"Duration":103092,"SoundDuration":103092,"Delta":145810730},{"NoteNumber":66,"Velocity":30,"Duration":154513,"SoundDuration":154513,"Delta":145862276},{"NoteNumber":82,"Velocity":39,"Duration":102967,"SoundDuration":102967,"Delta":145913823},{"NoteNumber":63,"Velocity":31,"Duration":152489,"SoundDuration":152489,"Delta":146016790},{"NoteNumber":58,"Velocity":37,"Duration":593746,"SoundDuration":593746,"Delta":146016790},{"NoteNumber":75,"Velocity":38,"Duration":100693,"SoundDuration":100693,"Delta":146118800},{"NoteNumber":67,"Velocity":31,"Duration":149624,"SoundDuration":149624,"Delta":146169280},{"NoteNumber":79,"Velocity":39,"Duration":99410,"SoundDuration":99410,"Delta":146219493},{"NoteNumber":87,"Velocity":71,"Duration":587246,"SoundDuration":587246,"Delta":146318904},{"NoteNumber":73,"Velocity":31,"Duration":291632,"SoundDuration":291632,"Delta":146318904},{"NoteNumber":80,"Velocity":38,"Duration":96611,"SoundDuration":96611,"Delta":146417108},{"NoteNumber":79,"Velocity":38,"Duration":96817,"SoundDuration":96817,"Delta":146513719},{"NoteNumber":68,"Velocity":40,"Duration":446515,"SoundDuration":446515,"Delta":146610537},{"NoteNumber":74,"Velocity":38,"Duration":98571,"SoundDuration":98571,"Delta":146708223},{"NoteNumber":71,"Velocity":31,"Duration":451185,"SoundDuration":451185,"Delta":146757382},{"NoteNumber":76,"Velocity":38,"Duration":99355,"SoundDuration":99355,"Delta":146806795},{"NoteNumber":86,"Velocity":70,"Duration":302416,"SoundDuration":302416,"Delta":146906150},{"NoteNumber":83,"Velocity":40,"Duration":101010,"SoundDuration":101010,"Delta":147006547},{"NoteNumber":66,"Velocity":31,"Duration":151515,"SoundDuration":151515,"Delta":147057052},{"NoteNumber":82,"Velocity":40,"Duration":101010,"SoundDuration":101010,"Delta":147107557},{"NoteNumber":63,"Velocity":32,"Duration":151515,"SoundDuration":151515,"Delta":147208567},{"NoteNumber":58,"Velocity":37,"Duration":599973,"SoundDuration":599973,"Delta":147208567},{"NoteNumber":73,"Velocity":39,"Duration":101010,"SoundDuration":101010,"Delta":147309577},{"NoteNumber":67,"Velocity":32,"Duration":151216,"SoundDuration":151216,"Delta":147360082},{"NoteNumber":79,"Velocity":40,"Duration":100711,"SoundDuration":100711,"Delta":147410588},{"NoteNumber":86,"Velocity":75,"Duration":587558,"SoundDuration":587558,"Delta":147511299},{"NoteNumber":73,"Velocity":32,"Duration":297241,"SoundDuration":297241,"Delta":147511299},{"NoteNumber":80,"Velocity":39,"Duration":99078,"SoundDuration":99078,"Delta":147611169},{"NoteNumber":79,"Velocity":39,"Duration":98292,"SoundDuration":98292,"Delta":147710248},{"NoteNumber":68,"Velocity":41,"Duration":437453,"SoundDuration":437453,"Delta":147808541},{"NoteNumber":75,"Velocity":39,"Duration":96683,"SoundDuration":96683,"Delta":147905977},{"NoteNumber":71,"Velocity":32,"Duration":441688,"SoundDuration":441688,"Delta":147954386},{"NoteNumber":76,"Velocity":39,"Duration":96197,"SoundDuration":96197,"Delta":148002661},{"NoteNumber":87,"Velocity":72,"Duration":297216,"SoundDuration":297216,"Delta":148098858},{"NoteNumber":83,"Velocity":41,"Duration":99048,"SoundDuration":99048,"Delta":148196623},{"NoteNumber":66,"Velocity":31,"Duration":150080,"SoundDuration":150080,"Delta":148245994},{"NoteNumber":82,"Velocity":41,"Duration":100403,"SoundDuration":100403,"Delta":148295671},{"NoteNumber":63,"Velocity":32,"Duration":151515,"SoundDuration":151515,"Delta":148396075},{"NoteNumber":58,"Velocity":38,"Duration":596075,"SoundDuration":596075,"Delta":148396075},{"NoteNumber":75,"Velocity":40,"Duration":101010,"SoundDuration":101010,"Delta":148497085},{"NoteNumber":67,"Velocity":32,"Duration":151287,"SoundDuration":151287,"Delta":148547590},{"NoteNumber":79,"Velocity":41,"Duration":100782,"SoundDuration":100782,"Delta":148598095},{"NoteNumber":87,"Velocity":80,"Duration":584546,"SoundDuration":584546,"Delta":148698878},{"NoteNumber":73,"Velocity":32,"Duration":293272,"SoundDuration":293272,"Delta":148698878},{"NoteNumber":80,"Velocity":40,"Duration":97747,"SoundDuration":97747,"Delta":148798172},{"NoteNumber":79,"Velocity":40,"Duration":96230,"SoundDuration":96230,"Delta":148895920},{"NoteNumber":68,"Velocity":43,"Duration":438949,"SoundDuration":438949,"Delta":148992150},{"NoteNumber":76,"Velocity":40,"Duration":97083,"SoundDuration":97083,"Delta":149087823},{"NoteNumber":71,"Velocity":32,"Duration":147227,"SoundDuration":147227,"Delta":149136197},{"NoteNumber":80,"Velocity":40,"Duration":98518,"SoundDuration":98518,"Delta":149184906},{"NoteNumber":88,"Velocity":77,"Duration":295458,"SoundDuration":295458,"Delta":149283424},{"NoteNumber":74,"Velocity":32,"Duration":295458,"SoundDuration":295458,"Delta":149283424},{"NoteNumber":83,"Velocity":41,"Duration":98522,"SoundDuration":98522,"Delta":149381838},{"NoteNumber":66,"Velocity":32,"Duration":147783,"SoundDuration":147783,"Delta":149431100},{"NoteNumber":82,"Velocity":42,"Duration":98522,"SoundDuration":98522,"Delta":149480361},{"NoteNumber":63,"Velocity":33,"Duration":147783,"SoundDuration":147783,"Delta":149578883},{"NoteNumber":58,"Velocity":40,"Duration":583424,"SoundDuration":583424,"Delta":149578883},{"NoteNumber":76,"Velocity":41,"Duration":98522,"SoundDuration":98522,"Delta":149677405},{"NoteNumber":67,"Velocity":33,"Duration":147765,"SoundDuration":147765,"Delta":149726666},{"NoteNumber":79,"Velocity":42,"Duration":98504,"SoundDuration":98504,"Delta":149775927},{"NoteNumber":88,"Velocity":81,"Duration":570753,"SoundDuration":570753,"Delta":149874431},{"NoteNumber":73,"Velocity":33,"Duration":287876,"SoundDuration":287876,"Delta":149874431},{"NoteNumber":80,"Velocity":41,"Duration":95960,"SoundDuration":95960,"Delta":149971882},{"NoteNumber":79,"Velocity":41,"Duration":94465,"SoundDuration":94465,"Delta":150067842},{"NoteNumber":68,"Velocity":44,"Duration":427351,"SoundDuration":427351,"Delta":150162308},{"NoteNumber":77,"Velocity":41,"Duration":94252,"SoundDuration":94252,"Delta":150255311},{"NoteNumber":71,"Velocity":33,"Duration":142947,"SoundDuration":142947,"Delta":150302237},{"NoteNumber":80,"Velocity":41,"Duration":95621,"SoundDuration":95621,"Delta":150349564},{"NoteNumber":89,"Velocity":80,"Duration":288705,"SoundDuration":288705,"Delta":150445185},{"NoteNumber":74,"Velocity":33,"Duration":288705,"SoundDuration":288705,"Delta":150445185},{"NoteNumber":83,"Velocity":42,"Duration":96153,"SoundDuration":96153,"Delta":150541582},{"NoteNumber":66,"Velocity":32,"Duration":144230,"SoundDuration":144230,"Delta":150589659},{"NoteNumber":82,"Velocity":42,"Duration":96153,"SoundDuration":96153,"Delta":150637736},{"NoteNumber":61,"Velocity":40,"Duration":572716,"SoundDuration":572716,"Delta":150733890},{"NoteNumber":66,"Velocity":33,"Duration":144230,"SoundDuration":144230,"Delta":150733890},{"NoteNumber":58,"Velocity":40,"Duration":572716,"SoundDuration":572716,"Delta":150733890},{"NoteNumber":77,"Velocity":41,"Duration":96153,"SoundDuration":96153,"Delta":150830044},{"NoteNumber":73,"Velocity":34,"Duration":428485,"SoundDuration":428485,"Delta":150878121},{"NoteNumber":80,"Velocity":43,"Duration":96136,"SoundDuration":96136,"Delta":150926198},{"NoteNumber":89,"Velocity":86,"Duration":566913,"SoundDuration":566913,"Delta":151022334},{"NoteNumber":82,"Velocity":42,"Duration":94753,"SoundDuration":94753,"Delta":151117812},{"NoteNumber":80,"Velocity":42,"Duration":94041,"SoundDuration":94041,"Delta":151212565},{"NoteNumber":75,"Velocity":46,"Duration":426802,"SoundDuration":426802,"Delta":151306606},{"NoteNumber":66,"Velocity":46,"Duration":426802,"SoundDuration":426802,"Delta":151306606},{"NoteNumber":78,"Velocity":42,"Duration":94207,"SoundDuration":94207,"Delta":151399880},{"NoteNumber":70,"Velocity":36,"Duration":430795,"SoundDuration":430795,"Delta":151446845},{"NoteNumber":82,"Velocity":42,"Duration":95160,"SoundDuration":95160,"Delta":151494088},{"NoteNumber":90,"Velocity":80,"Duration":288392,"SoundDuration":288392,"Delta":151589248},{"NoteNumber":83,"Velocity":43,"Duration":96153,"SoundDuration":96153,"Delta":151685332},{"NoteNumber":73,"Velocity":35,"Duration":144230,"SoundDuration":144230,"Delta":151733409},{"NoteNumber":82,"Velocity":43,"Duration":96153,"SoundDuration":96153,"Delta":151781486},{"NoteNumber":63,"Velocity":44,"Duration":571424,"SoundDuration":571424,"Delta":151877640},{"NoteNumber":66,"Velocity":37,"Duration":144230,"SoundDuration":144230,"Delta":151877640},{"NoteNumber":58,"Velocity":44,"Duration":571424,"SoundDuration":571424,"Delta":151877640},{"NoteNumber":78,"Velocity":42,"Duration":96153,"SoundDuration":96153,"Delta":151973794},{"NoteNumber":75,"Velocity":38,"Duration":427193,"SoundDuration":427193,"Delta":152021871},{"NoteNumber":83,"Velocity":44,"Duration":95544,"SoundDuration":95544,"Delta":152069948},{"NoteNumber":90,"Velocity":86,"Duration":564766,"SoundDuration":564766,"Delta":152165493},{"NoteNumber":85,"Velocity":42,"Duration":94546,"SoundDuration":94546,"Delta":152260839},{"NoteNumber":83,"Velocity":43,"Duration":93678,"SoundDuration":93678,"Delta":152355386},{"NoteNumber":77,"Velocity":51,"Duration":424735,"SoundDuration":424735,"Delta":152449064},{"NoteNumber":68,"Velocity":51,"Duration":424735,"SoundDuration":424735,"Delta":152449064},{"NoteNumber":80,"Velocity":43,"Duration":93727,"SoundDuration":93727,"Delta":152541637},{"NoteNumber":71,"Velocity":39,"Duration":428996,"SoundDuration":428996,"Delta":152588344},{"NoteNumber":85,"Velocity":43,"Duration":94895,"SoundDuration":94895,"Delta":152635364},{"NoteNumber":92,"Velocity":83,"Duration":287081,"SoundDuration":287081,"Delta":152730259},{"NoteNumber":87,"Velocity":44,"Duration":95693,"SoundDuration":95693,"Delta":152825953},{"NoteNumber":75,"Velocity":39,"Duration":143540,"SoundDuration":143540,"Delta":152873800},{"NoteNumber":85,"Velocity":44,"Duration":95693,"SoundDuration":95693,"Delta":152921647},{"NoteNumber":65,"Velocity":49,"Duration":568745,"SoundDuration":568745,"Delta":153017341},{"NoteNumber":68,"Velocity":40,"Duration":143540,"SoundDuration":143540,"Delta":153017341},{"NoteNumber":58,"Velocity":49,"Duration":568745,"SoundDuration":568745,"Delta":153017341},{"NoteNumber":80,"Velocity":43,"Duration":95693,"SoundDuration":95693,"Delta":153113035},{"NoteNumber":77,"Velocity":41,"Duration":425204,"SoundDuration":425204,"Delta":153160882},{"NoteNumber":83,"Velocity":44,"Duration":95420,"SoundDuration":95420,"Delta":153208729},{"NoteNumber":92,"Velocity":83,"Duration":567264,"SoundDuration":567264,"Delta":153304149},{"NoteNumber":89,"Velocity":43,"Duration":94018,"SoundDuration":94018,"Delta":153398875},{"NoteNumber":87,"Velocity":43,"Duration":93192,"SoundDuration":93192,"Delta":153492893},{"NoteNumber":78,"Velocity":55,"Duration":420543,"SoundDuration":420543,"Delta":153586086},{"NoteNumber":69,"Velocity":55,"Duration":420543,"SoundDuration":420543,"Delta":153586086},{"NoteNumber":81,"Velocity":43,"Duration":95224,"SoundDuration":95224,"Delta":153679503},{"NoteNumber":72,"Velocity":43,"Duration":417834,"SoundDuration":417834,"Delta":153726874},{"NoteNumber":87,"Velocity":44,"Duration":96686,"SoundDuration":96686,"Delta":153774728},{"NoteNumber":93,"Velocity":79,"Duration":273294,"SoundDuration":273294,"Delta":153871414},{"NoteNumber":89,"Velocity":45,"Duration":91087,"SoundDuration":91087,"Delta":153961273},{"NoteNumber":77,"Velocity":43,"Duration":138079,"SoundDuration":138079,"Delta":154006629},{"NoteNumber":87,"Velocity":45,"Duration":92348,"SoundDuration":92348,"Delta":154052360},{"NoteNumber":70,"Velocity":79,"Duration":573244,"SoundDuration":573244,"Delta":154144709},{"NoteNumber":85,"Velocity":74,"Duration":93023,"SoundDuration":93023,"Delta":154237732},{"NoteNumber":76,"Velocity":56,"Duration":139535,"SoundDuration":139535,"Delta":154284244},{"NoteNumber":86,"Velocity":71,"Duration":93023,"SoundDuration":93023,"Delta":154330755},{"NoteNumber":89,"Velocity":76,"Duration":93023,"SoundDuration":93023,"Delta":154423779},{"NoteNumber":82,"Velocity":56,"Duration":139534,"SoundDuration":139534,"Delta":154423779},{"NoteNumber":94,"Velocity":81,"Duration":98058,"SoundDuration":98058,"Delta":154516802},{"NoteNumber":77,"Velocity":56,"Duration":154639,"SoundDuration":154639,"Delta":154563314},{"NoteNumber":101,"Velocity":86,"Duration":103092,"SoundDuration":103092,"Delta":154614860},{"NoteNumber":67,"Velocity":74,"Duration":565181,"SoundDuration":565181,"Delta":154717953},{"NoteNumber":84,"Velocity":56,"Duration":92592,"SoundDuration":92592,"Delta":154810546},{"NoteNumber":75,"Velocity":48,"Duration":138889,"SoundDuration":138889,"Delta":154856842},{"NoteNumber":85,"Velocity":56,"Duration":92592,"SoundDuration":92592,"Delta":154903138},{"NoteNumber":93,"Velocity":75,"Duration":92592,"SoundDuration":92592,"Delta":154995731},{"NoteNumber":88,"Velocity":65,"Duration":92592,"SoundDuration":92592,"Delta":154995731},{"NoteNumber":76,"Velocity":48,"Duration":138888,"SoundDuration":138888,"Delta":154995731},{"NoteNumber":81,"Velocity":56,"Duration":95801,"SoundDuration":95801,"Delta":155088324},{"NoteNumber":75,"Velocity":48,"Duration":148514,"SoundDuration":148514,"Delta":155134620},{"NoteNumber":85,"Velocity":57,"Duration":99009,"SoundDuration":99009,"Delta":155184125},{"NoteNumber":66,"Velocity":74,"Duration":561805,"SoundDuration":561805,"Delta":155283135},{"NoteNumber":83,"Velocity":56,"Duration":92165,"SoundDuration":92165,"Delta":155375300},{"NoteNumber":74,"Velocity":52,"Duration":138248,"SoundDuration":138248,"Delta":155421383},{"NoteNumber":84,"Velocity":56,"Duration":92165,"SoundDuration":92165,"Delta":155467466},{"NoteNumber":92,"Velocity":75,"Duration":92165,"SoundDuration":92165,"Delta":155559632},{"NoteNumber":87,"Velocity":65,"Duration":92165,"SoundDuration":92165,"Delta":155559632},{"NoteNumber":75,"Velocity":52,"Duration":138248,"SoundDuration":138248,"Delta":155559632},{"NoteNumber":80,"Velocity":56,"Duration":95102,"SoundDuration":95102,"Delta":155651798},{"NoteNumber":72,"Velocity":53,"Duration":147058,"SoundDuration":147058,"Delta":155697881},{"NoteNumber":84,"Velocity":56,"Duration":98039,"SoundDuration":98039,"Delta":155746900},{"NoteNumber":56,"Velocity":69,"Duration":568182,"SoundDuration":568182,"Delta":155844940},{"NoteNumber":65,"Velocity":74,"Duration":568182,"SoundDuration":568182,"Delta":155844940},{"NoteNumber":71,"Velocity":54,"Duration":92592,"SoundDuration":92592,"Delta":155937532},{"NoteNumber":69,"Velocity":52,"Duration":138889,"SoundDuration":138889,"Delta":155983829},{"NoteNumber":77,"Velocity":56,"Duration":92592,"SoundDuration":92592,"Delta":156030125},{"NoteNumber":85,"Velocity":75,"Duration":92592,"SoundDuration":92592,"Delta":156122718},{"NoteNumber":74,"Velocity":52,"Duration":138888,"SoundDuration":138888,"Delta":156122718},{"NoteNumber":78,"Velocity":55,"Duration":96801,"SoundDuration":96801,"Delta":156215310},{"NoteNumber":68,"Velocity":53,"Duration":151515,"SoundDuration":151515,"Delta":156261607},{"NoteNumber":77,"Velocity":55,"Duration":101010,"SoundDuration":101010,"Delta":156312112},{"NoteNumber":64,"Velocity":74,"Duration":564000,"SoundDuration":564000,"Delta":156413122},{"NoteNumber":71,"Velocity":55,"Duration":92165,"SoundDuration":92165,"Delta":156505288},{"NoteNumber":67,"Velocity":49,"Duration":138248,"SoundDuration":138248,"Delta":156551371},{"NoteNumber":72,"Velocity":56,"Duration":92165,"SoundDuration":92165,"Delta":156597454},{"NoteNumber":76,"Velocity":65,"Duration":92165,"SoundDuration":92165,"Delta":156689619},{"NoteNumber":82,"Velocity":75,"Duration":92165,"SoundDuration":92165,"Delta":156689619},{"NoteNumber":73,"Velocity":49,"Duration":287502,"SoundDuration":287502,"Delta":156689619},{"NoteNumber":69,"Velocity":56,"Duration":95834,"SoundDuration":95834,"Delta":156781785},{"NoteNumber":76,"Velocity":56,"Duration":99502,"SoundDuration":99502,"Delta":156877619},{"NoteNumber":56,"Velocity":69,"Duration":568605,"SoundDuration":568605,"Delta":156977122},{"NoteNumber":63,"Velocity":74,"Duration":568605,"SoundDuration":568605,"Delta":156977122},{"NoteNumber":70,"Velocity":56,"Duration":93023,"SoundDuration":93023,"Delta":157070145},{"NoteNumber":66,"Velocity":52,"Duration":139534,"SoundDuration":139534,"Delta":157116657},{"NoteNumber":71,"Velocity":57,"Duration":93023,"SoundDuration":93023,"Delta":157163169},{"NoteNumber":75,"Velocity":65,"Duration":93023,"SoundDuration":93023,"Delta":157256192},{"NoteNumber":80,"Velocity":75,"Duration":93023,"SoundDuration":93023,"Delta":157256192},{"NoteNumber":72,"Velocity":52,"Duration":289535,"SoundDuration":289535,"Delta":157256192},{"NoteNumber":68,"Velocity":55,"Duration":96511,"SoundDuration":96511,"Delta":157349215},{"NoteNumber":75,"Velocity":65,"Duration":99999,"SoundDuration":99999,"Delta":157445727},{"NoteNumber":54,"Velocity":69,"Duration":273972,"SoundDuration":273972,"Delta":157545727},{"NoteNumber":57,"Velocity":69,"Duration":561712,"SoundDuration":561712,"Delta":157545727},{"NoteNumber":62,"Velocity":74,"Duration":561712,"SoundDuration":561712,"Delta":157545727},{"NoteNumber":73,"Velocity":62,"Duration":91324,"SoundDuration":91324,"Delta":157637051},{"NoteNumber":69,"Velocity":62,"Duration":91324,"SoundDuration":91324,"Delta":157637051},{"NoteNumber":68,"Velocity":54,"Duration":91324,"SoundDuration":91324,"Delta":157728375},{"NoteNumber":66,"Velocity":54,"Duration":91324,"SoundDuration":91324,"Delta":157819699},{"NoteNumber":44,"Velocity":49,"Duration":287739,"SoundDuration":287739,"Delta":157819699},{"NoteNumber":64,"Velocity":54,"Duration":95913,"SoundDuration":95913,"Delta":157911024},{"NoteNumber":62,"Velocity":53,"Duration":100502,"SoundDuration":100502,"Delta":158006937},{"NoteNumber":53,"Velocity":69,"Duration":556874,"SoundDuration":556874,"Delta":158107439},{"NoteNumber":61,"Velocity":74,"Duration":556874,"SoundDuration":556874,"Delta":158107439},{"NoteNumber":60,"Velocity":52,"Duration":90909,"SoundDuration":90909,"Delta":158198349},{"NoteNumber":61,"Velocity":52,"Duration":90909,"SoundDuration":90909,"Delta":158289258},{"NoteNumber":65,"Velocity":53,"Duration":90909,"SoundDuration":90909,"Delta":158380167},{"NoteNumber":69,"Velocity":63,"Duration":90909,"SoundDuration":90909,"Delta":158380167},{"NoteNumber":44,"Velocity":51,"Duration":284146,"SoundDuration":284146,"Delta":158380167},{"NoteNumber":57,"Velocity":49,"Duration":94715,"SoundDuration":94715,"Delta":158471076},{"NoteNumber":61,"Velocity":50,"Duration":98522,"SoundDuration":98522,"Delta":158565792},{"NoteNumber":52,"Velocity":65,"Duration":555432,"SoundDuration":555432,"Delta":158664314},{"NoteNumber":59,"Velocity":74,"Duration":555432,"SoundDuration":555432,"Delta":158664314},{"NoteNumber":62,"Velocity":51,"Duration":90909,"SoundDuration":90909,"Delta":158755223},{"NoteNumber":63,"Velocity":51,"Duration":90909,"SoundDuration":90909,"Delta":158846132},{"NoteNumber":64,"Velocity":53,"Duration":90909,"SoundDuration":90909,"Delta":158937041},{"NoteNumber":68,"Velocity":63,"Duration":90909,"SoundDuration":90909,"Delta":158937041},{"NoteNumber":44,"Velocity":52,"Duration":282705,"SoundDuration":282705,"Delta":158937041},{"NoteNumber":63,"Velocity":49,"Duration":94235,"SoundDuration":94235,"Delta":159027951},{"NoteNumber":62,"Velocity":50,"Duration":97561,"SoundDuration":97561,"Delta":159122186},{"NoteNumber":51,"Velocity":69,"Duration":553581,"SoundDuration":553581,"Delta":159219747},{"NoteNumber":58,"Velocity":73,"Duration":553581,"SoundDuration":553581,"Delta":159219747},{"NoteNumber":54,"Velocity":51,"Duration":90497,"SoundDuration":90497,"Delta":159310244},{"NoteNumber":55,"Velocity":51,"Duration":90497,"SoundDuration":90497,"Delta":159400742},{"NoteNumber":61,"Velocity":63,"Duration":90497,"SoundDuration":90497,"Delta":159491240},{"NoteNumber":32,"Velocity":52,"Duration":282088,"SoundDuration":282088,"Delta":159491240},{"NoteNumber":55,"Velocity":50,"Duration":94029,"SoundDuration":94029,"Delta":159581737},{"NoteNumber":54,"Velocity":50,"Duration":97561,"SoundDuration":97561,"Delta":159675767},{"NoteNumber":45,"Velocity":69,"Duration":272727,"SoundDuration":272727,"Delta":159773328},{"NoteNumber":49,"Velocity":66,"Duration":554722,"SoundDuration":554722,"Delta":159773328},{"NoteNumber":57,"Velocity":77,"Duration":554722,"SoundDuration":554722,"Delta":159773328},{"NoteNumber":53,"Velocity":50,"Duration":90909,"SoundDuration":90909,"Delta":159864237},{"NoteNumber":54,"Velocity":50,"Duration":90909,"SoundDuration":90909,"Delta":159955146},{"NoteNumber":61,"Velocity":63,"Duration":90909,"SoundDuration":90909,"Delta":160046055},{"NoteNumber":32,"Velocity":51,"Duration":281994,"SoundDuration":281994,"Delta":160046055},{"NoteNumber":56,"Velocity":48,"Duration":93998,"SoundDuration":93998,"Delta":160136964},{"NoteNumber":54,"Velocity":48,"Duration":97087,"SoundDuration":97087,"Delta":160230963},{"NoteNumber":44,"Velocity":69,"Duration":271492,"SoundDuration":271492,"Delta":160328050},{"NoteNumber":49,"Velocity":65,"Duration":553581,"SoundDuration":553581,"Delta":160328050},{"NoteNumber":56,"Velocity":79,"Duration":553581,"SoundDuration":553581,"Delta":160328050},{"NoteNumber":51,"Velocity":50,"Duration":90497,"SoundDuration":90497,"Delta":160418548},{"NoteNumber":52,"Velocity":50,"Duration":90497,"SoundDuration":90497,"Delta":160509045},{"NoteNumber":59,"Velocity":63,"Duration":90497,"SoundDuration":90497,"Delta":160599543},{"NoteNumber":32,"Velocity":51,"Duration":282088,"SoundDuration":282088,"Delta":160599543},{"NoteNumber":54,"Velocity":47,"Duration":94029,"SoundDuration":94029,"Delta":160690041},{"NoteNumber":52,"Velocity":47,"Duration":97561,"SoundDuration":97561,"Delta":160784070},{"NoteNumber":33,"Velocity":74,"Duration":2394149,"SoundDuration":2394149,"Delta":160881631},{"NoteNumber":45,"Velocity":83,"Duration":975124,"SoundDuration":975124,"Delta":160881631},{"NoteNumber":49,"Velocity":74,"Duration":398009,"SoundDuration":398009,"Delta":160881631},{"NoteNumber":54,"Velocity":55,"Duration":179104,"SoundDuration":179104,"Delta":161279641},{"NoteNumber":61,"Velocity":65,"Duration":179104,"SoundDuration":179104,"Delta":161279641},{"NoteNumber":42,"Velocity":37,"Duration":179104,"SoundDuration":179104,"Delta":161279641},{"NoteNumber":49,"Velocity":37,"Duration":179104,"SoundDuration":179104,"Delta":161279641},{"NoteNumber":51,"Velocity":44,"Duration":179104,"SoundDuration":179104,"Delta":161279641},{"NoteNumber":54,"Velocity":62,"Duration":179104,"SoundDuration":179104,"Delta":161478646},{"NoteNumber":61,"Velocity":74,"Duration":179104,"SoundDuration":179104,"Delta":161478646},{"NoteNumber":42,"Velocity":45,"Duration":179104,"SoundDuration":179104,"Delta":161478646},{"NoteNumber":49,"Velocity":45,"Duration":179104,"SoundDuration":179104,"Delta":161478646},{"NoteNumber":51,"Velocity":53,"Duration":179104,"SoundDuration":179104,"Delta":161478646},{"NoteNumber":61,"Velocity":56,"Duration":179104,"SoundDuration":179104,"Delta":161677651},{"NoteNumber":63,"Velocity":67,"Duration":179104,"SoundDuration":179104,"Delta":161677651},{"NoteNumber":45,"Velocity":35,"Duration":378109,"SoundDuration":378109,"Delta":161677651},{"NoteNumber":49,"Velocity":35,"Duration":179104,"SoundDuration":179104,"Delta":161677651},{"NoteNumber":54,"Velocity":42,"Duration":179104,"SoundDuration":179104,"Delta":161677651},{"NoteNumber":61,"Velocity":56,"Duration":179104,"SoundDuration":179104,"Delta":161876656},{"NoteNumber":63,"Velocity":67,"Duration":179104,"SoundDuration":179104,"Delta":161876656},{"NoteNumber":45,"Velocity":35,"Duration":379022,"SoundDuration":379022,"Delta":161876656},{"NoteNumber":49,"Velocity":35,"Duration":179104,"SoundDuration":179104,"Delta":161876656},{"NoteNumber":54,"Velocity":42,"Duration":179104,"SoundDuration":179104,"Delta":161876656},{"NoteNumber":61,"Velocity":62,"Duration":180017,"SoundDuration":180017,"Delta":162075661},{"NoteNumber":63,"Velocity":74,"Duration":180017,"SoundDuration":180017,"Delta":162075661},{"NoteNumber":45,"Velocity":45,"Duration":1200119,"SoundDuration":1200119,"Delta":162075661},{"NoteNumber":49,"Velocity":45,"Duration":1080107,"SoundDuration":1080107,"Delta":162075661},{"NoteNumber":54,"Velocity":53,"Duration":180017,"SoundDuration":180017,"Delta":162075661},{"NoteNumber":63,"Velocity":56,"Duration":180018,"SoundDuration":180018,"Delta":162275681},{"NoteNumber":66,"Velocity":66,"Duration":180018,"SoundDuration":180018,"Delta":162275681},{"NoteNumber":51,"Velocity":39,"Duration":180018,"SoundDuration":180018,"Delta":162275681},{"NoteNumber":54,"Velocity":39,"Duration":180018,"SoundDuration":180018,"Delta":162275681},{"NoteNumber":61,"Velocity":46,"Duration":180018,"SoundDuration":180018,"Delta":162275681},{"NoteNumber":63,"Velocity":56,"Duration":180018,"SoundDuration":180018,"Delta":162475701},{"NoteNumber":66,"Velocity":66,"Duration":180018,"SoundDuration":180018,"Delta":162475701},{"NoteNumber":51,"Velocity":39,"Duration":180018,"SoundDuration":180018,"Delta":162475701},{"NoteNumber":54,"Velocity":39,"Duration":180018,"SoundDuration":180018,"Delta":162475701},{"NoteNumber":61,"Velocity":46,"Duration":180018,"SoundDuration":180018,"Delta":162475701},{"NoteNumber":61,"Velocity":62,"Duration":180017,"SoundDuration":180017,"Delta":162675721},{"NoteNumber":66,"Velocity":74,"Duration":180017,"SoundDuration":180017,"Delta":162675721},{"NoteNumber":51,"Velocity":45,"Duration":180017,"SoundDuration":180017,"Delta":162675721},{"NoteNumber":54,"Velocity":45,"Duration":180017,"SoundDuration":180017,"Delta":162675721},{"NoteNumber":61,"Velocity":53,"Duration":180017,"SoundDuration":180017,"Delta":162675721},{"NoteNumber":66,"Velocity":56,"Duration":180017,"SoundDuration":180017,"Delta":162875741},{"NoteNumber":73,"Velocity":67,"Duration":180017,"SoundDuration":180017,"Delta":162875741},{"NoteNumber":54,"Velocity":39,"Duration":180017,"SoundDuration":180017,"Delta":162875741},{"NoteNumber":61,"Velocity":39,"Duration":180017,"SoundDuration":180017,"Delta":162875741},{"NoteNumber":63,"Velocity":46,"Duration":180017,"SoundDuration":180017,"Delta":162875741},{"NoteNumber":66,"Velocity":56,"Duration":180017,"SoundDuration":180017,"Delta":163075761},{"NoteNumber":73,"Velocity":67,"Duration":180017,"SoundDuration":180017,"Delta":163075761},{"NoteNumber":54,"Velocity":39,"Duration":180017,"SoundDuration":180017,"Delta":163075761},{"NoteNumber":61,"Velocity":39,"Duration":180017,"SoundDuration":180017,"Delta":163075761},{"NoteNumber":63,"Velocity":46,"Duration":180017,"SoundDuration":180017,"Delta":163075761},{"NoteNumber":73,"Velocity":76,"Duration":418891,"SoundDuration":418891,"Delta":163275781},{"NoteNumber":61,"Velocity":62,"Duration":188501,"SoundDuration":188501,"Delta":163275781},{"NoteNumber":63,"Velocity":62,"Duration":188501,"SoundDuration":188501,"Delta":163275781},{"NoteNumber":66,"Velocity":74,"Duration":188501,"SoundDuration":188501,"Delta":163275781},{"NoteNumber":32,"Velocity":65,"Duration":1284822,"SoundDuration":1284822,"Delta":163275781},{"NoteNumber":44,"Velocity":75,"Duration":1284822,"SoundDuration":1284822,"Delta":163275781},{"NoteNumber":63,"Velocity":56,"Duration":188501,"SoundDuration":188501,"Delta":163485227},{"NoteNumber":66,"Velocity":66,"Duration":188501,"SoundDuration":188501,"Delta":163485227},{"NoteNumber":51,"Velocity":39,"Duration":188501,"SoundDuration":188501,"Delta":163485227},{"NoteNumber":54,"Velocity":39,"Duration":188501,"SoundDuration":188501,"Delta":163485227},{"NoteNumber":61,"Velocity":46,"Duration":188501,"SoundDuration":188501,"Delta":163485227},{"NoteNumber":75,"Velocity":77,"Duration":209446,"SoundDuration":209446,"Delta":163694673},{"NoteNumber":66,"Velocity":56,"Duration":188501,"SoundDuration":188501,"Delta":163694673},{"NoteNumber":73,"Velocity":66,"Duration":209446,"SoundDuration":209446,"Delta":163694673},{"NoteNumber":54,"Velocity":39,"Duration":188501,"SoundDuration":188501,"Delta":163694673},{"NoteNumber":61,"Velocity":39,"Duration":188501,"SoundDuration":188501,"Delta":163694673},{"NoteNumber":63,"Velocity":46,"Duration":188501,"SoundDuration":188501,"Delta":163694673},{"NoteNumber":80,"Velocity":82,"Duration":2124969,"SoundDuration":2124969,"Delta":163904119},{"NoteNumber":73,"Velocity":62,"Duration":196721,"SoundDuration":196721,"Delta":163904119},{"NoteNumber":66,"Velocity":62,"Duration":196721,"SoundDuration":196721,"Delta":163904119},{"NoteNumber":75,"Velocity":67,"Duration":196721,"SoundDuration":196721,"Delta":163904119},{"NoteNumber":58,"Velocity":42,"Duration":1358760,"SoundDuration":1358760,"Delta":163904119},{"NoteNumber":61,"Velocity":45,"Duration":196721,"SoundDuration":196721,"Delta":163904119},{"NoteNumber":70,"Velocity":62,"Duration":1358760,"SoundDuration":1358760,"Delta":163904119},{"NoteNumber":73,"Velocity":62,"Duration":196721,"SoundDuration":196721,"Delta":164122698},{"NoteNumber":66,"Velocity":56,"Duration":196721,"SoundDuration":196721,"Delta":164122698},{"NoteNumber":75,"Velocity":67,"Duration":196721,"SoundDuration":196721,"Delta":164122698},{"NoteNumber":54,"Velocity":39,"Duration":196721,"SoundDuration":196721,"Delta":164122698},{"NoteNumber":61,"Velocity":39,"Duration":196721,"SoundDuration":196721,"Delta":164122698},{"NoteNumber":63,"Velocity":46,"Duration":196721,"SoundDuration":196721,"Delta":164122698},{"NoteNumber":73,"Velocity":62,"Duration":196853,"SoundDuration":196853,"Delta":164341278},{"NoteNumber":66,"Velocity":56,"Duration":196853,"SoundDuration":196853,"Delta":164341278},{"NoteNumber":75,"Velocity":67,"Duration":196853,"SoundDuration":196853,"Delta":164341278},{"NoteNumber":54,"Velocity":39,"Duration":196853,"SoundDuration":196853,"Delta":164341278},{"NoteNumber":61,"Velocity":39,"Duration":196853,"SoundDuration":196853,"Delta":164341278},{"NoteNumber":63,"Velocity":46,"Duration":196853,"SoundDuration":196853,"Delta":164341278},{"NoteNumber":66,"Velocity":62,"Duration":204562,"SoundDuration":204562,"Delta":164560603},{"NoteNumber":72,"Velocity":62,"Duration":204562,"SoundDuration":204562,"Delta":164560603},{"NoteNumber":75,"Velocity":74,"Duration":204562,"SoundDuration":204562,"Delta":164560603},{"NoteNumber":32,"Velocity":67,"Duration":1468484,"SoundDuration":1468484,"Delta":164560603},{"NoteNumber":44,"Velocity":75,"Duration":204562,"SoundDuration":204562,"Delta":164560603},{"NoteNumber":66,"Velocity":55,"Duration":210273,"SoundDuration":210273,"Delta":164788246},{"NoteNumber":72,"Velocity":56,"Duration":210273,"SoundDuration":210273,"Delta":164788246},{"NoteNumber":75,"Velocity":66,"Duration":210273,"SoundDuration":210273,"Delta":164788246},{"NoteNumber":44,"Velocity":39,"Duration":1240842,"SoundDuration":1240842,"Delta":164788246},{"NoteNumber":54,"Velocity":39,"Duration":210273,"SoundDuration":210273,"Delta":164788246},{"NoteNumber":60,"Velocity":46,"Duration":210273,"SoundDuration":210273,"Delta":164788246},{"NoteNumber":66,"Velocity":54,"Duration":240692,"SoundDuration":240692,"Delta":165022188},{"NoteNumber":72,"Velocity":56,"Duration":488409,"SoundDuration":488409,"Delta":165022188},{"NoteNumber":75,"Velocity":66,"Duration":488409,"SoundDuration":488409,"Delta":165022188},{"NoteNumber":54,"Velocity":39,"Duration":216301,"SoundDuration":216301,"Delta":165022188},{"NoteNumber":60,"Velocity":39,"Duration":216301,"SoundDuration":216301,"Delta":165022188},{"NoteNumber":63,"Velocity":46,"Duration":216301,"SoundDuration":216301,"Delta":165022188},{"NoteNumber":56,"Velocity":56,"Duration":766208,"SoundDuration":766208,"Delta":165262880},{"NoteNumber":68,"Velocity":77,"Duration":766208,"SoundDuration":766208,"Delta":165262880},{"NoteNumber":66,"Velocity":54,"Duration":229386,"SoundDuration":229386,"Delta":165510598},{"NoteNumber":72,"Velocity":56,"Duration":229386,"SoundDuration":229386,"Delta":165510598},{"NoteNumber":75,"Velocity":67,"Duration":229386,"SoundDuration":229386,"Delta":165510598},{"NoteNumber":54,"Velocity":39,"Duration":229386,"SoundDuration":229386,"Delta":165510598},{"NoteNumber":60,"Velocity":39,"Duration":229386,"SoundDuration":229386,"Delta":165510598},{"NoteNumber":63,"Velocity":46,"Duration":229386,"SoundDuration":229386,"Delta":165510598},{"NoteNumber":66,"Velocity":54,"Duration":236574,"SoundDuration":236574,"Delta":165765791},{"NoteNumber":72,"Velocity":56,"Duration":236574,"SoundDuration":236574,"Delta":165765791},{"NoteNumber":75,"Velocity":67,"Duration":236574,"SoundDuration":236574,"Delta":165765791},{"NoteNumber":54,"Velocity":39,"Duration":236574,"SoundDuration":236574,"Delta":165765791},{"NoteNumber":60,"Velocity":39,"Duration":236574,"SoundDuration":236574,"Delta":165765791},{"NoteNumber":63,"Velocity":46,"Duration":236574,"SoundDuration":236574,"Delta":165765791},{"NoteNumber":53,"Velocity":67,"Duration":408246,"SoundDuration":408246,"Delta":166029088},{"NoteNumber":61,"Velocity":79,"Duration":918554,"SoundDuration":918554,"Delta":166029088},{"NoteNumber":25,"Velocity":47,"Duration":408246,"SoundDuration":408246,"Delta":166029088},{"NoteNumber":37,"Velocity":59,"Duration":408246,"SoundDuration":408246,"Delta":166029088},{"NoteNumber":53,"Velocity":48,"Duration":204123,"SoundDuration":204123,"Delta":166437335},{"NoteNumber":44,"Velocity":31,"Duration":204123,"SoundDuration":204123,"Delta":166437335},{"NoteNumber":49,"Velocity":38,"Duration":204123,"SoundDuration":204123,"Delta":166437335},{"NoteNumber":65,"Velocity":48,"Duration":204123,"SoundDuration":204123,"Delta":166641458},{"NoteNumber":56,"Velocity":44,"Duration":204123,"SoundDuration":204123,"Delta":166641458},{"NoteNumber":63,"Velocity":48,"Duration":190572,"SoundDuration":190572,"Delta":166845581},{"NoteNumber":51,"Velocity":31,"Duration":190572,"SoundDuration":190572,"Delta":166845581},{"NoteNumber":56,"Velocity":38,"Duration":190572,"SoundDuration":190572,"Delta":166845581},{"NoteNumber":68,"Velocity":80,"Duration":265533,"SoundDuration":265533,"Delta":166947643},{"NoteNumber":65,"Velocity":48,"Duration":177022,"SoundDuration":177022,"Delta":167036154},{"NoteNumber":53,"Velocity":51,"Duration":177022,"SoundDuration":177022,"Delta":167036154},{"NoteNumber":68,"Velocity":67,"Duration":868025,"SoundDuration":868025,"Delta":167213177},{"NoteNumber":65,"Velocity":67,"Duration":868025,"SoundDuration":868025,"Delta":167213177},{"NoteNumber":73,"Velocity":81,"Duration":2281753,"SoundDuration":2281753,"Delta":167213177},{"NoteNumber":53,"Velocity":57,"Duration":400080,"SoundDuration":400080,"Delta":167213177},{"NoteNumber":56,"Velocity":57,"Duration":400080,"SoundDuration":400080,"Delta":167213177},{"NoteNumber":61,"Velocity":68,"Duration":400080,"SoundDuration":400080,"Delta":167213177},{"NoteNumber":25,"Velocity":47,"Duration":180036,"SoundDuration":180036,"Delta":167613257},{"NoteNumber":37,"Velocity":56,"Duration":180036,"SoundDuration":180036,"Delta":167613257},{"NoteNumber":25,"Velocity":50,"Duration":178603,"SoundDuration":178603,"Delta":167813297},{"NoteNumber":37,"Velocity":60,"Duration":178603,"SoundDuration":178603,"Delta":167813297},{"NoteNumber":32,"Velocity":53,"Duration":178603,"SoundDuration":178603,"Delta":167991900},{"NoteNumber":44,"Velocity":63,"Duration":178603,"SoundDuration":178603,"Delta":167991900},{"NoteNumber":56,"Velocity":52,"Duration":265672,"SoundDuration":265672,"Delta":168081202},{"NoteNumber":61,"Velocity":52,"Duration":265672,"SoundDuration":265672,"Delta":168081202},{"NoteNumber":65,"Velocity":62,"Duration":265672,"SoundDuration":265672,"Delta":168081202},{"NoteNumber":37,"Velocity":56,"Duration":178603,"SoundDuration":178603,"Delta":168170503},{"NoteNumber":49,"Velocity":66,"Duration":178603,"SoundDuration":178603,"Delta":168170503},{"NoteNumber":60,"Velocity":59,"Duration":566774,"SoundDuration":566774,"Delta":168349107},{"NoteNumber":61,"Velocity":59,"Duration":566774,"SoundDuration":566774,"Delta":168349107},{"NoteNumber":68,"Velocity":77,"Duration":566774,"SoundDuration":566774,"Delta":168349107},{"NoteNumber":37,"Velocity":79,"Duration":2316844,"SoundDuration":2316844,"Delta":168349107},{"NoteNumber":49,"Velocity":79,"Duration":190512,"SoundDuration":190512,"Delta":168349107},{"NoteNumber":41,"Velocity":58,"Duration":190512,"SoundDuration":190512,"Delta":168539619},{"NoteNumber":42,"Velocity":58,"Duration":190512,"SoundDuration":190512,"Delta":168730132},{"NoteNumber":59,"Velocity":52,"Duration":569477,"SoundDuration":569477,"Delta":168920644},{"NoteNumber":61,"Velocity":52,"Duration":569477,"SoundDuration":569477,"Delta":168920644},{"NoteNumber":67,"Velocity":68,"Duration":569477,"SoundDuration":569477,"Delta":168920644},{"NoteNumber":43,"Velocity":59,"Duration":190512,"SoundDuration":190512,"Delta":168920644},{"NoteNumber":44,"Velocity":60,"Duration":191428,"SoundDuration":191428,"Delta":169111157},{"NoteNumber":45,"Velocity":60,"Duration":192344,"SoundDuration":192344,"Delta":169302585},{"NoteNumber":58,"Velocity":56,"Duration":556178,"SoundDuration":556178,"Delta":169494930},{"NoteNumber":61,"Velocity":56,"Duration":556178,"SoundDuration":556178,"Delta":169494930},{"NoteNumber":66,"Velocity":72,"Duration":556178,"SoundDuration":556178,"Delta":169494930},{"NoteNumber":68,"Velocity":66,"Duration":1171021,"SoundDuration":1171021,"Delta":169494930},{"NoteNumber":46,"Velocity":61,"Duration":186950,"SoundDuration":186950,"Delta":169494930},{"NoteNumber":47,"Velocity":61,"Duration":186950,"SoundDuration":186950,"Delta":169681881},{"NoteNumber":48,"Velocity":62,"Duration":186950,"SoundDuration":186950,"Delta":169868832},{"NoteNumber":57,"Velocity":49,"Duration":604673,"SoundDuration":604673,"Delta":170055782},{"NoteNumber":61,"Velocity":49,"Duration":604673,"SoundDuration":604673,"Delta":170055782},{"NoteNumber":65,"Velocity":64,"Duration":604673,"SoundDuration":604673,"Delta":170055782},{"NoteNumber":45,"Velocity":53,"Duration":186950,"SoundDuration":186950,"Delta":170055782},{"NoteNumber":49,"Velocity":63,"Duration":186950,"SoundDuration":186950,"Delta":170055782},{"NoteNumber":53,"Velocity":63,"Duration":203389,"SoundDuration":203389,"Delta":170242733},{"NoteNumber":32,"Velocity":59,"Duration":219828,"SoundDuration":219828,"Delta":170446123},{"NoteNumber":53,"Velocity":67,"Duration":400080,"SoundDuration":400080,"Delta":170665951},{"NoteNumber":61,"Velocity":79,"Duration":900180,"SoundDuration":900180,"Delta":170665951},{"NoteNumber":25,"Velocity":47,"Duration":400080,"SoundDuration":400080,"Delta":170665951},{"NoteNumber":37,"Velocity":59,"Duration":400080,"SoundDuration":400080,"Delta":170665951},{"NoteNumber":53,"Velocity":48,"Duration":200040,"SoundDuration":200040,"Delta":171066031},{"NoteNumber":44,"Velocity":31,"Duration":200040,"SoundDuration":200040,"Delta":171066031},{"NoteNumber":49,"Velocity":38,"Duration":200040,"SoundDuration":200040,"Delta":171066031},{"NoteNumber":65,"Velocity":48,"Duration":200040,"SoundDuration":200040,"Delta":171266071},{"NoteNumber":56,"Velocity":44,"Duration":200040,"SoundDuration":200040,"Delta":171266071},{"NoteNumber":63,"Velocity":48,"Duration":190945,"SoundDuration":190945,"Delta":171466111},{"NoteNumber":51,"Velocity":31,"Duration":190945,"SoundDuration":190945,"Delta":171466111},{"NoteNumber":56,"Velocity":38,"Duration":190945,"SoundDuration":190945,"Delta":171466111},{"NoteNumber":68,"Velocity":80,"Duration":272776,"SoundDuration":272776,"Delta":171566131},{"NoteNumber":65,"Velocity":48,"Duration":181851,"SoundDuration":181851,"Delta":171657057},{"NoteNumber":53,"Velocity":51,"Duration":181851,"SoundDuration":181851,"Delta":171657057},{"NoteNumber":68,"Velocity":67,"Duration":866953,"SoundDuration":866953,"Delta":171838908},{"NoteNumber":65,"Velocity":67,"Duration":866953,"SoundDuration":866953,"Delta":171838908},{"NoteNumber":73,"Velocity":81,"Duration":2282805,"SoundDuration":2282805,"Delta":171838908},{"NoteNumber":53,"Velocity":57,"Duration":396118,"SoundDuration":396118,"Delta":171838908},{"NoteNumber":56,"Velocity":57,"Duration":396118,"SoundDuration":396118,"Delta":171838908},{"NoteNumber":61,"Velocity":68,"Duration":396118,"SoundDuration":396118,"Delta":171838908},{"NoteNumber":25,"Velocity":47,"Duration":178253,"SoundDuration":178253,"Delta":172235026},{"NoteNumber":37,"Velocity":56,"Duration":178253,"SoundDuration":178253,"Delta":172235026},{"NoteNumber":25,"Velocity":50,"Duration":181851,"SoundDuration":181851,"Delta":172433085},{"NoteNumber":37,"Velocity":60,"Duration":181851,"SoundDuration":181851,"Delta":172433085},{"NoteNumber":32,"Velocity":53,"Duration":181851,"SoundDuration":181851,"Delta":172614936},{"NoteNumber":44,"Velocity":63,"Duration":181851,"SoundDuration":181851,"Delta":172614936},{"NoteNumber":56,"Velocity":52,"Duration":270503,"SoundDuration":270503,"Delta":172705862},{"NoteNumber":61,"Velocity":52,"Duration":270503,"SoundDuration":270503,"Delta":172705862},{"NoteNumber":65,"Velocity":62,"Duration":270503,"SoundDuration":270503,"Delta":172705862},{"NoteNumber":37,"Velocity":56,"Duration":181851,"SoundDuration":181851,"Delta":172796788},{"NoteNumber":49,"Velocity":66,"Duration":181851,"SoundDuration":181851,"Delta":172796788},{"NoteNumber":60,"Velocity":59,"Duration":566774,"SoundDuration":566774,"Delta":172978639},{"NoteNumber":61,"Velocity":59,"Duration":566774,"SoundDuration":566774,"Delta":172978639},{"NoteNumber":68,"Velocity":77,"Duration":566774,"SoundDuration":566774,"Delta":172978639},{"NoteNumber":37,"Velocity":79,"Duration":2330124,"SoundDuration":2330124,"Delta":172978639},{"NoteNumber":49,"Velocity":79,"Duration":190512,"SoundDuration":190512,"Delta":172978639},{"NoteNumber":41,"Velocity":58,"Duration":190512,"SoundDuration":190512,"Delta":173169151},{"NoteNumber":42,"Velocity":58,"Duration":190512,"SoundDuration":190512,"Delta":173359664},{"NoteNumber":59,"Velocity":52,"Duration":566774,"SoundDuration":566774,"Delta":173550176},{"NoteNumber":61,"Velocity":52,"Duration":566774,"SoundDuration":566774,"Delta":173550176},{"NoteNumber":67,"Velocity":68,"Duration":566774,"SoundDuration":566774,"Delta":173550176},{"NoteNumber":43,"Velocity":59,"Duration":190512,"SoundDuration":190512,"Delta":173550176},{"NoteNumber":44,"Velocity":60,"Duration":190512,"SoundDuration":190512,"Delta":173740689},{"NoteNumber":45,"Velocity":60,"Duration":190512,"SoundDuration":190512,"Delta":173931201},{"NoteNumber":58,"Velocity":56,"Duration":566774,"SoundDuration":566774,"Delta":174121714},{"NoteNumber":61,"Velocity":56,"Duration":566774,"SoundDuration":566774,"Delta":174121714},{"NoteNumber":66,"Velocity":72,"Duration":566774,"SoundDuration":566774,"Delta":174121714},{"NoteNumber":68,"Velocity":66,"Duration":1187049,"SoundDuration":1187049,"Delta":174121714},{"NoteNumber":46,"Velocity":61,"Duration":190512,"SoundDuration":190512,"Delta":174121714},{"NoteNumber":47,"Velocity":61,"Duration":190512,"SoundDuration":190512,"Delta":174312226},{"NoteNumber":48,"Velocity":62,"Duration":190512,"SoundDuration":190512,"Delta":174502739},{"NoteNumber":57,"Velocity":49,"Duration":610015,"SoundDuration":610015,"Delta":174693251},{"NoteNumber":61,"Velocity":49,"Duration":610015,"SoundDuration":610015,"Delta":174693251},{"NoteNumber":65,"Velocity":64,"Duration":610015,"SoundDuration":610015,"Delta":174693251},{"NoteNumber":45,"Velocity":53,"Duration":190512,"SoundDuration":190512,"Delta":174693251},{"NoteNumber":49,"Velocity":63,"Duration":190512,"SoundDuration":190512,"Delta":174693251},{"NoteNumber":53,"Velocity":63,"Duration":205170,"SoundDuration":205170,"Delta":174883764},{"NoteNumber":32,"Velocity":59,"Duration":219828,"SoundDuration":219828,"Delta":175088934},{"NoteNumber":53,"Velocity":67,"Duration":400080,"SoundDuration":400080,"Delta":175308763},{"NoteNumber":61,"Velocity":79,"Duration":900180,"SoundDuration":900180,"Delta":175308763},{"NoteNumber":25,"Velocity":47,"Duration":400080,"SoundDuration":400080,"Delta":175308763},{"NoteNumber":37,"Velocity":59,"Duration":400080,"SoundDuration":400080,"Delta":175308763},{"NoteNumber":53,"Velocity":48,"Duration":200040,"SoundDuration":200040,"Delta":175708843},{"NoteNumber":44,"Velocity":31,"Duration":200040,"SoundDuration":200040,"Delta":175708843},{"NoteNumber":49,"Velocity":38,"Duration":200040,"SoundDuration":200040,"Delta":175708843},{"NoteNumber":65,"Velocity":48,"Duration":200040,"SoundDuration":200040,"Delta":175908883},{"NoteNumber":56,"Velocity":44,"Duration":200040,"SoundDuration":200040,"Delta":175908883},{"NoteNumber":63,"Velocity":48,"Duration":190945,"SoundDuration":190945,"Delta":176108923},{"NoteNumber":51,"Velocity":31,"Duration":190945,"SoundDuration":190945,"Delta":176108923},{"NoteNumber":56,"Velocity":38,"Duration":190945,"SoundDuration":190945,"Delta":176108923},{"NoteNumber":68,"Velocity":80,"Duration":272776,"SoundDuration":272776,"Delta":176208943},{"NoteNumber":65,"Velocity":48,"Duration":181851,"SoundDuration":181851,"Delta":176299868},{"NoteNumber":53,"Velocity":51,"Duration":181851,"SoundDuration":181851,"Delta":176299868},{"NoteNumber":68,"Velocity":67,"Duration":866953,"SoundDuration":866953,"Delta":176481719},{"NoteNumber":65,"Velocity":67,"Duration":866953,"SoundDuration":866953,"Delta":176481719},{"NoteNumber":77,"Velocity":81,"Duration":2272019,"SoundDuration":2272019,"Delta":176481719},{"NoteNumber":53,"Velocity":57,"Duration":396118,"SoundDuration":396118,"Delta":176481719},{"NoteNumber":61,"Velocity":68,"Duration":396118,"SoundDuration":396118,"Delta":176481719},{"NoteNumber":32,"Velocity":47,"Duration":178253,"SoundDuration":178253,"Delta":176877837},{"NoteNumber":44,"Velocity":56,"Duration":178253,"SoundDuration":178253,"Delta":176877837},{"NoteNumber":32,"Velocity":50,"Duration":181851,"SoundDuration":181851,"Delta":177075896},{"NoteNumber":44,"Velocity":60,"Duration":181851,"SoundDuration":181851,"Delta":177075896},{"NoteNumber":49,"Velocity":63,"Duration":181851,"SoundDuration":181851,"Delta":177257748},{"NoteNumber":37,"Velocity":53,"Duration":181851,"SoundDuration":181851,"Delta":177257748},{"NoteNumber":56,"Velocity":52,"Duration":270503,"SoundDuration":270503,"Delta":177348673},{"NoteNumber":65,"Velocity":52,"Duration":270503,"SoundDuration":270503,"Delta":177348673},{"NoteNumber":68,"Velocity":62,"Duration":270503,"SoundDuration":270503,"Delta":177348673},{"NoteNumber":44,"Velocity":56,"Duration":181851,"SoundDuration":181851,"Delta":177439599},{"NoteNumber":56,"Velocity":66,"Duration":181851,"SoundDuration":181851,"Delta":177439599},{"NoteNumber":61,"Velocity":59,"Duration":561426,"SoundDuration":561426,"Delta":177621450},{"NoteNumber":65,"Velocity":59,"Duration":561426,"SoundDuration":561426,"Delta":177621450},{"NoteNumber":73,"Velocity":77,"Duration":561426,"SoundDuration":561426,"Delta":177621450},{"NoteNumber":44,"Velocity":79,"Duration":1132289,"SoundDuration":1132289,"Delta":177621450},{"NoteNumber":56,"Velocity":79,"Duration":377429,"SoundDuration":377429,"Delta":177621450},{"NoteNumber":52,"Velocity":58,"Duration":188714,"SoundDuration":188714,"Delta":177998880},{"NoteNumber":64,"Velocity":52,"Duration":561426,"SoundDuration":561426,"Delta":178187594},{"NoteNumber":65,"Velocity":52,"Duration":561426,"SoundDuration":561426,"Delta":178187594},{"NoteNumber":72,"Velocity":68,"Duration":561426,"SoundDuration":561426,"Delta":178187594},{"NoteNumber":53,"Velocity":59,"Duration":188714,"SoundDuration":188714,"Delta":178187594},{"NoteNumber":54,"Velocity":60,"Duration":188714,"SoundDuration":188714,"Delta":178376309},{"NoteNumber":55,"Velocity":60,"Duration":188714,"SoundDuration":188714,"Delta":178565024},{"NoteNumber":63,"Velocity":56,"Duration":556178,"SoundDuration":556178,"Delta":178753739},{"NoteNumber":65,"Velocity":56,"Duration":556178,"SoundDuration":556178,"Delta":178753739},{"NoteNumber":71,"Velocity":72,"Duration":556178,"SoundDuration":556178,"Delta":178753739},{"NoteNumber":73,"Velocity":66,"Duration":1160495,"SoundDuration":1160495,"Delta":178753739},{"NoteNumber":47,"Velocity":72,"Duration":560852,"SoundDuration":560852,"Delta":178753739},{"NoteNumber":56,"Velocity":61,"Duration":186950,"SoundDuration":186950,"Delta":178753739},{"NoteNumber":57,"Velocity":61,"Duration":186950,"SoundDuration":186950,"Delta":178940690},{"NoteNumber":58,"Velocity":62,"Duration":186950,"SoundDuration":186950,"Delta":179127641},{"NoteNumber":62,"Velocity":49,"Duration":594322,"SoundDuration":594322,"Delta":179314591},{"NoteNumber":65,"Velocity":49,"Duration":594322,"SoundDuration":594322,"Delta":179314591},{"NoteNumber":70,"Velocity":64,"Duration":594322,"SoundDuration":594322,"Delta":179314591},{"NoteNumber":53,"Velocity":72,"Duration":599642,"SoundDuration":599642,"Delta":179314591},{"NoteNumber":59,"Velocity":63,"Duration":186950,"SoundDuration":186950,"Delta":179314591},{"NoteNumber":60,"Velocity":63,"Duration":199880,"SoundDuration":199880,"Delta":179501542},{"NoteNumber":61,"Velocity":59,"Duration":212811,"SoundDuration":212811,"Delta":179701423},{"NoteNumber":54,"Velocity":67,"Duration":450089,"SoundDuration":450089,"Delta":179914234},{"NoteNumber":58,"Velocity":67,"Duration":400080,"SoundDuration":400080,"Delta":179914234},{"NoteNumber":66,"Velocity":79,"Duration":600120,"SoundDuration":600120,"Delta":179914234},{"NoteNumber":25,"Velocity":47,"Duration":400080,"SoundDuration":400080,"Delta":179914234},{"NoteNumber":37,"Velocity":59,"Duration":400080,"SoundDuration":400080,"Delta":179914234},{"NoteNumber":61,"Velocity":48,"Duration":150029,"SoundDuration":150029,"Delta":180314314},{"NoteNumber":66,"Velocity":48,"Duration":500100,"SoundDuration":500100,"Delta":180314314},{"NoteNumber":46,"Velocity":31,"Duration":200040,"SoundDuration":200040,"Delta":180314314},{"NoteNumber":54,"Velocity":38,"Duration":200040,"SoundDuration":200040,"Delta":180314314},{"NoteNumber":73,"Velocity":48,"Duration":200040,"SoundDuration":200040,"Delta":180514354},{"NoteNumber":61,"Velocity":44,"Duration":200040,"SoundDuration":200040,"Delta":180514354},{"NoteNumber":68,"Velocity":48,"Duration":190945,"SoundDuration":190945,"Delta":180714394},{"NoteNumber":61,"Velocity":38,"Duration":190945,"SoundDuration":190945,"Delta":180714394},{"NoteNumber":56,"Velocity":31,"Duration":190945,"SoundDuration":190945,"Delta":180714394},{"NoteNumber":73,"Velocity":85,"Duration":272776,"SoundDuration":272776,"Delta":180814414},{"NoteNumber":70,"Velocity":48,"Duration":181851,"SoundDuration":181851,"Delta":180905340},{"NoteNumber":58,"Velocity":51,"Duration":181851,"SoundDuration":181851,"Delta":180905340},{"NoteNumber":73,"Velocity":67,"Duration":866953,"SoundDuration":866953,"Delta":181087191},{"NoteNumber":70,"Velocity":67,"Duration":866953,"SoundDuration":866953,"Delta":181087191},{"NoteNumber":82,"Velocity":81,"Duration":2272019,"SoundDuration":2272019,"Delta":181087191},{"NoteNumber":61,"Velocity":57,"Duration":396118,"SoundDuration":396118,"Delta":181087191},{"NoteNumber":58,"Velocity":57,"Duration":396118,"SoundDuration":396118,"Delta":181087191},{"NoteNumber":66,"Velocity":68,"Duration":396118,"SoundDuration":396118,"Delta":181087191},{"NoteNumber":37,"Velocity":47,"Duration":178253,"SoundDuration":178253,"Delta":181483309},{"NoteNumber":49,"Velocity":56,"Duration":178253,"SoundDuration":178253,"Delta":181483309},{"NoteNumber":37,"Velocity":50,"Duration":181851,"SoundDuration":181851,"Delta":181681368},{"NoteNumber":49,"Velocity":60,"Duration":181851,"SoundDuration":181851,"Delta":181681368},{"NoteNumber":42,"Velocity":53,"Duration":181851,"SoundDuration":181851,"Delta":181863219},{"NoteNumber":54,"Velocity":63,"Duration":181851,"SoundDuration":181851,"Delta":181863219},{"NoteNumber":61,"Velocity":52,"Duration":270503,"SoundDuration":270503,"Delta":181954145},{"NoteNumber":70,"Velocity":52,"Duration":270503,"SoundDuration":270503,"Delta":181954145},{"NoteNumber":73,"Velocity":62,"Duration":270503,"SoundDuration":270503,"Delta":181954145},{"NoteNumber":49,"Velocity":56,"Duration":181851,"SoundDuration":181851,"Delta":182045071},{"NoteNumber":61,"Velocity":66,"Duration":181851,"SoundDuration":181851,"Delta":182045071},{"NoteNumber":68,"Velocity":59,"Duration":561426,"SoundDuration":561426,"Delta":182226922},{"NoteNumber":65,"Velocity":59,"Duration":561426,"SoundDuration":561426,"Delta":182226922},{"NoteNumber":70,"Velocity":59,"Duration":561426,"SoundDuration":561426,"Delta":182226922},{"NoteNumber":77,"Velocity":77,"Duration":561426,"SoundDuration":561426,"Delta":182226922},{"NoteNumber":49,"Velocity":79,"Duration":377429,"SoundDuration":377429,"Delta":182226922},{"NoteNumber":61,"Velocity":79,"Duration":377429,"SoundDuration":377429,"Delta":182226922},{"NoteNumber":44,"Velocity":58,"Duration":188714,"SoundDuration":188714,"Delta":182604351},{"NoteNumber":67,"Velocity":52,"Duration":561426,"SoundDuration":561426,"Delta":182793066},{"NoteNumber":70,"Velocity":52,"Duration":561426,"SoundDuration":561426,"Delta":182793066},{"NoteNumber":76,"Velocity":68,"Duration":561426,"SoundDuration":561426,"Delta":182793066},{"NoteNumber":37,"Velocity":72,"Duration":566144,"SoundDuration":566144,"Delta":182793066},{"NoteNumber":46,"Velocity":59,"Duration":188714,"SoundDuration":188714,"Delta":182793066},{"NoteNumber":48,"Velocity":60,"Duration":188714,"SoundDuration":188714,"Delta":182981781},{"NoteNumber":49,"Velocity":60,"Duration":188714,"SoundDuration":188714,"Delta":183170496},{"NoteNumber":66,"Velocity":56,"Duration":556178,"SoundDuration":556178,"Delta":183359211},{"NoteNumber":70,"Velocity":56,"Duration":556178,"SoundDuration":556178,"Delta":183359211},{"NoteNumber":75,"Velocity":72,"Duration":556178,"SoundDuration":556178,"Delta":183359211},{"NoteNumber":80,"Velocity":64,"Duration":1160495,"SoundDuration":1160495,"Delta":183359211},{"NoteNumber":46,"Velocity":72,"Duration":560852,"SoundDuration":560852,"Delta":183359211},{"NoteNumber":51,"Velocity":61,"Duration":186950,"SoundDuration":186950,"Delta":183359211},{"NoteNumber":53,"Velocity":61,"Duration":186950,"SoundDuration":186950,"Delta":183546162},{"NoteNumber":54,"Velocity":62,"Duration":186950,"SoundDuration":186950,"Delta":183733112},{"NoteNumber":66,"Velocity":49,"Duration":594322,"SoundDuration":594322,"Delta":183920063},{"NoteNumber":68,"Velocity":49,"Duration":594322,"SoundDuration":594322,"Delta":183920063},{"NoteNumber":74,"Velocity":64,"Duration":594322,"SoundDuration":594322,"Delta":183920063},{"NoteNumber":47,"Velocity":72,"Duration":599642,"SoundDuration":599642,"Delta":183920063},{"NoteNumber":50,"Velocity":72,"Duration":599642,"SoundDuration":599642,"Delta":183920063},{"NoteNumber":56,"Velocity":63,"Duration":186950,"SoundDuration":186950,"Delta":183920063},{"NoteNumber":57,"Velocity":63,"Duration":199880,"SoundDuration":199880,"Delta":184107014},{"NoteNumber":59,"Velocity":59,"Duration":212811,"SoundDuration":212811,"Delta":184306895},{"NoteNumber":61,"Velocity":67,"Duration":400080,"SoundDuration":400080,"Delta":184519706},{"NoteNumber":65,"Velocity":67,"Duration":400080,"SoundDuration":400080,"Delta":184519706},{"NoteNumber":73,"Velocity":79,"Duration":800160,"SoundDuration":800160,"Delta":184519706},{"NoteNumber":25,"Velocity":47,"Duration":400080,"SoundDuration":400080,"Delta":184519706},{"NoteNumber":37,"Velocity":59,"Duration":400080,"SoundDuration":400080,"Delta":184519706},{"NoteNumber":61,"Velocity":48,"Duration":150029,"SoundDuration":150029,"Delta":184919786},{"NoteNumber":65,"Velocity":48,"Duration":200040,"SoundDuration":200040,"Delta":184919786},{"NoteNumber":44,"Velocity":31,"Duration":180036,"SoundDuration":180036,"Delta":184919786},{"NoteNumber":49,"Velocity":31,"Duration":180036,"SoundDuration":180036,"Delta":184919786},{"NoteNumber":56,"Velocity":38,"Duration":180036,"SoundDuration":180036,"Delta":184919786},{"NoteNumber":73,"Velocity":48,"Duration":300060,"SoundDuration":300060,"Delta":185119826},{"NoteNumber":44,"Velocity":44,"Duration":200040,"SoundDuration":200040,"Delta":185119826},{"NoteNumber":49,"Velocity":44,"Duration":200040,"SoundDuration":200040,"Delta":185119826},{"NoteNumber":56,"Velocity":44,"Duration":200040,"SoundDuration":200040,"Delta":185119826},{"NoteNumber":75,"Velocity":48,"Duration":190945,"SoundDuration":190945,"Delta":185319866},{"NoteNumber":51,"Velocity":44,"Duration":190945,"SoundDuration":190945,"Delta":185319866},{"NoteNumber":63,"Velocity":38,"Duration":190945,"SoundDuration":190945,"Delta":185319866},{"NoteNumber":56,"Velocity":31,"Duration":190945,"SoundDuration":190945,"Delta":185319866},{"NoteNumber":68,"Velocity":74,"Duration":272776,"SoundDuration":272776,"Delta":185419886},{"NoteNumber":80,"Velocity":85,"Duration":272776,"SoundDuration":272776,"Delta":185419886},{"NoteNumber":77,"Velocity":48,"Duration":181851,"SoundDuration":181851,"Delta":185510812},{"NoteNumber":53,"Velocity":44,"Duration":181851,"SoundDuration":181851,"Delta":185510812},{"NoteNumber":65,"Velocity":51,"Duration":181851,"SoundDuration":181851,"Delta":185510812},{"NoteNumber":77,"Velocity":67,"Duration":866953,"SoundDuration":866953,"Delta":185692663},{"NoteNumber":73,"Velocity":67,"Duration":866953,"SoundDuration":866953,"Delta":185692663},{"NoteNumber":85,"Velocity":81,"Duration":2272019,"SoundDuration":2272019,"Delta":185692663},{"NoteNumber":56,"Velocity":57,"Duration":396118,"SoundDuration":396118,"Delta":185692663},{"NoteNumber":53,"Velocity":57,"Duration":396118,"SoundDuration":396118,"Delta":185692663},{"NoteNumber":65,"Velocity":68,"Duration":396118,"SoundDuration":396118,"Delta":185692663},{"NoteNumber":37,"Velocity":56,"Duration":198059,"SoundDuration":198059,"Delta":186088781},{"NoteNumber":44,"Velocity":60,"Duration":181851,"SoundDuration":181851,"Delta":186286840},{"NoteNumber":53,"Velocity":63,"Duration":181851,"SoundDuration":181851,"Delta":186468691},{"NoteNumber":65,"Velocity":52,"Duration":268230,"SoundDuration":268230,"Delta":186559617},{"NoteNumber":68,"Velocity":52,"Duration":268230,"SoundDuration":268230,"Delta":186559617},{"NoteNumber":73,"Velocity":52,"Duration":268230,"SoundDuration":268230,"Delta":186559617},{"NoteNumber":77,"Velocity":62,"Duration":268230,"SoundDuration":268230,"Delta":186559617},{"NoteNumber":56,"Velocity":66,"Duration":179578,"SoundDuration":179578,"Delta":186650542},{"NoteNumber":72,"Velocity":59,"Duration":561426,"SoundDuration":561426,"Delta":186832393},{"NoteNumber":68,"Velocity":59,"Duration":561426,"SoundDuration":561426,"Delta":186832393},{"NoteNumber":73,"Velocity":59,"Duration":561426,"SoundDuration":561426,"Delta":186832393},{"NoteNumber":80,"Velocity":77,"Duration":561426,"SoundDuration":561426,"Delta":186832393},{"NoteNumber":53,"Velocity":67,"Duration":377429,"SoundDuration":377429,"Delta":186832393},{"NoteNumber":56,"Velocity":68,"Duration":377429,"SoundDuration":377429,"Delta":186832393},{"NoteNumber":60,"Velocity":79,"Duration":377429,"SoundDuration":377429,"Delta":186832393},{"NoteNumber":44,"Velocity":70,"Duration":188714,"SoundDuration":188714,"Delta":187209823},{"NoteNumber":67,"Velocity":52,"Duration":561426,"SoundDuration":561426,"Delta":187398538},{"NoteNumber":71,"Velocity":52,"Duration":561426,"SoundDuration":561426,"Delta":187398538},{"NoteNumber":73,"Velocity":52,"Duration":561426,"SoundDuration":561426,"Delta":187398538},{"NoteNumber":79,"Velocity":68,"Duration":561426,"SoundDuration":561426,"Delta":187398538},{"NoteNumber":45,"Velocity":53,"Duration":377429,"SoundDuration":377429,"Delta":187398538},{"NoteNumber":49,"Velocity":53,"Duration":377429,"SoundDuration":377429,"Delta":187398538},{"NoteNumber":53,"Velocity":54,"Duration":377429,"SoundDuration":377429,"Delta":187398538},{"NoteNumber":59,"Velocity":63,"Duration":377429,"SoundDuration":377429,"Delta":187398538},{"NoteNumber":37,"Velocity":70,"Duration":188714,"SoundDuration":188714,"Delta":187775968},{"NoteNumber":70,"Velocity":56,"Duration":556178,"SoundDuration":556178,"Delta":187964682},{"NoteNumber":66,"Velocity":56,"Duration":556178,"SoundDuration":556178,"Delta":187964682},{"NoteNumber":73,"Velocity":56,"Duration":556178,"SoundDuration":556178,"Delta":187964682},{"NoteNumber":78,"Velocity":72,"Duration":556178,"SoundDuration":556178,"Delta":187964682},{"NoteNumber":80,"Velocity":64,"Duration":1160495,"SoundDuration":1160495,"Delta":187964682},{"NoteNumber":46,"Velocity":53,"Duration":373901,"SoundDuration":373901,"Delta":187964682},{"NoteNumber":49,"Velocity":53,"Duration":373901,"SoundDuration":373901,"Delta":187964682},{"NoteNumber":54,"Velocity":54,"Duration":373901,"SoundDuration":373901,"Delta":187964682},{"NoteNumber":58,"Velocity":63,"Duration":373901,"SoundDuration":373901,"Delta":187964682},{"NoteNumber":37,"Velocity":70,"Duration":186950,"SoundDuration":186950,"Delta":188338584},{"NoteNumber":69,"Velocity":49,"Duration":594322,"SoundDuration":594322,"Delta":188525535},{"NoteNumber":65,"Velocity":49,"Duration":594322,"SoundDuration":594322,"Delta":188525535},{"NoteNumber":73,"Velocity":49,"Duration":594322,"SoundDuration":594322,"Delta":188525535},{"NoteNumber":77,"Velocity":64,"Duration":594322,"SoundDuration":594322,"Delta":188525535},{"NoteNumber":48,"Velocity":53,"Duration":386831,"SoundDuration":386831,"Delta":188525535},{"NoteNumber":53,"Velocity":54,"Duration":386831,"SoundDuration":386831,"Delta":188525535},{"NoteNumber":57,"Velocity":63,"Duration":386831,"SoundDuration":386831,"Delta":188525535},{"NoteNumber":37,"Velocity":70,"Duration":212811,"SoundDuration":212811,"Delta":188912367},{"NoteNumber":61,"Velocity":67,"Duration":450089,"SoundDuration":450089,"Delta":189125178},{"NoteNumber":65,"Velocity":67,"Duration":400080,"SoundDuration":400080,"Delta":189125178},{"NoteNumber":73,"Velocity":79,"Duration":900180,"SoundDuration":900180,"Delta":189125178},{"NoteNumber":25,"Velocity":47,"Duration":400080,"SoundDuration":400080,"Delta":189125178},{"NoteNumber":37,"Velocity":59,"Duration":400080,"SoundDuration":400080,"Delta":189125178},{"NoteNumber":65,"Velocity":48,"Duration":150029,"SoundDuration":150029,"Delta":189525258},{"NoteNumber":68,"Velocity":48,"Duration":200040,"SoundDuration":200040,"Delta":189525258},{"NoteNumber":44,"Velocity":31,"Duration":180036,"SoundDuration":180036,"Delta":189525258},{"NoteNumber":49,"Velocity":31,"Duration":180036,"SoundDuration":180036,"Delta":189525258},{"NoteNumber":56,"Velocity":38,"Duration":180036,"SoundDuration":180036,"Delta":189525258},{"NoteNumber":77,"Velocity":48,"Duration":200040,"SoundDuration":200040,"Delta":189725298},{"NoteNumber":44,"Velocity":44,"Duration":200040,"SoundDuration":200040,"Delta":189725298},{"NoteNumber":49,"Velocity":44,"Duration":200040,"SoundDuration":200040,"Delta":189725298},{"NoteNumber":56,"Velocity":44,"Duration":200040,"SoundDuration":200040,"Delta":189725298},{"NoteNumber":75,"Velocity":48,"Duration":190945,"SoundDuration":190945,"Delta":189925338},{"NoteNumber":51,"Velocity":44,"Duration":190945,"SoundDuration":190945,"Delta":189925338},{"NoteNumber":63,"Velocity":38,"Duration":190945,"SoundDuration":190945,"Delta":189925338},{"NoteNumber":56,"Velocity":31,"Duration":190945,"SoundDuration":190945,"Delta":189925338},{"NoteNumber":68,"Velocity":76,"Duration":272776,"SoundDuration":272776,"Delta":190025358},{"NoteNumber":80,"Velocity":85,"Duration":272776,"SoundDuration":272776,"Delta":190025358},{"NoteNumber":77,"Velocity":48,"Duration":181851,"SoundDuration":181851,"Delta":190116284},{"NoteNumber":53,"Velocity":44,"Duration":181851,"SoundDuration":181851,"Delta":190116284},{"NoteNumber":65,"Velocity":51,"Duration":181851,"SoundDuration":181851,"Delta":190116284},{"NoteNumber":77,"Velocity":67,"Duration":866953,"SoundDuration":866953,"Delta":190298135},{"NoteNumber":73,"Velocity":67,"Duration":866953,"SoundDuration":866953,"Delta":190298135},{"NoteNumber":85,"Velocity":81,"Duration":2272019,"SoundDuration":2272019,"Delta":190298135},{"NoteNumber":56,"Velocity":57,"Duration":396118,"SoundDuration":396118,"Delta":190298135},{"NoteNumber":53,"Velocity":57,"Duration":396118,"SoundDuration":396118,"Delta":190298135},{"NoteNumber":65,"Velocity":68,"Duration":396118,"SoundDuration":396118,"Delta":190298135},{"NoteNumber":37,"Velocity":56,"Duration":198059,"SoundDuration":198059,"Delta":190694253},{"NoteNumber":44,"Velocity":60,"Duration":181851,"SoundDuration":181851,"Delta":190892312},{"NoteNumber":53,"Velocity":63,"Duration":181851,"SoundDuration":181851,"Delta":191074163},{"NoteNumber":65,"Velocity":52,"Duration":268230,"SoundDuration":268230,"Delta":191165088},{"NoteNumber":68,"Velocity":52,"Duration":268230,"SoundDuration":268230,"Delta":191165088},{"NoteNumber":73,"Velocity":52,"Duration":268230,"SoundDuration":268230,"Delta":191165088},{"NoteNumber":77,"Velocity":62,"Duration":268230,"SoundDuration":268230,"Delta":191165088},{"NoteNumber":56,"Velocity":66,"Duration":179578,"SoundDuration":179578,"Delta":191256014},{"NoteNumber":75,"Velocity":59,"Duration":561426,"SoundDuration":561426,"Delta":191437865},{"NoteNumber":71,"Velocity":59,"Duration":561426,"SoundDuration":561426,"Delta":191437865},{"NoteNumber":77,"Velocity":59,"Duration":561426,"SoundDuration":561426,"Delta":191437865},{"NoteNumber":83,"Velocity":77,"Duration":561426,"SoundDuration":561426,"Delta":191437865},{"NoteNumber":53,"Velocity":67,"Duration":377429,"SoundDuration":377429,"Delta":191437865},{"NoteNumber":56,"Velocity":68,"Duration":377429,"SoundDuration":377429,"Delta":191437865},{"NoteNumber":63,"Velocity":79,"Duration":377429,"SoundDuration":377429,"Delta":191437865},{"NoteNumber":44,"Velocity":70,"Duration":188714,"SoundDuration":188714,"Delta":191815295},{"NoteNumber":70,"Velocity":52,"Duration":561426,"SoundDuration":561426,"Delta":192004010},{"NoteNumber":74,"Velocity":52,"Duration":561426,"SoundDuration":561426,"Delta":192004010},{"NoteNumber":77,"Velocity":52,"Duration":561426,"SoundDuration":561426,"Delta":192004010},{"NoteNumber":82,"Velocity":68,"Duration":561426,"SoundDuration":561426,"Delta":192004010},{"NoteNumber":53,"Velocity":54,"Duration":377429,"SoundDuration":377429,"Delta":192004010},{"NoteNumber":62,"Velocity":63,"Duration":377429,"SoundDuration":377429,"Delta":192004010},{"NoteNumber":37,"Velocity":70,"Duration":188714,"SoundDuration":188714,"Delta":192381439},{"NoteNumber":73,"Velocity":56,"Duration":556178,"SoundDuration":556178,"Delta":192570154},{"NoteNumber":69,"Velocity":56,"Duration":556178,"SoundDuration":556178,"Delta":192570154},{"NoteNumber":77,"Velocity":56,"Duration":556178,"SoundDuration":556178,"Delta":192570154},{"NoteNumber":81,"Velocity":72,"Duration":556178,"SoundDuration":556178,"Delta":192570154},{"NoteNumber":85,"Velocity":64,"Duration":1160495,"SoundDuration":1160495,"Delta":192570154},{"NoteNumber":53,"Velocity":54,"Duration":373901,"SoundDuration":373901,"Delta":192570154},{"NoteNumber":61,"Velocity":63,"Duration":373901,"SoundDuration":373901,"Delta":192570154},{"NoteNumber":44,"Velocity":70,"Duration":186950,"SoundDuration":186950,"Delta":192944056},{"NoteNumber":73,"Velocity":49,"Duration":594322,"SoundDuration":594322,"Delta":193131007},{"NoteNumber":68,"Velocity":49,"Duration":594322,"SoundDuration":594322,"Delta":193131007},{"NoteNumber":77,"Velocity":49,"Duration":594322,"SoundDuration":594322,"Delta":193131007},{"NoteNumber":80,"Velocity":64,"Duration":594322,"SoundDuration":594322,"Delta":193131007},{"NoteNumber":53,"Velocity":53,"Duration":386831,"SoundDuration":386831,"Delta":193131007},{"NoteNumber":59,"Velocity":54,"Duration":386831,"SoundDuration":386831,"Delta":193131007},{"NoteNumber":61,"Velocity":63,"Duration":386831,"SoundDuration":386831,"Delta":193131007},{"NoteNumber":49,"Velocity":70,"Duration":212811,"SoundDuration":212811,"Delta":193517839},{"NoteNumber":66,"Velocity":67,"Duration":400080,"SoundDuration":400080,"Delta":193730650},{"NoteNumber":70,"Velocity":67,"Duration":400080,"SoundDuration":400080,"Delta":193730650},{"NoteNumber":73,"Velocity":67,"Duration":400080,"SoundDuration":400080,"Delta":193730650},{"NoteNumber":78,"Velocity":79,"Duration":800160,"SoundDuration":800160,"Delta":193730650},{"NoteNumber":25,"Velocity":47,"Duration":400080,"SoundDuration":400080,"Delta":193730650},{"NoteNumber":37,"Velocity":59,"Duration":400080,"SoundDuration":400080,"Delta":193730650},{"NoteNumber":66,"Velocity":48,"Duration":150029,"SoundDuration":150029,"Delta":194130730},{"NoteNumber":73,"Velocity":48,"Duration":200040,"SoundDuration":200040,"Delta":194130730},{"NoteNumber":42,"Velocity":31,"Duration":200040,"SoundDuration":200040,"Delta":194130730},{"NoteNumber":54,"Velocity":38,"Duration":200040,"SoundDuration":200040,"Delta":194130730},{"NoteNumber":78,"Velocity":48,"Duration":300060,"SoundDuration":300060,"Delta":194330770},{"NoteNumber":61,"Velocity":44,"Duration":200040,"SoundDuration":200040,"Delta":194330770},{"NoteNumber":80,"Velocity":48,"Duration":190945,"SoundDuration":190945,"Delta":194530810},{"NoteNumber":56,"Velocity":44,"Duration":190945,"SoundDuration":190945,"Delta":194530810},{"NoteNumber":68,"Velocity":38,"Duration":190945,"SoundDuration":190945,"Delta":194530810},{"NoteNumber":61,"Velocity":31,"Duration":190945,"SoundDuration":190945,"Delta":194530810},{"NoteNumber":73,"Velocity":76,"Duration":272776,"SoundDuration":272776,"Delta":194630830},{"NoteNumber":85,"Velocity":85,"Duration":272776,"SoundDuration":272776,"Delta":194630830},{"NoteNumber":82,"Velocity":48,"Duration":181851,"SoundDuration":181851,"Delta":194721755},{"NoteNumber":58,"Velocity":44,"Duration":163666,"SoundDuration":163666,"Delta":194721755},{"NoteNumber":70,"Velocity":51,"Duration":163666,"SoundDuration":163666,"Delta":194721755},{"NoteNumber":78,"Velocity":67,"Duration":866953,"SoundDuration":866953,"Delta":194903606},{"NoteNumber":85,"Velocity":67,"Duration":866953,"SoundDuration":866953,"Delta":194903606},{"NoteNumber":82,"Velocity":67,"Duration":866953,"SoundDuration":866953,"Delta":194903606},{"NoteNumber":90,"Velocity":81,"Duration":2272019,"SoundDuration":2272019,"Delta":194903606},{"NoteNumber":58,"Velocity":57,"Duration":445632,"SoundDuration":445632,"Delta":194903606},{"NoteNumber":66,"Velocity":57,"Duration":396118,"SoundDuration":396118,"Delta":194903606},{"NoteNumber":61,"Velocity":57,"Duration":396118,"SoundDuration":396118,"Delta":194903606},{"NoteNumber":70,"Velocity":68,"Duration":396118,"SoundDuration":396118,"Delta":194903606},{"NoteNumber":46,"Velocity":56,"Duration":198059,"SoundDuration":198059,"Delta":195299724},{"NoteNumber":54,"Velocity":60,"Duration":181851,"SoundDuration":181851,"Delta":195497783},{"NoteNumber":61,"Velocity":63,"Duration":163666,"SoundDuration":163666,"Delta":195679635},{"NoteNumber":70,"Velocity":52,"Duration":270503,"SoundDuration":270503,"Delta":195770560},{"NoteNumber":73,"Velocity":52,"Duration":270503,"SoundDuration":270503,"Delta":195770560},{"NoteNumber":78,"Velocity":52,"Duration":270503,"SoundDuration":270503,"Delta":195770560},{"NoteNumber":82,"Velocity":62,"Duration":270503,"SoundDuration":270503,"Delta":195770560},{"NoteNumber":61,"Velocity":66,"Duration":559280,"SoundDuration":559280,"Delta":195861486},{"NoteNumber":77,"Velocity":59,"Duration":561426,"SoundDuration":561426,"Delta":196043337},{"NoteNumber":73,"Velocity":59,"Duration":561426,"SoundDuration":561426,"Delta":196043337},{"NoteNumber":78,"Velocity":59,"Duration":561426,"SoundDuration":561426,"Delta":196043337},{"NoteNumber":85,"Velocity":77,"Duration":561426,"SoundDuration":561426,"Delta":196043337},{"NoteNumber":54,"Velocity":67,"Duration":377429,"SoundDuration":377429,"Delta":196043337},{"NoteNumber":58,"Velocity":67,"Duration":377429,"SoundDuration":377429,"Delta":196043337},{"NoteNumber":65,"Velocity":79,"Duration":377429,"SoundDuration":377429,"Delta":196043337},{"NoteNumber":49,"Velocity":70,"Duration":188714,"SoundDuration":188714,"Delta":196420767},{"NoteNumber":72,"Velocity":52,"Duration":561426,"SoundDuration":561426,"Delta":196609481},{"NoteNumber":76,"Velocity":52,"Duration":561426,"SoundDuration":561426,"Delta":196609481},{"NoteNumber":78,"Velocity":52,"Duration":561426,"SoundDuration":561426,"Delta":196609481},{"NoteNumber":84,"Velocity":68,"Duration":561426,"SoundDuration":561426,"Delta":196609481},{"NoteNumber":54,"Velocity":54,"Duration":377429,"SoundDuration":377429,"Delta":196609481},{"NoteNumber":58,"Velocity":54,"Duration":377429,"SoundDuration":377429,"Delta":196609481},{"NoteNumber":64,"Velocity":63,"Duration":377429,"SoundDuration":377429,"Delta":196609481},{"NoteNumber":46,"Velocity":70,"Duration":188714,"SoundDuration":188714,"Delta":196986911},{"NoteNumber":75,"Velocity":56,"Duration":556178,"SoundDuration":556178,"Delta":197175626},{"NoteNumber":71,"Velocity":56,"Duration":556178,"SoundDuration":556178,"Delta":197175626},{"NoteNumber":78,"Velocity":56,"Duration":556178,"SoundDuration":556178,"Delta":197175626},{"NoteNumber":83,"Velocity":72,"Duration":556178,"SoundDuration":556178,"Delta":197175626},{"NoteNumber":85,"Velocity":64,"Duration":1160495,"SoundDuration":1160495,"Delta":197175626},{"NoteNumber":54,"Velocity":54,"Duration":373901,"SoundDuration":373901,"Delta":197175626},{"NoteNumber":58,"Velocity":54,"Duration":373901,"SoundDuration":373901,"Delta":197175626},{"NoteNumber":63,"Velocity":63,"Duration":373901,"SoundDuration":373901,"Delta":197175626},{"NoteNumber":42,"Velocity":70,"Duration":186950,"SoundDuration":186950,"Delta":197549528},{"NoteNumber":74,"Velocity":49,"Duration":594322,"SoundDuration":594322,"Delta":197736478},{"NoteNumber":70,"Velocity":49,"Duration":594322,"SoundDuration":594322,"Delta":197736478},{"NoteNumber":78,"Velocity":49,"Duration":594322,"SoundDuration":594322,"Delta":197736478},{"NoteNumber":82,"Velocity":64,"Duration":594322,"SoundDuration":594322,"Delta":197736478},{"NoteNumber":54,"Velocity":53,"Duration":386831,"SoundDuration":386831,"Delta":197736478},{"NoteNumber":58,"Velocity":54,"Duration":386831,"SoundDuration":386831,"Delta":197736478},{"NoteNumber":62,"Velocity":63,"Duration":386831,"SoundDuration":386831,"Delta":197736478},{"NoteNumber":37,"Velocity":81,"Duration":612891,"SoundDuration":612891,"Delta":198123310},{"NoteNumber":69,"Velocity":73,"Duration":400080,"SoundDuration":400080,"Delta":198336121},{"NoteNumber":73,"Velocity":73,"Duration":400080,"SoundDuration":400080,"Delta":198336121},{"NoteNumber":76,"Velocity":73,"Duration":400080,"SoundDuration":400080,"Delta":198336121},{"NoteNumber":81,"Velocity":86,"Duration":800160,"SoundDuration":800160,"Delta":198336121},{"NoteNumber":25,"Velocity":47,"Duration":400080,"SoundDuration":400080,"Delta":198336121},{"NoteNumber":69,"Velocity":48,"Duration":150029,"SoundDuration":150029,"Delta":198736201},{"NoteNumber":73,"Velocity":48,"Duration":200040,"SoundDuration":200040,"Delta":198736201},{"NoteNumber":52,"Velocity":31,"Duration":180036,"SoundDuration":180036,"Delta":198736201},{"NoteNumber":45,"Velocity":31,"Duration":180036,"SoundDuration":180036,"Delta":198736201},{"NoteNumber":57,"Velocity":38,"Duration":180036,"SoundDuration":180036,"Delta":198736201},{"NoteNumber":81,"Velocity":48,"Duration":300060,"SoundDuration":300060,"Delta":198936241},{"NoteNumber":45,"Velocity":39,"Duration":200040,"SoundDuration":200040,"Delta":198936241},{"NoteNumber":52,"Velocity":40,"Duration":200040,"SoundDuration":200040,"Delta":198936241},{"NoteNumber":57,"Velocity":44,"Duration":200040,"SoundDuration":200040,"Delta":198936241},{"NoteNumber":83,"Velocity":48,"Duration":190945,"SoundDuration":190945,"Delta":199136281},{"NoteNumber":56,"Velocity":44,"Duration":190945,"SoundDuration":190945,"Delta":199136281},{"NoteNumber":68,"Velocity":38,"Duration":190945,"SoundDuration":190945,"Delta":199136281},{"NoteNumber":61,"Velocity":31,"Duration":190945,"SoundDuration":190945,"Delta":199136281},{"NoteNumber":76,"Velocity":76,"Duration":272776,"SoundDuration":272776,"Delta":199236301},{"NoteNumber":88,"Velocity":85,"Duration":272776,"SoundDuration":272776,"Delta":199236301},{"NoteNumber":85,"Velocity":48,"Duration":181851,"SoundDuration":181851,"Delta":199327227},{"NoteNumber":57,"Velocity":44,"Duration":181851,"SoundDuration":181851,"Delta":199327227},{"NoteNumber":69,"Velocity":51,"Duration":181851,"SoundDuration":181851,"Delta":199327227},{"NoteNumber":81,"Velocity":67,"Duration":866953,"SoundDuration":866953,"Delta":199509078},{"NoteNumber":88,"Velocity":67,"Duration":866953,"SoundDuration":866953,"Delta":199509078},{"NoteNumber":85,"Velocity":67,"Duration":866953,"SoundDuration":866953,"Delta":199509078},{"NoteNumber":93,"Velocity":81,"Duration":2272019,"SoundDuration":2272019,"Delta":199509078},{"NoteNumber":57,"Velocity":57,"Duration":445632,"SoundDuration":445632,"Delta":199509078},{"NoteNumber":64,"Velocity":57,"Duration":396118,"SoundDuration":396118,"Delta":199509078},{"NoteNumber":61,"Velocity":57,"Duration":396118,"SoundDuration":396118,"Delta":199509078},{"NoteNumber":69,"Velocity":68,"Duration":396118,"SoundDuration":396118,"Delta":199509078},{"NoteNumber":37,"Velocity":52,"Duration":198059,"SoundDuration":198059,"Delta":199905196},{"NoteNumber":45,"Velocity":56,"Duration":198059,"SoundDuration":198059,"Delta":199905196},{"NoteNumber":52,"Velocity":60,"Duration":181851,"SoundDuration":181851,"Delta":200103255},{"NoteNumber":57,"Velocity":63,"Duration":181851,"SoundDuration":181851,"Delta":200285106},{"NoteNumber":73,"Velocity":52,"Duration":270503,"SoundDuration":270503,"Delta":200376032},{"NoteNumber":81,"Velocity":52,"Duration":270503,"SoundDuration":270503,"Delta":200376032},{"NoteNumber":85,"Velocity":62,"Duration":270503,"SoundDuration":270503,"Delta":200376032},{"NoteNumber":61,"Velocity":66,"Duration":559280,"SoundDuration":559280,"Delta":200466958},{"NoteNumber":76,"Velocity":59,"Duration":561426,"SoundDuration":561426,"Delta":200648809},{"NoteNumber":81,"Velocity":59,"Duration":561426,"SoundDuration":561426,"Delta":200648809},{"NoteNumber":88,"Velocity":77,"Duration":561426,"SoundDuration":561426,"Delta":200648809},{"NoteNumber":56,"Velocity":50,"Duration":377429,"SoundDuration":377429,"Delta":200648809},{"NoteNumber":57,"Velocity":67,"Duration":377429,"SoundDuration":377429,"Delta":200648809},{"NoteNumber":68,"Velocity":79,"Duration":377429,"SoundDuration":377429,"Delta":200648809},{"NoteNumber":52,"Velocity":70,"Duration":188714,"SoundDuration":188714,"Delta":201026238},{"NoteNumber":75,"Velocity":52,"Duration":561426,"SoundDuration":561426,"Delta":201214953},{"NoteNumber":81,"Velocity":52,"Duration":561426,"SoundDuration":561426,"Delta":201214953},{"NoteNumber":87,"Velocity":68,"Duration":561426,"SoundDuration":561426,"Delta":201214953},{"NoteNumber":61,"Velocity":54,"Duration":377429,"SoundDuration":377429,"Delta":201214953},{"NoteNumber":55,"Velocity":54,"Duration":377429,"SoundDuration":377429,"Delta":201214953},{"NoteNumber":57,"Velocity":54,"Duration":377429,"SoundDuration":377429,"Delta":201214953},{"NoteNumber":67,"Velocity":63,"Duration":377429,"SoundDuration":377429,"Delta":201214953},{"NoteNumber":49,"Velocity":70,"Duration":188714,"SoundDuration":188714,"Delta":201592383},{"NoteNumber":74,"Velocity":56,"Duration":556178,"SoundDuration":556178,"Delta":201781098},{"NoteNumber":80,"Velocity":56,"Duration":556178,"SoundDuration":556178,"Delta":201781098},{"NoteNumber":86,"Velocity":72,"Duration":556178,"SoundDuration":556178,"Delta":201781098},{"NoteNumber":92,"Velocity":71,"Duration":1160495,"SoundDuration":1160495,"Delta":201781098},{"NoteNumber":56,"Velocity":54,"Duration":373901,"SoundDuration":373901,"Delta":201781098},{"NoteNumber":54,"Velocity":54,"Duration":373901,"SoundDuration":373901,"Delta":201781098},{"NoteNumber":59,"Velocity":54,"Duration":373901,"SoundDuration":373901,"Delta":201781098},{"NoteNumber":66,"Velocity":63,"Duration":373901,"SoundDuration":373901,"Delta":201781098},{"NoteNumber":44,"Velocity":70,"Duration":186950,"SoundDuration":186950,"Delta":202154999},{"NoteNumber":78,"Velocity":49,"Duration":278089,"SoundDuration":278089,"Delta":202341950},{"NoteNumber":73,"Velocity":49,"Duration":278089,"SoundDuration":278089,"Delta":202341950},{"NoteNumber":80,"Velocity":49,"Duration":278089,"SoundDuration":278089,"Delta":202341950},{"NoteNumber":85,"Velocity":64,"Duration":278089,"SoundDuration":278089,"Delta":202341950},{"NoteNumber":56,"Velocity":53,"Duration":278089,"SoundDuration":278089,"Delta":202341950},{"NoteNumber":54,"Velocity":53,"Duration":278089,"SoundDuration":278089,"Delta":202341950},{"NoteNumber":59,"Velocity":54,"Duration":278089,"SoundDuration":278089,"Delta":202341950},{"NoteNumber":66,"Velocity":63,"Duration":278089,"SoundDuration":278089,"Delta":202341950},{"NoteNumber":84,"Velocity":62,"Duration":316556,"SoundDuration":316556,"Delta":202622376},{"NoteNumber":80,"Velocity":47,"Duration":316556,"SoundDuration":316556,"Delta":202622376},{"NoteNumber":78,"Velocity":47,"Duration":316556,"SoundDuration":316556,"Delta":202622376},{"NoteNumber":72,"Velocity":47,"Duration":316556,"SoundDuration":316556,"Delta":202622376},{"NoteNumber":54,"Velocity":51,"Duration":316556,"SoundDuration":316556,"Delta":202622376},{"NoteNumber":56,"Velocity":51,"Duration":316556,"SoundDuration":316556,"Delta":202622376},{"NoteNumber":60,"Velocity":52,"Duration":316556,"SoundDuration":316556,"Delta":202622376},{"NoteNumber":66,"Velocity":61,"Duration":316556,"SoundDuration":316556,"Delta":202622376},{"NoteNumber":25,"Velocity":72,"Duration":400080,"SoundDuration":400080,"Delta":202941593},{"NoteNumber":37,"Velocity":85,"Duration":400080,"SoundDuration":400080,"Delta":202941593},{"NoteNumber":44,"Velocity":47,"Duration":200040,"SoundDuration":200040,"Delta":203341673},{"NoteNumber":53,"Velocity":56,"Duration":200040,"SoundDuration":200040,"Delta":203341673},{"NoteNumber":53,"Velocity":60,"Duration":357653,"SoundDuration":357653,"Delta":203541713},{"NoteNumber":56,"Velocity":60,"Duration":357653,"SoundDuration":357653,"Delta":203541713},{"NoteNumber":65,"Velocity":71,"Duration":357653,"SoundDuration":357653,"Delta":203541713},{"NoteNumber":73,"Velocity":48,"Duration":160944,"SoundDuration":160944,"Delta":203720540},{"NoteNumber":77,"Velocity":48,"Duration":160944,"SoundDuration":160944,"Delta":203720540},{"NoteNumber":85,"Velocity":48,"Duration":160944,"SoundDuration":160944,"Delta":203720540},{"NoteNumber":80,"Velocity":48,"Duration":160944,"SoundDuration":160944,"Delta":203720540},{"NoteNumber":80,"Velocity":48,"Duration":160944,"SoundDuration":160944,"Delta":203899367},{"NoteNumber":73,"Velocity":48,"Duration":160944,"SoundDuration":160944,"Delta":203899367},{"NoteNumber":77,"Velocity":48,"Duration":160944,"SoundDuration":160944,"Delta":203899367},{"NoteNumber":85,"Velocity":48,"Duration":160944,"SoundDuration":160944,"Delta":203899367},{"NoteNumber":53,"Velocity":63,"Duration":178826,"SoundDuration":178826,"Delta":203899367},{"NoteNumber":56,"Velocity":63,"Duration":351370,"SoundDuration":351370,"Delta":204078194},{"NoteNumber":63,"Velocity":63,"Duration":351370,"SoundDuration":351370,"Delta":204078194},{"NoteNumber":65,"Velocity":75,"Duration":351370,"SoundDuration":351370,"Delta":204078194},{"NoteNumber":77,"Velocity":48,"Duration":158116,"SoundDuration":158116,"Delta":204253879},{"NoteNumber":72,"Velocity":48,"Duration":158116,"SoundDuration":158116,"Delta":204253879},{"NoteNumber":75,"Velocity":48,"Duration":158116,"SoundDuration":158116,"Delta":204253879},{"NoteNumber":84,"Velocity":48,"Duration":158116,"SoundDuration":158116,"Delta":204253879},{"NoteNumber":77,"Velocity":48,"Duration":158116,"SoundDuration":158116,"Delta":204429564},{"NoteNumber":75,"Velocity":48,"Duration":158116,"SoundDuration":158116,"Delta":204429564},{"NoteNumber":84,"Velocity":48,"Duration":158116,"SoundDuration":158116,"Delta":204429564},{"NoteNumber":72,"Velocity":48,"Duration":158116,"SoundDuration":158116,"Delta":204429564},{"NoteNumber":53,"Velocity":64,"Duration":175685,"SoundDuration":175685,"Delta":204429564},{"NoteNumber":56,"Velocity":62,"Duration":360151,"SoundDuration":360151,"Delta":204605249},{"NoteNumber":62,"Velocity":62,"Duration":360151,"SoundDuration":360151,"Delta":204605249},{"NoteNumber":65,"Velocity":73,"Duration":360151,"SoundDuration":360151,"Delta":204605249},{"NoteNumber":71,"Velocity":48,"Duration":167264,"SoundDuration":167264,"Delta":204777901},{"NoteNumber":74,"Velocity":48,"Duration":167264,"SoundDuration":167264,"Delta":204777901},{"NoteNumber":83,"Velocity":48,"Duration":167264,"SoundDuration":167264,"Delta":204777901},{"NoteNumber":77,"Velocity":48,"Duration":167264,"SoundDuration":167264,"Delta":204777901},{"NoteNumber":77,"Velocity":48,"Duration":182112,"SoundDuration":182112,"Delta":204965401},{"NoteNumber":83,"Velocity":48,"Duration":182112,"SoundDuration":182112,"Delta":204965401},{"NoteNumber":71,"Velocity":48,"Duration":182112,"SoundDuration":182112,"Delta":204965401},{"NoteNumber":74,"Velocity":48,"Duration":182112,"SoundDuration":182112,"Delta":204965401},{"NoteNumber":44,"Velocity":56,"Duration":202347,"SoundDuration":202347,"Delta":204965401},{"NoteNumber":55,"Velocity":67,"Duration":202347,"SoundDuration":202347,"Delta":204965401},{"NoteNumber":94,"Velocity":79,"Duration":1610970,"SoundDuration":1610970,"Delta":205167748},{"NoteNumber":89,"Velocity":67,"Duration":1610970,"SoundDuration":1610970,"Delta":205167748},{"NoteNumber":85,"Velocity":67,"Duration":1610970,"SoundDuration":1610970,"Delta":205167748},{"NoteNumber":82,"Velocity":67,"Duration":183141,"SoundDuration":183141,"Delta":205167748},{"NoteNumber":65,"Velocity":56,"Duration":370920,"SoundDuration":370920,"Delta":205167748},{"NoteNumber":58,"Velocity":56,"Duration":370920,"SoundDuration":370920,"Delta":205167748},{"NoteNumber":61,"Velocity":56,"Duration":370920,"SoundDuration":370920,"Delta":205167748},{"NoteNumber":70,"Velocity":67,"Duration":370920,"SoundDuration":370920,"Delta":205167748},{"NoteNumber":70,"Velocity":48,"Duration":166913,"SoundDuration":166913,"Delta":205353208},{"NoteNumber":73,"Velocity":48,"Duration":166913,"SoundDuration":166913,"Delta":205353208},{"NoteNumber":82,"Velocity":48,"Duration":166913,"SoundDuration":166913,"Delta":205353208},{"NoteNumber":77,"Velocity":48,"Duration":166913,"SoundDuration":166913,"Delta":205353208},{"NoteNumber":77,"Velocity":48,"Duration":166913,"SoundDuration":166913,"Delta":205538668},{"NoteNumber":70,"Velocity":48,"Duration":166913,"SoundDuration":166913,"Delta":205538668},{"NoteNumber":73,"Velocity":48,"Duration":166913,"SoundDuration":166913,"Delta":205538668},{"NoteNumber":82,"Velocity":48,"Duration":166913,"SoundDuration":166913,"Delta":205538668},{"NoteNumber":56,"Velocity":61,"Duration":185459,"SoundDuration":185459,"Delta":205538668},{"NoteNumber":61,"Velocity":59,"Duration":357653,"SoundDuration":357653,"Delta":205724128},{"NoteNumber":65,"Velocity":70,"Duration":357653,"SoundDuration":357653,"Delta":205724128},{"NoteNumber":68,"Velocity":48,"Duration":160944,"SoundDuration":160944,"Delta":205902955},{"NoteNumber":73,"Velocity":48,"Duration":160944,"SoundDuration":160944,"Delta":205902955},{"NoteNumber":80,"Velocity":48,"Duration":160944,"SoundDuration":160944,"Delta":205902955},{"NoteNumber":77,"Velocity":48,"Duration":160944,"SoundDuration":160944,"Delta":205902955},{"NoteNumber":77,"Velocity":48,"Duration":160944,"SoundDuration":160944,"Delta":206081782},{"NoteNumber":68,"Velocity":48,"Duration":160944,"SoundDuration":160944,"Delta":206081782},{"NoteNumber":73,"Velocity":48,"Duration":160944,"SoundDuration":160944,"Delta":206081782},{"NoteNumber":80,"Velocity":48,"Duration":160944,"SoundDuration":160944,"Delta":206081782},{"NoteNumber":58,"Velocity":59,"Duration":178826,"SoundDuration":178826,"Delta":206081782},{"NoteNumber":61,"Velocity":60,"Duration":348388,"SoundDuration":348388,"Delta":206260608},{"NoteNumber":65,"Velocity":71,"Duration":348388,"SoundDuration":348388,"Delta":206260608},{"NoteNumber":67,"Velocity":48,"Duration":155731,"SoundDuration":155731,"Delta":206436294},{"NoteNumber":73,"Velocity":48,"Duration":155731,"SoundDuration":155731,"Delta":206436294},{"NoteNumber":79,"Velocity":48,"Duration":155731,"SoundDuration":155731,"Delta":206436294},{"NoteNumber":77,"Velocity":48,"Duration":155731,"SoundDuration":155731,"Delta":206436294},{"NoteNumber":77,"Velocity":48,"Duration":152749,"SoundDuration":152749,"Delta":206608997},{"NoteNumber":67,"Velocity":48,"Duration":152749,"SoundDuration":152749,"Delta":206608997},{"NoteNumber":73,"Velocity":48,"Duration":152749,"SoundDuration":152749,"Delta":206608997},{"NoteNumber":79,"Velocity":48,"Duration":152749,"SoundDuration":152749,"Delta":206608997},{"NoteNumber":44,"Velocity":49,"Duration":169721,"SoundDuration":169721,"Delta":206608997},{"NoteNumber":54,"Velocity":60,"Duration":169721,"SoundDuration":169721,"Delta":206608997},{"NoteNumber":92,"Velocity":79,"Duration":532772,"SoundDuration":532772,"Delta":206778719},{"NoteNumber":87,"Velocity":67,"Duration":532772,"SoundDuration":532772,"Delta":206778719},{"NoteNumber":84,"Velocity":67,"Duration":532772,"SoundDuration":532772,"Delta":206778719},{"NoteNumber":80,"Velocity":67,"Duration":532772,"SoundDuration":532772,"Delta":206778719},{"NoteNumber":56,"Velocity":45,"Duration":347312,"SoundDuration":347312,"Delta":206778719},{"NoteNumber":60,"Velocity":45,"Duration":347312,"SoundDuration":347312,"Delta":206778719},{"NoteNumber":63,"Velocity":45,"Duration":347312,"SoundDuration":347312,"Delta":206778719},{"NoteNumber":68,"Velocity":53,"Duration":347312,"SoundDuration":347312,"Delta":206778719},{"NoteNumber":66,"Velocity":48,"Duration":159044,"SoundDuration":159044,"Delta":206948440},{"NoteNumber":72,"Velocity":48,"Duration":159044,"SoundDuration":159044,"Delta":206948440},{"NoteNumber":78,"Velocity":48,"Duration":159044,"SoundDuration":159044,"Delta":206948440},{"NoteNumber":75,"Velocity":48,"Duration":159044,"SoundDuration":159044,"Delta":206948440},{"NoteNumber":75,"Velocity":48,"Duration":166914,"SoundDuration":166914,"Delta":207126031},{"NoteNumber":66,"Velocity":48,"Duration":166914,"SoundDuration":166914,"Delta":207126031},{"NoteNumber":72,"Velocity":48,"Duration":166914,"SoundDuration":166914,"Delta":207126031},{"NoteNumber":78,"Velocity":48,"Duration":166914,"SoundDuration":166914,"Delta":207126031},{"NoteNumber":25,"Velocity":63,"Duration":139094,"SoundDuration":139094,"Delta":207126031},{"NoteNumber":37,"Velocity":70,"Duration":185460,"SoundDuration":185460,"Delta":207126031},{"NoteNumber":73,"Velocity":67,"Duration":175929,"SoundDuration":175929,"Delta":207311491},{"NoteNumber":77,"Velocity":67,"Duration":175929,"SoundDuration":175929,"Delta":207311491},{"NoteNumber":80,"Velocity":67,"Duration":875122,"SoundDuration":875122,"Delta":207311491},{"NoteNumber":85,"Velocity":79,"Duration":875122,"SoundDuration":875122,"Delta":207311491},{"NoteNumber":44,"Velocity":66,"Duration":360880,"SoundDuration":360880,"Delta":207311491},{"NoteNumber":53,"Velocity":66,"Duration":360880,"SoundDuration":360880,"Delta":207311491},{"NoteNumber":61,"Velocity":78,"Duration":360880,"SoundDuration":360880,"Delta":207311491},{"NoteNumber":68,"Velocity":40,"Duration":162396,"SoundDuration":162396,"Delta":207491932},{"NoteNumber":77,"Velocity":48,"Duration":162396,"SoundDuration":162396,"Delta":207491932},{"NoteNumber":73,"Velocity":40,"Duration":162396,"SoundDuration":162396,"Delta":207491932},{"NoteNumber":65,"Velocity":40,"Duration":162396,"SoundDuration":162396,"Delta":207491932},{"NoteNumber":73,"Velocity":40,"Duration":162396,"SoundDuration":162396,"Delta":207672372},{"NoteNumber":68,"Velocity":40,"Duration":162396,"SoundDuration":162396,"Delta":207672372},{"NoteNumber":77,"Velocity":48,"Duration":162396,"SoundDuration":162396,"Delta":207672372},{"NoteNumber":65,"Velocity":40,"Duration":162396,"SoundDuration":162396,"Delta":207672372},{"NoteNumber":53,"Velocity":56,"Duration":180440,"SoundDuration":180440,"Delta":207672372},{"NoteNumber":56,"Velocity":60,"Duration":351370,"SoundDuration":351370,"Delta":207852812},{"NoteNumber":65,"Velocity":71,"Duration":351370,"SoundDuration":351370,"Delta":207852812},{"NoteNumber":85,"Velocity":48,"Duration":333801,"SoundDuration":333801,"Delta":208028497},{"NoteNumber":73,"Velocity":40,"Duration":158116,"SoundDuration":158116,"Delta":208028497},{"NoteNumber":77,"Velocity":40,"Duration":158116,"SoundDuration":158116,"Delta":208028497},{"NoteNumber":80,"Velocity":40,"Duration":333801,"SoundDuration":333801,"Delta":208028497},{"NoteNumber":85,"Velocity":48,"Duration":175685,"SoundDuration":175685,"Delta":208204183},{"NoteNumber":80,"Velocity":40,"Duration":175685,"SoundDuration":175685,"Delta":208204183},{"NoteNumber":73,"Velocity":40,"Duration":158116,"SoundDuration":158116,"Delta":208204183},{"NoteNumber":77,"Velocity":40,"Duration":158116,"SoundDuration":158116,"Delta":208204183},{"NoteNumber":53,"Velocity":63,"Duration":175685,"SoundDuration":175685,"Delta":208204183},{"NoteNumber":56,"Velocity":63,"Duration":351370,"SoundDuration":351370,"Delta":208379868},{"NoteNumber":63,"Velocity":75,"Duration":351370,"SoundDuration":351370,"Delta":208379868},{"NoteNumber":65,"Velocity":75,"Duration":351370,"SoundDuration":351370,"Delta":208379868},{"NoteNumber":77,"Velocity":40,"Duration":158116,"SoundDuration":158116,"Delta":208555553},{"NoteNumber":72,"Velocity":40,"Duration":158116,"SoundDuration":158116,"Delta":208555553},{"NoteNumber":75,"Velocity":40,"Duration":158116,"SoundDuration":158116,"Delta":208555553},{"NoteNumber":84,"Velocity":48,"Duration":158116,"SoundDuration":158116,"Delta":208555553},{"NoteNumber":77,"Velocity":40,"Duration":158116,"SoundDuration":158116,"Delta":208731238},{"NoteNumber":75,"Velocity":40,"Duration":158116,"SoundDuration":158116,"Delta":208731238},{"NoteNumber":84,"Velocity":48,"Duration":158116,"SoundDuration":158116,"Delta":208731238},{"NoteNumber":72,"Velocity":40,"Duration":158116,"SoundDuration":158116,"Delta":208731238},{"NoteNumber":53,"Velocity":64,"Duration":175685,"SoundDuration":175685,"Delta":208731238},{"NoteNumber":56,"Velocity":62,"Duration":363318,"SoundDuration":363318,"Delta":208906923},{"NoteNumber":62,"Velocity":73,"Duration":363318,"SoundDuration":363318,"Delta":208906923},{"NoteNumber":65,"Velocity":73,"Duration":363318,"SoundDuration":363318,"Delta":208906923},{"NoteNumber":71,"Velocity":40,"Duration":169798,"SoundDuration":169798,"Delta":209079575},{"NoteNumber":74,"Velocity":40,"Duration":169798,"SoundDuration":169798,"Delta":209079575},{"NoteNumber":83,"Velocity":48,"Duration":169798,"SoundDuration":169798,"Delta":209079575},{"NoteNumber":77,"Velocity":40,"Duration":169798,"SoundDuration":169798,"Delta":209079575},{"NoteNumber":77,"Velocity":40,"Duration":187813,"SoundDuration":187813,"Delta":209270242},{"NoteNumber":83,"Velocity":48,"Duration":187813,"SoundDuration":187813,"Delta":209270242},{"NoteNumber":71,"Velocity":40,"Duration":187813,"SoundDuration":187813,"Delta":209270242},{"NoteNumber":74,"Velocity":40,"Duration":187813,"SoundDuration":187813,"Delta":209270242},{"NoteNumber":44,"Velocity":67,"Duration":208681,"SoundDuration":208681,"Delta":209270242},{"NoteNumber":55,"Velocity":67,"Duration":208681,"SoundDuration":208681,"Delta":209270242},{"NoteNumber":94,"Velocity":79,"Duration":1610970,"SoundDuration":1610970,"Delta":209478923},{"NoteNumber":89,"Velocity":67,"Duration":1610970,"SoundDuration":1610970,"Delta":209478923},{"NoteNumber":85,"Velocity":67,"Duration":1610970,"SoundDuration":1610970,"Delta":209478923},{"NoteNumber":82,"Velocity":67,"Duration":164595,"SoundDuration":164595,"Delta":209478923},{"NoteNumber":65,"Velocity":56,"Duration":370920,"SoundDuration":370920,"Delta":209478923},{"NoteNumber":58,"Velocity":56,"Duration":370920,"SoundDuration":370920,"Delta":209478923},{"NoteNumber":61,"Velocity":56,"Duration":370920,"SoundDuration":370920,"Delta":209478923},{"NoteNumber":70,"Velocity":67,"Duration":370920,"SoundDuration":370920,"Delta":209478923},{"NoteNumber":70,"Velocity":40,"Duration":166913,"SoundDuration":166913,"Delta":209664383},{"NoteNumber":73,"Velocity":40,"Duration":166913,"SoundDuration":166913,"Delta":209664383},{"NoteNumber":82,"Velocity":48,"Duration":166913,"SoundDuration":166913,"Delta":209664383},{"NoteNumber":77,"Velocity":40,"Duration":166913,"SoundDuration":166913,"Delta":209664383},{"NoteNumber":77,"Velocity":40,"Duration":166913,"SoundDuration":166913,"Delta":209849843},{"NoteNumber":70,"Velocity":40,"Duration":166913,"SoundDuration":166913,"Delta":209849843},{"NoteNumber":73,"Velocity":40,"Duration":166913,"SoundDuration":166913,"Delta":209849843},{"NoteNumber":82,"Velocity":48,"Duration":166913,"SoundDuration":166913,"Delta":209849843},{"NoteNumber":56,"Velocity":61,"Duration":185459,"SoundDuration":185459,"Delta":209849843},{"NoteNumber":61,"Velocity":70,"Duration":357653,"SoundDuration":357653,"Delta":210035303},{"NoteNumber":65,"Velocity":70,"Duration":357653,"SoundDuration":357653,"Delta":210035303},{"NoteNumber":68,"Velocity":40,"Duration":160944,"SoundDuration":160944,"Delta":210214130},{"NoteNumber":73,"Velocity":40,"Duration":160944,"SoundDuration":160944,"Delta":210214130},{"NoteNumber":80,"Velocity":48,"Duration":160944,"SoundDuration":160944,"Delta":210214130},{"NoteNumber":77,"Velocity":40,"Duration":160944,"SoundDuration":160944,"Delta":210214130},{"NoteNumber":77,"Velocity":40,"Duration":160944,"SoundDuration":160944,"Delta":210392957},{"NoteNumber":68,"Velocity":40,"Duration":160944,"SoundDuration":160944,"Delta":210392957},{"NoteNumber":73,"Velocity":40,"Duration":160944,"SoundDuration":160944,"Delta":210392957},{"NoteNumber":80,"Velocity":48,"Duration":160944,"SoundDuration":160944,"Delta":210392957},{"NoteNumber":58,"Velocity":59,"Duration":178826,"SoundDuration":178826,"Delta":210392957},{"NoteNumber":58,"Velocity":71,"Duration":348388,"SoundDuration":348388,"Delta":210571783},{"NoteNumber":61,"Velocity":71,"Duration":348388,"SoundDuration":348388,"Delta":210571783},{"NoteNumber":67,"Velocity":40,"Duration":155731,"SoundDuration":155731,"Delta":210747469},{"NoteNumber":73,"Velocity":40,"Duration":155731,"SoundDuration":155731,"Delta":210747469},{"NoteNumber":79,"Velocity":48,"Duration":155731,"SoundDuration":155731,"Delta":210747469},{"NoteNumber":77,"Velocity":48,"Duration":155731,"SoundDuration":155731,"Delta":210747469},{"NoteNumber":77,"Velocity":48,"Duration":152749,"SoundDuration":152749,"Delta":210920172},{"NoteNumber":67,"Velocity":40,"Duration":152749,"SoundDuration":152749,"Delta":210920172},{"NoteNumber":73,"Velocity":40,"Duration":152749,"SoundDuration":152749,"Delta":210920172},{"NoteNumber":79,"Velocity":48,"Duration":152749,"SoundDuration":152749,"Delta":210920172},{"NoteNumber":44,"Velocity":55,"Duration":169721,"SoundDuration":169721,"Delta":210920172},{"NoteNumber":54,"Velocity":65,"Duration":169721,"SoundDuration":169721,"Delta":210920172},{"NoteNumber":92,"Velocity":79,"Duration":532772,"SoundDuration":532772,"Delta":211089894},{"NoteNumber":87,"Velocity":67,"Duration":532772,"SoundDuration":532772,"Delta":211089894},{"NoteNumber":84,"Velocity":67,"Duration":532772,"SoundDuration":532772,"Delta":211089894},{"NoteNumber":80,"Velocity":67,"Duration":532772,"SoundDuration":532772,"Delta":211089894},{"NoteNumber":56,"Velocity":45,"Duration":347312,"SoundDuration":347312,"Delta":211089894},{"NoteNumber":60,"Velocity":45,"Duration":347312,"SoundDuration":347312,"Delta":211089894},{"NoteNumber":63,"Velocity":45,"Duration":347312,"SoundDuration":347312,"Delta":211089894},{"NoteNumber":68,"Velocity":53,"Duration":347312,"SoundDuration":347312,"Delta":211089894},{"NoteNumber":66,"Velocity":48,"Duration":159044,"SoundDuration":159044,"Delta":211259615},{"NoteNumber":72,"Velocity":48,"Duration":159044,"SoundDuration":159044,"Delta":211259615},{"NoteNumber":78,"Velocity":48,"Duration":159044,"SoundDuration":159044,"Delta":211259615},{"NoteNumber":75,"Velocity":48,"Duration":159044,"SoundDuration":159044,"Delta":211259615},{"NoteNumber":75,"Velocity":48,"Duration":166914,"SoundDuration":166914,"Delta":211437206},{"NoteNumber":66,"Velocity":48,"Duration":166914,"SoundDuration":166914,"Delta":211437206},{"NoteNumber":72,"Velocity":48,"Duration":166914,"SoundDuration":166914,"Delta":211437206},{"NoteNumber":78,"Velocity":48,"Duration":166914,"SoundDuration":166914,"Delta":211437206},{"NoteNumber":25,"Velocity":63,"Duration":185460,"SoundDuration":185460,"Delta":211437206},{"NoteNumber":37,"Velocity":70,"Duration":185460,"SoundDuration":185460,"Delta":211437206},{"NoteNumber":85,"Velocity":89,"Duration":185460,"SoundDuration":185460,"Delta":211622666},{"NoteNumber":80,"Velocity":75,"Duration":185460,"SoundDuration":185460,"Delta":211622666},{"NoteNumber":77,"Velocity":75,"Duration":185460,"SoundDuration":185460,"Delta":211622666},{"NoteNumber":73,"Velocity":89,"Duration":556380,"SoundDuration":556380,"Delta":211622666},{"NoteNumber":44,"Velocity":57,"Duration":806713,"SoundDuration":806713,"Delta":211622666},{"NoteNumber":53,"Velocity":57,"Duration":806713,"SoundDuration":806713,"Delta":211622666},{"NoteNumber":61,"Velocity":68,"Duration":806713,"SoundDuration":806713,"Delta":211622666},{"NoteNumber":77,"Velocity":62,"Duration":185460,"SoundDuration":185460,"Delta":211808126},{"NoteNumber":85,"Velocity":62,"Duration":185460,"SoundDuration":185460,"Delta":211808126},{"NoteNumber":80,"Velocity":62,"Duration":185460,"SoundDuration":185460,"Delta":211993586},{"NoteNumber":89,"Velocity":62,"Duration":185460,"SoundDuration":185460,"Delta":211993586},{"NoteNumber":89,"Velocity":62,"Duration":166889,"SoundDuration":166889,"Delta":212179046},{"NoteNumber":84,"Velocity":76,"Duration":500667,"SoundDuration":500667,"Delta":212179046},{"NoteNumber":96,"Velocity":76,"Duration":500667,"SoundDuration":500667,"Delta":212179046},{"NoteNumber":87,"Velocity":62,"Duration":166889,"SoundDuration":166889,"Delta":212345935},{"NoteNumber":65,"Velocity":59,"Duration":1281708,"SoundDuration":1281708,"Delta":212429380},{"NoteNumber":89,"Velocity":62,"Duration":166889,"SoundDuration":166889,"Delta":212512825},{"NoteNumber":85,"Velocity":62,"Duration":166889,"SoundDuration":166889,"Delta":212679714},{"NoteNumber":89,"Velocity":62,"Duration":166889,"SoundDuration":166889,"Delta":212679714},{"NoteNumber":101,"Velocity":92,"Duration":500667,"SoundDuration":500667,"Delta":212679714},{"NoteNumber":73,"Velocity":71,"Duration":751001,"SoundDuration":751001,"Delta":212679714},{"NoteNumber":80,"Velocity":62,"Duration":166889,"SoundDuration":166889,"Delta":212846603},{"NoteNumber":56,"Velocity":57,"Duration":781041,"SoundDuration":781041,"Delta":212930047},{"NoteNumber":89,"Velocity":62,"Duration":166889,"SoundDuration":166889,"Delta":213013492},{"NoteNumber":85,"Velocity":62,"Duration":166889,"SoundDuration":166889,"Delta":213180381},{"NoteNumber":92,"Velocity":70,"Duration":530707,"SoundDuration":530707,"Delta":213180381},{"NoteNumber":77,"Velocity":62,"Duration":176902,"SoundDuration":176902,"Delta":213347270},{"NoteNumber":72,"Velocity":59,"Duration":280373,"SoundDuration":280373,"Delta":213430715},{"NoteNumber":80,"Velocity":62,"Duration":186915,"SoundDuration":186915,"Delta":213524173},{"NoteNumber":84,"Velocity":62,"Duration":166666,"SoundDuration":166666,"Delta":213711089},{"NoteNumber":88,"Velocity":62,"Duration":166666,"SoundDuration":166666,"Delta":213711089},{"NoteNumber":96,"Velocity":91,"Duration":500000,"SoundDuration":500000,"Delta":213711089},{"NoteNumber":56,"Velocity":56,"Duration":1025229,"SoundDuration":1025229,"Delta":213711089},{"NoteNumber":60,"Velocity":56,"Duration":1025229,"SoundDuration":1025229,"Delta":213711089},{"NoteNumber":64,"Velocity":67,"Duration":1025229,"SoundDuration":1025229,"Delta":213711089},{"NoteNumber":84,"Velocity":62,"Duration":166666,"SoundDuration":166666,"Delta":213877755},{"NoteNumber":37,"Velocity":54,"Duration":250000,"SoundDuration":250000,"Delta":213961089},{"NoteNumber":44,"Velocity":54,"Duration":250000,"SoundDuration":250000,"Delta":213961089},{"NoteNumber":88,"Velocity":62,"Duration":166666,"SoundDuration":166666,"Delta":214044422},{"NoteNumber":84,"Velocity":62,"Duration":166666,"SoundDuration":166666,"Delta":214211089},{"NoteNumber":91,"Velocity":78,"Duration":525229,"SoundDuration":525229,"Delta":214211089},{"NoteNumber":52,"Velocity":58,"Duration":250000,"SoundDuration":250000,"Delta":214211089},{"NoteNumber":76,"Velocity":62,"Duration":175076,"SoundDuration":175076,"Delta":214377755},{"NoteNumber":55,"Velocity":61,"Duration":275229,"SoundDuration":275229,"Delta":214461089},{"NoteNumber":79,"Velocity":62,"Duration":183486,"SoundDuration":183486,"Delta":214552832},{"NoteNumber":82,"Velocity":62,"Duration":168067,"SoundDuration":168067,"Delta":214736318},{"NoteNumber":87,"Velocity":62,"Duration":168067,"SoundDuration":168067,"Delta":214736318},{"NoteNumber":94,"Velocity":93,"Duration":504201,"SoundDuration":504201,"Delta":214736318},{"NoteNumber":60,"Velocity":59,"Duration":1042016,"SoundDuration":1042016,"Delta":214736318},{"NoteNumber":63,"Velocity":59,"Duration":756302,"SoundDuration":756302,"Delta":214736318},{"NoteNumber":72,"Velocity":67,"Duration":756302,"SoundDuration":756302,"Delta":214736318},{"NoteNumber":82,"Velocity":62,"Duration":168067,"SoundDuration":168067,"Delta":214904385},{"NoteNumber":54,"Velocity":59,"Duration":789915,"SoundDuration":789915,"Delta":214988419},{"NoteNumber":87,"Velocity":62,"Duration":168067,"SoundDuration":168067,"Delta":215072452},{"NoteNumber":82,"Velocity":62,"Duration":168067,"SoundDuration":168067,"Delta":215240519},{"NoteNumber":90,"Velocity":77,"Duration":537815,"SoundDuration":537815,"Delta":215240519},{"NoteNumber":75,"Velocity":62,"Duration":179271,"SoundDuration":179271,"Delta":215408587},{"NoteNumber":70,"Velocity":61,"Duration":285714,"SoundDuration":285714,"Delta":215492620},{"NoteNumber":78,"Velocity":62,"Duration":190476,"SoundDuration":190476,"Delta":215587858},{"NoteNumber":82,"Velocity":62,"Duration":166666,"SoundDuration":166666,"Delta":215778334},{"NoteNumber":86,"Velocity":62,"Duration":166666,"SoundDuration":166666,"Delta":215778334},{"NoteNumber":94,"Velocity":91,"Duration":500000,"SoundDuration":500000,"Delta":215778334},{"NoteNumber":53,"Velocity":56,"Duration":750000,"SoundDuration":750000,"Delta":215778334},{"NoteNumber":59,"Velocity":56,"Duration":1017857,"SoundDuration":1017857,"Delta":215778334},{"NoteNumber":62,"Velocity":67,"Duration":1017857,"SoundDuration":1017857,"Delta":215778334},{"NoteNumber":82,"Velocity":62,"Duration":166666,"SoundDuration":166666,"Delta":215945001},{"NoteNumber":37,"Velocity":54,"Duration":250000,"SoundDuration":250000,"Delta":216028334},{"NoteNumber":44,"Velocity":54,"Duration":250000,"SoundDuration":250000,"Delta":216028334},{"NoteNumber":86,"Velocity":62,"Duration":166666,"SoundDuration":166666,"Delta":216111668},{"NoteNumber":82,"Velocity":62,"Duration":166666,"SoundDuration":166666,"Delta":216278334},{"NoteNumber":89,"Velocity":78,"Duration":517857,"SoundDuration":517857,"Delta":216278334},{"NoteNumber":53,"Velocity":58,"Duration":517857,"SoundDuration":517857,"Delta":216278334},{"NoteNumber":74,"Velocity":62,"Duration":172619,"SoundDuration":172619,"Delta":216445001},{"NoteNumber":59,"Velocity":61,"Duration":517857,"SoundDuration":517857,"Delta":216528334},{"NoteNumber":82,"Velocity":62,"Duration":178571,"SoundDuration":178571,"Delta":216617620},{"NoteNumber":80,"Velocity":62,"Duration":166666,"SoundDuration":166666,"Delta":216796192},{"NoteNumber":85,"Velocity":62,"Duration":166666,"SoundDuration":166666,"Delta":216796192},{"NoteNumber":92,"Velocity":93,"Duration":500000,"SoundDuration":500000,"Delta":216796192},{"NoteNumber":61,"Velocity":59,"Duration":1017857,"SoundDuration":1017857,"Delta":216796192},{"NoteNumber":65,"Velocity":59,"Duration":750000,"SoundDuration":750000,"Delta":216796192},{"NoteNumber":70,"Velocity":67,"Duration":750000,"SoundDuration":750000,"Delta":216796192},{"NoteNumber":80,"Velocity":62,"Duration":166666,"SoundDuration":166666,"Delta":216962858},{"NoteNumber":49,"Velocity":59,"Duration":767857,"SoundDuration":767857,"Delta":217046192},{"NoteNumber":82,"Velocity":62,"Duration":166666,"SoundDuration":166666,"Delta":217129525},{"NoteNumber":80,"Velocity":62,"Duration":166666,"SoundDuration":166666,"Delta":217296192},{"NoteNumber":85,"Velocity":77,"Duration":517857,"SoundDuration":517857,"Delta":217296192},{"NoteNumber":73,"Velocity":62,"Duration":172619,"SoundDuration":172619,"Delta":217462858},{"NoteNumber":68,"Velocity":61,"Duration":267857,"SoundDuration":267857,"Delta":217546192},{"NoteNumber":80,"Velocity":62,"Duration":178571,"SoundDuration":178571,"Delta":217635477},{"NoteNumber":77,"Velocity":62,"Duration":166666,"SoundDuration":166666,"Delta":217814049},{"NoteNumber":82,"Velocity":62,"Duration":166666,"SoundDuration":166666,"Delta":217814049},{"NoteNumber":89,"Velocity":91,"Duration":500000,"SoundDuration":500000,"Delta":217814049},{"NoteNumber":55,"Velocity":56,"Duration":1025229,"SoundDuration":1025229,"Delta":217814049},{"NoteNumber":58,"Velocity":67,"Duration":1025229,"SoundDuration":1025229,"Delta":217814049},{"NoteNumber":77,"Velocity":62,"Duration":166666,"SoundDuration":166666,"Delta":217980716},{"NoteNumber":37,"Velocity":54,"Duration":250000,"SoundDuration":250000,"Delta":218064049},{"NoteNumber":79,"Velocity":62,"Duration":166666,"SoundDuration":166666,"Delta":218147382},{"NoteNumber":77,"Velocity":62,"Duration":166666,"SoundDuration":166666,"Delta":218314049},{"NoteNumber":82,"Velocity":78,"Duration":525229,"SoundDuration":525229,"Delta":218314049},{"NoteNumber":46,"Velocity":58,"Duration":250000,"SoundDuration":250000,"Delta":218314049},{"NoteNumber":70,"Velocity":62,"Duration":175076,"SoundDuration":175076,"Delta":218480716},{"NoteNumber":54,"Velocity":61,"Duration":275229,"SoundDuration":275229,"Delta":218564049},{"NoteNumber":77,"Velocity":62,"Duration":183486,"SoundDuration":183486,"Delta":218655792},{"NoteNumber":77,"Velocity":62,"Duration":165289,"SoundDuration":165289,"Delta":218839278},{"NoteNumber":84,"Velocity":62,"Duration":165289,"SoundDuration":165289,"Delta":218839278},{"NoteNumber":89,"Velocity":93,"Duration":495868,"SoundDuration":495868,"Delta":218839278},{"NoteNumber":54,"Velocity":61,"Duration":247933,"SoundDuration":247933,"Delta":218839278},{"NoteNumber":56,"Velocity":59,"Duration":1019031,"SoundDuration":1019031,"Delta":218839278},{"NoteNumber":60,"Velocity":59,"Duration":743801,"SoundDuration":743801,"Delta":218839278},{"NoteNumber":68,"Velocity":67,"Duration":743801,"SoundDuration":743801,"Delta":218839278},{"NoteNumber":77,"Velocity":62,"Duration":165289,"SoundDuration":165289,"Delta":219004568},{"NoteNumber":44,"Velocity":59,"Duration":771097,"SoundDuration":771097,"Delta":219087212},{"NoteNumber":78,"Velocity":62,"Duration":165289,"SoundDuration":165289,"Delta":219169857},{"NoteNumber":77,"Velocity":62,"Duration":165289,"SoundDuration":165289,"Delta":219335146},{"NoteNumber":84,"Velocity":77,"Duration":523163,"SoundDuration":523163,"Delta":219335146},{"NoteNumber":72,"Velocity":62,"Duration":174387,"SoundDuration":174387,"Delta":219500436},{"NoteNumber":66,"Velocity":61,"Duration":275229,"SoundDuration":275229,"Delta":219583080},{"NoteNumber":77,"Velocity":62,"Duration":183486,"SoundDuration":183486,"Delta":219674823},{"NoteNumber":75,"Velocity":62,"Duration":166666,"SoundDuration":166666,"Delta":219858309},{"NoteNumber":80,"Velocity":62,"Duration":166666,"SoundDuration":166666,"Delta":219858309},{"NoteNumber":87,"Velocity":91,"Duration":500000,"SoundDuration":500000,"Delta":219858309},{"NoteNumber":53,"Velocity":56,"Duration":750000,"SoundDuration":750000,"Delta":219858309},{"NoteNumber":56,"Velocity":67,"Duration":1027777,"SoundDuration":1027777,"Delta":219858309},{"NoteNumber":75,"Velocity":62,"Duration":166666,"SoundDuration":166666,"Delta":220024976},{"NoteNumber":44,"Velocity":54,"Duration":250000,"SoundDuration":250000,"Delta":220108309},{"NoteNumber":37,"Velocity":54,"Duration":250000,"SoundDuration":250000,"Delta":220108309},{"NoteNumber":77,"Velocity":61,"Duration":166666,"SoundDuration":166666,"Delta":220191643},{"NoteNumber":75,"Velocity":61,"Duration":166666,"SoundDuration":166666,"Delta":220358309},{"NoteNumber":80,"Velocity":77,"Duration":527777,"SoundDuration":527777,"Delta":220358309},{"NoteNumber":53,"Velocity":57,"Duration":527777,"SoundDuration":527777,"Delta":220358309},{"NoteNumber":68,"Velocity":60,"Duration":175925,"SoundDuration":175925,"Delta":220524976},{"NoteNumber":56,"Velocity":59,"Duration":525711,"SoundDuration":525711,"Delta":220608309},{"NoteNumber":75,"Velocity":60,"Duration":185185,"SoundDuration":185185,"Delta":220700902},{"NoteNumber":73,"Velocity":60,"Duration":495868,"SoundDuration":495868,"Delta":220886087},{"NoteNumber":77,"Velocity":60,"Duration":165289,"SoundDuration":165289,"Delta":220886087},{"NoteNumber":85,"Velocity":90,"Duration":495868,"SoundDuration":495868,"Delta":220886087},{"NoteNumber":61,"Velocity":57,"Duration":743801,"SoundDuration":743801,"Delta":220886087},{"NoteNumber":65,"Velocity":64,"Duration":743801,"SoundDuration":743801,"Delta":220886087},{"NoteNumber":76,"Velocity":60,"Duration":165289,"SoundDuration":165289,"Delta":221051377},{"NoteNumber":44,"Velocity":57,"Duration":768595,"SoundDuration":768595,"Delta":221134021},{"NoteNumber":77,"Velocity":59,"Duration":165289,"SoundDuration":165289,"Delta":221216666},{"NoteNumber":73,"Velocity":59,"Duration":165289,"SoundDuration":165289,"Delta":221381955},{"NoteNumber":80,"Velocity":73,"Duration":520661,"SoundDuration":520661,"Delta":221381955},{"NoteNumber":68,"Velocity":58,"Duration":173553,"SoundDuration":173553,"Delta":221547245},{"NoteNumber":64,"Velocity":57,"Duration":1294307,"SoundDuration":1294307,"Delta":221629889},{"NoteNumber":73,"Velocity":58,"Duration":181818,"SoundDuration":181818,"Delta":221720798},{"NoteNumber":72,"Velocity":58,"Duration":495868,"SoundDuration":495868,"Delta":221902616},{"NoteNumber":75,"Velocity":58,"Duration":165289,"SoundDuration":165289,"Delta":221902616},{"NoteNumber":84,"Velocity":85,"Duration":495868,"SoundDuration":495868,"Delta":221902616},{"NoteNumber":55,"Velocity":52,"Duration":1021579,"SoundDuration":1021579,"Delta":221902616},{"NoteNumber":75,"Velocity":58,"Duration":165289,"SoundDuration":165289,"Delta":222067906},{"NoteNumber":37,"Velocity":50,"Duration":247934,"SoundDuration":247934,"Delta":222150550},{"NoteNumber":76,"Velocity":57,"Duration":165289,"SoundDuration":165289,"Delta":222233195},{"NoteNumber":72,"Velocity":57,"Duration":165289,"SoundDuration":165289,"Delta":222398484},{"NoteNumber":79,"Velocity":72,"Duration":525711,"SoundDuration":525711,"Delta":222398484},{"NoteNumber":44,"Velocity":53,"Duration":247933,"SoundDuration":247933,"Delta":222398484},{"NoteNumber":67,"Velocity":57,"Duration":175237,"SoundDuration":175237,"Delta":222563774},{"NoteNumber":55,"Velocity":56,"Duration":525711,"SoundDuration":525711,"Delta":222646418},{"NoteNumber":72,"Velocity":57,"Duration":185185,"SoundDuration":185185,"Delta":222739011},{"NoteNumber":71,"Velocity":56,"Duration":495868,"SoundDuration":495868,"Delta":222924196},{"NoteNumber":75,"Velocity":56,"Duration":165289,"SoundDuration":165289,"Delta":222924196},{"NoteNumber":83,"Velocity":84,"Duration":495868,"SoundDuration":495868,"Delta":222924196},{"NoteNumber":59,"Velocity":53,"Duration":743801,"SoundDuration":743801,"Delta":222924196},{"NoteNumber":63,"Velocity":60,"Duration":743801,"SoundDuration":743801,"Delta":222924196},{"NoteNumber":74,"Velocity":56,"Duration":165289,"SoundDuration":165289,"Delta":223089486},{"NoteNumber":54,"Velocity":49,"Duration":247934,"SoundDuration":247934,"Delta":223172130},{"NoteNumber":75,"Velocity":55,"Duration":165289,"SoundDuration":165289,"Delta":223254775},{"NoteNumber":71,"Velocity":55,"Duration":165289,"SoundDuration":165289,"Delta":223420064},{"NoteNumber":78,"Velocity":69,"Duration":523163,"SoundDuration":523163,"Delta":223420064},{"NoteNumber":44,"Velocity":53,"Duration":523163,"SoundDuration":523163,"Delta":223420064},{"NoteNumber":66,"Velocity":55,"Duration":174387,"SoundDuration":174387,"Delta":223585354},{"NoteNumber":62,"Velocity":54,"Duration":1289301,"SoundDuration":1289301,"Delta":223667998},{"NoteNumber":71,"Velocity":55,"Duration":183486,"SoundDuration":183486,"Delta":223759741},{"NoteNumber":71,"Velocity":54,"Duration":495868,"SoundDuration":495868,"Delta":223943227},{"NoteNumber":74,"Velocity":54,"Duration":165289,"SoundDuration":165289,"Delta":223943227},{"NoteNumber":83,"Velocity":80,"Duration":495868,"SoundDuration":495868,"Delta":223943227},{"NoteNumber":53,"Velocity":49,"Duration":1014072,"SoundDuration":1014072,"Delta":223943227},{"NoteNumber":73,"Velocity":53,"Duration":165289,"SoundDuration":165289,"Delta":224108517},{"NoteNumber":37,"Velocity":46,"Duration":247934,"SoundDuration":247934,"Delta":224191161},{"NoteNumber":74,"Velocity":53,"Duration":165289,"SoundDuration":165289,"Delta":224273806},{"NoteNumber":71,"Velocity":53,"Duration":165289,"SoundDuration":165289,"Delta":224439095},{"NoteNumber":77,"Velocity":67,"Duration":518204,"SoundDuration":518204,"Delta":224439095},{"NoteNumber":44,"Velocity":49,"Duration":247933,"SoundDuration":247933,"Delta":224439095},{"NoteNumber":65,"Velocity":53,"Duration":172734,"SoundDuration":172734,"Delta":224604385},{"NoteNumber":53,"Velocity":52,"Duration":766138,"SoundDuration":766138,"Delta":224687029},{"NoteNumber":71,"Velocity":52,"Duration":180180,"SoundDuration":180180,"Delta":224777120},{"NoteNumber":70,"Velocity":52,"Duration":165289,"SoundDuration":165289,"Delta":224957300},{"NoteNumber":73,"Velocity":52,"Duration":165289,"SoundDuration":165289,"Delta":224957300},{"NoteNumber":82,"Velocity":79,"Duration":495868,"SoundDuration":495868,"Delta":224957300},{"NoteNumber":61,"Velocity":56,"Duration":743801,"SoundDuration":743801,"Delta":224957300},{"NoteNumber":72,"Velocity":52,"Duration":165289,"SoundDuration":165289,"Delta":225122589},{"NoteNumber":49,"Velocity":46,"Duration":495868,"SoundDuration":495868,"Delta":225205234},{"NoteNumber":71,"Velocity":52,"Duration":165289,"SoundDuration":165289,"Delta":225287878},{"NoteNumber":70,"Velocity":51,"Duration":165289,"SoundDuration":165289,"Delta":225453168},{"NoteNumber":73,"Velocity":63,"Duration":525711,"SoundDuration":525711,"Delta":225453168},{"NoteNumber":61,"Velocity":51,"Duration":175237,"SoundDuration":175237,"Delta":225618457},{"NoteNumber":59,"Velocity":50,"Duration":277777,"SoundDuration":277777,"Delta":225701102},{"NoteNumber":70,"Velocity":50,"Duration":185185,"SoundDuration":185185,"Delta":225793694},{"NoteNumber":68,"Velocity":50,"Duration":165289,"SoundDuration":165289,"Delta":225978879},{"NoteNumber":73,"Velocity":50,"Duration":165289,"SoundDuration":165289,"Delta":225978879},{"NoteNumber":80,"Velocity":74,"Duration":495868,"SoundDuration":495868,"Delta":225978879},{"NoteNumber":42,"Velocity":45,"Duration":1019031,"SoundDuration":1019031,"Delta":225978879},{"NoteNumber":49,"Velocity":50,"Duration":743801,"SoundDuration":743801,"Delta":225978879},{"NoteNumber":68,"Velocity":50,"Duration":165289,"SoundDuration":165289,"Delta":226144169},{"NoteNumber":30,"Velocity":43,"Duration":247934,"SoundDuration":247934,"Delta":226226813},{"NoteNumber":70,"Velocity":50,"Duration":165289,"SoundDuration":165289,"Delta":226309458},{"NoteNumber":68,"Velocity":49,"Duration":165289,"SoundDuration":165289,"Delta":226474747},{"NoteNumber":73,"Velocity":62,"Duration":523163,"SoundDuration":523163,"Delta":226474747},{"NoteNumber":49,"Velocity":46,"Duration":523163,"SoundDuration":523163,"Delta":226474747},{"NoteNumber":61,"Velocity":49,"Duration":174387,"SoundDuration":174387,"Delta":226640037},{"NoteNumber":58,"Velocity":48,"Duration":275229,"SoundDuration":275229,"Delta":226722681},{"NoteNumber":70,"Velocity":48,"Duration":183486,"SoundDuration":183486,"Delta":226814425},{"NoteNumber":65,"Velocity":48,"Duration":165289,"SoundDuration":165289,"Delta":226997911},{"NoteNumber":68,"Velocity":48,"Duration":165289,"SoundDuration":165289,"Delta":226997911},{"NoteNumber":77,"Velocity":73,"Duration":495868,"SoundDuration":495868,"Delta":226997911},{"NoteNumber":56,"Velocity":52,"Duration":743801,"SoundDuration":743801,"Delta":226997911},{"NoteNumber":54,"Velocity":52,"Duration":743801,"SoundDuration":743801,"Delta":226997911},{"NoteNumber":67,"Velocity":48,"Duration":165289,"SoundDuration":165289,"Delta":227163200},{"NoteNumber":32,"Velocity":42,"Duration":789985,"SoundDuration":789985,"Delta":227245845},{"NoteNumber":66,"Velocity":48,"Duration":330578,"SoundDuration":330578,"Delta":227328489},{"NoteNumber":68,"Velocity":59,"Duration":542051,"SoundDuration":542051,"Delta":227493779},{"NoteNumber":54,"Velocity":47,"Duration":180683,"SoundDuration":180683,"Delta":227659068},{"NoteNumber":56,"Velocity":46,"Duration":294117,"SoundDuration":294117,"Delta":227741713},{"NoteNumber":60,"Velocity":47,"Duration":196078,"SoundDuration":196078,"Delta":227839752},{"NoteNumber":65,"Velocity":62,"Duration":743801,"SoundDuration":743801,"Delta":228035830},{"NoteNumber":61,"Velocity":62,"Duration":743801,"SoundDuration":743801,"Delta":228035830},{"NoteNumber":73,"Velocity":73,"Duration":743801,"SoundDuration":743801,"Delta":228035830},{"NoteNumber":37,"Velocity":39,"Duration":330578,"SoundDuration":330578,"Delta":228035830},{"NoteNumber":44,"Velocity":46,"Duration":330578,"SoundDuration":330578,"Delta":228035830},{"NoteNumber":53,"Velocity":58,"Duration":165289,"SoundDuration":165289,"Delta":228366409},{"NoteNumber":44,"Velocity":39,"Duration":165289,"SoundDuration":165289,"Delta":228366409},{"NoteNumber":56,"Velocity":58,"Duration":165289,"SoundDuration":165289,"Delta":228531698},{"NoteNumber":49,"Velocity":41,"Duration":165289,"SoundDuration":165289,"Delta":228531698},{"NoteNumber":51,"Velocity":59,"Duration":174387,"SoundDuration":174387,"Delta":228696988},{"NoteNumber":37,"Velocity":33,"Duration":174387,"SoundDuration":174387,"Delta":228696988},{"NoteNumber":44,"Velocity":39,"Duration":174387,"SoundDuration":174387,"Delta":228696988},{"NoteNumber":56,"Velocity":69,"Duration":275229,"SoundDuration":275229,"Delta":228779632},{"NoteNumber":53,"Velocity":58,"Duration":183486,"SoundDuration":183486,"Delta":228871376},{"NoteNumber":49,"Velocity":39,"Duration":183486,"SoundDuration":183486,"Delta":228871376},{"NoteNumber":56,"Velocity":62,"Duration":330578,"SoundDuration":330578,"Delta":229054862},{"NoteNumber":53,"Velocity":62,"Duration":330578,"SoundDuration":330578,"Delta":229054862},{"NoteNumber":61,"Velocity":73,"Duration":743801,"SoundDuration":743801,"Delta":229054862},{"NoteNumber":37,"Velocity":37,"Duration":330578,"SoundDuration":330578,"Delta":229054862},{"NoteNumber":44,"Velocity":44,"Duration":330578,"SoundDuration":330578,"Delta":229054862},{"NoteNumber":53,"Velocity":55,"Duration":165289,"SoundDuration":165289,"Delta":229385440},{"NoteNumber":44,"Velocity":38,"Duration":165289,"SoundDuration":165289,"Delta":229385440},{"NoteNumber":49,"Velocity":38,"Duration":165289,"SoundDuration":165289,"Delta":229385440},{"NoteNumber":65,"Velocity":64,"Duration":165289,"SoundDuration":165289,"Delta":229550730},{"NoteNumber":56,"Velocity":38,"Duration":165289,"SoundDuration":165289,"Delta":229550730},{"NoteNumber":63,"Velocity":64,"Duration":174387,"SoundDuration":174387,"Delta":229716019},{"NoteNumber":51,"Velocity":29,"Duration":174387,"SoundDuration":174387,"Delta":229716019},{"NoteNumber":56,"Velocity":35,"Duration":174387,"SoundDuration":174387,"Delta":229716019},{"NoteNumber":68,"Velocity":79,"Duration":275872,"SoundDuration":275872,"Delta":229798664},{"NoteNumber":65,"Velocity":68,"Duration":184129,"SoundDuration":184129,"Delta":229890407},{"NoteNumber":53,"Velocity":35,"Duration":184129,"SoundDuration":184129,"Delta":229890407},{"NoteNumber":25,"Velocity":65,"Duration":536064,"SoundDuration":536064,"Delta":229982150},{"NoteNumber":37,"Velocity":65,"Duration":536064,"SoundDuration":536064,"Delta":229982150},{"NoteNumber":61,"Velocity":72,"Duration":1842243,"SoundDuration":1842243,"Delta":230074536},{"NoteNumber":69,"Velocity":72,"Duration":530635,"SoundDuration":530635,"Delta":230074536},{"NoteNumber":73,"Velocity":85,"Duration":1842243,"SoundDuration":1842243,"Delta":230074536},{"NoteNumber":45,"Velocity":44,"Duration":1842243,"SoundDuration":1842243,"Delta":230074536},{"NoteNumber":52,"Velocity":44,"Duration":2099583,"SoundDuration":2099583,"Delta":230074536},{"NoteNumber":57,"Velocity":52,"Duration":1842243,"SoundDuration":1842243,"Delta":230074536},{"NoteNumber":64,"Velocity":55,"Duration":173912,"SoundDuration":173912,"Delta":230431258},{"NoteNumber":69,"Velocity":55,"Duration":311844,"SoundDuration":311844,"Delta":230431258},{"NoteNumber":76,"Velocity":64,"Duration":130434,"SoundDuration":130434,"Delta":230431258},{"NoteNumber":42,"Velocity":37,"Duration":173912,"SoundDuration":173912,"Delta":230431258},{"NoteNumber":49,"Velocity":37,"Duration":173912,"SoundDuration":173912,"Delta":230431258},{"NoteNumber":54,"Velocity":44,"Duration":173912,"SoundDuration":173912,"Delta":230431258},{"NoteNumber":64,"Velocity":56,"Duration":137931,"SoundDuration":137931,"Delta":230605171},{"NoteNumber":69,"Velocity":56,"Duration":309350,"SoundDuration":309350,"Delta":230605171},{"NoteNumber":76,"Velocity":66,"Duration":137931,"SoundDuration":137931,"Delta":230605171},{"NoteNumber":42,"Velocity":37,"Duration":137931,"SoundDuration":137931,"Delta":230605171},{"NoteNumber":49,"Velocity":37,"Duration":137931,"SoundDuration":137931,"Delta":230605171},{"NoteNumber":54,"Velocity":44,"Duration":137931,"SoundDuration":137931,"Delta":230605171},{"NoteNumber":63,"Velocity":60,"Duration":136936,"SoundDuration":136936,"Delta":230777585},{"NoteNumber":69,"Velocity":60,"Duration":307079,"SoundDuration":307079,"Delta":230777585},{"NoteNumber":75,"Velocity":71,"Duration":136936,"SoundDuration":136936,"Delta":230777585},{"NoteNumber":43,"Velocity":41,"Duration":136936,"SoundDuration":136936,"Delta":230777585},{"NoteNumber":49,"Velocity":41,"Duration":136936,"SoundDuration":136936,"Delta":230777585},{"NoteNumber":55,"Velocity":49,"Duration":136936,"SoundDuration":136936,"Delta":230777585},{"NoteNumber":63,"Velocity":56,"Duration":135955,"SoundDuration":135955,"Delta":230948709},{"NoteNumber":69,"Velocity":56,"Duration":304841,"SoundDuration":304841,"Delta":230948709},{"NoteNumber":75,"Velocity":66,"Duration":135955,"SoundDuration":135955,"Delta":230948709},{"NoteNumber":43,"Velocity":37,"Duration":135955,"SoundDuration":135955,"Delta":230948709},{"NoteNumber":49,"Velocity":37,"Duration":135955,"SoundDuration":135955,"Delta":230948709},{"NoteNumber":55,"Velocity":44,"Duration":135955,"SoundDuration":135955,"Delta":230948709},{"NoteNumber":63,"Velocity":56,"Duration":134987,"SoundDuration":134987,"Delta":231118563},{"NoteNumber":69,"Velocity":56,"Duration":302634,"SoundDuration":302634,"Delta":231118563},{"NoteNumber":75,"Velocity":66,"Duration":134987,"SoundDuration":134987,"Delta":231118563},{"NoteNumber":43,"Velocity":37,"Duration":134987,"SoundDuration":134987,"Delta":231118563},{"NoteNumber":49,"Velocity":37,"Duration":134987,"SoundDuration":134987,"Delta":231118563},{"NoteNumber":55,"Velocity":44,"Duration":134987,"SoundDuration":134987,"Delta":231118563},{"NoteNumber":62,"Velocity":61,"Duration":134033,"SoundDuration":134033,"Delta":231287164},{"NoteNumber":69,"Velocity":61,"Duration":300459,"SoundDuration":300459,"Delta":231287164},{"NoteNumber":74,"Velocity":72,"Duration":134033,"SoundDuration":134033,"Delta":231287164},{"NoteNumber":44,"Velocity":41,"Duration":134033,"SoundDuration":134033,"Delta":231287164},{"NoteNumber":49,"Velocity":41,"Duration":134033,"SoundDuration":134033,"Delta":231287164},{"NoteNumber":56,"Velocity":49,"Duration":134033,"SoundDuration":134033,"Delta":231287164},{"NoteNumber":62,"Velocity":56,"Duration":133092,"SoundDuration":133092,"Delta":231454531},{"NoteNumber":69,"Velocity":56,"Duration":298313,"SoundDuration":298313,"Delta":231454531},{"NoteNumber":74,"Velocity":66,"Duration":133092,"SoundDuration":133092,"Delta":231454531},{"NoteNumber":44,"Velocity":36,"Duration":133092,"SoundDuration":133092,"Delta":231454531},{"NoteNumber":49,"Velocity":36,"Duration":133092,"SoundDuration":133092,"Delta":231454531},{"NoteNumber":56,"Velocity":42,"Duration":133092,"SoundDuration":133092,"Delta":231454531},{"NoteNumber":62,"Velocity":56,"Duration":132163,"SoundDuration":132163,"Delta":231620682},{"NoteNumber":69,"Velocity":56,"Duration":296098,"SoundDuration":296098,"Delta":231620682},{"NoteNumber":74,"Velocity":66,"Duration":132163,"SoundDuration":132163,"Delta":231620682},{"NoteNumber":44,"Velocity":36,"Duration":132163,"SoundDuration":132163,"Delta":231620682},{"NoteNumber":49,"Velocity":36,"Duration":132163,"SoundDuration":132163,"Delta":231620682},{"NoteNumber":56,"Velocity":42,"Duration":132163,"SoundDuration":132163,"Delta":231620682},{"NoteNumber":61,"Velocity":61,"Duration":343543,"SoundDuration":343543,"Delta":231785632},{"NoteNumber":69,"Velocity":61,"Duration":343543,"SoundDuration":343543,"Delta":231785632},{"NoteNumber":73,"Velocity":72,"Duration":343543,"SoundDuration":343543,"Delta":231785632},{"NoteNumber":45,"Velocity":41,"Duration":343543,"SoundDuration":343543,"Delta":231785632},{"NoteNumber":49,"Velocity":41,"Duration":131147,"SoundDuration":131147,"Delta":231785632},{"NoteNumber":57,"Velocity":49,"Duration":343543,"SoundDuration":343543,"Delta":231785632},{"NoteNumber":61,"Velocity":56,"Duration":224719,"SoundDuration":224719,"Delta":231949400},{"NoteNumber":69,"Velocity":56,"Duration":224719,"SoundDuration":224719,"Delta":231949400},{"NoteNumber":73,"Velocity":66,"Duration":224719,"SoundDuration":224719,"Delta":231949400},{"NoteNumber":45,"Velocity":37,"Duration":224719,"SoundDuration":224719,"Delta":231949400},{"NoteNumber":49,"Velocity":37,"Duration":179775,"SoundDuration":179775,"Delta":231949400},{"NoteNumber":57,"Velocity":44,"Duration":224719,"SoundDuration":224719,"Delta":231949400},{"NoteNumber":25,"Velocity":71,"Duration":556345,"SoundDuration":556345,"Delta":232061760},{"NoteNumber":37,"Velocity":71,"Duration":556345,"SoundDuration":556345,"Delta":232061760},{"NoteNumber":64,"Velocity":79,"Duration":2063104,"SoundDuration":2063104,"Delta":232174119},{"NoteNumber":61,"Velocity":79,"Duration":2063104,"SoundDuration":2063104,"Delta":232174119},{"NoteNumber":68,"Velocity":79,"Duration":2063104,"SoundDuration":2063104,"Delta":232174119},{"NoteNumber":73,"Velocity":93,"Duration":529455,"SoundDuration":529455,"Delta":232174119},{"NoteNumber":46,"Velocity":48,"Duration":2063104,"SoundDuration":2063104,"Delta":232174119},{"NoteNumber":52,"Velocity":48,"Duration":1805712,"SoundDuration":1805712,"Delta":232174119},{"NoteNumber":58,"Velocity":57,"Duration":2063104,"SoundDuration":2063104,"Delta":232174119},{"NoteNumber":73,"Velocity":60,"Duration":298150,"SoundDuration":298150,"Delta":232532543},{"NoteNumber":76,"Velocity":60,"Duration":171032,"SoundDuration":171032,"Delta":232532543},{"NoteNumber":80,"Velocity":60,"Duration":171032,"SoundDuration":171032,"Delta":232532543},{"NoteNumber":85,"Velocity":70,"Duration":128297,"SoundDuration":128297,"Delta":232532543},{"NoteNumber":49,"Velocity":40,"Duration":171032,"SoundDuration":171032,"Delta":232532543},{"NoteNumber":56,"Velocity":40,"Duration":171032,"SoundDuration":171032,"Delta":232532543},{"NoteNumber":61,"Velocity":48,"Duration":171032,"SoundDuration":171032,"Delta":232532543},{"NoteNumber":73,"Velocity":61,"Duration":1533648,"SoundDuration":1533648,"Delta":232703575},{"NoteNumber":76,"Velocity":61,"Duration":127118,"SoundDuration":127118,"Delta":232703575},{"NoteNumber":80,"Velocity":61,"Duration":127118,"SoundDuration":127118,"Delta":232703575},{"NoteNumber":85,"Velocity":72,"Duration":127118,"SoundDuration":127118,"Delta":232703575},{"NoteNumber":49,"Velocity":40,"Duration":127118,"SoundDuration":127118,"Delta":232703575},{"NoteNumber":56,"Velocity":40,"Duration":127118,"SoundDuration":127118,"Delta":232703575},{"NoteNumber":61,"Velocity":48,"Duration":127118,"SoundDuration":127118,"Delta":232703575},{"NoteNumber":72,"Velocity":61,"Duration":126050,"SoundDuration":126050,"Delta":232872977},{"NoteNumber":76,"Velocity":66,"Duration":126050,"SoundDuration":126050,"Delta":232872977},{"NoteNumber":80,"Velocity":66,"Duration":126050,"SoundDuration":126050,"Delta":232872977},{"NoteNumber":84,"Velocity":78,"Duration":126050,"SoundDuration":126050,"Delta":232872977},{"NoteNumber":50,"Velocity":45,"Duration":126050,"SoundDuration":126050,"Delta":232872977},{"NoteNumber":56,"Velocity":45,"Duration":126050,"SoundDuration":126050,"Delta":232872977},{"NoteNumber":62,"Velocity":53,"Duration":126050,"SoundDuration":126050,"Delta":232872977},{"NoteNumber":72,"Velocity":61,"Duration":125000,"SoundDuration":125000,"Delta":233040869},{"NoteNumber":76,"Velocity":61,"Duration":125000,"SoundDuration":125000,"Delta":233040869},{"NoteNumber":80,"Velocity":61,"Duration":125000,"SoundDuration":125000,"Delta":233040869},{"NoteNumber":84,"Velocity":72,"Duration":125000,"SoundDuration":125000,"Delta":233040869},{"NoteNumber":50,"Velocity":40,"Duration":125000,"SoundDuration":125000,"Delta":233040869},{"NoteNumber":56,"Velocity":40,"Duration":125000,"SoundDuration":125000,"Delta":233040869},{"NoteNumber":62,"Velocity":48,"Duration":125000,"SoundDuration":125000,"Delta":233040869},{"NoteNumber":72,"Velocity":61,"Duration":123966,"SoundDuration":123966,"Delta":233207536},{"NoteNumber":76,"Velocity":61,"Duration":123966,"SoundDuration":123966,"Delta":233207536},{"NoteNumber":80,"Velocity":61,"Duration":123966,"SoundDuration":123966,"Delta":233207536},{"NoteNumber":84,"Velocity":72,"Duration":123966,"SoundDuration":123966,"Delta":233207536},{"NoteNumber":50,"Velocity":40,"Duration":123966,"SoundDuration":123966,"Delta":233207536},{"NoteNumber":56,"Velocity":40,"Duration":123966,"SoundDuration":123966,"Delta":233207536},{"NoteNumber":62,"Velocity":48,"Duration":123966,"SoundDuration":123966,"Delta":233207536},{"NoteNumber":71,"Velocity":61,"Duration":122950,"SoundDuration":122950,"Delta":233372741},{"NoteNumber":76,"Velocity":67,"Duration":122950,"SoundDuration":122950,"Delta":233372741},{"NoteNumber":80,"Velocity":67,"Duration":122950,"SoundDuration":122950,"Delta":233372741},{"NoteNumber":83,"Velocity":79,"Duration":122950,"SoundDuration":122950,"Delta":233372741},{"NoteNumber":51,"Velocity":45,"Duration":122950,"SoundDuration":122950,"Delta":233372741},{"NoteNumber":56,"Velocity":45,"Duration":122950,"SoundDuration":122950,"Delta":233372741},{"NoteNumber":63,"Velocity":53,"Duration":122950,"SoundDuration":122950,"Delta":233372741},{"NoteNumber":71,"Velocity":61,"Duration":121951,"SoundDuration":121951,"Delta":233536509},{"NoteNumber":76,"Velocity":61,"Duration":121951,"SoundDuration":121951,"Delta":233536509},{"NoteNumber":80,"Velocity":61,"Duration":121951,"SoundDuration":121951,"Delta":233536509},{"NoteNumber":83,"Velocity":72,"Duration":121951,"SoundDuration":121951,"Delta":233536509},{"NoteNumber":51,"Velocity":39,"Duration":121951,"SoundDuration":121951,"Delta":233536509},{"NoteNumber":56,"Velocity":39,"Duration":121951,"SoundDuration":121951,"Delta":233536509},{"NoteNumber":63,"Velocity":46,"Duration":121951,"SoundDuration":121951,"Delta":233536509},{"NoteNumber":71,"Velocity":61,"Duration":120967,"SoundDuration":120967,"Delta":233698864},{"NoteNumber":76,"Velocity":61,"Duration":120967,"SoundDuration":120967,"Delta":233698864},{"NoteNumber":80,"Velocity":61,"Duration":120967,"SoundDuration":120967,"Delta":233698864},{"NoteNumber":83,"Velocity":72,"Duration":120967,"SoundDuration":120967,"Delta":233698864},{"NoteNumber":51,"Velocity":39,"Duration":120967,"SoundDuration":120967,"Delta":233698864},{"NoteNumber":56,"Velocity":39,"Duration":120967,"SoundDuration":120967,"Delta":233698864},{"NoteNumber":63,"Velocity":46,"Duration":120967,"SoundDuration":120967,"Delta":233698864},{"NoteNumber":70,"Velocity":61,"Duration":120000,"SoundDuration":120000,"Delta":233859832},{"NoteNumber":76,"Velocity":67,"Duration":120000,"SoundDuration":120000,"Delta":233859832},{"NoteNumber":80,"Velocity":67,"Duration":120000,"SoundDuration":120000,"Delta":233859832},{"NoteNumber":82,"Velocity":79,"Duration":120000,"SoundDuration":120000,"Delta":233859832},{"NoteNumber":52,"Velocity":45,"Duration":323043,"SoundDuration":323043,"Delta":233859832},{"NoteNumber":56,"Velocity":45,"Duration":120000,"SoundDuration":120000,"Delta":233859832},{"NoteNumber":64,"Velocity":53,"Duration":120000,"SoundDuration":120000,"Delta":233859832},{"NoteNumber":70,"Velocity":61,"Duration":163043,"SoundDuration":163043,"Delta":234019832},{"NoteNumber":76,"Velocity":61,"Duration":163043,"SoundDuration":163043,"Delta":234019832},{"NoteNumber":80,"Velocity":61,"Duration":163043,"SoundDuration":163043,"Delta":234019832},{"NoteNumber":82,"Velocity":72,"Duration":163043,"SoundDuration":163043,"Delta":234019832},{"NoteNumber":52,"Velocity":40,"Duration":217391,"SoundDuration":217391,"Delta":234019832},{"NoteNumber":56,"Velocity":40,"Duration":163043,"SoundDuration":163043,"Delta":234019832},{"NoteNumber":64,"Velocity":48,"Duration":163043,"SoundDuration":163043,"Delta":234019832},{"NoteNumber":25,"Velocity":78,"Duration":561019,"SoundDuration":561019,"Delta":234128528},{"NoteNumber":37,"Velocity":78,"Duration":561019,"SoundDuration":561019,"Delta":234128528},{"NoteNumber":63,"Velocity":86,"Duration":2073791,"SoundDuration":2073791,"Delta":234237223},{"NoteNumber":61,"Velocity":86,"Duration":2073791,"SoundDuration":2073791,"Delta":234237223},{"NoteNumber":66,"Velocity":86,"Duration":2073791,"SoundDuration":2073791,"Delta":234237223},{"NoteNumber":73,"Velocity":102,"Duration":2073791,"SoundDuration":2073791,"Delta":234237223},{"NoteNumber":54,"Velocity":52,"Duration":472815,"SoundDuration":472815,"Delta":234237223},{"NoteNumber":49,"Velocity":52,"Duration":2073791,"SoundDuration":2073791,"Delta":234237223},{"NoteNumber":45,"Velocity":52,"Duration":2073791,"SoundDuration":2073791,"Delta":234237223},{"NoteNumber":51,"Velocity":52,"Duration":2073791,"SoundDuration":2073791,"Delta":234237223},{"NoteNumber":57,"Velocity":62,"Duration":1820413,"SoundDuration":1820413,"Delta":234237223},{"NoteNumber":81,"Velocity":62,"Duration":122950,"SoundDuration":122950,"Delta":234587088},{"NoteNumber":85,"Velocity":62,"Duration":122950,"SoundDuration":122950,"Delta":234587088},{"NoteNumber":87,"Velocity":62,"Duration":122950,"SoundDuration":122950,"Delta":234587088},{"NoteNumber":93,"Velocity":73,"Duration":92213,"SoundDuration":92213,"Delta":234587088},{"NoteNumber":54,"Velocity":42,"Duration":286885,"SoundDuration":286885,"Delta":234587088},{"NoteNumber":61,"Velocity":42,"Duration":122950,"SoundDuration":122950,"Delta":234587088},{"NoteNumber":63,"Velocity":42,"Duration":122950,"SoundDuration":122950,"Delta":234587088},{"NoteNumber":66,"Velocity":50,"Duration":122950,"SoundDuration":122950,"Delta":234587088},{"NoteNumber":81,"Velocity":64,"Duration":122950,"SoundDuration":122950,"Delta":234751023},{"NoteNumber":85,"Velocity":64,"Duration":122950,"SoundDuration":122950,"Delta":234751023},{"NoteNumber":87,"Velocity":64,"Duration":122950,"SoundDuration":122950,"Delta":234751023},{"NoteNumber":93,"Velocity":75,"Duration":122950,"SoundDuration":122950,"Delta":234751023},{"NoteNumber":54,"Velocity":42,"Duration":1559992,"SoundDuration":1559992,"Delta":234751023},{"NoteNumber":61,"Velocity":42,"Duration":122950,"SoundDuration":122950,"Delta":234751023},{"NoteNumber":63,"Velocity":42,"Duration":122950,"SoundDuration":122950,"Delta":234751023},{"NoteNumber":66,"Velocity":50,"Duration":122950,"SoundDuration":122950,"Delta":234751023},{"NoteNumber":80,"Velocity":65,"Duration":122950,"SoundDuration":122950,"Delta":234914957},{"NoteNumber":85,"Velocity":70,"Duration":122950,"SoundDuration":122950,"Delta":234914957},{"NoteNumber":87,"Velocity":70,"Duration":122950,"SoundDuration":122950,"Delta":234914957},{"NoteNumber":92,"Velocity":83,"Duration":122950,"SoundDuration":122950,"Delta":234914957},{"NoteNumber":55,"Velocity":43,"Duration":122950,"SoundDuration":122950,"Delta":234914957},{"NoteNumber":61,"Velocity":48,"Duration":122950,"SoundDuration":122950,"Delta":234914957},{"NoteNumber":63,"Velocity":48,"Duration":122950,"SoundDuration":122950,"Delta":234914957},{"NoteNumber":67,"Velocity":57,"Duration":122950,"SoundDuration":122950,"Delta":234914957},{"NoteNumber":80,"Velocity":65,"Duration":122950,"SoundDuration":122950,"Delta":235078892},{"NoteNumber":85,"Velocity":65,"Duration":122950,"SoundDuration":122950,"Delta":235078892},{"NoteNumber":87,"Velocity":65,"Duration":122950,"SoundDuration":122950,"Delta":235078892},{"NoteNumber":92,"Velocity":77,"Duration":122950,"SoundDuration":122950,"Delta":235078892},{"NoteNumber":55,"Velocity":43,"Duration":122950,"SoundDuration":122950,"Delta":235078892},{"NoteNumber":61,"Velocity":43,"Duration":122950,"SoundDuration":122950,"Delta":235078892},{"NoteNumber":63,"Velocity":43,"Duration":122950,"SoundDuration":122950,"Delta":235078892},{"NoteNumber":67,"Velocity":51,"Duration":122950,"SoundDuration":122950,"Delta":235078892},{"NoteNumber":80,"Velocity":66,"Duration":123458,"SoundDuration":123458,"Delta":235242826},{"NoteNumber":85,"Velocity":66,"Duration":123458,"SoundDuration":123458,"Delta":235242826},{"NoteNumber":87,"Velocity":66,"Duration":123458,"SoundDuration":123458,"Delta":235242826},{"NoteNumber":92,"Velocity":78,"Duration":123458,"SoundDuration":123458,"Delta":235242826},{"NoteNumber":55,"Velocity":44,"Duration":123458,"SoundDuration":123458,"Delta":235242826},{"NoteNumber":61,"Velocity":44,"Duration":123458,"SoundDuration":123458,"Delta":235242826},{"NoteNumber":63,"Velocity":44,"Duration":123458,"SoundDuration":123458,"Delta":235242826},{"NoteNumber":67,"Velocity":52,"Duration":123458,"SoundDuration":123458,"Delta":235242826},{"NoteNumber":79,"Velocity":67,"Duration":125964,"SoundDuration":125964,"Delta":235407952},{"NoteNumber":85,"Velocity":73,"Duration":125964,"SoundDuration":125964,"Delta":235407952},{"NoteNumber":87,"Velocity":73,"Duration":125964,"SoundDuration":125964,"Delta":235407952},{"NoteNumber":91,"Velocity":87,"Duration":125964,"SoundDuration":125964,"Delta":235407952},{"NoteNumber":56,"Velocity":44,"Duration":125964,"SoundDuration":125964,"Delta":235407952},{"NoteNumber":61,"Velocity":50,"Duration":125964,"SoundDuration":125964,"Delta":235407952},{"NoteNumber":63,"Velocity":50,"Duration":125964,"SoundDuration":125964,"Delta":235407952},{"NoteNumber":68,"Velocity":59,"Duration":125964,"SoundDuration":125964,"Delta":235407952},{"NoteNumber":79,"Velocity":68,"Duration":128575,"SoundDuration":128575,"Delta":235576289},{"NoteNumber":85,"Velocity":68,"Duration":128575,"SoundDuration":128575,"Delta":235576289},{"NoteNumber":87,"Velocity":68,"Duration":128575,"SoundDuration":128575,"Delta":235576289},{"NoteNumber":91,"Velocity":80,"Duration":128575,"SoundDuration":128575,"Delta":235576289},{"NoteNumber":56,"Velocity":45,"Duration":128575,"SoundDuration":128575,"Delta":235576289},{"NoteNumber":61,"Velocity":44,"Duration":128575,"SoundDuration":128575,"Delta":235576289},{"NoteNumber":63,"Velocity":44,"Duration":128575,"SoundDuration":128575,"Delta":235576289},{"NoteNumber":68,"Velocity":52,"Duration":128575,"SoundDuration":128575,"Delta":235576289},{"NoteNumber":79,"Velocity":68,"Duration":131006,"SoundDuration":131006,"Delta":235748249},{"NoteNumber":85,"Velocity":68,"Duration":131006,"SoundDuration":131006,"Delta":235748249},{"NoteNumber":87,"Velocity":68,"Duration":131006,"SoundDuration":131006,"Delta":235748249},{"NoteNumber":91,"Velocity":81,"Duration":131006,"SoundDuration":131006,"Delta":235748249},{"NoteNumber":56,"Velocity":45,"Duration":131006,"SoundDuration":131006,"Delta":235748249},{"NoteNumber":61,"Velocity":44,"Duration":131006,"SoundDuration":131006,"Delta":235748249},{"NoteNumber":63,"Velocity":44,"Duration":131006,"SoundDuration":131006,"Delta":235748249},{"NoteNumber":68,"Velocity":52,"Duration":131006,"SoundDuration":131006,"Delta":235748249},{"NoteNumber":78,"Velocity":69,"Duration":134133,"SoundDuration":134133,"Delta":235923503},{"NoteNumber":85,"Velocity":76,"Duration":134133,"SoundDuration":134133,"Delta":235923503},{"NoteNumber":87,"Velocity":76,"Duration":134133,"SoundDuration":134133,"Delta":235923503},{"NoteNumber":90,"Velocity":90,"Duration":134133,"SoundDuration":134133,"Delta":235923503},{"NoteNumber":57,"Velocity":46,"Duration":335428,"SoundDuration":335428,"Delta":235923503},{"NoteNumber":61,"Velocity":52,"Duration":134133,"SoundDuration":134133,"Delta":235923503},{"NoteNumber":63,"Velocity":52,"Duration":134133,"SoundDuration":134133,"Delta":235923503},{"NoteNumber":69,"Velocity":61,"Duration":134133,"SoundDuration":134133,"Delta":235923503},{"NoteNumber":78,"Velocity":70,"Duration":156250,"SoundDuration":156250,"Delta":236102682},{"NoteNumber":85,"Velocity":70,"Duration":156250,"SoundDuration":156250,"Delta":236102682},{"NoteNumber":87,"Velocity":70,"Duration":156250,"SoundDuration":156250,"Delta":236102682},{"NoteNumber":90,"Velocity":82,"Duration":156250,"SoundDuration":156250,"Delta":236102682},{"NoteNumber":57,"Velocity":46,"Duration":208333,"SoundDuration":208333,"Delta":236102682},{"NoteNumber":61,"Velocity":46,"Duration":156250,"SoundDuration":156250,"Delta":236102682},{"NoteNumber":63,"Velocity":46,"Duration":156250,"SoundDuration":156250,"Delta":236102682},{"NoteNumber":69,"Velocity":55,"Duration":156250,"SoundDuration":156250,"Delta":236102682},{"NoteNumber":37,"Velocity":78,"Duration":522003,"SoundDuration":522003,"Delta":236206848},{"NoteNumber":25,"Velocity":78,"Duration":522003,"SoundDuration":522003,"Delta":236206848},{"NoteNumber":61,"Velocity":86,"Duration":1832572,"SoundDuration":1832572,"Delta":236311015},{"NoteNumber":65,"Velocity":86,"Duration":1832572,"SoundDuration":1832572,"Delta":236311015},{"NoteNumber":68,"Velocity":86,"Duration":1832572,"SoundDuration":1832572,"Delta":236311015},{"NoteNumber":73,"Velocity":102,"Duration":1832572,"SoundDuration":1832572,"Delta":236311015},{"NoteNumber":44,"Velocity":52,"Duration":1832572,"SoundDuration":1832572,"Delta":236311015},{"NoteNumber":49,"Velocity":52,"Duration":1832572,"SoundDuration":1832572,"Delta":236311015},{"NoteNumber":53,"Velocity":52,"Duration":1649797,"SoundDuration":1649797,"Delta":236311015},{"NoteNumber":56,"Velocity":62,"Duration":756743,"SoundDuration":756743,"Delta":236311015},{"NoteNumber":97,"Velocity":73,"Duration":112968,"SoundDuration":112968,"Delta":236653539},{"NoteNumber":85,"Velocity":62,"Duration":112968,"SoundDuration":112968,"Delta":236653539},{"NoteNumber":73,"Velocity":51,"Duration":112968,"SoundDuration":112968,"Delta":236653539},{"NoteNumber":61,"Velocity":43,"Duration":112968,"SoundDuration":112968,"Delta":236653539},{"NoteNumber":85,"Velocity":68,"Duration":112968,"SoundDuration":112968,"Delta":236804164},{"NoteNumber":97,"Velocity":81,"Duration":112968,"SoundDuration":112968,"Delta":236804164},{"NoteNumber":89,"Velocity":68,"Duration":112968,"SoundDuration":112968,"Delta":236804164},{"NoteNumber":61,"Velocity":47,"Duration":112968,"SoundDuration":112968,"Delta":236804164},{"NoteNumber":73,"Velocity":56,"Duration":112968,"SoundDuration":112968,"Delta":236804164},{"NoteNumber":65,"Velocity":47,"Duration":112968,"SoundDuration":112968,"Delta":236804164},{"NoteNumber":92,"Velocity":76,"Duration":112968,"SoundDuration":112968,"Delta":236954790},{"NoteNumber":80,"Velocity":64,"Duration":112968,"SoundDuration":112968,"Delta":236954790},{"NoteNumber":68,"Velocity":53,"Duration":112968,"SoundDuration":112968,"Delta":236954790},{"NoteNumber":56,"Velocity":44,"Duration":264451,"SoundDuration":264451,"Delta":236954790},{"NoteNumber":92,"Velocity":76,"Duration":113826,"SoundDuration":113826,"Delta":237105415},{"NoteNumber":80,"Velocity":64,"Duration":113826,"SoundDuration":113826,"Delta":237105415},{"NoteNumber":68,"Velocity":53,"Duration":113826,"SoundDuration":113826,"Delta":237105415},{"NoteNumber":56,"Velocity":44,"Duration":261433,"SoundDuration":261433,"Delta":237105415},{"NoteNumber":80,"Velocity":68,"Duration":109665,"SoundDuration":109665,"Delta":237257183},{"NoteNumber":89,"Velocity":68,"Duration":109665,"SoundDuration":109665,"Delta":237257183},{"NoteNumber":92,"Velocity":81,"Duration":109665,"SoundDuration":109665,"Delta":237257183},{"NoteNumber":61,"Velocity":47,"Duration":109665,"SoundDuration":109665,"Delta":237257183},{"NoteNumber":56,"Velocity":47,"Duration":886404,"SoundDuration":886404,"Delta":237257183},{"NoteNumber":65,"Velocity":47,"Duration":109665,"SoundDuration":109665,"Delta":237257183},{"NoteNumber":68,"Velocity":56,"Duration":109665,"SoundDuration":109665,"Delta":237257183},{"NoteNumber":94,"Velocity":73,"Duration":109665,"SoundDuration":109665,"Delta":237403403},{"NoteNumber":82,"Velocity":62,"Duration":109665,"SoundDuration":109665,"Delta":237403403},{"NoteNumber":70,"Velocity":51,"Duration":109665,"SoundDuration":109665,"Delta":237403403},{"NoteNumber":58,"Velocity":43,"Duration":109665,"SoundDuration":109665,"Delta":237403403},{"NoteNumber":82,"Velocity":62,"Duration":116477,"SoundDuration":116477,"Delta":237549623},{"NoteNumber":94,"Velocity":73,"Duration":116477,"SoundDuration":116477,"Delta":237549623},{"NoteNumber":58,"Velocity":43,"Duration":116477,"SoundDuration":116477,"Delta":237549623},{"NoteNumber":70,"Velocity":51,"Duration":116477,"SoundDuration":116477,"Delta":237549623},{"NoteNumber":82,"Velocity":68,"Duration":109665,"SoundDuration":109665,"Delta":237704927},{"NoteNumber":89,"Velocity":68,"Duration":109665,"SoundDuration":109665,"Delta":237704927},{"NoteNumber":94,"Velocity":81,"Duration":109665,"SoundDuration":109665,"Delta":237704927},{"NoteNumber":61,"Velocity":47,"Duration":109665,"SoundDuration":109665,"Delta":237704927},{"NoteNumber":58,"Velocity":47,"Duration":109665,"SoundDuration":109665,"Delta":237704927},{"NoteNumber":65,"Velocity":47,"Duration":109665,"SoundDuration":109665,"Delta":237704927},{"NoteNumber":70,"Velocity":56,"Duration":109665,"SoundDuration":109665,"Delta":237704927},{"NoteNumber":77,"Velocity":63,"Duration":109665,"SoundDuration":109665,"Delta":237851147},{"NoteNumber":89,"Velocity":75,"Duration":109665,"SoundDuration":109665,"Delta":237851147},{"NoteNumber":53,"Velocity":44,"Duration":255885,"SoundDuration":255885,"Delta":237851147},{"NoteNumber":65,"Velocity":52,"Duration":109665,"SoundDuration":109665,"Delta":237851147},{"NoteNumber":77,"Velocity":63,"Duration":109665,"SoundDuration":109665,"Delta":237997367},{"NoteNumber":89,"Velocity":75,"Duration":109665,"SoundDuration":109665,"Delta":237997367},{"NoteNumber":53,"Velocity":44,"Duration":146220,"SoundDuration":146220,"Delta":237997367},{"NoteNumber":65,"Velocity":52,"Duration":109665,"SoundDuration":109665,"Delta":237997367},{"NoteNumber":89,"Velocity":81,"Duration":108869,"SoundDuration":108869,"Delta":238143587},{"NoteNumber":85,"Velocity":68,"Duration":108869,"SoundDuration":108869,"Delta":238143587},{"NoteNumber":77,"Velocity":68,"Duration":108869,"SoundDuration":108869,"Delta":238143587},{"NoteNumber":58,"Velocity":47,"Duration":108869,"SoundDuration":108869,"Delta":238143587},{"NoteNumber":65,"Velocity":56,"Duration":108869,"SoundDuration":108869,"Delta":238143587},{"NoteNumber":61,"Velocity":47,"Duration":108869,"SoundDuration":108869,"Delta":238143587},{"NoteNumber":53,"Velocity":47,"Duration":108869,"SoundDuration":108869,"Delta":238143587},{"NoteNumber":92,"Velocity":74,"Duration":108869,"SoundDuration":108869,"Delta":238288746},{"NoteNumber":80,"Velocity":62,"Duration":108869,"SoundDuration":108869,"Delta":238288746},{"NoteNumber":68,"Velocity":51,"Duration":108869,"SoundDuration":108869,"Delta":238288746},{"NoteNumber":56,"Velocity":43,"Duration":108869,"SoundDuration":108869,"Delta":238288746},{"NoteNumber":85,"Velocity":74,"Duration":108869,"SoundDuration":108869,"Delta":238433905},{"NoteNumber":73,"Velocity":62,"Duration":108869,"SoundDuration":108869,"Delta":238433905},{"NoteNumber":61,"Velocity":51,"Duration":108869,"SoundDuration":108869,"Delta":238433905},{"NoteNumber":49,"Velocity":43,"Duration":108869,"SoundDuration":108869,"Delta":238433905},{"NoteNumber":85,"Velocity":81,"Duration":106549,"SoundDuration":106549,"Delta":238579064},{"NoteNumber":80,"Velocity":68,"Duration":106549,"SoundDuration":106549,"Delta":238579064},{"NoteNumber":73,"Velocity":68,"Duration":106549,"SoundDuration":106549,"Delta":238579064},{"NoteNumber":61,"Velocity":56,"Duration":106549,"SoundDuration":106549,"Delta":238579064},{"NoteNumber":56,"Velocity":47,"Duration":106549,"SoundDuration":106549,"Delta":238579064},{"NoteNumber":49,"Velocity":47,"Duration":106549,"SoundDuration":106549,"Delta":238579064},{"NoteNumber":92,"Velocity":75,"Duration":106549,"SoundDuration":106549,"Delta":238721130},{"NoteNumber":80,"Velocity":63,"Duration":106549,"SoundDuration":106549,"Delta":238721130},{"NoteNumber":68,"Velocity":52,"Duration":106549,"SoundDuration":106549,"Delta":238721130},{"NoteNumber":56,"Velocity":44,"Duration":106549,"SoundDuration":106549,"Delta":238721130},{"NoteNumber":82,"Velocity":75,"Duration":114696,"SoundDuration":114696,"Delta":238863196},{"NoteNumber":70,"Velocity":63,"Duration":114696,"SoundDuration":114696,"Delta":238863196},{"NoteNumber":58,"Velocity":52,"Duration":114696,"SoundDuration":114696,"Delta":238863196},{"NoteNumber":46,"Velocity":44,"Duration":114696,"SoundDuration":114696,"Delta":238863196},{"NoteNumber":82,"Velocity":81,"Duration":105797,"SoundDuration":105797,"Delta":239016124},{"NoteNumber":77,"Velocity":68,"Duration":105797,"SoundDuration":105797,"Delta":239016124},{"NoteNumber":70,"Velocity":68,"Duration":105797,"SoundDuration":105797,"Delta":239016124},{"NoteNumber":58,"Velocity":56,"Duration":105797,"SoundDuration":105797,"Delta":239016124},{"NoteNumber":53,"Velocity":47,"Duration":105797,"SoundDuration":105797,"Delta":239016124},{"NoteNumber":46,"Velocity":47,"Duration":105797,"SoundDuration":105797,"Delta":239016124},{"NoteNumber":85,"Velocity":74,"Duration":105797,"SoundDuration":105797,"Delta":239157188},{"NoteNumber":73,"Velocity":62,"Duration":105797,"SoundDuration":105797,"Delta":239157188},{"NoteNumber":61,"Velocity":51,"Duration":105797,"SoundDuration":105797,"Delta":239157188},{"NoteNumber":49,"Velocity":43,"Duration":105797,"SoundDuration":105797,"Delta":239157188},{"NoteNumber":80,"Velocity":74,"Duration":105797,"SoundDuration":105797,"Delta":239298252},{"NoteNumber":68,"Velocity":62,"Duration":105797,"SoundDuration":105797,"Delta":239298252},{"NoteNumber":56,"Velocity":51,"Duration":105797,"SoundDuration":105797,"Delta":239298252},{"NoteNumber":44,"Velocity":43,"Duration":105797,"SoundDuration":105797,"Delta":239298252},{"NoteNumber":80,"Velocity":81,"Duration":105797,"SoundDuration":105797,"Delta":239439315},{"NoteNumber":77,"Velocity":68,"Duration":105797,"SoundDuration":105797,"Delta":239439315},{"NoteNumber":68,"Velocity":68,"Duration":105797,"SoundDuration":105797,"Delta":239439315},{"NoteNumber":56,"Velocity":56,"Duration":105797,"SoundDuration":105797,"Delta":239439315},{"NoteNumber":53,"Velocity":47,"Duration":105797,"SoundDuration":105797,"Delta":239439315},{"NoteNumber":44,"Velocity":47,"Duration":105797,"SoundDuration":105797,"Delta":239439315},{"NoteNumber":82,"Velocity":73,"Duration":105797,"SoundDuration":105797,"Delta":239580379},{"NoteNumber":70,"Velocity":62,"Duration":105797,"SoundDuration":105797,"Delta":239580379},{"NoteNumber":58,"Velocity":51,"Duration":105797,"SoundDuration":105797,"Delta":239580379},{"NoteNumber":46,"Velocity":43,"Duration":105797,"SoundDuration":105797,"Delta":239580379},{"NoteNumber":77,"Velocity":73,"Duration":112968,"SoundDuration":112968,"Delta":239721443},{"NoteNumber":65,"Velocity":62,"Duration":112968,"SoundDuration":112968,"Delta":239721443},{"NoteNumber":53,"Velocity":51,"Duration":112968,"SoundDuration":112968,"Delta":239721443},{"NoteNumber":41,"Velocity":43,"Duration":112968,"SoundDuration":112968,"Delta":239721443},{"NoteNumber":77,"Velocity":81,"Duration":109665,"SoundDuration":109665,"Delta":239872068},{"NoteNumber":73,"Velocity":68,"Duration":109665,"SoundDuration":109665,"Delta":239872068},{"NoteNumber":65,"Velocity":68,"Duration":109665,"SoundDuration":109665,"Delta":239872068},{"NoteNumber":46,"Velocity":47,"Duration":109665,"SoundDuration":109665,"Delta":239872068},{"NoteNumber":53,"Velocity":56,"Duration":109665,"SoundDuration":109665,"Delta":239872068},{"NoteNumber":49,"Velocity":47,"Duration":109665,"SoundDuration":109665,"Delta":239872068},{"NoteNumber":41,"Velocity":47,"Duration":109665,"SoundDuration":109665,"Delta":239872068},{"NoteNumber":80,"Velocity":74,"Duration":109665,"SoundDuration":109665,"Delta":240018288},{"NoteNumber":68,"Velocity":62,"Duration":109665,"SoundDuration":109665,"Delta":240018288},{"NoteNumber":56,"Velocity":51,"Duration":109665,"SoundDuration":109665,"Delta":240018288},{"NoteNumber":44,"Velocity":43,"Duration":109665,"SoundDuration":109665,"Delta":240018288},{"NoteNumber":73,"Velocity":74,"Duration":109665,"SoundDuration":109665,"Delta":240164508},{"NoteNumber":61,"Velocity":62,"Duration":109665,"SoundDuration":109665,"Delta":240164508},{"NoteNumber":49,"Velocity":51,"Duration":109665,"SoundDuration":109665,"Delta":240164508},{"NoteNumber":37,"Velocity":43,"Duration":109665,"SoundDuration":109665,"Delta":240164508},{"NoteNumber":73,"Velocity":81,"Duration":112124,"SoundDuration":112124,"Delta":240310728},{"NoteNumber":68,"Velocity":68,"Duration":112124,"SoundDuration":112124,"Delta":240310728},{"NoteNumber":61,"Velocity":68,"Duration":112124,"SoundDuration":112124,"Delta":240310728},{"NoteNumber":49,"Velocity":56,"Duration":112124,"SoundDuration":112124,"Delta":240310728},{"NoteNumber":44,"Velocity":47,"Duration":112124,"SoundDuration":112124,"Delta":240310728},{"NoteNumber":37,"Velocity":47,"Duration":112124,"SoundDuration":112124,"Delta":240310728},{"NoteNumber":77,"Velocity":73,"Duration":112124,"SoundDuration":112124,"Delta":240460227},{"NoteNumber":65,"Velocity":62,"Duration":112124,"SoundDuration":112124,"Delta":240460227},{"NoteNumber":53,"Velocity":51,"Duration":112124,"SoundDuration":112124,"Delta":240460227},{"NoteNumber":41,"Velocity":43,"Duration":112124,"SoundDuration":112124,"Delta":240460227},{"NoteNumber":70,"Velocity":73,"Duration":112124,"SoundDuration":112124,"Delta":240609727},{"NoteNumber":58,"Velocity":62,"Duration":112124,"SoundDuration":112124,"Delta":240609727},{"NoteNumber":46,"Velocity":51,"Duration":112124,"SoundDuration":112124,"Delta":240609727},{"NoteNumber":34,"Velocity":43,"Duration":112124,"SoundDuration":112124,"Delta":240609727},{"NoteNumber":70,"Velocity":81,"Duration":115580,"SoundDuration":115580,"Delta":240759226},{"NoteNumber":65,"Velocity":68,"Duration":115580,"SoundDuration":115580,"Delta":240759226},{"NoteNumber":58,"Velocity":68,"Duration":115580,"SoundDuration":115580,"Delta":240759226},{"NoteNumber":41,"Velocity":47,"Duration":115580,"SoundDuration":115580,"Delta":240759226},{"NoteNumber":46,"Velocity":56,"Duration":115580,"SoundDuration":115580,"Delta":240759226},{"NoteNumber":34,"Velocity":47,"Duration":115580,"SoundDuration":115580,"Delta":240759226},{"NoteNumber":73,"Velocity":74,"Duration":115580,"SoundDuration":115580,"Delta":240913333},{"NoteNumber":61,"Velocity":62,"Duration":115580,"SoundDuration":115580,"Delta":240913333},{"NoteNumber":49,"Velocity":51,"Duration":115580,"SoundDuration":115580,"Delta":240913333},{"NoteNumber":37,"Velocity":43,"Duration":115580,"SoundDuration":115580,"Delta":240913333},{"NoteNumber":68,"Velocity":74,"Duration":115580,"SoundDuration":115580,"Delta":241067440},{"NoteNumber":56,"Velocity":62,"Duration":115580,"SoundDuration":115580,"Delta":241067440},{"NoteNumber":44,"Velocity":51,"Duration":115580,"SoundDuration":115580,"Delta":241067440},{"NoteNumber":32,"Velocity":43,"Duration":115580,"SoundDuration":115580,"Delta":241067440},{"NoteNumber":70,"Velocity":81,"Duration":119984,"SoundDuration":119984,"Delta":241221547},{"NoteNumber":58,"Velocity":68,"Duration":119984,"SoundDuration":119984,"Delta":241221547},{"NoteNumber":46,"Velocity":56,"Duration":119984,"SoundDuration":119984,"Delta":241221547},{"NoteNumber":34,"Velocity":47,"Duration":119984,"SoundDuration":119984,"Delta":241221547},{"NoteNumber":65,"Velocity":73,"Duration":127712,"SoundDuration":127712,"Delta":241382725},{"NoteNumber":53,"Velocity":62,"Duration":127712,"SoundDuration":127712,"Delta":241382725},{"NoteNumber":41,"Velocity":51,"Duration":127712,"SoundDuration":127712,"Delta":241382725},{"NoteNumber":29,"Velocity":43,"Duration":127712,"SoundDuration":127712,"Delta":241382725},{"NoteNumber":68,"Velocity":73,"Duration":136420,"SoundDuration":136420,"Delta":241554248},{"NoteNumber":56,"Velocity":62,"Duration":136420,"SoundDuration":136420,"Delta":241554248},{"NoteNumber":44,"Velocity":51,"Duration":136420,"SoundDuration":136420,"Delta":241554248},{"NoteNumber":32,"Velocity":43,"Duration":136420,"SoundDuration":136420,"Delta":241554248},{"NoteNumber":49,"Velocity":78,"Duration":333945,"SoundDuration":333945,"Delta":241737849},{"NoteNumber":61,"Velocity":92,"Duration":333945,"SoundDuration":333945,"Delta":241737849},{"NoteNumber":25,"Velocity":58,"Duration":333945,"SoundDuration":333945,"Delta":241737849},{"NoteNumber":37,"Velocity":69,"Duration":333945,"SoundDuration":333945,"Delta":241737849},{"NoteNumber":65,"Velocity":66,"Duration":150275,"SoundDuration":150275,"Delta":242071794},{"NoteNumber":68,"Velocity":66,"Duration":150275,"SoundDuration":150275,"Delta":242071794},{"NoteNumber":73,"Velocity":66,"Duration":150275,"SoundDuration":150275,"Delta":242071794},{"NoteNumber":80,"Velocity":83,"Duration":150275,"SoundDuration":150275,"Delta":242071794},{"NoteNumber":44,"Velocity":49,"Duration":150275,"SoundDuration":150275,"Delta":242071794},{"NoteNumber":49,"Velocity":49,"Duration":150275,"SoundDuration":150275,"Delta":242071794},{"NoteNumber":56,"Velocity":62,"Duration":150275,"SoundDuration":150275,"Delta":242071794},{"NoteNumber":77,"Velocity":66,"Duration":150275,"SoundDuration":150275,"Delta":242075969},{"NoteNumber":53,"Velocity":49,"Duration":150275,"SoundDuration":150275,"Delta":242075969},{"NoteNumber":73,"Velocity":70,"Duration":917571,"SoundDuration":917571,"Delta":242238767},{"NoteNumber":77,"Velocity":70,"Duration":917571,"SoundDuration":917571,"Delta":242238767},{"NoteNumber":80,"Velocity":70,"Duration":917571,"SoundDuration":917571,"Delta":242238767},{"NoteNumber":85,"Velocity":88,"Duration":917571,"SoundDuration":917571,"Delta":242238767},{"NoteNumber":56,"Velocity":52,"Duration":917571,"SoundDuration":917571,"Delta":242238767},{"NoteNumber":49,"Velocity":52,"Duration":917571,"SoundDuration":917571,"Delta":242238767},{"NoteNumber":53,"Velocity":52,"Duration":917571,"SoundDuration":917571,"Delta":242238767},{"NoteNumber":61,"Velocity":52,"Duration":917571,"SoundDuration":917571,"Delta":242238767},{"NoteNumber":65,"Velocity":66,"Duration":917571,"SoundDuration":917571,"Delta":242238767},{"NoteNumber":65,"Velocity":70,"Duration":333945,"SoundDuration":333945,"Delta":243156338},{"NoteNumber":68,"Velocity":70,"Duration":333945,"SoundDuration":333945,"Delta":243156338},{"NoteNumber":73,"Velocity":70,"Duration":333945,"SoundDuration":333945,"Delta":243156338},{"NoteNumber":77,"Velocity":70,"Duration":333945,"SoundDuration":333945,"Delta":243156338},{"NoteNumber":80,"Velocity":89,"Duration":333945,"SoundDuration":333945,"Delta":243156338},{"NoteNumber":44,"Velocity":52,"Duration":333945,"SoundDuration":333945,"Delta":243156338},{"NoteNumber":49,"Velocity":52,"Duration":333945,"SoundDuration":333945,"Delta":243156338},{"NoteNumber":53,"Velocity":52,"Duration":333945,"SoundDuration":333945,"Delta":243156338},{"NoteNumber":56,"Velocity":66,"Duration":333945,"SoundDuration":333945,"Delta":243156338},{"NoteNumber":56,"Velocity":90,"Duration":166972,"SoundDuration":166972,"Delta":243490284},{"NoteNumber":32,"Velocity":67,"Duration":166972,"SoundDuration":166972,"Delta":243490284},{"NoteNumber":49,"Velocity":78,"Duration":333945,"SoundDuration":333945,"Delta":243657257},{"NoteNumber":61,"Velocity":92,"Duration":333945,"SoundDuration":333945,"Delta":243657257},{"NoteNumber":25,"Velocity":58,"Duration":333945,"SoundDuration":333945,"Delta":243657257},{"NoteNumber":37,"Velocity":69,"Duration":333945,"SoundDuration":333945,"Delta":243657257},{"NoteNumber":65,"Velocity":66,"Duration":150275,"SoundDuration":150275,"Delta":243991202},{"NoteNumber":68,"Velocity":66,"Duration":150275,"SoundDuration":150275,"Delta":243991202},{"NoteNumber":73,"Velocity":66,"Duration":150275,"SoundDuration":150275,"Delta":243991202},{"NoteNumber":80,"Velocity":83,"Duration":150275,"SoundDuration":150275,"Delta":243991202},{"NoteNumber":44,"Velocity":49,"Duration":150275,"SoundDuration":150275,"Delta":243991202},{"NoteNumber":49,"Velocity":49,"Duration":150275,"SoundDuration":150275,"Delta":243991202},{"NoteNumber":56,"Velocity":62,"Duration":150275,"SoundDuration":150275,"Delta":243991202},{"NoteNumber":77,"Velocity":66,"Duration":150275,"SoundDuration":150275,"Delta":243995377},{"NoteNumber":53,"Velocity":49,"Duration":150275,"SoundDuration":150275,"Delta":243995377},{"NoteNumber":73,"Velocity":70,"Duration":931822,"SoundDuration":931822,"Delta":244158175},{"NoteNumber":77,"Velocity":70,"Duration":931822,"SoundDuration":931822,"Delta":244158175},{"NoteNumber":80,"Velocity":70,"Duration":931822,"SoundDuration":931822,"Delta":244158175},{"NoteNumber":85,"Velocity":88,"Duration":931822,"SoundDuration":931822,"Delta":244158175},{"NoteNumber":56,"Velocity":52,"Duration":931822,"SoundDuration":931822,"Delta":244158175},{"NoteNumber":49,"Velocity":52,"Duration":931822,"SoundDuration":931822,"Delta":244158175},{"NoteNumber":53,"Velocity":52,"Duration":931822,"SoundDuration":931822,"Delta":244158175},{"NoteNumber":61,"Velocity":52,"Duration":931822,"SoundDuration":931822,"Delta":244158175},{"NoteNumber":65,"Velocity":66,"Duration":931822,"SoundDuration":931822,"Delta":244158175},{"NoteNumber":65,"Velocity":70,"Duration":336757,"SoundDuration":336757,"Delta":245089997},{"NoteNumber":68,"Velocity":70,"Duration":336757,"SoundDuration":336757,"Delta":245089997},{"NoteNumber":73,"Velocity":70,"Duration":336757,"SoundDuration":336757,"Delta":245089997},{"NoteNumber":77,"Velocity":70,"Duration":336757,"SoundDuration":336757,"Delta":245089997},{"NoteNumber":80,"Velocity":89,"Duration":336757,"SoundDuration":336757,"Delta":245089997},{"NoteNumber":44,"Velocity":52,"Duration":336757,"SoundDuration":336757,"Delta":245089997},{"NoteNumber":49,"Velocity":52,"Duration":336757,"SoundDuration":336757,"Delta":245089997},{"NoteNumber":53,"Velocity":52,"Duration":336757,"SoundDuration":336757,"Delta":245089997},{"NoteNumber":56,"Velocity":66,"Duration":336757,"SoundDuration":336757,"Delta":245089997},{"NoteNumber":56,"Velocity":90,"Duration":168378,"SoundDuration":168378,"Delta":245426754},{"NoteNumber":32,"Velocity":67,"Duration":168378,"SoundDuration":168378,"Delta":245426754},{"NoteNumber":49,"Velocity":78,"Duration":336757,"SoundDuration":336757,"Delta":245595133},{"NoteNumber":61,"Velocity":92,"Duration":336757,"SoundDuration":336757,"Delta":245595133},{"NoteNumber":25,"Velocity":58,"Duration":336757,"SoundDuration":336757,"Delta":245595133},{"NoteNumber":37,"Velocity":69,"Duration":336757,"SoundDuration":336757,"Delta":245595133},{"NoteNumber":65,"Velocity":66,"Duration":151540,"SoundDuration":151540,"Delta":245931890},{"NoteNumber":68,"Velocity":66,"Duration":151540,"SoundDuration":151540,"Delta":245931890},{"NoteNumber":73,"Velocity":66,"Duration":151540,"SoundDuration":151540,"Delta":245931890},{"NoteNumber":80,"Velocity":83,"Duration":151540,"SoundDuration":151540,"Delta":245931890},{"NoteNumber":44,"Velocity":49,"Duration":151540,"SoundDuration":151540,"Delta":245931890},{"NoteNumber":49,"Velocity":49,"Duration":151540,"SoundDuration":151540,"Delta":245931890},{"NoteNumber":56,"Velocity":62,"Duration":151540,"SoundDuration":151540,"Delta":245931890},{"NoteNumber":77,"Velocity":66,"Duration":151540,"SoundDuration":151540,"Delta":245936099},{"NoteNumber":53,"Velocity":49,"Duration":151540,"SoundDuration":151540,"Delta":245936099},{"NoteNumber":73,"Velocity":70,"Duration":1509709,"SoundDuration":1509709,"Delta":246100268},{"NoteNumber":77,"Velocity":70,"Duration":1509709,"SoundDuration":1509709,"Delta":246100268},{"NoteNumber":80,"Velocity":70,"Duration":1509709,"SoundDuration":1509709,"Delta":246100268},{"NoteNumber":85,"Velocity":88,"Duration":1509709,"SoundDuration":1509709,"Delta":246100268},{"NoteNumber":56,"Velocity":52,"Duration":991485,"SoundDuration":991485,"Delta":246100268},{"NoteNumber":49,"Velocity":52,"Duration":991485,"SoundDuration":991485,"Delta":246100268},{"NoteNumber":53,"Velocity":52,"Duration":991485,"SoundDuration":991485,"Delta":246100268},{"NoteNumber":61,"Velocity":52,"Duration":991485,"SoundDuration":991485,"Delta":246100268},{"NoteNumber":65,"Velocity":66,"Duration":991485,"SoundDuration":991485,"Delta":246100268},{"NoteNumber":25,"Velocity":72,"Duration":518224,"SoundDuration":518224,"Delta":247091753},{"NoteNumber":37,"Velocity":82,"Duration":518224,"SoundDuration":518224,"Delta":247091753},{"NoteNumber":73,"Velocity":77,"Duration":2116574,"SoundDuration":2116574,"Delta":247609977},{"NoteNumber":77,"Velocity":77,"Duration":2116574,"SoundDuration":2116574,"Delta":247609977},{"NoteNumber":80,"Velocity":77,"Duration":2116574,"SoundDuration":2116574,"Delta":247609977},{"NoteNumber":85,"Velocity":96,"Duration":2116574,"SoundDuration":2116574,"Delta":247609977},{"NoteNumber":56,"Velocity":57,"Duration":1554671,"SoundDuration":1554671,"Delta":247609977},{"NoteNumber":44,"Velocity":57,"Duration":1554671,"SoundDuration":1554671,"Delta":247609977},{"NoteNumber":53,"Velocity":57,"Duration":1554671,"SoundDuration":1554671,"Delta":247609977},{"NoteNumber":61,"Velocity":72,"Duration":1554671,"SoundDuration":1554671,"Delta":247609977},{"NoteNumber":25,"Velocity":79,"Duration":561903,"SoundDuration":561903,"Delta":249164649},{"NoteNumber":37,"Velocity":90,"Duration":561903,"SoundDuration":561903,"Delta":249164649},{"NoteNumber":73,"Velocity":77,"Duration":1911239,"SoundDuration":1911239,"Delta":249726552},{"NoteNumber":77,"Velocity":77,"Duration":1911239,"SoundDuration":1911239,"Delta":249726552},{"NoteNumber":80,"Velocity":77,"Duration":1911239,"SoundDuration":1911239,"Delta":249726552},{"NoteNumber":85,"Velocity":96,"Duration":1911239,"SoundDuration":1911239,"Delta":249726552},{"NoteNumber":44,"Velocity":57,"Duration":1911239,"SoundDuration":1911239,"Delta":249726552},{"NoteNumber":53,"Velocity":57,"Duration":1072720,"SoundDuration":1072720,"Delta":249726552},{"NoteNumber":56,"Velocity":57,"Duration":1188803,"SoundDuration":1188803,"Delta":249726552},{"NoteNumber":61,"Velocity":72,"Duration":1304530,"SoundDuration":1304530,"Delta":249726552},{"NoteNumber":49,"Velocity":58,"Duration":112864,"SoundDuration":112864,"Delta":250574249},{"NoteNumber":53,"Velocity":60,"Duration":950678,"SoundDuration":950678,"Delta":250687114},{"NoteNumber":56,"Velocity":62,"Duration":838519,"SoundDuration":838519,"Delta":250799273},{"NoteNumber":61,"Velocity":64,"Duration":724595,"SoundDuration":724595,"Delta":250913196},{"NoteNumber":65,"Velocity":66,"Duration":117271,"SoundDuration":117271,"Delta":251031082},{"NoteNumber":68,"Velocity":68,"Duration":121137,"SoundDuration":121137,"Delta":251148353},{"NoteNumber":73,"Velocity":70,"Duration":120803,"SoundDuration":120803,"Delta":251269491},{"NoteNumber":77,"Velocity":72,"Duration":125087,"SoundDuration":125087,"Delta":251390295},{"NoteNumber":80,"Velocity":74,"Duration":127114,"SoundDuration":127114,"Delta":251513041},{"NoteNumber":92,"Velocity":87,"Duration":621521,"SoundDuration":621521,"Delta":251637792},{"NoteNumber":85,"Velocity":73,"Duration":621521,"SoundDuration":621521,"Delta":251637792},{"NoteNumber":65,"Velocity":59,"Duration":2703312,"SoundDuration":2703312,"Delta":252259314},{"NoteNumber":68,"Velocity":59,"Duration":2703312,"SoundDuration":2703312,"Delta":252259314},{"NoteNumber":73,"Velocity":70,"Duration":2703312,"SoundDuration":2703312,"Delta":252259314},{"NoteNumber":77,"Velocity":70,"Duration":2703312,"SoundDuration":2703312,"Delta":252259314},{"NoteNumber":80,"Velocity":88,"Duration":2703312,"SoundDuration":2703312,"Delta":252259314},{"NoteNumber":92,"Velocity":86,"Duration":2703312,"SoundDuration":2703312,"Delta":252259314},{"NoteNumber":85,"Velocity":73,"Duration":2703312,"SoundDuration":2703312,"Delta":252259314}]}