{"title":"Prelude No. 10","artist":"Piano","durationMs":22555,"midiSha256":"4d73380e3f80f7d73418989e8a6e15425e1b33c49065fa22f5def3deea8f0b99","midiObject":[{"NoteNumber":92,"Velocity":50,"Duration":61349,"SoundDuration":61349,"Delta":0},{"NoteNumber":93,"Velocity":43,"Duration":61349,"SoundDuration":61349,"Delta":61349},{"NoteNumber":92,"Velocity":46,"Duration":61349,"SoundDuration":61349,"Delta":122699},{"NoteNumber":93,"Velocity":41,"Duration":61349,"SoundDuration":61349,"Delta":184049},{"NoteNumber":92,"Velocity":44,"Duration":61349,"SoundDuration":61349,"Delta":245398},{"NoteNumber":49,"Velocity":34,"Duration":460122,"SoundDuration":460122,"Delta":276073},{"NoteNumber":91,"Velocity":40,"Duration":61349,"SoundDuration":61349,"Delta":306748},{"NoteNumber":56,"Velocity":36,"Duration":414110,"SoundDuration":414110,"Delta":322085},{"NoteNumber":92,"Velocity":35,"Duration":61349,"SoundDuration":61349,"Delta":368098},{"NoteNumber":97,"Velocity":50,"Duration":61349,"SoundDuration":61349,"Delta":368098},{"NoteNumber":64,"Velocity":38,"Duration":368098,"SoundDuration":368098,"Delta":368098},{"NoteNumber":93,"Velocity":45,"Duration":61349,"SoundDuration":61349,"Delta":429447},{"NoteNumber":92,"Velocity":37,"Duration":61349,"SoundDuration":61349,"Delta":490797},{"NoteNumber":88,"Velocity":44,"Duration":92024,"SoundDuration":92024,"Delta":552147},{"NoteNumber":87,"Velocity":39,"Duration":92024,"SoundDuration":92024,"Delta":644171},{"NoteNumber":92,"Velocity":50,"Duration":61349,"SoundDuration":61349,"Delta":736196},{"NoteNumber":85,"Velocity":35,"Duration":61349,"SoundDuration":61349,"Delta":736196},{"NoteNumber":87,"Velocity":45,"Duration":61349,"SoundDuration":61349,"Delta":797545},{"NoteNumber":85,"Velocity":40,"Duration":61349,"SoundDuration":61349,"Delta":858895},{"NoteNumber":81,"Velocity":45,"Duration":92024,"SoundDuration":92024,"Delta":920245},{"NoteNumber":80,"Velocity":40,"Duration":92024,"SoundDuration":92024,"Delta":1012269},{"NoteNumber":42,"Velocity":31,"Duration":276073,"SoundDuration":276073,"Delta":1012269},{"NoteNumber":49,"Velocity":35,"Duration":230061,"SoundDuration":230061,"Delta":1058281},{"NoteNumber":85,"Velocity":50,"Duration":61349,"SoundDuration":61349,"Delta":1104294},{"NoteNumber":78,"Velocity":35,"Duration":61349,"SoundDuration":61349,"Delta":1104294},{"NoteNumber":57,"Velocity":40,"Duration":184049,"SoundDuration":184049,"Delta":1104294},{"NoteNumber":80,"Velocity":45,"Duration":61349,"SoundDuration":61349,"Delta":1165643},{"NoteNumber":78,"Velocity":37,"Duration":61349,"SoundDuration":61349,"Delta":1226993},{"NoteNumber":76,"Velocity":41,"Duration":92024,"SoundDuration":92024,"Delta":1288343},{"NoteNumber":75,"Velocity":37,"Duration":92024,"SoundDuration":92024,"Delta":1380367},{"NoteNumber":49,"Velocity":33,"Duration":276073,"SoundDuration":276073,"Delta":1380367},{"NoteNumber":56,"Velocity":36,"Duration":230061,"SoundDuration":230061,"Delta":1426379},{"NoteNumber":80,"Velocity":50,"Duration":61349,"SoundDuration":61349,"Delta":1472392},{"NoteNumber":73,"Velocity":35,"Duration":61349,"SoundDuration":61349,"Delta":1472392},{"NoteNumber":64,"Velocity":40,"Duration":184048,"SoundDuration":184048,"Delta":1472392},{"NoteNumber":75,"Velocity":44,"Duration":61349,"SoundDuration":61349,"Delta":1533741},{"NoteNumber":73,"Velocity":37,"Duration":61349,"SoundDuration":61349,"Delta":1595091},{"NoteNumber":69,"Velocity":40,"Duration":92024,"SoundDuration":92024,"Delta":1656441},{"NoteNumber":68,"Velocity":38,"Duration":92024,"SoundDuration":92024,"Delta":1748465},{"NoteNumber":42,"Velocity":32,"Duration":277209,"SoundDuration":277209,"Delta":1748465},{"NoteNumber":49,"Velocity":36,"Duration":231197,"SoundDuration":231197,"Delta":1794477},{"NoteNumber":66,"Velocity":35,"Duration":61728,"SoundDuration":61728,"Delta":1840490},{"NoteNumber":73,"Velocity":50,"Duration":61728,"SoundDuration":61728,"Delta":1840490},{"NoteNumber":57,"Velocity":38,"Duration":185185,"SoundDuration":185185,"Delta":1840490},{"NoteNumber":68,"Velocity":44,"Duration":61728,"SoundDuration":61728,"Delta":1902218},{"NoteNumber":66,"Velocity":36,"Duration":61728,"SoundDuration":61728,"Delta":1963946},{"NoteNumber":64,"Velocity":40,"Duration":92592,"SoundDuration":92592,"Delta":2025675},{"NoteNumber":63,"Velocity":36,"Duration":92592,"SoundDuration":92592,"Delta":2118267},{"NoteNumber":37,"Velocity":32,"Duration":277777,"SoundDuration":277777,"Delta":2118267},{"NoteNumber":44,"Velocity":36,"Duration":231481,"SoundDuration":231481,"Delta":2164563},{"NoteNumber":61,"Velocity":35,"Duration":61728,"SoundDuration":61728,"Delta":2210860},{"NoteNumber":68,"Velocity":50,"Duration":61728,"SoundDuration":61728,"Delta":2210860},{"NoteNumber":52,"Velocity":39,"Duration":185185,"SoundDuration":185185,"Delta":2210860},{"NoteNumber":63,"Velocity":44,"Duration":61728,"SoundDuration":61728,"Delta":2272588},{"NoteNumber":61,"Velocity":36,"Duration":61728,"SoundDuration":61728,"Delta":2334316},{"NoteNumber":59,"Velocity":40,"Duration":92592,"SoundDuration":92592,"Delta":2396045},{"NoteNumber":57,"Velocity":35,"Duration":92592,"SoundDuration":92592,"Delta":2488637},{"NoteNumber":56,"Velocity":45,"Duration":2282742,"SoundDuration":2282742,"Delta":2581230},{"NoteNumber":60,"Velocity":49,"Duration":389610,"SoundDuration":389610,"Delta":2935212},{"NoteNumber":51,"Velocity":41,"Duration":389610,"SoundDuration":389610,"Delta":2935212},{"NoteNumber":44,"Velocity":49,"Duration":779220,"SoundDuration":779220,"Delta":2935212},{"NoteNumber":32,"Velocity":46,"Duration":389610,"SoundDuration":389610,"Delta":3324822},{"NoteNumber":58,"Velocity":46,"Duration":389610,"SoundDuration":389610,"Delta":3324822},{"NoteNumber":49,"Velocity":39,"Duration":389610,"SoundDuration":389610,"Delta":3324822},{"NoteNumber":44,"Velocity":43,"Duration":195868,"SoundDuration":195868,"Delta":3714432},{"NoteNumber":51,"Velocity":36,"Duration":278377,"SoundDuration":278377,"Delta":3714432},{"NoteNumber":60,"Velocity":43,"Duration":278377,"SoundDuration":278377,"Delta":3714432},{"NoteNumber":44,"Velocity":37,"Duration":99889,"SoundDuration":99889,"Delta":4009365},{"NoteNumber":52,"Velocity":37,"Duration":99889,"SoundDuration":99889,"Delta":4009365},{"NoteNumber":61,"Velocity":45,"Duration":99889,"SoundDuration":99889,"Delta":4009365},{"NoteNumber":54,"Velocity":35,"Duration":754717,"SoundDuration":754717,"Delta":4109255},{"NoteNumber":60,"Velocity":35,"Duration":754717,"SoundDuration":754717,"Delta":4109255},{"NoteNumber":63,"Velocity":42,"Duration":754717,"SoundDuration":754717,"Delta":4109255},{"NoteNumber":44,"Velocity":42,"Duration":1271958,"SoundDuration":1271958,"Delta":4109255},{"NoteNumber":64,"Velocity":45,"Duration":517241,"SoundDuration":517241,"Delta":4863972},{"NoteNumber":56,"Velocity":46,"Duration":452585,"SoundDuration":452585,"Delta":4863972},{"NoteNumber":32,"Velocity":39,"Duration":452585,"SoundDuration":452585,"Delta":4863972},{"NoteNumber":49,"Velocity":30,"Duration":492946,"SoundDuration":492946,"Delta":5251902},{"NoteNumber":56,"Velocity":35,"Duration":428291,"SoundDuration":428291,"Delta":5316558},{"NoteNumber":97,"Velocity":50,"Duration":60605,"SoundDuration":60605,"Delta":5381213},{"NoteNumber":92,"Velocity":35,"Duration":60605,"SoundDuration":60605,"Delta":5381213},{"NoteNumber":64,"Velocity":38,"Duration":363635,"SoundDuration":363635,"Delta":5381213},{"NoteNumber":93,"Velocity":45,"Duration":60605,"SoundDuration":60605,"Delta":5441819},{"NoteNumber":92,"Velocity":38,"Duration":60605,"SoundDuration":60605,"Delta":5502425},{"NoteNumber":88,"Velocity":43,"Duration":90908,"SoundDuration":90908,"Delta":5563031},{"NoteNumber":87,"Velocity":39,"Duration":90908,"SoundDuration":90908,"Delta":5653940},{"NoteNumber":92,"Velocity":50,"Duration":60606,"SoundDuration":60606,"Delta":5744849},{"NoteNumber":85,"Velocity":35,"Duration":60606,"SoundDuration":60606,"Delta":5744849},{"NoteNumber":87,"Velocity":45,"Duration":60605,"SoundDuration":60605,"Delta":5805455},{"NoteNumber":85,"Velocity":40,"Duration":60605,"SoundDuration":60605,"Delta":5866061},{"NoteNumber":81,"Velocity":43,"Duration":90908,"SoundDuration":90908,"Delta":5926667},{"NoteNumber":80,"Velocity":39,"Duration":90908,"SoundDuration":90908,"Delta":6017576},{"NoteNumber":42,"Velocity":33,"Duration":272726,"SoundDuration":272726,"Delta":6017576},{"NoteNumber":49,"Velocity":37,"Duration":227272,"SoundDuration":227272,"Delta":6063030},{"NoteNumber":85,"Velocity":50,"Duration":60605,"SoundDuration":60605,"Delta":6108485},{"NoteNumber":78,"Velocity":35,"Duration":60605,"SoundDuration":60605,"Delta":6108485},{"NoteNumber":57,"Velocity":40,"Duration":181817,"SoundDuration":181817,"Delta":6108485},{"NoteNumber":80,"Velocity":45,"Duration":60605,"SoundDuration":60605,"Delta":6169091},{"NoteNumber":78,"Velocity":38,"Duration":60605,"SoundDuration":60605,"Delta":6229697},{"NoteNumber":76,"Velocity":42,"Duration":90908,"SoundDuration":90908,"Delta":6290303},{"NoteNumber":75,"Velocity":38,"Duration":90908,"SoundDuration":90908,"Delta":6381212},{"NoteNumber":49,"Velocity":34,"Duration":272727,"SoundDuration":272727,"Delta":6381212},{"NoteNumber":56,"Velocity":37,"Duration":227272,"SoundDuration":227272,"Delta":6426666},{"NoteNumber":73,"Velocity":35,"Duration":60605,"SoundDuration":60605,"Delta":6472121},{"NoteNumber":80,"Velocity":50,"Duration":60605,"SoundDuration":60605,"Delta":6472121},{"NoteNumber":64,"Velocity":40,"Duration":181818,"SoundDuration":181818,"Delta":6472121},{"NoteNumber":75,"Velocity":45,"Duration":60606,"SoundDuration":60606,"Delta":6532727},{"NoteNumber":73,"Velocity":38,"Duration":60605,"SoundDuration":60605,"Delta":6593333},{"NoteNumber":69,"Velocity":40,"Duration":90908,"SoundDuration":90908,"Delta":6653939},{"NoteNumber":68,"Velocity":38,"Duration":90908,"SoundDuration":90908,"Delta":6744848},{"NoteNumber":42,"Velocity":30,"Duration":272726,"SoundDuration":272726,"Delta":6744848},{"NoteNumber":49,"Velocity":35,"Duration":227272,"SoundDuration":227272,"Delta":6790302},{"NoteNumber":66,"Velocity":35,"Duration":60605,"SoundDuration":60605,"Delta":6835757},{"NoteNumber":73,"Velocity":50,"Duration":60605,"SoundDuration":60605,"Delta":6835757},{"NoteNumber":57,"Velocity":38,"Duration":181817,"SoundDuration":181817,"Delta":6835757},{"NoteNumber":68,"Velocity":45,"Duration":60605,"SoundDuration":60605,"Delta":6896363},{"NoteNumber":66,"Velocity":36,"Duration":60605,"SoundDuration":60605,"Delta":6956969},{"NoteNumber":64,"Velocity":40,"Duration":90908,"SoundDuration":90908,"Delta":7017575},{"NoteNumber":63,"Velocity":37,"Duration":90908,"SoundDuration":90908,"Delta":7108484},{"NoteNumber":37,"Velocity":33,"Duration":272726,"SoundDuration":272726,"Delta":7108484},{"NoteNumber":44,"Velocity":35,"Duration":227272,"SoundDuration":227272,"Delta":7153938},{"NoteNumber":68,"Velocity":50,"Duration":60605,"SoundDuration":60605,"Delta":7199393},{"NoteNumber":61,"Velocity":35,"Duration":60605,"SoundDuration":60605,"Delta":7199393},{"NoteNumber":52,"Velocity":39,"Duration":181817,"SoundDuration":181817,"Delta":7199393},{"NoteNumber":63,"Velocity":45,"Duration":60605,"SoundDuration":60605,"Delta":7259999},{"NoteNumber":61,"Velocity":36,"Duration":60605,"SoundDuration":60605,"Delta":7320605},{"NoteNumber":59,"Velocity":40,"Duration":90908,"SoundDuration":90908,"Delta":7381211},{"NoteNumber":58,"Velocity":38,"Duration":90908,"SoundDuration":90908,"Delta":7472120},{"NoteNumber":56,"Velocity":47,"Duration":778008,"SoundDuration":778008,"Delta":7563029},{"NoteNumber":63,"Velocity":55,"Duration":771703,"SoundDuration":771703,"Delta":7955186},{"NoteNumber":60,"Velocity":53,"Duration":385851,"SoundDuration":385851,"Delta":7955186},{"NoteNumber":51,"Velocity":45,"Duration":771703,"SoundDuration":771703,"Delta":7955186},{"NoteNumber":39,"Velocity":45,"Duration":369774,"SoundDuration":369774,"Delta":7955186},{"NoteNumber":38,"Velocity":45,"Duration":48231,"SoundDuration":48231,"Delta":8244575},{"NoteNumber":39,"Velocity":45,"Duration":48231,"SoundDuration":48231,"Delta":8292806},{"NoteNumber":39,"Velocity":48,"Duration":48231,"SoundDuration":48231,"Delta":8341038},{"NoteNumber":58,"Velocity":48,"Duration":385851,"SoundDuration":385851,"Delta":8341038},{"NoteNumber":55,"Velocity":40,"Duration":385851,"SoundDuration":385851,"Delta":8341038},{"NoteNumber":40,"Velocity":45,"Duration":48231,"SoundDuration":48231,"Delta":8389269},{"NoteNumber":39,"Velocity":49,"Duration":48231,"SoundDuration":48231,"Delta":8437501},{"NoteNumber":40,"Velocity":51,"Duration":48231,"SoundDuration":48231,"Delta":8485732},{"NoteNumber":39,"Velocity":54,"Duration":48231,"SoundDuration":48231,"Delta":8533964},{"NoteNumber":40,"Velocity":56,"Duration":48231,"SoundDuration":48231,"Delta":8582195},{"NoteNumber":39,"Velocity":61,"Duration":32154,"SoundDuration":32154,"Delta":8630427},{"NoteNumber":38,"Velocity":61,"Duration":32154,"SoundDuration":32154,"Delta":8662581},{"NoteNumber":39,"Velocity":63,"Duration":32154,"SoundDuration":32154,"Delta":8694735},{"NoteNumber":56,"Velocity":55,"Duration":278377,"SoundDuration":278377,"Delta":8726890},{"NoteNumber":44,"Velocity":55,"Duration":195868,"SoundDuration":195868,"Delta":8726890},{"NoteNumber":51,"Velocity":55,"Duration":278377,"SoundDuration":278377,"Delta":8726890},{"NoteNumber":59,"Velocity":66,"Duration":278377,"SoundDuration":278377,"Delta":8726890},{"NoteNumber":58,"Velocity":48,"Duration":99889,"SoundDuration":99889,"Delta":9021823},{"NoteNumber":44,"Velocity":48,"Duration":99889,"SoundDuration":99889,"Delta":9021823},{"NoteNumber":51,"Velocity":48,"Duration":99889,"SoundDuration":99889,"Delta":9021823},{"NoteNumber":61,"Velocity":57,"Duration":99889,"SoundDuration":99889,"Delta":9021823},{"NoteNumber":51,"Velocity":53,"Duration":754716,"SoundDuration":754716,"Delta":9121713},{"NoteNumber":59,"Velocity":53,"Duration":754716,"SoundDuration":754716,"Delta":9121713},{"NoteNumber":63,"Velocity":63,"Duration":754716,"SoundDuration":754716,"Delta":9121713},{"NoteNumber":44,"Velocity":53,"Duration":754716,"SoundDuration":754716,"Delta":9121713},{"NoteNumber":68,"Velocity":46,"Duration":517241,"SoundDuration":517241,"Delta":9876430},{"NoteNumber":56,"Velocity":45,"Duration":387930,"SoundDuration":387930,"Delta":9876430},{"NoteNumber":32,"Velocity":38,"Duration":387930,"SoundDuration":387930,"Delta":9876430},{"NoteNumber":42,"Velocity":25,"Duration":489670,"SoundDuration":489670,"Delta":10264361},{"NoteNumber":49,"Velocity":29,"Duration":244835,"SoundDuration":244835,"Delta":10329016},{"NoteNumber":90,"Velocity":31,"Duration":60060,"SoundDuration":60060,"Delta":10393671},{"NoteNumber":97,"Velocity":45,"Duration":60060,"SoundDuration":60060,"Delta":10393671},{"NoteNumber":57,"Velocity":34,"Duration":180180,"SoundDuration":180180,"Delta":10393671},{"NoteNumber":92,"Velocity":40,"Duration":60060,"SoundDuration":60060,"Delta":10453731},{"NoteNumber":90,"Velocity":36,"Duration":60060,"SoundDuration":60060,"Delta":10513791},{"NoteNumber":86,"Velocity":38,"Duration":90090,"SoundDuration":90090,"Delta":10573851},{"NoteNumber":85,"Velocity":36,"Duration":90090,"SoundDuration":90090,"Delta":10663941},{"NoteNumber":47,"Velocity":27,"Duration":270270,"SoundDuration":270270,"Delta":10663941},{"NoteNumber":54,"Velocity":31,"Duration":225225,"SoundDuration":225225,"Delta":10708986},{"NoteNumber":83,"Velocity":31,"Duration":60060,"SoundDuration":60060,"Delta":10754031},{"NoteNumber":90,"Velocity":45,"Duration":60060,"SoundDuration":60060,"Delta":10754031},{"NoteNumber":62,"Velocity":35,"Duration":180180,"SoundDuration":180180,"Delta":10754031},{"NoteNumber":85,"Velocity":40,"Duration":60060,"SoundDuration":60060,"Delta":10814091},{"NoteNumber":83,"Velocity":36,"Duration":60060,"SoundDuration":60060,"Delta":10874151},{"NoteNumber":81,"Velocity":39,"Duration":90090,"SoundDuration":90090,"Delta":10934211},{"NoteNumber":80,"Velocity":36,"Duration":90090,"SoundDuration":90090,"Delta":11024301},{"NoteNumber":42,"Velocity":24,"Duration":270270,"SoundDuration":270270,"Delta":11024301},{"NoteNumber":49,"Velocity":30,"Duration":225225,"SoundDuration":225225,"Delta":11069346},{"NoteNumber":78,"Velocity":30,"Duration":60060,"SoundDuration":60060,"Delta":11114391},{"NoteNumber":85,"Velocity":45,"Duration":60060,"SoundDuration":60060,"Delta":11114391},{"NoteNumber":57,"Velocity":35,"Duration":180180,"SoundDuration":180180,"Delta":11114391},{"NoteNumber":80,"Velocity":40,"Duration":60060,"SoundDuration":60060,"Delta":11174451},{"NoteNumber":78,"Velocity":36,"Duration":60060,"SoundDuration":60060,"Delta":11234511},{"NoteNumber":74,"Velocity":39,"Duration":90090,"SoundDuration":90090,"Delta":11294571},{"NoteNumber":73,"Velocity":35,"Duration":90090,"SoundDuration":90090,"Delta":11384661},{"NoteNumber":47,"Velocity":27,"Duration":270270,"SoundDuration":270270,"Delta":11384661},{"NoteNumber":54,"Velocity":31,"Duration":225225,"SoundDuration":225225,"Delta":11429706},{"NoteNumber":78,"Velocity":45,"Duration":60060,"SoundDuration":60060,"Delta":11474751},{"NoteNumber":71,"Velocity":31,"Duration":60060,"SoundDuration":60060,"Delta":11474751},{"NoteNumber":62,"Velocity":35,"Duration":180180,"SoundDuration":180180,"Delta":11474751},{"NoteNumber":73,"Velocity":40,"Duration":60060,"SoundDuration":60060,"Delta":11534811},{"NoteNumber":71,"Velocity":35,"Duration":60060,"SoundDuration":60060,"Delta":11594871},{"NoteNumber":69,"Velocity":37,"Duration":90090,"SoundDuration":90090,"Delta":11654931},{"NoteNumber":68,"Velocity":36,"Duration":90090,"SoundDuration":90090,"Delta":11745021},{"NoteNumber":42,"Velocity":26,"Duration":270677,"SoundDuration":270677,"Delta":11745021},{"NoteNumber":49,"Velocity":30,"Duration":225632,"SoundDuration":225632,"Delta":11790066},{"NoteNumber":73,"Velocity":45,"Duration":60060,"SoundDuration":60060,"Delta":11835111},{"NoteNumber":66,"Velocity":31,"Duration":60060,"SoundDuration":60060,"Delta":11835111},{"NoteNumber":57,"Velocity":34,"Duration":180587,"SoundDuration":180587,"Delta":11835111},{"NoteNumber":68,"Velocity":40,"Duration":60195,"SoundDuration":60195,"Delta":11895171},{"NoteNumber":66,"Velocity":34,"Duration":60332,"SoundDuration":60332,"Delta":11955367},{"NoteNumber":62,"Velocity":35,"Duration":90771,"SoundDuration":90771,"Delta":12015699},{"NoteNumber":61,"Velocity":30,"Duration":91139,"SoundDuration":91139,"Delta":12106470},{"NoteNumber":66,"Velocity":45,"Duration":60975,"SoundDuration":60975,"Delta":12197610},{"NoteNumber":59,"Velocity":31,"Duration":60975,"SoundDuration":60975,"Delta":12197610},{"NoteNumber":61,"Velocity":40,"Duration":61115,"SoundDuration":61115,"Delta":12258585},{"NoteNumber":59,"Velocity":35,"Duration":61302,"SoundDuration":61302,"Delta":12319701},{"NoteNumber":57,"Velocity":37,"Duration":92213,"SoundDuration":92213,"Delta":12381004},{"NoteNumber":56,"Velocity":32,"Duration":92592,"SoundDuration":92592,"Delta":12473217},{"NoteNumber":54,"Velocity":44,"Duration":1150712,"SoundDuration":1150712,"Delta":12565810},{"NoteNumber":61,"Velocity":45,"Duration":392058,"SoundDuration":392058,"Delta":12926170},{"NoteNumber":57,"Velocity":45,"Duration":790352,"SoundDuration":790352,"Delta":12926170},{"NoteNumber":42,"Velocity":45,"Duration":392058,"SoundDuration":392058,"Delta":12926170},{"NoteNumber":49,"Velocity":38,"Duration":790352,"SoundDuration":790352,"Delta":12926170},{"NoteNumber":63,"Velocity":56,"Duration":398294,"SoundDuration":398294,"Delta":13318228},{"NoteNumber":39,"Velocity":55,"Duration":398294,"SoundDuration":398294,"Delta":13318228},{"NoteNumber":56,"Velocity":32,"Duration":288904,"SoundDuration":288904,"Delta":13716522},{"NoteNumber":44,"Velocity":38,"Duration":203052,"SoundDuration":203052,"Delta":13716522},{"NoteNumber":51,"Velocity":32,"Duration":288904,"SoundDuration":288904,"Delta":13716522},{"NoteNumber":60,"Velocity":38,"Duration":288904,"SoundDuration":288904,"Delta":13716522},{"NoteNumber":56,"Velocity":32,"Duration":104228,"SoundDuration":104228,"Delta":14022668},{"NoteNumber":44,"Velocity":38,"Duration":104228,"SoundDuration":104228,"Delta":14022668},{"NoteNumber":52,"Velocity":32,"Duration":104228,"SoundDuration":104228,"Delta":14022668},{"NoteNumber":61,"Velocity":38,"Duration":104228,"SoundDuration":104228,"Delta":14022668},{"NoteNumber":63,"Velocity":37,"Duration":794701,"SoundDuration":794701,"Delta":14126897},{"NoteNumber":54,"Velocity":30,"Duration":794701,"SoundDuration":794701,"Delta":14126897},{"NoteNumber":60,"Velocity":36,"Duration":1194701,"SoundDuration":1194701,"Delta":14126897},{"NoteNumber":44,"Velocity":30,"Duration":1328034,"SoundDuration":1328034,"Delta":14126897},{"NoteNumber":64,"Velocity":35,"Duration":533332,"SoundDuration":533332,"Delta":14921599},{"NoteNumber":56,"Velocity":31,"Duration":399999,"SoundDuration":399999,"Delta":14921599},{"NoteNumber":32,"Velocity":31,"Duration":399999,"SoundDuration":399999,"Delta":14921599},{"NoteNumber":49,"Velocity":30,"Duration":501431,"SoundDuration":501431,"Delta":15321598},{"NoteNumber":56,"Velocity":36,"Duration":434764,"SoundDuration":434764,"Delta":15388265},{"NoteNumber":92,"Velocity":35,"Duration":61349,"SoundDuration":61349,"Delta":15454932},{"NoteNumber":97,"Velocity":50,"Duration":61349,"SoundDuration":61349,"Delta":15454932},{"NoteNumber":64,"Velocity":38,"Duration":368097,"SoundDuration":368097,"Delta":15454932},{"NoteNumber":93,"Velocity":49,"Duration":61349,"SoundDuration":61349,"Delta":15516281},{"NoteNumber":92,"Velocity":40,"Duration":61349,"SoundDuration":61349,"Delta":15577631},{"NoteNumber":88,"Velocity":45,"Duration":92024,"SoundDuration":92024,"Delta":15638981},{"NoteNumber":87,"Velocity":39,"Duration":92024,"SoundDuration":92024,"Delta":15731005},{"NoteNumber":92,"Velocity":50,"Duration":61349,"SoundDuration":61349,"Delta":15823030},{"NoteNumber":85,"Velocity":35,"Duration":61349,"SoundDuration":61349,"Delta":15823030},{"NoteNumber":87,"Velocity":45,"Duration":61349,"SoundDuration":61349,"Delta":15884379},{"NoteNumber":85,"Velocity":40,"Duration":61349,"SoundDuration":61349,"Delta":15945729},{"NoteNumber":81,"Velocity":44,"Duration":92024,"SoundDuration":92024,"Delta":16007079},{"NoteNumber":80,"Velocity":39,"Duration":92024,"SoundDuration":92024,"Delta":16099103},{"NoteNumber":42,"Velocity":32,"Duration":276073,"SoundDuration":276073,"Delta":16099103},{"NoteNumber":49,"Velocity":37,"Duration":230061,"SoundDuration":230061,"Delta":16145115},{"NoteNumber":78,"Velocity":35,"Duration":61349,"SoundDuration":61349,"Delta":16191128},{"NoteNumber":85,"Velocity":50,"Duration":61349,"SoundDuration":61349,"Delta":16191128},{"NoteNumber":57,"Velocity":40,"Duration":184049,"SoundDuration":184049,"Delta":16191128},{"NoteNumber":80,"Velocity":44,"Duration":61349,"SoundDuration":61349,"Delta":16252477},{"NoteNumber":78,"Velocity":36,"Duration":61349,"SoundDuration":61349,"Delta":16313827},{"NoteNumber":76,"Velocity":42,"Duration":92024,"SoundDuration":92024,"Delta":16375177},{"NoteNumber":75,"Velocity":37,"Duration":92024,"SoundDuration":92024,"Delta":16467201},{"NoteNumber":49,"Velocity":31,"Duration":276073,"SoundDuration":276073,"Delta":16467201},{"NoteNumber":56,"Velocity":36,"Duration":230061,"SoundDuration":230061,"Delta":16513213},{"NoteNumber":73,"Velocity":35,"Duration":61349,"SoundDuration":61349,"Delta":16559226},{"NoteNumber":80,"Velocity":50,"Duration":61349,"SoundDuration":61349,"Delta":16559226},{"NoteNumber":64,"Velocity":40,"Duration":184049,"SoundDuration":184049,"Delta":16559226},{"NoteNumber":75,"Velocity":45,"Duration":61349,"SoundDuration":61349,"Delta":16620575},{"NoteNumber":73,"Velocity":37,"Duration":61349,"SoundDuration":61349,"Delta":16681925},{"NoteNumber":69,"Velocity":40,"Duration":92024,"SoundDuration":92024,"Delta":16743275},{"NoteNumber":68,"Velocity":35,"Duration":92024,"SoundDuration":92024,"Delta":16835299},{"NoteNumber":42,"Velocity":32,"Duration":277209,"SoundDuration":277209,"Delta":16835299},{"NoteNumber":49,"Velocity":36,"Duration":231197,"SoundDuration":231197,"Delta":16881311},{"NoteNumber":73,"Velocity":50,"Duration":61728,"SoundDuration":61728,"Delta":16927324},{"NoteNumber":66,"Velocity":35,"Duration":61728,"SoundDuration":61728,"Delta":16927324},{"NoteNumber":57,"Velocity":38,"Duration":185185,"SoundDuration":185185,"Delta":16927324},{"NoteNumber":68,"Velocity":45,"Duration":61728,"SoundDuration":61728,"Delta":16989052},{"NoteNumber":66,"Velocity":37,"Duration":61728,"SoundDuration":61728,"Delta":17050780},{"NoteNumber":64,"Velocity":40,"Duration":92592,"SoundDuration":92592,"Delta":17112509},{"NoteNumber":63,"Velocity":35,"Duration":92592,"SoundDuration":92592,"Delta":17205101},{"NoteNumber":37,"Velocity":30,"Duration":277777,"SoundDuration":277777,"Delta":17205101},{"NoteNumber":44,"Velocity":36,"Duration":231481,"SoundDuration":231481,"Delta":17251397},{"NoteNumber":68,"Velocity":50,"Duration":61728,"SoundDuration":61728,"Delta":17297694},{"NoteNumber":61,"Velocity":35,"Duration":61728,"SoundDuration":61728,"Delta":17297694},{"NoteNumber":52,"Velocity":39,"Duration":185184,"SoundDuration":185184,"Delta":17297694},{"NoteNumber":63,"Velocity":45,"Duration":61728,"SoundDuration":61728,"Delta":17359422},{"NoteNumber":61,"Velocity":33,"Duration":61728,"SoundDuration":61728,"Delta":17421150},{"NoteNumber":59,"Velocity":38,"Duration":92592,"SoundDuration":92592,"Delta":17482878},{"NoteNumber":57,"Velocity":33,"Duration":92592,"SoundDuration":92592,"Delta":17575471},{"NoteNumber":56,"Velocity":49,"Duration":1133201,"SoundDuration":1133201,"Delta":17668063},{"NoteNumber":60,"Velocity":52,"Duration":389610,"SoundDuration":389610,"Delta":18022045},{"NoteNumber":51,"Velocity":44,"Duration":389610,"SoundDuration":389610,"Delta":18022045},{"NoteNumber":44,"Velocity":44,"Duration":779219,"SoundDuration":779219,"Delta":18022045},{"NoteNumber":32,"Velocity":46,"Duration":389609,"SoundDuration":389609,"Delta":18411655},{"NoteNumber":61,"Velocity":55,"Duration":389609,"SoundDuration":389609,"Delta":18411655},{"NoteNumber":52,"Velocity":46,"Duration":389609,"SoundDuration":389609,"Delta":18411655},{"NoteNumber":63,"Velocity":53,"Duration":278377,"SoundDuration":278377,"Delta":18801265},{"NoteNumber":44,"Velocity":45,"Duration":195868,"SoundDuration":195868,"Delta":18801265},{"NoteNumber":51,"Velocity":45,"Duration":278377,"SoundDuration":278377,"Delta":18801265},{"NoteNumber":60,"Velocity":45,"Duration":278377,"SoundDuration":278377,"Delta":18801265},{"NoteNumber":64,"Velocity":57,"Duration":99889,"SoundDuration":99889,"Delta":19096199},{"NoteNumber":44,"Velocity":43,"Duration":99889,"SoundDuration":99889,"Delta":19096199},{"NoteNumber":56,"Velocity":51,"Duration":99889,"SoundDuration":99889,"Delta":19096199},{"NoteNumber":52,"Velocity":42,"Duration":459769,"SoundDuration":459769,"Delta":19196089},{"NoteNumber":61,"Velocity":50,"Duration":459769,"SoundDuration":459769,"Delta":19196089},{"NoteNumber":37,"Velocity":42,"Duration":459769,"SoundDuration":459769,"Delta":19196089},{"NoteNumber":69,"Velocity":49,"Duration":919540,"SoundDuration":919540,"Delta":19655859},{"NoteNumber":57,"Velocity":50,"Duration":1808428,"SoundDuration":1808428,"Delta":19655859},{"NoteNumber":44,"Velocity":30,"Duration":888888,"SoundDuration":888888,"Delta":20575399},{"NoteNumber":51,"Velocity":30,"Duration":444444,"SoundDuration":444444,"Delta":20575399},{"NoteNumber":60,"Velocity":36,"Duration":444444,"SoundDuration":444444,"Delta":20575399},{"NoteNumber":32,"Velocity":30,"Duration":444444,"SoundDuration":444444,"Delta":21019843},{"NoteNumber":52,"Velocity":30,"Duration":444444,"SoundDuration":444444,"Delta":21019843},{"NoteNumber":61,"Velocity":36,"Duration":444444,"SoundDuration":444444,"Delta":21019843},{"NoteNumber":44,"Velocity":31,"Duration":309278,"SoundDuration":309278,"Delta":21464287},{"NoteNumber":56,"Velocity":31,"Duration":309278,"SoundDuration":309278,"Delta":21464287},{"NoteNumber":54,"Velocity":31,"Duration":309278,"SoundDuration":309278,"Delta":21464287},{"NoteNumber":63,"Velocity":37,"Duration":309278,"SoundDuration":309278,"Delta":21464287},{"NoteNumber":60,"Velocity":31,"Duration":309278,"SoundDuration":309278,"Delta":21464287},{"NoteNumber":64,"Velocity":35,"Duration":125523,"SoundDuration":125523,"Delta":21928204},{"NoteNumber":44,"Velocity":24,"Duration":125523,"SoundDuration":125523,"Delta":21928204},{"NoteNumber":54,"Velocity":24,"Duration":125523,"SoundDuration":125523,"Delta":21928204},{"NoteNumber":60,"Velocity":28,"Duration":125523,"SoundDuration":125523,"Delta":21928204},{"NoteNumber":61,"Velocity":38,"Duration":502091,"SoundDuration":502091,"Delta":22053727},{"NoteNumber":37,"Velocity":31,"Duration":502091,"SoundDuration":502091,"Delta":22053727},{"NoteNumber":52,"Velocity":31,"Duration":502091,"SoundDuration":502091,"Delta":22053727}],"license":{"name":"Creative Commons Attribution-ShareAlike 3.0 Germany","url":"http://creativecommons.org/licenses/by-sa/3.0/de/deed.en","text":"The MIDI, audio (MP3, OGG) and video files of Bernd Krueger are licensed under the cc-by-sa Germany License. This means that you can use and adapt the files, as long as you attribute the copyright holder.\n\nName: Bernd Krueger\nSource: http://www.piano-midi.de\n\nThe distribution or public playback of the files is only allowed under identical license conditions.\n\nThe scores are open source.","attribution":"MIDI files by Bernd Krueger (piano-midi.de)"}}