{"title":"Promenade - Il vecchio Castello (2)","artist":"Piano","durationMs":291130,"midiSha256":"2776a03cff00c816f14b14d5a240df483730e78fcc8b02b0e9542956c483845b","midiObject":[{"NoteNumber":53,"Velocity":52,"Duration":657823,"SoundDuration":657823,"Delta":0},{"NoteNumber":51,"Velocity":51,"Duration":657822,"SoundDuration":657822,"Delta":656452},{"NoteNumber":56,"Velocity":49,"Duration":644952,"SoundDuration":644952,"Delta":1314275},{"NoteNumber":58,"Velocity":45,"Duration":311074,"SoundDuration":311074,"Delta":1959228},{"NoteNumber":63,"Velocity":45,"Duration":324535,"SoundDuration":324535,"Delta":2270303},{"NoteNumber":60,"Velocity":48,"Duration":642122,"SoundDuration":642122,"Delta":2594838},{"NoteNumber":58,"Velocity":44,"Duration":311074,"SoundDuration":311074,"Delta":3236960},{"NoteNumber":63,"Velocity":46,"Duration":337305,"SoundDuration":337305,"Delta":3548034},{"NoteNumber":60,"Velocity":42,"Duration":649562,"SoundDuration":649562,"Delta":3885340},{"NoteNumber":56,"Velocity":48,"Duration":642673,"SoundDuration":642673,"Delta":4534903},{"NoteNumber":58,"Velocity":46,"Duration":649561,"SoundDuration":649561,"Delta":5177576},{"NoteNumber":53,"Velocity":48,"Duration":649562,"SoundDuration":649562,"Delta":5827138},{"NoteNumber":51,"Velocity":48,"Duration":627020,"SoundDuration":627020,"Delta":6476700},{"NoteNumber":68,"Velocity":40,"Duration":657822,"SoundDuration":657822,"Delta":7145522},{"NoteNumber":65,"Velocity":34,"Duration":657822,"SoundDuration":657822,"Delta":7145522},{"NoteNumber":61,"Velocity":34,"Duration":657822,"SoundDuration":657822,"Delta":7145522},{"NoteNumber":53,"Velocity":51,"Duration":657822,"SoundDuration":657822,"Delta":7145522},{"NoteNumber":70,"Velocity":36,"Duration":657822,"SoundDuration":657822,"Delta":7803345},{"NoteNumber":67,"Velocity":30,"Duration":657822,"SoundDuration":657822,"Delta":7803345},{"NoteNumber":58,"Velocity":30,"Duration":657822,"SoundDuration":657822,"Delta":7803345},{"NoteNumber":51,"Velocity":51,"Duration":657822,"SoundDuration":657822,"Delta":7803345},{"NoteNumber":63,"Velocity":35,"Duration":649561,"SoundDuration":649561,"Delta":8461168},{"NoteNumber":72,"Velocity":42,"Duration":649561,"SoundDuration":649561,"Delta":8461168},{"NoteNumber":68,"Velocity":35,"Duration":649561,"SoundDuration":649561,"Delta":8461168},{"NoteNumber":56,"Velocity":51,"Duration":649561,"SoundDuration":649561,"Delta":8461168},{"NoteNumber":75,"Velocity":47,"Duration":645877,"SoundDuration":645877,"Delta":9110730},{"NoteNumber":70,"Velocity":39,"Duration":645877,"SoundDuration":645877,"Delta":9110730},{"NoteNumber":67,"Velocity":39,"Duration":645877,"SoundDuration":645877,"Delta":9110730},{"NoteNumber":58,"Velocity":56,"Duration":315989,"SoundDuration":315989,"Delta":9110730},{"NoteNumber":63,"Velocity":56,"Duration":329888,"SoundDuration":329888,"Delta":9426719},{"NoteNumber":80,"Velocity":46,"Duration":632711,"SoundDuration":632711,"Delta":9756607},{"NoteNumber":75,"Velocity":39,"Duration":632711,"SoundDuration":632711,"Delta":9756607},{"NoteNumber":72,"Velocity":39,"Duration":632711,"SoundDuration":632711,"Delta":9756607},{"NoteNumber":60,"Velocity":55,"Duration":632711,"SoundDuration":632711,"Delta":9756607},{"NoteNumber":70,"Velocity":39,"Duration":642673,"SoundDuration":642673,"Delta":10389318},{"NoteNumber":79,"Velocity":47,"Duration":642673,"SoundDuration":642673,"Delta":10389318},{"NoteNumber":75,"Velocity":39,"Duration":642673,"SoundDuration":642673,"Delta":10389318},{"NoteNumber":58,"Velocity":59,"Duration":321336,"SoundDuration":321336,"Delta":10389318},{"NoteNumber":63,"Velocity":56,"Duration":321336,"SoundDuration":321336,"Delta":10710655},{"NoteNumber":75,"Velocity":45,"Duration":651395,"SoundDuration":651395,"Delta":11031992},{"NoteNumber":72,"Velocity":38,"Duration":651395,"SoundDuration":651395,"Delta":11031992},{"NoteNumber":67,"Velocity":38,"Duration":651395,"SoundDuration":651395,"Delta":11031992},{"NoteNumber":60,"Velocity":58,"Duration":651395,"SoundDuration":651395,"Delta":11031992},{"NoteNumber":77,"Velocity":39,"Duration":654735,"SoundDuration":654735,"Delta":11683387},{"NoteNumber":72,"Velocity":33,"Duration":654735,"SoundDuration":654735,"Delta":11683387},{"NoteNumber":68,"Velocity":33,"Duration":654735,"SoundDuration":654735,"Delta":11683387},{"NoteNumber":56,"Velocity":44,"Duration":654735,"SoundDuration":654735,"Delta":11683387},{"NoteNumber":73,"Velocity":32,"Duration":665262,"SoundDuration":665262,"Delta":12338123},{"NoteNumber":82,"Velocity":38,"Duration":665262,"SoundDuration":665262,"Delta":12338123},{"NoteNumber":77,"Velocity":32,"Duration":665262,"SoundDuration":665262,"Delta":12338123},{"NoteNumber":58,"Velocity":45,"Duration":665262,"SoundDuration":665262,"Delta":12338123},{"NoteNumber":84,"Velocity":33,"Duration":674232,"SoundDuration":674232,"Delta":13003385},{"NoteNumber":80,"Velocity":28,"Duration":674232,"SoundDuration":674232,"Delta":13003385},{"NoteNumber":77,"Velocity":28,"Duration":674232,"SoundDuration":674232,"Delta":13003385},{"NoteNumber":53,"Velocity":41,"Duration":674232,"SoundDuration":674232,"Delta":13003385},{"NoteNumber":79,"Velocity":28,"Duration":346220,"SoundDuration":346220,"Delta":13677618},{"NoteNumber":82,"Velocity":28,"Duration":346220,"SoundDuration":346220,"Delta":13677618},{"NoteNumber":87,"Velocity":33,"Duration":346220,"SoundDuration":346220,"Delta":13677618},{"NoteNumber":51,"Velocity":38,"Duration":346220,"SoundDuration":346220,"Delta":13677618},{"NoteNumber":51,"Velocity":52,"Duration":639317,"SoundDuration":639317,"Delta":14370059},{"NoteNumber":53,"Velocity":51,"Duration":639318,"SoundDuration":639318,"Delta":15009377},{"NoteNumber":48,"Velocity":49,"Duration":644953,"SoundDuration":644953,"Delta":15648695},{"NoteNumber":51,"Velocity":48,"Duration":340870,"SoundDuration":340870,"Delta":16293649},{"NoteNumber":53,"Velocity":42,"Duration":329888,"SoundDuration":329888,"Delta":16601531},{"NoteNumber":46,"Velocity":47,"Duration":644953,"SoundDuration":644953,"Delta":16931419},{"NoteNumber":53,"Velocity":44,"Duration":349798,"SoundDuration":349798,"Delta":17576372},{"NoteNumber":55,"Velocity":41,"Duration":317998,"SoundDuration":317998,"Delta":17894370},{"NoteNumber":51,"Velocity":42,"Duration":605685,"SoundDuration":605685,"Delta":18212369},{"NoteNumber":63,"Velocity":57,"Duration":642673,"SoundDuration":642673,"Delta":18858433},{"NoteNumber":60,"Velocity":52,"Duration":649561,"SoundDuration":649561,"Delta":19501107},{"NoteNumber":58,"Velocity":53,"Duration":357259,"SoundDuration":357259,"Delta":20150669},{"NoteNumber":56,"Velocity":48,"Duration":324780,"SoundDuration":324780,"Delta":20475450},{"NoteNumber":51,"Velocity":48,"Duration":625416,"SoundDuration":625416,"Delta":20800230},{"NoteNumber":79,"Velocity":40,"Duration":659776,"SoundDuration":659776,"Delta":21467341},{"NoteNumber":67,"Velocity":34,"Duration":659776,"SoundDuration":659776,"Delta":21467341},{"NoteNumber":75,"Velocity":34,"Duration":659776,"SoundDuration":659776,"Delta":21467341},{"NoteNumber":70,"Velocity":34,"Duration":659776,"SoundDuration":659776,"Delta":21467341},{"NoteNumber":51,"Velocity":56,"Duration":659776,"SoundDuration":659776,"Delta":21467341},{"NoteNumber":65,"Velocity":34,"Duration":659776,"SoundDuration":659776,"Delta":22127117},{"NoteNumber":68,"Velocity":34,"Duration":659776,"SoundDuration":659776,"Delta":22127117},{"NoteNumber":73,"Velocity":34,"Duration":659776,"SoundDuration":659776,"Delta":22127117},{"NoteNumber":77,"Velocity":40,"Duration":659776,"SoundDuration":659776,"Delta":22127117},{"NoteNumber":53,"Velocity":53,"Duration":659776,"SoundDuration":659776,"Delta":22127117},{"NoteNumber":80,"Velocity":40,"Duration":644953,"SoundDuration":644953,"Delta":22786893},{"NoteNumber":75,"Velocity":34,"Duration":644953,"SoundDuration":644953,"Delta":22786893},{"NoteNumber":68,"Velocity":34,"Duration":644953,"SoundDuration":644953,"Delta":22786893},{"NoteNumber":72,"Velocity":34,"Duration":644953,"SoundDuration":644953,"Delta":22786893},{"NoteNumber":48,"Velocity":51,"Duration":644953,"SoundDuration":644953,"Delta":22786893},{"NoteNumber":75,"Velocity":34,"Duration":647437,"SoundDuration":647437,"Delta":23431847},{"NoteNumber":79,"Velocity":34,"Duration":647437,"SoundDuration":647437,"Delta":23431847},{"NoteNumber":82,"Velocity":40,"Duration":647437,"SoundDuration":647437,"Delta":23431847},{"NoteNumber":70,"Velocity":34,"Duration":647437,"SoundDuration":647437,"Delta":23431847},{"NoteNumber":51,"Velocity":51,"Duration":352161,"SoundDuration":352161,"Delta":23431847},{"NoteNumber":53,"Velocity":47,"Duration":328084,"SoundDuration":328084,"Delta":23751200},{"NoteNumber":77,"Velocity":35,"Duration":646063,"SoundDuration":646063,"Delta":24079284},{"NoteNumber":82,"Velocity":35,"Duration":646063,"SoundDuration":646063,"Delta":24079284},{"NoteNumber":85,"Velocity":42,"Duration":646063,"SoundDuration":646063,"Delta":24079284},{"NoteNumber":73,"Velocity":35,"Duration":646063,"SoundDuration":646063,"Delta":24079284},{"NoteNumber":46,"Velocity":53,"Duration":646063,"SoundDuration":646063,"Delta":24079284},{"NoteNumber":85,"Velocity":39,"Duration":656874,"SoundDuration":656874,"Delta":24725348},{"NoteNumber":77,"Velocity":39,"Duration":656874,"SoundDuration":656874,"Delta":24725348},{"NoteNumber":82,"Velocity":39,"Duration":656874,"SoundDuration":656874,"Delta":24725348},{"NoteNumber":89,"Velocity":46,"Duration":656874,"SoundDuration":656874,"Delta":24725348},{"NoteNumber":53,"Velocity":51,"Duration":351583,"SoundDuration":351583,"Delta":24725348},{"NoteNumber":55,"Velocity":47,"Duration":339213,"SoundDuration":339213,"Delta":25043009},{"NoteNumber":82,"Velocity":37,"Duration":628913,"SoundDuration":628913,"Delta":25382222},{"NoteNumber":79,"Velocity":37,"Duration":628913,"SoundDuration":628913,"Delta":25382222},{"NoteNumber":91,"Velocity":44,"Duration":628913,"SoundDuration":628913,"Delta":25382222},{"NoteNumber":87,"Velocity":37,"Duration":628913,"SoundDuration":628913,"Delta":25382222},{"NoteNumber":51,"Velocity":51,"Duration":628913,"SoundDuration":628913,"Delta":25382222},{"NoteNumber":79,"Velocity":40,"Duration":682051,"SoundDuration":682051,"Delta":26053063},{"NoteNumber":84,"Velocity":48,"Duration":682051,"SoundDuration":682051,"Delta":26053063},{"NoteNumber":75,"Velocity":40,"Duration":682051,"SoundDuration":682051,"Delta":26053063},{"NoteNumber":72,"Velocity":40,"Duration":682051,"SoundDuration":682051,"Delta":26053063},{"NoteNumber":63,"Velocity":56,"Duration":682051,"SoundDuration":682051,"Delta":26053063},{"NoteNumber":80,"Velocity":46,"Duration":670466,"SoundDuration":670466,"Delta":26735115},{"NoteNumber":68,"Velocity":39,"Duration":670466,"SoundDuration":670466,"Delta":26735115},{"NoteNumber":72,"Velocity":39,"Duration":670466,"SoundDuration":670466,"Delta":26735115},{"NoteNumber":75,"Velocity":39,"Duration":670466,"SoundDuration":670466,"Delta":26735115},{"NoteNumber":60,"Velocity":50,"Duration":670466,"SoundDuration":670466,"Delta":26735115},{"NoteNumber":70,"Velocity":38,"Duration":682051,"SoundDuration":682051,"Delta":27405581},{"NoteNumber":82,"Velocity":45,"Duration":682051,"SoundDuration":682051,"Delta":27405581},{"NoteNumber":77,"Velocity":38,"Duration":682051,"SoundDuration":682051,"Delta":27405581},{"NoteNumber":73,"Velocity":38,"Duration":682051,"SoundDuration":682051,"Delta":27405581},{"NoteNumber":58,"Velocity":49,"Duration":375128,"SoundDuration":375128,"Delta":27405581},{"NoteNumber":56,"Velocity":42,"Duration":341025,"SoundDuration":341025,"Delta":27746606},{"NoteNumber":75,"Velocity":34,"Duration":375281,"SoundDuration":375281,"Delta":28087632},{"NoteNumber":70,"Velocity":34,"Duration":375281,"SoundDuration":375281,"Delta":28087632},{"NoteNumber":67,"Velocity":34,"Duration":375281,"SoundDuration":375281,"Delta":28087632},{"NoteNumber":79,"Velocity":40,"Duration":375281,"SoundDuration":375281,"Delta":28087632},{"NoteNumber":51,"Velocity":48,"Duration":375281,"SoundDuration":375281,"Delta":28087632},{"NoteNumber":61,"Velocity":39,"Duration":688546,"SoundDuration":688546,"Delta":28838195},{"NoteNumber":56,"Velocity":39,"Duration":688546,"SoundDuration":688546,"Delta":28838195},{"NoteNumber":65,"Velocity":47,"Duration":688546,"SoundDuration":688546,"Delta":28838195},{"NoteNumber":51,"Velocity":53,"Duration":2011336,"SoundDuration":2011336,"Delta":28838195},{"NoteNumber":63,"Velocity":45,"Duration":670615,"SoundDuration":670615,"Delta":29526742},{"NoteNumber":58,"Velocity":38,"Duration":670615,"SoundDuration":670615,"Delta":29526742},{"NoteNumber":55,"Velocity":38,"Duration":670615,"SoundDuration":670615,"Delta":29526742},{"NoteNumber":60,"Velocity":38,"Duration":652173,"SoundDuration":652173,"Delta":30197358},{"NoteNumber":63,"Velocity":38,"Duration":652173,"SoundDuration":652173,"Delta":30197358},{"NoteNumber":68,"Velocity":44,"Duration":652173,"SoundDuration":652173,"Delta":30197358},{"NoteNumber":63,"Velocity":33,"Duration":998335,"SoundDuration":998335,"Delta":30849531},{"NoteNumber":67,"Velocity":33,"Duration":670466,"SoundDuration":670466,"Delta":30849531},{"NoteNumber":70,"Velocity":39,"Duration":335232,"SoundDuration":335232,"Delta":30849531},{"NoteNumber":44,"Velocity":56,"Duration":1326204,"SoundDuration":1326204,"Delta":30849531},{"NoteNumber":75,"Velocity":33,"Duration":335233,"SoundDuration":335233,"Delta":31184764},{"NoteNumber":72,"Velocity":42,"Duration":327868,"SoundDuration":327868,"Delta":31519998},{"NoteNumber":68,"Velocity":35,"Duration":327868,"SoundDuration":327868,"Delta":31519998},{"NoteNumber":61,"Velocity":33,"Duration":666126,"SoundDuration":666126,"Delta":32175736},{"NoteNumber":65,"Velocity":33,"Duration":666126,"SoundDuration":666126,"Delta":32175736},{"NoteNumber":70,"Velocity":39,"Duration":321061,"SoundDuration":321061,"Delta":32175736},{"NoteNumber":39,"Velocity":56,"Duration":1974116,"SoundDuration":1974116,"Delta":32175736},{"NoteNumber":75,"Velocity":34,"Duration":345065,"SoundDuration":345065,"Delta":32496797},{"NoteNumber":67,"Velocity":32,"Duration":659340,"SoundDuration":659340,"Delta":32841862},{"NoteNumber":63,"Velocity":32,"Duration":659340,"SoundDuration":659340,"Delta":32841862},{"NoteNumber":72,"Velocity":38,"Duration":659340,"SoundDuration":659340,"Delta":32841862},{"NoteNumber":68,"Velocity":35,"Duration":648648,"SoundDuration":648648,"Delta":33501203},{"NoteNumber":63,"Velocity":35,"Duration":648648,"SoundDuration":648648,"Delta":33501203},{"NoteNumber":60,"Velocity":35,"Duration":648648,"SoundDuration":648648,"Delta":33501203},{"NoteNumber":70,"Velocity":42,"Duration":660356,"SoundDuration":660356,"Delta":34149852},{"NoteNumber":65,"Velocity":35,"Duration":660356,"SoundDuration":660356,"Delta":34149852},{"NoteNumber":62,"Velocity":35,"Duration":660356,"SoundDuration":660356,"Delta":34149852},{"NoteNumber":32,"Velocity":51,"Duration":1330973,"SoundDuration":1330973,"Delta":34149852},{"NoteNumber":58,"Velocity":34,"Duration":670616,"SoundDuration":670616,"Delta":34810209},{"NoteNumber":62,"Velocity":34,"Duration":670616,"SoundDuration":670616,"Delta":34810209},{"NoteNumber":65,"Velocity":40,"Duration":670616,"SoundDuration":670616,"Delta":34810209},{"NoteNumber":55,"Velocity":31,"Duration":678201,"SoundDuration":678201,"Delta":35480825},{"NoteNumber":58,"Velocity":31,"Duration":678201,"SoundDuration":678201,"Delta":35480825},{"NoteNumber":63,"Velocity":37,"Duration":678201,"SoundDuration":678201,"Delta":35480825},{"NoteNumber":82,"Velocity":47,"Duration":1364412,"SoundDuration":1364412,"Delta":36204241},{"NoteNumber":70,"Velocity":39,"Duration":1364412,"SoundDuration":1364412,"Delta":36204241},{"NoteNumber":56,"Velocity":35,"Duration":682206,"SoundDuration":682206,"Delta":36204241},{"NoteNumber":61,"Velocity":35,"Duration":682206,"SoundDuration":682206,"Delta":36204241},{"NoteNumber":65,"Velocity":42,"Duration":682206,"SoundDuration":682206,"Delta":36204241},{"NoteNumber":58,"Velocity":38,"Duration":682206,"SoundDuration":682206,"Delta":36886447},{"NoteNumber":63,"Velocity":45,"Duration":682206,"SoundDuration":682206,"Delta":36886447},{"NoteNumber":55,"Velocity":38,"Duration":682206,"SoundDuration":682206,"Delta":36886447},{"NoteNumber":75,"Velocity":44,"Duration":1973086,"SoundDuration":1973086,"Delta":37568653},{"NoteNumber":87,"Velocity":52,"Duration":1973086,"SoundDuration":1973086,"Delta":37568653},{"NoteNumber":63,"Velocity":34,"Duration":660066,"SoundDuration":660066,"Delta":37568653},{"NoteNumber":68,"Velocity":40,"Duration":660066,"SoundDuration":660066,"Delta":37568653},{"NoteNumber":60,"Velocity":34,"Duration":660066,"SoundDuration":660066,"Delta":37568653},{"NoteNumber":63,"Velocity":34,"Duration":982987,"SoundDuration":982987,"Delta":38228719},{"NoteNumber":70,"Velocity":40,"Duration":326477,"SoundDuration":326477,"Delta":38228719},{"NoteNumber":67,"Velocity":34,"Duration":652954,"SoundDuration":652954,"Delta":38228719},{"NoteNumber":75,"Velocity":34,"Duration":326477,"SoundDuration":326477,"Delta":38555196},{"NoteNumber":68,"Velocity":35,"Duration":330033,"SoundDuration":330033,"Delta":38881674},{"NoteNumber":72,"Velocity":42,"Duration":330033,"SoundDuration":330033,"Delta":38881674},{"NoteNumber":91,"Velocity":39,"Duration":1378512,"SoundDuration":1378512,"Delta":39541740},{"NoteNumber":79,"Velocity":33,"Duration":1378512,"SoundDuration":1378512,"Delta":39541740},{"NoteNumber":65,"Velocity":33,"Duration":663716,"SoundDuration":663716,"Delta":39541740},{"NoteNumber":70,"Velocity":39,"Duration":331858,"SoundDuration":331858,"Delta":39541740},{"NoteNumber":61,"Velocity":33,"Duration":663716,"SoundDuration":663716,"Delta":39541740},{"NoteNumber":75,"Velocity":34,"Duration":331858,"SoundDuration":331858,"Delta":39873598},{"NoteNumber":67,"Velocity":32,"Duration":714795,"SoundDuration":714795,"Delta":40205457},{"NoteNumber":72,"Velocity":38,"Duration":714795,"SoundDuration":714795,"Delta":40205457},{"NoteNumber":63,"Velocity":32,"Duration":714795,"SoundDuration":714795,"Delta":40205457},{"NoteNumber":92,"Velocity":38,"Duration":732154,"SoundDuration":732154,"Delta":40920253},{"NoteNumber":80,"Velocity":32,"Duration":732154,"SoundDuration":732154,"Delta":40920253},{"NoteNumber":60,"Velocity":28,"Duration":732154,"SoundDuration":732154,"Delta":40920253},{"NoteNumber":63,"Velocity":28,"Duration":732154,"SoundDuration":732154,"Delta":40920253},{"NoteNumber":68,"Velocity":34,"Duration":732154,"SoundDuration":732154,"Delta":40920253},{"NoteNumber":94,"Velocity":37,"Duration":2165418,"SoundDuration":2165418,"Delta":41652407},{"NoteNumber":82,"Velocity":31,"Duration":2165418,"SoundDuration":2165418,"Delta":41652407},{"NoteNumber":65,"Velocity":29,"Duration":790113,"SoundDuration":790113,"Delta":41652407},{"NoteNumber":70,"Velocity":35,"Duration":790113,"SoundDuration":790113,"Delta":41652407},{"NoteNumber":62,"Velocity":29,"Duration":790113,"SoundDuration":790113,"Delta":41652407},{"NoteNumber":58,"Velocity":27,"Duration":916870,"SoundDuration":916870,"Delta":42442520},{"NoteNumber":65,"Velocity":32,"Duration":916870,"SoundDuration":916870,"Delta":42442520},{"NoteNumber":62,"Velocity":27,"Duration":916870,"SoundDuration":916870,"Delta":42442520},{"NoteNumber":55,"Velocity":26,"Duration":458434,"SoundDuration":458434,"Delta":43359391},{"NoteNumber":58,"Velocity":26,"Duration":458434,"SoundDuration":458434,"Delta":43359391},{"NoteNumber":63,"Velocity":31,"Duration":458434,"SoundDuration":458434,"Delta":43359391},{"NoteNumber":51,"Velocity":45,"Duration":2870165,"SoundDuration":2870165,"Delta":46885310},{"NoteNumber":44,"Velocity":33,"Duration":3248857,"SoundDuration":3248857,"Delta":46885310},{"NoteNumber":51,"Velocity":41,"Duration":378692,"SoundDuration":378692,"Delta":49755475},{"NoteNumber":51,"Velocity":45,"Duration":364263,"SoundDuration":364263,"Delta":50134167},{"NoteNumber":44,"Velocity":31,"Duration":1129784,"SoundDuration":1129784,"Delta":50134167},{"NoteNumber":51,"Velocity":41,"Duration":364263,"SoundDuration":364263,"Delta":50517602},{"NoteNumber":51,"Velocity":38,"Duration":359757,"SoundDuration":359757,"Delta":50901038},{"NoteNumber":51,"Velocity":45,"Duration":570467,"SoundDuration":570467,"Delta":51279730},{"NoteNumber":44,"Velocity":34,"Duration":1136678,"SoundDuration":1136678,"Delta":51279730},{"NoteNumber":52,"Velocity":41,"Duration":182570,"SoundDuration":182570,"Delta":51850198},{"NoteNumber":51,"Velocity":45,"Duration":300240,"SoundDuration":300240,"Delta":52032768},{"NoteNumber":54,"Velocity":47,"Duration":348965,"SoundDuration":348965,"Delta":52433089},{"NoteNumber":44,"Velocity":33,"Duration":1108856,"SoundDuration":1108856,"Delta":52433089},{"NoteNumber":52,"Velocity":45,"Duration":355361,"SoundDuration":355361,"Delta":52800421},{"NoteNumber":51,"Velocity":40,"Duration":364263,"SoundDuration":364263,"Delta":53174486},{"NoteNumber":49,"Velocity":45,"Duration":532480,"SoundDuration":532480,"Delta":53557921},{"NoteNumber":44,"Velocity":34,"Duration":1105806,"SoundDuration":1105806,"Delta":53557921},{"NoteNumber":51,"Velocity":40,"Duration":178316,"SoundDuration":178316,"Delta":54117952},{"NoteNumber":49,"Velocity":42,"Duration":287576,"SoundDuration":287576,"Delta":54296269},{"NoteNumber":52,"Velocity":48,"Duration":353159,"SoundDuration":353159,"Delta":54679704},{"NoteNumber":44,"Velocity":34,"Duration":1117699,"SoundDuration":1117699,"Delta":54679704},{"NoteNumber":51,"Velocity":42,"Duration":359757,"SoundDuration":359757,"Delta":55051451},{"NoteNumber":49,"Velocity":41,"Duration":364064,"SoundDuration":364064,"Delta":55430143},{"NoteNumber":47,"Velocity":45,"Duration":766870,"SoundDuration":766870,"Delta":55813380},{"NoteNumber":44,"Velocity":34,"Duration":1886931,"SoundDuration":1886931,"Delta":55813380},{"NoteNumber":49,"Velocity":48,"Duration":376364,"SoundDuration":376364,"Delta":56580251},{"NoteNumber":51,"Velocity":52,"Duration":367331,"SoundDuration":367331,"Delta":56956615},{"NoteNumber":49,"Velocity":51,"Duration":376364,"SoundDuration":376364,"Delta":57323947},{"NoteNumber":47,"Velocity":41,"Duration":393236,"SoundDuration":393236,"Delta":57700312},{"NoteNumber":46,"Velocity":45,"Duration":562827,"SoundDuration":562827,"Delta":58093548},{"NoteNumber":44,"Velocity":34,"Duration":1871559,"SoundDuration":1871559,"Delta":58093548},{"NoteNumber":47,"Velocity":41,"Duration":179383,"SoundDuration":179383,"Delta":58656376},{"NoteNumber":46,"Velocity":45,"Duration":287576,"SoundDuration":287576,"Delta":58835759},{"NoteNumber":49,"Velocity":48,"Duration":351071,"SoundDuration":351071,"Delta":59219194},{"NoteNumber":47,"Velocity":41,"Duration":357546,"SoundDuration":357546,"Delta":59588743},{"NoteNumber":46,"Velocity":40,"Duration":364263,"SoundDuration":364263,"Delta":59965108},{"NoteNumber":47,"Velocity":45,"Duration":1150306,"SoundDuration":1150306,"Delta":60348543},{"NoteNumber":44,"Velocity":34,"Duration":750894,"SoundDuration":750894,"Delta":60348543},{"NoteNumber":44,"Velocity":28,"Duration":372251,"SoundDuration":372251,"Delta":61115414},{"NoteNumber":44,"Velocity":39,"Duration":766871,"SoundDuration":766871,"Delta":61498850},{"NoteNumber":63,"Velocity":53,"Duration":446489,"SoundDuration":446489,"Delta":62265721},{"NoteNumber":44,"Velocity":31,"Duration":397264,"SoundDuration":397264,"Delta":62265721},{"NoteNumber":68,"Velocity":58,"Duration":2675450,"SoundDuration":2675450,"Delta":62680257},{"NoteNumber":51,"Velocity":41,"Duration":3411818,"SoundDuration":3411818,"Delta":62680257},{"NoteNumber":44,"Velocity":36,"Duration":750894,"SoundDuration":750894,"Delta":62680257},{"NoteNumber":44,"Velocity":29,"Duration":362913,"SoundDuration":362913,"Delta":63447128},{"NoteNumber":44,"Velocity":33,"Duration":750894,"SoundDuration":750894,"Delta":63825820},{"NoteNumber":44,"Velocity":29,"Duration":358478,"SoundDuration":358478,"Delta":64592691},{"NoteNumber":44,"Velocity":32,"Duration":705445,"SoundDuration":705445,"Delta":64966756},{"NoteNumber":71,"Velocity":57,"Duration":395441,"SoundDuration":395441,"Delta":65325565},{"NoteNumber":70,"Velocity":53,"Duration":303602,"SoundDuration":303602,"Delta":65687273},{"NoteNumber":44,"Velocity":33,"Duration":387936,"SoundDuration":387936,"Delta":65687273},{"NoteNumber":68,"Velocity":47,"Duration":101200,"SoundDuration":101200,"Delta":65957142},{"NoteNumber":70,"Velocity":45,"Duration":98354,"SoundDuration":98354,"Delta":66024609},{"NoteNumber":68,"Velocity":61,"Duration":402597,"SoundDuration":402597,"Delta":66092076},{"NoteNumber":52,"Velocity":41,"Duration":1137515,"SoundDuration":1137515,"Delta":66092076},{"NoteNumber":44,"Velocity":36,"Duration":738104,"SoundDuration":738104,"Delta":66092076},{"NoteNumber":64,"Velocity":51,"Duration":415388,"SoundDuration":415388,"Delta":66462721},{"NoteNumber":68,"Velocity":47,"Duration":383435,"SoundDuration":383435,"Delta":66846157},{"NoteNumber":44,"Velocity":34,"Duration":367459,"SoundDuration":367459,"Delta":66846157},{"NoteNumber":68,"Velocity":53,"Duration":798823,"SoundDuration":798823,"Delta":67229592},{"NoteNumber":51,"Velocity":41,"Duration":3413888,"SoundDuration":3413888,"Delta":67229592},{"NoteNumber":44,"Velocity":36,"Duration":750894,"SoundDuration":750894,"Delta":67229592},{"NoteNumber":63,"Velocity":51,"Duration":415388,"SoundDuration":415388,"Delta":67996463},{"NoteNumber":44,"Velocity":33,"Duration":367459,"SoundDuration":367459,"Delta":67996463},{"NoteNumber":66,"Velocity":56,"Duration":1555350,"SoundDuration":1555350,"Delta":68379899},{"NoteNumber":44,"Velocity":36,"Duration":750894,"SoundDuration":750894,"Delta":68379899},{"NoteNumber":44,"Velocity":33,"Duration":358478,"SoundDuration":358478,"Delta":69146770},{"NoteNumber":44,"Velocity":36,"Duration":735673,"SoundDuration":735673,"Delta":69520835},{"NoteNumber":64,"Velocity":51,"Duration":398725,"SoundDuration":398725,"Delta":69904270},{"NoteNumber":63,"Velocity":47,"Duration":310626,"SoundDuration":310626,"Delta":70271632},{"NoteNumber":44,"Velocity":33,"Duration":356542,"SoundDuration":356542,"Delta":70271632},{"NoteNumber":63,"Velocity":43,"Duration":91119,"SoundDuration":91119,"Delta":70582258},{"NoteNumber":64,"Velocity":56,"Duration":390323,"SoundDuration":390323,"Delta":70643480},{"NoteNumber":52,"Velocity":41,"Duration":1116150,"SoundDuration":1116150,"Delta":70643480},{"NoteNumber":44,"Velocity":36,"Duration":721679,"SoundDuration":721679,"Delta":70643480},{"NoteNumber":63,"Velocity":46,"Duration":410249,"SoundDuration":410249,"Delta":71002246},{"NoteNumber":61,"Velocity":43,"Duration":410249,"SoundDuration":410249,"Delta":71380938},{"NoteNumber":44,"Velocity":33,"Duration":362913,"SoundDuration":362913,"Delta":71380938},{"NoteNumber":63,"Velocity":53,"Duration":378692,"SoundDuration":378692,"Delta":71759630},{"NoteNumber":51,"Velocity":41,"Duration":2281727,"SoundDuration":2281727,"Delta":71759630},{"NoteNumber":44,"Velocity":36,"Duration":746151,"SoundDuration":746151,"Delta":71759630},{"NoteNumber":56,"Velocity":48,"Duration":2318423,"SoundDuration":2318423,"Delta":72138322},{"NoteNumber":44,"Velocity":30,"Duration":360682,"SoundDuration":360682,"Delta":72521758},{"NoteNumber":44,"Velocity":33,"Duration":750894,"SoundDuration":750894,"Delta":72898122},{"NoteNumber":44,"Velocity":30,"Duration":360682,"SoundDuration":360682,"Delta":73664993},{"NoteNumber":52,"Velocity":41,"Duration":2266768,"SoundDuration":2266768,"Delta":74041358},{"NoteNumber":44,"Velocity":34,"Duration":745537,"SoundDuration":745537,"Delta":74041358},{"NoteNumber":58,"Velocity":51,"Duration":409148,"SoundDuration":409148,"Delta":74424793},{"NoteNumber":59,"Velocity":51,"Duration":284019,"SoundDuration":284019,"Delta":74802384},{"NoteNumber":44,"Velocity":33,"Duration":362913,"SoundDuration":362913,"Delta":74802384},{"NoteNumber":61,"Velocity":46,"Duration":94673,"SoundDuration":94673,"Delta":75054846},{"NoteNumber":63,"Velocity":41,"Duration":93911,"SoundDuration":93911,"Delta":75117961},{"NoteNumber":61,"Velocity":56,"Duration":400721,"SoundDuration":400721,"Delta":75181076},{"NoteNumber":44,"Velocity":36,"Duration":728027,"SoundDuration":728027,"Delta":75181076},{"NoteNumber":59,"Velocity":46,"Duration":406017,"SoundDuration":406017,"Delta":75550625},{"NoteNumber":58,"Velocity":43,"Duration":414799,"SoundDuration":414799,"Delta":75924690},{"NoteNumber":44,"Velocity":33,"Duration":367459,"SoundDuration":367459,"Delta":75924690},{"NoteNumber":59,"Velocity":56,"Duration":1125056,"SoundDuration":1125056,"Delta":76308126},{"NoteNumber":51,"Velocity":45,"Duration":592135,"SoundDuration":592135,"Delta":76308126},{"NoteNumber":44,"Velocity":36,"Duration":1109080,"SoundDuration":1109080,"Delta":76308126},{"NoteNumber":52,"Velocity":38,"Duration":211335,"SoundDuration":211335,"Delta":76870364},{"NoteNumber":51,"Velocity":43,"Duration":383435,"SoundDuration":383435,"Delta":77049747},{"NoteNumber":56,"Velocity":47,"Duration":1863956,"SoundDuration":1863956,"Delta":77433182},{"NoteNumber":54,"Velocity":45,"Duration":402725,"SoundDuration":402725,"Delta":77433182},{"NoteNumber":44,"Velocity":34,"Duration":1108665,"SoundDuration":1108665,"Delta":77433182},{"NoteNumber":52,"Velocity":43,"Duration":403501,"SoundDuration":403501,"Delta":77804929},{"NoteNumber":51,"Velocity":45,"Duration":381049,"SoundDuration":381049,"Delta":78176676},{"NoteNumber":49,"Velocity":45,"Duration":589927,"SoundDuration":589927,"Delta":78557725},{"NoteNumber":44,"Velocity":36,"Duration":2272052,"SoundDuration":2272052,"Delta":78557725},{"NoteNumber":51,"Velocity":43,"Duration":211335,"SoundDuration":211335,"Delta":79117756},{"NoteNumber":49,"Velocity":43,"Duration":383435,"SoundDuration":383435,"Delta":79297139},{"NoteNumber":52,"Velocity":47,"Duration":401106,"SoundDuration":401106,"Delta":79680574},{"NoteNumber":51,"Velocity":43,"Duration":412105,"SoundDuration":412105,"Delta":80050123},{"NoteNumber":68,"Velocity":51,"Duration":400962,"SoundDuration":400962,"Delta":80428815},{"NoteNumber":49,"Velocity":39,"Duration":400962,"SoundDuration":400962,"Delta":80428815},{"NoteNumber":75,"Velocity":63,"Duration":4522824,"SoundDuration":4522824,"Delta":80829778},{"NoteNumber":47,"Velocity":45,"Duration":798234,"SoundDuration":798234,"Delta":80829778},{"NoteNumber":44,"Velocity":37,"Duration":2270563,"SoundDuration":2270563,"Delta":80829778},{"NoteNumber":49,"Velocity":42,"Duration":406975,"SoundDuration":406975,"Delta":81596649},{"NoteNumber":51,"Velocity":47,"Duration":398310,"SoundDuration":398310,"Delta":81973013},{"NoteNumber":49,"Velocity":42,"Duration":404101,"SoundDuration":404101,"Delta":82340345},{"NoteNumber":47,"Velocity":40,"Duration":388249,"SoundDuration":388249,"Delta":82712092},{"NoteNumber":46,"Velocity":43,"Duration":593536,"SoundDuration":593536,"Delta":83100341},{"NoteNumber":44,"Velocity":38,"Duration":2252261,"SoundDuration":2252261,"Delta":83100341},{"NoteNumber":47,"Velocity":38,"Duration":212371,"SoundDuration":212371,"Delta":83663808},{"NoteNumber":46,"Velocity":45,"Duration":383435,"SoundDuration":383435,"Delta":83844226},{"NoteNumber":49,"Velocity":46,"Duration":396504,"SoundDuration":396504,"Delta":84227662},{"NoteNumber":47,"Velocity":42,"Duration":408317,"SoundDuration":408317,"Delta":84592803},{"NoteNumber":46,"Velocity":40,"Duration":383435,"SoundDuration":383435,"Delta":84969167},{"NoteNumber":80,"Velocity":56,"Duration":383435,"SoundDuration":383435,"Delta":85352603},{"NoteNumber":47,"Velocity":42,"Duration":1150306,"SoundDuration":1150306,"Delta":85352603},{"NoteNumber":44,"Velocity":38,"Duration":750894,"SoundDuration":750894,"Delta":85352603},{"NoteNumber":44,"Velocity":36,"Duration":367459,"SoundDuration":367459,"Delta":86119474},{"NoteNumber":44,"Velocity":36,"Duration":750894,"SoundDuration":750894,"Delta":86502909},{"NoteNumber":63,"Velocity":53,"Duration":467113,"SoundDuration":467113,"Delta":87269780},{"NoteNumber":44,"Velocity":31,"Duration":417029,"SoundDuration":417029,"Delta":87269780},{"NoteNumber":68,"Velocity":57,"Duration":2673136,"SoundDuration":2673136,"Delta":87704941},{"NoteNumber":51,"Velocity":41,"Duration":3399487,"SoundDuration":3399487,"Delta":87704941},{"NoteNumber":44,"Velocity":36,"Duration":750894,"SoundDuration":750894,"Delta":87704941},{"NoteNumber":44,"Velocity":30,"Duration":362913,"SoundDuration":362913,"Delta":88471812},{"NoteNumber":44,"Velocity":32,"Duration":750894,"SoundDuration":750894,"Delta":88850504},{"NoteNumber":44,"Velocity":29,"Duration":358478,"SoundDuration":358478,"Delta":89617375},{"NoteNumber":44,"Velocity":34,"Duration":701235,"SoundDuration":701235,"Delta":89991440},{"NoteNumber":71,"Velocity":57,"Duration":392604,"SoundDuration":392604,"Delta":90348116},{"NoteNumber":70,"Velocity":53,"Duration":297579,"SoundDuration":297579,"Delta":90707656},{"NoteNumber":44,"Velocity":33,"Duration":380240,"SoundDuration":380240,"Delta":90707656},{"NoteNumber":68,"Velocity":47,"Duration":99193,"SoundDuration":99193,"Delta":90972172},{"NoteNumber":70,"Velocity":45,"Duration":97207,"SoundDuration":97207,"Delta":91038301},{"NoteNumber":68,"Velocity":61,"Duration":404901,"SoundDuration":404901,"Delta":91104429},{"NoteNumber":52,"Velocity":41,"Duration":1139820,"SoundDuration":1139820,"Delta":91104429},{"NoteNumber":44,"Velocity":36,"Duration":740408,"SoundDuration":740408,"Delta":91104429},{"NoteNumber":64,"Velocity":51,"Duration":415388,"SoundDuration":415388,"Delta":91477378},{"NoteNumber":68,"Velocity":47,"Duration":383435,"SoundDuration":383435,"Delta":91860814},{"NoteNumber":44,"Velocity":34,"Duration":367459,"SoundDuration":367459,"Delta":91860814},{"NoteNumber":68,"Velocity":53,"Duration":798823,"SoundDuration":798823,"Delta":92244249},{"NoteNumber":51,"Velocity":41,"Duration":1150306,"SoundDuration":1150306,"Delta":92244249},{"NoteNumber":44,"Velocity":36,"Duration":750894,"SoundDuration":750894,"Delta":92244249},{"NoteNumber":63,"Velocity":51,"Duration":415388,"SoundDuration":415388,"Delta":93011120},{"NoteNumber":44,"Velocity":33,"Duration":367459,"SoundDuration":367459,"Delta":93011120},{"NoteNumber":59,"Velocity":42,"Duration":2251964,"SoundDuration":2251964,"Delta":93394556},{"NoteNumber":64,"Velocity":56,"Duration":1541739,"SoundDuration":1541739,"Delta":93394556},{"NoteNumber":56,"Velocity":41,"Duration":2251964,"SoundDuration":2251964,"Delta":93394556},{"NoteNumber":44,"Velocity":36,"Duration":750894,"SoundDuration":750894,"Delta":93394556},{"NoteNumber":44,"Velocity":29,"Duration":360682,"SoundDuration":360682,"Delta":94161427},{"NoteNumber":44,"Velocity":33,"Duration":725810,"SoundDuration":725810,"Delta":94537791},{"NoteNumber":66,"Velocity":57,"Duration":404675,"SoundDuration":404675,"Delta":94905123},{"NoteNumber":68,"Velocity":59,"Duration":398127,"SoundDuration":398127,"Delta":95279188},{"NoteNumber":44,"Velocity":33,"Duration":352026,"SoundDuration":352026,"Delta":95279188},{"NoteNumber":61,"Velocity":42,"Duration":1108647,"SoundDuration":1108647,"Delta":95646520},{"NoteNumber":64,"Velocity":42,"Duration":1108647,"SoundDuration":1108647,"Delta":95646520},{"NoteNumber":69,"Velocity":62,"Duration":400344,"SoundDuration":400344,"Delta":95646520},{"NoteNumber":52,"Velocity":41,"Duration":1108647,"SoundDuration":1108647,"Delta":95646520},{"NoteNumber":44,"Velocity":36,"Duration":723700,"SoundDuration":723700,"Delta":95646520},{"NoteNumber":71,"Velocity":58,"Duration":400344,"SoundDuration":400344,"Delta":96016069},{"NoteNumber":73,"Velocity":58,"Duration":369549,"SoundDuration":369549,"Delta":96385618},{"NoteNumber":44,"Velocity":33,"Duration":354151,"SoundDuration":354151,"Delta":96385618},{"NoteNumber":57,"Velocity":37,"Duration":2251964,"SoundDuration":2251964,"Delta":96755167},{"NoteNumber":61,"Velocity":37,"Duration":2251964,"SoundDuration":2251964,"Delta":96755167},{"NoteNumber":66,"Velocity":62,"Duration":1510567,"SoundDuration":1510567,"Delta":96755167},{"NoteNumber":51,"Velocity":41,"Duration":2251964,"SoundDuration":2251964,"Delta":96755167},{"NoteNumber":44,"Velocity":36,"Duration":750894,"SoundDuration":750894,"Delta":96755167},{"NoteNumber":44,"Velocity":33,"Duration":360682,"SoundDuration":360682,"Delta":97522038},{"NoteNumber":44,"Velocity":36,"Duration":725810,"SoundDuration":725810,"Delta":97898403},{"NoteNumber":68,"Velocity":60,"Duration":404675,"SoundDuration":404675,"Delta":98265735},{"NoteNumber":69,"Velocity":58,"Duration":367332,"SoundDuration":367332,"Delta":98639800},{"NoteNumber":44,"Velocity":33,"Duration":352026,"SoundDuration":352026,"Delta":98639800},{"NoteNumber":56,"Velocity":42,"Duration":2284390,"SoundDuration":2284390,"Delta":99007132},{"NoteNumber":63,"Velocity":42,"Duration":1152824,"SoundDuration":1152824,"Delta":99007132},{"NoteNumber":68,"Velocity":62,"Duration":762097,"SoundDuration":762097,"Delta":99007132},{"NoteNumber":48,"Velocity":41,"Duration":2284390,"SoundDuration":2284390,"Delta":99007132},{"NoteNumber":44,"Velocity":35,"Duration":746220,"SoundDuration":746220,"Delta":99007132},{"NoteNumber":63,"Velocity":56,"Duration":1522292,"SoundDuration":1522292,"Delta":99769230},{"NoteNumber":44,"Velocity":33,"Duration":374446,"SoundDuration":374446,"Delta":99769230},{"NoteNumber":68,"Velocity":61,"Duration":757500,"SoundDuration":757500,"Delta":100159957},{"NoteNumber":44,"Velocity":36,"Duration":741914,"SoundDuration":741914,"Delta":100159957},{"NoteNumber":66,"Velocity":56,"Duration":374065,"SoundDuration":374065,"Delta":100917457},{"NoteNumber":44,"Velocity":33,"Duration":358478,"SoundDuration":358478,"Delta":100917457},{"NoteNumber":56,"Velocity":42,"Duration":2284601,"SoundDuration":2284601,"Delta":101291522},{"NoteNumber":64,"Velocity":58,"Duration":1143235,"SoundDuration":1143235,"Delta":101291522},{"NoteNumber":49,"Velocity":38,"Duration":1143235,"SoundDuration":1143235,"Delta":101291522},{"NoteNumber":44,"Velocity":34,"Duration":750894,"SoundDuration":750894,"Delta":101291522},{"NoteNumber":44,"Velocity":33,"Duration":360682,"SoundDuration":360682,"Delta":102058393},{"NoteNumber":63,"Velocity":56,"Duration":374065,"SoundDuration":374065,"Delta":102434758},{"NoteNumber":51,"Velocity":40,"Duration":1141366,"SoundDuration":1141366,"Delta":102434758},{"NoteNumber":44,"Velocity":35,"Duration":732543,"SoundDuration":732543,"Delta":102434758},{"NoteNumber":61,"Velocity":53,"Duration":374065,"SoundDuration":374065,"Delta":102808823},{"NoteNumber":59,"Velocity":48,"Duration":393236,"SoundDuration":393236,"Delta":103182888},{"NoteNumber":44,"Velocity":30,"Duration":376851,"SoundDuration":376851,"Delta":103182888},{"NoteNumber":56,"Velocity":42,"Duration":1125962,"SoundDuration":1125962,"Delta":103576124},{"NoteNumber":58,"Velocity":51,"Duration":565782,"SoundDuration":565782,"Delta":103576124},{"NoteNumber":52,"Velocity":40,"Duration":1125962,"SoundDuration":1125962,"Delta":103576124},{"NoteNumber":44,"Velocity":35,"Duration":732146,"SoundDuration":732146,"Delta":103576124},{"NoteNumber":59,"Velocity":46,"Duration":181488,"SoundDuration":181488,"Delta":104141907},{"NoteNumber":58,"Velocity":51,"Duration":378692,"SoundDuration":378692,"Delta":104323395},{"NoteNumber":44,"Velocity":33,"Duration":362913,"SoundDuration":362913,"Delta":104323395},{"NoteNumber":55,"Velocity":42,"Duration":1122185,"SoundDuration":1122185,"Delta":104702087},{"NoteNumber":61,"Velocity":48,"Duration":371746,"SoundDuration":371746,"Delta":104702087},{"NoteNumber":51,"Velocity":38,"Duration":5404481,"SoundDuration":5404481,"Delta":104702087},{"NoteNumber":44,"Velocity":34,"Duration":728004,"SoundDuration":728004,"Delta":104702087},{"NoteNumber":59,"Velocity":46,"Duration":371746,"SoundDuration":371746,"Delta":105073834},{"NoteNumber":58,"Velocity":45,"Duration":378692,"SoundDuration":378692,"Delta":105445581},{"NoteNumber":44,"Velocity":28,"Duration":362913,"SoundDuration":362913,"Delta":105445581},{"NoteNumber":56,"Velocity":42,"Duration":1169908,"SoundDuration":1169908,"Delta":105824273},{"NoteNumber":59,"Velocity":46,"Duration":1169908,"SoundDuration":1169908,"Delta":105824273},{"NoteNumber":44,"Velocity":35,"Duration":770088,"SoundDuration":770088,"Delta":105824273},{"NoteNumber":44,"Velocity":28,"Duration":367459,"SoundDuration":367459,"Delta":106610746},{"NoteNumber":56,"Velocity":43,"Duration":1945130,"SoundDuration":1945130,"Delta":106994182},{"NoteNumber":44,"Velocity":31,"Duration":765173,"SoundDuration":765173,"Delta":106994182},{"NoteNumber":44,"Velocity":28,"Duration":367271,"SoundDuration":367271,"Delta":107775636},{"NoteNumber":44,"Velocity":31,"Duration":764177,"SoundDuration":764177,"Delta":108158875},{"NoteNumber":44,"Velocity":28,"Duration":369727,"SoundDuration":369727,"Delta":108939312},{"NoteNumber":44,"Velocity":30,"Duration":765173,"SoundDuration":765173,"Delta":109325115},{"NoteNumber":44,"Velocity":27,"Duration":383640,"SoundDuration":383640,"Delta":110106569},{"NoteNumber":69,"Velocity":40,"Duration":1118538,"SoundDuration":1118538,"Delta":110506889},{"NoteNumber":73,"Velocity":40,"Duration":1118538,"SoundDuration":1118538,"Delta":110506889},{"NoteNumber":64,"Velocity":45,"Duration":752729,"SoundDuration":752729,"Delta":110506889},{"NoteNumber":76,"Velocity":45,"Duration":752729,"SoundDuration":752729,"Delta":110506889},{"NoteNumber":49,"Velocity":35,"Duration":1118538,"SoundDuration":1118538,"Delta":110506889},{"NoteNumber":52,"Velocity":35,"Duration":1118538,"SoundDuration":1118538,"Delta":110506889},{"NoteNumber":44,"Velocity":31,"Duration":737047,"SoundDuration":737047,"Delta":110506889},{"NoteNumber":64,"Velocity":43,"Duration":365808,"SoundDuration":365808,"Delta":111259618},{"NoteNumber":76,"Velocity":43,"Duration":365808,"SoundDuration":365808,"Delta":111259618},{"NoteNumber":44,"Velocity":28,"Duration":350566,"SoundDuration":350566,"Delta":111259618},{"NoteNumber":69,"Velocity":43,"Duration":1089157,"SoundDuration":1089157,"Delta":111625427},{"NoteNumber":73,"Velocity":43,"Duration":1089157,"SoundDuration":1089157,"Delta":111625427},{"NoteNumber":66,"Velocity":48,"Duration":536556,"SoundDuration":536556,"Delta":111625427},{"NoteNumber":78,"Velocity":48,"Duration":536556,"SoundDuration":536556,"Delta":111625427},{"NoteNumber":51,"Velocity":33,"Duration":1089157,"SoundDuration":1089157,"Delta":111625427},{"NoteNumber":54,"Velocity":33,"Duration":1089157,"SoundDuration":1089157,"Delta":111625427},{"NoteNumber":44,"Velocity":30,"Duration":702339,"SoundDuration":702339,"Delta":111625427},{"NoteNumber":64,"Velocity":46,"Duration":180853,"SoundDuration":180853,"Delta":112161984},{"NoteNumber":76,"Velocity":46,"Duration":180853,"SoundDuration":180853,"Delta":112161984},{"NoteNumber":63,"Velocity":42,"Duration":371746,"SoundDuration":371746,"Delta":112342838},{"NoteNumber":75,"Velocity":42,"Duration":371746,"SoundDuration":371746,"Delta":112342838},{"NoteNumber":44,"Velocity":28,"Duration":356257,"SoundDuration":356257,"Delta":112342838},{"NoteNumber":69,"Velocity":43,"Duration":1115112,"SoundDuration":1115112,"Delta":112714585},{"NoteNumber":73,"Velocity":43,"Duration":1115112,"SoundDuration":1115112,"Delta":112714585},{"NoteNumber":64,"Velocity":48,"Duration":748596,"SoundDuration":748596,"Delta":112714585},{"NoteNumber":76,"Velocity":48,"Duration":748596,"SoundDuration":748596,"Delta":112714585},{"NoteNumber":49,"Velocity":35,"Duration":1115112,"SoundDuration":1115112,"Delta":112714585},{"NoteNumber":52,"Velocity":35,"Duration":1115112,"SoundDuration":1115112,"Delta":112714585},{"NoteNumber":44,"Velocity":30,"Duration":733000,"SoundDuration":733000,"Delta":112714585},{"NoteNumber":64,"Velocity":45,"Duration":366516,"SoundDuration":366516,"Delta":113463181},{"NoteNumber":76,"Velocity":45,"Duration":366516,"SoundDuration":366516,"Delta":113463181},{"NoteNumber":44,"Velocity":28,"Duration":351274,"SoundDuration":351274,"Delta":113463181},{"NoteNumber":69,"Velocity":41,"Duration":1111280,"SoundDuration":1111280,"Delta":113829697},{"NoteNumber":73,"Velocity":41,"Duration":1111280,"SoundDuration":1111280,"Delta":113829697},{"NoteNumber":66,"Velocity":46,"Duration":542573,"SoundDuration":542573,"Delta":113829697},{"NoteNumber":78,"Velocity":46,"Duration":542573,"SoundDuration":542573,"Delta":113829697},{"NoteNumber":51,"Velocity":32,"Duration":1111280,"SoundDuration":1111280,"Delta":113829697},{"NoteNumber":54,"Velocity":32,"Duration":1111280,"SoundDuration":1111280,"Delta":113829697},{"NoteNumber":44,"Velocity":30,"Duration":710235,"SoundDuration":710235,"Delta":113829697},{"NoteNumber":64,"Velocity":40,"Duration":182904,"SoundDuration":182904,"Delta":114372271},{"NoteNumber":76,"Velocity":40,"Duration":182904,"SoundDuration":182904,"Delta":114372271},{"NoteNumber":63,"Velocity":40,"Duration":385802,"SoundDuration":385802,"Delta":114555175},{"NoteNumber":75,"Velocity":40,"Duration":385802,"SoundDuration":385802,"Delta":114555175},{"NoteNumber":44,"Velocity":27,"Duration":369727,"SoundDuration":369727,"Delta":114555175},{"NoteNumber":64,"Velocity":45,"Duration":1129093,"SoundDuration":1129093,"Delta":114940978},{"NoteNumber":69,"Velocity":45,"Duration":1129093,"SoundDuration":1129093,"Delta":114940978},{"NoteNumber":73,"Velocity":45,"Duration":1129093,"SoundDuration":1129093,"Delta":114940978},{"NoteNumber":76,"Velocity":45,"Duration":1129093,"SoundDuration":1129093,"Delta":114940978},{"NoteNumber":49,"Velocity":35,"Duration":1129093,"SoundDuration":1129093,"Delta":114940978},{"NoteNumber":52,"Velocity":35,"Duration":1129093,"SoundDuration":1129093,"Delta":114940978},{"NoteNumber":44,"Velocity":33,"Duration":737047,"SoundDuration":737047,"Delta":114940978},{"NoteNumber":44,"Velocity":31,"Duration":360682,"SoundDuration":360682,"Delta":115693707},{"NoteNumber":62,"Velocity":46,"Duration":1136076,"SoundDuration":1136076,"Delta":116070071},{"NoteNumber":66,"Velocity":46,"Duration":1136076,"SoundDuration":1136076,"Delta":116070071},{"NoteNumber":69,"Velocity":46,"Duration":1136076,"SoundDuration":1136076,"Delta":116070071},{"NoteNumber":74,"Velocity":46,"Duration":1136076,"SoundDuration":1136076,"Delta":116070071},{"NoteNumber":50,"Velocity":35,"Duration":3369724,"SoundDuration":3369724,"Delta":116070071},{"NoteNumber":54,"Velocity":35,"Duration":3369724,"SoundDuration":3369724,"Delta":116070071},{"NoteNumber":44,"Velocity":35,"Duration":741605,"SoundDuration":741605,"Delta":116070071},{"NoteNumber":44,"Velocity":31,"Duration":1115739,"SoundDuration":1115739,"Delta":116827455},{"NoteNumber":74,"Velocity":51,"Duration":2233648,"SoundDuration":2233648,"Delta":117206147},{"NoteNumber":78,"Velocity":51,"Duration":2233648,"SoundDuration":2233648,"Delta":117206147},{"NoteNumber":69,"Velocity":51,"Duration":1494902,"SoundDuration":1494902,"Delta":117206147},{"NoteNumber":81,"Velocity":51,"Duration":1494902,"SoundDuration":1494902,"Delta":117206147},{"NoteNumber":44,"Velocity":28,"Duration":360682,"SoundDuration":360682,"Delta":117958876},{"NoteNumber":44,"Velocity":34,"Duration":708601,"SoundDuration":708601,"Delta":118335241},{"NoteNumber":68,"Velocity":51,"Duration":357696,"SoundDuration":357696,"Delta":118701050},{"NoteNumber":80,"Velocity":51,"Duration":357696,"SoundDuration":357696,"Delta":118701050},{"NoteNumber":66,"Velocity":47,"Duration":381049,"SoundDuration":381049,"Delta":119058746},{"NoteNumber":78,"Velocity":47,"Duration":381049,"SoundDuration":381049,"Delta":119058746},{"NoteNumber":44,"Velocity":28,"Duration":365171,"SoundDuration":365171,"Delta":119058746},{"NoteNumber":64,"Velocity":51,"Duration":1101995,"SoundDuration":1101995,"Delta":119439795},{"NoteNumber":68,"Velocity":51,"Duration":1101995,"SoundDuration":1101995,"Delta":119439795},{"NoteNumber":73,"Velocity":51,"Duration":1101995,"SoundDuration":1101995,"Delta":119439795},{"NoteNumber":76,"Velocity":51,"Duration":1101995,"SoundDuration":1101995,"Delta":119439795},{"NoteNumber":52,"Velocity":37,"Duration":1101995,"SoundDuration":1101995,"Delta":119439795},{"NoteNumber":56,"Velocity":37,"Duration":1101995,"SoundDuration":1101995,"Delta":119439795},{"NoteNumber":44,"Velocity":31,"Duration":719358,"SoundDuration":719358,"Delta":119439795},{"NoteNumber":44,"Velocity":28,"Duration":352026,"SoundDuration":352026,"Delta":120174459},{"NoteNumber":68,"Velocity":54,"Duration":1101995,"SoundDuration":1101995,"Delta":120541791},{"NoteNumber":73,"Velocity":54,"Duration":1101995,"SoundDuration":1101995,"Delta":120541791},{"NoteNumber":76,"Velocity":54,"Duration":1101995,"SoundDuration":1101995,"Delta":120541791},{"NoteNumber":80,"Velocity":54,"Duration":1101995,"SoundDuration":1101995,"Delta":120541791},{"NoteNumber":49,"Velocity":39,"Duration":1101995,"SoundDuration":1101995,"Delta":120541791},{"NoteNumber":52,"Velocity":39,"Duration":1101995,"SoundDuration":1101995,"Delta":120541791},{"NoteNumber":44,"Velocity":31,"Duration":719358,"SoundDuration":719358,"Delta":120541791},{"NoteNumber":44,"Velocity":28,"Duration":352026,"SoundDuration":352026,"Delta":121276455},{"NoteNumber":66,"Velocity":53,"Duration":1101995,"SoundDuration":1101995,"Delta":121643787},{"NoteNumber":68,"Velocity":53,"Duration":1101995,"SoundDuration":1101995,"Delta":121643787},{"NoteNumber":75,"Velocity":53,"Duration":1101995,"SoundDuration":1101995,"Delta":121643787},{"NoteNumber":78,"Velocity":53,"Duration":1101995,"SoundDuration":1101995,"Delta":121643787},{"NoteNumber":51,"Velocity":36,"Duration":1101995,"SoundDuration":1101995,"Delta":121643787},{"NoteNumber":54,"Velocity":36,"Duration":1101995,"SoundDuration":1101995,"Delta":121643787},{"NoteNumber":44,"Velocity":31,"Duration":719358,"SoundDuration":719358,"Delta":121643787},{"NoteNumber":44,"Velocity":28,"Duration":352026,"SoundDuration":352026,"Delta":122378451},{"NoteNumber":64,"Velocity":47,"Duration":1127900,"SoundDuration":1127900,"Delta":122745783},{"NoteNumber":68,"Velocity":47,"Duration":1127900,"SoundDuration":1127900,"Delta":122745783},{"NoteNumber":73,"Velocity":47,"Duration":1127900,"SoundDuration":1127900,"Delta":122745783},{"NoteNumber":76,"Velocity":47,"Duration":1127900,"SoundDuration":1127900,"Delta":122745783},{"NoteNumber":52,"Velocity":33,"Duration":1127900,"SoundDuration":1127900,"Delta":122745783},{"NoteNumber":56,"Velocity":33,"Duration":1127900,"SoundDuration":1127900,"Delta":122745783},{"NoteNumber":44,"Velocity":30,"Duration":719358,"SoundDuration":719358,"Delta":122745783},{"NoteNumber":44,"Velocity":28,"Duration":376851,"SoundDuration":376851,"Delta":123480447},{"NoteNumber":67,"Velocity":45,"Duration":2242449,"SoundDuration":2242449,"Delta":123873684},{"NoteNumber":70,"Velocity":45,"Duration":2242449,"SoundDuration":2242449,"Delta":123873684},{"NoteNumber":63,"Velocity":51,"Duration":1129093,"SoundDuration":1129093,"Delta":123873684},{"NoteNumber":75,"Velocity":51,"Duration":1129093,"SoundDuration":1129093,"Delta":123873684},{"NoteNumber":51,"Velocity":40,"Duration":2242449,"SoundDuration":2242449,"Delta":123873684},{"NoteNumber":44,"Velocity":32,"Duration":737047,"SoundDuration":737047,"Delta":123873684},{"NoteNumber":44,"Velocity":23,"Duration":360682,"SoundDuration":360682,"Delta":124626413},{"NoteNumber":61,"Velocity":48,"Duration":734663,"SoundDuration":734663,"Delta":125002777},{"NoteNumber":73,"Velocity":48,"Duration":734663,"SoundDuration":734663,"Delta":125002777},{"NoteNumber":44,"Velocity":30,"Duration":719358,"SoundDuration":719358,"Delta":125002777},{"NoteNumber":59,"Velocity":46,"Duration":378692,"SoundDuration":378692,"Delta":125737441},{"NoteNumber":71,"Velocity":46,"Duration":378692,"SoundDuration":378692,"Delta":125737441},{"NoteNumber":44,"Velocity":28,"Duration":362913,"SoundDuration":362913,"Delta":125737441},{"NoteNumber":63,"Velocity":45,"Duration":2218135,"SoundDuration":2218135,"Delta":126116133},{"NoteNumber":67,"Velocity":45,"Duration":2218135,"SoundDuration":2218135,"Delta":126116133},{"NoteNumber":58,"Velocity":51,"Duration":552334,"SoundDuration":552334,"Delta":126116133},{"NoteNumber":70,"Velocity":51,"Duration":552334,"SoundDuration":552334,"Delta":126116133},{"NoteNumber":55,"Velocity":33,"Duration":2218135,"SoundDuration":2218135,"Delta":126116133},{"NoteNumber":44,"Velocity":30,"Duration":717718,"SoundDuration":717718,"Delta":126116133},{"NoteNumber":59,"Velocity":41,"Duration":180418,"SoundDuration":180418,"Delta":126668468},{"NoteNumber":71,"Velocity":41,"Duration":180418,"SoundDuration":180418,"Delta":126668468},{"NoteNumber":58,"Velocity":35,"Duration":387396,"SoundDuration":387396,"Delta":126848887},{"NoteNumber":70,"Velocity":35,"Duration":387396,"SoundDuration":387396,"Delta":126848887},{"NoteNumber":44,"Velocity":27,"Duration":371254,"SoundDuration":371254,"Delta":126848887},{"NoteNumber":61,"Velocity":43,"Duration":353190,"SoundDuration":353190,"Delta":127236283},{"NoteNumber":73,"Velocity":43,"Duration":353190,"SoundDuration":353190,"Delta":127236283},{"NoteNumber":44,"Velocity":28,"Duration":695696,"SoundDuration":695696,"Delta":127236283},{"NoteNumber":59,"Velocity":38,"Duration":357398,"SoundDuration":357398,"Delta":127589474},{"NoteNumber":71,"Velocity":38,"Duration":357398,"SoundDuration":357398,"Delta":127589474},{"NoteNumber":58,"Velocity":35,"Duration":387396,"SoundDuration":387396,"Delta":127946872},{"NoteNumber":70,"Velocity":35,"Duration":387396,"SoundDuration":387396,"Delta":127946872},{"NoteNumber":44,"Velocity":23,"Duration":371254,"SoundDuration":371254,"Delta":127946872},{"NoteNumber":59,"Velocity":45,"Duration":1864744,"SoundDuration":1864744,"Delta":128334268},{"NoteNumber":63,"Velocity":45,"Duration":1864744,"SoundDuration":1864744,"Delta":128334268},{"NoteNumber":68,"Velocity":45,"Duration":1118846,"SoundDuration":1118846,"Delta":128334268},{"NoteNumber":71,"Velocity":45,"Duration":1118846,"SoundDuration":1118846,"Delta":128334268},{"NoteNumber":56,"Velocity":33,"Duration":1864744,"SoundDuration":1864744,"Delta":128334268},{"NoteNumber":44,"Velocity":28,"Duration":730358,"SoundDuration":730358,"Delta":128334268},{"NoteNumber":44,"Velocity":28,"Duration":357409,"SoundDuration":357409,"Delta":129080166},{"NoteNumber":68,"Velocity":41,"Duration":745898,"SoundDuration":745898,"Delta":129453115},{"NoteNumber":44,"Velocity":32,"Duration":730358,"SoundDuration":730358,"Delta":129453115},{"NoteNumber":44,"Velocity":29,"Duration":357409,"SoundDuration":357409,"Delta":130199013},{"NoteNumber":69,"Velocity":40,"Duration":1101644,"SoundDuration":1101644,"Delta":130571962},{"NoteNumber":73,"Velocity":40,"Duration":1101644,"SoundDuration":1101644,"Delta":130571962},{"NoteNumber":64,"Velocity":45,"Duration":735835,"SoundDuration":735835,"Delta":130571962},{"NoteNumber":76,"Velocity":45,"Duration":735835,"SoundDuration":735835,"Delta":130571962},{"NoteNumber":49,"Velocity":35,"Duration":1101644,"SoundDuration":1101644,"Delta":130571962},{"NoteNumber":52,"Velocity":35,"Duration":1101644,"SoundDuration":1101644,"Delta":130571962},{"NoteNumber":44,"Velocity":32,"Duration":720505,"SoundDuration":720505,"Delta":130571962},{"NoteNumber":64,"Velocity":43,"Duration":365809,"SoundDuration":365809,"Delta":131307797},{"NoteNumber":76,"Velocity":43,"Duration":365809,"SoundDuration":365809,"Delta":131307797},{"NoteNumber":44,"Velocity":26,"Duration":350566,"SoundDuration":350566,"Delta":131307797},{"NoteNumber":69,"Velocity":43,"Duration":1079273,"SoundDuration":1079273,"Delta":131673606},{"NoteNumber":73,"Velocity":43,"Duration":1079273,"SoundDuration":1079273,"Delta":131673606},{"NoteNumber":66,"Velocity":48,"Duration":529674,"SoundDuration":529674,"Delta":131673606},{"NoteNumber":78,"Velocity":48,"Duration":529674,"SoundDuration":529674,"Delta":131673606},{"NoteNumber":51,"Velocity":33,"Duration":1079273,"SoundDuration":1079273,"Delta":131673606},{"NoteNumber":54,"Velocity":33,"Duration":1079273,"SoundDuration":1079273,"Delta":131673606},{"NoteNumber":44,"Velocity":30,"Duration":692705,"SoundDuration":692705,"Delta":131673606},{"NoteNumber":64,"Velocity":46,"Duration":177851,"SoundDuration":177851,"Delta":132203281},{"NoteNumber":76,"Velocity":46,"Duration":177851,"SoundDuration":177851,"Delta":132203281},{"NoteNumber":63,"Velocity":42,"Duration":278810,"SoundDuration":278810,"Delta":132381133},{"NoteNumber":75,"Velocity":42,"Duration":278810,"SoundDuration":278810,"Delta":132381133},{"NoteNumber":44,"Velocity":28,"Duration":356257,"SoundDuration":356257,"Delta":132381133},{"NoteNumber":69,"Velocity":43,"Duration":1099559,"SoundDuration":1099559,"Delta":132752880},{"NoteNumber":73,"Velocity":43,"Duration":1099559,"SoundDuration":1099559,"Delta":132752880},{"NoteNumber":64,"Velocity":48,"Duration":735835,"SoundDuration":735835,"Delta":132752880},{"NoteNumber":76,"Velocity":48,"Duration":735835,"SoundDuration":735835,"Delta":132752880},{"NoteNumber":49,"Velocity":35,"Duration":1099559,"SoundDuration":1099559,"Delta":132752880},{"NoteNumber":52,"Velocity":35,"Duration":1099559,"SoundDuration":1099559,"Delta":132752880},{"NoteNumber":44,"Velocity":31,"Duration":720505,"SoundDuration":720505,"Delta":132752880},{"NoteNumber":64,"Velocity":45,"Duration":363724,"SoundDuration":363724,"Delta":133488715},{"NoteNumber":76,"Velocity":45,"Duration":363724,"SoundDuration":363724,"Delta":133488715},{"NoteNumber":44,"Velocity":28,"Duration":348569,"SoundDuration":348569,"Delta":133488715},{"NoteNumber":69,"Velocity":41,"Duration":1103259,"SoundDuration":1103259,"Delta":133852439},{"NoteNumber":73,"Velocity":41,"Duration":1103259,"SoundDuration":1103259,"Delta":133852439},{"NoteNumber":66,"Velocity":46,"Duration":535594,"SoundDuration":535594,"Delta":133852439},{"NoteNumber":78,"Velocity":46,"Duration":535594,"SoundDuration":535594,"Delta":133852439},{"NoteNumber":51,"Velocity":32,"Duration":1103259,"SoundDuration":1103259,"Delta":133852439},{"NoteNumber":54,"Velocity":32,"Duration":1103259,"SoundDuration":1103259,"Delta":133852439},{"NoteNumber":44,"Velocity":30,"Duration":702301,"SoundDuration":702301,"Delta":133852439},{"NoteNumber":64,"Velocity":40,"Duration":181862,"SoundDuration":181862,"Delta":134388034},{"NoteNumber":76,"Velocity":40,"Duration":181862,"SoundDuration":181862,"Delta":134388034},{"NoteNumber":63,"Velocity":40,"Duration":289351,"SoundDuration":289351,"Delta":134569896},{"NoteNumber":75,"Velocity":40,"Duration":289351,"SoundDuration":289351,"Delta":134569896},{"NoteNumber":44,"Velocity":28,"Duration":369727,"SoundDuration":369727,"Delta":134569896},{"NoteNumber":64,"Velocity":45,"Duration":1129093,"SoundDuration":1129093,"Delta":134955698},{"NoteNumber":69,"Velocity":45,"Duration":1129093,"SoundDuration":1129093,"Delta":134955698},{"NoteNumber":73,"Velocity":45,"Duration":1129093,"SoundDuration":1129093,"Delta":134955698},{"NoteNumber":76,"Velocity":45,"Duration":1129093,"SoundDuration":1129093,"Delta":134955698},{"NoteNumber":49,"Velocity":35,"Duration":1129093,"SoundDuration":1129093,"Delta":134955698},{"NoteNumber":52,"Velocity":35,"Duration":1129093,"SoundDuration":1129093,"Delta":134955698},{"NoteNumber":44,"Velocity":34,"Duration":737047,"SoundDuration":737047,"Delta":134955698},{"NoteNumber":44,"Velocity":28,"Duration":360682,"SoundDuration":360682,"Delta":135708427},{"NoteNumber":62,"Velocity":46,"Duration":1136076,"SoundDuration":1136076,"Delta":136084792},{"NoteNumber":66,"Velocity":46,"Duration":1136076,"SoundDuration":1136076,"Delta":136084792},{"NoteNumber":69,"Velocity":46,"Duration":1136076,"SoundDuration":1136076,"Delta":136084792},{"NoteNumber":74,"Velocity":46,"Duration":1136076,"SoundDuration":1136076,"Delta":136084792},{"NoteNumber":50,"Velocity":35,"Duration":3373805,"SoundDuration":3373805,"Delta":136084792},{"NoteNumber":54,"Velocity":35,"Duration":3373805,"SoundDuration":3373805,"Delta":136084792},{"NoteNumber":44,"Velocity":32,"Duration":741605,"SoundDuration":741605,"Delta":136084792},{"NoteNumber":44,"Velocity":33,"Duration":1115739,"SoundDuration":1115739,"Delta":136842176},{"NoteNumber":74,"Velocity":51,"Duration":2237729,"SoundDuration":2237729,"Delta":137220868},{"NoteNumber":78,"Velocity":51,"Duration":2237729,"SoundDuration":2237729,"Delta":137220868},{"NoteNumber":69,"Velocity":51,"Duration":1129093,"SoundDuration":1129093,"Delta":137220868},{"NoteNumber":81,"Velocity":51,"Duration":1129093,"SoundDuration":1129093,"Delta":137220868},{"NoteNumber":44,"Velocity":31,"Duration":360682,"SoundDuration":360682,"Delta":137973597},{"NoteNumber":68,"Velocity":51,"Duration":367917,"SoundDuration":367917,"Delta":138349961},{"NoteNumber":80,"Velocity":51,"Duration":367917,"SoundDuration":367917,"Delta":138349961},{"NoteNumber":44,"Velocity":34,"Duration":712600,"SoundDuration":712600,"Delta":138349961},{"NoteNumber":81,"Velocity":45,"Duration":359668,"SoundDuration":359668,"Delta":138717879},{"NoteNumber":69,"Velocity":45,"Duration":359668,"SoundDuration":359668,"Delta":138717879},{"NoteNumber":66,"Velocity":46,"Duration":381048,"SoundDuration":381048,"Delta":139077548},{"NoteNumber":78,"Velocity":46,"Duration":381048,"SoundDuration":381048,"Delta":139077548},{"NoteNumber":44,"Velocity":28,"Duration":365171,"SoundDuration":365171,"Delta":139077548},{"NoteNumber":64,"Velocity":51,"Duration":1101996,"SoundDuration":1101996,"Delta":139458597},{"NoteNumber":68,"Velocity":51,"Duration":1101996,"SoundDuration":1101996,"Delta":139458597},{"NoteNumber":73,"Velocity":51,"Duration":1101996,"SoundDuration":1101996,"Delta":139458597},{"NoteNumber":76,"Velocity":51,"Duration":1101996,"SoundDuration":1101996,"Delta":139458597},{"NoteNumber":52,"Velocity":37,"Duration":1101996,"SoundDuration":1101996,"Delta":139458597},{"NoteNumber":56,"Velocity":37,"Duration":1101996,"SoundDuration":1101996,"Delta":139458597},{"NoteNumber":44,"Velocity":35,"Duration":719358,"SoundDuration":719358,"Delta":139458597},{"NoteNumber":44,"Velocity":28,"Duration":352026,"SoundDuration":352026,"Delta":140193261},{"NoteNumber":68,"Velocity":47,"Duration":1101995,"SoundDuration":1101995,"Delta":140560593},{"NoteNumber":73,"Velocity":47,"Duration":1101995,"SoundDuration":1101995,"Delta":140560593},{"NoteNumber":76,"Velocity":47,"Duration":1101995,"SoundDuration":1101995,"Delta":140560593},{"NoteNumber":80,"Velocity":47,"Duration":1101995,"SoundDuration":1101995,"Delta":140560593},{"NoteNumber":49,"Velocity":35,"Duration":1101995,"SoundDuration":1101995,"Delta":140560593},{"NoteNumber":52,"Velocity":35,"Duration":1101995,"SoundDuration":1101995,"Delta":140560593},{"NoteNumber":44,"Velocity":36,"Duration":719358,"SoundDuration":719358,"Delta":140560593},{"NoteNumber":44,"Velocity":28,"Duration":352026,"SoundDuration":352026,"Delta":141295257},{"NoteNumber":66,"Velocity":48,"Duration":355703,"SoundDuration":355703,"Delta":141662589},{"NoteNumber":68,"Velocity":48,"Duration":355703,"SoundDuration":355703,"Delta":141662589},{"NoteNumber":75,"Velocity":48,"Duration":1092399,"SoundDuration":1092399,"Delta":141662589},{"NoteNumber":78,"Velocity":48,"Duration":355703,"SoundDuration":355703,"Delta":141662589},{"NoteNumber":51,"Velocity":35,"Duration":1092399,"SoundDuration":1092399,"Delta":141662589},{"NoteNumber":54,"Velocity":35,"Duration":1092399,"SoundDuration":1092399,"Delta":141662589},{"NoteNumber":44,"Velocity":32,"Duration":707729,"SoundDuration":707729,"Delta":141662589},{"NoteNumber":68,"Velocity":45,"Duration":736696,"SoundDuration":736696,"Delta":142018292},{"NoteNumber":80,"Velocity":45,"Duration":367332,"SoundDuration":367332,"Delta":142018292},{"NoteNumber":63,"Velocity":45,"Duration":369364,"SoundDuration":369364,"Delta":142385624},{"NoteNumber":75,"Velocity":45,"Duration":369364,"SoundDuration":369364,"Delta":142385624},{"NoteNumber":44,"Velocity":28,"Duration":353966,"SoundDuration":353966,"Delta":142385624},{"NoteNumber":64,"Velocity":47,"Duration":362976,"SoundDuration":362976,"Delta":142754988},{"NoteNumber":68,"Velocity":47,"Duration":1123545,"SoundDuration":1123545,"Delta":142754988},{"NoteNumber":73,"Velocity":47,"Duration":1123545,"SoundDuration":1123545,"Delta":142754988},{"NoteNumber":76,"Velocity":47,"Duration":362976,"SoundDuration":362976,"Delta":142754988},{"NoteNumber":52,"Velocity":33,"Duration":1123545,"SoundDuration":1123545,"Delta":142754988},{"NoteNumber":56,"Velocity":33,"Duration":1123545,"SoundDuration":1123545,"Delta":142754988},{"NoteNumber":44,"Velocity":30,"Duration":715002,"SoundDuration":715002,"Delta":142754988},{"NoteNumber":63,"Velocity":43,"Duration":367332,"SoundDuration":367332,"Delta":143117965},{"NoteNumber":75,"Velocity":43,"Duration":367332,"SoundDuration":367332,"Delta":143117965},{"NoteNumber":64,"Velocity":42,"Duration":393236,"SoundDuration":393236,"Delta":143485297},{"NoteNumber":76,"Velocity":42,"Duration":393236,"SoundDuration":393236,"Delta":143485297},{"NoteNumber":44,"Velocity":28,"Duration":376851,"SoundDuration":376851,"Delta":143485297},{"NoteNumber":67,"Velocity":45,"Duration":2242449,"SoundDuration":2242449,"Delta":143878533},{"NoteNumber":70,"Velocity":45,"Duration":2242449,"SoundDuration":2242449,"Delta":143878533},{"NoteNumber":63,"Velocity":51,"Duration":1129093,"SoundDuration":1129093,"Delta":143878533},{"NoteNumber":75,"Velocity":51,"Duration":1129093,"SoundDuration":1129093,"Delta":143878533},{"NoteNumber":55,"Velocity":40,"Duration":2242449,"SoundDuration":2242449,"Delta":143878533},{"NoteNumber":44,"Velocity":32,"Duration":737047,"SoundDuration":737047,"Delta":143878533},{"NoteNumber":44,"Velocity":27,"Duration":360682,"SoundDuration":360682,"Delta":144631262},{"NoteNumber":61,"Velocity":48,"Duration":734664,"SoundDuration":734664,"Delta":145007627},{"NoteNumber":73,"Velocity":48,"Duration":734664,"SoundDuration":734664,"Delta":145007627},{"NoteNumber":44,"Velocity":30,"Duration":719358,"SoundDuration":719358,"Delta":145007627},{"NoteNumber":59,"Velocity":46,"Duration":378692,"SoundDuration":378692,"Delta":145742291},{"NoteNumber":71,"Velocity":46,"Duration":378692,"SoundDuration":378692,"Delta":145742291},{"NoteNumber":44,"Velocity":27,"Duration":362913,"SoundDuration":362913,"Delta":145742291},{"NoteNumber":63,"Velocity":45,"Duration":2198892,"SoundDuration":2198892,"Delta":146120983},{"NoteNumber":67,"Velocity":45,"Duration":2198892,"SoundDuration":2198892,"Delta":146120983},{"NoteNumber":58,"Velocity":51,"Duration":549768,"SoundDuration":549768,"Delta":146120983},{"NoteNumber":70,"Velocity":51,"Duration":549768,"SoundDuration":549768,"Delta":146120983},{"NoteNumber":51,"Velocity":33,"Duration":2198892,"SoundDuration":2198892,"Delta":146120983},{"NoteNumber":44,"Velocity":31,"Duration":712798,"SoundDuration":712798,"Delta":146120983},{"NoteNumber":59,"Velocity":41,"Duration":177851,"SoundDuration":177851,"Delta":146670751},{"NoteNumber":71,"Velocity":41,"Duration":177851,"SoundDuration":177851,"Delta":146670751},{"NoteNumber":58,"Velocity":35,"Duration":282273,"SoundDuration":282273,"Delta":146848602},{"NoteNumber":70,"Velocity":35,"Duration":282273,"SoundDuration":282273,"Delta":146848602},{"NoteNumber":44,"Velocity":28,"Duration":360682,"SoundDuration":360682,"Delta":146848602},{"NoteNumber":61,"Velocity":43,"Duration":355703,"SoundDuration":355703,"Delta":147224967},{"NoteNumber":73,"Velocity":43,"Duration":355703,"SoundDuration":355703,"Delta":147224967},{"NoteNumber":44,"Velocity":31,"Duration":705629,"SoundDuration":705629,"Delta":147224967},{"NoteNumber":59,"Velocity":38,"Duration":365140,"SoundDuration":365140,"Delta":147580670},{"NoteNumber":71,"Velocity":38,"Duration":365140,"SoundDuration":365140,"Delta":147580670},{"NoteNumber":58,"Velocity":35,"Duration":280548,"SoundDuration":280548,"Delta":147945811},{"NoteNumber":70,"Velocity":35,"Duration":280548,"SoundDuration":280548,"Delta":147945811},{"NoteNumber":44,"Velocity":23,"Duration":358478,"SoundDuration":358478,"Delta":147945811},{"NoteNumber":59,"Velocity":40,"Duration":1874707,"SoundDuration":1874707,"Delta":148319876},{"NoteNumber":63,"Velocity":40,"Duration":1874707,"SoundDuration":1874707,"Delta":148319876},{"NoteNumber":68,"Velocity":45,"Duration":1144630,"SoundDuration":1144630,"Delta":148319876},{"NoteNumber":71,"Velocity":45,"Duration":1144630,"SoundDuration":1144630,"Delta":148319876},{"NoteNumber":51,"Velocity":45,"Duration":592135,"SoundDuration":592135,"Delta":148319876},{"NoteNumber":44,"Velocity":32,"Duration":4518989,"SoundDuration":4518989,"Delta":148319876},{"NoteNumber":52,"Velocity":38,"Duration":212967,"SoundDuration":212967,"Delta":148882114},{"NoteNumber":51,"Velocity":43,"Duration":403008,"SoundDuration":403008,"Delta":149061497},{"NoteNumber":68,"Velocity":41,"Duration":730076,"SoundDuration":730076,"Delta":149464506},{"NoteNumber":54,"Velocity":45,"Duration":392404,"SoundDuration":392404,"Delta":149464506},{"NoteNumber":52,"Velocity":43,"Duration":400123,"SoundDuration":400123,"Delta":149826213},{"NoteNumber":51,"Velocity":45,"Duration":381048,"SoundDuration":381048,"Delta":150194583},{"NoteNumber":49,"Velocity":45,"Duration":589927,"SoundDuration":589927,"Delta":150575632},{"NoteNumber":51,"Velocity":43,"Duration":211254,"SoundDuration":211254,"Delta":151135662},{"NoteNumber":49,"Velocity":43,"Duration":382458,"SoundDuration":382458,"Delta":151315045},{"NoteNumber":68,"Velocity":51,"Duration":1141361,"SoundDuration":1141361,"Delta":151697503},{"NoteNumber":52,"Velocity":47,"Duration":393265,"SoundDuration":393265,"Delta":151697503},{"NoteNumber":51,"Velocity":43,"Duration":412105,"SoundDuration":412105,"Delta":152059211},{"NoteNumber":49,"Velocity":39,"Duration":400962,"SoundDuration":400962,"Delta":152437903},{"NoteNumber":75,"Velocity":63,"Duration":4522824,"SoundDuration":4522824,"Delta":152838865},{"NoteNumber":47,"Velocity":45,"Duration":798234,"SoundDuration":798234,"Delta":152838865},{"NoteNumber":44,"Velocity":33,"Duration":2270563,"SoundDuration":2270563,"Delta":152838865},{"NoteNumber":49,"Velocity":42,"Duration":406975,"SoundDuration":406975,"Delta":153605736},{"NoteNumber":51,"Velocity":47,"Duration":398310,"SoundDuration":398310,"Delta":153982101},{"NoteNumber":49,"Velocity":42,"Duration":404101,"SoundDuration":404101,"Delta":154349433},{"NoteNumber":47,"Velocity":40,"Duration":388249,"SoundDuration":388249,"Delta":154721180},{"NoteNumber":46,"Velocity":43,"Duration":593536,"SoundDuration":593536,"Delta":155109429},{"NoteNumber":44,"Velocity":35,"Duration":2252261,"SoundDuration":2252261,"Delta":155109429},{"NoteNumber":47,"Velocity":38,"Duration":212371,"SoundDuration":212371,"Delta":155672895},{"NoteNumber":46,"Velocity":45,"Duration":383435,"SoundDuration":383435,"Delta":155853314},{"NoteNumber":49,"Velocity":46,"Duration":396504,"SoundDuration":396504,"Delta":156236749},{"NoteNumber":47,"Velocity":42,"Duration":408317,"SoundDuration":408317,"Delta":156601890},{"NoteNumber":46,"Velocity":40,"Duration":383435,"SoundDuration":383435,"Delta":156978255},{"NoteNumber":80,"Velocity":56,"Duration":766871,"SoundDuration":766871,"Delta":157361690},{"NoteNumber":47,"Velocity":42,"Duration":1150306,"SoundDuration":1150306,"Delta":157361690},{"NoteNumber":44,"Velocity":34,"Duration":750894,"SoundDuration":750894,"Delta":157361690},{"NoteNumber":44,"Velocity":27,"Duration":367459,"SoundDuration":367459,"Delta":158128561},{"NoteNumber":44,"Velocity":32,"Duration":750894,"SoundDuration":750894,"Delta":158511997},{"NoteNumber":63,"Velocity":51,"Duration":446489,"SoundDuration":446489,"Delta":159278868},{"NoteNumber":44,"Velocity":29,"Duration":397264,"SoundDuration":397264,"Delta":159278868},{"NoteNumber":68,"Velocity":56,"Duration":2668945,"SoundDuration":2668945,"Delta":159693404},{"NoteNumber":51,"Velocity":41,"Duration":3392690,"SoundDuration":3392690,"Delta":159693404},{"NoteNumber":44,"Velocity":28,"Duration":750894,"SoundDuration":750894,"Delta":159693404},{"NoteNumber":44,"Velocity":22,"Duration":362913,"SoundDuration":362913,"Delta":160460275},{"NoteNumber":44,"Velocity":26,"Duration":750894,"SoundDuration":750894,"Delta":160838967},{"NoteNumber":44,"Velocity":20,"Duration":358478,"SoundDuration":358478,"Delta":161605838},{"NoteNumber":44,"Velocity":26,"Duration":697044,"SoundDuration":697044,"Delta":161979903},{"NoteNumber":71,"Velocity":53,"Duration":392387,"SoundDuration":392387,"Delta":162332388},{"NoteNumber":70,"Velocity":51,"Duration":295624,"SoundDuration":295624,"Delta":162691928},{"NoteNumber":44,"Velocity":20,"Duration":377742,"SoundDuration":377742,"Delta":162691928},{"NoteNumber":68,"Velocity":45,"Duration":98541,"SoundDuration":98541,"Delta":162954706},{"NoteNumber":70,"Velocity":42,"Duration":96707,"SoundDuration":96707,"Delta":163020400},{"NoteNumber":68,"Velocity":56,"Duration":404867,"SoundDuration":404867,"Delta":163086095},{"NoteNumber":52,"Velocity":41,"Duration":1147085,"SoundDuration":1147085,"Delta":163086095},{"NoteNumber":44,"Velocity":26,"Duration":748274,"SoundDuration":748274,"Delta":163086095},{"NoteNumber":64,"Velocity":47,"Duration":424335,"SoundDuration":424335,"Delta":163458257},{"NoteNumber":68,"Velocity":45,"Duration":382458,"SoundDuration":382458,"Delta":163850722},{"NoteNumber":44,"Velocity":20,"Duration":366522,"SoundDuration":366522,"Delta":163850722},{"NoteNumber":68,"Velocity":53,"Duration":790459,"SoundDuration":790459,"Delta":164233180},{"NoteNumber":51,"Velocity":41,"Duration":1127717,"SoundDuration":1127717,"Delta":164233180},{"NoteNumber":44,"Velocity":25,"Duration":744118,"SoundDuration":744118,"Delta":164233180},{"NoteNumber":75,"Velocity":48,"Duration":399870,"SoundDuration":399870,"Delta":164992980},{"NoteNumber":44,"Velocity":22,"Duration":352587,"SoundDuration":352587,"Delta":164992980},{"NoteNumber":68,"Velocity":50,"Duration":2263131,"SoundDuration":2263131,"Delta":165360897},{"NoteNumber":56,"Velocity":40,"Duration":2263131,"SoundDuration":2263131,"Delta":165360897},{"NoteNumber":44,"Velocity":26,"Duration":750894,"SoundDuration":750894,"Delta":165360897},{"NoteNumber":44,"Velocity":22,"Duration":358478,"SoundDuration":358478,"Delta":166127768},{"NoteNumber":44,"Velocity":26,"Duration":732543,"SoundDuration":732543,"Delta":166501833},{"NoteNumber":44,"Velocity":22,"Duration":358478,"SoundDuration":358478,"Delta":167249963},{"NoteNumber":44,"Velocity":28,"Duration":732543,"SoundDuration":732543,"Delta":167624028},{"NoteNumber":44,"Velocity":22,"Duration":367459,"SoundDuration":367459,"Delta":168372158},{"NoteNumber":63,"Velocity":36,"Duration":1846026,"SoundDuration":1846026,"Delta":168755594},{"NoteNumber":66,"Velocity":36,"Duration":1846026,"SoundDuration":1846026,"Delta":168755594},{"NoteNumber":69,"Velocity":51,"Duration":1494902,"SoundDuration":1494902,"Delta":168755594},{"NoteNumber":60,"Velocity":41,"Duration":2212147,"SoundDuration":2212147,"Delta":168755594},{"NoteNumber":44,"Velocity":27,"Duration":737047,"SoundDuration":737047,"Delta":168755594},{"NoteNumber":44,"Velocity":28,"Duration":360682,"SoundDuration":360682,"Delta":169508323},{"NoteNumber":44,"Velocity":30,"Duration":702302,"SoundDuration":702302,"Delta":169884687},{"NoteNumber":68,"Velocity":47,"Duration":351123,"SoundDuration":351123,"Delta":170250496},{"NoteNumber":69,"Velocity":44,"Duration":366121,"SoundDuration":366121,"Delta":170601620},{"NoteNumber":44,"Velocity":28,"Duration":350866,"SoundDuration":350866,"Delta":170601620},{"NoteNumber":62,"Velocity":36,"Duration":1832061,"SoundDuration":1832061,"Delta":170967741},{"NoteNumber":65,"Velocity":36,"Duration":1832061,"SoundDuration":1832061,"Delta":170967741},{"NoteNumber":70,"Velocity":57,"Duration":754210,"SoundDuration":754210,"Delta":170967741},{"NoteNumber":58,"Velocity":41,"Duration":2201610,"SoundDuration":2201610,"Delta":170967741},{"NoteNumber":44,"Velocity":32,"Duration":708343,"SoundDuration":708343,"Delta":170967741},{"NoteNumber":77,"Velocity":48,"Duration":400344,"SoundDuration":400344,"Delta":171691156},{"NoteNumber":44,"Velocity":31,"Duration":354151,"SoundDuration":354151,"Delta":171691156},{"NoteNumber":70,"Velocity":50,"Duration":739097,"SoundDuration":739097,"Delta":172060705},{"NoteNumber":44,"Velocity":35,"Duration":723700,"SoundDuration":723700,"Delta":172060705},{"NoteNumber":44,"Velocity":23,"Duration":354151,"SoundDuration":354151,"Delta":172799803},{"NoteNumber":63,"Velocity":36,"Duration":1848134,"SoundDuration":1848134,"Delta":173169352},{"NoteNumber":66,"Velocity":36,"Duration":1848134,"SoundDuration":1848134,"Delta":173169352},{"NoteNumber":72,"Velocity":51,"Duration":1497011,"SoundDuration":1497011,"Delta":173169352},{"NoteNumber":57,"Velocity":41,"Duration":2211111,"SoundDuration":2211111,"Delta":173169352},{"NoteNumber":44,"Velocity":26,"Duration":737047,"SoundDuration":737047,"Delta":173169352},{"NoteNumber":44,"Velocity":27,"Duration":360682,"SoundDuration":360682,"Delta":173922081},{"NoteNumber":44,"Velocity":29,"Duration":704410,"SoundDuration":704410,"Delta":174298446},{"NoteNumber":71,"Velocity":47,"Duration":351123,"SoundDuration":351123,"Delta":174666363},{"NoteNumber":72,"Velocity":45,"Duration":362976,"SoundDuration":362976,"Delta":175017487},{"NoteNumber":44,"Velocity":30,"Duration":347852,"SoundDuration":347852,"Delta":175017487},{"NoteNumber":68,"Velocity":36,"Duration":1847745,"SoundDuration":1847745,"Delta":175380463},{"NoteNumber":65,"Velocity":36,"Duration":1847745,"SoundDuration":1847745,"Delta":175380463},{"NoteNumber":73,"Velocity":57,"Duration":769893,"SoundDuration":769893,"Delta":175380463},{"NoteNumber":56,"Velocity":41,"Duration":2230203,"SoundDuration":2230203,"Delta":175380463},{"NoteNumber":44,"Velocity":32,"Duration":723700,"SoundDuration":723700,"Delta":175380463},{"NoteNumber":80,"Velocity":50,"Duration":400344,"SoundDuration":400344,"Delta":176119561},{"NoteNumber":44,"Velocity":31,"Duration":354151,"SoundDuration":354151,"Delta":176119561},{"NoteNumber":73,"Velocity":50,"Duration":739097,"SoundDuration":739097,"Delta":176489110},{"NoteNumber":44,"Velocity":34,"Duration":723700,"SoundDuration":723700,"Delta":176489110},{"NoteNumber":44,"Velocity":22,"Duration":366522,"SoundDuration":366522,"Delta":177228208},{"NoteNumber":63,"Velocity":51,"Duration":4384838,"SoundDuration":4384838,"Delta":177610666},{"NoteNumber":70,"Velocity":51,"Duration":4384838,"SoundDuration":4384838,"Delta":177610666},{"NoteNumber":74,"Velocity":51,"Duration":4384838,"SoundDuration":4384838,"Delta":177610666},{"NoteNumber":54,"Velocity":41,"Duration":4384838,"SoundDuration":4384838,"Delta":177610666},{"NoteNumber":44,"Velocity":32,"Duration":721390,"SoundDuration":721390,"Delta":177610666},{"NoteNumber":44,"Velocity":27,"Duration":342792,"SoundDuration":342792,"Delta":178347405},{"NoteNumber":44,"Velocity":28,"Duration":716375,"SoundDuration":716375,"Delta":178705102},{"NoteNumber":44,"Velocity":25,"Duration":346636,"SoundDuration":346636,"Delta":179436720},{"NoteNumber":44,"Velocity":28,"Duration":716375,"SoundDuration":716375,"Delta":179798427},{"NoteNumber":44,"Velocity":25,"Duration":346636,"SoundDuration":346636,"Delta":180530045},{"NoteNumber":44,"Velocity":28,"Duration":720505,"SoundDuration":720505,"Delta":180891753},{"NoteNumber":44,"Velocity":25,"Duration":352587,"SoundDuration":352587,"Delta":181627588},{"NoteNumber":68,"Velocity":36,"Duration":1109841,"SoundDuration":1109841,"Delta":181995505},{"NoteNumber":63,"Velocity":56,"Duration":1109841,"SoundDuration":1109841,"Delta":181995505},{"NoteNumber":75,"Velocity":56,"Duration":1109841,"SoundDuration":1109841,"Delta":181995505},{"NoteNumber":53,"Velocity":36,"Duration":1109841,"SoundDuration":1109841,"Delta":181995505},{"NoteNumber":44,"Velocity":32,"Duration":724419,"SoundDuration":724419,"Delta":181995505},{"NoteNumber":44,"Velocity":26,"Duration":354588,"SoundDuration":354588,"Delta":182735341},{"NoteNumber":68,"Velocity":36,"Duration":1087321,"SoundDuration":1087321,"Delta":183105346},{"NoteNumber":62,"Velocity":48,"Duration":357696,"SoundDuration":357696,"Delta":183105346},{"NoteNumber":74,"Velocity":48,"Duration":357696,"SoundDuration":357696,"Delta":183105346},{"NoteNumber":52,"Velocity":36,"Duration":1087321,"SoundDuration":1087321,"Delta":183105346},{"NoteNumber":44,"Velocity":31,"Duration":704332,"SoundDuration":704332,"Delta":183105346},{"NoteNumber":61,"Velocity":46,"Duration":361707,"SoundDuration":361707,"Delta":183463043},{"NoteNumber":73,"Velocity":46,"Duration":361707,"SoundDuration":361707,"Delta":183463043},{"NoteNumber":62,"Velocity":45,"Duration":367917,"SoundDuration":367917,"Delta":183824750},{"NoteNumber":74,"Velocity":45,"Duration":367917,"SoundDuration":367917,"Delta":183824750},{"NoteNumber":44,"Velocity":23,"Duration":352587,"SoundDuration":352587,"Delta":183824750},{"NoteNumber":68,"Velocity":36,"Duration":1108646,"SoundDuration":1108646,"Delta":184192668},{"NoteNumber":63,"Velocity":53,"Duration":1108646,"SoundDuration":1108646,"Delta":184192668},{"NoteNumber":75,"Velocity":53,"Duration":1108646,"SoundDuration":1108646,"Delta":184192668},{"NoteNumber":53,"Velocity":36,"Duration":1108646,"SoundDuration":1108646,"Delta":184192668},{"NoteNumber":44,"Velocity":30,"Duration":723700,"SoundDuration":723700,"Delta":184192668},{"NoteNumber":44,"Velocity":26,"Duration":354151,"SoundDuration":354151,"Delta":184931766},{"NoteNumber":68,"Velocity":36,"Duration":1081202,"SoundDuration":1081202,"Delta":185301315},{"NoteNumber":62,"Velocity":47,"Duration":357696,"SoundDuration":357696,"Delta":185301315},{"NoteNumber":74,"Velocity":47,"Duration":357696,"SoundDuration":357696,"Delta":185301315},{"NoteNumber":52,"Velocity":36,"Duration":1081202,"SoundDuration":1081202,"Delta":185301315},{"NoteNumber":44,"Velocity":28,"Duration":700488,"SoundDuration":700488,"Delta":185301315},{"NoteNumber":61,"Velocity":46,"Duration":357696,"SoundDuration":357696,"Delta":185659011},{"NoteNumber":73,"Velocity":46,"Duration":357696,"SoundDuration":357696,"Delta":185659011},{"NoteNumber":62,"Velocity":45,"Duration":365809,"SoundDuration":365809,"Delta":186016708},{"NoteNumber":74,"Velocity":45,"Duration":365809,"SoundDuration":365809,"Delta":186016708},{"NoteNumber":44,"Velocity":26,"Duration":350566,"SoundDuration":350566,"Delta":186016708},{"NoteNumber":68,"Velocity":36,"Duration":2217294,"SoundDuration":2217294,"Delta":186382517},{"NoteNumber":63,"Velocity":52,"Duration":1108646,"SoundDuration":1108646,"Delta":186382517},{"NoteNumber":75,"Velocity":52,"Duration":1108646,"SoundDuration":1108646,"Delta":186382517},{"NoteNumber":53,"Velocity":36,"Duration":2217294,"SoundDuration":2217294,"Delta":186382517},{"NoteNumber":44,"Velocity":29,"Duration":723700,"SoundDuration":723700,"Delta":186382517},{"NoteNumber":44,"Velocity":23,"Duration":354151,"SoundDuration":354151,"Delta":187121615},{"NoteNumber":62,"Velocity":47,"Duration":1108647,"SoundDuration":1108647,"Delta":187491164},{"NoteNumber":74,"Velocity":47,"Duration":1108647,"SoundDuration":1108647,"Delta":187491164},{"NoteNumber":44,"Velocity":27,"Duration":723700,"SoundDuration":723700,"Delta":187491164},{"NoteNumber":44,"Velocity":25,"Duration":354151,"SoundDuration":354151,"Delta":188230262},{"NoteNumber":61,"Velocity":46,"Duration":1108646,"SoundDuration":1108646,"Delta":188599811},{"NoteNumber":68,"Velocity":46,"Duration":1108646,"SoundDuration":1108646,"Delta":188599811},{"NoteNumber":73,"Velocity":46,"Duration":1108646,"SoundDuration":1108646,"Delta":188599811},{"NoteNumber":52,"Velocity":36,"Duration":1108646,"SoundDuration":1108646,"Delta":188599811},{"NoteNumber":44,"Velocity":27,"Duration":723700,"SoundDuration":723700,"Delta":188599811},{"NoteNumber":44,"Velocity":23,"Duration":354151,"SoundDuration":354151,"Delta":189338909},{"NoteNumber":68,"Velocity":57,"Duration":1101996,"SoundDuration":1101996,"Delta":189708458},{"NoteNumber":76,"Velocity":57,"Duration":1101996,"SoundDuration":1101996,"Delta":189708458},{"NoteNumber":80,"Velocity":57,"Duration":1101996,"SoundDuration":1101996,"Delta":189708458},{"NoteNumber":49,"Velocity":43,"Duration":1101996,"SoundDuration":1101996,"Delta":189708458},{"NoteNumber":44,"Velocity":33,"Duration":719358,"SoundDuration":719358,"Delta":189708458},{"NoteNumber":44,"Velocity":28,"Duration":352026,"SoundDuration":352026,"Delta":190443122},{"NoteNumber":66,"Velocity":56,"Duration":1101995,"SoundDuration":1101995,"Delta":190810454},{"NoteNumber":75,"Velocity":56,"Duration":1101995,"SoundDuration":1101995,"Delta":190810454},{"NoteNumber":78,"Velocity":56,"Duration":1101995,"SoundDuration":1101995,"Delta":190810454},{"NoteNumber":51,"Velocity":42,"Duration":1101995,"SoundDuration":1101995,"Delta":190810454},{"NoteNumber":44,"Velocity":35,"Duration":719358,"SoundDuration":719358,"Delta":190810454},{"NoteNumber":44,"Velocity":31,"Duration":352026,"SoundDuration":352026,"Delta":191545118},{"NoteNumber":64,"Velocity":55,"Duration":1127900,"SoundDuration":1127900,"Delta":191912450},{"NoteNumber":73,"Velocity":55,"Duration":1127900,"SoundDuration":1127900,"Delta":191912450},{"NoteNumber":76,"Velocity":55,"Duration":1127900,"SoundDuration":1127900,"Delta":191912450},{"NoteNumber":56,"Velocity":40,"Duration":1127900,"SoundDuration":1127900,"Delta":191912450},{"NoteNumber":44,"Velocity":35,"Duration":719358,"SoundDuration":719358,"Delta":191912450},{"NoteNumber":44,"Velocity":31,"Duration":376851,"SoundDuration":376851,"Delta":192647114},{"NoteNumber":67,"Velocity":45,"Duration":2242449,"SoundDuration":2242449,"Delta":193040350},{"NoteNumber":70,"Velocity":45,"Duration":2242449,"SoundDuration":2242449,"Delta":193040350},{"NoteNumber":63,"Velocity":51,"Duration":1129093,"SoundDuration":1129093,"Delta":193040350},{"NoteNumber":75,"Velocity":51,"Duration":1129093,"SoundDuration":1129093,"Delta":193040350},{"NoteNumber":51,"Velocity":40,"Duration":1129093,"SoundDuration":1129093,"Delta":193040350},{"NoteNumber":44,"Velocity":31,"Duration":737047,"SoundDuration":737047,"Delta":193040350},{"NoteNumber":44,"Velocity":23,"Duration":360682,"SoundDuration":360682,"Delta":193793079},{"NoteNumber":61,"Velocity":48,"Duration":734664,"SoundDuration":734664,"Delta":194169444},{"NoteNumber":73,"Velocity":48,"Duration":734664,"SoundDuration":734664,"Delta":194169444},{"NoteNumber":55,"Velocity":40,"Duration":1113356,"SoundDuration":1113356,"Delta":194169444},{"NoteNumber":44,"Velocity":27,"Duration":719358,"SoundDuration":719358,"Delta":194169444},{"NoteNumber":59,"Velocity":46,"Duration":378692,"SoundDuration":378692,"Delta":194904108},{"NoteNumber":71,"Velocity":46,"Duration":378692,"SoundDuration":378692,"Delta":194904108},{"NoteNumber":44,"Velocity":23,"Duration":362913,"SoundDuration":362913,"Delta":194904108},{"NoteNumber":63,"Velocity":38,"Duration":2207608,"SoundDuration":2207608,"Delta":195282800},{"NoteNumber":67,"Velocity":38,"Duration":2207608,"SoundDuration":2207608,"Delta":195282800},{"NoteNumber":58,"Velocity":51,"Duration":552334,"SoundDuration":552334,"Delta":195282800},{"NoteNumber":70,"Velocity":51,"Duration":552334,"SoundDuration":552334,"Delta":195282800},{"NoteNumber":51,"Velocity":33,"Duration":1115211,"SoundDuration":1115211,"Delta":195282800},{"NoteNumber":44,"Velocity":28,"Duration":717718,"SoundDuration":717718,"Delta":195282800},{"NoteNumber":59,"Velocity":41,"Duration":180418,"SoundDuration":180418,"Delta":195835135},{"NoteNumber":71,"Velocity":41,"Duration":180418,"SoundDuration":180418,"Delta":195835135},{"NoteNumber":58,"Velocity":35,"Duration":286843,"SoundDuration":286843,"Delta":196015553},{"NoteNumber":70,"Velocity":35,"Duration":286843,"SoundDuration":286843,"Delta":196015553},{"NoteNumber":44,"Velocity":23,"Duration":366522,"SoundDuration":366522,"Delta":196015553},{"NoteNumber":61,"Velocity":43,"Duration":353190,"SoundDuration":353190,"Delta":196398011},{"NoteNumber":73,"Velocity":43,"Duration":353190,"SoundDuration":353190,"Delta":196398011},{"NoteNumber":55,"Velocity":33,"Duration":1092396,"SoundDuration":1092396,"Delta":196398011},{"NoteNumber":44,"Velocity":27,"Duration":703117,"SoundDuration":703117,"Delta":196398011},{"NoteNumber":59,"Velocity":38,"Duration":365140,"SoundDuration":365140,"Delta":196751202},{"NoteNumber":71,"Velocity":38,"Duration":365140,"SoundDuration":365140,"Delta":196751202},{"NoteNumber":58,"Velocity":35,"Duration":374065,"SoundDuration":374065,"Delta":197116343},{"NoteNumber":70,"Velocity":35,"Duration":374065,"SoundDuration":374065,"Delta":197116343},{"NoteNumber":44,"Velocity":23,"Duration":358478,"SoundDuration":358478,"Delta":197116343},{"NoteNumber":59,"Velocity":37,"Duration":1870325,"SoundDuration":1870325,"Delta":197490408},{"NoteNumber":63,"Velocity":36,"Duration":1870325,"SoundDuration":1870325,"Delta":197490408},{"NoteNumber":68,"Velocity":37,"Duration":1122195,"SoundDuration":1122195,"Delta":197490408},{"NoteNumber":71,"Velocity":45,"Duration":1122195,"SoundDuration":1122195,"Delta":197490408},{"NoteNumber":51,"Velocity":33,"Duration":1122195,"SoundDuration":1122195,"Delta":197490408},{"NoteNumber":44,"Velocity":28,"Duration":732543,"SoundDuration":732543,"Delta":197490408},{"NoteNumber":44,"Velocity":23,"Duration":358478,"SoundDuration":358478,"Delta":198238538},{"NoteNumber":68,"Velocity":41,"Duration":748130,"SoundDuration":748130,"Delta":198612603},{"NoteNumber":56,"Velocity":33,"Duration":2992519,"SoundDuration":2992519,"Delta":198612603},{"NoteNumber":44,"Velocity":27,"Duration":732543,"SoundDuration":732543,"Delta":198612603},{"NoteNumber":44,"Velocity":22,"Duration":358478,"SoundDuration":358478,"Delta":199360733},{"NoteNumber":44,"Velocity":28,"Duration":732543,"SoundDuration":732543,"Delta":199734798},{"NoteNumber":44,"Velocity":26,"Duration":358478,"SoundDuration":358478,"Delta":200482928},{"NoteNumber":44,"Velocity":29,"Duration":732543,"SoundDuration":732543,"Delta":200856993},{"NoteNumber":63,"Velocity":51,"Duration":440950,"SoundDuration":440950,"Delta":201605123},{"NoteNumber":44,"Velocity":22,"Duration":391956,"SoundDuration":391956,"Delta":201605123},{"NoteNumber":68,"Velocity":56,"Duration":2668945,"SoundDuration":2668945,"Delta":202014121},{"NoteNumber":51,"Velocity":38,"Duration":3400615,"SoundDuration":3400615,"Delta":202014121},{"NoteNumber":44,"Velocity":26,"Duration":750894,"SoundDuration":750894,"Delta":202014121},{"NoteNumber":44,"Velocity":27,"Duration":362913,"SoundDuration":362913,"Delta":202780992},{"NoteNumber":44,"Velocity":30,"Duration":750894,"SoundDuration":750894,"Delta":203159684},{"NoteNumber":44,"Velocity":23,"Duration":358478,"SoundDuration":358478,"Delta":203926555},{"NoteNumber":44,"Velocity":27,"Duration":697044,"SoundDuration":697044,"Delta":204300620},{"NoteNumber":71,"Velocity":53,"Duration":393047,"SoundDuration":393047,"Delta":204653105},{"NoteNumber":70,"Velocity":51,"Duration":301568,"SoundDuration":301568,"Delta":205012645},{"NoteNumber":44,"Velocity":22,"Duration":385337,"SoundDuration":385337,"Delta":205012645},{"NoteNumber":68,"Velocity":45,"Duration":100522,"SoundDuration":100522,"Delta":205280705},{"NoteNumber":70,"Velocity":42,"Duration":98028,"SoundDuration":98028,"Delta":205347720},{"NoteNumber":68,"Velocity":56,"Duration":404115,"SoundDuration":404115,"Delta":205414736},{"NoteNumber":52,"Velocity":41,"Duration":1129896,"SoundDuration":1129896,"Delta":205414736},{"NoteNumber":44,"Velocity":27,"Duration":739621,"SoundDuration":739621,"Delta":205414736},{"NoteNumber":64,"Velocity":47,"Duration":414626,"SoundDuration":414626,"Delta":205786898},{"NoteNumber":68,"Velocity":45,"Duration":374298,"SoundDuration":374298,"Delta":206170334},{"NoteNumber":44,"Velocity":20,"Duration":358702,"SoundDuration":358702,"Delta":206170334},{"NoteNumber":68,"Velocity":53,"Duration":567394,"SoundDuration":567394,"Delta":206544632},{"NoteNumber":59,"Velocity":38,"Duration":3016079,"SoundDuration":3016079,"Delta":206544632},{"NoteNumber":44,"Velocity":26,"Duration":737352,"SoundDuration":737352,"Delta":206544632},{"NoteNumber":76,"Velocity":48,"Duration":185553,"SoundDuration":185553,"Delta":207112026},{"NoteNumber":68,"Velocity":45,"Duration":374065,"SoundDuration":374065,"Delta":207297580},{"NoteNumber":44,"Velocity":27,"Duration":358478,"SoundDuration":358478,"Delta":207297580},{"NoteNumber":68,"Velocity":49,"Duration":1889066,"SoundDuration":1889066,"Delta":207671645},{"NoteNumber":44,"Velocity":29,"Duration":750894,"SoundDuration":750894,"Delta":207671645},{"NoteNumber":44,"Velocity":27,"Duration":358478,"SoundDuration":358478,"Delta":208438516},{"NoteNumber":44,"Velocity":29,"Duration":732543,"SoundDuration":732543,"Delta":208812581},{"NoteNumber":44,"Velocity":27,"Duration":358478,"SoundDuration":358478,"Delta":209560711},{"NoteNumber":44,"Velocity":29,"Duration":732543,"SoundDuration":732543,"Delta":209934776},{"NoteNumber":44,"Velocity":22,"Duration":367459,"SoundDuration":367459,"Delta":210682906},{"NoteNumber":63,"Velocity":36,"Duration":1849451,"SoundDuration":1849451,"Delta":211066341},{"NoteNumber":66,"Velocity":36,"Duration":1849451,"SoundDuration":1849451,"Delta":211066341},{"NoteNumber":69,"Velocity":51,"Duration":1492817,"SoundDuration":1492817,"Delta":211066341},{"NoteNumber":60,"Velocity":41,"Duration":2212427,"SoundDuration":2212427,"Delta":211066341},{"NoteNumber":44,"Velocity":28,"Duration":737047,"SoundDuration":737047,"Delta":211066341},{"NoteNumber":44,"Velocity":22,"Duration":360682,"SoundDuration":360682,"Delta":211819070},{"NoteNumber":44,"Velocity":25,"Duration":705498,"SoundDuration":705498,"Delta":212195435},{"NoteNumber":68,"Velocity":47,"Duration":356633,"SoundDuration":356633,"Delta":212559159},{"NoteNumber":69,"Velocity":48,"Duration":362976,"SoundDuration":362976,"Delta":212915793},{"NoteNumber":44,"Velocity":22,"Duration":347852,"SoundDuration":347852,"Delta":212915793},{"NoteNumber":62,"Velocity":36,"Duration":1814075,"SoundDuration":1814075,"Delta":213278769},{"NoteNumber":65,"Velocity":36,"Duration":1814075,"SoundDuration":1814075,"Delta":213278769},{"NoteNumber":70,"Velocity":57,"Duration":523939,"SoundDuration":523939,"Delta":213278769},{"NoteNumber":58,"Velocity":41,"Duration":2183624,"SoundDuration":2183624,"Delta":213278769},{"NoteNumber":44,"Velocity":28,"Duration":690303,"SoundDuration":690303,"Delta":213278769},{"NoteNumber":77,"Velocity":51,"Duration":181488,"SoundDuration":181488,"Delta":213802709},{"NoteNumber":70,"Velocity":51,"Duration":369549,"SoundDuration":369549,"Delta":213984197},{"NoteNumber":44,"Velocity":27,"Duration":354151,"SoundDuration":354151,"Delta":213984197},{"NoteNumber":70,"Velocity":47,"Duration":739097,"SoundDuration":739097,"Delta":214353746},{"NoteNumber":44,"Velocity":29,"Duration":723700,"SoundDuration":723700,"Delta":214353746},{"NoteNumber":44,"Velocity":28,"Duration":354151,"SoundDuration":354151,"Delta":215092844},{"NoteNumber":63,"Velocity":36,"Duration":1845395,"SoundDuration":1845395,"Delta":215462393},{"NoteNumber":66,"Velocity":36,"Duration":1845395,"SoundDuration":1845395,"Delta":215462393},{"NoteNumber":72,"Velocity":51,"Duration":1488762,"SoundDuration":1488762,"Delta":215462393},{"NoteNumber":57,"Velocity":41,"Duration":2208372,"SoundDuration":2208372,"Delta":215462393},{"NoteNumber":44,"Velocity":31,"Duration":737047,"SoundDuration":737047,"Delta":215462393},{"NoteNumber":44,"Velocity":22,"Duration":360682,"SoundDuration":360682,"Delta":216215122},{"NoteNumber":44,"Velocity":27,"Duration":701442,"SoundDuration":701442,"Delta":216591487},{"NoteNumber":71,"Velocity":47,"Duration":356633,"SoundDuration":356633,"Delta":216951156},{"NoteNumber":72,"Velocity":46,"Duration":362976,"SoundDuration":362976,"Delta":217307789},{"NoteNumber":44,"Velocity":22,"Duration":347852,"SoundDuration":347852,"Delta":217307789},{"NoteNumber":68,"Velocity":36,"Duration":1818963,"SoundDuration":1818963,"Delta":217670766},{"NoteNumber":65,"Velocity":36,"Duration":1818963,"SoundDuration":1818963,"Delta":217670766},{"NoteNumber":73,"Velocity":57,"Duration":527746,"SoundDuration":527746,"Delta":217670766},{"NoteNumber":56,"Velocity":41,"Duration":2188513,"SoundDuration":2188513,"Delta":217670766},{"NoteNumber":44,"Velocity":28,"Duration":695102,"SoundDuration":695102,"Delta":217670766},{"NoteNumber":80,"Velocity":51,"Duration":182570,"SoundDuration":182570,"Delta":218198512},{"NoteNumber":73,"Velocity":51,"Duration":369549,"SoundDuration":369549,"Delta":218381083},{"NoteNumber":44,"Velocity":27,"Duration":354151,"SoundDuration":354151,"Delta":218381083},{"NoteNumber":73,"Velocity":48,"Duration":739097,"SoundDuration":739097,"Delta":218750632},{"NoteNumber":44,"Velocity":29,"Duration":723700,"SoundDuration":723700,"Delta":218750632},{"NoteNumber":44,"Velocity":22,"Duration":354151,"SoundDuration":354151,"Delta":219489730},{"NoteNumber":63,"Velocity":51,"Duration":4407382,"SoundDuration":4407382,"Delta":219859279},{"NoteNumber":70,"Velocity":51,"Duration":4407382,"SoundDuration":4407382,"Delta":219859279},{"NoteNumber":74,"Velocity":51,"Duration":4407382,"SoundDuration":4407382,"Delta":219859279},{"NoteNumber":54,"Velocity":41,"Duration":4407382,"SoundDuration":4407382,"Delta":219859279},{"NoteNumber":44,"Velocity":28,"Duration":723700,"SoundDuration":723700,"Delta":219859279},{"NoteNumber":44,"Velocity":27,"Duration":344682,"SoundDuration":344682,"Delta":220598377},{"NoteNumber":44,"Velocity":29,"Duration":720505,"SoundDuration":720505,"Delta":220958046},{"NoteNumber":44,"Velocity":25,"Duration":345370,"SoundDuration":345370,"Delta":221693881},{"NoteNumber":44,"Velocity":29,"Duration":724593,"SoundDuration":724593,"Delta":222054237},{"NoteNumber":44,"Velocity":25,"Duration":347327,"SoundDuration":347327,"Delta":222794247},{"NoteNumber":44,"Velocity":27,"Duration":724593,"SoundDuration":724593,"Delta":223156646},{"NoteNumber":44,"Velocity":25,"Duration":354588,"SoundDuration":354588,"Delta":223896656},{"NoteNumber":68,"Velocity":36,"Duration":1103734,"SoundDuration":1103734,"Delta":224266661},{"NoteNumber":63,"Velocity":56,"Duration":1103734,"SoundDuration":1103734,"Delta":224266661},{"NoteNumber":75,"Velocity":56,"Duration":1103734,"SoundDuration":1103734,"Delta":224266661},{"NoteNumber":53,"Velocity":36,"Duration":1103734,"SoundDuration":1103734,"Delta":224266661},{"NoteNumber":44,"Velocity":28,"Duration":724593,"SoundDuration":724593,"Delta":224266661},{"NoteNumber":44,"Velocity":25,"Duration":348569,"SoundDuration":348569,"Delta":225006671},{"NoteNumber":68,"Velocity":36,"Duration":1075230,"SoundDuration":1075230,"Delta":225370396},{"NoteNumber":62,"Velocity":48,"Duration":347061,"SoundDuration":347061,"Delta":225370396},{"NoteNumber":74,"Velocity":48,"Duration":347061,"SoundDuration":347061,"Delta":225370396},{"NoteNumber":52,"Velocity":36,"Duration":1075230,"SoundDuration":1075230,"Delta":225370396},{"NoteNumber":44,"Velocity":23,"Duration":692863,"SoundDuration":692863,"Delta":225370396},{"NoteNumber":61,"Velocity":46,"Duration":360837,"SoundDuration":360837,"Delta":225717457},{"NoteNumber":73,"Velocity":46,"Duration":360837,"SoundDuration":360837,"Delta":225717457},{"NoteNumber":62,"Velocity":44,"Duration":367332,"SoundDuration":367332,"Delta":226078294},{"NoteNumber":74,"Velocity":44,"Duration":367332,"SoundDuration":367332,"Delta":226078294},{"NoteNumber":44,"Velocity":22,"Duration":352026,"SoundDuration":352026,"Delta":226078294},{"NoteNumber":68,"Velocity":36,"Duration":1100805,"SoundDuration":1100805,"Delta":226445626},{"NoteNumber":63,"Velocity":53,"Duration":1100805,"SoundDuration":1100805,"Delta":226445626},{"NoteNumber":75,"Velocity":53,"Duration":1100805,"SoundDuration":1100805,"Delta":226445626},{"NoteNumber":53,"Velocity":36,"Duration":1100805,"SoundDuration":1100805,"Delta":226445626},{"NoteNumber":44,"Velocity":26,"Duration":723700,"SoundDuration":723700,"Delta":226445626},{"NoteNumber":44,"Velocity":22,"Duration":346636,"SoundDuration":346636,"Delta":227184724},{"NoteNumber":68,"Velocity":36,"Duration":1090356,"SoundDuration":1090356,"Delta":227546432},{"NoteNumber":62,"Velocity":47,"Duration":347061,"SoundDuration":347061,"Delta":227546432},{"NoteNumber":74,"Velocity":47,"Duration":347061,"SoundDuration":347061,"Delta":227546432},{"NoteNumber":52,"Velocity":36,"Duration":1090356,"SoundDuration":1090356,"Delta":227546432},{"NoteNumber":44,"Velocity":28,"Duration":692863,"SoundDuration":692863,"Delta":227546432},{"NoteNumber":61,"Velocity":46,"Duration":360837,"SoundDuration":360837,"Delta":227893493},{"NoteNumber":73,"Velocity":46,"Duration":360837,"SoundDuration":360837,"Delta":227893493},{"NoteNumber":62,"Velocity":45,"Duration":382458,"SoundDuration":382458,"Delta":228254330},{"NoteNumber":74,"Velocity":45,"Duration":382458,"SoundDuration":382458,"Delta":228254330},{"NoteNumber":44,"Velocity":22,"Duration":366522,"SoundDuration":366522,"Delta":228254330},{"NoteNumber":68,"Velocity":36,"Duration":2223870,"SoundDuration":2223870,"Delta":228636788},{"NoteNumber":63,"Velocity":52,"Duration":1111934,"SoundDuration":1111934,"Delta":228636788},{"NoteNumber":75,"Velocity":52,"Duration":1111934,"SoundDuration":1111934,"Delta":228636788},{"NoteNumber":53,"Velocity":36,"Duration":2223870,"SoundDuration":2223870,"Delta":228636788},{"NoteNumber":44,"Velocity":27,"Duration":725846,"SoundDuration":725846,"Delta":228636788},{"NoteNumber":44,"Velocity":27,"Duration":355201,"SoundDuration":355201,"Delta":229378078},{"NoteNumber":62,"Velocity":47,"Duration":1111935,"SoundDuration":1111935,"Delta":229748723},{"NoteNumber":74,"Velocity":47,"Duration":1111935,"SoundDuration":1111935,"Delta":229748723},{"NoteNumber":44,"Velocity":30,"Duration":725846,"SoundDuration":725846,"Delta":229748723},{"NoteNumber":44,"Velocity":25,"Duration":355201,"SoundDuration":355201,"Delta":230490013},{"NoteNumber":61,"Velocity":46,"Duration":1138957,"SoundDuration":1138957,"Delta":230860658},{"NoteNumber":68,"Velocity":46,"Duration":1138957,"SoundDuration":1138957,"Delta":230860658},{"NoteNumber":73,"Velocity":46,"Duration":1138957,"SoundDuration":1138957,"Delta":230860658},{"NoteNumber":52,"Velocity":36,"Duration":1138957,"SoundDuration":1138957,"Delta":230860658},{"NoteNumber":44,"Velocity":29,"Duration":725846,"SoundDuration":725846,"Delta":230860658},{"NoteNumber":44,"Velocity":23,"Duration":381097,"SoundDuration":381097,"Delta":231601948},{"NoteNumber":68,"Velocity":57,"Duration":1101996,"SoundDuration":1101996,"Delta":231999615},{"NoteNumber":76,"Velocity":57,"Duration":1101996,"SoundDuration":1101996,"Delta":231999615},{"NoteNumber":80,"Velocity":57,"Duration":1101996,"SoundDuration":1101996,"Delta":231999615},{"NoteNumber":49,"Velocity":35,"Duration":1101996,"SoundDuration":1101996,"Delta":231999615},{"NoteNumber":44,"Velocity":31,"Duration":719358,"SoundDuration":719358,"Delta":231999615},{"NoteNumber":44,"Velocity":28,"Duration":352026,"SoundDuration":352026,"Delta":232734279},{"NoteNumber":66,"Velocity":56,"Duration":1107612,"SoundDuration":1107612,"Delta":233101611},{"NoteNumber":75,"Velocity":56,"Duration":1107612,"SoundDuration":1107612,"Delta":233101611},{"NoteNumber":78,"Velocity":56,"Duration":1107612,"SoundDuration":1107612,"Delta":233101611},{"NoteNumber":51,"Velocity":35,"Duration":1107612,"SoundDuration":1107612,"Delta":233101611},{"NoteNumber":44,"Velocity":33,"Duration":719358,"SoundDuration":719358,"Delta":233101611},{"NoteNumber":44,"Velocity":28,"Duration":357409,"SoundDuration":357409,"Delta":233836275},{"NoteNumber":64,"Velocity":52,"Duration":351123,"SoundDuration":351123,"Delta":234209224},{"NoteNumber":73,"Velocity":52,"Duration":1088011,"SoundDuration":1088011,"Delta":234209224},{"NoteNumber":76,"Velocity":52,"Duration":351123,"SoundDuration":351123,"Delta":234209224},{"NoteNumber":56,"Velocity":33,"Duration":1088011,"SoundDuration":1088011,"Delta":234209224},{"NoteNumber":44,"Velocity":31,"Duration":701050,"SoundDuration":701050,"Delta":234209224},{"NoteNumber":68,"Velocity":43,"Duration":365140,"SoundDuration":365140,"Delta":234560348},{"NoteNumber":80,"Velocity":43,"Duration":365140,"SoundDuration":365140,"Delta":234560348},{"NoteNumber":64,"Velocity":47,"Duration":371746,"SoundDuration":371746,"Delta":234925489},{"NoteNumber":76,"Velocity":47,"Duration":371746,"SoundDuration":371746,"Delta":234925489},{"NoteNumber":44,"Velocity":28,"Duration":356257,"SoundDuration":356257,"Delta":234925489},{"NoteNumber":67,"Velocity":47,"Duration":2228308,"SoundDuration":2228308,"Delta":235297236},{"NoteNumber":70,"Velocity":47,"Duration":2228308,"SoundDuration":2228308,"Delta":235297236},{"NoteNumber":63,"Velocity":47,"Duration":1129093,"SoundDuration":1129093,"Delta":235297236},{"NoteNumber":75,"Velocity":47,"Duration":1129093,"SoundDuration":1129093,"Delta":235297236},{"NoteNumber":51,"Velocity":40,"Duration":1129093,"SoundDuration":1129093,"Delta":235297236},{"NoteNumber":44,"Velocity":33,"Duration":737047,"SoundDuration":737047,"Delta":235297236},{"NoteNumber":44,"Velocity":23,"Duration":360682,"SoundDuration":360682,"Delta":236049965},{"NoteNumber":61,"Velocity":48,"Duration":353190,"SoundDuration":353190,"Delta":236426329},{"NoteNumber":73,"Velocity":48,"Duration":353190,"SoundDuration":353190,"Delta":236426329},{"NoteNumber":55,"Velocity":40,"Duration":1099214,"SoundDuration":1099214,"Delta":236426329},{"NoteNumber":44,"Velocity":27,"Duration":705217,"SoundDuration":705217,"Delta":236426329},{"NoteNumber":63,"Velocity":45,"Duration":367332,"SoundDuration":367332,"Delta":236779520},{"NoteNumber":75,"Velocity":45,"Duration":367332,"SoundDuration":367332,"Delta":236779520},{"NoteNumber":59,"Velocity":42,"Duration":378692,"SoundDuration":378692,"Delta":237146852},{"NoteNumber":71,"Velocity":42,"Duration":378692,"SoundDuration":378692,"Delta":237146852},{"NoteNumber":44,"Velocity":23,"Duration":362913,"SoundDuration":362913,"Delta":237146852},{"NoteNumber":63,"Velocity":31,"Duration":2282857,"SoundDuration":2282857,"Delta":237525544},{"NoteNumber":67,"Velocity":31,"Duration":2282857,"SoundDuration":2282857,"Delta":237525544},{"NoteNumber":58,"Velocity":47,"Duration":552334,"SoundDuration":552334,"Delta":237525544},{"NoteNumber":70,"Velocity":47,"Duration":552334,"SoundDuration":552334,"Delta":237525544},{"NoteNumber":51,"Velocity":33,"Duration":1109117,"SoundDuration":1109117,"Delta":237525544},{"NoteNumber":44,"Velocity":28,"Duration":717718,"SoundDuration":717718,"Delta":237525544},{"NoteNumber":59,"Velocity":37,"Duration":180418,"SoundDuration":180418,"Delta":238077879},{"NoteNumber":71,"Velocity":37,"Duration":180418,"SoundDuration":180418,"Delta":238077879},{"NoteNumber":58,"Velocity":32,"Duration":376364,"SoundDuration":376364,"Delta":238258297},{"NoteNumber":70,"Velocity":32,"Duration":376364,"SoundDuration":376364,"Delta":238258297},{"NoteNumber":44,"Velocity":22,"Duration":360682,"SoundDuration":360682,"Delta":238258297},{"NoteNumber":61,"Velocity":40,"Duration":360837,"SoundDuration":360837,"Delta":238634662},{"NoteNumber":73,"Velocity":40,"Duration":360837,"SoundDuration":360837,"Delta":238634662},{"NoteNumber":55,"Velocity":31,"Duration":949858,"SoundDuration":949858,"Delta":238634662},{"NoteNumber":44,"Velocity":25,"Duration":710763,"SoundDuration":710763,"Delta":238634662},{"NoteNumber":59,"Velocity":33,"Duration":365140,"SoundDuration":365140,"Delta":238995499},{"NoteNumber":71,"Velocity":33,"Duration":365140,"SoundDuration":365140,"Delta":238995499},{"NoteNumber":58,"Velocity":30,"Duration":223880,"SoundDuration":223880,"Delta":239360640},{"NoteNumber":70,"Velocity":30,"Duration":223880,"SoundDuration":223880,"Delta":239360640},{"NoteNumber":44,"Velocity":23,"Duration":429104,"SoundDuration":429104,"Delta":239360640},{"NoteNumber":44,"Velocity":28,"Duration":750894,"SoundDuration":750894,"Delta":239808401},{"NoteNumber":44,"Velocity":24,"Duration":367459,"SoundDuration":367459,"Delta":240575272},{"NoteNumber":44,"Velocity":28,"Duration":765173,"SoundDuration":765173,"Delta":240958707},{"NoteNumber":44,"Velocity":25,"Duration":391956,"SoundDuration":391956,"Delta":241740161},{"NoteNumber":69,"Velocity":33,"Duration":1129093,"SoundDuration":1129093,"Delta":242149159},{"NoteNumber":73,"Velocity":33,"Duration":1129093,"SoundDuration":1129093,"Delta":242149159},{"NoteNumber":64,"Velocity":37,"Duration":752728,"SoundDuration":752728,"Delta":242149159},{"NoteNumber":76,"Velocity":37,"Duration":752728,"SoundDuration":752728,"Delta":242149159},{"NoteNumber":49,"Velocity":28,"Duration":1129093,"SoundDuration":1129093,"Delta":242149159},{"NoteNumber":52,"Velocity":28,"Duration":1129093,"SoundDuration":1129093,"Delta":242149159},{"NoteNumber":44,"Velocity":28,"Duration":737047,"SoundDuration":737047,"Delta":242149159},{"NoteNumber":64,"Velocity":36,"Duration":376364,"SoundDuration":376364,"Delta":242901888},{"NoteNumber":76,"Velocity":36,"Duration":376364,"SoundDuration":376364,"Delta":242901888},{"NoteNumber":44,"Velocity":23,"Duration":360682,"SoundDuration":360682,"Delta":242901888},{"NoteNumber":69,"Velocity":36,"Duration":1097700,"SoundDuration":1097700,"Delta":243278253},{"NoteNumber":73,"Velocity":36,"Duration":1097700,"SoundDuration":1097700,"Delta":243278253},{"NoteNumber":66,"Velocity":41,"Duration":544464,"SoundDuration":544464,"Delta":243278253},{"NoteNumber":78,"Velocity":41,"Duration":544464,"SoundDuration":544464,"Delta":243278253},{"NoteNumber":51,"Velocity":27,"Duration":1097700,"SoundDuration":1097700,"Delta":243278253},{"NoteNumber":54,"Velocity":27,"Duration":1097700,"SoundDuration":1097700,"Delta":243278253},{"NoteNumber":44,"Velocity":22,"Duration":710828,"SoundDuration":710828,"Delta":243278253},{"NoteNumber":64,"Velocity":38,"Duration":181488,"SoundDuration":181488,"Delta":243822717},{"NoteNumber":76,"Velocity":38,"Duration":181488,"SoundDuration":181488,"Delta":243822717},{"NoteNumber":63,"Velocity":35,"Duration":185873,"SoundDuration":185873,"Delta":244004206},{"NoteNumber":75,"Velocity":35,"Duration":185873,"SoundDuration":185873,"Delta":244004206},{"NoteNumber":44,"Velocity":26,"Duration":356257,"SoundDuration":356257,"Delta":244004206},{"NoteNumber":69,"Velocity":36,"Duration":1121108,"SoundDuration":1121108,"Delta":244375953},{"NoteNumber":73,"Velocity":36,"Duration":1121108,"SoundDuration":1121108,"Delta":244375953},{"NoteNumber":64,"Velocity":41,"Duration":757384,"SoundDuration":757384,"Delta":244375953},{"NoteNumber":76,"Velocity":41,"Duration":757384,"SoundDuration":757384,"Delta":244375953},{"NoteNumber":49,"Velocity":28,"Duration":1121108,"SoundDuration":1121108,"Delta":244375953},{"NoteNumber":52,"Velocity":28,"Duration":1121108,"SoundDuration":1121108,"Delta":244375953},{"NoteNumber":44,"Velocity":22,"Duration":741605,"SoundDuration":741605,"Delta":244375953},{"NoteNumber":64,"Velocity":37,"Duration":363724,"SoundDuration":363724,"Delta":245133337},{"NoteNumber":76,"Velocity":37,"Duration":363724,"SoundDuration":363724,"Delta":245133337},{"NoteNumber":44,"Velocity":23,"Duration":348569,"SoundDuration":348569,"Delta":245133337},{"NoteNumber":69,"Velocity":35,"Duration":1140809,"SoundDuration":1140809,"Delta":245497061},{"NoteNumber":73,"Velocity":35,"Duration":1140809,"SoundDuration":1140809,"Delta":245497061},{"NoteNumber":66,"Velocity":38,"Duration":540601,"SoundDuration":540601,"Delta":245497061},{"NoteNumber":78,"Velocity":38,"Duration":540601,"SoundDuration":540601,"Delta":245497061},{"NoteNumber":51,"Velocity":27,"Duration":932157,"SoundDuration":932157,"Delta":245497061},{"NoteNumber":54,"Velocity":27,"Duration":932157,"SoundDuration":932157,"Delta":245497061},{"NoteNumber":44,"Velocity":22,"Duration":708263,"SoundDuration":708263,"Delta":245497061},{"NoteNumber":64,"Velocity":33,"Duration":182904,"SoundDuration":182904,"Delta":246037662},{"NoteNumber":76,"Velocity":33,"Duration":182904,"SoundDuration":182904,"Delta":246037662},{"NoteNumber":63,"Velocity":33,"Duration":208652,"SoundDuration":208652,"Delta":246220567},{"NoteNumber":75,"Velocity":33,"Duration":208652,"SoundDuration":208652,"Delta":246220567},{"NoteNumber":44,"Velocity":25,"Duration":399916,"SoundDuration":399916,"Delta":246220567},{"NoteNumber":44,"Velocity":28,"Duration":750894,"SoundDuration":750894,"Delta":246637871},{"NoteNumber":44,"Velocity":25,"Duration":367459,"SoundDuration":367459,"Delta":247404742},{"NoteNumber":44,"Velocity":28,"Duration":765173,"SoundDuration":765173,"Delta":247788177},{"NoteNumber":44,"Velocity":25,"Duration":391956,"SoundDuration":391956,"Delta":248569631},{"NoteNumber":64,"Velocity":47,"Duration":1136076,"SoundDuration":1136076,"Delta":248978629},{"NoteNumber":68,"Velocity":47,"Duration":1136076,"SoundDuration":1136076,"Delta":248978629},{"NoteNumber":73,"Velocity":47,"Duration":1136076,"SoundDuration":1136076,"Delta":248978629},{"NoteNumber":61,"Velocity":47,"Duration":1136076,"SoundDuration":1136076,"Delta":248978629},{"NoteNumber":52,"Velocity":35,"Duration":1136076,"SoundDuration":1136076,"Delta":248978629},{"NoteNumber":56,"Velocity":35,"Duration":1136076,"SoundDuration":1136076,"Delta":248978629},{"NoteNumber":44,"Velocity":31,"Duration":741605,"SoundDuration":741605,"Delta":248978629},{"NoteNumber":44,"Velocity":28,"Duration":362913,"SoundDuration":362913,"Delta":249736013},{"NoteNumber":68,"Velocity":56,"Duration":1115240,"SoundDuration":1115240,"Delta":250114705},{"NoteNumber":73,"Velocity":56,"Duration":1115240,"SoundDuration":1115240,"Delta":250114705},{"NoteNumber":76,"Velocity":56,"Duration":1115240,"SoundDuration":1115240,"Delta":250114705},{"NoteNumber":80,"Velocity":56,"Duration":1115240,"SoundDuration":1115240,"Delta":250114705},{"NoteNumber":49,"Velocity":42,"Duration":1115240,"SoundDuration":1115240,"Delta":250114705},{"NoteNumber":52,"Velocity":42,"Duration":1115240,"SoundDuration":1115240,"Delta":250114705},{"NoteNumber":44,"Velocity":33,"Duration":728004,"SoundDuration":728004,"Delta":250114705},{"NoteNumber":44,"Velocity":28,"Duration":356257,"SoundDuration":356257,"Delta":250858199},{"NoteNumber":66,"Velocity":52,"Duration":1115240,"SoundDuration":1115240,"Delta":251229946},{"NoteNumber":68,"Velocity":52,"Duration":1115240,"SoundDuration":1115240,"Delta":251229946},{"NoteNumber":75,"Velocity":52,"Duration":1115240,"SoundDuration":1115240,"Delta":251229946},{"NoteNumber":78,"Velocity":52,"Duration":1115240,"SoundDuration":1115240,"Delta":251229946},{"NoteNumber":51,"Velocity":38,"Duration":1115240,"SoundDuration":1115240,"Delta":251229946},{"NoteNumber":54,"Velocity":38,"Duration":1115240,"SoundDuration":1115240,"Delta":251229946},{"NoteNumber":44,"Velocity":33,"Duration":728004,"SoundDuration":728004,"Delta":251229946},{"NoteNumber":44,"Velocity":26,"Duration":356257,"SoundDuration":356257,"Delta":251973440},{"NoteNumber":64,"Velocity":47,"Duration":1168327,"SoundDuration":1168327,"Delta":252345187},{"NoteNumber":68,"Velocity":47,"Duration":1168327,"SoundDuration":1168327,"Delta":252345187},{"NoteNumber":73,"Velocity":47,"Duration":1168327,"SoundDuration":1168327,"Delta":252345187},{"NoteNumber":76,"Velocity":47,"Duration":1168327,"SoundDuration":1168327,"Delta":252345187},{"NoteNumber":52,"Velocity":36,"Duration":1168327,"SoundDuration":1168327,"Delta":252345187},{"NoteNumber":56,"Velocity":36,"Duration":1168327,"SoundDuration":1168327,"Delta":252345187},{"NoteNumber":44,"Velocity":25,"Duration":746220,"SoundDuration":746220,"Delta":252345187},{"NoteNumber":44,"Velocity":23,"Duration":389302,"SoundDuration":389302,"Delta":253107285},{"NoteNumber":44,"Velocity":28,"Duration":750894,"SoundDuration":750894,"Delta":253513514},{"NoteNumber":44,"Velocity":24,"Duration":367459,"SoundDuration":367459,"Delta":254280385},{"NoteNumber":44,"Velocity":27,"Duration":765173,"SoundDuration":765173,"Delta":254663821},{"NoteNumber":44,"Velocity":24,"Duration":408148,"SoundDuration":408148,"Delta":255445275},{"NoteNumber":63,"Velocity":37,"Duration":1174165,"SoundDuration":1174165,"Delta":255871169},{"NoteNumber":67,"Velocity":37,"Duration":1174165,"SoundDuration":1174165,"Delta":255871169},{"NoteNumber":58,"Velocity":42,"Duration":582373,"SoundDuration":582373,"Delta":255871169},{"NoteNumber":70,"Velocity":42,"Duration":582373,"SoundDuration":582373,"Delta":255871169},{"NoteNumber":51,"Velocity":27,"Duration":1174165,"SoundDuration":1174165,"Delta":255871169},{"NoteNumber":44,"Velocity":26,"Duration":760320,"SoundDuration":760320,"Delta":255871169},{"NoteNumber":59,"Velocity":35,"Duration":194124,"SoundDuration":194124,"Delta":256453543},{"NoteNumber":71,"Velocity":35,"Duration":194124,"SoundDuration":194124,"Delta":256453543},{"NoteNumber":58,"Velocity":28,"Duration":397667,"SoundDuration":397667,"Delta":256647667},{"NoteNumber":70,"Velocity":28,"Duration":397667,"SoundDuration":397667,"Delta":256647667},{"NoteNumber":44,"Velocity":18,"Duration":381097,"SoundDuration":381097,"Delta":256647667},{"NoteNumber":63,"Velocity":37,"Duration":1160320,"SoundDuration":1160320,"Delta":257045334},{"NoteNumber":67,"Velocity":37,"Duration":1160320,"SoundDuration":1160320,"Delta":257045334},{"NoteNumber":61,"Velocity":36,"Duration":366121,"SoundDuration":366121,"Delta":257045334},{"NoteNumber":73,"Velocity":36,"Duration":366121,"SoundDuration":366121,"Delta":257045334},{"NoteNumber":55,"Velocity":27,"Duration":1160320,"SoundDuration":1160320,"Delta":257045334},{"NoteNumber":44,"Velocity":22,"Duration":742973,"SoundDuration":742973,"Delta":257045334},{"NoteNumber":59,"Velocity":32,"Duration":393236,"SoundDuration":393236,"Delta":257411456},{"NoteNumber":71,"Velocity":32,"Duration":393236,"SoundDuration":393236,"Delta":257411456},{"NoteNumber":58,"Velocity":28,"Duration":400962,"SoundDuration":400962,"Delta":257804692},{"NoteNumber":70,"Velocity":28,"Duration":400962,"SoundDuration":400962,"Delta":257804692},{"NoteNumber":44,"Velocity":18,"Duration":384255,"SoundDuration":384255,"Delta":257804692},{"NoteNumber":44,"Velocity":25,"Duration":760320,"SoundDuration":760320,"Delta":258205655},{"NoteNumber":44,"Velocity":20,"Duration":381704,"SoundDuration":381704,"Delta":258982153},{"NoteNumber":44,"Velocity":22,"Duration":765173,"SoundDuration":765173,"Delta":259380453},{"NoteNumber":63,"Velocity":51,"Duration":453586,"SoundDuration":453586,"Delta":260161907},{"NoteNumber":44,"Velocity":25,"Duration":403282,"SoundDuration":403282,"Delta":260161907},{"NoteNumber":68,"Velocity":55,"Duration":2736774,"SoundDuration":2736774,"Delta":260582724},{"NoteNumber":51,"Velocity":40,"Duration":3484787,"SoundDuration":3484787,"Delta":260582724},{"NoteNumber":44,"Velocity":30,"Duration":770088,"SoundDuration":770088,"Delta":260582724},{"NoteNumber":44,"Velocity":25,"Duration":369727,"SoundDuration":369727,"Delta":261369197},{"NoteNumber":44,"Velocity":28,"Duration":775066,"SoundDuration":775066,"Delta":261754999},{"NoteNumber":44,"Velocity":25,"Duration":367459,"SoundDuration":367459,"Delta":262546556},{"NoteNumber":44,"Velocity":28,"Duration":711829,"SoundDuration":711829,"Delta":262929992},{"NoteNumber":71,"Velocity":56,"Duration":402564,"SoundDuration":402564,"Delta":263288801},{"NoteNumber":70,"Velocity":51,"Duration":307755,"SoundDuration":307755,"Delta":263657170},{"NoteNumber":44,"Velocity":25,"Duration":393242,"SoundDuration":393242,"Delta":263657170},{"NoteNumber":68,"Velocity":45,"Duration":102585,"SoundDuration":102585,"Delta":263930730},{"NoteNumber":70,"Velocity":42,"Duration":100192,"SoundDuration":100192,"Delta":263999120},{"NoteNumber":68,"Velocity":57,"Duration":414612,"SoundDuration":414612,"Delta":264067511},{"NoteNumber":52,"Velocity":40,"Duration":1173188,"SoundDuration":1173188,"Delta":264067511},{"NoteNumber":44,"Velocity":28,"Duration":760918,"SoundDuration":760918,"Delta":264067511},{"NoteNumber":64,"Velocity":48,"Duration":428760,"SoundDuration":428760,"Delta":264449142},{"NoteNumber":68,"Velocity":45,"Duration":395778,"SoundDuration":395778,"Delta":264844920},{"NoteNumber":44,"Velocity":22,"Duration":379287,"SoundDuration":379287,"Delta":264844920},{"NoteNumber":68,"Velocity":51,"Duration":824538,"SoundDuration":824538,"Delta":265240699},{"NoteNumber":59,"Velocity":42,"Duration":791557,"SoundDuration":791557,"Delta":265240699},{"NoteNumber":44,"Velocity":28,"Duration":775066,"SoundDuration":775066,"Delta":265240699},{"NoteNumber":63,"Velocity":48,"Duration":428132,"SoundDuration":428132,"Delta":266032256},{"NoteNumber":44,"Velocity":25,"Duration":379287,"SoundDuration":379287,"Delta":266032256},{"NoteNumber":66,"Velocity":52,"Duration":1600389,"SoundDuration":1600389,"Delta":266428034},{"NoteNumber":58,"Velocity":40,"Duration":776498,"SoundDuration":776498,"Delta":266428034},{"NoteNumber":44,"Velocity":28,"Duration":3528818,"SoundDuration":3528818,"Delta":266428034},{"NoteNumber":57,"Velocity":38,"Duration":398300,"SoundDuration":398300,"Delta":267204532},{"NoteNumber":56,"Velocity":46,"Duration":393236,"SoundDuration":393236,"Delta":267602833},{"NoteNumber":64,"Velocity":48,"Duration":427166,"SoundDuration":427166,"Delta":267996069},{"NoteNumber":55,"Velocity":43,"Duration":782870,"SoundDuration":782870,"Delta":267996069},{"NoteNumber":63,"Velocity":45,"Duration":323964,"SoundDuration":323964,"Delta":268390675},{"NoteNumber":63,"Velocity":41,"Duration":96253,"SoundDuration":96253,"Delta":268714639},{"NoteNumber":64,"Velocity":52,"Duration":415789,"SoundDuration":415789,"Delta":268778940},{"NoteNumber":48,"Velocity":48,"Duration":771684,"SoundDuration":771684,"Delta":268778940},{"NoteNumber":63,"Velocity":43,"Duration":422101,"SoundDuration":422101,"Delta":269162375},{"NoteNumber":61,"Velocity":41,"Duration":440081,"SoundDuration":440081,"Delta":269550624},{"NoteNumber":49,"Velocity":41,"Duration":406228,"SoundDuration":406228,"Delta":269550624},{"NoteNumber":63,"Velocity":51,"Duration":406228,"SoundDuration":406228,"Delta":269956853},{"NoteNumber":44,"Velocity":28,"Duration":795531,"SoundDuration":795531,"Delta":269956853},{"NoteNumber":56,"Velocity":46,"Duration":1611051,"SoundDuration":1611051,"Delta":270363082},{"NoteNumber":44,"Velocity":23,"Duration":378538,"SoundDuration":378538,"Delta":270769311},{"NoteNumber":44,"Velocity":28,"Duration":792954,"SoundDuration":792954,"Delta":271164308},{"NoteNumber":44,"Velocity":23,"Duration":383231,"SoundDuration":383231,"Delta":271974134},{"NoteNumber":44,"Velocity":28,"Duration":792954,"SoundDuration":792954,"Delta":272374027},{"NoteNumber":44,"Velocity":23,"Duration":373959,"SoundDuration":373959,"Delta":273183853},{"NoteNumber":44,"Velocity":28,"Duration":783124,"SoundDuration":783124,"Delta":273574072},{"NoteNumber":44,"Velocity":23,"Duration":378946,"SoundDuration":378946,"Delta":274373859},{"NoteNumber":56,"Velocity":34,"Duration":809825,"SoundDuration":809825,"Delta":274769263},{"NoteNumber":58,"Velocity":34,"Duration":809825,"SoundDuration":809825,"Delta":274769263},{"NoteNumber":61,"Velocity":34,"Duration":809825,"SoundDuration":809825,"Delta":274769263},{"NoteNumber":64,"Velocity":38,"Duration":809825,"SoundDuration":809825,"Delta":274769263},{"NoteNumber":49,"Velocity":38,"Duration":809825,"SoundDuration":809825,"Delta":274769263},{"NoteNumber":44,"Velocity":28,"Duration":792954,"SoundDuration":792954,"Delta":274769263},{"NoteNumber":44,"Velocity":23,"Duration":383231,"SoundDuration":383231,"Delta":275579089},{"NoteNumber":55,"Velocity":34,"Duration":809825,"SoundDuration":809825,"Delta":275978983},{"NoteNumber":58,"Velocity":34,"Duration":809825,"SoundDuration":809825,"Delta":275978983},{"NoteNumber":61,"Velocity":34,"Duration":809825,"SoundDuration":809825,"Delta":275978983},{"NoteNumber":63,"Velocity":38,"Duration":809825,"SoundDuration":809825,"Delta":275978983},{"NoteNumber":51,"Velocity":38,"Duration":809825,"SoundDuration":809825,"Delta":275978983},{"NoteNumber":44,"Velocity":28,"Duration":792954,"SoundDuration":792954,"Delta":275978983},{"NoteNumber":44,"Velocity":23,"Duration":378538,"SoundDuration":378538,"Delta":276788809},{"NoteNumber":44,"Velocity":28,"Duration":773534,"SoundDuration":773534,"Delta":277183805},{"NoteNumber":44,"Velocity":23,"Duration":376412,"SoundDuration":376412,"Delta":277973798},{"NoteNumber":44,"Velocity":28,"Duration":778248,"SoundDuration":778248,"Delta":278366568},{"NoteNumber":44,"Velocity":23,"Duration":380845,"SoundDuration":380845,"Delta":279161375},{"NoteNumber":54,"Velocity":34,"Duration":809825,"SoundDuration":809825,"Delta":279558779},{"NoteNumber":57,"Velocity":34,"Duration":809825,"SoundDuration":809825,"Delta":279558779},{"NoteNumber":62,"Velocity":38,"Duration":809825,"SoundDuration":809825,"Delta":279558779},{"NoteNumber":48,"Velocity":38,"Duration":809825,"SoundDuration":809825,"Delta":279558779},{"NoteNumber":44,"Velocity":28,"Duration":792954,"SoundDuration":792954,"Delta":279558779},{"NoteNumber":44,"Velocity":23,"Duration":383231,"SoundDuration":383231,"Delta":280368605},{"NoteNumber":52,"Velocity":34,"Duration":809825,"SoundDuration":809825,"Delta":280768498},{"NoteNumber":56,"Velocity":34,"Duration":809825,"SoundDuration":809825,"Delta":280768498},{"NoteNumber":61,"Velocity":38,"Duration":809825,"SoundDuration":809825,"Delta":280768498},{"NoteNumber":49,"Velocity":38,"Duration":809825,"SoundDuration":809825,"Delta":280768498},{"NoteNumber":44,"Velocity":28,"Duration":792954,"SoundDuration":792954,"Delta":280768498},{"NoteNumber":44,"Velocity":23,"Duration":383231,"SoundDuration":383231,"Delta":281578324},{"NoteNumber":55,"Velocity":38,"Duration":404913,"SoundDuration":404913,"Delta":281978218},{"NoteNumber":58,"Velocity":38,"Duration":404913,"SoundDuration":404913,"Delta":281978218},{"NoteNumber":44,"Velocity":28,"Duration":2826505,"SoundDuration":2826505,"Delta":281978218},{"NoteNumber":63,"Velocity":68,"Duration":801940,"SoundDuration":801940,"Delta":284002783},{"NoteNumber":75,"Velocity":68,"Duration":801940,"SoundDuration":801940,"Delta":284002783},{"NoteNumber":44,"Velocity":51,"Duration":1971480,"SoundDuration":1971480,"Delta":284423068},{"NoteNumber":51,"Velocity":51,"Duration":1788553,"SoundDuration":1788553,"Delta":284605995},{"NoteNumber":68,"Velocity":73,"Duration":4769475,"SoundDuration":4769475,"Delta":284804723},{"NoteNumber":80,"Velocity":73,"Duration":4769475,"SoundDuration":4769475,"Delta":284804723},{"NoteNumber":59,"Velocity":51,"Duration":1589825,"SoundDuration":1589825,"Delta":284804723},{"NoteNumber":44,"Velocity":28,"Duration":2351616,"SoundDuration":2351616,"Delta":286394548},{"NoteNumber":44,"Velocity":28,"Duration":2351616,"SoundDuration":2351616,"Delta":288779286}]}